0, 0, Header, 1, 2, 480
1, 0, Start_track
1, 0, Tempo, 500000
1, 0, Time_signature, 4, 2, 24, 8
1, 1, End_track
2, 0, Start_track
2, 0, Program_c, 0, 0
2, 0, Control_c, 0, 64, 0
2, 0, Control_c, 0, 67, 127
2, 1002, Note_on_c, 0, 66, 38
2, 1231, Note_on_c, 0, 70, 48
2, 1372, Note_on_c, 0, 66, 0
2, 1413, Note_on_c, 0, 70, 0
2, 1426, Note_on_c, 0, 73, 59
2, 1616, Note_on_c, 0, 70, 57
2, 1624, Note_on_c, 0, 73, 0
2, 1790, Note_on_c, 0, 70, 0
2, 1804, Note_on_c, 0, 66, 60
2, 2004, Note_on_c, 0, 73, 63
2, 2011, Note_on_c, 0, 66, 0
2, 2187, Note_on_c, 0, 54, 38
2, 2199, Note_on_c, 0, 73, 0
2, 2210, Note_on_c, 0, 75, 59
2, 2305, Note_on_c, 0, 75, 0
2, 2326, Note_on_c, 0, 73, 66
2, 2368, Note_on_c, 0, 73, 0
2, 2382, Note_on_c, 0, 75, 61
2, 2425, Note_on_c, 0, 58, 40
2, 2438, Note_on_c, 0, 54, 0
2, 2449, Note_on_c, 0, 73, 71
2, 2483, Note_on_c, 0, 75, 0
2, 2483, Note_on_c, 0, 75, 58
2, 2485, Note_on_c, 0, 73, 0
2, 2562, Note_on_c, 0, 75, 0
2, 2577, Note_on_c, 0, 73, 73
2, 2606, Note_on_c, 0, 58, 0
2, 2640, Note_on_c, 0, 61, 40
2, 2809, Note_on_c, 0, 61, 0
2, 2825, Note_on_c, 0, 58, 51
2, 2984, Note_on_c, 0, 58, 0
2, 3013, Note_on_c, 0, 54, 59
2, 3218, Note_on_c, 0, 63, 61
2, 3334, Note_on_c, 0, 54, 0
2, 3345, Note_on_c, 0, 63, 0
2, 3425, Note_on_c, 0, 63, 58
2, 3620, Note_on_c, 0, 73, 0
2, 3629, Note_on_c, 0, 70, 65
2, 3838, Note_on_c, 0, 71, 71
2, 3872, Note_on_c, 0, 70, 0
2, 4039, Note_on_c, 0, 61, 56
2, 4086, Note_on_c, 0, 63, 0
2, 4232, Note_on_c, 0, 73, 72
2, 4248, Note_on_c, 0, 71, 0
2, 4444, Note_on_c, 0, 70, 64
2, 4469, Note_on_c, 0, 73, 0
2, 4657, Note_on_c, 0, 59, 51
2, 4669, Note_on_c, 0, 61, 0
2, 4832, Note_on_c, 0, 75, 60
2, 4853, Note_on_c, 0, 70, 0
2, 5049, Note_on_c, 0, 68, 62
2, 5076, Note_on_c, 0, 75, 0
2, 5257, Note_on_c, 0, 58, 45
2, 5257, Note_on_c, 0, 59, 0
2, 5442, Note_on_c, 0, 70, 58
2, 5511, Note_on_c, 0, 68, 0
2, 5647, Note_on_c, 0, 70, 0
2, 5661, Note_on_c, 0, 66, 59
2, 5847, Note_on_c, 0, 58, 0
2, 5880, Note_on_c, 0, 56, 41
2, 6054, Note_on_c, 0, 66, 0
2, 6081, Note_on_c, 0, 71, 56
2, 6301, Note_on_c, 0, 65, 49
2, 6314, Note_on_c, 0, 71, 0
2, 6507, Note_on_c, 0, 54, 46
2, 6575, Note_on_c, 0, 56, 0
2, 6650, Note_on_c, 0, 65, 0
2, 6706, Note_on_c, 0, 71, 50
2, 6899, Note_on_c, 0, 71, 0
2, 6931, Note_on_c, 0, 63, 46
2, 7133, Note_on_c, 0, 53, 40
2, 7190, Note_on_c, 0, 54, 0
2, 7299, Note_on_c, 0, 63, 0
2, 7330, Note_on_c, 0, 71, 51
2, 7533, Note_on_c, 0, 61, 45
2, 7637, Note_on_c, 0, 71, 0
2, 7742, Note_on_c, 0, 65, 51
2, 7746, Note_on_c, 0, 49, 38
2, 7784, Note_on_c, 0, 61, 0
2, 7833, Note_on_c, 0, 53, 0
2, 7936, Note_on_c, 0, 65, 0
2, 7948, Note_on_c, 0, 68, 62
2, 8142, Note_on_c, 0, 71, 56
2, 8146, Note_on_c, 0, 68, 0
2, 8326, Note_on_c, 0, 71, 0
2, 8358, Note_on_c, 0, 70, 57
2, 8362, Note_on_c, 0, 54, 36
2, 8493, Note_on_c, 0, 49, 0
2, 8522, Note_on_c, 0, 70, 0
2, 8550, Note_on_c, 0, 66, 59
2, 8757, Note_on_c, 0, 66, 0
2, 8759, Note_on_c, 0, 72, 68
2, 8970, Note_on_c, 0, 56, 52
2, 9043, Note_on_c, 0, 54, 0
2, 9111, Note_on_c, 0, 72, 0
2, 9167, Note_on_c, 0, 66, 61
2, 9382, Note_on_c, 0, 73, 70
2, 9408, Note_on_c, 0, 66, 0
2, 9592, Note_on_c, 0, 58, 59
2, 9660, Note_on_c, 0, 56, 0
2, 9747, Note_on_c, 0, 73, 0
2, 9776, Note_on_c, 0, 66, 66
2, 9821, Note_on_c, 0, 65, 47
2, 9855, Note_on_c, 0, 65, 0
2, 10011, Note_on_c, 0, 75, 71
2, 10027, Note_on_c, 0, 66, 0
2, 10220, Note_on_c, 0, 60, 65
2, 10258, Note_on_c, 0, 58, 0
2, 10421, Note_on_c, 0, 75, 0
2, 10425, Note_on_c, 0, 68, 77
2, 10641, Note_on_c, 0, 77, 77
2, 10707, Note_on_c, 0, 68, 0
2, 10848, Note_on_c, 0, 61, 57
2, 10869, Note_on_c, 0, 60, 0
2, 11053, Note_on_c, 0, 80, 66
2, 11104, Note_on_c, 0, 77, 0
2, 11291, Note_on_c, 0, 73, 64
2, 11401, Note_on_c, 0, 80, 0
2, 11487, Note_on_c, 0, 56, 49
2, 11487, Note_on_c, 0, 61, 0
2, 11706, Note_on_c, 0, 75, 60
2, 11718, Note_on_c, 0, 73, 0
2, 11892, Note_on_c, 0, 75, 0
2, 11906, Note_on_c, 0, 72, 59
2, 12088, Note_on_c, 0, 56, 0
2, 12093, Note_on_c, 0, 58, 40
2, 12125, Note_on_c, 0, 73, 52
2, 12174, Note_on_c, 0, 72, 0
2, 12308, Note_on_c, 0, 73, 0
2, 12326, Note_on_c, 0, 77, 64
2, 12532, Note_on_c, 0, 73, 61
2, 12554, Note_on_c, 0, 77, 0
2, 12614, Note_on_c, 0, 73, 0
2, 12717, Note_on_c, 0, 58, 0
2, 12728, Note_on_c, 0, 53, 36
2, 12732, Note_on_c, 0, 73, 55
2, 12935, Note_on_c, 0, 73, 0
2, 12968, Note_on_c, 0, 77, 54
2, 13044, Note_on_c, 0, 75, 57
2, 13078, Note_on_c, 0, 77, 0
2, 13141, Note_on_c, 0, 75, 0
2, 13179, Note_on_c, 0, 73, 54
2, 13380, Note_on_c, 0, 54, 38
2, 13402, Note_on_c, 0, 53, 0
2, 13582, Note_on_c, 0, 73, 0
2, 13593, Note_on_c, 0, 82, 52
2, 13807, Note_on_c, 0, 73, 56
2, 13812, Note_on_c, 0, 82, 0
2, 13972, Note_on_c, 0, 54, 0
2, 14008, Note_on_c, 0, 56, 41
2, 14210, Note_on_c, 0, 75, 49
2, 14244, Note_on_c, 0, 73, 0
2, 14376, Note_on_c, 0, 75, 0
2, 14421, Note_on_c, 0, 72, 54
2, 14600, Note_on_c, 0, 49, 39
2, 14626, Note_on_c, 0, 72, 0
2, 14646, Note_on_c, 0, 73, 48
2, 14663, Note_on_c, 0, 56, 0
2, 14697, Control_c, 0, 64, 18
2, 14716, Control_c, 0, 64, 30
2, 14735, Control_c, 0, 64, 43
2, 14755, Control_c, 0, 64, 52
2, 14777, Control_c, 0, 64, 56
2, 14792, Control_c, 0, 64, 57
2, 14806, Note_on_c, 0, 73, 0
2, 14832, Control_c, 0, 64, 58
2, 14842, Note_on_c, 0, 77, 52
2, 14852, Control_c, 0, 64, 59
2, 14889, Control_c, 0, 64, 58
2, 14985, Control_c, 0, 64, 57
2, 15028, Note_on_c, 0, 77, 0
2, 15028, Note_on_c, 0, 80, 59
2, 15082, Control_c, 0, 64, 56
2, 15159, Control_c, 0, 64, 55
2, 15179, Note_on_c, 0, 49, 0
2, 15220, Note_on_c, 0, 80, 0
2, 15231, Note_on_c, 0, 77, 58
2, 15254, Control_c, 0, 64, 54
2, 15369, Control_c, 0, 64, 53
2, 15383, Note_on_c, 0, 77, 0
2, 15420, Note_on_c, 0, 73, 66
2, 15577, Note_on_c, 0, 73, 0
2, 15610, Note_on_c, 0, 80, 61
2, 15810, Note_on_c, 0, 49, 38
2, 15814, Note_on_c, 0, 80, 0
2, 15827, Note_on_c, 0, 82, 54
2, 15909, Note_on_c, 0, 82, 0
2, 15926, Note_on_c, 0, 80, 62
2, 15970, Note_on_c, 0, 80, 0
2, 15988, Note_on_c, 0, 82, 60
2, 16050, Note_on_c, 0, 82, 0
2, 16054, Note_on_c, 0, 49, 0
2, 16061, Note_on_c, 0, 53, 43
2, 16061, Note_on_c, 0, 80, 66
2, 16083, Control_c, 0, 64, 52
2, 16094, Note_on_c, 0, 82, 61
2, 16096, Note_on_c, 0, 80, 0
2, 16117, Control_c, 0, 64, 51
2, 16158, Control_c, 0, 64, 50
2, 16169, Note_on_c, 0, 82, 0
2, 16177, Note_on_c, 0, 80, 73
2, 16196, Control_c, 0, 64, 48
2, 16211, Note_on_c, 0, 53, 0
2, 16215, Control_c, 0, 64, 46
2, 16232, Control_c, 0, 64, 45
2, 16237, Note_on_c, 0, 56, 47
2, 16253, Control_c, 0, 64, 44
2, 16271, Control_c, 0, 64, 42
2, 16290, Control_c, 0, 64, 41
2, 16310, Control_c, 0, 64, 39
2, 16331, Control_c, 0, 64, 36
2, 16348, Control_c, 0, 64, 34
2, 16370, Control_c, 0, 64, 33
2, 16387, Control_c, 0, 64, 31
2, 16392, Note_on_c, 0, 56, 0
2, 16406, Control_c, 0, 64, 30
2, 16422, Note_on_c, 0, 53, 48
2, 16446, Control_c, 0, 64, 29
2, 16563, Note_on_c, 0, 53, 0
2, 16609, Note_on_c, 0, 49, 46
2, 16807, Note_on_c, 0, 58, 58
2, 16918, Note_on_c, 0, 58, 0
2, 16930, Note_on_c, 0, 49, 0
2, 17017, Note_on_c, 0, 58, 55
2, 17214, Note_on_c, 0, 77, 68
2, 17239, Note_on_c, 0, 80, 0
2, 17421, Note_on_c, 0, 78, 63
2, 17449, Note_on_c, 0, 77, 0
2, 17464, Control_c, 0, 64, 30
2, 17619, Note_on_c, 0, 56, 55
2, 17630, Note_on_c, 0, 58, 0
2, 17834, Note_on_c, 0, 80, 64
2, 17843, Note_on_c, 0, 78, 0
2, 18036, Note_on_c, 0, 77, 68
2, 18053, Note_on_c, 0, 80, 0
2, 18207, Note_on_c, 0, 56, 0
2, 18223, Note_on_c, 0, 54, 59
2, 18417, Note_on_c, 0, 77, 0
2, 18424, Note_on_c, 0, 82, 62
2, 18642, Note_on_c, 0, 75, 62
2, 18667, Note_on_c, 0, 82, 0
2, 18838, Note_on_c, 0, 54, 0
2, 18842, Note_on_c, 0, 53, 58
2, 19033, Note_on_c, 0, 77, 70
2, 19223, Note_on_c, 0, 75, 0
2, 19233, Note_on_c, 0, 77, 0
2, 19253, Note_on_c, 0, 74, 63
2, 19431, Note_on_c, 0, 74, 0
2, 19455, Note_on_c, 0, 51, 57
2, 19459, Note_on_c, 0, 78, 61
2, 19540, Note_on_c, 0, 53, 0
2, 19661, Note_on_c, 0, 70, 60
2, 19789, Note_on_c, 0, 78, 0
2, 19869, Note_on_c, 0, 71, 68
2, 19879, Note_on_c, 0, 70, 0
2, 20091, Note_on_c, 0, 49, 56
2, 20097, Note_on_c, 0, 51, 0
2, 20253, Note_on_c, 0, 71, 0
2, 20264, Note_on_c, 0, 73, 71
2, 20492, Note_on_c, 0, 70, 69
2, 20500, Note_on_c, 0, 73, 0
2, 20698, Note_on_c, 0, 49, 0
2, 20709, Note_on_c, 0, 47, 63
2, 20874, Note_on_c, 0, 70, 0
2, 20891, Note_on_c, 0, 75, 67
2, 21111, Note_on_c, 0, 68, 71
2, 21158, Note_on_c, 0, 75, 0
2, 21337, Note_on_c, 0, 46, 63
2, 21352, Note_on_c, 0, 47, 0
2, 21526, Note_on_c, 0, 68, 0
2, 21526, Note_on_c, 0, 70, 71
2, 21744, Note_on_c, 0, 66, 67
2, 21770, Note_on_c, 0, 70, 0
2, 21966, Note_on_c, 0, 44, 69
2, 21981, Note_on_c, 0, 46, 0
2, 22163, Note_on_c, 0, 66, 0
2, 22163, Note_on_c, 0, 71, 74
2, 22388, Note_on_c, 0, 71, 0
2, 22407, Note_on_c, 0, 64, 69
2, 22514, Control_c, 0, 64, 29
2, 22606, Note_on_c, 0, 44, 0
2, 22613, Note_on_c, 0, 42, 73
2, 22777, Note_on_c, 0, 64, 0
2, 22791, Note_on_c, 0, 66, 71
2, 23016, Note_on_c, 0, 63, 75
2, 23036, Note_on_c, 0, 66, 0
2, 23073, Control_c, 0, 64, 28
2, 23110, Control_c, 0, 64, 27
2, 23129, Control_c, 0, 64, 26
2, 23149, Control_c, 0, 64, 25
2, 23166, Control_c, 0, 64, 23
2, 23208, Control_c, 0, 64, 21
2, 23226, Control_c, 0, 64, 18
2, 23246, Control_c, 0, 64, 11
2, 23262, Control_c, 0, 64, 0
2, 23273, Note_on_c, 0, 68, 73
2, 23277, Note_on_c, 0, 41, 64
2, 23297, Note_on_c, 0, 63, 0
2, 23325, Note_on_c, 0, 42, 0
2, 23502, Note_on_c, 0, 62, 75
2, 23510, Note_on_c, 0, 68, 0
2, 23718, Note_on_c, 0, 63, 74
2, 23759, Note_on_c, 0, 62, 0
2, 23949, Note_on_c, 0, 51, 77
2, 23967, Note_on_c, 0, 41, 0
2, 24134, Note_on_c, 0, 62, 70
2, 24148, Note_on_c, 0, 63, 0
2, 24358, Note_on_c, 0, 68, 76
2, 24370, Note_on_c, 0, 62, 0
2, 24550, Note_on_c, 0, 51, 0
2, 24561, Note_on_c, 0, 50, 64
2, 24765, Note_on_c, 0, 68, 0
2, 24786, Note_on_c, 0, 65, 69
2, 25006, Note_on_c, 0, 71, 71
2, 25039, Note_on_c, 0, 65, 0
2, 25204, Note_on_c, 0, 46, 57
2, 25218, Note_on_c, 0, 50, 0
2, 25372, Note_on_c, 0, 71, 0
2, 25407, Note_on_c, 0, 68, 65
2, 25635, Note_on_c, 0, 68, 0
2, 25635, Note_on_c, 0, 77, 67
2, 25840, Note_on_c, 0, 51, 53
2, 25862, Note_on_c, 0, 46, 0
2, 26021, Note_on_c, 0, 77, 0
2, 26070, Note_on_c, 0, 65, 51
2, 26278, Note_on_c, 0, 66, 59
2, 26304, Note_on_c, 0, 65, 0
2, 26445, Note_on_c, 0, 51, 0
2, 26471, Note_on_c, 0, 54, 46
2, 26694, Note_on_c, 0, 66, 0
2, 26701, Note_on_c, 0, 70, 51
2, 26920, Note_on_c, 0, 75, 52
2, 26924, Note_on_c, 0, 70, 0
2, 27062, Note_on_c, 0, 54, 0
2, 27125, Note_on_c, 0, 56, 45
2, 27327, Note_on_c, 0, 65, 50
2, 27407, Note_on_c, 0, 75, 0
2, 27556, Note_on_c, 0, 68, 53
2, 27564, Note_on_c, 0, 65, 0
2, 27759, Note_on_c, 0, 56, 0
2, 27766, Note_on_c, 0, 58, 40
2, 27939, Note_on_c, 0, 68, 0
2, 27944, Note_on_c, 0, 70, 55
2, 28132, Note_on_c, 0, 70, 0
2, 28160, Note_on_c, 0, 74, 56
2, 28285, Note_on_c, 0, 74, 0
2, 28332, Note_on_c, 0, 51, 44
2, 28370, Note_on_c, 0, 58, 0
2, 28391, Note_on_c, 0, 75, 53
2, 28478, Note_on_c, 0, 75, 0
2, 28499, Note_on_c, 0, 77, 63
2, 28580, Note_on_c, 0, 75, 58
2, 28580, Note_on_c, 0, 77, 0
2, 28585, Note_on_c, 0, 54, 40
2, 28633, Note_on_c, 0, 75, 0
2, 28635, Note_on_c, 0, 77, 60
2, 28686, Note_on_c, 0, 51, 0
2, 28703, Note_on_c, 0, 77, 0
2, 28708, Note_on_c, 0, 75, 65
2, 28755, Note_on_c, 0, 75, 0
2, 28759, Note_on_c, 0, 77, 66
2, 28787, Note_on_c, 0, 54, 0
2, 28801, Note_on_c, 0, 58, 44
2, 28830, Note_on_c, 0, 77, 0
2, 28838, Note_on_c, 0, 75, 60
2, 28985, Note_on_c, 0, 58, 0
2, 28990, Note_on_c, 0, 54, 50
2, 29162, Note_on_c, 0, 54, 0
2, 29193, Note_on_c, 0, 51, 63
2, 29398, Note_on_c, 0, 60, 61
2, 29469, Note_on_c, 0, 51, 0
2, 29574, Note_on_c, 0, 60, 0
2, 29597, Note_on_c, 0, 61, 59
2, 29644, Note_on_c, 0, 61, 0
2, 29660, Note_on_c, 0, 60, 57
2, 29712, Note_on_c, 0, 60, 0
2, 29740, Note_on_c, 0, 61, 74
2, 29780, Note_on_c, 0, 61, 0
2, 29794, Note_on_c, 0, 60, 61
2, 29838, Note_on_c, 0, 78, 64
2, 29845, Note_on_c, 0, 60, 0
2, 29873, Note_on_c, 0, 61, 60
2, 29895, Note_on_c, 0, 75, 0
2, 29918, Note_on_c, 0, 61, 0
2, 29927, Note_on_c, 0, 60, 55
2, 30029, Note_on_c, 0, 82, 68
2, 30048, Note_on_c, 0, 78, 0
2, 30246, Note_on_c, 0, 78, 70
2, 30284, Note_on_c, 0, 82, 0
2, 30447, Note_on_c, 0, 75, 75
2, 30470, Note_on_c, 0, 78, 0
2, 30643, Note_on_c, 0, 75, 0
2, 30646, Note_on_c, 0, 81, 75
2, 30826, Note_on_c, 0, 81, 0
2, 30847, Note_on_c, 0, 82, 72
2, 30913, Note_on_c, 0, 82, 0
2, 30933, Note_on_c, 0, 81, 64
2, 30988, Note_on_c, 0, 82, 75
2, 30993, Note_on_c, 0, 81, 0
2, 31051, Note_on_c, 0, 82, 0
2, 31060, Note_on_c, 0, 81, 66
2, 31087, Note_on_c, 0, 63, 63
2, 31091, Note_on_c, 0, 82, 65
2, 31117, Note_on_c, 0, 81, 0
2, 31156, Note_on_c, 0, 81, 66
2, 31156, Note_on_c, 0, 82, 0
2, 31179, Note_on_c, 0, 60, 0
2, 31258, Note_on_c, 0, 63, 0
2, 31282, Note_on_c, 0, 66, 62
2, 31465, Note_on_c, 0, 66, 0
2, 31473, Note_on_c, 0, 63, 59
2, 31665, Note_on_c, 0, 63, 0
2, 31679, Note_on_c, 0, 60, 65
2, 31897, Note_on_c, 0, 66, 68
2, 31997, Note_on_c, 0, 66, 0
2, 32081, Note_on_c, 0, 60, 0
2, 32097, Note_on_c, 0, 66, 65
2, 32305, Note_on_c, 0, 66, 0
2, 32310, Note_on_c, 0, 82, 74
2, 32313, Note_on_c, 0, 65, 55
2, 32506, Note_on_c, 0, 81, 0
2, 32515, Note_on_c, 0, 84, 74
2, 32522, Note_on_c, 0, 65, 0
2, 32530, Note_on_c, 0, 63, 61
2, 32685, Note_on_c, 0, 82, 0
2, 32704, Note_on_c, 0, 84, 0
2, 32709, Note_on_c, 0, 63, 0
2, 32719, Note_on_c, 0, 77, 74
2, 32727, Note_on_c, 0, 61, 56
2, 32934, Note_on_c, 0, 63, 52
2, 32934, Note_on_c, 0, 78, 70
2, 32950, Note_on_c, 0, 77, 0
2, 33089, Note_on_c, 0, 63, 0
2, 33125, Note_on_c, 0, 61, 0
2, 33140, Note_on_c, 0, 75, 63
2, 33164, Note_on_c, 0, 65, 42
2, 33164, Note_on_c, 0, 78, 0
2, 33384, Note_on_c, 0, 58, 45
2, 33384, Note_on_c, 0, 73, 60
2, 33406, Note_on_c, 0, 75, 0
2, 33503, Note_on_c, 0, 65, 0
2, 33574, Note_on_c, 0, 73, 0
2, 33605, Note_on_c, 0, 77, 57
2, 33810, Note_on_c, 0, 70, 56
2, 33864, Note_on_c, 0, 77, 0
2, 33993, Note_on_c, 0, 58, 0
2, 34013, Note_on_c, 0, 53, 47
2, 34211, Note_on_c, 0, 72, 64
2, 34224, Note_on_c, 0, 70, 0
2, 34385, Note_on_c, 0, 72, 0
2, 34409, Note_on_c, 0, 69, 60
2, 34577, Note_on_c, 0, 53, 0
2, 34594, Note_on_c, 0, 54, 44
2, 34618, Note_on_c, 0, 69, 0
2, 34621, Note_on_c, 0, 70, 60
2, 34805, Note_on_c, 0, 70, 0
2, 34824, Note_on_c, 0, 73, 63
2, 35032, Note_on_c, 0, 70, 61
2, 35045, Note_on_c, 0, 73, 0
2, 35144, Note_on_c, 0, 70, 0
2, 35219, Note_on_c, 0, 54, 0
2, 35237, Note_on_c, 0, 49, 41
2, 35249, Note_on_c, 0, 70, 56
2, 35447, Note_on_c, 0, 70, 0
2, 35463, Note_on_c, 0, 73, 55
2, 35545, Note_on_c, 0, 72, 57
2, 35592, Note_on_c, 0, 73, 0
2, 35631, Note_on_c, 0, 72, 0
2, 35667, Note_on_c, 0, 70, 52
2, 35881, Note_on_c, 0, 51, 39
2, 35921, Note_on_c, 0, 49, 0
2, 36088, Note_on_c, 0, 78, 55
2, 36113, Note_on_c, 0, 70, 0
2, 36291, Note_on_c, 0, 70, 52
2, 36327, Note_on_c, 0, 78, 0
2, 36458, Note_on_c, 0, 51, 0
2, 36491, Note_on_c, 0, 53, 42
2, 36679, Note_on_c, 0, 72, 55
2, 36705, Note_on_c, 0, 70, 0
2, 36867, Note_on_c, 0, 72, 0
2, 36905, Note_on_c, 0, 69, 44
2, 37110, Note_on_c, 0, 46, 37
2, 37125, Note_on_c, 0, 70, 51
2, 37131, Note_on_c, 0, 53, 0
2, 37131, Note_on_c, 0, 69, 0
2, 37338, Note_on_c, 0, 73, 59
2, 37395, Note_on_c, 0, 70, 0
2, 37526, Note_on_c, 0, 77, 54
2, 37544, Note_on_c, 0, 73, 0
2, 37726, Note_on_c, 0, 73, 56
2, 37726, Note_on_c, 0, 77, 0
2, 37812, Note_on_c, 0, 46, 0
2, 37916, Note_on_c, 0, 73, 0
2, 37927, Note_on_c, 0, 70, 63
2, 38083, Note_on_c, 0, 70, 0
2, 38112, Note_on_c, 0, 79, 63
2, 38287, Note_on_c, 0, 51, 44
2, 38319, Note_on_c, 0, 79, 0
2, 38324, Note_on_c, 0, 80, 63
2, 38393, Note_on_c, 0, 80, 0
2, 38421, Note_on_c, 0, 79, 62
2, 38494, Note_on_c, 0, 79, 0
2, 38501, Note_on_c, 0, 80, 70
2, 38512, Note_on_c, 0, 51, 0
2, 38519, Note_on_c, 0, 55, 39
2, 38559, Note_on_c, 0, 79, 69
2, 38559, Note_on_c, 0, 80, 0
2, 38610, Note_on_c, 0, 80, 67
2, 38614, Note_on_c, 0, 79, 0
2, 38664, Note_on_c, 0, 55, 0
2, 38677, Note_on_c, 0, 79, 72
2, 38684, Note_on_c, 0, 80, 0
2, 38692, Note_on_c, 0, 58, 53
2, 38853, Note_on_c, 0, 58, 0
2, 38889, Note_on_c, 0, 55, 48
2, 39063, Note_on_c, 0, 55, 0
2, 39085, Note_on_c, 0, 51, 57
2, 39290, Note_on_c, 0, 61, 62
2, 39415, Note_on_c, 0, 61, 0
2, 39454, Note_on_c, 0, 79, 0
2, 39494, Note_on_c, 0, 61, 60
2, 39506, Note_on_c, 0, 51, 0
2, 39690, Note_on_c, 0, 82, 64
2, 39900, Note_on_c, 0, 75, 69
2, 40010, Note_on_c, 0, 82, 0
2, 40124, Note_on_c, 0, 73, 71
2, 40129, Note_on_c, 0, 55, 45
2, 40135, Note_on_c, 0, 61, 0
2, 40185, Note_on_c, 0, 75, 0
2, 40297, Note_on_c, 0, 73, 0
2, 40335, Note_on_c, 0, 71, 64
2, 40538, Note_on_c, 0, 71, 0
2, 40543, Note_on_c, 0, 70, 57
2, 40727, Note_on_c, 0, 71, 53
2, 40730, Note_on_c, 0, 55, 0
2, 40743, Note_on_c, 0, 56, 43
2, 40743, Note_on_c, 0, 70, 0
2, 40940, Note_on_c, 0, 75, 55
2, 40944, Note_on_c, 0, 71, 0
2, 41151, Note_on_c, 0, 68, 60
2, 41274, Note_on_c, 0, 75, 0
2, 41356, Note_on_c, 0, 56, 0
2, 41370, Note_on_c, 0, 51, 46
2, 41565, Note_on_c, 0, 70, 56
2, 41627, Note_on_c, 0, 68, 0
2, 41744, Note_on_c, 0, 70, 0
2, 41767, Note_on_c, 0, 67, 53
2, 41974, Note_on_c, 0, 52, 41
2, 41984, Note_on_c, 0, 67, 0
2, 41984, Note_on_c, 0, 68, 62
2, 42028, Note_on_c, 0, 51, 0
2, 42171, Note_on_c, 0, 68, 0
2, 42197, Note_on_c, 0, 71, 58
2, 42397, Note_on_c, 0, 68, 61
2, 42402, Note_on_c, 0, 71, 0
2, 42510, Note_on_c, 0, 68, 0
2, 42619, Note_on_c, 0, 52, 0
2, 42625, Note_on_c, 0, 47, 41
2, 42630, Note_on_c, 0, 68, 54
2, 42816, Note_on_c, 0, 68, 0
2, 42842, Note_on_c, 0, 71, 56
2, 42919, Note_on_c, 0, 71, 0
2, 42930, Note_on_c, 0, 70, 59
2, 43019, Note_on_c, 0, 70, 0
2, 43053, Note_on_c, 0, 68, 56
2, 43271, Note_on_c, 0, 49, 41
2, 43277, Note_on_c, 0, 47, 0
2, 43500, Note_on_c, 0, 76, 56
2, 43505, Note_on_c, 0, 68, 0
2, 43715, Note_on_c, 0, 68, 53
2, 43721, Note_on_c, 0, 76, 0
2, 43914, Note_on_c, 0, 49, 0
2, 43923, Note_on_c, 0, 51, 46
2, 44123, Note_on_c, 0, 70, 52
2, 44215, Note_on_c, 0, 68, 0
2, 44300, Note_on_c, 0, 70, 0
2, 44347, Note_on_c, 0, 67, 48
2, 44524, Note_on_c, 0, 67, 0
2, 44543, Note_on_c, 0, 44, 40
2, 44552, Control_c, 0, 64, 26
2, 44552, Note_on_c, 0, 51, 0
2, 44552, Note_on_c, 0, 68, 46
2, 44569, Control_c, 0, 64, 35
2, 44591, Control_c, 0, 64, 36
2, 44609, Control_c, 0, 64, 43
2, 44628, Control_c, 0, 64, 52
2, 44648, Control_c, 0, 64, 58
2, 44665, Control_c, 0, 64, 59
2, 44742, Note_on_c, 0, 71, 49
2, 44771, Note_on_c, 0, 68, 0
2, 44804, Control_c, 0, 64, 60
2, 44935, Control_c, 0, 64, 59
2, 44953, Note_on_c, 0, 71, 0
2, 44957, Note_on_c, 0, 75, 55
2, 45052, Control_c, 0, 64, 58
2, 45109, Control_c, 0, 64, 57
2, 45144, Note_on_c, 0, 75, 0
2, 45155, Note_on_c, 0, 44, 0
2, 45163, Note_on_c, 0, 71, 59
2, 45346, Note_on_c, 0, 71, 0
2, 45369, Note_on_c, 0, 68, 65
2, 45533, Note_on_c, 0, 68, 0
2, 45570, Note_on_c, 0, 77, 69
2, 45764, Note_on_c, 0, 77, 0
2, 45773, Note_on_c, 0, 49, 37
2, 45782, Note_on_c, 0, 78, 61
2, 45852, Note_on_c, 0, 78, 0
2, 45870, Note_on_c, 0, 77, 62
2, 45928, Note_on_c, 0, 77, 0
2, 45949, Note_on_c, 0, 78, 73
2, 45984, Note_on_c, 0, 53, 44
2, 46008, Note_on_c, 0, 49, 0
2, 46012, Note_on_c, 0, 77, 69
2, 46012, Note_on_c, 0, 78, 0
2, 46055, Note_on_c, 0, 78, 66
2, 46064, Note_on_c, 0, 77, 0
2, 46072, Control_c, 0, 64, 56
2, 46088, Control_c, 0, 64, 55
2, 46106, Control_c, 0, 64, 53
2, 46127, Note_on_c, 0, 78, 0
2, 46131, Control_c, 0, 64, 49
2, 46131, Note_on_c, 0, 77, 74
2, 46146, Control_c, 0, 64, 46
2, 46158, Note_on_c, 0, 53, 0
2, 46168, Control_c, 0, 64, 40
2, 46168, Note_on_c, 0, 56, 55
2, 46184, Control_c, 0, 64, 30
2, 46204, Control_c, 0, 64, 15
2, 46223, Control_c, 0, 64, 0
2, 46350, Note_on_c, 0, 56, 0
2, 46362, Note_on_c, 0, 53, 54
2, 46562, Note_on_c, 0, 49, 60
2, 46562, Note_on_c, 0, 53, 0
2, 46570, Control_c, 0, 64, 15
2, 46587, Control_c, 0, 64, 18
2, 46626, Control_c, 0, 64, 24
2, 46646, Control_c, 0, 64, 32
2, 46665, Control_c, 0, 64, 39
2, 46682, Control_c, 0, 64, 42
2, 46722, Control_c, 0, 64, 43
2, 46761, Control_c, 0, 64, 45
2, 46761, Note_on_c, 0, 49, 0
2, 46780, Control_c, 0, 64, 46
2, 46784, Note_on_c, 0, 59, 60
2, 46799, Control_c, 0, 64, 47
2, 46856, Control_c, 0, 64, 48
2, 46880, Note_on_c, 0, 59, 0
2, 46894, Control_c, 0, 64, 49
2, 46953, Control_c, 0, 64, 50
2, 46979, Note_on_c, 0, 59, 60
2, 47048, Control_c, 0, 64, 51
2, 47087, Control_c, 0, 64, 52
2, 47126, Control_c, 0, 64, 53
2, 47160, Note_on_c, 0, 77, 0
2, 47165, Control_c, 0, 64, 54
2, 47172, Note_on_c, 0, 73, 72
2, 47183, Control_c, 0, 64, 55
2, 47200, Control_c, 0, 64, 56
2, 47258, Control_c, 0, 64, 57
2, 47277, Control_c, 0, 64, 58
2, 47370, Note_on_c, 0, 77, 77
2, 47379, Note_on_c, 0, 73, 0
2, 47393, Control_c, 0, 64, 59
2, 47585, Note_on_c, 0, 80, 81
2, 47631, Note_on_c, 0, 77, 0
2, 47746, Note_on_c, 0, 59, 0
2, 47791, Note_on_c, 0, 56, 55
2, 47791, Note_on_c, 0, 77, 85
2, 47796, Note_on_c, 0, 80, 0
2, 47970, Control_c, 0, 64, 58
2, 48006, Note_on_c, 0, 59, 59
2, 48006, Note_on_c, 0, 80, 80
2, 48038, Note_on_c, 0, 77, 0
2, 48123, Note_on_c, 0, 56, 0
2, 48163, Control_c, 0, 64, 57
2, 48241, Control_c, 0, 64, 56
2, 48248, Note_on_c, 0, 59, 0
2, 48258, Note_on_c, 0, 83, 81
2, 48269, Note_on_c, 0, 80, 0
2, 48293, Note_on_c, 0, 65, 53
2, 48296, Control_c, 0, 64, 55
2, 48372, Control_c, 0, 64, 54
2, 48487, Control_c, 0, 64, 53
2, 48494, Note_on_c, 0, 68, 59
2, 48545, Control_c, 0, 64, 52
2, 48576, Note_on_c, 0, 65, 0
2, 48623, Control_c, 0, 64, 51
2, 48643, Note_on_c, 0, 68, 0
2, 48693, Note_on_c, 0, 65, 55
2, 48900, Note_on_c, 0, 61, 56
2, 48905, Note_on_c, 0, 65, 0
2, 49060, Note_on_c, 0, 61, 0
2, 49065, Control_c, 0, 64, 50
2, 49085, Control_c, 0, 64, 49
2, 49089, Note_on_c, 0, 65, 62
2, 49103, Control_c, 0, 64, 48
2, 49140, Control_c, 0, 64, 47
2, 49159, Control_c, 0, 64, 46
2, 49178, Control_c, 0, 64, 45
2, 49199, Control_c, 0, 64, 43
2, 49218, Control_c, 0, 64, 41
2, 49239, Control_c, 0, 64, 39
2, 49256, Control_c, 0, 64, 38
2, 49274, Control_c, 0, 64, 35
2, 49292, Note_on_c, 0, 65, 0
2, 49296, Control_c, 0, 64, 21
2, 49308, Note_on_c, 0, 61, 55
2, 49314, Control_c, 0, 64, 0
2, 49521, Note_on_c, 0, 54, 55
2, 49542, Note_on_c, 0, 61, 0
2, 49722, Note_on_c, 0, 80, 70
2, 49810, Note_on_c, 0, 83, 0
2, 49952, Note_on_c, 0, 82, 67
2, 50001, Note_on_c, 0, 80, 0
2, 50166, Note_on_c, 0, 59, 65
2, 50180, Note_on_c, 0, 54, 0
2, 50361, Note_on_c, 0, 83, 75
2, 50380, Note_on_c, 0, 82, 0
2, 50580, Note_on_c, 0, 80, 77
2, 50657, Note_on_c, 0, 83, 0
2, 50799, Note_on_c, 0, 60, 65
2, 50833, Note_on_c, 0, 59, 0
2, 50976, Note_on_c, 0, 80, 0
2, 50989, Note_on_c, 0, 77, 76
2, 51224, Note_on_c, 0, 78, 73
2, 51284, Note_on_c, 0, 77, 0
2, 51440, Note_on_c, 0, 60, 0
2, 51446, Note_on_c, 0, 61, 55
2, 51642, Note_on_c, 0, 80, 71
2, 51668, Note_on_c, 0, 78, 0
2, 51819, Note_on_c, 0, 61, 0
2, 51835, Note_on_c, 0, 77, 74
2, 51863, Note_on_c, 0, 80, 0
2, 52054, Note_on_c, 0, 77, 0
2, 52059, Note_on_c, 0, 51, 54
2, 52070, Note_on_c, 0, 78, 64
2, 52307, Note_on_c, 0, 70, 72
2, 52358, Note_on_c, 0, 78, 0
2, 52509, Note_on_c, 0, 70, 0
2, 52518, Note_on_c, 0, 71, 72
2, 52755, Note_on_c, 0, 49, 57
2, 52778, Note_on_c, 0, 51, 0
2, 52960, Note_on_c, 0, 73, 74
2, 52975, Note_on_c, 0, 71, 0
2, 53173, Note_on_c, 0, 70, 72
2, 53186, Note_on_c, 0, 73, 0
2, 53375, Note_on_c, 0, 49, 0
2, 53379, Note_on_c, 0, 47, 60
2, 53597, Note_on_c, 0, 75, 66
2, 53603, Note_on_c, 0, 70, 0
2, 53811, Note_on_c, 0, 68, 65
2, 53911, Note_on_c, 0, 75, 0
2, 54008, Note_on_c, 0, 46, 50
2, 54012, Note_on_c, 0, 47, 0
2, 54225, Note_on_c, 0, 68, 0
2, 54230, Note_on_c, 0, 70, 62
2, 54444, Note_on_c, 0, 66, 59
2, 54462, Note_on_c, 0, 70, 0
2, 54644, Note_on_c, 0, 46, 0
2, 54657, Note_on_c, 0, 44, 57
2, 54863, Note_on_c, 0, 65, 58
2, 54891, Note_on_c, 0, 66, 0
2, 55100, Note_on_c, 0, 71, 68
2, 55131, Note_on_c, 0, 65, 0
2, 55318, Note_on_c, 0, 54, 65
2, 55342, Note_on_c, 0, 44, 0
2, 55516, Note_on_c, 0, 68, 75
2, 55526, Note_on_c, 0, 71, 0
2, 55724, Note_on_c, 0, 75, 72
2, 55954, Note_on_c, 0, 53, 73
2, 55982, Note_on_c, 0, 54, 0
2, 56121, Note_on_c, 0, 68, 0
2, 56137, Note_on_c, 0, 75, 0
2, 56160, Note_on_c, 0, 71, 80
2, 56390, Note_on_c, 0, 80, 79
2, 56420, Note_on_c, 0, 71, 0
2, 56620, Note_on_c, 0, 49, 61
2, 56623, Note_on_c, 0, 53, 0
2, 56830, Note_on_c, 0, 77, 75
2, 56964, Note_on_c, 0, 80, 0
2, 57045, Note_on_c, 0, 77, 0
2, 57059, Note_on_c, 0, 71, 72
2, 57275, Note_on_c, 0, 54, 54
2, 57282, Note_on_c, 0, 49, 0
2, 57465, Note_on_c, 0, 68, 69
2, 57488, Note_on_c, 0, 71, 0
2, 57692, Note_on_c, 0, 68, 0
2, 57700, Note_on_c, 0, 73, 69
2, 57916, Note_on_c, 0, 46, 38
2, 57960, Note_on_c, 0, 54, 0
2, 58121, Note_on_c, 0, 70, 54
2, 58244, Note_on_c, 0, 73, 0
2, 58343, Note_on_c, 0, 66, 53
2, 58348, Note_on_c, 0, 70, 0
2, 58539, Note_on_c, 0, 47, 42
2, 58577, Note_on_c, 0, 46, 0
2, 58763, Note_on_c, 0, 63, 52
2, 58804, Note_on_c, 0, 66, 0
2, 58981, Note_on_c, 0, 63, 0
2, 58985, Note_on_c, 0, 71, 53
2, 59196, Note_on_c, 0, 47, 0
2, 59196, Note_on_c, 0, 49, 38
2, 59381, Note_on_c, 0, 68, 53
2, 59550, Note_on_c, 0, 68, 0
2, 59613, Note_on_c, 0, 65, 37
2, 59783, Note_on_c, 0, 65, 0
2, 59810, Note_on_c, 0, 42, 33
2, 59827, Note_on_c, 0, 66, 38
2, 59945, Note_on_c, 0, 49, 0
2, 59983, Note_on_c, 0, 71, 0
2, 60016, Note_on_c, 0, 42, 0
2, 60026, Note_on_c, 0, 46, 38
2, 60241, Note_on_c, 0, 49, 45
2, 60248, Note_on_c, 0, 46, 0
2, 60279, Control_c, 0, 64, 26
2, 60294, Control_c, 0, 64, 31
2, 60317, Control_c, 0, 64, 32
2, 60352, Control_c, 0, 64, 33
2, 60372, Control_c, 0, 64, 37
2, 60392, Control_c, 0, 64, 42
2, 60411, Control_c, 0, 64, 46
2, 60430, Control_c, 0, 64, 49
2, 60440, Note_on_c, 0, 46, 44
2, 60440, Note_on_c, 0, 49, 0
2, 60449, Control_c, 0, 64, 50
2, 60471, Control_c, 0, 64, 51
2, 60491, Control_c, 0, 64, 53
2, 60506, Control_c, 0, 64, 55
2, 60546, Control_c, 0, 64, 56
2, 60601, Note_on_c, 0, 46, 0
2, 60634, Note_on_c, 0, 42, 48
2, 60660, Control_c, 0, 64, 57
2, 60756, Control_c, 0, 64, 58
2, 60861, Note_on_c, 0, 51, 59
2, 60949, Control_c, 0, 64, 57
2, 60981, Note_on_c, 0, 51, 0
2, 61030, Note_on_c, 0, 42, 0
2, 61044, Control_c, 0, 64, 56
2, 61086, Note_on_c, 0, 51, 55
2, 61100, Control_c, 0, 64, 55
2, 61181, Control_c, 0, 64, 54
2, 61259, Control_c, 0, 64, 53
2, 61285, Note_on_c, 0, 58, 55
2, 61494, Note_on_c, 0, 59, 62
2, 61520, Note_on_c, 0, 66, 0
2, 61524, Note_on_c, 0, 58, 0
2, 61710, Note_on_c, 0, 49, 53
2, 61744, Note_on_c, 0, 51, 0
2, 61891, Note_on_c, 0, 61, 58
2, 61904, Note_on_c, 0, 59, 0
2, 62114, Note_on_c, 0, 58, 58
2, 62172, Note_on_c, 0, 61, 0
2, 62335, Note_on_c, 0, 49, 0
2, 62351, Note_on_c, 0, 47, 46
2, 62531, Note_on_c, 0, 58, 0
2, 62548, Note_on_c, 0, 63, 54
2, 62776, Note_on_c, 0, 56, 50
2, 62894, Note_on_c, 0, 63, 0
2, 62962, Note_on_c, 0, 47, 0
2, 62970, Note_on_c, 0, 46, 41
2, 62986, Control_c, 0, 64, 54
2, 63173, Note_on_c, 0, 56, 0
2, 63191, Note_on_c, 0, 58, 47
2, 63368, Note_on_c, 0, 58, 0
2, 63408, Note_on_c, 0, 54, 50
2, 63485, Control_c, 0, 64, 53
2, 63561, Control_c, 0, 64, 52
2, 63582, Control_c, 0, 64, 50
2, 63600, Control_c, 0, 64, 47
2, 63617, Note_on_c, 0, 44, 46
2, 63622, Control_c, 0, 64, 40
2, 63628, Note_on_c, 0, 46, 0
2, 63628, Note_on_c, 0, 59, 55
2, 63639, Control_c, 0, 64, 30
2, 63639, Note_on_c, 0, 54, 0
2, 63659, Control_c, 0, 64, 0
2, 63835, Note_on_c, 0, 47, 50
2, 63851, Control_c, 0, 64, 25
2, 63871, Control_c, 0, 64, 38
2, 63889, Control_c, 0, 64, 46
2, 63908, Control_c, 0, 64, 51
2, 63926, Control_c, 0, 64, 54
2, 63946, Control_c, 0, 64, 56
2, 63953, Note_on_c, 0, 44, 0
2, 63966, Control_c, 0, 64, 57
2, 64007, Control_c, 0, 64, 58
2, 64023, Control_c, 0, 64, 60
2, 64044, Control_c, 0, 64, 61
2, 64044, Note_on_c, 0, 47, 0
2, 64049, Note_on_c, 0, 51, 53
2, 64080, Control_c, 0, 64, 62
2, 64138, Control_c, 0, 64, 63
2, 64159, Control_c, 0, 64, 64
2, 64177, Control_c, 0, 64, 65
2, 64215, Control_c, 0, 64, 66
2, 64236, Control_c, 0, 64, 67
2, 64236, Note_on_c, 0, 47, 51
2, 64339, Note_on_c, 0, 51, 0
2, 64351, Control_c, 0, 64, 66
2, 64408, Control_c, 0, 64, 65
2, 64435, Note_on_c, 0, 47, 0
2, 64447, Control_c, 0, 64, 63
2, 64455, Note_on_c, 0, 44, 60
2, 64465, Control_c, 0, 64, 58
2, 64487, Control_c, 0, 64, 52
2, 64505, Control_c, 0, 64, 50
2, 64522, Control_c, 0, 64, 53
2, 64540, Control_c, 0, 64, 57
2, 64560, Control_c, 0, 64, 60
2, 64580, Control_c, 0, 64, 62
2, 64598, Control_c, 0, 64, 64
2, 64620, Control_c, 0, 64, 65
2, 64656, Control_c, 0, 64, 66
2, 64666, Note_on_c, 0, 53, 68
2, 64677, Control_c, 0, 64, 68
2, 64697, Control_c, 0, 64, 69
2, 64715, Control_c, 0, 64, 71
2, 64723, Note_on_c, 0, 44, 0
2, 64735, Control_c, 0, 64, 72
2, 64768, Note_on_c, 0, 53, 0
2, 64811, Control_c, 0, 64, 71
2, 64829, Control_c, 0, 64, 70
2, 64868, Control_c, 0, 64, 69
2, 64887, Control_c, 0, 64, 68
2, 64907, Control_c, 0, 64, 67
2, 64927, Control_c, 0, 64, 66
2, 64945, Note_on_c, 0, 37, 60
2, 64949, Control_c, 0, 64, 65
2, 64967, Control_c, 0, 64, 63
2, 64984, Control_c, 0, 64, 60
2, 65006, Control_c, 0, 64, 55
2, 65024, Control_c, 0, 64, 47
2, 65039, Control_c, 0, 64, 40
2, 65059, Control_c, 0, 64, 39
2, 65079, Control_c, 0, 64, 42
2, 65099, Control_c, 0, 64, 49
2, 65118, Control_c, 0, 64, 57
2, 65139, Control_c, 0, 64, 60
2, 65159, Control_c, 0, 64, 61
2, 65194, Control_c, 0, 64, 62
2, 65203, Note_on_c, 0, 65, 54
2, 65216, Control_c, 0, 64, 63
2, 65271, Control_c, 0, 64, 64
2, 65425, Note_on_c, 0, 68, 57
2, 65439, Note_on_c, 0, 65, 0
2, 65481, Control_c, 0, 64, 65
2, 65555, Note_on_c, 0, 59, 0
2, 65641, Note_on_c, 0, 65, 52
2, 65657, Control_c, 0, 64, 66
2, 65755, Note_on_c, 0, 68, 0
2, 65867, Control_c, 0, 64, 67
2, 65876, Note_on_c, 0, 59, 60
2, 65909, Note_on_c, 0, 65, 0
2, 66097, Note_on_c, 0, 59, 0
2, 66101, Note_on_c, 0, 68, 57
2, 66269, Control_c, 0, 64, 66
2, 66291, Control_c, 0, 64, 64
2, 66308, Control_c, 0, 64, 60
2, 66319, Note_on_c, 0, 57, 62
2, 66319, Note_on_c, 0, 68, 0
2, 66328, Control_c, 0, 64, 55
2, 66364, Control_c, 0, 64, 56
2, 66384, Control_c, 0, 64, 58
2, 66404, Control_c, 0, 64, 61
2, 66422, Control_c, 0, 64, 63
2, 66446, Control_c, 0, 64, 64
2, 66464, Control_c, 0, 64, 65
2, 66482, Control_c, 0, 64, 66
2, 66502, Control_c, 0, 64, 68
2, 66519, Control_c, 0, 64, 69
2, 66532, Note_on_c, 0, 61, 55
2, 66538, Control_c, 0, 64, 71
2, 66557, Control_c, 0, 64, 73
2, 66578, Control_c, 0, 64, 74
2, 66597, Control_c, 0, 64, 76
2, 66606, Note_on_c, 0, 57, 0
2, 66634, Control_c, 0, 64, 77
2, 66654, Control_c, 0, 64, 78
2, 66674, Control_c, 0, 64, 79
2, 66692, Control_c, 0, 64, 81
2, 66754, Note_on_c, 0, 66, 58
2, 66864, Control_c, 0, 64, 80
2, 66887, Control_c, 0, 64, 79
2, 66903, Control_c, 0, 64, 76
2, 66922, Control_c, 0, 64, 71
2, 66941, Control_c, 0, 64, 66
2, 66953, Note_on_c, 0, 49, 58
2, 66953, Note_on_c, 0, 59, 72
2, 66964, Control_c, 0, 64, 63
2, 66981, Control_c, 0, 64, 61
2, 67015, Note_on_c, 0, 66, 0
2, 67019, Control_c, 0, 64, 62
2, 67037, Control_c, 0, 64, 63
2, 67055, Control_c, 0, 64, 65
2, 67062, Note_on_c, 0, 61, 0
2, 67075, Control_c, 0, 64, 67
2, 67095, Control_c, 0, 64, 69
2, 67115, Control_c, 0, 64, 72
2, 67133, Control_c, 0, 64, 76
2, 67153, Control_c, 0, 64, 78
2, 67171, Note_on_c, 0, 65, 58
2, 67175, Control_c, 0, 64, 81
2, 67192, Control_c, 0, 64, 82
2, 67232, Control_c, 0, 64, 83
2, 67266, Note_on_c, 0, 59, 0
2, 67293, Note_on_c, 0, 37, 0
2, 67361, Note_on_c, 0, 68, 63
2, 67385, Control_c, 0, 64, 84
2, 67389, Note_on_c, 0, 65, 0
2, 67442, Note_on_c, 0, 68, 0
2, 67479, Control_c, 0, 64, 83
2, 67516, Control_c, 0, 64, 82
2, 67556, Control_c, 0, 64, 80
2, 67573, Control_c, 0, 64, 77
2, 67573, Note_on_c, 0, 37, 64
2, 67582, Note_on_c, 0, 61, 68
2, 67591, Control_c, 0, 64, 71
2, 67614, Control_c, 0, 64, 64
2, 67633, Control_c, 0, 64, 62
2, 67668, Control_c, 0, 64, 63
2, 67687, Control_c, 0, 64, 64
2, 67707, Control_c, 0, 64, 66
2, 67725, Control_c, 0, 64, 69
2, 67749, Control_c, 0, 64, 72
2, 67765, Control_c, 0, 64, 74
2, 67783, Control_c, 0, 64, 76
2, 67790, Note_on_c, 0, 66, 66
2, 67805, Control_c, 0, 64, 77
2, 67823, Control_c, 0, 64, 78
2, 67841, Control_c, 0, 64, 79
2, 67867, Note_on_c, 0, 61, 0
2, 67879, Control_c, 0, 64, 80
2, 67900, Control_c, 0, 64, 81
2, 67975, Control_c, 0, 64, 82
2, 67996, Note_on_c, 0, 69, 64
2, 68010, Control_c, 0, 64, 83
2, 68024, Note_on_c, 0, 66, 0
2, 68047, Note_on_c, 0, 49, 0
2, 68054, Note_on_c, 0, 69, 0
2, 68125, Control_c, 0, 64, 82
2, 68145, Control_c, 0, 64, 81
2, 68185, Control_c, 0, 64, 80
2, 68201, Control_c, 0, 64, 79
2, 68222, Control_c, 0, 64, 75
2, 68224, Note_on_c, 0, 49, 68
2, 68228, Note_on_c, 0, 62, 74
2, 68240, Control_c, 0, 64, 70
2, 68260, Control_c, 0, 64, 65
2, 68278, Control_c, 0, 64, 61
2, 68300, Control_c, 0, 64, 59
2, 68337, Control_c, 0, 64, 61
2, 68357, Control_c, 0, 64, 63
2, 68374, Control_c, 0, 64, 64
2, 68394, Control_c, 0, 64, 66
2, 68414, Control_c, 0, 64, 69
2, 68433, Control_c, 0, 64, 72
2, 68444, Note_on_c, 0, 68, 69
2, 68452, Control_c, 0, 64, 75
2, 68470, Control_c, 0, 64, 78
2, 68490, Control_c, 0, 64, 79
2, 68508, Control_c, 0, 64, 80
2, 68537, Note_on_c, 0, 37, 0
2, 68550, Control_c, 0, 64, 81
2, 68621, Note_on_c, 0, 62, 0
2, 68629, Control_c, 0, 64, 82
2, 68629, Note_on_c, 0, 71, 72
2, 68647, Control_c, 0, 64, 83
2, 68662, Note_on_c, 0, 68, 0
2, 68686, Note_on_c, 0, 71, 0
2, 68779, Control_c, 0, 64, 82
2, 68808, Note_on_c, 0, 49, 0
2, 68817, Control_c, 0, 64, 81
2, 68836, Control_c, 0, 64, 79
2, 68856, Control_c, 0, 64, 77
2, 68874, Control_c, 0, 64, 72
2, 68880, Note_on_c, 0, 37, 65
2, 68880, Note_on_c, 0, 65, 73
2, 68894, Control_c, 0, 64, 64
2, 68912, Control_c, 0, 64, 57
2, 68932, Control_c, 0, 64, 50
2, 68949, Control_c, 0, 64, 47
2, 68969, Control_c, 0, 64, 48
2, 68991, Control_c, 0, 64, 53
2, 69008, Control_c, 0, 64, 60
2, 69029, Control_c, 0, 64, 63
2, 69047, Control_c, 0, 64, 64
2, 69068, Control_c, 0, 64, 65
2, 69086, Control_c, 0, 64, 67
2, 69104, Control_c, 0, 64, 69
2, 69108, Note_on_c, 0, 71, 71
2, 69113, Note_on_c, 0, 37, 0
2, 69124, Control_c, 0, 64, 71
2, 69145, Control_c, 0, 64, 74
2, 69162, Control_c, 0, 64, 75
2, 69201, Control_c, 0, 64, 74
2, 69249, Note_on_c, 0, 65, 0
2, 69262, Control_c, 0, 64, 73
2, 69312, Note_on_c, 0, 74, 69
2, 69317, Control_c, 0, 64, 72
2, 69349, Note_on_c, 0, 71, 0
2, 69355, Control_c, 0, 64, 71
2, 69401, Note_on_c, 0, 74, 0
2, 69411, Control_c, 0, 64, 70
2, 69451, Control_c, 0, 64, 69
2, 69508, Control_c, 0, 64, 68
2, 69532, Note_on_c, 0, 53, 76
2, 69548, Control_c, 0, 64, 67
2, 69566, Control_c, 0, 64, 66
2, 69623, Control_c, 0, 64, 64
2, 69643, Control_c, 0, 64, 63
2, 69661, Control_c, 0, 64, 62
2, 69699, Control_c, 0, 64, 60
2, 69719, Control_c, 0, 64, 58
2, 69739, Note_on_c, 0, 71, 80
2, 69743, Control_c, 0, 64, 57
2, 69857, Control_c, 0, 64, 58
2, 69949, Control_c, 0, 64, 59
2, 69971, Control_c, 0, 64, 58
2, 69971, Note_on_c, 0, 77, 84
2, 69989, Control_c, 0, 64, 56
2, 70007, Control_c, 0, 64, 50
2, 70026, Control_c, 0, 64, 37
2, 70045, Note_on_c, 0, 71, 0
2, 70049, Control_c, 0, 64, 16
2, 70065, Control_c, 0, 64, 10
2, 70085, Control_c, 0, 64, 22
2, 70103, Control_c, 0, 64, 39
2, 70124, Control_c, 0, 64, 52
2, 70142, Control_c, 0, 64, 60
2, 70161, Control_c, 0, 64, 62
2, 70181, Note_on_c, 0, 56, 73
2, 70214, Note_on_c, 0, 53, 0
2, 70258, Control_c, 0, 64, 63
2, 70318, Control_c, 0, 64, 62
2, 70360, Note_on_c, 0, 77, 0
2, 70379, Note_on_c, 0, 74, 82
2, 70528, Control_c, 0, 64, 61
2, 70606, Note_on_c, 0, 80, 80
2, 70627, Control_c, 0, 64, 60
2, 70655, Note_on_c, 0, 74, 0
2, 70720, Control_c, 0, 64, 59
2, 70760, Control_c, 0, 64, 58
2, 70800, Control_c, 0, 64, 57
2, 70819, Control_c, 0, 64, 56
2, 70824, Note_on_c, 0, 61, 62
2, 70828, Note_on_c, 0, 56, 0
2, 70835, Control_c, 0, 64, 54
2, 70856, Control_c, 0, 64, 52
2, 70876, Control_c, 0, 64, 48
2, 70895, Control_c, 0, 64, 41
2, 70915, Control_c, 0, 64, 28
2, 70932, Control_c, 0, 64, 0
2, 71036, Note_on_c, 0, 77, 75
2, 71043, Note_on_c, 0, 80, 0
2, 71262, Note_on_c, 0, 77, 0
2, 71297, Note_on_c, 0, 83, 57
2, 71592, Note_on_c, 0, 54, 32
2, 71599, Note_on_c, 0, 82, 42
2, 71671, Note_on_c, 0, 61, 0
2, 71707, Note_on_c, 0, 83, 0
2, 71777, Note_on_c, 0, 82, 0
2, 71805, Note_on_c, 0, 73, 57
2, 72023, Note_on_c, 0, 78, 55
2, 72090, Note_on_c, 0, 73, 0
2, 72252, Note_on_c, 0, 54, 0
2, 72254, Note_on_c, 0, 49, 38
2, 72437, Note_on_c, 0, 80, 55
2, 72450, Note_on_c, 0, 78, 0
2, 72640, Note_on_c, 0, 77, 56
2, 72646, Note_on_c, 0, 80, 0
2, 72846, Note_on_c, 0, 51, 39
2, 72850, Note_on_c, 0, 78, 58
2, 72854, Note_on_c, 0, 77, 0
2, 72911, Note_on_c, 0, 49, 0
2, 73039, Note_on_c, 0, 78, 0
2, 73059, Note_on_c, 0, 70, 56
2, 73255, Note_on_c, 0, 78, 58
2, 73374, Note_on_c, 0, 70, 0
2, 73379, Note_on_c, 0, 78, 0
2, 73484, Note_on_c, 0, 46, 38
2, 73491, Note_on_c, 0, 78, 49
2, 73531, Note_on_c, 0, 51, 0
2, 73693, Note_on_c, 0, 78, 0
2, 73707, Note_on_c, 0, 82, 48
2, 73804, Note_on_c, 0, 80, 54
2, 73871, Note_on_c, 0, 82, 0
2, 73906, Note_on_c, 0, 78, 49
2, 73906, Note_on_c, 0, 80, 0
2, 74137, Note_on_c, 0, 47, 43
2, 74161, Note_on_c, 0, 46, 0
2, 74370, Note_on_c, 0, 68, 54
2, 74377, Note_on_c, 0, 78, 0
2, 74619, Note_on_c, 0, 78, 58
2, 74675, Note_on_c, 0, 68, 0
2, 74828, Note_on_c, 0, 47, 0
2, 74841, Note_on_c, 0, 49, 28
2, 74965, Control_c, 0, 64, 9
2, 74984, Control_c, 0, 64, 33
2, 75001, Control_c, 0, 64, 46
2, 75023, Control_c, 0, 64, 55
2, 75027, Note_on_c, 0, 78, 0
2, 75042, Control_c, 0, 64, 60
2, 75048, Note_on_c, 0, 80, 51
2, 75061, Control_c, 0, 64, 61
2, 75077, Control_c, 0, 64, 63
2, 75097, Control_c, 0, 64, 64
2, 75119, Control_c, 0, 64, 66
2, 75137, Control_c, 0, 64, 67
2, 75157, Control_c, 0, 64, 68
2, 75175, Control_c, 0, 64, 69
2, 75214, Control_c, 0, 64, 68
2, 75230, Note_on_c, 0, 80, 0
2, 75271, Note_on_c, 0, 77, 47
2, 75310, Control_c, 0, 64, 67
2, 75330, Note_on_c, 0, 77, 0
2, 75370, Control_c, 0, 64, 66
2, 75423, Control_c, 0, 64, 65
2, 75462, Control_c, 0, 64, 64
2, 75501, Control_c, 0, 64, 63
2, 75521, Note_on_c, 0, 42, 41
2, 75528, Note_on_c, 0, 78, 28
2, 75540, Control_c, 0, 64, 62
2, 75578, Control_c, 0, 64, 61
2, 75597, Control_c, 0, 64, 60
2, 75606, Note_on_c, 0, 49, 0
2, 75618, Control_c, 0, 64, 58
2, 75636, Control_c, 0, 64, 57
2, 75655, Control_c, 0, 64, 56
2, 75677, Control_c, 0, 64, 54
2, 75694, Control_c, 0, 64, 52
2, 75712, Control_c, 0, 64, 48
2, 75731, Control_c, 0, 64, 43
2, 75750, Control_c, 0, 64, 38
2, 75770, Control_c, 0, 64, 33
2, 75775, Note_on_c, 0, 73, 47
2, 75789, Control_c, 0, 64, 25
2, 75809, Control_c, 0, 64, 0
2, 75903, Note_on_c, 0, 78, 0
2, 76086, Note_on_c, 0, 70, 45
2, 76095, Note_on_c, 0, 73, 0
2, 76154, Control_c, 0, 64, 25
2, 76172, Control_c, 0, 64, 41
2, 76192, Control_c, 0, 64, 51
2, 76212, Control_c, 0, 64, 57
2, 76230, Control_c, 0, 64, 59
2, 76269, Control_c, 0, 64, 61
2, 76289, Control_c, 0, 64, 62
2, 76306, Control_c, 0, 64, 63
2, 76329, Control_c, 0, 64, 64
2, 76366, Control_c, 0, 64, 65
2, 76502, Control_c, 0, 64, 64
2, 76558, Control_c, 0, 64, 63
2, 76562, Note_on_c, 0, 70, 0
2, 76567, Note_on_c, 0, 66, 42
2, 76580, Control_c, 0, 64, 62
2, 76595, Control_c, 0, 64, 60
2, 76616, Control_c, 0, 64, 59
2, 76634, Control_c, 0, 64, 56
2, 76655, Control_c, 0, 64, 52
2, 76674, Control_c, 0, 64, 46
2, 76691, Control_c, 0, 64, 33
2, 76712, Control_c, 0, 64, 15
2, 76731, Control_c, 0, 64, 0
2, 76904, Control_c, 0, 64, 10
2, 76922, Control_c, 0, 64, 24
2, 76940, Control_c, 0, 64, 37
2, 76960, Control_c, 0, 64, 50
2, 76979, Control_c, 0, 64, 58
2, 77000, Control_c, 0, 64, 60
2, 77038, Control_c, 0, 64, 61
2, 77056, Control_c, 0, 64, 62
2, 77076, Control_c, 0, 64, 63
2, 77114, Control_c, 0, 64, 64
2, 77154, Control_c, 0, 64, 63
2, 77268, Control_c, 0, 64, 62
2, 77292, Note_on_c, 0, 66, 0
2, 77404, Control_c, 0, 64, 61
2, 77660, Note_on_c, 0, 42, 0
2, 77806, Control_c, 0, 64, 60
2, 77845, Control_c, 0, 64, 58
2, 77863, Control_c, 0, 64, 57
2, 77901, Control_c, 0, 64, 56
2, 77921, Control_c, 0, 64, 54
2, 77939, Control_c, 0, 64, 53
2, 77960, Control_c, 0, 64, 52
2, 78016, Control_c, 0, 64, 50
2, 78037, Control_c, 0, 64, 49
2, 78055, Control_c, 0, 64, 48
2, 78130, Control_c, 0, 64, 47
2, 78172, Control_c, 0, 64, 46
2, 78229, Control_c, 0, 64, 45
2, 78266, Control_c, 0, 64, 44
2, 78286, Control_c, 0, 64, 43
2, 78306, Control_c, 0, 64, 42
2, 78326, Control_c, 0, 64, 41
2, 78343, Control_c, 0, 64, 40
2, 78363, Control_c, 0, 64, 38
2, 78384, Control_c, 0, 64, 36
2, 78400, Control_c, 0, 64, 33
2, 78419, Control_c, 0, 64, 31
2, 78439, Control_c, 0, 64, 28
2, 78460, Control_c, 0, 64, 25
2, 78479, Control_c, 0, 64, 20
2, 78496, Control_c, 0, 64, 13
2, 78517, Control_c, 0, 64, 0
2, 80527, Note_on_c, 0, 73, 43
2, 81043, Note_on_c, 0, 78, 51
2, 81070, Note_on_c, 0, 73, 0
2, 81583, Note_on_c, 0, 77, 56
2, 81603, Note_on_c, 0, 78, 0
2, 82124, Note_on_c, 0, 78, 55
2, 82147, Note_on_c, 0, 77, 0
2, 82637, Note_on_c, 0, 77, 56
2, 82728, Note_on_c, 0, 78, 0
2, 82884, Note_on_c, 0, 77, 0
2, 82893, Note_on_c, 0, 75, 55
2, 83136, Note_on_c, 0, 73, 58
2, 83136, Note_on_c, 0, 75, 0
2, 83369, Note_on_c, 0, 73, 0
2, 83392, Note_on_c, 0, 75, 58
2, 83505, Note_on_c, 0, 75, 0
2, 83523, Note_on_c, 0, 73, 61
2, 83606, Note_on_c, 0, 73, 0
2, 83641, Note_on_c, 0, 75, 54
2, 83755, Note_on_c, 0, 75, 0
2, 83761, Note_on_c, 0, 73, 63
2, 83845, Note_on_c, 0, 73, 0
2, 83877, Note_on_c, 0, 71, 55
2, 83962, Note_on_c, 0, 71, 0
2, 83992, Note_on_c, 0, 73, 57
2, 84143, Note_on_c, 0, 73, 0
2, 84172, Note_on_c, 0, 75, 55
2, 85228, Note_on_c, 0, 75, 0
2, 85743, Note_on_c, 0, 73, 61
2, 86279, Note_on_c, 0, 71, 63
2, 86318, Note_on_c, 0, 73, 0
2, 86830, Note_on_c, 0, 70, 63
2, 86856, Note_on_c, 0, 71, 0
2, 87372, Note_on_c, 0, 68, 59
2, 87424, Note_on_c, 0, 70, 0
2, 87931, Note_on_c, 0, 73, 50
2, 87957, Note_on_c, 0, 68, 0
2, 88487, Note_on_c, 0, 70, 41
2, 88581, Note_on_c, 0, 73, 0
2, 88978, Note_on_c, 0, 70, 0
2, 89009, Note_on_c, 0, 66, 53
2, 89245, Note_on_c, 0, 78, 48
2, 89490, Note_on_c, 0, 73, 58
2, 89505, Note_on_c, 0, 77, 54
2, 89517, Note_on_c, 0, 66, 0
2, 89521, Note_on_c, 0, 78, 0
2, 89728, Note_on_c, 0, 78, 58
2, 89732, Note_on_c, 0, 77, 0
2, 89985, Note_on_c, 0, 78, 0
2, 89987, Note_on_c, 0, 80, 46
2, 89988, Note_on_c, 0, 72, 60
2, 90025, Note_on_c, 0, 73, 0
2, 90225, Note_on_c, 0, 75, 50
2, 90313, Note_on_c, 0, 80, 0
2, 90467, Note_on_c, 0, 75, 0
2, 90480, Note_on_c, 0, 73, 54
2, 90484, Note_on_c, 0, 77, 56
2, 90502, Note_on_c, 0, 72, 0
2, 90703, Note_on_c, 0, 77, 0
2, 90717, Note_on_c, 0, 78, 58
2, 90965, Note_on_c, 0, 72, 54
2, 90987, Note_on_c, 0, 73, 0
2, 90987, Note_on_c, 0, 80, 47
2, 90996, Note_on_c, 0, 78, 0
2, 91204, Note_on_c, 0, 70, 58
2, 91204, Note_on_c, 0, 72, 0
2, 91441, Note_on_c, 0, 68, 60
2, 91471, Note_on_c, 0, 70, 0
2, 91679, Note_on_c, 0, 68, 0
2, 91698, Note_on_c, 0, 70, 49
2, 91703, Note_on_c, 0, 78, 55
2, 91810, Note_on_c, 0, 70, 0
2, 91830, Note_on_c, 0, 68, 65
2, 91893, Note_on_c, 0, 68, 0
2, 91915, Note_on_c, 0, 78, 0
2, 91937, Note_on_c, 0, 77, 58
2, 91954, Note_on_c, 0, 70, 58
2, 92007, Note_on_c, 0, 70, 0
2, 92040, Note_on_c, 0, 68, 62
2, 92060, Note_on_c, 0, 80, 0
2, 92108, Note_on_c, 0, 68, 0
2, 92147, Note_on_c, 0, 77, 0
2, 92165, Note_on_c, 0, 66, 54
2, 92174, Note_on_c, 0, 75, 56
2, 92285, Note_on_c, 0, 68, 48
2, 92302, Note_on_c, 0, 66, 0
2, 92375, Note_on_c, 0, 68, 0
2, 92398, Note_on_c, 0, 75, 0
2, 92413, Note_on_c, 0, 70, 50
2, 92413, Note_on_c, 0, 73, 59
2, 92672, Note_on_c, 0, 75, 56
2, 92678, Note_on_c, 0, 73, 0
2, 92893, Note_on_c, 0, 75, 0
2, 92907, Note_on_c, 0, 77, 61
2, 93124, Note_on_c, 0, 77, 0
2, 93131, Note_on_c, 0, 72, 61
2, 93242, Note_on_c, 0, 70, 0
2, 93383, Note_on_c, 0, 72, 0
2, 93386, Note_on_c, 0, 73, 61
2, 93608, Note_on_c, 0, 73, 0
2, 93620, Note_on_c, 0, 75, 61
2, 93834, Note_on_c, 0, 68, 67
2, 93838, Note_on_c, 0, 75, 0
2, 93862, Note_on_c, 0, 77, 53
2, 94084, Note_on_c, 0, 73, 62
2, 94164, Note_on_c, 0, 77, 0
2, 94339, Note_on_c, 0, 73, 0
2, 94364, Note_on_c, 0, 70, 59
2, 94367, Note_on_c, 0, 66, 58
2, 94397, Note_on_c, 0, 68, 0
2, 94586, Note_on_c, 0, 70, 0
2, 94597, Note_on_c, 0, 72, 63
2, 94867, Note_on_c, 0, 72, 0
2, 94876, Note_on_c, 0, 66, 0
2, 94880, Note_on_c, 0, 73, 54
2, 94884, Note_on_c, 0, 65, 50
2, 95380, Note_on_c, 0, 65, 0
2, 95403, Note_on_c, 0, 63, 49
2, 95939, Note_on_c, 0, 72, 51
2, 95947, Note_on_c, 0, 68, 50
2, 95953, Note_on_c, 0, 73, 0
2, 96016, Note_on_c, 0, 63, 0
2, 96467, Note_on_c, 0, 72, 0
2, 96488, Note_on_c, 0, 65, 38
2, 96515, Note_on_c, 0, 68, 0
2, 96520, Note_on_c, 0, 73, 36
2, 96560, Control_c, 0, 64, 31
2, 96580, Control_c, 0, 64, 49
2, 96599, Control_c, 0, 64, 59
2, 96617, Control_c, 0, 64, 62
2, 96659, Control_c, 0, 64, 63
2, 96659, Note_on_c, 0, 65, 0
2, 96674, Control_c, 0, 64, 64
2, 96694, Control_c, 0, 64, 65
2, 96715, Control_c, 0, 64, 67
2, 96733, Control_c, 0, 64, 69
2, 96750, Control_c, 0, 64, 70
2, 96771, Control_c, 0, 64, 71
2, 96827, Control_c, 0, 64, 70
2, 96868, Control_c, 0, 64, 69
2, 96906, Control_c, 0, 64, 68
2, 96926, Control_c, 0, 64, 67
2, 96945, Control_c, 0, 64, 66
2, 96964, Control_c, 0, 64, 65
2, 96968, Note_on_c, 0, 49, 57
2, 96984, Control_c, 0, 64, 63
2, 96989, Note_on_c, 0, 61, 47
2, 97005, Control_c, 0, 64, 62
2, 97040, Control_c, 0, 64, 61
2, 97058, Control_c, 0, 64, 58
2, 97078, Control_c, 0, 64, 56
2, 97098, Control_c, 0, 64, 53
2, 97116, Control_c, 0, 64, 50
2, 97135, Control_c, 0, 64, 44
2, 97156, Control_c, 0, 64, 28
2, 97174, Control_c, 0, 64, 0
2, 97217, Note_on_c, 0, 71, 56
2, 97266, Note_on_c, 0, 61, 0
2, 97465, Note_on_c, 0, 54, 62
2, 97472, Note_on_c, 0, 71, 0
2, 97488, Note_on_c, 0, 70, 56
2, 97531, Note_on_c, 0, 49, 0
2, 97705, Note_on_c, 0, 71, 60
2, 97727, Note_on_c, 0, 70, 0
2, 97727, Note_on_c, 0, 73, 0
2, 97971, Note_on_c, 0, 53, 67
2, 97983, Note_on_c, 0, 73, 61
2, 98001, Note_on_c, 0, 54, 0
2, 98023, Note_on_c, 0, 71, 0
2, 98466, Note_on_c, 0, 54, 61
2, 98473, Note_on_c, 0, 70, 55
2, 98493, Note_on_c, 0, 53, 0
2, 98677, Note_on_c, 0, 70, 0
2, 98713, Note_on_c, 0, 71, 65
2, 98719, Note_on_c, 0, 73, 0
2, 98963, Note_on_c, 0, 53, 58
2, 98968, Note_on_c, 0, 73, 64
2, 98992, Note_on_c, 0, 71, 0
2, 99043, Note_on_c, 0, 54, 0
2, 99196, Note_on_c, 0, 75, 65
2, 99207, Note_on_c, 0, 51, 64
2, 99211, Note_on_c, 0, 53, 0
2, 99442, Note_on_c, 0, 77, 71
2, 99447, Note_on_c, 0, 49, 58
2, 99457, Note_on_c, 0, 51, 0
2, 99457, Note_on_c, 0, 73, 0
2, 99466, Note_on_c, 0, 75, 0
2, 99690, Note_on_c, 0, 49, 0
2, 99697, Note_on_c, 0, 71, 66
2, 99711, Note_on_c, 0, 51, 59
2, 99823, Note_on_c, 0, 51, 0
2, 99838, Note_on_c, 0, 49, 63
2, 99896, Note_on_c, 0, 49, 0
2, 99908, Note_on_c, 0, 71, 0
2, 99916, Note_on_c, 0, 70, 67
2, 99961, Note_on_c, 0, 51, 56
2, 99981, Note_on_c, 0, 77, 0
2, 100010, Note_on_c, 0, 51, 0
2, 100044, Note_on_c, 0, 49, 59
2, 100100, Note_on_c, 0, 49, 0
2, 100149, Note_on_c, 0, 70, 0
2, 100158, Note_on_c, 0, 68, 60
2, 100165, Note_on_c, 0, 47, 58
2, 100293, Note_on_c, 0, 49, 54
2, 100297, Note_on_c, 0, 47, 0
2, 100399, Note_on_c, 0, 68, 0
2, 100404, Note_on_c, 0, 49, 0
2, 100406, Note_on_c, 0, 51, 63
2, 100411, Note_on_c, 0, 78, 66
2, 100417, Note_on_c, 0, 66, 57
2, 100632, Note_on_c, 0, 66, 0
2, 100647, Note_on_c, 0, 68, 64
2, 100899, Note_on_c, 0, 70, 64
2, 100924, Note_on_c, 0, 78, 0
2, 101087, Note_on_c, 0, 70, 0
2, 101102, Note_on_c, 0, 68, 0
2, 101134, Note_on_c, 0, 65, 59
2, 101389, Note_on_c, 0, 66, 60
2, 101400, Note_on_c, 0, 65, 0
2, 101440, Note_on_c, 0, 51, 0
2, 101614, Note_on_c, 0, 68, 64
2, 101630, Note_on_c, 0, 66, 0
2, 101870, Note_on_c, 0, 49, 62
2, 101872, Note_on_c, 0, 68, 0
2, 101879, Note_on_c, 0, 70, 68
2, 102106, Note_on_c, 0, 66, 63
2, 102232, Note_on_c, 0, 70, 0
2, 102363, Note_on_c, 0, 68, 70
2, 102370, Note_on_c, 0, 66, 0
2, 102378, Note_on_c, 0, 47, 55
2, 102387, Note_on_c, 0, 63, 51
2, 102425, Note_on_c, 0, 49, 0
2, 102559, Note_on_c, 0, 63, 0
2, 102606, Note_on_c, 0, 65, 56
2, 102773, Note_on_c, 0, 68, 0
2, 102830, Note_on_c, 0, 65, 0
2, 102880, Note_on_c, 0, 70, 58
2, 102887, Note_on_c, 0, 46, 50
2, 102896, Note_on_c, 0, 66, 46
2, 102950, Note_on_c, 0, 47, 0
2, 103372, Note_on_c, 0, 46, 0
2, 103411, Note_on_c, 0, 44, 43
2, 103417, Note_on_c, 0, 71, 51
2, 103452, Note_on_c, 0, 66, 0
2, 103470, Note_on_c, 0, 70, 0
2, 103928, Note_on_c, 0, 70, 49
2, 103939, Note_on_c, 0, 49, 39
2, 103943, Note_on_c, 0, 44, 0
2, 103952, Note_on_c, 0, 65, 33
2, 103960, Note_on_c, 0, 71, 0
2, 104089, Note_on_c, 0, 65, 0
2, 104165, Note_on_c, 0, 70, 0
2, 104170, Note_on_c, 0, 68, 49
2, 104399, Note_on_c, 0, 49, 0
2, 104401, Note_on_c, 0, 68, 0
2, 104428, Note_on_c, 0, 42, 32
2, 104428, Note_on_c, 0, 66, 43
2, 104430, Note_on_c, 0, 70, 51
2, 104647, Note_on_c, 0, 73, 54
2, 104672, Note_on_c, 0, 70, 0
2, 104689, Note_on_c, 0, 73, 0
2, 104775, Note_on_c, 0, 42, 0
2, 104923, Note_on_c, 0, 54, 42
2, 104928, Note_on_c, 0, 73, 63
2, 105153, Note_on_c, 0, 70, 53
2, 105193, Note_on_c, 0, 66, 0
2, 105197, Note_on_c, 0, 73, 0
2, 105202, Note_on_c, 0, 54, 0
2, 105209, Note_on_c, 0, 70, 0
2, 105401, Note_on_c, 0, 53, 47
2, 105424, Note_on_c, 0, 68, 59
2, 105638, Note_on_c, 0, 73, 59
2, 105654, Note_on_c, 0, 68, 0
2, 105689, Note_on_c, 0, 73, 0
2, 105717, Note_on_c, 0, 53, 0
2, 105894, Note_on_c, 0, 73, 61
2, 105906, Note_on_c, 0, 49, 36
2, 105930, Note_on_c, 0, 65, 34
2, 106118, Note_on_c, 0, 65, 0
2, 106118, Note_on_c, 0, 68, 55
2, 106132, Note_on_c, 0, 73, 0
2, 106161, Note_on_c, 0, 68, 0
2, 106210, Note_on_c, 0, 49, 0
2, 106373, Note_on_c, 0, 70, 60
2, 106386, Note_on_c, 0, 66, 49
2, 106393, Note_on_c, 0, 54, 43
2, 106624, Note_on_c, 0, 58, 46
2, 106633, Note_on_c, 0, 54, 0
2, 106679, Note_on_c, 0, 58, 0
2, 106855, Note_on_c, 0, 58, 44
2, 106855, Note_on_c, 0, 73, 76
2, 106956, Note_on_c, 0, 70, 0
2, 107085, Note_on_c, 0, 54, 53
2, 107087, Note_on_c, 0, 58, 0
2, 107170, Note_on_c, 0, 54, 0
2, 107335, Note_on_c, 0, 78, 80
2, 107344, Note_on_c, 0, 51, 55
2, 107563, Note_on_c, 0, 54, 52
2, 107636, Note_on_c, 0, 54, 0
2, 107652, Note_on_c, 0, 51, 0
2, 107705, Note_on_c, 0, 66, 0
2, 107806, Note_on_c, 0, 54, 47
2, 107833, Note_on_c, 0, 70, 57
2, 107842, Note_on_c, 0, 73, 0
2, 108037, Note_on_c, 0, 70, 0
2, 108046, Note_on_c, 0, 51, 54
2, 108093, Note_on_c, 0, 54, 0
2, 108203, Note_on_c, 0, 51, 0
2, 108279, Note_on_c, 0, 75, 60
2, 108285, Note_on_c, 0, 48, 42
2, 108471, Note_on_c, 0, 78, 0
2, 108495, Note_on_c, 0, 68, 58
2, 108537, Note_on_c, 0, 68, 0
2, 108568, Note_on_c, 0, 75, 0
2, 108746, Note_on_c, 0, 77, 72
2, 108769, Note_on_c, 0, 49, 43
2, 108775, Note_on_c, 0, 68, 46
2, 108786, Note_on_c, 0, 48, 0
2, 108960, Note_on_c, 0, 73, 61
2, 108971, Note_on_c, 0, 68, 0
2, 109008, Note_on_c, 0, 73, 0
2, 109242, Note_on_c, 0, 54, 46
2, 109242, Note_on_c, 0, 70, 59
2, 109434, Note_on_c, 0, 49, 0
2, 109471, Note_on_c, 0, 66, 54
2, 109480, Note_on_c, 0, 77, 0
2, 109510, Note_on_c, 0, 66, 0
2, 109510, Note_on_c, 0, 70, 0
2, 109722, Note_on_c, 0, 75, 64
2, 109738, Note_on_c, 0, 66, 57
2, 109948, Note_on_c, 0, 73, 71
2, 109957, Note_on_c, 0, 66, 0
2, 109990, Note_on_c, 0, 70, 45
2, 110054, Note_on_c, 0, 70, 0
2, 110054, Note_on_c, 0, 75, 0
2, 110208, Note_on_c, 0, 72, 68
2, 110212, Note_on_c, 0, 73, 0
2, 110238, Note_on_c, 0, 68, 53
2, 110362, Note_on_c, 0, 54, 0
2, 110433, Note_on_c, 0, 56, 56
2, 110492, Note_on_c, 0, 56, 0
2, 110667, Note_on_c, 0, 75, 74
2, 110693, Note_on_c, 0, 60, 55
2, 110697, Note_on_c, 0, 72, 0
2, 110915, Note_on_c, 0, 56, 57
2, 110935, Note_on_c, 0, 60, 0
2, 110960, Note_on_c, 0, 56, 0
2, 111145, Note_on_c, 0, 80, 81
2, 111174, Note_on_c, 0, 53, 52
2, 111174, Note_on_c, 0, 75, 0
2, 111405, Note_on_c, 0, 56, 50
2, 111450, Note_on_c, 0, 53, 0
2, 111460, Note_on_c, 0, 56, 0
2, 111632, Note_on_c, 0, 72, 75
2, 111654, Note_on_c, 0, 56, 49
2, 111735, Note_on_c, 0, 68, 0
2, 111864, Note_on_c, 0, 56, 0
2, 111871, Note_on_c, 0, 53, 57
2, 111926, Note_on_c, 0, 53, 0
2, 111935, Note_on_c, 0, 72, 0
2, 112120, Note_on_c, 0, 50, 48
2, 112122, Note_on_c, 0, 70, 63
2, 112357, Note_on_c, 0, 58, 52
2, 112426, Note_on_c, 0, 58, 0
2, 112432, Note_on_c, 0, 50, 0
2, 112610, Note_on_c, 0, 58, 45
2, 112615, Note_on_c, 0, 78, 69
2, 112811, Note_on_c, 0, 78, 0
2, 112811, Note_on_c, 0, 80, 0
2, 112822, Note_on_c, 0, 77, 73
2, 112855, Note_on_c, 0, 54, 49
2, 112855, Note_on_c, 0, 58, 0
2, 113021, Note_on_c, 0, 54, 0
2, 113026, Note_on_c, 0, 70, 0
2, 113088, Note_on_c, 0, 51, 53
2, 113093, Note_on_c, 0, 78, 72
2, 113111, Note_on_c, 0, 77, 0
2, 113329, Note_on_c, 0, 54, 53
2, 113380, Note_on_c, 0, 54, 0
2, 113389, Note_on_c, 0, 51, 0
2, 113571, Note_on_c, 0, 54, 44
2, 113580, Note_on_c, 0, 70, 61
2, 113794, Note_on_c, 0, 51, 62
2, 113822, Note_on_c, 0, 54, 0
2, 113849, Note_on_c, 0, 51, 0
2, 113904, Note_on_c, 0, 70, 0
2, 114036, Note_on_c, 0, 48, 47
2, 114048, Note_on_c, 0, 68, 61
2, 114263, Note_on_c, 0, 56, 52
2, 114337, Note_on_c, 0, 56, 0
2, 114340, Note_on_c, 0, 48, 0
2, 114510, Note_on_c, 0, 56, 53
2, 114516, Note_on_c, 0, 77, 70
2, 114535, Note_on_c, 0, 78, 0
2, 114702, Note_on_c, 0, 56, 0
2, 114717, Note_on_c, 0, 77, 0
2, 114731, Note_on_c, 0, 75, 61
2, 114741, Note_on_c, 0, 53, 52
2, 114873, Note_on_c, 0, 53, 0
2, 114897, Note_on_c, 0, 68, 0
2, 114981, Note_on_c, 0, 49, 46
2, 114990, Note_on_c, 0, 77, 68
2, 115017, Note_on_c, 0, 75, 0
2, 115204, Note_on_c, 0, 53, 58
2, 115264, Note_on_c, 0, 53, 0
2, 115269, Note_on_c, 0, 49, 0
2, 115449, Note_on_c, 0, 53, 45
2, 115462, Note_on_c, 0, 68, 64
2, 115670, Note_on_c, 0, 49, 55
2, 115689, Note_on_c, 0, 53, 0
2, 115740, Note_on_c, 0, 49, 0
2, 115807, Note_on_c, 0, 77, 0
2, 115857, Note_on_c, 0, 68, 0
2, 115921, Note_on_c, 0, 66, 64
2, 115926, Note_on_c, 0, 46, 42
2, 116136, Note_on_c, 0, 49, 51
2, 116184, Note_on_c, 0, 46, 0
2, 116207, Note_on_c, 0, 49, 0
2, 116374, Note_on_c, 0, 77, 76
2, 116381, Note_on_c, 0, 49, 51
2, 116547, Note_on_c, 0, 49, 0
2, 116610, Note_on_c, 0, 46, 51
2, 116681, Note_on_c, 0, 46, 0
2, 116875, Note_on_c, 0, 42, 50
2, 116881, Note_on_c, 0, 66, 0
2, 116888, Note_on_c, 0, 75, 67
2, 116947, Control_c, 0, 64, 25
2, 116968, Control_c, 0, 64, 38
2, 116985, Control_c, 0, 64, 49
2, 117007, Control_c, 0, 64, 59
2, 117024, Control_c, 0, 64, 63
2, 117042, Control_c, 0, 64, 64
2, 117064, Control_c, 0, 64, 66
2, 117082, Control_c, 0, 64, 68
2, 117082, Note_on_c, 0, 77, 0
2, 117101, Control_c, 0, 64, 72
2, 117101, Note_on_c, 0, 42, 0
2, 117106, Note_on_c, 0, 75, 0
2, 117115, Note_on_c, 0, 68, 62
2, 117120, Control_c, 0, 64, 76
2, 117138, Control_c, 0, 64, 82
2, 117158, Control_c, 0, 64, 88
2, 117178, Control_c, 0, 64, 89
2, 117253, Control_c, 0, 64, 87
2, 117274, Control_c, 0, 64, 84
2, 117294, Control_c, 0, 64, 78
2, 117312, Control_c, 0, 64, 72
2, 117332, Control_c, 0, 64, 65
2, 117332, Note_on_c, 0, 68, 0
2, 117345, Note_on_c, 0, 54, 57
2, 117350, Control_c, 0, 64, 59
2, 117358, Note_on_c, 0, 73, 67
2, 117371, Control_c, 0, 64, 52
2, 117380, Note_on_c, 0, 70, 46
2, 117388, Control_c, 0, 64, 43
2, 117410, Control_c, 0, 64, 34
2, 117427, Control_c, 0, 64, 19
2, 117446, Control_c, 0, 64, 0
2, 117578, Note_on_c, 0, 66, 54
2, 117578, Note_on_c, 0, 70, 0
2, 117831, Note_on_c, 0, 72, 67
2, 117848, Note_on_c, 0, 63, 51
2, 117848, Note_on_c, 0, 66, 0
2, 117944, Note_on_c, 0, 54, 0
2, 117962, Note_on_c, 0, 73, 0
2, 118073, Note_on_c, 0, 54, 52
2, 118297, Note_on_c, 0, 54, 0
2, 118333, Note_on_c, 0, 68, 64
2, 118336, Note_on_c, 0, 53, 54
2, 118387, Note_on_c, 0, 72, 0
2, 118539, Note_on_c, 0, 53, 0
2, 118556, Note_on_c, 0, 51, 50
2, 118788, Note_on_c, 0, 51, 0
2, 118801, Note_on_c, 0, 73, 61
2, 118808, Note_on_c, 0, 49, 39
2, 118864, Note_on_c, 0, 68, 0
2, 119044, Note_on_c, 0, 51, 44
2, 119073, Note_on_c, 0, 49, 0
2, 119228, Note_on_c, 0, 51, 0
2, 119275, Note_on_c, 0, 68, 58
2, 119289, Note_on_c, 0, 53, 48
2, 119498, Note_on_c, 0, 49, 51
2, 119513, Note_on_c, 0, 53, 0
2, 119709, Note_on_c, 0, 49, 0
2, 119742, Note_on_c, 0, 46, 39
2, 119755, Note_on_c, 0, 66, 51
2, 119785, Note_on_c, 0, 68, 0
2, 119788, Note_on_c, 0, 63, 0
2, 119972, Note_on_c, 0, 48, 46
2, 119984, Note_on_c, 0, 46, 0
2, 120135, Note_on_c, 0, 48, 0
2, 120184, Note_on_c, 0, 66, 0
2, 120208, Note_on_c, 0, 49, 41
2, 120208, Note_on_c, 0, 65, 53
2, 120422, Note_on_c, 0, 46, 45
2, 120444, Note_on_c, 0, 49, 0
2, 120657, Note_on_c, 0, 46, 0
2, 120676, Note_on_c, 0, 65, 0
2, 120685, Note_on_c, 0, 42, 38
2, 120697, Note_on_c, 0, 63, 51
2, 120708, Note_on_c, 0, 73, 0
2, 120934, Note_on_c, 0, 63, 0
2, 120934, Note_on_c, 0, 73, 55
2, 121178, Note_on_c, 0, 42, 0
2, 121186, Note_on_c, 0, 44, 42
2, 121188, Note_on_c, 0, 63, 46
2, 121305, Control_c, 0, 64, 25
2, 121325, Control_c, 0, 64, 38
2, 121334, Note_on_c, 0, 73, 0
2, 121343, Control_c, 0, 64, 46
2, 121363, Control_c, 0, 64, 54
2, 121382, Control_c, 0, 64, 60
2, 121402, Control_c, 0, 64, 61
2, 121407, Note_on_c, 0, 72, 52
2, 121420, Control_c, 0, 64, 62
2, 121429, Note_on_c, 0, 63, 0
2, 121442, Control_c, 0, 64, 63
2, 121457, Control_c, 0, 64, 64
2, 121593, Control_c, 0, 64, 63
2, 121612, Control_c, 0, 64, 62
2, 121631, Control_c, 0, 64, 60
2, 121650, Control_c, 0, 64, 57
2, 121670, Control_c, 0, 64, 51
2, 121674, Note_on_c, 0, 72, 0
2, 121686, Note_on_c, 0, 73, 54
2, 121690, Control_c, 0, 64, 41
2, 121705, Note_on_c, 0, 37, 29
2, 121709, Control_c, 0, 64, 25
2, 121716, Note_on_c, 0, 44, 0
2, 121728, Control_c, 0, 64, 0
2, 121730, Note_on_c, 0, 65, 34
2, 121803, Control_c, 0, 64, 16
2, 121823, Control_c, 0, 64, 38
2, 121845, Control_c, 0, 64, 50
2, 121862, Control_c, 0, 64, 58
2, 121880, Control_c, 0, 64, 62
2, 121901, Control_c, 0, 64, 63
2, 121937, Control_c, 0, 64, 64
2, 121948, Note_on_c, 0, 68, 47
2, 121953, Note_on_c, 0, 73, 0
2, 121957, Control_c, 0, 64, 66
2, 121977, Control_c, 0, 64, 68
2, 121997, Control_c, 0, 64, 69
2, 122002, Note_on_c, 0, 65, 0
2, 122036, Control_c, 0, 64, 68
2, 122074, Control_c, 0, 64, 67
2, 122091, Control_c, 0, 64, 65
2, 122111, Control_c, 0, 64, 62
2, 122129, Control_c, 0, 64, 57
2, 122144, Note_on_c, 0, 37, 0
2, 122151, Control_c, 0, 64, 48
2, 122169, Control_c, 0, 64, 35
2, 122176, Note_on_c, 0, 73, 65
2, 122189, Control_c, 0, 64, 0
2, 122211, Note_on_c, 0, 68, 0
2, 122245, Control_c, 0, 64, 27
2, 122265, Control_c, 0, 64, 46
2, 122283, Control_c, 0, 64, 57
2, 122303, Control_c, 0, 64, 61
2, 122325, Control_c, 0, 64, 62
2, 122361, Control_c, 0, 64, 63
2, 122381, Control_c, 0, 64, 64
2, 122399, Control_c, 0, 64, 66
2, 122418, Note_on_c, 0, 71, 55
2, 122421, Control_c, 0, 64, 68
2, 122437, Control_c, 0, 64, 71
2, 122456, Control_c, 0, 64, 73
2, 122553, Control_c, 0, 64, 72
2, 122573, Control_c, 0, 64, 71
2, 122590, Control_c, 0, 64, 69
2, 122610, Control_c, 0, 64, 65
2, 122631, Control_c, 0, 64, 59
2, 122648, Control_c, 0, 64, 49
2, 122657, Note_on_c, 0, 71, 0
2, 122657, Note_on_c, 0, 78, 65
2, 122665, Note_on_c, 0, 73, 0
2, 122669, Control_c, 0, 64, 43
2, 122688, Note_on_c, 0, 70, 50
2, 122690, Control_c, 0, 64, 41
2, 122708, Control_c, 0, 64, 43
2, 122727, Control_c, 0, 64, 50
2, 122744, Control_c, 0, 64, 58
2, 122765, Control_c, 0, 64, 62
2, 122785, Control_c, 0, 64, 63
2, 122801, Control_c, 0, 64, 64
2, 122822, Control_c, 0, 64, 65
2, 122824, Note_on_c, 0, 70, 0
2, 122844, Control_c, 0, 64, 66
2, 122878, Control_c, 0, 64, 67
2, 122903, Note_on_c, 0, 71, 48
2, 122920, Control_c, 0, 64, 69
2, 123025, Note_on_c, 0, 78, 0
2, 123049, Note_on_c, 0, 71, 0
2, 123054, Control_c, 0, 64, 68
2, 123072, Control_c, 0, 64, 66
2, 123090, Control_c, 0, 64, 64
2, 123110, Control_c, 0, 64, 61
2, 123131, Control_c, 0, 64, 55
2, 123149, Note_on_c, 0, 77, 61
2, 123154, Control_c, 0, 64, 49
2, 123158, Note_on_c, 0, 73, 48
2, 123168, Control_c, 0, 64, 43
2, 123185, Control_c, 0, 64, 42
2, 123208, Control_c, 0, 64, 44
2, 123226, Control_c, 0, 64, 51
2, 123243, Control_c, 0, 64, 59
2, 123266, Control_c, 0, 64, 62
2, 123283, Control_c, 0, 64, 63
2, 123303, Control_c, 0, 64, 64
2, 123321, Control_c, 0, 64, 65
2, 123341, Note_on_c, 0, 73, 0
2, 123379, Control_c, 0, 64, 66
2, 123390, Note_on_c, 0, 68, 54
2, 123437, Control_c, 0, 64, 67
2, 123513, Control_c, 0, 64, 66
2, 123540, Note_on_c, 0, 77, 0
2, 123552, Control_c, 0, 64, 65
2, 123570, Control_c, 0, 64, 63
2, 123591, Control_c, 0, 64, 60
2, 123607, Control_c, 0, 64, 55
2, 123629, Control_c, 0, 64, 49
2, 123629, Note_on_c, 0, 78, 59
2, 123642, Note_on_c, 0, 68, 0
2, 123661, Note_on_c, 0, 70, 48
2, 123667, Control_c, 0, 64, 52
2, 123686, Control_c, 0, 64, 57
2, 123706, Control_c, 0, 64, 62
2, 123727, Control_c, 0, 64, 63
2, 123744, Control_c, 0, 64, 64
2, 123763, Control_c, 0, 64, 65
2, 123780, Control_c, 0, 64, 66
2, 123797, Note_on_c, 0, 70, 0
2, 123881, Note_on_c, 0, 71, 45
2, 123915, Note_on_c, 0, 78, 0
2, 123937, Control_c, 0, 64, 65
2, 123973, Control_c, 0, 64, 64
2, 123986, Note_on_c, 0, 71, 0
2, 124014, Control_c, 0, 64, 63
2, 124031, Control_c, 0, 64, 60
2, 124050, Control_c, 0, 64, 55
2, 124069, Control_c, 0, 64, 47
2, 124088, Control_c, 0, 64, 30
2, 124101, Note_on_c, 0, 77, 66
2, 124106, Control_c, 0, 64, 0
2, 124114, Note_on_c, 0, 54, 39
2, 124139, Note_on_c, 0, 73, 46
2, 124335, Note_on_c, 0, 75, 63
2, 124343, Note_on_c, 0, 56, 46
2, 124368, Note_on_c, 0, 73, 0
2, 124376, Note_on_c, 0, 54, 0
2, 124376, Note_on_c, 0, 77, 0
2, 124417, Note_on_c, 0, 56, 0
2, 124592, Note_on_c, 0, 75, 0
2, 124597, Note_on_c, 0, 73, 68
2, 124614, Note_on_c, 0, 58, 49
2, 124800, Note_on_c, 0, 58, 0
2, 124821, Note_on_c, 0, 54, 55
2, 124831, Note_on_c, 0, 71, 52
2, 124877, Note_on_c, 0, 54, 0
2, 125031, Note_on_c, 0, 71, 0
2, 125086, Note_on_c, 0, 54, 46
2, 125086, Note_on_c, 0, 70, 49
2, 125301, Note_on_c, 0, 68, 53
2, 125306, Note_on_c, 0, 58, 48
2, 125312, Note_on_c, 0, 54, 0
2, 125322, Note_on_c, 0, 73, 0
2, 125355, Note_on_c, 0, 58, 0
2, 125377, Note_on_c, 0, 70, 0
2, 125554, Note_on_c, 0, 68, 0
2, 125554, Note_on_c, 0, 75, 60
2, 125575, Note_on_c, 0, 66, 51
2, 125582, Note_on_c, 0, 59, 50
2, 125775, Note_on_c, 0, 66, 0
2, 125795, Note_on_c, 0, 54, 47
2, 125802, Note_on_c, 0, 68, 57
2, 125806, Note_on_c, 0, 59, 0
2, 125844, Note_on_c, 0, 54, 0
2, 126038, Note_on_c, 0, 70, 53
2, 126057, Note_on_c, 0, 54, 46
2, 126133, Note_on_c, 0, 68, 0
2, 126264, Note_on_c, 0, 59, 55
2, 126277, Note_on_c, 0, 65, 51
2, 126307, Note_on_c, 0, 54, 0
2, 126338, Note_on_c, 0, 59, 0
2, 126453, Note_on_c, 0, 75, 0
2, 126525, Note_on_c, 0, 66, 58
2, 126533, Note_on_c, 0, 61, 54
2, 126559, Note_on_c, 0, 70, 0
2, 126706, Note_on_c, 0, 65, 0
2, 126744, Note_on_c, 0, 54, 49
2, 126763, Note_on_c, 0, 68, 59
2, 126790, Note_on_c, 0, 61, 0
2, 126800, Note_on_c, 0, 54, 0
2, 126856, Note_on_c, 0, 68, 0
2, 126877, Note_on_c, 0, 66, 0
2, 126990, Note_on_c, 0, 73, 69
2, 127009, Note_on_c, 0, 70, 57
2, 127018, Note_on_c, 0, 54, 52
2, 127242, Note_on_c, 0, 61, 47
2, 127242, Note_on_c, 0, 65, 48
2, 127328, Note_on_c, 0, 54, 0
2, 127332, Note_on_c, 0, 73, 0
2, 127380, Note_on_c, 0, 61, 0
2, 127392, Note_on_c, 0, 70, 0
2, 127433, Note_on_c, 0, 65, 0
2, 127485, Note_on_c, 0, 71, 73
2, 127512, Note_on_c, 0, 63, 53
2, 127516, Note_on_c, 0, 66, 50
2, 127678, Note_on_c, 0, 63, 0
2, 127719, Note_on_c, 0, 54, 52
2, 127779, Note_on_c, 0, 54, 0
2, 127979, Note_on_c, 0, 70, 65
2, 127994, Note_on_c, 0, 54, 55
2, 128130, Note_on_c, 0, 71, 0
2, 128209, Note_on_c, 0, 63, 56
2, 128252, Note_on_c, 0, 54, 0
2, 128265, Note_on_c, 0, 63, 0
2, 128328, Note_on_c, 0, 66, 0
2, 128465, Note_on_c, 0, 65, 49
2, 128465, Note_on_c, 0, 68, 63
2, 128555, Note_on_c, 0, 70, 0
2, 128678, Note_on_c, 0, 65, 0
2, 128698, Note_on_c, 0, 54, 53
2, 128758, Note_on_c, 0, 54, 0
2, 128935, Note_on_c, 0, 54, 49
2, 128960, Note_on_c, 0, 73, 57
2, 129133, Note_on_c, 0, 54, 0
2, 129195, Note_on_c, 0, 65, 44
2, 129223, Note_on_c, 0, 73, 0
2, 129420, Note_on_c, 0, 65, 0
2, 129420, Note_on_c, 0, 68, 0
2, 129442, Note_on_c, 0, 70, 52
2, 129446, Note_on_c, 0, 66, 43
2, 129609, Note_on_c, 0, 66, 0
2, 129680, Note_on_c, 0, 65, 42
2, 129774, Note_on_c, 0, 70, 0
2, 129889, Note_on_c, 0, 65, 0
2, 129927, Note_on_c, 0, 70, 53
2, 129929, Note_on_c, 0, 63, 47
2, 129952, Note_on_c, 0, 66, 40
2, 130138, Note_on_c, 0, 63, 0
2, 130169, Note_on_c, 0, 61, 41
2, 130357, Note_on_c, 0, 61, 0
2, 130418, Note_on_c, 0, 75, 52
2, 130423, Note_on_c, 0, 66, 0
2, 130434, Note_on_c, 0, 59, 44
2, 130443, Note_on_c, 0, 70, 0
2, 130655, Note_on_c, 0, 68, 57
2, 130720, Note_on_c, 0, 68, 0
2, 130742, Note_on_c, 0, 59, 0
2, 130912, Note_on_c, 0, 68, 53
2, 130920, Note_on_c, 0, 75, 0
2, 130922, Note_on_c, 0, 74, 62
2, 131138, Note_on_c, 0, 59, 56
2, 131149, Note_on_c, 0, 68, 0
2, 131220, Note_on_c, 0, 59, 0
2, 131391, Note_on_c, 0, 75, 60
2, 131395, Note_on_c, 0, 58, 48
2, 131401, Note_on_c, 0, 74, 0
2, 131624, Note_on_c, 0, 66, 53
2, 131662, Note_on_c, 0, 58, 0
2, 131675, Note_on_c, 0, 66, 0
2, 131884, Note_on_c, 0, 66, 55
2, 131884, Note_on_c, 0, 70, 61
2, 131979, Note_on_c, 0, 75, 0
2, 132101, Note_on_c, 0, 58, 54
2, 132112, Note_on_c, 0, 66, 0
2, 132150, Note_on_c, 0, 58, 0
2, 132352, Note_on_c, 0, 56, 52
2, 132363, Note_on_c, 0, 75, 60
2, 132409, Note_on_c, 0, 70, 0
2, 132593, Note_on_c, 0, 65, 56
2, 132616, Note_on_c, 0, 56, 0
2, 132643, Note_on_c, 0, 65, 0
2, 132823, Note_on_c, 0, 77, 71
2, 132836, Note_on_c, 0, 65, 56
2, 132854, Note_on_c, 0, 74, 52
2, 132969, Note_on_c, 0, 75, 0
2, 133013, Note_on_c, 0, 65, 0
2, 133065, Note_on_c, 0, 56, 56
2, 133150, Note_on_c, 0, 77, 0
2, 133247, Note_on_c, 0, 74, 0
2, 133303, Note_on_c, 0, 78, 69
2, 133320, Note_on_c, 0, 75, 53
2, 133325, Note_on_c, 0, 54, 52
2, 133325, Note_on_c, 0, 56, 0
2, 133512, Note_on_c, 0, 54, 0
2, 133538, Note_on_c, 0, 56, 51
2, 133561, Note_on_c, 0, 75, 0
2, 133783, Note_on_c, 0, 80, 68
2, 133810, Note_on_c, 0, 54, 53
2, 133810, Note_on_c, 0, 77, 61
2, 133819, Note_on_c, 0, 56, 0
2, 133857, Note_on_c, 0, 78, 0
2, 133862, Control_c, 0, 64, 8
2, 133880, Control_c, 0, 64, 40
2, 133900, Control_c, 0, 64, 54
2, 133919, Control_c, 0, 64, 60
2, 133938, Control_c, 0, 64, 62
2, 133958, Control_c, 0, 64, 63
2, 133976, Control_c, 0, 64, 64
2, 133997, Control_c, 0, 64, 65
2, 134016, Control_c, 0, 64, 66
2, 134037, Note_on_c, 0, 53, 58
2, 134048, Note_on_c, 0, 54, 0
2, 134124, Note_on_c, 0, 80, 0
2, 134159, Note_on_c, 0, 77, 0
2, 134186, Control_c, 0, 64, 65
2, 134207, Control_c, 0, 64, 64
2, 134227, Control_c, 0, 64, 61
2, 134246, Control_c, 0, 64, 56
2, 134267, Control_c, 0, 64, 47
2, 134267, Note_on_c, 0, 82, 73
2, 134280, Note_on_c, 0, 53, 0
2, 134284, Control_c, 0, 64, 31
2, 134284, Note_on_c, 0, 78, 63
2, 134294, Note_on_c, 0, 51, 60
2, 134304, Control_c, 0, 64, 0
2, 134378, Control_c, 0, 64, 12
2, 134398, Control_c, 0, 64, 40
2, 134421, Control_c, 0, 64, 57
2, 134436, Control_c, 0, 64, 63
2, 134457, Control_c, 0, 64, 65
2, 134477, Control_c, 0, 64, 67
2, 134496, Control_c, 0, 64, 69
2, 134511, Note_on_c, 0, 51, 0
2, 134513, Control_c, 0, 64, 72
2, 134520, Note_on_c, 0, 53, 59
2, 134535, Control_c, 0, 64, 75
2, 134541, Note_on_c, 0, 78, 0
2, 134555, Control_c, 0, 64, 78
2, 134575, Control_c, 0, 64, 79
2, 134629, Control_c, 0, 64, 78
2, 134648, Control_c, 0, 64, 77
2, 134667, Control_c, 0, 64, 76
2, 134688, Control_c, 0, 64, 73
2, 134706, Control_c, 0, 64, 69
2, 134726, Control_c, 0, 64, 62
2, 134737, Note_on_c, 0, 53, 0
2, 134737, Note_on_c, 0, 78, 75
2, 134744, Control_c, 0, 64, 53
2, 134760, Note_on_c, 0, 54, 54
2, 134765, Control_c, 0, 64, 37
2, 134770, Note_on_c, 0, 75, 62
2, 134784, Control_c, 0, 64, 23
2, 134802, Control_c, 0, 64, 18
2, 134820, Control_c, 0, 64, 24
2, 134842, Control_c, 0, 64, 39
2, 134859, Control_c, 0, 64, 53
2, 134868, Note_on_c, 0, 82, 0
2, 134879, Control_c, 0, 64, 61
2, 134898, Control_c, 0, 64, 64
2, 134918, Control_c, 0, 64, 65
2, 134922, Note_on_c, 0, 75, 0
2, 134934, Note_on_c, 0, 54, 0
2, 134955, Control_c, 0, 64, 66
2, 134959, Note_on_c, 0, 78, 0
2, 134977, Control_c, 0, 64, 68
2, 134977, Note_on_c, 0, 51, 58
2, 134997, Control_c, 0, 64, 71
2, 135014, Control_c, 0, 64, 75
2, 135033, Control_c, 0, 64, 78
2, 135050, Control_c, 0, 64, 79
2, 135129, Control_c, 0, 64, 78
2, 135148, Control_c, 0, 64, 77
2, 135168, Control_c, 0, 64, 76
2, 135186, Control_c, 0, 64, 72
2, 135206, Control_c, 0, 64, 67
2, 135226, Control_c, 0, 64, 62
2, 135244, Control_c, 0, 64, 57
2, 135253, Note_on_c, 0, 75, 64
2, 135264, Control_c, 0, 64, 50
2, 135284, Control_c, 0, 64, 39
2, 135284, Note_on_c, 0, 56, 45
2, 135295, Note_on_c, 0, 72, 46
2, 135304, Control_c, 0, 64, 12
2, 135321, Control_c, 0, 64, 0
2, 135442, Note_on_c, 0, 51, 0
2, 135454, Control_c, 0, 64, 44
2, 135478, Control_c, 0, 64, 58
2, 135478, Note_on_c, 0, 56, 0
2, 135494, Note_on_c, 0, 58, 55
2, 135498, Control_c, 0, 64, 63
2, 135511, Control_c, 0, 64, 65
2, 135519, Note_on_c, 0, 72, 0
2, 135534, Control_c, 0, 64, 67
2, 135551, Control_c, 0, 64, 69
2, 135571, Control_c, 0, 64, 71
2, 135589, Control_c, 0, 64, 73
2, 135646, Control_c, 0, 64, 72
2, 135666, Control_c, 0, 64, 71
2, 135684, Control_c, 0, 64, 68
2, 135705, Control_c, 0, 64, 64
2, 135724, Control_c, 0, 64, 56
2, 135728, Note_on_c, 0, 68, 78
2, 135744, Control_c, 0, 64, 48
2, 135747, Note_on_c, 0, 58, 0
2, 135763, Note_on_c, 0, 56, 54
2, 135767, Control_c, 0, 64, 33
2, 135781, Control_c, 0, 64, 0
2, 135837, Control_c, 0, 64, 20
2, 135847, Note_on_c, 0, 75, 0
2, 135858, Control_c, 0, 64, 43
2, 135878, Control_c, 0, 64, 59
2, 135897, Control_c, 0, 64, 63
2, 135914, Control_c, 0, 64, 65
2, 135934, Control_c, 0, 64, 67
2, 135953, Control_c, 0, 64, 69
2, 135973, Control_c, 0, 64, 74
2, 135985, Note_on_c, 0, 54, 62
2, 135994, Note_on_c, 0, 56, 0
2, 135995, Control_c, 0, 64, 79
2, 136013, Control_c, 0, 64, 83
2, 136031, Control_c, 0, 64, 85
2, 136035, Note_on_c, 0, 68, 0
2, 136051, Control_c, 0, 64, 86
2, 136069, Control_c, 0, 64, 87
2, 136108, Control_c, 0, 64, 86
2, 136127, Control_c, 0, 64, 85
2, 136146, Control_c, 0, 64, 82
2, 136165, Control_c, 0, 64, 79
2, 136178, Note_on_c, 0, 54, 0
2, 136185, Control_c, 0, 64, 73
2, 136203, Control_c, 0, 64, 66
2, 136224, Control_c, 0, 64, 59
2, 136227, Note_on_c, 0, 73, 82
2, 136229, Note_on_c, 0, 53, 51
2, 136242, Control_c, 0, 64, 51
2, 136259, Control_c, 0, 64, 42
2, 136281, Control_c, 0, 64, 25
2, 136300, Control_c, 0, 64, 10
2, 136320, Control_c, 0, 64, 13
2, 136336, Control_c, 0, 64, 29
2, 136357, Control_c, 0, 64, 47
2, 136375, Control_c, 0, 64, 59
2, 136397, Control_c, 0, 64, 63
2, 136415, Control_c, 0, 64, 65
2, 136429, Note_on_c, 0, 53, 0
2, 136436, Control_c, 0, 64, 68
2, 136453, Control_c, 0, 64, 74
2, 136460, Note_on_c, 0, 54, 59
2, 136473, Control_c, 0, 64, 81
2, 136493, Control_c, 0, 64, 88
2, 136511, Control_c, 0, 64, 91
2, 136531, Control_c, 0, 64, 92
2, 136590, Note_on_c, 0, 73, 0
2, 136610, Control_c, 0, 64, 91
2, 136627, Control_c, 0, 64, 90
2, 136647, Control_c, 0, 64, 87
2, 136667, Control_c, 0, 64, 81
2, 136687, Control_c, 0, 64, 71
2, 136707, Control_c, 0, 64, 59
2, 136715, Note_on_c, 0, 72, 82
2, 136727, Control_c, 0, 64, 46
2, 136734, Note_on_c, 0, 56, 52
2, 136745, Control_c, 0, 64, 31
2, 136745, Note_on_c, 0, 54, 0
2, 136750, Note_on_c, 0, 80, 59
2, 136764, Control_c, 0, 64, 19
2, 136782, Control_c, 0, 64, 20
2, 136800, Control_c, 0, 64, 33
2, 136822, Control_c, 0, 64, 48
2, 136840, Control_c, 0, 64, 60
2, 136860, Control_c, 0, 64, 63
2, 136880, Note_on_c, 0, 56, 0
2, 136900, Control_c, 0, 64, 64
2, 136900, Note_on_c, 0, 80, 0
2, 136917, Control_c, 0, 64, 65
2, 136936, Control_c, 0, 64, 67
2, 136954, Note_on_c, 0, 53, 54
2, 136958, Control_c, 0, 64, 71
2, 136975, Control_c, 0, 64, 76
2, 136996, Control_c, 0, 64, 80
2, 137012, Control_c, 0, 64, 81
2, 137029, Note_on_c, 0, 72, 0
2, 137071, Control_c, 0, 64, 80
2, 137090, Control_c, 0, 64, 79
2, 137108, Control_c, 0, 64, 78
2, 137129, Control_c, 0, 64, 76
2, 137146, Control_c, 0, 64, 73
2, 137167, Control_c, 0, 64, 69
2, 137188, Control_c, 0, 64, 65
2, 137188, Note_on_c, 0, 53, 0
2, 137207, Control_c, 0, 64, 61
2, 137207, Note_on_c, 0, 73, 76
2, 137220, Note_on_c, 0, 58, 50
2, 137223, Control_c, 0, 64, 58
2, 137242, Control_c, 0, 64, 55
2, 137266, Control_c, 0, 64, 51
2, 137266, Note_on_c, 0, 77, 64
2, 137282, Control_c, 0, 64, 44
2, 137302, Control_c, 0, 64, 31
2, 137321, Control_c, 0, 64, 0
2, 137447, Note_on_c, 0, 58, 0
2, 137453, Note_on_c, 0, 60, 53
2, 137691, Note_on_c, 0, 60, 0
2, 137694, Note_on_c, 0, 73, 0
2, 137695, Note_on_c, 0, 72, 69
2, 137704, Note_on_c, 0, 61, 49
2, 137933, Note_on_c, 0, 70, 65
2, 137966, Note_on_c, 0, 72, 0
2, 138174, Note_on_c, 0, 68, 66
2, 138197, Note_on_c, 0, 70, 0
2, 138246, Note_on_c, 0, 77, 0
2, 138370, Note_on_c, 0, 61, 0
2, 138394, Note_on_c, 0, 60, 54
2, 138594, Note_on_c, 0, 60, 0
2, 138621, Note_on_c, 0, 58, 52
2, 138621, Note_on_c, 0, 77, 66
2, 138741, Note_on_c, 0, 77, 0
2, 138809, Note_on_c, 0, 68, 0
2, 138847, Note_on_c, 0, 56, 51
2, 138847, Note_on_c, 0, 58, 0
2, 138852, Note_on_c, 0, 66, 67
2, 138927, Note_on_c, 0, 68, 68
2, 138941, Note_on_c, 0, 66, 0
2, 138975, Note_on_c, 0, 68, 0
2, 139060, Note_on_c, 0, 56, 0
2, 139079, Note_on_c, 0, 70, 68
2, 139085, Note_on_c, 0, 75, 60
2, 139089, Note_on_c, 0, 54, 48
2, 139289, Note_on_c, 0, 75, 0
2, 139315, Note_on_c, 0, 54, 0
2, 139319, Note_on_c, 0, 72, 64
2, 139336, Note_on_c, 0, 56, 47
2, 139554, Note_on_c, 0, 56, 0
2, 139557, Note_on_c, 0, 73, 58
2, 139563, Note_on_c, 0, 72, 0
2, 139572, Note_on_c, 0, 58, 50
2, 139764, Note_on_c, 0, 58, 0
2, 139773, Note_on_c, 0, 73, 0
2, 139785, Note_on_c, 0, 77, 54
2, 139810, Note_on_c, 0, 53, 49
2, 140009, Note_on_c, 0, 77, 0
2, 140014, Note_on_c, 0, 53, 0
2, 140020, Note_on_c, 0, 75, 49
2, 140029, Note_on_c, 0, 54, 45
2, 140178, Note_on_c, 0, 70, 0
2, 140236, Note_on_c, 0, 54, 0
2, 140252, Note_on_c, 0, 56, 49
2, 140256, Note_on_c, 0, 72, 55
2, 140303, Note_on_c, 0, 75, 0
2, 140463, Note_on_c, 0, 56, 0
2, 140483, Note_on_c, 0, 72, 0
2, 140492, Note_on_c, 0, 68, 65
2, 140496, Note_on_c, 0, 73, 61
2, 140508, Note_on_c, 0, 58, 44
2, 140735, Note_on_c, 0, 54, 47
2, 140735, Note_on_c, 0, 58, 0
2, 140936, Note_on_c, 0, 54, 0
2, 140969, Note_on_c, 0, 51, 44
2, 140973, Note_on_c, 0, 66, 69
2, 141056, Note_on_c, 0, 68, 0
2, 141105, Note_on_c, 0, 73, 0
2, 141202, Note_on_c, 0, 72, 58
2, 141459, Note_on_c, 0, 73, 64
2, 141463, Note_on_c, 0, 53, 45
2, 141470, Note_on_c, 0, 66, 0
2, 141475, Note_on_c, 0, 65, 59
2, 141475, Note_on_c, 0, 72, 0
2, 141520, Note_on_c, 0, 51, 0
2, 141647, Note_on_c, 0, 53, 0
2, 141690, Note_on_c, 0, 54, 45
2, 141931, Note_on_c, 0, 54, 0
2, 141994, Note_on_c, 0, 63, 56
2, 141999, Note_on_c, 0, 56, 36
2, 142046, Note_on_c, 0, 65, 0
2, 142112, Note_on_c, 0, 73, 0
2, 142155, Control_c, 0, 64, 44
2, 142176, Control_c, 0, 64, 62
2, 142194, Control_c, 0, 64, 69
2, 142214, Control_c, 0, 64, 74
2, 142223, Note_on_c, 0, 63, 0
2, 142231, Control_c, 0, 64, 78
2, 142253, Control_c, 0, 64, 83
2, 142271, Control_c, 0, 64, 90
2, 142291, Control_c, 0, 64, 94
2, 142329, Control_c, 0, 64, 92
2, 142368, Control_c, 0, 64, 91
2, 142384, Control_c, 0, 64, 89
2, 142405, Control_c, 0, 64, 83
2, 142427, Control_c, 0, 64, 76
2, 142444, Control_c, 0, 64, 68
2, 142463, Control_c, 0, 64, 62
2, 142463, Note_on_c, 0, 56, 0
2, 142483, Control_c, 0, 64, 54
2, 142493, Note_on_c, 0, 72, 55
2, 142497, Note_on_c, 0, 68, 53
2, 142501, Control_c, 0, 64, 45
2, 142506, Note_on_c, 0, 44, 33
2, 142519, Control_c, 0, 64, 29
2, 142539, Control_c, 0, 64, 0
2, 142638, Control_c, 0, 64, 39
2, 142655, Control_c, 0, 64, 56
2, 142673, Control_c, 0, 64, 63
2, 142692, Control_c, 0, 64, 65
2, 142712, Control_c, 0, 64, 67
2, 142732, Control_c, 0, 64, 69
2, 142749, Control_c, 0, 64, 74
2, 142767, Note_on_c, 0, 72, 0
2, 142771, Control_c, 0, 64, 78
2, 142773, Note_on_c, 0, 68, 0
2, 142789, Control_c, 0, 64, 79
2, 142827, Control_c, 0, 64, 78
2, 142866, Control_c, 0, 64, 77
2, 142886, Control_c, 0, 64, 76
2, 142906, Control_c, 0, 64, 74
2, 142927, Control_c, 0, 64, 71
2, 142942, Control_c, 0, 64, 67
2, 142962, Control_c, 0, 64, 63
2, 142982, Control_c, 0, 64, 57
2, 143001, Control_c, 0, 64, 50
2, 143019, Note_on_c, 0, 49, 37
2, 143023, Control_c, 0, 64, 43
2, 143023, Note_on_c, 0, 73, 51
2, 143039, Control_c, 0, 64, 41
2, 143046, Note_on_c, 0, 44, 0
2, 143046, Note_on_c, 0, 65, 44
2, 143057, Control_c, 0, 64, 45
2, 143077, Control_c, 0, 64, 54
2, 143095, Control_c, 0, 64, 61
2, 143114, Control_c, 0, 64, 63
2, 143231, Control_c, 0, 64, 62
2, 143253, Control_c, 0, 64, 61
2, 143253, Note_on_c, 0, 49, 0
2, 143253, Note_on_c, 0, 68, 57
2, 143270, Control_c, 0, 64, 60
2, 143288, Control_c, 0, 64, 58
2, 143299, Note_on_c, 0, 65, 0
2, 143299, Note_on_c, 0, 68, 0
2, 143307, Control_c, 0, 64, 56
2, 143326, Control_c, 0, 64, 52
2, 143347, Control_c, 0, 64, 46
2, 143353, Note_on_c, 0, 73, 0
2, 143366, Control_c, 0, 64, 34
2, 143385, Control_c, 0, 64, 0
2, 143503, Note_on_c, 0, 61, 55
2, 143512, Note_on_c, 0, 68, 63
2, 143733, Note_on_c, 0, 65, 53
2, 143770, Note_on_c, 0, 68, 0
2, 143783, Note_on_c, 0, 65, 0
2, 143840, Note_on_c, 0, 61, 0
2, 144003, Note_on_c, 0, 60, 49
2, 144003, Note_on_c, 0, 63, 62
2, 144183, Note_on_c, 0, 63, 0
2, 144212, Note_on_c, 0, 68, 61
2, 144265, Note_on_c, 0, 68, 0
2, 144340, Note_on_c, 0, 60, 0
2, 144470, Note_on_c, 0, 68, 58
2, 144470, Note_on_c, 0, 72, 64
2, 144474, Note_on_c, 0, 56, 49
2, 144685, Note_on_c, 0, 63, 57
2, 144689, Note_on_c, 0, 68, 0
2, 144689, Note_on_c, 0, 72, 0
2, 144736, Note_on_c, 0, 63, 0
2, 144750, Note_on_c, 0, 56, 0
2, 144934, Note_on_c, 0, 61, 50
2, 144937, Note_on_c, 0, 73, 60
2, 144955, Note_on_c, 0, 65, 50
2, 145162, Note_on_c, 0, 77, 61
2, 145171, Note_on_c, 0, 73, 0
2, 145205, Note_on_c, 0, 77, 0
2, 145267, Note_on_c, 0, 61, 0
2, 145423, Note_on_c, 0, 77, 71
2, 145432, Note_on_c, 0, 58, 52
2, 145643, Note_on_c, 0, 73, 67
2, 145686, Note_on_c, 0, 73, 0
2, 145695, Note_on_c, 0, 77, 0
2, 145702, Note_on_c, 0, 65, 0
2, 145752, Note_on_c, 0, 58, 0
2, 145889, Note_on_c, 0, 72, 72
2, 145894, Note_on_c, 0, 57, 57
2, 146116, Note_on_c, 0, 77, 71
2, 146153, Note_on_c, 0, 72, 0
2, 146181, Note_on_c, 0, 77, 0
2, 146213, Note_on_c, 0, 57, 0
2, 146359, Note_on_c, 0, 77, 72
2, 146368, Note_on_c, 0, 69, 66
2, 146370, Note_on_c, 0, 53, 52
2, 146585, Note_on_c, 0, 72, 69
2, 146607, Note_on_c, 0, 77, 0
2, 146616, Note_on_c, 0, 69, 0
2, 146632, Note_on_c, 0, 72, 0
2, 146839, Note_on_c, 0, 73, 73
2, 146859, Note_on_c, 0, 70, 49
2, 146864, Note_on_c, 0, 58, 52
2, 146916, Note_on_c, 0, 53, 0
2, 147066, Note_on_c, 0, 61, 59
2, 147082, Note_on_c, 0, 58, 0
2, 147112, Note_on_c, 0, 61, 0
2, 147313, Note_on_c, 0, 77, 81
2, 147335, Note_on_c, 0, 61, 51
2, 147406, Note_on_c, 0, 73, 0
2, 147546, Note_on_c, 0, 58, 56
2, 147555, Note_on_c, 0, 61, 0
2, 147617, Note_on_c, 0, 58, 0
2, 147783, Note_on_c, 0, 82, 79
2, 147797, Note_on_c, 0, 54, 53
2, 147965, Note_on_c, 0, 77, 0
2, 148023, Note_on_c, 0, 58, 51
2, 148074, Note_on_c, 0, 54, 0
2, 148083, Note_on_c, 0, 58, 0
2, 148188, Note_on_c, 0, 70, 0
2, 148257, Note_on_c, 0, 73, 73
2, 148291, Note_on_c, 0, 58, 46
2, 148494, Note_on_c, 0, 54, 52
2, 148541, Note_on_c, 0, 58, 0
2, 148545, Note_on_c, 0, 73, 0
2, 148546, Note_on_c, 0, 54, 0
2, 148757, Note_on_c, 0, 51, 50
2, 148765, Note_on_c, 0, 71, 68
2, 148988, Note_on_c, 0, 59, 53
2, 149030, Note_on_c, 0, 51, 0
2, 149042, Note_on_c, 0, 59, 0
2, 149238, Note_on_c, 0, 80, 74
2, 149256, Note_on_c, 0, 59, 46
2, 149309, Note_on_c, 0, 82, 0
2, 149463, Note_on_c, 0, 78, 75
2, 149474, Note_on_c, 0, 56, 54
2, 149474, Note_on_c, 0, 80, 0
2, 149481, Note_on_c, 0, 59, 0
2, 149570, Note_on_c, 0, 56, 0
2, 149705, Note_on_c, 0, 71, 0
2, 149724, Note_on_c, 0, 80, 72
2, 149728, Note_on_c, 0, 53, 51
2, 149772, Note_on_c, 0, 78, 0
2, 149964, Note_on_c, 0, 56, 61
2, 150017, Note_on_c, 0, 56, 0
2, 150025, Note_on_c, 0, 53, 0
2, 150216, Note_on_c, 0, 71, 65
2, 150225, Note_on_c, 0, 56, 53
2, 150412, Note_on_c, 0, 56, 0
2, 150446, Note_on_c, 0, 53, 56
2, 150500, Note_on_c, 0, 53, 0
2, 150532, Note_on_c, 0, 71, 0
2, 150689, Note_on_c, 0, 70, 66
2, 150693, Note_on_c, 0, 50, 48
2, 150908, Note_on_c, 0, 58, 54
2, 150956, Note_on_c, 0, 50, 0
2, 150969, Note_on_c, 0, 58, 0
2, 151162, Note_on_c, 0, 78, 75
2, 151179, Note_on_c, 0, 58, 57
2, 151363, Note_on_c, 0, 80, 0
2, 151397, Note_on_c, 0, 77, 71
2, 151406, Note_on_c, 0, 54, 53
2, 151424, Note_on_c, 0, 58, 0
2, 151500, Note_on_c, 0, 78, 0
2, 151507, Note_on_c, 0, 70, 0
2, 151511, Note_on_c, 0, 54, 0
2, 151640, Note_on_c, 0, 78, 73
2, 151657, Note_on_c, 0, 51, 50
2, 151666, Note_on_c, 0, 77, 0
2, 151874, Note_on_c, 0, 54, 57
2, 151937, Note_on_c, 0, 51, 0
2, 151953, Note_on_c, 0, 54, 0
2, 152128, Note_on_c, 0, 54, 56
2, 152134, Note_on_c, 0, 70, 66
2, 152351, Note_on_c, 0, 51, 63
2, 152357, Note_on_c, 0, 54, 0
2, 152402, Note_on_c, 0, 51, 0
2, 152448, Note_on_c, 0, 70, 0
2, 152608, Note_on_c, 0, 47, 55
2, 152608, Note_on_c, 0, 68, 73
2, 152834, Note_on_c, 0, 51, 69
2, 152863, Note_on_c, 0, 78, 0
2, 152885, Note_on_c, 0, 47, 0
2, 152900, Note_on_c, 0, 51, 0
2, 153073, Note_on_c, 0, 51, 62
2, 153078, Note_on_c, 0, 78, 80
2, 153265, Note_on_c, 0, 51, 0
2, 153306, Note_on_c, 0, 47, 66
2, 153398, Note_on_c, 0, 47, 0
2, 153511, Note_on_c, 0, 78, 0
2, 153567, Note_on_c, 0, 44, 65
2, 153573, Note_on_c, 0, 77, 81
2, 153795, Note_on_c, 0, 47, 70
2, 153861, Note_on_c, 0, 44, 0
2, 153875, Note_on_c, 0, 47, 0
2, 154045, Note_on_c, 0, 75, 70
2, 154049, Note_on_c, 0, 47, 67
2, 154157, Note_on_c, 0, 77, 0
2, 154264, Note_on_c, 0, 44, 68
2, 154315, Note_on_c, 0, 68, 0
2, 154338, Note_on_c, 0, 47, 0
2, 154402, Note_on_c, 0, 44, 0
2, 154419, Note_on_c, 0, 75, 0
2, 154548, Note_on_c, 0, 46, 68
2, 154560, Note_on_c, 0, 74, 70
2, 154804, Note_on_c, 0, 71, 56
2, 154901, Note_on_c, 0, 46, 0
2, 155044, Note_on_c, 0, 46, 71
2, 155044, Note_on_c, 0, 70, 65
2, 155123, Note_on_c, 0, 74, 0
2, 155217, Note_on_c, 0, 71, 0
2, 155263, Note_on_c, 0, 68, 71
2, 155293, Note_on_c, 0, 70, 0
2, 155522, Note_on_c, 0, 51, 73
2, 155532, Note_on_c, 0, 68, 0
2, 155541, Note_on_c, 0, 66, 63
2, 155597, Note_on_c, 0, 46, 0
2, 155742, Note_on_c, 0, 68, 72
2, 155757, Note_on_c, 0, 66, 0
2, 156001, Note_on_c, 0, 50, 74
2, 156023, Note_on_c, 0, 70, 62
2, 156042, Note_on_c, 0, 51, 0
2, 156190, Note_on_c, 0, 68, 0
2, 156214, Note_on_c, 0, 70, 0
2, 156243, Note_on_c, 0, 65, 66
2, 156492, Note_on_c, 0, 65, 0
2, 156496, Note_on_c, 0, 51, 71
2, 156496, Note_on_c, 0, 66, 68
2, 156501, Note_on_c, 0, 50, 0
2, 156722, Note_on_c, 0, 68, 69
2, 156735, Note_on_c, 0, 66, 0
2, 156976, Note_on_c, 0, 49, 62
2, 156985, Note_on_c, 0, 68, 0
2, 156985, Note_on_c, 0, 70, 70
2, 157010, Note_on_c, 0, 63, 54
2, 157180, Note_on_c, 0, 51, 0
2, 157207, Note_on_c, 0, 65, 62
2, 157214, Note_on_c, 0, 47, 63
2, 157214, Note_on_c, 0, 63, 0
2, 157229, Note_on_c, 0, 49, 0
2, 157285, Note_on_c, 0, 65, 0
2, 157445, Note_on_c, 0, 46, 53
2, 157457, Note_on_c, 0, 66, 59
2, 157507, Note_on_c, 0, 47, 0
2, 157643, Note_on_c, 0, 46, 0
2, 157679, Note_on_c, 0, 47, 57
2, 157686, Note_on_c, 0, 63, 52
2, 157730, Note_on_c, 0, 63, 0
2, 157739, Note_on_c, 0, 66, 0
2, 157746, Note_on_c, 0, 70, 0
2, 157790, Note_on_c, 0, 47, 0
2, 157806, Note_on_c, 0, 46, 60
2, 157868, Note_on_c, 0, 46, 0
2, 157910, Note_on_c, 0, 47, 57
2, 157938, Note_on_c, 0, 75, 70
2, 157942, Note_on_c, 0, 63, 62
2, 158017, Note_on_c, 0, 47, 0
2, 158024, Note_on_c, 0, 46, 61
2, 158089, Note_on_c, 0, 46, 0
2, 158123, Note_on_c, 0, 63, 0
2, 158148, Note_on_c, 0, 44, 62
2, 158148, Note_on_c, 0, 66, 62
2, 158170, Note_on_c, 0, 75, 0
2, 158194, Note_on_c, 0, 66, 0
2, 158256, Note_on_c, 0, 46, 63
2, 158305, Note_on_c, 0, 44, 0
2, 158363, Note_on_c, 0, 46, 0
2, 158393, Note_on_c, 0, 68, 69
2, 158397, Note_on_c, 0, 47, 64
2, 158397, Note_on_c, 0, 75, 68
2, 158641, Note_on_c, 0, 63, 62
2, 158655, Note_on_c, 0, 68, 0
2, 158685, Note_on_c, 0, 63, 0
2, 158893, Note_on_c, 0, 63, 60
2, 159089, Note_on_c, 0, 68, 63
2, 159105, Note_on_c, 0, 63, 0
2, 159142, Note_on_c, 0, 68, 0
2, 159359, Note_on_c, 0, 70, 58
2, 159581, Note_on_c, 0, 47, 0
2, 159588, Note_on_c, 0, 63, 54
2, 159628, Note_on_c, 0, 63, 0
2, 159661, Note_on_c, 0, 70, 0
2, 159825, Note_on_c, 0, 46, 68
2, 159849, Note_on_c, 0, 63, 56
2, 160044, Note_on_c, 0, 70, 62
2, 160088, Note_on_c, 0, 63, 0
2, 160110, Note_on_c, 0, 70, 0
2, 160325, Note_on_c, 0, 44, 69
2, 160325, Note_on_c, 0, 71, 63
2, 160353, Note_on_c, 0, 46, 0
2, 160551, Note_on_c, 0, 63, 66
2, 160593, Note_on_c, 0, 63, 0
2, 160593, Note_on_c, 0, 71, 0
2, 160813, Note_on_c, 0, 42, 63
2, 160813, Note_on_c, 0, 44, 0
2, 160822, Note_on_c, 0, 63, 65
2, 160972, Note_on_c, 0, 75, 0
2, 161028, Note_on_c, 0, 71, 61
2, 161055, Note_on_c, 0, 63, 0
2, 161080, Note_on_c, 0, 71, 0
2, 161283, Note_on_c, 0, 41, 60
2, 161283, Note_on_c, 0, 74, 72
2, 161301, Note_on_c, 0, 68, 64
2, 161332, Note_on_c, 0, 42, 0
2, 161483, Note_on_c, 0, 74, 0
2, 161516, Note_on_c, 0, 63, 63
2, 161573, Note_on_c, 0, 63, 0
2, 161771, Note_on_c, 0, 63, 60
2, 161784, Note_on_c, 0, 46, 58
2, 161817, Note_on_c, 0, 41, 0
2, 161940, Note_on_c, 0, 63, 0
2, 161988, Note_on_c, 0, 74, 63
2, 162046, Note_on_c, 0, 68, 0
2, 162118, Note_on_c, 0, 74, 0
2, 162262, Note_on_c, 0, 75, 63
2, 162266, Note_on_c, 0, 39, 56
2, 162366, Note_on_c, 0, 46, 0
2, 162480, Note_on_c, 0, 66, 67
2, 162682, Note_on_c, 0, 66, 0
2, 162727, Note_on_c, 0, 68, 69
2, 162760, Note_on_c, 0, 42, 63
2, 162771, Note_on_c, 0, 75, 0
2, 162929, Note_on_c, 0, 39, 0
2, 162952, Note_on_c, 0, 70, 73
2, 162957, Note_on_c, 0, 68, 0
2, 163169, Note_on_c, 0, 70, 0
2, 163206, Note_on_c, 0, 71, 72
2, 163211, Note_on_c, 0, 44, 68
2, 163333, Note_on_c, 0, 42, 0
2, 163446, Note_on_c, 0, 77, 71
2, 163666, Note_on_c, 0, 77, 0
2, 163672, Note_on_c, 0, 78, 76
2, 163877, Note_on_c, 0, 71, 0
2, 163907, Note_on_c, 0, 44, 0
2, 163913, Note_on_c, 0, 80, 78
2, 163965, Note_on_c, 0, 78, 0
2, 164134, Note_on_c, 0, 80, 0
2, 164139, Note_on_c, 0, 74, 74
2, 164150, Note_on_c, 0, 70, 71
2, 164294, Note_on_c, 0, 70, 0
2, 164374, Note_on_c, 0, 53, 58
2, 164374, Note_on_c, 0, 83, 80
2, 164379, Note_on_c, 0, 74, 0
2, 164608, Note_on_c, 0, 82, 82
2, 164613, Note_on_c, 0, 53, 0
2, 164622, Note_on_c, 0, 54, 60
2, 164648, Note_on_c, 0, 83, 0
2, 164842, Note_on_c, 0, 56, 59
2, 164847, Note_on_c, 0, 54, 0
2, 164847, Note_on_c, 0, 75, 78
2, 164859, Note_on_c, 0, 82, 0
2, 165062, Note_on_c, 0, 56, 0
2, 165062, Note_on_c, 0, 80, 70
2, 165086, Note_on_c, 0, 58, 52
2, 165119, Note_on_c, 0, 80, 0
2, 165125, Note_on_c, 0, 78, 83
2, 165159, Note_on_c, 0, 75, 0
2, 165188, Note_on_c, 0, 80, 69
2, 165196, Note_on_c, 0, 78, 0
2, 165253, Note_on_c, 0, 78, 72
2, 165271, Note_on_c, 0, 80, 0
2, 165548, Note_on_c, 0, 78, 0
2, 165583, Note_on_c, 0, 77, 69
2, 165600, Note_on_c, 0, 46, 37
2, 165600, Note_on_c, 0, 74, 44
2, 165652, Note_on_c, 0, 74, 0
2, 165815, Note_on_c, 0, 75, 73
2, 165854, Note_on_c, 0, 77, 0
2, 165914, Note_on_c, 0, 75, 0
2, 165950, Note_on_c, 0, 46, 0
2, 166005, Note_on_c, 0, 58, 0
2, 166063, Note_on_c, 0, 75, 71
2, 166080, Note_on_c, 0, 51, 43
2, 166308, Note_on_c, 0, 58, 56
2, 166338, Note_on_c, 0, 51, 0
2, 166358, Note_on_c, 0, 58, 0
2, 166529, Note_on_c, 0, 78, 81
2, 166559, Note_on_c, 0, 58, 49
2, 166691, Note_on_c, 0, 75, 0
2, 166787, Note_on_c, 0, 54, 50
2, 166798, Note_on_c, 0, 58, 0
2, 166949, Note_on_c, 0, 54, 0
2, 167036, Note_on_c, 0, 83, 78
2, 167057, Note_on_c, 0, 51, 47
2, 167270, Note_on_c, 0, 54, 58
2, 167293, Note_on_c, 0, 51, 0
2, 167322, Note_on_c, 0, 54, 0
2, 167331, Note_on_c, 0, 78, 0
2, 167518, Note_on_c, 0, 82, 78
2, 167534, Note_on_c, 0, 54, 50
2, 167656, Note_on_c, 0, 83, 0
2, 167731, Note_on_c, 0, 54, 0
2, 167737, Note_on_c, 0, 51, 61
2, 167784, Note_on_c, 0, 51, 0
2, 167997, Note_on_c, 0, 83, 77
2, 168009, Note_on_c, 0, 44, 57
2, 168066, Note_on_c, 0, 82, 0
2, 168130, Note_on_c, 0, 44, 0
2, 168254, Note_on_c, 0, 63, 59
2, 168299, Note_on_c, 0, 63, 0
2, 168495, Note_on_c, 0, 75, 73
2, 168516, Note_on_c, 0, 63, 53
2, 168655, Note_on_c, 0, 63, 0
2, 168705, Note_on_c, 0, 59, 56
2, 168794, Note_on_c, 0, 59, 0
2, 168977, Note_on_c, 0, 80, 73
2, 168992, Note_on_c, 0, 56, 51
2, 169011, Note_on_c, 0, 75, 0
2, 169225, Note_on_c, 0, 59, 56
2, 169252, Note_on_c, 0, 56, 0
2, 169274, Note_on_c, 0, 59, 0
2, 169467, Note_on_c, 0, 78, 76
2, 169476, Note_on_c, 0, 59, 46
2, 169609, Note_on_c, 0, 80, 0
2, 169676, Note_on_c, 0, 59, 0
2, 169703, Note_on_c, 0, 56, 56
2, 169747, Note_on_c, 0, 56, 0
2, 169963, Note_on_c, 0, 53, 47
2, 169963, Note_on_c, 0, 80, 72
2, 170167, Note_on_c, 0, 83, 0
2, 170196, Note_on_c, 0, 56, 54
2, 170227, Note_on_c, 0, 53, 0
2, 170249, Note_on_c, 0, 56, 0
2, 170445, Note_on_c, 0, 77, 79
2, 170451, Note_on_c, 0, 56, 52
2, 170548, Note_on_c, 0, 78, 0
2, 170585, Note_on_c, 0, 56, 0
2, 170663, Note_on_c, 0, 53, 55
2, 170721, Note_on_c, 0, 53, 0
2, 170933, Note_on_c, 0, 49, 46
2, 170937, Note_on_c, 0, 82, 76
2, 171146, Note_on_c, 0, 77, 0
2, 171166, Note_on_c, 0, 53, 52
2, 171166, Note_on_c, 0, 80, 0
2, 171215, Note_on_c, 0, 49, 0
2, 171222, Note_on_c, 0, 53, 0
2, 171398, Note_on_c, 0, 80, 72
2, 171409, Note_on_c, 0, 53, 52
2, 171567, Note_on_c, 0, 53, 0
2, 171623, Note_on_c, 0, 49, 46
2, 171676, Note_on_c, 0, 49, 0
2, 171682, Note_on_c, 0, 82, 0
2, 171898, Note_on_c, 0, 42, 50
2, 171898, Note_on_c, 0, 82, 67
2, 171991, Note_on_c, 0, 42, 0
2, 172138, Note_on_c, 0, 61, 53
2, 172181, Note_on_c, 0, 61, 0
2, 172348, Note_on_c, 0, 80, 0
2, 172376, Note_on_c, 0, 61, 44
2, 172376, Note_on_c, 0, 73, 65
2, 172601, Note_on_c, 0, 58, 59
2, 172608, Note_on_c, 0, 61, 0
2, 172648, Note_on_c, 0, 58, 0
2, 172862, Note_on_c, 0, 54, 51
2, 172874, Note_on_c, 0, 78, 64
2, 172897, Note_on_c, 0, 73, 0
2, 173080, Note_on_c, 0, 58, 55
2, 173132, Note_on_c, 0, 58, 0
2, 173159, Note_on_c, 0, 54, 0
2, 173343, Note_on_c, 0, 58, 49
2, 173343, Note_on_c, 0, 77, 65
2, 173352, Note_on_c, 0, 78, 0
2, 173558, Note_on_c, 0, 58, 0
2, 173571, Note_on_c, 0, 54, 51
2, 173618, Note_on_c, 0, 54, 0
2, 173825, Note_on_c, 0, 78, 66
2, 173834, Note_on_c, 0, 51, 46
2, 174063, Note_on_c, 0, 54, 44
2, 174089, Note_on_c, 0, 82, 0
2, 174093, Note_on_c, 0, 51, 0
2, 174098, Note_on_c, 0, 77, 0
2, 174116, Note_on_c, 0, 54, 0
2, 174304, Note_on_c, 0, 82, 76
2, 174309, Note_on_c, 0, 54, 47
2, 174323, Note_on_c, 0, 73, 60
2, 174526, Note_on_c, 0, 51, 56
2, 174551, Note_on_c, 0, 54, 0
2, 174569, Note_on_c, 0, 78, 0
2, 174595, Note_on_c, 0, 51, 0
2, 174769, Note_on_c, 0, 80, 82
2, 174793, Note_on_c, 0, 47, 56
2, 174793, Note_on_c, 0, 75, 65
2, 175005, Note_on_c, 0, 51, 65
2, 175063, Note_on_c, 0, 47, 0
2, 175072, Note_on_c, 0, 82, 0
2, 175085, Note_on_c, 0, 51, 0
2, 175164, Note_on_c, 0, 80, 0
2, 175258, Note_on_c, 0, 51, 62
2, 175263, Note_on_c, 0, 78, 84
2, 175330, Note_on_c, 0, 73, 0
2, 175449, Note_on_c, 0, 51, 0
2, 175482, Note_on_c, 0, 47, 61
2, 175554, Note_on_c, 0, 47, 0
2, 175646, Note_on_c, 0, 78, 0
2, 175747, Note_on_c, 0, 49, 60
2, 175751, Note_on_c, 0, 77, 75
2, 175984, Note_on_c, 0, 68, 65
2, 176013, Note_on_c, 0, 75, 0
2, 176039, Note_on_c, 0, 68, 0
2, 176178, Note_on_c, 0, 49, 0
2, 176249, Note_on_c, 0, 37, 49
2, 176249, Note_on_c, 0, 68, 69
2, 176457, Note_on_c, 0, 73, 65
2, 176508, Note_on_c, 0, 68, 0
2, 176534, Note_on_c, 0, 73, 0
2, 176548, Note_on_c, 0, 77, 0
2, 176705, Note_on_c, 0, 76, 81
2, 176719, Note_on_c, 0, 37, 0
2, 176724, Note_on_c, 0, 73, 71
2, 176939, Note_on_c, 0, 68, 66
2, 177003, Note_on_c, 0, 68, 0
2, 177175, Note_on_c, 0, 73, 0
2, 177193, Note_on_c, 0, 61, 63
2, 177209, Note_on_c, 0, 68, 68
2, 177423, Note_on_c, 0, 71, 69
2, 177427, Note_on_c, 0, 59, 71
2, 177427, Note_on_c, 0, 68, 0
2, 177430, Note_on_c, 0, 61, 0
2, 177647, Note_on_c, 0, 76, 0
2, 177709, Note_on_c, 0, 61, 66
2, 177715, Note_on_c, 0, 70, 64
2, 177717, Note_on_c, 0, 71, 0
2, 177732, Note_on_c, 0, 59, 0
2, 177926, Note_on_c, 0, 73, 70
2, 178002, Note_on_c, 0, 73, 0
2, 178183, Note_on_c, 0, 54, 69
2, 178205, Note_on_c, 0, 61, 0
2, 178205, Note_on_c, 0, 73, 61
2, 178417, Note_on_c, 0, 76, 69
2, 178426, Note_on_c, 0, 73, 0
2, 178488, Note_on_c, 0, 76, 0
2, 178663, Note_on_c, 0, 59, 68
2, 178683, Note_on_c, 0, 75, 60
2, 178729, Note_on_c, 0, 54, 0
2, 178884, Note_on_c, 0, 71, 61
2, 178895, Note_on_c, 0, 75, 0
2, 178935, Note_on_c, 0, 71, 0
2, 179141, Note_on_c, 0, 58, 65
2, 179141, Note_on_c, 0, 59, 0
2, 179162, Note_on_c, 0, 71, 57
2, 179371, Note_on_c, 0, 75, 56
2, 179393, Note_on_c, 0, 71, 0
2, 179416, Note_on_c, 0, 70, 0
2, 179420, Note_on_c, 0, 75, 0
2, 179629, Note_on_c, 0, 59, 56
2, 179638, Note_on_c, 0, 75, 60
2, 179642, Note_on_c, 0, 68, 59
2, 179686, Note_on_c, 0, 58, 0
2, 179871, Note_on_c, 0, 71, 54
2, 179886, Note_on_c, 0, 75, 0
2, 179926, Note_on_c, 0, 71, 0
2, 180128, Note_on_c, 0, 53, 52
2, 180137, Note_on_c, 0, 71, 52
2, 180181, Note_on_c, 0, 59, 0
2, 180334, Note_on_c, 0, 75, 59
2, 180341, Note_on_c, 0, 71, 0
2, 180393, Note_on_c, 0, 75, 0
2, 180593, Note_on_c, 0, 58, 55
2, 180605, Note_on_c, 0, 73, 56
2, 180612, Note_on_c, 0, 53, 0
2, 180819, Note_on_c, 0, 70, 60
2, 180830, Note_on_c, 0, 73, 0
2, 180858, Note_on_c, 0, 70, 0
2, 181082, Note_on_c, 0, 56, 56
2, 181090, Note_on_c, 0, 58, 0
2, 181090, Note_on_c, 0, 70, 61
2, 181311, Note_on_c, 0, 73, 61
2, 181346, Note_on_c, 0, 70, 0
2, 181354, Note_on_c, 0, 68, 0
2, 181359, Note_on_c, 0, 73, 0
2, 181568, Note_on_c, 0, 58, 53
2, 181575, Note_on_c, 0, 66, 64
2, 181575, Note_on_c, 0, 73, 62
2, 181586, Note_on_c, 0, 56, 0
2, 181824, Note_on_c, 0, 70, 46
2, 181833, Note_on_c, 0, 73, 0
2, 181874, Note_on_c, 0, 70, 0
2, 182088, Note_on_c, 0, 51, 49
2, 182093, Note_on_c, 0, 70, 53
2, 182170, Note_on_c, 0, 58, 0
2, 182285, Note_on_c, 0, 73, 66
2, 182290, Note_on_c, 0, 70, 0
2, 182333, Note_on_c, 0, 73, 0
2, 182557, Note_on_c, 0, 71, 54
2, 182561, Note_on_c, 0, 56, 49
2, 182640, Note_on_c, 0, 51, 0
2, 182741, Note_on_c, 0, 71, 0
2, 182765, Note_on_c, 0, 68, 62
2, 182805, Note_on_c, 0, 68, 0
2, 183022, Note_on_c, 0, 54, 48
2, 183033, Note_on_c, 0, 68, 53
2, 183077, Note_on_c, 0, 56, 0
2, 183233, Note_on_c, 0, 68, 0
2, 183233, Note_on_c, 0, 71, 56
2, 183276, Note_on_c, 0, 71, 0
2, 183291, Note_on_c, 0, 66, 0
2, 183502, Note_on_c, 0, 56, 42
2, 183502, Note_on_c, 0, 71, 52
2, 183507, Note_on_c, 0, 65, 50
2, 183542, Note_on_c, 0, 54, 0
2, 183725, Note_on_c, 0, 68, 52
2, 183770, Note_on_c, 0, 68, 0
2, 183800, Note_on_c, 0, 71, 0
2, 183983, Note_on_c, 0, 49, 36
2, 183996, Note_on_c, 0, 68, 47
2, 184038, Note_on_c, 0, 56, 0
2, 184179, Note_on_c, 0, 68, 0
2, 184184, Note_on_c, 0, 71, 58
2, 184236, Note_on_c, 0, 71, 0
2, 184455, Note_on_c, 0, 70, 50
2, 184462, Note_on_c, 0, 54, 42
2, 184517, Note_on_c, 0, 49, 0
2, 184668, Note_on_c, 0, 71, 50
2, 184702, Note_on_c, 0, 70, 0
2, 184846, Note_on_c, 0, 65, 0
2, 184906, Note_on_c, 0, 54, 0
2, 184926, Note_on_c, 0, 53, 39
2, 184930, Note_on_c, 0, 73, 52
2, 184935, Note_on_c, 0, 71, 0
2, 185132, Note_on_c, 0, 73, 0
2, 185138, Note_on_c, 0, 68, 57
2, 185207, Note_on_c, 0, 53, 0
2, 185405, Note_on_c, 0, 54, 44
2, 185405, Note_on_c, 0, 70, 52
2, 185474, Note_on_c, 0, 68, 0
2, 185647, Note_on_c, 0, 58, 52
2, 185689, Note_on_c, 0, 54, 0
2, 185706, Note_on_c, 0, 58, 0
2, 185887, Note_on_c, 0, 58, 45
2, 185887, Note_on_c, 0, 73, 65
2, 185898, Note_on_c, 0, 70, 0
2, 185902, Note_on_c, 0, 66, 56
2, 186115, Note_on_c, 0, 54, 49
2, 186163, Note_on_c, 0, 66, 0
2, 186196, Note_on_c, 0, 58, 0
2, 186274, Note_on_c, 0, 54, 0
2, 186377, Note_on_c, 0, 51, 51
2, 186377, Note_on_c, 0, 71, 67
2, 186382, Note_on_c, 0, 73, 0
2, 186382, Note_on_c, 0, 75, 60
2, 186492, Note_on_c, 0, 51, 0
2, 186588, Note_on_c, 0, 54, 58
2, 186644, Note_on_c, 0, 54, 0
2, 186762, Note_on_c, 0, 75, 0
2, 186853, Note_on_c, 0, 70, 70
2, 186853, Note_on_c, 0, 76, 65
2, 186868, Note_on_c, 0, 54, 53
2, 186894, Note_on_c, 0, 71, 0
2, 187055, Note_on_c, 0, 54, 0
2, 187067, Note_on_c, 0, 51, 62
2, 187261, Note_on_c, 0, 51, 0
2, 187306, Note_on_c, 0, 70, 0
2, 187317, Note_on_c, 0, 71, 65
2, 187329, Note_on_c, 0, 47, 46
2, 187486, Note_on_c, 0, 76, 0
2, 187541, Note_on_c, 0, 75, 60
2, 187731, Note_on_c, 0, 75, 0
2, 187771, Note_on_c, 0, 71, 0
2, 187779, Note_on_c, 0, 73, 59
2, 187785, Note_on_c, 0, 70, 59
2, 187969, Note_on_c, 0, 70, 0
2, 188000, Note_on_c, 0, 73, 0
2, 188006, Note_on_c, 0, 47, 0
2, 188006, Note_on_c, 0, 68, 61
2, 188020, Note_on_c, 0, 76, 52
2, 188236, Note_on_c, 0, 68, 0
2, 188248, Note_on_c, 0, 66, 61
2, 188255, Note_on_c, 0, 75, 57
2, 188351, Note_on_c, 0, 76, 0
2, 188469, Note_on_c, 0, 71, 63
2, 188496, Note_on_c, 0, 75, 0
2, 188511, Note_on_c, 0, 71, 0
2, 188715, Note_on_c, 0, 59, 52
2, 188723, Note_on_c, 0, 71, 66
2, 188823, Note_on_c, 0, 59, 0
2, 188909, Note_on_c, 0, 66, 0
2, 188925, Note_on_c, 0, 64, 66
2, 188951, Note_on_c, 0, 75, 54
2, 188981, Note_on_c, 0, 71, 0
2, 188998, Note_on_c, 0, 75, 0
2, 189034, Note_on_c, 0, 64, 0
2, 189064, Note_on_c, 0, 66, 66
2, 189120, Note_on_c, 0, 66, 0
2, 189182, Note_on_c, 0, 68, 66
2, 189182, Note_on_c, 0, 76, 69
2, 189197, Note_on_c, 0, 59, 56
2, 189403, Note_on_c, 0, 71, 66
2, 189407, Note_on_c, 0, 76, 0
2, 189447, Note_on_c, 0, 71, 0
2, 189659, Note_on_c, 0, 71, 70
2, 189880, Note_on_c, 0, 76, 66
2, 189915, Note_on_c, 0, 71, 0
2, 189927, Note_on_c, 0, 76, 0
2, 190118, Note_on_c, 0, 78, 70
2, 190253, Note_on_c, 0, 68, 0
2, 190355, Note_on_c, 0, 71, 63
2, 190384, Note_on_c, 0, 78, 0
2, 190391, Note_on_c, 0, 71, 0
2, 190615, Note_on_c, 0, 71, 69
2, 190627, Note_on_c, 0, 66, 58
2, 190838, Note_on_c, 0, 78, 67
2, 190879, Note_on_c, 0, 71, 0
2, 190899, Note_on_c, 0, 78, 0
2, 191092, Note_on_c, 0, 80, 64
2, 191103, Note_on_c, 0, 64, 62
2, 191130, Note_on_c, 0, 66, 0
2, 191344, Note_on_c, 0, 71, 61
2, 191354, Note_on_c, 0, 80, 0
2, 191384, Note_on_c, 0, 71, 0
2, 191580, Note_on_c, 0, 63, 55
2, 191589, Note_on_c, 0, 71, 63
2, 191648, Note_on_c, 0, 64, 0
2, 191790, Note_on_c, 0, 80, 62
2, 191827, Note_on_c, 0, 71, 0
2, 191836, Note_on_c, 0, 80, 0
2, 192050, Note_on_c, 0, 63, 0
2, 192059, Note_on_c, 0, 61, 49
2, 192063, Note_on_c, 0, 82, 57
2, 192302, Note_on_c, 0, 71, 59
2, 192342, Note_on_c, 0, 82, 0
2, 192351, Note_on_c, 0, 71, 0
2, 192525, Note_on_c, 0, 61, 0
2, 192563, Note_on_c, 0, 66, 47
2, 192563, Note_on_c, 0, 71, 55
2, 192781, Note_on_c, 0, 82, 51
2, 192801, Note_on_c, 0, 71, 0
2, 192834, Note_on_c, 0, 82, 0
2, 192943, Note_on_c, 0, 59, 0
2, 192999, Note_on_c, 0, 66, 0
2, 193037, Note_on_c, 0, 83, 51
2, 193060, Note_on_c, 0, 63, 48
2, 193243, Note_on_c, 0, 83, 0
2, 193289, Note_on_c, 0, 63, 0
2, 193300, Note_on_c, 0, 58, 46
2, 193523, Note_on_c, 0, 58, 0
2, 193530, Note_on_c, 0, 56, 50
2, 193530, Note_on_c, 0, 63, 58
2, 193743, Note_on_c, 0, 56, 0
2, 193757, Note_on_c, 0, 54, 53
2, 193972, Note_on_c, 0, 54, 0
2, 194013, Note_on_c, 0, 52, 51
2, 194028, Note_on_c, 0, 68, 63
2, 194040, Note_on_c, 0, 63, 0
2, 194234, Note_on_c, 0, 61, 52
2, 194278, Note_on_c, 0, 52, 0
2, 194283, Note_on_c, 0, 61, 0
2, 194480, Note_on_c, 0, 61, 48
2, 194494, Note_on_c, 0, 67, 59
2, 194558, Note_on_c, 0, 68, 0
2, 194709, Note_on_c, 0, 52, 52
2, 194725, Note_on_c, 0, 61, 0
2, 194789, Note_on_c, 0, 52, 0
2, 194969, Note_on_c, 0, 67, 0
2, 194980, Note_on_c, 0, 51, 49
2, 194984, Note_on_c, 0, 68, 58
2, 195221, Note_on_c, 0, 59, 52
2, 195262, Note_on_c, 0, 51, 0
2, 195274, Note_on_c, 0, 59, 0
2, 195471, Note_on_c, 0, 75, 60
2, 195482, Note_on_c, 0, 59, 54
2, 195684, Note_on_c, 0, 59, 0
2, 195702, Note_on_c, 0, 51, 57
2, 195775, Note_on_c, 0, 51, 0
2, 195949, Note_on_c, 0, 80, 65
2, 195958, Note_on_c, 0, 49, 47
2, 195978, Note_on_c, 0, 68, 0
2, 196186, Note_on_c, 0, 58, 51
2, 196231, Note_on_c, 0, 49, 0
2, 196250, Note_on_c, 0, 58, 0
2, 196355, Note_on_c, 0, 75, 0
2, 196413, Note_on_c, 0, 79, 71
2, 196432, Note_on_c, 0, 70, 56
2, 196450, Note_on_c, 0, 58, 47
2, 196480, Note_on_c, 0, 80, 0
2, 196639, Note_on_c, 0, 58, 0
2, 196653, Note_on_c, 0, 49, 49
2, 196831, Note_on_c, 0, 79, 0
2, 196863, Note_on_c, 0, 70, 0
2, 196927, Note_on_c, 0, 80, 67
2, 196931, Note_on_c, 0, 49, 0
2, 196942, Note_on_c, 0, 47, 46
2, 196942, Note_on_c, 0, 71, 63
2, 197062, Control_c, 0, 64, 25
2, 197082, Control_c, 0, 64, 52
2, 197099, Control_c, 0, 64, 61
2, 197119, Control_c, 0, 64, 63
2, 197138, Control_c, 0, 64, 65
2, 197158, Control_c, 0, 64, 69
2, 197168, Note_on_c, 0, 49, 53
2, 197179, Control_c, 0, 64, 78
2, 197192, Note_on_c, 0, 47, 0
2, 197196, Control_c, 0, 64, 86
2, 197214, Note_on_c, 0, 71, 0
2, 197215, Control_c, 0, 64, 88
2, 197236, Control_c, 0, 64, 90
2, 197254, Control_c, 0, 64, 92
2, 197292, Control_c, 0, 64, 91
2, 197314, Control_c, 0, 64, 89
2, 197332, Control_c, 0, 64, 86
2, 197351, Control_c, 0, 64, 81
2, 197370, Control_c, 0, 64, 74
2, 197389, Control_c, 0, 64, 65
2, 197408, Control_c, 0, 64, 59
2, 197413, Note_on_c, 0, 49, 0
2, 197413, Note_on_c, 0, 82, 75
2, 197426, Note_on_c, 0, 47, 53
2, 197430, Control_c, 0, 64, 51
2, 197435, Note_on_c, 0, 73, 63
2, 197446, Control_c, 0, 64, 41
2, 197467, Control_c, 0, 64, 22
2, 197485, Control_c, 0, 64, 0
2, 197506, Note_on_c, 0, 80, 0
2, 197560, Control_c, 0, 64, 29
2, 197581, Control_c, 0, 64, 50
2, 197601, Control_c, 0, 64, 61
2, 197621, Control_c, 0, 64, 65
2, 197645, Control_c, 0, 64, 67
2, 197645, Note_on_c, 0, 46, 62
2, 197659, Note_on_c, 0, 47, 0
2, 197663, Control_c, 0, 64, 71
2, 197680, Control_c, 0, 64, 79
2, 197699, Control_c, 0, 64, 87
2, 197707, Note_on_c, 0, 73, 0
2, 197718, Control_c, 0, 64, 93
2, 197738, Control_c, 0, 64, 96
2, 197757, Control_c, 0, 64, 97
2, 197796, Control_c, 0, 64, 96
2, 197815, Control_c, 0, 64, 94
2, 197832, Control_c, 0, 64, 90
2, 197853, Control_c, 0, 64, 82
2, 197873, Control_c, 0, 64, 73
2, 197881, Note_on_c, 0, 82, 0
2, 197895, Control_c, 0, 64, 65
2, 197895, Note_on_c, 0, 46, 0
2, 197899, Note_on_c, 0, 83, 73
2, 197910, Control_c, 0, 64, 58
2, 197914, Note_on_c, 0, 44, 60
2, 197929, Control_c, 0, 64, 46
2, 197933, Note_on_c, 0, 75, 58
2, 197949, Control_c, 0, 64, 25
2, 197969, Control_c, 0, 64, 0
2, 198006, Control_c, 0, 64, 13
2, 198025, Control_c, 0, 64, 40
2, 198044, Control_c, 0, 64, 57
2, 198063, Control_c, 0, 64, 64
2, 198082, Control_c, 0, 64, 68
2, 198096, Note_on_c, 0, 75, 0
2, 198103, Control_c, 0, 64, 72
2, 198123, Control_c, 0, 64, 78
2, 198129, Note_on_c, 0, 46, 66
2, 198140, Control_c, 0, 64, 86
2, 198160, Control_c, 0, 64, 93
2, 198179, Control_c, 0, 64, 95
2, 198233, Note_on_c, 0, 44, 0
2, 198274, Control_c, 0, 64, 94
2, 198293, Control_c, 0, 64, 91
2, 198297, Note_on_c, 0, 83, 0
2, 198315, Control_c, 0, 64, 85
2, 198334, Control_c, 0, 64, 75
2, 198351, Control_c, 0, 64, 65
2, 198366, Note_on_c, 0, 46, 0
2, 198366, Note_on_c, 0, 80, 79
2, 198371, Control_c, 0, 64, 53
2, 198374, Note_on_c, 0, 47, 56
2, 198387, Note_on_c, 0, 71, 65
2, 198392, Control_c, 0, 64, 36
2, 198410, Control_c, 0, 64, 16
2, 198428, Control_c, 0, 64, 11
2, 198448, Control_c, 0, 64, 26
2, 198467, Control_c, 0, 64, 47
2, 198485, Control_c, 0, 64, 61
2, 198505, Control_c, 0, 64, 67
2, 198524, Control_c, 0, 64, 73
2, 198537, Note_on_c, 0, 71, 0
2, 198543, Control_c, 0, 64, 78
2, 198554, Note_on_c, 0, 47, 0
2, 198564, Control_c, 0, 64, 82
2, 198568, Note_on_c, 0, 80, 0
2, 198584, Control_c, 0, 64, 85
2, 198598, Note_on_c, 0, 44, 58
2, 198603, Control_c, 0, 64, 86
2, 198716, Control_c, 0, 64, 85
2, 198736, Control_c, 0, 64, 83
2, 198759, Control_c, 0, 64, 81
2, 198773, Control_c, 0, 64, 77
2, 198793, Control_c, 0, 64, 73
2, 198813, Control_c, 0, 64, 67
2, 198832, Control_c, 0, 64, 63
2, 198851, Control_c, 0, 64, 58
2, 198851, Note_on_c, 0, 77, 69
2, 198856, Note_on_c, 0, 49, 50
2, 198869, Control_c, 0, 64, 53
2, 198881, Note_on_c, 0, 68, 51
2, 198890, Control_c, 0, 64, 46
2, 198908, Control_c, 0, 64, 32
2, 198927, Control_c, 0, 64, 0
2, 198941, Note_on_c, 0, 44, 0
2, 199061, Note_on_c, 0, 49, 0
2, 199078, Note_on_c, 0, 51, 53
2, 199321, Note_on_c, 0, 73, 68
2, 199334, Note_on_c, 0, 49, 48
2, 199345, Note_on_c, 0, 51, 0
2, 199412, Note_on_c, 0, 77, 0
2, 199539, Note_on_c, 0, 49, 0
2, 199559, Note_on_c, 0, 47, 50
2, 199799, Note_on_c, 0, 47, 0
2, 199820, Note_on_c, 0, 78, 78
2, 199825, Note_on_c, 0, 46, 49
2, 199984, Control_c, 0, 64, 13
2, 200005, Control_c, 0, 64, 9
2, 200022, Control_c, 0, 64, 8
2, 200027, Note_on_c, 0, 73, 0
2, 200030, Note_on_c, 0, 68, 0
2, 200035, Note_on_c, 0, 47, 58
2, 200046, Note_on_c, 0, 46, 0
2, 200061, Control_c, 0, 64, 11
2, 200098, Control_c, 0, 64, 10
2, 200138, Control_c, 0, 64, 11
2, 200254, Control_c, 0, 64, 10
2, 200271, Control_c, 0, 64, 9
2, 200291, Control_c, 0, 64, 0
2, 200295, Note_on_c, 0, 77, 80
2, 200302, Note_on_c, 0, 47, 0
2, 200312, Note_on_c, 0, 49, 52
2, 200329, Note_on_c, 0, 73, 56
2, 200438, Note_on_c, 0, 78, 0
2, 200451, Note_on_c, 0, 49, 0
2, 200518, Note_on_c, 0, 46, 52
2, 200763, Note_on_c, 0, 51, 62
2, 200767, Note_on_c, 0, 78, 76
2, 200784, Note_on_c, 0, 70, 50
2, 200789, Note_on_c, 0, 77, 0
2, 200822, Note_on_c, 0, 73, 0
2, 200946, Note_on_c, 0, 46, 0
2, 201001, Note_on_c, 0, 51, 0
2, 201001, Note_on_c, 0, 53, 61
2, 201058, Control_c, 0, 64, 8
2, 201250, Note_on_c, 0, 53, 0
2, 201256, Note_on_c, 0, 54, 60
2, 201261, Note_on_c, 0, 77, 77
2, 201304, Note_on_c, 0, 78, 0
2, 201387, Control_c, 0, 64, 9
2, 201500, Note_on_c, 0, 75, 71
2, 201506, Note_on_c, 0, 77, 0
2, 201535, Note_on_c, 0, 70, 0
2, 201539, Control_c, 0, 64, 10
2, 201730, Note_on_c, 0, 73, 75
2, 201732, Note_on_c, 0, 75, 0
2, 201751, Control_c, 0, 64, 11
2, 201768, Control_c, 0, 64, 12
2, 201789, Control_c, 0, 64, 13
2, 201942, Control_c, 0, 64, 14
2, 201957, Note_on_c, 0, 73, 0
2, 201963, Control_c, 0, 64, 15
2, 201963, Note_on_c, 0, 75, 66
2, 201972, Note_on_c, 0, 54, 0
2, 201981, Note_on_c, 0, 53, 55
2, 202038, Control_c, 0, 64, 16
2, 202076, Note_on_c, 0, 75, 0
2, 202085, Note_on_c, 0, 73, 72
2, 202135, Control_c, 0, 64, 17
2, 202165, Note_on_c, 0, 73, 0
2, 202168, Note_on_c, 0, 53, 0
2, 202185, Note_on_c, 0, 51, 56
2, 202195, Note_on_c, 0, 70, 55
2, 202204, Note_on_c, 0, 75, 70
2, 202241, Note_on_c, 0, 70, 0
2, 202296, Note_on_c, 0, 73, 73
2, 202358, Note_on_c, 0, 75, 0
2, 202397, Note_on_c, 0, 71, 71
2, 202397, Note_on_c, 0, 73, 0
2, 202406, Note_on_c, 0, 51, 0
2, 202425, Note_on_c, 0, 49, 53
2, 202498, Note_on_c, 0, 71, 0
2, 202502, Note_on_c, 0, 73, 71
2, 202555, Control_c, 0, 64, 16
2, 202624, Note_on_c, 0, 49, 0
2, 202644, Note_on_c, 0, 73, 0
2, 202644, Note_on_c, 0, 75, 72
2, 202655, Note_on_c, 0, 47, 50
2, 202663, Note_on_c, 0, 68, 53
2, 202859, Note_on_c, 0, 68, 0
2, 202873, Note_on_c, 0, 47, 0
2, 202881, Note_on_c, 0, 65, 59
2, 202892, Note_on_c, 0, 49, 55
2, 203099, Note_on_c, 0, 49, 0
2, 203124, Note_on_c, 0, 66, 64
2, 203130, Note_on_c, 0, 51, 55
2, 203134, Control_c, 0, 64, 15
2, 203136, Note_on_c, 0, 65, 0
2, 203227, Control_c, 0, 64, 14
2, 203288, Control_c, 0, 64, 13
2, 203303, Control_c, 0, 64, 10
2, 203318, Note_on_c, 0, 51, 0
2, 203325, Control_c, 0, 64, 0
2, 203352, Note_on_c, 0, 66, 0
2, 203352, Note_on_c, 0, 70, 64
2, 203357, Note_on_c, 0, 46, 48
2, 203587, Note_on_c, 0, 47, 53
2, 203594, Control_c, 0, 64, 18
2, 203594, Note_on_c, 0, 68, 67
2, 203601, Note_on_c, 0, 46, 0
2, 203615, Control_c, 0, 64, 26
2, 203632, Control_c, 0, 64, 35
2, 203634, Note_on_c, 0, 75, 0
2, 203653, Control_c, 0, 64, 42
2, 203670, Control_c, 0, 64, 49
2, 203689, Control_c, 0, 64, 53
2, 203709, Control_c, 0, 64, 56
2, 203728, Control_c, 0, 64, 58
2, 203746, Control_c, 0, 64, 59
2, 203787, Control_c, 0, 64, 60
2, 203798, Note_on_c, 0, 47, 0
2, 203804, Note_on_c, 0, 49, 55
2, 203813, Note_on_c, 0, 65, 56
2, 203823, Control_c, 0, 64, 61
2, 203859, Note_on_c, 0, 70, 0
2, 203869, Note_on_c, 0, 65, 0
2, 203874, Note_on_c, 0, 68, 0
2, 203938, Control_c, 0, 64, 60
2, 203976, Control_c, 0, 64, 58
2, 203996, Control_c, 0, 64, 57
2, 204013, Note_on_c, 0, 49, 0
2, 204017, Control_c, 0, 64, 52
2, 204035, Control_c, 0, 64, 45
2, 204054, Control_c, 0, 64, 30
2, 204054, Note_on_c, 0, 73, 80
2, 204074, Control_c, 0, 64, 0
2, 204074, Note_on_c, 0, 51, 51
2, 204088, Note_on_c, 0, 66, 47
2, 204151, Control_c, 0, 64, 24
2, 204168, Control_c, 0, 64, 44
2, 204189, Control_c, 0, 64, 55
2, 204209, Control_c, 0, 64, 60
2, 204226, Control_c, 0, 64, 61
2, 204279, Note_on_c, 0, 47, 47
2, 204290, Control_c, 0, 64, 62
2, 204290, Note_on_c, 0, 51, 0
2, 204310, Note_on_c, 0, 73, 0
2, 204325, Control_c, 0, 64, 63
2, 204438, Control_c, 0, 64, 62
2, 204455, Control_c, 0, 64, 61
2, 204475, Control_c, 0, 64, 60
2, 204495, Control_c, 0, 64, 57
2, 204500, Note_on_c, 0, 47, 0
2, 204515, Control_c, 0, 64, 51
2, 204534, Control_c, 0, 64, 43
2, 204543, Note_on_c, 0, 44, 50
2, 204543, Note_on_c, 0, 71, 78
2, 204554, Control_c, 0, 64, 32
2, 204574, Control_c, 0, 64, 29
2, 204592, Control_c, 0, 64, 31
2, 204609, Control_c, 0, 64, 42
2, 204627, Control_c, 0, 64, 55
2, 204647, Control_c, 0, 64, 60
2, 204665, Control_c, 0, 64, 61
2, 204687, Control_c, 0, 64, 62
2, 204724, Control_c, 0, 64, 63
2, 204740, Note_on_c, 0, 66, 0
2, 204763, Control_c, 0, 64, 64
2, 204775, Note_on_c, 0, 65, 52
2, 204819, Control_c, 0, 64, 65
2, 204914, Control_c, 0, 64, 64
2, 204955, Control_c, 0, 64, 63
2, 204955, Note_on_c, 0, 65, 0
2, 204973, Control_c, 0, 64, 62
2, 204993, Control_c, 0, 64, 59
2, 205010, Control_c, 0, 64, 55
2, 205014, Note_on_c, 0, 70, 68
2, 205034, Control_c, 0, 64, 48
2, 205034, Note_on_c, 0, 46, 49
2, 205048, Control_c, 0, 64, 37
2, 205060, Note_on_c, 0, 66, 46
2, 205063, Note_on_c, 0, 71, 0
2, 205068, Control_c, 0, 64, 22
2, 205092, Control_c, 0, 64, 15
2, 205107, Control_c, 0, 64, 21
2, 205122, Note_on_c, 0, 66, 0
2, 205127, Control_c, 0, 64, 37
2, 205145, Control_c, 0, 64, 53
2, 205166, Control_c, 0, 64, 61
2, 205171, Note_on_c, 0, 44, 0
2, 205183, Control_c, 0, 64, 63
2, 205195, Note_on_c, 0, 46, 0
2, 205243, Control_c, 0, 64, 64
2, 205247, Note_on_c, 0, 47, 46
2, 205261, Control_c, 0, 64, 65
2, 205299, Control_c, 0, 64, 66
2, 205320, Control_c, 0, 64, 65
2, 205375, Control_c, 0, 64, 64
2, 205412, Control_c, 0, 64, 63
2, 205433, Control_c, 0, 64, 62
2, 205452, Control_c, 0, 64, 60
2, 205471, Control_c, 0, 64, 58
2, 205489, Control_c, 0, 64, 56
2, 205509, Note_on_c, 0, 47, 0
2, 205514, Control_c, 0, 64, 51
2, 205528, Control_c, 0, 64, 41
2, 205537, Note_on_c, 0, 68, 58
2, 205548, Control_c, 0, 64, 18
2, 205572, Control_c, 0, 64, 0
2, 205572, Note_on_c, 0, 49, 35
2, 205572, Note_on_c, 0, 70, 0
2, 205666, Control_c, 0, 64, 28
2, 205681, Control_c, 0, 64, 48
2, 205702, Control_c, 0, 64, 60
2, 205721, Control_c, 0, 64, 64
2, 205741, Control_c, 0, 64, 65
2, 205759, Control_c, 0, 64, 66
2, 205781, Control_c, 0, 64, 67
2, 205799, Control_c, 0, 64, 68
2, 205817, Control_c, 0, 64, 70
2, 205836, Control_c, 0, 64, 69
2, 205912, Control_c, 0, 64, 68
2, 205956, Control_c, 0, 64, 67
2, 205971, Control_c, 0, 64, 64
2, 205991, Control_c, 0, 64, 61
2, 205991, Note_on_c, 0, 49, 0
2, 206010, Control_c, 0, 64, 56
2, 206028, Control_c, 0, 64, 47
2, 206046, Control_c, 0, 64, 22
2, 206053, Note_on_c, 0, 73, 61
2, 206057, Note_on_c, 0, 68, 0
2, 206069, Control_c, 0, 64, 0
2, 206069, Note_on_c, 0, 37, 35
2, 206074, Note_on_c, 0, 65, 40
2, 206124, Control_c, 0, 64, 11
2, 206144, Control_c, 0, 64, 43
2, 206163, Control_c, 0, 64, 59
2, 206183, Control_c, 0, 64, 65
2, 206185, Note_on_c, 0, 65, 0
2, 206202, Control_c, 0, 64, 67
2, 206220, Control_c, 0, 64, 69
2, 206240, Control_c, 0, 64, 70
2, 206258, Control_c, 0, 64, 72
2, 206276, Control_c, 0, 64, 73
2, 206375, Control_c, 0, 64, 72
2, 206394, Control_c, 0, 64, 71
2, 206411, Control_c, 0, 64, 70
2, 206420, Note_on_c, 0, 37, 0
2, 206433, Control_c, 0, 64, 69
2, 206452, Control_c, 0, 64, 67
2, 206471, Control_c, 0, 64, 62
2, 206489, Control_c, 0, 64, 53
2, 206509, Control_c, 0, 64, 46
2, 206528, Control_c, 0, 64, 44
2, 206539, Note_on_c, 0, 73, 0
2, 206546, Control_c, 0, 64, 48
2, 206561, Note_on_c, 0, 70, 58
2, 206566, Control_c, 0, 64, 55
2, 206585, Control_c, 0, 64, 61
2, 206589, Note_on_c, 0, 66, 51
2, 206594, Note_on_c, 0, 42, 37
2, 206605, Control_c, 0, 64, 63
2, 206626, Control_c, 0, 64, 64
2, 206642, Control_c, 0, 64, 65
2, 206718, Control_c, 0, 64, 64
2, 206738, Control_c, 0, 64, 62
2, 206760, Control_c, 0, 64, 58
2, 206778, Control_c, 0, 64, 52
2, 206796, Control_c, 0, 64, 42
2, 206807, Note_on_c, 0, 73, 64
2, 206816, Control_c, 0, 64, 13
2, 206840, Control_c, 0, 64, 0
2, 206840, Note_on_c, 0, 70, 0
2, 206856, Note_on_c, 0, 73, 0
2, 206867, Note_on_c, 0, 42, 0
2, 207071, Note_on_c, 0, 73, 70
2, 207076, Note_on_c, 0, 54, 46
2, 207296, Note_on_c, 0, 70, 61
2, 207318, Note_on_c, 0, 66, 0
2, 207332, Note_on_c, 0, 73, 0
2, 207348, Note_on_c, 0, 70, 0
2, 207366, Note_on_c, 0, 54, 0
2, 207544, Note_on_c, 0, 68, 66
2, 207551, Note_on_c, 0, 53, 43
2, 207774, Note_on_c, 0, 73, 60
2, 207779, Note_on_c, 0, 68, 0
2, 207798, Note_on_c, 0, 53, 0
2, 207827, Note_on_c, 0, 73, 0
2, 208021, Note_on_c, 0, 73, 71
2, 208036, Note_on_c, 0, 49, 45
2, 208043, Note_on_c, 0, 65, 42
2, 208239, Note_on_c, 0, 65, 0
2, 208244, Note_on_c, 0, 68, 58
2, 208264, Note_on_c, 0, 73, 0
2, 208290, Note_on_c, 0, 49, 0
2, 208294, Note_on_c, 0, 68, 0
2, 208501, Note_on_c, 0, 70, 60
2, 208518, Note_on_c, 0, 66, 51
2, 208521, Note_on_c, 0, 54, 48
2, 208741, Note_on_c, 0, 58, 54
2, 208752, Note_on_c, 0, 54, 0
2, 208794, Note_on_c, 0, 58, 0
2, 208994, Note_on_c, 0, 58, 49
2, 208994, Note_on_c, 0, 73, 82
2, 209073, Note_on_c, 0, 70, 0
2, 209195, Note_on_c, 0, 58, 0
2, 209220, Note_on_c, 0, 54, 54
2, 209280, Note_on_c, 0, 54, 0
2, 209472, Note_on_c, 0, 78, 83
2, 209492, Note_on_c, 0, 51, 45
2, 209646, Note_on_c, 0, 66, 0
2, 209670, Note_on_c, 0, 73, 0
2, 209705, Note_on_c, 0, 51, 0
2, 209726, Note_on_c, 0, 54, 50
2, 209771, Note_on_c, 0, 54, 0
2, 209962, Note_on_c, 0, 54, 39
2, 209968, Note_on_c, 0, 70, 59
2, 210182, Note_on_c, 0, 70, 0
2, 210189, Note_on_c, 0, 51, 49
2, 210219, Note_on_c, 0, 54, 0
2, 210265, Note_on_c, 0, 51, 0
2, 210451, Note_on_c, 0, 47, 37
2, 210453, Note_on_c, 0, 68, 64
2, 210680, Note_on_c, 0, 75, 57
2, 210691, Note_on_c, 0, 68, 0
2, 210699, Note_on_c, 0, 47, 0
2, 210731, Note_on_c, 0, 75, 0
2, 210972, Note_on_c, 0, 44, 42
2, 210976, Note_on_c, 0, 75, 54
2, 211227, Note_on_c, 0, 71, 53
2, 211262, Note_on_c, 0, 44, 0
2, 211271, Note_on_c, 0, 78, 0
2, 211300, Note_on_c, 0, 75, 0
2, 211325, Note_on_c, 0, 71, 0
2, 211492, Note_on_c, 0, 77, 67
2, 211515, Note_on_c, 0, 68, 38
2, 211526, Note_on_c, 0, 49, 37
2, 211714, Note_on_c, 0, 68, 0
2, 211770, Note_on_c, 0, 73, 52
2, 211827, Note_on_c, 0, 73, 0
2, 211844, Note_on_c, 0, 49, 0
2, 212133, Note_on_c, 0, 73, 44
2, 212141, Note_on_c, 0, 37, 17
2, 212374, Note_on_c, 0, 37, 0
2, 212513, Note_on_c, 0, 73, 0
2, 212524, Note_on_c, 0, 71, 51
2, 212690, Control_c, 0, 64, 36
2, 212710, Control_c, 0, 64, 49
2, 212732, Control_c, 0, 64, 58
2, 212748, Control_c, 0, 64, 62
2, 212769, Control_c, 0, 64, 64
2, 212786, Control_c, 0, 64, 66
2, 212808, Control_c, 0, 64, 70
2, 212827, Control_c, 0, 64, 76
2, 212844, Control_c, 0, 64, 86
2, 212852, Note_on_c, 0, 71, 0
2, 212862, Control_c, 0, 64, 108
2, 212882, Control_c, 0, 64, 127
2, 213069, Note_on_c, 0, 77, 0
2, 213383, Note_on_c, 0, 78, 47
2, 213406, Note_on_c, 0, 42, 40
2, 213406, Note_on_c, 0, 70, 40
2, 213420, Control_c, 0, 64, 118
2, 213440, Control_c, 0, 64, 93
2, 213460, Control_c, 0, 64, 77
2, 213480, Control_c, 0, 64, 65
2, 213496, Control_c, 0, 64, 53
2, 213513, Control_c, 0, 64, 39
2, 213533, Control_c, 0, 64, 18
2, 213552, Control_c, 0, 64, 0
2, 213852, Control_c, 0, 64, 9
2, 213871, Control_c, 0, 64, 35
2, 213889, Control_c, 0, 64, 48
2, 213909, Control_c, 0, 64, 54
2, 213927, Control_c, 0, 64, 58
2, 213949, Control_c, 0, 64, 59
2, 213965, Control_c, 0, 64, 60
2, 213984, Control_c, 0, 64, 62
2, 214006, Control_c, 0, 64, 63
2, 214026, Control_c, 0, 64, 64
2, 214042, Control_c, 0, 64, 65
2, 214065, Control_c, 0, 64, 66
2, 214080, Control_c, 0, 64, 69
2, 214102, Control_c, 0, 64, 72
2, 214119, Control_c, 0, 64, 76
2, 214138, Control_c, 0, 64, 81
2, 214157, Control_c, 0, 64, 85
2, 214178, Control_c, 0, 64, 89
2, 214198, Control_c, 0, 64, 93
2, 214216, Control_c, 0, 64, 95
2, 214750, Control_c, 0, 64, 94
2, 216594, Control_c, 0, 64, 93
2, 216826, Note_on_c, 0, 70, 0
2, 217093, Control_c, 0, 64, 92
2, 217175, Note_on_c, 0, 78, 0
2, 217306, Control_c, 0, 64, 91
2, 217419, Control_c, 0, 64, 90
2, 217517, Control_c, 0, 64, 89
2, 217610, Control_c, 0, 64, 88
2, 217708, Control_c, 0, 64, 87
2, 217842, Control_c, 0, 64, 86
2, 217898, Control_c, 0, 64, 85
2, 218014, Control_c, 0, 64, 84
2, 218070, Control_c, 0, 64, 83
2, 218131, Control_c, 0, 64, 82
2, 218170, Control_c, 0, 64, 81
2, 218225, Control_c, 0, 64, 80
2, 218242, Note_on_c, 0, 42, 0
2, 218247, Control_c, 0, 64, 79
2, 218282, Control_c, 0, 64, 78
2, 218341, Control_c, 0, 64, 77
2, 218397, Control_c, 0, 64, 76
2, 218417, Control_c, 0, 64, 75
2, 218436, Control_c, 0, 64, 74
2, 218458, Control_c, 0, 64, 73
2, 218493, Control_c, 0, 64, 71
2, 218514, Control_c, 0, 64, 70
2, 218532, Control_c, 0, 64, 69
2, 218553, Control_c, 0, 64, 68
2, 218571, Control_c, 0, 64, 67
2, 218591, Control_c, 0, 64, 66
2, 218612, Control_c, 0, 64, 65
2, 218627, Control_c, 0, 64, 64
2, 218705, Control_c, 0, 64, 63
2, 218745, Control_c, 0, 64, 62
2, 218781, Control_c, 0, 64, 61
2, 218823, Control_c, 0, 64, 60
2, 218838, Control_c, 0, 64, 59
2, 218861, Control_c, 0, 64, 58
2, 218877, Control_c, 0, 64, 57
2, 218897, Control_c, 0, 64, 55
2, 218915, Control_c, 0, 64, 53
2, 218937, Control_c, 0, 64, 50
2, 218955, Control_c, 0, 64, 45
2, 218973, Control_c, 0, 64, 35
2, 218995, Control_c, 0, 64, 22
2, 219014, Control_c, 0, 64, 0
2, 219015, End_track
0, 0, End_of_file
