0, 0, Header, 1, 2, 480
1, 0, Start_track
1, 0, Tempo, 500000
1, 0, Time_signature, 4, 2, 24, 8
1, 1, End_track
2,0,Start_track
2,0, Note_on_c, 0, 73, 43
2,516, Note_on_c, 0, 78, 51
2,543, Note_on_c, 0, 73, 0
2,1056, Note_on_c, 0, 77, 56
2,1076, Note_on_c, 0, 78, 0
2,1597, Note_on_c, 0, 78, 55
2,1620, Note_on_c, 0, 77, 0
2,2110, Note_on_c, 0, 77, 56
2,2201, Note_on_c, 0, 78, 0
2,2357, Note_on_c, 0, 77, 0
2,2366, Note_on_c, 0, 75, 55
2,2609, Note_on_c, 0, 73, 58
2,2609, Note_on_c, 0, 75, 0
2,2842, Note_on_c, 0, 73, 0
2,2865, Note_on_c, 0, 75, 58
2,2978, Note_on_c, 0, 75, 0
2,2996, Note_on_c, 0, 73, 61
2,3079, Note_on_c, 0, 73, 0
2,3114, Note_on_c, 0, 75, 54
2,3228, Note_on_c, 0, 75, 0
2,3234, Note_on_c, 0, 73, 63
2,3318, Note_on_c, 0, 73, 0
2,3350, Note_on_c, 0, 71, 55
2,3435, Note_on_c, 0, 71, 0
2,3465, Note_on_c, 0, 73, 57
2,3616, Note_on_c, 0, 73, 0
2,3645, Note_on_c, 0, 75, 55
2,4701, Note_on_c, 0, 75, 0
2,5216, Note_on_c, 0, 73, 61
2,5752, Note_on_c, 0, 71, 63
2,5791, Note_on_c, 0, 73, 0
2,6303, Note_on_c, 0, 70, 63
2,6329, Note_on_c, 0, 71, 0
2,6845, Note_on_c, 0, 68, 59
2,6897, Note_on_c, 0, 70, 0
2,7404, Note_on_c, 0, 73, 50
2,7430, Note_on_c, 0, 68, 0
2,7960, Note_on_c, 0, 70, 41
2,8054, Note_on_c, 0, 73, 0
2,8451, Note_on_c, 0, 70, 0
2,8482, Note_on_c, 0, 66, 53
2,8718, Note_on_c, 0, 78, 48
2,8963, Note_on_c, 0, 73, 58
2,8978, Note_on_c, 0, 77, 54
2,8990, Note_on_c, 0, 66, 0
2,8994, Note_on_c, 0, 78, 0
2,9201, Note_on_c, 0, 78, 58
2,9205, Note_on_c, 0, 77, 0
2,9458, Note_on_c, 0, 78, 0
2,9460, Note_on_c, 0, 80, 46
2,9461, Note_on_c, 0, 72, 60
2,9498, Note_on_c, 0, 73, 0
2,9698, Note_on_c, 0, 75, 50
2,9786, Note_on_c, 0, 80, 0
2,9940, Note_on_c, 0, 75, 0
2,9953, Note_on_c, 0, 73, 54
2,9957, Note_on_c, 0, 77, 56
2,9975, Note_on_c, 0, 72, 0
2,10176, Note_on_c, 0, 77, 0
2,10190, Note_on_c, 0, 78, 58
2,10438, Note_on_c, 0, 72, 54
2,10460, Note_on_c, 0, 73, 0
2,10460, Note_on_c, 0, 80, 47
2,10469, Note_on_c, 0, 78, 0
2,10677, Note_on_c, 0, 70, 58
2,10677, Note_on_c, 0, 72, 0
2,10914, Note_on_c, 0, 68, 60
2,10944, Note_on_c, 0, 70, 0
2,11152, Note_on_c, 0, 68, 0
2,11171, Note_on_c, 0, 70, 49
2,11176, Note_on_c, 0, 78, 55
2,11283, Note_on_c, 0, 70, 0
2,11303, Note_on_c, 0, 68, 65
2,11366, Note_on_c, 0, 68, 0
2,11388, Note_on_c, 0, 78, 0
2,11410, Note_on_c, 0, 77, 58
2,11427, Note_on_c, 0, 70, 58
2,11480, Note_on_c, 0, 70, 0
2,11513, Note_on_c, 0, 68, 62
2,11533, Note_on_c, 0, 80, 0
2,11581, Note_on_c, 0, 68, 0
2,11620, Note_on_c, 0, 77, 0
2,11638, Note_on_c, 0, 66, 54
2,11647, Note_on_c, 0, 75, 56
2,11758, Note_on_c, 0, 68, 48
2,11775, Note_on_c, 0, 66, 0
2,11848, Note_on_c, 0, 68, 0
2,11871, Note_on_c, 0, 75, 0
2,11886, Note_on_c, 0, 70, 50
2,11886, Note_on_c, 0, 73, 59
2,12145, Note_on_c, 0, 75, 56
2,12151, Note_on_c, 0, 73, 0
2,12366, Note_on_c, 0, 75, 0
2,12380, Note_on_c, 0, 77, 61
2,12597, Note_on_c, 0, 77, 0
2,12604, Note_on_c, 0, 72, 61
2,12715, Note_on_c, 0, 70, 0
2,12856, Note_on_c, 0, 72, 0
2,12859, Note_on_c, 0, 73, 61
2,13081, Note_on_c, 0, 73, 0
2,13093, Note_on_c, 0, 75, 61
2,13307, Note_on_c, 0, 68, 67
2,13311, Note_on_c, 0, 75, 0
2,13335, Note_on_c, 0, 77, 53
2,13557, Note_on_c, 0, 73, 62
2,13637, Note_on_c, 0, 77, 0
2,13812, Note_on_c, 0, 73, 0
2,13837, Note_on_c, 0, 70, 59
2,13840, Note_on_c, 0, 66, 58
2,13870, Note_on_c, 0, 68, 0
2,14059, Note_on_c, 0, 70, 0
2,14070, Note_on_c, 0, 72, 63
2,14340, Note_on_c, 0, 72, 0
2,14349, Note_on_c, 0, 66, 0
2,14353, Note_on_c, 0, 73, 54
2,14357, Note_on_c, 0, 65, 50
2,14853, Note_on_c, 0, 65, 0
2,14876, Note_on_c, 0, 63, 49
2,15412, Note_on_c, 0, 72, 51
2,15420, Note_on_c, 0, 68, 50
2,15426, Note_on_c, 0, 73, 0
2,15489, Note_on_c, 0, 63, 0
2,15940, Note_on_c, 0, 72, 0
2,15961, Note_on_c, 0, 65, 38
2,15988, Note_on_c, 0, 68, 0
2,15993, Note_on_c, 0, 73, 36
2,16033, Control_c, 0, 64, 31
2,16053, Control_c, 0, 64, 49
2,16072, Control_c, 0, 64, 59
2,16090, Control_c, 0, 64, 62
2,16132, Control_c, 0, 64, 63
2,16132, Note_on_c, 0, 65, 0
2,16147, Control_c, 0, 64, 64
2,16167, Control_c, 0, 64, 65
2,16188, Control_c, 0, 64, 67
2,16206, Control_c, 0, 64, 69
2,16223, Control_c, 0, 64, 70
2,16244, Control_c, 0, 64, 71
2,16300, Control_c, 0, 64, 70
2,16341, Control_c, 0, 64, 69
2,16379, Control_c, 0, 64, 68
2,16399, Control_c, 0, 64, 67
2,16418, Control_c, 0, 64, 66
2,16437, Control_c, 0, 64, 65
2,16441, Note_on_c, 0, 49, 57
2,16457, Control_c, 0, 64, 63
2,16462, Note_on_c, 0, 61, 47
2,16478, Control_c, 0, 64, 62
2,16513, Control_c, 0, 64, 61
2,16531, Control_c, 0, 64, 58
2,16551, Control_c, 0, 64, 56
2,16571, Control_c, 0, 64, 53
2,16589, Control_c, 0, 64, 50
2,16608, Control_c, 0, 64, 44
2,16629, Control_c, 0, 64, 28
2,16647, Control_c, 0, 64, 0
2,16690, Note_on_c, 0, 71, 56
2,16739, Note_on_c, 0, 61, 0
2,16938, Note_on_c, 0, 54, 62
2,16945, Note_on_c, 0, 71, 0
2,16961, Note_on_c, 0, 70, 56
2,17004, Note_on_c, 0, 49, 0
2,17178, Note_on_c, 0, 71, 60
2,17200, Note_on_c, 0, 70, 0
2,17200, Note_on_c, 0, 73, 0
2,17444, Note_on_c, 0, 53, 67
2,17456, Note_on_c, 0, 73, 61
2,17474, Note_on_c, 0, 54, 0
2,17496, Note_on_c, 0, 71, 0
2,17939, Note_on_c, 0, 54, 61
2,17946, Note_on_c, 0, 70, 55
2,17966, Note_on_c, 0, 53, 0
2,18150, Note_on_c, 0, 70, 0
2,18186, Note_on_c, 0, 71, 65
2,18192, Note_on_c, 0, 73, 0
2,18436, Note_on_c, 0, 53, 58
2,18441, Note_on_c, 0, 73, 64
2,18465, Note_on_c, 0, 71, 0
2,18516, Note_on_c, 0, 54, 0
2,18669, Note_on_c, 0, 75, 65
2,18680, Note_on_c, 0, 51, 64
2,18684, Note_on_c, 0, 53, 0
2,18915, Note_on_c, 0, 77, 71
2,18920, Note_on_c, 0, 49, 58
2,18930, Note_on_c, 0, 51, 0
2,18930, Note_on_c, 0, 73, 0
2,18939, Note_on_c, 0, 75, 0
2,19163, Note_on_c, 0, 49, 0
2,19170, Note_on_c, 0, 71, 66
2,19184, Note_on_c, 0, 51, 59
2,19296, Note_on_c, 0, 51, 0
2,19311, Note_on_c, 0, 49, 63
2,19369, Note_on_c, 0, 49, 0
2,19381, Note_on_c, 0, 71, 0
2,19389, Note_on_c, 0, 70, 67
2,19434, Note_on_c, 0, 51, 56
2,19454, Note_on_c, 0, 77, 0
2,19483, Note_on_c, 0, 51, 0
2,19517, Note_on_c, 0, 49, 59
2,19573, Note_on_c, 0, 49, 0
2,19622, Note_on_c, 0, 70, 0
2,19631, Note_on_c, 0, 68, 60
2,19638, Note_on_c, 0, 47, 58
2,19766, Note_on_c, 0, 49, 54
2,19770, Note_on_c, 0, 47, 0
2,19872, Note_on_c, 0, 68, 0
2,19877, Note_on_c, 0, 49, 0
2,19879, Note_on_c, 0, 51, 63
2,19884, Note_on_c, 0, 78, 66
2,19890, Note_on_c, 0, 66, 57
2,20105, Note_on_c, 0, 66, 0
2,20120, Note_on_c, 0, 68, 64
2,20372, Note_on_c, 0, 70, 64
2,20397, Note_on_c, 0, 78, 0
2,20560, Note_on_c, 0, 70, 0
2,20575, Note_on_c, 0, 68, 0
2,20607, Note_on_c, 0, 65, 59
2,20862, Note_on_c, 0, 66, 60
2,20873, Note_on_c, 0, 65, 0
2,20913, Note_on_c, 0, 51, 0
2,21087, Note_on_c, 0, 68, 64
2,21103, Note_on_c, 0, 66, 0
2,21343, Note_on_c, 0, 49, 62
2,21345, Note_on_c, 0, 68, 0
2,21352, Note_on_c, 0, 70, 68
2,21579, Note_on_c, 0, 66, 63
2,21705, Note_on_c, 0, 70, 0
2,21836, Note_on_c, 0, 68, 70
2,21843, Note_on_c, 0, 66, 0
2,21851, Note_on_c, 0, 47, 55
2,21860, Note_on_c, 0, 63, 51
2,21898, Note_on_c, 0, 49, 0
2,22032, Note_on_c, 0, 63, 0
2,22079, Note_on_c, 0, 65, 56
2,22246, Note_on_c, 0, 68, 0
2,22303, Note_on_c, 0, 65, 0
2,22353, Note_on_c, 0, 70, 58
2,22360, Note_on_c, 0, 46, 50
2,22369, Note_on_c, 0, 66, 46
2,22423, Note_on_c, 0, 47, 0
2,22845, Note_on_c, 0, 46, 0
2,22884, Note_on_c, 0, 44, 43
2,22890, Note_on_c, 0, 71, 51
2,22925, Note_on_c, 0, 66, 0
2,22943, Note_on_c, 0, 70, 0
2,23401, Note_on_c, 0, 70, 49
2,23412, Note_on_c, 0, 49, 39
2,23416, Note_on_c, 0, 44, 0
2,23425, Note_on_c, 0, 65, 33
2,23433, Note_on_c, 0, 71, 0
2,23562, Note_on_c, 0, 65, 0
2,23638, Note_on_c, 0, 70, 0
2,23643, Note_on_c, 0, 68, 49
2,23872, Note_on_c, 0, 49, 0
2,23874, Note_on_c, 0, 68, 0
2,23901, Note_on_c, 0, 42, 32
2,23901, Note_on_c, 0, 66, 43
2,23903, Note_on_c, 0, 70, 51
2,24120, Note_on_c, 0, 73, 54
2,24145, Note_on_c, 0, 70, 0
2,24162, Note_on_c, 0, 73, 0
2,24248, Note_on_c, 0, 42, 0
2,24396, Note_on_c, 0, 54, 42
2,24401, Note_on_c, 0, 73, 63
2,24626, Note_on_c, 0, 70, 53
2,24666, Note_on_c, 0, 66, 0
2,24670, Note_on_c, 0, 73, 0
2,24675, Note_on_c, 0, 54, 0
2,24682, Note_on_c, 0, 70, 0
2,24874, Note_on_c, 0, 53, 47
2,24897, Note_on_c, 0, 68, 59
2,25111, Note_on_c, 0, 73, 59
2,25127, Note_on_c, 0, 68, 0
2,25162, Note_on_c, 0, 73, 0
2,25190, Note_on_c, 0, 53, 0
2,25367, Note_on_c, 0, 73, 61
2,25379, Note_on_c, 0, 49, 36
2,25403, Note_on_c, 0, 65, 34
2,25591, Note_on_c, 0, 65, 0
2,25591, Note_on_c, 0, 68, 55
2,25605, Note_on_c, 0, 73, 0
2,25634, Note_on_c, 0, 68, 0
2,25683, Note_on_c, 0, 49, 0
2,25846, Note_on_c, 0, 70, 60
2,25859, Note_on_c, 0, 66, 49
2,25866, Note_on_c, 0, 54, 43
2,26097, Note_on_c, 0, 58, 46
2,26106, Note_on_c, 0, 54, 0
2,26152, Note_on_c, 0, 58, 0
2,26328, Note_on_c, 0, 58, 44
2,26328, Note_on_c, 0, 73, 76
2,26429, Note_on_c, 0, 70, 0
2,26558, Note_on_c, 0, 54, 53
2,26560, Note_on_c, 0, 58, 0
2,26643, Note_on_c, 0, 54, 0
2,26808, Note_on_c, 0, 78, 80
2,26817, Note_on_c, 0, 51, 55
2,27036, Note_on_c, 0, 54, 52
2,27109, Note_on_c, 0, 54, 0
2,27125, Note_on_c, 0, 51, 0
2,27178, Note_on_c, 0, 66, 0
2,27279, Note_on_c, 0, 54, 47
2,27306, Note_on_c, 0, 70, 57
2,27315, Note_on_c, 0, 73, 0
2,27510, Note_on_c, 0, 70, 0
2,27519, Note_on_c, 0, 51, 54
2,27566, Note_on_c, 0, 54, 0
2,27676, Note_on_c, 0, 51, 0
2,27752, Note_on_c, 0, 75, 60
2,27758, Note_on_c, 0, 48, 42
2,27944, Note_on_c, 0, 78, 0
2,27968, Note_on_c, 0, 68, 58
2,28010, Note_on_c, 0, 68, 0
2,28041, Note_on_c, 0, 75, 0
2,28219, Note_on_c, 0, 77, 72
2,28242, Note_on_c, 0, 49, 43
2,28248, Note_on_c, 0, 68, 46
2,28259, Note_on_c, 0, 48, 0
2,28433, Note_on_c, 0, 73, 61
2,28444, Note_on_c, 0, 68, 0
2,28481, Note_on_c, 0, 73, 0
2,28715, Note_on_c, 0, 54, 46
2,28715, Note_on_c, 0, 70, 59
2,28907, Note_on_c, 0, 49, 0
2,28944, Note_on_c, 0, 66, 54
2,28953, Note_on_c, 0, 77, 0
2,28983, Note_on_c, 0, 66, 0
2,28983, Note_on_c, 0, 70, 0
2,29195, Note_on_c, 0, 75, 64
2,29211, Note_on_c, 0, 66, 57
2,29421, Note_on_c, 0, 73, 71
2,29430, Note_on_c, 0, 66, 0
2,29463, Note_on_c, 0, 70, 45
2,29527, Note_on_c, 0, 70, 0
2,29527, Note_on_c, 0, 75, 0
2,29681, Note_on_c, 0, 72, 68
2,29685, Note_on_c, 0, 73, 0
2,29711, Note_on_c, 0, 68, 53
2,29835, Note_on_c, 0, 54, 0
2,29906, Note_on_c, 0, 56, 56
2,29965, Note_on_c, 0, 56, 0
2,30140, Note_on_c, 0, 75, 74
2,30166, Note_on_c, 0, 60, 55
2,30170, Note_on_c, 0, 72, 0
2,30388, Note_on_c, 0, 56, 57
2,30408, Note_on_c, 0, 60, 0
2,30433, Note_on_c, 0, 56, 0
2,30618, Note_on_c, 0, 80, 81
2,30647, Note_on_c, 0, 53, 52
2,30647, Note_on_c, 0, 75, 0
2,30878, Note_on_c, 0, 56, 50
2,30923, Note_on_c, 0, 53, 0
2,30933, Note_on_c, 0, 56, 0
2,31105, Note_on_c, 0, 72, 75
2,31127, Note_on_c, 0, 56, 49
2,31208, Note_on_c, 0, 68, 0
2,31337, Note_on_c, 0, 56, 0
2,31344, Note_on_c, 0, 53, 57
2,31399, Note_on_c, 0, 53, 0
2,31408, Note_on_c, 0, 72, 0
2,31593, Note_on_c, 0, 50, 48
2,31595, Note_on_c, 0, 70, 63
2,31830, Note_on_c, 0, 58, 52
2,31899, Note_on_c, 0, 58, 0
2,31905, Note_on_c, 0, 50, 0
2,32083, Note_on_c, 0, 58, 45
2,32088, Note_on_c, 0, 78, 69
2,32284, Note_on_c, 0, 78, 0
2,32284, Note_on_c, 0, 80, 0
2,32295, Note_on_c, 0, 77, 73
2,32328, Note_on_c, 0, 54, 49
2,32328, Note_on_c, 0, 58, 0
2,32494, Note_on_c, 0, 54, 0
2,32499, Note_on_c, 0, 70, 0
2,32561, Note_on_c, 0, 51, 53
2,32566, Note_on_c, 0, 78, 72
2,32584, Note_on_c, 0, 77, 0
2,32802, Note_on_c, 0, 54, 53
2,32853, Note_on_c, 0, 54, 0
2,32862, Note_on_c, 0, 51, 0
2,33044, Note_on_c, 0, 54, 44
2,33053, Note_on_c, 0, 70, 61
2,33267, Note_on_c, 0, 51, 62
2,33295, Note_on_c, 0, 54, 0
2,33322, Note_on_c, 0, 51, 0
2,33377, Note_on_c, 0, 70, 0
2,33509, Note_on_c, 0, 48, 47
2,33521, Note_on_c, 0, 68, 61
2,33736, Note_on_c, 0, 56, 52
2,33810, Note_on_c, 0, 56, 0
2,33813, Note_on_c, 0, 48, 0
2,33983, Note_on_c, 0, 56, 53
2,33989, Note_on_c, 0, 77, 70
2,34008, Note_on_c, 0, 78, 0
2,34175, Note_on_c, 0, 56, 0
2,34190, Note_on_c, 0, 77, 0
2,34204, Note_on_c, 0, 75, 61
2,34214, Note_on_c, 0, 53, 52
2,34346, Note_on_c, 0, 53, 0
2,34370, Note_on_c, 0, 68, 0
2,34454, Note_on_c, 0, 49, 46
2,34463, Note_on_c, 0, 77, 68
2,34490, Note_on_c, 0, 75, 0
2,34677, Note_on_c, 0, 53, 58
2,34737, Note_on_c, 0, 53, 0
2,34742, Note_on_c, 0, 49, 0
2,34922, Note_on_c, 0, 53, 45
2,34935, Note_on_c, 0, 68, 64
2,35143, Note_on_c, 0, 49, 55
2,35162, Note_on_c, 0, 53, 0
2,35213, Note_on_c, 0, 49, 0
2,35280, Note_on_c, 0, 77, 0
2,35330, Note_on_c, 0, 68, 0
2,35394, Note_on_c, 0, 66, 64
2,35399, Note_on_c, 0, 46, 42
2,35609, Note_on_c, 0, 49, 51
2,35657, Note_on_c, 0, 46, 0
2,35680, Note_on_c, 0, 49, 0
2,35847, Note_on_c, 0, 77, 76
2,35854, Note_on_c, 0, 49, 51
2,36020, Note_on_c, 0, 49, 0
2,36083, Note_on_c, 0, 46, 51
2,36154, Note_on_c, 0, 46, 0
2,36348, Note_on_c, 0, 42, 50
2,36354, Note_on_c, 0, 66, 0
2,36361, Note_on_c, 0, 75, 67
2,36420, Control_c, 0, 64, 25
2,36441, Control_c, 0, 64, 38
2,36458, Control_c, 0, 64, 49
2,36480, Control_c, 0, 64, 59
2,36497, Control_c, 0, 64, 63
2,36515, Control_c, 0, 64, 64
2,36537, Control_c, 0, 64, 66
2,36555, Control_c, 0, 64, 68
2,36555, Note_on_c, 0, 77, 0
2,36574, Control_c, 0, 64, 72
2,36574, Note_on_c, 0, 42, 0
2,36579, Note_on_c, 0, 75, 0
2,36588, Note_on_c, 0, 68, 62
2,36593, Control_c, 0, 64, 76
2,36611, Control_c, 0, 64, 82
2,36631, Control_c, 0, 64, 88
2,36651, Control_c, 0, 64, 89
2,36726, Control_c, 0, 64, 87
2,36747, Control_c, 0, 64, 84
2,36767, Control_c, 0, 64, 78
2,36785, Control_c, 0, 64, 72
2,36805, Control_c, 0, 64, 65
2,36805, Note_on_c, 0, 68, 0
2,36818, Note_on_c, 0, 54, 57
2,36823, Control_c, 0, 64, 59
2,36831, Note_on_c, 0, 73, 67
2,36844, Control_c, 0, 64, 52
2,36853, Note_on_c, 0, 70, 46
2,36861, Control_c, 0, 64, 43
2,36883, Control_c, 0, 64, 34
2,36900, Control_c, 0, 64, 19
2,36919, Control_c, 0, 64, 0
2,37051, Note_on_c, 0, 66, 54
2,37051, Note_on_c, 0, 70, 0
2,37304, Note_on_c, 0, 72, 67
2,37321, Note_on_c, 0, 63, 51
2,37321, Note_on_c, 0, 66, 0
2,37417, Note_on_c, 0, 54, 0
2,37435, Note_on_c, 0, 73, 0
2,37546, Note_on_c, 0, 54, 52
2,37770, Note_on_c, 0, 54, 0
2,37806, Note_on_c, 0, 68, 64
2,37809, Note_on_c, 0, 53, 54
2,37860, Note_on_c, 0, 72, 0
2,38012, Note_on_c, 0, 53, 0
2,38029, Note_on_c, 0, 51, 50
2,38261, Note_on_c, 0, 51, 0
2,38274, Note_on_c, 0, 73, 61
2,38281, Note_on_c, 0, 49, 39
2,38337, Note_on_c, 0, 68, 0
2,38517, Note_on_c, 0, 51, 44
2,38546, Note_on_c, 0, 49, 0
2,38701, Note_on_c, 0, 51, 0
2,38748, Note_on_c, 0, 68, 58
2,38762, Note_on_c, 0, 53, 48
2,38971, Note_on_c, 0, 49, 51
2,38986, Note_on_c, 0, 53, 0
2,39182, Note_on_c, 0, 49, 0
2,39215, Note_on_c, 0, 46, 39
2,39228, Note_on_c, 0, 66, 51
2,39258, Note_on_c, 0, 68, 0
2,39261, Note_on_c, 0, 63, 0
2,39445, Note_on_c, 0, 48, 46
2,39457, Note_on_c, 0, 46, 0
2,39608, Note_on_c, 0, 48, 0
2,39657, Note_on_c, 0, 66, 0
2,39681, Note_on_c, 0, 49, 41
2,39681, Note_on_c, 0, 65, 53
2,39895, Note_on_c, 0, 46, 45
2,39917, Note_on_c, 0, 49, 0
2,40130, Note_on_c, 0, 46, 0
2,40149, Note_on_c, 0, 65, 0
2,40158, Note_on_c, 0, 42, 38
2,40170, Note_on_c, 0, 63, 51
2,40181, Note_on_c, 0, 73, 0
2,40407, Note_on_c, 0, 63, 0
2,40407, Note_on_c, 0, 73, 55
2,40651, Note_on_c, 0, 42, 0
2,40659, Note_on_c, 0, 44, 42
2,40661, Note_on_c, 0, 63, 46
2,40778, Control_c, 0, 64, 25
2,40798, Control_c, 0, 64, 38
2,40807, Note_on_c, 0, 73, 0
2,40816, Control_c, 0, 64, 46
2,40836, Control_c, 0, 64, 54
2,40855, Control_c, 0, 64, 60
2,40875, Control_c, 0, 64, 61
2,40880, Note_on_c, 0, 72, 52
2,40893, Control_c, 0, 64, 62
2,40902, Note_on_c, 0, 63, 0
2,40915, Control_c, 0, 64, 63
2,40930, Control_c, 0, 64, 64
2,41066, Control_c, 0, 64, 63
2,41085, Control_c, 0, 64, 62
2,41104, Control_c, 0, 64, 60
2,41123, Control_c, 0, 64, 57
2,41143, Control_c, 0, 64, 51
2,41147, Note_on_c, 0, 72, 0
2,41159, Note_on_c, 0, 73, 54
2,41163, Control_c, 0, 64, 41
2,41178, Note_on_c, 0, 37, 29
2,41182, Control_c, 0, 64, 25
2,41189, Note_on_c, 0, 44, 0
2,41201, Control_c, 0, 64, 0
2,41203, Note_on_c, 0, 65, 34
2,41276, Control_c, 0, 64, 16
2,41296, Control_c, 0, 64, 38
2,41318, Control_c, 0, 64, 50
2,41335, Control_c, 0, 64, 58
2,41353, Control_c, 0, 64, 62
2,41374, Control_c, 0, 64, 63
2,41410, Control_c, 0, 64, 64
2,41421, Note_on_c, 0, 68, 47
2,41426, Note_on_c, 0, 73, 0
2,41430, Control_c, 0, 64, 66
2,41450, Control_c, 0, 64, 68
2,41470, Control_c, 0, 64, 69
2,41475, Note_on_c, 0, 65, 0
2,41509, Control_c, 0, 64, 68
2,41547, Control_c, 0, 64, 67
2,41564, Control_c, 0, 64, 65
2,41584, Control_c, 0, 64, 62
2,41602, Control_c, 0, 64, 57
2,41617, Note_on_c, 0, 37, 0
2,41624, Control_c, 0, 64, 48
2,41642, Control_c, 0, 64, 35
2,41649, Note_on_c, 0, 73, 65
2,41662, Control_c, 0, 64, 0
2,41684, Note_on_c, 0, 68, 0
2,41718, Control_c, 0, 64, 27
2,41738, Control_c, 0, 64, 46
2,41756, Control_c, 0, 64, 57
2,41776, Control_c, 0, 64, 61
2,41798, Control_c, 0, 64, 62
2,41834, Control_c, 0, 64, 63
2,41854, Control_c, 0, 64, 64
2,41872, Control_c, 0, 64, 66
2,41891, Note_on_c, 0, 71, 55
2,41894, Control_c, 0, 64, 68
2,41910, Control_c, 0, 64, 71
2,41929, Control_c, 0, 64, 73
2,42026, Control_c, 0, 64, 72
2,42046, Control_c, 0, 64, 71
2,42063, Control_c, 0, 64, 69
2,42083, Control_c, 0, 64, 65
2,42104, Control_c, 0, 64, 59
2,42121, Control_c, 0, 64, 49
2,42130, Note_on_c, 0, 71, 0
2,42130, Note_on_c, 0, 78, 65
2,42138, Note_on_c, 0, 73, 0
2,42142, Control_c, 0, 64, 43
2,42161, Note_on_c, 0, 70, 50
2,42163, Control_c, 0, 64, 41
2,42181, Control_c, 0, 64, 43
2,42200, Control_c, 0, 64, 50
2,42217, Control_c, 0, 64, 58
2,42238, Control_c, 0, 64, 62
2,42258, Control_c, 0, 64, 63
2,42274, Control_c, 0, 64, 64
2,42295, Control_c, 0, 64, 65
2,42297, Note_on_c, 0, 70, 0
2,42317, Control_c, 0, 64, 66
2,42351, Control_c, 0, 64, 67
2,42376, Note_on_c, 0, 71, 48
2,42393, Control_c, 0, 64, 69
2,42498, Note_on_c, 0, 78, 0
2,42522, Note_on_c, 0, 71, 0
2,42527, Control_c, 0, 64, 68
2,42545, Control_c, 0, 64, 66
2,42563, Control_c, 0, 64, 64
2,42583, Control_c, 0, 64, 61
2,42604, Control_c, 0, 64, 55
2,42622, Note_on_c, 0, 77, 61
2,42627, Control_c, 0, 64, 49
2,42631, Note_on_c, 0, 73, 48
2,42641, Control_c, 0, 64, 43
2,42658, Control_c, 0, 64, 42
2,42681, Control_c, 0, 64, 44
2,42699, Control_c, 0, 64, 51
2,42716, Control_c, 0, 64, 59
2,42739, Control_c, 0, 64, 62
2,42756, Control_c, 0, 64, 63
2,42776, Control_c, 0, 64, 64
2,42794, Control_c, 0, 64, 65
2,42814, Note_on_c, 0, 73, 0
2,42852, Control_c, 0, 64, 66
2,42863, Note_on_c, 0, 68, 54
2,42910, Control_c, 0, 64, 67
2,42986, Control_c, 0, 64, 66
2,43013, Note_on_c, 0, 77, 0
2,43025, Control_c, 0, 64, 65
2,43043, Control_c, 0, 64, 63
2,43064, Control_c, 0, 64, 60
2,43080, Control_c, 0, 64, 55
2,43102, Control_c, 0, 64, 49
2,43102, Note_on_c, 0, 78, 59
2,43115, Note_on_c, 0, 68, 0
2,43134, Note_on_c, 0, 70, 48
2,43140, Control_c, 0, 64, 52
2,43159, Control_c, 0, 64, 57
2,43179, Control_c, 0, 64, 62
2,43200, Control_c, 0, 64, 63
2,43217, Control_c, 0, 64, 64
2,43236, Control_c, 0, 64, 65
2,43253, Control_c, 0, 64, 66
2,43270, Note_on_c, 0, 70, 0
2,43354, Note_on_c, 0, 71, 45
2,43388, Note_on_c, 0, 78, 0
2,43410, Control_c, 0, 64, 65
2,43446, Control_c, 0, 64, 64
2,43459, Note_on_c, 0, 71, 0
2,43487, Control_c, 0, 64, 63
2,43504, Control_c, 0, 64, 60
2,43523, Control_c, 0, 64, 55
2,43542, Control_c, 0, 64, 47
2,43561, Control_c, 0, 64, 30
2,43574, Note_on_c, 0, 77, 66
2,43579, Control_c, 0, 64, 0
2,43587, Note_on_c, 0, 54, 39
2,43612, Note_on_c, 0, 73, 46
2,43808, Note_on_c, 0, 75, 63
2,43816, Note_on_c, 0, 56, 46
2,43841, Note_on_c, 0, 73, 0
2,43849, Note_on_c, 0, 54, 0
2,43849, Note_on_c, 0, 77, 0
2,43890, Note_on_c, 0, 56, 0
2,44065, Note_on_c, 0, 75, 0
2,44070, Note_on_c, 0, 73, 68
2,44087, Note_on_c, 0, 58, 49
2,44273, Note_on_c, 0, 58, 0
2,44294, Note_on_c, 0, 54, 55
2,44304, Note_on_c, 0, 71, 52
2,44350, Note_on_c, 0, 54, 0
2,44504, Note_on_c, 0, 71, 0
2,44559, Note_on_c, 0, 54, 46
2,44559, Note_on_c, 0, 70, 49
2,44774, Note_on_c, 0, 68, 53
2,44779, Note_on_c, 0, 58, 48
2,44785, Note_on_c, 0, 54, 0
2,44795, Note_on_c, 0, 73, 0
2,44828, Note_on_c, 0, 58, 0
2,44850, Note_on_c, 0, 70, 0
2,45027, Note_on_c, 0, 68, 0
2,45027, Note_on_c, 0, 75, 60
2,45048, Note_on_c, 0, 66, 51
2,45055, Note_on_c, 0, 59, 50
2,45248, Note_on_c, 0, 66, 0
2,45268, Note_on_c, 0, 54, 47
2,45275, Note_on_c, 0, 68, 57
2,45279, Note_on_c, 0, 59, 0
2,45317, Note_on_c, 0, 54, 0
2,45511, Note_on_c, 0, 70, 53
2,45530, Note_on_c, 0, 54, 46
2,45606, Note_on_c, 0, 68, 0
2,45737, Note_on_c, 0, 59, 55
2,45750, Note_on_c, 0, 65, 51
2,45780, Note_on_c, 0, 54, 0
2,45811, Note_on_c, 0, 59, 0
2,45926, Note_on_c, 0, 75, 0
2,45998, Note_on_c, 0, 66, 58
2,46006, Note_on_c, 0, 61, 54
2,46032, Note_on_c, 0, 70, 0
2,46179, Note_on_c, 0, 65, 0
2,46217, Note_on_c, 0, 54, 49
2,46236, Note_on_c, 0, 68, 59
2,46263, Note_on_c, 0, 61, 0
2,46273, Note_on_c, 0, 54, 0
2,46329, Note_on_c, 0, 68, 0
2,46350, Note_on_c, 0, 66, 0
2,46463, Note_on_c, 0, 73, 69
2,46482, Note_on_c, 0, 70, 57
2,46491, Note_on_c, 0, 54, 52
2,46715, Note_on_c, 0, 61, 47
2,46715, Note_on_c, 0, 65, 48
2,46801, Note_on_c, 0, 54, 0
2,46805, Note_on_c, 0, 73, 0
2,46853, Note_on_c, 0, 61, 0
2,46865, Note_on_c, 0, 70, 0
2,46906, Note_on_c, 0, 65, 0
2,46958, Note_on_c, 0, 71, 73
2,46985, Note_on_c, 0, 63, 53
2,46989, Note_on_c, 0, 66, 50
2,47151, Note_on_c, 0, 63, 0
2,47192, Note_on_c, 0, 54, 52
2,47252, Note_on_c, 0, 54, 0
2,47452, Note_on_c, 0, 70, 65
2,47467, Note_on_c, 0, 54, 55
2,47603, Note_on_c, 0, 71, 0
2,47682, Note_on_c, 0, 63, 56
2,47725, Note_on_c, 0, 54, 0
2,47738, Note_on_c, 0, 63, 0
2,47801, Note_on_c, 0, 66, 0
2,47938, Note_on_c, 0, 65, 49
2,47938, Note_on_c, 0, 68, 63
2,48028, Note_on_c, 0, 70, 0
2,48151, Note_on_c, 0, 65, 0
2,48171, Note_on_c, 0, 54, 53
2,48231, Note_on_c, 0, 54, 0
2,48408, Note_on_c, 0, 54, 49
2,48433, Note_on_c, 0, 73, 57
2,48606, Note_on_c, 0, 54, 0
2,48668, Note_on_c, 0, 65, 44
2,48696, Note_on_c, 0, 73, 0
2,48893, Note_on_c, 0, 65, 0
2,48893, Note_on_c, 0, 68, 0
2,48915, Note_on_c, 0, 70, 52
2,48919, Note_on_c, 0, 66, 43
2,49082, Note_on_c, 0, 66, 0
2,49153, Note_on_c, 0, 65, 42
2,49247, Note_on_c, 0, 70, 0
2,49362, Note_on_c, 0, 65, 0
2,49400, Note_on_c, 0, 70, 53
2,49402, Note_on_c, 0, 63, 47
2,49425, Note_on_c, 0, 66, 40
2,49611, Note_on_c, 0, 63, 0
2,49642, Note_on_c, 0, 61, 41
2,49830, Note_on_c, 0, 61, 0
2,49891, Note_on_c, 0, 75, 52
2,49896, Note_on_c, 0, 66, 0
2,49907, Note_on_c, 0, 59, 44
2,49916, Note_on_c, 0, 70, 0
2,50128, Note_on_c, 0, 68, 57
2,50193, Note_on_c, 0, 68, 0
2,50215, Note_on_c, 0, 59, 0
2,50385, Note_on_c, 0, 68, 53
2,50393, Note_on_c, 0, 75, 0
2,50395, Note_on_c, 0, 74, 62
2,50611, Note_on_c, 0, 59, 56
2,50622, Note_on_c, 0, 68, 0
2,50693, Note_on_c, 0, 59, 0
2,50864, Note_on_c, 0, 75, 60
2,50868, Note_on_c, 0, 58, 48
2,50874, Note_on_c, 0, 74, 0
2,51097, Note_on_c, 0, 66, 53
2,51135, Note_on_c, 0, 58, 0
2,51148, Note_on_c, 0, 66, 0
2,51357, Note_on_c, 0, 66, 55
2,51357, Note_on_c, 0, 70, 61
2,51452, Note_on_c, 0, 75, 0
2,51574, Note_on_c, 0, 58, 54
2,51585, Note_on_c, 0, 66, 0
2,51623, Note_on_c, 0, 58, 0
2,51825, Note_on_c, 0, 56, 52
2,51836, Note_on_c, 0, 75, 60
2,51882, Note_on_c, 0, 70, 0
2,52066, Note_on_c, 0, 65, 56
2,52089, Note_on_c, 0, 56, 0
2,52116, Note_on_c, 0, 65, 0
2,52296, Note_on_c, 0, 77, 71
2,52309, Note_on_c, 0, 65, 56
2,52327, Note_on_c, 0, 74, 52
2,52442, Note_on_c, 0, 75, 0
2,52486, Note_on_c, 0, 65, 0
2,52538, Note_on_c, 0, 56, 56
2,52623, Note_on_c, 0, 77, 0
2,52720, Note_on_c, 0, 74, 0
2,52776, Note_on_c, 0, 78, 69
2,52793, Note_on_c, 0, 75, 53
2,52798, Note_on_c, 0, 54, 52
2,52798, Note_on_c, 0, 56, 0
2,52985, Note_on_c, 0, 54, 0
2,53011, Note_on_c, 0, 56, 51
2,53034, Note_on_c, 0, 75, 0
2,53256, Note_on_c, 0, 80, 68
2,53283, Note_on_c, 0, 54, 53
2,53283, Note_on_c, 0, 77, 61
2,53292, Note_on_c, 0, 56, 0
2,53330, Note_on_c, 0, 78, 0
2,53335, Control_c, 0, 64, 8
2,53353, Control_c, 0, 64, 40
2,53373, Control_c, 0, 64, 54
2,53392, Control_c, 0, 64, 60
2,53411, Control_c, 0, 64, 62
2,53431, Control_c, 0, 64, 63
2,53449, Control_c, 0, 64, 64
2,53470, Control_c, 0, 64, 65
2,53489, Control_c, 0, 64, 66
2,53510, Note_on_c, 0, 53, 58
2,53521, Note_on_c, 0, 54, 0
2,53597, Note_on_c, 0, 80, 0
2,53632, Note_on_c, 0, 77, 0
2,53659, Control_c, 0, 64, 65
2,53680, Control_c, 0, 64, 64
2,53700, Control_c, 0, 64, 61
2,53719, Control_c, 0, 64, 56
2,53740, Control_c, 0, 64, 47
2,53740, Note_on_c, 0, 82, 73
2,53753, Note_on_c, 0, 53, 0
2,53757, Control_c, 0, 64, 31
2,53757, Note_on_c, 0, 78, 63
2,53767, Note_on_c, 0, 51, 60
2,53777, Control_c, 0, 64, 0
2,53851, Control_c, 0, 64, 12
2,53871, Control_c, 0, 64, 40
2,53894, Control_c, 0, 64, 57
2,53909, Control_c, 0, 64, 63
2,53930, Control_c, 0, 64, 65
2,53950, Control_c, 0, 64, 67
2,53969, Control_c, 0, 64, 69
2,53984, Note_on_c, 0, 51, 0
2,53986, Control_c, 0, 64, 72
2,53993, Note_on_c, 0, 53, 59
2,54008, Control_c, 0, 64, 75
2,54014, Note_on_c, 0, 78, 0
2,54028, Control_c, 0, 64, 78
2,54048, Control_c, 0, 64, 79
2,54102, Control_c, 0, 64, 78
2,54121, Control_c, 0, 64, 77
2,54140, Control_c, 0, 64, 76
2,54161, Control_c, 0, 64, 73
2,54179, Control_c, 0, 64, 69
2,54199, Control_c, 0, 64, 62
2,54210, Note_on_c, 0, 53, 0
2,54210, Note_on_c, 0, 78, 75
2,54217, Control_c, 0, 64, 53
2,54233, Note_on_c, 0, 54, 54
2,54238, Control_c, 0, 64, 37
2,54243, Note_on_c, 0, 75, 62
2,54257, Control_c, 0, 64, 23
2,54275, Control_c, 0, 64, 18
2,54293, Control_c, 0, 64, 24
2,54315, Control_c, 0, 64, 39
2,54332, Control_c, 0, 64, 53
2,54341, Note_on_c, 0, 82, 0
2,54352, Control_c, 0, 64, 61
2,54371, Control_c, 0, 64, 64
2,54391, Control_c, 0, 64, 65
2,54395, Note_on_c, 0, 75, 0
2,54407, Note_on_c, 0, 54, 0
2,54428, Control_c, 0, 64, 66
2,54432, Note_on_c, 0, 78, 0
2,54450, Control_c, 0, 64, 68
2,54450, Note_on_c, 0, 51, 58
2,54470, Control_c, 0, 64, 71
2,54487, Control_c, 0, 64, 75
2,54506, Control_c, 0, 64, 78
2,54523, Control_c, 0, 64, 79
2,54602, Control_c, 0, 64, 78
2,54621, Control_c, 0, 64, 77
2,54641, Control_c, 0, 64, 76
2,54659, Control_c, 0, 64, 72
2,54679, Control_c, 0, 64, 67
2,54699, Control_c, 0, 64, 62
2,54717, Control_c, 0, 64, 57
2,54726, Note_on_c, 0, 75, 64
2,54737, Control_c, 0, 64, 50
2,54757, Control_c, 0, 64, 39
2,54757, Note_on_c, 0, 56, 45
2,54768, Note_on_c, 0, 72, 46
2,54777, Control_c, 0, 64, 12
2,54794, Control_c, 0, 64, 0
2,54915, Note_on_c, 0, 51, 0
2,54927, Control_c, 0, 64, 44
2,54951, Control_c, 0, 64, 58
2,54951, Note_on_c, 0, 56, 0
2,54967, Note_on_c, 0, 58, 55
2,54971, Control_c, 0, 64, 63
2,54984, Control_c, 0, 64, 65
2,54992, Note_on_c, 0, 72, 0
2,55007, Control_c, 0, 64, 67
2,55024, Control_c, 0, 64, 69
2,55044, Control_c, 0, 64, 71
2,55062, Control_c, 0, 64, 73
2,55119, Control_c, 0, 64, 72
2,55139, Control_c, 0, 64, 71
2,55157, Control_c, 0, 64, 68
2,55178, Control_c, 0, 64, 64
2,55197, Control_c, 0, 64, 56
2,55201, Note_on_c, 0, 68, 78
2,55217, Control_c, 0, 64, 48
2,55220, Note_on_c, 0, 58, 0
2,55236, Note_on_c, 0, 56, 54
2,55240, Control_c, 0, 64, 33
2,55254, Control_c, 0, 64, 0
2,55310, Control_c, 0, 64, 20
2,55320, Note_on_c, 0, 75, 0
2,55331, Control_c, 0, 64, 43
2,55351, Control_c, 0, 64, 59
2,55370, Control_c, 0, 64, 63
2,55387, Control_c, 0, 64, 65
2,55407, Control_c, 0, 64, 67
2,55426, Control_c, 0, 64, 69
2,55446, Control_c, 0, 64, 74
2,55458, Note_on_c, 0, 54, 62
2,55467, Note_on_c, 0, 56, 0
2,55468, Control_c, 0, 64, 79
2,55486, Control_c, 0, 64, 83
2,55504, Control_c, 0, 64, 85
2,55508, Note_on_c, 0, 68, 0
2,55524, Control_c, 0, 64, 86
2,55542, Control_c, 0, 64, 87
2,55581, Control_c, 0, 64, 86
2,55600, Control_c, 0, 64, 85
2,55619, Control_c, 0, 64, 82
2,55638, Control_c, 0, 64, 79
2,55651, Note_on_c, 0, 54, 0
2,55658, Control_c, 0, 64, 73
2,55676, Control_c, 0, 64, 66
2,55697, Control_c, 0, 64, 59
2,55700, Note_on_c, 0, 73, 82
2,55702, Note_on_c, 0, 53, 51
2,55715, Control_c, 0, 64, 51
2,55732, Control_c, 0, 64, 42
2,55754, Control_c, 0, 64, 25
2,55773, Control_c, 0, 64, 10
2,55793, Control_c, 0, 64, 13
2,55809, Control_c, 0, 64, 29
2,55830, Control_c, 0, 64, 47
2,55848, Control_c, 0, 64, 59
2,55870, Control_c, 0, 64, 63
2,55888, Control_c, 0, 64, 65
2,55902, Note_on_c, 0, 53, 0
2,55909, Control_c, 0, 64, 68
2,55926, Control_c, 0, 64, 74
2,55933, Note_on_c, 0, 54, 59
2,55946, Control_c, 0, 64, 81
2,55966, Control_c, 0, 64, 88
2,55984, Control_c, 0, 64, 91
2,56004, Control_c, 0, 64, 92
2,56063, Note_on_c, 0, 73, 0
2,56083, Control_c, 0, 64, 91
2,56100, Control_c, 0, 64, 90
2,56120, Control_c, 0, 64, 87
2,56140, Control_c, 0, 64, 81
2,56160, Control_c, 0, 64, 71
2,56180, Control_c, 0, 64, 59
2,56188, Note_on_c, 0, 72, 82
2,56200, Control_c, 0, 64, 46
2,56207, Note_on_c, 0, 56, 52
2,56218, Control_c, 0, 64, 31
2,56218, Note_on_c, 0, 54, 0
2,56223, Note_on_c, 0, 80, 59
2,56237, Control_c, 0, 64, 19
2,56255, Control_c, 0, 64, 20
2,56273, Control_c, 0, 64, 33
2,56295, Control_c, 0, 64, 48
2,56313, Control_c, 0, 64, 60
2,56333, Control_c, 0, 64, 63
2,56353, Note_on_c, 0, 56, 0
2,56373, Control_c, 0, 64, 64
2,56373, Note_on_c, 0, 80, 0
2,56390, Control_c, 0, 64, 65
2,56409, Control_c, 0, 64, 67
2,56427, Note_on_c, 0, 53, 54
2,56431, Control_c, 0, 64, 71
2,56448, Control_c, 0, 64, 76
2,56469, Control_c, 0, 64, 80
2,56485, Control_c, 0, 64, 81
2,56502, Note_on_c, 0, 72, 0
2,56544, Control_c, 0, 64, 80
2,56563, Control_c, 0, 64, 79
2,56581, Control_c, 0, 64, 78
2,56602, Control_c, 0, 64, 76
2,56619, Control_c, 0, 64, 73
2,56640, Control_c, 0, 64, 69
2,56661, Control_c, 0, 64, 65
2,56661, Note_on_c, 0, 53, 0
2,56680, Control_c, 0, 64, 61
2,56680, Note_on_c, 0, 73, 76
2,56693, Note_on_c, 0, 58, 50
2,56696, Control_c, 0, 64, 58
2,56715, Control_c, 0, 64, 55
2,56739, Control_c, 0, 64, 51
2,56739, Note_on_c, 0, 77, 64
2,56755, Control_c, 0, 64, 44
2,56775, Control_c, 0, 64, 31
2,56794, Control_c, 0, 64, 0
2,56920, Note_on_c, 0, 58, 0
2,56926, Note_on_c, 0, 60, 53
2,57164, Note_on_c, 0, 60, 0
2,57167, Note_on_c, 0, 73, 0
2,57168, Note_on_c, 0, 72, 69
2,57177, Note_on_c, 0, 61, 49
2,57406, Note_on_c, 0, 70, 65
2,57439, Note_on_c, 0, 72, 0
2,57647, Note_on_c, 0, 68, 66
2,57670, Note_on_c, 0, 70, 0
2,57719, Note_on_c, 0, 77, 0
2,57843, Note_on_c, 0, 61, 0
2,57867, Note_on_c, 0, 60, 54
2,58067, Note_on_c, 0, 60, 0
2,58094, Note_on_c, 0, 58, 52
2,58094, Note_on_c, 0, 77, 66
2,58214, Note_on_c, 0, 77, 0
2,58282, Note_on_c, 0, 68, 0
2,58320, Note_on_c, 0, 56, 51
2,58320, Note_on_c, 0, 58, 0
2,58325, Note_on_c, 0, 66, 67
2,58400, Note_on_c, 0, 68, 68
2,58414, Note_on_c, 0, 66, 0
2,58448, Note_on_c, 0, 68, 0
2,58533, Note_on_c, 0, 56, 0
2,58552, Note_on_c, 0, 70, 68
2,58558, Note_on_c, 0, 75, 60
2,58562, Note_on_c, 0, 54, 48
2,58762, Note_on_c, 0, 75, 0
2,58788, Note_on_c, 0, 54, 0
2,58792, Note_on_c, 0, 72, 64
2,58809, Note_on_c, 0, 56, 47
2,59027, Note_on_c, 0, 56, 0
2,59030, Note_on_c, 0, 73, 58
2,59036, Note_on_c, 0, 72, 0
2,59045, Note_on_c, 0, 58, 50
2,59237, Note_on_c, 0, 58, 0
2,59246, Note_on_c, 0, 73, 0
2,59258, Note_on_c, 0, 77, 54
2,59283, Note_on_c, 0, 53, 49
2,59482, Note_on_c, 0, 77, 0
2,59487, Note_on_c, 0, 53, 0
2,59493, Note_on_c, 0, 75, 49
2,59502, Note_on_c, 0, 54, 45
2,59651, Note_on_c, 0, 70, 0
2,59709, Note_on_c, 0, 54, 0
2,59725, Note_on_c, 0, 56, 49
2,59729, Note_on_c, 0, 72, 55
2,59776, Note_on_c, 0, 75, 0
2,59936, Note_on_c, 0, 56, 0
2,59956, Note_on_c, 0, 72, 0
2,59965, Note_on_c, 0, 68, 65
2,59969, Note_on_c, 0, 73, 61
2,59981, Note_on_c, 0, 58, 44
2,60208, Note_on_c, 0, 54, 47
2,60208, Note_on_c, 0, 58, 0
2,60409, Note_on_c, 0, 54, 0
2,60442, Note_on_c, 0, 51, 44
2,60446, Note_on_c, 0, 66, 69
2,60529, Note_on_c, 0, 68, 0
2,60578, Note_on_c, 0, 73, 0
2,60675, Note_on_c, 0, 72, 58
2,60932, Note_on_c, 0, 73, 64
2,60936, Note_on_c, 0, 53, 45
2,60943, Note_on_c, 0, 66, 0
2,60948, Note_on_c, 0, 65, 59
2,60948, Note_on_c, 0, 72, 0
2,60993, Note_on_c, 0, 51, 0
2,61120, Note_on_c, 0, 53, 0
2,61163, Note_on_c, 0, 54, 45
2,61404, Note_on_c, 0, 54, 0
2,61467, Note_on_c, 0, 63, 56
2,61472, Note_on_c, 0, 56, 36
2,61519, Note_on_c, 0, 65, 0
2,61585, Note_on_c, 0, 73, 0
2,61628, Control_c, 0, 64, 44
2,61649, Control_c, 0, 64, 62
2,61667, Control_c, 0, 64, 69
2,61687, Control_c, 0, 64, 74
2,61696, Note_on_c, 0, 63, 0
2,61704, Control_c, 0, 64, 78
2,61726, Control_c, 0, 64, 83
2,61744, Control_c, 0, 64, 90
2,61764, Control_c, 0, 64, 94
2,61802, Control_c, 0, 64, 92
2,61841, Control_c, 0, 64, 91
2,61857, Control_c, 0, 64, 89
2,61878, Control_c, 0, 64, 83
2,61900, Control_c, 0, 64, 76
2,61917, Control_c, 0, 64, 68
2,61936, Control_c, 0, 64, 62
2,61936, Note_on_c, 0, 56, 0
2,61956, Control_c, 0, 64, 54
2,61966, Note_on_c, 0, 72, 55
2,61970, Note_on_c, 0, 68, 53
2,61974, Control_c, 0, 64, 45
2,61979, Note_on_c, 0, 44, 33
2,61992, Control_c, 0, 64, 29
2,62012, Control_c, 0, 64, 0
2,62111, Control_c, 0, 64, 39
2,62128, Control_c, 0, 64, 56
2,62146, Control_c, 0, 64, 63
2,62165, Control_c, 0, 64, 65
2,62185, Control_c, 0, 64, 67
2,62205, Control_c, 0, 64, 69
2,62222, Control_c, 0, 64, 74
2,62240, Note_on_c, 0, 72, 0
2,62244, Control_c, 0, 64, 78
2,62246, Note_on_c, 0, 68, 0
2,62262, Control_c, 0, 64, 79
2,62300, Control_c, 0, 64, 78
2,62339, Control_c, 0, 64, 77
2,62359, Control_c, 0, 64, 76
2,62379, Control_c, 0, 64, 74
2,62400, Control_c, 0, 64, 71
2,62415, Control_c, 0, 64, 67
2,62435, Control_c, 0, 64, 63
2,62455, Control_c, 0, 64, 57
2,62474, Control_c, 0, 64, 50
2,62492, Note_on_c, 0, 49, 37
2,62496, Control_c, 0, 64, 43
2,62496, Note_on_c, 0, 73, 51
2,62512, Control_c, 0, 64, 41
2,62519, Note_on_c, 0, 44, 0
2,62519, Note_on_c, 0, 65, 44
2,62530, Control_c, 0, 64, 45
2,62550, Control_c, 0, 64, 54
2,62568, Control_c, 0, 64, 61
2,62587, Control_c, 0, 64, 63
2,62704, Control_c, 0, 64, 62
2,62726, Control_c, 0, 64, 61
2,62726, Note_on_c, 0, 49, 0
2,62726, Note_on_c, 0, 68, 57
2,62743, Control_c, 0, 64, 60
2,62761, Control_c, 0, 64, 58
2,62772, Note_on_c, 0, 65, 0
2,62772, Note_on_c, 0, 68, 0
2,62780, Control_c, 0, 64, 56
2,62799, Control_c, 0, 64, 52
2,62820, Control_c, 0, 64, 46
2,62826, Note_on_c, 0, 73, 0
2,62839, Control_c, 0, 64, 34
2,62858, Control_c, 0, 64, 0
2,62976, Note_on_c, 0, 61, 55
2,62985, Note_on_c, 0, 68, 63
2,63206, Note_on_c, 0, 65, 53
2,63243, Note_on_c, 0, 68, 0
2,63256, Note_on_c, 0, 65, 0
2,63313, Note_on_c, 0, 61, 0
2,63476, Note_on_c, 0, 60, 49
2,63476, Note_on_c, 0, 63, 62
2,63656, Note_on_c, 0, 63, 0
2,63685, Note_on_c, 0, 68, 61
2,63738, Note_on_c, 0, 68, 0
2,63813, Note_on_c, 0, 60, 0
2,63943, Note_on_c, 0, 68, 58
2,63943, Note_on_c, 0, 72, 64
2,63947, Note_on_c, 0, 56, 49
2,64158, Note_on_c, 0, 63, 57
2,64162, Note_on_c, 0, 68, 0
2,64162, Note_on_c, 0, 72, 0
2,64209, Note_on_c, 0, 63, 0
2,64223, Note_on_c, 0, 56, 0
2,64407, Note_on_c, 0, 61, 50
2,64410, Note_on_c, 0, 73, 60
2,64428, Note_on_c, 0, 65, 50
2,64635, Note_on_c, 0, 77, 61
2,64644, Note_on_c, 0, 73, 0
2,64678, Note_on_c, 0, 77, 0
2,64740, Note_on_c, 0, 61, 0
2,64896, Note_on_c, 0, 77, 71
2,64905, Note_on_c, 0, 58, 52
2,65116, Note_on_c, 0, 73, 67
2,65159, Note_on_c, 0, 73, 0
2,65168, Note_on_c, 0, 77, 0
2,65175, Note_on_c, 0, 65, 0
2,65225, Note_on_c, 0, 58, 0
2,65362, Note_on_c, 0, 72, 72
2,65367, Note_on_c, 0, 57, 57
2,65589, Note_on_c, 0, 77, 71
2,65626, Note_on_c, 0, 72, 0
2,65654, Note_on_c, 0, 77, 0
2,65686, Note_on_c, 0, 57, 0
2,65832, Note_on_c, 0, 77, 72
2,65841, Note_on_c, 0, 69, 66
2,65843, Note_on_c, 0, 53, 52
2,66058, Note_on_c, 0, 72, 69
2,66080, Note_on_c, 0, 77, 0
2,66089, Note_on_c, 0, 69, 0
2,66105, Note_on_c, 0, 72, 0
2,66312, Note_on_c, 0, 73, 73
2,66332, Note_on_c, 0, 70, 49
2,66337, Note_on_c, 0, 58, 52
2,66389, Note_on_c, 0, 53, 0
2,66539, Note_on_c, 0, 61, 59
2,66555, Note_on_c, 0, 58, 0
2,66585, Note_on_c, 0, 61, 0
2,66786, Note_on_c, 0, 77, 81
2,66808, Note_on_c, 0, 61, 51
2,66879, Note_on_c, 0, 73, 0
2,67019, Note_on_c, 0, 58, 56
2,67028, Note_on_c, 0, 61, 0
2,67090, Note_on_c, 0, 58, 0
2,67256, Note_on_c, 0, 82, 79
2,67270, Note_on_c, 0, 54, 53
2,67438, Note_on_c, 0, 77, 0
2,67496, Note_on_c, 0, 58, 51
2,67547, Note_on_c, 0, 54, 0
2,67556, Note_on_c, 0, 58, 0
2,67661, Note_on_c, 0, 70, 0
2,67730, Note_on_c, 0, 73, 73
2,67764, Note_on_c, 0, 58, 46
2,67967, Note_on_c, 0, 54, 52
2,68014, Note_on_c, 0, 58, 0
2,68018, Note_on_c, 0, 73, 0
2,68019, Note_on_c, 0, 54, 0
2,68230, Note_on_c, 0, 51, 50
2,68238, Note_on_c, 0, 71, 68
2,68461, Note_on_c, 0, 59, 53
2,68503, Note_on_c, 0, 51, 0
2,68515, Note_on_c, 0, 59, 0
2,68711, Note_on_c, 0, 80, 74
2,68729, Note_on_c, 0, 59, 46
2,68782, Note_on_c, 0, 82, 0
2,68936, Note_on_c, 0, 78, 75
2,68947, Note_on_c, 0, 56, 54
2,68947, Note_on_c, 0, 80, 0
2,68954, Note_on_c, 0, 59, 0
2,69043, Note_on_c, 0, 56, 0
2,69178, Note_on_c, 0, 71, 0
2,69197, Note_on_c, 0, 80, 72
2,69201, Note_on_c, 0, 53, 51
2,69245, Note_on_c, 0, 78, 0
2,69437, Note_on_c, 0, 56, 61
2,69490, Note_on_c, 0, 56, 0
2,69498, Note_on_c, 0, 53, 0
2,69689, Note_on_c, 0, 71, 65
2,69698, Note_on_c, 0, 56, 53
2,69885, Note_on_c, 0, 56, 0
2,69919, Note_on_c, 0, 53, 56
2,69973, Note_on_c, 0, 53, 0
2,70005, Note_on_c, 0, 71, 0
2,70162, Note_on_c, 0, 70, 66
2,70166, Note_on_c, 0, 50, 48
2,70381, Note_on_c, 0, 58, 54
2,70429, Note_on_c, 0, 50, 0
2,70442, Note_on_c, 0, 58, 0
2,70635, Note_on_c, 0, 78, 75
2,70652, Note_on_c, 0, 58, 57
2,70836, Note_on_c, 0, 80, 0
2,70870, Note_on_c, 0, 77, 71
2,70879, Note_on_c, 0, 54, 53
2,70897, Note_on_c, 0, 58, 0
2,70973, Note_on_c, 0, 78, 0
2,70980, Note_on_c, 0, 70, 0
2,70984, Note_on_c, 0, 54, 0
2,71113, Note_on_c, 0, 78, 73
2,71130, Note_on_c, 0, 51, 50
2,71139, Note_on_c, 0, 77, 0
2,71347, Note_on_c, 0, 54, 57
2,71410, Note_on_c, 0, 51, 0
2,71426, Note_on_c, 0, 54, 0
2,71601, Note_on_c, 0, 54, 56
2,71607, Note_on_c, 0, 70, 66
2,71824, Note_on_c, 0, 51, 63
2,71830, Note_on_c, 0, 54, 0
2,71875, Note_on_c, 0, 51, 0
2,71921, Note_on_c, 0, 70, 0
2,72081, Note_on_c, 0, 47, 55
2,72081, Note_on_c, 0, 68, 73
2,72307, Note_on_c, 0, 51, 69
2,72336, Note_on_c, 0, 78, 0
2,72358, Note_on_c, 0, 47, 0
2,72373, Note_on_c, 0, 51, 0
2,72546, Note_on_c, 0, 51, 62
2,72551, Note_on_c, 0, 78, 80
2,72738, Note_on_c, 0, 51, 0
2,72779, Note_on_c, 0, 47, 66
2,72871, Note_on_c, 0, 47, 0
2,72984, Note_on_c, 0, 78, 0
2,73040, Note_on_c, 0, 44, 65
2,73046, Note_on_c, 0, 77, 81
2,73268, Note_on_c, 0, 47, 70
2,73334, Note_on_c, 0, 44, 0
2,73348, Note_on_c, 0, 47, 0
2,73518, Note_on_c, 0, 75, 70
2,73522, Note_on_c, 0, 47, 67
2,73630, Note_on_c, 0, 77, 0
2,73737, Note_on_c, 0, 44, 68
2,73788, Note_on_c, 0, 68, 0
2,73811, Note_on_c, 0, 47, 0
2,73875, Note_on_c, 0, 44, 0
2,73892, Note_on_c, 0, 75, 0
2,74021, Note_on_c, 0, 46, 68
2,74033, Note_on_c, 0, 74, 70
2,74277, Note_on_c, 0, 71, 56
2,74374, Note_on_c, 0, 46, 0
2,74517, Note_on_c, 0, 46, 71
2,74517, Note_on_c, 0, 70, 65
2,74596, Note_on_c, 0, 74, 0
2,74690, Note_on_c, 0, 71, 0
2,74736, Note_on_c, 0, 68, 71
2,74766, Note_on_c, 0, 70, 0
2,74995, Note_on_c, 0, 51, 73
2,75005, Note_on_c, 0, 68, 0
2,75014, Note_on_c, 0, 66, 63
2,75070, Note_on_c, 0, 46, 0
2,75215, Note_on_c, 0, 68, 72
2,75230, Note_on_c, 0, 66, 0
2,75474, Note_on_c, 0, 50, 74
2,75496, Note_on_c, 0, 70, 62
2,75515, Note_on_c, 0, 51, 0
2,75663, Note_on_c, 0, 68, 0
2,75687, Note_on_c, 0, 70, 0
2,75716, Note_on_c, 0, 65, 66
2,75965, Note_on_c, 0, 65, 0
2,75969, Note_on_c, 0, 51, 71
2,75969, Note_on_c, 0, 66, 68
2,75974, Note_on_c, 0, 50, 0
2,76195, Note_on_c, 0, 68, 69
2,76208, Note_on_c, 0, 66, 0
2,76449, Note_on_c, 0, 49, 62
2,76458, Note_on_c, 0, 68, 0
2,76458, Note_on_c, 0, 70, 70
2,76483, Note_on_c, 0, 63, 54
2,76653, Note_on_c, 0, 51, 0
2,76680, Note_on_c, 0, 65, 62
2,76687, Note_on_c, 0, 47, 63
2,76687, Note_on_c, 0, 63, 0
2,76702, Note_on_c, 0, 49, 0
2,76758, Note_on_c, 0, 65, 0
2,76918, Note_on_c, 0, 46, 53
2,76930, Note_on_c, 0, 66, 59
2,76980, Note_on_c, 0, 47, 0
2,77116, Note_on_c, 0, 46, 0
2,77152, Note_on_c, 0, 47, 57
2,77159, Note_on_c, 0, 63, 52
2,77203, Note_on_c, 0, 63, 0
2,77212, Note_on_c, 0, 66, 0
2,77219, Note_on_c, 0, 70, 0
2,77263, Note_on_c, 0, 47, 0
2,77279, Note_on_c, 0, 46, 60
2,77341, Note_on_c, 0, 46, 0
2,77383, Note_on_c, 0, 47, 57
2,77411, Note_on_c, 0, 75, 70
2,77415, Note_on_c, 0, 63, 62
2,77490, Note_on_c, 0, 47, 0
2,77497, Note_on_c, 0, 46, 61
2,77562, Note_on_c, 0, 46, 0
2,77596, Note_on_c, 0, 63, 0
2,77621, Note_on_c, 0, 44, 62
2,77621, Note_on_c, 0, 66, 62
2,77643, Note_on_c, 0, 75, 0
2,77667, Note_on_c, 0, 66, 0
2,77729, Note_on_c, 0, 46, 63
2,77778, Note_on_c, 0, 44, 0
2,77836, Note_on_c, 0, 46, 0
2,77866, Note_on_c, 0, 68, 69
2,77870, Note_on_c, 0, 47, 64
2,77870, Note_on_c, 0, 75, 68
2,78114, Note_on_c, 0, 63, 62
2,78128, Note_on_c, 0, 68, 0
2,78158, Note_on_c, 0, 63, 0
2,78366, Note_on_c, 0, 63, 60
2,78562, Note_on_c, 0, 68, 63
2,78578, Note_on_c, 0, 63, 0
2,78615, Note_on_c, 0, 68, 0
2,78832, Note_on_c, 0, 70, 58
2,79054, Note_on_c, 0, 47, 0
2,79061, Note_on_c, 0, 63, 54
2,79101, Note_on_c, 0, 63, 0
2,79134, Note_on_c, 0, 70, 0
2,79298, Note_on_c, 0, 46, 68
2,79322, Note_on_c, 0, 63, 56
2,79517, Note_on_c, 0, 70, 62
2,79561, Note_on_c, 0, 63, 0
2,79583, Note_on_c, 0, 70, 0
2,79798, Note_on_c, 0, 44, 69
2,79798, Note_on_c, 0, 71, 63
2,79826, Note_on_c, 0, 46, 0
2,80024, Note_on_c, 0, 63, 66
2,80066, Note_on_c, 0, 63, 0
2,80066, Note_on_c, 0, 71, 0
2,80286, Note_on_c, 0, 42, 63
2,80286, Note_on_c, 0, 44, 0
2,80295, Note_on_c, 0, 63, 65
2,80445, Note_on_c, 0, 75, 0
2,80501, Note_on_c, 0, 71, 61
2,80528, Note_on_c, 0, 63, 0
2,80553, Note_on_c, 0, 71, 0
2,80756, Note_on_c, 0, 41, 60
2,80756, Note_on_c, 0, 74, 72
2,80774, Note_on_c, 0, 68, 64
2,80805, Note_on_c, 0, 42, 0
2,80956, Note_on_c, 0, 74, 0
2,80989, Note_on_c, 0, 63, 63
2,81046, Note_on_c, 0, 63, 0
2,81244, Note_on_c, 0, 63, 60
2,81257, Note_on_c, 0, 46, 58
2,81290, Note_on_c, 0, 41, 0
2,81413, Note_on_c, 0, 63, 0
2,81461, Note_on_c, 0, 74, 63
2,81519, Note_on_c, 0, 68, 0
2,81591, Note_on_c, 0, 74, 0
2,81735, Note_on_c, 0, 75, 63
2,81739, Note_on_c, 0, 39, 56
2,81839, Note_on_c, 0, 46, 0
2,81953, Note_on_c, 0, 66, 67
2,82155, Note_on_c, 0, 66, 0
2,82200, Note_on_c, 0, 68, 69
2,82233, Note_on_c, 0, 42, 63
2,82244, Note_on_c, 0, 75, 0
2,82402, Note_on_c, 0, 39, 0
2,82425, Note_on_c, 0, 70, 73
2,82430, Note_on_c, 0, 68, 0
2,82642, Note_on_c, 0, 70, 0
2,82679, Note_on_c, 0, 71, 72
2,82684, Note_on_c, 0, 44, 68
2,82806, Note_on_c, 0, 42, 0
2,82919, Note_on_c, 0, 77, 71
2,83139, Note_on_c, 0, 77, 0
2,83145, Note_on_c, 0, 78, 76
2,83350, Note_on_c, 0, 71, 0
2,83380, Note_on_c, 0, 44, 0
2,83386, Note_on_c, 0, 80, 78
2,83438, Note_on_c, 0, 78, 0
2,83607, Note_on_c, 0, 80, 0
2,83612, Note_on_c, 0, 74, 74
2,83623, Note_on_c, 0, 70, 71
2,83767, Note_on_c, 0, 70, 0
2,83847, Note_on_c, 0, 53, 58
2,83847, Note_on_c, 0, 83, 80
2,83852, Note_on_c, 0, 74, 0
2,84081, Note_on_c, 0, 82, 82
2,84086, Note_on_c, 0, 53, 0
2,84095, Note_on_c, 0, 54, 60
2,84121, Note_on_c, 0, 83, 0
2,84315, Note_on_c, 0, 56, 59
2,84320, Note_on_c, 0, 54, 0
2,84320, Note_on_c, 0, 75, 78
2,84332, Note_on_c, 0, 82, 0
2,84535, Note_on_c, 0, 56, 0
2,84535, Note_on_c, 0, 80, 70
2,84559, Note_on_c, 0, 58, 52
2,84592, Note_on_c, 0, 80, 0
2,84598, Note_on_c, 0, 78, 83
2,84632, Note_on_c, 0, 75, 0
2,84661, Note_on_c, 0, 80, 69
2,84669, Note_on_c, 0, 78, 0
2,84726, Note_on_c, 0, 78, 72
2,84744, Note_on_c, 0, 80, 0
2,85021, Note_on_c, 0, 78, 0
2,85056, Note_on_c, 0, 77, 69
2,85073, Note_on_c, 0, 46, 37
2,85073, Note_on_c, 0, 74, 44
2,85125, Note_on_c, 0, 74, 0
2,85288, Note_on_c, 0, 75, 73
2,85327, Note_on_c, 0, 77, 0
2,85387, Note_on_c, 0, 75, 0
2,85423, Note_on_c, 0, 46, 0
2,85478, Note_on_c, 0, 58, 0
2,85536, Note_on_c, 0, 75, 71
2,85553, Note_on_c, 0, 51, 43
2,85781, Note_on_c, 0, 58, 56
2,85811, Note_on_c, 0, 51, 0
2,85831, Note_on_c, 0, 58, 0
2,86002, Note_on_c, 0, 78, 81
2,86032, Note_on_c, 0, 58, 49
2,86164, Note_on_c, 0, 75, 0
2,86260, Note_on_c, 0, 54, 50
2,86271, Note_on_c, 0, 58, 0
2,86422, Note_on_c, 0, 54, 0
2,86509, Note_on_c, 0, 83, 78
2,86530, Note_on_c, 0, 51, 47
2,86743, Note_on_c, 0, 54, 58
2,86766, Note_on_c, 0, 51, 0
2,86795, Note_on_c, 0, 54, 0
2,86804, Note_on_c, 0, 78, 0
2,86991, Note_on_c, 0, 82, 78
2,87007, Note_on_c, 0, 54, 50
2,87129, Note_on_c, 0, 83, 0
2,87204, Note_on_c, 0, 54, 0
2,87210, Note_on_c, 0, 51, 61
2,87257, Note_on_c, 0, 51, 0
2,87470, Note_on_c, 0, 83, 77
2,87482, Note_on_c, 0, 44, 57
2,87539, Note_on_c, 0, 82, 0
2,87603, Note_on_c, 0, 44, 0
2,87727, Note_on_c, 0, 63, 59
2,87772, Note_on_c, 0, 63, 0
2,87968, Note_on_c, 0, 75, 73
2,87989, Note_on_c, 0, 63, 53
2,88128, Note_on_c, 0, 63, 0
2,88178, Note_on_c, 0, 59, 56
2,88267, Note_on_c, 0, 59, 0
2,88450, Note_on_c, 0, 80, 73
2,88465, Note_on_c, 0, 56, 51
2,88484, Note_on_c, 0, 75, 0
2,88698, Note_on_c, 0, 59, 56
2,88725, Note_on_c, 0, 56, 0
2,88747, Note_on_c, 0, 59, 0
2,88940, Note_on_c, 0, 78, 76
2,88949, Note_on_c, 0, 59, 46
2,89082, Note_on_c, 0, 80, 0
2,89149, Note_on_c, 0, 59, 0
2,89176, Note_on_c, 0, 56, 56
2,89220, Note_on_c, 0, 56, 0
2,89436, Note_on_c, 0, 53, 47
2,89436, Note_on_c, 0, 80, 72
2,89640, Note_on_c, 0, 83, 0
2,89669, Note_on_c, 0, 56, 54
2,89700, Note_on_c, 0, 53, 0
2,89722, Note_on_c, 0, 56, 0
2,89918, Note_on_c, 0, 77, 79
2,89924, Note_on_c, 0, 56, 52
2,90021, Note_on_c, 0, 78, 0
2,90058, Note_on_c, 0, 56, 0
2,90136, Note_on_c, 0, 53, 55
2,90194, Note_on_c, 0, 53, 0
2,90406, Note_on_c, 0, 49, 46
2,90410, Note_on_c, 0, 82, 76
2,90619, Note_on_c, 0, 77, 0
2,90639, Note_on_c, 0, 53, 52
2,90639, Note_on_c, 0, 80, 0
2,90688, Note_on_c, 0, 49, 0
2,90695, Note_on_c, 0, 53, 0
2,90871, Note_on_c, 0, 80, 72
2,90882, Note_on_c, 0, 53, 52
2,91040, Note_on_c, 0, 53, 0
2,91096, Note_on_c, 0, 49, 46
2,91149, Note_on_c, 0, 49, 0
2,91155, Note_on_c, 0, 82, 0
2,91371, Note_on_c, 0, 42, 50
2,91371, Note_on_c, 0, 82, 67
2,91464, Note_on_c, 0, 42, 0
2,91611, Note_on_c, 0, 61, 53
2,91654, Note_on_c, 0, 61, 0
2,91821, Note_on_c, 0, 80, 0
2,91849, Note_on_c, 0, 61, 44
2,91849, Note_on_c, 0, 73, 65
2,92074, Note_on_c, 0, 58, 59
2,92081, Note_on_c, 0, 61, 0
2,92121, Note_on_c, 0, 58, 0
2,92335, Note_on_c, 0, 54, 51
2,92347, Note_on_c, 0, 78, 64
2,92370, Note_on_c, 0, 73, 0
2,92553, Note_on_c, 0, 58, 55
2,92605, Note_on_c, 0, 58, 0
2,92632, Note_on_c, 0, 54, 0
2,92816, Note_on_c, 0, 58, 49
2,92816, Note_on_c, 0, 77, 65
2,92825, Note_on_c, 0, 78, 0
2,93031, Note_on_c, 0, 58, 0
2,93044, Note_on_c, 0, 54, 51
2,93091, Note_on_c, 0, 54, 0
2,93298, Note_on_c, 0, 78, 66
2,93307, Note_on_c, 0, 51, 46
2,93536, Note_on_c, 0, 54, 44
2,93562, Note_on_c, 0, 82, 0
2,93566, Note_on_c, 0, 51, 0
2,93571, Note_on_c, 0, 77, 0
2,93589, Note_on_c, 0, 54, 0
2,93777, Note_on_c, 0, 82, 76
2,93782, Note_on_c, 0, 54, 47
2,93796, Note_on_c, 0, 73, 60
2,93999, Note_on_c, 0, 51, 56
2,94024, Note_on_c, 0, 54, 0
2,94042, Note_on_c, 0, 78, 0
2,94068, Note_on_c, 0, 51, 0
2,94242, Note_on_c, 0, 80, 82
2,94266, Note_on_c, 0, 47, 56
2,94266, Note_on_c, 0, 75, 65
2,94478, Note_on_c, 0, 51, 65
2,94536, Note_on_c, 0, 47, 0
2,94545, Note_on_c, 0, 82, 0
2,94558, Note_on_c, 0, 51, 0
2,94637, Note_on_c, 0, 80, 0
2,94731, Note_on_c, 0, 51, 62
2,94736, Note_on_c, 0, 78, 84
2,94803, Note_on_c, 0, 73, 0
2,94922, Note_on_c, 0, 51, 0
2,94955, Note_on_c, 0, 47, 61
2,95027, Note_on_c, 0, 47, 0
2,95119, Note_on_c, 0, 78, 0
2,95220, Note_on_c, 0, 49, 60
2,95224, Note_on_c, 0, 77, 75
2,95457, Note_on_c, 0, 68, 65
2,95486, Note_on_c, 0, 75, 0
2,95512, Note_on_c, 0, 68, 0
2,95651, Note_on_c, 0, 49, 0
2,95722, Note_on_c, 0, 37, 49
2,95722, Note_on_c, 0, 68, 69
2,95930, Note_on_c, 0, 73, 65
2,95981, Note_on_c, 0, 68, 0
2,96007, Note_on_c, 0, 73, 0
2,96021, Note_on_c, 0, 77, 0
2,96178, Note_on_c, 0, 76, 81
2,96192, Note_on_c, 0, 37, 0
2,96197, Note_on_c, 0, 73, 71
2,96412, Note_on_c, 0, 68, 66
2,96476, Note_on_c, 0, 68, 0
2,96648, Note_on_c, 0, 73, 0
2,96666, Note_on_c, 0, 61, 63
2,96682, Note_on_c, 0, 68, 68
2,96896, Note_on_c, 0, 71, 69
2,96900, Note_on_c, 0, 59, 71
2,96900, Note_on_c, 0, 68, 0
2,96903, Note_on_c, 0, 61, 0
2,97120, Note_on_c, 0, 76, 0
2,97182, Note_on_c, 0, 61, 66
2,97188, Note_on_c, 0, 70, 64
2,97190, Note_on_c, 0, 71, 0
2,97205, Note_on_c, 0, 59, 0
2,97399, Note_on_c, 0, 73, 70
2,97475, Note_on_c, 0, 73, 0
2,97656, Note_on_c, 0, 54, 69
2,97678, Note_on_c, 0, 61, 0
2,97678, Note_on_c, 0, 73, 61
2,97890, Note_on_c, 0, 76, 69
2,97899, Note_on_c, 0, 73, 0
2,97961, Note_on_c, 0, 76, 0
2,98136, Note_on_c, 0, 59, 68
2,98156, Note_on_c, 0, 75, 60
2,98202, Note_on_c, 0, 54, 0
2,98357, Note_on_c, 0, 71, 61
2,98368, Note_on_c, 0, 75, 0
2,98408, Note_on_c, 0, 71, 0
2,98614, Note_on_c, 0, 58, 65
2,98614, Note_on_c, 0, 59, 0
2,98635, Note_on_c, 0, 71, 57
2,98844, Note_on_c, 0, 75, 56
2,98866, Note_on_c, 0, 71, 0
2,98889, Note_on_c, 0, 70, 0
2,98893, Note_on_c, 0, 75, 0
2,99102, Note_on_c, 0, 59, 56
2,99111, Note_on_c, 0, 75, 60
2,99115, Note_on_c, 0, 68, 59
2,99159, Note_on_c, 0, 58, 0
2,99344, Note_on_c, 0, 71, 54
2,99359, Note_on_c, 0, 75, 0
2,99399, Note_on_c, 0, 71, 0
2,99601, Note_on_c, 0, 53, 52
2,99610, Note_on_c, 0, 71, 52
2,99654, Note_on_c, 0, 59, 0
2,99807, Note_on_c, 0, 75, 59
2,99814, Note_on_c, 0, 71, 0
2,99866, Note_on_c, 0, 75, 0
2,100066, Note_on_c, 0, 58, 55
2,100078, Note_on_c, 0, 73, 56
2,100085, Note_on_c, 0, 53, 0
2,100292, Note_on_c, 0, 70, 60
2,100303, Note_on_c, 0, 73, 0
2,100331, Note_on_c, 0, 70, 0
2,100555, Note_on_c, 0, 56, 56
2,100563, Note_on_c, 0, 58, 0
2,100563, Note_on_c, 0, 70, 61
2,100784, Note_on_c, 0, 73, 61
2,100819, Note_on_c, 0, 70, 0
2,100827, Note_on_c, 0, 68, 0
2,100832, Note_on_c, 0, 73, 0
2,101041, Note_on_c, 0, 58, 53
2,101048, Note_on_c, 0, 66, 64
2,101048, Note_on_c, 0, 73, 62
2,101059, Note_on_c, 0, 56, 0
2,101297, Note_on_c, 0, 70, 46
2,101306, Note_on_c, 0, 73, 0
2,101347, Note_on_c, 0, 70, 0
2,101561, Note_on_c, 0, 51, 49
2,101566, Note_on_c, 0, 70, 53
2,101643, Note_on_c, 0, 58, 0
2,101758, Note_on_c, 0, 73, 66
2,101763, Note_on_c, 0, 70, 0
2,101806, Note_on_c, 0, 73, 0
2,102030, Note_on_c, 0, 71, 54
2,102034, Note_on_c, 0, 56, 49
2,102113, Note_on_c, 0, 51, 0
2,102214, Note_on_c, 0, 71, 0
2,102238, Note_on_c, 0, 68, 62
2,102278, Note_on_c, 0, 68, 0
2,102495, Note_on_c, 0, 54, 48
2,102506, Note_on_c, 0, 68, 53
2,102550, Note_on_c, 0, 56, 0
2,102706, Note_on_c, 0, 68, 0
2,102706, Note_on_c, 0, 71, 56
2,102749, Note_on_c, 0, 71, 0
2,102764, Note_on_c, 0, 66, 0
2,102975, Note_on_c, 0, 56, 42
2,102975, Note_on_c, 0, 71, 52
2,102980, Note_on_c, 0, 65, 50
2,103015, Note_on_c, 0, 54, 0
2,103198, Note_on_c, 0, 68, 52
2,103243, Note_on_c, 0, 68, 0
2,103273, Note_on_c, 0, 71, 0
2,103456, Note_on_c, 0, 49, 36
2,103469, Note_on_c, 0, 68, 47
2,103511, Note_on_c, 0, 56, 0
2,103652, Note_on_c, 0, 68, 0
2,103657, Note_on_c, 0, 71, 58
2,103709, Note_on_c, 0, 71, 0
2,103928, Note_on_c, 0, 70, 50
2,103935, Note_on_c, 0, 54, 42
2,103990, Note_on_c, 0, 49, 0
2,104141, Note_on_c, 0, 71, 50
2,104175, Note_on_c, 0, 70, 0
2,104319, Note_on_c, 0, 65, 0
2,104379, Note_on_c, 0, 54, 0
2,104399, Note_on_c, 0, 53, 39
2,104403, Note_on_c, 0, 73, 52
2,104408, Note_on_c, 0, 71, 0
2,104605, Note_on_c, 0, 73, 0
2,104611, Note_on_c, 0, 68, 57
2,104680, Note_on_c, 0, 53, 0
2,104878, Note_on_c, 0, 54, 44
2,104878, Note_on_c, 0, 70, 52
2,104947, Note_on_c, 0, 68, 0
2,105120, Note_on_c, 0, 58, 52
2,105162, Note_on_c, 0, 54, 0
2,105179, Note_on_c, 0, 58, 0
2,105360, Note_on_c, 0, 58, 45
2,105360, Note_on_c, 0, 73, 65
2,105371, Note_on_c, 0, 70, 0
2,105375, Note_on_c, 0, 66, 56
2,105588, Note_on_c, 0, 54, 49
2,105636, Note_on_c, 0, 66, 0
2,105669, Note_on_c, 0, 58, 0
2,105747, Note_on_c, 0, 54, 0
2,105850, Note_on_c, 0, 51, 51
2,105850, Note_on_c, 0, 71, 67
2,105855, Note_on_c, 0, 73, 0
2,105855, Note_on_c, 0, 75, 60
2,105965, Note_on_c, 0, 51, 0
2,106061, Note_on_c, 0, 54, 58
2,106117, Note_on_c, 0, 54, 0
2,106235, Note_on_c, 0, 75, 0
2,106326, Note_on_c, 0, 70, 70
2,106326, Note_on_c, 0, 76, 65
2,106341, Note_on_c, 0, 54, 53
2,106367, Note_on_c, 0, 71, 0
2,106528, Note_on_c, 0, 54, 0
2,106540, Note_on_c, 0, 51, 62
2,106734, Note_on_c, 0, 51, 0
2,106779, Note_on_c, 0, 70, 0
2,106790, Note_on_c, 0, 71, 65
2,106802, Note_on_c, 0, 47, 46
2,106959, Note_on_c, 0, 76, 0
2,107014, Note_on_c, 0, 75, 60
2,107204, Note_on_c, 0, 75, 0
2,107244, Note_on_c, 0, 71, 0
2,107252, Note_on_c, 0, 73, 59
2,107258, Note_on_c, 0, 70, 59
2,107442, Note_on_c, 0, 70, 0
2,107473, Note_on_c, 0, 73, 0
2,107479, Note_on_c, 0, 47, 0
2,107479, Note_on_c, 0, 68, 61
2,107493, Note_on_c, 0, 76, 52
2,107709, Note_on_c, 0, 68, 0
2,107721, Note_on_c, 0, 66, 61
2,107728, Note_on_c, 0, 75, 57
2,107824, Note_on_c, 0, 76, 0
2,107942, Note_on_c, 0, 71, 63
2,107969, Note_on_c, 0, 75, 0
2,107984, Note_on_c, 0, 71, 0
2,108188, Note_on_c, 0, 59, 52
2,108196, Note_on_c, 0, 71, 66
2,108296, Note_on_c, 0, 59, 0
2,108382, Note_on_c, 0, 66, 0
2,108398, Note_on_c, 0, 64, 66
2,108424, Note_on_c, 0, 75, 54
2,108454, Note_on_c, 0, 71, 0
2,108471, Note_on_c, 0, 75, 0
2,108507, Note_on_c, 0, 64, 0
2,108537, Note_on_c, 0, 66, 66
2,108593, Note_on_c, 0, 66, 0
2,108655, Note_on_c, 0, 68, 66
2,108655, Note_on_c, 0, 76, 69
2,108670, Note_on_c, 0, 59, 56
2,108876, Note_on_c, 0, 71, 66
2,108880, Note_on_c, 0, 76, 0
2,108920, Note_on_c, 0, 71, 0
2,109132, Note_on_c, 0, 71, 70
2,109353, Note_on_c, 0, 76, 66
2,109388, Note_on_c, 0, 71, 0
2,109400, Note_on_c, 0, 76, 0
2,109591, Note_on_c, 0, 78, 70
2,109726, Note_on_c, 0, 68, 0
2,109828, Note_on_c, 0, 71, 63
2,109857, Note_on_c, 0, 78, 0
2,109864, Note_on_c, 0, 71, 0
2,110088, Note_on_c, 0, 71, 69
2,110100, Note_on_c, 0, 66, 58
2,110311, Note_on_c, 0, 78, 67
2,110352, Note_on_c, 0, 71, 0
2,110372, Note_on_c, 0, 78, 0
2,110565, Note_on_c, 0, 80, 64
2,110576, Note_on_c, 0, 64, 62
2,110603, Note_on_c, 0, 66, 0
2,110817, Note_on_c, 0, 71, 61
2,110827, Note_on_c, 0, 80, 0
2,110857, Note_on_c, 0, 71, 0
2,111053, Note_on_c, 0, 63, 55
2,111062, Note_on_c, 0, 71, 63
2,111121, Note_on_c, 0, 64, 0
2,111263, Note_on_c, 0, 80, 62
2,111300, Note_on_c, 0, 71, 0
2,111309, Note_on_c, 0, 80, 0
2,111523, Note_on_c, 0, 63, 0
2,111532, Note_on_c, 0, 61, 49
2,111536, Note_on_c, 0, 82, 57
2,111775, Note_on_c, 0, 71, 59
2,111815, Note_on_c, 0, 82, 0
2,111824, Note_on_c, 0, 71, 0
2,111998, Note_on_c, 0, 61, 0
2,112036, Note_on_c, 0, 66, 47
2,112036, Note_on_c, 0, 71, 55
2,112254, Note_on_c, 0, 82, 51
2,112274, Note_on_c, 0, 71, 0
2,112307, Note_on_c, 0, 82, 0
2,112416, Note_on_c, 0, 59, 0
2,112472, Note_on_c, 0, 66, 0
2,112510, Note_on_c, 0, 83, 51
2,112533, Note_on_c, 0, 63, 48
2,112716, Note_on_c, 0, 83, 0
2,112762, Note_on_c, 0, 63, 0
2,112773, Note_on_c, 0, 58, 46
2,112996, Note_on_c, 0, 58, 0
2,113003, Note_on_c, 0, 56, 50
2,113003, Note_on_c, 0, 63, 58
2,113216, Note_on_c, 0, 56, 0
2,113230, Note_on_c, 0, 54, 53
2,113445, Note_on_c, 0, 54, 0
2,113486, Note_on_c, 0, 52, 51
2,113501, Note_on_c, 0, 68, 63
2,113513, Note_on_c, 0, 63, 0
2,113707, Note_on_c, 0, 61, 52
2,113751, Note_on_c, 0, 52, 0
2,113756, Note_on_c, 0, 61, 0
2,113953, Note_on_c, 0, 61, 48
2,113967, Note_on_c, 0, 67, 59
2,114031, Note_on_c, 0, 68, 0
2,114182, Note_on_c, 0, 52, 52
2,114198, Note_on_c, 0, 61, 0
2,114262, Note_on_c, 0, 52, 0
2,114442, Note_on_c, 0, 67, 0
2,114453, Note_on_c, 0, 51, 49
2,114457, Note_on_c, 0, 68, 58
2,114694, Note_on_c, 0, 59, 52
2,114735, Note_on_c, 0, 51, 0
2,114747, Note_on_c, 0, 59, 0
2,114944, Note_on_c, 0, 75, 60
2,114955, Note_on_c, 0, 59, 54
2,115157, Note_on_c, 0, 59, 0
2,115175, Note_on_c, 0, 51, 57
2,115248, Note_on_c, 0, 51, 0
2,115422, Note_on_c, 0, 80, 65
2,115431, Note_on_c, 0, 49, 47
2,115451, Note_on_c, 0, 68, 0
2,115659, Note_on_c, 0, 58, 51
2,115704, Note_on_c, 0, 49, 0
2,115723, Note_on_c, 0, 58, 0
2,115828, Note_on_c, 0, 75, 0
2,115886, Note_on_c, 0, 79, 71
2,115905, Note_on_c, 0, 70, 56
2,115923, Note_on_c, 0, 58, 47
2,115953, Note_on_c, 0, 80, 0
2,116112, Note_on_c, 0, 58, 0
2,116126, Note_on_c, 0, 49, 49
2,116304, Note_on_c, 0, 79, 0
2,116336, Note_on_c, 0, 70, 0
2,116400, Note_on_c, 0, 80, 67
2,116404, Note_on_c, 0, 49, 0
2,116415, Note_on_c, 0, 47, 46
2,116415, Note_on_c, 0, 71, 63
2,116535, Control_c, 0, 64, 25
2,116555, Control_c, 0, 64, 52
2,116572, Control_c, 0, 64, 61
2,116592, Control_c, 0, 64, 63
2,116611, Control_c, 0, 64, 65
2,116631, Control_c, 0, 64, 69
2,116641, Note_on_c, 0, 49, 53
2,116652, Control_c, 0, 64, 78
2,116665, Note_on_c, 0, 47, 0
2,116669, Control_c, 0, 64, 86
2,116687, Note_on_c, 0, 71, 0
2,116688, Control_c, 0, 64, 88
2,116709, Control_c, 0, 64, 90
2,116727, Control_c, 0, 64, 92
2,116765, Control_c, 0, 64, 91
2,116787, Control_c, 0, 64, 89
2,116805, Control_c, 0, 64, 86
2,116824, Control_c, 0, 64, 81
2,116843, Control_c, 0, 64, 74
2,116862, Control_c, 0, 64, 65
2,116881, Control_c, 0, 64, 59
2,116886, Note_on_c, 0, 49, 0
2,116886, Note_on_c, 0, 82, 75
2,116899, Note_on_c, 0, 47, 53
2,116903, Control_c, 0, 64, 51
2,116908, Note_on_c, 0, 73, 63
2,116919, Control_c, 0, 64, 41
2,116940, Control_c, 0, 64, 22
2,116958, Control_c, 0, 64, 0
2,116979, Note_on_c, 0, 80, 0
2,117033, Control_c, 0, 64, 29
2,117054, Control_c, 0, 64, 50
2,117074, Control_c, 0, 64, 61
2,117094, Control_c, 0, 64, 65
2,117118, Control_c, 0, 64, 67
2,117118, Note_on_c, 0, 46, 62
2,117132, Note_on_c, 0, 47, 0
2,117136, Control_c, 0, 64, 71
2,117153, Control_c, 0, 64, 79
2,117172, Control_c, 0, 64, 87
2,117180, Note_on_c, 0, 73, 0
2,117191, Control_c, 0, 64, 93
2,117211, Control_c, 0, 64, 96
2,117230, Control_c, 0, 64, 97
2,117269, Control_c, 0, 64, 96
2,117288, Control_c, 0, 64, 94
2,117305, Control_c, 0, 64, 90
2,117326, Control_c, 0, 64, 82
2,117346, Control_c, 0, 64, 73
2,117354, Note_on_c, 0, 82, 0
2,117368, Control_c, 0, 64, 65
2,117368, Note_on_c, 0, 46, 0
2,117372, Note_on_c, 0, 83, 73
2,117383, Control_c, 0, 64, 58
2,117387, Note_on_c, 0, 44, 60
2,117402, Control_c, 0, 64, 46
2,117406, Note_on_c, 0, 75, 58
2,117422, Control_c, 0, 64, 25
2,117442, Control_c, 0, 64, 0
2,117479, Control_c, 0, 64, 13
2,117498, Control_c, 0, 64, 40
2,117517, Control_c, 0, 64, 57
2,117536, Control_c, 0, 64, 64
2,117555, Control_c, 0, 64, 68
2,117569, Note_on_c, 0, 75, 0
2,117576, Control_c, 0, 64, 72
2,117596, Control_c, 0, 64, 78
2,117602, Note_on_c, 0, 46, 66
2,117613, Control_c, 0, 64, 86
2,117633, Control_c, 0, 64, 93
2,117652, Control_c, 0, 64, 95
2,117706, Note_on_c, 0, 44, 0
2,117747, Control_c, 0, 64, 94
2,117766, Control_c, 0, 64, 91
2,117770, Note_on_c, 0, 83, 0
2,117788, Control_c, 0, 64, 85
2,117807, Control_c, 0, 64, 75
2,117824, Control_c, 0, 64, 65
2,117839, Note_on_c, 0, 46, 0
2,117839, Note_on_c, 0, 80, 79
2,117844, Control_c, 0, 64, 53
2,117847, Note_on_c, 0, 47, 56
2,117860, Note_on_c, 0, 71, 65
2,117865, Control_c, 0, 64, 36
2,117883, Control_c, 0, 64, 16
2,117901, Control_c, 0, 64, 11
2,117921, Control_c, 0, 64, 26
2,117940, Control_c, 0, 64, 47
2,117958, Control_c, 0, 64, 61
2,117978, Control_c, 0, 64, 67
2,117997, Control_c, 0, 64, 73
2,118010, Note_on_c, 0, 71, 0
2,118016, Control_c, 0, 64, 78
2,118027, Note_on_c, 0, 47, 0
2,118037, Control_c, 0, 64, 82
2,118041, Note_on_c, 0, 80, 0
2,118057, Control_c, 0, 64, 85
2,118071, Note_on_c, 0, 44, 58
2,118076, Control_c, 0, 64, 86
2,118189, Control_c, 0, 64, 85
2,118209, Control_c, 0, 64, 83
2,118232, Control_c, 0, 64, 81
2,118246, Control_c, 0, 64, 77
2,118266, Control_c, 0, 64, 73
2,118286, Control_c, 0, 64, 67
2,118305, Control_c, 0, 64, 63
2,118324, Control_c, 0, 64, 58
2,118324, Note_on_c, 0, 77, 69
2,118329, Note_on_c, 0, 49, 50
2,118342, Control_c, 0, 64, 53
2,118354, Note_on_c, 0, 68, 51
2,118363, Control_c, 0, 64, 46
2,118381, Control_c, 0, 64, 32
2,118400, Control_c, 0, 64, 0
2,118414, Note_on_c, 0, 44, 0
2,118534, Note_on_c, 0, 49, 0
2,118551, Note_on_c, 0, 51, 53
2,118794, Note_on_c, 0, 73, 68
2,118807, Note_on_c, 0, 49, 48
2,118818, Note_on_c, 0, 51, 0
2,118885, Note_on_c, 0, 77, 0
2,119012, Note_on_c, 0, 49, 0
2,119032, Note_on_c, 0, 47, 50
2,119272, Note_on_c, 0, 47, 0
2,119293, Note_on_c, 0, 78, 78
2,119298, Note_on_c, 0, 46, 49
2,119457, Control_c, 0, 64, 13
2,119478, Control_c, 0, 64, 9
2,119495, Control_c, 0, 64, 8
2,119500, Note_on_c, 0, 73, 0
2,119503, Note_on_c, 0, 68, 0
2,119508, Note_on_c, 0, 47, 58
2,119519, Note_on_c, 0, 46, 0
2,119534, Control_c, 0, 64, 11
2,119571, Control_c, 0, 64, 10
2,119611, Control_c, 0, 64, 11
2,119727, Control_c, 0, 64, 10
2,119744, Control_c, 0, 64, 9
2,119764, Control_c, 0, 64, 0
2,119768, Note_on_c, 0, 77, 80
2,119775, Note_on_c, 0, 47, 0
2,119785, Note_on_c, 0, 49, 52
2,119802, Note_on_c, 0, 73, 56
2,119911, Note_on_c, 0, 78, 0
2,119924, Note_on_c, 0, 49, 0
2,119991, Note_on_c, 0, 46, 52
2,120236, Note_on_c, 0, 51, 62
2,120240, Note_on_c, 0, 78, 76
2,120257, Note_on_c, 0, 70, 50
2,120262, Note_on_c, 0, 77, 0
2,120295, Note_on_c, 0, 73, 0
2,120419, Note_on_c, 0, 46, 0
2,120474, Note_on_c, 0, 51, 0
2,120474, Note_on_c, 0, 53, 61
2,120531, Control_c, 0, 64, 8
2,120723, Note_on_c, 0, 53, 0
2,120729, Note_on_c, 0, 54, 60
2,120734, Note_on_c, 0, 77, 77
2,120777, Note_on_c, 0, 78, 0
2,120860, Control_c, 0, 64, 9
2,120973, Note_on_c, 0, 75, 71
2,120979, Note_on_c, 0, 77, 0
2,121008, Note_on_c, 0, 70, 0
2,121012, Control_c, 0, 64, 10
2,121203, Note_on_c, 0, 73, 75
2,121205, Note_on_c, 0, 75, 0
2,121224, Control_c, 0, 64, 11
2,121241, Control_c, 0, 64, 12
2,121262, Control_c, 0, 64, 13
2,121415, Control_c, 0, 64, 14
2,121430, Note_on_c, 0, 73, 0
2,121436, Control_c, 0, 64, 15
2,121436, Note_on_c, 0, 75, 66
2,121445, Note_on_c, 0, 54, 0
2,121454, Note_on_c, 0, 53, 55
2,121511, Control_c, 0, 64, 16
2,121549, Note_on_c, 0, 75, 0
2,121558, Note_on_c, 0, 73, 72
2,121608, Control_c, 0, 64, 17
2,121638, Note_on_c, 0, 73, 0
2,121641, Note_on_c, 0, 53, 0
2,121658, Note_on_c, 0, 51, 56
2,121668, Note_on_c, 0, 70, 55
2,121677, Note_on_c, 0, 75, 70
2,121714, Note_on_c, 0, 70, 0
2,121769, Note_on_c, 0, 73, 73
2,121831, Note_on_c, 0, 75, 0
2,121870, Note_on_c, 0, 71, 71
2,121870, Note_on_c, 0, 73, 0
2,121879, Note_on_c, 0, 51, 0
2,121898, Note_on_c, 0, 49, 53
2,121971, Note_on_c, 0, 71, 0
2,121975, Note_on_c, 0, 73, 71
2,122028, Control_c, 0, 64, 16
2,122097, Note_on_c, 0, 49, 0
2,122117, Note_on_c, 0, 73, 0
2,122117, Note_on_c, 0, 75, 72
2,122128, Note_on_c, 0, 47, 50
2,122136, Note_on_c, 0, 68, 53
2,122332, Note_on_c, 0, 68, 0
2,122346, Note_on_c, 0, 47, 0
2,122354, Note_on_c, 0, 65, 59
2,122365, Note_on_c, 0, 49, 55
2,122572, Note_on_c, 0, 49, 0
2,122597, Note_on_c, 0, 66, 64
2,122603, Note_on_c, 0, 51, 55
2,122607, Control_c, 0, 64, 15
2,122609, Note_on_c, 0, 65, 0
2,122700, Control_c, 0, 64, 14
2,122761, Control_c, 0, 64, 13
2,122776, Control_c, 0, 64, 10
2,122791, Note_on_c, 0, 51, 0
2,122798, Control_c, 0, 64, 0
2,122825, Note_on_c, 0, 66, 0
2,122825, Note_on_c, 0, 70, 64
2,122830, Note_on_c, 0, 46, 48
2,123060, Note_on_c, 0, 47, 53
2,123067, Control_c, 0, 64, 18
2,123067, Note_on_c, 0, 68, 67
2,123074, Note_on_c, 0, 46, 0
2,123088, Control_c, 0, 64, 26
2,123105, Control_c, 0, 64, 35
2,123107, Note_on_c, 0, 75, 0
2,123126, Control_c, 0, 64, 42
2,123143, Control_c, 0, 64, 49
2,123162, Control_c, 0, 64, 53
2,123182, Control_c, 0, 64, 56
2,123201, Control_c, 0, 64, 58
2,123219, Control_c, 0, 64, 59
2,123260, Control_c, 0, 64, 60
2,123271, Note_on_c, 0, 47, 0
2,123277, Note_on_c, 0, 49, 55
2,123286, Note_on_c, 0, 65, 56
2,123296, Control_c, 0, 64, 61
2,123332, Note_on_c, 0, 70, 0
2,123342, Note_on_c, 0, 65, 0
2,123347, Note_on_c, 0, 68, 0
2,123411, Control_c, 0, 64, 60
2,123449, Control_c, 0, 64, 58
2,123469, Control_c, 0, 64, 57
2,123486, Note_on_c, 0, 49, 0
2,123490, Control_c, 0, 64, 52
2,123508, Control_c, 0, 64, 45
2,123527, Control_c, 0, 64, 30
2,123527, Note_on_c, 0, 73, 80
2,123547, Control_c, 0, 64, 0
2,123547, Note_on_c, 0, 51, 51
2,123561, Note_on_c, 0, 66, 47
2,123624, Control_c, 0, 64, 24
2,123641, Control_c, 0, 64, 44
2,123662, Control_c, 0, 64, 55
2,123682, Control_c, 0, 64, 60
2,123699, Control_c, 0, 64, 61
2,123752, Note_on_c, 0, 47, 47
2,123763, Control_c, 0, 64, 62
2,123763, Note_on_c, 0, 51, 0
2,123783, Note_on_c, 0, 73, 0
2,123798, Control_c, 0, 64, 63
2,123911, Control_c, 0, 64, 62
2,123928, Control_c, 0, 64, 61
2,123948, Control_c, 0, 64, 60
2,123968, Control_c, 0, 64, 57
2,123973, Note_on_c, 0, 47, 0
2,123988, Control_c, 0, 64, 51
2,124007, Control_c, 0, 64, 43
2,124016, Note_on_c, 0, 44, 50
2,124016, Note_on_c, 0, 71, 78
2,124027, Control_c, 0, 64, 32
2,124047, Control_c, 0, 64, 29
2,124065, Control_c, 0, 64, 31
2,124082, Control_c, 0, 64, 42
2,124100, Control_c, 0, 64, 55
2,124120, Control_c, 0, 64, 60
2,124138, Control_c, 0, 64, 61
2,124160, Control_c, 0, 64, 62
2,124197, Control_c, 0, 64, 63
2,124213, Note_on_c, 0, 66, 0
2,124236, Control_c, 0, 64, 64
2,124248, Note_on_c, 0, 65, 52
2,124292, Control_c, 0, 64, 65
2,124387, Control_c, 0, 64, 64
2,124428, Control_c, 0, 64, 63
2,124428, Note_on_c, 0, 65, 0
2,124446, Control_c, 0, 64, 62
2,124466, Control_c, 0, 64, 59
2,124483, Control_c, 0, 64, 55
2,124487, Note_on_c, 0, 70, 68
2,124507, Control_c, 0, 64, 48
2,124507, Note_on_c, 0, 46, 49
2,124521, Control_c, 0, 64, 37
2,124533, Note_on_c, 0, 66, 46
2,124536, Note_on_c, 0, 71, 0
2,124541, Control_c, 0, 64, 22
2,124565, Control_c, 0, 64, 15
2,124580, Control_c, 0, 64, 21
2,124595, Note_on_c, 0, 66, 0
2,124600, Control_c, 0, 64, 37
2,124618, Control_c, 0, 64, 53
2,124639, Control_c, 0, 64, 61
2,124644, Note_on_c, 0, 44, 0
2,124656, Control_c, 0, 64, 63
2,124668, Note_on_c, 0, 46, 0
2,124716, Control_c, 0, 64, 64
2,124720, Note_on_c, 0, 47, 46
2,124734, Control_c, 0, 64, 65
2,124772, Control_c, 0, 64, 66
2,124793, Control_c, 0, 64, 65
2,124848, Control_c, 0, 64, 64
2,124885, Control_c, 0, 64, 63
2,124906, Control_c, 0, 64, 62
2,124925, Control_c, 0, 64, 60
2,124944, Control_c, 0, 64, 58
2,124962, Control_c, 0, 64, 56
2,124982, Note_on_c, 0, 47, 0
2,124987, Control_c, 0, 64, 51
2,125001, Control_c, 0, 64, 41
2,125010, Note_on_c, 0, 68, 58
2,125021, Control_c, 0, 64, 18
2,125045, Control_c, 0, 64, 0
2,125045, Note_on_c, 0, 49, 35
2,125045, Note_on_c, 0, 70, 0
2,125139, Control_c, 0, 64, 28
2,125154, Control_c, 0, 64, 48
2,125175, Control_c, 0, 64, 60
2,125194, Control_c, 0, 64, 64
2,125214, Control_c, 0, 64, 65
2,125232, Control_c, 0, 64, 66
2,125254, Control_c, 0, 64, 67
2,125272, Control_c, 0, 64, 68
2,125290, Control_c, 0, 64, 70
2,125309, Control_c, 0, 64, 69
2,125385, Control_c, 0, 64, 68
2,125429, Control_c, 0, 64, 67
2,125444, Control_c, 0, 64, 64
2,125464, Control_c, 0, 64, 61
2,125464, Note_on_c, 0, 49, 0
2,125483, Control_c, 0, 64, 56
2,125501, Control_c, 0, 64, 47
2,125519, Control_c, 0, 64, 22
2,125526, Note_on_c, 0, 73, 61
2,125530, Note_on_c, 0, 68, 0
2,125542, Control_c, 0, 64, 0
2,125542, Note_on_c, 0, 37, 35
2,125547, Note_on_c, 0, 65, 40
2,125597, Control_c, 0, 64, 11
2,125617, Control_c, 0, 64, 43
2,125636, Control_c, 0, 64, 59
2,125656, Control_c, 0, 64, 65
2,125658, Note_on_c, 0, 65, 0
2,125675, Control_c, 0, 64, 67
2,125693, Control_c, 0, 64, 69
2,125713, Control_c, 0, 64, 70
2,125731, Control_c, 0, 64, 72
2,125749, Control_c, 0, 64, 73
2,125848, Control_c, 0, 64, 72
2,125867, Control_c, 0, 64, 71
2,125884, Control_c, 0, 64, 70
2,125893, Note_on_c, 0, 37, 0
2,125906, Control_c, 0, 64, 69
2,125925, Control_c, 0, 64, 67
2,125944, Control_c, 0, 64, 62
2,125962, Control_c, 0, 64, 53
2,125982, Control_c, 0, 64, 46
2,126001, Control_c, 0, 64, 44
2,126012, Note_on_c, 0, 73, 0
2,126019, Control_c, 0, 64, 48
2,126034, Note_on_c, 0, 70, 58
2,126039, Control_c, 0, 64, 55
2,126058, Control_c, 0, 64, 61
2,126062, Note_on_c, 0, 66, 51
2,126067, Note_on_c, 0, 42, 37
2,126078, Control_c, 0, 64, 63
2,126099, Control_c, 0, 64, 64
2,126115, Control_c, 0, 64, 65
2,126191, Control_c, 0, 64, 64
2,126211, Control_c, 0, 64, 62
2,126233, Control_c, 0, 64, 58
2,126251, Control_c, 0, 64, 52
2,126269, Control_c, 0, 64, 42
2,126280, Note_on_c, 0, 73, 64
2,126289, Control_c, 0, 64, 13
2,126313, Control_c, 0, 64, 0
2,126313, Note_on_c, 0, 70, 0
2,126329, Note_on_c, 0, 73, 0
2,126340, Note_on_c, 0, 42, 0
2,126544, Note_on_c, 0, 73, 70
2,126549, Note_on_c, 0, 54, 46
2,126769, Note_on_c, 0, 70, 61
2,126791, Note_on_c, 0, 66, 0
2,126805, Note_on_c, 0, 73, 0
2,126821, Note_on_c, 0, 70, 0
2,126839, Note_on_c, 0, 54, 0
2,127017, Note_on_c, 0, 68, 66
2,127024, Note_on_c, 0, 53, 43
2,127247, Note_on_c, 0, 73, 60
2,127252, Note_on_c, 0, 68, 0
2,127271, Note_on_c, 0, 53, 0
2,127300, Note_on_c, 0, 73, 0
2,127494, Note_on_c, 0, 73, 71
2,127509, Note_on_c, 0, 49, 45
2,127516, Note_on_c, 0, 65, 42
2,127712, Note_on_c, 0, 65, 0
2,127717, Note_on_c, 0, 68, 58
2,127737, Note_on_c, 0, 73, 0
2,127763, Note_on_c, 0, 49, 0
2,127767, Note_on_c, 0, 68, 0
2,127974, Note_on_c, 0, 70, 60
2,127991, Note_on_c, 0, 66, 51
2,127994, Note_on_c, 0, 54, 48
2,128214, Note_on_c, 0, 58, 54
2,128225, Note_on_c, 0, 54, 0
2,128267, Note_on_c, 0, 58, 0
2,128467, Note_on_c, 0, 58, 49
2,128467, Note_on_c, 0, 73, 82
2,128546, Note_on_c, 0, 70, 0
2,128668, Note_on_c, 0, 58, 0
2,128693, Note_on_c, 0, 54, 54
2,128753, Note_on_c, 0, 54, 0
2,128945, Note_on_c, 0, 78, 83
2,128965, Note_on_c, 0, 51, 45
2,129119, Note_on_c, 0, 66, 0
2,129143, Note_on_c, 0, 73, 0
2,129178, Note_on_c, 0, 51, 0
2,129199, Note_on_c, 0, 54, 50
2,129244, Note_on_c, 0, 54, 0
2,129435, Note_on_c, 0, 54, 39
2,129441, Note_on_c, 0, 70, 59
2,129655, Note_on_c, 0, 70, 0
2,129662, Note_on_c, 0, 51, 49
2,129692, Note_on_c, 0, 54, 0
2,129738, Note_on_c, 0, 51, 0
2,129924, Note_on_c, 0, 47, 37
2,129926, Note_on_c, 0, 68, 64
2,130153, Note_on_c, 0, 75, 57
2,130164, Note_on_c, 0, 68, 0
2,130172, Note_on_c, 0, 47, 0
2,130204, Note_on_c, 0, 75, 0
2,130445, Note_on_c, 0, 44, 42
2,130449, Note_on_c, 0, 75, 54
2,130700, Note_on_c, 0, 71, 53
2,130735, Note_on_c, 0, 44, 0
2,130744, Note_on_c, 0, 78, 0
2,130773, Note_on_c, 0, 75, 0
2,130798, Note_on_c, 0, 71, 0
2,130965, Note_on_c, 0, 77, 67
2,130988, Note_on_c, 0, 68, 38
2,130999, Note_on_c, 0, 49, 37
2,131187, Note_on_c, 0, 68, 0
2,131243, Note_on_c, 0, 73, 52
2,131300, Note_on_c, 0, 73, 0
2,131317, Note_on_c, 0, 49, 0
2,131606, Note_on_c, 0, 73, 44
2,131614, Note_on_c, 0, 37, 17
2,131847, Note_on_c, 0, 37, 0
2,131986, Note_on_c, 0, 73, 0
2,131997, Note_on_c, 0, 71, 51
2,132163, Control_c, 0, 64, 36
2,132183, Control_c, 0, 64, 49
2,132205, Control_c, 0, 64, 58
2,132221, Control_c, 0, 64, 62
2,132242, Control_c, 0, 64, 64
2,132259, Control_c, 0, 64, 66
2,132281, Control_c, 0, 64, 70
2,132300, Control_c, 0, 64, 76
2,132317, Control_c, 0, 64, 86
2,132325, Note_on_c, 0, 71, 0
2,132335, Control_c, 0, 64, 108
2,132355, Control_c, 0, 64, 127
2,132542, Note_on_c, 0, 77, 0
2,132856, Note_on_c, 0, 78, 47
2,132879, Note_on_c, 0, 42, 40
2,132879, Note_on_c, 0, 70, 40
2,132893, Control_c, 0, 64, 118
2,132913, Control_c, 0, 64, 93
2,132933, Control_c, 0, 64, 77
2,132953, Control_c, 0, 64, 65
2,132969, Control_c, 0, 64, 53
2,132986, Control_c, 0, 64, 39
2,133006, Control_c, 0, 64, 18
2,133025, Control_c, 0, 64, 0
2,133325, Control_c, 0, 64, 9
2,133344, Control_c, 0, 64, 35
2,133362, Control_c, 0, 64, 48
2,133382, Control_c, 0, 64, 54
2,133400, Control_c, 0, 64, 58
2,133422, Control_c, 0, 64, 59
2,133438, Control_c, 0, 64, 60
2,133457, Control_c, 0, 64, 62
2,133479, Control_c, 0, 64, 63
2,133499, Control_c, 0, 64, 64
2,133515, Control_c, 0, 64, 65
2,133538, Control_c, 0, 64, 66
2,133553, Control_c, 0, 64, 69
2,133575, Control_c, 0, 64, 72
2,133592, Control_c, 0, 64, 76
2,133611, Control_c, 0, 64, 81
2,133630, Control_c, 0, 64, 85
2,133651, Control_c, 0, 64, 89
2,133671, Control_c, 0, 64, 93
2,133689, Control_c, 0, 64, 95
2,134223, Control_c, 0, 64, 94
2,136067, Control_c, 0, 64, 93
2,136299, Note_on_c, 0, 70, 0
2,136566, Control_c, 0, 64, 92
2,136648, Note_on_c, 0, 78, 0
2,136779, Control_c, 0, 64, 91
2,136892, Control_c, 0, 64, 90
2,136990, Control_c, 0, 64, 89
2,137083, Control_c, 0, 64, 88
2,137181, Control_c, 0, 64, 87
2,137315, Control_c, 0, 64, 86
2,137371, Control_c, 0, 64, 85
2,137487, Control_c, 0, 64, 84
2,137543, Control_c, 0, 64, 83
2,137604, Control_c, 0, 64, 82
2,137643, Control_c, 0, 64, 81
2,137698, Control_c, 0, 64, 80
2,137715, Note_on_c, 0, 42, 0
2,137720, Control_c, 0, 64, 79
2,137755, Control_c, 0, 64, 78
2,137814, Control_c, 0, 64, 77
2,137870, Control_c, 0, 64, 76
2,137890, Control_c, 0, 64, 75
2,137909, Control_c, 0, 64, 74
2,137931, Control_c, 0, 64, 73
2,137966, Control_c, 0, 64, 71
2,137987, Control_c, 0, 64, 70
2,138005, Control_c, 0, 64, 69
2,138026, Control_c, 0, 64, 68
2,138044, Control_c, 0, 64, 67
2,138064, Control_c, 0, 64, 66
2,138085, Control_c, 0, 64, 65
2,138100, Control_c, 0, 64, 64
2,138178, Control_c, 0, 64, 63
2,138218, Control_c, 0, 64, 62
2,138254, Control_c, 0, 64, 61
2,138296, Control_c, 0, 64, 60
2,138311, Control_c, 0, 64, 59
2,138334, Control_c, 0, 64, 58
2,138350, Control_c, 0, 64, 57
2,138370, Control_c, 0, 64, 55
2,138388, Control_c, 0, 64, 53
2,138410, Control_c, 0, 64, 50
2,138428, Control_c, 0, 64, 45
2,138446, Control_c, 0, 64, 35
2,138468, Control_c, 0, 64, 22
2,138487, Control_c, 0, 64, 0
2,138488, End_track
0, 0, End_of_file
