0, 0, Header, 1, 2, 480
1, 0, Start_track
1, 0, Tempo, 500000
1, 0, Time_signature, 4, 2, 24, 8
1, 1, End_track
2, 0, Start_track
2, 0, Program_c, 0, 0
2, 0, Control_c, 0, 64, 0
2, 0, Control_c, 0, 67, 127
2, 1002, Note_on_c, 0, 66, 38
2, 1231, Note_on_c, 0, 70, 48
2, 1372, Note_on_c, 0, 66, 0
2, 1413, Note_on_c, 0, 70, 0
2, 1426, Note_on_c, 0, 73, 59
2, 1616, Note_on_c, 0, 70, 57
2, 1624, Note_on_c, 0, 73, 0
2, 1790, Note_on_c, 0, 70, 0
2, 1804, Note_on_c, 0, 66, 60
2, 2004, Note_on_c, 0, 73, 63
2, 2011, Note_on_c, 0, 66, 0
2, 2187, Note_on_c, 0, 54, 38
2, 2199, Note_on_c, 0, 73, 0
2, 2210, Note_on_c, 0, 75, 59
2, 2305, Note_on_c, 0, 75, 0
2, 2326, Note_on_c, 0, 73, 66
2, 2368, Note_on_c, 0, 73, 0
2, 2382, Note_on_c, 0, 75, 61
2, 2425, Note_on_c, 0, 58, 40
2, 2438, Note_on_c, 0, 54, 0
2, 2449, Note_on_c, 0, 73, 71
2, 2483, Note_on_c, 0, 75, 0
2, 2483, Note_on_c, 0, 75, 58
2, 2485, Note_on_c, 0, 73, 0
2, 2562, Note_on_c, 0, 75, 0
2, 2577, Note_on_c, 0, 73, 73
2, 2606, Note_on_c, 0, 58, 0
2, 2640, Note_on_c, 0, 61, 40
2, 2809, Note_on_c, 0, 61, 0
2, 2825, Note_on_c, 0, 58, 51
2, 2984, Note_on_c, 0, 58, 0
2, 3013, Note_on_c, 0, 54, 59
2, 3218, Note_on_c, 0, 63, 61
2, 3334, Note_on_c, 0, 54, 0
2, 3345, Note_on_c, 0, 63, 0
2, 3425, Note_on_c, 0, 63, 58
2, 3620, Note_on_c, 0, 73, 0
2, 3629, Note_on_c, 0, 70, 65
2, 3838, Note_on_c, 0, 71, 71
2, 3872, Note_on_c, 0, 70, 0
2, 4039, Note_on_c, 0, 61, 56
2, 4086, Note_on_c, 0, 63, 0
2, 4232, Note_on_c, 0, 73, 72
2, 4248, Note_on_c, 0, 71, 0
2, 4444, Note_on_c, 0, 70, 64
2, 4469, Note_on_c, 0, 73, 0
2, 4657, Note_on_c, 0, 59, 51
2, 4669, Note_on_c, 0, 61, 0
2, 4832, Note_on_c, 0, 75, 60
2, 4853, Note_on_c, 0, 70, 0
2, 5049, Note_on_c, 0, 68, 62
2, 5076, Note_on_c, 0, 75, 0
2, 5257, Note_on_c, 0, 58, 45
2, 5257, Note_on_c, 0, 59, 0
2, 5442, Note_on_c, 0, 70, 58
2, 5511, Note_on_c, 0, 68, 0
2, 5647, Note_on_c, 0, 70, 0
2, 5661, Note_on_c, 0, 66, 59
2, 5847, Note_on_c, 0, 58, 0
2, 5880, Note_on_c, 0, 56, 41
2, 6054, Note_on_c, 0, 66, 0
2, 6081, Note_on_c, 0, 71, 56
2, 6301, Note_on_c, 0, 65, 49
2, 6314, Note_on_c, 0, 71, 0
2, 6507, Note_on_c, 0, 54, 46
2, 6575, Note_on_c, 0, 56, 0
2, 6650, Note_on_c, 0, 65, 0
2, 6706, Note_on_c, 0, 71, 50
2, 6899, Note_on_c, 0, 71, 0
2, 6931, Note_on_c, 0, 63, 46
2, 7133, Note_on_c, 0, 53, 40
2, 7190, Note_on_c, 0, 54, 0
2, 7299, Note_on_c, 0, 63, 0
2, 7330, Note_on_c, 0, 71, 51
2, 7533, Note_on_c, 0, 61, 45
2, 7637, Note_on_c, 0, 71, 0
2, 7742, Note_on_c, 0, 65, 51
2, 7746, Note_on_c, 0, 49, 38
2, 7784, Note_on_c, 0, 61, 0
2, 7833, Note_on_c, 0, 53, 0
2, 7936, Note_on_c, 0, 65, 0
2, 7948, Note_on_c, 0, 68, 62
2, 8142, Note_on_c, 0, 71, 56
2, 8146, Note_on_c, 0, 68, 0
2, 8326, Note_on_c, 0, 71, 0
2, 8358, Note_on_c, 0, 70, 57
2, 8362, Note_on_c, 0, 54, 36
2, 8493, Note_on_c, 0, 49, 0
2, 8522, Note_on_c, 0, 70, 0
2, 8550, Note_on_c, 0, 66, 59
2, 8757, Note_on_c, 0, 66, 0
2, 8759, Note_on_c, 0, 72, 68
2, 8970, Note_on_c, 0, 56, 52
2, 9043, Note_on_c, 0, 54, 0
2, 9111, Note_on_c, 0, 72, 0
2, 9167, Note_on_c, 0, 66, 61
2, 9382, Note_on_c, 0, 73, 70
2, 9408, Note_on_c, 0, 66, 0
2, 9592, Note_on_c, 0, 58, 59
2, 9660, Note_on_c, 0, 56, 0
2, 9747, Note_on_c, 0, 73, 0
2, 9776, Note_on_c, 0, 66, 66
2, 9821, Note_on_c, 0, 65, 47
2, 9855, Note_on_c, 0, 65, 0
2, 10011, Note_on_c, 0, 75, 71
2, 10027, Note_on_c, 0, 66, 0
2, 10220, Note_on_c, 0, 60, 65
2, 10258, Note_on_c, 0, 58, 0
2, 10421, Note_on_c, 0, 75, 0
2, 10425, Note_on_c, 0, 68, 77
2, 10641, Note_on_c, 0, 77, 77
2, 10707, Note_on_c, 0, 68, 0
2, 10848, Note_on_c, 0, 61, 57
2, 10869, Note_on_c, 0, 60, 0
2, 11053, Note_on_c, 0, 80, 66
2, 11104, Note_on_c, 0, 77, 0
2, 11291, Note_on_c, 0, 73, 64
2, 11401, Note_on_c, 0, 80, 0
2, 11487, Note_on_c, 0, 56, 49
2, 11487, Note_on_c, 0, 61, 0
2, 11706, Note_on_c, 0, 75, 60
2, 11718, Note_on_c, 0, 73, 0
2, 11892, Note_on_c, 0, 75, 0
2, 11906, Note_on_c, 0, 72, 59
2, 12088, Note_on_c, 0, 56, 0
2, 12093, Note_on_c, 0, 58, 40
2, 12125, Note_on_c, 0, 73, 52
2, 12174, Note_on_c, 0, 72, 0
2, 12308, Note_on_c, 0, 73, 0
2, 12326, Note_on_c, 0, 77, 64
2, 12532, Note_on_c, 0, 73, 61
2, 12554, Note_on_c, 0, 77, 0
2, 12614, Note_on_c, 0, 73, 0
2, 12717, Note_on_c, 0, 58, 0
2, 12728, Note_on_c, 0, 53, 36
2, 12732, Note_on_c, 0, 73, 55
2, 12935, Note_on_c, 0, 73, 0
2, 12968, Note_on_c, 0, 77, 54
2, 13044, Note_on_c, 0, 75, 57
2, 13078, Note_on_c, 0, 77, 0
2, 13141, Note_on_c, 0, 75, 0
2, 13179, Note_on_c, 0, 73, 54
2, 13380, Note_on_c, 0, 54, 38
2, 13402, Note_on_c, 0, 53, 0
2, 13582, Note_on_c, 0, 73, 0
2, 13593, Note_on_c, 0, 82, 52
2, 13807, Note_on_c, 0, 73, 56
2, 13812, Note_on_c, 0, 82, 0
2, 13972, Note_on_c, 0, 54, 0
2, 14008, Note_on_c, 0, 56, 41
2, 14210, Note_on_c, 0, 75, 49
2, 14244, Note_on_c, 0, 73, 0
2, 14376, Note_on_c, 0, 75, 0
2, 14421, Note_on_c, 0, 72, 54
2, 14600, Note_on_c, 0, 49, 39
2, 14626, Note_on_c, 0, 72, 0
2, 14646, Note_on_c, 0, 73, 48
2, 14663, Note_on_c, 0, 56, 0
2, 14697, Control_c, 0, 64, 18
2, 14716, Control_c, 0, 64, 30
2, 14735, Control_c, 0, 64, 43
2, 14755, Control_c, 0, 64, 52
2, 14777, Control_c, 0, 64, 56
2, 14792, Control_c, 0, 64, 57
2, 14806, Note_on_c, 0, 73, 0
2, 14832, Control_c, 0, 64, 58
2, 14842, Note_on_c, 0, 77, 52
2, 14852, Control_c, 0, 64, 59
2, 14889, Control_c, 0, 64, 58
2, 14985, Control_c, 0, 64, 57
2, 15028, Note_on_c, 0, 77, 0
2, 15028, Note_on_c, 0, 80, 59
2, 15082, Control_c, 0, 64, 56
2, 15159, Control_c, 0, 64, 55
2, 15179, Note_on_c, 0, 49, 0
2, 15220, Note_on_c, 0, 80, 0
2, 15231, Note_on_c, 0, 77, 58
2, 15254, Control_c, 0, 64, 54
2, 15369, Control_c, 0, 64, 53
2, 15383, Note_on_c, 0, 77, 0
2, 15420, Note_on_c, 0, 73, 66
2, 15577, Note_on_c, 0, 73, 0
2, 15610, Note_on_c, 0, 80, 61
2, 15810, Note_on_c, 0, 49, 38
2, 15814, Note_on_c, 0, 80, 0
2, 15827, Note_on_c, 0, 82, 54
2, 15909, Note_on_c, 0, 82, 0
2, 15926, Note_on_c, 0, 80, 62
2, 15970, Note_on_c, 0, 80, 0
2, 15988, Note_on_c, 0, 82, 60
2, 16050, Note_on_c, 0, 82, 0
2, 16054, Note_on_c, 0, 49, 0
2, 16061, Note_on_c, 0, 53, 43
2, 16061, Note_on_c, 0, 80, 66
2, 16083, Control_c, 0, 64, 52
2, 16094, Note_on_c, 0, 82, 61
2, 16096, Note_on_c, 0, 80, 0
2, 16117, Control_c, 0, 64, 51
2, 16158, Control_c, 0, 64, 50
2, 16169, Note_on_c, 0, 82, 0
2, 16177, Note_on_c, 0, 80, 73
2, 16196, Control_c, 0, 64, 48
2, 16211, Note_on_c, 0, 53, 0
2, 16215, Control_c, 0, 64, 46
2, 16232, Control_c, 0, 64, 45
2, 16237, Note_on_c, 0, 56, 47
2, 16253, Control_c, 0, 64, 44
2, 16271, Control_c, 0, 64, 42
2, 16290, Control_c, 0, 64, 41
2, 16310, Control_c, 0, 64, 39
2, 16331, Control_c, 0, 64, 36
2, 16348, Control_c, 0, 64, 34
2, 16370, Control_c, 0, 64, 33
2, 16387, Control_c, 0, 64, 31
2, 16392, Note_on_c, 0, 56, 0
2, 16406, Control_c, 0, 64, 30
2, 16422, Note_on_c, 0, 53, 48
2, 16446, Control_c, 0, 64, 29
2, 16563, Note_on_c, 0, 53, 0
2, 16609, Note_on_c, 0, 49, 46
2, 16807, Note_on_c, 0, 58, 58
2, 16918, Note_on_c, 0, 58, 0
2, 16930, Note_on_c, 0, 49, 0
2, 17017, Note_on_c, 0, 58, 55
2, 17214, Note_on_c, 0, 77, 68
2, 17239, Note_on_c, 0, 80, 0
2, 17421, Note_on_c, 0, 78, 63
2, 17449, Note_on_c, 0, 77, 0
2, 17464, Control_c, 0, 64, 30
2, 17619, Note_on_c, 0, 56, 55
2, 17630, Note_on_c, 0, 58, 0
2, 17834, Note_on_c, 0, 80, 64
2, 17843, Note_on_c, 0, 78, 0
2, 18036, Note_on_c, 0, 77, 68
2, 18053, Note_on_c, 0, 80, 0
2, 18207, Note_on_c, 0, 56, 0
2, 18223, Note_on_c, 0, 54, 59
2, 18417, Note_on_c, 0, 77, 0
2, 18424, Note_on_c, 0, 82, 62
2, 18642, Note_on_c, 0, 75, 62
2, 18667, Note_on_c, 0, 82, 0
2, 18838, Note_on_c, 0, 54, 0
2, 18842, Note_on_c, 0, 53, 58
2, 19033, Note_on_c, 0, 77, 70
2, 19223, Note_on_c, 0, 75, 0
2, 19233, Note_on_c, 0, 77, 0
2, 19253, Note_on_c, 0, 74, 63
2, 19431, Note_on_c, 0, 74, 0
2, 19455, Note_on_c, 0, 51, 57
2, 19459, Note_on_c, 0, 78, 61
2, 19540, Note_on_c, 0, 53, 0
2, 19661, Note_on_c, 0, 70, 60
2, 19789, Note_on_c, 0, 78, 0
2, 19869, Note_on_c, 0, 71, 68
2, 19879, Note_on_c, 0, 70, 0
2, 20091, Note_on_c, 0, 49, 56
2, 20097, Note_on_c, 0, 51, 0
2, 20253, Note_on_c, 0, 71, 0
2, 20264, Note_on_c, 0, 73, 71
2, 20492, Note_on_c, 0, 70, 69
2, 20500, Note_on_c, 0, 73, 0
2, 20698, Note_on_c, 0, 49, 0
2, 20709, Note_on_c, 0, 47, 63
2, 20874, Note_on_c, 0, 70, 0
2, 20891, Note_on_c, 0, 75, 67
2, 21111, Note_on_c, 0, 68, 71
2, 21158, Note_on_c, 0, 75, 0
2, 21337, Note_on_c, 0, 46, 63
2, 21352, Note_on_c, 0, 47, 0
2, 21526, Note_on_c, 0, 68, 0
2, 21526, Note_on_c, 0, 70, 71
2, 21744, Note_on_c, 0, 66, 67
2, 21770, Note_on_c, 0, 70, 0
2, 21966, Note_on_c, 0, 44, 69
2, 21981, Note_on_c, 0, 46, 0
2, 22163, Note_on_c, 0, 66, 0
2, 22163, Note_on_c, 0, 71, 74
2, 22388, Note_on_c, 0, 71, 0
2, 22407, Note_on_c, 0, 64, 69
2, 22514, Control_c, 0, 64, 29
2, 22606, Note_on_c, 0, 44, 0
2, 22613, Note_on_c, 0, 42, 73
2, 22777, Note_on_c, 0, 64, 0
2, 22791, Note_on_c, 0, 66, 71
2, 23016, Note_on_c, 0, 63, 75
2, 23036, Note_on_c, 0, 66, 0
2, 23073, Control_c, 0, 64, 28
2, 23110, Control_c, 0, 64, 27
2, 23129, Control_c, 0, 64, 26
2, 23149, Control_c, 0, 64, 25
2, 23166, Control_c, 0, 64, 23
2, 23208, Control_c, 0, 64, 21
2, 23226, Control_c, 0, 64, 18
2, 23246, Control_c, 0, 64, 11
2, 23262, Control_c, 0, 64, 0
2, 23273, Note_on_c, 0, 68, 73
2, 23277, Note_on_c, 0, 41, 64
2, 23297, Note_on_c, 0, 63, 0
2, 23325, Note_on_c, 0, 42, 0
2, 23502, Note_on_c, 0, 62, 75
2, 23510, Note_on_c, 0, 68, 0
2, 23718, Note_on_c, 0, 63, 74
2, 23759, Note_on_c, 0, 62, 0
2, 23949, Note_on_c, 0, 51, 77
2, 23967, Note_on_c, 0, 41, 0
2, 24134, Note_on_c, 0, 62, 70
2, 24148, Note_on_c, 0, 63, 0
2, 24358, Note_on_c, 0, 68, 76
2, 24370, Note_on_c, 0, 62, 0
2, 24550, Note_on_c, 0, 51, 0
2, 24561, Note_on_c, 0, 50, 64
2, 24765, Note_on_c, 0, 68, 0
2, 24786, Note_on_c, 0, 65, 69
2, 25006, Note_on_c, 0, 71, 71
2, 25039, Note_on_c, 0, 65, 0
2, 25204, Note_on_c, 0, 46, 57
2, 25218, Note_on_c, 0, 50, 0
2, 25372, Note_on_c, 0, 71, 0
2, 25407, Note_on_c, 0, 68, 65
2, 25635, Note_on_c, 0, 68, 0
2, 25635, Note_on_c, 0, 77, 67
2, 25840, Note_on_c, 0, 51, 53
2, 25862, Note_on_c, 0, 46, 0
2, 26021, Note_on_c, 0, 77, 0
2, 26070, Note_on_c, 0, 65, 51
2, 26278, Note_on_c, 0, 66, 59
2, 26304, Note_on_c, 0, 65, 0
2, 26445, Note_on_c, 0, 51, 0
2, 26471, Note_on_c, 0, 54, 46
2, 26694, Note_on_c, 0, 66, 0
2, 26701, Note_on_c, 0, 70, 51
2, 26920, Note_on_c, 0, 75, 52
2, 26924, Note_on_c, 0, 70, 0
2, 27062, Note_on_c, 0, 54, 0
2, 27125, Note_on_c, 0, 56, 45
2, 27327, Note_on_c, 0, 65, 50
2, 27407, Note_on_c, 0, 75, 0
2, 27556, Note_on_c, 0, 68, 53
2, 27564, Note_on_c, 0, 65, 0
2, 27759, Note_on_c, 0, 56, 0
2, 27766, Note_on_c, 0, 58, 40
2, 27939, Note_on_c, 0, 68, 0
2, 27944, Note_on_c, 0, 70, 55
2, 28132, Note_on_c, 0, 70, 0
2, 28160, Note_on_c, 0, 74, 56
2, 28285, Note_on_c, 0, 74, 0
2, 28332, Note_on_c, 0, 51, 44
2, 28370, Note_on_c, 0, 58, 0
2, 28391, Note_on_c, 0, 75, 53
2, 28478, Note_on_c, 0, 75, 0
2, 28499, Note_on_c, 0, 77, 63
2, 28580, Note_on_c, 0, 75, 58
2, 28580, Note_on_c, 0, 77, 0
2, 28585, Note_on_c, 0, 54, 40
2, 28633, Note_on_c, 0, 75, 0
2, 28635, Note_on_c, 0, 77, 60
2, 28686, Note_on_c, 0, 51, 0
2, 28703, Note_on_c, 0, 77, 0
2, 28708, Note_on_c, 0, 75, 65
2, 28755, Note_on_c, 0, 75, 0
2, 28759, Note_on_c, 0, 77, 66
2, 28787, Note_on_c, 0, 54, 0
2, 28801, Note_on_c, 0, 58, 44
2, 28830, Note_on_c, 0, 77, 0
2, 28838, Note_on_c, 0, 75, 60
2, 28985, Note_on_c, 0, 58, 0
2, 28990, Note_on_c, 0, 54, 50
2, 29162, Note_on_c, 0, 54, 0
2, 29193, Note_on_c, 0, 51, 63
2, 29398, Note_on_c, 0, 60, 61
2, 29469, Note_on_c, 0, 51, 0
2, 29574, Note_on_c, 0, 60, 0
2, 29597, Note_on_c, 0, 61, 59
2, 29644, Note_on_c, 0, 61, 0
2, 29660, Note_on_c, 0, 60, 57
2, 29712, Note_on_c, 0, 60, 0
2, 29740, Note_on_c, 0, 61, 74
2, 29780, Note_on_c, 0, 61, 0
2, 29794, Note_on_c, 0, 60, 61
2, 29838, Note_on_c, 0, 78, 64
2, 29845, Note_on_c, 0, 60, 0
2, 29873, Note_on_c, 0, 61, 60
2, 29895, Note_on_c, 0, 75, 0
2, 29918, Note_on_c, 0, 61, 0
2, 29927, Note_on_c, 0, 60, 55
2, 30029, Note_on_c, 0, 82, 68
2, 30048, Note_on_c, 0, 78, 0
2, 30246, Note_on_c, 0, 78, 70
2, 30284, Note_on_c, 0, 82, 0
2, 30447, Note_on_c, 0, 75, 75
2, 30470, Note_on_c, 0, 78, 0
2, 30643, Note_on_c, 0, 75, 0
2, 30646, Note_on_c, 0, 81, 75
2, 30826, Note_on_c, 0, 81, 0
2, 30847, Note_on_c, 0, 82, 72
2, 30913, Note_on_c, 0, 82, 0
2, 30933, Note_on_c, 0, 81, 64
2, 30988, Note_on_c, 0, 82, 75
2, 30993, Note_on_c, 0, 81, 0
2, 31051, Note_on_c, 0, 82, 0
2, 31060, Note_on_c, 0, 81, 66
2, 31087, Note_on_c, 0, 63, 63
2, 31091, Note_on_c, 0, 82, 65
2, 31117, Note_on_c, 0, 81, 0
2, 31156, Note_on_c, 0, 81, 66
2, 31156, Note_on_c, 0, 82, 0
2, 31179, Note_on_c, 0, 60, 0
2, 31258, Note_on_c, 0, 63, 0
2, 31282, Note_on_c, 0, 66, 62
2, 31465, Note_on_c, 0, 66, 0
2, 31473, Note_on_c, 0, 63, 59
2, 31665, Note_on_c, 0, 63, 0
2, 31679, Note_on_c, 0, 60, 65
2, 31897, Note_on_c, 0, 66, 68
2, 31997, Note_on_c, 0, 66, 0
2, 32081, Note_on_c, 0, 60, 0
2, 32097, Note_on_c, 0, 66, 65
2, 32305, Note_on_c, 0, 66, 0
2, 32310, Note_on_c, 0, 82, 74
2, 32313, Note_on_c, 0, 65, 55
2, 32506, Note_on_c, 0, 81, 0
2, 32515, Note_on_c, 0, 84, 74
2, 32522, Note_on_c, 0, 65, 0
2, 32530, Note_on_c, 0, 63, 61
2, 32685, Note_on_c, 0, 82, 0
2, 32704, Note_on_c, 0, 84, 0
2, 32709, Note_on_c, 0, 63, 0
2, 32719, Note_on_c, 0, 77, 74
2, 32727, Note_on_c, 0, 61, 56
2, 32934, Note_on_c, 0, 63, 52
2, 32934, Note_on_c, 0, 78, 70
2, 32950, Note_on_c, 0, 77, 0
2, 33089, Note_on_c, 0, 63, 0
2, 33125, Note_on_c, 0, 61, 0
2, 33140, Note_on_c, 0, 75, 63
2, 33164, Note_on_c, 0, 65, 42
2, 33164, Note_on_c, 0, 78, 0
2, 33384, Note_on_c, 0, 58, 45
2, 33384, Note_on_c, 0, 73, 60
2, 33406, Note_on_c, 0, 75, 0
2, 33503, Note_on_c, 0, 65, 0
2, 33574, Note_on_c, 0, 73, 0
2, 33605, Note_on_c, 0, 77, 57
2, 33810, Note_on_c, 0, 70, 56
2, 33864, Note_on_c, 0, 77, 0
2, 33993, Note_on_c, 0, 58, 0
2, 34013, Note_on_c, 0, 53, 47
2, 34211, Note_on_c, 0, 72, 64
2, 34224, Note_on_c, 0, 70, 0
2, 34385, Note_on_c, 0, 72, 0
2, 34409, Note_on_c, 0, 69, 60
2, 34577, Note_on_c, 0, 53, 0
2, 34594, Note_on_c, 0, 54, 44
2, 34618, Note_on_c, 0, 69, 0
2, 34621, Note_on_c, 0, 70, 60
2, 34805, Note_on_c, 0, 70, 0
2, 34824, Note_on_c, 0, 73, 63
2, 35032, Note_on_c, 0, 70, 61
2, 35045, Note_on_c, 0, 73, 0
2, 35144, Note_on_c, 0, 70, 0
2, 35219, Note_on_c, 0, 54, 0
2, 35237, Note_on_c, 0, 49, 41
2, 35249, Note_on_c, 0, 70, 56
2, 35447, Note_on_c, 0, 70, 0
2, 35463, Note_on_c, 0, 73, 55
2, 35545, Note_on_c, 0, 72, 57
2, 35592, Note_on_c, 0, 73, 0
2, 35631, Note_on_c, 0, 72, 0
2, 35667, Note_on_c, 0, 70, 52
2, 35881, Note_on_c, 0, 51, 39
2, 35921, Note_on_c, 0, 49, 0
2, 36088, Note_on_c, 0, 78, 55
2, 36113, Note_on_c, 0, 70, 0
2, 36291, Note_on_c, 0, 70, 52
2, 36327, Note_on_c, 0, 78, 0
2, 36458, Note_on_c, 0, 51, 0
2, 36491, Note_on_c, 0, 53, 42
2, 36679, Note_on_c, 0, 72, 55
2, 36705, Note_on_c, 0, 70, 0
2, 36867, Note_on_c, 0, 72, 0
2, 36905, Note_on_c, 0, 69, 44
2, 37110, Note_on_c, 0, 46, 37
2, 37125, Note_on_c, 0, 70, 51
2, 37131, Note_on_c, 0, 53, 0
2, 37131, Note_on_c, 0, 69, 0
2, 37338, Note_on_c, 0, 73, 59
2, 37395, Note_on_c, 0, 70, 0
2, 37526, Note_on_c, 0, 77, 54
2, 37544, Note_on_c, 0, 73, 0
2, 37726, Note_on_c, 0, 73, 56
2, 37726, Note_on_c, 0, 77, 0
2, 37812, Note_on_c, 0, 46, 0
2, 37916, Note_on_c, 0, 73, 0
2, 37927, Note_on_c, 0, 70, 63
2, 38083, Note_on_c, 0, 70, 0
2, 38112, Note_on_c, 0, 79, 63
2, 38287, Note_on_c, 0, 51, 44
2, 38319, Note_on_c, 0, 79, 0
2, 38324, Note_on_c, 0, 80, 63
2, 38393, Note_on_c, 0, 80, 0
2, 38421, Note_on_c, 0, 79, 62
2, 38494, Note_on_c, 0, 79, 0
2, 38501, Note_on_c, 0, 80, 70
2, 38512, Note_on_c, 0, 51, 0
2, 38519, Note_on_c, 0, 55, 39
2, 38559, Note_on_c, 0, 79, 69
2, 38559, Note_on_c, 0, 80, 0
2, 38610, Note_on_c, 0, 80, 67
2, 38614, Note_on_c, 0, 79, 0
2, 38664, Note_on_c, 0, 55, 0
2, 38677, Note_on_c, 0, 79, 72
2, 38684, Note_on_c, 0, 80, 0
2, 38692, Note_on_c, 0, 58, 53
2, 38853, Note_on_c, 0, 58, 0
2, 38889, Note_on_c, 0, 55, 48
2, 39063, Note_on_c, 0, 55, 0
2, 39085, Note_on_c, 0, 51, 57
2, 39290, Note_on_c, 0, 61, 62
2, 39415, Note_on_c, 0, 61, 0
2, 39454, Note_on_c, 0, 79, 0
2, 39494, Note_on_c, 0, 61, 60
2, 39506, Note_on_c, 0, 51, 0
2, 39690, Note_on_c, 0, 82, 64
2, 39900, Note_on_c, 0, 75, 69
2, 40010, Note_on_c, 0, 82, 0
2, 40124, Note_on_c, 0, 73, 71
2, 40129, Note_on_c, 0, 55, 45
2, 40135, Note_on_c, 0, 61, 0
2, 40185, Note_on_c, 0, 75, 0
2, 40297, Note_on_c, 0, 73, 0
2, 40335, Note_on_c, 0, 71, 64
2, 40538, Note_on_c, 0, 71, 0
2, 40543, Note_on_c, 0, 70, 57
2, 40727, Note_on_c, 0, 71, 53
2, 40730, Note_on_c, 0, 55, 0
2, 40743, Note_on_c, 0, 56, 43
2, 40743, Note_on_c, 0, 70, 0
2, 40940, Note_on_c, 0, 75, 55
2, 40944, Note_on_c, 0, 71, 0
2, 41151, Note_on_c, 0, 68, 60
2, 41274, Note_on_c, 0, 75, 0
2, 41356, Note_on_c, 0, 56, 0
2, 41370, Note_on_c, 0, 51, 46
2, 41565, Note_on_c, 0, 70, 56
2, 41627, Note_on_c, 0, 68, 0
2, 41744, Note_on_c, 0, 70, 0
2, 41767, Note_on_c, 0, 67, 53
2, 41974, Note_on_c, 0, 52, 41
2, 41984, Note_on_c, 0, 67, 0
2, 41984, Note_on_c, 0, 68, 62
2, 42028, Note_on_c, 0, 51, 0
2, 42171, Note_on_c, 0, 68, 0
2, 42197, Note_on_c, 0, 71, 58
2, 42397, Note_on_c, 0, 68, 61
2, 42402, Note_on_c, 0, 71, 0
2, 42510, Note_on_c, 0, 68, 0
2, 42619, Note_on_c, 0, 52, 0
2, 42625, Note_on_c, 0, 47, 41
2, 42630, Note_on_c, 0, 68, 54
2, 42816, Note_on_c, 0, 68, 0
2, 42842, Note_on_c, 0, 71, 56
2, 42919, Note_on_c, 0, 71, 0
2, 42930, Note_on_c, 0, 70, 59
2, 43019, Note_on_c, 0, 70, 0
2, 43053, Note_on_c, 0, 68, 56
2, 43271, Note_on_c, 0, 49, 41
2, 43277, Note_on_c, 0, 47, 0
2, 43500, Note_on_c, 0, 76, 56
2, 43505, Note_on_c, 0, 68, 0
2, 43715, Note_on_c, 0, 68, 53
2, 43721, Note_on_c, 0, 76, 0
2, 43914, Note_on_c, 0, 49, 0
2, 43923, Note_on_c, 0, 51, 46
2, 44123, Note_on_c, 0, 70, 52
2, 44215, Note_on_c, 0, 68, 0
2, 44300, Note_on_c, 0, 70, 0
2, 44347, Note_on_c, 0, 67, 48
2, 44524, Note_on_c, 0, 67, 0
2, 44543, Note_on_c, 0, 44, 40
2, 44552, Control_c, 0, 64, 26
2, 44552, Note_on_c, 0, 51, 0
2, 44552, Note_on_c, 0, 68, 46
2, 44569, Control_c, 0, 64, 35
2, 44591, Control_c, 0, 64, 36
2, 44609, Control_c, 0, 64, 43
2, 44628, Control_c, 0, 64, 52
2, 44648, Control_c, 0, 64, 58
2, 44665, Control_c, 0, 64, 59
2, 44742, Note_on_c, 0, 71, 49
2, 44771, Note_on_c, 0, 68, 0
2, 44804, Control_c, 0, 64, 60
2, 44935, Control_c, 0, 64, 59
2, 44953, Note_on_c, 0, 71, 0
2, 44957, Note_on_c, 0, 75, 55
2, 45052, Control_c, 0, 64, 58
2, 45109, Control_c, 0, 64, 57
2, 45144, Note_on_c, 0, 75, 0
2, 45155, Note_on_c, 0, 44, 0
2, 45163, Note_on_c, 0, 71, 59
2, 45346, Note_on_c, 0, 71, 0
2, 45369, Note_on_c, 0, 68, 65
2, 45533, Note_on_c, 0, 68, 0
2, 45570, Note_on_c, 0, 77, 69
2, 45764, Note_on_c, 0, 77, 0
2, 45773, Note_on_c, 0, 49, 37
2, 45782, Note_on_c, 0, 78, 61
2, 45852, Note_on_c, 0, 78, 0
2, 45870, Note_on_c, 0, 77, 62
2, 45928, Note_on_c, 0, 77, 0
2, 45949, Note_on_c, 0, 78, 73
2, 45984, Note_on_c, 0, 53, 44
2, 46008, Note_on_c, 0, 49, 0
2, 46012, Note_on_c, 0, 77, 69
2, 46012, Note_on_c, 0, 78, 0
2, 46055, Note_on_c, 0, 78, 66
2, 46064, Note_on_c, 0, 77, 0
2, 46072, Control_c, 0, 64, 56
2, 46088, Control_c, 0, 64, 55
2, 46106, Control_c, 0, 64, 53
2, 46127, Note_on_c, 0, 78, 0
2, 46131, Control_c, 0, 64, 49
2, 46131, Note_on_c, 0, 77, 74
2, 46146, Control_c, 0, 64, 46
2, 46158, Note_on_c, 0, 53, 0
2, 46168, Control_c, 0, 64, 40
2, 46168, Note_on_c, 0, 56, 55
2, 46184, Control_c, 0, 64, 30
2, 46204, Control_c, 0, 64, 15
2, 46223, Control_c, 0, 64, 0
2, 46350, Note_on_c, 0, 56, 0
2, 46362, Note_on_c, 0, 53, 54
2, 46562, Note_on_c, 0, 49, 60
2, 46562, Note_on_c, 0, 53, 0
2, 46570, Control_c, 0, 64, 15
2, 46587, Control_c, 0, 64, 18
2, 46626, Control_c, 0, 64, 24
2, 46646, Control_c, 0, 64, 32
2, 46665, Control_c, 0, 64, 39
2, 46682, Control_c, 0, 64, 42
2, 46722, Control_c, 0, 64, 43
2, 46761, Control_c, 0, 64, 45
2, 46761, Note_on_c, 0, 49, 0
2, 46780, Control_c, 0, 64, 46
2, 46784, Note_on_c, 0, 59, 60
2, 46799, Control_c, 0, 64, 47
2, 46856, Control_c, 0, 64, 48
2, 46880, Note_on_c, 0, 59, 0
2, 46894, Control_c, 0, 64, 49
2, 46953, Control_c, 0, 64, 50
2, 46979, Note_on_c, 0, 59, 60
2, 47048, Control_c, 0, 64, 51
2, 47087, Control_c, 0, 64, 52
2, 47126, Control_c, 0, 64, 53
2, 47160, Note_on_c, 0, 77, 0
2, 47165, Control_c, 0, 64, 54
2, 47172, Note_on_c, 0, 73, 72
2, 47183, Control_c, 0, 64, 55
2, 47200, Control_c, 0, 64, 56
2, 47258, Control_c, 0, 64, 57
2, 47277, Control_c, 0, 64, 58
2, 47370, Note_on_c, 0, 77, 77
2, 47379, Note_on_c, 0, 73, 0
2, 47393, Control_c, 0, 64, 59
2, 47585, Note_on_c, 0, 80, 81
2, 47631, Note_on_c, 0, 77, 0
2, 47746, Note_on_c, 0, 59, 0
2, 47791, Note_on_c, 0, 56, 55
2, 47791, Note_on_c, 0, 77, 85
2, 47796, Note_on_c, 0, 80, 0
2, 47970, Control_c, 0, 64, 58
2, 48006, Note_on_c, 0, 59, 59
2, 48006, Note_on_c, 0, 80, 80
2, 48038, Note_on_c, 0, 77, 0
2, 48123, Note_on_c, 0, 56, 0
2, 48163, Control_c, 0, 64, 57
2, 48241, Control_c, 0, 64, 56
2, 48248, Note_on_c, 0, 59, 0
2, 48258, Note_on_c, 0, 83, 81
2, 48269, Note_on_c, 0, 80, 0
2, 48293, Note_on_c, 0, 65, 53
2, 48296, Control_c, 0, 64, 55
2, 48372, Control_c, 0, 64, 54
2, 48487, Control_c, 0, 64, 53
2, 48494, Note_on_c, 0, 68, 59
2, 48545, Control_c, 0, 64, 52
2, 48576, Note_on_c, 0, 65, 0
2, 48623, Control_c, 0, 64, 51
2, 48643, Note_on_c, 0, 68, 0
2, 48693, Note_on_c, 0, 65, 55
2, 48900, Note_on_c, 0, 61, 56
2, 48905, Note_on_c, 0, 65, 0
2, 49060, Note_on_c, 0, 61, 0
2, 49065, Control_c, 0, 64, 50
2, 49085, Control_c, 0, 64, 49
2, 49089, Note_on_c, 0, 65, 62
2, 49103, Control_c, 0, 64, 48
2, 49140, Control_c, 0, 64, 47
2, 49159, Control_c, 0, 64, 46
2, 49178, Control_c, 0, 64, 45
2, 49199, Control_c, 0, 64, 43
2, 49218, Control_c, 0, 64, 41
2, 49239, Control_c, 0, 64, 39
2, 49256, Control_c, 0, 64, 38
2, 49274, Control_c, 0, 64, 35
2, 49292, Note_on_c, 0, 65, 0
2, 49296, Control_c, 0, 64, 21
2, 49308, Note_on_c, 0, 61, 55
2, 49314, Control_c, 0, 64, 0
2, 49521, Note_on_c, 0, 54, 55
2, 49542, Note_on_c, 0, 61, 0
2, 49722, Note_on_c, 0, 80, 70
2, 49810, Note_on_c, 0, 83, 0
2, 49952, Note_on_c, 0, 82, 67
2, 50001, Note_on_c, 0, 80, 0
2, 50166, Note_on_c, 0, 59, 65
2, 50180, Note_on_c, 0, 54, 0
2, 50361, Note_on_c, 0, 83, 75
2, 50380, Note_on_c, 0, 82, 0
2, 50580, Note_on_c, 0, 80, 77
2, 50657, Note_on_c, 0, 83, 0
2, 50799, Note_on_c, 0, 60, 65
2, 50833, Note_on_c, 0, 59, 0
2, 50976, Note_on_c, 0, 80, 0
2, 50989, Note_on_c, 0, 77, 76
2, 51224, Note_on_c, 0, 78, 73
2, 51284, Note_on_c, 0, 77, 0
2, 51440, Note_on_c, 0, 60, 0
2, 51446, Note_on_c, 0, 61, 55
2, 51642, Note_on_c, 0, 80, 71
2, 51668, Note_on_c, 0, 78, 0
2, 51819, Note_on_c, 0, 61, 0
2, 51835, Note_on_c, 0, 77, 74
2, 51863, Note_on_c, 0, 80, 0
2, 52054, Note_on_c, 0, 77, 0
2, 52059, Note_on_c, 0, 51, 54
2, 52070, Note_on_c, 0, 78, 64
2, 52307, Note_on_c, 0, 70, 72
2, 52358, Note_on_c, 0, 78, 0
2, 52509, Note_on_c, 0, 70, 0
2, 52518, Note_on_c, 0, 71, 72
2, 52755, Note_on_c, 0, 49, 57
2, 52778, Note_on_c, 0, 51, 0
2, 52960, Note_on_c, 0, 73, 74
2, 52975, Note_on_c, 0, 71, 0
2, 53173, Note_on_c, 0, 70, 72
2, 53186, Note_on_c, 0, 73, 0
2, 53375, Note_on_c, 0, 49, 0
2, 53379, Note_on_c, 0, 47, 60
2, 53597, Note_on_c, 0, 75, 66
2, 53603, Note_on_c, 0, 70, 0
2, 53811, Note_on_c, 0, 68, 65
2, 53911, Note_on_c, 0, 75, 0
2, 54008, Note_on_c, 0, 46, 50
2, 54012, Note_on_c, 0, 47, 0
2, 54225, Note_on_c, 0, 68, 0
2, 54230, Note_on_c, 0, 70, 62
2, 54444, Note_on_c, 0, 66, 59
2, 54462, Note_on_c, 0, 70, 0
2, 54644, Note_on_c, 0, 46, 0
2, 54657, Note_on_c, 0, 44, 57
2, 54863, Note_on_c, 0, 65, 58
2, 54891, Note_on_c, 0, 66, 0
2, 55100, Note_on_c, 0, 71, 68
2, 55131, Note_on_c, 0, 65, 0
2, 55318, Note_on_c, 0, 54, 65
2, 55342, Note_on_c, 0, 44, 0
2, 55516, Note_on_c, 0, 68, 75
2, 55526, Note_on_c, 0, 71, 0
2, 55724, Note_on_c, 0, 75, 72
2, 55954, Note_on_c, 0, 53, 73
2, 55982, Note_on_c, 0, 54, 0
2, 56121, Note_on_c, 0, 68, 0
2, 56137, Note_on_c, 0, 75, 0
2, 56160, Note_on_c, 0, 71, 80
2, 56390, Note_on_c, 0, 80, 79
2, 56420, Note_on_c, 0, 71, 0
2, 56620, Note_on_c, 0, 49, 61
2, 56623, Note_on_c, 0, 53, 0
2, 56830, Note_on_c, 0, 77, 75
2, 56964, Note_on_c, 0, 80, 0
2, 57045, Note_on_c, 0, 77, 0
2, 57059, Note_on_c, 0, 71, 72
2, 57275, Note_on_c, 0, 54, 54
2, 57282, Note_on_c, 0, 49, 0
2, 57465, Note_on_c, 0, 68, 69
2, 57488, Note_on_c, 0, 71, 0
2, 57692, Note_on_c, 0, 68, 0
2, 57700, Note_on_c, 0, 73, 69
2, 57916, Note_on_c, 0, 46, 38
2, 57960, Note_on_c, 0, 54, 0
2, 58121, Note_on_c, 0, 70, 54
2, 58244, Note_on_c, 0, 73, 0
2, 58343, Note_on_c, 0, 66, 53
2, 58348, Note_on_c, 0, 70, 0
2, 58539, Note_on_c, 0, 47, 42
2, 58577, Note_on_c, 0, 46, 0
2, 58763, Note_on_c, 0, 63, 52
2, 58804, Note_on_c, 0, 66, 0
2, 58981, Note_on_c, 0, 63, 0
2, 58985, Note_on_c, 0, 71, 53
2, 59196, Note_on_c, 0, 47, 0
2, 59196, Note_on_c, 0, 49, 38
2, 59381, Note_on_c, 0, 68, 53
2, 59550, Note_on_c, 0, 68, 0
2, 59613, Note_on_c, 0, 65, 37
2, 59783, Note_on_c, 0, 65, 0
2, 59810, Note_on_c, 0, 42, 33
2, 59827, Note_on_c, 0, 66, 38
2, 59945, Note_on_c, 0, 49, 0
2, 59983, Note_on_c, 0, 71, 0
2, 60016, Note_on_c, 0, 42, 0
2, 60026, Note_on_c, 0, 46, 38
2, 60241, Note_on_c, 0, 49, 45
2, 60248, Note_on_c, 0, 46, 0
2, 60279, Control_c, 0, 64, 26
2, 60294, Control_c, 0, 64, 31
2, 60317, Control_c, 0, 64, 32
2, 60352, Control_c, 0, 64, 33
2, 60372, Control_c, 0, 64, 37
2, 60392, Control_c, 0, 64, 42
2, 60411, Control_c, 0, 64, 46
2, 60430, Control_c, 0, 64, 49
2, 60440, Note_on_c, 0, 46, 44
2, 60440, Note_on_c, 0, 49, 0
2, 60449, Control_c, 0, 64, 50
2, 60471, Control_c, 0, 64, 51
2, 60491, Control_c, 0, 64, 53
2, 60506, Control_c, 0, 64, 55
2, 60546, Control_c, 0, 64, 56
2, 60601, Note_on_c, 0, 46, 0
2, 60634, Note_on_c, 0, 42, 48
2, 60660, Control_c, 0, 64, 57
2, 60756, Control_c, 0, 64, 58
2, 60861, Note_on_c, 0, 51, 59
2, 60949, Control_c, 0, 64, 57
2, 60981, Note_on_c, 0, 51, 0
2, 61030, Note_on_c, 0, 42, 0
2, 61044, Control_c, 0, 64, 56
2, 61086, Note_on_c, 0, 51, 55
2, 61100, Control_c, 0, 64, 55
2, 61181, Control_c, 0, 64, 54
2, 61259, Control_c, 0, 64, 53
2, 61285, Note_on_c, 0, 58, 55
2, 61494, Note_on_c, 0, 59, 62
2, 61520, Note_on_c, 0, 66, 0
2, 61524, Note_on_c, 0, 58, 0
2, 61710, Note_on_c, 0, 49, 53
2, 61744, Note_on_c, 0, 51, 0
2, 61891, Note_on_c, 0, 61, 58
2, 61904, Note_on_c, 0, 59, 0
2, 62114, Note_on_c, 0, 58, 58
2, 62172, Note_on_c, 0, 61, 0
2, 62335, Note_on_c, 0, 49, 0
2, 62351, Note_on_c, 0, 47, 46
2, 62531, Note_on_c, 0, 58, 0
2, 62548, Note_on_c, 0, 63, 54
2, 62776, Note_on_c, 0, 56, 50
2, 62894, Note_on_c, 0, 63, 0
2, 62962, Note_on_c, 0, 47, 0
2, 62970, Note_on_c, 0, 46, 41
2, 62986, Control_c, 0, 64, 54
2, 63173, Note_on_c, 0, 56, 0
2, 63191, Note_on_c, 0, 58, 47
2, 63368, Note_on_c, 0, 58, 0
2, 63408, Note_on_c, 0, 54, 50
2, 63485, Control_c, 0, 64, 53
2, 63561, Control_c, 0, 64, 52
2, 63582, Control_c, 0, 64, 50
2, 63600, Control_c, 0, 64, 47
2, 63617, Note_on_c, 0, 44, 46
2, 63622, Control_c, 0, 64, 40
2, 63628, Note_on_c, 0, 46, 0
2, 63628, Note_on_c, 0, 59, 55
2, 63639, Control_c, 0, 64, 30
2, 63639, Note_on_c, 0, 54, 0
2, 63659, Control_c, 0, 64, 0
2, 63835, Note_on_c, 0, 47, 50
2, 63851, Control_c, 0, 64, 25
2, 63871, Control_c, 0, 64, 38
2, 63889, Control_c, 0, 64, 46
2, 63908, Control_c, 0, 64, 51
2, 63926, Control_c, 0, 64, 54
2, 63946, Control_c, 0, 64, 56
2, 63953, Note_on_c, 0, 44, 0
2, 63966, Control_c, 0, 64, 57
2, 64007, Control_c, 0, 64, 58
2, 64023, Control_c, 0, 64, 60
2, 64044, Control_c, 0, 64, 61
2, 64044, Note_on_c, 0, 47, 0
2, 64049, Note_on_c, 0, 51, 53
2, 64080, Control_c, 0, 64, 62
2, 64138, Control_c, 0, 64, 63
2, 64159, Control_c, 0, 64, 64
2, 64177, Control_c, 0, 64, 65
2, 64215, Control_c, 0, 64, 66
2, 64236, Control_c, 0, 64, 67
2, 64236, Note_on_c, 0, 47, 51
2, 64339, Note_on_c, 0, 51, 0
2, 64351, Control_c, 0, 64, 66
2, 64408, Control_c, 0, 64, 65
2, 64435, Note_on_c, 0, 47, 0
2, 64447, Control_c, 0, 64, 63
2, 64455, Note_on_c, 0, 44, 60
2, 64465, Control_c, 0, 64, 58
2, 64487, Control_c, 0, 64, 52
2, 64505, Control_c, 0, 64, 50
2, 64522, Control_c, 0, 64, 53
2, 64540, Control_c, 0, 64, 57
2, 64560, Control_c, 0, 64, 60
2, 64580, Control_c, 0, 64, 62
2, 64598, Control_c, 0, 64, 64
2, 64620, Control_c, 0, 64, 65
2, 64656, Control_c, 0, 64, 66
2, 64666, Note_on_c, 0, 53, 68
2, 64677, Control_c, 0, 64, 68
2, 64697, Control_c, 0, 64, 69
2, 64715, Control_c, 0, 64, 71
2, 64723, Note_on_c, 0, 44, 0
2, 64735, Control_c, 0, 64, 72
2, 64768, Note_on_c, 0, 53, 0
2, 64811, Control_c, 0, 64, 71
2, 64829, Control_c, 0, 64, 70
2, 64868, Control_c, 0, 64, 69
2, 64887, Control_c, 0, 64, 68
2, 64907, Control_c, 0, 64, 67
2, 64927, Control_c, 0, 64, 66
2, 64945, Note_on_c, 0, 37, 60
2, 64949, Control_c, 0, 64, 65
2, 64967, Control_c, 0, 64, 63
2, 64984, Control_c, 0, 64, 60
2, 65006, Control_c, 0, 64, 55
2, 65024, Control_c, 0, 64, 47
2, 65039, Control_c, 0, 64, 40
2, 65059, Control_c, 0, 64, 39
2, 65079, Control_c, 0, 64, 42
2, 65099, Control_c, 0, 64, 49
2, 65118, Control_c, 0, 64, 57
2, 65139, Control_c, 0, 64, 60
2, 65159, Control_c, 0, 64, 61
2, 65194, Control_c, 0, 64, 62
2, 65203, Note_on_c, 0, 65, 54
2, 65216, Control_c, 0, 64, 63
2, 65271, Control_c, 0, 64, 64
2, 65425, Note_on_c, 0, 68, 57
2, 65439, Note_on_c, 0, 65, 0
2, 65481, Control_c, 0, 64, 65
2, 65555, Note_on_c, 0, 59, 0
2, 65641, Note_on_c, 0, 65, 52
2, 65657, Control_c, 0, 64, 66
2, 65755, Note_on_c, 0, 68, 0
2, 65867, Control_c, 0, 64, 67
2, 65876, Note_on_c, 0, 59, 60
2, 65909, Note_on_c, 0, 65, 0
2, 66097, Note_on_c, 0, 59, 0
2, 66101, Note_on_c, 0, 68, 57
2, 66269, Control_c, 0, 64, 66
2, 66291, Control_c, 0, 64, 64
2, 66308, Control_c, 0, 64, 60
2, 66319, Note_on_c, 0, 57, 62
2, 66319, Note_on_c, 0, 68, 0
2, 66328, Control_c, 0, 64, 55
2, 66364, Control_c, 0, 64, 56
2, 66384, Control_c, 0, 64, 58
2, 66404, Control_c, 0, 64, 61
2, 66422, Control_c, 0, 64, 63
2, 66446, Control_c, 0, 64, 64
2, 66464, Control_c, 0, 64, 65
2, 66482, Control_c, 0, 64, 66
2, 66502, Control_c, 0, 64, 68
2, 66519, Control_c, 0, 64, 69
2, 66532, Note_on_c, 0, 61, 55
2, 66538, Control_c, 0, 64, 71
2, 66557, Control_c, 0, 64, 73
2, 66578, Control_c, 0, 64, 74
2, 66597, Control_c, 0, 64, 76
2, 66606, Note_on_c, 0, 57, 0
2, 66634, Control_c, 0, 64, 77
2, 66654, Control_c, 0, 64, 78
2, 66674, Control_c, 0, 64, 79
2, 66692, Control_c, 0, 64, 81
2, 66754, Note_on_c, 0, 66, 58
2, 66864, Control_c, 0, 64, 80
2, 66887, Control_c, 0, 64, 79
2, 66903, Control_c, 0, 64, 76
2, 66922, Control_c, 0, 64, 71
2, 66941, Control_c, 0, 64, 66
2, 66953, Note_on_c, 0, 49, 58
2, 66953, Note_on_c, 0, 59, 72
2, 66964, Control_c, 0, 64, 63
2, 66981, Control_c, 0, 64, 61
2, 67015, Note_on_c, 0, 66, 0
2, 67019, Control_c, 0, 64, 62
2, 67037, Control_c, 0, 64, 63
2, 67055, Control_c, 0, 64, 65
2, 67062, Note_on_c, 0, 61, 0
2, 67075, Control_c, 0, 64, 67
2, 67095, Control_c, 0, 64, 69
2, 67115, Control_c, 0, 64, 72
2, 67133, Control_c, 0, 64, 76
2, 67153, Control_c, 0, 64, 78
2, 67171, Note_on_c, 0, 65, 58
2, 67175, Control_c, 0, 64, 81
2, 67192, Control_c, 0, 64, 82
2, 67232, Control_c, 0, 64, 83
2, 67266, Note_on_c, 0, 59, 0
2, 67293, Note_on_c, 0, 37, 0
2, 67361, Note_on_c, 0, 68, 63
2, 67385, Control_c, 0, 64, 84
2, 67389, Note_on_c, 0, 65, 0
2, 67442, Note_on_c, 0, 68, 0
2, 67479, Control_c, 0, 64, 83
2, 67516, Control_c, 0, 64, 82
2, 67556, Control_c, 0, 64, 80
2, 67573, Control_c, 0, 64, 77
2, 67573, Note_on_c, 0, 37, 64
2, 67582, Note_on_c, 0, 61, 68
2, 67591, Control_c, 0, 64, 71
2, 67614, Control_c, 0, 64, 64
2, 67633, Control_c, 0, 64, 62
2, 67668, Control_c, 0, 64, 63
2, 67687, Control_c, 0, 64, 64
2, 67707, Control_c, 0, 64, 66
2, 67725, Control_c, 0, 64, 69
2, 67749, Control_c, 0, 64, 72
2, 67765, Control_c, 0, 64, 74
2, 67783, Control_c, 0, 64, 76
2, 67790, Note_on_c, 0, 66, 66
2, 67805, Control_c, 0, 64, 77
2, 67823, Control_c, 0, 64, 78
2, 67841, Control_c, 0, 64, 79
2, 67867, Note_on_c, 0, 61, 0
2, 67879, Control_c, 0, 64, 80
2, 67900, Control_c, 0, 64, 81
2, 67975, Control_c, 0, 64, 82
2, 67996, Note_on_c, 0, 69, 64
2, 68010, Control_c, 0, 64, 83
2, 68024, Note_on_c, 0, 66, 0
2, 68047, Note_on_c, 0, 49, 0
2, 68054, Note_on_c, 0, 69, 0
2, 68125, Control_c, 0, 64, 82
2, 68145, Control_c, 0, 64, 81
2, 68185, Control_c, 0, 64, 80
2, 68201, Control_c, 0, 64, 79
2, 68222, Control_c, 0, 64, 75
2, 68224, Note_on_c, 0, 49, 68
2, 68228, Note_on_c, 0, 62, 74
2, 68240, Control_c, 0, 64, 70
2, 68260, Control_c, 0, 64, 65
2, 68278, Control_c, 0, 64, 61
2, 68300, Control_c, 0, 64, 59
2, 68337, Control_c, 0, 64, 61
2, 68357, Control_c, 0, 64, 63
2, 68374, Control_c, 0, 64, 64
2, 68394, Control_c, 0, 64, 66
2, 68414, Control_c, 0, 64, 69
2, 68433, Control_c, 0, 64, 72
2, 68444, Note_on_c, 0, 68, 69
2, 68452, Control_c, 0, 64, 75
2, 68470, Control_c, 0, 64, 78
2, 68490, Control_c, 0, 64, 79
2, 68508, Control_c, 0, 64, 80
2, 68537, Note_on_c, 0, 37, 0
2, 68550, Control_c, 0, 64, 81
2, 68621, Note_on_c, 0, 62, 0
2, 68629, Control_c, 0, 64, 82
2, 68629, Note_on_c, 0, 71, 72
2, 68647, Control_c, 0, 64, 83
2, 68662, Note_on_c, 0, 68, 0
2, 68686, Note_on_c, 0, 71, 0
2, 68779, Control_c, 0, 64, 82
2, 68808, Note_on_c, 0, 49, 0
2, 68817, Control_c, 0, 64, 81
2, 68836, Control_c, 0, 64, 79
2, 68856, Control_c, 0, 64, 77
2, 68874, Control_c, 0, 64, 72
2, 68880, Note_on_c, 0, 37, 65
2, 68880, Note_on_c, 0, 65, 73
2, 68894, Control_c, 0, 64, 64
2, 68912, Control_c, 0, 64, 57
2, 68932, Control_c, 0, 64, 50
2, 68949, Control_c, 0, 64, 47
2, 68969, Control_c, 0, 64, 48
2, 68991, Control_c, 0, 64, 53
2, 69008, Control_c, 0, 64, 60
2, 69029, Control_c, 0, 64, 63
2, 69047, Control_c, 0, 64, 64
2, 69068, Control_c, 0, 64, 65
2, 69086, Control_c, 0, 64, 67
2, 69104, Control_c, 0, 64, 69
2, 69108, Note_on_c, 0, 71, 71
2, 69113, Note_on_c, 0, 37, 0
2, 69124, Control_c, 0, 64, 71
2, 69145, Control_c, 0, 64, 74
2, 69162, Control_c, 0, 64, 75
2, 69201, Control_c, 0, 64, 74
2, 69249, Note_on_c, 0, 65, 0
2, 69262, Control_c, 0, 64, 73
2, 69312, Note_on_c, 0, 74, 69
2, 69317, Control_c, 0, 64, 72
2, 69349, Note_on_c, 0, 71, 0
2, 69355, Control_c, 0, 64, 71
2, 69401, Note_on_c, 0, 74, 0
2, 69411, Control_c, 0, 64, 70
2, 69451, Control_c, 0, 64, 69
2, 69508, Control_c, 0, 64, 68
2, 69532, Note_on_c, 0, 53, 76
2, 69548, Control_c, 0, 64, 67
2, 69566, Control_c, 0, 64, 66
2, 69623, Control_c, 0, 64, 64
2, 69643, Control_c, 0, 64, 63
2, 69661, Control_c, 0, 64, 62
2, 69699, Control_c, 0, 64, 60
2, 69719, Control_c, 0, 64, 58
2, 69739, Note_on_c, 0, 71, 80
2, 69743, Control_c, 0, 64, 57
2, 69857, Control_c, 0, 64, 58
2, 69949, Control_c, 0, 64, 59
2, 69971, Control_c, 0, 64, 58
2, 69971, Note_on_c, 0, 77, 84
2, 69989, Control_c, 0, 64, 56
2, 70007, Control_c, 0, 64, 50
2, 70026, Control_c, 0, 64, 37
2, 70045, Note_on_c, 0, 71, 0
2, 70049, Control_c, 0, 64, 16
2, 70065, Control_c, 0, 64, 10
2, 70085, Control_c, 0, 64, 22
2, 70103, Control_c, 0, 64, 39
2, 70124, Control_c, 0, 64, 52
2, 70142, Control_c, 0, 64, 60
2, 70161, Control_c, 0, 64, 62
2, 70181, Note_on_c, 0, 56, 73
2, 70214, Note_on_c, 0, 53, 0
2, 70258, Control_c, 0, 64, 63
2, 70318, Control_c, 0, 64, 62
2, 70360, Note_on_c, 0, 77, 0
2, 70379, Note_on_c, 0, 74, 82
2, 70528, Control_c, 0, 64, 61
2, 70606, Note_on_c, 0, 80, 80
2, 70627, Control_c, 0, 64, 60
2, 70655, Note_on_c, 0, 74, 0
2, 70720, Control_c, 0, 64, 59
2, 70760, Control_c, 0, 64, 58
2, 70800, Control_c, 0, 64, 57
2, 70819, Control_c, 0, 64, 56
2, 70824, Note_on_c, 0, 61, 62
2, 70828, Note_on_c, 0, 56, 0
2, 70835, Control_c, 0, 64, 54
2, 70856, Control_c, 0, 64, 52
2, 70876, Control_c, 0, 64, 48
2, 70895, Control_c, 0, 64, 41
2, 70915, Control_c, 0, 64, 28
2, 70932, Control_c, 0, 64, 0
2, 71036, Note_on_c, 0, 77, 75
2, 71043, Note_on_c, 0, 80, 0
2, 71262, Note_on_c, 0, 77, 0
2, 71297, Note_on_c, 0, 83, 57
2, 71592, Note_on_c, 0, 54, 32
2, 71599, Note_on_c, 0, 82, 42
2, 71671, Note_on_c, 0, 61, 0
2, 71707, Note_on_c, 0, 83, 0
2, 71777, Note_on_c, 0, 82, 0
2, 71805, Note_on_c, 0, 73, 57
2, 72023, Note_on_c, 0, 78, 55
2, 72090, Note_on_c, 0, 73, 0
2, 72252, Note_on_c, 0, 54, 0
2, 72254, Note_on_c, 0, 49, 38
2, 72437, Note_on_c, 0, 80, 55
2, 72450, Note_on_c, 0, 78, 0
2, 72640, Note_on_c, 0, 77, 56
2, 72646, Note_on_c, 0, 80, 0
2, 72846, Note_on_c, 0, 51, 39
2, 72850, Note_on_c, 0, 78, 58
2, 72854, Note_on_c, 0, 77, 0
2, 72911, Note_on_c, 0, 49, 0
2, 73039, Note_on_c, 0, 78, 0
2, 73059, Note_on_c, 0, 70, 56
2, 73255, Note_on_c, 0, 78, 58
2, 73374, Note_on_c, 0, 70, 0
2, 73379, Note_on_c, 0, 78, 0
2, 73484, Note_on_c, 0, 46, 38
2, 73491, Note_on_c, 0, 78, 49
2, 73531, Note_on_c, 0, 51, 0
2, 73693, Note_on_c, 0, 78, 0
2, 73707, Note_on_c, 0, 82, 48
2, 73804, Note_on_c, 0, 80, 54
2, 73871, Note_on_c, 0, 82, 0
2, 73906, Note_on_c, 0, 78, 49
2, 73906, Note_on_c, 0, 80, 0
2, 74137, Note_on_c, 0, 47, 43
2, 74161, Note_on_c, 0, 46, 0
2, 74370, Note_on_c, 0, 68, 54
2, 74377, Note_on_c, 0, 78, 0
2, 74619, Note_on_c, 0, 78, 58
2, 74675, Note_on_c, 0, 68, 0
2, 74828, Note_on_c, 0, 47, 0
2, 74841, Note_on_c, 0, 49, 28
2, 74965, Control_c, 0, 64, 9
2, 74984, Control_c, 0, 64, 33
2, 75001, Control_c, 0, 64, 46
2, 75023, Control_c, 0, 64, 55
2, 75027, Note_on_c, 0, 78, 0
2, 75042, Control_c, 0, 64, 60
2, 75048, Note_on_c, 0, 80, 51
2, 75061, Control_c, 0, 64, 61
2, 75077, Control_c, 0, 64, 63
2, 75097, Control_c, 0, 64, 64
2, 75119, Control_c, 0, 64, 66
2, 75137, Control_c, 0, 64, 67
2, 75157, Control_c, 0, 64, 68
2, 75175, Control_c, 0, 64, 69
2, 75214, Control_c, 0, 64, 68
2, 75230, Note_on_c, 0, 80, 0
2, 75271, Note_on_c, 0, 77, 47
2, 75310, Control_c, 0, 64, 67
2, 75330, Note_on_c, 0, 77, 0
2, 75370, Control_c, 0, 64, 66
2, 75423, Control_c, 0, 64, 65
2, 75462, Control_c, 0, 64, 64
2, 75501, Control_c, 0, 64, 63
2, 75521, Note_on_c, 0, 42, 41
2, 75528, Note_on_c, 0, 78, 28
2, 75540, Control_c, 0, 64, 62
2, 75578, Control_c, 0, 64, 61
2, 75597, Control_c, 0, 64, 60
2, 75606, Note_on_c, 0, 49, 0
2, 75618, Control_c, 0, 64, 58
2, 75636, Control_c, 0, 64, 57
2, 75655, Control_c, 0, 64, 56
2, 75677, Control_c, 0, 64, 54
2, 75694, Control_c, 0, 64, 52
2, 75712, Control_c, 0, 64, 48
2, 75731, Control_c, 0, 64, 43
2, 75750, Control_c, 0, 64, 38
2, 75770, Control_c, 0, 64, 33
2, 75775, Note_on_c, 0, 73, 47
2, 75789, Control_c, 0, 64, 25
2, 75809, Control_c, 0, 64, 0
2, 75903, Note_on_c, 0, 78, 0
2, 76086, Note_on_c, 0, 70, 45
2, 76095, Note_on_c, 0, 73, 0
2, 76154, Control_c, 0, 64, 25
2, 76172, Control_c, 0, 64, 41
2, 76192, Control_c, 0, 64, 51
2, 76212, Control_c, 0, 64, 57
2, 76230, Control_c, 0, 64, 59
2, 76269, Control_c, 0, 64, 61
2, 76289, Control_c, 0, 64, 62
2, 76306, Control_c, 0, 64, 63
2, 76329, Control_c, 0, 64, 64
2, 76366, Control_c, 0, 64, 65
2, 76502, Control_c, 0, 64, 64
2, 76558, Control_c, 0, 64, 63
2, 76562, Note_on_c, 0, 70, 0
2, 76567, Note_on_c, 0, 66, 42
2, 76580, Control_c, 0, 64, 62
2, 76595, Control_c, 0, 64, 60
2, 76616, Control_c, 0, 64, 59
2, 76634, Control_c, 0, 64, 56
2, 76655, Control_c, 0, 64, 52
2, 76674, Control_c, 0, 64, 46
2, 76691, Control_c, 0, 64, 33
2, 76712, Control_c, 0, 64, 15
2, 76731, Control_c, 0, 64, 0
2, 76904, Control_c, 0, 64, 10
2, 76922, Control_c, 0, 64, 24
2, 76940, Control_c, 0, 64, 37
2, 76960, Control_c, 0, 64, 50
2, 76979, Control_c, 0, 64, 58
2, 77000, Control_c, 0, 64, 60
2, 77038, Control_c, 0, 64, 61
2, 77056, Control_c, 0, 64, 62
2, 77076, Control_c, 0, 64, 63
2, 77114, Control_c, 0, 64, 64
2, 77154, Control_c, 0, 64, 63
2, 77268, Control_c, 0, 64, 62
2, 77292, Note_on_c, 0, 66, 0
2, 77404, Control_c, 0, 64, 61
2, 77660, Note_on_c, 0, 42, 0
2, 77806, Control_c, 0, 64, 60
2, 77845, Control_c, 0, 64, 58
2, 77863, Control_c, 0, 64, 57
2, 77901, Control_c, 0, 64, 56
2, 77921, Control_c, 0, 64, 54
2, 77939, Control_c, 0, 64, 53
2, 77960, Control_c, 0, 64, 52
2, 78016, Control_c, 0, 64, 50
2, 78037, Control_c, 0, 64, 49
2, 78055, Control_c, 0, 64, 48
2, 78130, Control_c, 0, 64, 47
2, 78172, Control_c, 0, 64, 46
2, 78229, Control_c, 0, 64, 45
2, 78266, Control_c, 0, 64, 44
2, 78286, Control_c, 0, 64, 43
2, 78306, Control_c, 0, 64, 42
2, 78326, Control_c, 0, 64, 41
2, 78343, Control_c, 0, 64, 40
2, 78363, Control_c, 0, 64, 38
2, 78384, Control_c, 0, 64, 36
2, 78400, Control_c, 0, 64, 33
2, 78419, Control_c, 0, 64, 31
2, 78439, Control_c, 0, 64, 28
2, 78460, Control_c, 0, 64, 25
2, 78479, Control_c, 0, 64, 20
2, 78496, Control_c, 0, 64, 13
2, 78517, Control_c, 0, 64, 0
2, 80527,End_track
0, 0, End_of_file
