0, 0, Header, 1, 2, 480
1, 0, Start_track
1, 0, Tempo, 500000
1, 0, Time_signature, 4, 2, 24, 8
1, 1, End_track
2, 0, Start_track
2, 0, Program_c, 0, 0
2, 0, Control_c, 0, 64, 0
2, 0, Control_c, 0, 67, 0
2, 974, Note_on_c, 0, 69, 67
2, 987, Note_on_c, 0, 45, 49
2, 1089, Note_on_c, 0, 69, 0
2, 1110, Note_on_c, 0, 71, 78
2, 1209, Note_on_c, 0, 71, 0
2, 1255, Note_on_c, 0, 73, 86
2, 1312, Note_on_c, 0, 45, 0
2, 1331, Note_on_c, 0, 73, 0
2, 1388, Note_on_c, 0, 69, 71
2, 1495, Note_on_c, 0, 69, 0
2, 1544, Note_on_c, 0, 57, 58
2, 1551, Note_on_c, 0, 78, 81
2, 1633, Note_on_c, 0, 78, 0
2, 1861, Note_on_c, 0, 78, 81
2, 1932, Note_on_c, 0, 78, 0
2, 2136, Note_on_c, 0, 57, 0
2, 2184, Note_on_c, 0, 56, 46
2, 2184, Note_on_c, 0, 78, 71
2, 2325, Note_on_c, 0, 75, 68
2, 2341, Note_on_c, 0, 78, 0
2, 2414, Note_on_c, 0, 75, 0
2, 2480, Note_on_c, 0, 76, 67
2, 2775, Note_on_c, 0, 56, 0
2, 2792, Note_on_c, 0, 55, 60
2, 2826, Note_on_c, 0, 76, 0
2, 2952, Note_on_c, 0, 76, 87
2, 3060, Note_on_c, 0, 76, 0
2, 3102, Note_on_c, 0, 78, 92
2, 3105, Note_on_c, 0, 64, 61
2, 3196, Note_on_c, 0, 78, 0
2, 3247, Note_on_c, 0, 79, 95
2, 3343, Note_on_c, 0, 79, 0
2, 3387, Note_on_c, 0, 55, 0
2, 3406, Note_on_c, 0, 54, 61
2, 3408, Note_on_c, 0, 81, 87
2, 3565, Note_on_c, 0, 79, 88
2, 3577, Note_on_c, 0, 81, 0
2, 3684, Note_on_c, 0, 64, 0
2, 3709, Note_on_c, 0, 57, 68
2, 3709, Note_on_c, 0, 78, 92
2, 3717, Note_on_c, 0, 79, 0
2, 3761, Note_on_c, 0, 57, 0
2, 3833, Note_on_c, 0, 78, 0
2, 3853, Note_on_c, 0, 81, 82
2, 3955, Note_on_c, 0, 81, 0
2, 3990, Note_on_c, 0, 54, 0
2, 4009, Note_on_c, 0, 59, 63
2, 4018, Note_on_c, 0, 74, 87
2, 4130, Note_on_c, 0, 74, 0
2, 4150, Note_on_c, 0, 73, 89
2, 4256, Note_on_c, 0, 73, 0
2, 4304, Note_on_c, 0, 71, 84
2, 4313, Note_on_c, 0, 62, 56
2, 4379, Note_on_c, 0, 71, 0
2, 4447, Note_on_c, 0, 81, 78
2, 4584, Note_on_c, 0, 59, 0
2, 4601, Note_on_c, 0, 52, 46
2, 4610, Note_on_c, 0, 80, 76
2, 4643, Note_on_c, 0, 81, 0
2, 4751, Note_on_c, 0, 78, 84
2, 4763, Note_on_c, 0, 80, 0
2, 4904, Note_on_c, 0, 78, 0
2, 4908, Note_on_c, 0, 56, 58
2, 4908, Note_on_c, 0, 76, 85
2, 4913, Note_on_c, 0, 62, 0
2, 4953, Note_on_c, 0, 56, 0
2, 5010, Note_on_c, 0, 76, 0
2, 5033, Note_on_c, 0, 80, 82
2, 5181, Note_on_c, 0, 52, 0
2, 5181, Note_on_c, 0, 80, 0
2, 5203, Note_on_c, 0, 73, 81
2, 5211, Note_on_c, 0, 57, 55
2, 5346, Note_on_c, 0, 71, 79
2, 5353, Note_on_c, 0, 73, 0
2, 5447, Note_on_c, 0, 71, 0
2, 5490, Note_on_c, 0, 61, 51
2, 5496, Note_on_c, 0, 69, 72
2, 5588, Note_on_c, 0, 69, 0
2, 5648, Note_on_c, 0, 79, 76
2, 5731, Note_on_c, 0, 57, 0
2, 5808, Note_on_c, 0, 50, 47
2, 5821, Note_on_c, 0, 78, 74
2, 5826, Note_on_c, 0, 79, 0
2, 5877, Note_on_c, 0, 61, 0
2, 5957, Note_on_c, 0, 78, 0
2, 5962, Note_on_c, 0, 76, 80
2, 6096, Note_on_c, 0, 76, 0
2, 6115, Note_on_c, 0, 50, 0
2, 6120, Note_on_c, 0, 74, 80
2, 6129, Note_on_c, 0, 59, 61
2, 6209, Note_on_c, 0, 59, 0
2, 6233, Note_on_c, 0, 74, 0
2, 6251, Note_on_c, 0, 78, 82
2, 6267, Note_on_c, 0, 57, 61
2, 6358, Note_on_c, 0, 57, 0
2, 6380, Note_on_c, 0, 78, 0
2, 6386, Note_on_c, 0, 56, 57
2, 6406, Note_on_c, 0, 71, 76
2, 6418, Note_on_c, 0, 52, 61
2, 6439, Note_on_c, 0, 56, 0
2, 6454, Note_on_c, 0, 57, 57
2, 6484, Note_on_c, 0, 71, 0
2, 6538, Note_on_c, 0, 57, 0
2, 6543, Note_on_c, 0, 78, 70
2, 6556, Note_on_c, 0, 56, 52
2, 6647, Note_on_c, 0, 56, 0
2, 6685, Note_on_c, 0, 78, 0
2, 6705, Note_on_c, 0, 76, 75
2, 6810, Note_on_c, 0, 52, 0
2, 6814, Note_on_c, 0, 76, 0
2, 6832, Note_on_c, 0, 56, 62
2, 6852, Note_on_c, 0, 74, 68
2, 6883, Note_on_c, 0, 56, 0
2, 6984, Note_on_c, 0, 74, 0
2, 7004, Note_on_c, 0, 45, 66
2, 7008, Note_on_c, 0, 57, 65
2, 7022, Note_on_c, 0, 73, 73
2, 7084, Note_on_c, 0, 57, 0
2, 7131, Note_on_c, 0, 73, 0
2, 7153, Note_on_c, 0, 71, 76
2, 7264, Note_on_c, 0, 71, 0
2, 7297, Note_on_c, 0, 45, 0
2, 7302, Note_on_c, 0, 69, 80
2, 7306, Note_on_c, 0, 57, 78
2, 7427, Note_on_c, 0, 69, 0
2, 7432, Note_on_c, 0, 71, 83
2, 7579, Note_on_c, 0, 71, 0
2, 7592, Note_on_c, 0, 57, 0
2, 7592, Note_on_c, 0, 73, 90
2, 7596, Note_on_c, 0, 56, 74
2, 7717, Note_on_c, 0, 73, 0
2, 7724, Note_on_c, 0, 75, 84
2, 7858, Note_on_c, 0, 75, 0
2, 7888, Note_on_c, 0, 54, 77
2, 7888, Note_on_c, 0, 56, 0
2, 7888, Note_on_c, 0, 76, 91
2, 8028, Note_on_c, 0, 78, 89
2, 8048, Note_on_c, 0, 76, 0
2, 8148, Note_on_c, 0, 54, 0
2, 8153, Note_on_c, 0, 78, 0
2, 8189, Note_on_c, 0, 80, 90
2, 8195, Note_on_c, 0, 52, 83
2, 8308, Note_on_c, 0, 80, 0
2, 8326, Note_on_c, 0, 81, 83
2, 8339, Note_on_c, 0, 54, 77
2, 8341, Note_on_c, 0, 52, 0
2, 8458, Note_on_c, 0, 81, 0
2, 8484, Note_on_c, 0, 56, 85
2, 8486, Note_on_c, 0, 54, 0
2, 8491, Note_on_c, 0, 83, 79
2, 8623, Note_on_c, 0, 56, 0
2, 8628, Note_on_c, 0, 52, 84
2, 8628, Note_on_c, 0, 80, 84
2, 8632, Note_on_c, 0, 83, 0
2, 8764, Note_on_c, 0, 52, 0
2, 8764, Note_on_c, 0, 80, 0
2, 8780, Note_on_c, 0, 61, 82
2, 8796, Note_on_c, 0, 76, 83
2, 8847, Note_on_c, 0, 61, 0
2, 8935, Note_on_c, 0, 78, 73
2, 8977, Note_on_c, 0, 76, 0
2, 9082, Note_on_c, 0, 78, 0
2, 9095, Note_on_c, 0, 61, 78
2, 9102, Note_on_c, 0, 80, 76
2, 9141, Note_on_c, 0, 61, 0
2, 9228, Note_on_c, 0, 76, 77
2, 9347, Note_on_c, 0, 76, 0
2, 9351, Note_on_c, 0, 80, 0
2, 9391, Note_on_c, 0, 61, 69
2, 9398, Note_on_c, 0, 78, 74
2, 9404, Note_on_c, 0, 75, 68
2, 9486, Note_on_c, 0, 61, 0
2, 9521, Note_on_c, 0, 78, 0
2, 9539, Note_on_c, 0, 58, 66
2, 9543, Note_on_c, 0, 80, 67
2, 9644, Note_on_c, 0, 58, 0
2, 9661, Note_on_c, 0, 80, 0
2, 9700, Note_on_c, 0, 59, 61
2, 9708, Note_on_c, 0, 81, 69
2, 9738, Note_on_c, 0, 75, 0
2, 9845, Note_on_c, 0, 81, 0
2, 9857, Note_on_c, 0, 78, 81
2, 10012, Note_on_c, 0, 71, 76
2, 10012, Note_on_c, 0, 74, 78
2, 10038, Note_on_c, 0, 59, 0
2, 10168, Note_on_c, 0, 59, 84
2, 10232, Note_on_c, 0, 78, 0
2, 10248, Note_on_c, 0, 74, 0
2, 10324, Note_on_c, 0, 59, 0
2, 10324, Note_on_c, 0, 61, 74
2, 10333, Note_on_c, 0, 83, 83
2, 10465, Note_on_c, 0, 61, 0
2, 10474, Note_on_c, 0, 62, 71
2, 10590, Note_on_c, 0, 71, 0
2, 10609, Note_on_c, 0, 62, 0
2, 10641, Note_on_c, 0, 64, 61
2, 10652, Note_on_c, 0, 73, 68
2, 10775, Note_on_c, 0, 64, 0
2, 10784, Note_on_c, 0, 62, 60
2, 10924, Note_on_c, 0, 62, 0
2, 10948, Note_on_c, 0, 61, 58
2, 10955, Note_on_c, 0, 76, 72
2, 10959, Note_on_c, 0, 83, 0
2, 11065, Note_on_c, 0, 61, 0
2, 11086, Note_on_c, 0, 73, 0
2, 11102, Note_on_c, 0, 64, 65
2, 11115, Note_on_c, 0, 76, 0
2, 11250, Note_on_c, 0, 64, 0
2, 11261, Note_on_c, 0, 57, 67
2, 11265, Note_on_c, 0, 78, 82
2, 11382, Note_on_c, 0, 57, 0
2, 11398, Note_on_c, 0, 56, 71
2, 11547, Note_on_c, 0, 54, 70
2, 11549, Note_on_c, 0, 56, 0
2, 11570, Note_on_c, 0, 81, 70
2, 11680, Note_on_c, 0, 54, 0
2, 11709, Note_on_c, 0, 64, 72
2, 11826, Note_on_c, 0, 78, 0
2, 11858, Note_on_c, 0, 64, 0
2, 11862, Note_on_c, 0, 63, 73
2, 11884, Note_on_c, 0, 71, 51
2, 12009, Note_on_c, 0, 61, 68
2, 12009, Note_on_c, 0, 63, 0
2, 12162, Note_on_c, 0, 61, 0
2, 12181, Note_on_c, 0, 59, 68
2, 12195, Note_on_c, 0, 75, 60
2, 12210, Note_on_c, 0, 81, 0
2, 12279, Note_on_c, 0, 59, 0
2, 12318, Note_on_c, 0, 63, 66
2, 12388, Note_on_c, 0, 75, 0
2, 12481, Note_on_c, 0, 63, 0
2, 12488, Note_on_c, 0, 56, 66
2, 12490, Note_on_c, 0, 71, 0
2, 12495, Note_on_c, 0, 76, 69
2, 12618, Note_on_c, 0, 56, 0
2, 12636, Note_on_c, 0, 54, 66
2, 12774, Note_on_c, 0, 54, 0
2, 12792, Note_on_c, 0, 52, 69
2, 12816, Note_on_c, 0, 80, 62
2, 12904, Note_on_c, 0, 52, 0
2, 12948, Note_on_c, 0, 62, 64
2, 13080, Note_on_c, 0, 80, 0
2, 13091, Note_on_c, 0, 62, 0
2, 13098, Note_on_c, 0, 61, 64
2, 13119, Note_on_c, 0, 81, 57
2, 13244, Note_on_c, 0, 59, 75
2, 13244, Note_on_c, 0, 61, 0
2, 13259, Note_on_c, 0, 81, 0
2, 13264, Note_on_c, 0, 80, 68
2, 13331, Note_on_c, 0, 76, 0
2, 13382, Note_on_c, 0, 59, 0
2, 13391, Note_on_c, 0, 57, 80
2, 13412, Note_on_c, 0, 78, 78
2, 13412, Note_on_c, 0, 80, 0
2, 13520, Note_on_c, 0, 57, 0
2, 13535, Note_on_c, 0, 61, 73
2, 13556, Note_on_c, 0, 78, 0
2, 13556, Note_on_c, 0, 81, 76
2, 13679, Note_on_c, 0, 61, 0
2, 13690, Note_on_c, 0, 81, 0
2, 13701, Note_on_c, 0, 54, 73
2, 13701, Note_on_c, 0, 75, 82
2, 13836, Note_on_c, 0, 61, 66
2, 13843, Note_on_c, 0, 81, 73
2, 13847, Note_on_c, 0, 54, 0
2, 13971, Note_on_c, 0, 61, 0
2, 13993, Note_on_c, 0, 80, 78
2, 14000, Note_on_c, 0, 59, 69
2, 14136, Note_on_c, 0, 59, 0
2, 14140, Note_on_c, 0, 57, 71
2, 14140, Note_on_c, 0, 78, 83
2, 14140, Note_on_c, 0, 81, 0
2, 14149, Note_on_c, 0, 75, 0
2, 14182, Note_on_c, 0, 80, 0
2, 14256, Note_on_c, 0, 78, 0
2, 14281, Note_on_c, 0, 57, 0
2, 14294, Note_on_c, 0, 56, 66
2, 14312, Note_on_c, 0, 76, 77
2, 14409, Note_on_c, 0, 56, 0
2, 14437, Note_on_c, 0, 54, 67
2, 14589, Note_on_c, 0, 54, 0
2, 14607, Note_on_c, 0, 52, 68
2, 14636, Note_on_c, 0, 71, 57
2, 14739, Note_on_c, 0, 52, 0
2, 14746, Note_on_c, 0, 54, 68
2, 14851, Note_on_c, 0, 76, 0
2, 14909, Note_on_c, 0, 56, 73
2, 14913, Note_on_c, 0, 54, 0
2, 14955, Note_on_c, 0, 76, 75
2, 14964, Note_on_c, 0, 71, 0
2, 15051, Note_on_c, 0, 57, 76
2, 15058, Note_on_c, 0, 56, 0
2, 15176, Note_on_c, 0, 76, 0
2, 15185, Note_on_c, 0, 57, 0
2, 15212, Note_on_c, 0, 59, 76
2, 15232, Note_on_c, 0, 79, 91
2, 15249, Note_on_c, 0, 76, 72
2, 15354, Note_on_c, 0, 59, 0
2, 15365, Note_on_c, 0, 61, 73
2, 15456, Note_on_c, 0, 76, 0
2, 15456, Note_on_c, 0, 79, 0
2, 15515, Note_on_c, 0, 61, 0
2, 15525, Note_on_c, 0, 62, 74
2, 15530, Note_on_c, 0, 79, 74
2, 15539, Note_on_c, 0, 76, 74
2, 15635, Note_on_c, 0, 62, 0
2, 15675, Note_on_c, 0, 64, 65
2, 15814, Note_on_c, 0, 64, 0
2, 15823, Note_on_c, 0, 76, 0
2, 15847, Note_on_c, 0, 66, 63
2, 15847, Note_on_c, 0, 79, 0
2, 15858, Note_on_c, 0, 78, 67
2, 15869, Note_on_c, 0, 74, 53
2, 15976, Note_on_c, 0, 66, 0
2, 15994, Note_on_c, 0, 62, 65
2, 16088, Note_on_c, 0, 74, 0
2, 16132, Note_on_c, 0, 78, 0
2, 16135, Note_on_c, 0, 62, 0
2, 16154, Note_on_c, 0, 59, 74
2, 16298, Note_on_c, 0, 59, 0
2, 16299, Note_on_c, 0, 61, 66
2, 16436, Note_on_c, 0, 61, 0
2, 16456, Note_on_c, 0, 78, 70
2, 16458, Note_on_c, 0, 62, 63
2, 16469, Note_on_c, 0, 74, 59
2, 16525, Note_on_c, 0, 74, 0
2, 16543, Note_on_c, 0, 78, 0
2, 16563, Note_on_c, 0, 62, 0
2, 16597, Note_on_c, 0, 59, 66
2, 16746, Note_on_c, 0, 59, 0
2, 16763, Note_on_c, 0, 61, 55
2, 16772, Note_on_c, 0, 78, 68
2, 16784, Note_on_c, 0, 74, 56
2, 16880, Note_on_c, 0, 61, 0
2, 16909, Note_on_c, 0, 62, 55
2, 17035, Note_on_c, 0, 62, 0
2, 17072, Note_on_c, 0, 74, 0
2, 17077, Note_on_c, 0, 64, 56
2, 17081, Note_on_c, 0, 78, 0
2, 17103, Note_on_c, 0, 73, 60
2, 17103, Note_on_c, 0, 76, 60
2, 17179, Note_on_c, 0, 64, 0
2, 17222, Note_on_c, 0, 61, 55
2, 17337, Note_on_c, 0, 76, 0
2, 17357, Note_on_c, 0, 73, 0
2, 17371, Note_on_c, 0, 61, 0
2, 17392, Note_on_c, 0, 57, 66
2, 17524, Note_on_c, 0, 59, 71
2, 17528, Note_on_c, 0, 57, 0
2, 17667, Note_on_c, 0, 59, 0
2, 17688, Note_on_c, 0, 61, 63
2, 17688, Note_on_c, 0, 76, 76
2, 17698, Note_on_c, 0, 73, 74
2, 17763, Note_on_c, 0, 76, 0
2, 17772, Note_on_c, 0, 73, 0
2, 17822, Note_on_c, 0, 61, 0
2, 17842, Note_on_c, 0, 57, 68
2, 18000, Note_on_c, 0, 59, 65
2, 18004, Note_on_c, 0, 76, 77
2, 18019, Note_on_c, 0, 57, 0
2, 18023, Note_on_c, 0, 73, 70
2, 18127, Note_on_c, 0, 59, 0
2, 18142, Note_on_c, 0, 61, 56
2, 18281, Note_on_c, 0, 61, 0
2, 18310, Note_on_c, 0, 73, 0
2, 18314, Note_on_c, 0, 62, 59
2, 18325, Note_on_c, 0, 74, 62
2, 18330, Note_on_c, 0, 76, 0
2, 18352, Note_on_c, 0, 71, 49
2, 18455, Note_on_c, 0, 62, 0
2, 18464, Note_on_c, 0, 59, 65
2, 18521, Note_on_c, 0, 71, 0
2, 18584, Note_on_c, 0, 74, 0
2, 18605, Note_on_c, 0, 59, 0
2, 18621, Note_on_c, 0, 56, 73
2, 18761, Note_on_c, 0, 57, 79
2, 18765, Note_on_c, 0, 56, 0
2, 18908, Note_on_c, 0, 57, 0
2, 18923, Note_on_c, 0, 59, 78
2, 18938, Note_on_c, 0, 74, 85
2, 19069, Note_on_c, 0, 59, 0
2, 19078, Note_on_c, 0, 56, 81
2, 19156, Note_on_c, 0, 56, 0
2, 19200, Note_on_c, 0, 74, 0
2, 19245, Note_on_c, 0, 57, 84
2, 19258, Note_on_c, 0, 74, 80
2, 19391, Note_on_c, 0, 59, 80
2, 19550, Note_on_c, 0, 57, 0
2, 19555, Note_on_c, 0, 61, 75
2, 19559, Note_on_c, 0, 73, 89
2, 19570, Note_on_c, 0, 59, 0
2, 19581, Note_on_c, 0, 74, 0
2, 19697, Note_on_c, 0, 57, 77
2, 19701, Note_on_c, 0, 61, 0
2, 19828, Note_on_c, 0, 73, 0
2, 19859, Note_on_c, 0, 66, 78
2, 19868, Note_on_c, 0, 81, 82
2, 19992, Note_on_c, 0, 57, 0
2, 19992, Note_on_c, 0, 66, 0
2, 19996, Note_on_c, 0, 61, 72
2, 20123, Note_on_c, 0, 61, 0
2, 20149, Note_on_c, 0, 66, 76
2, 20153, Note_on_c, 0, 57, 74
2, 20270, Note_on_c, 0, 66, 0
2, 20303, Note_on_c, 0, 54, 78
2, 20328, Note_on_c, 0, 57, 0
2, 20386, Note_on_c, 0, 54, 0
2, 20465, Note_on_c, 0, 66, 71
2, 20472, Note_on_c, 0, 80, 79
2, 20476, Note_on_c, 0, 61, 72
2, 20516, Note_on_c, 0, 81, 0
2, 20619, Note_on_c, 0, 63, 76
2, 20619, Note_on_c, 0, 66, 0
2, 20745, Note_on_c, 0, 63, 0
2, 20785, Note_on_c, 0, 64, 79
2, 20998, Note_on_c, 0, 80, 0
2, 21089, Note_on_c, 0, 79, 84
2, 21153, Note_on_c, 0, 61, 0
2, 21175, Note_on_c, 0, 64, 0
2, 21247, Note_on_c, 0, 64, 79
2, 21388, Note_on_c, 0, 64, 0
2, 21393, Note_on_c, 0, 66, 85
2, 21526, Note_on_c, 0, 67, 82
2, 21535, Note_on_c, 0, 66, 0
2, 21695, Note_on_c, 0, 67, 0
2, 21708, Note_on_c, 0, 69, 72
2, 21708, Note_on_c, 0, 78, 83
2, 21735, Note_on_c, 0, 79, 0
2, 21844, Note_on_c, 0, 67, 71
2, 21909, Note_on_c, 0, 69, 0
2, 22005, Note_on_c, 0, 67, 0
2, 22013, Note_on_c, 0, 66, 74
2, 22018, Note_on_c, 0, 57, 77
2, 22153, Note_on_c, 0, 66, 0
2, 22159, Note_on_c, 0, 69, 75
2, 22268, Note_on_c, 0, 78, 0
2, 22304, Note_on_c, 0, 57, 0
2, 22304, Note_on_c, 0, 69, 0
2, 22317, Note_on_c, 0, 62, 77
2, 22328, Note_on_c, 0, 83, 84
2, 22452, Note_on_c, 0, 62, 0
2, 22463, Note_on_c, 0, 61, 72
2, 22602, Note_on_c, 0, 61, 0
2, 22614, Note_on_c, 0, 62, 77
2, 22627, Note_on_c, 0, 59, 72
2, 22696, Note_on_c, 0, 83, 0
2, 22760, Note_on_c, 0, 69, 74
2, 22880, Note_on_c, 0, 59, 0
2, 22898, Note_on_c, 0, 69, 0
2, 22945, Note_on_c, 0, 68, 78
2, 22945, Note_on_c, 0, 76, 83
2, 22983, Note_on_c, 0, 62, 0
2, 23079, Note_on_c, 0, 66, 76
2, 23090, Note_on_c, 0, 68, 0
2, 23217, Note_on_c, 0, 66, 0
2, 23243, Note_on_c, 0, 64, 76
2, 23257, Note_on_c, 0, 56, 72
2, 23380, Note_on_c, 0, 64, 0
2, 23397, Note_on_c, 0, 68, 75
2, 23452, Note_on_c, 0, 76, 0
2, 23543, Note_on_c, 0, 68, 0
2, 23554, Note_on_c, 0, 56, 0
2, 23554, Note_on_c, 0, 81, 76
2, 23558, Note_on_c, 0, 61, 66
2, 23679, Note_on_c, 0, 61, 0
2, 23706, Note_on_c, 0, 59, 68
2, 23844, Note_on_c, 0, 59, 0
2, 23855, Note_on_c, 0, 61, 67
2, 23874, Note_on_c, 0, 57, 67
2, 23940, Note_on_c, 0, 61, 0
2, 24011, Note_on_c, 0, 67, 74
2, 24142, Note_on_c, 0, 67, 0
2, 24151, Note_on_c, 0, 57, 0
2, 24169, Note_on_c, 0, 66, 68
2, 24178, Note_on_c, 0, 62, 60
2, 24276, Note_on_c, 0, 66, 0
2, 24283, Note_on_c, 0, 62, 0
2, 24313, Note_on_c, 0, 64, 71
2, 24463, Note_on_c, 0, 64, 0
2, 24478, Note_on_c, 0, 62, 64
2, 24484, Note_on_c, 0, 59, 63
2, 24577, Note_on_c, 0, 62, 0
2, 24580, Note_on_c, 0, 59, 0
2, 24619, Note_on_c, 0, 66, 76
2, 24774, Note_on_c, 0, 59, 59
2, 24774, Note_on_c, 0, 66, 0
2, 24788, Note_on_c, 0, 80, 75
2, 24812, Note_on_c, 0, 81, 0
2, 24880, Note_on_c, 0, 59, 0
2, 24921, Note_on_c, 0, 66, 70
2, 25010, Note_on_c, 0, 66, 0
2, 25091, Note_on_c, 0, 52, 63
2, 25091, Note_on_c, 0, 64, 75
2, 25118, Note_on_c, 0, 52, 0
2, 25168, Note_on_c, 0, 64, 0
2, 25233, Note_on_c, 0, 62, 68
2, 25362, Note_on_c, 0, 62, 0
2, 25397, Note_on_c, 0, 57, 56
2, 25397, Note_on_c, 0, 61, 52
2, 25499, Note_on_c, 0, 57, 0
2, 25564, Note_on_c, 0, 78, 77
2, 25570, Note_on_c, 0, 80, 0
2, 25712, Note_on_c, 0, 56, 60
2, 25717, Note_on_c, 0, 78, 0
2, 25719, Note_on_c, 0, 77, 84
2, 25781, Note_on_c, 0, 56, 0
2, 25861, Note_on_c, 0, 77, 0
2, 25865, Note_on_c, 0, 80, 87
2, 26010, Note_on_c, 0, 78, 86
2, 26021, Note_on_c, 0, 80, 0
2, 26026, Note_on_c, 0, 57, 59
2, 26085, Note_on_c, 0, 57, 0
2, 26172, Note_on_c, 0, 76, 64
2, 26300, Note_on_c, 0, 76, 0
2, 26322, Note_on_c, 0, 54, 50
2, 26336, Note_on_c, 0, 74, 52
2, 26389, Note_on_c, 0, 54, 0
2, 26407, Note_on_c, 0, 74, 0
2, 26477, Note_on_c, 0, 73, 66
2, 26587, Note_on_c, 0, 73, 0
2, 26622, Note_on_c, 0, 56, 51
2, 26626, Note_on_c, 0, 71, 60
2, 26647, Note_on_c, 0, 61, 0
2, 26672, Note_on_c, 0, 56, 0
2, 26705, Note_on_c, 0, 71, 0
2, 26761, Note_on_c, 0, 69, 56
2, 26888, Note_on_c, 0, 69, 0
2, 26930, Note_on_c, 0, 68, 67
2, 26935, Note_on_c, 0, 78, 0
2, 26943, Note_on_c, 0, 59, 52
2, 26987, Note_on_c, 0, 59, 0
2, 27076, Note_on_c, 0, 68, 0
2, 27080, Note_on_c, 0, 71, 66
2, 27193, Note_on_c, 0, 71, 0
2, 27242, Note_on_c, 0, 61, 46
2, 27242, Note_on_c, 0, 77, 70
2, 27305, Note_on_c, 0, 61, 0
2, 27401, Note_on_c, 0, 74, 56
2, 27461, Note_on_c, 0, 74, 0
2, 27551, Note_on_c, 0, 49, 49
2, 27569, Note_on_c, 0, 73, 60
2, 27597, Note_on_c, 0, 49, 0
2, 27634, Note_on_c, 0, 73, 0
2, 27698, Note_on_c, 0, 71, 66
2, 27737, Note_on_c, 0, 71, 0
2, 27813, Note_on_c, 0, 77, 0
2, 27865, Note_on_c, 0, 69, 67
2, 27865, Note_on_c, 0, 78, 76
2, 27873, Note_on_c, 0, 54, 59
2, 27912, Note_on_c, 0, 54, 0
2, 28002, Note_on_c, 0, 80, 76
2, 28013, Note_on_c, 0, 78, 0
2, 28173, Note_on_c, 0, 42, 54
2, 28173, Note_on_c, 0, 81, 78
2, 28210, Note_on_c, 0, 42, 0
2, 28215, Note_on_c, 0, 80, 0
2, 28320, Note_on_c, 0, 81, 0
2, 28323, Note_on_c, 0, 78, 79
2, 28396, Note_on_c, 0, 78, 0
2, 28491, Note_on_c, 0, 54, 53
2, 28491, Note_on_c, 0, 74, 68
2, 28642, Note_on_c, 0, 73, 69
2, 28649, Note_on_c, 0, 74, 0
2, 28684, Note_on_c, 0, 69, 0
2, 28735, Note_on_c, 0, 73, 0
2, 28810, Note_on_c, 0, 74, 71
2, 28819, Note_on_c, 0, 71, 62
2, 28936, Note_on_c, 0, 71, 0
2, 28963, Note_on_c, 0, 69, 63
2, 29015, Note_on_c, 0, 74, 0
2, 29074, Note_on_c, 0, 69, 0
2, 29080, Note_on_c, 0, 54, 0
2, 29113, Note_on_c, 0, 53, 50
2, 29122, Note_on_c, 0, 74, 65
2, 29163, Note_on_c, 0, 68, 51
2, 29257, Note_on_c, 0, 74, 0
2, 29272, Note_on_c, 0, 72, 69
2, 29365, Note_on_c, 0, 72, 0
2, 29437, Note_on_c, 0, 73, 62
2, 29595, Note_on_c, 0, 56, 48
2, 29644, Note_on_c, 0, 68, 0
2, 29723, Note_on_c, 0, 53, 0
2, 29728, Note_on_c, 0, 56, 0
2, 29759, Note_on_c, 0, 61, 54
2, 29777, Note_on_c, 0, 52, 47
2, 29788, Note_on_c, 0, 73, 0
2, 29896, Note_on_c, 0, 73, 76
2, 30030, Note_on_c, 0, 73, 0
2, 30060, Note_on_c, 0, 74, 80
2, 30176, Note_on_c, 0, 74, 0
2, 30208, Note_on_c, 0, 76, 71
2, 30346, Note_on_c, 0, 52, 0
2, 30350, Note_on_c, 0, 76, 0
2, 30363, Note_on_c, 0, 51, 46
2, 30381, Note_on_c, 0, 78, 64
2, 30530, Note_on_c, 0, 76, 67
2, 30542, Note_on_c, 0, 78, 0
2, 30661, Note_on_c, 0, 54, 60
2, 30666, Note_on_c, 0, 76, 0
2, 30668, Note_on_c, 0, 61, 0
2, 30679, Note_on_c, 0, 75, 73
2, 30717, Note_on_c, 0, 54, 0
2, 30787, Note_on_c, 0, 75, 0
2, 30812, Note_on_c, 0, 78, 79
2, 30974, Note_on_c, 0, 51, 0
2, 30978, Note_on_c, 0, 56, 62
2, 30985, Note_on_c, 0, 71, 79
2, 30985, Note_on_c, 0, 78, 0
2, 31124, Note_on_c, 0, 69, 81
2, 31128, Note_on_c, 0, 71, 0
2, 31250, Note_on_c, 0, 69, 0
2, 31286, Note_on_c, 0, 68, 86
2, 31295, Note_on_c, 0, 59, 58
2, 31396, Note_on_c, 0, 68, 0
2, 31432, Note_on_c, 0, 78, 88
2, 31597, Note_on_c, 0, 77, 85
2, 31601, Note_on_c, 0, 49, 57
2, 31610, Note_on_c, 0, 56, 0
2, 31754, Note_on_c, 0, 75, 84
2, 31759, Note_on_c, 0, 78, 0
2, 31768, Note_on_c, 0, 77, 0
2, 31888, Note_on_c, 0, 75, 0
2, 31900, Note_on_c, 0, 53, 65
2, 31904, Note_on_c, 0, 73, 91
2, 31960, Note_on_c, 0, 53, 0
2, 31960, Note_on_c, 0, 59, 0
2, 32040, Note_on_c, 0, 73, 0
2, 32058, Note_on_c, 0, 83, 84
2, 32225, Note_on_c, 0, 49, 0
2, 32227, Note_on_c, 0, 54, 59
2, 32227, Note_on_c, 0, 81, 81
2, 32270, Note_on_c, 0, 83, 0
2, 32374, Note_on_c, 0, 80, 85
2, 32408, Note_on_c, 0, 81, 0
2, 32525, Note_on_c, 0, 57, 61
2, 32537, Note_on_c, 0, 78, 87
2, 32551, Note_on_c, 0, 80, 0
2, 32688, Note_on_c, 0, 78, 0
2, 32689, Note_on_c, 0, 77, 90
2, 32818, Note_on_c, 0, 54, 0
2, 32844, Note_on_c, 0, 50, 56
2, 32847, Note_on_c, 0, 78, 88
2, 32855, Note_on_c, 0, 57, 0
2, 32878, Note_on_c, 0, 77, 0
2, 32990, Note_on_c, 0, 78, 0
2, 32997, Note_on_c, 0, 77, 94
2, 33109, Note_on_c, 0, 50, 0
2, 33145, Note_on_c, 0, 47, 55
2, 33149, Note_on_c, 0, 56, 61
2, 33149, Note_on_c, 0, 78, 87
2, 33202, Note_on_c, 0, 77, 0
2, 33228, Note_on_c, 0, 47, 0
2, 33270, Note_on_c, 0, 56, 0
2, 33287, Note_on_c, 0, 54, 63
2, 33287, Note_on_c, 0, 80, 90
2, 33306, Note_on_c, 0, 78, 0
2, 33407, Note_on_c, 0, 80, 0
2, 33435, Note_on_c, 0, 54, 0
2, 33453, Note_on_c, 0, 81, 75
2, 33457, Note_on_c, 0, 53, 61
2, 33464, Note_on_c, 0, 49, 57
2, 33546, Note_on_c, 0, 80, 81
2, 33546, Note_on_c, 0, 81, 0
2, 33603, Note_on_c, 0, 80, 0
2, 33610, Note_on_c, 0, 81, 74
2, 33682, Note_on_c, 0, 80, 73
2, 33685, Note_on_c, 0, 81, 0
2, 33733, Note_on_c, 0, 80, 0
2, 33744, Note_on_c, 0, 81, 68
2, 33783, Note_on_c, 0, 59, 60
2, 33799, Note_on_c, 0, 80, 80
2, 33837, Note_on_c, 0, 81, 0
2, 33866, Note_on_c, 0, 59, 0
2, 33944, Note_on_c, 0, 78, 86
2, 33962, Note_on_c, 0, 80, 0
2, 34020, Note_on_c, 0, 78, 0
2, 34054, Note_on_c, 0, 53, 0
2, 34085, Note_on_c, 0, 49, 0
2, 34112, Note_on_c, 0, 54, 43
2, 34123, Note_on_c, 0, 78, 68
2, 34135, Note_on_c, 0, 57, 44
2, 34284, Note_on_c, 0, 74, 62
2, 34396, Note_on_c, 0, 74, 0
2, 34425, Note_on_c, 0, 57, 0
2, 34438, Note_on_c, 0, 73, 67
2, 34565, Note_on_c, 0, 54, 0
2, 34569, Note_on_c, 0, 73, 0
2, 34596, Note_on_c, 0, 71, 66
2, 34755, Note_on_c, 0, 69, 53
2, 34769, Note_on_c, 0, 71, 0
2, 34826, Note_on_c, 0, 78, 0
2, 34894, Note_on_c, 0, 69, 0
2, 34902, Note_on_c, 0, 68, 64
2, 35027, Note_on_c, 0, 68, 0
2, 35065, Note_on_c, 0, 66, 58
2, 35074, Note_on_c, 0, 81, 71
2, 35147, Note_on_c, 0, 81, 0
2, 35159, Note_on_c, 0, 66, 0
2, 35214, Note_on_c, 0, 64, 53
2, 35355, Note_on_c, 0, 64, 0
2, 35377, Note_on_c, 0, 63, 55
2, 35395, Note_on_c, 0, 81, 64
2, 35501, Note_on_c, 0, 63, 0
2, 35542, Note_on_c, 0, 61, 46
2, 35664, Note_on_c, 0, 61, 0
2, 35700, Note_on_c, 0, 81, 0
2, 35706, Note_on_c, 0, 80, 59
2, 35717, Note_on_c, 0, 59, 49
2, 35839, Note_on_c, 0, 59, 0
2, 35862, Note_on_c, 0, 57, 61
2, 35990, Note_on_c, 0, 57, 0
2, 36012, Note_on_c, 0, 56, 66
2, 36041, Note_on_c, 0, 80, 0
2, 36124, Note_on_c, 0, 56, 0
2, 36156, Note_on_c, 0, 54, 63
2, 36273, Note_on_c, 0, 54, 0
2, 36305, Note_on_c, 0, 52, 61
2, 36309, Note_on_c, 0, 80, 69
2, 36339, Note_on_c, 0, 76, 56
2, 36404, Note_on_c, 0, 52, 0
2, 36450, Note_on_c, 0, 58, 57
2, 36538, Note_on_c, 0, 80, 0
2, 36565, Note_on_c, 0, 58, 0
2, 36571, Note_on_c, 0, 76, 0
2, 36627, Note_on_c, 0, 47, 49
2, 36632, Note_on_c, 0, 80, 60
2, 36785, Note_on_c, 0, 76, 57
2, 36919, Note_on_c, 0, 76, 0
2, 36950, Note_on_c, 0, 78, 74
2, 36954, Note_on_c, 0, 80, 0
2, 36963, Note_on_c, 0, 75, 56
2, 37084, Note_on_c, 0, 47, 0
2, 37084, Note_on_c, 0, 75, 0
2, 37102, Note_on_c, 0, 73, 82
2, 37249, Note_on_c, 0, 73, 0
2, 37258, Note_on_c, 0, 71, 81
2, 37271, Note_on_c, 0, 78, 0
2, 37401, Note_on_c, 0, 69, 74
2, 37423, Note_on_c, 0, 71, 0
2, 37553, Note_on_c, 0, 83, 90
2, 37561, Note_on_c, 0, 68, 80
2, 37566, Note_on_c, 0, 69, 0
2, 37630, Note_on_c, 0, 83, 0
2, 37686, Note_on_c, 0, 68, 0
2, 37704, Note_on_c, 0, 66, 78
2, 37846, Note_on_c, 0, 66, 0
2, 37871, Note_on_c, 0, 64, 72
2, 37871, Note_on_c, 0, 83, 87
2, 38024, Note_on_c, 0, 63, 64
2, 38028, Note_on_c, 0, 64, 0
2, 38167, Note_on_c, 0, 63, 0
2, 38180, Note_on_c, 0, 81, 66
2, 38184, Note_on_c, 0, 61, 58
2, 38220, Note_on_c, 0, 83, 0
2, 38328, Note_on_c, 0, 61, 0
2, 38341, Note_on_c, 0, 59, 71
2, 38485, Note_on_c, 0, 59, 0
2, 38490, Note_on_c, 0, 57, 79
2, 38627, Note_on_c, 0, 56, 77
2, 38634, Note_on_c, 0, 57, 0
2, 38669, Note_on_c, 0, 81, 0
2, 38774, Note_on_c, 0, 54, 75
2, 38783, Note_on_c, 0, 81, 79
2, 38788, Note_on_c, 0, 56, 0
2, 38796, Note_on_c, 0, 78, 84
2, 38901, Note_on_c, 0, 54, 0
2, 38930, Note_on_c, 0, 63, 75
2, 39035, Note_on_c, 0, 81, 0
2, 39091, Note_on_c, 0, 63, 0
2, 39097, Note_on_c, 0, 52, 62
2, 39102, Note_on_c, 0, 78, 0
2, 39112, Note_on_c, 0, 81, 71
2, 39247, Note_on_c, 0, 78, 68
2, 39377, Note_on_c, 0, 78, 0
2, 39382, Note_on_c, 0, 81, 0
2, 39406, Note_on_c, 0, 80, 70
2, 39413, Note_on_c, 0, 76, 57
2, 39517, Note_on_c, 0, 76, 0
2, 39561, Note_on_c, 0, 74, 67
2, 39706, Note_on_c, 0, 74, 0
2, 39715, Note_on_c, 0, 80, 0
2, 39719, Note_on_c, 0, 73, 80
2, 39857, Note_on_c, 0, 71, 86
2, 39871, Note_on_c, 0, 73, 0
2, 39905, Note_on_c, 0, 52, 0
2, 40002, Note_on_c, 0, 71, 0
2, 40027, Note_on_c, 0, 76, 84
2, 40029, Note_on_c, 0, 69, 70
2, 40148, Note_on_c, 0, 69, 0
2, 40167, Note_on_c, 0, 68, 81
2, 40198, Note_on_c, 0, 76, 0
2, 40266, Note_on_c, 0, 68, 0
2, 40328, Note_on_c, 0, 76, 86
2, 40337, Note_on_c, 0, 66, 72
2, 40478, Note_on_c, 0, 76, 0
2, 40493, Note_on_c, 0, 64, 69
2, 40647, Note_on_c, 0, 64, 0
2, 40656, Note_on_c, 0, 69, 68
2, 40664, Note_on_c, 0, 62, 68
2, 40800, Note_on_c, 0, 62, 0
2, 40800, Note_on_c, 0, 69, 0
2, 40809, Note_on_c, 0, 61, 64
2, 40950, Note_on_c, 0, 61, 0
2, 40976, Note_on_c, 0, 59, 69
2, 40981, Note_on_c, 0, 74, 80
2, 41002, Note_on_c, 0, 66, 0
2, 41124, Note_on_c, 0, 57, 78
2, 41128, Note_on_c, 0, 59, 0
2, 41148, Note_on_c, 0, 74, 0
2, 41282, Note_on_c, 0, 56, 75
2, 41283, Note_on_c, 0, 74, 85
2, 41286, Note_on_c, 0, 57, 0
2, 41290, Note_on_c, 0, 71, 83
2, 41417, Note_on_c, 0, 56, 0
2, 41433, Note_on_c, 0, 59, 80
2, 41535, Note_on_c, 0, 74, 0
2, 41542, Note_on_c, 0, 71, 0
2, 41546, Note_on_c, 0, 59, 0
2, 41607, Note_on_c, 0, 45, 81
2, 41611, Note_on_c, 0, 74, 76
2, 41620, Note_on_c, 0, 71, 82
2, 41763, Note_on_c, 0, 47, 80
2, 41787, Note_on_c, 0, 45, 0
2, 41874, Note_on_c, 0, 74, 0
2, 41909, Note_on_c, 0, 49, 83
2, 41913, Note_on_c, 0, 73, 82
2, 41924, Note_on_c, 0, 47, 0
2, 41929, Note_on_c, 0, 64, 69
2, 41929, Note_on_c, 0, 71, 0
2, 42041, Note_on_c, 0, 49, 0
2, 42057, Note_on_c, 0, 45, 77
2, 42200, Note_on_c, 0, 64, 0
2, 42204, Note_on_c, 0, 45, 0
2, 42213, Note_on_c, 0, 54, 88
2, 42230, Note_on_c, 0, 69, 73
2, 42286, Note_on_c, 0, 54, 0
2, 42288, Note_on_c, 0, 73, 0
2, 42383, Note_on_c, 0, 76, 72
2, 42530, Note_on_c, 0, 54, 87
2, 42554, Note_on_c, 0, 74, 74
2, 42585, Note_on_c, 0, 76, 0
2, 42592, Note_on_c, 0, 54, 0
2, 42690, Note_on_c, 0, 73, 74
2, 42694, Note_on_c, 0, 74, 0
2, 42768, Note_on_c, 0, 73, 0
2, 42801, Note_on_c, 0, 69, 0
2, 42844, Note_on_c, 0, 54, 76
2, 42853, Note_on_c, 0, 68, 81
2, 42859, Note_on_c, 0, 71, 78
2, 42935, Note_on_c, 0, 54, 0
2, 42975, Note_on_c, 0, 51, 78
2, 42982, Note_on_c, 0, 71, 0
2, 43008, Note_on_c, 0, 73, 73
2, 43131, Note_on_c, 0, 51, 0
2, 43144, Note_on_c, 0, 52, 74
2, 43176, Note_on_c, 0, 73, 0
2, 43176, Note_on_c, 0, 74, 75
2, 43237, Note_on_c, 0, 68, 0
2, 43313, Note_on_c, 0, 74, 0
2, 43324, Note_on_c, 0, 71, 74
2, 43471, Note_on_c, 0, 64, 79
2, 43479, Note_on_c, 0, 67, 74
2, 43513, Note_on_c, 0, 52, 0
2, 43627, Note_on_c, 0, 52, 80
2, 43703, Note_on_c, 0, 67, 0
2, 43753, Note_on_c, 0, 71, 0
2, 43785, Note_on_c, 0, 54, 78
2, 43790, Note_on_c, 0, 76, 87
2, 43799, Note_on_c, 0, 52, 0
2, 43939, Note_on_c, 0, 54, 0
2, 43941, Note_on_c, 0, 55, 72
2, 44087, Note_on_c, 0, 64, 0
2, 44100, Note_on_c, 0, 55, 0
2, 44107, Note_on_c, 0, 66, 66
2, 44111, Note_on_c, 0, 57, 70
2, 44262, Note_on_c, 0, 55, 62
2, 44276, Note_on_c, 0, 57, 0
2, 44416, Note_on_c, 0, 55, 0
2, 44429, Note_on_c, 0, 54, 64
2, 44436, Note_on_c, 0, 69, 68
2, 44440, Note_on_c, 0, 76, 0
2, 44561, Note_on_c, 0, 54, 0
2, 44581, Note_on_c, 0, 57, 69
2, 44641, Note_on_c, 0, 66, 0
2, 44648, Note_on_c, 0, 69, 0
2, 44750, Note_on_c, 0, 50, 68
2, 44753, Note_on_c, 0, 57, 0
2, 44762, Note_on_c, 0, 71, 80
2, 44877, Note_on_c, 0, 50, 0
2, 44888, Note_on_c, 0, 49, 70
2, 45034, Note_on_c, 0, 49, 0
2, 45065, Note_on_c, 0, 47, 71
2, 45065, Note_on_c, 0, 74, 78
2, 45194, Note_on_c, 0, 47, 0
2, 45223, Note_on_c, 0, 57, 63
2, 45342, Note_on_c, 0, 71, 0
2, 45372, Note_on_c, 0, 57, 0
2, 45386, Note_on_c, 0, 56, 66
2, 45402, Note_on_c, 0, 64, 62
2, 45542, Note_on_c, 0, 54, 65
2, 45546, Note_on_c, 0, 56, 0
2, 45700, Note_on_c, 0, 54, 0
2, 45715, Note_on_c, 0, 68, 68
2, 45719, Note_on_c, 0, 52, 64
2, 45816, Note_on_c, 0, 52, 0
2, 45839, Note_on_c, 0, 74, 0
2, 45852, Note_on_c, 0, 56, 59
2, 45938, Note_on_c, 0, 68, 0
2, 46022, Note_on_c, 0, 56, 0
2, 46024, Note_on_c, 0, 64, 0
2, 46029, Note_on_c, 0, 49, 58
2, 46031, Note_on_c, 0, 69, 65
2, 46162, Note_on_c, 0, 49, 0
2, 46186, Note_on_c, 0, 47, 61
2, 46302, Note_on_c, 0, 47, 0
2, 46351, Note_on_c, 0, 45, 64
2, 46351, Note_on_c, 0, 73, 67
2, 46480, Note_on_c, 0, 45, 0
2, 46511, Note_on_c, 0, 55, 59
2, 46652, Note_on_c, 0, 73, 0
2, 46661, Note_on_c, 0, 55, 0
2, 46666, Note_on_c, 0, 54, 62
2, 46679, Note_on_c, 0, 74, 57
2, 46814, Note_on_c, 0, 52, 72
2, 46826, Note_on_c, 0, 54, 0
2, 46826, Note_on_c, 0, 74, 0
2, 46830, Note_on_c, 0, 73, 70
2, 46910, Note_on_c, 0, 69, 0
2, 46967, Note_on_c, 0, 52, 0
2, 46974, Note_on_c, 0, 50, 74
2, 46986, Note_on_c, 0, 73, 0
2, 46993, Note_on_c, 0, 71, 76
2, 47115, Note_on_c, 0, 50, 0
2, 47129, Note_on_c, 0, 54, 73
2, 47138, Note_on_c, 0, 73, 80
2, 47144, Note_on_c, 0, 71, 0
2, 47265, Note_on_c, 0, 73, 0
2, 47287, Note_on_c, 0, 54, 0
2, 47291, Note_on_c, 0, 47, 73
2, 47291, Note_on_c, 0, 68, 88
2, 47296, Note_on_c, 0, 74, 78
2, 47429, Note_on_c, 0, 74, 0
2, 47443, Note_on_c, 0, 47, 0
2, 47443, Note_on_c, 0, 54, 68
2, 47443, Note_on_c, 0, 73, 85
2, 47592, Note_on_c, 0, 54, 0
2, 47597, Note_on_c, 0, 74, 84
2, 47599, Note_on_c, 0, 52, 73
2, 47615, Note_on_c, 0, 73, 0
2, 47741, Note_on_c, 0, 52, 0
2, 47743, Note_on_c, 0, 50, 74
2, 47747, Note_on_c, 0, 76, 88
2, 47766, Note_on_c, 0, 68, 0
2, 47766, Note_on_c, 0, 74, 0
2, 47853, Note_on_c, 0, 76, 0
2, 47896, Note_on_c, 0, 69, 87
2, 47900, Note_on_c, 0, 49, 74
2, 47909, Note_on_c, 0, 50, 0
2, 48031, Note_on_c, 0, 49, 0
2, 48048, Note_on_c, 0, 71, 88
2, 48055, Note_on_c, 0, 47, 78
2, 48063, Note_on_c, 0, 69, 0
2, 48184, Note_on_c, 0, 47, 0
2, 48202, Note_on_c, 0, 45, 79
2, 48202, Note_on_c, 0, 73, 95
2, 48210, Note_on_c, 0, 71, 0
2, 48309, Note_on_c, 0, 73, 0
2, 48344, Note_on_c, 0, 69, 81
2, 48355, Note_on_c, 0, 49, 75
2, 48379, Note_on_c, 0, 45, 0
2, 48496, Note_on_c, 0, 69, 0
2, 48513, Note_on_c, 0, 57, 78
2, 48517, Note_on_c, 0, 49, 0
2, 48517, Note_on_c, 0, 50, 75
2, 48521, Note_on_c, 0, 78, 91
2, 48620, Note_on_c, 0, 78, 0
2, 48659, Note_on_c, 0, 50, 0
2, 48663, Note_on_c, 0, 52, 76
2, 48829, Note_on_c, 0, 50, 72
2, 48834, Note_on_c, 0, 78, 93
2, 48838, Note_on_c, 0, 52, 0
2, 48915, Note_on_c, 0, 57, 0
2, 48939, Note_on_c, 0, 78, 0
2, 48972, Note_on_c, 0, 49, 76
2, 48980, Note_on_c, 0, 50, 0
2, 49082, Note_on_c, 0, 49, 0
2, 49149, Note_on_c, 0, 56, 67
2, 49153, Note_on_c, 0, 47, 65
2, 49155, Note_on_c, 0, 78, 95
2, 49266, Note_on_c, 0, 77, 74
2, 49291, Note_on_c, 0, 45, 72
2, 49305, Note_on_c, 0, 75, 83
2, 49313, Note_on_c, 0, 47, 0
2, 49327, Note_on_c, 0, 77, 0
2, 49327, Note_on_c, 0, 78, 0
2, 49408, Note_on_c, 0, 45, 0
2, 49429, Note_on_c, 0, 75, 0
2, 49453, Note_on_c, 0, 76, 93
2, 49457, Note_on_c, 0, 44, 80
2, 49537, Note_on_c, 0, 56, 0
2, 49617, Note_on_c, 0, 44, 0
2, 49621, Note_on_c, 0, 47, 72
2, 49777, Note_on_c, 0, 47, 0
2, 49790, Note_on_c, 0, 49, 75
2, 49790, Note_on_c, 0, 55, 76
2, 49809, Note_on_c, 0, 76, 0
2, 49913, Note_on_c, 0, 49, 0
2, 49941, Note_on_c, 0, 76, 90
2, 50102, Note_on_c, 0, 52, 80
2, 50102, Note_on_c, 0, 78, 96
2, 50119, Note_on_c, 0, 76, 0
2, 50215, Note_on_c, 0, 78, 0
2, 50252, Note_on_c, 0, 79, 93
2, 50363, Note_on_c, 0, 79, 0
2, 50421, Note_on_c, 0, 54, 74
2, 50421, Note_on_c, 0, 81, 89
2, 50444, Note_on_c, 0, 55, 0
2, 50499, Note_on_c, 0, 52, 0
2, 50569, Note_on_c, 0, 79, 87
2, 50605, Note_on_c, 0, 81, 0
2, 50727, Note_on_c, 0, 78, 94
2, 50731, Note_on_c, 0, 45, 64
2, 50740, Note_on_c, 0, 79, 0
2, 50797, Note_on_c, 0, 45, 0
2, 50876, Note_on_c, 0, 81, 88
2, 50883, Note_on_c, 0, 78, 0
2, 51003, Note_on_c, 0, 81, 0
2, 51048, Note_on_c, 0, 54, 0
2, 51048, Note_on_c, 0, 59, 75
2, 51052, Note_on_c, 0, 74, 93
2, 51195, Note_on_c, 0, 73, 93
2, 51199, Note_on_c, 0, 74, 0
2, 51331, Note_on_c, 0, 73, 0
2, 51353, Note_on_c, 0, 50, 62
2, 51362, Note_on_c, 0, 71, 89
2, 51469, Note_on_c, 0, 71, 0
2, 51507, Note_on_c, 0, 81, 85
2, 51596, Note_on_c, 0, 59, 0
2, 51678, Note_on_c, 0, 80, 82
2, 51707, Note_on_c, 0, 52, 55
2, 51734, Note_on_c, 0, 81, 0
2, 51819, Note_on_c, 0, 78, 86
2, 51875, Note_on_c, 0, 80, 0
2, 51928, Note_on_c, 0, 50, 0
2, 51983, Note_on_c, 0, 76, 85
2, 52005, Note_on_c, 0, 44, 62
2, 52010, Note_on_c, 0, 78, 0
2, 52124, Note_on_c, 0, 44, 0
2, 52124, Note_on_c, 0, 76, 0
2, 52133, Note_on_c, 0, 80, 81
2, 52277, Note_on_c, 0, 80, 0
2, 52304, Note_on_c, 0, 57, 64
2, 52304, Note_on_c, 0, 73, 85
2, 52320, Note_on_c, 0, 52, 0
2, 52443, Note_on_c, 0, 71, 79
2, 52452, Note_on_c, 0, 73, 0
2, 52557, Note_on_c, 0, 71, 0
2, 52604, Note_on_c, 0, 69, 67
2, 52608, Note_on_c, 0, 49, 55
2, 52675, Note_on_c, 0, 57, 0
2, 52754, Note_on_c, 0, 79, 71
2, 52797, Note_on_c, 0, 69, 0
2, 52916, Note_on_c, 0, 50, 60
2, 52924, Note_on_c, 0, 78, 73
2, 52933, Note_on_c, 0, 49, 0
2, 52958, Note_on_c, 0, 79, 0
2, 53056, Note_on_c, 0, 78, 0
2, 53066, Note_on_c, 0, 76, 73
2, 53216, Note_on_c, 0, 76, 0
2, 53242, Note_on_c, 0, 47, 55
2, 53242, Note_on_c, 0, 74, 72
2, 53330, Note_on_c, 0, 47, 0
2, 53357, Note_on_c, 0, 74, 0
2, 53388, Note_on_c, 0, 45, 52
2, 53393, Note_on_c, 0, 78, 76
2, 53493, Note_on_c, 0, 50, 0
2, 53516, Note_on_c, 0, 45, 0
2, 53516, Note_on_c, 0, 78, 0
2, 53545, Note_on_c, 0, 44, 62
2, 53545, Note_on_c, 0, 71, 74
2, 53638, Note_on_c, 0, 71, 0
2, 53689, Note_on_c, 0, 50, 54
2, 53689, Note_on_c, 0, 78, 72
2, 53820, Note_on_c, 0, 50, 0
2, 53833, Note_on_c, 0, 78, 0
2, 53840, Note_on_c, 0, 49, 53
2, 53851, Note_on_c, 0, 76, 73
2, 53968, Note_on_c, 0, 49, 0
2, 53968, Note_on_c, 0, 76, 0
2, 53983, Note_on_c, 0, 44, 0
2, 53985, Note_on_c, 0, 47, 58
2, 54006, Note_on_c, 0, 74, 72
2, 54127, Note_on_c, 0, 47, 0
2, 54150, Note_on_c, 0, 74, 0
2, 54159, Note_on_c, 0, 73, 72
2, 54163, Note_on_c, 0, 45, 52
2, 54304, Note_on_c, 0, 73, 0
2, 54312, Note_on_c, 0, 47, 60
2, 54312, Note_on_c, 0, 71, 77
2, 54318, Note_on_c, 0, 45, 0
2, 54415, Note_on_c, 0, 71, 0
2, 54449, Note_on_c, 0, 47, 0
2, 54462, Note_on_c, 0, 69, 70
2, 54466, Note_on_c, 0, 49, 65
2, 54601, Note_on_c, 0, 49, 0
2, 54605, Note_on_c, 0, 69, 0
2, 54610, Note_on_c, 0, 73, 77
2, 54614, Note_on_c, 0, 45, 57
2, 54759, Note_on_c, 0, 45, 0
2, 54763, Note_on_c, 0, 50, 62
2, 54777, Note_on_c, 0, 66, 74
2, 54777, Note_on_c, 0, 73, 0
2, 54893, Note_on_c, 0, 50, 0
2, 54923, Note_on_c, 0, 52, 64
2, 54923, Note_on_c, 0, 64, 77
2, 54939, Note_on_c, 0, 66, 0
2, 55041, Note_on_c, 0, 64, 0
2, 55068, Note_on_c, 0, 52, 0
2, 55073, Note_on_c, 0, 54, 68
2, 55077, Note_on_c, 0, 62, 72
2, 55191, Note_on_c, 0, 54, 0
2, 55221, Note_on_c, 0, 66, 72
2, 55227, Note_on_c, 0, 50, 64
2, 55227, Note_on_c, 0, 62, 0
2, 55374, Note_on_c, 0, 66, 0
2, 55379, Note_on_c, 0, 50, 0
2, 55382, Note_on_c, 0, 56, 65
2, 55382, Note_on_c, 0, 59, 77
2, 55501, Note_on_c, 0, 56, 0
2, 55521, Note_on_c, 0, 57, 68
2, 55530, Note_on_c, 0, 61, 75
2, 55538, Note_on_c, 0, 59, 0
2, 55660, Note_on_c, 0, 61, 0
2, 55674, Note_on_c, 0, 56, 68
2, 55680, Note_on_c, 0, 57, 0
2, 55687, Note_on_c, 0, 62, 84
2, 55822, Note_on_c, 0, 54, 69
2, 55822, Note_on_c, 0, 56, 0
2, 55834, Note_on_c, 0, 64, 85
2, 55839, Note_on_c, 0, 62, 0
2, 55989, Note_on_c, 0, 54, 0
2, 55989, Note_on_c, 0, 64, 0
2, 55994, Note_on_c, 0, 52, 74
2, 55994, Note_on_c, 0, 66, 81
2, 56115, Note_on_c, 0, 66, 0
2, 56120, Note_on_c, 0, 52, 0
2, 56133, Note_on_c, 0, 68, 85
2, 56137, Note_on_c, 0, 62, 72
2, 56265, Note_on_c, 0, 68, 0
2, 56290, Note_on_c, 0, 61, 74
2, 56297, Note_on_c, 0, 62, 0
2, 56297, Note_on_c, 0, 69, 86
2, 56448, Note_on_c, 0, 59, 76
2, 56448, Note_on_c, 0, 61, 0
2, 56453, Note_on_c, 0, 71, 89
2, 56457, Note_on_c, 0, 69, 0
2, 56540, Note_on_c, 0, 59, 0
2, 56600, Note_on_c, 0, 71, 0
2, 56613, Note_on_c, 0, 57, 75
2, 56617, Note_on_c, 0, 73, 90
2, 56745, Note_on_c, 0, 73, 0
2, 56769, Note_on_c, 0, 54, 74
2, 56769, Note_on_c, 0, 57, 0
2, 56775, Note_on_c, 0, 74, 94
2, 56936, Note_on_c, 0, 52, 74
2, 56936, Note_on_c, 0, 54, 0
2, 56941, Note_on_c, 0, 76, 93
2, 56949, Note_on_c, 0, 74, 0
2, 57039, Note_on_c, 0, 52, 0
2, 57088, Note_on_c, 0, 50, 77
2, 57088, Note_on_c, 0, 78, 95
2, 57107, Note_on_c, 0, 76, 0
2, 57247, Note_on_c, 0, 49, 77
2, 57247, Note_on_c, 0, 80, 90
2, 57251, Note_on_c, 0, 50, 0
2, 57258, Note_on_c, 0, 78, 0
2, 57387, Note_on_c, 0, 80, 0
2, 57409, Note_on_c, 0, 81, 91
2, 57416, Note_on_c, 0, 47, 76
2, 57420, Note_on_c, 0, 49, 0
2, 57560, Note_on_c, 0, 47, 0
2, 57569, Note_on_c, 0, 81, 0
2, 57586, Note_on_c, 0, 45, 77
2, 57601, Note_on_c, 0, 83, 96
2, 57755, Note_on_c, 0, 45, 0
2, 57760, Note_on_c, 0, 44, 79
2, 57777, Note_on_c, 0, 80, 97
2, 57809, Note_on_c, 0, 83, 0
2, 57931, Note_on_c, 0, 80, 0
2, 57965, Note_on_c, 0, 42, 79
2, 57972, Note_on_c, 0, 44, 0
2, 57982, Note_on_c, 0, 81, 94
2, 58162, Note_on_c, 0, 40, 75
2, 58162, Note_on_c, 0, 42, 0
2, 58177, Note_on_c, 0, 80, 88
2, 58370, Note_on_c, 0, 40, 0
2, 58380, Note_on_c, 0, 38, 76
2, 58393, Note_on_c, 0, 78, 95
2, 58470, Note_on_c, 0, 80, 0
2, 58594, Note_on_c, 0, 78, 0
2, 58601, Note_on_c, 0, 76, 91
2, 58714, Note_on_c, 0, 38, 0
2, 58777, Note_on_c, 0, 76, 0
2, 58831, Note_on_c, 0, 40, 77
2, 58833, Note_on_c, 0, 74, 86
2, 59063, Note_on_c, 0, 74, 0
2, 59066, Note_on_c, 0, 73, 92
2, 59290, Note_on_c, 0, 40, 0
2, 59308, Note_on_c, 0, 73, 0
2, 59368, Note_on_c, 0, 52, 74
2, 59368, Note_on_c, 0, 71, 89
2, 59704, Note_on_c, 0, 80, 89
2, 59783, Note_on_c, 0, 81, 0
2, 60186, Note_on_c, 0, 71, 0
2, 60211, Note_on_c, 0, 80, 0
2, 60222, Note_on_c, 0, 52, 0
2, 60239, Note_on_c, 0, 81, 79
2, 60255, Note_on_c, 0, 73, 78
2, 60264, Note_on_c, 0, 45, 50
2, 61214, Control_c, 0, 64, 13
2, 61229, Control_c, 0, 64, 18
2, 61247, Control_c, 0, 64, 20
2, 61268, Control_c, 0, 64, 23
2, 61288, Control_c, 0, 64, 26
2, 61306, Control_c, 0, 64, 29
2, 61325, Control_c, 0, 64, 32
2, 61346, Control_c, 0, 64, 35
2, 61366, Control_c, 0, 64, 39
2, 61384, Control_c, 0, 64, 44
2, 61401, Control_c, 0, 64, 49
2, 61422, Control_c, 0, 64, 51
2, 61478, Control_c, 0, 64, 52
2, 61499, Control_c, 0, 64, 53
2, 61519, Control_c, 0, 64, 55
2, 61536, Control_c, 0, 64, 56
2, 61575, Control_c, 0, 64, 55
2, 61710, Control_c, 0, 64, 54
2, 61823, Control_c, 0, 64, 53
2, 61901, Control_c, 0, 64, 52
2, 61939, Control_c, 0, 64, 51
2, 62054, Control_c, 0, 64, 50
2, 62085, Note_on_c, 0, 81, 0
2, 62097, Control_c, 0, 64, 48
2, 62113, Control_c, 0, 64, 47
2, 62120, Note_on_c, 0, 45, 0
2, 62120, Note_on_c, 0, 73, 0
2, 62171, Control_c, 0, 64, 46
2, 62189, Control_c, 0, 64, 44
2, 62209, Control_c, 0, 64, 42
2, 62230, Control_c, 0, 64, 39
2, 62247, Control_c, 0, 64, 36
2, 62265, Control_c, 0, 64, 35
2, 62324, Control_c, 0, 64, 34
2, 62345, Control_c, 0, 64, 33
2, 62363, Control_c, 0, 64, 31
2, 62381, Control_c, 0, 64, 28
2, 62402, Control_c, 0, 64, 27
2, 62477, Control_c, 0, 64, 26
2, 62498, Control_c, 0, 64, 25
2, 62516, Control_c, 0, 64, 22
2, 62536, Control_c, 0, 64, 21
2, 62573, Control_c, 0, 64, 20
2, 62630, Control_c, 0, 64, 19
2, 62650, Control_c, 0, 64, 17
2, 62672, Control_c, 0, 64, 16
2, 62688, Control_c, 0, 64, 15
2, 62708, Control_c, 0, 64, 0
2, 64428, Note_on_c, 0, 69, 63
2, 64982, Note_on_c, 0, 69, 0
2, 65593, Note_on_c, 0, 68, 63
2, 65878, Note_on_c, 0, 68, 0
2, 65892, Note_on_c, 0, 73, 73
2, 66180, Note_on_c, 0, 73, 0
2, 66201, Note_on_c, 0, 69, 71
2, 66454, Note_on_c, 0, 69, 0
2, 66474, Note_on_c, 0, 74, 70
2, 66713, Note_on_c, 0, 74, 0
2, 66747, Note_on_c, 0, 71, 65
2, 67005, Note_on_c, 0, 71, 0
2, 67025, Note_on_c, 0, 76, 66
2, 67032, Note_on_c, 0, 64, 54
2, 67261, Note_on_c, 0, 76, 0
2, 67291, Note_on_c, 0, 73, 76
2, 67543, Note_on_c, 0, 64, 0
2, 67550, Note_on_c, 0, 73, 0
2, 67563, Note_on_c, 0, 78, 75
2, 67829, Note_on_c, 0, 76, 75
2, 67833, Note_on_c, 0, 78, 0
2, 68085, Note_on_c, 0, 76, 0
2, 68114, Note_on_c, 0, 61, 52
2, 68114, Note_on_c, 0, 81, 63
2, 68348, Note_on_c, 0, 81, 0
2, 68366, Note_on_c, 0, 61, 0
2, 68381, Note_on_c, 0, 74, 69
2, 68386, Note_on_c, 0, 66, 55
2, 68641, Note_on_c, 0, 66, 0
2, 68659, Note_on_c, 0, 64, 62
2, 68876, Note_on_c, 0, 74, 0
2, 68915, Note_on_c, 0, 64, 0
2, 68922, Note_on_c, 0, 73, 73
2, 68932, Note_on_c, 0, 69, 57
2, 69179, Note_on_c, 0, 69, 0
2, 69183, Note_on_c, 0, 73, 0
2, 69188, Note_on_c, 0, 75, 81
2, 69192, Note_on_c, 0, 66, 66
2, 69426, Note_on_c, 0, 66, 0
2, 69453, Note_on_c, 0, 71, 70
2, 69464, Note_on_c, 0, 75, 0
2, 69464, Note_on_c, 0, 80, 83
2, 69712, Note_on_c, 0, 68, 80
2, 69723, Note_on_c, 0, 71, 0
2, 69727, Note_on_c, 0, 80, 0
2, 69729, Note_on_c, 0, 76, 84
2, 69998, Note_on_c, 0, 76, 0
2, 70000, Note_on_c, 0, 73, 83
2, 70007, Note_on_c, 0, 81, 74
2, 70011, Note_on_c, 0, 68, 0
2, 70270, Note_on_c, 0, 81, 0
2, 70279, Note_on_c, 0, 71, 77
2, 70279, Note_on_c, 0, 80, 76
2, 70283, Note_on_c, 0, 73, 0
2, 70530, Note_on_c, 0, 71, 0
2, 70542, Note_on_c, 0, 76, 76
2, 70808, Note_on_c, 0, 80, 0
2, 70813, Note_on_c, 0, 69, 53
2, 70813, Note_on_c, 0, 76, 0
2, 70826, Note_on_c, 0, 78, 67
2, 71049, Note_on_c, 0, 78, 0
2, 71083, Note_on_c, 0, 71, 64
2, 71290, Note_on_c, 0, 69, 0
2, 71321, Note_on_c, 0, 71, 0
2, 71348, Note_on_c, 0, 68, 49
2, 71357, Note_on_c, 0, 76, 62
2, 71522, Control_c, 0, 64, 11
2, 71539, Control_c, 0, 64, 20
2, 71551, Note_on_c, 0, 68, 0
2, 71560, Control_c, 0, 64, 26
2, 71575, Control_c, 0, 64, 30
2, 71596, Control_c, 0, 64, 32
2, 71618, Control_c, 0, 64, 33
2, 71624, Note_on_c, 0, 74, 62
2, 71624, Note_on_c, 0, 76, 0
2, 71634, Note_on_c, 0, 71, 60
2, 71654, Control_c, 0, 64, 32
2, 71674, Control_c, 0, 64, 31
2, 71694, Control_c, 0, 64, 30
2, 71711, Control_c, 0, 64, 28
2, 71731, Control_c, 0, 64, 25
2, 71753, Control_c, 0, 64, 23
2, 71771, Control_c, 0, 64, 22
2, 71789, Control_c, 0, 64, 20
2, 71807, Control_c, 0, 64, 16
2, 71827, Control_c, 0, 64, 11
2, 71843, Note_on_c, 0, 71, 0
2, 71848, Control_c, 0, 64, 0
2, 71899, Note_on_c, 0, 57, 69
2, 71908, Note_on_c, 0, 64, 63
2, 72137, Note_on_c, 0, 74, 0
2, 72160, Note_on_c, 0, 64, 0
2, 72169, Note_on_c, 0, 73, 65
2, 72175, Note_on_c, 0, 69, 52
2, 72394, Note_on_c, 0, 69, 0
2, 72401, Note_on_c, 0, 57, 0
2, 72417, Note_on_c, 0, 73, 0
2, 72436, Note_on_c, 0, 75, 67
2, 72452, Note_on_c, 0, 66, 55
2, 72638, Note_on_c, 0, 75, 0
2, 72669, Note_on_c, 0, 66, 0
2, 72715, Note_on_c, 0, 68, 59
2, 72726, Note_on_c, 0, 76, 60
2, 72963, Note_on_c, 0, 76, 0
2, 72996, Note_on_c, 0, 56, 72
2, 73003, Note_on_c, 0, 71, 56
2, 73223, Note_on_c, 0, 68, 0
2, 73255, Note_on_c, 0, 71, 0
2, 73269, Note_on_c, 0, 61, 70
2, 73288, Note_on_c, 0, 76, 67
2, 73290, Note_on_c, 0, 56, 0
2, 73554, Note_on_c, 0, 57, 78
2, 73562, Note_on_c, 0, 73, 65
2, 73572, Note_on_c, 0, 61, 0
2, 73805, Note_on_c, 0, 73, 0
2, 73823, Note_on_c, 0, 76, 0
2, 73827, Note_on_c, 0, 62, 76
2, 73832, Note_on_c, 0, 57, 0
2, 73832, Note_on_c, 0, 78, 79
2, 73843, Note_on_c, 0, 69, 59
2, 74068, Note_on_c, 0, 69, 0
2, 74093, Note_on_c, 0, 62, 0
2, 74098, Note_on_c, 0, 59, 82
2, 74111, Note_on_c, 0, 74, 66
2, 74350, Note_on_c, 0, 74, 0
2, 74360, Note_on_c, 0, 78, 0
2, 74367, Note_on_c, 0, 59, 0
2, 74374, Note_on_c, 0, 80, 76
2, 74378, Note_on_c, 0, 64, 83
2, 74387, Note_on_c, 0, 71, 65
2, 74587, Note_on_c, 0, 71, 0
2, 74649, Note_on_c, 0, 61, 77
2, 74660, Note_on_c, 0, 76, 77
2, 74688, Note_on_c, 0, 64, 0
2, 74900, Note_on_c, 0, 76, 0
2, 74920, Note_on_c, 0, 66, 81
2, 74925, Note_on_c, 0, 61, 0
2, 74925, Note_on_c, 0, 80, 0
2, 74927, Note_on_c, 0, 81, 69
2, 74931, Note_on_c, 0, 74, 67
2, 75194, Note_on_c, 0, 81, 0
2, 75199, Note_on_c, 0, 64, 79
2, 75199, Note_on_c, 0, 80, 69
2, 75208, Note_on_c, 0, 66, 0
2, 75436, Note_on_c, 0, 74, 0
2, 75459, Note_on_c, 0, 64, 0
2, 75473, Note_on_c, 0, 69, 66
2, 75484, Note_on_c, 0, 73, 58
2, 75728, Note_on_c, 0, 69, 0
2, 75738, Note_on_c, 0, 80, 0
2, 75743, Note_on_c, 0, 62, 58
2, 75764, Note_on_c, 0, 78, 63
2, 76003, Note_on_c, 0, 73, 0
2, 76018, Note_on_c, 0, 78, 0
2, 76031, Note_on_c, 0, 80, 73
2, 76044, Note_on_c, 0, 71, 58
2, 76298, Note_on_c, 0, 61, 67
2, 76298, Note_on_c, 0, 71, 0
2, 76302, Note_on_c, 0, 62, 0
2, 76310, Note_on_c, 0, 81, 68
2, 76314, Note_on_c, 0, 76, 71
2, 76323, Note_on_c, 0, 80, 0
2, 76566, Note_on_c, 0, 61, 0
2, 76573, Note_on_c, 0, 63, 78
2, 76573, Note_on_c, 0, 76, 0
2, 76581, Note_on_c, 0, 78, 79
2, 76762, Note_on_c, 0, 63, 0
2, 76845, Note_on_c, 0, 78, 0
2, 76864, Note_on_c, 0, 52, 82
2, 76886, Note_on_c, 0, 71, 74
2, 77094, Note_on_c, 0, 71, 0
2, 77114, Note_on_c, 0, 81, 0
2, 77128, Note_on_c, 0, 76, 71
2, 77132, Note_on_c, 0, 80, 70
2, 77374, Note_on_c, 0, 76, 0
2, 77387, Note_on_c, 0, 83, 75
2, 77400, Note_on_c, 0, 52, 0
2, 77403, Note_on_c, 0, 74, 65
2, 77413, Note_on_c, 0, 80, 0
2, 77496, Note_on_c, 0, 83, 0
2, 77625, Note_on_c, 0, 74, 0
2, 77683, Note_on_c, 0, 76, 77
2, 77949, Note_on_c, 0, 49, 62
2, 77964, Note_on_c, 0, 73, 64
2, 78033, Note_on_c, 0, 73, 0
2, 78058, Note_on_c, 0, 71, 61
2, 78183, Note_on_c, 0, 71, 0
2, 78187, Note_on_c, 0, 76, 0
2, 78198, Note_on_c, 0, 73, 66
2, 78198, Note_on_c, 0, 75, 65
2, 78203, Note_on_c, 0, 54, 66
2, 78216, Note_on_c, 0, 49, 0
2, 78288, Note_on_c, 0, 73, 0
2, 78317, Note_on_c, 0, 69, 59
2, 78420, Note_on_c, 0, 69, 0
2, 78450, Note_on_c, 0, 75, 0
2, 78459, Note_on_c, 0, 54, 0
2, 78465, Note_on_c, 0, 52, 62
2, 78470, Note_on_c, 0, 68, 61
2, 78474, Note_on_c, 0, 76, 63
2, 78716, Note_on_c, 0, 68, 0
2, 78723, Note_on_c, 0, 52, 0
2, 78747, Note_on_c, 0, 57, 64
2, 78747, Note_on_c, 0, 73, 65
2, 78990, Note_on_c, 0, 73, 0
2, 79010, Note_on_c, 0, 54, 69
2, 79010, Note_on_c, 0, 57, 0
2, 79014, Note_on_c, 0, 69, 58
2, 79242, Note_on_c, 0, 69, 0
2, 79271, Note_on_c, 0, 54, 0
2, 79282, Note_on_c, 0, 59, 70
2, 79286, Note_on_c, 0, 66, 63
2, 79532, Note_on_c, 0, 76, 0
2, 79544, Note_on_c, 0, 56, 71
2, 79548, Note_on_c, 0, 66, 0
2, 79555, Note_on_c, 0, 71, 66
2, 79563, Note_on_c, 0, 59, 0
2, 79563, Note_on_c, 0, 74, 66
2, 79812, Note_on_c, 0, 71, 0
2, 79821, Note_on_c, 0, 74, 0
2, 79829, Note_on_c, 0, 73, 77
2, 79847, Note_on_c, 0, 61, 75
2, 79847, Note_on_c, 0, 69, 60
2, 79854, Note_on_c, 0, 56, 0
2, 80109, Note_on_c, 0, 59, 77
2, 80115, Note_on_c, 0, 73, 0
2, 80122, Note_on_c, 0, 61, 0
2, 80122, Note_on_c, 0, 74, 72
2, 80255, Note_on_c, 0, 69, 0
2, 80354, Note_on_c, 0, 59, 0
2, 80376, Note_on_c, 0, 64, 69
2, 80380, Note_on_c, 0, 68, 70
2, 80568, Note_on_c, 0, 68, 0
2, 80589, Note_on_c, 0, 64, 0
2, 80619, Note_on_c, 0, 74, 0
2, 80652, Note_on_c, 0, 57, 54
2, 80652, Note_on_c, 0, 69, 51
2, 80652, Note_on_c, 0, 73, 61
2, 80818, Note_on_c, 0, 73, 0
2, 80848, Note_on_c, 0, 69, 0
2, 80929, Note_on_c, 0, 62, 57
2, 80933, Note_on_c, 0, 71, 57
2, 81176, Note_on_c, 0, 57, 0
2, 81194, Note_on_c, 0, 56, 62
2, 81431, Note_on_c, 0, 56, 0
2, 81457, Note_on_c, 0, 59, 67
2, 81583, Note_on_c, 0, 62, 0
2, 81704, Note_on_c, 0, 59, 0
2, 81723, Note_on_c, 0, 49, 56
2, 81963, Note_on_c, 0, 71, 0
2, 81998, Note_on_c, 0, 61, 58
2, 82007, Note_on_c, 0, 69, 56
2, 82265, Note_on_c, 0, 73, 74
2, 82270, Note_on_c, 0, 69, 0
2, 82278, Note_on_c, 0, 61, 0
2, 82278, Note_on_c, 0, 64, 75
2, 82392, Note_on_c, 0, 73, 0
2, 82542, Note_on_c, 0, 66, 68
2, 82558, Note_on_c, 0, 57, 65
2, 82581, Note_on_c, 0, 64, 0
2, 82808, Note_on_c, 0, 49, 0
2, 82824, Note_on_c, 0, 45, 66
2, 83091, Note_on_c, 0, 50, 71
2, 83111, Note_on_c, 0, 45, 0
2, 83122, Note_on_c, 0, 57, 0
2, 83301, Note_on_c, 0, 66, 0
2, 83343, Note_on_c, 0, 50, 0
2, 83352, Note_on_c, 0, 47, 61
2, 83352, Note_on_c, 0, 62, 67
2, 83508, Note_on_c, 0, 68, 68
2, 83563, Note_on_c, 0, 47, 0
2, 83584, Note_on_c, 0, 69, 45
2, 83586, Note_on_c, 0, 68, 0
2, 83609, Note_on_c, 0, 52, 59
2, 83673, Note_on_c, 0, 69, 0
2, 83677, Note_on_c, 0, 68, 72
2, 83750, Note_on_c, 0, 68, 0
2, 83761, Note_on_c, 0, 69, 65
2, 83824, Note_on_c, 0, 52, 0
2, 83830, Note_on_c, 0, 68, 64
2, 83832, Note_on_c, 0, 69, 0
2, 83859, Note_on_c, 0, 40, 53
2, 83883, Note_on_c, 0, 68, 0
2, 83898, Note_on_c, 0, 69, 60
2, 83955, Note_on_c, 0, 68, 58
2, 83982, Note_on_c, 0, 62, 0
2, 83986, Note_on_c, 0, 69, 0
2, 84006, Note_on_c, 0, 68, 0
2, 84010, Note_on_c, 0, 66, 72
2, 84061, Note_on_c, 0, 66, 0
2, 84061, Note_on_c, 0, 68, 60
2, 84090, Note_on_c, 0, 40, 0
2, 84114, Note_on_c, 0, 68, 0
2, 84126, Note_on_c, 0, 45, 44
2, 84130, Note_on_c, 0, 69, 66
2, 84237, Note_on_c, 0, 45, 0
2, 84408, Note_on_c, 0, 57, 55
2, 84408, Note_on_c, 0, 61, 49
2, 84639, Note_on_c, 0, 69, 0
2, 84665, Note_on_c, 0, 66, 58
2, 84740, Note_on_c, 0, 61, 0
2, 84896, Note_on_c, 0, 66, 0
2, 84945, Note_on_c, 0, 59, 70
2, 85163, Note_on_c, 0, 59, 0
2, 85210, Note_on_c, 0, 68, 79
2, 85213, Note_on_c, 0, 56, 57
2, 85213, Note_on_c, 0, 64, 70
2, 85231, Note_on_c, 0, 57, 0
2, 85320, Note_on_c, 0, 64, 0
2, 85387, Note_on_c, 0, 68, 0
2, 85455, Note_on_c, 0, 56, 0
2, 85476, Note_on_c, 0, 52, 61
2, 85476, Note_on_c, 0, 73, 85
2, 85501, Note_on_c, 0, 68, 68
2, 85718, Note_on_c, 0, 52, 0
2, 85718, Note_on_c, 0, 68, 0
2, 85746, Note_on_c, 0, 54, 60
2, 85746, Note_on_c, 0, 69, 79
2, 85768, Note_on_c, 0, 73, 0
2, 86000, Note_on_c, 0, 54, 0
2, 86009, Note_on_c, 0, 47, 51
2, 86019, Note_on_c, 0, 74, 84
2, 86023, Note_on_c, 0, 66, 66
2, 86023, Note_on_c, 0, 69, 0
2, 86102, Note_on_c, 0, 66, 0
2, 86276, Note_on_c, 0, 47, 0
2, 86282, Note_on_c, 0, 52, 57
2, 86287, Note_on_c, 0, 71, 82
2, 86301, Note_on_c, 0, 68, 75
2, 86301, Note_on_c, 0, 74, 0
2, 86531, Note_on_c, 0, 52, 0
2, 86557, Note_on_c, 0, 49, 54
2, 86565, Note_on_c, 0, 76, 86
2, 86574, Note_on_c, 0, 71, 0
2, 86652, Note_on_c, 0, 68, 0
2, 86817, Note_on_c, 0, 49, 0
2, 86830, Note_on_c, 0, 73, 81
2, 86835, Note_on_c, 0, 69, 72
2, 86839, Note_on_c, 0, 54, 58
2, 86844, Note_on_c, 0, 76, 0
2, 87033, Note_on_c, 0, 69, 0
2, 87074, Note_on_c, 0, 73, 0
2, 87078, Note_on_c, 0, 54, 0
2, 87100, Note_on_c, 0, 78, 87
2, 87115, Note_on_c, 0, 50, 52
2, 87115, Note_on_c, 0, 71, 70
2, 87338, Note_on_c, 0, 50, 0
2, 87362, Note_on_c, 0, 71, 0
2, 87376, Note_on_c, 0, 78, 0
2, 87381, Note_on_c, 0, 76, 85
2, 87388, Note_on_c, 0, 57, 59
2, 87394, Note_on_c, 0, 73, 69
2, 87485, Note_on_c, 0, 73, 0
2, 87629, Note_on_c, 0, 57, 0
2, 87647, Note_on_c, 0, 54, 55
2, 87651, Note_on_c, 0, 81, 80
2, 87658, Note_on_c, 0, 76, 0
2, 87906, Note_on_c, 0, 54, 0
2, 87912, Note_on_c, 0, 81, 0
2, 87921, Note_on_c, 0, 74, 75
2, 87925, Note_on_c, 0, 59, 55
2, 88165, Note_on_c, 0, 59, 0
2, 88198, Note_on_c, 0, 52, 58
2, 88198, Note_on_c, 0, 71, 66
2, 88457, Note_on_c, 0, 57, 68
2, 88470, Note_on_c, 0, 73, 85
2, 88495, Note_on_c, 0, 74, 0
2, 88524, Note_on_c, 0, 52, 0
2, 88533, Note_on_c, 0, 71, 0
2, 88728, Note_on_c, 0, 75, 79
2, 88741, Note_on_c, 0, 54, 66
2, 88741, Note_on_c, 0, 69, 61
2, 88745, Note_on_c, 0, 57, 0
2, 88750, Note_on_c, 0, 73, 0
2, 89011, Note_on_c, 0, 76, 78
2, 89012, Note_on_c, 0, 54, 0
2, 89012, Note_on_c, 0, 69, 0
2, 89017, Note_on_c, 0, 75, 0
2, 89019, Note_on_c, 0, 61, 53
2, 89271, Note_on_c, 0, 68, 59
2, 89480, Note_on_c, 0, 68, 0
2, 89516, Note_on_c, 0, 61, 0
2, 89541, Note_on_c, 0, 59, 52
2, 89551, Note_on_c, 0, 73, 63
2, 89754, Note_on_c, 0, 59, 0
2, 89778, Note_on_c, 0, 73, 0
2, 89799, Note_on_c, 0, 58, 45
2, 89810, Note_on_c, 0, 66, 58
2, 89990, Note_on_c, 0, 66, 0
2, 90032, Note_on_c, 0, 76, 0
2, 90054, Note_on_c, 0, 58, 0
2, 90071, Note_on_c, 0, 74, 61
2, 90089, Note_on_c, 0, 59, 44
2, 90094, Note_on_c, 0, 71, 48
2, 90311, Note_on_c, 0, 59, 0
2, 90311, Note_on_c, 0, 74, 0
2, 90343, Note_on_c, 0, 52, 44
2, 90351, Note_on_c, 0, 79, 68
2, 90581, Note_on_c, 0, 52, 0
2, 90588, Note_on_c, 0, 79, 0
2, 90617, Note_on_c, 0, 54, 47
2, 90626, Note_on_c, 0, 73, 66
2, 90826, Note_on_c, 0, 71, 0
2, 90851, Note_on_c, 0, 73, 0
2, 90892, Note_on_c, 0, 78, 63
2, 90901, Note_on_c, 0, 69, 47
2, 91168, Note_on_c, 0, 74, 61
2, 91219, Note_on_c, 0, 78, 0
2, 91403, Note_on_c, 0, 74, 0
2, 91408, Note_on_c, 0, 69, 0
2, 91433, Note_on_c, 0, 68, 56
2, 91450, Note_on_c, 0, 71, 54
2, 91675, Note_on_c, 0, 54, 0
2, 91702, Note_on_c, 0, 53, 55
2, 91927, Note_on_c, 0, 53, 0
2, 91968, Note_on_c, 0, 56, 67
2, 92241, Note_on_c, 0, 45, 64
2, 92252, Note_on_c, 0, 56, 0
2, 92270, Note_on_c, 0, 68, 0
2, 92498, Note_on_c, 0, 71, 0
2, 92504, Note_on_c, 0, 69, 69
2, 92509, Note_on_c, 0, 66, 68
2, 92768, Note_on_c, 0, 69, 0
2, 92773, Note_on_c, 0, 47, 73
2, 92775, Note_on_c, 0, 45, 0
2, 92780, Note_on_c, 0, 74, 73
2, 93039, Note_on_c, 0, 49, 64
2, 93046, Note_on_c, 0, 47, 0
2, 93053, Note_on_c, 0, 74, 0
2, 93057, Note_on_c, 0, 68, 83
2, 93272, Note_on_c, 0, 66, 0
2, 93301, Note_on_c, 0, 68, 0
2, 93315, Note_on_c, 0, 73, 79
2, 93333, Note_on_c, 0, 65, 60
2, 93561, Note_on_c, 0, 65, 0
2, 93570, Note_on_c, 0, 73, 0
2, 93588, Note_on_c, 0, 37, 73
2, 93598, Note_on_c, 0, 68, 67
2, 93631, Note_on_c, 0, 71, 51
2, 93640, Note_on_c, 0, 49, 0
2, 93644, Note_on_c, 0, 72, 41
2, 93677, Note_on_c, 0, 72, 0
2, 93769, Note_on_c, 0, 71, 0
2, 93826, Note_on_c, 0, 68, 0
2, 93891, Note_on_c, 0, 37, 0
2, 93891, Note_on_c, 0, 42, 67
2, 93909, Note_on_c, 0, 69, 62
2, 94185, Note_on_c, 0, 66, 46
2, 94368, Note_on_c, 0, 66, 0
2, 94424, Note_on_c, 0, 64, 57
2, 94619, Note_on_c, 0, 42, 0
2, 94653, Note_on_c, 0, 64, 0
2, 94714, Note_on_c, 0, 62, 57
2, 94974, Note_on_c, 0, 53, 71
2, 94983, Note_on_c, 0, 68, 56
2, 95013, Note_on_c, 0, 69, 0
2, 95219, Note_on_c, 0, 68, 0
2, 95242, Note_on_c, 0, 57, 76
2, 95248, Note_on_c, 0, 66, 62
2, 95256, Note_on_c, 0, 61, 47
2, 95272, Note_on_c, 0, 53, 0
2, 95325, Note_on_c, 0, 61, 0
2, 95345, Note_on_c, 0, 62, 0
2, 95423, Note_on_c, 0, 66, 0
2, 95513, Note_on_c, 0, 54, 73
2, 95527, Note_on_c, 0, 57, 0
2, 95534, Note_on_c, 0, 74, 66
2, 95798, Note_on_c, 0, 59, 77
2, 95845, Note_on_c, 0, 54, 0
2, 96077, Note_on_c, 0, 56, 79
2, 96101, Note_on_c, 0, 71, 67
2, 96119, Note_on_c, 0, 59, 0
2, 96349, Note_on_c, 0, 61, 79
2, 96365, Note_on_c, 0, 65, 53
2, 96380, Note_on_c, 0, 56, 0
2, 96469, Note_on_c, 0, 65, 0
2, 96564, Note_on_c, 0, 74, 0
2, 96601, Note_on_c, 0, 71, 0
2, 96610, Note_on_c, 0, 57, 83
2, 96626, Note_on_c, 0, 73, 69
2, 96634, Note_on_c, 0, 66, 64
2, 96657, Note_on_c, 0, 61, 0
2, 96820, Note_on_c, 0, 66, 0
2, 96880, Note_on_c, 0, 73, 0
2, 96885, Note_on_c, 0, 78, 73
2, 96899, Note_on_c, 0, 62, 83
2, 96960, Note_on_c, 0, 57, 0
2, 97158, Note_on_c, 0, 78, 0
2, 97174, Note_on_c, 0, 61, 83
2, 97174, Note_on_c, 0, 68, 63
2, 97195, Note_on_c, 0, 62, 0
2, 97400, Note_on_c, 0, 68, 0
2, 97433, Note_on_c, 0, 66, 79
2, 97447, Note_on_c, 0, 61, 0
2, 97458, Note_on_c, 0, 70, 66
2, 97463, Note_on_c, 0, 76, 70
2, 97636, Note_on_c, 0, 70, 0
2, 97700, Note_on_c, 0, 76, 0
2, 97713, Note_on_c, 0, 59, 71
2, 97722, Note_on_c, 0, 74, 60
2, 97727, Note_on_c, 0, 66, 0
2, 97731, Note_on_c, 0, 71, 63
2, 97929, Note_on_c, 0, 71, 0
2, 97988, Note_on_c, 0, 74, 0
2, 98008, Note_on_c, 0, 73, 69
2, 98012, Note_on_c, 0, 64, 59
2, 98275, Note_on_c, 0, 56, 70
2, 98302, Note_on_c, 0, 59, 0
2, 98535, Note_on_c, 0, 58, 74
2, 98544, Note_on_c, 0, 56, 0
2, 98582, Note_on_c, 0, 64, 0
2, 98800, Note_on_c, 0, 58, 0
2, 98809, Note_on_c, 0, 59, 60
2, 98818, Note_on_c, 0, 62, 61
2, 98835, Note_on_c, 0, 73, 0
2, 99075, Note_on_c, 0, 59, 0
2, 99080, Note_on_c, 0, 47, 61
2, 99087, Note_on_c, 0, 71, 61
2, 99331, Note_on_c, 0, 71, 0
2, 99353, Note_on_c, 0, 52, 66
2, 99353, Note_on_c, 0, 70, 62
2, 99365, Note_on_c, 0, 47, 0
2, 99373, Note_on_c, 0, 67, 56
2, 99580, Note_on_c, 0, 62, 0
2, 99610, Note_on_c, 0, 67, 0
2, 99630, Note_on_c, 0, 50, 67
2, 99635, Note_on_c, 0, 52, 0
2, 99639, Note_on_c, 0, 70, 0
2, 99639, Note_on_c, 0, 71, 63
2, 99653, Note_on_c, 0, 66, 60
2, 99842, Note_on_c, 0, 66, 0
2, 99877, Note_on_c, 0, 50, 0
2, 99908, Note_on_c, 0, 64, 54
2, 99911, Note_on_c, 0, 55, 57
2, 100143, Note_on_c, 0, 55, 0
2, 100157, Note_on_c, 0, 71, 0
2, 100177, Note_on_c, 0, 73, 66
2, 100180, Note_on_c, 0, 52, 53
2, 100231, Note_on_c, 0, 64, 0
2, 100404, Note_on_c, 0, 52, 0
2, 100410, Note_on_c, 0, 73, 0
2, 100445, Note_on_c, 0, 66, 51
2, 100449, Note_on_c, 0, 54, 51
2, 100469, Note_on_c, 0, 62, 48
2, 100727, Note_on_c, 0, 62, 0
2, 100732, Note_on_c, 0, 71, 54
2, 100959, Note_on_c, 0, 71, 0
2, 100981, Note_on_c, 0, 42, 44
2, 100997, Note_on_c, 0, 70, 56
2, 101008, Note_on_c, 0, 61, 38
2, 101017, Note_on_c, 0, 54, 0
2, 101118, Note_on_c, 0, 66, 0
2, 101143, Note_on_c, 0, 61, 0
2, 101164, Note_on_c, 0, 70, 0
2, 101180, Note_on_c, 0, 42, 0
2, 101273, Note_on_c, 0, 47, 40
2, 101278, Note_on_c, 0, 71, 54
2, 101311, Note_on_c, 0, 62, 37
2, 101364, Note_on_c, 0, 62, 0
2, 101394, Note_on_c, 0, 71, 0
2, 101567, Note_on_c, 0, 74, 58
2, 101586, Note_on_c, 0, 66, 47
2, 101754, Note_on_c, 0, 66, 0
2, 101829, Note_on_c, 0, 71, 65
2, 101911, Note_on_c, 0, 47, 0
2, 102078, Note_on_c, 0, 71, 0
2, 102113, Note_on_c, 0, 68, 74
2, 102372, Note_on_c, 0, 52, 68
2, 102372, Note_on_c, 0, 74, 0
2, 102390, Note_on_c, 0, 73, 76
2, 102431, Note_on_c, 0, 68, 0
2, 102554, Note_on_c, 0, 73, 0
2, 102646, Note_on_c, 0, 57, 76
2, 102650, Note_on_c, 0, 78, 80
2, 102666, Note_on_c, 0, 52, 0
2, 102666, Note_on_c, 0, 73, 61
2, 102907, Note_on_c, 0, 73, 0
2, 102918, Note_on_c, 0, 57, 0
2, 102923, Note_on_c, 0, 56, 81
2, 102932, Note_on_c, 0, 71, 66
2, 103194, Note_on_c, 0, 76, 85
2, 103199, Note_on_c, 0, 61, 74
2, 103203, Note_on_c, 0, 78, 0
2, 103205, Note_on_c, 0, 56, 0
2, 103420, Note_on_c, 0, 71, 0
2, 103467, Note_on_c, 0, 61, 0
2, 103471, Note_on_c, 0, 57, 70
2, 103476, Note_on_c, 0, 81, 83
2, 103478, Note_on_c, 0, 76, 0
2, 103495, Note_on_c, 0, 73, 71
2, 103716, Note_on_c, 0, 73, 0
2, 103736, Note_on_c, 0, 63, 77
2, 103752, Note_on_c, 0, 71, 69
2, 103756, Note_on_c, 0, 57, 0
2, 104007, Note_on_c, 0, 59, 76
2, 104011, Note_on_c, 0, 63, 0
2, 104017, Note_on_c, 0, 80, 73
2, 104044, Note_on_c, 0, 81, 0
2, 104120, Note_on_c, 0, 78, 79
2, 104135, Note_on_c, 0, 80, 0
2, 104221, Note_on_c, 0, 78, 0
2, 104225, Note_on_c, 0, 59, 0
2, 104257, Note_on_c, 0, 64, 70
2, 104266, Note_on_c, 0, 80, 81
2, 104478, Note_on_c, 0, 71, 0
2, 104527, Note_on_c, 0, 64, 0
2, 104534, Note_on_c, 0, 57, 74
2, 104823, Note_on_c, 0, 78, 70
2, 104840, Note_on_c, 0, 69, 53
2, 104844, Note_on_c, 0, 80, 0
2, 105045, Note_on_c, 0, 69, 0
2, 105076, Note_on_c, 0, 78, 0
2, 105095, Note_on_c, 0, 76, 65
2, 105114, Note_on_c, 0, 73, 50
2, 105342, Note_on_c, 0, 73, 0
2, 105375, Note_on_c, 0, 66, 65
2, 105600, Note_on_c, 0, 57, 0
2, 105609, Note_on_c, 0, 76, 0
2, 105635, Note_on_c, 0, 59, 51
2, 105640, Note_on_c, 0, 75, 62
2, 105875, Note_on_c, 0, 75, 0
2, 105877, Note_on_c, 0, 59, 0
2, 105904, Note_on_c, 0, 54, 45
2, 105909, Note_on_c, 0, 78, 69
2, 106128, Note_on_c, 0, 78, 0
2, 106148, Note_on_c, 0, 66, 0
2, 106159, Note_on_c, 0, 54, 0
2, 106175, Note_on_c, 0, 71, 62
2, 106187, Note_on_c, 0, 56, 46
2, 106459, Note_on_c, 0, 64, 57
2, 106684, Note_on_c, 0, 64, 0
2, 106742, Note_on_c, 0, 68, 61
2, 106975, Note_on_c, 0, 68, 0
2, 107005, Note_on_c, 0, 61, 56
2, 107233, Note_on_c, 0, 56, 0
2, 107267, Note_on_c, 0, 49, 49
2, 107522, Note_on_c, 0, 49, 0
2, 107522, Note_on_c, 0, 54, 55
2, 107522, Note_on_c, 0, 69, 65
2, 107522, Note_on_c, 0, 71, 0
2, 107789, Note_on_c, 0, 66, 77
2, 107802, Note_on_c, 0, 51, 56
2, 107802, Note_on_c, 0, 54, 0
2, 107802, Note_on_c, 0, 61, 0
2, 108023, Note_on_c, 0, 69, 0
2, 108047, Note_on_c, 0, 68, 78
2, 108062, Note_on_c, 0, 52, 61
2, 108062, Note_on_c, 0, 59, 64
2, 108066, Note_on_c, 0, 51, 0
2, 108066, Note_on_c, 0, 66, 0
2, 108331, Note_on_c, 0, 64, 82
2, 108375, Note_on_c, 0, 59, 0
2, 108620, Note_on_c, 0, 45, 71
2, 108638, Note_on_c, 0, 61, 70
2, 108656, Note_on_c, 0, 64, 0
2, 108757, Note_on_c, 0, 52, 0
2, 108888, Note_on_c, 0, 68, 0
2, 108903, Note_on_c, 0, 66, 70
2, 109182, Note_on_c, 0, 69, 72
2, 109243, Note_on_c, 0, 61, 0
2, 109354, Note_on_c, 0, 66, 0
2, 109449, Note_on_c, 0, 59, 82
2, 109449, Note_on_c, 0, 69, 0
2, 109463, Note_on_c, 0, 63, 74
2, 109709, Note_on_c, 0, 44, 76
2, 109724, Note_on_c, 0, 45, 0
2, 109724, Note_on_c, 0, 71, 79
2, 109804, Note_on_c, 0, 63, 0
2, 109989, Note_on_c, 0, 49, 68
2, 109994, Note_on_c, 0, 68, 70
2, 109996, Note_on_c, 0, 64, 83
2, 110013, Note_on_c, 0, 59, 0
2, 110017, Note_on_c, 0, 44, 0
2, 110025, Note_on_c, 0, 71, 0
2, 110245, Note_on_c, 0, 68, 0
2, 110274, Note_on_c, 0, 49, 0
2, 110279, Note_on_c, 0, 45, 61
2, 110279, Note_on_c, 0, 73, 76
2, 110535, Note_on_c, 0, 45, 0
2, 110553, Note_on_c, 0, 66, 67
2, 110557, Note_on_c, 0, 47, 53
2, 110567, Note_on_c, 0, 64, 0
2, 110609, Note_on_c, 0, 73, 0
2, 110847, Note_on_c, 0, 63, 46
2, 111056, Note_on_c, 0, 47, 0
2, 111061, Note_on_c, 0, 63, 0
2, 111068, Note_on_c, 0, 66, 0
2, 111133, Note_on_c, 0, 64, 50
2, 111148, Note_on_c, 0, 40, 31
2, 111297, Control_c, 0, 64, 17
2, 111317, Control_c, 0, 64, 25
2, 111337, Control_c, 0, 64, 29
2, 111355, Control_c, 0, 64, 32
2, 111373, Control_c, 0, 64, 35
2, 111393, Control_c, 0, 64, 41
2, 111414, Control_c, 0, 64, 51
2, 111418, Note_on_c, 0, 76, 51
2, 111434, Control_c, 0, 64, 59
2, 111452, Control_c, 0, 64, 61
2, 111491, Control_c, 0, 64, 62
2, 111509, Control_c, 0, 64, 63
2, 111527, Control_c, 0, 64, 64
2, 111605, Note_on_c, 0, 64, 0
2, 111626, Control_c, 0, 64, 63
2, 111645, Note_on_c, 0, 40, 0
2, 111667, Note_on_c, 0, 76, 0
2, 111684, Control_c, 0, 64, 62
2, 111684, Note_on_c, 0, 71, 57
2, 111722, Control_c, 0, 64, 61
2, 111740, Control_c, 0, 64, 60
2, 111778, Control_c, 0, 64, 59
2, 111797, Control_c, 0, 64, 58
2, 111817, Control_c, 0, 64, 57
2, 111836, Control_c, 0, 64, 56
2, 111854, Control_c, 0, 64, 55
2, 111874, Control_c, 0, 64, 54
2, 111912, Control_c, 0, 64, 53
2, 111934, Control_c, 0, 64, 52
2, 111934, Note_on_c, 0, 71, 0
2, 111947, Note_on_c, 0, 73, 68
2, 111952, Control_c, 0, 64, 50
2, 111971, Control_c, 0, 64, 49
2, 111989, Control_c, 0, 64, 46
2, 112008, Control_c, 0, 64, 44
2, 112028, Control_c, 0, 64, 42
2, 112048, Control_c, 0, 64, 40
2, 112065, Control_c, 0, 64, 39
2, 112086, Control_c, 0, 64, 38
2, 112104, Control_c, 0, 64, 36
2, 112123, Control_c, 0, 64, 31
2, 112144, Control_c, 0, 64, 26
2, 112163, Control_c, 0, 64, 23
2, 112168, Note_on_c, 0, 73, 0
2, 112181, Control_c, 0, 64, 22
2, 112198, Note_on_c, 0, 78, 65
2, 112218, Note_on_c, 0, 69, 50
2, 112223, Control_c, 0, 64, 21
2, 112240, Control_c, 0, 64, 20
2, 112257, Control_c, 0, 64, 18
2, 112277, Control_c, 0, 64, 14
2, 112296, Control_c, 0, 64, 13
2, 112452, Note_on_c, 0, 69, 0
2, 112475, Note_on_c, 0, 64, 61
2, 112475, Note_on_c, 0, 73, 70
2, 112475, Note_on_c, 0, 78, 0
2, 112508, Control_c, 0, 64, 12
2, 112720, Note_on_c, 0, 64, 0
2, 112720, Note_on_c, 0, 73, 0
2, 112737, Note_on_c, 0, 66, 61
2, 112756, Note_on_c, 0, 74, 65
2, 112995, Note_on_c, 0, 66, 0
2, 113020, Note_on_c, 0, 71, 64
2, 113163, Control_c, 0, 64, 13
2, 113288, Note_on_c, 0, 71, 0
2, 113297, Note_on_c, 0, 66, 61
2, 113559, Note_on_c, 0, 66, 0
2, 113584, Note_on_c, 0, 68, 56
2, 113799, Note_on_c, 0, 74, 0
2, 113850, Note_on_c, 0, 71, 61
2, 113986, Control_c, 0, 64, 12
2, 114024, Control_c, 0, 64, 11
2, 114119, Note_on_c, 0, 76, 70
2, 114218, Note_on_c, 0, 71, 0
2, 114334, Note_on_c, 0, 68, 0
2, 114365, Note_on_c, 0, 64, 60
2, 114380, Note_on_c, 0, 73, 79
2, 114384, Note_on_c, 0, 76, 0
2, 114505, Control_c, 0, 64, 13
2, 114641, Note_on_c, 0, 64, 0
2, 114641, Note_on_c, 0, 69, 63
2, 114648, Note_on_c, 0, 78, 81
2, 114670, Note_on_c, 0, 73, 0
2, 114775, Control_c, 0, 64, 14
2, 114793, Control_c, 0, 64, 15
2, 114891, Note_on_c, 0, 69, 0
2, 114901, Note_on_c, 0, 66, 72
2, 114905, Note_on_c, 0, 74, 79
2, 114921, Note_on_c, 0, 78, 0
2, 114965, Control_c, 0, 64, 16
2, 115156, Control_c, 0, 64, 17
2, 115187, Note_on_c, 0, 71, 80
2, 115192, Note_on_c, 0, 80, 79
2, 115212, Note_on_c, 0, 66, 0
2, 115228, Note_on_c, 0, 74, 0
2, 115293, Control_c, 0, 64, 18
2, 115332, Control_c, 0, 64, 19
2, 115456, Note_on_c, 0, 80, 0
2, 115462, Note_on_c, 0, 68, 82
2, 115467, Note_on_c, 0, 76, 85
2, 115499, Note_on_c, 0, 71, 0
2, 115523, Control_c, 0, 64, 20
2, 115734, Note_on_c, 0, 81, 86
2, 115739, Note_on_c, 0, 73, 86
2, 115752, Note_on_c, 0, 68, 0
2, 115752, Note_on_c, 0, 76, 0
2, 115847, Control_c, 0, 64, 21
2, 115945, Control_c, 0, 64, 22
2, 116004, Note_on_c, 0, 69, 75
2, 116013, Note_on_c, 0, 78, 93
2, 116024, Note_on_c, 0, 73, 0
2, 116028, Note_on_c, 0, 81, 0
2, 116099, Control_c, 0, 64, 23
2, 116155, Control_c, 0, 64, 24
2, 116213, Control_c, 0, 64, 25
2, 116284, Note_on_c, 0, 74, 87
2, 116294, Note_on_c, 0, 69, 0
2, 116554, Note_on_c, 0, 83, 89
2, 116606, Note_on_c, 0, 78, 0
2, 116821, Note_on_c, 0, 76, 92
2, 116840, Note_on_c, 0, 83, 0
2, 117097, Control_c, 0, 64, 24
2, 117102, Note_on_c, 0, 74, 0
2, 117102, Note_on_c, 0, 81, 89
2, 117107, Note_on_c, 0, 73, 81
2, 117162, Note_on_c, 0, 76, 0
2, 117192, Control_c, 0, 64, 23
2, 117231, Control_c, 0, 64, 21
2, 117249, Control_c, 0, 64, 20
2, 117269, Control_c, 0, 64, 19
2, 117365, Note_on_c, 0, 78, 85
2, 117367, Control_c, 0, 64, 18
2, 117394, Note_on_c, 0, 73, 0
2, 117518, Control_c, 0, 64, 17
2, 117556, Control_c, 0, 64, 15
2, 117577, Control_c, 0, 64, 9
2, 117595, Control_c, 0, 64, 0
2, 117648, Note_on_c, 0, 71, 84
2, 117668, Note_on_c, 0, 78, 0
2, 117918, Note_on_c, 0, 80, 84
2, 117922, Control_c, 0, 64, 26
2, 117939, Note_on_c, 0, 81, 0
2, 117944, Control_c, 0, 64, 50
2, 117961, Control_c, 0, 64, 66
2, 117981, Control_c, 0, 64, 78
2, 117985, Note_on_c, 0, 71, 0
2, 118003, Control_c, 0, 64, 127
2, 118035, Note_on_c, 0, 78, 85
2, 118150, Note_on_c, 0, 76, 86
2, 118174, Note_on_c, 0, 78, 0
2, 118234, Note_on_c, 0, 76, 0
2, 118274, Note_on_c, 0, 74, 78
2, 118285, Control_c, 0, 64, 107
2, 118308, Control_c, 0, 64, 95
2, 118325, Control_c, 0, 64, 85
2, 118344, Control_c, 0, 64, 77
2, 118364, Control_c, 0, 64, 67
2, 118368, Note_on_c, 0, 80, 0
2, 118375, Note_on_c, 0, 74, 0
2, 118382, Control_c, 0, 64, 57
2, 118403, Control_c, 0, 64, 39
2, 118409, Note_on_c, 0, 81, 81
2, 118414, Note_on_c, 0, 45, 83
2, 118414, Note_on_c, 0, 73, 82
2, 118422, Control_c, 0, 64, 0
2, 118507, Note_on_c, 0, 81, 0
2, 118529, Note_on_c, 0, 73, 0
2, 118555, Note_on_c, 0, 74, 56
2, 118590, Note_on_c, 0, 72, 48
2, 118625, Note_on_c, 0, 72, 0
2, 118636, Note_on_c, 0, 74, 0
2, 118694, Note_on_c, 0, 76, 74
2, 118812, Note_on_c, 0, 76, 0
2, 118817, Note_on_c, 0, 73, 72
2, 118884, Note_on_c, 0, 45, 0
2, 118939, Note_on_c, 0, 71, 77
2, 118939, Note_on_c, 0, 73, 0
2, 119017, Note_on_c, 0, 71, 0
2, 119065, Note_on_c, 0, 69, 69
2, 119181, Note_on_c, 0, 69, 0
2, 119194, Note_on_c, 0, 68, 77
2, 119291, Note_on_c, 0, 68, 0
2, 119313, Note_on_c, 0, 69, 65
2, 119423, Note_on_c, 0, 69, 0
2, 119452, Note_on_c, 0, 71, 65
2, 119470, Note_on_c, 0, 44, 57
2, 119566, Note_on_c, 0, 71, 0
2, 119576, Note_on_c, 0, 68, 68
2, 119710, Note_on_c, 0, 68, 0
2, 119725, Note_on_c, 0, 44, 0
2, 119725, Note_on_c, 0, 49, 63
2, 119730, Note_on_c, 0, 66, 63
2, 119813, Note_on_c, 0, 66, 0
2, 119841, Note_on_c, 0, 64, 67
2, 119958, Note_on_c, 0, 64, 0
2, 119978, Note_on_c, 0, 66, 68
2, 119984, Note_on_c, 0, 49, 0
2, 119988, Note_on_c, 0, 45, 69
2, 120064, Note_on_c, 0, 66, 0
2, 120117, Note_on_c, 0, 64, 63
2, 120239, Note_on_c, 0, 64, 0
2, 120252, Note_on_c, 0, 66, 66
2, 120259, Note_on_c, 0, 45, 0
2, 120259, Note_on_c, 0, 50, 72
2, 120347, Note_on_c, 0, 66, 0
2, 120382, Note_on_c, 0, 69, 62
2, 120505, Note_on_c, 0, 50, 0
2, 120509, Note_on_c, 0, 47, 76
2, 120514, Note_on_c, 0, 69, 0
2, 120522, Note_on_c, 0, 68, 72
2, 120622, Note_on_c, 0, 68, 0
2, 120638, Note_on_c, 0, 66, 73
2, 120765, Note_on_c, 0, 47, 0
2, 120785, Note_on_c, 0, 52, 75
2, 120785, Note_on_c, 0, 68, 70
2, 120792, Note_on_c, 0, 66, 0
2, 120888, Note_on_c, 0, 68, 0
2, 120906, Note_on_c, 0, 71, 74
2, 121045, Note_on_c, 0, 69, 70
2, 121045, Note_on_c, 0, 71, 0
2, 121047, Note_on_c, 0, 49, 70
2, 121066, Note_on_c, 0, 52, 0
2, 121161, Note_on_c, 0, 69, 0
2, 121165, Note_on_c, 0, 68, 79
2, 121273, Note_on_c, 0, 68, 0
2, 121304, Note_on_c, 0, 69, 76
2, 121311, Note_on_c, 0, 54, 77
2, 121322, Note_on_c, 0, 49, 0
2, 121422, Note_on_c, 0, 69, 0
2, 121426, Note_on_c, 0, 71, 81
2, 121568, Note_on_c, 0, 52, 78
2, 121572, Note_on_c, 0, 73, 85
2, 121576, Note_on_c, 0, 54, 0
2, 121581, Note_on_c, 0, 71, 0
2, 121696, Note_on_c, 0, 73, 0
2, 121701, Note_on_c, 0, 71, 84
2, 121826, Note_on_c, 0, 52, 0
2, 121843, Note_on_c, 0, 57, 75
2, 121843, Note_on_c, 0, 73, 84
2, 121847, Note_on_c, 0, 71, 0
2, 121946, Note_on_c, 0, 73, 0
2, 121965, Note_on_c, 0, 74, 83
2, 122102, Note_on_c, 0, 74, 0
2, 122107, Note_on_c, 0, 76, 83
2, 122115, Note_on_c, 0, 50, 71
2, 122115, Note_on_c, 0, 57, 0
2, 122220, Note_on_c, 0, 76, 0
2, 122238, Note_on_c, 0, 78, 82
2, 122374, Note_on_c, 0, 80, 78
2, 122387, Note_on_c, 0, 78, 0
2, 122496, Note_on_c, 0, 80, 0
2, 122506, Note_on_c, 0, 83, 72
2, 122639, Note_on_c, 0, 49, 74
2, 122650, Note_on_c, 0, 81, 73
2, 122661, Note_on_c, 0, 50, 0
2, 122670, Note_on_c, 0, 83, 0
2, 122781, Note_on_c, 0, 80, 80
2, 122781, Note_on_c, 0, 81, 0
2, 122904, Note_on_c, 0, 51, 80
2, 122909, Note_on_c, 0, 78, 87
2, 122925, Note_on_c, 0, 80, 0
2, 122942, Note_on_c, 0, 49, 0
2, 123036, Note_on_c, 0, 78, 0
2, 123036, Note_on_c, 0, 81, 82
2, 123098, Note_on_c, 0, 51, 0
2, 123174, Note_on_c, 0, 80, 85
2, 123178, Note_on_c, 0, 64, 85
2, 123178, Note_on_c, 0, 81, 0
2, 123187, Note_on_c, 0, 52, 79
2, 123308, Note_on_c, 0, 81, 75
2, 123312, Note_on_c, 0, 80, 0
2, 123421, Note_on_c, 0, 81, 0
2, 123443, Note_on_c, 0, 52, 0
2, 123443, Note_on_c, 0, 83, 68
2, 123447, Note_on_c, 0, 54, 68
2, 123472, Control_c, 0, 64, 10
2, 123489, Control_c, 0, 64, 12
2, 123528, Control_c, 0, 64, 13
2, 123546, Control_c, 0, 64, 12
2, 123553, Note_on_c, 0, 83, 0
2, 123566, Control_c, 0, 64, 11
2, 123582, Note_on_c, 0, 78, 70
2, 123586, Control_c, 0, 64, 8
2, 123605, Control_c, 0, 64, 0
2, 123688, Note_on_c, 0, 78, 0
2, 123693, Note_on_c, 0, 54, 0
2, 123710, Note_on_c, 0, 76, 73
2, 123719, Note_on_c, 0, 56, 48
2, 123754, Note_on_c, 0, 64, 0
2, 123780, Note_on_c, 0, 76, 0
2, 123827, Note_on_c, 0, 56, 0
2, 123839, Note_on_c, 0, 74, 61
2, 123912, Note_on_c, 0, 74, 0
2, 124011, Note_on_c, 0, 57, 50
2, 124011, Note_on_c, 0, 73, 55
2, 124046, Control_c, 0, 64, 18
2, 124068, Control_c, 0, 64, 38
2, 124084, Control_c, 0, 64, 51
2, 124104, Control_c, 0, 64, 60
2, 124123, Control_c, 0, 64, 62
2, 124124, Note_on_c, 0, 73, 0
2, 124162, Control_c, 0, 64, 63
2, 124180, Control_c, 0, 64, 64
2, 124200, Control_c, 0, 64, 66
2, 124220, Control_c, 0, 64, 68
2, 124240, Control_c, 0, 64, 69
2, 124278, Control_c, 0, 64, 68
2, 124293, Note_on_c, 0, 61, 74
2, 124317, Control_c, 0, 64, 67
2, 124354, Control_c, 0, 64, 65
2, 124372, Control_c, 0, 64, 64
2, 124394, Control_c, 0, 64, 63
2, 124409, Control_c, 0, 64, 62
2, 124432, Control_c, 0, 64, 61
2, 124449, Control_c, 0, 64, 60
2, 124487, Control_c, 0, 64, 59
2, 124506, Control_c, 0, 64, 58
2, 124526, Control_c, 0, 64, 55
2, 124545, Control_c, 0, 64, 53
2, 124564, Control_c, 0, 64, 51
2, 124569, Note_on_c, 0, 61, 0
2, 124569, Note_on_c, 0, 66, 76
2, 124641, Control_c, 0, 64, 49
2, 124646, Note_on_c, 0, 57, 0
2, 124661, Control_c, 0, 64, 46
2, 124683, Control_c, 0, 64, 42
2, 124699, Control_c, 0, 64, 38
2, 124718, Control_c, 0, 64, 37
2, 124737, Control_c, 0, 64, 36
2, 124777, Control_c, 0, 64, 33
2, 124796, Control_c, 0, 64, 27
2, 124814, Control_c, 0, 64, 20
2, 124835, Control_c, 0, 64, 18
2, 124837, Note_on_c, 0, 64, 77
2, 124846, Note_on_c, 0, 66, 0
2, 124894, Control_c, 0, 64, 16
2, 124912, Control_c, 0, 64, 13
2, 124928, Control_c, 0, 64, 11
2, 125097, Note_on_c, 0, 73, 76
2, 125106, Control_c, 0, 64, 12
2, 125111, Note_on_c, 0, 69, 72
2, 125116, Note_on_c, 0, 45, 54
2, 125116, Note_on_c, 0, 64, 0
2, 125238, Control_c, 0, 64, 13
2, 125293, Control_c, 0, 64, 12
2, 125318, Note_on_c, 0, 69, 0
2, 125363, Note_on_c, 0, 73, 0
2, 125373, Note_on_c, 0, 45, 0
2, 125378, Note_on_c, 0, 50, 61
2, 125384, Note_on_c, 0, 66, 82
2, 125384, Note_on_c, 0, 69, 70
2, 125526, Control_c, 0, 64, 11
2, 125627, Note_on_c, 0, 50, 0
2, 125644, Note_on_c, 0, 74, 83
2, 125649, Note_on_c, 0, 71, 78
2, 125655, Note_on_c, 0, 47, 58
2, 125662, Note_on_c, 0, 69, 0
2, 125680, Control_c, 0, 64, 8
2, 125689, Note_on_c, 0, 66, 0
2, 125807, Note_on_c, 0, 71, 0
2, 125812, Control_c, 0, 64, 0
2, 125910, Note_on_c, 0, 47, 0
2, 125925, Note_on_c, 0, 52, 65
2, 125932, Note_on_c, 0, 71, 87
2, 125935, Note_on_c, 0, 68, 87
2, 125935, Note_on_c, 0, 74, 0
2, 126207, Note_on_c, 0, 49, 66
2, 126207, Note_on_c, 0, 73, 82
2, 126207, Note_on_c, 0, 76, 86
2, 126211, Note_on_c, 0, 52, 0
2, 126213, Note_on_c, 0, 68, 0
2, 126222, Note_on_c, 0, 71, 0
2, 126374, Note_on_c, 0, 73, 0
2, 126444, Note_on_c, 0, 76, 0
2, 126462, Note_on_c, 0, 49, 0
2, 126480, Note_on_c, 0, 54, 69
2, 126480, Note_on_c, 0, 69, 73
2, 126484, Note_on_c, 0, 73, 95
2, 126705, Note_on_c, 0, 69, 0
2, 126728, Note_on_c, 0, 54, 0
2, 126748, Note_on_c, 0, 78, 89
2, 126752, Note_on_c, 0, 50, 63
2, 126777, Note_on_c, 0, 74, 79
2, 126801, Note_on_c, 0, 73, 0
2, 126992, Note_on_c, 0, 50, 0
2, 127028, Note_on_c, 0, 57, 70
2, 127033, Note_on_c, 0, 73, 81
2, 127033, Note_on_c, 0, 76, 88
2, 127037, Note_on_c, 0, 74, 0
2, 127064, Note_on_c, 0, 78, 0
2, 127176, Note_on_c, 0, 76, 0
2, 127287, Note_on_c, 0, 81, 84
2, 127303, Note_on_c, 0, 54, 68
2, 127303, Note_on_c, 0, 78, 88
2, 127305, Note_on_c, 0, 57, 0
2, 127342, Note_on_c, 0, 73, 0
2, 127425, Note_on_c, 0, 81, 0
2, 127430, Control_c, 0, 64, 8
2, 127445, Control_c, 0, 64, 9
2, 127501, Control_c, 0, 64, 10
2, 127542, Note_on_c, 0, 54, 0
2, 127547, Control_c, 0, 64, 11
2, 127547, Note_on_c, 0, 80, 80
2, 127549, Note_on_c, 0, 59, 71
2, 127549, Note_on_c, 0, 78, 0
2, 127554, Note_on_c, 0, 75, 70
2, 127560, Control_c, 0, 64, 12
2, 127633, Note_on_c, 0, 78, 83
2, 127644, Note_on_c, 0, 80, 0
2, 127672, Note_on_c, 0, 59, 0
2, 127677, Control_c, 0, 64, 13
2, 127677, Note_on_c, 0, 57, 75
2, 127694, Control_c, 0, 64, 14
2, 127703, Note_on_c, 0, 78, 0
2, 127710, Note_on_c, 0, 80, 80
2, 127715, Control_c, 0, 64, 15
2, 127784, Note_on_c, 0, 78, 84
2, 127789, Note_on_c, 0, 80, 0
2, 127793, Note_on_c, 0, 57, 0
2, 127798, Note_on_c, 0, 56, 75
2, 127811, Control_c, 0, 64, 16
2, 127829, Control_c, 0, 64, 17
2, 127849, Note_on_c, 0, 78, 0
2, 127852, Note_on_c, 0, 80, 78
2, 127917, Note_on_c, 0, 54, 76
2, 127917, Note_on_c, 0, 56, 0
2, 127926, Note_on_c, 0, 78, 83
2, 128025, Note_on_c, 0, 75, 0
2, 128057, Note_on_c, 0, 80, 0
2, 128062, Note_on_c, 0, 56, 73
2, 128069, Note_on_c, 0, 78, 0
2, 128073, Note_on_c, 0, 78, 23
2, 128077, Note_on_c, 0, 54, 0
2, 128077, Note_on_c, 0, 76, 91
2, 128096, Control_c, 0, 64, 18
2, 128109, Note_on_c, 0, 78, 0
2, 128193, Note_on_c, 0, 56, 0
2, 128193, Note_on_c, 0, 57, 72
2, 128218, Note_on_c, 0, 78, 85
2, 128304, Note_on_c, 0, 57, 0
2, 128308, Control_c, 0, 64, 20
2, 128319, Note_on_c, 0, 59, 70
2, 128328, Control_c, 0, 64, 22
2, 128347, Control_c, 0, 64, 24
2, 128347, Note_on_c, 0, 80, 86
2, 128357, Note_on_c, 0, 76, 0
2, 128371, Note_on_c, 0, 78, 0
2, 128464, Control_c, 0, 64, 23
2, 128464, Note_on_c, 0, 59, 0
2, 128468, Note_on_c, 0, 80, 0
2, 128474, Note_on_c, 0, 56, 65
2, 128474, Note_on_c, 0, 76, 92
2, 128482, Control_c, 0, 64, 22
2, 128499, Control_c, 0, 64, 19
2, 128516, Note_on_c, 0, 83, 42
2, 128521, Control_c, 0, 64, 17
2, 128540, Control_c, 0, 64, 14
2, 128554, Note_on_c, 0, 83, 0
2, 128559, Control_c, 0, 64, 8
2, 128580, Control_c, 0, 64, 0
2, 128580, Note_on_c, 0, 56, 0
2, 128591, Note_on_c, 0, 54, 69
2, 128598, Note_on_c, 0, 80, 85
2, 128629, Note_on_c, 0, 76, 0
2, 128692, Note_on_c, 0, 54, 0
2, 128698, Note_on_c, 0, 80, 0
2, 128720, Note_on_c, 0, 52, 62
2, 128725, Note_on_c, 0, 81, 81
2, 128830, Note_on_c, 0, 52, 0
2, 128843, Note_on_c, 0, 81, 0
2, 128863, Note_on_c, 0, 51, 61
2, 128868, Control_c, 0, 64, 34
2, 128868, Note_on_c, 0, 83, 80
2, 128885, Control_c, 0, 64, 53
2, 128905, Control_c, 0, 64, 63
2, 128924, Control_c, 0, 64, 67
2, 128924, Note_on_c, 0, 83, 0
2, 128943, Control_c, 0, 64, 70
2, 128965, Control_c, 0, 64, 71
2, 128965, Note_on_c, 0, 51, 0
2, 128983, Note_on_c, 0, 52, 56
2, 129019, Control_c, 0, 64, 70
2, 129038, Control_c, 0, 64, 69
2, 129057, Control_c, 0, 64, 66
2, 129077, Control_c, 0, 64, 65
2, 129097, Control_c, 0, 64, 64
2, 129115, Control_c, 0, 64, 63
2, 129122, Note_on_c, 0, 52, 0
2, 129135, Control_c, 0, 64, 62
2, 129137, Note_on_c, 0, 63, 80
2, 129147, Note_on_c, 0, 54, 60
2, 129153, Control_c, 0, 64, 61
2, 129172, Control_c, 0, 64, 59
2, 129192, Control_c, 0, 64, 57
2, 129210, Control_c, 0, 64, 55
2, 129229, Control_c, 0, 64, 54
2, 129259, Note_on_c, 0, 54, 0
2, 129268, Note_on_c, 0, 51, 65
2, 129288, Control_c, 0, 64, 52
2, 129307, Control_c, 0, 64, 48
2, 129329, Control_c, 0, 64, 45
2, 129344, Control_c, 0, 64, 43
2, 129363, Control_c, 0, 64, 42
2, 129367, Note_on_c, 0, 51, 0
2, 129398, Note_on_c, 0, 63, 0
2, 129404, Control_c, 0, 64, 41
2, 129406, Note_on_c, 0, 49, 61
2, 129411, Note_on_c, 0, 68, 77
2, 129422, Control_c, 0, 64, 39
2, 129442, Control_c, 0, 64, 36
2, 129461, Control_c, 0, 64, 34
2, 129483, Control_c, 0, 64, 33
2, 129528, Note_on_c, 0, 49, 0
2, 129549, Note_on_c, 0, 47, 57
2, 129576, Control_c, 0, 64, 32
2, 129658, Note_on_c, 0, 47, 0
2, 129683, Note_on_c, 0, 49, 58
2, 129697, Note_on_c, 0, 64, 67
2, 129728, Control_c, 0, 64, 31
2, 129737, Note_on_c, 0, 68, 0
2, 129767, Control_c, 0, 64, 30
2, 129788, Control_c, 0, 64, 28
2, 129808, Control_c, 0, 64, 27
2, 129808, Note_on_c, 0, 49, 0
2, 129825, Note_on_c, 0, 47, 59
2, 129826, Control_c, 0, 64, 26
2, 129863, Control_c, 0, 64, 27
2, 129959, Note_on_c, 0, 47, 0
2, 129983, Note_on_c, 0, 69, 65
2, 129992, Note_on_c, 0, 49, 54
2, 129992, Note_on_c, 0, 64, 0
2, 130056, Note_on_c, 0, 49, 0
2, 130096, Note_on_c, 0, 52, 57
2, 130152, Control_c, 0, 64, 28
2, 130231, Note_on_c, 0, 52, 0
2, 130255, Note_on_c, 0, 66, 77
2, 130263, Note_on_c, 0, 51, 61
2, 130263, Note_on_c, 0, 69, 0
2, 130374, Note_on_c, 0, 51, 0
2, 130381, Control_c, 0, 64, 29
2, 130392, Note_on_c, 0, 49, 63
2, 130403, Control_c, 0, 64, 30
2, 130422, Control_c, 0, 64, 31
2, 130512, Note_on_c, 0, 49, 0
2, 130523, Note_on_c, 0, 51, 65
2, 130531, Note_on_c, 0, 71, 85
2, 130535, Control_c, 0, 64, 32
2, 130539, Note_on_c, 0, 66, 0
2, 130652, Note_on_c, 0, 51, 0
2, 130661, Note_on_c, 0, 54, 73
2, 130744, Note_on_c, 0, 54, 0
2, 130794, Note_on_c, 0, 52, 70
2, 130794, Note_on_c, 0, 68, 90
2, 130802, Note_on_c, 0, 71, 0
2, 130923, Note_on_c, 0, 52, 0
2, 130927, Note_on_c, 0, 51, 73
2, 131048, Note_on_c, 0, 51, 0
2, 131072, Note_on_c, 0, 73, 90
2, 131073, Control_c, 0, 64, 33
2, 131076, Note_on_c, 0, 52, 72
2, 131097, Note_on_c, 0, 68, 0
2, 131208, Note_on_c, 0, 54, 71
2, 131215, Note_on_c, 0, 52, 0
2, 131263, Control_c, 0, 64, 34
2, 131320, Note_on_c, 0, 54, 0
2, 131329, Note_on_c, 0, 56, 71
2, 131332, Note_on_c, 0, 71, 90
2, 131361, Note_on_c, 0, 73, 0
2, 131456, Note_on_c, 0, 56, 0
2, 131462, Note_on_c, 0, 54, 74
2, 131514, Control_c, 0, 64, 35
2, 131602, Note_on_c, 0, 56, 72
2, 131606, Note_on_c, 0, 54, 0
2, 131611, Note_on_c, 0, 76, 93
2, 131615, Note_on_c, 0, 71, 0
2, 131727, Note_on_c, 0, 56, 0
2, 131730, Note_on_c, 0, 57, 70
2, 131846, Note_on_c, 0, 57, 0
2, 131886, Note_on_c, 0, 69, 79
2, 131888, Note_on_c, 0, 59, 66
2, 131911, Note_on_c, 0, 76, 0
2, 132005, Note_on_c, 0, 59, 0
2, 132021, Note_on_c, 0, 61, 61
2, 132149, Note_on_c, 0, 61, 0
2, 132166, Note_on_c, 0, 63, 67
2, 132226, Control_c, 0, 64, 36
2, 132266, Note_on_c, 0, 63, 0
2, 132289, Note_on_c, 0, 66, 65
2, 132364, Note_on_c, 0, 66, 0
2, 132387, Note_on_c, 0, 69, 0
2, 132435, Note_on_c, 0, 66, 60
2, 132437, Control_c, 0, 64, 35
2, 132437, Note_on_c, 0, 64, 60
2, 132492, Control_c, 0, 64, 34
2, 132532, Control_c, 0, 64, 33
2, 132534, Note_on_c, 0, 64, 0
2, 132550, Control_c, 0, 64, 32
2, 132563, Note_on_c, 0, 63, 60
2, 132572, Control_c, 0, 64, 31
2, 132589, Control_c, 0, 64, 29
2, 132608, Control_c, 0, 64, 28
2, 132627, Control_c, 0, 64, 26
2, 132646, Control_c, 0, 64, 22
2, 132651, Note_on_c, 0, 63, 0
2, 132664, Control_c, 0, 64, 15
2, 132682, Note_on_c, 0, 66, 0
2, 132687, Control_c, 0, 64, 0
2, 132695, Note_on_c, 0, 61, 56
2, 132713, Note_on_c, 0, 71, 64
2, 132767, Note_on_c, 0, 61, 0
2, 132820, Note_on_c, 0, 59, 58
2, 132894, Note_on_c, 0, 59, 0
2, 132954, Note_on_c, 0, 71, 0
2, 132974, Control_c, 0, 64, 13
2, 132981, Note_on_c, 0, 68, 64
2, 132985, Note_on_c, 0, 64, 50
2, 132991, Control_c, 0, 64, 38
2, 133010, Control_c, 0, 64, 54
2, 133029, Control_c, 0, 64, 62
2, 133034, Note_on_c, 0, 68, 0
2, 133049, Control_c, 0, 64, 64
2, 133087, Control_c, 0, 64, 65
2, 133107, Control_c, 0, 64, 66
2, 133125, Control_c, 0, 64, 67
2, 133147, Control_c, 0, 64, 66
2, 133182, Control_c, 0, 64, 65
2, 133203, Control_c, 0, 64, 64
2, 133221, Control_c, 0, 64, 63
2, 133236, Note_on_c, 0, 64, 0
2, 133261, Control_c, 0, 64, 62
2, 133280, Note_on_c, 0, 83, 62
2, 133300, Control_c, 0, 64, 61
2, 133302, Note_on_c, 0, 52, 47
2, 133317, Control_c, 0, 64, 59
2, 133341, Control_c, 0, 64, 57
2, 133359, Control_c, 0, 64, 55
2, 133376, Control_c, 0, 64, 53
2, 133398, Control_c, 0, 64, 52
2, 133398, Note_on_c, 0, 81, 66
2, 133402, Note_on_c, 0, 83, 0
2, 133415, Control_c, 0, 64, 51
2, 133451, Control_c, 0, 64, 50
2, 133471, Control_c, 0, 64, 49
2, 133494, Control_c, 0, 64, 46
2, 133512, Control_c, 0, 64, 42
2, 133532, Control_c, 0, 64, 37
2, 133536, Note_on_c, 0, 80, 75
2, 133536, Note_on_c, 0, 81, 0
2, 133545, Note_on_c, 0, 52, 0
2, 133545, Note_on_c, 0, 57, 63
2, 133549, Control_c, 0, 64, 36
2, 133663, Note_on_c, 0, 78, 80
2, 133670, Note_on_c, 0, 80, 0
2, 133785, Note_on_c, 0, 78, 0
2, 133803, Note_on_c, 0, 57, 0
2, 133805, Note_on_c, 0, 76, 81
2, 133816, Note_on_c, 0, 56, 68
2, 133936, Note_on_c, 0, 78, 78
2, 133944, Note_on_c, 0, 76, 0
2, 134064, Note_on_c, 0, 78, 0
2, 134081, Note_on_c, 0, 56, 0
2, 134085, Note_on_c, 0, 64, 74
2, 134094, Note_on_c, 0, 80, 79
2, 134181, Note_on_c, 0, 80, 0
2, 134228, Note_on_c, 0, 76, 77
2, 134355, Control_c, 0, 64, 35
2, 134368, Note_on_c, 0, 57, 77
2, 134370, Note_on_c, 0, 74, 82
2, 134387, Note_on_c, 0, 64, 0
2, 134406, Note_on_c, 0, 76, 0
2, 134432, Control_c, 0, 64, 34
2, 134487, Note_on_c, 0, 74, 0
2, 134497, Note_on_c, 0, 73, 84
2, 134618, Note_on_c, 0, 73, 0
2, 134634, Note_on_c, 0, 66, 85
2, 134641, Note_on_c, 0, 74, 82
2, 134656, Note_on_c, 0, 57, 0
2, 134665, Control_c, 0, 64, 35
2, 134773, Note_on_c, 0, 73, 82
2, 134773, Note_on_c, 0, 74, 0
2, 134904, Note_on_c, 0, 73, 0
2, 134918, Note_on_c, 0, 59, 79
2, 134918, Note_on_c, 0, 74, 87
2, 134922, Note_on_c, 0, 66, 0
2, 134988, Control_c, 0, 64, 34
2, 135023, Note_on_c, 0, 74, 0
2, 135043, Note_on_c, 0, 78, 83
2, 135186, Note_on_c, 0, 68, 74
2, 135186, Note_on_c, 0, 76, 79
2, 135190, Note_on_c, 0, 59, 0
2, 135207, Note_on_c, 0, 78, 0
2, 135219, Control_c, 0, 64, 35
2, 135311, Note_on_c, 0, 74, 80
2, 135322, Note_on_c, 0, 76, 0
2, 135379, Note_on_c, 0, 68, 0
2, 135397, Note_on_c, 0, 74, 0
2, 135461, Note_on_c, 0, 69, 61
2, 135461, Note_on_c, 0, 73, 86
2, 135584, Note_on_c, 0, 69, 0
2, 135591, Note_on_c, 0, 66, 65
2, 135709, Note_on_c, 0, 66, 0
2, 135740, Note_on_c, 0, 64, 60
2, 135742, Note_on_c, 0, 69, 79
2, 135818, Note_on_c, 0, 73, 0
2, 135838, Note_on_c, 0, 64, 0
2, 135877, Note_on_c, 0, 62, 72
2, 136020, Note_on_c, 0, 62, 0
2, 136025, Note_on_c, 0, 61, 66
2, 136034, Note_on_c, 0, 74, 87
2, 136061, Note_on_c, 0, 69, 0
2, 136164, Note_on_c, 0, 61, 0
2, 136168, Note_on_c, 0, 59, 71
2, 136299, Note_on_c, 0, 59, 0
2, 136308, Note_on_c, 0, 57, 73
2, 136315, Note_on_c, 0, 73, 89
2, 136324, Note_on_c, 0, 74, 0
2, 136443, Note_on_c, 0, 57, 0
2, 136447, Note_on_c, 0, 59, 73
2, 136565, Note_on_c, 0, 59, 0
2, 136583, Note_on_c, 0, 61, 62
2, 136587, Control_c, 0, 64, 36
2, 136589, Note_on_c, 0, 81, 81
2, 136678, Control_c, 0, 64, 37
2, 136689, Note_on_c, 0, 61, 0
2, 136689, Note_on_c, 0, 73, 0
2, 136716, Note_on_c, 0, 57, 65
2, 136848, Note_on_c, 0, 57, 0
2, 136855, Note_on_c, 0, 55, 64
2, 136869, Note_on_c, 0, 74, 82
2, 136877, Note_on_c, 0, 81, 0
2, 136981, Note_on_c, 0, 55, 0
2, 136992, Note_on_c, 0, 54, 67
2, 137099, Note_on_c, 0, 54, 0
2, 137134, Note_on_c, 0, 55, 58
2, 137144, Note_on_c, 0, 71, 80
2, 137169, Note_on_c, 0, 74, 0
2, 137249, Note_on_c, 0, 55, 0
2, 137255, Note_on_c, 0, 54, 63
2, 137406, Note_on_c, 0, 54, 0
2, 137406, Note_on_c, 0, 55, 62
2, 137420, Note_on_c, 0, 76, 74
2, 137463, Note_on_c, 0, 71, 0
2, 137506, Control_c, 0, 64, 36
2, 137537, Note_on_c, 0, 55, 0
2, 137558, Note_on_c, 0, 59, 59
2, 137674, Note_on_c, 0, 59, 0
2, 137696, Note_on_c, 0, 76, 0
2, 137703, Note_on_c, 0, 73, 72
2, 137715, Note_on_c, 0, 57, 57
2, 137734, Control_c, 0, 64, 35
2, 137791, Control_c, 0, 64, 33
2, 137804, Note_on_c, 0, 57, 0
2, 137813, Control_c, 0, 64, 31
2, 137831, Control_c, 0, 64, 29
2, 137843, Note_on_c, 0, 55, 53
2, 137850, Control_c, 0, 64, 27
2, 137869, Control_c, 0, 64, 25
2, 137926, Control_c, 0, 64, 24
2, 137932, Note_on_c, 0, 55, 0
2, 137940, Note_on_c, 0, 73, 0
2, 137975, Note_on_c, 0, 74, 61
2, 137979, Note_on_c, 0, 54, 53
2, 138041, Control_c, 0, 64, 28
2, 138062, Control_c, 0, 64, 35
2, 138076, Note_on_c, 0, 54, 0
2, 138080, Control_c, 0, 64, 45
2, 138099, Control_c, 0, 64, 54
2, 138114, Note_on_c, 0, 55, 48
2, 138118, Control_c, 0, 64, 60
2, 138212, Note_on_c, 0, 55, 0
2, 138232, Note_on_c, 0, 74, 0
2, 138253, Note_on_c, 0, 57, 62
2, 138271, Control_c, 0, 64, 59
2, 138293, Control_c, 0, 64, 58
2, 138330, Control_c, 0, 64, 56
2, 138348, Control_c, 0, 64, 55
2, 138353, Note_on_c, 0, 57, 0
2, 138367, Control_c, 0, 64, 54
2, 138367, Note_on_c, 0, 54, 65
2, 138405, Control_c, 0, 64, 53
2, 138425, Control_c, 0, 64, 52
2, 138443, Control_c, 0, 64, 50
2, 138463, Control_c, 0, 64, 48
2, 138481, Control_c, 0, 64, 45
2, 138486, Note_on_c, 0, 54, 0
2, 138504, Control_c, 0, 64, 42
2, 138508, Note_on_c, 0, 52, 66
2, 138520, Control_c, 0, 64, 41
2, 138540, Control_c, 0, 64, 40
2, 138549, Note_on_c, 0, 62, 86
2, 138560, Control_c, 0, 64, 37
2, 138580, Control_c, 0, 64, 33
2, 138598, Control_c, 0, 64, 27
2, 138619, Control_c, 0, 64, 23
2, 138619, Note_on_c, 0, 52, 0
2, 138648, Note_on_c, 0, 50, 64
2, 138714, Control_c, 0, 64, 22
2, 138798, Note_on_c, 0, 50, 0
2, 138813, Note_on_c, 0, 57, 77
2, 138963, Control_c, 0, 64, 23
2, 139078, Control_c, 0, 64, 24
2, 139116, Note_on_c, 0, 61, 84
2, 139116, Note_on_c, 0, 62, 0
2, 139144, Note_on_c, 0, 64, 69
2, 139212, Control_c, 0, 64, 25
2, 139249, Control_c, 0, 64, 26
2, 139271, Note_on_c, 0, 54, 67
2, 139277, Note_on_c, 0, 57, 0
2, 139366, Control_c, 0, 64, 27
2, 139382, Note_on_c, 0, 64, 0
2, 139398, Note_on_c, 0, 66, 79
2, 139398, Note_on_c, 0, 69, 83
2, 139402, Note_on_c, 0, 55, 70
2, 139402, Note_on_c, 0, 61, 0
2, 139422, Note_on_c, 0, 54, 0
2, 139527, Note_on_c, 0, 55, 0
2, 139536, Note_on_c, 0, 57, 74
2, 139592, Note_on_c, 0, 66, 0
2, 139641, Note_on_c, 0, 69, 0
2, 139654, Control_c, 0, 64, 26
2, 139667, Note_on_c, 0, 57, 0
2, 139680, Note_on_c, 0, 59, 76
2, 139680, Note_on_c, 0, 62, 79
2, 139680, Note_on_c, 0, 66, 90
2, 139816, Note_on_c, 0, 57, 71
2, 139823, Note_on_c, 0, 59, 0
2, 139825, Control_c, 0, 64, 25
2, 139891, Note_on_c, 0, 66, 0
2, 139934, Note_on_c, 0, 67, 89
2, 139945, Note_on_c, 0, 62, 0
2, 139954, Note_on_c, 0, 57, 0
2, 139958, Note_on_c, 0, 55, 66
2, 139958, Note_on_c, 0, 71, 61
2, 140078, Note_on_c, 0, 55, 0
2, 140089, Note_on_c, 0, 59, 69
2, 140178, Note_on_c, 0, 71, 0
2, 140230, Note_on_c, 0, 59, 0
2, 140230, Note_on_c, 0, 67, 0
2, 140235, Note_on_c, 0, 64, 86
2, 140235, Note_on_c, 0, 73, 89
2, 140237, Note_on_c, 0, 57, 71
2, 140360, Note_on_c, 0, 57, 0
2, 140375, Note_on_c, 0, 55, 66
2, 140491, Note_on_c, 0, 55, 0
2, 140508, Note_on_c, 0, 54, 76
2, 140508, Note_on_c, 0, 69, 87
2, 140546, Note_on_c, 0, 64, 0
2, 140571, Note_on_c, 0, 54, 0
2, 140642, Note_on_c, 0, 52, 72
2, 140653, Control_c, 0, 64, 24
2, 140710, Control_c, 0, 64, 25
2, 140780, Note_on_c, 0, 50, 76
2, 140780, Note_on_c, 0, 52, 0
2, 140780, Note_on_c, 0, 69, 0
2, 140796, Note_on_c, 0, 66, 90
2, 140800, Note_on_c, 0, 74, 78
2, 140809, Note_on_c, 0, 73, 0
2, 140824, Control_c, 0, 64, 24
2, 140916, Note_on_c, 0, 50, 0
2, 140920, Note_on_c, 0, 54, 76
2, 140969, Note_on_c, 0, 66, 0
2, 141045, Note_on_c, 0, 54, 0
2, 141069, Note_on_c, 0, 52, 74
2, 141073, Control_c, 0, 64, 22
2, 141073, Note_on_c, 0, 71, 86
2, 141079, Note_on_c, 0, 74, 0
2, 141083, Note_on_c, 0, 79, 89
2, 141095, Control_c, 0, 64, 21
2, 141132, Control_c, 0, 64, 20
2, 141202, Note_on_c, 0, 52, 0
2, 141206, Note_on_c, 0, 50, 71
2, 141228, Control_c, 0, 64, 18
2, 141285, Control_c, 0, 64, 17
2, 141306, Control_c, 0, 64, 16
2, 141329, Note_on_c, 0, 50, 0
2, 141343, Note_on_c, 0, 49, 69
2, 141347, Note_on_c, 0, 71, 0
2, 141363, Note_on_c, 0, 69, 86
2, 141383, Control_c, 0, 64, 15
2, 141457, Control_c, 0, 64, 14
2, 141468, Note_on_c, 0, 49, 0
2, 141483, Note_on_c, 0, 45, 65
2, 141582, Note_on_c, 0, 45, 0
2, 141593, Control_c, 0, 64, 13
2, 141614, Control_c, 0, 64, 12
2, 141614, Note_on_c, 0, 47, 65
2, 141631, Control_c, 0, 64, 11
2, 141640, Note_on_c, 0, 74, 87
2, 141644, Note_on_c, 0, 78, 80
2, 141649, Note_on_c, 0, 69, 0
2, 141653, Note_on_c, 0, 79, 0
2, 141669, Control_c, 0, 64, 10
2, 141689, Control_c, 0, 64, 9
2, 141709, Control_c, 0, 64, 8
2, 141729, Control_c, 0, 64, 0
2, 141736, Note_on_c, 0, 47, 0
2, 141744, Note_on_c, 0, 49, 67
2, 141858, Note_on_c, 0, 78, 0
2, 141895, Note_on_c, 0, 49, 0
2, 141906, Note_on_c, 0, 50, 65
2, 141915, Note_on_c, 0, 74, 0
2, 141926, Note_on_c, 0, 67, 78
2, 141935, Note_on_c, 0, 76, 72
2, 142017, Note_on_c, 0, 50, 0
2, 142055, Note_on_c, 0, 52, 63
2, 142185, Note_on_c, 0, 52, 0
2, 142200, Note_on_c, 0, 54, 66
2, 142247, Note_on_c, 0, 69, 51
2, 142295, Note_on_c, 0, 67, 0
2, 142322, Note_on_c, 0, 54, 0
2, 142344, Note_on_c, 0, 55, 64
2, 142446, Note_on_c, 0, 76, 0
2, 142453, Note_on_c, 0, 69, 0
2, 142468, Note_on_c, 0, 55, 0
2, 142498, Note_on_c, 0, 66, 65
2, 142502, Note_on_c, 0, 57, 59
2, 142507, Note_on_c, 0, 74, 59
2, 142572, Note_on_c, 0, 57, 0
2, 142636, Note_on_c, 0, 54, 54
2, 142665, Note_on_c, 0, 66, 0
2, 142737, Note_on_c, 0, 74, 0
2, 142746, Note_on_c, 0, 54, 0
2, 142789, Note_on_c, 0, 64, 63
2, 142802, Note_on_c, 0, 55, 49
2, 142802, Note_on_c, 0, 73, 62
2, 142849, Note_on_c, 0, 55, 0
2, 142910, Note_on_c, 0, 57, 52
2, 142984, Note_on_c, 0, 57, 0
2, 143049, Note_on_c, 0, 73, 0
2, 143063, Note_on_c, 0, 64, 0
2, 143107, Note_on_c, 0, 50, 38
2, 143121, Note_on_c, 0, 66, 49
2, 143132, Note_on_c, 0, 74, 32
2, 143168, Control_c, 0, 64, 19
2, 143185, Control_c, 0, 64, 36
2, 143206, Control_c, 0, 64, 50
2, 143211, Note_on_c, 0, 66, 0
2, 143217, Note_on_c, 0, 74, 0
2, 143224, Control_c, 0, 64, 59
2, 143245, Control_c, 0, 64, 63
2, 143263, Control_c, 0, 64, 64
2, 143300, Control_c, 0, 64, 65
2, 143319, Control_c, 0, 64, 66
2, 143398, Control_c, 0, 64, 65
2, 143407, Note_on_c, 0, 78, 65
2, 143456, Control_c, 0, 64, 64
2, 143493, Control_c, 0, 64, 63
2, 143512, Control_c, 0, 64, 62
2, 143522, Note_on_c, 0, 78, 0
2, 143530, Note_on_c, 0, 76, 71
2, 143535, Control_c, 0, 64, 61
2, 143550, Control_c, 0, 64, 60
2, 143589, Control_c, 0, 64, 59
2, 143629, Control_c, 0, 64, 58
2, 143647, Control_c, 0, 64, 57
2, 143651, Note_on_c, 0, 50, 0
2, 143665, Note_on_c, 0, 74, 74
2, 143685, Control_c, 0, 64, 56
2, 143692, Note_on_c, 0, 76, 0
2, 143761, Control_c, 0, 64, 55
2, 143773, Note_on_c, 0, 74, 0
2, 143781, Control_c, 0, 64, 53
2, 143788, Note_on_c, 0, 73, 74
2, 143802, Control_c, 0, 64, 50
2, 143824, Control_c, 0, 64, 48
2, 143867, Note_on_c, 0, 73, 0
2, 143897, Control_c, 0, 64, 46
2, 143915, Control_c, 0, 64, 44
2, 143917, Note_on_c, 0, 71, 69
2, 143937, Control_c, 0, 64, 41
2, 143955, Control_c, 0, 64, 39
2, 143974, Control_c, 0, 64, 38
2, 143981, Note_on_c, 0, 71, 0
2, 144015, Control_c, 0, 64, 37
2, 144032, Control_c, 0, 64, 34
2, 144052, Note_on_c, 0, 74, 63
2, 144056, Control_c, 0, 64, 25
2, 144069, Control_c, 0, 64, 0
2, 144146, Note_on_c, 0, 74, 0
2, 144189, Note_on_c, 0, 49, 54
2, 144193, Note_on_c, 0, 73, 55
2, 144202, Note_on_c, 0, 76, 58
2, 144251, Note_on_c, 0, 73, 0
2, 144322, Note_on_c, 0, 71, 53
2, 144432, Note_on_c, 0, 71, 0
2, 144466, Note_on_c, 0, 49, 0
2, 144466, Note_on_c, 0, 54, 69
2, 144468, Note_on_c, 0, 70, 58
2, 144557, Note_on_c, 0, 70, 0
2, 144591, Note_on_c, 0, 68, 63
2, 144685, Note_on_c, 0, 68, 0
2, 144736, Note_on_c, 0, 50, 72
2, 144736, Note_on_c, 0, 54, 0
2, 144748, Note_on_c, 0, 66, 58
2, 144863, Note_on_c, 0, 76, 0
2, 144883, Note_on_c, 0, 73, 64
2, 144905, Note_on_c, 0, 66, 0
2, 145015, Note_on_c, 0, 50, 0
2, 145020, Note_on_c, 0, 55, 75
2, 145031, Note_on_c, 0, 71, 58
2, 145031, Note_on_c, 0, 73, 0
2, 145037, Note_on_c, 0, 74, 57
2, 145092, Note_on_c, 0, 71, 0
2, 145142, Note_on_c, 0, 69, 57
2, 145250, Note_on_c, 0, 69, 0
2, 145283, Note_on_c, 0, 52, 78
2, 145288, Note_on_c, 0, 55, 0
2, 145293, Note_on_c, 0, 67, 61
2, 145374, Control_c, 0, 64, 8
2, 145392, Note_on_c, 0, 67, 0
2, 145396, Control_c, 0, 64, 9
2, 145412, Control_c, 0, 64, 11
2, 145418, Note_on_c, 0, 66, 70
2, 145433, Control_c, 0, 64, 13
2, 145514, Note_on_c, 0, 66, 0
2, 145549, Control_c, 0, 64, 14
2, 145563, Note_on_c, 0, 52, 0
2, 145567, Control_c, 0, 64, 15
2, 145567, Note_on_c, 0, 58, 75
2, 145572, Note_on_c, 0, 64, 68
2, 145651, Note_on_c, 0, 74, 0
2, 145664, Control_c, 0, 64, 16
2, 145713, Note_on_c, 0, 71, 67
2, 145764, Note_on_c, 0, 64, 0
2, 145801, Control_c, 0, 64, 17
2, 145840, Note_on_c, 0, 54, 78
2, 145847, Note_on_c, 0, 71, 0
2, 145867, Note_on_c, 0, 58, 0
2, 145867, Note_on_c, 0, 70, 65
2, 145867, Note_on_c, 0, 73, 70
2, 145893, Control_c, 0, 64, 18
2, 145973, Note_on_c, 0, 70, 0
2, 146003, Note_on_c, 0, 68, 72
2, 146111, Note_on_c, 0, 68, 0
2, 146121, Note_on_c, 0, 54, 0
2, 146130, Note_on_c, 0, 59, 78
2, 146152, Note_on_c, 0, 66, 67
2, 146253, Note_on_c, 0, 66, 0
2, 146275, Note_on_c, 0, 64, 69
2, 146360, Note_on_c, 0, 59, 0
2, 146396, Note_on_c, 0, 64, 0
2, 146411, Note_on_c, 0, 56, 80
2, 146433, Note_on_c, 0, 62, 72
2, 146470, Control_c, 0, 64, 17
2, 146487, Note_on_c, 0, 62, 0
2, 146551, Note_on_c, 0, 73, 0
2, 146555, Note_on_c, 0, 71, 72
2, 146684, Note_on_c, 0, 71, 0
2, 146688, Note_on_c, 0, 61, 70
2, 146688, Note_on_c, 0, 64, 78
2, 146692, Note_on_c, 0, 70, 76
2, 146697, Note_on_c, 0, 56, 0
2, 146778, Note_on_c, 0, 70, 0
2, 146814, Control_c, 0, 64, 18
2, 146821, Note_on_c, 0, 71, 71
2, 146958, Note_on_c, 0, 58, 80
2, 146962, Note_on_c, 0, 61, 0
2, 146967, Note_on_c, 0, 71, 0
2, 146979, Note_on_c, 0, 73, 77
2, 147100, Note_on_c, 0, 73, 0
2, 147118, Note_on_c, 0, 74, 77
2, 147231, Note_on_c, 0, 74, 0
2, 147237, Note_on_c, 0, 62, 74
2, 147242, Note_on_c, 0, 66, 82
2, 147255, Note_on_c, 0, 76, 77
2, 147269, Note_on_c, 0, 64, 0
2, 147281, Note_on_c, 0, 58, 0
2, 147318, Control_c, 0, 64, 20
2, 147377, Note_on_c, 0, 74, 80
2, 147379, Note_on_c, 0, 76, 0
2, 147457, Note_on_c, 0, 74, 0
2, 147516, Note_on_c, 0, 76, 81
2, 147525, Note_on_c, 0, 71, 85
2, 147535, Note_on_c, 0, 59, 80
2, 147544, Note_on_c, 0, 62, 0
2, 147544, Note_on_c, 0, 66, 0
2, 147602, Control_c, 0, 64, 21
2, 147652, Note_on_c, 0, 76, 0
2, 147668, Note_on_c, 0, 78, 78
2, 147719, Control_c, 0, 64, 22
2, 147815, Note_on_c, 0, 64, 83
2, 147824, Note_on_c, 0, 78, 0
2, 147826, Note_on_c, 0, 79, 79
2, 147931, Note_on_c, 0, 59, 0
2, 147944, Note_on_c, 0, 79, 0
2, 147949, Note_on_c, 0, 76, 78
2, 147981, Note_on_c, 0, 71, 0
2, 148052, Note_on_c, 0, 76, 0
2, 148091, Note_on_c, 0, 73, 88
2, 148099, Note_on_c, 0, 82, 84
2, 148225, Note_on_c, 0, 78, 78
2, 148354, Note_on_c, 0, 64, 0
2, 148358, Note_on_c, 0, 66, 79
2, 148367, Note_on_c, 0, 62, 72
2, 148367, Note_on_c, 0, 82, 0
2, 148376, Note_on_c, 0, 78, 0
2, 148376, Note_on_c, 0, 83, 74
2, 148500, Note_on_c, 0, 73, 0
2, 148504, Note_on_c, 0, 81, 68
2, 148550, Note_on_c, 0, 83, 0
2, 148646, Note_on_c, 0, 61, 76
2, 148646, Note_on_c, 0, 79, 74
2, 148651, Note_on_c, 0, 62, 0
2, 148674, Note_on_c, 0, 66, 0
2, 148674, Note_on_c, 0, 81, 0
2, 148756, Note_on_c, 0, 79, 0
2, 148773, Note_on_c, 0, 78, 72
2, 148901, Note_on_c, 0, 78, 0
2, 148917, Note_on_c, 0, 61, 0
2, 148917, Note_on_c, 0, 67, 71
2, 148930, Note_on_c, 0, 59, 63
2, 148934, Note_on_c, 0, 76, 68
2, 149003, Note_on_c, 0, 67, 0
2, 149079, Note_on_c, 0, 74, 63
2, 149088, Note_on_c, 0, 76, 0
2, 149180, Note_on_c, 0, 59, 0
2, 149204, Note_on_c, 0, 74, 0
2, 149210, Note_on_c, 0, 55, 60
2, 149215, Note_on_c, 0, 64, 69
2, 149215, Note_on_c, 0, 73, 71
2, 149261, Note_on_c, 0, 55, 0
2, 149292, Control_c, 0, 64, 21
2, 149297, Note_on_c, 0, 73, 0
2, 149349, Note_on_c, 0, 71, 62
2, 149426, Note_on_c, 0, 64, 0
2, 149446, Control_c, 0, 64, 20
2, 149472, Note_on_c, 0, 71, 0
2, 149494, Note_on_c, 0, 66, 58
2, 149498, Note_on_c, 0, 50, 58
2, 149498, Note_on_c, 0, 70, 61
2, 149556, Note_on_c, 0, 66, 0
2, 149569, Note_on_c, 0, 70, 0
2, 149634, Note_on_c, 0, 71, 58
2, 149753, Note_on_c, 0, 50, 0
2, 149771, Note_on_c, 0, 71, 0
2, 149777, Note_on_c, 0, 59, 57
2, 149782, Note_on_c, 0, 52, 56
2, 149795, Note_on_c, 0, 79, 70
2, 149902, Note_on_c, 0, 79, 0
2, 149915, Note_on_c, 0, 78, 65
2, 150029, Note_on_c, 0, 52, 0
2, 150039, Note_on_c, 0, 59, 0
2, 150056, Note_on_c, 0, 54, 57
2, 150056, Note_on_c, 0, 78, 0
2, 150067, Note_on_c, 0, 76, 66
2, 150074, Note_on_c, 0, 58, 48
2, 150120, Note_on_c, 0, 58, 0
2, 150137, Note_on_c, 0, 76, 0
2, 150141, Note_on_c, 0, 54, 0
2, 150190, Note_on_c, 0, 74, 63
2, 150309, Note_on_c, 0, 74, 0
2, 150344, Note_on_c, 0, 73, 63
2, 150348, Note_on_c, 0, 42, 65
2, 150387, Control_c, 0, 64, 19
2, 150409, Control_c, 0, 64, 18
2, 150409, Note_on_c, 0, 42, 0
2, 150477, Note_on_c, 0, 71, 66
2, 150477, Note_on_c, 0, 73, 0
2, 150501, Control_c, 0, 64, 17
2, 150523, Control_c, 0, 64, 15
2, 150523, Note_on_c, 0, 71, 0
2, 150538, Control_c, 0, 64, 14
2, 150558, Control_c, 0, 64, 13
2, 150628, Note_on_c, 0, 71, 66
2, 150641, Note_on_c, 0, 47, 56
2, 150728, Note_on_c, 0, 47, 0
2, 150752, Control_c, 0, 64, 14
2, 150787, Note_on_c, 0, 54, 47
2, 150791, Control_c, 0, 64, 15
2, 150812, Control_c, 0, 64, 17
2, 150826, Control_c, 0, 64, 18
2, 150848, Note_on_c, 0, 54, 0
2, 150879, Note_on_c, 0, 71, 0
2, 150912, Note_on_c, 0, 59, 55
2, 150912, Note_on_c, 0, 74, 62
2, 150914, Note_on_c, 0, 66, 51
2, 150982, Note_on_c, 0, 59, 0
2, 151040, Control_c, 0, 64, 17
2, 151046, Note_on_c, 0, 57, 53
2, 151154, Note_on_c, 0, 57, 0
2, 151169, Note_on_c, 0, 66, 0
2, 151192, Note_on_c, 0, 56, 54
2, 151194, Note_on_c, 0, 71, 64
2, 151215, Control_c, 0, 64, 18
2, 151280, Note_on_c, 0, 56, 0
2, 151330, Note_on_c, 0, 54, 55
2, 151428, Note_on_c, 0, 54, 0
2, 151463, Note_on_c, 0, 71, 0
2, 151474, Note_on_c, 0, 52, 57
2, 151487, Note_on_c, 0, 68, 66
2, 151538, Control_c, 0, 64, 19
2, 151575, Control_c, 0, 64, 20
2, 151586, Note_on_c, 0, 52, 0
2, 151607, Note_on_c, 0, 54, 57
2, 151714, Note_on_c, 0, 54, 0
2, 151765, Note_on_c, 0, 52, 56
2, 151770, Note_on_c, 0, 71, 80
2, 151789, Control_c, 0, 64, 19
2, 151811, Note_on_c, 0, 74, 0
2, 151873, Note_on_c, 0, 52, 0
2, 151901, Note_on_c, 0, 50, 57
2, 151921, Control_c, 0, 64, 20
2, 151941, Control_c, 0, 64, 21
2, 152024, Note_on_c, 0, 50, 0
2, 152044, Note_on_c, 0, 49, 59
2, 152057, Note_on_c, 0, 71, 0
2, 152062, Note_on_c, 0, 76, 87
2, 152152, Control_c, 0, 64, 22
2, 152159, Note_on_c, 0, 49, 0
2, 152185, Note_on_c, 0, 47, 61
2, 152323, Note_on_c, 0, 47, 0
2, 152327, Note_on_c, 0, 45, 65
2, 152345, Note_on_c, 0, 73, 85
2, 152382, Note_on_c, 0, 76, 0
2, 152439, Control_c, 0, 64, 23
2, 152481, Note_on_c, 0, 47, 59
2, 152485, Control_c, 0, 64, 24
2, 152485, Note_on_c, 0, 45, 0
2, 152492, Note_on_c, 0, 68, 0
2, 152492, Note_on_c, 0, 68, 19
2, 152520, Control_c, 0, 64, 25
2, 152567, Note_on_c, 0, 73, 0
2, 152576, Note_on_c, 0, 47, 0
2, 152624, Note_on_c, 0, 78, 87
2, 152627, Note_on_c, 0, 45, 65
2, 152631, Note_on_c, 0, 68, 0
2, 152631, Note_on_c, 0, 73, 75
2, 152671, Control_c, 0, 64, 24
2, 152754, Note_on_c, 0, 45, 0
2, 152767, Note_on_c, 0, 44, 66
2, 152902, Note_on_c, 0, 44, 0
2, 152902, Note_on_c, 0, 69, 68
2, 152902, Note_on_c, 0, 73, 0
2, 152906, Note_on_c, 0, 75, 78
2, 152906, Note_on_c, 0, 78, 0
2, 152911, Note_on_c, 0, 42, 64
2, 152939, Control_c, 0, 64, 23
2, 153018, Note_on_c, 0, 42, 0
2, 153018, Note_on_c, 0, 75, 0
2, 153042, Note_on_c, 0, 40, 57
2, 153174, Note_on_c, 0, 40, 0
2, 153179, Note_on_c, 0, 71, 77
2, 153183, Note_on_c, 0, 39, 66
2, 153209, Control_c, 0, 64, 22
2, 153236, Note_on_c, 0, 69, 0
2, 153294, Note_on_c, 0, 39, 0
2, 153299, Note_on_c, 0, 47, 62
2, 153411, Note_on_c, 0, 47, 0
2, 153464, Note_on_c, 0, 68, 73
2, 153466, Note_on_c, 0, 52, 58
2, 153567, Note_on_c, 0, 52, 0
2, 153592, Note_on_c, 0, 51, 65
2, 153700, Note_on_c, 0, 51, 0
2, 153728, Control_c, 0, 64, 21
2, 153733, Note_on_c, 0, 49, 55
2, 153741, Note_on_c, 0, 63, 67
2, 153845, Note_on_c, 0, 49, 0
2, 153874, Note_on_c, 0, 47, 58
2, 153969, Note_on_c, 0, 68, 0
2, 153987, Note_on_c, 0, 63, 0
2, 154004, Note_on_c, 0, 47, 0
2, 154012, Note_on_c, 0, 49, 62
2, 154026, Note_on_c, 0, 64, 62
2, 154073, Control_c, 0, 64, 22
2, 154110, Note_on_c, 0, 49, 0
2, 154148, Control_c, 0, 64, 23
2, 154166, Note_on_c, 0, 56, 55
2, 154255, Note_on_c, 0, 56, 0
2, 154280, Note_on_c, 0, 71, 0
2, 154309, Note_on_c, 0, 68, 68
2, 154313, Note_on_c, 0, 61, 55
2, 154375, Note_on_c, 0, 61, 0
2, 154437, Note_on_c, 0, 59, 58
2, 154550, Note_on_c, 0, 59, 0
2, 154581, Note_on_c, 0, 57, 59
2, 154585, Note_on_c, 0, 68, 0
2, 154592, Control_c, 0, 64, 22
2, 154592, Note_on_c, 0, 73, 72
2, 154687, Note_on_c, 0, 57, 0
2, 154711, Note_on_c, 0, 56, 59
2, 154816, Note_on_c, 0, 64, 0
2, 154840, Note_on_c, 0, 56, 0
2, 154868, Note_on_c, 0, 54, 54
2, 154868, Note_on_c, 0, 69, 64
2, 154877, Note_on_c, 0, 73, 0
2, 154994, Note_on_c, 0, 54, 0
2, 155011, Note_on_c, 0, 56, 54
2, 155148, Note_on_c, 0, 56, 0
2, 155167, Note_on_c, 0, 54, 61
2, 155167, Note_on_c, 0, 61, 69
2, 155245, Note_on_c, 0, 54, 0
2, 155296, Note_on_c, 0, 52, 59
2, 155433, Note_on_c, 0, 66, 75
2, 155442, Note_on_c, 0, 51, 66
2, 155444, Note_on_c, 0, 52, 0
2, 155578, Note_on_c, 0, 51, 0
2, 155582, Note_on_c, 0, 49, 63
2, 155628, Note_on_c, 0, 61, 0
2, 155648, Note_on_c, 0, 69, 0
2, 155716, Note_on_c, 0, 49, 0
2, 155716, Note_on_c, 0, 63, 80
2, 155722, Note_on_c, 0, 47, 69
2, 155776, Note_on_c, 0, 66, 0
2, 155850, Note_on_c, 0, 47, 0
2, 155857, Note_on_c, 0, 49, 75
2, 155973, Note_on_c, 0, 49, 0
2, 155991, Note_on_c, 0, 68, 79
2, 155991, Note_on_c, 0, 71, 74
2, 155996, Note_on_c, 0, 47, 69
2, 155996, Note_on_c, 0, 63, 0
2, 156128, Note_on_c, 0, 47, 0
2, 156139, Note_on_c, 0, 45, 65
2, 156266, Note_on_c, 0, 45, 0
2, 156270, Note_on_c, 0, 44, 73
2, 156270, Note_on_c, 0, 65, 76
2, 156392, Note_on_c, 0, 44, 0
2, 156403, Note_on_c, 0, 42, 68
2, 156453, Control_c, 0, 64, 23
2, 156533, Note_on_c, 0, 42, 0
2, 156540, Note_on_c, 0, 68, 0
2, 156550, Note_on_c, 0, 41, 70
2, 156555, Note_on_c, 0, 65, 0
2, 156565, Note_on_c, 0, 61, 77
2, 156630, Note_on_c, 0, 41, 0
2, 156692, Note_on_c, 0, 49, 61
2, 156741, Control_c, 0, 64, 24
2, 156772, Note_on_c, 0, 71, 0
2, 156791, Note_on_c, 0, 49, 0
2, 156826, Note_on_c, 0, 54, 63
2, 156853, Note_on_c, 0, 69, 81
2, 156855, Control_c, 0, 64, 23
2, 156935, Note_on_c, 0, 54, 0
2, 156959, Note_on_c, 0, 52, 61
2, 157068, Note_on_c, 0, 52, 0
2, 157095, Note_on_c, 0, 50, 57
2, 157130, Note_on_c, 0, 65, 76
2, 157215, Note_on_c, 0, 50, 0
2, 157244, Note_on_c, 0, 49, 58
2, 157371, Note_on_c, 0, 49, 0
2, 157394, Note_on_c, 0, 61, 0
2, 157402, Note_on_c, 0, 50, 48
2, 157420, Note_on_c, 0, 69, 0
2, 157424, Note_on_c, 0, 66, 68
2, 157434, Note_on_c, 0, 65, 0
2, 157508, Note_on_c, 0, 50, 0
2, 157543, Note_on_c, 0, 52, 55
2, 157642, Note_on_c, 0, 52, 0
2, 157682, Control_c, 0, 64, 22
2, 157687, Note_on_c, 0, 50, 51
2, 157712, Note_on_c, 0, 57, 56
2, 157786, Note_on_c, 0, 50, 0
2, 157829, Note_on_c, 0, 49, 50
2, 157942, Note_on_c, 0, 49, 0
2, 157982, Note_on_c, 0, 57, 0
2, 157998, Note_on_c, 0, 47, 46
2, 158002, Note_on_c, 0, 62, 62
2, 158079, Note_on_c, 0, 47, 0
2, 158125, Note_on_c, 0, 45, 51
2, 158240, Note_on_c, 0, 45, 0
2, 158284, Note_on_c, 0, 62, 0
2, 158289, Note_on_c, 0, 44, 51
2, 158304, Note_on_c, 0, 59, 59
2, 158380, Note_on_c, 0, 44, 0
2, 158410, Note_on_c, 0, 45, 52
2, 158557, Note_on_c, 0, 45, 0
2, 158566, Note_on_c, 0, 66, 0
2, 158574, Note_on_c, 0, 44, 55
2, 158578, Note_on_c, 0, 63, 61
2, 158643, Control_c, 0, 64, 21
2, 158687, Note_on_c, 0, 44, 0
2, 158722, Note_on_c, 0, 42, 49
2, 158814, Note_on_c, 0, 42, 0
2, 158860, Note_on_c, 0, 41, 51
2, 158867, Note_on_c, 0, 63, 0
2, 158874, Note_on_c, 0, 68, 61
2, 158981, Note_on_c, 0, 41, 0
2, 159028, Control_c, 0, 64, 19
2, 159032, Note_on_c, 0, 39, 46
2, 159046, Control_c, 0, 64, 0
2, 159123, Note_on_c, 0, 39, 0
2, 159129, Note_on_c, 0, 59, 0
2, 159161, Note_on_c, 0, 68, 0
2, 159172, Note_on_c, 0, 37, 51
2, 159177, Note_on_c, 0, 65, 56
2, 159198, Control_c, 0, 64, 46
2, 159218, Control_c, 0, 64, 61
2, 159229, Note_on_c, 0, 37, 0
2, 159238, Control_c, 0, 64, 66
2, 159255, Control_c, 0, 64, 70
2, 159276, Control_c, 0, 64, 75
2, 159294, Control_c, 0, 64, 77
2, 159316, Control_c, 0, 64, 76
2, 159326, Note_on_c, 0, 61, 49
2, 159333, Control_c, 0, 64, 74
2, 159351, Control_c, 0, 64, 69
2, 159371, Control_c, 0, 64, 65
2, 159382, Note_on_c, 0, 65, 0
2, 159393, Control_c, 0, 64, 62
2, 159411, Control_c, 0, 64, 61
2, 159449, Control_c, 0, 64, 59
2, 159454, Note_on_c, 0, 61, 0
2, 159463, Note_on_c, 0, 45, 65
2, 159467, Control_c, 0, 64, 57
2, 159472, Note_on_c, 0, 57, 58
2, 159487, Control_c, 0, 64, 54
2, 159496, Note_on_c, 0, 63, 55
2, 159507, Control_c, 0, 64, 51
2, 159529, Control_c, 0, 64, 50
2, 159529, Note_on_c, 0, 57, 0
2, 159566, Note_on_c, 0, 63, 0
2, 159583, Control_c, 0, 64, 49
2, 159604, Control_c, 0, 64, 47
2, 159604, Note_on_c, 0, 65, 60
2, 159623, Control_c, 0, 64, 43
2, 159640, Control_c, 0, 64, 39
2, 159660, Control_c, 0, 64, 36
2, 159708, Note_on_c, 0, 45, 0
2, 159716, Control_c, 0, 64, 34
2, 159738, Control_c, 0, 64, 30
2, 159738, Note_on_c, 0, 50, 54
2, 159745, Note_on_c, 0, 59, 64
2, 159751, Note_on_c, 0, 65, 0
2, 159756, Control_c, 0, 64, 20
2, 159758, Note_on_c, 0, 66, 71
2, 159777, Control_c, 0, 64, 11
2, 159793, Control_c, 0, 64, 10
2, 159878, Note_on_c, 0, 66, 0
2, 159891, Note_on_c, 0, 68, 73
2, 159980, Note_on_c, 0, 59, 0
2, 160000, Note_on_c, 0, 68, 0
2, 160037, Note_on_c, 0, 49, 64
2, 160037, Note_on_c, 0, 53, 64
2, 160037, Note_on_c, 0, 69, 71
2, 160048, Control_c, 0, 64, 11
2, 160048, Note_on_c, 0, 50, 0
2, 160101, Control_c, 0, 64, 12
2, 160158, Control_c, 0, 64, 13
2, 160171, Note_on_c, 0, 66, 72
2, 160171, Note_on_c, 0, 69, 0
2, 160178, Control_c, 0, 64, 15
2, 160198, Control_c, 0, 64, 16
2, 160294, Control_c, 0, 64, 17
2, 160313, Control_c, 0, 64, 19
2, 160322, Note_on_c, 0, 68, 76
2, 160329, Note_on_c, 0, 54, 85
2, 160333, Control_c, 0, 64, 20
2, 160333, Note_on_c, 0, 66, 0
2, 160372, Control_c, 0, 64, 21
2, 160379, Note_on_c, 0, 53, 0
2, 160392, Control_c, 0, 64, 22
2, 160409, Control_c, 0, 64, 23
2, 160426, Note_on_c, 0, 68, 0
2, 160458, Note_on_c, 0, 69, 70
2, 160469, Note_on_c, 0, 49, 0
2, 160507, Control_c, 0, 64, 24
2, 160522, Control_c, 0, 64, 25
2, 160543, Control_c, 0, 64, 26
2, 160618, Note_on_c, 0, 51, 83
2, 160627, Note_on_c, 0, 69, 0
2, 160637, Note_on_c, 0, 71, 76
2, 160643, Note_on_c, 0, 54, 0
2, 160763, Note_on_c, 0, 71, 0
2, 160771, Note_on_c, 0, 73, 78
2, 160850, Control_c, 0, 64, 25
2, 160910, Note_on_c, 0, 56, 81
2, 160912, Note_on_c, 0, 74, 76
2, 160947, Note_on_c, 0, 73, 0
2, 160958, Note_on_c, 0, 51, 0
2, 160984, Control_c, 0, 64, 24
2, 161009, Note_on_c, 0, 74, 0
2, 161028, Note_on_c, 0, 71, 78
2, 161187, Note_on_c, 0, 53, 82
2, 161194, Note_on_c, 0, 73, 80
2, 161198, Note_on_c, 0, 71, 0
2, 161207, Note_on_c, 0, 56, 0
2, 161326, Note_on_c, 0, 75, 75
2, 161332, Note_on_c, 0, 73, 0
2, 161388, Control_c, 0, 64, 25
2, 161428, Control_c, 0, 64, 26
2, 161435, Note_on_c, 0, 75, 0
2, 161468, Note_on_c, 0, 77, 80
2, 161479, Note_on_c, 0, 57, 81
2, 161512, Note_on_c, 0, 53, 0
2, 161562, Control_c, 0, 64, 27
2, 161610, Note_on_c, 0, 77, 0
2, 161610, Note_on_c, 0, 78, 78
2, 161765, Note_on_c, 0, 78, 0
2, 161767, Note_on_c, 0, 54, 80
2, 161794, Note_on_c, 0, 74, 72
2, 161799, Note_on_c, 0, 57, 0
2, 161830, Control_c, 0, 64, 28
2, 161899, Note_on_c, 0, 74, 0
2, 161924, Note_on_c, 0, 76, 76
2, 161962, Control_c, 0, 64, 29
2, 162030, Note_on_c, 0, 76, 0
2, 162061, Note_on_c, 0, 59, 84
2, 162063, Note_on_c, 0, 74, 68
2, 162108, Note_on_c, 0, 54, 0
2, 162155, Control_c, 0, 64, 28
2, 162195, Note_on_c, 0, 73, 79
2, 162199, Note_on_c, 0, 74, 0
2, 162331, Note_on_c, 0, 56, 84
2, 162340, Note_on_c, 0, 73, 0
2, 162344, Note_on_c, 0, 71, 76
2, 162372, Note_on_c, 0, 59, 0
2, 162422, Note_on_c, 0, 71, 0
2, 162478, Note_on_c, 0, 69, 70
2, 162617, Note_on_c, 0, 69, 0
2, 162626, Note_on_c, 0, 68, 73
2, 162631, Note_on_c, 0, 61, 78
2, 162654, Control_c, 0, 64, 27
2, 162654, Note_on_c, 0, 56, 0
2, 162747, Note_on_c, 0, 68, 0
2, 162763, Note_on_c, 0, 71, 70
2, 162828, Control_c, 0, 64, 28
2, 162902, Note_on_c, 0, 57, 85
2, 162912, Note_on_c, 0, 69, 73
2, 162918, Note_on_c, 0, 71, 0
2, 162944, Note_on_c, 0, 61, 0
2, 163021, Control_c, 0, 64, 29
2, 163021, Note_on_c, 0, 69, 0
2, 163034, Note_on_c, 0, 68, 80
2, 163057, Control_c, 0, 64, 30
2, 163182, Note_on_c, 0, 68, 0
2, 163186, Note_on_c, 0, 62, 81
2, 163191, Note_on_c, 0, 66, 76
2, 163215, Note_on_c, 0, 57, 0
2, 163268, Note_on_c, 0, 66, 0
2, 163288, Control_c, 0, 64, 31
2, 163310, Note_on_c, 0, 65, 70
2, 163346, Control_c, 0, 64, 32
2, 163388, Control_c, 0, 64, 33
2, 163388, Note_on_c, 0, 65, 0
2, 163456, Note_on_c, 0, 71, 85
2, 163588, Note_on_c, 0, 62, 0
2, 163593, Note_on_c, 0, 64, 78
2, 163656, Control_c, 0, 64, 32
2, 163733, Note_on_c, 0, 62, 77
2, 163738, Note_on_c, 0, 68, 86
2, 163746, Note_on_c, 0, 64, 0
2, 163749, Control_c, 0, 64, 31
2, 163789, Control_c, 0, 64, 30
2, 163846, Control_c, 0, 64, 28
2, 163865, Control_c, 0, 64, 26
2, 163875, Note_on_c, 0, 61, 79
2, 163886, Control_c, 0, 64, 24
2, 163891, Note_on_c, 0, 62, 0
2, 163905, Control_c, 0, 64, 23
2, 163999, Control_c, 0, 64, 22
2, 164023, Note_on_c, 0, 61, 0
2, 164023, Note_on_c, 0, 63, 86
2, 164027, Note_on_c, 0, 59, 83
2, 164077, Control_c, 0, 64, 23
2, 164097, Control_c, 0, 64, 24
2, 164116, Control_c, 0, 64, 25
2, 164154, Note_on_c, 0, 57, 85
2, 164163, Note_on_c, 0, 59, 0
2, 164195, Note_on_c, 0, 68, 0
2, 164232, Note_on_c, 0, 63, 0
2, 164308, Note_on_c, 0, 71, 0
2, 164312, Control_c, 0, 64, 23
2, 164312, Note_on_c, 0, 56, 82
2, 164312, Note_on_c, 0, 57, 0
2, 164312, Note_on_c, 0, 65, 79
2, 164328, Control_c, 0, 64, 22
2, 164446, Note_on_c, 0, 69, 76
2, 164502, Control_c, 0, 64, 21
2, 164571, Note_on_c, 0, 65, 0
2, 164584, Note_on_c, 0, 56, 0
2, 164592, Note_on_c, 0, 53, 83
2, 164592, Note_on_c, 0, 69, 0
2, 164597, Control_c, 0, 64, 20
2, 164597, Note_on_c, 0, 71, 82
2, 164605, Note_on_c, 0, 61, 78
2, 164726, Note_on_c, 0, 68, 76
2, 164811, Note_on_c, 0, 71, 0
2, 164886, Note_on_c, 0, 53, 0
2, 164899, Note_on_c, 0, 54, 79
2, 164899, Note_on_c, 0, 66, 86
2, 164899, Note_on_c, 0, 69, 81
2, 164903, Note_on_c, 0, 61, 0
2, 164923, Control_c, 0, 64, 21
2, 164932, Note_on_c, 0, 68, 0
2, 165037, Control_c, 0, 64, 22
2, 165077, Control_c, 0, 64, 23
2, 165095, Control_c, 0, 64, 24
2, 165115, Control_c, 0, 64, 25
2, 165133, Control_c, 0, 64, 27
2, 165153, Control_c, 0, 64, 29
2, 165204, Note_on_c, 0, 54, 0
2, 165226, Note_on_c, 0, 47, 84
2, 165331, Note_on_c, 0, 69, 0
2, 165359, Note_on_c, 0, 66, 0
2, 165386, Note_on_c, 0, 71, 83
2, 165560, Note_on_c, 0, 47, 0
2, 165571, Note_on_c, 0, 68, 88
2, 165577, Note_on_c, 0, 49, 79
2, 165577, Note_on_c, 0, 65, 79
2, 165597, Note_on_c, 0, 71, 0
2, 165634, Control_c, 0, 64, 27
2, 165923, Note_on_c, 0, 37, 80
2, 165932, Note_on_c, 0, 49, 0
2, 165958, Control_c, 0, 64, 28
2, 166017, Control_c, 0, 64, 27
2, 166056, Control_c, 0, 64, 28
2, 166074, Control_c, 0, 64, 29
2, 166093, Control_c, 0, 64, 30
2, 166102, Note_on_c, 0, 66, 88
2, 166115, Note_on_c, 0, 68, 0
2, 166269, Note_on_c, 0, 65, 0
2, 166307, Note_on_c, 0, 66, 0
2, 166361, Note_on_c, 0, 42, 74
2, 166378, Note_on_c, 0, 37, 0
2, 166389, Note_on_c, 0, 66, 87
2, 166496, Control_c, 0, 64, 31
2, 166573, Control_c, 0, 64, 30
2, 166689, Control_c, 0, 64, 29
2, 166726, Control_c, 0, 64, 28
2, 166741, Note_on_c, 0, 45, 63
2, 166756, Note_on_c, 0, 42, 0
2, 166778, Note_on_c, 0, 61, 51
2, 166805, Control_c, 0, 64, 27
2, 166941, Control_c, 0, 64, 28
2, 166966, Note_on_c, 0, 66, 0
2, 167019, Note_on_c, 0, 45, 0
2, 167043, Note_on_c, 0, 42, 58
2, 167050, Note_on_c, 0, 66, 66
2, 167208, Control_c, 0, 64, 29
2, 167282, Note_on_c, 0, 61, 0
2, 167353, Note_on_c, 0, 49, 42
2, 167358, Note_on_c, 0, 42, 0
2, 167369, Note_on_c, 0, 66, 0
2, 167373, Note_on_c, 0, 64, 63
2, 167660, Note_on_c, 0, 56, 75
2, 167951, Note_on_c, 0, 49, 0
2, 167960, Note_on_c, 0, 64, 0
2, 167964, Note_on_c, 0, 45, 52
2, 167968, Note_on_c, 0, 56, 0
2, 167973, Note_on_c, 0, 61, 61
2, 167990, Note_on_c, 0, 69, 61
2, 168247, Note_on_c, 0, 69, 0
2, 168285, Note_on_c, 0, 45, 0
2, 168285, Note_on_c, 0, 50, 57
2, 168292, Note_on_c, 0, 57, 79
2, 168298, Note_on_c, 0, 61, 0
2, 168303, Note_on_c, 0, 66, 64
2, 168581, Note_on_c, 0, 50, 0
2, 168600, Note_on_c, 0, 62, 75
2, 168603, Note_on_c, 0, 47, 62
2, 168611, Note_on_c, 0, 66, 0
2, 168611, Note_on_c, 0, 71, 74
2, 168644, Note_on_c, 0, 57, 0
2, 168704, Control_c, 0, 64, 28
2, 168890, Note_on_c, 0, 71, 0
2, 168894, Note_on_c, 0, 47, 0
2, 168899, Note_on_c, 0, 52, 68
2, 168910, Note_on_c, 0, 59, 82
2, 168915, Note_on_c, 0, 62, 0
2, 168928, Note_on_c, 0, 68, 73
2, 169125, Note_on_c, 0, 59, 0
2, 169210, Note_on_c, 0, 49, 64
2, 169210, Note_on_c, 0, 64, 78
2, 169214, Note_on_c, 0, 68, 0
2, 169214, Note_on_c, 0, 73, 79
2, 169230, Note_on_c, 0, 52, 0
2, 169497, Note_on_c, 0, 64, 0
2, 169506, Note_on_c, 0, 49, 0
2, 169510, Note_on_c, 0, 61, 76
2, 169516, Note_on_c, 0, 54, 68
2, 169536, Note_on_c, 0, 69, 67
2, 169549, Note_on_c, 0, 73, 0
2, 169744, Note_on_c, 0, 61, 0
2, 169800, Note_on_c, 0, 54, 0
2, 169819, Note_on_c, 0, 50, 61
2, 169824, Note_on_c, 0, 66, 70
2, 169824, Note_on_c, 0, 69, 0
2, 169828, Note_on_c, 0, 74, 70
2, 169877, Control_c, 0, 64, 27
2, 170075, Note_on_c, 0, 50, 0
2, 170122, Note_on_c, 0, 66, 0
2, 170131, Note_on_c, 0, 57, 61
2, 170135, Note_on_c, 0, 64, 80
2, 170186, Note_on_c, 0, 74, 0
2, 170403, Note_on_c, 0, 57, 0
2, 170429, Note_on_c, 0, 69, 69
2, 170434, Note_on_c, 0, 45, 58
2, 170434, Note_on_c, 0, 73, 73
2, 170438, Note_on_c, 0, 64, 0
2, 170511, Control_c, 0, 64, 28
2, 170665, Note_on_c, 0, 73, 0
2, 170735, Note_on_c, 0, 45, 0
2, 170739, Note_on_c, 0, 69, 0
2, 170745, Note_on_c, 0, 47, 56
2, 170759, Control_c, 0, 64, 29
2, 170759, Note_on_c, 0, 62, 70
2, 170759, Note_on_c, 0, 71, 67
2, 171017, Note_on_c, 0, 47, 0
2, 171041, Note_on_c, 0, 49, 52
2, 171049, Note_on_c, 0, 64, 68
2, 171062, Note_on_c, 0, 62, 0
2, 171104, Control_c, 0, 64, 30
2, 171266, Note_on_c, 0, 71, 0
2, 171328, Note_on_c, 0, 49, 0
2, 171328, Note_on_c, 0, 64, 0
2, 171354, Control_c, 0, 64, 31
2, 171354, Note_on_c, 0, 69, 62
2, 171363, Note_on_c, 0, 61, 57
2, 171368, Note_on_c, 0, 54, 47
2, 171630, Note_on_c, 0, 54, 0
2, 171644, Control_c, 0, 64, 30
2, 171659, Note_on_c, 0, 47, 43
2, 171659, Note_on_c, 0, 61, 0
2, 171673, Note_on_c, 0, 63, 56
2, 171902, Note_on_c, 0, 63, 0
2, 171994, Note_on_c, 0, 47, 0
2, 171994, Note_on_c, 0, 52, 49
2, 171994, Note_on_c, 0, 64, 47
2, 172179, Control_c, 0, 64, 29
2, 172248, Note_on_c, 0, 69, 0
2, 172269, Note_on_c, 0, 64, 0
2, 172296, Note_on_c, 0, 59, 56
2, 172300, Note_on_c, 0, 68, 54
2, 172428, Control_c, 0, 64, 28
2, 172554, Note_on_c, 0, 59, 0
2, 172566, Note_on_c, 0, 68, 0
2, 172583, Note_on_c, 0, 71, 53
2, 172592, Note_on_c, 0, 62, 55
2, 172810, Note_on_c, 0, 52, 0
2, 172855, Note_on_c, 0, 71, 0
2, 172902, Note_on_c, 0, 64, 67
2, 173182, Note_on_c, 0, 64, 0
2, 173188, Note_on_c, 0, 62, 0
2, 173204, Note_on_c, 0, 49, 72
2, 173217, Note_on_c, 0, 69, 61
2, 173222, Note_on_c, 0, 61, 64
2, 173508, Note_on_c, 0, 54, 75
2, 173515, Note_on_c, 0, 63, 76
2, 173524, Note_on_c, 0, 61, 0
2, 173543, Note_on_c, 0, 49, 0
2, 173775, Note_on_c, 0, 69, 0
2, 173804, Note_on_c, 0, 63, 0
2, 173813, Note_on_c, 0, 52, 81
2, 173826, Note_on_c, 0, 54, 0
2, 173826, Note_on_c, 0, 68, 62
2, 173830, Note_on_c, 0, 64, 67
2, 174096, Note_on_c, 0, 68, 0
2, 174110, Note_on_c, 0, 57, 77
2, 174114, Note_on_c, 0, 73, 72
2, 174118, Note_on_c, 0, 52, 0
2, 174370, Note_on_c, 0, 64, 0
2, 174382, Note_on_c, 0, 73, 0
2, 174397, Note_on_c, 0, 54, 79
2, 174404, Note_on_c, 0, 69, 65
2, 174414, Note_on_c, 0, 66, 61
2, 174422, Note_on_c, 0, 57, 0
2, 174689, Note_on_c, 0, 54, 0
2, 174693, Note_on_c, 0, 59, 80
2, 174721, Note_on_c, 0, 74, 68
2, 174729, Note_on_c, 0, 69, 0
2, 174801, Note_on_c, 0, 66, 0
2, 174990, Note_on_c, 0, 56, 76
2, 175001, Control_c, 0, 64, 27
2, 175019, Note_on_c, 0, 59, 0
2, 175019, Note_on_c, 0, 71, 73
2, 175290, Note_on_c, 0, 71, 0
2, 175306, Note_on_c, 0, 61, 80
2, 175310, Note_on_c, 0, 64, 72
2, 175343, Note_on_c, 0, 56, 0
2, 175571, Note_on_c, 0, 74, 0
2, 175603, Note_on_c, 0, 57, 80
2, 175603, Note_on_c, 0, 73, 70
2, 175614, Note_on_c, 0, 61, 0
2, 175656, Note_on_c, 0, 64, 0
2, 175906, Note_on_c, 0, 62, 73
2, 175906, Note_on_c, 0, 78, 69
2, 175921, Note_on_c, 0, 73, 0
2, 176208, Note_on_c, 0, 54, 67
2, 176212, Note_on_c, 0, 62, 0
2, 176219, Note_on_c, 0, 57, 0
2, 176223, Note_on_c, 0, 61, 55
2, 176509, Note_on_c, 0, 54, 0
2, 176509, Note_on_c, 0, 61, 0
2, 176522, Note_on_c, 0, 56, 65
2, 176528, Note_on_c, 0, 59, 64
2, 176594, Control_c, 0, 64, 26
2, 176601, Note_on_c, 0, 78, 0
2, 176822, Note_on_c, 0, 76, 74
2, 176827, Note_on_c, 0, 52, 64
2, 176827, Note_on_c, 0, 56, 0
2, 176829, Note_on_c, 0, 68, 59
2, 176960, Control_c, 0, 64, 25
2, 177101, Note_on_c, 0, 71, 72
2, 177105, Note_on_c, 0, 68, 0
2, 177105, Note_on_c, 0, 76, 0
2, 177112, Note_on_c, 0, 56, 65
2, 177112, Note_on_c, 0, 74, 66
2, 177128, Note_on_c, 0, 59, 0
2, 177182, Note_on_c, 0, 52, 0
2, 177365, Note_on_c, 0, 71, 0
2, 177416, Note_on_c, 0, 56, 0
2, 177416, Note_on_c, 0, 64, 70
2, 177423, Control_c, 0, 64, 24
2, 177423, Note_on_c, 0, 57, 67
2, 177477, Control_c, 0, 64, 23
2, 177575, Control_c, 0, 64, 22
2, 177631, Control_c, 0, 64, 21
2, 177669, Control_c, 0, 64, 20
2, 177680, Note_on_c, 0, 74, 0
2, 177717, Note_on_c, 0, 73, 63
2, 177725, Note_on_c, 0, 45, 64
2, 177725, Note_on_c, 0, 57, 0
2, 178026, Note_on_c, 0, 45, 0
2, 178026, Note_on_c, 0, 49, 67
2, 178112, Control_c, 0, 64, 21
2, 178130, Control_c, 0, 64, 22
2, 178151, Control_c, 0, 64, 23
2, 178216, Note_on_c, 0, 49, 0
2, 178229, Control_c, 0, 64, 24
2, 178246, Control_c, 0, 64, 25
2, 178303, Control_c, 0, 64, 24
2, 178325, Control_c, 0, 64, 15
2, 178330, Note_on_c, 0, 38, 65
2, 178334, Note_on_c, 0, 64, 0
2, 178341, Control_c, 0, 64, 0
2, 178362, Note_on_c, 0, 73, 0
2, 178476, Control_c, 0, 64, 32
2, 178494, Control_c, 0, 64, 52
2, 178514, Control_c, 0, 64, 62
2, 178536, Control_c, 0, 64, 65
2, 178552, Control_c, 0, 64, 67
2, 178573, Control_c, 0, 64, 70
2, 178593, Control_c, 0, 64, 76
2, 178611, Control_c, 0, 64, 82
2, 178629, Control_c, 0, 64, 85
2, 178651, Control_c, 0, 64, 87
2, 178651, Note_on_c, 0, 71, 66
2, 178662, Note_on_c, 0, 62, 62
2, 178668, Control_c, 0, 64, 91
2, 178677, Note_on_c, 0, 38, 0
2, 178687, Control_c, 0, 64, 93
2, 178707, Control_c, 0, 64, 94
2, 178745, Control_c, 0, 64, 93
2, 178768, Control_c, 0, 64, 90
2, 178783, Control_c, 0, 64, 86
2, 178804, Control_c, 0, 64, 82
2, 178824, Control_c, 0, 64, 78
2, 178844, Control_c, 0, 64, 76
2, 178862, Control_c, 0, 64, 73
2, 178880, Control_c, 0, 64, 69
2, 178902, Control_c, 0, 64, 65
2, 178921, Control_c, 0, 64, 62
2, 178936, Control_c, 0, 64, 59
2, 178943, Note_on_c, 0, 71, 0
2, 178947, Note_on_c, 0, 62, 0
2, 178951, Note_on_c, 0, 50, 72
2, 178957, Control_c, 0, 64, 57
2, 178962, Note_on_c, 0, 66, 66
2, 178962, Note_on_c, 0, 69, 60
2, 179037, Control_c, 0, 64, 55
2, 179055, Control_c, 0, 64, 52
2, 179070, Control_c, 0, 64, 48
2, 179090, Control_c, 0, 64, 44
2, 179110, Control_c, 0, 64, 43
2, 179167, Control_c, 0, 64, 39
2, 179187, Control_c, 0, 64, 31
2, 179206, Control_c, 0, 64, 23
2, 179224, Control_c, 0, 64, 22
2, 179258, Note_on_c, 0, 59, 73
2, 179283, Control_c, 0, 64, 21
2, 179302, Control_c, 0, 64, 18
2, 179321, Control_c, 0, 64, 17
2, 179378, Control_c, 0, 64, 18
2, 179513, Control_c, 0, 64, 20
2, 179546, Note_on_c, 0, 69, 0
2, 179559, Note_on_c, 0, 52, 64
2, 179561, Note_on_c, 0, 68, 76
2, 179571, Note_on_c, 0, 66, 0
2, 179605, Note_on_c, 0, 50, 0
2, 179831, Note_on_c, 0, 68, 0
2, 179858, Note_on_c, 0, 47, 59
2, 179867, Note_on_c, 0, 71, 70
2, 180061, Note_on_c, 0, 71, 0
2, 180119, Note_on_c, 0, 47, 0
2, 180149, Note_on_c, 0, 52, 0
2, 180179, Note_on_c, 0, 49, 55
2, 180194, Note_on_c, 0, 76, 62
2, 180242, Control_c, 0, 64, 19
2, 180449, Note_on_c, 0, 59, 0
2, 180491, Note_on_c, 0, 57, 75
2, 180550, Control_c, 0, 64, 18
2, 180645, Control_c, 0, 64, 17
2, 180796, Note_on_c, 0, 61, 77
2, 180837, Note_on_c, 0, 57, 0
2, 181068, Note_on_c, 0, 61, 0
2, 181112, Note_on_c, 0, 66, 81
2, 181165, Control_c, 0, 64, 18
2, 181183, Control_c, 0, 64, 23
2, 181203, Control_c, 0, 64, 32
2, 181225, Control_c, 0, 64, 44
2, 181240, Control_c, 0, 64, 53
2, 181263, Control_c, 0, 64, 57
2, 181281, Control_c, 0, 64, 58
2, 181404, Note_on_c, 0, 42, 68
2, 181404, Note_on_c, 0, 49, 0
2, 181415, Control_c, 0, 64, 57
2, 181432, Control_c, 0, 64, 56
2, 181472, Control_c, 0, 64, 55
2, 181489, Control_c, 0, 64, 54
2, 181510, Control_c, 0, 64, 53
2, 181531, Control_c, 0, 64, 52
2, 181566, Control_c, 0, 64, 51
2, 181587, Control_c, 0, 64, 50
2, 181625, Control_c, 0, 64, 49
2, 181682, Control_c, 0, 64, 48
2, 181704, Control_c, 0, 64, 47
2, 181704, Note_on_c, 0, 47, 74
2, 181718, Note_on_c, 0, 76, 0
2, 181722, Control_c, 0, 64, 45
2, 181726, Note_on_c, 0, 74, 70
2, 181734, Note_on_c, 0, 42, 0
2, 181740, Control_c, 0, 64, 44
2, 181762, Control_c, 0, 64, 43
2, 181800, Control_c, 0, 64, 42
2, 181833, Control_c, 0, 64, 41
2, 181872, Control_c, 0, 64, 40
2, 181892, Control_c, 0, 64, 39
2, 182005, Control_c, 0, 64, 37
2, 182023, Note_on_c, 0, 44, 79
2, 182023, Note_on_c, 0, 71, 76
2, 182027, Control_c, 0, 64, 35
2, 182043, Note_on_c, 0, 66, 0
2, 182048, Control_c, 0, 64, 34
2, 182070, Note_on_c, 0, 47, 0
2, 182237, Control_c, 0, 64, 33
2, 182295, Control_c, 0, 64, 32
2, 182304, Note_on_c, 0, 74, 0
2, 182313, Note_on_c, 0, 71, 0
2, 182337, Control_c, 0, 64, 31
2, 182337, Note_on_c, 0, 73, 71
2, 182341, Note_on_c, 0, 45, 68
2, 182345, Note_on_c, 0, 64, 64
2, 182364, Note_on_c, 0, 44, 0
2, 182411, Control_c, 0, 64, 30
2, 182469, Control_c, 0, 64, 29
2, 182487, Control_c, 0, 64, 28
2, 182584, Control_c, 0, 64, 27
2, 182604, Control_c, 0, 64, 26
2, 182643, Note_on_c, 0, 69, 78
2, 182709, Note_on_c, 0, 64, 0
2, 182969, Control_c, 0, 64, 27
2, 182973, Note_on_c, 0, 38, 74
2, 182976, Note_on_c, 0, 66, 81
2, 183017, Note_on_c, 0, 45, 0
2, 183017, Note_on_c, 0, 69, 0
2, 183140, Control_c, 0, 64, 28
2, 183287, Note_on_c, 0, 50, 72
2, 183298, Note_on_c, 0, 71, 81
2, 183303, Note_on_c, 0, 73, 0
2, 183311, Note_on_c, 0, 38, 0
2, 183604, Note_on_c, 0, 74, 83
2, 183790, Note_on_c, 0, 66, 0
2, 183815, Note_on_c, 0, 71, 0
2, 183885, Note_on_c, 0, 74, 0
2, 183909, Control_c, 0, 64, 27
2, 183914, Note_on_c, 0, 64, 86
2, 183920, Note_on_c, 0, 68, 74
2, 184099, Control_c, 0, 64, 28
2, 184210, Note_on_c, 0, 76, 86
2, 184215, Note_on_c, 0, 49, 65
2, 184242, Note_on_c, 0, 50, 0
2, 184254, Control_c, 0, 64, 27
2, 184341, Note_on_c, 0, 68, 0
2, 184513, Note_on_c, 0, 54, 69
2, 184513, Note_on_c, 0, 73, 77
2, 184518, Note_on_c, 0, 69, 84
2, 184537, Note_on_c, 0, 64, 0
2, 184541, Control_c, 0, 64, 28
2, 184546, Note_on_c, 0, 49, 0
2, 184546, Note_on_c, 0, 76, 0
2, 184763, Note_on_c, 0, 73, 0
2, 184772, Control_c, 0, 64, 26
2, 184792, Control_c, 0, 64, 22
2, 184812, Control_c, 0, 64, 16
2, 184831, Control_c, 0, 64, 8
2, 184831, Note_on_c, 0, 50, 60
2, 184831, Note_on_c, 0, 54, 0
2, 184836, Note_on_c, 0, 78, 88
2, 184852, Control_c, 0, 64, 0
2, 184887, Control_c, 0, 64, 22
2, 184906, Control_c, 0, 64, 39
2, 184925, Control_c, 0, 64, 55
2, 184945, Control_c, 0, 64, 63
2, 184964, Note_on_c, 0, 69, 0
2, 185001, Control_c, 0, 64, 64
2, 185039, Control_c, 0, 64, 63
2, 185079, Control_c, 0, 64, 62
2, 185097, Control_c, 0, 64, 61
2, 185119, Control_c, 0, 64, 60
2, 185124, Note_on_c, 0, 50, 0
2, 185153, Note_on_c, 0, 52, 64
2, 185153, Note_on_c, 0, 71, 88
2, 185157, Note_on_c, 0, 69, 71
2, 185159, Control_c, 0, 64, 59
2, 185173, Note_on_c, 0, 78, 0
2, 185193, Control_c, 0, 64, 58
2, 185216, Control_c, 0, 64, 57
2, 185236, Control_c, 0, 64, 56
2, 185251, Control_c, 0, 64, 55
2, 185273, Control_c, 0, 64, 54
2, 185327, Control_c, 0, 64, 53
2, 185423, Control_c, 0, 64, 52
2, 185463, Control_c, 0, 64, 51
2, 185478, Note_on_c, 0, 52, 0
2, 185487, Note_on_c, 0, 40, 63
2, 185496, Note_on_c, 0, 68, 83
2, 185503, Control_c, 0, 64, 49
2, 185522, Control_c, 0, 64, 47
2, 185542, Control_c, 0, 64, 44
2, 185542, Note_on_c, 0, 69, 0
2, 185560, Control_c, 0, 64, 40
2, 185578, Control_c, 0, 64, 37
2, 185598, Control_c, 0, 64, 32
2, 185617, Control_c, 0, 64, 25
2, 185637, Control_c, 0, 64, 16
2, 185655, Control_c, 0, 64, 11
2, 185675, Control_c, 0, 64, 0
2, 185807, Note_on_c, 0, 40, 0
2, 185848, Note_on_c, 0, 71, 0
2, 185864, Note_on_c, 0, 68, 0
2, 185886, Note_on_c, 0, 45, 58
2, 185886, Note_on_c, 0, 69, 72
2, 186019, Control_c, 0, 64, 20
2, 186038, Control_c, 0, 64, 44
2, 186058, Control_c, 0, 64, 61
2, 186078, Control_c, 0, 64, 65
2, 186089, Note_on_c, 0, 45, 0
2, 186098, Control_c, 0, 64, 66
2, 186193, Control_c, 0, 64, 65
2, 186213, Control_c, 0, 64, 64
2, 186243, Note_on_c, 0, 76, 66
2, 186252, Control_c, 0, 64, 63
2, 186254, Note_on_c, 0, 45, 59
2, 186307, Control_c, 0, 64, 62
2, 186328, Control_c, 0, 64, 61
2, 186346, Control_c, 0, 64, 60
2, 186366, Control_c, 0, 64, 58
2, 186370, Note_on_c, 0, 69, 0
2, 186380, Note_on_c, 0, 74, 72
2, 186380, Note_on_c, 0, 76, 0
2, 186389, Control_c, 0, 64, 56
2, 186404, Control_c, 0, 64, 54
2, 186463, Control_c, 0, 64, 53
2, 186480, Control_c, 0, 64, 52
2, 186499, Control_c, 0, 64, 50
2, 186522, Control_c, 0, 64, 48
2, 186522, Note_on_c, 0, 73, 77
2, 186522, Note_on_c, 0, 74, 0
2, 186526, Note_on_c, 0, 50, 59
2, 186531, Note_on_c, 0, 45, 0
2, 186578, Control_c, 0, 64, 46
2, 186595, Control_c, 0, 64, 43
2, 186614, Control_c, 0, 64, 38
2, 186634, Control_c, 0, 64, 35
2, 186656, Control_c, 0, 64, 33
2, 186656, Note_on_c, 0, 71, 75
2, 186656, Note_on_c, 0, 73, 0
2, 186673, Control_c, 0, 64, 32
2, 186710, Control_c, 0, 64, 30
2, 186729, Control_c, 0, 64, 24
2, 186748, Control_c, 0, 64, 18
2, 186767, Control_c, 0, 64, 15
2, 186778, Note_on_c, 0, 71, 0
2, 186785, Note_on_c, 0, 50, 0
2, 186796, Note_on_c, 0, 49, 57
2, 186800, Note_on_c, 0, 69, 66
2, 186911, Note_on_c, 0, 69, 0
2, 186918, Note_on_c, 0, 71, 71
2, 187036, Note_on_c, 0, 71, 0
2, 187076, Note_on_c, 0, 49, 0
2, 187076, Note_on_c, 0, 73, 70
2, 187087, Note_on_c, 0, 57, 59
2, 187134, Control_c, 0, 64, 16
2, 187162, Note_on_c, 0, 73, 0
2, 187215, Note_on_c, 0, 69, 62
2, 187353, Note_on_c, 0, 57, 0
2, 187361, Note_on_c, 0, 69, 0
2, 187373, Note_on_c, 0, 50, 52
2, 187373, Note_on_c, 0, 67, 65
2, 187473, Note_on_c, 0, 67, 0
2, 187503, Note_on_c, 0, 66, 69
2, 187576, Control_c, 0, 64, 17
2, 187629, Note_on_c, 0, 50, 0
2, 187639, Note_on_c, 0, 66, 0
2, 187646, Note_on_c, 0, 59, 57
2, 187655, Note_on_c, 0, 67, 69
2, 187749, Note_on_c, 0, 67, 0
2, 187783, Note_on_c, 0, 66, 71
2, 187862, Control_c, 0, 64, 18
2, 187908, Note_on_c, 0, 59, 0
2, 187933, Note_on_c, 0, 66, 0
2, 187939, Note_on_c, 0, 52, 55
2, 187944, Note_on_c, 0, 67, 68
2, 188029, Note_on_c, 0, 67, 0
2, 188071, Note_on_c, 0, 71, 66
2, 188132, Control_c, 0, 64, 17
2, 188192, Note_on_c, 0, 71, 0
2, 188206, Note_on_c, 0, 52, 0
2, 188210, Control_c, 0, 64, 16
2, 188215, Note_on_c, 0, 61, 52
2, 188215, Note_on_c, 0, 69, 62
2, 188228, Control_c, 0, 64, 14
2, 188247, Control_c, 0, 64, 11
2, 188267, Control_c, 0, 64, 9
2, 188287, Control_c, 0, 64, 0
2, 188326, Note_on_c, 0, 69, 0
2, 188352, Note_on_c, 0, 67, 62
2, 188415, Note_on_c, 0, 61, 0
2, 188479, Note_on_c, 0, 67, 0
2, 188506, Note_on_c, 0, 62, 51
2, 188510, Note_on_c, 0, 66, 64
2, 188617, Note_on_c, 0, 62, 0
2, 188635, Note_on_c, 0, 61, 54
2, 188764, Note_on_c, 0, 61, 0
2, 188769, Note_on_c, 0, 66, 0
2, 188787, Note_on_c, 0, 62, 72
2, 188795, Note_on_c, 0, 59, 57
2, 188873, Note_on_c, 0, 59, 0
2, 188925, Note_on_c, 0, 57, 66
2, 189048, Note_on_c, 0, 62, 0
2, 189067, Note_on_c, 0, 57, 0
2, 189078, Note_on_c, 0, 56, 66
2, 189078, Note_on_c, 0, 69, 75
2, 189202, Note_on_c, 0, 56, 0
2, 189207, Note_on_c, 0, 54, 71
2, 189362, Note_on_c, 0, 54, 0
2, 189368, Note_on_c, 0, 52, 71
2, 189375, Note_on_c, 0, 68, 88
2, 189382, Note_on_c, 0, 69, 0
2, 189507, Note_on_c, 0, 54, 72
2, 189511, Note_on_c, 0, 52, 0
2, 189668, Note_on_c, 0, 56, 68
2, 189668, Note_on_c, 0, 76, 88
2, 189669, Note_on_c, 0, 54, 0
2, 189758, Note_on_c, 0, 68, 0
2, 189793, Note_on_c, 0, 56, 0
2, 189800, Note_on_c, 0, 52, 71
2, 189942, Note_on_c, 0, 50, 72
2, 189957, Note_on_c, 0, 52, 0
2, 189961, Note_on_c, 0, 69, 86
2, 189961, Note_on_c, 0, 76, 0
2, 190092, Note_on_c, 0, 50, 0
2, 190096, Note_on_c, 0, 49, 69
2, 190239, Note_on_c, 0, 49, 0
2, 190243, Note_on_c, 0, 50, 74
2, 190250, Note_on_c, 0, 78, 94
2, 190303, Note_on_c, 0, 69, 0
2, 190398, Note_on_c, 0, 49, 74
2, 190403, Note_on_c, 0, 50, 0
2, 190538, Note_on_c, 0, 71, 91
2, 190547, Note_on_c, 0, 50, 74
2, 190560, Note_on_c, 0, 49, 0
2, 190605, Note_on_c, 0, 78, 0
2, 190688, Note_on_c, 0, 54, 74
2, 190692, Note_on_c, 0, 50, 0
2, 190821, Note_on_c, 0, 74, 21
2, 190830, Note_on_c, 0, 54, 0
2, 190830, Note_on_c, 0, 80, 89
2, 190841, Note_on_c, 0, 52, 70
2, 190881, Note_on_c, 0, 71, 0
2, 190884, Note_on_c, 0, 74, 0
2, 190977, Note_on_c, 0, 50, 73
2, 190977, Note_on_c, 0, 52, 0
2, 191123, Note_on_c, 0, 49, 68
2, 191125, Note_on_c, 0, 81, 88
2, 191131, Note_on_c, 0, 50, 0
2, 191182, Note_on_c, 0, 80, 0
2, 191247, Note_on_c, 0, 49, 0
2, 191265, Note_on_c, 0, 47, 75
2, 191415, Note_on_c, 0, 45, 69
2, 191420, Note_on_c, 0, 47, 0
2, 191424, Note_on_c, 0, 73, 81
2, 191429, Note_on_c, 0, 76, 87
2, 191437, Note_on_c, 0, 81, 0
2, 191541, Note_on_c, 0, 45, 0
2, 191560, Note_on_c, 0, 47, 71
2, 191703, Note_on_c, 0, 47, 0
2, 191712, Note_on_c, 0, 49, 68
2, 191846, Note_on_c, 0, 49, 0
2, 191870, Note_on_c, 0, 45, 60
2, 192008, Note_on_c, 0, 50, 71
2, 192024, Note_on_c, 0, 45, 0
2, 192139, Note_on_c, 0, 50, 0
2, 192150, Note_on_c, 0, 49, 69
2, 192170, Note_on_c, 0, 73, 0
2, 192293, Note_on_c, 0, 49, 0
2, 192297, Note_on_c, 0, 50, 68
2, 192319, Note_on_c, 0, 71, 74
2, 192324, Note_on_c, 0, 74, 77
2, 192344, Note_on_c, 0, 76, 0
2, 192427, Note_on_c, 0, 50, 0
2, 192442, Note_on_c, 0, 52, 67
2, 192589, Note_on_c, 0, 74, 0
2, 192596, Note_on_c, 0, 52, 0
2, 192596, Note_on_c, 0, 78, 83
2, 192602, Note_on_c, 0, 49, 60
2, 192607, Note_on_c, 0, 69, 71
2, 192622, Note_on_c, 0, 71, 0
2, 192743, Note_on_c, 0, 49, 0
2, 192749, Note_on_c, 0, 50, 64
2, 192781, Note_on_c, 0, 78, 0
2, 192883, Note_on_c, 0, 50, 0
2, 192895, Note_on_c, 0, 71, 80
2, 192904, Note_on_c, 0, 52, 61
2, 193042, Note_on_c, 0, 52, 0
2, 193057, Note_on_c, 0, 50, 63
2, 193143, Note_on_c, 0, 69, 0
2, 193181, Note_on_c, 0, 50, 0
2, 193195, Note_on_c, 0, 52, 63
2, 193195, Note_on_c, 0, 68, 76
2, 193320, Note_on_c, 0, 52, 0
2, 193320, Note_on_c, 0, 54, 62
2, 193431, Note_on_c, 0, 54, 0
2, 193485, Note_on_c, 0, 50, 57
2, 193485, Note_on_c, 0, 68, 0
2, 193499, Note_on_c, 0, 64, 71
2, 193594, Note_on_c, 0, 50, 0
2, 193616, Note_on_c, 0, 52, 65
2, 193756, Note_on_c, 0, 52, 0
2, 193763, Note_on_c, 0, 64, 0
2, 193771, Note_on_c, 0, 54, 60
2, 193793, Note_on_c, 0, 61, 69
2, 193893, Note_on_c, 0, 54, 0
2, 193913, Control_c, 0, 64, 8
2, 193917, Note_on_c, 0, 56, 59
2, 193931, Control_c, 0, 64, 9
2, 193952, Control_c, 0, 64, 10
2, 193989, Note_on_c, 0, 71, 0
2, 194020, Note_on_c, 0, 61, 0
2, 194029, Control_c, 0, 64, 11
2, 194059, Note_on_c, 0, 56, 0
2, 194063, Note_on_c, 0, 54, 60
2, 194066, Control_c, 0, 64, 12
2, 194087, Note_on_c, 0, 69, 70
2, 194091, Note_on_c, 0, 62, 64
2, 194124, Control_c, 0, 64, 11
2, 194162, Control_c, 0, 64, 10
2, 194187, Note_on_c, 0, 54, 0
2, 194214, Note_on_c, 0, 52, 58
2, 194350, Note_on_c, 0, 52, 0
2, 194355, Control_c, 0, 64, 11
2, 194360, Note_on_c, 0, 69, 0
2, 194371, Note_on_c, 0, 50, 61
2, 194371, Note_on_c, 0, 62, 0
2, 194384, Note_on_c, 0, 67, 61
2, 194391, Note_on_c, 0, 64, 68
2, 194491, Note_on_c, 0, 50, 0
2, 194510, Control_c, 0, 64, 12
2, 194515, Note_on_c, 0, 49, 57
2, 194657, Note_on_c, 0, 67, 0
2, 194662, Note_on_c, 0, 49, 0
2, 194677, Note_on_c, 0, 50, 55
2, 194688, Note_on_c, 0, 66, 64
2, 194796, Note_on_c, 0, 50, 0
2, 194827, Note_on_c, 0, 52, 58
2, 194891, Note_on_c, 0, 64, 0
2, 194948, Note_on_c, 0, 52, 0
2, 194979, Note_on_c, 0, 50, 57
2, 194979, Note_on_c, 0, 57, 68
2, 195005, Control_c, 0, 64, 13
2, 195093, Note_on_c, 0, 50, 0
2, 195110, Note_on_c, 0, 49, 58
2, 195215, Note_on_c, 0, 49, 0
2, 195262, Note_on_c, 0, 57, 0
2, 195266, Note_on_c, 0, 47, 55
2, 195266, Note_on_c, 0, 62, 77
2, 195393, Note_on_c, 0, 47, 0
2, 195409, Note_on_c, 0, 45, 54
2, 195535, Note_on_c, 0, 45, 0
2, 195558, Note_on_c, 0, 44, 60
2, 195569, Note_on_c, 0, 71, 68
2, 195681, Note_on_c, 0, 44, 0
2, 195700, Note_on_c, 0, 62, 0
2, 195707, Note_on_c, 0, 47, 58
2, 195718, Control_c, 0, 64, 12
2, 195808, Note_on_c, 0, 71, 0
2, 195812, Control_c, 0, 64, 11
2, 195835, Note_on_c, 0, 47, 0
2, 195848, Note_on_c, 0, 45, 63
2, 195874, Note_on_c, 0, 61, 69
2, 195874, Note_on_c, 0, 64, 69
2, 195879, Note_on_c, 0, 66, 0
2, 195910, Control_c, 0, 64, 10
2, 195983, Note_on_c, 0, 45, 0
2, 195999, Note_on_c, 0, 44, 66
2, 196024, Control_c, 0, 64, 9
2, 196121, Control_c, 0, 64, 8
2, 196135, Note_on_c, 0, 44, 0
2, 196144, Control_c, 0, 64, 0
2, 196151, Note_on_c, 0, 42, 65
2, 196153, Note_on_c, 0, 69, 70
2, 196155, Note_on_c, 0, 64, 0
2, 196305, Note_on_c, 0, 42, 0
2, 196311, Note_on_c, 0, 40, 57
2, 196454, Note_on_c, 0, 42, 62
2, 196460, Note_on_c, 0, 69, 0
2, 196469, Note_on_c, 0, 62, 71
2, 196495, Note_on_c, 0, 40, 0
2, 196597, Note_on_c, 0, 42, 0
2, 196613, Note_on_c, 0, 45, 60
2, 196732, Control_c, 0, 64, 8
2, 196776, Control_c, 0, 64, 9
2, 196776, Note_on_c, 0, 44, 70
2, 196776, Note_on_c, 0, 59, 74
2, 196781, Note_on_c, 0, 45, 0
2, 196849, Control_c, 0, 64, 10
2, 196886, Note_on_c, 0, 61, 0
2, 196888, Note_on_c, 0, 62, 0
2, 196920, Note_on_c, 0, 42, 68
2, 196926, Note_on_c, 0, 44, 0
2, 196946, Control_c, 0, 64, 11
2, 197065, Note_on_c, 0, 42, 0
2, 197083, Note_on_c, 0, 40, 67
2, 197088, Note_on_c, 0, 62, 79
2, 197099, Control_c, 0, 64, 12
2, 197117, Control_c, 0, 64, 13
2, 197137, Note_on_c, 0, 59, 0
2, 197141, Control_c, 0, 64, 14
2, 197229, Note_on_c, 0, 38, 69
2, 197229, Note_on_c, 0, 40, 0
2, 197366, Control_c, 0, 64, 13
2, 197399, Note_on_c, 0, 38, 0
2, 197412, Note_on_c, 0, 37, 68
2, 197431, Note_on_c, 0, 56, 81
2, 197476, Note_on_c, 0, 37, 0
2, 197481, Control_c, 0, 64, 14
2, 197540, Control_c, 0, 64, 15
2, 197602, Note_on_c, 0, 48, 69
2, 197709, Note_on_c, 0, 48, 0
2, 197752, Control_c, 0, 64, 16
2, 197804, Note_on_c, 0, 50, 72
2, 197804, Note_on_c, 0, 62, 0
2, 197804, Note_on_c, 0, 64, 84
2, 197811, Control_c, 0, 64, 15
2, 197811, Note_on_c, 0, 61, 71
2, 197820, Note_on_c, 0, 56, 0
2, 197850, Control_c, 0, 64, 14
2, 197885, Control_c, 0, 64, 13
2, 197955, Note_on_c, 0, 50, 0
2, 197971, Note_on_c, 0, 52, 76
2, 198091, Note_on_c, 0, 61, 0
2, 198153, Control_c, 0, 64, 14
2, 198173, Note_on_c, 0, 69, 79
2, 198178, Note_on_c, 0, 54, 75
2, 198199, Note_on_c, 0, 52, 0
2, 198208, Note_on_c, 0, 61, 72
2, 198212, Control_c, 0, 64, 13
2, 198321, Note_on_c, 0, 64, 0
2, 198326, Control_c, 0, 64, 14
2, 198344, Control_c, 0, 64, 15
2, 198377, Note_on_c, 0, 56, 77
2, 198381, Note_on_c, 0, 54, 0
2, 198479, Control_c, 0, 64, 13
2, 198590, Note_on_c, 0, 57, 75
2, 198599, Note_on_c, 0, 56, 0
2, 198607, Note_on_c, 0, 66, 82
2, 198631, Note_on_c, 0, 69, 0
2, 198636, Control_c, 0, 64, 11
2, 198769, Control_c, 0, 64, 12
2, 198806, Note_on_c, 0, 57, 0
2, 198832, Note_on_c, 0, 50, 71
2, 198867, Control_c, 0, 64, 11
2, 198902, Control_c, 0, 64, 10
2, 198921, Control_c, 0, 64, 9
2, 198980, Control_c, 0, 64, 8
2, 198998, Control_c, 0, 64, 0
2, 199103, Note_on_c, 0, 50, 0
2, 199107, Note_on_c, 0, 66, 0
2, 199107, Note_on_c, 0, 69, 78
2, 199109, Note_on_c, 0, 59, 78
2, 199112, Note_on_c, 0, 52, 68
2, 199161, Note_on_c, 0, 61, 0
2, 199702, Note_on_c, 0, 68, 79
2, 199704, Note_on_c, 0, 40, 63
2, 199708, Note_on_c, 0, 52, 0
2, 199780, Note_on_c, 0, 69, 0
2, 200605, Note_on_c, 0, 45, 57
2, 200605, Note_on_c, 0, 61, 61
2, 200605, Note_on_c, 0, 69, 71
2, 200609, Note_on_c, 0, 40, 0
2, 200613, Note_on_c, 0, 59, 0
2, 200657, Note_on_c, 0, 68, 0
2, 201679, Control_c, 0, 64, 8
2, 201700, Control_c, 0, 64, 10
2, 201719, Control_c, 0, 64, 12
2, 201737, Control_c, 0, 64, 16
2, 201757, Control_c, 0, 64, 20
2, 201775, Control_c, 0, 64, 23
2, 201796, Control_c, 0, 64, 27
2, 201817, Control_c, 0, 64, 29
2, 201833, Control_c, 0, 64, 31
2, 201854, Control_c, 0, 64, 34
2, 201872, Control_c, 0, 64, 37
2, 201892, Control_c, 0, 64, 40
2, 201910, Control_c, 0, 64, 45
2, 201929, Control_c, 0, 64, 49
2, 201949, Control_c, 0, 64, 51
2, 202007, Control_c, 0, 64, 52
2, 202083, Control_c, 0, 64, 51
2, 202120, Control_c, 0, 64, 52
2, 202161, Control_c, 0, 64, 53
2, 202197, Control_c, 0, 64, 54
2, 202218, Control_c, 0, 64, 55
2, 202276, Control_c, 0, 64, 57
2, 202294, Control_c, 0, 64, 58
2, 202316, Control_c, 0, 64, 59
2, 202333, Control_c, 0, 64, 60
2, 202352, Control_c, 0, 64, 61
2, 202370, Control_c, 0, 64, 62
2, 202409, Control_c, 0, 64, 63
2, 202431, Control_c, 0, 64, 64
2, 202449, Control_c, 0, 64, 65
2, 202468, Control_c, 0, 64, 66
2, 202485, Control_c, 0, 64, 67
2, 202562, Control_c, 0, 64, 66
2, 202659, Control_c, 0, 64, 65
2, 202793, Control_c, 0, 64, 64
2, 202931, Control_c, 0, 64, 63
2, 202986, Control_c, 0, 64, 62
2, 203122, Note_on_c, 0, 61, 0
2, 203139, Control_c, 0, 64, 61
2, 203155, Note_on_c, 0, 69, 0
2, 203170, Note_on_c, 0, 45, 0
2, 203180, Control_c, 0, 64, 60
2, 203198, Control_c, 0, 64, 59
2, 203254, Control_c, 0, 64, 58
2, 203332, Control_c, 0, 64, 57
2, 203371, Control_c, 0, 64, 56
2, 203447, Control_c, 0, 64, 55
2, 203485, Control_c, 0, 64, 54
2, 203503, Control_c, 0, 64, 53
2, 203565, Control_c, 0, 64, 52
2, 203599, Control_c, 0, 64, 51
2, 203888, Control_c, 0, 64, 50
2, 203889, End_track
0, 0, End_of_file
