0, 0, Header, 1, 2, 480
1, 0, Start_track
1, 0, Tempo, 500000
1, 0, Time_signature, 4, 2, 24, 8
1, 1, End_track
2,0,Start_track
2,0, Note_on_c, 0, 69, 63
2,554, Note_on_c, 0, 69, 0
2,1165, Note_on_c, 0, 68, 63
2,1450, Note_on_c, 0, 68, 0
2,1464, Note_on_c, 0, 73, 73
2,1752, Note_on_c, 0, 73, 0
2,1773, Note_on_c, 0, 69, 71
2,2026, Note_on_c, 0, 69, 0
2,2046, Note_on_c, 0, 74, 70
2,2285, Note_on_c, 0, 74, 0
2,2319, Note_on_c, 0, 71, 65
2,2577, Note_on_c, 0, 71, 0
2,2597, Note_on_c, 0, 76, 66
2,2604, Note_on_c, 0, 64, 54
2,2833, Note_on_c, 0, 76, 0
2,2863, Note_on_c, 0, 73, 76
2,3115, Note_on_c, 0, 64, 0
2,3122, Note_on_c, 0, 73, 0
2,3135, Note_on_c, 0, 78, 75
2,3401, Note_on_c, 0, 76, 75
2,3405, Note_on_c, 0, 78, 0
2,3657, Note_on_c, 0, 76, 0
2,3686, Note_on_c, 0, 61, 52
2,3686, Note_on_c, 0, 81, 63
2,3920, Note_on_c, 0, 81, 0
2,3938, Note_on_c, 0, 61, 0
2,3953, Note_on_c, 0, 74, 69
2,3958, Note_on_c, 0, 66, 55
2,4213, Note_on_c, 0, 66, 0
2,4231, Note_on_c, 0, 64, 62
2,4448, Note_on_c, 0, 74, 0
2,4487, Note_on_c, 0, 64, 0
2,4494, Note_on_c, 0, 73, 73
2,4504, Note_on_c, 0, 69, 57
2,4751, Note_on_c, 0, 69, 0
2,4755, Note_on_c, 0, 73, 0
2,4760, Note_on_c, 0, 75, 81
2,4764, Note_on_c, 0, 66, 66
2,4998, Note_on_c, 0, 66, 0
2,5025, Note_on_c, 0, 71, 70
2,5036, Note_on_c, 0, 75, 0
2,5036, Note_on_c, 0, 80, 83
2,5284, Note_on_c, 0, 68, 80
2,5295, Note_on_c, 0, 71, 0
2,5299, Note_on_c, 0, 80, 0
2,5301, Note_on_c, 0, 76, 84
2,5570, Note_on_c, 0, 76, 0
2,5572, Note_on_c, 0, 73, 83
2,5579, Note_on_c, 0, 81, 74
2,5583, Note_on_c, 0, 68, 0
2,5842, Note_on_c, 0, 81, 0
2,5851, Note_on_c, 0, 71, 77
2,5851, Note_on_c, 0, 80, 76
2,5855, Note_on_c, 0, 73, 0
2,6102, Note_on_c, 0, 71, 0
2,6114, Note_on_c, 0, 76, 76
2,6380, Note_on_c, 0, 80, 0
2,6385, Note_on_c, 0, 69, 53
2,6385, Note_on_c, 0, 76, 0
2,6398, Note_on_c, 0, 78, 67
2,6621, Note_on_c, 0, 78, 0
2,6655, Note_on_c, 0, 71, 64
2,6862, Note_on_c, 0, 69, 0
2,6893, Note_on_c, 0, 71, 0
2,6920, Note_on_c, 0, 68, 49
2,6929, Note_on_c, 0, 76, 62
2,7094, Control_c, 0, 64, 11
2,7111, Control_c, 0, 64, 20
2,7123, Note_on_c, 0, 68, 0
2,7132, Control_c, 0, 64, 26
2,7147, Control_c, 0, 64, 30
2,7168, Control_c, 0, 64, 32
2,7190, Control_c, 0, 64, 33
2,7196, Note_on_c, 0, 74, 62
2,7196, Note_on_c, 0, 76, 0
2,7206, Note_on_c, 0, 71, 60
2,7226, Control_c, 0, 64, 32
2,7246, Control_c, 0, 64, 31
2,7266, Control_c, 0, 64, 30
2,7283, Control_c, 0, 64, 28
2,7303, Control_c, 0, 64, 25
2,7325, Control_c, 0, 64, 23
2,7343, Control_c, 0, 64, 22
2,7361, Control_c, 0, 64, 20
2,7379, Control_c, 0, 64, 16
2,7399, Control_c, 0, 64, 11
2,7415, Note_on_c, 0, 71, 0
2,7420, Control_c, 0, 64, 0
2,7471, Note_on_c, 0, 57, 69
2,7480, Note_on_c, 0, 64, 63
2,7709, Note_on_c, 0, 74, 0
2,7732, Note_on_c, 0, 64, 0
2,7741, Note_on_c, 0, 73, 65
2,7747, Note_on_c, 0, 69, 52
2,7966, Note_on_c, 0, 69, 0
2,7973, Note_on_c, 0, 57, 0
2,7989, Note_on_c, 0, 73, 0
2,8008, Note_on_c, 0, 75, 67
2,8024, Note_on_c, 0, 66, 55
2,8210, Note_on_c, 0, 75, 0
2,8241, Note_on_c, 0, 66, 0
2,8287, Note_on_c, 0, 68, 59
2,8298, Note_on_c, 0, 76, 60
2,8535, Note_on_c, 0, 76, 0
2,8568, Note_on_c, 0, 56, 72
2,8575, Note_on_c, 0, 71, 56
2,8795, Note_on_c, 0, 68, 0
2,8827, Note_on_c, 0, 71, 0
2,8841, Note_on_c, 0, 61, 70
2,8860, Note_on_c, 0, 76, 67
2,8862, Note_on_c, 0, 56, 0
2,9126, Note_on_c, 0, 57, 78
2,9134, Note_on_c, 0, 73, 65
2,9144, Note_on_c, 0, 61, 0
2,9377, Note_on_c, 0, 73, 0
2,9395, Note_on_c, 0, 76, 0
2,9399, Note_on_c, 0, 62, 76
2,9404, Note_on_c, 0, 57, 0
2,9404, Note_on_c, 0, 78, 79
2,9415, Note_on_c, 0, 69, 59
2,9640, Note_on_c, 0, 69, 0
2,9665, Note_on_c, 0, 62, 0
2,9670, Note_on_c, 0, 59, 82
2,9683, Note_on_c, 0, 74, 66
2,9922, Note_on_c, 0, 74, 0
2,9932, Note_on_c, 0, 78, 0
2,9939, Note_on_c, 0, 59, 0
2,9946, Note_on_c, 0, 80, 76
2,9950, Note_on_c, 0, 64, 83
2,9959, Note_on_c, 0, 71, 65
2,10159, Note_on_c, 0, 71, 0
2,10221, Note_on_c, 0, 61, 77
2,10232, Note_on_c, 0, 76, 77
2,10260, Note_on_c, 0, 64, 0
2,10472, Note_on_c, 0, 76, 0
2,10492, Note_on_c, 0, 66, 81
2,10497, Note_on_c, 0, 61, 0
2,10497, Note_on_c, 0, 80, 0
2,10499, Note_on_c, 0, 81, 69
2,10503, Note_on_c, 0, 74, 67
2,10766, Note_on_c, 0, 81, 0
2,10771, Note_on_c, 0, 64, 79
2,10771, Note_on_c, 0, 80, 69
2,10780, Note_on_c, 0, 66, 0
2,11008, Note_on_c, 0, 74, 0
2,11031, Note_on_c, 0, 64, 0
2,11045, Note_on_c, 0, 69, 66
2,11056, Note_on_c, 0, 73, 58
2,11300, Note_on_c, 0, 69, 0
2,11310, Note_on_c, 0, 80, 0
2,11315, Note_on_c, 0, 62, 58
2,11336, Note_on_c, 0, 78, 63
2,11575, Note_on_c, 0, 73, 0
2,11590, Note_on_c, 0, 78, 0
2,11603, Note_on_c, 0, 80, 73
2,11616, Note_on_c, 0, 71, 58
2,11870, Note_on_c, 0, 61, 67
2,11870, Note_on_c, 0, 71, 0
2,11874, Note_on_c, 0, 62, 0
2,11882, Note_on_c, 0, 81, 68
2,11886, Note_on_c, 0, 76, 71
2,11895, Note_on_c, 0, 80, 0
2,12138, Note_on_c, 0, 61, 0
2,12145, Note_on_c, 0, 63, 78
2,12145, Note_on_c, 0, 76, 0
2,12153, Note_on_c, 0, 78, 79
2,12334, Note_on_c, 0, 63, 0
2,12417, Note_on_c, 0, 78, 0
2,12436, Note_on_c, 0, 52, 82
2,12458, Note_on_c, 0, 71, 74
2,12666, Note_on_c, 0, 71, 0
2,12686, Note_on_c, 0, 81, 0
2,12700, Note_on_c, 0, 76, 71
2,12704, Note_on_c, 0, 80, 70
2,12946, Note_on_c, 0, 76, 0
2,12959, Note_on_c, 0, 83, 75
2,12972, Note_on_c, 0, 52, 0
2,12975, Note_on_c, 0, 74, 65
2,12985, Note_on_c, 0, 80, 0
2,13068, Note_on_c, 0, 83, 0
2,13197, Note_on_c, 0, 74, 0
2,13255, Note_on_c, 0, 76, 77
2,13521, Note_on_c, 0, 49, 62
2,13536, Note_on_c, 0, 73, 64
2,13605, Note_on_c, 0, 73, 0
2,13630, Note_on_c, 0, 71, 61
2,13755, Note_on_c, 0, 71, 0
2,13759, Note_on_c, 0, 76, 0
2,13770, Note_on_c, 0, 73, 66
2,13770, Note_on_c, 0, 75, 65
2,13775, Note_on_c, 0, 54, 66
2,13788, Note_on_c, 0, 49, 0
2,13860, Note_on_c, 0, 73, 0
2,13889, Note_on_c, 0, 69, 59
2,13992, Note_on_c, 0, 69, 0
2,14022, Note_on_c, 0, 75, 0
2,14031, Note_on_c, 0, 54, 0
2,14037, Note_on_c, 0, 52, 62
2,14042, Note_on_c, 0, 68, 61
2,14046, Note_on_c, 0, 76, 63
2,14288, Note_on_c, 0, 68, 0
2,14295, Note_on_c, 0, 52, 0
2,14319, Note_on_c, 0, 57, 64
2,14319, Note_on_c, 0, 73, 65
2,14562, Note_on_c, 0, 73, 0
2,14582, Note_on_c, 0, 54, 69
2,14582, Note_on_c, 0, 57, 0
2,14586, Note_on_c, 0, 69, 58
2,14814, Note_on_c, 0, 69, 0
2,14843, Note_on_c, 0, 54, 0
2,14854, Note_on_c, 0, 59, 70
2,14858, Note_on_c, 0, 66, 63
2,15104, Note_on_c, 0, 76, 0
2,15116, Note_on_c, 0, 56, 71
2,15120, Note_on_c, 0, 66, 0
2,15127, Note_on_c, 0, 71, 66
2,15135, Note_on_c, 0, 59, 0
2,15135, Note_on_c, 0, 74, 66
2,15384, Note_on_c, 0, 71, 0
2,15393, Note_on_c, 0, 74, 0
2,15401, Note_on_c, 0, 73, 77
2,15419, Note_on_c, 0, 61, 75
2,15419, Note_on_c, 0, 69, 60
2,15426, Note_on_c, 0, 56, 0
2,15681, Note_on_c, 0, 59, 77
2,15687, Note_on_c, 0, 73, 0
2,15694, Note_on_c, 0, 61, 0
2,15694, Note_on_c, 0, 74, 72
2,15827, Note_on_c, 0, 69, 0
2,15926, Note_on_c, 0, 59, 0
2,15948, Note_on_c, 0, 64, 69
2,15952, Note_on_c, 0, 68, 70
2,16140, Note_on_c, 0, 68, 0
2,16161, Note_on_c, 0, 64, 0
2,16191, Note_on_c, 0, 74, 0
2,16224, Note_on_c, 0, 57, 54
2,16224, Note_on_c, 0, 69, 51
2,16224, Note_on_c, 0, 73, 61
2,16390, Note_on_c, 0, 73, 0
2,16420, Note_on_c, 0, 69, 0
2,16501, Note_on_c, 0, 62, 57
2,16505, Note_on_c, 0, 71, 57
2,16748, Note_on_c, 0, 57, 0
2,16766, Note_on_c, 0, 56, 62
2,17003, Note_on_c, 0, 56, 0
2,17029, Note_on_c, 0, 59, 67
2,17155, Note_on_c, 0, 62, 0
2,17276, Note_on_c, 0, 59, 0
2,17295, Note_on_c, 0, 49, 56
2,17535, Note_on_c, 0, 71, 0
2,17570, Note_on_c, 0, 61, 58
2,17579, Note_on_c, 0, 69, 56
2,17837, Note_on_c, 0, 73, 74
2,17842, Note_on_c, 0, 69, 0
2,17850, Note_on_c, 0, 61, 0
2,17850, Note_on_c, 0, 64, 75
2,17964, Note_on_c, 0, 73, 0
2,18114, Note_on_c, 0, 66, 68
2,18130, Note_on_c, 0, 57, 65
2,18153, Note_on_c, 0, 64, 0
2,18380, Note_on_c, 0, 49, 0
2,18396, Note_on_c, 0, 45, 66
2,18663, Note_on_c, 0, 50, 71
2,18683, Note_on_c, 0, 45, 0
2,18694, Note_on_c, 0, 57, 0
2,18873, Note_on_c, 0, 66, 0
2,18915, Note_on_c, 0, 50, 0
2,18924, Note_on_c, 0, 47, 61
2,18924, Note_on_c, 0, 62, 67
2,19080, Note_on_c, 0, 68, 68
2,19135, Note_on_c, 0, 47, 0
2,19156, Note_on_c, 0, 69, 45
2,19158, Note_on_c, 0, 68, 0
2,19181, Note_on_c, 0, 52, 59
2,19245, Note_on_c, 0, 69, 0
2,19249, Note_on_c, 0, 68, 72
2,19322, Note_on_c, 0, 68, 0
2,19333, Note_on_c, 0, 69, 65
2,19396, Note_on_c, 0, 52, 0
2,19402, Note_on_c, 0, 68, 64
2,19404, Note_on_c, 0, 69, 0
2,19431, Note_on_c, 0, 40, 53
2,19455, Note_on_c, 0, 68, 0
2,19470, Note_on_c, 0, 69, 60
2,19527, Note_on_c, 0, 68, 58
2,19554, Note_on_c, 0, 62, 0
2,19558, Note_on_c, 0, 69, 0
2,19578, Note_on_c, 0, 68, 0
2,19582, Note_on_c, 0, 66, 72
2,19633, Note_on_c, 0, 66, 0
2,19633, Note_on_c, 0, 68, 60
2,19662, Note_on_c, 0, 40, 0
2,19686, Note_on_c, 0, 68, 0
2,19698, Note_on_c, 0, 45, 44
2,19702, Note_on_c, 0, 69, 66
2,19809, Note_on_c, 0, 45, 0
2,19980, Note_on_c, 0, 57, 55
2,19980, Note_on_c, 0, 61, 49
2,20211, Note_on_c, 0, 69, 0
2,20237, Note_on_c, 0, 66, 58
2,20312, Note_on_c, 0, 61, 0
2,20468, Note_on_c, 0, 66, 0
2,20517, Note_on_c, 0, 59, 70
2,20735, Note_on_c, 0, 59, 0
2,20782, Note_on_c, 0, 68, 79
2,20785, Note_on_c, 0, 56, 57
2,20785, Note_on_c, 0, 64, 70
2,20803, Note_on_c, 0, 57, 0
2,20892, Note_on_c, 0, 64, 0
2,20959, Note_on_c, 0, 68, 0
2,21027, Note_on_c, 0, 56, 0
2,21048, Note_on_c, 0, 52, 61
2,21048, Note_on_c, 0, 73, 85
2,21073, Note_on_c, 0, 68, 68
2,21290, Note_on_c, 0, 52, 0
2,21290, Note_on_c, 0, 68, 0
2,21318, Note_on_c, 0, 54, 60
2,21318, Note_on_c, 0, 69, 79
2,21340, Note_on_c, 0, 73, 0
2,21572, Note_on_c, 0, 54, 0
2,21581, Note_on_c, 0, 47, 51
2,21591, Note_on_c, 0, 74, 84
2,21595, Note_on_c, 0, 66, 66
2,21595, Note_on_c, 0, 69, 0
2,21674, Note_on_c, 0, 66, 0
2,21848, Note_on_c, 0, 47, 0
2,21854, Note_on_c, 0, 52, 57
2,21859, Note_on_c, 0, 71, 82
2,21873, Note_on_c, 0, 68, 75
2,21873, Note_on_c, 0, 74, 0
2,22103, Note_on_c, 0, 52, 0
2,22129, Note_on_c, 0, 49, 54
2,22137, Note_on_c, 0, 76, 86
2,22146, Note_on_c, 0, 71, 0
2,22224, Note_on_c, 0, 68, 0
2,22389, Note_on_c, 0, 49, 0
2,22402, Note_on_c, 0, 73, 81
2,22407, Note_on_c, 0, 69, 72
2,22411, Note_on_c, 0, 54, 58
2,22416, Note_on_c, 0, 76, 0
2,22605, Note_on_c, 0, 69, 0
2,22646, Note_on_c, 0, 73, 0
2,22650, Note_on_c, 0, 54, 0
2,22672, Note_on_c, 0, 78, 87
2,22687, Note_on_c, 0, 50, 52
2,22687, Note_on_c, 0, 71, 70
2,22910, Note_on_c, 0, 50, 0
2,22934, Note_on_c, 0, 71, 0
2,22948, Note_on_c, 0, 78, 0
2,22953, Note_on_c, 0, 76, 85
2,22960, Note_on_c, 0, 57, 59
2,22966, Note_on_c, 0, 73, 69
2,23057, Note_on_c, 0, 73, 0
2,23201, Note_on_c, 0, 57, 0
2,23219, Note_on_c, 0, 54, 55
2,23223, Note_on_c, 0, 81, 80
2,23230, Note_on_c, 0, 76, 0
2,23478, Note_on_c, 0, 54, 0
2,23484, Note_on_c, 0, 81, 0
2,23493, Note_on_c, 0, 74, 75
2,23497, Note_on_c, 0, 59, 55
2,23737, Note_on_c, 0, 59, 0
2,23770, Note_on_c, 0, 52, 58
2,23770, Note_on_c, 0, 71, 66
2,24029, Note_on_c, 0, 57, 68
2,24042, Note_on_c, 0, 73, 85
2,24067, Note_on_c, 0, 74, 0
2,24096, Note_on_c, 0, 52, 0
2,24105, Note_on_c, 0, 71, 0
2,24300, Note_on_c, 0, 75, 79
2,24313, Note_on_c, 0, 54, 66
2,24313, Note_on_c, 0, 69, 61
2,24317, Note_on_c, 0, 57, 0
2,24322, Note_on_c, 0, 73, 0
2,24583, Note_on_c, 0, 76, 78
2,24584, Note_on_c, 0, 54, 0
2,24584, Note_on_c, 0, 69, 0
2,24589, Note_on_c, 0, 75, 0
2,24591, Note_on_c, 0, 61, 53
2,24843, Note_on_c, 0, 68, 59
2,25052, Note_on_c, 0, 68, 0
2,25088, Note_on_c, 0, 61, 0
2,25113, Note_on_c, 0, 59, 52
2,25123, Note_on_c, 0, 73, 63
2,25326, Note_on_c, 0, 59, 0
2,25350, Note_on_c, 0, 73, 0
2,25371, Note_on_c, 0, 58, 45
2,25382, Note_on_c, 0, 66, 58
2,25562, Note_on_c, 0, 66, 0
2,25604, Note_on_c, 0, 76, 0
2,25626, Note_on_c, 0, 58, 0
2,25643, Note_on_c, 0, 74, 61
2,25661, Note_on_c, 0, 59, 44
2,25666, Note_on_c, 0, 71, 48
2,25883, Note_on_c, 0, 59, 0
2,25883, Note_on_c, 0, 74, 0
2,25915, Note_on_c, 0, 52, 44
2,25923, Note_on_c, 0, 79, 68
2,26153, Note_on_c, 0, 52, 0
2,26160, Note_on_c, 0, 79, 0
2,26189, Note_on_c, 0, 54, 47
2,26198, Note_on_c, 0, 73, 66
2,26398, Note_on_c, 0, 71, 0
2,26423, Note_on_c, 0, 73, 0
2,26464, Note_on_c, 0, 78, 63
2,26473, Note_on_c, 0, 69, 47
2,26740, Note_on_c, 0, 74, 61
2,26791, Note_on_c, 0, 78, 0
2,26975, Note_on_c, 0, 74, 0
2,26980, Note_on_c, 0, 69, 0
2,27005, Note_on_c, 0, 68, 56
2,27022, Note_on_c, 0, 71, 54
2,27247, Note_on_c, 0, 54, 0
2,27274, Note_on_c, 0, 53, 55
2,27499, Note_on_c, 0, 53, 0
2,27540, Note_on_c, 0, 56, 67
2,27813, Note_on_c, 0, 45, 64
2,27824, Note_on_c, 0, 56, 0
2,27842, Note_on_c, 0, 68, 0
2,28070, Note_on_c, 0, 71, 0
2,28076, Note_on_c, 0, 69, 69
2,28081, Note_on_c, 0, 66, 68
2,28340, Note_on_c, 0, 69, 0
2,28345, Note_on_c, 0, 47, 73
2,28347, Note_on_c, 0, 45, 0
2,28352, Note_on_c, 0, 74, 73
2,28611, Note_on_c, 0, 49, 64
2,28618, Note_on_c, 0, 47, 0
2,28625, Note_on_c, 0, 74, 0
2,28629, Note_on_c, 0, 68, 83
2,28844, Note_on_c, 0, 66, 0
2,28873, Note_on_c, 0, 68, 0
2,28887, Note_on_c, 0, 73, 79
2,28905, Note_on_c, 0, 65, 60
2,29133, Note_on_c, 0, 65, 0
2,29142, Note_on_c, 0, 73, 0
2,29160, Note_on_c, 0, 37, 73
2,29170, Note_on_c, 0, 68, 67
2,29203, Note_on_c, 0, 71, 51
2,29212, Note_on_c, 0, 49, 0
2,29216, Note_on_c, 0, 72, 41
2,29249, Note_on_c, 0, 72, 0
2,29341, Note_on_c, 0, 71, 0
2,29398, Note_on_c, 0, 68, 0
2,29463, Note_on_c, 0, 37, 0
2,29463, Note_on_c, 0, 42, 67
2,29481, Note_on_c, 0, 69, 62
2,29757, Note_on_c, 0, 66, 46
2,29940, Note_on_c, 0, 66, 0
2,29996, Note_on_c, 0, 64, 57
2,30191, Note_on_c, 0, 42, 0
2,30225, Note_on_c, 0, 64, 0
2,30286, Note_on_c, 0, 62, 57
2,30546, Note_on_c, 0, 53, 71
2,30555, Note_on_c, 0, 68, 56
2,30585, Note_on_c, 0, 69, 0
2,30791, Note_on_c, 0, 68, 0
2,30814, Note_on_c, 0, 57, 76
2,30820, Note_on_c, 0, 66, 62
2,30828, Note_on_c, 0, 61, 47
2,30844, Note_on_c, 0, 53, 0
2,30897, Note_on_c, 0, 61, 0
2,30917, Note_on_c, 0, 62, 0
2,30995, Note_on_c, 0, 66, 0
2,31085, Note_on_c, 0, 54, 73
2,31099, Note_on_c, 0, 57, 0
2,31106, Note_on_c, 0, 74, 66
2,31370, Note_on_c, 0, 59, 77
2,31417, Note_on_c, 0, 54, 0
2,31649, Note_on_c, 0, 56, 79
2,31673, Note_on_c, 0, 71, 67
2,31691, Note_on_c, 0, 59, 0
2,31921, Note_on_c, 0, 61, 79
2,31937, Note_on_c, 0, 65, 53
2,31952, Note_on_c, 0, 56, 0
2,32041, Note_on_c, 0, 65, 0
2,32136, Note_on_c, 0, 74, 0
2,32173, Note_on_c, 0, 71, 0
2,32182, Note_on_c, 0, 57, 83
2,32198, Note_on_c, 0, 73, 69
2,32206, Note_on_c, 0, 66, 64
2,32229, Note_on_c, 0, 61, 0
2,32392, Note_on_c, 0, 66, 0
2,32452, Note_on_c, 0, 73, 0
2,32457, Note_on_c, 0, 78, 73
2,32471, Note_on_c, 0, 62, 83
2,32532, Note_on_c, 0, 57, 0
2,32730, Note_on_c, 0, 78, 0
2,32746, Note_on_c, 0, 61, 83
2,32746, Note_on_c, 0, 68, 63
2,32767, Note_on_c, 0, 62, 0
2,32972, Note_on_c, 0, 68, 0
2,33005, Note_on_c, 0, 66, 79
2,33019, Note_on_c, 0, 61, 0
2,33030, Note_on_c, 0, 70, 66
2,33035, Note_on_c, 0, 76, 70
2,33208, Note_on_c, 0, 70, 0
2,33272, Note_on_c, 0, 76, 0
2,33285, Note_on_c, 0, 59, 71
2,33294, Note_on_c, 0, 74, 60
2,33299, Note_on_c, 0, 66, 0
2,33303, Note_on_c, 0, 71, 63
2,33501, Note_on_c, 0, 71, 0
2,33560, Note_on_c, 0, 74, 0
2,33580, Note_on_c, 0, 73, 69
2,33584, Note_on_c, 0, 64, 59
2,33847, Note_on_c, 0, 56, 70
2,33874, Note_on_c, 0, 59, 0
2,34107, Note_on_c, 0, 58, 74
2,34116, Note_on_c, 0, 56, 0
2,34154, Note_on_c, 0, 64, 0
2,34372, Note_on_c, 0, 58, 0
2,34381, Note_on_c, 0, 59, 60
2,34390, Note_on_c, 0, 62, 61
2,34407, Note_on_c, 0, 73, 0
2,34647, Note_on_c, 0, 59, 0
2,34652, Note_on_c, 0, 47, 61
2,34659, Note_on_c, 0, 71, 61
2,34903, Note_on_c, 0, 71, 0
2,34925, Note_on_c, 0, 52, 66
2,34925, Note_on_c, 0, 70, 62
2,34937, Note_on_c, 0, 47, 0
2,34945, Note_on_c, 0, 67, 56
2,35152, Note_on_c, 0, 62, 0
2,35182, Note_on_c, 0, 67, 0
2,35202, Note_on_c, 0, 50, 67
2,35207, Note_on_c, 0, 52, 0
2,35211, Note_on_c, 0, 70, 0
2,35211, Note_on_c, 0, 71, 63
2,35225, Note_on_c, 0, 66, 60
2,35414, Note_on_c, 0, 66, 0
2,35449, Note_on_c, 0, 50, 0
2,35480, Note_on_c, 0, 64, 54
2,35483, Note_on_c, 0, 55, 57
2,35715, Note_on_c, 0, 55, 0
2,35729, Note_on_c, 0, 71, 0
2,35749, Note_on_c, 0, 73, 66
2,35752, Note_on_c, 0, 52, 53
2,35803, Note_on_c, 0, 64, 0
2,35976, Note_on_c, 0, 52, 0
2,35982, Note_on_c, 0, 73, 0
2,36017, Note_on_c, 0, 66, 51
2,36021, Note_on_c, 0, 54, 51
2,36041, Note_on_c, 0, 62, 48
2,36299, Note_on_c, 0, 62, 0
2,36304, Note_on_c, 0, 71, 54
2,36531, Note_on_c, 0, 71, 0
2,36553, Note_on_c, 0, 42, 44
2,36569, Note_on_c, 0, 70, 56
2,36580, Note_on_c, 0, 61, 38
2,36589, Note_on_c, 0, 54, 0
2,36690, Note_on_c, 0, 66, 0
2,36715, Note_on_c, 0, 61, 0
2,36736, Note_on_c, 0, 70, 0
2,36752, Note_on_c, 0, 42, 0
2,36845, Note_on_c, 0, 47, 40
2,36850, Note_on_c, 0, 71, 54
2,36883, Note_on_c, 0, 62, 37
2,36936, Note_on_c, 0, 62, 0
2,36966, Note_on_c, 0, 71, 0
2,37139, Note_on_c, 0, 74, 58
2,37158, Note_on_c, 0, 66, 47
2,37326, Note_on_c, 0, 66, 0
2,37401, Note_on_c, 0, 71, 65
2,37483, Note_on_c, 0, 47, 0
2,37650, Note_on_c, 0, 71, 0
2,37685, Note_on_c, 0, 68, 74
2,37944, Note_on_c, 0, 52, 68
2,37944, Note_on_c, 0, 74, 0
2,37962, Note_on_c, 0, 73, 76
2,38003, Note_on_c, 0, 68, 0
2,38126, Note_on_c, 0, 73, 0
2,38218, Note_on_c, 0, 57, 76
2,38222, Note_on_c, 0, 78, 80
2,38238, Note_on_c, 0, 52, 0
2,38238, Note_on_c, 0, 73, 61
2,38479, Note_on_c, 0, 73, 0
2,38490, Note_on_c, 0, 57, 0
2,38495, Note_on_c, 0, 56, 81
2,38504, Note_on_c, 0, 71, 66
2,38766, Note_on_c, 0, 76, 85
2,38771, Note_on_c, 0, 61, 74
2,38775, Note_on_c, 0, 78, 0
2,38777, Note_on_c, 0, 56, 0
2,38992, Note_on_c, 0, 71, 0
2,39039, Note_on_c, 0, 61, 0
2,39043, Note_on_c, 0, 57, 70
2,39048, Note_on_c, 0, 81, 83
2,39050, Note_on_c, 0, 76, 0
2,39067, Note_on_c, 0, 73, 71
2,39288, Note_on_c, 0, 73, 0
2,39308, Note_on_c, 0, 63, 77
2,39324, Note_on_c, 0, 71, 69
2,39328, Note_on_c, 0, 57, 0
2,39579, Note_on_c, 0, 59, 76
2,39583, Note_on_c, 0, 63, 0
2,39589, Note_on_c, 0, 80, 73
2,39616, Note_on_c, 0, 81, 0
2,39692, Note_on_c, 0, 78, 79
2,39707, Note_on_c, 0, 80, 0
2,39793, Note_on_c, 0, 78, 0
2,39797, Note_on_c, 0, 59, 0
2,39829, Note_on_c, 0, 64, 70
2,39838, Note_on_c, 0, 80, 81
2,40050, Note_on_c, 0, 71, 0
2,40099, Note_on_c, 0, 64, 0
2,40106, Note_on_c, 0, 57, 74
2,40395, Note_on_c, 0, 78, 70
2,40412, Note_on_c, 0, 69, 53
2,40416, Note_on_c, 0, 80, 0
2,40617, Note_on_c, 0, 69, 0
2,40648, Note_on_c, 0, 78, 0
2,40667, Note_on_c, 0, 76, 65
2,40686, Note_on_c, 0, 73, 50
2,40914, Note_on_c, 0, 73, 0
2,40947, Note_on_c, 0, 66, 65
2,41172, Note_on_c, 0, 57, 0
2,41181, Note_on_c, 0, 76, 0
2,41207, Note_on_c, 0, 59, 51
2,41212, Note_on_c, 0, 75, 62
2,41447, Note_on_c, 0, 75, 0
2,41449, Note_on_c, 0, 59, 0
2,41476, Note_on_c, 0, 54, 45
2,41481, Note_on_c, 0, 78, 69
2,41700, Note_on_c, 0, 78, 0
2,41720, Note_on_c, 0, 66, 0
2,41731, Note_on_c, 0, 54, 0
2,41747, Note_on_c, 0, 71, 62
2,41759, Note_on_c, 0, 56, 46
2,42031, Note_on_c, 0, 64, 57
2,42256, Note_on_c, 0, 64, 0
2,42314, Note_on_c, 0, 68, 61
2,42547, Note_on_c, 0, 68, 0
2,42577, Note_on_c, 0, 61, 56
2,42805, Note_on_c, 0, 56, 0
2,42839, Note_on_c, 0, 49, 49
2,43094, Note_on_c, 0, 49, 0
2,43094, Note_on_c, 0, 54, 55
2,43094, Note_on_c, 0, 69, 65
2,43094, Note_on_c, 0, 71, 0
2,43361, Note_on_c, 0, 66, 77
2,43374, Note_on_c, 0, 51, 56
2,43374, Note_on_c, 0, 54, 0
2,43374, Note_on_c, 0, 61, 0
2,43595, Note_on_c, 0, 69, 0
2,43619, Note_on_c, 0, 68, 78
2,43634, Note_on_c, 0, 52, 61
2,43634, Note_on_c, 0, 59, 64
2,43638, Note_on_c, 0, 51, 0
2,43638, Note_on_c, 0, 66, 0
2,43903, Note_on_c, 0, 64, 82
2,43947, Note_on_c, 0, 59, 0
2,44192, Note_on_c, 0, 45, 71
2,44210, Note_on_c, 0, 61, 70
2,44228, Note_on_c, 0, 64, 0
2,44329, Note_on_c, 0, 52, 0
2,44460, Note_on_c, 0, 68, 0
2,44475, Note_on_c, 0, 66, 70
2,44754, Note_on_c, 0, 69, 72
2,44815, Note_on_c, 0, 61, 0
2,44926, Note_on_c, 0, 66, 0
2,45021, Note_on_c, 0, 59, 82
2,45021, Note_on_c, 0, 69, 0
2,45035, Note_on_c, 0, 63, 74
2,45281, Note_on_c, 0, 44, 76
2,45296, Note_on_c, 0, 45, 0
2,45296, Note_on_c, 0, 71, 79
2,45376, Note_on_c, 0, 63, 0
2,45561, Note_on_c, 0, 49, 68
2,45566, Note_on_c, 0, 68, 70
2,45568, Note_on_c, 0, 64, 83
2,45585, Note_on_c, 0, 59, 0
2,45589, Note_on_c, 0, 44, 0
2,45597, Note_on_c, 0, 71, 0
2,45817, Note_on_c, 0, 68, 0
2,45846, Note_on_c, 0, 49, 0
2,45851, Note_on_c, 0, 45, 61
2,45851, Note_on_c, 0, 73, 76
2,46107, Note_on_c, 0, 45, 0
2,46125, Note_on_c, 0, 66, 67
2,46129, Note_on_c, 0, 47, 53
2,46139, Note_on_c, 0, 64, 0
2,46181, Note_on_c, 0, 73, 0
2,46419, Note_on_c, 0, 63, 46
2,46628, Note_on_c, 0, 47, 0
2,46633, Note_on_c, 0, 63, 0
2,46640, Note_on_c, 0, 66, 0
2,46705, Note_on_c, 0, 64, 50
2,46720, Note_on_c, 0, 40, 31
2,46869, Control_c, 0, 64, 17
2,46889, Control_c, 0, 64, 25
2,46909, Control_c, 0, 64, 29
2,46927, Control_c, 0, 64, 32
2,46945, Control_c, 0, 64, 35
2,46965, Control_c, 0, 64, 41
2,46986, Control_c, 0, 64, 51
2,46990, Note_on_c, 0, 76, 51
2,47006, Control_c, 0, 64, 59
2,47024, Control_c, 0, 64, 61
2,47063, Control_c, 0, 64, 62
2,47081, Control_c, 0, 64, 63
2,47099, Control_c, 0, 64, 64
2,47177, Note_on_c, 0, 64, 0
2,47198, Control_c, 0, 64, 63
2,47217, Note_on_c, 0, 40, 0
2,47239, Note_on_c, 0, 76, 0
2,47256, Control_c, 0, 64, 62
2,47256, Note_on_c, 0, 71, 57
2,47294, Control_c, 0, 64, 61
2,47312, Control_c, 0, 64, 60
2,47350, Control_c, 0, 64, 59
2,47369, Control_c, 0, 64, 58
2,47389, Control_c, 0, 64, 57
2,47408, Control_c, 0, 64, 56
2,47426, Control_c, 0, 64, 55
2,47446, Control_c, 0, 64, 54
2,47484, Control_c, 0, 64, 53
2,47506, Control_c, 0, 64, 52
2,47506, Note_on_c, 0, 71, 0
2,47519, Note_on_c, 0, 73, 68
2,47524, Control_c, 0, 64, 50
2,47543, Control_c, 0, 64, 49
2,47561, Control_c, 0, 64, 46
2,47580, Control_c, 0, 64, 44
2,47600, Control_c, 0, 64, 42
2,47620, Control_c, 0, 64, 40
2,47637, Control_c, 0, 64, 39
2,47658, Control_c, 0, 64, 38
2,47676, Control_c, 0, 64, 36
2,47695, Control_c, 0, 64, 31
2,47716, Control_c, 0, 64, 26
2,47735, Control_c, 0, 64, 23
2,47740, Note_on_c, 0, 73, 0
2,47753, Control_c, 0, 64, 22
2,47770, Note_on_c, 0, 78, 65
2,47790, Note_on_c, 0, 69, 50
2,47795, Control_c, 0, 64, 21
2,47812, Control_c, 0, 64, 20
2,47829, Control_c, 0, 64, 18
2,47849, Control_c, 0, 64, 14
2,47868, Control_c, 0, 64, 13
2,48024, Note_on_c, 0, 69, 0
2,48047, Note_on_c, 0, 64, 61
2,48047, Note_on_c, 0, 73, 70
2,48047, Note_on_c, 0, 78, 0
2,48080, Control_c, 0, 64, 12
2,48292, Note_on_c, 0, 64, 0
2,48292, Note_on_c, 0, 73, 0
2,48309, Note_on_c, 0, 66, 61
2,48328, Note_on_c, 0, 74, 65
2,48567, Note_on_c, 0, 66, 0
2,48592, Note_on_c, 0, 71, 64
2,48735, Control_c, 0, 64, 13
2,48860, Note_on_c, 0, 71, 0
2,48869, Note_on_c, 0, 66, 61
2,49131, Note_on_c, 0, 66, 0
2,49156, Note_on_c, 0, 68, 56
2,49371, Note_on_c, 0, 74, 0
2,49422, Note_on_c, 0, 71, 61
2,49558, Control_c, 0, 64, 12
2,49596, Control_c, 0, 64, 11
2,49691, Note_on_c, 0, 76, 70
2,49790, Note_on_c, 0, 71, 0
2,49906, Note_on_c, 0, 68, 0
2,49937, Note_on_c, 0, 64, 60
2,49952, Note_on_c, 0, 73, 79
2,49956, Note_on_c, 0, 76, 0
2,50077, Control_c, 0, 64, 13
2,50213, Note_on_c, 0, 64, 0
2,50213, Note_on_c, 0, 69, 63
2,50220, Note_on_c, 0, 78, 81
2,50242, Note_on_c, 0, 73, 0
2,50347, Control_c, 0, 64, 14
2,50365, Control_c, 0, 64, 15
2,50463, Note_on_c, 0, 69, 0
2,50473, Note_on_c, 0, 66, 72
2,50477, Note_on_c, 0, 74, 79
2,50493, Note_on_c, 0, 78, 0
2,50537, Control_c, 0, 64, 16
2,50728, Control_c, 0, 64, 17
2,50759, Note_on_c, 0, 71, 80
2,50764, Note_on_c, 0, 80, 79
2,50784, Note_on_c, 0, 66, 0
2,50800, Note_on_c, 0, 74, 0
2,50865, Control_c, 0, 64, 18
2,50904, Control_c, 0, 64, 19
2,51028, Note_on_c, 0, 80, 0
2,51034, Note_on_c, 0, 68, 82
2,51039, Note_on_c, 0, 76, 85
2,51071, Note_on_c, 0, 71, 0
2,51095, Control_c, 0, 64, 20
2,51306, Note_on_c, 0, 81, 86
2,51311, Note_on_c, 0, 73, 86
2,51324, Note_on_c, 0, 68, 0
2,51324, Note_on_c, 0, 76, 0
2,51419, Control_c, 0, 64, 21
2,51517, Control_c, 0, 64, 22
2,51576, Note_on_c, 0, 69, 75
2,51585, Note_on_c, 0, 78, 93
2,51596, Note_on_c, 0, 73, 0
2,51600, Note_on_c, 0, 81, 0
2,51671, Control_c, 0, 64, 23
2,51727, Control_c, 0, 64, 24
2,51785, Control_c, 0, 64, 25
2,51856, Note_on_c, 0, 74, 87
2,51866, Note_on_c, 0, 69, 0
2,52126, Note_on_c, 0, 83, 89
2,52178, Note_on_c, 0, 78, 0
2,52393, Note_on_c, 0, 76, 92
2,52412, Note_on_c, 0, 83, 0
2,52669, Control_c, 0, 64, 24
2,52674, Note_on_c, 0, 74, 0
2,52674, Note_on_c, 0, 81, 89
2,52679, Note_on_c, 0, 73, 81
2,52734, Note_on_c, 0, 76, 0
2,52764, Control_c, 0, 64, 23
2,52803, Control_c, 0, 64, 21
2,52821, Control_c, 0, 64, 20
2,52841, Control_c, 0, 64, 19
2,52937, Note_on_c, 0, 78, 85
2,52939, Control_c, 0, 64, 18
2,52966, Note_on_c, 0, 73, 0
2,53090, Control_c, 0, 64, 17
2,53128, Control_c, 0, 64, 15
2,53149, Control_c, 0, 64, 9
2,53167, Control_c, 0, 64, 0
2,53220, Note_on_c, 0, 71, 84
2,53240, Note_on_c, 0, 78, 0
2,53490, Note_on_c, 0, 80, 84
2,53494, Control_c, 0, 64, 26
2,53511, Note_on_c, 0, 81, 0
2,53516, Control_c, 0, 64, 50
2,53533, Control_c, 0, 64, 66
2,53553, Control_c, 0, 64, 78
2,53557, Note_on_c, 0, 71, 0
2,53575, Control_c, 0, 64, 127
2,53607, Note_on_c, 0, 78, 85
2,53722, Note_on_c, 0, 76, 86
2,53746, Note_on_c, 0, 78, 0
2,53806, Note_on_c, 0, 76, 0
2,53846, Note_on_c, 0, 74, 78
2,53857, Control_c, 0, 64, 107
2,53880, Control_c, 0, 64, 95
2,53897, Control_c, 0, 64, 85
2,53916, Control_c, 0, 64, 77
2,53936, Control_c, 0, 64, 67
2,53940, Note_on_c, 0, 80, 0
2,53947, Note_on_c, 0, 74, 0
2,53954, Control_c, 0, 64, 57
2,53975, Control_c, 0, 64, 39
2,53981, Note_on_c, 0, 81, 81
2,53986, Note_on_c, 0, 45, 83
2,53986, Note_on_c, 0, 73, 82
2,53994, Control_c, 0, 64, 0
2,54079, Note_on_c, 0, 81, 0
2,54101, Note_on_c, 0, 73, 0
2,54127, Note_on_c, 0, 74, 56
2,54162, Note_on_c, 0, 72, 48
2,54197, Note_on_c, 0, 72, 0
2,54208, Note_on_c, 0, 74, 0
2,54266, Note_on_c, 0, 76, 74
2,54384, Note_on_c, 0, 76, 0
2,54389, Note_on_c, 0, 73, 72
2,54456, Note_on_c, 0, 45, 0
2,54511, Note_on_c, 0, 71, 77
2,54511, Note_on_c, 0, 73, 0
2,54589, Note_on_c, 0, 71, 0
2,54637, Note_on_c, 0, 69, 69
2,54753, Note_on_c, 0, 69, 0
2,54766, Note_on_c, 0, 68, 77
2,54863, Note_on_c, 0, 68, 0
2,54885, Note_on_c, 0, 69, 65
2,54995, Note_on_c, 0, 69, 0
2,55024, Note_on_c, 0, 71, 65
2,55042, Note_on_c, 0, 44, 57
2,55138, Note_on_c, 0, 71, 0
2,55148, Note_on_c, 0, 68, 68
2,55282, Note_on_c, 0, 68, 0
2,55297, Note_on_c, 0, 44, 0
2,55297, Note_on_c, 0, 49, 63
2,55302, Note_on_c, 0, 66, 63
2,55385, Note_on_c, 0, 66, 0
2,55413, Note_on_c, 0, 64, 67
2,55530, Note_on_c, 0, 64, 0
2,55550, Note_on_c, 0, 66, 68
2,55556, Note_on_c, 0, 49, 0
2,55560, Note_on_c, 0, 45, 69
2,55636, Note_on_c, 0, 66, 0
2,55689, Note_on_c, 0, 64, 63
2,55811, Note_on_c, 0, 64, 0
2,55824, Note_on_c, 0, 66, 66
2,55831, Note_on_c, 0, 45, 0
2,55831, Note_on_c, 0, 50, 72
2,55919, Note_on_c, 0, 66, 0
2,55954, Note_on_c, 0, 69, 62
2,56077, Note_on_c, 0, 50, 0
2,56081, Note_on_c, 0, 47, 76
2,56086, Note_on_c, 0, 69, 0
2,56094, Note_on_c, 0, 68, 72
2,56194, Note_on_c, 0, 68, 0
2,56210, Note_on_c, 0, 66, 73
2,56337, Note_on_c, 0, 47, 0
2,56357, Note_on_c, 0, 52, 75
2,56357, Note_on_c, 0, 68, 70
2,56364, Note_on_c, 0, 66, 0
2,56460, Note_on_c, 0, 68, 0
2,56478, Note_on_c, 0, 71, 74
2,56617, Note_on_c, 0, 69, 70
2,56617, Note_on_c, 0, 71, 0
2,56619, Note_on_c, 0, 49, 70
2,56638, Note_on_c, 0, 52, 0
2,56733, Note_on_c, 0, 69, 0
2,56737, Note_on_c, 0, 68, 79
2,56845, Note_on_c, 0, 68, 0
2,56876, Note_on_c, 0, 69, 76
2,56883, Note_on_c, 0, 54, 77
2,56894, Note_on_c, 0, 49, 0
2,56994, Note_on_c, 0, 69, 0
2,56998, Note_on_c, 0, 71, 81
2,57140, Note_on_c, 0, 52, 78
2,57144, Note_on_c, 0, 73, 85
2,57148, Note_on_c, 0, 54, 0
2,57153, Note_on_c, 0, 71, 0
2,57268, Note_on_c, 0, 73, 0
2,57273, Note_on_c, 0, 71, 84
2,57398, Note_on_c, 0, 52, 0
2,57415, Note_on_c, 0, 57, 75
2,57415, Note_on_c, 0, 73, 84
2,57419, Note_on_c, 0, 71, 0
2,57518, Note_on_c, 0, 73, 0
2,57537, Note_on_c, 0, 74, 83
2,57674, Note_on_c, 0, 74, 0
2,57679, Note_on_c, 0, 76, 83
2,57687, Note_on_c, 0, 50, 71
2,57687, Note_on_c, 0, 57, 0
2,57792, Note_on_c, 0, 76, 0
2,57810, Note_on_c, 0, 78, 82
2,57946, Note_on_c, 0, 80, 78
2,57959, Note_on_c, 0, 78, 0
2,58068, Note_on_c, 0, 80, 0
2,58078, Note_on_c, 0, 83, 72
2,58211, Note_on_c, 0, 49, 74
2,58222, Note_on_c, 0, 81, 73
2,58233, Note_on_c, 0, 50, 0
2,58242, Note_on_c, 0, 83, 0
2,58353, Note_on_c, 0, 80, 80
2,58353, Note_on_c, 0, 81, 0
2,58476, Note_on_c, 0, 51, 80
2,58481, Note_on_c, 0, 78, 87
2,58497, Note_on_c, 0, 80, 0
2,58514, Note_on_c, 0, 49, 0
2,58608, Note_on_c, 0, 78, 0
2,58608, Note_on_c, 0, 81, 82
2,58670, Note_on_c, 0, 51, 0
2,58746, Note_on_c, 0, 80, 85
2,58750, Note_on_c, 0, 64, 85
2,58750, Note_on_c, 0, 81, 0
2,58759, Note_on_c, 0, 52, 79
2,58880, Note_on_c, 0, 81, 75
2,58884, Note_on_c, 0, 80, 0
2,58993, Note_on_c, 0, 81, 0
2,59015, Note_on_c, 0, 52, 0
2,59015, Note_on_c, 0, 83, 68
2,59019, Note_on_c, 0, 54, 68
2,59044, Control_c, 0, 64, 10
2,59061, Control_c, 0, 64, 12
2,59100, Control_c, 0, 64, 13
2,59118, Control_c, 0, 64, 12
2,59125, Note_on_c, 0, 83, 0
2,59138, Control_c, 0, 64, 11
2,59154, Note_on_c, 0, 78, 70
2,59158, Control_c, 0, 64, 8
2,59177, Control_c, 0, 64, 0
2,59260, Note_on_c, 0, 78, 0
2,59265, Note_on_c, 0, 54, 0
2,59282, Note_on_c, 0, 76, 73
2,59291, Note_on_c, 0, 56, 48
2,59326, Note_on_c, 0, 64, 0
2,59352, Note_on_c, 0, 76, 0
2,59399, Note_on_c, 0, 56, 0
2,59411, Note_on_c, 0, 74, 61
2,59484, Note_on_c, 0, 74, 0
2,59583, Note_on_c, 0, 57, 50
2,59583, Note_on_c, 0, 73, 55
2,59618, Control_c, 0, 64, 18
2,59640, Control_c, 0, 64, 38
2,59656, Control_c, 0, 64, 51
2,59676, Control_c, 0, 64, 60
2,59695, Control_c, 0, 64, 62
2,59696, Note_on_c, 0, 73, 0
2,59734, Control_c, 0, 64, 63
2,59752, Control_c, 0, 64, 64
2,59772, Control_c, 0, 64, 66
2,59792, Control_c, 0, 64, 68
2,59812, Control_c, 0, 64, 69
2,59850, Control_c, 0, 64, 68
2,59865, Note_on_c, 0, 61, 74
2,59889, Control_c, 0, 64, 67
2,59926, Control_c, 0, 64, 65
2,59944, Control_c, 0, 64, 64
2,59966, Control_c, 0, 64, 63
2,59981, Control_c, 0, 64, 62
2,60004, Control_c, 0, 64, 61
2,60021, Control_c, 0, 64, 60
2,60059, Control_c, 0, 64, 59
2,60078, Control_c, 0, 64, 58
2,60098, Control_c, 0, 64, 55
2,60117, Control_c, 0, 64, 53
2,60136, Control_c, 0, 64, 51
2,60141, Note_on_c, 0, 61, 0
2,60141, Note_on_c, 0, 66, 76
2,60213, Control_c, 0, 64, 49
2,60218, Note_on_c, 0, 57, 0
2,60233, Control_c, 0, 64, 46
2,60255, Control_c, 0, 64, 42
2,60271, Control_c, 0, 64, 38
2,60290, Control_c, 0, 64, 37
2,60309, Control_c, 0, 64, 36
2,60349, Control_c, 0, 64, 33
2,60368, Control_c, 0, 64, 27
2,60386, Control_c, 0, 64, 20
2,60407, Control_c, 0, 64, 18
2,60409, Note_on_c, 0, 64, 77
2,60418, Note_on_c, 0, 66, 0
2,60466, Control_c, 0, 64, 16
2,60484, Control_c, 0, 64, 13
2,60500, Control_c, 0, 64, 11
2,60669, Note_on_c, 0, 73, 76
2,60678, Control_c, 0, 64, 12
2,60683, Note_on_c, 0, 69, 72
2,60688, Note_on_c, 0, 45, 54
2,60688, Note_on_c, 0, 64, 0
2,60810, Control_c, 0, 64, 13
2,60865, Control_c, 0, 64, 12
2,60890, Note_on_c, 0, 69, 0
2,60935, Note_on_c, 0, 73, 0
2,60945, Note_on_c, 0, 45, 0
2,60950, Note_on_c, 0, 50, 61
2,60956, Note_on_c, 0, 66, 82
2,60956, Note_on_c, 0, 69, 70
2,61098, Control_c, 0, 64, 11
2,61199, Note_on_c, 0, 50, 0
2,61216, Note_on_c, 0, 74, 83
2,61221, Note_on_c, 0, 71, 78
2,61227, Note_on_c, 0, 47, 58
2,61234, Note_on_c, 0, 69, 0
2,61252, Control_c, 0, 64, 8
2,61261, Note_on_c, 0, 66, 0
2,61379, Note_on_c, 0, 71, 0
2,61384, Control_c, 0, 64, 0
2,61482, Note_on_c, 0, 47, 0
2,61497, Note_on_c, 0, 52, 65
2,61504, Note_on_c, 0, 71, 87
2,61507, Note_on_c, 0, 68, 87
2,61507, Note_on_c, 0, 74, 0
2,61779, Note_on_c, 0, 49, 66
2,61779, Note_on_c, 0, 73, 82
2,61779, Note_on_c, 0, 76, 86
2,61783, Note_on_c, 0, 52, 0
2,61785, Note_on_c, 0, 68, 0
2,61794, Note_on_c, 0, 71, 0
2,61946, Note_on_c, 0, 73, 0
2,62016, Note_on_c, 0, 76, 0
2,62034, Note_on_c, 0, 49, 0
2,62052, Note_on_c, 0, 54, 69
2,62052, Note_on_c, 0, 69, 73
2,62056, Note_on_c, 0, 73, 95
2,62277, Note_on_c, 0, 69, 0
2,62300, Note_on_c, 0, 54, 0
2,62320, Note_on_c, 0, 78, 89
2,62324, Note_on_c, 0, 50, 63
2,62349, Note_on_c, 0, 74, 79
2,62373, Note_on_c, 0, 73, 0
2,62564, Note_on_c, 0, 50, 0
2,62600, Note_on_c, 0, 57, 70
2,62605, Note_on_c, 0, 73, 81
2,62605, Note_on_c, 0, 76, 88
2,62609, Note_on_c, 0, 74, 0
2,62636, Note_on_c, 0, 78, 0
2,62748, Note_on_c, 0, 76, 0
2,62859, Note_on_c, 0, 81, 84
2,62875, Note_on_c, 0, 54, 68
2,62875, Note_on_c, 0, 78, 88
2,62877, Note_on_c, 0, 57, 0
2,62914, Note_on_c, 0, 73, 0
2,62997, Note_on_c, 0, 81, 0
2,63002, Control_c, 0, 64, 8
2,63017, Control_c, 0, 64, 9
2,63073, Control_c, 0, 64, 10
2,63114, Note_on_c, 0, 54, 0
2,63119, Control_c, 0, 64, 11
2,63119, Note_on_c, 0, 80, 80
2,63121, Note_on_c, 0, 59, 71
2,63121, Note_on_c, 0, 78, 0
2,63126, Note_on_c, 0, 75, 70
2,63132, Control_c, 0, 64, 12
2,63205, Note_on_c, 0, 78, 83
2,63216, Note_on_c, 0, 80, 0
2,63244, Note_on_c, 0, 59, 0
2,63249, Control_c, 0, 64, 13
2,63249, Note_on_c, 0, 57, 75
2,63266, Control_c, 0, 64, 14
2,63275, Note_on_c, 0, 78, 0
2,63282, Note_on_c, 0, 80, 80
2,63287, Control_c, 0, 64, 15
2,63356, Note_on_c, 0, 78, 84
2,63361, Note_on_c, 0, 80, 0
2,63365, Note_on_c, 0, 57, 0
2,63370, Note_on_c, 0, 56, 75
2,63383, Control_c, 0, 64, 16
2,63401, Control_c, 0, 64, 17
2,63421, Note_on_c, 0, 78, 0
2,63424, Note_on_c, 0, 80, 78
2,63489, Note_on_c, 0, 54, 76
2,63489, Note_on_c, 0, 56, 0
2,63498, Note_on_c, 0, 78, 83
2,63597, Note_on_c, 0, 75, 0
2,63629, Note_on_c, 0, 80, 0
2,63634, Note_on_c, 0, 56, 73
2,63641, Note_on_c, 0, 78, 0
2,63645, Note_on_c, 0, 78, 23
2,63649, Note_on_c, 0, 54, 0
2,63649, Note_on_c, 0, 76, 91
2,63668, Control_c, 0, 64, 18
2,63681, Note_on_c, 0, 78, 0
2,63765, Note_on_c, 0, 56, 0
2,63765, Note_on_c, 0, 57, 72
2,63790, Note_on_c, 0, 78, 85
2,63876, Note_on_c, 0, 57, 0
2,63880, Control_c, 0, 64, 20
2,63891, Note_on_c, 0, 59, 70
2,63900, Control_c, 0, 64, 22
2,63919, Control_c, 0, 64, 24
2,63919, Note_on_c, 0, 80, 86
2,63929, Note_on_c, 0, 76, 0
2,63943, Note_on_c, 0, 78, 0
2,64036, Control_c, 0, 64, 23
2,64036, Note_on_c, 0, 59, 0
2,64040, Note_on_c, 0, 80, 0
2,64046, Note_on_c, 0, 56, 65
2,64046, Note_on_c, 0, 76, 92
2,64054, Control_c, 0, 64, 22
2,64071, Control_c, 0, 64, 19
2,64088, Note_on_c, 0, 83, 42
2,64093, Control_c, 0, 64, 17
2,64112, Control_c, 0, 64, 14
2,64126, Note_on_c, 0, 83, 0
2,64131, Control_c, 0, 64, 8
2,64152, Control_c, 0, 64, 0
2,64152, Note_on_c, 0, 56, 0
2,64163, Note_on_c, 0, 54, 69
2,64170, Note_on_c, 0, 80, 85
2,64201, Note_on_c, 0, 76, 0
2,64264, Note_on_c, 0, 54, 0
2,64270, Note_on_c, 0, 80, 0
2,64292, Note_on_c, 0, 52, 62
2,64297, Note_on_c, 0, 81, 81
2,64402, Note_on_c, 0, 52, 0
2,64415, Note_on_c, 0, 81, 0
2,64435, Note_on_c, 0, 51, 61
2,64440, Control_c, 0, 64, 34
2,64440, Note_on_c, 0, 83, 80
2,64457, Control_c, 0, 64, 53
2,64477, Control_c, 0, 64, 63
2,64496, Control_c, 0, 64, 67
2,64496, Note_on_c, 0, 83, 0
2,64515, Control_c, 0, 64, 70
2,64537, Control_c, 0, 64, 71
2,64537, Note_on_c, 0, 51, 0
2,64555, Note_on_c, 0, 52, 56
2,64591, Control_c, 0, 64, 70
2,64610, Control_c, 0, 64, 69
2,64629, Control_c, 0, 64, 66
2,64649, Control_c, 0, 64, 65
2,64669, Control_c, 0, 64, 64
2,64687, Control_c, 0, 64, 63
2,64694, Note_on_c, 0, 52, 0
2,64707, Control_c, 0, 64, 62
2,64709, Note_on_c, 0, 63, 80
2,64719, Note_on_c, 0, 54, 60
2,64725, Control_c, 0, 64, 61
2,64744, Control_c, 0, 64, 59
2,64764, Control_c, 0, 64, 57
2,64782, Control_c, 0, 64, 55
2,64801, Control_c, 0, 64, 54
2,64831, Note_on_c, 0, 54, 0
2,64840, Note_on_c, 0, 51, 65
2,64860, Control_c, 0, 64, 52
2,64879, Control_c, 0, 64, 48
2,64901, Control_c, 0, 64, 45
2,64916, Control_c, 0, 64, 43
2,64935, Control_c, 0, 64, 42
2,64939, Note_on_c, 0, 51, 0
2,64970, Note_on_c, 0, 63, 0
2,64976, Control_c, 0, 64, 41
2,64978, Note_on_c, 0, 49, 61
2,64983, Note_on_c, 0, 68, 77
2,64994, Control_c, 0, 64, 39
2,65014, Control_c, 0, 64, 36
2,65033, Control_c, 0, 64, 34
2,65055, Control_c, 0, 64, 33
2,65100, Note_on_c, 0, 49, 0
2,65121, Note_on_c, 0, 47, 57
2,65148, Control_c, 0, 64, 32
2,65230, Note_on_c, 0, 47, 0
2,65255, Note_on_c, 0, 49, 58
2,65269, Note_on_c, 0, 64, 67
2,65300, Control_c, 0, 64, 31
2,65309, Note_on_c, 0, 68, 0
2,65339, Control_c, 0, 64, 30
2,65360, Control_c, 0, 64, 28
2,65380, Control_c, 0, 64, 27
2,65380, Note_on_c, 0, 49, 0
2,65397, Note_on_c, 0, 47, 59
2,65398, Control_c, 0, 64, 26
2,65435, Control_c, 0, 64, 27
2,65531, Note_on_c, 0, 47, 0
2,65555, Note_on_c, 0, 69, 65
2,65564, Note_on_c, 0, 49, 54
2,65564, Note_on_c, 0, 64, 0
2,65628, Note_on_c, 0, 49, 0
2,65668, Note_on_c, 0, 52, 57
2,65724, Control_c, 0, 64, 28
2,65803, Note_on_c, 0, 52, 0
2,65827, Note_on_c, 0, 66, 77
2,65835, Note_on_c, 0, 51, 61
2,65835, Note_on_c, 0, 69, 0
2,65946, Note_on_c, 0, 51, 0
2,65953, Control_c, 0, 64, 29
2,65964, Note_on_c, 0, 49, 63
2,65975, Control_c, 0, 64, 30
2,65994, Control_c, 0, 64, 31
2,66084, Note_on_c, 0, 49, 0
2,66095, Note_on_c, 0, 51, 65
2,66103, Note_on_c, 0, 71, 85
2,66107, Control_c, 0, 64, 32
2,66111, Note_on_c, 0, 66, 0
2,66224, Note_on_c, 0, 51, 0
2,66233, Note_on_c, 0, 54, 73
2,66316, Note_on_c, 0, 54, 0
2,66366, Note_on_c, 0, 52, 70
2,66366, Note_on_c, 0, 68, 90
2,66374, Note_on_c, 0, 71, 0
2,66495, Note_on_c, 0, 52, 0
2,66499, Note_on_c, 0, 51, 73
2,66620, Note_on_c, 0, 51, 0
2,66644, Note_on_c, 0, 73, 90
2,66645, Control_c, 0, 64, 33
2,66648, Note_on_c, 0, 52, 72
2,66669, Note_on_c, 0, 68, 0
2,66780, Note_on_c, 0, 54, 71
2,66787, Note_on_c, 0, 52, 0
2,66835, Control_c, 0, 64, 34
2,66892, Note_on_c, 0, 54, 0
2,66901, Note_on_c, 0, 56, 71
2,66904, Note_on_c, 0, 71, 90
2,66933, Note_on_c, 0, 73, 0
2,67028, Note_on_c, 0, 56, 0
2,67034, Note_on_c, 0, 54, 74
2,67086, Control_c, 0, 64, 35
2,67174, Note_on_c, 0, 56, 72
2,67178, Note_on_c, 0, 54, 0
2,67183, Note_on_c, 0, 76, 93
2,67187, Note_on_c, 0, 71, 0
2,67299, Note_on_c, 0, 56, 0
2,67302, Note_on_c, 0, 57, 70
2,67418, Note_on_c, 0, 57, 0
2,67458, Note_on_c, 0, 69, 79
2,67460, Note_on_c, 0, 59, 66
2,67483, Note_on_c, 0, 76, 0
2,67577, Note_on_c, 0, 59, 0
2,67593, Note_on_c, 0, 61, 61
2,67721, Note_on_c, 0, 61, 0
2,67738, Note_on_c, 0, 63, 67
2,67798, Control_c, 0, 64, 36
2,67838, Note_on_c, 0, 63, 0
2,67861, Note_on_c, 0, 66, 65
2,67936, Note_on_c, 0, 66, 0
2,67959, Note_on_c, 0, 69, 0
2,68007, Note_on_c, 0, 66, 60
2,68009, Control_c, 0, 64, 35
2,68009, Note_on_c, 0, 64, 60
2,68064, Control_c, 0, 64, 34
2,68104, Control_c, 0, 64, 33
2,68106, Note_on_c, 0, 64, 0
2,68122, Control_c, 0, 64, 32
2,68135, Note_on_c, 0, 63, 60
2,68144, Control_c, 0, 64, 31
2,68161, Control_c, 0, 64, 29
2,68180, Control_c, 0, 64, 28
2,68199, Control_c, 0, 64, 26
2,68218, Control_c, 0, 64, 22
2,68223, Note_on_c, 0, 63, 0
2,68236, Control_c, 0, 64, 15
2,68254, Note_on_c, 0, 66, 0
2,68259, Control_c, 0, 64, 0
2,68267, Note_on_c, 0, 61, 56
2,68285, Note_on_c, 0, 71, 64
2,68339, Note_on_c, 0, 61, 0
2,68392, Note_on_c, 0, 59, 58
2,68466, Note_on_c, 0, 59, 0
2,68526, Note_on_c, 0, 71, 0
2,68546, Control_c, 0, 64, 13
2,68553, Note_on_c, 0, 68, 64
2,68557, Note_on_c, 0, 64, 50
2,68563, Control_c, 0, 64, 38
2,68582, Control_c, 0, 64, 54
2,68601, Control_c, 0, 64, 62
2,68606, Note_on_c, 0, 68, 0
2,68621, Control_c, 0, 64, 64
2,68659, Control_c, 0, 64, 65
2,68679, Control_c, 0, 64, 66
2,68697, Control_c, 0, 64, 67
2,68719, Control_c, 0, 64, 66
2,68754, Control_c, 0, 64, 65
2,68775, Control_c, 0, 64, 64
2,68793, Control_c, 0, 64, 63
2,68808, Note_on_c, 0, 64, 0
2,68833, Control_c, 0, 64, 62
2,68852, Note_on_c, 0, 83, 62
2,68872, Control_c, 0, 64, 61
2,68874, Note_on_c, 0, 52, 47
2,68889, Control_c, 0, 64, 59
2,68913, Control_c, 0, 64, 57
2,68931, Control_c, 0, 64, 55
2,68948, Control_c, 0, 64, 53
2,68970, Control_c, 0, 64, 52
2,68970, Note_on_c, 0, 81, 66
2,68974, Note_on_c, 0, 83, 0
2,68987, Control_c, 0, 64, 51
2,69023, Control_c, 0, 64, 50
2,69043, Control_c, 0, 64, 49
2,69066, Control_c, 0, 64, 46
2,69084, Control_c, 0, 64, 42
2,69104, Control_c, 0, 64, 37
2,69108, Note_on_c, 0, 80, 75
2,69108, Note_on_c, 0, 81, 0
2,69117, Note_on_c, 0, 52, 0
2,69117, Note_on_c, 0, 57, 63
2,69121, Control_c, 0, 64, 36
2,69235, Note_on_c, 0, 78, 80
2,69242, Note_on_c, 0, 80, 0
2,69357, Note_on_c, 0, 78, 0
2,69375, Note_on_c, 0, 57, 0
2,69377, Note_on_c, 0, 76, 81
2,69388, Note_on_c, 0, 56, 68
2,69508, Note_on_c, 0, 78, 78
2,69516, Note_on_c, 0, 76, 0
2,69636, Note_on_c, 0, 78, 0
2,69653, Note_on_c, 0, 56, 0
2,69657, Note_on_c, 0, 64, 74
2,69666, Note_on_c, 0, 80, 79
2,69753, Note_on_c, 0, 80, 0
2,69800, Note_on_c, 0, 76, 77
2,69927, Control_c, 0, 64, 35
2,69940, Note_on_c, 0, 57, 77
2,69942, Note_on_c, 0, 74, 82
2,69959, Note_on_c, 0, 64, 0
2,69978, Note_on_c, 0, 76, 0
2,70004, Control_c, 0, 64, 34
2,70059, Note_on_c, 0, 74, 0
2,70069, Note_on_c, 0, 73, 84
2,70190, Note_on_c, 0, 73, 0
2,70206, Note_on_c, 0, 66, 85
2,70213, Note_on_c, 0, 74, 82
2,70228, Note_on_c, 0, 57, 0
2,70237, Control_c, 0, 64, 35
2,70345, Note_on_c, 0, 73, 82
2,70345, Note_on_c, 0, 74, 0
2,70476, Note_on_c, 0, 73, 0
2,70490, Note_on_c, 0, 59, 79
2,70490, Note_on_c, 0, 74, 87
2,70494, Note_on_c, 0, 66, 0
2,70560, Control_c, 0, 64, 34
2,70595, Note_on_c, 0, 74, 0
2,70615, Note_on_c, 0, 78, 83
2,70758, Note_on_c, 0, 68, 74
2,70758, Note_on_c, 0, 76, 79
2,70762, Note_on_c, 0, 59, 0
2,70779, Note_on_c, 0, 78, 0
2,70791, Control_c, 0, 64, 35
2,70883, Note_on_c, 0, 74, 80
2,70894, Note_on_c, 0, 76, 0
2,70951, Note_on_c, 0, 68, 0
2,70969, Note_on_c, 0, 74, 0
2,71033, Note_on_c, 0, 69, 61
2,71033, Note_on_c, 0, 73, 86
2,71156, Note_on_c, 0, 69, 0
2,71163, Note_on_c, 0, 66, 65
2,71281, Note_on_c, 0, 66, 0
2,71312, Note_on_c, 0, 64, 60
2,71314, Note_on_c, 0, 69, 79
2,71390, Note_on_c, 0, 73, 0
2,71410, Note_on_c, 0, 64, 0
2,71449, Note_on_c, 0, 62, 72
2,71592, Note_on_c, 0, 62, 0
2,71597, Note_on_c, 0, 61, 66
2,71606, Note_on_c, 0, 74, 87
2,71633, Note_on_c, 0, 69, 0
2,71736, Note_on_c, 0, 61, 0
2,71740, Note_on_c, 0, 59, 71
2,71871, Note_on_c, 0, 59, 0
2,71880, Note_on_c, 0, 57, 73
2,71887, Note_on_c, 0, 73, 89
2,71896, Note_on_c, 0, 74, 0
2,72015, Note_on_c, 0, 57, 0
2,72019, Note_on_c, 0, 59, 73
2,72137, Note_on_c, 0, 59, 0
2,72155, Note_on_c, 0, 61, 62
2,72159, Control_c, 0, 64, 36
2,72161, Note_on_c, 0, 81, 81
2,72250, Control_c, 0, 64, 37
2,72261, Note_on_c, 0, 61, 0
2,72261, Note_on_c, 0, 73, 0
2,72288, Note_on_c, 0, 57, 65
2,72420, Note_on_c, 0, 57, 0
2,72427, Note_on_c, 0, 55, 64
2,72441, Note_on_c, 0, 74, 82
2,72449, Note_on_c, 0, 81, 0
2,72553, Note_on_c, 0, 55, 0
2,72564, Note_on_c, 0, 54, 67
2,72671, Note_on_c, 0, 54, 0
2,72706, Note_on_c, 0, 55, 58
2,72716, Note_on_c, 0, 71, 80
2,72741, Note_on_c, 0, 74, 0
2,72821, Note_on_c, 0, 55, 0
2,72827, Note_on_c, 0, 54, 63
2,72978, Note_on_c, 0, 54, 0
2,72978, Note_on_c, 0, 55, 62
2,72992, Note_on_c, 0, 76, 74
2,73035, Note_on_c, 0, 71, 0
2,73078, Control_c, 0, 64, 36
2,73109, Note_on_c, 0, 55, 0
2,73130, Note_on_c, 0, 59, 59
2,73246, Note_on_c, 0, 59, 0
2,73268, Note_on_c, 0, 76, 0
2,73275, Note_on_c, 0, 73, 72
2,73287, Note_on_c, 0, 57, 57
2,73306, Control_c, 0, 64, 35
2,73363, Control_c, 0, 64, 33
2,73376, Note_on_c, 0, 57, 0
2,73385, Control_c, 0, 64, 31
2,73403, Control_c, 0, 64, 29
2,73415, Note_on_c, 0, 55, 53
2,73422, Control_c, 0, 64, 27
2,73441, Control_c, 0, 64, 25
2,73498, Control_c, 0, 64, 24
2,73504, Note_on_c, 0, 55, 0
2,73512, Note_on_c, 0, 73, 0
2,73547, Note_on_c, 0, 74, 61
2,73551, Note_on_c, 0, 54, 53
2,73613, Control_c, 0, 64, 28
2,73634, Control_c, 0, 64, 35
2,73648, Note_on_c, 0, 54, 0
2,73652, Control_c, 0, 64, 45
2,73671, Control_c, 0, 64, 54
2,73686, Note_on_c, 0, 55, 48
2,73690, Control_c, 0, 64, 60
2,73784, Note_on_c, 0, 55, 0
2,73804, Note_on_c, 0, 74, 0
2,73825, Note_on_c, 0, 57, 62
2,73843, Control_c, 0, 64, 59
2,73865, Control_c, 0, 64, 58
2,73902, Control_c, 0, 64, 56
2,73920, Control_c, 0, 64, 55
2,73925, Note_on_c, 0, 57, 0
2,73939, Control_c, 0, 64, 54
2,73939, Note_on_c, 0, 54, 65
2,73977, Control_c, 0, 64, 53
2,73997, Control_c, 0, 64, 52
2,74015, Control_c, 0, 64, 50
2,74035, Control_c, 0, 64, 48
2,74053, Control_c, 0, 64, 45
2,74058, Note_on_c, 0, 54, 0
2,74076, Control_c, 0, 64, 42
2,74080, Note_on_c, 0, 52, 66
2,74092, Control_c, 0, 64, 41
2,74112, Control_c, 0, 64, 40
2,74121, Note_on_c, 0, 62, 86
2,74132, Control_c, 0, 64, 37
2,74152, Control_c, 0, 64, 33
2,74170, Control_c, 0, 64, 27
2,74191, Control_c, 0, 64, 23
2,74191, Note_on_c, 0, 52, 0
2,74220, Note_on_c, 0, 50, 64
2,74286, Control_c, 0, 64, 22
2,74370, Note_on_c, 0, 50, 0
2,74385, Note_on_c, 0, 57, 77
2,74535, Control_c, 0, 64, 23
2,74650, Control_c, 0, 64, 24
2,74688, Note_on_c, 0, 61, 84
2,74688, Note_on_c, 0, 62, 0
2,74716, Note_on_c, 0, 64, 69
2,74784, Control_c, 0, 64, 25
2,74821, Control_c, 0, 64, 26
2,74843, Note_on_c, 0, 54, 67
2,74849, Note_on_c, 0, 57, 0
2,74938, Control_c, 0, 64, 27
2,74954, Note_on_c, 0, 64, 0
2,74970, Note_on_c, 0, 66, 79
2,74970, Note_on_c, 0, 69, 83
2,74974, Note_on_c, 0, 55, 70
2,74974, Note_on_c, 0, 61, 0
2,74994, Note_on_c, 0, 54, 0
2,75099, Note_on_c, 0, 55, 0
2,75108, Note_on_c, 0, 57, 74
2,75164, Note_on_c, 0, 66, 0
2,75213, Note_on_c, 0, 69, 0
2,75226, Control_c, 0, 64, 26
2,75239, Note_on_c, 0, 57, 0
2,75252, Note_on_c, 0, 59, 76
2,75252, Note_on_c, 0, 62, 79
2,75252, Note_on_c, 0, 66, 90
2,75388, Note_on_c, 0, 57, 71
2,75395, Note_on_c, 0, 59, 0
2,75397, Control_c, 0, 64, 25
2,75463, Note_on_c, 0, 66, 0
2,75506, Note_on_c, 0, 67, 89
2,75517, Note_on_c, 0, 62, 0
2,75526, Note_on_c, 0, 57, 0
2,75530, Note_on_c, 0, 55, 66
2,75530, Note_on_c, 0, 71, 61
2,75650, Note_on_c, 0, 55, 0
2,75661, Note_on_c, 0, 59, 69
2,75750, Note_on_c, 0, 71, 0
2,75802, Note_on_c, 0, 59, 0
2,75802, Note_on_c, 0, 67, 0
2,75807, Note_on_c, 0, 64, 86
2,75807, Note_on_c, 0, 73, 89
2,75809, Note_on_c, 0, 57, 71
2,75932, Note_on_c, 0, 57, 0
2,75947, Note_on_c, 0, 55, 66
2,76063, Note_on_c, 0, 55, 0
2,76080, Note_on_c, 0, 54, 76
2,76080, Note_on_c, 0, 69, 87
2,76118, Note_on_c, 0, 64, 0
2,76143, Note_on_c, 0, 54, 0
2,76214, Note_on_c, 0, 52, 72
2,76225, Control_c, 0, 64, 24
2,76282, Control_c, 0, 64, 25
2,76352, Note_on_c, 0, 50, 76
2,76352, Note_on_c, 0, 52, 0
2,76352, Note_on_c, 0, 69, 0
2,76368, Note_on_c, 0, 66, 90
2,76372, Note_on_c, 0, 74, 78
2,76381, Note_on_c, 0, 73, 0
2,76396, Control_c, 0, 64, 24
2,76488, Note_on_c, 0, 50, 0
2,76492, Note_on_c, 0, 54, 76
2,76541, Note_on_c, 0, 66, 0
2,76617, Note_on_c, 0, 54, 0
2,76641, Note_on_c, 0, 52, 74
2,76645, Control_c, 0, 64, 22
2,76645, Note_on_c, 0, 71, 86
2,76651, Note_on_c, 0, 74, 0
2,76655, Note_on_c, 0, 79, 89
2,76667, Control_c, 0, 64, 21
2,76704, Control_c, 0, 64, 20
2,76774, Note_on_c, 0, 52, 0
2,76778, Note_on_c, 0, 50, 71
2,76800, Control_c, 0, 64, 18
2,76857, Control_c, 0, 64, 17
2,76878, Control_c, 0, 64, 16
2,76901, Note_on_c, 0, 50, 0
2,76915, Note_on_c, 0, 49, 69
2,76919, Note_on_c, 0, 71, 0
2,76935, Note_on_c, 0, 69, 86
2,76955, Control_c, 0, 64, 15
2,77029, Control_c, 0, 64, 14
2,77040, Note_on_c, 0, 49, 0
2,77055, Note_on_c, 0, 45, 65
2,77154, Note_on_c, 0, 45, 0
2,77165, Control_c, 0, 64, 13
2,77186, Control_c, 0, 64, 12
2,77186, Note_on_c, 0, 47, 65
2,77203, Control_c, 0, 64, 11
2,77212, Note_on_c, 0, 74, 87
2,77216, Note_on_c, 0, 78, 80
2,77221, Note_on_c, 0, 69, 0
2,77225, Note_on_c, 0, 79, 0
2,77241, Control_c, 0, 64, 10
2,77261, Control_c, 0, 64, 9
2,77281, Control_c, 0, 64, 8
2,77301, Control_c, 0, 64, 0
2,77308, Note_on_c, 0, 47, 0
2,77316, Note_on_c, 0, 49, 67
2,77430, Note_on_c, 0, 78, 0
2,77467, Note_on_c, 0, 49, 0
2,77478, Note_on_c, 0, 50, 65
2,77487, Note_on_c, 0, 74, 0
2,77498, Note_on_c, 0, 67, 78
2,77507, Note_on_c, 0, 76, 72
2,77589, Note_on_c, 0, 50, 0
2,77627, Note_on_c, 0, 52, 63
2,77757, Note_on_c, 0, 52, 0
2,77772, Note_on_c, 0, 54, 66
2,77819, Note_on_c, 0, 69, 51
2,77867, Note_on_c, 0, 67, 0
2,77894, Note_on_c, 0, 54, 0
2,77916, Note_on_c, 0, 55, 64
2,78018, Note_on_c, 0, 76, 0
2,78025, Note_on_c, 0, 69, 0
2,78040, Note_on_c, 0, 55, 0
2,78070, Note_on_c, 0, 66, 65
2,78074, Note_on_c, 0, 57, 59
2,78079, Note_on_c, 0, 74, 59
2,78144, Note_on_c, 0, 57, 0
2,78208, Note_on_c, 0, 54, 54
2,78237, Note_on_c, 0, 66, 0
2,78309, Note_on_c, 0, 74, 0
2,78318, Note_on_c, 0, 54, 0
2,78361, Note_on_c, 0, 64, 63
2,78374, Note_on_c, 0, 55, 49
2,78374, Note_on_c, 0, 73, 62
2,78421, Note_on_c, 0, 55, 0
2,78482, Note_on_c, 0, 57, 52
2,78556, Note_on_c, 0, 57, 0
2,78621, Note_on_c, 0, 73, 0
2,78635, Note_on_c, 0, 64, 0
2,78679, Note_on_c, 0, 50, 38
2,78693, Note_on_c, 0, 66, 49
2,78704, Note_on_c, 0, 74, 32
2,78740, Control_c, 0, 64, 19
2,78757, Control_c, 0, 64, 36
2,78778, Control_c, 0, 64, 50
2,78783, Note_on_c, 0, 66, 0
2,78789, Note_on_c, 0, 74, 0
2,78796, Control_c, 0, 64, 59
2,78817, Control_c, 0, 64, 63
2,78835, Control_c, 0, 64, 64
2,78872, Control_c, 0, 64, 65
2,78891, Control_c, 0, 64, 66
2,78970, Control_c, 0, 64, 65
2,78979, Note_on_c, 0, 78, 65
2,79028, Control_c, 0, 64, 64
2,79065, Control_c, 0, 64, 63
2,79084, Control_c, 0, 64, 62
2,79094, Note_on_c, 0, 78, 0
2,79102, Note_on_c, 0, 76, 71
2,79107, Control_c, 0, 64, 61
2,79122, Control_c, 0, 64, 60
2,79161, Control_c, 0, 64, 59
2,79201, Control_c, 0, 64, 58
2,79219, Control_c, 0, 64, 57
2,79223, Note_on_c, 0, 50, 0
2,79237, Note_on_c, 0, 74, 74
2,79257, Control_c, 0, 64, 56
2,79264, Note_on_c, 0, 76, 0
2,79333, Control_c, 0, 64, 55
2,79345, Note_on_c, 0, 74, 0
2,79353, Control_c, 0, 64, 53
2,79360, Note_on_c, 0, 73, 74
2,79374, Control_c, 0, 64, 50
2,79396, Control_c, 0, 64, 48
2,79439, Note_on_c, 0, 73, 0
2,79469, Control_c, 0, 64, 46
2,79487, Control_c, 0, 64, 44
2,79489, Note_on_c, 0, 71, 69
2,79509, Control_c, 0, 64, 41
2,79527, Control_c, 0, 64, 39
2,79546, Control_c, 0, 64, 38
2,79553, Note_on_c, 0, 71, 0
2,79587, Control_c, 0, 64, 37
2,79604, Control_c, 0, 64, 34
2,79624, Note_on_c, 0, 74, 63
2,79628, Control_c, 0, 64, 25
2,79641, Control_c, 0, 64, 0
2,79718, Note_on_c, 0, 74, 0
2,79761, Note_on_c, 0, 49, 54
2,79765, Note_on_c, 0, 73, 55
2,79774, Note_on_c, 0, 76, 58
2,79823, Note_on_c, 0, 73, 0
2,79894, Note_on_c, 0, 71, 53
2,80004, Note_on_c, 0, 71, 0
2,80038, Note_on_c, 0, 49, 0
2,80038, Note_on_c, 0, 54, 69
2,80040, Note_on_c, 0, 70, 58
2,80129, Note_on_c, 0, 70, 0
2,80163, Note_on_c, 0, 68, 63
2,80257, Note_on_c, 0, 68, 0
2,80308, Note_on_c, 0, 50, 72
2,80308, Note_on_c, 0, 54, 0
2,80320, Note_on_c, 0, 66, 58
2,80435, Note_on_c, 0, 76, 0
2,80455, Note_on_c, 0, 73, 64
2,80477, Note_on_c, 0, 66, 0
2,80587, Note_on_c, 0, 50, 0
2,80592, Note_on_c, 0, 55, 75
2,80603, Note_on_c, 0, 71, 58
2,80603, Note_on_c, 0, 73, 0
2,80609, Note_on_c, 0, 74, 57
2,80664, Note_on_c, 0, 71, 0
2,80714, Note_on_c, 0, 69, 57
2,80822, Note_on_c, 0, 69, 0
2,80855, Note_on_c, 0, 52, 78
2,80860, Note_on_c, 0, 55, 0
2,80865, Note_on_c, 0, 67, 61
2,80946, Control_c, 0, 64, 8
2,80964, Note_on_c, 0, 67, 0
2,80968, Control_c, 0, 64, 9
2,80984, Control_c, 0, 64, 11
2,80990, Note_on_c, 0, 66, 70
2,81005, Control_c, 0, 64, 13
2,81086, Note_on_c, 0, 66, 0
2,81121, Control_c, 0, 64, 14
2,81135, Note_on_c, 0, 52, 0
2,81139, Control_c, 0, 64, 15
2,81139, Note_on_c, 0, 58, 75
2,81144, Note_on_c, 0, 64, 68
2,81223, Note_on_c, 0, 74, 0
2,81236, Control_c, 0, 64, 16
2,81285, Note_on_c, 0, 71, 67
2,81336, Note_on_c, 0, 64, 0
2,81373, Control_c, 0, 64, 17
2,81412, Note_on_c, 0, 54, 78
2,81419, Note_on_c, 0, 71, 0
2,81439, Note_on_c, 0, 58, 0
2,81439, Note_on_c, 0, 70, 65
2,81439, Note_on_c, 0, 73, 70
2,81465, Control_c, 0, 64, 18
2,81545, Note_on_c, 0, 70, 0
2,81575, Note_on_c, 0, 68, 72
2,81683, Note_on_c, 0, 68, 0
2,81693, Note_on_c, 0, 54, 0
2,81702, Note_on_c, 0, 59, 78
2,81724, Note_on_c, 0, 66, 67
2,81825, Note_on_c, 0, 66, 0
2,81847, Note_on_c, 0, 64, 69
2,81932, Note_on_c, 0, 59, 0
2,81968, Note_on_c, 0, 64, 0
2,81983, Note_on_c, 0, 56, 80
2,82005, Note_on_c, 0, 62, 72
2,82042, Control_c, 0, 64, 17
2,82059, Note_on_c, 0, 62, 0
2,82123, Note_on_c, 0, 73, 0
2,82127, Note_on_c, 0, 71, 72
2,82256, Note_on_c, 0, 71, 0
2,82260, Note_on_c, 0, 61, 70
2,82260, Note_on_c, 0, 64, 78
2,82264, Note_on_c, 0, 70, 76
2,82269, Note_on_c, 0, 56, 0
2,82350, Note_on_c, 0, 70, 0
2,82386, Control_c, 0, 64, 18
2,82393, Note_on_c, 0, 71, 71
2,82530, Note_on_c, 0, 58, 80
2,82534, Note_on_c, 0, 61, 0
2,82539, Note_on_c, 0, 71, 0
2,82551, Note_on_c, 0, 73, 77
2,82672, Note_on_c, 0, 73, 0
2,82690, Note_on_c, 0, 74, 77
2,82803, Note_on_c, 0, 74, 0
2,82809, Note_on_c, 0, 62, 74
2,82814, Note_on_c, 0, 66, 82
2,82827, Note_on_c, 0, 76, 77
2,82841, Note_on_c, 0, 64, 0
2,82853, Note_on_c, 0, 58, 0
2,82890, Control_c, 0, 64, 20
2,82949, Note_on_c, 0, 74, 80
2,82951, Note_on_c, 0, 76, 0
2,83029, Note_on_c, 0, 74, 0
2,83088, Note_on_c, 0, 76, 81
2,83097, Note_on_c, 0, 71, 85
2,83107, Note_on_c, 0, 59, 80
2,83116, Note_on_c, 0, 62, 0
2,83116, Note_on_c, 0, 66, 0
2,83174, Control_c, 0, 64, 21
2,83224, Note_on_c, 0, 76, 0
2,83240, Note_on_c, 0, 78, 78
2,83291, Control_c, 0, 64, 22
2,83387, Note_on_c, 0, 64, 83
2,83396, Note_on_c, 0, 78, 0
2,83398, Note_on_c, 0, 79, 79
2,83503, Note_on_c, 0, 59, 0
2,83516, Note_on_c, 0, 79, 0
2,83521, Note_on_c, 0, 76, 78
2,83553, Note_on_c, 0, 71, 0
2,83624, Note_on_c, 0, 76, 0
2,83663, Note_on_c, 0, 73, 88
2,83671, Note_on_c, 0, 82, 84
2,83797, Note_on_c, 0, 78, 78
2,83926, Note_on_c, 0, 64, 0
2,83930, Note_on_c, 0, 66, 79
2,83939, Note_on_c, 0, 62, 72
2,83939, Note_on_c, 0, 82, 0
2,83948, Note_on_c, 0, 78, 0
2,83948, Note_on_c, 0, 83, 74
2,84072, Note_on_c, 0, 73, 0
2,84076, Note_on_c, 0, 81, 68
2,84122, Note_on_c, 0, 83, 0
2,84218, Note_on_c, 0, 61, 76
2,84218, Note_on_c, 0, 79, 74
2,84223, Note_on_c, 0, 62, 0
2,84246, Note_on_c, 0, 66, 0
2,84246, Note_on_c, 0, 81, 0
2,84328, Note_on_c, 0, 79, 0
2,84345, Note_on_c, 0, 78, 72
2,84473, Note_on_c, 0, 78, 0
2,84489, Note_on_c, 0, 61, 0
2,84489, Note_on_c, 0, 67, 71
2,84502, Note_on_c, 0, 59, 63
2,84506, Note_on_c, 0, 76, 68
2,84575, Note_on_c, 0, 67, 0
2,84651, Note_on_c, 0, 74, 63
2,84660, Note_on_c, 0, 76, 0
2,84752, Note_on_c, 0, 59, 0
2,84776, Note_on_c, 0, 74, 0
2,84782, Note_on_c, 0, 55, 60
2,84787, Note_on_c, 0, 64, 69
2,84787, Note_on_c, 0, 73, 71
2,84833, Note_on_c, 0, 55, 0
2,84864, Control_c, 0, 64, 21
2,84869, Note_on_c, 0, 73, 0
2,84921, Note_on_c, 0, 71, 62
2,84998, Note_on_c, 0, 64, 0
2,85018, Control_c, 0, 64, 20
2,85044, Note_on_c, 0, 71, 0
2,85066, Note_on_c, 0, 66, 58
2,85070, Note_on_c, 0, 50, 58
2,85070, Note_on_c, 0, 70, 61
2,85128, Note_on_c, 0, 66, 0
2,85141, Note_on_c, 0, 70, 0
2,85206, Note_on_c, 0, 71, 58
2,85325, Note_on_c, 0, 50, 0
2,85343, Note_on_c, 0, 71, 0
2,85349, Note_on_c, 0, 59, 57
2,85354, Note_on_c, 0, 52, 56
2,85367, Note_on_c, 0, 79, 70
2,85474, Note_on_c, 0, 79, 0
2,85487, Note_on_c, 0, 78, 65
2,85601, Note_on_c, 0, 52, 0
2,85611, Note_on_c, 0, 59, 0
2,85628, Note_on_c, 0, 54, 57
2,85628, Note_on_c, 0, 78, 0
2,85639, Note_on_c, 0, 76, 66
2,85646, Note_on_c, 0, 58, 48
2,85692, Note_on_c, 0, 58, 0
2,85709, Note_on_c, 0, 76, 0
2,85713, Note_on_c, 0, 54, 0
2,85762, Note_on_c, 0, 74, 63
2,85881, Note_on_c, 0, 74, 0
2,85916, Note_on_c, 0, 73, 63
2,85920, Note_on_c, 0, 42, 65
2,85959, Control_c, 0, 64, 19
2,85981, Control_c, 0, 64, 18
2,85981, Note_on_c, 0, 42, 0
2,86049, Note_on_c, 0, 71, 66
2,86049, Note_on_c, 0, 73, 0
2,86073, Control_c, 0, 64, 17
2,86095, Control_c, 0, 64, 15
2,86095, Note_on_c, 0, 71, 0
2,86110, Control_c, 0, 64, 14
2,86130, Control_c, 0, 64, 13
2,86200, Note_on_c, 0, 71, 66
2,86213, Note_on_c, 0, 47, 56
2,86300, Note_on_c, 0, 47, 0
2,86324, Control_c, 0, 64, 14
2,86359, Note_on_c, 0, 54, 47
2,86363, Control_c, 0, 64, 15
2,86384, Control_c, 0, 64, 17
2,86398, Control_c, 0, 64, 18
2,86420, Note_on_c, 0, 54, 0
2,86451, Note_on_c, 0, 71, 0
2,86484, Note_on_c, 0, 59, 55
2,86484, Note_on_c, 0, 74, 62
2,86486, Note_on_c, 0, 66, 51
2,86554, Note_on_c, 0, 59, 0
2,86612, Control_c, 0, 64, 17
2,86618, Note_on_c, 0, 57, 53
2,86726, Note_on_c, 0, 57, 0
2,86741, Note_on_c, 0, 66, 0
2,86764, Note_on_c, 0, 56, 54
2,86766, Note_on_c, 0, 71, 64
2,86787, Control_c, 0, 64, 18
2,86852, Note_on_c, 0, 56, 0
2,86902, Note_on_c, 0, 54, 55
2,87000, Note_on_c, 0, 54, 0
2,87035, Note_on_c, 0, 71, 0
2,87046, Note_on_c, 0, 52, 57
2,87059, Note_on_c, 0, 68, 66
2,87110, Control_c, 0, 64, 19
2,87147, Control_c, 0, 64, 20
2,87158, Note_on_c, 0, 52, 0
2,87179, Note_on_c, 0, 54, 57
2,87286, Note_on_c, 0, 54, 0
2,87337, Note_on_c, 0, 52, 56
2,87342, Note_on_c, 0, 71, 80
2,87361, Control_c, 0, 64, 19
2,87383, Note_on_c, 0, 74, 0
2,87445, Note_on_c, 0, 52, 0
2,87473, Note_on_c, 0, 50, 57
2,87493, Control_c, 0, 64, 20
2,87513, Control_c, 0, 64, 21
2,87596, Note_on_c, 0, 50, 0
2,87616, Note_on_c, 0, 49, 59
2,87629, Note_on_c, 0, 71, 0
2,87634, Note_on_c, 0, 76, 87
2,87724, Control_c, 0, 64, 22
2,87731, Note_on_c, 0, 49, 0
2,87757, Note_on_c, 0, 47, 61
2,87895, Note_on_c, 0, 47, 0
2,87899, Note_on_c, 0, 45, 65
2,87917, Note_on_c, 0, 73, 85
2,87954, Note_on_c, 0, 76, 0
2,88011, Control_c, 0, 64, 23
2,88053, Note_on_c, 0, 47, 59
2,88057, Control_c, 0, 64, 24
2,88057, Note_on_c, 0, 45, 0
2,88064, Note_on_c, 0, 68, 0
2,88064, Note_on_c, 0, 68, 19
2,88092, Control_c, 0, 64, 25
2,88139, Note_on_c, 0, 73, 0
2,88148, Note_on_c, 0, 47, 0
2,88196, Note_on_c, 0, 78, 87
2,88199, Note_on_c, 0, 45, 65
2,88203, Note_on_c, 0, 68, 0
2,88203, Note_on_c, 0, 73, 75
2,88243, Control_c, 0, 64, 24
2,88326, Note_on_c, 0, 45, 0
2,88339, Note_on_c, 0, 44, 66
2,88474, Note_on_c, 0, 44, 0
2,88474, Note_on_c, 0, 69, 68
2,88474, Note_on_c, 0, 73, 0
2,88478, Note_on_c, 0, 75, 78
2,88478, Note_on_c, 0, 78, 0
2,88483, Note_on_c, 0, 42, 64
2,88511, Control_c, 0, 64, 23
2,88590, Note_on_c, 0, 42, 0
2,88590, Note_on_c, 0, 75, 0
2,88614, Note_on_c, 0, 40, 57
2,88746, Note_on_c, 0, 40, 0
2,88751, Note_on_c, 0, 71, 77
2,88755, Note_on_c, 0, 39, 66
2,88781, Control_c, 0, 64, 22
2,88808, Note_on_c, 0, 69, 0
2,88866, Note_on_c, 0, 39, 0
2,88871, Note_on_c, 0, 47, 62
2,88983, Note_on_c, 0, 47, 0
2,89036, Note_on_c, 0, 68, 73
2,89038, Note_on_c, 0, 52, 58
2,89139, Note_on_c, 0, 52, 0
2,89164, Note_on_c, 0, 51, 65
2,89272, Note_on_c, 0, 51, 0
2,89300, Control_c, 0, 64, 21
2,89305, Note_on_c, 0, 49, 55
2,89313, Note_on_c, 0, 63, 67
2,89417, Note_on_c, 0, 49, 0
2,89446, Note_on_c, 0, 47, 58
2,89541, Note_on_c, 0, 68, 0
2,89559, Note_on_c, 0, 63, 0
2,89576, Note_on_c, 0, 47, 0
2,89584, Note_on_c, 0, 49, 62
2,89598, Note_on_c, 0, 64, 62
2,89645, Control_c, 0, 64, 22
2,89682, Note_on_c, 0, 49, 0
2,89720, Control_c, 0, 64, 23
2,89738, Note_on_c, 0, 56, 55
2,89827, Note_on_c, 0, 56, 0
2,89852, Note_on_c, 0, 71, 0
2,89881, Note_on_c, 0, 68, 68
2,89885, Note_on_c, 0, 61, 55
2,89947, Note_on_c, 0, 61, 0
2,90009, Note_on_c, 0, 59, 58
2,90122, Note_on_c, 0, 59, 0
2,90153, Note_on_c, 0, 57, 59
2,90157, Note_on_c, 0, 68, 0
2,90164, Control_c, 0, 64, 22
2,90164, Note_on_c, 0, 73, 72
2,90259, Note_on_c, 0, 57, 0
2,90283, Note_on_c, 0, 56, 59
2,90388, Note_on_c, 0, 64, 0
2,90412, Note_on_c, 0, 56, 0
2,90440, Note_on_c, 0, 54, 54
2,90440, Note_on_c, 0, 69, 64
2,90449, Note_on_c, 0, 73, 0
2,90566, Note_on_c, 0, 54, 0
2,90583, Note_on_c, 0, 56, 54
2,90720, Note_on_c, 0, 56, 0
2,90739, Note_on_c, 0, 54, 61
2,90739, Note_on_c, 0, 61, 69
2,90817, Note_on_c, 0, 54, 0
2,90868, Note_on_c, 0, 52, 59
2,91005, Note_on_c, 0, 66, 75
2,91014, Note_on_c, 0, 51, 66
2,91016, Note_on_c, 0, 52, 0
2,91150, Note_on_c, 0, 51, 0
2,91154, Note_on_c, 0, 49, 63
2,91200, Note_on_c, 0, 61, 0
2,91220, Note_on_c, 0, 69, 0
2,91288, Note_on_c, 0, 49, 0
2,91288, Note_on_c, 0, 63, 80
2,91294, Note_on_c, 0, 47, 69
2,91348, Note_on_c, 0, 66, 0
2,91422, Note_on_c, 0, 47, 0
2,91429, Note_on_c, 0, 49, 75
2,91545, Note_on_c, 0, 49, 0
2,91563, Note_on_c, 0, 68, 79
2,91563, Note_on_c, 0, 71, 74
2,91568, Note_on_c, 0, 47, 69
2,91568, Note_on_c, 0, 63, 0
2,91700, Note_on_c, 0, 47, 0
2,91711, Note_on_c, 0, 45, 65
2,91838, Note_on_c, 0, 45, 0
2,91842, Note_on_c, 0, 44, 73
2,91842, Note_on_c, 0, 65, 76
2,91964, Note_on_c, 0, 44, 0
2,91975, Note_on_c, 0, 42, 68
2,92025, Control_c, 0, 64, 23
2,92105, Note_on_c, 0, 42, 0
2,92112, Note_on_c, 0, 68, 0
2,92122, Note_on_c, 0, 41, 70
2,92127, Note_on_c, 0, 65, 0
2,92137, Note_on_c, 0, 61, 77
2,92202, Note_on_c, 0, 41, 0
2,92264, Note_on_c, 0, 49, 61
2,92313, Control_c, 0, 64, 24
2,92344, Note_on_c, 0, 71, 0
2,92363, Note_on_c, 0, 49, 0
2,92398, Note_on_c, 0, 54, 63
2,92425, Note_on_c, 0, 69, 81
2,92427, Control_c, 0, 64, 23
2,92507, Note_on_c, 0, 54, 0
2,92531, Note_on_c, 0, 52, 61
2,92640, Note_on_c, 0, 52, 0
2,92667, Note_on_c, 0, 50, 57
2,92702, Note_on_c, 0, 65, 76
2,92787, Note_on_c, 0, 50, 0
2,92816, Note_on_c, 0, 49, 58
2,92943, Note_on_c, 0, 49, 0
2,92966, Note_on_c, 0, 61, 0
2,92974, Note_on_c, 0, 50, 48
2,92992, Note_on_c, 0, 69, 0
2,92996, Note_on_c, 0, 66, 68
2,93006, Note_on_c, 0, 65, 0
2,93080, Note_on_c, 0, 50, 0
2,93115, Note_on_c, 0, 52, 55
2,93214, Note_on_c, 0, 52, 0
2,93254, Control_c, 0, 64, 22
2,93259, Note_on_c, 0, 50, 51
2,93284, Note_on_c, 0, 57, 56
2,93358, Note_on_c, 0, 50, 0
2,93401, Note_on_c, 0, 49, 50
2,93514, Note_on_c, 0, 49, 0
2,93554, Note_on_c, 0, 57, 0
2,93570, Note_on_c, 0, 47, 46
2,93574, Note_on_c, 0, 62, 62
2,93651, Note_on_c, 0, 47, 0
2,93697, Note_on_c, 0, 45, 51
2,93812, Note_on_c, 0, 45, 0
2,93856, Note_on_c, 0, 62, 0
2,93861, Note_on_c, 0, 44, 51
2,93876, Note_on_c, 0, 59, 59
2,93952, Note_on_c, 0, 44, 0
2,93982, Note_on_c, 0, 45, 52
2,94129, Note_on_c, 0, 45, 0
2,94138, Note_on_c, 0, 66, 0
2,94146, Note_on_c, 0, 44, 55
2,94150, Note_on_c, 0, 63, 61
2,94215, Control_c, 0, 64, 21
2,94259, Note_on_c, 0, 44, 0
2,94294, Note_on_c, 0, 42, 49
2,94386, Note_on_c, 0, 42, 0
2,94432, Note_on_c, 0, 41, 51
2,94439, Note_on_c, 0, 63, 0
2,94446, Note_on_c, 0, 68, 61
2,94553, Note_on_c, 0, 41, 0
2,94600, Control_c, 0, 64, 19
2,94604, Note_on_c, 0, 39, 46
2,94618, Control_c, 0, 64, 0
2,94695, Note_on_c, 0, 39, 0
2,94701, Note_on_c, 0, 59, 0
2,94733, Note_on_c, 0, 68, 0
2,94744, Note_on_c, 0, 37, 51
2,94749, Note_on_c, 0, 65, 56
2,94770, Control_c, 0, 64, 46
2,94790, Control_c, 0, 64, 61
2,94801, Note_on_c, 0, 37, 0
2,94810, Control_c, 0, 64, 66
2,94827, Control_c, 0, 64, 70
2,94848, Control_c, 0, 64, 75
2,94866, Control_c, 0, 64, 77
2,94888, Control_c, 0, 64, 76
2,94898, Note_on_c, 0, 61, 49
2,94905, Control_c, 0, 64, 74
2,94923, Control_c, 0, 64, 69
2,94943, Control_c, 0, 64, 65
2,94954, Note_on_c, 0, 65, 0
2,94965, Control_c, 0, 64, 62
2,94983, Control_c, 0, 64, 61
2,95021, Control_c, 0, 64, 59
2,95026, Note_on_c, 0, 61, 0
2,95035, Note_on_c, 0, 45, 65
2,95039, Control_c, 0, 64, 57
2,95044, Note_on_c, 0, 57, 58
2,95059, Control_c, 0, 64, 54
2,95068, Note_on_c, 0, 63, 55
2,95079, Control_c, 0, 64, 51
2,95101, Control_c, 0, 64, 50
2,95101, Note_on_c, 0, 57, 0
2,95138, Note_on_c, 0, 63, 0
2,95155, Control_c, 0, 64, 49
2,95176, Control_c, 0, 64, 47
2,95176, Note_on_c, 0, 65, 60
2,95195, Control_c, 0, 64, 43
2,95212, Control_c, 0, 64, 39
2,95232, Control_c, 0, 64, 36
2,95280, Note_on_c, 0, 45, 0
2,95288, Control_c, 0, 64, 34
2,95310, Control_c, 0, 64, 30
2,95310, Note_on_c, 0, 50, 54
2,95317, Note_on_c, 0, 59, 64
2,95323, Note_on_c, 0, 65, 0
2,95328, Control_c, 0, 64, 20
2,95330, Note_on_c, 0, 66, 71
2,95349, Control_c, 0, 64, 11
2,95365, Control_c, 0, 64, 10
2,95450, Note_on_c, 0, 66, 0
2,95463, Note_on_c, 0, 68, 73
2,95552, Note_on_c, 0, 59, 0
2,95572, Note_on_c, 0, 68, 0
2,95609, Note_on_c, 0, 49, 64
2,95609, Note_on_c, 0, 53, 64
2,95609, Note_on_c, 0, 69, 71
2,95620, Control_c, 0, 64, 11
2,95620, Note_on_c, 0, 50, 0
2,95673, Control_c, 0, 64, 12
2,95730, Control_c, 0, 64, 13
2,95743, Note_on_c, 0, 66, 72
2,95743, Note_on_c, 0, 69, 0
2,95750, Control_c, 0, 64, 15
2,95770, Control_c, 0, 64, 16
2,95866, Control_c, 0, 64, 17
2,95885, Control_c, 0, 64, 19
2,95894, Note_on_c, 0, 68, 76
2,95901, Note_on_c, 0, 54, 85
2,95905, Control_c, 0, 64, 20
2,95905, Note_on_c, 0, 66, 0
2,95944, Control_c, 0, 64, 21
2,95951, Note_on_c, 0, 53, 0
2,95964, Control_c, 0, 64, 22
2,95981, Control_c, 0, 64, 23
2,95998, Note_on_c, 0, 68, 0
2,96030, Note_on_c, 0, 69, 70
2,96041, Note_on_c, 0, 49, 0
2,96079, Control_c, 0, 64, 24
2,96094, Control_c, 0, 64, 25
2,96115, Control_c, 0, 64, 26
2,96190, Note_on_c, 0, 51, 83
2,96199, Note_on_c, 0, 69, 0
2,96209, Note_on_c, 0, 71, 76
2,96215, Note_on_c, 0, 54, 0
2,96335, Note_on_c, 0, 71, 0
2,96343, Note_on_c, 0, 73, 78
2,96422, Control_c, 0, 64, 25
2,96482, Note_on_c, 0, 56, 81
2,96484, Note_on_c, 0, 74, 76
2,96519, Note_on_c, 0, 73, 0
2,96530, Note_on_c, 0, 51, 0
2,96556, Control_c, 0, 64, 24
2,96581, Note_on_c, 0, 74, 0
2,96600, Note_on_c, 0, 71, 78
2,96759, Note_on_c, 0, 53, 82
2,96766, Note_on_c, 0, 73, 80
2,96770, Note_on_c, 0, 71, 0
2,96779, Note_on_c, 0, 56, 0
2,96898, Note_on_c, 0, 75, 75
2,96904, Note_on_c, 0, 73, 0
2,96960, Control_c, 0, 64, 25
2,97000, Control_c, 0, 64, 26
2,97007, Note_on_c, 0, 75, 0
2,97040, Note_on_c, 0, 77, 80
2,97051, Note_on_c, 0, 57, 81
2,97084, Note_on_c, 0, 53, 0
2,97134, Control_c, 0, 64, 27
2,97182, Note_on_c, 0, 77, 0
2,97182, Note_on_c, 0, 78, 78
2,97337, Note_on_c, 0, 78, 0
2,97339, Note_on_c, 0, 54, 80
2,97366, Note_on_c, 0, 74, 72
2,97371, Note_on_c, 0, 57, 0
2,97402, Control_c, 0, 64, 28
2,97471, Note_on_c, 0, 74, 0
2,97496, Note_on_c, 0, 76, 76
2,97534, Control_c, 0, 64, 29
2,97602, Note_on_c, 0, 76, 0
2,97633, Note_on_c, 0, 59, 84
2,97635, Note_on_c, 0, 74, 68
2,97680, Note_on_c, 0, 54, 0
2,97727, Control_c, 0, 64, 28
2,97767, Note_on_c, 0, 73, 79
2,97771, Note_on_c, 0, 74, 0
2,97903, Note_on_c, 0, 56, 84
2,97912, Note_on_c, 0, 73, 0
2,97916, Note_on_c, 0, 71, 76
2,97944, Note_on_c, 0, 59, 0
2,97994, Note_on_c, 0, 71, 0
2,98050, Note_on_c, 0, 69, 70
2,98189, Note_on_c, 0, 69, 0
2,98198, Note_on_c, 0, 68, 73
2,98203, Note_on_c, 0, 61, 78
2,98226, Control_c, 0, 64, 27
2,98226, Note_on_c, 0, 56, 0
2,98319, Note_on_c, 0, 68, 0
2,98335, Note_on_c, 0, 71, 70
2,98400, Control_c, 0, 64, 28
2,98474, Note_on_c, 0, 57, 85
2,98484, Note_on_c, 0, 69, 73
2,98490, Note_on_c, 0, 71, 0
2,98516, Note_on_c, 0, 61, 0
2,98593, Control_c, 0, 64, 29
2,98593, Note_on_c, 0, 69, 0
2,98606, Note_on_c, 0, 68, 80
2,98629, Control_c, 0, 64, 30
2,98754, Note_on_c, 0, 68, 0
2,98758, Note_on_c, 0, 62, 81
2,98763, Note_on_c, 0, 66, 76
2,98787, Note_on_c, 0, 57, 0
2,98840, Note_on_c, 0, 66, 0
2,98860, Control_c, 0, 64, 31
2,98882, Note_on_c, 0, 65, 70
2,98918, Control_c, 0, 64, 32
2,98960, Control_c, 0, 64, 33
2,98960, Note_on_c, 0, 65, 0
2,99028, Note_on_c, 0, 71, 85
2,99160, Note_on_c, 0, 62, 0
2,99165, Note_on_c, 0, 64, 78
2,99228, Control_c, 0, 64, 32
2,99305, Note_on_c, 0, 62, 77
2,99310, Note_on_c, 0, 68, 86
2,99318, Note_on_c, 0, 64, 0
2,99321, Control_c, 0, 64, 31
2,99361, Control_c, 0, 64, 30
2,99418, Control_c, 0, 64, 28
2,99437, Control_c, 0, 64, 26
2,99447, Note_on_c, 0, 61, 79
2,99458, Control_c, 0, 64, 24
2,99463, Note_on_c, 0, 62, 0
2,99477, Control_c, 0, 64, 23
2,99571, Control_c, 0, 64, 22
2,99595, Note_on_c, 0, 61, 0
2,99595, Note_on_c, 0, 63, 86
2,99599, Note_on_c, 0, 59, 83
2,99649, Control_c, 0, 64, 23
2,99669, Control_c, 0, 64, 24
2,99688, Control_c, 0, 64, 25
2,99726, Note_on_c, 0, 57, 85
2,99735, Note_on_c, 0, 59, 0
2,99767, Note_on_c, 0, 68, 0
2,99804, Note_on_c, 0, 63, 0
2,99880, Note_on_c, 0, 71, 0
2,99884, Control_c, 0, 64, 23
2,99884, Note_on_c, 0, 56, 82
2,99884, Note_on_c, 0, 57, 0
2,99884, Note_on_c, 0, 65, 79
2,99900, Control_c, 0, 64, 22
2,100018, Note_on_c, 0, 69, 76
2,100074, Control_c, 0, 64, 21
2,100143, Note_on_c, 0, 65, 0
2,100156, Note_on_c, 0, 56, 0
2,100164, Note_on_c, 0, 53, 83
2,100164, Note_on_c, 0, 69, 0
2,100169, Control_c, 0, 64, 20
2,100169, Note_on_c, 0, 71, 82
2,100177, Note_on_c, 0, 61, 78
2,100298, Note_on_c, 0, 68, 76
2,100383, Note_on_c, 0, 71, 0
2,100458, Note_on_c, 0, 53, 0
2,100471, Note_on_c, 0, 54, 79
2,100471, Note_on_c, 0, 66, 86
2,100471, Note_on_c, 0, 69, 81
2,100475, Note_on_c, 0, 61, 0
2,100495, Control_c, 0, 64, 21
2,100504, Note_on_c, 0, 68, 0
2,100609, Control_c, 0, 64, 22
2,100649, Control_c, 0, 64, 23
2,100667, Control_c, 0, 64, 24
2,100687, Control_c, 0, 64, 25
2,100705, Control_c, 0, 64, 27
2,100725, Control_c, 0, 64, 29
2,100776, Note_on_c, 0, 54, 0
2,100798, Note_on_c, 0, 47, 84
2,100903, Note_on_c, 0, 69, 0
2,100931, Note_on_c, 0, 66, 0
2,100958, Note_on_c, 0, 71, 83
2,101132, Note_on_c, 0, 47, 0
2,101143, Note_on_c, 0, 68, 88
2,101149, Note_on_c, 0, 49, 79
2,101149, Note_on_c, 0, 65, 79
2,101169, Note_on_c, 0, 71, 0
2,101206, Control_c, 0, 64, 27
2,101495, Note_on_c, 0, 37, 80
2,101504, Note_on_c, 0, 49, 0
2,101530, Control_c, 0, 64, 28
2,101589, Control_c, 0, 64, 27
2,101628, Control_c, 0, 64, 28
2,101646, Control_c, 0, 64, 29
2,101665, Control_c, 0, 64, 30
2,101674, Note_on_c, 0, 66, 88
2,101687, Note_on_c, 0, 68, 0
2,101841, Note_on_c, 0, 65, 0
2,101879, Note_on_c, 0, 66, 0
2,101933, Note_on_c, 0, 42, 74
2,101950, Note_on_c, 0, 37, 0
2,101961, Note_on_c, 0, 66, 87
2,102068, Control_c, 0, 64, 31
2,102145, Control_c, 0, 64, 30
2,102261, Control_c, 0, 64, 29
2,102298, Control_c, 0, 64, 28
2,102313, Note_on_c, 0, 45, 63
2,102328, Note_on_c, 0, 42, 0
2,102350, Note_on_c, 0, 61, 51
2,102377, Control_c, 0, 64, 27
2,102513, Control_c, 0, 64, 28
2,102538, Note_on_c, 0, 66, 0
2,102591, Note_on_c, 0, 45, 0
2,102615, Note_on_c, 0, 42, 58
2,102622, Note_on_c, 0, 66, 66
2,102780, Control_c, 0, 64, 29
2,102854, Note_on_c, 0, 61, 0
2,102925, Note_on_c, 0, 49, 42
2,102930, Note_on_c, 0, 42, 0
2,102941, Note_on_c, 0, 66, 0
2,102945, Note_on_c, 0, 64, 63
2,103232, Note_on_c, 0, 56, 75
2,103523, Note_on_c, 0, 49, 0
2,103532, Note_on_c, 0, 64, 0
2,103536, Note_on_c, 0, 45, 52
2,103540, Note_on_c, 0, 56, 0
2,103545, Note_on_c, 0, 61, 61
2,103562, Note_on_c, 0, 69, 61
2,103819, Note_on_c, 0, 69, 0
2,103857, Note_on_c, 0, 45, 0
2,103857, Note_on_c, 0, 50, 57
2,103864, Note_on_c, 0, 57, 79
2,103870, Note_on_c, 0, 61, 0
2,103875, Note_on_c, 0, 66, 64
2,104153, Note_on_c, 0, 50, 0
2,104172, Note_on_c, 0, 62, 75
2,104175, Note_on_c, 0, 47, 62
2,104183, Note_on_c, 0, 66, 0
2,104183, Note_on_c, 0, 71, 74
2,104216, Note_on_c, 0, 57, 0
2,104276, Control_c, 0, 64, 28
2,104462, Note_on_c, 0, 71, 0
2,104466, Note_on_c, 0, 47, 0
2,104471, Note_on_c, 0, 52, 68
2,104482, Note_on_c, 0, 59, 82
2,104487, Note_on_c, 0, 62, 0
2,104500, Note_on_c, 0, 68, 73
2,104697, Note_on_c, 0, 59, 0
2,104782, Note_on_c, 0, 49, 64
2,104782, Note_on_c, 0, 64, 78
2,104786, Note_on_c, 0, 68, 0
2,104786, Note_on_c, 0, 73, 79
2,104802, Note_on_c, 0, 52, 0
2,105069, Note_on_c, 0, 64, 0
2,105078, Note_on_c, 0, 49, 0
2,105082, Note_on_c, 0, 61, 76
2,105088, Note_on_c, 0, 54, 68
2,105108, Note_on_c, 0, 69, 67
2,105121, Note_on_c, 0, 73, 0
2,105316, Note_on_c, 0, 61, 0
2,105372, Note_on_c, 0, 54, 0
2,105391, Note_on_c, 0, 50, 61
2,105396, Note_on_c, 0, 66, 70
2,105396, Note_on_c, 0, 69, 0
2,105400, Note_on_c, 0, 74, 70
2,105449, Control_c, 0, 64, 27
2,105647, Note_on_c, 0, 50, 0
2,105694, Note_on_c, 0, 66, 0
2,105703, Note_on_c, 0, 57, 61
2,105707, Note_on_c, 0, 64, 80
2,105758, Note_on_c, 0, 74, 0
2,105975, Note_on_c, 0, 57, 0
2,106001, Note_on_c, 0, 69, 69
2,106006, Note_on_c, 0, 45, 58
2,106006, Note_on_c, 0, 73, 73
2,106010, Note_on_c, 0, 64, 0
2,106083, Control_c, 0, 64, 28
2,106237, Note_on_c, 0, 73, 0
2,106307, Note_on_c, 0, 45, 0
2,106311, Note_on_c, 0, 69, 0
2,106317, Note_on_c, 0, 47, 56
2,106331, Control_c, 0, 64, 29
2,106331, Note_on_c, 0, 62, 70
2,106331, Note_on_c, 0, 71, 67
2,106589, Note_on_c, 0, 47, 0
2,106613, Note_on_c, 0, 49, 52
2,106621, Note_on_c, 0, 64, 68
2,106634, Note_on_c, 0, 62, 0
2,106676, Control_c, 0, 64, 30
2,106838, Note_on_c, 0, 71, 0
2,106900, Note_on_c, 0, 49, 0
2,106900, Note_on_c, 0, 64, 0
2,106926, Control_c, 0, 64, 31
2,106926, Note_on_c, 0, 69, 62
2,106935, Note_on_c, 0, 61, 57
2,106940, Note_on_c, 0, 54, 47
2,107202, Note_on_c, 0, 54, 0
2,107216, Control_c, 0, 64, 30
2,107231, Note_on_c, 0, 47, 43
2,107231, Note_on_c, 0, 61, 0
2,107245, Note_on_c, 0, 63, 56
2,107474, Note_on_c, 0, 63, 0
2,107566, Note_on_c, 0, 47, 0
2,107566, Note_on_c, 0, 52, 49
2,107566, Note_on_c, 0, 64, 47
2,107751, Control_c, 0, 64, 29
2,107820, Note_on_c, 0, 69, 0
2,107841, Note_on_c, 0, 64, 0
2,107868, Note_on_c, 0, 59, 56
2,107872, Note_on_c, 0, 68, 54
2,108000, Control_c, 0, 64, 28
2,108126, Note_on_c, 0, 59, 0
2,108138, Note_on_c, 0, 68, 0
2,108155, Note_on_c, 0, 71, 53
2,108164, Note_on_c, 0, 62, 55
2,108382, Note_on_c, 0, 52, 0
2,108427, Note_on_c, 0, 71, 0
2,108474, Note_on_c, 0, 64, 67
2,108754, Note_on_c, 0, 64, 0
2,108760, Note_on_c, 0, 62, 0
2,108776, Note_on_c, 0, 49, 72
2,108789, Note_on_c, 0, 69, 61
2,108794, Note_on_c, 0, 61, 64
2,109080, Note_on_c, 0, 54, 75
2,109087, Note_on_c, 0, 63, 76
2,109096, Note_on_c, 0, 61, 0
2,109115, Note_on_c, 0, 49, 0
2,109347, Note_on_c, 0, 69, 0
2,109376, Note_on_c, 0, 63, 0
2,109385, Note_on_c, 0, 52, 81
2,109398, Note_on_c, 0, 54, 0
2,109398, Note_on_c, 0, 68, 62
2,109402, Note_on_c, 0, 64, 67
2,109668, Note_on_c, 0, 68, 0
2,109682, Note_on_c, 0, 57, 77
2,109686, Note_on_c, 0, 73, 72
2,109690, Note_on_c, 0, 52, 0
2,109942, Note_on_c, 0, 64, 0
2,109954, Note_on_c, 0, 73, 0
2,109969, Note_on_c, 0, 54, 79
2,109976, Note_on_c, 0, 69, 65
2,109986, Note_on_c, 0, 66, 61
2,109994, Note_on_c, 0, 57, 0
2,110261, Note_on_c, 0, 54, 0
2,110265, Note_on_c, 0, 59, 80
2,110293, Note_on_c, 0, 74, 68
2,110301, Note_on_c, 0, 69, 0
2,110373, Note_on_c, 0, 66, 0
2,110562, Note_on_c, 0, 56, 76
2,110573, Control_c, 0, 64, 27
2,110591, Note_on_c, 0, 59, 0
2,110591, Note_on_c, 0, 71, 73
2,110862, Note_on_c, 0, 71, 0
2,110878, Note_on_c, 0, 61, 80
2,110882, Note_on_c, 0, 64, 72
2,110915, Note_on_c, 0, 56, 0
2,111143, Note_on_c, 0, 74, 0
2,111175, Note_on_c, 0, 57, 80
2,111175, Note_on_c, 0, 73, 70
2,111186, Note_on_c, 0, 61, 0
2,111228, Note_on_c, 0, 64, 0
2,111478, Note_on_c, 0, 62, 73
2,111478, Note_on_c, 0, 78, 69
2,111493, Note_on_c, 0, 73, 0
2,111780, Note_on_c, 0, 54, 67
2,111784, Note_on_c, 0, 62, 0
2,111791, Note_on_c, 0, 57, 0
2,111795, Note_on_c, 0, 61, 55
2,112081, Note_on_c, 0, 54, 0
2,112081, Note_on_c, 0, 61, 0
2,112094, Note_on_c, 0, 56, 65
2,112100, Note_on_c, 0, 59, 64
2,112166, Control_c, 0, 64, 26
2,112173, Note_on_c, 0, 78, 0
2,112394, Note_on_c, 0, 76, 74
2,112399, Note_on_c, 0, 52, 64
2,112399, Note_on_c, 0, 56, 0
2,112401, Note_on_c, 0, 68, 59
2,112532, Control_c, 0, 64, 25
2,112673, Note_on_c, 0, 71, 72
2,112677, Note_on_c, 0, 68, 0
2,112677, Note_on_c, 0, 76, 0
2,112684, Note_on_c, 0, 56, 65
2,112684, Note_on_c, 0, 74, 66
2,112700, Note_on_c, 0, 59, 0
2,112754, Note_on_c, 0, 52, 0
2,112937, Note_on_c, 0, 71, 0
2,112988, Note_on_c, 0, 56, 0
2,112988, Note_on_c, 0, 64, 70
2,112995, Control_c, 0, 64, 24
2,112995, Note_on_c, 0, 57, 67
2,113049, Control_c, 0, 64, 23
2,113147, Control_c, 0, 64, 22
2,113203, Control_c, 0, 64, 21
2,113241, Control_c, 0, 64, 20
2,113252, Note_on_c, 0, 74, 0
2,113289, Note_on_c, 0, 73, 63
2,113297, Note_on_c, 0, 45, 64
2,113297, Note_on_c, 0, 57, 0
2,113598, Note_on_c, 0, 45, 0
2,113598, Note_on_c, 0, 49, 67
2,113684, Control_c, 0, 64, 21
2,113702, Control_c, 0, 64, 22
2,113723, Control_c, 0, 64, 23
2,113788, Note_on_c, 0, 49, 0
2,113801, Control_c, 0, 64, 24
2,113818, Control_c, 0, 64, 25
2,113875, Control_c, 0, 64, 24
2,113897, Control_c, 0, 64, 15
2,113902, Note_on_c, 0, 38, 65
2,113906, Note_on_c, 0, 64, 0
2,113913, Control_c, 0, 64, 0
2,113934, Note_on_c, 0, 73, 0
2,114048, Control_c, 0, 64, 32
2,114066, Control_c, 0, 64, 52
2,114086, Control_c, 0, 64, 62
2,114108, Control_c, 0, 64, 65
2,114124, Control_c, 0, 64, 67
2,114145, Control_c, 0, 64, 70
2,114165, Control_c, 0, 64, 76
2,114183, Control_c, 0, 64, 82
2,114201, Control_c, 0, 64, 85
2,114223, Control_c, 0, 64, 87
2,114223, Note_on_c, 0, 71, 66
2,114234, Note_on_c, 0, 62, 62
2,114240, Control_c, 0, 64, 91
2,114249, Note_on_c, 0, 38, 0
2,114259, Control_c, 0, 64, 93
2,114279, Control_c, 0, 64, 94
2,114317, Control_c, 0, 64, 93
2,114340, Control_c, 0, 64, 90
2,114355, Control_c, 0, 64, 86
2,114376, Control_c, 0, 64, 82
2,114396, Control_c, 0, 64, 78
2,114416, Control_c, 0, 64, 76
2,114434, Control_c, 0, 64, 73
2,114452, Control_c, 0, 64, 69
2,114474, Control_c, 0, 64, 65
2,114493, Control_c, 0, 64, 62
2,114508, Control_c, 0, 64, 59
2,114515, Note_on_c, 0, 71, 0
2,114519, Note_on_c, 0, 62, 0
2,114523, Note_on_c, 0, 50, 72
2,114529, Control_c, 0, 64, 57
2,114534, Note_on_c, 0, 66, 66
2,114534, Note_on_c, 0, 69, 60
2,114609, Control_c, 0, 64, 55
2,114627, Control_c, 0, 64, 52
2,114642, Control_c, 0, 64, 48
2,114662, Control_c, 0, 64, 44
2,114682, Control_c, 0, 64, 43
2,114739, Control_c, 0, 64, 39
2,114759, Control_c, 0, 64, 31
2,114778, Control_c, 0, 64, 23
2,114796, Control_c, 0, 64, 22
2,114830, Note_on_c, 0, 59, 73
2,114855, Control_c, 0, 64, 21
2,114874, Control_c, 0, 64, 18
2,114893, Control_c, 0, 64, 17
2,114950, Control_c, 0, 64, 18
2,115085, Control_c, 0, 64, 20
2,115118, Note_on_c, 0, 69, 0
2,115131, Note_on_c, 0, 52, 64
2,115133, Note_on_c, 0, 68, 76
2,115143, Note_on_c, 0, 66, 0
2,115177, Note_on_c, 0, 50, 0
2,115403, Note_on_c, 0, 68, 0
2,115430, Note_on_c, 0, 47, 59
2,115439, Note_on_c, 0, 71, 70
2,115633, Note_on_c, 0, 71, 0
2,115691, Note_on_c, 0, 47, 0
2,115721, Note_on_c, 0, 52, 0
2,115751, Note_on_c, 0, 49, 55
2,115766, Note_on_c, 0, 76, 62
2,115814, Control_c, 0, 64, 19
2,116021, Note_on_c, 0, 59, 0
2,116063, Note_on_c, 0, 57, 75
2,116122, Control_c, 0, 64, 18
2,116217, Control_c, 0, 64, 17
2,116368, Note_on_c, 0, 61, 77
2,116409, Note_on_c, 0, 57, 0
2,116640, Note_on_c, 0, 61, 0
2,116684, Note_on_c, 0, 66, 81
2,116737, Control_c, 0, 64, 18
2,116755, Control_c, 0, 64, 23
2,116775, Control_c, 0, 64, 32
2,116797, Control_c, 0, 64, 44
2,116812, Control_c, 0, 64, 53
2,116835, Control_c, 0, 64, 57
2,116853, Control_c, 0, 64, 58
2,116976, Note_on_c, 0, 42, 68
2,116976, Note_on_c, 0, 49, 0
2,116987, Control_c, 0, 64, 57
2,117004, Control_c, 0, 64, 56
2,117044, Control_c, 0, 64, 55
2,117061, Control_c, 0, 64, 54
2,117082, Control_c, 0, 64, 53
2,117103, Control_c, 0, 64, 52
2,117138, Control_c, 0, 64, 51
2,117159, Control_c, 0, 64, 50
2,117197, Control_c, 0, 64, 49
2,117254, Control_c, 0, 64, 48
2,117276, Control_c, 0, 64, 47
2,117276, Note_on_c, 0, 47, 74
2,117290, Note_on_c, 0, 76, 0
2,117294, Control_c, 0, 64, 45
2,117298, Note_on_c, 0, 74, 70
2,117306, Note_on_c, 0, 42, 0
2,117312, Control_c, 0, 64, 44
2,117334, Control_c, 0, 64, 43
2,117372, Control_c, 0, 64, 42
2,117405, Control_c, 0, 64, 41
2,117444, Control_c, 0, 64, 40
2,117464, Control_c, 0, 64, 39
2,117577, Control_c, 0, 64, 37
2,117595, Note_on_c, 0, 44, 79
2,117595, Note_on_c, 0, 71, 76
2,117599, Control_c, 0, 64, 35
2,117615, Note_on_c, 0, 66, 0
2,117620, Control_c, 0, 64, 34
2,117642, Note_on_c, 0, 47, 0
2,117809, Control_c, 0, 64, 33
2,117867, Control_c, 0, 64, 32
2,117876, Note_on_c, 0, 74, 0
2,117885, Note_on_c, 0, 71, 0
2,117909, Control_c, 0, 64, 31
2,117909, Note_on_c, 0, 73, 71
2,117913, Note_on_c, 0, 45, 68
2,117917, Note_on_c, 0, 64, 64
2,117936, Note_on_c, 0, 44, 0
2,117983, Control_c, 0, 64, 30
2,118041, Control_c, 0, 64, 29
2,118059, Control_c, 0, 64, 28
2,118156, Control_c, 0, 64, 27
2,118176, Control_c, 0, 64, 26
2,118215, Note_on_c, 0, 69, 78
2,118281, Note_on_c, 0, 64, 0
2,118541, Control_c, 0, 64, 27
2,118545, Note_on_c, 0, 38, 74
2,118548, Note_on_c, 0, 66, 81
2,118589, Note_on_c, 0, 45, 0
2,118589, Note_on_c, 0, 69, 0
2,118712, Control_c, 0, 64, 28
2,118859, Note_on_c, 0, 50, 72
2,118870, Note_on_c, 0, 71, 81
2,118875, Note_on_c, 0, 73, 0
2,118883, Note_on_c, 0, 38, 0
2,119176, Note_on_c, 0, 74, 83
2,119362, Note_on_c, 0, 66, 0
2,119387, Note_on_c, 0, 71, 0
2,119457, Note_on_c, 0, 74, 0
2,119481, Control_c, 0, 64, 27
2,119486, Note_on_c, 0, 64, 86
2,119492, Note_on_c, 0, 68, 74
2,119671, Control_c, 0, 64, 28
2,119782, Note_on_c, 0, 76, 86
2,119787, Note_on_c, 0, 49, 65
2,119814, Note_on_c, 0, 50, 0
2,119826, Control_c, 0, 64, 27
2,119913, Note_on_c, 0, 68, 0
2,120085, Note_on_c, 0, 54, 69
2,120085, Note_on_c, 0, 73, 77
2,120090, Note_on_c, 0, 69, 84
2,120109, Note_on_c, 0, 64, 0
2,120113, Control_c, 0, 64, 28
2,120118, Note_on_c, 0, 49, 0
2,120118, Note_on_c, 0, 76, 0
2,120335, Note_on_c, 0, 73, 0
2,120344, Control_c, 0, 64, 26
2,120364, Control_c, 0, 64, 22
2,120384, Control_c, 0, 64, 16
2,120403, Control_c, 0, 64, 8
2,120403, Note_on_c, 0, 50, 60
2,120403, Note_on_c, 0, 54, 0
2,120408, Note_on_c, 0, 78, 88
2,120424, Control_c, 0, 64, 0
2,120459, Control_c, 0, 64, 22
2,120478, Control_c, 0, 64, 39
2,120497, Control_c, 0, 64, 55
2,120517, Control_c, 0, 64, 63
2,120536, Note_on_c, 0, 69, 0
2,120573, Control_c, 0, 64, 64
2,120611, Control_c, 0, 64, 63
2,120651, Control_c, 0, 64, 62
2,120669, Control_c, 0, 64, 61
2,120691, Control_c, 0, 64, 60
2,120696, Note_on_c, 0, 50, 0
2,120725, Note_on_c, 0, 52, 64
2,120725, Note_on_c, 0, 71, 88
2,120729, Note_on_c, 0, 69, 71
2,120731, Control_c, 0, 64, 59
2,120745, Note_on_c, 0, 78, 0
2,120765, Control_c, 0, 64, 58
2,120788, Control_c, 0, 64, 57
2,120808, Control_c, 0, 64, 56
2,120823, Control_c, 0, 64, 55
2,120845, Control_c, 0, 64, 54
2,120899, Control_c, 0, 64, 53
2,120995, Control_c, 0, 64, 52
2,121035, Control_c, 0, 64, 51
2,121050, Note_on_c, 0, 52, 0
2,121059, Note_on_c, 0, 40, 63
2,121068, Note_on_c, 0, 68, 83
2,121075, Control_c, 0, 64, 49
2,121094, Control_c, 0, 64, 47
2,121114, Control_c, 0, 64, 44
2,121114, Note_on_c, 0, 69, 0
2,121132, Control_c, 0, 64, 40
2,121150, Control_c, 0, 64, 37
2,121170, Control_c, 0, 64, 32
2,121189, Control_c, 0, 64, 25
2,121209, Control_c, 0, 64, 16
2,121227, Control_c, 0, 64, 11
2,121247, Control_c, 0, 64, 0
2,121379, Note_on_c, 0, 40, 0
2,121420, Note_on_c, 0, 71, 0
2,121436, Note_on_c, 0, 68, 0
2,121458, Note_on_c, 0, 45, 58
2,121458, Note_on_c, 0, 69, 72
2,121591, Control_c, 0, 64, 20
2,121610, Control_c, 0, 64, 44
2,121630, Control_c, 0, 64, 61
2,121650, Control_c, 0, 64, 65
2,121661, Note_on_c, 0, 45, 0
2,121670, Control_c, 0, 64, 66
2,121765, Control_c, 0, 64, 65
2,121785, Control_c, 0, 64, 64
2,121815, Note_on_c, 0, 76, 66
2,121824, Control_c, 0, 64, 63
2,121826, Note_on_c, 0, 45, 59
2,121879, Control_c, 0, 64, 62
2,121900, Control_c, 0, 64, 61
2,121918, Control_c, 0, 64, 60
2,121938, Control_c, 0, 64, 58
2,121942, Note_on_c, 0, 69, 0
2,121952, Note_on_c, 0, 74, 72
2,121952, Note_on_c, 0, 76, 0
2,121961, Control_c, 0, 64, 56
2,121976, Control_c, 0, 64, 54
2,122035, Control_c, 0, 64, 53
2,122052, Control_c, 0, 64, 52
2,122071, Control_c, 0, 64, 50
2,122094, Control_c, 0, 64, 48
2,122094, Note_on_c, 0, 73, 77
2,122094, Note_on_c, 0, 74, 0
2,122098, Note_on_c, 0, 50, 59
2,122103, Note_on_c, 0, 45, 0
2,122150, Control_c, 0, 64, 46
2,122167, Control_c, 0, 64, 43
2,122186, Control_c, 0, 64, 38
2,122206, Control_c, 0, 64, 35
2,122228, Control_c, 0, 64, 33
2,122228, Note_on_c, 0, 71, 75
2,122228, Note_on_c, 0, 73, 0
2,122245, Control_c, 0, 64, 32
2,122282, Control_c, 0, 64, 30
2,122301, Control_c, 0, 64, 24
2,122320, Control_c, 0, 64, 18
2,122339, Control_c, 0, 64, 15
2,122350, Note_on_c, 0, 71, 0
2,122357, Note_on_c, 0, 50, 0
2,122368, Note_on_c, 0, 49, 57
2,122372, Note_on_c, 0, 69, 66
2,122483, Note_on_c, 0, 69, 0
2,122490, Note_on_c, 0, 71, 71
2,122608, Note_on_c, 0, 71, 0
2,122648, Note_on_c, 0, 49, 0
2,122648, Note_on_c, 0, 73, 70
2,122659, Note_on_c, 0, 57, 59
2,122706, Control_c, 0, 64, 16
2,122734, Note_on_c, 0, 73, 0
2,122787, Note_on_c, 0, 69, 62
2,122925, Note_on_c, 0, 57, 0
2,122933, Note_on_c, 0, 69, 0
2,122945, Note_on_c, 0, 50, 52
2,122945, Note_on_c, 0, 67, 65
2,123045, Note_on_c, 0, 67, 0
2,123075, Note_on_c, 0, 66, 69
2,123148, Control_c, 0, 64, 17
2,123201, Note_on_c, 0, 50, 0
2,123211, Note_on_c, 0, 66, 0
2,123218, Note_on_c, 0, 59, 57
2,123227, Note_on_c, 0, 67, 69
2,123321, Note_on_c, 0, 67, 0
2,123355, Note_on_c, 0, 66, 71
2,123434, Control_c, 0, 64, 18
2,123480, Note_on_c, 0, 59, 0
2,123505, Note_on_c, 0, 66, 0
2,123511, Note_on_c, 0, 52, 55
2,123516, Note_on_c, 0, 67, 68
2,123601, Note_on_c, 0, 67, 0
2,123643, Note_on_c, 0, 71, 66
2,123704, Control_c, 0, 64, 17
2,123764, Note_on_c, 0, 71, 0
2,123778, Note_on_c, 0, 52, 0
2,123782, Control_c, 0, 64, 16
2,123787, Note_on_c, 0, 61, 52
2,123787, Note_on_c, 0, 69, 62
2,123800, Control_c, 0, 64, 14
2,123819, Control_c, 0, 64, 11
2,123839, Control_c, 0, 64, 9
2,123859, Control_c, 0, 64, 0
2,123898, Note_on_c, 0, 69, 0
2,123924, Note_on_c, 0, 67, 62
2,123987, Note_on_c, 0, 61, 0
2,124051, Note_on_c, 0, 67, 0
2,124078, Note_on_c, 0, 62, 51
2,124082, Note_on_c, 0, 66, 64
2,124189, Note_on_c, 0, 62, 0
2,124207, Note_on_c, 0, 61, 54
2,124336, Note_on_c, 0, 61, 0
2,124341, Note_on_c, 0, 66, 0
2,124359, Note_on_c, 0, 62, 72
2,124367, Note_on_c, 0, 59, 57
2,124445, Note_on_c, 0, 59, 0
2,124497, Note_on_c, 0, 57, 66
2,124620, Note_on_c, 0, 62, 0
2,124639, Note_on_c, 0, 57, 0
2,124650, Note_on_c, 0, 56, 66
2,124650, Note_on_c, 0, 69, 75
2,124774, Note_on_c, 0, 56, 0
2,124779, Note_on_c, 0, 54, 71
2,124934, Note_on_c, 0, 54, 0
2,124940, Note_on_c, 0, 52, 71
2,124947, Note_on_c, 0, 68, 88
2,124954, Note_on_c, 0, 69, 0
2,125079, Note_on_c, 0, 54, 72
2,125083, Note_on_c, 0, 52, 0
2,125240, Note_on_c, 0, 56, 68
2,125240, Note_on_c, 0, 76, 88
2,125241, Note_on_c, 0, 54, 0
2,125330, Note_on_c, 0, 68, 0
2,125365, Note_on_c, 0, 56, 0
2,125372, Note_on_c, 0, 52, 71
2,125514, Note_on_c, 0, 50, 72
2,125529, Note_on_c, 0, 52, 0
2,125533, Note_on_c, 0, 69, 86
2,125533, Note_on_c, 0, 76, 0
2,125664, Note_on_c, 0, 50, 0
2,125668, Note_on_c, 0, 49, 69
2,125811, Note_on_c, 0, 49, 0
2,125815, Note_on_c, 0, 50, 74
2,125822, Note_on_c, 0, 78, 94
2,125875, Note_on_c, 0, 69, 0
2,125970, Note_on_c, 0, 49, 74
2,125975, Note_on_c, 0, 50, 0
2,126110, Note_on_c, 0, 71, 91
2,126119, Note_on_c, 0, 50, 74
2,126132, Note_on_c, 0, 49, 0
2,126177, Note_on_c, 0, 78, 0
2,126260, Note_on_c, 0, 54, 74
2,126264, Note_on_c, 0, 50, 0
2,126393, Note_on_c, 0, 74, 21
2,126402, Note_on_c, 0, 54, 0
2,126402, Note_on_c, 0, 80, 89
2,126413, Note_on_c, 0, 52, 70
2,126453, Note_on_c, 0, 71, 0
2,126456, Note_on_c, 0, 74, 0
2,126549, Note_on_c, 0, 50, 73
2,126549, Note_on_c, 0, 52, 0
2,126695, Note_on_c, 0, 49, 68
2,126697, Note_on_c, 0, 81, 88
2,126703, Note_on_c, 0, 50, 0
2,126754, Note_on_c, 0, 80, 0
2,126819, Note_on_c, 0, 49, 0
2,126837, Note_on_c, 0, 47, 75
2,126987, Note_on_c, 0, 45, 69
2,126992, Note_on_c, 0, 47, 0
2,126996, Note_on_c, 0, 73, 81
2,127001, Note_on_c, 0, 76, 87
2,127009, Note_on_c, 0, 81, 0
2,127113, Note_on_c, 0, 45, 0
2,127132, Note_on_c, 0, 47, 71
2,127275, Note_on_c, 0, 47, 0
2,127284, Note_on_c, 0, 49, 68
2,127418, Note_on_c, 0, 49, 0
2,127442, Note_on_c, 0, 45, 60
2,127580, Note_on_c, 0, 50, 71
2,127596, Note_on_c, 0, 45, 0
2,127711, Note_on_c, 0, 50, 0
2,127722, Note_on_c, 0, 49, 69
2,127742, Note_on_c, 0, 73, 0
2,127865, Note_on_c, 0, 49, 0
2,127869, Note_on_c, 0, 50, 68
2,127891, Note_on_c, 0, 71, 74
2,127896, Note_on_c, 0, 74, 77
2,127916, Note_on_c, 0, 76, 0
2,127999, Note_on_c, 0, 50, 0
2,128014, Note_on_c, 0, 52, 67
2,128161, Note_on_c, 0, 74, 0
2,128168, Note_on_c, 0, 52, 0
2,128168, Note_on_c, 0, 78, 83
2,128174, Note_on_c, 0, 49, 60
2,128179, Note_on_c, 0, 69, 71
2,128194, Note_on_c, 0, 71, 0
2,128315, Note_on_c, 0, 49, 0
2,128321, Note_on_c, 0, 50, 64
2,128353, Note_on_c, 0, 78, 0
2,128455, Note_on_c, 0, 50, 0
2,128467, Note_on_c, 0, 71, 80
2,128476, Note_on_c, 0, 52, 61
2,128614, Note_on_c, 0, 52, 0
2,128629, Note_on_c, 0, 50, 63
2,128715, Note_on_c, 0, 69, 0
2,128753, Note_on_c, 0, 50, 0
2,128767, Note_on_c, 0, 52, 63
2,128767, Note_on_c, 0, 68, 76
2,128892, Note_on_c, 0, 52, 0
2,128892, Note_on_c, 0, 54, 62
2,129003, Note_on_c, 0, 54, 0
2,129057, Note_on_c, 0, 50, 57
2,129057, Note_on_c, 0, 68, 0
2,129071, Note_on_c, 0, 64, 71
2,129166, Note_on_c, 0, 50, 0
2,129188, Note_on_c, 0, 52, 65
2,129328, Note_on_c, 0, 52, 0
2,129335, Note_on_c, 0, 64, 0
2,129343, Note_on_c, 0, 54, 60
2,129365, Note_on_c, 0, 61, 69
2,129465, Note_on_c, 0, 54, 0
2,129485, Control_c, 0, 64, 8
2,129489, Note_on_c, 0, 56, 59
2,129503, Control_c, 0, 64, 9
2,129524, Control_c, 0, 64, 10
2,129561, Note_on_c, 0, 71, 0
2,129592, Note_on_c, 0, 61, 0
2,129601, Control_c, 0, 64, 11
2,129631, Note_on_c, 0, 56, 0
2,129635, Note_on_c, 0, 54, 60
2,129638, Control_c, 0, 64, 12
2,129659, Note_on_c, 0, 69, 70
2,129663, Note_on_c, 0, 62, 64
2,129696, Control_c, 0, 64, 11
2,129734, Control_c, 0, 64, 10
2,129759, Note_on_c, 0, 54, 0
2,129786, Note_on_c, 0, 52, 58
2,129922, Note_on_c, 0, 52, 0
2,129927, Control_c, 0, 64, 11
2,129932, Note_on_c, 0, 69, 0
2,129943, Note_on_c, 0, 50, 61
2,129943, Note_on_c, 0, 62, 0
2,129956, Note_on_c, 0, 67, 61
2,129963, Note_on_c, 0, 64, 68
2,130063, Note_on_c, 0, 50, 0
2,130082, Control_c, 0, 64, 12
2,130087, Note_on_c, 0, 49, 57
2,130229, Note_on_c, 0, 67, 0
2,130234, Note_on_c, 0, 49, 0
2,130249, Note_on_c, 0, 50, 55
2,130260, Note_on_c, 0, 66, 64
2,130368, Note_on_c, 0, 50, 0
2,130399, Note_on_c, 0, 52, 58
2,130463, Note_on_c, 0, 64, 0
2,130520, Note_on_c, 0, 52, 0
2,130551, Note_on_c, 0, 50, 57
2,130551, Note_on_c, 0, 57, 68
2,130577, Control_c, 0, 64, 13
2,130665, Note_on_c, 0, 50, 0
2,130682, Note_on_c, 0, 49, 58
2,130787, Note_on_c, 0, 49, 0
2,130834, Note_on_c, 0, 57, 0
2,130838, Note_on_c, 0, 47, 55
2,130838, Note_on_c, 0, 62, 77
2,130965, Note_on_c, 0, 47, 0
2,130981, Note_on_c, 0, 45, 54
2,131107, Note_on_c, 0, 45, 0
2,131130, Note_on_c, 0, 44, 60
2,131141, Note_on_c, 0, 71, 68
2,131253, Note_on_c, 0, 44, 0
2,131272, Note_on_c, 0, 62, 0
2,131279, Note_on_c, 0, 47, 58
2,131290, Control_c, 0, 64, 12
2,131380, Note_on_c, 0, 71, 0
2,131384, Control_c, 0, 64, 11
2,131407, Note_on_c, 0, 47, 0
2,131420, Note_on_c, 0, 45, 63
2,131446, Note_on_c, 0, 61, 69
2,131446, Note_on_c, 0, 64, 69
2,131451, Note_on_c, 0, 66, 0
2,131482, Control_c, 0, 64, 10
2,131555, Note_on_c, 0, 45, 0
2,131571, Note_on_c, 0, 44, 66
2,131596, Control_c, 0, 64, 9
2,131693, Control_c, 0, 64, 8
2,131707, Note_on_c, 0, 44, 0
2,131716, Control_c, 0, 64, 0
2,131723, Note_on_c, 0, 42, 65
2,131725, Note_on_c, 0, 69, 70
2,131727, Note_on_c, 0, 64, 0
2,131877, Note_on_c, 0, 42, 0
2,131883, Note_on_c, 0, 40, 57
2,132026, Note_on_c, 0, 42, 62
2,132032, Note_on_c, 0, 69, 0
2,132041, Note_on_c, 0, 62, 71
2,132067, Note_on_c, 0, 40, 0
2,132169, Note_on_c, 0, 42, 0
2,132185, Note_on_c, 0, 45, 60
2,132304, Control_c, 0, 64, 8
2,132348, Control_c, 0, 64, 9
2,132348, Note_on_c, 0, 44, 70
2,132348, Note_on_c, 0, 59, 74
2,132353, Note_on_c, 0, 45, 0
2,132421, Control_c, 0, 64, 10
2,132458, Note_on_c, 0, 61, 0
2,132460, Note_on_c, 0, 62, 0
2,132492, Note_on_c, 0, 42, 68
2,132498, Note_on_c, 0, 44, 0
2,132518, Control_c, 0, 64, 11
2,132637, Note_on_c, 0, 42, 0
2,132655, Note_on_c, 0, 40, 67
2,132660, Note_on_c, 0, 62, 79
2,132671, Control_c, 0, 64, 12
2,132689, Control_c, 0, 64, 13
2,132709, Note_on_c, 0, 59, 0
2,132713, Control_c, 0, 64, 14
2,132801, Note_on_c, 0, 38, 69
2,132801, Note_on_c, 0, 40, 0
2,132938, Control_c, 0, 64, 13
2,132971, Note_on_c, 0, 38, 0
2,132984, Note_on_c, 0, 37, 68
2,133003, Note_on_c, 0, 56, 81
2,133048, Note_on_c, 0, 37, 0
2,133053, Control_c, 0, 64, 14
2,133112, Control_c, 0, 64, 15
2,133174, Note_on_c, 0, 48, 69
2,133281, Note_on_c, 0, 48, 0
2,133324, Control_c, 0, 64, 16
2,133376, Note_on_c, 0, 50, 72
2,133376, Note_on_c, 0, 62, 0
2,133376, Note_on_c, 0, 64, 84
2,133383, Control_c, 0, 64, 15
2,133383, Note_on_c, 0, 61, 71
2,133392, Note_on_c, 0, 56, 0
2,133422, Control_c, 0, 64, 14
2,133457, Control_c, 0, 64, 13
2,133527, Note_on_c, 0, 50, 0
2,133543, Note_on_c, 0, 52, 76
2,133663, Note_on_c, 0, 61, 0
2,133725, Control_c, 0, 64, 14
2,133745, Note_on_c, 0, 69, 79
2,133750, Note_on_c, 0, 54, 75
2,133771, Note_on_c, 0, 52, 0
2,133780, Note_on_c, 0, 61, 72
2,133784, Control_c, 0, 64, 13
2,133893, Note_on_c, 0, 64, 0
2,133898, Control_c, 0, 64, 14
2,133916, Control_c, 0, 64, 15
2,133949, Note_on_c, 0, 56, 77
2,133953, Note_on_c, 0, 54, 0
2,134051, Control_c, 0, 64, 13
2,134162, Note_on_c, 0, 57, 75
2,134171, Note_on_c, 0, 56, 0
2,134179, Note_on_c, 0, 66, 82
2,134203, Note_on_c, 0, 69, 0
2,134208, Control_c, 0, 64, 11
2,134341, Control_c, 0, 64, 12
2,134378, Note_on_c, 0, 57, 0
2,134404, Note_on_c, 0, 50, 71
2,134439, Control_c, 0, 64, 11
2,134474, Control_c, 0, 64, 10
2,134493, Control_c, 0, 64, 9
2,134552, Control_c, 0, 64, 8
2,134570, Control_c, 0, 64, 0
2,134675, Note_on_c, 0, 50, 0
2,134679, Note_on_c, 0, 66, 0
2,134679, Note_on_c, 0, 69, 78
2,134681, Note_on_c, 0, 59, 78
2,134684, Note_on_c, 0, 52, 68
2,134733, Note_on_c, 0, 61, 0
2,135274, Note_on_c, 0, 68, 79
2,135276, Note_on_c, 0, 40, 63
2,135280, Note_on_c, 0, 52, 0
2,135352, Note_on_c, 0, 69, 0
2,136177, Note_on_c, 0, 45, 57
2,136177, Note_on_c, 0, 61, 61
2,136177, Note_on_c, 0, 69, 71
2,136181, Note_on_c, 0, 40, 0
2,136185, Note_on_c, 0, 59, 0
2,136229, Note_on_c, 0, 68, 0
2,137251, Control_c, 0, 64, 8
2,137272, Control_c, 0, 64, 10
2,137291, Control_c, 0, 64, 12
2,137309, Control_c, 0, 64, 16
2,137329, Control_c, 0, 64, 20
2,137347, Control_c, 0, 64, 23
2,137368, Control_c, 0, 64, 27
2,137389, Control_c, 0, 64, 29
2,137405, Control_c, 0, 64, 31
2,137426, Control_c, 0, 64, 34
2,137444, Control_c, 0, 64, 37
2,137464, Control_c, 0, 64, 40
2,137482, Control_c, 0, 64, 45
2,137501, Control_c, 0, 64, 49
2,137521, Control_c, 0, 64, 51
2,137579, Control_c, 0, 64, 52
2,137655, Control_c, 0, 64, 51
2,137692, Control_c, 0, 64, 52
2,137733, Control_c, 0, 64, 53
2,137769, Control_c, 0, 64, 54
2,137790, Control_c, 0, 64, 55
2,137848, Control_c, 0, 64, 57
2,137866, Control_c, 0, 64, 58
2,137888, Control_c, 0, 64, 59
2,137905, Control_c, 0, 64, 60
2,137924, Control_c, 0, 64, 61
2,137942, Control_c, 0, 64, 62
2,137981, Control_c, 0, 64, 63
2,138003, Control_c, 0, 64, 64
2,138021, Control_c, 0, 64, 65
2,138040, Control_c, 0, 64, 66
2,138057, Control_c, 0, 64, 67
2,138134, Control_c, 0, 64, 66
2,138231, Control_c, 0, 64, 65
2,138365, Control_c, 0, 64, 64
2,138503, Control_c, 0, 64, 63
2,138558, Control_c, 0, 64, 62
2,138694, Note_on_c, 0, 61, 0
2,138711, Control_c, 0, 64, 61
2,138727, Note_on_c, 0, 69, 0
2,138742, Note_on_c, 0, 45, 0
2,138752, Control_c, 0, 64, 60
2,138770, Control_c, 0, 64, 59
2,138826, Control_c, 0, 64, 58
2,138904, Control_c, 0, 64, 57
2,138943, Control_c, 0, 64, 56
2,139019, Control_c, 0, 64, 55
2,139057, Control_c, 0, 64, 54
2,139075, Control_c, 0, 64, 53
2,139137, Control_c, 0, 64, 52
2,139171, Control_c, 0, 64, 51
2,139460, Control_c, 0, 64, 50
2,139461, End_track
0, 0, End_of_file
