0, 0, Header, 1, 2, 480
1, 0, Start_track
1, 0, Tempo, 500000
1, 0, Time_signature, 4, 2, 24, 8
1, 1, End_track
2, 0, Start_track
2, 0, Program_c, 0, 0
2, 0, Control_c, 0, 64, 0
2, 0, Control_c, 0, 67, 0
2, 974, Note_on_c, 0, 69, 67
2, 987, Note_on_c, 0, 45, 49
2, 1089, Note_on_c, 0, 69, 0
2, 1110, Note_on_c, 0, 71, 78
2, 1209, Note_on_c, 0, 71, 0
2, 1255, Note_on_c, 0, 73, 86
2, 1312, Note_on_c, 0, 45, 0
2, 1331, Note_on_c, 0, 73, 0
2, 1388, Note_on_c, 0, 69, 71
2, 1495, Note_on_c, 0, 69, 0
2, 1544, Note_on_c, 0, 57, 58
2, 1551, Note_on_c, 0, 78, 81
2, 1633, Note_on_c, 0, 78, 0
2, 1861, Note_on_c, 0, 78, 81
2, 1932, Note_on_c, 0, 78, 0
2, 2136, Note_on_c, 0, 57, 0
2, 2184, Note_on_c, 0, 56, 46
2, 2184, Note_on_c, 0, 78, 71
2, 2325, Note_on_c, 0, 75, 68
2, 2341, Note_on_c, 0, 78, 0
2, 2414, Note_on_c, 0, 75, 0
2, 2480, Note_on_c, 0, 76, 67
2, 2775, Note_on_c, 0, 56, 0
2, 2792, Note_on_c, 0, 55, 60
2, 2826, Note_on_c, 0, 76, 0
2, 2952, Note_on_c, 0, 76, 87
2, 3060, Note_on_c, 0, 76, 0
2, 3102, Note_on_c, 0, 78, 92
2, 3105, Note_on_c, 0, 64, 61
2, 3196, Note_on_c, 0, 78, 0
2, 3247, Note_on_c, 0, 79, 95
2, 3343, Note_on_c, 0, 79, 0
2, 3387, Note_on_c, 0, 55, 0
2, 3406, Note_on_c, 0, 54, 61
2, 3408, Note_on_c, 0, 81, 87
2, 3565, Note_on_c, 0, 79, 88
2, 3577, Note_on_c, 0, 81, 0
2, 3684, Note_on_c, 0, 64, 0
2, 3709, Note_on_c, 0, 57, 68
2, 3709, Note_on_c, 0, 78, 92
2, 3717, Note_on_c, 0, 79, 0
2, 3761, Note_on_c, 0, 57, 0
2, 3833, Note_on_c, 0, 78, 0
2, 3853, Note_on_c, 0, 81, 82
2, 3955, Note_on_c, 0, 81, 0
2, 3990, Note_on_c, 0, 54, 0
2, 4009, Note_on_c, 0, 59, 63
2, 4018, Note_on_c, 0, 74, 87
2, 4130, Note_on_c, 0, 74, 0
2, 4150, Note_on_c, 0, 73, 89
2, 4256, Note_on_c, 0, 73, 0
2, 4304, Note_on_c, 0, 71, 84
2, 4313, Note_on_c, 0, 62, 56
2, 4379, Note_on_c, 0, 71, 0
2, 4447, Note_on_c, 0, 81, 78
2, 4584, Note_on_c, 0, 59, 0
2, 4601, Note_on_c, 0, 52, 46
2, 4610, Note_on_c, 0, 80, 76
2, 4643, Note_on_c, 0, 81, 0
2, 4751, Note_on_c, 0, 78, 84
2, 4763, Note_on_c, 0, 80, 0
2, 4904, Note_on_c, 0, 78, 0
2, 4908, Note_on_c, 0, 56, 58
2, 4908, Note_on_c, 0, 76, 85
2, 4913, Note_on_c, 0, 62, 0
2, 4953, Note_on_c, 0, 56, 0
2, 5010, Note_on_c, 0, 76, 0
2, 5033, Note_on_c, 0, 80, 82
2, 5181, Note_on_c, 0, 52, 0
2, 5181, Note_on_c, 0, 80, 0
2, 5203, Note_on_c, 0, 73, 81
2, 5211, Note_on_c, 0, 57, 55
2, 5346, Note_on_c, 0, 71, 79
2, 5353, Note_on_c, 0, 73, 0
2, 5447, Note_on_c, 0, 71, 0
2, 5490, Note_on_c, 0, 61, 51
2, 5496, Note_on_c, 0, 69, 72
2, 5588, Note_on_c, 0, 69, 0
2, 5648, Note_on_c, 0, 79, 76
2, 5731, Note_on_c, 0, 57, 0
2, 5808, Note_on_c, 0, 50, 47
2, 5821, Note_on_c, 0, 78, 74
2, 5826, Note_on_c, 0, 79, 0
2, 5877, Note_on_c, 0, 61, 0
2, 5957, Note_on_c, 0, 78, 0
2, 5962, Note_on_c, 0, 76, 80
2, 6096, Note_on_c, 0, 76, 0
2, 6115, Note_on_c, 0, 50, 0
2, 6120, Note_on_c, 0, 74, 80
2, 6129, Note_on_c, 0, 59, 61
2, 6209, Note_on_c, 0, 59, 0
2, 6233, Note_on_c, 0, 74, 0
2, 6251, Note_on_c, 0, 78, 82
2, 6267, Note_on_c, 0, 57, 61
2, 6358, Note_on_c, 0, 57, 0
2, 6380, Note_on_c, 0, 78, 0
2, 6386, Note_on_c, 0, 56, 57
2, 6406, Note_on_c, 0, 71, 76
2, 6418, Note_on_c, 0, 52, 61
2, 6439, Note_on_c, 0, 56, 0
2, 6454, Note_on_c, 0, 57, 57
2, 6484, Note_on_c, 0, 71, 0
2, 6538, Note_on_c, 0, 57, 0
2, 6543, Note_on_c, 0, 78, 70
2, 6556, Note_on_c, 0, 56, 52
2, 6647, Note_on_c, 0, 56, 0
2, 6685, Note_on_c, 0, 78, 0
2, 6705, Note_on_c, 0, 76, 75
2, 6810, Note_on_c, 0, 52, 0
2, 6814, Note_on_c, 0, 76, 0
2, 6832, Note_on_c, 0, 56, 62
2, 6852, Note_on_c, 0, 74, 68
2, 6883, Note_on_c, 0, 56, 0
2, 6984, Note_on_c, 0, 74, 0
2, 7004, Note_on_c, 0, 45, 66
2, 7008, Note_on_c, 0, 57, 65
2, 7022, Note_on_c, 0, 73, 73
2, 7084, Note_on_c, 0, 57, 0
2, 7131, Note_on_c, 0, 73, 0
2, 7153, Note_on_c, 0, 71, 76
2, 7264, Note_on_c, 0, 71, 0
2, 7297, Note_on_c, 0, 45, 0
2, 7302, Note_on_c, 0, 69, 80
2, 7306, Note_on_c, 0, 57, 78
2, 7427, Note_on_c, 0, 69, 0
2, 7432, Note_on_c, 0, 71, 83
2, 7579, Note_on_c, 0, 71, 0
2, 7592, Note_on_c, 0, 57, 0
2, 7592, Note_on_c, 0, 73, 90
2, 7596, Note_on_c, 0, 56, 74
2, 7717, Note_on_c, 0, 73, 0
2, 7724, Note_on_c, 0, 75, 84
2, 7858, Note_on_c, 0, 75, 0
2, 7888, Note_on_c, 0, 54, 77
2, 7888, Note_on_c, 0, 56, 0
2, 7888, Note_on_c, 0, 76, 91
2, 8028, Note_on_c, 0, 78, 89
2, 8048, Note_on_c, 0, 76, 0
2, 8148, Note_on_c, 0, 54, 0
2, 8153, Note_on_c, 0, 78, 0
2, 8189, Note_on_c, 0, 80, 90
2, 8195, Note_on_c, 0, 52, 83
2, 8308, Note_on_c, 0, 80, 0
2, 8326, Note_on_c, 0, 81, 83
2, 8339, Note_on_c, 0, 54, 77
2, 8341, Note_on_c, 0, 52, 0
2, 8458, Note_on_c, 0, 81, 0
2, 8484, Note_on_c, 0, 56, 85
2, 8486, Note_on_c, 0, 54, 0
2, 8491, Note_on_c, 0, 83, 79
2, 8623, Note_on_c, 0, 56, 0
2, 8628, Note_on_c, 0, 52, 84
2, 8628, Note_on_c, 0, 80, 84
2, 8632, Note_on_c, 0, 83, 0
2, 8764, Note_on_c, 0, 52, 0
2, 8764, Note_on_c, 0, 80, 0
2, 8780, Note_on_c, 0, 61, 82
2, 8796, Note_on_c, 0, 76, 83
2, 8847, Note_on_c, 0, 61, 0
2, 8935, Note_on_c, 0, 78, 73
2, 8977, Note_on_c, 0, 76, 0
2, 9082, Note_on_c, 0, 78, 0
2, 9095, Note_on_c, 0, 61, 78
2, 9102, Note_on_c, 0, 80, 76
2, 9141, Note_on_c, 0, 61, 0
2, 9228, Note_on_c, 0, 76, 77
2, 9347, Note_on_c, 0, 76, 0
2, 9351, Note_on_c, 0, 80, 0
2, 9391, Note_on_c, 0, 61, 69
2, 9398, Note_on_c, 0, 78, 74
2, 9404, Note_on_c, 0, 75, 68
2, 9486, Note_on_c, 0, 61, 0
2, 9521, Note_on_c, 0, 78, 0
2, 9539, Note_on_c, 0, 58, 66
2, 9543, Note_on_c, 0, 80, 67
2, 9644, Note_on_c, 0, 58, 0
2, 9661, Note_on_c, 0, 80, 0
2, 9700, Note_on_c, 0, 59, 61
2, 9708, Note_on_c, 0, 81, 69
2, 9738, Note_on_c, 0, 75, 0
2, 9845, Note_on_c, 0, 81, 0
2, 9857, Note_on_c, 0, 78, 81
2, 10012, Note_on_c, 0, 71, 76
2, 10012, Note_on_c, 0, 74, 78
2, 10038, Note_on_c, 0, 59, 0
2, 10168, Note_on_c, 0, 59, 84
2, 10232, Note_on_c, 0, 78, 0
2, 10248, Note_on_c, 0, 74, 0
2, 10324, Note_on_c, 0, 59, 0
2, 10324, Note_on_c, 0, 61, 74
2, 10333, Note_on_c, 0, 83, 83
2, 10465, Note_on_c, 0, 61, 0
2, 10474, Note_on_c, 0, 62, 71
2, 10590, Note_on_c, 0, 71, 0
2, 10609, Note_on_c, 0, 62, 0
2, 10641, Note_on_c, 0, 64, 61
2, 10652, Note_on_c, 0, 73, 68
2, 10775, Note_on_c, 0, 64, 0
2, 10784, Note_on_c, 0, 62, 60
2, 10924, Note_on_c, 0, 62, 0
2, 10948, Note_on_c, 0, 61, 58
2, 10955, Note_on_c, 0, 76, 72
2, 10959, Note_on_c, 0, 83, 0
2, 11065, Note_on_c, 0, 61, 0
2, 11086, Note_on_c, 0, 73, 0
2, 11102, Note_on_c, 0, 64, 65
2, 11115, Note_on_c, 0, 76, 0
2, 11250, Note_on_c, 0, 64, 0
2, 11261, Note_on_c, 0, 57, 67
2, 11265, Note_on_c, 0, 78, 82
2, 11382, Note_on_c, 0, 57, 0
2, 11398, Note_on_c, 0, 56, 71
2, 11547, Note_on_c, 0, 54, 70
2, 11549, Note_on_c, 0, 56, 0
2, 11570, Note_on_c, 0, 81, 70
2, 11680, Note_on_c, 0, 54, 0
2, 11709, Note_on_c, 0, 64, 72
2, 11826, Note_on_c, 0, 78, 0
2, 11858, Note_on_c, 0, 64, 0
2, 11862, Note_on_c, 0, 63, 73
2, 11884, Note_on_c, 0, 71, 51
2, 12009, Note_on_c, 0, 61, 68
2, 12009, Note_on_c, 0, 63, 0
2, 12162, Note_on_c, 0, 61, 0
2, 12181, Note_on_c, 0, 59, 68
2, 12195, Note_on_c, 0, 75, 60
2, 12210, Note_on_c, 0, 81, 0
2, 12279, Note_on_c, 0, 59, 0
2, 12318, Note_on_c, 0, 63, 66
2, 12388, Note_on_c, 0, 75, 0
2, 12481, Note_on_c, 0, 63, 0
2, 12488, Note_on_c, 0, 56, 66
2, 12490, Note_on_c, 0, 71, 0
2, 12495, Note_on_c, 0, 76, 69
2, 12618, Note_on_c, 0, 56, 0
2, 12636, Note_on_c, 0, 54, 66
2, 12774, Note_on_c, 0, 54, 0
2, 12792, Note_on_c, 0, 52, 69
2, 12816, Note_on_c, 0, 80, 62
2, 12904, Note_on_c, 0, 52, 0
2, 12948, Note_on_c, 0, 62, 64
2, 13080, Note_on_c, 0, 80, 0
2, 13091, Note_on_c, 0, 62, 0
2, 13098, Note_on_c, 0, 61, 64
2, 13119, Note_on_c, 0, 81, 57
2, 13244, Note_on_c, 0, 59, 75
2, 13244, Note_on_c, 0, 61, 0
2, 13259, Note_on_c, 0, 81, 0
2, 13264, Note_on_c, 0, 80, 68
2, 13331, Note_on_c, 0, 76, 0
2, 13382, Note_on_c, 0, 59, 0
2, 13391, Note_on_c, 0, 57, 80
2, 13412, Note_on_c, 0, 78, 78
2, 13412, Note_on_c, 0, 80, 0
2, 13520, Note_on_c, 0, 57, 0
2, 13535, Note_on_c, 0, 61, 73
2, 13556, Note_on_c, 0, 78, 0
2, 13556, Note_on_c, 0, 81, 76
2, 13679, Note_on_c, 0, 61, 0
2, 13690, Note_on_c, 0, 81, 0
2, 13701, Note_on_c, 0, 54, 73
2, 13701, Note_on_c, 0, 75, 82
2, 13836, Note_on_c, 0, 61, 66
2, 13843, Note_on_c, 0, 81, 73
2, 13847, Note_on_c, 0, 54, 0
2, 13971, Note_on_c, 0, 61, 0
2, 13993, Note_on_c, 0, 80, 78
2, 14000, Note_on_c, 0, 59, 69
2, 14136, Note_on_c, 0, 59, 0
2, 14140, Note_on_c, 0, 57, 71
2, 14140, Note_on_c, 0, 78, 83
2, 14140, Note_on_c, 0, 81, 0
2, 14149, Note_on_c, 0, 75, 0
2, 14182, Note_on_c, 0, 80, 0
2, 14256, Note_on_c, 0, 78, 0
2, 14281, Note_on_c, 0, 57, 0
2, 14294, Note_on_c, 0, 56, 66
2, 14312, Note_on_c, 0, 76, 77
2, 14409, Note_on_c, 0, 56, 0
2, 14437, Note_on_c, 0, 54, 67
2, 14589, Note_on_c, 0, 54, 0
2, 14607, Note_on_c, 0, 52, 68
2, 14636, Note_on_c, 0, 71, 57
2, 14739, Note_on_c, 0, 52, 0
2, 14746, Note_on_c, 0, 54, 68
2, 14851, Note_on_c, 0, 76, 0
2, 14909, Note_on_c, 0, 56, 73
2, 14913, Note_on_c, 0, 54, 0
2, 14955, Note_on_c, 0, 76, 75
2, 14964, Note_on_c, 0, 71, 0
2, 15051, Note_on_c, 0, 57, 76
2, 15058, Note_on_c, 0, 56, 0
2, 15176, Note_on_c, 0, 76, 0
2, 15185, Note_on_c, 0, 57, 0
2, 15212, Note_on_c, 0, 59, 76
2, 15232, Note_on_c, 0, 79, 91
2, 15249, Note_on_c, 0, 76, 72
2, 15354, Note_on_c, 0, 59, 0
2, 15365, Note_on_c, 0, 61, 73
2, 15456, Note_on_c, 0, 76, 0
2, 15456, Note_on_c, 0, 79, 0
2, 15515, Note_on_c, 0, 61, 0
2, 15525, Note_on_c, 0, 62, 74
2, 15530, Note_on_c, 0, 79, 74
2, 15539, Note_on_c, 0, 76, 74
2, 15635, Note_on_c, 0, 62, 0
2, 15675, Note_on_c, 0, 64, 65
2, 15814, Note_on_c, 0, 64, 0
2, 15823, Note_on_c, 0, 76, 0
2, 15847, Note_on_c, 0, 66, 63
2, 15847, Note_on_c, 0, 79, 0
2, 15858, Note_on_c, 0, 78, 67
2, 15869, Note_on_c, 0, 74, 53
2, 15976, Note_on_c, 0, 66, 0
2, 15994, Note_on_c, 0, 62, 65
2, 16088, Note_on_c, 0, 74, 0
2, 16132, Note_on_c, 0, 78, 0
2, 16135, Note_on_c, 0, 62, 0
2, 16154, Note_on_c, 0, 59, 74
2, 16298, Note_on_c, 0, 59, 0
2, 16299, Note_on_c, 0, 61, 66
2, 16436, Note_on_c, 0, 61, 0
2, 16456, Note_on_c, 0, 78, 70
2, 16458, Note_on_c, 0, 62, 63
2, 16469, Note_on_c, 0, 74, 59
2, 16525, Note_on_c, 0, 74, 0
2, 16543, Note_on_c, 0, 78, 0
2, 16563, Note_on_c, 0, 62, 0
2, 16597, Note_on_c, 0, 59, 66
2, 16746, Note_on_c, 0, 59, 0
2, 16763, Note_on_c, 0, 61, 55
2, 16772, Note_on_c, 0, 78, 68
2, 16784, Note_on_c, 0, 74, 56
2, 16880, Note_on_c, 0, 61, 0
2, 16909, Note_on_c, 0, 62, 55
2, 17035, Note_on_c, 0, 62, 0
2, 17072, Note_on_c, 0, 74, 0
2, 17077, Note_on_c, 0, 64, 56
2, 17081, Note_on_c, 0, 78, 0
2, 17103, Note_on_c, 0, 73, 60
2, 17103, Note_on_c, 0, 76, 60
2, 17179, Note_on_c, 0, 64, 0
2, 17222, Note_on_c, 0, 61, 55
2, 17337, Note_on_c, 0, 76, 0
2, 17357, Note_on_c, 0, 73, 0
2, 17371, Note_on_c, 0, 61, 0
2, 17392, Note_on_c, 0, 57, 66
2, 17524, Note_on_c, 0, 59, 71
2, 17528, Note_on_c, 0, 57, 0
2, 17667, Note_on_c, 0, 59, 0
2, 17688, Note_on_c, 0, 61, 63
2, 17688, Note_on_c, 0, 76, 76
2, 17698, Note_on_c, 0, 73, 74
2, 17763, Note_on_c, 0, 76, 0
2, 17772, Note_on_c, 0, 73, 0
2, 17822, Note_on_c, 0, 61, 0
2, 17842, Note_on_c, 0, 57, 68
2, 18000, Note_on_c, 0, 59, 65
2, 18004, Note_on_c, 0, 76, 77
2, 18019, Note_on_c, 0, 57, 0
2, 18023, Note_on_c, 0, 73, 70
2, 18127, Note_on_c, 0, 59, 0
2, 18142, Note_on_c, 0, 61, 56
2, 18281, Note_on_c, 0, 61, 0
2, 18310, Note_on_c, 0, 73, 0
2, 18314, Note_on_c, 0, 62, 59
2, 18325, Note_on_c, 0, 74, 62
2, 18330, Note_on_c, 0, 76, 0
2, 18352, Note_on_c, 0, 71, 49
2, 18455, Note_on_c, 0, 62, 0
2, 18464, Note_on_c, 0, 59, 65
2, 18521, Note_on_c, 0, 71, 0
2, 18584, Note_on_c, 0, 74, 0
2, 18605, Note_on_c, 0, 59, 0
2, 18621, Note_on_c, 0, 56, 73
2, 18761, Note_on_c, 0, 57, 79
2, 18765, Note_on_c, 0, 56, 0
2, 18908, Note_on_c, 0, 57, 0
2, 18923, Note_on_c, 0, 59, 78
2, 18938, Note_on_c, 0, 74, 85
2, 19069, Note_on_c, 0, 59, 0
2, 19078, Note_on_c, 0, 56, 81
2, 19156, Note_on_c, 0, 56, 0
2, 19200, Note_on_c, 0, 74, 0
2, 19245, Note_on_c, 0, 57, 84
2, 19258, Note_on_c, 0, 74, 80
2, 19391, Note_on_c, 0, 59, 80
2, 19550, Note_on_c, 0, 57, 0
2, 19555, Note_on_c, 0, 61, 75
2, 19559, Note_on_c, 0, 73, 89
2, 19570, Note_on_c, 0, 59, 0
2, 19581, Note_on_c, 0, 74, 0
2, 19697, Note_on_c, 0, 57, 77
2, 19701, Note_on_c, 0, 61, 0
2, 19828, Note_on_c, 0, 73, 0
2, 19859, Note_on_c, 0, 66, 78
2, 19868, Note_on_c, 0, 81, 82
2, 19992, Note_on_c, 0, 57, 0
2, 19992, Note_on_c, 0, 66, 0
2, 19996, Note_on_c, 0, 61, 72
2, 20123, Note_on_c, 0, 61, 0
2, 20149, Note_on_c, 0, 66, 76
2, 20153, Note_on_c, 0, 57, 74
2, 20270, Note_on_c, 0, 66, 0
2, 20303, Note_on_c, 0, 54, 78
2, 20328, Note_on_c, 0, 57, 0
2, 20386, Note_on_c, 0, 54, 0
2, 20465, Note_on_c, 0, 66, 71
2, 20472, Note_on_c, 0, 80, 79
2, 20476, Note_on_c, 0, 61, 72
2, 20516, Note_on_c, 0, 81, 0
2, 20619, Note_on_c, 0, 63, 76
2, 20619, Note_on_c, 0, 66, 0
2, 20745, Note_on_c, 0, 63, 0
2, 20785, Note_on_c, 0, 64, 79
2, 20998, Note_on_c, 0, 80, 0
2, 21089, Note_on_c, 0, 79, 84
2, 21153, Note_on_c, 0, 61, 0
2, 21175, Note_on_c, 0, 64, 0
2, 21247, Note_on_c, 0, 64, 79
2, 21388, Note_on_c, 0, 64, 0
2, 21393, Note_on_c, 0, 66, 85
2, 21526, Note_on_c, 0, 67, 82
2, 21535, Note_on_c, 0, 66, 0
2, 21695, Note_on_c, 0, 67, 0
2, 21708, Note_on_c, 0, 69, 72
2, 21708, Note_on_c, 0, 78, 83
2, 21735, Note_on_c, 0, 79, 0
2, 21844, Note_on_c, 0, 67, 71
2, 21909, Note_on_c, 0, 69, 0
2, 22005, Note_on_c, 0, 67, 0
2, 22013, Note_on_c, 0, 66, 74
2, 22018, Note_on_c, 0, 57, 77
2, 22153, Note_on_c, 0, 66, 0
2, 22159, Note_on_c, 0, 69, 75
2, 22268, Note_on_c, 0, 78, 0
2, 22304, Note_on_c, 0, 57, 0
2, 22304, Note_on_c, 0, 69, 0
2, 22317, Note_on_c, 0, 62, 77
2, 22328, Note_on_c, 0, 83, 84
2, 22452, Note_on_c, 0, 62, 0
2, 22463, Note_on_c, 0, 61, 72
2, 22602, Note_on_c, 0, 61, 0
2, 22614, Note_on_c, 0, 62, 77
2, 22627, Note_on_c, 0, 59, 72
2, 22696, Note_on_c, 0, 83, 0
2, 22760, Note_on_c, 0, 69, 74
2, 22880, Note_on_c, 0, 59, 0
2, 22898, Note_on_c, 0, 69, 0
2, 22945, Note_on_c, 0, 68, 78
2, 22945, Note_on_c, 0, 76, 83
2, 22983, Note_on_c, 0, 62, 0
2, 23079, Note_on_c, 0, 66, 76
2, 23090, Note_on_c, 0, 68, 0
2, 23217, Note_on_c, 0, 66, 0
2, 23243, Note_on_c, 0, 64, 76
2, 23257, Note_on_c, 0, 56, 72
2, 23380, Note_on_c, 0, 64, 0
2, 23397, Note_on_c, 0, 68, 75
2, 23452, Note_on_c, 0, 76, 0
2, 23543, Note_on_c, 0, 68, 0
2, 23554, Note_on_c, 0, 56, 0
2, 23554, Note_on_c, 0, 81, 76
2, 23558, Note_on_c, 0, 61, 66
2, 23679, Note_on_c, 0, 61, 0
2, 23706, Note_on_c, 0, 59, 68
2, 23844, Note_on_c, 0, 59, 0
2, 23855, Note_on_c, 0, 61, 67
2, 23874, Note_on_c, 0, 57, 67
2, 23940, Note_on_c, 0, 61, 0
2, 24011, Note_on_c, 0, 67, 74
2, 24142, Note_on_c, 0, 67, 0
2, 24151, Note_on_c, 0, 57, 0
2, 24169, Note_on_c, 0, 66, 68
2, 24178, Note_on_c, 0, 62, 60
2, 24276, Note_on_c, 0, 66, 0
2, 24283, Note_on_c, 0, 62, 0
2, 24313, Note_on_c, 0, 64, 71
2, 24463, Note_on_c, 0, 64, 0
2, 24478, Note_on_c, 0, 62, 64
2, 24484, Note_on_c, 0, 59, 63
2, 24577, Note_on_c, 0, 62, 0
2, 24580, Note_on_c, 0, 59, 0
2, 24619, Note_on_c, 0, 66, 76
2, 24774, Note_on_c, 0, 59, 59
2, 24774, Note_on_c, 0, 66, 0
2, 24788, Note_on_c, 0, 80, 75
2, 24812, Note_on_c, 0, 81, 0
2, 24880, Note_on_c, 0, 59, 0
2, 24921, Note_on_c, 0, 66, 70
2, 25010, Note_on_c, 0, 66, 0
2, 25091, Note_on_c, 0, 52, 63
2, 25091, Note_on_c, 0, 64, 75
2, 25118, Note_on_c, 0, 52, 0
2, 25168, Note_on_c, 0, 64, 0
2, 25233, Note_on_c, 0, 62, 68
2, 25362, Note_on_c, 0, 62, 0
2, 25397, Note_on_c, 0, 57, 56
2, 25397, Note_on_c, 0, 61, 52
2, 25499, Note_on_c, 0, 57, 0
2, 25564, Note_on_c, 0, 78, 77
2, 25570, Note_on_c, 0, 80, 0
2, 25712, Note_on_c, 0, 56, 60
2, 25717, Note_on_c, 0, 78, 0
2, 25719, Note_on_c, 0, 77, 84
2, 25781, Note_on_c, 0, 56, 0
2, 25861, Note_on_c, 0, 77, 0
2, 25865, Note_on_c, 0, 80, 87
2, 26010, Note_on_c, 0, 78, 86
2, 26021, Note_on_c, 0, 80, 0
2, 26026, Note_on_c, 0, 57, 59
2, 26085, Note_on_c, 0, 57, 0
2, 26172, Note_on_c, 0, 76, 64
2, 26300, Note_on_c, 0, 76, 0
2, 26322, Note_on_c, 0, 54, 50
2, 26336, Note_on_c, 0, 74, 52
2, 26389, Note_on_c, 0, 54, 0
2, 26407, Note_on_c, 0, 74, 0
2, 26477, Note_on_c, 0, 73, 66
2, 26587, Note_on_c, 0, 73, 0
2, 26622, Note_on_c, 0, 56, 51
2, 26626, Note_on_c, 0, 71, 60
2, 26647, Note_on_c, 0, 61, 0
2, 26672, Note_on_c, 0, 56, 0
2, 26705, Note_on_c, 0, 71, 0
2, 26761, Note_on_c, 0, 69, 56
2, 26888, Note_on_c, 0, 69, 0
2, 26930, Note_on_c, 0, 68, 67
2, 26935, Note_on_c, 0, 78, 0
2, 26943, Note_on_c, 0, 59, 52
2, 26987, Note_on_c, 0, 59, 0
2, 27076, Note_on_c, 0, 68, 0
2, 27080, Note_on_c, 0, 71, 66
2, 27193, Note_on_c, 0, 71, 0
2, 27242, Note_on_c, 0, 61, 46
2, 27242, Note_on_c, 0, 77, 70
2, 27305, Note_on_c, 0, 61, 0
2, 27401, Note_on_c, 0, 74, 56
2, 27461, Note_on_c, 0, 74, 0
2, 27551, Note_on_c, 0, 49, 49
2, 27569, Note_on_c, 0, 73, 60
2, 27597, Note_on_c, 0, 49, 0
2, 27634, Note_on_c, 0, 73, 0
2, 27698, Note_on_c, 0, 71, 66
2, 27737, Note_on_c, 0, 71, 0
2, 27813, Note_on_c, 0, 77, 0
2, 27865, Note_on_c, 0, 69, 67
2, 27865, Note_on_c, 0, 78, 76
2, 27873, Note_on_c, 0, 54, 59
2, 27912, Note_on_c, 0, 54, 0
2, 28002, Note_on_c, 0, 80, 76
2, 28013, Note_on_c, 0, 78, 0
2, 28173, Note_on_c, 0, 42, 54
2, 28173, Note_on_c, 0, 81, 78
2, 28210, Note_on_c, 0, 42, 0
2, 28215, Note_on_c, 0, 80, 0
2, 28320, Note_on_c, 0, 81, 0
2, 28323, Note_on_c, 0, 78, 79
2, 28396, Note_on_c, 0, 78, 0
2, 28491, Note_on_c, 0, 54, 53
2, 28491, Note_on_c, 0, 74, 68
2, 28642, Note_on_c, 0, 73, 69
2, 28649, Note_on_c, 0, 74, 0
2, 28684, Note_on_c, 0, 69, 0
2, 28735, Note_on_c, 0, 73, 0
2, 28810, Note_on_c, 0, 74, 71
2, 28819, Note_on_c, 0, 71, 62
2, 28936, Note_on_c, 0, 71, 0
2, 28963, Note_on_c, 0, 69, 63
2, 29015, Note_on_c, 0, 74, 0
2, 29074, Note_on_c, 0, 69, 0
2, 29080, Note_on_c, 0, 54, 0
2, 29113, Note_on_c, 0, 53, 50
2, 29122, Note_on_c, 0, 74, 65
2, 29163, Note_on_c, 0, 68, 51
2, 29257, Note_on_c, 0, 74, 0
2, 29272, Note_on_c, 0, 72, 69
2, 29365, Note_on_c, 0, 72, 0
2, 29437, Note_on_c, 0, 73, 62
2, 29595, Note_on_c, 0, 56, 48
2, 29644, Note_on_c, 0, 68, 0
2, 29723, Note_on_c, 0, 53, 0
2, 29728, Note_on_c, 0, 56, 0
2, 29759, Note_on_c, 0, 61, 54
2, 29777, Note_on_c, 0, 52, 47
2, 29788, Note_on_c, 0, 73, 0
2, 29896, Note_on_c, 0, 73, 76
2, 30030, Note_on_c, 0, 73, 0
2, 30060, Note_on_c, 0, 74, 80
2, 30176, Note_on_c, 0, 74, 0
2, 30208, Note_on_c, 0, 76, 71
2, 30346, Note_on_c, 0, 52, 0
2, 30350, Note_on_c, 0, 76, 0
2, 30363, Note_on_c, 0, 51, 46
2, 30381, Note_on_c, 0, 78, 64
2, 30530, Note_on_c, 0, 76, 67
2, 30542, Note_on_c, 0, 78, 0
2, 30661, Note_on_c, 0, 54, 60
2, 30666, Note_on_c, 0, 76, 0
2, 30668, Note_on_c, 0, 61, 0
2, 30679, Note_on_c, 0, 75, 73
2, 30717, Note_on_c, 0, 54, 0
2, 30787, Note_on_c, 0, 75, 0
2, 30812, Note_on_c, 0, 78, 79
2, 30974, Note_on_c, 0, 51, 0
2, 30978, Note_on_c, 0, 56, 62
2, 30985, Note_on_c, 0, 71, 79
2, 30985, Note_on_c, 0, 78, 0
2, 31124, Note_on_c, 0, 69, 81
2, 31128, Note_on_c, 0, 71, 0
2, 31250, Note_on_c, 0, 69, 0
2, 31286, Note_on_c, 0, 68, 86
2, 31295, Note_on_c, 0, 59, 58
2, 31396, Note_on_c, 0, 68, 0
2, 31432, Note_on_c, 0, 78, 88
2, 31597, Note_on_c, 0, 77, 85
2, 31601, Note_on_c, 0, 49, 57
2, 31610, Note_on_c, 0, 56, 0
2, 31754, Note_on_c, 0, 75, 84
2, 31759, Note_on_c, 0, 78, 0
2, 31768, Note_on_c, 0, 77, 0
2, 31888, Note_on_c, 0, 75, 0
2, 31900, Note_on_c, 0, 53, 65
2, 31904, Note_on_c, 0, 73, 91
2, 31960, Note_on_c, 0, 53, 0
2, 31960, Note_on_c, 0, 59, 0
2, 32040, Note_on_c, 0, 73, 0
2, 32058, Note_on_c, 0, 83, 84
2, 32225, Note_on_c, 0, 49, 0
2, 32227, Note_on_c, 0, 54, 59
2, 32227, Note_on_c, 0, 81, 81
2, 32270, Note_on_c, 0, 83, 0
2, 32374, Note_on_c, 0, 80, 85
2, 32408, Note_on_c, 0, 81, 0
2, 32525, Note_on_c, 0, 57, 61
2, 32537, Note_on_c, 0, 78, 87
2, 32551, Note_on_c, 0, 80, 0
2, 32688, Note_on_c, 0, 78, 0
2, 32689, Note_on_c, 0, 77, 90
2, 32818, Note_on_c, 0, 54, 0
2, 32844, Note_on_c, 0, 50, 56
2, 32847, Note_on_c, 0, 78, 88
2, 32855, Note_on_c, 0, 57, 0
2, 32878, Note_on_c, 0, 77, 0
2, 32990, Note_on_c, 0, 78, 0
2, 32997, Note_on_c, 0, 77, 94
2, 33109, Note_on_c, 0, 50, 0
2, 33145, Note_on_c, 0, 47, 55
2, 33149, Note_on_c, 0, 56, 61
2, 33149, Note_on_c, 0, 78, 87
2, 33202, Note_on_c, 0, 77, 0
2, 33228, Note_on_c, 0, 47, 0
2, 33270, Note_on_c, 0, 56, 0
2, 33287, Note_on_c, 0, 54, 63
2, 33287, Note_on_c, 0, 80, 90
2, 33306, Note_on_c, 0, 78, 0
2, 33407, Note_on_c, 0, 80, 0
2, 33435, Note_on_c, 0, 54, 0
2, 33453, Note_on_c, 0, 81, 75
2, 33457, Note_on_c, 0, 53, 61
2, 33464, Note_on_c, 0, 49, 57
2, 33546, Note_on_c, 0, 80, 81
2, 33546, Note_on_c, 0, 81, 0
2, 33603, Note_on_c, 0, 80, 0
2, 33610, Note_on_c, 0, 81, 74
2, 33682, Note_on_c, 0, 80, 73
2, 33685, Note_on_c, 0, 81, 0
2, 33733, Note_on_c, 0, 80, 0
2, 33744, Note_on_c, 0, 81, 68
2, 33783, Note_on_c, 0, 59, 60
2, 33799, Note_on_c, 0, 80, 80
2, 33837, Note_on_c, 0, 81, 0
2, 33866, Note_on_c, 0, 59, 0
2, 33944, Note_on_c, 0, 78, 86
2, 33962, Note_on_c, 0, 80, 0
2, 34020, Note_on_c, 0, 78, 0
2, 34054, Note_on_c, 0, 53, 0
2, 34085, Note_on_c, 0, 49, 0
2, 34112, Note_on_c, 0, 54, 43
2, 34123, Note_on_c, 0, 78, 68
2, 34135, Note_on_c, 0, 57, 44
2, 34284, Note_on_c, 0, 74, 62
2, 34396, Note_on_c, 0, 74, 0
2, 34425, Note_on_c, 0, 57, 0
2, 34438, Note_on_c, 0, 73, 67
2, 34565, Note_on_c, 0, 54, 0
2, 34569, Note_on_c, 0, 73, 0
2, 34596, Note_on_c, 0, 71, 66
2, 34755, Note_on_c, 0, 69, 53
2, 34769, Note_on_c, 0, 71, 0
2, 34826, Note_on_c, 0, 78, 0
2, 34894, Note_on_c, 0, 69, 0
2, 34902, Note_on_c, 0, 68, 64
2, 35027, Note_on_c, 0, 68, 0
2, 35065, Note_on_c, 0, 66, 58
2, 35074, Note_on_c, 0, 81, 71
2, 35147, Note_on_c, 0, 81, 0
2, 35159, Note_on_c, 0, 66, 0
2, 35214, Note_on_c, 0, 64, 53
2, 35355, Note_on_c, 0, 64, 0
2, 35377, Note_on_c, 0, 63, 55
2, 35395, Note_on_c, 0, 81, 64
2, 35501, Note_on_c, 0, 63, 0
2, 35542, Note_on_c, 0, 61, 46
2, 35664, Note_on_c, 0, 61, 0
2, 35700, Note_on_c, 0, 81, 0
2, 35706, Note_on_c, 0, 80, 59
2, 35717, Note_on_c, 0, 59, 49
2, 35839, Note_on_c, 0, 59, 0
2, 35862, Note_on_c, 0, 57, 61
2, 35990, Note_on_c, 0, 57, 0
2, 36012, Note_on_c, 0, 56, 66
2, 36041, Note_on_c, 0, 80, 0
2, 36124, Note_on_c, 0, 56, 0
2, 36156, Note_on_c, 0, 54, 63
2, 36273, Note_on_c, 0, 54, 0
2, 36305, Note_on_c, 0, 52, 61
2, 36309, Note_on_c, 0, 80, 69
2, 36339, Note_on_c, 0, 76, 56
2, 36404, Note_on_c, 0, 52, 0
2, 36450, Note_on_c, 0, 58, 57
2, 36538, Note_on_c, 0, 80, 0
2, 36565, Note_on_c, 0, 58, 0
2, 36571, Note_on_c, 0, 76, 0
2, 36627, Note_on_c, 0, 47, 49
2, 36632, Note_on_c, 0, 80, 60
2, 36785, Note_on_c, 0, 76, 57
2, 36919, Note_on_c, 0, 76, 0
2, 36950, Note_on_c, 0, 78, 74
2, 36954, Note_on_c, 0, 80, 0
2, 36963, Note_on_c, 0, 75, 56
2, 37084, Note_on_c, 0, 47, 0
2, 37084, Note_on_c, 0, 75, 0
2, 37102, Note_on_c, 0, 73, 82
2, 37249, Note_on_c, 0, 73, 0
2, 37258, Note_on_c, 0, 71, 81
2, 37271, Note_on_c, 0, 78, 0
2, 37401, Note_on_c, 0, 69, 74
2, 37423, Note_on_c, 0, 71, 0
2, 37553, Note_on_c, 0, 83, 90
2, 37561, Note_on_c, 0, 68, 80
2, 37566, Note_on_c, 0, 69, 0
2, 37630, Note_on_c, 0, 83, 0
2, 37686, Note_on_c, 0, 68, 0
2, 37704, Note_on_c, 0, 66, 78
2, 37846, Note_on_c, 0, 66, 0
2, 37871, Note_on_c, 0, 64, 72
2, 37871, Note_on_c, 0, 83, 87
2, 38024, Note_on_c, 0, 63, 64
2, 38028, Note_on_c, 0, 64, 0
2, 38167, Note_on_c, 0, 63, 0
2, 38180, Note_on_c, 0, 81, 66
2, 38184, Note_on_c, 0, 61, 58
2, 38220, Note_on_c, 0, 83, 0
2, 38328, Note_on_c, 0, 61, 0
2, 38341, Note_on_c, 0, 59, 71
2, 38485, Note_on_c, 0, 59, 0
2, 38490, Note_on_c, 0, 57, 79
2, 38627, Note_on_c, 0, 56, 77
2, 38634, Note_on_c, 0, 57, 0
2, 38669, Note_on_c, 0, 81, 0
2, 38774, Note_on_c, 0, 54, 75
2, 38783, Note_on_c, 0, 81, 79
2, 38788, Note_on_c, 0, 56, 0
2, 38796, Note_on_c, 0, 78, 84
2, 38901, Note_on_c, 0, 54, 0
2, 38930, Note_on_c, 0, 63, 75
2, 39035, Note_on_c, 0, 81, 0
2, 39091, Note_on_c, 0, 63, 0
2, 39097, Note_on_c, 0, 52, 62
2, 39102, Note_on_c, 0, 78, 0
2, 39112, Note_on_c, 0, 81, 71
2, 39247, Note_on_c, 0, 78, 68
2, 39377, Note_on_c, 0, 78, 0
2, 39382, Note_on_c, 0, 81, 0
2, 39406, Note_on_c, 0, 80, 70
2, 39413, Note_on_c, 0, 76, 57
2, 39517, Note_on_c, 0, 76, 0
2, 39561, Note_on_c, 0, 74, 67
2, 39706, Note_on_c, 0, 74, 0
2, 39715, Note_on_c, 0, 80, 0
2, 39719, Note_on_c, 0, 73, 80
2, 39857, Note_on_c, 0, 71, 86
2, 39871, Note_on_c, 0, 73, 0
2, 39905, Note_on_c, 0, 52, 0
2, 40002, Note_on_c, 0, 71, 0
2, 40027, Note_on_c, 0, 76, 84
2, 40029, Note_on_c, 0, 69, 70
2, 40148, Note_on_c, 0, 69, 0
2, 40167, Note_on_c, 0, 68, 81
2, 40198, Note_on_c, 0, 76, 0
2, 40266, Note_on_c, 0, 68, 0
2, 40328, Note_on_c, 0, 76, 86
2, 40337, Note_on_c, 0, 66, 72
2, 40478, Note_on_c, 0, 76, 0
2, 40493, Note_on_c, 0, 64, 69
2, 40647, Note_on_c, 0, 64, 0
2, 40656, Note_on_c, 0, 69, 68
2, 40664, Note_on_c, 0, 62, 68
2, 40800, Note_on_c, 0, 62, 0
2, 40800, Note_on_c, 0, 69, 0
2, 40809, Note_on_c, 0, 61, 64
2, 40950, Note_on_c, 0, 61, 0
2, 40976, Note_on_c, 0, 59, 69
2, 40981, Note_on_c, 0, 74, 80
2, 41002, Note_on_c, 0, 66, 0
2, 41124, Note_on_c, 0, 57, 78
2, 41128, Note_on_c, 0, 59, 0
2, 41148, Note_on_c, 0, 74, 0
2, 41282, Note_on_c, 0, 56, 75
2, 41283, Note_on_c, 0, 74, 85
2, 41286, Note_on_c, 0, 57, 0
2, 41290, Note_on_c, 0, 71, 83
2, 41417, Note_on_c, 0, 56, 0
2, 41433, Note_on_c, 0, 59, 80
2, 41535, Note_on_c, 0, 74, 0
2, 41542, Note_on_c, 0, 71, 0
2, 41546, Note_on_c, 0, 59, 0
2, 41607, Note_on_c, 0, 45, 81
2, 41611, Note_on_c, 0, 74, 76
2, 41620, Note_on_c, 0, 71, 82
2, 41763, Note_on_c, 0, 47, 80
2, 41787, Note_on_c, 0, 45, 0
2, 41874, Note_on_c, 0, 74, 0
2, 41909, Note_on_c, 0, 49, 83
2, 41913, Note_on_c, 0, 73, 82
2, 41924, Note_on_c, 0, 47, 0
2, 41929, Note_on_c, 0, 64, 69
2, 41929, Note_on_c, 0, 71, 0
2, 42041, Note_on_c, 0, 49, 0
2, 42057, Note_on_c, 0, 45, 77
2, 42200, Note_on_c, 0, 64, 0
2, 42204, Note_on_c, 0, 45, 0
2, 42213, Note_on_c, 0, 54, 88
2, 42230, Note_on_c, 0, 69, 73
2, 42286, Note_on_c, 0, 54, 0
2, 42288, Note_on_c, 0, 73, 0
2, 42383, Note_on_c, 0, 76, 72
2, 42530, Note_on_c, 0, 54, 87
2, 42554, Note_on_c, 0, 74, 74
2, 42585, Note_on_c, 0, 76, 0
2, 42592, Note_on_c, 0, 54, 0
2, 42690, Note_on_c, 0, 73, 74
2, 42694, Note_on_c, 0, 74, 0
2, 42768, Note_on_c, 0, 73, 0
2, 42801, Note_on_c, 0, 69, 0
2, 42844, Note_on_c, 0, 54, 76
2, 42853, Note_on_c, 0, 68, 81
2, 42859, Note_on_c, 0, 71, 78
2, 42935, Note_on_c, 0, 54, 0
2, 42975, Note_on_c, 0, 51, 78
2, 42982, Note_on_c, 0, 71, 0
2, 43008, Note_on_c, 0, 73, 73
2, 43131, Note_on_c, 0, 51, 0
2, 43144, Note_on_c, 0, 52, 74
2, 43176, Note_on_c, 0, 73, 0
2, 43176, Note_on_c, 0, 74, 75
2, 43237, Note_on_c, 0, 68, 0
2, 43313, Note_on_c, 0, 74, 0
2, 43324, Note_on_c, 0, 71, 74
2, 43471, Note_on_c, 0, 64, 79
2, 43479, Note_on_c, 0, 67, 74
2, 43513, Note_on_c, 0, 52, 0
2, 43627, Note_on_c, 0, 52, 80
2, 43703, Note_on_c, 0, 67, 0
2, 43753, Note_on_c, 0, 71, 0
2, 43785, Note_on_c, 0, 54, 78
2, 43790, Note_on_c, 0, 76, 87
2, 43799, Note_on_c, 0, 52, 0
2, 43939, Note_on_c, 0, 54, 0
2, 43941, Note_on_c, 0, 55, 72
2, 44087, Note_on_c, 0, 64, 0
2, 44100, Note_on_c, 0, 55, 0
2, 44107, Note_on_c, 0, 66, 66
2, 44111, Note_on_c, 0, 57, 70
2, 44262, Note_on_c, 0, 55, 62
2, 44276, Note_on_c, 0, 57, 0
2, 44416, Note_on_c, 0, 55, 0
2, 44429, Note_on_c, 0, 54, 64
2, 44436, Note_on_c, 0, 69, 68
2, 44440, Note_on_c, 0, 76, 0
2, 44561, Note_on_c, 0, 54, 0
2, 44581, Note_on_c, 0, 57, 69
2, 44641, Note_on_c, 0, 66, 0
2, 44648, Note_on_c, 0, 69, 0
2, 44750, Note_on_c, 0, 50, 68
2, 44753, Note_on_c, 0, 57, 0
2, 44762, Note_on_c, 0, 71, 80
2, 44877, Note_on_c, 0, 50, 0
2, 44888, Note_on_c, 0, 49, 70
2, 45034, Note_on_c, 0, 49, 0
2, 45065, Note_on_c, 0, 47, 71
2, 45065, Note_on_c, 0, 74, 78
2, 45194, Note_on_c, 0, 47, 0
2, 45223, Note_on_c, 0, 57, 63
2, 45342, Note_on_c, 0, 71, 0
2, 45372, Note_on_c, 0, 57, 0
2, 45386, Note_on_c, 0, 56, 66
2, 45402, Note_on_c, 0, 64, 62
2, 45542, Note_on_c, 0, 54, 65
2, 45546, Note_on_c, 0, 56, 0
2, 45700, Note_on_c, 0, 54, 0
2, 45715, Note_on_c, 0, 68, 68
2, 45719, Note_on_c, 0, 52, 64
2, 45816, Note_on_c, 0, 52, 0
2, 45839, Note_on_c, 0, 74, 0
2, 45852, Note_on_c, 0, 56, 59
2, 45938, Note_on_c, 0, 68, 0
2, 46022, Note_on_c, 0, 56, 0
2, 46024, Note_on_c, 0, 64, 0
2, 46029, Note_on_c, 0, 49, 58
2, 46031, Note_on_c, 0, 69, 65
2, 46162, Note_on_c, 0, 49, 0
2, 46186, Note_on_c, 0, 47, 61
2, 46302, Note_on_c, 0, 47, 0
2, 46351, Note_on_c, 0, 45, 64
2, 46351, Note_on_c, 0, 73, 67
2, 46480, Note_on_c, 0, 45, 0
2, 46511, Note_on_c, 0, 55, 59
2, 46652, Note_on_c, 0, 73, 0
2, 46661, Note_on_c, 0, 55, 0
2, 46666, Note_on_c, 0, 54, 62
2, 46679, Note_on_c, 0, 74, 57
2, 46814, Note_on_c, 0, 52, 72
2, 46826, Note_on_c, 0, 54, 0
2, 46826, Note_on_c, 0, 74, 0
2, 46830, Note_on_c, 0, 73, 70
2, 46910, Note_on_c, 0, 69, 0
2, 46967, Note_on_c, 0, 52, 0
2, 46974, Note_on_c, 0, 50, 74
2, 46986, Note_on_c, 0, 73, 0
2, 46993, Note_on_c, 0, 71, 76
2, 47115, Note_on_c, 0, 50, 0
2, 47129, Note_on_c, 0, 54, 73
2, 47138, Note_on_c, 0, 73, 80
2, 47144, Note_on_c, 0, 71, 0
2, 47265, Note_on_c, 0, 73, 0
2, 47287, Note_on_c, 0, 54, 0
2, 47291, Note_on_c, 0, 47, 73
2, 47291, Note_on_c, 0, 68, 88
2, 47296, Note_on_c, 0, 74, 78
2, 47429, Note_on_c, 0, 74, 0
2, 47443, Note_on_c, 0, 47, 0
2, 47443, Note_on_c, 0, 54, 68
2, 47443, Note_on_c, 0, 73, 85
2, 47592, Note_on_c, 0, 54, 0
2, 47597, Note_on_c, 0, 74, 84
2, 47599, Note_on_c, 0, 52, 73
2, 47615, Note_on_c, 0, 73, 0
2, 47741, Note_on_c, 0, 52, 0
2, 47743, Note_on_c, 0, 50, 74
2, 47747, Note_on_c, 0, 76, 88
2, 47766, Note_on_c, 0, 68, 0
2, 47766, Note_on_c, 0, 74, 0
2, 47853, Note_on_c, 0, 76, 0
2, 47896, Note_on_c, 0, 69, 87
2, 47900, Note_on_c, 0, 49, 74
2, 47909, Note_on_c, 0, 50, 0
2, 48031, Note_on_c, 0, 49, 0
2, 48048, Note_on_c, 0, 71, 88
2, 48055, Note_on_c, 0, 47, 78
2, 48063, Note_on_c, 0, 69, 0
2, 48184, Note_on_c, 0, 47, 0
2, 48202, Note_on_c, 0, 45, 79
2, 48202, Note_on_c, 0, 73, 95
2, 48210, Note_on_c, 0, 71, 0
2, 48309, Note_on_c, 0, 73, 0
2, 48344, Note_on_c, 0, 69, 81
2, 48355, Note_on_c, 0, 49, 75
2, 48379, Note_on_c, 0, 45, 0
2, 48496, Note_on_c, 0, 69, 0
2, 48513, Note_on_c, 0, 57, 78
2, 48517, Note_on_c, 0, 49, 0
2, 48517, Note_on_c, 0, 50, 75
2, 48521, Note_on_c, 0, 78, 91
2, 48620, Note_on_c, 0, 78, 0
2, 48659, Note_on_c, 0, 50, 0
2, 48663, Note_on_c, 0, 52, 76
2, 48829, Note_on_c, 0, 50, 72
2, 48834, Note_on_c, 0, 78, 93
2, 48838, Note_on_c, 0, 52, 0
2, 48915, Note_on_c, 0, 57, 0
2, 48939, Note_on_c, 0, 78, 0
2, 48972, Note_on_c, 0, 49, 76
2, 48980, Note_on_c, 0, 50, 0
2, 49082, Note_on_c, 0, 49, 0
2, 49149, Note_on_c, 0, 56, 67
2, 49153, Note_on_c, 0, 47, 65
2, 49155, Note_on_c, 0, 78, 95
2, 49266, Note_on_c, 0, 77, 74
2, 49291, Note_on_c, 0, 45, 72
2, 49305, Note_on_c, 0, 75, 83
2, 49313, Note_on_c, 0, 47, 0
2, 49327, Note_on_c, 0, 77, 0
2, 49327, Note_on_c, 0, 78, 0
2, 49408, Note_on_c, 0, 45, 0
2, 49429, Note_on_c, 0, 75, 0
2, 49453, Note_on_c, 0, 76, 93
2, 49457, Note_on_c, 0, 44, 80
2, 49537, Note_on_c, 0, 56, 0
2, 49617, Note_on_c, 0, 44, 0
2, 49621, Note_on_c, 0, 47, 72
2, 49777, Note_on_c, 0, 47, 0
2, 49790, Note_on_c, 0, 49, 75
2, 49790, Note_on_c, 0, 55, 76
2, 49809, Note_on_c, 0, 76, 0
2, 49913, Note_on_c, 0, 49, 0
2, 49941, Note_on_c, 0, 76, 90
2, 50102, Note_on_c, 0, 52, 80
2, 50102, Note_on_c, 0, 78, 96
2, 50119, Note_on_c, 0, 76, 0
2, 50215, Note_on_c, 0, 78, 0
2, 50252, Note_on_c, 0, 79, 93
2, 50363, Note_on_c, 0, 79, 0
2, 50421, Note_on_c, 0, 54, 74
2, 50421, Note_on_c, 0, 81, 89
2, 50444, Note_on_c, 0, 55, 0
2, 50499, Note_on_c, 0, 52, 0
2, 50569, Note_on_c, 0, 79, 87
2, 50605, Note_on_c, 0, 81, 0
2, 50727, Note_on_c, 0, 78, 94
2, 50731, Note_on_c, 0, 45, 64
2, 50740, Note_on_c, 0, 79, 0
2, 50797, Note_on_c, 0, 45, 0
2, 50876, Note_on_c, 0, 81, 88
2, 50883, Note_on_c, 0, 78, 0
2, 51003, Note_on_c, 0, 81, 0
2, 51048, Note_on_c, 0, 54, 0
2, 51048, Note_on_c, 0, 59, 75
2, 51052, Note_on_c, 0, 74, 93
2, 51195, Note_on_c, 0, 73, 93
2, 51199, Note_on_c, 0, 74, 0
2, 51331, Note_on_c, 0, 73, 0
2, 51353, Note_on_c, 0, 50, 62
2, 51362, Note_on_c, 0, 71, 89
2, 51469, Note_on_c, 0, 71, 0
2, 51507, Note_on_c, 0, 81, 85
2, 51596, Note_on_c, 0, 59, 0
2, 51678, Note_on_c, 0, 80, 82
2, 51707, Note_on_c, 0, 52, 55
2, 51734, Note_on_c, 0, 81, 0
2, 51819, Note_on_c, 0, 78, 86
2, 51875, Note_on_c, 0, 80, 0
2, 51928, Note_on_c, 0, 50, 0
2, 51983, Note_on_c, 0, 76, 85
2, 52005, Note_on_c, 0, 44, 62
2, 52010, Note_on_c, 0, 78, 0
2, 52124, Note_on_c, 0, 44, 0
2, 52124, Note_on_c, 0, 76, 0
2, 52133, Note_on_c, 0, 80, 81
2, 52277, Note_on_c, 0, 80, 0
2, 52304, Note_on_c, 0, 57, 64
2, 52304, Note_on_c, 0, 73, 85
2, 52320, Note_on_c, 0, 52, 0
2, 52443, Note_on_c, 0, 71, 79
2, 52452, Note_on_c, 0, 73, 0
2, 52557, Note_on_c, 0, 71, 0
2, 52604, Note_on_c, 0, 69, 67
2, 52608, Note_on_c, 0, 49, 55
2, 52675, Note_on_c, 0, 57, 0
2, 52754, Note_on_c, 0, 79, 71
2, 52797, Note_on_c, 0, 69, 0
2, 52916, Note_on_c, 0, 50, 60
2, 52924, Note_on_c, 0, 78, 73
2, 52933, Note_on_c, 0, 49, 0
2, 52958, Note_on_c, 0, 79, 0
2, 53056, Note_on_c, 0, 78, 0
2, 53066, Note_on_c, 0, 76, 73
2, 53216, Note_on_c, 0, 76, 0
2, 53242, Note_on_c, 0, 47, 55
2, 53242, Note_on_c, 0, 74, 72
2, 53330, Note_on_c, 0, 47, 0
2, 53357, Note_on_c, 0, 74, 0
2, 53388, Note_on_c, 0, 45, 52
2, 53393, Note_on_c, 0, 78, 76
2, 53493, Note_on_c, 0, 50, 0
2, 53516, Note_on_c, 0, 45, 0
2, 53516, Note_on_c, 0, 78, 0
2, 53545, Note_on_c, 0, 44, 62
2, 53545, Note_on_c, 0, 71, 74
2, 53638, Note_on_c, 0, 71, 0
2, 53689, Note_on_c, 0, 50, 54
2, 53689, Note_on_c, 0, 78, 72
2, 53820, Note_on_c, 0, 50, 0
2, 53833, Note_on_c, 0, 78, 0
2, 53840, Note_on_c, 0, 49, 53
2, 53851, Note_on_c, 0, 76, 73
2, 53968, Note_on_c, 0, 49, 0
2, 53968, Note_on_c, 0, 76, 0
2, 53983, Note_on_c, 0, 44, 0
2, 53985, Note_on_c, 0, 47, 58
2, 54006, Note_on_c, 0, 74, 72
2, 54127, Note_on_c, 0, 47, 0
2, 54150, Note_on_c, 0, 74, 0
2, 54159, Note_on_c, 0, 73, 72
2, 54163, Note_on_c, 0, 45, 52
2, 54304, Note_on_c, 0, 73, 0
2, 54312, Note_on_c, 0, 47, 60
2, 54312, Note_on_c, 0, 71, 77
2, 54318, Note_on_c, 0, 45, 0
2, 54415, Note_on_c, 0, 71, 0
2, 54449, Note_on_c, 0, 47, 0
2, 54462, Note_on_c, 0, 69, 70
2, 54466, Note_on_c, 0, 49, 65
2, 54601, Note_on_c, 0, 49, 0
2, 54605, Note_on_c, 0, 69, 0
2, 54610, Note_on_c, 0, 73, 77
2, 54614, Note_on_c, 0, 45, 57
2, 54759, Note_on_c, 0, 45, 0
2, 54763, Note_on_c, 0, 50, 62
2, 54777, Note_on_c, 0, 66, 74
2, 54777, Note_on_c, 0, 73, 0
2, 54893, Note_on_c, 0, 50, 0
2, 54923, Note_on_c, 0, 52, 64
2, 54923, Note_on_c, 0, 64, 77
2, 54939, Note_on_c, 0, 66, 0
2, 55041, Note_on_c, 0, 64, 0
2, 55068, Note_on_c, 0, 52, 0
2, 55073, Note_on_c, 0, 54, 68
2, 55077, Note_on_c, 0, 62, 72
2, 55191, Note_on_c, 0, 54, 0
2, 55221, Note_on_c, 0, 66, 72
2, 55227, Note_on_c, 0, 50, 64
2, 55227, Note_on_c, 0, 62, 0
2, 55374, Note_on_c, 0, 66, 0
2, 55379, Note_on_c, 0, 50, 0
2, 55382, Note_on_c, 0, 56, 65
2, 55382, Note_on_c, 0, 59, 77
2, 55501, Note_on_c, 0, 56, 0
2, 55521, Note_on_c, 0, 57, 68
2, 55530, Note_on_c, 0, 61, 75
2, 55538, Note_on_c, 0, 59, 0
2, 55660, Note_on_c, 0, 61, 0
2, 55674, Note_on_c, 0, 56, 68
2, 55680, Note_on_c, 0, 57, 0
2, 55687, Note_on_c, 0, 62, 84
2, 55822, Note_on_c, 0, 54, 69
2, 55822, Note_on_c, 0, 56, 0
2, 55834, Note_on_c, 0, 64, 85
2, 55839, Note_on_c, 0, 62, 0
2, 55989, Note_on_c, 0, 54, 0
2, 55989, Note_on_c, 0, 64, 0
2, 55994, Note_on_c, 0, 52, 74
2, 55994, Note_on_c, 0, 66, 81
2, 56115, Note_on_c, 0, 66, 0
2, 56120, Note_on_c, 0, 52, 0
2, 56133, Note_on_c, 0, 68, 85
2, 56137, Note_on_c, 0, 62, 72
2, 56265, Note_on_c, 0, 68, 0
2, 56290, Note_on_c, 0, 61, 74
2, 56297, Note_on_c, 0, 62, 0
2, 56297, Note_on_c, 0, 69, 86
2, 56448, Note_on_c, 0, 59, 76
2, 56448, Note_on_c, 0, 61, 0
2, 56453, Note_on_c, 0, 71, 89
2, 56457, Note_on_c, 0, 69, 0
2, 56540, Note_on_c, 0, 59, 0
2, 56600, Note_on_c, 0, 71, 0
2, 56613, Note_on_c, 0, 57, 75
2, 56617, Note_on_c, 0, 73, 90
2, 56745, Note_on_c, 0, 73, 0
2, 56769, Note_on_c, 0, 54, 74
2, 56769, Note_on_c, 0, 57, 0
2, 56775, Note_on_c, 0, 74, 94
2, 56936, Note_on_c, 0, 52, 74
2, 56936, Note_on_c, 0, 54, 0
2, 56941, Note_on_c, 0, 76, 93
2, 56949, Note_on_c, 0, 74, 0
2, 57039, Note_on_c, 0, 52, 0
2, 57088, Note_on_c, 0, 50, 77
2, 57088, Note_on_c, 0, 78, 95
2, 57107, Note_on_c, 0, 76, 0
2, 57247, Note_on_c, 0, 49, 77
2, 57247, Note_on_c, 0, 80, 90
2, 57251, Note_on_c, 0, 50, 0
2, 57258, Note_on_c, 0, 78, 0
2, 57387, Note_on_c, 0, 80, 0
2, 57409, Note_on_c, 0, 81, 91
2, 57416, Note_on_c, 0, 47, 76
2, 57420, Note_on_c, 0, 49, 0
2, 57560, Note_on_c, 0, 47, 0
2, 57569, Note_on_c, 0, 81, 0
2, 57586, Note_on_c, 0, 45, 77
2, 57601, Note_on_c, 0, 83, 96
2, 57755, Note_on_c, 0, 45, 0
2, 57760, Note_on_c, 0, 44, 79
2, 57777, Note_on_c, 0, 80, 97
2, 57809, Note_on_c, 0, 83, 0
2, 57931, Note_on_c, 0, 80, 0
2, 57965, Note_on_c, 0, 42, 79
2, 57972, Note_on_c, 0, 44, 0
2, 57982, Note_on_c, 0, 81, 94
2, 58162, Note_on_c, 0, 40, 75
2, 58162, Note_on_c, 0, 42, 0
2, 58177, Note_on_c, 0, 80, 88
2, 58370, Note_on_c, 0, 40, 0
2, 58380, Note_on_c, 0, 38, 76
2, 58393, Note_on_c, 0, 78, 95
2, 58470, Note_on_c, 0, 80, 0
2, 58594, Note_on_c, 0, 78, 0
2, 58601, Note_on_c, 0, 76, 91
2, 58714, Note_on_c, 0, 38, 0
2, 58777, Note_on_c, 0, 76, 0
2, 58831, Note_on_c, 0, 40, 77
2, 58833, Note_on_c, 0, 74, 86
2, 59063, Note_on_c, 0, 74, 0
2, 59066, Note_on_c, 0, 73, 92
2, 59290, Note_on_c, 0, 40, 0
2, 59308, Note_on_c, 0, 73, 0
2, 59368, Note_on_c, 0, 52, 74
2, 59368, Note_on_c, 0, 71, 89
2, 59704, Note_on_c, 0, 80, 89
2, 59783, Note_on_c, 0, 81, 0
2, 60186, Note_on_c, 0, 71, 0
2, 60211, Note_on_c, 0, 80, 0
2, 60222, Note_on_c, 0, 52, 0
2, 60239, Note_on_c, 0, 81, 79
2, 60255, Note_on_c, 0, 73, 78
2, 60264, Note_on_c, 0, 45, 50
2, 61214, Control_c, 0, 64, 13
2, 61229, Control_c, 0, 64, 18
2, 61247, Control_c, 0, 64, 20
2, 61268, Control_c, 0, 64, 23
2, 61288, Control_c, 0, 64, 26
2, 61306, Control_c, 0, 64, 29
2, 61325, Control_c, 0, 64, 32
2, 61346, Control_c, 0, 64, 35
2, 61366, Control_c, 0, 64, 39
2, 61384, Control_c, 0, 64, 44
2, 61401, Control_c, 0, 64, 49
2, 61422, Control_c, 0, 64, 51
2, 61478, Control_c, 0, 64, 52
2, 61499, Control_c, 0, 64, 53
2, 61519, Control_c, 0, 64, 55
2, 61536, Control_c, 0, 64, 56
2, 61575, Control_c, 0, 64, 55
2, 61710, Control_c, 0, 64, 54
2, 61823, Control_c, 0, 64, 53
2, 61901, Control_c, 0, 64, 52
2, 61939, Control_c, 0, 64, 51
2, 62054, Control_c, 0, 64, 50
2, 62085, Note_on_c, 0, 81, 0
2, 62097, Control_c, 0, 64, 48
2, 62113, Control_c, 0, 64, 47
2, 62120, Note_on_c, 0, 45, 0
2, 62120, Note_on_c, 0, 73, 0
2, 62171, Control_c, 0, 64, 46
2, 62189, Control_c, 0, 64, 44
2, 62209, Control_c, 0, 64, 42
2, 62230, Control_c, 0, 64, 39
2, 62247, Control_c, 0, 64, 36
2, 62265, Control_c, 0, 64, 35
2, 62324, Control_c, 0, 64, 34
2, 62345, Control_c, 0, 64, 33
2, 62363, Control_c, 0, 64, 31
2, 62381, Control_c, 0, 64, 28
2, 62402, Control_c, 0, 64, 27
2, 62477, Control_c, 0, 64, 26
2, 62498, Control_c, 0, 64, 25
2, 62516, Control_c, 0, 64, 22
2, 62536, Control_c, 0, 64, 21
2, 62573, Control_c, 0, 64, 20
2, 62630, Control_c, 0, 64, 19
2, 62650, Control_c, 0, 64, 17
2, 62672, Control_c, 0, 64, 16
2, 62688, Control_c, 0, 64, 15
2, 62708, Control_c, 0, 64, 0
2, 64428,End_track
0, 0, End_of_file
