0, 0, Header, 1, 2, 480
1, 0, Start_track
1, 0, Tempo, 500000
1, 0, Time_signature, 4, 2, 24, 8
1, 1, End_track
2, 0, Start_track
2, 0, Program_c, 0, 0
2, 0, Control_c, 0, 64, 31
2, 0, Control_c, 0, 67, 67
2, 371, Control_c, 0, 67, 68
2, 903, Control_c, 0, 64, 30
2, 1013, Note_on_c, 0, 64, 46
2, 1018, Control_c, 0, 64, 29
2, 1024, Note_on_c, 0, 57, 33
2, 1133, Control_c, 0, 64, 28
2, 1244, Note_on_c, 0, 69, 54
2, 1493, Note_on_c, 0, 68, 76
2, 1516, Note_on_c, 0, 52, 33
2, 1563, Note_on_c, 0, 69, 0
2, 1672, Control_c, 0, 67, 69
2, 1732, Note_on_c, 0, 69, 66
2, 1741, Note_on_c, 0, 52, 0
2, 1752, Note_on_c, 0, 57, 0
2, 1756, Note_on_c, 0, 49, 32
2, 1791, Note_on_c, 0, 68, 0
2, 1990, Note_on_c, 0, 73, 75
2, 2014, Note_on_c, 0, 69, 0
2, 2035, Control_c, 0, 64, 27
2, 2216, Note_on_c, 0, 71, 63
2, 2229, Note_on_c, 0, 73, 0
2, 2234, Note_on_c, 0, 52, 44
2, 2242, Note_on_c, 0, 49, 0
2, 2282, Note_on_c, 0, 64, 0
2, 2401, Note_on_c, 0, 52, 0
2, 2462, Note_on_c, 0, 71, 0
2, 2466, Note_on_c, 0, 73, 71
2, 2472, Note_on_c, 0, 45, 33
2, 2472, Note_on_c, 0, 57, 34
2, 2691, Note_on_c, 0, 64, 64
2, 2921, Note_on_c, 0, 47, 41
2, 2937, Note_on_c, 0, 62, 60
2, 2978, Note_on_c, 0, 64, 0
2, 3180, Note_on_c, 0, 64, 58
2, 3187, Note_on_c, 0, 45, 0
2, 3187, Note_on_c, 0, 62, 0
2, 3195, Note_on_c, 0, 49, 33
2, 3210, Note_on_c, 0, 47, 0
2, 3395, Note_on_c, 0, 64, 0
2, 3406, Note_on_c, 0, 68, 57
2, 3494, Control_c, 0, 64, 26
2, 3609, Note_on_c, 0, 68, 0
2, 3622, Note_on_c, 0, 66, 52
2, 3635, Note_on_c, 0, 45, 26
2, 3764, Note_on_c, 0, 57, 0
2, 3820, Control_c, 0, 64, 25
2, 3845, Note_on_c, 0, 68, 56
2, 3854, Note_on_c, 0, 52, 41
2, 3867, Note_on_c, 0, 45, 0
2, 3900, Control_c, 0, 67, 68
2, 3928, Note_on_c, 0, 66, 0
2, 3934, Control_c, 0, 64, 24
2, 3943, Note_on_c, 0, 49, 0
2, 3975, Control_c, 0, 64, 23
2, 3979, Control_c, 0, 67, 67
2, 4011, Control_c, 0, 67, 66
2, 4033, Control_c, 0, 64, 22
2, 4033, Control_c, 0, 67, 65
2, 4071, Control_c, 0, 64, 21
2, 4081, Note_on_c, 0, 71, 64
2, 4090, Control_c, 0, 67, 64
2, 4094, Note_on_c, 0, 73, 0
2, 4109, Control_c, 0, 64, 20
2, 4130, Control_c, 0, 67, 63
2, 4166, Control_c, 0, 64, 19
2, 4166, Control_c, 0, 67, 62
2, 4184, Control_c, 0, 67, 61
2, 4261, Control_c, 0, 67, 58
2, 4281, Note_on_c, 0, 52, 0
2, 4286, Control_c, 0, 67, 46
2, 4300, Control_c, 0, 67, 34
2, 4305, Note_on_c, 0, 40, 34
2, 4305, Note_on_c, 0, 69, 63
2, 4314, Note_on_c, 0, 71, 0
2, 4324, Control_c, 0, 67, 24
2, 4340, Control_c, 0, 67, 15
2, 4359, Control_c, 0, 67, 9
2, 4377, Control_c, 0, 67, 0
2, 4381, Note_on_c, 0, 40, 0
2, 4556, Note_on_c, 0, 71, 68
2, 4571, Note_on_c, 0, 40, 32
2, 4598, Note_on_c, 0, 69, 0
2, 4779, Note_on_c, 0, 71, 0
2, 4785, Note_on_c, 0, 74, 70
2, 4894, Control_c, 0, 67, 8
2, 4935, Control_c, 0, 67, 9
2, 4971, Control_c, 0, 67, 10
2, 4991, Control_c, 0, 67, 11
2, 5016, Note_on_c, 0, 74, 0
2, 5020, Note_on_c, 0, 73, 65
2, 5026, Note_on_c, 0, 52, 39
2, 5048, Control_c, 0, 67, 12
2, 5067, Control_c, 0, 67, 13
2, 5072, Note_on_c, 0, 40, 0
2, 5091, Control_c, 0, 67, 14
2, 5102, Note_on_c, 0, 52, 0
2, 5108, Control_c, 0, 67, 16
2, 5145, Control_c, 0, 67, 17
2, 5202, Control_c, 0, 67, 18
2, 5222, Control_c, 0, 67, 19
2, 5242, Control_c, 0, 67, 25
2, 5260, Control_c, 0, 67, 35
2, 5269, Note_on_c, 0, 74, 60
2, 5272, Note_on_c, 0, 73, 0
2, 5276, Note_on_c, 0, 52, 39
2, 5281, Control_c, 0, 67, 46
2, 5298, Control_c, 0, 67, 56
2, 5320, Control_c, 0, 67, 64
2, 5339, Control_c, 0, 67, 70
2, 5357, Control_c, 0, 67, 74
2, 5375, Control_c, 0, 67, 78
2, 5395, Control_c, 0, 67, 82
2, 5413, Control_c, 0, 67, 84
2, 5433, Control_c, 0, 67, 87
2, 5455, Control_c, 0, 67, 89
2, 5472, Control_c, 0, 67, 92
2, 5479, Note_on_c, 0, 68, 0
2, 5489, Control_c, 0, 67, 94
2, 5507, Note_on_c, 0, 66, 49
2, 5511, Control_c, 0, 67, 97
2, 5529, Control_c, 0, 67, 100
2, 5551, Control_c, 0, 67, 102
2, 5566, Control_c, 0, 67, 104
2, 5605, Control_c, 0, 67, 107
2, 5626, Control_c, 0, 67, 112
2, 5643, Control_c, 0, 67, 118
2, 5665, Control_c, 0, 67, 123
2, 5685, Control_c, 0, 67, 127
2, 5730, Note_on_c, 0, 66, 0
2, 5739, Note_on_c, 0, 64, 44
2, 5743, Note_on_c, 0, 50, 27
2, 5790, Note_on_c, 0, 52, 0
2, 5976, Note_on_c, 0, 64, 0
2, 5976, Note_on_c, 0, 66, 48
2, 6013, Note_on_c, 0, 49, 31
2, 6027, Note_on_c, 0, 50, 0
2, 6181, Note_on_c, 0, 66, 0
2, 6200, Note_on_c, 0, 69, 49
2, 6436, Note_on_c, 0, 47, 38
2, 6440, Note_on_c, 0, 68, 52
2, 6456, Note_on_c, 0, 69, 0
2, 6621, Note_on_c, 0, 47, 0
2, 6629, Note_on_c, 0, 49, 0
2, 6669, Note_on_c, 0, 69, 45
2, 6676, Note_on_c, 0, 68, 0
2, 6682, Note_on_c, 0, 45, 37
2, 6883, Note_on_c, 0, 45, 0
2, 6906, Note_on_c, 0, 57, 46
2, 6911, Note_on_c, 0, 73, 65
2, 6973, Note_on_c, 0, 74, 0
2, 7133, Note_on_c, 0, 57, 0
2, 7139, Note_on_c, 0, 71, 66
2, 7150, Note_on_c, 0, 56, 52
2, 7163, Control_c, 0, 64, 20
2, 7179, Control_c, 0, 67, 124
2, 7187, Note_on_c, 0, 73, 0
2, 7202, Control_c, 0, 67, 122
2, 7219, Control_c, 0, 67, 118
2, 7236, Control_c, 0, 67, 111
2, 7256, Control_c, 0, 67, 101
2, 7276, Control_c, 0, 67, 88
2, 7297, Control_c, 0, 67, 77
2, 7313, Control_c, 0, 67, 69
2, 7333, Control_c, 0, 67, 62
2, 7352, Control_c, 0, 67, 56
2, 7372, Control_c, 0, 67, 49
2, 7387, Note_on_c, 0, 73, 78
2, 7391, Control_c, 0, 67, 41
2, 7397, Note_on_c, 0, 57, 48
2, 7408, Note_on_c, 0, 56, 0
2, 7413, Control_c, 0, 67, 33
2, 7431, Control_c, 0, 67, 29
2, 7469, Control_c, 0, 67, 28
2, 7486, Note_on_c, 0, 71, 0
2, 7604, Note_on_c, 0, 57, 0
2, 7638, Note_on_c, 0, 61, 49
2, 7640, Note_on_c, 0, 76, 78
2, 7698, Note_on_c, 0, 73, 0
2, 7814, Control_c, 0, 67, 29
2, 7869, Note_on_c, 0, 74, 74
2, 7886, Note_on_c, 0, 59, 49
2, 7886, Note_on_c, 0, 61, 0
2, 7911, Control_c, 0, 67, 30
2, 7920, Note_on_c, 0, 76, 0
2, 7931, Control_c, 0, 67, 31
2, 7989, Control_c, 0, 67, 32
2, 8043, Control_c, 0, 67, 33
2, 8105, Note_on_c, 0, 76, 75
2, 8110, Note_on_c, 0, 61, 41
2, 8123, Control_c, 0, 67, 34
2, 8132, Note_on_c, 0, 59, 0
2, 8153, Note_on_c, 0, 74, 0
2, 8163, Control_c, 0, 67, 35
2, 8178, Control_c, 0, 67, 36
2, 8235, Control_c, 0, 67, 37
2, 8275, Control_c, 0, 67, 38
2, 8295, Control_c, 0, 67, 39
2, 8348, Note_on_c, 0, 74, 75
2, 8352, Control_c, 0, 67, 40
2, 8355, Note_on_c, 0, 59, 44
2, 8395, Note_on_c, 0, 76, 0
2, 8447, Control_c, 0, 67, 41
2, 8499, Note_on_c, 0, 61, 0
2, 8560, Note_on_c, 0, 59, 0
2, 8575, Note_on_c, 0, 73, 80
2, 8596, Note_on_c, 0, 57, 46
2, 8600, Control_c, 0, 67, 42
2, 8645, Note_on_c, 0, 74, 0
2, 8716, Control_c, 0, 67, 43
2, 8820, Note_on_c, 0, 74, 73
2, 8827, Note_on_c, 0, 57, 0
2, 8840, Note_on_c, 0, 59, 45
2, 8870, Control_c, 0, 67, 44
2, 8890, Note_on_c, 0, 73, 0
2, 9025, Note_on_c, 0, 59, 0
2, 9061, Note_on_c, 0, 78, 75
2, 9070, Note_on_c, 0, 74, 0
2, 9088, Note_on_c, 0, 62, 39
2, 9254, Control_c, 0, 67, 45
2, 9289, Note_on_c, 0, 76, 66
2, 9293, Note_on_c, 0, 62, 0
2, 9293, Note_on_c, 0, 78, 0
2, 9306, Note_on_c, 0, 61, 34
2, 9349, Control_c, 0, 67, 46
2, 9426, Control_c, 0, 67, 47
2, 9550, Note_on_c, 0, 62, 26
2, 9550, Note_on_c, 0, 78, 66
2, 9557, Note_on_c, 0, 61, 0
2, 9569, Note_on_c, 0, 76, 0
2, 9582, Control_c, 0, 67, 48
2, 9599, Control_c, 0, 67, 49
2, 9637, Control_c, 0, 67, 50
2, 9777, Note_on_c, 0, 71, 53
2, 9852, Control_c, 0, 64, 21
2, 9852, Control_c, 0, 67, 49
2, 9856, Note_on_c, 0, 69, 0
2, 9868, Control_c, 0, 64, 24
2, 9888, Control_c, 0, 64, 27
2, 9909, Control_c, 0, 64, 30
2, 9929, Control_c, 0, 64, 33
2, 9929, Control_c, 0, 67, 48
2, 9947, Control_c, 0, 64, 39
2, 9947, Control_c, 0, 67, 47
2, 9966, Control_c, 0, 64, 48
2, 9985, Control_c, 0, 64, 57
2, 9985, Control_c, 0, 67, 46
2, 9992, Note_on_c, 0, 62, 0
2, 10003, Control_c, 0, 64, 61
2, 10008, Note_on_c, 0, 73, 67
2, 10019, Note_on_c, 0, 71, 0
2, 10023, Control_c, 0, 64, 62
2, 10023, Control_c, 0, 67, 45
2, 10030, Note_on_c, 0, 61, 34
2, 10041, Control_c, 0, 64, 63
2, 10061, Control_c, 0, 64, 64
2, 10061, Control_c, 0, 67, 44
2, 10081, Control_c, 0, 64, 65
2, 10100, Control_c, 0, 64, 66
2, 10120, Control_c, 0, 64, 67
2, 10138, Control_c, 0, 67, 43
2, 10158, Control_c, 0, 64, 68
2, 10226, Note_on_c, 0, 73, 0
2, 10233, Control_c, 0, 64, 67
2, 10237, Note_on_c, 0, 78, 0
2, 10242, Note_on_c, 0, 74, 76
2, 10256, Control_c, 0, 64, 66
2, 10256, Control_c, 0, 67, 42
2, 10271, Control_c, 0, 64, 64
2, 10275, Note_on_c, 0, 59, 42
2, 10290, Control_c, 0, 64, 62
2, 10294, Note_on_c, 0, 61, 0
2, 10309, Control_c, 0, 64, 59
2, 10328, Control_c, 0, 64, 57
2, 10348, Control_c, 0, 64, 54
2, 10365, Control_c, 0, 64, 52
2, 10390, Control_c, 0, 64, 49
2, 10408, Control_c, 0, 64, 45
2, 10425, Control_c, 0, 64, 41
2, 10447, Control_c, 0, 64, 37
2, 10463, Control_c, 0, 64, 32
2, 10483, Control_c, 0, 64, 28
2, 10492, Note_on_c, 0, 80, 83
2, 10501, Control_c, 0, 64, 25
2, 10522, Control_c, 0, 64, 22
2, 10540, Control_c, 0, 64, 21
2, 10561, Control_c, 0, 64, 20
2, 10579, Control_c, 0, 64, 19
2, 10583, Control_c, 0, 67, 43
2, 10596, Control_c, 0, 64, 18
2, 10637, Control_c, 0, 64, 17
2, 10641, Control_c, 0, 67, 44
2, 10673, Control_c, 0, 67, 45
2, 10716, Control_c, 0, 67, 46
2, 10716, Note_on_c, 0, 81, 78
2, 10732, Control_c, 0, 64, 16
2, 10737, Note_on_c, 0, 57, 46
2, 10771, Control_c, 0, 67, 47
2, 10784, Note_on_c, 0, 80, 0
2, 10793, Control_c, 0, 64, 15
2, 10824, Note_on_c, 0, 59, 0
2, 10828, Control_c, 0, 67, 48
2, 10885, Control_c, 0, 67, 49
2, 10923, Control_c, 0, 64, 14
2, 10945, Control_c, 0, 64, 13
2, 10945, Note_on_c, 0, 57, 0
2, 10966, Control_c, 0, 67, 50
2, 10970, Note_on_c, 0, 81, 0
2, 10974, Note_on_c, 0, 83, 66
2, 10987, Note_on_c, 0, 56, 38
2, 11004, Control_c, 0, 67, 51
2, 11020, Control_c, 0, 64, 12
2, 11042, Control_c, 0, 64, 11
2, 11059, Control_c, 0, 67, 52
2, 11078, Control_c, 0, 64, 10
2, 11078, Control_c, 0, 67, 55
2, 11096, Control_c, 0, 67, 63
2, 11116, Control_c, 0, 67, 71
2, 11137, Control_c, 0, 64, 9
2, 11137, Control_c, 0, 67, 78
2, 11152, Control_c, 0, 67, 84
2, 11172, Control_c, 0, 67, 90
2, 11183, Note_on_c, 0, 74, 0
2, 11198, Control_c, 0, 64, 8
2, 11198, Control_c, 0, 67, 96
2, 11211, Control_c, 0, 67, 100
2, 11218, Note_on_c, 0, 76, 64
2, 11225, Note_on_c, 0, 83, 0
2, 11231, Control_c, 0, 64, 0
2, 11231, Note_on_c, 0, 73, 58
2, 11235, Control_c, 0, 67, 104
2, 11248, Control_c, 0, 67, 109
2, 11273, Control_c, 0, 67, 114
2, 11291, Control_c, 0, 67, 119
2, 11310, Control_c, 0, 67, 124
2, 11328, Control_c, 0, 67, 127
2, 11444, Note_on_c, 0, 73, 0
2, 11471, Note_on_c, 0, 71, 49
2, 11598, Control_c, 0, 64, 9
2, 11614, Control_c, 0, 64, 16
2, 11635, Control_c, 0, 64, 23
2, 11655, Control_c, 0, 64, 31
2, 11671, Control_c, 0, 64, 40
2, 11691, Control_c, 0, 64, 49
2, 11699, Note_on_c, 0, 71, 0
2, 11706, Note_on_c, 0, 57, 35
2, 11715, Control_c, 0, 64, 56
2, 11721, Note_on_c, 0, 73, 57
2, 11730, Control_c, 0, 64, 58
2, 11760, Note_on_c, 0, 76, 0
2, 11821, Note_on_c, 0, 56, 0
2, 11865, Control_c, 0, 64, 57
2, 11903, Control_c, 0, 64, 56
2, 11923, Control_c, 0, 64, 55
2, 11943, Control_c, 0, 64, 54
2, 11955, Note_on_c, 0, 78, 63
2, 11959, Control_c, 0, 64, 53
2, 11979, Control_c, 0, 64, 52
2, 12000, Control_c, 0, 64, 50
2, 12017, Control_c, 0, 64, 47
2, 12037, Control_c, 0, 64, 43
2, 12057, Control_c, 0, 64, 38
2, 12078, Control_c, 0, 64, 33
2, 12095, Control_c, 0, 64, 29
2, 12116, Control_c, 0, 64, 27
2, 12133, Control_c, 0, 64, 25
2, 12155, Control_c, 0, 64, 24
2, 12171, Control_c, 0, 64, 22
2, 12184, Note_on_c, 0, 80, 60
2, 12193, Control_c, 0, 64, 20
2, 12193, Note_on_c, 0, 78, 0
2, 12231, Control_c, 0, 64, 19
2, 12306, Control_c, 0, 64, 18
2, 12403, Note_on_c, 0, 54, 37
2, 12418, Note_on_c, 0, 80, 0
2, 12433, Note_on_c, 0, 81, 53
2, 12466, Note_on_c, 0, 73, 0
2, 12483, Note_on_c, 0, 57, 0
2, 12666, Note_on_c, 0, 74, 51
2, 12677, Note_on_c, 0, 71, 52
2, 12697, Note_on_c, 0, 81, 0
2, 12731, Control_c, 0, 64, 17
2, 12889, Note_on_c, 0, 71, 0
2, 12913, Note_on_c, 0, 69, 42
2, 13156, Note_on_c, 0, 71, 58
2, 13161, Note_on_c, 0, 69, 0
2, 13165, Note_on_c, 0, 56, 36
2, 13295, Note_on_c, 0, 54, 0
2, 13356, Note_on_c, 0, 74, 0
2, 13392, Note_on_c, 0, 76, 63
2, 13440, Control_c, 0, 67, 123
2, 13459, Control_c, 0, 67, 118
2, 13478, Control_c, 0, 67, 112
2, 13499, Control_c, 0, 67, 106
2, 13516, Control_c, 0, 67, 101
2, 13535, Control_c, 0, 67, 95
2, 13555, Control_c, 0, 67, 87
2, 13574, Control_c, 0, 67, 77
2, 13592, Control_c, 0, 67, 67
2, 13613, Control_c, 0, 67, 58
2, 13624, Note_on_c, 0, 74, 73
2, 13631, Control_c, 0, 67, 47
2, 13650, Control_c, 0, 67, 40
2, 13672, Control_c, 0, 67, 33
2, 13692, Control_c, 0, 67, 28
2, 13708, Control_c, 0, 67, 22
2, 13726, Control_c, 0, 67, 16
2, 13746, Control_c, 0, 67, 10
2, 13764, Control_c, 0, 67, 0
2, 13876, Note_on_c, 0, 76, 0
2, 13878, Note_on_c, 0, 73, 79
2, 13885, Note_on_c, 0, 57, 42
2, 13903, Note_on_c, 0, 56, 0
2, 13937, Note_on_c, 0, 74, 0
2, 14106, Note_on_c, 0, 74, 72
2, 14329, Note_on_c, 0, 57, 0
2, 14347, Note_on_c, 0, 71, 0
2, 14355, Note_on_c, 0, 49, 41
2, 14355, Note_on_c, 0, 76, 73
2, 14369, Note_on_c, 0, 69, 54
2, 14378, Note_on_c, 0, 74, 0
2, 14399, Note_on_c, 0, 73, 0
2, 14583, Note_on_c, 0, 69, 0
2, 14603, Note_on_c, 0, 47, 39
2, 14603, Note_on_c, 0, 74, 59
2, 14608, Note_on_c, 0, 68, 58
2, 14612, Note_on_c, 0, 49, 0
2, 14632, Note_on_c, 0, 76, 0
2, 14765, Control_c, 0, 67, 9
2, 14785, Control_c, 0, 67, 11
2, 14801, Control_c, 0, 67, 13
2, 14820, Note_on_c, 0, 74, 0
2, 14825, Control_c, 0, 67, 14
2, 14846, Note_on_c, 0, 76, 60
2, 15041, Note_on_c, 0, 76, 0
2, 15060, Note_on_c, 0, 47, 0
2, 15067, Note_on_c, 0, 73, 57
2, 15076, Note_on_c, 0, 69, 40
2, 15084, Note_on_c, 0, 45, 36
2, 15100, Note_on_c, 0, 68, 0
2, 15309, Note_on_c, 0, 73, 0
2, 15318, Note_on_c, 0, 40, 32
2, 15318, Note_on_c, 0, 71, 58
2, 15322, Control_c, 0, 67, 13
2, 15331, Note_on_c, 0, 45, 0
2, 15455, Control_c, 0, 67, 12
2, 15495, Note_on_c, 0, 69, 0
2, 15541, Note_on_c, 0, 40, 0
2, 15548, Note_on_c, 0, 68, 56
2, 15557, Note_on_c, 0, 52, 50
2, 15773, Note_on_c, 0, 52, 0
2, 15777, Note_on_c, 0, 66, 70
2, 15794, Note_on_c, 0, 51, 55
2, 15831, Note_on_c, 0, 68, 0
2, 15972, Control_c, 0, 64, 18
2, 15996, Note_on_c, 0, 68, 65
2, 16012, Note_on_c, 0, 76, 75
2, 16018, Note_on_c, 0, 52, 47
2, 16063, Note_on_c, 0, 71, 0
2, 16070, Note_on_c, 0, 51, 0
2, 16166, Control_c, 0, 64, 19
2, 16226, Note_on_c, 0, 52, 0
2, 16237, Note_on_c, 0, 66, 0
2, 16246, Note_on_c, 0, 56, 54
2, 16248, Note_on_c, 0, 71, 71
2, 16294, Note_on_c, 0, 68, 0
2, 16303, Control_c, 0, 64, 20
2, 16462, Note_on_c, 0, 56, 0
2, 16462, Note_on_c, 0, 71, 0
2, 16484, Note_on_c, 0, 54, 46
2, 16493, Note_on_c, 0, 69, 64
2, 16714, Note_on_c, 0, 71, 62
2, 16723, Note_on_c, 0, 69, 0
2, 16745, Note_on_c, 0, 56, 45
2, 16760, Note_on_c, 0, 54, 0
2, 16840, Control_c, 0, 67, 13
2, 16947, Note_on_c, 0, 78, 77
2, 16955, Note_on_c, 0, 76, 0
2, 16971, Control_c, 0, 67, 14
2, 17010, Control_c, 0, 67, 15
2, 17189, Note_on_c, 0, 76, 69
2, 17193, Note_on_c, 0, 78, 0
2, 17376, Note_on_c, 0, 76, 0
2, 17394, Note_on_c, 0, 74, 65
2, 17440, Note_on_c, 0, 74, 0
2, 17477, Note_on_c, 0, 76, 64
2, 17510, Control_c, 0, 67, 16
2, 17542, Note_on_c, 0, 76, 0
2, 17546, Note_on_c, 0, 74, 65
2, 17551, Control_c, 0, 67, 17
2, 17570, Control_c, 0, 67, 25
2, 17586, Control_c, 0, 67, 36
2, 17607, Control_c, 0, 67, 45
2, 17625, Control_c, 0, 67, 53
2, 17644, Control_c, 0, 64, 19
2, 17648, Control_c, 0, 67, 59
2, 17653, Note_on_c, 0, 56, 0
2, 17667, Control_c, 0, 67, 65
2, 17678, Note_on_c, 0, 59, 42
2, 17682, Control_c, 0, 67, 72
2, 17702, Control_c, 0, 67, 80
2, 17719, Control_c, 0, 67, 86
2, 17741, Control_c, 0, 67, 91
2, 17762, Control_c, 0, 67, 96
2, 17778, Control_c, 0, 67, 99
2, 17801, Control_c, 0, 64, 18
2, 17801, Control_c, 0, 67, 100
2, 17820, Control_c, 0, 67, 101
2, 17846, Note_on_c, 0, 59, 0
2, 17887, Note_on_c, 0, 58, 41
2, 17891, Note_on_c, 0, 71, 0
2, 17896, Note_on_c, 0, 73, 58
2, 17936, Note_on_c, 0, 74, 0
2, 18134, Note_on_c, 0, 74, 63
2, 18163, Control_c, 0, 64, 17
2, 18163, Note_on_c, 0, 59, 39
2, 18199, Control_c, 0, 67, 100
2, 18221, Note_on_c, 0, 58, 0
2, 18277, Control_c, 0, 67, 99
2, 18321, Note_on_c, 0, 59, 0
2, 18336, Control_c, 0, 67, 98
2, 18375, Control_c, 0, 67, 97
2, 18375, Note_on_c, 0, 71, 62
2, 18384, Note_on_c, 0, 62, 38
2, 18413, Control_c, 0, 67, 96
2, 18489, Control_c, 0, 67, 95
2, 18545, Control_c, 0, 67, 94
2, 18563, Note_on_c, 0, 73, 0
2, 18568, Control_c, 0, 67, 93
2, 18590, Note_on_c, 0, 62, 0
2, 18603, Control_c, 0, 67, 92
2, 18610, Note_on_c, 0, 70, 71
2, 18619, Note_on_c, 0, 61, 48
2, 18623, Control_c, 0, 67, 91
2, 18648, Note_on_c, 0, 71, 0
2, 18661, Control_c, 0, 67, 89
2, 18680, Control_c, 0, 67, 88
2, 18702, Control_c, 0, 67, 87
2, 18719, Control_c, 0, 67, 86
2, 18756, Control_c, 0, 67, 85
2, 18795, Control_c, 0, 67, 84
2, 18814, Control_c, 0, 67, 83
2, 18821, Note_on_c, 0, 74, 0
2, 18825, Note_on_c, 0, 71, 67
2, 18855, Control_c, 0, 67, 82
2, 18855, Note_on_c, 0, 62, 49
2, 18871, Control_c, 0, 67, 81
2, 18905, Note_on_c, 0, 61, 0
2, 18934, Control_c, 0, 67, 80
2, 18961, Note_on_c, 0, 70, 0
2, 18970, Control_c, 0, 67, 78
2, 18989, Control_c, 0, 67, 75
2, 19008, Control_c, 0, 67, 71
2, 19025, Control_c, 0, 67, 68
2, 19029, Note_on_c, 0, 62, 0
2, 19048, Control_c, 0, 67, 65
2, 19064, Control_c, 0, 67, 63
2, 19079, Note_on_c, 0, 66, 50
2, 19084, Note_on_c, 0, 74, 67
2, 19088, Control_c, 0, 67, 59
2, 19104, Control_c, 0, 67, 56
2, 19123, Control_c, 0, 67, 52
2, 19145, Control_c, 0, 67, 49
2, 19160, Control_c, 0, 67, 47
2, 19179, Control_c, 0, 67, 45
2, 19199, Control_c, 0, 67, 43
2, 19219, Control_c, 0, 67, 40
2, 19239, Control_c, 0, 67, 38
2, 19258, Control_c, 0, 67, 35
2, 19265, Note_on_c, 0, 66, 0
2, 19280, Control_c, 0, 67, 33
2, 19296, Control_c, 0, 67, 32
2, 19307, Note_on_c, 0, 64, 51
2, 19307, Note_on_c, 0, 73, 73
2, 19314, Control_c, 0, 67, 31
2, 19334, Control_c, 0, 67, 30
2, 19352, Control_c, 0, 67, 29
2, 19356, Note_on_c, 0, 74, 0
2, 19547, Note_on_c, 0, 74, 73
2, 19556, Note_on_c, 0, 66, 55
2, 19565, Note_on_c, 0, 64, 0
2, 19603, Control_c, 0, 67, 28
2, 19667, Note_on_c, 0, 73, 0
2, 19768, Note_on_c, 0, 69, 60
2, 19999, Note_on_c, 0, 68, 71
2, 20052, Note_on_c, 0, 69, 0
2, 20216, Control_c, 0, 67, 29
2, 20229, Note_on_c, 0, 69, 59
2, 20296, Note_on_c, 0, 68, 0
2, 20370, Control_c, 0, 67, 30
2, 20428, Control_c, 0, 67, 31
2, 20486, Note_on_c, 0, 71, 0
2, 20486, Note_on_c, 0, 74, 0
2, 20491, Note_on_c, 0, 73, 67
2, 20543, Control_c, 0, 67, 32
2, 20691, Note_on_c, 0, 69, 0
2, 20711, Note_on_c, 0, 73, 0
2, 20711, Note_on_c, 0, 83, 66
2, 20720, Control_c, 0, 67, 33
2, 20720, Note_on_c, 0, 68, 48
2, 20739, Note_on_c, 0, 71, 45
2, 20810, Control_c, 0, 67, 34
2, 20908, Control_c, 0, 67, 35
2, 20920, Note_on_c, 0, 71, 0
2, 20955, Note_on_c, 0, 73, 61
2, 20959, Note_on_c, 0, 76, 62
2, 20966, Note_on_c, 0, 83, 0
2, 20975, Note_on_c, 0, 69, 44
2, 21001, Note_on_c, 0, 66, 0
2, 21005, Control_c, 0, 67, 36
2, 21052, Note_on_c, 0, 68, 0
2, 21103, Control_c, 0, 64, 18
2, 21195, Note_on_c, 0, 76, 0
2, 21199, Note_on_c, 0, 78, 74
2, 21391, Control_c, 0, 67, 37
2, 21414, Note_on_c, 0, 68, 63
2, 21414, Note_on_c, 0, 73, 0
2, 21423, Note_on_c, 0, 71, 64
2, 21423, Note_on_c, 0, 76, 77
2, 21427, Note_on_c, 0, 69, 0
2, 21482, Control_c, 0, 67, 38
2, 21580, Control_c, 0, 67, 39
2, 21665, Note_on_c, 0, 75, 75
2, 21665, Note_on_c, 0, 78, 0
2, 21667, Note_on_c, 0, 69, 71
2, 21671, Note_on_c, 0, 66, 57
2, 21680, Control_c, 0, 67, 40
2, 21680, Note_on_c, 0, 68, 0
2, 21707, Note_on_c, 0, 71, 0
2, 21713, Control_c, 0, 67, 41
2, 21722, Note_on_c, 0, 76, 0
2, 21770, Control_c, 0, 67, 42
2, 21792, Control_c, 0, 67, 43
2, 21812, Control_c, 0, 67, 45
2, 21830, Control_c, 0, 67, 46
2, 21867, Control_c, 0, 67, 47
2, 21888, Control_c, 0, 67, 48
2, 21892, Note_on_c, 0, 76, 73
2, 21905, Control_c, 0, 67, 52
2, 21925, Control_c, 0, 67, 61
2, 21938, Note_on_c, 0, 75, 0
2, 21948, Control_c, 0, 67, 73
2, 21964, Control_c, 0, 67, 88
2, 21985, Control_c, 0, 67, 102
2, 22001, Control_c, 0, 67, 114
2, 22021, Control_c, 0, 67, 125
2, 22040, Control_c, 0, 67, 127
2, 22084, Note_on_c, 0, 66, 0
2, 22101, Note_on_c, 0, 78, 74
2, 22114, Note_on_c, 0, 64, 57
2, 22118, Note_on_c, 0, 76, 0
2, 22361, Note_on_c, 0, 71, 62
2, 22366, Note_on_c, 0, 78, 0
2, 22375, Note_on_c, 0, 63, 40
2, 22392, Note_on_c, 0, 64, 0
2, 22590, Note_on_c, 0, 63, 0
2, 22606, Note_on_c, 0, 59, 46
2, 22793, Note_on_c, 0, 69, 0
2, 22798, Note_on_c, 0, 71, 0
2, 22829, Note_on_c, 0, 64, 49
2, 22833, Note_on_c, 0, 68, 55
2, 22833, Note_on_c, 0, 73, 63
2, 22874, Note_on_c, 0, 59, 0
2, 23066, Note_on_c, 0, 68, 0
2, 23072, Note_on_c, 0, 69, 63
2, 23087, Note_on_c, 0, 66, 51
2, 23149, Note_on_c, 0, 73, 0
2, 23306, Control_c, 0, 64, 19
2, 23320, Note_on_c, 0, 68, 72
2, 23329, Note_on_c, 0, 69, 0
2, 23528, Note_on_c, 0, 64, 0
2, 23548, Note_on_c, 0, 69, 71
2, 23564, Note_on_c, 0, 63, 45
2, 23573, Note_on_c, 0, 68, 0
2, 23736, Note_on_c, 0, 63, 0
2, 23765, Note_on_c, 0, 66, 0
2, 23774, Note_on_c, 0, 68, 68
2, 23789, Note_on_c, 0, 64, 39
2, 23810, Note_on_c, 0, 69, 0
2, 23996, Note_on_c, 0, 64, 0
2, 24028, Note_on_c, 0, 59, 44
2, 24028, Note_on_c, 0, 63, 46
2, 24217, Note_on_c, 0, 68, 0
2, 24222, Note_on_c, 0, 59, 0
2, 24229, Note_on_c, 0, 63, 0
2, 24240, Note_on_c, 0, 69, 55
2, 24255, Note_on_c, 0, 64, 56
2, 24264, Note_on_c, 0, 61, 40
2, 24450, Note_on_c, 0, 61, 0
2, 24488, Note_on_c, 0, 68, 67
2, 24492, Note_on_c, 0, 64, 0
2, 24492, Note_on_c, 0, 69, 0
2, 24503, Note_on_c, 0, 59, 39
2, 24691, Note_on_c, 0, 59, 0
2, 24730, Note_on_c, 0, 56, 42
2, 24730, Note_on_c, 0, 66, 58
2, 24730, Note_on_c, 0, 68, 0
2, 24800, Note_on_c, 0, 66, 0
2, 24842, Note_on_c, 0, 64, 58
2, 24846, Control_c, 0, 64, 23
2, 24863, Control_c, 0, 64, 31
2, 24882, Control_c, 0, 64, 42
2, 24903, Control_c, 0, 64, 54
2, 24914, Note_on_c, 0, 56, 0
2, 24923, Control_c, 0, 64, 62
2, 24940, Control_c, 0, 64, 64
2, 24940, Note_on_c, 0, 64, 0
2, 24953, Note_on_c, 0, 57, 42
2, 24957, Note_on_c, 0, 66, 61
2, 24961, Control_c, 0, 64, 65
2, 24976, Control_c, 0, 64, 67
2, 24996, Control_c, 0, 64, 69
2, 25016, Control_c, 0, 64, 73
2, 25031, Note_on_c, 0, 66, 0
2, 25036, Control_c, 0, 64, 76
2, 25053, Control_c, 0, 64, 79
2, 25092, Control_c, 0, 64, 80
2, 25130, Control_c, 0, 64, 79
2, 25205, Note_on_c, 0, 57, 0
2, 25209, Control_c, 0, 64, 78
2, 25213, Note_on_c, 0, 56, 42
2, 25218, Note_on_c, 0, 83, 70
2, 25224, Note_on_c, 0, 64, 51
2, 25231, Control_c, 0, 64, 76
2, 25246, Control_c, 0, 64, 72
2, 25265, Control_c, 0, 64, 67
2, 25284, Control_c, 0, 64, 62
2, 25306, Control_c, 0, 64, 58
2, 25324, Control_c, 0, 64, 54
2, 25344, Control_c, 0, 64, 51
2, 25362, Control_c, 0, 64, 48
2, 25381, Control_c, 0, 64, 45
2, 25403, Control_c, 0, 64, 41
2, 25419, Control_c, 0, 64, 36
2, 25439, Control_c, 0, 64, 29
2, 25457, Control_c, 0, 64, 22
2, 25466, Note_on_c, 0, 76, 75
2, 25479, Control_c, 0, 64, 18
2, 25495, Control_c, 0, 64, 17
2, 25515, Control_c, 0, 64, 16
2, 25533, Control_c, 0, 64, 15
2, 25541, Note_on_c, 0, 83, 0
2, 25554, Control_c, 0, 64, 14
2, 25572, Control_c, 0, 64, 13
2, 25700, Note_on_c, 0, 78, 79
2, 25747, Note_on_c, 0, 76, 0
2, 25785, Control_c, 0, 67, 124
2, 25804, Control_c, 0, 67, 119
2, 25822, Control_c, 0, 67, 114
2, 25841, Control_c, 0, 67, 109
2, 25860, Control_c, 0, 67, 102
2, 25882, Control_c, 0, 67, 94
2, 25900, Control_c, 0, 67, 85
2, 25918, Control_c, 0, 67, 74
2, 25933, Note_on_c, 0, 76, 79
2, 25938, Control_c, 0, 67, 65
2, 25957, Control_c, 0, 67, 57
2, 25975, Control_c, 0, 67, 54
2, 25995, Control_c, 0, 67, 53
2, 26071, Control_c, 0, 67, 55
2, 26092, Control_c, 0, 67, 57
2, 26113, Control_c, 0, 67, 58
2, 26114, Note_on_c, 0, 78, 0
2, 26134, Control_c, 0, 67, 60
2, 26153, Control_c, 0, 67, 61
2, 26153, Note_on_c, 0, 76, 0
2, 26169, Note_on_c, 0, 73, 73
2, 26173, Control_c, 0, 67, 63
2, 26189, Control_c, 0, 67, 64
2, 26206, Control_c, 0, 67, 65
2, 26226, Control_c, 0, 67, 66
2, 26246, Control_c, 0, 67, 67
2, 26301, Control_c, 0, 67, 68
2, 26342, Control_c, 0, 67, 69
2, 26374, Note_on_c, 0, 56, 0
2, 26380, Control_c, 0, 67, 70
2, 26385, Note_on_c, 0, 73, 0
2, 26394, Note_on_c, 0, 74, 68
2, 26404, Note_on_c, 0, 52, 32
2, 26475, Control_c, 0, 67, 71
2, 26519, Note_on_c, 0, 64, 0
2, 26533, Control_c, 0, 67, 72
2, 26571, Control_c, 0, 67, 74
2, 26591, Control_c, 0, 67, 78
2, 26609, Control_c, 0, 67, 81
2, 26622, Note_on_c, 0, 73, 67
2, 26631, Control_c, 0, 67, 84
2, 26635, Note_on_c, 0, 52, 0
2, 26649, Control_c, 0, 67, 86
2, 26657, Note_on_c, 0, 57, 44
2, 26668, Control_c, 0, 67, 88
2, 26668, Note_on_c, 0, 74, 0
2, 26687, Control_c, 0, 67, 92
2, 26706, Control_c, 0, 67, 95
2, 26724, Control_c, 0, 67, 98
2, 26743, Control_c, 0, 67, 101
2, 26892, Note_on_c, 0, 64, 41
2, 27052, Control_c, 0, 67, 102
2, 27100, Note_on_c, 0, 69, 63
2, 27104, Note_on_c, 0, 64, 0
2, 27120, Note_on_c, 0, 66, 43
2, 27318, Control_c, 0, 67, 103
2, 27342, Note_on_c, 0, 66, 0
2, 27360, Note_on_c, 0, 79, 81
2, 27364, Note_on_c, 0, 64, 42
2, 27398, Control_c, 0, 67, 104
2, 27435, Control_c, 0, 67, 105
2, 27456, Control_c, 0, 64, 12
2, 27503, Note_on_c, 0, 73, 0
2, 27541, Note_on_c, 0, 69, 0
2, 27604, Note_on_c, 0, 61, 47
2, 27721, Note_on_c, 0, 64, 0
2, 27822, Note_on_c, 0, 62, 44
2, 27844, Note_on_c, 0, 61, 0
2, 27896, Control_c, 0, 64, 11
2, 28078, Note_on_c, 0, 61, 48
2, 28132, Note_on_c, 0, 57, 0
2, 28203, Control_c, 0, 67, 104
2, 28218, Note_on_c, 0, 62, 0
2, 28287, Note_on_c, 0, 73, 67
2, 28305, Note_on_c, 0, 57, 43
2, 28399, Note_on_c, 0, 61, 0
2, 28504, Note_on_c, 0, 57, 0
2, 28522, Note_on_c, 0, 74, 71
2, 28541, Note_on_c, 0, 59, 49
2, 28550, Note_on_c, 0, 73, 0
2, 28613, Note_on_c, 0, 79, 0
2, 28743, Note_on_c, 0, 59, 0
2, 28771, Note_on_c, 0, 73, 71
2, 28776, Note_on_c, 0, 57, 46
2, 28780, Control_c, 0, 64, 10
2, 28816, Note_on_c, 0, 74, 0
2, 28876, Control_c, 0, 64, 9
2, 28959, Note_on_c, 0, 73, 0
2, 28990, Control_c, 0, 64, 8
2, 28994, Note_on_c, 0, 70, 60
2, 29005, Note_on_c, 0, 57, 0
2, 29009, Note_on_c, 0, 54, 47
2, 29011, Control_c, 0, 67, 105
2, 29049, Control_c, 0, 64, 0
2, 29065, Control_c, 0, 67, 106
2, 29087, Control_c, 0, 67, 107
2, 29107, Control_c, 0, 67, 108
2, 29125, Control_c, 0, 67, 117
2, 29145, Control_c, 0, 67, 127
2, 29190, Note_on_c, 0, 70, 0
2, 29216, Note_on_c, 0, 71, 55
2, 29223, Note_on_c, 0, 54, 0
2, 29246, Note_on_c, 0, 55, 47
2, 29465, Note_on_c, 0, 76, 66
2, 29476, Note_on_c, 0, 55, 0
2, 29488, Note_on_c, 0, 61, 25
2, 29491, Note_on_c, 0, 49, 33
2, 29491, Note_on_c, 0, 71, 0
2, 29706, Note_on_c, 0, 68, 58
2, 29814, Note_on_c, 0, 61, 0
2, 29953, Note_on_c, 0, 66, 59
2, 29995, Note_on_c, 0, 68, 0
2, 30180, Note_on_c, 0, 68, 64
2, 30261, Note_on_c, 0, 66, 0
2, 30395, Note_on_c, 0, 68, 0
2, 30402, Note_on_c, 0, 71, 60
2, 30625, Note_on_c, 0, 49, 0
2, 30627, Note_on_c, 0, 71, 0
2, 30636, Note_on_c, 0, 42, 43
2, 30655, Note_on_c, 0, 70, 58
2, 30872, Note_on_c, 0, 47, 44
2, 30883, Note_on_c, 0, 71, 59
2, 30909, Note_on_c, 0, 70, 0
2, 31008, Note_on_c, 0, 42, 0
2, 31076, Note_on_c, 0, 47, 0
2, 31114, Note_on_c, 0, 74, 62
2, 31119, Note_on_c, 0, 54, 51
2, 31145, Note_on_c, 0, 76, 0
2, 31255, Control_c, 0, 67, 124
2, 31277, Control_c, 0, 67, 120
2, 31296, Control_c, 0, 67, 115
2, 31306, Note_on_c, 0, 54, 0
2, 31314, Control_c, 0, 67, 109
2, 31334, Control_c, 0, 67, 102
2, 31340, Note_on_c, 0, 73, 78
2, 31355, Control_c, 0, 67, 95
2, 31362, Note_on_c, 0, 52, 41
2, 31372, Control_c, 0, 67, 87
2, 31385, Note_on_c, 0, 74, 0
2, 31392, Control_c, 0, 67, 79
2, 31409, Control_c, 0, 67, 72
2, 31431, Control_c, 0, 67, 67
2, 31449, Control_c, 0, 67, 62
2, 31470, Control_c, 0, 67, 58
2, 31485, Control_c, 0, 67, 55
2, 31507, Control_c, 0, 67, 52
2, 31578, Note_on_c, 0, 54, 43
2, 31578, Note_on_c, 0, 74, 71
2, 31635, Note_on_c, 0, 73, 0
2, 31647, Note_on_c, 0, 52, 0
2, 31659, Control_c, 0, 67, 53
2, 31720, Control_c, 0, 67, 54
2, 31736, Control_c, 0, 67, 55
2, 31756, Control_c, 0, 67, 56
2, 31774, Control_c, 0, 67, 57
2, 31774, Note_on_c, 0, 54, 0
2, 31793, Control_c, 0, 67, 58
2, 31814, Note_on_c, 0, 57, 48
2, 31833, Control_c, 0, 67, 59
2, 31852, Control_c, 0, 67, 61
2, 31870, Control_c, 0, 67, 63
2, 31890, Control_c, 0, 67, 64
2, 31907, Control_c, 0, 67, 65
2, 31948, Control_c, 0, 67, 66
2, 31973, Note_on_c, 0, 74, 0
2, 31978, Note_on_c, 0, 57, 0
2, 32004, Control_c, 0, 67, 67
2, 32026, Control_c, 0, 67, 68
2, 32026, Note_on_c, 0, 76, 58
2, 32055, Note_on_c, 0, 56, 36
2, 32119, Control_c, 0, 67, 69
2, 32247, Note_on_c, 0, 76, 0
2, 32255, Control_c, 0, 67, 70
2, 32272, Note_on_c, 0, 56, 0
2, 32272, Note_on_c, 0, 57, 41
2, 32272, Note_on_c, 0, 73, 60
2, 32314, Note_on_c, 0, 71, 0
2, 32350, Control_c, 0, 67, 71
2, 32407, Control_c, 0, 67, 74
2, 32427, Control_c, 0, 67, 78
2, 32449, Control_c, 0, 67, 83
2, 32465, Control_c, 0, 67, 86
2, 32483, Control_c, 0, 67, 88
2, 32498, Note_on_c, 0, 64, 65
2, 32503, Control_c, 0, 67, 90
2, 32522, Control_c, 0, 67, 94
2, 32543, Control_c, 0, 67, 97
2, 32561, Control_c, 0, 67, 102
2, 32580, Control_c, 0, 67, 105
2, 32602, Control_c, 0, 67, 110
2, 32618, Control_c, 0, 67, 114
2, 32639, Control_c, 0, 67, 119
2, 32659, Control_c, 0, 67, 124
2, 32677, Control_c, 0, 67, 127
2, 32742, Note_on_c, 0, 62, 60
2, 32748, Note_on_c, 0, 64, 0
2, 32967, Note_on_c, 0, 64, 65
2, 33000, Note_on_c, 0, 62, 0
2, 33188, Note_on_c, 0, 68, 70
2, 33193, Note_on_c, 0, 64, 0
2, 33432, Note_on_c, 0, 45, 36
2, 33432, Note_on_c, 0, 66, 48
2, 33439, Note_on_c, 0, 68, 0
2, 33443, Note_on_c, 0, 57, 0
2, 33664, Note_on_c, 0, 68, 53
2, 33680, Note_on_c, 0, 41, 43
2, 33781, Note_on_c, 0, 66, 0
2, 33900, Note_on_c, 0, 45, 0
2, 33905, Note_on_c, 0, 71, 63
2, 33925, Note_on_c, 0, 50, 44
2, 33967, Note_on_c, 0, 41, 0
2, 34099, Note_on_c, 0, 50, 0
2, 34140, Note_on_c, 0, 49, 47
2, 34140, Note_on_c, 0, 69, 66
2, 34157, Note_on_c, 0, 73, 0
2, 34170, Note_on_c, 0, 71, 0
2, 34376, Note_on_c, 0, 51, 45
2, 34389, Note_on_c, 0, 71, 67
2, 34416, Note_on_c, 0, 49, 0
2, 34446, Note_on_c, 0, 69, 0
2, 34569, Note_on_c, 0, 51, 0
2, 34609, Note_on_c, 0, 54, 46
2, 34830, Note_on_c, 0, 73, 64
2, 34832, Note_on_c, 0, 54, 0
2, 34834, Note_on_c, 0, 53, 41
2, 34841, Note_on_c, 0, 71, 0
2, 35071, Note_on_c, 0, 53, 0
2, 35082, Note_on_c, 0, 69, 63
2, 35091, Note_on_c, 0, 54, 39
2, 35116, Note_on_c, 0, 73, 0
2, 35271, Note_on_c, 0, 54, 0
2, 35309, Note_on_c, 0, 57, 46
2, 35314, Note_on_c, 0, 66, 67
2, 35331, Note_on_c, 0, 68, 0
2, 35512, Note_on_c, 0, 57, 0
2, 35519, Note_on_c, 0, 65, 62
2, 35534, Note_on_c, 0, 56, 52
2, 35575, Note_on_c, 0, 66, 0
2, 35774, Note_on_c, 0, 66, 66
2, 35787, Note_on_c, 0, 57, 50
2, 35868, Note_on_c, 0, 65, 0
2, 35898, Note_on_c, 0, 56, 0
2, 35983, Note_on_c, 0, 57, 0
2, 36017, Note_on_c, 0, 61, 47
2, 36226, Note_on_c, 0, 69, 0
2, 36230, Note_on_c, 0, 61, 0
2, 36243, Note_on_c, 0, 74, 63
2, 36257, Note_on_c, 0, 59, 44
2, 36475, Note_on_c, 0, 68, 66
2, 36503, Note_on_c, 0, 59, 0
2, 36503, Note_on_c, 0, 61, 36
2, 36639, Note_on_c, 0, 74, 0
2, 36690, Control_c, 0, 67, 124
2, 36707, Control_c, 0, 67, 119
2, 36721, Note_on_c, 0, 65, 56
2, 36731, Control_c, 0, 67, 113
2, 36746, Control_c, 0, 67, 110
2, 36751, Note_on_c, 0, 66, 0
2, 36770, Control_c, 0, 67, 106
2, 36785, Control_c, 0, 67, 104
2, 36805, Control_c, 0, 67, 100
2, 36823, Control_c, 0, 67, 96
2, 36843, Control_c, 0, 67, 92
2, 36861, Control_c, 0, 67, 87
2, 36881, Control_c, 0, 67, 82
2, 36900, Control_c, 0, 67, 78
2, 36920, Control_c, 0, 67, 74
2, 36940, Control_c, 0, 67, 70
2, 36959, Control_c, 0, 67, 67
2, 36968, Note_on_c, 0, 73, 75
2, 36977, Control_c, 0, 67, 63
2, 36999, Control_c, 0, 67, 60
2, 37016, Control_c, 0, 67, 57
2, 37035, Control_c, 0, 67, 55
2, 37054, Control_c, 0, 67, 53
2, 37075, Control_c, 0, 67, 50
2, 37096, Control_c, 0, 67, 49
2, 37115, Control_c, 0, 67, 47
2, 37129, Control_c, 0, 67, 45
2, 37150, Control_c, 0, 67, 43
2, 37169, Control_c, 0, 67, 42
2, 37192, Control_c, 0, 67, 40
2, 37208, Control_c, 0, 67, 38
2, 37219, Note_on_c, 0, 74, 60
2, 37228, Control_c, 0, 67, 37
2, 37247, Control_c, 0, 67, 36
2, 37269, Note_on_c, 0, 68, 0
2, 37299, Note_on_c, 0, 73, 0
2, 37460, Note_on_c, 0, 66, 57
2, 37567, Note_on_c, 0, 65, 0
2, 37649, Control_c, 0, 67, 37
2, 37693, Note_on_c, 0, 68, 66
2, 37746, Note_on_c, 0, 66, 0
2, 37750, Control_c, 0, 67, 38
2, 37916, Note_on_c, 0, 69, 67
2, 37920, Note_on_c, 0, 68, 0
2, 38013, Control_c, 0, 67, 39
2, 38144, Note_on_c, 0, 72, 80
2, 38149, Control_c, 0, 67, 40
2, 38184, Note_on_c, 0, 74, 0
2, 38385, Note_on_c, 0, 73, 79
2, 38613, Note_on_c, 0, 78, 86
2, 38789, Note_on_c, 0, 69, 0
2, 38831, Note_on_c, 0, 68, 66
2, 38840, Note_on_c, 0, 72, 0
2, 38865, Note_on_c, 0, 73, 0
2, 39061, Note_on_c, 0, 66, 72
2, 39070, Control_c, 0, 67, 41
2, 39109, Note_on_c, 0, 68, 0
2, 39308, Note_on_c, 0, 68, 73
2, 39540, Note_on_c, 0, 66, 0
2, 39545, Note_on_c, 0, 75, 78
2, 39597, Note_on_c, 0, 78, 0
2, 39608, Control_c, 0, 67, 42
2, 39765, Note_on_c, 0, 77, 81
2, 40020, Note_on_c, 0, 81, 84
2, 40107, Control_c, 0, 67, 41
2, 40260, Note_on_c, 0, 65, 58
2, 40310, Note_on_c, 0, 75, 0
2, 40310, Note_on_c, 0, 77, 0
2, 40346, Note_on_c, 0, 68, 0
2, 40490, Note_on_c, 0, 66, 59
2, 40510, Note_on_c, 0, 65, 0
2, 40720, Note_on_c, 0, 71, 62
2, 40726, Note_on_c, 0, 62, 54
2, 40832, Note_on_c, 0, 66, 0
2, 40890, Note_on_c, 0, 61, 0
2, 40932, Control_c, 0, 67, 42
2, 40952, Control_c, 0, 67, 43
2, 40957, Note_on_c, 0, 80, 78
2, 40971, Control_c, 0, 67, 44
2, 40990, Control_c, 0, 67, 45
2, 41028, Control_c, 0, 67, 46
2, 41048, Control_c, 0, 67, 47
2, 41055, Note_on_c, 0, 81, 0
2, 41067, Control_c, 0, 67, 49
2, 41105, Control_c, 0, 67, 50
2, 41185, Control_c, 0, 67, 51
2, 41189, Note_on_c, 0, 78, 88
2, 41277, Control_c, 0, 67, 52
2, 41281, Note_on_c, 0, 80, 0
2, 41355, Control_c, 0, 67, 53
2, 41412, Control_c, 0, 67, 54
2, 41423, Note_on_c, 0, 80, 83
2, 41470, Control_c, 0, 67, 55
2, 41526, Control_c, 0, 67, 56
2, 41567, Control_c, 0, 67, 57
2, 41647, Note_on_c, 0, 81, 76
2, 41659, Note_on_c, 0, 61, 49
2, 41706, Note_on_c, 0, 78, 0
2, 41811, Note_on_c, 0, 62, 0
2, 41879, Note_on_c, 0, 80, 0
2, 41888, Note_on_c, 0, 61, 0
2, 41905, Note_on_c, 0, 83, 72
2, 41910, Note_on_c, 0, 59, 39
2, 41920, Note_on_c, 0, 81, 0
2, 42137, Note_on_c, 0, 61, 37
2, 42153, Note_on_c, 0, 77, 68
2, 42160, Note_on_c, 0, 83, 0
2, 42184, Note_on_c, 0, 59, 0
2, 42357, Note_on_c, 0, 71, 0
2, 42388, Note_on_c, 0, 73, 55
2, 42589, Note_on_c, 0, 77, 0
2, 42606, Note_on_c, 0, 69, 50
2, 42612, Note_on_c, 0, 73, 0
2, 42617, Note_on_c, 0, 78, 63
2, 42852, Note_on_c, 0, 68, 53
2, 42859, Note_on_c, 0, 49, 39
2, 42883, Note_on_c, 0, 69, 0
2, 42935, Note_on_c, 0, 61, 0
2, 42967, Control_c, 0, 67, 58
2, 43044, Control_c, 0, 67, 59
2, 43063, Control_c, 0, 67, 60
2, 43082, Control_c, 0, 67, 65
2, 43087, Note_on_c, 0, 78, 0
2, 43098, Note_on_c, 0, 80, 65
2, 43102, Control_c, 0, 67, 76
2, 43122, Control_c, 0, 67, 87
2, 43143, Control_c, 0, 67, 96
2, 43160, Control_c, 0, 67, 102
2, 43177, Control_c, 0, 67, 109
2, 43199, Control_c, 0, 67, 115
2, 43218, Control_c, 0, 67, 120
2, 43236, Control_c, 0, 67, 123
2, 43254, Control_c, 0, 67, 125
2, 43277, Control_c, 0, 67, 127
2, 43306, Note_on_c, 0, 80, 0
2, 43321, Note_on_c, 0, 77, 61
2, 43553, Note_on_c, 0, 78, 59
2, 43579, Note_on_c, 0, 69, 41
2, 43587, Note_on_c, 0, 54, 36
2, 43625, Note_on_c, 0, 77, 0
2, 43686, Note_on_c, 0, 68, 0
2, 43740, Note_on_c, 0, 49, 0
2, 43806, Note_on_c, 0, 54, 0
2, 43806, Note_on_c, 0, 57, 42
2, 44015, Note_on_c, 0, 73, 67
2, 44025, Note_on_c, 0, 57, 0
2, 44041, Note_on_c, 0, 78, 0
2, 44045, Note_on_c, 0, 56, 43
2, 44259, Note_on_c, 0, 78, 70
2, 44292, Note_on_c, 0, 57, 46
2, 44342, Note_on_c, 0, 73, 0
2, 44384, Note_on_c, 0, 56, 0
2, 44437, Note_on_c, 0, 69, 0
2, 44472, Note_on_c, 0, 57, 0
2, 44509, Note_on_c, 0, 61, 47
2, 44714, Note_on_c, 0, 61, 0
2, 44736, Note_on_c, 0, 59, 45
2, 44741, Note_on_c, 0, 69, 51
2, 44972, Note_on_c, 0, 68, 61
2, 44974, Note_on_c, 0, 59, 0
2, 44983, Note_on_c, 0, 61, 36
2, 44998, Note_on_c, 0, 78, 0
2, 45039, Note_on_c, 0, 69, 0
2, 45204, Note_on_c, 0, 76, 67
2, 45448, Note_on_c, 0, 74, 74
2, 45525, Note_on_c, 0, 76, 0
2, 45686, Note_on_c, 0, 76, 72
2, 45716, Note_on_c, 0, 74, 0
2, 45902, Note_on_c, 0, 61, 0
2, 45926, Note_on_c, 0, 59, 44
2, 45932, Note_on_c, 0, 68, 0
2, 45932, Note_on_c, 0, 69, 59
2, 46146, Note_on_c, 0, 61, 41
2, 46164, Note_on_c, 0, 68, 66
2, 46178, Note_on_c, 0, 69, 0
2, 46187, Note_on_c, 0, 59, 0
2, 46346, Note_on_c, 0, 61, 0
2, 46402, Note_on_c, 0, 62, 42
2, 46402, Note_on_c, 0, 66, 58
2, 46406, Note_on_c, 0, 68, 0
2, 46593, Note_on_c, 0, 62, 0
2, 46617, Note_on_c, 0, 76, 0
2, 46621, Note_on_c, 0, 68, 64
2, 46635, Note_on_c, 0, 59, 38
2, 46836, Note_on_c, 0, 69, 67
2, 46874, Note_on_c, 0, 59, 0
2, 46884, Note_on_c, 0, 61, 40
2, 46964, Note_on_c, 0, 68, 0
2, 46970, Note_on_c, 0, 66, 0
2, 47061, Note_on_c, 0, 61, 0
2, 47070, Note_on_c, 0, 74, 70
2, 47097, Note_on_c, 0, 59, 33
2, 47127, Note_on_c, 0, 69, 0
2, 47297, Note_on_c, 0, 59, 0
2, 47302, Note_on_c, 0, 56, 50
2, 47530, Note_on_c, 0, 56, 0
2, 47545, Note_on_c, 0, 66, 55
2, 47560, Note_on_c, 0, 57, 45
2, 47733, Note_on_c, 0, 57, 0
2, 47779, Note_on_c, 0, 56, 43
2, 47779, Note_on_c, 0, 64, 61
2, 47788, Note_on_c, 0, 66, 0
2, 47973, Note_on_c, 0, 56, 0
2, 48015, Note_on_c, 0, 73, 71
2, 48020, Note_on_c, 0, 52, 42
2, 48067, Note_on_c, 0, 74, 0
2, 48171, Control_c, 0, 67, 125
2, 48189, Control_c, 0, 67, 119
2, 48209, Control_c, 0, 67, 112
2, 48229, Control_c, 0, 67, 106
2, 48236, Note_on_c, 0, 71, 68
2, 48250, Control_c, 0, 67, 101
2, 48255, Note_on_c, 0, 54, 52
2, 48267, Control_c, 0, 67, 98
2, 48271, Note_on_c, 0, 73, 0
2, 48287, Control_c, 0, 67, 94
2, 48305, Control_c, 0, 67, 87
2, 48325, Control_c, 0, 67, 76
2, 48343, Control_c, 0, 67, 65
2, 48347, Note_on_c, 0, 52, 0
2, 48363, Control_c, 0, 67, 56
2, 48385, Control_c, 0, 67, 49
2, 48405, Control_c, 0, 67, 46
2, 48422, Control_c, 0, 67, 45
2, 48440, Control_c, 0, 67, 44
2, 48478, Note_on_c, 0, 73, 67
2, 48492, Note_on_c, 0, 55, 47
2, 48496, Note_on_c, 0, 64, 0
2, 48522, Note_on_c, 0, 71, 0
2, 48530, Note_on_c, 0, 54, 0
2, 48614, Control_c, 0, 67, 45
2, 48691, Control_c, 0, 67, 46
2, 48695, Note_on_c, 0, 55, 0
2, 48717, Note_on_c, 0, 57, 51
2, 48728, Control_c, 0, 67, 47
2, 48804, Control_c, 0, 67, 48
2, 48899, Control_c, 0, 67, 49
2, 48939, Note_on_c, 0, 64, 58
2, 48944, Note_on_c, 0, 55, 49
2, 49033, Control_c, 0, 67, 50
2, 49054, Note_on_c, 0, 57, 0
2, 49114, Note_on_c, 0, 73, 0
2, 49130, Control_c, 0, 67, 51
2, 49155, Note_on_c, 0, 62, 61
2, 49162, Note_on_c, 0, 55, 0
2, 49193, Note_on_c, 0, 54, 48
2, 49206, Control_c, 0, 67, 52
2, 49245, Control_c, 0, 67, 53
2, 49252, Note_on_c, 0, 64, 0
2, 49303, Control_c, 0, 67, 54
2, 49399, Control_c, 0, 67, 55
2, 49406, Note_on_c, 0, 71, 65
2, 49413, Note_on_c, 0, 54, 0
2, 49422, Note_on_c, 0, 50, 49
2, 49475, Control_c, 0, 67, 56
2, 49555, Control_c, 0, 67, 57
2, 49630, Control_c, 0, 67, 58
2, 49641, Note_on_c, 0, 69, 62
2, 49645, Note_on_c, 0, 71, 0
2, 49652, Note_on_c, 0, 50, 0
2, 49652, Note_on_c, 0, 52, 49
2, 49667, Control_c, 0, 67, 59
2, 49687, Control_c, 0, 67, 60
2, 49746, Control_c, 0, 67, 61
2, 49870, Note_on_c, 0, 52, 0
2, 49870, Note_on_c, 0, 71, 67
2, 49883, Note_on_c, 0, 69, 0
2, 49888, Note_on_c, 0, 53, 45
2, 49972, Note_on_c, 0, 62, 0
2, 50113, Note_on_c, 0, 55, 47
2, 50133, Note_on_c, 0, 53, 0
2, 50207, Control_c, 0, 67, 60
2, 50340, Note_on_c, 0, 53, 49
2, 50344, Note_on_c, 0, 55, 0
2, 50349, Note_on_c, 0, 62, 69
2, 50562, Note_on_c, 0, 53, 0
2, 50583, Note_on_c, 0, 61, 68
2, 50588, Note_on_c, 0, 52, 50
2, 50724, Note_on_c, 0, 62, 0
2, 50744, Control_c, 0, 67, 61
2, 50802, Note_on_c, 0, 52, 0
2, 50815, Note_on_c, 0, 71, 0
2, 50820, Control_c, 0, 67, 62
2, 50824, Note_on_c, 0, 68, 77
2, 50834, Note_on_c, 0, 53, 57
2, 50860, Control_c, 0, 67, 63
2, 50896, Control_c, 0, 67, 65
2, 51011, Control_c, 0, 67, 66
2, 51049, Note_on_c, 0, 52, 53
2, 51049, Note_on_c, 0, 69, 68
2, 51062, Note_on_c, 0, 53, 0
2, 51070, Control_c, 0, 67, 67
2, 51088, Control_c, 0, 67, 69
2, 51107, Control_c, 0, 67, 74
2, 51120, Note_on_c, 0, 68, 0
2, 51127, Control_c, 0, 67, 81
2, 51127, Note_on_c, 0, 61, 0
2, 51147, Control_c, 0, 67, 87
2, 51166, Control_c, 0, 67, 95
2, 51183, Control_c, 0, 67, 100
2, 51203, Control_c, 0, 67, 104
2, 51223, Control_c, 0, 67, 108
2, 51241, Control_c, 0, 67, 112
2, 51254, Note_on_c, 0, 52, 0
2, 51261, Control_c, 0, 67, 117
2, 51283, Note_on_c, 0, 51, 56
2, 51283, Note_on_c, 0, 60, 68
2, 51285, Control_c, 0, 67, 123
2, 51304, Control_c, 0, 67, 127
2, 51457, Note_on_c, 0, 69, 0
2, 51479, Note_on_c, 0, 51, 0
2, 51527, Note_on_c, 0, 60, 0
2, 51532, Note_on_c, 0, 52, 53
2, 51532, Note_on_c, 0, 59, 70
2, 51733, Note_on_c, 0, 59, 0
2, 51739, Note_on_c, 0, 52, 0
2, 51760, Note_on_c, 0, 60, 56
2, 51760, Note_on_c, 0, 69, 61
2, 51764, Note_on_c, 0, 51, 53
2, 51852, Note_on_c, 0, 69, 0
2, 51932, Note_on_c, 0, 60, 0
2, 51942, Note_on_c, 0, 51, 0
2, 51999, Note_on_c, 0, 52, 48
2, 52002, Note_on_c, 0, 59, 57
2, 52002, Note_on_c, 0, 69, 59
2, 52227, Note_on_c, 0, 52, 0
2, 52231, Note_on_c, 0, 47, 35
2, 52234, Note_on_c, 0, 68, 59
2, 52294, Note_on_c, 0, 69, 0
2, 52419, Note_on_c, 0, 59, 0
2, 52465, Note_on_c, 0, 47, 0
2, 52471, Note_on_c, 0, 49, 39
2, 52702, Note_on_c, 0, 49, 0
2, 52720, Note_on_c, 0, 47, 35
2, 52955, Note_on_c, 0, 44, 45
2, 52982, Note_on_c, 0, 47, 0
2, 53134, Note_on_c, 0, 68, 0
2, 53165, Note_on_c, 0, 44, 0
2, 53178, Note_on_c, 0, 64, 57
2, 53187, Note_on_c, 0, 45, 38
2, 53400, Note_on_c, 0, 44, 39
2, 53418, Note_on_c, 0, 45, 0
2, 53427, Note_on_c, 0, 71, 67
2, 53430, Note_on_c, 0, 64, 0
2, 53666, Note_on_c, 0, 64, 65
2, 53688, Note_on_c, 0, 71, 0
2, 53901, Note_on_c, 0, 66, 71
2, 53910, Note_on_c, 0, 64, 0
2, 54113, Note_on_c, 0, 64, 59
2, 54144, Note_on_c, 0, 66, 0
2, 54256, Control_c, 0, 64, 8
2, 54274, Control_c, 0, 64, 15
2, 54291, Control_c, 0, 64, 21
2, 54310, Control_c, 0, 64, 25
2, 54331, Control_c, 0, 64, 28
2, 54331, Note_on_c, 0, 64, 0
2, 54352, Control_c, 0, 64, 31
2, 54360, Note_on_c, 0, 61, 52
2, 54369, Control_c, 0, 64, 35
2, 54390, Control_c, 0, 64, 37
2, 54408, Control_c, 0, 64, 38
2, 54426, Control_c, 0, 64, 39
2, 54463, Control_c, 0, 64, 38
2, 54488, Control_c, 0, 64, 37
2, 54521, Control_c, 0, 64, 36
2, 54553, Note_on_c, 0, 61, 0
2, 54574, Note_on_c, 0, 40, 28
2, 54574, Note_on_c, 0, 62, 52
2, 54600, Control_c, 0, 64, 35
2, 54617, Note_on_c, 0, 44, 0
2, 54638, Control_c, 0, 64, 33
2, 54657, Control_c, 0, 64, 32
2, 54676, Control_c, 0, 64, 30
2, 54695, Control_c, 0, 64, 27
2, 54713, Control_c, 0, 64, 25
2, 54733, Control_c, 0, 64, 22
2, 54753, Control_c, 0, 64, 20
2, 54773, Control_c, 0, 64, 19
2, 54778, Note_on_c, 0, 62, 0
2, 54813, Control_c, 0, 64, 20
2, 54813, Note_on_c, 0, 45, 36
2, 54818, Note_on_c, 0, 64, 54
2, 54823, Note_on_c, 0, 40, 0
2, 54831, Control_c, 0, 64, 23
2, 54831, Note_on_c, 0, 61, 40
2, 54849, Control_c, 0, 64, 29
2, 54868, Control_c, 0, 64, 35
2, 54886, Control_c, 0, 64, 42
2, 54907, Control_c, 0, 64, 50
2, 54929, Control_c, 0, 64, 58
2, 54946, Control_c, 0, 64, 60
2, 54964, Control_c, 0, 64, 61
2, 54983, Control_c, 0, 64, 63
2, 55003, Control_c, 0, 64, 66
2, 55007, Note_on_c, 0, 64, 0
2, 55026, Control_c, 0, 64, 69
2, 55041, Control_c, 0, 64, 73
2, 55045, Note_on_c, 0, 69, 55
2, 55059, Control_c, 0, 64, 78
2, 55080, Control_c, 0, 64, 80
2, 55098, Control_c, 0, 64, 82
2, 55111, Note_on_c, 0, 61, 0
2, 55118, Control_c, 0, 64, 84
2, 55135, Control_c, 0, 64, 87
2, 55154, Control_c, 0, 64, 90
2, 55175, Control_c, 0, 64, 92
2, 55253, Control_c, 0, 64, 93
2, 55273, Note_on_c, 0, 69, 0
2, 55296, Note_on_c, 0, 68, 64
2, 55314, Note_on_c, 0, 59, 54
2, 55330, Control_c, 0, 64, 90
2, 55347, Control_c, 0, 64, 81
2, 55369, Control_c, 0, 64, 69
2, 55388, Control_c, 0, 64, 57
2, 55410, Control_c, 0, 64, 47
2, 55410, Control_c, 0, 67, 126
2, 55427, Control_c, 0, 64, 45
2, 55427, Control_c, 0, 67, 121
2, 55444, Control_c, 0, 64, 51
2, 55449, Control_c, 0, 67, 115
2, 55468, Control_c, 0, 64, 59
2, 55468, Control_c, 0, 67, 110
2, 55472, Note_on_c, 0, 59, 0
2, 55482, Control_c, 0, 64, 65
2, 55487, Control_c, 0, 67, 105
2, 55506, Control_c, 0, 64, 72
2, 55506, Control_c, 0, 67, 100
2, 55514, Note_on_c, 0, 61, 55
2, 55523, Control_c, 0, 64, 106
2, 55523, Control_c, 0, 67, 95
2, 55528, Note_on_c, 0, 69, 66
2, 55542, Control_c, 0, 64, 127
2, 55542, Control_c, 0, 67, 89
2, 55560, Control_c, 0, 67, 82
2, 55569, Note_on_c, 0, 61, 0
2, 55580, Control_c, 0, 67, 74
2, 55598, Control_c, 0, 67, 67
2, 55617, Control_c, 0, 67, 61
2, 55622, Note_on_c, 0, 69, 0
2, 55624, Note_on_c, 0, 68, 0
2, 55637, Control_c, 0, 67, 56
2, 55656, Control_c, 0, 67, 50
2, 55675, Control_c, 0, 67, 44
2, 55679, Note_on_c, 0, 45, 0
2, 55694, Control_c, 0, 67, 38
2, 55713, Control_c, 0, 67, 32
2, 55733, Control_c, 0, 67, 28
2, 55749, Note_on_c, 0, 73, 76
2, 55751, Control_c, 0, 67, 25
2, 55770, Control_c, 0, 67, 22
2, 55789, Control_c, 0, 67, 17
2, 55808, Control_c, 0, 67, 9
2, 55831, Control_c, 0, 67, 0
2, 55985, Note_on_c, 0, 71, 75
2, 55989, Note_on_c, 0, 62, 66
2, 56006, Note_on_c, 0, 73, 0
2, 56089, Note_on_c, 0, 62, 0
2, 56215, Control_c, 0, 64, 96
2, 56230, Note_on_c, 0, 73, 83
2, 56237, Control_c, 0, 64, 72
2, 56237, Note_on_c, 0, 45, 42
2, 56237, Note_on_c, 0, 64, 68
2, 56254, Control_c, 0, 64, 60
2, 56259, Note_on_c, 0, 71, 0
2, 56269, Control_c, 0, 64, 47
2, 56288, Control_c, 0, 64, 39
2, 56308, Control_c, 0, 64, 36
2, 56331, Control_c, 0, 64, 35
2, 56386, Control_c, 0, 64, 41
2, 56404, Control_c, 0, 64, 52
2, 56423, Control_c, 0, 64, 61
2, 56442, Control_c, 0, 64, 64
2, 56460, Note_on_c, 0, 69, 65
2, 56464, Control_c, 0, 64, 67
2, 56480, Control_c, 0, 64, 75
2, 56501, Control_c, 0, 64, 91
2, 56521, Control_c, 0, 64, 127
2, 56619, Note_on_c, 0, 64, 0
2, 56634, Control_c, 0, 64, 97
2, 56654, Control_c, 0, 64, 68
2, 56669, Note_on_c, 0, 73, 0
2, 56676, Control_c, 0, 64, 52
2, 56696, Control_c, 0, 64, 37
2, 56696, Note_on_c, 0, 68, 67
2, 56700, Note_on_c, 0, 71, 77
2, 56712, Control_c, 0, 64, 38
2, 56733, Control_c, 0, 64, 51
2, 56749, Control_c, 0, 64, 64
2, 56770, Control_c, 0, 64, 74
2, 56788, Control_c, 0, 64, 100
2, 56795, Note_on_c, 0, 69, 0
2, 56808, Control_c, 0, 64, 127
2, 56918, Note_on_c, 0, 73, 85
2, 56925, Control_c, 0, 64, 105
2, 56931, Note_on_c, 0, 69, 77
2, 56942, Note_on_c, 0, 68, 0
2, 56946, Control_c, 0, 64, 70
2, 56964, Control_c, 0, 64, 54
2, 56969, Note_on_c, 0, 71, 0
2, 56981, Control_c, 0, 64, 47
2, 57002, Control_c, 0, 64, 56
2, 57019, Control_c, 0, 64, 65
2, 57038, Control_c, 0, 64, 80
2, 57038, Note_on_c, 0, 73, 0
2, 57060, Control_c, 0, 64, 127
2, 57119, Note_on_c, 0, 69, 0
2, 57160, Note_on_c, 0, 73, 84
2, 57160, Note_on_c, 0, 76, 79
2, 57173, Note_on_c, 0, 45, 0
2, 57288, Control_c, 0, 64, 82
2, 57306, Control_c, 0, 64, 65
2, 57326, Control_c, 0, 64, 56
2, 57344, Control_c, 0, 64, 58
2, 57344, Note_on_c, 0, 76, 0
2, 57366, Control_c, 0, 64, 65
2, 57386, Control_c, 0, 64, 77
2, 57386, Note_on_c, 0, 71, 87
2, 57386, Note_on_c, 0, 74, 79
2, 57404, Control_c, 0, 64, 127
2, 57418, Note_on_c, 0, 73, 0
2, 57484, Note_on_c, 0, 74, 0
2, 57605, Note_on_c, 0, 73, 76
2, 57616, Note_on_c, 0, 76, 75
2, 57623, Note_on_c, 0, 57, 55
2, 57634, Note_on_c, 0, 71, 0
2, 57691, Control_c, 0, 64, 108
2, 57710, Control_c, 0, 64, 89
2, 57730, Control_c, 0, 64, 73
2, 57732, Note_on_c, 0, 78, 83
2, 57749, Control_c, 0, 64, 64
2, 57766, Control_c, 0, 64, 58
2, 57786, Control_c, 0, 64, 56
2, 57804, Control_c, 0, 64, 55
2, 57825, Note_on_c, 0, 57, 0
2, 57836, Note_on_c, 0, 76, 0
2, 57845, Control_c, 0, 64, 53
2, 57851, Note_on_c, 0, 79, 84
2, 57862, Note_on_c, 0, 52, 50
2, 57867, Control_c, 0, 64, 49
2, 57883, Control_c, 0, 64, 44
2, 57903, Control_c, 0, 64, 38
2, 57903, Control_c, 0, 67, 8
2, 57923, Control_c, 0, 64, 32
2, 57923, Control_c, 0, 67, 11
2, 57943, Control_c, 0, 64, 28
2, 57943, Control_c, 0, 67, 15
2, 57960, Control_c, 0, 64, 24
2, 57960, Control_c, 0, 67, 19
2, 57983, Control_c, 0, 64, 20
2, 57983, Control_c, 0, 67, 24
2, 58001, Control_c, 0, 64, 15
2, 58001, Control_c, 0, 67, 29
2, 58016, Control_c, 0, 64, 8
2, 58021, Control_c, 0, 67, 34
2, 58037, Control_c, 0, 64, 0
2, 58037, Control_c, 0, 67, 39
2, 58054, Control_c, 0, 67, 42
2, 58078, Control_c, 0, 67, 45
2, 58078, Note_on_c, 0, 78, 0
2, 58094, Control_c, 0, 67, 48
2, 58100, Note_on_c, 0, 52, 0
2, 58113, Control_c, 0, 67, 53
2, 58118, Note_on_c, 0, 54, 47
2, 58131, Control_c, 0, 67, 61
2, 58153, Control_c, 0, 67, 70
2, 58173, Control_c, 0, 67, 77
2, 58189, Control_c, 0, 67, 82
2, 58207, Control_c, 0, 67, 88
2, 58227, Control_c, 0, 67, 92
2, 58250, Control_c, 0, 67, 96
2, 58266, Control_c, 0, 67, 100
2, 58287, Control_c, 0, 67, 106
2, 58305, Control_c, 0, 67, 111
2, 58321, Note_on_c, 0, 54, 0
2, 58325, Control_c, 0, 67, 118
2, 58346, Control_c, 0, 67, 124
2, 58352, Note_on_c, 0, 52, 43
2, 58363, Control_c, 0, 67, 127
2, 58583, Note_on_c, 0, 49, 43
2, 58599, Note_on_c, 0, 52, 0
2, 58721, Note_on_c, 0, 79, 0
2, 58790, Note_on_c, 0, 69, 58
2, 58801, Note_on_c, 0, 50, 43
2, 58827, Note_on_c, 0, 73, 0
2, 58838, Note_on_c, 0, 49, 0
2, 59017, Note_on_c, 0, 50, 0
2, 59023, Note_on_c, 0, 69, 0
2, 59027, Note_on_c, 0, 49, 40
2, 59029, Note_on_c, 0, 76, 66
2, 59258, Note_on_c, 0, 76, 0
2, 59262, Note_on_c, 0, 69, 56
2, 59499, Note_on_c, 0, 69, 0
2, 59516, Note_on_c, 0, 71, 53
2, 59715, Note_on_c, 0, 71, 0
2, 59724, Note_on_c, 0, 69, 47
2, 59948, Note_on_c, 0, 69, 0
2, 59962, Note_on_c, 0, 66, 52
2, 60168, Note_on_c, 0, 45, 31
2, 60178, Note_on_c, 0, 49, 0
2, 60190, Note_on_c, 0, 66, 0
2, 60196, Note_on_c, 0, 67, 53
2, 60433, Note_on_c, 0, 50, 41
2, 60446, Note_on_c, 0, 57, 49
2, 60451, Note_on_c, 0, 66, 56
2, 60455, Note_on_c, 0, 67, 0
2, 60470, Note_on_c, 0, 45, 0
2, 60620, Note_on_c, 0, 50, 0
2, 60620, Note_on_c, 0, 50, 6
2, 60642, Note_on_c, 0, 57, 0
2, 60680, Note_on_c, 0, 62, 54
2, 60872, Note_on_c, 0, 50, 0
2, 60906, Note_on_c, 0, 61, 57
2, 60926, Note_on_c, 0, 45, 42
2, 60969, Note_on_c, 0, 62, 0
2, 61153, Note_on_c, 0, 62, 65
2, 61160, Note_on_c, 0, 45, 0
2, 61160, Note_on_c, 0, 66, 0
2, 61164, Note_on_c, 0, 42, 44
2, 61185, Note_on_c, 0, 61, 0
2, 61378, Note_on_c, 0, 66, 72
2, 61481, Note_on_c, 0, 62, 0
2, 61603, Note_on_c, 0, 42, 0
2, 61611, Note_on_c, 0, 64, 74
2, 61621, Note_on_c, 0, 45, 38
2, 61660, Note_on_c, 0, 66, 0
2, 61848, Note_on_c, 0, 45, 0
2, 61853, Note_on_c, 0, 66, 64
2, 61871, Note_on_c, 0, 38, 38
2, 61911, Note_on_c, 0, 64, 0
2, 62088, Note_on_c, 0, 69, 62
2, 62321, Note_on_c, 0, 67, 63
2, 62325, Note_on_c, 0, 69, 0
2, 62330, Note_on_c, 0, 40, 32
2, 62421, Note_on_c, 0, 38, 0
2, 62544, Note_on_c, 0, 42, 48
2, 62544, Note_on_c, 0, 67, 0
2, 62552, Note_on_c, 0, 69, 57
2, 62572, Note_on_c, 0, 40, 0
2, 62776, Note_on_c, 0, 69, 0
2, 62794, Note_on_c, 0, 73, 69
2, 63019, Note_on_c, 0, 71, 58
2, 63038, Note_on_c, 0, 38, 40
2, 63066, Note_on_c, 0, 42, 0
2, 63066, Note_on_c, 0, 73, 0
2, 63264, Note_on_c, 0, 73, 58
2, 63276, Note_on_c, 0, 38, 0
2, 63280, Note_on_c, 0, 45, 46
2, 63280, Note_on_c, 0, 71, 0
2, 63424, Note_on_c, 0, 45, 0
2, 63495, Note_on_c, 0, 64, 65
2, 63509, Note_on_c, 0, 66, 0
2, 63719, Note_on_c, 0, 57, 69
2, 63740, Note_on_c, 0, 62, 69
2, 63744, Note_on_c, 0, 64, 0
2, 63767, Note_on_c, 0, 57, 0
2, 63941, Note_on_c, 0, 62, 0
2, 63955, Note_on_c, 0, 64, 68
2, 63977, Note_on_c, 0, 57, 50
2, 64199, Note_on_c, 0, 67, 70
2, 64204, Note_on_c, 0, 64, 0
2, 64423, Note_on_c, 0, 57, 0
2, 64427, Note_on_c, 0, 66, 72
2, 64437, Note_on_c, 0, 45, 41
2, 64464, Note_on_c, 0, 67, 0
2, 64602, Control_c, 0, 67, 126
2, 64620, Control_c, 0, 67, 121
2, 64640, Control_c, 0, 67, 115
2, 64658, Control_c, 0, 67, 109
2, 64669, Note_on_c, 0, 67, 69
2, 64680, Control_c, 0, 67, 104
2, 64680, Note_on_c, 0, 52, 51
2, 64697, Control_c, 0, 67, 99
2, 64721, Control_c, 0, 67, 96
2, 64721, Note_on_c, 0, 45, 0
2, 64726, Note_on_c, 0, 66, 0
2, 64737, Control_c, 0, 67, 94
2, 64758, Control_c, 0, 67, 91
2, 64775, Control_c, 0, 67, 88
2, 64795, Control_c, 0, 67, 86
2, 64813, Control_c, 0, 67, 85
2, 64833, Control_c, 0, 67, 84
2, 64850, Control_c, 0, 67, 83
2, 64901, Note_on_c, 0, 71, 69
2, 65037, Note_on_c, 0, 73, 0
2, 65152, Note_on_c, 0, 64, 63
2, 65152, Note_on_c, 0, 70, 80
2, 65160, Control_c, 0, 67, 84
2, 65200, Control_c, 0, 67, 85
2, 65200, Note_on_c, 0, 71, 0
2, 65205, Note_on_c, 0, 64, 0
2, 65212, Note_on_c, 0, 52, 0
2, 65274, Control_c, 0, 67, 86
2, 65369, Control_c, 0, 67, 87
2, 65399, Note_on_c, 0, 71, 72
2, 65416, Note_on_c, 0, 64, 61
2, 65486, Control_c, 0, 67, 88
2, 65614, Note_on_c, 0, 70, 0
2, 65635, Note_on_c, 0, 74, 78
2, 65656, Note_on_c, 0, 71, 0
2, 65660, Control_c, 0, 67, 89
2, 65677, Control_c, 0, 67, 91
2, 65774, Control_c, 0, 67, 92
2, 65827, Note_on_c, 0, 64, 0
2, 65832, Control_c, 0, 67, 93
2, 65850, Control_c, 0, 67, 94
2, 65869, Control_c, 0, 67, 95
2, 65877, Note_on_c, 0, 73, 76
2, 65882, Note_on_c, 0, 58, 44
2, 65889, Control_c, 0, 67, 96
2, 65908, Note_on_c, 0, 74, 0
2, 65926, Control_c, 0, 67, 97
2, 65963, Control_c, 0, 67, 98
2, 65983, Control_c, 0, 67, 99
2, 66043, Control_c, 0, 67, 100
2, 66103, Note_on_c, 0, 58, 0
2, 66122, Note_on_c, 0, 74, 64
2, 66127, Control_c, 0, 67, 99
2, 66139, Note_on_c, 0, 59, 50
2, 66145, Note_on_c, 0, 73, 0
2, 66256, Control_c, 0, 67, 98
2, 66310, Note_on_c, 0, 59, 0
2, 66314, Control_c, 0, 67, 97
2, 66352, Note_on_c, 0, 47, 46
2, 66354, Note_on_c, 0, 66, 55
2, 66374, Control_c, 0, 67, 96
2, 66374, Note_on_c, 0, 67, 0
2, 66448, Control_c, 0, 67, 95
2, 66564, Control_c, 0, 67, 94
2, 66593, Note_on_c, 0, 49, 54
2, 66593, Note_on_c, 0, 64, 69
2, 66602, Note_on_c, 0, 66, 0
2, 66693, Note_on_c, 0, 47, 0
2, 66798, Note_on_c, 0, 66, 67
2, 66813, Note_on_c, 0, 50, 56
2, 66838, Note_on_c, 0, 49, 0
2, 66874, Note_on_c, 0, 64, 0
2, 67028, Note_on_c, 0, 49, 54
2, 67048, Note_on_c, 0, 70, 69
2, 67068, Note_on_c, 0, 66, 0
2, 67077, Note_on_c, 0, 50, 0
2, 67120, Control_c, 0, 67, 93
2, 67235, Control_c, 0, 67, 92
2, 67270, Note_on_c, 0, 47, 68
2, 67279, Note_on_c, 0, 49, 0
2, 67279, Note_on_c, 0, 68, 71
2, 67315, Control_c, 0, 67, 91
2, 67315, Note_on_c, 0, 70, 0
2, 67411, Control_c, 0, 67, 90
2, 67505, Control_c, 0, 67, 89
2, 67513, Note_on_c, 0, 54, 69
2, 67527, Note_on_c, 0, 70, 69
2, 67546, Note_on_c, 0, 68, 0
2, 67738, Note_on_c, 0, 52, 70
2, 67749, Note_on_c, 0, 68, 70
2, 67797, Note_on_c, 0, 70, 0
2, 67801, Note_on_c, 0, 54, 0
2, 67934, Note_on_c, 0, 47, 0
2, 67972, Note_on_c, 0, 50, 72
2, 67990, Note_on_c, 0, 66, 70
2, 68013, Note_on_c, 0, 68, 0
2, 68017, Note_on_c, 0, 52, 0
2, 68079, Control_c, 0, 67, 90
2, 68215, Note_on_c, 0, 52, 72
2, 68226, Note_on_c, 0, 68, 75
2, 68284, Note_on_c, 0, 50, 0
2, 68415, Note_on_c, 0, 66, 0
2, 68446, Note_on_c, 0, 55, 69
2, 68446, Note_on_c, 0, 71, 77
2, 68470, Note_on_c, 0, 68, 0
2, 68488, Note_on_c, 0, 52, 0
2, 68677, Note_on_c, 0, 54, 59
2, 68682, Note_on_c, 0, 70, 78
2, 68691, Note_on_c, 0, 55, 0
2, 68719, Note_on_c, 0, 71, 0
2, 68771, Control_c, 0, 67, 91
2, 68806, Note_on_c, 0, 74, 0
2, 68924, Note_on_c, 0, 71, 75
2, 68933, Note_on_c, 0, 55, 47
2, 68950, Note_on_c, 0, 70, 0
2, 68991, Note_on_c, 0, 54, 0
2, 69059, Control_c, 0, 67, 90
2, 69149, Note_on_c, 0, 76, 84
2, 69156, Control_c, 0, 67, 89
2, 69365, Note_on_c, 0, 55, 0
2, 69374, Note_on_c, 0, 78, 89
2, 69386, Control_c, 0, 67, 88
2, 69387, Note_on_c, 0, 54, 50
2, 69636, Note_on_c, 0, 79, 87
2, 69640, Note_on_c, 0, 76, 0
2, 69645, Note_on_c, 0, 52, 45
2, 69674, Control_c, 0, 67, 89
2, 69699, Note_on_c, 0, 54, 0
2, 69743, Note_on_c, 0, 78, 0
2, 69769, Control_c, 0, 67, 90
2, 69866, Control_c, 0, 67, 91
2, 69873, Note_on_c, 0, 73, 71
2, 69885, Control_c, 0, 67, 92
2, 69962, Control_c, 0, 67, 93
2, 69985, Note_on_c, 0, 71, 0
2, 70003, Control_c, 0, 67, 94
2, 70041, Control_c, 0, 67, 95
2, 70059, Control_c, 0, 67, 96
2, 70076, Control_c, 0, 67, 97
2, 70094, Note_on_c, 0, 74, 62
2, 70096, Control_c, 0, 67, 98
2, 70098, Note_on_c, 0, 50, 36
2, 70117, Note_on_c, 0, 52, 0
2, 70126, Note_on_c, 0, 73, 0
2, 70134, Control_c, 0, 67, 99
2, 70155, Control_c, 0, 67, 100
2, 70191, Control_c, 0, 67, 101
2, 70210, Control_c, 0, 67, 102
2, 70250, Control_c, 0, 67, 103
2, 70287, Control_c, 0, 67, 104
2, 70308, Control_c, 0, 67, 106
2, 70325, Control_c, 0, 67, 114
2, 70330, Note_on_c, 0, 50, 0
2, 70340, Note_on_c, 0, 49, 38
2, 70340, Note_on_c, 0, 76, 66
2, 70345, Control_c, 0, 67, 122
2, 70365, Control_c, 0, 67, 127
2, 70412, Note_on_c, 0, 79, 0
2, 70485, Note_on_c, 0, 74, 0
2, 70580, Note_on_c, 0, 78, 79
2, 70599, Note_on_c, 0, 69, 42
2, 70614, Note_on_c, 0, 76, 0
2, 70808, Note_on_c, 0, 76, 70
2, 70846, Note_on_c, 0, 78, 0
2, 71064, Note_on_c, 0, 50, 33
2, 71069, Note_on_c, 0, 78, 79
2, 71073, Note_on_c, 0, 76, 0
2, 71116, Note_on_c, 0, 49, 0
2, 71287, Note_on_c, 0, 69, 0
2, 71307, Note_on_c, 0, 71, 57
2, 71545, Note_on_c, 0, 73, 60
2, 71550, Note_on_c, 0, 71, 0
2, 71772, Note_on_c, 0, 47, 32
2, 71779, Note_on_c, 0, 74, 56
2, 71813, Note_on_c, 0, 78, 0
2, 71818, Note_on_c, 0, 50, 0
2, 71981, Note_on_c, 0, 73, 0
2, 72012, Note_on_c, 0, 74, 0
2, 72025, Note_on_c, 0, 76, 62
2, 72034, Note_on_c, 0, 67, 44
2, 72261, Note_on_c, 0, 74, 48
2, 72268, Note_on_c, 0, 76, 0
2, 72480, Note_on_c, 0, 49, 36
2, 72484, Note_on_c, 0, 74, 0
2, 72489, Note_on_c, 0, 76, 58
2, 72544, Note_on_c, 0, 47, 0
2, 72716, Note_on_c, 0, 69, 64
2, 72762, Note_on_c, 0, 67, 0
2, 72879, Control_c, 0, 67, 122
2, 72899, Control_c, 0, 67, 116
2, 72919, Control_c, 0, 67, 111
2, 72941, Control_c, 0, 67, 108
2, 72956, Note_on_c, 0, 67, 71
2, 72960, Control_c, 0, 67, 107
2, 72967, Note_on_c, 0, 69, 0
2, 72977, Control_c, 0, 67, 105
2, 72999, Control_c, 0, 67, 104
2, 73014, Control_c, 0, 67, 100
2, 73036, Control_c, 0, 67, 96
2, 73055, Control_c, 0, 67, 91
2, 73073, Control_c, 0, 67, 88
2, 73090, Control_c, 0, 67, 86
2, 73131, Control_c, 0, 67, 85
2, 73149, Control_c, 0, 67, 83
2, 73167, Control_c, 0, 67, 81
2, 73183, Note_on_c, 0, 66, 79
2, 73188, Control_c, 0, 67, 80
2, 73195, Note_on_c, 0, 50, 46
2, 73209, Control_c, 0, 67, 78
2, 73216, Note_on_c, 0, 49, 0
2, 73229, Control_c, 0, 67, 77
2, 73238, Note_on_c, 0, 67, 0
2, 73246, Control_c, 0, 67, 76
2, 73263, Control_c, 0, 67, 75
2, 73284, Control_c, 0, 67, 74
2, 73321, Control_c, 0, 67, 73
2, 73416, Note_on_c, 0, 67, 67
2, 73453, Note_on_c, 0, 66, 0
2, 73480, Control_c, 0, 67, 74
2, 73480, Note_on_c, 0, 76, 0
2, 73533, Control_c, 0, 67, 75
2, 73630, Control_c, 0, 67, 76
2, 73640, Note_on_c, 0, 69, 60
2, 73644, Note_on_c, 0, 50, 0
2, 73653, Note_on_c, 0, 67, 0
2, 73653, Note_on_c, 0, 74, 66
2, 73669, Note_on_c, 0, 42, 37
2, 73726, Control_c, 0, 67, 77
2, 73744, Control_c, 0, 67, 78
2, 73842, Control_c, 0, 67, 79
2, 73859, Control_c, 0, 67, 80
2, 73872, Note_on_c, 0, 69, 0
2, 73889, Note_on_c, 0, 74, 0
2, 73891, Note_on_c, 0, 67, 47
2, 73896, Note_on_c, 0, 73, 66
2, 73902, Note_on_c, 0, 40, 37
2, 73902, Note_on_c, 0, 42, 0
2, 73955, Control_c, 0, 67, 81
2, 74060, Note_on_c, 0, 67, 0
2, 74092, Control_c, 0, 64, 20
2, 74092, Control_c, 0, 67, 80
2, 74109, Control_c, 0, 64, 34
2, 74127, Control_c, 0, 64, 45
2, 74133, Note_on_c, 0, 69, 49
2, 74146, Control_c, 0, 64, 54
2, 74168, Control_c, 0, 64, 57
2, 74204, Control_c, 0, 64, 58
2, 74260, Control_c, 0, 64, 57
2, 74281, Control_c, 0, 64, 55
2, 74302, Control_c, 0, 64, 50
2, 74319, Control_c, 0, 64, 43
2, 74339, Note_on_c, 0, 40, 0
2, 74343, Control_c, 0, 64, 32
2, 74348, Note_on_c, 0, 69, 0
2, 74359, Control_c, 0, 64, 26
2, 74364, Note_on_c, 0, 74, 59
2, 74368, Note_on_c, 0, 73, 0
2, 74372, Note_on_c, 0, 66, 49
2, 74378, Control_c, 0, 64, 27
2, 74387, Note_on_c, 0, 38, 39
2, 74396, Control_c, 0, 64, 33
2, 74416, Control_c, 0, 64, 44
2, 74435, Control_c, 0, 64, 53
2, 74457, Control_c, 0, 64, 58
2, 74475, Control_c, 0, 64, 60
2, 74491, Note_on_c, 0, 66, 0
2, 74493, Control_c, 0, 64, 61
2, 74530, Control_c, 0, 64, 62
2, 74549, Control_c, 0, 67, 79
2, 74569, Control_c, 0, 64, 63
2, 74611, Control_c, 0, 64, 62
2, 74616, Note_on_c, 0, 45, 44
2, 74616, Note_on_c, 0, 64, 66
2, 74620, Note_on_c, 0, 38, 0
2, 74629, Control_c, 0, 64, 60
2, 74648, Control_c, 0, 64, 58
2, 74666, Control_c, 0, 64, 56
2, 74686, Control_c, 0, 64, 58
2, 74706, Control_c, 0, 64, 61
2, 74724, Control_c, 0, 64, 63
2, 74745, Control_c, 0, 64, 64
2, 74761, Control_c, 0, 64, 66
2, 74770, Note_on_c, 0, 45, 0
2, 74780, Control_c, 0, 64, 67
2, 74800, Control_c, 0, 64, 70
2, 74822, Control_c, 0, 64, 71
2, 74838, Control_c, 0, 64, 70
2, 74842, Note_on_c, 0, 64, 0
2, 74851, Note_on_c, 0, 73, 76
2, 74858, Control_c, 0, 64, 69
2, 74869, Note_on_c, 0, 57, 56
2, 74878, Control_c, 0, 64, 68
2, 74896, Control_c, 0, 64, 67
2, 74916, Control_c, 0, 64, 66
2, 74920, Control_c, 0, 67, 80
2, 74974, Control_c, 0, 64, 65
2, 74992, Control_c, 0, 64, 64
2, 75012, Control_c, 0, 64, 63
2, 75014, Control_c, 0, 67, 81
2, 75051, Control_c, 0, 64, 62
2, 75073, Note_on_c, 0, 71, 77
2, 75084, Note_on_c, 0, 57, 0
2, 75088, Control_c, 0, 64, 61
2, 75097, Note_on_c, 0, 56, 59
2, 75108, Control_c, 0, 64, 60
2, 75108, Note_on_c, 0, 74, 0
2, 75137, Note_on_c, 0, 73, 0
2, 75144, Control_c, 0, 64, 58
2, 75167, Control_c, 0, 64, 57
2, 75167, Control_c, 0, 67, 82
2, 75185, Control_c, 0, 64, 55
2, 75203, Control_c, 0, 64, 53
2, 75223, Control_c, 0, 64, 50
2, 75245, Control_c, 0, 64, 48
2, 75261, Control_c, 0, 64, 46
2, 75279, Control_c, 0, 64, 43
2, 75299, Control_c, 0, 64, 40
2, 75304, Note_on_c, 0, 73, 78
2, 75308, Note_on_c, 0, 69, 64
2, 75319, Control_c, 0, 64, 37
2, 75337, Note_on_c, 0, 57, 63
2, 75341, Control_c, 0, 64, 33
2, 75357, Control_c, 0, 64, 27
2, 75361, Note_on_c, 0, 56, 0
2, 75369, Note_on_c, 0, 71, 0
2, 75378, Control_c, 0, 64, 19
2, 75378, Control_c, 0, 67, 83
2, 75394, Control_c, 0, 64, 11
2, 75415, Control_c, 0, 64, 0
2, 75541, Note_on_c, 0, 57, 0
2, 75545, Note_on_c, 0, 76, 81
2, 75550, Control_c, 0, 67, 84
2, 75564, Note_on_c, 0, 61, 60
2, 75579, Note_on_c, 0, 73, 0
2, 75781, Note_on_c, 0, 74, 76
2, 75790, Note_on_c, 0, 59, 54
2, 75804, Note_on_c, 0, 61, 0
2, 75836, Control_c, 0, 67, 83
2, 75841, Note_on_c, 0, 76, 0
2, 76005, Note_on_c, 0, 76, 80
2, 76021, Note_on_c, 0, 61, 43
2, 76070, Note_on_c, 0, 59, 0
2, 76084, Note_on_c, 0, 74, 0
2, 76238, Note_on_c, 0, 71, 69
2, 76302, Note_on_c, 0, 69, 0
2, 76485, Note_on_c, 0, 69, 68
2, 76501, Note_on_c, 0, 71, 0
2, 76718, Note_on_c, 0, 67, 74
2, 76758, Control_c, 0, 64, 9
2, 76780, Control_c, 0, 64, 28
2, 76780, Note_on_c, 0, 69, 0
2, 76798, Control_c, 0, 64, 40
2, 76814, Control_c, 0, 64, 52
2, 76836, Control_c, 0, 64, 60
2, 76855, Control_c, 0, 64, 62
2, 76873, Control_c, 0, 64, 63
2, 76901, Note_on_c, 0, 76, 0
2, 76916, Control_c, 0, 64, 64
2, 76931, Control_c, 0, 64, 66
2, 76949, Note_on_c, 0, 69, 68
2, 76954, Control_c, 0, 64, 69
2, 76972, Control_c, 0, 64, 73
2, 76972, Note_on_c, 0, 67, 0
2, 76989, Control_c, 0, 64, 78
2, 77043, Note_on_c, 0, 69, 0
2, 77161, Control_c, 0, 64, 76
2, 77172, Note_on_c, 0, 78, 80
2, 77181, Note_on_c, 0, 66, 75
2, 77186, Control_c, 0, 64, 71
2, 77193, Note_on_c, 0, 63, 59
2, 77199, Control_c, 0, 64, 62
2, 77220, Control_c, 0, 64, 51
2, 77239, Control_c, 0, 64, 41
2, 77252, Note_on_c, 0, 61, 0
2, 77257, Control_c, 0, 64, 38
2, 77279, Control_c, 0, 64, 44
2, 77295, Control_c, 0, 64, 54
2, 77315, Control_c, 0, 64, 60
2, 77335, Control_c, 0, 64, 62
2, 77351, Note_on_c, 0, 66, 0
2, 77392, Control_c, 0, 64, 63
2, 77423, Note_on_c, 0, 67, 68
2, 77432, Note_on_c, 0, 71, 68
2, 77439, Note_on_c, 0, 78, 0
2, 77443, Note_on_c, 0, 52, 54
2, 77443, Note_on_c, 0, 63, 0
2, 77452, Control_c, 0, 64, 62
2, 77490, Control_c, 0, 64, 61
2, 77508, Control_c, 0, 64, 59
2, 77525, Control_c, 0, 64, 57
2, 77544, Control_c, 0, 64, 54
2, 77566, Control_c, 0, 64, 50
2, 77566, Control_c, 0, 67, 84
2, 77584, Control_c, 0, 64, 46
2, 77604, Control_c, 0, 64, 42
2, 77623, Control_c, 0, 64, 38
2, 77641, Control_c, 0, 64, 35
2, 77656, Note_on_c, 0, 76, 77
2, 77660, Control_c, 0, 64, 31
2, 77674, Note_on_c, 0, 55, 54
2, 77681, Control_c, 0, 64, 26
2, 77681, Note_on_c, 0, 71, 0
2, 77697, Control_c, 0, 64, 19
2, 77718, Control_c, 0, 64, 9
2, 77736, Control_c, 0, 64, 0
2, 77853, Control_c, 0, 67, 85
2, 77885, Note_on_c, 0, 55, 0
2, 77892, Note_on_c, 0, 75, 79
2, 77903, Note_on_c, 0, 54, 51
2, 77912, Control_c, 0, 67, 86
2, 77946, Note_on_c, 0, 76, 0
2, 77968, Control_c, 0, 67, 87
2, 78057, Note_on_c, 0, 52, 0
2, 78102, Control_c, 0, 67, 88
2, 78122, Note_on_c, 0, 76, 72
2, 78138, Note_on_c, 0, 55, 49
2, 78152, Note_on_c, 0, 54, 0
2, 78194, Note_on_c, 0, 75, 0
2, 78350, Note_on_c, 0, 55, 0
2, 78371, Note_on_c, 0, 66, 75
2, 78380, Note_on_c, 0, 59, 55
2, 78434, Note_on_c, 0, 67, 0
2, 78590, Note_on_c, 0, 67, 67
2, 78591, Note_on_c, 0, 59, 0
2, 78610, Note_on_c, 0, 58, 45
2, 78637, Note_on_c, 0, 66, 0
2, 78737, Control_c, 0, 67, 89
2, 78841, Note_on_c, 0, 66, 67
2, 78850, Note_on_c, 0, 59, 44
2, 78863, Note_on_c, 0, 67, 0
2, 78913, Note_on_c, 0, 58, 0
2, 79072, Note_on_c, 0, 74, 68
2, 79116, Note_on_c, 0, 76, 0
2, 79142, Control_c, 0, 67, 90
2, 79177, Control_c, 0, 67, 91
2, 79312, Note_on_c, 0, 73, 78
2, 79347, Note_on_c, 0, 74, 0
2, 79504, Control_c, 0, 67, 90
2, 79524, Control_c, 0, 64, 9
2, 79545, Control_c, 0, 64, 42
2, 79549, Note_on_c, 0, 74, 75
2, 79561, Control_c, 0, 64, 57
2, 79583, Control_c, 0, 64, 60
2, 79587, Control_c, 0, 67, 89
2, 79587, Note_on_c, 0, 66, 0
2, 79639, Control_c, 0, 64, 59
2, 79656, Control_c, 0, 64, 58
2, 79677, Control_c, 0, 64, 56
2, 79695, Control_c, 0, 64, 53
2, 79716, Control_c, 0, 64, 48
2, 79737, Control_c, 0, 64, 41
2, 79755, Control_c, 0, 64, 28
2, 79757, Note_on_c, 0, 73, 0
2, 79761, Note_on_c, 0, 59, 0
2, 79765, Note_on_c, 0, 74, 0
2, 79765, Note_on_c, 0, 78, 78
2, 79777, Control_c, 0, 64, 22
2, 79793, Control_c, 0, 64, 23
2, 79793, Control_c, 0, 67, 88
2, 79806, Note_on_c, 0, 62, 50
2, 79810, Control_c, 0, 64, 28
2, 79830, Control_c, 0, 64, 35
2, 79850, Control_c, 0, 64, 43
2, 79868, Control_c, 0, 64, 48
2, 79887, Control_c, 0, 64, 50
2, 79945, Control_c, 0, 64, 48
2, 79965, Control_c, 0, 64, 42
2, 79985, Control_c, 0, 64, 30
2, 79999, Note_on_c, 0, 62, 0
2, 80003, Control_c, 0, 64, 11
2, 80007, Note_on_c, 0, 76, 69
2, 80011, Note_on_c, 0, 69, 53
2, 80019, Note_on_c, 0, 78, 0
2, 80023, Control_c, 0, 64, 0
2, 80032, Note_on_c, 0, 61, 41
2, 80043, Control_c, 0, 64, 11
2, 80043, Control_c, 0, 67, 89
2, 80060, Control_c, 0, 64, 27
2, 80081, Control_c, 0, 64, 40
2, 80101, Control_c, 0, 64, 50
2, 80119, Control_c, 0, 64, 57
2, 80122, Control_c, 0, 67, 90
2, 80139, Control_c, 0, 64, 59
2, 80157, Control_c, 0, 67, 91
2, 80179, Control_c, 0, 67, 92
2, 80197, Control_c, 0, 64, 58
2, 80204, Note_on_c, 0, 76, 0
2, 80217, Control_c, 0, 64, 57
2, 80217, Control_c, 0, 67, 94
2, 80237, Control_c, 0, 64, 55
2, 80237, Control_c, 0, 67, 98
2, 80254, Control_c, 0, 64, 49
2, 80258, Control_c, 0, 67, 112
2, 80258, Note_on_c, 0, 78, 64
2, 80263, Note_on_c, 0, 66, 62
2, 80263, Note_on_c, 0, 69, 0
2, 80278, Control_c, 0, 64, 38
2, 80278, Control_c, 0, 67, 127
2, 80278, Note_on_c, 0, 62, 36
2, 80291, Control_c, 0, 64, 20
2, 80312, Control_c, 0, 64, 0
2, 80350, Control_c, 0, 64, 9
2, 80368, Control_c, 0, 64, 15
2, 80379, Note_on_c, 0, 61, 0
2, 80389, Control_c, 0, 64, 17
2, 80406, Control_c, 0, 64, 22
2, 80427, Control_c, 0, 64, 30
2, 80445, Control_c, 0, 64, 43
2, 80466, Control_c, 0, 64, 52
2, 80484, Control_c, 0, 64, 58
2, 80489, Note_on_c, 0, 68, 63
2, 80503, Control_c, 0, 64, 61
2, 80516, Note_on_c, 0, 78, 0
2, 80561, Control_c, 0, 64, 62
2, 80673, Note_on_c, 0, 62, 0
2, 80693, Control_c, 0, 64, 61
2, 80702, Note_on_c, 0, 68, 0
2, 80714, Note_on_c, 0, 66, 0
2, 80736, Note_on_c, 0, 69, 50
2, 80736, Note_on_c, 0, 76, 68
2, 80741, Control_c, 0, 64, 59
2, 80741, Note_on_c, 0, 61, 31
2, 80752, Control_c, 0, 64, 58
2, 80771, Control_c, 0, 64, 55
2, 80790, Control_c, 0, 64, 51
2, 80812, Control_c, 0, 64, 47
2, 80829, Control_c, 0, 64, 40
2, 80848, Control_c, 0, 64, 31
2, 80869, Control_c, 0, 64, 22
2, 80886, Control_c, 0, 64, 15
2, 80908, Control_c, 0, 64, 10
2, 80924, Control_c, 0, 64, 0
2, 80973, Note_on_c, 0, 61, 0
2, 80973, Note_on_c, 0, 74, 62
2, 80977, Note_on_c, 0, 59, 36
2, 80988, Note_on_c, 0, 76, 0
2, 81022, Note_on_c, 0, 69, 0
2, 81206, Note_on_c, 0, 68, 60
2, 81429, Note_on_c, 0, 68, 0
2, 81438, Note_on_c, 0, 57, 36
2, 81438, Note_on_c, 0, 71, 56
2, 81512, Note_on_c, 0, 59, 0
2, 81675, Note_on_c, 0, 64, 59
2, 81680, Note_on_c, 0, 56, 43
2, 81688, Note_on_c, 0, 57, 0
2, 81695, Note_on_c, 0, 71, 0
2, 81918, Note_on_c, 0, 52, 44
2, 81936, Note_on_c, 0, 56, 0
2, 82139, Note_on_c, 0, 64, 0
2, 82157, Note_on_c, 0, 57, 42
2, 82157, Note_on_c, 0, 73, 66
2, 82204, Note_on_c, 0, 52, 0
2, 82212, Note_on_c, 0, 74, 0
2, 82399, Note_on_c, 0, 62, 49
2, 82399, Note_on_c, 0, 66, 51
2, 82520, Control_c, 0, 64, 20
2, 82538, Control_c, 0, 64, 37
2, 82557, Control_c, 0, 64, 48
2, 82577, Control_c, 0, 64, 57
2, 82596, Control_c, 0, 64, 60
2, 82600, Note_on_c, 0, 73, 0
2, 82614, Control_c, 0, 64, 61
2, 82640, Note_on_c, 0, 54, 40
2, 82640, Note_on_c, 0, 57, 0
2, 82654, Control_c, 0, 64, 62
2, 82671, Control_c, 0, 64, 63
2, 82690, Control_c, 0, 64, 64
2, 82710, Control_c, 0, 64, 66
2, 82729, Control_c, 0, 64, 68
2, 82749, Control_c, 0, 64, 70
2, 82766, Control_c, 0, 64, 71
2, 82786, Control_c, 0, 64, 70
2, 82805, Control_c, 0, 64, 69
2, 82825, Control_c, 0, 64, 67
2, 82843, Control_c, 0, 64, 65
2, 82858, Note_on_c, 0, 71, 60
2, 82863, Note_on_c, 0, 66, 0
2, 82865, Control_c, 0, 64, 63
2, 82879, Note_on_c, 0, 56, 47
2, 82883, Control_c, 0, 64, 60
2, 82905, Control_c, 0, 64, 56
2, 82921, Control_c, 0, 64, 51
2, 82930, Note_on_c, 0, 54, 0
2, 82941, Control_c, 0, 64, 46
2, 82960, Control_c, 0, 64, 43
2, 82979, Control_c, 0, 64, 41
2, 82998, Control_c, 0, 64, 40
2, 83020, Control_c, 0, 64, 38
2, 83037, Control_c, 0, 64, 36
2, 83055, Control_c, 0, 64, 32
2, 83064, Note_on_c, 0, 56, 0
2, 83074, Control_c, 0, 64, 29
2, 83094, Control_c, 0, 64, 28
2, 83094, Note_on_c, 0, 62, 0
2, 83103, Note_on_c, 0, 61, 49
2, 83112, Note_on_c, 0, 57, 43
2, 83133, Control_c, 0, 64, 30
2, 83152, Control_c, 0, 64, 33
2, 83171, Control_c, 0, 64, 38
2, 83191, Control_c, 0, 64, 47
2, 83209, Control_c, 0, 64, 54
2, 83229, Control_c, 0, 64, 58
2, 83248, Control_c, 0, 64, 59
2, 83267, Control_c, 0, 64, 60
2, 83286, Control_c, 0, 64, 61
2, 83314, Note_on_c, 0, 71, 0
2, 83325, Control_c, 0, 64, 62
2, 83329, Note_on_c, 0, 64, 61
2, 83344, Control_c, 0, 64, 63
2, 83460, Control_c, 0, 64, 62
2, 83496, Control_c, 0, 64, 61
2, 83519, Control_c, 0, 64, 57
2, 83539, Control_c, 0, 64, 50
2, 83547, Note_on_c, 0, 54, 41
2, 83556, Control_c, 0, 64, 41
2, 83560, Note_on_c, 0, 69, 56
2, 83565, Note_on_c, 0, 57, 0
2, 83574, Control_c, 0, 64, 35
2, 83594, Control_c, 0, 64, 34
2, 83614, Control_c, 0, 64, 35
2, 83632, Control_c, 0, 64, 39
2, 83649, Control_c, 0, 64, 45
2, 83670, Control_c, 0, 64, 52
2, 83684, Note_on_c, 0, 64, 0
2, 83693, Control_c, 0, 64, 55
2, 83708, Control_c, 0, 64, 56
2, 83768, Control_c, 0, 64, 55
2, 83773, Note_on_c, 0, 54, 0
2, 83785, Control_c, 0, 64, 54
2, 83807, Control_c, 0, 64, 53
2, 83807, Note_on_c, 0, 61, 0
2, 83811, Note_on_c, 0, 50, 38
2, 83816, Note_on_c, 0, 59, 49
2, 83823, Control_c, 0, 64, 52
2, 83901, Control_c, 0, 64, 51
2, 83920, Control_c, 0, 64, 50
2, 83940, Control_c, 0, 64, 49
2, 84034, Control_c, 0, 64, 48
2, 84060, Control_c, 0, 64, 47
2, 84060, Note_on_c, 0, 69, 0
2, 84060, Note_on_c, 0, 71, 66
2, 84073, Control_c, 0, 64, 46
2, 84260, Note_on_c, 0, 50, 0
2, 84281, Note_on_c, 0, 52, 44
2, 84281, Note_on_c, 0, 68, 60
2, 84286, Control_c, 0, 64, 45
2, 84288, Note_on_c, 0, 71, 0
2, 84306, Note_on_c, 0, 59, 0
2, 84325, Control_c, 0, 64, 44
2, 84361, Control_c, 0, 64, 43
2, 84419, Control_c, 0, 64, 42
2, 84528, Note_on_c, 0, 45, 42
2, 84528, Note_on_c, 0, 68, 0
2, 84528, Note_on_c, 0, 69, 52
2, 84530, Note_on_c, 0, 52, 0
2, 84542, Note_on_c, 0, 57, 37
2, 84554, Control_c, 0, 64, 41
2, 84744, Note_on_c, 0, 52, 40
2, 84778, Note_on_c, 0, 57, 0
2, 84954, Note_on_c, 0, 52, 0
2, 84959, Control_c, 0, 64, 42
2, 84986, Note_on_c, 0, 54, 44
2, 85160, Note_on_c, 0, 69, 0
2, 85235, Note_on_c, 0, 52, 44
2, 85259, Note_on_c, 0, 54, 0
2, 85341, Control_c, 0, 64, 43
2, 85460, Note_on_c, 0, 49, 43
2, 85520, Note_on_c, 0, 52, 0
2, 85677, Note_on_c, 0, 49, 0
2, 85696, Note_on_c, 0, 50, 48
2, 85904, Note_on_c, 0, 50, 0
2, 85917, Note_on_c, 0, 49, 40
2, 85944, Note_on_c, 0, 57, 56
2, 86111, Control_c, 0, 67, 123
2, 86128, Control_c, 0, 67, 118
2, 86148, Control_c, 0, 67, 116
2, 86168, Control_c, 0, 67, 114
2, 86168, Note_on_c, 0, 64, 63
2, 86185, Control_c, 0, 67, 111
2, 86207, Control_c, 0, 67, 108
2, 86224, Control_c, 0, 67, 105
2, 86244, Control_c, 0, 67, 102
2, 86262, Control_c, 0, 67, 99
2, 86281, Control_c, 0, 67, 97
2, 86303, Control_c, 0, 67, 95
2, 86323, Control_c, 0, 67, 92
2, 86338, Control_c, 0, 67, 89
2, 86357, Control_c, 0, 67, 86
2, 86379, Control_c, 0, 67, 83
2, 86399, Control_c, 0, 67, 81
2, 86403, Note_on_c, 0, 62, 74
2, 86417, Control_c, 0, 67, 79
2, 86433, Control_c, 0, 67, 78
2, 86454, Control_c, 0, 67, 76
2, 86469, Note_on_c, 0, 64, 0
2, 86474, Control_c, 0, 67, 74
2, 86492, Control_c, 0, 67, 73
2, 86512, Control_c, 0, 67, 72
2, 86549, Control_c, 0, 67, 71
2, 86630, Note_on_c, 0, 64, 73
2, 86696, Note_on_c, 0, 62, 0
2, 86875, Note_on_c, 0, 67, 72
2, 86931, Note_on_c, 0, 64, 0
2, 86991, Control_c, 0, 64, 44
2, 87110, Control_c, 0, 67, 72
2, 87119, Note_on_c, 0, 66, 74
2, 87174, Note_on_c, 0, 67, 0
2, 87183, Control_c, 0, 64, 45
2, 87332, Note_on_c, 0, 67, 66
2, 87346, Note_on_c, 0, 64, 62
2, 87372, Note_on_c, 0, 66, 0
2, 87386, Note_on_c, 0, 57, 0
2, 87413, Control_c, 0, 64, 46
2, 87526, Control_c, 0, 67, 73
2, 87570, Note_on_c, 0, 57, 58
2, 87772, Note_on_c, 0, 57, 0
2, 87790, Note_on_c, 0, 59, 61
2, 87987, Control_c, 0, 67, 74
2, 88032, Note_on_c, 0, 59, 0
2, 88039, Note_on_c, 0, 57, 71
2, 88199, Control_c, 0, 64, 45
2, 88253, Note_on_c, 0, 57, 0
2, 88266, Note_on_c, 0, 54, 52
2, 88266, Note_on_c, 0, 69, 69
2, 88299, Note_on_c, 0, 67, 0
2, 88302, Note_on_c, 0, 64, 0
2, 88319, Note_on_c, 0, 49, 0
2, 88490, Note_on_c, 0, 69, 0
2, 88503, Note_on_c, 0, 54, 0
2, 88503, Note_on_c, 0, 55, 46
2, 88503, Note_on_c, 0, 61, 64
2, 88562, Control_c, 0, 67, 75
2, 88721, Note_on_c, 0, 54, 42
2, 88728, Note_on_c, 0, 62, 62
2, 88733, Note_on_c, 0, 61, 0
2, 88813, Control_c, 0, 64, 44
2, 88820, Note_on_c, 0, 55, 0
2, 88972, Note_on_c, 0, 66, 64
2, 88976, Note_on_c, 0, 50, 46
2, 88987, Note_on_c, 0, 54, 0
2, 89037, Note_on_c, 0, 62, 0
2, 89175, Note_on_c, 0, 50, 0
2, 89201, Note_on_c, 0, 64, 75
2, 89203, Note_on_c, 0, 49, 51
2, 89251, Note_on_c, 0, 66, 0
2, 89408, Control_c, 0, 64, 43
2, 89435, Note_on_c, 0, 50, 48
2, 89435, Note_on_c, 0, 66, 76
2, 89547, Note_on_c, 0, 64, 0
2, 89646, Note_on_c, 0, 49, 0
2, 89646, Note_on_c, 0, 50, 0
2, 89664, Note_on_c, 0, 69, 74
2, 89683, Note_on_c, 0, 54, 55
2, 89720, Note_on_c, 0, 66, 0
2, 89755, Note_on_c, 0, 45, 0
2, 89880, Note_on_c, 0, 54, 0
2, 89895, Note_on_c, 0, 52, 55
2, 89906, Note_on_c, 0, 67, 76
2, 89973, Note_on_c, 0, 69, 0
2, 90042, Control_c, 0, 67, 74
2, 90080, Control_c, 0, 64, 42
2, 90093, Note_on_c, 0, 52, 0
2, 90138, Note_on_c, 0, 69, 71
2, 90144, Note_on_c, 0, 45, 45
2, 90153, Note_on_c, 0, 54, 50
2, 90160, Note_on_c, 0, 67, 0
2, 90177, Control_c, 0, 64, 44
2, 90193, Control_c, 0, 64, 49
2, 90215, Control_c, 0, 64, 56
2, 90235, Control_c, 0, 64, 59
2, 90235, Control_c, 0, 67, 75
2, 90252, Control_c, 0, 64, 60
2, 90272, Control_c, 0, 64, 61
2, 90290, Control_c, 0, 64, 62
2, 90332, Control_c, 0, 67, 76
2, 90348, Control_c, 0, 67, 77
2, 90369, Control_c, 0, 67, 78
2, 90377, Note_on_c, 0, 69, 0
2, 90377, Note_on_c, 0, 74, 77
2, 90388, Control_c, 0, 64, 60
2, 90396, Note_on_c, 0, 66, 59
2, 90407, Control_c, 0, 64, 57
2, 90429, Control_c, 0, 64, 53
2, 90429, Control_c, 0, 67, 79
2, 90442, Note_on_c, 0, 45, 0
2, 90446, Control_c, 0, 64, 49
2, 90446, Control_c, 0, 67, 80
2, 90457, Note_on_c, 0, 57, 51
2, 90468, Control_c, 0, 64, 46
2, 90468, Note_on_c, 0, 54, 0
2, 90484, Control_c, 0, 64, 44
2, 90484, Control_c, 0, 67, 81
2, 90506, Control_c, 0, 64, 43
2, 90506, Control_c, 0, 67, 82
2, 90524, Control_c, 0, 64, 41
2, 90537, Note_on_c, 0, 57, 0
2, 90541, Control_c, 0, 64, 39
2, 90559, Control_c, 0, 64, 38
2, 90597, Control_c, 0, 67, 83
2, 90617, Control_c, 0, 67, 84
2, 90635, Note_on_c, 0, 66, 0
2, 90644, Note_on_c, 0, 64, 65
2, 90644, Note_on_c, 0, 73, 79
2, 90683, Note_on_c, 0, 74, 0
2, 90753, Control_c, 0, 67, 85
2, 90828, Control_c, 0, 64, 37
2, 90858, Note_on_c, 0, 64, 0
2, 90866, Control_c, 0, 64, 38
2, 90881, Note_on_c, 0, 57, 49
2, 90888, Control_c, 0, 64, 44
2, 90888, Note_on_c, 0, 66, 65
2, 90897, Note_on_c, 0, 74, 69
2, 90906, Control_c, 0, 64, 53
2, 90906, Control_c, 0, 67, 86
2, 90925, Control_c, 0, 64, 60
2, 90944, Control_c, 0, 64, 62
2, 90949, Control_c, 0, 67, 87
2, 90957, Note_on_c, 0, 66, 0
2, 90957, Note_on_c, 0, 73, 0
2, 90964, Control_c, 0, 64, 63
2, 90982, Control_c, 0, 64, 65
2, 91001, Control_c, 0, 64, 66
2, 91008, Note_on_c, 0, 74, 0
2, 91023, Control_c, 0, 64, 69
2, 91023, Control_c, 0, 67, 88
2, 91043, Control_c, 0, 64, 71
2, 91059, Control_c, 0, 64, 73
2, 91059, Control_c, 0, 67, 89
2, 91098, Control_c, 0, 64, 72
2, 91098, Control_c, 0, 67, 90
2, 91118, Control_c, 0, 64, 71
2, 91118, Control_c, 0, 67, 92
2, 91136, Control_c, 0, 64, 70
2, 91136, Control_c, 0, 67, 97
2, 91144, Note_on_c, 0, 74, 74
2, 91155, Control_c, 0, 64, 68
2, 91155, Note_on_c, 0, 57, 0
2, 91159, Control_c, 0, 67, 101
2, 91176, Control_c, 0, 64, 67
2, 91176, Control_c, 0, 67, 103
2, 91179, Note_on_c, 0, 77, 60
2, 91195, Control_c, 0, 64, 65
2, 91214, Control_c, 0, 64, 64
2, 91214, Control_c, 0, 67, 104
2, 91233, Control_c, 0, 64, 63
2, 91253, Control_c, 0, 64, 61
2, 91253, Control_c, 0, 67, 106
2, 91274, Control_c, 0, 64, 60
2, 91274, Control_c, 0, 67, 107
2, 91276, Note_on_c, 0, 77, 0
2, 91291, Control_c, 0, 64, 59
2, 91309, Control_c, 0, 64, 58
2, 91329, Control_c, 0, 64, 57
2, 91348, Control_c, 0, 64, 56
2, 91365, Control_c, 0, 64, 53
2, 91388, Control_c, 0, 64, 49
2, 91392, Note_on_c, 0, 74, 0
2, 91403, Note_on_c, 0, 73, 68
2, 91403, Note_on_c, 0, 76, 68
2, 91408, Control_c, 0, 64, 46
2, 91425, Control_c, 0, 64, 43
2, 91432, Note_on_c, 0, 45, 46
2, 91442, Control_c, 0, 64, 41
2, 91462, Control_c, 0, 64, 40
2, 91482, Control_c, 0, 64, 38
2, 91497, Note_on_c, 0, 45, 0
2, 91501, Control_c, 0, 64, 37
2, 91520, Control_c, 0, 67, 108
2, 91540, Control_c, 0, 64, 36
2, 91558, Control_c, 0, 64, 35
2, 91673, Control_c, 0, 67, 109
2, 91696, Note_on_c, 0, 76, 0
2, 91698, Note_on_c, 0, 78, 67
2, 91703, Note_on_c, 0, 45, 44
2, 91703, Note_on_c, 0, 74, 47
2, 91751, Control_c, 0, 67, 112
2, 91764, Note_on_c, 0, 73, 0
2, 91769, Control_c, 0, 67, 116
2, 91788, Control_c, 0, 67, 120
2, 91809, Control_c, 0, 67, 124
2, 91826, Control_c, 0, 67, 127
2, 91995, Note_on_c, 0, 81, 68
2, 92327, Note_on_c, 0, 80, 69
2, 92372, Note_on_c, 0, 81, 0
2, 92645, Note_on_c, 0, 80, 0
2, 92665, Note_on_c, 0, 81, 60
2, 92693, Control_c, 0, 64, 36
2, 92711, Control_c, 0, 64, 39
2, 92728, Control_c, 0, 64, 45
2, 92748, Control_c, 0, 64, 52
2, 92767, Control_c, 0, 64, 56
2, 92789, Control_c, 0, 64, 58
2, 92804, Control_c, 0, 64, 59
2, 92826, Control_c, 0, 64, 60
2, 92866, Control_c, 0, 64, 61
2, 92882, Control_c, 0, 64, 62
2, 92978, Control_c, 0, 64, 61
2, 92998, Control_c, 0, 64, 59
2, 93016, Control_c, 0, 64, 56
2, 93025, Note_on_c, 0, 76, 50
2, 93027, Note_on_c, 0, 74, 0
2, 93032, Note_on_c, 0, 73, 51
2, 93037, Control_c, 0, 64, 51
2, 93059, Control_c, 0, 64, 47
2, 93075, Control_c, 0, 64, 45
2, 93095, Control_c, 0, 64, 48
2, 93113, Control_c, 0, 64, 53
2, 93119, Note_on_c, 0, 78, 0
2, 93133, Control_c, 0, 64, 58
2, 93153, Control_c, 0, 64, 61
2, 93170, Control_c, 0, 64, 62
2, 93190, Control_c, 0, 64, 63
2, 93209, Control_c, 0, 64, 64
2, 93218, Note_on_c, 0, 73, 0
2, 93232, Control_c, 0, 64, 65
2, 93245, Control_c, 0, 64, 67
2, 93266, Control_c, 0, 64, 69
2, 93382, Control_c, 0, 64, 68
2, 93401, Control_c, 0, 64, 67
2, 93420, Control_c, 0, 64, 66
2, 93433, Note_on_c, 0, 74, 51
2, 93433, Note_on_c, 0, 76, 0
2, 93441, Control_c, 0, 64, 63
2, 93446, Note_on_c, 0, 71, 46
2, 93459, Control_c, 0, 64, 59
2, 93478, Control_c, 0, 64, 52
2, 93501, Control_c, 0, 64, 47
2, 93535, Control_c, 0, 64, 49
2, 93556, Control_c, 0, 64, 54
2, 93573, Control_c, 0, 64, 59
2, 93596, Control_c, 0, 64, 62
2, 93613, Control_c, 0, 64, 63
2, 93634, Control_c, 0, 64, 65
2, 93651, Control_c, 0, 64, 66
2, 93654, Note_on_c, 0, 74, 0
2, 93673, Control_c, 0, 64, 69
2, 93689, Control_c, 0, 64, 71
2, 93707, Control_c, 0, 64, 73
2, 93727, Control_c, 0, 64, 74
2, 93732, Note_on_c, 0, 71, 0
2, 93766, Control_c, 0, 64, 73
2, 93862, Control_c, 0, 64, 72
2, 93881, Control_c, 0, 64, 71
2, 93901, Control_c, 0, 64, 70
2, 93943, Control_c, 0, 64, 69
2, 93943, Note_on_c, 0, 73, 44
2, 93943, Note_on_c, 0, 76, 50
2, 93958, Control_c, 0, 64, 68
2, 93978, Control_c, 0, 64, 65
2, 93996, Control_c, 0, 64, 61
2, 94016, Control_c, 0, 64, 56
2, 94035, Control_c, 0, 64, 52
2, 94054, Control_c, 0, 64, 49
2, 94074, Control_c, 0, 64, 46
2, 94093, Control_c, 0, 64, 44
2, 94112, Control_c, 0, 64, 42
2, 94132, Control_c, 0, 64, 40
2, 94150, Control_c, 0, 64, 39
2, 94168, Control_c, 0, 64, 38
2, 94190, Control_c, 0, 64, 37
2, 94206, Control_c, 0, 64, 36
2, 94226, Control_c, 0, 64, 35
2, 94395, Note_on_c, 0, 49, 34
2, 94637, Note_on_c, 0, 45, 0
2, 94995, Note_on_c, 0, 52, 35
2, 95237, Note_on_c, 0, 49, 0
2, 96262, Note_on_c, 0, 57, 33
2, 96444, Note_on_c, 0, 52, 0
2, 96585, Control_c, 0, 64, 34
2, 98411, Control_c, 0, 67, 126
2, 98428, Control_c, 0, 67, 123
2, 98448, Control_c, 0, 67, 120
2, 98466, Control_c, 0, 67, 117
2, 98485, Control_c, 0, 67, 115
2, 98505, Control_c, 0, 67, 112
2, 98523, Control_c, 0, 67, 108
2, 98543, Control_c, 0, 67, 105
2, 98562, Control_c, 0, 67, 101
2, 98580, Control_c, 0, 67, 96
2, 98600, Control_c, 0, 67, 92
2, 98609, Note_on_c, 0, 81, 0
2, 98623, Control_c, 0, 67, 90
2, 98659, Control_c, 0, 67, 89
2, 98671, Note_on_c, 0, 73, 0
2, 98675, Note_on_c, 0, 76, 0
2, 98697, Control_c, 0, 64, 35
2, 98730, Note_on_c, 0, 57, 0
2, 98853, Control_c, 0, 67, 90
2, 98891, Control_c, 0, 67, 91
2, 98965, Control_c, 0, 67, 92
2, 98985, Control_c, 0, 67, 93
2, 99023, Control_c, 0, 67, 94
2, 99043, Control_c, 0, 67, 95
2, 99063, Control_c, 0, 64, 34
2, 99067, Control_c, 0, 67, 96
2, 99101, Control_c, 0, 67, 97
2, 99122, Control_c, 0, 67, 98
2, 99177, Control_c, 0, 67, 99
2, 99234, Control_c, 0, 67, 100
2, 99291, Control_c, 0, 64, 35
2, 99504, Control_c, 0, 64, 34
2, 99523, Control_c, 0, 64, 33
2, 99545, Control_c, 0, 64, 31
2, 99619, Control_c, 0, 67, 101
2, 99736, Control_c, 0, 67, 100
2, 99736, Note_on_c, 0, 57, 67
2, 99857, Note_on_c, 0, 59, 70
2, 99861, Note_on_c, 0, 57, 0
2, 99988, Note_on_c, 0, 59, 0
2, 99997, Note_on_c, 0, 61, 69
2, 100085, Note_on_c, 0, 61, 0
2, 100135, Note_on_c, 0, 59, 73
2, 100224, Note_on_c, 0, 59, 0
2, 100235, Control_c, 0, 64, 30
2, 100251, Note_on_c, 0, 57, 67
2, 100350, Note_on_c, 0, 57, 0
2, 100378, Note_on_c, 0, 61, 70
2, 100490, Note_on_c, 0, 61, 0
2, 100505, Control_c, 0, 67, 99
2, 100505, Note_on_c, 0, 59, 73
2, 100541, Control_c, 0, 64, 29
2, 100545, Control_c, 0, 67, 97
2, 100562, Control_c, 0, 64, 28
2, 100562, Control_c, 0, 67, 95
2, 100580, Control_c, 0, 67, 93
2, 100597, Control_c, 0, 67, 91
2, 100618, Control_c, 0, 67, 90
2, 100629, Note_on_c, 0, 59, 0
2, 100637, Control_c, 0, 67, 89
2, 100646, Note_on_c, 0, 62, 72
2, 100661, Control_c, 0, 67, 88
2, 100673, Control_c, 0, 67, 86
2, 100696, Control_c, 0, 67, 75
2, 100714, Control_c, 0, 67, 59
2, 100732, Control_c, 0, 67, 42
2, 100750, Control_c, 0, 67, 26
2, 100770, Control_c, 0, 67, 16
2, 100774, Note_on_c, 0, 62, 0
2, 100786, Note_on_c, 0, 61, 63
2, 100794, Control_c, 0, 67, 0
2, 100809, Control_c, 0, 64, 27
2, 100828, Control_c, 0, 64, 26
2, 100963, Control_c, 0, 64, 25
2, 101001, Control_c, 0, 64, 24
2, 101021, Control_c, 0, 64, 22
2, 101039, Control_c, 0, 64, 20
2, 101059, Control_c, 0, 64, 18
2, 101154, Control_c, 0, 64, 17
2, 101185, Note_on_c, 0, 64, 83
2, 101216, Note_on_c, 0, 61, 0
2, 101290, Control_c, 0, 64, 16
2, 101307, Control_c, 0, 64, 15
2, 101328, Control_c, 0, 64, 13
2, 101332, Note_on_c, 0, 62, 85
2, 101345, Note_on_c, 0, 64, 0
2, 101384, Control_c, 0, 64, 12
2, 101405, Control_c, 0, 64, 11
2, 101537, Control_c, 0, 64, 13
2, 101560, Control_c, 0, 64, 15
2, 101576, Control_c, 0, 64, 18
2, 101596, Control_c, 0, 64, 20
2, 101731, Control_c, 0, 64, 22
2, 101735, Note_on_c, 0, 62, 0
2, 101744, Note_on_c, 0, 66, 80
2, 101769, Control_c, 0, 64, 23
2, 101807, Control_c, 0, 64, 24
2, 101874, Note_on_c, 0, 64, 79
2, 101878, Note_on_c, 0, 66, 0
2, 101993, Note_on_c, 0, 64, 0
2, 101999, Note_on_c, 0, 62, 73
2, 102018, Control_c, 0, 64, 23
2, 102038, Control_c, 0, 64, 22
2, 102076, Control_c, 0, 64, 21
2, 102094, Control_c, 0, 64, 20
2, 102106, Note_on_c, 0, 62, 0
2, 102115, Control_c, 0, 64, 19
2, 102137, Control_c, 0, 64, 18
2, 102137, Note_on_c, 0, 64, 77
2, 102154, Control_c, 0, 64, 16
2, 102172, Control_c, 0, 64, 13
2, 102193, Control_c, 0, 64, 11
2, 102211, Control_c, 0, 64, 8
2, 102229, Control_c, 0, 64, 0
2, 102245, Note_on_c, 0, 64, 0
2, 102262, Note_on_c, 0, 59, 70
2, 102389, Note_on_c, 0, 59, 0
2, 102402, Note_on_c, 0, 61, 62
2, 102500, Note_on_c, 0, 61, 0
2, 102529, Note_on_c, 0, 62, 63
2, 102622, Note_on_c, 0, 62, 0
2, 102665, Note_on_c, 0, 61, 53
2, 102909, Note_on_c, 0, 61, 0
2, 102931, Note_on_c, 0, 64, 76
2, 102936, Note_on_c, 0, 57, 61
2, 102991, Note_on_c, 0, 57, 0
2, 103002, Note_on_c, 0, 64, 0
2, 103055, Note_on_c, 0, 66, 81
2, 103140, Note_on_c, 0, 66, 0
2, 103189, Note_on_c, 0, 68, 83
2, 103209, Note_on_c, 0, 59, 59
2, 103245, Note_on_c, 0, 59, 0
2, 103299, Note_on_c, 0, 68, 0
2, 103310, Note_on_c, 0, 66, 83
2, 103412, Note_on_c, 0, 66, 0
2, 103436, Note_on_c, 0, 64, 82
2, 103455, Note_on_c, 0, 61, 66
2, 103505, Note_on_c, 0, 61, 0
2, 103534, Note_on_c, 0, 64, 0
2, 103563, Note_on_c, 0, 68, 86
2, 103661, Note_on_c, 0, 68, 0
2, 103687, Note_on_c, 0, 66, 90
2, 103698, Note_on_c, 0, 62, 70
2, 103744, Note_on_c, 0, 62, 0
2, 103781, Note_on_c, 0, 66, 0
2, 103817, Note_on_c, 0, 69, 80
2, 103951, Note_on_c, 0, 69, 0
2, 103954, Note_on_c, 0, 68, 87
2, 103965, Note_on_c, 0, 59, 65
2, 104091, Note_on_c, 0, 64, 73
2, 104092, Note_on_c, 0, 59, 0
2, 104193, Note_on_c, 0, 64, 0
2, 104206, Note_on_c, 0, 61, 80
2, 104250, Note_on_c, 0, 61, 0
2, 104280, Note_on_c, 0, 68, 0
2, 104334, Note_on_c, 0, 71, 94
2, 104478, Note_on_c, 0, 69, 85
2, 104483, Note_on_c, 0, 66, 72
2, 104526, Note_on_c, 0, 71, 0
2, 104582, Note_on_c, 0, 66, 0
2, 104613, Note_on_c, 0, 61, 69
2, 104738, Note_on_c, 0, 63, 71
2, 104742, Note_on_c, 0, 61, 0
2, 104771, Note_on_c, 0, 63, 0
2, 104887, Note_on_c, 0, 73, 80
2, 104892, Note_on_c, 0, 69, 0
2, 105018, Note_on_c, 0, 71, 75
2, 105023, Note_on_c, 0, 64, 64
2, 105061, Note_on_c, 0, 73, 0
2, 105136, Note_on_c, 0, 69, 77
2, 105151, Note_on_c, 0, 71, 0
2, 105257, Note_on_c, 0, 69, 0
2, 105274, Note_on_c, 0, 71, 78
2, 105391, Note_on_c, 0, 71, 0
2, 105404, Note_on_c, 0, 66, 78
2, 105535, Note_on_c, 0, 64, 0
2, 105540, Note_on_c, 0, 66, 0
2, 105540, Note_on_c, 0, 68, 77
2, 105547, Note_on_c, 0, 63, 51
2, 105659, Note_on_c, 0, 68, 0
2, 105661, Note_on_c, 0, 69, 70
2, 105783, Note_on_c, 0, 69, 0
2, 105801, Note_on_c, 0, 68, 80
2, 105808, Note_on_c, 0, 64, 48
2, 105839, Note_on_c, 0, 63, 0
2, 105912, Note_on_c, 0, 68, 0
2, 105927, Note_on_c, 0, 71, 76
2, 105989, Note_on_c, 0, 64, 0
2, 106046, Note_on_c, 0, 71, 0
2, 106057, Note_on_c, 0, 69, 71
2, 106151, Note_on_c, 0, 69, 0
2, 106189, Note_on_c, 0, 68, 80
2, 106198, Note_on_c, 0, 59, 59
2, 106243, Note_on_c, 0, 59, 0
2, 106285, Note_on_c, 0, 68, 0
2, 106312, Note_on_c, 0, 69, 74
2, 106316, Note_on_c, 0, 61, 80
2, 106354, Note_on_c, 0, 61, 0
2, 106398, Note_on_c, 0, 69, 0
2, 106461, Note_on_c, 0, 64, 76
2, 106560, Note_on_c, 0, 64, 0
2, 106591, Note_on_c, 0, 57, 80
2, 106602, Note_on_c, 0, 66, 76
2, 106646, Note_on_c, 0, 57, 0
2, 106720, Note_on_c, 0, 67, 75
2, 106724, Note_on_c, 0, 66, 0
2, 106846, Note_on_c, 0, 62, 74
2, 106850, Note_on_c, 0, 66, 87
2, 106871, Note_on_c, 0, 67, 0
2, 106975, Note_on_c, 0, 66, 0
2, 106982, Note_on_c, 0, 69, 76
2, 107071, Note_on_c, 0, 62, 0
2, 107091, Note_on_c, 0, 69, 0
2, 107129, Note_on_c, 0, 68, 80
2, 107229, Note_on_c, 0, 57, 63
2, 107261, Note_on_c, 0, 66, 80
2, 107281, Note_on_c, 0, 57, 0
2, 107281, Note_on_c, 0, 68, 0
2, 107356, Note_on_c, 0, 66, 0
2, 107384, Note_on_c, 0, 59, 68
2, 107384, Note_on_c, 0, 68, 78
2, 107425, Note_on_c, 0, 59, 0
2, 107495, Note_on_c, 0, 68, 0
2, 107506, Note_on_c, 0, 63, 74
2, 107583, Note_on_c, 0, 63, 0
2, 107631, Note_on_c, 0, 56, 62
2, 107634, Note_on_c, 0, 64, 70
2, 107677, Note_on_c, 0, 56, 0
2, 107697, Note_on_c, 0, 64, 0
2, 107745, Note_on_c, 0, 66, 70
2, 107837, Note_on_c, 0, 66, 0
2, 107871, Note_on_c, 0, 64, 73
2, 107902, Note_on_c, 0, 61, 55
2, 107995, Note_on_c, 0, 61, 0
2, 108031, Note_on_c, 0, 62, 66
2, 108143, Note_on_c, 0, 69, 80
2, 108152, Note_on_c, 0, 61, 64
2, 108152, Note_on_c, 0, 62, 0
2, 108184, Note_on_c, 0, 64, 0
2, 108258, Note_on_c, 0, 61, 0
2, 108278, Note_on_c, 0, 71, 81
2, 108300, Note_on_c, 0, 59, 65
2, 108302, Note_on_c, 0, 69, 0
2, 108403, Note_on_c, 0, 59, 0
2, 108412, Note_on_c, 0, 57, 71
2, 108418, Note_on_c, 0, 73, 92
2, 108427, Note_on_c, 0, 71, 0
2, 108512, Note_on_c, 0, 57, 0
2, 108547, Note_on_c, 0, 71, 86
2, 108568, Control_c, 0, 64, 8
2, 108568, Note_on_c, 0, 73, 0
2, 108603, Control_c, 0, 64, 9
2, 108667, Note_on_c, 0, 69, 85
2, 108687, Note_on_c, 0, 66, 80
2, 108687, Note_on_c, 0, 71, 0
2, 108797, Control_c, 0, 64, 8
2, 108817, Note_on_c, 0, 73, 90
2, 108821, Note_on_c, 0, 69, 0
2, 108828, Note_on_c, 0, 66, 0
2, 108837, Control_c, 0, 64, 0
2, 108837, Note_on_c, 0, 57, 62
2, 108924, Note_on_c, 0, 57, 0
2, 108943, Note_on_c, 0, 68, 88
2, 108943, Note_on_c, 0, 71, 81
2, 108950, Note_on_c, 0, 64, 81
2, 108954, Note_on_c, 0, 73, 0
2, 109034, Note_on_c, 0, 64, 0
2, 109045, Control_c, 0, 64, 8
2, 109064, Note_on_c, 0, 71, 0
2, 109066, Control_c, 0, 64, 9
2, 109076, Note_on_c, 0, 74, 89
2, 109087, Control_c, 0, 64, 10
2, 109087, Note_on_c, 0, 68, 0
2, 109202, Note_on_c, 0, 73, 92
2, 109220, Control_c, 0, 64, 8
2, 109240, Control_c, 0, 64, 0
2, 109240, Note_on_c, 0, 74, 0
2, 109333, Note_on_c, 0, 68, 88
2, 109342, Note_on_c, 0, 52, 61
2, 109391, Control_c, 0, 64, 8
2, 109409, Control_c, 0, 64, 9
2, 109452, Note_on_c, 0, 69, 79
2, 109473, Control_c, 0, 64, 10
2, 109473, Note_on_c, 0, 52, 0
2, 109473, Note_on_c, 0, 54, 75
2, 109473, Note_on_c, 0, 68, 0
2, 109486, Control_c, 0, 64, 11
2, 109537, Note_on_c, 0, 54, 0
2, 109564, Control_c, 0, 64, 12
2, 109584, Control_c, 0, 64, 13
2, 109601, Note_on_c, 0, 76, 95
2, 109606, Control_c, 0, 64, 14
2, 109617, Note_on_c, 0, 73, 0
2, 109621, Control_c, 0, 64, 15
2, 109646, Note_on_c, 0, 69, 0
2, 109726, Note_on_c, 0, 74, 90
2, 109779, Note_on_c, 0, 76, 0
2, 109814, Control_c, 0, 64, 16
2, 109852, Control_c, 0, 64, 17
2, 109863, Note_on_c, 0, 66, 64
2, 109870, Note_on_c, 0, 69, 81
2, 109874, Control_c, 0, 64, 18
2, 109891, Control_c, 0, 64, 19
2, 109932, Control_c, 0, 64, 20
2, 109950, Control_c, 0, 64, 21
2, 109968, Control_c, 0, 64, 22
2, 109987, Control_c, 0, 64, 23
2, 110000, Note_on_c, 0, 68, 75
2, 110000, Note_on_c, 0, 71, 85
2, 110009, Control_c, 0, 64, 25
2, 110020, Note_on_c, 0, 69, 0
2, 110045, Control_c, 0, 64, 26
2, 110120, Control_c, 0, 64, 27
2, 110134, Note_on_c, 0, 78, 90
2, 110153, Note_on_c, 0, 71, 0
2, 110153, Note_on_c, 0, 74, 0
2, 110160, Control_c, 0, 64, 28
2, 110175, Note_on_c, 0, 66, 0
2, 110180, Control_c, 0, 64, 29
2, 110190, Note_on_c, 0, 68, 0
2, 110198, Control_c, 0, 64, 30
2, 110218, Control_c, 0, 64, 31
2, 110218, Control_c, 0, 67, 9
2, 110237, Control_c, 0, 67, 10
2, 110255, Control_c, 0, 64, 32
2, 110262, Note_on_c, 0, 76, 83
2, 110290, Note_on_c, 0, 78, 0
2, 110332, Control_c, 0, 64, 31
2, 110337, Control_c, 0, 67, 9
2, 110375, Control_c, 0, 64, 30
2, 110375, Control_c, 0, 67, 8
2, 110384, Note_on_c, 0, 74, 85
2, 110395, Control_c, 0, 67, 0
2, 110410, Control_c, 0, 64, 29
2, 110416, Note_on_c, 0, 76, 0
2, 110449, Control_c, 0, 64, 28
2, 110482, Note_on_c, 0, 74, 0
2, 110486, Control_c, 0, 64, 27
2, 110514, Note_on_c, 0, 76, 89
2, 110620, Control_c, 0, 64, 26
2, 110638, Note_on_c, 0, 71, 83
2, 110645, Note_on_c, 0, 76, 0
2, 110722, Note_on_c, 0, 71, 0
2, 110762, Note_on_c, 0, 64, 71
2, 110764, Note_on_c, 0, 68, 74
2, 110771, Note_on_c, 0, 73, 86
2, 110803, Note_on_c, 0, 64, 0
2, 110812, Note_on_c, 0, 68, 0
2, 110872, Control_c, 0, 64, 25
2, 110872, Note_on_c, 0, 73, 0
2, 110897, Note_on_c, 0, 74, 85
2, 111005, Note_on_c, 0, 74, 0
2, 111018, Note_on_c, 0, 69, 75
2, 111023, Note_on_c, 0, 57, 76
2, 111023, Note_on_c, 0, 73, 92
2, 111043, Control_c, 0, 64, 24
2, 111061, Note_on_c, 0, 57, 0
2, 111074, Note_on_c, 0, 69, 0
2, 111099, Control_c, 0, 64, 23
2, 111110, Note_on_c, 0, 73, 0
2, 111121, Control_c, 0, 64, 22
2, 111153, Note_on_c, 0, 74, 85
2, 111195, Control_c, 0, 64, 21
2, 111238, Note_on_c, 0, 74, 0
2, 111277, Note_on_c, 0, 59, 72
2, 111282, Note_on_c, 0, 68, 81
2, 111288, Note_on_c, 0, 76, 91
2, 111330, Note_on_c, 0, 59, 0
2, 111330, Note_on_c, 0, 68, 0
2, 111388, Control_c, 0, 64, 20
2, 111404, Note_on_c, 0, 76, 0
2, 111416, Note_on_c, 0, 78, 90
2, 111525, Note_on_c, 0, 69, 58
2, 111529, Note_on_c, 0, 61, 62
2, 111534, Note_on_c, 0, 76, 89
2, 111547, Note_on_c, 0, 78, 0
2, 111564, Note_on_c, 0, 69, 0
2, 111575, Note_on_c, 0, 61, 0
2, 111666, Note_on_c, 0, 81, 81
2, 111675, Note_on_c, 0, 76, 0
2, 111789, Note_on_c, 0, 63, 64
2, 111805, Note_on_c, 0, 71, 71
2, 111810, Note_on_c, 0, 80, 74
2, 111818, Note_on_c, 0, 81, 0
2, 111908, Note_on_c, 0, 78, 79
2, 111913, Note_on_c, 0, 80, 0
2, 111981, Note_on_c, 0, 63, 0
2, 112034, Note_on_c, 0, 78, 0
2, 112038, Note_on_c, 0, 80, 83
2, 112057, Note_on_c, 0, 64, 62
2, 112171, Note_on_c, 0, 78, 76
2, 112183, Note_on_c, 0, 80, 0
2, 112213, Note_on_c, 0, 64, 0
2, 112302, Note_on_c, 0, 52, 57
2, 112302, Note_on_c, 0, 78, 0
2, 112307, Note_on_c, 0, 76, 72
2, 112397, Note_on_c, 0, 52, 0
2, 112433, Note_on_c, 0, 75, 73
2, 112437, Note_on_c, 0, 54, 61
2, 112437, Note_on_c, 0, 76, 0
2, 112541, Note_on_c, 0, 75, 0
2, 112566, Note_on_c, 0, 76, 78
2, 112572, Note_on_c, 0, 56, 66
2, 112576, Note_on_c, 0, 54, 0
2, 112596, Note_on_c, 0, 71, 0
2, 112685, Note_on_c, 0, 56, 0
2, 112695, Note_on_c, 0, 69, 67
2, 112700, Note_on_c, 0, 54, 70
2, 112751, Control_c, 0, 64, 21
2, 112806, Note_on_c, 0, 54, 0
2, 112824, Note_on_c, 0, 69, 0
2, 112835, Note_on_c, 0, 52, 66
2, 112839, Note_on_c, 0, 68, 81
2, 112912, Note_on_c, 0, 68, 0
2, 112944, Control_c, 0, 64, 20
2, 112957, Note_on_c, 0, 56, 74
2, 112962, Note_on_c, 0, 52, 0
2, 112966, Note_on_c, 0, 71, 78
2, 113040, Control_c, 0, 64, 19
2, 113086, Note_on_c, 0, 54, 75
2, 113086, Note_on_c, 0, 56, 0
2, 113097, Note_on_c, 0, 69, 79
2, 113110, Note_on_c, 0, 71, 0
2, 113183, Note_on_c, 0, 54, 0
2, 113192, Control_c, 0, 64, 18
2, 113217, Note_on_c, 0, 57, 75
2, 113217, Note_on_c, 0, 66, 83
2, 113222, Note_on_c, 0, 69, 0
2, 113235, Note_on_c, 0, 76, 0
2, 113235, Note_on_c, 0, 76, 10
2, 113316, Note_on_c, 0, 57, 0
2, 113350, Note_on_c, 0, 56, 76
2, 113350, Note_on_c, 0, 76, 0
2, 113354, Note_on_c, 0, 66, 0
2, 113354, Note_on_c, 0, 71, 81
2, 113494, Note_on_c, 0, 75, 76
2, 113512, Note_on_c, 0, 71, 0
2, 113619, Note_on_c, 0, 76, 70
2, 113685, Note_on_c, 0, 75, 0
2, 113728, Note_on_c, 0, 59, 86
2, 113738, Note_on_c, 0, 56, 0
2, 113738, Note_on_c, 0, 68, 78
2, 113806, Control_c, 0, 64, 19
2, 113858, Note_on_c, 0, 57, 87
2, 113866, Control_c, 0, 64, 20
2, 113871, Note_on_c, 0, 59, 0
2, 113876, Note_on_c, 0, 73, 77
2, 113876, Note_on_c, 0, 76, 0
2, 113907, Control_c, 0, 64, 21
2, 113921, Control_c, 0, 64, 22
2, 113978, Control_c, 0, 64, 23
2, 114009, Note_on_c, 0, 73, 0
2, 114009, Note_on_c, 0, 75, 75
2, 114057, Control_c, 0, 64, 24
2, 114075, Control_c, 0, 64, 25
2, 114122, Note_on_c, 0, 68, 0
2, 114130, Note_on_c, 0, 76, 77
2, 114174, Note_on_c, 0, 75, 0
2, 114267, Note_on_c, 0, 61, 78
2, 114278, Note_on_c, 0, 57, 0
2, 114287, Control_c, 0, 64, 26
2, 114387, Note_on_c, 0, 66, 68
2, 114391, Note_on_c, 0, 61, 0
2, 114406, Note_on_c, 0, 59, 72
2, 114497, Note_on_c, 0, 59, 0
2, 114504, Note_on_c, 0, 76, 0
2, 114519, Control_c, 0, 64, 25
2, 114522, Note_on_c, 0, 57, 67
2, 114530, Note_on_c, 0, 73, 67
2, 114608, Note_on_c, 0, 57, 0
2, 114651, Note_on_c, 0, 59, 69
2, 114655, Note_on_c, 0, 66, 0
2, 114668, Note_on_c, 0, 74, 72
2, 114688, Note_on_c, 0, 73, 0
2, 114751, Note_on_c, 0, 59, 0
2, 114788, Note_on_c, 0, 54, 67
2, 114844, Control_c, 0, 64, 24
2, 114888, Note_on_c, 0, 54, 0
2, 114914, Note_on_c, 0, 56, 67
2, 114921, Control_c, 0, 64, 23
2, 114978, Control_c, 0, 64, 22
2, 115015, Control_c, 0, 64, 21
2, 115020, Note_on_c, 0, 56, 0
2, 115031, Note_on_c, 0, 57, 68
2, 115050, Note_on_c, 0, 66, 66
2, 115075, Control_c, 0, 64, 20
2, 115113, Control_c, 0, 64, 19
2, 115161, Note_on_c, 0, 57, 0
2, 115168, Note_on_c, 0, 56, 65
2, 115170, Note_on_c, 0, 66, 0
2, 115175, Note_on_c, 0, 64, 66
2, 115263, Note_on_c, 0, 56, 0
2, 115296, Note_on_c, 0, 59, 68
2, 115344, Control_c, 0, 64, 18
2, 115362, Note_on_c, 0, 59, 0
2, 115427, Note_on_c, 0, 57, 71
2, 115458, Control_c, 0, 64, 17
2, 115519, Note_on_c, 0, 74, 0
2, 115523, Note_on_c, 0, 57, 0
2, 115540, Note_on_c, 0, 72, 71
2, 115547, Note_on_c, 0, 56, 65
2, 115593, Control_c, 0, 64, 16
2, 115645, Note_on_c, 0, 64, 0
2, 115677, Note_on_c, 0, 56, 0
2, 115677, Note_on_c, 0, 73, 74
2, 115697, Note_on_c, 0, 57, 63
2, 115709, Note_on_c, 0, 72, 0
2, 115727, Control_c, 0, 64, 17
2, 115765, Control_c, 0, 64, 18
2, 115785, Control_c, 0, 64, 19
2, 115799, Note_on_c, 0, 57, 0
2, 115820, Note_on_c, 0, 52, 62
2, 115879, Control_c, 0, 64, 20
2, 115927, Note_on_c, 0, 52, 0
2, 115945, Note_on_c, 0, 54, 60
2, 116040, Note_on_c, 0, 54, 0
2, 116071, Note_on_c, 0, 56, 61
2, 116076, Note_on_c, 0, 64, 66
2, 116187, Note_on_c, 0, 56, 0
2, 116191, Note_on_c, 0, 64, 0
2, 116196, Note_on_c, 0, 54, 58
2, 116204, Note_on_c, 0, 63, 61
2, 116265, Note_on_c, 0, 54, 0
2, 116305, Control_c, 0, 64, 21
2, 116324, Control_c, 0, 64, 22
2, 116324, Note_on_c, 0, 57, 63
2, 116360, Control_c, 0, 64, 23
2, 116385, Note_on_c, 0, 57, 0
2, 116454, Note_on_c, 0, 56, 61
2, 116511, Note_on_c, 0, 73, 0
2, 116567, Note_on_c, 0, 56, 0
2, 116573, Note_on_c, 0, 70, 64
2, 116578, Control_c, 0, 64, 22
2, 116587, Note_on_c, 0, 54, 60
2, 116686, Note_on_c, 0, 54, 0
2, 116707, Note_on_c, 0, 71, 63
2, 116728, Note_on_c, 0, 56, 60
2, 116734, Note_on_c, 0, 70, 0
2, 116812, Note_on_c, 0, 56, 0
2, 116847, Note_on_c, 0, 51, 62
2, 116911, Note_on_c, 0, 51, 0
2, 116974, Note_on_c, 0, 53, 59
2, 117052, Note_on_c, 0, 53, 0
2, 117091, Note_on_c, 0, 54, 70
2, 117123, Note_on_c, 0, 63, 0
2, 117130, Note_on_c, 0, 62, 70
2, 117174, Note_on_c, 0, 54, 0
2, 117221, Note_on_c, 0, 53, 64
2, 117248, Note_on_c, 0, 61, 76
2, 117248, Note_on_c, 0, 62, 0
2, 117359, Note_on_c, 0, 61, 0
2, 117363, Note_on_c, 0, 53, 0
2, 117375, Note_on_c, 0, 49, 70
2, 117379, Note_on_c, 0, 65, 78
2, 117436, Control_c, 0, 64, 21
2, 117492, Note_on_c, 0, 51, 72
2, 117502, Note_on_c, 0, 49, 0
2, 117511, Note_on_c, 0, 66, 84
2, 117520, Note_on_c, 0, 71, 0
2, 117522, Note_on_c, 0, 65, 0
2, 117582, Note_on_c, 0, 51, 0
2, 117632, Note_on_c, 0, 53, 71
2, 117640, Note_on_c, 0, 68, 89
2, 117655, Note_on_c, 0, 66, 0
2, 117744, Note_on_c, 0, 53, 0
2, 117760, Note_on_c, 0, 54, 78
2, 117764, Note_on_c, 0, 69, 83
2, 117773, Note_on_c, 0, 68, 0
2, 117863, Note_on_c, 0, 54, 0
2, 117895, Note_on_c, 0, 68, 90
2, 117928, Note_on_c, 0, 69, 0
2, 118017, Note_on_c, 0, 66, 87
2, 118022, Note_on_c, 0, 68, 0
2, 118031, Note_on_c, 0, 63, 78
2, 118142, Note_on_c, 0, 69, 78
2, 118151, Note_on_c, 0, 63, 0
2, 118167, Note_on_c, 0, 66, 0
2, 118171, Note_on_c, 0, 54, 63
2, 118204, Control_c, 0, 64, 20
2, 118258, Note_on_c, 0, 69, 0
2, 118264, Note_on_c, 0, 54, 0
2, 118291, Note_on_c, 0, 68, 86
2, 118296, Note_on_c, 0, 61, 66
2, 118307, Note_on_c, 0, 65, 78
2, 118399, Note_on_c, 0, 61, 0
2, 118427, Note_on_c, 0, 71, 85
2, 118445, Note_on_c, 0, 68, 0
2, 118454, Note_on_c, 0, 65, 0
2, 118530, Control_c, 0, 64, 19
2, 118550, Control_c, 0, 64, 18
2, 118561, Note_on_c, 0, 69, 83
2, 118570, Control_c, 0, 64, 17
2, 118589, Control_c, 0, 64, 16
2, 118589, Note_on_c, 0, 71, 0
2, 118628, Control_c, 0, 64, 15
2, 118697, Note_on_c, 0, 65, 78
2, 118701, Note_on_c, 0, 49, 55
2, 118802, Control_c, 0, 64, 16
2, 118814, Note_on_c, 0, 50, 67
2, 118819, Control_c, 0, 64, 17
2, 118837, Control_c, 0, 64, 18
2, 118846, Note_on_c, 0, 66, 84
2, 118850, Note_on_c, 0, 49, 0
2, 118855, Control_c, 0, 64, 19
2, 118859, Note_on_c, 0, 65, 0
2, 118896, Control_c, 0, 64, 20
2, 118967, Note_on_c, 0, 50, 0
2, 118976, Note_on_c, 0, 73, 93
2, 118985, Note_on_c, 0, 69, 0
2, 119013, Note_on_c, 0, 66, 0
2, 119107, Note_on_c, 0, 71, 89
2, 119147, Note_on_c, 0, 73, 0
2, 119241, Control_c, 0, 64, 21
2, 119248, Note_on_c, 0, 66, 84
2, 119262, Control_c, 0, 64, 23
2, 119274, Note_on_c, 0, 51, 62
2, 119297, Control_c, 0, 64, 24
2, 119380, Note_on_c, 0, 68, 84
2, 119397, Note_on_c, 0, 52, 68
2, 119415, Control_c, 0, 64, 25
2, 119415, Note_on_c, 0, 71, 0
2, 119439, Note_on_c, 0, 66, 0
2, 119493, Note_on_c, 0, 52, 0
2, 119496, Note_on_c, 0, 51, 0
2, 119517, Note_on_c, 0, 74, 85
2, 119522, Note_on_c, 0, 68, 0
2, 119626, Control_c, 0, 64, 24
2, 119647, Note_on_c, 0, 73, 83
2, 119676, Note_on_c, 0, 74, 0
2, 119682, Control_c, 0, 64, 23
2, 119779, Note_on_c, 0, 71, 79
2, 119783, Note_on_c, 0, 73, 0
2, 119792, Note_on_c, 0, 56, 55
2, 119838, Note_on_c, 0, 56, 0
2, 119900, Note_on_c, 0, 71, 0
2, 119903, Note_on_c, 0, 53, 68
2, 119907, Note_on_c, 0, 73, 83
2, 119948, Note_on_c, 0, 53, 0
2, 120037, Note_on_c, 0, 68, 77
2, 120045, Note_on_c, 0, 73, 0
2, 120085, Control_c, 0, 64, 22
2, 120143, Control_c, 0, 64, 21
2, 120150, Note_on_c, 0, 68, 0
2, 120158, Note_on_c, 0, 49, 60
2, 120168, Note_on_c, 0, 69, 71
2, 120181, Control_c, 0, 64, 20
2, 120217, Note_on_c, 0, 49, 0
2, 120222, Control_c, 0, 64, 19
2, 120260, Control_c, 0, 64, 18
2, 120265, Note_on_c, 0, 69, 0
2, 120277, Control_c, 0, 64, 17
2, 120282, Note_on_c, 0, 71, 76
2, 120316, Control_c, 0, 64, 16
2, 120353, Control_c, 0, 64, 15
2, 120403, Note_on_c, 0, 71, 0
2, 120418, Note_on_c, 0, 54, 56
2, 120418, Note_on_c, 0, 69, 68
2, 120478, Note_on_c, 0, 54, 0
2, 120567, Note_on_c, 0, 68, 64
2, 120662, Control_c, 0, 64, 13
2, 120678, Control_c, 0, 64, 11
2, 120689, Note_on_c, 0, 66, 62
2, 120700, Control_c, 0, 64, 9
2, 120721, Control_c, 0, 64, 0
2, 120739, Note_on_c, 0, 68, 0
2, 120808, Note_on_c, 0, 66, 0
2, 120826, Note_on_c, 0, 65, 59
2, 120832, Note_on_c, 0, 56, 53
2, 120917, Note_on_c, 0, 65, 0
2, 120926, Note_on_c, 0, 56, 0
2, 120944, Note_on_c, 0, 57, 66
2, 120950, Note_on_c, 0, 66, 68
2, 120994, Note_on_c, 0, 57, 0
2, 121060, Note_on_c, 0, 66, 0
2, 121093, Note_on_c, 0, 61, 68
2, 121199, Note_on_c, 0, 61, 0
2, 121220, Note_on_c, 0, 54, 66
2, 121239, Note_on_c, 0, 63, 65
2, 121269, Note_on_c, 0, 54, 0
2, 121348, Note_on_c, 0, 63, 0
2, 121354, Note_on_c, 0, 64, 71
2, 121358, Note_on_c, 0, 69, 0
2, 121456, Note_on_c, 0, 64, 0
2, 121478, Note_on_c, 0, 47, 49
2, 121492, Note_on_c, 0, 63, 68
2, 121613, Note_on_c, 0, 73, 73
2, 121640, Note_on_c, 0, 47, 0
2, 121699, Control_c, 0, 67, 10
2, 121718, Control_c, 0, 67, 25
2, 121736, Control_c, 0, 67, 46
2, 121750, Note_on_c, 0, 71, 68
2, 121757, Note_on_c, 0, 73, 0
2, 121762, Control_c, 0, 67, 61
2, 121775, Control_c, 0, 67, 71
2, 121793, Control_c, 0, 67, 78
2, 121817, Control_c, 0, 67, 81
2, 121834, Control_c, 0, 67, 83
2, 121851, Control_c, 0, 67, 86
2, 121871, Control_c, 0, 67, 89
2, 121871, Note_on_c, 0, 71, 0
2, 121878, Note_on_c, 0, 49, 57
2, 121882, Note_on_c, 0, 69, 67
2, 121891, Control_c, 0, 67, 92
2, 121937, Note_on_c, 0, 49, 0
2, 122004, Note_on_c, 0, 69, 0
2, 122018, Note_on_c, 0, 51, 66
2, 122018, Note_on_c, 0, 71, 68
2, 122067, Note_on_c, 0, 51, 0
2, 122140, Control_c, 0, 67, 91
2, 122140, Note_on_c, 0, 71, 0
2, 122160, Note_on_c, 0, 66, 64
2, 122198, Control_c, 0, 67, 90
2, 122216, Control_c, 0, 67, 89
2, 122236, Control_c, 0, 67, 88
2, 122275, Control_c, 0, 67, 87
2, 122279, Note_on_c, 0, 47, 50
2, 122283, Note_on_c, 0, 66, 0
2, 122283, Note_on_c, 0, 68, 69
2, 122292, Control_c, 0, 67, 86
2, 122314, Control_c, 0, 67, 85
2, 122333, Control_c, 0, 67, 83
2, 122341, Note_on_c, 0, 47, 0
2, 122350, Control_c, 0, 67, 82
2, 122370, Control_c, 0, 67, 81
2, 122391, Control_c, 0, 67, 80
2, 122391, Note_on_c, 0, 68, 0
2, 122395, Note_on_c, 0, 63, 0
2, 122400, Note_on_c, 0, 69, 59
2, 122411, Control_c, 0, 67, 79
2, 122426, Control_c, 0, 67, 78
2, 122449, Control_c, 0, 67, 77
2, 122465, Control_c, 0, 67, 75
2, 122487, Control_c, 0, 67, 74
2, 122503, Control_c, 0, 67, 73
2, 122523, Control_c, 0, 67, 69
2, 122536, Note_on_c, 0, 52, 59
2, 122543, Control_c, 0, 67, 63
2, 122553, Note_on_c, 0, 69, 0
2, 122566, Control_c, 0, 64, 8
2, 122566, Control_c, 0, 67, 56
2, 122566, Note_on_c, 0, 68, 72
2, 122585, Control_c, 0, 64, 11
2, 122585, Control_c, 0, 67, 51
2, 122601, Control_c, 0, 64, 12
2, 122605, Control_c, 0, 67, 47
2, 122620, Control_c, 0, 64, 13
2, 122642, Control_c, 0, 64, 14
2, 122642, Control_c, 0, 67, 46
2, 122660, Control_c, 0, 64, 15
2, 122678, Control_c, 0, 64, 17
2, 122680, Control_c, 0, 67, 45
2, 122688, Note_on_c, 0, 56, 69
2, 122697, Control_c, 0, 64, 18
2, 122718, Control_c, 0, 67, 42
2, 122736, Control_c, 0, 67, 36
2, 122754, Control_c, 0, 67, 28
2, 122774, Control_c, 0, 67, 16
2, 122791, Note_on_c, 0, 52, 0
2, 122791, Note_on_c, 0, 52, 3
2, 122796, Control_c, 0, 67, 0
2, 122823, Note_on_c, 0, 56, 0
2, 122827, Note_on_c, 0, 61, 65
2, 122834, Control_c, 0, 64, 17
2, 122851, Control_c, 0, 64, 16
2, 122879, Note_on_c, 0, 52, 0
2, 122938, Note_on_c, 0, 51, 61
2, 122938, Note_on_c, 0, 63, 74
2, 122968, Note_on_c, 0, 61, 0
2, 123015, Note_on_c, 0, 63, 0
2, 123065, Note_on_c, 0, 64, 83
2, 123071, Note_on_c, 0, 51, 0
2, 123082, Note_on_c, 0, 49, 62
2, 123196, Control_c, 0, 64, 17
2, 123196, Note_on_c, 0, 49, 0
2, 123200, Note_on_c, 0, 63, 83
2, 123205, Note_on_c, 0, 64, 0
2, 123219, Control_c, 0, 64, 18
2, 123253, Control_c, 0, 64, 19
2, 123272, Control_c, 0, 64, 20
2, 123309, Control_c, 0, 64, 21
2, 123338, Note_on_c, 0, 61, 81
2, 123351, Note_on_c, 0, 63, 0
2, 123387, Control_c, 0, 64, 22
2, 123405, Note_on_c, 0, 61, 0
2, 123467, Note_on_c, 0, 64, 84
2, 123506, Note_on_c, 0, 60, 50
2, 123535, Note_on_c, 0, 60, 0
2, 123566, Note_on_c, 0, 64, 0
2, 123597, Note_on_c, 0, 63, 68
2, 123623, Note_on_c, 0, 60, 72
2, 123681, Note_on_c, 0, 63, 0
2, 123719, Note_on_c, 0, 66, 75
2, 123733, Note_on_c, 0, 68, 0
2, 123748, Note_on_c, 0, 60, 0
2, 123759, Note_on_c, 0, 56, 60
2, 123853, Note_on_c, 0, 66, 0
2, 123857, Note_on_c, 0, 61, 71
2, 123857, Note_on_c, 0, 64, 85
2, 123942, Note_on_c, 0, 61, 0
2, 123946, Note_on_c, 0, 56, 0
2, 123994, Note_on_c, 0, 59, 68
2, 123994, Note_on_c, 0, 68, 83
2, 124081, Note_on_c, 0, 59, 0
2, 124127, Note_on_c, 0, 57, 70
2, 124141, Note_on_c, 0, 73, 88
2, 124145, Note_on_c, 0, 68, 0
2, 124235, Note_on_c, 0, 57, 0
2, 124253, Note_on_c, 0, 56, 72
2, 124266, Note_on_c, 0, 68, 87
2, 124302, Note_on_c, 0, 73, 0
2, 124351, Control_c, 0, 64, 21
2, 124351, Note_on_c, 0, 64, 0
2, 124368, Note_on_c, 0, 56, 0
2, 124390, Note_on_c, 0, 57, 58
2, 124390, Note_on_c, 0, 66, 89
2, 124405, Control_c, 0, 64, 20
2, 124495, Note_on_c, 0, 57, 0
2, 124524, Note_on_c, 0, 54, 62
2, 124546, Note_on_c, 0, 68, 0
2, 124551, Note_on_c, 0, 75, 78
2, 124631, Note_on_c, 0, 54, 0
2, 124647, Note_on_c, 0, 56, 75
2, 124674, Note_on_c, 0, 72, 82
2, 124708, Note_on_c, 0, 75, 0
2, 124729, Note_on_c, 0, 66, 0
2, 124819, Note_on_c, 0, 69, 70
2, 124899, Note_on_c, 0, 56, 0
2, 124903, Control_c, 0, 64, 19
2, 124943, Control_c, 0, 64, 18
2, 124949, Note_on_c, 0, 68, 78
2, 124978, Note_on_c, 0, 69, 0
2, 125018, Note_on_c, 0, 72, 0
2, 125080, Note_on_c, 0, 66, 78
2, 125080, Note_on_c, 0, 68, 0
2, 125086, Note_on_c, 0, 51, 62
2, 125135, Note_on_c, 0, 51, 0
2, 125173, Note_on_c, 0, 66, 0
2, 125207, Note_on_c, 0, 75, 71
2, 125211, Note_on_c, 0, 68, 73
2, 125216, Note_on_c, 0, 48, 58
2, 125254, Control_c, 0, 64, 17
2, 125287, Note_on_c, 0, 48, 0
2, 125287, Note_on_c, 0, 68, 0
2, 125334, Note_on_c, 0, 63, 67
2, 125446, Note_on_c, 0, 63, 0
2, 125462, Note_on_c, 0, 64, 64
2, 125484, Note_on_c, 0, 44, 48
2, 125539, Control_c, 0, 67, 9
2, 125541, Note_on_c, 0, 44, 0
2, 125559, Control_c, 0, 67, 18
2, 125578, Control_c, 0, 64, 18
2, 125578, Control_c, 0, 67, 25
2, 125588, Note_on_c, 0, 64, 0
2, 125593, Note_on_c, 0, 66, 66
2, 125597, Control_c, 0, 67, 33
2, 125614, Control_c, 0, 67, 40
2, 125634, Control_c, 0, 67, 49
2, 125654, Control_c, 0, 67, 60
2, 125674, Control_c, 0, 67, 75
2, 125692, Control_c, 0, 67, 90
2, 125696, Note_on_c, 0, 66, 0
2, 125710, Control_c, 0, 67, 103
2, 125732, Control_c, 0, 64, 19
2, 125732, Control_c, 0, 67, 113
2, 125738, Note_on_c, 0, 49, 50
2, 125738, Note_on_c, 0, 64, 67
2, 125752, Control_c, 0, 67, 122
2, 125767, Control_c, 0, 67, 127
2, 125789, Control_c, 0, 64, 20
2, 125856, Note_on_c, 0, 75, 0
2, 125872, Note_on_c, 0, 72, 74
2, 125892, Note_on_c, 0, 64, 0
2, 126018, Note_on_c, 0, 73, 77
2, 126060, Note_on_c, 0, 72, 0
2, 126143, Note_on_c, 0, 56, 49
2, 126150, Note_on_c, 0, 73, 0
2, 126157, Note_on_c, 0, 75, 73
2, 126196, Note_on_c, 0, 56, 0
2, 126266, Note_on_c, 0, 75, 0
2, 126282, Note_on_c, 0, 73, 80
2, 126291, Note_on_c, 0, 58, 43
2, 126325, Control_c, 0, 64, 19
2, 126352, Note_on_c, 0, 58, 0
2, 126391, Note_on_c, 0, 73, 0
2, 126405, Note_on_c, 0, 78, 72
2, 126552, Note_on_c, 0, 76, 68
2, 126556, Note_on_c, 0, 78, 0
2, 126561, Note_on_c, 0, 60, 48
2, 126569, Note_on_c, 0, 49, 0
2, 126667, Note_on_c, 0, 60, 0
2, 126674, Note_on_c, 0, 75, 64
2, 126678, Note_on_c, 0, 76, 0
2, 126766, Control_c, 0, 64, 18
2, 126822, Note_on_c, 0, 61, 42
2, 126824, Note_on_c, 0, 75, 0
2, 126824, Note_on_c, 0, 76, 70
2, 126917, Note_on_c, 0, 61, 0
2, 126945, Note_on_c, 0, 63, 58
2, 127074, Note_on_c, 0, 63, 0
2, 127078, Note_on_c, 0, 61, 55
2, 127191, Note_on_c, 0, 61, 0
2, 127209, Note_on_c, 0, 60, 51
2, 127330, Note_on_c, 0, 60, 0
2, 127350, Note_on_c, 0, 61, 50
2, 127457, Note_on_c, 0, 61, 0
2, 127514, Note_on_c, 0, 56, 51
2, 127591, Control_c, 0, 64, 17
2, 127629, Note_on_c, 0, 56, 0
2, 127638, Note_on_c, 0, 58, 53
2, 127716, Note_on_c, 0, 58, 0
2, 127783, Note_on_c, 0, 59, 42
2, 127879, Control_c, 0, 64, 16
2, 127900, Note_on_c, 0, 59, 0
2, 127904, Note_on_c, 0, 58, 61
2, 128017, Note_on_c, 0, 79, 70
2, 128026, Note_on_c, 0, 76, 0
2, 128046, Note_on_c, 0, 58, 0
2, 128072, Control_c, 0, 67, 120
2, 128091, Control_c, 0, 67, 114
2, 128110, Control_c, 0, 67, 108
2, 128128, Control_c, 0, 67, 102
2, 128151, Control_c, 0, 67, 96
2, 128160, Note_on_c, 0, 79, 0
2, 128164, Note_on_c, 0, 78, 74
2, 128170, Control_c, 0, 67, 88
2, 128187, Control_c, 0, 67, 80
2, 128207, Control_c, 0, 67, 69
2, 128228, Control_c, 0, 67, 60
2, 128248, Control_c, 0, 67, 49
2, 128263, Control_c, 0, 67, 42
2, 128285, Control_c, 0, 67, 35
2, 128303, Control_c, 0, 67, 26
2, 128308, Note_on_c, 0, 61, 62
2, 128308, Note_on_c, 0, 76, 73
2, 128321, Control_c, 0, 67, 16
2, 128326, Note_on_c, 0, 78, 0
2, 128342, Control_c, 0, 67, 0
2, 128352, Note_on_c, 0, 61, 0
2, 128433, Note_on_c, 0, 76, 0
2, 128443, Note_on_c, 0, 58, 63
2, 128452, Note_on_c, 0, 78, 79
2, 128499, Note_on_c, 0, 58, 0
2, 128535, Control_c, 0, 64, 15
2, 128577, Note_on_c, 0, 73, 79
2, 128582, Note_on_c, 0, 78, 0
2, 128699, Note_on_c, 0, 73, 0
2, 128703, Note_on_c, 0, 54, 60
2, 128703, Note_on_c, 0, 74, 77
2, 128753, Note_on_c, 0, 54, 0
2, 128829, Note_on_c, 0, 74, 0
2, 128832, Note_on_c, 0, 76, 76
2, 128962, Note_on_c, 0, 59, 62
2, 128982, Note_on_c, 0, 74, 80
2, 129005, Note_on_c, 0, 76, 0
2, 129104, Note_on_c, 0, 73, 79
2, 129109, Note_on_c, 0, 59, 0
2, 129252, Note_on_c, 0, 71, 68
2, 129256, Note_on_c, 0, 73, 0
2, 129339, Control_c, 0, 64, 14
2, 129348, Note_on_c, 0, 54, 68
2, 129359, Control_c, 0, 64, 13
2, 129381, Note_on_c, 0, 71, 0
2, 129387, Note_on_c, 0, 70, 77
2, 129394, Note_on_c, 0, 54, 0
2, 129398, Control_c, 0, 64, 12
2, 129435, Control_c, 0, 64, 11
2, 129468, Note_on_c, 0, 50, 70
2, 129515, Note_on_c, 0, 70, 0
2, 129525, Note_on_c, 0, 71, 70
2, 129529, Note_on_c, 0, 50, 0
2, 129531, Note_on_c, 0, 72, 71
2, 129584, Note_on_c, 0, 72, 0
2, 129613, Note_on_c, 0, 71, 0
2, 129642, Note_on_c, 0, 66, 72
2, 129647, Control_c, 0, 64, 12
2, 129760, Note_on_c, 0, 47, 61
2, 129764, Note_on_c, 0, 68, 83
2, 129768, Note_on_c, 0, 66, 0
2, 129802, Control_c, 0, 64, 13
2, 129808, Note_on_c, 0, 47, 0
2, 129857, Control_c, 0, 64, 14
2, 129876, Control_c, 0, 64, 15
2, 129884, Note_on_c, 0, 74, 0
2, 129890, Note_on_c, 0, 69, 79
2, 129906, Note_on_c, 0, 68, 0
2, 129917, Control_c, 0, 64, 16
2, 130014, Note_on_c, 0, 69, 0
2, 130031, Control_c, 0, 64, 17
2, 130040, Note_on_c, 0, 68, 84
2, 130044, Note_on_c, 0, 52, 71
2, 130145, Control_c, 0, 64, 18
2, 130164, Control_c, 0, 64, 19
2, 130172, Note_on_c, 0, 78, 81
2, 130205, Control_c, 0, 64, 20
2, 130242, Control_c, 0, 64, 21
2, 130266, Note_on_c, 0, 52, 0
2, 130304, Note_on_c, 0, 76, 78
2, 130345, Note_on_c, 0, 78, 0
2, 130426, Note_on_c, 0, 47, 72
2, 130430, Note_on_c, 0, 74, 83
2, 130458, Note_on_c, 0, 76, 0
2, 130473, Note_on_c, 0, 47, 0
2, 130543, Note_on_c, 0, 44, 80
2, 130564, Note_on_c, 0, 76, 90
2, 130568, Note_on_c, 0, 74, 0
2, 130641, Note_on_c, 0, 44, 0
2, 130689, Note_on_c, 0, 71, 80
2, 130705, Note_on_c, 0, 76, 0
2, 130824, Note_on_c, 0, 40, 62
2, 130824, Note_on_c, 0, 73, 85
2, 130856, Control_c, 0, 64, 22
2, 130873, Note_on_c, 0, 71, 0
2, 130876, Note_on_c, 0, 40, 0
2, 130943, Note_on_c, 0, 74, 84
2, 130969, Note_on_c, 0, 73, 0
2, 130991, Control_c, 0, 64, 23
2, 131006, Note_on_c, 0, 68, 0
2, 131077, Note_on_c, 0, 33, 67
2, 131086, Note_on_c, 0, 73, 88
2, 131093, Note_on_c, 0, 69, 73
2, 131108, Note_on_c, 0, 74, 0
2, 131208, Note_on_c, 0, 40, 64
2, 131226, Note_on_c, 0, 74, 86
2, 131231, Note_on_c, 0, 73, 0
2, 131255, Note_on_c, 0, 33, 0
2, 131259, Note_on_c, 0, 69, 0
2, 131326, Note_on_c, 0, 40, 0
2, 131332, Note_on_c, 0, 45, 70
2, 131346, Note_on_c, 0, 73, 88
2, 131371, Note_on_c, 0, 74, 0
2, 131464, Note_on_c, 0, 47, 77
2, 131468, Note_on_c, 0, 45, 0
2, 131489, Note_on_c, 0, 71, 88
2, 131541, Note_on_c, 0, 73, 0
2, 131595, Note_on_c, 0, 71, 0
2, 131610, Note_on_c, 0, 69, 81
2, 131615, Note_on_c, 0, 48, 71
2, 131619, Note_on_c, 0, 47, 0
2, 131673, Note_on_c, 0, 48, 0
2, 131721, Control_c, 0, 64, 24
2, 131745, Note_on_c, 0, 47, 73
2, 131749, Note_on_c, 0, 68, 85
2, 131754, Note_on_c, 0, 69, 0
2, 131872, Note_on_c, 0, 45, 69
2, 131892, Note_on_c, 0, 66, 82
2, 131938, Note_on_c, 0, 68, 0
2, 131985, Note_on_c, 0, 47, 0
2, 132016, Note_on_c, 0, 49, 73
2, 132020, Note_on_c, 0, 64, 79
2, 132027, Note_on_c, 0, 45, 0
2, 132034, Note_on_c, 0, 66, 0
2, 132077, Note_on_c, 0, 64, 0
2, 132109, Note_on_c, 0, 49, 0
2, 132147, Note_on_c, 0, 47, 74
2, 132151, Note_on_c, 0, 62, 88
2, 132202, Control_c, 0, 64, 23
2, 132256, Note_on_c, 0, 47, 0
2, 132269, Note_on_c, 0, 50, 79
2, 132295, Note_on_c, 0, 66, 74
2, 132300, Note_on_c, 0, 62, 0
2, 132353, Control_c, 0, 64, 22
2, 132414, Note_on_c, 0, 49, 75
2, 132414, Note_on_c, 0, 50, 0
2, 132418, Note_on_c, 0, 68, 76
2, 132431, Note_on_c, 0, 66, 0
2, 132547, Note_on_c, 0, 71, 76
2, 132551, Note_on_c, 0, 68, 0
2, 132585, Control_c, 0, 64, 21
2, 132604, Control_c, 0, 64, 20
2, 132621, Control_c, 0, 64, 19
2, 132641, Control_c, 0, 64, 18
2, 132645, Note_on_c, 0, 71, 0
2, 132664, Control_c, 0, 64, 17
2, 132680, Note_on_c, 0, 64, 79
2, 132702, Control_c, 0, 64, 16
2, 132791, Note_on_c, 0, 52, 88
2, 132802, Note_on_c, 0, 49, 0
2, 132806, Note_on_c, 0, 68, 76
2, 132825, Note_on_c, 0, 64, 0
2, 132927, Note_on_c, 0, 50, 84
2, 132940, Note_on_c, 0, 52, 0
2, 132958, Note_on_c, 0, 70, 74
2, 132972, Note_on_c, 0, 68, 0
2, 133083, Control_c, 0, 64, 17
2, 133099, Note_on_c, 0, 73, 77
2, 133119, Note_on_c, 0, 70, 0
2, 133123, Control_c, 0, 64, 18
2, 133180, Control_c, 0, 64, 19
2, 133228, Note_on_c, 0, 71, 72
2, 133245, Note_on_c, 0, 73, 0
2, 133293, Control_c, 0, 64, 20
2, 133333, Control_c, 0, 64, 21
2, 133350, Note_on_c, 0, 50, 0
2, 133355, Note_on_c, 0, 54, 77
2, 133476, Note_on_c, 0, 54, 0
2, 133489, Note_on_c, 0, 52, 70
2, 133596, Note_on_c, 0, 52, 0
2, 133607, Note_on_c, 0, 51, 67
2, 133626, Note_on_c, 0, 66, 73
2, 133681, Note_on_c, 0, 51, 0
2, 133732, Note_on_c, 0, 52, 65
2, 133741, Note_on_c, 0, 66, 0
2, 133748, Note_on_c, 0, 67, 69
2, 133838, Note_on_c, 0, 71, 0
2, 133861, Note_on_c, 0, 52, 0
2, 133876, Note_on_c, 0, 47, 62
2, 134002, Note_on_c, 0, 47, 0
2, 134002, Note_on_c, 0, 49, 62
2, 134004, Control_c, 0, 64, 20
2, 134024, Control_c, 0, 64, 19
2, 134043, Control_c, 0, 64, 18
2, 134081, Control_c, 0, 64, 17
2, 134090, Note_on_c, 0, 49, 0
2, 134120, Control_c, 0, 64, 16
2, 134142, Note_on_c, 0, 50, 67
2, 134158, Control_c, 0, 64, 15
2, 134158, Note_on_c, 0, 71, 81
2, 134215, Control_c, 0, 64, 14
2, 134282, Note_on_c, 0, 69, 74
2, 134286, Note_on_c, 0, 49, 63
2, 134294, Note_on_c, 0, 50, 0
2, 134318, Note_on_c, 0, 71, 0
2, 134398, Note_on_c, 0, 49, 0
2, 134427, Note_on_c, 0, 52, 67
2, 134445, Control_c, 0, 64, 15
2, 134466, Control_c, 0, 64, 16
2, 134523, Control_c, 0, 64, 17
2, 134538, Note_on_c, 0, 52, 0
2, 134545, Note_on_c, 0, 50, 69
2, 134608, Note_on_c, 0, 67, 0
2, 134656, Note_on_c, 0, 50, 0
2, 134664, Note_on_c, 0, 49, 62
2, 134673, Note_on_c, 0, 65, 64
2, 134715, Control_c, 0, 64, 18
2, 134751, Note_on_c, 0, 49, 0
2, 134795, Note_on_c, 0, 65, 0
2, 134799, Note_on_c, 0, 66, 63
2, 134818, Note_on_c, 0, 50, 51
2, 134887, Control_c, 0, 64, 19
2, 134913, Note_on_c, 0, 50, 0
2, 134913, Note_on_c, 0, 69, 0
2, 134947, Note_on_c, 0, 45, 53
2, 135017, Note_on_c, 0, 45, 0
2, 135060, Control_c, 0, 64, 18
2, 135079, Control_c, 0, 64, 17
2, 135084, Note_on_c, 0, 47, 56
2, 135117, Control_c, 0, 64, 16
2, 135155, Control_c, 0, 64, 15
2, 135175, Note_on_c, 0, 47, 0
2, 135210, Note_on_c, 0, 49, 58
2, 135210, Note_on_c, 0, 69, 69
2, 135233, Control_c, 0, 64, 14
2, 135295, Note_on_c, 0, 49, 0
2, 135339, Note_on_c, 0, 47, 55
2, 135350, Note_on_c, 0, 68, 66
2, 135367, Note_on_c, 0, 69, 0
2, 135403, Note_on_c, 0, 47, 0
2, 135448, Control_c, 0, 64, 15
2, 135448, Control_c, 0, 67, 14
2, 135465, Control_c, 0, 67, 33
2, 135465, Note_on_c, 0, 50, 51
2, 135484, Control_c, 0, 64, 16
2, 135488, Control_c, 0, 67, 58
2, 135504, Control_c, 0, 67, 87
2, 135525, Control_c, 0, 64, 17
2, 135525, Control_c, 0, 67, 114
2, 135545, Control_c, 0, 67, 127
2, 135545, Note_on_c, 0, 50, 0
2, 135561, Control_c, 0, 64, 18
2, 135604, Note_on_c, 0, 49, 51
2, 135695, Note_on_c, 0, 49, 0
2, 135739, Note_on_c, 0, 47, 53
2, 135745, Note_on_c, 0, 63, 60
2, 135813, Note_on_c, 0, 47, 0
2, 135841, Note_on_c, 0, 66, 0
2, 135859, Note_on_c, 0, 63, 0
2, 135867, Control_c, 0, 64, 19
2, 135872, Note_on_c, 0, 64, 61
2, 135879, Note_on_c, 0, 49, 47
2, 135904, Control_c, 0, 64, 20
2, 135943, Control_c, 0, 64, 21
2, 135959, Note_on_c, 0, 49, 0
2, 135964, Control_c, 0, 64, 22
2, 136002, Control_c, 0, 64, 23
2, 136020, Control_c, 0, 64, 24
2, 136020, Note_on_c, 0, 44, 52
2, 136049, Note_on_c, 0, 68, 0
2, 136099, Note_on_c, 0, 44, 0
2, 136148, Note_on_c, 0, 46, 47
2, 136204, Note_on_c, 0, 46, 0
2, 136215, Control_c, 0, 64, 23
2, 136258, Note_on_c, 0, 47, 46
2, 136269, Note_on_c, 0, 67, 61
2, 136356, Note_on_c, 0, 47, 0
2, 136367, Control_c, 0, 64, 22
2, 136367, Note_on_c, 0, 64, 0
2, 136387, Note_on_c, 0, 46, 58
2, 136407, Note_on_c, 0, 66, 68
2, 136416, Note_on_c, 0, 67, 0
2, 136517, Note_on_c, 0, 46, 0
2, 136522, Control_c, 0, 67, 120
2, 136524, Note_on_c, 0, 42, 61
2, 136538, Control_c, 0, 67, 110
2, 136557, Control_c, 0, 67, 100
2, 136577, Control_c, 0, 67, 91
2, 136597, Control_c, 0, 67, 83
2, 136616, Control_c, 0, 67, 75
2, 136635, Control_c, 0, 67, 67
2, 136639, Note_on_c, 0, 42, 0
2, 136656, Control_c, 0, 64, 21
2, 136656, Control_c, 0, 67, 57
2, 136667, Note_on_c, 0, 44, 60
2, 136676, Control_c, 0, 64, 20
2, 136676, Control_c, 0, 67, 49
2, 136680, Note_on_c, 0, 62, 72
2, 136693, Control_c, 0, 67, 41
2, 136713, Control_c, 0, 64, 19
2, 136713, Control_c, 0, 67, 35
2, 136730, Control_c, 0, 67, 31
2, 136746, Note_on_c, 0, 44, 0
2, 136754, Control_c, 0, 67, 26
2, 136766, Note_on_c, 0, 62, 0
2, 136768, Control_c, 0, 67, 22
2, 136788, Control_c, 0, 67, 15
2, 136794, Note_on_c, 0, 61, 68
2, 136799, Note_on_c, 0, 46, 65
2, 136809, Control_c, 0, 64, 18
2, 136809, Control_c, 0, 67, 9
2, 136826, Control_c, 0, 67, 0
2, 136916, Note_on_c, 0, 61, 0
2, 136927, Note_on_c, 0, 44, 71
2, 136927, Note_on_c, 0, 46, 0
2, 136938, Note_on_c, 0, 59, 75
2, 137016, Note_on_c, 0, 44, 0
2, 137040, Note_on_c, 0, 49, 68
2, 137045, Note_on_c, 0, 59, 0
2, 137066, Note_on_c, 0, 58, 71
2, 137086, Note_on_c, 0, 66, 0
2, 137111, Note_on_c, 0, 49, 0
2, 137180, Note_on_c, 0, 47, 64
2, 137197, Note_on_c, 0, 56, 77
2, 137211, Note_on_c, 0, 58, 0
2, 137215, Control_c, 0, 64, 19
2, 137243, Note_on_c, 0, 47, 0
2, 137250, Control_c, 0, 64, 20
2, 137295, Note_on_c, 0, 56, 0
2, 137314, Note_on_c, 0, 46, 67
2, 137321, Note_on_c, 0, 54, 76
2, 137396, Note_on_c, 0, 46, 0
2, 137401, Note_on_c, 0, 54, 0
2, 137403, Control_c, 0, 64, 19
2, 137442, Control_c, 0, 64, 18
2, 137459, Note_on_c, 0, 47, 65
2, 137459, Note_on_c, 0, 62, 78
2, 137459, Note_on_c, 0, 66, 77
2, 137481, Control_c, 0, 64, 17
2, 137501, Control_c, 0, 64, 16
2, 137517, Control_c, 0, 64, 14
2, 137539, Control_c, 0, 64, 12
2, 137556, Control_c, 0, 64, 8
2, 137578, Control_c, 0, 64, 0
2, 137582, Note_on_c, 0, 47, 0
2, 137587, Note_on_c, 0, 61, 77
2, 137592, Note_on_c, 0, 49, 66
2, 137607, Note_on_c, 0, 62, 0
2, 137637, Note_on_c, 0, 49, 0
2, 137720, Note_on_c, 0, 61, 0
2, 137722, Note_on_c, 0, 59, 80
2, 137726, Note_on_c, 0, 50, 72
2, 137841, Note_on_c, 0, 58, 80
2, 137845, Note_on_c, 0, 59, 0
2, 137848, Note_on_c, 0, 50, 0
2, 137867, Note_on_c, 0, 52, 73
2, 137888, Note_on_c, 0, 66, 0
2, 137941, Note_on_c, 0, 52, 0
2, 137973, Note_on_c, 0, 59, 84
2, 137980, Note_on_c, 0, 58, 0
2, 137993, Note_on_c, 0, 50, 74
2, 138100, Note_on_c, 0, 64, 83
2, 138117, Note_on_c, 0, 50, 0
2, 138117, Note_on_c, 0, 59, 0
2, 138125, Note_on_c, 0, 55, 73
2, 138249, Note_on_c, 0, 62, 88
2, 138253, Note_on_c, 0, 54, 74
2, 138253, Note_on_c, 0, 55, 0
2, 138257, Note_on_c, 0, 64, 0
2, 138339, Note_on_c, 0, 54, 0
2, 138345, Control_c, 0, 64, 8
2, 138363, Note_on_c, 0, 52, 74
2, 138368, Control_c, 0, 64, 11
2, 138377, Note_on_c, 0, 61, 89
2, 138381, Control_c, 0, 64, 12
2, 138392, Note_on_c, 0, 62, 0
2, 138402, Control_c, 0, 64, 13
2, 138420, Control_c, 0, 64, 14
2, 138461, Control_c, 0, 64, 15
2, 138498, Note_on_c, 0, 54, 76
2, 138498, Note_on_c, 0, 61, 0
2, 138511, Note_on_c, 0, 52, 0
2, 138511, Note_on_c, 0, 62, 90
2, 138575, Note_on_c, 0, 62, 0
2, 138620, Note_on_c, 0, 54, 0
2, 138628, Note_on_c, 0, 56, 76
2, 138637, Note_on_c, 0, 74, 86
2, 138671, Control_c, 0, 64, 14
2, 138671, Note_on_c, 0, 56, 0
2, 138709, Control_c, 0, 64, 13
2, 138749, Note_on_c, 0, 57, 83
2, 138770, Note_on_c, 0, 73, 88
2, 138787, Control_c, 0, 64, 12
2, 138823, Note_on_c, 0, 74, 0
2, 138884, Note_on_c, 0, 57, 0
2, 138890, Note_on_c, 0, 59, 79
2, 138890, Note_on_c, 0, 71, 91
2, 138925, Note_on_c, 0, 73, 0
2, 138966, Note_on_c, 0, 59, 0
2, 139022, Note_on_c, 0, 57, 83
2, 139026, Note_on_c, 0, 73, 88
2, 139029, Note_on_c, 0, 71, 0
2, 139131, Control_c, 0, 64, 13
2, 139140, Note_on_c, 0, 57, 0
2, 139154, Note_on_c, 0, 68, 84
2, 139159, Note_on_c, 0, 62, 81
2, 139188, Note_on_c, 0, 73, 0
2, 139208, Control_c, 0, 64, 14
2, 139268, Note_on_c, 0, 69, 78
2, 139277, Note_on_c, 0, 62, 0
2, 139281, Note_on_c, 0, 68, 0
2, 139286, Note_on_c, 0, 61, 77
2, 139402, Note_on_c, 0, 61, 0
2, 139402, Note_on_c, 0, 71, 78
2, 139406, Note_on_c, 0, 59, 78
2, 139413, Note_on_c, 0, 69, 0
2, 139507, Note_on_c, 0, 71, 0
2, 139527, Note_on_c, 0, 69, 80
2, 139542, Note_on_c, 0, 61, 74
2, 139549, Note_on_c, 0, 59, 0
2, 139647, Note_on_c, 0, 61, 0
2, 139654, Note_on_c, 0, 57, 78
2, 139661, Note_on_c, 0, 73, 90
2, 139703, Note_on_c, 0, 69, 0
2, 139760, Note_on_c, 0, 57, 0
2, 139788, Note_on_c, 0, 59, 79
2, 139795, Note_on_c, 0, 74, 86
2, 139832, Note_on_c, 0, 73, 0
2, 139918, Note_on_c, 0, 76, 85
2, 139926, Note_on_c, 0, 59, 0
2, 139931, Note_on_c, 0, 61, 75
2, 140036, Note_on_c, 0, 74, 0
2, 140043, Note_on_c, 0, 61, 0
2, 140047, Note_on_c, 0, 62, 74
2, 140061, Note_on_c, 0, 78, 94
2, 140084, Note_on_c, 0, 76, 0
2, 140130, Control_c, 0, 64, 15
2, 140169, Note_on_c, 0, 62, 0
2, 140192, Note_on_c, 0, 76, 88
2, 140235, Note_on_c, 0, 78, 0
2, 140328, Note_on_c, 0, 71, 85
2, 140328, Note_on_c, 0, 74, 81
2, 140343, Note_on_c, 0, 76, 0
2, 140460, Note_on_c, 0, 78, 91
2, 140464, Note_on_c, 0, 74, 0
2, 140474, Note_on_c, 0, 50, 61
2, 140479, Note_on_c, 0, 71, 0
2, 140580, Note_on_c, 0, 57, 79
2, 140582, Note_on_c, 0, 76, 87
2, 140584, Note_on_c, 0, 50, 0
2, 140588, Note_on_c, 0, 73, 86
2, 140591, Note_on_c, 0, 78, 0
2, 140702, Note_on_c, 0, 57, 0
2, 140718, Note_on_c, 0, 76, 0
2, 140718, Note_on_c, 0, 79, 91
2, 140730, Note_on_c, 0, 73, 0
2, 140823, Control_c, 0, 64, 14
2, 140842, Control_c, 0, 64, 13
2, 140842, Note_on_c, 0, 78, 96
2, 140879, Note_on_c, 0, 79, 0
2, 140976, Control_c, 0, 64, 12
2, 140980, Note_on_c, 0, 73, 91
2, 141010, Note_on_c, 0, 58, 61
2, 141099, Note_on_c, 0, 74, 83
2, 141108, Control_c, 0, 64, 13
2, 141121, Note_on_c, 0, 59, 71
2, 141121, Note_on_c, 0, 73, 0
2, 141133, Note_on_c, 0, 58, 0
2, 141146, Control_c, 0, 64, 14
2, 141186, Control_c, 0, 64, 15
2, 141223, Control_c, 0, 64, 16
2, 141227, Note_on_c, 0, 81, 94
2, 141238, Note_on_c, 0, 78, 0
2, 141243, Note_on_c, 0, 59, 0
2, 141266, Note_on_c, 0, 74, 0
2, 141362, Note_on_c, 0, 79, 91
2, 141419, Note_on_c, 0, 81, 0
2, 141499, Note_on_c, 0, 74, 79
2, 141517, Note_on_c, 0, 47, 52
2, 141608, Control_c, 0, 64, 17
2, 141612, Note_on_c, 0, 47, 0
2, 141626, Note_on_c, 0, 76, 84
2, 141637, Note_on_c, 0, 48, 53
2, 141646, Control_c, 0, 64, 18
2, 141652, Note_on_c, 0, 74, 0
2, 141687, Control_c, 0, 64, 19
2, 141705, Control_c, 0, 64, 20
2, 141763, Control_c, 0, 67, 8
2, 141767, Note_on_c, 0, 83, 84
2, 141782, Control_c, 0, 67, 13
2, 141782, Note_on_c, 0, 79, 0
2, 141791, Note_on_c, 0, 76, 0
2, 141799, Control_c, 0, 67, 20
2, 141821, Control_c, 0, 67, 25
2, 141838, Control_c, 0, 67, 32
2, 141857, Control_c, 0, 67, 41
2, 141878, Control_c, 0, 67, 52
2, 141894, Control_c, 0, 67, 63
2, 141903, Note_on_c, 0, 81, 81
2, 141915, Control_c, 0, 67, 71
2, 141933, Control_c, 0, 67, 76
2, 141946, Note_on_c, 0, 48, 0
2, 141950, Note_on_c, 0, 83, 0
2, 141954, Control_c, 0, 67, 79
2, 141991, Control_c, 0, 67, 80
2, 142012, Control_c, 0, 67, 82
2, 142031, Control_c, 0, 67, 88
2, 142031, Note_on_c, 0, 79, 88
2, 142049, Control_c, 0, 67, 97
2, 142056, Note_on_c, 0, 60, 57
2, 142065, Note_on_c, 0, 81, 0
2, 142069, Control_c, 0, 67, 105
2, 142089, Control_c, 0, 67, 109
2, 142107, Control_c, 0, 67, 110
2, 142167, Note_on_c, 0, 60, 0
2, 142167, Note_on_c, 0, 79, 0
2, 142167, Note_on_c, 0, 81, 74
2, 142178, Note_on_c, 0, 61, 55
2, 142185, Control_c, 0, 67, 109
2, 142260, Control_c, 0, 67, 108
2, 142281, Control_c, 0, 67, 107
2, 142301, Note_on_c, 0, 76, 78
2, 142301, Note_on_c, 0, 81, 0
2, 142320, Control_c, 0, 67, 106
2, 142375, Control_c, 0, 67, 105
2, 142435, Note_on_c, 0, 78, 79
2, 142439, Note_on_c, 0, 61, 0
2, 142439, Note_on_c, 0, 76, 0
2, 142452, Control_c, 0, 67, 104
2, 142550, Control_c, 0, 64, 19
2, 142564, Note_on_c, 0, 79, 79
2, 142572, Control_c, 0, 67, 103
2, 142572, Note_on_c, 0, 78, 0
2, 142581, Note_on_c, 0, 57, 55
2, 142631, Note_on_c, 0, 57, 0
2, 142690, Note_on_c, 0, 79, 0
2, 142694, Note_on_c, 0, 78, 80
2, 142707, Note_on_c, 0, 62, 59
2, 142740, Control_c, 0, 64, 18
2, 142780, Note_on_c, 0, 62, 0
2, 142824, Note_on_c, 0, 76, 74
2, 142838, Note_on_c, 0, 61, 58
2, 142937, Control_c, 0, 67, 102
2, 142937, Note_on_c, 0, 61, 0
2, 142937, Note_on_c, 0, 76, 0
2, 142966, Note_on_c, 0, 74, 66
2, 142966, Note_on_c, 0, 78, 0
2, 142966, Note_on_c, 0, 78, 33
2, 142970, Note_on_c, 0, 59, 58
2, 143036, Note_on_c, 0, 59, 0
2, 143095, Note_on_c, 0, 74, 0
2, 143104, Note_on_c, 0, 57, 60
2, 143108, Note_on_c, 0, 73, 70
2, 143170, Note_on_c, 0, 57, 0
2, 143228, Note_on_c, 0, 74, 76
2, 143233, Note_on_c, 0, 59, 59
2, 143233, Note_on_c, 0, 73, 0
2, 143278, Control_c, 0, 67, 101
2, 143315, Control_c, 0, 67, 100
2, 143335, Note_on_c, 0, 74, 0
2, 143340, Note_on_c, 0, 59, 0
2, 143356, Note_on_c, 0, 69, 65
2, 143367, Note_on_c, 0, 54, 62
2, 143374, Control_c, 0, 67, 99
2, 143397, Control_c, 0, 67, 98
2, 143412, Control_c, 0, 67, 97
2, 143432, Control_c, 0, 67, 96
2, 143445, Note_on_c, 0, 54, 0
2, 143456, Control_c, 0, 67, 95
2, 143474, Control_c, 0, 67, 94
2, 143491, Control_c, 0, 64, 17
2, 143491, Control_c, 0, 67, 93
2, 143496, Note_on_c, 0, 71, 67
2, 143505, Note_on_c, 0, 56, 66
2, 143505, Note_on_c, 0, 69, 0
2, 143509, Control_c, 0, 67, 92
2, 143527, Control_c, 0, 67, 90
2, 143547, Control_c, 0, 67, 88
2, 143567, Control_c, 0, 67, 80
2, 143585, Control_c, 0, 67, 69
2, 143589, Note_on_c, 0, 78, 0
2, 143605, Control_c, 0, 67, 57
2, 143614, Note_on_c, 0, 73, 78
2, 143623, Control_c, 0, 67, 47
2, 143627, Note_on_c, 0, 57, 75
2, 143634, Note_on_c, 0, 56, 0
2, 143642, Control_c, 0, 67, 37
2, 143646, Note_on_c, 0, 71, 0
2, 143662, Control_c, 0, 67, 28
2, 143681, Control_c, 0, 64, 16
2, 143685, Control_c, 0, 67, 17
2, 143701, Control_c, 0, 67, 0
2, 143722, Control_c, 0, 64, 15
2, 143742, Note_on_c, 0, 57, 0
2, 143755, Note_on_c, 0, 71, 81
2, 143763, Note_on_c, 0, 56, 76
2, 143779, Control_c, 0, 64, 14
2, 143800, Note_on_c, 0, 73, 0
2, 143835, Control_c, 0, 64, 13
2, 143881, Note_on_c, 0, 56, 0
2, 143881, Note_on_c, 0, 57, 82
2, 143885, Note_on_c, 0, 78, 89
2, 144012, Note_on_c, 0, 76, 84
2, 144017, Note_on_c, 0, 56, 70
2, 144046, Note_on_c, 0, 57, 0
2, 144053, Note_on_c, 0, 78, 0
2, 144105, Note_on_c, 0, 71, 0
2, 144109, Note_on_c, 0, 56, 0
2, 144142, Note_on_c, 0, 54, 70
2, 144153, Note_on_c, 0, 75, 84
2, 144189, Note_on_c, 0, 76, 0
2, 144260, Note_on_c, 0, 54, 0
2, 144264, Note_on_c, 0, 56, 70
2, 144283, Note_on_c, 0, 76, 89
2, 144298, Note_on_c, 0, 75, 0
2, 144354, Note_on_c, 0, 56, 0
2, 144402, Note_on_c, 0, 71, 82
2, 144406, Note_on_c, 0, 59, 67
2, 144413, Note_on_c, 0, 76, 0
2, 144517, Note_on_c, 0, 59, 0
2, 144532, Note_on_c, 0, 57, 69
2, 144538, Note_on_c, 0, 73, 89
2, 144563, Note_on_c, 0, 71, 0
2, 144646, Note_on_c, 0, 57, 0
2, 144657, Note_on_c, 0, 56, 66
2, 144666, Note_on_c, 0, 74, 85
2, 144675, Note_on_c, 0, 73, 0
2, 144737, Note_on_c, 0, 56, 0
2, 144785, Note_on_c, 0, 57, 67
2, 144789, Note_on_c, 0, 73, 85
2, 144814, Note_on_c, 0, 74, 0
2, 144904, Note_on_c, 0, 71, 82
2, 144909, Note_on_c, 0, 57, 0
2, 144915, Note_on_c, 0, 56, 70
2, 144969, Control_c, 0, 64, 14
2, 144971, Note_on_c, 0, 73, 0
2, 145026, Control_c, 0, 64, 15
2, 145026, Note_on_c, 0, 71, 0
2, 145031, Note_on_c, 0, 73, 51
2, 145036, Note_on_c, 0, 56, 0
2, 145049, Note_on_c, 0, 54, 64
2, 145049, Note_on_c, 0, 69, 67
2, 145114, Note_on_c, 0, 54, 0
2, 145174, Note_on_c, 0, 52, 63
2, 145186, Note_on_c, 0, 69, 0
2, 145198, Note_on_c, 0, 68, 72
2, 145250, Note_on_c, 0, 52, 0
2, 145295, Control_c, 0, 64, 16
2, 145308, Note_on_c, 0, 54, 61
2, 145317, Note_on_c, 0, 69, 73
2, 145321, Note_on_c, 0, 68, 0
2, 145399, Note_on_c, 0, 54, 0
2, 145427, Note_on_c, 0, 69, 0
2, 145448, Control_c, 0, 64, 17
2, 145448, Note_on_c, 0, 49, 56
2, 145462, Note_on_c, 0, 64, 70
2, 145466, Control_c, 0, 64, 18
2, 145519, Note_on_c, 0, 49, 0
2, 145563, Control_c, 0, 64, 19
2, 145569, Note_on_c, 0, 51, 63
2, 145584, Control_c, 0, 64, 21
2, 145584, Note_on_c, 0, 66, 66
2, 145602, Control_c, 0, 64, 24
2, 145607, Note_on_c, 0, 64, 0
2, 145624, Control_c, 0, 64, 25
2, 145643, Note_on_c, 0, 51, 0
2, 145685, Note_on_c, 0, 66, 0
2, 145685, Note_on_c, 0, 67, 70
2, 145707, Note_on_c, 0, 52, 59
2, 145745, Note_on_c, 0, 73, 0
2, 145782, Note_on_c, 0, 52, 0
2, 145825, Note_on_c, 0, 67, 0
2, 145829, Note_on_c, 0, 51, 63
2, 145829, Note_on_c, 0, 66, 72
2, 145854, Control_c, 0, 64, 24
2, 145888, Control_c, 0, 64, 23
2, 145907, Control_c, 0, 64, 22
2, 145916, Note_on_c, 0, 51, 0
2, 145929, Control_c, 0, 64, 21
2, 145949, Note_on_c, 0, 52, 61
2, 145964, Control_c, 0, 64, 20
2, 145969, Note_on_c, 0, 72, 77
2, 146063, Control_c, 0, 64, 19
2, 146088, Note_on_c, 0, 52, 0
2, 146093, Note_on_c, 0, 51, 58
2, 146093, Note_on_c, 0, 71, 73
2, 146111, Note_on_c, 0, 72, 0
2, 146141, Control_c, 0, 67, 8
2, 146141, Note_on_c, 0, 66, 0
2, 146157, Control_c, 0, 67, 10
2, 146178, Control_c, 0, 67, 13
2, 146182, Note_on_c, 0, 51, 0
2, 146196, Control_c, 0, 67, 23
2, 146216, Control_c, 0, 67, 36
2, 146221, Note_on_c, 0, 70, 77
2, 146221, Note_on_c, 0, 71, 0
2, 146236, Control_c, 0, 67, 49
2, 146236, Note_on_c, 0, 49, 57
2, 146255, Control_c, 0, 67, 60
2, 146277, Control_c, 0, 67, 69
2, 146292, Control_c, 0, 67, 75
2, 146311, Control_c, 0, 67, 79
2, 146331, Control_c, 0, 67, 85
2, 146335, Note_on_c, 0, 49, 0
2, 146348, Note_on_c, 0, 51, 63
2, 146352, Control_c, 0, 67, 91
2, 146357, Note_on_c, 0, 71, 71
2, 146360, Note_on_c, 0, 70, 0
2, 146369, Control_c, 0, 67, 98
2, 146387, Control_c, 0, 67, 107
2, 146406, Control_c, 0, 67, 117
2, 146411, Note_on_c, 0, 51, 0
2, 146428, Control_c, 0, 67, 122
2, 146445, Control_c, 0, 67, 124
2, 146464, Control_c, 0, 67, 125
2, 146468, Note_on_c, 0, 71, 0
2, 146475, Note_on_c, 0, 66, 71
2, 146481, Note_on_c, 0, 54, 59
2, 146502, Control_c, 0, 67, 126
2, 146523, Control_c, 0, 67, 127
2, 146561, Note_on_c, 0, 54, 0
2, 146603, Note_on_c, 0, 52, 54
2, 146616, Note_on_c, 0, 66, 0
2, 146616, Note_on_c, 0, 68, 67
2, 146675, Note_on_c, 0, 52, 0
2, 146722, Note_on_c, 0, 51, 55
2, 146727, Note_on_c, 0, 68, 0
2, 146739, Note_on_c, 0, 69, 62
2, 146806, Note_on_c, 0, 51, 0
2, 146865, Note_on_c, 0, 52, 56
2, 146872, Note_on_c, 0, 68, 72
2, 146872, Note_on_c, 0, 69, 0
2, 146965, Control_c, 0, 64, 20
2, 146965, Control_c, 0, 67, 126
2, 146976, Note_on_c, 0, 52, 0
2, 146984, Control_c, 0, 64, 23
2, 146989, Note_on_c, 0, 59, 66
2, 147004, Control_c, 0, 64, 26
2, 147004, Control_c, 0, 67, 125
2, 147021, Control_c, 0, 64, 32
2, 147042, Control_c, 0, 64, 37
2, 147042, Control_c, 0, 67, 124
2, 147062, Control_c, 0, 64, 43
2, 147062, Control_c, 0, 67, 123
2, 147082, Control_c, 0, 64, 47
2, 147082, Control_c, 0, 67, 121
2, 147097, Note_on_c, 0, 59, 0
2, 147100, Control_c, 0, 64, 52
2, 147100, Control_c, 0, 67, 120
2, 147104, Note_on_c, 0, 64, 58
2, 147121, Control_c, 0, 64, 56
2, 147121, Control_c, 0, 67, 118
2, 147139, Control_c, 0, 64, 59
2, 147139, Control_c, 0, 67, 117
2, 147157, Control_c, 0, 67, 115
2, 147175, Control_c, 0, 64, 60
2, 147179, Control_c, 0, 67, 113
2, 147195, Control_c, 0, 67, 112
2, 147215, Control_c, 0, 67, 106
2, 147219, Note_on_c, 0, 66, 68
2, 147224, Note_on_c, 0, 64, 0
2, 147228, Note_on_c, 0, 69, 65
2, 147237, Control_c, 0, 67, 98
2, 147237, Note_on_c, 0, 40, 45
2, 147253, Control_c, 0, 64, 61
2, 147253, Control_c, 0, 67, 86
2, 147260, Note_on_c, 0, 68, 0
2, 147271, Control_c, 0, 67, 73
2, 147280, Note_on_c, 0, 66, 0
2, 147287, Note_on_c, 0, 69, 0
2, 147291, Control_c, 0, 64, 60
2, 147294, Control_c, 0, 67, 59
2, 147311, Control_c, 0, 64, 59
2, 147311, Control_c, 0, 67, 47
2, 147330, Control_c, 0, 64, 56
2, 147330, Control_c, 0, 67, 37
2, 147337, Note_on_c, 0, 40, 0
2, 147354, Control_c, 0, 64, 51
2, 147354, Control_c, 0, 67, 29
2, 147354, Note_on_c, 0, 52, 71
2, 147370, Note_on_c, 0, 71, 79
2, 147375, Control_c, 0, 64, 44
2, 147375, Control_c, 0, 67, 23
2, 147377, Note_on_c, 0, 68, 78
2, 147387, Control_c, 0, 64, 37
2, 147387, Control_c, 0, 67, 19
2, 147408, Control_c, 0, 64, 35
2, 147408, Control_c, 0, 67, 16
2, 147419, Note_on_c, 0, 52, 0
2, 147426, Control_c, 0, 67, 15
2, 147446, Control_c, 0, 64, 38
2, 147446, Control_c, 0, 67, 13
2, 147467, Control_c, 0, 64, 45
2, 147467, Control_c, 0, 67, 11
2, 147483, Control_c, 0, 64, 53
2, 147487, Control_c, 0, 67, 8
2, 147496, Note_on_c, 0, 66, 75
2, 147503, Control_c, 0, 64, 56
2, 147504, Control_c, 0, 67, 0
2, 147515, Note_on_c, 0, 71, 0
2, 147521, Control_c, 0, 64, 57
2, 147540, Note_on_c, 0, 68, 0
2, 147559, Control_c, 0, 64, 56
2, 147597, Control_c, 0, 64, 55
2, 147630, Note_on_c, 0, 64, 71
2, 147637, Control_c, 0, 64, 54
2, 147637, Note_on_c, 0, 66, 0
2, 147656, Control_c, 0, 64, 53
2, 147675, Control_c, 0, 64, 52
2, 147693, Control_c, 0, 64, 50
2, 147714, Control_c, 0, 64, 47
2, 147731, Control_c, 0, 64, 43
2, 147731, Note_on_c, 0, 64, 0
2, 147751, Control_c, 0, 64, 40
2, 147751, Note_on_c, 0, 73, 79
2, 147756, Note_on_c, 0, 67, 68
2, 147766, Note_on_c, 0, 46, 59
2, 147770, Control_c, 0, 64, 37
2, 147789, Control_c, 0, 64, 34
2, 147810, Control_c, 0, 64, 31
2, 147822, Note_on_c, 0, 46, 0
2, 147831, Control_c, 0, 64, 29
2, 147850, Control_c, 0, 64, 26
2, 147869, Control_c, 0, 64, 23
2, 147887, Note_on_c, 0, 74, 79
2, 147889, Control_c, 0, 64, 22
2, 147898, Note_on_c, 0, 47, 67
2, 147902, Note_on_c, 0, 66, 80
2, 147916, Note_on_c, 0, 67, 0
2, 147920, Note_on_c, 0, 73, 0
2, 147925, Control_c, 0, 64, 24
2, 147945, Control_c, 0, 64, 32
2, 147964, Control_c, 0, 64, 42
2, 147981, Control_c, 0, 64, 51
2, 147994, Note_on_c, 0, 66, 0
2, 148002, Control_c, 0, 64, 54
2, 148023, Control_c, 0, 64, 55
2, 148034, Note_on_c, 0, 69, 78
2, 148097, Control_c, 0, 64, 54
2, 148118, Control_c, 0, 64, 52
2, 148131, Note_on_c, 0, 74, 0
2, 148138, Control_c, 0, 64, 49
2, 148156, Note_on_c, 0, 68, 90
2, 148161, Control_c, 0, 64, 45
2, 148161, Note_on_c, 0, 69, 0
2, 148174, Control_c, 0, 64, 41
2, 148174, Note_on_c, 0, 47, 0
2, 148192, Control_c, 0, 64, 39
2, 148215, Control_c, 0, 64, 38
2, 148233, Control_c, 0, 64, 37
2, 148282, Note_on_c, 0, 59, 71
2, 148293, Note_on_c, 0, 75, 83
2, 148326, Note_on_c, 0, 59, 0
2, 148347, Control_c, 0, 64, 38
2, 148366, Control_c, 0, 64, 39
2, 148384, Control_c, 0, 64, 40
2, 148403, Control_c, 0, 64, 42
2, 148416, Note_on_c, 0, 76, 85
2, 148420, Note_on_c, 0, 60, 76
2, 148424, Control_c, 0, 64, 45
2, 148443, Control_c, 0, 64, 47
2, 148461, Control_c, 0, 64, 49
2, 148495, Note_on_c, 0, 75, 0
2, 148510, Note_on_c, 0, 68, 0
2, 148552, Note_on_c, 0, 71, 83
2, 148595, Control_c, 0, 64, 48
2, 148613, Note_on_c, 0, 76, 0
2, 148634, Control_c, 0, 64, 47
2, 148674, Control_c, 0, 64, 46
2, 148674, Note_on_c, 0, 71, 0
2, 148678, Note_on_c, 0, 69, 84
2, 148724, Note_on_c, 0, 60, 0
2, 148818, Note_on_c, 0, 77, 88
2, 148843, Note_on_c, 0, 48, 56
2, 148887, Note_on_c, 0, 69, 0
2, 148921, Note_on_c, 0, 48, 0
2, 148949, Note_on_c, 0, 78, 82
2, 148956, Note_on_c, 0, 77, 0
2, 148965, Note_on_c, 0, 50, 57
2, 148995, Note_on_c, 0, 71, 10
2, 149049, Note_on_c, 0, 71, 0
2, 149060, Control_c, 0, 67, 8
2, 149077, Control_c, 0, 67, 16
2, 149101, Control_c, 0, 67, 26
2, 149101, Note_on_c, 0, 73, 79
2, 149115, Control_c, 0, 67, 41
2, 149135, Control_c, 0, 67, 56
2, 149153, Control_c, 0, 67, 71
2, 149171, Control_c, 0, 67, 85
2, 149191, Control_c, 0, 67, 95
2, 149207, Note_on_c, 0, 71, 66
2, 149211, Control_c, 0, 67, 103
2, 149229, Control_c, 0, 67, 110
2, 149249, Control_c, 0, 67, 119
2, 149269, Control_c, 0, 67, 127
2, 149299, Note_on_c, 0, 73, 0
2, 149324, Note_on_c, 0, 50, 0
2, 149332, Note_on_c, 0, 71, 0
2, 149346, Note_on_c, 0, 69, 70
2, 149366, Note_on_c, 0, 62, 67
2, 149404, Note_on_c, 0, 62, 0
2, 149433, Note_on_c, 0, 69, 0
2, 149480, Note_on_c, 0, 71, 74
2, 149500, Note_on_c, 0, 63, 75
2, 149630, Note_on_c, 0, 66, 73
2, 149645, Note_on_c, 0, 71, 0
2, 149748, Note_on_c, 0, 68, 76
2, 149753, Note_on_c, 0, 66, 0
2, 149819, Note_on_c, 0, 68, 0
2, 149848, Note_on_c, 0, 63, 0
2, 149871, Note_on_c, 0, 69, 75
2, 149875, Note_on_c, 0, 51, 56
2, 149904, Control_c, 0, 64, 47
2, 149920, Control_c, 0, 64, 49
2, 149924, Note_on_c, 0, 51, 0
2, 149940, Control_c, 0, 64, 52
2, 149948, Note_on_c, 0, 69, 0
2, 149959, Control_c, 0, 64, 55
2, 149978, Control_c, 0, 64, 57
2, 149998, Control_c, 0, 64, 58
2, 150005, Note_on_c, 0, 52, 74
2, 150005, Note_on_c, 0, 68, 79
2, 150038, Control_c, 0, 64, 59
2, 150042, Note_on_c, 0, 52, 0
2, 150072, Note_on_c, 0, 68, 0
2, 150112, Control_c, 0, 64, 58
2, 150132, Control_c, 0, 64, 56
2, 150152, Control_c, 0, 64, 54
2, 150152, Note_on_c, 0, 69, 70
2, 150152, Note_on_c, 0, 75, 77
2, 150171, Control_c, 0, 64, 52
2, 150189, Control_c, 0, 64, 49
2, 150202, Note_on_c, 0, 78, 0
2, 150211, Control_c, 0, 64, 45
2, 150211, Control_c, 0, 67, 126
2, 150228, Control_c, 0, 64, 42
2, 150228, Control_c, 0, 67, 117
2, 150249, Control_c, 0, 64, 40
2, 150249, Control_c, 0, 67, 108
2, 150270, Control_c, 0, 64, 37
2, 150270, Control_c, 0, 67, 99
2, 150270, Note_on_c, 0, 75, 0
2, 150277, Note_on_c, 0, 69, 0
2, 150281, Note_on_c, 0, 76, 84
2, 150286, Note_on_c, 0, 68, 57
2, 150290, Control_c, 0, 64, 34
2, 150290, Control_c, 0, 67, 91
2, 150304, Control_c, 0, 64, 31
2, 150308, Control_c, 0, 67, 84
2, 150308, Note_on_c, 0, 67, 61
2, 150319, Note_on_c, 0, 68, 0
2, 150326, Control_c, 0, 64, 29
2, 150326, Control_c, 0, 67, 76
2, 150344, Control_c, 0, 64, 27
2, 150349, Control_c, 0, 67, 71
2, 150365, Control_c, 0, 64, 26
2, 150365, Control_c, 0, 67, 65
2, 150369, Note_on_c, 0, 67, 0
2, 150382, Control_c, 0, 67, 60
2, 150406, Control_c, 0, 64, 25
2, 150406, Control_c, 0, 67, 56
2, 150410, Note_on_c, 0, 66, 73
2, 150410, Note_on_c, 0, 76, 0
2, 150410, Note_on_c, 0, 78, 78
2, 150423, Control_c, 0, 64, 24
2, 150423, Control_c, 0, 67, 54
2, 150438, Control_c, 0, 67, 53
2, 150515, Control_c, 0, 67, 54
2, 150526, Note_on_c, 0, 76, 89
2, 150537, Note_on_c, 0, 68, 80
2, 150550, Note_on_c, 0, 78, 0
2, 150555, Note_on_c, 0, 66, 0
2, 150592, Control_c, 0, 67, 55
2, 150618, Note_on_c, 0, 68, 0
2, 150662, Note_on_c, 0, 63, 72
2, 150667, Note_on_c, 0, 81, 79
2, 150671, Note_on_c, 0, 76, 0
2, 150709, Control_c, 0, 67, 56
2, 150745, Control_c, 0, 67, 57
2, 150766, Note_on_c, 0, 63, 0
2, 150795, Note_on_c, 0, 64, 72
2, 150803, Control_c, 0, 67, 58
2, 150808, Note_on_c, 0, 80, 82
2, 150812, Note_on_c, 0, 81, 0
2, 150823, Control_c, 0, 67, 60
2, 150863, Control_c, 0, 67, 61
2, 150912, Note_on_c, 0, 64, 0
2, 150916, Note_on_c, 0, 66, 72
2, 150921, Control_c, 0, 67, 62
2, 150928, Note_on_c, 0, 78, 81
2, 150942, Note_on_c, 0, 80, 0
2, 150957, Control_c, 0, 67, 63
2, 150999, Control_c, 0, 67, 64
2, 151021, Note_on_c, 0, 66, 0
2, 151053, Note_on_c, 0, 64, 72
2, 151059, Note_on_c, 0, 78, 0
2, 151068, Note_on_c, 0, 80, 79
2, 151139, Note_on_c, 0, 64, 0
2, 151187, Control_c, 0, 64, 25
2, 151192, Note_on_c, 0, 54, 59
2, 151192, Note_on_c, 0, 78, 77
2, 151206, Note_on_c, 0, 80, 0
2, 151264, Note_on_c, 0, 54, 0
2, 151277, Note_on_c, 0, 78, 0
2, 151323, Note_on_c, 0, 56, 56
2, 151323, Note_on_c, 0, 76, 72
2, 151381, Control_c, 0, 67, 65
2, 151397, Note_on_c, 0, 56, 0
2, 151438, Control_c, 0, 64, 26
2, 151447, Note_on_c, 0, 57, 55
2, 151448, Note_on_c, 0, 76, 0
2, 151452, Note_on_c, 0, 75, 67
2, 151548, Note_on_c, 0, 57, 0
2, 151563, Note_on_c, 0, 56, 54
2, 151586, Note_on_c, 0, 75, 0
2, 151591, Control_c, 0, 67, 64
2, 151591, Note_on_c, 0, 76, 71
2, 151661, Note_on_c, 0, 56, 0
2, 151687, Note_on_c, 0, 76, 0
2, 151699, Note_on_c, 0, 59, 57
2, 151709, Note_on_c, 0, 71, 69
2, 151766, Note_on_c, 0, 59, 0
2, 151827, Note_on_c, 0, 57, 60
2, 151840, Note_on_c, 0, 71, 0
2, 151847, Note_on_c, 0, 73, 74
2, 151883, Control_c, 0, 64, 27
2, 151883, Control_c, 0, 67, 63
2, 151894, Note_on_c, 0, 57, 0
2, 151937, Control_c, 0, 64, 28
2, 151956, Note_on_c, 0, 56, 64
2, 151960, Note_on_c, 0, 73, 0
2, 151971, Note_on_c, 0, 74, 67
2, 151993, Control_c, 0, 64, 29
2, 152035, Control_c, 0, 64, 30
2, 152090, Control_c, 0, 67, 62
2, 152101, Note_on_c, 0, 57, 68
2, 152101, Note_on_c, 0, 73, 75
2, 152105, Note_on_c, 0, 74, 0
2, 152112, Note_on_c, 0, 56, 0
2, 152130, Control_c, 0, 64, 31
2, 152152, Control_c, 0, 67, 61
2, 152178, Note_on_c, 0, 57, 0
2, 152189, Control_c, 0, 64, 32
2, 152189, Control_c, 0, 67, 60
2, 152224, Control_c, 0, 67, 59
2, 152228, Note_on_c, 0, 68, 79
2, 152239, Note_on_c, 0, 62, 76
2, 152247, Control_c, 0, 67, 58
2, 152262, Control_c, 0, 67, 57
2, 152272, Note_on_c, 0, 73, 0
2, 152304, Control_c, 0, 67, 56
2, 152323, Control_c, 0, 67, 55
2, 152338, Control_c, 0, 67, 54
2, 152352, Note_on_c, 0, 69, 80
2, 152361, Control_c, 0, 64, 33
2, 152361, Control_c, 0, 67, 52
2, 152370, Note_on_c, 0, 61, 74
2, 152376, Note_on_c, 0, 68, 0
2, 152378, Note_on_c, 0, 62, 0
2, 152382, Control_c, 0, 67, 47
2, 152400, Control_c, 0, 67, 38
2, 152415, Control_c, 0, 67, 26
2, 152437, Control_c, 0, 67, 15
2, 152455, Control_c, 0, 67, 0
2, 152475, Note_on_c, 0, 61, 0
2, 152479, Note_on_c, 0, 59, 76
2, 152479, Note_on_c, 0, 71, 85
2, 152507, Note_on_c, 0, 69, 0
2, 152597, Note_on_c, 0, 59, 0
2, 152615, Note_on_c, 0, 61, 75
2, 152619, Note_on_c, 0, 69, 88
2, 152619, Note_on_c, 0, 71, 0
2, 152711, Note_on_c, 0, 61, 0
2, 152737, Note_on_c, 0, 56, 73
2, 152737, Note_on_c, 0, 74, 87
2, 152770, Note_on_c, 0, 69, 0
2, 152847, Note_on_c, 0, 56, 0
2, 152858, Note_on_c, 0, 57, 75
2, 152865, Note_on_c, 0, 73, 89
2, 152900, Note_on_c, 0, 74, 0
2, 152940, Note_on_c, 0, 57, 0
2, 152983, Note_on_c, 0, 59, 63
2, 152998, Note_on_c, 0, 71, 88
2, 153031, Note_on_c, 0, 73, 0
2, 153043, Note_on_c, 0, 59, 0
2, 153122, Note_on_c, 0, 57, 70
2, 153133, Note_on_c, 0, 73, 81
2, 153140, Note_on_c, 0, 71, 0
2, 153221, Note_on_c, 0, 57, 0
2, 153257, Note_on_c, 0, 47, 60
2, 153261, Note_on_c, 0, 71, 80
2, 153299, Note_on_c, 0, 73, 0
2, 153344, Note_on_c, 0, 71, 0
2, 153385, Note_on_c, 0, 69, 71
2, 153415, Note_on_c, 0, 47, 0
2, 153420, Note_on_c, 0, 49, 52
2, 153509, Note_on_c, 0, 49, 0
2, 153522, Note_on_c, 0, 69, 0
2, 153527, Note_on_c, 0, 68, 70
2, 153545, Note_on_c, 0, 50, 50
2, 153616, Note_on_c, 0, 50, 0
2, 153649, Note_on_c, 0, 68, 0
2, 153667, Note_on_c, 0, 69, 68
2, 153672, Note_on_c, 0, 49, 58
2, 153735, Note_on_c, 0, 49, 0
2, 153765, Note_on_c, 0, 69, 0
2, 153795, Note_on_c, 0, 64, 69
2, 153806, Note_on_c, 0, 52, 63
2, 153896, Note_on_c, 0, 64, 0
2, 153914, Note_on_c, 0, 52, 0
2, 153930, Note_on_c, 0, 66, 69
2, 153934, Note_on_c, 0, 50, 62
2, 154041, Note_on_c, 0, 50, 0
2, 154052, Note_on_c, 0, 67, 73
2, 154057, Control_c, 0, 64, 32
2, 154057, Note_on_c, 0, 49, 62
2, 154057, Note_on_c, 0, 66, 0
2, 154149, Note_on_c, 0, 67, 0
2, 154166, Note_on_c, 0, 49, 0
2, 154184, Note_on_c, 0, 66, 76
2, 154189, Note_on_c, 0, 50, 65
2, 154305, Note_on_c, 0, 50, 0
2, 154318, Note_on_c, 0, 69, 74
2, 154320, Note_on_c, 0, 49, 70
2, 154436, Note_on_c, 0, 49, 0
2, 154456, Note_on_c, 0, 47, 66
2, 154461, Note_on_c, 0, 71, 78
2, 154498, Note_on_c, 0, 69, 0
2, 154571, Note_on_c, 0, 47, 0
2, 154575, Note_on_c, 0, 73, 82
2, 154582, Note_on_c, 0, 45, 69
2, 154676, Note_on_c, 0, 71, 0
2, 154678, Note_on_c, 0, 45, 0
2, 154710, Note_on_c, 0, 47, 68
2, 154715, Note_on_c, 0, 74, 86
2, 154752, Note_on_c, 0, 66, 0
2, 154778, Note_on_c, 0, 73, 0
2, 154820, Control_c, 0, 64, 33
2, 154829, Note_on_c, 0, 47, 0
2, 154847, Note_on_c, 0, 42, 73
2, 154858, Note_on_c, 0, 69, 78
2, 154965, Note_on_c, 0, 42, 0
2, 154974, Control_c, 0, 64, 34
2, 154978, Note_on_c, 0, 44, 80
2, 154994, Control_c, 0, 64, 36
2, 154994, Note_on_c, 0, 68, 86
2, 155011, Control_c, 0, 64, 42
2, 155028, Note_on_c, 0, 69, 0
2, 155033, Control_c, 0, 64, 49
2, 155048, Control_c, 0, 64, 53
2, 155069, Control_c, 0, 64, 55
2, 155120, Note_on_c, 0, 45, 75
2, 155120, Note_on_c, 0, 66, 81
2, 155136, Note_on_c, 0, 44, 0
2, 155156, Note_on_c, 0, 68, 0
2, 155185, Control_c, 0, 64, 54
2, 155198, Note_on_c, 0, 66, 0
2, 155205, Control_c, 0, 64, 53
2, 155224, Control_c, 0, 64, 52
2, 155265, Control_c, 0, 64, 51
2, 155265, Note_on_c, 0, 44, 78
2, 155265, Note_on_c, 0, 64, 90
2, 155270, Note_on_c, 0, 45, 0
2, 155280, Control_c, 0, 64, 50
2, 155299, Control_c, 0, 64, 49
2, 155303, Note_on_c, 0, 74, 0
2, 155358, Control_c, 0, 64, 48
2, 155377, Control_c, 0, 64, 46
2, 155400, Control_c, 0, 64, 44
2, 155400, Note_on_c, 0, 40, 66
2, 155400, Note_on_c, 0, 44, 0
2, 155400, Note_on_c, 0, 68, 85
2, 155415, Control_c, 0, 64, 43
2, 155424, Note_on_c, 0, 64, 0
2, 155520, Note_on_c, 0, 42, 77
2, 155526, Note_on_c, 0, 69, 81
2, 155553, Note_on_c, 0, 40, 0
2, 155557, Note_on_c, 0, 68, 0
2, 155592, Control_c, 0, 64, 44
2, 155625, Control_c, 0, 64, 45
2, 155642, Note_on_c, 0, 44, 84
2, 155650, Note_on_c, 0, 71, 81
2, 155659, Note_on_c, 0, 42, 0
2, 155676, Note_on_c, 0, 69, 0
2, 155717, Control_c, 0, 64, 46
2, 155756, Control_c, 0, 64, 47
2, 155774, Note_on_c, 0, 45, 79
2, 155778, Note_on_c, 0, 73, 88
2, 155783, Note_on_c, 0, 71, 0
2, 155819, Note_on_c, 0, 44, 0
2, 155832, Control_c, 0, 64, 48
2, 155872, Note_on_c, 0, 45, 0
2, 155896, Note_on_c, 0, 47, 79
2, 155919, Note_on_c, 0, 71, 81
2, 155957, Note_on_c, 0, 73, 0
2, 155966, Control_c, 0, 64, 47
2, 156053, Note_on_c, 0, 49, 79
2, 156057, Note_on_c, 0, 66, 83
2, 156057, Note_on_c, 0, 69, 84
2, 156065, Note_on_c, 0, 47, 0
2, 156096, Note_on_c, 0, 71, 0
2, 156192, Note_on_c, 0, 45, 70
2, 156196, Control_c, 0, 64, 48
2, 156200, Note_on_c, 0, 49, 0
2, 156210, Note_on_c, 0, 73, 93
2, 156226, Note_on_c, 0, 69, 0
2, 156289, Note_on_c, 0, 66, 0
2, 156338, Note_on_c, 0, 52, 80
2, 156347, Note_on_c, 0, 68, 86
2, 156347, Note_on_c, 0, 71, 87
2, 156363, Note_on_c, 0, 73, 0
2, 156488, Note_on_c, 0, 52, 0
2, 156497, Note_on_c, 0, 45, 0
2, 156497, Note_on_c, 0, 74, 90
2, 156504, Note_on_c, 0, 71, 0
2, 156524, Note_on_c, 0, 68, 0
2, 156619, Control_c, 0, 64, 47
2, 156646, Note_on_c, 0, 73, 92
2, 156694, Note_on_c, 0, 74, 0
2, 156697, Control_c, 0, 64, 46
2, 156786, Note_on_c, 0, 68, 90
2, 156797, Note_on_c, 0, 40, 65
2, 156920, Note_on_c, 0, 69, 80
2, 156940, Note_on_c, 0, 42, 78
2, 156966, Control_c, 0, 64, 47
2, 156971, Note_on_c, 0, 68, 0
2, 156978, Note_on_c, 0, 40, 0
2, 157004, Control_c, 0, 64, 48
2, 157060, Control_c, 0, 64, 49
2, 157073, Note_on_c, 0, 42, 0
2, 157082, Control_c, 0, 64, 50
2, 157089, Note_on_c, 0, 76, 94
2, 157115, Note_on_c, 0, 73, 0
2, 157120, Control_c, 0, 64, 51
2, 157143, Note_on_c, 0, 69, 0
2, 157158, Control_c, 0, 64, 52
2, 157243, Note_on_c, 0, 74, 88
2, 157284, Note_on_c, 0, 76, 0
2, 157350, Note_on_c, 0, 54, 77
2, 157388, Note_on_c, 0, 69, 84
2, 157484, Control_c, 0, 64, 53
2, 157509, Note_on_c, 0, 56, 72
2, 157529, Note_on_c, 0, 71, 85
2, 157557, Note_on_c, 0, 69, 0
2, 157614, Note_on_c, 0, 54, 0
2, 157685, Note_on_c, 0, 57, 75
2, 157690, Note_on_c, 0, 78, 90
2, 157714, Control_c, 0, 67, 8
2, 157719, Note_on_c, 0, 74, 0
2, 157727, Note_on_c, 0, 56, 0
2, 157753, Note_on_c, 0, 71, 0
2, 157830, Control_c, 0, 64, 52
2, 157856, Note_on_c, 0, 76, 87
2, 157860, Note_on_c, 0, 56, 81
2, 157886, Note_on_c, 0, 57, 0
2, 157890, Note_on_c, 0, 78, 0
2, 157945, Control_c, 0, 64, 51
2, 157965, Control_c, 0, 67, 9
2, 157983, Control_c, 0, 64, 50
2, 158005, Note_on_c, 0, 54, 79
2, 158014, Note_on_c, 0, 74, 87
2, 158034, Note_on_c, 0, 56, 0
2, 158043, Control_c, 0, 64, 49
2, 158059, Note_on_c, 0, 76, 0
2, 158136, Control_c, 0, 64, 48
2, 158174, Note_on_c, 0, 52, 79
2, 158184, Note_on_c, 0, 54, 0
2, 158184, Note_on_c, 0, 76, 87
2, 158201, Note_on_c, 0, 74, 0
2, 158272, Control_c, 0, 67, 8
2, 158328, Control_c, 0, 67, 0
2, 158348, Note_on_c, 0, 71, 88
2, 158355, Note_on_c, 0, 50, 79
2, 158371, Note_on_c, 0, 76, 0
2, 158399, Note_on_c, 0, 52, 0
2, 158537, Note_on_c, 0, 49, 75
2, 158537, Note_on_c, 0, 73, 88
2, 158581, Note_on_c, 0, 71, 0
2, 158587, Note_on_c, 0, 50, 0
2, 158711, Note_on_c, 0, 47, 71
2, 158717, Note_on_c, 0, 49, 0
2, 158717, Note_on_c, 0, 74, 85
2, 158765, Note_on_c, 0, 73, 0
2, 158939, Note_on_c, 0, 45, 73
2, 158939, Note_on_c, 0, 73, 88
2, 158944, Control_c, 0, 64, 47
2, 158976, Note_on_c, 0, 47, 0
2, 158983, Note_on_c, 0, 74, 0
2, 159019, Control_c, 0, 64, 50
2, 159038, Control_c, 0, 64, 54
2, 159060, Control_c, 0, 64, 58
2, 159077, Control_c, 0, 64, 61
2, 159096, Control_c, 0, 64, 63
2, 159115, Control_c, 0, 64, 65
2, 159133, Control_c, 0, 64, 68
2, 159154, Control_c, 0, 64, 76
2, 159172, Control_c, 0, 64, 85
2, 159187, Note_on_c, 0, 69, 82
2, 159193, Control_c, 0, 64, 91
2, 159210, Control_c, 0, 64, 93
2, 159231, Control_c, 0, 64, 94
2, 159268, Control_c, 0, 64, 95
2, 159384, Control_c, 0, 64, 94
2, 159401, Control_c, 0, 64, 91
2, 159421, Control_c, 0, 64, 87
2, 159441, Control_c, 0, 64, 77
2, 159456, Note_on_c, 0, 50, 75
2, 159456, Note_on_c, 0, 68, 88
2, 159461, Control_c, 0, 64, 67
2, 159479, Control_c, 0, 64, 57
2, 159499, Control_c, 0, 64, 46
2, 159519, Control_c, 0, 64, 37
2, 159540, Note_on_c, 0, 73, 0
2, 159557, Control_c, 0, 64, 43
2, 159570, Note_on_c, 0, 45, 0
2, 159577, Control_c, 0, 64, 55
2, 159600, Control_c, 0, 64, 61
2, 159600, Note_on_c, 0, 69, 0
2, 159616, Control_c, 0, 64, 64
2, 159634, Control_c, 0, 64, 67
2, 159653, Control_c, 0, 64, 73
2, 159672, Control_c, 0, 64, 88
2, 159690, Control_c, 0, 64, 127
2, 159751, Note_on_c, 0, 71, 88
2, 159769, Note_on_c, 0, 66, 70
2, 159811, Note_on_c, 0, 68, 0
2, 160027, Note_on_c, 0, 71, 0
2, 160140, Note_on_c, 0, 52, 72
2, 160176, Note_on_c, 0, 69, 81
2, 160181, Note_on_c, 0, 50, 0
2, 160184, Note_on_c, 0, 64, 70
2, 160223, Note_on_c, 0, 66, 0
2, 160229, Control_c, 0, 64, 115
2, 160248, Control_c, 0, 64, 91
2, 160268, Control_c, 0, 64, 72
2, 160284, Control_c, 0, 64, 63
2, 160305, Control_c, 0, 64, 55
2, 160324, Control_c, 0, 64, 50
2, 160344, Control_c, 0, 64, 49
2, 160389, Note_on_c, 0, 68, 85
2, 160404, Control_c, 0, 64, 46
2, 160422, Control_c, 0, 64, 43
2, 160426, Note_on_c, 0, 69, 0
2, 160442, Control_c, 0, 64, 40
2, 160460, Control_c, 0, 64, 37
2, 160477, Control_c, 0, 64, 35
2, 160497, Control_c, 0, 64, 34
2, 160517, Control_c, 0, 64, 32
2, 160537, Control_c, 0, 64, 29
2, 160544, Note_on_c, 0, 69, 79
2, 160550, Note_on_c, 0, 68, 0
2, 160555, Control_c, 0, 64, 25
2, 160573, Control_c, 0, 64, 19
2, 160590, Note_on_c, 0, 62, 67
2, 160594, Control_c, 0, 64, 16
2, 160613, Control_c, 0, 64, 15
2, 160651, Control_c, 0, 64, 14
2, 160664, Note_on_c, 0, 69, 0
2, 160669, Note_on_c, 0, 68, 82
2, 160770, Note_on_c, 0, 68, 0
2, 160781, Note_on_c, 0, 69, 79
2, 160876, Note_on_c, 0, 69, 0
2, 160880, Note_on_c, 0, 68, 80
2, 160954, Note_on_c, 0, 61, 61
2, 160984, Note_on_c, 0, 68, 0
2, 160990, Note_on_c, 0, 69, 74
2, 161023, Note_on_c, 0, 62, 0
2, 161054, Control_c, 0, 64, 15
2, 161098, Note_on_c, 0, 68, 82
2, 161109, Note_on_c, 0, 69, 0
2, 161169, Control_c, 0, 64, 16
2, 161234, Note_on_c, 0, 69, 76
2, 161244, Note_on_c, 0, 68, 0
2, 161267, Control_c, 0, 64, 17
2, 161409, Note_on_c, 0, 68, 87
2, 161462, Note_on_c, 0, 69, 0
2, 161739, Note_on_c, 0, 59, 60
2, 161851, Note_on_c, 0, 61, 0
2, 162284, Control_c, 0, 64, 18
2, 162329, Note_on_c, 0, 69, 77
2, 162491, Note_on_c, 0, 68, 0
2, 162549, Control_c, 0, 64, 19
2, 162570, Control_c, 0, 64, 20
2, 162588, Control_c, 0, 64, 22
2, 162608, Control_c, 0, 64, 26
2, 162626, Control_c, 0, 64, 31
2, 162646, Control_c, 0, 64, 36
2, 162664, Control_c, 0, 64, 41
2, 162684, Control_c, 0, 64, 45
2, 162702, Control_c, 0, 64, 50
2, 162722, Control_c, 0, 64, 55
2, 162740, Control_c, 0, 64, 60
2, 162762, Control_c, 0, 64, 61
2, 162779, Control_c, 0, 64, 62
2, 162799, Control_c, 0, 64, 63
2, 162816, Control_c, 0, 64, 65
2, 162839, Control_c, 0, 64, 68
2, 162855, Control_c, 0, 64, 73
2, 162875, Control_c, 0, 64, 84
2, 162893, Control_c, 0, 64, 99
2, 162913, Control_c, 0, 64, 127
2, 162950, Note_on_c, 0, 64, 0
2, 163078, Note_on_c, 0, 69, 0
2, 163519, Note_on_c, 0, 69, 80
2, 163522, Note_on_c, 0, 45, 46
2, 163522, Note_on_c, 0, 61, 62
2, 163523, Note_on_c, 0, 59, 0
2, 163629, Control_c, 0, 64, 97
2, 163648, Control_c, 0, 64, 81
2, 163667, Control_c, 0, 64, 72
2, 163687, Control_c, 0, 64, 65
2, 163705, Control_c, 0, 64, 59
2, 163725, Control_c, 0, 64, 54
2, 163734, Note_on_c, 0, 52, 0
2, 163746, Control_c, 0, 64, 50
2, 163766, Control_c, 0, 64, 49
2, 163782, Control_c, 0, 64, 48
2, 163802, Control_c, 0, 64, 47
2, 163822, Control_c, 0, 64, 45
2, 163842, Control_c, 0, 64, 44
2, 163862, Control_c, 0, 64, 43
2, 163878, Control_c, 0, 64, 42
2, 164033, Control_c, 0, 64, 41
2, 164071, Control_c, 0, 64, 40
2, 164249, Control_c, 0, 64, 39
2, 165520, Control_c, 0, 64, 40
2, 166136, Control_c, 0, 64, 41
2, 166596, Control_c, 0, 64, 42
2, 166618, Note_on_c, 0, 69, 0
2, 166630, Note_on_c, 0, 61, 0
2, 166667, Note_on_c, 0, 45, 0
2, 167595, Control_c, 0, 64, 43
2, 167613, Control_c, 0, 64, 44
2, 167614, End_track
0, 0, End_of_file
