0, 0, Header, 1, 2, 480
1, 0, Start_track
1, 0, Tempo, 500000
1, 0, Time_signature, 4, 2, 24, 8
1, 1, End_track
2,0,Start_track
2,0, Note_on_c, 0, 57, 67
2,121, Note_on_c, 0, 59, 70
2,125, Note_on_c, 0, 57, 0
2,252, Note_on_c, 0, 59, 0
2,261, Note_on_c, 0, 61, 69
2,349, Note_on_c, 0, 61, 0
2,399, Note_on_c, 0, 59, 73
2,488, Note_on_c, 0, 59, 0
2,499, Control_c, 0, 64, 30
2,515, Note_on_c, 0, 57, 67
2,614, Note_on_c, 0, 57, 0
2,642, Note_on_c, 0, 61, 70
2,754, Note_on_c, 0, 61, 0
2,769, Control_c, 0, 67, 99
2,769, Note_on_c, 0, 59, 73
2,805, Control_c, 0, 64, 29
2,809, Control_c, 0, 67, 97
2,826, Control_c, 0, 64, 28
2,826, Control_c, 0, 67, 95
2,844, Control_c, 0, 67, 93
2,861, Control_c, 0, 67, 91
2,882, Control_c, 0, 67, 90
2,893, Note_on_c, 0, 59, 0
2,901, Control_c, 0, 67, 89
2,910, Note_on_c, 0, 62, 72
2,925, Control_c, 0, 67, 88
2,937, Control_c, 0, 67, 86
2,960, Control_c, 0, 67, 75
2,978, Control_c, 0, 67, 59
2,996, Control_c, 0, 67, 42
2,1014, Control_c, 0, 67, 26
2,1034, Control_c, 0, 67, 16
2,1038, Note_on_c, 0, 62, 0
2,1050, Note_on_c, 0, 61, 63
2,1058, Control_c, 0, 67, 0
2,1073, Control_c, 0, 64, 27
2,1092, Control_c, 0, 64, 26
2,1227, Control_c, 0, 64, 25
2,1265, Control_c, 0, 64, 24
2,1285, Control_c, 0, 64, 22
2,1303, Control_c, 0, 64, 20
2,1323, Control_c, 0, 64, 18
2,1418, Control_c, 0, 64, 17
2,1449, Note_on_c, 0, 64, 83
2,1480, Note_on_c, 0, 61, 0
2,1554, Control_c, 0, 64, 16
2,1571, Control_c, 0, 64, 15
2,1592, Control_c, 0, 64, 13
2,1596, Note_on_c, 0, 62, 85
2,1609, Note_on_c, 0, 64, 0
2,1648, Control_c, 0, 64, 12
2,1669, Control_c, 0, 64, 11
2,1801, Control_c, 0, 64, 13
2,1824, Control_c, 0, 64, 15
2,1840, Control_c, 0, 64, 18
2,1860, Control_c, 0, 64, 20
2,1995, Control_c, 0, 64, 22
2,1999, Note_on_c, 0, 62, 0
2,2008, Note_on_c, 0, 66, 80
2,2033, Control_c, 0, 64, 23
2,2071, Control_c, 0, 64, 24
2,2138, Note_on_c, 0, 64, 79
2,2142, Note_on_c, 0, 66, 0
2,2257, Note_on_c, 0, 64, 0
2,2263, Note_on_c, 0, 62, 73
2,2282, Control_c, 0, 64, 23
2,2302, Control_c, 0, 64, 22
2,2340, Control_c, 0, 64, 21
2,2358, Control_c, 0, 64, 20
2,2370, Note_on_c, 0, 62, 0
2,2379, Control_c, 0, 64, 19
2,2401, Control_c, 0, 64, 18
2,2401, Note_on_c, 0, 64, 77
2,2418, Control_c, 0, 64, 16
2,2436, Control_c, 0, 64, 13
2,2457, Control_c, 0, 64, 11
2,2475, Control_c, 0, 64, 8
2,2493, Control_c, 0, 64, 0
2,2509, Note_on_c, 0, 64, 0
2,2526, Note_on_c, 0, 59, 70
2,2653, Note_on_c, 0, 59, 0
2,2666, Note_on_c, 0, 61, 62
2,2764, Note_on_c, 0, 61, 0
2,2793, Note_on_c, 0, 62, 63
2,2886, Note_on_c, 0, 62, 0
2,2929, Note_on_c, 0, 61, 53
2,3173, Note_on_c, 0, 61, 0
2,3195, Note_on_c, 0, 64, 76
2,3200, Note_on_c, 0, 57, 61
2,3255, Note_on_c, 0, 57, 0
2,3266, Note_on_c, 0, 64, 0
2,3319, Note_on_c, 0, 66, 81
2,3404, Note_on_c, 0, 66, 0
2,3453, Note_on_c, 0, 68, 83
2,3473, Note_on_c, 0, 59, 59
2,3509, Note_on_c, 0, 59, 0
2,3563, Note_on_c, 0, 68, 0
2,3574, Note_on_c, 0, 66, 83
2,3676, Note_on_c, 0, 66, 0
2,3700, Note_on_c, 0, 64, 82
2,3719, Note_on_c, 0, 61, 66
2,3769, Note_on_c, 0, 61, 0
2,3798, Note_on_c, 0, 64, 0
2,3827, Note_on_c, 0, 68, 86
2,3925, Note_on_c, 0, 68, 0
2,3951, Note_on_c, 0, 66, 90
2,3962, Note_on_c, 0, 62, 70
2,4008, Note_on_c, 0, 62, 0
2,4045, Note_on_c, 0, 66, 0
2,4081, Note_on_c, 0, 69, 80
2,4215, Note_on_c, 0, 69, 0
2,4218, Note_on_c, 0, 68, 87
2,4229, Note_on_c, 0, 59, 65
2,4355, Note_on_c, 0, 64, 73
2,4356, Note_on_c, 0, 59, 0
2,4457, Note_on_c, 0, 64, 0
2,4470, Note_on_c, 0, 61, 80
2,4514, Note_on_c, 0, 61, 0
2,4544, Note_on_c, 0, 68, 0
2,4598, Note_on_c, 0, 71, 94
2,4742, Note_on_c, 0, 69, 85
2,4747, Note_on_c, 0, 66, 72
2,4790, Note_on_c, 0, 71, 0
2,4846, Note_on_c, 0, 66, 0
2,4877, Note_on_c, 0, 61, 69
2,5002, Note_on_c, 0, 63, 71
2,5006, Note_on_c, 0, 61, 0
2,5035, Note_on_c, 0, 63, 0
2,5151, Note_on_c, 0, 73, 80
2,5156, Note_on_c, 0, 69, 0
2,5282, Note_on_c, 0, 71, 75
2,5287, Note_on_c, 0, 64, 64
2,5325, Note_on_c, 0, 73, 0
2,5400, Note_on_c, 0, 69, 77
2,5415, Note_on_c, 0, 71, 0
2,5521, Note_on_c, 0, 69, 0
2,5538, Note_on_c, 0, 71, 78
2,5655, Note_on_c, 0, 71, 0
2,5668, Note_on_c, 0, 66, 78
2,5799, Note_on_c, 0, 64, 0
2,5804, Note_on_c, 0, 66, 0
2,5804, Note_on_c, 0, 68, 77
2,5811, Note_on_c, 0, 63, 51
2,5923, Note_on_c, 0, 68, 0
2,5925, Note_on_c, 0, 69, 70
2,6047, Note_on_c, 0, 69, 0
2,6065, Note_on_c, 0, 68, 80
2,6072, Note_on_c, 0, 64, 48
2,6103, Note_on_c, 0, 63, 0
2,6176, Note_on_c, 0, 68, 0
2,6191, Note_on_c, 0, 71, 76
2,6253, Note_on_c, 0, 64, 0
2,6310, Note_on_c, 0, 71, 0
2,6321, Note_on_c, 0, 69, 71
2,6415, Note_on_c, 0, 69, 0
2,6453, Note_on_c, 0, 68, 80
2,6462, Note_on_c, 0, 59, 59
2,6507, Note_on_c, 0, 59, 0
2,6549, Note_on_c, 0, 68, 0
2,6576, Note_on_c, 0, 69, 74
2,6580, Note_on_c, 0, 61, 80
2,6618, Note_on_c, 0, 61, 0
2,6662, Note_on_c, 0, 69, 0
2,6725, Note_on_c, 0, 64, 76
2,6824, Note_on_c, 0, 64, 0
2,6855, Note_on_c, 0, 57, 80
2,6866, Note_on_c, 0, 66, 76
2,6910, Note_on_c, 0, 57, 0
2,6984, Note_on_c, 0, 67, 75
2,6988, Note_on_c, 0, 66, 0
2,7110, Note_on_c, 0, 62, 74
2,7114, Note_on_c, 0, 66, 87
2,7135, Note_on_c, 0, 67, 0
2,7239, Note_on_c, 0, 66, 0
2,7246, Note_on_c, 0, 69, 76
2,7335, Note_on_c, 0, 62, 0
2,7355, Note_on_c, 0, 69, 0
2,7393, Note_on_c, 0, 68, 80
2,7493, Note_on_c, 0, 57, 63
2,7525, Note_on_c, 0, 66, 80
2,7545, Note_on_c, 0, 57, 0
2,7545, Note_on_c, 0, 68, 0
2,7620, Note_on_c, 0, 66, 0
2,7648, Note_on_c, 0, 59, 68
2,7648, Note_on_c, 0, 68, 78
2,7689, Note_on_c, 0, 59, 0
2,7759, Note_on_c, 0, 68, 0
2,7770, Note_on_c, 0, 63, 74
2,7847, Note_on_c, 0, 63, 0
2,7895, Note_on_c, 0, 56, 62
2,7898, Note_on_c, 0, 64, 70
2,7941, Note_on_c, 0, 56, 0
2,7961, Note_on_c, 0, 64, 0
2,8009, Note_on_c, 0, 66, 70
2,8101, Note_on_c, 0, 66, 0
2,8135, Note_on_c, 0, 64, 73
2,8166, Note_on_c, 0, 61, 55
2,8259, Note_on_c, 0, 61, 0
2,8295, Note_on_c, 0, 62, 66
2,8407, Note_on_c, 0, 69, 80
2,8416, Note_on_c, 0, 61, 64
2,8416, Note_on_c, 0, 62, 0
2,8448, Note_on_c, 0, 64, 0
2,8522, Note_on_c, 0, 61, 0
2,8542, Note_on_c, 0, 71, 81
2,8564, Note_on_c, 0, 59, 65
2,8566, Note_on_c, 0, 69, 0
2,8667, Note_on_c, 0, 59, 0
2,8676, Note_on_c, 0, 57, 71
2,8682, Note_on_c, 0, 73, 92
2,8691, Note_on_c, 0, 71, 0
2,8776, Note_on_c, 0, 57, 0
2,8811, Note_on_c, 0, 71, 86
2,8832, Control_c, 0, 64, 8
2,8832, Note_on_c, 0, 73, 0
2,8867, Control_c, 0, 64, 9
2,8931, Note_on_c, 0, 69, 85
2,8951, Note_on_c, 0, 66, 80
2,8951, Note_on_c, 0, 71, 0
2,9061, Control_c, 0, 64, 8
2,9081, Note_on_c, 0, 73, 90
2,9085, Note_on_c, 0, 69, 0
2,9092, Note_on_c, 0, 66, 0
2,9101, Control_c, 0, 64, 0
2,9101, Note_on_c, 0, 57, 62
2,9188, Note_on_c, 0, 57, 0
2,9207, Note_on_c, 0, 68, 88
2,9207, Note_on_c, 0, 71, 81
2,9214, Note_on_c, 0, 64, 81
2,9218, Note_on_c, 0, 73, 0
2,9298, Note_on_c, 0, 64, 0
2,9309, Control_c, 0, 64, 8
2,9328, Note_on_c, 0, 71, 0
2,9330, Control_c, 0, 64, 9
2,9340, Note_on_c, 0, 74, 89
2,9351, Control_c, 0, 64, 10
2,9351, Note_on_c, 0, 68, 0
2,9466, Note_on_c, 0, 73, 92
2,9484, Control_c, 0, 64, 8
2,9504, Control_c, 0, 64, 0
2,9504, Note_on_c, 0, 74, 0
2,9597, Note_on_c, 0, 68, 88
2,9606, Note_on_c, 0, 52, 61
2,9655, Control_c, 0, 64, 8
2,9673, Control_c, 0, 64, 9
2,9716, Note_on_c, 0, 69, 79
2,9737, Control_c, 0, 64, 10
2,9737, Note_on_c, 0, 52, 0
2,9737, Note_on_c, 0, 54, 75
2,9737, Note_on_c, 0, 68, 0
2,9750, Control_c, 0, 64, 11
2,9801, Note_on_c, 0, 54, 0
2,9828, Control_c, 0, 64, 12
2,9848, Control_c, 0, 64, 13
2,9865, Note_on_c, 0, 76, 95
2,9870, Control_c, 0, 64, 14
2,9881, Note_on_c, 0, 73, 0
2,9885, Control_c, 0, 64, 15
2,9910, Note_on_c, 0, 69, 0
2,9990, Note_on_c, 0, 74, 90
2,10043, Note_on_c, 0, 76, 0
2,10078, Control_c, 0, 64, 16
2,10116, Control_c, 0, 64, 17
2,10127, Note_on_c, 0, 66, 64
2,10134, Note_on_c, 0, 69, 81
2,10138, Control_c, 0, 64, 18
2,10155, Control_c, 0, 64, 19
2,10196, Control_c, 0, 64, 20
2,10214, Control_c, 0, 64, 21
2,10232, Control_c, 0, 64, 22
2,10251, Control_c, 0, 64, 23
2,10264, Note_on_c, 0, 68, 75
2,10264, Note_on_c, 0, 71, 85
2,10273, Control_c, 0, 64, 25
2,10284, Note_on_c, 0, 69, 0
2,10309, Control_c, 0, 64, 26
2,10384, Control_c, 0, 64, 27
2,10398, Note_on_c, 0, 78, 90
2,10417, Note_on_c, 0, 71, 0
2,10417, Note_on_c, 0, 74, 0
2,10424, Control_c, 0, 64, 28
2,10439, Note_on_c, 0, 66, 0
2,10444, Control_c, 0, 64, 29
2,10454, Note_on_c, 0, 68, 0
2,10462, Control_c, 0, 64, 30
2,10482, Control_c, 0, 64, 31
2,10482, Control_c, 0, 67, 9
2,10501, Control_c, 0, 67, 10
2,10519, Control_c, 0, 64, 32
2,10526, Note_on_c, 0, 76, 83
2,10554, Note_on_c, 0, 78, 0
2,10596, Control_c, 0, 64, 31
2,10601, Control_c, 0, 67, 9
2,10639, Control_c, 0, 64, 30
2,10639, Control_c, 0, 67, 8
2,10648, Note_on_c, 0, 74, 85
2,10659, Control_c, 0, 67, 0
2,10674, Control_c, 0, 64, 29
2,10680, Note_on_c, 0, 76, 0
2,10713, Control_c, 0, 64, 28
2,10746, Note_on_c, 0, 74, 0
2,10750, Control_c, 0, 64, 27
2,10778, Note_on_c, 0, 76, 89
2,10884, Control_c, 0, 64, 26
2,10902, Note_on_c, 0, 71, 83
2,10909, Note_on_c, 0, 76, 0
2,10986, Note_on_c, 0, 71, 0
2,11026, Note_on_c, 0, 64, 71
2,11028, Note_on_c, 0, 68, 74
2,11035, Note_on_c, 0, 73, 86
2,11067, Note_on_c, 0, 64, 0
2,11076, Note_on_c, 0, 68, 0
2,11136, Control_c, 0, 64, 25
2,11136, Note_on_c, 0, 73, 0
2,11161, Note_on_c, 0, 74, 85
2,11269, Note_on_c, 0, 74, 0
2,11282, Note_on_c, 0, 69, 75
2,11287, Note_on_c, 0, 57, 76
2,11287, Note_on_c, 0, 73, 92
2,11307, Control_c, 0, 64, 24
2,11325, Note_on_c, 0, 57, 0
2,11338, Note_on_c, 0, 69, 0
2,11363, Control_c, 0, 64, 23
2,11374, Note_on_c, 0, 73, 0
2,11385, Control_c, 0, 64, 22
2,11417, Note_on_c, 0, 74, 85
2,11459, Control_c, 0, 64, 21
2,11502, Note_on_c, 0, 74, 0
2,11541, Note_on_c, 0, 59, 72
2,11546, Note_on_c, 0, 68, 81
2,11552, Note_on_c, 0, 76, 91
2,11594, Note_on_c, 0, 59, 0
2,11594, Note_on_c, 0, 68, 0
2,11652, Control_c, 0, 64, 20
2,11668, Note_on_c, 0, 76, 0
2,11680, Note_on_c, 0, 78, 90
2,11789, Note_on_c, 0, 69, 58
2,11793, Note_on_c, 0, 61, 62
2,11798, Note_on_c, 0, 76, 89
2,11811, Note_on_c, 0, 78, 0
2,11828, Note_on_c, 0, 69, 0
2,11839, Note_on_c, 0, 61, 0
2,11930, Note_on_c, 0, 81, 81
2,11939, Note_on_c, 0, 76, 0
2,12053, Note_on_c, 0, 63, 64
2,12069, Note_on_c, 0, 71, 71
2,12074, Note_on_c, 0, 80, 74
2,12082, Note_on_c, 0, 81, 0
2,12172, Note_on_c, 0, 78, 79
2,12177, Note_on_c, 0, 80, 0
2,12245, Note_on_c, 0, 63, 0
2,12298, Note_on_c, 0, 78, 0
2,12302, Note_on_c, 0, 80, 83
2,12321, Note_on_c, 0, 64, 62
2,12435, Note_on_c, 0, 78, 76
2,12447, Note_on_c, 0, 80, 0
2,12477, Note_on_c, 0, 64, 0
2,12566, Note_on_c, 0, 52, 57
2,12566, Note_on_c, 0, 78, 0
2,12571, Note_on_c, 0, 76, 72
2,12661, Note_on_c, 0, 52, 0
2,12697, Note_on_c, 0, 75, 73
2,12701, Note_on_c, 0, 54, 61
2,12701, Note_on_c, 0, 76, 0
2,12805, Note_on_c, 0, 75, 0
2,12830, Note_on_c, 0, 76, 78
2,12836, Note_on_c, 0, 56, 66
2,12840, Note_on_c, 0, 54, 0
2,12860, Note_on_c, 0, 71, 0
2,12949, Note_on_c, 0, 56, 0
2,12959, Note_on_c, 0, 69, 67
2,12964, Note_on_c, 0, 54, 70
2,13015, Control_c, 0, 64, 21
2,13070, Note_on_c, 0, 54, 0
2,13088, Note_on_c, 0, 69, 0
2,13099, Note_on_c, 0, 52, 66
2,13103, Note_on_c, 0, 68, 81
2,13176, Note_on_c, 0, 68, 0
2,13208, Control_c, 0, 64, 20
2,13221, Note_on_c, 0, 56, 74
2,13226, Note_on_c, 0, 52, 0
2,13230, Note_on_c, 0, 71, 78
2,13304, Control_c, 0, 64, 19
2,13350, Note_on_c, 0, 54, 75
2,13350, Note_on_c, 0, 56, 0
2,13361, Note_on_c, 0, 69, 79
2,13374, Note_on_c, 0, 71, 0
2,13447, Note_on_c, 0, 54, 0
2,13456, Control_c, 0, 64, 18
2,13481, Note_on_c, 0, 57, 75
2,13481, Note_on_c, 0, 66, 83
2,13486, Note_on_c, 0, 69, 0
2,13499, Note_on_c, 0, 76, 0
2,13499, Note_on_c, 0, 76, 10
2,13580, Note_on_c, 0, 57, 0
2,13614, Note_on_c, 0, 56, 76
2,13614, Note_on_c, 0, 76, 0
2,13618, Note_on_c, 0, 66, 0
2,13618, Note_on_c, 0, 71, 81
2,13758, Note_on_c, 0, 75, 76
2,13776, Note_on_c, 0, 71, 0
2,13883, Note_on_c, 0, 76, 70
2,13949, Note_on_c, 0, 75, 0
2,13992, Note_on_c, 0, 59, 86
2,14002, Note_on_c, 0, 56, 0
2,14002, Note_on_c, 0, 68, 78
2,14070, Control_c, 0, 64, 19
2,14122, Note_on_c, 0, 57, 87
2,14130, Control_c, 0, 64, 20
2,14135, Note_on_c, 0, 59, 0
2,14140, Note_on_c, 0, 73, 77
2,14140, Note_on_c, 0, 76, 0
2,14171, Control_c, 0, 64, 21
2,14185, Control_c, 0, 64, 22
2,14242, Control_c, 0, 64, 23
2,14273, Note_on_c, 0, 73, 0
2,14273, Note_on_c, 0, 75, 75
2,14321, Control_c, 0, 64, 24
2,14339, Control_c, 0, 64, 25
2,14386, Note_on_c, 0, 68, 0
2,14394, Note_on_c, 0, 76, 77
2,14438, Note_on_c, 0, 75, 0
2,14531, Note_on_c, 0, 61, 78
2,14542, Note_on_c, 0, 57, 0
2,14551, Control_c, 0, 64, 26
2,14651, Note_on_c, 0, 66, 68
2,14655, Note_on_c, 0, 61, 0
2,14670, Note_on_c, 0, 59, 72
2,14761, Note_on_c, 0, 59, 0
2,14768, Note_on_c, 0, 76, 0
2,14783, Control_c, 0, 64, 25
2,14786, Note_on_c, 0, 57, 67
2,14794, Note_on_c, 0, 73, 67
2,14872, Note_on_c, 0, 57, 0
2,14915, Note_on_c, 0, 59, 69
2,14919, Note_on_c, 0, 66, 0
2,14932, Note_on_c, 0, 74, 72
2,14952, Note_on_c, 0, 73, 0
2,15015, Note_on_c, 0, 59, 0
2,15052, Note_on_c, 0, 54, 67
2,15108, Control_c, 0, 64, 24
2,15152, Note_on_c, 0, 54, 0
2,15178, Note_on_c, 0, 56, 67
2,15185, Control_c, 0, 64, 23
2,15242, Control_c, 0, 64, 22
2,15279, Control_c, 0, 64, 21
2,15284, Note_on_c, 0, 56, 0
2,15295, Note_on_c, 0, 57, 68
2,15314, Note_on_c, 0, 66, 66
2,15339, Control_c, 0, 64, 20
2,15377, Control_c, 0, 64, 19
2,15425, Note_on_c, 0, 57, 0
2,15432, Note_on_c, 0, 56, 65
2,15434, Note_on_c, 0, 66, 0
2,15439, Note_on_c, 0, 64, 66
2,15527, Note_on_c, 0, 56, 0
2,15560, Note_on_c, 0, 59, 68
2,15608, Control_c, 0, 64, 18
2,15626, Note_on_c, 0, 59, 0
2,15691, Note_on_c, 0, 57, 71
2,15722, Control_c, 0, 64, 17
2,15783, Note_on_c, 0, 74, 0
2,15787, Note_on_c, 0, 57, 0
2,15804, Note_on_c, 0, 72, 71
2,15811, Note_on_c, 0, 56, 65
2,15857, Control_c, 0, 64, 16
2,15909, Note_on_c, 0, 64, 0
2,15941, Note_on_c, 0, 56, 0
2,15941, Note_on_c, 0, 73, 74
2,15961, Note_on_c, 0, 57, 63
2,15973, Note_on_c, 0, 72, 0
2,15991, Control_c, 0, 64, 17
2,16029, Control_c, 0, 64, 18
2,16049, Control_c, 0, 64, 19
2,16063, Note_on_c, 0, 57, 0
2,16084, Note_on_c, 0, 52, 62
2,16143, Control_c, 0, 64, 20
2,16191, Note_on_c, 0, 52, 0
2,16209, Note_on_c, 0, 54, 60
2,16304, Note_on_c, 0, 54, 0
2,16335, Note_on_c, 0, 56, 61
2,16340, Note_on_c, 0, 64, 66
2,16451, Note_on_c, 0, 56, 0
2,16455, Note_on_c, 0, 64, 0
2,16460, Note_on_c, 0, 54, 58
2,16468, Note_on_c, 0, 63, 61
2,16529, Note_on_c, 0, 54, 0
2,16569, Control_c, 0, 64, 21
2,16588, Control_c, 0, 64, 22
2,16588, Note_on_c, 0, 57, 63
2,16624, Control_c, 0, 64, 23
2,16649, Note_on_c, 0, 57, 0
2,16718, Note_on_c, 0, 56, 61
2,16775, Note_on_c, 0, 73, 0
2,16831, Note_on_c, 0, 56, 0
2,16837, Note_on_c, 0, 70, 64
2,16842, Control_c, 0, 64, 22
2,16851, Note_on_c, 0, 54, 60
2,16950, Note_on_c, 0, 54, 0
2,16971, Note_on_c, 0, 71, 63
2,16992, Note_on_c, 0, 56, 60
2,16998, Note_on_c, 0, 70, 0
2,17076, Note_on_c, 0, 56, 0
2,17111, Note_on_c, 0, 51, 62
2,17175, Note_on_c, 0, 51, 0
2,17238, Note_on_c, 0, 53, 59
2,17316, Note_on_c, 0, 53, 0
2,17355, Note_on_c, 0, 54, 70
2,17387, Note_on_c, 0, 63, 0
2,17394, Note_on_c, 0, 62, 70
2,17438, Note_on_c, 0, 54, 0
2,17485, Note_on_c, 0, 53, 64
2,17512, Note_on_c, 0, 61, 76
2,17512, Note_on_c, 0, 62, 0
2,17623, Note_on_c, 0, 61, 0
2,17627, Note_on_c, 0, 53, 0
2,17639, Note_on_c, 0, 49, 70
2,17643, Note_on_c, 0, 65, 78
2,17700, Control_c, 0, 64, 21
2,17756, Note_on_c, 0, 51, 72
2,17766, Note_on_c, 0, 49, 0
2,17775, Note_on_c, 0, 66, 84
2,17784, Note_on_c, 0, 71, 0
2,17786, Note_on_c, 0, 65, 0
2,17846, Note_on_c, 0, 51, 0
2,17896, Note_on_c, 0, 53, 71
2,17904, Note_on_c, 0, 68, 89
2,17919, Note_on_c, 0, 66, 0
2,18008, Note_on_c, 0, 53, 0
2,18024, Note_on_c, 0, 54, 78
2,18028, Note_on_c, 0, 69, 83
2,18037, Note_on_c, 0, 68, 0
2,18127, Note_on_c, 0, 54, 0
2,18159, Note_on_c, 0, 68, 90
2,18192, Note_on_c, 0, 69, 0
2,18281, Note_on_c, 0, 66, 87
2,18286, Note_on_c, 0, 68, 0
2,18295, Note_on_c, 0, 63, 78
2,18406, Note_on_c, 0, 69, 78
2,18415, Note_on_c, 0, 63, 0
2,18431, Note_on_c, 0, 66, 0
2,18435, Note_on_c, 0, 54, 63
2,18468, Control_c, 0, 64, 20
2,18522, Note_on_c, 0, 69, 0
2,18528, Note_on_c, 0, 54, 0
2,18555, Note_on_c, 0, 68, 86
2,18560, Note_on_c, 0, 61, 66
2,18571, Note_on_c, 0, 65, 78
2,18663, Note_on_c, 0, 61, 0
2,18691, Note_on_c, 0, 71, 85
2,18709, Note_on_c, 0, 68, 0
2,18718, Note_on_c, 0, 65, 0
2,18794, Control_c, 0, 64, 19
2,18814, Control_c, 0, 64, 18
2,18825, Note_on_c, 0, 69, 83
2,18834, Control_c, 0, 64, 17
2,18853, Control_c, 0, 64, 16
2,18853, Note_on_c, 0, 71, 0
2,18892, Control_c, 0, 64, 15
2,18961, Note_on_c, 0, 65, 78
2,18965, Note_on_c, 0, 49, 55
2,19066, Control_c, 0, 64, 16
2,19078, Note_on_c, 0, 50, 67
2,19083, Control_c, 0, 64, 17
2,19101, Control_c, 0, 64, 18
2,19110, Note_on_c, 0, 66, 84
2,19114, Note_on_c, 0, 49, 0
2,19119, Control_c, 0, 64, 19
2,19123, Note_on_c, 0, 65, 0
2,19160, Control_c, 0, 64, 20
2,19231, Note_on_c, 0, 50, 0
2,19240, Note_on_c, 0, 73, 93
2,19249, Note_on_c, 0, 69, 0
2,19277, Note_on_c, 0, 66, 0
2,19371, Note_on_c, 0, 71, 89
2,19411, Note_on_c, 0, 73, 0
2,19505, Control_c, 0, 64, 21
2,19512, Note_on_c, 0, 66, 84
2,19526, Control_c, 0, 64, 23
2,19538, Note_on_c, 0, 51, 62
2,19561, Control_c, 0, 64, 24
2,19644, Note_on_c, 0, 68, 84
2,19661, Note_on_c, 0, 52, 68
2,19679, Control_c, 0, 64, 25
2,19679, Note_on_c, 0, 71, 0
2,19703, Note_on_c, 0, 66, 0
2,19757, Note_on_c, 0, 52, 0
2,19760, Note_on_c, 0, 51, 0
2,19781, Note_on_c, 0, 74, 85
2,19786, Note_on_c, 0, 68, 0
2,19890, Control_c, 0, 64, 24
2,19911, Note_on_c, 0, 73, 83
2,19940, Note_on_c, 0, 74, 0
2,19946, Control_c, 0, 64, 23
2,20043, Note_on_c, 0, 71, 79
2,20047, Note_on_c, 0, 73, 0
2,20056, Note_on_c, 0, 56, 55
2,20102, Note_on_c, 0, 56, 0
2,20164, Note_on_c, 0, 71, 0
2,20167, Note_on_c, 0, 53, 68
2,20171, Note_on_c, 0, 73, 83
2,20212, Note_on_c, 0, 53, 0
2,20301, Note_on_c, 0, 68, 77
2,20309, Note_on_c, 0, 73, 0
2,20349, Control_c, 0, 64, 22
2,20407, Control_c, 0, 64, 21
2,20414, Note_on_c, 0, 68, 0
2,20422, Note_on_c, 0, 49, 60
2,20432, Note_on_c, 0, 69, 71
2,20445, Control_c, 0, 64, 20
2,20481, Note_on_c, 0, 49, 0
2,20486, Control_c, 0, 64, 19
2,20524, Control_c, 0, 64, 18
2,20529, Note_on_c, 0, 69, 0
2,20541, Control_c, 0, 64, 17
2,20546, Note_on_c, 0, 71, 76
2,20580, Control_c, 0, 64, 16
2,20617, Control_c, 0, 64, 15
2,20667, Note_on_c, 0, 71, 0
2,20682, Note_on_c, 0, 54, 56
2,20682, Note_on_c, 0, 69, 68
2,20742, Note_on_c, 0, 54, 0
2,20831, Note_on_c, 0, 68, 64
2,20926, Control_c, 0, 64, 13
2,20942, Control_c, 0, 64, 11
2,20953, Note_on_c, 0, 66, 62
2,20964, Control_c, 0, 64, 9
2,20985, Control_c, 0, 64, 0
2,21003, Note_on_c, 0, 68, 0
2,21072, Note_on_c, 0, 66, 0
2,21090, Note_on_c, 0, 65, 59
2,21096, Note_on_c, 0, 56, 53
2,21181, Note_on_c, 0, 65, 0
2,21190, Note_on_c, 0, 56, 0
2,21208, Note_on_c, 0, 57, 66
2,21214, Note_on_c, 0, 66, 68
2,21258, Note_on_c, 0, 57, 0
2,21324, Note_on_c, 0, 66, 0
2,21357, Note_on_c, 0, 61, 68
2,21463, Note_on_c, 0, 61, 0
2,21484, Note_on_c, 0, 54, 66
2,21503, Note_on_c, 0, 63, 65
2,21533, Note_on_c, 0, 54, 0
2,21612, Note_on_c, 0, 63, 0
2,21618, Note_on_c, 0, 64, 71
2,21622, Note_on_c, 0, 69, 0
2,21720, Note_on_c, 0, 64, 0
2,21742, Note_on_c, 0, 47, 49
2,21756, Note_on_c, 0, 63, 68
2,21877, Note_on_c, 0, 73, 73
2,21904, Note_on_c, 0, 47, 0
2,21963, Control_c, 0, 67, 10
2,21982, Control_c, 0, 67, 25
2,22000, Control_c, 0, 67, 46
2,22014, Note_on_c, 0, 71, 68
2,22021, Note_on_c, 0, 73, 0
2,22026, Control_c, 0, 67, 61
2,22039, Control_c, 0, 67, 71
2,22057, Control_c, 0, 67, 78
2,22081, Control_c, 0, 67, 81
2,22098, Control_c, 0, 67, 83
2,22115, Control_c, 0, 67, 86
2,22135, Control_c, 0, 67, 89
2,22135, Note_on_c, 0, 71, 0
2,22142, Note_on_c, 0, 49, 57
2,22146, Note_on_c, 0, 69, 67
2,22155, Control_c, 0, 67, 92
2,22201, Note_on_c, 0, 49, 0
2,22268, Note_on_c, 0, 69, 0
2,22282, Note_on_c, 0, 51, 66
2,22282, Note_on_c, 0, 71, 68
2,22331, Note_on_c, 0, 51, 0
2,22404, Control_c, 0, 67, 91
2,22404, Note_on_c, 0, 71, 0
2,22424, Note_on_c, 0, 66, 64
2,22462, Control_c, 0, 67, 90
2,22480, Control_c, 0, 67, 89
2,22500, Control_c, 0, 67, 88
2,22539, Control_c, 0, 67, 87
2,22543, Note_on_c, 0, 47, 50
2,22547, Note_on_c, 0, 66, 0
2,22547, Note_on_c, 0, 68, 69
2,22556, Control_c, 0, 67, 86
2,22578, Control_c, 0, 67, 85
2,22597, Control_c, 0, 67, 83
2,22605, Note_on_c, 0, 47, 0
2,22614, Control_c, 0, 67, 82
2,22634, Control_c, 0, 67, 81
2,22655, Control_c, 0, 67, 80
2,22655, Note_on_c, 0, 68, 0
2,22659, Note_on_c, 0, 63, 0
2,22664, Note_on_c, 0, 69, 59
2,22675, Control_c, 0, 67, 79
2,22690, Control_c, 0, 67, 78
2,22713, Control_c, 0, 67, 77
2,22729, Control_c, 0, 67, 75
2,22751, Control_c, 0, 67, 74
2,22767, Control_c, 0, 67, 73
2,22787, Control_c, 0, 67, 69
2,22800, Note_on_c, 0, 52, 59
2,22807, Control_c, 0, 67, 63
2,22817, Note_on_c, 0, 69, 0
2,22830, Control_c, 0, 64, 8
2,22830, Control_c, 0, 67, 56
2,22830, Note_on_c, 0, 68, 72
2,22849, Control_c, 0, 64, 11
2,22849, Control_c, 0, 67, 51
2,22865, Control_c, 0, 64, 12
2,22869, Control_c, 0, 67, 47
2,22884, Control_c, 0, 64, 13
2,22906, Control_c, 0, 64, 14
2,22906, Control_c, 0, 67, 46
2,22924, Control_c, 0, 64, 15
2,22942, Control_c, 0, 64, 17
2,22944, Control_c, 0, 67, 45
2,22952, Note_on_c, 0, 56, 69
2,22961, Control_c, 0, 64, 18
2,22982, Control_c, 0, 67, 42
2,23000, Control_c, 0, 67, 36
2,23018, Control_c, 0, 67, 28
2,23038, Control_c, 0, 67, 16
2,23055, Note_on_c, 0, 52, 0
2,23055, Note_on_c, 0, 52, 3
2,23060, Control_c, 0, 67, 0
2,23087, Note_on_c, 0, 56, 0
2,23091, Note_on_c, 0, 61, 65
2,23098, Control_c, 0, 64, 17
2,23115, Control_c, 0, 64, 16
2,23143, Note_on_c, 0, 52, 0
2,23202, Note_on_c, 0, 51, 61
2,23202, Note_on_c, 0, 63, 74
2,23232, Note_on_c, 0, 61, 0
2,23279, Note_on_c, 0, 63, 0
2,23329, Note_on_c, 0, 64, 83
2,23335, Note_on_c, 0, 51, 0
2,23346, Note_on_c, 0, 49, 62
2,23460, Control_c, 0, 64, 17
2,23460, Note_on_c, 0, 49, 0
2,23464, Note_on_c, 0, 63, 83
2,23469, Note_on_c, 0, 64, 0
2,23483, Control_c, 0, 64, 18
2,23517, Control_c, 0, 64, 19
2,23536, Control_c, 0, 64, 20
2,23573, Control_c, 0, 64, 21
2,23602, Note_on_c, 0, 61, 81
2,23615, Note_on_c, 0, 63, 0
2,23651, Control_c, 0, 64, 22
2,23669, Note_on_c, 0, 61, 0
2,23731, Note_on_c, 0, 64, 84
2,23770, Note_on_c, 0, 60, 50
2,23799, Note_on_c, 0, 60, 0
2,23830, Note_on_c, 0, 64, 0
2,23861, Note_on_c, 0, 63, 68
2,23887, Note_on_c, 0, 60, 72
2,23945, Note_on_c, 0, 63, 0
2,23983, Note_on_c, 0, 66, 75
2,23997, Note_on_c, 0, 68, 0
2,24012, Note_on_c, 0, 60, 0
2,24023, Note_on_c, 0, 56, 60
2,24117, Note_on_c, 0, 66, 0
2,24121, Note_on_c, 0, 61, 71
2,24121, Note_on_c, 0, 64, 85
2,24206, Note_on_c, 0, 61, 0
2,24210, Note_on_c, 0, 56, 0
2,24258, Note_on_c, 0, 59, 68
2,24258, Note_on_c, 0, 68, 83
2,24345, Note_on_c, 0, 59, 0
2,24391, Note_on_c, 0, 57, 70
2,24405, Note_on_c, 0, 73, 88
2,24409, Note_on_c, 0, 68, 0
2,24499, Note_on_c, 0, 57, 0
2,24517, Note_on_c, 0, 56, 72
2,24530, Note_on_c, 0, 68, 87
2,24566, Note_on_c, 0, 73, 0
2,24615, Control_c, 0, 64, 21
2,24615, Note_on_c, 0, 64, 0
2,24632, Note_on_c, 0, 56, 0
2,24654, Note_on_c, 0, 57, 58
2,24654, Note_on_c, 0, 66, 89
2,24669, Control_c, 0, 64, 20
2,24759, Note_on_c, 0, 57, 0
2,24788, Note_on_c, 0, 54, 62
2,24810, Note_on_c, 0, 68, 0
2,24815, Note_on_c, 0, 75, 78
2,24895, Note_on_c, 0, 54, 0
2,24911, Note_on_c, 0, 56, 75
2,24938, Note_on_c, 0, 72, 82
2,24972, Note_on_c, 0, 75, 0
2,24993, Note_on_c, 0, 66, 0
2,25083, Note_on_c, 0, 69, 70
2,25163, Note_on_c, 0, 56, 0
2,25167, Control_c, 0, 64, 19
2,25207, Control_c, 0, 64, 18
2,25213, Note_on_c, 0, 68, 78
2,25242, Note_on_c, 0, 69, 0
2,25282, Note_on_c, 0, 72, 0
2,25344, Note_on_c, 0, 66, 78
2,25344, Note_on_c, 0, 68, 0
2,25350, Note_on_c, 0, 51, 62
2,25399, Note_on_c, 0, 51, 0
2,25437, Note_on_c, 0, 66, 0
2,25471, Note_on_c, 0, 75, 71
2,25475, Note_on_c, 0, 68, 73
2,25480, Note_on_c, 0, 48, 58
2,25518, Control_c, 0, 64, 17
2,25551, Note_on_c, 0, 48, 0
2,25551, Note_on_c, 0, 68, 0
2,25598, Note_on_c, 0, 63, 67
2,25710, Note_on_c, 0, 63, 0
2,25726, Note_on_c, 0, 64, 64
2,25748, Note_on_c, 0, 44, 48
2,25803, Control_c, 0, 67, 9
2,25805, Note_on_c, 0, 44, 0
2,25823, Control_c, 0, 67, 18
2,25842, Control_c, 0, 64, 18
2,25842, Control_c, 0, 67, 25
2,25852, Note_on_c, 0, 64, 0
2,25857, Note_on_c, 0, 66, 66
2,25861, Control_c, 0, 67, 33
2,25878, Control_c, 0, 67, 40
2,25898, Control_c, 0, 67, 49
2,25918, Control_c, 0, 67, 60
2,25938, Control_c, 0, 67, 75
2,25956, Control_c, 0, 67, 90
2,25960, Note_on_c, 0, 66, 0
2,25974, Control_c, 0, 67, 103
2,25996, Control_c, 0, 64, 19
2,25996, Control_c, 0, 67, 113
2,26002, Note_on_c, 0, 49, 50
2,26002, Note_on_c, 0, 64, 67
2,26016, Control_c, 0, 67, 122
2,26031, Control_c, 0, 67, 127
2,26053, Control_c, 0, 64, 20
2,26120, Note_on_c, 0, 75, 0
2,26136, Note_on_c, 0, 72, 74
2,26156, Note_on_c, 0, 64, 0
2,26282, Note_on_c, 0, 73, 77
2,26324, Note_on_c, 0, 72, 0
2,26407, Note_on_c, 0, 56, 49
2,26414, Note_on_c, 0, 73, 0
2,26421, Note_on_c, 0, 75, 73
2,26460, Note_on_c, 0, 56, 0
2,26530, Note_on_c, 0, 75, 0
2,26546, Note_on_c, 0, 73, 80
2,26555, Note_on_c, 0, 58, 43
2,26589, Control_c, 0, 64, 19
2,26616, Note_on_c, 0, 58, 0
2,26655, Note_on_c, 0, 73, 0
2,26669, Note_on_c, 0, 78, 72
2,26816, Note_on_c, 0, 76, 68
2,26820, Note_on_c, 0, 78, 0
2,26825, Note_on_c, 0, 60, 48
2,26833, Note_on_c, 0, 49, 0
2,26931, Note_on_c, 0, 60, 0
2,26938, Note_on_c, 0, 75, 64
2,26942, Note_on_c, 0, 76, 0
2,27030, Control_c, 0, 64, 18
2,27086, Note_on_c, 0, 61, 42
2,27088, Note_on_c, 0, 75, 0
2,27088, Note_on_c, 0, 76, 70
2,27181, Note_on_c, 0, 61, 0
2,27209, Note_on_c, 0, 63, 58
2,27338, Note_on_c, 0, 63, 0
2,27342, Note_on_c, 0, 61, 55
2,27455, Note_on_c, 0, 61, 0
2,27473, Note_on_c, 0, 60, 51
2,27594, Note_on_c, 0, 60, 0
2,27614, Note_on_c, 0, 61, 50
2,27721, Note_on_c, 0, 61, 0
2,27778, Note_on_c, 0, 56, 51
2,27855, Control_c, 0, 64, 17
2,27893, Note_on_c, 0, 56, 0
2,27902, Note_on_c, 0, 58, 53
2,27980, Note_on_c, 0, 58, 0
2,28047, Note_on_c, 0, 59, 42
2,28143, Control_c, 0, 64, 16
2,28164, Note_on_c, 0, 59, 0
2,28168, Note_on_c, 0, 58, 61
2,28281, Note_on_c, 0, 79, 70
2,28290, Note_on_c, 0, 76, 0
2,28310, Note_on_c, 0, 58, 0
2,28336, Control_c, 0, 67, 120
2,28355, Control_c, 0, 67, 114
2,28374, Control_c, 0, 67, 108
2,28392, Control_c, 0, 67, 102
2,28415, Control_c, 0, 67, 96
2,28424, Note_on_c, 0, 79, 0
2,28428, Note_on_c, 0, 78, 74
2,28434, Control_c, 0, 67, 88
2,28451, Control_c, 0, 67, 80
2,28471, Control_c, 0, 67, 69
2,28492, Control_c, 0, 67, 60
2,28512, Control_c, 0, 67, 49
2,28527, Control_c, 0, 67, 42
2,28549, Control_c, 0, 67, 35
2,28567, Control_c, 0, 67, 26
2,28572, Note_on_c, 0, 61, 62
2,28572, Note_on_c, 0, 76, 73
2,28585, Control_c, 0, 67, 16
2,28590, Note_on_c, 0, 78, 0
2,28606, Control_c, 0, 67, 0
2,28616, Note_on_c, 0, 61, 0
2,28697, Note_on_c, 0, 76, 0
2,28707, Note_on_c, 0, 58, 63
2,28716, Note_on_c, 0, 78, 79
2,28763, Note_on_c, 0, 58, 0
2,28799, Control_c, 0, 64, 15
2,28841, Note_on_c, 0, 73, 79
2,28846, Note_on_c, 0, 78, 0
2,28963, Note_on_c, 0, 73, 0
2,28967, Note_on_c, 0, 54, 60
2,28967, Note_on_c, 0, 74, 77
2,29017, Note_on_c, 0, 54, 0
2,29093, Note_on_c, 0, 74, 0
2,29096, Note_on_c, 0, 76, 76
2,29226, Note_on_c, 0, 59, 62
2,29246, Note_on_c, 0, 74, 80
2,29269, Note_on_c, 0, 76, 0
2,29368, Note_on_c, 0, 73, 79
2,29373, Note_on_c, 0, 59, 0
2,29516, Note_on_c, 0, 71, 68
2,29520, Note_on_c, 0, 73, 0
2,29603, Control_c, 0, 64, 14
2,29612, Note_on_c, 0, 54, 68
2,29623, Control_c, 0, 64, 13
2,29645, Note_on_c, 0, 71, 0
2,29651, Note_on_c, 0, 70, 77
2,29658, Note_on_c, 0, 54, 0
2,29662, Control_c, 0, 64, 12
2,29699, Control_c, 0, 64, 11
2,29732, Note_on_c, 0, 50, 70
2,29779, Note_on_c, 0, 70, 0
2,29789, Note_on_c, 0, 71, 70
2,29793, Note_on_c, 0, 50, 0
2,29795, Note_on_c, 0, 72, 71
2,29848, Note_on_c, 0, 72, 0
2,29877, Note_on_c, 0, 71, 0
2,29906, Note_on_c, 0, 66, 72
2,29911, Control_c, 0, 64, 12
2,30024, Note_on_c, 0, 47, 61
2,30028, Note_on_c, 0, 68, 83
2,30032, Note_on_c, 0, 66, 0
2,30066, Control_c, 0, 64, 13
2,30072, Note_on_c, 0, 47, 0
2,30121, Control_c, 0, 64, 14
2,30140, Control_c, 0, 64, 15
2,30148, Note_on_c, 0, 74, 0
2,30154, Note_on_c, 0, 69, 79
2,30170, Note_on_c, 0, 68, 0
2,30181, Control_c, 0, 64, 16
2,30278, Note_on_c, 0, 69, 0
2,30295, Control_c, 0, 64, 17
2,30304, Note_on_c, 0, 68, 84
2,30308, Note_on_c, 0, 52, 71
2,30409, Control_c, 0, 64, 18
2,30428, Control_c, 0, 64, 19
2,30436, Note_on_c, 0, 78, 81
2,30469, Control_c, 0, 64, 20
2,30506, Control_c, 0, 64, 21
2,30530, Note_on_c, 0, 52, 0
2,30568, Note_on_c, 0, 76, 78
2,30609, Note_on_c, 0, 78, 0
2,30690, Note_on_c, 0, 47, 72
2,30694, Note_on_c, 0, 74, 83
2,30722, Note_on_c, 0, 76, 0
2,30737, Note_on_c, 0, 47, 0
2,30807, Note_on_c, 0, 44, 80
2,30828, Note_on_c, 0, 76, 90
2,30832, Note_on_c, 0, 74, 0
2,30905, Note_on_c, 0, 44, 0
2,30953, Note_on_c, 0, 71, 80
2,30969, Note_on_c, 0, 76, 0
2,31088, Note_on_c, 0, 40, 62
2,31088, Note_on_c, 0, 73, 85
2,31120, Control_c, 0, 64, 22
2,31137, Note_on_c, 0, 71, 0
2,31140, Note_on_c, 0, 40, 0
2,31207, Note_on_c, 0, 74, 84
2,31233, Note_on_c, 0, 73, 0
2,31255, Control_c, 0, 64, 23
2,31270, Note_on_c, 0, 68, 0
2,31341, Note_on_c, 0, 33, 67
2,31350, Note_on_c, 0, 73, 88
2,31357, Note_on_c, 0, 69, 73
2,31372, Note_on_c, 0, 74, 0
2,31472, Note_on_c, 0, 40, 64
2,31490, Note_on_c, 0, 74, 86
2,31495, Note_on_c, 0, 73, 0
2,31519, Note_on_c, 0, 33, 0
2,31523, Note_on_c, 0, 69, 0
2,31590, Note_on_c, 0, 40, 0
2,31596, Note_on_c, 0, 45, 70
2,31610, Note_on_c, 0, 73, 88
2,31635, Note_on_c, 0, 74, 0
2,31728, Note_on_c, 0, 47, 77
2,31732, Note_on_c, 0, 45, 0
2,31753, Note_on_c, 0, 71, 88
2,31805, Note_on_c, 0, 73, 0
2,31859, Note_on_c, 0, 71, 0
2,31874, Note_on_c, 0, 69, 81
2,31879, Note_on_c, 0, 48, 71
2,31883, Note_on_c, 0, 47, 0
2,31937, Note_on_c, 0, 48, 0
2,31985, Control_c, 0, 64, 24
2,32009, Note_on_c, 0, 47, 73
2,32013, Note_on_c, 0, 68, 85
2,32018, Note_on_c, 0, 69, 0
2,32136, Note_on_c, 0, 45, 69
2,32156, Note_on_c, 0, 66, 82
2,32202, Note_on_c, 0, 68, 0
2,32249, Note_on_c, 0, 47, 0
2,32280, Note_on_c, 0, 49, 73
2,32284, Note_on_c, 0, 64, 79
2,32291, Note_on_c, 0, 45, 0
2,32298, Note_on_c, 0, 66, 0
2,32341, Note_on_c, 0, 64, 0
2,32373, Note_on_c, 0, 49, 0
2,32411, Note_on_c, 0, 47, 74
2,32415, Note_on_c, 0, 62, 88
2,32466, Control_c, 0, 64, 23
2,32520, Note_on_c, 0, 47, 0
2,32533, Note_on_c, 0, 50, 79
2,32559, Note_on_c, 0, 66, 74
2,32564, Note_on_c, 0, 62, 0
2,32617, Control_c, 0, 64, 22
2,32678, Note_on_c, 0, 49, 75
2,32678, Note_on_c, 0, 50, 0
2,32682, Note_on_c, 0, 68, 76
2,32695, Note_on_c, 0, 66, 0
2,32811, Note_on_c, 0, 71, 76
2,32815, Note_on_c, 0, 68, 0
2,32849, Control_c, 0, 64, 21
2,32868, Control_c, 0, 64, 20
2,32885, Control_c, 0, 64, 19
2,32905, Control_c, 0, 64, 18
2,32909, Note_on_c, 0, 71, 0
2,32928, Control_c, 0, 64, 17
2,32944, Note_on_c, 0, 64, 79
2,32966, Control_c, 0, 64, 16
2,33055, Note_on_c, 0, 52, 88
2,33066, Note_on_c, 0, 49, 0
2,33070, Note_on_c, 0, 68, 76
2,33089, Note_on_c, 0, 64, 0
2,33191, Note_on_c, 0, 50, 84
2,33204, Note_on_c, 0, 52, 0
2,33222, Note_on_c, 0, 70, 74
2,33236, Note_on_c, 0, 68, 0
2,33347, Control_c, 0, 64, 17
2,33363, Note_on_c, 0, 73, 77
2,33383, Note_on_c, 0, 70, 0
2,33387, Control_c, 0, 64, 18
2,33444, Control_c, 0, 64, 19
2,33492, Note_on_c, 0, 71, 72
2,33509, Note_on_c, 0, 73, 0
2,33557, Control_c, 0, 64, 20
2,33597, Control_c, 0, 64, 21
2,33614, Note_on_c, 0, 50, 0
2,33619, Note_on_c, 0, 54, 77
2,33740, Note_on_c, 0, 54, 0
2,33753, Note_on_c, 0, 52, 70
2,33860, Note_on_c, 0, 52, 0
2,33871, Note_on_c, 0, 51, 67
2,33890, Note_on_c, 0, 66, 73
2,33945, Note_on_c, 0, 51, 0
2,33996, Note_on_c, 0, 52, 65
2,34005, Note_on_c, 0, 66, 0
2,34012, Note_on_c, 0, 67, 69
2,34102, Note_on_c, 0, 71, 0
2,34125, Note_on_c, 0, 52, 0
2,34140, Note_on_c, 0, 47, 62
2,34266, Note_on_c, 0, 47, 0
2,34266, Note_on_c, 0, 49, 62
2,34268, Control_c, 0, 64, 20
2,34288, Control_c, 0, 64, 19
2,34307, Control_c, 0, 64, 18
2,34345, Control_c, 0, 64, 17
2,34354, Note_on_c, 0, 49, 0
2,34384, Control_c, 0, 64, 16
2,34406, Note_on_c, 0, 50, 67
2,34422, Control_c, 0, 64, 15
2,34422, Note_on_c, 0, 71, 81
2,34479, Control_c, 0, 64, 14
2,34546, Note_on_c, 0, 69, 74
2,34550, Note_on_c, 0, 49, 63
2,34558, Note_on_c, 0, 50, 0
2,34582, Note_on_c, 0, 71, 0
2,34662, Note_on_c, 0, 49, 0
2,34691, Note_on_c, 0, 52, 67
2,34709, Control_c, 0, 64, 15
2,34730, Control_c, 0, 64, 16
2,34787, Control_c, 0, 64, 17
2,34802, Note_on_c, 0, 52, 0
2,34809, Note_on_c, 0, 50, 69
2,34872, Note_on_c, 0, 67, 0
2,34920, Note_on_c, 0, 50, 0
2,34928, Note_on_c, 0, 49, 62
2,34937, Note_on_c, 0, 65, 64
2,34979, Control_c, 0, 64, 18
2,35015, Note_on_c, 0, 49, 0
2,35059, Note_on_c, 0, 65, 0
2,35063, Note_on_c, 0, 66, 63
2,35082, Note_on_c, 0, 50, 51
2,35151, Control_c, 0, 64, 19
2,35177, Note_on_c, 0, 50, 0
2,35177, Note_on_c, 0, 69, 0
2,35211, Note_on_c, 0, 45, 53
2,35281, Note_on_c, 0, 45, 0
2,35324, Control_c, 0, 64, 18
2,35343, Control_c, 0, 64, 17
2,35348, Note_on_c, 0, 47, 56
2,35381, Control_c, 0, 64, 16
2,35419, Control_c, 0, 64, 15
2,35439, Note_on_c, 0, 47, 0
2,35474, Note_on_c, 0, 49, 58
2,35474, Note_on_c, 0, 69, 69
2,35497, Control_c, 0, 64, 14
2,35559, Note_on_c, 0, 49, 0
2,35603, Note_on_c, 0, 47, 55
2,35614, Note_on_c, 0, 68, 66
2,35631, Note_on_c, 0, 69, 0
2,35667, Note_on_c, 0, 47, 0
2,35712, Control_c, 0, 64, 15
2,35712, Control_c, 0, 67, 14
2,35729, Control_c, 0, 67, 33
2,35729, Note_on_c, 0, 50, 51
2,35748, Control_c, 0, 64, 16
2,35752, Control_c, 0, 67, 58
2,35768, Control_c, 0, 67, 87
2,35789, Control_c, 0, 64, 17
2,35789, Control_c, 0, 67, 114
2,35809, Control_c, 0, 67, 127
2,35809, Note_on_c, 0, 50, 0
2,35825, Control_c, 0, 64, 18
2,35868, Note_on_c, 0, 49, 51
2,35959, Note_on_c, 0, 49, 0
2,36003, Note_on_c, 0, 47, 53
2,36009, Note_on_c, 0, 63, 60
2,36077, Note_on_c, 0, 47, 0
2,36105, Note_on_c, 0, 66, 0
2,36123, Note_on_c, 0, 63, 0
2,36131, Control_c, 0, 64, 19
2,36136, Note_on_c, 0, 64, 61
2,36143, Note_on_c, 0, 49, 47
2,36168, Control_c, 0, 64, 20
2,36207, Control_c, 0, 64, 21
2,36223, Note_on_c, 0, 49, 0
2,36228, Control_c, 0, 64, 22
2,36266, Control_c, 0, 64, 23
2,36284, Control_c, 0, 64, 24
2,36284, Note_on_c, 0, 44, 52
2,36313, Note_on_c, 0, 68, 0
2,36363, Note_on_c, 0, 44, 0
2,36412, Note_on_c, 0, 46, 47
2,36468, Note_on_c, 0, 46, 0
2,36479, Control_c, 0, 64, 23
2,36522, Note_on_c, 0, 47, 46
2,36533, Note_on_c, 0, 67, 61
2,36620, Note_on_c, 0, 47, 0
2,36631, Control_c, 0, 64, 22
2,36631, Note_on_c, 0, 64, 0
2,36651, Note_on_c, 0, 46, 58
2,36671, Note_on_c, 0, 66, 68
2,36680, Note_on_c, 0, 67, 0
2,36781, Note_on_c, 0, 46, 0
2,36786, Control_c, 0, 67, 120
2,36788, Note_on_c, 0, 42, 61
2,36802, Control_c, 0, 67, 110
2,36821, Control_c, 0, 67, 100
2,36841, Control_c, 0, 67, 91
2,36861, Control_c, 0, 67, 83
2,36880, Control_c, 0, 67, 75
2,36899, Control_c, 0, 67, 67
2,36903, Note_on_c, 0, 42, 0
2,36920, Control_c, 0, 64, 21
2,36920, Control_c, 0, 67, 57
2,36931, Note_on_c, 0, 44, 60
2,36940, Control_c, 0, 64, 20
2,36940, Control_c, 0, 67, 49
2,36944, Note_on_c, 0, 62, 72
2,36957, Control_c, 0, 67, 41
2,36977, Control_c, 0, 64, 19
2,36977, Control_c, 0, 67, 35
2,36994, Control_c, 0, 67, 31
2,37010, Note_on_c, 0, 44, 0
2,37018, Control_c, 0, 67, 26
2,37030, Note_on_c, 0, 62, 0
2,37032, Control_c, 0, 67, 22
2,37052, Control_c, 0, 67, 15
2,37058, Note_on_c, 0, 61, 68
2,37063, Note_on_c, 0, 46, 65
2,37073, Control_c, 0, 64, 18
2,37073, Control_c, 0, 67, 9
2,37090, Control_c, 0, 67, 0
2,37180, Note_on_c, 0, 61, 0
2,37191, Note_on_c, 0, 44, 71
2,37191, Note_on_c, 0, 46, 0
2,37202, Note_on_c, 0, 59, 75
2,37280, Note_on_c, 0, 44, 0
2,37304, Note_on_c, 0, 49, 68
2,37309, Note_on_c, 0, 59, 0
2,37330, Note_on_c, 0, 58, 71
2,37350, Note_on_c, 0, 66, 0
2,37375, Note_on_c, 0, 49, 0
2,37444, Note_on_c, 0, 47, 64
2,37461, Note_on_c, 0, 56, 77
2,37475, Note_on_c, 0, 58, 0
2,37479, Control_c, 0, 64, 19
2,37507, Note_on_c, 0, 47, 0
2,37514, Control_c, 0, 64, 20
2,37559, Note_on_c, 0, 56, 0
2,37578, Note_on_c, 0, 46, 67
2,37585, Note_on_c, 0, 54, 76
2,37660, Note_on_c, 0, 46, 0
2,37665, Note_on_c, 0, 54, 0
2,37667, Control_c, 0, 64, 19
2,37706, Control_c, 0, 64, 18
2,37723, Note_on_c, 0, 47, 65
2,37723, Note_on_c, 0, 62, 78
2,37723, Note_on_c, 0, 66, 77
2,37745, Control_c, 0, 64, 17
2,37765, Control_c, 0, 64, 16
2,37781, Control_c, 0, 64, 14
2,37803, Control_c, 0, 64, 12
2,37820, Control_c, 0, 64, 8
2,37842, Control_c, 0, 64, 0
2,37846, Note_on_c, 0, 47, 0
2,37851, Note_on_c, 0, 61, 77
2,37856, Note_on_c, 0, 49, 66
2,37871, Note_on_c, 0, 62, 0
2,37901, Note_on_c, 0, 49, 0
2,37984, Note_on_c, 0, 61, 0
2,37986, Note_on_c, 0, 59, 80
2,37990, Note_on_c, 0, 50, 72
2,38105, Note_on_c, 0, 58, 80
2,38109, Note_on_c, 0, 59, 0
2,38112, Note_on_c, 0, 50, 0
2,38131, Note_on_c, 0, 52, 73
2,38152, Note_on_c, 0, 66, 0
2,38205, Note_on_c, 0, 52, 0
2,38237, Note_on_c, 0, 59, 84
2,38244, Note_on_c, 0, 58, 0
2,38257, Note_on_c, 0, 50, 74
2,38364, Note_on_c, 0, 64, 83
2,38381, Note_on_c, 0, 50, 0
2,38381, Note_on_c, 0, 59, 0
2,38389, Note_on_c, 0, 55, 73
2,38513, Note_on_c, 0, 62, 88
2,38517, Note_on_c, 0, 54, 74
2,38517, Note_on_c, 0, 55, 0
2,38521, Note_on_c, 0, 64, 0
2,38603, Note_on_c, 0, 54, 0
2,38609, Control_c, 0, 64, 8
2,38627, Note_on_c, 0, 52, 74
2,38632, Control_c, 0, 64, 11
2,38641, Note_on_c, 0, 61, 89
2,38645, Control_c, 0, 64, 12
2,38656, Note_on_c, 0, 62, 0
2,38666, Control_c, 0, 64, 13
2,38684, Control_c, 0, 64, 14
2,38725, Control_c, 0, 64, 15
2,38762, Note_on_c, 0, 54, 76
2,38762, Note_on_c, 0, 61, 0
2,38775, Note_on_c, 0, 52, 0
2,38775, Note_on_c, 0, 62, 90
2,38839, Note_on_c, 0, 62, 0
2,38884, Note_on_c, 0, 54, 0
2,38892, Note_on_c, 0, 56, 76
2,38901, Note_on_c, 0, 74, 86
2,38935, Control_c, 0, 64, 14
2,38935, Note_on_c, 0, 56, 0
2,38973, Control_c, 0, 64, 13
2,39013, Note_on_c, 0, 57, 83
2,39034, Note_on_c, 0, 73, 88
2,39051, Control_c, 0, 64, 12
2,39087, Note_on_c, 0, 74, 0
2,39148, Note_on_c, 0, 57, 0
2,39154, Note_on_c, 0, 59, 79
2,39154, Note_on_c, 0, 71, 91
2,39189, Note_on_c, 0, 73, 0
2,39230, Note_on_c, 0, 59, 0
2,39286, Note_on_c, 0, 57, 83
2,39290, Note_on_c, 0, 73, 88
2,39293, Note_on_c, 0, 71, 0
2,39395, Control_c, 0, 64, 13
2,39404, Note_on_c, 0, 57, 0
2,39418, Note_on_c, 0, 68, 84
2,39423, Note_on_c, 0, 62, 81
2,39452, Note_on_c, 0, 73, 0
2,39472, Control_c, 0, 64, 14
2,39532, Note_on_c, 0, 69, 78
2,39541, Note_on_c, 0, 62, 0
2,39545, Note_on_c, 0, 68, 0
2,39550, Note_on_c, 0, 61, 77
2,39666, Note_on_c, 0, 61, 0
2,39666, Note_on_c, 0, 71, 78
2,39670, Note_on_c, 0, 59, 78
2,39677, Note_on_c, 0, 69, 0
2,39771, Note_on_c, 0, 71, 0
2,39791, Note_on_c, 0, 69, 80
2,39806, Note_on_c, 0, 61, 74
2,39813, Note_on_c, 0, 59, 0
2,39911, Note_on_c, 0, 61, 0
2,39918, Note_on_c, 0, 57, 78
2,39925, Note_on_c, 0, 73, 90
2,39967, Note_on_c, 0, 69, 0
2,40024, Note_on_c, 0, 57, 0
2,40052, Note_on_c, 0, 59, 79
2,40059, Note_on_c, 0, 74, 86
2,40096, Note_on_c, 0, 73, 0
2,40182, Note_on_c, 0, 76, 85
2,40190, Note_on_c, 0, 59, 0
2,40195, Note_on_c, 0, 61, 75
2,40300, Note_on_c, 0, 74, 0
2,40307, Note_on_c, 0, 61, 0
2,40311, Note_on_c, 0, 62, 74
2,40325, Note_on_c, 0, 78, 94
2,40348, Note_on_c, 0, 76, 0
2,40394, Control_c, 0, 64, 15
2,40433, Note_on_c, 0, 62, 0
2,40456, Note_on_c, 0, 76, 88
2,40499, Note_on_c, 0, 78, 0
2,40592, Note_on_c, 0, 71, 85
2,40592, Note_on_c, 0, 74, 81
2,40607, Note_on_c, 0, 76, 0
2,40724, Note_on_c, 0, 78, 91
2,40728, Note_on_c, 0, 74, 0
2,40738, Note_on_c, 0, 50, 61
2,40743, Note_on_c, 0, 71, 0
2,40844, Note_on_c, 0, 57, 79
2,40846, Note_on_c, 0, 76, 87
2,40848, Note_on_c, 0, 50, 0
2,40852, Note_on_c, 0, 73, 86
2,40855, Note_on_c, 0, 78, 0
2,40966, Note_on_c, 0, 57, 0
2,40982, Note_on_c, 0, 76, 0
2,40982, Note_on_c, 0, 79, 91
2,40994, Note_on_c, 0, 73, 0
2,41087, Control_c, 0, 64, 14
2,41106, Control_c, 0, 64, 13
2,41106, Note_on_c, 0, 78, 96
2,41143, Note_on_c, 0, 79, 0
2,41240, Control_c, 0, 64, 12
2,41244, Note_on_c, 0, 73, 91
2,41274, Note_on_c, 0, 58, 61
2,41363, Note_on_c, 0, 74, 83
2,41372, Control_c, 0, 64, 13
2,41385, Note_on_c, 0, 59, 71
2,41385, Note_on_c, 0, 73, 0
2,41397, Note_on_c, 0, 58, 0
2,41410, Control_c, 0, 64, 14
2,41450, Control_c, 0, 64, 15
2,41487, Control_c, 0, 64, 16
2,41491, Note_on_c, 0, 81, 94
2,41502, Note_on_c, 0, 78, 0
2,41507, Note_on_c, 0, 59, 0
2,41530, Note_on_c, 0, 74, 0
2,41626, Note_on_c, 0, 79, 91
2,41683, Note_on_c, 0, 81, 0
2,41763, Note_on_c, 0, 74, 79
2,41781, Note_on_c, 0, 47, 52
2,41872, Control_c, 0, 64, 17
2,41876, Note_on_c, 0, 47, 0
2,41890, Note_on_c, 0, 76, 84
2,41901, Note_on_c, 0, 48, 53
2,41910, Control_c, 0, 64, 18
2,41916, Note_on_c, 0, 74, 0
2,41951, Control_c, 0, 64, 19
2,41969, Control_c, 0, 64, 20
2,42027, Control_c, 0, 67, 8
2,42031, Note_on_c, 0, 83, 84
2,42046, Control_c, 0, 67, 13
2,42046, Note_on_c, 0, 79, 0
2,42055, Note_on_c, 0, 76, 0
2,42063, Control_c, 0, 67, 20
2,42085, Control_c, 0, 67, 25
2,42102, Control_c, 0, 67, 32
2,42121, Control_c, 0, 67, 41
2,42142, Control_c, 0, 67, 52
2,42158, Control_c, 0, 67, 63
2,42167, Note_on_c, 0, 81, 81
2,42179, Control_c, 0, 67, 71
2,42197, Control_c, 0, 67, 76
2,42210, Note_on_c, 0, 48, 0
2,42214, Note_on_c, 0, 83, 0
2,42218, Control_c, 0, 67, 79
2,42255, Control_c, 0, 67, 80
2,42276, Control_c, 0, 67, 82
2,42295, Control_c, 0, 67, 88
2,42295, Note_on_c, 0, 79, 88
2,42313, Control_c, 0, 67, 97
2,42320, Note_on_c, 0, 60, 57
2,42329, Note_on_c, 0, 81, 0
2,42333, Control_c, 0, 67, 105
2,42353, Control_c, 0, 67, 109
2,42371, Control_c, 0, 67, 110
2,42431, Note_on_c, 0, 60, 0
2,42431, Note_on_c, 0, 79, 0
2,42431, Note_on_c, 0, 81, 74
2,42442, Note_on_c, 0, 61, 55
2,42449, Control_c, 0, 67, 109
2,42524, Control_c, 0, 67, 108
2,42545, Control_c, 0, 67, 107
2,42565, Note_on_c, 0, 76, 78
2,42565, Note_on_c, 0, 81, 0
2,42584, Control_c, 0, 67, 106
2,42639, Control_c, 0, 67, 105
2,42699, Note_on_c, 0, 78, 79
2,42703, Note_on_c, 0, 61, 0
2,42703, Note_on_c, 0, 76, 0
2,42716, Control_c, 0, 67, 104
2,42814, Control_c, 0, 64, 19
2,42828, Note_on_c, 0, 79, 79
2,42836, Control_c, 0, 67, 103
2,42836, Note_on_c, 0, 78, 0
2,42845, Note_on_c, 0, 57, 55
2,42895, Note_on_c, 0, 57, 0
2,42954, Note_on_c, 0, 79, 0
2,42958, Note_on_c, 0, 78, 80
2,42971, Note_on_c, 0, 62, 59
2,43004, Control_c, 0, 64, 18
2,43044, Note_on_c, 0, 62, 0
2,43088, Note_on_c, 0, 76, 74
2,43102, Note_on_c, 0, 61, 58
2,43201, Control_c, 0, 67, 102
2,43201, Note_on_c, 0, 61, 0
2,43201, Note_on_c, 0, 76, 0
2,43230, Note_on_c, 0, 74, 66
2,43230, Note_on_c, 0, 78, 0
2,43230, Note_on_c, 0, 78, 33
2,43234, Note_on_c, 0, 59, 58
2,43300, Note_on_c, 0, 59, 0
2,43359, Note_on_c, 0, 74, 0
2,43368, Note_on_c, 0, 57, 60
2,43372, Note_on_c, 0, 73, 70
2,43434, Note_on_c, 0, 57, 0
2,43492, Note_on_c, 0, 74, 76
2,43497, Note_on_c, 0, 59, 59
2,43497, Note_on_c, 0, 73, 0
2,43542, Control_c, 0, 67, 101
2,43579, Control_c, 0, 67, 100
2,43599, Note_on_c, 0, 74, 0
2,43604, Note_on_c, 0, 59, 0
2,43620, Note_on_c, 0, 69, 65
2,43631, Note_on_c, 0, 54, 62
2,43638, Control_c, 0, 67, 99
2,43661, Control_c, 0, 67, 98
2,43676, Control_c, 0, 67, 97
2,43696, Control_c, 0, 67, 96
2,43709, Note_on_c, 0, 54, 0
2,43720, Control_c, 0, 67, 95
2,43738, Control_c, 0, 67, 94
2,43755, Control_c, 0, 64, 17
2,43755, Control_c, 0, 67, 93
2,43760, Note_on_c, 0, 71, 67
2,43769, Note_on_c, 0, 56, 66
2,43769, Note_on_c, 0, 69, 0
2,43773, Control_c, 0, 67, 92
2,43791, Control_c, 0, 67, 90
2,43811, Control_c, 0, 67, 88
2,43831, Control_c, 0, 67, 80
2,43849, Control_c, 0, 67, 69
2,43853, Note_on_c, 0, 78, 0
2,43869, Control_c, 0, 67, 57
2,43878, Note_on_c, 0, 73, 78
2,43887, Control_c, 0, 67, 47
2,43891, Note_on_c, 0, 57, 75
2,43898, Note_on_c, 0, 56, 0
2,43906, Control_c, 0, 67, 37
2,43910, Note_on_c, 0, 71, 0
2,43926, Control_c, 0, 67, 28
2,43945, Control_c, 0, 64, 16
2,43949, Control_c, 0, 67, 17
2,43965, Control_c, 0, 67, 0
2,43986, Control_c, 0, 64, 15
2,44006, Note_on_c, 0, 57, 0
2,44019, Note_on_c, 0, 71, 81
2,44027, Note_on_c, 0, 56, 76
2,44043, Control_c, 0, 64, 14
2,44064, Note_on_c, 0, 73, 0
2,44099, Control_c, 0, 64, 13
2,44145, Note_on_c, 0, 56, 0
2,44145, Note_on_c, 0, 57, 82
2,44149, Note_on_c, 0, 78, 89
2,44276, Note_on_c, 0, 76, 84
2,44281, Note_on_c, 0, 56, 70
2,44310, Note_on_c, 0, 57, 0
2,44317, Note_on_c, 0, 78, 0
2,44369, Note_on_c, 0, 71, 0
2,44373, Note_on_c, 0, 56, 0
2,44406, Note_on_c, 0, 54, 70
2,44417, Note_on_c, 0, 75, 84
2,44453, Note_on_c, 0, 76, 0
2,44524, Note_on_c, 0, 54, 0
2,44528, Note_on_c, 0, 56, 70
2,44547, Note_on_c, 0, 76, 89
2,44562, Note_on_c, 0, 75, 0
2,44618, Note_on_c, 0, 56, 0
2,44666, Note_on_c, 0, 71, 82
2,44670, Note_on_c, 0, 59, 67
2,44677, Note_on_c, 0, 76, 0
2,44781, Note_on_c, 0, 59, 0
2,44796, Note_on_c, 0, 57, 69
2,44802, Note_on_c, 0, 73, 89
2,44827, Note_on_c, 0, 71, 0
2,44910, Note_on_c, 0, 57, 0
2,44921, Note_on_c, 0, 56, 66
2,44930, Note_on_c, 0, 74, 85
2,44939, Note_on_c, 0, 73, 0
2,45001, Note_on_c, 0, 56, 0
2,45049, Note_on_c, 0, 57, 67
2,45053, Note_on_c, 0, 73, 85
2,45078, Note_on_c, 0, 74, 0
2,45168, Note_on_c, 0, 71, 82
2,45173, Note_on_c, 0, 57, 0
2,45179, Note_on_c, 0, 56, 70
2,45233, Control_c, 0, 64, 14
2,45235, Note_on_c, 0, 73, 0
2,45290, Control_c, 0, 64, 15
2,45290, Note_on_c, 0, 71, 0
2,45295, Note_on_c, 0, 73, 51
2,45300, Note_on_c, 0, 56, 0
2,45313, Note_on_c, 0, 54, 64
2,45313, Note_on_c, 0, 69, 67
2,45378, Note_on_c, 0, 54, 0
2,45438, Note_on_c, 0, 52, 63
2,45450, Note_on_c, 0, 69, 0
2,45462, Note_on_c, 0, 68, 72
2,45514, Note_on_c, 0, 52, 0
2,45559, Control_c, 0, 64, 16
2,45572, Note_on_c, 0, 54, 61
2,45581, Note_on_c, 0, 69, 73
2,45585, Note_on_c, 0, 68, 0
2,45663, Note_on_c, 0, 54, 0
2,45691, Note_on_c, 0, 69, 0
2,45712, Control_c, 0, 64, 17
2,45712, Note_on_c, 0, 49, 56
2,45726, Note_on_c, 0, 64, 70
2,45730, Control_c, 0, 64, 18
2,45783, Note_on_c, 0, 49, 0
2,45827, Control_c, 0, 64, 19
2,45833, Note_on_c, 0, 51, 63
2,45848, Control_c, 0, 64, 21
2,45848, Note_on_c, 0, 66, 66
2,45866, Control_c, 0, 64, 24
2,45871, Note_on_c, 0, 64, 0
2,45888, Control_c, 0, 64, 25
2,45907, Note_on_c, 0, 51, 0
2,45949, Note_on_c, 0, 66, 0
2,45949, Note_on_c, 0, 67, 70
2,45971, Note_on_c, 0, 52, 59
2,46009, Note_on_c, 0, 73, 0
2,46046, Note_on_c, 0, 52, 0
2,46089, Note_on_c, 0, 67, 0
2,46093, Note_on_c, 0, 51, 63
2,46093, Note_on_c, 0, 66, 72
2,46118, Control_c, 0, 64, 24
2,46152, Control_c, 0, 64, 23
2,46171, Control_c, 0, 64, 22
2,46180, Note_on_c, 0, 51, 0
2,46193, Control_c, 0, 64, 21
2,46213, Note_on_c, 0, 52, 61
2,46228, Control_c, 0, 64, 20
2,46233, Note_on_c, 0, 72, 77
2,46327, Control_c, 0, 64, 19
2,46352, Note_on_c, 0, 52, 0
2,46357, Note_on_c, 0, 51, 58
2,46357, Note_on_c, 0, 71, 73
2,46375, Note_on_c, 0, 72, 0
2,46405, Control_c, 0, 67, 8
2,46405, Note_on_c, 0, 66, 0
2,46421, Control_c, 0, 67, 10
2,46442, Control_c, 0, 67, 13
2,46446, Note_on_c, 0, 51, 0
2,46460, Control_c, 0, 67, 23
2,46480, Control_c, 0, 67, 36
2,46485, Note_on_c, 0, 70, 77
2,46485, Note_on_c, 0, 71, 0
2,46500, Control_c, 0, 67, 49
2,46500, Note_on_c, 0, 49, 57
2,46519, Control_c, 0, 67, 60
2,46541, Control_c, 0, 67, 69
2,46556, Control_c, 0, 67, 75
2,46575, Control_c, 0, 67, 79
2,46595, Control_c, 0, 67, 85
2,46599, Note_on_c, 0, 49, 0
2,46612, Note_on_c, 0, 51, 63
2,46616, Control_c, 0, 67, 91
2,46621, Note_on_c, 0, 71, 71
2,46624, Note_on_c, 0, 70, 0
2,46633, Control_c, 0, 67, 98
2,46651, Control_c, 0, 67, 107
2,46670, Control_c, 0, 67, 117
2,46675, Note_on_c, 0, 51, 0
2,46692, Control_c, 0, 67, 122
2,46709, Control_c, 0, 67, 124
2,46728, Control_c, 0, 67, 125
2,46732, Note_on_c, 0, 71, 0
2,46739, Note_on_c, 0, 66, 71
2,46745, Note_on_c, 0, 54, 59
2,46766, Control_c, 0, 67, 126
2,46787, Control_c, 0, 67, 127
2,46825, Note_on_c, 0, 54, 0
2,46867, Note_on_c, 0, 52, 54
2,46880, Note_on_c, 0, 66, 0
2,46880, Note_on_c, 0, 68, 67
2,46939, Note_on_c, 0, 52, 0
2,46986, Note_on_c, 0, 51, 55
2,46991, Note_on_c, 0, 68, 0
2,47003, Note_on_c, 0, 69, 62
2,47070, Note_on_c, 0, 51, 0
2,47129, Note_on_c, 0, 52, 56
2,47136, Note_on_c, 0, 68, 72
2,47136, Note_on_c, 0, 69, 0
2,47229, Control_c, 0, 64, 20
2,47229, Control_c, 0, 67, 126
2,47240, Note_on_c, 0, 52, 0
2,47248, Control_c, 0, 64, 23
2,47253, Note_on_c, 0, 59, 66
2,47268, Control_c, 0, 64, 26
2,47268, Control_c, 0, 67, 125
2,47285, Control_c, 0, 64, 32
2,47306, Control_c, 0, 64, 37
2,47306, Control_c, 0, 67, 124
2,47326, Control_c, 0, 64, 43
2,47326, Control_c, 0, 67, 123
2,47346, Control_c, 0, 64, 47
2,47346, Control_c, 0, 67, 121
2,47361, Note_on_c, 0, 59, 0
2,47364, Control_c, 0, 64, 52
2,47364, Control_c, 0, 67, 120
2,47368, Note_on_c, 0, 64, 58
2,47385, Control_c, 0, 64, 56
2,47385, Control_c, 0, 67, 118
2,47403, Control_c, 0, 64, 59
2,47403, Control_c, 0, 67, 117
2,47421, Control_c, 0, 67, 115
2,47439, Control_c, 0, 64, 60
2,47443, Control_c, 0, 67, 113
2,47459, Control_c, 0, 67, 112
2,47479, Control_c, 0, 67, 106
2,47483, Note_on_c, 0, 66, 68
2,47488, Note_on_c, 0, 64, 0
2,47492, Note_on_c, 0, 69, 65
2,47501, Control_c, 0, 67, 98
2,47501, Note_on_c, 0, 40, 45
2,47517, Control_c, 0, 64, 61
2,47517, Control_c, 0, 67, 86
2,47524, Note_on_c, 0, 68, 0
2,47535, Control_c, 0, 67, 73
2,47544, Note_on_c, 0, 66, 0
2,47551, Note_on_c, 0, 69, 0
2,47555, Control_c, 0, 64, 60
2,47558, Control_c, 0, 67, 59
2,47575, Control_c, 0, 64, 59
2,47575, Control_c, 0, 67, 47
2,47594, Control_c, 0, 64, 56
2,47594, Control_c, 0, 67, 37
2,47601, Note_on_c, 0, 40, 0
2,47618, Control_c, 0, 64, 51
2,47618, Control_c, 0, 67, 29
2,47618, Note_on_c, 0, 52, 71
2,47634, Note_on_c, 0, 71, 79
2,47639, Control_c, 0, 64, 44
2,47639, Control_c, 0, 67, 23
2,47641, Note_on_c, 0, 68, 78
2,47651, Control_c, 0, 64, 37
2,47651, Control_c, 0, 67, 19
2,47672, Control_c, 0, 64, 35
2,47672, Control_c, 0, 67, 16
2,47683, Note_on_c, 0, 52, 0
2,47690, Control_c, 0, 67, 15
2,47710, Control_c, 0, 64, 38
2,47710, Control_c, 0, 67, 13
2,47731, Control_c, 0, 64, 45
2,47731, Control_c, 0, 67, 11
2,47747, Control_c, 0, 64, 53
2,47751, Control_c, 0, 67, 8
2,47760, Note_on_c, 0, 66, 75
2,47767, Control_c, 0, 64, 56
2,47768, Control_c, 0, 67, 0
2,47779, Note_on_c, 0, 71, 0
2,47785, Control_c, 0, 64, 57
2,47804, Note_on_c, 0, 68, 0
2,47823, Control_c, 0, 64, 56
2,47861, Control_c, 0, 64, 55
2,47894, Note_on_c, 0, 64, 71
2,47901, Control_c, 0, 64, 54
2,47901, Note_on_c, 0, 66, 0
2,47920, Control_c, 0, 64, 53
2,47939, Control_c, 0, 64, 52
2,47957, Control_c, 0, 64, 50
2,47978, Control_c, 0, 64, 47
2,47995, Control_c, 0, 64, 43
2,47995, Note_on_c, 0, 64, 0
2,48015, Control_c, 0, 64, 40
2,48015, Note_on_c, 0, 73, 79
2,48020, Note_on_c, 0, 67, 68
2,48030, Note_on_c, 0, 46, 59
2,48034, Control_c, 0, 64, 37
2,48053, Control_c, 0, 64, 34
2,48074, Control_c, 0, 64, 31
2,48086, Note_on_c, 0, 46, 0
2,48095, Control_c, 0, 64, 29
2,48114, Control_c, 0, 64, 26
2,48133, Control_c, 0, 64, 23
2,48151, Note_on_c, 0, 74, 79
2,48153, Control_c, 0, 64, 22
2,48162, Note_on_c, 0, 47, 67
2,48166, Note_on_c, 0, 66, 80
2,48180, Note_on_c, 0, 67, 0
2,48184, Note_on_c, 0, 73, 0
2,48189, Control_c, 0, 64, 24
2,48209, Control_c, 0, 64, 32
2,48228, Control_c, 0, 64, 42
2,48245, Control_c, 0, 64, 51
2,48258, Note_on_c, 0, 66, 0
2,48266, Control_c, 0, 64, 54
2,48287, Control_c, 0, 64, 55
2,48298, Note_on_c, 0, 69, 78
2,48361, Control_c, 0, 64, 54
2,48382, Control_c, 0, 64, 52
2,48395, Note_on_c, 0, 74, 0
2,48402, Control_c, 0, 64, 49
2,48420, Note_on_c, 0, 68, 90
2,48425, Control_c, 0, 64, 45
2,48425, Note_on_c, 0, 69, 0
2,48438, Control_c, 0, 64, 41
2,48438, Note_on_c, 0, 47, 0
2,48456, Control_c, 0, 64, 39
2,48479, Control_c, 0, 64, 38
2,48497, Control_c, 0, 64, 37
2,48546, Note_on_c, 0, 59, 71
2,48557, Note_on_c, 0, 75, 83
2,48590, Note_on_c, 0, 59, 0
2,48611, Control_c, 0, 64, 38
2,48630, Control_c, 0, 64, 39
2,48648, Control_c, 0, 64, 40
2,48667, Control_c, 0, 64, 42
2,48680, Note_on_c, 0, 76, 85
2,48684, Note_on_c, 0, 60, 76
2,48688, Control_c, 0, 64, 45
2,48707, Control_c, 0, 64, 47
2,48725, Control_c, 0, 64, 49
2,48759, Note_on_c, 0, 75, 0
2,48774, Note_on_c, 0, 68, 0
2,48816, Note_on_c, 0, 71, 83
2,48859, Control_c, 0, 64, 48
2,48877, Note_on_c, 0, 76, 0
2,48898, Control_c, 0, 64, 47
2,48938, Control_c, 0, 64, 46
2,48938, Note_on_c, 0, 71, 0
2,48942, Note_on_c, 0, 69, 84
2,48988, Note_on_c, 0, 60, 0
2,49082, Note_on_c, 0, 77, 88
2,49107, Note_on_c, 0, 48, 56
2,49151, Note_on_c, 0, 69, 0
2,49185, Note_on_c, 0, 48, 0
2,49213, Note_on_c, 0, 78, 82
2,49220, Note_on_c, 0, 77, 0
2,49229, Note_on_c, 0, 50, 57
2,49259, Note_on_c, 0, 71, 10
2,49313, Note_on_c, 0, 71, 0
2,49324, Control_c, 0, 67, 8
2,49341, Control_c, 0, 67, 16
2,49365, Control_c, 0, 67, 26
2,49365, Note_on_c, 0, 73, 79
2,49379, Control_c, 0, 67, 41
2,49399, Control_c, 0, 67, 56
2,49417, Control_c, 0, 67, 71
2,49435, Control_c, 0, 67, 85
2,49455, Control_c, 0, 67, 95
2,49471, Note_on_c, 0, 71, 66
2,49475, Control_c, 0, 67, 103
2,49493, Control_c, 0, 67, 110
2,49513, Control_c, 0, 67, 119
2,49533, Control_c, 0, 67, 127
2,49563, Note_on_c, 0, 73, 0
2,49588, Note_on_c, 0, 50, 0
2,49596, Note_on_c, 0, 71, 0
2,49610, Note_on_c, 0, 69, 70
2,49630, Note_on_c, 0, 62, 67
2,49668, Note_on_c, 0, 62, 0
2,49697, Note_on_c, 0, 69, 0
2,49744, Note_on_c, 0, 71, 74
2,49764, Note_on_c, 0, 63, 75
2,49894, Note_on_c, 0, 66, 73
2,49909, Note_on_c, 0, 71, 0
2,50012, Note_on_c, 0, 68, 76
2,50017, Note_on_c, 0, 66, 0
2,50083, Note_on_c, 0, 68, 0
2,50112, Note_on_c, 0, 63, 0
2,50135, Note_on_c, 0, 69, 75
2,50139, Note_on_c, 0, 51, 56
2,50168, Control_c, 0, 64, 47
2,50184, Control_c, 0, 64, 49
2,50188, Note_on_c, 0, 51, 0
2,50204, Control_c, 0, 64, 52
2,50212, Note_on_c, 0, 69, 0
2,50223, Control_c, 0, 64, 55
2,50242, Control_c, 0, 64, 57
2,50262, Control_c, 0, 64, 58
2,50269, Note_on_c, 0, 52, 74
2,50269, Note_on_c, 0, 68, 79
2,50302, Control_c, 0, 64, 59
2,50306, Note_on_c, 0, 52, 0
2,50336, Note_on_c, 0, 68, 0
2,50376, Control_c, 0, 64, 58
2,50396, Control_c, 0, 64, 56
2,50416, Control_c, 0, 64, 54
2,50416, Note_on_c, 0, 69, 70
2,50416, Note_on_c, 0, 75, 77
2,50435, Control_c, 0, 64, 52
2,50453, Control_c, 0, 64, 49
2,50466, Note_on_c, 0, 78, 0
2,50475, Control_c, 0, 64, 45
2,50475, Control_c, 0, 67, 126
2,50492, Control_c, 0, 64, 42
2,50492, Control_c, 0, 67, 117
2,50513, Control_c, 0, 64, 40
2,50513, Control_c, 0, 67, 108
2,50534, Control_c, 0, 64, 37
2,50534, Control_c, 0, 67, 99
2,50534, Note_on_c, 0, 75, 0
2,50541, Note_on_c, 0, 69, 0
2,50545, Note_on_c, 0, 76, 84
2,50550, Note_on_c, 0, 68, 57
2,50554, Control_c, 0, 64, 34
2,50554, Control_c, 0, 67, 91
2,50568, Control_c, 0, 64, 31
2,50572, Control_c, 0, 67, 84
2,50572, Note_on_c, 0, 67, 61
2,50583, Note_on_c, 0, 68, 0
2,50590, Control_c, 0, 64, 29
2,50590, Control_c, 0, 67, 76
2,50608, Control_c, 0, 64, 27
2,50613, Control_c, 0, 67, 71
2,50629, Control_c, 0, 64, 26
2,50629, Control_c, 0, 67, 65
2,50633, Note_on_c, 0, 67, 0
2,50646, Control_c, 0, 67, 60
2,50670, Control_c, 0, 64, 25
2,50670, Control_c, 0, 67, 56
2,50674, Note_on_c, 0, 66, 73
2,50674, Note_on_c, 0, 76, 0
2,50674, Note_on_c, 0, 78, 78
2,50687, Control_c, 0, 64, 24
2,50687, Control_c, 0, 67, 54
2,50702, Control_c, 0, 67, 53
2,50779, Control_c, 0, 67, 54
2,50790, Note_on_c, 0, 76, 89
2,50801, Note_on_c, 0, 68, 80
2,50814, Note_on_c, 0, 78, 0
2,50819, Note_on_c, 0, 66, 0
2,50856, Control_c, 0, 67, 55
2,50882, Note_on_c, 0, 68, 0
2,50926, Note_on_c, 0, 63, 72
2,50931, Note_on_c, 0, 81, 79
2,50935, Note_on_c, 0, 76, 0
2,50973, Control_c, 0, 67, 56
2,51009, Control_c, 0, 67, 57
2,51030, Note_on_c, 0, 63, 0
2,51059, Note_on_c, 0, 64, 72
2,51067, Control_c, 0, 67, 58
2,51072, Note_on_c, 0, 80, 82
2,51076, Note_on_c, 0, 81, 0
2,51087, Control_c, 0, 67, 60
2,51127, Control_c, 0, 67, 61
2,51176, Note_on_c, 0, 64, 0
2,51180, Note_on_c, 0, 66, 72
2,51185, Control_c, 0, 67, 62
2,51192, Note_on_c, 0, 78, 81
2,51206, Note_on_c, 0, 80, 0
2,51221, Control_c, 0, 67, 63
2,51263, Control_c, 0, 67, 64
2,51285, Note_on_c, 0, 66, 0
2,51317, Note_on_c, 0, 64, 72
2,51323, Note_on_c, 0, 78, 0
2,51332, Note_on_c, 0, 80, 79
2,51403, Note_on_c, 0, 64, 0
2,51451, Control_c, 0, 64, 25
2,51456, Note_on_c, 0, 54, 59
2,51456, Note_on_c, 0, 78, 77
2,51470, Note_on_c, 0, 80, 0
2,51528, Note_on_c, 0, 54, 0
2,51541, Note_on_c, 0, 78, 0
2,51587, Note_on_c, 0, 56, 56
2,51587, Note_on_c, 0, 76, 72
2,51645, Control_c, 0, 67, 65
2,51661, Note_on_c, 0, 56, 0
2,51702, Control_c, 0, 64, 26
2,51711, Note_on_c, 0, 57, 55
2,51712, Note_on_c, 0, 76, 0
2,51716, Note_on_c, 0, 75, 67
2,51812, Note_on_c, 0, 57, 0
2,51827, Note_on_c, 0, 56, 54
2,51850, Note_on_c, 0, 75, 0
2,51855, Control_c, 0, 67, 64
2,51855, Note_on_c, 0, 76, 71
2,51925, Note_on_c, 0, 56, 0
2,51951, Note_on_c, 0, 76, 0
2,51963, Note_on_c, 0, 59, 57
2,51973, Note_on_c, 0, 71, 69
2,52030, Note_on_c, 0, 59, 0
2,52091, Note_on_c, 0, 57, 60
2,52104, Note_on_c, 0, 71, 0
2,52111, Note_on_c, 0, 73, 74
2,52147, Control_c, 0, 64, 27
2,52147, Control_c, 0, 67, 63
2,52158, Note_on_c, 0, 57, 0
2,52201, Control_c, 0, 64, 28
2,52220, Note_on_c, 0, 56, 64
2,52224, Note_on_c, 0, 73, 0
2,52235, Note_on_c, 0, 74, 67
2,52257, Control_c, 0, 64, 29
2,52299, Control_c, 0, 64, 30
2,52354, Control_c, 0, 67, 62
2,52365, Note_on_c, 0, 57, 68
2,52365, Note_on_c, 0, 73, 75
2,52369, Note_on_c, 0, 74, 0
2,52376, Note_on_c, 0, 56, 0
2,52394, Control_c, 0, 64, 31
2,52416, Control_c, 0, 67, 61
2,52442, Note_on_c, 0, 57, 0
2,52453, Control_c, 0, 64, 32
2,52453, Control_c, 0, 67, 60
2,52488, Control_c, 0, 67, 59
2,52492, Note_on_c, 0, 68, 79
2,52503, Note_on_c, 0, 62, 76
2,52511, Control_c, 0, 67, 58
2,52526, Control_c, 0, 67, 57
2,52536, Note_on_c, 0, 73, 0
2,52568, Control_c, 0, 67, 56
2,52587, Control_c, 0, 67, 55
2,52602, Control_c, 0, 67, 54
2,52616, Note_on_c, 0, 69, 80
2,52625, Control_c, 0, 64, 33
2,52625, Control_c, 0, 67, 52
2,52634, Note_on_c, 0, 61, 74
2,52640, Note_on_c, 0, 68, 0
2,52642, Note_on_c, 0, 62, 0
2,52646, Control_c, 0, 67, 47
2,52664, Control_c, 0, 67, 38
2,52679, Control_c, 0, 67, 26
2,52701, Control_c, 0, 67, 15
2,52719, Control_c, 0, 67, 0
2,52739, Note_on_c, 0, 61, 0
2,52743, Note_on_c, 0, 59, 76
2,52743, Note_on_c, 0, 71, 85
2,52771, Note_on_c, 0, 69, 0
2,52861, Note_on_c, 0, 59, 0
2,52879, Note_on_c, 0, 61, 75
2,52883, Note_on_c, 0, 69, 88
2,52883, Note_on_c, 0, 71, 0
2,52975, Note_on_c, 0, 61, 0
2,53001, Note_on_c, 0, 56, 73
2,53001, Note_on_c, 0, 74, 87
2,53034, Note_on_c, 0, 69, 0
2,53111, Note_on_c, 0, 56, 0
2,53122, Note_on_c, 0, 57, 75
2,53129, Note_on_c, 0, 73, 89
2,53164, Note_on_c, 0, 74, 0
2,53204, Note_on_c, 0, 57, 0
2,53247, Note_on_c, 0, 59, 63
2,53262, Note_on_c, 0, 71, 88
2,53295, Note_on_c, 0, 73, 0
2,53307, Note_on_c, 0, 59, 0
2,53386, Note_on_c, 0, 57, 70
2,53397, Note_on_c, 0, 73, 81
2,53404, Note_on_c, 0, 71, 0
2,53485, Note_on_c, 0, 57, 0
2,53521, Note_on_c, 0, 47, 60
2,53525, Note_on_c, 0, 71, 80
2,53563, Note_on_c, 0, 73, 0
2,53608, Note_on_c, 0, 71, 0
2,53649, Note_on_c, 0, 69, 71
2,53679, Note_on_c, 0, 47, 0
2,53684, Note_on_c, 0, 49, 52
2,53773, Note_on_c, 0, 49, 0
2,53786, Note_on_c, 0, 69, 0
2,53791, Note_on_c, 0, 68, 70
2,53809, Note_on_c, 0, 50, 50
2,53880, Note_on_c, 0, 50, 0
2,53913, Note_on_c, 0, 68, 0
2,53931, Note_on_c, 0, 69, 68
2,53936, Note_on_c, 0, 49, 58
2,53999, Note_on_c, 0, 49, 0
2,54029, Note_on_c, 0, 69, 0
2,54059, Note_on_c, 0, 64, 69
2,54070, Note_on_c, 0, 52, 63
2,54160, Note_on_c, 0, 64, 0
2,54178, Note_on_c, 0, 52, 0
2,54194, Note_on_c, 0, 66, 69
2,54198, Note_on_c, 0, 50, 62
2,54305, Note_on_c, 0, 50, 0
2,54316, Note_on_c, 0, 67, 73
2,54321, Control_c, 0, 64, 32
2,54321, Note_on_c, 0, 49, 62
2,54321, Note_on_c, 0, 66, 0
2,54413, Note_on_c, 0, 67, 0
2,54430, Note_on_c, 0, 49, 0
2,54448, Note_on_c, 0, 66, 76
2,54453, Note_on_c, 0, 50, 65
2,54569, Note_on_c, 0, 50, 0
2,54582, Note_on_c, 0, 69, 74
2,54584, Note_on_c, 0, 49, 70
2,54700, Note_on_c, 0, 49, 0
2,54720, Note_on_c, 0, 47, 66
2,54725, Note_on_c, 0, 71, 78
2,54762, Note_on_c, 0, 69, 0
2,54835, Note_on_c, 0, 47, 0
2,54839, Note_on_c, 0, 73, 82
2,54846, Note_on_c, 0, 45, 69
2,54940, Note_on_c, 0, 71, 0
2,54942, Note_on_c, 0, 45, 0
2,54974, Note_on_c, 0, 47, 68
2,54979, Note_on_c, 0, 74, 86
2,55016, Note_on_c, 0, 66, 0
2,55042, Note_on_c, 0, 73, 0
2,55084, Control_c, 0, 64, 33
2,55093, Note_on_c, 0, 47, 0
2,55111, Note_on_c, 0, 42, 73
2,55122, Note_on_c, 0, 69, 78
2,55229, Note_on_c, 0, 42, 0
2,55238, Control_c, 0, 64, 34
2,55242, Note_on_c, 0, 44, 80
2,55258, Control_c, 0, 64, 36
2,55258, Note_on_c, 0, 68, 86
2,55275, Control_c, 0, 64, 42
2,55292, Note_on_c, 0, 69, 0
2,55297, Control_c, 0, 64, 49
2,55312, Control_c, 0, 64, 53
2,55333, Control_c, 0, 64, 55
2,55384, Note_on_c, 0, 45, 75
2,55384, Note_on_c, 0, 66, 81
2,55400, Note_on_c, 0, 44, 0
2,55420, Note_on_c, 0, 68, 0
2,55449, Control_c, 0, 64, 54
2,55462, Note_on_c, 0, 66, 0
2,55469, Control_c, 0, 64, 53
2,55488, Control_c, 0, 64, 52
2,55529, Control_c, 0, 64, 51
2,55529, Note_on_c, 0, 44, 78
2,55529, Note_on_c, 0, 64, 90
2,55534, Note_on_c, 0, 45, 0
2,55544, Control_c, 0, 64, 50
2,55563, Control_c, 0, 64, 49
2,55567, Note_on_c, 0, 74, 0
2,55622, Control_c, 0, 64, 48
2,55641, Control_c, 0, 64, 46
2,55664, Control_c, 0, 64, 44
2,55664, Note_on_c, 0, 40, 66
2,55664, Note_on_c, 0, 44, 0
2,55664, Note_on_c, 0, 68, 85
2,55679, Control_c, 0, 64, 43
2,55688, Note_on_c, 0, 64, 0
2,55784, Note_on_c, 0, 42, 77
2,55790, Note_on_c, 0, 69, 81
2,55817, Note_on_c, 0, 40, 0
2,55821, Note_on_c, 0, 68, 0
2,55856, Control_c, 0, 64, 44
2,55889, Control_c, 0, 64, 45
2,55906, Note_on_c, 0, 44, 84
2,55914, Note_on_c, 0, 71, 81
2,55923, Note_on_c, 0, 42, 0
2,55940, Note_on_c, 0, 69, 0
2,55981, Control_c, 0, 64, 46
2,56020, Control_c, 0, 64, 47
2,56038, Note_on_c, 0, 45, 79
2,56042, Note_on_c, 0, 73, 88
2,56047, Note_on_c, 0, 71, 0
2,56083, Note_on_c, 0, 44, 0
2,56096, Control_c, 0, 64, 48
2,56136, Note_on_c, 0, 45, 0
2,56160, Note_on_c, 0, 47, 79
2,56183, Note_on_c, 0, 71, 81
2,56221, Note_on_c, 0, 73, 0
2,56230, Control_c, 0, 64, 47
2,56317, Note_on_c, 0, 49, 79
2,56321, Note_on_c, 0, 66, 83
2,56321, Note_on_c, 0, 69, 84
2,56329, Note_on_c, 0, 47, 0
2,56360, Note_on_c, 0, 71, 0
2,56456, Note_on_c, 0, 45, 70
2,56460, Control_c, 0, 64, 48
2,56464, Note_on_c, 0, 49, 0
2,56474, Note_on_c, 0, 73, 93
2,56490, Note_on_c, 0, 69, 0
2,56553, Note_on_c, 0, 66, 0
2,56602, Note_on_c, 0, 52, 80
2,56611, Note_on_c, 0, 68, 86
2,56611, Note_on_c, 0, 71, 87
2,56627, Note_on_c, 0, 73, 0
2,56752, Note_on_c, 0, 52, 0
2,56761, Note_on_c, 0, 45, 0
2,56761, Note_on_c, 0, 74, 90
2,56768, Note_on_c, 0, 71, 0
2,56788, Note_on_c, 0, 68, 0
2,56883, Control_c, 0, 64, 47
2,56910, Note_on_c, 0, 73, 92
2,56958, Note_on_c, 0, 74, 0
2,56961, Control_c, 0, 64, 46
2,57050, Note_on_c, 0, 68, 90
2,57061, Note_on_c, 0, 40, 65
2,57184, Note_on_c, 0, 69, 80
2,57204, Note_on_c, 0, 42, 78
2,57230, Control_c, 0, 64, 47
2,57235, Note_on_c, 0, 68, 0
2,57242, Note_on_c, 0, 40, 0
2,57268, Control_c, 0, 64, 48
2,57324, Control_c, 0, 64, 49
2,57337, Note_on_c, 0, 42, 0
2,57346, Control_c, 0, 64, 50
2,57353, Note_on_c, 0, 76, 94
2,57379, Note_on_c, 0, 73, 0
2,57384, Control_c, 0, 64, 51
2,57407, Note_on_c, 0, 69, 0
2,57422, Control_c, 0, 64, 52
2,57507, Note_on_c, 0, 74, 88
2,57548, Note_on_c, 0, 76, 0
2,57614, Note_on_c, 0, 54, 77
2,57652, Note_on_c, 0, 69, 84
2,57748, Control_c, 0, 64, 53
2,57773, Note_on_c, 0, 56, 72
2,57793, Note_on_c, 0, 71, 85
2,57821, Note_on_c, 0, 69, 0
2,57878, Note_on_c, 0, 54, 0
2,57949, Note_on_c, 0, 57, 75
2,57954, Note_on_c, 0, 78, 90
2,57978, Control_c, 0, 67, 8
2,57983, Note_on_c, 0, 74, 0
2,57991, Note_on_c, 0, 56, 0
2,58017, Note_on_c, 0, 71, 0
2,58094, Control_c, 0, 64, 52
2,58120, Note_on_c, 0, 76, 87
2,58124, Note_on_c, 0, 56, 81
2,58150, Note_on_c, 0, 57, 0
2,58154, Note_on_c, 0, 78, 0
2,58209, Control_c, 0, 64, 51
2,58229, Control_c, 0, 67, 9
2,58247, Control_c, 0, 64, 50
2,58269, Note_on_c, 0, 54, 79
2,58278, Note_on_c, 0, 74, 87
2,58298, Note_on_c, 0, 56, 0
2,58307, Control_c, 0, 64, 49
2,58323, Note_on_c, 0, 76, 0
2,58400, Control_c, 0, 64, 48
2,58438, Note_on_c, 0, 52, 79
2,58448, Note_on_c, 0, 54, 0
2,58448, Note_on_c, 0, 76, 87
2,58465, Note_on_c, 0, 74, 0
2,58536, Control_c, 0, 67, 8
2,58592, Control_c, 0, 67, 0
2,58612, Note_on_c, 0, 71, 88
2,58619, Note_on_c, 0, 50, 79
2,58635, Note_on_c, 0, 76, 0
2,58663, Note_on_c, 0, 52, 0
2,58801, Note_on_c, 0, 49, 75
2,58801, Note_on_c, 0, 73, 88
2,58845, Note_on_c, 0, 71, 0
2,58851, Note_on_c, 0, 50, 0
2,58975, Note_on_c, 0, 47, 71
2,58981, Note_on_c, 0, 49, 0
2,58981, Note_on_c, 0, 74, 85
2,59029, Note_on_c, 0, 73, 0
2,59203, Note_on_c, 0, 45, 73
2,59203, Note_on_c, 0, 73, 88
2,59208, Control_c, 0, 64, 47
2,59240, Note_on_c, 0, 47, 0
2,59247, Note_on_c, 0, 74, 0
2,59283, Control_c, 0, 64, 50
2,59302, Control_c, 0, 64, 54
2,59324, Control_c, 0, 64, 58
2,59341, Control_c, 0, 64, 61
2,59360, Control_c, 0, 64, 63
2,59379, Control_c, 0, 64, 65
2,59397, Control_c, 0, 64, 68
2,59418, Control_c, 0, 64, 76
2,59436, Control_c, 0, 64, 85
2,59451, Note_on_c, 0, 69, 82
2,59457, Control_c, 0, 64, 91
2,59474, Control_c, 0, 64, 93
2,59495, Control_c, 0, 64, 94
2,59532, Control_c, 0, 64, 95
2,59648, Control_c, 0, 64, 94
2,59665, Control_c, 0, 64, 91
2,59685, Control_c, 0, 64, 87
2,59705, Control_c, 0, 64, 77
2,59720, Note_on_c, 0, 50, 75
2,59720, Note_on_c, 0, 68, 88
2,59725, Control_c, 0, 64, 67
2,59743, Control_c, 0, 64, 57
2,59763, Control_c, 0, 64, 46
2,59783, Control_c, 0, 64, 37
2,59804, Note_on_c, 0, 73, 0
2,59821, Control_c, 0, 64, 43
2,59834, Note_on_c, 0, 45, 0
2,59841, Control_c, 0, 64, 55
2,59864, Control_c, 0, 64, 61
2,59864, Note_on_c, 0, 69, 0
2,59880, Control_c, 0, 64, 64
2,59898, Control_c, 0, 64, 67
2,59917, Control_c, 0, 64, 73
2,59936, Control_c, 0, 64, 88
2,59954, Control_c, 0, 64, 127
2,60015, Note_on_c, 0, 71, 88
2,60033, Note_on_c, 0, 66, 70
2,60075, Note_on_c, 0, 68, 0
2,60291, Note_on_c, 0, 71, 0
2,60404, Note_on_c, 0, 52, 72
2,60440, Note_on_c, 0, 69, 81
2,60445, Note_on_c, 0, 50, 0
2,60448, Note_on_c, 0, 64, 70
2,60487, Note_on_c, 0, 66, 0
2,60493, Control_c, 0, 64, 115
2,60512, Control_c, 0, 64, 91
2,60532, Control_c, 0, 64, 72
2,60548, Control_c, 0, 64, 63
2,60569, Control_c, 0, 64, 55
2,60588, Control_c, 0, 64, 50
2,60608, Control_c, 0, 64, 49
2,60653, Note_on_c, 0, 68, 85
2,60668, Control_c, 0, 64, 46
2,60686, Control_c, 0, 64, 43
2,60690, Note_on_c, 0, 69, 0
2,60706, Control_c, 0, 64, 40
2,60724, Control_c, 0, 64, 37
2,60741, Control_c, 0, 64, 35
2,60761, Control_c, 0, 64, 34
2,60781, Control_c, 0, 64, 32
2,60801, Control_c, 0, 64, 29
2,60808, Note_on_c, 0, 69, 79
2,60814, Note_on_c, 0, 68, 0
2,60819, Control_c, 0, 64, 25
2,60837, Control_c, 0, 64, 19
2,60854, Note_on_c, 0, 62, 67
2,60858, Control_c, 0, 64, 16
2,60877, Control_c, 0, 64, 15
2,60915, Control_c, 0, 64, 14
2,60928, Note_on_c, 0, 69, 0
2,60933, Note_on_c, 0, 68, 82
2,61034, Note_on_c, 0, 68, 0
2,61045, Note_on_c, 0, 69, 79
2,61140, Note_on_c, 0, 69, 0
2,61144, Note_on_c, 0, 68, 80
2,61218, Note_on_c, 0, 61, 61
2,61248, Note_on_c, 0, 68, 0
2,61254, Note_on_c, 0, 69, 74
2,61287, Note_on_c, 0, 62, 0
2,61318, Control_c, 0, 64, 15
2,61362, Note_on_c, 0, 68, 82
2,61373, Note_on_c, 0, 69, 0
2,61433, Control_c, 0, 64, 16
2,61498, Note_on_c, 0, 69, 76
2,61508, Note_on_c, 0, 68, 0
2,61531, Control_c, 0, 64, 17
2,61673, Note_on_c, 0, 68, 87
2,61726, Note_on_c, 0, 69, 0
2,62003, Note_on_c, 0, 59, 60
2,62115, Note_on_c, 0, 61, 0
2,62548, Control_c, 0, 64, 18
2,62593, Note_on_c, 0, 69, 77
2,62755, Note_on_c, 0, 68, 0
2,62813, Control_c, 0, 64, 19
2,62834, Control_c, 0, 64, 20
2,62852, Control_c, 0, 64, 22
2,62872, Control_c, 0, 64, 26
2,62890, Control_c, 0, 64, 31
2,62910, Control_c, 0, 64, 36
2,62928, Control_c, 0, 64, 41
2,62948, Control_c, 0, 64, 45
2,62966, Control_c, 0, 64, 50
2,62986, Control_c, 0, 64, 55
2,63004, Control_c, 0, 64, 60
2,63026, Control_c, 0, 64, 61
2,63043, Control_c, 0, 64, 62
2,63063, Control_c, 0, 64, 63
2,63080, Control_c, 0, 64, 65
2,63103, Control_c, 0, 64, 68
2,63119, Control_c, 0, 64, 73
2,63139, Control_c, 0, 64, 84
2,63157, Control_c, 0, 64, 99
2,63177, Control_c, 0, 64, 127
2,63214, Note_on_c, 0, 64, 0
2,63342, Note_on_c, 0, 69, 0
2,63783, Note_on_c, 0, 69, 80
2,63786, Note_on_c, 0, 45, 46
2,63786, Note_on_c, 0, 61, 62
2,63787, Note_on_c, 0, 59, 0
2,63893, Control_c, 0, 64, 97
2,63912, Control_c, 0, 64, 81
2,63931, Control_c, 0, 64, 72
2,63951, Control_c, 0, 64, 65
2,63969, Control_c, 0, 64, 59
2,63989, Control_c, 0, 64, 54
2,63998, Note_on_c, 0, 52, 0
2,64010, Control_c, 0, 64, 50
2,64030, Control_c, 0, 64, 49
2,64046, Control_c, 0, 64, 48
2,64066, Control_c, 0, 64, 47
2,64086, Control_c, 0, 64, 45
2,64106, Control_c, 0, 64, 44
2,64126, Control_c, 0, 64, 43
2,64142, Control_c, 0, 64, 42
2,64297, Control_c, 0, 64, 41
2,64335, Control_c, 0, 64, 40
2,64513, Control_c, 0, 64, 39
2,65784, Control_c, 0, 64, 40
2,66400, Control_c, 0, 64, 41
2,66860, Control_c, 0, 64, 42
2,66882, Note_on_c, 0, 69, 0
2,66894, Note_on_c, 0, 61, 0
2,66931, Note_on_c, 0, 45, 0
2,67859, Control_c, 0, 64, 43
2,67877, Control_c, 0, 64, 44
2,67878, End_track
0, 0, End_of_file
