0, 0, Header, 1, 2, 384
1, 0, Start_track
1, 0, Tempo, 500000
1, 0, Time_signature, 4, 2, 24, 8
1, 1, End_track
2, 0, Start_track
2, 0, Program_c, 0, 0
2, 753, Note_on_c, 0, 69, 80
2, 763, Note_on_c, 0, 45, 57
2, 818, Note_on_c, 0, 71, 72
2, 825, Note_on_c, 0, 69, 0
2, 913, Note_on_c, 0, 72, 69
2, 921, Note_on_c, 0, 71, 0
2, 969, Note_on_c, 0, 72, 0
2, 1081, Note_on_c, 0, 45, 0
2, 1104, Note_on_c, 0, 76, 73
2, 1167, Note_on_c, 0, 76, 0
2, 1292, Note_on_c, 0, 72, 78
2, 1296, Note_on_c, 0, 57, 62
2, 1354, Note_on_c, 0, 72, 0
2, 1363, Note_on_c, 0, 56, 70
2, 1363, Note_on_c, 0, 57, 0
2, 1448, Note_on_c, 0, 56, 0
2, 1455, Note_on_c, 0, 57, 70
2, 1457, Note_on_c, 0, 69, 81
2, 1510, Note_on_c, 0, 69, 0
2, 1526, Note_on_c, 0, 56, 68
2, 1527, Note_on_c, 0, 57, 0
2, 1617, Note_on_c, 0, 56, 0
2, 1621, Note_on_c, 0, 57, 77
2, 1626, Note_on_c, 0, 64, 76
2, 1685, Note_on_c, 0, 56, 71
2, 1687, Note_on_c, 0, 64, 0
2, 1693, Note_on_c, 0, 57, 0
2, 1785, Note_on_c, 0, 69, 87
2, 1791, Note_on_c, 0, 57, 94
2, 1800, Note_on_c, 0, 56, 0
2, 1841, Note_on_c, 0, 69, 0
2, 1860, Note_on_c, 0, 57, 0
2, 1970, Note_on_c, 0, 72, 82
2, 1973, Note_on_c, 0, 52, 75
2, 2024, Note_on_c, 0, 72, 0
2, 2046, Note_on_c, 0, 52, 0
2, 2156, Note_on_c, 0, 48, 72
2, 2156, Note_on_c, 0, 76, 79
2, 2197, Note_on_c, 0, 76, 0
2, 2227, Note_on_c, 0, 48, 0
2, 2342, Note_on_c, 0, 71, 87
2, 2353, Note_on_c, 0, 45, 65
2, 2420, Note_on_c, 0, 72, 78
2, 2439, Note_on_c, 0, 71, 0
2, 2513, Note_on_c, 0, 74, 70
2, 2533, Note_on_c, 0, 72, 0
2, 2579, Note_on_c, 0, 74, 0
2, 2667, Note_on_c, 0, 45, 0
2, 2693, Note_on_c, 0, 77, 79
2, 2767, Note_on_c, 0, 77, 0
2, 2876, Note_on_c, 0, 74, 81
2, 2885, Note_on_c, 0, 57, 60
2, 2935, Note_on_c, 0, 57, 0
2, 2952, Note_on_c, 0, 56, 69
2, 2954, Note_on_c, 0, 74, 0
2, 3022, Note_on_c, 0, 56, 0
2, 3035, Note_on_c, 0, 71, 81
2, 3036, Note_on_c, 0, 57, 71
2, 3096, Note_on_c, 0, 57, 0
2, 3099, Note_on_c, 0, 71, 0
2, 3103, Note_on_c, 0, 56, 72
2, 3187, Note_on_c, 0, 56, 0
2, 3200, Note_on_c, 0, 57, 78
2, 3204, Note_on_c, 0, 68, 82
2, 3265, Note_on_c, 0, 68, 0
2, 3270, Note_on_c, 0, 56, 79
2, 3278, Note_on_c, 0, 57, 0
2, 3368, Note_on_c, 0, 71, 88
2, 3373, Note_on_c, 0, 57, 93
2, 3384, Note_on_c, 0, 56, 0
2, 3439, Note_on_c, 0, 71, 0
2, 3442, Note_on_c, 0, 57, 0
2, 3544, Note_on_c, 0, 53, 77
2, 3548, Note_on_c, 0, 74, 87
2, 3613, Note_on_c, 0, 74, 0
2, 3615, Note_on_c, 0, 53, 0
2, 3732, Note_on_c, 0, 50, 74
2, 3735, Note_on_c, 0, 77, 90
2, 3781, Note_on_c, 0, 77, 0
2, 3799, Note_on_c, 0, 50, 0
2, 3913, Note_on_c, 0, 74, 93
2, 3915, Note_on_c, 0, 45, 75
2, 3995, Note_on_c, 0, 76, 82
2, 4024, Note_on_c, 0, 74, 0
2, 4085, Note_on_c, 0, 77, 82
2, 4104, Note_on_c, 0, 76, 0
2, 4157, Note_on_c, 0, 77, 0
2, 4263, Note_on_c, 0, 45, 0
2, 4263, Note_on_c, 0, 80, 82
2, 4345, Note_on_c, 0, 80, 0
2, 4445, Note_on_c, 0, 77, 89
2, 4462, Note_on_c, 0, 57, 67
2, 4512, Note_on_c, 0, 77, 0
2, 4526, Note_on_c, 0, 56, 73
2, 4526, Note_on_c, 0, 57, 0
2, 4609, Note_on_c, 0, 56, 0
2, 4615, Note_on_c, 0, 74, 84
2, 4617, Note_on_c, 0, 57, 73
2, 4678, Note_on_c, 0, 74, 0
2, 4683, Note_on_c, 0, 56, 72
2, 4683, Note_on_c, 0, 57, 0
2, 4776, Note_on_c, 0, 56, 0
2, 4783, Note_on_c, 0, 57, 78
2, 4785, Note_on_c, 0, 71, 86
2, 4852, Note_on_c, 0, 56, 76
2, 4863, Note_on_c, 0, 57, 0
2, 4863, Note_on_c, 0, 71, 0
2, 4948, Note_on_c, 0, 74, 92
2, 4952, Note_on_c, 0, 57, 91
2, 4959, Note_on_c, 0, 56, 0
2, 5025, Note_on_c, 0, 74, 0
2, 5027, Note_on_c, 0, 57, 0
2, 5136, Note_on_c, 0, 77, 92
2, 5137, Note_on_c, 0, 53, 81
2, 5214, Note_on_c, 0, 53, 0
2, 5223, Note_on_c, 0, 77, 0
2, 5311, Note_on_c, 0, 80, 86
2, 5321, Note_on_c, 0, 50, 76
2, 5379, Note_on_c, 0, 80, 0
2, 5430, Note_on_c, 0, 50, 0
2, 5504, Note_on_c, 0, 45, 64
2, 5512, Note_on_c, 0, 81, 84
2, 5725, Note_on_c, 0, 79, 72
2, 5771, Note_on_c, 0, 81, 0
2, 5793, Note_on_c, 0, 77, 70
2, 5845, Note_on_c, 0, 79, 0
2, 5861, Note_on_c, 0, 76, 69
2, 5881, Note_on_c, 0, 77, 0
2, 5920, Note_on_c, 0, 45, 0
2, 5934, Note_on_c, 0, 76, 0
2, 5942, Note_on_c, 0, 74, 68
2, 6027, Note_on_c, 0, 74, 0
2, 6034, Note_on_c, 0, 72, 63
2, 6126, Note_on_c, 0, 72, 0
2, 6226, Note_on_c, 0, 69, 68
2, 6315, Note_on_c, 0, 69, 0
2, 6395, Note_on_c, 0, 64, 67
2, 6464, Note_on_c, 0, 64, 0
2, 6577, Note_on_c, 0, 60, 67
2, 6663, Note_on_c, 0, 60, 0
2, 6744, Note_on_c, 0, 57, 73
2, 6811, Note_on_c, 0, 57, 0
2, 6913, Note_on_c, 0, 63, 80
2, 6961, Note_on_c, 0, 63, 0
2, 7093, Note_on_c, 0, 52, 72
2, 7106, Note_on_c, 0, 79, 75
2, 7111, Note_on_c, 0, 71, 67
2, 7111, Note_on_c, 0, 76, 67
2, 7171, Note_on_c, 0, 54, 76
2, 7218, Note_on_c, 0, 52, 0
2, 7270, Note_on_c, 0, 55, 81
2, 7281, Note_on_c, 0, 54, 0
2, 7291, Note_on_c, 0, 76, 0
2, 7342, Note_on_c, 0, 55, 0
2, 7361, Note_on_c, 0, 79, 0
2, 7452, Note_on_c, 0, 59, 81
2, 7519, Note_on_c, 0, 59, 0
2, 7544, Note_on_c, 0, 71, 0
2, 7621, Note_on_c, 0, 55, 86
2, 7641, Note_on_c, 0, 76, 68
2, 7682, Note_on_c, 0, 55, 0
2, 7706, Note_on_c, 0, 76, 0
2, 7707, Note_on_c, 0, 75, 72
2, 7780, Note_on_c, 0, 75, 0
2, 7792, Note_on_c, 0, 52, 77
2, 7792, Note_on_c, 0, 76, 62
2, 7856, Note_on_c, 0, 75, 72
2, 7859, Note_on_c, 0, 52, 0
2, 7863, Note_on_c, 0, 76, 0
2, 7961, Note_on_c, 0, 75, 0
2, 7964, Note_on_c, 0, 76, 73
2, 7966, Note_on_c, 0, 47, 77
2, 8040, Note_on_c, 0, 47, 0
2, 8041, Note_on_c, 0, 75, 77
2, 8046, Note_on_c, 0, 76, 0
2, 8130, Note_on_c, 0, 75, 0
2, 8141, Note_on_c, 0, 52, 85
2, 8147, Note_on_c, 0, 76, 78
2, 8217, Note_on_c, 0, 52, 0
2, 8236, Note_on_c, 0, 76, 0
2, 8243, Note_on_c, 0, 71, 79
2, 8330, Note_on_c, 0, 55, 88
2, 8336, Note_on_c, 0, 69, 76
2, 8337, Note_on_c, 0, 71, 0
2, 8384, Note_on_c, 0, 55, 0
2, 8398, Note_on_c, 0, 69, 0
2, 8411, Note_on_c, 0, 67, 81
2, 8476, Note_on_c, 0, 67, 0
2, 8487, Note_on_c, 0, 59, 88
2, 8500, Note_on_c, 0, 66, 74
2, 8569, Note_on_c, 0, 66, 0
2, 8572, Note_on_c, 0, 64, 77
2, 8575, Note_on_c, 0, 59, 0
2, 8659, Note_on_c, 0, 54, 85
2, 8678, Note_on_c, 0, 69, 88
2, 8679, Note_on_c, 0, 72, 88
2, 8736, Note_on_c, 0, 55, 81
2, 8801, Note_on_c, 0, 54, 0
2, 8841, Note_on_c, 0, 57, 88
2, 8851, Note_on_c, 0, 55, 0
2, 8926, Note_on_c, 0, 57, 0
2, 8979, Note_on_c, 0, 69, 0
2, 9036, Note_on_c, 0, 60, 88
2, 9063, Note_on_c, 0, 64, 0
2, 9110, Note_on_c, 0, 60, 0
2, 9213, Note_on_c, 0, 57, 86
2, 9224, Note_on_c, 0, 72, 0
2, 9268, Note_on_c, 0, 57, 0
2, 9290, Note_on_c, 0, 71, 79
2, 9359, Note_on_c, 0, 71, 0
2, 9378, Note_on_c, 0, 72, 80
2, 9387, Note_on_c, 0, 54, 80
2, 9448, Note_on_c, 0, 54, 0
2, 9458, Note_on_c, 0, 71, 81
2, 9461, Note_on_c, 0, 72, 0
2, 9558, Note_on_c, 0, 71, 0
2, 9558, Note_on_c, 0, 72, 83
2, 9561, Note_on_c, 0, 51, 80
2, 9636, Note_on_c, 0, 72, 0
2, 9638, Note_on_c, 0, 51, 0
2, 9638, Note_on_c, 0, 71, 77
2, 9699, Note_on_c, 0, 71, 0
2, 9737, Note_on_c, 0, 54, 88
2, 9739, Note_on_c, 0, 72, 81
2, 9793, Note_on_c, 0, 54, 0
2, 9820, Note_on_c, 0, 79, 71
2, 9821, Note_on_c, 0, 72, 0
2, 9912, Note_on_c, 0, 78, 77
2, 9920, Note_on_c, 0, 57, 89
2, 9945, Note_on_c, 0, 79, 0
2, 9968, Note_on_c, 0, 57, 0
2, 9997, Note_on_c, 0, 76, 68
2, 10026, Note_on_c, 0, 78, 0
2, 10067, Note_on_c, 0, 76, 0
2, 10072, Note_on_c, 0, 75, 77
2, 10087, Note_on_c, 0, 60, 85
2, 10111, Note_on_c, 0, 75, 0
2, 10151, Note_on_c, 0, 60, 0
2, 10161, Note_on_c, 0, 76, 71
2, 10192, Note_on_c, 0, 76, 0
2, 10253, Note_on_c, 0, 57, 90
2, 10253, Note_on_c, 0, 69, 81
2, 10256, Note_on_c, 0, 75, 75
2, 10263, Note_on_c, 0, 72, 82
2, 10268, Note_on_c, 0, 66, 85
2, 10333, Note_on_c, 0, 59, 85
2, 10377, Note_on_c, 0, 57, 0
2, 10432, Note_on_c, 0, 60, 91
2, 10441, Note_on_c, 0, 59, 0
2, 10480, Note_on_c, 0, 60, 0
2, 10510, Note_on_c, 0, 69, 0
2, 10516, Note_on_c, 0, 72, 0
2, 10569, Note_on_c, 0, 75, 0
2, 10627, Note_on_c, 0, 63, 89
2, 10696, Note_on_c, 0, 63, 0
2, 10800, Note_on_c, 0, 60, 88
2, 10825, Note_on_c, 0, 66, 0
2, 10857, Note_on_c, 0, 60, 0
2, 10880, Note_on_c, 0, 76, 72
2, 10965, Note_on_c, 0, 76, 0
2, 10969, Note_on_c, 0, 78, 77
2, 10978, Note_on_c, 0, 57, 80
2, 11046, Note_on_c, 0, 57, 0
2, 11055, Note_on_c, 0, 76, 73
2, 11061, Note_on_c, 0, 78, 0
2, 11138, Note_on_c, 0, 76, 0
2, 11150, Note_on_c, 0, 54, 78
2, 11152, Note_on_c, 0, 78, 75
2, 11215, Note_on_c, 0, 54, 0
2, 11221, Note_on_c, 0, 76, 74
2, 11235, Note_on_c, 0, 78, 0
2, 11307, Note_on_c, 0, 76, 0
2, 11329, Note_on_c, 0, 57, 85
2, 11336, Note_on_c, 0, 78, 79
2, 11381, Note_on_c, 0, 57, 0
2, 11411, Note_on_c, 0, 76, 69
2, 11430, Note_on_c, 0, 78, 0
2, 11497, Note_on_c, 0, 60, 87
2, 11502, Note_on_c, 0, 75, 75
2, 11529, Note_on_c, 0, 76, 0
2, 11562, Note_on_c, 0, 60, 0
2, 11593, Note_on_c, 0, 78, 79
2, 11608, Note_on_c, 0, 75, 0
2, 11673, Note_on_c, 0, 63, 90
2, 11679, Note_on_c, 0, 78, 0
2, 11683, Note_on_c, 0, 71, 81
2, 11744, Note_on_c, 0, 63, 0
2, 11754, Note_on_c, 0, 69, 82
2, 11756, Note_on_c, 0, 71, 0
2, 11819, Note_on_c, 0, 69, 0
2, 11849, Note_on_c, 0, 64, 91
2, 11855, Note_on_c, 0, 67, 90
2, 11910, Note_on_c, 0, 64, 0
2, 12044, Note_on_c, 0, 52, 73
2, 12109, Note_on_c, 0, 54, 75
2, 12164, Note_on_c, 0, 52, 0
2, 12208, Note_on_c, 0, 55, 80
2, 12274, Note_on_c, 0, 54, 0
2, 12285, Note_on_c, 0, 57, 82
2, 12310, Note_on_c, 0, 55, 0
2, 12376, Note_on_c, 0, 59, 80
2, 12388, Note_on_c, 0, 57, 0
2, 12394, Note_on_c, 0, 67, 0
2, 12566, Note_on_c, 0, 59, 0
2, 12575, Note_on_c, 0, 64, 64
2, 12661, Note_on_c, 0, 64, 0
2, 12736, Note_on_c, 0, 67, 65
2, 12813, Note_on_c, 0, 67, 0
2, 12925, Note_on_c, 0, 71, 66
2, 12998, Note_on_c, 0, 71, 0
2, 13099, Note_on_c, 0, 76, 57
2, 13147, Note_on_c, 0, 76, 0
2, 13277, Note_on_c, 0, 70, 59
2, 13311, Note_on_c, 0, 70, 0
2, 13475, Note_on_c, 0, 64, 52
2, 13477, Note_on_c, 0, 79, 58
2, 13478, Note_on_c, 0, 71, 53
2, 13484, Note_on_c, 0, 76, 52
2, 13534, Note_on_c, 0, 64, 0
2, 13548, Note_on_c, 0, 66, 57
2, 13621, Note_on_c, 0, 66, 0
2, 13634, Note_on_c, 0, 67, 64
2, 13653, Note_on_c, 0, 76, 0
2, 13661, Note_on_c, 0, 71, 0
2, 13686, Note_on_c, 0, 67, 0
2, 13830, Note_on_c, 0, 71, 67
2, 13894, Note_on_c, 0, 71, 0
2, 13998, Note_on_c, 0, 67, 69
2, 14039, Note_on_c, 0, 67, 0
2, 14041, Note_on_c, 0, 79, 0
2, 14089, Note_on_c, 0, 78, 63
2, 14163, Note_on_c, 0, 78, 0
2, 14177, Note_on_c, 0, 64, 61
2, 14177, Note_on_c, 0, 79, 59
2, 14211, Note_on_c, 0, 64, 0
2, 14242, Note_on_c, 0, 79, 0
2, 14265, Note_on_c, 0, 78, 64
2, 14350, Note_on_c, 0, 78, 0
2, 14362, Note_on_c, 0, 59, 63
2, 14368, Note_on_c, 0, 79, 60
2, 14409, Note_on_c, 0, 59, 0
2, 14426, Note_on_c, 0, 79, 0
2, 14444, Note_on_c, 0, 78, 67
2, 14524, Note_on_c, 0, 61, 66
2, 14525, Note_on_c, 0, 78, 0
2, 14537, Note_on_c, 0, 79, 67
2, 14584, Note_on_c, 0, 61, 0
2, 14601, Note_on_c, 0, 77, 71
2, 14627, Note_on_c, 0, 79, 0
2, 14685, Note_on_c, 0, 77, 0
2, 14688, Note_on_c, 0, 76, 68
2, 14692, Note_on_c, 0, 64, 72
2, 14727, Note_on_c, 0, 64, 0
2, 14735, Note_on_c, 0, 76, 0
2, 14767, Note_on_c, 0, 74, 71
2, 14837, Note_on_c, 0, 74, 0
2, 14858, Note_on_c, 0, 69, 76
2, 14862, Note_on_c, 0, 73, 66
2, 14913, Note_on_c, 0, 69, 0
2, 14934, Note_on_c, 0, 73, 0
2, 14937, Note_on_c, 0, 71, 66
2, 14972, Note_on_c, 0, 71, 0
2, 15032, Note_on_c, 0, 62, 82
2, 15038, Note_on_c, 0, 77, 79
2, 15039, Note_on_c, 0, 69, 69
2, 15052, Note_on_c, 0, 74, 67
2, 15108, Note_on_c, 0, 64, 82
2, 15141, Note_on_c, 0, 62, 0
2, 15207, Note_on_c, 0, 64, 0
2, 15207, Note_on_c, 0, 65, 80
2, 15261, Note_on_c, 0, 69, 0
2, 15276, Note_on_c, 0, 65, 0
2, 15313, Note_on_c, 0, 74, 0
2, 15384, Note_on_c, 0, 69, 82
2, 15466, Note_on_c, 0, 69, 0
2, 15558, Note_on_c, 0, 65, 87
2, 15586, Note_on_c, 0, 77, 0
2, 15620, Note_on_c, 0, 65, 0
2, 15643, Note_on_c, 0, 76, 70
2, 15727, Note_on_c, 0, 76, 0
2, 15734, Note_on_c, 0, 62, 78
2, 15738, Note_on_c, 0, 77, 74
2, 15796, Note_on_c, 0, 62, 0
2, 15814, Note_on_c, 0, 76, 75
2, 15814, Note_on_c, 0, 77, 0
2, 15917, Note_on_c, 0, 76, 0
2, 15917, Note_on_c, 0, 77, 78
2, 15922, Note_on_c, 0, 57, 83
2, 15988, Note_on_c, 0, 57, 0
2, 15992, Note_on_c, 0, 76, 69
2, 16004, Note_on_c, 0, 77, 0
2, 16090, Note_on_c, 0, 59, 82
2, 16090, Note_on_c, 0, 76, 0
2, 16096, Note_on_c, 0, 77, 80
2, 16143, Note_on_c, 0, 59, 0
2, 16173, Note_on_c, 0, 76, 69
2, 16209, Note_on_c, 0, 77, 0
2, 16251, Note_on_c, 0, 74, 74
2, 16258, Note_on_c, 0, 62, 70
2, 16276, Note_on_c, 0, 76, 0
2, 16289, Note_on_c, 0, 62, 0
2, 16333, Note_on_c, 0, 74, 0
2, 16339, Note_on_c, 0, 72, 75
2, 16406, Note_on_c, 0, 72, 0
2, 16419, Note_on_c, 0, 67, 70
2, 16419, Note_on_c, 0, 71, 74
2, 16453, Note_on_c, 0, 67, 0
2, 16478, Note_on_c, 0, 71, 0
2, 16499, Note_on_c, 0, 69, 73
2, 16534, Note_on_c, 0, 69, 0
2, 16580, Note_on_c, 0, 60, 78
2, 16584, Note_on_c, 0, 76, 78
2, 16592, Note_on_c, 0, 72, 72
2, 16594, Note_on_c, 0, 67, 68
2, 16661, Note_on_c, 0, 62, 76
2, 16671, Note_on_c, 0, 60, 0
2, 16753, Note_on_c, 0, 62, 0
2, 16759, Note_on_c, 0, 64, 73
2, 16812, Note_on_c, 0, 64, 0
2, 16823, Note_on_c, 0, 67, 0
2, 16856, Note_on_c, 0, 72, 0
2, 16943, Note_on_c, 0, 67, 64
2, 17002, Note_on_c, 0, 67, 0
2, 17108, Note_on_c, 0, 64, 73
2, 17137, Note_on_c, 0, 76, 0
2, 17151, Note_on_c, 0, 64, 0
2, 17194, Note_on_c, 0, 74, 65
2, 17274, Note_on_c, 0, 74, 0
2, 17282, Note_on_c, 0, 60, 72
2, 17287, Note_on_c, 0, 76, 68
2, 17333, Note_on_c, 0, 60, 0
2, 17360, Note_on_c, 0, 76, 0
2, 17362, Note_on_c, 0, 74, 74
2, 17456, Note_on_c, 0, 74, 0
2, 17456, Note_on_c, 0, 76, 78
2, 17462, Note_on_c, 0, 55, 79
2, 17527, Note_on_c, 0, 55, 0
2, 17532, Note_on_c, 0, 74, 73
2, 17555, Note_on_c, 0, 76, 0
2, 17599, Note_on_c, 0, 74, 0
2, 17630, Note_on_c, 0, 57, 80
2, 17630, Note_on_c, 0, 72, 82
2, 17683, Note_on_c, 0, 57, 0
2, 17710, Note_on_c, 0, 79, 77
2, 17718, Note_on_c, 0, 72, 0
2, 17798, Note_on_c, 0, 77, 80
2, 17800, Note_on_c, 0, 60, 75
2, 17838, Note_on_c, 0, 60, 0
2, 17844, Note_on_c, 0, 79, 0
2, 17870, Note_on_c, 0, 76, 77
2, 17933, Note_on_c, 0, 77, 0
2, 17958, Note_on_c, 0, 74, 81
2, 17973, Note_on_c, 0, 65, 78
2, 17974, Note_on_c, 0, 76, 0
2, 18035, Note_on_c, 0, 74, 0
2, 18037, Note_on_c, 0, 72, 80
2, 18039, Note_on_c, 0, 65, 0
2, 18097, Note_on_c, 0, 72, 0
2, 18132, Note_on_c, 0, 71, 82
2, 18138, Note_on_c, 0, 55, 67
2, 18160, Note_on_c, 0, 57, 47
2, 18198, Note_on_c, 0, 57, 0
2, 18214, Note_on_c, 0, 55, 0
2, 18220, Note_on_c, 0, 76, 76
2, 18221, Note_on_c, 0, 71, 0
2, 18305, Note_on_c, 0, 59, 73
2, 18311, Note_on_c, 0, 74, 78
2, 18367, Note_on_c, 0, 76, 0
2, 18374, Note_on_c, 0, 59, 0
2, 18381, Note_on_c, 0, 72, 79
2, 18452, Note_on_c, 0, 74, 0
2, 18467, Note_on_c, 0, 62, 64
2, 18467, Note_on_c, 0, 71, 81
2, 18485, Note_on_c, 0, 72, 0
2, 18537, Note_on_c, 0, 69, 81
2, 18538, Note_on_c, 0, 62, 0
2, 18542, Note_on_c, 0, 71, 0
2, 18599, Note_on_c, 0, 69, 0
2, 18631, Note_on_c, 0, 67, 85
2, 18641, Note_on_c, 0, 65, 79
2, 18714, Note_on_c, 0, 72, 82
2, 18718, Note_on_c, 0, 65, 0
2, 18720, Note_on_c, 0, 67, 0
2, 18805, Note_on_c, 0, 71, 78
2, 18806, Note_on_c, 0, 62, 73
2, 18872, Note_on_c, 0, 62, 0
2, 18881, Note_on_c, 0, 72, 0
2, 18883, Note_on_c, 0, 69, 81
2, 18967, Note_on_c, 0, 71, 0
2, 18979, Note_on_c, 0, 67, 82
2, 18984, Note_on_c, 0, 59, 73
2, 19000, Note_on_c, 0, 69, 0
2, 19048, Note_on_c, 0, 65, 80
2, 19050, Note_on_c, 0, 59, 0
2, 19055, Note_on_c, 0, 67, 0
2, 19110, Note_on_c, 0, 65, 0
2, 19142, Note_on_c, 0, 55, 75
2, 19146, Note_on_c, 0, 64, 81
2, 19215, Note_on_c, 0, 69, 82
2, 19220, Note_on_c, 0, 55, 0
2, 19220, Note_on_c, 0, 64, 0
2, 19306, Note_on_c, 0, 67, 79
2, 19325, Note_on_c, 0, 59, 67
2, 19367, Note_on_c, 0, 69, 0
2, 19370, Note_on_c, 0, 59, 0
2, 19385, Note_on_c, 0, 65, 80
2, 19448, Note_on_c, 0, 67, 0
2, 19478, Note_on_c, 0, 64, 81
2, 19490, Note_on_c, 0, 65, 0
2, 19492, Note_on_c, 0, 55, 64
2, 19532, Note_on_c, 0, 55, 0
2, 19550, Note_on_c, 0, 62, 80
2, 19551, Note_on_c, 0, 64, 0
2, 19600, Note_on_c, 0, 62, 0
2, 19645, Note_on_c, 0, 64, 89
2, 19657, Note_on_c, 0, 60, 81
2, 19734, Note_on_c, 0, 64, 0
2, 19736, Note_on_c, 0, 65, 85
2, 19819, Note_on_c, 0, 67, 89
2, 19828, Note_on_c, 0, 65, 0
2, 19890, Note_on_c, 0, 67, 0
2, 20003, Note_on_c, 0, 72, 81
2, 20077, Note_on_c, 0, 72, 0
2, 20116, Note_on_c, 0, 60, 0
2, 20171, Note_on_c, 0, 67, 88
2, 20250, Note_on_c, 0, 67, 0
2, 20254, Note_on_c, 0, 57, 75
2, 20313, Note_on_c, 0, 57, 0
2, 20329, Note_on_c, 0, 55, 78
2, 20341, Note_on_c, 0, 64, 82
2, 20408, Note_on_c, 0, 55, 0
2, 20409, Note_on_c, 0, 53, 78
2, 20412, Note_on_c, 0, 64, 0
2, 20504, Note_on_c, 0, 52, 78
2, 20513, Note_on_c, 0, 53, 0
2, 20513, Note_on_c, 0, 60, 82
2, 20585, Note_on_c, 0, 50, 76
2, 20589, Note_on_c, 0, 60, 0
2, 20593, Note_on_c, 0, 52, 0
2, 20676, Note_on_c, 0, 48, 79
2, 20680, Note_on_c, 0, 50, 0
2, 20682, Note_on_c, 0, 64, 86
2, 20754, Note_on_c, 0, 50, 65
2, 20764, Note_on_c, 0, 64, 0
2, 20837, Note_on_c, 0, 52, 76
2, 20852, Note_on_c, 0, 67, 80
2, 20871, Note_on_c, 0, 50, 0
2, 20914, Note_on_c, 0, 67, 0
2, 20922, Note_on_c, 0, 53, 81
2, 20940, Note_on_c, 0, 52, 0
2, 20965, Control_c, 0, 64, 9
2, 20980, Control_c, 0, 64, 12
2, 20996, Control_c, 0, 64, 13
2, 21002, Note_on_c, 0, 55, 82
2, 21011, Note_on_c, 0, 53, 0
2, 21011, Note_on_c, 0, 72, 82
2, 21027, Control_c, 0, 64, 15
2, 21060, Note_on_c, 0, 72, 0
2, 21074, Note_on_c, 0, 52, 78
2, 21095, Note_on_c, 0, 55, 0
2, 21178, Note_on_c, 0, 57, 88
2, 21183, Note_on_c, 0, 65, 86
2, 21188, Note_on_c, 0, 52, 0
2, 21208, Control_c, 0, 64, 13
2, 21224, Control_c, 0, 64, 9
2, 21246, Control_c, 0, 64, 0
2, 21264, Note_on_c, 0, 67, 77
2, 21294, Note_on_c, 0, 65, 0
2, 21354, Note_on_c, 0, 69, 80
2, 21393, Note_on_c, 0, 67, 0
2, 21427, Note_on_c, 0, 69, 0
2, 21546, Note_on_c, 0, 72, 80
2, 21565, Note_on_c, 0, 48, 0
2, 21616, Note_on_c, 0, 72, 0
2, 21713, Note_on_c, 0, 69, 85
2, 21787, Note_on_c, 0, 57, 0
2, 21788, Note_on_c, 0, 48, 72
2, 21798, Note_on_c, 0, 69, 0
2, 21877, Note_on_c, 0, 50, 71
2, 21891, Note_on_c, 0, 65, 81
2, 21959, Note_on_c, 0, 52, 66
2, 21970, Note_on_c, 0, 65, 0
2, 22018, Note_on_c, 0, 50, 0
2, 22060, Note_on_c, 0, 60, 81
2, 22064, Note_on_c, 0, 53, 79
2, 22080, Note_on_c, 0, 52, 0
2, 22136, Note_on_c, 0, 53, 0
2, 22137, Note_on_c, 0, 55, 78
2, 22145, Note_on_c, 0, 60, 0
2, 22224, Note_on_c, 0, 57, 83
2, 22232, Note_on_c, 0, 55, 0
2, 22233, Note_on_c, 0, 65, 86
2, 22305, Note_on_c, 0, 55, 77
2, 22308, Note_on_c, 0, 57, 0
2, 22314, Note_on_c, 0, 65, 0
2, 22379, Note_on_c, 0, 53, 81
2, 22384, Note_on_c, 0, 55, 0
2, 22395, Note_on_c, 0, 69, 86
2, 22408, Note_on_c, 0, 48, 0
2, 22452, Note_on_c, 0, 52, 78
2, 22471, Control_c, 0, 64, 9
2, 22477, Note_on_c, 0, 53, 0
2, 22477, Note_on_c, 0, 69, 0
2, 22486, Control_c, 0, 64, 17
2, 22500, Control_c, 0, 64, 21
2, 22516, Control_c, 0, 64, 24
2, 22531, Control_c, 0, 64, 27
2, 22536, Note_on_c, 0, 50, 73
2, 22547, Control_c, 0, 64, 31
2, 22552, Note_on_c, 0, 72, 84
2, 22554, Note_on_c, 0, 52, 0
2, 22562, Control_c, 0, 64, 34
2, 22578, Control_c, 0, 64, 37
2, 22594, Control_c, 0, 64, 38
2, 22606, Note_on_c, 0, 48, 72
2, 22609, Note_on_c, 0, 72, 0
2, 22625, Note_on_c, 0, 50, 0
2, 22703, Note_on_c, 0, 50, 85
2, 22711, Note_on_c, 0, 71, 92
2, 22760, Control_c, 0, 64, 37
2, 22784, Control_c, 0, 64, 36
2, 22799, Control_c, 0, 64, 35
2, 22800, Note_on_c, 0, 72, 86
2, 22813, Control_c, 0, 64, 34
2, 22828, Note_on_c, 0, 71, 0
2, 22844, Control_c, 0, 64, 34
2, 22858, Control_c, 0, 64, 33
2, 22890, Note_on_c, 0, 74, 83
2, 22929, Note_on_c, 0, 72, 0
2, 22964, Note_on_c, 0, 74, 0
2, 22977, Note_on_c, 0, 48, 0
2, 23081, Note_on_c, 0, 77, 88
2, 23102, Control_c, 0, 64, 34
2, 23156, Note_on_c, 0, 77, 0
2, 23194, Control_c, 0, 64, 34
2, 23239, Control_c, 0, 64, 35
2, 23240, Note_on_c, 0, 50, 0
2, 23242, Note_on_c, 0, 47, 71
2, 23246, Note_on_c, 0, 74, 90
2, 23254, Control_c, 0, 64, 35
2, 23284, Control_c, 0, 64, 36
2, 23319, Note_on_c, 0, 52, 78
2, 23327, Note_on_c, 0, 74, 0
2, 23329, Note_on_c, 0, 47, 0
2, 23330, Control_c, 0, 64, 36
2, 23409, Note_on_c, 0, 52, 0
2, 23419, Note_on_c, 0, 50, 80
2, 23419, Note_on_c, 0, 71, 91
2, 23467, Control_c, 0, 64, 37
2, 23502, Note_on_c, 0, 48, 77
2, 23506, Note_on_c, 0, 50, 0
2, 23508, Note_on_c, 0, 71, 0
2, 23594, Note_on_c, 0, 67, 87
2, 23597, Note_on_c, 0, 47, 82
2, 23610, Note_on_c, 0, 48, 0
2, 23626, Control_c, 0, 64, 37
2, 23684, Note_on_c, 0, 67, 0
2, 23685, Note_on_c, 0, 45, 73
2, 23689, Note_on_c, 0, 47, 0
2, 23757, Note_on_c, 0, 71, 93
2, 23768, Note_on_c, 0, 43, 81
2, 23773, Note_on_c, 0, 45, 0
2, 23839, Note_on_c, 0, 71, 0
2, 23851, Note_on_c, 0, 45, 73
2, 23860, Note_on_c, 0, 43, 0
2, 23925, Note_on_c, 0, 74, 91
2, 23931, Note_on_c, 0, 45, 0
2, 23940, Note_on_c, 0, 43, 80
2, 23945, Control_c, 0, 64, 38
2, 23975, Control_c, 0, 64, 38
2, 23992, Note_on_c, 0, 74, 0
2, 24019, Note_on_c, 0, 41, 82
2, 24028, Note_on_c, 0, 43, 0
2, 24096, Control_c, 0, 64, 39
2, 24104, Note_on_c, 0, 77, 90
2, 24114, Note_on_c, 0, 40, 81
2, 24136, Note_on_c, 0, 41, 0
2, 24160, Note_on_c, 0, 77, 0
2, 24191, Note_on_c, 0, 38, 74
2, 24215, Note_on_c, 0, 40, 0
2, 24281, Note_on_c, 0, 76, 92
2, 24288, Note_on_c, 0, 36, 81
2, 24316, Note_on_c, 0, 38, 0
2, 24317, Control_c, 0, 64, 38
2, 24331, Control_c, 0, 64, 37
2, 24345, Control_c, 0, 64, 37
2, 24378, Note_on_c, 0, 74, 80
2, 24397, Note_on_c, 0, 36, 0
2, 24421, Control_c, 0, 64, 36
2, 24447, Note_on_c, 0, 72, 80
2, 24518, Note_on_c, 0, 74, 0
2, 24535, Note_on_c, 0, 71, 74
2, 24541, Note_on_c, 0, 72, 0
2, 24627, Note_on_c, 0, 72, 75
2, 24636, Note_on_c, 0, 71, 0
2, 24650, Control_c, 0, 64, 36
2, 24665, Control_c, 0, 64, 35
2, 24699, Note_on_c, 0, 67, 76
2, 24711, Control_c, 0, 64, 35
2, 24756, Control_c, 0, 64, 34
2, 24783, Note_on_c, 0, 64, 72
2, 24861, Note_on_c, 0, 64, 0
2, 24867, Note_on_c, 0, 62, 66
2, 24946, Note_on_c, 0, 62, 0
2, 24952, Note_on_c, 0, 60, 62
2, 25014, Note_on_c, 0, 60, 0
2, 25029, Note_on_c, 0, 59, 62
2, 25086, Note_on_c, 0, 59, 0
2, 25131, Note_on_c, 0, 60, 64
2, 25191, Note_on_c, 0, 60, 0
2, 25203, Note_on_c, 0, 55, 66
2, 25279, Note_on_c, 0, 55, 0
2, 25294, Note_on_c, 0, 52, 62
2, 25337, Note_on_c, 0, 52, 0
2, 25375, Note_on_c, 0, 55, 54
2, 25411, Note_on_c, 0, 76, 0
2, 25414, Note_on_c, 0, 67, 0
2, 25426, Note_on_c, 0, 55, 0
2, 25442, Note_on_c, 0, 72, 0
2, 25447, Note_on_c, 0, 53, 59
2, 25512, Note_on_c, 0, 53, 0
2, 25532, Note_on_c, 0, 52, 57
2, 25582, Note_on_c, 0, 52, 0
2, 25618, Note_on_c, 0, 50, 46
2, 25662, Note_on_c, 0, 50, 0
2, 25692, Note_on_c, 0, 48, 51
2, 25744, Note_on_c, 0, 48, 0
2, 25781, Note_on_c, 0, 54, 53
2, 25782, Note_on_c, 0, 75, 60
2, 25815, Note_on_c, 0, 54, 0
2, 25876, Note_on_c, 0, 69, 54
2, 25970, Note_on_c, 0, 69, 0
2, 25972, Note_on_c, 0, 54, 37
2, 25975, Note_on_c, 0, 70, 57
2, 26006, Note_on_c, 0, 54, 0
2, 26020, Control_c, 0, 64, 35
2, 26023, Note_on_c, 0, 70, 0
2, 26050, Control_c, 0, 64, 35
2, 26073, Note_on_c, 0, 72, 49
2, 26081, Control_c, 0, 64, 36
2, 26144, Note_on_c, 0, 54, 40
2, 26152, Note_on_c, 0, 72, 0
2, 26155, Note_on_c, 0, 70, 50
2, 26185, Note_on_c, 0, 54, 0
2, 26196, Note_on_c, 0, 75, 0
2, 26201, Note_on_c, 0, 70, 0
2, 26229, Note_on_c, 0, 69, 56
2, 26279, Note_on_c, 0, 69, 0
2, 26318, Note_on_c, 0, 54, 54
2, 26321, Note_on_c, 0, 74, 68
2, 26353, Note_on_c, 0, 54, 0
2, 26402, Note_on_c, 0, 69, 63
2, 26485, Note_on_c, 0, 69, 0
2, 26492, Note_on_c, 0, 54, 48
2, 26494, Note_on_c, 0, 70, 56
2, 26539, Note_on_c, 0, 54, 0
2, 26539, Note_on_c, 0, 70, 0
2, 26576, Note_on_c, 0, 72, 59
2, 26580, Control_c, 0, 64, 36
2, 26651, Note_on_c, 0, 74, 0
2, 26658, Note_on_c, 0, 72, 0
2, 26664, Control_c, 0, 64, 37
2, 26667, Note_on_c, 0, 70, 62
2, 26675, Note_on_c, 0, 54, 45
2, 26707, Note_on_c, 0, 70, 0
2, 26716, Note_on_c, 0, 54, 0
2, 26736, Note_on_c, 0, 69, 69
2, 26803, Note_on_c, 0, 69, 0
2, 26839, Note_on_c, 0, 81, 68
2, 26845, Note_on_c, 0, 54, 50
2, 26863, Control_c, 0, 64, 36
2, 26888, Note_on_c, 0, 81, 0
2, 26891, Note_on_c, 0, 54, 0
2, 26926, Note_on_c, 0, 69, 68
2, 27013, Note_on_c, 0, 70, 66
2, 27016, Note_on_c, 0, 54, 53
2, 27026, Note_on_c, 0, 69, 0
2, 27057, Note_on_c, 0, 54, 0
2, 27090, Note_on_c, 0, 70, 0
2, 27099, Note_on_c, 0, 72, 69
2, 27179, Note_on_c, 0, 72, 0
2, 27187, Note_on_c, 0, 54, 60
2, 27192, Note_on_c, 0, 70, 67
2, 27224, Note_on_c, 0, 54, 0
2, 27224, Note_on_c, 0, 70, 0
2, 27256, Note_on_c, 0, 69, 70
2, 27356, Note_on_c, 0, 70, 70
2, 27362, Note_on_c, 0, 55, 63
2, 27365, Note_on_c, 0, 69, 0
2, 27466, Note_on_c, 0, 69, 55
2, 27551, Note_on_c, 0, 67, 55
2, 27585, Control_c, 0, 64, 37
2, 27601, Control_c, 0, 64, 37
2, 27605, Note_on_c, 0, 69, 0
2, 27608, Note_on_c, 0, 55, 0
2, 27616, Control_c, 0, 64, 39
2, 27628, Note_on_c, 0, 67, 0
2, 27632, Control_c, 0, 64, 39
2, 27634, Note_on_c, 0, 66, 67
2, 27646, Control_c, 0, 64, 40
2, 27661, Control_c, 0, 64, 41
2, 27692, Control_c, 0, 64, 41
2, 27714, Note_on_c, 0, 66, 0
2, 27722, Note_on_c, 0, 67, 66
2, 27786, Note_on_c, 0, 62, 62
2, 27873, Note_on_c, 0, 58, 73
2, 27875, Control_c, 0, 64, 41
2, 27905, Control_c, 0, 64, 40
2, 27920, Control_c, 0, 64, 40
2, 27951, Control_c, 0, 64, 39
2, 27958, Note_on_c, 0, 58, 0
2, 27961, Note_on_c, 0, 57, 68
2, 28050, Note_on_c, 0, 57, 0
2, 28051, Note_on_c, 0, 55, 63
2, 28124, Note_on_c, 0, 55, 0
2, 28125, Note_on_c, 0, 54, 65
2, 28181, Note_on_c, 0, 54, 0
2, 28222, Note_on_c, 0, 55, 70
2, 28284, Note_on_c, 0, 55, 0
2, 28304, Note_on_c, 0, 50, 71
2, 28324, Control_c, 0, 64, 39
2, 28339, Control_c, 0, 64, 38
2, 28369, Control_c, 0, 64, 38
2, 28383, Note_on_c, 0, 50, 0
2, 28384, Control_c, 0, 64, 37
2, 28395, Note_on_c, 0, 46, 69
2, 28400, Control_c, 0, 64, 37
2, 28475, Note_on_c, 0, 46, 0
2, 28482, Note_on_c, 0, 50, 73
2, 28527, Note_on_c, 0, 62, 0
2, 28527, Note_on_c, 0, 70, 0
2, 28556, Note_on_c, 0, 48, 73
2, 28568, Note_on_c, 0, 50, 0
2, 28576, Note_on_c, 0, 67, 0
2, 28642, Note_on_c, 0, 46, 73
2, 28674, Note_on_c, 0, 48, 0
2, 28718, Note_on_c, 0, 45, 71
2, 28741, Note_on_c, 0, 46, 0
2, 28799, Note_on_c, 0, 43, 68
2, 28808, Note_on_c, 0, 45, 0
2, 28882, Note_on_c, 0, 49, 74
2, 28882, Note_on_c, 0, 70, 77
2, 28887, Note_on_c, 0, 43, 0
2, 28900, Control_c, 0, 64, 36
2, 28924, Control_c, 0, 64, 36
2, 28937, Note_on_c, 0, 49, 0
2, 28939, Control_c, 0, 64, 35
2, 28955, Control_c, 0, 64, 34
2, 28972, Note_on_c, 0, 64, 67
2, 28984, Control_c, 0, 64, 34
2, 29059, Note_on_c, 0, 49, 67
2, 29069, Note_on_c, 0, 65, 68
2, 29083, Note_on_c, 0, 64, 0
2, 29103, Note_on_c, 0, 49, 0
2, 29137, Control_c, 0, 64, 34
2, 29151, Note_on_c, 0, 65, 0
2, 29153, Control_c, 0, 64, 35
2, 29155, Note_on_c, 0, 67, 73
2, 29168, Control_c, 0, 64, 35
2, 29183, Control_c, 0, 64, 36
2, 29213, Control_c, 0, 64, 36
2, 29233, Note_on_c, 0, 49, 68
2, 29250, Note_on_c, 0, 65, 68
2, 29258, Control_c, 0, 64, 37
2, 29265, Note_on_c, 0, 67, 0
2, 29295, Note_on_c, 0, 49, 0
2, 29297, Note_on_c, 0, 70, 0
2, 29307, Note_on_c, 0, 64, 75
2, 29320, Note_on_c, 0, 65, 0
2, 29392, Note_on_c, 0, 64, 0
2, 29404, Note_on_c, 0, 49, 79
2, 29404, Note_on_c, 0, 69, 89
2, 29472, Control_c, 0, 64, 36
2, 29472, Note_on_c, 0, 49, 0
2, 29492, Note_on_c, 0, 64, 74
2, 29564, Note_on_c, 0, 65, 77
2, 29578, Note_on_c, 0, 49, 73
2, 29581, Note_on_c, 0, 64, 0
2, 29631, Note_on_c, 0, 49, 0
2, 29644, Note_on_c, 0, 67, 78
2, 29649, Note_on_c, 0, 65, 0
2, 29655, Control_c, 0, 64, 37
2, 29669, Control_c, 0, 64, 38
2, 29692, Control_c, 0, 64, 38
2, 29707, Control_c, 0, 64, 39
2, 29723, Control_c, 0, 64, 39
2, 29731, Note_on_c, 0, 69, 0
2, 29746, Note_on_c, 0, 65, 79
2, 29748, Note_on_c, 0, 49, 77
2, 29748, Note_on_c, 0, 67, 0
2, 29808, Note_on_c, 0, 65, 0
2, 29817, Note_on_c, 0, 64, 80
2, 29833, Note_on_c, 0, 49, 0
2, 29884, Note_on_c, 0, 64, 0
2, 29914, Note_on_c, 0, 76, 88
2, 29927, Note_on_c, 0, 49, 84
2, 29976, Note_on_c, 0, 76, 0
2, 29992, Note_on_c, 0, 49, 0
2, 29999, Note_on_c, 0, 64, 80
2, 30086, Note_on_c, 0, 65, 81
2, 30093, Note_on_c, 0, 49, 79
2, 30107, Note_on_c, 0, 64, 0
2, 30167, Note_on_c, 0, 49, 0
2, 30169, Note_on_c, 0, 67, 87
2, 30172, Note_on_c, 0, 65, 0
2, 30195, Control_c, 0, 64, 40
2, 30257, Note_on_c, 0, 65, 81
2, 30260, Note_on_c, 0, 49, 81
2, 30260, Note_on_c, 0, 67, 0
2, 30317, Note_on_c, 0, 49, 0
2, 30325, Note_on_c, 0, 64, 81
2, 30328, Note_on_c, 0, 65, 0
2, 30411, Note_on_c, 0, 50, 88
2, 30421, Note_on_c, 0, 65, 91
2, 30422, Control_c, 0, 64, 39
2, 30434, Note_on_c, 0, 64, 0
2, 30438, Control_c, 0, 64, 38
2, 30460, Control_c, 0, 64, 38
2, 30476, Control_c, 0, 64, 37
2, 30488, Note_on_c, 0, 52, 85
2, 30491, Control_c, 0, 64, 37
2, 30533, Note_on_c, 0, 50, 0
2, 30585, Note_on_c, 0, 53, 90
2, 30594, Note_on_c, 0, 52, 0
2, 30627, Control_c, 0, 64, 37
2, 30653, Note_on_c, 0, 53, 0
2, 30658, Control_c, 0, 64, 38
2, 30673, Control_c, 0, 64, 38
2, 30703, Control_c, 0, 64, 39
2, 30780, Note_on_c, 0, 57, 91
2, 30811, Control_c, 0, 64, 39
2, 30849, Note_on_c, 0, 57, 0
2, 30953, Note_on_c, 0, 53, 87
2, 30999, Note_on_c, 0, 65, 0
2, 31018, Note_on_c, 0, 53, 0
2, 31040, Note_on_c, 0, 64, 74
2, 31120, Note_on_c, 0, 50, 79
2, 31131, Note_on_c, 0, 65, 72
2, 31136, Note_on_c, 0, 64, 0
2, 31180, Note_on_c, 0, 50, 0
2, 31203, Note_on_c, 0, 69, 77
2, 31211, Note_on_c, 0, 65, 0
2, 31294, Note_on_c, 0, 69, 0
2, 31297, Note_on_c, 0, 74, 72
2, 31300, Note_on_c, 0, 45, 82
2, 31351, Note_on_c, 0, 74, 0
2, 31359, Note_on_c, 0, 45, 0
2, 31368, Note_on_c, 0, 69, 77
2, 31447, Note_on_c, 0, 69, 0
2, 31465, Note_on_c, 0, 77, 90
2, 31468, Note_on_c, 0, 50, 83
2, 31519, Note_on_c, 0, 50, 0
2, 31542, Note_on_c, 0, 76, 83
2, 31581, Note_on_c, 0, 77, 0
2, 31633, Note_on_c, 0, 74, 83
2, 31639, Note_on_c, 0, 53, 83
2, 31654, Control_c, 0, 64, 40
2, 31656, Note_on_c, 0, 76, 0
2, 31696, Note_on_c, 0, 53, 0
2, 31700, Control_c, 0, 64, 40
2, 31704, Note_on_c, 0, 72, 84
2, 31706, Note_on_c, 0, 74, 0
2, 31716, Control_c, 0, 64, 41
2, 31731, Control_c, 0, 64, 41
2, 31745, Control_c, 0, 64, 42
2, 31765, Note_on_c, 0, 72, 0
2, 31776, Control_c, 0, 64, 42
2, 31794, Note_on_c, 0, 71, 82
2, 31801, Note_on_c, 0, 57, 91
2, 31856, Note_on_c, 0, 71, 0
2, 31862, Note_on_c, 0, 69, 84
2, 31865, Note_on_c, 0, 57, 0
2, 31921, Note_on_c, 0, 69, 0
2, 31958, Control_c, 0, 64, 41
2, 31965, Note_on_c, 0, 50, 88
2, 31965, Note_on_c, 0, 80, 87
2, 31973, Control_c, 0, 64, 40
2, 31996, Control_c, 0, 64, 38
2, 32003, Note_on_c, 0, 52, 37
2, 32004, Note_on_c, 0, 52, 0
2, 32011, Control_c, 0, 64, 37
2, 32026, Control_c, 0, 64, 36
2, 32042, Control_c, 0, 64, 35
2, 32043, Note_on_c, 0, 52, 58
2, 32057, Control_c, 0, 64, 34
2, 32095, Note_on_c, 0, 50, 0
2, 32140, Note_on_c, 0, 53, 89
2, 32159, Note_on_c, 0, 52, 0
2, 32198, Note_on_c, 0, 53, 0
2, 32254, Control_c, 0, 64, 35
2, 32269, Control_c, 0, 64, 35
2, 32284, Control_c, 0, 64, 36
2, 32299, Control_c, 0, 64, 37
2, 32315, Control_c, 0, 64, 38
2, 32330, Control_c, 0, 64, 38
2, 32330, Note_on_c, 0, 56, 86
2, 32345, Control_c, 0, 64, 39
2, 32361, Control_c, 0, 64, 39
2, 32376, Control_c, 0, 64, 40
2, 32388, Note_on_c, 0, 56, 0
2, 32407, Control_c, 0, 64, 40
2, 32452, Control_c, 0, 64, 41
2, 32493, Note_on_c, 0, 53, 84
2, 32495, Note_on_c, 0, 80, 0
2, 32547, Note_on_c, 0, 53, 0
2, 32575, Note_on_c, 0, 81, 76
2, 32658, Note_on_c, 0, 50, 83
2, 32667, Note_on_c, 0, 81, 0
2, 32667, Note_on_c, 0, 83, 83
2, 32716, Note_on_c, 0, 50, 0
2, 32748, Note_on_c, 0, 81, 72
2, 32808, Note_on_c, 0, 83, 0
2, 32832, Note_on_c, 0, 80, 82
2, 32836, Note_on_c, 0, 47, 83
2, 32878, Note_on_c, 0, 81, 0
2, 32892, Note_on_c, 0, 47, 0
2, 32909, Note_on_c, 0, 78, 83
2, 32952, Note_on_c, 0, 80, 0
2, 32988, Note_on_c, 0, 76, 81
2, 32995, Note_on_c, 0, 78, 0
2, 33004, Note_on_c, 0, 50, 87
2, 33058, Note_on_c, 0, 50, 0
2, 33073, Note_on_c, 0, 77, 85
2, 33082, Note_on_c, 0, 76, 0
2, 33162, Note_on_c, 0, 76, 79
2, 33166, Note_on_c, 0, 53, 85
2, 33213, Note_on_c, 0, 77, 0
2, 33238, Note_on_c, 0, 74, 85
2, 33247, Note_on_c, 0, 53, 0
2, 33320, Note_on_c, 0, 72, 88
2, 33324, Note_on_c, 0, 76, 0
2, 33326, Note_on_c, 0, 56, 87
2, 33342, Note_on_c, 0, 74, 0
2, 33385, Note_on_c, 0, 56, 0
2, 33395, Note_on_c, 0, 71, 86
2, 33406, Note_on_c, 0, 72, 0
2, 33454, Note_on_c, 0, 71, 0
2, 33494, Note_on_c, 0, 48, 91
2, 33496, Note_on_c, 0, 69, 97
2, 33511, Control_c, 0, 64, 40
2, 33533, Control_c, 0, 64, 39
2, 33548, Control_c, 0, 64, 38
2, 33563, Control_c, 0, 64, 36
2, 33575, Note_on_c, 0, 71, 88
2, 33578, Control_c, 0, 64, 35
2, 33594, Control_c, 0, 64, 34
2, 33602, Note_on_c, 0, 69, 0
2, 33608, Control_c, 0, 64, 33
2, 33639, Control_c, 0, 64, 33
2, 33669, Note_on_c, 0, 72, 89
2, 33697, Note_on_c, 0, 71, 0
2, 33729, Note_on_c, 0, 72, 0
2, 33761, Control_c, 0, 64, 33
2, 33832, Note_on_c, 0, 48, 0
2, 33837, Control_c, 0, 64, 34
2, 33855, Note_on_c, 0, 76, 86
2, 33867, Control_c, 0, 64, 34
2, 33897, Control_c, 0, 64, 35
2, 33913, Control_c, 0, 64, 35
2, 33932, Note_on_c, 0, 76, 0
2, 34033, Note_on_c, 0, 72, 94
2, 34037, Control_c, 0, 64, 36
2, 34038, Note_on_c, 0, 57, 81
2, 34068, Control_c, 0, 64, 36
2, 34108, Note_on_c, 0, 72, 0
2, 34118, Note_on_c, 0, 56, 81
2, 34122, Note_on_c, 0, 57, 0
2, 34142, Control_c, 0, 64, 37
2, 34173, Control_c, 0, 64, 38
2, 34198, Note_on_c, 0, 56, 0
2, 34199, Note_on_c, 0, 57, 84
2, 34200, Note_on_c, 0, 69, 89
2, 34203, Control_c, 0, 64, 38
2, 34218, Control_c, 0, 64, 39
2, 34248, Control_c, 0, 64, 39
2, 34251, Note_on_c, 0, 69, 0
2, 34282, Note_on_c, 0, 56, 85
2, 34289, Note_on_c, 0, 57, 0
2, 34355, Note_on_c, 0, 64, 70
2, 34370, Note_on_c, 0, 56, 0
2, 34380, Note_on_c, 0, 57, 85
2, 34387, Note_on_c, 0, 65, 47
2, 34414, Note_on_c, 0, 65, 0
2, 34424, Note_on_c, 0, 64, 0
2, 34439, Note_on_c, 0, 56, 86
2, 34451, Note_on_c, 0, 57, 0
2, 34529, Note_on_c, 0, 56, 0
2, 34538, Note_on_c, 0, 57, 95
2, 34546, Note_on_c, 0, 76, 89
2, 34560, Control_c, 0, 64, 39
2, 34575, Control_c, 0, 64, 38
2, 34591, Control_c, 0, 64, 38
2, 34592, Note_on_c, 0, 57, 0
2, 34605, Control_c, 0, 64, 37
2, 34628, Note_on_c, 0, 74, 82
2, 34651, Control_c, 0, 64, 37
2, 34685, Note_on_c, 0, 76, 0
2, 34714, Note_on_c, 0, 72, 80
2, 34717, Note_on_c, 0, 52, 89
2, 34763, Note_on_c, 0, 74, 0
2, 34774, Note_on_c, 0, 52, 0
2, 34790, Note_on_c, 0, 71, 83
2, 34820, Note_on_c, 0, 72, 0
2, 34870, Note_on_c, 0, 69, 82
2, 34872, Note_on_c, 0, 71, 0
2, 34884, Note_on_c, 0, 48, 75
2, 34888, Note_on_c, 0, 47, 72
2, 34919, Note_on_c, 0, 48, 0
2, 34920, Note_on_c, 0, 47, 0
2, 34949, Note_on_c, 0, 68, 88
2, 34955, Note_on_c, 0, 69, 0
2, 35035, Note_on_c, 0, 69, 96
2, 35038, Note_on_c, 0, 41, 92
2, 35044, Note_on_c, 0, 68, 0
2, 35047, Control_c, 0, 64, 35
2, 35070, Control_c, 0, 64, 34
2, 35085, Control_c, 0, 64, 32
2, 35099, Control_c, 0, 64, 29
2, 35115, Control_c, 0, 64, 21
2, 35120, Note_on_c, 0, 71, 94
2, 35130, Control_c, 0, 64, 0
2, 35132, Note_on_c, 0, 69, 0
2, 35210, Note_on_c, 0, 72, 93
2, 35230, Note_on_c, 0, 71, 0
2, 35271, Note_on_c, 0, 72, 0
2, 35350, Note_on_c, 0, 41, 0
2, 35388, Note_on_c, 0, 81, 88
2, 35457, Note_on_c, 0, 81, 0
2, 35567, Note_on_c, 0, 76, 95
2, 35568, Note_on_c, 0, 57, 78
2, 35635, Note_on_c, 0, 76, 0
2, 35645, Note_on_c, 0, 57, 0
2, 35646, Note_on_c, 0, 56, 77
2, 35728, Note_on_c, 0, 56, 0
2, 35732, Note_on_c, 0, 57, 78
2, 35738, Control_c, 0, 64, 11
2, 35741, Note_on_c, 0, 72, 92
2, 35754, Control_c, 0, 64, 13
2, 35769, Control_c, 0, 64, 16
2, 35785, Control_c, 0, 64, 17
2, 35796, Note_on_c, 0, 57, 0
2, 35799, Note_on_c, 0, 72, 0
2, 35800, Control_c, 0, 64, 17
2, 35805, Note_on_c, 0, 56, 78
2, 35814, Control_c, 0, 64, 18
2, 35838, Control_c, 0, 64, 19
2, 35868, Control_c, 0, 64, 20
2, 35886, Note_on_c, 0, 56, 0
2, 35897, Note_on_c, 0, 57, 78
2, 35898, Control_c, 0, 64, 21
2, 35910, Note_on_c, 0, 69, 84
2, 35929, Control_c, 0, 64, 21
2, 35963, Note_on_c, 0, 56, 81
2, 35969, Note_on_c, 0, 57, 0
2, 35975, Note_on_c, 0, 69, 0
2, 36075, Note_on_c, 0, 57, 94
2, 36076, Note_on_c, 0, 56, 0
2, 36083, Note_on_c, 0, 81, 90
2, 36112, Control_c, 0, 64, 21
2, 36126, Control_c, 0, 64, 19
2, 36126, Note_on_c, 0, 57, 0
2, 36141, Control_c, 0, 64, 17
2, 36157, Control_c, 0, 64, 17
2, 36167, Note_on_c, 0, 79, 81
2, 36172, Control_c, 0, 64, 16
2, 36236, Note_on_c, 0, 81, 0
2, 36254, Note_on_c, 0, 59, 83
2, 36255, Note_on_c, 0, 77, 88
2, 36306, Note_on_c, 0, 59, 0
2, 36314, Note_on_c, 0, 79, 0
2, 36329, Note_on_c, 0, 76, 87
2, 36350, Note_on_c, 0, 77, 0
2, 36385, Control_c, 0, 64, 17
2, 36411, Note_on_c, 0, 74, 84
2, 36413, Note_on_c, 0, 76, 0
2, 36415, Control_c, 0, 64, 17
2, 36416, Note_on_c, 0, 60, 83
2, 36430, Control_c, 0, 64, 18
2, 36466, Note_on_c, 0, 60, 0
2, 36469, Note_on_c, 0, 74, 0
2, 36475, Control_c, 0, 64, 19
2, 36487, Note_on_c, 0, 72, 91
2, 36580, Note_on_c, 0, 50, 87
2, 36582, Note_on_c, 0, 77, 95
2, 36584, Note_on_c, 0, 72, 0
2, 36606, Control_c, 0, 64, 18
2, 36654, Note_on_c, 0, 50, 0
2, 36667, Control_c, 0, 64, 17
2, 36671, Note_on_c, 0, 76, 81
2, 36682, Control_c, 0, 64, 16
2, 36748, Note_on_c, 0, 77, 0
2, 36758, Note_on_c, 0, 74, 87
2, 36768, Note_on_c, 0, 52, 82
2, 36820, Note_on_c, 0, 52, 0
2, 36831, Note_on_c, 0, 72, 93
2, 36834, Control_c, 0, 64, 17
2, 36848, Note_on_c, 0, 76, 0
2, 36849, Control_c, 0, 64, 17
2, 36858, Note_on_c, 0, 74, 0
2, 36864, Control_c, 0, 64, 19
2, 36879, Control_c, 0, 64, 21
2, 36894, Control_c, 0, 64, 22
2, 36914, Note_on_c, 0, 71, 83
2, 36922, Note_on_c, 0, 72, 0
2, 36924, Control_c, 0, 64, 23
2, 36928, Note_on_c, 0, 53, 89
2, 36974, Note_on_c, 0, 71, 0
2, 36992, Note_on_c, 0, 69, 90
2, 37003, Note_on_c, 0, 53, 0
2, 37081, Note_on_c, 0, 74, 93
2, 37092, Note_on_c, 0, 69, 0
2, 37093, Note_on_c, 0, 47, 87
2, 37108, Control_c, 0, 64, 22
2, 37122, Control_c, 0, 64, 20
2, 37137, Control_c, 0, 64, 19
2, 37153, Control_c, 0, 64, 18
2, 37159, Note_on_c, 0, 72, 82
2, 37166, Note_on_c, 0, 47, 0
2, 37168, Control_c, 0, 64, 17
2, 37184, Control_c, 0, 64, 17
2, 37213, Control_c, 0, 64, 16
2, 37228, Note_on_c, 0, 74, 0
2, 37243, Note_on_c, 0, 71, 84
2, 37257, Note_on_c, 0, 48, 91
2, 37289, Control_c, 0, 64, 17
2, 37304, Note_on_c, 0, 72, 0
2, 37313, Note_on_c, 0, 48, 0
2, 37321, Control_c, 0, 64, 17
2, 37322, Note_on_c, 0, 71, 0
2, 37328, Note_on_c, 0, 69, 87
2, 37336, Control_c, 0, 64, 19
2, 37351, Control_c, 0, 64, 21
2, 37374, Control_c, 0, 64, 23
2, 37390, Control_c, 0, 64, 24
2, 37404, Control_c, 0, 64, 24
2, 37419, Control_c, 0, 64, 25
2, 37419, Note_on_c, 0, 50, 84
2, 37421, Note_on_c, 0, 68, 88
2, 37429, Note_on_c, 0, 69, 0
2, 37499, Note_on_c, 0, 50, 0
2, 37499, Note_on_c, 0, 66, 86
2, 37502, Note_on_c, 0, 68, 0
2, 37551, Note_on_c, 0, 66, 0
2, 37587, Control_c, 0, 64, 24
2, 37589, Note_on_c, 0, 44, 90
2, 37599, Note_on_c, 0, 71, 95
2, 37602, Control_c, 0, 64, 21
2, 37617, Control_c, 0, 64, 20
2, 37632, Control_c, 0, 64, 18
2, 37647, Control_c, 0, 64, 17
2, 37662, Control_c, 0, 64, 16
2, 37677, Note_on_c, 0, 44, 0
2, 37678, Control_c, 0, 64, 13
2, 37685, Note_on_c, 0, 69, 81
2, 37693, Control_c, 0, 64, 12
2, 37709, Control_c, 0, 64, 11
2, 37753, Control_c, 0, 64, 9
2, 37757, Note_on_c, 0, 71, 0
2, 37767, Note_on_c, 0, 68, 85
2, 37769, Note_on_c, 0, 45, 89
2, 37814, Control_c, 0, 64, 11
2, 37842, Note_on_c, 0, 45, 0
2, 37848, Note_on_c, 0, 66, 86
2, 37860, Control_c, 0, 64, 12
2, 37864, Note_on_c, 0, 69, 0
2, 37875, Control_c, 0, 64, 15
2, 37886, Note_on_c, 0, 68, 0
2, 37890, Control_c, 0, 64, 18
2, 37906, Control_c, 0, 64, 21
2, 37921, Control_c, 0, 64, 23
2, 37927, Note_on_c, 0, 47, 87
2, 37929, Note_on_c, 0, 64, 82
2, 37936, Control_c, 0, 64, 24
2, 37946, Note_on_c, 0, 66, 0
2, 37952, Control_c, 0, 64, 24
2, 37997, Control_c, 0, 64, 25
2, 38012, Control_c, 0, 64, 26
2, 38015, Note_on_c, 0, 62, 85
2, 38019, Note_on_c, 0, 47, 0
2, 38024, Note_on_c, 0, 64, 0
2, 38028, Control_c, 0, 64, 26
2, 38042, Control_c, 0, 64, 27
2, 38068, Note_on_c, 0, 62, 0
2, 38113, Note_on_c, 0, 36, 89
2, 38114, Note_on_c, 0, 64, 92
2, 38200, Control_c, 0, 64, 25
2, 38215, Control_c, 0, 64, 21
2, 38215, Note_on_c, 0, 69, 82
2, 38231, Control_c, 0, 64, 17
2, 38246, Control_c, 0, 64, 15
2, 38251, Note_on_c, 0, 64, 0
2, 38292, Control_c, 0, 64, 13
2, 38301, Note_on_c, 0, 67, 81
2, 38377, Note_on_c, 0, 69, 0
2, 38383, Note_on_c, 0, 65, 84
2, 38413, Control_c, 0, 64, 15
2, 38444, Control_c, 0, 64, 16
2, 38459, Control_c, 0, 64, 17
2, 38462, Note_on_c, 0, 64, 87
2, 38465, Note_on_c, 0, 67, 0
2, 38474, Control_c, 0, 64, 19
2, 38484, Note_on_c, 0, 65, 0
2, 38489, Control_c, 0, 64, 21
2, 38504, Control_c, 0, 64, 22
2, 38520, Control_c, 0, 64, 23
2, 38535, Control_c, 0, 64, 24
2, 38535, Note_on_c, 0, 62, 84
2, 38543, Note_on_c, 0, 64, 0
2, 38549, Control_c, 0, 64, 25
2, 38586, Note_on_c, 0, 62, 0
2, 38622, Note_on_c, 0, 60, 92
2, 38649, Note_on_c, 0, 36, 0
2, 38686, Control_c, 0, 64, 24
2, 38699, Note_on_c, 0, 65, 83
2, 38701, Control_c, 0, 64, 21
2, 38712, Note_on_c, 0, 60, 0
2, 38717, Control_c, 0, 64, 17
2, 38732, Control_c, 0, 64, 15
2, 38747, Control_c, 0, 64, 12
2, 38763, Control_c, 0, 64, 11
2, 38773, Note_on_c, 0, 48, 80
2, 38778, Control_c, 0, 64, 0
2, 38779, Note_on_c, 0, 64, 80
2, 38836, Note_on_c, 0, 48, 0
2, 38857, Note_on_c, 0, 62, 82
2, 38858, Note_on_c, 0, 65, 0
2, 38944, Note_on_c, 0, 60, 85
2, 38952, Note_on_c, 0, 50, 83
2, 38952, Note_on_c, 0, 64, 0
2, 38953, Control_c, 0, 64, 9
2, 38968, Note_on_c, 0, 62, 0
2, 38969, Control_c, 0, 64, 12
2, 38983, Control_c, 0, 64, 16
2, 38999, Control_c, 0, 64, 17
2, 39011, Note_on_c, 0, 50, 0
2, 39014, Control_c, 0, 64, 19
2, 39016, Note_on_c, 0, 59, 78
2, 39021, Note_on_c, 0, 60, 0
2, 39029, Control_c, 0, 64, 21
2, 39044, Control_c, 0, 64, 23
2, 39059, Control_c, 0, 64, 23
2, 39073, Note_on_c, 0, 59, 0
2, 39075, Control_c, 0, 64, 24
2, 39102, Note_on_c, 0, 57, 86
2, 39108, Note_on_c, 0, 52, 80
2, 39166, Note_on_c, 0, 52, 0
2, 39180, Note_on_c, 0, 62, 78
2, 39185, Note_on_c, 0, 57, 0
2, 39269, Note_on_c, 0, 50, 68
2, 39271, Note_on_c, 0, 60, 71
2, 39288, Control_c, 0, 64, 23
2, 39307, Note_on_c, 0, 62, 0
2, 39318, Note_on_c, 0, 50, 0
2, 39351, Note_on_c, 0, 59, 70
2, 39385, Note_on_c, 0, 60, 0
2, 39416, Note_on_c, 0, 59, 0
2, 39431, Note_on_c, 0, 52, 62
2, 39448, Note_on_c, 0, 57, 69
2, 39472, Note_on_c, 0, 52, 0
2, 39515, Note_on_c, 0, 57, 0
2, 39525, Note_on_c, 0, 56, 70
2, 39592, Control_c, 0, 64, 24
2, 39607, Control_c, 0, 64, 24
2, 39611, Note_on_c, 0, 56, 0
2, 39614, Note_on_c, 0, 45, 58
2, 39619, Note_on_c, 0, 57, 75
2, 39622, Control_c, 0, 64, 26
2, 39637, Control_c, 0, 64, 27
2, 39652, Control_c, 0, 64, 27
2, 39675, Control_c, 0, 64, 28
2, 39690, Control_c, 0, 64, 29
2, 39705, Control_c, 0, 64, 30
2, 39713, Note_on_c, 0, 59, 77
2, 39716, Note_on_c, 0, 57, 0
2, 39721, Control_c, 0, 64, 32
2, 39735, Control_c, 0, 64, 33
2, 39751, Control_c, 0, 64, 34
2, 39766, Control_c, 0, 64, 35
2, 39782, Control_c, 0, 64, 35
2, 39789, Note_on_c, 0, 61, 77
2, 39797, Control_c, 0, 64, 36
2, 39808, Note_on_c, 0, 59, 0
2, 39812, Control_c, 0, 64, 37
2, 39827, Control_c, 0, 64, 38
2, 39843, Control_c, 0, 64, 39
2, 39858, Control_c, 0, 64, 40
2, 39863, Note_on_c, 0, 62, 83
2, 39865, Note_on_c, 0, 61, 0
2, 39873, Control_c, 0, 64, 41
2, 39888, Control_c, 0, 64, 41
2, 39953, Note_on_c, 0, 64, 82
2, 39964, Control_c, 0, 64, 42
2, 39980, Note_on_c, 0, 62, 0
2, 40025, Note_on_c, 0, 65, 85
2, 40054, Note_on_c, 0, 64, 0
2, 40117, Note_on_c, 0, 67, 85
2, 40152, Note_on_c, 0, 65, 0
2, 40208, Note_on_c, 0, 47, 66
2, 40231, Note_on_c, 0, 67, 0
2, 40283, Note_on_c, 0, 49, 70
2, 40290, Note_on_c, 0, 64, 76
2, 40332, Note_on_c, 0, 47, 0
2, 40377, Note_on_c, 0, 64, 0
2, 40378, Note_on_c, 0, 50, 77
2, 40396, Note_on_c, 0, 49, 0
2, 40468, Note_on_c, 0, 61, 68
2, 40471, Note_on_c, 0, 52, 75
2, 40474, Note_on_c, 0, 50, 0
2, 40543, Note_on_c, 0, 53, 85
2, 40567, Note_on_c, 0, 52, 0
2, 40616, Note_on_c, 0, 70, 86
2, 40634, Note_on_c, 0, 61, 0
2, 40642, Note_on_c, 0, 55, 89
2, 40652, Note_on_c, 0, 53, 0
2, 40706, Note_on_c, 0, 61, 76
2, 40708, Note_on_c, 0, 55, 0
2, 40729, Note_on_c, 0, 70, 0
2, 40778, Control_c, 0, 64, 41
2, 40794, Control_c, 0, 64, 40
2, 40805, Note_on_c, 0, 69, 82
2, 40808, Control_c, 0, 64, 39
2, 40811, Note_on_c, 0, 53, 77
2, 40816, Note_on_c, 0, 61, 0
2, 40823, Control_c, 0, 64, 39
2, 40839, Control_c, 0, 64, 38
2, 40854, Control_c, 0, 64, 37
2, 40854, Note_on_c, 0, 53, 0
2, 40869, Control_c, 0, 64, 36
2, 40885, Control_c, 0, 64, 35
2, 40889, Note_on_c, 0, 61, 77
2, 40900, Control_c, 0, 64, 33
2, 40909, Note_on_c, 0, 69, 0
2, 40915, Control_c, 0, 64, 31
2, 40930, Control_c, 0, 64, 25
2, 40945, Control_c, 0, 64, 0
2, 40979, Note_on_c, 0, 67, 74
2, 40984, Note_on_c, 0, 52, 80
2, 40985, Note_on_c, 0, 61, 0
2, 41041, Note_on_c, 0, 52, 0
2, 41053, Note_on_c, 0, 61, 76
2, 41061, Note_on_c, 0, 67, 0
2, 41143, Note_on_c, 0, 61, 0
2, 41147, Note_on_c, 0, 65, 74
2, 41154, Note_on_c, 0, 50, 85
2, 41242, Control_c, 0, 64, 35
2, 41248, Note_on_c, 0, 69, 76
2, 41257, Control_c, 0, 64, 47
2, 41269, Note_on_c, 0, 65, 0
2, 41272, Control_c, 0, 64, 52
2, 41287, Control_c, 0, 64, 57
2, 41299, Note_on_c, 0, 69, 0
2, 41302, Control_c, 0, 64, 61
2, 41318, Control_c, 0, 64, 64
2, 41333, Control_c, 0, 64, 68
2, 41343, Note_on_c, 0, 71, 88
2, 41347, Control_c, 0, 64, 73
2, 41363, Control_c, 0, 64, 76
2, 41378, Control_c, 0, 64, 78
2, 41408, Control_c, 0, 64, 77
2, 41420, Note_on_c, 0, 73, 85
2, 41425, Control_c, 0, 64, 75
2, 41440, Control_c, 0, 64, 74
2, 41450, Note_on_c, 0, 71, 0
2, 41455, Control_c, 0, 64, 73
2, 41471, Control_c, 0, 64, 72
2, 41486, Control_c, 0, 64, 71
2, 41500, Control_c, 0, 64, 69
2, 41502, Note_on_c, 0, 74, 81
2, 41516, Control_c, 0, 64, 67
2, 41525, Note_on_c, 0, 73, 0
2, 41531, Control_c, 0, 64, 64
2, 41546, Control_c, 0, 64, 61
2, 41562, Control_c, 0, 64, 59
2, 41575, Note_on_c, 0, 76, 85
2, 41576, Control_c, 0, 64, 57
2, 41592, Control_c, 0, 64, 56
2, 41607, Control_c, 0, 64, 55
2, 41622, Control_c, 0, 64, 52
2, 41629, Note_on_c, 0, 74, 0
2, 41638, Control_c, 0, 64, 50
2, 41652, Control_c, 0, 64, 47
2, 41667, Control_c, 0, 64, 46
2, 41683, Control_c, 0, 64, 45
2, 41686, Note_on_c, 0, 77, 94
2, 41698, Control_c, 0, 64, 45
2, 41747, Note_on_c, 0, 45, 0
2, 41763, Note_on_c, 0, 50, 0
2, 41774, Control_c, 0, 64, 45
2, 41781, Note_on_c, 0, 76, 0
2, 41783, Note_on_c, 0, 57, 73
2, 41784, Note_on_c, 0, 77, 0
2, 41789, Control_c, 0, 64, 46
2, 41820, Control_c, 0, 64, 46
2, 41836, Control_c, 0, 64, 47
2, 41885, Note_on_c, 0, 74, 82
2, 41887, Note_on_c, 0, 59, 74
2, 41962, Note_on_c, 0, 74, 0
2, 41984, Note_on_c, 0, 61, 80
2, 41995, Control_c, 0, 64, 47
2, 42010, Note_on_c, 0, 59, 0
2, 42071, Control_c, 0, 64, 48
2, 42087, Note_on_c, 0, 62, 87
2, 42091, Note_on_c, 0, 61, 0
2, 42101, Control_c, 0, 64, 48
2, 42103, Note_on_c, 0, 71, 83
2, 42116, Control_c, 0, 64, 49
2, 42177, Control_c, 0, 64, 49
2, 42184, Note_on_c, 0, 64, 81
2, 42193, Note_on_c, 0, 62, 0
2, 42222, Control_c, 0, 64, 50
2, 42319, Note_on_c, 0, 65, 83
2, 42330, Note_on_c, 0, 81, 78
2, 42353, Note_on_c, 0, 64, 0
2, 42420, Control_c, 0, 64, 49
2, 42440, Note_on_c, 0, 80, 80
2, 42451, Control_c, 0, 64, 49
2, 42458, Note_on_c, 0, 65, 0
2, 42465, Note_on_c, 0, 81, 0
2, 42512, Control_c, 0, 64, 48
2, 42541, Control_c, 0, 64, 48
2, 42569, Note_on_c, 0, 64, 79
2, 42569, Note_on_c, 0, 81, 84
2, 42572, Control_c, 0, 64, 47
2, 42587, Control_c, 0, 64, 47
2, 42598, Note_on_c, 0, 80, 0
2, 42618, Control_c, 0, 64, 46
2, 42634, Control_c, 0, 64, 46
2, 42649, Control_c, 0, 64, 45
2, 42666, Note_on_c, 0, 64, 0
2, 42675, Note_on_c, 0, 80, 77
2, 42679, Control_c, 0, 64, 44
2, 42709, Control_c, 0, 64, 44
2, 42715, Note_on_c, 0, 81, 0
2, 42725, Control_c, 0, 64, 43
2, 42746, Control_c, 0, 64, 43
2, 42762, Control_c, 0, 64, 41
2, 42777, Control_c, 0, 64, 38
2, 42793, Control_c, 0, 64, 36
2, 42808, Control_c, 0, 64, 34
2, 42820, Note_on_c, 0, 62, 72
2, 42823, Note_on_c, 0, 81, 83
2, 42861, Note_on_c, 0, 80, 0
2, 42868, Control_c, 0, 64, 34
2, 42899, Control_c, 0, 64, 34
2, 42908, Note_on_c, 0, 71, 0
2, 42930, Control_c, 0, 64, 36
2, 42939, Note_on_c, 0, 62, 0
2, 42945, Control_c, 0, 64, 40
2, 42955, Note_on_c, 0, 80, 88
2, 42960, Control_c, 0, 64, 44
2, 42975, Control_c, 0, 64, 47
2, 42984, Note_on_c, 0, 81, 0
2, 42991, Control_c, 0, 64, 51
2, 43006, Control_c, 0, 64, 56
2, 43021, Control_c, 0, 64, 61
2, 43036, Control_c, 0, 64, 64
2, 43052, Control_c, 0, 64, 66
2, 43067, Control_c, 0, 64, 67
2, 43083, Control_c, 0, 64, 68
2, 43098, Control_c, 0, 64, 68
2, 43113, Control_c, 0, 64, 68
2, 43128, Control_c, 0, 64, 67
2, 43174, Control_c, 0, 64, 67
2, 43188, Control_c, 0, 64, 66
2, 43203, Note_on_c, 0, 80, 0
2, 43204, Control_c, 0, 64, 65
2, 43217, Note_on_c, 0, 81, 77
2, 43219, Control_c, 0, 64, 64
2, 43223, Note_on_c, 0, 64, 71
2, 43224, Note_on_c, 0, 73, 70
2, 43225, Note_on_c, 0, 76, 79
2, 43235, Control_c, 0, 64, 62
2, 43250, Control_c, 0, 64, 56
2, 43264, Control_c, 0, 64, 49
2, 43280, Control_c, 0, 64, 41
2, 43295, Control_c, 0, 64, 33
2, 43309, Control_c, 0, 64, 28
2, 43325, Control_c, 0, 64, 25
2, 43340, Control_c, 0, 64, 22
2, 43356, Control_c, 0, 64, 20
2, 43371, Control_c, 0, 64, 18
2, 43385, Control_c, 0, 64, 17
2, 43401, Control_c, 0, 64, 17
2, 43545, Control_c, 0, 64, 16
2, 43682, Control_c, 0, 64, 15
2, 44679, Control_c, 0, 64, 16
2, 44709, Control_c, 0, 64, 17
2, 44725, Control_c, 0, 64, 17
2, 44740, Control_c, 0, 64, 19
2, 44756, Control_c, 0, 64, 20
2, 44770, Control_c, 0, 64, 21
2, 44785, Control_c, 0, 64, 22
2, 44801, Control_c, 0, 64, 23
2, 44816, Control_c, 0, 64, 23
2, 44832, Control_c, 0, 64, 24
2, 44847, Control_c, 0, 64, 24
2, 44862, Control_c, 0, 64, 25
2, 44876, Control_c, 0, 64, 26
2, 44891, Control_c, 0, 64, 27
2, 44906, Control_c, 0, 64, 28
2, 44922, Control_c, 0, 64, 29
2, 44937, Control_c, 0, 64, 30
2, 44952, Control_c, 0, 64, 31
2, 44967, Control_c, 0, 64, 31
2, 44982, Control_c, 0, 64, 32
2, 45012, Control_c, 0, 64, 32
2, 45027, Control_c, 0, 64, 33
2, 45051, Control_c, 0, 64, 33
2, 45066, Control_c, 0, 64, 34
2, 45081, Control_c, 0, 64, 35
2, 45096, Control_c, 0, 64, 36
2, 45112, Control_c, 0, 64, 38
2, 45126, Control_c, 0, 64, 39
2, 45141, Control_c, 0, 64, 39
2, 45157, Control_c, 0, 64, 41
2, 45172, Control_c, 0, 64, 42
2, 45187, Control_c, 0, 64, 43
2, 45202, Control_c, 0, 64, 43
2, 45217, Control_c, 0, 64, 44
2, 45233, Control_c, 0, 64, 44
2, 45248, Control_c, 0, 64, 45
2, 45263, Control_c, 0, 64, 45
2, 45293, Control_c, 0, 64, 46
2, 45308, Control_c, 0, 64, 47
2, 45324, Control_c, 0, 64, 47
2, 45339, Control_c, 0, 64, 48
2, 45355, Control_c, 0, 64, 49
2, 45370, Control_c, 0, 64, 49
2, 45385, Control_c, 0, 64, 50
2, 45400, Control_c, 0, 64, 50
2, 45415, Control_c, 0, 64, 51
2, 45431, Control_c, 0, 64, 51
2, 45446, Control_c, 0, 64, 52
2, 45461, Control_c, 0, 64, 52
2, 45477, Control_c, 0, 64, 53
2, 45491, Control_c, 0, 64, 54
2, 45507, Control_c, 0, 64, 54
2, 45523, Control_c, 0, 64, 55
2, 45538, Control_c, 0, 64, 56
2, 45554, Control_c, 0, 64, 57
2, 45568, Control_c, 0, 64, 58
2, 45583, Control_c, 0, 64, 60
2, 45599, Control_c, 0, 64, 62
2, 45614, Control_c, 0, 64, 62
2, 45629, Control_c, 0, 64, 63
2, 45644, Control_c, 0, 64, 64
2, 45659, Control_c, 0, 64, 64
2, 45675, Control_c, 0, 64, 65
2, 45690, Control_c, 0, 64, 65
2, 45705, Control_c, 0, 64, 66
2, 45735, Control_c, 0, 64, 66
2, 45766, Control_c, 0, 64, 67
2, 45781, Control_c, 0, 64, 67
2, 45796, Control_c, 0, 64, 68
2, 45811, Control_c, 0, 64, 68
2, 45835, Control_c, 0, 64, 69
2, 45849, Control_c, 0, 64, 70
2, 45864, Control_c, 0, 64, 72
2, 45880, Control_c, 0, 64, 73
2, 45895, Control_c, 0, 64, 75
2, 45911, Control_c, 0, 64, 76
2, 45925, Control_c, 0, 64, 77
2, 46131, Note_on_c, 0, 76, 0
2, 46137, Note_on_c, 0, 81, 0
2, 46168, Control_c, 0, 64, 76
2, 46213, Control_c, 0, 64, 76
2, 46244, Control_c, 0, 64, 75
2, 46259, Control_c, 0, 64, 75
2, 46290, Control_c, 0, 64, 74
2, 46305, Control_c, 0, 64, 73
2, 46305, Note_on_c, 0, 73, 0
2, 46308, Note_on_c, 0, 64, 0
2, 46336, Control_c, 0, 64, 73
2, 46363, Note_on_c, 0, 57, 0
2, 46366, Control_c, 0, 64, 72
2, 46381, Control_c, 0, 64, 72
2, 46412, Control_c, 0, 64, 71
2, 46443, Control_c, 0, 64, 71
2, 46458, Control_c, 0, 64, 70
2, 46474, Control_c, 0, 64, 70
2, 46488, Control_c, 0, 64, 69
2, 46503, Control_c, 0, 64, 68
2, 46519, Control_c, 0, 64, 67
2, 46534, Control_c, 0, 64, 66
2, 46549, Control_c, 0, 64, 64
2, 46564, Control_c, 0, 64, 64
2, 46586, Control_c, 0, 64, 63
2, 46602, Control_c, 0, 64, 62
2, 46617, Control_c, 0, 64, 61
2, 46633, Control_c, 0, 64, 60
2, 46648, Control_c, 0, 64, 59
2, 46663, Control_c, 0, 64, 57
2, 46679, Control_c, 0, 64, 57
2, 46693, Control_c, 0, 64, 56
2, 46708, Control_c, 0, 64, 54
2, 46724, Control_c, 0, 64, 53
2, 46739, Control_c, 0, 64, 51
2, 46755, Control_c, 0, 64, 50
2, 46769, Control_c, 0, 64, 49
2, 46784, Control_c, 0, 64, 46
2, 46800, Control_c, 0, 64, 44
2, 46876, Control_c, 0, 64, 44
2, 46891, Control_c, 0, 64, 42
2, 46905, Control_c, 0, 64, 40
2, 46921, Control_c, 0, 64, 38
2, 46936, Control_c, 0, 64, 36
2, 46952, Control_c, 0, 64, 35
2, 46966, Control_c, 0, 64, 34
2, 46981, Control_c, 0, 64, 33
2, 47012, Control_c, 0, 64, 33
2, 47272, Control_c, 0, 64, 33
2, 47506, Control_c, 0, 64, 34
2, 47628, Control_c, 0, 64, 34
2, 47780, Control_c, 0, 64, 35
2, 47886, Control_c, 0, 64, 35
2, 47993, Control_c, 0, 64, 36
2, 48069, Control_c, 0, 64, 36
2, 48228, Control_c, 0, 64, 37
2, 49037, Note_on_c, 0, 57, 46
2, 49125, Note_on_c, 0, 57, 0
2, 49141, Note_on_c, 0, 56, 53
2, 49225, Control_c, 0, 64, 37
2, 49274, Note_on_c, 0, 56, 0
2, 49282, Note_on_c, 0, 57, 60
2, 49391, Note_on_c, 0, 57, 0
2, 49556, Note_on_c, 0, 59, 64
2, 49589, Control_c, 0, 64, 37
2, 49678, Note_on_c, 0, 59, 0
2, 49781, Control_c, 0, 64, 36
2, 49831, Note_on_c, 0, 60, 64
2, 49985, Note_on_c, 0, 60, 0
2, 50106, Note_on_c, 0, 60, 63
2, 50213, Note_on_c, 0, 60, 0
2, 50224, Note_on_c, 0, 59, 66
2, 50362, Note_on_c, 0, 60, 71
2, 50380, Note_on_c, 0, 59, 0
2, 50533, Note_on_c, 0, 60, 0
2, 50632, Note_on_c, 0, 62, 73
2, 50767, Note_on_c, 0, 62, 0
2, 50899, Note_on_c, 0, 64, 69
2, 51014, Note_on_c, 0, 62, 68
2, 51035, Note_on_c, 0, 64, 0
2, 51142, Note_on_c, 0, 60, 74
2, 51157, Note_on_c, 0, 62, 0
2, 51261, Note_on_c, 0, 62, 80
2, 51286, Note_on_c, 0, 60, 0
2, 51399, Note_on_c, 0, 64, 83
2, 51417, Note_on_c, 0, 62, 0
2, 51536, Note_on_c, 0, 64, 0
2, 51560, Control_c, 0, 64, 37
2, 51575, Control_c, 0, 64, 38
2, 51605, Control_c, 0, 64, 39
2, 51636, Control_c, 0, 64, 39
2, 51651, Control_c, 0, 64, 40
2, 51670, Note_on_c, 0, 65, 80
2, 51681, Control_c, 0, 64, 40
2, 51696, Control_c, 0, 64, 41
2, 51712, Control_c, 0, 64, 41
2, 51727, Control_c, 0, 64, 42
2, 51742, Control_c, 0, 64, 43
2, 51757, Control_c, 0, 64, 43
2, 51772, Control_c, 0, 64, 44
2, 51801, Note_on_c, 0, 65, 0
2, 51817, Control_c, 0, 64, 44
2, 51936, Note_on_c, 0, 56, 75
2, 51962, Control_c, 0, 64, 44
2, 52022, Control_c, 0, 64, 43
2, 52038, Control_c, 0, 64, 43
2, 52069, Control_c, 0, 64, 42
2, 52085, Control_c, 0, 64, 41
2, 52097, Note_on_c, 0, 56, 0
2, 52100, Control_c, 0, 64, 41
2, 52115, Control_c, 0, 64, 40
2, 52130, Control_c, 0, 64, 39
2, 52161, Control_c, 0, 64, 39
2, 52176, Control_c, 0, 64, 38
2, 52206, Control_c, 0, 64, 38
2, 52227, Note_on_c, 0, 52, 52
2, 52237, Control_c, 0, 64, 37
2, 52252, Control_c, 0, 64, 37
2, 52389, Note_on_c, 0, 52, 0
2, 52525, Control_c, 0, 64, 36
2, 52540, Control_c, 0, 64, 35
2, 52555, Control_c, 0, 64, 33
2, 52570, Control_c, 0, 64, 32
2, 52585, Control_c, 0, 64, 30
2, 52601, Control_c, 0, 64, 27
2, 52615, Control_c, 0, 64, 23
2, 52630, Control_c, 0, 64, 18
2, 52646, Control_c, 0, 64, 15
2, 52661, Control_c, 0, 64, 11
2, 52677, Control_c, 0, 64, 0
2, 52787, Note_on_c, 0, 57, 45
2, 52906, Note_on_c, 0, 57, 0
2, 53054, Note_on_c, 0, 59, 54
2, 53157, Note_on_c, 0, 59, 0
2, 53172, Note_on_c, 0, 60, 59
2, 53297, Note_on_c, 0, 60, 0
2, 53308, Note_on_c, 0, 57, 62
2, 53427, Note_on_c, 0, 59, 73
2, 53430, Note_on_c, 0, 57, 0
2, 53560, Note_on_c, 0, 60, 78
2, 53571, Note_on_c, 0, 59, 0
2, 53675, Note_on_c, 0, 62, 74
2, 53691, Note_on_c, 0, 60, 0
2, 53804, Note_on_c, 0, 59, 76
2, 53817, Note_on_c, 0, 62, 0
2, 53903, Note_on_c, 0, 60, 78
2, 53936, Note_on_c, 0, 59, 0
2, 54055, Note_on_c, 0, 62, 75
2, 54083, Note_on_c, 0, 60, 0
2, 54213, Note_on_c, 0, 62, 0
2, 54354, Note_on_c, 0, 60, 62
2, 54472, Note_on_c, 0, 60, 0
2, 54627, Note_on_c, 0, 59, 58
2, 54763, Note_on_c, 0, 59, 0
2, 54897, Note_on_c, 0, 64, 53
2, 55034, Note_on_c, 0, 64, 0
2, 55168, Note_on_c, 0, 57, 54
2, 55448, Note_on_c, 0, 64, 58
2, 55475, Note_on_c, 0, 57, 0
2, 55550, Note_on_c, 0, 63, 64
2, 55554, Note_on_c, 0, 64, 0
2, 55686, Note_on_c, 0, 64, 64
2, 55691, Note_on_c, 0, 55, 50
2, 55699, Note_on_c, 0, 63, 0
2, 55825, Note_on_c, 0, 64, 0
2, 55840, Note_on_c, 0, 55, 0
2, 55954, Note_on_c, 0, 66, 70
2, 55955, Note_on_c, 0, 54, 58
2, 56114, Note_on_c, 0, 66, 0
2, 56145, Note_on_c, 0, 54, 0
2, 56220, Note_on_c, 0, 67, 73
2, 56226, Note_on_c, 0, 52, 54
2, 56372, Note_on_c, 0, 52, 0
2, 56373, Note_on_c, 0, 67, 0
2, 56479, Note_on_c, 0, 60, 58
2, 56480, Note_on_c, 0, 67, 73
2, 56582, Note_on_c, 0, 60, 0
2, 56597, Note_on_c, 0, 66, 74
2, 56619, Note_on_c, 0, 67, 0
2, 56724, Note_on_c, 0, 67, 82
2, 56736, Note_on_c, 0, 59, 59
2, 56753, Note_on_c, 0, 66, 0
2, 56844, Note_on_c, 0, 59, 0
2, 56885, Note_on_c, 0, 67, 0
2, 56977, Note_on_c, 0, 69, 75
2, 56993, Note_on_c, 0, 57, 52
2, 57066, Note_on_c, 0, 57, 0
2, 57140, Note_on_c, 0, 69, 0
2, 57235, Note_on_c, 0, 55, 57
2, 57235, Note_on_c, 0, 71, 73
2, 57342, Note_on_c, 0, 55, 0
2, 57359, Note_on_c, 0, 69, 76
2, 57369, Note_on_c, 0, 54, 50
2, 57386, Note_on_c, 0, 71, 0
2, 57464, Note_on_c, 0, 54, 0
2, 57472, Note_on_c, 0, 67, 73
2, 57483, Note_on_c, 0, 52, 44
2, 57489, Note_on_c, 0, 69, 0
2, 57578, Note_on_c, 0, 69, 83
2, 57582, Note_on_c, 0, 52, 0
2, 57593, Note_on_c, 0, 54, 57
2, 57593, Note_on_c, 0, 67, 0
2, 57716, Note_on_c, 0, 54, 0
2, 57719, Note_on_c, 0, 71, 80
2, 57737, Note_on_c, 0, 55, 53
2, 57750, Note_on_c, 0, 69, 0
2, 57838, Note_on_c, 0, 55, 0
2, 57867, Note_on_c, 0, 71, 0
2, 57976, Note_on_c, 0, 72, 80
2, 57987, Note_on_c, 0, 57, 55
2, 58089, Note_on_c, 0, 57, 0
2, 58091, Note_on_c, 0, 72, 0
2, 58249, Note_on_c, 0, 63, 73
2, 58261, Note_on_c, 0, 59, 50
2, 58318, Note_on_c, 0, 59, 0
2, 58364, Note_on_c, 0, 57, 46
2, 58394, Note_on_c, 0, 63, 0
2, 58467, Note_on_c, 0, 57, 0
2, 58505, Note_on_c, 0, 59, 59
2, 58508, Note_on_c, 0, 55, 43
2, 58590, Note_on_c, 0, 55, 0
2, 58602, Note_on_c, 0, 59, 0
2, 58614, Note_on_c, 0, 57, 54
2, 58752, Note_on_c, 0, 57, 0
2, 58766, Note_on_c, 0, 59, 51
2, 58858, Note_on_c, 0, 59, 0
2, 59024, Note_on_c, 0, 64, 50
2, 59038, Note_on_c, 0, 60, 47
2, 59157, Note_on_c, 0, 64, 0
2, 59287, Note_on_c, 0, 66, 56
2, 59402, Note_on_c, 0, 67, 60
2, 59409, Note_on_c, 0, 66, 0
2, 59505, Note_on_c, 0, 67, 0
2, 59531, Note_on_c, 0, 64, 61
2, 59550, Note_on_c, 0, 60, 0
2, 59553, Note_on_c, 0, 59, 48
2, 59643, Note_on_c, 0, 59, 0
2, 59653, Note_on_c, 0, 66, 70
2, 59659, Note_on_c, 0, 57, 52
2, 59677, Note_on_c, 0, 64, 0
2, 59778, Note_on_c, 0, 67, 73
2, 59785, Note_on_c, 0, 57, 0
2, 59788, Note_on_c, 0, 59, 56
2, 59808, Note_on_c, 0, 66, 0
2, 59850, Note_on_c, 0, 59, 0
2, 59886, Note_on_c, 0, 69, 77
2, 59904, Note_on_c, 0, 67, 0
2, 60009, Note_on_c, 0, 66, 76
2, 60011, Note_on_c, 0, 64, 55
2, 60046, Note_on_c, 0, 69, 0
2, 60116, Note_on_c, 0, 67, 78
2, 60144, Note_on_c, 0, 66, 0
2, 60261, Note_on_c, 0, 69, 79
2, 60301, Note_on_c, 0, 67, 0
2, 60415, Note_on_c, 0, 69, 0
2, 60529, Note_on_c, 0, 67, 64
2, 60549, Note_on_c, 0, 62, 43
2, 60566, Note_on_c, 0, 64, 0
2, 60621, Note_on_c, 0, 67, 0
2, 60622, Note_on_c, 0, 62, 0
2, 60642, Note_on_c, 0, 61, 50
2, 60706, Note_on_c, 0, 61, 0
2, 60792, Note_on_c, 0, 66, 62
2, 60800, Note_on_c, 0, 62, 48
2, 60935, Note_on_c, 0, 66, 0
2, 61063, Note_on_c, 0, 71, 59
2, 61201, Note_on_c, 0, 71, 0
2, 61335, Note_on_c, 0, 64, 57
2, 61579, Note_on_c, 0, 64, 0
2, 61589, Note_on_c, 0, 66, 58
2, 61592, Note_on_c, 0, 62, 0
2, 61604, Note_on_c, 0, 60, 49
2, 61689, Note_on_c, 0, 60, 0
2, 61705, Note_on_c, 0, 68, 69
2, 61708, Note_on_c, 0, 59, 52
2, 61752, Note_on_c, 0, 66, 0
2, 61756, Note_on_c, 0, 59, 0
2, 61827, Note_on_c, 0, 68, 0
2, 61829, Note_on_c, 0, 69, 71
2, 61838, Note_on_c, 0, 60, 53
2, 61940, Note_on_c, 0, 71, 72
2, 61954, Note_on_c, 0, 69, 0
2, 62075, Note_on_c, 0, 72, 75
2, 62087, Note_on_c, 0, 71, 0
2, 62182, Note_on_c, 0, 74, 75
2, 62204, Note_on_c, 0, 72, 0
2, 62261, Note_on_c, 0, 60, 0
2, 62310, Note_on_c, 0, 76, 72
2, 62342, Note_on_c, 0, 74, 0
2, 62411, Note_on_c, 0, 76, 0
2, 62429, Note_on_c, 0, 69, 65
2, 62499, Note_on_c, 0, 69, 0
2, 62570, Note_on_c, 0, 67, 59
2, 62570, Note_on_c, 0, 69, 59
2, 62635, Note_on_c, 0, 69, 0
2, 62656, Note_on_c, 0, 67, 0
2, 62673, Note_on_c, 0, 65, 63
2, 62789, Note_on_c, 0, 65, 0
2, 62812, Note_on_c, 0, 68, 62
2, 62825, Note_on_c, 0, 64, 56
2, 62919, Note_on_c, 0, 64, 0
2, 62943, Note_on_c, 0, 62, 56
2, 63038, Note_on_c, 0, 62, 0
2, 63068, Note_on_c, 0, 60, 55
2, 63139, Note_on_c, 0, 60, 0
2, 63169, Note_on_c, 0, 59, 53
2, 63284, Note_on_c, 0, 59, 0
2, 63295, Note_on_c, 0, 68, 0
2, 63308, Note_on_c, 0, 69, 58
2, 63310, Note_on_c, 0, 60, 63
2, 63390, Note_on_c, 0, 60, 0
2, 63400, Note_on_c, 0, 69, 0
2, 63406, Note_on_c, 0, 59, 68
2, 63430, Note_on_c, 0, 59, 0
2, 63554, Note_on_c, 0, 60, 64
2, 63555, Note_on_c, 0, 69, 68
2, 63561, Note_on_c, 0, 45, 70
2, 63661, Note_on_c, 0, 44, 77
2, 63665, Note_on_c, 0, 45, 0
2, 63666, Note_on_c, 0, 69, 0
2, 63804, Note_on_c, 0, 45, 84
2, 63804, Note_on_c, 0, 67, 75
2, 63828, Note_on_c, 0, 44, 0
2, 63863, Note_on_c, 0, 60, 0
2, 63919, Note_on_c, 0, 67, 0
2, 63938, Note_on_c, 0, 45, 0
2, 64081, Note_on_c, 0, 65, 67
2, 64082, Note_on_c, 0, 47, 86
2, 64082, Note_on_c, 0, 62, 64
2, 64185, Note_on_c, 0, 62, 0
2, 64196, Note_on_c, 0, 65, 0
2, 64219, Note_on_c, 0, 47, 0
2, 64349, Note_on_c, 0, 64, 76
2, 64350, Note_on_c, 0, 48, 86
2, 64456, Note_on_c, 0, 64, 0
2, 64472, Note_on_c, 0, 62, 75
2, 64490, Note_on_c, 0, 48, 0
2, 64548, Note_on_c, 0, 62, 0
2, 64606, Note_on_c, 0, 48, 83
2, 64607, Note_on_c, 0, 64, 72
2, 64607, Note_on_c, 0, 72, 74
2, 64707, Note_on_c, 0, 47, 82
2, 64715, Note_on_c, 0, 72, 0
2, 64733, Note_on_c, 0, 48, 0
2, 64847, Note_on_c, 0, 48, 87
2, 64851, Note_on_c, 0, 71, 78
2, 64876, Note_on_c, 0, 47, 0
2, 64960, Note_on_c, 0, 64, 0
2, 64996, Note_on_c, 0, 71, 0
2, 65005, Note_on_c, 0, 48, 0
2, 65124, Note_on_c, 0, 50, 82
2, 65130, Note_on_c, 0, 65, 71
2, 65132, Note_on_c, 0, 69, 71
2, 65236, Note_on_c, 0, 69, 0
2, 65265, Note_on_c, 0, 50, 0
2, 65389, Note_on_c, 0, 68, 71
2, 65396, Note_on_c, 0, 52, 86
2, 65438, Note_on_c, 0, 65, 0
2, 65505, Note_on_c, 0, 68, 0
2, 65508, Note_on_c, 0, 50, 82
2, 65515, Note_on_c, 0, 66, 71
2, 65535, Note_on_c, 0, 52, 0
2, 65571, Note_on_c, 0, 66, 0
2, 65630, Note_on_c, 0, 48, 84
2, 65641, Note_on_c, 0, 76, 77
2, 65646, Note_on_c, 0, 64, 72
2, 65649, Note_on_c, 0, 50, 0
2, 65703, Note_on_c, 0, 76, 0
2, 65738, Note_on_c, 0, 50, 83
2, 65754, Note_on_c, 0, 66, 79
2, 65768, Note_on_c, 0, 48, 0
2, 65885, Note_on_c, 0, 64, 0
2, 65896, Note_on_c, 0, 52, 92
2, 65901, Note_on_c, 0, 74, 71
2, 65904, Note_on_c, 0, 68, 74
2, 65924, Note_on_c, 0, 50, 0
2, 65943, Note_on_c, 0, 66, 0
2, 66004, Note_on_c, 0, 68, 0
2, 66028, Note_on_c, 0, 52, 0
2, 66042, Note_on_c, 0, 74, 0
2, 66167, Note_on_c, 0, 53, 91
2, 66171, Note_on_c, 0, 72, 70
2, 66173, Note_on_c, 0, 69, 68
2, 66249, Note_on_c, 0, 72, 0
2, 66291, Note_on_c, 0, 69, 0
2, 66300, Note_on_c, 0, 53, 0
2, 66437, Note_on_c, 0, 44, 79
2, 66446, Note_on_c, 0, 71, 69
2, 66574, Note_on_c, 0, 71, 0
2, 66583, Note_on_c, 0, 72, 65
2, 66584, Note_on_c, 0, 44, 0
2, 66686, Note_on_c, 0, 72, 0
2, 66717, Note_on_c, 0, 40, 51
2, 66731, Note_on_c, 0, 74, 52
2, 66836, Note_on_c, 0, 40, 0
2, 66848, Note_on_c, 0, 74, 0
2, 66856, Note_on_c, 0, 71, 56
2, 66972, Note_on_c, 0, 71, 0
2, 66992, Note_on_c, 0, 72, 59
2, 67088, Note_on_c, 0, 72, 0
2, 67096, Note_on_c, 0, 71, 61
2, 67206, Note_on_c, 0, 71, 0
2, 67220, Note_on_c, 0, 45, 50
2, 67227, Note_on_c, 0, 69, 59
2, 67287, Note_on_c, 0, 45, 0
2, 67300, Note_on_c, 0, 69, 0
2, 67341, Note_on_c, 0, 72, 62
2, 67452, Note_on_c, 0, 72, 0
2, 67479, Note_on_c, 0, 47, 55
2, 67479, Note_on_c, 0, 67, 49
2, 67483, Note_on_c, 0, 74, 56
2, 67575, Note_on_c, 0, 47, 0
2, 67583, Note_on_c, 0, 48, 61
2, 67589, Note_on_c, 0, 74, 0
2, 67606, Note_on_c, 0, 76, 59
2, 67715, Note_on_c, 0, 45, 65
2, 67725, Note_on_c, 0, 48, 0
2, 67727, Note_on_c, 0, 77, 62
2, 67741, Note_on_c, 0, 76, 0
2, 67824, Note_on_c, 0, 47, 74
2, 67836, Note_on_c, 0, 77, 0
2, 67844, Note_on_c, 0, 74, 62
2, 67845, Note_on_c, 0, 45, 0
2, 67915, Note_on_c, 0, 67, 0
2, 67952, Note_on_c, 0, 74, 0
2, 67963, Note_on_c, 0, 49, 81
2, 67983, Note_on_c, 0, 47, 0
2, 67984, Note_on_c, 0, 76, 67
2, 68084, Note_on_c, 0, 50, 79
2, 68096, Note_on_c, 0, 65, 63
2, 68114, Note_on_c, 0, 49, 0
2, 68136, Note_on_c, 0, 65, 0
2, 68165, Control_c, 0, 64, 9
2, 68180, Control_c, 0, 64, 12
2, 68196, Control_c, 0, 64, 15
2, 68211, Control_c, 0, 64, 16
2, 68212, Note_on_c, 0, 47, 80
2, 68226, Note_on_c, 0, 64, 66
2, 68234, Note_on_c, 0, 50, 0
2, 68242, Control_c, 0, 64, 17
2, 68310, Note_on_c, 0, 64, 0
2, 68319, Note_on_c, 0, 49, 77
2, 68340, Note_on_c, 0, 67, 69
2, 68352, Note_on_c, 0, 47, 0
2, 68467, Note_on_c, 0, 50, 79
2, 68489, Note_on_c, 0, 49, 0
2, 68495, Note_on_c, 0, 66, 60
2, 68502, Note_on_c, 0, 67, 0
2, 68601, Note_on_c, 0, 50, 0
2, 68739, Note_on_c, 0, 69, 65
2, 68746, Note_on_c, 0, 48, 67
2, 68760, Note_on_c, 0, 66, 0
2, 68782, Note_on_c, 0, 76, 0
2, 68824, Note_on_c, 0, 69, 0
2, 68832, Note_on_c, 0, 48, 0
2, 68990, Note_on_c, 0, 47, 64
2, 68997, Note_on_c, 0, 71, 62
2, 68998, Note_on_c, 0, 68, 55
2, 69068, Note_on_c, 0, 47, 0
2, 69086, Control_c, 0, 64, 16
2, 69103, Note_on_c, 0, 72, 63
2, 69106, Note_on_c, 0, 71, 0
2, 69185, Note_on_c, 0, 72, 0
2, 69250, Note_on_c, 0, 74, 58
2, 69252, Note_on_c, 0, 52, 62
2, 69289, Note_on_c, 0, 68, 0
2, 69361, Note_on_c, 0, 52, 0
2, 69533, Note_on_c, 0, 69, 53
2, 69539, Note_on_c, 0, 45, 55
2, 69598, Note_on_c, 0, 74, 0
2, 69633, Note_on_c, 0, 69, 0
2, 69666, Note_on_c, 0, 45, 0
2, 69795, Note_on_c, 0, 52, 63
2, 69801, Note_on_c, 0, 72, 61
2, 69807, Control_c, 0, 64, 13
2, 69807, Note_on_c, 0, 47, 52
2, 69811, Note_on_c, 0, 69, 50
2, 69822, Control_c, 0, 64, 11
2, 69838, Control_c, 0, 64, 9
2, 69853, Control_c, 0, 64, 0
2, 69894, Note_on_c, 0, 69, 0
2, 69895, Note_on_c, 0, 72, 0
2, 69905, Note_on_c, 0, 51, 75
2, 69923, Note_on_c, 0, 52, 0
2, 70032, Note_on_c, 0, 49, 70
2, 70033, Note_on_c, 0, 52, 75
2, 70040, Note_on_c, 0, 71, 67
2, 70046, Note_on_c, 0, 67, 61
2, 70066, Note_on_c, 0, 47, 0
2, 70066, Note_on_c, 0, 51, 0
2, 70119, Note_on_c, 0, 49, 0
2, 70149, Note_on_c, 0, 67, 0
2, 70161, Note_on_c, 0, 71, 0
2, 70202, Note_on_c, 0, 52, 0
2, 70303, Note_on_c, 0, 51, 72
2, 70306, Note_on_c, 0, 54, 85
2, 70307, Note_on_c, 0, 66, 68
2, 70317, Note_on_c, 0, 69, 67
2, 70415, Note_on_c, 0, 66, 0
2, 70418, Note_on_c, 0, 69, 0
2, 70461, Note_on_c, 0, 54, 0
2, 70474, Note_on_c, 0, 51, 0
2, 70571, Note_on_c, 0, 55, 87
2, 70571, Note_on_c, 0, 64, 71
2, 70574, Note_on_c, 0, 67, 70
2, 70577, Note_on_c, 0, 52, 79
2, 70655, Note_on_c, 0, 64, 0
2, 70673, Note_on_c, 0, 67, 0
2, 70697, Control_c, 0, 64, 12
2, 70713, Control_c, 0, 64, 15
2, 70718, Note_on_c, 0, 52, 0
2, 70727, Control_c, 0, 64, 17
2, 70740, Note_on_c, 0, 55, 0
2, 70742, Control_c, 0, 64, 18
2, 70758, Control_c, 0, 64, 19
2, 70773, Control_c, 0, 64, 20
2, 70788, Control_c, 0, 64, 21
2, 70819, Control_c, 0, 64, 21
2, 70830, Note_on_c, 0, 76, 71
2, 70836, Note_on_c, 0, 55, 85
2, 70838, Note_on_c, 0, 72, 71
2, 70842, Note_on_c, 0, 52, 68
2, 70850, Control_c, 0, 64, 22
2, 70864, Control_c, 0, 64, 23
2, 70880, Control_c, 0, 64, 23
2, 70910, Control_c, 0, 64, 24
2, 70933, Note_on_c, 0, 76, 0
2, 70935, Note_on_c, 0, 54, 85
2, 70936, Note_on_c, 0, 51, 70
2, 70958, Note_on_c, 0, 52, 0
2, 70960, Note_on_c, 0, 72, 0
2, 70964, Note_on_c, 0, 55, 0
2, 71048, Control_c, 0, 64, 24
2, 71072, Note_on_c, 0, 52, 78
2, 71073, Note_on_c, 0, 55, 85
2, 71077, Note_on_c, 0, 74, 73
2, 71078, Note_on_c, 0, 71, 72
2, 71100, Note_on_c, 0, 54, 0
2, 71108, Control_c, 0, 64, 24
2, 71124, Control_c, 0, 64, 24
2, 71129, Note_on_c, 0, 51, 0
2, 71168, Note_on_c, 0, 52, 0
2, 71204, Note_on_c, 0, 71, 0
2, 71208, Note_on_c, 0, 74, 0
2, 71244, Note_on_c, 0, 55, 0
2, 71332, Note_on_c, 0, 54, 75
2, 71338, Note_on_c, 0, 57, 89
2, 71343, Note_on_c, 0, 72, 73
2, 71344, Note_on_c, 0, 69, 65
2, 71417, Note_on_c, 0, 69, 0
2, 71421, Note_on_c, 0, 72, 0
2, 71477, Note_on_c, 0, 57, 0
2, 71482, Note_on_c, 0, 54, 0
2, 71593, Note_on_c, 0, 55, 75
2, 71593, Note_on_c, 0, 71, 68
2, 71596, Note_on_c, 0, 59, 84
2, 71598, Note_on_c, 0, 67, 65
2, 71701, Note_on_c, 0, 67, 0
2, 71707, Note_on_c, 0, 57, 79
2, 71708, Note_on_c, 0, 66, 69
2, 71722, Note_on_c, 0, 55, 0
2, 71785, Note_on_c, 0, 59, 0
2, 71837, Note_on_c, 0, 64, 72
2, 71840, Note_on_c, 0, 55, 83
2, 71851, Note_on_c, 0, 66, 0
2, 71867, Note_on_c, 0, 57, 0
2, 71950, Note_on_c, 0, 57, 90
2, 71959, Note_on_c, 0, 66, 74
2, 71963, Note_on_c, 0, 64, 0
2, 72099, Note_on_c, 0, 59, 89
2, 72109, Note_on_c, 0, 57, 0
2, 72114, Note_on_c, 0, 67, 76
2, 72136, Note_on_c, 0, 66, 0
2, 72139, Note_on_c, 0, 55, 0
2, 72261, Note_on_c, 0, 59, 0
2, 72325, Control_c, 0, 64, 24
2, 72369, Note_on_c, 0, 60, 87
2, 72376, Note_on_c, 0, 57, 78
2, 72390, Note_on_c, 0, 69, 71
2, 72394, Note_on_c, 0, 66, 65
2, 72410, Note_on_c, 0, 67, 0
2, 72473, Note_on_c, 0, 60, 0
2, 72475, Note_on_c, 0, 71, 0
2, 72476, Control_c, 0, 64, 24
2, 72491, Control_c, 0, 64, 28
2, 72495, Note_on_c, 0, 57, 0
2, 72506, Control_c, 0, 64, 31
2, 72523, Control_c, 0, 64, 33
2, 72538, Control_c, 0, 64, 34
2, 72555, Control_c, 0, 64, 35
2, 72569, Control_c, 0, 64, 36
2, 72584, Control_c, 0, 64, 36
2, 72609, Note_on_c, 0, 69, 0
2, 72647, Note_on_c, 0, 51, 89
2, 72653, Note_on_c, 0, 59, 66
2, 72674, Note_on_c, 0, 66, 0
2, 72729, Control_c, 0, 64, 35
2, 72744, Control_c, 0, 64, 33
2, 72760, Control_c, 0, 64, 32
2, 72774, Control_c, 0, 64, 30
2, 72789, Control_c, 0, 64, 27
2, 72805, Control_c, 0, 64, 26
2, 72815, Note_on_c, 0, 51, 0
2, 72820, Control_c, 0, 64, 25
2, 72836, Control_c, 0, 64, 24
2, 72851, Control_c, 0, 64, 24
2, 72907, Note_on_c, 0, 59, 0
2, 72910, Note_on_c, 0, 64, 54
2, 72919, Note_on_c, 0, 67, 55
2, 72921, Note_on_c, 0, 47, 69
2, 73015, Note_on_c, 0, 64, 0
2, 73022, Note_on_c, 0, 63, 52
2, 73033, Note_on_c, 0, 66, 52
2, 73034, Note_on_c, 0, 45, 66
2, 73053, Note_on_c, 0, 63, 0
2, 73057, Note_on_c, 0, 67, 0
2, 73076, Note_on_c, 0, 66, 0
2, 73165, Note_on_c, 0, 43, 69
2, 73167, Note_on_c, 0, 64, 53
2, 73177, Note_on_c, 0, 45, 0
2, 73184, Control_c, 0, 64, 24
2, 73185, Note_on_c, 0, 67, 55
2, 73220, Note_on_c, 0, 47, 0
2, 73232, Note_on_c, 0, 67, 0
2, 73234, Note_on_c, 0, 43, 0
2, 73245, Control_c, 0, 64, 25
2, 73260, Control_c, 0, 64, 27
2, 73276, Control_c, 0, 64, 28
2, 73286, Note_on_c, 0, 69, 61
2, 73291, Control_c, 0, 64, 29
2, 73305, Control_c, 0, 64, 29
2, 73321, Control_c, 0, 64, 30
2, 73421, Note_on_c, 0, 40, 59
2, 73423, Note_on_c, 0, 52, 64
2, 73428, Control_c, 0, 64, 30
2, 73435, Note_on_c, 0, 69, 0
2, 73435, Note_on_c, 0, 71, 63
2, 73475, Note_on_c, 0, 40, 0
2, 73513, Control_c, 0, 64, 31
2, 73520, Note_on_c, 0, 52, 0
2, 73522, Note_on_c, 0, 71, 0
2, 73528, Control_c, 0, 64, 31
2, 73537, Note_on_c, 0, 64, 0
2, 73543, Control_c, 0, 64, 32
2, 73555, Note_on_c, 0, 67, 60
2, 73573, Control_c, 0, 64, 32
2, 73683, Note_on_c, 0, 45, 50
2, 73686, Note_on_c, 0, 54, 68
2, 73689, Note_on_c, 0, 72, 62
2, 73691, Note_on_c, 0, 67, 0
2, 73709, Control_c, 0, 64, 33
2, 73789, Note_on_c, 0, 54, 0
2, 73800, Note_on_c, 0, 55, 59
2, 73917, Note_on_c, 0, 55, 0
2, 73932, Note_on_c, 0, 45, 0
2, 73939, Note_on_c, 0, 52, 69
2, 73941, Note_on_c, 0, 69, 62
2, 73999, Control_c, 0, 64, 33
2, 74052, Note_on_c, 0, 54, 75
2, 74053, Note_on_c, 0, 52, 0
2, 74056, Note_on_c, 0, 69, 0
2, 74059, Note_on_c, 0, 63, 67
2, 74171, Note_on_c, 0, 47, 68
2, 74180, Note_on_c, 0, 55, 75
2, 74189, Note_on_c, 0, 64, 71
2, 74195, Note_on_c, 0, 63, 0
2, 74301, Note_on_c, 0, 57, 81
2, 74303, Note_on_c, 0, 55, 0
2, 74310, Note_on_c, 0, 54, 0
2, 74419, Note_on_c, 0, 54, 83
2, 74425, Note_on_c, 0, 71, 74
2, 74429, Control_c, 0, 64, 34
2, 74437, Note_on_c, 0, 57, 0
2, 74445, Control_c, 0, 64, 36
2, 74460, Control_c, 0, 64, 38
2, 74462, Note_on_c, 0, 72, 0
2, 74474, Control_c, 0, 64, 41
2, 74490, Control_c, 0, 64, 45
2, 74505, Control_c, 0, 64, 50
2, 74520, Control_c, 0, 64, 54
2, 74535, Control_c, 0, 64, 57
2, 74535, Note_on_c, 0, 55, 86
2, 74550, Control_c, 0, 64, 58
2, 74564, Note_on_c, 0, 54, 0
2, 74566, Control_c, 0, 64, 59
2, 74581, Control_c, 0, 64, 60
2, 74595, Control_c, 0, 64, 63
2, 74599, Note_on_c, 0, 55, 0
2, 74611, Control_c, 0, 64, 65
2, 74626, Control_c, 0, 64, 67
2, 74663, Note_on_c, 0, 47, 0
2, 74672, Control_c, 0, 64, 66
2, 74679, Note_on_c, 0, 48, 66
2, 74688, Control_c, 0, 64, 65
2, 74688, Note_on_c, 0, 57, 85
2, 74694, Note_on_c, 0, 69, 69
2, 74702, Control_c, 0, 64, 64
2, 74717, Control_c, 0, 64, 63
2, 74733, Control_c, 0, 64, 62
2, 74748, Control_c, 0, 64, 61
2, 74764, Control_c, 0, 64, 58
2, 74779, Control_c, 0, 64, 54
2, 74793, Control_c, 0, 64, 49
2, 74795, Note_on_c, 0, 57, 0
2, 74802, Note_on_c, 0, 48, 0
2, 74802, Note_on_c, 0, 71, 0
2, 74809, Control_c, 0, 64, 47
2, 74813, Note_on_c, 0, 67, 72
2, 74816, Note_on_c, 0, 69, 0
2, 74824, Control_c, 0, 64, 46
2, 74840, Control_c, 0, 64, 44
2, 74855, Control_c, 0, 64, 39
2, 74869, Control_c, 0, 64, 31
2, 74885, Control_c, 0, 64, 24
2, 74900, Control_c, 0, 64, 18
2, 74914, Control_c, 0, 64, 13
2, 74930, Control_c, 0, 64, 0
2, 74935, Note_on_c, 0, 55, 80
2, 74941, Note_on_c, 0, 47, 62
2, 74944, Note_on_c, 0, 69, 65
2, 74953, Note_on_c, 0, 67, 0
2, 75035, Note_on_c, 0, 47, 0
2, 75035, Note_on_c, 0, 69, 0
2, 75045, Note_on_c, 0, 55, 0
2, 75059, Note_on_c, 0, 71, 69
2, 75175, Note_on_c, 0, 71, 0
2, 75191, Note_on_c, 0, 72, 66
2, 75197, Control_c, 0, 64, 24
2, 75202, Note_on_c, 0, 54, 74
2, 75209, Note_on_c, 0, 45, 55
2, 75213, Control_c, 0, 64, 39
2, 75227, Control_c, 0, 64, 50
2, 75243, Control_c, 0, 64, 58
2, 75257, Note_on_c, 0, 72, 0
2, 75258, Control_c, 0, 64, 62
2, 75262, Note_on_c, 0, 64, 0
2, 75273, Control_c, 0, 64, 64
2, 75289, Control_c, 0, 64, 65
2, 75295, Note_on_c, 0, 54, 0
2, 75304, Control_c, 0, 64, 66
2, 75319, Control_c, 0, 64, 67
2, 75334, Control_c, 0, 64, 66
2, 75349, Control_c, 0, 64, 66
2, 75364, Control_c, 0, 64, 65
2, 75379, Control_c, 0, 64, 65
2, 75394, Control_c, 0, 64, 64
2, 75410, Control_c, 0, 64, 64
2, 75410, Note_on_c, 0, 45, 0
2, 75425, Control_c, 0, 64, 63
2, 75440, Control_c, 0, 64, 61
2, 75455, Control_c, 0, 64, 59
2, 75467, Note_on_c, 0, 59, 66
2, 75470, Control_c, 0, 64, 57
2, 75473, Note_on_c, 0, 47, 53
2, 75486, Note_on_c, 0, 66, 51
2, 75489, Note_on_c, 0, 63, 51
2, 75531, Control_c, 0, 64, 57
2, 75546, Control_c, 0, 64, 56
2, 75546, Note_on_c, 0, 59, 0
2, 75562, Control_c, 0, 64, 56
2, 75568, Note_on_c, 0, 47, 0
2, 75569, Note_on_c, 0, 63, 0
2, 75574, Note_on_c, 0, 45, 55
2, 75577, Note_on_c, 0, 66, 0
2, 75592, Control_c, 0, 64, 55
2, 75608, Control_c, 0, 64, 54
2, 75623, Control_c, 0, 64, 53
2, 75637, Control_c, 0, 64, 52
2, 75653, Control_c, 0, 64, 51
2, 75668, Control_c, 0, 64, 50
2, 75698, Control_c, 0, 64, 50
2, 75703, Note_on_c, 0, 45, 0
2, 75717, Note_on_c, 0, 43, 52
2, 75717, Note_on_c, 0, 71, 60
2, 75719, Note_on_c, 0, 52, 53
2, 75721, Note_on_c, 0, 64, 56
2, 75760, Control_c, 0, 64, 49
2, 75828, Note_on_c, 0, 71, 0
2, 75842, Note_on_c, 0, 69, 61
2, 75946, Note_on_c, 0, 43, 0
2, 75970, Note_on_c, 0, 69, 0
2, 75980, Control_c, 0, 64, 50
2, 75980, Note_on_c, 0, 72, 64
2, 75986, Note_on_c, 0, 45, 45
2, 75995, Control_c, 0, 64, 50
2, 76011, Control_c, 0, 64, 51
2, 76026, Control_c, 0, 64, 51
2, 76035, Note_on_c, 0, 45, 0
2, 76039, Note_on_c, 0, 52, 0
2, 76042, Control_c, 0, 64, 52
2, 76057, Control_c, 0, 64, 52
2, 76071, Control_c, 0, 64, 53
2, 76087, Control_c, 0, 64, 53
2, 76098, Note_on_c, 0, 71, 61
2, 76102, Control_c, 0, 64, 54
2, 76151, Note_on_c, 0, 72, 0
2, 76235, Note_on_c, 0, 71, 0
2, 76242, Note_on_c, 0, 47, 52
2, 76247, Note_on_c, 0, 69, 55
2, 76263, Note_on_c, 0, 59, 49
2, 76269, Control_c, 0, 64, 54
2, 76314, Control_c, 0, 64, 55
2, 76326, Note_on_c, 0, 59, 0
2, 76355, Note_on_c, 0, 69, 0
2, 76356, Note_on_c, 0, 67, 53
2, 76395, Note_on_c, 0, 67, 0
2, 76421, Control_c, 0, 64, 54
2, 76436, Control_c, 0, 64, 53
2, 76452, Control_c, 0, 64, 53
2, 76467, Control_c, 0, 64, 52
2, 76482, Control_c, 0, 64, 52
2, 76501, Note_on_c, 0, 64, 0
2, 76506, Note_on_c, 0, 57, 52
2, 76512, Note_on_c, 0, 66, 48
2, 76524, Note_on_c, 0, 63, 47
2, 76528, Control_c, 0, 64, 51
2, 76549, Note_on_c, 0, 47, 0
2, 76550, Control_c, 0, 64, 51
2, 76566, Control_c, 0, 64, 50
2, 76577, Note_on_c, 0, 57, 0
2, 76581, Control_c, 0, 64, 50
2, 76592, Note_on_c, 0, 63, 0
2, 76596, Control_c, 0, 64, 49
2, 76605, Note_on_c, 0, 66, 0
2, 76612, Control_c, 0, 64, 48
2, 76626, Control_c, 0, 64, 47
2, 76628, Note_on_c, 0, 67, 48
2, 76643, Control_c, 0, 64, 46
2, 76658, Control_c, 0, 64, 45
2, 76689, Control_c, 0, 64, 45
2, 76748, Note_on_c, 0, 67, 0
2, 76749, Control_c, 0, 64, 45
2, 76765, Control_c, 0, 64, 46
2, 76770, Note_on_c, 0, 64, 46
2, 76780, Control_c, 0, 64, 49
2, 76786, Note_on_c, 0, 52, 33
2, 76790, Note_on_c, 0, 56, 47
2, 76794, Control_c, 0, 64, 51
2, 76810, Control_c, 0, 64, 54
2, 76825, Control_c, 0, 64, 56
2, 76840, Control_c, 0, 64, 58
2, 76855, Control_c, 0, 64, 59
2, 76855, Note_on_c, 0, 64, 0
2, 76870, Control_c, 0, 64, 60
2, 76885, Note_on_c, 0, 56, 0
2, 76899, Note_on_c, 0, 52, 0
2, 76916, Control_c, 0, 64, 59
2, 76932, Control_c, 0, 64, 58
2, 76946, Control_c, 0, 64, 57
2, 76962, Control_c, 0, 64, 55
2, 76977, Control_c, 0, 64, 55
2, 76992, Control_c, 0, 64, 54
2, 77008, Control_c, 0, 64, 53
2, 77023, Control_c, 0, 64, 51
2, 77039, Control_c, 0, 64, 50
2, 77053, Control_c, 0, 64, 49
2, 77060, Note_on_c, 0, 52, 45
2, 77066, Note_on_c, 0, 76, 54
2, 77068, Control_c, 0, 64, 49
2, 77075, Note_on_c, 0, 50, 42
2, 77084, Control_c, 0, 64, 47
2, 77099, Control_c, 0, 64, 46
2, 77111, Note_on_c, 0, 52, 0
2, 77114, Control_c, 0, 64, 44
2, 77128, Note_on_c, 0, 50, 0
2, 77129, Control_c, 0, 64, 43
2, 77131, Note_on_c, 0, 76, 0
2, 77144, Control_c, 0, 64, 43
2, 77166, Note_on_c, 0, 77, 56
2, 77205, Control_c, 0, 64, 42
2, 77311, Note_on_c, 0, 77, 0
2, 77318, Note_on_c, 0, 76, 58
2, 77320, Note_on_c, 0, 48, 44
2, 77322, Note_on_c, 0, 54, 42
2, 77400, Note_on_c, 0, 76, 0
2, 77410, Note_on_c, 0, 48, 0
2, 77411, Note_on_c, 0, 54, 0
2, 77576, Note_on_c, 0, 74, 64
2, 77582, Note_on_c, 0, 47, 45
2, 77586, Note_on_c, 0, 56, 49
2, 77674, Note_on_c, 0, 47, 0
2, 77676, Note_on_c, 0, 74, 0
2, 77677, Note_on_c, 0, 56, 0
2, 77821, Control_c, 0, 64, 43
2, 77836, Control_c, 0, 64, 44
2, 77838, Note_on_c, 0, 72, 68
2, 77841, Note_on_c, 0, 45, 51
2, 77852, Control_c, 0, 64, 45
2, 77855, Note_on_c, 0, 57, 56
2, 77867, Control_c, 0, 64, 47
2, 77883, Control_c, 0, 64, 48
2, 77892, Note_on_c, 0, 45, 0
2, 77895, Control_c, 0, 64, 49
2, 77910, Control_c, 0, 64, 49
2, 77914, Note_on_c, 0, 72, 0
2, 77993, Note_on_c, 0, 57, 0
2, 78070, Control_c, 0, 64, 49
2, 78086, Control_c, 0, 64, 48
2, 78103, Note_on_c, 0, 59, 58
2, 78108, Note_on_c, 0, 72, 70
2, 78120, Note_on_c, 0, 64, 56
2, 78131, Control_c, 0, 64, 48
2, 78149, Note_on_c, 0, 59, 0
2, 78165, Note_on_c, 0, 64, 0
2, 78191, Control_c, 0, 64, 47
2, 78202, Note_on_c, 0, 72, 0
2, 78213, Note_on_c, 0, 74, 66
2, 78340, Note_on_c, 0, 72, 71
2, 78340, Note_on_c, 0, 74, 0
2, 78353, Note_on_c, 0, 57, 55
2, 78356, Note_on_c, 0, 66, 67
2, 78432, Note_on_c, 0, 66, 0
2, 78459, Note_on_c, 0, 57, 0
2, 78472, Note_on_c, 0, 72, 0
2, 78612, Note_on_c, 0, 71, 68
2, 78615, Note_on_c, 0, 67, 62
2, 78618, Note_on_c, 0, 55, 51
2, 78696, Note_on_c, 0, 67, 0
2, 78697, Note_on_c, 0, 71, 0
2, 78714, Note_on_c, 0, 55, 0
2, 78869, Note_on_c, 0, 54, 57
2, 78874, Note_on_c, 0, 69, 67
2, 78923, Note_on_c, 0, 54, 0
2, 78945, Note_on_c, 0, 69, 0
2, 78981, Note_on_c, 0, 71, 67
2, 79051, Control_c, 0, 64, 47
2, 79067, Note_on_c, 0, 71, 0
2, 79081, Control_c, 0, 64, 46
2, 79109, Note_on_c, 0, 72, 66
2, 79111, Note_on_c, 0, 57, 55
2, 79118, Note_on_c, 0, 55, 45
2, 79158, Control_c, 0, 64, 46
2, 79164, Note_on_c, 0, 55, 0
2, 79164, Note_on_c, 0, 57, 0
2, 79201, Note_on_c, 0, 72, 0
2, 79215, Note_on_c, 0, 71, 69
2, 79313, Note_on_c, 0, 71, 0
2, 79363, Note_on_c, 0, 59, 58
2, 79364, Note_on_c, 0, 69, 69
2, 79374, Note_on_c, 0, 54, 52
2, 79445, Note_on_c, 0, 59, 0
2, 79463, Note_on_c, 0, 54, 0
2, 79482, Note_on_c, 0, 69, 0
2, 79633, Note_on_c, 0, 67, 72
2, 79636, Control_c, 0, 64, 46
2, 79636, Note_on_c, 0, 52, 57
2, 79644, Note_on_c, 0, 61, 60
2, 79652, Control_c, 0, 64, 47
2, 79667, Control_c, 0, 64, 47
2, 79720, Note_on_c, 0, 61, 0
2, 79727, Note_on_c, 0, 52, 0
2, 79730, Note_on_c, 0, 67, 0
2, 79903, Note_on_c, 0, 78, 78
2, 79922, Note_on_c, 0, 50, 52
2, 79927, Control_c, 0, 64, 47
2, 79928, Note_on_c, 0, 62, 54
2, 79941, Control_c, 0, 64, 46
2, 79972, Control_c, 0, 64, 46
2, 80011, Note_on_c, 0, 62, 0
2, 80012, Note_on_c, 0, 50, 0
2, 80041, Note_on_c, 0, 78, 0
2, 80175, Note_on_c, 0, 62, 45
2, 80181, Note_on_c, 0, 52, 42
2, 80184, Note_on_c, 0, 81, 60
2, 80251, Note_on_c, 0, 81, 0
2, 80268, Note_on_c, 0, 62, 0
2, 80275, Control_c, 0, 64, 46
2, 80280, Note_on_c, 0, 52, 0
2, 80322, Control_c, 0, 64, 47
2, 80440, Note_on_c, 0, 50, 45
2, 80447, Note_on_c, 0, 64, 54
2, 80529, Note_on_c, 0, 64, 0
2, 80553, Note_on_c, 0, 50, 0
2, 80603, Control_c, 0, 64, 46
2, 80618, Control_c, 0, 64, 46
2, 80663, Control_c, 0, 64, 45
2, 80692, Note_on_c, 0, 76, 63
2, 80709, Note_on_c, 0, 48, 47
2, 80710, Note_on_c, 0, 66, 50
2, 80753, Note_on_c, 0, 66, 0
2, 80786, Note_on_c, 0, 48, 0
2, 80786, Note_on_c, 0, 76, 0
2, 80960, Note_on_c, 0, 74, 62
2, 80961, Note_on_c, 0, 47, 56
2, 80997, Note_on_c, 0, 67, 26
2, 81004, Note_on_c, 0, 47, 0
2, 81036, Note_on_c, 0, 74, 0
2, 81066, Note_on_c, 0, 72, 63
2, 81186, Note_on_c, 0, 67, 0
2, 81193, Note_on_c, 0, 72, 0
2, 81215, Note_on_c, 0, 76, 59
2, 81224, Note_on_c, 0, 55, 51
2, 81224, Note_on_c, 0, 59, 42
2, 81326, Note_on_c, 0, 74, 64
2, 81374, Note_on_c, 0, 76, 0
2, 81432, Note_on_c, 0, 59, 0
2, 81455, Note_on_c, 0, 57, 52
2, 81458, Note_on_c, 0, 72, 67
2, 81536, Note_on_c, 0, 74, 0
2, 81558, Note_on_c, 0, 71, 74
2, 81584, Note_on_c, 0, 72, 0
2, 81600, Control_c, 0, 64, 46
2, 81684, Note_on_c, 0, 74, 71
2, 81689, Note_on_c, 0, 55, 0
2, 81699, Note_on_c, 0, 71, 0
2, 81703, Note_on_c, 0, 54, 52
2, 81800, Note_on_c, 0, 72, 77
2, 81895, Note_on_c, 0, 57, 0
2, 81921, Note_on_c, 0, 74, 0
2, 81924, Note_on_c, 0, 54, 0
2, 81932, Note_on_c, 0, 71, 82
2, 81947, Note_on_c, 0, 55, 52
2, 81968, Note_on_c, 0, 72, 0
2, 82030, Note_on_c, 0, 71, 0
2, 82035, Control_c, 0, 64, 46
2, 82063, Note_on_c, 0, 52, 54
2, 82156, Control_c, 0, 64, 47
2, 82159, Note_on_c, 0, 52, 0
2, 82180, Note_on_c, 0, 72, 80
2, 82182, Note_on_c, 0, 50, 58
2, 82186, Control_c, 0, 64, 47
2, 82264, Note_on_c, 0, 72, 0
2, 82284, Note_on_c, 0, 50, 0
2, 82290, Note_on_c, 0, 48, 61
2, 82293, Control_c, 0, 64, 48
2, 82426, Note_on_c, 0, 74, 71
2, 82427, Note_on_c, 0, 48, 0
2, 82430, Control_c, 0, 64, 47
2, 82434, Note_on_c, 0, 47, 56
2, 82446, Control_c, 0, 64, 46
2, 82461, Control_c, 0, 64, 46
2, 82476, Control_c, 0, 64, 45
2, 82483, Note_on_c, 0, 47, 0
2, 82506, Control_c, 0, 64, 45
2, 82522, Control_c, 0, 64, 44
2, 82544, Note_on_c, 0, 71, 66
2, 82643, Control_c, 0, 64, 45
2, 82658, Control_c, 0, 64, 47
2, 82660, Note_on_c, 0, 52, 50
2, 82666, Note_on_c, 0, 71, 0
2, 82681, Control_c, 0, 64, 50
2, 82685, Note_on_c, 0, 69, 70
2, 82696, Control_c, 0, 64, 53
2, 82710, Note_on_c, 0, 74, 0
2, 82711, Control_c, 0, 64, 56
2, 82727, Control_c, 0, 64, 59
2, 82742, Control_c, 0, 64, 62
2, 82747, Note_on_c, 0, 69, 0
2, 82755, Note_on_c, 0, 52, 0
2, 82758, Control_c, 0, 64, 64
2, 82767, Note_on_c, 0, 67, 70
2, 82772, Control_c, 0, 64, 67
2, 82787, Control_c, 0, 64, 70
2, 82801, Note_on_c, 0, 67, 0
2, 82803, Control_c, 0, 64, 74
2, 82817, Control_c, 0, 64, 76
2, 82833, Control_c, 0, 64, 77
2, 82848, Control_c, 0, 64, 76
2, 82863, Control_c, 0, 64, 73
2, 82879, Control_c, 0, 64, 68
2, 82893, Control_c, 0, 64, 59
2, 82908, Control_c, 0, 64, 42
2, 82911, Note_on_c, 0, 55, 0
2, 82917, Note_on_c, 0, 48, 72
2, 82917, Note_on_c, 0, 76, 76
2, 82924, Control_c, 0, 64, 28
2, 82954, Control_c, 0, 64, 27
2, 82972, Note_on_c, 0, 76, 0
2, 82982, Note_on_c, 0, 78, 75
2, 83029, Control_c, 0, 64, 28
2, 83033, Note_on_c, 0, 76, 75
2, 83046, Note_on_c, 0, 78, 0
2, 83060, Control_c, 0, 64, 28
2, 83076, Control_c, 0, 64, 29
2, 83091, Control_c, 0, 64, 29
2, 83106, Control_c, 0, 64, 30
2, 83158, Note_on_c, 0, 78, 87
2, 83162, Note_on_c, 0, 74, 80
2, 83164, Note_on_c, 0, 45, 68
2, 83165, Note_on_c, 0, 57, 71
2, 83167, Note_on_c, 0, 48, 0
2, 83168, Note_on_c, 0, 76, 0
2, 83255, Note_on_c, 0, 79, 87
2, 83271, Note_on_c, 0, 76, 78
2, 83274, Note_on_c, 0, 78, 0
2, 83286, Note_on_c, 0, 74, 0
2, 83367, Note_on_c, 0, 57, 0
2, 83382, Note_on_c, 0, 74, 88
2, 83382, Note_on_c, 0, 78, 84
2, 83386, Note_on_c, 0, 76, 0
2, 83388, Note_on_c, 0, 50, 82
2, 83396, Control_c, 0, 64, 31
2, 83400, Note_on_c, 0, 45, 0
2, 83400, Note_on_c, 0, 79, 0
2, 83411, Control_c, 0, 64, 32
2, 83426, Control_c, 0, 64, 32
2, 83449, Control_c, 0, 64, 33
2, 83462, Note_on_c, 0, 78, 0
2, 83464, Control_c, 0, 64, 34
2, 83495, Control_c, 0, 64, 34
2, 83503, Note_on_c, 0, 73, 75
2, 83507, Note_on_c, 0, 78, 66
2, 83522, Note_on_c, 0, 74, 0
2, 83556, Control_c, 0, 64, 34
2, 83571, Control_c, 0, 64, 32
2, 83585, Control_c, 0, 64, 30
2, 83601, Control_c, 0, 64, 27
2, 83616, Control_c, 0, 64, 25
2, 83631, Control_c, 0, 64, 21
2, 83647, Control_c, 0, 64, 15
2, 83661, Control_c, 0, 64, 0
2, 83662, Note_on_c, 0, 72, 86
2, 83663, Note_on_c, 0, 73, 0
2, 83667, Note_on_c, 0, 38, 80
2, 83768, Control_c, 0, 64, 17
2, 83776, Note_on_c, 0, 78, 0
2, 83782, Control_c, 0, 64, 43
2, 83782, Note_on_c, 0, 79, 85
2, 83798, Control_c, 0, 64, 56
2, 83813, Control_c, 0, 64, 62
2, 83816, Note_on_c, 0, 72, 0
2, 83828, Control_c, 0, 64, 66
2, 83843, Note_on_c, 0, 79, 0
2, 83844, Control_c, 0, 64, 71
2, 83858, Control_c, 0, 64, 78
2, 83874, Control_c, 0, 64, 84
2, 83874, Note_on_c, 0, 38, 0
2, 83889, Control_c, 0, 64, 86
2, 83904, Control_c, 0, 64, 83
2, 83920, Control_c, 0, 64, 78
2, 83930, Note_on_c, 0, 79, 94
2, 83931, Note_on_c, 0, 43, 76
2, 83934, Note_on_c, 0, 71, 85
2, 83935, Control_c, 0, 64, 68
2, 83950, Control_c, 0, 64, 58
2, 83966, Control_c, 0, 64, 38
2, 83981, Control_c, 0, 64, 28
2, 83989, Note_on_c, 0, 50, 0
2, 83993, Note_on_c, 0, 43, 0
2, 83996, Control_c, 0, 64, 28
2, 84027, Control_c, 0, 64, 27
2, 84041, Note_on_c, 0, 71, 0
2, 84043, Control_c, 0, 64, 25
2, 84058, Control_c, 0, 64, 23
2, 84074, Control_c, 0, 64, 21
2, 84088, Control_c, 0, 64, 21
2, 84211, Note_on_c, 0, 67, 77
2, 84222, Note_on_c, 0, 71, 80
2, 84310, Note_on_c, 0, 67, 0
2, 84317, Note_on_c, 0, 69, 78
2, 84321, Note_on_c, 0, 71, 0
2, 84324, Control_c, 0, 64, 21
2, 84325, Note_on_c, 0, 72, 78
2, 84458, Note_on_c, 0, 67, 87
2, 84463, Note_on_c, 0, 71, 78
2, 84471, Note_on_c, 0, 69, 0
2, 84476, Control_c, 0, 64, 22
2, 84513, Note_on_c, 0, 72, 0
2, 84553, Control_c, 0, 64, 23
2, 84568, Control_c, 0, 64, 24
2, 84572, Note_on_c, 0, 71, 0
2, 84582, Control_c, 0, 64, 25
2, 84589, Note_on_c, 0, 67, 0
2, 84598, Control_c, 0, 64, 25
2, 84613, Control_c, 0, 64, 26
2, 84703, Control_c, 0, 64, 26
2, 84719, Control_c, 0, 64, 27
2, 84720, Note_on_c, 0, 65, 82
2, 84727, Note_on_c, 0, 69, 79
2, 84734, Control_c, 0, 64, 28
2, 84749, Control_c, 0, 64, 29
2, 84765, Control_c, 0, 64, 29
2, 84779, Control_c, 0, 64, 30
2, 84795, Control_c, 0, 64, 30
2, 84818, Note_on_c, 0, 65, 0
2, 84824, Control_c, 0, 64, 31
2, 84824, Note_on_c, 0, 69, 0
2, 84841, Control_c, 0, 64, 32
2, 84855, Control_c, 0, 64, 32
2, 84870, Control_c, 0, 64, 33
2, 84886, Control_c, 0, 64, 34
2, 84901, Control_c, 0, 64, 35
2, 84917, Control_c, 0, 64, 35
2, 84932, Control_c, 0, 64, 36
2, 84946, Control_c, 0, 64, 37
2, 84962, Control_c, 0, 64, 37
2, 84977, Control_c, 0, 64, 38
2, 85001, Control_c, 0, 64, 39
2, 85002, Note_on_c, 0, 67, 79
2, 85005, Note_on_c, 0, 64, 69
2, 85015, Control_c, 0, 64, 43
2, 85017, Note_on_c, 0, 79, 0
2, 85030, Control_c, 0, 64, 48
2, 85046, Control_c, 0, 64, 54
2, 85061, Control_c, 0, 64, 59
2, 85076, Control_c, 0, 64, 63
2, 85091, Control_c, 0, 64, 66
2, 85102, Note_on_c, 0, 64, 0
2, 85106, Control_c, 0, 64, 70
2, 85122, Control_c, 0, 64, 74
2, 85137, Control_c, 0, 64, 79
2, 85151, Control_c, 0, 64, 80
2, 85167, Control_c, 0, 64, 80
2, 85182, Control_c, 0, 64, 78
2, 85198, Control_c, 0, 64, 75
2, 85213, Control_c, 0, 64, 72
2, 85228, Control_c, 0, 64, 69
2, 85244, Control_c, 0, 64, 66
2, 85253, Note_on_c, 0, 79, 80
2, 85259, Control_c, 0, 64, 62
2, 85259, Note_on_c, 0, 64, 61
2, 85264, Note_on_c, 0, 67, 0
2, 85274, Control_c, 0, 64, 57
2, 85289, Control_c, 0, 64, 52
2, 85304, Control_c, 0, 64, 49
2, 85320, Control_c, 0, 64, 48
2, 85335, Control_c, 0, 64, 46
2, 85341, Note_on_c, 0, 64, 0
2, 85349, Control_c, 0, 64, 44
2, 85363, Note_on_c, 0, 81, 75
2, 85365, Control_c, 0, 64, 42
2, 85365, Note_on_c, 0, 79, 0
2, 85366, Note_on_c, 0, 65, 54
2, 85380, Control_c, 0, 64, 41
2, 85396, Control_c, 0, 64, 41
2, 85411, Control_c, 0, 64, 40
2, 85425, Control_c, 0, 64, 40
2, 85456, Control_c, 0, 64, 39
2, 85470, Control_c, 0, 64, 39
2, 85497, Note_on_c, 0, 79, 78
2, 85501, Note_on_c, 0, 65, 0
2, 85504, Note_on_c, 0, 64, 61
2, 85506, Note_on_c, 0, 69, 66
2, 85545, Note_on_c, 0, 81, 0
2, 85566, Note_on_c, 0, 69, 0
2, 85604, Note_on_c, 0, 64, 0
2, 85607, Control_c, 0, 64, 39
2, 85627, Note_on_c, 0, 79, 0
2, 85654, Control_c, 0, 64, 40
2, 85715, Control_c, 0, 64, 40
2, 85730, Control_c, 0, 64, 41
2, 85745, Control_c, 0, 64, 42
2, 85769, Control_c, 0, 64, 43
2, 85776, Note_on_c, 0, 77, 71
2, 85778, Note_on_c, 0, 62, 60
2, 85783, Control_c, 0, 64, 44
2, 85785, Note_on_c, 0, 71, 48
2, 85799, Control_c, 0, 64, 45
2, 85803, Note_on_c, 0, 72, 51
2, 85814, Control_c, 0, 64, 47
2, 85829, Control_c, 0, 64, 47
2, 85834, Note_on_c, 0, 72, 0
2, 85846, Note_on_c, 0, 71, 0
2, 85870, Note_on_c, 0, 77, 0
2, 85874, Note_on_c, 0, 62, 0
2, 86029, Note_on_c, 0, 60, 55
2, 86035, Note_on_c, 0, 72, 62
2, 86038, Note_on_c, 0, 76, 61
2, 86042, Control_c, 0, 64, 47
2, 86057, Control_c, 0, 64, 46
2, 86071, Control_c, 0, 64, 45
2, 86102, Control_c, 0, 64, 45
2, 86118, Control_c, 0, 64, 44
2, 86139, Note_on_c, 0, 72, 0
2, 86143, Note_on_c, 0, 74, 69
2, 86147, Note_on_c, 0, 76, 0
2, 86148, Control_c, 0, 64, 43
2, 86149, Note_on_c, 0, 60, 0
2, 86159, Note_on_c, 0, 62, 61
2, 86179, Control_c, 0, 64, 43
2, 86264, Note_on_c, 0, 62, 0
2, 86267, Note_on_c, 0, 72, 71
2, 86271, Note_on_c, 0, 64, 70
2, 86284, Note_on_c, 0, 74, 0
2, 86375, Note_on_c, 0, 72, 0
2, 86383, Note_on_c, 0, 62, 78
2, 86386, Note_on_c, 0, 64, 0
2, 86386, Note_on_c, 0, 74, 76
2, 86508, Note_on_c, 0, 60, 77
2, 86524, Note_on_c, 0, 76, 76
2, 86530, Note_on_c, 0, 74, 0
2, 86537, Control_c, 0, 64, 43
2, 86541, Note_on_c, 0, 62, 0
2, 86613, Note_on_c, 0, 60, 0
2, 86622, Note_on_c, 0, 77, 82
2, 86646, Note_on_c, 0, 76, 0
2, 86763, Note_on_c, 0, 79, 73
2, 86764, Note_on_c, 0, 58, 89
2, 86767, Note_on_c, 0, 74, 71
2, 86772, Note_on_c, 0, 77, 0
2, 86838, Note_on_c, 0, 58, 0
2, 86870, Control_c, 0, 64, 44
2, 86885, Control_c, 0, 64, 44
2, 86900, Control_c, 0, 64, 45
2, 86931, Control_c, 0, 64, 46
2, 86946, Control_c, 0, 64, 46
2, 86962, Control_c, 0, 64, 47
2, 86977, Control_c, 0, 64, 47
2, 86993, Control_c, 0, 64, 49
2, 87008, Control_c, 0, 64, 51
2, 87023, Control_c, 0, 64, 54
2, 87025, Note_on_c, 0, 69, 86
2, 87035, Note_on_c, 0, 74, 0
2, 87036, Note_on_c, 0, 73, 71
2, 87038, Control_c, 0, 64, 56
2, 87053, Control_c, 0, 64, 57
2, 87068, Control_c, 0, 64, 58
2, 87093, Note_on_c, 0, 69, 0
2, 87111, Note_on_c, 0, 73, 0
2, 87139, Note_on_c, 0, 79, 0
2, 87141, Note_on_c, 0, 77, 71
2, 87144, Control_c, 0, 64, 56
2, 87159, Control_c, 0, 64, 56
2, 87174, Control_c, 0, 64, 55
2, 87189, Control_c, 0, 64, 53
2, 87205, Control_c, 0, 64, 51
2, 87220, Control_c, 0, 64, 50
2, 87235, Control_c, 0, 64, 49
2, 87245, Note_on_c, 0, 77, 0
2, 87270, Note_on_c, 0, 76, 67
2, 87296, Note_on_c, 0, 73, 67
2, 87304, Control_c, 0, 64, 49
2, 87320, Control_c, 0, 64, 51
2, 87335, Control_c, 0, 64, 54
2, 87349, Control_c, 0, 64, 57
2, 87365, Control_c, 0, 64, 60
2, 87377, Note_on_c, 0, 76, 0
2, 87380, Control_c, 0, 64, 63
2, 87396, Control_c, 0, 64, 67
2, 87398, Note_on_c, 0, 74, 66
2, 87406, Note_on_c, 0, 77, 65
2, 87411, Control_c, 0, 64, 72
2, 87426, Control_c, 0, 64, 81
2, 87426, Note_on_c, 0, 73, 0
2, 87433, Note_on_c, 0, 74, 0
2, 87442, Control_c, 0, 64, 87
2, 87462, Note_on_c, 0, 77, 0
2, 87471, Control_c, 0, 64, 81
2, 87487, Control_c, 0, 64, 73
2, 87502, Control_c, 0, 64, 64
2, 87517, Control_c, 0, 64, 54
2, 87532, Control_c, 0, 64, 42
2, 87538, Note_on_c, 0, 76, 57
2, 87539, Note_on_c, 0, 79, 68
2, 87547, Control_c, 0, 64, 40
2, 87651, Note_on_c, 0, 79, 0
2, 87659, Note_on_c, 0, 81, 66
2, 87669, Control_c, 0, 64, 41
2, 87684, Control_c, 0, 64, 42
2, 87699, Control_c, 0, 64, 43
2, 87729, Control_c, 0, 64, 43
2, 87760, Control_c, 0, 64, 44
2, 87783, Note_on_c, 0, 67, 68
2, 87783, Note_on_c, 0, 82, 72
2, 87786, Note_on_c, 0, 81, 0
2, 87806, Control_c, 0, 64, 44
2, 87860, Note_on_c, 0, 67, 0
2, 87907, Note_on_c, 0, 79, 67
2, 87916, Note_on_c, 0, 82, 0
2, 88037, Note_on_c, 0, 79, 0
2, 88040, Note_on_c, 0, 65, 62
2, 88041, Note_on_c, 0, 81, 78
2, 88073, Note_on_c, 0, 76, 0
2, 88129, Note_on_c, 0, 65, 0
2, 88149, Control_c, 0, 64, 45
2, 88164, Control_c, 0, 64, 46
2, 88169, Note_on_c, 0, 64, 58
2, 88169, Note_on_c, 0, 73, 67
2, 88179, Control_c, 0, 64, 47
2, 88195, Control_c, 0, 64, 48
2, 88210, Control_c, 0, 64, 48
2, 88225, Control_c, 0, 64, 49
2, 88240, Control_c, 0, 64, 49
2, 88259, Note_on_c, 0, 81, 0
2, 88268, Note_on_c, 0, 73, 0
2, 88278, Note_on_c, 0, 74, 73
2, 88286, Note_on_c, 0, 64, 0
2, 88295, Note_on_c, 0, 67, 64
2, 88396, Note_on_c, 0, 67, 0
2, 88404, Note_on_c, 0, 82, 79
2, 88414, Note_on_c, 0, 65, 64
2, 88459, Note_on_c, 0, 74, 0
2, 88460, Note_on_c, 0, 82, 0
2, 88468, Control_c, 0, 64, 48
2, 88484, Control_c, 0, 64, 48
2, 88499, Control_c, 0, 64, 47
2, 88515, Control_c, 0, 64, 46
2, 88528, Note_on_c, 0, 79, 81
2, 88529, Control_c, 0, 64, 46
2, 88533, Note_on_c, 0, 65, 0
2, 88537, Note_on_c, 0, 64, 71
2, 88544, Control_c, 0, 64, 45
2, 88560, Control_c, 0, 64, 44
2, 88619, Note_on_c, 0, 64, 0
2, 88643, Note_on_c, 0, 71, 70
2, 88658, Note_on_c, 0, 62, 64
2, 88680, Control_c, 0, 64, 45
2, 88695, Control_c, 0, 64, 45
2, 88710, Control_c, 0, 64, 46
2, 88726, Control_c, 0, 64, 46
2, 88741, Control_c, 0, 64, 47
2, 88757, Control_c, 0, 64, 48
2, 88766, Note_on_c, 0, 62, 0
2, 88783, Note_on_c, 0, 71, 0
2, 88784, Note_on_c, 0, 73, 63
2, 88786, Control_c, 0, 64, 48
2, 88788, Note_on_c, 0, 65, 62
2, 88894, Note_on_c, 0, 73, 0
2, 88895, Note_on_c, 0, 79, 0
2, 88896, Note_on_c, 0, 65, 0
2, 88904, Note_on_c, 0, 81, 68
2, 88910, Note_on_c, 0, 64, 59
2, 88967, Note_on_c, 0, 81, 0
2, 88977, Control_c, 0, 64, 48
2, 88993, Control_c, 0, 64, 47
2, 89007, Control_c, 0, 64, 47
2, 89038, Control_c, 0, 64, 46
2, 89049, Note_on_c, 0, 77, 68
2, 89050, Note_on_c, 0, 62, 67
2, 89050, Note_on_c, 0, 64, 0
2, 89051, Note_on_c, 0, 74, 65
2, 89084, Control_c, 0, 64, 46
2, 89135, Note_on_c, 0, 62, 0
2, 89143, Note_on_c, 0, 77, 0
2, 89162, Note_on_c, 0, 76, 64
2, 89294, Note_on_c, 0, 76, 0
2, 89301, Note_on_c, 0, 77, 66
2, 89303, Note_on_c, 0, 64, 61
2, 89357, Control_c, 0, 64, 45
2, 89367, Note_on_c, 0, 64, 0
2, 89377, Note_on_c, 0, 77, 0
2, 89387, Control_c, 0, 64, 45
2, 89403, Control_c, 0, 64, 44
2, 89408, Note_on_c, 0, 79, 67
2, 89417, Control_c, 0, 64, 44
2, 89447, Control_c, 0, 64, 43
2, 89524, Control_c, 0, 64, 44
2, 89538, Control_c, 0, 64, 46
2, 89554, Control_c, 0, 64, 49
2, 89555, Note_on_c, 0, 81, 58
2, 89558, Note_on_c, 0, 65, 59
2, 89569, Control_c, 0, 64, 53
2, 89580, Note_on_c, 0, 79, 0
2, 89584, Control_c, 0, 64, 55
2, 89607, Control_c, 0, 64, 58
2, 89621, Control_c, 0, 64, 60
2, 89624, Note_on_c, 0, 81, 0
2, 89630, Note_on_c, 0, 74, 0
2, 89637, Control_c, 0, 64, 61
2, 89652, Control_c, 0, 64, 63
2, 89661, Note_on_c, 0, 65, 0
2, 89667, Control_c, 0, 64, 63
2, 89686, Note_on_c, 0, 64, 61
2, 89698, Control_c, 0, 64, 62
2, 89714, Control_c, 0, 64, 61
2, 89729, Control_c, 0, 64, 60
2, 89744, Control_c, 0, 64, 58
2, 89760, Control_c, 0, 64, 55
2, 89775, Control_c, 0, 64, 52
2, 89783, Note_on_c, 0, 64, 0
2, 89790, Control_c, 0, 64, 51
2, 89808, Note_on_c, 0, 69, 71
2, 89815, Note_on_c, 0, 62, 69
2, 89820, Control_c, 0, 64, 53
2, 89824, Note_on_c, 0, 65, 51
2, 89836, Control_c, 0, 64, 55
2, 89851, Control_c, 0, 64, 56
2, 89857, Note_on_c, 0, 65, 0
2, 89866, Control_c, 0, 64, 57
2, 89871, Note_on_c, 0, 69, 0
2, 89882, Control_c, 0, 64, 58
2, 89890, Note_on_c, 0, 62, 0
2, 89921, Note_on_c, 0, 60, 72
2, 89958, Control_c, 0, 64, 56
2, 89973, Control_c, 0, 64, 55
2, 89987, Control_c, 0, 64, 53
2, 90003, Control_c, 0, 64, 52
2, 90018, Control_c, 0, 64, 50
2, 90034, Control_c, 0, 64, 49
2, 90049, Control_c, 0, 64, 47
2, 90056, Note_on_c, 0, 58, 82
2, 90062, Note_on_c, 0, 74, 72
2, 90063, Control_c, 0, 64, 45
2, 90066, Note_on_c, 0, 67, 63
2, 90079, Control_c, 0, 64, 43
2, 90081, Note_on_c, 0, 60, 0
2, 90094, Control_c, 0, 64, 41
2, 90108, Note_on_c, 0, 67, 0
2, 90109, Control_c, 0, 64, 40
2, 90125, Control_c, 0, 64, 39
2, 90149, Note_on_c, 0, 74, 0
2, 90160, Note_on_c, 0, 58, 0
2, 90175, Note_on_c, 0, 79, 69
2, 90189, Note_on_c, 0, 73, 64
2, 90282, Note_on_c, 0, 73, 0
2, 90302, Note_on_c, 0, 57, 74
2, 90311, Note_on_c, 0, 77, 77
2, 90322, Control_c, 0, 64, 40
2, 90337, Control_c, 0, 64, 41
2, 90350, Note_on_c, 0, 79, 0
2, 90353, Control_c, 0, 64, 41
2, 90389, Control_c, 0, 64, 42
2, 90415, Note_on_c, 0, 76, 68
2, 90419, Note_on_c, 0, 55, 78
2, 90421, Note_on_c, 0, 74, 67
2, 90422, Note_on_c, 0, 58, 83
2, 90439, Note_on_c, 0, 57, 0
2, 90446, Note_on_c, 0, 77, 0
2, 90462, Note_on_c, 0, 76, 0
2, 90506, Note_on_c, 0, 74, 0
2, 90551, Note_on_c, 0, 76, 79
2, 90559, Note_on_c, 0, 57, 85
2, 90567, Note_on_c, 0, 73, 73
2, 90573, Control_c, 0, 64, 41
2, 90597, Note_on_c, 0, 58, 0
2, 90598, Note_on_c, 0, 55, 0
2, 90756, Control_c, 0, 64, 42
2, 90771, Control_c, 0, 64, 43
2, 90786, Control_c, 0, 64, 44
2, 90802, Control_c, 0, 64, 44
2, 90817, Control_c, 0, 64, 45
2, 90840, Note_on_c, 0, 55, 84
2, 90847, Note_on_c, 0, 76, 0
2, 90862, Control_c, 0, 64, 45
2, 90911, Note_on_c, 0, 74, 74
2, 90923, Control_c, 0, 64, 46
2, 90954, Note_on_c, 0, 73, 0
2, 90973, Note_on_c, 0, 55, 0
2, 90973, Note_on_c, 0, 74, 0
2, 91075, Note_on_c, 0, 74, 85
2, 91076, Note_on_c, 0, 53, 83
2, 91104, Control_c, 0, 64, 45
2, 91139, Note_on_c, 0, 57, 0
2, 91194, Note_on_c, 0, 53, 0
2, 91336, Note_on_c, 0, 53, 71
2, 91339, Note_on_c, 0, 69, 77
2, 91341, Note_on_c, 0, 57, 66
2, 91437, Note_on_c, 0, 55, 83
2, 91449, Note_on_c, 0, 70, 81
2, 91451, Note_on_c, 0, 53, 0
2, 91460, Note_on_c, 0, 57, 0
2, 91474, Note_on_c, 0, 69, 0
2, 91543, Note_on_c, 0, 74, 0
2, 91583, Note_on_c, 0, 53, 86
2, 91584, Note_on_c, 0, 59, 87
2, 91584, Note_on_c, 0, 69, 87
2, 91605, Note_on_c, 0, 55, 0
2, 91626, Note_on_c, 0, 70, 0
2, 91645, Control_c, 0, 64, 46
2, 91660, Control_c, 0, 64, 47
2, 91670, Note_on_c, 0, 59, 0
2, 91675, Control_c, 0, 64, 47
2, 91682, Note_on_c, 0, 53, 0
2, 91705, Control_c, 0, 64, 48
2, 91708, Note_on_c, 0, 69, 0
2, 91722, Control_c, 0, 64, 48
2, 91850, Note_on_c, 0, 52, 75
2, 91851, Note_on_c, 0, 61, 84
2, 91856, Note_on_c, 0, 76, 88
2, 91861, Note_on_c, 0, 67, 81
2, 91888, Control_c, 0, 64, 49
2, 91957, Note_on_c, 0, 52, 0
2, 91964, Note_on_c, 0, 67, 0
2, 91964, Note_on_c, 0, 76, 0
2, 91967, Note_on_c, 0, 61, 0
2, 92063, Control_c, 0, 64, 48
2, 92078, Control_c, 0, 64, 48
2, 92093, Control_c, 0, 64, 47
2, 92124, Control_c, 0, 64, 47
2, 92130, Note_on_c, 0, 50, 66
2, 92131, Note_on_c, 0, 77, 84
2, 92134, Note_on_c, 0, 62, 81
2, 92135, Note_on_c, 0, 65, 80
2, 92154, Control_c, 0, 64, 46
2, 92184, Control_c, 0, 64, 45
2, 92216, Control_c, 0, 64, 45
2, 92245, Note_on_c, 0, 52, 74
2, 92247, Control_c, 0, 64, 44
2, 92248, Note_on_c, 0, 50, 0
2, 92277, Control_c, 0, 64, 44
2, 92324, Note_on_c, 0, 65, 0
2, 92337, Control_c, 0, 64, 43
2, 92376, Note_on_c, 0, 53, 77
2, 92382, Note_on_c, 0, 52, 0
2, 92382, Note_on_c, 0, 69, 79
2, 92398, Control_c, 0, 64, 43
2, 92474, Control_c, 0, 64, 42
2, 92482, Note_on_c, 0, 52, 82
2, 92504, Note_on_c, 0, 53, 0
2, 92526, Note_on_c, 0, 69, 0
2, 92623, Note_on_c, 0, 50, 84
2, 92633, Note_on_c, 0, 71, 81
2, 92655, Note_on_c, 0, 52, 0
2, 92735, Note_on_c, 0, 62, 0
2, 92754, Note_on_c, 0, 50, 0
2, 92763, Note_on_c, 0, 71, 0
2, 92801, Control_c, 0, 64, 43
2, 92905, Note_on_c, 0, 72, 79
2, 92906, Note_on_c, 0, 48, 86
2, 93008, Note_on_c, 0, 48, 0
2, 93013, Note_on_c, 0, 72, 0
2, 93060, Control_c, 0, 64, 43
2, 93182, Note_on_c, 0, 59, 86
2, 93188, Note_on_c, 0, 74, 72
2, 93282, Note_on_c, 0, 59, 0
2, 93308, Note_on_c, 0, 72, 71
2, 93425, Control_c, 0, 64, 44
2, 93443, Note_on_c, 0, 77, 0
2, 93445, Note_on_c, 0, 74, 0
2, 93446, Note_on_c, 0, 62, 68
2, 93447, Control_c, 0, 64, 45
2, 93452, Note_on_c, 0, 71, 69
2, 93457, Note_on_c, 0, 72, 0
2, 93462, Control_c, 0, 64, 46
2, 93478, Control_c, 0, 64, 47
2, 93492, Control_c, 0, 64, 47
2, 93507, Control_c, 0, 64, 48
2, 93538, Control_c, 0, 64, 48
2, 93542, Note_on_c, 0, 62, 0
2, 93553, Note_on_c, 0, 71, 0
2, 93567, Note_on_c, 0, 69, 62
2, 93660, Control_c, 0, 64, 48
2, 93676, Control_c, 0, 64, 47
2, 93695, Note_on_c, 0, 67, 66
2, 93699, Note_on_c, 0, 69, 0
2, 93705, Control_c, 0, 64, 47
2, 93721, Control_c, 0, 64, 46
2, 93736, Control_c, 0, 64, 46
2, 93751, Control_c, 0, 64, 45
2, 93766, Control_c, 0, 64, 45
2, 93777, Note_on_c, 0, 67, 0
2, 93781, Control_c, 0, 64, 44
2, 93812, Control_c, 0, 64, 44
2, 93816, Note_on_c, 0, 76, 61
2, 93874, Control_c, 0, 64, 43
2, 93947, Note_on_c, 0, 57, 62
2, 93950, Note_on_c, 0, 65, 59
2, 93950, Note_on_c, 0, 76, 0
2, 93956, Note_on_c, 0, 74, 57
2, 93980, Control_c, 0, 64, 44
2, 94003, Note_on_c, 0, 57, 0
2, 94070, Control_c, 0, 64, 44
2, 94077, Note_on_c, 0, 72, 58
2, 94083, Note_on_c, 0, 74, 0
2, 94131, Control_c, 0, 64, 45
2, 94162, Control_c, 0, 64, 45
2, 94211, Note_on_c, 0, 55, 53
2, 94215, Control_c, 0, 64, 46
2, 94216, Note_on_c, 0, 71, 63
2, 94230, Control_c, 0, 64, 46
2, 94238, Note_on_c, 0, 72, 0
2, 94246, Control_c, 0, 64, 47
2, 94261, Control_c, 0, 64, 48
2, 94277, Control_c, 0, 64, 48
2, 94277, Note_on_c, 0, 71, 0
2, 94291, Control_c, 0, 64, 49
2, 94296, Note_on_c, 0, 55, 0
2, 94306, Control_c, 0, 64, 50
2, 94322, Control_c, 0, 64, 50
2, 94332, Note_on_c, 0, 53, 56
2, 94351, Control_c, 0, 64, 51
2, 94443, Control_c, 0, 64, 50
2, 94445, Note_on_c, 0, 53, 0
2, 94458, Control_c, 0, 64, 50
2, 94464, Note_on_c, 0, 72, 75
2, 94469, Note_on_c, 0, 57, 62
2, 94474, Control_c, 0, 64, 49
2, 94483, Note_on_c, 0, 64, 51
2, 94489, Control_c, 0, 64, 49
2, 94502, Note_on_c, 0, 65, 0
2, 94504, Control_c, 0, 64, 48
2, 94534, Control_c, 0, 64, 48
2, 94549, Control_c, 0, 64, 47
2, 94556, Note_on_c, 0, 57, 0
2, 94565, Control_c, 0, 64, 46
2, 94577, Note_on_c, 0, 55, 56
2, 94580, Control_c, 0, 64, 45
2, 94596, Control_c, 0, 64, 45
2, 94610, Control_c, 0, 64, 44
2, 94625, Control_c, 0, 64, 44
2, 94641, Control_c, 0, 64, 43
2, 94688, Control_c, 0, 64, 43
2, 94707, Note_on_c, 0, 55, 0
2, 94719, Note_on_c, 0, 62, 66
2, 94724, Note_on_c, 0, 53, 61
2, 94750, Note_on_c, 0, 64, 0
2, 94763, Control_c, 0, 64, 43
2, 94803, Note_on_c, 0, 53, 0
2, 94809, Control_c, 0, 64, 44
2, 94821, Note_on_c, 0, 52, 63
2, 94839, Control_c, 0, 64, 45
2, 94854, Control_c, 0, 64, 45
2, 94869, Control_c, 0, 64, 46
2, 94915, Control_c, 0, 64, 46
2, 94972, Note_on_c, 0, 71, 77
2, 94977, Note_on_c, 0, 55, 70
2, 94994, Note_on_c, 0, 52, 0
2, 95005, Note_on_c, 0, 72, 0
2, 95079, Note_on_c, 0, 53, 74
2, 95090, Control_c, 0, 64, 46
2, 95103, Note_on_c, 0, 55, 0
2, 95120, Control_c, 0, 64, 45
2, 95150, Control_c, 0, 64, 45
2, 95180, Control_c, 0, 64, 44
2, 95211, Control_c, 0, 64, 44
2, 95223, Note_on_c, 0, 52, 72
2, 95225, Note_on_c, 0, 72, 76
2, 95242, Control_c, 0, 64, 43
2, 95244, Note_on_c, 0, 53, 0
2, 95257, Note_on_c, 0, 71, 0
2, 95261, Note_on_c, 0, 62, 0
2, 95327, Note_on_c, 0, 52, 0
2, 95360, Note_on_c, 0, 69, 71
2, 95440, Control_c, 0, 64, 44
2, 95454, Control_c, 0, 64, 44
2, 95469, Control_c, 0, 64, 45
2, 95479, Note_on_c, 0, 53, 61
2, 95483, Note_on_c, 0, 67, 64
2, 95486, Control_c, 0, 64, 45
2, 95531, Control_c, 0, 64, 46
2, 95567, Note_on_c, 0, 53, 0
2, 95593, Note_on_c, 0, 69, 0
2, 95597, Note_on_c, 0, 65, 70
2, 95600, Note_on_c, 0, 67, 0
2, 95726, Note_on_c, 0, 65, 0
2, 95727, Note_on_c, 0, 64, 69
2, 95728, Note_on_c, 0, 55, 56
2, 95769, Control_c, 0, 64, 45
2, 95849, Note_on_c, 0, 55, 0
2, 95851, Note_on_c, 0, 52, 57
2, 95949, Note_on_c, 0, 52, 0
2, 95972, Note_on_c, 0, 70, 68
2, 95974, Note_on_c, 0, 50, 56
2, 95983, Note_on_c, 0, 67, 58
2, 96013, Note_on_c, 0, 72, 0
2, 96056, Note_on_c, 0, 50, 0
2, 96090, Note_on_c, 0, 48, 59
2, 96194, Control_c, 0, 64, 46
2, 96223, Note_on_c, 0, 67, 0
2, 96227, Note_on_c, 0, 48, 0
2, 96242, Note_on_c, 0, 70, 0
2, 96245, Note_on_c, 0, 53, 58
2, 96245, Note_on_c, 0, 69, 69
2, 96255, Control_c, 0, 64, 46
2, 96331, Control_c, 0, 64, 47
2, 96361, Note_on_c, 0, 53, 0
2, 96363, Note_on_c, 0, 52, 61
2, 96388, Note_on_c, 0, 64, 0
2, 96482, Note_on_c, 0, 52, 0
2, 96499, Note_on_c, 0, 50, 60
2, 96517, Note_on_c, 0, 65, 72
2, 96629, Note_on_c, 0, 50, 0
2, 96637, Note_on_c, 0, 48, 67
2, 96638, Note_on_c, 0, 67, 75
2, 96664, Note_on_c, 0, 65, 0
2, 96762, Note_on_c, 0, 65, 81
2, 96766, Note_on_c, 0, 48, 0
2, 96766, Note_on_c, 0, 50, 67
2, 96879, Note_on_c, 0, 50, 0
2, 96880, Note_on_c, 0, 52, 75
2, 96906, Note_on_c, 0, 67, 0
2, 96949, Note_on_c, 0, 65, 0
2, 97019, Note_on_c, 0, 53, 75
2, 97019, Note_on_c, 0, 64, 81
2, 97020, Note_on_c, 0, 52, 0
2, 97127, Note_on_c, 0, 50, 76
2, 97139, Note_on_c, 0, 53, 0
2, 97214, Note_on_c, 0, 64, 0
2, 97221, Control_c, 0, 64, 46
2, 97237, Control_c, 0, 64, 46
2, 97252, Control_c, 0, 64, 45
2, 97279, Note_on_c, 0, 62, 86
2, 97282, Note_on_c, 0, 47, 78
2, 97283, Note_on_c, 0, 50, 0
2, 97304, Control_c, 0, 64, 46
2, 97320, Control_c, 0, 64, 49
2, 97335, Control_c, 0, 64, 54
2, 97351, Control_c, 0, 64, 59
2, 97366, Control_c, 0, 64, 63
2, 97380, Control_c, 0, 64, 67
2, 97396, Control_c, 0, 64, 73
2, 97411, Control_c, 0, 64, 82
2, 97420, Note_on_c, 0, 62, 0
2, 97427, Control_c, 0, 64, 89
2, 97441, Control_c, 0, 64, 92
2, 97456, Control_c, 0, 64, 91
2, 97472, Control_c, 0, 64, 88
2, 97487, Control_c, 0, 64, 84
2, 97502, Control_c, 0, 64, 80
2, 97518, Control_c, 0, 64, 76
2, 97528, Note_on_c, 0, 47, 0
2, 97533, Control_c, 0, 64, 74
2, 97539, Note_on_c, 0, 68, 80
2, 97544, Note_on_c, 0, 62, 79
2, 97546, Note_on_c, 0, 59, 76
2, 97549, Control_c, 0, 64, 73
2, 97564, Control_c, 0, 64, 71
2, 97565, Note_on_c, 0, 69, 0
2, 97577, Note_on_c, 0, 59, 0
2, 97579, Control_c, 0, 64, 67
2, 97594, Control_c, 0, 64, 63
2, 97609, Control_c, 0, 64, 58
2, 97624, Control_c, 0, 64, 55
2, 97644, Note_on_c, 0, 64, 84
2, 97646, Note_on_c, 0, 62, 0
2, 97657, Note_on_c, 0, 60, 80
2, 97670, Control_c, 0, 64, 54
2, 97685, Control_c, 0, 64, 53
2, 97700, Control_c, 0, 64, 52
2, 97711, Note_on_c, 0, 60, 0
2, 97715, Control_c, 0, 64, 51
2, 97786, Note_on_c, 0, 48, 65
2, 97792, Note_on_c, 0, 62, 82
2, 97793, Note_on_c, 0, 69, 84
2, 97804, Note_on_c, 0, 59, 80
2, 97806, Note_on_c, 0, 68, 0
2, 97824, Note_on_c, 0, 64, 0
2, 97908, Note_on_c, 0, 59, 0
2, 97913, Control_c, 0, 64, 52
2, 97914, Note_on_c, 0, 62, 0
2, 97928, Note_on_c, 0, 69, 0
2, 97943, Control_c, 0, 64, 52
2, 98070, Note_on_c, 0, 50, 66
2, 98072, Note_on_c, 0, 57, 78
2, 98072, Note_on_c, 0, 71, 80
2, 98078, Note_on_c, 0, 60, 79
2, 98079, Note_on_c, 0, 48, 0
2, 98149, Control_c, 0, 64, 53
2, 98157, Note_on_c, 0, 71, 0
2, 98163, Note_on_c, 0, 57, 0
2, 98179, Control_c, 0, 64, 53
2, 98200, Note_on_c, 0, 60, 0
2, 98210, Control_c, 0, 64, 54
2, 98332, Note_on_c, 0, 56, 68
2, 98332, Note_on_c, 0, 59, 78
2, 98337, Note_on_c, 0, 64, 69
2, 98377, Control_c, 0, 64, 53
2, 98393, Control_c, 0, 64, 53
2, 98412, Note_on_c, 0, 56, 0
2, 98422, Control_c, 0, 64, 52
2, 98441, Note_on_c, 0, 60, 80
2, 98463, Note_on_c, 0, 59, 0
2, 98498, Control_c, 0, 64, 52
2, 98575, Note_on_c, 0, 62, 72
2, 98581, Note_on_c, 0, 52, 72
2, 98588, Note_on_c, 0, 60, 0
2, 98596, Note_on_c, 0, 50, 0
2, 98653, Note_on_c, 0, 52, 0
2, 98673, Note_on_c, 0, 60, 81
2, 98687, Note_on_c, 0, 64, 0
2, 98714, Note_on_c, 0, 62, 0
2, 98777, Note_on_c, 0, 60, 0
2, 98818, Note_on_c, 0, 59, 83
2, 98827, Note_on_c, 0, 50, 76
2, 98842, Control_c, 0, 64, 52
2, 98899, Note_on_c, 0, 50, 0
2, 98936, Note_on_c, 0, 66, 77
2, 98961, Note_on_c, 0, 59, 0
2, 98963, Control_c, 0, 64, 52
2, 99023, Control_c, 0, 64, 51
2, 99070, Control_c, 0, 64, 52
2, 99072, Note_on_c, 0, 57, 82
2, 99074, Note_on_c, 0, 68, 79
2, 99082, Note_on_c, 0, 52, 73
2, 99084, Control_c, 0, 64, 54
2, 99086, Note_on_c, 0, 48, 68
2, 99099, Control_c, 0, 64, 57
2, 99115, Control_c, 0, 64, 59
2, 99129, Control_c, 0, 64, 62
2, 99136, Note_on_c, 0, 66, 0
2, 99144, Control_c, 0, 64, 63
2, 99151, Note_on_c, 0, 57, 0
2, 99160, Control_c, 0, 64, 66
2, 99163, Note_on_c, 0, 52, 0
2, 99175, Control_c, 0, 64, 72
2, 99180, Note_on_c, 0, 69, 83
2, 99182, Note_on_c, 0, 48, 0
2, 99191, Control_c, 0, 64, 79
2, 99205, Control_c, 0, 64, 87
2, 99210, Note_on_c, 0, 68, 0
2, 99220, Control_c, 0, 64, 90
2, 99233, Note_on_c, 0, 69, 0
2, 99236, Control_c, 0, 64, 87
2, 99251, Control_c, 0, 64, 82
2, 99267, Control_c, 0, 64, 74
2, 99282, Control_c, 0, 64, 67
2, 99297, Control_c, 0, 64, 58
2, 99313, Control_c, 0, 64, 44
2, 99317, Note_on_c, 0, 71, 85
2, 99318, Note_on_c, 0, 68, 81
2, 99322, Note_on_c, 0, 50, 88
2, 99327, Control_c, 0, 64, 42
2, 99329, Note_on_c, 0, 47, 72
2, 99399, Note_on_c, 0, 47, 0
2, 99402, Note_on_c, 0, 50, 0
2, 99418, Control_c, 0, 64, 42
2, 99434, Control_c, 0, 64, 43
2, 99436, Note_on_c, 0, 72, 83
2, 99448, Control_c, 0, 64, 44
2, 99462, Note_on_c, 0, 71, 0
2, 99463, Control_c, 0, 64, 44
2, 99479, Control_c, 0, 64, 45
2, 99494, Control_c, 0, 64, 47
2, 99510, Control_c, 0, 64, 48
2, 99524, Control_c, 0, 64, 48
2, 99539, Control_c, 0, 64, 49
2, 99555, Control_c, 0, 64, 49
2, 99572, Note_on_c, 0, 71, 87
2, 99574, Note_on_c, 0, 53, 73
2, 99586, Note_on_c, 0, 50, 77
2, 99594, Control_c, 0, 64, 50
2, 99609, Note_on_c, 0, 72, 0
2, 99610, Note_on_c, 0, 53, 0
2, 99680, Note_on_c, 0, 52, 79
2, 99680, Note_on_c, 0, 72, 83
2, 99684, Note_on_c, 0, 48, 75
2, 99692, Note_on_c, 0, 50, 0
2, 99817, Note_on_c, 0, 47, 72
2, 99822, Note_on_c, 0, 74, 88
2, 99825, Note_on_c, 0, 50, 78
2, 99834, Note_on_c, 0, 48, 0
2, 99837, Control_c, 0, 64, 49
2, 99845, Note_on_c, 0, 52, 0
2, 99852, Control_c, 0, 64, 49
2, 99868, Control_c, 0, 64, 48
2, 99898, Control_c, 0, 64, 48
2, 99913, Control_c, 0, 64, 47
2, 99928, Control_c, 0, 64, 47
2, 99936, Note_on_c, 0, 50, 0
2, 99938, Note_on_c, 0, 47, 0
2, 99973, Control_c, 0, 64, 46
2, 99989, Control_c, 0, 64, 46
2, 100075, Note_on_c, 0, 72, 0
2, 100080, Note_on_c, 0, 65, 83
2, 100083, Note_on_c, 0, 45, 70
2, 100083, Note_on_c, 0, 48, 83
2, 100086, Note_on_c, 0, 71, 0
2, 100117, Note_on_c, 0, 68, 0
2, 100143, Note_on_c, 0, 48, 0
2, 100156, Control_c, 0, 64, 47
2, 100156, Note_on_c, 0, 45, 0
2, 100170, Control_c, 0, 64, 47
2, 100185, Control_c, 0, 64, 48
2, 100216, Control_c, 0, 64, 48
2, 100246, Control_c, 0, 64, 49
2, 100262, Note_on_c, 0, 65, 0
2, 100322, Control_c, 0, 64, 49
2, 100367, Note_on_c, 0, 47, 82
2, 100369, Note_on_c, 0, 44, 76
2, 100369, Note_on_c, 0, 64, 82
2, 100370, Note_on_c, 0, 74, 0
2, 100375, Control_c, 0, 64, 50
2, 100438, Control_c, 0, 64, 50
2, 100469, Control_c, 0, 64, 51
2, 100475, Note_on_c, 0, 62, 81
2, 100477, Note_on_c, 0, 47, 0
2, 100485, Note_on_c, 0, 64, 0
2, 100492, Note_on_c, 0, 44, 0
2, 100497, Control_c, 0, 64, 51
2, 100601, Note_on_c, 0, 62, 0
2, 100612, Note_on_c, 0, 72, 85
2, 100613, Note_on_c, 0, 48, 83
2, 100615, Note_on_c, 0, 65, 78
2, 100618, Note_on_c, 0, 45, 73
2, 100678, Control_c, 0, 64, 51
2, 100710, Note_on_c, 0, 48, 0
2, 100728, Note_on_c, 0, 64, 78
2, 100731, Note_on_c, 0, 45, 0
2, 100732, Note_on_c, 0, 65, 0
2, 100830, Note_on_c, 0, 72, 0
2, 100857, Note_on_c, 0, 50, 84
2, 100862, Note_on_c, 0, 47, 75
2, 100865, Note_on_c, 0, 62, 82
2, 100891, Control_c, 0, 64, 51
2, 100897, Note_on_c, 0, 64, 0
2, 100951, Control_c, 0, 64, 52
2, 100962, Note_on_c, 0, 50, 0
2, 100973, Note_on_c, 0, 60, 81
2, 100977, Note_on_c, 0, 47, 0
2, 100979, Note_on_c, 0, 62, 0
2, 101102, Note_on_c, 0, 71, 82
2, 101114, Note_on_c, 0, 64, 81
2, 101117, Note_on_c, 0, 47, 80
2, 101119, Note_on_c, 0, 44, 74
2, 101123, Note_on_c, 0, 60, 0
2, 101194, Note_on_c, 0, 44, 0
2, 101203, Note_on_c, 0, 47, 0
2, 101227, Note_on_c, 0, 62, 82
2, 101240, Note_on_c, 0, 64, 0
2, 101321, Note_on_c, 0, 71, 0
2, 101371, Note_on_c, 0, 52, 84
2, 101371, Note_on_c, 0, 60, 81
2, 101373, Note_on_c, 0, 45, 73
2, 101416, Note_on_c, 0, 62, 0
2, 101490, Note_on_c, 0, 60, 0
2, 101648, Note_on_c, 0, 69, 82
2, 101653, Note_on_c, 0, 62, 76
2, 101654, Note_on_c, 0, 47, 70
2, 101684, Note_on_c, 0, 45, 0
2, 101720, Control_c, 0, 64, 51
2, 101742, Note_on_c, 0, 68, 79
2, 101765, Control_c, 0, 64, 51
2, 101771, Note_on_c, 0, 69, 0
2, 101870, Control_c, 0, 64, 50
2, 101891, Note_on_c, 0, 69, 80
2, 101895, Note_on_c, 0, 64, 74
2, 101897, Note_on_c, 0, 48, 73
2, 101901, Note_on_c, 0, 62, 0
2, 101939, Note_on_c, 0, 47, 0
2, 101942, Note_on_c, 0, 52, 0
2, 101948, Note_on_c, 0, 68, 0
2, 102013, Note_on_c, 0, 60, 77
2, 102015, Note_on_c, 0, 64, 0
2, 102142, Note_on_c, 0, 53, 73
2, 102144, Note_on_c, 0, 59, 74
2, 102157, Note_on_c, 0, 60, 0
2, 102241, Note_on_c, 0, 59, 0
2, 102246, Note_on_c, 0, 57, 77
2, 102356, Note_on_c, 0, 57, 0
2, 102382, Note_on_c, 0, 50, 72
2, 102383, Note_on_c, 0, 65, 77
2, 102407, Note_on_c, 0, 48, 0
2, 102456, Control_c, 0, 64, 50
2, 102483, Note_on_c, 0, 50, 0
2, 102484, Note_on_c, 0, 65, 0
2, 102503, Note_on_c, 0, 60, 68
2, 102506, Note_on_c, 0, 62, 59
2, 102533, Control_c, 0, 64, 49
2, 102618, Note_on_c, 0, 47, 63
2, 102619, Note_on_c, 0, 50, 65
2, 102622, Note_on_c, 0, 64, 74
2, 102624, Note_on_c, 0, 62, 0
2, 102630, Note_on_c, 0, 53, 0
2, 102632, Note_on_c, 0, 60, 0
2, 102656, Note_on_c, 0, 69, 0
2, 102692, Control_c, 0, 64, 49
2, 102714, Note_on_c, 0, 47, 0
2, 102716, Note_on_c, 0, 50, 0
2, 102728, Note_on_c, 0, 65, 78
2, 102735, Note_on_c, 0, 64, 0
2, 102783, Control_c, 0, 64, 48
2, 102875, Control_c, 0, 64, 48
2, 102892, Note_on_c, 0, 68, 75
2, 102897, Note_on_c, 0, 52, 62
2, 102898, Note_on_c, 0, 59, 67
2, 102900, Note_on_c, 0, 65, 0
2, 102905, Control_c, 0, 64, 47
2, 102921, Control_c, 0, 64, 45
2, 102936, Control_c, 0, 64, 43
2, 102951, Control_c, 0, 64, 35
2, 102959, Note_on_c, 0, 52, 0
2, 102967, Control_c, 0, 64, 18
2, 102982, Control_c, 0, 64, 0
2, 103164, Control_c, 0, 64, 24
2, 103179, Control_c, 0, 64, 38
2, 103195, Control_c, 0, 64, 49
2, 103209, Control_c, 0, 64, 55
2, 103213, Note_on_c, 0, 40, 41
2, 103217, Note_on_c, 0, 50, 47
2, 103224, Control_c, 0, 64, 58
2, 103237, Note_on_c, 0, 68, 0
2, 103241, Control_c, 0, 64, 61
2, 103256, Control_c, 0, 64, 62
2, 103258, Note_on_c, 0, 40, 0
2, 103266, Note_on_c, 0, 59, 0
2, 103270, Control_c, 0, 64, 62
2, 103309, Note_on_c, 0, 50, 0
2, 103324, Note_on_c, 0, 57, 52
2, 103332, Control_c, 0, 64, 61
2, 103346, Control_c, 0, 64, 60
2, 103362, Control_c, 0, 64, 59
2, 103376, Note_on_c, 0, 57, 0
2, 103377, Control_c, 0, 64, 57
2, 103391, Control_c, 0, 64, 53
2, 103407, Control_c, 0, 64, 45
2, 103430, Control_c, 0, 64, 31
2, 103446, Control_c, 0, 64, 20
2, 103461, Control_c, 0, 64, 18
2, 103491, Control_c, 0, 64, 20
2, 103493, Note_on_c, 0, 45, 47
2, 103493, Note_on_c, 0, 69, 60
2, 103495, Note_on_c, 0, 57, 49
2, 103499, Note_on_c, 0, 48, 44
2, 103506, Control_c, 0, 64, 32
2, 103522, Control_c, 0, 64, 48
2, 103537, Control_c, 0, 64, 57
2, 103551, Control_c, 0, 64, 62
2, 103559, Note_on_c, 0, 57, 0
2, 103567, Control_c, 0, 64, 65
2, 103577, Note_on_c, 0, 48, 0
2, 103582, Control_c, 0, 64, 69
2, 103597, Control_c, 0, 64, 74
2, 103600, Note_on_c, 0, 69, 0
2, 103602, Note_on_c, 0, 45, 0
2, 103612, Control_c, 0, 64, 76
2, 103627, Control_c, 0, 64, 73
2, 103643, Control_c, 0, 64, 69
2, 103658, Control_c, 0, 64, 63
2, 103675, Control_c, 0, 64, 54
2, 103690, Control_c, 0, 64, 43
2, 103704, Control_c, 0, 64, 40
2, 103720, Control_c, 0, 64, 39
2, 103735, Control_c, 0, 64, 38
2, 103750, Control_c, 0, 64, 37
2, 103766, Control_c, 0, 64, 36
2, 103783, Note_on_c, 0, 57, 54
2, 103786, Note_on_c, 0, 69, 59
2, 103825, Note_on_c, 0, 57, 0
2, 103855, Note_on_c, 0, 69, 0
2, 103891, Note_on_c, 0, 68, 60
2, 104022, Note_on_c, 0, 69, 73
2, 104024, Note_on_c, 0, 48, 64
2, 104034, Note_on_c, 0, 68, 0
2, 104134, Note_on_c, 0, 48, 0
2, 104158, Note_on_c, 0, 69, 0
2, 104292, Note_on_c, 0, 71, 72
2, 104298, Note_on_c, 0, 52, 71
2, 104411, Note_on_c, 0, 52, 0
2, 104412, Note_on_c, 0, 71, 0
2, 104471, Control_c, 0, 64, 37
2, 104557, Note_on_c, 0, 45, 69
2, 104559, Note_on_c, 0, 72, 78
2, 104624, Control_c, 0, 64, 37
2, 104640, Control_c, 0, 64, 38
2, 104645, Note_on_c, 0, 45, 0
2, 104655, Control_c, 0, 64, 38
2, 104685, Control_c, 0, 64, 39
2, 104702, Note_on_c, 0, 72, 0
2, 104731, Control_c, 0, 64, 39
2, 104819, Note_on_c, 0, 72, 74
2, 104820, Note_on_c, 0, 57, 68
2, 104821, Note_on_c, 0, 53, 70
2, 104884, Note_on_c, 0, 72, 0
2, 104917, Note_on_c, 0, 56, 76
2, 104924, Note_on_c, 0, 57, 0
2, 104924, Note_on_c, 0, 71, 70
2, 104966, Control_c, 0, 64, 40
2, 105027, Control_c, 0, 64, 40
2, 105066, Note_on_c, 0, 56, 0
2, 105066, Note_on_c, 0, 57, 79
2, 105067, Note_on_c, 0, 52, 73
2, 105067, Note_on_c, 0, 72, 81
2, 105086, Note_on_c, 0, 53, 0
2, 105086, Note_on_c, 0, 71, 0
2, 105149, Control_c, 0, 64, 41
2, 105176, Note_on_c, 0, 52, 0
2, 105185, Note_on_c, 0, 72, 0
2, 105189, Note_on_c, 0, 57, 0
2, 105240, Control_c, 0, 64, 41
2, 105330, Note_on_c, 0, 74, 82
2, 105333, Note_on_c, 0, 59, 80
2, 105339, Note_on_c, 0, 50, 67
2, 105429, Note_on_c, 0, 59, 0
2, 105439, Control_c, 0, 64, 42
2, 105449, Note_on_c, 0, 50, 0
2, 105449, Note_on_c, 0, 74, 0
2, 105454, Control_c, 0, 64, 43
2, 105484, Control_c, 0, 64, 43
2, 105529, Control_c, 0, 64, 44
2, 105585, Note_on_c, 0, 48, 65
2, 105591, Note_on_c, 0, 76, 77
2, 105602, Note_on_c, 0, 60, 71
2, 105648, Note_on_c, 0, 48, 0
2, 105705, Note_on_c, 0, 74, 77
2, 105706, Note_on_c, 0, 60, 0
2, 105723, Note_on_c, 0, 76, 0
2, 105734, Control_c, 0, 64, 44
2, 105796, Control_c, 0, 64, 45
2, 105841, Note_on_c, 0, 72, 82
2, 105848, Note_on_c, 0, 57, 67
2, 105859, Note_on_c, 0, 60, 70
2, 105863, Note_on_c, 0, 74, 0
2, 105943, Note_on_c, 0, 74, 84
2, 105944, Note_on_c, 0, 60, 0
2, 105949, Note_on_c, 0, 59, 76
2, 105968, Note_on_c, 0, 72, 0
2, 105978, Control_c, 0, 64, 44
2, 105994, Control_c, 0, 64, 43
2, 106008, Control_c, 0, 64, 41
2, 106023, Control_c, 0, 64, 38
2, 106039, Control_c, 0, 64, 30
2, 106053, Control_c, 0, 64, 0
2, 106074, Note_on_c, 0, 76, 89
2, 106076, Note_on_c, 0, 60, 80
2, 106080, Note_on_c, 0, 59, 0
2, 106088, Note_on_c, 0, 55, 73
2, 106112, Note_on_c, 0, 74, 0
2, 106120, Note_on_c, 0, 57, 0
2, 106179, Note_on_c, 0, 60, 0
2, 106190, Note_on_c, 0, 55, 0
2, 106219, Note_on_c, 0, 76, 0
2, 106335, Note_on_c, 0, 77, 87
2, 106337, Note_on_c, 0, 62, 81
2, 106350, Note_on_c, 0, 53, 65
2, 106373, Control_c, 0, 64, 32
2, 106388, Control_c, 0, 64, 47
2, 106396, Note_on_c, 0, 62, 0
2, 106403, Control_c, 0, 64, 55
2, 106403, Note_on_c, 0, 77, 0
2, 106418, Control_c, 0, 64, 60
2, 106423, Note_on_c, 0, 53, 0
2, 106434, Control_c, 0, 64, 63
2, 106449, Control_c, 0, 64, 64
2, 106464, Control_c, 0, 64, 65
2, 106480, Control_c, 0, 64, 66
2, 106517, Control_c, 0, 64, 66
2, 106532, Control_c, 0, 64, 65
2, 106547, Control_c, 0, 64, 64
2, 106563, Control_c, 0, 64, 63
2, 106577, Control_c, 0, 64, 61
2, 106592, Control_c, 0, 64, 60
2, 106608, Control_c, 0, 64, 59
2, 106608, Note_on_c, 0, 68, 86
2, 106611, Note_on_c, 0, 64, 71
2, 106617, Note_on_c, 0, 52, 54
2, 106623, Control_c, 0, 64, 58
2, 106639, Control_c, 0, 64, 56
2, 106654, Control_c, 0, 64, 54
2, 106669, Control_c, 0, 64, 53
2, 106670, Note_on_c, 0, 64, 0
2, 106685, Control_c, 0, 64, 52
2, 106702, Note_on_c, 0, 52, 0
2, 106715, Control_c, 0, 64, 52
2, 106719, Note_on_c, 0, 68, 0
2, 106728, Note_on_c, 0, 62, 75
2, 106730, Control_c, 0, 64, 51
2, 106745, Control_c, 0, 64, 51
2, 106761, Control_c, 0, 64, 50
2, 106806, Control_c, 0, 64, 50
2, 106851, Note_on_c, 0, 64, 64
2, 106856, Note_on_c, 0, 62, 0
2, 106858, Note_on_c, 0, 60, 66
2, 106861, Note_on_c, 0, 57, 64
2, 106960, Note_on_c, 0, 57, 0
2, 106966, Note_on_c, 0, 62, 80
2, 106971, Note_on_c, 0, 55, 70
2, 106997, Note_on_c, 0, 60, 0
2, 107009, Note_on_c, 0, 64, 0
2, 107089, Note_on_c, 0, 55, 0
2, 107095, Note_on_c, 0, 64, 75
2, 107096, Control_c, 0, 64, 50
2, 107097, Note_on_c, 0, 62, 0
2, 107107, Note_on_c, 0, 53, 75
2, 107204, Note_on_c, 0, 52, 76
2, 107237, Note_on_c, 0, 64, 0
2, 107248, Control_c, 0, 64, 50
2, 107271, Control_c, 0, 64, 48
2, 107286, Control_c, 0, 64, 46
2, 107301, Control_c, 0, 64, 41
2, 107312, Note_on_c, 0, 53, 0
2, 107317, Control_c, 0, 64, 38
2, 107332, Control_c, 0, 64, 37
2, 107339, Note_on_c, 0, 65, 77
2, 107342, Note_on_c, 0, 50, 78
2, 107342, Note_on_c, 0, 69, 77
2, 107344, Note_on_c, 0, 52, 0
2, 107377, Control_c, 0, 64, 40
2, 107392, Control_c, 0, 64, 46
2, 107408, Control_c, 0, 64, 51
2, 107416, Note_on_c, 0, 65, 0
2, 107422, Control_c, 0, 64, 54
2, 107438, Control_c, 0, 64, 56
2, 107440, Note_on_c, 0, 69, 0
2, 107453, Control_c, 0, 64, 58
2, 107454, Note_on_c, 0, 48, 84
2, 107468, Control_c, 0, 64, 59
2, 107470, Note_on_c, 0, 50, 0
2, 107484, Control_c, 0, 64, 60
2, 107529, Control_c, 0, 64, 58
2, 107543, Control_c, 0, 64, 57
2, 107559, Control_c, 0, 64, 56
2, 107574, Control_c, 0, 64, 55
2, 107583, Note_on_c, 0, 48, 0
2, 107589, Control_c, 0, 64, 54
2, 107591, Note_on_c, 0, 47, 79
2, 107595, Note_on_c, 0, 56, 87
2, 107601, Note_on_c, 0, 71, 66
2, 107605, Control_c, 0, 64, 52
2, 107620, Control_c, 0, 64, 51
2, 107620, Note_on_c, 0, 72, 44
2, 107636, Control_c, 0, 64, 50
2, 107647, Note_on_c, 0, 47, 0
2, 107651, Control_c, 0, 64, 49
2, 107655, Note_on_c, 0, 72, 0
2, 107666, Control_c, 0, 64, 48
2, 107667, Note_on_c, 0, 56, 0
2, 107681, Control_c, 0, 64, 47
2, 107696, Control_c, 0, 64, 47
2, 107704, Note_on_c, 0, 71, 0
2, 107711, Control_c, 0, 64, 46
2, 107715, Note_on_c, 0, 72, 62
2, 107742, Control_c, 0, 64, 46
2, 107798, Note_on_c, 0, 72, 0
2, 107838, Note_on_c, 0, 69, 75
2, 107844, Note_on_c, 0, 60, 77
2, 107847, Note_on_c, 0, 52, 57
2, 107880, Control_c, 0, 64, 46
2, 107895, Control_c, 0, 64, 47
2, 107910, Control_c, 0, 64, 47
2, 107940, Control_c, 0, 64, 48
2, 107946, Note_on_c, 0, 60, 0
2, 107947, Note_on_c, 0, 71, 70
2, 107958, Note_on_c, 0, 69, 0
2, 107965, Note_on_c, 0, 59, 65
2, 107985, Control_c, 0, 64, 48
2, 108066, Note_on_c, 0, 59, 0
2, 108076, Note_on_c, 0, 71, 0
2, 108083, Note_on_c, 0, 72, 73
2, 108097, Note_on_c, 0, 57, 63
2, 108179, Note_on_c, 0, 57, 0
2, 108189, Note_on_c, 0, 52, 0
2, 108200, Note_on_c, 0, 72, 0
2, 108202, Note_on_c, 0, 55, 66
2, 108205, Note_on_c, 0, 74, 65
2, 108297, Control_c, 0, 64, 48
2, 108333, Note_on_c, 0, 55, 0
2, 108335, Note_on_c, 0, 71, 76
2, 108336, Note_on_c, 0, 53, 74
2, 108348, Note_on_c, 0, 57, 70
2, 108356, Note_on_c, 0, 74, 0
2, 108434, Control_c, 0, 64, 48
2, 108439, Note_on_c, 0, 52, 74
2, 108448, Note_on_c, 0, 53, 0
2, 108452, Note_on_c, 0, 72, 85
2, 108479, Control_c, 0, 64, 49
2, 108484, Note_on_c, 0, 71, 0
2, 108494, Control_c, 0, 64, 49
2, 108509, Control_c, 0, 64, 50
2, 108540, Control_c, 0, 64, 50
2, 108569, Note_on_c, 0, 52, 0
2, 108575, Note_on_c, 0, 50, 68
2, 108590, Note_on_c, 0, 74, 80
2, 108608, Note_on_c, 0, 59, 76
2, 108623, Note_on_c, 0, 57, 0
2, 108626, Note_on_c, 0, 72, 0
2, 108662, Control_c, 0, 64, 51
2, 108693, Control_c, 0, 64, 51
2, 108709, Note_on_c, 0, 74, 0
2, 108714, Note_on_c, 0, 60, 76
2, 108718, Note_on_c, 0, 59, 0
2, 108846, Note_on_c, 0, 57, 79
2, 108848, Note_on_c, 0, 60, 0
2, 108849, Note_on_c, 0, 72, 79
2, 108883, Control_c, 0, 64, 52
2, 108890, Note_on_c, 0, 50, 0
2, 108946, Note_on_c, 0, 72, 0
2, 108962, Note_on_c, 0, 59, 82
2, 108971, Note_on_c, 0, 57, 0
2, 108974, Control_c, 0, 64, 51
2, 109005, Control_c, 0, 64, 51
2, 109020, Control_c, 0, 64, 50
2, 109035, Control_c, 0, 64, 49
2, 109050, Control_c, 0, 64, 48
2, 109065, Control_c, 0, 64, 46
2, 109081, Control_c, 0, 64, 46
2, 109095, Note_on_c, 0, 52, 65
2, 109096, Control_c, 0, 64, 45
2, 109100, Note_on_c, 0, 71, 85
2, 109112, Note_on_c, 0, 60, 82
2, 109130, Note_on_c, 0, 59, 0
2, 109157, Control_c, 0, 64, 47
2, 109172, Control_c, 0, 64, 50
2, 109186, Control_c, 0, 64, 52
2, 109202, Control_c, 0, 64, 54
2, 109217, Control_c, 0, 64, 56
2, 109219, Note_on_c, 0, 62, 86
2, 109222, Note_on_c, 0, 71, 0
2, 109231, Note_on_c, 0, 60, 0
2, 109278, Control_c, 0, 64, 55
2, 109293, Control_c, 0, 64, 52
2, 109307, Control_c, 0, 64, 48
2, 109323, Control_c, 0, 64, 44
2, 109338, Control_c, 0, 64, 39
2, 109344, Note_on_c, 0, 59, 85
2, 109352, Note_on_c, 0, 62, 0
2, 109354, Control_c, 0, 64, 35
2, 109354, Note_on_c, 0, 76, 83
2, 109400, Control_c, 0, 64, 38
2, 109415, Control_c, 0, 64, 44
2, 109430, Control_c, 0, 64, 48
2, 109446, Control_c, 0, 64, 51
2, 109455, Note_on_c, 0, 60, 86
2, 109457, Note_on_c, 0, 59, 0
2, 109460, Control_c, 0, 64, 54
2, 109476, Control_c, 0, 64, 55
2, 109491, Control_c, 0, 64, 56
2, 109512, Note_on_c, 0, 60, 0
2, 109517, Note_on_c, 0, 52, 0
2, 109537, Control_c, 0, 64, 56
2, 109552, Control_c, 0, 64, 52
2, 109575, Control_c, 0, 64, 48
2, 109590, Control_c, 0, 64, 44
2, 109606, Control_c, 0, 64, 41
2, 109610, Note_on_c, 0, 53, 54
2, 109616, Note_on_c, 0, 69, 91
2, 109622, Note_on_c, 0, 62, 87
2, 109637, Control_c, 0, 64, 43
2, 109641, Note_on_c, 0, 76, 0
2, 109652, Control_c, 0, 64, 50
2, 109666, Control_c, 0, 64, 56
2, 109682, Control_c, 0, 64, 59
2, 109697, Control_c, 0, 64, 62
2, 109704, Note_on_c, 0, 69, 0
2, 109712, Control_c, 0, 64, 64
2, 109728, Control_c, 0, 64, 66
2, 109733, Note_on_c, 0, 62, 0
2, 109742, Control_c, 0, 64, 67
2, 109759, Note_on_c, 0, 53, 0
2, 109773, Control_c, 0, 64, 66
2, 109788, Control_c, 0, 64, 64
2, 109804, Control_c, 0, 64, 63
2, 109819, Control_c, 0, 64, 61
2, 109834, Control_c, 0, 64, 58
2, 109849, Control_c, 0, 64, 55
2, 109864, Control_c, 0, 64, 51
2, 109879, Note_on_c, 0, 60, 83
2, 109880, Control_c, 0, 64, 49
2, 109883, Note_on_c, 0, 52, 68
2, 109883, Note_on_c, 0, 81, 83
2, 109910, Control_c, 0, 64, 49
2, 109975, Note_on_c, 0, 60, 0
2, 109984, Note_on_c, 0, 52, 0
2, 110092, Control_c, 0, 64, 49
2, 110107, Control_c, 0, 64, 50
2, 110123, Control_c, 0, 64, 50
2, 110138, Control_c, 0, 64, 51
2, 110141, Note_on_c, 0, 50, 74
2, 110142, Note_on_c, 0, 59, 86
2, 110151, Control_c, 0, 64, 51
2, 110213, Control_c, 0, 64, 52
2, 110238, Note_on_c, 0, 50, 0
2, 110246, Note_on_c, 0, 59, 0
2, 110246, Note_on_c, 0, 81, 0
2, 110405, Note_on_c, 0, 79, 84
2, 110413, Note_on_c, 0, 52, 69
2, 110413, Note_on_c, 0, 64, 82
2, 110466, Note_on_c, 0, 64, 0
2, 110497, Note_on_c, 0, 52, 0
2, 110601, Control_c, 0, 64, 52
2, 110631, Control_c, 0, 64, 53
2, 110647, Control_c, 0, 64, 53
2, 110662, Control_c, 0, 64, 54
2, 110684, Note_on_c, 0, 57, 78
2, 110691, Note_on_c, 0, 48, 73
2, 110693, Control_c, 0, 64, 54
2, 110705, Note_on_c, 0, 79, 0
2, 110942, Note_on_c, 0, 47, 61
2, 110944, Note_on_c, 0, 84, 76
2, 110946, Note_on_c, 0, 48, 0
2, 110981, Control_c, 0, 64, 54
2, 110996, Note_on_c, 0, 47, 0
2, 111011, Control_c, 0, 64, 53
2, 111043, Control_c, 0, 64, 53
2, 111058, Note_on_c, 0, 83, 73
2, 111088, Control_c, 0, 64, 52
2, 111106, Note_on_c, 0, 84, 0
2, 111127, Control_c, 0, 64, 52
2, 111142, Control_c, 0, 64, 51
2, 111190, Note_on_c, 0, 48, 61
2, 111191, Note_on_c, 0, 81, 65
2, 111194, Note_on_c, 0, 83, 0
2, 111249, Note_on_c, 0, 48, 0
2, 111264, Note_on_c, 0, 81, 0
2, 111296, Note_on_c, 0, 79, 65
2, 111423, Note_on_c, 0, 79, 0
2, 111426, Note_on_c, 0, 78, 57
2, 111432, Note_on_c, 0, 45, 45
2, 111483, Note_on_c, 0, 45, 0
2, 111491, Control_c, 0, 64, 51
2, 111506, Control_c, 0, 64, 50
2, 111521, Control_c, 0, 64, 48
2, 111533, Note_on_c, 0, 78, 0
2, 111536, Control_c, 0, 64, 46
2, 111542, Note_on_c, 0, 76, 60
2, 111551, Control_c, 0, 64, 41
2, 111567, Control_c, 0, 64, 35
2, 111582, Control_c, 0, 64, 33
2, 111598, Control_c, 0, 64, 32
2, 111643, Control_c, 0, 64, 34
2, 111658, Control_c, 0, 64, 41
2, 111674, Control_c, 0, 64, 48
2, 111685, Note_on_c, 0, 76, 0
2, 111687, Note_on_c, 0, 75, 62
2, 111688, Control_c, 0, 64, 54
2, 111692, Note_on_c, 0, 47, 45
2, 111703, Control_c, 0, 64, 58
2, 111719, Control_c, 0, 64, 63
2, 111734, Control_c, 0, 64, 67
2, 111740, Note_on_c, 0, 57, 0
2, 111749, Control_c, 0, 64, 72
2, 111763, Note_on_c, 0, 75, 0
2, 111764, Control_c, 0, 64, 77
2, 111779, Control_c, 0, 64, 79
2, 111795, Control_c, 0, 64, 78
2, 111810, Control_c, 0, 64, 73
2, 111825, Control_c, 0, 64, 68
2, 111840, Control_c, 0, 64, 61
2, 111855, Control_c, 0, 64, 53
2, 111879, Control_c, 0, 64, 51
2, 111909, Control_c, 0, 64, 50
2, 111925, Control_c, 0, 64, 48
2, 111940, Control_c, 0, 64, 44
2, 111956, Control_c, 0, 64, 41
2, 111971, Control_c, 0, 64, 41
2, 111978, Note_on_c, 0, 71, 70
2, 111981, Note_on_c, 0, 55, 57
2, 111983, Note_on_c, 0, 64, 69
2, 112003, Control_c, 0, 64, 40
2, 112063, Note_on_c, 0, 71, 0
2, 112071, Note_on_c, 0, 55, 0
2, 112078, Note_on_c, 0, 63, 77
2, 112081, Note_on_c, 0, 64, 0
2, 112089, Note_on_c, 0, 54, 69
2, 112139, Control_c, 0, 64, 39
2, 112155, Control_c, 0, 64, 38
2, 112170, Control_c, 0, 64, 36
2, 112185, Control_c, 0, 64, 35
2, 112207, Note_on_c, 0, 64, 77
2, 112213, Note_on_c, 0, 73, 83
2, 112217, Note_on_c, 0, 55, 70
2, 112220, Note_on_c, 0, 63, 0
2, 112231, Control_c, 0, 64, 35
2, 112246, Control_c, 0, 64, 40
2, 112249, Note_on_c, 0, 54, 0
2, 112261, Control_c, 0, 64, 46
2, 112276, Control_c, 0, 64, 51
2, 112291, Control_c, 0, 64, 54
2, 112292, Note_on_c, 0, 55, 0
2, 112307, Control_c, 0, 64, 56
2, 112309, Note_on_c, 0, 64, 0
2, 112320, Note_on_c, 0, 47, 0
2, 112322, Control_c, 0, 64, 59
2, 112336, Control_c, 0, 64, 60
2, 112337, Note_on_c, 0, 73, 0
2, 112382, Control_c, 0, 64, 58
2, 112398, Control_c, 0, 64, 54
2, 112413, Control_c, 0, 64, 49
2, 112429, Control_c, 0, 64, 39
2, 112444, Control_c, 0, 64, 28
2, 112458, Control_c, 0, 64, 25
2, 112472, Note_on_c, 0, 66, 84
2, 112473, Note_on_c, 0, 75, 88
2, 112474, Note_on_c, 0, 45, 62
2, 112478, Note_on_c, 0, 57, 78
2, 112488, Control_c, 0, 64, 33
2, 112503, Control_c, 0, 64, 47
2, 112519, Control_c, 0, 64, 58
2, 112530, Note_on_c, 0, 57, 0
2, 112533, Control_c, 0, 64, 64
2, 112535, Note_on_c, 0, 45, 0
2, 112549, Control_c, 0, 64, 69
2, 112564, Control_c, 0, 64, 83
2, 112579, Control_c, 0, 64, 127
2, 112584, Note_on_c, 0, 66, 0
2, 112624, Note_on_c, 0, 43, 72
2, 112637, Note_on_c, 0, 75, 0
2, 112663, Note_on_c, 0, 43, 0
2, 112710, Control_c, 0, 64, 91
2, 112725, Control_c, 0, 64, 74
2, 112740, Control_c, 0, 64, 62
2, 112743, Note_on_c, 0, 76, 81
2, 112747, Note_on_c, 0, 67, 79
2, 112750, Note_on_c, 0, 59, 86
2, 112756, Control_c, 0, 64, 44
2, 112770, Control_c, 0, 64, 37
2, 112801, Control_c, 0, 64, 39
2, 112802, Note_on_c, 0, 67, 0
2, 112816, Control_c, 0, 64, 44
2, 112832, Control_c, 0, 64, 50
2, 112845, Note_on_c, 0, 59, 0
2, 112846, Control_c, 0, 64, 54
2, 112861, Control_c, 0, 64, 57
2, 112863, Note_on_c, 0, 74, 70
2, 112877, Control_c, 0, 64, 58
2, 112892, Control_c, 0, 64, 59
2, 112908, Control_c, 0, 64, 60
2, 112914, Note_on_c, 0, 76, 0
2, 112982, Control_c, 0, 64, 59
2, 112983, Note_on_c, 0, 74, 0
2, 112997, Note_on_c, 0, 52, 85
2, 112998, Control_c, 0, 64, 58
2, 113002, Note_on_c, 0, 72, 58
2, 113005, Note_on_c, 0, 64, 65
2, 113013, Control_c, 0, 64, 58
2, 113024, Note_on_c, 0, 67, 36
2, 113025, Note_on_c, 0, 72, 0
2, 113029, Control_c, 0, 64, 56
2, 113043, Control_c, 0, 64, 55
2, 113055, Note_on_c, 0, 67, 0
2, 113058, Control_c, 0, 64, 53
2, 113074, Control_c, 0, 64, 52
2, 113089, Control_c, 0, 64, 51
2, 113092, Note_on_c, 0, 51, 82
2, 113104, Control_c, 0, 64, 51
2, 113110, Note_on_c, 0, 71, 71
2, 113120, Control_c, 0, 64, 50
2, 113122, Note_on_c, 0, 52, 0
2, 113124, Note_on_c, 0, 66, 64
2, 113134, Control_c, 0, 64, 49
2, 113150, Control_c, 0, 64, 48
2, 113165, Control_c, 0, 64, 48
2, 113180, Control_c, 0, 64, 47
2, 113211, Control_c, 0, 64, 46
2, 113217, Note_on_c, 0, 71, 0
2, 113218, Note_on_c, 0, 72, 79
2, 113227, Control_c, 0, 64, 45
2, 113229, Note_on_c, 0, 52, 86
2, 113238, Note_on_c, 0, 66, 0
2, 113242, Control_c, 0, 64, 43
2, 113255, Note_on_c, 0, 67, 67
2, 113256, Control_c, 0, 64, 41
2, 113272, Control_c, 0, 64, 41
2, 113287, Control_c, 0, 64, 40
2, 113332, Control_c, 0, 64, 40
2, 113345, Note_on_c, 0, 51, 0
2, 113358, Note_on_c, 0, 72, 0
2, 113361, Note_on_c, 0, 52, 0
2, 113363, Control_c, 0, 64, 39
2, 113508, Control_c, 0, 64, 40
2, 113515, Note_on_c, 0, 69, 71
2, 113521, Note_on_c, 0, 54, 89
2, 113523, Control_c, 0, 64, 42
2, 113525, Note_on_c, 0, 63, 71
2, 113536, Note_on_c, 0, 64, 0
2, 113538, Control_c, 0, 64, 44
2, 113544, Note_on_c, 0, 67, 0
2, 113554, Control_c, 0, 64, 45
2, 113569, Control_c, 0, 64, 47
2, 113573, Note_on_c, 0, 63, 0
2, 113584, Control_c, 0, 64, 47
2, 113588, Note_on_c, 0, 69, 0
2, 113600, Control_c, 0, 64, 48
2, 113645, Control_c, 0, 64, 49
2, 113647, Note_on_c, 0, 54, 0
2, 113774, Note_on_c, 0, 55, 82
2, 113776, Note_on_c, 0, 71, 81
2, 113795, Note_on_c, 0, 64, 62
2, 113846, Note_on_c, 0, 64, 0
2, 113863, Note_on_c, 0, 55, 0
2, 113887, Note_on_c, 0, 69, 84
2, 113900, Control_c, 0, 64, 49
2, 113912, Note_on_c, 0, 71, 0
2, 113976, Control_c, 0, 64, 50
2, 114024, Note_on_c, 0, 76, 85
2, 114026, Note_on_c, 0, 55, 80
2, 114035, Note_on_c, 0, 67, 71
2, 114036, Note_on_c, 0, 69, 0
2, 114083, Control_c, 0, 64, 50
2, 114123, Note_on_c, 0, 67, 0
2, 114127, Note_on_c, 0, 54, 81
2, 114129, Control_c, 0, 64, 51
2, 114129, Note_on_c, 0, 75, 85
2, 114138, Note_on_c, 0, 69, 79
2, 114158, Note_on_c, 0, 55, 0
2, 114179, Note_on_c, 0, 76, 0
2, 114181, Control_c, 0, 64, 51
2, 114276, Note_on_c, 0, 55, 90
2, 114276, Note_on_c, 0, 76, 88
2, 114279, Note_on_c, 0, 71, 82
2, 114299, Note_on_c, 0, 69, 0
2, 114301, Note_on_c, 0, 54, 0
2, 114340, Note_on_c, 0, 75, 0
2, 114349, Control_c, 0, 64, 52
2, 114365, Control_c, 0, 64, 52
2, 114389, Note_on_c, 0, 76, 0
2, 114396, Control_c, 0, 64, 53
2, 114410, Note_on_c, 0, 71, 0
2, 114420, Note_on_c, 0, 55, 0
2, 114425, Control_c, 0, 64, 54
2, 114535, Note_on_c, 0, 78, 84
2, 114539, Note_on_c, 0, 72, 84
2, 114545, Note_on_c, 0, 57, 92
2, 114608, Control_c, 0, 64, 54
2, 114609, Note_on_c, 0, 72, 0
2, 114620, Note_on_c, 0, 57, 0
2, 114623, Control_c, 0, 64, 55
2, 114639, Control_c, 0, 64, 55
2, 114651, Note_on_c, 0, 78, 0
2, 114715, Control_c, 0, 64, 56
2, 114806, Note_on_c, 0, 79, 85
2, 114809, Note_on_c, 0, 59, 71
2, 114812, Note_on_c, 0, 63, 79
2, 114923, Note_on_c, 0, 57, 79
2, 114952, Note_on_c, 0, 63, 0
2, 114954, Note_on_c, 0, 79, 0
2, 114958, Note_on_c, 0, 59, 0
2, 114996, Control_c, 0, 64, 55
2, 115026, Control_c, 0, 64, 55
2, 115042, Control_c, 0, 64, 54
2, 115061, Note_on_c, 0, 55, 70
2, 115067, Note_on_c, 0, 79, 79
2, 115071, Control_c, 0, 64, 54
2, 115077, Note_on_c, 0, 59, 77
2, 115083, Note_on_c, 0, 57, 0
2, 115087, Control_c, 0, 64, 53
2, 115102, Control_c, 0, 64, 52
2, 115118, Control_c, 0, 64, 52
2, 115127, Note_on_c, 0, 55, 0
2, 115133, Control_c, 0, 64, 51
2, 115149, Control_c, 0, 64, 51
2, 115165, Control_c, 0, 64, 50
2, 115179, Control_c, 0, 64, 49
2, 115184, Note_on_c, 0, 78, 85
2, 115185, Note_on_c, 0, 57, 86
2, 115195, Control_c, 0, 64, 48
2, 115208, Note_on_c, 0, 79, 0
2, 115210, Control_c, 0, 64, 47
2, 115216, Note_on_c, 0, 59, 0
2, 115224, Control_c, 0, 64, 46
2, 115240, Control_c, 0, 64, 44
2, 115255, Control_c, 0, 64, 41
2, 115270, Control_c, 0, 64, 38
2, 115286, Control_c, 0, 64, 33
2, 115300, Control_c, 0, 64, 25
2, 115316, Control_c, 0, 64, 0
2, 115325, Note_on_c, 0, 59, 92
2, 115326, Note_on_c, 0, 79, 83
2, 115363, Note_on_c, 0, 57, 0
2, 115367, Note_on_c, 0, 78, 0
2, 115444, Note_on_c, 0, 59, 0
2, 115485, Note_on_c, 0, 79, 0
2, 115574, Control_c, 0, 64, 18
2, 115578, Note_on_c, 0, 81, 70
2, 115582, Note_on_c, 0, 64, 85
2, 115587, Note_on_c, 0, 60, 80
2, 115589, Control_c, 0, 64, 44
2, 115605, Control_c, 0, 64, 57
2, 115620, Control_c, 0, 64, 64
2, 115629, Note_on_c, 0, 64, 0
2, 115635, Control_c, 0, 64, 72
2, 115636, Note_on_c, 0, 81, 0
2, 115645, Note_on_c, 0, 60, 0
2, 115650, Control_c, 0, 64, 92
2, 115665, Control_c, 0, 64, 127
2, 115765, Control_c, 0, 64, 100
2, 115780, Control_c, 0, 64, 88
2, 115795, Control_c, 0, 64, 79
2, 115810, Control_c, 0, 64, 71
2, 115825, Control_c, 0, 64, 65
2, 115840, Control_c, 0, 64, 60
2, 115855, Control_c, 0, 64, 56
2, 115862, Note_on_c, 0, 51, 84
2, 115870, Control_c, 0, 64, 55
2, 115874, Note_on_c, 0, 71, 66
2, 115878, Note_on_c, 0, 66, 69
2, 115886, Control_c, 0, 64, 53
2, 115901, Control_c, 0, 64, 48
2, 115916, Control_c, 0, 64, 42
2, 115931, Control_c, 0, 64, 38
2, 115946, Control_c, 0, 64, 36
2, 115988, Note_on_c, 0, 66, 0
2, 115989, Note_on_c, 0, 67, 72
2, 115994, Control_c, 0, 64, 35
2, 115994, Note_on_c, 0, 51, 0
2, 116009, Control_c, 0, 64, 34
2, 116023, Control_c, 0, 64, 33
2, 116039, Control_c, 0, 64, 32
2, 116054, Control_c, 0, 64, 31
2, 116068, Control_c, 0, 64, 30
2, 116084, Control_c, 0, 64, 30
2, 116099, Control_c, 0, 64, 27
2, 116115, Control_c, 0, 64, 25
2, 116118, Note_on_c, 0, 67, 0
2, 116127, Note_on_c, 0, 47, 63
2, 116130, Control_c, 0, 64, 24
2, 116132, Note_on_c, 0, 64, 62
2, 116236, Note_on_c, 0, 47, 0
2, 116248, Note_on_c, 0, 66, 70
2, 116267, Note_on_c, 0, 64, 0
2, 116327, Control_c, 0, 64, 24
2, 116342, Control_c, 0, 64, 26
2, 116358, Control_c, 0, 64, 27
2, 116373, Control_c, 0, 64, 28
2, 116378, Note_on_c, 0, 67, 76
2, 116388, Control_c, 0, 64, 29
2, 116389, Note_on_c, 0, 66, 0
2, 116404, Control_c, 0, 64, 30
2, 116418, Control_c, 0, 64, 30
2, 116434, Control_c, 0, 64, 31
2, 116449, Control_c, 0, 64, 32
2, 116464, Control_c, 0, 64, 32
2, 116486, Control_c, 0, 64, 33
2, 116507, Note_on_c, 0, 69, 71
2, 116517, Control_c, 0, 64, 34
2, 116530, Note_on_c, 0, 67, 0
2, 116532, Control_c, 0, 64, 34
2, 116578, Control_c, 0, 64, 35
2, 116608, Control_c, 0, 64, 35
2, 116623, Control_c, 0, 64, 36
2, 116624, Note_on_c, 0, 52, 67
2, 116627, Note_on_c, 0, 66, 78
2, 116639, Control_c, 0, 64, 37
2, 116654, Control_c, 0, 64, 38
2, 116660, Note_on_c, 0, 69, 0
2, 116669, Control_c, 0, 64, 39
2, 116684, Control_c, 0, 64, 40
2, 116699, Control_c, 0, 64, 40
2, 116702, Note_on_c, 0, 52, 0
2, 116715, Control_c, 0, 64, 41
2, 116730, Control_c, 0, 64, 41
2, 116741, Note_on_c, 0, 67, 78
2, 116745, Control_c, 0, 64, 42
2, 116760, Control_c, 0, 64, 43
2, 116765, Note_on_c, 0, 66, 0
2, 116775, Control_c, 0, 64, 43
2, 116791, Control_c, 0, 64, 44
2, 116822, Control_c, 0, 64, 45
2, 116853, Control_c, 0, 64, 45
2, 116870, Note_on_c, 0, 69, 78
2, 116875, Note_on_c, 0, 54, 63
2, 116912, Control_c, 0, 64, 46
2, 116912, Note_on_c, 0, 67, 0
2, 116959, Control_c, 0, 64, 46
2, 116969, Note_on_c, 0, 54, 0
2, 116988, Control_c, 0, 64, 47
2, 116990, Note_on_c, 0, 69, 0
2, 116991, Note_on_c, 0, 55, 55
2, 117085, Note_on_c, 0, 55, 0
2, 117125, Note_on_c, 0, 52, 58
2, 117127, Note_on_c, 0, 67, 71
2, 117140, Control_c, 0, 64, 47
2, 117156, Control_c, 0, 64, 48
2, 117231, Control_c, 0, 64, 48
2, 117248, Note_on_c, 0, 52, 0
2, 117250, Note_on_c, 0, 54, 66
2, 117269, Control_c, 0, 64, 47
2, 117284, Control_c, 0, 64, 46
2, 117299, Control_c, 0, 64, 46
2, 117335, Note_on_c, 0, 67, 0
2, 117355, Note_on_c, 0, 71, 0
2, 117361, Control_c, 0, 64, 47
2, 117372, Note_on_c, 0, 54, 0
2, 117376, Control_c, 0, 64, 50
2, 117385, Note_on_c, 0, 55, 68
2, 117391, Control_c, 0, 64, 55
2, 117391, Note_on_c, 0, 66, 73
2, 117406, Control_c, 0, 64, 59
2, 117421, Control_c, 0, 64, 63
2, 117437, Control_c, 0, 64, 68
2, 117451, Control_c, 0, 64, 75
2, 117466, Control_c, 0, 64, 85
2, 117478, Note_on_c, 0, 66, 0
2, 117482, Control_c, 0, 64, 92
2, 117493, Note_on_c, 0, 55, 0
2, 117497, Control_c, 0, 64, 91
2, 117498, Note_on_c, 0, 57, 75
2, 117512, Control_c, 0, 64, 87
2, 117527, Control_c, 0, 64, 82
2, 117542, Control_c, 0, 64, 77
2, 117558, Control_c, 0, 64, 73
2, 117573, Control_c, 0, 64, 70
2, 117588, Control_c, 0, 64, 67
2, 117605, Control_c, 0, 64, 63
2, 117620, Control_c, 0, 64, 57
2, 117624, Note_on_c, 0, 71, 75
2, 117628, Note_on_c, 0, 54, 75
2, 117629, Note_on_c, 0, 76, 73
2, 117635, Control_c, 0, 64, 51
2, 117636, Note_on_c, 0, 57, 0
2, 117650, Control_c, 0, 64, 50
2, 117665, Control_c, 0, 64, 50
2, 117680, Control_c, 0, 64, 49
2, 117695, Control_c, 0, 64, 48
2, 117710, Control_c, 0, 64, 46
2, 117722, Note_on_c, 0, 71, 0
2, 117732, Note_on_c, 0, 55, 79
2, 117736, Note_on_c, 0, 74, 77
2, 117741, Control_c, 0, 64, 46
2, 117772, Note_on_c, 0, 54, 0
2, 117801, Note_on_c, 0, 76, 0
2, 117869, Note_on_c, 0, 57, 81
2, 117870, Note_on_c, 0, 72, 69
2, 117876, Note_on_c, 0, 64, 68
2, 117878, Note_on_c, 0, 74, 0
2, 117900, Note_on_c, 0, 55, 0
2, 117907, Note_on_c, 0, 72, 0
2, 117908, Control_c, 0, 64, 45
2, 117938, Control_c, 0, 64, 45
2, 117954, Control_c, 0, 64, 44
2, 117969, Control_c, 0, 64, 44
2, 117984, Control_c, 0, 64, 43
2, 117990, Note_on_c, 0, 71, 74
2, 117991, Note_on_c, 0, 57, 0
2, 118000, Control_c, 0, 64, 43
2, 118097, Control_c, 0, 64, 42
2, 118136, Note_on_c, 0, 55, 71
2, 118144, Note_on_c, 0, 71, 0
2, 118149, Note_on_c, 0, 69, 61
2, 118189, Control_c, 0, 64, 43
2, 118237, Note_on_c, 0, 55, 0
2, 118261, Note_on_c, 0, 69, 0
2, 118264, Note_on_c, 0, 71, 65
2, 118281, Control_c, 0, 64, 43
2, 118295, Control_c, 0, 64, 44
2, 118326, Control_c, 0, 64, 44
2, 118341, Control_c, 0, 64, 45
2, 118371, Control_c, 0, 64, 45
2, 118383, Note_on_c, 0, 71, 0
2, 118392, Note_on_c, 0, 72, 66
2, 118400, Note_on_c, 0, 64, 0
2, 118401, Note_on_c, 0, 54, 70
2, 118486, Note_on_c, 0, 54, 0
2, 118639, Note_on_c, 0, 71, 56
2, 118651, Note_on_c, 0, 72, 0
2, 118655, Note_on_c, 0, 59, 62
2, 118660, Note_on_c, 0, 63, 53
2, 118692, Control_c, 0, 64, 44
2, 118700, Note_on_c, 0, 59, 0
2, 118707, Control_c, 0, 64, 43
2, 118708, Note_on_c, 0, 63, 0
2, 118719, Note_on_c, 0, 71, 0
2, 118722, Control_c, 0, 64, 39
2, 118737, Control_c, 0, 64, 34
2, 118752, Control_c, 0, 64, 23
2, 118765, Note_on_c, 0, 69, 59
2, 118768, Control_c, 0, 64, 0
2, 118882, Note_on_c, 0, 69, 0
2, 118919, Note_on_c, 0, 67, 55
2, 118920, Note_on_c, 0, 64, 51
2, 118926, Note_on_c, 0, 52, 54
2, 118928, Control_c, 0, 64, 35
2, 118942, Control_c, 0, 64, 50
2, 118958, Control_c, 0, 64, 57
2, 118973, Control_c, 0, 64, 61
2, 118988, Control_c, 0, 64, 64
2, 118989, Note_on_c, 0, 64, 0
2, 118999, Note_on_c, 0, 67, 0
2, 119004, Control_c, 0, 64, 66
2, 119015, Note_on_c, 0, 52, 0
2, 119018, Control_c, 0, 64, 72
2, 119034, Control_c, 0, 64, 78
2, 119049, Control_c, 0, 64, 83
2, 119064, Control_c, 0, 64, 82
2, 119080, Control_c, 0, 64, 79
2, 119094, Control_c, 0, 64, 76
2, 119109, Control_c, 0, 64, 72
2, 119125, Control_c, 0, 64, 70
2, 119140, Control_c, 0, 64, 68
2, 119156, Control_c, 0, 64, 66
2, 119171, Control_c, 0, 64, 62
2, 119183, Note_on_c, 0, 52, 51
2, 119186, Control_c, 0, 64, 58
2, 119189, Note_on_c, 0, 72, 71
2, 119202, Control_c, 0, 64, 56
2, 119216, Control_c, 0, 64, 55
2, 119231, Control_c, 0, 64, 55
2, 119247, Control_c, 0, 64, 54
2, 119262, Control_c, 0, 64, 52
2, 119263, Note_on_c, 0, 52, 0
2, 119278, Control_c, 0, 64, 51
2, 119287, Note_on_c, 0, 72, 0
2, 119292, Note_on_c, 0, 51, 58
2, 119296, Note_on_c, 0, 71, 73
2, 119308, Control_c, 0, 64, 51
2, 119324, Control_c, 0, 64, 50
2, 119339, Control_c, 0, 64, 50
2, 119355, Control_c, 0, 64, 49
2, 119369, Control_c, 0, 64, 49
2, 119384, Control_c, 0, 64, 48
2, 119411, Note_on_c, 0, 72, 77
2, 119415, Control_c, 0, 64, 48
2, 119427, Note_on_c, 0, 52, 58
2, 119430, Control_c, 0, 64, 47
2, 119430, Note_on_c, 0, 69, 68
2, 119445, Control_c, 0, 64, 46
2, 119456, Note_on_c, 0, 71, 0
2, 119460, Control_c, 0, 64, 45
2, 119476, Control_c, 0, 64, 44
2, 119501, Note_on_c, 0, 69, 0
2, 119510, Note_on_c, 0, 52, 0
2, 119521, Control_c, 0, 64, 44
2, 119536, Control_c, 0, 64, 43
2, 119539, Note_on_c, 0, 67, 66
2, 119574, Control_c, 0, 64, 43
2, 119589, Control_c, 0, 64, 42
2, 119605, Control_c, 0, 64, 41
2, 119620, Control_c, 0, 64, 39
2, 119636, Control_c, 0, 64, 38
2, 119650, Control_c, 0, 64, 35
2, 119665, Control_c, 0, 64, 32
2, 119672, Note_on_c, 0, 67, 0
2, 119676, Note_on_c, 0, 66, 66
2, 119678, Note_on_c, 0, 54, 65
2, 119681, Control_c, 0, 64, 26
2, 119695, Note_on_c, 0, 51, 0
2, 119696, Control_c, 0, 64, 21
2, 119711, Control_c, 0, 64, 0
2, 119751, Note_on_c, 0, 54, 0
2, 119781, Note_on_c, 0, 66, 0
2, 119784, Note_on_c, 0, 64, 65
2, 119925, Note_on_c, 0, 55, 62
2, 119927, Note_on_c, 0, 64, 0
2, 119930, Note_on_c, 0, 62, 67
2, 119938, Control_c, 0, 64, 28
2, 119954, Control_c, 0, 64, 44
2, 119969, Control_c, 0, 64, 55
2, 119981, Note_on_c, 0, 62, 0
2, 119984, Control_c, 0, 64, 60
2, 120000, Control_c, 0, 64, 63
2, 120014, Control_c, 0, 64, 67
2, 120017, Note_on_c, 0, 72, 0
2, 120029, Control_c, 0, 64, 72
2, 120045, Control_c, 0, 64, 82
2, 120061, Control_c, 0, 64, 100
2, 120077, Control_c, 0, 64, 127
2, 120167, Control_c, 0, 64, 111
2, 120179, Note_on_c, 0, 71, 80
2, 120182, Control_c, 0, 64, 103
2, 120198, Control_c, 0, 64, 96
2, 120199, Note_on_c, 0, 67, 78
2, 120213, Control_c, 0, 64, 89
2, 120228, Control_c, 0, 64, 84
2, 120244, Control_c, 0, 64, 80
2, 120259, Control_c, 0, 64, 75
2, 120275, Control_c, 0, 64, 69
2, 120283, Note_on_c, 0, 69, 85
2, 120289, Control_c, 0, 64, 63
2, 120303, Note_on_c, 0, 65, 68
2, 120304, Control_c, 0, 64, 57
2, 120305, Note_on_c, 0, 67, 0
2, 120323, Note_on_c, 0, 71, 0
2, 120327, Control_c, 0, 64, 53
2, 120342, Control_c, 0, 64, 52
2, 120358, Control_c, 0, 64, 52
2, 120372, Control_c, 0, 64, 49
2, 120387, Control_c, 0, 64, 45
2, 120397, Note_on_c, 0, 65, 0
2, 120403, Control_c, 0, 64, 40
2, 120418, Control_c, 0, 64, 37
2, 120423, Note_on_c, 0, 71, 86
2, 120428, Note_on_c, 0, 64, 74
2, 120434, Control_c, 0, 64, 36
2, 120449, Control_c, 0, 64, 35
2, 120462, Note_on_c, 0, 69, 0
2, 120464, Control_c, 0, 64, 35
2, 120480, Control_c, 0, 64, 34
2, 120525, Control_c, 0, 64, 34
2, 120531, Note_on_c, 0, 62, 79
2, 120534, Note_on_c, 0, 71, 0
2, 120540, Control_c, 0, 64, 30
2, 120555, Control_c, 0, 64, 26
2, 120556, Note_on_c, 0, 64, 0
2, 120570, Control_c, 0, 64, 21
2, 120585, Control_c, 0, 64, 15
2, 120601, Control_c, 0, 64, 0
2, 120665, Note_on_c, 0, 73, 83
2, 120671, Note_on_c, 0, 61, 80
2, 120702, Note_on_c, 0, 62, 0
2, 120706, Control_c, 0, 64, 15
2, 120722, Control_c, 0, 64, 28
2, 120737, Control_c, 0, 64, 39
2, 120751, Control_c, 0, 64, 42
2, 120767, Control_c, 0, 64, 43
2, 120768, Note_on_c, 0, 73, 0
2, 120776, Note_on_c, 0, 59, 80
2, 120782, Control_c, 0, 64, 44
2, 120798, Control_c, 0, 64, 44
2, 120813, Control_c, 0, 64, 46
2, 120815, Note_on_c, 0, 61, 0
2, 120904, Control_c, 0, 64, 45
2, 120907, Note_on_c, 0, 59, 0
2, 120920, Control_c, 0, 64, 45
2, 120935, Note_on_c, 0, 57, 90
2, 120940, Note_on_c, 0, 74, 82
2, 120945, Note_on_c, 0, 55, 0
2, 120980, Control_c, 0, 64, 46
2, 120996, Control_c, 0, 64, 49
2, 121011, Control_c, 0, 64, 52
2, 121026, Control_c, 0, 64, 54
2, 121042, Control_c, 0, 64, 55
2, 121056, Control_c, 0, 64, 56
2, 121101, Note_on_c, 0, 74, 0
2, 121185, Control_c, 0, 64, 55
2, 121216, Control_c, 0, 64, 55
2, 121218, Note_on_c, 0, 74, 81
2, 121222, Note_on_c, 0, 54, 85
2, 121231, Control_c, 0, 64, 54
2, 121247, Control_c, 0, 64, 53
2, 121261, Control_c, 0, 64, 53
2, 121277, Control_c, 0, 64, 52
2, 121307, Control_c, 0, 64, 52
2, 121322, Note_on_c, 0, 52, 77
2, 121323, Control_c, 0, 64, 51
2, 121329, Note_on_c, 0, 72, 80
2, 121337, Control_c, 0, 64, 50
2, 121344, Note_on_c, 0, 54, 0
2, 121352, Control_c, 0, 64, 49
2, 121368, Control_c, 0, 64, 48
2, 121383, Control_c, 0, 64, 47
2, 121398, Control_c, 0, 64, 47
2, 121413, Control_c, 0, 64, 46
2, 121428, Control_c, 0, 64, 45
2, 121444, Control_c, 0, 64, 43
2, 121456, Note_on_c, 0, 54, 88
2, 121459, Control_c, 0, 64, 41
2, 121463, Note_on_c, 0, 71, 81
2, 121474, Control_c, 0, 64, 40
2, 121487, Note_on_c, 0, 52, 0
2, 121489, Control_c, 0, 64, 39
2, 121520, Control_c, 0, 64, 38
2, 121535, Control_c, 0, 64, 38
2, 121538, Note_on_c, 0, 72, 0
2, 121568, Note_on_c, 0, 71, 0
2, 121571, Note_on_c, 0, 69, 84
2, 121574, Note_on_c, 0, 54, 0
2, 121596, Control_c, 0, 64, 38
2, 121625, Control_c, 0, 64, 39
2, 121641, Control_c, 0, 64, 39
2, 121703, Note_on_c, 0, 56, 87
2, 121704, Note_on_c, 0, 68, 82
2, 121729, Note_on_c, 0, 69, 0
2, 121740, Note_on_c, 0, 57, 0
2, 121808, Note_on_c, 0, 56, 0
2, 121809, Control_c, 0, 64, 39
2, 121814, Note_on_c, 0, 66, 82
2, 121824, Control_c, 0, 64, 35
2, 121839, Note_on_c, 0, 68, 0
2, 121840, Control_c, 0, 64, 28
2, 121862, Control_c, 0, 64, 21
2, 121878, Control_c, 0, 64, 0
2, 121969, Control_c, 0, 64, 26
2, 121969, Note_on_c, 0, 64, 85
2, 121972, Note_on_c, 0, 57, 92
2, 121983, Control_c, 0, 64, 40
2, 121999, Control_c, 0, 64, 50
2, 122014, Control_c, 0, 64, 55
2, 122014, Note_on_c, 0, 66, 0
2, 122029, Control_c, 0, 64, 59
2, 122040, Note_on_c, 0, 64, 0
2, 122045, Control_c, 0, 64, 62
2, 122060, Control_c, 0, 64, 65
2, 122069, Note_on_c, 0, 74, 0
2, 122076, Control_c, 0, 64, 69
2, 122090, Control_c, 0, 64, 73
2, 122105, Control_c, 0, 64, 75
2, 122121, Control_c, 0, 64, 74
2, 122135, Note_on_c, 0, 57, 0
2, 122136, Control_c, 0, 64, 71
2, 122151, Control_c, 0, 64, 66
2, 122167, Control_c, 0, 64, 62
2, 122181, Control_c, 0, 64, 60
2, 122197, Control_c, 0, 64, 58
2, 122212, Control_c, 0, 64, 57
2, 122227, Control_c, 0, 64, 55
2, 122242, Control_c, 0, 64, 54
2, 122244, Note_on_c, 0, 72, 88
2, 122245, Note_on_c, 0, 57, 87
2, 122257, Control_c, 0, 64, 53
2, 122345, Note_on_c, 0, 56, 87
2, 122346, Note_on_c, 0, 71, 90
2, 122363, Control_c, 0, 64, 54
2, 122368, Note_on_c, 0, 57, 0
2, 122381, Note_on_c, 0, 72, 0
2, 122482, Note_on_c, 0, 57, 93
2, 122484, Note_on_c, 0, 72, 93
2, 122487, Note_on_c, 0, 69, 81
2, 122522, Note_on_c, 0, 71, 0
2, 122523, Note_on_c, 0, 56, 0
2, 122532, Control_c, 0, 64, 53
2, 122636, Note_on_c, 0, 57, 0
2, 122698, Note_on_c, 0, 72, 0
2, 122764, Note_on_c, 0, 59, 89
2, 122767, Note_on_c, 0, 74, 88
2, 122894, Note_on_c, 0, 59, 0
2, 122924, Note_on_c, 0, 74, 0
2, 123026, Note_on_c, 0, 60, 94
2, 123028, Note_on_c, 0, 76, 89
2, 123041, Control_c, 0, 64, 54
2, 123056, Control_c, 0, 64, 56
2, 123071, Control_c, 0, 64, 57
2, 123086, Control_c, 0, 64, 58
2, 123101, Control_c, 0, 64, 59
2, 123117, Control_c, 0, 64, 59
2, 123118, Note_on_c, 0, 69, 0
2, 123137, Note_on_c, 0, 60, 0
2, 123147, Control_c, 0, 64, 59
2, 123162, Control_c, 0, 64, 58
2, 123177, Control_c, 0, 64, 57
2, 123192, Control_c, 0, 64, 55
2, 123206, Control_c, 0, 64, 52
2, 123221, Control_c, 0, 64, 50
2, 123237, Control_c, 0, 64, 48
2, 123252, Control_c, 0, 64, 47
2, 123280, Note_on_c, 0, 69, 86
2, 123285, Note_on_c, 0, 57, 78
2, 123292, Note_on_c, 0, 60, 84
2, 123298, Control_c, 0, 64, 48
2, 123314, Control_c, 0, 64, 53
2, 123329, Control_c, 0, 64, 58
2, 123344, Control_c, 0, 64, 61
2, 123360, Control_c, 0, 64, 63
2, 123375, Control_c, 0, 64, 65
2, 123380, Note_on_c, 0, 59, 88
2, 123397, Note_on_c, 0, 68, 71
2, 123398, Control_c, 0, 64, 68
2, 123407, Note_on_c, 0, 69, 0
2, 123411, Note_on_c, 0, 76, 0
2, 123413, Control_c, 0, 64, 75
2, 123413, Note_on_c, 0, 60, 0
2, 123423, Note_on_c, 0, 68, 0
2, 123428, Control_c, 0, 64, 82
2, 123444, Control_c, 0, 64, 87
2, 123459, Control_c, 0, 64, 87
2, 123474, Control_c, 0, 64, 84
2, 123489, Control_c, 0, 64, 76
2, 123504, Control_c, 0, 64, 67
2, 123519, Control_c, 0, 64, 59
2, 123534, Control_c, 0, 64, 45
2, 123536, Note_on_c, 0, 60, 89
2, 123536, Note_on_c, 0, 81, 87
2, 123537, Note_on_c, 0, 55, 82
2, 123540, Note_on_c, 0, 69, 86
2, 123549, Control_c, 0, 64, 34
2, 123565, Control_c, 0, 64, 32
2, 123567, Note_on_c, 0, 59, 0
2, 123580, Control_c, 0, 64, 31
2, 123589, Note_on_c, 0, 57, 0
2, 123610, Control_c, 0, 64, 32
2, 123625, Control_c, 0, 64, 36
2, 123641, Control_c, 0, 64, 44
2, 123656, Control_c, 0, 64, 49
2, 123661, Note_on_c, 0, 60, 0
2, 123671, Control_c, 0, 64, 52
2, 123675, Note_on_c, 0, 55, 0
2, 123687, Control_c, 0, 64, 54
2, 123709, Note_on_c, 0, 69, 0
2, 123732, Control_c, 0, 64, 53
2, 123747, Control_c, 0, 64, 49
2, 123763, Control_c, 0, 64, 44
2, 123778, Control_c, 0, 64, 37
2, 123792, Control_c, 0, 64, 33
2, 123802, Note_on_c, 0, 62, 93
2, 123808, Control_c, 0, 64, 33
2, 123808, Note_on_c, 0, 71, 88
2, 123809, Note_on_c, 0, 53, 75
2, 123839, Control_c, 0, 64, 35
2, 123853, Control_c, 0, 64, 43
2, 123868, Control_c, 0, 64, 51
2, 123884, Control_c, 0, 64, 58
2, 123891, Note_on_c, 0, 62, 0
2, 123899, Control_c, 0, 64, 61
2, 123910, Note_on_c, 0, 53, 0
2, 123915, Control_c, 0, 64, 64
2, 123929, Control_c, 0, 64, 68
2, 123944, Control_c, 0, 64, 73
2, 123949, Note_on_c, 0, 71, 0
2, 123960, Control_c, 0, 64, 78
2, 123975, Control_c, 0, 64, 78
2, 123990, Control_c, 0, 64, 71
2, 124005, Control_c, 0, 64, 62
2, 124020, Control_c, 0, 64, 45
2, 124036, Control_c, 0, 64, 38
2, 124041, Note_on_c, 0, 52, 71
2, 124050, Control_c, 0, 64, 42
2, 124056, Note_on_c, 0, 72, 86
2, 124059, Note_on_c, 0, 64, 91
2, 124065, Control_c, 0, 64, 48
2, 124081, Control_c, 0, 64, 55
2, 124096, Control_c, 0, 64, 60
2, 124097, Note_on_c, 0, 52, 0
2, 124111, Control_c, 0, 64, 63
2, 124127, Control_c, 0, 64, 66
2, 124142, Control_c, 0, 64, 70
2, 124166, Control_c, 0, 64, 76
2, 124178, Note_on_c, 0, 80, 78
2, 124181, Control_c, 0, 64, 80
2, 124181, Note_on_c, 0, 72, 0
2, 124182, Note_on_c, 0, 62, 86
2, 124186, Note_on_c, 0, 64, 0
2, 124192, Note_on_c, 0, 81, 0
2, 124197, Control_c, 0, 64, 81
2, 124212, Control_c, 0, 64, 79
2, 124227, Control_c, 0, 64, 75
2, 124242, Control_c, 0, 64, 71
2, 124257, Control_c, 0, 64, 68
2, 124272, Control_c, 0, 64, 64
2, 124287, Control_c, 0, 64, 61
2, 124302, Control_c, 0, 64, 57
2, 124302, Note_on_c, 0, 60, 86
2, 124304, Note_on_c, 0, 72, 62
2, 124307, Note_on_c, 0, 81, 71
2, 124318, Control_c, 0, 64, 52
2, 124321, Note_on_c, 0, 62, 0
2, 124324, Note_on_c, 0, 80, 0
2, 124333, Control_c, 0, 64, 49
2, 124334, Note_on_c, 0, 72, 0
2, 124343, Note_on_c, 0, 74, 27
2, 124348, Control_c, 0, 64, 48
2, 124364, Note_on_c, 0, 74, 0
2, 124378, Control_c, 0, 64, 50
2, 124386, Note_on_c, 0, 81, 0
2, 124394, Control_c, 0, 64, 52
2, 124409, Control_c, 0, 64, 54
2, 124409, Note_on_c, 0, 60, 0
2, 124409, Note_on_c, 0, 62, 90
2, 124411, Note_on_c, 0, 71, 78
2, 124418, Note_on_c, 0, 80, 76
2, 124424, Control_c, 0, 64, 55
2, 124454, Control_c, 0, 64, 53
2, 124469, Control_c, 0, 64, 51
2, 124469, Note_on_c, 0, 71, 0
2, 124485, Control_c, 0, 64, 48
2, 124499, Control_c, 0, 64, 43
2, 124515, Control_c, 0, 64, 35
2, 124530, Control_c, 0, 64, 30
2, 124548, Note_on_c, 0, 64, 94
2, 124548, Note_on_c, 0, 81, 78
2, 124555, Note_on_c, 0, 72, 80
2, 124561, Control_c, 0, 64, 33
2, 124567, Note_on_c, 0, 62, 0
2, 124576, Control_c, 0, 64, 44
2, 124584, Note_on_c, 0, 80, 0
2, 124591, Control_c, 0, 64, 53
2, 124607, Control_c, 0, 64, 58
2, 124622, Control_c, 0, 64, 60
2, 124657, Note_on_c, 0, 81, 0
2, 124667, Control_c, 0, 64, 57
2, 124674, Note_on_c, 0, 72, 0
2, 124677, Note_on_c, 0, 64, 0
2, 124683, Control_c, 0, 64, 52
2, 124697, Control_c, 0, 64, 44
2, 124712, Control_c, 0, 64, 35
2, 124728, Control_c, 0, 64, 24
2, 124743, Control_c, 0, 64, 0
2, 124804, Control_c, 0, 64, 33
2, 124812, Note_on_c, 0, 65, 93
2, 124813, Note_on_c, 0, 83, 75
2, 124817, Note_on_c, 0, 74, 75
2, 124819, Control_c, 0, 64, 51
2, 124835, Control_c, 0, 64, 61
2, 124849, Control_c, 0, 64, 66
2, 124863, Note_on_c, 0, 65, 0
2, 124864, Control_c, 0, 64, 74
2, 124880, Control_c, 0, 64, 94
2, 124883, Note_on_c, 0, 83, 0
2, 124894, Control_c, 0, 64, 127
2, 124946, Note_on_c, 0, 74, 0
2, 125025, Control_c, 0, 64, 99
2, 125041, Control_c, 0, 64, 84
2, 125056, Control_c, 0, 64, 74
2, 125071, Control_c, 0, 64, 67
2, 125086, Control_c, 0, 64, 60
2, 125090, Note_on_c, 0, 56, 88
2, 125099, Note_on_c, 0, 76, 71
2, 125101, Control_c, 0, 64, 54
2, 125117, Control_c, 0, 64, 52
2, 125131, Control_c, 0, 64, 51
2, 125162, Control_c, 0, 64, 50
2, 125169, Note_on_c, 0, 56, 0
2, 125177, Control_c, 0, 64, 49
2, 125192, Control_c, 0, 64, 48
2, 125207, Control_c, 0, 64, 48
2, 125215, Note_on_c, 0, 74, 70
2, 125215, Note_on_c, 0, 76, 0
2, 125253, Control_c, 0, 64, 47
2, 125298, Control_c, 0, 64, 47
2, 125314, Control_c, 0, 64, 46
2, 125328, Control_c, 0, 64, 44
2, 125341, Note_on_c, 0, 45, 64
2, 125341, Note_on_c, 0, 74, 0
2, 125343, Control_c, 0, 64, 42
2, 125343, Note_on_c, 0, 52, 59
2, 125350, Note_on_c, 0, 72, 67
2, 125359, Control_c, 0, 64, 40
2, 125374, Control_c, 0, 64, 38
2, 125389, Control_c, 0, 64, 36
2, 125405, Control_c, 0, 64, 34
2, 125420, Control_c, 0, 64, 33
2, 125430, Note_on_c, 0, 45, 0
2, 125434, Note_on_c, 0, 47, 67
2, 125447, Note_on_c, 0, 72, 0
2, 125450, Control_c, 0, 64, 33
2, 125465, Control_c, 0, 64, 32
2, 125465, Note_on_c, 0, 74, 63
2, 125496, Control_c, 0, 64, 32
2, 125585, Note_on_c, 0, 47, 0
2, 125586, Note_on_c, 0, 74, 0
2, 125587, Control_c, 0, 64, 35
2, 125590, Note_on_c, 0, 48, 64
2, 125603, Control_c, 0, 64, 43
2, 125603, Note_on_c, 0, 76, 71
2, 125617, Control_c, 0, 64, 51
2, 125632, Control_c, 0, 64, 57
2, 125640, Note_on_c, 0, 52, 0
2, 125648, Control_c, 0, 64, 60
2, 125661, Note_on_c, 0, 48, 0
2, 125663, Control_c, 0, 64, 63
2, 125679, Control_c, 0, 64, 64
2, 125701, Control_c, 0, 64, 65
2, 125717, Control_c, 0, 64, 65
2, 125732, Control_c, 0, 64, 65
2, 125762, Control_c, 0, 64, 64
2, 125777, Control_c, 0, 64, 63
2, 125792, Control_c, 0, 64, 61
2, 125808, Control_c, 0, 64, 58
2, 125823, Control_c, 0, 64, 53
2, 125839, Control_c, 0, 64, 50
2, 125854, Control_c, 0, 64, 47
2, 125863, Note_on_c, 0, 74, 70
2, 125866, Note_on_c, 0, 57, 61
2, 125867, Note_on_c, 0, 50, 53
2, 125869, Control_c, 0, 64, 47
2, 125876, Note_on_c, 0, 77, 65
2, 125885, Control_c, 0, 64, 46
2, 125890, Note_on_c, 0, 76, 0
2, 125916, Control_c, 0, 64, 47
2, 125930, Control_c, 0, 64, 49
2, 125945, Control_c, 0, 64, 53
2, 125948, Note_on_c, 0, 74, 0
2, 125961, Control_c, 0, 64, 56
2, 125975, Control_c, 0, 64, 59
2, 125979, Note_on_c, 0, 77, 0
2, 125982, Note_on_c, 0, 72, 69
2, 125990, Control_c, 0, 64, 62
2, 126006, Control_c, 0, 64, 64
2, 126021, Control_c, 0, 64, 66
2, 126037, Control_c, 0, 64, 67
2, 126051, Note_on_c, 0, 72, 0
2, 126066, Control_c, 0, 64, 67
2, 126082, Control_c, 0, 64, 64
2, 126097, Control_c, 0, 64, 60
2, 126112, Control_c, 0, 64, 52
2, 126117, Note_on_c, 0, 50, 0
2, 126125, Note_on_c, 0, 68, 79
2, 126127, Control_c, 0, 64, 42
2, 126129, Note_on_c, 0, 57, 0
2, 126129, Note_on_c, 0, 71, 70
2, 126138, Note_on_c, 0, 59, 63
2, 126142, Control_c, 0, 64, 38
2, 126172, Control_c, 0, 64, 40
2, 126187, Control_c, 0, 64, 47
2, 126203, Control_c, 0, 64, 54
2, 126218, Control_c, 0, 64, 60
2, 126224, Note_on_c, 0, 71, 0
2, 126227, Note_on_c, 0, 59, 0
2, 126234, Control_c, 0, 64, 63
2, 126239, Note_on_c, 0, 68, 0
2, 126248, Control_c, 0, 64, 65
2, 126257, Note_on_c, 0, 60, 58
2, 126263, Control_c, 0, 64, 70
2, 126280, Control_c, 0, 64, 74
2, 126295, Control_c, 0, 64, 76
2, 126301, Note_on_c, 0, 60, 0
2, 126310, Control_c, 0, 64, 74
2, 126325, Control_c, 0, 64, 70
2, 126340, Control_c, 0, 64, 66
2, 126356, Control_c, 0, 64, 62
2, 126371, Control_c, 0, 64, 58
2, 126374, Note_on_c, 0, 64, 68
2, 126374, Note_on_c, 0, 76, 76
2, 126386, Control_c, 0, 64, 57
2, 126402, Control_c, 0, 64, 55
2, 126409, Note_on_c, 0, 48, 34
2, 126416, Control_c, 0, 64, 52
2, 126419, Note_on_c, 0, 57, 53
2, 126419, Note_on_c, 0, 64, 0
2, 126431, Control_c, 0, 64, 50
2, 126447, Control_c, 0, 64, 49
2, 126448, Note_on_c, 0, 50, 4
2, 126489, Note_on_c, 0, 48, 0
2, 126494, Note_on_c, 0, 74, 71
2, 126503, Note_on_c, 0, 57, 0
2, 126518, Note_on_c, 0, 59, 72
2, 126561, Control_c, 0, 64, 49
2, 126561, Note_on_c, 0, 50, 0
2, 126594, Note_on_c, 0, 59, 0
2, 126622, Control_c, 0, 64, 49
2, 126624, Note_on_c, 0, 72, 76
2, 126627, Note_on_c, 0, 76, 0
2, 126631, Note_on_c, 0, 60, 77
2, 126647, Note_on_c, 0, 52, 51
2, 126684, Control_c, 0, 64, 50
2, 126698, Control_c, 0, 64, 51
2, 126709, Note_on_c, 0, 52, 0
2, 126714, Control_c, 0, 64, 52
2, 126714, Note_on_c, 0, 74, 0
2, 126729, Control_c, 0, 64, 53
2, 126744, Control_c, 0, 64, 54
2, 126747, Note_on_c, 0, 60, 0
2, 126749, Note_on_c, 0, 62, 82
2, 126749, Note_on_c, 0, 71, 79
2, 126760, Control_c, 0, 64, 54
2, 126789, Note_on_c, 0, 72, 0
2, 126836, Control_c, 0, 64, 54
2, 126851, Control_c, 0, 64, 53
2, 126854, Note_on_c, 0, 71, 0
2, 126866, Control_c, 0, 64, 52
2, 126867, Note_on_c, 0, 59, 81
2, 126867, Note_on_c, 0, 69, 74
2, 126869, Note_on_c, 0, 53, 71
2, 126877, Note_on_c, 0, 62, 0
2, 126882, Control_c, 0, 64, 51
2, 126896, Control_c, 0, 64, 50
2, 126911, Control_c, 0, 64, 49
2, 126927, Control_c, 0, 64, 49
2, 126972, Control_c, 0, 64, 50
2, 126973, Note_on_c, 0, 60, 83
2, 126975, Note_on_c, 0, 68, 72
2, 126984, Note_on_c, 0, 69, 0
2, 126987, Control_c, 0, 64, 52
2, 126992, Note_on_c, 0, 59, 0
2, 127003, Control_c, 0, 64, 54
2, 127048, Control_c, 0, 64, 53
2, 127063, Control_c, 0, 64, 50
2, 127079, Control_c, 0, 64, 48
2, 127093, Control_c, 0, 64, 44
2, 127106, Note_on_c, 0, 69, 68
2, 127107, Note_on_c, 0, 62, 86
2, 127108, Control_c, 0, 64, 41
2, 127108, Note_on_c, 0, 71, 70
2, 127115, Note_on_c, 0, 68, 0
2, 127139, Control_c, 0, 64, 42
2, 127153, Control_c, 0, 64, 47
2, 127169, Control_c, 0, 64, 53
2, 127184, Control_c, 0, 64, 57
2, 127200, Control_c, 0, 64, 60
2, 127214, Note_on_c, 0, 69, 0
2, 127215, Control_c, 0, 64, 61
2, 127217, Note_on_c, 0, 62, 0
2, 127232, Note_on_c, 0, 71, 0
2, 127233, Note_on_c, 0, 72, 71
2, 127251, Note_on_c, 0, 60, 0
2, 127268, Control_c, 0, 64, 60
2, 127284, Control_c, 0, 64, 58
2, 127299, Control_c, 0, 64, 56
2, 127313, Control_c, 0, 64, 54
2, 127322, Note_on_c, 0, 53, 0
2, 127329, Control_c, 0, 64, 51
2, 127329, Note_on_c, 0, 72, 0
2, 127344, Control_c, 0, 64, 50
2, 127349, Note_on_c, 0, 60, 78
2, 127352, Note_on_c, 0, 52, 61
2, 127359, Note_on_c, 0, 69, 71
2, 127420, Control_c, 0, 64, 51
2, 127437, Control_c, 0, 64, 51
2, 127445, Note_on_c, 0, 52, 0
2, 127453, Note_on_c, 0, 60, 0
2, 127456, Note_on_c, 0, 50, 68
2, 127456, Note_on_c, 0, 69, 0
2, 127482, Control_c, 0, 64, 50
2, 127487, Note_on_c, 0, 71, 67
2, 127497, Control_c, 0, 64, 49
2, 127512, Control_c, 0, 64, 47
2, 127528, Control_c, 0, 64, 45
2, 127542, Control_c, 0, 64, 43
2, 127558, Control_c, 0, 64, 41
2, 127584, Note_on_c, 0, 50, 0
2, 127587, Note_on_c, 0, 71, 0
2, 127603, Control_c, 0, 64, 42
2, 127611, Note_on_c, 0, 52, 57
2, 127616, Note_on_c, 0, 59, 69
2, 127618, Control_c, 0, 64, 43
2, 127618, Note_on_c, 0, 72, 63
2, 127626, Note_on_c, 0, 68, 59
2, 127633, Control_c, 0, 64, 45
2, 127708, Note_on_c, 0, 68, 0
2, 127725, Control_c, 0, 64, 44
2, 127728, Note_on_c, 0, 72, 0
2, 127745, Note_on_c, 0, 74, 58
2, 127824, Note_on_c, 0, 52, 0
2, 127839, Note_on_c, 0, 74, 0
2, 127859, Note_on_c, 0, 59, 0
2, 127862, Note_on_c, 0, 48, 58
2, 127863, Note_on_c, 0, 71, 64
2, 127871, Note_on_c, 0, 64, 56
2, 127937, Note_on_c, 0, 64, 0
2, 127966, Note_on_c, 0, 71, 0
2, 127982, Note_on_c, 0, 72, 71
2, 128131, Note_on_c, 0, 48, 0
2, 128133, Note_on_c, 0, 74, 63
2, 128136, Note_on_c, 0, 72, 0
2, 128142, Note_on_c, 0, 53, 48
2, 128143, Control_c, 0, 64, 45
2, 128146, Note_on_c, 0, 69, 57
2, 128149, Note_on_c, 0, 57, 53
2, 128158, Control_c, 0, 64, 46
2, 128173, Control_c, 0, 64, 46
2, 128188, Control_c, 0, 64, 48
2, 128203, Control_c, 0, 64, 49
2, 128218, Control_c, 0, 64, 50
2, 128233, Control_c, 0, 64, 50
2, 128239, Note_on_c, 0, 53, 0
2, 128254, Note_on_c, 0, 74, 0
2, 128400, Note_on_c, 0, 72, 64
2, 128414, Note_on_c, 0, 52, 52
2, 128422, Note_on_c, 0, 57, 0
2, 128492, Note_on_c, 0, 69, 0
2, 128503, Note_on_c, 0, 52, 0
2, 128512, Note_on_c, 0, 72, 0
2, 128535, Note_on_c, 0, 50, 49
2, 128630, Control_c, 0, 64, 51
2, 128659, Note_on_c, 0, 50, 0
2, 128659, Note_on_c, 0, 71, 63
2, 128667, Note_on_c, 0, 52, 50
2, 128676, Control_c, 0, 64, 51
2, 128706, Control_c, 0, 64, 52
2, 128747, Note_on_c, 0, 52, 0
2, 128747, Note_on_c, 0, 71, 0
2, 128751, Control_c, 0, 64, 52
2, 128778, Note_on_c, 0, 53, 55
2, 128865, Control_c, 0, 64, 53
2, 128891, Note_on_c, 0, 53, 0
2, 128915, Note_on_c, 0, 52, 39
2, 128920, Note_on_c, 0, 76, 57
2, 128930, Note_on_c, 0, 55, 45
2, 128991, Note_on_c, 0, 52, 0
2, 129019, Note_on_c, 0, 76, 0
2, 129024, Note_on_c, 0, 50, 51
2, 129073, Note_on_c, 0, 55, 0
2, 129125, Control_c, 0, 64, 52
2, 129135, Note_on_c, 0, 50, 0
2, 129156, Note_on_c, 0, 49, 46
2, 129183, Note_on_c, 0, 69, 54
2, 129185, Control_c, 0, 64, 52
2, 129216, Control_c, 0, 64, 51
2, 129227, Note_on_c, 0, 49, 0
2, 129246, Control_c, 0, 64, 51
2, 129261, Control_c, 0, 64, 50
2, 129276, Control_c, 0, 64, 50
2, 129306, Control_c, 0, 64, 49
2, 129444, Control_c, 0, 64, 50
2, 129444, Note_on_c, 0, 45, 35
2, 129448, Note_on_c, 0, 53, 38
2, 129458, Control_c, 0, 64, 52
2, 129473, Control_c, 0, 64, 55
2, 129489, Control_c, 0, 64, 56
2, 129504, Control_c, 0, 64, 58
2, 129520, Control_c, 0, 64, 61
2, 129542, Control_c, 0, 64, 63
2, 129545, Note_on_c, 0, 53, 0
2, 129558, Control_c, 0, 64, 65
2, 129560, Note_on_c, 0, 69, 0
2, 129572, Control_c, 0, 64, 67
2, 129581, Note_on_c, 0, 52, 47
2, 129587, Control_c, 0, 64, 70
2, 129603, Control_c, 0, 64, 74
2, 129612, Note_on_c, 0, 45, 0
2, 129618, Control_c, 0, 64, 79
2, 129633, Control_c, 0, 64, 81
2, 129648, Control_c, 0, 64, 80
2, 129663, Control_c, 0, 64, 79
2, 129679, Control_c, 0, 64, 78
2, 129694, Control_c, 0, 64, 76
2, 129695, Note_on_c, 0, 50, 50
2, 129697, Note_on_c, 0, 53, 50
2, 129702, Note_on_c, 0, 52, 0
2, 129709, Control_c, 0, 64, 73
2, 129725, Control_c, 0, 64, 70
2, 129740, Control_c, 0, 64, 67
2, 129756, Control_c, 0, 64, 65
2, 129756, Note_on_c, 0, 50, 0
2, 129770, Control_c, 0, 64, 64
2, 129785, Control_c, 0, 64, 63
2, 129801, Control_c, 0, 64, 62
2, 129815, Control_c, 0, 64, 61
2, 129830, Control_c, 0, 64, 61
2, 129840, Note_on_c, 0, 77, 64
2, 129846, Control_c, 0, 64, 60
2, 129893, Control_c, 0, 64, 60
2, 129957, Note_on_c, 0, 48, 50
2, 129969, Note_on_c, 0, 74, 63
2, 129977, Note_on_c, 0, 77, 0
2, 129999, Control_c, 0, 64, 59
2, 130011, Note_on_c, 0, 48, 0
2, 130014, Control_c, 0, 64, 59
2, 130029, Control_c, 0, 64, 58
2, 130060, Control_c, 0, 64, 57
2, 130069, Note_on_c, 0, 71, 66
2, 130083, Note_on_c, 0, 74, 0
2, 130090, Control_c, 0, 64, 56
2, 130121, Control_c, 0, 64, 56
2, 130209, Note_on_c, 0, 47, 43
2, 130217, Note_on_c, 0, 67, 65
2, 130235, Note_on_c, 0, 53, 0
2, 130275, Note_on_c, 0, 47, 0
2, 130287, Note_on_c, 0, 71, 0
2, 130311, Control_c, 0, 64, 55
2, 130341, Control_c, 0, 64, 55
2, 130417, Control_c, 0, 64, 55
2, 130432, Control_c, 0, 64, 56
2, 130448, Control_c, 0, 64, 57
2, 130462, Control_c, 0, 64, 58
2, 130478, Control_c, 0, 64, 59
2, 130493, Control_c, 0, 64, 61
2, 130499, Note_on_c, 0, 43, 34
2, 130501, Note_on_c, 0, 52, 43
2, 130508, Control_c, 0, 64, 63
2, 130524, Control_c, 0, 64, 65
2, 130538, Control_c, 0, 64, 69
2, 130553, Control_c, 0, 64, 74
2, 130569, Control_c, 0, 64, 84
2, 130569, Note_on_c, 0, 52, 0
2, 130584, Control_c, 0, 64, 97
2, 130599, Note_on_c, 0, 67, 0
2, 130600, Control_c, 0, 64, 127
2, 130620, Note_on_c, 0, 50, 45
2, 130626, Note_on_c, 0, 43, 0
2, 130745, Note_on_c, 0, 48, 43
2, 130753, Note_on_c, 0, 52, 45
2, 130761, Note_on_c, 0, 50, 0
2, 130798, Control_c, 0, 64, 106
2, 130810, Note_on_c, 0, 48, 0
2, 130813, Control_c, 0, 64, 89
2, 130828, Control_c, 0, 64, 77
2, 130844, Control_c, 0, 64, 68
2, 130859, Control_c, 0, 64, 59
2, 130866, Note_on_c, 0, 76, 60
2, 130875, Control_c, 0, 64, 52
2, 130889, Control_c, 0, 64, 51
2, 130935, Control_c, 0, 64, 50
2, 130950, Control_c, 0, 64, 49
2, 130965, Control_c, 0, 64, 49
2, 131002, Note_on_c, 0, 47, 50
2, 131013, Note_on_c, 0, 72, 64
2, 131027, Note_on_c, 0, 76, 0
2, 131058, Note_on_c, 0, 47, 0
2, 131127, Note_on_c, 0, 69, 67
2, 131156, Control_c, 0, 64, 48
2, 131162, Note_on_c, 0, 72, 0
2, 131201, Control_c, 0, 64, 48
2, 131271, Note_on_c, 0, 65, 63
2, 131285, Note_on_c, 0, 69, 0
2, 131293, Note_on_c, 0, 45, 44
2, 131489, Control_c, 0, 64, 48
2, 131504, Control_c, 0, 64, 49
2, 131520, Control_c, 0, 64, 49
2, 131524, Note_on_c, 0, 45, 0
2, 131530, Note_on_c, 0, 65, 0
2, 131535, Control_c, 0, 64, 50
2, 131550, Control_c, 0, 64, 50
2, 131551, Note_on_c, 0, 67, 57
2, 131561, Note_on_c, 0, 47, 42
2, 131566, Control_c, 0, 64, 51
2, 131581, Control_c, 0, 64, 52
2, 131584, Note_on_c, 0, 52, 0
2, 131597, Control_c, 0, 64, 53
2, 131611, Control_c, 0, 64, 54
2, 131652, Note_on_c, 0, 47, 0
2, 131657, Control_c, 0, 64, 54
2, 131657, Note_on_c, 0, 67, 0
2, 131670, Note_on_c, 0, 69, 56
2, 131692, Note_on_c, 0, 48, 37
2, 131702, Control_c, 0, 64, 55
2, 131763, Control_c, 0, 64, 55
2, 131784, Note_on_c, 0, 48, 0
2, 131798, Note_on_c, 0, 47, 46
2, 131801, Note_on_c, 0, 67, 59
2, 131803, Note_on_c, 0, 69, 0
2, 131821, Note_on_c, 0, 50, 34
2, 131905, Note_on_c, 0, 67, 0
2, 131913, Note_on_c, 0, 65, 60
2, 132008, Note_on_c, 0, 47, 0
2, 132038, Note_on_c, 0, 65, 0
2, 132039, Note_on_c, 0, 43, 42
2, 132046, Note_on_c, 0, 64, 57
2, 132124, Note_on_c, 0, 64, 0
2, 132162, Note_on_c, 0, 65, 57
2, 132262, Note_on_c, 0, 50, 0
2, 132265, Note_on_c, 0, 65, 0
2, 132268, Note_on_c, 0, 43, 0
2, 132278, Note_on_c, 0, 48, 36
2, 132284, Note_on_c, 0, 64, 56
2, 132309, Note_on_c, 0, 48, 0
2, 132401, Note_on_c, 0, 48, 52
2, 132510, Note_on_c, 0, 48, 0
2, 132540, Note_on_c, 0, 50, 54
2, 132646, Note_on_c, 0, 50, 0
2, 132670, Note_on_c, 0, 52, 57
2, 132772, Note_on_c, 0, 52, 0
2, 132789, Note_on_c, 0, 53, 64
2, 132877, Note_on_c, 0, 53, 0
2, 132904, Note_on_c, 0, 55, 68
2, 133039, Note_on_c, 0, 47, 56
2, 133040, Note_on_c, 0, 55, 0
2, 133042, Note_on_c, 0, 57, 69
2, 133108, Note_on_c, 0, 47, 0
2, 133149, Note_on_c, 0, 59, 69
2, 133195, Note_on_c, 0, 57, 0
2, 133265, Note_on_c, 0, 64, 0
2, 133279, Note_on_c, 0, 60, 74
2, 133285, Note_on_c, 0, 59, 0
2, 133286, Note_on_c, 0, 45, 49
2, 133407, Note_on_c, 0, 62, 72
2, 133533, Note_on_c, 0, 64, 75
2, 133534, Control_c, 0, 64, 56
2, 133549, Control_c, 0, 64, 57
2, 133556, Note_on_c, 0, 62, 0
2, 133565, Control_c, 0, 64, 58
2, 133579, Control_c, 0, 64, 58
2, 133595, Control_c, 0, 64, 59
2, 133610, Control_c, 0, 64, 60
2, 133624, Control_c, 0, 64, 61
2, 133638, Note_on_c, 0, 65, 74
2, 133640, Control_c, 0, 64, 63
2, 133655, Control_c, 0, 64, 64
2, 133670, Control_c, 0, 64, 65
2, 133679, Note_on_c, 0, 64, 0
2, 133686, Control_c, 0, 64, 67
2, 133700, Control_c, 0, 64, 71
2, 133716, Control_c, 0, 64, 76
2, 133731, Control_c, 0, 64, 82
2, 133746, Control_c, 0, 64, 90
2, 133759, Note_on_c, 0, 67, 83
2, 133761, Control_c, 0, 64, 98
2, 133776, Control_c, 0, 64, 107
2, 133781, Note_on_c, 0, 65, 0
2, 133787, Note_on_c, 0, 45, 0
2, 133791, Control_c, 0, 64, 111
2, 133807, Control_c, 0, 64, 110
2, 133822, Control_c, 0, 64, 109
2, 133837, Control_c, 0, 64, 107
2, 133852, Control_c, 0, 64, 105
2, 133853, Note_on_c, 0, 67, 0
2, 133867, Control_c, 0, 64, 102
2, 133883, Control_c, 0, 64, 97
2, 133883, Note_on_c, 0, 69, 79
2, 133898, Control_c, 0, 64, 91
2, 133913, Control_c, 0, 64, 84
2, 133929, Control_c, 0, 64, 79
2, 133943, Control_c, 0, 64, 75
2, 133959, Control_c, 0, 64, 71
2, 133974, Control_c, 0, 64, 65
2, 133990, Control_c, 0, 64, 60
2, 134002, Note_on_c, 0, 71, 80
2, 134006, Control_c, 0, 64, 53
2, 134011, Note_on_c, 0, 43, 63
2, 134020, Control_c, 0, 64, 51
2, 134050, Note_on_c, 0, 69, 0
2, 134051, Control_c, 0, 64, 51
2, 134066, Control_c, 0, 64, 53
2, 134082, Control_c, 0, 64, 56
2, 134096, Control_c, 0, 64, 60
2, 134110, Note_on_c, 0, 72, 82
2, 134111, Control_c, 0, 64, 63
2, 134127, Control_c, 0, 64, 65
2, 134144, Note_on_c, 0, 71, 0
2, 134149, Control_c, 0, 64, 68
2, 134165, Control_c, 0, 64, 72
2, 134178, Note_on_c, 0, 72, 0
2, 134180, Control_c, 0, 64, 76
2, 134195, Control_c, 0, 64, 80
2, 134210, Control_c, 0, 64, 81
2, 134225, Control_c, 0, 64, 79
2, 134241, Control_c, 0, 64, 77
2, 134256, Control_c, 0, 64, 76
2, 134256, Note_on_c, 0, 43, 0
2, 134256, Note_on_c, 0, 62, 80
2, 134264, Note_on_c, 0, 41, 64
2, 134270, Control_c, 0, 64, 74
2, 134286, Control_c, 0, 64, 72
2, 134301, Control_c, 0, 64, 69
2, 134317, Control_c, 0, 64, 66
2, 134332, Control_c, 0, 64, 64
2, 134333, Note_on_c, 0, 41, 0
2, 134347, Control_c, 0, 64, 63
2, 134363, Control_c, 0, 64, 62
2, 134376, Note_on_c, 0, 64, 79
2, 134378, Control_c, 0, 64, 62
2, 134389, Note_on_c, 0, 55, 60
2, 134393, Control_c, 0, 64, 60
2, 134400, Note_on_c, 0, 62, 0
2, 134408, Control_c, 0, 64, 59
2, 134423, Control_c, 0, 64, 57
2, 134439, Control_c, 0, 64, 55
2, 134454, Control_c, 0, 64, 55
2, 134484, Control_c, 0, 64, 54
2, 134503, Note_on_c, 0, 55, 0
2, 134509, Note_on_c, 0, 62, 80
2, 134515, Control_c, 0, 64, 54
2, 134520, Note_on_c, 0, 53, 66
2, 134530, Note_on_c, 0, 64, 0
2, 134611, Note_on_c, 0, 53, 0
2, 134630, Note_on_c, 0, 52, 62
2, 134630, Note_on_c, 0, 64, 81
2, 134650, Note_on_c, 0, 62, 0
2, 134730, Note_on_c, 0, 52, 0
2, 134762, Note_on_c, 0, 65, 76
2, 134764, Note_on_c, 0, 50, 54
2, 134773, Note_on_c, 0, 64, 0
2, 134814, Note_on_c, 0, 60, 0
2, 134833, Control_c, 0, 64, 53
2, 134872, Note_on_c, 0, 50, 0
2, 134885, Note_on_c, 0, 64, 71
2, 134892, Note_on_c, 0, 48, 52
2, 134895, Control_c, 0, 64, 54
2, 134918, Control_c, 0, 64, 53
2, 134964, Control_c, 0, 64, 52
2, 134979, Control_c, 0, 64, 50
2, 134993, Control_c, 0, 64, 47
2, 135009, Control_c, 0, 64, 42
2, 135009, Note_on_c, 0, 48, 0
2, 135024, Control_c, 0, 64, 34
2, 135032, Note_on_c, 0, 47, 51
2, 135039, Control_c, 0, 64, 23
2, 135040, Note_on_c, 0, 62, 60
2, 135054, Control_c, 0, 64, 0
2, 135077, Note_on_c, 0, 64, 0
2, 135119, Note_on_c, 0, 47, 0
2, 135138, Note_on_c, 0, 62, 0
2, 135151, Note_on_c, 0, 45, 47
2, 135164, Note_on_c, 0, 60, 58
2, 135263, Note_on_c, 0, 45, 0
2, 135267, Control_c, 0, 64, 32
2, 135270, Note_on_c, 0, 60, 0
2, 135283, Control_c, 0, 64, 47
2, 135289, Note_on_c, 0, 59, 63
2, 135293, Note_on_c, 0, 43, 54
2, 135298, Control_c, 0, 64, 56
2, 135313, Control_c, 0, 64, 60
2, 135324, Note_on_c, 0, 59, 0
2, 135328, Control_c, 0, 64, 63
2, 135335, Note_on_c, 0, 43, 0
2, 135343, Control_c, 0, 64, 65
2, 135346, Note_on_c, 0, 65, 0
2, 135359, Control_c, 0, 64, 67
2, 135374, Control_c, 0, 64, 68
2, 135389, Control_c, 0, 64, 69
2, 135404, Control_c, 0, 64, 67
2, 135419, Control_c, 0, 64, 65
2, 135435, Control_c, 0, 64, 62
2, 135448, Note_on_c, 0, 69, 52
2, 135449, Control_c, 0, 64, 60
2, 135464, Control_c, 0, 64, 58
2, 135480, Control_c, 0, 64, 54
2, 135482, Note_on_c, 0, 69, 0
2, 135495, Control_c, 0, 64, 47
2, 135510, Control_c, 0, 64, 39
2, 135525, Control_c, 0, 64, 32
2, 135540, Control_c, 0, 64, 25
2, 135556, Control_c, 0, 64, 22
2, 135571, Control_c, 0, 64, 20
2, 135586, Control_c, 0, 64, 17
2, 135601, Control_c, 0, 64, 15
2, 135602, Note_on_c, 0, 72, 57
2, 135615, Note_on_c, 0, 67, 41
2, 135625, Note_on_c, 0, 64, 36
2, 135663, Note_on_c, 0, 67, 0
2, 135684, Note_on_c, 0, 64, 0
2, 135698, Note_on_c, 0, 72, 0
2, 135701, Control_c, 0, 64, 13
2, 135730, Note_on_c, 0, 71, 53
2, 135745, Note_on_c, 0, 62, 40
2, 135828, Note_on_c, 0, 62, 0
2, 135857, Note_on_c, 0, 71, 0
2, 135872, Note_on_c, 0, 72, 61
2, 135876, Note_on_c, 0, 60, 45
2, 135887, Note_on_c, 0, 64, 45
2, 135936, Note_on_c, 0, 64, 0
2, 135938, Note_on_c, 0, 60, 0
2, 135964, Note_on_c, 0, 72, 0
2, 135985, Note_on_c, 0, 59, 46
2, 136090, Note_on_c, 0, 59, 0
2, 136118, Note_on_c, 0, 74, 60
2, 136127, Control_c, 0, 64, 15
2, 136127, Note_on_c, 0, 53, 46
2, 136139, Note_on_c, 0, 69, 50
2, 136150, Note_on_c, 0, 57, 33
2, 136190, Note_on_c, 0, 69, 0
2, 136213, Note_on_c, 0, 57, 0
2, 136217, Control_c, 0, 64, 16
2, 136221, Note_on_c, 0, 53, 0
2, 136229, Note_on_c, 0, 74, 0
2, 136232, Control_c, 0, 64, 17
2, 136238, Note_on_c, 0, 59, 52
2, 136248, Control_c, 0, 64, 18
2, 136279, Control_c, 0, 64, 19
2, 136293, Control_c, 0, 64, 20
2, 136324, Control_c, 0, 64, 21
2, 136339, Control_c, 0, 64, 21
2, 136365, Note_on_c, 0, 59, 0
2, 136369, Control_c, 0, 64, 22
2, 136376, Note_on_c, 0, 76, 67
2, 136384, Control_c, 0, 64, 23
2, 136390, Note_on_c, 0, 60, 57
2, 136399, Note_on_c, 0, 67, 53
2, 136414, Control_c, 0, 64, 23
2, 136429, Control_c, 0, 64, 24
2, 136469, Control_c, 0, 64, 24
2, 136485, Control_c, 0, 64, 25
2, 136499, Control_c, 0, 64, 26
2, 136515, Control_c, 0, 64, 26
2, 136520, Note_on_c, 0, 76, 0
2, 136530, Control_c, 0, 64, 27
2, 136545, Control_c, 0, 64, 28
2, 136561, Control_c, 0, 64, 29
2, 136576, Control_c, 0, 64, 29
2, 136591, Control_c, 0, 64, 30
2, 136606, Control_c, 0, 64, 30
2, 136637, Control_c, 0, 64, 31
2, 136652, Control_c, 0, 64, 31
2, 136655, Note_on_c, 0, 76, 69
2, 136667, Control_c, 0, 64, 32
2, 136671, Note_on_c, 0, 48, 51
2, 136727, Control_c, 0, 64, 32
2, 136738, Note_on_c, 0, 48, 0
2, 136758, Control_c, 0, 64, 33
2, 136759, Note_on_c, 0, 74, 74
2, 136760, Note_on_c, 0, 76, 0
2, 136761, Note_on_c, 0, 47, 59
2, 136773, Control_c, 0, 64, 33
2, 136803, Control_c, 0, 64, 34
2, 136804, Note_on_c, 0, 47, 0
2, 136818, Control_c, 0, 64, 34
2, 136897, Note_on_c, 0, 76, 75
2, 136900, Note_on_c, 0, 74, 0
2, 136912, Note_on_c, 0, 48, 70
2, 136925, Control_c, 0, 64, 35
2, 136985, Control_c, 0, 64, 35
2, 137028, Note_on_c, 0, 48, 0
2, 137028, Note_on_c, 0, 76, 0
2, 137047, Control_c, 0, 64, 36
2, 137061, Control_c, 0, 64, 36
2, 137107, Control_c, 0, 64, 37
2, 137137, Control_c, 0, 64, 37
2, 137152, Control_c, 0, 64, 38
2, 137153, Note_on_c, 0, 77, 87
2, 137160, Note_on_c, 0, 50, 68
2, 137183, Control_c, 0, 64, 38
2, 137199, Control_c, 0, 64, 39
2, 137221, Control_c, 0, 64, 40
2, 137237, Control_c, 0, 64, 41
2, 137252, Control_c, 0, 64, 41
2, 137270, Note_on_c, 0, 77, 0
2, 137282, Note_on_c, 0, 50, 0
2, 137283, Control_c, 0, 64, 42
2, 137429, Note_on_c, 0, 79, 72
2, 137431, Note_on_c, 0, 52, 60
2, 137460, Note_on_c, 0, 67, 0
2, 137478, Note_on_c, 0, 52, 0
2, 137548, Note_on_c, 0, 77, 76
2, 137662, Note_on_c, 0, 79, 0
2, 137677, Note_on_c, 0, 52, 53
2, 137677, Note_on_c, 0, 76, 73
2, 137680, Note_on_c, 0, 72, 70
2, 137690, Note_on_c, 0, 55, 54
2, 137692, Note_on_c, 0, 60, 0
2, 137704, Note_on_c, 0, 77, 0
2, 137777, Note_on_c, 0, 52, 0
2, 137791, Note_on_c, 0, 77, 83
2, 137799, Note_on_c, 0, 50, 62
2, 137814, Note_on_c, 0, 76, 0
2, 137921, Note_on_c, 0, 79, 82
2, 137936, Note_on_c, 0, 71, 69
2, 137938, Note_on_c, 0, 52, 59
2, 137949, Note_on_c, 0, 72, 0
2, 137961, Note_on_c, 0, 50, 0
2, 137967, Control_c, 0, 64, 43
2, 137988, Control_c, 0, 64, 44
2, 137993, Note_on_c, 0, 77, 0
2, 138004, Control_c, 0, 64, 47
2, 138019, Control_c, 0, 64, 50
2, 138028, Note_on_c, 0, 52, 0
2, 138035, Control_c, 0, 64, 52
2, 138035, Note_on_c, 0, 71, 0
2, 138041, Note_on_c, 0, 55, 0
2, 138050, Control_c, 0, 64, 53
2, 138065, Control_c, 0, 64, 54
2, 138065, Note_on_c, 0, 79, 0
2, 138111, Control_c, 0, 64, 54
2, 138191, Note_on_c, 0, 81, 71
2, 138206, Note_on_c, 0, 69, 58
2, 138207, Note_on_c, 0, 62, 55
2, 138208, Note_on_c, 0, 54, 59
2, 138266, Note_on_c, 0, 81, 0
2, 138282, Note_on_c, 0, 54, 0
2, 138309, Control_c, 0, 64, 54
2, 138325, Control_c, 0, 64, 53
2, 138330, Note_on_c, 0, 69, 0
2, 138355, Control_c, 0, 64, 53
2, 138370, Control_c, 0, 64, 52
2, 138385, Control_c, 0, 64, 52
2, 138401, Control_c, 0, 64, 51
2, 138415, Control_c, 0, 64, 50
2, 138430, Control_c, 0, 64, 50
2, 138446, Control_c, 0, 64, 49
2, 138453, Note_on_c, 0, 62, 0
2, 138453, Note_on_c, 0, 71, 70
2, 138462, Note_on_c, 0, 55, 63
2, 138475, Note_on_c, 0, 67, 61
2, 138491, Control_c, 0, 64, 49
2, 138550, Note_on_c, 0, 55, 0
2, 138566, Note_on_c, 0, 67, 0
2, 138573, Note_on_c, 0, 53, 53
2, 138583, Note_on_c, 0, 71, 0
2, 138643, Control_c, 0, 64, 49
2, 138683, Note_on_c, 0, 53, 0
2, 138700, Note_on_c, 0, 52, 69
2, 138701, Note_on_c, 0, 67, 67
2, 138722, Note_on_c, 0, 64, 60
2, 138817, Note_on_c, 0, 53, 72
2, 138818, Note_on_c, 0, 67, 0
2, 138822, Note_on_c, 0, 64, 0
2, 138837, Note_on_c, 0, 52, 0
2, 138894, Control_c, 0, 64, 49
2, 138910, Control_c, 0, 64, 46
2, 138926, Control_c, 0, 64, 43
2, 138940, Control_c, 0, 64, 40
2, 138956, Control_c, 0, 64, 40
2, 138958, Note_on_c, 0, 55, 79
2, 138959, Note_on_c, 0, 65, 73
2, 138996, Note_on_c, 0, 53, 0
2, 139001, Control_c, 0, 64, 43
2, 139016, Control_c, 0, 64, 47
2, 139031, Control_c, 0, 64, 50
2, 139039, Note_on_c, 0, 65, 0
2, 139047, Control_c, 0, 64, 51
2, 139061, Control_c, 0, 64, 52
2, 139062, Note_on_c, 0, 55, 0
2, 139123, Control_c, 0, 64, 50
2, 139138, Control_c, 0, 64, 47
2, 139153, Control_c, 0, 64, 43
2, 139169, Control_c, 0, 64, 38
2, 139183, Control_c, 0, 64, 36
2, 139225, Note_on_c, 0, 72, 77
2, 139229, Control_c, 0, 64, 40
2, 139229, Note_on_c, 0, 60, 80
2, 139235, Note_on_c, 0, 57, 75
2, 139236, Note_on_c, 0, 64, 58
2, 139245, Control_c, 0, 64, 48
2, 139259, Control_c, 0, 64, 56
2, 139271, Note_on_c, 0, 60, 0
2, 139273, Note_on_c, 0, 64, 0
2, 139275, Control_c, 0, 64, 61
2, 139290, Control_c, 0, 64, 64
2, 139291, Note_on_c, 0, 57, 0
2, 139295, Note_on_c, 0, 72, 0
2, 139305, Control_c, 0, 64, 68
2, 139321, Control_c, 0, 64, 74
2, 139335, Control_c, 0, 64, 79
2, 139350, Control_c, 0, 64, 81
2, 139366, Control_c, 0, 64, 79
2, 139381, Control_c, 0, 64, 77
2, 139396, Control_c, 0, 64, 75
2, 139411, Control_c, 0, 64, 73
2, 139426, Control_c, 0, 64, 72
2, 139442, Control_c, 0, 64, 69
2, 139456, Control_c, 0, 64, 65
2, 139471, Control_c, 0, 64, 61
2, 139487, Control_c, 0, 64, 55
2, 139502, Control_c, 0, 64, 53
2, 139506, Note_on_c, 0, 74, 70
2, 139508, Note_on_c, 0, 47, 72
2, 139517, Note_on_c, 0, 55, 81
2, 139526, Control_c, 0, 64, 52
2, 139527, Note_on_c, 0, 62, 36
2, 139540, Control_c, 0, 64, 51
2, 139551, Note_on_c, 0, 64, 14
2, 139560, Note_on_c, 0, 62, 0
2, 139586, Control_c, 0, 64, 52
2, 139596, Note_on_c, 0, 74, 0
2, 139599, Note_on_c, 0, 64, 0
2, 139601, Control_c, 0, 64, 55
2, 139616, Control_c, 0, 64, 57
2, 139618, Note_on_c, 0, 76, 57
2, 139622, Note_on_c, 0, 47, 0
2, 139631, Control_c, 0, 64, 58
2, 139664, Note_on_c, 0, 67, 48
2, 139691, Note_on_c, 0, 67, 0
2, 139701, Note_on_c, 0, 76, 0
2, 139724, Control_c, 0, 64, 57
2, 139739, Control_c, 0, 64, 56
2, 139755, Control_c, 0, 64, 55
2, 139765, Note_on_c, 0, 43, 77
2, 139768, Note_on_c, 0, 69, 60
2, 139770, Control_c, 0, 64, 54
2, 139776, Note_on_c, 0, 72, 67
2, 139800, Control_c, 0, 64, 54
2, 139857, Note_on_c, 0, 69, 0
2, 139878, Note_on_c, 0, 72, 0
2, 139885, Note_on_c, 0, 71, 74
2, 139891, Control_c, 0, 64, 55
2, 139893, Note_on_c, 0, 74, 72
2, 139905, Control_c, 0, 64, 55
2, 139921, Control_c, 0, 64, 56
2, 139922, Note_on_c, 0, 71, 0
2, 139936, Control_c, 0, 64, 57
2, 139955, Note_on_c, 0, 74, 0
2, 140020, Note_on_c, 0, 76, 77
2, 140021, Note_on_c, 0, 72, 74
2, 140022, Note_on_c, 0, 43, 0
2, 140026, Note_on_c, 0, 55, 0
2, 140103, Control_c, 0, 64, 56
2, 140128, Note_on_c, 0, 77, 86
2, 140132, Note_on_c, 0, 76, 0
2, 140252, Note_on_c, 0, 74, 79
2, 140260, Note_on_c, 0, 48, 82
2, 140299, Note_on_c, 0, 77, 0
2, 140366, Note_on_c, 0, 48, 0
2, 140369, Control_c, 0, 64, 57
2, 140377, Note_on_c, 0, 76, 81
2, 140400, Control_c, 0, 64, 57
2, 140402, Note_on_c, 0, 74, 0
2, 140445, Control_c, 0, 64, 58
2, 140476, Control_c, 0, 64, 58
2, 140507, Note_on_c, 0, 77, 86
2, 140510, Note_on_c, 0, 50, 74
2, 140547, Note_on_c, 0, 76, 0
2, 140615, Note_on_c, 0, 50, 0
2, 140627, Note_on_c, 0, 52, 67
2, 140643, Note_on_c, 0, 77, 0
2, 140644, Control_c, 0, 64, 58
2, 140673, Control_c, 0, 64, 57
2, 140704, Control_c, 0, 64, 57
2, 140735, Control_c, 0, 64, 56
2, 140735, Note_on_c, 0, 52, 0
2, 140764, Note_on_c, 0, 48, 71
2, 140767, Note_on_c, 0, 76, 76
2, 140811, Note_on_c, 0, 72, 0
2, 140875, Note_on_c, 0, 50, 75
2, 140887, Control_c, 0, 64, 56
2, 140896, Note_on_c, 0, 76, 0
2, 140899, Note_on_c, 0, 48, 0
2, 140902, Control_c, 0, 64, 55
2, 140918, Control_c, 0, 64, 54
2, 140933, Control_c, 0, 64, 54
2, 140947, Control_c, 0, 64, 53
2, 140963, Control_c, 0, 64, 52
2, 141000, Note_on_c, 0, 52, 78
2, 141000, Note_on_c, 0, 71, 75
2, 141003, Note_on_c, 0, 74, 72
2, 141023, Control_c, 0, 64, 54
2, 141030, Note_on_c, 0, 50, 0
2, 141039, Control_c, 0, 64, 57
2, 141061, Control_c, 0, 64, 60
2, 141067, Note_on_c, 0, 71, 0
2, 141073, Note_on_c, 0, 74, 0
2, 141077, Control_c, 0, 64, 62
2, 141092, Control_c, 0, 64, 63
2, 141107, Control_c, 0, 64, 63
2, 141118, Note_on_c, 0, 53, 83
2, 141129, Note_on_c, 0, 52, 0
2, 141152, Control_c, 0, 64, 63
2, 141168, Control_c, 0, 64, 62
2, 141183, Control_c, 0, 64, 59
2, 141199, Control_c, 0, 64, 55
2, 141213, Control_c, 0, 64, 51
2, 141228, Control_c, 0, 64, 49
2, 141244, Control_c, 0, 64, 49
2, 141248, Note_on_c, 0, 55, 81
2, 141248, Note_on_c, 0, 79, 80
2, 141257, Note_on_c, 0, 53, 0
2, 141257, Note_on_c, 0, 70, 77
2, 141262, Note_on_c, 0, 50, 72
2, 141275, Control_c, 0, 64, 50
2, 141289, Control_c, 0, 64, 54
2, 141304, Control_c, 0, 64, 59
2, 141318, Note_on_c, 0, 79, 0
2, 141320, Control_c, 0, 64, 63
2, 141335, Control_c, 0, 64, 65
2, 141350, Control_c, 0, 64, 68
2, 141352, Note_on_c, 0, 70, 0
2, 141355, Note_on_c, 0, 52, 77
2, 141367, Control_c, 0, 64, 72
2, 141381, Control_c, 0, 64, 75
2, 141382, Note_on_c, 0, 55, 0
2, 141397, Control_c, 0, 64, 76
2, 141401, Note_on_c, 0, 50, 0
2, 141412, Control_c, 0, 64, 74
2, 141427, Control_c, 0, 64, 72
2, 141442, Control_c, 0, 64, 70
2, 141457, Control_c, 0, 64, 67
2, 141472, Control_c, 0, 64, 65
2, 141488, Control_c, 0, 64, 61
2, 141493, Note_on_c, 0, 53, 78
2, 141503, Control_c, 0, 64, 57
2, 141504, Note_on_c, 0, 72, 74
2, 141512, Note_on_c, 0, 69, 68
2, 141518, Control_c, 0, 64, 52
2, 141520, Note_on_c, 0, 57, 73
2, 141533, Control_c, 0, 64, 49
2, 141537, Note_on_c, 0, 52, 0
2, 141548, Control_c, 0, 64, 47
2, 141564, Control_c, 0, 64, 46
2, 141579, Control_c, 0, 64, 44
2, 141593, Control_c, 0, 64, 42
2, 141596, Note_on_c, 0, 72, 0
2, 141609, Control_c, 0, 64, 40
2, 141618, Note_on_c, 0, 71, 76
2, 141620, Note_on_c, 0, 59, 80
2, 141621, Note_on_c, 0, 57, 0
2, 141624, Control_c, 0, 64, 40
2, 141632, Note_on_c, 0, 69, 0
2, 141731, Control_c, 0, 64, 39
2, 141743, Note_on_c, 0, 74, 75
2, 141749, Note_on_c, 0, 71, 0
2, 141753, Note_on_c, 0, 59, 0
2, 141760, Note_on_c, 0, 55, 73
2, 141762, Note_on_c, 0, 52, 63
2, 141775, Note_on_c, 0, 53, 0
2, 141791, Control_c, 0, 64, 39
2, 141859, Control_c, 0, 64, 38
2, 141859, Note_on_c, 0, 55, 0
2, 141862, Note_on_c, 0, 72, 80
2, 141868, Note_on_c, 0, 57, 80
2, 141890, Control_c, 0, 64, 38
2, 141921, Control_c, 0, 64, 36
2, 141936, Control_c, 0, 64, 31
2, 141950, Control_c, 0, 64, 23
2, 141960, Note_on_c, 0, 57, 0
2, 141966, Control_c, 0, 64, 12
2, 141981, Control_c, 0, 64, 0
2, 141991, Note_on_c, 0, 71, 77
2, 142002, Note_on_c, 0, 50, 67
2, 142008, Note_on_c, 0, 59, 70
2, 142040, Note_on_c, 0, 52, 0
2, 142084, Note_on_c, 0, 50, 0
2, 142106, Note_on_c, 0, 60, 82
2, 142108, Note_on_c, 0, 69, 79
2, 142108, Note_on_c, 0, 74, 0
2, 142122, Note_on_c, 0, 59, 0
2, 142147, Note_on_c, 0, 71, 0
2, 142159, Note_on_c, 0, 72, 0
2, 142226, Note_on_c, 0, 69, 0
2, 142235, Note_on_c, 0, 67, 71
2, 142239, Note_on_c, 0, 57, 72
2, 142244, Note_on_c, 0, 60, 0
2, 142247, Note_on_c, 0, 55, 61
2, 142317, Control_c, 0, 64, 35
2, 142318, Note_on_c, 0, 67, 0
2, 142332, Control_c, 0, 64, 46
2, 142332, Note_on_c, 0, 55, 0
2, 142333, Note_on_c, 0, 57, 0
2, 142341, Note_on_c, 0, 59, 69
2, 142345, Note_on_c, 0, 65, 72
2, 142347, Control_c, 0, 64, 51
2, 142362, Control_c, 0, 64, 53
2, 142370, Note_on_c, 0, 59, 0
2, 142423, Control_c, 0, 64, 51
2, 142438, Control_c, 0, 64, 47
2, 142453, Control_c, 0, 64, 42
2, 142468, Control_c, 0, 64, 37
2, 142483, Control_c, 0, 64, 34
2, 142485, Note_on_c, 0, 65, 0
2, 142493, Note_on_c, 0, 64, 68
2, 142495, Note_on_c, 0, 60, 77
2, 142498, Note_on_c, 0, 48, 66
2, 142529, Control_c, 0, 64, 38
2, 142544, Control_c, 0, 64, 47
2, 142560, Control_c, 0, 64, 55
2, 142575, Control_c, 0, 64, 60
2, 142598, Control_c, 0, 64, 64
2, 142606, Note_on_c, 0, 48, 0
2, 142613, Control_c, 0, 64, 69
2, 142613, Note_on_c, 0, 60, 0
2, 142628, Control_c, 0, 64, 75
2, 142643, Control_c, 0, 64, 84
2, 142658, Control_c, 0, 64, 92
2, 142673, Control_c, 0, 64, 95
2, 142688, Control_c, 0, 64, 92
2, 142703, Control_c, 0, 64, 85
2, 142719, Control_c, 0, 64, 77
2, 142731, Note_on_c, 0, 64, 0
2, 142734, Control_c, 0, 64, 70
2, 142749, Control_c, 0, 64, 65
2, 142758, Note_on_c, 0, 65, 65
2, 142760, Note_on_c, 0, 50, 65
2, 142765, Control_c, 0, 64, 60
2, 142767, Note_on_c, 0, 59, 65
2, 142779, Control_c, 0, 64, 54
2, 142795, Control_c, 0, 64, 52
2, 142810, Control_c, 0, 64, 51
2, 142825, Control_c, 0, 64, 49
2, 142841, Control_c, 0, 64, 48
2, 142856, Control_c, 0, 64, 47
2, 142868, Note_on_c, 0, 52, 68
2, 142871, Control_c, 0, 64, 47
2, 142873, Note_on_c, 0, 67, 73
2, 142887, Note_on_c, 0, 65, 0
2, 142899, Note_on_c, 0, 50, 0
2, 142975, Note_on_c, 0, 67, 0
2, 143000, Note_on_c, 0, 69, 71
2, 143006, Note_on_c, 0, 57, 75
2, 143009, Note_on_c, 0, 53, 75
2, 143011, Note_on_c, 0, 59, 0
2, 143049, Note_on_c, 0, 52, 0
2, 143122, Note_on_c, 0, 69, 0
2, 143129, Note_on_c, 0, 71, 70
2, 143176, Control_c, 0, 64, 46
2, 143191, Control_c, 0, 64, 46
2, 143206, Control_c, 0, 64, 45
2, 143221, Control_c, 0, 64, 44
2, 143237, Control_c, 0, 64, 42
2, 143252, Control_c, 0, 64, 40
2, 143256, Note_on_c, 0, 71, 0
2, 143262, Note_on_c, 0, 72, 68
2, 143265, Note_on_c, 0, 62, 74
2, 143266, Note_on_c, 0, 57, 0
2, 143267, Control_c, 0, 64, 39
2, 143282, Control_c, 0, 64, 38
2, 143297, Control_c, 0, 64, 35
2, 143312, Control_c, 0, 64, 31
2, 143327, Control_c, 0, 64, 25
2, 143342, Control_c, 0, 64, 21
2, 143366, Control_c, 0, 64, 19
2, 143381, Control_c, 0, 64, 17
2, 143384, Note_on_c, 0, 72, 0
2, 143392, Note_on_c, 0, 74, 64
2, 143411, Control_c, 0, 64, 17
2, 143426, Control_c, 0, 64, 16
2, 143442, Control_c, 0, 64, 15
2, 143457, Control_c, 0, 64, 13
2, 143517, Note_on_c, 0, 55, 73
2, 143518, Control_c, 0, 64, 16
2, 143518, Note_on_c, 0, 62, 0
2, 143524, Note_on_c, 0, 71, 67
2, 143532, Note_on_c, 0, 74, 0
2, 143533, Control_c, 0, 64, 28
2, 143547, Control_c, 0, 64, 39
2, 143563, Control_c, 0, 64, 49
2, 143578, Control_c, 0, 64, 53
2, 143593, Control_c, 0, 64, 55
2, 143608, Control_c, 0, 64, 56
2, 143623, Control_c, 0, 64, 57
2, 143639, Note_on_c, 0, 64, 67
2, 143644, Note_on_c, 0, 71, 0
2, 143669, Control_c, 0, 64, 56
2, 143685, Control_c, 0, 64, 53
2, 143699, Control_c, 0, 64, 51
2, 143715, Control_c, 0, 64, 48
2, 143730, Control_c, 0, 64, 44
2, 143745, Control_c, 0, 64, 41
2, 143761, Control_c, 0, 64, 39
2, 143766, Note_on_c, 0, 64, 0
2, 143767, Note_on_c, 0, 60, 69
2, 143768, Note_on_c, 0, 69, 71
2, 143822, Control_c, 0, 64, 40
2, 143838, Control_c, 0, 64, 43
2, 143842, Note_on_c, 0, 60, 0
2, 143853, Control_c, 0, 64, 49
2, 143867, Control_c, 0, 64, 54
2, 143869, Note_on_c, 0, 69, 0
2, 143871, Note_on_c, 0, 67, 69
2, 143873, Note_on_c, 0, 62, 74
2, 143883, Control_c, 0, 64, 57
2, 143898, Control_c, 0, 64, 60
2, 143908, Note_on_c, 0, 62, 0
2, 143913, Control_c, 0, 64, 62
2, 143929, Control_c, 0, 64, 64
2, 143933, Note_on_c, 0, 67, 0
2, 143959, Control_c, 0, 64, 63
2, 143973, Control_c, 0, 64, 62
2, 143988, Control_c, 0, 64, 59
2, 144004, Control_c, 0, 64, 57
2, 144005, Note_on_c, 0, 52, 63
2, 144005, Note_on_c, 0, 72, 79
2, 144010, Note_on_c, 0, 64, 76
2, 144019, Control_c, 0, 64, 53
2, 144025, Note_on_c, 0, 53, 0
2, 144035, Control_c, 0, 64, 48
2, 144036, Note_on_c, 0, 55, 0
2, 144049, Control_c, 0, 64, 45
2, 144064, Control_c, 0, 64, 43
2, 144080, Control_c, 0, 64, 43
2, 144139, Note_on_c, 0, 65, 76
2, 144148, Note_on_c, 0, 64, 0
2, 144256, Note_on_c, 0, 57, 53
2, 144265, Note_on_c, 0, 52, 0
2, 144266, Note_on_c, 0, 62, 80
2, 144267, Note_on_c, 0, 60, 64
2, 144288, Note_on_c, 0, 65, 0
2, 144299, Control_c, 0, 64, 42
2, 144309, Note_on_c, 0, 57, 0
2, 144315, Control_c, 0, 64, 41
2, 144341, Note_on_c, 0, 60, 0
2, 144345, Control_c, 0, 64, 41
2, 144375, Control_c, 0, 64, 40
2, 144377, Note_on_c, 0, 64, 74
2, 144406, Control_c, 0, 64, 40
2, 144411, Note_on_c, 0, 62, 0
2, 144421, Control_c, 0, 64, 39
2, 144452, Control_c, 0, 64, 39
2, 144467, Control_c, 0, 64, 38
2, 144483, Control_c, 0, 64, 38
2, 144510, Note_on_c, 0, 65, 80
2, 144527, Note_on_c, 0, 50, 62
2, 144528, Note_on_c, 0, 62, 61
2, 144543, Control_c, 0, 64, 38
2, 144559, Control_c, 0, 64, 39
2, 144568, Note_on_c, 0, 64, 0
2, 144588, Control_c, 0, 64, 40
2, 144610, Note_on_c, 0, 62, 0
2, 144636, Control_c, 0, 64, 39
2, 144639, Note_on_c, 0, 65, 0
2, 144641, Note_on_c, 0, 53, 68
2, 144651, Control_c, 0, 64, 38
2, 144665, Control_c, 0, 64, 35
2, 144676, Note_on_c, 0, 50, 0
2, 144681, Control_c, 0, 64, 31
2, 144696, Control_c, 0, 64, 30
2, 144740, Control_c, 0, 64, 31
2, 144756, Control_c, 0, 64, 39
2, 144771, Control_c, 0, 64, 49
2, 144775, Note_on_c, 0, 64, 74
2, 144782, Note_on_c, 0, 53, 0
2, 144783, Note_on_c, 0, 55, 69
2, 144786, Control_c, 0, 64, 56
2, 144795, Note_on_c, 0, 52, 62
2, 144802, Control_c, 0, 64, 60
2, 144816, Control_c, 0, 64, 63
2, 144823, Note_on_c, 0, 72, 0
2, 144831, Control_c, 0, 64, 65
2, 144847, Control_c, 0, 64, 67
2, 144852, Note_on_c, 0, 64, 0
2, 144862, Control_c, 0, 64, 69
2, 144873, Note_on_c, 0, 55, 0
2, 144880, Note_on_c, 0, 57, 67
2, 144900, Control_c, 0, 64, 68
2, 144903, Note_on_c, 0, 52, 0
2, 144908, Note_on_c, 0, 53, 73
2, 144915, Note_on_c, 0, 57, 0
2, 144916, Control_c, 0, 64, 67
2, 144931, Control_c, 0, 64, 66
2, 144945, Control_c, 0, 64, 65
2, 144961, Control_c, 0, 64, 64
2, 144976, Control_c, 0, 64, 61
2, 144991, Control_c, 0, 64, 57
2, 145007, Control_c, 0, 64, 52
2, 145021, Control_c, 0, 64, 44
2, 145023, Note_on_c, 0, 53, 0
2, 145037, Control_c, 0, 64, 37
2, 145043, Note_on_c, 0, 71, 71
2, 145045, Note_on_c, 0, 55, 62
2, 145052, Control_c, 0, 64, 32
2, 145057, Note_on_c, 0, 62, 61
2, 145061, Note_on_c, 0, 59, 47
2, 145067, Control_c, 0, 64, 29
2, 145083, Control_c, 0, 64, 24
2, 145086, Note_on_c, 0, 55, 0
2, 145089, Note_on_c, 0, 59, 0
2, 145097, Control_c, 0, 64, 19
2, 145112, Control_c, 0, 64, 9
2, 145128, Control_c, 0, 64, 0
2, 145136, Note_on_c, 0, 62, 0
2, 145164, Note_on_c, 0, 60, 59
2, 145213, Note_on_c, 0, 71, 0
2, 145265, Control_c, 0, 64, 28
2, 145271, Note_on_c, 0, 60, 0
2, 145281, Control_c, 0, 64, 45
2, 145294, Note_on_c, 0, 67, 57
2, 145295, Control_c, 0, 64, 54
2, 145295, Note_on_c, 0, 43, 47
2, 145295, Note_on_c, 0, 62, 48
2, 145310, Control_c, 0, 64, 58
2, 145326, Control_c, 0, 64, 61
2, 145332, Note_on_c, 0, 62, 0
2, 145334, Note_on_c, 0, 43, 0
2, 145341, Control_c, 0, 64, 62
2, 145356, Control_c, 0, 64, 63
2, 145369, Note_on_c, 0, 67, 0
2, 145402, Control_c, 0, 64, 62
2, 145417, Control_c, 0, 64, 60
2, 145431, Control_c, 0, 64, 57
2, 145448, Control_c, 0, 64, 52
2, 145463, Control_c, 0, 64, 45
2, 145479, Control_c, 0, 64, 33
2, 145494, Control_c, 0, 64, 17
2, 145509, Control_c, 0, 64, 11
2, 145539, Control_c, 0, 64, 12
2, 145542, Note_on_c, 0, 64, 61
2, 145545, Note_on_c, 0, 48, 49
2, 145546, Note_on_c, 0, 55, 49
2, 145555, Control_c, 0, 64, 30
2, 145556, Note_on_c, 0, 72, 60
2, 145570, Control_c, 0, 64, 48
2, 145580, Note_on_c, 0, 48, 0
2, 145584, Control_c, 0, 64, 57
2, 145600, Control_c, 0, 64, 62
2, 145602, Note_on_c, 0, 55, 0
2, 145615, Control_c, 0, 64, 65
2, 145626, Note_on_c, 0, 64, 0
2, 145630, Control_c, 0, 64, 70
2, 145646, Control_c, 0, 64, 77
2, 145652, Note_on_c, 0, 72, 0
2, 145668, Control_c, 0, 64, 83
2, 145684, Control_c, 0, 64, 81
2, 145696, Note_on_c, 0, 65, 56
2, 145699, Control_c, 0, 64, 76
2, 145715, Control_c, 0, 64, 70
2, 145730, Control_c, 0, 64, 65
2, 145730, Note_on_c, 0, 65, 0
2, 145744, Control_c, 0, 64, 60
2, 145760, Control_c, 0, 64, 55
2, 145775, Control_c, 0, 64, 52
2, 145789, Control_c, 0, 64, 50
2, 145805, Control_c, 0, 64, 47
2, 145820, Control_c, 0, 64, 43
2, 145836, Control_c, 0, 64, 39
2, 145849, Note_on_c, 0, 64, 54
2, 145851, Control_c, 0, 64, 37
2, 145865, Control_c, 0, 64, 36
2, 145866, Note_on_c, 0, 76, 12
2, 145881, Control_c, 0, 64, 36
2, 145889, Note_on_c, 0, 74, 14
2, 145896, Control_c, 0, 64, 35
2, 145909, Note_on_c, 0, 74, 0
2, 145911, Control_c, 0, 64, 34
2, 145927, Control_c, 0, 64, 34
2, 145941, Control_c, 0, 64, 33
2, 145943, Note_on_c, 0, 76, 0
2, 145947, Note_on_c, 0, 64, 0
2, 145962, Note_on_c, 0, 77, 59
2, 145974, Note_on_c, 0, 62, 46
2, 146078, Note_on_c, 0, 62, 0
2, 146088, Note_on_c, 0, 76, 62
2, 146096, Note_on_c, 0, 77, 0
2, 146099, Note_on_c, 0, 60, 58
2, 146155, Control_c, 0, 64, 34
2, 146170, Control_c, 0, 64, 34
2, 146171, Note_on_c, 0, 60, 0
2, 146185, Control_c, 0, 64, 35
2, 146188, Note_on_c, 0, 76, 0
2, 146209, Note_on_c, 0, 59, 59
2, 146215, Control_c, 0, 64, 36
2, 146292, Control_c, 0, 64, 36
2, 146323, Control_c, 0, 64, 38
2, 146326, Note_on_c, 0, 59, 0
2, 146338, Control_c, 0, 64, 39
2, 146353, Control_c, 0, 64, 40
2, 146353, Note_on_c, 0, 57, 55
2, 146355, Note_on_c, 0, 74, 65
2, 146363, Note_on_c, 0, 52, 40
2, 146369, Control_c, 0, 64, 42
2, 146384, Control_c, 0, 64, 43
2, 146400, Control_c, 0, 64, 43
2, 146415, Control_c, 0, 64, 44
2, 146435, Note_on_c, 0, 52, 0
2, 146451, Note_on_c, 0, 74, 0
2, 146461, Note_on_c, 0, 56, 66
2, 146469, Note_on_c, 0, 57, 0
2, 146494, Note_on_c, 0, 56, 0
2, 146512, Control_c, 0, 64, 42
2, 146528, Control_c, 0, 64, 40
2, 146543, Control_c, 0, 64, 38
2, 146588, Control_c, 0, 64, 38
2, 146604, Control_c, 0, 64, 44
2, 146609, Note_on_c, 0, 72, 75
2, 146612, Note_on_c, 0, 45, 49
2, 146616, Note_on_c, 0, 57, 77
2, 146619, Control_c, 0, 64, 53
2, 146635, Control_c, 0, 64, 58
2, 146641, Note_on_c, 0, 45, 0
2, 146650, Control_c, 0, 64, 61
2, 146665, Control_c, 0, 64, 62
2, 146668, Note_on_c, 0, 72, 0
2, 146681, Control_c, 0, 64, 63
2, 146724, Note_on_c, 0, 57, 0
2, 146726, Control_c, 0, 64, 61
2, 146730, Note_on_c, 0, 58, 75
2, 146741, Control_c, 0, 64, 60
2, 146757, Control_c, 0, 64, 58
2, 146772, Control_c, 0, 64, 55
2, 146786, Control_c, 0, 64, 53
2, 146802, Control_c, 0, 64, 51
2, 146817, Control_c, 0, 64, 49
2, 146832, Control_c, 0, 64, 47
2, 146843, Note_on_c, 0, 58, 0
2, 146847, Control_c, 0, 64, 45
2, 146853, Note_on_c, 0, 73, 72
2, 146854, Note_on_c, 0, 57, 68
2, 146861, Note_on_c, 0, 69, 72
2, 146862, Control_c, 0, 64, 42
2, 146878, Control_c, 0, 64, 40
2, 146893, Control_c, 0, 64, 39
2, 146908, Control_c, 0, 64, 38
2, 146963, Note_on_c, 0, 70, 78
2, 146972, Note_on_c, 0, 69, 0
2, 146973, Note_on_c, 0, 55, 75
2, 146977, Note_on_c, 0, 57, 0
2, 147029, Control_c, 0, 64, 38
2, 147084, Note_on_c, 0, 55, 0
2, 147099, Note_on_c, 0, 74, 82
2, 147105, Note_on_c, 0, 69, 75
2, 147111, Note_on_c, 0, 53, 76
2, 147145, Note_on_c, 0, 73, 0
2, 147148, Note_on_c, 0, 70, 0
2, 147231, Note_on_c, 0, 52, 73
2, 147233, Note_on_c, 0, 69, 0
2, 147243, Note_on_c, 0, 53, 0
2, 147246, Note_on_c, 0, 74, 0
2, 147311, Control_c, 0, 64, 37
2, 147327, Control_c, 0, 64, 36
2, 147342, Control_c, 0, 64, 36
2, 147367, Note_on_c, 0, 76, 73
2, 147370, Note_on_c, 0, 50, 80
2, 147371, Note_on_c, 0, 67, 73
2, 147388, Note_on_c, 0, 52, 0
2, 147481, Note_on_c, 0, 49, 75
2, 147484, Note_on_c, 0, 67, 0
2, 147485, Note_on_c, 0, 76, 0
2, 147500, Note_on_c, 0, 50, 0
2, 147509, Control_c, 0, 64, 34
2, 147525, Control_c, 0, 64, 30
2, 147540, Control_c, 0, 64, 27
2, 147555, Control_c, 0, 64, 25
2, 147615, Control_c, 0, 64, 29
2, 147626, Note_on_c, 0, 50, 79
2, 147626, Note_on_c, 0, 69, 76
2, 147630, Control_c, 0, 64, 38
2, 147636, Note_on_c, 0, 65, 67
2, 147646, Control_c, 0, 64, 47
2, 147653, Note_on_c, 0, 49, 0
2, 147661, Control_c, 0, 64, 54
2, 147677, Control_c, 0, 64, 58
2, 147691, Control_c, 0, 64, 61
2, 147696, Note_on_c, 0, 65, 0
2, 147706, Control_c, 0, 64, 64
2, 147722, Control_c, 0, 64, 65
2, 147735, Note_on_c, 0, 69, 0
2, 147737, Control_c, 0, 64, 66
2, 147752, Control_c, 0, 64, 65
2, 147767, Control_c, 0, 64, 64
2, 147782, Control_c, 0, 64, 63
2, 147798, Control_c, 0, 64, 61
2, 147812, Control_c, 0, 64, 60
2, 147827, Control_c, 0, 64, 59
2, 147843, Control_c, 0, 64, 57
2, 147858, Control_c, 0, 64, 56
2, 147873, Control_c, 0, 64, 56
2, 147888, Control_c, 0, 64, 55
2, 147894, Note_on_c, 0, 65, 69
2, 147895, Note_on_c, 0, 57, 81
2, 147900, Note_on_c, 0, 74, 76
2, 147904, Control_c, 0, 64, 54
2, 147920, Control_c, 0, 64, 53
2, 147925, Note_on_c, 0, 65, 0
2, 147935, Control_c, 0, 64, 52
2, 147950, Control_c, 0, 64, 51
2, 147974, Control_c, 0, 64, 50
2, 147988, Control_c, 0, 64, 49
2, 148002, Note_on_c, 0, 74, 0
2, 148004, Control_c, 0, 64, 47
2, 148011, Note_on_c, 0, 67, 81
2, 148011, Note_on_c, 0, 76, 72
2, 148014, Note_on_c, 0, 58, 83
2, 148019, Control_c, 0, 64, 46
2, 148035, Control_c, 0, 64, 45
2, 148049, Control_c, 0, 64, 45
2, 148050, Note_on_c, 0, 57, 0
2, 148064, Control_c, 0, 64, 44
2, 148083, Note_on_c, 0, 76, 0
2, 148110, Control_c, 0, 64, 44
2, 148140, Note_on_c, 0, 74, 65
2, 148148, Note_on_c, 0, 57, 85
2, 148151, Note_on_c, 0, 65, 80
2, 148156, Control_c, 0, 64, 43
2, 148159, Note_on_c, 0, 67, 0
2, 148183, Note_on_c, 0, 58, 0
2, 148262, Note_on_c, 0, 65, 0
2, 148284, Note_on_c, 0, 74, 0
2, 148291, Note_on_c, 0, 57, 0
2, 148307, Control_c, 0, 64, 44
2, 148323, Control_c, 0, 64, 44
2, 148352, Control_c, 0, 64, 45
2, 148368, Control_c, 0, 64, 46
2, 148383, Control_c, 0, 64, 47
2, 148399, Control_c, 0, 64, 49
2, 148414, Control_c, 0, 64, 51
2, 148416, Note_on_c, 0, 72, 77
2, 148417, Note_on_c, 0, 55, 77
2, 148417, Note_on_c, 0, 64, 74
2, 148429, Control_c, 0, 64, 53
2, 148445, Control_c, 0, 64, 54
2, 148513, Note_on_c, 0, 64, 0
2, 148513, Note_on_c, 0, 72, 0
2, 148535, Control_c, 0, 64, 54
2, 148536, Note_on_c, 0, 55, 0
2, 148550, Control_c, 0, 64, 53
2, 148566, Control_c, 0, 64, 53
2, 148597, Control_c, 0, 64, 52
2, 148611, Control_c, 0, 64, 52
2, 148642, Control_c, 0, 64, 51
2, 148688, Note_on_c, 0, 71, 70
2, 148689, Note_on_c, 0, 53, 77
2, 148689, Note_on_c, 0, 62, 68
2, 148702, Control_c, 0, 64, 52
2, 148718, Control_c, 0, 64, 55
2, 148732, Note_on_c, 0, 62, 0
2, 148741, Control_c, 0, 64, 57
2, 148757, Control_c, 0, 64, 60
2, 148758, Note_on_c, 0, 71, 0
2, 148772, Control_c, 0, 64, 62
2, 148787, Control_c, 0, 64, 63
2, 148803, Control_c, 0, 64, 64
2, 148813, Note_on_c, 0, 64, 73
2, 148814, Note_on_c, 0, 72, 78
2, 148818, Control_c, 0, 64, 65
2, 148821, Note_on_c, 0, 53, 0
2, 148848, Control_c, 0, 64, 64
2, 148859, Note_on_c, 0, 64, 0
2, 148863, Control_c, 0, 64, 63
2, 148879, Control_c, 0, 64, 61
2, 148893, Control_c, 0, 64, 59
2, 148908, Control_c, 0, 64, 55
2, 148918, Note_on_c, 0, 72, 0
2, 148924, Control_c, 0, 64, 52
2, 148939, Control_c, 0, 64, 51
2, 148946, Note_on_c, 0, 74, 75
2, 148949, Note_on_c, 0, 65, 72
2, 148955, Control_c, 0, 64, 50
2, 148957, Note_on_c, 0, 53, 77
2, 148969, Control_c, 0, 64, 49
2, 148982, Note_on_c, 0, 65, 0
2, 148984, Control_c, 0, 64, 48
2, 149000, Control_c, 0, 64, 47
2, 149015, Control_c, 0, 64, 46
2, 149035, Note_on_c, 0, 74, 0
2, 149050, Note_on_c, 0, 72, 73
2, 149063, Note_on_c, 0, 55, 83
2, 149063, Note_on_c, 0, 64, 71
2, 149076, Control_c, 0, 64, 46
2, 149078, Note_on_c, 0, 53, 0
2, 149121, Control_c, 0, 64, 45
2, 149127, Note_on_c, 0, 64, 0
2, 149136, Control_c, 0, 64, 45
2, 149151, Control_c, 0, 64, 44
2, 149166, Control_c, 0, 64, 43
2, 149187, Note_on_c, 0, 71, 77
2, 149201, Note_on_c, 0, 53, 84
2, 149204, Note_on_c, 0, 62, 73
2, 149212, Control_c, 0, 64, 43
2, 149238, Note_on_c, 0, 55, 0
2, 149255, Note_on_c, 0, 72, 0
2, 149273, Control_c, 0, 64, 42
2, 149309, Note_on_c, 0, 62, 0
2, 149339, Note_on_c, 0, 53, 0
2, 149359, Note_on_c, 0, 71, 0
2, 149440, Control_c, 0, 64, 43
2, 149454, Control_c, 0, 64, 44
2, 149466, Note_on_c, 0, 52, 78
2, 149468, Note_on_c, 0, 69, 83
2, 149469, Control_c, 0, 64, 45
2, 149472, Note_on_c, 0, 60, 79
2, 149485, Control_c, 0, 64, 46
2, 149507, Control_c, 0, 64, 47
2, 149523, Control_c, 0, 64, 48
2, 149538, Control_c, 0, 64, 48
2, 149555, Control_c, 0, 64, 49
2, 149555, Note_on_c, 0, 60, 0
2, 149557, Note_on_c, 0, 50, 0
2, 149585, Control_c, 0, 64, 50
2, 149588, Note_on_c, 0, 69, 0
2, 149593, Note_on_c, 0, 52, 0
2, 149722, Control_c, 0, 64, 49
2, 149736, Control_c, 0, 64, 49
2, 149743, Note_on_c, 0, 71, 82
2, 149750, Note_on_c, 0, 53, 58
2, 149751, Control_c, 0, 64, 48
2, 149755, Note_on_c, 0, 50, 54
2, 149767, Control_c, 0, 64, 47
2, 149770, Note_on_c, 0, 67, 66
2, 149782, Control_c, 0, 64, 47
2, 149798, Control_c, 0, 64, 46
2, 149812, Control_c, 0, 64, 45
2, 149827, Control_c, 0, 64, 45
2, 149843, Note_on_c, 0, 53, 0
2, 149849, Note_on_c, 0, 50, 0
2, 149853, Note_on_c, 0, 52, 64
2, 149903, Control_c, 0, 64, 44
2, 149923, Note_on_c, 0, 71, 0
2, 149934, Control_c, 0, 64, 44
2, 149948, Control_c, 0, 64, 43
2, 149964, Control_c, 0, 64, 39
2, 149979, Control_c, 0, 64, 34
2, 149995, Control_c, 0, 64, 28
2, 150001, Note_on_c, 0, 52, 0
2, 150001, Note_on_c, 0, 53, 61
2, 150004, Note_on_c, 0, 74, 71
2, 150010, Control_c, 0, 64, 26
2, 150056, Control_c, 0, 64, 26
2, 150071, Control_c, 0, 64, 31
2, 150087, Control_c, 0, 64, 39
2, 150102, Control_c, 0, 64, 46
2, 150117, Control_c, 0, 64, 51
2, 150120, Note_on_c, 0, 52, 61
2, 150132, Control_c, 0, 64, 54
2, 150147, Control_c, 0, 64, 56
2, 150163, Control_c, 0, 64, 58
2, 150178, Control_c, 0, 64, 60
2, 150181, Note_on_c, 0, 74, 0
2, 150193, Control_c, 0, 64, 61
2, 150208, Control_c, 0, 64, 62
2, 150223, Control_c, 0, 64, 62
2, 150232, Note_on_c, 0, 67, 0
2, 150254, Control_c, 0, 64, 62
2, 150260, Note_on_c, 0, 52, 0
2, 150276, Control_c, 0, 64, 61
2, 150277, Note_on_c, 0, 50, 65
2, 150291, Control_c, 0, 64, 60
2, 150306, Control_c, 0, 64, 58
2, 150322, Control_c, 0, 64, 56
2, 150337, Control_c, 0, 64, 54
2, 150352, Control_c, 0, 64, 52
2, 150359, Note_on_c, 0, 50, 0
2, 150368, Control_c, 0, 64, 50
2, 150383, Control_c, 0, 64, 47
2, 150399, Control_c, 0, 64, 45
2, 150414, Control_c, 0, 64, 42
2, 150429, Control_c, 0, 64, 40
2, 150445, Control_c, 0, 64, 39
2, 150505, Control_c, 0, 64, 41
2, 150521, Control_c, 0, 64, 44
2, 150536, Control_c, 0, 64, 50
2, 150540, Note_on_c, 0, 69, 68
2, 150542, Note_on_c, 0, 48, 66
2, 150551, Control_c, 0, 64, 54
2, 150564, Note_on_c, 0, 53, 0
2, 150567, Control_c, 0, 64, 58
2, 150581, Control_c, 0, 64, 61
2, 150597, Control_c, 0, 64, 63
2, 150612, Control_c, 0, 64, 66
2, 150627, Control_c, 0, 64, 70
2, 150643, Control_c, 0, 64, 74
2, 150657, Control_c, 0, 64, 76
2, 150672, Control_c, 0, 64, 75
2, 150688, Control_c, 0, 64, 73
2, 150703, Control_c, 0, 64, 70
2, 150719, Control_c, 0, 64, 68
2, 150733, Control_c, 0, 64, 66
2, 150748, Control_c, 0, 64, 65
2, 150764, Control_c, 0, 64, 64
2, 150778, Control_c, 0, 64, 63
2, 150783, Note_on_c, 0, 59, 79
2, 150789, Note_on_c, 0, 67, 73
2, 150793, Control_c, 0, 64, 62
2, 150809, Control_c, 0, 64, 60
2, 150809, Note_on_c, 0, 53, 60
2, 150824, Control_c, 0, 64, 58
2, 150839, Note_on_c, 0, 69, 0
2, 150840, Control_c, 0, 64, 56
2, 150854, Control_c, 0, 64, 56
2, 150869, Note_on_c, 0, 59, 0
2, 150885, Control_c, 0, 64, 55
2, 150890, Note_on_c, 0, 53, 0
2, 150908, Note_on_c, 0, 55, 50
2, 150908, Note_on_c, 0, 65, 67
2, 150915, Control_c, 0, 64, 54
2, 150942, Note_on_c, 0, 67, 0
2, 151007, Control_c, 0, 64, 54
2, 151050, Note_on_c, 0, 65, 0
2, 151052, Note_on_c, 0, 55, 0
2, 151060, Control_c, 0, 64, 53
2, 151060, Note_on_c, 0, 62, 69
2, 151062, Note_on_c, 0, 53, 60
2, 151069, Note_on_c, 0, 69, 63
2, 151070, Note_on_c, 0, 48, 0
2, 151179, Note_on_c, 0, 67, 62
2, 151181, Note_on_c, 0, 69, 0
2, 151200, Note_on_c, 0, 52, 53
2, 151202, Note_on_c, 0, 53, 0
2, 151243, Control_c, 0, 64, 54
2, 151258, Control_c, 0, 64, 54
2, 151273, Control_c, 0, 64, 55
2, 151289, Control_c, 0, 64, 55
2, 151303, Control_c, 0, 64, 56
2, 151319, Control_c, 0, 64, 56
2, 151327, Note_on_c, 0, 67, 0
2, 151334, Control_c, 0, 64, 57
2, 151347, Note_on_c, 0, 65, 42
2, 151348, Note_on_c, 0, 50, 66
2, 151349, Control_c, 0, 64, 57
2, 151351, Note_on_c, 0, 52, 0
2, 151403, Note_on_c, 0, 65, 0
2, 151411, Note_on_c, 0, 62, 0
2, 151455, Note_on_c, 0, 64, 55
2, 151501, Control_c, 0, 64, 57
2, 151574, Note_on_c, 0, 64, 0
2, 151584, Note_on_c, 0, 57, 70
2, 151584, Note_on_c, 0, 67, 58
2, 151699, Note_on_c, 0, 67, 0
2, 151712, Note_on_c, 0, 65, 54
2, 151857, Note_on_c, 0, 55, 66
2, 151860, Note_on_c, 0, 64, 57
2, 151875, Note_on_c, 0, 57, 0
2, 151895, Note_on_c, 0, 65, 0
2, 151922, Note_on_c, 0, 64, 0
2, 151978, Note_on_c, 0, 53, 69
2, 152000, Note_on_c, 0, 55, 0
2, 152094, Note_on_c, 0, 48, 60
2, 152103, Note_on_c, 0, 50, 0
2, 152117, Note_on_c, 0, 57, 75
2, 152118, Note_on_c, 0, 65, 66
2, 152126, Note_on_c, 0, 53, 0
2, 152226, Note_on_c, 0, 65, 0
2, 152230, Note_on_c, 0, 55, 76
2, 152239, Control_c, 0, 64, 56
2, 152254, Control_c, 0, 64, 55
2, 152257, Note_on_c, 0, 57, 0
2, 152269, Control_c, 0, 64, 54
2, 152285, Control_c, 0, 64, 53
2, 152300, Control_c, 0, 64, 52
2, 152316, Control_c, 0, 64, 51
2, 152319, Note_on_c, 0, 48, 0
2, 152331, Control_c, 0, 64, 51
2, 152345, Control_c, 0, 64, 50
2, 152363, Note_on_c, 0, 53, 81
2, 152364, Note_on_c, 0, 67, 73
2, 152390, Control_c, 0, 64, 51
2, 152393, Note_on_c, 0, 55, 0
2, 152406, Control_c, 0, 64, 53
2, 152421, Control_c, 0, 64, 55
2, 152437, Control_c, 0, 64, 57
2, 152452, Control_c, 0, 64, 58
2, 152465, Note_on_c, 0, 52, 79
2, 152466, Control_c, 0, 64, 59
2, 152482, Note_on_c, 0, 53, 0
2, 152496, Note_on_c, 0, 67, 0
2, 152512, Control_c, 0, 64, 59
2, 152528, Control_c, 0, 64, 57
2, 152542, Control_c, 0, 64, 54
2, 152558, Control_c, 0, 64, 51
2, 152581, Control_c, 0, 64, 48
2, 152597, Control_c, 0, 64, 47
2, 152603, Note_on_c, 0, 52, 0
2, 152606, Note_on_c, 0, 47, 72
2, 152617, Note_on_c, 0, 62, 72
2, 152619, Note_on_c, 0, 55, 84
2, 152642, Control_c, 0, 64, 50
2, 152657, Control_c, 0, 64, 54
2, 152662, Note_on_c, 0, 62, 0
2, 152672, Control_c, 0, 64, 59
2, 152687, Control_c, 0, 64, 62
2, 152702, Control_c, 0, 64, 63
2, 152710, Note_on_c, 0, 47, 0
2, 152718, Control_c, 0, 64, 64
2, 152719, Note_on_c, 0, 53, 83
2, 152733, Control_c, 0, 64, 66
2, 152739, Note_on_c, 0, 55, 0
2, 152778, Control_c, 0, 64, 65
2, 152793, Control_c, 0, 64, 64
2, 152808, Control_c, 0, 64, 62
2, 152824, Control_c, 0, 64, 60
2, 152840, Control_c, 0, 64, 56
2, 152855, Control_c, 0, 64, 52
2, 152864, Note_on_c, 0, 69, 78
2, 152868, Note_on_c, 0, 52, 80
2, 152870, Control_c, 0, 64, 47
2, 152871, Note_on_c, 0, 48, 74
2, 152886, Control_c, 0, 64, 43
2, 152893, Note_on_c, 0, 53, 0
2, 152900, Control_c, 0, 64, 39
2, 152916, Control_c, 0, 64, 39
2, 152932, Note_on_c, 0, 69, 0
2, 152946, Control_c, 0, 64, 40
2, 152950, Note_on_c, 0, 48, 0
2, 152951, Note_on_c, 0, 52, 0
2, 152962, Control_c, 0, 64, 45
2, 152976, Control_c, 0, 64, 50
2, 152988, Note_on_c, 0, 71, 81
2, 152991, Control_c, 0, 64, 53
2, 153007, Control_c, 0, 64, 54
2, 153037, Control_c, 0, 64, 52
2, 153052, Control_c, 0, 64, 48
2, 153067, Control_c, 0, 64, 44
2, 153083, Control_c, 0, 64, 40
2, 153123, Note_on_c, 0, 53, 75
2, 153123, Note_on_c, 0, 69, 80
2, 153129, Control_c, 0, 64, 43
2, 153133, Note_on_c, 0, 50, 65
2, 153136, Note_on_c, 0, 71, 0
2, 153144, Control_c, 0, 64, 49
2, 153159, Control_c, 0, 64, 56
2, 153174, Control_c, 0, 64, 60
2, 153179, Note_on_c, 0, 53, 0
2, 153188, Control_c, 0, 64, 63
2, 153190, Note_on_c, 0, 50, 0
2, 153204, Control_c, 0, 64, 66
2, 153219, Control_c, 0, 64, 70
2, 153233, Control_c, 0, 64, 77
2, 153236, Note_on_c, 0, 71, 84
2, 153248, Note_on_c, 0, 69, 0
2, 153249, Control_c, 0, 64, 84
2, 153264, Control_c, 0, 64, 89
2, 153280, Control_c, 0, 64, 88
2, 153295, Control_c, 0, 64, 81
2, 153309, Control_c, 0, 64, 72
2, 153325, Control_c, 0, 64, 65
2, 153343, Note_on_c, 0, 71, 0
2, 153348, Control_c, 0, 64, 56
2, 153364, Control_c, 0, 64, 50
2, 153377, Note_on_c, 0, 72, 72
2, 153381, Note_on_c, 0, 43, 68
2, 153389, Note_on_c, 0, 55, 74
2, 153409, Control_c, 0, 64, 51
2, 153424, Control_c, 0, 64, 54
2, 153440, Control_c, 0, 64, 57
2, 153452, Note_on_c, 0, 72, 0
2, 153453, Note_on_c, 0, 71, 74
2, 153454, Control_c, 0, 64, 60
2, 153469, Control_c, 0, 64, 61
2, 153485, Control_c, 0, 64, 62
2, 153494, Note_on_c, 0, 71, 0
2, 153514, Note_on_c, 0, 72, 69
2, 153545, Control_c, 0, 64, 61
2, 153561, Control_c, 0, 64, 60
2, 153567, Note_on_c, 0, 71, 76
2, 153572, Note_on_c, 0, 72, 0
2, 153575, Control_c, 0, 64, 58
2, 153590, Control_c, 0, 64, 57
2, 153606, Control_c, 0, 64, 56
2, 153619, Note_on_c, 0, 71, 0
2, 153629, Note_on_c, 0, 72, 75
2, 153645, Note_on_c, 0, 50, 69
2, 153661, Note_on_c, 0, 55, 0
2, 153696, Note_on_c, 0, 71, 72
2, 153728, Note_on_c, 0, 72, 0
2, 153748, Note_on_c, 0, 69, 77
2, 153749, Note_on_c, 0, 71, 0
2, 153752, Note_on_c, 0, 43, 0
2, 153759, Control_c, 0, 64, 57
2, 153811, Note_on_c, 0, 71, 80
2, 153824, Note_on_c, 0, 69, 0
2, 153881, Note_on_c, 0, 50, 0
2, 153883, Note_on_c, 0, 72, 83
2, 153884, Note_on_c, 0, 57, 82
2, 153905, Note_on_c, 0, 71, 0
2, 154020, Note_on_c, 0, 74, 80
2, 154024, Note_on_c, 0, 59, 85
2, 154031, Note_on_c, 0, 57, 0
2, 154045, Note_on_c, 0, 72, 0
2, 154094, Control_c, 0, 64, 56
2, 154132, Control_c, 0, 64, 56
2, 154140, Note_on_c, 0, 74, 0
2, 154144, Note_on_c, 0, 72, 89
2, 154147, Control_c, 0, 64, 55
2, 154147, Note_on_c, 0, 57, 83
2, 154158, Note_on_c, 0, 59, 0
2, 154162, Control_c, 0, 64, 54
2, 154177, Control_c, 0, 64, 52
2, 154192, Control_c, 0, 64, 50
2, 154208, Control_c, 0, 64, 47
2, 154223, Control_c, 0, 64, 43
2, 154237, Note_on_c, 0, 57, 0
2, 154239, Control_c, 0, 64, 38
2, 154253, Note_on_c, 0, 74, 82
2, 154254, Control_c, 0, 64, 32
2, 154255, Note_on_c, 0, 59, 82
2, 154262, Note_on_c, 0, 72, 0
2, 154268, Control_c, 0, 64, 30
2, 154284, Control_c, 0, 64, 27
2, 154299, Control_c, 0, 64, 26
2, 154305, Note_on_c, 0, 59, 0
2, 154314, Control_c, 0, 64, 26
2, 154342, Note_on_c, 0, 74, 0
2, 154375, Control_c, 0, 64, 29
2, 154377, Note_on_c, 0, 76, 76
2, 154390, Control_c, 0, 64, 36
2, 154391, Note_on_c, 0, 55, 79
2, 154397, Note_on_c, 0, 59, 80
2, 154406, Control_c, 0, 64, 42
2, 154420, Control_c, 0, 64, 46
2, 154436, Control_c, 0, 64, 51
2, 154449, Note_on_c, 0, 76, 0
2, 154451, Control_c, 0, 64, 55
2, 154453, Note_on_c, 0, 74, 71
2, 154467, Control_c, 0, 64, 58
2, 154483, Control_c, 0, 64, 60
2, 154498, Control_c, 0, 64, 62
2, 154499, Note_on_c, 0, 74, 0
2, 154513, Control_c, 0, 64, 63
2, 154513, Note_on_c, 0, 76, 74
2, 154528, Control_c, 0, 64, 64
2, 154543, Control_c, 0, 64, 65
2, 154559, Control_c, 0, 64, 66
2, 154574, Control_c, 0, 64, 67
2, 154575, Note_on_c, 0, 76, 0
2, 154579, Note_on_c, 0, 74, 74
2, 154588, Control_c, 0, 64, 67
2, 154605, Note_on_c, 0, 59, 0
2, 154619, Control_c, 0, 64, 67
2, 154624, Note_on_c, 0, 74, 0
2, 154643, Note_on_c, 0, 53, 69
2, 154643, Note_on_c, 0, 76, 77
2, 154646, Note_on_c, 0, 55, 0
2, 154649, Control_c, 0, 64, 66
2, 154664, Control_c, 0, 64, 66
2, 154680, Control_c, 0, 64, 65
2, 154694, Control_c, 0, 64, 64
2, 154709, Control_c, 0, 64, 63
2, 154711, Note_on_c, 0, 74, 68
2, 154725, Control_c, 0, 64, 63
2, 154725, Note_on_c, 0, 76, 0
2, 154730, Note_on_c, 0, 53, 0
2, 154741, Note_on_c, 0, 57, 75
2, 154746, Note_on_c, 0, 72, 81
2, 154747, Note_on_c, 0, 74, 0
2, 154754, Control_c, 0, 64, 62
2, 154770, Control_c, 0, 64, 62
2, 154785, Control_c, 0, 64, 61
2, 154801, Control_c, 0, 64, 60
2, 154813, Note_on_c, 0, 74, 80
2, 154820, Note_on_c, 0, 57, 0
2, 154820, Note_on_c, 0, 59, 81
2, 154829, Note_on_c, 0, 72, 0
2, 154846, Control_c, 0, 64, 60
2, 154884, Control_c, 0, 64, 59
2, 154899, Control_c, 0, 64, 58
2, 154907, Note_on_c, 0, 52, 66
2, 154907, Note_on_c, 0, 76, 85
2, 154913, Note_on_c, 0, 60, 86
2, 154914, Control_c, 0, 64, 57
2, 154928, Note_on_c, 0, 59, 0
2, 154929, Control_c, 0, 64, 57
2, 154932, Note_on_c, 0, 74, 0
2, 154944, Control_c, 0, 64, 56
2, 154960, Control_c, 0, 64, 56
2, 154975, Control_c, 0, 64, 55
2, 154990, Control_c, 0, 64, 55
2, 155006, Control_c, 0, 64, 54
2, 155015, Note_on_c, 0, 52, 0
2, 155021, Control_c, 0, 64, 54
2, 155037, Control_c, 0, 64, 53
2, 155052, Control_c, 0, 64, 53
2, 155060, Note_on_c, 0, 74, 70
2, 155066, Control_c, 0, 64, 52
2, 155097, Control_c, 0, 64, 51
2, 155112, Control_c, 0, 64, 51
2, 155128, Control_c, 0, 64, 50
2, 155173, Control_c, 0, 64, 50
2, 155187, Note_on_c, 0, 50, 67
2, 155192, Note_on_c, 0, 72, 76
2, 155226, Note_on_c, 0, 74, 0
2, 155262, Note_on_c, 0, 50, 0
2, 155290, Note_on_c, 0, 72, 0
2, 155305, Note_on_c, 0, 71, 71
2, 155417, Control_c, 0, 64, 49
2, 155433, Note_on_c, 0, 71, 0
2, 155447, Control_c, 0, 64, 48
2, 155448, Note_on_c, 0, 48, 64
2, 155449, Note_on_c, 0, 69, 67
2, 155462, Control_c, 0, 64, 47
2, 155477, Control_c, 0, 64, 47
2, 155492, Control_c, 0, 64, 46
2, 155501, Note_on_c, 0, 48, 0
2, 155523, Control_c, 0, 64, 45
2, 155523, Note_on_c, 0, 69, 0
2, 155538, Control_c, 0, 64, 45
2, 155570, Note_on_c, 0, 67, 60
2, 155685, Note_on_c, 0, 67, 0
2, 155703, Note_on_c, 0, 52, 57
2, 155709, Note_on_c, 0, 66, 60
2, 155766, Note_on_c, 0, 52, 0
2, 155779, Note_on_c, 0, 66, 0
2, 155782, Note_on_c, 0, 76, 0
2, 155817, Note_on_c, 0, 64, 59
2, 155834, Control_c, 0, 64, 44
2, 155909, Control_c, 0, 64, 45
2, 155925, Control_c, 0, 64, 47
2, 155929, Note_on_c, 0, 60, 0
2, 155940, Control_c, 0, 64, 50
2, 155956, Control_c, 0, 64, 52
2, 155966, Note_on_c, 0, 50, 58
2, 155967, Note_on_c, 0, 66, 52
2, 155971, Control_c, 0, 64, 54
2, 155985, Control_c, 0, 64, 55
2, 156001, Control_c, 0, 64, 56
2, 156016, Control_c, 0, 64, 56
2, 156031, Control_c, 0, 64, 57
2, 156047, Note_on_c, 0, 64, 0
2, 156066, Note_on_c, 0, 66, 0
2, 156071, Note_on_c, 0, 50, 0
2, 156124, Control_c, 0, 64, 56
2, 156138, Control_c, 0, 64, 56
2, 156153, Control_c, 0, 64, 55
2, 156169, Control_c, 0, 64, 54
2, 156184, Control_c, 0, 64, 54
2, 156200, Control_c, 0, 64, 53
2, 156214, Control_c, 0, 64, 53
2, 156244, Note_on_c, 0, 50, 57
2, 156247, Note_on_c, 0, 62, 62
2, 156258, Note_on_c, 0, 54, 66
2, 156260, Control_c, 0, 64, 52
2, 156330, Note_on_c, 0, 62, 0
2, 156354, Note_on_c, 0, 54, 0
2, 156360, Note_on_c, 0, 52, 75
2, 156361, Note_on_c, 0, 50, 0
2, 156493, Note_on_c, 0, 64, 73
2, 156495, Note_on_c, 0, 50, 80
2, 156532, Note_on_c, 0, 52, 0
2, 156608, Note_on_c, 0, 64, 0
2, 156637, Note_on_c, 0, 50, 0
2, 156678, Control_c, 0, 64, 53
2, 156760, Note_on_c, 0, 66, 77
2, 156764, Note_on_c, 0, 48, 80
2, 156778, Note_on_c, 0, 57, 69
2, 156827, Control_c, 0, 64, 52
2, 156843, Control_c, 0, 64, 52
2, 156852, Note_on_c, 0, 57, 0
2, 156858, Control_c, 0, 64, 51
2, 156872, Control_c, 0, 64, 50
2, 156875, Note_on_c, 0, 66, 0
2, 156887, Note_on_c, 0, 48, 0
2, 156888, Control_c, 0, 64, 48
2, 156903, Control_c, 0, 64, 44
2, 156919, Control_c, 0, 64, 40
2, 156935, Control_c, 0, 64, 35
2, 156950, Control_c, 0, 64, 30
2, 156966, Control_c, 0, 64, 27
2, 156980, Control_c, 0, 64, 25
2, 157028, Note_on_c, 0, 47, 78
2, 157031, Note_on_c, 0, 67, 83
2, 157041, Control_c, 0, 64, 31
2, 157041, Note_on_c, 0, 59, 73
2, 157056, Control_c, 0, 64, 41
2, 157071, Control_c, 0, 64, 50
2, 157087, Control_c, 0, 64, 56
2, 157098, Note_on_c, 0, 59, 0
2, 157098, Note_on_c, 0, 67, 0
2, 157102, Control_c, 0, 64, 59
2, 157117, Control_c, 0, 64, 62
2, 157132, Control_c, 0, 64, 64
2, 157147, Control_c, 0, 64, 65
2, 157185, Control_c, 0, 64, 64
2, 157186, Note_on_c, 0, 47, 0
2, 157200, Control_c, 0, 64, 63
2, 157216, Control_c, 0, 64, 62
2, 157231, Control_c, 0, 64, 60
2, 157247, Control_c, 0, 64, 58
2, 157261, Control_c, 0, 64, 56
2, 157276, Control_c, 0, 64, 54
2, 157292, Control_c, 0, 64, 52
2, 157303, Note_on_c, 0, 74, 84
2, 157307, Control_c, 0, 64, 50
2, 157308, Note_on_c, 0, 66, 78
2, 157311, Note_on_c, 0, 50, 67
2, 157315, Note_on_c, 0, 47, 67
2, 157323, Control_c, 0, 64, 49
2, 157337, Control_c, 0, 64, 48
2, 157352, Control_c, 0, 64, 47
2, 157357, Note_on_c, 0, 50, 0
2, 157368, Control_c, 0, 64, 45
2, 157373, Note_on_c, 0, 66, 0
2, 157382, Control_c, 0, 64, 44
2, 157397, Control_c, 0, 64, 42
2, 157413, Control_c, 0, 64, 40
2, 157419, Note_on_c, 0, 74, 0
2, 157419, Note_on_c, 0, 76, 82
2, 157420, Note_on_c, 0, 48, 79
2, 157428, Control_c, 0, 64, 39
2, 157428, Note_on_c, 0, 47, 0
2, 157444, Control_c, 0, 64, 37
2, 157459, Control_c, 0, 64, 37
2, 157473, Control_c, 0, 64, 36
2, 157504, Control_c, 0, 64, 35
2, 157519, Control_c, 0, 64, 34
2, 157535, Control_c, 0, 64, 34
2, 157550, Control_c, 0, 64, 33
2, 157556, Note_on_c, 0, 74, 84
2, 157563, Note_on_c, 0, 47, 76
2, 157563, Note_on_c, 0, 52, 77
2, 157569, Note_on_c, 0, 67, 75
2, 157574, Note_on_c, 0, 48, 0
2, 157580, Control_c, 0, 64, 33
2, 157604, Note_on_c, 0, 76, 0
2, 157653, Note_on_c, 0, 52, 0
2, 157653, Note_on_c, 0, 67, 0
2, 157684, Note_on_c, 0, 47, 0
2, 157707, Note_on_c, 0, 74, 0
2, 157822, Note_on_c, 0, 72, 87
2, 157825, Control_c, 0, 64, 33
2, 157828, Note_on_c, 0, 45, 64
2, 157828, Note_on_c, 0, 54, 76
2, 157834, Note_on_c, 0, 69, 70
2, 157840, Control_c, 0, 64, 36
2, 157856, Control_c, 0, 64, 41
2, 157871, Control_c, 0, 64, 48
2, 157887, Control_c, 0, 64, 54
2, 157901, Control_c, 0, 64, 57
2, 157916, Control_c, 0, 64, 59
2, 157919, Note_on_c, 0, 54, 0
2, 157927, Note_on_c, 0, 69, 0
2, 157932, Control_c, 0, 64, 60
2, 157938, Note_on_c, 0, 45, 0
2, 157953, Note_on_c, 0, 72, 0
2, 157984, Control_c, 0, 64, 60
2, 157999, Control_c, 0, 64, 58
2, 158015, Control_c, 0, 64, 57
2, 158030, Control_c, 0, 64, 56
2, 158046, Control_c, 0, 64, 54
2, 158061, Control_c, 0, 64, 53
2, 158076, Control_c, 0, 64, 51
2, 158092, Control_c, 0, 64, 50
2, 158100, Note_on_c, 0, 43, 66
2, 158106, Control_c, 0, 64, 50
2, 158106, Note_on_c, 0, 55, 71
2, 158106, Note_on_c, 0, 71, 83
2, 158116, Note_on_c, 0, 62, 67
2, 158121, Control_c, 0, 64, 49
2, 158137, Control_c, 0, 64, 48
2, 158151, Control_c, 0, 64, 48
2, 158182, Control_c, 0, 64, 47
2, 158210, Note_on_c, 0, 45, 69
2, 158223, Note_on_c, 0, 43, 0
2, 158253, Note_on_c, 0, 71, 0
2, 158361, Note_on_c, 0, 47, 73
2, 158370, Note_on_c, 0, 71, 78
2, 158374, Note_on_c, 0, 55, 0
2, 158391, Note_on_c, 0, 45, 0
2, 158410, Control_c, 0, 64, 48
2, 158470, Note_on_c, 0, 72, 80
2, 158476, Note_on_c, 0, 45, 67
2, 158492, Note_on_c, 0, 71, 0
2, 158505, Note_on_c, 0, 47, 0
2, 158532, Control_c, 0, 64, 47
2, 158608, Control_c, 0, 64, 49
2, 158608, Note_on_c, 0, 71, 83
2, 158623, Control_c, 0, 64, 53
2, 158624, Note_on_c, 0, 43, 79
2, 158638, Control_c, 0, 64, 56
2, 158654, Control_c, 0, 64, 60
2, 158660, Note_on_c, 0, 72, 0
2, 158661, Note_on_c, 0, 45, 0
2, 158669, Control_c, 0, 64, 61
2, 158685, Control_c, 0, 64, 63
2, 158696, Note_on_c, 0, 62, 0
2, 158700, Control_c, 0, 64, 64
2, 158705, Note_on_c, 0, 71, 0
2, 158747, Note_on_c, 0, 43, 0
2, 158752, Control_c, 0, 64, 63
2, 158768, Control_c, 0, 64, 61
2, 158783, Control_c, 0, 64, 57
2, 158797, Control_c, 0, 64, 52
2, 158813, Control_c, 0, 64, 47
2, 158828, Control_c, 0, 64, 43
2, 158844, Control_c, 0, 64, 39
2, 158859, Control_c, 0, 64, 38
2, 158893, Note_on_c, 0, 57, 74
2, 158896, Note_on_c, 0, 63, 75
2, 158901, Note_on_c, 0, 69, 68
2, 158902, Note_on_c, 0, 42, 77
2, 158905, Control_c, 0, 64, 42
2, 158919, Control_c, 0, 64, 49
2, 158935, Control_c, 0, 64, 57
2, 158950, Control_c, 0, 64, 61
2, 158964, Note_on_c, 0, 57, 0
2, 158966, Control_c, 0, 64, 64
2, 158978, Note_on_c, 0, 42, 0
2, 158981, Control_c, 0, 64, 67
2, 158995, Control_c, 0, 64, 73
2, 159000, Note_on_c, 0, 63, 0
2, 159011, Control_c, 0, 64, 82
2, 159026, Control_c, 0, 64, 92
2, 159036, Note_on_c, 0, 69, 0
2, 159041, Control_c, 0, 64, 91
2, 159057, Control_c, 0, 64, 83
2, 159071, Control_c, 0, 64, 74
2, 159087, Control_c, 0, 64, 67
2, 159102, Control_c, 0, 64, 64
2, 159117, Control_c, 0, 64, 61
2, 159133, Control_c, 0, 64, 59
2, 159147, Control_c, 0, 64, 57
2, 159163, Control_c, 0, 64, 53
2, 159171, Note_on_c, 0, 52, 69
2, 159174, Note_on_c, 0, 59, 76
2, 159174, Note_on_c, 0, 64, 69
2, 159177, Note_on_c, 0, 67, 70
2, 159178, Control_c, 0, 64, 51
2, 159193, Control_c, 0, 64, 50
2, 159279, Note_on_c, 0, 52, 0
2, 159284, Control_c, 0, 64, 49
2, 159294, Note_on_c, 0, 69, 75
2, 159328, Note_on_c, 0, 64, 0
2, 159336, Note_on_c, 0, 67, 0
2, 159428, Note_on_c, 0, 55, 67
2, 159430, Note_on_c, 0, 71, 79
2, 159436, Control_c, 0, 64, 49
2, 159441, Note_on_c, 0, 64, 70
2, 159444, Note_on_c, 0, 69, 0
2, 159452, Control_c, 0, 64, 48
2, 159467, Control_c, 0, 64, 47
2, 159491, Control_c, 0, 64, 47
2, 159505, Control_c, 0, 64, 46
2, 159536, Control_c, 0, 64, 45
2, 159549, Note_on_c, 0, 69, 78
2, 159551, Control_c, 0, 64, 44
2, 159555, Note_on_c, 0, 63, 79
2, 159567, Control_c, 0, 64, 42
2, 159572, Note_on_c, 0, 64, 0
2, 159581, Control_c, 0, 64, 40
2, 159596, Control_c, 0, 64, 38
2, 159612, Control_c, 0, 64, 33
2, 159629, Control_c, 0, 64, 26
2, 159644, Control_c, 0, 64, 12
2, 159659, Control_c, 0, 64, 0
2, 159687, Note_on_c, 0, 64, 69
2, 159687, Note_on_c, 0, 67, 79
2, 159690, Note_on_c, 0, 71, 0
2, 159729, Note_on_c, 0, 63, 0
2, 159735, Control_c, 0, 64, 24
2, 159735, Note_on_c, 0, 55, 0
2, 159750, Control_c, 0, 64, 39
2, 159754, Note_on_c, 0, 69, 0
2, 159766, Control_c, 0, 64, 44
2, 159805, Note_on_c, 0, 67, 0
2, 159827, Control_c, 0, 64, 43
2, 159842, Control_c, 0, 64, 39
2, 159857, Control_c, 0, 64, 33
2, 159872, Control_c, 0, 64, 26
2, 159888, Control_c, 0, 64, 19
2, 159903, Control_c, 0, 64, 16
2, 159948, Control_c, 0, 64, 19
2, 159949, Note_on_c, 0, 50, 61
2, 159951, Note_on_c, 0, 66, 74
2, 159964, Control_c, 0, 64, 33
2, 159979, Control_c, 0, 64, 47
2, 159993, Control_c, 0, 64, 56
2, 160009, Control_c, 0, 64, 61
2, 160024, Control_c, 0, 64, 63
2, 160025, Note_on_c, 0, 64, 0
2, 160025, Note_on_c, 0, 66, 0
2, 160040, Control_c, 0, 64, 64
2, 160050, Note_on_c, 0, 50, 0
2, 160054, Control_c, 0, 64, 65
2, 160084, Control_c, 0, 64, 64
2, 160099, Control_c, 0, 64, 62
2, 160114, Control_c, 0, 64, 60
2, 160130, Control_c, 0, 64, 56
2, 160145, Control_c, 0, 64, 52
2, 160161, Control_c, 0, 64, 49
2, 160175, Control_c, 0, 64, 42
2, 160190, Control_c, 0, 64, 38
2, 160202, Note_on_c, 0, 59, 0
2, 160207, Control_c, 0, 64, 36
2, 160219, Note_on_c, 0, 76, 81
2, 160239, Note_on_c, 0, 48, 46
2, 160260, Control_c, 0, 64, 41
2, 160276, Control_c, 0, 64, 51
2, 160290, Control_c, 0, 64, 57
2, 160305, Control_c, 0, 64, 61
2, 160321, Control_c, 0, 64, 63
2, 160334, Note_on_c, 0, 76, 0
2, 160336, Control_c, 0, 64, 64
2, 160338, Note_on_c, 0, 48, 0
2, 160344, Note_on_c, 0, 47, 60
2, 160351, Control_c, 0, 64, 65
2, 160366, Control_c, 0, 64, 67
2, 160397, Control_c, 0, 64, 66
2, 160412, Control_c, 0, 64, 64
2, 160427, Control_c, 0, 64, 62
2, 160442, Control_c, 0, 64, 59
2, 160457, Control_c, 0, 64, 56
2, 160466, Note_on_c, 0, 47, 0
2, 160472, Control_c, 0, 64, 52
2, 160481, Note_on_c, 0, 79, 66
2, 160482, Note_on_c, 0, 50, 53
2, 160488, Control_c, 0, 64, 47
2, 160490, Note_on_c, 0, 67, 63
2, 160501, Note_on_c, 0, 52, 46
2, 160503, Control_c, 0, 64, 43
2, 160518, Control_c, 0, 64, 41
2, 160548, Control_c, 0, 64, 41
2, 160564, Note_on_c, 0, 52, 0
2, 160569, Note_on_c, 0, 50, 0
2, 160579, Control_c, 0, 64, 40
2, 160586, Note_on_c, 0, 67, 0
2, 160594, Note_on_c, 0, 48, 58
2, 160640, Control_c, 0, 64, 40
2, 160670, Control_c, 0, 64, 39
2, 160723, Note_on_c, 0, 48, 0
2, 160731, Control_c, 0, 64, 42
2, 160744, Note_on_c, 0, 69, 68
2, 160746, Control_c, 0, 64, 49
2, 160748, Note_on_c, 0, 47, 56
2, 160759, Note_on_c, 0, 79, 0
2, 160761, Control_c, 0, 64, 56
2, 160763, Note_on_c, 0, 54, 56
2, 160776, Control_c, 0, 64, 60
2, 160791, Control_c, 0, 64, 63
2, 160807, Control_c, 0, 64, 65
2, 160821, Control_c, 0, 64, 68
2, 160829, Note_on_c, 0, 54, 0
2, 160837, Control_c, 0, 64, 70
2, 160842, Note_on_c, 0, 69, 0
2, 160858, Note_on_c, 0, 47, 0
2, 160867, Control_c, 0, 64, 69
2, 160870, Note_on_c, 0, 45, 62
2, 160883, Control_c, 0, 64, 67
2, 160897, Control_c, 0, 64, 65
2, 160912, Control_c, 0, 64, 63
2, 160928, Control_c, 0, 64, 61
2, 160943, Control_c, 0, 64, 58
2, 160959, Control_c, 0, 64, 56
2, 160974, Control_c, 0, 64, 53
2, 160980, Note_on_c, 0, 45, 0
2, 160989, Control_c, 0, 64, 50
2, 160989, Note_on_c, 0, 74, 71
2, 161004, Control_c, 0, 64, 48
2, 161007, Note_on_c, 0, 48, 58
2, 161007, Note_on_c, 0, 71, 64
2, 161019, Note_on_c, 0, 55, 60
2, 161028, Control_c, 0, 64, 47
2, 161073, Control_c, 0, 64, 48
2, 161089, Control_c, 0, 64, 49
2, 161104, Control_c, 0, 64, 50
2, 161121, Note_on_c, 0, 47, 70
2, 161125, Note_on_c, 0, 55, 0
2, 161134, Control_c, 0, 64, 50
2, 161141, Note_on_c, 0, 48, 0
2, 161148, Note_on_c, 0, 71, 0
2, 161209, Note_on_c, 0, 74, 0
2, 161249, Note_on_c, 0, 47, 0
2, 161265, Note_on_c, 0, 72, 79
2, 161272, Note_on_c, 0, 45, 64
2, 161274, Note_on_c, 0, 57, 72
2, 161351, Note_on_c, 0, 57, 0
2, 161374, Note_on_c, 0, 45, 0
2, 161383, Note_on_c, 0, 71, 78
2, 161514, Note_on_c, 0, 47, 57
2, 161517, Note_on_c, 0, 50, 63
2, 161521, Note_on_c, 0, 74, 74
2, 161526, Note_on_c, 0, 67, 68
2, 161536, Note_on_c, 0, 71, 0
2, 161539, Note_on_c, 0, 72, 0
2, 161598, Note_on_c, 0, 50, 0
2, 161606, Note_on_c, 0, 47, 0
2, 161631, Note_on_c, 0, 72, 84
2, 161723, Note_on_c, 0, 74, 0
2, 161728, Control_c, 0, 64, 51
2, 161742, Control_c, 0, 64, 51
2, 161757, Note_on_c, 0, 71, 79
2, 161758, Control_c, 0, 64, 52
2, 161766, Note_on_c, 0, 48, 63
2, 161770, Note_on_c, 0, 52, 63
2, 161773, Control_c, 0, 64, 53
2, 161775, Note_on_c, 0, 67, 0
2, 161796, Control_c, 0, 64, 54
2, 161800, Note_on_c, 0, 72, 0
2, 161829, Note_on_c, 0, 52, 0
2, 161852, Note_on_c, 0, 48, 0
2, 161882, Note_on_c, 0, 69, 85
2, 161888, Control_c, 0, 64, 53
2, 161894, Note_on_c, 0, 71, 0
2, 161903, Control_c, 0, 64, 53
2, 161919, Control_c, 0, 64, 52
2, 161949, Control_c, 0, 64, 52
2, 162004, Note_on_c, 0, 69, 0
2, 162013, Note_on_c, 0, 72, 75
2, 162015, Note_on_c, 0, 66, 69
2, 162019, Note_on_c, 0, 50, 57
2, 162020, Note_on_c, 0, 43, 50
2, 162073, Note_on_c, 0, 66, 0
2, 162095, Note_on_c, 0, 43, 0
2, 162109, Note_on_c, 0, 50, 0
2, 162119, Note_on_c, 0, 71, 70
2, 162126, Note_on_c, 0, 52, 65
2, 162129, Note_on_c, 0, 72, 0
2, 162131, Note_on_c, 0, 67, 72
2, 162146, Control_c, 0, 64, 52
2, 162238, Control_c, 0, 64, 53
2, 162252, Control_c, 0, 64, 53
2, 162255, Note_on_c, 0, 52, 0
2, 162263, Note_on_c, 0, 69, 73
2, 162264, Note_on_c, 0, 54, 68
2, 162265, Note_on_c, 0, 50, 48
2, 162267, Control_c, 0, 64, 54
2, 162297, Control_c, 0, 64, 54
2, 162334, Note_on_c, 0, 67, 0
2, 162359, Note_on_c, 0, 69, 0
2, 162360, Note_on_c, 0, 71, 0
2, 162381, Note_on_c, 0, 54, 0
2, 162381, Note_on_c, 0, 55, 70
2, 162465, Control_c, 0, 64, 54
2, 162510, Control_c, 0, 64, 53
2, 162514, Note_on_c, 0, 71, 75
2, 162516, Note_on_c, 0, 52, 75
2, 162524, Note_on_c, 0, 55, 0
2, 162558, Note_on_c, 0, 50, 0
2, 162564, Control_c, 0, 64, 53
2, 162579, Control_c, 0, 64, 52
2, 162624, Control_c, 0, 64, 52
2, 162630, Note_on_c, 0, 54, 78
2, 162634, Note_on_c, 0, 71, 0
2, 162640, Control_c, 0, 64, 51
2, 162653, Note_on_c, 0, 52, 0
2, 162655, Control_c, 0, 64, 50
2, 162671, Control_c, 0, 64, 49
2, 162686, Control_c, 0, 64, 48
2, 162701, Control_c, 0, 64, 46
2, 162717, Control_c, 0, 64, 44
2, 162732, Control_c, 0, 64, 42
2, 162747, Control_c, 0, 64, 39
2, 162762, Control_c, 0, 64, 38
2, 162767, Note_on_c, 0, 55, 78
2, 162770, Note_on_c, 0, 72, 80
2, 162773, Control_c, 0, 64, 38
2, 162776, Note_on_c, 0, 52, 64
2, 162782, Note_on_c, 0, 54, 0
2, 162803, Control_c, 0, 64, 37
2, 162850, Control_c, 0, 64, 37
2, 162878, Note_on_c, 0, 57, 82
2, 162884, Note_on_c, 0, 55, 0
2, 162922, Note_on_c, 0, 72, 0
2, 163012, Note_on_c, 0, 54, 85
2, 163021, Note_on_c, 0, 67, 76
2, 163032, Control_c, 0, 64, 37
2, 163034, Note_on_c, 0, 57, 0
2, 163048, Note_on_c, 0, 52, 0
2, 163087, Note_on_c, 0, 67, 0
2, 163108, Control_c, 0, 64, 38
2, 163112, Note_on_c, 0, 55, 88
2, 163140, Note_on_c, 0, 54, 0
2, 163258, Note_on_c, 0, 54, 83
2, 163260, Note_on_c, 0, 57, 86
2, 163261, Note_on_c, 0, 74, 78
2, 163269, Note_on_c, 0, 55, 0
2, 163290, Control_c, 0, 64, 38
2, 163325, Note_on_c, 0, 74, 0
2, 163387, Note_on_c, 0, 76, 78
2, 163389, Control_c, 0, 64, 39
2, 163404, Control_c, 0, 64, 39
2, 163420, Control_c, 0, 64, 40
2, 163434, Control_c, 0, 64, 41
2, 163450, Control_c, 0, 64, 42
2, 163465, Control_c, 0, 64, 42
2, 163497, Control_c, 0, 64, 43
2, 163512, Control_c, 0, 64, 44
2, 163513, Note_on_c, 0, 59, 80
2, 163513, Note_on_c, 0, 74, 80
2, 163525, Note_on_c, 0, 76, 0
2, 163526, Control_c, 0, 64, 46
2, 163538, Note_on_c, 0, 57, 0
2, 163542, Control_c, 0, 64, 47
2, 163557, Control_c, 0, 64, 48
2, 163573, Control_c, 0, 64, 49
2, 163584, Note_on_c, 0, 54, 0
2, 163587, Control_c, 0, 64, 50
2, 163602, Control_c, 0, 64, 50
2, 163618, Control_c, 0, 64, 51
2, 163623, Note_on_c, 0, 76, 80
2, 163624, Note_on_c, 0, 60, 81
2, 163624, Note_on_c, 0, 74, 0
2, 163632, Note_on_c, 0, 59, 0
2, 163633, Control_c, 0, 64, 52
2, 163648, Control_c, 0, 64, 52
2, 163663, Control_c, 0, 64, 53
2, 163713, Note_on_c, 0, 76, 0
2, 163744, Note_on_c, 0, 77, 74
2, 163749, Note_on_c, 0, 59, 80
2, 163752, Note_on_c, 0, 55, 71
2, 163757, Note_on_c, 0, 60, 0
2, 163815, Note_on_c, 0, 77, 0
2, 163822, Note_on_c, 0, 76, 72
2, 163856, Note_on_c, 0, 76, 0
2, 163872, Note_on_c, 0, 77, 69
2, 163884, Note_on_c, 0, 59, 0
2, 163895, Note_on_c, 0, 60, 73
2, 163928, Note_on_c, 0, 76, 74
2, 163932, Note_on_c, 0, 77, 0
2, 163980, Note_on_c, 0, 76, 0
2, 163982, Note_on_c, 0, 77, 72
2, 164003, Note_on_c, 0, 57, 77
2, 164018, Note_on_c, 0, 55, 0
2, 164023, Note_on_c, 0, 60, 0
2, 164044, Note_on_c, 0, 76, 71
2, 164073, Note_on_c, 0, 77, 0
2, 164109, Note_on_c, 0, 74, 77
2, 164115, Note_on_c, 0, 76, 0
2, 164119, Note_on_c, 0, 59, 85
2, 164139, Note_on_c, 0, 57, 0
2, 164179, Note_on_c, 0, 76, 84
2, 164199, Note_on_c, 0, 74, 0
2, 164265, Note_on_c, 0, 57, 78
2, 164265, Note_on_c, 0, 60, 82
2, 164265, Note_on_c, 0, 77, 91
2, 164273, Note_on_c, 0, 59, 0
2, 164288, Note_on_c, 0, 76, 0
2, 164340, Control_c, 0, 64, 52
2, 164385, Control_c, 0, 64, 52
2, 164395, Note_on_c, 0, 76, 83
2, 164445, Control_c, 0, 64, 51
2, 164512, Note_on_c, 0, 74, 82
2, 164515, Note_on_c, 0, 62, 77
2, 164516, Note_on_c, 0, 60, 0
2, 164540, Note_on_c, 0, 76, 0
2, 164552, Control_c, 0, 64, 51
2, 164607, Note_on_c, 0, 74, 0
2, 164617, Note_on_c, 0, 72, 83
2, 164623, Note_on_c, 0, 64, 82
2, 164629, Note_on_c, 0, 62, 0
2, 164719, Control_c, 0, 64, 50
2, 164751, Note_on_c, 0, 62, 80
2, 164751, Note_on_c, 0, 71, 82
2, 164757, Note_on_c, 0, 59, 77
2, 164764, Control_c, 0, 64, 50
2, 164766, Note_on_c, 0, 57, 0
2, 164773, Note_on_c, 0, 72, 0
2, 164776, Note_on_c, 0, 64, 0
2, 164840, Control_c, 0, 64, 49
2, 164860, Note_on_c, 0, 62, 0
2, 164864, Note_on_c, 0, 71, 0
2, 164868, Note_on_c, 0, 59, 0
2, 164882, Note_on_c, 0, 69, 82
2, 164895, Control_c, 0, 64, 49
2, 164924, Control_c, 0, 64, 48
2, 164955, Control_c, 0, 64, 48
2, 164970, Control_c, 0, 64, 47
2, 165026, Note_on_c, 0, 68, 82
2, 165029, Note_on_c, 0, 60, 80
2, 165034, Note_on_c, 0, 57, 67
2, 165045, Note_on_c, 0, 69, 0
2, 165082, Note_on_c, 0, 60, 0
2, 165094, Note_on_c, 0, 57, 0
2, 165140, Note_on_c, 0, 69, 86
2, 165151, Note_on_c, 0, 68, 0
2, 165285, Note_on_c, 0, 71, 82
2, 165292, Note_on_c, 0, 59, 78
2, 165294, Note_on_c, 0, 56, 78
2, 165296, Note_on_c, 0, 69, 0
2, 165365, Note_on_c, 0, 77, 0
2, 165367, Note_on_c, 0, 59, 0
2, 165374, Note_on_c, 0, 56, 0
2, 165549, Control_c, 0, 64, 48
2, 165577, Note_on_c, 0, 76, 88
2, 165578, Note_on_c, 0, 52, 66
2, 165579, Note_on_c, 0, 56, 86
2, 165653, Note_on_c, 0, 52, 0
2, 165686, Note_on_c, 0, 56, 0
2, 165701, Note_on_c, 0, 77, 90
2, 165726, Note_on_c, 0, 76, 0
2, 165832, Note_on_c, 0, 54, 75
2, 165832, Note_on_c, 0, 57, 82
2, 165832, Note_on_c, 0, 76, 86
2, 165922, Note_on_c, 0, 77, 0
2, 165960, Note_on_c, 0, 54, 0
2, 165961, Note_on_c, 0, 57, 0
2, 165964, Note_on_c, 0, 76, 0
2, 166102, Note_on_c, 0, 59, 83
2, 166103, Note_on_c, 0, 74, 89
2, 166104, Note_on_c, 0, 56, 77
2, 166119, Control_c, 0, 64, 47
2, 166135, Control_c, 0, 64, 47
2, 166150, Control_c, 0, 64, 45
2, 166165, Control_c, 0, 64, 44
2, 166181, Control_c, 0, 64, 42
2, 166195, Control_c, 0, 64, 39
2, 166211, Control_c, 0, 64, 32
2, 166225, Control_c, 0, 64, 9
2, 166230, Note_on_c, 0, 59, 0
2, 166234, Note_on_c, 0, 74, 0
2, 166236, Note_on_c, 0, 56, 0
2, 166239, Control_c, 0, 64, 0
2, 166376, Note_on_c, 0, 60, 90
2, 166377, Control_c, 0, 64, 12
2, 166377, Note_on_c, 0, 72, 93
2, 166378, Note_on_c, 0, 57, 77
2, 166399, Control_c, 0, 64, 45
2, 166415, Control_c, 0, 64, 60
2, 166417, Note_on_c, 0, 71, 0
2, 166429, Control_c, 0, 64, 68
2, 166444, Control_c, 0, 64, 79
2, 166460, Control_c, 0, 64, 113
2, 166464, Note_on_c, 0, 60, 0
2, 166475, Control_c, 0, 64, 127
2, 166485, Note_on_c, 0, 57, 0
2, 166485, Note_on_c, 0, 72, 0
2, 166551, Control_c, 0, 64, 95
2, 166566, Control_c, 0, 64, 80
2, 166582, Control_c, 0, 64, 67
2, 166596, Control_c, 0, 64, 60
2, 166612, Control_c, 0, 64, 54
2, 166627, Control_c, 0, 64, 53
2, 166656, Note_on_c, 0, 52, 75
2, 166657, Control_c, 0, 64, 51
2, 166658, Note_on_c, 0, 48, 76
2, 166663, Note_on_c, 0, 72, 81
2, 166664, Note_on_c, 0, 64, 81
2, 166672, Control_c, 0, 64, 48
2, 166687, Control_c, 0, 64, 46
2, 166719, Note_on_c, 0, 64, 0
2, 166739, Note_on_c, 0, 52, 0
2, 166766, Note_on_c, 0, 74, 76
2, 166772, Note_on_c, 0, 65, 84
2, 166781, Note_on_c, 0, 48, 0
2, 166797, Note_on_c, 0, 72, 0
2, 166833, Note_on_c, 0, 74, 0
2, 166891, Note_on_c, 0, 72, 70
2, 166895, Note_on_c, 0, 50, 72
2, 166898, Note_on_c, 0, 54, 80
2, 166898, Note_on_c, 0, 64, 85
2, 166930, Note_on_c, 0, 65, 0
2, 166992, Control_c, 0, 64, 47
2, 167002, Note_on_c, 0, 50, 0
2, 167007, Control_c, 0, 64, 47
2, 167023, Control_c, 0, 64, 48
2, 167023, Note_on_c, 0, 54, 0
2, 167032, Note_on_c, 0, 64, 0
2, 167038, Control_c, 0, 64, 48
2, 167054, Control_c, 0, 64, 49
2, 167072, Note_on_c, 0, 72, 0
2, 167083, Control_c, 0, 64, 50
2, 167167, Note_on_c, 0, 62, 81
2, 167171, Note_on_c, 0, 52, 73
2, 167172, Note_on_c, 0, 56, 84
2, 167172, Note_on_c, 0, 71, 78
2, 167242, Control_c, 0, 64, 50
2, 167256, Note_on_c, 0, 52, 0
2, 167264, Note_on_c, 0, 71, 0
2, 167287, Note_on_c, 0, 62, 0
2, 167293, Note_on_c, 0, 56, 0
2, 167438, Note_on_c, 0, 57, 89
2, 167439, Note_on_c, 0, 60, 75
2, 167439, Note_on_c, 0, 69, 76
2, 167442, Note_on_c, 0, 53, 77
2, 167456, Control_c, 0, 64, 50
2, 167471, Control_c, 0, 64, 49
2, 167486, Control_c, 0, 64, 49
2, 167501, Control_c, 0, 64, 48
2, 167516, Control_c, 0, 64, 48
2, 167527, Note_on_c, 0, 60, 0
2, 167532, Control_c, 0, 64, 47
2, 167547, Control_c, 0, 64, 47
2, 167572, Note_on_c, 0, 71, 78
2, 167602, Note_on_c, 0, 69, 0
2, 167608, Control_c, 0, 64, 46
2, 167624, Control_c, 0, 64, 46
2, 167655, Control_c, 0, 64, 45
2, 167669, Control_c, 0, 64, 45
2, 167698, Note_on_c, 0, 60, 87
2, 167700, Control_c, 0, 64, 44
2, 167700, Note_on_c, 0, 72, 76
2, 167709, Note_on_c, 0, 71, 0
2, 167810, Note_on_c, 0, 62, 83
2, 167818, Note_on_c, 0, 71, 77
2, 167839, Note_on_c, 0, 60, 0
2, 167958, Note_on_c, 0, 60, 88
2, 167972, Note_on_c, 0, 69, 73
2, 167983, Note_on_c, 0, 72, 0
2, 167996, Note_on_c, 0, 62, 0
2, 168027, Note_on_c, 0, 71, 0
2, 168043, Note_on_c, 0, 57, 0
2, 168048, Note_on_c, 0, 60, 0
2, 168052, Note_on_c, 0, 53, 0
2, 168056, Control_c, 0, 64, 44
2, 168066, Note_on_c, 0, 69, 0
2, 168071, Control_c, 0, 64, 43
2, 168102, Control_c, 0, 64, 42
2, 168179, Control_c, 0, 64, 43
2, 168193, Control_c, 0, 64, 45
2, 168208, Control_c, 0, 64, 50
2, 168213, Note_on_c, 0, 52, 51
2, 168224, Control_c, 0, 64, 54
2, 168226, Note_on_c, 0, 67, 76
2, 168228, Note_on_c, 0, 58, 85
2, 168232, Note_on_c, 0, 49, 65
2, 168239, Control_c, 0, 64, 57
2, 168254, Control_c, 0, 64, 60
2, 168269, Control_c, 0, 64, 63
2, 168284, Control_c, 0, 64, 67
2, 168300, Control_c, 0, 64, 73
2, 168315, Control_c, 0, 64, 79
2, 168319, Note_on_c, 0, 67, 0
2, 168331, Control_c, 0, 64, 81
2, 168332, Note_on_c, 0, 49, 0
2, 168334, Note_on_c, 0, 52, 0
2, 168340, Note_on_c, 0, 58, 0
2, 168345, Control_c, 0, 64, 79
2, 168360, Control_c, 0, 64, 76
2, 168376, Control_c, 0, 64, 71
2, 168392, Control_c, 0, 64, 66
2, 168407, Control_c, 0, 64, 63
2, 168423, Control_c, 0, 64, 61
2, 168437, Control_c, 0, 64, 59
2, 168453, Control_c, 0, 64, 57
2, 168468, Control_c, 0, 64, 55
2, 168483, Control_c, 0, 64, 52
2, 168496, Note_on_c, 0, 77, 83
2, 168498, Control_c, 0, 64, 50
2, 168501, Note_on_c, 0, 50, 66
2, 168505, Note_on_c, 0, 57, 75
2, 168511, Note_on_c, 0, 53, 67
2, 168513, Control_c, 0, 64, 49
2, 168528, Control_c, 0, 64, 49
2, 168544, Control_c, 0, 64, 48
2, 168574, Control_c, 0, 64, 48
2, 168581, Note_on_c, 0, 53, 0
2, 168594, Note_on_c, 0, 50, 0
2, 168608, Note_on_c, 0, 59, 72
2, 168610, Note_on_c, 0, 57, 0
2, 168620, Control_c, 0, 64, 47
2, 168621, Note_on_c, 0, 77, 0
2, 168635, Control_c, 0, 64, 47
2, 168665, Control_c, 0, 64, 46
2, 168680, Control_c, 0, 64, 46
2, 168703, Control_c, 0, 64, 45
2, 168718, Control_c, 0, 64, 44
2, 168734, Control_c, 0, 64, 43
2, 168752, Note_on_c, 0, 52, 56
2, 168756, Note_on_c, 0, 81, 64
2, 168760, Note_on_c, 0, 61, 77
2, 168780, Note_on_c, 0, 55, 52
2, 168781, Note_on_c, 0, 59, 0
2, 168810, Control_c, 0, 64, 45
2, 168825, Control_c, 0, 64, 47
2, 168840, Control_c, 0, 64, 49
2, 168855, Control_c, 0, 64, 50
2, 168859, Note_on_c, 0, 81, 0
2, 168868, Note_on_c, 0, 55, 0
2, 168870, Control_c, 0, 64, 52
2, 168876, Note_on_c, 0, 59, 80
2, 168879, Note_on_c, 0, 61, 0
2, 168961, Control_c, 0, 64, 51
2, 168977, Control_c, 0, 64, 51
2, 168991, Control_c, 0, 64, 50
2, 169006, Control_c, 0, 64, 48
2, 169016, Note_on_c, 0, 57, 85
2, 169019, Note_on_c, 0, 53, 77
2, 169022, Control_c, 0, 64, 46
2, 169030, Note_on_c, 0, 52, 0
2, 169037, Control_c, 0, 64, 44
2, 169043, Note_on_c, 0, 59, 0
2, 169053, Control_c, 0, 64, 41
2, 169068, Control_c, 0, 64, 39
2, 169083, Control_c, 0, 64, 38
2, 169099, Control_c, 0, 64, 37
2, 169113, Control_c, 0, 64, 37
2, 169114, Note_on_c, 0, 57, 0
2, 169120, Note_on_c, 0, 53, 0
2, 169128, Control_c, 0, 64, 36
2, 169159, Control_c, 0, 64, 36
2, 169175, Control_c, 0, 64, 35
2, 169267, Control_c, 0, 64, 36
2, 169281, Control_c, 0, 64, 39
2, 169285, Note_on_c, 0, 76, 76
2, 169288, Note_on_c, 0, 58, 81
2, 169290, Note_on_c, 0, 49, 63
2, 169296, Note_on_c, 0, 55, 74
2, 169298, Control_c, 0, 64, 43
2, 169312, Control_c, 0, 64, 48
2, 169327, Control_c, 0, 64, 54
2, 169343, Control_c, 0, 64, 60
2, 169358, Control_c, 0, 64, 65
2, 169374, Control_c, 0, 64, 72
2, 169389, Control_c, 0, 64, 87
2, 169396, Note_on_c, 0, 49, 0
2, 169404, Control_c, 0, 64, 127
2, 169414, Note_on_c, 0, 58, 0
2, 169429, Note_on_c, 0, 76, 0
2, 169431, Note_on_c, 0, 55, 0
2, 169517, Control_c, 0, 64, 102
2, 169533, Control_c, 0, 64, 80
2, 169548, Control_c, 0, 64, 68
2, 169563, Control_c, 0, 64, 61
2, 169579, Control_c, 0, 64, 54
2, 169582, Note_on_c, 0, 74, 70
2, 169584, Note_on_c, 0, 66, 79
2, 169587, Note_on_c, 0, 50, 70
2, 169589, Note_on_c, 0, 57, 78
2, 169594, Control_c, 0, 64, 51
2, 169610, Control_c, 0, 64, 49
2, 169624, Control_c, 0, 64, 46
2, 169639, Control_c, 0, 64, 42
2, 169648, Note_on_c, 0, 66, 0
2, 169655, Control_c, 0, 64, 40
2, 169670, Control_c, 0, 64, 40
2, 169685, Control_c, 0, 64, 39
2, 169701, Note_on_c, 0, 74, 0
2, 169705, Note_on_c, 0, 72, 73
2, 169715, Control_c, 0, 64, 39
2, 169731, Control_c, 0, 64, 38
2, 169745, Control_c, 0, 64, 37
2, 169760, Control_c, 0, 64, 37
2, 169811, Control_c, 0, 64, 36
2, 169845, Note_on_c, 0, 71, 81
2, 169852, Note_on_c, 0, 76, 73
2, 169857, Note_on_c, 0, 72, 0
2, 169863, Note_on_c, 0, 56, 65
2, 169932, Control_c, 0, 64, 38
2, 169947, Control_c, 0, 64, 41
2, 169962, Control_c, 0, 64, 44
2, 169968, Note_on_c, 0, 50, 0
2, 169968, Note_on_c, 0, 54, 66
2, 169975, Note_on_c, 0, 74, 72
2, 169977, Control_c, 0, 64, 46
2, 169980, Note_on_c, 0, 56, 0
2, 169992, Control_c, 0, 64, 47
2, 170003, Note_on_c, 0, 54, 0
2, 170008, Control_c, 0, 64, 48
2, 170020, Note_on_c, 0, 76, 0
2, 170023, Control_c, 0, 64, 48
2, 170072, Note_on_c, 0, 71, 0
2, 170102, Note_on_c, 0, 52, 64
2, 170107, Note_on_c, 0, 45, 67
2, 170110, Note_on_c, 0, 72, 73
2, 170124, Note_on_c, 0, 74, 0
2, 170138, Note_on_c, 0, 57, 0
2, 170145, Control_c, 0, 64, 47
2, 170161, Control_c, 0, 64, 46
2, 170176, Control_c, 0, 64, 46
2, 170191, Control_c, 0, 64, 45
2, 170192, Note_on_c, 0, 72, 0
2, 170207, Control_c, 0, 64, 44
2, 170215, Note_on_c, 0, 71, 69
2, 170222, Control_c, 0, 64, 44
2, 170245, Control_c, 0, 64, 43
2, 170260, Control_c, 0, 64, 42
2, 170274, Control_c, 0, 64, 41
2, 170290, Control_c, 0, 64, 38
2, 170305, Control_c, 0, 64, 35
2, 170321, Control_c, 0, 64, 33
2, 170336, Control_c, 0, 64, 32
2, 170347, Note_on_c, 0, 71, 0
2, 170363, Note_on_c, 0, 57, 64
2, 170366, Note_on_c, 0, 64, 66
2, 170368, Note_on_c, 0, 74, 66
2, 170381, Control_c, 0, 64, 34
2, 170387, Note_on_c, 0, 52, 0
2, 170397, Control_c, 0, 64, 41
2, 170412, Control_c, 0, 64, 49
2, 170427, Control_c, 0, 64, 54
2, 170442, Control_c, 0, 64, 56
2, 170457, Control_c, 0, 64, 57
2, 170459, Note_on_c, 0, 64, 0
2, 170472, Control_c, 0, 64, 58
2, 170474, Note_on_c, 0, 72, 69
2, 170478, Note_on_c, 0, 74, 0
2, 170488, Control_c, 0, 64, 58
2, 170518, Control_c, 0, 64, 57
2, 170533, Control_c, 0, 64, 53
2, 170548, Control_c, 0, 64, 47
2, 170564, Control_c, 0, 64, 42
2, 170579, Control_c, 0, 64, 41
2, 170593, Control_c, 0, 64, 41
2, 170598, Note_on_c, 0, 72, 0
2, 170609, Control_c, 0, 64, 44
2, 170612, Note_on_c, 0, 71, 63
2, 170616, Note_on_c, 0, 62, 66
2, 170621, Note_on_c, 0, 57, 0
2, 170624, Control_c, 0, 64, 49
2, 170627, Note_on_c, 0, 53, 62
2, 170640, Control_c, 0, 64, 55
2, 170653, Note_on_c, 0, 62, 0
2, 170655, Control_c, 0, 64, 59
2, 170669, Control_c, 0, 64, 61
2, 170681, Note_on_c, 0, 72, 27
2, 170685, Control_c, 0, 64, 62
2, 170687, Note_on_c, 0, 53, 0
2, 170701, Note_on_c, 0, 71, 0
2, 170721, Note_on_c, 0, 72, 0
2, 170739, Note_on_c, 0, 71, 19
2, 170745, Note_on_c, 0, 60, 67
2, 170761, Control_c, 0, 64, 61
2, 170776, Control_c, 0, 64, 61
2, 170791, Control_c, 0, 64, 60
2, 170806, Control_c, 0, 64, 59
2, 170821, Control_c, 0, 64, 58
2, 170831, Note_on_c, 0, 60, 0
2, 170837, Control_c, 0, 64, 55
2, 170842, Note_on_c, 0, 45, 0
2, 170852, Control_c, 0, 64, 51
2, 170861, Note_on_c, 0, 44, 58
2, 170867, Control_c, 0, 64, 46
2, 170868, Note_on_c, 0, 52, 64
2, 170881, Note_on_c, 0, 64, 66
2, 170883, Control_c, 0, 64, 40
2, 170898, Control_c, 0, 64, 36
2, 170913, Control_c, 0, 64, 35
2, 170940, Note_on_c, 0, 44, 0
2, 170943, Control_c, 0, 64, 35
2, 170952, Note_on_c, 0, 52, 0
2, 170959, Control_c, 0, 64, 39
2, 170974, Control_c, 0, 64, 47
2, 170981, Note_on_c, 0, 64, 0
2, 170988, Note_on_c, 0, 71, 0
2, 170989, Control_c, 0, 64, 52
2, 170990, Note_on_c, 0, 62, 65
2, 171012, Control_c, 0, 64, 55
2, 171026, Control_c, 0, 64, 56
2, 171042, Control_c, 0, 64, 57
2, 171072, Control_c, 0, 64, 56
2, 171088, Control_c, 0, 64, 53
2, 171103, Control_c, 0, 64, 48
2, 171108, Note_on_c, 0, 62, 0
2, 171118, Control_c, 0, 64, 45
2, 171130, Note_on_c, 0, 45, 55
2, 171130, Note_on_c, 0, 60, 61
2, 171164, Control_c, 0, 64, 47
2, 171179, Control_c, 0, 64, 50
2, 171194, Control_c, 0, 64, 54
2, 171210, Control_c, 0, 64, 57
2, 171225, Control_c, 0, 64, 59
2, 171228, Note_on_c, 0, 60, 0
2, 171240, Control_c, 0, 64, 60
2, 171252, Note_on_c, 0, 59, 57
2, 171270, Control_c, 0, 64, 61
2, 171301, Control_c, 0, 64, 60
2, 171316, Control_c, 0, 64, 59
2, 171329, Note_on_c, 0, 59, 0
2, 171331, Control_c, 0, 64, 59
2, 171346, Control_c, 0, 64, 58
2, 171372, Note_on_c, 0, 69, 63
2, 171376, Control_c, 0, 64, 58
2, 171391, Note_on_c, 0, 62, 49
2, 171407, Note_on_c, 0, 53, 44
2, 171483, Control_c, 0, 64, 58
2, 171499, Note_on_c, 0, 45, 0
2, 171500, Note_on_c, 0, 60, 58
2, 171506, Note_on_c, 0, 53, 0
2, 171510, Note_on_c, 0, 51, 53
2, 171512, Control_c, 0, 64, 59
2, 171537, Note_on_c, 0, 51, 0
2, 171552, Note_on_c, 0, 60, 0
2, 171588, Control_c, 0, 64, 58
2, 171596, Note_on_c, 0, 62, 0
2, 171604, Control_c, 0, 64, 56
2, 171619, Control_c, 0, 64, 55
2, 171634, Control_c, 0, 64, 54
2, 171641, Note_on_c, 0, 69, 0
2, 171646, Note_on_c, 0, 59, 66
2, 171650, Control_c, 0, 64, 53
2, 171653, Note_on_c, 0, 52, 64
2, 171656, Note_on_c, 0, 40, 60
2, 171665, Control_c, 0, 64, 52
2, 171681, Control_c, 0, 64, 51
2, 171696, Control_c, 0, 64, 50
2, 171703, Note_on_c, 0, 59, 0
2, 171771, Note_on_c, 0, 71, 63
2, 171871, Control_c, 0, 64, 51
2, 171910, Note_on_c, 0, 68, 71
2, 171917, Control_c, 0, 64, 51
2, 171917, Note_on_c, 0, 71, 0
2, 171926, Note_on_c, 0, 60, 54
2, 171977, Note_on_c, 0, 60, 0
2, 172030, Note_on_c, 0, 69, 74
2, 172033, Note_on_c, 0, 68, 0
2, 172167, Note_on_c, 0, 71, 72
2, 172173, Note_on_c, 0, 62, 69
2, 172200, Note_on_c, 0, 69, 0
2, 172206, Control_c, 0, 64, 51
2, 172251, Control_c, 0, 64, 50
2, 172281, Note_on_c, 0, 62, 0
2, 172283, Note_on_c, 0, 60, 74
2, 172419, Note_on_c, 0, 64, 70
2, 172422, Note_on_c, 0, 60, 0
2, 172463, Control_c, 0, 64, 51
2, 172479, Control_c, 0, 64, 51
2, 172495, Control_c, 0, 64, 52
2, 172509, Control_c, 0, 64, 53
2, 172525, Control_c, 0, 64, 53
2, 172548, Control_c, 0, 64, 54
2, 172553, Note_on_c, 0, 62, 72
2, 172561, Note_on_c, 0, 64, 0
2, 172564, Control_c, 0, 64, 55
2, 172579, Control_c, 0, 64, 55
2, 172593, Control_c, 0, 64, 56
2, 172678, Note_on_c, 0, 62, 0
2, 172686, Note_on_c, 0, 60, 77
2, 172694, Note_on_c, 0, 71, 0
2, 172745, Control_c, 0, 64, 55
2, 172745, Note_on_c, 0, 60, 0
2, 172776, Control_c, 0, 64, 55
2, 172802, Note_on_c, 0, 72, 82
2, 172931, Note_on_c, 0, 69, 82
2, 172945, Note_on_c, 0, 62, 67
2, 172949, Note_on_c, 0, 72, 0
2, 173034, Control_c, 0, 64, 55
2, 173040, Note_on_c, 0, 62, 0
2, 173044, Note_on_c, 0, 71, 84
2, 173085, Note_on_c, 0, 69, 0
2, 173172, Note_on_c, 0, 72, 82
2, 173178, Note_on_c, 0, 64, 75
2, 173226, Note_on_c, 0, 71, 0
2, 173295, Note_on_c, 0, 62, 82
2, 173319, Note_on_c, 0, 64, 0
2, 173392, Control_c, 0, 64, 55
2, 173439, Note_on_c, 0, 65, 80
2, 173460, Note_on_c, 0, 62, 0
2, 173469, Control_c, 0, 64, 54
2, 173499, Control_c, 0, 64, 54
2, 173558, Note_on_c, 0, 64, 83
2, 173600, Note_on_c, 0, 65, 0
2, 173651, Control_c, 0, 64, 54
2, 173690, Note_on_c, 0, 62, 83
2, 173695, Note_on_c, 0, 64, 0
2, 173714, Note_on_c, 0, 72, 0
2, 173761, Note_on_c, 0, 62, 0
2, 173811, Note_on_c, 0, 74, 84
2, 173935, Note_on_c, 0, 71, 83
2, 173940, Note_on_c, 0, 64, 77
2, 173961, Note_on_c, 0, 74, 0
2, 173985, Control_c, 0, 64, 55
2, 174051, Note_on_c, 0, 72, 87
2, 174060, Note_on_c, 0, 64, 0
2, 174061, Control_c, 0, 64, 55
2, 174120, Note_on_c, 0, 71, 0
2, 174202, Note_on_c, 0, 74, 86
2, 174206, Note_on_c, 0, 65, 77
2, 174240, Note_on_c, 0, 72, 0
2, 174252, Control_c, 0, 64, 55
2, 174267, Control_c, 0, 64, 54
2, 174297, Control_c, 0, 64, 54
2, 174334, Note_on_c, 0, 72, 82
2, 174359, Control_c, 0, 64, 55
2, 174374, Control_c, 0, 64, 56
2, 174389, Control_c, 0, 64, 57
2, 174405, Control_c, 0, 64, 59
2, 174419, Control_c, 0, 64, 61
2, 174434, Control_c, 0, 64, 63
2, 174450, Control_c, 0, 64, 65
2, 174465, Control_c, 0, 64, 69
2, 174466, Note_on_c, 0, 71, 81
2, 174481, Control_c, 0, 64, 74
2, 174495, Control_c, 0, 64, 82
2, 174502, Note_on_c, 0, 74, 0
2, 174507, Note_on_c, 0, 40, 0
2, 174510, Control_c, 0, 64, 95
2, 174526, Control_c, 0, 64, 121
2, 174540, Control_c, 0, 64, 127
2, 174588, Note_on_c, 0, 69, 84
2, 174602, Note_on_c, 0, 52, 0
2, 174612, Note_on_c, 0, 72, 0
2, 174618, Note_on_c, 0, 71, 0
2, 174653, Note_on_c, 0, 69, 0
2, 174692, Control_c, 0, 64, 100
2, 174707, Control_c, 0, 64, 82
2, 174713, Note_on_c, 0, 68, 82
2, 174723, Control_c, 0, 64, 71
2, 174737, Control_c, 0, 64, 64
2, 174752, Control_c, 0, 64, 59
2, 174768, Control_c, 0, 64, 54
2, 174783, Control_c, 0, 64, 51
2, 174799, Control_c, 0, 64, 48
2, 174813, Control_c, 0, 64, 46
2, 174828, Control_c, 0, 64, 45
2, 174828, Note_on_c, 0, 68, 0
2, 174851, Control_c, 0, 64, 44
2, 174851, Note_on_c, 0, 71, 81
2, 174927, Control_c, 0, 64, 45
2, 174942, Control_c, 0, 64, 45
2, 174959, Control_c, 0, 64, 47
2, 174967, Note_on_c, 0, 72, 82
2, 174974, Control_c, 0, 64, 49
2, 174975, Note_on_c, 0, 52, 81
2, 174988, Control_c, 0, 64, 52
2, 175004, Control_c, 0, 64, 55
2, 175004, Note_on_c, 0, 71, 0
2, 175019, Control_c, 0, 64, 58
2, 175034, Control_c, 0, 64, 61
2, 175050, Control_c, 0, 64, 63
2, 175065, Control_c, 0, 64, 64
2, 175080, Control_c, 0, 64, 67
2, 175092, Note_on_c, 0, 74, 79
2, 175094, Note_on_c, 0, 53, 85
2, 175095, Control_c, 0, 64, 69
2, 175110, Control_c, 0, 64, 71
2, 175110, Note_on_c, 0, 65, 0
2, 175117, Note_on_c, 0, 52, 0
2, 175120, Note_on_c, 0, 72, 0
2, 175126, Control_c, 0, 64, 71
2, 175141, Control_c, 0, 64, 70
2, 175157, Control_c, 0, 64, 69
2, 175172, Control_c, 0, 64, 67
2, 175174, Note_on_c, 0, 74, 0
2, 175186, Control_c, 0, 64, 65
2, 175202, Control_c, 0, 64, 63
2, 175217, Control_c, 0, 64, 62
2, 175219, Note_on_c, 0, 52, 84
2, 175224, Note_on_c, 0, 76, 87
2, 175232, Control_c, 0, 64, 61
2, 175247, Note_on_c, 0, 53, 0
2, 175248, Control_c, 0, 64, 59
2, 175262, Control_c, 0, 64, 58
2, 175278, Control_c, 0, 64, 56
2, 175293, Control_c, 0, 64, 55
2, 175307, Control_c, 0, 64, 55
2, 175323, Control_c, 0, 64, 54
2, 175330, Note_on_c, 0, 52, 0
2, 175335, Note_on_c, 0, 77, 88
2, 175338, Control_c, 0, 64, 53
2, 175353, Control_c, 0, 64, 52
2, 175369, Control_c, 0, 64, 52
2, 175369, Note_on_c, 0, 76, 0
2, 175383, Control_c, 0, 64, 51
2, 175399, Control_c, 0, 64, 51
2, 175470, Note_on_c, 0, 50, 79
2, 175471, Note_on_c, 0, 79, 82
2, 175505, Note_on_c, 0, 77, 0
2, 175575, Note_on_c, 0, 50, 0
2, 175582, Note_on_c, 0, 70, 83
2, 175619, Control_c, 0, 64, 51
2, 175634, Control_c, 0, 64, 52
2, 175650, Control_c, 0, 64, 52
2, 175664, Control_c, 0, 64, 53
2, 175665, Note_on_c, 0, 70, 0
2, 175680, Control_c, 0, 64, 54
2, 175695, Control_c, 0, 64, 54
2, 175709, Note_on_c, 0, 79, 0
2, 175710, Control_c, 0, 64, 55
2, 175729, Note_on_c, 0, 69, 79
2, 175733, Note_on_c, 0, 49, 86
2, 175817, Control_c, 0, 64, 55
2, 175836, Note_on_c, 0, 49, 0
2, 175853, Note_on_c, 0, 81, 82
2, 175863, Control_c, 0, 64, 56
2, 175893, Control_c, 0, 64, 56
2, 175970, Control_c, 0, 64, 57
2, 175982, Note_on_c, 0, 49, 72
2, 175982, Note_on_c, 0, 79, 76
2, 175989, Note_on_c, 0, 52, 79
2, 176016, Control_c, 0, 64, 57
2, 176051, Note_on_c, 0, 81, 0
2, 176061, Control_c, 0, 64, 58
2, 176089, Note_on_c, 0, 50, 81
2, 176107, Note_on_c, 0, 77, 80
2, 176118, Note_on_c, 0, 52, 0
2, 176129, Note_on_c, 0, 49, 0
2, 176134, Note_on_c, 0, 53, 49
2, 176137, Control_c, 0, 64, 58
2, 176145, Note_on_c, 0, 79, 0
2, 176163, Note_on_c, 0, 53, 0
2, 176231, Note_on_c, 0, 52, 87
2, 176234, Note_on_c, 0, 49, 82
2, 176239, Note_on_c, 0, 77, 0
2, 176239, Note_on_c, 0, 79, 85
2, 176273, Control_c, 0, 64, 59
2, 176278, Note_on_c, 0, 50, 0
2, 176335, Note_on_c, 0, 52, 0
2, 176349, Control_c, 0, 64, 59
2, 176359, Note_on_c, 0, 73, 75
2, 176364, Note_on_c, 0, 49, 0
2, 176387, Control_c, 0, 64, 60
2, 176402, Note_on_c, 0, 69, 0
2, 176463, Control_c, 0, 64, 60
2, 176490, Note_on_c, 0, 76, 78
2, 176493, Note_on_c, 0, 50, 85
2, 176496, Note_on_c, 0, 47, 82
2, 176502, Note_on_c, 0, 73, 0
2, 176590, Note_on_c, 0, 47, 0
2, 176597, Note_on_c, 0, 50, 0
2, 176609, Note_on_c, 0, 76, 0
2, 176611, Note_on_c, 0, 74, 75
2, 176631, Control_c, 0, 64, 60
2, 176647, Control_c, 0, 64, 59
2, 176661, Control_c, 0, 64, 59
2, 176677, Control_c, 0, 64, 58
2, 176692, Control_c, 0, 64, 57
2, 176707, Control_c, 0, 64, 56
2, 176736, Note_on_c, 0, 45, 72
2, 176737, Control_c, 0, 64, 56
2, 176747, Note_on_c, 0, 76, 80
2, 176751, Note_on_c, 0, 49, 76
2, 176768, Note_on_c, 0, 74, 0
2, 176850, Note_on_c, 0, 46, 76
2, 176859, Note_on_c, 0, 77, 81
2, 176865, Note_on_c, 0, 76, 0
2, 176889, Note_on_c, 0, 45, 0
2, 176893, Note_on_c, 0, 49, 0
2, 176905, Note_on_c, 0, 47, 73
2, 176990, Note_on_c, 0, 49, 82
2, 176991, Note_on_c, 0, 76, 80
2, 177007, Note_on_c, 0, 46, 0
2, 177011, Note_on_c, 0, 47, 0
2, 177024, Note_on_c, 0, 77, 0
2, 177052, Note_on_c, 0, 79, 0
2, 177102, Note_on_c, 0, 47, 80
2, 177102, Note_on_c, 0, 50, 78
2, 177111, Note_on_c, 0, 77, 87
2, 177125, Note_on_c, 0, 49, 0
2, 177125, Note_on_c, 0, 76, 0
2, 177132, Control_c, 0, 64, 56
2, 177230, Control_c, 0, 64, 56
2, 177234, Note_on_c, 0, 45, 84
2, 177240, Note_on_c, 0, 49, 89
2, 177241, Note_on_c, 0, 79, 83
2, 177250, Note_on_c, 0, 77, 0
2, 177262, Note_on_c, 0, 50, 0
2, 177266, Note_on_c, 0, 47, 0
2, 177276, Control_c, 0, 64, 55
2, 177291, Control_c, 0, 64, 54
2, 177306, Control_c, 0, 64, 52
2, 177322, Control_c, 0, 64, 48
2, 177327, Note_on_c, 0, 45, 0
2, 177336, Control_c, 0, 64, 45
2, 177342, Note_on_c, 0, 49, 0
2, 177351, Control_c, 0, 64, 39
2, 177363, Note_on_c, 0, 69, 82
2, 177367, Control_c, 0, 64, 28
2, 177382, Control_c, 0, 64, 0
2, 177490, Control_c, 0, 64, 25
2, 177490, Note_on_c, 0, 43, 69
2, 177495, Note_on_c, 0, 46, 86
2, 177498, Note_on_c, 0, 69, 0
2, 177500, Note_on_c, 0, 73, 77
2, 177504, Control_c, 0, 64, 43
2, 177520, Control_c, 0, 64, 50
2, 177535, Control_c, 0, 64, 54
2, 177572, Note_on_c, 0, 73, 0
2, 177572, Note_on_c, 0, 79, 0
2, 177578, Note_on_c, 0, 43, 0
2, 177581, Control_c, 0, 64, 54
2, 177587, Note_on_c, 0, 46, 0
2, 177622, Note_on_c, 0, 74, 82
2, 177703, Control_c, 0, 64, 54
2, 177733, Control_c, 0, 64, 53
2, 177748, Control_c, 0, 64, 50
2, 177749, Note_on_c, 0, 74, 0
2, 177763, Control_c, 0, 64, 46
2, 177778, Control_c, 0, 64, 39
2, 177780, Note_on_c, 0, 76, 78
2, 177781, Note_on_c, 0, 41, 73
2, 177789, Note_on_c, 0, 45, 78
2, 177793, Control_c, 0, 64, 32
2, 177809, Control_c, 0, 64, 28
2, 177824, Control_c, 0, 64, 28
2, 177839, Control_c, 0, 64, 28
2, 177854, Control_c, 0, 64, 35
2, 177869, Control_c, 0, 64, 45
2, 177883, Note_on_c, 0, 76, 0
2, 177885, Control_c, 0, 64, 53
2, 177900, Control_c, 0, 64, 58
2, 177923, Control_c, 0, 64, 62
2, 177930, Note_on_c, 0, 82, 80
2, 177936, Note_on_c, 0, 73, 72
2, 177938, Control_c, 0, 64, 64
2, 177953, Control_c, 0, 64, 67
2, 177969, Control_c, 0, 64, 72
2, 177971, Note_on_c, 0, 73, 0
2, 177983, Control_c, 0, 64, 80
2, 177993, Note_on_c, 0, 82, 0
2, 177999, Control_c, 0, 64, 85
2, 178014, Control_c, 0, 64, 84
2, 178029, Control_c, 0, 64, 80
2, 178044, Control_c, 0, 64, 72
2, 178058, Note_on_c, 0, 81, 74
2, 178059, Control_c, 0, 64, 64
2, 178074, Control_c, 0, 64, 54
2, 178076, Note_on_c, 0, 74, 65
2, 178090, Control_c, 0, 64, 42
2, 178105, Control_c, 0, 64, 39
2, 178121, Note_on_c, 0, 74, 0
2, 178135, Control_c, 0, 64, 38
2, 178150, Control_c, 0, 64, 39
2, 178166, Control_c, 0, 64, 40
2, 178180, Control_c, 0, 64, 46
2, 178189, Note_on_c, 0, 79, 79
2, 178196, Control_c, 0, 64, 52
2, 178211, Control_c, 0, 64, 56
2, 178211, Note_on_c, 0, 41, 0
2, 178227, Control_c, 0, 64, 59
2, 178243, Control_c, 0, 64, 62
2, 178254, Note_on_c, 0, 45, 0
2, 178258, Control_c, 0, 64, 64
2, 178272, Control_c, 0, 64, 68
2, 178287, Note_on_c, 0, 81, 0
2, 178288, Control_c, 0, 64, 77
2, 178303, Control_c, 0, 64, 99
2, 178319, Control_c, 0, 64, 127
2, 178330, Note_on_c, 0, 77, 88
2, 178364, Note_on_c, 0, 79, 0
2, 178427, Note_on_c, 0, 77, 0
2, 178428, Note_on_c, 0, 76, 84
2, 178481, Note_on_c, 0, 76, 0
2, 178517, Control_c, 0, 64, 118
2, 178532, Control_c, 0, 64, 94
2, 178546, Note_on_c, 0, 53, 44
2, 178547, Control_c, 0, 64, 82
2, 178557, Note_on_c, 0, 65, 72
2, 178557, Note_on_c, 0, 74, 79
2, 178559, Note_on_c, 0, 69, 80
2, 178562, Control_c, 0, 64, 76
2, 178577, Control_c, 0, 64, 73
2, 178578, Note_on_c, 0, 53, 0
2, 178592, Control_c, 0, 64, 71
2, 178607, Control_c, 0, 64, 68
2, 178620, Note_on_c, 0, 69, 0
2, 178622, Control_c, 0, 64, 65
2, 178638, Control_c, 0, 64, 61
2, 178642, Note_on_c, 0, 65, 0
2, 178648, Note_on_c, 0, 74, 0
2, 178653, Control_c, 0, 64, 58
2, 178664, Note_on_c, 0, 64, 79
2, 178669, Note_on_c, 0, 73, 75
2, 178674, Note_on_c, 0, 67, 73
2, 178706, Control_c, 0, 64, 57
2, 178730, Note_on_c, 0, 67, 0
2, 178737, Control_c, 0, 64, 57
2, 178752, Control_c, 0, 64, 56
2, 178776, Note_on_c, 0, 73, 0
2, 178798, Control_c, 0, 64, 56
2, 178810, Note_on_c, 0, 62, 76
2, 178810, Note_on_c, 0, 74, 74
2, 178813, Control_c, 0, 64, 55
2, 178813, Note_on_c, 0, 58, 72
2, 178815, Note_on_c, 0, 65, 79
2, 178818, Note_on_c, 0, 64, 0
2, 178827, Control_c, 0, 64, 54
2, 178873, Control_c, 0, 64, 54
2, 178889, Control_c, 0, 64, 53
2, 178903, Control_c, 0, 64, 53
2, 178919, Control_c, 0, 64, 52
2, 178934, Control_c, 0, 64, 51
2, 178935, Note_on_c, 0, 74, 0
2, 178935, Note_on_c, 0, 76, 80
2, 178949, Control_c, 0, 64, 50
2, 178965, Control_c, 0, 64, 49
2, 178979, Control_c, 0, 64, 48
2, 178994, Control_c, 0, 64, 46
2, 179010, Control_c, 0, 64, 42
2, 179024, Control_c, 0, 64, 39
2, 179041, Control_c, 0, 64, 37
2, 179061, Note_on_c, 0, 74, 80
2, 179074, Note_on_c, 0, 55, 75
2, 179077, Note_on_c, 0, 70, 77
2, 179087, Control_c, 0, 64, 38
2, 179098, Note_on_c, 0, 76, 0
2, 179102, Control_c, 0, 64, 44
2, 179103, Note_on_c, 0, 58, 0
2, 179118, Control_c, 0, 64, 49
2, 179118, Note_on_c, 0, 65, 0
2, 179132, Control_c, 0, 64, 54
2, 179147, Control_c, 0, 64, 58
2, 179163, Control_c, 0, 64, 61
2, 179178, Control_c, 0, 64, 63
2, 179192, Control_c, 0, 64, 66
2, 179202, Note_on_c, 0, 74, 0
2, 179205, Note_on_c, 0, 76, 84
2, 179208, Control_c, 0, 64, 69
2, 179223, Control_c, 0, 64, 75
2, 179239, Control_c, 0, 64, 83
2, 179253, Control_c, 0, 64, 90
2, 179268, Control_c, 0, 64, 95
2, 179284, Control_c, 0, 64, 96
2, 179299, Control_c, 0, 64, 95
2, 179301, Note_on_c, 0, 76, 0
2, 179330, Control_c, 0, 64, 95
2, 179345, Control_c, 0, 64, 94
2, 179361, Control_c, 0, 64, 91
2, 179376, Control_c, 0, 64, 86
2, 179382, Note_on_c, 0, 76, 83
2, 179388, Note_on_c, 0, 57, 70
2, 179391, Control_c, 0, 64, 75
2, 179398, Note_on_c, 0, 69, 68
2, 179406, Control_c, 0, 64, 66
2, 179421, Control_c, 0, 64, 58
2, 179424, Note_on_c, 0, 55, 0
2, 179437, Control_c, 0, 64, 47
2, 179441, Note_on_c, 0, 70, 0
2, 179458, Control_c, 0, 64, 43
2, 179473, Control_c, 0, 64, 40
2, 179489, Control_c, 0, 64, 35
2, 179504, Control_c, 0, 64, 25
2, 179520, Control_c, 0, 64, 16
2, 179535, Control_c, 0, 64, 11
2, 179656, Control_c, 0, 64, 13
2, 179671, Control_c, 0, 64, 22
2, 179687, Control_c, 0, 64, 30
2, 179702, Control_c, 0, 64, 39
2, 179718, Control_c, 0, 64, 47
2, 179732, Control_c, 0, 64, 52
2, 179747, Control_c, 0, 64, 57
2, 179763, Control_c, 0, 64, 60
2, 179768, Note_on_c, 0, 67, 69
2, 179770, Note_on_c, 0, 61, 59
2, 179778, Control_c, 0, 64, 63
2, 179788, Note_on_c, 0, 57, 0
2, 179793, Control_c, 0, 64, 65
2, 179798, Note_on_c, 0, 76, 0
2, 179808, Control_c, 0, 64, 68
2, 179817, Note_on_c, 0, 69, 0
2, 179823, Control_c, 0, 64, 72
2, 179838, Note_on_c, 0, 61, 0
2, 179839, Control_c, 0, 64, 77
2, 179854, Control_c, 0, 64, 79
2, 179870, Control_c, 0, 64, 79
2, 179886, Control_c, 0, 64, 78
2, 179897, Note_on_c, 0, 62, 0
2, 179900, Control_c, 0, 64, 77
2, 179915, Control_c, 0, 64, 77
2, 179917, Note_on_c, 0, 74, 71
2, 179946, Control_c, 0, 64, 75
2, 179961, Control_c, 0, 64, 73
2, 179976, Control_c, 0, 64, 70
2, 179990, Note_on_c, 0, 74, 0
2, 179991, Control_c, 0, 64, 69
2, 180007, Control_c, 0, 64, 68
2, 180022, Control_c, 0, 64, 67
2, 180037, Control_c, 0, 64, 66
2, 180052, Control_c, 0, 64, 64
2, 180067, Control_c, 0, 64, 62
2, 180083, Control_c, 0, 64, 59
2, 180097, Control_c, 0, 64, 56
2, 180112, Control_c, 0, 64, 52
2, 180114, Note_on_c, 0, 74, 74
2, 180118, Note_on_c, 0, 62, 65
2, 180119, Note_on_c, 0, 50, 61
2, 180128, Control_c, 0, 64, 47
2, 180143, Control_c, 0, 64, 43
2, 180155, Note_on_c, 0, 67, 0
2, 180159, Control_c, 0, 64, 40
2, 180174, Control_c, 0, 64, 38
2, 180189, Control_c, 0, 64, 38
2, 180192, Note_on_c, 0, 62, 0
2, 180227, Note_on_c, 0, 50, 0
2, 180461, Note_on_c, 0, 57, 67
2, 180462, Note_on_c, 0, 50, 64
2, 180470, Note_on_c, 0, 65, 58
2, 180578, Note_on_c, 0, 49, 72
2, 180580, Note_on_c, 0, 64, 69
2, 180587, Note_on_c, 0, 65, 0
2, 180601, Note_on_c, 0, 50, 0
2, 180720, Note_on_c, 0, 50, 84
2, 180730, Note_on_c, 0, 65, 73
2, 180754, Note_on_c, 0, 49, 0
2, 180757, Note_on_c, 0, 64, 0
2, 180838, Note_on_c, 0, 50, 0
2, 180850, Note_on_c, 0, 67, 75
2, 180861, Note_on_c, 0, 65, 0
2, 180993, Note_on_c, 0, 52, 88
2, 181000, Note_on_c, 0, 69, 74
2, 181034, Note_on_c, 0, 67, 0
2, 181086, Control_c, 0, 64, 34
2, 181100, Control_c, 0, 64, 18
2, 181100, Note_on_c, 0, 52, 0
2, 181115, Control_c, 0, 64, 0
2, 181119, Note_on_c, 0, 65, 75
2, 181202, Note_on_c, 0, 69, 0
2, 181241, Note_on_c, 0, 74, 0
2, 181265, Note_on_c, 0, 53, 89
2, 181266, Control_c, 0, 64, 9
2, 181269, Note_on_c, 0, 62, 79
2, 181281, Control_c, 0, 64, 35
2, 181297, Control_c, 0, 64, 50
2, 181312, Control_c, 0, 64, 57
2, 181326, Note_on_c, 0, 65, 0
2, 181328, Control_c, 0, 64, 61
2, 181342, Control_c, 0, 64, 63
2, 181351, Note_on_c, 0, 57, 0
2, 181357, Control_c, 0, 64, 65
2, 181359, Note_on_c, 0, 62, 0
2, 181373, Control_c, 0, 64, 66
2, 181386, Note_on_c, 0, 53, 0
2, 181388, Control_c, 0, 64, 65
2, 181404, Control_c, 0, 64, 65
2, 181419, Control_c, 0, 64, 63
2, 181434, Control_c, 0, 64, 61
2, 181450, Control_c, 0, 64, 58
2, 181465, Control_c, 0, 64, 55
2, 181479, Control_c, 0, 64, 51
2, 181496, Control_c, 0, 64, 48
2, 181511, Control_c, 0, 64, 45
2, 181526, Control_c, 0, 64, 42
2, 181541, Control_c, 0, 64, 40
2, 181553, Note_on_c, 0, 53, 78
2, 181556, Control_c, 0, 64, 39
2, 181556, Note_on_c, 0, 57, 80
2, 181572, Control_c, 0, 64, 38
2, 181586, Control_c, 0, 64, 37
2, 181601, Control_c, 0, 64, 36
2, 181617, Control_c, 0, 64, 36
2, 181632, Control_c, 0, 64, 35
2, 181659, Note_on_c, 0, 52, 78
2, 181663, Note_on_c, 0, 53, 0
2, 181664, Note_on_c, 0, 56, 81
2, 181697, Note_on_c, 0, 57, 0
2, 181812, Note_on_c, 0, 57, 88
2, 181816, Note_on_c, 0, 54, 93
2, 181861, Note_on_c, 0, 52, 0
2, 181865, Note_on_c, 0, 56, 0
2, 181939, Note_on_c, 0, 57, 0
2, 181961, Note_on_c, 0, 54, 0
2, 182084, Note_on_c, 0, 59, 86
2, 182088, Note_on_c, 0, 56, 91
2, 182171, Control_c, 0, 64, 36
2, 182198, Note_on_c, 0, 59, 0
2, 182201, Control_c, 0, 64, 36
2, 182217, Control_c, 0, 64, 37
2, 182224, Note_on_c, 0, 56, 0
2, 182248, Control_c, 0, 64, 37
2, 182277, Control_c, 0, 64, 38
2, 182346, Note_on_c, 0, 60, 84
2, 182360, Note_on_c, 0, 57, 86
2, 182446, Control_c, 0, 64, 39
2, 182461, Control_c, 0, 64, 39
2, 182469, Note_on_c, 0, 56, 82
2, 182471, Note_on_c, 0, 60, 0
2, 182476, Control_c, 0, 64, 40
2, 182491, Control_c, 0, 64, 41
2, 182493, Note_on_c, 0, 57, 0
2, 182529, Control_c, 0, 64, 41
2, 182575, Control_c, 0, 64, 42
2, 182612, Note_on_c, 0, 54, 83
2, 182612, Note_on_c, 0, 60, 73
2, 182644, Note_on_c, 0, 56, 0
2, 182712, Note_on_c, 0, 59, 84
2, 182716, Note_on_c, 0, 56, 88
2, 182718, Note_on_c, 0, 60, 0
2, 182771, Note_on_c, 0, 54, 0
2, 182860, Note_on_c, 0, 60, 90
2, 182862, Note_on_c, 0, 57, 91
2, 182887, Note_on_c, 0, 59, 0
2, 182913, Note_on_c, 0, 56, 0
2, 182988, Note_on_c, 0, 60, 0
2, 183015, Note_on_c, 0, 57, 0
2, 183146, Note_on_c, 0, 62, 86
2, 183152, Control_c, 0, 64, 44
2, 183154, Note_on_c, 0, 59, 95
2, 183168, Control_c, 0, 64, 49
2, 183183, Control_c, 0, 64, 53
2, 183198, Control_c, 0, 64, 56
2, 183214, Control_c, 0, 64, 58
2, 183229, Control_c, 0, 64, 58
2, 183263, Note_on_c, 0, 62, 0
2, 183266, Note_on_c, 0, 59, 0
2, 183312, Control_c, 0, 64, 58
2, 183328, Control_c, 0, 64, 57
2, 183342, Control_c, 0, 64, 56
2, 183357, Control_c, 0, 64, 56
2, 183373, Control_c, 0, 64, 55
2, 183388, Control_c, 0, 64, 55
2, 183402, Control_c, 0, 64, 54
2, 183418, Control_c, 0, 64, 54
2, 183430, Note_on_c, 0, 64, 79
2, 183435, Note_on_c, 0, 48, 87
2, 183449, Control_c, 0, 64, 53
2, 183464, Control_c, 0, 64, 53
2, 183549, Note_on_c, 0, 62, 77
2, 183568, Note_on_c, 0, 48, 0
2, 183570, Note_on_c, 0, 64, 0
2, 183681, Note_on_c, 0, 60, 77
2, 183690, Note_on_c, 0, 45, 72
2, 183707, Note_on_c, 0, 62, 0
2, 183805, Note_on_c, 0, 62, 87
2, 183834, Note_on_c, 0, 60, 0
2, 183847, Note_on_c, 0, 45, 0
2, 183949, Note_on_c, 0, 64, 88
2, 183981, Control_c, 0, 64, 52
2, 183996, Control_c, 0, 64, 52
2, 184005, Note_on_c, 0, 62, 0
2, 184012, Control_c, 0, 64, 51
2, 184027, Control_c, 0, 64, 51
2, 184042, Control_c, 0, 64, 50
2, 184065, Control_c, 0, 64, 50
2, 184106, Note_on_c, 0, 64, 0
2, 184126, Control_c, 0, 64, 49
2, 184217, Control_c, 0, 64, 50
2, 184232, Control_c, 0, 64, 52
2, 184240, Note_on_c, 0, 65, 83
2, 184244, Note_on_c, 0, 50, 80
2, 184247, Control_c, 0, 64, 55
2, 184262, Control_c, 0, 64, 59
2, 184277, Control_c, 0, 64, 62
2, 184293, Control_c, 0, 64, 65
2, 184308, Control_c, 0, 64, 69
2, 184324, Control_c, 0, 64, 78
2, 184326, Note_on_c, 0, 65, 0
2, 184339, Control_c, 0, 64, 94
2, 184354, Control_c, 0, 64, 123
2, 184368, Note_on_c, 0, 50, 0
2, 184369, Control_c, 0, 64, 114
2, 184384, Control_c, 0, 64, 100
2, 184399, Control_c, 0, 64, 87
2, 184415, Control_c, 0, 64, 78
2, 184430, Control_c, 0, 64, 72
2, 184445, Control_c, 0, 64, 67
2, 184460, Control_c, 0, 64, 64
2, 184475, Control_c, 0, 64, 60
2, 184491, Control_c, 0, 64, 56
2, 184506, Control_c, 0, 64, 51
2, 184512, Note_on_c, 0, 56, 82
2, 184516, Note_on_c, 0, 52, 71
2, 184520, Control_c, 0, 64, 47
2, 184536, Control_c, 0, 64, 43
2, 184551, Control_c, 0, 64, 40
2, 184566, Control_c, 0, 64, 37
2, 184581, Control_c, 0, 64, 35
2, 184596, Control_c, 0, 64, 33
2, 184612, Control_c, 0, 64, 32
2, 184625, Note_on_c, 0, 53, 71
2, 184626, Note_on_c, 0, 52, 0
2, 184627, Control_c, 0, 64, 31
2, 184642, Control_c, 0, 64, 30
2, 184670, Note_on_c, 0, 56, 0
2, 184725, Note_on_c, 0, 53, 0
2, 184764, Note_on_c, 0, 50, 72
2, 184773, Note_on_c, 0, 52, 71
2, 184781, Control_c, 0, 64, 32
2, 184796, Control_c, 0, 64, 33
2, 184812, Control_c, 0, 64, 34
2, 184813, Note_on_c, 0, 52, 0
2, 184834, Control_c, 0, 64, 36
2, 184849, Control_c, 0, 64, 37
2, 184864, Control_c, 0, 64, 38
2, 184879, Control_c, 0, 64, 38
2, 184890, Note_on_c, 0, 52, 78
2, 184895, Control_c, 0, 64, 39
2, 184910, Control_c, 0, 64, 39
2, 184910, Note_on_c, 0, 50, 0
2, 184926, Control_c, 0, 64, 40
2, 184971, Control_c, 0, 64, 40
2, 185020, Note_on_c, 0, 53, 84
2, 185023, Note_on_c, 0, 52, 0
2, 185062, Control_c, 0, 64, 40
2, 185077, Control_c, 0, 64, 40
2, 185137, Note_on_c, 0, 55, 79
2, 185152, Note_on_c, 0, 53, 0
2, 185153, Control_c, 0, 64, 41
2, 185168, Control_c, 0, 64, 43
2, 185183, Control_c, 0, 64, 46
2, 185198, Control_c, 0, 64, 49
2, 185213, Control_c, 0, 64, 53
2, 185228, Control_c, 0, 64, 55
2, 185244, Control_c, 0, 64, 55
2, 185264, Note_on_c, 0, 57, 73
2, 185265, Note_on_c, 0, 52, 78
2, 185282, Note_on_c, 0, 55, 0
2, 185342, Note_on_c, 0, 57, 0
2, 185372, Note_on_c, 0, 54, 89
2, 185420, Note_on_c, 0, 52, 0
2, 185456, Control_c, 0, 64, 55
2, 185487, Control_c, 0, 64, 54
2, 185501, Control_c, 0, 64, 54
2, 185516, Control_c, 0, 64, 53
2, 185521, Note_on_c, 0, 55, 80
2, 185530, Note_on_c, 0, 59, 70
2, 185532, Control_c, 0, 64, 52
2, 185547, Control_c, 0, 64, 52
2, 185558, Note_on_c, 0, 54, 0
2, 185562, Control_c, 0, 64, 51
2, 185577, Control_c, 0, 64, 51
2, 185632, Control_c, 0, 64, 50
2, 185652, Note_on_c, 0, 55, 0
2, 185660, Note_on_c, 0, 60, 64
2, 185677, Note_on_c, 0, 59, 0
2, 185779, Note_on_c, 0, 60, 0
2, 185796, Note_on_c, 0, 53, 71
2, 185802, Note_on_c, 0, 57, 62
2, 185814, Control_c, 0, 64, 50
2, 185903, Note_on_c, 0, 53, 0
2, 185918, Note_on_c, 0, 59, 70
2, 185926, Note_on_c, 0, 57, 0
2, 186053, Note_on_c, 0, 52, 75
2, 186054, Note_on_c, 0, 60, 77
2, 186072, Control_c, 0, 64, 50
2, 186073, Note_on_c, 0, 59, 0
2, 186118, Control_c, 0, 64, 51
2, 186160, Note_on_c, 0, 52, 0
2, 186164, Control_c, 0, 64, 51
2, 186173, Note_on_c, 0, 62, 75
2, 186191, Note_on_c, 0, 60, 0
2, 186303, Note_on_c, 0, 57, 76
2, 186305, Note_on_c, 0, 59, 75
2, 186307, Note_on_c, 0, 62, 0
2, 186369, Control_c, 0, 64, 51
2, 186384, Control_c, 0, 64, 50
2, 186399, Control_c, 0, 64, 49
2, 186415, Control_c, 0, 64, 47
2, 186426, Note_on_c, 0, 61, 73
2, 186430, Control_c, 0, 64, 43
2, 186445, Control_c, 0, 64, 33
2, 186449, Note_on_c, 0, 57, 0
2, 186460, Control_c, 0, 64, 22
2, 186475, Control_c, 0, 64, 9
2, 186481, Note_on_c, 0, 59, 0
2, 186491, Control_c, 0, 64, 0
2, 186581, Note_on_c, 0, 62, 71
2, 186582, Control_c, 0, 64, 19
2, 186586, Note_on_c, 0, 50, 69
2, 186597, Control_c, 0, 64, 40
2, 186613, Control_c, 0, 64, 53
2, 186618, Note_on_c, 0, 61, 0
2, 186628, Control_c, 0, 64, 60
2, 186642, Control_c, 0, 64, 64
2, 186654, Note_on_c, 0, 62, 0
2, 186658, Control_c, 0, 64, 66
2, 186666, Note_on_c, 0, 50, 0
2, 186673, Control_c, 0, 64, 70
2, 186689, Control_c, 0, 64, 74
2, 186703, Control_c, 0, 64, 77
2, 186734, Control_c, 0, 64, 76
2, 186749, Control_c, 0, 64, 74
2, 186765, Control_c, 0, 64, 72
2, 186779, Control_c, 0, 64, 70
2, 186794, Control_c, 0, 64, 68
2, 186810, Control_c, 0, 64, 65
2, 186825, Control_c, 0, 64, 60
2, 186840, Control_c, 0, 64, 53
2, 186855, Control_c, 0, 64, 46
2, 186867, Note_on_c, 0, 57, 52
2, 186868, Note_on_c, 0, 76, 61
2, 186870, Control_c, 0, 64, 39
2, 186870, Note_on_c, 0, 60, 62
2, 186886, Control_c, 0, 64, 33
2, 186901, Control_c, 0, 64, 24
2, 186916, Control_c, 0, 64, 0
2, 186960, Note_on_c, 0, 76, 0
2, 186976, Note_on_c, 0, 77, 63
2, 187134, Note_on_c, 0, 76, 68
2, 187136, Note_on_c, 0, 60, 0
2, 187140, Note_on_c, 0, 59, 65
2, 187168, Note_on_c, 0, 57, 0
2, 187168, Note_on_c, 0, 77, 0
2, 187225, Note_on_c, 0, 76, 0
2, 187260, Note_on_c, 0, 56, 55
2, 187380, Note_on_c, 0, 56, 0
2, 187392, Note_on_c, 0, 74, 67
2, 187396, Note_on_c, 0, 57, 57
2, 187400, Note_on_c, 0, 64, 55
2, 187466, Note_on_c, 0, 59, 0
2, 187480, Note_on_c, 0, 74, 0
2, 187510, Note_on_c, 0, 56, 62
2, 187510, Note_on_c, 0, 57, 0
2, 187521, Note_on_c, 0, 64, 0
2, 187658, Note_on_c, 0, 56, 0
2, 187662, Note_on_c, 0, 57, 53
2, 187665, Note_on_c, 0, 72, 61
2, 187729, Control_c, 0, 64, 15
2, 187743, Control_c, 0, 64, 24
2, 187758, Control_c, 0, 64, 29
2, 187769, Note_on_c, 0, 72, 0
2, 187774, Control_c, 0, 64, 31
2, 187789, Control_c, 0, 64, 32
2, 187937, Note_on_c, 0, 69, 62
2, 187937, Note_on_c, 0, 72, 60
2, 188019, Note_on_c, 0, 69, 0
2, 188020, Note_on_c, 0, 72, 0
2, 188045, Note_on_c, 0, 74, 61
2, 188067, Note_on_c, 0, 71, 60
2, 188175, Note_on_c, 0, 74, 0
2, 188185, Note_on_c, 0, 72, 70
2, 188186, Note_on_c, 0, 71, 0
2, 188196, Note_on_c, 0, 69, 61
2, 188279, Note_on_c, 0, 72, 0
2, 188306, Note_on_c, 0, 55, 50
2, 188319, Note_on_c, 0, 69, 0
2, 188415, Note_on_c, 0, 55, 0
2, 188435, Control_c, 0, 64, 34
2, 188439, Note_on_c, 0, 70, 65
2, 188440, Note_on_c, 0, 53, 49
2, 188449, Note_on_c, 0, 67, 60
2, 188451, Control_c, 0, 64, 38
2, 188466, Control_c, 0, 64, 41
2, 188481, Control_c, 0, 64, 43
2, 188497, Control_c, 0, 64, 43
2, 188527, Control_c, 0, 64, 44
2, 188536, Note_on_c, 0, 67, 0
2, 188542, Note_on_c, 0, 53, 0
2, 188564, Note_on_c, 0, 52, 52
2, 188567, Note_on_c, 0, 70, 0
2, 188692, Note_on_c, 0, 52, 0
2, 188702, Note_on_c, 0, 53, 48
2, 188714, Note_on_c, 0, 69, 63
2, 188716, Control_c, 0, 64, 43
2, 188718, Note_on_c, 0, 65, 57
2, 188732, Control_c, 0, 64, 42
2, 188747, Control_c, 0, 64, 41
2, 188762, Control_c, 0, 64, 41
2, 188793, Control_c, 0, 64, 40
2, 188821, Note_on_c, 0, 70, 70
2, 188824, Control_c, 0, 64, 40
2, 188830, Note_on_c, 0, 57, 0
2, 188830, Note_on_c, 0, 69, 0
2, 188833, Note_on_c, 0, 65, 0
2, 188839, Control_c, 0, 64, 39
2, 188870, Control_c, 0, 64, 38
2, 188886, Control_c, 0, 64, 35
2, 188900, Control_c, 0, 64, 31
2, 188915, Control_c, 0, 64, 24
2, 188931, Control_c, 0, 64, 0
2, 188957, Note_on_c, 0, 72, 73
2, 188962, Note_on_c, 0, 70, 0
2, 188967, Note_on_c, 0, 57, 53
2, 188976, Note_on_c, 0, 65, 52
2, 189035, Note_on_c, 0, 65, 0
2, 189066, Note_on_c, 0, 57, 0
2, 189071, Note_on_c, 0, 70, 75
2, 189086, Note_on_c, 0, 58, 63
2, 189086, Note_on_c, 0, 67, 64
2, 189158, Control_c, 0, 64, 17
2, 189170, Note_on_c, 0, 53, 0
2, 189172, Note_on_c, 0, 72, 0
2, 189174, Control_c, 0, 64, 39
2, 189189, Control_c, 0, 64, 52
2, 189199, Note_on_c, 0, 58, 0
2, 189205, Control_c, 0, 64, 59
2, 189209, Note_on_c, 0, 69, 78
2, 189220, Control_c, 0, 64, 63
2, 189221, Note_on_c, 0, 60, 65
2, 189230, Note_on_c, 0, 65, 58
2, 189231, Note_on_c, 0, 67, 0
2, 189234, Control_c, 0, 64, 66
2, 189246, Note_on_c, 0, 70, 0
2, 189250, Control_c, 0, 64, 70
2, 189263, Note_on_c, 0, 69, 0
2, 189265, Control_c, 0, 64, 73
2, 189276, Note_on_c, 0, 65, 0
2, 189280, Control_c, 0, 64, 74
2, 189296, Control_c, 0, 64, 73
2, 189299, Note_on_c, 0, 60, 0
2, 189310, Control_c, 0, 64, 71
2, 189319, Note_on_c, 0, 52, 63
2, 189326, Control_c, 0, 64, 69
2, 189341, Control_c, 0, 64, 67
2, 189355, Control_c, 0, 64, 65
2, 189371, Control_c, 0, 64, 63
2, 189386, Control_c, 0, 64, 60
2, 189401, Control_c, 0, 64, 52
2, 189417, Control_c, 0, 64, 42
2, 189439, Control_c, 0, 64, 32
2, 189451, Note_on_c, 0, 52, 0
2, 189455, Control_c, 0, 64, 27
2, 189459, Note_on_c, 0, 64, 56
2, 189470, Control_c, 0, 64, 26
2, 189472, Note_on_c, 0, 67, 77
2, 189476, Note_on_c, 0, 58, 68
2, 189478, Note_on_c, 0, 50, 63
2, 189501, Control_c, 0, 64, 27
2, 189515, Control_c, 0, 64, 37
2, 189520, Note_on_c, 0, 58, 0
2, 189531, Control_c, 0, 64, 50
2, 189542, Note_on_c, 0, 64, 0
2, 189546, Control_c, 0, 64, 58
2, 189559, Note_on_c, 0, 67, 0
2, 189560, Control_c, 0, 64, 64
2, 189573, Note_on_c, 0, 50, 0
2, 189576, Control_c, 0, 64, 68
2, 189579, Note_on_c, 0, 49, 67
2, 189591, Control_c, 0, 64, 73
2, 189607, Control_c, 0, 64, 81
2, 189622, Control_c, 0, 64, 84
2, 189637, Control_c, 0, 64, 83
2, 189652, Control_c, 0, 64, 78
2, 189667, Control_c, 0, 64, 71
2, 189682, Control_c, 0, 64, 65
2, 189699, Control_c, 0, 64, 61
2, 189711, Note_on_c, 0, 50, 64
2, 189713, Note_on_c, 0, 49, 0
2, 189714, Control_c, 0, 64, 60
2, 189725, Note_on_c, 0, 77, 86
2, 189741, Note_on_c, 0, 50, 0
2, 189744, Control_c, 0, 64, 59
2, 189745, Note_on_c, 0, 62, 75
2, 189759, Control_c, 0, 64, 57
2, 189775, Control_c, 0, 64, 54
2, 189790, Control_c, 0, 64, 51
2, 189790, Note_on_c, 0, 62, 0
2, 189806, Control_c, 0, 64, 50
2, 189820, Control_c, 0, 64, 49
2, 189826, Note_on_c, 0, 77, 0
2, 189835, Control_c, 0, 64, 47
2, 189842, Note_on_c, 0, 64, 64
2, 189851, Control_c, 0, 64, 45
2, 189866, Control_c, 0, 64, 42
2, 189881, Control_c, 0, 64, 39
2, 189897, Control_c, 0, 64, 36
2, 189912, Control_c, 0, 64, 32
2, 189928, Control_c, 0, 64, 28
2, 189942, Control_c, 0, 64, 24
2, 189957, Control_c, 0, 64, 18
2, 189958, Note_on_c, 0, 64, 0
2, 189973, Control_c, 0, 64, 11
2, 189981, Note_on_c, 0, 62, 49
2, 189987, Note_on_c, 0, 81, 67
2, 189988, Control_c, 0, 64, 0
2, 189994, Note_on_c, 0, 65, 47
2, 190074, Note_on_c, 0, 65, 0
2, 190089, Note_on_c, 0, 62, 0
2, 190108, Note_on_c, 0, 64, 55
2, 190125, Control_c, 0, 64, 25
2, 190140, Control_c, 0, 64, 36
2, 190154, Control_c, 0, 64, 45
2, 190170, Control_c, 0, 64, 52
2, 190185, Control_c, 0, 64, 56
2, 190208, Control_c, 0, 64, 59
2, 190215, Note_on_c, 0, 81, 0
2, 190223, Control_c, 0, 64, 61
2, 190233, Note_on_c, 0, 64, 0
2, 190238, Control_c, 0, 64, 62
2, 190263, Note_on_c, 0, 62, 50
2, 190265, Note_on_c, 0, 65, 57
2, 190284, Control_c, 0, 64, 61
2, 190299, Control_c, 0, 64, 59
2, 190313, Note_on_c, 0, 65, 0
2, 190314, Control_c, 0, 64, 56
2, 190330, Control_c, 0, 64, 52
2, 190344, Control_c, 0, 64, 49
2, 190359, Control_c, 0, 64, 45
2, 190373, Note_on_c, 0, 67, 62
2, 190375, Control_c, 0, 64, 42
2, 190390, Control_c, 0, 64, 38
2, 190406, Control_c, 0, 64, 35
2, 190420, Control_c, 0, 64, 34
2, 190496, Control_c, 0, 64, 36
2, 190509, Note_on_c, 0, 76, 63
2, 190512, Control_c, 0, 64, 41
2, 190518, Note_on_c, 0, 67, 0
2, 190520, Note_on_c, 0, 62, 0
2, 190522, Note_on_c, 0, 69, 71
2, 190527, Note_on_c, 0, 61, 61
2, 190528, Control_c, 0, 64, 47
2, 190543, Control_c, 0, 64, 53
2, 190558, Control_c, 0, 64, 58
2, 190574, Control_c, 0, 64, 61
2, 190588, Control_c, 0, 64, 63
2, 190604, Control_c, 0, 64, 66
2, 190619, Control_c, 0, 64, 70
2, 190620, Note_on_c, 0, 76, 0
2, 190633, Control_c, 0, 64, 76
2, 190649, Control_c, 0, 64, 80
2, 190679, Control_c, 0, 64, 79
2, 190726, Control_c, 0, 64, 79
2, 190741, Control_c, 0, 64, 78
2, 190756, Control_c, 0, 64, 76
2, 190771, Control_c, 0, 64, 72
2, 190776, Note_on_c, 0, 74, 66
2, 190782, Note_on_c, 0, 70, 78
2, 190786, Control_c, 0, 64, 68
2, 190801, Control_c, 0, 64, 63
2, 190817, Control_c, 0, 64, 58
2, 190830, Note_on_c, 0, 61, 0
2, 190832, Control_c, 0, 64, 53
2, 190834, Note_on_c, 0, 69, 0
2, 190847, Control_c, 0, 64, 50
2, 190857, Note_on_c, 0, 70, 0
2, 190862, Control_c, 0, 64, 48
2, 190875, Note_on_c, 0, 74, 0
2, 190877, Control_c, 0, 64, 43
2, 190893, Control_c, 0, 64, 38
2, 190895, Note_on_c, 0, 73, 67
2, 190908, Control_c, 0, 64, 32
2, 190922, Control_c, 0, 64, 29
2, 190938, Control_c, 0, 64, 29
2, 191007, Note_on_c, 0, 73, 0
2, 191046, Note_on_c, 0, 76, 63
2, 191052, Control_c, 0, 64, 29
2, 191057, Note_on_c, 0, 67, 61
2, 191059, Note_on_c, 0, 74, 68
2, 191067, Control_c, 0, 64, 32
2, 191082, Control_c, 0, 64, 36
2, 191098, Control_c, 0, 64, 38
2, 191100, Note_on_c, 0, 74, 0
2, 191113, Control_c, 0, 64, 40
2, 191128, Control_c, 0, 64, 41
2, 191154, Note_on_c, 0, 76, 0
2, 191160, Note_on_c, 0, 74, 59
2, 191204, Control_c, 0, 64, 40
2, 191219, Control_c, 0, 64, 39
2, 191264, Control_c, 0, 64, 40
2, 191279, Control_c, 0, 64, 42
2, 191295, Control_c, 0, 64, 44
2, 191303, Note_on_c, 0, 73, 67
2, 191308, Note_on_c, 0, 74, 0
2, 191310, Control_c, 0, 64, 45
2, 191310, Note_on_c, 0, 67, 0
2, 191407, Note_on_c, 0, 73, 0
2, 191413, Note_on_c, 0, 71, 70
2, 191418, Control_c, 0, 64, 44
2, 191477, Control_c, 0, 64, 44
2, 191493, Control_c, 0, 64, 43
2, 191508, Control_c, 0, 64, 42
2, 191524, Control_c, 0, 64, 41
2, 191539, Control_c, 0, 64, 40
2, 191539, Note_on_c, 0, 69, 65
2, 191539, Note_on_c, 0, 71, 0
2, 191548, Note_on_c, 0, 65, 71
2, 191548, Note_on_c, 0, 74, 61
2, 191554, Control_c, 0, 64, 39
2, 191615, Control_c, 0, 64, 40
2, 191629, Note_on_c, 0, 69, 0
2, 191630, Control_c, 0, 64, 43
2, 191646, Control_c, 0, 64, 48
2, 191658, Note_on_c, 0, 73, 66
2, 191661, Control_c, 0, 64, 52
2, 191676, Control_c, 0, 64, 57
2, 191691, Control_c, 0, 64, 61
2, 191706, Control_c, 0, 64, 64
2, 191721, Control_c, 0, 64, 67
2, 191728, Note_on_c, 0, 74, 0
2, 191744, Control_c, 0, 64, 70
2, 191759, Control_c, 0, 64, 75
2, 191774, Control_c, 0, 64, 80
2, 191789, Control_c, 0, 64, 81
2, 191795, Note_on_c, 0, 65, 0
2, 191801, Note_on_c, 0, 71, 69
2, 191805, Control_c, 0, 64, 79
2, 191805, Note_on_c, 0, 67, 72
2, 191820, Control_c, 0, 64, 78
2, 191833, Note_on_c, 0, 73, 0
2, 191835, Control_c, 0, 64, 77
2, 191851, Control_c, 0, 64, 76
2, 191866, Control_c, 0, 64, 75
2, 191881, Control_c, 0, 64, 74
2, 191896, Control_c, 0, 64, 73
2, 191905, Note_on_c, 0, 67, 0
2, 191907, Note_on_c, 0, 65, 75
2, 191911, Control_c, 0, 64, 72
2, 191927, Control_c, 0, 64, 72
2, 191942, Control_c, 0, 64, 71
2, 191957, Control_c, 0, 64, 69
2, 191972, Control_c, 0, 64, 67
2, 191987, Control_c, 0, 64, 65
2, 192002, Control_c, 0, 64, 63
2, 192011, Note_on_c, 0, 65, 0
2, 192017, Control_c, 0, 64, 62
2, 192032, Control_c, 0, 64, 61
2, 192047, Note_on_c, 0, 73, 70
2, 192048, Control_c, 0, 64, 60
2, 192049, Note_on_c, 0, 64, 79
2, 192049, Note_on_c, 0, 69, 75
2, 192052, Note_on_c, 0, 71, 0
2, 192063, Control_c, 0, 64, 59
2, 192078, Control_c, 0, 64, 57
2, 192093, Control_c, 0, 64, 56
2, 192121, Note_on_c, 0, 64, 0
2, 192124, Control_c, 0, 64, 55
2, 192139, Control_c, 0, 64, 55
2, 192153, Note_on_c, 0, 69, 0
2, 192155, Control_c, 0, 64, 53
2, 192160, Note_on_c, 0, 67, 76
2, 192171, Control_c, 0, 64, 52
2, 192186, Control_c, 0, 64, 52
2, 192200, Control_c, 0, 64, 51
2, 192231, Control_c, 0, 64, 51
2, 192241, Note_on_c, 0, 73, 0
2, 192247, Control_c, 0, 64, 50
2, 192261, Control_c, 0, 64, 48
2, 192279, Control_c, 0, 64, 45
2, 192294, Control_c, 0, 64, 42
2, 192307, Note_on_c, 0, 65, 72
2, 192307, Note_on_c, 0, 74, 66
2, 192309, Control_c, 0, 64, 38
2, 192310, Note_on_c, 0, 67, 0
2, 192320, Note_on_c, 0, 62, 68
2, 192324, Control_c, 0, 64, 34
2, 192339, Control_c, 0, 64, 28
2, 192354, Control_c, 0, 64, 21
2, 192370, Control_c, 0, 64, 0
2, 192406, Note_on_c, 0, 65, 0
2, 192416, Note_on_c, 0, 64, 65
2, 192530, Control_c, 0, 64, 24
2, 192544, Control_c, 0, 64, 38
2, 192555, Note_on_c, 0, 64, 0
2, 192560, Control_c, 0, 64, 50
2, 192562, Note_on_c, 0, 69, 68
2, 192566, Note_on_c, 0, 67, 68
2, 192575, Control_c, 0, 64, 57
2, 192590, Control_c, 0, 64, 61
2, 192606, Control_c, 0, 64, 64
2, 192613, Note_on_c, 0, 74, 0
2, 192620, Control_c, 0, 64, 68
2, 192635, Control_c, 0, 64, 74
2, 192651, Control_c, 0, 64, 82
2, 192660, Note_on_c, 0, 67, 0
2, 192666, Control_c, 0, 64, 92
2, 192673, Note_on_c, 0, 65, 68
2, 192682, Control_c, 0, 64, 96
2, 192682, Note_on_c, 0, 69, 0
2, 192696, Control_c, 0, 64, 95
2, 192706, Note_on_c, 0, 65, 0
2, 192711, Control_c, 0, 64, 92
2, 192727, Control_c, 0, 64, 90
2, 192742, Control_c, 0, 64, 87
2, 192758, Control_c, 0, 64, 81
2, 192773, Control_c, 0, 64, 75
2, 192788, Control_c, 0, 64, 69
2, 192804, Control_c, 0, 64, 63
2, 192817, Note_on_c, 0, 76, 71
2, 192818, Control_c, 0, 64, 57
2, 192833, Control_c, 0, 64, 52
2, 192841, Note_on_c, 0, 64, 64
2, 192849, Control_c, 0, 64, 51
2, 192863, Control_c, 0, 64, 50
2, 192937, Note_on_c, 0, 61, 68
2, 192938, Note_on_c, 0, 62, 0
2, 192947, Note_on_c, 0, 64, 0
2, 193072, Note_on_c, 0, 64, 69
2, 193079, Note_on_c, 0, 65, 72
2, 193087, Note_on_c, 0, 61, 0
2, 193158, Note_on_c, 0, 65, 0
2, 193185, Note_on_c, 0, 62, 71
2, 193191, Note_on_c, 0, 64, 0
2, 193338, Note_on_c, 0, 67, 73
2, 193344, Note_on_c, 0, 61, 67
2, 193369, Note_on_c, 0, 62, 0
2, 193457, Note_on_c, 0, 59, 70
2, 193457, Note_on_c, 0, 61, 0
2, 193525, Control_c, 0, 64, 51
2, 193540, Control_c, 0, 64, 51
2, 193555, Control_c, 0, 64, 52
2, 193571, Control_c, 0, 64, 52
2, 193592, Note_on_c, 0, 62, 61
2, 193602, Control_c, 0, 64, 53
2, 193603, Note_on_c, 0, 59, 0
2, 193617, Control_c, 0, 64, 53
2, 193662, Control_c, 0, 64, 54
2, 193685, Note_on_c, 0, 62, 0
2, 193705, Note_on_c, 0, 61, 59
2, 193797, Note_on_c, 0, 67, 0
2, 193801, Control_c, 0, 64, 53
2, 193815, Control_c, 0, 64, 53
2, 193830, Control_c, 0, 64, 52
2, 193830, Note_on_c, 0, 61, 0
2, 193838, Note_on_c, 0, 65, 58
2, 193839, Note_on_c, 0, 62, 58
2, 193851, Note_on_c, 0, 76, 0
2, 193891, Control_c, 0, 64, 53
2, 193906, Control_c, 0, 64, 54
2, 193922, Control_c, 0, 64, 55
2, 193936, Control_c, 0, 64, 57
2, 193951, Control_c, 0, 64, 59
2, 193953, Note_on_c, 0, 73, 64
2, 193967, Control_c, 0, 64, 61
2, 193982, Control_c, 0, 64, 63
2, 193998, Control_c, 0, 64, 64
2, 194012, Control_c, 0, 64, 66
2, 194027, Control_c, 0, 64, 69
2, 194051, Control_c, 0, 64, 72
2, 194066, Control_c, 0, 64, 77
2, 194082, Control_c, 0, 64, 83
2, 194097, Control_c, 0, 64, 92
2, 194100, Note_on_c, 0, 73, 0
2, 194100, Note_on_c, 0, 74, 75
2, 194111, Control_c, 0, 64, 99
2, 194127, Control_c, 0, 64, 104
2, 194142, Control_c, 0, 64, 104
2, 194221, Note_on_c, 0, 77, 82
2, 194243, Note_on_c, 0, 65, 0
2, 194248, Control_c, 0, 64, 104
2, 194263, Control_c, 0, 64, 103
2, 194279, Control_c, 0, 64, 101
2, 194294, Control_c, 0, 64, 99
2, 194304, Note_on_c, 0, 74, 0
2, 194308, Control_c, 0, 64, 96
2, 194324, Control_c, 0, 64, 91
2, 194339, Control_c, 0, 64, 85
2, 194350, Note_on_c, 0, 62, 0
2, 194353, Control_c, 0, 64, 78
2, 194353, Note_on_c, 0, 79, 83
2, 194357, Note_on_c, 0, 64, 59
2, 194369, Control_c, 0, 64, 71
2, 194384, Control_c, 0, 64, 66
2, 194400, Control_c, 0, 64, 61
2, 194415, Control_c, 0, 64, 55
2, 194430, Control_c, 0, 64, 51
2, 194437, Note_on_c, 0, 77, 0
2, 194446, Control_c, 0, 64, 48
2, 194449, Note_on_c, 0, 64, 0
2, 194460, Control_c, 0, 64, 44
2, 194472, Note_on_c, 0, 59, 70
2, 194475, Control_c, 0, 64, 39
2, 194491, Control_c, 0, 64, 37
2, 194537, Control_c, 0, 64, 37
2, 194551, Control_c, 0, 64, 40
2, 194567, Control_c, 0, 64, 46
2, 194582, Control_c, 0, 64, 52
2, 194598, Control_c, 0, 64, 56
2, 194602, Note_on_c, 0, 69, 74
2, 194608, Note_on_c, 0, 61, 76
2, 194613, Control_c, 0, 64, 60
2, 194628, Control_c, 0, 64, 62
2, 194641, Note_on_c, 0, 59, 0
2, 194644, Control_c, 0, 64, 64
2, 194659, Control_c, 0, 64, 66
2, 194674, Control_c, 0, 64, 70
2, 194690, Control_c, 0, 64, 76
2, 194705, Control_c, 0, 64, 82
2, 194721, Control_c, 0, 64, 87
2, 194723, Note_on_c, 0, 69, 0
2, 194728, Note_on_c, 0, 64, 81
2, 194735, Control_c, 0, 64, 87
2, 194750, Control_c, 0, 64, 86
2, 194751, Note_on_c, 0, 79, 0
2, 194766, Control_c, 0, 64, 85
2, 194768, Note_on_c, 0, 61, 0
2, 194780, Control_c, 0, 64, 83
2, 194795, Control_c, 0, 64, 79
2, 194818, Control_c, 0, 64, 74
2, 194833, Control_c, 0, 64, 68
2, 194849, Control_c, 0, 64, 64
2, 194864, Control_c, 0, 64, 58
2, 194870, Note_on_c, 0, 65, 85
2, 194880, Control_c, 0, 64, 52
2, 194895, Control_c, 0, 64, 46
2, 194910, Control_c, 0, 64, 39
2, 194912, Note_on_c, 0, 64, 0
2, 194925, Control_c, 0, 64, 28
2, 194940, Control_c, 0, 64, 19
2, 194955, Control_c, 0, 64, 16
2, 194971, Control_c, 0, 64, 15
2, 194978, Note_on_c, 0, 76, 77
2, 194991, Note_on_c, 0, 73, 72
2, 195016, Control_c, 0, 64, 16
2, 195031, Control_c, 0, 64, 17
2, 195047, Control_c, 0, 64, 27
2, 195062, Control_c, 0, 64, 38
2, 195077, Control_c, 0, 64, 47
2, 195092, Control_c, 0, 64, 54
2, 195107, Control_c, 0, 64, 58
2, 195110, Note_on_c, 0, 77, 84
2, 195118, Note_on_c, 0, 74, 78
2, 195122, Control_c, 0, 64, 62
2, 195134, Note_on_c, 0, 73, 0
2, 195137, Control_c, 0, 64, 66
2, 195152, Control_c, 0, 64, 73
2, 195154, Note_on_c, 0, 76, 0
2, 195168, Control_c, 0, 64, 87
2, 195183, Control_c, 0, 64, 127
2, 195218, Note_on_c, 0, 81, 84
2, 195229, Note_on_c, 0, 77, 0
2, 195314, Note_on_c, 0, 65, 0
2, 195349, Note_on_c, 0, 67, 86
2, 195350, Control_c, 0, 64, 121
2, 195352, Note_on_c, 0, 82, 86
2, 195366, Control_c, 0, 64, 91
2, 195381, Control_c, 0, 64, 76
2, 195390, Note_on_c, 0, 81, 0
2, 195395, Control_c, 0, 64, 66
2, 195411, Control_c, 0, 64, 56
2, 195411, Note_on_c, 0, 74, 0
2, 195426, Control_c, 0, 64, 45
2, 195442, Control_c, 0, 64, 42
2, 195457, Control_c, 0, 64, 39
2, 195463, Note_on_c, 0, 62, 81
2, 195472, Control_c, 0, 64, 34
2, 195473, Note_on_c, 0, 67, 0
2, 195488, Control_c, 0, 64, 28
2, 195503, Control_c, 0, 64, 26
2, 195519, Control_c, 0, 64, 25
2, 195534, Control_c, 0, 64, 25
2, 195548, Control_c, 0, 64, 24
2, 195564, Control_c, 0, 64, 20
2, 195586, Control_c, 0, 64, 17
2, 195599, Note_on_c, 0, 64, 77
2, 195602, Control_c, 0, 64, 16
2, 195605, Note_on_c, 0, 72, 74
2, 195630, Note_on_c, 0, 62, 0
2, 195662, Control_c, 0, 64, 17
2, 195678, Control_c, 0, 64, 30
2, 195693, Control_c, 0, 64, 45
2, 195708, Control_c, 0, 64, 57
2, 195713, Note_on_c, 0, 67, 91
2, 195724, Control_c, 0, 64, 63
2, 195733, Note_on_c, 0, 64, 0
2, 195738, Control_c, 0, 64, 69
2, 195738, Note_on_c, 0, 72, 0
2, 195753, Control_c, 0, 64, 81
2, 195769, Control_c, 0, 64, 127
2, 195790, Note_on_c, 0, 82, 0
2, 195858, Note_on_c, 0, 69, 93
2, 195894, Note_on_c, 0, 67, 0
2, 195906, Control_c, 0, 64, 103
2, 195921, Control_c, 0, 64, 81
2, 195936, Control_c, 0, 64, 67
2, 195951, Control_c, 0, 64, 56
2, 195966, Control_c, 0, 64, 45
2, 195981, Control_c, 0, 64, 44
2, 195981, Note_on_c, 0, 76, 83
2, 195984, Note_on_c, 0, 79, 82
2, 196027, Control_c, 0, 64, 45
2, 196042, Control_c, 0, 64, 47
2, 196057, Control_c, 0, 64, 50
2, 196072, Control_c, 0, 64, 55
2, 196088, Control_c, 0, 64, 59
2, 196103, Control_c, 0, 64, 62
2, 196115, Note_on_c, 0, 81, 78
2, 196118, Control_c, 0, 64, 64
2, 196121, Note_on_c, 0, 77, 86
2, 196133, Control_c, 0, 64, 66
2, 196148, Control_c, 0, 64, 71
2, 196148, Note_on_c, 0, 76, 0
2, 196163, Note_on_c, 0, 79, 0
2, 196164, Control_c, 0, 64, 77
2, 196179, Control_c, 0, 64, 85
2, 196194, Control_c, 0, 64, 93
2, 196210, Control_c, 0, 64, 95
2, 196227, Note_on_c, 0, 84, 88
2, 196246, Note_on_c, 0, 81, 0
2, 196286, Note_on_c, 0, 84, 0
2, 196317, Control_c, 0, 64, 94
2, 196324, Note_on_c, 0, 77, 0
2, 196332, Control_c, 0, 64, 91
2, 196354, Control_c, 0, 64, 87
2, 196366, Note_on_c, 0, 70, 82
2, 196367, Note_on_c, 0, 74, 84
2, 196370, Control_c, 0, 64, 81
2, 196385, Control_c, 0, 64, 74
2, 196387, Note_on_c, 0, 69, 0
2, 196400, Control_c, 0, 64, 68
2, 196415, Control_c, 0, 64, 63
2, 196430, Control_c, 0, 64, 54
2, 196446, Control_c, 0, 64, 48
2, 196461, Control_c, 0, 64, 46
2, 196475, Control_c, 0, 64, 44
2, 196482, Note_on_c, 0, 65, 79
2, 196491, Control_c, 0, 64, 41
2, 196497, Note_on_c, 0, 70, 0
2, 196506, Control_c, 0, 64, 38
2, 196522, Control_c, 0, 64, 36
2, 196537, Control_c, 0, 64, 36
2, 196567, Control_c, 0, 64, 35
2, 196598, Note_on_c, 0, 67, 78
2, 196611, Note_on_c, 0, 76, 71
2, 196634, Note_on_c, 0, 65, 0
2, 196644, Control_c, 0, 64, 37
2, 196659, Control_c, 0, 64, 39
2, 196662, Note_on_c, 0, 74, 0
2, 196674, Control_c, 0, 64, 43
2, 196689, Control_c, 0, 64, 48
2, 196704, Control_c, 0, 64, 52
2, 196720, Control_c, 0, 64, 57
2, 196733, Note_on_c, 0, 79, 70
2, 196735, Control_c, 0, 64, 62
2, 196736, Note_on_c, 0, 70, 80
2, 196750, Control_c, 0, 64, 65
2, 196757, Note_on_c, 0, 76, 0
2, 196762, Note_on_c, 0, 67, 0
2, 196765, Control_c, 0, 64, 71
2, 196780, Control_c, 0, 64, 78
2, 196795, Control_c, 0, 64, 88
2, 196810, Control_c, 0, 64, 95
2, 196825, Control_c, 0, 64, 96
2, 196841, Control_c, 0, 64, 93
2, 196844, Note_on_c, 0, 79, 0
2, 196856, Control_c, 0, 64, 89
2, 196863, Note_on_c, 0, 72, 68
2, 196869, Note_on_c, 0, 64, 77
2, 196871, Control_c, 0, 64, 85
2, 196879, Note_on_c, 0, 70, 0
2, 196886, Control_c, 0, 64, 79
2, 196901, Control_c, 0, 64, 73
2, 196917, Control_c, 0, 64, 68
2, 196917, Note_on_c, 0, 72, 0
2, 196932, Control_c, 0, 64, 64
2, 196947, Control_c, 0, 64, 60
2, 196962, Control_c, 0, 64, 57
2, 196998, Note_on_c, 0, 67, 63
2, 197008, Control_c, 0, 64, 57
2, 197093, Note_on_c, 0, 64, 0
2, 197133, Note_on_c, 0, 65, 73
2, 197136, Note_on_c, 0, 69, 60
2, 197140, Note_on_c, 0, 67, 0
2, 197191, Note_on_c, 0, 65, 0
2, 197228, Note_on_c, 0, 69, 0
2, 197253, Note_on_c, 0, 72, 57
2, 197259, Control_c, 0, 64, 56
2, 197305, Control_c, 0, 64, 56
2, 197386, Note_on_c, 0, 58, 66
2, 197386, Note_on_c, 0, 72, 0
2, 197395, Note_on_c, 0, 62, 56
2, 197540, Note_on_c, 0, 65, 46
2, 197548, Control_c, 0, 64, 56
2, 197579, Control_c, 0, 64, 57
2, 197594, Control_c, 0, 64, 58
2, 197609, Control_c, 0, 64, 59
2, 197624, Control_c, 0, 64, 61
2, 197640, Control_c, 0, 64, 63
2, 197649, Note_on_c, 0, 65, 0
2, 197654, Control_c, 0, 64, 65
2, 197669, Control_c, 0, 64, 68
2, 197673, Note_on_c, 0, 67, 48
2, 197685, Control_c, 0, 64, 73
2, 197700, Control_c, 0, 64, 81
2, 197715, Control_c, 0, 64, 93
2, 197730, Control_c, 0, 64, 106
2, 197740, Note_on_c, 0, 67, 0
2, 197745, Control_c, 0, 64, 118
2, 197761, Control_c, 0, 64, 123
2, 197784, Note_on_c, 0, 62, 0
2, 197789, Note_on_c, 0, 70, 53
2, 197790, Control_c, 0, 64, 118
2, 197806, Control_c, 0, 64, 113
2, 197821, Control_c, 0, 64, 102
2, 197837, Control_c, 0, 64, 90
2, 197840, Note_on_c, 0, 58, 0
2, 197851, Control_c, 0, 64, 77
2, 197866, Control_c, 0, 64, 67
2, 197891, Control_c, 0, 64, 60
2, 197892, Note_on_c, 0, 70, 0
2, 197906, Control_c, 0, 64, 55
2, 197922, Control_c, 0, 64, 56
2, 197926, Note_on_c, 0, 64, 55
2, 197937, Control_c, 0, 64, 57
2, 197941, Note_on_c, 0, 60, 47
2, 197952, Control_c, 0, 64, 59
2, 197967, Control_c, 0, 64, 61
2, 197982, Control_c, 0, 64, 63
2, 197998, Control_c, 0, 64, 64
2, 198013, Control_c, 0, 64, 66
2, 198028, Control_c, 0, 64, 67
2, 198041, Note_on_c, 0, 64, 0
2, 198043, Control_c, 0, 64, 69
2, 198054, Note_on_c, 0, 70, 60
2, 198058, Control_c, 0, 64, 70
2, 198073, Control_c, 0, 64, 70
2, 198103, Control_c, 0, 64, 70
2, 198119, Control_c, 0, 64, 69
2, 198134, Control_c, 0, 64, 69
2, 198143, Note_on_c, 0, 70, 0
2, 198149, Control_c, 0, 64, 67
2, 198165, Control_c, 0, 64, 65
2, 198179, Control_c, 0, 64, 63
2, 198181, Note_on_c, 0, 69, 61
2, 198182, Note_on_c, 0, 48, 60
2, 198194, Control_c, 0, 64, 60
2, 198194, Note_on_c, 0, 65, 57
2, 198210, Control_c, 0, 64, 59
2, 198225, Control_c, 0, 64, 57
2, 198240, Control_c, 0, 64, 55
2, 198255, Control_c, 0, 64, 53
2, 198270, Control_c, 0, 64, 51
2, 198277, Note_on_c, 0, 67, 59
2, 198285, Note_on_c, 0, 69, 0
2, 198286, Control_c, 0, 64, 50
2, 198294, Note_on_c, 0, 50, 70
2, 198297, Note_on_c, 0, 48, 0
2, 198300, Control_c, 0, 64, 50
2, 198315, Control_c, 0, 64, 48
2, 198331, Control_c, 0, 64, 48
2, 198343, Note_on_c, 0, 67, 0
2, 198346, Control_c, 0, 64, 47
2, 198362, Control_c, 0, 64, 47
2, 198408, Control_c, 0, 64, 47
2, 198422, Control_c, 0, 64, 48
2, 198432, Note_on_c, 0, 48, 73
2, 198438, Control_c, 0, 64, 51
2, 198442, Note_on_c, 0, 67, 67
2, 198446, Note_on_c, 0, 65, 0
2, 198453, Control_c, 0, 64, 56
2, 198460, Note_on_c, 0, 50, 0
2, 198468, Control_c, 0, 64, 60
2, 198484, Control_c, 0, 64, 64
2, 198498, Control_c, 0, 64, 67
2, 198506, Note_on_c, 0, 48, 0
2, 198513, Control_c, 0, 64, 72
2, 198529, Control_c, 0, 64, 80
2, 198544, Control_c, 0, 64, 93
2, 198560, Control_c, 0, 64, 107
2, 198574, Control_c, 0, 64, 110
2, 198589, Control_c, 0, 64, 105
2, 198605, Control_c, 0, 64, 101
2, 198611, Note_on_c, 0, 60, 0
2, 198619, Control_c, 0, 64, 97
2, 198634, Control_c, 0, 64, 89
2, 198658, Control_c, 0, 64, 79
2, 198673, Control_c, 0, 64, 69
2, 198689, Control_c, 0, 64, 61
2, 198704, Control_c, 0, 64, 52
2, 198707, Note_on_c, 0, 46, 70
2, 198713, Note_on_c, 0, 64, 55
2, 198720, Control_c, 0, 64, 50
2, 198735, Control_c, 0, 64, 51
2, 198750, Control_c, 0, 64, 53
2, 198766, Control_c, 0, 64, 55
2, 198780, Control_c, 0, 64, 57
2, 198783, Note_on_c, 0, 67, 0
2, 198795, Control_c, 0, 64, 57
2, 198822, Note_on_c, 0, 64, 0
2, 198826, Control_c, 0, 64, 57
2, 198826, Note_on_c, 0, 65, 65
2, 198835, Note_on_c, 0, 46, 0
2, 198842, Control_c, 0, 64, 55
2, 198857, Control_c, 0, 64, 52
2, 198871, Control_c, 0, 64, 49
2, 198879, Note_on_c, 0, 65, 0
2, 198887, Control_c, 0, 64, 44
2, 198902, Control_c, 0, 64, 38
2, 198918, Control_c, 0, 64, 31
2, 198933, Control_c, 0, 64, 29
2, 198954, Note_on_c, 0, 45, 75
2, 198960, Note_on_c, 0, 65, 79
2, 198978, Control_c, 0, 64, 32
2, 198993, Control_c, 0, 64, 42
2, 199009, Control_c, 0, 64, 53
2, 199023, Control_c, 0, 64, 60
2, 199039, Control_c, 0, 64, 64
2, 199054, Control_c, 0, 64, 68
2, 199062, Note_on_c, 0, 65, 0
2, 199068, Control_c, 0, 64, 74
2, 199084, Control_c, 0, 64, 82
2, 199095, Note_on_c, 0, 45, 0
2, 199099, Control_c, 0, 64, 88
2, 199114, Control_c, 0, 64, 90
2, 199130, Control_c, 0, 64, 88
2, 199144, Control_c, 0, 64, 86
2, 199160, Control_c, 0, 64, 83
2, 199175, Control_c, 0, 64, 79
2, 199190, Control_c, 0, 64, 75
2, 199206, Control_c, 0, 64, 71
2, 199221, Control_c, 0, 64, 67
2, 199228, Note_on_c, 0, 72, 79
2, 199235, Note_on_c, 0, 45, 64
2, 199237, Control_c, 0, 64, 62
2, 199239, Note_on_c, 0, 48, 70
2, 199250, Control_c, 0, 64, 58
2, 199264, Control_c, 0, 64, 56
2, 199280, Control_c, 0, 64, 54
2, 199295, Control_c, 0, 64, 52
2, 199310, Control_c, 0, 64, 49
2, 199326, Control_c, 0, 64, 46
2, 199337, Note_on_c, 0, 46, 73
2, 199340, Control_c, 0, 64, 44
2, 199346, Note_on_c, 0, 48, 0
2, 199346, Note_on_c, 0, 74, 78
2, 199355, Note_on_c, 0, 45, 0
2, 199371, Control_c, 0, 64, 44
2, 199377, Note_on_c, 0, 72, 0
2, 199424, Control_c, 0, 64, 43
2, 199485, Note_on_c, 0, 45, 76
2, 199487, Note_on_c, 0, 72, 89
2, 199490, Note_on_c, 0, 50, 79
2, 199543, Note_on_c, 0, 46, 0
2, 199547, Control_c, 0, 64, 44
2, 199575, Note_on_c, 0, 74, 0
2, 199608, Note_on_c, 0, 50, 0
2, 199618, Note_on_c, 0, 45, 0
2, 199749, Note_on_c, 0, 70, 81
2, 199751, Note_on_c, 0, 43, 72
2, 199755, Note_on_c, 0, 52, 81
2, 199805, Control_c, 0, 64, 44
2, 199835, Control_c, 0, 64, 45
2, 199851, Control_c, 0, 64, 45
2, 199851, Note_on_c, 0, 43, 0
2, 199866, Control_c, 0, 64, 46
2, 199894, Note_on_c, 0, 70, 0
2, 199896, Note_on_c, 0, 52, 0
2, 199973, Control_c, 0, 64, 45
2, 199987, Control_c, 0, 64, 44
2, 200003, Control_c, 0, 64, 43
2, 200016, Note_on_c, 0, 69, 84
2, 200020, Note_on_c, 0, 41, 70
2, 200031, Note_on_c, 0, 53, 78
2, 200064, Control_c, 0, 64, 45
2, 200080, Control_c, 0, 64, 48
2, 200095, Control_c, 0, 64, 52
2, 200109, Control_c, 0, 64, 56
2, 200113, Note_on_c, 0, 53, 0
2, 200125, Control_c, 0, 64, 57
2, 200140, Control_c, 0, 64, 59
2, 200144, Note_on_c, 0, 43, 68
2, 200155, Control_c, 0, 64, 59
2, 200159, Note_on_c, 0, 69, 0
2, 200193, Note_on_c, 0, 41, 0
2, 200223, Control_c, 0, 64, 59
2, 200239, Control_c, 0, 64, 57
2, 200254, Control_c, 0, 64, 54
2, 200269, Control_c, 0, 64, 51
2, 200285, Control_c, 0, 64, 49
2, 200285, Note_on_c, 0, 45, 73
2, 200299, Note_on_c, 0, 69, 80
2, 200300, Note_on_c, 0, 43, 0
2, 200303, Note_on_c, 0, 52, 62
2, 200314, Control_c, 0, 64, 50
2, 200330, Control_c, 0, 64, 52
2, 200346, Control_c, 0, 64, 54
2, 200348, Note_on_c, 0, 52, 0
2, 200362, Control_c, 0, 64, 56
2, 200376, Control_c, 0, 64, 58
2, 200391, Control_c, 0, 64, 58
2, 200404, Note_on_c, 0, 43, 71
2, 200413, Note_on_c, 0, 70, 76
2, 200422, Control_c, 0, 64, 58
2, 200431, Note_on_c, 0, 45, 0
2, 200438, Control_c, 0, 64, 55
2, 200446, Note_on_c, 0, 69, 0
2, 200451, Control_c, 0, 64, 51
2, 200466, Control_c, 0, 64, 47
2, 200481, Control_c, 0, 64, 45
2, 200496, Control_c, 0, 64, 44
2, 200527, Control_c, 0, 64, 46
2, 200531, Note_on_c, 0, 41, 72
2, 200534, Note_on_c, 0, 43, 0
2, 200536, Note_on_c, 0, 53, 74
2, 200536, Note_on_c, 0, 69, 88
2, 200541, Control_c, 0, 64, 51
2, 200556, Control_c, 0, 64, 57
2, 200568, Note_on_c, 0, 53, 0
2, 200572, Control_c, 0, 64, 61
2, 200582, Note_on_c, 0, 41, 0
2, 200587, Control_c, 0, 64, 64
2, 200602, Control_c, 0, 64, 67
2, 200617, Control_c, 0, 64, 71
2, 200632, Control_c, 0, 64, 77
2, 200648, Control_c, 0, 64, 81
2, 200658, Note_on_c, 0, 39, 76
2, 200663, Control_c, 0, 64, 81
2, 200663, Note_on_c, 0, 70, 0
2, 200678, Control_c, 0, 64, 75
2, 200690, Note_on_c, 0, 39, 0
2, 200694, Control_c, 0, 64, 68
2, 200708, Control_c, 0, 64, 60
2, 200724, Control_c, 0, 64, 48
2, 200739, Control_c, 0, 64, 44
2, 200753, Control_c, 0, 64, 45
2, 200769, Control_c, 0, 64, 49
2, 200776, Note_on_c, 0, 69, 0
2, 200784, Control_c, 0, 64, 55
2, 200789, Note_on_c, 0, 67, 75
2, 200792, Note_on_c, 0, 55, 78
2, 200799, Control_c, 0, 64, 60
2, 200815, Control_c, 0, 64, 63
2, 200830, Control_c, 0, 64, 67
2, 200846, Control_c, 0, 64, 74
2, 200854, Note_on_c, 0, 55, 0
2, 200860, Control_c, 0, 64, 88
2, 200875, Control_c, 0, 64, 127
2, 200880, Note_on_c, 0, 67, 0
2, 200989, Control_c, 0, 64, 109
2, 201005, Control_c, 0, 64, 97
2, 201020, Control_c, 0, 64, 89
2, 201034, Control_c, 0, 64, 85
2, 201050, Control_c, 0, 64, 83
2, 201065, Control_c, 0, 64, 80
2, 201071, Note_on_c, 0, 50, 58
2, 201074, Note_on_c, 0, 57, 61
2, 201075, Note_on_c, 0, 66, 71
2, 201080, Control_c, 0, 64, 77
2, 201096, Control_c, 0, 64, 72
2, 201111, Control_c, 0, 64, 66
2, 201127, Control_c, 0, 64, 61
2, 201142, Control_c, 0, 64, 56
2, 201157, Control_c, 0, 64, 54
2, 201168, Note_on_c, 0, 57, 0
2, 201173, Control_c, 0, 64, 53
2, 201184, Note_on_c, 0, 67, 72
2, 201185, Note_on_c, 0, 66, 0
2, 201187, Control_c, 0, 64, 51
2, 201196, Note_on_c, 0, 55, 60
2, 201202, Control_c, 0, 64, 47
2, 201218, Control_c, 0, 64, 43
2, 201233, Control_c, 0, 64, 38
2, 201249, Control_c, 0, 64, 34
2, 201264, Control_c, 0, 64, 32
2, 201279, Control_c, 0, 64, 28
2, 201295, Control_c, 0, 64, 25
2, 201310, Control_c, 0, 64, 21
2, 201313, Note_on_c, 0, 67, 0
2, 201319, Note_on_c, 0, 55, 0
2, 201319, Note_on_c, 0, 69, 69
2, 201326, Control_c, 0, 64, 11
2, 201328, Note_on_c, 0, 54, 62
2, 201340, Control_c, 0, 64, 0
2, 201347, Note_on_c, 0, 50, 0
2, 201408, Note_on_c, 0, 54, 0
2, 201426, Note_on_c, 0, 67, 70
2, 201445, Note_on_c, 0, 55, 53
2, 201531, Note_on_c, 0, 55, 0
2, 201557, Note_on_c, 0, 69, 0
2, 201562, Note_on_c, 0, 67, 0
2, 201570, Note_on_c, 0, 66, 66
2, 201582, Note_on_c, 0, 57, 56
2, 201597, Control_c, 0, 64, 12
2, 201613, Control_c, 0, 64, 40
2, 201628, Control_c, 0, 64, 56
2, 201644, Control_c, 0, 64, 62
2, 201659, Control_c, 0, 64, 64
2, 201669, Note_on_c, 0, 57, 0
2, 201673, Control_c, 0, 64, 66
2, 201689, Control_c, 0, 64, 68
2, 201689, Note_on_c, 0, 58, 59
2, 201704, Control_c, 0, 64, 70
2, 201740, Note_on_c, 0, 58, 0
2, 201742, Control_c, 0, 64, 68
2, 201757, Control_c, 0, 64, 65
2, 201773, Control_c, 0, 64, 60
2, 201788, Control_c, 0, 64, 51
2, 201792, Note_on_c, 0, 66, 0
2, 201802, Control_c, 0, 64, 44
2, 201818, Control_c, 0, 64, 43
2, 201833, Control_c, 0, 64, 43
2, 201835, Note_on_c, 0, 63, 66
2, 201849, Control_c, 0, 64, 48
2, 201851, Note_on_c, 0, 48, 47
2, 201860, Note_on_c, 0, 60, 62
2, 201864, Control_c, 0, 64, 54
2, 201878, Control_c, 0, 64, 61
2, 201894, Control_c, 0, 64, 65
2, 201904, Note_on_c, 0, 60, 0
2, 201909, Control_c, 0, 64, 71
2, 201925, Control_c, 0, 64, 87
2, 201940, Control_c, 0, 64, 127
2, 201940, Note_on_c, 0, 63, 0
2, 201943, Note_on_c, 0, 48, 0
2, 202047, Control_c, 0, 64, 117
2, 202062, Control_c, 0, 64, 95
2, 202068, Note_on_c, 0, 72, 0
2, 202077, Control_c, 0, 64, 79
2, 202093, Control_c, 0, 64, 65
2, 202107, Note_on_c, 0, 74, 70
2, 202108, Control_c, 0, 64, 44
2, 202124, Control_c, 0, 64, 29
2, 202126, Note_on_c, 0, 54, 50
2, 202130, Note_on_c, 0, 46, 48
2, 202138, Control_c, 0, 64, 30
2, 202153, Control_c, 0, 64, 36
2, 202169, Control_c, 0, 64, 45
2, 202184, Control_c, 0, 64, 54
2, 202187, Note_on_c, 0, 54, 0
2, 202195, Note_on_c, 0, 74, 0
2, 202199, Control_c, 0, 64, 61
2, 202207, Note_on_c, 0, 46, 0
2, 202215, Control_c, 0, 64, 67
2, 202222, Note_on_c, 0, 45, 58
2, 202229, Control_c, 0, 64, 73
2, 202245, Control_c, 0, 64, 82
2, 202260, Control_c, 0, 64, 93
2, 202275, Control_c, 0, 64, 98
2, 202291, Control_c, 0, 64, 94
2, 202305, Control_c, 0, 64, 86
2, 202320, Control_c, 0, 64, 78
2, 202336, Control_c, 0, 64, 71
2, 202337, Note_on_c, 0, 45, 0
2, 202351, Control_c, 0, 64, 65
2, 202359, Note_on_c, 0, 78, 70
2, 202361, Note_on_c, 0, 48, 56
2, 202366, Control_c, 0, 64, 58
2, 202373, Note_on_c, 0, 57, 50
2, 202377, Note_on_c, 0, 69, 52
2, 202381, Control_c, 0, 64, 51
2, 202396, Control_c, 0, 64, 48
2, 202420, Note_on_c, 0, 57, 0
2, 202427, Control_c, 0, 64, 50
2, 202441, Control_c, 0, 64, 52
2, 202457, Control_c, 0, 64, 55
2, 202465, Note_on_c, 0, 46, 67
2, 202472, Control_c, 0, 64, 57
2, 202496, Control_c, 0, 64, 59
2, 202503, Note_on_c, 0, 48, 0
2, 202511, Control_c, 0, 64, 60
2, 202526, Control_c, 0, 64, 60
2, 202571, Control_c, 0, 64, 60
2, 202586, Control_c, 0, 64, 57
2, 202601, Control_c, 0, 64, 53
2, 202617, Control_c, 0, 64, 49
2, 202621, Note_on_c, 0, 75, 79
2, 202628, Note_on_c, 0, 46, 0
2, 202630, Note_on_c, 0, 45, 60
2, 202631, Note_on_c, 0, 55, 63
2, 202632, Control_c, 0, 64, 48
2, 202662, Control_c, 0, 64, 49
2, 202677, Control_c, 0, 64, 52
2, 202692, Note_on_c, 0, 55, 0
2, 202693, Control_c, 0, 64, 56
2, 202708, Control_c, 0, 64, 59
2, 202719, Note_on_c, 0, 45, 0
2, 202722, Control_c, 0, 64, 60
2, 202729, Note_on_c, 0, 43, 69
2, 202738, Control_c, 0, 64, 62
2, 202753, Control_c, 0, 64, 62
2, 202769, Control_c, 0, 64, 63
2, 202815, Control_c, 0, 64, 63
2, 202830, Control_c, 0, 64, 61
2, 202846, Control_c, 0, 64, 57
2, 202861, Control_c, 0, 64, 52
2, 202863, Note_on_c, 0, 72, 80
2, 202866, Note_on_c, 0, 54, 66
2, 202869, Note_on_c, 0, 46, 67
2, 202874, Note_on_c, 0, 43, 0
2, 202875, Control_c, 0, 64, 45
2, 202891, Control_c, 0, 64, 42
2, 202915, Note_on_c, 0, 69, 0
2, 202921, Control_c, 0, 64, 42
2, 202927, Note_on_c, 0, 78, 0
2, 202937, Control_c, 0, 64, 46
2, 202943, Note_on_c, 0, 54, 0
2, 202951, Control_c, 0, 64, 51
2, 202967, Control_c, 0, 64, 56
2, 202977, Note_on_c, 0, 45, 71
2, 202982, Control_c, 0, 64, 59
2, 202997, Control_c, 0, 64, 60
2, 203002, Note_on_c, 0, 75, 0
2, 203013, Control_c, 0, 64, 61
2, 203027, Note_on_c, 0, 46, 0
2, 203028, Control_c, 0, 64, 62
2, 203044, Control_c, 0, 64, 63
2, 203073, Control_c, 0, 64, 63
2, 203088, Control_c, 0, 64, 63
2, 203103, Control_c, 0, 64, 62
2, 203117, Note_on_c, 0, 70, 76
2, 203118, Control_c, 0, 64, 59
2, 203130, Note_on_c, 0, 43, 71
2, 203133, Note_on_c, 0, 55, 81
2, 203134, Control_c, 0, 64, 55
2, 203148, Control_c, 0, 64, 49
2, 203164, Control_c, 0, 64, 46
2, 203164, Note_on_c, 0, 72, 0
2, 203171, Note_on_c, 0, 45, 0
2, 203194, Control_c, 0, 64, 48
2, 203209, Control_c, 0, 64, 52
2, 203224, Control_c, 0, 64, 57
2, 203236, Note_on_c, 0, 69, 78
2, 203239, Control_c, 0, 64, 61
2, 203256, Note_on_c, 0, 70, 0
2, 203263, Control_c, 0, 64, 64
2, 203273, Note_on_c, 0, 55, 0
2, 203278, Control_c, 0, 64, 66
2, 203293, Control_c, 0, 64, 69
2, 203308, Control_c, 0, 64, 72
2, 203324, Control_c, 0, 64, 75
2, 203339, Control_c, 0, 64, 74
2, 203354, Control_c, 0, 64, 69
2, 203369, Control_c, 0, 64, 64
2, 203384, Control_c, 0, 64, 56
2, 203385, Note_on_c, 0, 74, 74
2, 203392, Note_on_c, 0, 72, 76
2, 203397, Note_on_c, 0, 53, 76
2, 203399, Control_c, 0, 64, 50
2, 203405, Note_on_c, 0, 69, 0
2, 203429, Control_c, 0, 64, 51
2, 203445, Control_c, 0, 64, 54
2, 203460, Control_c, 0, 64, 57
2, 203475, Control_c, 0, 64, 60
2, 203490, Control_c, 0, 64, 63
2, 203505, Control_c, 0, 64, 65
2, 203506, Note_on_c, 0, 70, 80
2, 203520, Control_c, 0, 64, 67
2, 203536, Control_c, 0, 64, 71
2, 203537, Note_on_c, 0, 72, 0
2, 203551, Control_c, 0, 64, 77
2, 203565, Note_on_c, 0, 74, 0
2, 203567, Control_c, 0, 64, 81
2, 203581, Control_c, 0, 64, 78
2, 203596, Control_c, 0, 64, 69
2, 203612, Control_c, 0, 64, 61
2, 203628, Control_c, 0, 64, 48
2, 203640, Note_on_c, 0, 51, 86
2, 203642, Control_c, 0, 64, 49
2, 203646, Note_on_c, 0, 72, 78
2, 203647, Note_on_c, 0, 69, 68
2, 203651, Note_on_c, 0, 70, 0
2, 203658, Control_c, 0, 64, 55
2, 203663, Note_on_c, 0, 43, 0
2, 203673, Control_c, 0, 64, 60
2, 203679, Note_on_c, 0, 69, 0
2, 203689, Control_c, 0, 64, 63
2, 203704, Control_c, 0, 64, 66
2, 203710, Note_on_c, 0, 72, 0
2, 203719, Control_c, 0, 64, 70
2, 203735, Control_c, 0, 64, 73
2, 203749, Control_c, 0, 64, 75
2, 203755, Note_on_c, 0, 51, 0
2, 203755, Note_on_c, 0, 67, 75
2, 203758, Note_on_c, 0, 70, 75
2, 203765, Control_c, 0, 64, 75
2, 203780, Control_c, 0, 64, 73
2, 203795, Control_c, 0, 64, 70
2, 203811, Control_c, 0, 64, 67
2, 203822, Note_on_c, 0, 70, 0
2, 203826, Control_c, 0, 64, 63
2, 203841, Control_c, 0, 64, 58
2, 203857, Control_c, 0, 64, 53
2, 203872, Control_c, 0, 64, 47
2, 203885, Note_on_c, 0, 50, 72
2, 203888, Control_c, 0, 64, 40
2, 203889, Note_on_c, 0, 74, 78
2, 203890, Note_on_c, 0, 70, 71
2, 203899, Note_on_c, 0, 42, 65
2, 203901, Note_on_c, 0, 53, 0
2, 203902, Control_c, 0, 64, 32
2, 203902, Note_on_c, 0, 67, 0
2, 203917, Control_c, 0, 64, 22
2, 203933, Control_c, 0, 64, 12
2, 203948, Control_c, 0, 64, 0
2, 203955, Note_on_c, 0, 42, 0
2, 203955, Note_on_c, 0, 50, 0
2, 203970, Note_on_c, 0, 70, 0
2, 203997, Note_on_c, 0, 72, 75
2, 204000, Note_on_c, 0, 69, 81
2, 204039, Note_on_c, 0, 74, 0
2, 204156, Note_on_c, 0, 43, 66
2, 204156, Note_on_c, 0, 72, 0
2, 204158, Note_on_c, 0, 50, 68
2, 204159, Note_on_c, 0, 67, 71
2, 204166, Note_on_c, 0, 70, 70
2, 204169, Control_c, 0, 64, 26
2, 204169, Note_on_c, 0, 69, 0
2, 204183, Control_c, 0, 64, 40
2, 204198, Control_c, 0, 64, 49
2, 204214, Control_c, 0, 64, 56
2, 204229, Control_c, 0, 64, 60
2, 204245, Control_c, 0, 64, 62
2, 204259, Control_c, 0, 64, 64
2, 204267, Note_on_c, 0, 70, 0
2, 204274, Control_c, 0, 64, 67
2, 204278, Note_on_c, 0, 72, 68
2, 204290, Control_c, 0, 64, 72
2, 204305, Control_c, 0, 64, 83
2, 204320, Control_c, 0, 64, 97
2, 204335, Control_c, 0, 64, 119
2, 204350, Control_c, 0, 64, 127
2, 204413, Note_on_c, 0, 55, 77
2, 204422, Note_on_c, 0, 74, 73
2, 204437, Note_on_c, 0, 72, 0
2, 204440, Note_on_c, 0, 55, 0
2, 204473, Control_c, 0, 64, 123
2, 204477, Note_on_c, 0, 67, 0
2, 204488, Control_c, 0, 64, 114
2, 204503, Control_c, 0, 64, 107
2, 204518, Control_c, 0, 64, 101
2, 204521, Note_on_c, 0, 57, 83
2, 204534, Control_c, 0, 64, 94
2, 204537, Note_on_c, 0, 72, 82
2, 204549, Control_c, 0, 64, 85
2, 204564, Control_c, 0, 64, 78
2, 204579, Control_c, 0, 64, 72
2, 204594, Control_c, 0, 64, 67
2, 204597, Note_on_c, 0, 57, 0
2, 204609, Note_on_c, 0, 74, 0
2, 204610, Control_c, 0, 64, 64
2, 204625, Control_c, 0, 64, 60
2, 204639, Control_c, 0, 64, 56
2, 204655, Control_c, 0, 64, 52
2, 204670, Control_c, 0, 64, 49
2, 204670, Note_on_c, 0, 70, 78
2, 204680, Note_on_c, 0, 55, 86
2, 204686, Control_c, 0, 64, 45
2, 204700, Control_c, 0, 64, 42
2, 204715, Control_c, 0, 64, 38
2, 204731, Control_c, 0, 64, 35
2, 204746, Control_c, 0, 64, 33
2, 204761, Control_c, 0, 64, 32
2, 204783, Note_on_c, 0, 72, 0
2, 204796, Note_on_c, 0, 69, 78
2, 204799, Control_c, 0, 64, 31
2, 204808, Note_on_c, 0, 55, 0
2, 204810, Note_on_c, 0, 70, 0
2, 204815, Control_c, 0, 64, 31
2, 204830, Control_c, 0, 64, 30
2, 204860, Control_c, 0, 64, 29
2, 204875, Control_c, 0, 64, 28
2, 204891, Control_c, 0, 64, 26
2, 204905, Control_c, 0, 64, 21
2, 204920, Control_c, 0, 64, 9
2, 204931, Note_on_c, 0, 53, 87
2, 204934, Note_on_c, 0, 67, 74
2, 204936, Control_c, 0, 64, 0
2, 204936, Note_on_c, 0, 69, 0
2, 204958, Note_on_c, 0, 50, 0
2, 205051, Note_on_c, 0, 67, 0
2, 205055, Note_on_c, 0, 65, 76
2, 205066, Note_on_c, 0, 53, 0
2, 205177, Note_on_c, 0, 52, 87
2, 205183, Note_on_c, 0, 67, 80
2, 205192, Note_on_c, 0, 65, 0
2, 205308, Note_on_c, 0, 69, 81
2, 205320, Note_on_c, 0, 52, 0
2, 205321, Note_on_c, 0, 67, 0
2, 205439, Note_on_c, 0, 52, 82
2, 205441, Note_on_c, 0, 70, 81
2, 205465, Note_on_c, 0, 69, 0
2, 205550, Note_on_c, 0, 53, 80
2, 205568, Note_on_c, 0, 52, 0
2, 205569, Note_on_c, 0, 69, 87
2, 205612, Note_on_c, 0, 70, 0
2, 205695, Note_on_c, 0, 52, 82
2, 205697, Note_on_c, 0, 67, 80
2, 205697, Note_on_c, 0, 69, 0
2, 205732, Note_on_c, 0, 53, 0
2, 205808, Note_on_c, 0, 65, 81
2, 205811, Note_on_c, 0, 52, 0
2, 205833, Note_on_c, 0, 67, 0
2, 205933, Control_c, 0, 64, 26
2, 205936, Note_on_c, 0, 50, 80
2, 205936, Note_on_c, 0, 64, 83
2, 205947, Control_c, 0, 64, 43
2, 205961, Note_on_c, 0, 65, 0
2, 205962, Control_c, 0, 64, 53
2, 205978, Control_c, 0, 64, 59
2, 205993, Control_c, 0, 64, 63
2, 206009, Control_c, 0, 64, 65
2, 206013, Note_on_c, 0, 64, 0
2, 206022, Note_on_c, 0, 50, 0
2, 206023, Control_c, 0, 64, 68
2, 206038, Control_c, 0, 64, 70
2, 206040, Note_on_c, 0, 62, 78
2, 206054, Control_c, 0, 64, 69
2, 206069, Control_c, 0, 64, 67
2, 206086, Control_c, 0, 64, 65
2, 206094, Note_on_c, 0, 62, 0
2, 206100, Control_c, 0, 64, 62
2, 206115, Control_c, 0, 64, 58
2, 206131, Control_c, 0, 64, 53
2, 206146, Control_c, 0, 64, 49
2, 206161, Control_c, 0, 64, 45
2, 206176, Control_c, 0, 64, 43
2, 206182, Note_on_c, 0, 76, 87
2, 206183, Note_on_c, 0, 49, 77
2, 206191, Control_c, 0, 64, 39
2, 206207, Control_c, 0, 64, 38
2, 206222, Control_c, 0, 64, 36
2, 206237, Control_c, 0, 64, 36
2, 206252, Control_c, 0, 64, 35
2, 206267, Control_c, 0, 64, 34
2, 206282, Control_c, 0, 64, 34
2, 206295, Note_on_c, 0, 50, 78
2, 206298, Control_c, 0, 64, 33
2, 206317, Note_on_c, 0, 49, 0
2, 206443, Note_on_c, 0, 52, 79
2, 206446, Note_on_c, 0, 69, 78
2, 206450, Note_on_c, 0, 50, 0
2, 206549, Note_on_c, 0, 67, 82
2, 206563, Note_on_c, 0, 50, 83
2, 206585, Note_on_c, 0, 52, 0
2, 206585, Note_on_c, 0, 69, 0
2, 206694, Note_on_c, 0, 69, 88
2, 206697, Note_on_c, 0, 49, 87
2, 206743, Note_on_c, 0, 67, 0
2, 206746, Note_on_c, 0, 50, 0
2, 206828, Note_on_c, 0, 49, 0
2, 206839, Note_on_c, 0, 69, 0
2, 206972, Note_on_c, 0, 71, 87
2, 206975, Note_on_c, 0, 47, 84
2, 206989, Control_c, 0, 64, 34
2, 207019, Control_c, 0, 64, 33
2, 207065, Control_c, 0, 64, 32
2, 207080, Control_c, 0, 64, 29
2, 207083, Note_on_c, 0, 71, 0
2, 207096, Note_on_c, 0, 47, 0
2, 207103, Control_c, 0, 64, 26
2, 207118, Control_c, 0, 64, 23
2, 207134, Control_c, 0, 64, 18
2, 207148, Control_c, 0, 64, 13
2, 207163, Control_c, 0, 64, 0
2, 207218, Note_on_c, 0, 43, 0
2, 207247, Note_on_c, 0, 73, 87
2, 207252, Note_on_c, 0, 57, 86
2, 207270, Control_c, 0, 64, 28
2, 207286, Control_c, 0, 64, 43
2, 207296, Note_on_c, 0, 76, 0
2, 207300, Control_c, 0, 64, 53
2, 207315, Control_c, 0, 64, 60
2, 207331, Control_c, 0, 64, 64
2, 207336, Note_on_c, 0, 57, 0
2, 207346, Control_c, 0, 64, 67
2, 207360, Control_c, 0, 64, 73
2, 207363, Note_on_c, 0, 73, 0
2, 207376, Control_c, 0, 64, 80
2, 207391, Control_c, 0, 64, 88
2, 207407, Control_c, 0, 64, 93
2, 207422, Control_c, 0, 64, 93
2, 207436, Control_c, 0, 64, 91
2, 207452, Control_c, 0, 64, 88
2, 207467, Control_c, 0, 64, 83
2, 207482, Control_c, 0, 64, 79
2, 207498, Control_c, 0, 64, 73
2, 207513, Control_c, 0, 64, 68
2, 207516, Note_on_c, 0, 52, 65
2, 207516, Note_on_c, 0, 61, 79
2, 207516, Note_on_c, 0, 76, 85
2, 207529, Control_c, 0, 64, 64
2, 207532, Note_on_c, 0, 73, 77
2, 207544, Control_c, 0, 64, 60
2, 207558, Control_c, 0, 64, 57
2, 207574, Control_c, 0, 64, 55
2, 207589, Control_c, 0, 64, 54
2, 207605, Control_c, 0, 64, 52
2, 207611, Note_on_c, 0, 61, 0
2, 207615, Note_on_c, 0, 53, 69
2, 207620, Control_c, 0, 64, 49
2, 207627, Note_on_c, 0, 52, 0
2, 207627, Note_on_c, 0, 74, 88
2, 207634, Control_c, 0, 64, 47
2, 207650, Control_c, 0, 64, 46
2, 207651, Note_on_c, 0, 73, 0
2, 207664, Note_on_c, 0, 76, 0
2, 207665, Control_c, 0, 64, 45
2, 207696, Control_c, 0, 64, 45
2, 207728, Control_c, 0, 64, 44
2, 207742, Control_c, 0, 64, 40
2, 207749, Note_on_c, 0, 76, 88
2, 207757, Control_c, 0, 64, 11
2, 207766, Note_on_c, 0, 55, 75
2, 207767, Note_on_c, 0, 53, 0
2, 207768, Note_on_c, 0, 73, 81
2, 207773, Control_c, 0, 64, 0
2, 207791, Note_on_c, 0, 74, 0
2, 207873, Note_on_c, 0, 73, 0
2, 207877, Note_on_c, 0, 53, 83
2, 207882, Note_on_c, 0, 55, 0
2, 207906, Note_on_c, 0, 76, 0
2, 208010, Note_on_c, 0, 53, 0
2, 208015, Note_on_c, 0, 77, 92
2, 208018, Note_on_c, 0, 52, 74
2, 208018, Note_on_c, 0, 74, 81
2, 208027, Note_on_c, 0, 69, 72
2, 208055, Note_on_c, 0, 69, 0
2, 208069, Control_c, 0, 64, 25
2, 208085, Control_c, 0, 64, 44
2, 208088, Note_on_c, 0, 74, 0
2, 208100, Control_c, 0, 64, 56
2, 208115, Control_c, 0, 64, 61
2, 208120, Note_on_c, 0, 50, 82
2, 208131, Control_c, 0, 64, 64
2, 208134, Note_on_c, 0, 77, 0
2, 208137, Note_on_c, 0, 52, 0
2, 208145, Control_c, 0, 64, 65
2, 208160, Control_c, 0, 64, 67
2, 208176, Control_c, 0, 64, 68
2, 208206, Control_c, 0, 64, 67
2, 208221, Control_c, 0, 64, 65
2, 208236, Control_c, 0, 64, 61
2, 208252, Control_c, 0, 64, 54
2, 208267, Control_c, 0, 64, 40
2, 208267, Note_on_c, 0, 49, 76
2, 208274, Note_on_c, 0, 79, 90
2, 208277, Note_on_c, 0, 76, 78
2, 208281, Control_c, 0, 64, 28
2, 208292, Note_on_c, 0, 70, 59
2, 208297, Control_c, 0, 64, 26
2, 208298, Note_on_c, 0, 50, 0
2, 208327, Control_c, 0, 64, 26
2, 208340, Note_on_c, 0, 70, 0
2, 208342, Control_c, 0, 64, 34
2, 208357, Control_c, 0, 64, 45
2, 208367, Note_on_c, 0, 49, 0
2, 208373, Control_c, 0, 64, 54
2, 208388, Control_c, 0, 64, 61
2, 208395, Note_on_c, 0, 74, 82
2, 208402, Control_c, 0, 64, 66
2, 208418, Control_c, 0, 64, 73
2, 208433, Control_c, 0, 64, 85
2, 208442, Note_on_c, 0, 79, 0
2, 208449, Control_c, 0, 64, 105
2, 208464, Control_c, 0, 64, 127
2, 208532, Note_on_c, 0, 73, 78
2, 208532, Note_on_c, 0, 79, 88
2, 208537, Note_on_c, 0, 76, 0
2, 208561, Note_on_c, 0, 74, 0
2, 208600, Note_on_c, 0, 73, 0
2, 208601, Control_c, 0, 64, 113
2, 208617, Control_c, 0, 64, 99
2, 208639, Control_c, 0, 64, 90
2, 208643, Note_on_c, 0, 77, 88
2, 208655, Control_c, 0, 64, 83
2, 208657, Note_on_c, 0, 69, 80
2, 208669, Note_on_c, 0, 74, 72
2, 208670, Control_c, 0, 64, 76
2, 208680, Note_on_c, 0, 79, 0
2, 208686, Control_c, 0, 64, 68
2, 208701, Control_c, 0, 64, 59
2, 208715, Control_c, 0, 64, 48
2, 208731, Control_c, 0, 64, 41
2, 208746, Control_c, 0, 64, 38
2, 208761, Control_c, 0, 64, 32
2, 208777, Control_c, 0, 64, 26
2, 208782, Note_on_c, 0, 76, 85
2, 208783, Note_on_c, 0, 79, 89
2, 208789, Note_on_c, 0, 67, 83
2, 208791, Control_c, 0, 64, 25
2, 208792, Note_on_c, 0, 74, 0
2, 208797, Note_on_c, 0, 69, 0
2, 208807, Control_c, 0, 64, 25
2, 208822, Control_c, 0, 64, 33
2, 208837, Control_c, 0, 64, 43
2, 208840, Note_on_c, 0, 77, 0
2, 208853, Control_c, 0, 64, 53
2, 208867, Control_c, 0, 64, 59
2, 208882, Control_c, 0, 64, 64
2, 208889, Note_on_c, 0, 76, 0
2, 208898, Control_c, 0, 64, 69
2, 208904, Note_on_c, 0, 65, 84
2, 208913, Control_c, 0, 64, 77
2, 208923, Note_on_c, 0, 79, 0
2, 208929, Control_c, 0, 64, 88
2, 208929, Note_on_c, 0, 67, 0
2, 208944, Control_c, 0, 64, 101
2, 208959, Control_c, 0, 64, 102
2, 208974, Control_c, 0, 64, 94
2, 208989, Control_c, 0, 64, 80
2, 209005, Control_c, 0, 64, 68
2, 209020, Control_c, 0, 64, 56
2, 209030, Note_on_c, 0, 81, 83
2, 209031, Note_on_c, 0, 77, 93
2, 209035, Control_c, 0, 64, 38
2, 209038, Note_on_c, 0, 64, 83
2, 209038, Note_on_c, 0, 65, 0
2, 209050, Control_c, 0, 64, 37
2, 209065, Control_c, 0, 64, 40
2, 209080, Control_c, 0, 64, 46
2, 209096, Control_c, 0, 64, 53
2, 209111, Control_c, 0, 64, 59
2, 209126, Control_c, 0, 64, 63
2, 209139, Note_on_c, 0, 81, 0
2, 209141, Control_c, 0, 64, 67
2, 209143, Note_on_c, 0, 62, 88
2, 209156, Control_c, 0, 64, 73
2, 209171, Control_c, 0, 64, 84
2, 209171, Note_on_c, 0, 64, 0
2, 209174, Note_on_c, 0, 77, 0
2, 209186, Control_c, 0, 64, 97
2, 209201, Control_c, 0, 64, 115
2, 209217, Control_c, 0, 64, 127
2, 209262, Control_c, 0, 64, 121
2, 209277, Control_c, 0, 64, 113
2, 209292, Note_on_c, 0, 82, 89
2, 209293, Control_c, 0, 64, 104
2, 209299, Note_on_c, 0, 61, 78
2, 209308, Control_c, 0, 64, 93
2, 209309, Note_on_c, 0, 67, 80
2, 209323, Control_c, 0, 64, 80
2, 209325, Note_on_c, 0, 62, 0
2, 209334, Note_on_c, 0, 65, 49
2, 209338, Control_c, 0, 64, 71
2, 209354, Control_c, 0, 64, 64
2, 209365, Note_on_c, 0, 65, 0
2, 209370, Control_c, 0, 64, 59
2, 209385, Control_c, 0, 64, 56
2, 209408, Control_c, 0, 64, 55
2, 209423, Control_c, 0, 64, 52
2, 209424, Note_on_c, 0, 81, 79
2, 209438, Control_c, 0, 64, 49
2, 209454, Control_c, 0, 64, 47
2, 209469, Control_c, 0, 64, 47
2, 209514, Control_c, 0, 64, 46
2, 209530, Control_c, 0, 64, 46
2, 209533, Note_on_c, 0, 82, 0
2, 209553, Note_on_c, 0, 79, 86
2, 209561, Note_on_c, 0, 64, 79
2, 209575, Control_c, 0, 64, 45
2, 209583, Note_on_c, 0, 81, 0
2, 209606, Control_c, 0, 64, 45
2, 209606, Note_on_c, 0, 61, 0
2, 209620, Control_c, 0, 64, 44
2, 209635, Control_c, 0, 64, 44
2, 209651, Control_c, 0, 64, 43
2, 209666, Control_c, 0, 64, 42
2, 209668, Note_on_c, 0, 81, 88
2, 209681, Control_c, 0, 64, 40
2, 209696, Control_c, 0, 64, 39
2, 209703, Note_on_c, 0, 79, 0
2, 209711, Control_c, 0, 64, 38
2, 209727, Control_c, 0, 64, 37
2, 209742, Control_c, 0, 64, 34
2, 209757, Control_c, 0, 64, 30
2, 209773, Control_c, 0, 64, 25
2, 209788, Control_c, 0, 64, 22
2, 209802, Note_on_c, 0, 82, 87
2, 209803, Control_c, 0, 64, 21
2, 209803, Note_on_c, 0, 61, 84
2, 209830, Note_on_c, 0, 64, 0
2, 209842, Note_on_c, 0, 67, 0
2, 209849, Control_c, 0, 64, 21
2, 209858, Note_on_c, 0, 81, 0
2, 209864, Control_c, 0, 64, 29
2, 209879, Control_c, 0, 64, 41
2, 209894, Control_c, 0, 64, 51
2, 209909, Control_c, 0, 64, 57
2, 209920, Note_on_c, 0, 79, 82
2, 209925, Control_c, 0, 64, 61
2, 209940, Control_c, 0, 64, 65
2, 209946, Note_on_c, 0, 82, 0
2, 209955, Control_c, 0, 64, 70
2, 209970, Control_c, 0, 64, 78
2, 209985, Control_c, 0, 64, 90
2, 209998, Control_c, 0, 64, 96
2, 210014, Control_c, 0, 64, 90
2, 210017, Note_on_c, 0, 79, 0
2, 210029, Control_c, 0, 64, 79
2, 210045, Control_c, 0, 64, 68
2, 210052, Note_on_c, 0, 69, 82
2, 210054, Note_on_c, 0, 81, 78
2, 210060, Control_c, 0, 64, 62
2, 210060, Note_on_c, 0, 57, 81
2, 210073, Note_on_c, 0, 61, 0
2, 210075, Control_c, 0, 64, 61
2, 210090, Control_c, 0, 64, 64
2, 210105, Control_c, 0, 64, 66
2, 210112, Note_on_c, 0, 57, 0
2, 210120, Control_c, 0, 64, 70
2, 210136, Control_c, 0, 64, 77
2, 210143, Note_on_c, 0, 81, 0
2, 210151, Control_c, 0, 64, 89
2, 210175, Control_c, 0, 64, 106
2, 210176, Note_on_c, 0, 76, 83
2, 210190, Control_c, 0, 64, 127
2, 210212, Note_on_c, 0, 69, 0
2, 210235, Control_c, 0, 64, 117
2, 210250, Control_c, 0, 64, 113
2, 210265, Control_c, 0, 64, 108
2, 210280, Control_c, 0, 64, 99
2, 210296, Control_c, 0, 64, 86
2, 210310, Note_on_c, 0, 77, 93
2, 210311, Control_c, 0, 64, 72
2, 210312, Note_on_c, 0, 50, 72
2, 210321, Note_on_c, 0, 69, 78
2, 210326, Control_c, 0, 64, 58
2, 210326, Note_on_c, 0, 62, 86
2, 210335, Note_on_c, 0, 76, 0
2, 210341, Control_c, 0, 64, 35
2, 210356, Control_c, 0, 64, 32
2, 210372, Control_c, 0, 64, 38
2, 210387, Control_c, 0, 64, 45
2, 210399, Note_on_c, 0, 50, 0
2, 210402, Control_c, 0, 64, 52
2, 210418, Control_c, 0, 64, 58
2, 210433, Control_c, 0, 64, 62
2, 210436, Note_on_c, 0, 76, 88
2, 210449, Control_c, 0, 64, 65
2, 210463, Control_c, 0, 64, 70
2, 210478, Control_c, 0, 64, 78
2, 210494, Control_c, 0, 64, 91
2, 210501, Note_on_c, 0, 77, 0
2, 210509, Control_c, 0, 64, 111
2, 210525, Control_c, 0, 64, 127
2, 210557, Note_on_c, 0, 74, 89
2, 210571, Note_on_c, 0, 65, 83
2, 210586, Note_on_c, 0, 69, 0
2, 210592, Note_on_c, 0, 76, 0
2, 210601, Note_on_c, 0, 62, 0
2, 210672, Note_on_c, 0, 76, 90
2, 210702, Note_on_c, 0, 74, 0
2, 210796, Control_c, 0, 64, 94
2, 210806, Note_on_c, 0, 77, 91
2, 210812, Control_c, 0, 64, 74
2, 210815, Note_on_c, 0, 62, 83
2, 210818, Note_on_c, 0, 69, 73
2, 210827, Control_c, 0, 64, 62
2, 210827, Note_on_c, 0, 65, 0
2, 210827, Note_on_c, 0, 76, 0
2, 210842, Control_c, 0, 64, 54
2, 210858, Control_c, 0, 64, 57
2, 210873, Control_c, 0, 64, 60
2, 210889, Control_c, 0, 64, 63
2, 210904, Control_c, 0, 64, 66
2, 210919, Control_c, 0, 64, 71
2, 210932, Note_on_c, 0, 74, 90
2, 210941, Control_c, 0, 64, 78
2, 210956, Control_c, 0, 64, 89
2, 210960, Note_on_c, 0, 69, 0
2, 210972, Control_c, 0, 64, 102
2, 210974, Note_on_c, 0, 77, 0
2, 210988, Control_c, 0, 64, 111
2, 211003, Control_c, 0, 64, 111
2, 211019, Control_c, 0, 64, 106
2, 211034, Control_c, 0, 64, 96
2, 211049, Control_c, 0, 64, 82
2, 211064, Control_c, 0, 64, 69
2, 211077, Note_on_c, 0, 76, 85
2, 211078, Note_on_c, 0, 57, 79
2, 211079, Control_c, 0, 64, 59
2, 211082, Note_on_c, 0, 67, 81
2, 211087, Note_on_c, 0, 74, 0
2, 211094, Control_c, 0, 64, 47
2, 211109, Control_c, 0, 64, 49
2, 211125, Control_c, 0, 64, 53
2, 211140, Control_c, 0, 64, 56
2, 211155, Control_c, 0, 64, 61
2, 211170, Control_c, 0, 64, 64
2, 211184, Note_on_c, 0, 57, 0
2, 211185, Control_c, 0, 64, 70
2, 211200, Control_c, 0, 64, 80
2, 211213, Note_on_c, 0, 73, 85
2, 211216, Control_c, 0, 64, 104
2, 211231, Control_c, 0, 64, 127
2, 211246, Note_on_c, 0, 76, 0
2, 211250, Note_on_c, 0, 67, 0
2, 211345, Note_on_c, 0, 74, 87
2, 211349, Note_on_c, 0, 65, 80
2, 211350, Note_on_c, 0, 58, 85
2, 211353, Control_c, 0, 64, 119
2, 211355, Note_on_c, 0, 50, 74
2, 211362, Note_on_c, 0, 62, 0
2, 211369, Control_c, 0, 64, 81
2, 211369, Note_on_c, 0, 73, 0
2, 211383, Control_c, 0, 64, 63
2, 211398, Control_c, 0, 64, 49
2, 211429, Control_c, 0, 64, 53
2, 211445, Control_c, 0, 64, 56
2, 211459, Control_c, 0, 64, 60
2, 211474, Control_c, 0, 64, 64
2, 211490, Control_c, 0, 64, 68
2, 211492, Note_on_c, 0, 72, 87
2, 211504, Control_c, 0, 64, 78
2, 211513, Note_on_c, 0, 65, 0
2, 211519, Control_c, 0, 64, 106
2, 211536, Control_c, 0, 64, 127
2, 211558, Note_on_c, 0, 74, 0
2, 211641, Note_on_c, 0, 62, 84
2, 211650, Note_on_c, 0, 70, 80
2, 211655, Note_on_c, 0, 53, 79
2, 211657, Control_c, 0, 64, 119
2, 211672, Control_c, 0, 64, 81
2, 211688, Control_c, 0, 64, 65
2, 211694, Note_on_c, 0, 72, 0
2, 211710, Control_c, 0, 64, 52
2, 211726, Control_c, 0, 64, 52
2, 211741, Control_c, 0, 64, 56
2, 211756, Control_c, 0, 64, 61
2, 211756, Note_on_c, 0, 58, 0
2, 211770, Note_on_c, 0, 62, 0
2, 211772, Control_c, 0, 64, 64
2, 211786, Control_c, 0, 64, 68
2, 211801, Control_c, 0, 64, 75
2, 211809, Note_on_c, 0, 72, 91
2, 211818, Control_c, 0, 64, 89
2, 211833, Control_c, 0, 64, 127
2, 211965, Note_on_c, 0, 70, 0
2, 211975, Note_on_c, 0, 74, 90
2, 211979, Note_on_c, 0, 58, 86
2, 211983, Note_on_c, 0, 65, 81
2, 211985, Control_c, 0, 64, 100
2, 212000, Control_c, 0, 64, 76
2, 212015, Control_c, 0, 64, 62
2, 212030, Control_c, 0, 64, 42
2, 212046, Control_c, 0, 64, 41
2, 212056, Note_on_c, 0, 72, 0
2, 212061, Control_c, 0, 64, 47
2, 212075, Control_c, 0, 64, 52
2, 212091, Control_c, 0, 64, 57
2, 212097, Note_on_c, 0, 53, 0
2, 212106, Control_c, 0, 64, 60
2, 212121, Control_c, 0, 64, 63
2, 212136, Control_c, 0, 64, 66
2, 212151, Control_c, 0, 64, 72
2, 212167, Control_c, 0, 64, 82
2, 212167, Note_on_c, 0, 70, 86
2, 212182, Control_c, 0, 64, 101
2, 212197, Control_c, 0, 64, 127
2, 212220, Note_on_c, 0, 74, 0
2, 212221, Note_on_c, 0, 65, 0
2, 212380, Control_c, 0, 64, 110
2, 212388, Note_on_c, 0, 72, 90
2, 212390, Note_on_c, 0, 65, 87
2, 212394, Note_on_c, 0, 62, 90
2, 212395, Control_c, 0, 64, 80
2, 212411, Control_c, 0, 64, 63
2, 212425, Control_c, 0, 64, 24
2, 212430, Note_on_c, 0, 70, 0
2, 212432, Note_on_c, 0, 58, 0
2, 212440, Control_c, 0, 64, 0
2, 212456, Control_c, 0, 64, 17
2, 212478, Control_c, 0, 64, 34
2, 212494, Control_c, 0, 64, 45
2, 212509, Control_c, 0, 64, 54
2, 212525, Control_c, 0, 64, 61
2, 212540, Control_c, 0, 64, 66
2, 212554, Control_c, 0, 64, 73
2, 212570, Control_c, 0, 64, 92
2, 212585, Control_c, 0, 64, 127
2, 212634, Note_on_c, 0, 50, 0
2, 212637, Note_on_c, 0, 62, 0
2, 212698, Note_on_c, 0, 69, 90
2, 212759, Note_on_c, 0, 72, 0
2, 212777, Note_on_c, 0, 65, 0
2, 212850, Note_on_c, 0, 69, 0
2, 213198, Note_on_c, 0, 64, 85
2, 213198, Note_on_c, 0, 71, 83
2, 213199, Note_on_c, 0, 76, 84
2, 213201, Note_on_c, 0, 59, 84
2, 213201, Note_on_c, 0, 80, 86
2, 213207, Note_on_c, 0, 50, 62
2, 213252, Note_on_c, 0, 52, 32
2, 213253, Note_on_c, 0, 52, 0
2, 213262, Control_c, 0, 64, 110
2, 213276, Control_c, 0, 64, 79
2, 213292, Control_c, 0, 64, 61
2, 213307, Control_c, 0, 64, 40
2, 213322, Control_c, 0, 64, 35
2, 213338, Control_c, 0, 64, 37
2, 213352, Control_c, 0, 64, 38
2, 213368, Control_c, 0, 64, 39
2, 214029, Control_c, 0, 64, 39
2, 214120, Control_c, 0, 64, 40
2, 214166, Control_c, 0, 64, 40
2, 214257, Control_c, 0, 64, 41
2, 214349, Control_c, 0, 64, 41
2, 214410, Control_c, 0, 64, 42
2, 214440, Control_c, 0, 64, 42
2, 214486, Control_c, 0, 64, 43
2, 214532, Control_c, 0, 64, 43
2, 214561, Control_c, 0, 64, 44
2, 214591, Control_c, 0, 64, 44
2, 214622, Control_c, 0, 64, 45
2, 214637, Control_c, 0, 64, 46
2, 214653, Control_c, 0, 64, 46
2, 214667, Control_c, 0, 64, 47
2, 214682, Control_c, 0, 64, 48
2, 214698, Control_c, 0, 64, 49
2, 214713, Control_c, 0, 64, 50
2, 214729, Control_c, 0, 64, 51
2, 214744, Control_c, 0, 64, 52
2, 214759, Control_c, 0, 64, 54
2, 214782, Control_c, 0, 64, 55
2, 214797, Control_c, 0, 64, 56
2, 214812, Control_c, 0, 64, 56
2, 214827, Control_c, 0, 64, 57
2, 214842, Control_c, 0, 64, 58
2, 214858, Control_c, 0, 64, 59
2, 214888, Control_c, 0, 64, 59
2, 214903, Control_c, 0, 64, 60
2, 214934, Control_c, 0, 64, 60
2, 214963, Control_c, 0, 64, 61
2, 215010, Control_c, 0, 64, 61
2, 215193, Control_c, 0, 64, 62
2, 215238, Control_c, 0, 64, 62
2, 215254, Control_c, 0, 64, 63
2, 215269, Control_c, 0, 64, 64
2, 215285, Control_c, 0, 64, 65
2, 215300, Control_c, 0, 64, 67
2, 215314, Control_c, 0, 64, 71
2, 215330, Control_c, 0, 64, 75
2, 215345, Control_c, 0, 64, 80
2, 215359, Note_on_c, 0, 50, 0
2, 215359, Note_on_c, 0, 64, 0
2, 215360, Control_c, 0, 64, 83
2, 215370, Note_on_c, 0, 71, 0
2, 215375, Note_on_c, 0, 80, 0
2, 215376, Control_c, 0, 64, 85
2, 215391, Control_c, 0, 64, 85
2, 215418, Note_on_c, 0, 76, 0
2, 215452, Control_c, 0, 64, 85
2, 215456, Note_on_c, 0, 59, 0
2, 215467, Control_c, 0, 64, 84
2, 215482, Control_c, 0, 64, 82
2, 215498, Control_c, 0, 64, 80
2, 215512, Control_c, 0, 64, 78
2, 215528, Control_c, 0, 64, 75
2, 215551, Control_c, 0, 64, 71
2, 215567, Control_c, 0, 64, 67
2, 215581, Control_c, 0, 64, 64
2, 215596, Control_c, 0, 64, 62
2, 215612, Control_c, 0, 64, 59
2, 215627, Control_c, 0, 64, 57
2, 215642, Control_c, 0, 64, 55
2, 215657, Control_c, 0, 64, 52
2, 215672, Control_c, 0, 64, 48
2, 215688, Control_c, 0, 64, 45
2, 215703, Control_c, 0, 64, 44
2, 215718, Control_c, 0, 64, 42
2, 215733, Control_c, 0, 64, 38
2, 215748, Control_c, 0, 64, 29
2, 215763, Control_c, 0, 64, 17
2, 215778, Control_c, 0, 64, 9
2, 215793, Control_c, 0, 64, 0
2, 215932, Control_c, 0, 64, 12
2, 215947, Control_c, 0, 64, 17
2, 215961, Control_c, 0, 64, 21
2, 215977, Control_c, 0, 64, 23
2, 215982, Note_on_c, 0, 51, 74
2, 215983, Note_on_c, 0, 81, 80
2, 215988, Note_on_c, 0, 60, 84
2, 215992, Control_c, 0, 64, 25
2, 215997, Note_on_c, 0, 57, 78
2, 216007, Control_c, 0, 64, 26
2, 216022, Control_c, 0, 64, 28
2, 216037, Control_c, 0, 64, 28
2, 216129, Control_c, 0, 64, 31
2, 216144, Control_c, 0, 64, 40
2, 216159, Control_c, 0, 64, 51
2, 216175, Control_c, 0, 64, 56
2, 216190, Control_c, 0, 64, 59
2, 216206, Control_c, 0, 64, 62
2, 216211, Note_on_c, 0, 51, 0
2, 216220, Control_c, 0, 64, 63
2, 216235, Control_c, 0, 64, 64
2, 216243, Note_on_c, 0, 57, 0
2, 216251, Control_c, 0, 64, 66
2, 216281, Control_c, 0, 64, 65
2, 216306, Note_on_c, 0, 69, 85
2, 216318, Control_c, 0, 64, 65
2, 216334, Control_c, 0, 64, 64
2, 216349, Control_c, 0, 64, 62
2, 216365, Control_c, 0, 64, 60
2, 216380, Control_c, 0, 64, 58
2, 216394, Control_c, 0, 64, 56
2, 216403, Note_on_c, 0, 69, 0
2, 216410, Control_c, 0, 64, 53
2, 216423, Note_on_c, 0, 68, 83
2, 216425, Control_c, 0, 64, 49
2, 216440, Control_c, 0, 64, 38
2, 216456, Control_c, 0, 64, 30
2, 216471, Control_c, 0, 64, 27
2, 216487, Control_c, 0, 64, 26
2, 216501, Control_c, 0, 64, 26
2, 216516, Control_c, 0, 64, 23
2, 216532, Control_c, 0, 64, 18
2, 216547, Control_c, 0, 64, 12
2, 216562, Control_c, 0, 64, 0
2, 216569, Note_on_c, 0, 69, 92
2, 216578, Note_on_c, 0, 68, 0
2, 216700, Note_on_c, 0, 69, 0
2, 216853, Note_on_c, 0, 71, 91
2, 216955, Note_on_c, 0, 60, 0
2, 216966, Note_on_c, 0, 71, 0
2, 217142, Note_on_c, 0, 72, 95
2, 217147, Note_on_c, 0, 52, 73
2, 217147, Note_on_c, 0, 60, 92
2, 217148, Note_on_c, 0, 57, 78
2, 217178, Control_c, 0, 64, 9
2, 217193, Control_c, 0, 64, 37
2, 217209, Control_c, 0, 64, 52
2, 217223, Control_c, 0, 64, 59
2, 217238, Control_c, 0, 64, 63
2, 217248, Note_on_c, 0, 81, 0
2, 217254, Control_c, 0, 64, 65
2, 217257, Note_on_c, 0, 72, 0
2, 217269, Control_c, 0, 64, 66
2, 217285, Control_c, 0, 64, 66
2, 217300, Control_c, 0, 64, 65
2, 217315, Control_c, 0, 64, 64
2, 217331, Control_c, 0, 64, 61
2, 217345, Control_c, 0, 64, 58
2, 217360, Control_c, 0, 64, 54
2, 217376, Control_c, 0, 64, 52
2, 217407, Control_c, 0, 64, 54
2, 217421, Control_c, 0, 64, 56
2, 217423, Note_on_c, 0, 76, 83
2, 217426, Note_on_c, 0, 72, 81
2, 217436, Control_c, 0, 64, 59
2, 217452, Control_c, 0, 64, 60
2, 217466, Control_c, 0, 64, 60
2, 217467, Note_on_c, 0, 72, 0
2, 217481, Control_c, 0, 64, 61
2, 217490, Note_on_c, 0, 76, 0
2, 217512, Control_c, 0, 64, 60
2, 217528, Control_c, 0, 64, 58
2, 217532, Note_on_c, 0, 71, 80
2, 217532, Note_on_c, 0, 74, 83
2, 217546, Control_c, 0, 64, 53
2, 217562, Control_c, 0, 64, 47
2, 217576, Control_c, 0, 64, 40
2, 217591, Control_c, 0, 64, 36
2, 217600, Note_on_c, 0, 71, 0
2, 217607, Control_c, 0, 64, 36
2, 217638, Control_c, 0, 64, 36
2, 217673, Note_on_c, 0, 72, 90
2, 217674, Note_on_c, 0, 76, 88
2, 217682, Control_c, 0, 64, 38
2, 217691, Note_on_c, 0, 74, 0
2, 217696, Control_c, 0, 64, 42
2, 217698, Note_on_c, 0, 52, 0
2, 217711, Control_c, 0, 64, 49
2, 217727, Control_c, 0, 64, 56
2, 217739, Note_on_c, 0, 60, 0
2, 217742, Control_c, 0, 64, 61
2, 217746, Note_on_c, 0, 57, 0
2, 217754, Note_on_c, 0, 56, 6
2, 217758, Control_c, 0, 64, 64
2, 217773, Control_c, 0, 64, 68
2, 217782, Note_on_c, 0, 56, 0
2, 217788, Control_c, 0, 64, 74
2, 217804, Control_c, 0, 64, 82
2, 217813, Note_on_c, 0, 76, 0
2, 217819, Control_c, 0, 64, 91
2, 217833, Control_c, 0, 64, 95
2, 217856, Control_c, 0, 64, 93
2, 217862, Note_on_c, 0, 72, 0
2, 217871, Control_c, 0, 64, 88
2, 217887, Control_c, 0, 64, 81
2, 217902, Control_c, 0, 64, 74
2, 217916, Control_c, 0, 64, 68
2, 217932, Control_c, 0, 64, 62
2, 217947, Control_c, 0, 64, 55
2, 217963, Control_c, 0, 64, 50
2, 217964, Note_on_c, 0, 78, 85
2, 217965, Note_on_c, 0, 74, 85
2, 217978, Control_c, 0, 64, 47
2, 217992, Control_c, 0, 64, 46
2, 218008, Control_c, 0, 64, 46
2, 218023, Control_c, 0, 64, 48
2, 218039, Control_c, 0, 64, 52
2, 218054, Control_c, 0, 64, 58
2, 218069, Control_c, 0, 64, 61
2, 218085, Control_c, 0, 64, 63
2, 218100, Control_c, 0, 64, 64
2, 218114, Control_c, 0, 64, 64
2, 218122, Note_on_c, 0, 78, 0
2, 218130, Control_c, 0, 64, 65
2, 218131, Note_on_c, 0, 74, 0
2, 218161, Control_c, 0, 64, 64
2, 218176, Control_c, 0, 64, 64
2, 218190, Control_c, 0, 64, 63
2, 218206, Control_c, 0, 64, 61
2, 218221, Control_c, 0, 64, 58
2, 218226, Note_on_c, 0, 80, 85
2, 218231, Note_on_c, 0, 76, 79
2, 218233, Note_on_c, 0, 59, 83
2, 218234, Note_on_c, 0, 62, 84
2, 218235, Control_c, 0, 64, 54
2, 218235, Note_on_c, 0, 52, 75
2, 218251, Control_c, 0, 64, 51
2, 218266, Control_c, 0, 64, 49
2, 218282, Control_c, 0, 64, 48
2, 218297, Control_c, 0, 64, 47
2, 218311, Control_c, 0, 64, 47
2, 218363, Note_on_c, 0, 74, 83
2, 218403, Note_on_c, 0, 80, 0
2, 218424, Note_on_c, 0, 76, 0
2, 218492, Note_on_c, 0, 72, 82
2, 218494, Note_on_c, 0, 80, 86
2, 218505, Note_on_c, 0, 74, 0
2, 218593, Note_on_c, 0, 78, 82
2, 218600, Note_on_c, 0, 74, 82
2, 218624, Note_on_c, 0, 72, 0
2, 218640, Control_c, 0, 64, 46
2, 218642, Note_on_c, 0, 80, 0
2, 218655, Control_c, 0, 64, 45
2, 218669, Control_c, 0, 64, 43
2, 218685, Control_c, 0, 64, 39
2, 218700, Control_c, 0, 64, 33
2, 218715, Control_c, 0, 64, 26
2, 218731, Control_c, 0, 64, 23
2, 218741, Note_on_c, 0, 80, 86
2, 218743, Note_on_c, 0, 76, 85
2, 218746, Control_c, 0, 64, 22
2, 218758, Note_on_c, 0, 74, 0
2, 218776, Control_c, 0, 64, 24
2, 218791, Control_c, 0, 64, 36
2, 218807, Control_c, 0, 64, 50
2, 218822, Control_c, 0, 64, 59
2, 218826, Note_on_c, 0, 78, 0
2, 218836, Control_c, 0, 64, 64
2, 218840, Note_on_c, 0, 76, 0
2, 218852, Control_c, 0, 64, 68
2, 218867, Control_c, 0, 64, 74
2, 218880, Note_on_c, 0, 80, 0
2, 218883, Control_c, 0, 64, 81
2, 218898, Control_c, 0, 64, 85
2, 218922, Note_on_c, 0, 52, 0
2, 218929, Control_c, 0, 64, 82
2, 218944, Control_c, 0, 64, 77
2, 218959, Control_c, 0, 64, 70
2, 218974, Control_c, 0, 64, 63
2, 218989, Control_c, 0, 64, 54
2, 218998, Note_on_c, 0, 62, 0
2, 219005, Control_c, 0, 64, 47
2, 219020, Control_c, 0, 64, 46
2, 219026, Note_on_c, 0, 77, 91
2, 219029, Note_on_c, 0, 81, 86
2, 219034, Control_c, 0, 64, 47
2, 219044, Note_on_c, 0, 59, 0
2, 219050, Control_c, 0, 64, 50
2, 219065, Control_c, 0, 64, 55
2, 219080, Control_c, 0, 64, 61
2, 219095, Control_c, 0, 64, 65
2, 219110, Control_c, 0, 64, 70
2, 219126, Control_c, 0, 64, 82
2, 219141, Control_c, 0, 64, 107
2, 219156, Control_c, 0, 64, 127
2, 219160, Note_on_c, 0, 77, 0
2, 219163, Note_on_c, 0, 81, 0
2, 219309, Control_c, 0, 64, 96
2, 219325, Control_c, 0, 64, 84
2, 219326, Note_on_c, 0, 83, 85
2, 219329, Note_on_c, 0, 68, 93
2, 219340, Control_c, 0, 64, 76
2, 219355, Control_c, 0, 64, 70
2, 219371, Control_c, 0, 64, 66
2, 219393, Control_c, 0, 64, 63
2, 219409, Control_c, 0, 64, 60
2, 219424, Control_c, 0, 64, 59
2, 219429, Note_on_c, 0, 68, 0
2, 219439, Control_c, 0, 64, 57
2, 219454, Control_c, 0, 64, 55
2, 219459, Note_on_c, 0, 81, 81
2, 219469, Control_c, 0, 64, 54
2, 219485, Control_c, 0, 64, 53
2, 219541, Note_on_c, 0, 83, 0
2, 219590, Note_on_c, 0, 80, 83
2, 219602, Note_on_c, 0, 59, 74
2, 219607, Note_on_c, 0, 64, 73
2, 219636, Note_on_c, 0, 81, 0
2, 219714, Note_on_c, 0, 60, 74
2, 219724, Note_on_c, 0, 81, 87
2, 219731, Note_on_c, 0, 59, 0
2, 219744, Note_on_c, 0, 64, 0
2, 219769, Note_on_c, 0, 80, 0
2, 219788, Control_c, 0, 64, 53
2, 219818, Control_c, 0, 64, 52
2, 219833, Control_c, 0, 64, 51
2, 219849, Control_c, 0, 64, 49
2, 219864, Control_c, 0, 64, 46
2, 219880, Control_c, 0, 64, 43
2, 219882, Note_on_c, 0, 62, 81
2, 219888, Note_on_c, 0, 83, 91
2, 219895, Control_c, 0, 64, 42
2, 219913, Note_on_c, 0, 60, 0
2, 219940, Control_c, 0, 64, 42
2, 219955, Control_c, 0, 64, 46
2, 219955, Note_on_c, 0, 81, 0
2, 219971, Control_c, 0, 64, 51
2, 219986, Control_c, 0, 64, 56
2, 220002, Control_c, 0, 64, 60
2, 220017, Control_c, 0, 64, 63
2, 220029, Note_on_c, 0, 62, 0
2, 220032, Control_c, 0, 64, 67
2, 220048, Control_c, 0, 64, 74
2, 220050, Note_on_c, 0, 64, 88
2, 220063, Control_c, 0, 64, 88
2, 220078, Control_c, 0, 64, 127
2, 220127, Note_on_c, 0, 64, 0
2, 220222, Control_c, 0, 64, 100
2, 220236, Control_c, 0, 64, 80
2, 220252, Control_c, 0, 64, 65
2, 220256, Note_on_c, 0, 84, 89
2, 220257, Note_on_c, 0, 66, 83
2, 220260, Note_on_c, 0, 83, 0
2, 220264, Note_on_c, 0, 69, 91
2, 220267, Control_c, 0, 64, 38
2, 220283, Control_c, 0, 64, 11
2, 220298, Control_c, 0, 64, 12
2, 220313, Control_c, 0, 64, 17
2, 220329, Control_c, 0, 64, 28
2, 220344, Control_c, 0, 64, 40
2, 220359, Control_c, 0, 64, 51
2, 220374, Control_c, 0, 64, 58
2, 220389, Control_c, 0, 64, 62
2, 220405, Control_c, 0, 64, 66
2, 220420, Control_c, 0, 64, 73
2, 220434, Control_c, 0, 64, 87
2, 220450, Control_c, 0, 64, 127
2, 220454, Note_on_c, 0, 84, 0
2, 220475, Note_on_c, 0, 68, 96
2, 220509, Note_on_c, 0, 69, 0
2, 220537, Note_on_c, 0, 66, 0
2, 220554, Note_on_c, 0, 68, 0
2, 220809, Note_on_c, 0, 71, 86
2, 220810, Note_on_c, 0, 69, 83
2, 220812, Note_on_c, 0, 66, 89
2, 220815, Note_on_c, 0, 75, 84
2, 220820, Note_on_c, 0, 54, 77
2, 220822, Note_on_c, 0, 57, 70
2, 220860, Control_c, 0, 64, 93
2, 220874, Control_c, 0, 64, 75
2, 220889, Note_on_c, 0, 56, 32
2, 220890, Control_c, 0, 64, 64
2, 220905, Control_c, 0, 64, 50
2, 220928, Control_c, 0, 64, 41
2, 220943, Control_c, 0, 64, 41
2, 220959, Control_c, 0, 64, 41
2, 220989, Control_c, 0, 64, 40
2, 221004, Control_c, 0, 64, 40
2, 221019, Control_c, 0, 64, 39
2, 221323, Control_c, 0, 64, 40
2, 221338, Control_c, 0, 64, 40
2, 221339, Note_on_c, 0, 56, 0
2, 221352, Control_c, 0, 64, 41
2, 221368, Control_c, 0, 64, 42
2, 221383, Control_c, 0, 64, 44
2, 221399, Control_c, 0, 64, 46
2, 221414, Control_c, 0, 64, 49
2, 221429, Control_c, 0, 64, 52
2, 221445, Control_c, 0, 64, 55
2, 221460, Control_c, 0, 64, 58
2, 221475, Control_c, 0, 64, 62
2, 221490, Control_c, 0, 64, 65
2, 221505, Control_c, 0, 64, 71
2, 221521, Control_c, 0, 64, 85
2, 221535, Control_c, 0, 64, 127
2, 221590, Note_on_c, 0, 69, 0
2, 221626, Note_on_c, 0, 54, 0
2, 221641, Note_on_c, 0, 71, 0
2, 221643, Note_on_c, 0, 66, 0
2, 221669, Note_on_c, 0, 75, 0
2, 221670, Note_on_c, 0, 57, 0
2, 221756, Control_c, 0, 64, 94
2, 221772, Control_c, 0, 64, 80
2, 221787, Control_c, 0, 64, 71
2, 221803, Control_c, 0, 64, 64
2, 221818, Control_c, 0, 64, 58
2, 221832, Control_c, 0, 64, 52
2, 221848, Control_c, 0, 64, 48
2, 221863, Control_c, 0, 64, 44
2, 221879, Control_c, 0, 64, 38
2, 221894, Control_c, 0, 64, 29
2, 221909, Control_c, 0, 64, 25
2, 221924, Control_c, 0, 64, 23
2, 221939, Control_c, 0, 64, 22
2, 221954, Control_c, 0, 64, 21
2, 221970, Control_c, 0, 64, 21
2, 221991, Note_on_c, 0, 76, 77
2, 221993, Note_on_c, 0, 71, 67
2, 221998, Note_on_c, 0, 56, 67
2, 221998, Note_on_c, 0, 64, 62
2, 222003, Note_on_c, 0, 59, 70
2, 222030, Control_c, 0, 64, 21
2, 222046, Control_c, 0, 64, 28
2, 222060, Control_c, 0, 64, 39
2, 222075, Control_c, 0, 64, 52
2, 222091, Control_c, 0, 64, 59
2, 222106, Control_c, 0, 64, 65
2, 222118, Note_on_c, 0, 64, 0
2, 222118, Note_on_c, 0, 76, 0
2, 222122, Control_c, 0, 64, 72
2, 222127, Note_on_c, 0, 59, 0
2, 222136, Control_c, 0, 64, 86
2, 222137, Note_on_c, 0, 71, 0
2, 222142, Note_on_c, 0, 56, 0
2, 222151, Control_c, 0, 64, 127
2, 222304, Control_c, 0, 64, 99
2, 222319, Control_c, 0, 64, 80
2, 222334, Control_c, 0, 64, 66
2, 222334, Note_on_c, 0, 64, 70
2, 222337, Note_on_c, 0, 69, 78
2, 222337, Note_on_c, 0, 72, 80
2, 222340, Note_on_c, 0, 57, 72
2, 222340, Note_on_c, 0, 60, 80
2, 222349, Control_c, 0, 64, 51
2, 222365, Control_c, 0, 64, 26
2, 222379, Control_c, 0, 64, 25
2, 222410, Control_c, 0, 64, 30
2, 222425, Control_c, 0, 64, 40
2, 222441, Control_c, 0, 64, 53
2, 222464, Control_c, 0, 64, 62
2, 222474, Note_on_c, 0, 64, 0
2, 222480, Control_c, 0, 64, 68
2, 222494, Control_c, 0, 64, 79
2, 222496, Note_on_c, 0, 57, 0
2, 222509, Control_c, 0, 64, 112
2, 222510, Note_on_c, 0, 69, 0
2, 222518, Note_on_c, 0, 72, 0
2, 222525, Control_c, 0, 64, 127
2, 222542, Note_on_c, 0, 60, 0
2, 222692, Control_c, 0, 64, 91
2, 222695, Note_on_c, 0, 71, 86
2, 222697, Note_on_c, 0, 50, 73
2, 222698, Note_on_c, 0, 65, 79
2, 222703, Note_on_c, 0, 62, 89
2, 222707, Control_c, 0, 64, 74
2, 222723, Control_c, 0, 64, 61
2, 222738, Control_c, 0, 64, 39
2, 222753, Control_c, 0, 64, 27
2, 222768, Control_c, 0, 64, 27
2, 222783, Control_c, 0, 64, 28
2, 222799, Control_c, 0, 64, 34
2, 222814, Control_c, 0, 64, 43
2, 222828, Control_c, 0, 64, 51
2, 222844, Control_c, 0, 64, 57
2, 222859, Control_c, 0, 64, 61
2, 222861, Note_on_c, 0, 50, 0
2, 222874, Control_c, 0, 64, 65
2, 222887, Note_on_c, 0, 69, 90
2, 222890, Control_c, 0, 64, 72
2, 222904, Control_c, 0, 64, 90
2, 222912, Note_on_c, 0, 62, 0
2, 222912, Note_on_c, 0, 71, 0
2, 222916, Note_on_c, 0, 65, 0
2, 222920, Control_c, 0, 64, 127
2, 222990, Note_on_c, 0, 69, 0
2, 223101, Note_on_c, 0, 69, 84
2, 223102, Control_c, 0, 64, 91
2, 223102, Note_on_c, 0, 64, 81
2, 223103, Note_on_c, 0, 52, 67
2, 223105, Note_on_c, 0, 60, 85
2, 223105, Note_on_c, 0, 72, 85
2, 223116, Control_c, 0, 64, 71
2, 223132, Control_c, 0, 64, 54
2, 223147, Control_c, 0, 64, 28
2, 223163, Control_c, 0, 64, 24
2, 223230, Control_c, 0, 64, 28
2, 223246, Control_c, 0, 64, 36
2, 223261, Control_c, 0, 64, 45
2, 223278, Control_c, 0, 64, 51
2, 223293, Control_c, 0, 64, 56
2, 223308, Control_c, 0, 64, 59
2, 223324, Control_c, 0, 64, 62
2, 223338, Control_c, 0, 64, 64
2, 223351, Note_on_c, 0, 71, 82
2, 223353, Control_c, 0, 64, 68
2, 223369, Control_c, 0, 64, 76
2, 223384, Control_c, 0, 64, 93
2, 223392, Note_on_c, 0, 64, 0
2, 223400, Control_c, 0, 64, 127
2, 223402, Note_on_c, 0, 69, 0
2, 223407, Note_on_c, 0, 72, 0
2, 223484, Note_on_c, 0, 71, 0
2, 223620, Note_on_c, 0, 69, 88
2, 223627, Control_c, 0, 64, 107
2, 223627, Note_on_c, 0, 62, 79
2, 223628, Note_on_c, 0, 59, 75
2, 223643, Control_c, 0, 64, 82
2, 223658, Control_c, 0, 64, 67
2, 223672, Control_c, 0, 64, 54
2, 223678, Note_on_c, 0, 56, 34
2, 223687, Note_on_c, 0, 60, 0
2, 223688, Control_c, 0, 64, 32
2, 223703, Control_c, 0, 64, 30
2, 223734, Control_c, 0, 64, 29
2, 223748, Control_c, 0, 64, 28
2, 223764, Control_c, 0, 64, 27
2, 223779, Control_c, 0, 64, 26
2, 223794, Control_c, 0, 64, 25
2, 223810, Control_c, 0, 64, 24
2, 223811, Note_on_c, 0, 56, 0
2, 223825, Control_c, 0, 64, 23
2, 223841, Control_c, 0, 64, 19
2, 223856, Control_c, 0, 64, 9
2, 223870, Control_c, 0, 64, 0
2, 223955, Note_on_c, 0, 68, 83
2, 223968, Note_on_c, 0, 69, 0
2, 224030, Control_c, 0, 64, 29
2, 224046, Control_c, 0, 64, 48
2, 224060, Note_on_c, 0, 62, 0
2, 224061, Control_c, 0, 64, 59
2, 224075, Control_c, 0, 64, 66
2, 224091, Control_c, 0, 64, 79
2, 224098, Note_on_c, 0, 59, 0
2, 224107, Control_c, 0, 64, 127
2, 224116, Note_on_c, 0, 68, 0
2, 224144, Note_on_c, 0, 52, 0
2, 224428, Note_on_c, 0, 69, 77
2, 224429, Note_on_c, 0, 61, 71
2, 224431, Note_on_c, 0, 64, 80
2, 224433, Note_on_c, 0, 45, 76
2, 224433, Note_on_c, 0, 57, 82
2, 224471, Control_c, 0, 64, 92
2, 224487, Control_c, 0, 64, 75
2, 224502, Control_c, 0, 64, 65
2, 224518, Control_c, 0, 64, 54
2, 224533, Control_c, 0, 64, 42
2, 224548, Control_c, 0, 64, 38
2, 224563, Control_c, 0, 64, 33
2, 224578, Control_c, 0, 64, 25
2, 224592, Control_c, 0, 64, 17
2, 224608, Control_c, 0, 64, 17
2, 224654, Control_c, 0, 64, 25
2, 224668, Control_c, 0, 64, 39
2, 224684, Control_c, 0, 64, 51
2, 224699, Control_c, 0, 64, 59
2, 224713, Control_c, 0, 64, 64
2, 224729, Control_c, 0, 64, 70
2, 224744, Control_c, 0, 64, 84
2, 224768, Control_c, 0, 64, 127
2, 224899, Note_on_c, 0, 57, 0
2, 225036, Note_on_c, 0, 57, 84
2, 225102, Control_c, 0, 64, 100
2, 225112, Note_on_c, 0, 61, 0
2, 225118, Control_c, 0, 64, 83
2, 225133, Control_c, 0, 64, 69
2, 225147, Control_c, 0, 64, 60
2, 225163, Control_c, 0, 64, 50
2, 225178, Control_c, 0, 64, 48
2, 225187, Note_on_c, 0, 58, 85
2, 225193, Control_c, 0, 64, 48
2, 225205, Note_on_c, 0, 64, 0
2, 225209, Control_c, 0, 64, 46
2, 225221, Control_c, 0, 64, 43
2, 225224, Note_on_c, 0, 57, 0
2, 225236, Control_c, 0, 64, 40
2, 225252, Control_c, 0, 64, 39
2, 225352, Note_on_c, 0, 57, 87
2, 225389, Control_c, 0, 64, 39
2, 225405, Control_c, 0, 64, 40
2, 225409, Note_on_c, 0, 58, 0
2, 225434, Control_c, 0, 64, 40
2, 225531, Note_on_c, 0, 57, 0
2, 225533, Control_c, 0, 64, 41
2, 225659, Note_on_c, 0, 64, 82
2, 225662, Note_on_c, 0, 55, 87
2, 225762, Control_c, 0, 64, 40
2, 225778, Control_c, 0, 64, 39
2, 225792, Control_c, 0, 64, 37
2, 225794, Note_on_c, 0, 64, 0
2, 225808, Control_c, 0, 64, 30
2, 225823, Control_c, 0, 64, 20
2, 225832, Note_on_c, 0, 55, 0
2, 225838, Control_c, 0, 64, 0
2, 225961, Note_on_c, 0, 53, 92
2, 225963, Note_on_c, 0, 57, 85
2, 225989, Control_c, 0, 64, 9
2, 226005, Control_c, 0, 64, 36
2, 226020, Control_c, 0, 64, 53
2, 226035, Control_c, 0, 64, 62
2, 226051, Control_c, 0, 64, 68
2, 226051, Note_on_c, 0, 57, 0
2, 226065, Control_c, 0, 64, 79
2, 226080, Control_c, 0, 64, 114
2, 226096, Control_c, 0, 64, 127
2, 226098, Note_on_c, 0, 69, 0
2, 226134, Note_on_c, 0, 53, 0
2, 226218, Control_c, 0, 64, 112
2, 226233, Control_c, 0, 64, 95
2, 226249, Control_c, 0, 64, 86
2, 226260, Note_on_c, 0, 53, 85
2, 226264, Control_c, 0, 64, 80
2, 226264, Note_on_c, 0, 69, 90
2, 226278, Control_c, 0, 64, 74
2, 226301, Control_c, 0, 64, 68
2, 226316, Control_c, 0, 64, 63
2, 226331, Control_c, 0, 64, 57
2, 226346, Control_c, 0, 64, 52
2, 226361, Control_c, 0, 64, 50
2, 226377, Control_c, 0, 64, 48
2, 226389, Note_on_c, 0, 70, 83
2, 226391, Note_on_c, 0, 55, 79
2, 226392, Control_c, 0, 64, 46
2, 226400, Note_on_c, 0, 53, 0
2, 226408, Control_c, 0, 64, 44
2, 226415, Note_on_c, 0, 69, 0
2, 226423, Control_c, 0, 64, 42
2, 226438, Control_c, 0, 64, 41
2, 226535, Note_on_c, 0, 69, 89
2, 226542, Note_on_c, 0, 53, 80
2, 226576, Note_on_c, 0, 70, 0
2, 226579, Note_on_c, 0, 55, 0
2, 226689, Note_on_c, 0, 69, 0
2, 226708, Note_on_c, 0, 53, 0
2, 226712, Control_c, 0, 64, 41
2, 226728, Control_c, 0, 64, 40
2, 226743, Control_c, 0, 64, 37
2, 226757, Control_c, 0, 64, 27
2, 226773, Control_c, 0, 64, 0
2, 226831, Note_on_c, 0, 52, 77
2, 226832, Note_on_c, 0, 67, 84
2, 226966, Note_on_c, 0, 52, 0
2, 226974, Note_on_c, 0, 67, 0
2, 227128, Note_on_c, 0, 65, 87
2, 227132, Note_on_c, 0, 50, 75
2, 227160, Control_c, 0, 64, 15
2, 227175, Control_c, 0, 64, 44
2, 227190, Control_c, 0, 64, 58
2, 227206, Control_c, 0, 64, 64
2, 227221, Control_c, 0, 64, 69
2, 227236, Control_c, 0, 64, 78
2, 227239, Note_on_c, 0, 65, 0
2, 227252, Control_c, 0, 64, 89
2, 227267, Control_c, 0, 64, 104
2, 227267, Note_on_c, 0, 52, 79
2, 227281, Control_c, 0, 64, 116
2, 227288, Note_on_c, 0, 50, 0
2, 227297, Control_c, 0, 64, 111
2, 227312, Control_c, 0, 64, 104
2, 227328, Control_c, 0, 64, 97
2, 227343, Control_c, 0, 64, 93
2, 227358, Control_c, 0, 64, 88
2, 227374, Control_c, 0, 64, 83
2, 227389, Control_c, 0, 64, 78
2, 227405, Control_c, 0, 64, 73
2, 227406, Note_on_c, 0, 74, 84
2, 227408, Note_on_c, 0, 53, 81
2, 227414, Note_on_c, 0, 65, 80
2, 227420, Control_c, 0, 64, 68
2, 227425, Note_on_c, 0, 52, 0
2, 227434, Control_c, 0, 64, 64
2, 227450, Control_c, 0, 64, 60
2, 227465, Control_c, 0, 64, 56
2, 227480, Control_c, 0, 64, 53
2, 227496, Control_c, 0, 64, 50
2, 227511, Control_c, 0, 64, 44
2, 227521, Note_on_c, 0, 73, 78
2, 227527, Control_c, 0, 64, 34
2, 227528, Note_on_c, 0, 67, 80
2, 227532, Note_on_c, 0, 52, 76
2, 227536, Note_on_c, 0, 65, 0
2, 227542, Control_c, 0, 64, 20
2, 227553, Note_on_c, 0, 53, 0
2, 227556, Control_c, 0, 64, 0
2, 227558, Note_on_c, 0, 74, 0
2, 227670, Note_on_c, 0, 50, 75
2, 227672, Note_on_c, 0, 74, 87
2, 227673, Note_on_c, 0, 65, 80
2, 227694, Control_c, 0, 64, 35
2, 227701, Note_on_c, 0, 67, 0
2, 227702, Note_on_c, 0, 52, 0
2, 227709, Control_c, 0, 64, 54
2, 227725, Control_c, 0, 64, 62
2, 227740, Control_c, 0, 64, 66
2, 227754, Control_c, 0, 64, 73
2, 227758, Note_on_c, 0, 73, 0
2, 227770, Control_c, 0, 64, 85
2, 227778, Note_on_c, 0, 65, 0
2, 227785, Control_c, 0, 64, 105
2, 227787, Note_on_c, 0, 74, 0
2, 227798, Note_on_c, 0, 50, 0
2, 227800, Control_c, 0, 64, 127
2, 227815, Control_c, 0, 64, 104
2, 227838, Control_c, 0, 64, 86
2, 227854, Control_c, 0, 64, 72
2, 227869, Control_c, 0, 64, 61
2, 227885, Control_c, 0, 64, 45
2, 227899, Control_c, 0, 64, 39
2, 227930, Control_c, 0, 64, 39
2, 227945, Control_c, 0, 64, 43
2, 227960, Control_c, 0, 64, 51
2, 227967, Note_on_c, 0, 49, 75
2, 227968, Note_on_c, 0, 76, 86
2, 227973, Note_on_c, 0, 64, 83
2, 227975, Control_c, 0, 64, 59
2, 227990, Control_c, 0, 64, 65
2, 228006, Control_c, 0, 64, 74
2, 228019, Note_on_c, 0, 64, 0
2, 228020, Control_c, 0, 64, 97
2, 228025, Note_on_c, 0, 76, 0
2, 228035, Control_c, 0, 64, 127
2, 228090, Note_on_c, 0, 49, 0
2, 228107, Note_on_c, 0, 62, 85
2, 228160, Note_on_c, 0, 62, 0
2, 228264, Control_c, 0, 64, 117
2, 228279, Control_c, 0, 64, 79
2, 228288, Note_on_c, 0, 50, 85
2, 228288, Note_on_c, 0, 77, 94
2, 228295, Control_c, 0, 64, 63
2, 228310, Control_c, 0, 64, 37
2, 228325, Control_c, 0, 64, 20
2, 228340, Control_c, 0, 64, 28
2, 228355, Control_c, 0, 64, 44
2, 228371, Control_c, 0, 64, 54
2, 228374, Note_on_c, 0, 45, 0
2, 228386, Control_c, 0, 64, 63
2, 228393, Note_on_c, 0, 50, 0
2, 228400, Control_c, 0, 64, 70
2, 228416, Control_c, 0, 64, 85
2, 228431, Control_c, 0, 64, 127
2, 228458, Note_on_c, 0, 77, 0
2, 228562, Note_on_c, 0, 69, 74
2, 228562, Note_on_c, 0, 77, 90
2, 228567, Note_on_c, 0, 53, 78
2, 228569, Note_on_c, 0, 57, 76
2, 228602, Note_on_c, 0, 69, 0
2, 228632, Note_on_c, 0, 57, 0
2, 228672, Note_on_c, 0, 53, 0
2, 228676, Note_on_c, 0, 59, 69
2, 228681, Note_on_c, 0, 76, 86
2, 228686, Note_on_c, 0, 67, 84
2, 228717, Note_on_c, 0, 77, 0
2, 228725, Note_on_c, 0, 59, 0
2, 228771, Note_on_c, 0, 67, 0
2, 228802, Control_c, 0, 64, 94
2, 228818, Control_c, 0, 64, 73
2, 228833, Control_c, 0, 64, 59
2, 228848, Note_on_c, 0, 77, 94
2, 228849, Control_c, 0, 64, 30
2, 228853, Note_on_c, 0, 61, 90
2, 228853, Note_on_c, 0, 69, 91
2, 228859, Note_on_c, 0, 52, 79
2, 228863, Control_c, 0, 64, 25
2, 228878, Control_c, 0, 64, 30
2, 228891, Note_on_c, 0, 76, 0
2, 228894, Control_c, 0, 64, 41
2, 228909, Control_c, 0, 64, 50
2, 228925, Control_c, 0, 64, 59
2, 228939, Control_c, 0, 64, 65
2, 228954, Control_c, 0, 64, 73
2, 228957, Note_on_c, 0, 52, 0
2, 228960, Note_on_c, 0, 69, 0
2, 228962, Note_on_c, 0, 61, 0
2, 228970, Control_c, 0, 64, 90
2, 228985, Control_c, 0, 64, 127
2, 229025, Note_on_c, 0, 77, 0
2, 229092, Control_c, 0, 64, 98
2, 229107, Control_c, 0, 64, 76
2, 229122, Control_c, 0, 64, 62
2, 229134, Note_on_c, 0, 50, 73
2, 229138, Control_c, 0, 64, 46
2, 229138, Note_on_c, 0, 62, 83
2, 229141, Note_on_c, 0, 79, 87
2, 229143, Note_on_c, 0, 71, 86
2, 229153, Control_c, 0, 64, 51
2, 229169, Control_c, 0, 64, 58
2, 229184, Control_c, 0, 64, 63
2, 229187, Note_on_c, 0, 62, 0
2, 229198, Control_c, 0, 64, 67
2, 229205, Note_on_c, 0, 50, 0
2, 229214, Control_c, 0, 64, 77
2, 229229, Control_c, 0, 64, 107
2, 229245, Control_c, 0, 64, 127
2, 229292, Note_on_c, 0, 79, 0
2, 229299, Note_on_c, 0, 45, 91
2, 229343, Note_on_c, 0, 45, 0
2, 229544, Note_on_c, 0, 64, 93
2, 229546, Note_on_c, 0, 55, 86
2, 229546, Note_on_c, 0, 73, 83
2, 229553, Note_on_c, 0, 81, 82
2, 229572, Control_c, 0, 64, 100
2, 229586, Control_c, 0, 64, 79
2, 229601, Control_c, 0, 64, 70
2, 229617, Control_c, 0, 64, 69
2, 229631, Control_c, 0, 64, 71
2, 229647, Control_c, 0, 64, 74
2, 229662, Control_c, 0, 64, 78
2, 229677, Control_c, 0, 64, 85
2, 229680, Note_on_c, 0, 71, 0
2, 229693, Control_c, 0, 64, 96
2, 229707, Control_c, 0, 64, 119
2, 229722, Control_c, 0, 64, 127
2, 229731, Note_on_c, 0, 79, 82
2, 229752, Note_on_c, 0, 73, 0
2, 229866, Note_on_c, 0, 77, 87
2, 229866, Note_on_c, 0, 81, 0
2, 229876, Note_on_c, 0, 73, 82
2, 229891, Control_c, 0, 64, 101
2, 229904, Note_on_c, 0, 79, 0
2, 229906, Control_c, 0, 64, 91
2, 229921, Control_c, 0, 64, 96
2, 229936, Control_c, 0, 64, 111
2, 229951, Control_c, 0, 64, 127
2, 230002, Note_on_c, 0, 71, 87
2, 230002, Note_on_c, 0, 79, 88
2, 230031, Note_on_c, 0, 73, 0
2, 230049, Note_on_c, 0, 77, 0
2, 230202, Control_c, 0, 64, 87
2, 230206, Note_on_c, 0, 73, 94
2, 230209, Note_on_c, 0, 81, 86
2, 230217, Control_c, 0, 64, 71
2, 230232, Control_c, 0, 64, 62
2, 230248, Control_c, 0, 64, 61
2, 230252, Note_on_c, 0, 71, 0
2, 230263, Control_c, 0, 64, 65
2, 230278, Control_c, 0, 64, 70
2, 230294, Control_c, 0, 64, 83
2, 230309, Control_c, 0, 64, 127
2, 230316, Note_on_c, 0, 79, 0
2, 230327, Note_on_c, 0, 64, 0
2, 230354, Note_on_c, 0, 73, 0
2, 230584, Note_on_c, 0, 55, 0
2, 230584, Note_on_c, 0, 82, 85
2, 230588, Note_on_c, 0, 74, 81
2, 230595, Note_on_c, 0, 62, 88
2, 230597, Control_c, 0, 64, 90
2, 230602, Note_on_c, 0, 53, 78
2, 230615, Control_c, 0, 64, 70
2, 230626, Note_on_c, 0, 81, 0
2, 230629, Control_c, 0, 64, 55
2, 230645, Control_c, 0, 64, 41
2, 230661, Control_c, 0, 64, 47
2, 230676, Control_c, 0, 64, 58
2, 230692, Control_c, 0, 64, 65
2, 230706, Control_c, 0, 64, 75
2, 230722, Control_c, 0, 64, 127
2, 230728, Note_on_c, 0, 74, 0
2, 230735, Note_on_c, 0, 82, 0
2, 230736, Note_on_c, 0, 62, 0
2, 230776, Note_on_c, 0, 53, 0
2, 231039, Note_on_c, 0, 64, 78
2, 231042, Note_on_c, 0, 76, 82
2, 231043, Note_on_c, 0, 52, 87
2, 231043, Note_on_c, 0, 73, 75
2, 231047, Note_on_c, 0, 45, 75
2, 231063, Control_c, 0, 64, 111
2, 231079, Control_c, 0, 64, 84
2, 231094, Control_c, 0, 64, 69
2, 231109, Control_c, 0, 64, 60
2, 231124, Control_c, 0, 64, 48
2, 231139, Control_c, 0, 64, 47
2, 231185, Control_c, 0, 64, 48
2, 231196, Note_on_c, 0, 76, 0
2, 231201, Control_c, 0, 64, 51
2, 231216, Control_c, 0, 64, 55
2, 231231, Control_c, 0, 64, 60
2, 231244, Note_on_c, 0, 74, 73
2, 231247, Control_c, 0, 64, 63
2, 231262, Control_c, 0, 64, 64
2, 231273, Note_on_c, 0, 73, 0
2, 231276, Control_c, 0, 64, 66
2, 231289, Note_on_c, 0, 76, 30
2, 231292, Control_c, 0, 64, 67
2, 231307, Control_c, 0, 64, 69
2, 231322, Control_c, 0, 64, 71
2, 231323, Note_on_c, 0, 76, 0
2, 231337, Control_c, 0, 64, 73
2, 231352, Control_c, 0, 64, 74
2, 231383, Control_c, 0, 64, 73
2, 231397, Control_c, 0, 64, 73
2, 231413, Control_c, 0, 64, 71
2, 231428, Control_c, 0, 64, 67
2, 231436, Note_on_c, 0, 69, 78
2, 231439, Note_on_c, 0, 73, 83
2, 231443, Control_c, 0, 64, 62
2, 231458, Control_c, 0, 64, 54
2, 231475, Control_c, 0, 64, 44
2, 231475, Note_on_c, 0, 74, 0
2, 231491, Control_c, 0, 64, 40
2, 231506, Control_c, 0, 64, 39
2, 231537, Control_c, 0, 64, 39
2, 231551, Control_c, 0, 64, 43
2, 231567, Control_c, 0, 64, 48
2, 231582, Control_c, 0, 64, 53
2, 231597, Control_c, 0, 64, 58
2, 231613, Control_c, 0, 64, 60
2, 231627, Control_c, 0, 64, 62
2, 231643, Control_c, 0, 64, 63
2, 231643, Note_on_c, 0, 74, 83
2, 231658, Control_c, 0, 64, 65
2, 231681, Control_c, 0, 64, 67
2, 231692, Note_on_c, 0, 73, 0
2, 231696, Control_c, 0, 64, 70
2, 231711, Control_c, 0, 64, 73
2, 231727, Control_c, 0, 64, 77
2, 231742, Control_c, 0, 64, 78
2, 231756, Control_c, 0, 64, 79
2, 231832, Control_c, 0, 64, 78
2, 231848, Control_c, 0, 64, 78
2, 231863, Control_c, 0, 64, 76
2, 231879, Control_c, 0, 64, 74
2, 231894, Control_c, 0, 64, 71
2, 231906, Control_c, 0, 64, 65
2, 231919, Note_on_c, 0, 76, 84
2, 231921, Control_c, 0, 64, 55
2, 231937, Control_c, 0, 64, 33
2, 231951, Control_c, 0, 64, 0
2, 231954, Note_on_c, 0, 74, 0
2, 232042, Control_c, 0, 64, 27
2, 232058, Control_c, 0, 64, 50
2, 232073, Control_c, 0, 64, 62
2, 232079, Note_on_c, 0, 64, 0
2, 232088, Control_c, 0, 64, 70
2, 232103, Control_c, 0, 64, 92
2, 232112, Note_on_c, 0, 45, 0
2, 232118, Control_c, 0, 64, 127
2, 232133, Note_on_c, 0, 76, 0
2, 232170, Note_on_c, 0, 52, 0
2, 232467, Note_on_c, 0, 50, 79
2, 232467, Note_on_c, 0, 77, 86
2, 232470, Note_on_c, 0, 65, 78
2, 232473, Note_on_c, 0, 74, 75
2, 232491, Control_c, 0, 64, 86
2, 232506, Control_c, 0, 64, 67
2, 232520, Control_c, 0, 64, 48
2, 232536, Control_c, 0, 64, 13
2, 232538, Note_on_c, 0, 69, 0
2, 232567, Control_c, 0, 64, 24
2, 232582, Control_c, 0, 64, 38
2, 232596, Control_c, 0, 64, 49
2, 232612, Control_c, 0, 64, 57
2, 232627, Control_c, 0, 64, 62
2, 232642, Control_c, 0, 64, 67
2, 232658, Control_c, 0, 64, 74
2, 232672, Control_c, 0, 64, 89
2, 232688, Control_c, 0, 64, 127
2, 232810, Note_on_c, 0, 64, 82
2, 232886, Note_on_c, 0, 65, 0
2, 232949, Note_on_c, 0, 64, 0
2, 233219, Note_on_c, 0, 68, 82
2, 233222, Note_on_c, 0, 59, 81
2, 233228, Note_on_c, 0, 62, 87
2, 233259, Control_c, 0, 64, 119
2, 233274, Control_c, 0, 64, 88
2, 233290, Control_c, 0, 64, 71
2, 233305, Control_c, 0, 64, 60
2, 233319, Control_c, 0, 64, 39
2, 233335, Control_c, 0, 64, 22
2, 233350, Control_c, 0, 64, 21
2, 233364, Control_c, 0, 64, 19
2, 233380, Control_c, 0, 64, 11
2, 233395, Control_c, 0, 64, 0
2, 233456, Control_c, 0, 64, 17
2, 233471, Control_c, 0, 64, 24
2, 233487, Control_c, 0, 64, 29
2, 233502, Control_c, 0, 64, 34
2, 233516, Control_c, 0, 64, 39
2, 233532, Control_c, 0, 64, 44
2, 233547, Control_c, 0, 64, 47
2, 233562, Control_c, 0, 64, 49
2, 233577, Control_c, 0, 64, 51
2, 233592, Control_c, 0, 64, 51
2, 233608, Control_c, 0, 64, 52
2, 233623, Control_c, 0, 64, 52
2, 233638, Control_c, 0, 64, 53
2, 233654, Control_c, 0, 64, 54
2, 233665, Note_on_c, 0, 72, 79
2, 233669, Control_c, 0, 64, 54
2, 233683, Control_c, 0, 64, 55
2, 233699, Control_c, 0, 64, 55
2, 233714, Control_c, 0, 64, 56
2, 233730, Control_c, 0, 64, 57
2, 233745, Control_c, 0, 64, 58
2, 233760, Control_c, 0, 64, 59
2, 233775, Control_c, 0, 64, 59
2, 233790, Control_c, 0, 64, 60
2, 233806, Control_c, 0, 64, 60
2, 233821, Control_c, 0, 64, 61
2, 233836, Control_c, 0, 64, 61
2, 233866, Control_c, 0, 64, 62
2, 233921, Note_on_c, 0, 71, 82
2, 233929, Control_c, 0, 64, 62
2, 233958, Control_c, 0, 64, 63
2, 233979, Note_on_c, 0, 72, 0
2, 233981, Control_c, 0, 64, 63
2, 233996, Control_c, 0, 64, 64
2, 234011, Control_c, 0, 64, 65
2, 234026, Control_c, 0, 64, 66
2, 234041, Control_c, 0, 64, 67
2, 234057, Control_c, 0, 64, 67
2, 234072, Control_c, 0, 64, 67
2, 234088, Control_c, 0, 64, 66
2, 234103, Control_c, 0, 64, 65
2, 234108, Note_on_c, 0, 74, 0
2, 234118, Control_c, 0, 64, 65
2, 234132, Note_on_c, 0, 72, 85
2, 234134, Control_c, 0, 64, 66
2, 234149, Control_c, 0, 64, 67
2, 234152, Note_on_c, 0, 68, 0
2, 234163, Control_c, 0, 64, 69
2, 234176, Note_on_c, 0, 71, 0
2, 234179, Control_c, 0, 64, 74
2, 234182, Note_on_c, 0, 77, 0
2, 234194, Control_c, 0, 64, 82
2, 234209, Control_c, 0, 64, 97
2, 234224, Control_c, 0, 64, 127
2, 234346, Control_c, 0, 64, 99
2, 234360, Control_c, 0, 64, 81
2, 234367, Note_on_c, 0, 74, 84
2, 234376, Control_c, 0, 64, 69
2, 234387, Note_on_c, 0, 72, 0
2, 234391, Control_c, 0, 64, 62
2, 234421, Control_c, 0, 64, 64
2, 234436, Control_c, 0, 64, 67
2, 234452, Control_c, 0, 64, 71
2, 234467, Control_c, 0, 64, 77
2, 234482, Control_c, 0, 64, 87
2, 234497, Control_c, 0, 64, 106
2, 234512, Control_c, 0, 64, 127
2, 234583, Note_on_c, 0, 62, 0
2, 234634, Note_on_c, 0, 76, 87
2, 234693, Note_on_c, 0, 74, 0
2, 234963, Note_on_c, 0, 62, 72
2, 234964, Note_on_c, 0, 74, 69
2, 234964, Note_on_c, 0, 78, 92
2, 234992, Control_c, 0, 64, 107
2, 235008, Control_c, 0, 64, 82
2, 235016, Note_on_c, 0, 76, 0
2, 235023, Control_c, 0, 64, 67
2, 235038, Control_c, 0, 64, 57
2, 235053, Control_c, 0, 64, 55
2, 235068, Control_c, 0, 64, 59
2, 235083, Control_c, 0, 64, 62
2, 235099, Control_c, 0, 64, 65
2, 235114, Control_c, 0, 64, 71
2, 235129, Control_c, 0, 64, 82
2, 235144, Control_c, 0, 64, 127
2, 235187, Note_on_c, 0, 62, 0
2, 235353, Note_on_c, 0, 64, 75
2, 235359, Note_on_c, 0, 59, 0
2, 235363, Note_on_c, 0, 80, 92
2, 235396, Note_on_c, 0, 50, 0
2, 235401, Note_on_c, 0, 64, 0
2, 235423, Note_on_c, 0, 78, 0
2, 235597, Note_on_c, 0, 45, 74
2, 235708, Note_on_c, 0, 45, 0
2, 235711, Note_on_c, 0, 57, 81
2, 235966, Note_on_c, 0, 65, 88
2, 235967, Note_on_c, 0, 81, 84
2, 236033, Control_c, 0, 64, 102
2, 236049, Control_c, 0, 64, 81
2, 236050, Note_on_c, 0, 80, 0
2, 236064, Control_c, 0, 64, 66
2, 236079, Control_c, 0, 64, 51
2, 236095, Control_c, 0, 64, 25
2, 236109, Control_c, 0, 64, 24
2, 236124, Control_c, 0, 64, 24
2, 236140, Control_c, 0, 64, 28
2, 236155, Control_c, 0, 64, 34
2, 236171, Control_c, 0, 64, 41
2, 236185, Control_c, 0, 64, 48
2, 236200, Control_c, 0, 64, 53
2, 236216, Control_c, 0, 64, 57
2, 236231, Control_c, 0, 64, 60
2, 236246, Control_c, 0, 64, 62
2, 236261, Control_c, 0, 64, 65
2, 236284, Control_c, 0, 64, 68
2, 236300, Control_c, 0, 64, 73
2, 236314, Control_c, 0, 64, 85
2, 236330, Control_c, 0, 64, 106
2, 236345, Control_c, 0, 64, 127
2, 236900, Note_on_c, 0, 76, 77
2, 236901, Note_on_c, 0, 73, 77
2, 236906, Note_on_c, 0, 64, 77
2, 236909, Note_on_c, 0, 61, 72
2, 236932, Note_on_c, 0, 65, 0
2, 236955, Note_on_c, 0, 74, 0
2, 236969, Control_c, 0, 64, 98
2, 236984, Control_c, 0, 64, 86
2, 236999, Control_c, 0, 64, 80
2, 237015, Control_c, 0, 64, 78
2, 237068, Control_c, 0, 64, 77
2, 237082, Control_c, 0, 64, 77
2, 237098, Control_c, 0, 64, 76
2, 237113, Control_c, 0, 64, 74
2, 237129, Control_c, 0, 64, 74
2, 237174, Control_c, 0, 64, 73
2, 237189, Control_c, 0, 64, 72
2, 237206, Control_c, 0, 64, 69
2, 237221, Control_c, 0, 64, 66
2, 237235, Note_on_c, 0, 77, 83
2, 237236, Control_c, 0, 64, 63
2, 237238, Note_on_c, 0, 74, 78
2, 237244, Note_on_c, 0, 62, 77
2, 237247, Note_on_c, 0, 59, 69
2, 237252, Control_c, 0, 64, 61
2, 237266, Control_c, 0, 64, 59
2, 237268, Note_on_c, 0, 73, 0
2, 237273, Note_on_c, 0, 76, 0
2, 237274, Note_on_c, 0, 61, 0
2, 237275, Note_on_c, 0, 64, 0
2, 237281, Control_c, 0, 64, 58
2, 237297, Control_c, 0, 64, 56
2, 237311, Control_c, 0, 64, 54
2, 237327, Control_c, 0, 64, 52
2, 237539, Control_c, 0, 64, 51
2, 237554, Control_c, 0, 64, 51
2, 237554, Note_on_c, 0, 73, 81
2, 237556, Note_on_c, 0, 76, 79
2, 237560, Note_on_c, 0, 61, 74
2, 237560, Note_on_c, 0, 64, 80
2, 237570, Control_c, 0, 64, 50
2, 237577, Note_on_c, 0, 74, 0
2, 237585, Control_c, 0, 64, 48
2, 237597, Note_on_c, 0, 59, 0
2, 237598, Note_on_c, 0, 62, 0
2, 237600, Control_c, 0, 64, 45
2, 237616, Control_c, 0, 64, 41
2, 237628, Note_on_c, 0, 77, 0
2, 237631, Control_c, 0, 64, 36
2, 237647, Control_c, 0, 64, 28
2, 237661, Control_c, 0, 64, 17
2, 237676, Control_c, 0, 64, 0
2, 237851, Control_c, 0, 64, 16
2, 237866, Control_c, 0, 64, 40
2, 237881, Control_c, 0, 64, 53
2, 237897, Control_c, 0, 64, 60
2, 237912, Control_c, 0, 64, 63
2, 237927, Control_c, 0, 64, 66
2, 237942, Control_c, 0, 64, 72
2, 237957, Control_c, 0, 64, 83
2, 237973, Control_c, 0, 64, 104
2, 237988, Control_c, 0, 64, 127
2, 238067, Note_on_c, 0, 73, 0
2, 238104, Note_on_c, 0, 61, 0
2, 238421, Note_on_c, 0, 74, 80
2, 238423, Note_on_c, 0, 65, 87
2, 238424, Note_on_c, 0, 71, 79
2, 238429, Note_on_c, 0, 62, 77
2, 238441, Note_on_c, 0, 76, 0
2, 238444, Control_c, 0, 64, 114
2, 238460, Control_c, 0, 64, 84
2, 238467, Note_on_c, 0, 64, 0
2, 238475, Control_c, 0, 64, 67
2, 238490, Control_c, 0, 64, 51
2, 238505, Control_c, 0, 64, 16
2, 238520, Control_c, 0, 64, 15
2, 238566, Control_c, 0, 64, 17
2, 238588, Control_c, 0, 64, 26
2, 238603, Control_c, 0, 64, 41
2, 238619, Control_c, 0, 64, 50
2, 238634, Control_c, 0, 64, 56
2, 238649, Control_c, 0, 64, 60
2, 238664, Control_c, 0, 64, 63
2, 238679, Control_c, 0, 64, 65
2, 238695, Control_c, 0, 64, 69
2, 238710, Control_c, 0, 64, 77
2, 238726, Control_c, 0, 64, 88
2, 238741, Control_c, 0, 64, 109
2, 238756, Control_c, 0, 64, 127
2, 239027, Note_on_c, 0, 68, 78
2, 239073, Note_on_c, 0, 65, 0
2, 239156, Note_on_c, 0, 71, 0
2, 239869, Note_on_c, 0, 69, 80
2, 239869, Note_on_c, 0, 73, 76
2, 239875, Note_on_c, 0, 74, 0
2, 239879, Note_on_c, 0, 64, 75
2, 239914, Note_on_c, 0, 62, 0
2, 239935, Control_c, 0, 64, 105
2, 239948, Note_on_c, 0, 68, 0
2, 239950, Control_c, 0, 64, 82
2, 239964, Control_c, 0, 64, 68
2, 239980, Control_c, 0, 64, 56
2, 239995, Control_c, 0, 64, 41
2, 240011, Control_c, 0, 64, 39
2, 240185, Control_c, 0, 64, 40
2, 240337, Control_c, 0, 64, 40
2, 240520, Control_c, 0, 64, 41
2, 240581, Control_c, 0, 64, 41
2, 240627, Control_c, 0, 64, 42
2, 240673, Control_c, 0, 64, 42
2, 240688, Control_c, 0, 64, 43
2, 240734, Control_c, 0, 64, 43
2, 240763, Control_c, 0, 64, 44
2, 240794, Control_c, 0, 64, 44
2, 240824, Control_c, 0, 64, 45
2, 240855, Control_c, 0, 64, 45
2, 241120, Control_c, 0, 64, 46
2, 241272, Control_c, 0, 64, 46
2, 241364, Control_c, 0, 64, 47
2, 241395, Control_c, 0, 64, 47
2, 241425, Control_c, 0, 64, 48
2, 241456, Control_c, 0, 64, 48
2, 241471, Control_c, 0, 64, 49
2, 241487, Control_c, 0, 64, 49
2, 241502, Control_c, 0, 64, 50
2, 241517, Control_c, 0, 64, 51
2, 241532, Control_c, 0, 64, 52
2, 241547, Control_c, 0, 64, 53
2, 241562, Control_c, 0, 64, 54
2, 241578, Control_c, 0, 64, 54
2, 241608, Control_c, 0, 64, 55
2, 242148, Control_c, 0, 64, 55
2, 242239, Control_c, 0, 64, 56
2, 242300, Control_c, 0, 64, 56
2, 242360, Control_c, 0, 64, 57
2, 242407, Control_c, 0, 64, 57
2, 242550, Control_c, 0, 64, 58
2, 242581, Control_c, 0, 64, 58
2, 242862, Note_on_c, 0, 57, 0
2, 242862, Note_on_c, 0, 64, 0
2, 242862, Note_on_c, 0, 69, 0
2, 242862, Note_on_c, 0, 73, 0
2, 242862, Note_on_c, 0, 81, 0
2, 242863, End_track
0, 0, End_of_file
