0, 0, Header, 1, 2, 384
1, 0, Start_track
1, 0, Tempo, 500000
1, 0, Time_signature, 4, 2, 24, 8
1, 1, End_track
2,0,Start_track
2,0, Note_on_c, 0, 57, 46
2,88, Note_on_c, 0, 57, 0
2,104, Note_on_c, 0, 56, 53
2,188, Control_c, 0, 64, 37
2,237, Note_on_c, 0, 56, 0
2,245, Note_on_c, 0, 57, 60
2,354, Note_on_c, 0, 57, 0
2,519, Note_on_c, 0, 59, 64
2,552, Control_c, 0, 64, 37
2,641, Note_on_c, 0, 59, 0
2,744, Control_c, 0, 64, 36
2,794, Note_on_c, 0, 60, 64
2,948, Note_on_c, 0, 60, 0
2,1069, Note_on_c, 0, 60, 63
2,1176, Note_on_c, 0, 60, 0
2,1187, Note_on_c, 0, 59, 66
2,1325, Note_on_c, 0, 60, 71
2,1343, Note_on_c, 0, 59, 0
2,1496, Note_on_c, 0, 60, 0
2,1595, Note_on_c, 0, 62, 73
2,1730, Note_on_c, 0, 62, 0
2,1862, Note_on_c, 0, 64, 69
2,1977, Note_on_c, 0, 62, 68
2,1998, Note_on_c, 0, 64, 0
2,2105, Note_on_c, 0, 60, 74
2,2120, Note_on_c, 0, 62, 0
2,2224, Note_on_c, 0, 62, 80
2,2249, Note_on_c, 0, 60, 0
2,2362, Note_on_c, 0, 64, 83
2,2380, Note_on_c, 0, 62, 0
2,2499, Note_on_c, 0, 64, 0
2,2523, Control_c, 0, 64, 37
2,2538, Control_c, 0, 64, 38
2,2568, Control_c, 0, 64, 39
2,2599, Control_c, 0, 64, 39
2,2614, Control_c, 0, 64, 40
2,2633, Note_on_c, 0, 65, 80
2,2644, Control_c, 0, 64, 40
2,2659, Control_c, 0, 64, 41
2,2675, Control_c, 0, 64, 41
2,2690, Control_c, 0, 64, 42
2,2705, Control_c, 0, 64, 43
2,2720, Control_c, 0, 64, 43
2,2735, Control_c, 0, 64, 44
2,2764, Note_on_c, 0, 65, 0
2,2780, Control_c, 0, 64, 44
2,2899, Note_on_c, 0, 56, 75
2,2925, Control_c, 0, 64, 44
2,2985, Control_c, 0, 64, 43
2,3001, Control_c, 0, 64, 43
2,3032, Control_c, 0, 64, 42
2,3048, Control_c, 0, 64, 41
2,3060, Note_on_c, 0, 56, 0
2,3063, Control_c, 0, 64, 41
2,3078, Control_c, 0, 64, 40
2,3093, Control_c, 0, 64, 39
2,3124, Control_c, 0, 64, 39
2,3139, Control_c, 0, 64, 38
2,3169, Control_c, 0, 64, 38
2,3190, Note_on_c, 0, 52, 52
2,3200, Control_c, 0, 64, 37
2,3215, Control_c, 0, 64, 37
2,3352, Note_on_c, 0, 52, 0
2,3488, Control_c, 0, 64, 36
2,3503, Control_c, 0, 64, 35
2,3518, Control_c, 0, 64, 33
2,3533, Control_c, 0, 64, 32
2,3548, Control_c, 0, 64, 30
2,3564, Control_c, 0, 64, 27
2,3578, Control_c, 0, 64, 23
2,3593, Control_c, 0, 64, 18
2,3609, Control_c, 0, 64, 15
2,3624, Control_c, 0, 64, 11
2,3640, Control_c, 0, 64, 0
2,3750, Note_on_c, 0, 57, 45
2,3869, Note_on_c, 0, 57, 0
2,4017, Note_on_c, 0, 59, 54
2,4120, Note_on_c, 0, 59, 0
2,4135, Note_on_c, 0, 60, 59
2,4260, Note_on_c, 0, 60, 0
2,4271, Note_on_c, 0, 57, 62
2,4390, Note_on_c, 0, 59, 73
2,4393, Note_on_c, 0, 57, 0
2,4523, Note_on_c, 0, 60, 78
2,4534, Note_on_c, 0, 59, 0
2,4638, Note_on_c, 0, 62, 74
2,4654, Note_on_c, 0, 60, 0
2,4767, Note_on_c, 0, 59, 76
2,4780, Note_on_c, 0, 62, 0
2,4866, Note_on_c, 0, 60, 78
2,4899, Note_on_c, 0, 59, 0
2,5018, Note_on_c, 0, 62, 75
2,5046, Note_on_c, 0, 60, 0
2,5176, Note_on_c, 0, 62, 0
2,5317, Note_on_c, 0, 60, 62
2,5435, Note_on_c, 0, 60, 0
2,5590, Note_on_c, 0, 59, 58
2,5726, Note_on_c, 0, 59, 0
2,5860, Note_on_c, 0, 64, 53
2,5997, Note_on_c, 0, 64, 0
2,6131, Note_on_c, 0, 57, 54
2,6411, Note_on_c, 0, 64, 58
2,6438, Note_on_c, 0, 57, 0
2,6513, Note_on_c, 0, 63, 64
2,6517, Note_on_c, 0, 64, 0
2,6649, Note_on_c, 0, 64, 64
2,6654, Note_on_c, 0, 55, 50
2,6662, Note_on_c, 0, 63, 0
2,6788, Note_on_c, 0, 64, 0
2,6803, Note_on_c, 0, 55, 0
2,6917, Note_on_c, 0, 66, 70
2,6918, Note_on_c, 0, 54, 58
2,7077, Note_on_c, 0, 66, 0
2,7108, Note_on_c, 0, 54, 0
2,7183, Note_on_c, 0, 67, 73
2,7189, Note_on_c, 0, 52, 54
2,7335, Note_on_c, 0, 52, 0
2,7336, Note_on_c, 0, 67, 0
2,7442, Note_on_c, 0, 60, 58
2,7443, Note_on_c, 0, 67, 73
2,7545, Note_on_c, 0, 60, 0
2,7560, Note_on_c, 0, 66, 74
2,7582, Note_on_c, 0, 67, 0
2,7687, Note_on_c, 0, 67, 82
2,7699, Note_on_c, 0, 59, 59
2,7716, Note_on_c, 0, 66, 0
2,7807, Note_on_c, 0, 59, 0
2,7848, Note_on_c, 0, 67, 0
2,7940, Note_on_c, 0, 69, 75
2,7956, Note_on_c, 0, 57, 52
2,8029, Note_on_c, 0, 57, 0
2,8103, Note_on_c, 0, 69, 0
2,8198, Note_on_c, 0, 55, 57
2,8198, Note_on_c, 0, 71, 73
2,8305, Note_on_c, 0, 55, 0
2,8322, Note_on_c, 0, 69, 76
2,8332, Note_on_c, 0, 54, 50
2,8349, Note_on_c, 0, 71, 0
2,8427, Note_on_c, 0, 54, 0
2,8435, Note_on_c, 0, 67, 73
2,8446, Note_on_c, 0, 52, 44
2,8452, Note_on_c, 0, 69, 0
2,8541, Note_on_c, 0, 69, 83
2,8545, Note_on_c, 0, 52, 0
2,8556, Note_on_c, 0, 54, 57
2,8556, Note_on_c, 0, 67, 0
2,8679, Note_on_c, 0, 54, 0
2,8682, Note_on_c, 0, 71, 80
2,8700, Note_on_c, 0, 55, 53
2,8713, Note_on_c, 0, 69, 0
2,8801, Note_on_c, 0, 55, 0
2,8830, Note_on_c, 0, 71, 0
2,8939, Note_on_c, 0, 72, 80
2,8950, Note_on_c, 0, 57, 55
2,9052, Note_on_c, 0, 57, 0
2,9054, Note_on_c, 0, 72, 0
2,9212, Note_on_c, 0, 63, 73
2,9224, Note_on_c, 0, 59, 50
2,9281, Note_on_c, 0, 59, 0
2,9327, Note_on_c, 0, 57, 46
2,9357, Note_on_c, 0, 63, 0
2,9430, Note_on_c, 0, 57, 0
2,9468, Note_on_c, 0, 59, 59
2,9471, Note_on_c, 0, 55, 43
2,9553, Note_on_c, 0, 55, 0
2,9565, Note_on_c, 0, 59, 0
2,9577, Note_on_c, 0, 57, 54
2,9715, Note_on_c, 0, 57, 0
2,9729, Note_on_c, 0, 59, 51
2,9821, Note_on_c, 0, 59, 0
2,9987, Note_on_c, 0, 64, 50
2,10001, Note_on_c, 0, 60, 47
2,10120, Note_on_c, 0, 64, 0
2,10250, Note_on_c, 0, 66, 56
2,10365, Note_on_c, 0, 67, 60
2,10372, Note_on_c, 0, 66, 0
2,10468, Note_on_c, 0, 67, 0
2,10494, Note_on_c, 0, 64, 61
2,10513, Note_on_c, 0, 60, 0
2,10516, Note_on_c, 0, 59, 48
2,10606, Note_on_c, 0, 59, 0
2,10616, Note_on_c, 0, 66, 70
2,10622, Note_on_c, 0, 57, 52
2,10640, Note_on_c, 0, 64, 0
2,10741, Note_on_c, 0, 67, 73
2,10748, Note_on_c, 0, 57, 0
2,10751, Note_on_c, 0, 59, 56
2,10771, Note_on_c, 0, 66, 0
2,10813, Note_on_c, 0, 59, 0
2,10849, Note_on_c, 0, 69, 77
2,10867, Note_on_c, 0, 67, 0
2,10972, Note_on_c, 0, 66, 76
2,10974, Note_on_c, 0, 64, 55
2,11009, Note_on_c, 0, 69, 0
2,11079, Note_on_c, 0, 67, 78
2,11107, Note_on_c, 0, 66, 0
2,11224, Note_on_c, 0, 69, 79
2,11264, Note_on_c, 0, 67, 0
2,11378, Note_on_c, 0, 69, 0
2,11492, Note_on_c, 0, 67, 64
2,11512, Note_on_c, 0, 62, 43
2,11529, Note_on_c, 0, 64, 0
2,11584, Note_on_c, 0, 67, 0
2,11585, Note_on_c, 0, 62, 0
2,11605, Note_on_c, 0, 61, 50
2,11669, Note_on_c, 0, 61, 0
2,11755, Note_on_c, 0, 66, 62
2,11763, Note_on_c, 0, 62, 48
2,11898, Note_on_c, 0, 66, 0
2,12026, Note_on_c, 0, 71, 59
2,12164, Note_on_c, 0, 71, 0
2,12298, Note_on_c, 0, 64, 57
2,12542, Note_on_c, 0, 64, 0
2,12552, Note_on_c, 0, 66, 58
2,12555, Note_on_c, 0, 62, 0
2,12567, Note_on_c, 0, 60, 49
2,12652, Note_on_c, 0, 60, 0
2,12668, Note_on_c, 0, 68, 69
2,12671, Note_on_c, 0, 59, 52
2,12715, Note_on_c, 0, 66, 0
2,12719, Note_on_c, 0, 59, 0
2,12790, Note_on_c, 0, 68, 0
2,12792, Note_on_c, 0, 69, 71
2,12801, Note_on_c, 0, 60, 53
2,12903, Note_on_c, 0, 71, 72
2,12917, Note_on_c, 0, 69, 0
2,13038, Note_on_c, 0, 72, 75
2,13050, Note_on_c, 0, 71, 0
2,13145, Note_on_c, 0, 74, 75
2,13167, Note_on_c, 0, 72, 0
2,13224, Note_on_c, 0, 60, 0
2,13273, Note_on_c, 0, 76, 72
2,13305, Note_on_c, 0, 74, 0
2,13374, Note_on_c, 0, 76, 0
2,13392, Note_on_c, 0, 69, 65
2,13462, Note_on_c, 0, 69, 0
2,13533, Note_on_c, 0, 67, 59
2,13533, Note_on_c, 0, 69, 59
2,13598, Note_on_c, 0, 69, 0
2,13619, Note_on_c, 0, 67, 0
2,13636, Note_on_c, 0, 65, 63
2,13752, Note_on_c, 0, 65, 0
2,13775, Note_on_c, 0, 68, 62
2,13788, Note_on_c, 0, 64, 56
2,13882, Note_on_c, 0, 64, 0
2,13906, Note_on_c, 0, 62, 56
2,14001, Note_on_c, 0, 62, 0
2,14031, Note_on_c, 0, 60, 55
2,14102, Note_on_c, 0, 60, 0
2,14132, Note_on_c, 0, 59, 53
2,14247, Note_on_c, 0, 59, 0
2,14258, Note_on_c, 0, 68, 0
2,14271, Note_on_c, 0, 69, 58
2,14273, Note_on_c, 0, 60, 63
2,14353, Note_on_c, 0, 60, 0
2,14363, Note_on_c, 0, 69, 0
2,14369, Note_on_c, 0, 59, 68
2,14393, Note_on_c, 0, 59, 0
2,14517, Note_on_c, 0, 60, 64
2,14518, Note_on_c, 0, 69, 68
2,14524, Note_on_c, 0, 45, 70
2,14624, Note_on_c, 0, 44, 77
2,14628, Note_on_c, 0, 45, 0
2,14629, Note_on_c, 0, 69, 0
2,14767, Note_on_c, 0, 45, 84
2,14767, Note_on_c, 0, 67, 75
2,14791, Note_on_c, 0, 44, 0
2,14826, Note_on_c, 0, 60, 0
2,14882, Note_on_c, 0, 67, 0
2,14901, Note_on_c, 0, 45, 0
2,15044, Note_on_c, 0, 65, 67
2,15045, Note_on_c, 0, 47, 86
2,15045, Note_on_c, 0, 62, 64
2,15148, Note_on_c, 0, 62, 0
2,15159, Note_on_c, 0, 65, 0
2,15182, Note_on_c, 0, 47, 0
2,15312, Note_on_c, 0, 64, 76
2,15313, Note_on_c, 0, 48, 86
2,15419, Note_on_c, 0, 64, 0
2,15435, Note_on_c, 0, 62, 75
2,15453, Note_on_c, 0, 48, 0
2,15511, Note_on_c, 0, 62, 0
2,15569, Note_on_c, 0, 48, 83
2,15570, Note_on_c, 0, 64, 72
2,15570, Note_on_c, 0, 72, 74
2,15670, Note_on_c, 0, 47, 82
2,15678, Note_on_c, 0, 72, 0
2,15696, Note_on_c, 0, 48, 0
2,15810, Note_on_c, 0, 48, 87
2,15814, Note_on_c, 0, 71, 78
2,15839, Note_on_c, 0, 47, 0
2,15923, Note_on_c, 0, 64, 0
2,15959, Note_on_c, 0, 71, 0
2,15968, Note_on_c, 0, 48, 0
2,16087, Note_on_c, 0, 50, 82
2,16093, Note_on_c, 0, 65, 71
2,16095, Note_on_c, 0, 69, 71
2,16199, Note_on_c, 0, 69, 0
2,16228, Note_on_c, 0, 50, 0
2,16352, Note_on_c, 0, 68, 71
2,16359, Note_on_c, 0, 52, 86
2,16401, Note_on_c, 0, 65, 0
2,16468, Note_on_c, 0, 68, 0
2,16471, Note_on_c, 0, 50, 82
2,16478, Note_on_c, 0, 66, 71
2,16498, Note_on_c, 0, 52, 0
2,16534, Note_on_c, 0, 66, 0
2,16593, Note_on_c, 0, 48, 84
2,16604, Note_on_c, 0, 76, 77
2,16609, Note_on_c, 0, 64, 72
2,16612, Note_on_c, 0, 50, 0
2,16666, Note_on_c, 0, 76, 0
2,16701, Note_on_c, 0, 50, 83
2,16717, Note_on_c, 0, 66, 79
2,16731, Note_on_c, 0, 48, 0
2,16848, Note_on_c, 0, 64, 0
2,16859, Note_on_c, 0, 52, 92
2,16864, Note_on_c, 0, 74, 71
2,16867, Note_on_c, 0, 68, 74
2,16887, Note_on_c, 0, 50, 0
2,16906, Note_on_c, 0, 66, 0
2,16967, Note_on_c, 0, 68, 0
2,16991, Note_on_c, 0, 52, 0
2,17005, Note_on_c, 0, 74, 0
2,17130, Note_on_c, 0, 53, 91
2,17134, Note_on_c, 0, 72, 70
2,17136, Note_on_c, 0, 69, 68
2,17212, Note_on_c, 0, 72, 0
2,17254, Note_on_c, 0, 69, 0
2,17263, Note_on_c, 0, 53, 0
2,17400, Note_on_c, 0, 44, 79
2,17409, Note_on_c, 0, 71, 69
2,17537, Note_on_c, 0, 71, 0
2,17546, Note_on_c, 0, 72, 65
2,17547, Note_on_c, 0, 44, 0
2,17649, Note_on_c, 0, 72, 0
2,17680, Note_on_c, 0, 40, 51
2,17694, Note_on_c, 0, 74, 52
2,17799, Note_on_c, 0, 40, 0
2,17811, Note_on_c, 0, 74, 0
2,17819, Note_on_c, 0, 71, 56
2,17935, Note_on_c, 0, 71, 0
2,17955, Note_on_c, 0, 72, 59
2,18051, Note_on_c, 0, 72, 0
2,18059, Note_on_c, 0, 71, 61
2,18169, Note_on_c, 0, 71, 0
2,18183, Note_on_c, 0, 45, 50
2,18190, Note_on_c, 0, 69, 59
2,18250, Note_on_c, 0, 45, 0
2,18263, Note_on_c, 0, 69, 0
2,18304, Note_on_c, 0, 72, 62
2,18415, Note_on_c, 0, 72, 0
2,18442, Note_on_c, 0, 47, 55
2,18442, Note_on_c, 0, 67, 49
2,18446, Note_on_c, 0, 74, 56
2,18538, Note_on_c, 0, 47, 0
2,18546, Note_on_c, 0, 48, 61
2,18552, Note_on_c, 0, 74, 0
2,18569, Note_on_c, 0, 76, 59
2,18678, Note_on_c, 0, 45, 65
2,18688, Note_on_c, 0, 48, 0
2,18690, Note_on_c, 0, 77, 62
2,18704, Note_on_c, 0, 76, 0
2,18787, Note_on_c, 0, 47, 74
2,18799, Note_on_c, 0, 77, 0
2,18807, Note_on_c, 0, 74, 62
2,18808, Note_on_c, 0, 45, 0
2,18878, Note_on_c, 0, 67, 0
2,18915, Note_on_c, 0, 74, 0
2,18926, Note_on_c, 0, 49, 81
2,18946, Note_on_c, 0, 47, 0
2,18947, Note_on_c, 0, 76, 67
2,19047, Note_on_c, 0, 50, 79
2,19059, Note_on_c, 0, 65, 63
2,19077, Note_on_c, 0, 49, 0
2,19099, Note_on_c, 0, 65, 0
2,19128, Control_c, 0, 64, 9
2,19143, Control_c, 0, 64, 12
2,19159, Control_c, 0, 64, 15
2,19174, Control_c, 0, 64, 16
2,19175, Note_on_c, 0, 47, 80
2,19189, Note_on_c, 0, 64, 66
2,19197, Note_on_c, 0, 50, 0
2,19205, Control_c, 0, 64, 17
2,19273, Note_on_c, 0, 64, 0
2,19282, Note_on_c, 0, 49, 77
2,19303, Note_on_c, 0, 67, 69
2,19315, Note_on_c, 0, 47, 0
2,19430, Note_on_c, 0, 50, 79
2,19452, Note_on_c, 0, 49, 0
2,19458, Note_on_c, 0, 66, 60
2,19465, Note_on_c, 0, 67, 0
2,19564, Note_on_c, 0, 50, 0
2,19702, Note_on_c, 0, 69, 65
2,19709, Note_on_c, 0, 48, 67
2,19723, Note_on_c, 0, 66, 0
2,19745, Note_on_c, 0, 76, 0
2,19787, Note_on_c, 0, 69, 0
2,19795, Note_on_c, 0, 48, 0
2,19953, Note_on_c, 0, 47, 64
2,19960, Note_on_c, 0, 71, 62
2,19961, Note_on_c, 0, 68, 55
2,20031, Note_on_c, 0, 47, 0
2,20049, Control_c, 0, 64, 16
2,20066, Note_on_c, 0, 72, 63
2,20069, Note_on_c, 0, 71, 0
2,20148, Note_on_c, 0, 72, 0
2,20213, Note_on_c, 0, 74, 58
2,20215, Note_on_c, 0, 52, 62
2,20252, Note_on_c, 0, 68, 0
2,20324, Note_on_c, 0, 52, 0
2,20496, Note_on_c, 0, 69, 53
2,20502, Note_on_c, 0, 45, 55
2,20561, Note_on_c, 0, 74, 0
2,20596, Note_on_c, 0, 69, 0
2,20629, Note_on_c, 0, 45, 0
2,20758, Note_on_c, 0, 52, 63
2,20764, Note_on_c, 0, 72, 61
2,20770, Control_c, 0, 64, 13
2,20770, Note_on_c, 0, 47, 52
2,20774, Note_on_c, 0, 69, 50
2,20785, Control_c, 0, 64, 11
2,20801, Control_c, 0, 64, 9
2,20816, Control_c, 0, 64, 0
2,20857, Note_on_c, 0, 69, 0
2,20858, Note_on_c, 0, 72, 0
2,20868, Note_on_c, 0, 51, 75
2,20886, Note_on_c, 0, 52, 0
2,20995, Note_on_c, 0, 49, 70
2,20996, Note_on_c, 0, 52, 75
2,21003, Note_on_c, 0, 71, 67
2,21009, Note_on_c, 0, 67, 61
2,21029, Note_on_c, 0, 47, 0
2,21029, Note_on_c, 0, 51, 0
2,21082, Note_on_c, 0, 49, 0
2,21112, Note_on_c, 0, 67, 0
2,21124, Note_on_c, 0, 71, 0
2,21165, Note_on_c, 0, 52, 0
2,21266, Note_on_c, 0, 51, 72
2,21269, Note_on_c, 0, 54, 85
2,21270, Note_on_c, 0, 66, 68
2,21280, Note_on_c, 0, 69, 67
2,21378, Note_on_c, 0, 66, 0
2,21381, Note_on_c, 0, 69, 0
2,21424, Note_on_c, 0, 54, 0
2,21437, Note_on_c, 0, 51, 0
2,21534, Note_on_c, 0, 55, 87
2,21534, Note_on_c, 0, 64, 71
2,21537, Note_on_c, 0, 67, 70
2,21540, Note_on_c, 0, 52, 79
2,21618, Note_on_c, 0, 64, 0
2,21636, Note_on_c, 0, 67, 0
2,21660, Control_c, 0, 64, 12
2,21676, Control_c, 0, 64, 15
2,21681, Note_on_c, 0, 52, 0
2,21690, Control_c, 0, 64, 17
2,21703, Note_on_c, 0, 55, 0
2,21705, Control_c, 0, 64, 18
2,21721, Control_c, 0, 64, 19
2,21736, Control_c, 0, 64, 20
2,21751, Control_c, 0, 64, 21
2,21782, Control_c, 0, 64, 21
2,21793, Note_on_c, 0, 76, 71
2,21799, Note_on_c, 0, 55, 85
2,21801, Note_on_c, 0, 72, 71
2,21805, Note_on_c, 0, 52, 68
2,21813, Control_c, 0, 64, 22
2,21827, Control_c, 0, 64, 23
2,21843, Control_c, 0, 64, 23
2,21873, Control_c, 0, 64, 24
2,21896, Note_on_c, 0, 76, 0
2,21898, Note_on_c, 0, 54, 85
2,21899, Note_on_c, 0, 51, 70
2,21921, Note_on_c, 0, 52, 0
2,21923, Note_on_c, 0, 72, 0
2,21927, Note_on_c, 0, 55, 0
2,22011, Control_c, 0, 64, 24
2,22035, Note_on_c, 0, 52, 78
2,22036, Note_on_c, 0, 55, 85
2,22040, Note_on_c, 0, 74, 73
2,22041, Note_on_c, 0, 71, 72
2,22063, Note_on_c, 0, 54, 0
2,22071, Control_c, 0, 64, 24
2,22087, Control_c, 0, 64, 24
2,22092, Note_on_c, 0, 51, 0
2,22131, Note_on_c, 0, 52, 0
2,22167, Note_on_c, 0, 71, 0
2,22171, Note_on_c, 0, 74, 0
2,22207, Note_on_c, 0, 55, 0
2,22295, Note_on_c, 0, 54, 75
2,22301, Note_on_c, 0, 57, 89
2,22306, Note_on_c, 0, 72, 73
2,22307, Note_on_c, 0, 69, 65
2,22380, Note_on_c, 0, 69, 0
2,22384, Note_on_c, 0, 72, 0
2,22440, Note_on_c, 0, 57, 0
2,22445, Note_on_c, 0, 54, 0
2,22556, Note_on_c, 0, 55, 75
2,22556, Note_on_c, 0, 71, 68
2,22559, Note_on_c, 0, 59, 84
2,22561, Note_on_c, 0, 67, 65
2,22664, Note_on_c, 0, 67, 0
2,22670, Note_on_c, 0, 57, 79
2,22671, Note_on_c, 0, 66, 69
2,22685, Note_on_c, 0, 55, 0
2,22748, Note_on_c, 0, 59, 0
2,22800, Note_on_c, 0, 64, 72
2,22803, Note_on_c, 0, 55, 83
2,22814, Note_on_c, 0, 66, 0
2,22830, Note_on_c, 0, 57, 0
2,22913, Note_on_c, 0, 57, 90
2,22922, Note_on_c, 0, 66, 74
2,22926, Note_on_c, 0, 64, 0
2,23062, Note_on_c, 0, 59, 89
2,23072, Note_on_c, 0, 57, 0
2,23077, Note_on_c, 0, 67, 76
2,23099, Note_on_c, 0, 66, 0
2,23102, Note_on_c, 0, 55, 0
2,23224, Note_on_c, 0, 59, 0
2,23288, Control_c, 0, 64, 24
2,23332, Note_on_c, 0, 60, 87
2,23339, Note_on_c, 0, 57, 78
2,23353, Note_on_c, 0, 69, 71
2,23357, Note_on_c, 0, 66, 65
2,23373, Note_on_c, 0, 67, 0
2,23436, Note_on_c, 0, 60, 0
2,23438, Note_on_c, 0, 71, 0
2,23439, Control_c, 0, 64, 24
2,23454, Control_c, 0, 64, 28
2,23458, Note_on_c, 0, 57, 0
2,23469, Control_c, 0, 64, 31
2,23486, Control_c, 0, 64, 33
2,23501, Control_c, 0, 64, 34
2,23518, Control_c, 0, 64, 35
2,23532, Control_c, 0, 64, 36
2,23547, Control_c, 0, 64, 36
2,23572, Note_on_c, 0, 69, 0
2,23610, Note_on_c, 0, 51, 89
2,23616, Note_on_c, 0, 59, 66
2,23637, Note_on_c, 0, 66, 0
2,23692, Control_c, 0, 64, 35
2,23707, Control_c, 0, 64, 33
2,23723, Control_c, 0, 64, 32
2,23737, Control_c, 0, 64, 30
2,23752, Control_c, 0, 64, 27
2,23768, Control_c, 0, 64, 26
2,23778, Note_on_c, 0, 51, 0
2,23783, Control_c, 0, 64, 25
2,23799, Control_c, 0, 64, 24
2,23814, Control_c, 0, 64, 24
2,23870, Note_on_c, 0, 59, 0
2,23873, Note_on_c, 0, 64, 54
2,23882, Note_on_c, 0, 67, 55
2,23884, Note_on_c, 0, 47, 69
2,23978, Note_on_c, 0, 64, 0
2,23985, Note_on_c, 0, 63, 52
2,23996, Note_on_c, 0, 66, 52
2,23997, Note_on_c, 0, 45, 66
2,24016, Note_on_c, 0, 63, 0
2,24020, Note_on_c, 0, 67, 0
2,24039, Note_on_c, 0, 66, 0
2,24128, Note_on_c, 0, 43, 69
2,24130, Note_on_c, 0, 64, 53
2,24140, Note_on_c, 0, 45, 0
2,24147, Control_c, 0, 64, 24
2,24148, Note_on_c, 0, 67, 55
2,24183, Note_on_c, 0, 47, 0
2,24195, Note_on_c, 0, 67, 0
2,24197, Note_on_c, 0, 43, 0
2,24208, Control_c, 0, 64, 25
2,24223, Control_c, 0, 64, 27
2,24239, Control_c, 0, 64, 28
2,24249, Note_on_c, 0, 69, 61
2,24254, Control_c, 0, 64, 29
2,24268, Control_c, 0, 64, 29
2,24284, Control_c, 0, 64, 30
2,24384, Note_on_c, 0, 40, 59
2,24386, Note_on_c, 0, 52, 64
2,24391, Control_c, 0, 64, 30
2,24398, Note_on_c, 0, 69, 0
2,24398, Note_on_c, 0, 71, 63
2,24438, Note_on_c, 0, 40, 0
2,24476, Control_c, 0, 64, 31
2,24483, Note_on_c, 0, 52, 0
2,24485, Note_on_c, 0, 71, 0
2,24491, Control_c, 0, 64, 31
2,24500, Note_on_c, 0, 64, 0
2,24506, Control_c, 0, 64, 32
2,24518, Note_on_c, 0, 67, 60
2,24536, Control_c, 0, 64, 32
2,24646, Note_on_c, 0, 45, 50
2,24649, Note_on_c, 0, 54, 68
2,24652, Note_on_c, 0, 72, 62
2,24654, Note_on_c, 0, 67, 0
2,24672, Control_c, 0, 64, 33
2,24752, Note_on_c, 0, 54, 0
2,24763, Note_on_c, 0, 55, 59
2,24880, Note_on_c, 0, 55, 0
2,24895, Note_on_c, 0, 45, 0
2,24902, Note_on_c, 0, 52, 69
2,24904, Note_on_c, 0, 69, 62
2,24962, Control_c, 0, 64, 33
2,25015, Note_on_c, 0, 54, 75
2,25016, Note_on_c, 0, 52, 0
2,25019, Note_on_c, 0, 69, 0
2,25022, Note_on_c, 0, 63, 67
2,25134, Note_on_c, 0, 47, 68
2,25143, Note_on_c, 0, 55, 75
2,25152, Note_on_c, 0, 64, 71
2,25158, Note_on_c, 0, 63, 0
2,25264, Note_on_c, 0, 57, 81
2,25266, Note_on_c, 0, 55, 0
2,25273, Note_on_c, 0, 54, 0
2,25382, Note_on_c, 0, 54, 83
2,25388, Note_on_c, 0, 71, 74
2,25392, Control_c, 0, 64, 34
2,25400, Note_on_c, 0, 57, 0
2,25408, Control_c, 0, 64, 36
2,25423, Control_c, 0, 64, 38
2,25425, Note_on_c, 0, 72, 0
2,25437, Control_c, 0, 64, 41
2,25453, Control_c, 0, 64, 45
2,25468, Control_c, 0, 64, 50
2,25483, Control_c, 0, 64, 54
2,25498, Control_c, 0, 64, 57
2,25498, Note_on_c, 0, 55, 86
2,25513, Control_c, 0, 64, 58
2,25527, Note_on_c, 0, 54, 0
2,25529, Control_c, 0, 64, 59
2,25544, Control_c, 0, 64, 60
2,25558, Control_c, 0, 64, 63
2,25562, Note_on_c, 0, 55, 0
2,25574, Control_c, 0, 64, 65
2,25589, Control_c, 0, 64, 67
2,25626, Note_on_c, 0, 47, 0
2,25635, Control_c, 0, 64, 66
2,25642, Note_on_c, 0, 48, 66
2,25651, Control_c, 0, 64, 65
2,25651, Note_on_c, 0, 57, 85
2,25657, Note_on_c, 0, 69, 69
2,25665, Control_c, 0, 64, 64
2,25680, Control_c, 0, 64, 63
2,25696, Control_c, 0, 64, 62
2,25711, Control_c, 0, 64, 61
2,25727, Control_c, 0, 64, 58
2,25742, Control_c, 0, 64, 54
2,25756, Control_c, 0, 64, 49
2,25758, Note_on_c, 0, 57, 0
2,25765, Note_on_c, 0, 48, 0
2,25765, Note_on_c, 0, 71, 0
2,25772, Control_c, 0, 64, 47
2,25776, Note_on_c, 0, 67, 72
2,25779, Note_on_c, 0, 69, 0
2,25787, Control_c, 0, 64, 46
2,25803, Control_c, 0, 64, 44
2,25818, Control_c, 0, 64, 39
2,25832, Control_c, 0, 64, 31
2,25848, Control_c, 0, 64, 24
2,25863, Control_c, 0, 64, 18
2,25877, Control_c, 0, 64, 13
2,25893, Control_c, 0, 64, 0
2,25898, Note_on_c, 0, 55, 80
2,25904, Note_on_c, 0, 47, 62
2,25907, Note_on_c, 0, 69, 65
2,25916, Note_on_c, 0, 67, 0
2,25998, Note_on_c, 0, 47, 0
2,25998, Note_on_c, 0, 69, 0
2,26008, Note_on_c, 0, 55, 0
2,26022, Note_on_c, 0, 71, 69
2,26138, Note_on_c, 0, 71, 0
2,26154, Note_on_c, 0, 72, 66
2,26160, Control_c, 0, 64, 24
2,26165, Note_on_c, 0, 54, 74
2,26172, Note_on_c, 0, 45, 55
2,26176, Control_c, 0, 64, 39
2,26190, Control_c, 0, 64, 50
2,26206, Control_c, 0, 64, 58
2,26220, Note_on_c, 0, 72, 0
2,26221, Control_c, 0, 64, 62
2,26225, Note_on_c, 0, 64, 0
2,26236, Control_c, 0, 64, 64
2,26252, Control_c, 0, 64, 65
2,26258, Note_on_c, 0, 54, 0
2,26267, Control_c, 0, 64, 66
2,26282, Control_c, 0, 64, 67
2,26297, Control_c, 0, 64, 66
2,26312, Control_c, 0, 64, 66
2,26327, Control_c, 0, 64, 65
2,26342, Control_c, 0, 64, 65
2,26357, Control_c, 0, 64, 64
2,26373, Control_c, 0, 64, 64
2,26373, Note_on_c, 0, 45, 0
2,26388, Control_c, 0, 64, 63
2,26403, Control_c, 0, 64, 61
2,26418, Control_c, 0, 64, 59
2,26430, Note_on_c, 0, 59, 66
2,26433, Control_c, 0, 64, 57
2,26436, Note_on_c, 0, 47, 53
2,26449, Note_on_c, 0, 66, 51
2,26452, Note_on_c, 0, 63, 51
2,26494, Control_c, 0, 64, 57
2,26509, Control_c, 0, 64, 56
2,26509, Note_on_c, 0, 59, 0
2,26525, Control_c, 0, 64, 56
2,26531, Note_on_c, 0, 47, 0
2,26532, Note_on_c, 0, 63, 0
2,26537, Note_on_c, 0, 45, 55
2,26540, Note_on_c, 0, 66, 0
2,26555, Control_c, 0, 64, 55
2,26571, Control_c, 0, 64, 54
2,26586, Control_c, 0, 64, 53
2,26600, Control_c, 0, 64, 52
2,26616, Control_c, 0, 64, 51
2,26631, Control_c, 0, 64, 50
2,26661, Control_c, 0, 64, 50
2,26666, Note_on_c, 0, 45, 0
2,26680, Note_on_c, 0, 43, 52
2,26680, Note_on_c, 0, 71, 60
2,26682, Note_on_c, 0, 52, 53
2,26684, Note_on_c, 0, 64, 56
2,26723, Control_c, 0, 64, 49
2,26791, Note_on_c, 0, 71, 0
2,26805, Note_on_c, 0, 69, 61
2,26909, Note_on_c, 0, 43, 0
2,26933, Note_on_c, 0, 69, 0
2,26943, Control_c, 0, 64, 50
2,26943, Note_on_c, 0, 72, 64
2,26949, Note_on_c, 0, 45, 45
2,26958, Control_c, 0, 64, 50
2,26974, Control_c, 0, 64, 51
2,26989, Control_c, 0, 64, 51
2,26998, Note_on_c, 0, 45, 0
2,27002, Note_on_c, 0, 52, 0
2,27005, Control_c, 0, 64, 52
2,27020, Control_c, 0, 64, 52
2,27034, Control_c, 0, 64, 53
2,27050, Control_c, 0, 64, 53
2,27061, Note_on_c, 0, 71, 61
2,27065, Control_c, 0, 64, 54
2,27114, Note_on_c, 0, 72, 0
2,27198, Note_on_c, 0, 71, 0
2,27205, Note_on_c, 0, 47, 52
2,27210, Note_on_c, 0, 69, 55
2,27226, Note_on_c, 0, 59, 49
2,27232, Control_c, 0, 64, 54
2,27277, Control_c, 0, 64, 55
2,27289, Note_on_c, 0, 59, 0
2,27318, Note_on_c, 0, 69, 0
2,27319, Note_on_c, 0, 67, 53
2,27358, Note_on_c, 0, 67, 0
2,27384, Control_c, 0, 64, 54
2,27399, Control_c, 0, 64, 53
2,27415, Control_c, 0, 64, 53
2,27430, Control_c, 0, 64, 52
2,27445, Control_c, 0, 64, 52
2,27464, Note_on_c, 0, 64, 0
2,27469, Note_on_c, 0, 57, 52
2,27475, Note_on_c, 0, 66, 48
2,27487, Note_on_c, 0, 63, 47
2,27491, Control_c, 0, 64, 51
2,27512, Note_on_c, 0, 47, 0
2,27513, Control_c, 0, 64, 51
2,27529, Control_c, 0, 64, 50
2,27540, Note_on_c, 0, 57, 0
2,27544, Control_c, 0, 64, 50
2,27555, Note_on_c, 0, 63, 0
2,27559, Control_c, 0, 64, 49
2,27568, Note_on_c, 0, 66, 0
2,27575, Control_c, 0, 64, 48
2,27589, Control_c, 0, 64, 47
2,27591, Note_on_c, 0, 67, 48
2,27606, Control_c, 0, 64, 46
2,27621, Control_c, 0, 64, 45
2,27652, Control_c, 0, 64, 45
2,27711, Note_on_c, 0, 67, 0
2,27712, Control_c, 0, 64, 45
2,27728, Control_c, 0, 64, 46
2,27733, Note_on_c, 0, 64, 46
2,27743, Control_c, 0, 64, 49
2,27749, Note_on_c, 0, 52, 33
2,27753, Note_on_c, 0, 56, 47
2,27757, Control_c, 0, 64, 51
2,27773, Control_c, 0, 64, 54
2,27788, Control_c, 0, 64, 56
2,27803, Control_c, 0, 64, 58
2,27818, Control_c, 0, 64, 59
2,27818, Note_on_c, 0, 64, 0
2,27833, Control_c, 0, 64, 60
2,27848, Note_on_c, 0, 56, 0
2,27862, Note_on_c, 0, 52, 0
2,27879, Control_c, 0, 64, 59
2,27895, Control_c, 0, 64, 58
2,27909, Control_c, 0, 64, 57
2,27925, Control_c, 0, 64, 55
2,27940, Control_c, 0, 64, 55
2,27955, Control_c, 0, 64, 54
2,27971, Control_c, 0, 64, 53
2,27986, Control_c, 0, 64, 51
2,28002, Control_c, 0, 64, 50
2,28016, Control_c, 0, 64, 49
2,28023, Note_on_c, 0, 52, 45
2,28029, Note_on_c, 0, 76, 54
2,28031, Control_c, 0, 64, 49
2,28038, Note_on_c, 0, 50, 42
2,28047, Control_c, 0, 64, 47
2,28062, Control_c, 0, 64, 46
2,28074, Note_on_c, 0, 52, 0
2,28077, Control_c, 0, 64, 44
2,28091, Note_on_c, 0, 50, 0
2,28092, Control_c, 0, 64, 43
2,28094, Note_on_c, 0, 76, 0
2,28107, Control_c, 0, 64, 43
2,28129, Note_on_c, 0, 77, 56
2,28168, Control_c, 0, 64, 42
2,28274, Note_on_c, 0, 77, 0
2,28281, Note_on_c, 0, 76, 58
2,28283, Note_on_c, 0, 48, 44
2,28285, Note_on_c, 0, 54, 42
2,28363, Note_on_c, 0, 76, 0
2,28373, Note_on_c, 0, 48, 0
2,28374, Note_on_c, 0, 54, 0
2,28539, Note_on_c, 0, 74, 64
2,28545, Note_on_c, 0, 47, 45
2,28549, Note_on_c, 0, 56, 49
2,28637, Note_on_c, 0, 47, 0
2,28639, Note_on_c, 0, 74, 0
2,28640, Note_on_c, 0, 56, 0
2,28784, Control_c, 0, 64, 43
2,28799, Control_c, 0, 64, 44
2,28801, Note_on_c, 0, 72, 68
2,28804, Note_on_c, 0, 45, 51
2,28815, Control_c, 0, 64, 45
2,28818, Note_on_c, 0, 57, 56
2,28830, Control_c, 0, 64, 47
2,28846, Control_c, 0, 64, 48
2,28855, Note_on_c, 0, 45, 0
2,28858, Control_c, 0, 64, 49
2,28873, Control_c, 0, 64, 49
2,28877, Note_on_c, 0, 72, 0
2,28956, Note_on_c, 0, 57, 0
2,29033, Control_c, 0, 64, 49
2,29049, Control_c, 0, 64, 48
2,29066, Note_on_c, 0, 59, 58
2,29071, Note_on_c, 0, 72, 70
2,29083, Note_on_c, 0, 64, 56
2,29094, Control_c, 0, 64, 48
2,29112, Note_on_c, 0, 59, 0
2,29128, Note_on_c, 0, 64, 0
2,29154, Control_c, 0, 64, 47
2,29165, Note_on_c, 0, 72, 0
2,29176, Note_on_c, 0, 74, 66
2,29303, Note_on_c, 0, 72, 71
2,29303, Note_on_c, 0, 74, 0
2,29316, Note_on_c, 0, 57, 55
2,29319, Note_on_c, 0, 66, 67
2,29395, Note_on_c, 0, 66, 0
2,29422, Note_on_c, 0, 57, 0
2,29435, Note_on_c, 0, 72, 0
2,29575, Note_on_c, 0, 71, 68
2,29578, Note_on_c, 0, 67, 62
2,29581, Note_on_c, 0, 55, 51
2,29659, Note_on_c, 0, 67, 0
2,29660, Note_on_c, 0, 71, 0
2,29677, Note_on_c, 0, 55, 0
2,29832, Note_on_c, 0, 54, 57
2,29837, Note_on_c, 0, 69, 67
2,29886, Note_on_c, 0, 54, 0
2,29908, Note_on_c, 0, 69, 0
2,29944, Note_on_c, 0, 71, 67
2,30014, Control_c, 0, 64, 47
2,30030, Note_on_c, 0, 71, 0
2,30044, Control_c, 0, 64, 46
2,30072, Note_on_c, 0, 72, 66
2,30074, Note_on_c, 0, 57, 55
2,30081, Note_on_c, 0, 55, 45
2,30121, Control_c, 0, 64, 46
2,30127, Note_on_c, 0, 55, 0
2,30127, Note_on_c, 0, 57, 0
2,30164, Note_on_c, 0, 72, 0
2,30178, Note_on_c, 0, 71, 69
2,30276, Note_on_c, 0, 71, 0
2,30326, Note_on_c, 0, 59, 58
2,30327, Note_on_c, 0, 69, 69
2,30337, Note_on_c, 0, 54, 52
2,30408, Note_on_c, 0, 59, 0
2,30426, Note_on_c, 0, 54, 0
2,30445, Note_on_c, 0, 69, 0
2,30596, Note_on_c, 0, 67, 72
2,30599, Control_c, 0, 64, 46
2,30599, Note_on_c, 0, 52, 57
2,30607, Note_on_c, 0, 61, 60
2,30615, Control_c, 0, 64, 47
2,30630, Control_c, 0, 64, 47
2,30683, Note_on_c, 0, 61, 0
2,30690, Note_on_c, 0, 52, 0
2,30693, Note_on_c, 0, 67, 0
2,30866, Note_on_c, 0, 78, 78
2,30885, Note_on_c, 0, 50, 52
2,30890, Control_c, 0, 64, 47
2,30891, Note_on_c, 0, 62, 54
2,30904, Control_c, 0, 64, 46
2,30935, Control_c, 0, 64, 46
2,30974, Note_on_c, 0, 62, 0
2,30975, Note_on_c, 0, 50, 0
2,31004, Note_on_c, 0, 78, 0
2,31138, Note_on_c, 0, 62, 45
2,31144, Note_on_c, 0, 52, 42
2,31147, Note_on_c, 0, 81, 60
2,31214, Note_on_c, 0, 81, 0
2,31231, Note_on_c, 0, 62, 0
2,31238, Control_c, 0, 64, 46
2,31243, Note_on_c, 0, 52, 0
2,31285, Control_c, 0, 64, 47
2,31403, Note_on_c, 0, 50, 45
2,31410, Note_on_c, 0, 64, 54
2,31492, Note_on_c, 0, 64, 0
2,31516, Note_on_c, 0, 50, 0
2,31566, Control_c, 0, 64, 46
2,31581, Control_c, 0, 64, 46
2,31626, Control_c, 0, 64, 45
2,31655, Note_on_c, 0, 76, 63
2,31672, Note_on_c, 0, 48, 47
2,31673, Note_on_c, 0, 66, 50
2,31716, Note_on_c, 0, 66, 0
2,31749, Note_on_c, 0, 48, 0
2,31749, Note_on_c, 0, 76, 0
2,31923, Note_on_c, 0, 74, 62
2,31924, Note_on_c, 0, 47, 56
2,31960, Note_on_c, 0, 67, 26
2,31967, Note_on_c, 0, 47, 0
2,31999, Note_on_c, 0, 74, 0
2,32029, Note_on_c, 0, 72, 63
2,32149, Note_on_c, 0, 67, 0
2,32156, Note_on_c, 0, 72, 0
2,32178, Note_on_c, 0, 76, 59
2,32187, Note_on_c, 0, 55, 51
2,32187, Note_on_c, 0, 59, 42
2,32289, Note_on_c, 0, 74, 64
2,32337, Note_on_c, 0, 76, 0
2,32395, Note_on_c, 0, 59, 0
2,32418, Note_on_c, 0, 57, 52
2,32421, Note_on_c, 0, 72, 67
2,32499, Note_on_c, 0, 74, 0
2,32521, Note_on_c, 0, 71, 74
2,32547, Note_on_c, 0, 72, 0
2,32563, Control_c, 0, 64, 46
2,32647, Note_on_c, 0, 74, 71
2,32652, Note_on_c, 0, 55, 0
2,32662, Note_on_c, 0, 71, 0
2,32666, Note_on_c, 0, 54, 52
2,32763, Note_on_c, 0, 72, 77
2,32858, Note_on_c, 0, 57, 0
2,32884, Note_on_c, 0, 74, 0
2,32887, Note_on_c, 0, 54, 0
2,32895, Note_on_c, 0, 71, 82
2,32910, Note_on_c, 0, 55, 52
2,32931, Note_on_c, 0, 72, 0
2,32993, Note_on_c, 0, 71, 0
2,32998, Control_c, 0, 64, 46
2,33026, Note_on_c, 0, 52, 54
2,33119, Control_c, 0, 64, 47
2,33122, Note_on_c, 0, 52, 0
2,33143, Note_on_c, 0, 72, 80
2,33145, Note_on_c, 0, 50, 58
2,33149, Control_c, 0, 64, 47
2,33227, Note_on_c, 0, 72, 0
2,33247, Note_on_c, 0, 50, 0
2,33253, Note_on_c, 0, 48, 61
2,33256, Control_c, 0, 64, 48
2,33389, Note_on_c, 0, 74, 71
2,33390, Note_on_c, 0, 48, 0
2,33393, Control_c, 0, 64, 47
2,33397, Note_on_c, 0, 47, 56
2,33409, Control_c, 0, 64, 46
2,33424, Control_c, 0, 64, 46
2,33439, Control_c, 0, 64, 45
2,33446, Note_on_c, 0, 47, 0
2,33469, Control_c, 0, 64, 45
2,33485, Control_c, 0, 64, 44
2,33507, Note_on_c, 0, 71, 66
2,33606, Control_c, 0, 64, 45
2,33621, Control_c, 0, 64, 47
2,33623, Note_on_c, 0, 52, 50
2,33629, Note_on_c, 0, 71, 0
2,33644, Control_c, 0, 64, 50
2,33648, Note_on_c, 0, 69, 70
2,33659, Control_c, 0, 64, 53
2,33673, Note_on_c, 0, 74, 0
2,33674, Control_c, 0, 64, 56
2,33690, Control_c, 0, 64, 59
2,33705, Control_c, 0, 64, 62
2,33710, Note_on_c, 0, 69, 0
2,33718, Note_on_c, 0, 52, 0
2,33721, Control_c, 0, 64, 64
2,33730, Note_on_c, 0, 67, 70
2,33735, Control_c, 0, 64, 67
2,33750, Control_c, 0, 64, 70
2,33764, Note_on_c, 0, 67, 0
2,33766, Control_c, 0, 64, 74
2,33780, Control_c, 0, 64, 76
2,33796, Control_c, 0, 64, 77
2,33811, Control_c, 0, 64, 76
2,33826, Control_c, 0, 64, 73
2,33842, Control_c, 0, 64, 68
2,33856, Control_c, 0, 64, 59
2,33871, Control_c, 0, 64, 42
2,33874, Note_on_c, 0, 55, 0
2,33880, Note_on_c, 0, 48, 72
2,33880, Note_on_c, 0, 76, 76
2,33887, Control_c, 0, 64, 28
2,33917, Control_c, 0, 64, 27
2,33935, Note_on_c, 0, 76, 0
2,33945, Note_on_c, 0, 78, 75
2,33992, Control_c, 0, 64, 28
2,33996, Note_on_c, 0, 76, 75
2,34009, Note_on_c, 0, 78, 0
2,34023, Control_c, 0, 64, 28
2,34039, Control_c, 0, 64, 29
2,34054, Control_c, 0, 64, 29
2,34069, Control_c, 0, 64, 30
2,34121, Note_on_c, 0, 78, 87
2,34125, Note_on_c, 0, 74, 80
2,34127, Note_on_c, 0, 45, 68
2,34128, Note_on_c, 0, 57, 71
2,34130, Note_on_c, 0, 48, 0
2,34131, Note_on_c, 0, 76, 0
2,34218, Note_on_c, 0, 79, 87
2,34234, Note_on_c, 0, 76, 78
2,34237, Note_on_c, 0, 78, 0
2,34249, Note_on_c, 0, 74, 0
2,34330, Note_on_c, 0, 57, 0
2,34345, Note_on_c, 0, 74, 88
2,34345, Note_on_c, 0, 78, 84
2,34349, Note_on_c, 0, 76, 0
2,34351, Note_on_c, 0, 50, 82
2,34359, Control_c, 0, 64, 31
2,34363, Note_on_c, 0, 45, 0
2,34363, Note_on_c, 0, 79, 0
2,34374, Control_c, 0, 64, 32
2,34389, Control_c, 0, 64, 32
2,34412, Control_c, 0, 64, 33
2,34425, Note_on_c, 0, 78, 0
2,34427, Control_c, 0, 64, 34
2,34458, Control_c, 0, 64, 34
2,34466, Note_on_c, 0, 73, 75
2,34470, Note_on_c, 0, 78, 66
2,34485, Note_on_c, 0, 74, 0
2,34519, Control_c, 0, 64, 34
2,34534, Control_c, 0, 64, 32
2,34548, Control_c, 0, 64, 30
2,34564, Control_c, 0, 64, 27
2,34579, Control_c, 0, 64, 25
2,34594, Control_c, 0, 64, 21
2,34610, Control_c, 0, 64, 15
2,34624, Control_c, 0, 64, 0
2,34625, Note_on_c, 0, 72, 86
2,34626, Note_on_c, 0, 73, 0
2,34630, Note_on_c, 0, 38, 80
2,34731, Control_c, 0, 64, 17
2,34739, Note_on_c, 0, 78, 0
2,34745, Control_c, 0, 64, 43
2,34745, Note_on_c, 0, 79, 85
2,34761, Control_c, 0, 64, 56
2,34776, Control_c, 0, 64, 62
2,34779, Note_on_c, 0, 72, 0
2,34791, Control_c, 0, 64, 66
2,34806, Note_on_c, 0, 79, 0
2,34807, Control_c, 0, 64, 71
2,34821, Control_c, 0, 64, 78
2,34837, Control_c, 0, 64, 84
2,34837, Note_on_c, 0, 38, 0
2,34852, Control_c, 0, 64, 86
2,34867, Control_c, 0, 64, 83
2,34883, Control_c, 0, 64, 78
2,34893, Note_on_c, 0, 79, 94
2,34894, Note_on_c, 0, 43, 76
2,34897, Note_on_c, 0, 71, 85
2,34898, Control_c, 0, 64, 68
2,34913, Control_c, 0, 64, 58
2,34929, Control_c, 0, 64, 38
2,34944, Control_c, 0, 64, 28
2,34952, Note_on_c, 0, 50, 0
2,34956, Note_on_c, 0, 43, 0
2,34959, Control_c, 0, 64, 28
2,34990, Control_c, 0, 64, 27
2,35004, Note_on_c, 0, 71, 0
2,35006, Control_c, 0, 64, 25
2,35021, Control_c, 0, 64, 23
2,35037, Control_c, 0, 64, 21
2,35051, Control_c, 0, 64, 21
2,35174, Note_on_c, 0, 67, 77
2,35185, Note_on_c, 0, 71, 80
2,35273, Note_on_c, 0, 67, 0
2,35280, Note_on_c, 0, 69, 78
2,35284, Note_on_c, 0, 71, 0
2,35287, Control_c, 0, 64, 21
2,35288, Note_on_c, 0, 72, 78
2,35421, Note_on_c, 0, 67, 87
2,35426, Note_on_c, 0, 71, 78
2,35434, Note_on_c, 0, 69, 0
2,35439, Control_c, 0, 64, 22
2,35476, Note_on_c, 0, 72, 0
2,35516, Control_c, 0, 64, 23
2,35531, Control_c, 0, 64, 24
2,35535, Note_on_c, 0, 71, 0
2,35545, Control_c, 0, 64, 25
2,35552, Note_on_c, 0, 67, 0
2,35561, Control_c, 0, 64, 25
2,35576, Control_c, 0, 64, 26
2,35666, Control_c, 0, 64, 26
2,35682, Control_c, 0, 64, 27
2,35683, Note_on_c, 0, 65, 82
2,35690, Note_on_c, 0, 69, 79
2,35697, Control_c, 0, 64, 28
2,35712, Control_c, 0, 64, 29
2,35728, Control_c, 0, 64, 29
2,35742, Control_c, 0, 64, 30
2,35758, Control_c, 0, 64, 30
2,35781, Note_on_c, 0, 65, 0
2,35787, Control_c, 0, 64, 31
2,35787, Note_on_c, 0, 69, 0
2,35804, Control_c, 0, 64, 32
2,35818, Control_c, 0, 64, 32
2,35833, Control_c, 0, 64, 33
2,35849, Control_c, 0, 64, 34
2,35864, Control_c, 0, 64, 35
2,35880, Control_c, 0, 64, 35
2,35895, Control_c, 0, 64, 36
2,35909, Control_c, 0, 64, 37
2,35925, Control_c, 0, 64, 37
2,35940, Control_c, 0, 64, 38
2,35964, Control_c, 0, 64, 39
2,35965, Note_on_c, 0, 67, 79
2,35968, Note_on_c, 0, 64, 69
2,35978, Control_c, 0, 64, 43
2,35980, Note_on_c, 0, 79, 0
2,35993, Control_c, 0, 64, 48
2,36009, Control_c, 0, 64, 54
2,36024, Control_c, 0, 64, 59
2,36039, Control_c, 0, 64, 63
2,36054, Control_c, 0, 64, 66
2,36065, Note_on_c, 0, 64, 0
2,36069, Control_c, 0, 64, 70
2,36085, Control_c, 0, 64, 74
2,36100, Control_c, 0, 64, 79
2,36114, Control_c, 0, 64, 80
2,36130, Control_c, 0, 64, 80
2,36145, Control_c, 0, 64, 78
2,36161, Control_c, 0, 64, 75
2,36176, Control_c, 0, 64, 72
2,36191, Control_c, 0, 64, 69
2,36207, Control_c, 0, 64, 66
2,36216, Note_on_c, 0, 79, 80
2,36222, Control_c, 0, 64, 62
2,36222, Note_on_c, 0, 64, 61
2,36227, Note_on_c, 0, 67, 0
2,36237, Control_c, 0, 64, 57
2,36252, Control_c, 0, 64, 52
2,36267, Control_c, 0, 64, 49
2,36283, Control_c, 0, 64, 48
2,36298, Control_c, 0, 64, 46
2,36304, Note_on_c, 0, 64, 0
2,36312, Control_c, 0, 64, 44
2,36326, Note_on_c, 0, 81, 75
2,36328, Control_c, 0, 64, 42
2,36328, Note_on_c, 0, 79, 0
2,36329, Note_on_c, 0, 65, 54
2,36343, Control_c, 0, 64, 41
2,36359, Control_c, 0, 64, 41
2,36374, Control_c, 0, 64, 40
2,36388, Control_c, 0, 64, 40
2,36419, Control_c, 0, 64, 39
2,36433, Control_c, 0, 64, 39
2,36460, Note_on_c, 0, 79, 78
2,36464, Note_on_c, 0, 65, 0
2,36467, Note_on_c, 0, 64, 61
2,36469, Note_on_c, 0, 69, 66
2,36508, Note_on_c, 0, 81, 0
2,36529, Note_on_c, 0, 69, 0
2,36567, Note_on_c, 0, 64, 0
2,36570, Control_c, 0, 64, 39
2,36590, Note_on_c, 0, 79, 0
2,36617, Control_c, 0, 64, 40
2,36678, Control_c, 0, 64, 40
2,36693, Control_c, 0, 64, 41
2,36708, Control_c, 0, 64, 42
2,36732, Control_c, 0, 64, 43
2,36739, Note_on_c, 0, 77, 71
2,36741, Note_on_c, 0, 62, 60
2,36746, Control_c, 0, 64, 44
2,36748, Note_on_c, 0, 71, 48
2,36762, Control_c, 0, 64, 45
2,36766, Note_on_c, 0, 72, 51
2,36777, Control_c, 0, 64, 47
2,36792, Control_c, 0, 64, 47
2,36797, Note_on_c, 0, 72, 0
2,36809, Note_on_c, 0, 71, 0
2,36833, Note_on_c, 0, 77, 0
2,36837, Note_on_c, 0, 62, 0
2,36992, Note_on_c, 0, 60, 55
2,36998, Note_on_c, 0, 72, 62
2,37001, Note_on_c, 0, 76, 61
2,37005, Control_c, 0, 64, 47
2,37020, Control_c, 0, 64, 46
2,37034, Control_c, 0, 64, 45
2,37065, Control_c, 0, 64, 45
2,37081, Control_c, 0, 64, 44
2,37102, Note_on_c, 0, 72, 0
2,37106, Note_on_c, 0, 74, 69
2,37110, Note_on_c, 0, 76, 0
2,37111, Control_c, 0, 64, 43
2,37112, Note_on_c, 0, 60, 0
2,37122, Note_on_c, 0, 62, 61
2,37142, Control_c, 0, 64, 43
2,37227, Note_on_c, 0, 62, 0
2,37230, Note_on_c, 0, 72, 71
2,37234, Note_on_c, 0, 64, 70
2,37247, Note_on_c, 0, 74, 0
2,37338, Note_on_c, 0, 72, 0
2,37346, Note_on_c, 0, 62, 78
2,37349, Note_on_c, 0, 64, 0
2,37349, Note_on_c, 0, 74, 76
2,37471, Note_on_c, 0, 60, 77
2,37487, Note_on_c, 0, 76, 76
2,37493, Note_on_c, 0, 74, 0
2,37500, Control_c, 0, 64, 43
2,37504, Note_on_c, 0, 62, 0
2,37576, Note_on_c, 0, 60, 0
2,37585, Note_on_c, 0, 77, 82
2,37609, Note_on_c, 0, 76, 0
2,37726, Note_on_c, 0, 79, 73
2,37727, Note_on_c, 0, 58, 89
2,37730, Note_on_c, 0, 74, 71
2,37735, Note_on_c, 0, 77, 0
2,37801, Note_on_c, 0, 58, 0
2,37833, Control_c, 0, 64, 44
2,37848, Control_c, 0, 64, 44
2,37863, Control_c, 0, 64, 45
2,37894, Control_c, 0, 64, 46
2,37909, Control_c, 0, 64, 46
2,37925, Control_c, 0, 64, 47
2,37940, Control_c, 0, 64, 47
2,37956, Control_c, 0, 64, 49
2,37971, Control_c, 0, 64, 51
2,37986, Control_c, 0, 64, 54
2,37988, Note_on_c, 0, 69, 86
2,37998, Note_on_c, 0, 74, 0
2,37999, Note_on_c, 0, 73, 71
2,38001, Control_c, 0, 64, 56
2,38016, Control_c, 0, 64, 57
2,38031, Control_c, 0, 64, 58
2,38056, Note_on_c, 0, 69, 0
2,38074, Note_on_c, 0, 73, 0
2,38102, Note_on_c, 0, 79, 0
2,38104, Note_on_c, 0, 77, 71
2,38107, Control_c, 0, 64, 56
2,38122, Control_c, 0, 64, 56
2,38137, Control_c, 0, 64, 55
2,38152, Control_c, 0, 64, 53
2,38168, Control_c, 0, 64, 51
2,38183, Control_c, 0, 64, 50
2,38198, Control_c, 0, 64, 49
2,38208, Note_on_c, 0, 77, 0
2,38233, Note_on_c, 0, 76, 67
2,38259, Note_on_c, 0, 73, 67
2,38267, Control_c, 0, 64, 49
2,38283, Control_c, 0, 64, 51
2,38298, Control_c, 0, 64, 54
2,38312, Control_c, 0, 64, 57
2,38328, Control_c, 0, 64, 60
2,38340, Note_on_c, 0, 76, 0
2,38343, Control_c, 0, 64, 63
2,38359, Control_c, 0, 64, 67
2,38361, Note_on_c, 0, 74, 66
2,38369, Note_on_c, 0, 77, 65
2,38374, Control_c, 0, 64, 72
2,38389, Control_c, 0, 64, 81
2,38389, Note_on_c, 0, 73, 0
2,38396, Note_on_c, 0, 74, 0
2,38405, Control_c, 0, 64, 87
2,38425, Note_on_c, 0, 77, 0
2,38434, Control_c, 0, 64, 81
2,38450, Control_c, 0, 64, 73
2,38465, Control_c, 0, 64, 64
2,38480, Control_c, 0, 64, 54
2,38495, Control_c, 0, 64, 42
2,38501, Note_on_c, 0, 76, 57
2,38502, Note_on_c, 0, 79, 68
2,38510, Control_c, 0, 64, 40
2,38614, Note_on_c, 0, 79, 0
2,38622, Note_on_c, 0, 81, 66
2,38632, Control_c, 0, 64, 41
2,38647, Control_c, 0, 64, 42
2,38662, Control_c, 0, 64, 43
2,38692, Control_c, 0, 64, 43
2,38723, Control_c, 0, 64, 44
2,38746, Note_on_c, 0, 67, 68
2,38746, Note_on_c, 0, 82, 72
2,38749, Note_on_c, 0, 81, 0
2,38769, Control_c, 0, 64, 44
2,38823, Note_on_c, 0, 67, 0
2,38870, Note_on_c, 0, 79, 67
2,38879, Note_on_c, 0, 82, 0
2,39000, Note_on_c, 0, 79, 0
2,39003, Note_on_c, 0, 65, 62
2,39004, Note_on_c, 0, 81, 78
2,39036, Note_on_c, 0, 76, 0
2,39092, Note_on_c, 0, 65, 0
2,39112, Control_c, 0, 64, 45
2,39127, Control_c, 0, 64, 46
2,39132, Note_on_c, 0, 64, 58
2,39132, Note_on_c, 0, 73, 67
2,39142, Control_c, 0, 64, 47
2,39158, Control_c, 0, 64, 48
2,39173, Control_c, 0, 64, 48
2,39188, Control_c, 0, 64, 49
2,39203, Control_c, 0, 64, 49
2,39222, Note_on_c, 0, 81, 0
2,39231, Note_on_c, 0, 73, 0
2,39241, Note_on_c, 0, 74, 73
2,39249, Note_on_c, 0, 64, 0
2,39258, Note_on_c, 0, 67, 64
2,39359, Note_on_c, 0, 67, 0
2,39367, Note_on_c, 0, 82, 79
2,39377, Note_on_c, 0, 65, 64
2,39422, Note_on_c, 0, 74, 0
2,39423, Note_on_c, 0, 82, 0
2,39431, Control_c, 0, 64, 48
2,39447, Control_c, 0, 64, 48
2,39462, Control_c, 0, 64, 47
2,39478, Control_c, 0, 64, 46
2,39491, Note_on_c, 0, 79, 81
2,39492, Control_c, 0, 64, 46
2,39496, Note_on_c, 0, 65, 0
2,39500, Note_on_c, 0, 64, 71
2,39507, Control_c, 0, 64, 45
2,39523, Control_c, 0, 64, 44
2,39582, Note_on_c, 0, 64, 0
2,39606, Note_on_c, 0, 71, 70
2,39621, Note_on_c, 0, 62, 64
2,39643, Control_c, 0, 64, 45
2,39658, Control_c, 0, 64, 45
2,39673, Control_c, 0, 64, 46
2,39689, Control_c, 0, 64, 46
2,39704, Control_c, 0, 64, 47
2,39720, Control_c, 0, 64, 48
2,39729, Note_on_c, 0, 62, 0
2,39746, Note_on_c, 0, 71, 0
2,39747, Note_on_c, 0, 73, 63
2,39749, Control_c, 0, 64, 48
2,39751, Note_on_c, 0, 65, 62
2,39857, Note_on_c, 0, 73, 0
2,39858, Note_on_c, 0, 79, 0
2,39859, Note_on_c, 0, 65, 0
2,39867, Note_on_c, 0, 81, 68
2,39873, Note_on_c, 0, 64, 59
2,39930, Note_on_c, 0, 81, 0
2,39940, Control_c, 0, 64, 48
2,39956, Control_c, 0, 64, 47
2,39970, Control_c, 0, 64, 47
2,40001, Control_c, 0, 64, 46
2,40012, Note_on_c, 0, 77, 68
2,40013, Note_on_c, 0, 62, 67
2,40013, Note_on_c, 0, 64, 0
2,40014, Note_on_c, 0, 74, 65
2,40047, Control_c, 0, 64, 46
2,40098, Note_on_c, 0, 62, 0
2,40106, Note_on_c, 0, 77, 0
2,40125, Note_on_c, 0, 76, 64
2,40257, Note_on_c, 0, 76, 0
2,40264, Note_on_c, 0, 77, 66
2,40266, Note_on_c, 0, 64, 61
2,40320, Control_c, 0, 64, 45
2,40330, Note_on_c, 0, 64, 0
2,40340, Note_on_c, 0, 77, 0
2,40350, Control_c, 0, 64, 45
2,40366, Control_c, 0, 64, 44
2,40371, Note_on_c, 0, 79, 67
2,40380, Control_c, 0, 64, 44
2,40410, Control_c, 0, 64, 43
2,40487, Control_c, 0, 64, 44
2,40501, Control_c, 0, 64, 46
2,40517, Control_c, 0, 64, 49
2,40518, Note_on_c, 0, 81, 58
2,40521, Note_on_c, 0, 65, 59
2,40532, Control_c, 0, 64, 53
2,40543, Note_on_c, 0, 79, 0
2,40547, Control_c, 0, 64, 55
2,40570, Control_c, 0, 64, 58
2,40584, Control_c, 0, 64, 60
2,40587, Note_on_c, 0, 81, 0
2,40593, Note_on_c, 0, 74, 0
2,40600, Control_c, 0, 64, 61
2,40615, Control_c, 0, 64, 63
2,40624, Note_on_c, 0, 65, 0
2,40630, Control_c, 0, 64, 63
2,40649, Note_on_c, 0, 64, 61
2,40661, Control_c, 0, 64, 62
2,40677, Control_c, 0, 64, 61
2,40692, Control_c, 0, 64, 60
2,40707, Control_c, 0, 64, 58
2,40723, Control_c, 0, 64, 55
2,40738, Control_c, 0, 64, 52
2,40746, Note_on_c, 0, 64, 0
2,40753, Control_c, 0, 64, 51
2,40771, Note_on_c, 0, 69, 71
2,40778, Note_on_c, 0, 62, 69
2,40783, Control_c, 0, 64, 53
2,40787, Note_on_c, 0, 65, 51
2,40799, Control_c, 0, 64, 55
2,40814, Control_c, 0, 64, 56
2,40820, Note_on_c, 0, 65, 0
2,40829, Control_c, 0, 64, 57
2,40834, Note_on_c, 0, 69, 0
2,40845, Control_c, 0, 64, 58
2,40853, Note_on_c, 0, 62, 0
2,40884, Note_on_c, 0, 60, 72
2,40921, Control_c, 0, 64, 56
2,40936, Control_c, 0, 64, 55
2,40950, Control_c, 0, 64, 53
2,40966, Control_c, 0, 64, 52
2,40981, Control_c, 0, 64, 50
2,40997, Control_c, 0, 64, 49
2,41012, Control_c, 0, 64, 47
2,41019, Note_on_c, 0, 58, 82
2,41025, Note_on_c, 0, 74, 72
2,41026, Control_c, 0, 64, 45
2,41029, Note_on_c, 0, 67, 63
2,41042, Control_c, 0, 64, 43
2,41044, Note_on_c, 0, 60, 0
2,41057, Control_c, 0, 64, 41
2,41071, Note_on_c, 0, 67, 0
2,41072, Control_c, 0, 64, 40
2,41088, Control_c, 0, 64, 39
2,41112, Note_on_c, 0, 74, 0
2,41123, Note_on_c, 0, 58, 0
2,41138, Note_on_c, 0, 79, 69
2,41152, Note_on_c, 0, 73, 64
2,41245, Note_on_c, 0, 73, 0
2,41265, Note_on_c, 0, 57, 74
2,41274, Note_on_c, 0, 77, 77
2,41285, Control_c, 0, 64, 40
2,41300, Control_c, 0, 64, 41
2,41313, Note_on_c, 0, 79, 0
2,41316, Control_c, 0, 64, 41
2,41352, Control_c, 0, 64, 42
2,41378, Note_on_c, 0, 76, 68
2,41382, Note_on_c, 0, 55, 78
2,41384, Note_on_c, 0, 74, 67
2,41385, Note_on_c, 0, 58, 83
2,41402, Note_on_c, 0, 57, 0
2,41409, Note_on_c, 0, 77, 0
2,41425, Note_on_c, 0, 76, 0
2,41469, Note_on_c, 0, 74, 0
2,41514, Note_on_c, 0, 76, 79
2,41522, Note_on_c, 0, 57, 85
2,41530, Note_on_c, 0, 73, 73
2,41536, Control_c, 0, 64, 41
2,41560, Note_on_c, 0, 58, 0
2,41561, Note_on_c, 0, 55, 0
2,41719, Control_c, 0, 64, 42
2,41734, Control_c, 0, 64, 43
2,41749, Control_c, 0, 64, 44
2,41765, Control_c, 0, 64, 44
2,41780, Control_c, 0, 64, 45
2,41803, Note_on_c, 0, 55, 84
2,41810, Note_on_c, 0, 76, 0
2,41825, Control_c, 0, 64, 45
2,41874, Note_on_c, 0, 74, 74
2,41886, Control_c, 0, 64, 46
2,41917, Note_on_c, 0, 73, 0
2,41936, Note_on_c, 0, 55, 0
2,41936, Note_on_c, 0, 74, 0
2,42038, Note_on_c, 0, 74, 85
2,42039, Note_on_c, 0, 53, 83
2,42067, Control_c, 0, 64, 45
2,42102, Note_on_c, 0, 57, 0
2,42157, Note_on_c, 0, 53, 0
2,42299, Note_on_c, 0, 53, 71
2,42302, Note_on_c, 0, 69, 77
2,42304, Note_on_c, 0, 57, 66
2,42400, Note_on_c, 0, 55, 83
2,42412, Note_on_c, 0, 70, 81
2,42414, Note_on_c, 0, 53, 0
2,42423, Note_on_c, 0, 57, 0
2,42437, Note_on_c, 0, 69, 0
2,42506, Note_on_c, 0, 74, 0
2,42546, Note_on_c, 0, 53, 86
2,42547, Note_on_c, 0, 59, 87
2,42547, Note_on_c, 0, 69, 87
2,42568, Note_on_c, 0, 55, 0
2,42589, Note_on_c, 0, 70, 0
2,42608, Control_c, 0, 64, 46
2,42623, Control_c, 0, 64, 47
2,42633, Note_on_c, 0, 59, 0
2,42638, Control_c, 0, 64, 47
2,42645, Note_on_c, 0, 53, 0
2,42668, Control_c, 0, 64, 48
2,42671, Note_on_c, 0, 69, 0
2,42685, Control_c, 0, 64, 48
2,42813, Note_on_c, 0, 52, 75
2,42814, Note_on_c, 0, 61, 84
2,42819, Note_on_c, 0, 76, 88
2,42824, Note_on_c, 0, 67, 81
2,42851, Control_c, 0, 64, 49
2,42920, Note_on_c, 0, 52, 0
2,42927, Note_on_c, 0, 67, 0
2,42927, Note_on_c, 0, 76, 0
2,42930, Note_on_c, 0, 61, 0
2,43026, Control_c, 0, 64, 48
2,43041, Control_c, 0, 64, 48
2,43056, Control_c, 0, 64, 47
2,43087, Control_c, 0, 64, 47
2,43093, Note_on_c, 0, 50, 66
2,43094, Note_on_c, 0, 77, 84
2,43097, Note_on_c, 0, 62, 81
2,43098, Note_on_c, 0, 65, 80
2,43117, Control_c, 0, 64, 46
2,43147, Control_c, 0, 64, 45
2,43179, Control_c, 0, 64, 45
2,43208, Note_on_c, 0, 52, 74
2,43210, Control_c, 0, 64, 44
2,43211, Note_on_c, 0, 50, 0
2,43240, Control_c, 0, 64, 44
2,43287, Note_on_c, 0, 65, 0
2,43300, Control_c, 0, 64, 43
2,43339, Note_on_c, 0, 53, 77
2,43345, Note_on_c, 0, 52, 0
2,43345, Note_on_c, 0, 69, 79
2,43361, Control_c, 0, 64, 43
2,43437, Control_c, 0, 64, 42
2,43445, Note_on_c, 0, 52, 82
2,43467, Note_on_c, 0, 53, 0
2,43489, Note_on_c, 0, 69, 0
2,43586, Note_on_c, 0, 50, 84
2,43596, Note_on_c, 0, 71, 81
2,43618, Note_on_c, 0, 52, 0
2,43698, Note_on_c, 0, 62, 0
2,43717, Note_on_c, 0, 50, 0
2,43726, Note_on_c, 0, 71, 0
2,43764, Control_c, 0, 64, 43
2,43868, Note_on_c, 0, 72, 79
2,43869, Note_on_c, 0, 48, 86
2,43971, Note_on_c, 0, 48, 0
2,43976, Note_on_c, 0, 72, 0
2,44023, Control_c, 0, 64, 43
2,44145, Note_on_c, 0, 59, 86
2,44151, Note_on_c, 0, 74, 72
2,44245, Note_on_c, 0, 59, 0
2,44271, Note_on_c, 0, 72, 71
2,44388, Control_c, 0, 64, 44
2,44406, Note_on_c, 0, 77, 0
2,44408, Note_on_c, 0, 74, 0
2,44409, Note_on_c, 0, 62, 68
2,44410, Control_c, 0, 64, 45
2,44415, Note_on_c, 0, 71, 69
2,44420, Note_on_c, 0, 72, 0
2,44425, Control_c, 0, 64, 46
2,44441, Control_c, 0, 64, 47
2,44455, Control_c, 0, 64, 47
2,44470, Control_c, 0, 64, 48
2,44501, Control_c, 0, 64, 48
2,44505, Note_on_c, 0, 62, 0
2,44516, Note_on_c, 0, 71, 0
2,44530, Note_on_c, 0, 69, 62
2,44623, Control_c, 0, 64, 48
2,44639, Control_c, 0, 64, 47
2,44658, Note_on_c, 0, 67, 66
2,44662, Note_on_c, 0, 69, 0
2,44668, Control_c, 0, 64, 47
2,44684, Control_c, 0, 64, 46
2,44699, Control_c, 0, 64, 46
2,44714, Control_c, 0, 64, 45
2,44729, Control_c, 0, 64, 45
2,44740, Note_on_c, 0, 67, 0
2,44744, Control_c, 0, 64, 44
2,44775, Control_c, 0, 64, 44
2,44779, Note_on_c, 0, 76, 61
2,44837, Control_c, 0, 64, 43
2,44910, Note_on_c, 0, 57, 62
2,44913, Note_on_c, 0, 65, 59
2,44913, Note_on_c, 0, 76, 0
2,44919, Note_on_c, 0, 74, 57
2,44943, Control_c, 0, 64, 44
2,44966, Note_on_c, 0, 57, 0
2,45033, Control_c, 0, 64, 44
2,45040, Note_on_c, 0, 72, 58
2,45046, Note_on_c, 0, 74, 0
2,45094, Control_c, 0, 64, 45
2,45125, Control_c, 0, 64, 45
2,45174, Note_on_c, 0, 55, 53
2,45178, Control_c, 0, 64, 46
2,45179, Note_on_c, 0, 71, 63
2,45193, Control_c, 0, 64, 46
2,45201, Note_on_c, 0, 72, 0
2,45209, Control_c, 0, 64, 47
2,45224, Control_c, 0, 64, 48
2,45240, Control_c, 0, 64, 48
2,45240, Note_on_c, 0, 71, 0
2,45254, Control_c, 0, 64, 49
2,45259, Note_on_c, 0, 55, 0
2,45269, Control_c, 0, 64, 50
2,45285, Control_c, 0, 64, 50
2,45295, Note_on_c, 0, 53, 56
2,45314, Control_c, 0, 64, 51
2,45406, Control_c, 0, 64, 50
2,45408, Note_on_c, 0, 53, 0
2,45421, Control_c, 0, 64, 50
2,45427, Note_on_c, 0, 72, 75
2,45432, Note_on_c, 0, 57, 62
2,45437, Control_c, 0, 64, 49
2,45446, Note_on_c, 0, 64, 51
2,45452, Control_c, 0, 64, 49
2,45465, Note_on_c, 0, 65, 0
2,45467, Control_c, 0, 64, 48
2,45497, Control_c, 0, 64, 48
2,45512, Control_c, 0, 64, 47
2,45519, Note_on_c, 0, 57, 0
2,45528, Control_c, 0, 64, 46
2,45540, Note_on_c, 0, 55, 56
2,45543, Control_c, 0, 64, 45
2,45559, Control_c, 0, 64, 45
2,45573, Control_c, 0, 64, 44
2,45588, Control_c, 0, 64, 44
2,45604, Control_c, 0, 64, 43
2,45651, Control_c, 0, 64, 43
2,45670, Note_on_c, 0, 55, 0
2,45682, Note_on_c, 0, 62, 66
2,45687, Note_on_c, 0, 53, 61
2,45713, Note_on_c, 0, 64, 0
2,45726, Control_c, 0, 64, 43
2,45766, Note_on_c, 0, 53, 0
2,45772, Control_c, 0, 64, 44
2,45784, Note_on_c, 0, 52, 63
2,45802, Control_c, 0, 64, 45
2,45817, Control_c, 0, 64, 45
2,45832, Control_c, 0, 64, 46
2,45878, Control_c, 0, 64, 46
2,45935, Note_on_c, 0, 71, 77
2,45940, Note_on_c, 0, 55, 70
2,45957, Note_on_c, 0, 52, 0
2,45968, Note_on_c, 0, 72, 0
2,46042, Note_on_c, 0, 53, 74
2,46053, Control_c, 0, 64, 46
2,46066, Note_on_c, 0, 55, 0
2,46083, Control_c, 0, 64, 45
2,46113, Control_c, 0, 64, 45
2,46143, Control_c, 0, 64, 44
2,46174, Control_c, 0, 64, 44
2,46186, Note_on_c, 0, 52, 72
2,46188, Note_on_c, 0, 72, 76
2,46205, Control_c, 0, 64, 43
2,46207, Note_on_c, 0, 53, 0
2,46220, Note_on_c, 0, 71, 0
2,46224, Note_on_c, 0, 62, 0
2,46290, Note_on_c, 0, 52, 0
2,46323, Note_on_c, 0, 69, 71
2,46403, Control_c, 0, 64, 44
2,46417, Control_c, 0, 64, 44
2,46432, Control_c, 0, 64, 45
2,46442, Note_on_c, 0, 53, 61
2,46446, Note_on_c, 0, 67, 64
2,46449, Control_c, 0, 64, 45
2,46494, Control_c, 0, 64, 46
2,46530, Note_on_c, 0, 53, 0
2,46556, Note_on_c, 0, 69, 0
2,46560, Note_on_c, 0, 65, 70
2,46563, Note_on_c, 0, 67, 0
2,46689, Note_on_c, 0, 65, 0
2,46690, Note_on_c, 0, 64, 69
2,46691, Note_on_c, 0, 55, 56
2,46732, Control_c, 0, 64, 45
2,46812, Note_on_c, 0, 55, 0
2,46814, Note_on_c, 0, 52, 57
2,46912, Note_on_c, 0, 52, 0
2,46935, Note_on_c, 0, 70, 68
2,46937, Note_on_c, 0, 50, 56
2,46946, Note_on_c, 0, 67, 58
2,46976, Note_on_c, 0, 72, 0
2,47019, Note_on_c, 0, 50, 0
2,47053, Note_on_c, 0, 48, 59
2,47157, Control_c, 0, 64, 46
2,47186, Note_on_c, 0, 67, 0
2,47190, Note_on_c, 0, 48, 0
2,47205, Note_on_c, 0, 70, 0
2,47208, Note_on_c, 0, 53, 58
2,47208, Note_on_c, 0, 69, 69
2,47218, Control_c, 0, 64, 46
2,47294, Control_c, 0, 64, 47
2,47324, Note_on_c, 0, 53, 0
2,47326, Note_on_c, 0, 52, 61
2,47351, Note_on_c, 0, 64, 0
2,47445, Note_on_c, 0, 52, 0
2,47462, Note_on_c, 0, 50, 60
2,47480, Note_on_c, 0, 65, 72
2,47592, Note_on_c, 0, 50, 0
2,47600, Note_on_c, 0, 48, 67
2,47601, Note_on_c, 0, 67, 75
2,47627, Note_on_c, 0, 65, 0
2,47725, Note_on_c, 0, 65, 81
2,47729, Note_on_c, 0, 48, 0
2,47729, Note_on_c, 0, 50, 67
2,47842, Note_on_c, 0, 50, 0
2,47843, Note_on_c, 0, 52, 75
2,47869, Note_on_c, 0, 67, 0
2,47912, Note_on_c, 0, 65, 0
2,47982, Note_on_c, 0, 53, 75
2,47982, Note_on_c, 0, 64, 81
2,47983, Note_on_c, 0, 52, 0
2,48090, Note_on_c, 0, 50, 76
2,48102, Note_on_c, 0, 53, 0
2,48177, Note_on_c, 0, 64, 0
2,48184, Control_c, 0, 64, 46
2,48200, Control_c, 0, 64, 46
2,48215, Control_c, 0, 64, 45
2,48242, Note_on_c, 0, 62, 86
2,48245, Note_on_c, 0, 47, 78
2,48246, Note_on_c, 0, 50, 0
2,48267, Control_c, 0, 64, 46
2,48283, Control_c, 0, 64, 49
2,48298, Control_c, 0, 64, 54
2,48314, Control_c, 0, 64, 59
2,48329, Control_c, 0, 64, 63
2,48343, Control_c, 0, 64, 67
2,48359, Control_c, 0, 64, 73
2,48374, Control_c, 0, 64, 82
2,48383, Note_on_c, 0, 62, 0
2,48390, Control_c, 0, 64, 89
2,48404, Control_c, 0, 64, 92
2,48419, Control_c, 0, 64, 91
2,48435, Control_c, 0, 64, 88
2,48450, Control_c, 0, 64, 84
2,48465, Control_c, 0, 64, 80
2,48481, Control_c, 0, 64, 76
2,48491, Note_on_c, 0, 47, 0
2,48496, Control_c, 0, 64, 74
2,48502, Note_on_c, 0, 68, 80
2,48507, Note_on_c, 0, 62, 79
2,48509, Note_on_c, 0, 59, 76
2,48512, Control_c, 0, 64, 73
2,48527, Control_c, 0, 64, 71
2,48528, Note_on_c, 0, 69, 0
2,48540, Note_on_c, 0, 59, 0
2,48542, Control_c, 0, 64, 67
2,48557, Control_c, 0, 64, 63
2,48572, Control_c, 0, 64, 58
2,48587, Control_c, 0, 64, 55
2,48607, Note_on_c, 0, 64, 84
2,48609, Note_on_c, 0, 62, 0
2,48620, Note_on_c, 0, 60, 80
2,48633, Control_c, 0, 64, 54
2,48648, Control_c, 0, 64, 53
2,48663, Control_c, 0, 64, 52
2,48674, Note_on_c, 0, 60, 0
2,48678, Control_c, 0, 64, 51
2,48749, Note_on_c, 0, 48, 65
2,48755, Note_on_c, 0, 62, 82
2,48756, Note_on_c, 0, 69, 84
2,48767, Note_on_c, 0, 59, 80
2,48769, Note_on_c, 0, 68, 0
2,48787, Note_on_c, 0, 64, 0
2,48871, Note_on_c, 0, 59, 0
2,48876, Control_c, 0, 64, 52
2,48877, Note_on_c, 0, 62, 0
2,48891, Note_on_c, 0, 69, 0
2,48906, Control_c, 0, 64, 52
2,49033, Note_on_c, 0, 50, 66
2,49035, Note_on_c, 0, 57, 78
2,49035, Note_on_c, 0, 71, 80
2,49041, Note_on_c, 0, 60, 79
2,49042, Note_on_c, 0, 48, 0
2,49112, Control_c, 0, 64, 53
2,49120, Note_on_c, 0, 71, 0
2,49126, Note_on_c, 0, 57, 0
2,49142, Control_c, 0, 64, 53
2,49163, Note_on_c, 0, 60, 0
2,49173, Control_c, 0, 64, 54
2,49295, Note_on_c, 0, 56, 68
2,49295, Note_on_c, 0, 59, 78
2,49300, Note_on_c, 0, 64, 69
2,49340, Control_c, 0, 64, 53
2,49356, Control_c, 0, 64, 53
2,49375, Note_on_c, 0, 56, 0
2,49385, Control_c, 0, 64, 52
2,49404, Note_on_c, 0, 60, 80
2,49426, Note_on_c, 0, 59, 0
2,49461, Control_c, 0, 64, 52
2,49538, Note_on_c, 0, 62, 72
2,49544, Note_on_c, 0, 52, 72
2,49551, Note_on_c, 0, 60, 0
2,49559, Note_on_c, 0, 50, 0
2,49616, Note_on_c, 0, 52, 0
2,49636, Note_on_c, 0, 60, 81
2,49650, Note_on_c, 0, 64, 0
2,49677, Note_on_c, 0, 62, 0
2,49740, Note_on_c, 0, 60, 0
2,49781, Note_on_c, 0, 59, 83
2,49790, Note_on_c, 0, 50, 76
2,49805, Control_c, 0, 64, 52
2,49862, Note_on_c, 0, 50, 0
2,49899, Note_on_c, 0, 66, 77
2,49924, Note_on_c, 0, 59, 0
2,49926, Control_c, 0, 64, 52
2,49986, Control_c, 0, 64, 51
2,50033, Control_c, 0, 64, 52
2,50035, Note_on_c, 0, 57, 82
2,50037, Note_on_c, 0, 68, 79
2,50045, Note_on_c, 0, 52, 73
2,50047, Control_c, 0, 64, 54
2,50049, Note_on_c, 0, 48, 68
2,50062, Control_c, 0, 64, 57
2,50078, Control_c, 0, 64, 59
2,50092, Control_c, 0, 64, 62
2,50099, Note_on_c, 0, 66, 0
2,50107, Control_c, 0, 64, 63
2,50114, Note_on_c, 0, 57, 0
2,50123, Control_c, 0, 64, 66
2,50126, Note_on_c, 0, 52, 0
2,50138, Control_c, 0, 64, 72
2,50143, Note_on_c, 0, 69, 83
2,50145, Note_on_c, 0, 48, 0
2,50154, Control_c, 0, 64, 79
2,50168, Control_c, 0, 64, 87
2,50173, Note_on_c, 0, 68, 0
2,50183, Control_c, 0, 64, 90
2,50196, Note_on_c, 0, 69, 0
2,50199, Control_c, 0, 64, 87
2,50214, Control_c, 0, 64, 82
2,50230, Control_c, 0, 64, 74
2,50245, Control_c, 0, 64, 67
2,50260, Control_c, 0, 64, 58
2,50276, Control_c, 0, 64, 44
2,50280, Note_on_c, 0, 71, 85
2,50281, Note_on_c, 0, 68, 81
2,50285, Note_on_c, 0, 50, 88
2,50290, Control_c, 0, 64, 42
2,50292, Note_on_c, 0, 47, 72
2,50362, Note_on_c, 0, 47, 0
2,50365, Note_on_c, 0, 50, 0
2,50381, Control_c, 0, 64, 42
2,50397, Control_c, 0, 64, 43
2,50399, Note_on_c, 0, 72, 83
2,50411, Control_c, 0, 64, 44
2,50425, Note_on_c, 0, 71, 0
2,50426, Control_c, 0, 64, 44
2,50442, Control_c, 0, 64, 45
2,50457, Control_c, 0, 64, 47
2,50473, Control_c, 0, 64, 48
2,50487, Control_c, 0, 64, 48
2,50502, Control_c, 0, 64, 49
2,50518, Control_c, 0, 64, 49
2,50535, Note_on_c, 0, 71, 87
2,50537, Note_on_c, 0, 53, 73
2,50549, Note_on_c, 0, 50, 77
2,50557, Control_c, 0, 64, 50
2,50572, Note_on_c, 0, 72, 0
2,50573, Note_on_c, 0, 53, 0
2,50643, Note_on_c, 0, 52, 79
2,50643, Note_on_c, 0, 72, 83
2,50647, Note_on_c, 0, 48, 75
2,50655, Note_on_c, 0, 50, 0
2,50780, Note_on_c, 0, 47, 72
2,50785, Note_on_c, 0, 74, 88
2,50788, Note_on_c, 0, 50, 78
2,50797, Note_on_c, 0, 48, 0
2,50800, Control_c, 0, 64, 49
2,50808, Note_on_c, 0, 52, 0
2,50815, Control_c, 0, 64, 49
2,50831, Control_c, 0, 64, 48
2,50861, Control_c, 0, 64, 48
2,50876, Control_c, 0, 64, 47
2,50891, Control_c, 0, 64, 47
2,50899, Note_on_c, 0, 50, 0
2,50901, Note_on_c, 0, 47, 0
2,50936, Control_c, 0, 64, 46
2,50952, Control_c, 0, 64, 46
2,51038, Note_on_c, 0, 72, 0
2,51043, Note_on_c, 0, 65, 83
2,51046, Note_on_c, 0, 45, 70
2,51046, Note_on_c, 0, 48, 83
2,51049, Note_on_c, 0, 71, 0
2,51080, Note_on_c, 0, 68, 0
2,51106, Note_on_c, 0, 48, 0
2,51119, Control_c, 0, 64, 47
2,51119, Note_on_c, 0, 45, 0
2,51133, Control_c, 0, 64, 47
2,51148, Control_c, 0, 64, 48
2,51179, Control_c, 0, 64, 48
2,51209, Control_c, 0, 64, 49
2,51225, Note_on_c, 0, 65, 0
2,51285, Control_c, 0, 64, 49
2,51330, Note_on_c, 0, 47, 82
2,51332, Note_on_c, 0, 44, 76
2,51332, Note_on_c, 0, 64, 82
2,51333, Note_on_c, 0, 74, 0
2,51338, Control_c, 0, 64, 50
2,51401, Control_c, 0, 64, 50
2,51432, Control_c, 0, 64, 51
2,51438, Note_on_c, 0, 62, 81
2,51440, Note_on_c, 0, 47, 0
2,51448, Note_on_c, 0, 64, 0
2,51455, Note_on_c, 0, 44, 0
2,51460, Control_c, 0, 64, 51
2,51564, Note_on_c, 0, 62, 0
2,51575, Note_on_c, 0, 72, 85
2,51576, Note_on_c, 0, 48, 83
2,51578, Note_on_c, 0, 65, 78
2,51581, Note_on_c, 0, 45, 73
2,51641, Control_c, 0, 64, 51
2,51673, Note_on_c, 0, 48, 0
2,51691, Note_on_c, 0, 64, 78
2,51694, Note_on_c, 0, 45, 0
2,51695, Note_on_c, 0, 65, 0
2,51793, Note_on_c, 0, 72, 0
2,51820, Note_on_c, 0, 50, 84
2,51825, Note_on_c, 0, 47, 75
2,51828, Note_on_c, 0, 62, 82
2,51854, Control_c, 0, 64, 51
2,51860, Note_on_c, 0, 64, 0
2,51914, Control_c, 0, 64, 52
2,51925, Note_on_c, 0, 50, 0
2,51936, Note_on_c, 0, 60, 81
2,51940, Note_on_c, 0, 47, 0
2,51942, Note_on_c, 0, 62, 0
2,52065, Note_on_c, 0, 71, 82
2,52077, Note_on_c, 0, 64, 81
2,52080, Note_on_c, 0, 47, 80
2,52082, Note_on_c, 0, 44, 74
2,52086, Note_on_c, 0, 60, 0
2,52157, Note_on_c, 0, 44, 0
2,52166, Note_on_c, 0, 47, 0
2,52190, Note_on_c, 0, 62, 82
2,52203, Note_on_c, 0, 64, 0
2,52284, Note_on_c, 0, 71, 0
2,52334, Note_on_c, 0, 52, 84
2,52334, Note_on_c, 0, 60, 81
2,52336, Note_on_c, 0, 45, 73
2,52379, Note_on_c, 0, 62, 0
2,52453, Note_on_c, 0, 60, 0
2,52611, Note_on_c, 0, 69, 82
2,52616, Note_on_c, 0, 62, 76
2,52617, Note_on_c, 0, 47, 70
2,52647, Note_on_c, 0, 45, 0
2,52683, Control_c, 0, 64, 51
2,52705, Note_on_c, 0, 68, 79
2,52728, Control_c, 0, 64, 51
2,52734, Note_on_c, 0, 69, 0
2,52833, Control_c, 0, 64, 50
2,52854, Note_on_c, 0, 69, 80
2,52858, Note_on_c, 0, 64, 74
2,52860, Note_on_c, 0, 48, 73
2,52864, Note_on_c, 0, 62, 0
2,52902, Note_on_c, 0, 47, 0
2,52905, Note_on_c, 0, 52, 0
2,52911, Note_on_c, 0, 68, 0
2,52976, Note_on_c, 0, 60, 77
2,52978, Note_on_c, 0, 64, 0
2,53105, Note_on_c, 0, 53, 73
2,53107, Note_on_c, 0, 59, 74
2,53120, Note_on_c, 0, 60, 0
2,53204, Note_on_c, 0, 59, 0
2,53209, Note_on_c, 0, 57, 77
2,53319, Note_on_c, 0, 57, 0
2,53345, Note_on_c, 0, 50, 72
2,53346, Note_on_c, 0, 65, 77
2,53370, Note_on_c, 0, 48, 0
2,53419, Control_c, 0, 64, 50
2,53446, Note_on_c, 0, 50, 0
2,53447, Note_on_c, 0, 65, 0
2,53466, Note_on_c, 0, 60, 68
2,53469, Note_on_c, 0, 62, 59
2,53496, Control_c, 0, 64, 49
2,53581, Note_on_c, 0, 47, 63
2,53582, Note_on_c, 0, 50, 65
2,53585, Note_on_c, 0, 64, 74
2,53587, Note_on_c, 0, 62, 0
2,53593, Note_on_c, 0, 53, 0
2,53595, Note_on_c, 0, 60, 0
2,53619, Note_on_c, 0, 69, 0
2,53655, Control_c, 0, 64, 49
2,53677, Note_on_c, 0, 47, 0
2,53679, Note_on_c, 0, 50, 0
2,53691, Note_on_c, 0, 65, 78
2,53698, Note_on_c, 0, 64, 0
2,53746, Control_c, 0, 64, 48
2,53838, Control_c, 0, 64, 48
2,53855, Note_on_c, 0, 68, 75
2,53860, Note_on_c, 0, 52, 62
2,53861, Note_on_c, 0, 59, 67
2,53863, Note_on_c, 0, 65, 0
2,53868, Control_c, 0, 64, 47
2,53884, Control_c, 0, 64, 45
2,53899, Control_c, 0, 64, 43
2,53914, Control_c, 0, 64, 35
2,53922, Note_on_c, 0, 52, 0
2,53930, Control_c, 0, 64, 18
2,53945, Control_c, 0, 64, 0
2,54127, Control_c, 0, 64, 24
2,54142, Control_c, 0, 64, 38
2,54158, Control_c, 0, 64, 49
2,54172, Control_c, 0, 64, 55
2,54176, Note_on_c, 0, 40, 41
2,54180, Note_on_c, 0, 50, 47
2,54187, Control_c, 0, 64, 58
2,54200, Note_on_c, 0, 68, 0
2,54204, Control_c, 0, 64, 61
2,54219, Control_c, 0, 64, 62
2,54221, Note_on_c, 0, 40, 0
2,54229, Note_on_c, 0, 59, 0
2,54233, Control_c, 0, 64, 62
2,54272, Note_on_c, 0, 50, 0
2,54287, Note_on_c, 0, 57, 52
2,54295, Control_c, 0, 64, 61
2,54309, Control_c, 0, 64, 60
2,54325, Control_c, 0, 64, 59
2,54339, Note_on_c, 0, 57, 0
2,54340, Control_c, 0, 64, 57
2,54354, Control_c, 0, 64, 53
2,54370, Control_c, 0, 64, 45
2,54393, Control_c, 0, 64, 31
2,54409, Control_c, 0, 64, 20
2,54424, Control_c, 0, 64, 18
2,54454, Control_c, 0, 64, 20
2,54456, Note_on_c, 0, 45, 47
2,54456, Note_on_c, 0, 69, 60
2,54458, Note_on_c, 0, 57, 49
2,54462, Note_on_c, 0, 48, 44
2,54469, Control_c, 0, 64, 32
2,54485, Control_c, 0, 64, 48
2,54500, Control_c, 0, 64, 57
2,54514, Control_c, 0, 64, 62
2,54522, Note_on_c, 0, 57, 0
2,54530, Control_c, 0, 64, 65
2,54540, Note_on_c, 0, 48, 0
2,54545, Control_c, 0, 64, 69
2,54560, Control_c, 0, 64, 74
2,54563, Note_on_c, 0, 69, 0
2,54565, Note_on_c, 0, 45, 0
2,54575, Control_c, 0, 64, 76
2,54590, Control_c, 0, 64, 73
2,54606, Control_c, 0, 64, 69
2,54621, Control_c, 0, 64, 63
2,54638, Control_c, 0, 64, 54
2,54653, Control_c, 0, 64, 43
2,54667, Control_c, 0, 64, 40
2,54683, Control_c, 0, 64, 39
2,54698, Control_c, 0, 64, 38
2,54713, Control_c, 0, 64, 37
2,54729, Control_c, 0, 64, 36
2,54746, Note_on_c, 0, 57, 54
2,54749, Note_on_c, 0, 69, 59
2,54788, Note_on_c, 0, 57, 0
2,54818, Note_on_c, 0, 69, 0
2,54854, Note_on_c, 0, 68, 60
2,54985, Note_on_c, 0, 69, 73
2,54987, Note_on_c, 0, 48, 64
2,54997, Note_on_c, 0, 68, 0
2,55097, Note_on_c, 0, 48, 0
2,55121, Note_on_c, 0, 69, 0
2,55255, Note_on_c, 0, 71, 72
2,55261, Note_on_c, 0, 52, 71
2,55374, Note_on_c, 0, 52, 0
2,55375, Note_on_c, 0, 71, 0
2,55434, Control_c, 0, 64, 37
2,55520, Note_on_c, 0, 45, 69
2,55522, Note_on_c, 0, 72, 78
2,55587, Control_c, 0, 64, 37
2,55603, Control_c, 0, 64, 38
2,55608, Note_on_c, 0, 45, 0
2,55618, Control_c, 0, 64, 38
2,55648, Control_c, 0, 64, 39
2,55665, Note_on_c, 0, 72, 0
2,55694, Control_c, 0, 64, 39
2,55782, Note_on_c, 0, 72, 74
2,55783, Note_on_c, 0, 57, 68
2,55784, Note_on_c, 0, 53, 70
2,55847, Note_on_c, 0, 72, 0
2,55880, Note_on_c, 0, 56, 76
2,55887, Note_on_c, 0, 57, 0
2,55887, Note_on_c, 0, 71, 70
2,55929, Control_c, 0, 64, 40
2,55990, Control_c, 0, 64, 40
2,56029, Note_on_c, 0, 56, 0
2,56029, Note_on_c, 0, 57, 79
2,56030, Note_on_c, 0, 52, 73
2,56030, Note_on_c, 0, 72, 81
2,56049, Note_on_c, 0, 53, 0
2,56049, Note_on_c, 0, 71, 0
2,56112, Control_c, 0, 64, 41
2,56139, Note_on_c, 0, 52, 0
2,56148, Note_on_c, 0, 72, 0
2,56152, Note_on_c, 0, 57, 0
2,56203, Control_c, 0, 64, 41
2,56293, Note_on_c, 0, 74, 82
2,56296, Note_on_c, 0, 59, 80
2,56302, Note_on_c, 0, 50, 67
2,56392, Note_on_c, 0, 59, 0
2,56402, Control_c, 0, 64, 42
2,56412, Note_on_c, 0, 50, 0
2,56412, Note_on_c, 0, 74, 0
2,56417, Control_c, 0, 64, 43
2,56447, Control_c, 0, 64, 43
2,56492, Control_c, 0, 64, 44
2,56548, Note_on_c, 0, 48, 65
2,56554, Note_on_c, 0, 76, 77
2,56565, Note_on_c, 0, 60, 71
2,56611, Note_on_c, 0, 48, 0
2,56668, Note_on_c, 0, 74, 77
2,56669, Note_on_c, 0, 60, 0
2,56686, Note_on_c, 0, 76, 0
2,56697, Control_c, 0, 64, 44
2,56759, Control_c, 0, 64, 45
2,56804, Note_on_c, 0, 72, 82
2,56811, Note_on_c, 0, 57, 67
2,56822, Note_on_c, 0, 60, 70
2,56826, Note_on_c, 0, 74, 0
2,56906, Note_on_c, 0, 74, 84
2,56907, Note_on_c, 0, 60, 0
2,56912, Note_on_c, 0, 59, 76
2,56931, Note_on_c, 0, 72, 0
2,56941, Control_c, 0, 64, 44
2,56957, Control_c, 0, 64, 43
2,56971, Control_c, 0, 64, 41
2,56986, Control_c, 0, 64, 38
2,57002, Control_c, 0, 64, 30
2,57016, Control_c, 0, 64, 0
2,57037, Note_on_c, 0, 76, 89
2,57039, Note_on_c, 0, 60, 80
2,57043, Note_on_c, 0, 59, 0
2,57051, Note_on_c, 0, 55, 73
2,57075, Note_on_c, 0, 74, 0
2,57083, Note_on_c, 0, 57, 0
2,57142, Note_on_c, 0, 60, 0
2,57153, Note_on_c, 0, 55, 0
2,57182, Note_on_c, 0, 76, 0
2,57298, Note_on_c, 0, 77, 87
2,57300, Note_on_c, 0, 62, 81
2,57313, Note_on_c, 0, 53, 65
2,57336, Control_c, 0, 64, 32
2,57351, Control_c, 0, 64, 47
2,57359, Note_on_c, 0, 62, 0
2,57366, Control_c, 0, 64, 55
2,57366, Note_on_c, 0, 77, 0
2,57381, Control_c, 0, 64, 60
2,57386, Note_on_c, 0, 53, 0
2,57397, Control_c, 0, 64, 63
2,57412, Control_c, 0, 64, 64
2,57427, Control_c, 0, 64, 65
2,57443, Control_c, 0, 64, 66
2,57480, Control_c, 0, 64, 66
2,57495, Control_c, 0, 64, 65
2,57510, Control_c, 0, 64, 64
2,57526, Control_c, 0, 64, 63
2,57540, Control_c, 0, 64, 61
2,57555, Control_c, 0, 64, 60
2,57571, Control_c, 0, 64, 59
2,57571, Note_on_c, 0, 68, 86
2,57574, Note_on_c, 0, 64, 71
2,57580, Note_on_c, 0, 52, 54
2,57586, Control_c, 0, 64, 58
2,57602, Control_c, 0, 64, 56
2,57617, Control_c, 0, 64, 54
2,57632, Control_c, 0, 64, 53
2,57633, Note_on_c, 0, 64, 0
2,57648, Control_c, 0, 64, 52
2,57665, Note_on_c, 0, 52, 0
2,57678, Control_c, 0, 64, 52
2,57682, Note_on_c, 0, 68, 0
2,57691, Note_on_c, 0, 62, 75
2,57693, Control_c, 0, 64, 51
2,57708, Control_c, 0, 64, 51
2,57724, Control_c, 0, 64, 50
2,57769, Control_c, 0, 64, 50
2,57814, Note_on_c, 0, 64, 64
2,57819, Note_on_c, 0, 62, 0
2,57821, Note_on_c, 0, 60, 66
2,57824, Note_on_c, 0, 57, 64
2,57923, Note_on_c, 0, 57, 0
2,57929, Note_on_c, 0, 62, 80
2,57934, Note_on_c, 0, 55, 70
2,57960, Note_on_c, 0, 60, 0
2,57972, Note_on_c, 0, 64, 0
2,58052, Note_on_c, 0, 55, 0
2,58058, Note_on_c, 0, 64, 75
2,58059, Control_c, 0, 64, 50
2,58060, Note_on_c, 0, 62, 0
2,58070, Note_on_c, 0, 53, 75
2,58167, Note_on_c, 0, 52, 76
2,58200, Note_on_c, 0, 64, 0
2,58211, Control_c, 0, 64, 50
2,58234, Control_c, 0, 64, 48
2,58249, Control_c, 0, 64, 46
2,58264, Control_c, 0, 64, 41
2,58275, Note_on_c, 0, 53, 0
2,58280, Control_c, 0, 64, 38
2,58295, Control_c, 0, 64, 37
2,58302, Note_on_c, 0, 65, 77
2,58305, Note_on_c, 0, 50, 78
2,58305, Note_on_c, 0, 69, 77
2,58307, Note_on_c, 0, 52, 0
2,58340, Control_c, 0, 64, 40
2,58355, Control_c, 0, 64, 46
2,58371, Control_c, 0, 64, 51
2,58379, Note_on_c, 0, 65, 0
2,58385, Control_c, 0, 64, 54
2,58401, Control_c, 0, 64, 56
2,58403, Note_on_c, 0, 69, 0
2,58416, Control_c, 0, 64, 58
2,58417, Note_on_c, 0, 48, 84
2,58431, Control_c, 0, 64, 59
2,58433, Note_on_c, 0, 50, 0
2,58447, Control_c, 0, 64, 60
2,58492, Control_c, 0, 64, 58
2,58506, Control_c, 0, 64, 57
2,58522, Control_c, 0, 64, 56
2,58537, Control_c, 0, 64, 55
2,58546, Note_on_c, 0, 48, 0
2,58552, Control_c, 0, 64, 54
2,58554, Note_on_c, 0, 47, 79
2,58558, Note_on_c, 0, 56, 87
2,58564, Note_on_c, 0, 71, 66
2,58568, Control_c, 0, 64, 52
2,58583, Control_c, 0, 64, 51
2,58583, Note_on_c, 0, 72, 44
2,58599, Control_c, 0, 64, 50
2,58610, Note_on_c, 0, 47, 0
2,58614, Control_c, 0, 64, 49
2,58618, Note_on_c, 0, 72, 0
2,58629, Control_c, 0, 64, 48
2,58630, Note_on_c, 0, 56, 0
2,58644, Control_c, 0, 64, 47
2,58659, Control_c, 0, 64, 47
2,58667, Note_on_c, 0, 71, 0
2,58674, Control_c, 0, 64, 46
2,58678, Note_on_c, 0, 72, 62
2,58705, Control_c, 0, 64, 46
2,58761, Note_on_c, 0, 72, 0
2,58801, Note_on_c, 0, 69, 75
2,58807, Note_on_c, 0, 60, 77
2,58810, Note_on_c, 0, 52, 57
2,58843, Control_c, 0, 64, 46
2,58858, Control_c, 0, 64, 47
2,58873, Control_c, 0, 64, 47
2,58903, Control_c, 0, 64, 48
2,58909, Note_on_c, 0, 60, 0
2,58910, Note_on_c, 0, 71, 70
2,58921, Note_on_c, 0, 69, 0
2,58928, Note_on_c, 0, 59, 65
2,58948, Control_c, 0, 64, 48
2,59029, Note_on_c, 0, 59, 0
2,59039, Note_on_c, 0, 71, 0
2,59046, Note_on_c, 0, 72, 73
2,59060, Note_on_c, 0, 57, 63
2,59142, Note_on_c, 0, 57, 0
2,59152, Note_on_c, 0, 52, 0
2,59163, Note_on_c, 0, 72, 0
2,59165, Note_on_c, 0, 55, 66
2,59168, Note_on_c, 0, 74, 65
2,59260, Control_c, 0, 64, 48
2,59296, Note_on_c, 0, 55, 0
2,59298, Note_on_c, 0, 71, 76
2,59299, Note_on_c, 0, 53, 74
2,59311, Note_on_c, 0, 57, 70
2,59319, Note_on_c, 0, 74, 0
2,59397, Control_c, 0, 64, 48
2,59402, Note_on_c, 0, 52, 74
2,59411, Note_on_c, 0, 53, 0
2,59415, Note_on_c, 0, 72, 85
2,59442, Control_c, 0, 64, 49
2,59447, Note_on_c, 0, 71, 0
2,59457, Control_c, 0, 64, 49
2,59472, Control_c, 0, 64, 50
2,59503, Control_c, 0, 64, 50
2,59532, Note_on_c, 0, 52, 0
2,59538, Note_on_c, 0, 50, 68
2,59553, Note_on_c, 0, 74, 80
2,59571, Note_on_c, 0, 59, 76
2,59586, Note_on_c, 0, 57, 0
2,59589, Note_on_c, 0, 72, 0
2,59625, Control_c, 0, 64, 51
2,59656, Control_c, 0, 64, 51
2,59672, Note_on_c, 0, 74, 0
2,59677, Note_on_c, 0, 60, 76
2,59681, Note_on_c, 0, 59, 0
2,59809, Note_on_c, 0, 57, 79
2,59811, Note_on_c, 0, 60, 0
2,59812, Note_on_c, 0, 72, 79
2,59846, Control_c, 0, 64, 52
2,59853, Note_on_c, 0, 50, 0
2,59909, Note_on_c, 0, 72, 0
2,59925, Note_on_c, 0, 59, 82
2,59934, Note_on_c, 0, 57, 0
2,59937, Control_c, 0, 64, 51
2,59968, Control_c, 0, 64, 51
2,59983, Control_c, 0, 64, 50
2,59998, Control_c, 0, 64, 49
2,60013, Control_c, 0, 64, 48
2,60028, Control_c, 0, 64, 46
2,60044, Control_c, 0, 64, 46
2,60058, Note_on_c, 0, 52, 65
2,60059, Control_c, 0, 64, 45
2,60063, Note_on_c, 0, 71, 85
2,60075, Note_on_c, 0, 60, 82
2,60093, Note_on_c, 0, 59, 0
2,60120, Control_c, 0, 64, 47
2,60135, Control_c, 0, 64, 50
2,60149, Control_c, 0, 64, 52
2,60165, Control_c, 0, 64, 54
2,60180, Control_c, 0, 64, 56
2,60182, Note_on_c, 0, 62, 86
2,60185, Note_on_c, 0, 71, 0
2,60194, Note_on_c, 0, 60, 0
2,60241, Control_c, 0, 64, 55
2,60256, Control_c, 0, 64, 52
2,60270, Control_c, 0, 64, 48
2,60286, Control_c, 0, 64, 44
2,60301, Control_c, 0, 64, 39
2,60307, Note_on_c, 0, 59, 85
2,60315, Note_on_c, 0, 62, 0
2,60317, Control_c, 0, 64, 35
2,60317, Note_on_c, 0, 76, 83
2,60363, Control_c, 0, 64, 38
2,60378, Control_c, 0, 64, 44
2,60393, Control_c, 0, 64, 48
2,60409, Control_c, 0, 64, 51
2,60418, Note_on_c, 0, 60, 86
2,60420, Note_on_c, 0, 59, 0
2,60423, Control_c, 0, 64, 54
2,60439, Control_c, 0, 64, 55
2,60454, Control_c, 0, 64, 56
2,60475, Note_on_c, 0, 60, 0
2,60480, Note_on_c, 0, 52, 0
2,60500, Control_c, 0, 64, 56
2,60515, Control_c, 0, 64, 52
2,60538, Control_c, 0, 64, 48
2,60553, Control_c, 0, 64, 44
2,60569, Control_c, 0, 64, 41
2,60573, Note_on_c, 0, 53, 54
2,60579, Note_on_c, 0, 69, 91
2,60585, Note_on_c, 0, 62, 87
2,60600, Control_c, 0, 64, 43
2,60604, Note_on_c, 0, 76, 0
2,60615, Control_c, 0, 64, 50
2,60629, Control_c, 0, 64, 56
2,60645, Control_c, 0, 64, 59
2,60660, Control_c, 0, 64, 62
2,60667, Note_on_c, 0, 69, 0
2,60675, Control_c, 0, 64, 64
2,60691, Control_c, 0, 64, 66
2,60696, Note_on_c, 0, 62, 0
2,60705, Control_c, 0, 64, 67
2,60722, Note_on_c, 0, 53, 0
2,60736, Control_c, 0, 64, 66
2,60751, Control_c, 0, 64, 64
2,60767, Control_c, 0, 64, 63
2,60782, Control_c, 0, 64, 61
2,60797, Control_c, 0, 64, 58
2,60812, Control_c, 0, 64, 55
2,60827, Control_c, 0, 64, 51
2,60842, Note_on_c, 0, 60, 83
2,60843, Control_c, 0, 64, 49
2,60846, Note_on_c, 0, 52, 68
2,60846, Note_on_c, 0, 81, 83
2,60873, Control_c, 0, 64, 49
2,60938, Note_on_c, 0, 60, 0
2,60947, Note_on_c, 0, 52, 0
2,61055, Control_c, 0, 64, 49
2,61070, Control_c, 0, 64, 50
2,61086, Control_c, 0, 64, 50
2,61101, Control_c, 0, 64, 51
2,61104, Note_on_c, 0, 50, 74
2,61105, Note_on_c, 0, 59, 86
2,61114, Control_c, 0, 64, 51
2,61176, Control_c, 0, 64, 52
2,61201, Note_on_c, 0, 50, 0
2,61209, Note_on_c, 0, 59, 0
2,61209, Note_on_c, 0, 81, 0
2,61368, Note_on_c, 0, 79, 84
2,61376, Note_on_c, 0, 52, 69
2,61376, Note_on_c, 0, 64, 82
2,61429, Note_on_c, 0, 64, 0
2,61460, Note_on_c, 0, 52, 0
2,61564, Control_c, 0, 64, 52
2,61594, Control_c, 0, 64, 53
2,61610, Control_c, 0, 64, 53
2,61625, Control_c, 0, 64, 54
2,61647, Note_on_c, 0, 57, 78
2,61654, Note_on_c, 0, 48, 73
2,61656, Control_c, 0, 64, 54
2,61668, Note_on_c, 0, 79, 0
2,61905, Note_on_c, 0, 47, 61
2,61907, Note_on_c, 0, 84, 76
2,61909, Note_on_c, 0, 48, 0
2,61944, Control_c, 0, 64, 54
2,61959, Note_on_c, 0, 47, 0
2,61974, Control_c, 0, 64, 53
2,62006, Control_c, 0, 64, 53
2,62021, Note_on_c, 0, 83, 73
2,62051, Control_c, 0, 64, 52
2,62069, Note_on_c, 0, 84, 0
2,62090, Control_c, 0, 64, 52
2,62105, Control_c, 0, 64, 51
2,62153, Note_on_c, 0, 48, 61
2,62154, Note_on_c, 0, 81, 65
2,62157, Note_on_c, 0, 83, 0
2,62212, Note_on_c, 0, 48, 0
2,62227, Note_on_c, 0, 81, 0
2,62259, Note_on_c, 0, 79, 65
2,62386, Note_on_c, 0, 79, 0
2,62389, Note_on_c, 0, 78, 57
2,62395, Note_on_c, 0, 45, 45
2,62446, Note_on_c, 0, 45, 0
2,62454, Control_c, 0, 64, 51
2,62469, Control_c, 0, 64, 50
2,62484, Control_c, 0, 64, 48
2,62496, Note_on_c, 0, 78, 0
2,62499, Control_c, 0, 64, 46
2,62505, Note_on_c, 0, 76, 60
2,62514, Control_c, 0, 64, 41
2,62530, Control_c, 0, 64, 35
2,62545, Control_c, 0, 64, 33
2,62561, Control_c, 0, 64, 32
2,62606, Control_c, 0, 64, 34
2,62621, Control_c, 0, 64, 41
2,62637, Control_c, 0, 64, 48
2,62648, Note_on_c, 0, 76, 0
2,62650, Note_on_c, 0, 75, 62
2,62651, Control_c, 0, 64, 54
2,62655, Note_on_c, 0, 47, 45
2,62666, Control_c, 0, 64, 58
2,62682, Control_c, 0, 64, 63
2,62697, Control_c, 0, 64, 67
2,62703, Note_on_c, 0, 57, 0
2,62712, Control_c, 0, 64, 72
2,62726, Note_on_c, 0, 75, 0
2,62727, Control_c, 0, 64, 77
2,62742, Control_c, 0, 64, 79
2,62758, Control_c, 0, 64, 78
2,62773, Control_c, 0, 64, 73
2,62788, Control_c, 0, 64, 68
2,62803, Control_c, 0, 64, 61
2,62818, Control_c, 0, 64, 53
2,62842, Control_c, 0, 64, 51
2,62872, Control_c, 0, 64, 50
2,62888, Control_c, 0, 64, 48
2,62903, Control_c, 0, 64, 44
2,62919, Control_c, 0, 64, 41
2,62934, Control_c, 0, 64, 41
2,62941, Note_on_c, 0, 71, 70
2,62944, Note_on_c, 0, 55, 57
2,62946, Note_on_c, 0, 64, 69
2,62966, Control_c, 0, 64, 40
2,63026, Note_on_c, 0, 71, 0
2,63034, Note_on_c, 0, 55, 0
2,63041, Note_on_c, 0, 63, 77
2,63044, Note_on_c, 0, 64, 0
2,63052, Note_on_c, 0, 54, 69
2,63102, Control_c, 0, 64, 39
2,63118, Control_c, 0, 64, 38
2,63133, Control_c, 0, 64, 36
2,63148, Control_c, 0, 64, 35
2,63170, Note_on_c, 0, 64, 77
2,63176, Note_on_c, 0, 73, 83
2,63180, Note_on_c, 0, 55, 70
2,63183, Note_on_c, 0, 63, 0
2,63194, Control_c, 0, 64, 35
2,63209, Control_c, 0, 64, 40
2,63212, Note_on_c, 0, 54, 0
2,63224, Control_c, 0, 64, 46
2,63239, Control_c, 0, 64, 51
2,63254, Control_c, 0, 64, 54
2,63255, Note_on_c, 0, 55, 0
2,63270, Control_c, 0, 64, 56
2,63272, Note_on_c, 0, 64, 0
2,63283, Note_on_c, 0, 47, 0
2,63285, Control_c, 0, 64, 59
2,63299, Control_c, 0, 64, 60
2,63300, Note_on_c, 0, 73, 0
2,63345, Control_c, 0, 64, 58
2,63361, Control_c, 0, 64, 54
2,63376, Control_c, 0, 64, 49
2,63392, Control_c, 0, 64, 39
2,63407, Control_c, 0, 64, 28
2,63421, Control_c, 0, 64, 25
2,63435, Note_on_c, 0, 66, 84
2,63436, Note_on_c, 0, 75, 88
2,63437, Note_on_c, 0, 45, 62
2,63441, Note_on_c, 0, 57, 78
2,63451, Control_c, 0, 64, 33
2,63466, Control_c, 0, 64, 47
2,63482, Control_c, 0, 64, 58
2,63493, Note_on_c, 0, 57, 0
2,63496, Control_c, 0, 64, 64
2,63498, Note_on_c, 0, 45, 0
2,63512, Control_c, 0, 64, 69
2,63527, Control_c, 0, 64, 83
2,63542, Control_c, 0, 64, 127
2,63547, Note_on_c, 0, 66, 0
2,63587, Note_on_c, 0, 43, 72
2,63600, Note_on_c, 0, 75, 0
2,63626, Note_on_c, 0, 43, 0
2,63673, Control_c, 0, 64, 91
2,63688, Control_c, 0, 64, 74
2,63703, Control_c, 0, 64, 62
2,63706, Note_on_c, 0, 76, 81
2,63710, Note_on_c, 0, 67, 79
2,63713, Note_on_c, 0, 59, 86
2,63719, Control_c, 0, 64, 44
2,63733, Control_c, 0, 64, 37
2,63764, Control_c, 0, 64, 39
2,63765, Note_on_c, 0, 67, 0
2,63779, Control_c, 0, 64, 44
2,63795, Control_c, 0, 64, 50
2,63808, Note_on_c, 0, 59, 0
2,63809, Control_c, 0, 64, 54
2,63824, Control_c, 0, 64, 57
2,63826, Note_on_c, 0, 74, 70
2,63840, Control_c, 0, 64, 58
2,63855, Control_c, 0, 64, 59
2,63871, Control_c, 0, 64, 60
2,63877, Note_on_c, 0, 76, 0
2,63945, Control_c, 0, 64, 59
2,63946, Note_on_c, 0, 74, 0
2,63960, Note_on_c, 0, 52, 85
2,63961, Control_c, 0, 64, 58
2,63965, Note_on_c, 0, 72, 58
2,63968, Note_on_c, 0, 64, 65
2,63976, Control_c, 0, 64, 58
2,63987, Note_on_c, 0, 67, 36
2,63988, Note_on_c, 0, 72, 0
2,63992, Control_c, 0, 64, 56
2,64006, Control_c, 0, 64, 55
2,64018, Note_on_c, 0, 67, 0
2,64021, Control_c, 0, 64, 53
2,64037, Control_c, 0, 64, 52
2,64052, Control_c, 0, 64, 51
2,64055, Note_on_c, 0, 51, 82
2,64067, Control_c, 0, 64, 51
2,64073, Note_on_c, 0, 71, 71
2,64083, Control_c, 0, 64, 50
2,64085, Note_on_c, 0, 52, 0
2,64087, Note_on_c, 0, 66, 64
2,64097, Control_c, 0, 64, 49
2,64113, Control_c, 0, 64, 48
2,64128, Control_c, 0, 64, 48
2,64143, Control_c, 0, 64, 47
2,64174, Control_c, 0, 64, 46
2,64180, Note_on_c, 0, 71, 0
2,64181, Note_on_c, 0, 72, 79
2,64190, Control_c, 0, 64, 45
2,64192, Note_on_c, 0, 52, 86
2,64201, Note_on_c, 0, 66, 0
2,64205, Control_c, 0, 64, 43
2,64218, Note_on_c, 0, 67, 67
2,64219, Control_c, 0, 64, 41
2,64235, Control_c, 0, 64, 41
2,64250, Control_c, 0, 64, 40
2,64295, Control_c, 0, 64, 40
2,64308, Note_on_c, 0, 51, 0
2,64321, Note_on_c, 0, 72, 0
2,64324, Note_on_c, 0, 52, 0
2,64326, Control_c, 0, 64, 39
2,64471, Control_c, 0, 64, 40
2,64478, Note_on_c, 0, 69, 71
2,64484, Note_on_c, 0, 54, 89
2,64486, Control_c, 0, 64, 42
2,64488, Note_on_c, 0, 63, 71
2,64499, Note_on_c, 0, 64, 0
2,64501, Control_c, 0, 64, 44
2,64507, Note_on_c, 0, 67, 0
2,64517, Control_c, 0, 64, 45
2,64532, Control_c, 0, 64, 47
2,64536, Note_on_c, 0, 63, 0
2,64547, Control_c, 0, 64, 47
2,64551, Note_on_c, 0, 69, 0
2,64563, Control_c, 0, 64, 48
2,64608, Control_c, 0, 64, 49
2,64610, Note_on_c, 0, 54, 0
2,64737, Note_on_c, 0, 55, 82
2,64739, Note_on_c, 0, 71, 81
2,64758, Note_on_c, 0, 64, 62
2,64809, Note_on_c, 0, 64, 0
2,64826, Note_on_c, 0, 55, 0
2,64850, Note_on_c, 0, 69, 84
2,64863, Control_c, 0, 64, 49
2,64875, Note_on_c, 0, 71, 0
2,64939, Control_c, 0, 64, 50
2,64987, Note_on_c, 0, 76, 85
2,64989, Note_on_c, 0, 55, 80
2,64998, Note_on_c, 0, 67, 71
2,64999, Note_on_c, 0, 69, 0
2,65046, Control_c, 0, 64, 50
2,65086, Note_on_c, 0, 67, 0
2,65090, Note_on_c, 0, 54, 81
2,65092, Control_c, 0, 64, 51
2,65092, Note_on_c, 0, 75, 85
2,65101, Note_on_c, 0, 69, 79
2,65121, Note_on_c, 0, 55, 0
2,65142, Note_on_c, 0, 76, 0
2,65144, Control_c, 0, 64, 51
2,65239, Note_on_c, 0, 55, 90
2,65239, Note_on_c, 0, 76, 88
2,65242, Note_on_c, 0, 71, 82
2,65262, Note_on_c, 0, 69, 0
2,65264, Note_on_c, 0, 54, 0
2,65303, Note_on_c, 0, 75, 0
2,65312, Control_c, 0, 64, 52
2,65328, Control_c, 0, 64, 52
2,65352, Note_on_c, 0, 76, 0
2,65359, Control_c, 0, 64, 53
2,65373, Note_on_c, 0, 71, 0
2,65383, Note_on_c, 0, 55, 0
2,65388, Control_c, 0, 64, 54
2,65498, Note_on_c, 0, 78, 84
2,65502, Note_on_c, 0, 72, 84
2,65508, Note_on_c, 0, 57, 92
2,65571, Control_c, 0, 64, 54
2,65572, Note_on_c, 0, 72, 0
2,65583, Note_on_c, 0, 57, 0
2,65586, Control_c, 0, 64, 55
2,65602, Control_c, 0, 64, 55
2,65614, Note_on_c, 0, 78, 0
2,65678, Control_c, 0, 64, 56
2,65769, Note_on_c, 0, 79, 85
2,65772, Note_on_c, 0, 59, 71
2,65775, Note_on_c, 0, 63, 79
2,65886, Note_on_c, 0, 57, 79
2,65915, Note_on_c, 0, 63, 0
2,65917, Note_on_c, 0, 79, 0
2,65921, Note_on_c, 0, 59, 0
2,65959, Control_c, 0, 64, 55
2,65989, Control_c, 0, 64, 55
2,66005, Control_c, 0, 64, 54
2,66024, Note_on_c, 0, 55, 70
2,66030, Note_on_c, 0, 79, 79
2,66034, Control_c, 0, 64, 54
2,66040, Note_on_c, 0, 59, 77
2,66046, Note_on_c, 0, 57, 0
2,66050, Control_c, 0, 64, 53
2,66065, Control_c, 0, 64, 52
2,66081, Control_c, 0, 64, 52
2,66090, Note_on_c, 0, 55, 0
2,66096, Control_c, 0, 64, 51
2,66112, Control_c, 0, 64, 51
2,66128, Control_c, 0, 64, 50
2,66142, Control_c, 0, 64, 49
2,66147, Note_on_c, 0, 78, 85
2,66148, Note_on_c, 0, 57, 86
2,66158, Control_c, 0, 64, 48
2,66171, Note_on_c, 0, 79, 0
2,66173, Control_c, 0, 64, 47
2,66179, Note_on_c, 0, 59, 0
2,66187, Control_c, 0, 64, 46
2,66203, Control_c, 0, 64, 44
2,66218, Control_c, 0, 64, 41
2,66233, Control_c, 0, 64, 38
2,66249, Control_c, 0, 64, 33
2,66263, Control_c, 0, 64, 25
2,66279, Control_c, 0, 64, 0
2,66288, Note_on_c, 0, 59, 92
2,66289, Note_on_c, 0, 79, 83
2,66326, Note_on_c, 0, 57, 0
2,66330, Note_on_c, 0, 78, 0
2,66407, Note_on_c, 0, 59, 0
2,66448, Note_on_c, 0, 79, 0
2,66537, Control_c, 0, 64, 18
2,66541, Note_on_c, 0, 81, 70
2,66545, Note_on_c, 0, 64, 85
2,66550, Note_on_c, 0, 60, 80
2,66552, Control_c, 0, 64, 44
2,66568, Control_c, 0, 64, 57
2,66583, Control_c, 0, 64, 64
2,66592, Note_on_c, 0, 64, 0
2,66598, Control_c, 0, 64, 72
2,66599, Note_on_c, 0, 81, 0
2,66608, Note_on_c, 0, 60, 0
2,66613, Control_c, 0, 64, 92
2,66628, Control_c, 0, 64, 127
2,66728, Control_c, 0, 64, 100
2,66743, Control_c, 0, 64, 88
2,66758, Control_c, 0, 64, 79
2,66773, Control_c, 0, 64, 71
2,66788, Control_c, 0, 64, 65
2,66803, Control_c, 0, 64, 60
2,66818, Control_c, 0, 64, 56
2,66825, Note_on_c, 0, 51, 84
2,66833, Control_c, 0, 64, 55
2,66837, Note_on_c, 0, 71, 66
2,66841, Note_on_c, 0, 66, 69
2,66849, Control_c, 0, 64, 53
2,66864, Control_c, 0, 64, 48
2,66879, Control_c, 0, 64, 42
2,66894, Control_c, 0, 64, 38
2,66909, Control_c, 0, 64, 36
2,66951, Note_on_c, 0, 66, 0
2,66952, Note_on_c, 0, 67, 72
2,66957, Control_c, 0, 64, 35
2,66957, Note_on_c, 0, 51, 0
2,66972, Control_c, 0, 64, 34
2,66986, Control_c, 0, 64, 33
2,67002, Control_c, 0, 64, 32
2,67017, Control_c, 0, 64, 31
2,67031, Control_c, 0, 64, 30
2,67047, Control_c, 0, 64, 30
2,67062, Control_c, 0, 64, 27
2,67078, Control_c, 0, 64, 25
2,67081, Note_on_c, 0, 67, 0
2,67090, Note_on_c, 0, 47, 63
2,67093, Control_c, 0, 64, 24
2,67095, Note_on_c, 0, 64, 62
2,67199, Note_on_c, 0, 47, 0
2,67211, Note_on_c, 0, 66, 70
2,67230, Note_on_c, 0, 64, 0
2,67290, Control_c, 0, 64, 24
2,67305, Control_c, 0, 64, 26
2,67321, Control_c, 0, 64, 27
2,67336, Control_c, 0, 64, 28
2,67341, Note_on_c, 0, 67, 76
2,67351, Control_c, 0, 64, 29
2,67352, Note_on_c, 0, 66, 0
2,67367, Control_c, 0, 64, 30
2,67381, Control_c, 0, 64, 30
2,67397, Control_c, 0, 64, 31
2,67412, Control_c, 0, 64, 32
2,67427, Control_c, 0, 64, 32
2,67449, Control_c, 0, 64, 33
2,67470, Note_on_c, 0, 69, 71
2,67480, Control_c, 0, 64, 34
2,67493, Note_on_c, 0, 67, 0
2,67495, Control_c, 0, 64, 34
2,67541, Control_c, 0, 64, 35
2,67571, Control_c, 0, 64, 35
2,67586, Control_c, 0, 64, 36
2,67587, Note_on_c, 0, 52, 67
2,67590, Note_on_c, 0, 66, 78
2,67602, Control_c, 0, 64, 37
2,67617, Control_c, 0, 64, 38
2,67623, Note_on_c, 0, 69, 0
2,67632, Control_c, 0, 64, 39
2,67647, Control_c, 0, 64, 40
2,67662, Control_c, 0, 64, 40
2,67665, Note_on_c, 0, 52, 0
2,67678, Control_c, 0, 64, 41
2,67693, Control_c, 0, 64, 41
2,67704, Note_on_c, 0, 67, 78
2,67708, Control_c, 0, 64, 42
2,67723, Control_c, 0, 64, 43
2,67728, Note_on_c, 0, 66, 0
2,67738, Control_c, 0, 64, 43
2,67754, Control_c, 0, 64, 44
2,67785, Control_c, 0, 64, 45
2,67816, Control_c, 0, 64, 45
2,67833, Note_on_c, 0, 69, 78
2,67838, Note_on_c, 0, 54, 63
2,67875, Control_c, 0, 64, 46
2,67875, Note_on_c, 0, 67, 0
2,67922, Control_c, 0, 64, 46
2,67932, Note_on_c, 0, 54, 0
2,67951, Control_c, 0, 64, 47
2,67953, Note_on_c, 0, 69, 0
2,67954, Note_on_c, 0, 55, 55
2,68048, Note_on_c, 0, 55, 0
2,68088, Note_on_c, 0, 52, 58
2,68090, Note_on_c, 0, 67, 71
2,68103, Control_c, 0, 64, 47
2,68119, Control_c, 0, 64, 48
2,68194, Control_c, 0, 64, 48
2,68211, Note_on_c, 0, 52, 0
2,68213, Note_on_c, 0, 54, 66
2,68232, Control_c, 0, 64, 47
2,68247, Control_c, 0, 64, 46
2,68262, Control_c, 0, 64, 46
2,68298, Note_on_c, 0, 67, 0
2,68318, Note_on_c, 0, 71, 0
2,68324, Control_c, 0, 64, 47
2,68335, Note_on_c, 0, 54, 0
2,68339, Control_c, 0, 64, 50
2,68348, Note_on_c, 0, 55, 68
2,68354, Control_c, 0, 64, 55
2,68354, Note_on_c, 0, 66, 73
2,68369, Control_c, 0, 64, 59
2,68384, Control_c, 0, 64, 63
2,68400, Control_c, 0, 64, 68
2,68414, Control_c, 0, 64, 75
2,68429, Control_c, 0, 64, 85
2,68441, Note_on_c, 0, 66, 0
2,68445, Control_c, 0, 64, 92
2,68456, Note_on_c, 0, 55, 0
2,68460, Control_c, 0, 64, 91
2,68461, Note_on_c, 0, 57, 75
2,68475, Control_c, 0, 64, 87
2,68490, Control_c, 0, 64, 82
2,68505, Control_c, 0, 64, 77
2,68521, Control_c, 0, 64, 73
2,68536, Control_c, 0, 64, 70
2,68551, Control_c, 0, 64, 67
2,68568, Control_c, 0, 64, 63
2,68583, Control_c, 0, 64, 57
2,68587, Note_on_c, 0, 71, 75
2,68591, Note_on_c, 0, 54, 75
2,68592, Note_on_c, 0, 76, 73
2,68598, Control_c, 0, 64, 51
2,68599, Note_on_c, 0, 57, 0
2,68613, Control_c, 0, 64, 50
2,68628, Control_c, 0, 64, 50
2,68643, Control_c, 0, 64, 49
2,68658, Control_c, 0, 64, 48
2,68673, Control_c, 0, 64, 46
2,68685, Note_on_c, 0, 71, 0
2,68695, Note_on_c, 0, 55, 79
2,68699, Note_on_c, 0, 74, 77
2,68704, Control_c, 0, 64, 46
2,68735, Note_on_c, 0, 54, 0
2,68764, Note_on_c, 0, 76, 0
2,68832, Note_on_c, 0, 57, 81
2,68833, Note_on_c, 0, 72, 69
2,68839, Note_on_c, 0, 64, 68
2,68841, Note_on_c, 0, 74, 0
2,68863, Note_on_c, 0, 55, 0
2,68870, Note_on_c, 0, 72, 0
2,68871, Control_c, 0, 64, 45
2,68901, Control_c, 0, 64, 45
2,68917, Control_c, 0, 64, 44
2,68932, Control_c, 0, 64, 44
2,68947, Control_c, 0, 64, 43
2,68953, Note_on_c, 0, 71, 74
2,68954, Note_on_c, 0, 57, 0
2,68963, Control_c, 0, 64, 43
2,69060, Control_c, 0, 64, 42
2,69099, Note_on_c, 0, 55, 71
2,69107, Note_on_c, 0, 71, 0
2,69112, Note_on_c, 0, 69, 61
2,69152, Control_c, 0, 64, 43
2,69200, Note_on_c, 0, 55, 0
2,69224, Note_on_c, 0, 69, 0
2,69227, Note_on_c, 0, 71, 65
2,69244, Control_c, 0, 64, 43
2,69258, Control_c, 0, 64, 44
2,69289, Control_c, 0, 64, 44
2,69304, Control_c, 0, 64, 45
2,69334, Control_c, 0, 64, 45
2,69346, Note_on_c, 0, 71, 0
2,69355, Note_on_c, 0, 72, 66
2,69363, Note_on_c, 0, 64, 0
2,69364, Note_on_c, 0, 54, 70
2,69449, Note_on_c, 0, 54, 0
2,69602, Note_on_c, 0, 71, 56
2,69614, Note_on_c, 0, 72, 0
2,69618, Note_on_c, 0, 59, 62
2,69623, Note_on_c, 0, 63, 53
2,69655, Control_c, 0, 64, 44
2,69663, Note_on_c, 0, 59, 0
2,69670, Control_c, 0, 64, 43
2,69671, Note_on_c, 0, 63, 0
2,69682, Note_on_c, 0, 71, 0
2,69685, Control_c, 0, 64, 39
2,69700, Control_c, 0, 64, 34
2,69715, Control_c, 0, 64, 23
2,69728, Note_on_c, 0, 69, 59
2,69731, Control_c, 0, 64, 0
2,69845, Note_on_c, 0, 69, 0
2,69882, Note_on_c, 0, 67, 55
2,69883, Note_on_c, 0, 64, 51
2,69889, Note_on_c, 0, 52, 54
2,69891, Control_c, 0, 64, 35
2,69905, Control_c, 0, 64, 50
2,69921, Control_c, 0, 64, 57
2,69936, Control_c, 0, 64, 61
2,69951, Control_c, 0, 64, 64
2,69952, Note_on_c, 0, 64, 0
2,69962, Note_on_c, 0, 67, 0
2,69967, Control_c, 0, 64, 66
2,69978, Note_on_c, 0, 52, 0
2,69981, Control_c, 0, 64, 72
2,69997, Control_c, 0, 64, 78
2,70012, Control_c, 0, 64, 83
2,70027, Control_c, 0, 64, 82
2,70043, Control_c, 0, 64, 79
2,70057, Control_c, 0, 64, 76
2,70072, Control_c, 0, 64, 72
2,70088, Control_c, 0, 64, 70
2,70103, Control_c, 0, 64, 68
2,70119, Control_c, 0, 64, 66
2,70134, Control_c, 0, 64, 62
2,70146, Note_on_c, 0, 52, 51
2,70149, Control_c, 0, 64, 58
2,70152, Note_on_c, 0, 72, 71
2,70165, Control_c, 0, 64, 56
2,70179, Control_c, 0, 64, 55
2,70194, Control_c, 0, 64, 55
2,70210, Control_c, 0, 64, 54
2,70225, Control_c, 0, 64, 52
2,70226, Note_on_c, 0, 52, 0
2,70241, Control_c, 0, 64, 51
2,70250, Note_on_c, 0, 72, 0
2,70255, Note_on_c, 0, 51, 58
2,70259, Note_on_c, 0, 71, 73
2,70271, Control_c, 0, 64, 51
2,70287, Control_c, 0, 64, 50
2,70302, Control_c, 0, 64, 50
2,70318, Control_c, 0, 64, 49
2,70332, Control_c, 0, 64, 49
2,70347, Control_c, 0, 64, 48
2,70374, Note_on_c, 0, 72, 77
2,70378, Control_c, 0, 64, 48
2,70390, Note_on_c, 0, 52, 58
2,70393, Control_c, 0, 64, 47
2,70393, Note_on_c, 0, 69, 68
2,70408, Control_c, 0, 64, 46
2,70419, Note_on_c, 0, 71, 0
2,70423, Control_c, 0, 64, 45
2,70439, Control_c, 0, 64, 44
2,70464, Note_on_c, 0, 69, 0
2,70473, Note_on_c, 0, 52, 0
2,70484, Control_c, 0, 64, 44
2,70499, Control_c, 0, 64, 43
2,70502, Note_on_c, 0, 67, 66
2,70537, Control_c, 0, 64, 43
2,70552, Control_c, 0, 64, 42
2,70568, Control_c, 0, 64, 41
2,70583, Control_c, 0, 64, 39
2,70599, Control_c, 0, 64, 38
2,70613, Control_c, 0, 64, 35
2,70628, Control_c, 0, 64, 32
2,70635, Note_on_c, 0, 67, 0
2,70639, Note_on_c, 0, 66, 66
2,70641, Note_on_c, 0, 54, 65
2,70644, Control_c, 0, 64, 26
2,70658, Note_on_c, 0, 51, 0
2,70659, Control_c, 0, 64, 21
2,70674, Control_c, 0, 64, 0
2,70714, Note_on_c, 0, 54, 0
2,70744, Note_on_c, 0, 66, 0
2,70747, Note_on_c, 0, 64, 65
2,70888, Note_on_c, 0, 55, 62
2,70890, Note_on_c, 0, 64, 0
2,70893, Note_on_c, 0, 62, 67
2,70901, Control_c, 0, 64, 28
2,70917, Control_c, 0, 64, 44
2,70932, Control_c, 0, 64, 55
2,70944, Note_on_c, 0, 62, 0
2,70947, Control_c, 0, 64, 60
2,70963, Control_c, 0, 64, 63
2,70977, Control_c, 0, 64, 67
2,70980, Note_on_c, 0, 72, 0
2,70992, Control_c, 0, 64, 72
2,71008, Control_c, 0, 64, 82
2,71024, Control_c, 0, 64, 100
2,71040, Control_c, 0, 64, 127
2,71130, Control_c, 0, 64, 111
2,71142, Note_on_c, 0, 71, 80
2,71145, Control_c, 0, 64, 103
2,71161, Control_c, 0, 64, 96
2,71162, Note_on_c, 0, 67, 78
2,71176, Control_c, 0, 64, 89
2,71191, Control_c, 0, 64, 84
2,71207, Control_c, 0, 64, 80
2,71222, Control_c, 0, 64, 75
2,71238, Control_c, 0, 64, 69
2,71246, Note_on_c, 0, 69, 85
2,71252, Control_c, 0, 64, 63
2,71266, Note_on_c, 0, 65, 68
2,71267, Control_c, 0, 64, 57
2,71268, Note_on_c, 0, 67, 0
2,71286, Note_on_c, 0, 71, 0
2,71290, Control_c, 0, 64, 53
2,71305, Control_c, 0, 64, 52
2,71321, Control_c, 0, 64, 52
2,71335, Control_c, 0, 64, 49
2,71350, Control_c, 0, 64, 45
2,71360, Note_on_c, 0, 65, 0
2,71366, Control_c, 0, 64, 40
2,71381, Control_c, 0, 64, 37
2,71386, Note_on_c, 0, 71, 86
2,71391, Note_on_c, 0, 64, 74
2,71397, Control_c, 0, 64, 36
2,71412, Control_c, 0, 64, 35
2,71425, Note_on_c, 0, 69, 0
2,71427, Control_c, 0, 64, 35
2,71443, Control_c, 0, 64, 34
2,71488, Control_c, 0, 64, 34
2,71494, Note_on_c, 0, 62, 79
2,71497, Note_on_c, 0, 71, 0
2,71503, Control_c, 0, 64, 30
2,71518, Control_c, 0, 64, 26
2,71519, Note_on_c, 0, 64, 0
2,71533, Control_c, 0, 64, 21
2,71548, Control_c, 0, 64, 15
2,71564, Control_c, 0, 64, 0
2,71628, Note_on_c, 0, 73, 83
2,71634, Note_on_c, 0, 61, 80
2,71665, Note_on_c, 0, 62, 0
2,71669, Control_c, 0, 64, 15
2,71685, Control_c, 0, 64, 28
2,71700, Control_c, 0, 64, 39
2,71714, Control_c, 0, 64, 42
2,71730, Control_c, 0, 64, 43
2,71731, Note_on_c, 0, 73, 0
2,71739, Note_on_c, 0, 59, 80
2,71745, Control_c, 0, 64, 44
2,71761, Control_c, 0, 64, 44
2,71776, Control_c, 0, 64, 46
2,71778, Note_on_c, 0, 61, 0
2,71867, Control_c, 0, 64, 45
2,71870, Note_on_c, 0, 59, 0
2,71883, Control_c, 0, 64, 45
2,71898, Note_on_c, 0, 57, 90
2,71903, Note_on_c, 0, 74, 82
2,71908, Note_on_c, 0, 55, 0
2,71943, Control_c, 0, 64, 46
2,71959, Control_c, 0, 64, 49
2,71974, Control_c, 0, 64, 52
2,71989, Control_c, 0, 64, 54
2,72005, Control_c, 0, 64, 55
2,72019, Control_c, 0, 64, 56
2,72064, Note_on_c, 0, 74, 0
2,72148, Control_c, 0, 64, 55
2,72179, Control_c, 0, 64, 55
2,72181, Note_on_c, 0, 74, 81
2,72185, Note_on_c, 0, 54, 85
2,72194, Control_c, 0, 64, 54
2,72210, Control_c, 0, 64, 53
2,72224, Control_c, 0, 64, 53
2,72240, Control_c, 0, 64, 52
2,72270, Control_c, 0, 64, 52
2,72285, Note_on_c, 0, 52, 77
2,72286, Control_c, 0, 64, 51
2,72292, Note_on_c, 0, 72, 80
2,72300, Control_c, 0, 64, 50
2,72307, Note_on_c, 0, 54, 0
2,72315, Control_c, 0, 64, 49
2,72331, Control_c, 0, 64, 48
2,72346, Control_c, 0, 64, 47
2,72361, Control_c, 0, 64, 47
2,72376, Control_c, 0, 64, 46
2,72391, Control_c, 0, 64, 45
2,72407, Control_c, 0, 64, 43
2,72419, Note_on_c, 0, 54, 88
2,72422, Control_c, 0, 64, 41
2,72426, Note_on_c, 0, 71, 81
2,72437, Control_c, 0, 64, 40
2,72450, Note_on_c, 0, 52, 0
2,72452, Control_c, 0, 64, 39
2,72483, Control_c, 0, 64, 38
2,72498, Control_c, 0, 64, 38
2,72501, Note_on_c, 0, 72, 0
2,72531, Note_on_c, 0, 71, 0
2,72534, Note_on_c, 0, 69, 84
2,72537, Note_on_c, 0, 54, 0
2,72559, Control_c, 0, 64, 38
2,72588, Control_c, 0, 64, 39
2,72604, Control_c, 0, 64, 39
2,72666, Note_on_c, 0, 56, 87
2,72667, Note_on_c, 0, 68, 82
2,72692, Note_on_c, 0, 69, 0
2,72703, Note_on_c, 0, 57, 0
2,72771, Note_on_c, 0, 56, 0
2,72772, Control_c, 0, 64, 39
2,72777, Note_on_c, 0, 66, 82
2,72787, Control_c, 0, 64, 35
2,72802, Note_on_c, 0, 68, 0
2,72803, Control_c, 0, 64, 28
2,72825, Control_c, 0, 64, 21
2,72841, Control_c, 0, 64, 0
2,72932, Control_c, 0, 64, 26
2,72932, Note_on_c, 0, 64, 85
2,72935, Note_on_c, 0, 57, 92
2,72946, Control_c, 0, 64, 40
2,72962, Control_c, 0, 64, 50
2,72977, Control_c, 0, 64, 55
2,72977, Note_on_c, 0, 66, 0
2,72992, Control_c, 0, 64, 59
2,73003, Note_on_c, 0, 64, 0
2,73008, Control_c, 0, 64, 62
2,73023, Control_c, 0, 64, 65
2,73032, Note_on_c, 0, 74, 0
2,73039, Control_c, 0, 64, 69
2,73053, Control_c, 0, 64, 73
2,73068, Control_c, 0, 64, 75
2,73084, Control_c, 0, 64, 74
2,73098, Note_on_c, 0, 57, 0
2,73099, Control_c, 0, 64, 71
2,73114, Control_c, 0, 64, 66
2,73130, Control_c, 0, 64, 62
2,73144, Control_c, 0, 64, 60
2,73160, Control_c, 0, 64, 58
2,73175, Control_c, 0, 64, 57
2,73190, Control_c, 0, 64, 55
2,73205, Control_c, 0, 64, 54
2,73207, Note_on_c, 0, 72, 88
2,73208, Note_on_c, 0, 57, 87
2,73220, Control_c, 0, 64, 53
2,73308, Note_on_c, 0, 56, 87
2,73309, Note_on_c, 0, 71, 90
2,73326, Control_c, 0, 64, 54
2,73331, Note_on_c, 0, 57, 0
2,73344, Note_on_c, 0, 72, 0
2,73445, Note_on_c, 0, 57, 93
2,73447, Note_on_c, 0, 72, 93
2,73450, Note_on_c, 0, 69, 81
2,73485, Note_on_c, 0, 71, 0
2,73486, Note_on_c, 0, 56, 0
2,73495, Control_c, 0, 64, 53
2,73599, Note_on_c, 0, 57, 0
2,73661, Note_on_c, 0, 72, 0
2,73727, Note_on_c, 0, 59, 89
2,73730, Note_on_c, 0, 74, 88
2,73857, Note_on_c, 0, 59, 0
2,73887, Note_on_c, 0, 74, 0
2,73989, Note_on_c, 0, 60, 94
2,73991, Note_on_c, 0, 76, 89
2,74004, Control_c, 0, 64, 54
2,74019, Control_c, 0, 64, 56
2,74034, Control_c, 0, 64, 57
2,74049, Control_c, 0, 64, 58
2,74064, Control_c, 0, 64, 59
2,74080, Control_c, 0, 64, 59
2,74081, Note_on_c, 0, 69, 0
2,74100, Note_on_c, 0, 60, 0
2,74110, Control_c, 0, 64, 59
2,74125, Control_c, 0, 64, 58
2,74140, Control_c, 0, 64, 57
2,74155, Control_c, 0, 64, 55
2,74169, Control_c, 0, 64, 52
2,74184, Control_c, 0, 64, 50
2,74200, Control_c, 0, 64, 48
2,74215, Control_c, 0, 64, 47
2,74243, Note_on_c, 0, 69, 86
2,74248, Note_on_c, 0, 57, 78
2,74255, Note_on_c, 0, 60, 84
2,74261, Control_c, 0, 64, 48
2,74277, Control_c, 0, 64, 53
2,74292, Control_c, 0, 64, 58
2,74307, Control_c, 0, 64, 61
2,74323, Control_c, 0, 64, 63
2,74338, Control_c, 0, 64, 65
2,74343, Note_on_c, 0, 59, 88
2,74360, Note_on_c, 0, 68, 71
2,74361, Control_c, 0, 64, 68
2,74370, Note_on_c, 0, 69, 0
2,74374, Note_on_c, 0, 76, 0
2,74376, Control_c, 0, 64, 75
2,74376, Note_on_c, 0, 60, 0
2,74386, Note_on_c, 0, 68, 0
2,74391, Control_c, 0, 64, 82
2,74407, Control_c, 0, 64, 87
2,74422, Control_c, 0, 64, 87
2,74437, Control_c, 0, 64, 84
2,74452, Control_c, 0, 64, 76
2,74467, Control_c, 0, 64, 67
2,74482, Control_c, 0, 64, 59
2,74497, Control_c, 0, 64, 45
2,74499, Note_on_c, 0, 60, 89
2,74499, Note_on_c, 0, 81, 87
2,74500, Note_on_c, 0, 55, 82
2,74503, Note_on_c, 0, 69, 86
2,74512, Control_c, 0, 64, 34
2,74528, Control_c, 0, 64, 32
2,74530, Note_on_c, 0, 59, 0
2,74543, Control_c, 0, 64, 31
2,74552, Note_on_c, 0, 57, 0
2,74573, Control_c, 0, 64, 32
2,74588, Control_c, 0, 64, 36
2,74604, Control_c, 0, 64, 44
2,74619, Control_c, 0, 64, 49
2,74624, Note_on_c, 0, 60, 0
2,74634, Control_c, 0, 64, 52
2,74638, Note_on_c, 0, 55, 0
2,74650, Control_c, 0, 64, 54
2,74672, Note_on_c, 0, 69, 0
2,74695, Control_c, 0, 64, 53
2,74710, Control_c, 0, 64, 49
2,74726, Control_c, 0, 64, 44
2,74741, Control_c, 0, 64, 37
2,74755, Control_c, 0, 64, 33
2,74765, Note_on_c, 0, 62, 93
2,74771, Control_c, 0, 64, 33
2,74771, Note_on_c, 0, 71, 88
2,74772, Note_on_c, 0, 53, 75
2,74802, Control_c, 0, 64, 35
2,74816, Control_c, 0, 64, 43
2,74831, Control_c, 0, 64, 51
2,74847, Control_c, 0, 64, 58
2,74854, Note_on_c, 0, 62, 0
2,74862, Control_c, 0, 64, 61
2,74873, Note_on_c, 0, 53, 0
2,74878, Control_c, 0, 64, 64
2,74892, Control_c, 0, 64, 68
2,74907, Control_c, 0, 64, 73
2,74912, Note_on_c, 0, 71, 0
2,74923, Control_c, 0, 64, 78
2,74938, Control_c, 0, 64, 78
2,74953, Control_c, 0, 64, 71
2,74968, Control_c, 0, 64, 62
2,74983, Control_c, 0, 64, 45
2,74999, Control_c, 0, 64, 38
2,75004, Note_on_c, 0, 52, 71
2,75013, Control_c, 0, 64, 42
2,75019, Note_on_c, 0, 72, 86
2,75022, Note_on_c, 0, 64, 91
2,75028, Control_c, 0, 64, 48
2,75044, Control_c, 0, 64, 55
2,75059, Control_c, 0, 64, 60
2,75060, Note_on_c, 0, 52, 0
2,75074, Control_c, 0, 64, 63
2,75090, Control_c, 0, 64, 66
2,75105, Control_c, 0, 64, 70
2,75129, Control_c, 0, 64, 76
2,75141, Note_on_c, 0, 80, 78
2,75144, Control_c, 0, 64, 80
2,75144, Note_on_c, 0, 72, 0
2,75145, Note_on_c, 0, 62, 86
2,75149, Note_on_c, 0, 64, 0
2,75155, Note_on_c, 0, 81, 0
2,75160, Control_c, 0, 64, 81
2,75175, Control_c, 0, 64, 79
2,75190, Control_c, 0, 64, 75
2,75205, Control_c, 0, 64, 71
2,75220, Control_c, 0, 64, 68
2,75235, Control_c, 0, 64, 64
2,75250, Control_c, 0, 64, 61
2,75265, Control_c, 0, 64, 57
2,75265, Note_on_c, 0, 60, 86
2,75267, Note_on_c, 0, 72, 62
2,75270, Note_on_c, 0, 81, 71
2,75281, Control_c, 0, 64, 52
2,75284, Note_on_c, 0, 62, 0
2,75287, Note_on_c, 0, 80, 0
2,75296, Control_c, 0, 64, 49
2,75297, Note_on_c, 0, 72, 0
2,75306, Note_on_c, 0, 74, 27
2,75311, Control_c, 0, 64, 48
2,75327, Note_on_c, 0, 74, 0
2,75341, Control_c, 0, 64, 50
2,75349, Note_on_c, 0, 81, 0
2,75357, Control_c, 0, 64, 52
2,75372, Control_c, 0, 64, 54
2,75372, Note_on_c, 0, 60, 0
2,75372, Note_on_c, 0, 62, 90
2,75374, Note_on_c, 0, 71, 78
2,75381, Note_on_c, 0, 80, 76
2,75387, Control_c, 0, 64, 55
2,75417, Control_c, 0, 64, 53
2,75432, Control_c, 0, 64, 51
2,75432, Note_on_c, 0, 71, 0
2,75448, Control_c, 0, 64, 48
2,75462, Control_c, 0, 64, 43
2,75478, Control_c, 0, 64, 35
2,75493, Control_c, 0, 64, 30
2,75511, Note_on_c, 0, 64, 94
2,75511, Note_on_c, 0, 81, 78
2,75518, Note_on_c, 0, 72, 80
2,75524, Control_c, 0, 64, 33
2,75530, Note_on_c, 0, 62, 0
2,75539, Control_c, 0, 64, 44
2,75547, Note_on_c, 0, 80, 0
2,75554, Control_c, 0, 64, 53
2,75570, Control_c, 0, 64, 58
2,75585, Control_c, 0, 64, 60
2,75620, Note_on_c, 0, 81, 0
2,75630, Control_c, 0, 64, 57
2,75637, Note_on_c, 0, 72, 0
2,75640, Note_on_c, 0, 64, 0
2,75646, Control_c, 0, 64, 52
2,75660, Control_c, 0, 64, 44
2,75675, Control_c, 0, 64, 35
2,75691, Control_c, 0, 64, 24
2,75706, Control_c, 0, 64, 0
2,75767, Control_c, 0, 64, 33
2,75775, Note_on_c, 0, 65, 93
2,75776, Note_on_c, 0, 83, 75
2,75780, Note_on_c, 0, 74, 75
2,75782, Control_c, 0, 64, 51
2,75798, Control_c, 0, 64, 61
2,75812, Control_c, 0, 64, 66
2,75826, Note_on_c, 0, 65, 0
2,75827, Control_c, 0, 64, 74
2,75843, Control_c, 0, 64, 94
2,75846, Note_on_c, 0, 83, 0
2,75857, Control_c, 0, 64, 127
2,75909, Note_on_c, 0, 74, 0
2,75988, Control_c, 0, 64, 99
2,76004, Control_c, 0, 64, 84
2,76019, Control_c, 0, 64, 74
2,76034, Control_c, 0, 64, 67
2,76049, Control_c, 0, 64, 60
2,76053, Note_on_c, 0, 56, 88
2,76062, Note_on_c, 0, 76, 71
2,76064, Control_c, 0, 64, 54
2,76080, Control_c, 0, 64, 52
2,76094, Control_c, 0, 64, 51
2,76125, Control_c, 0, 64, 50
2,76132, Note_on_c, 0, 56, 0
2,76140, Control_c, 0, 64, 49
2,76155, Control_c, 0, 64, 48
2,76170, Control_c, 0, 64, 48
2,76178, Note_on_c, 0, 74, 70
2,76178, Note_on_c, 0, 76, 0
2,76216, Control_c, 0, 64, 47
2,76261, Control_c, 0, 64, 47
2,76277, Control_c, 0, 64, 46
2,76291, Control_c, 0, 64, 44
2,76304, Note_on_c, 0, 45, 64
2,76304, Note_on_c, 0, 74, 0
2,76306, Control_c, 0, 64, 42
2,76306, Note_on_c, 0, 52, 59
2,76313, Note_on_c, 0, 72, 67
2,76322, Control_c, 0, 64, 40
2,76337, Control_c, 0, 64, 38
2,76352, Control_c, 0, 64, 36
2,76368, Control_c, 0, 64, 34
2,76383, Control_c, 0, 64, 33
2,76393, Note_on_c, 0, 45, 0
2,76397, Note_on_c, 0, 47, 67
2,76410, Note_on_c, 0, 72, 0
2,76413, Control_c, 0, 64, 33
2,76428, Control_c, 0, 64, 32
2,76428, Note_on_c, 0, 74, 63
2,76459, Control_c, 0, 64, 32
2,76548, Note_on_c, 0, 47, 0
2,76549, Note_on_c, 0, 74, 0
2,76550, Control_c, 0, 64, 35
2,76553, Note_on_c, 0, 48, 64
2,76566, Control_c, 0, 64, 43
2,76566, Note_on_c, 0, 76, 71
2,76580, Control_c, 0, 64, 51
2,76595, Control_c, 0, 64, 57
2,76603, Note_on_c, 0, 52, 0
2,76611, Control_c, 0, 64, 60
2,76624, Note_on_c, 0, 48, 0
2,76626, Control_c, 0, 64, 63
2,76642, Control_c, 0, 64, 64
2,76664, Control_c, 0, 64, 65
2,76680, Control_c, 0, 64, 65
2,76695, Control_c, 0, 64, 65
2,76725, Control_c, 0, 64, 64
2,76740, Control_c, 0, 64, 63
2,76755, Control_c, 0, 64, 61
2,76771, Control_c, 0, 64, 58
2,76786, Control_c, 0, 64, 53
2,76802, Control_c, 0, 64, 50
2,76817, Control_c, 0, 64, 47
2,76826, Note_on_c, 0, 74, 70
2,76829, Note_on_c, 0, 57, 61
2,76830, Note_on_c, 0, 50, 53
2,76832, Control_c, 0, 64, 47
2,76839, Note_on_c, 0, 77, 65
2,76848, Control_c, 0, 64, 46
2,76853, Note_on_c, 0, 76, 0
2,76879, Control_c, 0, 64, 47
2,76893, Control_c, 0, 64, 49
2,76908, Control_c, 0, 64, 53
2,76911, Note_on_c, 0, 74, 0
2,76924, Control_c, 0, 64, 56
2,76938, Control_c, 0, 64, 59
2,76942, Note_on_c, 0, 77, 0
2,76945, Note_on_c, 0, 72, 69
2,76953, Control_c, 0, 64, 62
2,76969, Control_c, 0, 64, 64
2,76984, Control_c, 0, 64, 66
2,77000, Control_c, 0, 64, 67
2,77014, Note_on_c, 0, 72, 0
2,77029, Control_c, 0, 64, 67
2,77045, Control_c, 0, 64, 64
2,77060, Control_c, 0, 64, 60
2,77075, Control_c, 0, 64, 52
2,77080, Note_on_c, 0, 50, 0
2,77088, Note_on_c, 0, 68, 79
2,77090, Control_c, 0, 64, 42
2,77092, Note_on_c, 0, 57, 0
2,77092, Note_on_c, 0, 71, 70
2,77101, Note_on_c, 0, 59, 63
2,77105, Control_c, 0, 64, 38
2,77135, Control_c, 0, 64, 40
2,77150, Control_c, 0, 64, 47
2,77166, Control_c, 0, 64, 54
2,77181, Control_c, 0, 64, 60
2,77187, Note_on_c, 0, 71, 0
2,77190, Note_on_c, 0, 59, 0
2,77197, Control_c, 0, 64, 63
2,77202, Note_on_c, 0, 68, 0
2,77211, Control_c, 0, 64, 65
2,77220, Note_on_c, 0, 60, 58
2,77226, Control_c, 0, 64, 70
2,77243, Control_c, 0, 64, 74
2,77258, Control_c, 0, 64, 76
2,77264, Note_on_c, 0, 60, 0
2,77273, Control_c, 0, 64, 74
2,77288, Control_c, 0, 64, 70
2,77303, Control_c, 0, 64, 66
2,77319, Control_c, 0, 64, 62
2,77334, Control_c, 0, 64, 58
2,77337, Note_on_c, 0, 64, 68
2,77337, Note_on_c, 0, 76, 76
2,77349, Control_c, 0, 64, 57
2,77365, Control_c, 0, 64, 55
2,77372, Note_on_c, 0, 48, 34
2,77379, Control_c, 0, 64, 52
2,77382, Note_on_c, 0, 57, 53
2,77382, Note_on_c, 0, 64, 0
2,77394, Control_c, 0, 64, 50
2,77410, Control_c, 0, 64, 49
2,77411, Note_on_c, 0, 50, 4
2,77452, Note_on_c, 0, 48, 0
2,77457, Note_on_c, 0, 74, 71
2,77466, Note_on_c, 0, 57, 0
2,77481, Note_on_c, 0, 59, 72
2,77524, Control_c, 0, 64, 49
2,77524, Note_on_c, 0, 50, 0
2,77557, Note_on_c, 0, 59, 0
2,77585, Control_c, 0, 64, 49
2,77587, Note_on_c, 0, 72, 76
2,77590, Note_on_c, 0, 76, 0
2,77594, Note_on_c, 0, 60, 77
2,77610, Note_on_c, 0, 52, 51
2,77647, Control_c, 0, 64, 50
2,77661, Control_c, 0, 64, 51
2,77672, Note_on_c, 0, 52, 0
2,77677, Control_c, 0, 64, 52
2,77677, Note_on_c, 0, 74, 0
2,77692, Control_c, 0, 64, 53
2,77707, Control_c, 0, 64, 54
2,77710, Note_on_c, 0, 60, 0
2,77712, Note_on_c, 0, 62, 82
2,77712, Note_on_c, 0, 71, 79
2,77723, Control_c, 0, 64, 54
2,77752, Note_on_c, 0, 72, 0
2,77799, Control_c, 0, 64, 54
2,77814, Control_c, 0, 64, 53
2,77817, Note_on_c, 0, 71, 0
2,77829, Control_c, 0, 64, 52
2,77830, Note_on_c, 0, 59, 81
2,77830, Note_on_c, 0, 69, 74
2,77832, Note_on_c, 0, 53, 71
2,77840, Note_on_c, 0, 62, 0
2,77845, Control_c, 0, 64, 51
2,77859, Control_c, 0, 64, 50
2,77874, Control_c, 0, 64, 49
2,77890, Control_c, 0, 64, 49
2,77935, Control_c, 0, 64, 50
2,77936, Note_on_c, 0, 60, 83
2,77938, Note_on_c, 0, 68, 72
2,77947, Note_on_c, 0, 69, 0
2,77950, Control_c, 0, 64, 52
2,77955, Note_on_c, 0, 59, 0
2,77966, Control_c, 0, 64, 54
2,78011, Control_c, 0, 64, 53
2,78026, Control_c, 0, 64, 50
2,78042, Control_c, 0, 64, 48
2,78056, Control_c, 0, 64, 44
2,78069, Note_on_c, 0, 69, 68
2,78070, Note_on_c, 0, 62, 86
2,78071, Control_c, 0, 64, 41
2,78071, Note_on_c, 0, 71, 70
2,78078, Note_on_c, 0, 68, 0
2,78102, Control_c, 0, 64, 42
2,78116, Control_c, 0, 64, 47
2,78132, Control_c, 0, 64, 53
2,78147, Control_c, 0, 64, 57
2,78163, Control_c, 0, 64, 60
2,78177, Note_on_c, 0, 69, 0
2,78178, Control_c, 0, 64, 61
2,78180, Note_on_c, 0, 62, 0
2,78195, Note_on_c, 0, 71, 0
2,78196, Note_on_c, 0, 72, 71
2,78214, Note_on_c, 0, 60, 0
2,78231, Control_c, 0, 64, 60
2,78247, Control_c, 0, 64, 58
2,78262, Control_c, 0, 64, 56
2,78276, Control_c, 0, 64, 54
2,78285, Note_on_c, 0, 53, 0
2,78292, Control_c, 0, 64, 51
2,78292, Note_on_c, 0, 72, 0
2,78307, Control_c, 0, 64, 50
2,78312, Note_on_c, 0, 60, 78
2,78315, Note_on_c, 0, 52, 61
2,78322, Note_on_c, 0, 69, 71
2,78383, Control_c, 0, 64, 51
2,78400, Control_c, 0, 64, 51
2,78408, Note_on_c, 0, 52, 0
2,78416, Note_on_c, 0, 60, 0
2,78419, Note_on_c, 0, 50, 68
2,78419, Note_on_c, 0, 69, 0
2,78445, Control_c, 0, 64, 50
2,78450, Note_on_c, 0, 71, 67
2,78460, Control_c, 0, 64, 49
2,78475, Control_c, 0, 64, 47
2,78491, Control_c, 0, 64, 45
2,78505, Control_c, 0, 64, 43
2,78521, Control_c, 0, 64, 41
2,78547, Note_on_c, 0, 50, 0
2,78550, Note_on_c, 0, 71, 0
2,78566, Control_c, 0, 64, 42
2,78574, Note_on_c, 0, 52, 57
2,78579, Note_on_c, 0, 59, 69
2,78581, Control_c, 0, 64, 43
2,78581, Note_on_c, 0, 72, 63
2,78589, Note_on_c, 0, 68, 59
2,78596, Control_c, 0, 64, 45
2,78671, Note_on_c, 0, 68, 0
2,78688, Control_c, 0, 64, 44
2,78691, Note_on_c, 0, 72, 0
2,78708, Note_on_c, 0, 74, 58
2,78787, Note_on_c, 0, 52, 0
2,78802, Note_on_c, 0, 74, 0
2,78822, Note_on_c, 0, 59, 0
2,78825, Note_on_c, 0, 48, 58
2,78826, Note_on_c, 0, 71, 64
2,78834, Note_on_c, 0, 64, 56
2,78900, Note_on_c, 0, 64, 0
2,78929, Note_on_c, 0, 71, 0
2,78945, Note_on_c, 0, 72, 71
2,79094, Note_on_c, 0, 48, 0
2,79096, Note_on_c, 0, 74, 63
2,79099, Note_on_c, 0, 72, 0
2,79105, Note_on_c, 0, 53, 48
2,79106, Control_c, 0, 64, 45
2,79109, Note_on_c, 0, 69, 57
2,79112, Note_on_c, 0, 57, 53
2,79121, Control_c, 0, 64, 46
2,79136, Control_c, 0, 64, 46
2,79151, Control_c, 0, 64, 48
2,79166, Control_c, 0, 64, 49
2,79181, Control_c, 0, 64, 50
2,79196, Control_c, 0, 64, 50
2,79202, Note_on_c, 0, 53, 0
2,79217, Note_on_c, 0, 74, 0
2,79363, Note_on_c, 0, 72, 64
2,79377, Note_on_c, 0, 52, 52
2,79385, Note_on_c, 0, 57, 0
2,79455, Note_on_c, 0, 69, 0
2,79466, Note_on_c, 0, 52, 0
2,79475, Note_on_c, 0, 72, 0
2,79498, Note_on_c, 0, 50, 49
2,79593, Control_c, 0, 64, 51
2,79622, Note_on_c, 0, 50, 0
2,79622, Note_on_c, 0, 71, 63
2,79630, Note_on_c, 0, 52, 50
2,79639, Control_c, 0, 64, 51
2,79669, Control_c, 0, 64, 52
2,79710, Note_on_c, 0, 52, 0
2,79710, Note_on_c, 0, 71, 0
2,79714, Control_c, 0, 64, 52
2,79741, Note_on_c, 0, 53, 55
2,79828, Control_c, 0, 64, 53
2,79854, Note_on_c, 0, 53, 0
2,79878, Note_on_c, 0, 52, 39
2,79883, Note_on_c, 0, 76, 57
2,79893, Note_on_c, 0, 55, 45
2,79954, Note_on_c, 0, 52, 0
2,79982, Note_on_c, 0, 76, 0
2,79987, Note_on_c, 0, 50, 51
2,80036, Note_on_c, 0, 55, 0
2,80088, Control_c, 0, 64, 52
2,80098, Note_on_c, 0, 50, 0
2,80119, Note_on_c, 0, 49, 46
2,80146, Note_on_c, 0, 69, 54
2,80148, Control_c, 0, 64, 52
2,80179, Control_c, 0, 64, 51
2,80190, Note_on_c, 0, 49, 0
2,80209, Control_c, 0, 64, 51
2,80224, Control_c, 0, 64, 50
2,80239, Control_c, 0, 64, 50
2,80269, Control_c, 0, 64, 49
2,80407, Control_c, 0, 64, 50
2,80407, Note_on_c, 0, 45, 35
2,80411, Note_on_c, 0, 53, 38
2,80421, Control_c, 0, 64, 52
2,80436, Control_c, 0, 64, 55
2,80452, Control_c, 0, 64, 56
2,80467, Control_c, 0, 64, 58
2,80483, Control_c, 0, 64, 61
2,80505, Control_c, 0, 64, 63
2,80508, Note_on_c, 0, 53, 0
2,80521, Control_c, 0, 64, 65
2,80523, Note_on_c, 0, 69, 0
2,80535, Control_c, 0, 64, 67
2,80544, Note_on_c, 0, 52, 47
2,80550, Control_c, 0, 64, 70
2,80566, Control_c, 0, 64, 74
2,80575, Note_on_c, 0, 45, 0
2,80581, Control_c, 0, 64, 79
2,80596, Control_c, 0, 64, 81
2,80611, Control_c, 0, 64, 80
2,80626, Control_c, 0, 64, 79
2,80642, Control_c, 0, 64, 78
2,80657, Control_c, 0, 64, 76
2,80658, Note_on_c, 0, 50, 50
2,80660, Note_on_c, 0, 53, 50
2,80665, Note_on_c, 0, 52, 0
2,80672, Control_c, 0, 64, 73
2,80688, Control_c, 0, 64, 70
2,80703, Control_c, 0, 64, 67
2,80719, Control_c, 0, 64, 65
2,80719, Note_on_c, 0, 50, 0
2,80733, Control_c, 0, 64, 64
2,80748, Control_c, 0, 64, 63
2,80764, Control_c, 0, 64, 62
2,80778, Control_c, 0, 64, 61
2,80793, Control_c, 0, 64, 61
2,80803, Note_on_c, 0, 77, 64
2,80809, Control_c, 0, 64, 60
2,80856, Control_c, 0, 64, 60
2,80920, Note_on_c, 0, 48, 50
2,80932, Note_on_c, 0, 74, 63
2,80940, Note_on_c, 0, 77, 0
2,80962, Control_c, 0, 64, 59
2,80974, Note_on_c, 0, 48, 0
2,80977, Control_c, 0, 64, 59
2,80992, Control_c, 0, 64, 58
2,81023, Control_c, 0, 64, 57
2,81032, Note_on_c, 0, 71, 66
2,81046, Note_on_c, 0, 74, 0
2,81053, Control_c, 0, 64, 56
2,81084, Control_c, 0, 64, 56
2,81172, Note_on_c, 0, 47, 43
2,81180, Note_on_c, 0, 67, 65
2,81198, Note_on_c, 0, 53, 0
2,81238, Note_on_c, 0, 47, 0
2,81250, Note_on_c, 0, 71, 0
2,81274, Control_c, 0, 64, 55
2,81304, Control_c, 0, 64, 55
2,81380, Control_c, 0, 64, 55
2,81395, Control_c, 0, 64, 56
2,81411, Control_c, 0, 64, 57
2,81425, Control_c, 0, 64, 58
2,81441, Control_c, 0, 64, 59
2,81456, Control_c, 0, 64, 61
2,81462, Note_on_c, 0, 43, 34
2,81464, Note_on_c, 0, 52, 43
2,81471, Control_c, 0, 64, 63
2,81487, Control_c, 0, 64, 65
2,81501, Control_c, 0, 64, 69
2,81516, Control_c, 0, 64, 74
2,81532, Control_c, 0, 64, 84
2,81532, Note_on_c, 0, 52, 0
2,81547, Control_c, 0, 64, 97
2,81562, Note_on_c, 0, 67, 0
2,81563, Control_c, 0, 64, 127
2,81583, Note_on_c, 0, 50, 45
2,81589, Note_on_c, 0, 43, 0
2,81708, Note_on_c, 0, 48, 43
2,81716, Note_on_c, 0, 52, 45
2,81724, Note_on_c, 0, 50, 0
2,81761, Control_c, 0, 64, 106
2,81773, Note_on_c, 0, 48, 0
2,81776, Control_c, 0, 64, 89
2,81791, Control_c, 0, 64, 77
2,81807, Control_c, 0, 64, 68
2,81822, Control_c, 0, 64, 59
2,81829, Note_on_c, 0, 76, 60
2,81838, Control_c, 0, 64, 52
2,81852, Control_c, 0, 64, 51
2,81898, Control_c, 0, 64, 50
2,81913, Control_c, 0, 64, 49
2,81928, Control_c, 0, 64, 49
2,81965, Note_on_c, 0, 47, 50
2,81976, Note_on_c, 0, 72, 64
2,81990, Note_on_c, 0, 76, 0
2,82021, Note_on_c, 0, 47, 0
2,82090, Note_on_c, 0, 69, 67
2,82119, Control_c, 0, 64, 48
2,82125, Note_on_c, 0, 72, 0
2,82164, Control_c, 0, 64, 48
2,82234, Note_on_c, 0, 65, 63
2,82248, Note_on_c, 0, 69, 0
2,82256, Note_on_c, 0, 45, 44
2,82452, Control_c, 0, 64, 48
2,82467, Control_c, 0, 64, 49
2,82483, Control_c, 0, 64, 49
2,82487, Note_on_c, 0, 45, 0
2,82493, Note_on_c, 0, 65, 0
2,82498, Control_c, 0, 64, 50
2,82513, Control_c, 0, 64, 50
2,82514, Note_on_c, 0, 67, 57
2,82524, Note_on_c, 0, 47, 42
2,82529, Control_c, 0, 64, 51
2,82544, Control_c, 0, 64, 52
2,82547, Note_on_c, 0, 52, 0
2,82560, Control_c, 0, 64, 53
2,82574, Control_c, 0, 64, 54
2,82615, Note_on_c, 0, 47, 0
2,82620, Control_c, 0, 64, 54
2,82620, Note_on_c, 0, 67, 0
2,82633, Note_on_c, 0, 69, 56
2,82655, Note_on_c, 0, 48, 37
2,82665, Control_c, 0, 64, 55
2,82726, Control_c, 0, 64, 55
2,82747, Note_on_c, 0, 48, 0
2,82761, Note_on_c, 0, 47, 46
2,82764, Note_on_c, 0, 67, 59
2,82766, Note_on_c, 0, 69, 0
2,82784, Note_on_c, 0, 50, 34
2,82868, Note_on_c, 0, 67, 0
2,82876, Note_on_c, 0, 65, 60
2,82971, Note_on_c, 0, 47, 0
2,83001, Note_on_c, 0, 65, 0
2,83002, Note_on_c, 0, 43, 42
2,83009, Note_on_c, 0, 64, 57
2,83087, Note_on_c, 0, 64, 0
2,83125, Note_on_c, 0, 65, 57
2,83225, Note_on_c, 0, 50, 0
2,83228, Note_on_c, 0, 65, 0
2,83231, Note_on_c, 0, 43, 0
2,83241, Note_on_c, 0, 48, 36
2,83247, Note_on_c, 0, 64, 56
2,83272, Note_on_c, 0, 48, 0
2,83364, Note_on_c, 0, 48, 52
2,83473, Note_on_c, 0, 48, 0
2,83503, Note_on_c, 0, 50, 54
2,83609, Note_on_c, 0, 50, 0
2,83633, Note_on_c, 0, 52, 57
2,83735, Note_on_c, 0, 52, 0
2,83752, Note_on_c, 0, 53, 64
2,83840, Note_on_c, 0, 53, 0
2,83867, Note_on_c, 0, 55, 68
2,84002, Note_on_c, 0, 47, 56
2,84003, Note_on_c, 0, 55, 0
2,84005, Note_on_c, 0, 57, 69
2,84071, Note_on_c, 0, 47, 0
2,84112, Note_on_c, 0, 59, 69
2,84158, Note_on_c, 0, 57, 0
2,84228, Note_on_c, 0, 64, 0
2,84242, Note_on_c, 0, 60, 74
2,84248, Note_on_c, 0, 59, 0
2,84249, Note_on_c, 0, 45, 49
2,84370, Note_on_c, 0, 62, 72
2,84496, Note_on_c, 0, 64, 75
2,84497, Control_c, 0, 64, 56
2,84512, Control_c, 0, 64, 57
2,84519, Note_on_c, 0, 62, 0
2,84528, Control_c, 0, 64, 58
2,84542, Control_c, 0, 64, 58
2,84558, Control_c, 0, 64, 59
2,84573, Control_c, 0, 64, 60
2,84587, Control_c, 0, 64, 61
2,84601, Note_on_c, 0, 65, 74
2,84603, Control_c, 0, 64, 63
2,84618, Control_c, 0, 64, 64
2,84633, Control_c, 0, 64, 65
2,84642, Note_on_c, 0, 64, 0
2,84649, Control_c, 0, 64, 67
2,84663, Control_c, 0, 64, 71
2,84679, Control_c, 0, 64, 76
2,84694, Control_c, 0, 64, 82
2,84709, Control_c, 0, 64, 90
2,84722, Note_on_c, 0, 67, 83
2,84724, Control_c, 0, 64, 98
2,84739, Control_c, 0, 64, 107
2,84744, Note_on_c, 0, 65, 0
2,84750, Note_on_c, 0, 45, 0
2,84754, Control_c, 0, 64, 111
2,84770, Control_c, 0, 64, 110
2,84785, Control_c, 0, 64, 109
2,84800, Control_c, 0, 64, 107
2,84815, Control_c, 0, 64, 105
2,84816, Note_on_c, 0, 67, 0
2,84830, Control_c, 0, 64, 102
2,84846, Control_c, 0, 64, 97
2,84846, Note_on_c, 0, 69, 79
2,84861, Control_c, 0, 64, 91
2,84876, Control_c, 0, 64, 84
2,84892, Control_c, 0, 64, 79
2,84906, Control_c, 0, 64, 75
2,84922, Control_c, 0, 64, 71
2,84937, Control_c, 0, 64, 65
2,84953, Control_c, 0, 64, 60
2,84965, Note_on_c, 0, 71, 80
2,84969, Control_c, 0, 64, 53
2,84974, Note_on_c, 0, 43, 63
2,84983, Control_c, 0, 64, 51
2,85013, Note_on_c, 0, 69, 0
2,85014, Control_c, 0, 64, 51
2,85029, Control_c, 0, 64, 53
2,85045, Control_c, 0, 64, 56
2,85059, Control_c, 0, 64, 60
2,85073, Note_on_c, 0, 72, 82
2,85074, Control_c, 0, 64, 63
2,85090, Control_c, 0, 64, 65
2,85107, Note_on_c, 0, 71, 0
2,85112, Control_c, 0, 64, 68
2,85128, Control_c, 0, 64, 72
2,85141, Note_on_c, 0, 72, 0
2,85143, Control_c, 0, 64, 76
2,85158, Control_c, 0, 64, 80
2,85173, Control_c, 0, 64, 81
2,85188, Control_c, 0, 64, 79
2,85204, Control_c, 0, 64, 77
2,85219, Control_c, 0, 64, 76
2,85219, Note_on_c, 0, 43, 0
2,85219, Note_on_c, 0, 62, 80
2,85227, Note_on_c, 0, 41, 64
2,85233, Control_c, 0, 64, 74
2,85249, Control_c, 0, 64, 72
2,85264, Control_c, 0, 64, 69
2,85280, Control_c, 0, 64, 66
2,85295, Control_c, 0, 64, 64
2,85296, Note_on_c, 0, 41, 0
2,85310, Control_c, 0, 64, 63
2,85326, Control_c, 0, 64, 62
2,85339, Note_on_c, 0, 64, 79
2,85341, Control_c, 0, 64, 62
2,85352, Note_on_c, 0, 55, 60
2,85356, Control_c, 0, 64, 60
2,85363, Note_on_c, 0, 62, 0
2,85371, Control_c, 0, 64, 59
2,85386, Control_c, 0, 64, 57
2,85402, Control_c, 0, 64, 55
2,85417, Control_c, 0, 64, 55
2,85447, Control_c, 0, 64, 54
2,85466, Note_on_c, 0, 55, 0
2,85472, Note_on_c, 0, 62, 80
2,85478, Control_c, 0, 64, 54
2,85483, Note_on_c, 0, 53, 66
2,85493, Note_on_c, 0, 64, 0
2,85574, Note_on_c, 0, 53, 0
2,85593, Note_on_c, 0, 52, 62
2,85593, Note_on_c, 0, 64, 81
2,85613, Note_on_c, 0, 62, 0
2,85693, Note_on_c, 0, 52, 0
2,85725, Note_on_c, 0, 65, 76
2,85727, Note_on_c, 0, 50, 54
2,85736, Note_on_c, 0, 64, 0
2,85777, Note_on_c, 0, 60, 0
2,85796, Control_c, 0, 64, 53
2,85835, Note_on_c, 0, 50, 0
2,85848, Note_on_c, 0, 64, 71
2,85855, Note_on_c, 0, 48, 52
2,85858, Control_c, 0, 64, 54
2,85881, Control_c, 0, 64, 53
2,85927, Control_c, 0, 64, 52
2,85942, Control_c, 0, 64, 50
2,85956, Control_c, 0, 64, 47
2,85972, Control_c, 0, 64, 42
2,85972, Note_on_c, 0, 48, 0
2,85987, Control_c, 0, 64, 34
2,85995, Note_on_c, 0, 47, 51
2,86002, Control_c, 0, 64, 23
2,86003, Note_on_c, 0, 62, 60
2,86017, Control_c, 0, 64, 0
2,86040, Note_on_c, 0, 64, 0
2,86082, Note_on_c, 0, 47, 0
2,86101, Note_on_c, 0, 62, 0
2,86114, Note_on_c, 0, 45, 47
2,86127, Note_on_c, 0, 60, 58
2,86226, Note_on_c, 0, 45, 0
2,86230, Control_c, 0, 64, 32
2,86233, Note_on_c, 0, 60, 0
2,86246, Control_c, 0, 64, 47
2,86252, Note_on_c, 0, 59, 63
2,86256, Note_on_c, 0, 43, 54
2,86261, Control_c, 0, 64, 56
2,86276, Control_c, 0, 64, 60
2,86287, Note_on_c, 0, 59, 0
2,86291, Control_c, 0, 64, 63
2,86298, Note_on_c, 0, 43, 0
2,86306, Control_c, 0, 64, 65
2,86309, Note_on_c, 0, 65, 0
2,86322, Control_c, 0, 64, 67
2,86337, Control_c, 0, 64, 68
2,86352, Control_c, 0, 64, 69
2,86367, Control_c, 0, 64, 67
2,86382, Control_c, 0, 64, 65
2,86398, Control_c, 0, 64, 62
2,86411, Note_on_c, 0, 69, 52
2,86412, Control_c, 0, 64, 60
2,86427, Control_c, 0, 64, 58
2,86443, Control_c, 0, 64, 54
2,86445, Note_on_c, 0, 69, 0
2,86458, Control_c, 0, 64, 47
2,86473, Control_c, 0, 64, 39
2,86488, Control_c, 0, 64, 32
2,86503, Control_c, 0, 64, 25
2,86519, Control_c, 0, 64, 22
2,86534, Control_c, 0, 64, 20
2,86549, Control_c, 0, 64, 17
2,86564, Control_c, 0, 64, 15
2,86565, Note_on_c, 0, 72, 57
2,86578, Note_on_c, 0, 67, 41
2,86588, Note_on_c, 0, 64, 36
2,86626, Note_on_c, 0, 67, 0
2,86647, Note_on_c, 0, 64, 0
2,86661, Note_on_c, 0, 72, 0
2,86664, Control_c, 0, 64, 13
2,86693, Note_on_c, 0, 71, 53
2,86708, Note_on_c, 0, 62, 40
2,86791, Note_on_c, 0, 62, 0
2,86820, Note_on_c, 0, 71, 0
2,86835, Note_on_c, 0, 72, 61
2,86839, Note_on_c, 0, 60, 45
2,86850, Note_on_c, 0, 64, 45
2,86899, Note_on_c, 0, 64, 0
2,86901, Note_on_c, 0, 60, 0
2,86927, Note_on_c, 0, 72, 0
2,86948, Note_on_c, 0, 59, 46
2,87053, Note_on_c, 0, 59, 0
2,87081, Note_on_c, 0, 74, 60
2,87090, Control_c, 0, 64, 15
2,87090, Note_on_c, 0, 53, 46
2,87102, Note_on_c, 0, 69, 50
2,87113, Note_on_c, 0, 57, 33
2,87153, Note_on_c, 0, 69, 0
2,87176, Note_on_c, 0, 57, 0
2,87180, Control_c, 0, 64, 16
2,87184, Note_on_c, 0, 53, 0
2,87192, Note_on_c, 0, 74, 0
2,87195, Control_c, 0, 64, 17
2,87201, Note_on_c, 0, 59, 52
2,87211, Control_c, 0, 64, 18
2,87242, Control_c, 0, 64, 19
2,87256, Control_c, 0, 64, 20
2,87287, Control_c, 0, 64, 21
2,87302, Control_c, 0, 64, 21
2,87328, Note_on_c, 0, 59, 0
2,87332, Control_c, 0, 64, 22
2,87339, Note_on_c, 0, 76, 67
2,87347, Control_c, 0, 64, 23
2,87353, Note_on_c, 0, 60, 57
2,87362, Note_on_c, 0, 67, 53
2,87377, Control_c, 0, 64, 23
2,87392, Control_c, 0, 64, 24
2,87432, Control_c, 0, 64, 24
2,87448, Control_c, 0, 64, 25
2,87462, Control_c, 0, 64, 26
2,87478, Control_c, 0, 64, 26
2,87483, Note_on_c, 0, 76, 0
2,87493, Control_c, 0, 64, 27
2,87508, Control_c, 0, 64, 28
2,87524, Control_c, 0, 64, 29
2,87539, Control_c, 0, 64, 29
2,87554, Control_c, 0, 64, 30
2,87569, Control_c, 0, 64, 30
2,87600, Control_c, 0, 64, 31
2,87615, Control_c, 0, 64, 31
2,87618, Note_on_c, 0, 76, 69
2,87630, Control_c, 0, 64, 32
2,87634, Note_on_c, 0, 48, 51
2,87690, Control_c, 0, 64, 32
2,87701, Note_on_c, 0, 48, 0
2,87721, Control_c, 0, 64, 33
2,87722, Note_on_c, 0, 74, 74
2,87723, Note_on_c, 0, 76, 0
2,87724, Note_on_c, 0, 47, 59
2,87736, Control_c, 0, 64, 33
2,87766, Control_c, 0, 64, 34
2,87767, Note_on_c, 0, 47, 0
2,87781, Control_c, 0, 64, 34
2,87860, Note_on_c, 0, 76, 75
2,87863, Note_on_c, 0, 74, 0
2,87875, Note_on_c, 0, 48, 70
2,87888, Control_c, 0, 64, 35
2,87948, Control_c, 0, 64, 35
2,87991, Note_on_c, 0, 48, 0
2,87991, Note_on_c, 0, 76, 0
2,88010, Control_c, 0, 64, 36
2,88024, Control_c, 0, 64, 36
2,88070, Control_c, 0, 64, 37
2,88100, Control_c, 0, 64, 37
2,88115, Control_c, 0, 64, 38
2,88116, Note_on_c, 0, 77, 87
2,88123, Note_on_c, 0, 50, 68
2,88146, Control_c, 0, 64, 38
2,88162, Control_c, 0, 64, 39
2,88184, Control_c, 0, 64, 40
2,88200, Control_c, 0, 64, 41
2,88215, Control_c, 0, 64, 41
2,88233, Note_on_c, 0, 77, 0
2,88245, Note_on_c, 0, 50, 0
2,88246, Control_c, 0, 64, 42
2,88392, Note_on_c, 0, 79, 72
2,88394, Note_on_c, 0, 52, 60
2,88423, Note_on_c, 0, 67, 0
2,88441, Note_on_c, 0, 52, 0
2,88511, Note_on_c, 0, 77, 76
2,88625, Note_on_c, 0, 79, 0
2,88640, Note_on_c, 0, 52, 53
2,88640, Note_on_c, 0, 76, 73
2,88643, Note_on_c, 0, 72, 70
2,88653, Note_on_c, 0, 55, 54
2,88655, Note_on_c, 0, 60, 0
2,88667, Note_on_c, 0, 77, 0
2,88740, Note_on_c, 0, 52, 0
2,88754, Note_on_c, 0, 77, 83
2,88762, Note_on_c, 0, 50, 62
2,88777, Note_on_c, 0, 76, 0
2,88884, Note_on_c, 0, 79, 82
2,88899, Note_on_c, 0, 71, 69
2,88901, Note_on_c, 0, 52, 59
2,88912, Note_on_c, 0, 72, 0
2,88924, Note_on_c, 0, 50, 0
2,88930, Control_c, 0, 64, 43
2,88951, Control_c, 0, 64, 44
2,88956, Note_on_c, 0, 77, 0
2,88967, Control_c, 0, 64, 47
2,88982, Control_c, 0, 64, 50
2,88991, Note_on_c, 0, 52, 0
2,88998, Control_c, 0, 64, 52
2,88998, Note_on_c, 0, 71, 0
2,89004, Note_on_c, 0, 55, 0
2,89013, Control_c, 0, 64, 53
2,89028, Control_c, 0, 64, 54
2,89028, Note_on_c, 0, 79, 0
2,89074, Control_c, 0, 64, 54
2,89154, Note_on_c, 0, 81, 71
2,89169, Note_on_c, 0, 69, 58
2,89170, Note_on_c, 0, 62, 55
2,89171, Note_on_c, 0, 54, 59
2,89229, Note_on_c, 0, 81, 0
2,89245, Note_on_c, 0, 54, 0
2,89272, Control_c, 0, 64, 54
2,89288, Control_c, 0, 64, 53
2,89293, Note_on_c, 0, 69, 0
2,89318, Control_c, 0, 64, 53
2,89333, Control_c, 0, 64, 52
2,89348, Control_c, 0, 64, 52
2,89364, Control_c, 0, 64, 51
2,89378, Control_c, 0, 64, 50
2,89393, Control_c, 0, 64, 50
2,89409, Control_c, 0, 64, 49
2,89416, Note_on_c, 0, 62, 0
2,89416, Note_on_c, 0, 71, 70
2,89425, Note_on_c, 0, 55, 63
2,89438, Note_on_c, 0, 67, 61
2,89454, Control_c, 0, 64, 49
2,89513, Note_on_c, 0, 55, 0
2,89529, Note_on_c, 0, 67, 0
2,89536, Note_on_c, 0, 53, 53
2,89546, Note_on_c, 0, 71, 0
2,89606, Control_c, 0, 64, 49
2,89646, Note_on_c, 0, 53, 0
2,89663, Note_on_c, 0, 52, 69
2,89664, Note_on_c, 0, 67, 67
2,89685, Note_on_c, 0, 64, 60
2,89780, Note_on_c, 0, 53, 72
2,89781, Note_on_c, 0, 67, 0
2,89785, Note_on_c, 0, 64, 0
2,89800, Note_on_c, 0, 52, 0
2,89857, Control_c, 0, 64, 49
2,89873, Control_c, 0, 64, 46
2,89889, Control_c, 0, 64, 43
2,89903, Control_c, 0, 64, 40
2,89919, Control_c, 0, 64, 40
2,89921, Note_on_c, 0, 55, 79
2,89922, Note_on_c, 0, 65, 73
2,89959, Note_on_c, 0, 53, 0
2,89964, Control_c, 0, 64, 43
2,89979, Control_c, 0, 64, 47
2,89994, Control_c, 0, 64, 50
2,90002, Note_on_c, 0, 65, 0
2,90010, Control_c, 0, 64, 51
2,90024, Control_c, 0, 64, 52
2,90025, Note_on_c, 0, 55, 0
2,90086, Control_c, 0, 64, 50
2,90101, Control_c, 0, 64, 47
2,90116, Control_c, 0, 64, 43
2,90132, Control_c, 0, 64, 38
2,90146, Control_c, 0, 64, 36
2,90188, Note_on_c, 0, 72, 77
2,90192, Control_c, 0, 64, 40
2,90192, Note_on_c, 0, 60, 80
2,90198, Note_on_c, 0, 57, 75
2,90199, Note_on_c, 0, 64, 58
2,90208, Control_c, 0, 64, 48
2,90222, Control_c, 0, 64, 56
2,90234, Note_on_c, 0, 60, 0
2,90236, Note_on_c, 0, 64, 0
2,90238, Control_c, 0, 64, 61
2,90253, Control_c, 0, 64, 64
2,90254, Note_on_c, 0, 57, 0
2,90258, Note_on_c, 0, 72, 0
2,90268, Control_c, 0, 64, 68
2,90284, Control_c, 0, 64, 74
2,90298, Control_c, 0, 64, 79
2,90313, Control_c, 0, 64, 81
2,90329, Control_c, 0, 64, 79
2,90344, Control_c, 0, 64, 77
2,90359, Control_c, 0, 64, 75
2,90374, Control_c, 0, 64, 73
2,90389, Control_c, 0, 64, 72
2,90405, Control_c, 0, 64, 69
2,90419, Control_c, 0, 64, 65
2,90434, Control_c, 0, 64, 61
2,90450, Control_c, 0, 64, 55
2,90465, Control_c, 0, 64, 53
2,90469, Note_on_c, 0, 74, 70
2,90471, Note_on_c, 0, 47, 72
2,90480, Note_on_c, 0, 55, 81
2,90489, Control_c, 0, 64, 52
2,90490, Note_on_c, 0, 62, 36
2,90503, Control_c, 0, 64, 51
2,90514, Note_on_c, 0, 64, 14
2,90523, Note_on_c, 0, 62, 0
2,90549, Control_c, 0, 64, 52
2,90559, Note_on_c, 0, 74, 0
2,90562, Note_on_c, 0, 64, 0
2,90564, Control_c, 0, 64, 55
2,90579, Control_c, 0, 64, 57
2,90581, Note_on_c, 0, 76, 57
2,90585, Note_on_c, 0, 47, 0
2,90594, Control_c, 0, 64, 58
2,90627, Note_on_c, 0, 67, 48
2,90654, Note_on_c, 0, 67, 0
2,90664, Note_on_c, 0, 76, 0
2,90687, Control_c, 0, 64, 57
2,90702, Control_c, 0, 64, 56
2,90718, Control_c, 0, 64, 55
2,90728, Note_on_c, 0, 43, 77
2,90731, Note_on_c, 0, 69, 60
2,90733, Control_c, 0, 64, 54
2,90739, Note_on_c, 0, 72, 67
2,90763, Control_c, 0, 64, 54
2,90820, Note_on_c, 0, 69, 0
2,90841, Note_on_c, 0, 72, 0
2,90848, Note_on_c, 0, 71, 74
2,90854, Control_c, 0, 64, 55
2,90856, Note_on_c, 0, 74, 72
2,90868, Control_c, 0, 64, 55
2,90884, Control_c, 0, 64, 56
2,90885, Note_on_c, 0, 71, 0
2,90899, Control_c, 0, 64, 57
2,90918, Note_on_c, 0, 74, 0
2,90983, Note_on_c, 0, 76, 77
2,90984, Note_on_c, 0, 72, 74
2,90985, Note_on_c, 0, 43, 0
2,90989, Note_on_c, 0, 55, 0
2,91066, Control_c, 0, 64, 56
2,91091, Note_on_c, 0, 77, 86
2,91095, Note_on_c, 0, 76, 0
2,91215, Note_on_c, 0, 74, 79
2,91223, Note_on_c, 0, 48, 82
2,91262, Note_on_c, 0, 77, 0
2,91329, Note_on_c, 0, 48, 0
2,91332, Control_c, 0, 64, 57
2,91340, Note_on_c, 0, 76, 81
2,91363, Control_c, 0, 64, 57
2,91365, Note_on_c, 0, 74, 0
2,91408, Control_c, 0, 64, 58
2,91439, Control_c, 0, 64, 58
2,91470, Note_on_c, 0, 77, 86
2,91473, Note_on_c, 0, 50, 74
2,91510, Note_on_c, 0, 76, 0
2,91578, Note_on_c, 0, 50, 0
2,91590, Note_on_c, 0, 52, 67
2,91606, Note_on_c, 0, 77, 0
2,91607, Control_c, 0, 64, 58
2,91636, Control_c, 0, 64, 57
2,91667, Control_c, 0, 64, 57
2,91698, Control_c, 0, 64, 56
2,91698, Note_on_c, 0, 52, 0
2,91727, Note_on_c, 0, 48, 71
2,91730, Note_on_c, 0, 76, 76
2,91774, Note_on_c, 0, 72, 0
2,91838, Note_on_c, 0, 50, 75
2,91850, Control_c, 0, 64, 56
2,91859, Note_on_c, 0, 76, 0
2,91862, Note_on_c, 0, 48, 0
2,91865, Control_c, 0, 64, 55
2,91881, Control_c, 0, 64, 54
2,91896, Control_c, 0, 64, 54
2,91910, Control_c, 0, 64, 53
2,91926, Control_c, 0, 64, 52
2,91963, Note_on_c, 0, 52, 78
2,91963, Note_on_c, 0, 71, 75
2,91966, Note_on_c, 0, 74, 72
2,91986, Control_c, 0, 64, 54
2,91993, Note_on_c, 0, 50, 0
2,92002, Control_c, 0, 64, 57
2,92024, Control_c, 0, 64, 60
2,92030, Note_on_c, 0, 71, 0
2,92036, Note_on_c, 0, 74, 0
2,92040, Control_c, 0, 64, 62
2,92055, Control_c, 0, 64, 63
2,92070, Control_c, 0, 64, 63
2,92081, Note_on_c, 0, 53, 83
2,92092, Note_on_c, 0, 52, 0
2,92115, Control_c, 0, 64, 63
2,92131, Control_c, 0, 64, 62
2,92146, Control_c, 0, 64, 59
2,92162, Control_c, 0, 64, 55
2,92176, Control_c, 0, 64, 51
2,92191, Control_c, 0, 64, 49
2,92207, Control_c, 0, 64, 49
2,92211, Note_on_c, 0, 55, 81
2,92211, Note_on_c, 0, 79, 80
2,92220, Note_on_c, 0, 53, 0
2,92220, Note_on_c, 0, 70, 77
2,92225, Note_on_c, 0, 50, 72
2,92238, Control_c, 0, 64, 50
2,92252, Control_c, 0, 64, 54
2,92267, Control_c, 0, 64, 59
2,92281, Note_on_c, 0, 79, 0
2,92283, Control_c, 0, 64, 63
2,92298, Control_c, 0, 64, 65
2,92313, Control_c, 0, 64, 68
2,92315, Note_on_c, 0, 70, 0
2,92318, Note_on_c, 0, 52, 77
2,92330, Control_c, 0, 64, 72
2,92344, Control_c, 0, 64, 75
2,92345, Note_on_c, 0, 55, 0
2,92360, Control_c, 0, 64, 76
2,92364, Note_on_c, 0, 50, 0
2,92375, Control_c, 0, 64, 74
2,92390, Control_c, 0, 64, 72
2,92405, Control_c, 0, 64, 70
2,92420, Control_c, 0, 64, 67
2,92435, Control_c, 0, 64, 65
2,92451, Control_c, 0, 64, 61
2,92456, Note_on_c, 0, 53, 78
2,92466, Control_c, 0, 64, 57
2,92467, Note_on_c, 0, 72, 74
2,92475, Note_on_c, 0, 69, 68
2,92481, Control_c, 0, 64, 52
2,92483, Note_on_c, 0, 57, 73
2,92496, Control_c, 0, 64, 49
2,92500, Note_on_c, 0, 52, 0
2,92511, Control_c, 0, 64, 47
2,92527, Control_c, 0, 64, 46
2,92542, Control_c, 0, 64, 44
2,92556, Control_c, 0, 64, 42
2,92559, Note_on_c, 0, 72, 0
2,92572, Control_c, 0, 64, 40
2,92581, Note_on_c, 0, 71, 76
2,92583, Note_on_c, 0, 59, 80
2,92584, Note_on_c, 0, 57, 0
2,92587, Control_c, 0, 64, 40
2,92595, Note_on_c, 0, 69, 0
2,92694, Control_c, 0, 64, 39
2,92706, Note_on_c, 0, 74, 75
2,92712, Note_on_c, 0, 71, 0
2,92716, Note_on_c, 0, 59, 0
2,92723, Note_on_c, 0, 55, 73
2,92725, Note_on_c, 0, 52, 63
2,92738, Note_on_c, 0, 53, 0
2,92754, Control_c, 0, 64, 39
2,92822, Control_c, 0, 64, 38
2,92822, Note_on_c, 0, 55, 0
2,92825, Note_on_c, 0, 72, 80
2,92831, Note_on_c, 0, 57, 80
2,92853, Control_c, 0, 64, 38
2,92884, Control_c, 0, 64, 36
2,92899, Control_c, 0, 64, 31
2,92913, Control_c, 0, 64, 23
2,92923, Note_on_c, 0, 57, 0
2,92929, Control_c, 0, 64, 12
2,92944, Control_c, 0, 64, 0
2,92954, Note_on_c, 0, 71, 77
2,92965, Note_on_c, 0, 50, 67
2,92971, Note_on_c, 0, 59, 70
2,93003, Note_on_c, 0, 52, 0
2,93047, Note_on_c, 0, 50, 0
2,93069, Note_on_c, 0, 60, 82
2,93071, Note_on_c, 0, 69, 79
2,93071, Note_on_c, 0, 74, 0
2,93085, Note_on_c, 0, 59, 0
2,93110, Note_on_c, 0, 71, 0
2,93122, Note_on_c, 0, 72, 0
2,93189, Note_on_c, 0, 69, 0
2,93198, Note_on_c, 0, 67, 71
2,93202, Note_on_c, 0, 57, 72
2,93207, Note_on_c, 0, 60, 0
2,93210, Note_on_c, 0, 55, 61
2,93280, Control_c, 0, 64, 35
2,93281, Note_on_c, 0, 67, 0
2,93295, Control_c, 0, 64, 46
2,93295, Note_on_c, 0, 55, 0
2,93296, Note_on_c, 0, 57, 0
2,93304, Note_on_c, 0, 59, 69
2,93308, Note_on_c, 0, 65, 72
2,93310, Control_c, 0, 64, 51
2,93325, Control_c, 0, 64, 53
2,93333, Note_on_c, 0, 59, 0
2,93386, Control_c, 0, 64, 51
2,93401, Control_c, 0, 64, 47
2,93416, Control_c, 0, 64, 42
2,93431, Control_c, 0, 64, 37
2,93446, Control_c, 0, 64, 34
2,93448, Note_on_c, 0, 65, 0
2,93456, Note_on_c, 0, 64, 68
2,93458, Note_on_c, 0, 60, 77
2,93461, Note_on_c, 0, 48, 66
2,93492, Control_c, 0, 64, 38
2,93507, Control_c, 0, 64, 47
2,93523, Control_c, 0, 64, 55
2,93538, Control_c, 0, 64, 60
2,93561, Control_c, 0, 64, 64
2,93569, Note_on_c, 0, 48, 0
2,93576, Control_c, 0, 64, 69
2,93576, Note_on_c, 0, 60, 0
2,93591, Control_c, 0, 64, 75
2,93606, Control_c, 0, 64, 84
2,93621, Control_c, 0, 64, 92
2,93636, Control_c, 0, 64, 95
2,93651, Control_c, 0, 64, 92
2,93666, Control_c, 0, 64, 85
2,93682, Control_c, 0, 64, 77
2,93694, Note_on_c, 0, 64, 0
2,93697, Control_c, 0, 64, 70
2,93712, Control_c, 0, 64, 65
2,93721, Note_on_c, 0, 65, 65
2,93723, Note_on_c, 0, 50, 65
2,93728, Control_c, 0, 64, 60
2,93730, Note_on_c, 0, 59, 65
2,93742, Control_c, 0, 64, 54
2,93758, Control_c, 0, 64, 52
2,93773, Control_c, 0, 64, 51
2,93788, Control_c, 0, 64, 49
2,93804, Control_c, 0, 64, 48
2,93819, Control_c, 0, 64, 47
2,93831, Note_on_c, 0, 52, 68
2,93834, Control_c, 0, 64, 47
2,93836, Note_on_c, 0, 67, 73
2,93850, Note_on_c, 0, 65, 0
2,93862, Note_on_c, 0, 50, 0
2,93938, Note_on_c, 0, 67, 0
2,93963, Note_on_c, 0, 69, 71
2,93969, Note_on_c, 0, 57, 75
2,93972, Note_on_c, 0, 53, 75
2,93974, Note_on_c, 0, 59, 0
2,94012, Note_on_c, 0, 52, 0
2,94085, Note_on_c, 0, 69, 0
2,94092, Note_on_c, 0, 71, 70
2,94139, Control_c, 0, 64, 46
2,94154, Control_c, 0, 64, 46
2,94169, Control_c, 0, 64, 45
2,94184, Control_c, 0, 64, 44
2,94200, Control_c, 0, 64, 42
2,94215, Control_c, 0, 64, 40
2,94219, Note_on_c, 0, 71, 0
2,94225, Note_on_c, 0, 72, 68
2,94228, Note_on_c, 0, 62, 74
2,94229, Note_on_c, 0, 57, 0
2,94230, Control_c, 0, 64, 39
2,94245, Control_c, 0, 64, 38
2,94260, Control_c, 0, 64, 35
2,94275, Control_c, 0, 64, 31
2,94290, Control_c, 0, 64, 25
2,94305, Control_c, 0, 64, 21
2,94329, Control_c, 0, 64, 19
2,94344, Control_c, 0, 64, 17
2,94347, Note_on_c, 0, 72, 0
2,94355, Note_on_c, 0, 74, 64
2,94374, Control_c, 0, 64, 17
2,94389, Control_c, 0, 64, 16
2,94405, Control_c, 0, 64, 15
2,94420, Control_c, 0, 64, 13
2,94480, Note_on_c, 0, 55, 73
2,94481, Control_c, 0, 64, 16
2,94481, Note_on_c, 0, 62, 0
2,94487, Note_on_c, 0, 71, 67
2,94495, Note_on_c, 0, 74, 0
2,94496, Control_c, 0, 64, 28
2,94510, Control_c, 0, 64, 39
2,94526, Control_c, 0, 64, 49
2,94541, Control_c, 0, 64, 53
2,94556, Control_c, 0, 64, 55
2,94571, Control_c, 0, 64, 56
2,94586, Control_c, 0, 64, 57
2,94602, Note_on_c, 0, 64, 67
2,94607, Note_on_c, 0, 71, 0
2,94632, Control_c, 0, 64, 56
2,94648, Control_c, 0, 64, 53
2,94662, Control_c, 0, 64, 51
2,94678, Control_c, 0, 64, 48
2,94693, Control_c, 0, 64, 44
2,94708, Control_c, 0, 64, 41
2,94724, Control_c, 0, 64, 39
2,94729, Note_on_c, 0, 64, 0
2,94730, Note_on_c, 0, 60, 69
2,94731, Note_on_c, 0, 69, 71
2,94785, Control_c, 0, 64, 40
2,94801, Control_c, 0, 64, 43
2,94805, Note_on_c, 0, 60, 0
2,94816, Control_c, 0, 64, 49
2,94830, Control_c, 0, 64, 54
2,94832, Note_on_c, 0, 69, 0
2,94834, Note_on_c, 0, 67, 69
2,94836, Note_on_c, 0, 62, 74
2,94846, Control_c, 0, 64, 57
2,94861, Control_c, 0, 64, 60
2,94871, Note_on_c, 0, 62, 0
2,94876, Control_c, 0, 64, 62
2,94892, Control_c, 0, 64, 64
2,94896, Note_on_c, 0, 67, 0
2,94922, Control_c, 0, 64, 63
2,94936, Control_c, 0, 64, 62
2,94951, Control_c, 0, 64, 59
2,94967, Control_c, 0, 64, 57
2,94968, Note_on_c, 0, 52, 63
2,94968, Note_on_c, 0, 72, 79
2,94973, Note_on_c, 0, 64, 76
2,94982, Control_c, 0, 64, 53
2,94988, Note_on_c, 0, 53, 0
2,94998, Control_c, 0, 64, 48
2,94999, Note_on_c, 0, 55, 0
2,95012, Control_c, 0, 64, 45
2,95027, Control_c, 0, 64, 43
2,95043, Control_c, 0, 64, 43
2,95102, Note_on_c, 0, 65, 76
2,95111, Note_on_c, 0, 64, 0
2,95219, Note_on_c, 0, 57, 53
2,95228, Note_on_c, 0, 52, 0
2,95229, Note_on_c, 0, 62, 80
2,95230, Note_on_c, 0, 60, 64
2,95251, Note_on_c, 0, 65, 0
2,95262, Control_c, 0, 64, 42
2,95272, Note_on_c, 0, 57, 0
2,95278, Control_c, 0, 64, 41
2,95304, Note_on_c, 0, 60, 0
2,95308, Control_c, 0, 64, 41
2,95338, Control_c, 0, 64, 40
2,95340, Note_on_c, 0, 64, 74
2,95369, Control_c, 0, 64, 40
2,95374, Note_on_c, 0, 62, 0
2,95384, Control_c, 0, 64, 39
2,95415, Control_c, 0, 64, 39
2,95430, Control_c, 0, 64, 38
2,95446, Control_c, 0, 64, 38
2,95473, Note_on_c, 0, 65, 80
2,95490, Note_on_c, 0, 50, 62
2,95491, Note_on_c, 0, 62, 61
2,95506, Control_c, 0, 64, 38
2,95522, Control_c, 0, 64, 39
2,95531, Note_on_c, 0, 64, 0
2,95551, Control_c, 0, 64, 40
2,95573, Note_on_c, 0, 62, 0
2,95599, Control_c, 0, 64, 39
2,95602, Note_on_c, 0, 65, 0
2,95604, Note_on_c, 0, 53, 68
2,95614, Control_c, 0, 64, 38
2,95628, Control_c, 0, 64, 35
2,95639, Note_on_c, 0, 50, 0
2,95644, Control_c, 0, 64, 31
2,95659, Control_c, 0, 64, 30
2,95703, Control_c, 0, 64, 31
2,95719, Control_c, 0, 64, 39
2,95734, Control_c, 0, 64, 49
2,95738, Note_on_c, 0, 64, 74
2,95745, Note_on_c, 0, 53, 0
2,95746, Note_on_c, 0, 55, 69
2,95749, Control_c, 0, 64, 56
2,95758, Note_on_c, 0, 52, 62
2,95765, Control_c, 0, 64, 60
2,95779, Control_c, 0, 64, 63
2,95786, Note_on_c, 0, 72, 0
2,95794, Control_c, 0, 64, 65
2,95810, Control_c, 0, 64, 67
2,95815, Note_on_c, 0, 64, 0
2,95825, Control_c, 0, 64, 69
2,95836, Note_on_c, 0, 55, 0
2,95843, Note_on_c, 0, 57, 67
2,95863, Control_c, 0, 64, 68
2,95866, Note_on_c, 0, 52, 0
2,95871, Note_on_c, 0, 53, 73
2,95878, Note_on_c, 0, 57, 0
2,95879, Control_c, 0, 64, 67
2,95894, Control_c, 0, 64, 66
2,95908, Control_c, 0, 64, 65
2,95924, Control_c, 0, 64, 64
2,95939, Control_c, 0, 64, 61
2,95954, Control_c, 0, 64, 57
2,95970, Control_c, 0, 64, 52
2,95984, Control_c, 0, 64, 44
2,95986, Note_on_c, 0, 53, 0
2,96000, Control_c, 0, 64, 37
2,96006, Note_on_c, 0, 71, 71
2,96008, Note_on_c, 0, 55, 62
2,96015, Control_c, 0, 64, 32
2,96020, Note_on_c, 0, 62, 61
2,96024, Note_on_c, 0, 59, 47
2,96030, Control_c, 0, 64, 29
2,96046, Control_c, 0, 64, 24
2,96049, Note_on_c, 0, 55, 0
2,96052, Note_on_c, 0, 59, 0
2,96060, Control_c, 0, 64, 19
2,96075, Control_c, 0, 64, 9
2,96091, Control_c, 0, 64, 0
2,96099, Note_on_c, 0, 62, 0
2,96127, Note_on_c, 0, 60, 59
2,96176, Note_on_c, 0, 71, 0
2,96228, Control_c, 0, 64, 28
2,96234, Note_on_c, 0, 60, 0
2,96244, Control_c, 0, 64, 45
2,96257, Note_on_c, 0, 67, 57
2,96258, Control_c, 0, 64, 54
2,96258, Note_on_c, 0, 43, 47
2,96258, Note_on_c, 0, 62, 48
2,96273, Control_c, 0, 64, 58
2,96289, Control_c, 0, 64, 61
2,96295, Note_on_c, 0, 62, 0
2,96297, Note_on_c, 0, 43, 0
2,96304, Control_c, 0, 64, 62
2,96319, Control_c, 0, 64, 63
2,96332, Note_on_c, 0, 67, 0
2,96365, Control_c, 0, 64, 62
2,96380, Control_c, 0, 64, 60
2,96394, Control_c, 0, 64, 57
2,96411, Control_c, 0, 64, 52
2,96426, Control_c, 0, 64, 45
2,96442, Control_c, 0, 64, 33
2,96457, Control_c, 0, 64, 17
2,96472, Control_c, 0, 64, 11
2,96502, Control_c, 0, 64, 12
2,96505, Note_on_c, 0, 64, 61
2,96508, Note_on_c, 0, 48, 49
2,96509, Note_on_c, 0, 55, 49
2,96518, Control_c, 0, 64, 30
2,96519, Note_on_c, 0, 72, 60
2,96533, Control_c, 0, 64, 48
2,96543, Note_on_c, 0, 48, 0
2,96547, Control_c, 0, 64, 57
2,96563, Control_c, 0, 64, 62
2,96565, Note_on_c, 0, 55, 0
2,96578, Control_c, 0, 64, 65
2,96589, Note_on_c, 0, 64, 0
2,96593, Control_c, 0, 64, 70
2,96609, Control_c, 0, 64, 77
2,96615, Note_on_c, 0, 72, 0
2,96631, Control_c, 0, 64, 83
2,96647, Control_c, 0, 64, 81
2,96659, Note_on_c, 0, 65, 56
2,96662, Control_c, 0, 64, 76
2,96678, Control_c, 0, 64, 70
2,96693, Control_c, 0, 64, 65
2,96693, Note_on_c, 0, 65, 0
2,96707, Control_c, 0, 64, 60
2,96723, Control_c, 0, 64, 55
2,96738, Control_c, 0, 64, 52
2,96752, Control_c, 0, 64, 50
2,96768, Control_c, 0, 64, 47
2,96783, Control_c, 0, 64, 43
2,96799, Control_c, 0, 64, 39
2,96812, Note_on_c, 0, 64, 54
2,96814, Control_c, 0, 64, 37
2,96828, Control_c, 0, 64, 36
2,96829, Note_on_c, 0, 76, 12
2,96844, Control_c, 0, 64, 36
2,96852, Note_on_c, 0, 74, 14
2,96859, Control_c, 0, 64, 35
2,96872, Note_on_c, 0, 74, 0
2,96874, Control_c, 0, 64, 34
2,96890, Control_c, 0, 64, 34
2,96904, Control_c, 0, 64, 33
2,96906, Note_on_c, 0, 76, 0
2,96910, Note_on_c, 0, 64, 0
2,96925, Note_on_c, 0, 77, 59
2,96937, Note_on_c, 0, 62, 46
2,97041, Note_on_c, 0, 62, 0
2,97051, Note_on_c, 0, 76, 62
2,97059, Note_on_c, 0, 77, 0
2,97062, Note_on_c, 0, 60, 58
2,97118, Control_c, 0, 64, 34
2,97133, Control_c, 0, 64, 34
2,97134, Note_on_c, 0, 60, 0
2,97148, Control_c, 0, 64, 35
2,97151, Note_on_c, 0, 76, 0
2,97172, Note_on_c, 0, 59, 59
2,97178, Control_c, 0, 64, 36
2,97255, Control_c, 0, 64, 36
2,97286, Control_c, 0, 64, 38
2,97289, Note_on_c, 0, 59, 0
2,97301, Control_c, 0, 64, 39
2,97316, Control_c, 0, 64, 40
2,97316, Note_on_c, 0, 57, 55
2,97318, Note_on_c, 0, 74, 65
2,97326, Note_on_c, 0, 52, 40
2,97332, Control_c, 0, 64, 42
2,97347, Control_c, 0, 64, 43
2,97363, Control_c, 0, 64, 43
2,97378, Control_c, 0, 64, 44
2,97398, Note_on_c, 0, 52, 0
2,97414, Note_on_c, 0, 74, 0
2,97424, Note_on_c, 0, 56, 66
2,97432, Note_on_c, 0, 57, 0
2,97457, Note_on_c, 0, 56, 0
2,97475, Control_c, 0, 64, 42
2,97491, Control_c, 0, 64, 40
2,97506, Control_c, 0, 64, 38
2,97551, Control_c, 0, 64, 38
2,97567, Control_c, 0, 64, 44
2,97572, Note_on_c, 0, 72, 75
2,97575, Note_on_c, 0, 45, 49
2,97579, Note_on_c, 0, 57, 77
2,97582, Control_c, 0, 64, 53
2,97598, Control_c, 0, 64, 58
2,97604, Note_on_c, 0, 45, 0
2,97613, Control_c, 0, 64, 61
2,97628, Control_c, 0, 64, 62
2,97631, Note_on_c, 0, 72, 0
2,97644, Control_c, 0, 64, 63
2,97687, Note_on_c, 0, 57, 0
2,97689, Control_c, 0, 64, 61
2,97693, Note_on_c, 0, 58, 75
2,97704, Control_c, 0, 64, 60
2,97720, Control_c, 0, 64, 58
2,97735, Control_c, 0, 64, 55
2,97749, Control_c, 0, 64, 53
2,97765, Control_c, 0, 64, 51
2,97780, Control_c, 0, 64, 49
2,97795, Control_c, 0, 64, 47
2,97806, Note_on_c, 0, 58, 0
2,97810, Control_c, 0, 64, 45
2,97816, Note_on_c, 0, 73, 72
2,97817, Note_on_c, 0, 57, 68
2,97824, Note_on_c, 0, 69, 72
2,97825, Control_c, 0, 64, 42
2,97841, Control_c, 0, 64, 40
2,97856, Control_c, 0, 64, 39
2,97871, Control_c, 0, 64, 38
2,97926, Note_on_c, 0, 70, 78
2,97935, Note_on_c, 0, 69, 0
2,97936, Note_on_c, 0, 55, 75
2,97940, Note_on_c, 0, 57, 0
2,97992, Control_c, 0, 64, 38
2,98047, Note_on_c, 0, 55, 0
2,98062, Note_on_c, 0, 74, 82
2,98068, Note_on_c, 0, 69, 75
2,98074, Note_on_c, 0, 53, 76
2,98108, Note_on_c, 0, 73, 0
2,98111, Note_on_c, 0, 70, 0
2,98194, Note_on_c, 0, 52, 73
2,98196, Note_on_c, 0, 69, 0
2,98206, Note_on_c, 0, 53, 0
2,98209, Note_on_c, 0, 74, 0
2,98274, Control_c, 0, 64, 37
2,98290, Control_c, 0, 64, 36
2,98305, Control_c, 0, 64, 36
2,98330, Note_on_c, 0, 76, 73
2,98333, Note_on_c, 0, 50, 80
2,98334, Note_on_c, 0, 67, 73
2,98351, Note_on_c, 0, 52, 0
2,98444, Note_on_c, 0, 49, 75
2,98447, Note_on_c, 0, 67, 0
2,98448, Note_on_c, 0, 76, 0
2,98463, Note_on_c, 0, 50, 0
2,98472, Control_c, 0, 64, 34
2,98488, Control_c, 0, 64, 30
2,98503, Control_c, 0, 64, 27
2,98518, Control_c, 0, 64, 25
2,98578, Control_c, 0, 64, 29
2,98589, Note_on_c, 0, 50, 79
2,98589, Note_on_c, 0, 69, 76
2,98593, Control_c, 0, 64, 38
2,98599, Note_on_c, 0, 65, 67
2,98609, Control_c, 0, 64, 47
2,98616, Note_on_c, 0, 49, 0
2,98624, Control_c, 0, 64, 54
2,98640, Control_c, 0, 64, 58
2,98654, Control_c, 0, 64, 61
2,98659, Note_on_c, 0, 65, 0
2,98669, Control_c, 0, 64, 64
2,98685, Control_c, 0, 64, 65
2,98698, Note_on_c, 0, 69, 0
2,98700, Control_c, 0, 64, 66
2,98715, Control_c, 0, 64, 65
2,98730, Control_c, 0, 64, 64
2,98745, Control_c, 0, 64, 63
2,98761, Control_c, 0, 64, 61
2,98775, Control_c, 0, 64, 60
2,98790, Control_c, 0, 64, 59
2,98806, Control_c, 0, 64, 57
2,98821, Control_c, 0, 64, 56
2,98836, Control_c, 0, 64, 56
2,98851, Control_c, 0, 64, 55
2,98857, Note_on_c, 0, 65, 69
2,98858, Note_on_c, 0, 57, 81
2,98863, Note_on_c, 0, 74, 76
2,98867, Control_c, 0, 64, 54
2,98883, Control_c, 0, 64, 53
2,98888, Note_on_c, 0, 65, 0
2,98898, Control_c, 0, 64, 52
2,98913, Control_c, 0, 64, 51
2,98937, Control_c, 0, 64, 50
2,98951, Control_c, 0, 64, 49
2,98965, Note_on_c, 0, 74, 0
2,98967, Control_c, 0, 64, 47
2,98974, Note_on_c, 0, 67, 81
2,98974, Note_on_c, 0, 76, 72
2,98977, Note_on_c, 0, 58, 83
2,98982, Control_c, 0, 64, 46
2,98998, Control_c, 0, 64, 45
2,99012, Control_c, 0, 64, 45
2,99013, Note_on_c, 0, 57, 0
2,99027, Control_c, 0, 64, 44
2,99046, Note_on_c, 0, 76, 0
2,99073, Control_c, 0, 64, 44
2,99103, Note_on_c, 0, 74, 65
2,99111, Note_on_c, 0, 57, 85
2,99114, Note_on_c, 0, 65, 80
2,99119, Control_c, 0, 64, 43
2,99122, Note_on_c, 0, 67, 0
2,99146, Note_on_c, 0, 58, 0
2,99225, Note_on_c, 0, 65, 0
2,99247, Note_on_c, 0, 74, 0
2,99254, Note_on_c, 0, 57, 0
2,99270, Control_c, 0, 64, 44
2,99286, Control_c, 0, 64, 44
2,99315, Control_c, 0, 64, 45
2,99331, Control_c, 0, 64, 46
2,99346, Control_c, 0, 64, 47
2,99362, Control_c, 0, 64, 49
2,99377, Control_c, 0, 64, 51
2,99379, Note_on_c, 0, 72, 77
2,99380, Note_on_c, 0, 55, 77
2,99380, Note_on_c, 0, 64, 74
2,99392, Control_c, 0, 64, 53
2,99408, Control_c, 0, 64, 54
2,99476, Note_on_c, 0, 64, 0
2,99476, Note_on_c, 0, 72, 0
2,99498, Control_c, 0, 64, 54
2,99499, Note_on_c, 0, 55, 0
2,99513, Control_c, 0, 64, 53
2,99529, Control_c, 0, 64, 53
2,99560, Control_c, 0, 64, 52
2,99574, Control_c, 0, 64, 52
2,99605, Control_c, 0, 64, 51
2,99651, Note_on_c, 0, 71, 70
2,99652, Note_on_c, 0, 53, 77
2,99652, Note_on_c, 0, 62, 68
2,99665, Control_c, 0, 64, 52
2,99681, Control_c, 0, 64, 55
2,99695, Note_on_c, 0, 62, 0
2,99704, Control_c, 0, 64, 57
2,99720, Control_c, 0, 64, 60
2,99721, Note_on_c, 0, 71, 0
2,99735, Control_c, 0, 64, 62
2,99750, Control_c, 0, 64, 63
2,99766, Control_c, 0, 64, 64
2,99776, Note_on_c, 0, 64, 73
2,99777, Note_on_c, 0, 72, 78
2,99781, Control_c, 0, 64, 65
2,99784, Note_on_c, 0, 53, 0
2,99811, Control_c, 0, 64, 64
2,99822, Note_on_c, 0, 64, 0
2,99826, Control_c, 0, 64, 63
2,99842, Control_c, 0, 64, 61
2,99856, Control_c, 0, 64, 59
2,99871, Control_c, 0, 64, 55
2,99881, Note_on_c, 0, 72, 0
2,99887, Control_c, 0, 64, 52
2,99902, Control_c, 0, 64, 51
2,99909, Note_on_c, 0, 74, 75
2,99912, Note_on_c, 0, 65, 72
2,99918, Control_c, 0, 64, 50
2,99920, Note_on_c, 0, 53, 77
2,99932, Control_c, 0, 64, 49
2,99945, Note_on_c, 0, 65, 0
2,99947, Control_c, 0, 64, 48
2,99963, Control_c, 0, 64, 47
2,99978, Control_c, 0, 64, 46
2,99998, Note_on_c, 0, 74, 0
2,100013, Note_on_c, 0, 72, 73
2,100026, Note_on_c, 0, 55, 83
2,100026, Note_on_c, 0, 64, 71
2,100039, Control_c, 0, 64, 46
2,100041, Note_on_c, 0, 53, 0
2,100084, Control_c, 0, 64, 45
2,100090, Note_on_c, 0, 64, 0
2,100099, Control_c, 0, 64, 45
2,100114, Control_c, 0, 64, 44
2,100129, Control_c, 0, 64, 43
2,100150, Note_on_c, 0, 71, 77
2,100164, Note_on_c, 0, 53, 84
2,100167, Note_on_c, 0, 62, 73
2,100175, Control_c, 0, 64, 43
2,100201, Note_on_c, 0, 55, 0
2,100218, Note_on_c, 0, 72, 0
2,100236, Control_c, 0, 64, 42
2,100272, Note_on_c, 0, 62, 0
2,100302, Note_on_c, 0, 53, 0
2,100322, Note_on_c, 0, 71, 0
2,100403, Control_c, 0, 64, 43
2,100417, Control_c, 0, 64, 44
2,100429, Note_on_c, 0, 52, 78
2,100431, Note_on_c, 0, 69, 83
2,100432, Control_c, 0, 64, 45
2,100435, Note_on_c, 0, 60, 79
2,100448, Control_c, 0, 64, 46
2,100470, Control_c, 0, 64, 47
2,100486, Control_c, 0, 64, 48
2,100501, Control_c, 0, 64, 48
2,100518, Control_c, 0, 64, 49
2,100518, Note_on_c, 0, 60, 0
2,100520, Note_on_c, 0, 50, 0
2,100548, Control_c, 0, 64, 50
2,100551, Note_on_c, 0, 69, 0
2,100556, Note_on_c, 0, 52, 0
2,100685, Control_c, 0, 64, 49
2,100699, Control_c, 0, 64, 49
2,100706, Note_on_c, 0, 71, 82
2,100713, Note_on_c, 0, 53, 58
2,100714, Control_c, 0, 64, 48
2,100718, Note_on_c, 0, 50, 54
2,100730, Control_c, 0, 64, 47
2,100733, Note_on_c, 0, 67, 66
2,100745, Control_c, 0, 64, 47
2,100761, Control_c, 0, 64, 46
2,100775, Control_c, 0, 64, 45
2,100790, Control_c, 0, 64, 45
2,100806, Note_on_c, 0, 53, 0
2,100812, Note_on_c, 0, 50, 0
2,100816, Note_on_c, 0, 52, 64
2,100866, Control_c, 0, 64, 44
2,100886, Note_on_c, 0, 71, 0
2,100897, Control_c, 0, 64, 44
2,100911, Control_c, 0, 64, 43
2,100927, Control_c, 0, 64, 39
2,100942, Control_c, 0, 64, 34
2,100958, Control_c, 0, 64, 28
2,100964, Note_on_c, 0, 52, 0
2,100964, Note_on_c, 0, 53, 61
2,100967, Note_on_c, 0, 74, 71
2,100973, Control_c, 0, 64, 26
2,101019, Control_c, 0, 64, 26
2,101034, Control_c, 0, 64, 31
2,101050, Control_c, 0, 64, 39
2,101065, Control_c, 0, 64, 46
2,101080, Control_c, 0, 64, 51
2,101083, Note_on_c, 0, 52, 61
2,101095, Control_c, 0, 64, 54
2,101110, Control_c, 0, 64, 56
2,101126, Control_c, 0, 64, 58
2,101141, Control_c, 0, 64, 60
2,101144, Note_on_c, 0, 74, 0
2,101156, Control_c, 0, 64, 61
2,101171, Control_c, 0, 64, 62
2,101186, Control_c, 0, 64, 62
2,101195, Note_on_c, 0, 67, 0
2,101217, Control_c, 0, 64, 62
2,101223, Note_on_c, 0, 52, 0
2,101239, Control_c, 0, 64, 61
2,101240, Note_on_c, 0, 50, 65
2,101254, Control_c, 0, 64, 60
2,101269, Control_c, 0, 64, 58
2,101285, Control_c, 0, 64, 56
2,101300, Control_c, 0, 64, 54
2,101315, Control_c, 0, 64, 52
2,101322, Note_on_c, 0, 50, 0
2,101331, Control_c, 0, 64, 50
2,101346, Control_c, 0, 64, 47
2,101362, Control_c, 0, 64, 45
2,101377, Control_c, 0, 64, 42
2,101392, Control_c, 0, 64, 40
2,101408, Control_c, 0, 64, 39
2,101468, Control_c, 0, 64, 41
2,101484, Control_c, 0, 64, 44
2,101499, Control_c, 0, 64, 50
2,101503, Note_on_c, 0, 69, 68
2,101505, Note_on_c, 0, 48, 66
2,101514, Control_c, 0, 64, 54
2,101527, Note_on_c, 0, 53, 0
2,101530, Control_c, 0, 64, 58
2,101544, Control_c, 0, 64, 61
2,101560, Control_c, 0, 64, 63
2,101575, Control_c, 0, 64, 66
2,101590, Control_c, 0, 64, 70
2,101606, Control_c, 0, 64, 74
2,101620, Control_c, 0, 64, 76
2,101635, Control_c, 0, 64, 75
2,101651, Control_c, 0, 64, 73
2,101666, Control_c, 0, 64, 70
2,101682, Control_c, 0, 64, 68
2,101696, Control_c, 0, 64, 66
2,101711, Control_c, 0, 64, 65
2,101727, Control_c, 0, 64, 64
2,101741, Control_c, 0, 64, 63
2,101746, Note_on_c, 0, 59, 79
2,101752, Note_on_c, 0, 67, 73
2,101756, Control_c, 0, 64, 62
2,101772, Control_c, 0, 64, 60
2,101772, Note_on_c, 0, 53, 60
2,101787, Control_c, 0, 64, 58
2,101802, Note_on_c, 0, 69, 0
2,101803, Control_c, 0, 64, 56
2,101817, Control_c, 0, 64, 56
2,101832, Note_on_c, 0, 59, 0
2,101848, Control_c, 0, 64, 55
2,101853, Note_on_c, 0, 53, 0
2,101871, Note_on_c, 0, 55, 50
2,101871, Note_on_c, 0, 65, 67
2,101878, Control_c, 0, 64, 54
2,101905, Note_on_c, 0, 67, 0
2,101970, Control_c, 0, 64, 54
2,102013, Note_on_c, 0, 65, 0
2,102015, Note_on_c, 0, 55, 0
2,102023, Control_c, 0, 64, 53
2,102023, Note_on_c, 0, 62, 69
2,102025, Note_on_c, 0, 53, 60
2,102032, Note_on_c, 0, 69, 63
2,102033, Note_on_c, 0, 48, 0
2,102142, Note_on_c, 0, 67, 62
2,102144, Note_on_c, 0, 69, 0
2,102163, Note_on_c, 0, 52, 53
2,102165, Note_on_c, 0, 53, 0
2,102206, Control_c, 0, 64, 54
2,102221, Control_c, 0, 64, 54
2,102236, Control_c, 0, 64, 55
2,102252, Control_c, 0, 64, 55
2,102266, Control_c, 0, 64, 56
2,102282, Control_c, 0, 64, 56
2,102290, Note_on_c, 0, 67, 0
2,102297, Control_c, 0, 64, 57
2,102310, Note_on_c, 0, 65, 42
2,102311, Note_on_c, 0, 50, 66
2,102312, Control_c, 0, 64, 57
2,102314, Note_on_c, 0, 52, 0
2,102366, Note_on_c, 0, 65, 0
2,102374, Note_on_c, 0, 62, 0
2,102418, Note_on_c, 0, 64, 55
2,102464, Control_c, 0, 64, 57
2,102537, Note_on_c, 0, 64, 0
2,102547, Note_on_c, 0, 57, 70
2,102547, Note_on_c, 0, 67, 58
2,102662, Note_on_c, 0, 67, 0
2,102675, Note_on_c, 0, 65, 54
2,102820, Note_on_c, 0, 55, 66
2,102823, Note_on_c, 0, 64, 57
2,102838, Note_on_c, 0, 57, 0
2,102858, Note_on_c, 0, 65, 0
2,102885, Note_on_c, 0, 64, 0
2,102941, Note_on_c, 0, 53, 69
2,102963, Note_on_c, 0, 55, 0
2,103057, Note_on_c, 0, 48, 60
2,103066, Note_on_c, 0, 50, 0
2,103080, Note_on_c, 0, 57, 75
2,103081, Note_on_c, 0, 65, 66
2,103089, Note_on_c, 0, 53, 0
2,103189, Note_on_c, 0, 65, 0
2,103193, Note_on_c, 0, 55, 76
2,103202, Control_c, 0, 64, 56
2,103217, Control_c, 0, 64, 55
2,103220, Note_on_c, 0, 57, 0
2,103232, Control_c, 0, 64, 54
2,103248, Control_c, 0, 64, 53
2,103263, Control_c, 0, 64, 52
2,103279, Control_c, 0, 64, 51
2,103282, Note_on_c, 0, 48, 0
2,103294, Control_c, 0, 64, 51
2,103308, Control_c, 0, 64, 50
2,103326, Note_on_c, 0, 53, 81
2,103327, Note_on_c, 0, 67, 73
2,103353, Control_c, 0, 64, 51
2,103356, Note_on_c, 0, 55, 0
2,103369, Control_c, 0, 64, 53
2,103384, Control_c, 0, 64, 55
2,103400, Control_c, 0, 64, 57
2,103415, Control_c, 0, 64, 58
2,103428, Note_on_c, 0, 52, 79
2,103429, Control_c, 0, 64, 59
2,103445, Note_on_c, 0, 53, 0
2,103459, Note_on_c, 0, 67, 0
2,103475, Control_c, 0, 64, 59
2,103491, Control_c, 0, 64, 57
2,103505, Control_c, 0, 64, 54
2,103521, Control_c, 0, 64, 51
2,103544, Control_c, 0, 64, 48
2,103560, Control_c, 0, 64, 47
2,103566, Note_on_c, 0, 52, 0
2,103569, Note_on_c, 0, 47, 72
2,103580, Note_on_c, 0, 62, 72
2,103582, Note_on_c, 0, 55, 84
2,103605, Control_c, 0, 64, 50
2,103620, Control_c, 0, 64, 54
2,103625, Note_on_c, 0, 62, 0
2,103635, Control_c, 0, 64, 59
2,103650, Control_c, 0, 64, 62
2,103665, Control_c, 0, 64, 63
2,103673, Note_on_c, 0, 47, 0
2,103681, Control_c, 0, 64, 64
2,103682, Note_on_c, 0, 53, 83
2,103696, Control_c, 0, 64, 66
2,103702, Note_on_c, 0, 55, 0
2,103741, Control_c, 0, 64, 65
2,103756, Control_c, 0, 64, 64
2,103771, Control_c, 0, 64, 62
2,103787, Control_c, 0, 64, 60
2,103803, Control_c, 0, 64, 56
2,103818, Control_c, 0, 64, 52
2,103827, Note_on_c, 0, 69, 78
2,103831, Note_on_c, 0, 52, 80
2,103833, Control_c, 0, 64, 47
2,103834, Note_on_c, 0, 48, 74
2,103849, Control_c, 0, 64, 43
2,103856, Note_on_c, 0, 53, 0
2,103863, Control_c, 0, 64, 39
2,103879, Control_c, 0, 64, 39
2,103895, Note_on_c, 0, 69, 0
2,103909, Control_c, 0, 64, 40
2,103913, Note_on_c, 0, 48, 0
2,103914, Note_on_c, 0, 52, 0
2,103925, Control_c, 0, 64, 45
2,103939, Control_c, 0, 64, 50
2,103951, Note_on_c, 0, 71, 81
2,103954, Control_c, 0, 64, 53
2,103970, Control_c, 0, 64, 54
2,104000, Control_c, 0, 64, 52
2,104015, Control_c, 0, 64, 48
2,104030, Control_c, 0, 64, 44
2,104046, Control_c, 0, 64, 40
2,104086, Note_on_c, 0, 53, 75
2,104086, Note_on_c, 0, 69, 80
2,104092, Control_c, 0, 64, 43
2,104096, Note_on_c, 0, 50, 65
2,104099, Note_on_c, 0, 71, 0
2,104107, Control_c, 0, 64, 49
2,104122, Control_c, 0, 64, 56
2,104137, Control_c, 0, 64, 60
2,104142, Note_on_c, 0, 53, 0
2,104151, Control_c, 0, 64, 63
2,104153, Note_on_c, 0, 50, 0
2,104167, Control_c, 0, 64, 66
2,104182, Control_c, 0, 64, 70
2,104196, Control_c, 0, 64, 77
2,104199, Note_on_c, 0, 71, 84
2,104211, Note_on_c, 0, 69, 0
2,104212, Control_c, 0, 64, 84
2,104227, Control_c, 0, 64, 89
2,104243, Control_c, 0, 64, 88
2,104258, Control_c, 0, 64, 81
2,104272, Control_c, 0, 64, 72
2,104288, Control_c, 0, 64, 65
2,104306, Note_on_c, 0, 71, 0
2,104311, Control_c, 0, 64, 56
2,104327, Control_c, 0, 64, 50
2,104340, Note_on_c, 0, 72, 72
2,104344, Note_on_c, 0, 43, 68
2,104352, Note_on_c, 0, 55, 74
2,104372, Control_c, 0, 64, 51
2,104387, Control_c, 0, 64, 54
2,104403, Control_c, 0, 64, 57
2,104415, Note_on_c, 0, 72, 0
2,104416, Note_on_c, 0, 71, 74
2,104417, Control_c, 0, 64, 60
2,104432, Control_c, 0, 64, 61
2,104448, Control_c, 0, 64, 62
2,104457, Note_on_c, 0, 71, 0
2,104477, Note_on_c, 0, 72, 69
2,104508, Control_c, 0, 64, 61
2,104524, Control_c, 0, 64, 60
2,104530, Note_on_c, 0, 71, 76
2,104535, Note_on_c, 0, 72, 0
2,104538, Control_c, 0, 64, 58
2,104553, Control_c, 0, 64, 57
2,104569, Control_c, 0, 64, 56
2,104582, Note_on_c, 0, 71, 0
2,104592, Note_on_c, 0, 72, 75
2,104608, Note_on_c, 0, 50, 69
2,104624, Note_on_c, 0, 55, 0
2,104659, Note_on_c, 0, 71, 72
2,104691, Note_on_c, 0, 72, 0
2,104711, Note_on_c, 0, 69, 77
2,104712, Note_on_c, 0, 71, 0
2,104715, Note_on_c, 0, 43, 0
2,104722, Control_c, 0, 64, 57
2,104774, Note_on_c, 0, 71, 80
2,104787, Note_on_c, 0, 69, 0
2,104844, Note_on_c, 0, 50, 0
2,104846, Note_on_c, 0, 72, 83
2,104847, Note_on_c, 0, 57, 82
2,104868, Note_on_c, 0, 71, 0
2,104983, Note_on_c, 0, 74, 80
2,104987, Note_on_c, 0, 59, 85
2,104994, Note_on_c, 0, 57, 0
2,105008, Note_on_c, 0, 72, 0
2,105057, Control_c, 0, 64, 56
2,105095, Control_c, 0, 64, 56
2,105103, Note_on_c, 0, 74, 0
2,105107, Note_on_c, 0, 72, 89
2,105110, Control_c, 0, 64, 55
2,105110, Note_on_c, 0, 57, 83
2,105121, Note_on_c, 0, 59, 0
2,105125, Control_c, 0, 64, 54
2,105140, Control_c, 0, 64, 52
2,105155, Control_c, 0, 64, 50
2,105171, Control_c, 0, 64, 47
2,105186, Control_c, 0, 64, 43
2,105200, Note_on_c, 0, 57, 0
2,105202, Control_c, 0, 64, 38
2,105216, Note_on_c, 0, 74, 82
2,105217, Control_c, 0, 64, 32
2,105218, Note_on_c, 0, 59, 82
2,105225, Note_on_c, 0, 72, 0
2,105231, Control_c, 0, 64, 30
2,105247, Control_c, 0, 64, 27
2,105262, Control_c, 0, 64, 26
2,105268, Note_on_c, 0, 59, 0
2,105277, Control_c, 0, 64, 26
2,105305, Note_on_c, 0, 74, 0
2,105338, Control_c, 0, 64, 29
2,105340, Note_on_c, 0, 76, 76
2,105353, Control_c, 0, 64, 36
2,105354, Note_on_c, 0, 55, 79
2,105360, Note_on_c, 0, 59, 80
2,105369, Control_c, 0, 64, 42
2,105383, Control_c, 0, 64, 46
2,105399, Control_c, 0, 64, 51
2,105412, Note_on_c, 0, 76, 0
2,105414, Control_c, 0, 64, 55
2,105416, Note_on_c, 0, 74, 71
2,105430, Control_c, 0, 64, 58
2,105446, Control_c, 0, 64, 60
2,105461, Control_c, 0, 64, 62
2,105462, Note_on_c, 0, 74, 0
2,105476, Control_c, 0, 64, 63
2,105476, Note_on_c, 0, 76, 74
2,105491, Control_c, 0, 64, 64
2,105506, Control_c, 0, 64, 65
2,105522, Control_c, 0, 64, 66
2,105537, Control_c, 0, 64, 67
2,105538, Note_on_c, 0, 76, 0
2,105542, Note_on_c, 0, 74, 74
2,105551, Control_c, 0, 64, 67
2,105568, Note_on_c, 0, 59, 0
2,105582, Control_c, 0, 64, 67
2,105587, Note_on_c, 0, 74, 0
2,105606, Note_on_c, 0, 53, 69
2,105606, Note_on_c, 0, 76, 77
2,105609, Note_on_c, 0, 55, 0
2,105612, Control_c, 0, 64, 66
2,105627, Control_c, 0, 64, 66
2,105643, Control_c, 0, 64, 65
2,105657, Control_c, 0, 64, 64
2,105672, Control_c, 0, 64, 63
2,105674, Note_on_c, 0, 74, 68
2,105688, Control_c, 0, 64, 63
2,105688, Note_on_c, 0, 76, 0
2,105693, Note_on_c, 0, 53, 0
2,105704, Note_on_c, 0, 57, 75
2,105709, Note_on_c, 0, 72, 81
2,105710, Note_on_c, 0, 74, 0
2,105717, Control_c, 0, 64, 62
2,105733, Control_c, 0, 64, 62
2,105748, Control_c, 0, 64, 61
2,105764, Control_c, 0, 64, 60
2,105776, Note_on_c, 0, 74, 80
2,105783, Note_on_c, 0, 57, 0
2,105783, Note_on_c, 0, 59, 81
2,105792, Note_on_c, 0, 72, 0
2,105809, Control_c, 0, 64, 60
2,105847, Control_c, 0, 64, 59
2,105862, Control_c, 0, 64, 58
2,105870, Note_on_c, 0, 52, 66
2,105870, Note_on_c, 0, 76, 85
2,105876, Note_on_c, 0, 60, 86
2,105877, Control_c, 0, 64, 57
2,105891, Note_on_c, 0, 59, 0
2,105892, Control_c, 0, 64, 57
2,105895, Note_on_c, 0, 74, 0
2,105907, Control_c, 0, 64, 56
2,105923, Control_c, 0, 64, 56
2,105938, Control_c, 0, 64, 55
2,105953, Control_c, 0, 64, 55
2,105969, Control_c, 0, 64, 54
2,105978, Note_on_c, 0, 52, 0
2,105984, Control_c, 0, 64, 54
2,106000, Control_c, 0, 64, 53
2,106015, Control_c, 0, 64, 53
2,106023, Note_on_c, 0, 74, 70
2,106029, Control_c, 0, 64, 52
2,106060, Control_c, 0, 64, 51
2,106075, Control_c, 0, 64, 51
2,106091, Control_c, 0, 64, 50
2,106136, Control_c, 0, 64, 50
2,106150, Note_on_c, 0, 50, 67
2,106155, Note_on_c, 0, 72, 76
2,106189, Note_on_c, 0, 74, 0
2,106225, Note_on_c, 0, 50, 0
2,106253, Note_on_c, 0, 72, 0
2,106268, Note_on_c, 0, 71, 71
2,106380, Control_c, 0, 64, 49
2,106396, Note_on_c, 0, 71, 0
2,106410, Control_c, 0, 64, 48
2,106411, Note_on_c, 0, 48, 64
2,106412, Note_on_c, 0, 69, 67
2,106425, Control_c, 0, 64, 47
2,106440, Control_c, 0, 64, 47
2,106455, Control_c, 0, 64, 46
2,106464, Note_on_c, 0, 48, 0
2,106486, Control_c, 0, 64, 45
2,106486, Note_on_c, 0, 69, 0
2,106501, Control_c, 0, 64, 45
2,106533, Note_on_c, 0, 67, 60
2,106648, Note_on_c, 0, 67, 0
2,106666, Note_on_c, 0, 52, 57
2,106672, Note_on_c, 0, 66, 60
2,106729, Note_on_c, 0, 52, 0
2,106742, Note_on_c, 0, 66, 0
2,106745, Note_on_c, 0, 76, 0
2,106780, Note_on_c, 0, 64, 59
2,106797, Control_c, 0, 64, 44
2,106872, Control_c, 0, 64, 45
2,106888, Control_c, 0, 64, 47
2,106892, Note_on_c, 0, 60, 0
2,106903, Control_c, 0, 64, 50
2,106919, Control_c, 0, 64, 52
2,106929, Note_on_c, 0, 50, 58
2,106930, Note_on_c, 0, 66, 52
2,106934, Control_c, 0, 64, 54
2,106948, Control_c, 0, 64, 55
2,106964, Control_c, 0, 64, 56
2,106979, Control_c, 0, 64, 56
2,106994, Control_c, 0, 64, 57
2,107010, Note_on_c, 0, 64, 0
2,107029, Note_on_c, 0, 66, 0
2,107034, Note_on_c, 0, 50, 0
2,107087, Control_c, 0, 64, 56
2,107101, Control_c, 0, 64, 56
2,107116, Control_c, 0, 64, 55
2,107132, Control_c, 0, 64, 54
2,107147, Control_c, 0, 64, 54
2,107163, Control_c, 0, 64, 53
2,107177, Control_c, 0, 64, 53
2,107207, Note_on_c, 0, 50, 57
2,107210, Note_on_c, 0, 62, 62
2,107221, Note_on_c, 0, 54, 66
2,107223, Control_c, 0, 64, 52
2,107293, Note_on_c, 0, 62, 0
2,107317, Note_on_c, 0, 54, 0
2,107323, Note_on_c, 0, 52, 75
2,107324, Note_on_c, 0, 50, 0
2,107456, Note_on_c, 0, 64, 73
2,107458, Note_on_c, 0, 50, 80
2,107495, Note_on_c, 0, 52, 0
2,107571, Note_on_c, 0, 64, 0
2,107600, Note_on_c, 0, 50, 0
2,107641, Control_c, 0, 64, 53
2,107723, Note_on_c, 0, 66, 77
2,107727, Note_on_c, 0, 48, 80
2,107741, Note_on_c, 0, 57, 69
2,107790, Control_c, 0, 64, 52
2,107806, Control_c, 0, 64, 52
2,107815, Note_on_c, 0, 57, 0
2,107821, Control_c, 0, 64, 51
2,107835, Control_c, 0, 64, 50
2,107838, Note_on_c, 0, 66, 0
2,107850, Note_on_c, 0, 48, 0
2,107851, Control_c, 0, 64, 48
2,107866, Control_c, 0, 64, 44
2,107882, Control_c, 0, 64, 40
2,107898, Control_c, 0, 64, 35
2,107913, Control_c, 0, 64, 30
2,107929, Control_c, 0, 64, 27
2,107943, Control_c, 0, 64, 25
2,107991, Note_on_c, 0, 47, 78
2,107994, Note_on_c, 0, 67, 83
2,108004, Control_c, 0, 64, 31
2,108004, Note_on_c, 0, 59, 73
2,108019, Control_c, 0, 64, 41
2,108034, Control_c, 0, 64, 50
2,108050, Control_c, 0, 64, 56
2,108061, Note_on_c, 0, 59, 0
2,108061, Note_on_c, 0, 67, 0
2,108065, Control_c, 0, 64, 59
2,108080, Control_c, 0, 64, 62
2,108095, Control_c, 0, 64, 64
2,108110, Control_c, 0, 64, 65
2,108148, Control_c, 0, 64, 64
2,108149, Note_on_c, 0, 47, 0
2,108163, Control_c, 0, 64, 63
2,108179, Control_c, 0, 64, 62
2,108194, Control_c, 0, 64, 60
2,108210, Control_c, 0, 64, 58
2,108224, Control_c, 0, 64, 56
2,108239, Control_c, 0, 64, 54
2,108255, Control_c, 0, 64, 52
2,108266, Note_on_c, 0, 74, 84
2,108270, Control_c, 0, 64, 50
2,108271, Note_on_c, 0, 66, 78
2,108274, Note_on_c, 0, 50, 67
2,108278, Note_on_c, 0, 47, 67
2,108286, Control_c, 0, 64, 49
2,108300, Control_c, 0, 64, 48
2,108315, Control_c, 0, 64, 47
2,108320, Note_on_c, 0, 50, 0
2,108331, Control_c, 0, 64, 45
2,108336, Note_on_c, 0, 66, 0
2,108345, Control_c, 0, 64, 44
2,108360, Control_c, 0, 64, 42
2,108376, Control_c, 0, 64, 40
2,108382, Note_on_c, 0, 74, 0
2,108382, Note_on_c, 0, 76, 82
2,108383, Note_on_c, 0, 48, 79
2,108391, Control_c, 0, 64, 39
2,108391, Note_on_c, 0, 47, 0
2,108407, Control_c, 0, 64, 37
2,108422, Control_c, 0, 64, 37
2,108436, Control_c, 0, 64, 36
2,108467, Control_c, 0, 64, 35
2,108482, Control_c, 0, 64, 34
2,108498, Control_c, 0, 64, 34
2,108513, Control_c, 0, 64, 33
2,108519, Note_on_c, 0, 74, 84
2,108526, Note_on_c, 0, 47, 76
2,108526, Note_on_c, 0, 52, 77
2,108532, Note_on_c, 0, 67, 75
2,108537, Note_on_c, 0, 48, 0
2,108543, Control_c, 0, 64, 33
2,108567, Note_on_c, 0, 76, 0
2,108616, Note_on_c, 0, 52, 0
2,108616, Note_on_c, 0, 67, 0
2,108647, Note_on_c, 0, 47, 0
2,108670, Note_on_c, 0, 74, 0
2,108785, Note_on_c, 0, 72, 87
2,108788, Control_c, 0, 64, 33
2,108791, Note_on_c, 0, 45, 64
2,108791, Note_on_c, 0, 54, 76
2,108797, Note_on_c, 0, 69, 70
2,108803, Control_c, 0, 64, 36
2,108819, Control_c, 0, 64, 41
2,108834, Control_c, 0, 64, 48
2,108850, Control_c, 0, 64, 54
2,108864, Control_c, 0, 64, 57
2,108879, Control_c, 0, 64, 59
2,108882, Note_on_c, 0, 54, 0
2,108890, Note_on_c, 0, 69, 0
2,108895, Control_c, 0, 64, 60
2,108901, Note_on_c, 0, 45, 0
2,108916, Note_on_c, 0, 72, 0
2,108947, Control_c, 0, 64, 60
2,108962, Control_c, 0, 64, 58
2,108978, Control_c, 0, 64, 57
2,108993, Control_c, 0, 64, 56
2,109009, Control_c, 0, 64, 54
2,109024, Control_c, 0, 64, 53
2,109039, Control_c, 0, 64, 51
2,109055, Control_c, 0, 64, 50
2,109063, Note_on_c, 0, 43, 66
2,109069, Control_c, 0, 64, 50
2,109069, Note_on_c, 0, 55, 71
2,109069, Note_on_c, 0, 71, 83
2,109079, Note_on_c, 0, 62, 67
2,109084, Control_c, 0, 64, 49
2,109100, Control_c, 0, 64, 48
2,109114, Control_c, 0, 64, 48
2,109145, Control_c, 0, 64, 47
2,109173, Note_on_c, 0, 45, 69
2,109186, Note_on_c, 0, 43, 0
2,109216, Note_on_c, 0, 71, 0
2,109324, Note_on_c, 0, 47, 73
2,109333, Note_on_c, 0, 71, 78
2,109337, Note_on_c, 0, 55, 0
2,109354, Note_on_c, 0, 45, 0
2,109373, Control_c, 0, 64, 48
2,109433, Note_on_c, 0, 72, 80
2,109439, Note_on_c, 0, 45, 67
2,109455, Note_on_c, 0, 71, 0
2,109468, Note_on_c, 0, 47, 0
2,109495, Control_c, 0, 64, 47
2,109571, Control_c, 0, 64, 49
2,109571, Note_on_c, 0, 71, 83
2,109586, Control_c, 0, 64, 53
2,109587, Note_on_c, 0, 43, 79
2,109601, Control_c, 0, 64, 56
2,109617, Control_c, 0, 64, 60
2,109623, Note_on_c, 0, 72, 0
2,109624, Note_on_c, 0, 45, 0
2,109632, Control_c, 0, 64, 61
2,109648, Control_c, 0, 64, 63
2,109659, Note_on_c, 0, 62, 0
2,109663, Control_c, 0, 64, 64
2,109668, Note_on_c, 0, 71, 0
2,109710, Note_on_c, 0, 43, 0
2,109715, Control_c, 0, 64, 63
2,109731, Control_c, 0, 64, 61
2,109746, Control_c, 0, 64, 57
2,109760, Control_c, 0, 64, 52
2,109776, Control_c, 0, 64, 47
2,109791, Control_c, 0, 64, 43
2,109807, Control_c, 0, 64, 39
2,109822, Control_c, 0, 64, 38
2,109856, Note_on_c, 0, 57, 74
2,109859, Note_on_c, 0, 63, 75
2,109864, Note_on_c, 0, 69, 68
2,109865, Note_on_c, 0, 42, 77
2,109868, Control_c, 0, 64, 42
2,109882, Control_c, 0, 64, 49
2,109898, Control_c, 0, 64, 57
2,109913, Control_c, 0, 64, 61
2,109927, Note_on_c, 0, 57, 0
2,109929, Control_c, 0, 64, 64
2,109941, Note_on_c, 0, 42, 0
2,109944, Control_c, 0, 64, 67
2,109958, Control_c, 0, 64, 73
2,109963, Note_on_c, 0, 63, 0
2,109974, Control_c, 0, 64, 82
2,109989, Control_c, 0, 64, 92
2,109999, Note_on_c, 0, 69, 0
2,110004, Control_c, 0, 64, 91
2,110020, Control_c, 0, 64, 83
2,110034, Control_c, 0, 64, 74
2,110050, Control_c, 0, 64, 67
2,110065, Control_c, 0, 64, 64
2,110080, Control_c, 0, 64, 61
2,110096, Control_c, 0, 64, 59
2,110110, Control_c, 0, 64, 57
2,110126, Control_c, 0, 64, 53
2,110134, Note_on_c, 0, 52, 69
2,110137, Note_on_c, 0, 59, 76
2,110137, Note_on_c, 0, 64, 69
2,110140, Note_on_c, 0, 67, 70
2,110141, Control_c, 0, 64, 51
2,110156, Control_c, 0, 64, 50
2,110242, Note_on_c, 0, 52, 0
2,110247, Control_c, 0, 64, 49
2,110257, Note_on_c, 0, 69, 75
2,110291, Note_on_c, 0, 64, 0
2,110299, Note_on_c, 0, 67, 0
2,110391, Note_on_c, 0, 55, 67
2,110393, Note_on_c, 0, 71, 79
2,110399, Control_c, 0, 64, 49
2,110404, Note_on_c, 0, 64, 70
2,110407, Note_on_c, 0, 69, 0
2,110415, Control_c, 0, 64, 48
2,110430, Control_c, 0, 64, 47
2,110454, Control_c, 0, 64, 47
2,110468, Control_c, 0, 64, 46
2,110499, Control_c, 0, 64, 45
2,110512, Note_on_c, 0, 69, 78
2,110514, Control_c, 0, 64, 44
2,110518, Note_on_c, 0, 63, 79
2,110530, Control_c, 0, 64, 42
2,110535, Note_on_c, 0, 64, 0
2,110544, Control_c, 0, 64, 40
2,110559, Control_c, 0, 64, 38
2,110575, Control_c, 0, 64, 33
2,110592, Control_c, 0, 64, 26
2,110607, Control_c, 0, 64, 12
2,110622, Control_c, 0, 64, 0
2,110650, Note_on_c, 0, 64, 69
2,110650, Note_on_c, 0, 67, 79
2,110653, Note_on_c, 0, 71, 0
2,110692, Note_on_c, 0, 63, 0
2,110698, Control_c, 0, 64, 24
2,110698, Note_on_c, 0, 55, 0
2,110713, Control_c, 0, 64, 39
2,110717, Note_on_c, 0, 69, 0
2,110729, Control_c, 0, 64, 44
2,110768, Note_on_c, 0, 67, 0
2,110790, Control_c, 0, 64, 43
2,110805, Control_c, 0, 64, 39
2,110820, Control_c, 0, 64, 33
2,110835, Control_c, 0, 64, 26
2,110851, Control_c, 0, 64, 19
2,110866, Control_c, 0, 64, 16
2,110911, Control_c, 0, 64, 19
2,110912, Note_on_c, 0, 50, 61
2,110914, Note_on_c, 0, 66, 74
2,110927, Control_c, 0, 64, 33
2,110942, Control_c, 0, 64, 47
2,110956, Control_c, 0, 64, 56
2,110972, Control_c, 0, 64, 61
2,110987, Control_c, 0, 64, 63
2,110988, Note_on_c, 0, 64, 0
2,110988, Note_on_c, 0, 66, 0
2,111003, Control_c, 0, 64, 64
2,111013, Note_on_c, 0, 50, 0
2,111017, Control_c, 0, 64, 65
2,111047, Control_c, 0, 64, 64
2,111062, Control_c, 0, 64, 62
2,111077, Control_c, 0, 64, 60
2,111093, Control_c, 0, 64, 56
2,111108, Control_c, 0, 64, 52
2,111124, Control_c, 0, 64, 49
2,111138, Control_c, 0, 64, 42
2,111153, Control_c, 0, 64, 38
2,111165, Note_on_c, 0, 59, 0
2,111170, Control_c, 0, 64, 36
2,111182, Note_on_c, 0, 76, 81
2,111202, Note_on_c, 0, 48, 46
2,111223, Control_c, 0, 64, 41
2,111239, Control_c, 0, 64, 51
2,111253, Control_c, 0, 64, 57
2,111268, Control_c, 0, 64, 61
2,111284, Control_c, 0, 64, 63
2,111297, Note_on_c, 0, 76, 0
2,111299, Control_c, 0, 64, 64
2,111301, Note_on_c, 0, 48, 0
2,111307, Note_on_c, 0, 47, 60
2,111314, Control_c, 0, 64, 65
2,111329, Control_c, 0, 64, 67
2,111360, Control_c, 0, 64, 66
2,111375, Control_c, 0, 64, 64
2,111390, Control_c, 0, 64, 62
2,111405, Control_c, 0, 64, 59
2,111420, Control_c, 0, 64, 56
2,111429, Note_on_c, 0, 47, 0
2,111435, Control_c, 0, 64, 52
2,111444, Note_on_c, 0, 79, 66
2,111445, Note_on_c, 0, 50, 53
2,111451, Control_c, 0, 64, 47
2,111453, Note_on_c, 0, 67, 63
2,111464, Note_on_c, 0, 52, 46
2,111466, Control_c, 0, 64, 43
2,111481, Control_c, 0, 64, 41
2,111511, Control_c, 0, 64, 41
2,111527, Note_on_c, 0, 52, 0
2,111532, Note_on_c, 0, 50, 0
2,111542, Control_c, 0, 64, 40
2,111549, Note_on_c, 0, 67, 0
2,111557, Note_on_c, 0, 48, 58
2,111603, Control_c, 0, 64, 40
2,111633, Control_c, 0, 64, 39
2,111686, Note_on_c, 0, 48, 0
2,111694, Control_c, 0, 64, 42
2,111707, Note_on_c, 0, 69, 68
2,111709, Control_c, 0, 64, 49
2,111711, Note_on_c, 0, 47, 56
2,111722, Note_on_c, 0, 79, 0
2,111724, Control_c, 0, 64, 56
2,111726, Note_on_c, 0, 54, 56
2,111739, Control_c, 0, 64, 60
2,111754, Control_c, 0, 64, 63
2,111770, Control_c, 0, 64, 65
2,111784, Control_c, 0, 64, 68
2,111792, Note_on_c, 0, 54, 0
2,111800, Control_c, 0, 64, 70
2,111805, Note_on_c, 0, 69, 0
2,111821, Note_on_c, 0, 47, 0
2,111830, Control_c, 0, 64, 69
2,111833, Note_on_c, 0, 45, 62
2,111846, Control_c, 0, 64, 67
2,111860, Control_c, 0, 64, 65
2,111875, Control_c, 0, 64, 63
2,111891, Control_c, 0, 64, 61
2,111906, Control_c, 0, 64, 58
2,111922, Control_c, 0, 64, 56
2,111937, Control_c, 0, 64, 53
2,111943, Note_on_c, 0, 45, 0
2,111952, Control_c, 0, 64, 50
2,111952, Note_on_c, 0, 74, 71
2,111967, Control_c, 0, 64, 48
2,111970, Note_on_c, 0, 48, 58
2,111970, Note_on_c, 0, 71, 64
2,111982, Note_on_c, 0, 55, 60
2,111991, Control_c, 0, 64, 47
2,112036, Control_c, 0, 64, 48
2,112052, Control_c, 0, 64, 49
2,112067, Control_c, 0, 64, 50
2,112084, Note_on_c, 0, 47, 70
2,112088, Note_on_c, 0, 55, 0
2,112097, Control_c, 0, 64, 50
2,112104, Note_on_c, 0, 48, 0
2,112111, Note_on_c, 0, 71, 0
2,112172, Note_on_c, 0, 74, 0
2,112212, Note_on_c, 0, 47, 0
2,112228, Note_on_c, 0, 72, 79
2,112235, Note_on_c, 0, 45, 64
2,112237, Note_on_c, 0, 57, 72
2,112314, Note_on_c, 0, 57, 0
2,112337, Note_on_c, 0, 45, 0
2,112346, Note_on_c, 0, 71, 78
2,112477, Note_on_c, 0, 47, 57
2,112480, Note_on_c, 0, 50, 63
2,112484, Note_on_c, 0, 74, 74
2,112489, Note_on_c, 0, 67, 68
2,112499, Note_on_c, 0, 71, 0
2,112502, Note_on_c, 0, 72, 0
2,112561, Note_on_c, 0, 50, 0
2,112569, Note_on_c, 0, 47, 0
2,112594, Note_on_c, 0, 72, 84
2,112686, Note_on_c, 0, 74, 0
2,112691, Control_c, 0, 64, 51
2,112705, Control_c, 0, 64, 51
2,112720, Note_on_c, 0, 71, 79
2,112721, Control_c, 0, 64, 52
2,112729, Note_on_c, 0, 48, 63
2,112733, Note_on_c, 0, 52, 63
2,112736, Control_c, 0, 64, 53
2,112738, Note_on_c, 0, 67, 0
2,112759, Control_c, 0, 64, 54
2,112763, Note_on_c, 0, 72, 0
2,112792, Note_on_c, 0, 52, 0
2,112815, Note_on_c, 0, 48, 0
2,112845, Note_on_c, 0, 69, 85
2,112851, Control_c, 0, 64, 53
2,112857, Note_on_c, 0, 71, 0
2,112866, Control_c, 0, 64, 53
2,112882, Control_c, 0, 64, 52
2,112912, Control_c, 0, 64, 52
2,112967, Note_on_c, 0, 69, 0
2,112976, Note_on_c, 0, 72, 75
2,112978, Note_on_c, 0, 66, 69
2,112982, Note_on_c, 0, 50, 57
2,112983, Note_on_c, 0, 43, 50
2,113036, Note_on_c, 0, 66, 0
2,113058, Note_on_c, 0, 43, 0
2,113072, Note_on_c, 0, 50, 0
2,113082, Note_on_c, 0, 71, 70
2,113089, Note_on_c, 0, 52, 65
2,113092, Note_on_c, 0, 72, 0
2,113094, Note_on_c, 0, 67, 72
2,113109, Control_c, 0, 64, 52
2,113201, Control_c, 0, 64, 53
2,113215, Control_c, 0, 64, 53
2,113218, Note_on_c, 0, 52, 0
2,113226, Note_on_c, 0, 69, 73
2,113227, Note_on_c, 0, 54, 68
2,113228, Note_on_c, 0, 50, 48
2,113230, Control_c, 0, 64, 54
2,113260, Control_c, 0, 64, 54
2,113297, Note_on_c, 0, 67, 0
2,113322, Note_on_c, 0, 69, 0
2,113323, Note_on_c, 0, 71, 0
2,113344, Note_on_c, 0, 54, 0
2,113344, Note_on_c, 0, 55, 70
2,113428, Control_c, 0, 64, 54
2,113473, Control_c, 0, 64, 53
2,113477, Note_on_c, 0, 71, 75
2,113479, Note_on_c, 0, 52, 75
2,113487, Note_on_c, 0, 55, 0
2,113521, Note_on_c, 0, 50, 0
2,113527, Control_c, 0, 64, 53
2,113542, Control_c, 0, 64, 52
2,113587, Control_c, 0, 64, 52
2,113593, Note_on_c, 0, 54, 78
2,113597, Note_on_c, 0, 71, 0
2,113603, Control_c, 0, 64, 51
2,113616, Note_on_c, 0, 52, 0
2,113618, Control_c, 0, 64, 50
2,113634, Control_c, 0, 64, 49
2,113649, Control_c, 0, 64, 48
2,113664, Control_c, 0, 64, 46
2,113680, Control_c, 0, 64, 44
2,113695, Control_c, 0, 64, 42
2,113710, Control_c, 0, 64, 39
2,113725, Control_c, 0, 64, 38
2,113730, Note_on_c, 0, 55, 78
2,113733, Note_on_c, 0, 72, 80
2,113736, Control_c, 0, 64, 38
2,113739, Note_on_c, 0, 52, 64
2,113745, Note_on_c, 0, 54, 0
2,113766, Control_c, 0, 64, 37
2,113813, Control_c, 0, 64, 37
2,113841, Note_on_c, 0, 57, 82
2,113847, Note_on_c, 0, 55, 0
2,113885, Note_on_c, 0, 72, 0
2,113975, Note_on_c, 0, 54, 85
2,113984, Note_on_c, 0, 67, 76
2,113995, Control_c, 0, 64, 37
2,113997, Note_on_c, 0, 57, 0
2,114011, Note_on_c, 0, 52, 0
2,114050, Note_on_c, 0, 67, 0
2,114071, Control_c, 0, 64, 38
2,114075, Note_on_c, 0, 55, 88
2,114103, Note_on_c, 0, 54, 0
2,114221, Note_on_c, 0, 54, 83
2,114223, Note_on_c, 0, 57, 86
2,114224, Note_on_c, 0, 74, 78
2,114232, Note_on_c, 0, 55, 0
2,114253, Control_c, 0, 64, 38
2,114288, Note_on_c, 0, 74, 0
2,114350, Note_on_c, 0, 76, 78
2,114352, Control_c, 0, 64, 39
2,114367, Control_c, 0, 64, 39
2,114383, Control_c, 0, 64, 40
2,114397, Control_c, 0, 64, 41
2,114413, Control_c, 0, 64, 42
2,114428, Control_c, 0, 64, 42
2,114460, Control_c, 0, 64, 43
2,114475, Control_c, 0, 64, 44
2,114476, Note_on_c, 0, 59, 80
2,114476, Note_on_c, 0, 74, 80
2,114488, Note_on_c, 0, 76, 0
2,114489, Control_c, 0, 64, 46
2,114501, Note_on_c, 0, 57, 0
2,114505, Control_c, 0, 64, 47
2,114520, Control_c, 0, 64, 48
2,114536, Control_c, 0, 64, 49
2,114547, Note_on_c, 0, 54, 0
2,114550, Control_c, 0, 64, 50
2,114565, Control_c, 0, 64, 50
2,114581, Control_c, 0, 64, 51
2,114586, Note_on_c, 0, 76, 80
2,114587, Note_on_c, 0, 60, 81
2,114587, Note_on_c, 0, 74, 0
2,114595, Note_on_c, 0, 59, 0
2,114596, Control_c, 0, 64, 52
2,114611, Control_c, 0, 64, 52
2,114626, Control_c, 0, 64, 53
2,114676, Note_on_c, 0, 76, 0
2,114707, Note_on_c, 0, 77, 74
2,114712, Note_on_c, 0, 59, 80
2,114715, Note_on_c, 0, 55, 71
2,114720, Note_on_c, 0, 60, 0
2,114778, Note_on_c, 0, 77, 0
2,114785, Note_on_c, 0, 76, 72
2,114819, Note_on_c, 0, 76, 0
2,114835, Note_on_c, 0, 77, 69
2,114847, Note_on_c, 0, 59, 0
2,114858, Note_on_c, 0, 60, 73
2,114891, Note_on_c, 0, 76, 74
2,114895, Note_on_c, 0, 77, 0
2,114943, Note_on_c, 0, 76, 0
2,114945, Note_on_c, 0, 77, 72
2,114966, Note_on_c, 0, 57, 77
2,114981, Note_on_c, 0, 55, 0
2,114986, Note_on_c, 0, 60, 0
2,115007, Note_on_c, 0, 76, 71
2,115036, Note_on_c, 0, 77, 0
2,115072, Note_on_c, 0, 74, 77
2,115078, Note_on_c, 0, 76, 0
2,115082, Note_on_c, 0, 59, 85
2,115102, Note_on_c, 0, 57, 0
2,115142, Note_on_c, 0, 76, 84
2,115162, Note_on_c, 0, 74, 0
2,115228, Note_on_c, 0, 57, 78
2,115228, Note_on_c, 0, 60, 82
2,115228, Note_on_c, 0, 77, 91
2,115236, Note_on_c, 0, 59, 0
2,115251, Note_on_c, 0, 76, 0
2,115303, Control_c, 0, 64, 52
2,115348, Control_c, 0, 64, 52
2,115358, Note_on_c, 0, 76, 83
2,115408, Control_c, 0, 64, 51
2,115475, Note_on_c, 0, 74, 82
2,115478, Note_on_c, 0, 62, 77
2,115479, Note_on_c, 0, 60, 0
2,115503, Note_on_c, 0, 76, 0
2,115515, Control_c, 0, 64, 51
2,115570, Note_on_c, 0, 74, 0
2,115580, Note_on_c, 0, 72, 83
2,115586, Note_on_c, 0, 64, 82
2,115592, Note_on_c, 0, 62, 0
2,115682, Control_c, 0, 64, 50
2,115714, Note_on_c, 0, 62, 80
2,115714, Note_on_c, 0, 71, 82
2,115720, Note_on_c, 0, 59, 77
2,115727, Control_c, 0, 64, 50
2,115729, Note_on_c, 0, 57, 0
2,115736, Note_on_c, 0, 72, 0
2,115739, Note_on_c, 0, 64, 0
2,115803, Control_c, 0, 64, 49
2,115823, Note_on_c, 0, 62, 0
2,115827, Note_on_c, 0, 71, 0
2,115831, Note_on_c, 0, 59, 0
2,115845, Note_on_c, 0, 69, 82
2,115858, Control_c, 0, 64, 49
2,115887, Control_c, 0, 64, 48
2,115918, Control_c, 0, 64, 48
2,115933, Control_c, 0, 64, 47
2,115989, Note_on_c, 0, 68, 82
2,115992, Note_on_c, 0, 60, 80
2,115997, Note_on_c, 0, 57, 67
2,116008, Note_on_c, 0, 69, 0
2,116045, Note_on_c, 0, 60, 0
2,116057, Note_on_c, 0, 57, 0
2,116103, Note_on_c, 0, 69, 86
2,116114, Note_on_c, 0, 68, 0
2,116248, Note_on_c, 0, 71, 82
2,116255, Note_on_c, 0, 59, 78
2,116257, Note_on_c, 0, 56, 78
2,116259, Note_on_c, 0, 69, 0
2,116328, Note_on_c, 0, 77, 0
2,116330, Note_on_c, 0, 59, 0
2,116337, Note_on_c, 0, 56, 0
2,116512, Control_c, 0, 64, 48
2,116540, Note_on_c, 0, 76, 88
2,116541, Note_on_c, 0, 52, 66
2,116542, Note_on_c, 0, 56, 86
2,116616, Note_on_c, 0, 52, 0
2,116649, Note_on_c, 0, 56, 0
2,116664, Note_on_c, 0, 77, 90
2,116689, Note_on_c, 0, 76, 0
2,116795, Note_on_c, 0, 54, 75
2,116795, Note_on_c, 0, 57, 82
2,116795, Note_on_c, 0, 76, 86
2,116885, Note_on_c, 0, 77, 0
2,116923, Note_on_c, 0, 54, 0
2,116924, Note_on_c, 0, 57, 0
2,116927, Note_on_c, 0, 76, 0
2,117065, Note_on_c, 0, 59, 83
2,117066, Note_on_c, 0, 74, 89
2,117067, Note_on_c, 0, 56, 77
2,117082, Control_c, 0, 64, 47
2,117098, Control_c, 0, 64, 47
2,117113, Control_c, 0, 64, 45
2,117128, Control_c, 0, 64, 44
2,117144, Control_c, 0, 64, 42
2,117158, Control_c, 0, 64, 39
2,117174, Control_c, 0, 64, 32
2,117188, Control_c, 0, 64, 9
2,117193, Note_on_c, 0, 59, 0
2,117197, Note_on_c, 0, 74, 0
2,117199, Note_on_c, 0, 56, 0
2,117202, Control_c, 0, 64, 0
2,117339, Note_on_c, 0, 60, 90
2,117340, Control_c, 0, 64, 12
2,117340, Note_on_c, 0, 72, 93
2,117341, Note_on_c, 0, 57, 77
2,117362, Control_c, 0, 64, 45
2,117378, Control_c, 0, 64, 60
2,117380, Note_on_c, 0, 71, 0
2,117392, Control_c, 0, 64, 68
2,117407, Control_c, 0, 64, 79
2,117423, Control_c, 0, 64, 113
2,117427, Note_on_c, 0, 60, 0
2,117438, Control_c, 0, 64, 127
2,117448, Note_on_c, 0, 57, 0
2,117448, Note_on_c, 0, 72, 0
2,117514, Control_c, 0, 64, 95
2,117529, Control_c, 0, 64, 80
2,117545, Control_c, 0, 64, 67
2,117559, Control_c, 0, 64, 60
2,117575, Control_c, 0, 64, 54
2,117590, Control_c, 0, 64, 53
2,117619, Note_on_c, 0, 52, 75
2,117620, Control_c, 0, 64, 51
2,117621, Note_on_c, 0, 48, 76
2,117626, Note_on_c, 0, 72, 81
2,117627, Note_on_c, 0, 64, 81
2,117635, Control_c, 0, 64, 48
2,117650, Control_c, 0, 64, 46
2,117682, Note_on_c, 0, 64, 0
2,117702, Note_on_c, 0, 52, 0
2,117729, Note_on_c, 0, 74, 76
2,117735, Note_on_c, 0, 65, 84
2,117744, Note_on_c, 0, 48, 0
2,117760, Note_on_c, 0, 72, 0
2,117796, Note_on_c, 0, 74, 0
2,117854, Note_on_c, 0, 72, 70
2,117858, Note_on_c, 0, 50, 72
2,117861, Note_on_c, 0, 54, 80
2,117861, Note_on_c, 0, 64, 85
2,117893, Note_on_c, 0, 65, 0
2,117955, Control_c, 0, 64, 47
2,117965, Note_on_c, 0, 50, 0
2,117970, Control_c, 0, 64, 47
2,117986, Control_c, 0, 64, 48
2,117986, Note_on_c, 0, 54, 0
2,117995, Note_on_c, 0, 64, 0
2,118001, Control_c, 0, 64, 48
2,118017, Control_c, 0, 64, 49
2,118035, Note_on_c, 0, 72, 0
2,118046, Control_c, 0, 64, 50
2,118130, Note_on_c, 0, 62, 81
2,118134, Note_on_c, 0, 52, 73
2,118135, Note_on_c, 0, 56, 84
2,118135, Note_on_c, 0, 71, 78
2,118205, Control_c, 0, 64, 50
2,118219, Note_on_c, 0, 52, 0
2,118227, Note_on_c, 0, 71, 0
2,118250, Note_on_c, 0, 62, 0
2,118256, Note_on_c, 0, 56, 0
2,118401, Note_on_c, 0, 57, 89
2,118402, Note_on_c, 0, 60, 75
2,118402, Note_on_c, 0, 69, 76
2,118405, Note_on_c, 0, 53, 77
2,118419, Control_c, 0, 64, 50
2,118434, Control_c, 0, 64, 49
2,118449, Control_c, 0, 64, 49
2,118464, Control_c, 0, 64, 48
2,118479, Control_c, 0, 64, 48
2,118490, Note_on_c, 0, 60, 0
2,118495, Control_c, 0, 64, 47
2,118510, Control_c, 0, 64, 47
2,118535, Note_on_c, 0, 71, 78
2,118565, Note_on_c, 0, 69, 0
2,118571, Control_c, 0, 64, 46
2,118587, Control_c, 0, 64, 46
2,118618, Control_c, 0, 64, 45
2,118632, Control_c, 0, 64, 45
2,118661, Note_on_c, 0, 60, 87
2,118663, Control_c, 0, 64, 44
2,118663, Note_on_c, 0, 72, 76
2,118672, Note_on_c, 0, 71, 0
2,118773, Note_on_c, 0, 62, 83
2,118781, Note_on_c, 0, 71, 77
2,118802, Note_on_c, 0, 60, 0
2,118921, Note_on_c, 0, 60, 88
2,118935, Note_on_c, 0, 69, 73
2,118946, Note_on_c, 0, 72, 0
2,118959, Note_on_c, 0, 62, 0
2,118990, Note_on_c, 0, 71, 0
2,119006, Note_on_c, 0, 57, 0
2,119011, Note_on_c, 0, 60, 0
2,119015, Note_on_c, 0, 53, 0
2,119019, Control_c, 0, 64, 44
2,119029, Note_on_c, 0, 69, 0
2,119034, Control_c, 0, 64, 43
2,119065, Control_c, 0, 64, 42
2,119142, Control_c, 0, 64, 43
2,119156, Control_c, 0, 64, 45
2,119171, Control_c, 0, 64, 50
2,119176, Note_on_c, 0, 52, 51
2,119187, Control_c, 0, 64, 54
2,119189, Note_on_c, 0, 67, 76
2,119191, Note_on_c, 0, 58, 85
2,119195, Note_on_c, 0, 49, 65
2,119202, Control_c, 0, 64, 57
2,119217, Control_c, 0, 64, 60
2,119232, Control_c, 0, 64, 63
2,119247, Control_c, 0, 64, 67
2,119263, Control_c, 0, 64, 73
2,119278, Control_c, 0, 64, 79
2,119282, Note_on_c, 0, 67, 0
2,119294, Control_c, 0, 64, 81
2,119295, Note_on_c, 0, 49, 0
2,119297, Note_on_c, 0, 52, 0
2,119303, Note_on_c, 0, 58, 0
2,119308, Control_c, 0, 64, 79
2,119323, Control_c, 0, 64, 76
2,119339, Control_c, 0, 64, 71
2,119355, Control_c, 0, 64, 66
2,119370, Control_c, 0, 64, 63
2,119386, Control_c, 0, 64, 61
2,119400, Control_c, 0, 64, 59
2,119416, Control_c, 0, 64, 57
2,119431, Control_c, 0, 64, 55
2,119446, Control_c, 0, 64, 52
2,119459, Note_on_c, 0, 77, 83
2,119461, Control_c, 0, 64, 50
2,119464, Note_on_c, 0, 50, 66
2,119468, Note_on_c, 0, 57, 75
2,119474, Note_on_c, 0, 53, 67
2,119476, Control_c, 0, 64, 49
2,119491, Control_c, 0, 64, 49
2,119507, Control_c, 0, 64, 48
2,119537, Control_c, 0, 64, 48
2,119544, Note_on_c, 0, 53, 0
2,119557, Note_on_c, 0, 50, 0
2,119571, Note_on_c, 0, 59, 72
2,119573, Note_on_c, 0, 57, 0
2,119583, Control_c, 0, 64, 47
2,119584, Note_on_c, 0, 77, 0
2,119598, Control_c, 0, 64, 47
2,119628, Control_c, 0, 64, 46
2,119643, Control_c, 0, 64, 46
2,119666, Control_c, 0, 64, 45
2,119681, Control_c, 0, 64, 44
2,119697, Control_c, 0, 64, 43
2,119715, Note_on_c, 0, 52, 56
2,119719, Note_on_c, 0, 81, 64
2,119723, Note_on_c, 0, 61, 77
2,119743, Note_on_c, 0, 55, 52
2,119744, Note_on_c, 0, 59, 0
2,119773, Control_c, 0, 64, 45
2,119788, Control_c, 0, 64, 47
2,119803, Control_c, 0, 64, 49
2,119818, Control_c, 0, 64, 50
2,119822, Note_on_c, 0, 81, 0
2,119831, Note_on_c, 0, 55, 0
2,119833, Control_c, 0, 64, 52
2,119839, Note_on_c, 0, 59, 80
2,119842, Note_on_c, 0, 61, 0
2,119924, Control_c, 0, 64, 51
2,119940, Control_c, 0, 64, 51
2,119954, Control_c, 0, 64, 50
2,119969, Control_c, 0, 64, 48
2,119979, Note_on_c, 0, 57, 85
2,119982, Note_on_c, 0, 53, 77
2,119985, Control_c, 0, 64, 46
2,119993, Note_on_c, 0, 52, 0
2,120000, Control_c, 0, 64, 44
2,120006, Note_on_c, 0, 59, 0
2,120016, Control_c, 0, 64, 41
2,120031, Control_c, 0, 64, 39
2,120046, Control_c, 0, 64, 38
2,120062, Control_c, 0, 64, 37
2,120076, Control_c, 0, 64, 37
2,120077, Note_on_c, 0, 57, 0
2,120083, Note_on_c, 0, 53, 0
2,120091, Control_c, 0, 64, 36
2,120122, Control_c, 0, 64, 36
2,120138, Control_c, 0, 64, 35
2,120230, Control_c, 0, 64, 36
2,120244, Control_c, 0, 64, 39
2,120248, Note_on_c, 0, 76, 76
2,120251, Note_on_c, 0, 58, 81
2,120253, Note_on_c, 0, 49, 63
2,120259, Note_on_c, 0, 55, 74
2,120261, Control_c, 0, 64, 43
2,120275, Control_c, 0, 64, 48
2,120290, Control_c, 0, 64, 54
2,120306, Control_c, 0, 64, 60
2,120321, Control_c, 0, 64, 65
2,120337, Control_c, 0, 64, 72
2,120352, Control_c, 0, 64, 87
2,120359, Note_on_c, 0, 49, 0
2,120367, Control_c, 0, 64, 127
2,120377, Note_on_c, 0, 58, 0
2,120392, Note_on_c, 0, 76, 0
2,120394, Note_on_c, 0, 55, 0
2,120480, Control_c, 0, 64, 102
2,120496, Control_c, 0, 64, 80
2,120511, Control_c, 0, 64, 68
2,120526, Control_c, 0, 64, 61
2,120542, Control_c, 0, 64, 54
2,120545, Note_on_c, 0, 74, 70
2,120547, Note_on_c, 0, 66, 79
2,120550, Note_on_c, 0, 50, 70
2,120552, Note_on_c, 0, 57, 78
2,120557, Control_c, 0, 64, 51
2,120573, Control_c, 0, 64, 49
2,120587, Control_c, 0, 64, 46
2,120602, Control_c, 0, 64, 42
2,120611, Note_on_c, 0, 66, 0
2,120618, Control_c, 0, 64, 40
2,120633, Control_c, 0, 64, 40
2,120648, Control_c, 0, 64, 39
2,120664, Note_on_c, 0, 74, 0
2,120668, Note_on_c, 0, 72, 73
2,120678, Control_c, 0, 64, 39
2,120694, Control_c, 0, 64, 38
2,120708, Control_c, 0, 64, 37
2,120723, Control_c, 0, 64, 37
2,120774, Control_c, 0, 64, 36
2,120808, Note_on_c, 0, 71, 81
2,120815, Note_on_c, 0, 76, 73
2,120820, Note_on_c, 0, 72, 0
2,120826, Note_on_c, 0, 56, 65
2,120895, Control_c, 0, 64, 38
2,120910, Control_c, 0, 64, 41
2,120925, Control_c, 0, 64, 44
2,120931, Note_on_c, 0, 50, 0
2,120931, Note_on_c, 0, 54, 66
2,120938, Note_on_c, 0, 74, 72
2,120940, Control_c, 0, 64, 46
2,120943, Note_on_c, 0, 56, 0
2,120955, Control_c, 0, 64, 47
2,120966, Note_on_c, 0, 54, 0
2,120971, Control_c, 0, 64, 48
2,120983, Note_on_c, 0, 76, 0
2,120986, Control_c, 0, 64, 48
2,121035, Note_on_c, 0, 71, 0
2,121065, Note_on_c, 0, 52, 64
2,121070, Note_on_c, 0, 45, 67
2,121073, Note_on_c, 0, 72, 73
2,121087, Note_on_c, 0, 74, 0
2,121101, Note_on_c, 0, 57, 0
2,121108, Control_c, 0, 64, 47
2,121124, Control_c, 0, 64, 46
2,121139, Control_c, 0, 64, 46
2,121154, Control_c, 0, 64, 45
2,121155, Note_on_c, 0, 72, 0
2,121170, Control_c, 0, 64, 44
2,121178, Note_on_c, 0, 71, 69
2,121185, Control_c, 0, 64, 44
2,121208, Control_c, 0, 64, 43
2,121223, Control_c, 0, 64, 42
2,121237, Control_c, 0, 64, 41
2,121253, Control_c, 0, 64, 38
2,121268, Control_c, 0, 64, 35
2,121284, Control_c, 0, 64, 33
2,121299, Control_c, 0, 64, 32
2,121310, Note_on_c, 0, 71, 0
2,121326, Note_on_c, 0, 57, 64
2,121329, Note_on_c, 0, 64, 66
2,121331, Note_on_c, 0, 74, 66
2,121344, Control_c, 0, 64, 34
2,121350, Note_on_c, 0, 52, 0
2,121360, Control_c, 0, 64, 41
2,121375, Control_c, 0, 64, 49
2,121390, Control_c, 0, 64, 54
2,121405, Control_c, 0, 64, 56
2,121420, Control_c, 0, 64, 57
2,121422, Note_on_c, 0, 64, 0
2,121435, Control_c, 0, 64, 58
2,121437, Note_on_c, 0, 72, 69
2,121441, Note_on_c, 0, 74, 0
2,121451, Control_c, 0, 64, 58
2,121481, Control_c, 0, 64, 57
2,121496, Control_c, 0, 64, 53
2,121511, Control_c, 0, 64, 47
2,121527, Control_c, 0, 64, 42
2,121542, Control_c, 0, 64, 41
2,121556, Control_c, 0, 64, 41
2,121561, Note_on_c, 0, 72, 0
2,121572, Control_c, 0, 64, 44
2,121575, Note_on_c, 0, 71, 63
2,121579, Note_on_c, 0, 62, 66
2,121584, Note_on_c, 0, 57, 0
2,121587, Control_c, 0, 64, 49
2,121590, Note_on_c, 0, 53, 62
2,121603, Control_c, 0, 64, 55
2,121616, Note_on_c, 0, 62, 0
2,121618, Control_c, 0, 64, 59
2,121632, Control_c, 0, 64, 61
2,121644, Note_on_c, 0, 72, 27
2,121648, Control_c, 0, 64, 62
2,121650, Note_on_c, 0, 53, 0
2,121664, Note_on_c, 0, 71, 0
2,121684, Note_on_c, 0, 72, 0
2,121702, Note_on_c, 0, 71, 19
2,121708, Note_on_c, 0, 60, 67
2,121724, Control_c, 0, 64, 61
2,121739, Control_c, 0, 64, 61
2,121754, Control_c, 0, 64, 60
2,121769, Control_c, 0, 64, 59
2,121784, Control_c, 0, 64, 58
2,121794, Note_on_c, 0, 60, 0
2,121800, Control_c, 0, 64, 55
2,121805, Note_on_c, 0, 45, 0
2,121815, Control_c, 0, 64, 51
2,121824, Note_on_c, 0, 44, 58
2,121830, Control_c, 0, 64, 46
2,121831, Note_on_c, 0, 52, 64
2,121844, Note_on_c, 0, 64, 66
2,121846, Control_c, 0, 64, 40
2,121861, Control_c, 0, 64, 36
2,121876, Control_c, 0, 64, 35
2,121903, Note_on_c, 0, 44, 0
2,121906, Control_c, 0, 64, 35
2,121915, Note_on_c, 0, 52, 0
2,121922, Control_c, 0, 64, 39
2,121937, Control_c, 0, 64, 47
2,121944, Note_on_c, 0, 64, 0
2,121951, Note_on_c, 0, 71, 0
2,121952, Control_c, 0, 64, 52
2,121953, Note_on_c, 0, 62, 65
2,121975, Control_c, 0, 64, 55
2,121989, Control_c, 0, 64, 56
2,122005, Control_c, 0, 64, 57
2,122035, Control_c, 0, 64, 56
2,122051, Control_c, 0, 64, 53
2,122066, Control_c, 0, 64, 48
2,122071, Note_on_c, 0, 62, 0
2,122081, Control_c, 0, 64, 45
2,122093, Note_on_c, 0, 45, 55
2,122093, Note_on_c, 0, 60, 61
2,122127, Control_c, 0, 64, 47
2,122142, Control_c, 0, 64, 50
2,122157, Control_c, 0, 64, 54
2,122173, Control_c, 0, 64, 57
2,122188, Control_c, 0, 64, 59
2,122191, Note_on_c, 0, 60, 0
2,122203, Control_c, 0, 64, 60
2,122215, Note_on_c, 0, 59, 57
2,122233, Control_c, 0, 64, 61
2,122264, Control_c, 0, 64, 60
2,122279, Control_c, 0, 64, 59
2,122292, Note_on_c, 0, 59, 0
2,122294, Control_c, 0, 64, 59
2,122309, Control_c, 0, 64, 58
2,122335, Note_on_c, 0, 69, 63
2,122339, Control_c, 0, 64, 58
2,122354, Note_on_c, 0, 62, 49
2,122370, Note_on_c, 0, 53, 44
2,122446, Control_c, 0, 64, 58
2,122462, Note_on_c, 0, 45, 0
2,122463, Note_on_c, 0, 60, 58
2,122469, Note_on_c, 0, 53, 0
2,122473, Note_on_c, 0, 51, 53
2,122475, Control_c, 0, 64, 59
2,122500, Note_on_c, 0, 51, 0
2,122515, Note_on_c, 0, 60, 0
2,122551, Control_c, 0, 64, 58
2,122559, Note_on_c, 0, 62, 0
2,122567, Control_c, 0, 64, 56
2,122582, Control_c, 0, 64, 55
2,122597, Control_c, 0, 64, 54
2,122604, Note_on_c, 0, 69, 0
2,122609, Note_on_c, 0, 59, 66
2,122613, Control_c, 0, 64, 53
2,122616, Note_on_c, 0, 52, 64
2,122619, Note_on_c, 0, 40, 60
2,122628, Control_c, 0, 64, 52
2,122644, Control_c, 0, 64, 51
2,122659, Control_c, 0, 64, 50
2,122666, Note_on_c, 0, 59, 0
2,122734, Note_on_c, 0, 71, 63
2,122834, Control_c, 0, 64, 51
2,122873, Note_on_c, 0, 68, 71
2,122880, Control_c, 0, 64, 51
2,122880, Note_on_c, 0, 71, 0
2,122889, Note_on_c, 0, 60, 54
2,122940, Note_on_c, 0, 60, 0
2,122993, Note_on_c, 0, 69, 74
2,122996, Note_on_c, 0, 68, 0
2,123130, Note_on_c, 0, 71, 72
2,123136, Note_on_c, 0, 62, 69
2,123163, Note_on_c, 0, 69, 0
2,123169, Control_c, 0, 64, 51
2,123214, Control_c, 0, 64, 50
2,123244, Note_on_c, 0, 62, 0
2,123246, Note_on_c, 0, 60, 74
2,123382, Note_on_c, 0, 64, 70
2,123385, Note_on_c, 0, 60, 0
2,123426, Control_c, 0, 64, 51
2,123442, Control_c, 0, 64, 51
2,123458, Control_c, 0, 64, 52
2,123472, Control_c, 0, 64, 53
2,123488, Control_c, 0, 64, 53
2,123511, Control_c, 0, 64, 54
2,123516, Note_on_c, 0, 62, 72
2,123524, Note_on_c, 0, 64, 0
2,123527, Control_c, 0, 64, 55
2,123542, Control_c, 0, 64, 55
2,123556, Control_c, 0, 64, 56
2,123641, Note_on_c, 0, 62, 0
2,123649, Note_on_c, 0, 60, 77
2,123657, Note_on_c, 0, 71, 0
2,123708, Control_c, 0, 64, 55
2,123708, Note_on_c, 0, 60, 0
2,123739, Control_c, 0, 64, 55
2,123765, Note_on_c, 0, 72, 82
2,123894, Note_on_c, 0, 69, 82
2,123908, Note_on_c, 0, 62, 67
2,123912, Note_on_c, 0, 72, 0
2,123997, Control_c, 0, 64, 55
2,124003, Note_on_c, 0, 62, 0
2,124007, Note_on_c, 0, 71, 84
2,124048, Note_on_c, 0, 69, 0
2,124135, Note_on_c, 0, 72, 82
2,124141, Note_on_c, 0, 64, 75
2,124189, Note_on_c, 0, 71, 0
2,124258, Note_on_c, 0, 62, 82
2,124282, Note_on_c, 0, 64, 0
2,124355, Control_c, 0, 64, 55
2,124402, Note_on_c, 0, 65, 80
2,124423, Note_on_c, 0, 62, 0
2,124432, Control_c, 0, 64, 54
2,124462, Control_c, 0, 64, 54
2,124521, Note_on_c, 0, 64, 83
2,124563, Note_on_c, 0, 65, 0
2,124614, Control_c, 0, 64, 54
2,124653, Note_on_c, 0, 62, 83
2,124658, Note_on_c, 0, 64, 0
2,124677, Note_on_c, 0, 72, 0
2,124724, Note_on_c, 0, 62, 0
2,124774, Note_on_c, 0, 74, 84
2,124898, Note_on_c, 0, 71, 83
2,124903, Note_on_c, 0, 64, 77
2,124924, Note_on_c, 0, 74, 0
2,124948, Control_c, 0, 64, 55
2,125014, Note_on_c, 0, 72, 87
2,125023, Note_on_c, 0, 64, 0
2,125024, Control_c, 0, 64, 55
2,125083, Note_on_c, 0, 71, 0
2,125165, Note_on_c, 0, 74, 86
2,125169, Note_on_c, 0, 65, 77
2,125203, Note_on_c, 0, 72, 0
2,125215, Control_c, 0, 64, 55
2,125230, Control_c, 0, 64, 54
2,125260, Control_c, 0, 64, 54
2,125297, Note_on_c, 0, 72, 82
2,125322, Control_c, 0, 64, 55
2,125337, Control_c, 0, 64, 56
2,125352, Control_c, 0, 64, 57
2,125368, Control_c, 0, 64, 59
2,125382, Control_c, 0, 64, 61
2,125397, Control_c, 0, 64, 63
2,125413, Control_c, 0, 64, 65
2,125428, Control_c, 0, 64, 69
2,125429, Note_on_c, 0, 71, 81
2,125444, Control_c, 0, 64, 74
2,125458, Control_c, 0, 64, 82
2,125465, Note_on_c, 0, 74, 0
2,125470, Note_on_c, 0, 40, 0
2,125473, Control_c, 0, 64, 95
2,125489, Control_c, 0, 64, 121
2,125503, Control_c, 0, 64, 127
2,125551, Note_on_c, 0, 69, 84
2,125565, Note_on_c, 0, 52, 0
2,125575, Note_on_c, 0, 72, 0
2,125581, Note_on_c, 0, 71, 0
2,125616, Note_on_c, 0, 69, 0
2,125655, Control_c, 0, 64, 100
2,125670, Control_c, 0, 64, 82
2,125676, Note_on_c, 0, 68, 82
2,125686, Control_c, 0, 64, 71
2,125700, Control_c, 0, 64, 64
2,125715, Control_c, 0, 64, 59
2,125731, Control_c, 0, 64, 54
2,125746, Control_c, 0, 64, 51
2,125762, Control_c, 0, 64, 48
2,125776, Control_c, 0, 64, 46
2,125791, Control_c, 0, 64, 45
2,125791, Note_on_c, 0, 68, 0
2,125814, Control_c, 0, 64, 44
2,125814, Note_on_c, 0, 71, 81
2,125890, Control_c, 0, 64, 45
2,125905, Control_c, 0, 64, 45
2,125922, Control_c, 0, 64, 47
2,125930, Note_on_c, 0, 72, 82
2,125937, Control_c, 0, 64, 49
2,125938, Note_on_c, 0, 52, 81
2,125951, Control_c, 0, 64, 52
2,125967, Control_c, 0, 64, 55
2,125967, Note_on_c, 0, 71, 0
2,125982, Control_c, 0, 64, 58
2,125997, Control_c, 0, 64, 61
2,126013, Control_c, 0, 64, 63
2,126028, Control_c, 0, 64, 64
2,126043, Control_c, 0, 64, 67
2,126055, Note_on_c, 0, 74, 79
2,126057, Note_on_c, 0, 53, 85
2,126058, Control_c, 0, 64, 69
2,126073, Control_c, 0, 64, 71
2,126073, Note_on_c, 0, 65, 0
2,126080, Note_on_c, 0, 52, 0
2,126083, Note_on_c, 0, 72, 0
2,126089, Control_c, 0, 64, 71
2,126104, Control_c, 0, 64, 70
2,126120, Control_c, 0, 64, 69
2,126135, Control_c, 0, 64, 67
2,126137, Note_on_c, 0, 74, 0
2,126149, Control_c, 0, 64, 65
2,126165, Control_c, 0, 64, 63
2,126180, Control_c, 0, 64, 62
2,126182, Note_on_c, 0, 52, 84
2,126187, Note_on_c, 0, 76, 87
2,126195, Control_c, 0, 64, 61
2,126210, Note_on_c, 0, 53, 0
2,126211, Control_c, 0, 64, 59
2,126225, Control_c, 0, 64, 58
2,126241, Control_c, 0, 64, 56
2,126256, Control_c, 0, 64, 55
2,126270, Control_c, 0, 64, 55
2,126286, Control_c, 0, 64, 54
2,126293, Note_on_c, 0, 52, 0
2,126298, Note_on_c, 0, 77, 88
2,126301, Control_c, 0, 64, 53
2,126316, Control_c, 0, 64, 52
2,126332, Control_c, 0, 64, 52
2,126332, Note_on_c, 0, 76, 0
2,126346, Control_c, 0, 64, 51
2,126362, Control_c, 0, 64, 51
2,126433, Note_on_c, 0, 50, 79
2,126434, Note_on_c, 0, 79, 82
2,126468, Note_on_c, 0, 77, 0
2,126538, Note_on_c, 0, 50, 0
2,126545, Note_on_c, 0, 70, 83
2,126582, Control_c, 0, 64, 51
2,126597, Control_c, 0, 64, 52
2,126613, Control_c, 0, 64, 52
2,126627, Control_c, 0, 64, 53
2,126628, Note_on_c, 0, 70, 0
2,126643, Control_c, 0, 64, 54
2,126658, Control_c, 0, 64, 54
2,126672, Note_on_c, 0, 79, 0
2,126673, Control_c, 0, 64, 55
2,126692, Note_on_c, 0, 69, 79
2,126696, Note_on_c, 0, 49, 86
2,126780, Control_c, 0, 64, 55
2,126799, Note_on_c, 0, 49, 0
2,126816, Note_on_c, 0, 81, 82
2,126826, Control_c, 0, 64, 56
2,126856, Control_c, 0, 64, 56
2,126933, Control_c, 0, 64, 57
2,126945, Note_on_c, 0, 49, 72
2,126945, Note_on_c, 0, 79, 76
2,126952, Note_on_c, 0, 52, 79
2,126979, Control_c, 0, 64, 57
2,127014, Note_on_c, 0, 81, 0
2,127024, Control_c, 0, 64, 58
2,127052, Note_on_c, 0, 50, 81
2,127070, Note_on_c, 0, 77, 80
2,127081, Note_on_c, 0, 52, 0
2,127092, Note_on_c, 0, 49, 0
2,127097, Note_on_c, 0, 53, 49
2,127100, Control_c, 0, 64, 58
2,127108, Note_on_c, 0, 79, 0
2,127126, Note_on_c, 0, 53, 0
2,127194, Note_on_c, 0, 52, 87
2,127197, Note_on_c, 0, 49, 82
2,127202, Note_on_c, 0, 77, 0
2,127202, Note_on_c, 0, 79, 85
2,127236, Control_c, 0, 64, 59
2,127241, Note_on_c, 0, 50, 0
2,127298, Note_on_c, 0, 52, 0
2,127312, Control_c, 0, 64, 59
2,127322, Note_on_c, 0, 73, 75
2,127327, Note_on_c, 0, 49, 0
2,127350, Control_c, 0, 64, 60
2,127365, Note_on_c, 0, 69, 0
2,127426, Control_c, 0, 64, 60
2,127453, Note_on_c, 0, 76, 78
2,127456, Note_on_c, 0, 50, 85
2,127459, Note_on_c, 0, 47, 82
2,127465, Note_on_c, 0, 73, 0
2,127553, Note_on_c, 0, 47, 0
2,127560, Note_on_c, 0, 50, 0
2,127572, Note_on_c, 0, 76, 0
2,127574, Note_on_c, 0, 74, 75
2,127594, Control_c, 0, 64, 60
2,127610, Control_c, 0, 64, 59
2,127624, Control_c, 0, 64, 59
2,127640, Control_c, 0, 64, 58
2,127655, Control_c, 0, 64, 57
2,127670, Control_c, 0, 64, 56
2,127699, Note_on_c, 0, 45, 72
2,127700, Control_c, 0, 64, 56
2,127710, Note_on_c, 0, 76, 80
2,127714, Note_on_c, 0, 49, 76
2,127731, Note_on_c, 0, 74, 0
2,127813, Note_on_c, 0, 46, 76
2,127822, Note_on_c, 0, 77, 81
2,127828, Note_on_c, 0, 76, 0
2,127852, Note_on_c, 0, 45, 0
2,127856, Note_on_c, 0, 49, 0
2,127868, Note_on_c, 0, 47, 73
2,127953, Note_on_c, 0, 49, 82
2,127954, Note_on_c, 0, 76, 80
2,127970, Note_on_c, 0, 46, 0
2,127974, Note_on_c, 0, 47, 0
2,127987, Note_on_c, 0, 77, 0
2,128015, Note_on_c, 0, 79, 0
2,128065, Note_on_c, 0, 47, 80
2,128065, Note_on_c, 0, 50, 78
2,128074, Note_on_c, 0, 77, 87
2,128088, Note_on_c, 0, 49, 0
2,128088, Note_on_c, 0, 76, 0
2,128095, Control_c, 0, 64, 56
2,128193, Control_c, 0, 64, 56
2,128197, Note_on_c, 0, 45, 84
2,128203, Note_on_c, 0, 49, 89
2,128204, Note_on_c, 0, 79, 83
2,128213, Note_on_c, 0, 77, 0
2,128225, Note_on_c, 0, 50, 0
2,128229, Note_on_c, 0, 47, 0
2,128239, Control_c, 0, 64, 55
2,128254, Control_c, 0, 64, 54
2,128269, Control_c, 0, 64, 52
2,128285, Control_c, 0, 64, 48
2,128290, Note_on_c, 0, 45, 0
2,128299, Control_c, 0, 64, 45
2,128305, Note_on_c, 0, 49, 0
2,128314, Control_c, 0, 64, 39
2,128326, Note_on_c, 0, 69, 82
2,128330, Control_c, 0, 64, 28
2,128345, Control_c, 0, 64, 0
2,128453, Control_c, 0, 64, 25
2,128453, Note_on_c, 0, 43, 69
2,128458, Note_on_c, 0, 46, 86
2,128461, Note_on_c, 0, 69, 0
2,128463, Note_on_c, 0, 73, 77
2,128467, Control_c, 0, 64, 43
2,128483, Control_c, 0, 64, 50
2,128498, Control_c, 0, 64, 54
2,128535, Note_on_c, 0, 73, 0
2,128535, Note_on_c, 0, 79, 0
2,128541, Note_on_c, 0, 43, 0
2,128544, Control_c, 0, 64, 54
2,128550, Note_on_c, 0, 46, 0
2,128585, Note_on_c, 0, 74, 82
2,128666, Control_c, 0, 64, 54
2,128696, Control_c, 0, 64, 53
2,128711, Control_c, 0, 64, 50
2,128712, Note_on_c, 0, 74, 0
2,128726, Control_c, 0, 64, 46
2,128741, Control_c, 0, 64, 39
2,128743, Note_on_c, 0, 76, 78
2,128744, Note_on_c, 0, 41, 73
2,128752, Note_on_c, 0, 45, 78
2,128756, Control_c, 0, 64, 32
2,128772, Control_c, 0, 64, 28
2,128787, Control_c, 0, 64, 28
2,128802, Control_c, 0, 64, 28
2,128817, Control_c, 0, 64, 35
2,128832, Control_c, 0, 64, 45
2,128846, Note_on_c, 0, 76, 0
2,128848, Control_c, 0, 64, 53
2,128863, Control_c, 0, 64, 58
2,128886, Control_c, 0, 64, 62
2,128893, Note_on_c, 0, 82, 80
2,128899, Note_on_c, 0, 73, 72
2,128901, Control_c, 0, 64, 64
2,128916, Control_c, 0, 64, 67
2,128932, Control_c, 0, 64, 72
2,128934, Note_on_c, 0, 73, 0
2,128946, Control_c, 0, 64, 80
2,128956, Note_on_c, 0, 82, 0
2,128962, Control_c, 0, 64, 85
2,128977, Control_c, 0, 64, 84
2,128992, Control_c, 0, 64, 80
2,129007, Control_c, 0, 64, 72
2,129021, Note_on_c, 0, 81, 74
2,129022, Control_c, 0, 64, 64
2,129037, Control_c, 0, 64, 54
2,129039, Note_on_c, 0, 74, 65
2,129053, Control_c, 0, 64, 42
2,129068, Control_c, 0, 64, 39
2,129084, Note_on_c, 0, 74, 0
2,129098, Control_c, 0, 64, 38
2,129113, Control_c, 0, 64, 39
2,129129, Control_c, 0, 64, 40
2,129143, Control_c, 0, 64, 46
2,129152, Note_on_c, 0, 79, 79
2,129159, Control_c, 0, 64, 52
2,129174, Control_c, 0, 64, 56
2,129174, Note_on_c, 0, 41, 0
2,129190, Control_c, 0, 64, 59
2,129206, Control_c, 0, 64, 62
2,129217, Note_on_c, 0, 45, 0
2,129221, Control_c, 0, 64, 64
2,129235, Control_c, 0, 64, 68
2,129250, Note_on_c, 0, 81, 0
2,129251, Control_c, 0, 64, 77
2,129266, Control_c, 0, 64, 99
2,129282, Control_c, 0, 64, 127
2,129293, Note_on_c, 0, 77, 88
2,129327, Note_on_c, 0, 79, 0
2,129390, Note_on_c, 0, 77, 0
2,129391, Note_on_c, 0, 76, 84
2,129444, Note_on_c, 0, 76, 0
2,129480, Control_c, 0, 64, 118
2,129495, Control_c, 0, 64, 94
2,129509, Note_on_c, 0, 53, 44
2,129510, Control_c, 0, 64, 82
2,129520, Note_on_c, 0, 65, 72
2,129520, Note_on_c, 0, 74, 79
2,129522, Note_on_c, 0, 69, 80
2,129525, Control_c, 0, 64, 76
2,129540, Control_c, 0, 64, 73
2,129541, Note_on_c, 0, 53, 0
2,129555, Control_c, 0, 64, 71
2,129570, Control_c, 0, 64, 68
2,129583, Note_on_c, 0, 69, 0
2,129585, Control_c, 0, 64, 65
2,129601, Control_c, 0, 64, 61
2,129605, Note_on_c, 0, 65, 0
2,129611, Note_on_c, 0, 74, 0
2,129616, Control_c, 0, 64, 58
2,129627, Note_on_c, 0, 64, 79
2,129632, Note_on_c, 0, 73, 75
2,129637, Note_on_c, 0, 67, 73
2,129669, Control_c, 0, 64, 57
2,129693, Note_on_c, 0, 67, 0
2,129700, Control_c, 0, 64, 57
2,129715, Control_c, 0, 64, 56
2,129739, Note_on_c, 0, 73, 0
2,129761, Control_c, 0, 64, 56
2,129773, Note_on_c, 0, 62, 76
2,129773, Note_on_c, 0, 74, 74
2,129776, Control_c, 0, 64, 55
2,129776, Note_on_c, 0, 58, 72
2,129778, Note_on_c, 0, 65, 79
2,129781, Note_on_c, 0, 64, 0
2,129790, Control_c, 0, 64, 54
2,129836, Control_c, 0, 64, 54
2,129852, Control_c, 0, 64, 53
2,129866, Control_c, 0, 64, 53
2,129882, Control_c, 0, 64, 52
2,129897, Control_c, 0, 64, 51
2,129898, Note_on_c, 0, 74, 0
2,129898, Note_on_c, 0, 76, 80
2,129912, Control_c, 0, 64, 50
2,129928, Control_c, 0, 64, 49
2,129942, Control_c, 0, 64, 48
2,129957, Control_c, 0, 64, 46
2,129973, Control_c, 0, 64, 42
2,129987, Control_c, 0, 64, 39
2,130004, Control_c, 0, 64, 37
2,130024, Note_on_c, 0, 74, 80
2,130037, Note_on_c, 0, 55, 75
2,130040, Note_on_c, 0, 70, 77
2,130050, Control_c, 0, 64, 38
2,130061, Note_on_c, 0, 76, 0
2,130065, Control_c, 0, 64, 44
2,130066, Note_on_c, 0, 58, 0
2,130081, Control_c, 0, 64, 49
2,130081, Note_on_c, 0, 65, 0
2,130095, Control_c, 0, 64, 54
2,130110, Control_c, 0, 64, 58
2,130126, Control_c, 0, 64, 61
2,130141, Control_c, 0, 64, 63
2,130155, Control_c, 0, 64, 66
2,130165, Note_on_c, 0, 74, 0
2,130168, Note_on_c, 0, 76, 84
2,130171, Control_c, 0, 64, 69
2,130186, Control_c, 0, 64, 75
2,130202, Control_c, 0, 64, 83
2,130216, Control_c, 0, 64, 90
2,130231, Control_c, 0, 64, 95
2,130247, Control_c, 0, 64, 96
2,130262, Control_c, 0, 64, 95
2,130264, Note_on_c, 0, 76, 0
2,130293, Control_c, 0, 64, 95
2,130308, Control_c, 0, 64, 94
2,130324, Control_c, 0, 64, 91
2,130339, Control_c, 0, 64, 86
2,130345, Note_on_c, 0, 76, 83
2,130351, Note_on_c, 0, 57, 70
2,130354, Control_c, 0, 64, 75
2,130361, Note_on_c, 0, 69, 68
2,130369, Control_c, 0, 64, 66
2,130384, Control_c, 0, 64, 58
2,130387, Note_on_c, 0, 55, 0
2,130400, Control_c, 0, 64, 47
2,130404, Note_on_c, 0, 70, 0
2,130421, Control_c, 0, 64, 43
2,130436, Control_c, 0, 64, 40
2,130452, Control_c, 0, 64, 35
2,130467, Control_c, 0, 64, 25
2,130483, Control_c, 0, 64, 16
2,130498, Control_c, 0, 64, 11
2,130619, Control_c, 0, 64, 13
2,130634, Control_c, 0, 64, 22
2,130650, Control_c, 0, 64, 30
2,130665, Control_c, 0, 64, 39
2,130681, Control_c, 0, 64, 47
2,130695, Control_c, 0, 64, 52
2,130710, Control_c, 0, 64, 57
2,130726, Control_c, 0, 64, 60
2,130731, Note_on_c, 0, 67, 69
2,130733, Note_on_c, 0, 61, 59
2,130741, Control_c, 0, 64, 63
2,130751, Note_on_c, 0, 57, 0
2,130756, Control_c, 0, 64, 65
2,130761, Note_on_c, 0, 76, 0
2,130771, Control_c, 0, 64, 68
2,130780, Note_on_c, 0, 69, 0
2,130786, Control_c, 0, 64, 72
2,130801, Note_on_c, 0, 61, 0
2,130802, Control_c, 0, 64, 77
2,130817, Control_c, 0, 64, 79
2,130833, Control_c, 0, 64, 79
2,130849, Control_c, 0, 64, 78
2,130860, Note_on_c, 0, 62, 0
2,130863, Control_c, 0, 64, 77
2,130878, Control_c, 0, 64, 77
2,130880, Note_on_c, 0, 74, 71
2,130909, Control_c, 0, 64, 75
2,130924, Control_c, 0, 64, 73
2,130939, Control_c, 0, 64, 70
2,130953, Note_on_c, 0, 74, 0
2,130954, Control_c, 0, 64, 69
2,130970, Control_c, 0, 64, 68
2,130985, Control_c, 0, 64, 67
2,131000, Control_c, 0, 64, 66
2,131015, Control_c, 0, 64, 64
2,131030, Control_c, 0, 64, 62
2,131046, Control_c, 0, 64, 59
2,131060, Control_c, 0, 64, 56
2,131075, Control_c, 0, 64, 52
2,131077, Note_on_c, 0, 74, 74
2,131081, Note_on_c, 0, 62, 65
2,131082, Note_on_c, 0, 50, 61
2,131091, Control_c, 0, 64, 47
2,131106, Control_c, 0, 64, 43
2,131118, Note_on_c, 0, 67, 0
2,131122, Control_c, 0, 64, 40
2,131137, Control_c, 0, 64, 38
2,131152, Control_c, 0, 64, 38
2,131155, Note_on_c, 0, 62, 0
2,131190, Note_on_c, 0, 50, 0
2,131424, Note_on_c, 0, 57, 67
2,131425, Note_on_c, 0, 50, 64
2,131433, Note_on_c, 0, 65, 58
2,131541, Note_on_c, 0, 49, 72
2,131543, Note_on_c, 0, 64, 69
2,131550, Note_on_c, 0, 65, 0
2,131564, Note_on_c, 0, 50, 0
2,131683, Note_on_c, 0, 50, 84
2,131693, Note_on_c, 0, 65, 73
2,131717, Note_on_c, 0, 49, 0
2,131720, Note_on_c, 0, 64, 0
2,131801, Note_on_c, 0, 50, 0
2,131813, Note_on_c, 0, 67, 75
2,131824, Note_on_c, 0, 65, 0
2,131956, Note_on_c, 0, 52, 88
2,131963, Note_on_c, 0, 69, 74
2,131997, Note_on_c, 0, 67, 0
2,132049, Control_c, 0, 64, 34
2,132063, Control_c, 0, 64, 18
2,132063, Note_on_c, 0, 52, 0
2,132078, Control_c, 0, 64, 0
2,132082, Note_on_c, 0, 65, 75
2,132165, Note_on_c, 0, 69, 0
2,132204, Note_on_c, 0, 74, 0
2,132228, Note_on_c, 0, 53, 89
2,132229, Control_c, 0, 64, 9
2,132232, Note_on_c, 0, 62, 79
2,132244, Control_c, 0, 64, 35
2,132260, Control_c, 0, 64, 50
2,132275, Control_c, 0, 64, 57
2,132289, Note_on_c, 0, 65, 0
2,132291, Control_c, 0, 64, 61
2,132305, Control_c, 0, 64, 63
2,132314, Note_on_c, 0, 57, 0
2,132320, Control_c, 0, 64, 65
2,132322, Note_on_c, 0, 62, 0
2,132336, Control_c, 0, 64, 66
2,132349, Note_on_c, 0, 53, 0
2,132351, Control_c, 0, 64, 65
2,132367, Control_c, 0, 64, 65
2,132382, Control_c, 0, 64, 63
2,132397, Control_c, 0, 64, 61
2,132413, Control_c, 0, 64, 58
2,132428, Control_c, 0, 64, 55
2,132442, Control_c, 0, 64, 51
2,132459, Control_c, 0, 64, 48
2,132474, Control_c, 0, 64, 45
2,132489, Control_c, 0, 64, 42
2,132504, Control_c, 0, 64, 40
2,132516, Note_on_c, 0, 53, 78
2,132519, Control_c, 0, 64, 39
2,132519, Note_on_c, 0, 57, 80
2,132535, Control_c, 0, 64, 38
2,132549, Control_c, 0, 64, 37
2,132564, Control_c, 0, 64, 36
2,132580, Control_c, 0, 64, 36
2,132595, Control_c, 0, 64, 35
2,132622, Note_on_c, 0, 52, 78
2,132626, Note_on_c, 0, 53, 0
2,132627, Note_on_c, 0, 56, 81
2,132660, Note_on_c, 0, 57, 0
2,132775, Note_on_c, 0, 57, 88
2,132779, Note_on_c, 0, 54, 93
2,132824, Note_on_c, 0, 52, 0
2,132828, Note_on_c, 0, 56, 0
2,132902, Note_on_c, 0, 57, 0
2,132924, Note_on_c, 0, 54, 0
2,133047, Note_on_c, 0, 59, 86
2,133051, Note_on_c, 0, 56, 91
2,133134, Control_c, 0, 64, 36
2,133161, Note_on_c, 0, 59, 0
2,133164, Control_c, 0, 64, 36
2,133180, Control_c, 0, 64, 37
2,133187, Note_on_c, 0, 56, 0
2,133211, Control_c, 0, 64, 37
2,133240, Control_c, 0, 64, 38
2,133309, Note_on_c, 0, 60, 84
2,133323, Note_on_c, 0, 57, 86
2,133409, Control_c, 0, 64, 39
2,133424, Control_c, 0, 64, 39
2,133432, Note_on_c, 0, 56, 82
2,133434, Note_on_c, 0, 60, 0
2,133439, Control_c, 0, 64, 40
2,133454, Control_c, 0, 64, 41
2,133456, Note_on_c, 0, 57, 0
2,133492, Control_c, 0, 64, 41
2,133538, Control_c, 0, 64, 42
2,133575, Note_on_c, 0, 54, 83
2,133575, Note_on_c, 0, 60, 73
2,133607, Note_on_c, 0, 56, 0
2,133675, Note_on_c, 0, 59, 84
2,133679, Note_on_c, 0, 56, 88
2,133681, Note_on_c, 0, 60, 0
2,133734, Note_on_c, 0, 54, 0
2,133823, Note_on_c, 0, 60, 90
2,133825, Note_on_c, 0, 57, 91
2,133850, Note_on_c, 0, 59, 0
2,133876, Note_on_c, 0, 56, 0
2,133951, Note_on_c, 0, 60, 0
2,133978, Note_on_c, 0, 57, 0
2,134109, Note_on_c, 0, 62, 86
2,134115, Control_c, 0, 64, 44
2,134117, Note_on_c, 0, 59, 95
2,134131, Control_c, 0, 64, 49
2,134146, Control_c, 0, 64, 53
2,134161, Control_c, 0, 64, 56
2,134177, Control_c, 0, 64, 58
2,134192, Control_c, 0, 64, 58
2,134226, Note_on_c, 0, 62, 0
2,134229, Note_on_c, 0, 59, 0
2,134275, Control_c, 0, 64, 58
2,134291, Control_c, 0, 64, 57
2,134305, Control_c, 0, 64, 56
2,134320, Control_c, 0, 64, 56
2,134336, Control_c, 0, 64, 55
2,134351, Control_c, 0, 64, 55
2,134365, Control_c, 0, 64, 54
2,134381, Control_c, 0, 64, 54
2,134393, Note_on_c, 0, 64, 79
2,134398, Note_on_c, 0, 48, 87
2,134412, Control_c, 0, 64, 53
2,134427, Control_c, 0, 64, 53
2,134512, Note_on_c, 0, 62, 77
2,134531, Note_on_c, 0, 48, 0
2,134533, Note_on_c, 0, 64, 0
2,134644, Note_on_c, 0, 60, 77
2,134653, Note_on_c, 0, 45, 72
2,134670, Note_on_c, 0, 62, 0
2,134768, Note_on_c, 0, 62, 87
2,134797, Note_on_c, 0, 60, 0
2,134810, Note_on_c, 0, 45, 0
2,134912, Note_on_c, 0, 64, 88
2,134944, Control_c, 0, 64, 52
2,134959, Control_c, 0, 64, 52
2,134968, Note_on_c, 0, 62, 0
2,134975, Control_c, 0, 64, 51
2,134990, Control_c, 0, 64, 51
2,135005, Control_c, 0, 64, 50
2,135028, Control_c, 0, 64, 50
2,135069, Note_on_c, 0, 64, 0
2,135089, Control_c, 0, 64, 49
2,135180, Control_c, 0, 64, 50
2,135195, Control_c, 0, 64, 52
2,135203, Note_on_c, 0, 65, 83
2,135207, Note_on_c, 0, 50, 80
2,135210, Control_c, 0, 64, 55
2,135225, Control_c, 0, 64, 59
2,135240, Control_c, 0, 64, 62
2,135256, Control_c, 0, 64, 65
2,135271, Control_c, 0, 64, 69
2,135287, Control_c, 0, 64, 78
2,135289, Note_on_c, 0, 65, 0
2,135302, Control_c, 0, 64, 94
2,135317, Control_c, 0, 64, 123
2,135331, Note_on_c, 0, 50, 0
2,135332, Control_c, 0, 64, 114
2,135347, Control_c, 0, 64, 100
2,135362, Control_c, 0, 64, 87
2,135378, Control_c, 0, 64, 78
2,135393, Control_c, 0, 64, 72
2,135408, Control_c, 0, 64, 67
2,135423, Control_c, 0, 64, 64
2,135438, Control_c, 0, 64, 60
2,135454, Control_c, 0, 64, 56
2,135469, Control_c, 0, 64, 51
2,135475, Note_on_c, 0, 56, 82
2,135479, Note_on_c, 0, 52, 71
2,135483, Control_c, 0, 64, 47
2,135499, Control_c, 0, 64, 43
2,135514, Control_c, 0, 64, 40
2,135529, Control_c, 0, 64, 37
2,135544, Control_c, 0, 64, 35
2,135559, Control_c, 0, 64, 33
2,135575, Control_c, 0, 64, 32
2,135588, Note_on_c, 0, 53, 71
2,135589, Note_on_c, 0, 52, 0
2,135590, Control_c, 0, 64, 31
2,135605, Control_c, 0, 64, 30
2,135633, Note_on_c, 0, 56, 0
2,135688, Note_on_c, 0, 53, 0
2,135727, Note_on_c, 0, 50, 72
2,135736, Note_on_c, 0, 52, 71
2,135744, Control_c, 0, 64, 32
2,135759, Control_c, 0, 64, 33
2,135775, Control_c, 0, 64, 34
2,135776, Note_on_c, 0, 52, 0
2,135797, Control_c, 0, 64, 36
2,135812, Control_c, 0, 64, 37
2,135827, Control_c, 0, 64, 38
2,135842, Control_c, 0, 64, 38
2,135853, Note_on_c, 0, 52, 78
2,135858, Control_c, 0, 64, 39
2,135873, Control_c, 0, 64, 39
2,135873, Note_on_c, 0, 50, 0
2,135889, Control_c, 0, 64, 40
2,135934, Control_c, 0, 64, 40
2,135983, Note_on_c, 0, 53, 84
2,135986, Note_on_c, 0, 52, 0
2,136025, Control_c, 0, 64, 40
2,136040, Control_c, 0, 64, 40
2,136100, Note_on_c, 0, 55, 79
2,136115, Note_on_c, 0, 53, 0
2,136116, Control_c, 0, 64, 41
2,136131, Control_c, 0, 64, 43
2,136146, Control_c, 0, 64, 46
2,136161, Control_c, 0, 64, 49
2,136176, Control_c, 0, 64, 53
2,136191, Control_c, 0, 64, 55
2,136207, Control_c, 0, 64, 55
2,136227, Note_on_c, 0, 57, 73
2,136228, Note_on_c, 0, 52, 78
2,136245, Note_on_c, 0, 55, 0
2,136305, Note_on_c, 0, 57, 0
2,136335, Note_on_c, 0, 54, 89
2,136383, Note_on_c, 0, 52, 0
2,136419, Control_c, 0, 64, 55
2,136450, Control_c, 0, 64, 54
2,136464, Control_c, 0, 64, 54
2,136479, Control_c, 0, 64, 53
2,136484, Note_on_c, 0, 55, 80
2,136493, Note_on_c, 0, 59, 70
2,136495, Control_c, 0, 64, 52
2,136510, Control_c, 0, 64, 52
2,136521, Note_on_c, 0, 54, 0
2,136525, Control_c, 0, 64, 51
2,136540, Control_c, 0, 64, 51
2,136595, Control_c, 0, 64, 50
2,136615, Note_on_c, 0, 55, 0
2,136623, Note_on_c, 0, 60, 64
2,136640, Note_on_c, 0, 59, 0
2,136742, Note_on_c, 0, 60, 0
2,136759, Note_on_c, 0, 53, 71
2,136765, Note_on_c, 0, 57, 62
2,136777, Control_c, 0, 64, 50
2,136866, Note_on_c, 0, 53, 0
2,136881, Note_on_c, 0, 59, 70
2,136889, Note_on_c, 0, 57, 0
2,137016, Note_on_c, 0, 52, 75
2,137017, Note_on_c, 0, 60, 77
2,137035, Control_c, 0, 64, 50
2,137036, Note_on_c, 0, 59, 0
2,137081, Control_c, 0, 64, 51
2,137123, Note_on_c, 0, 52, 0
2,137127, Control_c, 0, 64, 51
2,137136, Note_on_c, 0, 62, 75
2,137154, Note_on_c, 0, 60, 0
2,137266, Note_on_c, 0, 57, 76
2,137268, Note_on_c, 0, 59, 75
2,137270, Note_on_c, 0, 62, 0
2,137332, Control_c, 0, 64, 51
2,137347, Control_c, 0, 64, 50
2,137362, Control_c, 0, 64, 49
2,137378, Control_c, 0, 64, 47
2,137389, Note_on_c, 0, 61, 73
2,137393, Control_c, 0, 64, 43
2,137408, Control_c, 0, 64, 33
2,137412, Note_on_c, 0, 57, 0
2,137423, Control_c, 0, 64, 22
2,137438, Control_c, 0, 64, 9
2,137444, Note_on_c, 0, 59, 0
2,137454, Control_c, 0, 64, 0
2,137544, Note_on_c, 0, 62, 71
2,137545, Control_c, 0, 64, 19
2,137549, Note_on_c, 0, 50, 69
2,137560, Control_c, 0, 64, 40
2,137576, Control_c, 0, 64, 53
2,137581, Note_on_c, 0, 61, 0
2,137591, Control_c, 0, 64, 60
2,137605, Control_c, 0, 64, 64
2,137617, Note_on_c, 0, 62, 0
2,137621, Control_c, 0, 64, 66
2,137629, Note_on_c, 0, 50, 0
2,137636, Control_c, 0, 64, 70
2,137652, Control_c, 0, 64, 74
2,137666, Control_c, 0, 64, 77
2,137697, Control_c, 0, 64, 76
2,137712, Control_c, 0, 64, 74
2,137728, Control_c, 0, 64, 72
2,137742, Control_c, 0, 64, 70
2,137757, Control_c, 0, 64, 68
2,137773, Control_c, 0, 64, 65
2,137788, Control_c, 0, 64, 60
2,137803, Control_c, 0, 64, 53
2,137818, Control_c, 0, 64, 46
2,137830, Note_on_c, 0, 57, 52
2,137831, Note_on_c, 0, 76, 61
2,137833, Control_c, 0, 64, 39
2,137833, Note_on_c, 0, 60, 62
2,137849, Control_c, 0, 64, 33
2,137864, Control_c, 0, 64, 24
2,137879, Control_c, 0, 64, 0
2,137923, Note_on_c, 0, 76, 0
2,137939, Note_on_c, 0, 77, 63
2,138097, Note_on_c, 0, 76, 68
2,138099, Note_on_c, 0, 60, 0
2,138103, Note_on_c, 0, 59, 65
2,138131, Note_on_c, 0, 57, 0
2,138131, Note_on_c, 0, 77, 0
2,138188, Note_on_c, 0, 76, 0
2,138223, Note_on_c, 0, 56, 55
2,138343, Note_on_c, 0, 56, 0
2,138355, Note_on_c, 0, 74, 67
2,138359, Note_on_c, 0, 57, 57
2,138363, Note_on_c, 0, 64, 55
2,138429, Note_on_c, 0, 59, 0
2,138443, Note_on_c, 0, 74, 0
2,138473, Note_on_c, 0, 56, 62
2,138473, Note_on_c, 0, 57, 0
2,138484, Note_on_c, 0, 64, 0
2,138621, Note_on_c, 0, 56, 0
2,138625, Note_on_c, 0, 57, 53
2,138628, Note_on_c, 0, 72, 61
2,138692, Control_c, 0, 64, 15
2,138706, Control_c, 0, 64, 24
2,138721, Control_c, 0, 64, 29
2,138732, Note_on_c, 0, 72, 0
2,138737, Control_c, 0, 64, 31
2,138752, Control_c, 0, 64, 32
2,138900, Note_on_c, 0, 69, 62
2,138900, Note_on_c, 0, 72, 60
2,138982, Note_on_c, 0, 69, 0
2,138983, Note_on_c, 0, 72, 0
2,139008, Note_on_c, 0, 74, 61
2,139030, Note_on_c, 0, 71, 60
2,139138, Note_on_c, 0, 74, 0
2,139148, Note_on_c, 0, 72, 70
2,139149, Note_on_c, 0, 71, 0
2,139159, Note_on_c, 0, 69, 61
2,139242, Note_on_c, 0, 72, 0
2,139269, Note_on_c, 0, 55, 50
2,139282, Note_on_c, 0, 69, 0
2,139378, Note_on_c, 0, 55, 0
2,139398, Control_c, 0, 64, 34
2,139402, Note_on_c, 0, 70, 65
2,139403, Note_on_c, 0, 53, 49
2,139412, Note_on_c, 0, 67, 60
2,139414, Control_c, 0, 64, 38
2,139429, Control_c, 0, 64, 41
2,139444, Control_c, 0, 64, 43
2,139460, Control_c, 0, 64, 43
2,139490, Control_c, 0, 64, 44
2,139499, Note_on_c, 0, 67, 0
2,139505, Note_on_c, 0, 53, 0
2,139527, Note_on_c, 0, 52, 52
2,139530, Note_on_c, 0, 70, 0
2,139655, Note_on_c, 0, 52, 0
2,139665, Note_on_c, 0, 53, 48
2,139677, Note_on_c, 0, 69, 63
2,139679, Control_c, 0, 64, 43
2,139681, Note_on_c, 0, 65, 57
2,139695, Control_c, 0, 64, 42
2,139710, Control_c, 0, 64, 41
2,139725, Control_c, 0, 64, 41
2,139756, Control_c, 0, 64, 40
2,139784, Note_on_c, 0, 70, 70
2,139787, Control_c, 0, 64, 40
2,139793, Note_on_c, 0, 57, 0
2,139793, Note_on_c, 0, 69, 0
2,139796, Note_on_c, 0, 65, 0
2,139802, Control_c, 0, 64, 39
2,139833, Control_c, 0, 64, 38
2,139849, Control_c, 0, 64, 35
2,139863, Control_c, 0, 64, 31
2,139878, Control_c, 0, 64, 24
2,139894, Control_c, 0, 64, 0
2,139920, Note_on_c, 0, 72, 73
2,139925, Note_on_c, 0, 70, 0
2,139930, Note_on_c, 0, 57, 53
2,139939, Note_on_c, 0, 65, 52
2,139998, Note_on_c, 0, 65, 0
2,140029, Note_on_c, 0, 57, 0
2,140034, Note_on_c, 0, 70, 75
2,140049, Note_on_c, 0, 58, 63
2,140049, Note_on_c, 0, 67, 64
2,140121, Control_c, 0, 64, 17
2,140133, Note_on_c, 0, 53, 0
2,140135, Note_on_c, 0, 72, 0
2,140137, Control_c, 0, 64, 39
2,140152, Control_c, 0, 64, 52
2,140162, Note_on_c, 0, 58, 0
2,140168, Control_c, 0, 64, 59
2,140172, Note_on_c, 0, 69, 78
2,140183, Control_c, 0, 64, 63
2,140184, Note_on_c, 0, 60, 65
2,140193, Note_on_c, 0, 65, 58
2,140194, Note_on_c, 0, 67, 0
2,140197, Control_c, 0, 64, 66
2,140209, Note_on_c, 0, 70, 0
2,140213, Control_c, 0, 64, 70
2,140226, Note_on_c, 0, 69, 0
2,140228, Control_c, 0, 64, 73
2,140239, Note_on_c, 0, 65, 0
2,140243, Control_c, 0, 64, 74
2,140259, Control_c, 0, 64, 73
2,140262, Note_on_c, 0, 60, 0
2,140273, Control_c, 0, 64, 71
2,140282, Note_on_c, 0, 52, 63
2,140289, Control_c, 0, 64, 69
2,140304, Control_c, 0, 64, 67
2,140318, Control_c, 0, 64, 65
2,140334, Control_c, 0, 64, 63
2,140349, Control_c, 0, 64, 60
2,140364, Control_c, 0, 64, 52
2,140380, Control_c, 0, 64, 42
2,140402, Control_c, 0, 64, 32
2,140414, Note_on_c, 0, 52, 0
2,140418, Control_c, 0, 64, 27
2,140422, Note_on_c, 0, 64, 56
2,140433, Control_c, 0, 64, 26
2,140435, Note_on_c, 0, 67, 77
2,140439, Note_on_c, 0, 58, 68
2,140441, Note_on_c, 0, 50, 63
2,140464, Control_c, 0, 64, 27
2,140478, Control_c, 0, 64, 37
2,140483, Note_on_c, 0, 58, 0
2,140494, Control_c, 0, 64, 50
2,140505, Note_on_c, 0, 64, 0
2,140509, Control_c, 0, 64, 58
2,140522, Note_on_c, 0, 67, 0
2,140523, Control_c, 0, 64, 64
2,140536, Note_on_c, 0, 50, 0
2,140539, Control_c, 0, 64, 68
2,140542, Note_on_c, 0, 49, 67
2,140554, Control_c, 0, 64, 73
2,140570, Control_c, 0, 64, 81
2,140585, Control_c, 0, 64, 84
2,140600, Control_c, 0, 64, 83
2,140615, Control_c, 0, 64, 78
2,140630, Control_c, 0, 64, 71
2,140645, Control_c, 0, 64, 65
2,140662, Control_c, 0, 64, 61
2,140674, Note_on_c, 0, 50, 64
2,140676, Note_on_c, 0, 49, 0
2,140677, Control_c, 0, 64, 60
2,140688, Note_on_c, 0, 77, 86
2,140704, Note_on_c, 0, 50, 0
2,140707, Control_c, 0, 64, 59
2,140708, Note_on_c, 0, 62, 75
2,140722, Control_c, 0, 64, 57
2,140738, Control_c, 0, 64, 54
2,140753, Control_c, 0, 64, 51
2,140753, Note_on_c, 0, 62, 0
2,140769, Control_c, 0, 64, 50
2,140783, Control_c, 0, 64, 49
2,140789, Note_on_c, 0, 77, 0
2,140798, Control_c, 0, 64, 47
2,140805, Note_on_c, 0, 64, 64
2,140814, Control_c, 0, 64, 45
2,140829, Control_c, 0, 64, 42
2,140844, Control_c, 0, 64, 39
2,140860, Control_c, 0, 64, 36
2,140875, Control_c, 0, 64, 32
2,140891, Control_c, 0, 64, 28
2,140905, Control_c, 0, 64, 24
2,140920, Control_c, 0, 64, 18
2,140921, Note_on_c, 0, 64, 0
2,140936, Control_c, 0, 64, 11
2,140944, Note_on_c, 0, 62, 49
2,140950, Note_on_c, 0, 81, 67
2,140951, Control_c, 0, 64, 0
2,140957, Note_on_c, 0, 65, 47
2,141037, Note_on_c, 0, 65, 0
2,141052, Note_on_c, 0, 62, 0
2,141071, Note_on_c, 0, 64, 55
2,141088, Control_c, 0, 64, 25
2,141103, Control_c, 0, 64, 36
2,141117, Control_c, 0, 64, 45
2,141133, Control_c, 0, 64, 52
2,141148, Control_c, 0, 64, 56
2,141171, Control_c, 0, 64, 59
2,141178, Note_on_c, 0, 81, 0
2,141186, Control_c, 0, 64, 61
2,141196, Note_on_c, 0, 64, 0
2,141201, Control_c, 0, 64, 62
2,141226, Note_on_c, 0, 62, 50
2,141228, Note_on_c, 0, 65, 57
2,141247, Control_c, 0, 64, 61
2,141262, Control_c, 0, 64, 59
2,141276, Note_on_c, 0, 65, 0
2,141277, Control_c, 0, 64, 56
2,141293, Control_c, 0, 64, 52
2,141307, Control_c, 0, 64, 49
2,141322, Control_c, 0, 64, 45
2,141336, Note_on_c, 0, 67, 62
2,141338, Control_c, 0, 64, 42
2,141353, Control_c, 0, 64, 38
2,141369, Control_c, 0, 64, 35
2,141383, Control_c, 0, 64, 34
2,141459, Control_c, 0, 64, 36
2,141472, Note_on_c, 0, 76, 63
2,141475, Control_c, 0, 64, 41
2,141481, Note_on_c, 0, 67, 0
2,141483, Note_on_c, 0, 62, 0
2,141485, Note_on_c, 0, 69, 71
2,141490, Note_on_c, 0, 61, 61
2,141491, Control_c, 0, 64, 47
2,141506, Control_c, 0, 64, 53
2,141521, Control_c, 0, 64, 58
2,141537, Control_c, 0, 64, 61
2,141551, Control_c, 0, 64, 63
2,141567, Control_c, 0, 64, 66
2,141582, Control_c, 0, 64, 70
2,141583, Note_on_c, 0, 76, 0
2,141596, Control_c, 0, 64, 76
2,141612, Control_c, 0, 64, 80
2,141642, Control_c, 0, 64, 79
2,141689, Control_c, 0, 64, 79
2,141704, Control_c, 0, 64, 78
2,141719, Control_c, 0, 64, 76
2,141734, Control_c, 0, 64, 72
2,141739, Note_on_c, 0, 74, 66
2,141745, Note_on_c, 0, 70, 78
2,141749, Control_c, 0, 64, 68
2,141764, Control_c, 0, 64, 63
2,141780, Control_c, 0, 64, 58
2,141793, Note_on_c, 0, 61, 0
2,141795, Control_c, 0, 64, 53
2,141797, Note_on_c, 0, 69, 0
2,141810, Control_c, 0, 64, 50
2,141820, Note_on_c, 0, 70, 0
2,141825, Control_c, 0, 64, 48
2,141838, Note_on_c, 0, 74, 0
2,141840, Control_c, 0, 64, 43
2,141856, Control_c, 0, 64, 38
2,141858, Note_on_c, 0, 73, 67
2,141871, Control_c, 0, 64, 32
2,141885, Control_c, 0, 64, 29
2,141901, Control_c, 0, 64, 29
2,141970, Note_on_c, 0, 73, 0
2,142009, Note_on_c, 0, 76, 63
2,142015, Control_c, 0, 64, 29
2,142020, Note_on_c, 0, 67, 61
2,142022, Note_on_c, 0, 74, 68
2,142030, Control_c, 0, 64, 32
2,142045, Control_c, 0, 64, 36
2,142061, Control_c, 0, 64, 38
2,142063, Note_on_c, 0, 74, 0
2,142076, Control_c, 0, 64, 40
2,142091, Control_c, 0, 64, 41
2,142117, Note_on_c, 0, 76, 0
2,142123, Note_on_c, 0, 74, 59
2,142167, Control_c, 0, 64, 40
2,142182, Control_c, 0, 64, 39
2,142227, Control_c, 0, 64, 40
2,142242, Control_c, 0, 64, 42
2,142258, Control_c, 0, 64, 44
2,142266, Note_on_c, 0, 73, 67
2,142271, Note_on_c, 0, 74, 0
2,142273, Control_c, 0, 64, 45
2,142273, Note_on_c, 0, 67, 0
2,142370, Note_on_c, 0, 73, 0
2,142376, Note_on_c, 0, 71, 70
2,142381, Control_c, 0, 64, 44
2,142440, Control_c, 0, 64, 44
2,142456, Control_c, 0, 64, 43
2,142471, Control_c, 0, 64, 42
2,142487, Control_c, 0, 64, 41
2,142502, Control_c, 0, 64, 40
2,142502, Note_on_c, 0, 69, 65
2,142502, Note_on_c, 0, 71, 0
2,142511, Note_on_c, 0, 65, 71
2,142511, Note_on_c, 0, 74, 61
2,142517, Control_c, 0, 64, 39
2,142578, Control_c, 0, 64, 40
2,142592, Note_on_c, 0, 69, 0
2,142593, Control_c, 0, 64, 43
2,142609, Control_c, 0, 64, 48
2,142621, Note_on_c, 0, 73, 66
2,142624, Control_c, 0, 64, 52
2,142639, Control_c, 0, 64, 57
2,142654, Control_c, 0, 64, 61
2,142669, Control_c, 0, 64, 64
2,142684, Control_c, 0, 64, 67
2,142691, Note_on_c, 0, 74, 0
2,142707, Control_c, 0, 64, 70
2,142722, Control_c, 0, 64, 75
2,142737, Control_c, 0, 64, 80
2,142752, Control_c, 0, 64, 81
2,142758, Note_on_c, 0, 65, 0
2,142764, Note_on_c, 0, 71, 69
2,142768, Control_c, 0, 64, 79
2,142768, Note_on_c, 0, 67, 72
2,142783, Control_c, 0, 64, 78
2,142796, Note_on_c, 0, 73, 0
2,142798, Control_c, 0, 64, 77
2,142814, Control_c, 0, 64, 76
2,142829, Control_c, 0, 64, 75
2,142844, Control_c, 0, 64, 74
2,142859, Control_c, 0, 64, 73
2,142868, Note_on_c, 0, 67, 0
2,142870, Note_on_c, 0, 65, 75
2,142874, Control_c, 0, 64, 72
2,142890, Control_c, 0, 64, 72
2,142905, Control_c, 0, 64, 71
2,142920, Control_c, 0, 64, 69
2,142935, Control_c, 0, 64, 67
2,142950, Control_c, 0, 64, 65
2,142965, Control_c, 0, 64, 63
2,142974, Note_on_c, 0, 65, 0
2,142980, Control_c, 0, 64, 62
2,142995, Control_c, 0, 64, 61
2,143010, Note_on_c, 0, 73, 70
2,143011, Control_c, 0, 64, 60
2,143012, Note_on_c, 0, 64, 79
2,143012, Note_on_c, 0, 69, 75
2,143015, Note_on_c, 0, 71, 0
2,143026, Control_c, 0, 64, 59
2,143041, Control_c, 0, 64, 57
2,143056, Control_c, 0, 64, 56
2,143084, Note_on_c, 0, 64, 0
2,143087, Control_c, 0, 64, 55
2,143102, Control_c, 0, 64, 55
2,143116, Note_on_c, 0, 69, 0
2,143118, Control_c, 0, 64, 53
2,143123, Note_on_c, 0, 67, 76
2,143134, Control_c, 0, 64, 52
2,143149, Control_c, 0, 64, 52
2,143163, Control_c, 0, 64, 51
2,143194, Control_c, 0, 64, 51
2,143204, Note_on_c, 0, 73, 0
2,143210, Control_c, 0, 64, 50
2,143224, Control_c, 0, 64, 48
2,143242, Control_c, 0, 64, 45
2,143257, Control_c, 0, 64, 42
2,143270, Note_on_c, 0, 65, 72
2,143270, Note_on_c, 0, 74, 66
2,143272, Control_c, 0, 64, 38
2,143273, Note_on_c, 0, 67, 0
2,143283, Note_on_c, 0, 62, 68
2,143287, Control_c, 0, 64, 34
2,143302, Control_c, 0, 64, 28
2,143317, Control_c, 0, 64, 21
2,143333, Control_c, 0, 64, 0
2,143369, Note_on_c, 0, 65, 0
2,143379, Note_on_c, 0, 64, 65
2,143493, Control_c, 0, 64, 24
2,143507, Control_c, 0, 64, 38
2,143518, Note_on_c, 0, 64, 0
2,143523, Control_c, 0, 64, 50
2,143525, Note_on_c, 0, 69, 68
2,143529, Note_on_c, 0, 67, 68
2,143538, Control_c, 0, 64, 57
2,143553, Control_c, 0, 64, 61
2,143569, Control_c, 0, 64, 64
2,143576, Note_on_c, 0, 74, 0
2,143583, Control_c, 0, 64, 68
2,143598, Control_c, 0, 64, 74
2,143614, Control_c, 0, 64, 82
2,143623, Note_on_c, 0, 67, 0
2,143629, Control_c, 0, 64, 92
2,143636, Note_on_c, 0, 65, 68
2,143645, Control_c, 0, 64, 96
2,143645, Note_on_c, 0, 69, 0
2,143659, Control_c, 0, 64, 95
2,143669, Note_on_c, 0, 65, 0
2,143674, Control_c, 0, 64, 92
2,143690, Control_c, 0, 64, 90
2,143705, Control_c, 0, 64, 87
2,143721, Control_c, 0, 64, 81
2,143736, Control_c, 0, 64, 75
2,143751, Control_c, 0, 64, 69
2,143767, Control_c, 0, 64, 63
2,143780, Note_on_c, 0, 76, 71
2,143781, Control_c, 0, 64, 57
2,143796, Control_c, 0, 64, 52
2,143804, Note_on_c, 0, 64, 64
2,143812, Control_c, 0, 64, 51
2,143826, Control_c, 0, 64, 50
2,143900, Note_on_c, 0, 61, 68
2,143901, Note_on_c, 0, 62, 0
2,143910, Note_on_c, 0, 64, 0
2,144035, Note_on_c, 0, 64, 69
2,144042, Note_on_c, 0, 65, 72
2,144050, Note_on_c, 0, 61, 0
2,144121, Note_on_c, 0, 65, 0
2,144148, Note_on_c, 0, 62, 71
2,144154, Note_on_c, 0, 64, 0
2,144301, Note_on_c, 0, 67, 73
2,144307, Note_on_c, 0, 61, 67
2,144332, Note_on_c, 0, 62, 0
2,144420, Note_on_c, 0, 59, 70
2,144420, Note_on_c, 0, 61, 0
2,144488, Control_c, 0, 64, 51
2,144503, Control_c, 0, 64, 51
2,144518, Control_c, 0, 64, 52
2,144534, Control_c, 0, 64, 52
2,144555, Note_on_c, 0, 62, 61
2,144565, Control_c, 0, 64, 53
2,144566, Note_on_c, 0, 59, 0
2,144580, Control_c, 0, 64, 53
2,144625, Control_c, 0, 64, 54
2,144648, Note_on_c, 0, 62, 0
2,144668, Note_on_c, 0, 61, 59
2,144760, Note_on_c, 0, 67, 0
2,144764, Control_c, 0, 64, 53
2,144778, Control_c, 0, 64, 53
2,144793, Control_c, 0, 64, 52
2,144793, Note_on_c, 0, 61, 0
2,144801, Note_on_c, 0, 65, 58
2,144802, Note_on_c, 0, 62, 58
2,144814, Note_on_c, 0, 76, 0
2,144854, Control_c, 0, 64, 53
2,144869, Control_c, 0, 64, 54
2,144885, Control_c, 0, 64, 55
2,144899, Control_c, 0, 64, 57
2,144914, Control_c, 0, 64, 59
2,144916, Note_on_c, 0, 73, 64
2,144930, Control_c, 0, 64, 61
2,144945, Control_c, 0, 64, 63
2,144961, Control_c, 0, 64, 64
2,144975, Control_c, 0, 64, 66
2,144990, Control_c, 0, 64, 69
2,145014, Control_c, 0, 64, 72
2,145029, Control_c, 0, 64, 77
2,145045, Control_c, 0, 64, 83
2,145060, Control_c, 0, 64, 92
2,145063, Note_on_c, 0, 73, 0
2,145063, Note_on_c, 0, 74, 75
2,145074, Control_c, 0, 64, 99
2,145090, Control_c, 0, 64, 104
2,145105, Control_c, 0, 64, 104
2,145184, Note_on_c, 0, 77, 82
2,145206, Note_on_c, 0, 65, 0
2,145211, Control_c, 0, 64, 104
2,145226, Control_c, 0, 64, 103
2,145242, Control_c, 0, 64, 101
2,145257, Control_c, 0, 64, 99
2,145267, Note_on_c, 0, 74, 0
2,145271, Control_c, 0, 64, 96
2,145287, Control_c, 0, 64, 91
2,145302, Control_c, 0, 64, 85
2,145313, Note_on_c, 0, 62, 0
2,145316, Control_c, 0, 64, 78
2,145316, Note_on_c, 0, 79, 83
2,145320, Note_on_c, 0, 64, 59
2,145332, Control_c, 0, 64, 71
2,145347, Control_c, 0, 64, 66
2,145363, Control_c, 0, 64, 61
2,145378, Control_c, 0, 64, 55
2,145393, Control_c, 0, 64, 51
2,145400, Note_on_c, 0, 77, 0
2,145409, Control_c, 0, 64, 48
2,145412, Note_on_c, 0, 64, 0
2,145423, Control_c, 0, 64, 44
2,145435, Note_on_c, 0, 59, 70
2,145438, Control_c, 0, 64, 39
2,145454, Control_c, 0, 64, 37
2,145500, Control_c, 0, 64, 37
2,145514, Control_c, 0, 64, 40
2,145530, Control_c, 0, 64, 46
2,145545, Control_c, 0, 64, 52
2,145561, Control_c, 0, 64, 56
2,145565, Note_on_c, 0, 69, 74
2,145571, Note_on_c, 0, 61, 76
2,145576, Control_c, 0, 64, 60
2,145591, Control_c, 0, 64, 62
2,145604, Note_on_c, 0, 59, 0
2,145607, Control_c, 0, 64, 64
2,145622, Control_c, 0, 64, 66
2,145637, Control_c, 0, 64, 70
2,145653, Control_c, 0, 64, 76
2,145668, Control_c, 0, 64, 82
2,145684, Control_c, 0, 64, 87
2,145686, Note_on_c, 0, 69, 0
2,145691, Note_on_c, 0, 64, 81
2,145698, Control_c, 0, 64, 87
2,145713, Control_c, 0, 64, 86
2,145714, Note_on_c, 0, 79, 0
2,145729, Control_c, 0, 64, 85
2,145731, Note_on_c, 0, 61, 0
2,145743, Control_c, 0, 64, 83
2,145758, Control_c, 0, 64, 79
2,145781, Control_c, 0, 64, 74
2,145796, Control_c, 0, 64, 68
2,145812, Control_c, 0, 64, 64
2,145827, Control_c, 0, 64, 58
2,145833, Note_on_c, 0, 65, 85
2,145843, Control_c, 0, 64, 52
2,145858, Control_c, 0, 64, 46
2,145873, Control_c, 0, 64, 39
2,145875, Note_on_c, 0, 64, 0
2,145888, Control_c, 0, 64, 28
2,145903, Control_c, 0, 64, 19
2,145918, Control_c, 0, 64, 16
2,145934, Control_c, 0, 64, 15
2,145941, Note_on_c, 0, 76, 77
2,145954, Note_on_c, 0, 73, 72
2,145979, Control_c, 0, 64, 16
2,145994, Control_c, 0, 64, 17
2,146010, Control_c, 0, 64, 27
2,146025, Control_c, 0, 64, 38
2,146040, Control_c, 0, 64, 47
2,146055, Control_c, 0, 64, 54
2,146070, Control_c, 0, 64, 58
2,146073, Note_on_c, 0, 77, 84
2,146081, Note_on_c, 0, 74, 78
2,146085, Control_c, 0, 64, 62
2,146097, Note_on_c, 0, 73, 0
2,146100, Control_c, 0, 64, 66
2,146115, Control_c, 0, 64, 73
2,146117, Note_on_c, 0, 76, 0
2,146131, Control_c, 0, 64, 87
2,146146, Control_c, 0, 64, 127
2,146181, Note_on_c, 0, 81, 84
2,146192, Note_on_c, 0, 77, 0
2,146277, Note_on_c, 0, 65, 0
2,146312, Note_on_c, 0, 67, 86
2,146313, Control_c, 0, 64, 121
2,146315, Note_on_c, 0, 82, 86
2,146329, Control_c, 0, 64, 91
2,146344, Control_c, 0, 64, 76
2,146353, Note_on_c, 0, 81, 0
2,146358, Control_c, 0, 64, 66
2,146374, Control_c, 0, 64, 56
2,146374, Note_on_c, 0, 74, 0
2,146389, Control_c, 0, 64, 45
2,146405, Control_c, 0, 64, 42
2,146420, Control_c, 0, 64, 39
2,146426, Note_on_c, 0, 62, 81
2,146435, Control_c, 0, 64, 34
2,146436, Note_on_c, 0, 67, 0
2,146451, Control_c, 0, 64, 28
2,146466, Control_c, 0, 64, 26
2,146482, Control_c, 0, 64, 25
2,146497, Control_c, 0, 64, 25
2,146511, Control_c, 0, 64, 24
2,146527, Control_c, 0, 64, 20
2,146549, Control_c, 0, 64, 17
2,146562, Note_on_c, 0, 64, 77
2,146565, Control_c, 0, 64, 16
2,146568, Note_on_c, 0, 72, 74
2,146593, Note_on_c, 0, 62, 0
2,146625, Control_c, 0, 64, 17
2,146641, Control_c, 0, 64, 30
2,146656, Control_c, 0, 64, 45
2,146671, Control_c, 0, 64, 57
2,146676, Note_on_c, 0, 67, 91
2,146687, Control_c, 0, 64, 63
2,146696, Note_on_c, 0, 64, 0
2,146701, Control_c, 0, 64, 69
2,146701, Note_on_c, 0, 72, 0
2,146716, Control_c, 0, 64, 81
2,146732, Control_c, 0, 64, 127
2,146753, Note_on_c, 0, 82, 0
2,146821, Note_on_c, 0, 69, 93
2,146857, Note_on_c, 0, 67, 0
2,146869, Control_c, 0, 64, 103
2,146884, Control_c, 0, 64, 81
2,146899, Control_c, 0, 64, 67
2,146914, Control_c, 0, 64, 56
2,146929, Control_c, 0, 64, 45
2,146944, Control_c, 0, 64, 44
2,146944, Note_on_c, 0, 76, 83
2,146947, Note_on_c, 0, 79, 82
2,146990, Control_c, 0, 64, 45
2,147005, Control_c, 0, 64, 47
2,147020, Control_c, 0, 64, 50
2,147035, Control_c, 0, 64, 55
2,147051, Control_c, 0, 64, 59
2,147066, Control_c, 0, 64, 62
2,147078, Note_on_c, 0, 81, 78
2,147081, Control_c, 0, 64, 64
2,147084, Note_on_c, 0, 77, 86
2,147096, Control_c, 0, 64, 66
2,147111, Control_c, 0, 64, 71
2,147111, Note_on_c, 0, 76, 0
2,147126, Note_on_c, 0, 79, 0
2,147127, Control_c, 0, 64, 77
2,147142, Control_c, 0, 64, 85
2,147157, Control_c, 0, 64, 93
2,147173, Control_c, 0, 64, 95
2,147190, Note_on_c, 0, 84, 88
2,147209, Note_on_c, 0, 81, 0
2,147249, Note_on_c, 0, 84, 0
2,147280, Control_c, 0, 64, 94
2,147287, Note_on_c, 0, 77, 0
2,147295, Control_c, 0, 64, 91
2,147317, Control_c, 0, 64, 87
2,147329, Note_on_c, 0, 70, 82
2,147330, Note_on_c, 0, 74, 84
2,147333, Control_c, 0, 64, 81
2,147348, Control_c, 0, 64, 74
2,147350, Note_on_c, 0, 69, 0
2,147363, Control_c, 0, 64, 68
2,147378, Control_c, 0, 64, 63
2,147393, Control_c, 0, 64, 54
2,147409, Control_c, 0, 64, 48
2,147424, Control_c, 0, 64, 46
2,147438, Control_c, 0, 64, 44
2,147445, Note_on_c, 0, 65, 79
2,147454, Control_c, 0, 64, 41
2,147460, Note_on_c, 0, 70, 0
2,147469, Control_c, 0, 64, 38
2,147485, Control_c, 0, 64, 36
2,147500, Control_c, 0, 64, 36
2,147530, Control_c, 0, 64, 35
2,147561, Note_on_c, 0, 67, 78
2,147574, Note_on_c, 0, 76, 71
2,147597, Note_on_c, 0, 65, 0
2,147607, Control_c, 0, 64, 37
2,147622, Control_c, 0, 64, 39
2,147625, Note_on_c, 0, 74, 0
2,147637, Control_c, 0, 64, 43
2,147652, Control_c, 0, 64, 48
2,147667, Control_c, 0, 64, 52
2,147683, Control_c, 0, 64, 57
2,147696, Note_on_c, 0, 79, 70
2,147698, Control_c, 0, 64, 62
2,147699, Note_on_c, 0, 70, 80
2,147713, Control_c, 0, 64, 65
2,147720, Note_on_c, 0, 76, 0
2,147725, Note_on_c, 0, 67, 0
2,147728, Control_c, 0, 64, 71
2,147743, Control_c, 0, 64, 78
2,147758, Control_c, 0, 64, 88
2,147773, Control_c, 0, 64, 95
2,147788, Control_c, 0, 64, 96
2,147804, Control_c, 0, 64, 93
2,147807, Note_on_c, 0, 79, 0
2,147819, Control_c, 0, 64, 89
2,147826, Note_on_c, 0, 72, 68
2,147832, Note_on_c, 0, 64, 77
2,147834, Control_c, 0, 64, 85
2,147842, Note_on_c, 0, 70, 0
2,147849, Control_c, 0, 64, 79
2,147864, Control_c, 0, 64, 73
2,147880, Control_c, 0, 64, 68
2,147880, Note_on_c, 0, 72, 0
2,147895, Control_c, 0, 64, 64
2,147910, Control_c, 0, 64, 60
2,147925, Control_c, 0, 64, 57
2,147961, Note_on_c, 0, 67, 63
2,147971, Control_c, 0, 64, 57
2,148056, Note_on_c, 0, 64, 0
2,148096, Note_on_c, 0, 65, 73
2,148099, Note_on_c, 0, 69, 60
2,148103, Note_on_c, 0, 67, 0
2,148154, Note_on_c, 0, 65, 0
2,148191, Note_on_c, 0, 69, 0
2,148216, Note_on_c, 0, 72, 57
2,148222, Control_c, 0, 64, 56
2,148268, Control_c, 0, 64, 56
2,148349, Note_on_c, 0, 58, 66
2,148349, Note_on_c, 0, 72, 0
2,148358, Note_on_c, 0, 62, 56
2,148503, Note_on_c, 0, 65, 46
2,148511, Control_c, 0, 64, 56
2,148542, Control_c, 0, 64, 57
2,148557, Control_c, 0, 64, 58
2,148572, Control_c, 0, 64, 59
2,148587, Control_c, 0, 64, 61
2,148603, Control_c, 0, 64, 63
2,148612, Note_on_c, 0, 65, 0
2,148617, Control_c, 0, 64, 65
2,148632, Control_c, 0, 64, 68
2,148636, Note_on_c, 0, 67, 48
2,148648, Control_c, 0, 64, 73
2,148663, Control_c, 0, 64, 81
2,148678, Control_c, 0, 64, 93
2,148693, Control_c, 0, 64, 106
2,148703, Note_on_c, 0, 67, 0
2,148708, Control_c, 0, 64, 118
2,148724, Control_c, 0, 64, 123
2,148747, Note_on_c, 0, 62, 0
2,148752, Note_on_c, 0, 70, 53
2,148753, Control_c, 0, 64, 118
2,148769, Control_c, 0, 64, 113
2,148784, Control_c, 0, 64, 102
2,148800, Control_c, 0, 64, 90
2,148803, Note_on_c, 0, 58, 0
2,148814, Control_c, 0, 64, 77
2,148829, Control_c, 0, 64, 67
2,148854, Control_c, 0, 64, 60
2,148855, Note_on_c, 0, 70, 0
2,148869, Control_c, 0, 64, 55
2,148885, Control_c, 0, 64, 56
2,148889, Note_on_c, 0, 64, 55
2,148900, Control_c, 0, 64, 57
2,148904, Note_on_c, 0, 60, 47
2,148915, Control_c, 0, 64, 59
2,148930, Control_c, 0, 64, 61
2,148945, Control_c, 0, 64, 63
2,148961, Control_c, 0, 64, 64
2,148976, Control_c, 0, 64, 66
2,148991, Control_c, 0, 64, 67
2,149004, Note_on_c, 0, 64, 0
2,149006, Control_c, 0, 64, 69
2,149017, Note_on_c, 0, 70, 60
2,149021, Control_c, 0, 64, 70
2,149036, Control_c, 0, 64, 70
2,149066, Control_c, 0, 64, 70
2,149082, Control_c, 0, 64, 69
2,149097, Control_c, 0, 64, 69
2,149106, Note_on_c, 0, 70, 0
2,149112, Control_c, 0, 64, 67
2,149128, Control_c, 0, 64, 65
2,149142, Control_c, 0, 64, 63
2,149144, Note_on_c, 0, 69, 61
2,149145, Note_on_c, 0, 48, 60
2,149157, Control_c, 0, 64, 60
2,149157, Note_on_c, 0, 65, 57
2,149173, Control_c, 0, 64, 59
2,149188, Control_c, 0, 64, 57
2,149203, Control_c, 0, 64, 55
2,149218, Control_c, 0, 64, 53
2,149233, Control_c, 0, 64, 51
2,149240, Note_on_c, 0, 67, 59
2,149248, Note_on_c, 0, 69, 0
2,149249, Control_c, 0, 64, 50
2,149257, Note_on_c, 0, 50, 70
2,149260, Note_on_c, 0, 48, 0
2,149263, Control_c, 0, 64, 50
2,149278, Control_c, 0, 64, 48
2,149294, Control_c, 0, 64, 48
2,149306, Note_on_c, 0, 67, 0
2,149309, Control_c, 0, 64, 47
2,149325, Control_c, 0, 64, 47
2,149371, Control_c, 0, 64, 47
2,149385, Control_c, 0, 64, 48
2,149395, Note_on_c, 0, 48, 73
2,149401, Control_c, 0, 64, 51
2,149405, Note_on_c, 0, 67, 67
2,149409, Note_on_c, 0, 65, 0
2,149416, Control_c, 0, 64, 56
2,149423, Note_on_c, 0, 50, 0
2,149431, Control_c, 0, 64, 60
2,149447, Control_c, 0, 64, 64
2,149461, Control_c, 0, 64, 67
2,149469, Note_on_c, 0, 48, 0
2,149476, Control_c, 0, 64, 72
2,149492, Control_c, 0, 64, 80
2,149507, Control_c, 0, 64, 93
2,149523, Control_c, 0, 64, 107
2,149537, Control_c, 0, 64, 110
2,149552, Control_c, 0, 64, 105
2,149568, Control_c, 0, 64, 101
2,149574, Note_on_c, 0, 60, 0
2,149582, Control_c, 0, 64, 97
2,149597, Control_c, 0, 64, 89
2,149621, Control_c, 0, 64, 79
2,149636, Control_c, 0, 64, 69
2,149652, Control_c, 0, 64, 61
2,149667, Control_c, 0, 64, 52
2,149670, Note_on_c, 0, 46, 70
2,149676, Note_on_c, 0, 64, 55
2,149683, Control_c, 0, 64, 50
2,149698, Control_c, 0, 64, 51
2,149713, Control_c, 0, 64, 53
2,149729, Control_c, 0, 64, 55
2,149743, Control_c, 0, 64, 57
2,149746, Note_on_c, 0, 67, 0
2,149758, Control_c, 0, 64, 57
2,149785, Note_on_c, 0, 64, 0
2,149789, Control_c, 0, 64, 57
2,149789, Note_on_c, 0, 65, 65
2,149798, Note_on_c, 0, 46, 0
2,149805, Control_c, 0, 64, 55
2,149820, Control_c, 0, 64, 52
2,149834, Control_c, 0, 64, 49
2,149842, Note_on_c, 0, 65, 0
2,149850, Control_c, 0, 64, 44
2,149865, Control_c, 0, 64, 38
2,149881, Control_c, 0, 64, 31
2,149896, Control_c, 0, 64, 29
2,149917, Note_on_c, 0, 45, 75
2,149923, Note_on_c, 0, 65, 79
2,149941, Control_c, 0, 64, 32
2,149956, Control_c, 0, 64, 42
2,149972, Control_c, 0, 64, 53
2,149986, Control_c, 0, 64, 60
2,150002, Control_c, 0, 64, 64
2,150017, Control_c, 0, 64, 68
2,150025, Note_on_c, 0, 65, 0
2,150031, Control_c, 0, 64, 74
2,150047, Control_c, 0, 64, 82
2,150058, Note_on_c, 0, 45, 0
2,150062, Control_c, 0, 64, 88
2,150077, Control_c, 0, 64, 90
2,150093, Control_c, 0, 64, 88
2,150107, Control_c, 0, 64, 86
2,150123, Control_c, 0, 64, 83
2,150138, Control_c, 0, 64, 79
2,150153, Control_c, 0, 64, 75
2,150169, Control_c, 0, 64, 71
2,150184, Control_c, 0, 64, 67
2,150191, Note_on_c, 0, 72, 79
2,150198, Note_on_c, 0, 45, 64
2,150200, Control_c, 0, 64, 62
2,150202, Note_on_c, 0, 48, 70
2,150213, Control_c, 0, 64, 58
2,150227, Control_c, 0, 64, 56
2,150243, Control_c, 0, 64, 54
2,150258, Control_c, 0, 64, 52
2,150273, Control_c, 0, 64, 49
2,150289, Control_c, 0, 64, 46
2,150300, Note_on_c, 0, 46, 73
2,150303, Control_c, 0, 64, 44
2,150309, Note_on_c, 0, 48, 0
2,150309, Note_on_c, 0, 74, 78
2,150318, Note_on_c, 0, 45, 0
2,150334, Control_c, 0, 64, 44
2,150340, Note_on_c, 0, 72, 0
2,150387, Control_c, 0, 64, 43
2,150448, Note_on_c, 0, 45, 76
2,150450, Note_on_c, 0, 72, 89
2,150453, Note_on_c, 0, 50, 79
2,150506, Note_on_c, 0, 46, 0
2,150510, Control_c, 0, 64, 44
2,150538, Note_on_c, 0, 74, 0
2,150571, Note_on_c, 0, 50, 0
2,150581, Note_on_c, 0, 45, 0
2,150712, Note_on_c, 0, 70, 81
2,150714, Note_on_c, 0, 43, 72
2,150718, Note_on_c, 0, 52, 81
2,150768, Control_c, 0, 64, 44
2,150798, Control_c, 0, 64, 45
2,150814, Control_c, 0, 64, 45
2,150814, Note_on_c, 0, 43, 0
2,150829, Control_c, 0, 64, 46
2,150857, Note_on_c, 0, 70, 0
2,150859, Note_on_c, 0, 52, 0
2,150936, Control_c, 0, 64, 45
2,150950, Control_c, 0, 64, 44
2,150966, Control_c, 0, 64, 43
2,150979, Note_on_c, 0, 69, 84
2,150983, Note_on_c, 0, 41, 70
2,150994, Note_on_c, 0, 53, 78
2,151027, Control_c, 0, 64, 45
2,151043, Control_c, 0, 64, 48
2,151058, Control_c, 0, 64, 52
2,151072, Control_c, 0, 64, 56
2,151076, Note_on_c, 0, 53, 0
2,151088, Control_c, 0, 64, 57
2,151103, Control_c, 0, 64, 59
2,151107, Note_on_c, 0, 43, 68
2,151118, Control_c, 0, 64, 59
2,151122, Note_on_c, 0, 69, 0
2,151156, Note_on_c, 0, 41, 0
2,151186, Control_c, 0, 64, 59
2,151202, Control_c, 0, 64, 57
2,151217, Control_c, 0, 64, 54
2,151232, Control_c, 0, 64, 51
2,151248, Control_c, 0, 64, 49
2,151248, Note_on_c, 0, 45, 73
2,151262, Note_on_c, 0, 69, 80
2,151263, Note_on_c, 0, 43, 0
2,151266, Note_on_c, 0, 52, 62
2,151277, Control_c, 0, 64, 50
2,151293, Control_c, 0, 64, 52
2,151309, Control_c, 0, 64, 54
2,151311, Note_on_c, 0, 52, 0
2,151325, Control_c, 0, 64, 56
2,151339, Control_c, 0, 64, 58
2,151354, Control_c, 0, 64, 58
2,151367, Note_on_c, 0, 43, 71
2,151376, Note_on_c, 0, 70, 76
2,151385, Control_c, 0, 64, 58
2,151394, Note_on_c, 0, 45, 0
2,151401, Control_c, 0, 64, 55
2,151409, Note_on_c, 0, 69, 0
2,151414, Control_c, 0, 64, 51
2,151429, Control_c, 0, 64, 47
2,151444, Control_c, 0, 64, 45
2,151459, Control_c, 0, 64, 44
2,151490, Control_c, 0, 64, 46
2,151494, Note_on_c, 0, 41, 72
2,151497, Note_on_c, 0, 43, 0
2,151499, Note_on_c, 0, 53, 74
2,151499, Note_on_c, 0, 69, 88
2,151504, Control_c, 0, 64, 51
2,151519, Control_c, 0, 64, 57
2,151531, Note_on_c, 0, 53, 0
2,151535, Control_c, 0, 64, 61
2,151545, Note_on_c, 0, 41, 0
2,151550, Control_c, 0, 64, 64
2,151565, Control_c, 0, 64, 67
2,151580, Control_c, 0, 64, 71
2,151595, Control_c, 0, 64, 77
2,151611, Control_c, 0, 64, 81
2,151621, Note_on_c, 0, 39, 76
2,151626, Control_c, 0, 64, 81
2,151626, Note_on_c, 0, 70, 0
2,151641, Control_c, 0, 64, 75
2,151653, Note_on_c, 0, 39, 0
2,151657, Control_c, 0, 64, 68
2,151671, Control_c, 0, 64, 60
2,151687, Control_c, 0, 64, 48
2,151702, Control_c, 0, 64, 44
2,151716, Control_c, 0, 64, 45
2,151732, Control_c, 0, 64, 49
2,151739, Note_on_c, 0, 69, 0
2,151747, Control_c, 0, 64, 55
2,151752, Note_on_c, 0, 67, 75
2,151755, Note_on_c, 0, 55, 78
2,151762, Control_c, 0, 64, 60
2,151778, Control_c, 0, 64, 63
2,151793, Control_c, 0, 64, 67
2,151809, Control_c, 0, 64, 74
2,151817, Note_on_c, 0, 55, 0
2,151823, Control_c, 0, 64, 88
2,151838, Control_c, 0, 64, 127
2,151843, Note_on_c, 0, 67, 0
2,151952, Control_c, 0, 64, 109
2,151968, Control_c, 0, 64, 97
2,151983, Control_c, 0, 64, 89
2,151997, Control_c, 0, 64, 85
2,152013, Control_c, 0, 64, 83
2,152028, Control_c, 0, 64, 80
2,152034, Note_on_c, 0, 50, 58
2,152037, Note_on_c, 0, 57, 61
2,152038, Note_on_c, 0, 66, 71
2,152043, Control_c, 0, 64, 77
2,152059, Control_c, 0, 64, 72
2,152074, Control_c, 0, 64, 66
2,152090, Control_c, 0, 64, 61
2,152105, Control_c, 0, 64, 56
2,152120, Control_c, 0, 64, 54
2,152131, Note_on_c, 0, 57, 0
2,152136, Control_c, 0, 64, 53
2,152147, Note_on_c, 0, 67, 72
2,152148, Note_on_c, 0, 66, 0
2,152150, Control_c, 0, 64, 51
2,152159, Note_on_c, 0, 55, 60
2,152165, Control_c, 0, 64, 47
2,152181, Control_c, 0, 64, 43
2,152196, Control_c, 0, 64, 38
2,152212, Control_c, 0, 64, 34
2,152227, Control_c, 0, 64, 32
2,152242, Control_c, 0, 64, 28
2,152258, Control_c, 0, 64, 25
2,152273, Control_c, 0, 64, 21
2,152276, Note_on_c, 0, 67, 0
2,152282, Note_on_c, 0, 55, 0
2,152282, Note_on_c, 0, 69, 69
2,152289, Control_c, 0, 64, 11
2,152291, Note_on_c, 0, 54, 62
2,152303, Control_c, 0, 64, 0
2,152310, Note_on_c, 0, 50, 0
2,152371, Note_on_c, 0, 54, 0
2,152389, Note_on_c, 0, 67, 70
2,152408, Note_on_c, 0, 55, 53
2,152494, Note_on_c, 0, 55, 0
2,152520, Note_on_c, 0, 69, 0
2,152525, Note_on_c, 0, 67, 0
2,152533, Note_on_c, 0, 66, 66
2,152545, Note_on_c, 0, 57, 56
2,152560, Control_c, 0, 64, 12
2,152576, Control_c, 0, 64, 40
2,152591, Control_c, 0, 64, 56
2,152607, Control_c, 0, 64, 62
2,152622, Control_c, 0, 64, 64
2,152632, Note_on_c, 0, 57, 0
2,152636, Control_c, 0, 64, 66
2,152652, Control_c, 0, 64, 68
2,152652, Note_on_c, 0, 58, 59
2,152667, Control_c, 0, 64, 70
2,152703, Note_on_c, 0, 58, 0
2,152705, Control_c, 0, 64, 68
2,152720, Control_c, 0, 64, 65
2,152736, Control_c, 0, 64, 60
2,152751, Control_c, 0, 64, 51
2,152755, Note_on_c, 0, 66, 0
2,152765, Control_c, 0, 64, 44
2,152781, Control_c, 0, 64, 43
2,152796, Control_c, 0, 64, 43
2,152798, Note_on_c, 0, 63, 66
2,152812, Control_c, 0, 64, 48
2,152814, Note_on_c, 0, 48, 47
2,152823, Note_on_c, 0, 60, 62
2,152827, Control_c, 0, 64, 54
2,152841, Control_c, 0, 64, 61
2,152857, Control_c, 0, 64, 65
2,152867, Note_on_c, 0, 60, 0
2,152872, Control_c, 0, 64, 71
2,152888, Control_c, 0, 64, 87
2,152903, Control_c, 0, 64, 127
2,152903, Note_on_c, 0, 63, 0
2,152906, Note_on_c, 0, 48, 0
2,153010, Control_c, 0, 64, 117
2,153025, Control_c, 0, 64, 95
2,153031, Note_on_c, 0, 72, 0
2,153040, Control_c, 0, 64, 79
2,153056, Control_c, 0, 64, 65
2,153070, Note_on_c, 0, 74, 70
2,153071, Control_c, 0, 64, 44
2,153087, Control_c, 0, 64, 29
2,153089, Note_on_c, 0, 54, 50
2,153093, Note_on_c, 0, 46, 48
2,153101, Control_c, 0, 64, 30
2,153116, Control_c, 0, 64, 36
2,153132, Control_c, 0, 64, 45
2,153147, Control_c, 0, 64, 54
2,153150, Note_on_c, 0, 54, 0
2,153158, Note_on_c, 0, 74, 0
2,153162, Control_c, 0, 64, 61
2,153170, Note_on_c, 0, 46, 0
2,153178, Control_c, 0, 64, 67
2,153185, Note_on_c, 0, 45, 58
2,153192, Control_c, 0, 64, 73
2,153208, Control_c, 0, 64, 82
2,153223, Control_c, 0, 64, 93
2,153238, Control_c, 0, 64, 98
2,153254, Control_c, 0, 64, 94
2,153268, Control_c, 0, 64, 86
2,153283, Control_c, 0, 64, 78
2,153299, Control_c, 0, 64, 71
2,153300, Note_on_c, 0, 45, 0
2,153314, Control_c, 0, 64, 65
2,153322, Note_on_c, 0, 78, 70
2,153324, Note_on_c, 0, 48, 56
2,153329, Control_c, 0, 64, 58
2,153336, Note_on_c, 0, 57, 50
2,153340, Note_on_c, 0, 69, 52
2,153344, Control_c, 0, 64, 51
2,153359, Control_c, 0, 64, 48
2,153383, Note_on_c, 0, 57, 0
2,153390, Control_c, 0, 64, 50
2,153404, Control_c, 0, 64, 52
2,153420, Control_c, 0, 64, 55
2,153428, Note_on_c, 0, 46, 67
2,153435, Control_c, 0, 64, 57
2,153459, Control_c, 0, 64, 59
2,153466, Note_on_c, 0, 48, 0
2,153474, Control_c, 0, 64, 60
2,153489, Control_c, 0, 64, 60
2,153534, Control_c, 0, 64, 60
2,153549, Control_c, 0, 64, 57
2,153564, Control_c, 0, 64, 53
2,153580, Control_c, 0, 64, 49
2,153584, Note_on_c, 0, 75, 79
2,153591, Note_on_c, 0, 46, 0
2,153593, Note_on_c, 0, 45, 60
2,153594, Note_on_c, 0, 55, 63
2,153595, Control_c, 0, 64, 48
2,153625, Control_c, 0, 64, 49
2,153640, Control_c, 0, 64, 52
2,153655, Note_on_c, 0, 55, 0
2,153656, Control_c, 0, 64, 56
2,153671, Control_c, 0, 64, 59
2,153682, Note_on_c, 0, 45, 0
2,153685, Control_c, 0, 64, 60
2,153692, Note_on_c, 0, 43, 69
2,153701, Control_c, 0, 64, 62
2,153716, Control_c, 0, 64, 62
2,153732, Control_c, 0, 64, 63
2,153778, Control_c, 0, 64, 63
2,153793, Control_c, 0, 64, 61
2,153809, Control_c, 0, 64, 57
2,153824, Control_c, 0, 64, 52
2,153826, Note_on_c, 0, 72, 80
2,153829, Note_on_c, 0, 54, 66
2,153832, Note_on_c, 0, 46, 67
2,153837, Note_on_c, 0, 43, 0
2,153838, Control_c, 0, 64, 45
2,153854, Control_c, 0, 64, 42
2,153878, Note_on_c, 0, 69, 0
2,153884, Control_c, 0, 64, 42
2,153890, Note_on_c, 0, 78, 0
2,153900, Control_c, 0, 64, 46
2,153906, Note_on_c, 0, 54, 0
2,153914, Control_c, 0, 64, 51
2,153930, Control_c, 0, 64, 56
2,153940, Note_on_c, 0, 45, 71
2,153945, Control_c, 0, 64, 59
2,153960, Control_c, 0, 64, 60
2,153965, Note_on_c, 0, 75, 0
2,153976, Control_c, 0, 64, 61
2,153990, Note_on_c, 0, 46, 0
2,153991, Control_c, 0, 64, 62
2,154007, Control_c, 0, 64, 63
2,154036, Control_c, 0, 64, 63
2,154051, Control_c, 0, 64, 63
2,154066, Control_c, 0, 64, 62
2,154080, Note_on_c, 0, 70, 76
2,154081, Control_c, 0, 64, 59
2,154093, Note_on_c, 0, 43, 71
2,154096, Note_on_c, 0, 55, 81
2,154097, Control_c, 0, 64, 55
2,154111, Control_c, 0, 64, 49
2,154127, Control_c, 0, 64, 46
2,154127, Note_on_c, 0, 72, 0
2,154134, Note_on_c, 0, 45, 0
2,154157, Control_c, 0, 64, 48
2,154172, Control_c, 0, 64, 52
2,154187, Control_c, 0, 64, 57
2,154199, Note_on_c, 0, 69, 78
2,154202, Control_c, 0, 64, 61
2,154219, Note_on_c, 0, 70, 0
2,154226, Control_c, 0, 64, 64
2,154236, Note_on_c, 0, 55, 0
2,154241, Control_c, 0, 64, 66
2,154256, Control_c, 0, 64, 69
2,154271, Control_c, 0, 64, 72
2,154287, Control_c, 0, 64, 75
2,154302, Control_c, 0, 64, 74
2,154317, Control_c, 0, 64, 69
2,154332, Control_c, 0, 64, 64
2,154347, Control_c, 0, 64, 56
2,154348, Note_on_c, 0, 74, 74
2,154355, Note_on_c, 0, 72, 76
2,154360, Note_on_c, 0, 53, 76
2,154362, Control_c, 0, 64, 50
2,154368, Note_on_c, 0, 69, 0
2,154392, Control_c, 0, 64, 51
2,154408, Control_c, 0, 64, 54
2,154423, Control_c, 0, 64, 57
2,154438, Control_c, 0, 64, 60
2,154453, Control_c, 0, 64, 63
2,154468, Control_c, 0, 64, 65
2,154469, Note_on_c, 0, 70, 80
2,154483, Control_c, 0, 64, 67
2,154499, Control_c, 0, 64, 71
2,154500, Note_on_c, 0, 72, 0
2,154514, Control_c, 0, 64, 77
2,154528, Note_on_c, 0, 74, 0
2,154530, Control_c, 0, 64, 81
2,154544, Control_c, 0, 64, 78
2,154559, Control_c, 0, 64, 69
2,154575, Control_c, 0, 64, 61
2,154591, Control_c, 0, 64, 48
2,154603, Note_on_c, 0, 51, 86
2,154605, Control_c, 0, 64, 49
2,154609, Note_on_c, 0, 72, 78
2,154610, Note_on_c, 0, 69, 68
2,154614, Note_on_c, 0, 70, 0
2,154621, Control_c, 0, 64, 55
2,154626, Note_on_c, 0, 43, 0
2,154636, Control_c, 0, 64, 60
2,154642, Note_on_c, 0, 69, 0
2,154652, Control_c, 0, 64, 63
2,154667, Control_c, 0, 64, 66
2,154673, Note_on_c, 0, 72, 0
2,154682, Control_c, 0, 64, 70
2,154698, Control_c, 0, 64, 73
2,154712, Control_c, 0, 64, 75
2,154718, Note_on_c, 0, 51, 0
2,154718, Note_on_c, 0, 67, 75
2,154721, Note_on_c, 0, 70, 75
2,154728, Control_c, 0, 64, 75
2,154743, Control_c, 0, 64, 73
2,154758, Control_c, 0, 64, 70
2,154774, Control_c, 0, 64, 67
2,154785, Note_on_c, 0, 70, 0
2,154789, Control_c, 0, 64, 63
2,154804, Control_c, 0, 64, 58
2,154820, Control_c, 0, 64, 53
2,154835, Control_c, 0, 64, 47
2,154848, Note_on_c, 0, 50, 72
2,154851, Control_c, 0, 64, 40
2,154852, Note_on_c, 0, 74, 78
2,154853, Note_on_c, 0, 70, 71
2,154862, Note_on_c, 0, 42, 65
2,154864, Note_on_c, 0, 53, 0
2,154865, Control_c, 0, 64, 32
2,154865, Note_on_c, 0, 67, 0
2,154880, Control_c, 0, 64, 22
2,154896, Control_c, 0, 64, 12
2,154911, Control_c, 0, 64, 0
2,154918, Note_on_c, 0, 42, 0
2,154918, Note_on_c, 0, 50, 0
2,154933, Note_on_c, 0, 70, 0
2,154960, Note_on_c, 0, 72, 75
2,154963, Note_on_c, 0, 69, 81
2,155002, Note_on_c, 0, 74, 0
2,155119, Note_on_c, 0, 43, 66
2,155119, Note_on_c, 0, 72, 0
2,155121, Note_on_c, 0, 50, 68
2,155122, Note_on_c, 0, 67, 71
2,155129, Note_on_c, 0, 70, 70
2,155132, Control_c, 0, 64, 26
2,155132, Note_on_c, 0, 69, 0
2,155146, Control_c, 0, 64, 40
2,155161, Control_c, 0, 64, 49
2,155177, Control_c, 0, 64, 56
2,155192, Control_c, 0, 64, 60
2,155208, Control_c, 0, 64, 62
2,155222, Control_c, 0, 64, 64
2,155230, Note_on_c, 0, 70, 0
2,155237, Control_c, 0, 64, 67
2,155241, Note_on_c, 0, 72, 68
2,155253, Control_c, 0, 64, 72
2,155268, Control_c, 0, 64, 83
2,155283, Control_c, 0, 64, 97
2,155298, Control_c, 0, 64, 119
2,155313, Control_c, 0, 64, 127
2,155376, Note_on_c, 0, 55, 77
2,155385, Note_on_c, 0, 74, 73
2,155400, Note_on_c, 0, 72, 0
2,155403, Note_on_c, 0, 55, 0
2,155436, Control_c, 0, 64, 123
2,155440, Note_on_c, 0, 67, 0
2,155451, Control_c, 0, 64, 114
2,155466, Control_c, 0, 64, 107
2,155481, Control_c, 0, 64, 101
2,155484, Note_on_c, 0, 57, 83
2,155497, Control_c, 0, 64, 94
2,155500, Note_on_c, 0, 72, 82
2,155512, Control_c, 0, 64, 85
2,155527, Control_c, 0, 64, 78
2,155542, Control_c, 0, 64, 72
2,155557, Control_c, 0, 64, 67
2,155560, Note_on_c, 0, 57, 0
2,155572, Note_on_c, 0, 74, 0
2,155573, Control_c, 0, 64, 64
2,155588, Control_c, 0, 64, 60
2,155602, Control_c, 0, 64, 56
2,155618, Control_c, 0, 64, 52
2,155633, Control_c, 0, 64, 49
2,155633, Note_on_c, 0, 70, 78
2,155643, Note_on_c, 0, 55, 86
2,155649, Control_c, 0, 64, 45
2,155663, Control_c, 0, 64, 42
2,155678, Control_c, 0, 64, 38
2,155694, Control_c, 0, 64, 35
2,155709, Control_c, 0, 64, 33
2,155724, Control_c, 0, 64, 32
2,155746, Note_on_c, 0, 72, 0
2,155759, Note_on_c, 0, 69, 78
2,155762, Control_c, 0, 64, 31
2,155771, Note_on_c, 0, 55, 0
2,155773, Note_on_c, 0, 70, 0
2,155778, Control_c, 0, 64, 31
2,155793, Control_c, 0, 64, 30
2,155823, Control_c, 0, 64, 29
2,155838, Control_c, 0, 64, 28
2,155854, Control_c, 0, 64, 26
2,155868, Control_c, 0, 64, 21
2,155883, Control_c, 0, 64, 9
2,155894, Note_on_c, 0, 53, 87
2,155897, Note_on_c, 0, 67, 74
2,155899, Control_c, 0, 64, 0
2,155899, Note_on_c, 0, 69, 0
2,155921, Note_on_c, 0, 50, 0
2,156014, Note_on_c, 0, 67, 0
2,156018, Note_on_c, 0, 65, 76
2,156029, Note_on_c, 0, 53, 0
2,156140, Note_on_c, 0, 52, 87
2,156146, Note_on_c, 0, 67, 80
2,156155, Note_on_c, 0, 65, 0
2,156271, Note_on_c, 0, 69, 81
2,156283, Note_on_c, 0, 52, 0
2,156284, Note_on_c, 0, 67, 0
2,156402, Note_on_c, 0, 52, 82
2,156404, Note_on_c, 0, 70, 81
2,156428, Note_on_c, 0, 69, 0
2,156513, Note_on_c, 0, 53, 80
2,156531, Note_on_c, 0, 52, 0
2,156532, Note_on_c, 0, 69, 87
2,156575, Note_on_c, 0, 70, 0
2,156658, Note_on_c, 0, 52, 82
2,156660, Note_on_c, 0, 67, 80
2,156660, Note_on_c, 0, 69, 0
2,156695, Note_on_c, 0, 53, 0
2,156771, Note_on_c, 0, 65, 81
2,156774, Note_on_c, 0, 52, 0
2,156796, Note_on_c, 0, 67, 0
2,156896, Control_c, 0, 64, 26
2,156899, Note_on_c, 0, 50, 80
2,156899, Note_on_c, 0, 64, 83
2,156910, Control_c, 0, 64, 43
2,156924, Note_on_c, 0, 65, 0
2,156925, Control_c, 0, 64, 53
2,156941, Control_c, 0, 64, 59
2,156956, Control_c, 0, 64, 63
2,156972, Control_c, 0, 64, 65
2,156976, Note_on_c, 0, 64, 0
2,156985, Note_on_c, 0, 50, 0
2,156986, Control_c, 0, 64, 68
2,157001, Control_c, 0, 64, 70
2,157003, Note_on_c, 0, 62, 78
2,157017, Control_c, 0, 64, 69
2,157032, Control_c, 0, 64, 67
2,157049, Control_c, 0, 64, 65
2,157057, Note_on_c, 0, 62, 0
2,157063, Control_c, 0, 64, 62
2,157078, Control_c, 0, 64, 58
2,157094, Control_c, 0, 64, 53
2,157109, Control_c, 0, 64, 49
2,157124, Control_c, 0, 64, 45
2,157139, Control_c, 0, 64, 43
2,157145, Note_on_c, 0, 76, 87
2,157146, Note_on_c, 0, 49, 77
2,157154, Control_c, 0, 64, 39
2,157170, Control_c, 0, 64, 38
2,157185, Control_c, 0, 64, 36
2,157200, Control_c, 0, 64, 36
2,157215, Control_c, 0, 64, 35
2,157230, Control_c, 0, 64, 34
2,157245, Control_c, 0, 64, 34
2,157258, Note_on_c, 0, 50, 78
2,157261, Control_c, 0, 64, 33
2,157280, Note_on_c, 0, 49, 0
2,157406, Note_on_c, 0, 52, 79
2,157409, Note_on_c, 0, 69, 78
2,157413, Note_on_c, 0, 50, 0
2,157512, Note_on_c, 0, 67, 82
2,157526, Note_on_c, 0, 50, 83
2,157548, Note_on_c, 0, 52, 0
2,157548, Note_on_c, 0, 69, 0
2,157657, Note_on_c, 0, 69, 88
2,157660, Note_on_c, 0, 49, 87
2,157706, Note_on_c, 0, 67, 0
2,157709, Note_on_c, 0, 50, 0
2,157791, Note_on_c, 0, 49, 0
2,157802, Note_on_c, 0, 69, 0
2,157935, Note_on_c, 0, 71, 87
2,157938, Note_on_c, 0, 47, 84
2,157952, Control_c, 0, 64, 34
2,157982, Control_c, 0, 64, 33
2,158028, Control_c, 0, 64, 32
2,158043, Control_c, 0, 64, 29
2,158046, Note_on_c, 0, 71, 0
2,158059, Note_on_c, 0, 47, 0
2,158066, Control_c, 0, 64, 26
2,158081, Control_c, 0, 64, 23
2,158097, Control_c, 0, 64, 18
2,158111, Control_c, 0, 64, 13
2,158126, Control_c, 0, 64, 0
2,158181, Note_on_c, 0, 43, 0
2,158210, Note_on_c, 0, 73, 87
2,158215, Note_on_c, 0, 57, 86
2,158233, Control_c, 0, 64, 28
2,158249, Control_c, 0, 64, 43
2,158259, Note_on_c, 0, 76, 0
2,158263, Control_c, 0, 64, 53
2,158278, Control_c, 0, 64, 60
2,158294, Control_c, 0, 64, 64
2,158299, Note_on_c, 0, 57, 0
2,158309, Control_c, 0, 64, 67
2,158323, Control_c, 0, 64, 73
2,158326, Note_on_c, 0, 73, 0
2,158339, Control_c, 0, 64, 80
2,158354, Control_c, 0, 64, 88
2,158370, Control_c, 0, 64, 93
2,158385, Control_c, 0, 64, 93
2,158399, Control_c, 0, 64, 91
2,158415, Control_c, 0, 64, 88
2,158430, Control_c, 0, 64, 83
2,158445, Control_c, 0, 64, 79
2,158461, Control_c, 0, 64, 73
2,158476, Control_c, 0, 64, 68
2,158479, Note_on_c, 0, 52, 65
2,158479, Note_on_c, 0, 61, 79
2,158479, Note_on_c, 0, 76, 85
2,158492, Control_c, 0, 64, 64
2,158495, Note_on_c, 0, 73, 77
2,158507, Control_c, 0, 64, 60
2,158521, Control_c, 0, 64, 57
2,158537, Control_c, 0, 64, 55
2,158552, Control_c, 0, 64, 54
2,158568, Control_c, 0, 64, 52
2,158574, Note_on_c, 0, 61, 0
2,158578, Note_on_c, 0, 53, 69
2,158583, Control_c, 0, 64, 49
2,158590, Note_on_c, 0, 52, 0
2,158590, Note_on_c, 0, 74, 88
2,158597, Control_c, 0, 64, 47
2,158613, Control_c, 0, 64, 46
2,158614, Note_on_c, 0, 73, 0
2,158627, Note_on_c, 0, 76, 0
2,158628, Control_c, 0, 64, 45
2,158659, Control_c, 0, 64, 45
2,158691, Control_c, 0, 64, 44
2,158705, Control_c, 0, 64, 40
2,158712, Note_on_c, 0, 76, 88
2,158720, Control_c, 0, 64, 11
2,158729, Note_on_c, 0, 55, 75
2,158730, Note_on_c, 0, 53, 0
2,158731, Note_on_c, 0, 73, 81
2,158736, Control_c, 0, 64, 0
2,158754, Note_on_c, 0, 74, 0
2,158836, Note_on_c, 0, 73, 0
2,158840, Note_on_c, 0, 53, 83
2,158845, Note_on_c, 0, 55, 0
2,158869, Note_on_c, 0, 76, 0
2,158973, Note_on_c, 0, 53, 0
2,158978, Note_on_c, 0, 77, 92
2,158981, Note_on_c, 0, 52, 74
2,158981, Note_on_c, 0, 74, 81
2,158990, Note_on_c, 0, 69, 72
2,159018, Note_on_c, 0, 69, 0
2,159032, Control_c, 0, 64, 25
2,159048, Control_c, 0, 64, 44
2,159051, Note_on_c, 0, 74, 0
2,159063, Control_c, 0, 64, 56
2,159078, Control_c, 0, 64, 61
2,159083, Note_on_c, 0, 50, 82
2,159094, Control_c, 0, 64, 64
2,159097, Note_on_c, 0, 77, 0
2,159100, Note_on_c, 0, 52, 0
2,159108, Control_c, 0, 64, 65
2,159123, Control_c, 0, 64, 67
2,159139, Control_c, 0, 64, 68
2,159169, Control_c, 0, 64, 67
2,159184, Control_c, 0, 64, 65
2,159199, Control_c, 0, 64, 61
2,159215, Control_c, 0, 64, 54
2,159230, Control_c, 0, 64, 40
2,159230, Note_on_c, 0, 49, 76
2,159237, Note_on_c, 0, 79, 90
2,159240, Note_on_c, 0, 76, 78
2,159244, Control_c, 0, 64, 28
2,159255, Note_on_c, 0, 70, 59
2,159260, Control_c, 0, 64, 26
2,159261, Note_on_c, 0, 50, 0
2,159290, Control_c, 0, 64, 26
2,159303, Note_on_c, 0, 70, 0
2,159305, Control_c, 0, 64, 34
2,159320, Control_c, 0, 64, 45
2,159330, Note_on_c, 0, 49, 0
2,159336, Control_c, 0, 64, 54
2,159351, Control_c, 0, 64, 61
2,159358, Note_on_c, 0, 74, 82
2,159365, Control_c, 0, 64, 66
2,159381, Control_c, 0, 64, 73
2,159396, Control_c, 0, 64, 85
2,159405, Note_on_c, 0, 79, 0
2,159412, Control_c, 0, 64, 105
2,159427, Control_c, 0, 64, 127
2,159495, Note_on_c, 0, 73, 78
2,159495, Note_on_c, 0, 79, 88
2,159500, Note_on_c, 0, 76, 0
2,159524, Note_on_c, 0, 74, 0
2,159563, Note_on_c, 0, 73, 0
2,159564, Control_c, 0, 64, 113
2,159580, Control_c, 0, 64, 99
2,159602, Control_c, 0, 64, 90
2,159606, Note_on_c, 0, 77, 88
2,159618, Control_c, 0, 64, 83
2,159620, Note_on_c, 0, 69, 80
2,159632, Note_on_c, 0, 74, 72
2,159633, Control_c, 0, 64, 76
2,159643, Note_on_c, 0, 79, 0
2,159649, Control_c, 0, 64, 68
2,159664, Control_c, 0, 64, 59
2,159678, Control_c, 0, 64, 48
2,159694, Control_c, 0, 64, 41
2,159709, Control_c, 0, 64, 38
2,159724, Control_c, 0, 64, 32
2,159740, Control_c, 0, 64, 26
2,159745, Note_on_c, 0, 76, 85
2,159746, Note_on_c, 0, 79, 89
2,159752, Note_on_c, 0, 67, 83
2,159754, Control_c, 0, 64, 25
2,159755, Note_on_c, 0, 74, 0
2,159760, Note_on_c, 0, 69, 0
2,159770, Control_c, 0, 64, 25
2,159785, Control_c, 0, 64, 33
2,159800, Control_c, 0, 64, 43
2,159803, Note_on_c, 0, 77, 0
2,159816, Control_c, 0, 64, 53
2,159830, Control_c, 0, 64, 59
2,159845, Control_c, 0, 64, 64
2,159852, Note_on_c, 0, 76, 0
2,159861, Control_c, 0, 64, 69
2,159867, Note_on_c, 0, 65, 84
2,159876, Control_c, 0, 64, 77
2,159886, Note_on_c, 0, 79, 0
2,159892, Control_c, 0, 64, 88
2,159892, Note_on_c, 0, 67, 0
2,159907, Control_c, 0, 64, 101
2,159922, Control_c, 0, 64, 102
2,159937, Control_c, 0, 64, 94
2,159952, Control_c, 0, 64, 80
2,159968, Control_c, 0, 64, 68
2,159983, Control_c, 0, 64, 56
2,159993, Note_on_c, 0, 81, 83
2,159994, Note_on_c, 0, 77, 93
2,159998, Control_c, 0, 64, 38
2,160001, Note_on_c, 0, 64, 83
2,160001, Note_on_c, 0, 65, 0
2,160013, Control_c, 0, 64, 37
2,160028, Control_c, 0, 64, 40
2,160043, Control_c, 0, 64, 46
2,160059, Control_c, 0, 64, 53
2,160074, Control_c, 0, 64, 59
2,160089, Control_c, 0, 64, 63
2,160102, Note_on_c, 0, 81, 0
2,160104, Control_c, 0, 64, 67
2,160106, Note_on_c, 0, 62, 88
2,160119, Control_c, 0, 64, 73
2,160134, Control_c, 0, 64, 84
2,160134, Note_on_c, 0, 64, 0
2,160137, Note_on_c, 0, 77, 0
2,160149, Control_c, 0, 64, 97
2,160164, Control_c, 0, 64, 115
2,160180, Control_c, 0, 64, 127
2,160225, Control_c, 0, 64, 121
2,160240, Control_c, 0, 64, 113
2,160255, Note_on_c, 0, 82, 89
2,160256, Control_c, 0, 64, 104
2,160262, Note_on_c, 0, 61, 78
2,160271, Control_c, 0, 64, 93
2,160272, Note_on_c, 0, 67, 80
2,160286, Control_c, 0, 64, 80
2,160288, Note_on_c, 0, 62, 0
2,160297, Note_on_c, 0, 65, 49
2,160301, Control_c, 0, 64, 71
2,160317, Control_c, 0, 64, 64
2,160328, Note_on_c, 0, 65, 0
2,160333, Control_c, 0, 64, 59
2,160348, Control_c, 0, 64, 56
2,160371, Control_c, 0, 64, 55
2,160386, Control_c, 0, 64, 52
2,160387, Note_on_c, 0, 81, 79
2,160401, Control_c, 0, 64, 49
2,160417, Control_c, 0, 64, 47
2,160432, Control_c, 0, 64, 47
2,160477, Control_c, 0, 64, 46
2,160493, Control_c, 0, 64, 46
2,160496, Note_on_c, 0, 82, 0
2,160516, Note_on_c, 0, 79, 86
2,160524, Note_on_c, 0, 64, 79
2,160538, Control_c, 0, 64, 45
2,160546, Note_on_c, 0, 81, 0
2,160569, Control_c, 0, 64, 45
2,160569, Note_on_c, 0, 61, 0
2,160583, Control_c, 0, 64, 44
2,160598, Control_c, 0, 64, 44
2,160614, Control_c, 0, 64, 43
2,160629, Control_c, 0, 64, 42
2,160631, Note_on_c, 0, 81, 88
2,160644, Control_c, 0, 64, 40
2,160659, Control_c, 0, 64, 39
2,160666, Note_on_c, 0, 79, 0
2,160674, Control_c, 0, 64, 38
2,160690, Control_c, 0, 64, 37
2,160705, Control_c, 0, 64, 34
2,160720, Control_c, 0, 64, 30
2,160736, Control_c, 0, 64, 25
2,160751, Control_c, 0, 64, 22
2,160765, Note_on_c, 0, 82, 87
2,160766, Control_c, 0, 64, 21
2,160766, Note_on_c, 0, 61, 84
2,160793, Note_on_c, 0, 64, 0
2,160805, Note_on_c, 0, 67, 0
2,160812, Control_c, 0, 64, 21
2,160821, Note_on_c, 0, 81, 0
2,160827, Control_c, 0, 64, 29
2,160842, Control_c, 0, 64, 41
2,160857, Control_c, 0, 64, 51
2,160872, Control_c, 0, 64, 57
2,160883, Note_on_c, 0, 79, 82
2,160888, Control_c, 0, 64, 61
2,160903, Control_c, 0, 64, 65
2,160909, Note_on_c, 0, 82, 0
2,160918, Control_c, 0, 64, 70
2,160933, Control_c, 0, 64, 78
2,160948, Control_c, 0, 64, 90
2,160961, Control_c, 0, 64, 96
2,160977, Control_c, 0, 64, 90
2,160980, Note_on_c, 0, 79, 0
2,160992, Control_c, 0, 64, 79
2,161008, Control_c, 0, 64, 68
2,161015, Note_on_c, 0, 69, 82
2,161017, Note_on_c, 0, 81, 78
2,161023, Control_c, 0, 64, 62
2,161023, Note_on_c, 0, 57, 81
2,161036, Note_on_c, 0, 61, 0
2,161038, Control_c, 0, 64, 61
2,161053, Control_c, 0, 64, 64
2,161068, Control_c, 0, 64, 66
2,161075, Note_on_c, 0, 57, 0
2,161083, Control_c, 0, 64, 70
2,161099, Control_c, 0, 64, 77
2,161106, Note_on_c, 0, 81, 0
2,161114, Control_c, 0, 64, 89
2,161138, Control_c, 0, 64, 106
2,161139, Note_on_c, 0, 76, 83
2,161153, Control_c, 0, 64, 127
2,161175, Note_on_c, 0, 69, 0
2,161198, Control_c, 0, 64, 117
2,161213, Control_c, 0, 64, 113
2,161228, Control_c, 0, 64, 108
2,161243, Control_c, 0, 64, 99
2,161259, Control_c, 0, 64, 86
2,161273, Note_on_c, 0, 77, 93
2,161274, Control_c, 0, 64, 72
2,161275, Note_on_c, 0, 50, 72
2,161284, Note_on_c, 0, 69, 78
2,161289, Control_c, 0, 64, 58
2,161289, Note_on_c, 0, 62, 86
2,161298, Note_on_c, 0, 76, 0
2,161304, Control_c, 0, 64, 35
2,161319, Control_c, 0, 64, 32
2,161335, Control_c, 0, 64, 38
2,161350, Control_c, 0, 64, 45
2,161362, Note_on_c, 0, 50, 0
2,161365, Control_c, 0, 64, 52
2,161381, Control_c, 0, 64, 58
2,161396, Control_c, 0, 64, 62
2,161399, Note_on_c, 0, 76, 88
2,161412, Control_c, 0, 64, 65
2,161426, Control_c, 0, 64, 70
2,161441, Control_c, 0, 64, 78
2,161457, Control_c, 0, 64, 91
2,161464, Note_on_c, 0, 77, 0
2,161472, Control_c, 0, 64, 111
2,161488, Control_c, 0, 64, 127
2,161520, Note_on_c, 0, 74, 89
2,161534, Note_on_c, 0, 65, 83
2,161549, Note_on_c, 0, 69, 0
2,161555, Note_on_c, 0, 76, 0
2,161564, Note_on_c, 0, 62, 0
2,161635, Note_on_c, 0, 76, 90
2,161665, Note_on_c, 0, 74, 0
2,161759, Control_c, 0, 64, 94
2,161769, Note_on_c, 0, 77, 91
2,161775, Control_c, 0, 64, 74
2,161778, Note_on_c, 0, 62, 83
2,161781, Note_on_c, 0, 69, 73
2,161790, Control_c, 0, 64, 62
2,161790, Note_on_c, 0, 65, 0
2,161790, Note_on_c, 0, 76, 0
2,161805, Control_c, 0, 64, 54
2,161821, Control_c, 0, 64, 57
2,161836, Control_c, 0, 64, 60
2,161852, Control_c, 0, 64, 63
2,161867, Control_c, 0, 64, 66
2,161882, Control_c, 0, 64, 71
2,161895, Note_on_c, 0, 74, 90
2,161904, Control_c, 0, 64, 78
2,161919, Control_c, 0, 64, 89
2,161923, Note_on_c, 0, 69, 0
2,161935, Control_c, 0, 64, 102
2,161937, Note_on_c, 0, 77, 0
2,161951, Control_c, 0, 64, 111
2,161966, Control_c, 0, 64, 111
2,161982, Control_c, 0, 64, 106
2,161997, Control_c, 0, 64, 96
2,162012, Control_c, 0, 64, 82
2,162027, Control_c, 0, 64, 69
2,162040, Note_on_c, 0, 76, 85
2,162041, Note_on_c, 0, 57, 79
2,162042, Control_c, 0, 64, 59
2,162045, Note_on_c, 0, 67, 81
2,162050, Note_on_c, 0, 74, 0
2,162057, Control_c, 0, 64, 47
2,162072, Control_c, 0, 64, 49
2,162088, Control_c, 0, 64, 53
2,162103, Control_c, 0, 64, 56
2,162118, Control_c, 0, 64, 61
2,162133, Control_c, 0, 64, 64
2,162147, Note_on_c, 0, 57, 0
2,162148, Control_c, 0, 64, 70
2,162163, Control_c, 0, 64, 80
2,162176, Note_on_c, 0, 73, 85
2,162179, Control_c, 0, 64, 104
2,162194, Control_c, 0, 64, 127
2,162209, Note_on_c, 0, 76, 0
2,162213, Note_on_c, 0, 67, 0
2,162308, Note_on_c, 0, 74, 87
2,162312, Note_on_c, 0, 65, 80
2,162313, Note_on_c, 0, 58, 85
2,162316, Control_c, 0, 64, 119
2,162318, Note_on_c, 0, 50, 74
2,162325, Note_on_c, 0, 62, 0
2,162332, Control_c, 0, 64, 81
2,162332, Note_on_c, 0, 73, 0
2,162346, Control_c, 0, 64, 63
2,162361, Control_c, 0, 64, 49
2,162392, Control_c, 0, 64, 53
2,162408, Control_c, 0, 64, 56
2,162422, Control_c, 0, 64, 60
2,162437, Control_c, 0, 64, 64
2,162453, Control_c, 0, 64, 68
2,162455, Note_on_c, 0, 72, 87
2,162467, Control_c, 0, 64, 78
2,162476, Note_on_c, 0, 65, 0
2,162482, Control_c, 0, 64, 106
2,162499, Control_c, 0, 64, 127
2,162521, Note_on_c, 0, 74, 0
2,162604, Note_on_c, 0, 62, 84
2,162613, Note_on_c, 0, 70, 80
2,162618, Note_on_c, 0, 53, 79
2,162620, Control_c, 0, 64, 119
2,162635, Control_c, 0, 64, 81
2,162651, Control_c, 0, 64, 65
2,162657, Note_on_c, 0, 72, 0
2,162673, Control_c, 0, 64, 52
2,162689, Control_c, 0, 64, 52
2,162704, Control_c, 0, 64, 56
2,162719, Control_c, 0, 64, 61
2,162719, Note_on_c, 0, 58, 0
2,162733, Note_on_c, 0, 62, 0
2,162735, Control_c, 0, 64, 64
2,162749, Control_c, 0, 64, 68
2,162764, Control_c, 0, 64, 75
2,162772, Note_on_c, 0, 72, 91
2,162781, Control_c, 0, 64, 89
2,162796, Control_c, 0, 64, 127
2,162928, Note_on_c, 0, 70, 0
2,162938, Note_on_c, 0, 74, 90
2,162942, Note_on_c, 0, 58, 86
2,162946, Note_on_c, 0, 65, 81
2,162948, Control_c, 0, 64, 100
2,162963, Control_c, 0, 64, 76
2,162978, Control_c, 0, 64, 62
2,162993, Control_c, 0, 64, 42
2,163009, Control_c, 0, 64, 41
2,163019, Note_on_c, 0, 72, 0
2,163024, Control_c, 0, 64, 47
2,163038, Control_c, 0, 64, 52
2,163054, Control_c, 0, 64, 57
2,163060, Note_on_c, 0, 53, 0
2,163069, Control_c, 0, 64, 60
2,163084, Control_c, 0, 64, 63
2,163099, Control_c, 0, 64, 66
2,163114, Control_c, 0, 64, 72
2,163130, Control_c, 0, 64, 82
2,163130, Note_on_c, 0, 70, 86
2,163145, Control_c, 0, 64, 101
2,163160, Control_c, 0, 64, 127
2,163183, Note_on_c, 0, 74, 0
2,163184, Note_on_c, 0, 65, 0
2,163343, Control_c, 0, 64, 110
2,163351, Note_on_c, 0, 72, 90
2,163353, Note_on_c, 0, 65, 87
2,163357, Note_on_c, 0, 62, 90
2,163358, Control_c, 0, 64, 80
2,163374, Control_c, 0, 64, 63
2,163388, Control_c, 0, 64, 24
2,163393, Note_on_c, 0, 70, 0
2,163395, Note_on_c, 0, 58, 0
2,163403, Control_c, 0, 64, 0
2,163419, Control_c, 0, 64, 17
2,163441, Control_c, 0, 64, 34
2,163457, Control_c, 0, 64, 45
2,163472, Control_c, 0, 64, 54
2,163488, Control_c, 0, 64, 61
2,163503, Control_c, 0, 64, 66
2,163517, Control_c, 0, 64, 73
2,163533, Control_c, 0, 64, 92
2,163548, Control_c, 0, 64, 127
2,163597, Note_on_c, 0, 50, 0
2,163600, Note_on_c, 0, 62, 0
2,163661, Note_on_c, 0, 69, 90
2,163722, Note_on_c, 0, 72, 0
2,163740, Note_on_c, 0, 65, 0
2,163813, Note_on_c, 0, 69, 0
2,164161, Note_on_c, 0, 64, 85
2,164161, Note_on_c, 0, 71, 83
2,164162, Note_on_c, 0, 76, 84
2,164164, Note_on_c, 0, 59, 84
2,164164, Note_on_c, 0, 80, 86
2,164170, Note_on_c, 0, 50, 62
2,164215, Note_on_c, 0, 52, 32
2,164216, Note_on_c, 0, 52, 0
2,164225, Control_c, 0, 64, 110
2,164239, Control_c, 0, 64, 79
2,164255, Control_c, 0, 64, 61
2,164270, Control_c, 0, 64, 40
2,164285, Control_c, 0, 64, 35
2,164301, Control_c, 0, 64, 37
2,164315, Control_c, 0, 64, 38
2,164331, Control_c, 0, 64, 39
2,164992, Control_c, 0, 64, 39
2,165083, Control_c, 0, 64, 40
2,165129, Control_c, 0, 64, 40
2,165220, Control_c, 0, 64, 41
2,165312, Control_c, 0, 64, 41
2,165373, Control_c, 0, 64, 42
2,165403, Control_c, 0, 64, 42
2,165449, Control_c, 0, 64, 43
2,165495, Control_c, 0, 64, 43
2,165524, Control_c, 0, 64, 44
2,165554, Control_c, 0, 64, 44
2,165585, Control_c, 0, 64, 45
2,165600, Control_c, 0, 64, 46
2,165616, Control_c, 0, 64, 46
2,165630, Control_c, 0, 64, 47
2,165645, Control_c, 0, 64, 48
2,165661, Control_c, 0, 64, 49
2,165676, Control_c, 0, 64, 50
2,165692, Control_c, 0, 64, 51
2,165707, Control_c, 0, 64, 52
2,165722, Control_c, 0, 64, 54
2,165745, Control_c, 0, 64, 55
2,165760, Control_c, 0, 64, 56
2,165775, Control_c, 0, 64, 56
2,165790, Control_c, 0, 64, 57
2,165805, Control_c, 0, 64, 58
2,165821, Control_c, 0, 64, 59
2,165851, Control_c, 0, 64, 59
2,165866, Control_c, 0, 64, 60
2,165897, Control_c, 0, 64, 60
2,165926, Control_c, 0, 64, 61
2,165973, Control_c, 0, 64, 61
2,166156, Control_c, 0, 64, 62
2,166201, Control_c, 0, 64, 62
2,166217, Control_c, 0, 64, 63
2,166232, Control_c, 0, 64, 64
2,166248, Control_c, 0, 64, 65
2,166263, Control_c, 0, 64, 67
2,166277, Control_c, 0, 64, 71
2,166293, Control_c, 0, 64, 75
2,166308, Control_c, 0, 64, 80
2,166322, Note_on_c, 0, 50, 0
2,166322, Note_on_c, 0, 64, 0
2,166323, Control_c, 0, 64, 83
2,166333, Note_on_c, 0, 71, 0
2,166338, Note_on_c, 0, 80, 0
2,166339, Control_c, 0, 64, 85
2,166354, Control_c, 0, 64, 85
2,166381, Note_on_c, 0, 76, 0
2,166415, Control_c, 0, 64, 85
2,166419, Note_on_c, 0, 59, 0
2,166430, Control_c, 0, 64, 84
2,166445, Control_c, 0, 64, 82
2,166461, Control_c, 0, 64, 80
2,166475, Control_c, 0, 64, 78
2,166491, Control_c, 0, 64, 75
2,166514, Control_c, 0, 64, 71
2,166530, Control_c, 0, 64, 67
2,166544, Control_c, 0, 64, 64
2,166559, Control_c, 0, 64, 62
2,166575, Control_c, 0, 64, 59
2,166590, Control_c, 0, 64, 57
2,166605, Control_c, 0, 64, 55
2,166620, Control_c, 0, 64, 52
2,166635, Control_c, 0, 64, 48
2,166651, Control_c, 0, 64, 45
2,166666, Control_c, 0, 64, 44
2,166681, Control_c, 0, 64, 42
2,166696, Control_c, 0, 64, 38
2,166711, Control_c, 0, 64, 29
2,166726, Control_c, 0, 64, 17
2,166741, Control_c, 0, 64, 9
2,166756, Control_c, 0, 64, 0
2,166895, Control_c, 0, 64, 12
2,166910, Control_c, 0, 64, 17
2,166924, Control_c, 0, 64, 21
2,166940, Control_c, 0, 64, 23
2,166945, Note_on_c, 0, 51, 74
2,166946, Note_on_c, 0, 81, 80
2,166951, Note_on_c, 0, 60, 84
2,166955, Control_c, 0, 64, 25
2,166960, Note_on_c, 0, 57, 78
2,166970, Control_c, 0, 64, 26
2,166985, Control_c, 0, 64, 28
2,167000, Control_c, 0, 64, 28
2,167092, Control_c, 0, 64, 31
2,167107, Control_c, 0, 64, 40
2,167122, Control_c, 0, 64, 51
2,167138, Control_c, 0, 64, 56
2,167153, Control_c, 0, 64, 59
2,167169, Control_c, 0, 64, 62
2,167174, Note_on_c, 0, 51, 0
2,167183, Control_c, 0, 64, 63
2,167198, Control_c, 0, 64, 64
2,167206, Note_on_c, 0, 57, 0
2,167214, Control_c, 0, 64, 66
2,167244, Control_c, 0, 64, 65
2,167269, Note_on_c, 0, 69, 85
2,167281, Control_c, 0, 64, 65
2,167297, Control_c, 0, 64, 64
2,167312, Control_c, 0, 64, 62
2,167328, Control_c, 0, 64, 60
2,167343, Control_c, 0, 64, 58
2,167357, Control_c, 0, 64, 56
2,167366, Note_on_c, 0, 69, 0
2,167373, Control_c, 0, 64, 53
2,167386, Note_on_c, 0, 68, 83
2,167388, Control_c, 0, 64, 49
2,167403, Control_c, 0, 64, 38
2,167419, Control_c, 0, 64, 30
2,167434, Control_c, 0, 64, 27
2,167450, Control_c, 0, 64, 26
2,167464, Control_c, 0, 64, 26
2,167479, Control_c, 0, 64, 23
2,167495, Control_c, 0, 64, 18
2,167510, Control_c, 0, 64, 12
2,167525, Control_c, 0, 64, 0
2,167532, Note_on_c, 0, 69, 92
2,167541, Note_on_c, 0, 68, 0
2,167663, Note_on_c, 0, 69, 0
2,167816, Note_on_c, 0, 71, 91
2,167918, Note_on_c, 0, 60, 0
2,167929, Note_on_c, 0, 71, 0
2,168105, Note_on_c, 0, 72, 95
2,168110, Note_on_c, 0, 52, 73
2,168110, Note_on_c, 0, 60, 92
2,168111, Note_on_c, 0, 57, 78
2,168141, Control_c, 0, 64, 9
2,168156, Control_c, 0, 64, 37
2,168172, Control_c, 0, 64, 52
2,168186, Control_c, 0, 64, 59
2,168201, Control_c, 0, 64, 63
2,168211, Note_on_c, 0, 81, 0
2,168217, Control_c, 0, 64, 65
2,168220, Note_on_c, 0, 72, 0
2,168232, Control_c, 0, 64, 66
2,168248, Control_c, 0, 64, 66
2,168263, Control_c, 0, 64, 65
2,168278, Control_c, 0, 64, 64
2,168294, Control_c, 0, 64, 61
2,168308, Control_c, 0, 64, 58
2,168323, Control_c, 0, 64, 54
2,168339, Control_c, 0, 64, 52
2,168370, Control_c, 0, 64, 54
2,168384, Control_c, 0, 64, 56
2,168386, Note_on_c, 0, 76, 83
2,168389, Note_on_c, 0, 72, 81
2,168399, Control_c, 0, 64, 59
2,168415, Control_c, 0, 64, 60
2,168429, Control_c, 0, 64, 60
2,168430, Note_on_c, 0, 72, 0
2,168444, Control_c, 0, 64, 61
2,168453, Note_on_c, 0, 76, 0
2,168475, Control_c, 0, 64, 60
2,168491, Control_c, 0, 64, 58
2,168495, Note_on_c, 0, 71, 80
2,168495, Note_on_c, 0, 74, 83
2,168509, Control_c, 0, 64, 53
2,168525, Control_c, 0, 64, 47
2,168539, Control_c, 0, 64, 40
2,168554, Control_c, 0, 64, 36
2,168563, Note_on_c, 0, 71, 0
2,168570, Control_c, 0, 64, 36
2,168601, Control_c, 0, 64, 36
2,168636, Note_on_c, 0, 72, 90
2,168637, Note_on_c, 0, 76, 88
2,168645, Control_c, 0, 64, 38
2,168654, Note_on_c, 0, 74, 0
2,168659, Control_c, 0, 64, 42
2,168661, Note_on_c, 0, 52, 0
2,168674, Control_c, 0, 64, 49
2,168690, Control_c, 0, 64, 56
2,168702, Note_on_c, 0, 60, 0
2,168705, Control_c, 0, 64, 61
2,168709, Note_on_c, 0, 57, 0
2,168717, Note_on_c, 0, 56, 6
2,168721, Control_c, 0, 64, 64
2,168736, Control_c, 0, 64, 68
2,168745, Note_on_c, 0, 56, 0
2,168751, Control_c, 0, 64, 74
2,168767, Control_c, 0, 64, 82
2,168776, Note_on_c, 0, 76, 0
2,168782, Control_c, 0, 64, 91
2,168796, Control_c, 0, 64, 95
2,168819, Control_c, 0, 64, 93
2,168825, Note_on_c, 0, 72, 0
2,168834, Control_c, 0, 64, 88
2,168850, Control_c, 0, 64, 81
2,168865, Control_c, 0, 64, 74
2,168879, Control_c, 0, 64, 68
2,168895, Control_c, 0, 64, 62
2,168910, Control_c, 0, 64, 55
2,168926, Control_c, 0, 64, 50
2,168927, Note_on_c, 0, 78, 85
2,168928, Note_on_c, 0, 74, 85
2,168941, Control_c, 0, 64, 47
2,168955, Control_c, 0, 64, 46
2,168971, Control_c, 0, 64, 46
2,168986, Control_c, 0, 64, 48
2,169002, Control_c, 0, 64, 52
2,169017, Control_c, 0, 64, 58
2,169032, Control_c, 0, 64, 61
2,169048, Control_c, 0, 64, 63
2,169063, Control_c, 0, 64, 64
2,169077, Control_c, 0, 64, 64
2,169085, Note_on_c, 0, 78, 0
2,169093, Control_c, 0, 64, 65
2,169094, Note_on_c, 0, 74, 0
2,169124, Control_c, 0, 64, 64
2,169139, Control_c, 0, 64, 64
2,169153, Control_c, 0, 64, 63
2,169169, Control_c, 0, 64, 61
2,169184, Control_c, 0, 64, 58
2,169189, Note_on_c, 0, 80, 85
2,169194, Note_on_c, 0, 76, 79
2,169196, Note_on_c, 0, 59, 83
2,169197, Note_on_c, 0, 62, 84
2,169198, Control_c, 0, 64, 54
2,169198, Note_on_c, 0, 52, 75
2,169214, Control_c, 0, 64, 51
2,169229, Control_c, 0, 64, 49
2,169245, Control_c, 0, 64, 48
2,169260, Control_c, 0, 64, 47
2,169274, Control_c, 0, 64, 47
2,169326, Note_on_c, 0, 74, 83
2,169366, Note_on_c, 0, 80, 0
2,169387, Note_on_c, 0, 76, 0
2,169455, Note_on_c, 0, 72, 82
2,169457, Note_on_c, 0, 80, 86
2,169468, Note_on_c, 0, 74, 0
2,169556, Note_on_c, 0, 78, 82
2,169563, Note_on_c, 0, 74, 82
2,169587, Note_on_c, 0, 72, 0
2,169603, Control_c, 0, 64, 46
2,169605, Note_on_c, 0, 80, 0
2,169618, Control_c, 0, 64, 45
2,169632, Control_c, 0, 64, 43
2,169648, Control_c, 0, 64, 39
2,169663, Control_c, 0, 64, 33
2,169678, Control_c, 0, 64, 26
2,169694, Control_c, 0, 64, 23
2,169704, Note_on_c, 0, 80, 86
2,169706, Note_on_c, 0, 76, 85
2,169709, Control_c, 0, 64, 22
2,169721, Note_on_c, 0, 74, 0
2,169739, Control_c, 0, 64, 24
2,169754, Control_c, 0, 64, 36
2,169770, Control_c, 0, 64, 50
2,169785, Control_c, 0, 64, 59
2,169789, Note_on_c, 0, 78, 0
2,169799, Control_c, 0, 64, 64
2,169803, Note_on_c, 0, 76, 0
2,169815, Control_c, 0, 64, 68
2,169830, Control_c, 0, 64, 74
2,169843, Note_on_c, 0, 80, 0
2,169846, Control_c, 0, 64, 81
2,169861, Control_c, 0, 64, 85
2,169885, Note_on_c, 0, 52, 0
2,169892, Control_c, 0, 64, 82
2,169907, Control_c, 0, 64, 77
2,169922, Control_c, 0, 64, 70
2,169937, Control_c, 0, 64, 63
2,169952, Control_c, 0, 64, 54
2,169961, Note_on_c, 0, 62, 0
2,169968, Control_c, 0, 64, 47
2,169983, Control_c, 0, 64, 46
2,169989, Note_on_c, 0, 77, 91
2,169992, Note_on_c, 0, 81, 86
2,169997, Control_c, 0, 64, 47
2,170007, Note_on_c, 0, 59, 0
2,170013, Control_c, 0, 64, 50
2,170028, Control_c, 0, 64, 55
2,170043, Control_c, 0, 64, 61
2,170058, Control_c, 0, 64, 65
2,170073, Control_c, 0, 64, 70
2,170089, Control_c, 0, 64, 82
2,170104, Control_c, 0, 64, 107
2,170119, Control_c, 0, 64, 127
2,170123, Note_on_c, 0, 77, 0
2,170126, Note_on_c, 0, 81, 0
2,170272, Control_c, 0, 64, 96
2,170288, Control_c, 0, 64, 84
2,170289, Note_on_c, 0, 83, 85
2,170292, Note_on_c, 0, 68, 93
2,170303, Control_c, 0, 64, 76
2,170318, Control_c, 0, 64, 70
2,170334, Control_c, 0, 64, 66
2,170356, Control_c, 0, 64, 63
2,170372, Control_c, 0, 64, 60
2,170387, Control_c, 0, 64, 59
2,170392, Note_on_c, 0, 68, 0
2,170402, Control_c, 0, 64, 57
2,170417, Control_c, 0, 64, 55
2,170422, Note_on_c, 0, 81, 81
2,170432, Control_c, 0, 64, 54
2,170448, Control_c, 0, 64, 53
2,170504, Note_on_c, 0, 83, 0
2,170553, Note_on_c, 0, 80, 83
2,170565, Note_on_c, 0, 59, 74
2,170570, Note_on_c, 0, 64, 73
2,170599, Note_on_c, 0, 81, 0
2,170677, Note_on_c, 0, 60, 74
2,170687, Note_on_c, 0, 81, 87
2,170694, Note_on_c, 0, 59, 0
2,170707, Note_on_c, 0, 64, 0
2,170732, Note_on_c, 0, 80, 0
2,170751, Control_c, 0, 64, 53
2,170781, Control_c, 0, 64, 52
2,170796, Control_c, 0, 64, 51
2,170812, Control_c, 0, 64, 49
2,170827, Control_c, 0, 64, 46
2,170843, Control_c, 0, 64, 43
2,170845, Note_on_c, 0, 62, 81
2,170851, Note_on_c, 0, 83, 91
2,170858, Control_c, 0, 64, 42
2,170876, Note_on_c, 0, 60, 0
2,170903, Control_c, 0, 64, 42
2,170918, Control_c, 0, 64, 46
2,170918, Note_on_c, 0, 81, 0
2,170934, Control_c, 0, 64, 51
2,170949, Control_c, 0, 64, 56
2,170965, Control_c, 0, 64, 60
2,170980, Control_c, 0, 64, 63
2,170992, Note_on_c, 0, 62, 0
2,170995, Control_c, 0, 64, 67
2,171011, Control_c, 0, 64, 74
2,171013, Note_on_c, 0, 64, 88
2,171026, Control_c, 0, 64, 88
2,171041, Control_c, 0, 64, 127
2,171090, Note_on_c, 0, 64, 0
2,171185, Control_c, 0, 64, 100
2,171199, Control_c, 0, 64, 80
2,171215, Control_c, 0, 64, 65
2,171219, Note_on_c, 0, 84, 89
2,171220, Note_on_c, 0, 66, 83
2,171223, Note_on_c, 0, 83, 0
2,171227, Note_on_c, 0, 69, 91
2,171230, Control_c, 0, 64, 38
2,171246, Control_c, 0, 64, 11
2,171261, Control_c, 0, 64, 12
2,171276, Control_c, 0, 64, 17
2,171292, Control_c, 0, 64, 28
2,171307, Control_c, 0, 64, 40
2,171322, Control_c, 0, 64, 51
2,171337, Control_c, 0, 64, 58
2,171352, Control_c, 0, 64, 62
2,171368, Control_c, 0, 64, 66
2,171383, Control_c, 0, 64, 73
2,171397, Control_c, 0, 64, 87
2,171413, Control_c, 0, 64, 127
2,171417, Note_on_c, 0, 84, 0
2,171438, Note_on_c, 0, 68, 96
2,171472, Note_on_c, 0, 69, 0
2,171500, Note_on_c, 0, 66, 0
2,171517, Note_on_c, 0, 68, 0
2,171772, Note_on_c, 0, 71, 86
2,171773, Note_on_c, 0, 69, 83
2,171775, Note_on_c, 0, 66, 89
2,171778, Note_on_c, 0, 75, 84
2,171783, Note_on_c, 0, 54, 77
2,171785, Note_on_c, 0, 57, 70
2,171823, Control_c, 0, 64, 93
2,171837, Control_c, 0, 64, 75
2,171852, Note_on_c, 0, 56, 32
2,171853, Control_c, 0, 64, 64
2,171868, Control_c, 0, 64, 50
2,171891, Control_c, 0, 64, 41
2,171906, Control_c, 0, 64, 41
2,171922, Control_c, 0, 64, 41
2,171952, Control_c, 0, 64, 40
2,171967, Control_c, 0, 64, 40
2,171982, Control_c, 0, 64, 39
2,172286, Control_c, 0, 64, 40
2,172301, Control_c, 0, 64, 40
2,172302, Note_on_c, 0, 56, 0
2,172315, Control_c, 0, 64, 41
2,172331, Control_c, 0, 64, 42
2,172346, Control_c, 0, 64, 44
2,172362, Control_c, 0, 64, 46
2,172377, Control_c, 0, 64, 49
2,172392, Control_c, 0, 64, 52
2,172408, Control_c, 0, 64, 55
2,172423, Control_c, 0, 64, 58
2,172438, Control_c, 0, 64, 62
2,172453, Control_c, 0, 64, 65
2,172468, Control_c, 0, 64, 71
2,172484, Control_c, 0, 64, 85
2,172498, Control_c, 0, 64, 127
2,172553, Note_on_c, 0, 69, 0
2,172589, Note_on_c, 0, 54, 0
2,172604, Note_on_c, 0, 71, 0
2,172606, Note_on_c, 0, 66, 0
2,172632, Note_on_c, 0, 75, 0
2,172633, Note_on_c, 0, 57, 0
2,172719, Control_c, 0, 64, 94
2,172735, Control_c, 0, 64, 80
2,172750, Control_c, 0, 64, 71
2,172766, Control_c, 0, 64, 64
2,172781, Control_c, 0, 64, 58
2,172795, Control_c, 0, 64, 52
2,172811, Control_c, 0, 64, 48
2,172826, Control_c, 0, 64, 44
2,172842, Control_c, 0, 64, 38
2,172857, Control_c, 0, 64, 29
2,172872, Control_c, 0, 64, 25
2,172887, Control_c, 0, 64, 23
2,172902, Control_c, 0, 64, 22
2,172917, Control_c, 0, 64, 21
2,172933, Control_c, 0, 64, 21
2,172954, Note_on_c, 0, 76, 77
2,172956, Note_on_c, 0, 71, 67
2,172961, Note_on_c, 0, 56, 67
2,172961, Note_on_c, 0, 64, 62
2,172966, Note_on_c, 0, 59, 70
2,172993, Control_c, 0, 64, 21
2,173009, Control_c, 0, 64, 28
2,173023, Control_c, 0, 64, 39
2,173038, Control_c, 0, 64, 52
2,173054, Control_c, 0, 64, 59
2,173069, Control_c, 0, 64, 65
2,173081, Note_on_c, 0, 64, 0
2,173081, Note_on_c, 0, 76, 0
2,173085, Control_c, 0, 64, 72
2,173090, Note_on_c, 0, 59, 0
2,173099, Control_c, 0, 64, 86
2,173100, Note_on_c, 0, 71, 0
2,173105, Note_on_c, 0, 56, 0
2,173114, Control_c, 0, 64, 127
2,173267, Control_c, 0, 64, 99
2,173282, Control_c, 0, 64, 80
2,173297, Control_c, 0, 64, 66
2,173297, Note_on_c, 0, 64, 70
2,173300, Note_on_c, 0, 69, 78
2,173300, Note_on_c, 0, 72, 80
2,173303, Note_on_c, 0, 57, 72
2,173303, Note_on_c, 0, 60, 80
2,173312, Control_c, 0, 64, 51
2,173328, Control_c, 0, 64, 26
2,173342, Control_c, 0, 64, 25
2,173373, Control_c, 0, 64, 30
2,173388, Control_c, 0, 64, 40
2,173404, Control_c, 0, 64, 53
2,173427, Control_c, 0, 64, 62
2,173437, Note_on_c, 0, 64, 0
2,173443, Control_c, 0, 64, 68
2,173457, Control_c, 0, 64, 79
2,173459, Note_on_c, 0, 57, 0
2,173472, Control_c, 0, 64, 112
2,173473, Note_on_c, 0, 69, 0
2,173481, Note_on_c, 0, 72, 0
2,173488, Control_c, 0, 64, 127
2,173505, Note_on_c, 0, 60, 0
2,173655, Control_c, 0, 64, 91
2,173658, Note_on_c, 0, 71, 86
2,173660, Note_on_c, 0, 50, 73
2,173661, Note_on_c, 0, 65, 79
2,173666, Note_on_c, 0, 62, 89
2,173670, Control_c, 0, 64, 74
2,173686, Control_c, 0, 64, 61
2,173701, Control_c, 0, 64, 39
2,173716, Control_c, 0, 64, 27
2,173731, Control_c, 0, 64, 27
2,173746, Control_c, 0, 64, 28
2,173762, Control_c, 0, 64, 34
2,173777, Control_c, 0, 64, 43
2,173791, Control_c, 0, 64, 51
2,173807, Control_c, 0, 64, 57
2,173822, Control_c, 0, 64, 61
2,173824, Note_on_c, 0, 50, 0
2,173837, Control_c, 0, 64, 65
2,173850, Note_on_c, 0, 69, 90
2,173853, Control_c, 0, 64, 72
2,173867, Control_c, 0, 64, 90
2,173875, Note_on_c, 0, 62, 0
2,173875, Note_on_c, 0, 71, 0
2,173879, Note_on_c, 0, 65, 0
2,173883, Control_c, 0, 64, 127
2,173953, Note_on_c, 0, 69, 0
2,174064, Note_on_c, 0, 69, 84
2,174065, Control_c, 0, 64, 91
2,174065, Note_on_c, 0, 64, 81
2,174066, Note_on_c, 0, 52, 67
2,174068, Note_on_c, 0, 60, 85
2,174068, Note_on_c, 0, 72, 85
2,174079, Control_c, 0, 64, 71
2,174095, Control_c, 0, 64, 54
2,174110, Control_c, 0, 64, 28
2,174126, Control_c, 0, 64, 24
2,174193, Control_c, 0, 64, 28
2,174209, Control_c, 0, 64, 36
2,174224, Control_c, 0, 64, 45
2,174241, Control_c, 0, 64, 51
2,174256, Control_c, 0, 64, 56
2,174271, Control_c, 0, 64, 59
2,174287, Control_c, 0, 64, 62
2,174301, Control_c, 0, 64, 64
2,174314, Note_on_c, 0, 71, 82
2,174316, Control_c, 0, 64, 68
2,174332, Control_c, 0, 64, 76
2,174347, Control_c, 0, 64, 93
2,174355, Note_on_c, 0, 64, 0
2,174363, Control_c, 0, 64, 127
2,174365, Note_on_c, 0, 69, 0
2,174370, Note_on_c, 0, 72, 0
2,174447, Note_on_c, 0, 71, 0
2,174583, Note_on_c, 0, 69, 88
2,174590, Control_c, 0, 64, 107
2,174590, Note_on_c, 0, 62, 79
2,174591, Note_on_c, 0, 59, 75
2,174606, Control_c, 0, 64, 82
2,174621, Control_c, 0, 64, 67
2,174635, Control_c, 0, 64, 54
2,174641, Note_on_c, 0, 56, 34
2,174650, Note_on_c, 0, 60, 0
2,174651, Control_c, 0, 64, 32
2,174666, Control_c, 0, 64, 30
2,174697, Control_c, 0, 64, 29
2,174711, Control_c, 0, 64, 28
2,174727, Control_c, 0, 64, 27
2,174742, Control_c, 0, 64, 26
2,174757, Control_c, 0, 64, 25
2,174773, Control_c, 0, 64, 24
2,174774, Note_on_c, 0, 56, 0
2,174788, Control_c, 0, 64, 23
2,174804, Control_c, 0, 64, 19
2,174819, Control_c, 0, 64, 9
2,174833, Control_c, 0, 64, 0
2,174918, Note_on_c, 0, 68, 83
2,174931, Note_on_c, 0, 69, 0
2,174993, Control_c, 0, 64, 29
2,175009, Control_c, 0, 64, 48
2,175023, Note_on_c, 0, 62, 0
2,175024, Control_c, 0, 64, 59
2,175038, Control_c, 0, 64, 66
2,175054, Control_c, 0, 64, 79
2,175061, Note_on_c, 0, 59, 0
2,175070, Control_c, 0, 64, 127
2,175079, Note_on_c, 0, 68, 0
2,175107, Note_on_c, 0, 52, 0
2,175391, Note_on_c, 0, 69, 77
2,175392, Note_on_c, 0, 61, 71
2,175394, Note_on_c, 0, 64, 80
2,175396, Note_on_c, 0, 45, 76
2,175396, Note_on_c, 0, 57, 82
2,175434, Control_c, 0, 64, 92
2,175450, Control_c, 0, 64, 75
2,175465, Control_c, 0, 64, 65
2,175481, Control_c, 0, 64, 54
2,175496, Control_c, 0, 64, 42
2,175511, Control_c, 0, 64, 38
2,175526, Control_c, 0, 64, 33
2,175541, Control_c, 0, 64, 25
2,175555, Control_c, 0, 64, 17
2,175571, Control_c, 0, 64, 17
2,175617, Control_c, 0, 64, 25
2,175631, Control_c, 0, 64, 39
2,175647, Control_c, 0, 64, 51
2,175662, Control_c, 0, 64, 59
2,175676, Control_c, 0, 64, 64
2,175692, Control_c, 0, 64, 70
2,175707, Control_c, 0, 64, 84
2,175731, Control_c, 0, 64, 127
2,175862, Note_on_c, 0, 57, 0
2,175999, Note_on_c, 0, 57, 84
2,176065, Control_c, 0, 64, 100
2,176075, Note_on_c, 0, 61, 0
2,176081, Control_c, 0, 64, 83
2,176096, Control_c, 0, 64, 69
2,176110, Control_c, 0, 64, 60
2,176126, Control_c, 0, 64, 50
2,176141, Control_c, 0, 64, 48
2,176150, Note_on_c, 0, 58, 85
2,176156, Control_c, 0, 64, 48
2,176168, Note_on_c, 0, 64, 0
2,176172, Control_c, 0, 64, 46
2,176184, Control_c, 0, 64, 43
2,176187, Note_on_c, 0, 57, 0
2,176199, Control_c, 0, 64, 40
2,176215, Control_c, 0, 64, 39
2,176315, Note_on_c, 0, 57, 87
2,176352, Control_c, 0, 64, 39
2,176368, Control_c, 0, 64, 40
2,176372, Note_on_c, 0, 58, 0
2,176397, Control_c, 0, 64, 40
2,176494, Note_on_c, 0, 57, 0
2,176496, Control_c, 0, 64, 41
2,176622, Note_on_c, 0, 64, 82
2,176625, Note_on_c, 0, 55, 87
2,176725, Control_c, 0, 64, 40
2,176741, Control_c, 0, 64, 39
2,176755, Control_c, 0, 64, 37
2,176757, Note_on_c, 0, 64, 0
2,176771, Control_c, 0, 64, 30
2,176786, Control_c, 0, 64, 20
2,176795, Note_on_c, 0, 55, 0
2,176801, Control_c, 0, 64, 0
2,176924, Note_on_c, 0, 53, 92
2,176926, Note_on_c, 0, 57, 85
2,176952, Control_c, 0, 64, 9
2,176968, Control_c, 0, 64, 36
2,176983, Control_c, 0, 64, 53
2,176998, Control_c, 0, 64, 62
2,177014, Control_c, 0, 64, 68
2,177014, Note_on_c, 0, 57, 0
2,177028, Control_c, 0, 64, 79
2,177043, Control_c, 0, 64, 114
2,177059, Control_c, 0, 64, 127
2,177061, Note_on_c, 0, 69, 0
2,177097, Note_on_c, 0, 53, 0
2,177181, Control_c, 0, 64, 112
2,177196, Control_c, 0, 64, 95
2,177212, Control_c, 0, 64, 86
2,177223, Note_on_c, 0, 53, 85
2,177227, Control_c, 0, 64, 80
2,177227, Note_on_c, 0, 69, 90
2,177241, Control_c, 0, 64, 74
2,177264, Control_c, 0, 64, 68
2,177279, Control_c, 0, 64, 63
2,177294, Control_c, 0, 64, 57
2,177309, Control_c, 0, 64, 52
2,177324, Control_c, 0, 64, 50
2,177340, Control_c, 0, 64, 48
2,177352, Note_on_c, 0, 70, 83
2,177354, Note_on_c, 0, 55, 79
2,177355, Control_c, 0, 64, 46
2,177363, Note_on_c, 0, 53, 0
2,177371, Control_c, 0, 64, 44
2,177378, Note_on_c, 0, 69, 0
2,177386, Control_c, 0, 64, 42
2,177401, Control_c, 0, 64, 41
2,177498, Note_on_c, 0, 69, 89
2,177505, Note_on_c, 0, 53, 80
2,177539, Note_on_c, 0, 70, 0
2,177542, Note_on_c, 0, 55, 0
2,177652, Note_on_c, 0, 69, 0
2,177671, Note_on_c, 0, 53, 0
2,177675, Control_c, 0, 64, 41
2,177691, Control_c, 0, 64, 40
2,177706, Control_c, 0, 64, 37
2,177720, Control_c, 0, 64, 27
2,177736, Control_c, 0, 64, 0
2,177794, Note_on_c, 0, 52, 77
2,177795, Note_on_c, 0, 67, 84
2,177929, Note_on_c, 0, 52, 0
2,177937, Note_on_c, 0, 67, 0
2,178091, Note_on_c, 0, 65, 87
2,178095, Note_on_c, 0, 50, 75
2,178123, Control_c, 0, 64, 15
2,178138, Control_c, 0, 64, 44
2,178153, Control_c, 0, 64, 58
2,178169, Control_c, 0, 64, 64
2,178184, Control_c, 0, 64, 69
2,178199, Control_c, 0, 64, 78
2,178202, Note_on_c, 0, 65, 0
2,178215, Control_c, 0, 64, 89
2,178230, Control_c, 0, 64, 104
2,178230, Note_on_c, 0, 52, 79
2,178244, Control_c, 0, 64, 116
2,178251, Note_on_c, 0, 50, 0
2,178260, Control_c, 0, 64, 111
2,178275, Control_c, 0, 64, 104
2,178291, Control_c, 0, 64, 97
2,178306, Control_c, 0, 64, 93
2,178321, Control_c, 0, 64, 88
2,178337, Control_c, 0, 64, 83
2,178352, Control_c, 0, 64, 78
2,178368, Control_c, 0, 64, 73
2,178369, Note_on_c, 0, 74, 84
2,178371, Note_on_c, 0, 53, 81
2,178377, Note_on_c, 0, 65, 80
2,178383, Control_c, 0, 64, 68
2,178388, Note_on_c, 0, 52, 0
2,178397, Control_c, 0, 64, 64
2,178413, Control_c, 0, 64, 60
2,178428, Control_c, 0, 64, 56
2,178443, Control_c, 0, 64, 53
2,178459, Control_c, 0, 64, 50
2,178474, Control_c, 0, 64, 44
2,178484, Note_on_c, 0, 73, 78
2,178490, Control_c, 0, 64, 34
2,178491, Note_on_c, 0, 67, 80
2,178495, Note_on_c, 0, 52, 76
2,178499, Note_on_c, 0, 65, 0
2,178505, Control_c, 0, 64, 20
2,178516, Note_on_c, 0, 53, 0
2,178519, Control_c, 0, 64, 0
2,178521, Note_on_c, 0, 74, 0
2,178633, Note_on_c, 0, 50, 75
2,178635, Note_on_c, 0, 74, 87
2,178636, Note_on_c, 0, 65, 80
2,178657, Control_c, 0, 64, 35
2,178664, Note_on_c, 0, 67, 0
2,178665, Note_on_c, 0, 52, 0
2,178672, Control_c, 0, 64, 54
2,178688, Control_c, 0, 64, 62
2,178703, Control_c, 0, 64, 66
2,178717, Control_c, 0, 64, 73
2,178721, Note_on_c, 0, 73, 0
2,178733, Control_c, 0, 64, 85
2,178741, Note_on_c, 0, 65, 0
2,178748, Control_c, 0, 64, 105
2,178750, Note_on_c, 0, 74, 0
2,178761, Note_on_c, 0, 50, 0
2,178763, Control_c, 0, 64, 127
2,178778, Control_c, 0, 64, 104
2,178801, Control_c, 0, 64, 86
2,178817, Control_c, 0, 64, 72
2,178832, Control_c, 0, 64, 61
2,178848, Control_c, 0, 64, 45
2,178862, Control_c, 0, 64, 39
2,178893, Control_c, 0, 64, 39
2,178908, Control_c, 0, 64, 43
2,178923, Control_c, 0, 64, 51
2,178930, Note_on_c, 0, 49, 75
2,178931, Note_on_c, 0, 76, 86
2,178936, Note_on_c, 0, 64, 83
2,178938, Control_c, 0, 64, 59
2,178953, Control_c, 0, 64, 65
2,178969, Control_c, 0, 64, 74
2,178982, Note_on_c, 0, 64, 0
2,178983, Control_c, 0, 64, 97
2,178988, Note_on_c, 0, 76, 0
2,178998, Control_c, 0, 64, 127
2,179053, Note_on_c, 0, 49, 0
2,179070, Note_on_c, 0, 62, 85
2,179123, Note_on_c, 0, 62, 0
2,179227, Control_c, 0, 64, 117
2,179242, Control_c, 0, 64, 79
2,179251, Note_on_c, 0, 50, 85
2,179251, Note_on_c, 0, 77, 94
2,179258, Control_c, 0, 64, 63
2,179273, Control_c, 0, 64, 37
2,179288, Control_c, 0, 64, 20
2,179303, Control_c, 0, 64, 28
2,179318, Control_c, 0, 64, 44
2,179334, Control_c, 0, 64, 54
2,179337, Note_on_c, 0, 45, 0
2,179349, Control_c, 0, 64, 63
2,179356, Note_on_c, 0, 50, 0
2,179363, Control_c, 0, 64, 70
2,179379, Control_c, 0, 64, 85
2,179394, Control_c, 0, 64, 127
2,179421, Note_on_c, 0, 77, 0
2,179525, Note_on_c, 0, 69, 74
2,179525, Note_on_c, 0, 77, 90
2,179530, Note_on_c, 0, 53, 78
2,179532, Note_on_c, 0, 57, 76
2,179565, Note_on_c, 0, 69, 0
2,179595, Note_on_c, 0, 57, 0
2,179635, Note_on_c, 0, 53, 0
2,179639, Note_on_c, 0, 59, 69
2,179644, Note_on_c, 0, 76, 86
2,179649, Note_on_c, 0, 67, 84
2,179680, Note_on_c, 0, 77, 0
2,179688, Note_on_c, 0, 59, 0
2,179734, Note_on_c, 0, 67, 0
2,179765, Control_c, 0, 64, 94
2,179781, Control_c, 0, 64, 73
2,179796, Control_c, 0, 64, 59
2,179811, Note_on_c, 0, 77, 94
2,179812, Control_c, 0, 64, 30
2,179816, Note_on_c, 0, 61, 90
2,179816, Note_on_c, 0, 69, 91
2,179822, Note_on_c, 0, 52, 79
2,179826, Control_c, 0, 64, 25
2,179841, Control_c, 0, 64, 30
2,179854, Note_on_c, 0, 76, 0
2,179857, Control_c, 0, 64, 41
2,179872, Control_c, 0, 64, 50
2,179888, Control_c, 0, 64, 59
2,179902, Control_c, 0, 64, 65
2,179917, Control_c, 0, 64, 73
2,179920, Note_on_c, 0, 52, 0
2,179923, Note_on_c, 0, 69, 0
2,179925, Note_on_c, 0, 61, 0
2,179933, Control_c, 0, 64, 90
2,179948, Control_c, 0, 64, 127
2,179988, Note_on_c, 0, 77, 0
2,180055, Control_c, 0, 64, 98
2,180070, Control_c, 0, 64, 76
2,180085, Control_c, 0, 64, 62
2,180097, Note_on_c, 0, 50, 73
2,180101, Control_c, 0, 64, 46
2,180101, Note_on_c, 0, 62, 83
2,180104, Note_on_c, 0, 79, 87
2,180106, Note_on_c, 0, 71, 86
2,180116, Control_c, 0, 64, 51
2,180132, Control_c, 0, 64, 58
2,180147, Control_c, 0, 64, 63
2,180150, Note_on_c, 0, 62, 0
2,180161, Control_c, 0, 64, 67
2,180168, Note_on_c, 0, 50, 0
2,180177, Control_c, 0, 64, 77
2,180192, Control_c, 0, 64, 107
2,180208, Control_c, 0, 64, 127
2,180255, Note_on_c, 0, 79, 0
2,180262, Note_on_c, 0, 45, 91
2,180306, Note_on_c, 0, 45, 0
2,180507, Note_on_c, 0, 64, 93
2,180509, Note_on_c, 0, 55, 86
2,180509, Note_on_c, 0, 73, 83
2,180516, Note_on_c, 0, 81, 82
2,180535, Control_c, 0, 64, 100
2,180549, Control_c, 0, 64, 79
2,180564, Control_c, 0, 64, 70
2,180580, Control_c, 0, 64, 69
2,180594, Control_c, 0, 64, 71
2,180610, Control_c, 0, 64, 74
2,180625, Control_c, 0, 64, 78
2,180640, Control_c, 0, 64, 85
2,180643, Note_on_c, 0, 71, 0
2,180656, Control_c, 0, 64, 96
2,180670, Control_c, 0, 64, 119
2,180685, Control_c, 0, 64, 127
2,180694, Note_on_c, 0, 79, 82
2,180715, Note_on_c, 0, 73, 0
2,180829, Note_on_c, 0, 77, 87
2,180829, Note_on_c, 0, 81, 0
2,180839, Note_on_c, 0, 73, 82
2,180854, Control_c, 0, 64, 101
2,180867, Note_on_c, 0, 79, 0
2,180869, Control_c, 0, 64, 91
2,180884, Control_c, 0, 64, 96
2,180899, Control_c, 0, 64, 111
2,180914, Control_c, 0, 64, 127
2,180965, Note_on_c, 0, 71, 87
2,180965, Note_on_c, 0, 79, 88
2,180994, Note_on_c, 0, 73, 0
2,181012, Note_on_c, 0, 77, 0
2,181165, Control_c, 0, 64, 87
2,181169, Note_on_c, 0, 73, 94
2,181172, Note_on_c, 0, 81, 86
2,181180, Control_c, 0, 64, 71
2,181195, Control_c, 0, 64, 62
2,181211, Control_c, 0, 64, 61
2,181215, Note_on_c, 0, 71, 0
2,181226, Control_c, 0, 64, 65
2,181241, Control_c, 0, 64, 70
2,181257, Control_c, 0, 64, 83
2,181272, Control_c, 0, 64, 127
2,181279, Note_on_c, 0, 79, 0
2,181290, Note_on_c, 0, 64, 0
2,181317, Note_on_c, 0, 73, 0
2,181547, Note_on_c, 0, 55, 0
2,181547, Note_on_c, 0, 82, 85
2,181551, Note_on_c, 0, 74, 81
2,181558, Note_on_c, 0, 62, 88
2,181560, Control_c, 0, 64, 90
2,181565, Note_on_c, 0, 53, 78
2,181578, Control_c, 0, 64, 70
2,181589, Note_on_c, 0, 81, 0
2,181592, Control_c, 0, 64, 55
2,181608, Control_c, 0, 64, 41
2,181624, Control_c, 0, 64, 47
2,181639, Control_c, 0, 64, 58
2,181655, Control_c, 0, 64, 65
2,181669, Control_c, 0, 64, 75
2,181685, Control_c, 0, 64, 127
2,181691, Note_on_c, 0, 74, 0
2,181698, Note_on_c, 0, 82, 0
2,181699, Note_on_c, 0, 62, 0
2,181739, Note_on_c, 0, 53, 0
2,182002, Note_on_c, 0, 64, 78
2,182005, Note_on_c, 0, 76, 82
2,182006, Note_on_c, 0, 52, 87
2,182006, Note_on_c, 0, 73, 75
2,182010, Note_on_c, 0, 45, 75
2,182026, Control_c, 0, 64, 111
2,182042, Control_c, 0, 64, 84
2,182057, Control_c, 0, 64, 69
2,182072, Control_c, 0, 64, 60
2,182087, Control_c, 0, 64, 48
2,182102, Control_c, 0, 64, 47
2,182148, Control_c, 0, 64, 48
2,182159, Note_on_c, 0, 76, 0
2,182164, Control_c, 0, 64, 51
2,182179, Control_c, 0, 64, 55
2,182194, Control_c, 0, 64, 60
2,182207, Note_on_c, 0, 74, 73
2,182210, Control_c, 0, 64, 63
2,182225, Control_c, 0, 64, 64
2,182236, Note_on_c, 0, 73, 0
2,182239, Control_c, 0, 64, 66
2,182252, Note_on_c, 0, 76, 30
2,182255, Control_c, 0, 64, 67
2,182270, Control_c, 0, 64, 69
2,182285, Control_c, 0, 64, 71
2,182286, Note_on_c, 0, 76, 0
2,182300, Control_c, 0, 64, 73
2,182315, Control_c, 0, 64, 74
2,182346, Control_c, 0, 64, 73
2,182360, Control_c, 0, 64, 73
2,182376, Control_c, 0, 64, 71
2,182391, Control_c, 0, 64, 67
2,182399, Note_on_c, 0, 69, 78
2,182402, Note_on_c, 0, 73, 83
2,182406, Control_c, 0, 64, 62
2,182421, Control_c, 0, 64, 54
2,182438, Control_c, 0, 64, 44
2,182438, Note_on_c, 0, 74, 0
2,182454, Control_c, 0, 64, 40
2,182469, Control_c, 0, 64, 39
2,182500, Control_c, 0, 64, 39
2,182514, Control_c, 0, 64, 43
2,182530, Control_c, 0, 64, 48
2,182545, Control_c, 0, 64, 53
2,182560, Control_c, 0, 64, 58
2,182576, Control_c, 0, 64, 60
2,182590, Control_c, 0, 64, 62
2,182606, Control_c, 0, 64, 63
2,182606, Note_on_c, 0, 74, 83
2,182621, Control_c, 0, 64, 65
2,182644, Control_c, 0, 64, 67
2,182655, Note_on_c, 0, 73, 0
2,182659, Control_c, 0, 64, 70
2,182674, Control_c, 0, 64, 73
2,182690, Control_c, 0, 64, 77
2,182705, Control_c, 0, 64, 78
2,182719, Control_c, 0, 64, 79
2,182795, Control_c, 0, 64, 78
2,182811, Control_c, 0, 64, 78
2,182826, Control_c, 0, 64, 76
2,182842, Control_c, 0, 64, 74
2,182857, Control_c, 0, 64, 71
2,182869, Control_c, 0, 64, 65
2,182882, Note_on_c, 0, 76, 84
2,182884, Control_c, 0, 64, 55
2,182900, Control_c, 0, 64, 33
2,182914, Control_c, 0, 64, 0
2,182917, Note_on_c, 0, 74, 0
2,183005, Control_c, 0, 64, 27
2,183021, Control_c, 0, 64, 50
2,183036, Control_c, 0, 64, 62
2,183042, Note_on_c, 0, 64, 0
2,183051, Control_c, 0, 64, 70
2,183066, Control_c, 0, 64, 92
2,183075, Note_on_c, 0, 45, 0
2,183081, Control_c, 0, 64, 127
2,183096, Note_on_c, 0, 76, 0
2,183133, Note_on_c, 0, 52, 0
2,183430, Note_on_c, 0, 50, 79
2,183430, Note_on_c, 0, 77, 86
2,183433, Note_on_c, 0, 65, 78
2,183436, Note_on_c, 0, 74, 75
2,183454, Control_c, 0, 64, 86
2,183469, Control_c, 0, 64, 67
2,183483, Control_c, 0, 64, 48
2,183499, Control_c, 0, 64, 13
2,183501, Note_on_c, 0, 69, 0
2,183530, Control_c, 0, 64, 24
2,183545, Control_c, 0, 64, 38
2,183559, Control_c, 0, 64, 49
2,183575, Control_c, 0, 64, 57
2,183590, Control_c, 0, 64, 62
2,183605, Control_c, 0, 64, 67
2,183621, Control_c, 0, 64, 74
2,183635, Control_c, 0, 64, 89
2,183651, Control_c, 0, 64, 127
2,183773, Note_on_c, 0, 64, 82
2,183849, Note_on_c, 0, 65, 0
2,183912, Note_on_c, 0, 64, 0
2,184182, Note_on_c, 0, 68, 82
2,184185, Note_on_c, 0, 59, 81
2,184191, Note_on_c, 0, 62, 87
2,184222, Control_c, 0, 64, 119
2,184237, Control_c, 0, 64, 88
2,184253, Control_c, 0, 64, 71
2,184268, Control_c, 0, 64, 60
2,184282, Control_c, 0, 64, 39
2,184298, Control_c, 0, 64, 22
2,184313, Control_c, 0, 64, 21
2,184327, Control_c, 0, 64, 19
2,184343, Control_c, 0, 64, 11
2,184358, Control_c, 0, 64, 0
2,184419, Control_c, 0, 64, 17
2,184434, Control_c, 0, 64, 24
2,184450, Control_c, 0, 64, 29
2,184465, Control_c, 0, 64, 34
2,184479, Control_c, 0, 64, 39
2,184495, Control_c, 0, 64, 44
2,184510, Control_c, 0, 64, 47
2,184525, Control_c, 0, 64, 49
2,184540, Control_c, 0, 64, 51
2,184555, Control_c, 0, 64, 51
2,184571, Control_c, 0, 64, 52
2,184586, Control_c, 0, 64, 52
2,184601, Control_c, 0, 64, 53
2,184617, Control_c, 0, 64, 54
2,184628, Note_on_c, 0, 72, 79
2,184632, Control_c, 0, 64, 54
2,184646, Control_c, 0, 64, 55
2,184662, Control_c, 0, 64, 55
2,184677, Control_c, 0, 64, 56
2,184693, Control_c, 0, 64, 57
2,184708, Control_c, 0, 64, 58
2,184723, Control_c, 0, 64, 59
2,184738, Control_c, 0, 64, 59
2,184753, Control_c, 0, 64, 60
2,184769, Control_c, 0, 64, 60
2,184784, Control_c, 0, 64, 61
2,184799, Control_c, 0, 64, 61
2,184829, Control_c, 0, 64, 62
2,184884, Note_on_c, 0, 71, 82
2,184892, Control_c, 0, 64, 62
2,184921, Control_c, 0, 64, 63
2,184942, Note_on_c, 0, 72, 0
2,184944, Control_c, 0, 64, 63
2,184959, Control_c, 0, 64, 64
2,184974, Control_c, 0, 64, 65
2,184989, Control_c, 0, 64, 66
2,185004, Control_c, 0, 64, 67
2,185020, Control_c, 0, 64, 67
2,185035, Control_c, 0, 64, 67
2,185051, Control_c, 0, 64, 66
2,185066, Control_c, 0, 64, 65
2,185071, Note_on_c, 0, 74, 0
2,185081, Control_c, 0, 64, 65
2,185095, Note_on_c, 0, 72, 85
2,185097, Control_c, 0, 64, 66
2,185112, Control_c, 0, 64, 67
2,185115, Note_on_c, 0, 68, 0
2,185126, Control_c, 0, 64, 69
2,185139, Note_on_c, 0, 71, 0
2,185142, Control_c, 0, 64, 74
2,185145, Note_on_c, 0, 77, 0
2,185157, Control_c, 0, 64, 82
2,185172, Control_c, 0, 64, 97
2,185187, Control_c, 0, 64, 127
2,185309, Control_c, 0, 64, 99
2,185323, Control_c, 0, 64, 81
2,185330, Note_on_c, 0, 74, 84
2,185339, Control_c, 0, 64, 69
2,185350, Note_on_c, 0, 72, 0
2,185354, Control_c, 0, 64, 62
2,185384, Control_c, 0, 64, 64
2,185399, Control_c, 0, 64, 67
2,185415, Control_c, 0, 64, 71
2,185430, Control_c, 0, 64, 77
2,185445, Control_c, 0, 64, 87
2,185460, Control_c, 0, 64, 106
2,185475, Control_c, 0, 64, 127
2,185546, Note_on_c, 0, 62, 0
2,185597, Note_on_c, 0, 76, 87
2,185656, Note_on_c, 0, 74, 0
2,185926, Note_on_c, 0, 62, 72
2,185927, Note_on_c, 0, 74, 69
2,185927, Note_on_c, 0, 78, 92
2,185955, Control_c, 0, 64, 107
2,185971, Control_c, 0, 64, 82
2,185979, Note_on_c, 0, 76, 0
2,185986, Control_c, 0, 64, 67
2,186001, Control_c, 0, 64, 57
2,186016, Control_c, 0, 64, 55
2,186031, Control_c, 0, 64, 59
2,186046, Control_c, 0, 64, 62
2,186062, Control_c, 0, 64, 65
2,186077, Control_c, 0, 64, 71
2,186092, Control_c, 0, 64, 82
2,186107, Control_c, 0, 64, 127
2,186150, Note_on_c, 0, 62, 0
2,186316, Note_on_c, 0, 64, 75
2,186322, Note_on_c, 0, 59, 0
2,186326, Note_on_c, 0, 80, 92
2,186359, Note_on_c, 0, 50, 0
2,186364, Note_on_c, 0, 64, 0
2,186386, Note_on_c, 0, 78, 0
2,186560, Note_on_c, 0, 45, 74
2,186671, Note_on_c, 0, 45, 0
2,186674, Note_on_c, 0, 57, 81
2,186929, Note_on_c, 0, 65, 88
2,186930, Note_on_c, 0, 81, 84
2,186996, Control_c, 0, 64, 102
2,187012, Control_c, 0, 64, 81
2,187013, Note_on_c, 0, 80, 0
2,187027, Control_c, 0, 64, 66
2,187042, Control_c, 0, 64, 51
2,187058, Control_c, 0, 64, 25
2,187072, Control_c, 0, 64, 24
2,187087, Control_c, 0, 64, 24
2,187103, Control_c, 0, 64, 28
2,187118, Control_c, 0, 64, 34
2,187134, Control_c, 0, 64, 41
2,187148, Control_c, 0, 64, 48
2,187163, Control_c, 0, 64, 53
2,187179, Control_c, 0, 64, 57
2,187194, Control_c, 0, 64, 60
2,187209, Control_c, 0, 64, 62
2,187224, Control_c, 0, 64, 65
2,187247, Control_c, 0, 64, 68
2,187263, Control_c, 0, 64, 73
2,187277, Control_c, 0, 64, 85
2,187293, Control_c, 0, 64, 106
2,187308, Control_c, 0, 64, 127
2,187863, Note_on_c, 0, 76, 77
2,187864, Note_on_c, 0, 73, 77
2,187869, Note_on_c, 0, 64, 77
2,187872, Note_on_c, 0, 61, 72
2,187895, Note_on_c, 0, 65, 0
2,187918, Note_on_c, 0, 74, 0
2,187932, Control_c, 0, 64, 98
2,187947, Control_c, 0, 64, 86
2,187962, Control_c, 0, 64, 80
2,187978, Control_c, 0, 64, 78
2,188031, Control_c, 0, 64, 77
2,188045, Control_c, 0, 64, 77
2,188061, Control_c, 0, 64, 76
2,188076, Control_c, 0, 64, 74
2,188092, Control_c, 0, 64, 74
2,188137, Control_c, 0, 64, 73
2,188152, Control_c, 0, 64, 72
2,188169, Control_c, 0, 64, 69
2,188184, Control_c, 0, 64, 66
2,188198, Note_on_c, 0, 77, 83
2,188199, Control_c, 0, 64, 63
2,188201, Note_on_c, 0, 74, 78
2,188207, Note_on_c, 0, 62, 77
2,188210, Note_on_c, 0, 59, 69
2,188215, Control_c, 0, 64, 61
2,188229, Control_c, 0, 64, 59
2,188231, Note_on_c, 0, 73, 0
2,188236, Note_on_c, 0, 76, 0
2,188237, Note_on_c, 0, 61, 0
2,188238, Note_on_c, 0, 64, 0
2,188244, Control_c, 0, 64, 58
2,188260, Control_c, 0, 64, 56
2,188274, Control_c, 0, 64, 54
2,188290, Control_c, 0, 64, 52
2,188502, Control_c, 0, 64, 51
2,188517, Control_c, 0, 64, 51
2,188517, Note_on_c, 0, 73, 81
2,188519, Note_on_c, 0, 76, 79
2,188523, Note_on_c, 0, 61, 74
2,188523, Note_on_c, 0, 64, 80
2,188533, Control_c, 0, 64, 50
2,188540, Note_on_c, 0, 74, 0
2,188548, Control_c, 0, 64, 48
2,188560, Note_on_c, 0, 59, 0
2,188561, Note_on_c, 0, 62, 0
2,188563, Control_c, 0, 64, 45
2,188579, Control_c, 0, 64, 41
2,188591, Note_on_c, 0, 77, 0
2,188594, Control_c, 0, 64, 36
2,188610, Control_c, 0, 64, 28
2,188624, Control_c, 0, 64, 17
2,188639, Control_c, 0, 64, 0
2,188814, Control_c, 0, 64, 16
2,188829, Control_c, 0, 64, 40
2,188844, Control_c, 0, 64, 53
2,188860, Control_c, 0, 64, 60
2,188875, Control_c, 0, 64, 63
2,188890, Control_c, 0, 64, 66
2,188905, Control_c, 0, 64, 72
2,188920, Control_c, 0, 64, 83
2,188936, Control_c, 0, 64, 104
2,188951, Control_c, 0, 64, 127
2,189030, Note_on_c, 0, 73, 0
2,189067, Note_on_c, 0, 61, 0
2,189384, Note_on_c, 0, 74, 80
2,189386, Note_on_c, 0, 65, 87
2,189387, Note_on_c, 0, 71, 79
2,189392, Note_on_c, 0, 62, 77
2,189404, Note_on_c, 0, 76, 0
2,189407, Control_c, 0, 64, 114
2,189423, Control_c, 0, 64, 84
2,189430, Note_on_c, 0, 64, 0
2,189438, Control_c, 0, 64, 67
2,189453, Control_c, 0, 64, 51
2,189468, Control_c, 0, 64, 16
2,189483, Control_c, 0, 64, 15
2,189529, Control_c, 0, 64, 17
2,189551, Control_c, 0, 64, 26
2,189566, Control_c, 0, 64, 41
2,189582, Control_c, 0, 64, 50
2,189597, Control_c, 0, 64, 56
2,189612, Control_c, 0, 64, 60
2,189627, Control_c, 0, 64, 63
2,189642, Control_c, 0, 64, 65
2,189658, Control_c, 0, 64, 69
2,189673, Control_c, 0, 64, 77
2,189689, Control_c, 0, 64, 88
2,189704, Control_c, 0, 64, 109
2,189719, Control_c, 0, 64, 127
2,189990, Note_on_c, 0, 68, 78
2,190036, Note_on_c, 0, 65, 0
2,190119, Note_on_c, 0, 71, 0
2,190832, Note_on_c, 0, 69, 80
2,190832, Note_on_c, 0, 73, 76
2,190838, Note_on_c, 0, 74, 0
2,190842, Note_on_c, 0, 64, 75
2,190877, Note_on_c, 0, 62, 0
2,190898, Control_c, 0, 64, 105
2,190911, Note_on_c, 0, 68, 0
2,190913, Control_c, 0, 64, 82
2,190927, Control_c, 0, 64, 68
2,190943, Control_c, 0, 64, 56
2,190958, Control_c, 0, 64, 41
2,190974, Control_c, 0, 64, 39
2,191148, Control_c, 0, 64, 40
2,191300, Control_c, 0, 64, 40
2,191483, Control_c, 0, 64, 41
2,191544, Control_c, 0, 64, 41
2,191590, Control_c, 0, 64, 42
2,191636, Control_c, 0, 64, 42
2,191651, Control_c, 0, 64, 43
2,191697, Control_c, 0, 64, 43
2,191726, Control_c, 0, 64, 44
2,191757, Control_c, 0, 64, 44
2,191787, Control_c, 0, 64, 45
2,191818, Control_c, 0, 64, 45
2,192083, Control_c, 0, 64, 46
2,192235, Control_c, 0, 64, 46
2,192327, Control_c, 0, 64, 47
2,192358, Control_c, 0, 64, 47
2,192388, Control_c, 0, 64, 48
2,192419, Control_c, 0, 64, 48
2,192434, Control_c, 0, 64, 49
2,192450, Control_c, 0, 64, 49
2,192465, Control_c, 0, 64, 50
2,192480, Control_c, 0, 64, 51
2,192495, Control_c, 0, 64, 52
2,192510, Control_c, 0, 64, 53
2,192525, Control_c, 0, 64, 54
2,192541, Control_c, 0, 64, 54
2,192571, Control_c, 0, 64, 55
2,193111, Control_c, 0, 64, 55
2,193202, Control_c, 0, 64, 56
2,193263, Control_c, 0, 64, 56
2,193323, Control_c, 0, 64, 57
2,193370, Control_c, 0, 64, 57
2,193513, Control_c, 0, 64, 58
2,193544, Control_c, 0, 64, 58
2,193825, Note_on_c, 0, 57, 0
2,193825, Note_on_c, 0, 64, 0
2,193825, Note_on_c, 0, 69, 0
2,193825, Note_on_c, 0, 73, 0
2,193825, Note_on_c, 0, 81, 0
2,193826, End_track
0, 0, End_of_file
