0, 0, Header, 1, 2, 384
1, 0, Start_track
1, 0, Tempo, 500000
1, 0, Time_signature, 4, 2, 24, 8
1, 1, End_track
2, 0, Start_track
2, 0, Program_c, 0, 0
2, 753, Note_on_c, 0, 69, 80
2, 763, Note_on_c, 0, 45, 57
2, 818, Note_on_c, 0, 71, 72
2, 825, Note_on_c, 0, 69, 0
2, 913, Note_on_c, 0, 72, 69
2, 921, Note_on_c, 0, 71, 0
2, 969, Note_on_c, 0, 72, 0
2, 1081, Note_on_c, 0, 45, 0
2, 1104, Note_on_c, 0, 76, 73
2, 1167, Note_on_c, 0, 76, 0
2, 1292, Note_on_c, 0, 72, 78
2, 1296, Note_on_c, 0, 57, 62
2, 1354, Note_on_c, 0, 72, 0
2, 1363, Note_on_c, 0, 56, 70
2, 1363, Note_on_c, 0, 57, 0
2, 1448, Note_on_c, 0, 56, 0
2, 1455, Note_on_c, 0, 57, 70
2, 1457, Note_on_c, 0, 69, 81
2, 1510, Note_on_c, 0, 69, 0
2, 1526, Note_on_c, 0, 56, 68
2, 1527, Note_on_c, 0, 57, 0
2, 1617, Note_on_c, 0, 56, 0
2, 1621, Note_on_c, 0, 57, 77
2, 1626, Note_on_c, 0, 64, 76
2, 1685, Note_on_c, 0, 56, 71
2, 1687, Note_on_c, 0, 64, 0
2, 1693, Note_on_c, 0, 57, 0
2, 1785, Note_on_c, 0, 69, 87
2, 1791, Note_on_c, 0, 57, 94
2, 1800, Note_on_c, 0, 56, 0
2, 1841, Note_on_c, 0, 69, 0
2, 1860, Note_on_c, 0, 57, 0
2, 1970, Note_on_c, 0, 72, 82
2, 1973, Note_on_c, 0, 52, 75
2, 2024, Note_on_c, 0, 72, 0
2, 2046, Note_on_c, 0, 52, 0
2, 2156, Note_on_c, 0, 48, 72
2, 2156, Note_on_c, 0, 76, 79
2, 2197, Note_on_c, 0, 76, 0
2, 2227, Note_on_c, 0, 48, 0
2, 2342, Note_on_c, 0, 71, 87
2, 2353, Note_on_c, 0, 45, 65
2, 2420, Note_on_c, 0, 72, 78
2, 2439, Note_on_c, 0, 71, 0
2, 2513, Note_on_c, 0, 74, 70
2, 2533, Note_on_c, 0, 72, 0
2, 2579, Note_on_c, 0, 74, 0
2, 2667, Note_on_c, 0, 45, 0
2, 2693, Note_on_c, 0, 77, 79
2, 2767, Note_on_c, 0, 77, 0
2, 2876, Note_on_c, 0, 74, 81
2, 2885, Note_on_c, 0, 57, 60
2, 2935, Note_on_c, 0, 57, 0
2, 2952, Note_on_c, 0, 56, 69
2, 2954, Note_on_c, 0, 74, 0
2, 3022, Note_on_c, 0, 56, 0
2, 3035, Note_on_c, 0, 71, 81
2, 3036, Note_on_c, 0, 57, 71
2, 3096, Note_on_c, 0, 57, 0
2, 3099, Note_on_c, 0, 71, 0
2, 3103, Note_on_c, 0, 56, 72
2, 3187, Note_on_c, 0, 56, 0
2, 3200, Note_on_c, 0, 57, 78
2, 3204, Note_on_c, 0, 68, 82
2, 3265, Note_on_c, 0, 68, 0
2, 3270, Note_on_c, 0, 56, 79
2, 3278, Note_on_c, 0, 57, 0
2, 3368, Note_on_c, 0, 71, 88
2, 3373, Note_on_c, 0, 57, 93
2, 3384, Note_on_c, 0, 56, 0
2, 3439, Note_on_c, 0, 71, 0
2, 3442, Note_on_c, 0, 57, 0
2, 3544, Note_on_c, 0, 53, 77
2, 3548, Note_on_c, 0, 74, 87
2, 3613, Note_on_c, 0, 74, 0
2, 3615, Note_on_c, 0, 53, 0
2, 3732, Note_on_c, 0, 50, 74
2, 3735, Note_on_c, 0, 77, 90
2, 3781, Note_on_c, 0, 77, 0
2, 3799, Note_on_c, 0, 50, 0
2, 3913, Note_on_c, 0, 74, 93
2, 3915, Note_on_c, 0, 45, 75
2, 3995, Note_on_c, 0, 76, 82
2, 4024, Note_on_c, 0, 74, 0
2, 4085, Note_on_c, 0, 77, 82
2, 4104, Note_on_c, 0, 76, 0
2, 4157, Note_on_c, 0, 77, 0
2, 4263, Note_on_c, 0, 45, 0
2, 4263, Note_on_c, 0, 80, 82
2, 4345, Note_on_c, 0, 80, 0
2, 4445, Note_on_c, 0, 77, 89
2, 4462, Note_on_c, 0, 57, 67
2, 4512, Note_on_c, 0, 77, 0
2, 4526, Note_on_c, 0, 56, 73
2, 4526, Note_on_c, 0, 57, 0
2, 4609, Note_on_c, 0, 56, 0
2, 4615, Note_on_c, 0, 74, 84
2, 4617, Note_on_c, 0, 57, 73
2, 4678, Note_on_c, 0, 74, 0
2, 4683, Note_on_c, 0, 56, 72
2, 4683, Note_on_c, 0, 57, 0
2, 4776, Note_on_c, 0, 56, 0
2, 4783, Note_on_c, 0, 57, 78
2, 4785, Note_on_c, 0, 71, 86
2, 4852, Note_on_c, 0, 56, 76
2, 4863, Note_on_c, 0, 57, 0
2, 4863, Note_on_c, 0, 71, 0
2, 4948, Note_on_c, 0, 74, 92
2, 4952, Note_on_c, 0, 57, 91
2, 4959, Note_on_c, 0, 56, 0
2, 5025, Note_on_c, 0, 74, 0
2, 5027, Note_on_c, 0, 57, 0
2, 5136, Note_on_c, 0, 77, 92
2, 5137, Note_on_c, 0, 53, 81
2, 5214, Note_on_c, 0, 53, 0
2, 5223, Note_on_c, 0, 77, 0
2, 5311, Note_on_c, 0, 80, 86
2, 5321, Note_on_c, 0, 50, 76
2, 5379, Note_on_c, 0, 80, 0
2, 5430, Note_on_c, 0, 50, 0
2, 5504, Note_on_c, 0, 45, 64
2, 5512, Note_on_c, 0, 81, 84
2, 5725, Note_on_c, 0, 79, 72
2, 5771, Note_on_c, 0, 81, 0
2, 5793, Note_on_c, 0, 77, 70
2, 5845, Note_on_c, 0, 79, 0
2, 5861, Note_on_c, 0, 76, 69
2, 5881, Note_on_c, 0, 77, 0
2, 5920, Note_on_c, 0, 45, 0
2, 5934, Note_on_c, 0, 76, 0
2, 5942, Note_on_c, 0, 74, 68
2, 6027, Note_on_c, 0, 74, 0
2, 6034, Note_on_c, 0, 72, 63
2, 6126, Note_on_c, 0, 72, 0
2, 6226, Note_on_c, 0, 69, 68
2, 6315, Note_on_c, 0, 69, 0
2, 6395, Note_on_c, 0, 64, 67
2, 6464, Note_on_c, 0, 64, 0
2, 6577, Note_on_c, 0, 60, 67
2, 6663, Note_on_c, 0, 60, 0
2, 6744, Note_on_c, 0, 57, 73
2, 6811, Note_on_c, 0, 57, 0
2, 6913, Note_on_c, 0, 63, 80
2, 6961, Note_on_c, 0, 63, 0
2, 7093, Note_on_c, 0, 52, 72
2, 7106, Note_on_c, 0, 79, 75
2, 7111, Note_on_c, 0, 71, 67
2, 7111, Note_on_c, 0, 76, 67
2, 7171, Note_on_c, 0, 54, 76
2, 7218, Note_on_c, 0, 52, 0
2, 7270, Note_on_c, 0, 55, 81
2, 7281, Note_on_c, 0, 54, 0
2, 7291, Note_on_c, 0, 76, 0
2, 7342, Note_on_c, 0, 55, 0
2, 7361, Note_on_c, 0, 79, 0
2, 7452, Note_on_c, 0, 59, 81
2, 7519, Note_on_c, 0, 59, 0
2, 7544, Note_on_c, 0, 71, 0
2, 7621, Note_on_c, 0, 55, 86
2, 7641, Note_on_c, 0, 76, 68
2, 7682, Note_on_c, 0, 55, 0
2, 7706, Note_on_c, 0, 76, 0
2, 7707, Note_on_c, 0, 75, 72
2, 7780, Note_on_c, 0, 75, 0
2, 7792, Note_on_c, 0, 52, 77
2, 7792, Note_on_c, 0, 76, 62
2, 7856, Note_on_c, 0, 75, 72
2, 7859, Note_on_c, 0, 52, 0
2, 7863, Note_on_c, 0, 76, 0
2, 7961, Note_on_c, 0, 75, 0
2, 7964, Note_on_c, 0, 76, 73
2, 7966, Note_on_c, 0, 47, 77
2, 8040, Note_on_c, 0, 47, 0
2, 8041, Note_on_c, 0, 75, 77
2, 8046, Note_on_c, 0, 76, 0
2, 8130, Note_on_c, 0, 75, 0
2, 8141, Note_on_c, 0, 52, 85
2, 8147, Note_on_c, 0, 76, 78
2, 8217, Note_on_c, 0, 52, 0
2, 8236, Note_on_c, 0, 76, 0
2, 8243, Note_on_c, 0, 71, 79
2, 8330, Note_on_c, 0, 55, 88
2, 8336, Note_on_c, 0, 69, 76
2, 8337, Note_on_c, 0, 71, 0
2, 8384, Note_on_c, 0, 55, 0
2, 8398, Note_on_c, 0, 69, 0
2, 8411, Note_on_c, 0, 67, 81
2, 8476, Note_on_c, 0, 67, 0
2, 8487, Note_on_c, 0, 59, 88
2, 8500, Note_on_c, 0, 66, 74
2, 8569, Note_on_c, 0, 66, 0
2, 8572, Note_on_c, 0, 64, 77
2, 8575, Note_on_c, 0, 59, 0
2, 8659, Note_on_c, 0, 54, 85
2, 8678, Note_on_c, 0, 69, 88
2, 8679, Note_on_c, 0, 72, 88
2, 8736, Note_on_c, 0, 55, 81
2, 8801, Note_on_c, 0, 54, 0
2, 8841, Note_on_c, 0, 57, 88
2, 8851, Note_on_c, 0, 55, 0
2, 8926, Note_on_c, 0, 57, 0
2, 8979, Note_on_c, 0, 69, 0
2, 9036, Note_on_c, 0, 60, 88
2, 9063, Note_on_c, 0, 64, 0
2, 9110, Note_on_c, 0, 60, 0
2, 9213, Note_on_c, 0, 57, 86
2, 9224, Note_on_c, 0, 72, 0
2, 9268, Note_on_c, 0, 57, 0
2, 9290, Note_on_c, 0, 71, 79
2, 9359, Note_on_c, 0, 71, 0
2, 9378, Note_on_c, 0, 72, 80
2, 9387, Note_on_c, 0, 54, 80
2, 9448, Note_on_c, 0, 54, 0
2, 9458, Note_on_c, 0, 71, 81
2, 9461, Note_on_c, 0, 72, 0
2, 9558, Note_on_c, 0, 71, 0
2, 9558, Note_on_c, 0, 72, 83
2, 9561, Note_on_c, 0, 51, 80
2, 9636, Note_on_c, 0, 72, 0
2, 9638, Note_on_c, 0, 51, 0
2, 9638, Note_on_c, 0, 71, 77
2, 9699, Note_on_c, 0, 71, 0
2, 9737, Note_on_c, 0, 54, 88
2, 9739, Note_on_c, 0, 72, 81
2, 9793, Note_on_c, 0, 54, 0
2, 9820, Note_on_c, 0, 79, 71
2, 9821, Note_on_c, 0, 72, 0
2, 9912, Note_on_c, 0, 78, 77
2, 9920, Note_on_c, 0, 57, 89
2, 9945, Note_on_c, 0, 79, 0
2, 9968, Note_on_c, 0, 57, 0
2, 9997, Note_on_c, 0, 76, 68
2, 10026, Note_on_c, 0, 78, 0
2, 10067, Note_on_c, 0, 76, 0
2, 10072, Note_on_c, 0, 75, 77
2, 10087, Note_on_c, 0, 60, 85
2, 10111, Note_on_c, 0, 75, 0
2, 10151, Note_on_c, 0, 60, 0
2, 10161, Note_on_c, 0, 76, 71
2, 10192, Note_on_c, 0, 76, 0
2, 10253, Note_on_c, 0, 57, 90
2, 10253, Note_on_c, 0, 69, 81
2, 10256, Note_on_c, 0, 75, 75
2, 10263, Note_on_c, 0, 72, 82
2, 10268, Note_on_c, 0, 66, 85
2, 10333, Note_on_c, 0, 59, 85
2, 10377, Note_on_c, 0, 57, 0
2, 10432, Note_on_c, 0, 60, 91
2, 10441, Note_on_c, 0, 59, 0
2, 10480, Note_on_c, 0, 60, 0
2, 10510, Note_on_c, 0, 69, 0
2, 10516, Note_on_c, 0, 72, 0
2, 10569, Note_on_c, 0, 75, 0
2, 10627, Note_on_c, 0, 63, 89
2, 10696, Note_on_c, 0, 63, 0
2, 10800, Note_on_c, 0, 60, 88
2, 10825, Note_on_c, 0, 66, 0
2, 10857, Note_on_c, 0, 60, 0
2, 10880, Note_on_c, 0, 76, 72
2, 10965, Note_on_c, 0, 76, 0
2, 10969, Note_on_c, 0, 78, 77
2, 10978, Note_on_c, 0, 57, 80
2, 11046, Note_on_c, 0, 57, 0
2, 11055, Note_on_c, 0, 76, 73
2, 11061, Note_on_c, 0, 78, 0
2, 11138, Note_on_c, 0, 76, 0
2, 11150, Note_on_c, 0, 54, 78
2, 11152, Note_on_c, 0, 78, 75
2, 11215, Note_on_c, 0, 54, 0
2, 11221, Note_on_c, 0, 76, 74
2, 11235, Note_on_c, 0, 78, 0
2, 11307, Note_on_c, 0, 76, 0
2, 11329, Note_on_c, 0, 57, 85
2, 11336, Note_on_c, 0, 78, 79
2, 11381, Note_on_c, 0, 57, 0
2, 11411, Note_on_c, 0, 76, 69
2, 11430, Note_on_c, 0, 78, 0
2, 11497, Note_on_c, 0, 60, 87
2, 11502, Note_on_c, 0, 75, 75
2, 11529, Note_on_c, 0, 76, 0
2, 11562, Note_on_c, 0, 60, 0
2, 11593, Note_on_c, 0, 78, 79
2, 11608, Note_on_c, 0, 75, 0
2, 11673, Note_on_c, 0, 63, 90
2, 11679, Note_on_c, 0, 78, 0
2, 11683, Note_on_c, 0, 71, 81
2, 11744, Note_on_c, 0, 63, 0
2, 11754, Note_on_c, 0, 69, 82
2, 11756, Note_on_c, 0, 71, 0
2, 11819, Note_on_c, 0, 69, 0
2, 11849, Note_on_c, 0, 64, 91
2, 11855, Note_on_c, 0, 67, 90
2, 11910, Note_on_c, 0, 64, 0
2, 12044, Note_on_c, 0, 52, 73
2, 12109, Note_on_c, 0, 54, 75
2, 12164, Note_on_c, 0, 52, 0
2, 12208, Note_on_c, 0, 55, 80
2, 12274, Note_on_c, 0, 54, 0
2, 12285, Note_on_c, 0, 57, 82
2, 12310, Note_on_c, 0, 55, 0
2, 12376, Note_on_c, 0, 59, 80
2, 12388, Note_on_c, 0, 57, 0
2, 12394, Note_on_c, 0, 67, 0
2, 12566, Note_on_c, 0, 59, 0
2, 12575, Note_on_c, 0, 64, 64
2, 12661, Note_on_c, 0, 64, 0
2, 12736, Note_on_c, 0, 67, 65
2, 12813, Note_on_c, 0, 67, 0
2, 12925, Note_on_c, 0, 71, 66
2, 12998, Note_on_c, 0, 71, 0
2, 13099, Note_on_c, 0, 76, 57
2, 13147, Note_on_c, 0, 76, 0
2, 13277, Note_on_c, 0, 70, 59
2, 13311, Note_on_c, 0, 70, 0
2, 13475, Note_on_c, 0, 64, 52
2, 13477, Note_on_c, 0, 79, 58
2, 13478, Note_on_c, 0, 71, 53
2, 13484, Note_on_c, 0, 76, 52
2, 13534, Note_on_c, 0, 64, 0
2, 13548, Note_on_c, 0, 66, 57
2, 13621, Note_on_c, 0, 66, 0
2, 13634, Note_on_c, 0, 67, 64
2, 13653, Note_on_c, 0, 76, 0
2, 13661, Note_on_c, 0, 71, 0
2, 13686, Note_on_c, 0, 67, 0
2, 13830, Note_on_c, 0, 71, 67
2, 13894, Note_on_c, 0, 71, 0
2, 13998, Note_on_c, 0, 67, 69
2, 14039, Note_on_c, 0, 67, 0
2, 14041, Note_on_c, 0, 79, 0
2, 14089, Note_on_c, 0, 78, 63
2, 14163, Note_on_c, 0, 78, 0
2, 14177, Note_on_c, 0, 64, 61
2, 14177, Note_on_c, 0, 79, 59
2, 14211, Note_on_c, 0, 64, 0
2, 14242, Note_on_c, 0, 79, 0
2, 14265, Note_on_c, 0, 78, 64
2, 14350, Note_on_c, 0, 78, 0
2, 14362, Note_on_c, 0, 59, 63
2, 14368, Note_on_c, 0, 79, 60
2, 14409, Note_on_c, 0, 59, 0
2, 14426, Note_on_c, 0, 79, 0
2, 14444, Note_on_c, 0, 78, 67
2, 14524, Note_on_c, 0, 61, 66
2, 14525, Note_on_c, 0, 78, 0
2, 14537, Note_on_c, 0, 79, 67
2, 14584, Note_on_c, 0, 61, 0
2, 14601, Note_on_c, 0, 77, 71
2, 14627, Note_on_c, 0, 79, 0
2, 14685, Note_on_c, 0, 77, 0
2, 14688, Note_on_c, 0, 76, 68
2, 14692, Note_on_c, 0, 64, 72
2, 14727, Note_on_c, 0, 64, 0
2, 14735, Note_on_c, 0, 76, 0
2, 14767, Note_on_c, 0, 74, 71
2, 14837, Note_on_c, 0, 74, 0
2, 14858, Note_on_c, 0, 69, 76
2, 14862, Note_on_c, 0, 73, 66
2, 14913, Note_on_c, 0, 69, 0
2, 14934, Note_on_c, 0, 73, 0
2, 14937, Note_on_c, 0, 71, 66
2, 14972, Note_on_c, 0, 71, 0
2, 15032, Note_on_c, 0, 62, 82
2, 15038, Note_on_c, 0, 77, 79
2, 15039, Note_on_c, 0, 69, 69
2, 15052, Note_on_c, 0, 74, 67
2, 15108, Note_on_c, 0, 64, 82
2, 15141, Note_on_c, 0, 62, 0
2, 15207, Note_on_c, 0, 64, 0
2, 15207, Note_on_c, 0, 65, 80
2, 15261, Note_on_c, 0, 69, 0
2, 15276, Note_on_c, 0, 65, 0
2, 15313, Note_on_c, 0, 74, 0
2, 15384, Note_on_c, 0, 69, 82
2, 15466, Note_on_c, 0, 69, 0
2, 15558, Note_on_c, 0, 65, 87
2, 15586, Note_on_c, 0, 77, 0
2, 15620, Note_on_c, 0, 65, 0
2, 15643, Note_on_c, 0, 76, 70
2, 15727, Note_on_c, 0, 76, 0
2, 15734, Note_on_c, 0, 62, 78
2, 15738, Note_on_c, 0, 77, 74
2, 15796, Note_on_c, 0, 62, 0
2, 15814, Note_on_c, 0, 76, 75
2, 15814, Note_on_c, 0, 77, 0
2, 15917, Note_on_c, 0, 76, 0
2, 15917, Note_on_c, 0, 77, 78
2, 15922, Note_on_c, 0, 57, 83
2, 15988, Note_on_c, 0, 57, 0
2, 15992, Note_on_c, 0, 76, 69
2, 16004, Note_on_c, 0, 77, 0
2, 16090, Note_on_c, 0, 59, 82
2, 16090, Note_on_c, 0, 76, 0
2, 16096, Note_on_c, 0, 77, 80
2, 16143, Note_on_c, 0, 59, 0
2, 16173, Note_on_c, 0, 76, 69
2, 16209, Note_on_c, 0, 77, 0
2, 16251, Note_on_c, 0, 74, 74
2, 16258, Note_on_c, 0, 62, 70
2, 16276, Note_on_c, 0, 76, 0
2, 16289, Note_on_c, 0, 62, 0
2, 16333, Note_on_c, 0, 74, 0
2, 16339, Note_on_c, 0, 72, 75
2, 16406, Note_on_c, 0, 72, 0
2, 16419, Note_on_c, 0, 67, 70
2, 16419, Note_on_c, 0, 71, 74
2, 16453, Note_on_c, 0, 67, 0
2, 16478, Note_on_c, 0, 71, 0
2, 16499, Note_on_c, 0, 69, 73
2, 16534, Note_on_c, 0, 69, 0
2, 16580, Note_on_c, 0, 60, 78
2, 16584, Note_on_c, 0, 76, 78
2, 16592, Note_on_c, 0, 72, 72
2, 16594, Note_on_c, 0, 67, 68
2, 16661, Note_on_c, 0, 62, 76
2, 16671, Note_on_c, 0, 60, 0
2, 16753, Note_on_c, 0, 62, 0
2, 16759, Note_on_c, 0, 64, 73
2, 16812, Note_on_c, 0, 64, 0
2, 16823, Note_on_c, 0, 67, 0
2, 16856, Note_on_c, 0, 72, 0
2, 16943, Note_on_c, 0, 67, 64
2, 17002, Note_on_c, 0, 67, 0
2, 17108, Note_on_c, 0, 64, 73
2, 17137, Note_on_c, 0, 76, 0
2, 17151, Note_on_c, 0, 64, 0
2, 17194, Note_on_c, 0, 74, 65
2, 17274, Note_on_c, 0, 74, 0
2, 17282, Note_on_c, 0, 60, 72
2, 17287, Note_on_c, 0, 76, 68
2, 17333, Note_on_c, 0, 60, 0
2, 17360, Note_on_c, 0, 76, 0
2, 17362, Note_on_c, 0, 74, 74
2, 17456, Note_on_c, 0, 74, 0
2, 17456, Note_on_c, 0, 76, 78
2, 17462, Note_on_c, 0, 55, 79
2, 17527, Note_on_c, 0, 55, 0
2, 17532, Note_on_c, 0, 74, 73
2, 17555, Note_on_c, 0, 76, 0
2, 17599, Note_on_c, 0, 74, 0
2, 17630, Note_on_c, 0, 57, 80
2, 17630, Note_on_c, 0, 72, 82
2, 17683, Note_on_c, 0, 57, 0
2, 17710, Note_on_c, 0, 79, 77
2, 17718, Note_on_c, 0, 72, 0
2, 17798, Note_on_c, 0, 77, 80
2, 17800, Note_on_c, 0, 60, 75
2, 17838, Note_on_c, 0, 60, 0
2, 17844, Note_on_c, 0, 79, 0
2, 17870, Note_on_c, 0, 76, 77
2, 17933, Note_on_c, 0, 77, 0
2, 17958, Note_on_c, 0, 74, 81
2, 17973, Note_on_c, 0, 65, 78
2, 17974, Note_on_c, 0, 76, 0
2, 18035, Note_on_c, 0, 74, 0
2, 18037, Note_on_c, 0, 72, 80
2, 18039, Note_on_c, 0, 65, 0
2, 18097, Note_on_c, 0, 72, 0
2, 18132, Note_on_c, 0, 71, 82
2, 18138, Note_on_c, 0, 55, 67
2, 18160, Note_on_c, 0, 57, 47
2, 18198, Note_on_c, 0, 57, 0
2, 18214, Note_on_c, 0, 55, 0
2, 18220, Note_on_c, 0, 76, 76
2, 18221, Note_on_c, 0, 71, 0
2, 18305, Note_on_c, 0, 59, 73
2, 18311, Note_on_c, 0, 74, 78
2, 18367, Note_on_c, 0, 76, 0
2, 18374, Note_on_c, 0, 59, 0
2, 18381, Note_on_c, 0, 72, 79
2, 18452, Note_on_c, 0, 74, 0
2, 18467, Note_on_c, 0, 62, 64
2, 18467, Note_on_c, 0, 71, 81
2, 18485, Note_on_c, 0, 72, 0
2, 18537, Note_on_c, 0, 69, 81
2, 18538, Note_on_c, 0, 62, 0
2, 18542, Note_on_c, 0, 71, 0
2, 18599, Note_on_c, 0, 69, 0
2, 18631, Note_on_c, 0, 67, 85
2, 18641, Note_on_c, 0, 65, 79
2, 18714, Note_on_c, 0, 72, 82
2, 18718, Note_on_c, 0, 65, 0
2, 18720, Note_on_c, 0, 67, 0
2, 18805, Note_on_c, 0, 71, 78
2, 18806, Note_on_c, 0, 62, 73
2, 18872, Note_on_c, 0, 62, 0
2, 18881, Note_on_c, 0, 72, 0
2, 18883, Note_on_c, 0, 69, 81
2, 18967, Note_on_c, 0, 71, 0
2, 18979, Note_on_c, 0, 67, 82
2, 18984, Note_on_c, 0, 59, 73
2, 19000, Note_on_c, 0, 69, 0
2, 19048, Note_on_c, 0, 65, 80
2, 19050, Note_on_c, 0, 59, 0
2, 19055, Note_on_c, 0, 67, 0
2, 19110, Note_on_c, 0, 65, 0
2, 19142, Note_on_c, 0, 55, 75
2, 19146, Note_on_c, 0, 64, 81
2, 19215, Note_on_c, 0, 69, 82
2, 19220, Note_on_c, 0, 55, 0
2, 19220, Note_on_c, 0, 64, 0
2, 19306, Note_on_c, 0, 67, 79
2, 19325, Note_on_c, 0, 59, 67
2, 19367, Note_on_c, 0, 69, 0
2, 19370, Note_on_c, 0, 59, 0
2, 19385, Note_on_c, 0, 65, 80
2, 19448, Note_on_c, 0, 67, 0
2, 19478, Note_on_c, 0, 64, 81
2, 19490, Note_on_c, 0, 65, 0
2, 19492, Note_on_c, 0, 55, 64
2, 19532, Note_on_c, 0, 55, 0
2, 19550, Note_on_c, 0, 62, 80
2, 19551, Note_on_c, 0, 64, 0
2, 19600, Note_on_c, 0, 62, 0
2, 19645, Note_on_c, 0, 64, 89
2, 19657, Note_on_c, 0, 60, 81
2, 19734, Note_on_c, 0, 64, 0
2, 19736, Note_on_c, 0, 65, 85
2, 19819, Note_on_c, 0, 67, 89
2, 19828, Note_on_c, 0, 65, 0
2, 19890, Note_on_c, 0, 67, 0
2, 20003, Note_on_c, 0, 72, 81
2, 20077, Note_on_c, 0, 72, 0
2, 20116, Note_on_c, 0, 60, 0
2, 20171, Note_on_c, 0, 67, 88
2, 20250, Note_on_c, 0, 67, 0
2, 20254, Note_on_c, 0, 57, 75
2, 20313, Note_on_c, 0, 57, 0
2, 20329, Note_on_c, 0, 55, 78
2, 20341, Note_on_c, 0, 64, 82
2, 20408, Note_on_c, 0, 55, 0
2, 20409, Note_on_c, 0, 53, 78
2, 20412, Note_on_c, 0, 64, 0
2, 20504, Note_on_c, 0, 52, 78
2, 20513, Note_on_c, 0, 53, 0
2, 20513, Note_on_c, 0, 60, 82
2, 20585, Note_on_c, 0, 50, 76
2, 20589, Note_on_c, 0, 60, 0
2, 20593, Note_on_c, 0, 52, 0
2, 20676, Note_on_c, 0, 48, 79
2, 20680, Note_on_c, 0, 50, 0
2, 20682, Note_on_c, 0, 64, 86
2, 20754, Note_on_c, 0, 50, 65
2, 20764, Note_on_c, 0, 64, 0
2, 20837, Note_on_c, 0, 52, 76
2, 20852, Note_on_c, 0, 67, 80
2, 20871, Note_on_c, 0, 50, 0
2, 20914, Note_on_c, 0, 67, 0
2, 20922, Note_on_c, 0, 53, 81
2, 20940, Note_on_c, 0, 52, 0
2, 20965, Control_c, 0, 64, 9
2, 20980, Control_c, 0, 64, 12
2, 20996, Control_c, 0, 64, 13
2, 21002, Note_on_c, 0, 55, 82
2, 21011, Note_on_c, 0, 53, 0
2, 21011, Note_on_c, 0, 72, 82
2, 21027, Control_c, 0, 64, 15
2, 21060, Note_on_c, 0, 72, 0
2, 21074, Note_on_c, 0, 52, 78
2, 21095, Note_on_c, 0, 55, 0
2, 21178, Note_on_c, 0, 57, 88
2, 21183, Note_on_c, 0, 65, 86
2, 21188, Note_on_c, 0, 52, 0
2, 21208, Control_c, 0, 64, 13
2, 21224, Control_c, 0, 64, 9
2, 21246, Control_c, 0, 64, 0
2, 21264, Note_on_c, 0, 67, 77
2, 21294, Note_on_c, 0, 65, 0
2, 21354, Note_on_c, 0, 69, 80
2, 21393, Note_on_c, 0, 67, 0
2, 21427, Note_on_c, 0, 69, 0
2, 21546, Note_on_c, 0, 72, 80
2, 21565, Note_on_c, 0, 48, 0
2, 21616, Note_on_c, 0, 72, 0
2, 21713, Note_on_c, 0, 69, 85
2, 21787, Note_on_c, 0, 57, 0
2, 21788, Note_on_c, 0, 48, 72
2, 21798, Note_on_c, 0, 69, 0
2, 21877, Note_on_c, 0, 50, 71
2, 21891, Note_on_c, 0, 65, 81
2, 21959, Note_on_c, 0, 52, 66
2, 21970, Note_on_c, 0, 65, 0
2, 22018, Note_on_c, 0, 50, 0
2, 22060, Note_on_c, 0, 60, 81
2, 22064, Note_on_c, 0, 53, 79
2, 22080, Note_on_c, 0, 52, 0
2, 22136, Note_on_c, 0, 53, 0
2, 22137, Note_on_c, 0, 55, 78
2, 22145, Note_on_c, 0, 60, 0
2, 22224, Note_on_c, 0, 57, 83
2, 22232, Note_on_c, 0, 55, 0
2, 22233, Note_on_c, 0, 65, 86
2, 22305, Note_on_c, 0, 55, 77
2, 22308, Note_on_c, 0, 57, 0
2, 22314, Note_on_c, 0, 65, 0
2, 22379, Note_on_c, 0, 53, 81
2, 22384, Note_on_c, 0, 55, 0
2, 22395, Note_on_c, 0, 69, 86
2, 22408, Note_on_c, 0, 48, 0
2, 22452, Note_on_c, 0, 52, 78
2, 22471, Control_c, 0, 64, 9
2, 22477, Note_on_c, 0, 53, 0
2, 22477, Note_on_c, 0, 69, 0
2, 22486, Control_c, 0, 64, 17
2, 22500, Control_c, 0, 64, 21
2, 22516, Control_c, 0, 64, 24
2, 22531, Control_c, 0, 64, 27
2, 22536, Note_on_c, 0, 50, 73
2, 22547, Control_c, 0, 64, 31
2, 22552, Note_on_c, 0, 72, 84
2, 22554, Note_on_c, 0, 52, 0
2, 22562, Control_c, 0, 64, 34
2, 22578, Control_c, 0, 64, 37
2, 22594, Control_c, 0, 64, 38
2, 22606, Note_on_c, 0, 48, 72
2, 22609, Note_on_c, 0, 72, 0
2, 22625, Note_on_c, 0, 50, 0
2, 22703, Note_on_c, 0, 50, 85
2, 22711, Note_on_c, 0, 71, 92
2, 22760, Control_c, 0, 64, 37
2, 22784, Control_c, 0, 64, 36
2, 22799, Control_c, 0, 64, 35
2, 22800, Note_on_c, 0, 72, 86
2, 22813, Control_c, 0, 64, 34
2, 22828, Note_on_c, 0, 71, 0
2, 22844, Control_c, 0, 64, 34
2, 22858, Control_c, 0, 64, 33
2, 22890, Note_on_c, 0, 74, 83
2, 22929, Note_on_c, 0, 72, 0
2, 22964, Note_on_c, 0, 74, 0
2, 22977, Note_on_c, 0, 48, 0
2, 23081, Note_on_c, 0, 77, 88
2, 23102, Control_c, 0, 64, 34
2, 23156, Note_on_c, 0, 77, 0
2, 23194, Control_c, 0, 64, 34
2, 23239, Control_c, 0, 64, 35
2, 23240, Note_on_c, 0, 50, 0
2, 23242, Note_on_c, 0, 47, 71
2, 23246, Note_on_c, 0, 74, 90
2, 23254, Control_c, 0, 64, 35
2, 23284, Control_c, 0, 64, 36
2, 23319, Note_on_c, 0, 52, 78
2, 23327, Note_on_c, 0, 74, 0
2, 23329, Note_on_c, 0, 47, 0
2, 23330, Control_c, 0, 64, 36
2, 23409, Note_on_c, 0, 52, 0
2, 23419, Note_on_c, 0, 50, 80
2, 23419, Note_on_c, 0, 71, 91
2, 23467, Control_c, 0, 64, 37
2, 23502, Note_on_c, 0, 48, 77
2, 23506, Note_on_c, 0, 50, 0
2, 23508, Note_on_c, 0, 71, 0
2, 23594, Note_on_c, 0, 67, 87
2, 23597, Note_on_c, 0, 47, 82
2, 23610, Note_on_c, 0, 48, 0
2, 23626, Control_c, 0, 64, 37
2, 23684, Note_on_c, 0, 67, 0
2, 23685, Note_on_c, 0, 45, 73
2, 23689, Note_on_c, 0, 47, 0
2, 23757, Note_on_c, 0, 71, 93
2, 23768, Note_on_c, 0, 43, 81
2, 23773, Note_on_c, 0, 45, 0
2, 23839, Note_on_c, 0, 71, 0
2, 23851, Note_on_c, 0, 45, 73
2, 23860, Note_on_c, 0, 43, 0
2, 23925, Note_on_c, 0, 74, 91
2, 23931, Note_on_c, 0, 45, 0
2, 23940, Note_on_c, 0, 43, 80
2, 23945, Control_c, 0, 64, 38
2, 23975, Control_c, 0, 64, 38
2, 23992, Note_on_c, 0, 74, 0
2, 24019, Note_on_c, 0, 41, 82
2, 24028, Note_on_c, 0, 43, 0
2, 24096, Control_c, 0, 64, 39
2, 24104, Note_on_c, 0, 77, 90
2, 24114, Note_on_c, 0, 40, 81
2, 24136, Note_on_c, 0, 41, 0
2, 24160, Note_on_c, 0, 77, 0
2, 24191, Note_on_c, 0, 38, 74
2, 24215, Note_on_c, 0, 40, 0
2, 24281, Note_on_c, 0, 76, 92
2, 24288, Note_on_c, 0, 36, 81
2, 24316, Note_on_c, 0, 38, 0
2, 24317, Control_c, 0, 64, 38
2, 24331, Control_c, 0, 64, 37
2, 24345, Control_c, 0, 64, 37
2, 24378, Note_on_c, 0, 74, 80
2, 24397, Note_on_c, 0, 36, 0
2, 24421, Control_c, 0, 64, 36
2, 24447, Note_on_c, 0, 72, 80
2, 24518, Note_on_c, 0, 74, 0
2, 24535, Note_on_c, 0, 71, 74
2, 24541, Note_on_c, 0, 72, 0
2, 24627, Note_on_c, 0, 72, 75
2, 24636, Note_on_c, 0, 71, 0
2, 24650, Control_c, 0, 64, 36
2, 24665, Control_c, 0, 64, 35
2, 24699, Note_on_c, 0, 67, 76
2, 24711, Control_c, 0, 64, 35
2, 24756, Control_c, 0, 64, 34
2, 24783, Note_on_c, 0, 64, 72
2, 24861, Note_on_c, 0, 64, 0
2, 24867, Note_on_c, 0, 62, 66
2, 24946, Note_on_c, 0, 62, 0
2, 24952, Note_on_c, 0, 60, 62
2, 25014, Note_on_c, 0, 60, 0
2, 25029, Note_on_c, 0, 59, 62
2, 25086, Note_on_c, 0, 59, 0
2, 25131, Note_on_c, 0, 60, 64
2, 25191, Note_on_c, 0, 60, 0
2, 25203, Note_on_c, 0, 55, 66
2, 25279, Note_on_c, 0, 55, 0
2, 25294, Note_on_c, 0, 52, 62
2, 25337, Note_on_c, 0, 52, 0
2, 25375, Note_on_c, 0, 55, 54
2, 25411, Note_on_c, 0, 76, 0
2, 25414, Note_on_c, 0, 67, 0
2, 25426, Note_on_c, 0, 55, 0
2, 25442, Note_on_c, 0, 72, 0
2, 25447, Note_on_c, 0, 53, 59
2, 25512, Note_on_c, 0, 53, 0
2, 25532, Note_on_c, 0, 52, 57
2, 25582, Note_on_c, 0, 52, 0
2, 25618, Note_on_c, 0, 50, 46
2, 25662, Note_on_c, 0, 50, 0
2, 25692, Note_on_c, 0, 48, 51
2, 25744, Note_on_c, 0, 48, 0
2, 25781, Note_on_c, 0, 54, 53
2, 25782, Note_on_c, 0, 75, 60
2, 25815, Note_on_c, 0, 54, 0
2, 25876, Note_on_c, 0, 69, 54
2, 25970, Note_on_c, 0, 69, 0
2, 25972, Note_on_c, 0, 54, 37
2, 25975, Note_on_c, 0, 70, 57
2, 26006, Note_on_c, 0, 54, 0
2, 26020, Control_c, 0, 64, 35
2, 26023, Note_on_c, 0, 70, 0
2, 26050, Control_c, 0, 64, 35
2, 26073, Note_on_c, 0, 72, 49
2, 26081, Control_c, 0, 64, 36
2, 26144, Note_on_c, 0, 54, 40
2, 26152, Note_on_c, 0, 72, 0
2, 26155, Note_on_c, 0, 70, 50
2, 26185, Note_on_c, 0, 54, 0
2, 26196, Note_on_c, 0, 75, 0
2, 26201, Note_on_c, 0, 70, 0
2, 26229, Note_on_c, 0, 69, 56
2, 26279, Note_on_c, 0, 69, 0
2, 26318, Note_on_c, 0, 54, 54
2, 26321, Note_on_c, 0, 74, 68
2, 26353, Note_on_c, 0, 54, 0
2, 26402, Note_on_c, 0, 69, 63
2, 26485, Note_on_c, 0, 69, 0
2, 26492, Note_on_c, 0, 54, 48
2, 26494, Note_on_c, 0, 70, 56
2, 26539, Note_on_c, 0, 54, 0
2, 26539, Note_on_c, 0, 70, 0
2, 26576, Note_on_c, 0, 72, 59
2, 26580, Control_c, 0, 64, 36
2, 26651, Note_on_c, 0, 74, 0
2, 26658, Note_on_c, 0, 72, 0
2, 26664, Control_c, 0, 64, 37
2, 26667, Note_on_c, 0, 70, 62
2, 26675, Note_on_c, 0, 54, 45
2, 26707, Note_on_c, 0, 70, 0
2, 26716, Note_on_c, 0, 54, 0
2, 26736, Note_on_c, 0, 69, 69
2, 26803, Note_on_c, 0, 69, 0
2, 26839, Note_on_c, 0, 81, 68
2, 26845, Note_on_c, 0, 54, 50
2, 26863, Control_c, 0, 64, 36
2, 26888, Note_on_c, 0, 81, 0
2, 26891, Note_on_c, 0, 54, 0
2, 26926, Note_on_c, 0, 69, 68
2, 27013, Note_on_c, 0, 70, 66
2, 27016, Note_on_c, 0, 54, 53
2, 27026, Note_on_c, 0, 69, 0
2, 27057, Note_on_c, 0, 54, 0
2, 27090, Note_on_c, 0, 70, 0
2, 27099, Note_on_c, 0, 72, 69
2, 27179, Note_on_c, 0, 72, 0
2, 27187, Note_on_c, 0, 54, 60
2, 27192, Note_on_c, 0, 70, 67
2, 27224, Note_on_c, 0, 54, 0
2, 27224, Note_on_c, 0, 70, 0
2, 27256, Note_on_c, 0, 69, 70
2, 27356, Note_on_c, 0, 70, 70
2, 27362, Note_on_c, 0, 55, 63
2, 27365, Note_on_c, 0, 69, 0
2, 27466, Note_on_c, 0, 69, 55
2, 27551, Note_on_c, 0, 67, 55
2, 27585, Control_c, 0, 64, 37
2, 27601, Control_c, 0, 64, 37
2, 27605, Note_on_c, 0, 69, 0
2, 27608, Note_on_c, 0, 55, 0
2, 27616, Control_c, 0, 64, 39
2, 27628, Note_on_c, 0, 67, 0
2, 27632, Control_c, 0, 64, 39
2, 27634, Note_on_c, 0, 66, 67
2, 27646, Control_c, 0, 64, 40
2, 27661, Control_c, 0, 64, 41
2, 27692, Control_c, 0, 64, 41
2, 27714, Note_on_c, 0, 66, 0
2, 27722, Note_on_c, 0, 67, 66
2, 27786, Note_on_c, 0, 62, 62
2, 27873, Note_on_c, 0, 58, 73
2, 27875, Control_c, 0, 64, 41
2, 27905, Control_c, 0, 64, 40
2, 27920, Control_c, 0, 64, 40
2, 27951, Control_c, 0, 64, 39
2, 27958, Note_on_c, 0, 58, 0
2, 27961, Note_on_c, 0, 57, 68
2, 28050, Note_on_c, 0, 57, 0
2, 28051, Note_on_c, 0, 55, 63
2, 28124, Note_on_c, 0, 55, 0
2, 28125, Note_on_c, 0, 54, 65
2, 28181, Note_on_c, 0, 54, 0
2, 28222, Note_on_c, 0, 55, 70
2, 28284, Note_on_c, 0, 55, 0
2, 28304, Note_on_c, 0, 50, 71
2, 28324, Control_c, 0, 64, 39
2, 28339, Control_c, 0, 64, 38
2, 28369, Control_c, 0, 64, 38
2, 28383, Note_on_c, 0, 50, 0
2, 28384, Control_c, 0, 64, 37
2, 28395, Note_on_c, 0, 46, 69
2, 28400, Control_c, 0, 64, 37
2, 28475, Note_on_c, 0, 46, 0
2, 28482, Note_on_c, 0, 50, 73
2, 28527, Note_on_c, 0, 62, 0
2, 28527, Note_on_c, 0, 70, 0
2, 28556, Note_on_c, 0, 48, 73
2, 28568, Note_on_c, 0, 50, 0
2, 28576, Note_on_c, 0, 67, 0
2, 28642, Note_on_c, 0, 46, 73
2, 28674, Note_on_c, 0, 48, 0
2, 28718, Note_on_c, 0, 45, 71
2, 28741, Note_on_c, 0, 46, 0
2, 28799, Note_on_c, 0, 43, 68
2, 28808, Note_on_c, 0, 45, 0
2, 28882, Note_on_c, 0, 49, 74
2, 28882, Note_on_c, 0, 70, 77
2, 28887, Note_on_c, 0, 43, 0
2, 28900, Control_c, 0, 64, 36
2, 28924, Control_c, 0, 64, 36
2, 28937, Note_on_c, 0, 49, 0
2, 28939, Control_c, 0, 64, 35
2, 28955, Control_c, 0, 64, 34
2, 28972, Note_on_c, 0, 64, 67
2, 28984, Control_c, 0, 64, 34
2, 29059, Note_on_c, 0, 49, 67
2, 29069, Note_on_c, 0, 65, 68
2, 29083, Note_on_c, 0, 64, 0
2, 29103, Note_on_c, 0, 49, 0
2, 29137, Control_c, 0, 64, 34
2, 29151, Note_on_c, 0, 65, 0
2, 29153, Control_c, 0, 64, 35
2, 29155, Note_on_c, 0, 67, 73
2, 29168, Control_c, 0, 64, 35
2, 29183, Control_c, 0, 64, 36
2, 29213, Control_c, 0, 64, 36
2, 29233, Note_on_c, 0, 49, 68
2, 29250, Note_on_c, 0, 65, 68
2, 29258, Control_c, 0, 64, 37
2, 29265, Note_on_c, 0, 67, 0
2, 29295, Note_on_c, 0, 49, 0
2, 29297, Note_on_c, 0, 70, 0
2, 29307, Note_on_c, 0, 64, 75
2, 29320, Note_on_c, 0, 65, 0
2, 29392, Note_on_c, 0, 64, 0
2, 29404, Note_on_c, 0, 49, 79
2, 29404, Note_on_c, 0, 69, 89
2, 29472, Control_c, 0, 64, 36
2, 29472, Note_on_c, 0, 49, 0
2, 29492, Note_on_c, 0, 64, 74
2, 29564, Note_on_c, 0, 65, 77
2, 29578, Note_on_c, 0, 49, 73
2, 29581, Note_on_c, 0, 64, 0
2, 29631, Note_on_c, 0, 49, 0
2, 29644, Note_on_c, 0, 67, 78
2, 29649, Note_on_c, 0, 65, 0
2, 29655, Control_c, 0, 64, 37
2, 29669, Control_c, 0, 64, 38
2, 29692, Control_c, 0, 64, 38
2, 29707, Control_c, 0, 64, 39
2, 29723, Control_c, 0, 64, 39
2, 29731, Note_on_c, 0, 69, 0
2, 29746, Note_on_c, 0, 65, 79
2, 29748, Note_on_c, 0, 49, 77
2, 29748, Note_on_c, 0, 67, 0
2, 29808, Note_on_c, 0, 65, 0
2, 29817, Note_on_c, 0, 64, 80
2, 29833, Note_on_c, 0, 49, 0
2, 29884, Note_on_c, 0, 64, 0
2, 29914, Note_on_c, 0, 76, 88
2, 29927, Note_on_c, 0, 49, 84
2, 29976, Note_on_c, 0, 76, 0
2, 29992, Note_on_c, 0, 49, 0
2, 29999, Note_on_c, 0, 64, 80
2, 30086, Note_on_c, 0, 65, 81
2, 30093, Note_on_c, 0, 49, 79
2, 30107, Note_on_c, 0, 64, 0
2, 30167, Note_on_c, 0, 49, 0
2, 30169, Note_on_c, 0, 67, 87
2, 30172, Note_on_c, 0, 65, 0
2, 30195, Control_c, 0, 64, 40
2, 30257, Note_on_c, 0, 65, 81
2, 30260, Note_on_c, 0, 49, 81
2, 30260, Note_on_c, 0, 67, 0
2, 30317, Note_on_c, 0, 49, 0
2, 30325, Note_on_c, 0, 64, 81
2, 30328, Note_on_c, 0, 65, 0
2, 30411, Note_on_c, 0, 50, 88
2, 30421, Note_on_c, 0, 65, 91
2, 30422, Control_c, 0, 64, 39
2, 30434, Note_on_c, 0, 64, 0
2, 30438, Control_c, 0, 64, 38
2, 30460, Control_c, 0, 64, 38
2, 30476, Control_c, 0, 64, 37
2, 30488, Note_on_c, 0, 52, 85
2, 30491, Control_c, 0, 64, 37
2, 30533, Note_on_c, 0, 50, 0
2, 30585, Note_on_c, 0, 53, 90
2, 30594, Note_on_c, 0, 52, 0
2, 30627, Control_c, 0, 64, 37
2, 30653, Note_on_c, 0, 53, 0
2, 30658, Control_c, 0, 64, 38
2, 30673, Control_c, 0, 64, 38
2, 30703, Control_c, 0, 64, 39
2, 30780, Note_on_c, 0, 57, 91
2, 30811, Control_c, 0, 64, 39
2, 30849, Note_on_c, 0, 57, 0
2, 30953, Note_on_c, 0, 53, 87
2, 30999, Note_on_c, 0, 65, 0
2, 31018, Note_on_c, 0, 53, 0
2, 31040, Note_on_c, 0, 64, 74
2, 31120, Note_on_c, 0, 50, 79
2, 31131, Note_on_c, 0, 65, 72
2, 31136, Note_on_c, 0, 64, 0
2, 31180, Note_on_c, 0, 50, 0
2, 31203, Note_on_c, 0, 69, 77
2, 31211, Note_on_c, 0, 65, 0
2, 31294, Note_on_c, 0, 69, 0
2, 31297, Note_on_c, 0, 74, 72
2, 31300, Note_on_c, 0, 45, 82
2, 31351, Note_on_c, 0, 74, 0
2, 31359, Note_on_c, 0, 45, 0
2, 31368, Note_on_c, 0, 69, 77
2, 31447, Note_on_c, 0, 69, 0
2, 31465, Note_on_c, 0, 77, 90
2, 31468, Note_on_c, 0, 50, 83
2, 31519, Note_on_c, 0, 50, 0
2, 31542, Note_on_c, 0, 76, 83
2, 31581, Note_on_c, 0, 77, 0
2, 31633, Note_on_c, 0, 74, 83
2, 31639, Note_on_c, 0, 53, 83
2, 31654, Control_c, 0, 64, 40
2, 31656, Note_on_c, 0, 76, 0
2, 31696, Note_on_c, 0, 53, 0
2, 31700, Control_c, 0, 64, 40
2, 31704, Note_on_c, 0, 72, 84
2, 31706, Note_on_c, 0, 74, 0
2, 31716, Control_c, 0, 64, 41
2, 31731, Control_c, 0, 64, 41
2, 31745, Control_c, 0, 64, 42
2, 31765, Note_on_c, 0, 72, 0
2, 31776, Control_c, 0, 64, 42
2, 31794, Note_on_c, 0, 71, 82
2, 31801, Note_on_c, 0, 57, 91
2, 31856, Note_on_c, 0, 71, 0
2, 31862, Note_on_c, 0, 69, 84
2, 31865, Note_on_c, 0, 57, 0
2, 31921, Note_on_c, 0, 69, 0
2, 31958, Control_c, 0, 64, 41
2, 31965, Note_on_c, 0, 50, 88
2, 31965, Note_on_c, 0, 80, 87
2, 31973, Control_c, 0, 64, 40
2, 31996, Control_c, 0, 64, 38
2, 32003, Note_on_c, 0, 52, 37
2, 32004, Note_on_c, 0, 52, 0
2, 32011, Control_c, 0, 64, 37
2, 32026, Control_c, 0, 64, 36
2, 32042, Control_c, 0, 64, 35
2, 32043, Note_on_c, 0, 52, 58
2, 32057, Control_c, 0, 64, 34
2, 32095, Note_on_c, 0, 50, 0
2, 32140, Note_on_c, 0, 53, 89
2, 32159, Note_on_c, 0, 52, 0
2, 32198, Note_on_c, 0, 53, 0
2, 32254, Control_c, 0, 64, 35
2, 32269, Control_c, 0, 64, 35
2, 32284, Control_c, 0, 64, 36
2, 32299, Control_c, 0, 64, 37
2, 32315, Control_c, 0, 64, 38
2, 32330, Control_c, 0, 64, 38
2, 32330, Note_on_c, 0, 56, 86
2, 32345, Control_c, 0, 64, 39
2, 32361, Control_c, 0, 64, 39
2, 32376, Control_c, 0, 64, 40
2, 32388, Note_on_c, 0, 56, 0
2, 32407, Control_c, 0, 64, 40
2, 32452, Control_c, 0, 64, 41
2, 32493, Note_on_c, 0, 53, 84
2, 32495, Note_on_c, 0, 80, 0
2, 32547, Note_on_c, 0, 53, 0
2, 32575, Note_on_c, 0, 81, 76
2, 32658, Note_on_c, 0, 50, 83
2, 32667, Note_on_c, 0, 81, 0
2, 32667, Note_on_c, 0, 83, 83
2, 32716, Note_on_c, 0, 50, 0
2, 32748, Note_on_c, 0, 81, 72
2, 32808, Note_on_c, 0, 83, 0
2, 32832, Note_on_c, 0, 80, 82
2, 32836, Note_on_c, 0, 47, 83
2, 32878, Note_on_c, 0, 81, 0
2, 32892, Note_on_c, 0, 47, 0
2, 32909, Note_on_c, 0, 78, 83
2, 32952, Note_on_c, 0, 80, 0
2, 32988, Note_on_c, 0, 76, 81
2, 32995, Note_on_c, 0, 78, 0
2, 33004, Note_on_c, 0, 50, 87
2, 33058, Note_on_c, 0, 50, 0
2, 33073, Note_on_c, 0, 77, 85
2, 33082, Note_on_c, 0, 76, 0
2, 33162, Note_on_c, 0, 76, 79
2, 33166, Note_on_c, 0, 53, 85
2, 33213, Note_on_c, 0, 77, 0
2, 33238, Note_on_c, 0, 74, 85
2, 33247, Note_on_c, 0, 53, 0
2, 33320, Note_on_c, 0, 72, 88
2, 33324, Note_on_c, 0, 76, 0
2, 33326, Note_on_c, 0, 56, 87
2, 33342, Note_on_c, 0, 74, 0
2, 33385, Note_on_c, 0, 56, 0
2, 33395, Note_on_c, 0, 71, 86
2, 33406, Note_on_c, 0, 72, 0
2, 33454, Note_on_c, 0, 71, 0
2, 33494, Note_on_c, 0, 48, 91
2, 33496, Note_on_c, 0, 69, 97
2, 33511, Control_c, 0, 64, 40
2, 33533, Control_c, 0, 64, 39
2, 33548, Control_c, 0, 64, 38
2, 33563, Control_c, 0, 64, 36
2, 33575, Note_on_c, 0, 71, 88
2, 33578, Control_c, 0, 64, 35
2, 33594, Control_c, 0, 64, 34
2, 33602, Note_on_c, 0, 69, 0
2, 33608, Control_c, 0, 64, 33
2, 33639, Control_c, 0, 64, 33
2, 33669, Note_on_c, 0, 72, 89
2, 33697, Note_on_c, 0, 71, 0
2, 33729, Note_on_c, 0, 72, 0
2, 33761, Control_c, 0, 64, 33
2, 33832, Note_on_c, 0, 48, 0
2, 33837, Control_c, 0, 64, 34
2, 33855, Note_on_c, 0, 76, 86
2, 33867, Control_c, 0, 64, 34
2, 33897, Control_c, 0, 64, 35
2, 33913, Control_c, 0, 64, 35
2, 33932, Note_on_c, 0, 76, 0
2, 34033, Note_on_c, 0, 72, 94
2, 34037, Control_c, 0, 64, 36
2, 34038, Note_on_c, 0, 57, 81
2, 34068, Control_c, 0, 64, 36
2, 34108, Note_on_c, 0, 72, 0
2, 34118, Note_on_c, 0, 56, 81
2, 34122, Note_on_c, 0, 57, 0
2, 34142, Control_c, 0, 64, 37
2, 34173, Control_c, 0, 64, 38
2, 34198, Note_on_c, 0, 56, 0
2, 34199, Note_on_c, 0, 57, 84
2, 34200, Note_on_c, 0, 69, 89
2, 34203, Control_c, 0, 64, 38
2, 34218, Control_c, 0, 64, 39
2, 34248, Control_c, 0, 64, 39
2, 34251, Note_on_c, 0, 69, 0
2, 34282, Note_on_c, 0, 56, 85
2, 34289, Note_on_c, 0, 57, 0
2, 34355, Note_on_c, 0, 64, 70
2, 34370, Note_on_c, 0, 56, 0
2, 34380, Note_on_c, 0, 57, 85
2, 34387, Note_on_c, 0, 65, 47
2, 34414, Note_on_c, 0, 65, 0
2, 34424, Note_on_c, 0, 64, 0
2, 34439, Note_on_c, 0, 56, 86
2, 34451, Note_on_c, 0, 57, 0
2, 34529, Note_on_c, 0, 56, 0
2, 34538, Note_on_c, 0, 57, 95
2, 34546, Note_on_c, 0, 76, 89
2, 34560, Control_c, 0, 64, 39
2, 34575, Control_c, 0, 64, 38
2, 34591, Control_c, 0, 64, 38
2, 34592, Note_on_c, 0, 57, 0
2, 34605, Control_c, 0, 64, 37
2, 34628, Note_on_c, 0, 74, 82
2, 34651, Control_c, 0, 64, 37
2, 34685, Note_on_c, 0, 76, 0
2, 34714, Note_on_c, 0, 72, 80
2, 34717, Note_on_c, 0, 52, 89
2, 34763, Note_on_c, 0, 74, 0
2, 34774, Note_on_c, 0, 52, 0
2, 34790, Note_on_c, 0, 71, 83
2, 34820, Note_on_c, 0, 72, 0
2, 34870, Note_on_c, 0, 69, 82
2, 34872, Note_on_c, 0, 71, 0
2, 34884, Note_on_c, 0, 48, 75
2, 34888, Note_on_c, 0, 47, 72
2, 34919, Note_on_c, 0, 48, 0
2, 34920, Note_on_c, 0, 47, 0
2, 34949, Note_on_c, 0, 68, 88
2, 34955, Note_on_c, 0, 69, 0
2, 35035, Note_on_c, 0, 69, 96
2, 35038, Note_on_c, 0, 41, 92
2, 35044, Note_on_c, 0, 68, 0
2, 35047, Control_c, 0, 64, 35
2, 35070, Control_c, 0, 64, 34
2, 35085, Control_c, 0, 64, 32
2, 35099, Control_c, 0, 64, 29
2, 35115, Control_c, 0, 64, 21
2, 35120, Note_on_c, 0, 71, 94
2, 35130, Control_c, 0, 64, 0
2, 35132, Note_on_c, 0, 69, 0
2, 35210, Note_on_c, 0, 72, 93
2, 35230, Note_on_c, 0, 71, 0
2, 35271, Note_on_c, 0, 72, 0
2, 35350, Note_on_c, 0, 41, 0
2, 35388, Note_on_c, 0, 81, 88
2, 35457, Note_on_c, 0, 81, 0
2, 35567, Note_on_c, 0, 76, 95
2, 35568, Note_on_c, 0, 57, 78
2, 35635, Note_on_c, 0, 76, 0
2, 35645, Note_on_c, 0, 57, 0
2, 35646, Note_on_c, 0, 56, 77
2, 35728, Note_on_c, 0, 56, 0
2, 35732, Note_on_c, 0, 57, 78
2, 35738, Control_c, 0, 64, 11
2, 35741, Note_on_c, 0, 72, 92
2, 35754, Control_c, 0, 64, 13
2, 35769, Control_c, 0, 64, 16
2, 35785, Control_c, 0, 64, 17
2, 35796, Note_on_c, 0, 57, 0
2, 35799, Note_on_c, 0, 72, 0
2, 35800, Control_c, 0, 64, 17
2, 35805, Note_on_c, 0, 56, 78
2, 35814, Control_c, 0, 64, 18
2, 35838, Control_c, 0, 64, 19
2, 35868, Control_c, 0, 64, 20
2, 35886, Note_on_c, 0, 56, 0
2, 35897, Note_on_c, 0, 57, 78
2, 35898, Control_c, 0, 64, 21
2, 35910, Note_on_c, 0, 69, 84
2, 35929, Control_c, 0, 64, 21
2, 35963, Note_on_c, 0, 56, 81
2, 35969, Note_on_c, 0, 57, 0
2, 35975, Note_on_c, 0, 69, 0
2, 36075, Note_on_c, 0, 57, 94
2, 36076, Note_on_c, 0, 56, 0
2, 36083, Note_on_c, 0, 81, 90
2, 36112, Control_c, 0, 64, 21
2, 36126, Control_c, 0, 64, 19
2, 36126, Note_on_c, 0, 57, 0
2, 36141, Control_c, 0, 64, 17
2, 36157, Control_c, 0, 64, 17
2, 36167, Note_on_c, 0, 79, 81
2, 36172, Control_c, 0, 64, 16
2, 36236, Note_on_c, 0, 81, 0
2, 36254, Note_on_c, 0, 59, 83
2, 36255, Note_on_c, 0, 77, 88
2, 36306, Note_on_c, 0, 59, 0
2, 36314, Note_on_c, 0, 79, 0
2, 36329, Note_on_c, 0, 76, 87
2, 36350, Note_on_c, 0, 77, 0
2, 36385, Control_c, 0, 64, 17
2, 36411, Note_on_c, 0, 74, 84
2, 36413, Note_on_c, 0, 76, 0
2, 36415, Control_c, 0, 64, 17
2, 36416, Note_on_c, 0, 60, 83
2, 36430, Control_c, 0, 64, 18
2, 36466, Note_on_c, 0, 60, 0
2, 36469, Note_on_c, 0, 74, 0
2, 36475, Control_c, 0, 64, 19
2, 36487, Note_on_c, 0, 72, 91
2, 36580, Note_on_c, 0, 50, 87
2, 36582, Note_on_c, 0, 77, 95
2, 36584, Note_on_c, 0, 72, 0
2, 36606, Control_c, 0, 64, 18
2, 36654, Note_on_c, 0, 50, 0
2, 36667, Control_c, 0, 64, 17
2, 36671, Note_on_c, 0, 76, 81
2, 36682, Control_c, 0, 64, 16
2, 36748, Note_on_c, 0, 77, 0
2, 36758, Note_on_c, 0, 74, 87
2, 36768, Note_on_c, 0, 52, 82
2, 36820, Note_on_c, 0, 52, 0
2, 36831, Note_on_c, 0, 72, 93
2, 36834, Control_c, 0, 64, 17
2, 36848, Note_on_c, 0, 76, 0
2, 36849, Control_c, 0, 64, 17
2, 36858, Note_on_c, 0, 74, 0
2, 36864, Control_c, 0, 64, 19
2, 36879, Control_c, 0, 64, 21
2, 36894, Control_c, 0, 64, 22
2, 36914, Note_on_c, 0, 71, 83
2, 36922, Note_on_c, 0, 72, 0
2, 36924, Control_c, 0, 64, 23
2, 36928, Note_on_c, 0, 53, 89
2, 36974, Note_on_c, 0, 71, 0
2, 36992, Note_on_c, 0, 69, 90
2, 37003, Note_on_c, 0, 53, 0
2, 37081, Note_on_c, 0, 74, 93
2, 37092, Note_on_c, 0, 69, 0
2, 37093, Note_on_c, 0, 47, 87
2, 37108, Control_c, 0, 64, 22
2, 37122, Control_c, 0, 64, 20
2, 37137, Control_c, 0, 64, 19
2, 37153, Control_c, 0, 64, 18
2, 37159, Note_on_c, 0, 72, 82
2, 37166, Note_on_c, 0, 47, 0
2, 37168, Control_c, 0, 64, 17
2, 37184, Control_c, 0, 64, 17
2, 37213, Control_c, 0, 64, 16
2, 37228, Note_on_c, 0, 74, 0
2, 37243, Note_on_c, 0, 71, 84
2, 37257, Note_on_c, 0, 48, 91
2, 37289, Control_c, 0, 64, 17
2, 37304, Note_on_c, 0, 72, 0
2, 37313, Note_on_c, 0, 48, 0
2, 37321, Control_c, 0, 64, 17
2, 37322, Note_on_c, 0, 71, 0
2, 37328, Note_on_c, 0, 69, 87
2, 37336, Control_c, 0, 64, 19
2, 37351, Control_c, 0, 64, 21
2, 37374, Control_c, 0, 64, 23
2, 37390, Control_c, 0, 64, 24
2, 37404, Control_c, 0, 64, 24
2, 37419, Control_c, 0, 64, 25
2, 37419, Note_on_c, 0, 50, 84
2, 37421, Note_on_c, 0, 68, 88
2, 37429, Note_on_c, 0, 69, 0
2, 37499, Note_on_c, 0, 50, 0
2, 37499, Note_on_c, 0, 66, 86
2, 37502, Note_on_c, 0, 68, 0
2, 37551, Note_on_c, 0, 66, 0
2, 37587, Control_c, 0, 64, 24
2, 37589, Note_on_c, 0, 44, 90
2, 37599, Note_on_c, 0, 71, 95
2, 37602, Control_c, 0, 64, 21
2, 37617, Control_c, 0, 64, 20
2, 37632, Control_c, 0, 64, 18
2, 37647, Control_c, 0, 64, 17
2, 37662, Control_c, 0, 64, 16
2, 37677, Note_on_c, 0, 44, 0
2, 37678, Control_c, 0, 64, 13
2, 37685, Note_on_c, 0, 69, 81
2, 37693, Control_c, 0, 64, 12
2, 37709, Control_c, 0, 64, 11
2, 37753, Control_c, 0, 64, 9
2, 37757, Note_on_c, 0, 71, 0
2, 37767, Note_on_c, 0, 68, 85
2, 37769, Note_on_c, 0, 45, 89
2, 37814, Control_c, 0, 64, 11
2, 37842, Note_on_c, 0, 45, 0
2, 37848, Note_on_c, 0, 66, 86
2, 37860, Control_c, 0, 64, 12
2, 37864, Note_on_c, 0, 69, 0
2, 37875, Control_c, 0, 64, 15
2, 37886, Note_on_c, 0, 68, 0
2, 37890, Control_c, 0, 64, 18
2, 37906, Control_c, 0, 64, 21
2, 37921, Control_c, 0, 64, 23
2, 37927, Note_on_c, 0, 47, 87
2, 37929, Note_on_c, 0, 64, 82
2, 37936, Control_c, 0, 64, 24
2, 37946, Note_on_c, 0, 66, 0
2, 37952, Control_c, 0, 64, 24
2, 37997, Control_c, 0, 64, 25
2, 38012, Control_c, 0, 64, 26
2, 38015, Note_on_c, 0, 62, 85
2, 38019, Note_on_c, 0, 47, 0
2, 38024, Note_on_c, 0, 64, 0
2, 38028, Control_c, 0, 64, 26
2, 38042, Control_c, 0, 64, 27
2, 38068, Note_on_c, 0, 62, 0
2, 38113, Note_on_c, 0, 36, 89
2, 38114, Note_on_c, 0, 64, 92
2, 38200, Control_c, 0, 64, 25
2, 38215, Control_c, 0, 64, 21
2, 38215, Note_on_c, 0, 69, 82
2, 38231, Control_c, 0, 64, 17
2, 38246, Control_c, 0, 64, 15
2, 38251, Note_on_c, 0, 64, 0
2, 38292, Control_c, 0, 64, 13
2, 38301, Note_on_c, 0, 67, 81
2, 38377, Note_on_c, 0, 69, 0
2, 38383, Note_on_c, 0, 65, 84
2, 38413, Control_c, 0, 64, 15
2, 38444, Control_c, 0, 64, 16
2, 38459, Control_c, 0, 64, 17
2, 38462, Note_on_c, 0, 64, 87
2, 38465, Note_on_c, 0, 67, 0
2, 38474, Control_c, 0, 64, 19
2, 38484, Note_on_c, 0, 65, 0
2, 38489, Control_c, 0, 64, 21
2, 38504, Control_c, 0, 64, 22
2, 38520, Control_c, 0, 64, 23
2, 38535, Control_c, 0, 64, 24
2, 38535, Note_on_c, 0, 62, 84
2, 38543, Note_on_c, 0, 64, 0
2, 38549, Control_c, 0, 64, 25
2, 38586, Note_on_c, 0, 62, 0
2, 38622, Note_on_c, 0, 60, 92
2, 38649, Note_on_c, 0, 36, 0
2, 38686, Control_c, 0, 64, 24
2, 38699, Note_on_c, 0, 65, 83
2, 38701, Control_c, 0, 64, 21
2, 38712, Note_on_c, 0, 60, 0
2, 38717, Control_c, 0, 64, 17
2, 38732, Control_c, 0, 64, 15
2, 38747, Control_c, 0, 64, 12
2, 38763, Control_c, 0, 64, 11
2, 38773, Note_on_c, 0, 48, 80
2, 38778, Control_c, 0, 64, 0
2, 38779, Note_on_c, 0, 64, 80
2, 38836, Note_on_c, 0, 48, 0
2, 38857, Note_on_c, 0, 62, 82
2, 38858, Note_on_c, 0, 65, 0
2, 38944, Note_on_c, 0, 60, 85
2, 38952, Note_on_c, 0, 50, 83
2, 38952, Note_on_c, 0, 64, 0
2, 38953, Control_c, 0, 64, 9
2, 38968, Note_on_c, 0, 62, 0
2, 38969, Control_c, 0, 64, 12
2, 38983, Control_c, 0, 64, 16
2, 38999, Control_c, 0, 64, 17
2, 39011, Note_on_c, 0, 50, 0
2, 39014, Control_c, 0, 64, 19
2, 39016, Note_on_c, 0, 59, 78
2, 39021, Note_on_c, 0, 60, 0
2, 39029, Control_c, 0, 64, 21
2, 39044, Control_c, 0, 64, 23
2, 39059, Control_c, 0, 64, 23
2, 39073, Note_on_c, 0, 59, 0
2, 39075, Control_c, 0, 64, 24
2, 39102, Note_on_c, 0, 57, 86
2, 39108, Note_on_c, 0, 52, 80
2, 39166, Note_on_c, 0, 52, 0
2, 39180, Note_on_c, 0, 62, 78
2, 39185, Note_on_c, 0, 57, 0
2, 39269, Note_on_c, 0, 50, 68
2, 39271, Note_on_c, 0, 60, 71
2, 39288, Control_c, 0, 64, 23
2, 39307, Note_on_c, 0, 62, 0
2, 39318, Note_on_c, 0, 50, 0
2, 39351, Note_on_c, 0, 59, 70
2, 39385, Note_on_c, 0, 60, 0
2, 39416, Note_on_c, 0, 59, 0
2, 39431, Note_on_c, 0, 52, 62
2, 39448, Note_on_c, 0, 57, 69
2, 39472, Note_on_c, 0, 52, 0
2, 39515, Note_on_c, 0, 57, 0
2, 39525, Note_on_c, 0, 56, 70
2, 39592, Control_c, 0, 64, 24
2, 39607, Control_c, 0, 64, 24
2, 39611, Note_on_c, 0, 56, 0
2, 39614, Note_on_c, 0, 45, 58
2, 39619, Note_on_c, 0, 57, 75
2, 39622, Control_c, 0, 64, 26
2, 39637, Control_c, 0, 64, 27
2, 39652, Control_c, 0, 64, 27
2, 39675, Control_c, 0, 64, 28
2, 39690, Control_c, 0, 64, 29
2, 39705, Control_c, 0, 64, 30
2, 39713, Note_on_c, 0, 59, 77
2, 39716, Note_on_c, 0, 57, 0
2, 39721, Control_c, 0, 64, 32
2, 39735, Control_c, 0, 64, 33
2, 39751, Control_c, 0, 64, 34
2, 39766, Control_c, 0, 64, 35
2, 39782, Control_c, 0, 64, 35
2, 39789, Note_on_c, 0, 61, 77
2, 39797, Control_c, 0, 64, 36
2, 39808, Note_on_c, 0, 59, 0
2, 39812, Control_c, 0, 64, 37
2, 39827, Control_c, 0, 64, 38
2, 39843, Control_c, 0, 64, 39
2, 39858, Control_c, 0, 64, 40
2, 39863, Note_on_c, 0, 62, 83
2, 39865, Note_on_c, 0, 61, 0
2, 39873, Control_c, 0, 64, 41
2, 39888, Control_c, 0, 64, 41
2, 39953, Note_on_c, 0, 64, 82
2, 39964, Control_c, 0, 64, 42
2, 39980, Note_on_c, 0, 62, 0
2, 40025, Note_on_c, 0, 65, 85
2, 40054, Note_on_c, 0, 64, 0
2, 40117, Note_on_c, 0, 67, 85
2, 40152, Note_on_c, 0, 65, 0
2, 40208, Note_on_c, 0, 47, 66
2, 40231, Note_on_c, 0, 67, 0
2, 40283, Note_on_c, 0, 49, 70
2, 40290, Note_on_c, 0, 64, 76
2, 40332, Note_on_c, 0, 47, 0
2, 40377, Note_on_c, 0, 64, 0
2, 40378, Note_on_c, 0, 50, 77
2, 40396, Note_on_c, 0, 49, 0
2, 40468, Note_on_c, 0, 61, 68
2, 40471, Note_on_c, 0, 52, 75
2, 40474, Note_on_c, 0, 50, 0
2, 40543, Note_on_c, 0, 53, 85
2, 40567, Note_on_c, 0, 52, 0
2, 40616, Note_on_c, 0, 70, 86
2, 40634, Note_on_c, 0, 61, 0
2, 40642, Note_on_c, 0, 55, 89
2, 40652, Note_on_c, 0, 53, 0
2, 40706, Note_on_c, 0, 61, 76
2, 40708, Note_on_c, 0, 55, 0
2, 40729, Note_on_c, 0, 70, 0
2, 40778, Control_c, 0, 64, 41
2, 40794, Control_c, 0, 64, 40
2, 40805, Note_on_c, 0, 69, 82
2, 40808, Control_c, 0, 64, 39
2, 40811, Note_on_c, 0, 53, 77
2, 40816, Note_on_c, 0, 61, 0
2, 40823, Control_c, 0, 64, 39
2, 40839, Control_c, 0, 64, 38
2, 40854, Control_c, 0, 64, 37
2, 40854, Note_on_c, 0, 53, 0
2, 40869, Control_c, 0, 64, 36
2, 40885, Control_c, 0, 64, 35
2, 40889, Note_on_c, 0, 61, 77
2, 40900, Control_c, 0, 64, 33
2, 40909, Note_on_c, 0, 69, 0
2, 40915, Control_c, 0, 64, 31
2, 40930, Control_c, 0, 64, 25
2, 40945, Control_c, 0, 64, 0
2, 40979, Note_on_c, 0, 67, 74
2, 40984, Note_on_c, 0, 52, 80
2, 40985, Note_on_c, 0, 61, 0
2, 41041, Note_on_c, 0, 52, 0
2, 41053, Note_on_c, 0, 61, 76
2, 41061, Note_on_c, 0, 67, 0
2, 41143, Note_on_c, 0, 61, 0
2, 41147, Note_on_c, 0, 65, 74
2, 41154, Note_on_c, 0, 50, 85
2, 41242, Control_c, 0, 64, 35
2, 41248, Note_on_c, 0, 69, 76
2, 41257, Control_c, 0, 64, 47
2, 41269, Note_on_c, 0, 65, 0
2, 41272, Control_c, 0, 64, 52
2, 41287, Control_c, 0, 64, 57
2, 41299, Note_on_c, 0, 69, 0
2, 41302, Control_c, 0, 64, 61
2, 41318, Control_c, 0, 64, 64
2, 41333, Control_c, 0, 64, 68
2, 41343, Note_on_c, 0, 71, 88
2, 41347, Control_c, 0, 64, 73
2, 41363, Control_c, 0, 64, 76
2, 41378, Control_c, 0, 64, 78
2, 41408, Control_c, 0, 64, 77
2, 41420, Note_on_c, 0, 73, 85
2, 41425, Control_c, 0, 64, 75
2, 41440, Control_c, 0, 64, 74
2, 41450, Note_on_c, 0, 71, 0
2, 41455, Control_c, 0, 64, 73
2, 41471, Control_c, 0, 64, 72
2, 41486, Control_c, 0, 64, 71
2, 41500, Control_c, 0, 64, 69
2, 41502, Note_on_c, 0, 74, 81
2, 41516, Control_c, 0, 64, 67
2, 41525, Note_on_c, 0, 73, 0
2, 41531, Control_c, 0, 64, 64
2, 41546, Control_c, 0, 64, 61
2, 41562, Control_c, 0, 64, 59
2, 41575, Note_on_c, 0, 76, 85
2, 41576, Control_c, 0, 64, 57
2, 41592, Control_c, 0, 64, 56
2, 41607, Control_c, 0, 64, 55
2, 41622, Control_c, 0, 64, 52
2, 41629, Note_on_c, 0, 74, 0
2, 41638, Control_c, 0, 64, 50
2, 41652, Control_c, 0, 64, 47
2, 41667, Control_c, 0, 64, 46
2, 41683, Control_c, 0, 64, 45
2, 41686, Note_on_c, 0, 77, 94
2, 41698, Control_c, 0, 64, 45
2, 41747, Note_on_c, 0, 45, 0
2, 41763, Note_on_c, 0, 50, 0
2, 41774, Control_c, 0, 64, 45
2, 41781, Note_on_c, 0, 76, 0
2, 41783, Note_on_c, 0, 57, 73
2, 41784, Note_on_c, 0, 77, 0
2, 41789, Control_c, 0, 64, 46
2, 41820, Control_c, 0, 64, 46
2, 41836, Control_c, 0, 64, 47
2, 41885, Note_on_c, 0, 74, 82
2, 41887, Note_on_c, 0, 59, 74
2, 41962, Note_on_c, 0, 74, 0
2, 41984, Note_on_c, 0, 61, 80
2, 41995, Control_c, 0, 64, 47
2, 42010, Note_on_c, 0, 59, 0
2, 42071, Control_c, 0, 64, 48
2, 42087, Note_on_c, 0, 62, 87
2, 42091, Note_on_c, 0, 61, 0
2, 42101, Control_c, 0, 64, 48
2, 42103, Note_on_c, 0, 71, 83
2, 42116, Control_c, 0, 64, 49
2, 42177, Control_c, 0, 64, 49
2, 42184, Note_on_c, 0, 64, 81
2, 42193, Note_on_c, 0, 62, 0
2, 42222, Control_c, 0, 64, 50
2, 42319, Note_on_c, 0, 65, 83
2, 42330, Note_on_c, 0, 81, 78
2, 42353, Note_on_c, 0, 64, 0
2, 42420, Control_c, 0, 64, 49
2, 42440, Note_on_c, 0, 80, 80
2, 42451, Control_c, 0, 64, 49
2, 42458, Note_on_c, 0, 65, 0
2, 42465, Note_on_c, 0, 81, 0
2, 42512, Control_c, 0, 64, 48
2, 42541, Control_c, 0, 64, 48
2, 42569, Note_on_c, 0, 64, 79
2, 42569, Note_on_c, 0, 81, 84
2, 42572, Control_c, 0, 64, 47
2, 42587, Control_c, 0, 64, 47
2, 42598, Note_on_c, 0, 80, 0
2, 42618, Control_c, 0, 64, 46
2, 42634, Control_c, 0, 64, 46
2, 42649, Control_c, 0, 64, 45
2, 42666, Note_on_c, 0, 64, 0
2, 42675, Note_on_c, 0, 80, 77
2, 42679, Control_c, 0, 64, 44
2, 42709, Control_c, 0, 64, 44
2, 42715, Note_on_c, 0, 81, 0
2, 42725, Control_c, 0, 64, 43
2, 42746, Control_c, 0, 64, 43
2, 42762, Control_c, 0, 64, 41
2, 42777, Control_c, 0, 64, 38
2, 42793, Control_c, 0, 64, 36
2, 42808, Control_c, 0, 64, 34
2, 42820, Note_on_c, 0, 62, 72
2, 42823, Note_on_c, 0, 81, 83
2, 42861, Note_on_c, 0, 80, 0
2, 42868, Control_c, 0, 64, 34
2, 42899, Control_c, 0, 64, 34
2, 42908, Note_on_c, 0, 71, 0
2, 42930, Control_c, 0, 64, 36
2, 42939, Note_on_c, 0, 62, 0
2, 42945, Control_c, 0, 64, 40
2, 42955, Note_on_c, 0, 80, 88
2, 42960, Control_c, 0, 64, 44
2, 42975, Control_c, 0, 64, 47
2, 42984, Note_on_c, 0, 81, 0
2, 42991, Control_c, 0, 64, 51
2, 43006, Control_c, 0, 64, 56
2, 43021, Control_c, 0, 64, 61
2, 43036, Control_c, 0, 64, 64
2, 43052, Control_c, 0, 64, 66
2, 43067, Control_c, 0, 64, 67
2, 43083, Control_c, 0, 64, 68
2, 43098, Control_c, 0, 64, 68
2, 43113, Control_c, 0, 64, 68
2, 43128, Control_c, 0, 64, 67
2, 43174, Control_c, 0, 64, 67
2, 43188, Control_c, 0, 64, 66
2, 43203, Note_on_c, 0, 80, 0
2, 43204, Control_c, 0, 64, 65
2, 43217, Note_on_c, 0, 81, 77
2, 43219, Control_c, 0, 64, 64
2, 43223, Note_on_c, 0, 64, 71
2, 43224, Note_on_c, 0, 73, 70
2, 43225, Note_on_c, 0, 76, 79
2, 43235, Control_c, 0, 64, 62
2, 43250, Control_c, 0, 64, 56
2, 43264, Control_c, 0, 64, 49
2, 43280, Control_c, 0, 64, 41
2, 43295, Control_c, 0, 64, 33
2, 43309, Control_c, 0, 64, 28
2, 43325, Control_c, 0, 64, 25
2, 43340, Control_c, 0, 64, 22
2, 43356, Control_c, 0, 64, 20
2, 43371, Control_c, 0, 64, 18
2, 43385, Control_c, 0, 64, 17
2, 43401, Control_c, 0, 64, 17
2, 43545, Control_c, 0, 64, 16
2, 43682, Control_c, 0, 64, 15
2, 44679, Control_c, 0, 64, 16
2, 44709, Control_c, 0, 64, 17
2, 44725, Control_c, 0, 64, 17
2, 44740, Control_c, 0, 64, 19
2, 44756, Control_c, 0, 64, 20
2, 44770, Control_c, 0, 64, 21
2, 44785, Control_c, 0, 64, 22
2, 44801, Control_c, 0, 64, 23
2, 44816, Control_c, 0, 64, 23
2, 44832, Control_c, 0, 64, 24
2, 44847, Control_c, 0, 64, 24
2, 44862, Control_c, 0, 64, 25
2, 44876, Control_c, 0, 64, 26
2, 44891, Control_c, 0, 64, 27
2, 44906, Control_c, 0, 64, 28
2, 44922, Control_c, 0, 64, 29
2, 44937, Control_c, 0, 64, 30
2, 44952, Control_c, 0, 64, 31
2, 44967, Control_c, 0, 64, 31
2, 44982, Control_c, 0, 64, 32
2, 45012, Control_c, 0, 64, 32
2, 45027, Control_c, 0, 64, 33
2, 45051, Control_c, 0, 64, 33
2, 45066, Control_c, 0, 64, 34
2, 45081, Control_c, 0, 64, 35
2, 45096, Control_c, 0, 64, 36
2, 45112, Control_c, 0, 64, 38
2, 45126, Control_c, 0, 64, 39
2, 45141, Control_c, 0, 64, 39
2, 45157, Control_c, 0, 64, 41
2, 45172, Control_c, 0, 64, 42
2, 45187, Control_c, 0, 64, 43
2, 45202, Control_c, 0, 64, 43
2, 45217, Control_c, 0, 64, 44
2, 45233, Control_c, 0, 64, 44
2, 45248, Control_c, 0, 64, 45
2, 45263, Control_c, 0, 64, 45
2, 45293, Control_c, 0, 64, 46
2, 45308, Control_c, 0, 64, 47
2, 45324, Control_c, 0, 64, 47
2, 45339, Control_c, 0, 64, 48
2, 45355, Control_c, 0, 64, 49
2, 45370, Control_c, 0, 64, 49
2, 45385, Control_c, 0, 64, 50
2, 45400, Control_c, 0, 64, 50
2, 45415, Control_c, 0, 64, 51
2, 45431, Control_c, 0, 64, 51
2, 45446, Control_c, 0, 64, 52
2, 45461, Control_c, 0, 64, 52
2, 45477, Control_c, 0, 64, 53
2, 45491, Control_c, 0, 64, 54
2, 45507, Control_c, 0, 64, 54
2, 45523, Control_c, 0, 64, 55
2, 45538, Control_c, 0, 64, 56
2, 45554, Control_c, 0, 64, 57
2, 45568, Control_c, 0, 64, 58
2, 45583, Control_c, 0, 64, 60
2, 45599, Control_c, 0, 64, 62
2, 45614, Control_c, 0, 64, 62
2, 45629, Control_c, 0, 64, 63
2, 45644, Control_c, 0, 64, 64
2, 45659, Control_c, 0, 64, 64
2, 45675, Control_c, 0, 64, 65
2, 45690, Control_c, 0, 64, 65
2, 45705, Control_c, 0, 64, 66
2, 45735, Control_c, 0, 64, 66
2, 45766, Control_c, 0, 64, 67
2, 45781, Control_c, 0, 64, 67
2, 45796, Control_c, 0, 64, 68
2, 45811, Control_c, 0, 64, 68
2, 45835, Control_c, 0, 64, 69
2, 45849, Control_c, 0, 64, 70
2, 45864, Control_c, 0, 64, 72
2, 45880, Control_c, 0, 64, 73
2, 45895, Control_c, 0, 64, 75
2, 45911, Control_c, 0, 64, 76
2, 45925, Control_c, 0, 64, 77
2, 46131, Note_on_c, 0, 76, 0
2, 46137, Note_on_c, 0, 81, 0
2, 46168, Control_c, 0, 64, 76
2, 46213, Control_c, 0, 64, 76
2, 46244, Control_c, 0, 64, 75
2, 46259, Control_c, 0, 64, 75
2, 46290, Control_c, 0, 64, 74
2, 46305, Control_c, 0, 64, 73
2, 46305, Note_on_c, 0, 73, 0
2, 46308, Note_on_c, 0, 64, 0
2, 46336, Control_c, 0, 64, 73
2, 46363, Note_on_c, 0, 57, 0
2, 46366, Control_c, 0, 64, 72
2, 46381, Control_c, 0, 64, 72
2, 46412, Control_c, 0, 64, 71
2, 46443, Control_c, 0, 64, 71
2, 46458, Control_c, 0, 64, 70
2, 46474, Control_c, 0, 64, 70
2, 46488, Control_c, 0, 64, 69
2, 46503, Control_c, 0, 64, 68
2, 46519, Control_c, 0, 64, 67
2, 46534, Control_c, 0, 64, 66
2, 46549, Control_c, 0, 64, 64
2, 46564, Control_c, 0, 64, 64
2, 46586, Control_c, 0, 64, 63
2, 46602, Control_c, 0, 64, 62
2, 46617, Control_c, 0, 64, 61
2, 46633, Control_c, 0, 64, 60
2, 46648, Control_c, 0, 64, 59
2, 46663, Control_c, 0, 64, 57
2, 46679, Control_c, 0, 64, 57
2, 46693, Control_c, 0, 64, 56
2, 46708, Control_c, 0, 64, 54
2, 46724, Control_c, 0, 64, 53
2, 46739, Control_c, 0, 64, 51
2, 46755, Control_c, 0, 64, 50
2, 46769, Control_c, 0, 64, 49
2, 46784, Control_c, 0, 64, 46
2, 46800, Control_c, 0, 64, 44
2, 46876, Control_c, 0, 64, 44
2, 46891, Control_c, 0, 64, 42
2, 46905, Control_c, 0, 64, 40
2, 46921, Control_c, 0, 64, 38
2, 46936, Control_c, 0, 64, 36
2, 46952, Control_c, 0, 64, 35
2, 46966, Control_c, 0, 64, 34
2, 46981, Control_c, 0, 64, 33
2, 47012, Control_c, 0, 64, 33
2, 47272, Control_c, 0, 64, 33
2, 47506, Control_c, 0, 64, 34
2, 47628, Control_c, 0, 64, 34
2, 47780, Control_c, 0, 64, 35
2, 47886, Control_c, 0, 64, 35
2, 47993, Control_c, 0, 64, 36
2, 48069, Control_c, 0, 64, 36
2, 48228, Control_c, 0, 64, 37
2, 49037,End_track
0, 0, End_of_file
