0, 0, Header, 1, 2, 384
1, 0, Start_track
1, 0, Tempo, 500000
1, 0, Time_signature, 4, 2, 24, 8
1, 1, End_track
2, 0, Start_track
2, 0, Program_c, 0, 0
2, 0, Control_c, 0, 64, 0
2, 739, Note_on_c, 0, 69, 76
2, 749, Note_on_c, 0, 45, 61
2, 769, Note_on_c, 0, 69, 0
2, 817, Note_on_c, 0, 71, 75
2, 865, Note_on_c, 0, 71, 0
2, 907, Note_on_c, 0, 72, 78
2, 932, Note_on_c, 0, 72, 0
2, 1075, Note_on_c, 0, 45, 0
2, 1093, Note_on_c, 0, 76, 76
2, 1122, Note_on_c, 0, 76, 0
2, 1267, Note_on_c, 0, 72, 70
2, 1288, Note_on_c, 0, 57, 61
2, 1302, Note_on_c, 0, 72, 0
2, 1346, Note_on_c, 0, 57, 0
2, 1366, Note_on_c, 0, 56, 62
2, 1435, Note_on_c, 0, 56, 0
2, 1448, Note_on_c, 0, 69, 71
2, 1454, Note_on_c, 0, 57, 66
2, 1484, Note_on_c, 0, 69, 0
2, 1505, Note_on_c, 0, 57, 0
2, 1525, Note_on_c, 0, 56, 65
2, 1581, Note_on_c, 0, 56, 0
2, 1612, Note_on_c, 0, 57, 67
2, 1622, Note_on_c, 0, 64, 74
2, 1650, Note_on_c, 0, 64, 0
2, 1658, Note_on_c, 0, 57, 0
2, 1693, Note_on_c, 0, 56, 62
2, 1766, Note_on_c, 0, 56, 0
2, 1782, Note_on_c, 0, 69, 82
2, 1783, Note_on_c, 0, 57, 68
2, 1808, Note_on_c, 0, 69, 0
2, 1817, Note_on_c, 0, 57, 0
2, 1949, Note_on_c, 0, 72, 77
2, 1954, Note_on_c, 0, 52, 64
2, 1982, Note_on_c, 0, 52, 0
2, 1986, Note_on_c, 0, 72, 0
2, 2121, Note_on_c, 0, 48, 63
2, 2121, Note_on_c, 0, 76, 82
2, 2152, Note_on_c, 0, 48, 0
2, 2154, Note_on_c, 0, 76, 0
2, 2292, Note_on_c, 0, 45, 73
2, 2295, Note_on_c, 0, 71, 81
2, 2325, Note_on_c, 0, 71, 0
2, 2374, Note_on_c, 0, 72, 84
2, 2418, Note_on_c, 0, 72, 0
2, 2454, Note_on_c, 0, 74, 84
2, 2492, Note_on_c, 0, 74, 0
2, 2585, Note_on_c, 0, 45, 0
2, 2635, Note_on_c, 0, 77, 81
2, 2662, Note_on_c, 0, 77, 0
2, 2803, Note_on_c, 0, 74, 75
2, 2809, Note_on_c, 0, 57, 55
2, 2836, Note_on_c, 0, 74, 0
2, 2858, Note_on_c, 0, 57, 0
2, 2883, Note_on_c, 0, 56, 70
2, 2926, Note_on_c, 0, 56, 0
2, 2953, Note_on_c, 0, 57, 65
2, 2968, Note_on_c, 0, 71, 83
2, 3017, Note_on_c, 0, 71, 0
2, 3023, Note_on_c, 0, 57, 0
2, 3029, Note_on_c, 0, 56, 73
2, 3096, Note_on_c, 0, 56, 0
2, 3114, Note_on_c, 0, 57, 72
2, 3126, Note_on_c, 0, 68, 89
2, 3161, Note_on_c, 0, 68, 0
2, 3179, Note_on_c, 0, 57, 0
2, 3194, Note_on_c, 0, 56, 68
2, 3268, Note_on_c, 0, 56, 0
2, 3282, Note_on_c, 0, 71, 86
2, 3290, Note_on_c, 0, 57, 71
2, 3321, Note_on_c, 0, 71, 0
2, 3343, Note_on_c, 0, 57, 0
2, 3445, Note_on_c, 0, 74, 78
2, 3448, Note_on_c, 0, 53, 66
2, 3471, Note_on_c, 0, 74, 0
2, 3476, Note_on_c, 0, 53, 0
2, 3604, Note_on_c, 0, 50, 64
2, 3607, Note_on_c, 0, 77, 87
2, 3635, Note_on_c, 0, 50, 0
2, 3644, Note_on_c, 0, 77, 0
2, 3772, Note_on_c, 0, 74, 82
2, 3776, Note_on_c, 0, 45, 73
2, 3837, Note_on_c, 0, 74, 0
2, 3843, Note_on_c, 0, 76, 82
2, 3891, Note_on_c, 0, 76, 0
2, 3928, Note_on_c, 0, 77, 85
2, 3992, Note_on_c, 0, 77, 0
2, 4066, Note_on_c, 0, 45, 0
2, 4106, Note_on_c, 0, 80, 78
2, 4155, Note_on_c, 0, 80, 0
2, 4269, Note_on_c, 0, 77, 81
2, 4281, Note_on_c, 0, 57, 53
2, 4298, Note_on_c, 0, 77, 0
2, 4330, Note_on_c, 0, 57, 0
2, 4358, Note_on_c, 0, 56, 63
2, 4417, Note_on_c, 0, 56, 0
2, 4426, Note_on_c, 0, 74, 85
2, 4433, Note_on_c, 0, 57, 69
2, 4463, Note_on_c, 0, 74, 0
2, 4504, Note_on_c, 0, 57, 0
2, 4512, Note_on_c, 0, 56, 75
2, 4582, Note_on_c, 0, 56, 0
2, 4584, Note_on_c, 0, 71, 90
2, 4595, Note_on_c, 0, 57, 71
2, 4638, Note_on_c, 0, 71, 0
2, 4659, Note_on_c, 0, 56, 72
2, 4662, Note_on_c, 0, 57, 0
2, 4728, Note_on_c, 0, 56, 0
2, 4735, Note_on_c, 0, 74, 87
2, 4745, Note_on_c, 0, 57, 76
2, 4780, Note_on_c, 0, 74, 0
2, 4799, Note_on_c, 0, 57, 0
2, 4896, Note_on_c, 0, 77, 87
2, 4900, Note_on_c, 0, 53, 69
2, 4931, Note_on_c, 0, 53, 0
2, 4938, Note_on_c, 0, 77, 0
2, 5051, Note_on_c, 0, 50, 64
2, 5052, Note_on_c, 0, 80, 90
2, 5085, Note_on_c, 0, 50, 0
2, 5103, Note_on_c, 0, 80, 0
2, 5237, Note_on_c, 0, 81, 91
2, 5240, Note_on_c, 0, 45, 75
2, 5411, Note_on_c, 0, 79, 83
2, 5420, Note_on_c, 0, 81, 0
2, 5490, Note_on_c, 0, 77, 83
2, 5565, Note_on_c, 0, 79, 0
2, 5571, Note_on_c, 0, 76, 77
2, 5583, Note_on_c, 0, 77, 0
2, 5606, Note_on_c, 0, 45, 0
2, 5648, Note_on_c, 0, 76, 0
2, 5653, Note_on_c, 0, 74, 69
2, 5740, Note_on_c, 0, 72, 73
2, 5744, Note_on_c, 0, 74, 0
2, 5909, Note_on_c, 0, 72, 0
2, 5916, Note_on_c, 0, 69, 64
2, 5944, Note_on_c, 0, 69, 0
2, 6081, Note_on_c, 0, 64, 56
2, 6103, Note_on_c, 0, 64, 0
2, 6242, Note_on_c, 0, 60, 67
2, 6274, Note_on_c, 0, 60, 0
2, 6402, Note_on_c, 0, 57, 71
2, 6436, Note_on_c, 0, 57, 0
2, 6556, Note_on_c, 0, 63, 72
2, 6598, Note_on_c, 0, 63, 0
2, 6734, Note_on_c, 0, 52, 59
2, 6741, Note_on_c, 0, 76, 68
2, 6743, Note_on_c, 0, 79, 74
2, 6757, Note_on_c, 0, 71, 63
2, 6796, Note_on_c, 0, 54, 71
2, 6842, Note_on_c, 0, 52, 0
2, 6892, Note_on_c, 0, 55, 77
2, 6916, Note_on_c, 0, 54, 0
2, 6929, Note_on_c, 0, 55, 0
2, 7050, Note_on_c, 0, 71, 0
2, 7056, Note_on_c, 0, 79, 0
2, 7059, Note_on_c, 0, 76, 0
2, 7067, Note_on_c, 0, 59, 75
2, 7098, Note_on_c, 0, 59, 0
2, 7222, Note_on_c, 0, 55, 71
2, 7234, Note_on_c, 0, 76, 69
2, 7253, Note_on_c, 0, 55, 0
2, 7282, Note_on_c, 0, 76, 0
2, 7302, Note_on_c, 0, 75, 74
2, 7374, Note_on_c, 0, 75, 0
2, 7382, Note_on_c, 0, 52, 62
2, 7385, Note_on_c, 0, 76, 67
2, 7422, Note_on_c, 0, 52, 0
2, 7449, Note_on_c, 0, 76, 0
2, 7467, Note_on_c, 0, 75, 75
2, 7536, Note_on_c, 0, 75, 0
2, 7556, Note_on_c, 0, 76, 60
2, 7564, Note_on_c, 0, 47, 65
2, 7604, Note_on_c, 0, 47, 0
2, 7621, Note_on_c, 0, 76, 0
2, 7636, Note_on_c, 0, 75, 68
2, 7709, Note_on_c, 0, 75, 0
2, 7722, Note_on_c, 0, 76, 63
2, 7731, Note_on_c, 0, 52, 60
2, 7771, Note_on_c, 0, 52, 0
2, 7771, Note_on_c, 0, 76, 0
2, 7805, Note_on_c, 0, 71, 71
2, 7892, Note_on_c, 0, 69, 76
2, 7894, Note_on_c, 0, 71, 0
2, 7901, Note_on_c, 0, 55, 61
2, 7930, Note_on_c, 0, 55, 0
2, 7967, Note_on_c, 0, 67, 72
2, 7981, Note_on_c, 0, 69, 0
2, 8049, Note_on_c, 0, 59, 66
2, 8055, Note_on_c, 0, 66, 73
2, 8056, Note_on_c, 0, 67, 0
2, 8089, Note_on_c, 0, 59, 0
2, 8126, Note_on_c, 0, 64, 77
2, 8139, Note_on_c, 0, 66, 0
2, 8222, Note_on_c, 0, 54, 73
2, 8224, Note_on_c, 0, 72, 82
2, 8226, Note_on_c, 0, 69, 70
2, 8297, Note_on_c, 0, 55, 73
2, 8385, Note_on_c, 0, 57, 76
2, 8388, Note_on_c, 0, 54, 0
2, 8395, Note_on_c, 0, 55, 0
2, 8429, Note_on_c, 0, 57, 0
2, 8569, Note_on_c, 0, 60, 73
2, 8601, Note_on_c, 0, 60, 0
2, 8675, Note_on_c, 0, 64, 0
2, 8676, Note_on_c, 0, 69, 0
2, 8728, Note_on_c, 0, 57, 71
2, 8757, Note_on_c, 0, 57, 0
2, 8790, Note_on_c, 0, 72, 0
2, 8809, Note_on_c, 0, 71, 72
2, 8875, Note_on_c, 0, 71, 0
2, 8884, Note_on_c, 0, 54, 70
2, 8894, Note_on_c, 0, 72, 65
2, 8921, Note_on_c, 0, 54, 0
2, 8943, Note_on_c, 0, 72, 0
2, 8980, Note_on_c, 0, 71, 74
2, 9030, Note_on_c, 0, 71, 0
2, 9051, Note_on_c, 0, 51, 71
2, 9051, Note_on_c, 0, 72, 72
2, 9091, Note_on_c, 0, 51, 0
2, 9110, Note_on_c, 0, 72, 0
2, 9129, Note_on_c, 0, 71, 73
2, 9185, Note_on_c, 0, 71, 0
2, 9214, Note_on_c, 0, 54, 66
2, 9222, Note_on_c, 0, 72, 76
2, 9298, Note_on_c, 0, 72, 0
2, 9306, Note_on_c, 0, 54, 0
2, 9332, Note_on_c, 0, 79, 57
2, 9378, Note_on_c, 0, 57, 59
2, 9398, Note_on_c, 0, 78, 74
2, 9427, Note_on_c, 0, 57, 0
2, 9427, Note_on_c, 0, 79, 0
2, 9478, Note_on_c, 0, 76, 72
2, 9510, Control_c, 0, 64, 33
2, 9526, Control_c, 0, 64, 58
2, 9528, Note_on_c, 0, 78, 0
2, 9541, Control_c, 0, 64, 70
2, 9541, Note_on_c, 0, 60, 66
2, 9547, Note_on_c, 0, 75, 78
2, 9554, Note_on_c, 0, 76, 0
2, 9556, Control_c, 0, 64, 87
2, 9571, Control_c, 0, 64, 127
2, 9581, Note_on_c, 0, 75, 0
2, 9609, Note_on_c, 0, 60, 0
2, 9637, Note_on_c, 0, 76, 75
2, 9677, Note_on_c, 0, 76, 0
2, 9710, Note_on_c, 0, 69, 42
2, 9722, Note_on_c, 0, 57, 81
2, 9746, Control_c, 0, 64, 102
2, 9749, Note_on_c, 0, 75, 89
2, 9752, Note_on_c, 0, 69, 0
2, 9752, Note_on_c, 0, 69, 28
2, 9762, Control_c, 0, 64, 81
2, 9763, Note_on_c, 0, 66, 79
2, 9768, Note_on_c, 0, 72, 65
2, 9776, Control_c, 0, 64, 68
2, 9792, Control_c, 0, 64, 55
2, 9807, Control_c, 0, 64, 20
2, 9822, Control_c, 0, 64, 0
2, 9835, Note_on_c, 0, 59, 75
2, 9850, Note_on_c, 0, 57, 0
2, 9917, Note_on_c, 0, 60, 76
2, 9923, Note_on_c, 0, 59, 0
2, 9972, Note_on_c, 0, 60, 0
2, 10085, Note_on_c, 0, 63, 72
2, 10112, Note_on_c, 0, 63, 0
2, 10132, Note_on_c, 0, 66, 0
2, 10190, Note_on_c, 0, 69, 0
2, 10211, Note_on_c, 0, 72, 0
2, 10233, Note_on_c, 0, 60, 78
2, 10251, Note_on_c, 0, 75, 0
2, 10280, Note_on_c, 0, 60, 0
2, 10318, Note_on_c, 0, 76, 72
2, 10376, Note_on_c, 0, 76, 0
2, 10393, Note_on_c, 0, 78, 70
2, 10396, Note_on_c, 0, 57, 65
2, 10437, Note_on_c, 0, 57, 0
2, 10464, Note_on_c, 0, 78, 0
2, 10474, Note_on_c, 0, 76, 66
2, 10535, Note_on_c, 0, 76, 0
2, 10559, Note_on_c, 0, 78, 70
2, 10560, Note_on_c, 0, 54, 71
2, 10629, Note_on_c, 0, 54, 0
2, 10639, Note_on_c, 0, 76, 75
2, 10639, Note_on_c, 0, 78, 0
2, 10707, Note_on_c, 0, 76, 0
2, 10722, Note_on_c, 0, 78, 77
2, 10725, Note_on_c, 0, 57, 74
2, 10764, Note_on_c, 0, 57, 0
2, 10798, Note_on_c, 0, 76, 77
2, 10838, Note_on_c, 0, 78, 0
2, 10884, Note_on_c, 0, 75, 82
2, 10888, Note_on_c, 0, 60, 82
2, 10894, Note_on_c, 0, 76, 0
2, 10943, Note_on_c, 0, 60, 0
2, 10963, Note_on_c, 0, 78, 81
2, 10967, Note_on_c, 0, 75, 0
2, 11041, Note_on_c, 0, 78, 0
2, 11050, Note_on_c, 0, 63, 81
2, 11051, Note_on_c, 0, 71, 74
2, 11106, Note_on_c, 0, 63, 0
2, 11121, Note_on_c, 0, 71, 0
2, 11131, Note_on_c, 0, 69, 79
2, 11169, Note_on_c, 0, 69, 0
2, 11229, Note_on_c, 0, 67, 72
2, 11234, Note_on_c, 0, 64, 62
2, 11408, Note_on_c, 0, 64, 0
2, 11430, Note_on_c, 0, 52, 62
2, 11512, Note_on_c, 0, 54, 71
2, 11538, Note_on_c, 0, 52, 0
2, 11579, Note_on_c, 0, 55, 68
2, 11620, Note_on_c, 0, 54, 0
2, 11655, Note_on_c, 0, 57, 76
2, 11673, Note_on_c, 0, 55, 0
2, 11746, Note_on_c, 0, 57, 0
2, 11746, Note_on_c, 0, 59, 78
2, 11923, Note_on_c, 0, 64, 75
2, 11941, Note_on_c, 0, 67, 0
2, 11947, Note_on_c, 0, 59, 0
2, 11947, Note_on_c, 0, 64, 0
2, 12095, Note_on_c, 0, 67, 73
2, 12122, Note_on_c, 0, 67, 0
2, 12255, Note_on_c, 0, 71, 79
2, 12281, Note_on_c, 0, 71, 0
2, 12421, Note_on_c, 0, 76, 72
2, 12468, Note_on_c, 0, 76, 0
2, 12577, Note_on_c, 0, 70, 75
2, 12610, Note_on_c, 0, 70, 0
2, 12742, Note_on_c, 0, 79, 76
2, 12753, Note_on_c, 0, 76, 71
2, 12756, Note_on_c, 0, 71, 71
2, 12768, Note_on_c, 0, 64, 65
2, 12845, Note_on_c, 0, 66, 77
2, 12868, Note_on_c, 0, 64, 0
2, 12927, Note_on_c, 0, 67, 75
2, 12934, Note_on_c, 0, 66, 0
2, 12960, Note_on_c, 0, 67, 0
2, 12960, Note_on_c, 0, 71, 0
2, 13094, Note_on_c, 0, 71, 67
2, 13128, Note_on_c, 0, 71, 0
2, 13255, Note_on_c, 0, 67, 68
2, 13286, Note_on_c, 0, 67, 0
2, 13303, Note_on_c, 0, 76, 0
2, 13324, Note_on_c, 0, 79, 0
2, 13330, Note_on_c, 0, 78, 65
2, 13401, Note_on_c, 0, 78, 0
2, 13406, Note_on_c, 0, 79, 67
2, 13418, Note_on_c, 0, 64, 60
2, 13449, Note_on_c, 0, 64, 0
2, 13482, Note_on_c, 0, 78, 68
2, 13483, Note_on_c, 0, 79, 0
2, 13558, Note_on_c, 0, 78, 0
2, 13565, Note_on_c, 0, 79, 68
2, 13581, Note_on_c, 0, 59, 68
2, 13628, Note_on_c, 0, 59, 0
2, 13656, Note_on_c, 0, 78, 79
2, 13672, Note_on_c, 0, 79, 0
2, 13733, Note_on_c, 0, 79, 74
2, 13742, Note_on_c, 0, 78, 0
2, 13743, Note_on_c, 0, 61, 73
2, 13811, Note_on_c, 0, 61, 0
2, 13818, Note_on_c, 0, 77, 83
2, 13849, Note_on_c, 0, 79, 0
2, 13899, Note_on_c, 0, 64, 72
2, 13899, Note_on_c, 0, 76, 79
2, 13910, Note_on_c, 0, 77, 0
2, 13952, Note_on_c, 0, 64, 0
2, 13967, Note_on_c, 0, 76, 0
2, 13984, Note_on_c, 0, 74, 69
2, 14060, Note_on_c, 0, 73, 76
2, 14060, Note_on_c, 0, 74, 0
2, 14063, Note_on_c, 0, 69, 65
2, 14103, Note_on_c, 0, 69, 0
2, 14133, Note_on_c, 0, 71, 82
2, 14136, Note_on_c, 0, 73, 0
2, 14182, Note_on_c, 0, 71, 0
2, 14229, Note_on_c, 0, 77, 83
2, 14232, Note_on_c, 0, 62, 68
2, 14236, Note_on_c, 0, 69, 77
2, 14241, Note_on_c, 0, 74, 67
2, 14313, Note_on_c, 0, 64, 71
2, 14354, Note_on_c, 0, 62, 0
2, 14407, Note_on_c, 0, 65, 71
2, 14412, Note_on_c, 0, 64, 0
2, 14461, Note_on_c, 0, 65, 0
2, 14467, Note_on_c, 0, 69, 0
2, 14584, Note_on_c, 0, 69, 71
2, 14613, Note_on_c, 0, 69, 0
2, 14742, Note_on_c, 0, 65, 68
2, 14778, Note_on_c, 0, 65, 0
2, 14787, Note_on_c, 0, 74, 0
2, 14800, Note_on_c, 0, 77, 0
2, 14809, Note_on_c, 0, 76, 63
2, 14872, Note_on_c, 0, 76, 0
2, 14886, Note_on_c, 0, 77, 71
2, 14901, Note_on_c, 0, 62, 62
2, 14934, Note_on_c, 0, 62, 0
2, 14956, Note_on_c, 0, 77, 0
2, 14970, Note_on_c, 0, 76, 65
2, 15023, Note_on_c, 0, 76, 0
2, 15042, Note_on_c, 0, 77, 63
2, 15057, Note_on_c, 0, 57, 60
2, 15117, Note_on_c, 0, 57, 0
2, 15125, Note_on_c, 0, 77, 0
2, 15134, Note_on_c, 0, 76, 68
2, 15198, Note_on_c, 0, 76, 0
2, 15216, Note_on_c, 0, 77, 69
2, 15228, Note_on_c, 0, 59, 65
2, 15268, Note_on_c, 0, 59, 0
2, 15295, Note_on_c, 0, 77, 0
2, 15298, Note_on_c, 0, 76, 67
2, 15378, Note_on_c, 0, 76, 0
2, 15384, Note_on_c, 0, 74, 66
2, 15390, Note_on_c, 0, 62, 63
2, 15423, Note_on_c, 0, 62, 0
2, 15445, Note_on_c, 0, 74, 0
2, 15467, Note_on_c, 0, 72, 64
2, 15537, Note_on_c, 0, 72, 0
2, 15543, Note_on_c, 0, 71, 71
2, 15546, Note_on_c, 0, 67, 65
2, 15584, Note_on_c, 0, 67, 0
2, 15611, Note_on_c, 0, 71, 0
2, 15622, Control_c, 0, 64, 39
2, 15622, Note_on_c, 0, 69, 74
2, 15638, Control_c, 0, 64, 56
2, 15653, Control_c, 0, 64, 64
2, 15661, Note_on_c, 0, 69, 0
2, 15668, Control_c, 0, 64, 67
2, 15684, Control_c, 0, 64, 69
2, 15699, Control_c, 0, 64, 69
2, 15707, Note_on_c, 0, 60, 71
2, 15715, Control_c, 0, 64, 66
2, 15717, Note_on_c, 0, 76, 80
2, 15726, Note_on_c, 0, 72, 70
2, 15728, Note_on_c, 0, 67, 65
2, 15730, Control_c, 0, 64, 62
2, 15744, Control_c, 0, 64, 48
2, 15760, Control_c, 0, 64, 21
2, 15775, Control_c, 0, 64, 0
2, 15798, Note_on_c, 0, 62, 71
2, 15818, Note_on_c, 0, 60, 0
2, 15887, Note_on_c, 0, 64, 64
2, 15890, Note_on_c, 0, 62, 0
2, 15919, Note_on_c, 0, 64, 0
2, 15937, Note_on_c, 0, 67, 0
2, 16050, Note_on_c, 0, 67, 67
2, 16079, Note_on_c, 0, 67, 0
2, 16153, Note_on_c, 0, 72, 0
2, 16209, Note_on_c, 0, 64, 58
2, 16237, Note_on_c, 0, 64, 0
2, 16249, Note_on_c, 0, 76, 0
2, 16277, Note_on_c, 0, 74, 70
2, 16333, Note_on_c, 0, 74, 0
2, 16365, Note_on_c, 0, 76, 61
2, 16368, Note_on_c, 0, 60, 60
2, 16399, Note_on_c, 0, 60, 0
2, 16413, Note_on_c, 0, 76, 0
2, 16445, Note_on_c, 0, 74, 63
2, 16490, Note_on_c, 0, 74, 0
2, 16535, Note_on_c, 0, 76, 55
2, 16537, Note_on_c, 0, 55, 58
2, 16581, Note_on_c, 0, 55, 0
2, 16586, Note_on_c, 0, 76, 0
2, 16609, Note_on_c, 0, 74, 64
2, 16677, Note_on_c, 0, 74, 0
2, 16709, Note_on_c, 0, 72, 61
2, 16720, Note_on_c, 0, 57, 69
2, 16762, Note_on_c, 0, 57, 0
2, 16768, Note_on_c, 0, 72, 0
2, 16787, Note_on_c, 0, 79, 66
2, 16863, Note_on_c, 0, 79, 0
2, 16878, Note_on_c, 0, 77, 71
2, 16892, Note_on_c, 0, 60, 72
2, 16928, Note_on_c, 0, 60, 0
2, 16956, Note_on_c, 0, 76, 65
2, 16965, Note_on_c, 0, 77, 0
2, 17050, Note_on_c, 0, 76, 0
2, 17056, Note_on_c, 0, 74, 68
2, 17062, Note_on_c, 0, 65, 72
2, 17101, Note_on_c, 0, 65, 0
2, 17120, Note_on_c, 0, 74, 0
2, 17141, Note_on_c, 0, 72, 68
2, 17226, Note_on_c, 0, 71, 69
2, 17229, Note_on_c, 0, 72, 0
2, 17234, Note_on_c, 0, 55, 71
2, 17289, Note_on_c, 0, 55, 0
2, 17297, Note_on_c, 0, 71, 0
2, 17302, Note_on_c, 0, 76, 67
2, 17389, Note_on_c, 0, 74, 74
2, 17398, Note_on_c, 0, 76, 0
2, 17401, Note_on_c, 0, 59, 73
2, 17448, Note_on_c, 0, 59, 0
2, 17484, Note_on_c, 0, 72, 77
2, 17509, Note_on_c, 0, 74, 0
2, 17575, Note_on_c, 0, 71, 79
2, 17576, Note_on_c, 0, 62, 73
2, 17580, Note_on_c, 0, 72, 0
2, 17609, Note_on_c, 0, 62, 0
2, 17646, Note_on_c, 0, 71, 0
2, 17662, Note_on_c, 0, 69, 71
2, 17740, Note_on_c, 0, 65, 80
2, 17745, Note_on_c, 0, 67, 79
2, 17753, Note_on_c, 0, 69, 0
2, 17789, Note_on_c, 0, 65, 0
2, 17813, Note_on_c, 0, 67, 0
2, 17823, Note_on_c, 0, 72, 69
2, 17906, Note_on_c, 0, 71, 76
2, 17907, Note_on_c, 0, 72, 0
2, 17913, Note_on_c, 0, 62, 69
2, 17948, Note_on_c, 0, 62, 0
2, 17995, Note_on_c, 0, 69, 73
2, 18021, Note_on_c, 0, 71, 0
2, 18082, Note_on_c, 0, 59, 68
2, 18084, Note_on_c, 0, 69, 0
2, 18087, Note_on_c, 0, 67, 75
2, 18121, Note_on_c, 0, 59, 0
2, 18150, Note_on_c, 0, 67, 0
2, 18167, Note_on_c, 0, 65, 70
2, 18263, Note_on_c, 0, 64, 74
2, 18264, Note_on_c, 0, 65, 0
2, 18265, Note_on_c, 0, 55, 73
2, 18299, Note_on_c, 0, 55, 0
2, 18331, Note_on_c, 0, 64, 0
2, 18338, Note_on_c, 0, 69, 79
2, 18426, Note_on_c, 0, 67, 78
2, 18432, Note_on_c, 0, 69, 0
2, 18434, Note_on_c, 0, 59, 73
2, 18463, Note_on_c, 0, 59, 0
2, 18512, Note_on_c, 0, 65, 74
2, 18530, Note_on_c, 0, 67, 0
2, 18595, Note_on_c, 0, 55, 73
2, 18604, Note_on_c, 0, 64, 78
2, 18604, Note_on_c, 0, 65, 0
2, 18624, Note_on_c, 0, 55, 0
2, 18668, Note_on_c, 0, 64, 0
2, 18686, Note_on_c, 0, 62, 79
2, 18694, Control_c, 0, 64, 24
2, 18709, Control_c, 0, 64, 55
2, 18725, Control_c, 0, 64, 65
2, 18734, Note_on_c, 0, 62, 0
2, 18739, Control_c, 0, 64, 72
2, 18753, Note_on_c, 0, 60, 66
2, 18755, Control_c, 0, 64, 88
2, 18770, Control_c, 0, 64, 127
2, 18770, Note_on_c, 0, 64, 75
2, 18788, Note_on_c, 0, 59, 90
2, 18794, Note_on_c, 0, 60, 0
2, 18801, Control_c, 0, 64, 91
2, 18807, Note_on_c, 0, 64, 0
2, 18815, Control_c, 0, 64, 68
2, 18830, Control_c, 0, 64, 43
2, 18846, Control_c, 0, 64, 0
2, 18857, Note_on_c, 0, 65, 83
2, 18858, Note_on_c, 0, 59, 0
2, 18877, Note_on_c, 0, 60, 85
2, 18918, Note_on_c, 0, 65, 0
2, 18944, Note_on_c, 0, 67, 85
2, 18987, Note_on_c, 0, 67, 0
2, 19118, Note_on_c, 0, 72, 81
2, 19150, Note_on_c, 0, 72, 0
2, 19287, Note_on_c, 0, 67, 81
2, 19319, Note_on_c, 0, 60, 0
2, 19322, Note_on_c, 0, 67, 0
2, 19347, Note_on_c, 0, 57, 68
2, 19419, Note_on_c, 0, 57, 0
2, 19444, Note_on_c, 0, 64, 83
2, 19446, Note_on_c, 0, 55, 71
2, 19487, Note_on_c, 0, 64, 0
2, 19508, Note_on_c, 0, 55, 0
2, 19517, Note_on_c, 0, 53, 74
2, 19603, Note_on_c, 0, 60, 84
2, 19612, Note_on_c, 0, 52, 68
2, 19636, Note_on_c, 0, 53, 0
2, 19641, Note_on_c, 0, 60, 0
2, 19685, Note_on_c, 0, 52, 0
2, 19689, Note_on_c, 0, 50, 66
2, 19783, Note_on_c, 0, 50, 0
2, 19789, Note_on_c, 0, 48, 68
2, 19793, Note_on_c, 0, 64, 76
2, 19847, Note_on_c, 0, 64, 0
2, 19859, Note_on_c, 0, 50, 59
2, 19945, Note_on_c, 0, 52, 67
2, 19957, Note_on_c, 0, 67, 82
2, 19995, Note_on_c, 0, 50, 0
2, 20004, Note_on_c, 0, 67, 0
2, 20032, Note_on_c, 0, 53, 71
2, 20067, Note_on_c, 0, 52, 0
2, 20123, Note_on_c, 0, 55, 75
2, 20123, Note_on_c, 0, 72, 86
2, 20126, Note_on_c, 0, 53, 0
2, 20163, Note_on_c, 0, 72, 0
2, 20200, Note_on_c, 0, 52, 77
2, 20200, Note_on_c, 0, 55, 0
2, 20283, Note_on_c, 0, 65, 81
2, 20296, Note_on_c, 0, 57, 77
2, 20302, Note_on_c, 0, 52, 0
2, 20327, Note_on_c, 0, 65, 0
2, 20362, Note_on_c, 0, 67, 84
2, 20418, Note_on_c, 0, 67, 0
2, 20447, Note_on_c, 0, 69, 85
2, 20494, Note_on_c, 0, 69, 0
2, 20621, Note_on_c, 0, 72, 79
2, 20648, Note_on_c, 0, 72, 0
2, 20748, Note_on_c, 0, 48, 0
2, 20780, Note_on_c, 0, 69, 83
2, 20806, Note_on_c, 0, 57, 0
2, 20822, Note_on_c, 0, 69, 0
2, 20872, Note_on_c, 0, 48, 67
2, 20942, Note_on_c, 0, 50, 68
2, 20947, Note_on_c, 0, 65, 77
2, 21003, Note_on_c, 0, 65, 0
2, 21020, Note_on_c, 0, 52, 68
2, 21061, Note_on_c, 0, 50, 0
2, 21097, Note_on_c, 0, 53, 73
2, 21120, Note_on_c, 0, 52, 0
2, 21121, Note_on_c, 0, 60, 86
2, 21159, Note_on_c, 0, 60, 0
2, 21171, Note_on_c, 0, 53, 0
2, 21186, Note_on_c, 0, 55, 72
2, 21269, Note_on_c, 0, 55, 0
2, 21269, Note_on_c, 0, 57, 75
2, 21295, Note_on_c, 0, 65, 83
2, 21332, Note_on_c, 0, 57, 0
2, 21345, Note_on_c, 0, 65, 0
2, 21363, Note_on_c, 0, 55, 75
2, 21434, Note_on_c, 0, 55, 0
2, 21444, Note_on_c, 0, 53, 74
2, 21459, Note_on_c, 0, 69, 88
2, 21501, Note_on_c, 0, 69, 0
2, 21524, Note_on_c, 0, 52, 74
2, 21527, Note_on_c, 0, 48, 0
2, 21549, Note_on_c, 0, 53, 0
2, 21613, Note_on_c, 0, 50, 72
2, 21627, Note_on_c, 0, 72, 88
2, 21654, Note_on_c, 0, 52, 0
2, 21666, Note_on_c, 0, 72, 0
2, 21689, Note_on_c, 0, 48, 69
2, 21703, Note_on_c, 0, 50, 0
2, 21788, Note_on_c, 0, 50, 70
2, 21793, Note_on_c, 0, 71, 84
2, 21848, Note_on_c, 0, 71, 0
2, 21865, Note_on_c, 0, 72, 83
2, 21943, Note_on_c, 0, 72, 0
2, 21947, Note_on_c, 0, 74, 87
2, 21984, Note_on_c, 0, 74, 0
2, 22130, Note_on_c, 0, 77, 88
2, 22168, Note_on_c, 0, 77, 0
2, 22302, Note_on_c, 0, 47, 59
2, 22308, Note_on_c, 0, 74, 77
2, 22309, Note_on_c, 0, 50, 0
2, 22329, Note_on_c, 0, 48, 0
2, 22352, Note_on_c, 0, 74, 0
2, 22393, Note_on_c, 0, 52, 63
2, 22396, Note_on_c, 0, 47, 0
2, 22473, Note_on_c, 0, 52, 0
2, 22482, Note_on_c, 0, 71, 82
2, 22489, Note_on_c, 0, 50, 67
2, 22533, Note_on_c, 0, 71, 0
2, 22553, Note_on_c, 0, 50, 0
2, 22567, Note_on_c, 0, 48, 68
2, 22643, Note_on_c, 0, 47, 57
2, 22664, Note_on_c, 0, 67, 91
2, 22666, Note_on_c, 0, 48, 0
2, 22719, Note_on_c, 0, 67, 0
2, 22737, Note_on_c, 0, 45, 70
2, 22756, Note_on_c, 0, 47, 0
2, 22837, Note_on_c, 0, 43, 71
2, 22841, Note_on_c, 0, 45, 0
2, 22847, Note_on_c, 0, 71, 91
2, 22898, Note_on_c, 0, 71, 0
2, 22928, Note_on_c, 0, 45, 74
2, 22934, Note_on_c, 0, 43, 0
2, 23007, Note_on_c, 0, 45, 0
2, 23009, Note_on_c, 0, 74, 90
2, 23019, Note_on_c, 0, 43, 77
2, 23046, Note_on_c, 0, 74, 0
2, 23089, Note_on_c, 0, 43, 0
2, 23091, Note_on_c, 0, 41, 84
2, 23181, Note_on_c, 0, 40, 78
2, 23186, Note_on_c, 0, 41, 0
2, 23196, Note_on_c, 0, 77, 96
2, 23250, Note_on_c, 0, 40, 0
2, 23253, Note_on_c, 0, 38, 72
2, 23277, Note_on_c, 0, 77, 0
2, 23367, Note_on_c, 0, 36, 69
2, 23369, Note_on_c, 0, 76, 83
2, 23370, Note_on_c, 0, 38, 0
2, 23454, Note_on_c, 0, 74, 84
2, 23539, Note_on_c, 0, 72, 82
2, 23566, Note_on_c, 0, 74, 0
2, 23588, Note_on_c, 0, 36, 0
2, 23632, Note_on_c, 0, 71, 73
2, 23632, Note_on_c, 0, 72, 0
2, 23709, Note_on_c, 0, 71, 0
2, 23717, Note_on_c, 0, 72, 74
2, 23808, Note_on_c, 0, 67, 75
2, 23874, Note_on_c, 0, 64, 67
2, 23950, Note_on_c, 0, 64, 0
2, 23957, Note_on_c, 0, 62, 68
2, 24037, Note_on_c, 0, 62, 0
2, 24047, Note_on_c, 0, 60, 67
2, 24116, Note_on_c, 0, 60, 0
2, 24122, Note_on_c, 0, 59, 71
2, 24180, Note_on_c, 0, 59, 0
2, 24214, Note_on_c, 0, 60, 67
2, 24262, Note_on_c, 0, 60, 0
2, 24298, Note_on_c, 0, 55, 71
2, 24374, Note_on_c, 0, 55, 0
2, 24384, Note_on_c, 0, 52, 65
2, 24446, Note_on_c, 0, 52, 0
2, 24465, Note_on_c, 0, 55, 69
2, 24534, Note_on_c, 0, 55, 0
2, 24539, Note_on_c, 0, 53, 68
2, 24565, Note_on_c, 0, 72, 0
2, 24595, Note_on_c, 0, 76, 0
2, 24624, Note_on_c, 0, 53, 0
2, 24626, Note_on_c, 0, 52, 68
2, 24691, Note_on_c, 0, 50, 58
2, 24698, Note_on_c, 0, 52, 0
2, 24757, Note_on_c, 0, 50, 0
2, 24767, Note_on_c, 0, 67, 0
2, 24770, Note_on_c, 0, 48, 61
2, 24855, Note_on_c, 0, 75, 68
2, 24863, Note_on_c, 0, 54, 66
2, 24865, Note_on_c, 0, 48, 0
2, 24896, Note_on_c, 0, 54, 0
2, 24944, Note_on_c, 0, 69, 63
2, 25001, Note_on_c, 0, 69, 0
2, 25033, Note_on_c, 0, 70, 57
2, 25036, Note_on_c, 0, 54, 54
2, 25070, Note_on_c, 0, 54, 0
2, 25087, Note_on_c, 0, 70, 0
2, 25117, Note_on_c, 0, 72, 65
2, 25120, Control_c, 0, 67, 8
2, 25135, Control_c, 0, 67, 16
2, 25150, Control_c, 0, 67, 22
2, 25166, Control_c, 0, 67, 24
2, 25196, Control_c, 0, 67, 23
2, 25211, Control_c, 0, 67, 21
2, 25211, Note_on_c, 0, 54, 53
2, 25212, Note_on_c, 0, 70, 59
2, 25216, Note_on_c, 0, 72, 0
2, 25225, Control_c, 0, 67, 19
2, 25241, Control_c, 0, 67, 18
2, 25256, Control_c, 0, 67, 16
2, 25259, Note_on_c, 0, 54, 0
2, 25269, Note_on_c, 0, 70, 0
2, 25272, Control_c, 0, 67, 15
2, 25292, Note_on_c, 0, 69, 58
2, 25332, Control_c, 0, 67, 14
2, 25363, Note_on_c, 0, 69, 0
2, 25378, Control_c, 0, 67, 15
2, 25381, Note_on_c, 0, 54, 60
2, 25384, Note_on_c, 0, 74, 67
2, 25415, Note_on_c, 0, 75, 0
2, 25423, Note_on_c, 0, 54, 0
2, 25474, Note_on_c, 0, 69, 63
2, 25500, Control_c, 0, 67, 14
2, 25516, Control_c, 0, 67, 14
2, 25524, Note_on_c, 0, 69, 0
2, 25531, Control_c, 0, 67, 13
2, 25546, Control_c, 0, 67, 13
2, 25562, Control_c, 0, 67, 12
2, 25562, Note_on_c, 0, 70, 62
2, 25571, Note_on_c, 0, 54, 54
2, 25577, Control_c, 0, 67, 11
2, 25593, Control_c, 0, 67, 9
2, 25607, Note_on_c, 0, 54, 0
2, 25608, Control_c, 0, 67, 9
2, 25621, Note_on_c, 0, 70, 0
2, 25639, Control_c, 0, 67, 8
2, 25645, Note_on_c, 0, 72, 67
2, 25684, Control_c, 0, 67, 8
2, 25719, Note_on_c, 0, 74, 0
2, 25734, Note_on_c, 0, 72, 0
2, 25736, Note_on_c, 0, 70, 75
2, 25744, Note_on_c, 0, 54, 58
2, 25785, Note_on_c, 0, 54, 0
2, 25801, Note_on_c, 0, 70, 0
2, 25819, Note_on_c, 0, 69, 74
2, 25851, Control_c, 0, 67, 0
2, 25907, Note_on_c, 0, 69, 0
2, 25920, Note_on_c, 0, 54, 60
2, 25927, Note_on_c, 0, 81, 75
2, 25962, Note_on_c, 0, 54, 0
2, 25975, Note_on_c, 0, 81, 0
2, 26020, Note_on_c, 0, 69, 69
2, 26079, Note_on_c, 0, 69, 0
2, 26085, Note_on_c, 0, 70, 70
2, 26092, Note_on_c, 0, 54, 56
2, 26130, Note_on_c, 0, 54, 0
2, 26158, Note_on_c, 0, 70, 0
2, 26176, Note_on_c, 0, 72, 72
2, 26249, Note_on_c, 0, 54, 57
2, 26251, Note_on_c, 0, 72, 0
2, 26262, Note_on_c, 0, 70, 69
2, 26293, Note_on_c, 0, 54, 0
2, 26322, Note_on_c, 0, 70, 0
2, 26342, Note_on_c, 0, 69, 69
2, 26417, Note_on_c, 0, 55, 58
2, 26418, Note_on_c, 0, 69, 0
2, 26433, Note_on_c, 0, 70, 70
2, 26503, Note_on_c, 0, 69, 64
2, 26580, Note_on_c, 0, 69, 0
2, 26583, Note_on_c, 0, 67, 70
2, 26676, Note_on_c, 0, 67, 0
2, 26682, Note_on_c, 0, 66, 70
2, 26764, Note_on_c, 0, 66, 0
2, 26772, Note_on_c, 0, 67, 69
2, 26783, Note_on_c, 0, 55, 0
2, 26848, Note_on_c, 0, 62, 67
2, 26955, Note_on_c, 0, 58, 66
2, 27020, Note_on_c, 0, 58, 0
2, 27042, Note_on_c, 0, 57, 68
2, 27113, Note_on_c, 0, 57, 0
2, 27122, Note_on_c, 0, 55, 71
2, 27207, Note_on_c, 0, 55, 0
2, 27208, Note_on_c, 0, 54, 76
2, 27278, Note_on_c, 0, 54, 0
2, 27293, Note_on_c, 0, 55, 70
2, 27347, Note_on_c, 0, 55, 0
2, 27375, Note_on_c, 0, 50, 70
2, 27454, Note_on_c, 0, 50, 0
2, 27466, Note_on_c, 0, 46, 64
2, 27546, Note_on_c, 0, 46, 0
2, 27548, Note_on_c, 0, 50, 71
2, 27613, Note_on_c, 0, 70, 0
2, 27618, Note_on_c, 0, 67, 0
2, 27629, Note_on_c, 0, 50, 0
2, 27640, Note_on_c, 0, 48, 69
2, 27695, Note_on_c, 0, 62, 0
2, 27719, Note_on_c, 0, 46, 66
2, 27719, Note_on_c, 0, 48, 0
2, 27798, Note_on_c, 0, 46, 0
2, 27800, Note_on_c, 0, 45, 60
2, 27875, Note_on_c, 0, 45, 0
2, 27887, Note_on_c, 0, 43, 64
2, 27977, Note_on_c, 0, 70, 56
2, 27985, Note_on_c, 0, 43, 0
2, 28056, Note_on_c, 0, 64, 52
2, 28078, Control_c, 0, 67, 16
2, 28093, Control_c, 0, 67, 25
2, 28101, Note_on_c, 0, 64, 0
2, 28108, Control_c, 0, 67, 43
2, 28123, Control_c, 0, 67, 61
2, 28138, Control_c, 0, 67, 77
2, 28147, Note_on_c, 0, 65, 51
2, 28154, Control_c, 0, 67, 88
2, 28173, Note_on_c, 0, 49, 48
2, 28176, Control_c, 0, 67, 100
2, 28192, Control_c, 0, 67, 113
2, 28198, Note_on_c, 0, 65, 0
2, 28204, Note_on_c, 0, 49, 0
2, 28207, Control_c, 0, 67, 127
2, 28240, Note_on_c, 0, 67, 54
2, 28322, Note_on_c, 0, 65, 52
2, 28322, Note_on_c, 0, 67, 0
2, 28332, Note_on_c, 0, 49, 36
2, 28371, Note_on_c, 0, 65, 0
2, 28374, Note_on_c, 0, 49, 0
2, 28405, Note_on_c, 0, 64, 52
2, 28453, Note_on_c, 0, 64, 0
2, 28487, Note_on_c, 0, 49, 49
2, 28488, Note_on_c, 0, 69, 64
2, 28523, Note_on_c, 0, 70, 0
2, 28526, Note_on_c, 0, 49, 0
2, 28567, Note_on_c, 0, 64, 57
2, 28608, Note_on_c, 0, 64, 0
2, 28653, Note_on_c, 0, 49, 43
2, 28660, Note_on_c, 0, 65, 52
2, 28695, Note_on_c, 0, 49, 0
2, 28701, Note_on_c, 0, 65, 0
2, 28738, Note_on_c, 0, 67, 60
2, 28811, Note_on_c, 0, 69, 0
2, 28817, Note_on_c, 0, 67, 0
2, 28826, Note_on_c, 0, 65, 57
2, 28830, Note_on_c, 0, 49, 45
2, 28867, Note_on_c, 0, 65, 0
2, 28868, Note_on_c, 0, 49, 0
2, 28888, Note_on_c, 0, 64, 62
2, 28966, Note_on_c, 0, 64, 0
2, 28994, Note_on_c, 0, 49, 47
2, 29000, Note_on_c, 0, 76, 70
2, 29036, Note_on_c, 0, 49, 0
2, 29041, Note_on_c, 0, 76, 0
2, 29086, Note_on_c, 0, 64, 53
2, 29130, Note_on_c, 0, 64, 0
2, 29161, Note_on_c, 0, 49, 49
2, 29164, Note_on_c, 0, 65, 54
2, 29204, Note_on_c, 0, 49, 0
2, 29218, Note_on_c, 0, 65, 0
2, 29237, Note_on_c, 0, 67, 64
2, 29326, Note_on_c, 0, 67, 0
2, 29329, Note_on_c, 0, 49, 53
2, 29340, Note_on_c, 0, 65, 65
2, 29362, Note_on_c, 0, 49, 0
2, 29382, Note_on_c, 0, 65, 0
2, 29411, Note_on_c, 0, 64, 67
2, 29456, Note_on_c, 0, 64, 0
2, 29504, Note_on_c, 0, 65, 78
2, 29515, Note_on_c, 0, 50, 65
2, 29567, Control_c, 0, 67, 126
2, 29582, Control_c, 0, 67, 119
2, 29584, Note_on_c, 0, 52, 65
2, 29598, Control_c, 0, 67, 102
2, 29613, Control_c, 0, 67, 73
2, 29628, Control_c, 0, 67, 33
2, 29644, Control_c, 0, 67, 0
2, 29646, Note_on_c, 0, 50, 0
2, 29675, Note_on_c, 0, 53, 70
2, 29694, Note_on_c, 0, 52, 0
2, 29729, Note_on_c, 0, 53, 0
2, 29863, Note_on_c, 0, 57, 65
2, 29892, Note_on_c, 0, 57, 0
2, 30022, Note_on_c, 0, 53, 70
2, 30055, Note_on_c, 0, 53, 0
2, 30081, Note_on_c, 0, 65, 0
2, 30098, Note_on_c, 0, 64, 64
2, 30150, Note_on_c, 0, 64, 0
2, 30186, Note_on_c, 0, 65, 73
2, 30190, Note_on_c, 0, 50, 65
2, 30224, Note_on_c, 0, 50, 0
2, 30252, Note_on_c, 0, 65, 0
2, 30258, Note_on_c, 0, 69, 72
2, 30330, Note_on_c, 0, 69, 0
2, 30349, Note_on_c, 0, 74, 72
2, 30358, Note_on_c, 0, 45, 70
2, 30378, Note_on_c, 0, 74, 0
2, 30416, Note_on_c, 0, 45, 0
2, 30428, Note_on_c, 0, 69, 73
2, 30507, Note_on_c, 0, 69, 0
2, 30527, Note_on_c, 0, 77, 84
2, 30530, Note_on_c, 0, 50, 70
2, 30578, Note_on_c, 0, 50, 0
2, 30607, Note_on_c, 0, 76, 82
2, 30638, Note_on_c, 0, 77, 0
2, 30700, Note_on_c, 0, 76, 0
2, 30704, Note_on_c, 0, 74, 80
2, 30707, Note_on_c, 0, 53, 68
2, 30744, Note_on_c, 0, 53, 0
2, 30771, Note_on_c, 0, 74, 0
2, 30783, Note_on_c, 0, 72, 76
2, 30859, Note_on_c, 0, 57, 66
2, 30866, Note_on_c, 0, 72, 0
2, 30868, Note_on_c, 0, 71, 78
2, 30891, Control_c, 0, 64, 13
2, 30906, Control_c, 0, 64, 47
2, 30916, Note_on_c, 0, 71, 0
2, 30922, Control_c, 0, 64, 60
2, 30931, Note_on_c, 0, 57, 0
2, 30936, Control_c, 0, 64, 67
2, 30949, Note_on_c, 0, 69, 80
2, 30952, Control_c, 0, 64, 73
2, 30967, Control_c, 0, 64, 86
2, 30981, Control_c, 0, 64, 112
2, 30997, Control_c, 0, 64, 127
2, 31029, Note_on_c, 0, 50, 79
2, 31047, Note_on_c, 0, 80, 90
2, 31077, Note_on_c, 0, 69, 0
2, 31088, Control_c, 0, 64, 91
2, 31101, Note_on_c, 0, 52, 72
2, 31103, Control_c, 0, 64, 72
2, 31119, Control_c, 0, 64, 58
2, 31133, Control_c, 0, 64, 27
2, 31148, Control_c, 0, 64, 12
2, 31171, Note_on_c, 0, 50, 0
2, 31179, Control_c, 0, 64, 11
2, 31181, Note_on_c, 0, 53, 80
2, 31194, Control_c, 0, 64, 0
2, 31206, Note_on_c, 0, 52, 0
2, 31262, Note_on_c, 0, 53, 0
2, 31372, Note_on_c, 0, 56, 72
2, 31406, Note_on_c, 0, 56, 0
2, 31535, Note_on_c, 0, 53, 75
2, 31594, Note_on_c, 0, 53, 0
2, 31621, Note_on_c, 0, 80, 0
2, 31621, Note_on_c, 0, 81, 78
2, 31699, Note_on_c, 0, 50, 73
2, 31704, Note_on_c, 0, 83, 83
2, 31721, Note_on_c, 0, 81, 0
2, 31746, Note_on_c, 0, 50, 0
2, 31789, Note_on_c, 0, 81, 72
2, 31839, Note_on_c, 0, 83, 0
2, 31854, Note_on_c, 0, 47, 75
2, 31876, Note_on_c, 0, 80, 84
2, 31902, Note_on_c, 0, 81, 0
2, 31914, Note_on_c, 0, 47, 0
2, 31961, Note_on_c, 0, 78, 79
2, 31984, Note_on_c, 0, 80, 0
2, 32041, Note_on_c, 0, 50, 76
2, 32044, Note_on_c, 0, 76, 73
2, 32046, Note_on_c, 0, 78, 0
2, 32093, Note_on_c, 0, 50, 0
2, 32104, Note_on_c, 0, 76, 0
2, 32127, Note_on_c, 0, 77, 81
2, 32202, Note_on_c, 0, 53, 79
2, 32208, Note_on_c, 0, 76, 84
2, 32229, Note_on_c, 0, 77, 0
2, 32263, Note_on_c, 0, 53, 0
2, 32288, Note_on_c, 0, 74, 75
2, 32326, Note_on_c, 0, 76, 0
2, 32372, Note_on_c, 0, 72, 80
2, 32373, Note_on_c, 0, 56, 78
2, 32385, Note_on_c, 0, 74, 0
2, 32421, Note_on_c, 0, 56, 0
2, 32440, Note_on_c, 0, 72, 0
2, 32444, Note_on_c, 0, 71, 83
2, 32518, Note_on_c, 0, 71, 0
2, 32532, Note_on_c, 0, 69, 85
2, 32538, Note_on_c, 0, 48, 75
2, 32581, Note_on_c, 0, 69, 0
2, 32615, Note_on_c, 0, 71, 86
2, 32668, Note_on_c, 0, 71, 0
2, 32704, Note_on_c, 0, 72, 83
2, 32743, Note_on_c, 0, 72, 0
2, 32843, Note_on_c, 0, 48, 0
2, 32873, Note_on_c, 0, 76, 81
2, 32904, Note_on_c, 0, 76, 0
2, 33039, Note_on_c, 0, 72, 85
2, 33040, Note_on_c, 0, 57, 67
2, 33076, Note_on_c, 0, 72, 0
2, 33095, Note_on_c, 0, 57, 0
2, 33117, Note_on_c, 0, 56, 70
2, 33180, Note_on_c, 0, 56, 0
2, 33196, Note_on_c, 0, 69, 87
2, 33202, Note_on_c, 0, 57, 71
2, 33235, Note_on_c, 0, 69, 0
2, 33267, Note_on_c, 0, 57, 0
2, 33285, Note_on_c, 0, 56, 75
2, 33354, Note_on_c, 0, 56, 0
2, 33360, Note_on_c, 0, 64, 82
2, 33370, Note_on_c, 0, 57, 73
2, 33408, Note_on_c, 0, 64, 0
2, 33435, Note_on_c, 0, 57, 0
2, 33446, Note_on_c, 0, 56, 75
2, 33513, Note_on_c, 0, 56, 0
2, 33520, Note_on_c, 0, 76, 69
2, 33554, Note_on_c, 0, 57, 68
2, 33589, Note_on_c, 0, 57, 0
2, 33609, Note_on_c, 0, 74, 83
2, 33621, Note_on_c, 0, 76, 0
2, 33694, Note_on_c, 0, 72, 79
2, 33708, Note_on_c, 0, 52, 71
2, 33728, Note_on_c, 0, 74, 0
2, 33759, Note_on_c, 0, 52, 0
2, 33772, Note_on_c, 0, 71, 81
2, 33784, Note_on_c, 0, 72, 0
2, 33829, Note_on_c, 0, 71, 0
2, 33852, Note_on_c, 0, 69, 74
2, 33864, Note_on_c, 0, 48, 62
2, 33896, Note_on_c, 0, 48, 0
2, 33919, Note_on_c, 0, 69, 0
2, 33927, Note_on_c, 0, 68, 80
2, 33933, Control_c, 0, 64, 30
2, 33948, Control_c, 0, 64, 40
2, 33963, Control_c, 0, 64, 44
2, 33978, Control_c, 0, 64, 44
2, 33987, Note_on_c, 0, 68, 0
2, 34014, Note_on_c, 0, 69, 75
2, 34038, Note_on_c, 0, 41, 80
2, 34054, Control_c, 0, 64, 44
2, 34057, Note_on_c, 0, 69, 0
2, 34069, Control_c, 0, 64, 43
2, 34082, Note_on_c, 0, 71, 79
2, 34084, Control_c, 0, 64, 42
2, 34099, Control_c, 0, 64, 40
2, 34110, Note_on_c, 0, 71, 0
2, 34115, Control_c, 0, 64, 37
2, 34130, Control_c, 0, 64, 33
2, 34145, Control_c, 0, 64, 31
2, 34160, Control_c, 0, 64, 29
2, 34163, Note_on_c, 0, 72, 78
2, 34175, Control_c, 0, 64, 26
2, 34190, Control_c, 0, 64, 21
2, 34206, Control_c, 0, 64, 17
2, 34221, Control_c, 0, 64, 13
2, 34221, Note_on_c, 0, 78, 4
2, 34224, Note_on_c, 0, 72, 0
2, 34236, Control_c, 0, 64, 12
2, 34251, Control_c, 0, 64, 11
2, 34266, Control_c, 0, 64, 0
2, 34272, Note_on_c, 0, 78, 0
2, 34315, Note_on_c, 0, 41, 0
2, 34359, Note_on_c, 0, 81, 86
2, 34409, Note_on_c, 0, 81, 0
2, 34526, Note_on_c, 0, 57, 61
2, 34532, Note_on_c, 0, 76, 84
2, 34557, Note_on_c, 0, 76, 0
2, 34583, Note_on_c, 0, 57, 0
2, 34602, Note_on_c, 0, 56, 66
2, 34676, Note_on_c, 0, 56, 0
2, 34687, Note_on_c, 0, 57, 74
2, 34691, Note_on_c, 0, 72, 91
2, 34730, Note_on_c, 0, 72, 0
2, 34753, Note_on_c, 0, 57, 0
2, 34768, Note_on_c, 0, 56, 73
2, 34846, Note_on_c, 0, 56, 0
2, 34857, Note_on_c, 0, 57, 75
2, 34862, Note_on_c, 0, 69, 84
2, 34911, Note_on_c, 0, 69, 0
2, 34925, Note_on_c, 0, 57, 0
2, 34945, Note_on_c, 0, 56, 79
2, 35018, Note_on_c, 0, 56, 0
2, 35027, Note_on_c, 0, 81, 83
2, 35034, Note_on_c, 0, 57, 74
2, 35059, Note_on_c, 0, 57, 0
2, 35113, Note_on_c, 0, 79, 83
2, 35159, Note_on_c, 0, 81, 0
2, 35193, Note_on_c, 0, 77, 83
2, 35208, Note_on_c, 0, 59, 65
2, 35237, Note_on_c, 0, 79, 0
2, 35249, Note_on_c, 0, 59, 0
2, 35275, Note_on_c, 0, 76, 82
2, 35287, Note_on_c, 0, 77, 0
2, 35339, Note_on_c, 0, 76, 0
2, 35356, Note_on_c, 0, 74, 78
2, 35370, Note_on_c, 0, 60, 67
2, 35408, Note_on_c, 0, 60, 0
2, 35437, Note_on_c, 0, 72, 81
2, 35449, Note_on_c, 0, 74, 0
2, 35514, Note_on_c, 0, 72, 0
2, 35516, Note_on_c, 0, 77, 80
2, 35528, Note_on_c, 0, 50, 68
2, 35580, Note_on_c, 0, 50, 0
2, 35595, Note_on_c, 0, 76, 79
2, 35618, Note_on_c, 0, 77, 0
2, 35676, Note_on_c, 0, 74, 73
2, 35700, Note_on_c, 0, 52, 61
2, 35716, Note_on_c, 0, 76, 0
2, 35737, Note_on_c, 0, 52, 0
2, 35767, Note_on_c, 0, 72, 72
2, 35770, Note_on_c, 0, 74, 0
2, 35835, Note_on_c, 0, 72, 0
2, 35853, Note_on_c, 0, 71, 69
2, 35867, Note_on_c, 0, 53, 62
2, 35907, Note_on_c, 0, 53, 0
2, 35935, Note_on_c, 0, 69, 68
2, 35941, Note_on_c, 0, 71, 0
2, 36006, Note_on_c, 0, 69, 0
2, 36011, Note_on_c, 0, 74, 68
2, 36024, Note_on_c, 0, 47, 56
2, 36070, Note_on_c, 0, 47, 0
2, 36085, Note_on_c, 0, 74, 0
2, 36090, Note_on_c, 0, 72, 72
2, 36174, Note_on_c, 0, 71, 66
2, 36185, Note_on_c, 0, 72, 0
2, 36200, Note_on_c, 0, 48, 54
2, 36228, Note_on_c, 0, 71, 0
2, 36239, Note_on_c, 0, 48, 0
2, 36240, Note_on_c, 0, 69, 69
2, 36327, Note_on_c, 0, 69, 0
2, 36331, Note_on_c, 0, 68, 68
2, 36357, Note_on_c, 0, 50, 57
2, 36395, Note_on_c, 0, 50, 0
2, 36410, Note_on_c, 0, 66, 68
2, 36423, Note_on_c, 0, 68, 0
2, 36510, Note_on_c, 0, 71, 66
2, 36511, Note_on_c, 0, 44, 63
2, 36523, Note_on_c, 0, 66, 0
2, 36561, Note_on_c, 0, 44, 0
2, 36593, Note_on_c, 0, 69, 71
2, 36599, Note_on_c, 0, 71, 0
2, 36685, Note_on_c, 0, 45, 67
2, 36685, Note_on_c, 0, 68, 73
2, 36725, Note_on_c, 0, 69, 0
2, 36727, Note_on_c, 0, 45, 0
2, 36768, Note_on_c, 0, 66, 73
2, 36806, Note_on_c, 0, 68, 0
2, 36851, Note_on_c, 0, 66, 0
2, 36856, Note_on_c, 0, 47, 68
2, 36864, Note_on_c, 0, 64, 69
2, 36907, Note_on_c, 0, 47, 0
2, 36933, Note_on_c, 0, 64, 0
2, 36936, Note_on_c, 0, 62, 75
2, 37003, Note_on_c, 0, 62, 0
2, 37037, Note_on_c, 0, 64, 74
2, 37052, Note_on_c, 0, 36, 66
2, 37098, Note_on_c, 0, 64, 0
2, 37119, Note_on_c, 0, 69, 72
2, 37207, Note_on_c, 0, 69, 0
2, 37211, Note_on_c, 0, 67, 72
2, 37292, Note_on_c, 0, 65, 65
2, 37301, Note_on_c, 0, 67, 0
2, 37381, Note_on_c, 0, 65, 0
2, 37390, Note_on_c, 0, 64, 64
2, 37456, Note_on_c, 0, 64, 0
2, 37474, Note_on_c, 0, 62, 65
2, 37555, Note_on_c, 0, 62, 0
2, 37563, Note_on_c, 0, 60, 64
2, 37588, Note_on_c, 0, 36, 0
2, 37619, Note_on_c, 0, 60, 0
2, 37636, Note_on_c, 0, 65, 66
2, 37715, Note_on_c, 0, 65, 0
2, 37721, Note_on_c, 0, 64, 70
2, 37724, Note_on_c, 0, 48, 67
2, 37767, Note_on_c, 0, 48, 0
2, 37804, Note_on_c, 0, 62, 63
2, 37805, Note_on_c, 0, 64, 0
2, 37893, Note_on_c, 0, 62, 0
2, 37895, Note_on_c, 0, 50, 65
2, 37895, Note_on_c, 0, 60, 66
2, 37940, Note_on_c, 0, 50, 0
2, 37960, Note_on_c, 0, 60, 0
2, 37979, Note_on_c, 0, 59, 65
2, 38060, Note_on_c, 0, 52, 63
2, 38064, Note_on_c, 0, 59, 0
2, 38070, Note_on_c, 0, 57, 61
2, 38096, Note_on_c, 0, 52, 0
2, 38128, Note_on_c, 0, 57, 0
2, 38138, Note_on_c, 0, 62, 59
2, 38241, Note_on_c, 0, 62, 0
2, 38247, Note_on_c, 0, 60, 61
2, 38250, Note_on_c, 0, 50, 61
2, 38295, Note_on_c, 0, 50, 0
2, 38331, Note_on_c, 0, 60, 0
2, 38336, Note_on_c, 0, 59, 61
2, 38412, Note_on_c, 0, 59, 0
2, 38422, Note_on_c, 0, 52, 61
2, 38430, Note_on_c, 0, 57, 62
2, 38457, Note_on_c, 0, 52, 0
2, 38499, Note_on_c, 0, 57, 0
2, 38509, Note_on_c, 0, 56, 63
2, 38586, Note_on_c, 0, 56, 0
2, 38614, Note_on_c, 0, 57, 58
2, 38618, Note_on_c, 0, 45, 54
2, 38668, Note_on_c, 0, 57, 0
2, 38696, Note_on_c, 0, 59, 59
2, 38764, Note_on_c, 0, 59, 0
2, 38786, Note_on_c, 0, 61, 64
2, 38854, Note_on_c, 0, 61, 0
2, 38874, Note_on_c, 0, 62, 65
2, 38947, Note_on_c, 0, 62, 0
2, 38967, Note_on_c, 0, 64, 57
2, 39017, Note_on_c, 0, 64, 0
2, 39045, Note_on_c, 0, 65, 61
2, 39127, Note_on_c, 0, 65, 0
2, 39136, Note_on_c, 0, 67, 70
2, 39199, Note_on_c, 0, 67, 0
2, 39241, Note_on_c, 0, 47, 51
2, 39298, Note_on_c, 0, 64, 74
2, 39305, Note_on_c, 0, 49, 62
2, 39347, Note_on_c, 0, 64, 0
2, 39361, Note_on_c, 0, 47, 0
2, 39395, Note_on_c, 0, 50, 70
2, 39419, Note_on_c, 0, 49, 0
2, 39476, Note_on_c, 0, 50, 0
2, 39488, Note_on_c, 0, 52, 72
2, 39488, Note_on_c, 0, 61, 76
2, 39548, Note_on_c, 0, 61, 0
2, 39559, Note_on_c, 0, 53, 79
2, 39564, Note_on_c, 0, 52, 0
2, 39658, Note_on_c, 0, 53, 0
2, 39659, Note_on_c, 0, 70, 82
2, 39665, Note_on_c, 0, 55, 73
2, 39711, Note_on_c, 0, 55, 0
2, 39747, Note_on_c, 0, 61, 69
2, 39757, Note_on_c, 0, 70, 0
2, 39836, Note_on_c, 0, 53, 74
2, 39842, Note_on_c, 0, 61, 0
2, 39846, Note_on_c, 0, 69, 74
2, 39880, Note_on_c, 0, 53, 0
2, 39927, Note_on_c, 0, 61, 68
2, 39962, Note_on_c, 0, 69, 0
2, 40009, Note_on_c, 0, 52, 72
2, 40026, Note_on_c, 0, 61, 0
2, 40027, Note_on_c, 0, 67, 74
2, 40061, Note_on_c, 0, 52, 0
2, 40109, Note_on_c, 0, 61, 70
2, 40175, Note_on_c, 0, 67, 0
2, 40191, Note_on_c, 0, 61, 0
2, 40205, Note_on_c, 0, 50, 76
2, 40207, Note_on_c, 0, 65, 69
2, 40291, Note_on_c, 0, 65, 0
2, 40308, Note_on_c, 0, 69, 75
2, 40344, Note_on_c, 0, 69, 0
2, 40399, Note_on_c, 0, 71, 80
2, 40489, Note_on_c, 0, 71, 0
2, 40494, Note_on_c, 0, 73, 78
2, 40588, Note_on_c, 0, 74, 83
2, 40620, Note_on_c, 0, 73, 0
2, 40684, Note_on_c, 0, 76, 86
2, 40687, Note_on_c, 0, 74, 0
2, 40794, Note_on_c, 0, 77, 96
2, 40833, Note_on_c, 0, 76, 0
2, 40879, Note_on_c, 0, 77, 0
2, 40905, Note_on_c, 0, 45, 0
2, 40906, Note_on_c, 0, 50, 0
2, 40906, Note_on_c, 0, 57, 73
2, 41012, Note_on_c, 0, 74, 90
2, 41028, Note_on_c, 0, 57, 0
2, 41036, Note_on_c, 0, 59, 69
2, 41113, Note_on_c, 0, 74, 0
2, 41128, Note_on_c, 0, 61, 78
2, 41151, Note_on_c, 0, 57, 28
2, 41207, Note_on_c, 0, 59, 0
2, 41254, Note_on_c, 0, 62, 73
2, 41255, Note_on_c, 0, 71, 91
2, 41269, Note_on_c, 0, 61, 0
2, 41393, Note_on_c, 0, 64, 77
2, 41399, Note_on_c, 0, 62, 0
2, 41551, Note_on_c, 0, 81, 80
2, 41559, Note_on_c, 0, 65, 59
2, 41588, Note_on_c, 0, 64, 0
2, 41681, Note_on_c, 0, 65, 0
2, 41705, Note_on_c, 0, 80, 79
2, 41746, Note_on_c, 0, 81, 0
2, 41873, Note_on_c, 0, 81, 68
2, 41883, Note_on_c, 0, 64, 51
2, 41922, Note_on_c, 0, 80, 0
2, 42037, Note_on_c, 0, 64, 0
2, 42066, Note_on_c, 0, 80, 71
2, 42093, Note_on_c, 0, 81, 0
2, 42271, Note_on_c, 0, 81, 63
2, 42281, Note_on_c, 0, 62, 44
2, 42300, Note_on_c, 0, 80, 0
2, 42481, Note_on_c, 0, 80, 64
2, 42490, Note_on_c, 0, 81, 0
2, 42501, Control_c, 0, 64, 23
2, 42517, Control_c, 0, 64, 44
2, 42532, Control_c, 0, 64, 55
2, 42547, Control_c, 0, 64, 61
2, 42563, Control_c, 0, 64, 65
2, 42566, Note_on_c, 0, 71, 0
2, 42577, Control_c, 0, 64, 69
2, 42593, Control_c, 0, 64, 76
2, 42608, Control_c, 0, 64, 85
2, 42623, Control_c, 0, 64, 98
2, 42630, Note_on_c, 0, 80, 0
2, 42639, Control_c, 0, 64, 127
2, 42644, Note_on_c, 0, 62, 0
2, 42998, Note_on_c, 0, 81, 55
2, 42999, Note_on_c, 0, 76, 50
2, 43007, Note_on_c, 0, 73, 53
2, 43020, Note_on_c, 0, 64, 40
2, 43020, Note_on_c, 0, 69, 45
2, 43040, Control_c, 0, 64, 104
2, 43055, Control_c, 0, 64, 90
2, 43070, Control_c, 0, 64, 77
2, 43086, Control_c, 0, 64, 68
2, 43100, Control_c, 0, 64, 61
2, 43114, Control_c, 0, 64, 54
2, 43130, Control_c, 0, 64, 50
2, 43145, Control_c, 0, 64, 49
2, 43161, Control_c, 0, 64, 47
2, 43176, Control_c, 0, 64, 41
2, 43191, Control_c, 0, 64, 23
2, 43207, Control_c, 0, 64, 0
2, 44141, Control_c, 0, 64, 15
2, 44156, Control_c, 0, 64, 24
2, 44172, Control_c, 0, 64, 31
2, 44186, Control_c, 0, 64, 36
2, 44202, Control_c, 0, 64, 39
2, 44217, Control_c, 0, 64, 40
2, 44232, Control_c, 0, 64, 42
2, 44248, Control_c, 0, 64, 44
2, 44262, Control_c, 0, 64, 47
2, 44277, Control_c, 0, 64, 50
2, 44301, Control_c, 0, 64, 52
2, 44316, Control_c, 0, 64, 54
2, 44332, Control_c, 0, 64, 55
2, 44346, Control_c, 0, 64, 57
2, 44362, Control_c, 0, 64, 58
2, 44377, Control_c, 0, 64, 60
2, 44392, Control_c, 0, 64, 61
2, 44408, Control_c, 0, 64, 63
2, 44423, Control_c, 0, 64, 63
2, 44438, Control_c, 0, 64, 64
2, 44454, Control_c, 0, 64, 65
2, 44469, Control_c, 0, 64, 65
2, 44485, Control_c, 0, 64, 67
2, 44499, Control_c, 0, 64, 68
2, 44514, Control_c, 0, 64, 70
2, 44530, Control_c, 0, 64, 72
2, 44545, Control_c, 0, 64, 73
2, 44561, Control_c, 0, 64, 75
2, 44575, Control_c, 0, 64, 77
2, 44590, Control_c, 0, 64, 78
2, 44606, Control_c, 0, 64, 79
2, 44621, Control_c, 0, 64, 80
2, 44635, Control_c, 0, 64, 81
2, 44652, Control_c, 0, 64, 82
2, 44667, Control_c, 0, 64, 83
2, 44683, Control_c, 0, 64, 83
2, 44712, Control_c, 0, 64, 84
2, 44728, Control_c, 0, 64, 85
2, 44740, Note_on_c, 0, 69, 0
2, 44743, Control_c, 0, 64, 86
2, 44758, Control_c, 0, 64, 87
2, 44774, Control_c, 0, 64, 89
2, 44788, Control_c, 0, 64, 90
2, 44819, Control_c, 0, 64, 90
2, 44849, Control_c, 0, 64, 91
2, 44856, Note_on_c, 0, 73, 0
2, 44858, Note_on_c, 0, 81, 0
2, 44887, Note_on_c, 0, 57, 0
2, 44909, Control_c, 0, 64, 91
2, 44920, Note_on_c, 0, 76, 0
2, 44943, Note_on_c, 0, 64, 0
2, 45085, Control_c, 0, 64, 91
2, 45145, Control_c, 0, 64, 90
2, 45222, Control_c, 0, 64, 90
2, 45222, Control_c, 0, 67, 18
2, 45237, Control_c, 0, 64, 89
2, 45237, Control_c, 0, 67, 29
2, 45253, Control_c, 0, 64, 88
2, 45253, Control_c, 0, 67, 40
2, 45267, Control_c, 0, 64, 87
2, 45267, Control_c, 0, 67, 46
2, 45283, Control_c, 0, 64, 86
2, 45283, Control_c, 0, 67, 49
2, 45298, Control_c, 0, 64, 85
2, 45313, Control_c, 0, 64, 83
2, 45329, Control_c, 0, 64, 79
2, 45343, Control_c, 0, 64, 74
2, 45358, Control_c, 0, 64, 69
2, 45374, Control_c, 0, 64, 65
2, 45374, Control_c, 0, 67, 48
2, 45389, Control_c, 0, 64, 61
2, 45389, Control_c, 0, 67, 46
2, 45405, Control_c, 0, 64, 58
2, 45405, Control_c, 0, 67, 45
2, 45420, Control_c, 0, 64, 55
2, 45435, Control_c, 0, 64, 53
2, 45435, Control_c, 0, 67, 43
2, 45451, Control_c, 0, 64, 50
2, 45451, Control_c, 0, 67, 41
2, 45466, Control_c, 0, 64, 47
2, 45466, Control_c, 0, 67, 38
2, 45481, Control_c, 0, 64, 44
2, 45481, Control_c, 0, 67, 36
2, 45496, Control_c, 0, 64, 40
2, 45511, Control_c, 0, 64, 36
2, 45527, Control_c, 0, 64, 31
2, 45542, Control_c, 0, 64, 25
2, 45542, Control_c, 0, 67, 36
2, 45556, Control_c, 0, 64, 21
2, 45556, Control_c, 0, 67, 34
2, 45572, Control_c, 0, 64, 18
2, 45572, Control_c, 0, 67, 32
2, 45587, Control_c, 0, 64, 16
2, 45587, Control_c, 0, 67, 31
2, 45603, Control_c, 0, 64, 12
2, 45603, Control_c, 0, 67, 30
2, 45618, Control_c, 0, 64, 9
2, 45618, Control_c, 0, 67, 29
2, 45632, Control_c, 0, 64, 0
2, 45632, Control_c, 0, 67, 29
2, 45648, Control_c, 0, 67, 27
2, 45663, Control_c, 0, 67, 25
2, 45677, Control_c, 0, 67, 24
2, 45753, Control_c, 0, 67, 24
2, 45769, Control_c, 0, 67, 23
2, 45800, Control_c, 0, 67, 23
2, 45853, Control_c, 0, 67, 22
2, 45883, Control_c, 0, 67, 21
2, 46061,End_track
0, 0, End_of_file
