0, 0, Header, 1, 2, 384
1, 0, Start_track
1, 0, Tempo, 500000
1, 0, Time_signature, 4, 2, 24, 8
1, 1, End_track
2, 0, Start_track
2, 0, Program_c, 0, 0
2, 0, Control_c, 0, 64, 0
2, 739, Note_on_c, 0, 69, 76
2, 749, Note_on_c, 0, 45, 61
2, 769, Note_on_c, 0, 69, 0
2, 817, Note_on_c, 0, 71, 75
2, 865, Note_on_c, 0, 71, 0
2, 907, Note_on_c, 0, 72, 78
2, 932, Note_on_c, 0, 72, 0
2, 1075, Note_on_c, 0, 45, 0
2, 1093, Note_on_c, 0, 76, 76
2, 1122, Note_on_c, 0, 76, 0
2, 1267, Note_on_c, 0, 72, 70
2, 1288, Note_on_c, 0, 57, 61
2, 1302, Note_on_c, 0, 72, 0
2, 1346, Note_on_c, 0, 57, 0
2, 1366, Note_on_c, 0, 56, 62
2, 1435, Note_on_c, 0, 56, 0
2, 1448, Note_on_c, 0, 69, 71
2, 1454, Note_on_c, 0, 57, 66
2, 1484, Note_on_c, 0, 69, 0
2, 1505, Note_on_c, 0, 57, 0
2, 1525, Note_on_c, 0, 56, 65
2, 1581, Note_on_c, 0, 56, 0
2, 1612, Note_on_c, 0, 57, 67
2, 1622, Note_on_c, 0, 64, 74
2, 1650, Note_on_c, 0, 64, 0
2, 1658, Note_on_c, 0, 57, 0
2, 1693, Note_on_c, 0, 56, 62
2, 1766, Note_on_c, 0, 56, 0
2, 1782, Note_on_c, 0, 69, 82
2, 1783, Note_on_c, 0, 57, 68
2, 1808, Note_on_c, 0, 69, 0
2, 1817, Note_on_c, 0, 57, 0
2, 1949, Note_on_c, 0, 72, 77
2, 1954, Note_on_c, 0, 52, 64
2, 1982, Note_on_c, 0, 52, 0
2, 1986, Note_on_c, 0, 72, 0
2, 2121, Note_on_c, 0, 48, 63
2, 2121, Note_on_c, 0, 76, 82
2, 2152, Note_on_c, 0, 48, 0
2, 2154, Note_on_c, 0, 76, 0
2, 2292, Note_on_c, 0, 45, 73
2, 2295, Note_on_c, 0, 71, 81
2, 2325, Note_on_c, 0, 71, 0
2, 2374, Note_on_c, 0, 72, 84
2, 2418, Note_on_c, 0, 72, 0
2, 2454, Note_on_c, 0, 74, 84
2, 2492, Note_on_c, 0, 74, 0
2, 2585, Note_on_c, 0, 45, 0
2, 2635, Note_on_c, 0, 77, 81
2, 2662, Note_on_c, 0, 77, 0
2, 2803, Note_on_c, 0, 74, 75
2, 2809, Note_on_c, 0, 57, 55
2, 2836, Note_on_c, 0, 74, 0
2, 2858, Note_on_c, 0, 57, 0
2, 2883, Note_on_c, 0, 56, 70
2, 2926, Note_on_c, 0, 56, 0
2, 2953, Note_on_c, 0, 57, 65
2, 2968, Note_on_c, 0, 71, 83
2, 3017, Note_on_c, 0, 71, 0
2, 3023, Note_on_c, 0, 57, 0
2, 3029, Note_on_c, 0, 56, 73
2, 3096, Note_on_c, 0, 56, 0
2, 3114, Note_on_c, 0, 57, 72
2, 3126, Note_on_c, 0, 68, 89
2, 3161, Note_on_c, 0, 68, 0
2, 3179, Note_on_c, 0, 57, 0
2, 3194, Note_on_c, 0, 56, 68
2, 3268, Note_on_c, 0, 56, 0
2, 3282, Note_on_c, 0, 71, 86
2, 3290, Note_on_c, 0, 57, 71
2, 3321, Note_on_c, 0, 71, 0
2, 3343, Note_on_c, 0, 57, 0
2, 3445, Note_on_c, 0, 74, 78
2, 3448, Note_on_c, 0, 53, 66
2, 3471, Note_on_c, 0, 74, 0
2, 3476, Note_on_c, 0, 53, 0
2, 3604, Note_on_c, 0, 50, 64
2, 3607, Note_on_c, 0, 77, 87
2, 3635, Note_on_c, 0, 50, 0
2, 3644, Note_on_c, 0, 77, 0
2, 3772, Note_on_c, 0, 74, 82
2, 3776, Note_on_c, 0, 45, 73
2, 3837, Note_on_c, 0, 74, 0
2, 3843, Note_on_c, 0, 76, 82
2, 3891, Note_on_c, 0, 76, 0
2, 3928, Note_on_c, 0, 77, 85
2, 3992, Note_on_c, 0, 77, 0
2, 4066, Note_on_c, 0, 45, 0
2, 4106, Note_on_c, 0, 80, 78
2, 4155, Note_on_c, 0, 80, 0
2, 4269, Note_on_c, 0, 77, 81
2, 4281, Note_on_c, 0, 57, 53
2, 4298, Note_on_c, 0, 77, 0
2, 4330, Note_on_c, 0, 57, 0
2, 4358, Note_on_c, 0, 56, 63
2, 4417, Note_on_c, 0, 56, 0
2, 4426, Note_on_c, 0, 74, 85
2, 4433, Note_on_c, 0, 57, 69
2, 4463, Note_on_c, 0, 74, 0
2, 4504, Note_on_c, 0, 57, 0
2, 4512, Note_on_c, 0, 56, 75
2, 4582, Note_on_c, 0, 56, 0
2, 4584, Note_on_c, 0, 71, 90
2, 4595, Note_on_c, 0, 57, 71
2, 4638, Note_on_c, 0, 71, 0
2, 4659, Note_on_c, 0, 56, 72
2, 4662, Note_on_c, 0, 57, 0
2, 4728, Note_on_c, 0, 56, 0
2, 4735, Note_on_c, 0, 74, 87
2, 4745, Note_on_c, 0, 57, 76
2, 4780, Note_on_c, 0, 74, 0
2, 4799, Note_on_c, 0, 57, 0
2, 4896, Note_on_c, 0, 77, 87
2, 4900, Note_on_c, 0, 53, 69
2, 4931, Note_on_c, 0, 53, 0
2, 4938, Note_on_c, 0, 77, 0
2, 5051, Note_on_c, 0, 50, 64
2, 5052, Note_on_c, 0, 80, 90
2, 5085, Note_on_c, 0, 50, 0
2, 5103, Note_on_c, 0, 80, 0
2, 5237, Note_on_c, 0, 81, 91
2, 5240, Note_on_c, 0, 45, 75
2, 5411, Note_on_c, 0, 79, 83
2, 5420, Note_on_c, 0, 81, 0
2, 5490, Note_on_c, 0, 77, 83
2, 5565, Note_on_c, 0, 79, 0
2, 5571, Note_on_c, 0, 76, 77
2, 5583, Note_on_c, 0, 77, 0
2, 5606, Note_on_c, 0, 45, 0
2, 5648, Note_on_c, 0, 76, 0
2, 5653, Note_on_c, 0, 74, 69
2, 5740, Note_on_c, 0, 72, 73
2, 5744, Note_on_c, 0, 74, 0
2, 5909, Note_on_c, 0, 72, 0
2, 5916, Note_on_c, 0, 69, 64
2, 5944, Note_on_c, 0, 69, 0
2, 6081, Note_on_c, 0, 64, 56
2, 6103, Note_on_c, 0, 64, 0
2, 6242, Note_on_c, 0, 60, 67
2, 6274, Note_on_c, 0, 60, 0
2, 6402, Note_on_c, 0, 57, 71
2, 6436, Note_on_c, 0, 57, 0
2, 6556, Note_on_c, 0, 63, 72
2, 6598, Note_on_c, 0, 63, 0
2, 6734, Note_on_c, 0, 52, 59
2, 6741, Note_on_c, 0, 76, 68
2, 6743, Note_on_c, 0, 79, 74
2, 6757, Note_on_c, 0, 71, 63
2, 6796, Note_on_c, 0, 54, 71
2, 6842, Note_on_c, 0, 52, 0
2, 6892, Note_on_c, 0, 55, 77
2, 6916, Note_on_c, 0, 54, 0
2, 6929, Note_on_c, 0, 55, 0
2, 7050, Note_on_c, 0, 71, 0
2, 7056, Note_on_c, 0, 79, 0
2, 7059, Note_on_c, 0, 76, 0
2, 7067, Note_on_c, 0, 59, 75
2, 7098, Note_on_c, 0, 59, 0
2, 7222, Note_on_c, 0, 55, 71
2, 7234, Note_on_c, 0, 76, 69
2, 7253, Note_on_c, 0, 55, 0
2, 7282, Note_on_c, 0, 76, 0
2, 7302, Note_on_c, 0, 75, 74
2, 7374, Note_on_c, 0, 75, 0
2, 7382, Note_on_c, 0, 52, 62
2, 7385, Note_on_c, 0, 76, 67
2, 7422, Note_on_c, 0, 52, 0
2, 7449, Note_on_c, 0, 76, 0
2, 7467, Note_on_c, 0, 75, 75
2, 7536, Note_on_c, 0, 75, 0
2, 7556, Note_on_c, 0, 76, 60
2, 7564, Note_on_c, 0, 47, 65
2, 7604, Note_on_c, 0, 47, 0
2, 7621, Note_on_c, 0, 76, 0
2, 7636, Note_on_c, 0, 75, 68
2, 7709, Note_on_c, 0, 75, 0
2, 7722, Note_on_c, 0, 76, 63
2, 7731, Note_on_c, 0, 52, 60
2, 7771, Note_on_c, 0, 52, 0
2, 7771, Note_on_c, 0, 76, 0
2, 7805, Note_on_c, 0, 71, 71
2, 7892, Note_on_c, 0, 69, 76
2, 7894, Note_on_c, 0, 71, 0
2, 7901, Note_on_c, 0, 55, 61
2, 7930, Note_on_c, 0, 55, 0
2, 7967, Note_on_c, 0, 67, 72
2, 7981, Note_on_c, 0, 69, 0
2, 8049, Note_on_c, 0, 59, 66
2, 8055, Note_on_c, 0, 66, 73
2, 8056, Note_on_c, 0, 67, 0
2, 8089, Note_on_c, 0, 59, 0
2, 8126, Note_on_c, 0, 64, 77
2, 8139, Note_on_c, 0, 66, 0
2, 8222, Note_on_c, 0, 54, 73
2, 8224, Note_on_c, 0, 72, 82
2, 8226, Note_on_c, 0, 69, 70
2, 8297, Note_on_c, 0, 55, 73
2, 8385, Note_on_c, 0, 57, 76
2, 8388, Note_on_c, 0, 54, 0
2, 8395, Note_on_c, 0, 55, 0
2, 8429, Note_on_c, 0, 57, 0
2, 8569, Note_on_c, 0, 60, 73
2, 8601, Note_on_c, 0, 60, 0
2, 8675, Note_on_c, 0, 64, 0
2, 8676, Note_on_c, 0, 69, 0
2, 8728, Note_on_c, 0, 57, 71
2, 8757, Note_on_c, 0, 57, 0
2, 8790, Note_on_c, 0, 72, 0
2, 8809, Note_on_c, 0, 71, 72
2, 8875, Note_on_c, 0, 71, 0
2, 8884, Note_on_c, 0, 54, 70
2, 8894, Note_on_c, 0, 72, 65
2, 8921, Note_on_c, 0, 54, 0
2, 8943, Note_on_c, 0, 72, 0
2, 8980, Note_on_c, 0, 71, 74
2, 9030, Note_on_c, 0, 71, 0
2, 9051, Note_on_c, 0, 51, 71
2, 9051, Note_on_c, 0, 72, 72
2, 9091, Note_on_c, 0, 51, 0
2, 9110, Note_on_c, 0, 72, 0
2, 9129, Note_on_c, 0, 71, 73
2, 9185, Note_on_c, 0, 71, 0
2, 9214, Note_on_c, 0, 54, 66
2, 9222, Note_on_c, 0, 72, 76
2, 9298, Note_on_c, 0, 72, 0
2, 9306, Note_on_c, 0, 54, 0
2, 9332, Note_on_c, 0, 79, 57
2, 9378, Note_on_c, 0, 57, 59
2, 9398, Note_on_c, 0, 78, 74
2, 9427, Note_on_c, 0, 57, 0
2, 9427, Note_on_c, 0, 79, 0
2, 9478, Note_on_c, 0, 76, 72
2, 9510, Control_c, 0, 64, 33
2, 9526, Control_c, 0, 64, 58
2, 9528, Note_on_c, 0, 78, 0
2, 9541, Control_c, 0, 64, 70
2, 9541, Note_on_c, 0, 60, 66
2, 9547, Note_on_c, 0, 75, 78
2, 9554, Note_on_c, 0, 76, 0
2, 9556, Control_c, 0, 64, 87
2, 9571, Control_c, 0, 64, 127
2, 9581, Note_on_c, 0, 75, 0
2, 9609, Note_on_c, 0, 60, 0
2, 9637, Note_on_c, 0, 76, 75
2, 9677, Note_on_c, 0, 76, 0
2, 9710, Note_on_c, 0, 69, 42
2, 9722, Note_on_c, 0, 57, 81
2, 9746, Control_c, 0, 64, 102
2, 9749, Note_on_c, 0, 75, 89
2, 9752, Note_on_c, 0, 69, 0
2, 9752, Note_on_c, 0, 69, 28
2, 9762, Control_c, 0, 64, 81
2, 9763, Note_on_c, 0, 66, 79
2, 9768, Note_on_c, 0, 72, 65
2, 9776, Control_c, 0, 64, 68
2, 9792, Control_c, 0, 64, 55
2, 9807, Control_c, 0, 64, 20
2, 9822, Control_c, 0, 64, 0
2, 9835, Note_on_c, 0, 59, 75
2, 9850, Note_on_c, 0, 57, 0
2, 9917, Note_on_c, 0, 60, 76
2, 9923, Note_on_c, 0, 59, 0
2, 9972, Note_on_c, 0, 60, 0
2, 10085, Note_on_c, 0, 63, 72
2, 10112, Note_on_c, 0, 63, 0
2, 10132, Note_on_c, 0, 66, 0
2, 10190, Note_on_c, 0, 69, 0
2, 10211, Note_on_c, 0, 72, 0
2, 10233, Note_on_c, 0, 60, 78
2, 10251, Note_on_c, 0, 75, 0
2, 10280, Note_on_c, 0, 60, 0
2, 10318, Note_on_c, 0, 76, 72
2, 10376, Note_on_c, 0, 76, 0
2, 10393, Note_on_c, 0, 78, 70
2, 10396, Note_on_c, 0, 57, 65
2, 10437, Note_on_c, 0, 57, 0
2, 10464, Note_on_c, 0, 78, 0
2, 10474, Note_on_c, 0, 76, 66
2, 10535, Note_on_c, 0, 76, 0
2, 10559, Note_on_c, 0, 78, 70
2, 10560, Note_on_c, 0, 54, 71
2, 10629, Note_on_c, 0, 54, 0
2, 10639, Note_on_c, 0, 76, 75
2, 10639, Note_on_c, 0, 78, 0
2, 10707, Note_on_c, 0, 76, 0
2, 10722, Note_on_c, 0, 78, 77
2, 10725, Note_on_c, 0, 57, 74
2, 10764, Note_on_c, 0, 57, 0
2, 10798, Note_on_c, 0, 76, 77
2, 10838, Note_on_c, 0, 78, 0
2, 10884, Note_on_c, 0, 75, 82
2, 10888, Note_on_c, 0, 60, 82
2, 10894, Note_on_c, 0, 76, 0
2, 10943, Note_on_c, 0, 60, 0
2, 10963, Note_on_c, 0, 78, 81
2, 10967, Note_on_c, 0, 75, 0
2, 11041, Note_on_c, 0, 78, 0
2, 11050, Note_on_c, 0, 63, 81
2, 11051, Note_on_c, 0, 71, 74
2, 11106, Note_on_c, 0, 63, 0
2, 11121, Note_on_c, 0, 71, 0
2, 11131, Note_on_c, 0, 69, 79
2, 11169, Note_on_c, 0, 69, 0
2, 11229, Note_on_c, 0, 67, 72
2, 11234, Note_on_c, 0, 64, 62
2, 11408, Note_on_c, 0, 64, 0
2, 11430, Note_on_c, 0, 52, 62
2, 11512, Note_on_c, 0, 54, 71
2, 11538, Note_on_c, 0, 52, 0
2, 11579, Note_on_c, 0, 55, 68
2, 11620, Note_on_c, 0, 54, 0
2, 11655, Note_on_c, 0, 57, 76
2, 11673, Note_on_c, 0, 55, 0
2, 11746, Note_on_c, 0, 57, 0
2, 11746, Note_on_c, 0, 59, 78
2, 11923, Note_on_c, 0, 64, 75
2, 11941, Note_on_c, 0, 67, 0
2, 11947, Note_on_c, 0, 59, 0
2, 11947, Note_on_c, 0, 64, 0
2, 12095, Note_on_c, 0, 67, 73
2, 12122, Note_on_c, 0, 67, 0
2, 12255, Note_on_c, 0, 71, 79
2, 12281, Note_on_c, 0, 71, 0
2, 12421, Note_on_c, 0, 76, 72
2, 12468, Note_on_c, 0, 76, 0
2, 12577, Note_on_c, 0, 70, 75
2, 12610, Note_on_c, 0, 70, 0
2, 12742, Note_on_c, 0, 79, 76
2, 12753, Note_on_c, 0, 76, 71
2, 12756, Note_on_c, 0, 71, 71
2, 12768, Note_on_c, 0, 64, 65
2, 12845, Note_on_c, 0, 66, 77
2, 12868, Note_on_c, 0, 64, 0
2, 12927, Note_on_c, 0, 67, 75
2, 12934, Note_on_c, 0, 66, 0
2, 12960, Note_on_c, 0, 67, 0
2, 12960, Note_on_c, 0, 71, 0
2, 13094, Note_on_c, 0, 71, 67
2, 13128, Note_on_c, 0, 71, 0
2, 13255, Note_on_c, 0, 67, 68
2, 13286, Note_on_c, 0, 67, 0
2, 13303, Note_on_c, 0, 76, 0
2, 13324, Note_on_c, 0, 79, 0
2, 13330, Note_on_c, 0, 78, 65
2, 13401, Note_on_c, 0, 78, 0
2, 13406, Note_on_c, 0, 79, 67
2, 13418, Note_on_c, 0, 64, 60
2, 13449, Note_on_c, 0, 64, 0
2, 13482, Note_on_c, 0, 78, 68
2, 13483, Note_on_c, 0, 79, 0
2, 13558, Note_on_c, 0, 78, 0
2, 13565, Note_on_c, 0, 79, 68
2, 13581, Note_on_c, 0, 59, 68
2, 13628, Note_on_c, 0, 59, 0
2, 13656, Note_on_c, 0, 78, 79
2, 13672, Note_on_c, 0, 79, 0
2, 13733, Note_on_c, 0, 79, 74
2, 13742, Note_on_c, 0, 78, 0
2, 13743, Note_on_c, 0, 61, 73
2, 13811, Note_on_c, 0, 61, 0
2, 13818, Note_on_c, 0, 77, 83
2, 13849, Note_on_c, 0, 79, 0
2, 13899, Note_on_c, 0, 64, 72
2, 13899, Note_on_c, 0, 76, 79
2, 13910, Note_on_c, 0, 77, 0
2, 13952, Note_on_c, 0, 64, 0
2, 13967, Note_on_c, 0, 76, 0
2, 13984, Note_on_c, 0, 74, 69
2, 14060, Note_on_c, 0, 73, 76
2, 14060, Note_on_c, 0, 74, 0
2, 14063, Note_on_c, 0, 69, 65
2, 14103, Note_on_c, 0, 69, 0
2, 14133, Note_on_c, 0, 71, 82
2, 14136, Note_on_c, 0, 73, 0
2, 14182, Note_on_c, 0, 71, 0
2, 14229, Note_on_c, 0, 77, 83
2, 14232, Note_on_c, 0, 62, 68
2, 14236, Note_on_c, 0, 69, 77
2, 14241, Note_on_c, 0, 74, 67
2, 14313, Note_on_c, 0, 64, 71
2, 14354, Note_on_c, 0, 62, 0
2, 14407, Note_on_c, 0, 65, 71
2, 14412, Note_on_c, 0, 64, 0
2, 14461, Note_on_c, 0, 65, 0
2, 14467, Note_on_c, 0, 69, 0
2, 14584, Note_on_c, 0, 69, 71
2, 14613, Note_on_c, 0, 69, 0
2, 14742, Note_on_c, 0, 65, 68
2, 14778, Note_on_c, 0, 65, 0
2, 14787, Note_on_c, 0, 74, 0
2, 14800, Note_on_c, 0, 77, 0
2, 14809, Note_on_c, 0, 76, 63
2, 14872, Note_on_c, 0, 76, 0
2, 14886, Note_on_c, 0, 77, 71
2, 14901, Note_on_c, 0, 62, 62
2, 14934, Note_on_c, 0, 62, 0
2, 14956, Note_on_c, 0, 77, 0
2, 14970, Note_on_c, 0, 76, 65
2, 15023, Note_on_c, 0, 76, 0
2, 15042, Note_on_c, 0, 77, 63
2, 15057, Note_on_c, 0, 57, 60
2, 15117, Note_on_c, 0, 57, 0
2, 15125, Note_on_c, 0, 77, 0
2, 15134, Note_on_c, 0, 76, 68
2, 15198, Note_on_c, 0, 76, 0
2, 15216, Note_on_c, 0, 77, 69
2, 15228, Note_on_c, 0, 59, 65
2, 15268, Note_on_c, 0, 59, 0
2, 15295, Note_on_c, 0, 77, 0
2, 15298, Note_on_c, 0, 76, 67
2, 15378, Note_on_c, 0, 76, 0
2, 15384, Note_on_c, 0, 74, 66
2, 15390, Note_on_c, 0, 62, 63
2, 15423, Note_on_c, 0, 62, 0
2, 15445, Note_on_c, 0, 74, 0
2, 15467, Note_on_c, 0, 72, 64
2, 15537, Note_on_c, 0, 72, 0
2, 15543, Note_on_c, 0, 71, 71
2, 15546, Note_on_c, 0, 67, 65
2, 15584, Note_on_c, 0, 67, 0
2, 15611, Note_on_c, 0, 71, 0
2, 15622, Control_c, 0, 64, 39
2, 15622, Note_on_c, 0, 69, 74
2, 15638, Control_c, 0, 64, 56
2, 15653, Control_c, 0, 64, 64
2, 15661, Note_on_c, 0, 69, 0
2, 15668, Control_c, 0, 64, 67
2, 15684, Control_c, 0, 64, 69
2, 15699, Control_c, 0, 64, 69
2, 15707, Note_on_c, 0, 60, 71
2, 15715, Control_c, 0, 64, 66
2, 15717, Note_on_c, 0, 76, 80
2, 15726, Note_on_c, 0, 72, 70
2, 15728, Note_on_c, 0, 67, 65
2, 15730, Control_c, 0, 64, 62
2, 15744, Control_c, 0, 64, 48
2, 15760, Control_c, 0, 64, 21
2, 15775, Control_c, 0, 64, 0
2, 15798, Note_on_c, 0, 62, 71
2, 15818, Note_on_c, 0, 60, 0
2, 15887, Note_on_c, 0, 64, 64
2, 15890, Note_on_c, 0, 62, 0
2, 15919, Note_on_c, 0, 64, 0
2, 15937, Note_on_c, 0, 67, 0
2, 16050, Note_on_c, 0, 67, 67
2, 16079, Note_on_c, 0, 67, 0
2, 16153, Note_on_c, 0, 72, 0
2, 16209, Note_on_c, 0, 64, 58
2, 16237, Note_on_c, 0, 64, 0
2, 16249, Note_on_c, 0, 76, 0
2, 16277, Note_on_c, 0, 74, 70
2, 16333, Note_on_c, 0, 74, 0
2, 16365, Note_on_c, 0, 76, 61
2, 16368, Note_on_c, 0, 60, 60
2, 16399, Note_on_c, 0, 60, 0
2, 16413, Note_on_c, 0, 76, 0
2, 16445, Note_on_c, 0, 74, 63
2, 16490, Note_on_c, 0, 74, 0
2, 16535, Note_on_c, 0, 76, 55
2, 16537, Note_on_c, 0, 55, 58
2, 16581, Note_on_c, 0, 55, 0
2, 16586, Note_on_c, 0, 76, 0
2, 16609, Note_on_c, 0, 74, 64
2, 16677, Note_on_c, 0, 74, 0
2, 16709, Note_on_c, 0, 72, 61
2, 16720, Note_on_c, 0, 57, 69
2, 16762, Note_on_c, 0, 57, 0
2, 16768, Note_on_c, 0, 72, 0
2, 16787, Note_on_c, 0, 79, 66
2, 16863, Note_on_c, 0, 79, 0
2, 16878, Note_on_c, 0, 77, 71
2, 16892, Note_on_c, 0, 60, 72
2, 16928, Note_on_c, 0, 60, 0
2, 16956, Note_on_c, 0, 76, 65
2, 16965, Note_on_c, 0, 77, 0
2, 17050, Note_on_c, 0, 76, 0
2, 17056, Note_on_c, 0, 74, 68
2, 17062, Note_on_c, 0, 65, 72
2, 17101, Note_on_c, 0, 65, 0
2, 17120, Note_on_c, 0, 74, 0
2, 17141, Note_on_c, 0, 72, 68
2, 17226, Note_on_c, 0, 71, 69
2, 17229, Note_on_c, 0, 72, 0
2, 17234, Note_on_c, 0, 55, 71
2, 17289, Note_on_c, 0, 55, 0
2, 17297, Note_on_c, 0, 71, 0
2, 17302, Note_on_c, 0, 76, 67
2, 17389, Note_on_c, 0, 74, 74
2, 17398, Note_on_c, 0, 76, 0
2, 17401, Note_on_c, 0, 59, 73
2, 17448, Note_on_c, 0, 59, 0
2, 17484, Note_on_c, 0, 72, 77
2, 17509, Note_on_c, 0, 74, 0
2, 17575, Note_on_c, 0, 71, 79
2, 17576, Note_on_c, 0, 62, 73
2, 17580, Note_on_c, 0, 72, 0
2, 17609, Note_on_c, 0, 62, 0
2, 17646, Note_on_c, 0, 71, 0
2, 17662, Note_on_c, 0, 69, 71
2, 17740, Note_on_c, 0, 65, 80
2, 17745, Note_on_c, 0, 67, 79
2, 17753, Note_on_c, 0, 69, 0
2, 17789, Note_on_c, 0, 65, 0
2, 17813, Note_on_c, 0, 67, 0
2, 17823, Note_on_c, 0, 72, 69
2, 17906, Note_on_c, 0, 71, 76
2, 17907, Note_on_c, 0, 72, 0
2, 17913, Note_on_c, 0, 62, 69
2, 17948, Note_on_c, 0, 62, 0
2, 17995, Note_on_c, 0, 69, 73
2, 18021, Note_on_c, 0, 71, 0
2, 18082, Note_on_c, 0, 59, 68
2, 18084, Note_on_c, 0, 69, 0
2, 18087, Note_on_c, 0, 67, 75
2, 18121, Note_on_c, 0, 59, 0
2, 18150, Note_on_c, 0, 67, 0
2, 18167, Note_on_c, 0, 65, 70
2, 18263, Note_on_c, 0, 64, 74
2, 18264, Note_on_c, 0, 65, 0
2, 18265, Note_on_c, 0, 55, 73
2, 18299, Note_on_c, 0, 55, 0
2, 18331, Note_on_c, 0, 64, 0
2, 18338, Note_on_c, 0, 69, 79
2, 18426, Note_on_c, 0, 67, 78
2, 18432, Note_on_c, 0, 69, 0
2, 18434, Note_on_c, 0, 59, 73
2, 18463, Note_on_c, 0, 59, 0
2, 18512, Note_on_c, 0, 65, 74
2, 18530, Note_on_c, 0, 67, 0
2, 18595, Note_on_c, 0, 55, 73
2, 18604, Note_on_c, 0, 64, 78
2, 18604, Note_on_c, 0, 65, 0
2, 18624, Note_on_c, 0, 55, 0
2, 18668, Note_on_c, 0, 64, 0
2, 18686, Note_on_c, 0, 62, 79
2, 18694, Control_c, 0, 64, 24
2, 18709, Control_c, 0, 64, 55
2, 18725, Control_c, 0, 64, 65
2, 18734, Note_on_c, 0, 62, 0
2, 18739, Control_c, 0, 64, 72
2, 18753, Note_on_c, 0, 60, 66
2, 18755, Control_c, 0, 64, 88
2, 18770, Control_c, 0, 64, 127
2, 18770, Note_on_c, 0, 64, 75
2, 18788, Note_on_c, 0, 59, 90
2, 18794, Note_on_c, 0, 60, 0
2, 18801, Control_c, 0, 64, 91
2, 18807, Note_on_c, 0, 64, 0
2, 18815, Control_c, 0, 64, 68
2, 18830, Control_c, 0, 64, 43
2, 18846, Control_c, 0, 64, 0
2, 18857, Note_on_c, 0, 65, 83
2, 18858, Note_on_c, 0, 59, 0
2, 18877, Note_on_c, 0, 60, 85
2, 18918, Note_on_c, 0, 65, 0
2, 18944, Note_on_c, 0, 67, 85
2, 18987, Note_on_c, 0, 67, 0
2, 19118, Note_on_c, 0, 72, 81
2, 19150, Note_on_c, 0, 72, 0
2, 19287, Note_on_c, 0, 67, 81
2, 19319, Note_on_c, 0, 60, 0
2, 19322, Note_on_c, 0, 67, 0
2, 19347, Note_on_c, 0, 57, 68
2, 19419, Note_on_c, 0, 57, 0
2, 19444, Note_on_c, 0, 64, 83
2, 19446, Note_on_c, 0, 55, 71
2, 19487, Note_on_c, 0, 64, 0
2, 19508, Note_on_c, 0, 55, 0
2, 19517, Note_on_c, 0, 53, 74
2, 19603, Note_on_c, 0, 60, 84
2, 19612, Note_on_c, 0, 52, 68
2, 19636, Note_on_c, 0, 53, 0
2, 19641, Note_on_c, 0, 60, 0
2, 19685, Note_on_c, 0, 52, 0
2, 19689, Note_on_c, 0, 50, 66
2, 19783, Note_on_c, 0, 50, 0
2, 19789, Note_on_c, 0, 48, 68
2, 19793, Note_on_c, 0, 64, 76
2, 19847, Note_on_c, 0, 64, 0
2, 19859, Note_on_c, 0, 50, 59
2, 19945, Note_on_c, 0, 52, 67
2, 19957, Note_on_c, 0, 67, 82
2, 19995, Note_on_c, 0, 50, 0
2, 20004, Note_on_c, 0, 67, 0
2, 20032, Note_on_c, 0, 53, 71
2, 20067, Note_on_c, 0, 52, 0
2, 20123, Note_on_c, 0, 55, 75
2, 20123, Note_on_c, 0, 72, 86
2, 20126, Note_on_c, 0, 53, 0
2, 20163, Note_on_c, 0, 72, 0
2, 20200, Note_on_c, 0, 52, 77
2, 20200, Note_on_c, 0, 55, 0
2, 20283, Note_on_c, 0, 65, 81
2, 20296, Note_on_c, 0, 57, 77
2, 20302, Note_on_c, 0, 52, 0
2, 20327, Note_on_c, 0, 65, 0
2, 20362, Note_on_c, 0, 67, 84
2, 20418, Note_on_c, 0, 67, 0
2, 20447, Note_on_c, 0, 69, 85
2, 20494, Note_on_c, 0, 69, 0
2, 20621, Note_on_c, 0, 72, 79
2, 20648, Note_on_c, 0, 72, 0
2, 20748, Note_on_c, 0, 48, 0
2, 20780, Note_on_c, 0, 69, 83
2, 20806, Note_on_c, 0, 57, 0
2, 20822, Note_on_c, 0, 69, 0
2, 20872, Note_on_c, 0, 48, 67
2, 20942, Note_on_c, 0, 50, 68
2, 20947, Note_on_c, 0, 65, 77
2, 21003, Note_on_c, 0, 65, 0
2, 21020, Note_on_c, 0, 52, 68
2, 21061, Note_on_c, 0, 50, 0
2, 21097, Note_on_c, 0, 53, 73
2, 21120, Note_on_c, 0, 52, 0
2, 21121, Note_on_c, 0, 60, 86
2, 21159, Note_on_c, 0, 60, 0
2, 21171, Note_on_c, 0, 53, 0
2, 21186, Note_on_c, 0, 55, 72
2, 21269, Note_on_c, 0, 55, 0
2, 21269, Note_on_c, 0, 57, 75
2, 21295, Note_on_c, 0, 65, 83
2, 21332, Note_on_c, 0, 57, 0
2, 21345, Note_on_c, 0, 65, 0
2, 21363, Note_on_c, 0, 55, 75
2, 21434, Note_on_c, 0, 55, 0
2, 21444, Note_on_c, 0, 53, 74
2, 21459, Note_on_c, 0, 69, 88
2, 21501, Note_on_c, 0, 69, 0
2, 21524, Note_on_c, 0, 52, 74
2, 21527, Note_on_c, 0, 48, 0
2, 21549, Note_on_c, 0, 53, 0
2, 21613, Note_on_c, 0, 50, 72
2, 21627, Note_on_c, 0, 72, 88
2, 21654, Note_on_c, 0, 52, 0
2, 21666, Note_on_c, 0, 72, 0
2, 21689, Note_on_c, 0, 48, 69
2, 21703, Note_on_c, 0, 50, 0
2, 21788, Note_on_c, 0, 50, 70
2, 21793, Note_on_c, 0, 71, 84
2, 21848, Note_on_c, 0, 71, 0
2, 21865, Note_on_c, 0, 72, 83
2, 21943, Note_on_c, 0, 72, 0
2, 21947, Note_on_c, 0, 74, 87
2, 21984, Note_on_c, 0, 74, 0
2, 22130, Note_on_c, 0, 77, 88
2, 22168, Note_on_c, 0, 77, 0
2, 22302, Note_on_c, 0, 47, 59
2, 22308, Note_on_c, 0, 74, 77
2, 22309, Note_on_c, 0, 50, 0
2, 22329, Note_on_c, 0, 48, 0
2, 22352, Note_on_c, 0, 74, 0
2, 22393, Note_on_c, 0, 52, 63
2, 22396, Note_on_c, 0, 47, 0
2, 22473, Note_on_c, 0, 52, 0
2, 22482, Note_on_c, 0, 71, 82
2, 22489, Note_on_c, 0, 50, 67
2, 22533, Note_on_c, 0, 71, 0
2, 22553, Note_on_c, 0, 50, 0
2, 22567, Note_on_c, 0, 48, 68
2, 22643, Note_on_c, 0, 47, 57
2, 22664, Note_on_c, 0, 67, 91
2, 22666, Note_on_c, 0, 48, 0
2, 22719, Note_on_c, 0, 67, 0
2, 22737, Note_on_c, 0, 45, 70
2, 22756, Note_on_c, 0, 47, 0
2, 22837, Note_on_c, 0, 43, 71
2, 22841, Note_on_c, 0, 45, 0
2, 22847, Note_on_c, 0, 71, 91
2, 22898, Note_on_c, 0, 71, 0
2, 22928, Note_on_c, 0, 45, 74
2, 22934, Note_on_c, 0, 43, 0
2, 23007, Note_on_c, 0, 45, 0
2, 23009, Note_on_c, 0, 74, 90
2, 23019, Note_on_c, 0, 43, 77
2, 23046, Note_on_c, 0, 74, 0
2, 23089, Note_on_c, 0, 43, 0
2, 23091, Note_on_c, 0, 41, 84
2, 23181, Note_on_c, 0, 40, 78
2, 23186, Note_on_c, 0, 41, 0
2, 23196, Note_on_c, 0, 77, 96
2, 23250, Note_on_c, 0, 40, 0
2, 23253, Note_on_c, 0, 38, 72
2, 23277, Note_on_c, 0, 77, 0
2, 23367, Note_on_c, 0, 36, 69
2, 23369, Note_on_c, 0, 76, 83
2, 23370, Note_on_c, 0, 38, 0
2, 23454, Note_on_c, 0, 74, 84
2, 23539, Note_on_c, 0, 72, 82
2, 23566, Note_on_c, 0, 74, 0
2, 23588, Note_on_c, 0, 36, 0
2, 23632, Note_on_c, 0, 71, 73
2, 23632, Note_on_c, 0, 72, 0
2, 23709, Note_on_c, 0, 71, 0
2, 23717, Note_on_c, 0, 72, 74
2, 23808, Note_on_c, 0, 67, 75
2, 23874, Note_on_c, 0, 64, 67
2, 23950, Note_on_c, 0, 64, 0
2, 23957, Note_on_c, 0, 62, 68
2, 24037, Note_on_c, 0, 62, 0
2, 24047, Note_on_c, 0, 60, 67
2, 24116, Note_on_c, 0, 60, 0
2, 24122, Note_on_c, 0, 59, 71
2, 24180, Note_on_c, 0, 59, 0
2, 24214, Note_on_c, 0, 60, 67
2, 24262, Note_on_c, 0, 60, 0
2, 24298, Note_on_c, 0, 55, 71
2, 24374, Note_on_c, 0, 55, 0
2, 24384, Note_on_c, 0, 52, 65
2, 24446, Note_on_c, 0, 52, 0
2, 24465, Note_on_c, 0, 55, 69
2, 24534, Note_on_c, 0, 55, 0
2, 24539, Note_on_c, 0, 53, 68
2, 24565, Note_on_c, 0, 72, 0
2, 24595, Note_on_c, 0, 76, 0
2, 24624, Note_on_c, 0, 53, 0
2, 24626, Note_on_c, 0, 52, 68
2, 24691, Note_on_c, 0, 50, 58
2, 24698, Note_on_c, 0, 52, 0
2, 24757, Note_on_c, 0, 50, 0
2, 24767, Note_on_c, 0, 67, 0
2, 24770, Note_on_c, 0, 48, 61
2, 24855, Note_on_c, 0, 75, 68
2, 24863, Note_on_c, 0, 54, 66
2, 24865, Note_on_c, 0, 48, 0
2, 24896, Note_on_c, 0, 54, 0
2, 24944, Note_on_c, 0, 69, 63
2, 25001, Note_on_c, 0, 69, 0
2, 25033, Note_on_c, 0, 70, 57
2, 25036, Note_on_c, 0, 54, 54
2, 25070, Note_on_c, 0, 54, 0
2, 25087, Note_on_c, 0, 70, 0
2, 25117, Note_on_c, 0, 72, 65
2, 25120, Control_c, 0, 67, 8
2, 25135, Control_c, 0, 67, 16
2, 25150, Control_c, 0, 67, 22
2, 25166, Control_c, 0, 67, 24
2, 25196, Control_c, 0, 67, 23
2, 25211, Control_c, 0, 67, 21
2, 25211, Note_on_c, 0, 54, 53
2, 25212, Note_on_c, 0, 70, 59
2, 25216, Note_on_c, 0, 72, 0
2, 25225, Control_c, 0, 67, 19
2, 25241, Control_c, 0, 67, 18
2, 25256, Control_c, 0, 67, 16
2, 25259, Note_on_c, 0, 54, 0
2, 25269, Note_on_c, 0, 70, 0
2, 25272, Control_c, 0, 67, 15
2, 25292, Note_on_c, 0, 69, 58
2, 25332, Control_c, 0, 67, 14
2, 25363, Note_on_c, 0, 69, 0
2, 25378, Control_c, 0, 67, 15
2, 25381, Note_on_c, 0, 54, 60
2, 25384, Note_on_c, 0, 74, 67
2, 25415, Note_on_c, 0, 75, 0
2, 25423, Note_on_c, 0, 54, 0
2, 25474, Note_on_c, 0, 69, 63
2, 25500, Control_c, 0, 67, 14
2, 25516, Control_c, 0, 67, 14
2, 25524, Note_on_c, 0, 69, 0
2, 25531, Control_c, 0, 67, 13
2, 25546, Control_c, 0, 67, 13
2, 25562, Control_c, 0, 67, 12
2, 25562, Note_on_c, 0, 70, 62
2, 25571, Note_on_c, 0, 54, 54
2, 25577, Control_c, 0, 67, 11
2, 25593, Control_c, 0, 67, 9
2, 25607, Note_on_c, 0, 54, 0
2, 25608, Control_c, 0, 67, 9
2, 25621, Note_on_c, 0, 70, 0
2, 25639, Control_c, 0, 67, 8
2, 25645, Note_on_c, 0, 72, 67
2, 25684, Control_c, 0, 67, 8
2, 25719, Note_on_c, 0, 74, 0
2, 25734, Note_on_c, 0, 72, 0
2, 25736, Note_on_c, 0, 70, 75
2, 25744, Note_on_c, 0, 54, 58
2, 25785, Note_on_c, 0, 54, 0
2, 25801, Note_on_c, 0, 70, 0
2, 25819, Note_on_c, 0, 69, 74
2, 25851, Control_c, 0, 67, 0
2, 25907, Note_on_c, 0, 69, 0
2, 25920, Note_on_c, 0, 54, 60
2, 25927, Note_on_c, 0, 81, 75
2, 25962, Note_on_c, 0, 54, 0
2, 25975, Note_on_c, 0, 81, 0
2, 26020, Note_on_c, 0, 69, 69
2, 26079, Note_on_c, 0, 69, 0
2, 26085, Note_on_c, 0, 70, 70
2, 26092, Note_on_c, 0, 54, 56
2, 26130, Note_on_c, 0, 54, 0
2, 26158, Note_on_c, 0, 70, 0
2, 26176, Note_on_c, 0, 72, 72
2, 26249, Note_on_c, 0, 54, 57
2, 26251, Note_on_c, 0, 72, 0
2, 26262, Note_on_c, 0, 70, 69
2, 26293, Note_on_c, 0, 54, 0
2, 26322, Note_on_c, 0, 70, 0
2, 26342, Note_on_c, 0, 69, 69
2, 26417, Note_on_c, 0, 55, 58
2, 26418, Note_on_c, 0, 69, 0
2, 26433, Note_on_c, 0, 70, 70
2, 26503, Note_on_c, 0, 69, 64
2, 26580, Note_on_c, 0, 69, 0
2, 26583, Note_on_c, 0, 67, 70
2, 26676, Note_on_c, 0, 67, 0
2, 26682, Note_on_c, 0, 66, 70
2, 26764, Note_on_c, 0, 66, 0
2, 26772, Note_on_c, 0, 67, 69
2, 26783, Note_on_c, 0, 55, 0
2, 26848, Note_on_c, 0, 62, 67
2, 26955, Note_on_c, 0, 58, 66
2, 27020, Note_on_c, 0, 58, 0
2, 27042, Note_on_c, 0, 57, 68
2, 27113, Note_on_c, 0, 57, 0
2, 27122, Note_on_c, 0, 55, 71
2, 27207, Note_on_c, 0, 55, 0
2, 27208, Note_on_c, 0, 54, 76
2, 27278, Note_on_c, 0, 54, 0
2, 27293, Note_on_c, 0, 55, 70
2, 27347, Note_on_c, 0, 55, 0
2, 27375, Note_on_c, 0, 50, 70
2, 27454, Note_on_c, 0, 50, 0
2, 27466, Note_on_c, 0, 46, 64
2, 27546, Note_on_c, 0, 46, 0
2, 27548, Note_on_c, 0, 50, 71
2, 27613, Note_on_c, 0, 70, 0
2, 27618, Note_on_c, 0, 67, 0
2, 27629, Note_on_c, 0, 50, 0
2, 27640, Note_on_c, 0, 48, 69
2, 27695, Note_on_c, 0, 62, 0
2, 27719, Note_on_c, 0, 46, 66
2, 27719, Note_on_c, 0, 48, 0
2, 27798, Note_on_c, 0, 46, 0
2, 27800, Note_on_c, 0, 45, 60
2, 27875, Note_on_c, 0, 45, 0
2, 27887, Note_on_c, 0, 43, 64
2, 27977, Note_on_c, 0, 70, 56
2, 27985, Note_on_c, 0, 43, 0
2, 28056, Note_on_c, 0, 64, 52
2, 28078, Control_c, 0, 67, 16
2, 28093, Control_c, 0, 67, 25
2, 28101, Note_on_c, 0, 64, 0
2, 28108, Control_c, 0, 67, 43
2, 28123, Control_c, 0, 67, 61
2, 28138, Control_c, 0, 67, 77
2, 28147, Note_on_c, 0, 65, 51
2, 28154, Control_c, 0, 67, 88
2, 28173, Note_on_c, 0, 49, 48
2, 28176, Control_c, 0, 67, 100
2, 28192, Control_c, 0, 67, 113
2, 28198, Note_on_c, 0, 65, 0
2, 28204, Note_on_c, 0, 49, 0
2, 28207, Control_c, 0, 67, 127
2, 28240, Note_on_c, 0, 67, 54
2, 28322, Note_on_c, 0, 65, 52
2, 28322, Note_on_c, 0, 67, 0
2, 28332, Note_on_c, 0, 49, 36
2, 28371, Note_on_c, 0, 65, 0
2, 28374, Note_on_c, 0, 49, 0
2, 28405, Note_on_c, 0, 64, 52
2, 28453, Note_on_c, 0, 64, 0
2, 28487, Note_on_c, 0, 49, 49
2, 28488, Note_on_c, 0, 69, 64
2, 28523, Note_on_c, 0, 70, 0
2, 28526, Note_on_c, 0, 49, 0
2, 28567, Note_on_c, 0, 64, 57
2, 28608, Note_on_c, 0, 64, 0
2, 28653, Note_on_c, 0, 49, 43
2, 28660, Note_on_c, 0, 65, 52
2, 28695, Note_on_c, 0, 49, 0
2, 28701, Note_on_c, 0, 65, 0
2, 28738, Note_on_c, 0, 67, 60
2, 28811, Note_on_c, 0, 69, 0
2, 28817, Note_on_c, 0, 67, 0
2, 28826, Note_on_c, 0, 65, 57
2, 28830, Note_on_c, 0, 49, 45
2, 28867, Note_on_c, 0, 65, 0
2, 28868, Note_on_c, 0, 49, 0
2, 28888, Note_on_c, 0, 64, 62
2, 28966, Note_on_c, 0, 64, 0
2, 28994, Note_on_c, 0, 49, 47
2, 29000, Note_on_c, 0, 76, 70
2, 29036, Note_on_c, 0, 49, 0
2, 29041, Note_on_c, 0, 76, 0
2, 29086, Note_on_c, 0, 64, 53
2, 29130, Note_on_c, 0, 64, 0
2, 29161, Note_on_c, 0, 49, 49
2, 29164, Note_on_c, 0, 65, 54
2, 29204, Note_on_c, 0, 49, 0
2, 29218, Note_on_c, 0, 65, 0
2, 29237, Note_on_c, 0, 67, 64
2, 29326, Note_on_c, 0, 67, 0
2, 29329, Note_on_c, 0, 49, 53
2, 29340, Note_on_c, 0, 65, 65
2, 29362, Note_on_c, 0, 49, 0
2, 29382, Note_on_c, 0, 65, 0
2, 29411, Note_on_c, 0, 64, 67
2, 29456, Note_on_c, 0, 64, 0
2, 29504, Note_on_c, 0, 65, 78
2, 29515, Note_on_c, 0, 50, 65
2, 29567, Control_c, 0, 67, 126
2, 29582, Control_c, 0, 67, 119
2, 29584, Note_on_c, 0, 52, 65
2, 29598, Control_c, 0, 67, 102
2, 29613, Control_c, 0, 67, 73
2, 29628, Control_c, 0, 67, 33
2, 29644, Control_c, 0, 67, 0
2, 29646, Note_on_c, 0, 50, 0
2, 29675, Note_on_c, 0, 53, 70
2, 29694, Note_on_c, 0, 52, 0
2, 29729, Note_on_c, 0, 53, 0
2, 29863, Note_on_c, 0, 57, 65
2, 29892, Note_on_c, 0, 57, 0
2, 30022, Note_on_c, 0, 53, 70
2, 30055, Note_on_c, 0, 53, 0
2, 30081, Note_on_c, 0, 65, 0
2, 30098, Note_on_c, 0, 64, 64
2, 30150, Note_on_c, 0, 64, 0
2, 30186, Note_on_c, 0, 65, 73
2, 30190, Note_on_c, 0, 50, 65
2, 30224, Note_on_c, 0, 50, 0
2, 30252, Note_on_c, 0, 65, 0
2, 30258, Note_on_c, 0, 69, 72
2, 30330, Note_on_c, 0, 69, 0
2, 30349, Note_on_c, 0, 74, 72
2, 30358, Note_on_c, 0, 45, 70
2, 30378, Note_on_c, 0, 74, 0
2, 30416, Note_on_c, 0, 45, 0
2, 30428, Note_on_c, 0, 69, 73
2, 30507, Note_on_c, 0, 69, 0
2, 30527, Note_on_c, 0, 77, 84
2, 30530, Note_on_c, 0, 50, 70
2, 30578, Note_on_c, 0, 50, 0
2, 30607, Note_on_c, 0, 76, 82
2, 30638, Note_on_c, 0, 77, 0
2, 30700, Note_on_c, 0, 76, 0
2, 30704, Note_on_c, 0, 74, 80
2, 30707, Note_on_c, 0, 53, 68
2, 30744, Note_on_c, 0, 53, 0
2, 30771, Note_on_c, 0, 74, 0
2, 30783, Note_on_c, 0, 72, 76
2, 30859, Note_on_c, 0, 57, 66
2, 30866, Note_on_c, 0, 72, 0
2, 30868, Note_on_c, 0, 71, 78
2, 30891, Control_c, 0, 64, 13
2, 30906, Control_c, 0, 64, 47
2, 30916, Note_on_c, 0, 71, 0
2, 30922, Control_c, 0, 64, 60
2, 30931, Note_on_c, 0, 57, 0
2, 30936, Control_c, 0, 64, 67
2, 30949, Note_on_c, 0, 69, 80
2, 30952, Control_c, 0, 64, 73
2, 30967, Control_c, 0, 64, 86
2, 30981, Control_c, 0, 64, 112
2, 30997, Control_c, 0, 64, 127
2, 31029, Note_on_c, 0, 50, 79
2, 31047, Note_on_c, 0, 80, 90
2, 31077, Note_on_c, 0, 69, 0
2, 31088, Control_c, 0, 64, 91
2, 31101, Note_on_c, 0, 52, 72
2, 31103, Control_c, 0, 64, 72
2, 31119, Control_c, 0, 64, 58
2, 31133, Control_c, 0, 64, 27
2, 31148, Control_c, 0, 64, 12
2, 31171, Note_on_c, 0, 50, 0
2, 31179, Control_c, 0, 64, 11
2, 31181, Note_on_c, 0, 53, 80
2, 31194, Control_c, 0, 64, 0
2, 31206, Note_on_c, 0, 52, 0
2, 31262, Note_on_c, 0, 53, 0
2, 31372, Note_on_c, 0, 56, 72
2, 31406, Note_on_c, 0, 56, 0
2, 31535, Note_on_c, 0, 53, 75
2, 31594, Note_on_c, 0, 53, 0
2, 31621, Note_on_c, 0, 80, 0
2, 31621, Note_on_c, 0, 81, 78
2, 31699, Note_on_c, 0, 50, 73
2, 31704, Note_on_c, 0, 83, 83
2, 31721, Note_on_c, 0, 81, 0
2, 31746, Note_on_c, 0, 50, 0
2, 31789, Note_on_c, 0, 81, 72
2, 31839, Note_on_c, 0, 83, 0
2, 31854, Note_on_c, 0, 47, 75
2, 31876, Note_on_c, 0, 80, 84
2, 31902, Note_on_c, 0, 81, 0
2, 31914, Note_on_c, 0, 47, 0
2, 31961, Note_on_c, 0, 78, 79
2, 31984, Note_on_c, 0, 80, 0
2, 32041, Note_on_c, 0, 50, 76
2, 32044, Note_on_c, 0, 76, 73
2, 32046, Note_on_c, 0, 78, 0
2, 32093, Note_on_c, 0, 50, 0
2, 32104, Note_on_c, 0, 76, 0
2, 32127, Note_on_c, 0, 77, 81
2, 32202, Note_on_c, 0, 53, 79
2, 32208, Note_on_c, 0, 76, 84
2, 32229, Note_on_c, 0, 77, 0
2, 32263, Note_on_c, 0, 53, 0
2, 32288, Note_on_c, 0, 74, 75
2, 32326, Note_on_c, 0, 76, 0
2, 32372, Note_on_c, 0, 72, 80
2, 32373, Note_on_c, 0, 56, 78
2, 32385, Note_on_c, 0, 74, 0
2, 32421, Note_on_c, 0, 56, 0
2, 32440, Note_on_c, 0, 72, 0
2, 32444, Note_on_c, 0, 71, 83
2, 32518, Note_on_c, 0, 71, 0
2, 32532, Note_on_c, 0, 69, 85
2, 32538, Note_on_c, 0, 48, 75
2, 32581, Note_on_c, 0, 69, 0
2, 32615, Note_on_c, 0, 71, 86
2, 32668, Note_on_c, 0, 71, 0
2, 32704, Note_on_c, 0, 72, 83
2, 32743, Note_on_c, 0, 72, 0
2, 32843, Note_on_c, 0, 48, 0
2, 32873, Note_on_c, 0, 76, 81
2, 32904, Note_on_c, 0, 76, 0
2, 33039, Note_on_c, 0, 72, 85
2, 33040, Note_on_c, 0, 57, 67
2, 33076, Note_on_c, 0, 72, 0
2, 33095, Note_on_c, 0, 57, 0
2, 33117, Note_on_c, 0, 56, 70
2, 33180, Note_on_c, 0, 56, 0
2, 33196, Note_on_c, 0, 69, 87
2, 33202, Note_on_c, 0, 57, 71
2, 33235, Note_on_c, 0, 69, 0
2, 33267, Note_on_c, 0, 57, 0
2, 33285, Note_on_c, 0, 56, 75
2, 33354, Note_on_c, 0, 56, 0
2, 33360, Note_on_c, 0, 64, 82
2, 33370, Note_on_c, 0, 57, 73
2, 33408, Note_on_c, 0, 64, 0
2, 33435, Note_on_c, 0, 57, 0
2, 33446, Note_on_c, 0, 56, 75
2, 33513, Note_on_c, 0, 56, 0
2, 33520, Note_on_c, 0, 76, 69
2, 33554, Note_on_c, 0, 57, 68
2, 33589, Note_on_c, 0, 57, 0
2, 33609, Note_on_c, 0, 74, 83
2, 33621, Note_on_c, 0, 76, 0
2, 33694, Note_on_c, 0, 72, 79
2, 33708, Note_on_c, 0, 52, 71
2, 33728, Note_on_c, 0, 74, 0
2, 33759, Note_on_c, 0, 52, 0
2, 33772, Note_on_c, 0, 71, 81
2, 33784, Note_on_c, 0, 72, 0
2, 33829, Note_on_c, 0, 71, 0
2, 33852, Note_on_c, 0, 69, 74
2, 33864, Note_on_c, 0, 48, 62
2, 33896, Note_on_c, 0, 48, 0
2, 33919, Note_on_c, 0, 69, 0
2, 33927, Note_on_c, 0, 68, 80
2, 33933, Control_c, 0, 64, 30
2, 33948, Control_c, 0, 64, 40
2, 33963, Control_c, 0, 64, 44
2, 33978, Control_c, 0, 64, 44
2, 33987, Note_on_c, 0, 68, 0
2, 34014, Note_on_c, 0, 69, 75
2, 34038, Note_on_c, 0, 41, 80
2, 34054, Control_c, 0, 64, 44
2, 34057, Note_on_c, 0, 69, 0
2, 34069, Control_c, 0, 64, 43
2, 34082, Note_on_c, 0, 71, 79
2, 34084, Control_c, 0, 64, 42
2, 34099, Control_c, 0, 64, 40
2, 34110, Note_on_c, 0, 71, 0
2, 34115, Control_c, 0, 64, 37
2, 34130, Control_c, 0, 64, 33
2, 34145, Control_c, 0, 64, 31
2, 34160, Control_c, 0, 64, 29
2, 34163, Note_on_c, 0, 72, 78
2, 34175, Control_c, 0, 64, 26
2, 34190, Control_c, 0, 64, 21
2, 34206, Control_c, 0, 64, 17
2, 34221, Control_c, 0, 64, 13
2, 34221, Note_on_c, 0, 78, 4
2, 34224, Note_on_c, 0, 72, 0
2, 34236, Control_c, 0, 64, 12
2, 34251, Control_c, 0, 64, 11
2, 34266, Control_c, 0, 64, 0
2, 34272, Note_on_c, 0, 78, 0
2, 34315, Note_on_c, 0, 41, 0
2, 34359, Note_on_c, 0, 81, 86
2, 34409, Note_on_c, 0, 81, 0
2, 34526, Note_on_c, 0, 57, 61
2, 34532, Note_on_c, 0, 76, 84
2, 34557, Note_on_c, 0, 76, 0
2, 34583, Note_on_c, 0, 57, 0
2, 34602, Note_on_c, 0, 56, 66
2, 34676, Note_on_c, 0, 56, 0
2, 34687, Note_on_c, 0, 57, 74
2, 34691, Note_on_c, 0, 72, 91
2, 34730, Note_on_c, 0, 72, 0
2, 34753, Note_on_c, 0, 57, 0
2, 34768, Note_on_c, 0, 56, 73
2, 34846, Note_on_c, 0, 56, 0
2, 34857, Note_on_c, 0, 57, 75
2, 34862, Note_on_c, 0, 69, 84
2, 34911, Note_on_c, 0, 69, 0
2, 34925, Note_on_c, 0, 57, 0
2, 34945, Note_on_c, 0, 56, 79
2, 35018, Note_on_c, 0, 56, 0
2, 35027, Note_on_c, 0, 81, 83
2, 35034, Note_on_c, 0, 57, 74
2, 35059, Note_on_c, 0, 57, 0
2, 35113, Note_on_c, 0, 79, 83
2, 35159, Note_on_c, 0, 81, 0
2, 35193, Note_on_c, 0, 77, 83
2, 35208, Note_on_c, 0, 59, 65
2, 35237, Note_on_c, 0, 79, 0
2, 35249, Note_on_c, 0, 59, 0
2, 35275, Note_on_c, 0, 76, 82
2, 35287, Note_on_c, 0, 77, 0
2, 35339, Note_on_c, 0, 76, 0
2, 35356, Note_on_c, 0, 74, 78
2, 35370, Note_on_c, 0, 60, 67
2, 35408, Note_on_c, 0, 60, 0
2, 35437, Note_on_c, 0, 72, 81
2, 35449, Note_on_c, 0, 74, 0
2, 35514, Note_on_c, 0, 72, 0
2, 35516, Note_on_c, 0, 77, 80
2, 35528, Note_on_c, 0, 50, 68
2, 35580, Note_on_c, 0, 50, 0
2, 35595, Note_on_c, 0, 76, 79
2, 35618, Note_on_c, 0, 77, 0
2, 35676, Note_on_c, 0, 74, 73
2, 35700, Note_on_c, 0, 52, 61
2, 35716, Note_on_c, 0, 76, 0
2, 35737, Note_on_c, 0, 52, 0
2, 35767, Note_on_c, 0, 72, 72
2, 35770, Note_on_c, 0, 74, 0
2, 35835, Note_on_c, 0, 72, 0
2, 35853, Note_on_c, 0, 71, 69
2, 35867, Note_on_c, 0, 53, 62
2, 35907, Note_on_c, 0, 53, 0
2, 35935, Note_on_c, 0, 69, 68
2, 35941, Note_on_c, 0, 71, 0
2, 36006, Note_on_c, 0, 69, 0
2, 36011, Note_on_c, 0, 74, 68
2, 36024, Note_on_c, 0, 47, 56
2, 36070, Note_on_c, 0, 47, 0
2, 36085, Note_on_c, 0, 74, 0
2, 36090, Note_on_c, 0, 72, 72
2, 36174, Note_on_c, 0, 71, 66
2, 36185, Note_on_c, 0, 72, 0
2, 36200, Note_on_c, 0, 48, 54
2, 36228, Note_on_c, 0, 71, 0
2, 36239, Note_on_c, 0, 48, 0
2, 36240, Note_on_c, 0, 69, 69
2, 36327, Note_on_c, 0, 69, 0
2, 36331, Note_on_c, 0, 68, 68
2, 36357, Note_on_c, 0, 50, 57
2, 36395, Note_on_c, 0, 50, 0
2, 36410, Note_on_c, 0, 66, 68
2, 36423, Note_on_c, 0, 68, 0
2, 36510, Note_on_c, 0, 71, 66
2, 36511, Note_on_c, 0, 44, 63
2, 36523, Note_on_c, 0, 66, 0
2, 36561, Note_on_c, 0, 44, 0
2, 36593, Note_on_c, 0, 69, 71
2, 36599, Note_on_c, 0, 71, 0
2, 36685, Note_on_c, 0, 45, 67
2, 36685, Note_on_c, 0, 68, 73
2, 36725, Note_on_c, 0, 69, 0
2, 36727, Note_on_c, 0, 45, 0
2, 36768, Note_on_c, 0, 66, 73
2, 36806, Note_on_c, 0, 68, 0
2, 36851, Note_on_c, 0, 66, 0
2, 36856, Note_on_c, 0, 47, 68
2, 36864, Note_on_c, 0, 64, 69
2, 36907, Note_on_c, 0, 47, 0
2, 36933, Note_on_c, 0, 64, 0
2, 36936, Note_on_c, 0, 62, 75
2, 37003, Note_on_c, 0, 62, 0
2, 37037, Note_on_c, 0, 64, 74
2, 37052, Note_on_c, 0, 36, 66
2, 37098, Note_on_c, 0, 64, 0
2, 37119, Note_on_c, 0, 69, 72
2, 37207, Note_on_c, 0, 69, 0
2, 37211, Note_on_c, 0, 67, 72
2, 37292, Note_on_c, 0, 65, 65
2, 37301, Note_on_c, 0, 67, 0
2, 37381, Note_on_c, 0, 65, 0
2, 37390, Note_on_c, 0, 64, 64
2, 37456, Note_on_c, 0, 64, 0
2, 37474, Note_on_c, 0, 62, 65
2, 37555, Note_on_c, 0, 62, 0
2, 37563, Note_on_c, 0, 60, 64
2, 37588, Note_on_c, 0, 36, 0
2, 37619, Note_on_c, 0, 60, 0
2, 37636, Note_on_c, 0, 65, 66
2, 37715, Note_on_c, 0, 65, 0
2, 37721, Note_on_c, 0, 64, 70
2, 37724, Note_on_c, 0, 48, 67
2, 37767, Note_on_c, 0, 48, 0
2, 37804, Note_on_c, 0, 62, 63
2, 37805, Note_on_c, 0, 64, 0
2, 37893, Note_on_c, 0, 62, 0
2, 37895, Note_on_c, 0, 50, 65
2, 37895, Note_on_c, 0, 60, 66
2, 37940, Note_on_c, 0, 50, 0
2, 37960, Note_on_c, 0, 60, 0
2, 37979, Note_on_c, 0, 59, 65
2, 38060, Note_on_c, 0, 52, 63
2, 38064, Note_on_c, 0, 59, 0
2, 38070, Note_on_c, 0, 57, 61
2, 38096, Note_on_c, 0, 52, 0
2, 38128, Note_on_c, 0, 57, 0
2, 38138, Note_on_c, 0, 62, 59
2, 38241, Note_on_c, 0, 62, 0
2, 38247, Note_on_c, 0, 60, 61
2, 38250, Note_on_c, 0, 50, 61
2, 38295, Note_on_c, 0, 50, 0
2, 38331, Note_on_c, 0, 60, 0
2, 38336, Note_on_c, 0, 59, 61
2, 38412, Note_on_c, 0, 59, 0
2, 38422, Note_on_c, 0, 52, 61
2, 38430, Note_on_c, 0, 57, 62
2, 38457, Note_on_c, 0, 52, 0
2, 38499, Note_on_c, 0, 57, 0
2, 38509, Note_on_c, 0, 56, 63
2, 38586, Note_on_c, 0, 56, 0
2, 38614, Note_on_c, 0, 57, 58
2, 38618, Note_on_c, 0, 45, 54
2, 38668, Note_on_c, 0, 57, 0
2, 38696, Note_on_c, 0, 59, 59
2, 38764, Note_on_c, 0, 59, 0
2, 38786, Note_on_c, 0, 61, 64
2, 38854, Note_on_c, 0, 61, 0
2, 38874, Note_on_c, 0, 62, 65
2, 38947, Note_on_c, 0, 62, 0
2, 38967, Note_on_c, 0, 64, 57
2, 39017, Note_on_c, 0, 64, 0
2, 39045, Note_on_c, 0, 65, 61
2, 39127, Note_on_c, 0, 65, 0
2, 39136, Note_on_c, 0, 67, 70
2, 39199, Note_on_c, 0, 67, 0
2, 39241, Note_on_c, 0, 47, 51
2, 39298, Note_on_c, 0, 64, 74
2, 39305, Note_on_c, 0, 49, 62
2, 39347, Note_on_c, 0, 64, 0
2, 39361, Note_on_c, 0, 47, 0
2, 39395, Note_on_c, 0, 50, 70
2, 39419, Note_on_c, 0, 49, 0
2, 39476, Note_on_c, 0, 50, 0
2, 39488, Note_on_c, 0, 52, 72
2, 39488, Note_on_c, 0, 61, 76
2, 39548, Note_on_c, 0, 61, 0
2, 39559, Note_on_c, 0, 53, 79
2, 39564, Note_on_c, 0, 52, 0
2, 39658, Note_on_c, 0, 53, 0
2, 39659, Note_on_c, 0, 70, 82
2, 39665, Note_on_c, 0, 55, 73
2, 39711, Note_on_c, 0, 55, 0
2, 39747, Note_on_c, 0, 61, 69
2, 39757, Note_on_c, 0, 70, 0
2, 39836, Note_on_c, 0, 53, 74
2, 39842, Note_on_c, 0, 61, 0
2, 39846, Note_on_c, 0, 69, 74
2, 39880, Note_on_c, 0, 53, 0
2, 39927, Note_on_c, 0, 61, 68
2, 39962, Note_on_c, 0, 69, 0
2, 40009, Note_on_c, 0, 52, 72
2, 40026, Note_on_c, 0, 61, 0
2, 40027, Note_on_c, 0, 67, 74
2, 40061, Note_on_c, 0, 52, 0
2, 40109, Note_on_c, 0, 61, 70
2, 40175, Note_on_c, 0, 67, 0
2, 40191, Note_on_c, 0, 61, 0
2, 40205, Note_on_c, 0, 50, 76
2, 40207, Note_on_c, 0, 65, 69
2, 40291, Note_on_c, 0, 65, 0
2, 40308, Note_on_c, 0, 69, 75
2, 40344, Note_on_c, 0, 69, 0
2, 40399, Note_on_c, 0, 71, 80
2, 40489, Note_on_c, 0, 71, 0
2, 40494, Note_on_c, 0, 73, 78
2, 40588, Note_on_c, 0, 74, 83
2, 40620, Note_on_c, 0, 73, 0
2, 40684, Note_on_c, 0, 76, 86
2, 40687, Note_on_c, 0, 74, 0
2, 40794, Note_on_c, 0, 77, 96
2, 40833, Note_on_c, 0, 76, 0
2, 40879, Note_on_c, 0, 77, 0
2, 40905, Note_on_c, 0, 45, 0
2, 40906, Note_on_c, 0, 50, 0
2, 40906, Note_on_c, 0, 57, 73
2, 41012, Note_on_c, 0, 74, 90
2, 41028, Note_on_c, 0, 57, 0
2, 41036, Note_on_c, 0, 59, 69
2, 41113, Note_on_c, 0, 74, 0
2, 41128, Note_on_c, 0, 61, 78
2, 41151, Note_on_c, 0, 57, 28
2, 41207, Note_on_c, 0, 59, 0
2, 41254, Note_on_c, 0, 62, 73
2, 41255, Note_on_c, 0, 71, 91
2, 41269, Note_on_c, 0, 61, 0
2, 41393, Note_on_c, 0, 64, 77
2, 41399, Note_on_c, 0, 62, 0
2, 41551, Note_on_c, 0, 81, 80
2, 41559, Note_on_c, 0, 65, 59
2, 41588, Note_on_c, 0, 64, 0
2, 41681, Note_on_c, 0, 65, 0
2, 41705, Note_on_c, 0, 80, 79
2, 41746, Note_on_c, 0, 81, 0
2, 41873, Note_on_c, 0, 81, 68
2, 41883, Note_on_c, 0, 64, 51
2, 41922, Note_on_c, 0, 80, 0
2, 42037, Note_on_c, 0, 64, 0
2, 42066, Note_on_c, 0, 80, 71
2, 42093, Note_on_c, 0, 81, 0
2, 42271, Note_on_c, 0, 81, 63
2, 42281, Note_on_c, 0, 62, 44
2, 42300, Note_on_c, 0, 80, 0
2, 42481, Note_on_c, 0, 80, 64
2, 42490, Note_on_c, 0, 81, 0
2, 42501, Control_c, 0, 64, 23
2, 42517, Control_c, 0, 64, 44
2, 42532, Control_c, 0, 64, 55
2, 42547, Control_c, 0, 64, 61
2, 42563, Control_c, 0, 64, 65
2, 42566, Note_on_c, 0, 71, 0
2, 42577, Control_c, 0, 64, 69
2, 42593, Control_c, 0, 64, 76
2, 42608, Control_c, 0, 64, 85
2, 42623, Control_c, 0, 64, 98
2, 42630, Note_on_c, 0, 80, 0
2, 42639, Control_c, 0, 64, 127
2, 42644, Note_on_c, 0, 62, 0
2, 42998, Note_on_c, 0, 81, 55
2, 42999, Note_on_c, 0, 76, 50
2, 43007, Note_on_c, 0, 73, 53
2, 43020, Note_on_c, 0, 64, 40
2, 43020, Note_on_c, 0, 69, 45
2, 43040, Control_c, 0, 64, 104
2, 43055, Control_c, 0, 64, 90
2, 43070, Control_c, 0, 64, 77
2, 43086, Control_c, 0, 64, 68
2, 43100, Control_c, 0, 64, 61
2, 43114, Control_c, 0, 64, 54
2, 43130, Control_c, 0, 64, 50
2, 43145, Control_c, 0, 64, 49
2, 43161, Control_c, 0, 64, 47
2, 43176, Control_c, 0, 64, 41
2, 43191, Control_c, 0, 64, 23
2, 43207, Control_c, 0, 64, 0
2, 44141, Control_c, 0, 64, 15
2, 44156, Control_c, 0, 64, 24
2, 44172, Control_c, 0, 64, 31
2, 44186, Control_c, 0, 64, 36
2, 44202, Control_c, 0, 64, 39
2, 44217, Control_c, 0, 64, 40
2, 44232, Control_c, 0, 64, 42
2, 44248, Control_c, 0, 64, 44
2, 44262, Control_c, 0, 64, 47
2, 44277, Control_c, 0, 64, 50
2, 44301, Control_c, 0, 64, 52
2, 44316, Control_c, 0, 64, 54
2, 44332, Control_c, 0, 64, 55
2, 44346, Control_c, 0, 64, 57
2, 44362, Control_c, 0, 64, 58
2, 44377, Control_c, 0, 64, 60
2, 44392, Control_c, 0, 64, 61
2, 44408, Control_c, 0, 64, 63
2, 44423, Control_c, 0, 64, 63
2, 44438, Control_c, 0, 64, 64
2, 44454, Control_c, 0, 64, 65
2, 44469, Control_c, 0, 64, 65
2, 44485, Control_c, 0, 64, 67
2, 44499, Control_c, 0, 64, 68
2, 44514, Control_c, 0, 64, 70
2, 44530, Control_c, 0, 64, 72
2, 44545, Control_c, 0, 64, 73
2, 44561, Control_c, 0, 64, 75
2, 44575, Control_c, 0, 64, 77
2, 44590, Control_c, 0, 64, 78
2, 44606, Control_c, 0, 64, 79
2, 44621, Control_c, 0, 64, 80
2, 44635, Control_c, 0, 64, 81
2, 44652, Control_c, 0, 64, 82
2, 44667, Control_c, 0, 64, 83
2, 44683, Control_c, 0, 64, 83
2, 44712, Control_c, 0, 64, 84
2, 44728, Control_c, 0, 64, 85
2, 44740, Note_on_c, 0, 69, 0
2, 44743, Control_c, 0, 64, 86
2, 44758, Control_c, 0, 64, 87
2, 44774, Control_c, 0, 64, 89
2, 44788, Control_c, 0, 64, 90
2, 44819, Control_c, 0, 64, 90
2, 44849, Control_c, 0, 64, 91
2, 44856, Note_on_c, 0, 73, 0
2, 44858, Note_on_c, 0, 81, 0
2, 44887, Note_on_c, 0, 57, 0
2, 44909, Control_c, 0, 64, 91
2, 44920, Note_on_c, 0, 76, 0
2, 44943, Note_on_c, 0, 64, 0
2, 45085, Control_c, 0, 64, 91
2, 45145, Control_c, 0, 64, 90
2, 45222, Control_c, 0, 64, 90
2, 45222, Control_c, 0, 67, 18
2, 45237, Control_c, 0, 64, 89
2, 45237, Control_c, 0, 67, 29
2, 45253, Control_c, 0, 64, 88
2, 45253, Control_c, 0, 67, 40
2, 45267, Control_c, 0, 64, 87
2, 45267, Control_c, 0, 67, 46
2, 45283, Control_c, 0, 64, 86
2, 45283, Control_c, 0, 67, 49
2, 45298, Control_c, 0, 64, 85
2, 45313, Control_c, 0, 64, 83
2, 45329, Control_c, 0, 64, 79
2, 45343, Control_c, 0, 64, 74
2, 45358, Control_c, 0, 64, 69
2, 45374, Control_c, 0, 64, 65
2, 45374, Control_c, 0, 67, 48
2, 45389, Control_c, 0, 64, 61
2, 45389, Control_c, 0, 67, 46
2, 45405, Control_c, 0, 64, 58
2, 45405, Control_c, 0, 67, 45
2, 45420, Control_c, 0, 64, 55
2, 45435, Control_c, 0, 64, 53
2, 45435, Control_c, 0, 67, 43
2, 45451, Control_c, 0, 64, 50
2, 45451, Control_c, 0, 67, 41
2, 45466, Control_c, 0, 64, 47
2, 45466, Control_c, 0, 67, 38
2, 45481, Control_c, 0, 64, 44
2, 45481, Control_c, 0, 67, 36
2, 45496, Control_c, 0, 64, 40
2, 45511, Control_c, 0, 64, 36
2, 45527, Control_c, 0, 64, 31
2, 45542, Control_c, 0, 64, 25
2, 45542, Control_c, 0, 67, 36
2, 45556, Control_c, 0, 64, 21
2, 45556, Control_c, 0, 67, 34
2, 45572, Control_c, 0, 64, 18
2, 45572, Control_c, 0, 67, 32
2, 45587, Control_c, 0, 64, 16
2, 45587, Control_c, 0, 67, 31
2, 45603, Control_c, 0, 64, 12
2, 45603, Control_c, 0, 67, 30
2, 45618, Control_c, 0, 64, 9
2, 45618, Control_c, 0, 67, 29
2, 45632, Control_c, 0, 64, 0
2, 45632, Control_c, 0, 67, 29
2, 45648, Control_c, 0, 67, 27
2, 45663, Control_c, 0, 67, 25
2, 45677, Control_c, 0, 67, 24
2, 45753, Control_c, 0, 67, 24
2, 45769, Control_c, 0, 67, 23
2, 45800, Control_c, 0, 67, 23
2, 45853, Control_c, 0, 67, 22
2, 45883, Control_c, 0, 67, 21
2, 46061, Note_on_c, 0, 57, 46
2, 46082, Control_c, 0, 67, 21
2, 46111, Control_c, 0, 67, 20
2, 46127, Control_c, 0, 67, 19
2, 46173, Control_c, 0, 67, 19
2, 46183, Note_on_c, 0, 56, 55
2, 46185, Note_on_c, 0, 57, 0
2, 46187, Control_c, 0, 67, 18
2, 46203, Control_c, 0, 67, 18
2, 46218, Control_c, 0, 67, 12
2, 46233, Control_c, 0, 67, 0
2, 46317, Note_on_c, 0, 57, 60
2, 46342, Note_on_c, 0, 56, 0
2, 46389, Note_on_c, 0, 57, 0
2, 46601, Note_on_c, 0, 59, 57
2, 46652, Note_on_c, 0, 59, 0
2, 46849, Control_c, 0, 64, 22
2, 46865, Control_c, 0, 64, 40
2, 46881, Control_c, 0, 64, 54
2, 46885, Note_on_c, 0, 60, 55
2, 46896, Control_c, 0, 64, 62
2, 46910, Control_c, 0, 64, 66
2, 46926, Control_c, 0, 64, 71
2, 46941, Control_c, 0, 64, 77
2, 46955, Control_c, 0, 64, 85
2, 46955, Note_on_c, 0, 60, 0
2, 46971, Control_c, 0, 64, 96
2, 46986, Control_c, 0, 64, 127
2, 47160, Note_on_c, 0, 60, 58
2, 47184, Control_c, 0, 64, 106
2, 47200, Control_c, 0, 64, 94
2, 47215, Control_c, 0, 64, 83
2, 47230, Control_c, 0, 64, 72
2, 47245, Control_c, 0, 64, 64
2, 47260, Control_c, 0, 64, 48
2, 47269, Note_on_c, 0, 59, 66
2, 47269, Note_on_c, 0, 60, 0
2, 47275, Control_c, 0, 64, 31
2, 47290, Control_c, 0, 64, 26
2, 47321, Control_c, 0, 64, 24
2, 47336, Control_c, 0, 64, 18
2, 47351, Control_c, 0, 64, 0
2, 47408, Note_on_c, 0, 60, 73
2, 47424, Note_on_c, 0, 59, 0
2, 47447, Note_on_c, 0, 60, 0
2, 47662, Note_on_c, 0, 62, 68
2, 47693, Note_on_c, 0, 62, 0
2, 47914, Note_on_c, 0, 64, 60
2, 48036, Note_on_c, 0, 62, 64
2, 48045, Note_on_c, 0, 64, 0
2, 48172, Note_on_c, 0, 60, 69
2, 48174, Note_on_c, 0, 62, 0
2, 48286, Note_on_c, 0, 62, 69
2, 48291, Note_on_c, 0, 60, 0
2, 48401, Note_on_c, 0, 64, 72
2, 48410, Note_on_c, 0, 62, 0
2, 48450, Note_on_c, 0, 64, 0
2, 48658, Note_on_c, 0, 65, 64
2, 48708, Note_on_c, 0, 65, 0
2, 48914, Note_on_c, 0, 56, 52
2, 48975, Note_on_c, 0, 56, 0
2, 49184, Note_on_c, 0, 52, 42
2, 49251, Note_on_c, 0, 52, 0
2, 49731, Note_on_c, 0, 57, 48
2, 49793, Note_on_c, 0, 57, 0
2, 49974, Note_on_c, 0, 59, 55
2, 50098, Note_on_c, 0, 60, 56
2, 50105, Note_on_c, 0, 59, 0
2, 50221, Note_on_c, 0, 57, 61
2, 50223, Note_on_c, 0, 60, 0
2, 50336, Note_on_c, 0, 59, 65
2, 50369, Note_on_c, 0, 57, 0
2, 50478, Note_on_c, 0, 60, 71
2, 50491, Note_on_c, 0, 59, 0
2, 50604, Note_on_c, 0, 62, 71
2, 50614, Note_on_c, 0, 60, 0
2, 50729, Note_on_c, 0, 59, 66
2, 50739, Note_on_c, 0, 62, 0
2, 50852, Note_on_c, 0, 60, 69
2, 50865, Note_on_c, 0, 59, 0
2, 50984, Note_on_c, 0, 60, 0
2, 50990, Note_on_c, 0, 62, 67
2, 51034, Note_on_c, 0, 62, 0
2, 51258, Note_on_c, 0, 60, 59
2, 51301, Note_on_c, 0, 60, 0
2, 51517, Note_on_c, 0, 59, 53
2, 51567, Note_on_c, 0, 59, 0
2, 51778, Note_on_c, 0, 64, 49
2, 51832, Note_on_c, 0, 64, 0
2, 52061, Note_on_c, 0, 57, 54
2, 52326, Note_on_c, 0, 64, 60
2, 52417, Note_on_c, 0, 64, 0
2, 52421, Note_on_c, 0, 63, 67
2, 52555, Note_on_c, 0, 55, 58
2, 52555, Note_on_c, 0, 64, 68
2, 52558, Note_on_c, 0, 63, 0
2, 52568, Note_on_c, 0, 57, 0
2, 52605, Note_on_c, 0, 55, 0
2, 52608, Note_on_c, 0, 64, 0
2, 52831, Note_on_c, 0, 54, 60
2, 52835, Note_on_c, 0, 66, 72
2, 52877, Note_on_c, 0, 54, 0
2, 52886, Note_on_c, 0, 66, 0
2, 53103, Note_on_c, 0, 67, 68
2, 53114, Control_c, 0, 64, 36
2, 53116, Note_on_c, 0, 52, 53
2, 53129, Control_c, 0, 64, 56
2, 53144, Control_c, 0, 64, 64
2, 53160, Control_c, 0, 64, 68
2, 53170, Note_on_c, 0, 52, 0
2, 53175, Control_c, 0, 64, 72
2, 53190, Control_c, 0, 64, 76
2, 53190, Note_on_c, 0, 67, 0
2, 53205, Control_c, 0, 64, 77
2, 53220, Control_c, 0, 64, 79
2, 53235, Control_c, 0, 64, 82
2, 53251, Control_c, 0, 64, 84
2, 53265, Control_c, 0, 64, 85
2, 53281, Control_c, 0, 64, 84
2, 53296, Control_c, 0, 64, 82
2, 53311, Control_c, 0, 64, 79
2, 53327, Control_c, 0, 64, 74
2, 53342, Control_c, 0, 64, 68
2, 53356, Control_c, 0, 64, 61
2, 53361, Note_on_c, 0, 60, 63
2, 53364, Note_on_c, 0, 67, 67
2, 53372, Control_c, 0, 64, 47
2, 53387, Control_c, 0, 64, 30
2, 53401, Note_on_c, 0, 60, 0
2, 53404, Control_c, 0, 64, 12
2, 53419, Control_c, 0, 64, 0
2, 53458, Note_on_c, 0, 67, 0
2, 53470, Note_on_c, 0, 66, 73
2, 53557, Note_on_c, 0, 66, 0
2, 53611, Note_on_c, 0, 67, 77
2, 53618, Note_on_c, 0, 59, 67
2, 53656, Note_on_c, 0, 59, 0
2, 53670, Note_on_c, 0, 67, 0
2, 53878, Note_on_c, 0, 57, 56
2, 53879, Note_on_c, 0, 69, 67
2, 53922, Note_on_c, 0, 57, 0
2, 53929, Note_on_c, 0, 69, 0
2, 54133, Note_on_c, 0, 71, 65
2, 54140, Note_on_c, 0, 55, 49
2, 54252, Note_on_c, 0, 69, 72
2, 54255, Note_on_c, 0, 54, 61
2, 54265, Note_on_c, 0, 71, 0
2, 54266, Note_on_c, 0, 55, 0
2, 54356, Note_on_c, 0, 54, 0
2, 54365, Note_on_c, 0, 52, 59
2, 54374, Note_on_c, 0, 67, 76
2, 54389, Note_on_c, 0, 69, 0
2, 54468, Note_on_c, 0, 52, 0
2, 54480, Note_on_c, 0, 54, 68
2, 54488, Note_on_c, 0, 69, 81
2, 54496, Note_on_c, 0, 67, 0
2, 54621, Note_on_c, 0, 71, 77
2, 54628, Note_on_c, 0, 55, 57
2, 54629, Note_on_c, 0, 54, 0
2, 54636, Note_on_c, 0, 69, 0
2, 54670, Note_on_c, 0, 55, 0
2, 54685, Note_on_c, 0, 71, 0
2, 54880, Note_on_c, 0, 72, 72
2, 54887, Note_on_c, 0, 57, 54
2, 54932, Note_on_c, 0, 72, 0
2, 54943, Note_on_c, 0, 57, 0
2, 55160, Note_on_c, 0, 59, 49
2, 55160, Note_on_c, 0, 63, 67
2, 55227, Note_on_c, 0, 63, 0
2, 55267, Note_on_c, 0, 59, 0
2, 55269, Note_on_c, 0, 57, 48
2, 55385, Note_on_c, 0, 57, 0
2, 55400, Note_on_c, 0, 55, 48
2, 55408, Note_on_c, 0, 59, 57
2, 55475, Note_on_c, 0, 59, 0
2, 55527, Note_on_c, 0, 55, 0
2, 55529, Note_on_c, 0, 57, 54
2, 55646, Note_on_c, 0, 57, 0
2, 55669, Note_on_c, 0, 59, 60
2, 55708, Note_on_c, 0, 59, 0
2, 55930, Note_on_c, 0, 64, 58
2, 55938, Note_on_c, 0, 60, 58
2, 55996, Note_on_c, 0, 64, 0
2, 56199, Note_on_c, 0, 66, 57
2, 56306, Note_on_c, 0, 67, 62
2, 56326, Note_on_c, 0, 66, 0
2, 56445, Note_on_c, 0, 64, 64
2, 56451, Note_on_c, 0, 59, 57
2, 56478, Note_on_c, 0, 67, 0
2, 56554, Note_on_c, 0, 66, 69
2, 56556, Note_on_c, 0, 57, 67
2, 56558, Note_on_c, 0, 60, 0
2, 56566, Note_on_c, 0, 59, 0
2, 56569, Note_on_c, 0, 64, 0
2, 56689, Note_on_c, 0, 57, 0
2, 56692, Note_on_c, 0, 67, 75
2, 56698, Note_on_c, 0, 59, 67
2, 56725, Note_on_c, 0, 66, 0
2, 56771, Note_on_c, 0, 59, 0
2, 56817, Note_on_c, 0, 69, 79
2, 56822, Note_on_c, 0, 67, 0
2, 56948, Note_on_c, 0, 64, 71
2, 56953, Note_on_c, 0, 66, 74
2, 56976, Note_on_c, 0, 69, 0
2, 57068, Note_on_c, 0, 67, 74
2, 57083, Note_on_c, 0, 66, 0
2, 57159, Note_on_c, 0, 67, 0
2, 57214, Note_on_c, 0, 69, 74
2, 57267, Note_on_c, 0, 69, 0
2, 57468, Note_on_c, 0, 67, 66
2, 57484, Note_on_c, 0, 62, 57
2, 57487, Note_on_c, 0, 64, 0
2, 57517, Note_on_c, 0, 67, 0
2, 57576, Note_on_c, 0, 62, 0
2, 57594, Note_on_c, 0, 61, 56
2, 57716, Note_on_c, 0, 66, 65
2, 57721, Note_on_c, 0, 61, 0
2, 57723, Note_on_c, 0, 62, 54
2, 57754, Note_on_c, 0, 66, 0
2, 57982, Note_on_c, 0, 71, 66
2, 58021, Note_on_c, 0, 71, 0
2, 58259, Note_on_c, 0, 64, 58
2, 58522, Note_on_c, 0, 66, 58
2, 58535, Note_on_c, 0, 60, 54
2, 58546, Note_on_c, 0, 64, 0
2, 58554, Note_on_c, 0, 62, 0
2, 58641, Note_on_c, 0, 68, 70
2, 58651, Note_on_c, 0, 59, 62
2, 58654, Note_on_c, 0, 60, 0
2, 58664, Note_on_c, 0, 66, 0
2, 58773, Note_on_c, 0, 69, 76
2, 58778, Note_on_c, 0, 68, 0
2, 58779, Note_on_c, 0, 60, 68
2, 58794, Note_on_c, 0, 59, 0
2, 58904, Note_on_c, 0, 71, 78
2, 58911, Note_on_c, 0, 69, 0
2, 59028, Note_on_c, 0, 72, 78
2, 59046, Note_on_c, 0, 71, 0
2, 59140, Note_on_c, 0, 72, 0
2, 59149, Note_on_c, 0, 74, 79
2, 59282, Note_on_c, 0, 76, 80
2, 59285, Note_on_c, 0, 74, 0
2, 59341, Note_on_c, 0, 76, 0
2, 59404, Note_on_c, 0, 60, 0
2, 59415, Note_on_c, 0, 69, 68
2, 59468, Note_on_c, 0, 69, 0
2, 59541, Note_on_c, 0, 67, 61
2, 59541, Note_on_c, 0, 69, 72
2, 59586, Note_on_c, 0, 69, 0
2, 59647, Note_on_c, 0, 67, 0
2, 59666, Note_on_c, 0, 65, 57
2, 59785, Note_on_c, 0, 65, 0
2, 59786, Note_on_c, 0, 68, 69
2, 59801, Note_on_c, 0, 64, 56
2, 59841, Note_on_c, 0, 68, 0
2, 59849, Note_on_c, 0, 69, 69
2, 59892, Note_on_c, 0, 69, 0
2, 59911, Note_on_c, 0, 68, 68
2, 59915, Note_on_c, 0, 64, 0
2, 59925, Note_on_c, 0, 62, 56
2, 60042, Note_on_c, 0, 62, 0
2, 60052, Note_on_c, 0, 60, 55
2, 60149, Note_on_c, 0, 60, 0
2, 60159, Note_on_c, 0, 68, 0
2, 60171, Note_on_c, 0, 59, 59
2, 60274, Note_on_c, 0, 59, 0
2, 60287, Note_on_c, 0, 60, 55
2, 60289, Note_on_c, 0, 69, 57
2, 60350, Note_on_c, 0, 60, 0
2, 60408, Note_on_c, 0, 59, 62
2, 60412, Note_on_c, 0, 69, 0
2, 60467, Note_on_c, 0, 59, 0
2, 60542, Note_on_c, 0, 69, 61
2, 60547, Note_on_c, 0, 45, 68
2, 60549, Note_on_c, 0, 60, 51
2, 60640, Note_on_c, 0, 69, 0
2, 60655, Note_on_c, 0, 44, 75
2, 60660, Note_on_c, 0, 45, 0
2, 60729, Note_on_c, 0, 44, 0
2, 60789, Note_on_c, 0, 67, 68
2, 60791, Note_on_c, 0, 45, 74
2, 60797, Note_on_c, 0, 60, 0
2, 60862, Note_on_c, 0, 45, 0
2, 60864, Note_on_c, 0, 67, 0
2, 61051, Note_on_c, 0, 65, 58
2, 61057, Note_on_c, 0, 47, 75
2, 61057, Note_on_c, 0, 62, 52
2, 61116, Note_on_c, 0, 47, 0
2, 61128, Note_on_c, 0, 62, 0
2, 61128, Note_on_c, 0, 65, 0
2, 61317, Note_on_c, 0, 64, 65
2, 61318, Note_on_c, 0, 48, 64
2, 61349, Control_c, 0, 64, 38
2, 61365, Control_c, 0, 64, 55
2, 61380, Control_c, 0, 64, 63
2, 61396, Control_c, 0, 64, 68
2, 61403, Note_on_c, 0, 48, 0
2, 61411, Control_c, 0, 64, 75
2, 61418, Note_on_c, 0, 64, 0
2, 61425, Control_c, 0, 64, 83
2, 61441, Control_c, 0, 64, 91
2, 61448, Note_on_c, 0, 62, 67
2, 61456, Control_c, 0, 64, 94
2, 61471, Control_c, 0, 64, 93
2, 61486, Note_on_c, 0, 62, 0
2, 61487, Control_c, 0, 64, 91
2, 61501, Control_c, 0, 64, 86
2, 61517, Control_c, 0, 64, 79
2, 61532, Control_c, 0, 64, 70
2, 61547, Control_c, 0, 64, 63
2, 61562, Control_c, 0, 64, 50
2, 61567, Note_on_c, 0, 48, 72
2, 61570, Note_on_c, 0, 72, 74
2, 61577, Control_c, 0, 64, 33
2, 61584, Note_on_c, 0, 64, 65
2, 61592, Control_c, 0, 64, 21
2, 61609, Control_c, 0, 64, 21
2, 61624, Control_c, 0, 64, 19
2, 61640, Control_c, 0, 64, 12
2, 61654, Control_c, 0, 64, 0
2, 61681, Note_on_c, 0, 47, 71
2, 61693, Note_on_c, 0, 48, 0
2, 61740, Note_on_c, 0, 47, 0
2, 61742, Note_on_c, 0, 72, 0
2, 61821, Note_on_c, 0, 48, 78
2, 61828, Note_on_c, 0, 71, 71
2, 61874, Note_on_c, 0, 64, 0
2, 61880, Note_on_c, 0, 48, 0
2, 61884, Note_on_c, 0, 71, 0
2, 62082, Note_on_c, 0, 69, 69
2, 62091, Note_on_c, 0, 50, 71
2, 62102, Note_on_c, 0, 65, 53
2, 62147, Note_on_c, 0, 69, 0
2, 62170, Note_on_c, 0, 50, 0
2, 62339, Note_on_c, 0, 52, 64
2, 62346, Note_on_c, 0, 68, 62
2, 62428, Note_on_c, 0, 65, 0
2, 62454, Note_on_c, 0, 50, 73
2, 62458, Note_on_c, 0, 68, 0
2, 62459, Note_on_c, 0, 66, 68
2, 62476, Note_on_c, 0, 52, 0
2, 62587, Note_on_c, 0, 76, 74
2, 62590, Note_on_c, 0, 48, 77
2, 62592, Note_on_c, 0, 66, 0
2, 62596, Note_on_c, 0, 64, 68
2, 62603, Note_on_c, 0, 50, 0
2, 62677, Note_on_c, 0, 76, 0
2, 62687, Note_on_c, 0, 48, 0
2, 62702, Note_on_c, 0, 50, 81
2, 62702, Note_on_c, 0, 64, 0
2, 62706, Note_on_c, 0, 66, 71
2, 62769, Note_on_c, 0, 50, 0
2, 62797, Note_on_c, 0, 66, 0
2, 62847, Note_on_c, 0, 52, 72
2, 62852, Note_on_c, 0, 74, 72
2, 62855, Note_on_c, 0, 68, 62
2, 62895, Note_on_c, 0, 68, 0
2, 62909, Note_on_c, 0, 52, 0
2, 62929, Note_on_c, 0, 74, 0
2, 63118, Note_on_c, 0, 72, 58
2, 63119, Note_on_c, 0, 69, 50
2, 63121, Note_on_c, 0, 53, 69
2, 63163, Note_on_c, 0, 69, 0
2, 63172, Note_on_c, 0, 53, 0
2, 63198, Note_on_c, 0, 72, 0
2, 63375, Note_on_c, 0, 44, 61
2, 63379, Note_on_c, 0, 71, 59
2, 63448, Note_on_c, 0, 44, 0
2, 63500, Note_on_c, 0, 72, 58
2, 63509, Note_on_c, 0, 71, 0
2, 63650, Note_on_c, 0, 40, 57
2, 63653, Note_on_c, 0, 74, 48
2, 63732, Note_on_c, 0, 40, 0
2, 63751, Note_on_c, 0, 74, 0
2, 63766, Note_on_c, 0, 71, 57
2, 63772, Note_on_c, 0, 72, 0
2, 63906, Note_on_c, 0, 72, 61
2, 63909, Note_on_c, 0, 71, 0
2, 64026, Note_on_c, 0, 71, 66
2, 64032, Note_on_c, 0, 72, 0
2, 64155, Note_on_c, 0, 45, 65
2, 64155, Note_on_c, 0, 69, 60
2, 64165, Note_on_c, 0, 71, 0
2, 64173, Control_c, 0, 64, 26
2, 64187, Control_c, 0, 64, 47
2, 64203, Control_c, 0, 64, 52
2, 64218, Control_c, 0, 64, 52
2, 64223, Note_on_c, 0, 45, 0
2, 64232, Control_c, 0, 64, 52
2, 64248, Control_c, 0, 64, 51
2, 64270, Control_c, 0, 64, 50
2, 64271, Note_on_c, 0, 69, 0
2, 64277, Note_on_c, 0, 72, 68
2, 64286, Control_c, 0, 64, 49
2, 64311, Note_on_c, 0, 72, 0
2, 64317, Control_c, 0, 64, 49
2, 64347, Control_c, 0, 64, 48
2, 64363, Control_c, 0, 64, 46
2, 64378, Control_c, 0, 64, 43
2, 64394, Control_c, 0, 64, 40
2, 64398, Note_on_c, 0, 47, 63
2, 64408, Control_c, 0, 64, 37
2, 64410, Note_on_c, 0, 74, 60
2, 64421, Note_on_c, 0, 67, 56
2, 64423, Control_c, 0, 64, 33
2, 64439, Control_c, 0, 64, 30
2, 64453, Control_c, 0, 64, 27
2, 64468, Control_c, 0, 64, 24
2, 64484, Control_c, 0, 64, 20
2, 64499, Control_c, 0, 64, 15
2, 64515, Control_c, 0, 64, 0
2, 64523, Note_on_c, 0, 48, 64
2, 64530, Note_on_c, 0, 76, 69
2, 64531, Note_on_c, 0, 74, 0
2, 64571, Note_on_c, 0, 47, 0
2, 64648, Note_on_c, 0, 45, 71
2, 64651, Note_on_c, 0, 48, 0
2, 64665, Note_on_c, 0, 77, 76
2, 64710, Note_on_c, 0, 76, 0
2, 64783, Note_on_c, 0, 77, 0
2, 64787, Note_on_c, 0, 47, 72
2, 64787, Note_on_c, 0, 74, 73
2, 64809, Note_on_c, 0, 45, 0
2, 64916, Note_on_c, 0, 74, 0
2, 64920, Note_on_c, 0, 76, 75
2, 64923, Note_on_c, 0, 49, 71
2, 64939, Note_on_c, 0, 47, 0
2, 64989, Note_on_c, 0, 67, 0
2, 65043, Note_on_c, 0, 50, 70
2, 65048, Note_on_c, 0, 49, 0
2, 65053, Note_on_c, 0, 65, 63
2, 65174, Note_on_c, 0, 47, 68
2, 65185, Note_on_c, 0, 64, 64
2, 65185, Note_on_c, 0, 65, 0
2, 65194, Note_on_c, 0, 50, 0
2, 65286, Note_on_c, 0, 64, 0
2, 65293, Note_on_c, 0, 49, 69
2, 65298, Note_on_c, 0, 47, 0
2, 65304, Note_on_c, 0, 67, 69
2, 65334, Note_on_c, 0, 67, 0
2, 65362, Note_on_c, 0, 49, 0
2, 65439, Note_on_c, 0, 66, 62
2, 65445, Note_on_c, 0, 50, 60
2, 65458, Note_on_c, 0, 76, 0
2, 65507, Note_on_c, 0, 50, 0
2, 65709, Note_on_c, 0, 69, 53
2, 65711, Note_on_c, 0, 48, 52
2, 65748, Note_on_c, 0, 48, 0
2, 65763, Note_on_c, 0, 69, 0
2, 65982, Note_on_c, 0, 47, 51
2, 65984, Note_on_c, 0, 68, 49
2, 65989, Note_on_c, 0, 71, 46
2, 66030, Note_on_c, 0, 47, 0
2, 66081, Note_on_c, 0, 66, 0
2, 66094, Note_on_c, 0, 71, 0
2, 66097, Note_on_c, 0, 72, 61
2, 66222, Note_on_c, 0, 72, 0
2, 66236, Note_on_c, 0, 74, 54
2, 66238, Note_on_c, 0, 52, 44
2, 66291, Note_on_c, 0, 52, 0
2, 66492, Note_on_c, 0, 45, 52
2, 66495, Note_on_c, 0, 69, 56
2, 66504, Note_on_c, 0, 68, 0
2, 66508, Control_c, 0, 64, 13
2, 66523, Control_c, 0, 64, 37
2, 66538, Control_c, 0, 64, 52
2, 66550, Note_on_c, 0, 45, 0
2, 66554, Control_c, 0, 64, 61
2, 66557, Note_on_c, 0, 69, 0
2, 66576, Control_c, 0, 64, 65
2, 66592, Control_c, 0, 64, 67
2, 66607, Control_c, 0, 64, 69
2, 66622, Control_c, 0, 64, 70
2, 66638, Control_c, 0, 64, 71
2, 66683, Control_c, 0, 64, 70
2, 66698, Control_c, 0, 64, 69
2, 66713, Control_c, 0, 64, 68
2, 66728, Control_c, 0, 64, 66
2, 66743, Control_c, 0, 64, 62
2, 66756, Note_on_c, 0, 74, 0
2, 66759, Control_c, 0, 64, 52
2, 66761, Note_on_c, 0, 52, 70
2, 66762, Note_on_c, 0, 69, 57
2, 66764, Note_on_c, 0, 72, 61
2, 66771, Note_on_c, 0, 47, 62
2, 66774, Control_c, 0, 64, 36
2, 66790, Control_c, 0, 64, 18
2, 66798, Note_on_c, 0, 69, 0
2, 66804, Control_c, 0, 64, 13
2, 66807, Note_on_c, 0, 52, 0
2, 66835, Control_c, 0, 64, 12
2, 66844, Note_on_c, 0, 47, 0
2, 66850, Control_c, 0, 64, 0
2, 66870, Note_on_c, 0, 51, 75
2, 66931, Note_on_c, 0, 51, 0
2, 66940, Note_on_c, 0, 72, 0
2, 67006, Note_on_c, 0, 52, 78
2, 67009, Note_on_c, 0, 71, 68
2, 67012, Note_on_c, 0, 67, 68
2, 67021, Note_on_c, 0, 49, 65
2, 67043, Note_on_c, 0, 71, 0
2, 67046, Note_on_c, 0, 67, 0
2, 67056, Note_on_c, 0, 49, 0
2, 67061, Note_on_c, 0, 52, 0
2, 67284, Note_on_c, 0, 54, 76
2, 67284, Note_on_c, 0, 69, 70
2, 67287, Note_on_c, 0, 51, 72
2, 67290, Note_on_c, 0, 66, 59
2, 67321, Note_on_c, 0, 51, 0
2, 67321, Note_on_c, 0, 66, 0
2, 67328, Note_on_c, 0, 54, 0
2, 67330, Note_on_c, 0, 69, 0
2, 67542, Control_c, 0, 64, 40
2, 67555, Note_on_c, 0, 55, 74
2, 67557, Control_c, 0, 64, 56
2, 67557, Note_on_c, 0, 52, 63
2, 67562, Note_on_c, 0, 64, 56
2, 67563, Note_on_c, 0, 67, 52
2, 67572, Control_c, 0, 64, 63
2, 67588, Control_c, 0, 64, 68
2, 67598, Note_on_c, 0, 55, 0
2, 67598, Note_on_c, 0, 67, 0
2, 67603, Control_c, 0, 64, 73
2, 67605, Note_on_c, 0, 64, 0
2, 67608, Note_on_c, 0, 52, 0
2, 67618, Control_c, 0, 64, 79
2, 67633, Control_c, 0, 64, 84
2, 67648, Control_c, 0, 64, 88
2, 67663, Control_c, 0, 64, 90
2, 67695, Control_c, 0, 64, 89
2, 67710, Control_c, 0, 64, 88
2, 67725, Control_c, 0, 64, 87
2, 67740, Control_c, 0, 64, 85
2, 67756, Control_c, 0, 64, 83
2, 67770, Control_c, 0, 64, 79
2, 67785, Control_c, 0, 64, 74
2, 67801, Control_c, 0, 64, 66
2, 67811, Note_on_c, 0, 55, 74
2, 67813, Note_on_c, 0, 76, 68
2, 67816, Control_c, 0, 64, 59
2, 67816, Note_on_c, 0, 52, 68
2, 67824, Note_on_c, 0, 72, 61
2, 67832, Control_c, 0, 64, 44
2, 67847, Control_c, 0, 64, 27
2, 67862, Control_c, 0, 64, 23
2, 67872, Note_on_c, 0, 55, 0
2, 67875, Note_on_c, 0, 72, 0
2, 67878, Control_c, 0, 64, 22
2, 67884, Note_on_c, 0, 52, 0
2, 67893, Control_c, 0, 64, 20
2, 67908, Control_c, 0, 64, 0
2, 67915, Note_on_c, 0, 76, 0
2, 67922, Note_on_c, 0, 50, 71
2, 67922, Note_on_c, 0, 54, 81
2, 67979, Note_on_c, 0, 50, 0
2, 67980, Note_on_c, 0, 54, 0
2, 68044, Note_on_c, 0, 52, 78
2, 68045, Note_on_c, 0, 55, 83
2, 68052, Note_on_c, 0, 74, 66
2, 68057, Note_on_c, 0, 71, 69
2, 68087, Note_on_c, 0, 74, 0
2, 68095, Note_on_c, 0, 52, 0
2, 68111, Note_on_c, 0, 71, 0
2, 68114, Note_on_c, 0, 55, 0
2, 68336, Note_on_c, 0, 57, 76
2, 68336, Note_on_c, 0, 69, 73
2, 68337, Note_on_c, 0, 72, 72
2, 68341, Note_on_c, 0, 54, 72
2, 68371, Note_on_c, 0, 72, 0
2, 68373, Note_on_c, 0, 69, 0
2, 68385, Note_on_c, 0, 54, 0
2, 68388, Note_on_c, 0, 57, 0
2, 68591, Note_on_c, 0, 71, 67
2, 68607, Note_on_c, 0, 59, 68
2, 68609, Note_on_c, 0, 67, 59
2, 68617, Note_on_c, 0, 55, 61
2, 68719, Note_on_c, 0, 67, 0
2, 68720, Note_on_c, 0, 66, 66
2, 68721, Note_on_c, 0, 57, 72
2, 68736, Note_on_c, 0, 59, 0
2, 68749, Note_on_c, 0, 55, 0
2, 68833, Note_on_c, 0, 66, 0
2, 68846, Note_on_c, 0, 55, 78
2, 68847, Note_on_c, 0, 64, 65
2, 68850, Note_on_c, 0, 57, 0
2, 68938, Note_on_c, 0, 64, 0
2, 68957, Note_on_c, 0, 55, 0
2, 68962, Note_on_c, 0, 57, 79
2, 68963, Note_on_c, 0, 66, 68
2, 69012, Note_on_c, 0, 57, 0
2, 69015, Note_on_c, 0, 66, 0
2, 69094, Note_on_c, 0, 59, 84
2, 69101, Note_on_c, 0, 67, 68
2, 69138, Note_on_c, 0, 67, 0
2, 69162, Note_on_c, 0, 59, 0
2, 69363, Note_on_c, 0, 60, 70
2, 69363, Note_on_c, 0, 71, 0
2, 69369, Note_on_c, 0, 57, 61
2, 69369, Note_on_c, 0, 69, 62
2, 69377, Note_on_c, 0, 66, 57
2, 69398, Note_on_c, 0, 57, 0
2, 69448, Note_on_c, 0, 60, 0
2, 69627, Note_on_c, 0, 51, 68
2, 69659, Note_on_c, 0, 59, 33
2, 69694, Note_on_c, 0, 59, 0
2, 69699, Note_on_c, 0, 51, 0
2, 69878, Note_on_c, 0, 47, 56
2, 69882, Note_on_c, 0, 69, 0
2, 69894, Note_on_c, 0, 66, 0
2, 69901, Note_on_c, 0, 64, 51
2, 69902, Note_on_c, 0, 67, 56
2, 69959, Note_on_c, 0, 64, 0
2, 69996, Note_on_c, 0, 47, 0
2, 70000, Note_on_c, 0, 67, 0
2, 70002, Note_on_c, 0, 63, 54
2, 70004, Note_on_c, 0, 45, 64
2, 70012, Note_on_c, 0, 66, 65
2, 70032, Note_on_c, 0, 63, 0
2, 70045, Note_on_c, 0, 66, 0
2, 70073, Note_on_c, 0, 45, 0
2, 70128, Note_on_c, 0, 67, 64
2, 70131, Note_on_c, 0, 43, 66
2, 70150, Note_on_c, 0, 64, 47
2, 70173, Note_on_c, 0, 43, 0
2, 70216, Note_on_c, 0, 67, 0
2, 70242, Note_on_c, 0, 69, 58
2, 70375, Note_on_c, 0, 71, 66
2, 70376, Note_on_c, 0, 52, 70
2, 70379, Note_on_c, 0, 69, 0
2, 70388, Note_on_c, 0, 40, 58
2, 70423, Note_on_c, 0, 40, 0
2, 70443, Note_on_c, 0, 52, 0
2, 70494, Note_on_c, 0, 71, 0
2, 70497, Note_on_c, 0, 67, 67
2, 70529, Note_on_c, 0, 67, 0
2, 70629, Note_on_c, 0, 72, 73
2, 70631, Note_on_c, 0, 45, 58
2, 70631, Note_on_c, 0, 54, 76
2, 70746, Note_on_c, 0, 55, 74
2, 70777, Note_on_c, 0, 54, 0
2, 70825, Note_on_c, 0, 64, 0
2, 70876, Note_on_c, 0, 52, 73
2, 70888, Note_on_c, 0, 69, 63
2, 70890, Note_on_c, 0, 55, 0
2, 70928, Control_c, 0, 64, 13
2, 70943, Control_c, 0, 64, 38
2, 70958, Control_c, 0, 64, 50
2, 70974, Control_c, 0, 64, 54
2, 70997, Note_on_c, 0, 54, 82
2, 71002, Note_on_c, 0, 69, 0
2, 71004, Note_on_c, 0, 63, 76
2, 71016, Note_on_c, 0, 52, 0
2, 71024, Note_on_c, 0, 45, 0
2, 71034, Control_c, 0, 64, 53
2, 71050, Control_c, 0, 64, 53
2, 71053, Note_on_c, 0, 54, 0
2, 71065, Control_c, 0, 64, 52
2, 71075, Note_on_c, 0, 63, 0
2, 71081, Control_c, 0, 64, 52
2, 71096, Control_c, 0, 64, 51
2, 71111, Control_c, 0, 64, 49
2, 71126, Control_c, 0, 64, 46
2, 71134, Note_on_c, 0, 64, 77
2, 71141, Control_c, 0, 64, 43
2, 71141, Note_on_c, 0, 55, 77
2, 71156, Control_c, 0, 64, 40
2, 71159, Note_on_c, 0, 47, 65
2, 71179, Control_c, 0, 64, 37
2, 71194, Control_c, 0, 64, 34
2, 71209, Control_c, 0, 64, 30
2, 71224, Control_c, 0, 64, 26
2, 71239, Control_c, 0, 64, 20
2, 71255, Control_c, 0, 64, 9
2, 71269, Note_on_c, 0, 57, 82
2, 71270, Control_c, 0, 64, 0
2, 71274, Note_on_c, 0, 55, 0
2, 71392, Note_on_c, 0, 54, 75
2, 71405, Note_on_c, 0, 71, 76
2, 71405, Note_on_c, 0, 72, 0
2, 71429, Note_on_c, 0, 57, 0
2, 71458, Note_on_c, 0, 71, 0
2, 71481, Note_on_c, 0, 47, 0
2, 71503, Note_on_c, 0, 55, 80
2, 71536, Note_on_c, 0, 54, 0
2, 71633, Note_on_c, 0, 55, 0
2, 71633, Note_on_c, 0, 57, 82
2, 71643, Note_on_c, 0, 69, 74
2, 71644, Note_on_c, 0, 48, 71
2, 71686, Note_on_c, 0, 48, 0
2, 71689, Note_on_c, 0, 57, 0
2, 71756, Note_on_c, 0, 69, 0
2, 71759, Note_on_c, 0, 67, 70
2, 71891, Note_on_c, 0, 55, 69
2, 71892, Note_on_c, 0, 47, 72
2, 71894, Note_on_c, 0, 69, 65
2, 71901, Note_on_c, 0, 67, 0
2, 71936, Note_on_c, 0, 47, 0
2, 71948, Note_on_c, 0, 55, 0
2, 71997, Note_on_c, 0, 69, 0
2, 72016, Note_on_c, 0, 71, 70
2, 72059, Note_on_c, 0, 64, 0
2, 72078, Note_on_c, 0, 71, 0
2, 72139, Note_on_c, 0, 72, 68
2, 72152, Note_on_c, 0, 54, 59
2, 72157, Note_on_c, 0, 45, 54
2, 72380, Note_on_c, 0, 45, 0
2, 72386, Note_on_c, 0, 59, 66
2, 72394, Note_on_c, 0, 66, 66
2, 72396, Note_on_c, 0, 47, 61
2, 72401, Note_on_c, 0, 63, 52
2, 72416, Note_on_c, 0, 59, 0
2, 72418, Note_on_c, 0, 54, 0
2, 72425, Note_on_c, 0, 72, 0
2, 72427, Note_on_c, 0, 63, 0
2, 72427, Note_on_c, 0, 66, 0
2, 72514, Note_on_c, 0, 47, 0
2, 72521, Note_on_c, 0, 45, 59
2, 72651, Note_on_c, 0, 71, 56
2, 72652, Note_on_c, 0, 45, 0
2, 72663, Note_on_c, 0, 43, 62
2, 72663, Note_on_c, 0, 64, 52
2, 72667, Note_on_c, 0, 52, 54
2, 72761, Note_on_c, 0, 71, 0
2, 72769, Note_on_c, 0, 69, 67
2, 72902, Note_on_c, 0, 45, 69
2, 72906, Note_on_c, 0, 72, 69
2, 72919, Note_on_c, 0, 69, 0
2, 72924, Note_on_c, 0, 52, 0
2, 72928, Control_c, 0, 64, 36
2, 72938, Note_on_c, 0, 43, 0
2, 72942, Control_c, 0, 64, 51
2, 72946, Note_on_c, 0, 45, 0
2, 72957, Control_c, 0, 64, 59
2, 72973, Control_c, 0, 64, 62
2, 72988, Control_c, 0, 64, 63
2, 73004, Control_c, 0, 64, 63
2, 73019, Control_c, 0, 64, 63
2, 73029, Note_on_c, 0, 72, 0
2, 73041, Note_on_c, 0, 71, 53
2, 73049, Control_c, 0, 64, 62
2, 73062, Note_on_c, 0, 71, 0
2, 73064, Control_c, 0, 64, 62
2, 73081, Control_c, 0, 64, 61
2, 73096, Control_c, 0, 64, 60
2, 73111, Control_c, 0, 64, 58
2, 73126, Control_c, 0, 64, 55
2, 73141, Control_c, 0, 64, 52
2, 73156, Control_c, 0, 64, 48
2, 73163, Note_on_c, 0, 69, 78
2, 73172, Control_c, 0, 64, 46
2, 73180, Note_on_c, 0, 47, 56
2, 73181, Note_on_c, 0, 59, 60
2, 73187, Control_c, 0, 64, 43
2, 73202, Control_c, 0, 64, 38
2, 73217, Control_c, 0, 64, 30
2, 73232, Control_c, 0, 64, 23
2, 73241, Note_on_c, 0, 59, 0
2, 73248, Control_c, 0, 64, 16
2, 73263, Control_c, 0, 64, 11
2, 73275, Note_on_c, 0, 69, 0
2, 73278, Control_c, 0, 64, 0
2, 73284, Note_on_c, 0, 67, 72
2, 73422, Note_on_c, 0, 63, 60
2, 73422, Note_on_c, 0, 66, 64
2, 73422, Note_on_c, 0, 67, 0
2, 73424, Note_on_c, 0, 57, 61
2, 73453, Note_on_c, 0, 64, 0
2, 73461, Note_on_c, 0, 57, 0
2, 73522, Note_on_c, 0, 63, 0
2, 73550, Note_on_c, 0, 67, 68
2, 73553, Note_on_c, 0, 66, 0
2, 73599, Note_on_c, 0, 67, 0
2, 73709, Note_on_c, 0, 52, 52
2, 73711, Note_on_c, 0, 64, 62
2, 73730, Note_on_c, 0, 56, 45
2, 73756, Control_c, 0, 64, 22
2, 73762, Note_on_c, 0, 47, 0
2, 73772, Control_c, 0, 64, 45
2, 73785, Note_on_c, 0, 56, 0
2, 73786, Control_c, 0, 64, 56
2, 73802, Control_c, 0, 64, 60
2, 73814, Note_on_c, 0, 52, 0
2, 73817, Control_c, 0, 64, 62
2, 73877, Control_c, 0, 64, 61
2, 73909, Control_c, 0, 64, 61
2, 73925, Control_c, 0, 64, 60
2, 73940, Control_c, 0, 64, 60
2, 73955, Control_c, 0, 64, 59
2, 73970, Control_c, 0, 64, 57
2, 73985, Control_c, 0, 64, 55
2, 73995, Note_on_c, 0, 50, 56
2, 74001, Control_c, 0, 64, 53
2, 74003, Note_on_c, 0, 52, 50
2, 74006, Note_on_c, 0, 76, 70
2, 74015, Control_c, 0, 64, 50
2, 74030, Control_c, 0, 64, 48
2, 74046, Control_c, 0, 64, 44
2, 74049, Note_on_c, 0, 50, 0
2, 74049, Note_on_c, 0, 52, 0
2, 74061, Control_c, 0, 64, 38
2, 74064, Note_on_c, 0, 64, 0
2, 74076, Control_c, 0, 64, 31
2, 74092, Control_c, 0, 64, 21
2, 74107, Control_c, 0, 64, 0
2, 74117, Note_on_c, 0, 77, 78
2, 74132, Note_on_c, 0, 76, 0
2, 74175, Note_on_c, 0, 77, 0
2, 74251, Note_on_c, 0, 76, 83
2, 74254, Note_on_c, 0, 48, 66
2, 74254, Note_on_c, 0, 54, 65
2, 74286, Note_on_c, 0, 54, 0
2, 74290, Note_on_c, 0, 48, 0
2, 74304, Note_on_c, 0, 76, 0
2, 74517, Note_on_c, 0, 74, 76
2, 74518, Note_on_c, 0, 47, 58
2, 74518, Note_on_c, 0, 56, 65
2, 74550, Note_on_c, 0, 56, 0
2, 74557, Note_on_c, 0, 47, 0
2, 74559, Note_on_c, 0, 74, 0
2, 74762, Note_on_c, 0, 72, 67
2, 74785, Note_on_c, 0, 57, 61
2, 74791, Note_on_c, 0, 45, 54
2, 74798, Note_on_c, 0, 72, 0
2, 74801, Note_on_c, 0, 74, 82
2, 74832, Note_on_c, 0, 74, 0
2, 74856, Note_on_c, 0, 72, 78
2, 74866, Note_on_c, 0, 57, 0
2, 74905, Control_c, 0, 64, 40
2, 74921, Control_c, 0, 64, 55
2, 74936, Control_c, 0, 64, 62
2, 74942, Note_on_c, 0, 72, 0
2, 74951, Control_c, 0, 64, 66
2, 74966, Control_c, 0, 64, 69
2, 74981, Control_c, 0, 64, 72
2, 74990, Note_on_c, 0, 45, 0
2, 74996, Control_c, 0, 64, 73
2, 75034, Control_c, 0, 64, 72
2, 75048, Note_on_c, 0, 72, 71
2, 75050, Control_c, 0, 64, 71
2, 75054, Note_on_c, 0, 64, 62
2, 75062, Note_on_c, 0, 59, 56
2, 75065, Control_c, 0, 64, 70
2, 75079, Control_c, 0, 64, 69
2, 75095, Control_c, 0, 64, 66
2, 75110, Control_c, 0, 64, 63
2, 75111, Note_on_c, 0, 64, 0
2, 75126, Control_c, 0, 64, 59
2, 75141, Control_c, 0, 64, 52
2, 75145, Note_on_c, 0, 59, 0
2, 75155, Control_c, 0, 64, 46
2, 75161, Note_on_c, 0, 74, 79
2, 75162, Note_on_c, 0, 72, 0
2, 75171, Control_c, 0, 64, 42
2, 75186, Control_c, 0, 64, 39
2, 75202, Control_c, 0, 64, 34
2, 75217, Control_c, 0, 64, 25
2, 75232, Control_c, 0, 64, 0
2, 75244, Note_on_c, 0, 74, 0
2, 75290, Note_on_c, 0, 57, 77
2, 75290, Note_on_c, 0, 72, 75
2, 75302, Note_on_c, 0, 66, 66
2, 75334, Note_on_c, 0, 66, 0
2, 75342, Note_on_c, 0, 57, 0
2, 75350, Note_on_c, 0, 72, 0
2, 75563, Note_on_c, 0, 71, 71
2, 75566, Note_on_c, 0, 67, 69
2, 75567, Note_on_c, 0, 55, 74
2, 75605, Note_on_c, 0, 67, 0
2, 75611, Note_on_c, 0, 55, 0
2, 75632, Note_on_c, 0, 71, 0
2, 75822, Note_on_c, 0, 69, 68
2, 75823, Note_on_c, 0, 54, 72
2, 75890, Note_on_c, 0, 54, 0
2, 75950, Note_on_c, 0, 71, 79
2, 75961, Note_on_c, 0, 69, 0
2, 76071, Note_on_c, 0, 57, 69
2, 76073, Note_on_c, 0, 72, 82
2, 76079, Note_on_c, 0, 55, 64
2, 76092, Note_on_c, 0, 71, 0
2, 76112, Note_on_c, 0, 57, 0
2, 76115, Note_on_c, 0, 55, 0
2, 76190, Note_on_c, 0, 71, 87
2, 76205, Note_on_c, 0, 72, 0
2, 76250, Note_on_c, 0, 71, 0
2, 76323, Note_on_c, 0, 69, 85
2, 76332, Note_on_c, 0, 59, 62
2, 76333, Note_on_c, 0, 54, 64
2, 76373, Note_on_c, 0, 69, 0
2, 76379, Note_on_c, 0, 54, 0
2, 76386, Note_on_c, 0, 59, 0
2, 76587, Note_on_c, 0, 67, 77
2, 76606, Note_on_c, 0, 61, 61
2, 76608, Note_on_c, 0, 52, 47
2, 76647, Note_on_c, 0, 61, 0
2, 76651, Note_on_c, 0, 52, 0
2, 76651, Note_on_c, 0, 67, 0
2, 76850, Note_on_c, 0, 78, 74
2, 76865, Note_on_c, 0, 62, 58
2, 76871, Note_on_c, 0, 50, 47
2, 76901, Note_on_c, 0, 62, 0
2, 76904, Note_on_c, 0, 50, 0
2, 76914, Note_on_c, 0, 78, 0
2, 77119, Note_on_c, 0, 81, 72
2, 77123, Note_on_c, 0, 52, 47
2, 77124, Note_on_c, 0, 62, 54
2, 77165, Note_on_c, 0, 52, 0
2, 77170, Note_on_c, 0, 62, 0
2, 77171, Note_on_c, 0, 81, 0
2, 77392, Note_on_c, 0, 64, 64
2, 77403, Note_on_c, 0, 50, 53
2, 77434, Note_on_c, 0, 64, 0
2, 77442, Note_on_c, 0, 50, 0
2, 77648, Note_on_c, 0, 48, 57
2, 77649, Note_on_c, 0, 76, 68
2, 77655, Note_on_c, 0, 66, 52
2, 77693, Note_on_c, 0, 48, 0
2, 77715, Note_on_c, 0, 76, 0
2, 77725, Note_on_c, 0, 66, 0
2, 77892, Note_on_c, 0, 74, 62
2, 77904, Note_on_c, 0, 67, 59
2, 77912, Note_on_c, 0, 47, 56
2, 78018, Note_on_c, 0, 72, 70
2, 78058, Note_on_c, 0, 74, 0
2, 78142, Note_on_c, 0, 47, 0
2, 78149, Note_on_c, 0, 76, 70
2, 78153, Note_on_c, 0, 59, 66
2, 78161, Note_on_c, 0, 55, 60
2, 78176, Note_on_c, 0, 67, 0
2, 78181, Note_on_c, 0, 72, 0
2, 78221, Note_on_c, 0, 59, 0
2, 78269, Note_on_c, 0, 74, 75
2, 78284, Note_on_c, 0, 76, 0
2, 78406, Note_on_c, 0, 72, 74
2, 78409, Note_on_c, 0, 57, 66
2, 78421, Note_on_c, 0, 74, 0
2, 78530, Note_on_c, 0, 71, 71
2, 78530, Note_on_c, 0, 72, 0
2, 78541, Note_on_c, 0, 55, 0
2, 78652, Note_on_c, 0, 57, 0
2, 78662, Note_on_c, 0, 54, 62
2, 78663, Note_on_c, 0, 74, 69
2, 78674, Note_on_c, 0, 71, 0
2, 78768, Note_on_c, 0, 74, 0
2, 78785, Note_on_c, 0, 72, 64
2, 78848, Note_on_c, 0, 72, 0
2, 78903, Note_on_c, 0, 54, 0
2, 78920, Note_on_c, 0, 71, 73
2, 78922, Note_on_c, 0, 55, 56
2, 78946, Note_on_c, 0, 71, 0
2, 79035, Note_on_c, 0, 52, 53
2, 79163, Note_on_c, 0, 50, 53
2, 79175, Note_on_c, 0, 72, 72
2, 79202, Note_on_c, 0, 52, 0
2, 79212, Note_on_c, 0, 72, 0
2, 79280, Note_on_c, 0, 50, 0
2, 79289, Note_on_c, 0, 48, 54
2, 79421, Note_on_c, 0, 74, 68
2, 79426, Note_on_c, 0, 48, 0
2, 79428, Note_on_c, 0, 47, 55
2, 79478, Note_on_c, 0, 47, 0
2, 79531, Note_on_c, 0, 74, 0
2, 79539, Note_on_c, 0, 71, 68
2, 79667, Note_on_c, 0, 71, 0
2, 79672, Note_on_c, 0, 69, 66
2, 79687, Note_on_c, 0, 52, 55
2, 79735, Note_on_c, 0, 69, 0
2, 79776, Note_on_c, 0, 67, 68
2, 79782, Control_c, 0, 64, 11
2, 79798, Control_c, 0, 64, 28
2, 79813, Control_c, 0, 64, 34
2, 79818, Note_on_c, 0, 67, 0
2, 79828, Control_c, 0, 64, 38
2, 79844, Control_c, 0, 64, 39
2, 79918, Note_on_c, 0, 76, 54
2, 79934, Control_c, 0, 64, 38
2, 79939, Note_on_c, 0, 48, 57
2, 79947, Note_on_c, 0, 76, 0
2, 79949, Control_c, 0, 64, 36
2, 79955, Note_on_c, 0, 78, 71
2, 79965, Control_c, 0, 64, 34
2, 79979, Control_c, 0, 64, 31
2, 79979, Note_on_c, 0, 78, 0
2, 79991, Note_on_c, 0, 55, 0
2, 79995, Control_c, 0, 64, 24
2, 80003, Note_on_c, 0, 52, 0
2, 80007, Note_on_c, 0, 76, 82
2, 80010, Control_c, 0, 64, 12
2, 80025, Control_c, 0, 64, 0
2, 80194, Note_on_c, 0, 48, 0
2, 80194, Note_on_c, 0, 78, 69
2, 80207, Note_on_c, 0, 76, 0
2, 80209, Note_on_c, 0, 74, 60
2, 80210, Note_on_c, 0, 45, 49
2, 80217, Note_on_c, 0, 57, 47
2, 80285, Note_on_c, 0, 74, 0
2, 80314, Note_on_c, 0, 79, 70
2, 80318, Note_on_c, 0, 78, 0
2, 80322, Note_on_c, 0, 76, 64
2, 80410, Note_on_c, 0, 45, 0
2, 80428, Note_on_c, 0, 57, 0
2, 80457, Note_on_c, 0, 79, 0
2, 80462, Note_on_c, 0, 76, 0
2, 80465, Note_on_c, 0, 78, 70
2, 80475, Note_on_c, 0, 50, 45
2, 80487, Note_on_c, 0, 74, 53
2, 80558, Note_on_c, 0, 74, 0
2, 80596, Control_c, 0, 67, 8
2, 80611, Control_c, 0, 67, 14
2, 80625, Control_c, 0, 67, 17
2, 80671, Control_c, 0, 67, 16
2, 80687, Control_c, 0, 67, 14
2, 80701, Control_c, 0, 67, 13
2, 80717, Control_c, 0, 67, 11
2, 80732, Control_c, 0, 67, 9
2, 80747, Control_c, 0, 67, 0
2, 80760, Note_on_c, 0, 72, 63
2, 80786, Note_on_c, 0, 38, 28
2, 80828, Note_on_c, 0, 38, 0
2, 80845, Note_on_c, 0, 78, 0
2, 80857, Note_on_c, 0, 72, 0
2, 80882, Note_on_c, 0, 79, 66
2, 80925, Note_on_c, 0, 79, 0
2, 81063, Note_on_c, 0, 79, 61
2, 81066, Control_c, 0, 64, 37
2, 81078, Note_on_c, 0, 71, 55
2, 81081, Note_on_c, 0, 43, 52
2, 81082, Control_c, 0, 64, 56
2, 81097, Control_c, 0, 64, 63
2, 81111, Control_c, 0, 64, 67
2, 81127, Control_c, 0, 64, 74
2, 81127, Note_on_c, 0, 50, 0
2, 81130, Note_on_c, 0, 71, 0
2, 81131, Note_on_c, 0, 43, 0
2, 81142, Control_c, 0, 64, 83
2, 81165, Control_c, 0, 64, 94
2, 81180, Control_c, 0, 64, 127
2, 81382, Note_on_c, 0, 67, 68
2, 81382, Note_on_c, 0, 71, 59
2, 81394, Control_c, 0, 64, 118
2, 81409, Control_c, 0, 64, 97
2, 81424, Control_c, 0, 64, 82
2, 81434, Note_on_c, 0, 67, 0
2, 81440, Control_c, 0, 64, 71
2, 81455, Control_c, 0, 64, 61
2, 81455, Note_on_c, 0, 71, 0
2, 81469, Control_c, 0, 64, 47
2, 81484, Note_on_c, 0, 72, 69
2, 81485, Control_c, 0, 64, 34
2, 81490, Note_on_c, 0, 69, 70
2, 81500, Control_c, 0, 64, 30
2, 81515, Control_c, 0, 64, 29
2, 81524, Note_on_c, 0, 72, 0
2, 81530, Control_c, 0, 64, 25
2, 81538, Note_on_c, 0, 69, 0
2, 81544, Control_c, 0, 64, 13
2, 81560, Control_c, 0, 64, 0
2, 81615, Note_on_c, 0, 67, 79
2, 81616, Note_on_c, 0, 71, 68
2, 81667, Note_on_c, 0, 67, 0
2, 81674, Note_on_c, 0, 71, 0
2, 81875, Note_on_c, 0, 69, 68
2, 81879, Note_on_c, 0, 65, 77
2, 81938, Note_on_c, 0, 65, 0
2, 81939, Note_on_c, 0, 69, 0
2, 82162, Control_c, 0, 64, 22
2, 82164, Note_on_c, 0, 64, 71
2, 82167, Note_on_c, 0, 67, 60
2, 82177, Control_c, 0, 64, 46
2, 82177, Note_on_c, 0, 79, 0
2, 82191, Control_c, 0, 64, 58
2, 82207, Control_c, 0, 64, 63
2, 82222, Control_c, 0, 64, 67
2, 82237, Control_c, 0, 64, 71
2, 82252, Control_c, 0, 64, 76
2, 82256, Note_on_c, 0, 64, 0
2, 82267, Control_c, 0, 64, 81
2, 82282, Control_c, 0, 64, 87
2, 82297, Control_c, 0, 64, 94
2, 82312, Control_c, 0, 64, 97
2, 82327, Control_c, 0, 64, 96
2, 82342, Control_c, 0, 64, 95
2, 82358, Control_c, 0, 64, 94
2, 82373, Control_c, 0, 64, 92
2, 82388, Control_c, 0, 64, 90
2, 82404, Control_c, 0, 64, 87
2, 82419, Control_c, 0, 64, 82
2, 82420, Note_on_c, 0, 64, 73
2, 82431, Note_on_c, 0, 79, 74
2, 82435, Control_c, 0, 64, 76
2, 82449, Control_c, 0, 64, 70
2, 82464, Control_c, 0, 64, 64
2, 82480, Control_c, 0, 64, 58
2, 82495, Control_c, 0, 64, 50
2, 82510, Control_c, 0, 64, 41
2, 82525, Control_c, 0, 64, 36
2, 82532, Note_on_c, 0, 65, 80
2, 82533, Note_on_c, 0, 81, 75
2, 82540, Control_c, 0, 64, 32
2, 82554, Note_on_c, 0, 64, 0
2, 82554, Note_on_c, 0, 67, 0
2, 82556, Control_c, 0, 64, 23
2, 82567, Note_on_c, 0, 79, 0
2, 82571, Control_c, 0, 64, 0
2, 82606, Note_on_c, 0, 65, 0
2, 82634, Note_on_c, 0, 81, 0
2, 82664, Note_on_c, 0, 64, 85
2, 82664, Note_on_c, 0, 79, 82
2, 82679, Note_on_c, 0, 69, 60
2, 82719, Note_on_c, 0, 69, 0
2, 82731, Note_on_c, 0, 64, 0
2, 82747, Note_on_c, 0, 79, 0
2, 82940, Note_on_c, 0, 77, 75
2, 82942, Note_on_c, 0, 71, 72
2, 82948, Note_on_c, 0, 62, 71
2, 82975, Note_on_c, 0, 62, 0
2, 82978, Note_on_c, 0, 71, 0
2, 82995, Note_on_c, 0, 77, 0
2, 83219, Note_on_c, 0, 60, 59
2, 83221, Note_on_c, 0, 76, 64
2, 83226, Note_on_c, 0, 72, 54
2, 83331, Note_on_c, 0, 72, 0
2, 83336, Note_on_c, 0, 62, 67
2, 83337, Note_on_c, 0, 74, 70
2, 83363, Note_on_c, 0, 60, 0
2, 83391, Note_on_c, 0, 76, 0
2, 83457, Note_on_c, 0, 64, 73
2, 83477, Note_on_c, 0, 72, 71
2, 83483, Note_on_c, 0, 62, 0
2, 83489, Note_on_c, 0, 74, 0
2, 83590, Note_on_c, 0, 62, 76
2, 83590, Note_on_c, 0, 74, 79
2, 83597, Note_on_c, 0, 72, 0
2, 83606, Note_on_c, 0, 64, 0
2, 83676, Note_on_c, 0, 62, 0
2, 83716, Note_on_c, 0, 76, 81
2, 83746, Note_on_c, 0, 60, 72
2, 83750, Note_on_c, 0, 74, 0
2, 83803, Note_on_c, 0, 60, 0
2, 83847, Note_on_c, 0, 76, 0
2, 83847, Note_on_c, 0, 77, 81
2, 83969, Note_on_c, 0, 58, 68
2, 83980, Note_on_c, 0, 79, 75
2, 83996, Note_on_c, 0, 77, 0
2, 84002, Note_on_c, 0, 74, 62
2, 84020, Note_on_c, 0, 58, 0
2, 84220, Note_on_c, 0, 73, 66
2, 84238, Note_on_c, 0, 69, 60
2, 84249, Note_on_c, 0, 74, 0
2, 84305, Note_on_c, 0, 69, 0
2, 84319, Note_on_c, 0, 73, 0
2, 84358, Note_on_c, 0, 77, 72
2, 84376, Note_on_c, 0, 79, 0
2, 84475, Note_on_c, 0, 73, 65
2, 84480, Note_on_c, 0, 76, 72
2, 84480, Note_on_c, 0, 77, 0
2, 84526, Note_on_c, 0, 73, 0
2, 84580, Note_on_c, 0, 77, 55
2, 84581, Note_on_c, 0, 76, 0
2, 84609, Note_on_c, 0, 74, 60
2, 84662, Note_on_c, 0, 74, 0
2, 84688, Note_on_c, 0, 77, 0
2, 84719, Note_on_c, 0, 76, 60
2, 84728, Note_on_c, 0, 79, 73
2, 84819, Note_on_c, 0, 79, 0
2, 84832, Note_on_c, 0, 81, 71
2, 84845, Control_c, 0, 64, 41
2, 84860, Control_c, 0, 64, 55
2, 84876, Control_c, 0, 64, 62
2, 84880, Note_on_c, 0, 81, 0
2, 84891, Control_c, 0, 64, 65
2, 84905, Control_c, 0, 64, 67
2, 84921, Control_c, 0, 64, 68
2, 84941, Note_on_c, 0, 76, 0
2, 84941, Note_on_c, 0, 76, 28
2, 84951, Control_c, 0, 64, 67
2, 84964, Note_on_c, 0, 82, 74
2, 84967, Control_c, 0, 64, 67
2, 84971, Note_on_c, 0, 67, 62
2, 84981, Control_c, 0, 64, 66
2, 85005, Control_c, 0, 64, 65
2, 85018, Note_on_c, 0, 67, 0
2, 85020, Control_c, 0, 64, 64
2, 85036, Control_c, 0, 64, 62
2, 85051, Control_c, 0, 64, 58
2, 85065, Control_c, 0, 64, 52
2, 85081, Control_c, 0, 64, 46
2, 85092, Note_on_c, 0, 79, 71
2, 85096, Control_c, 0, 64, 43
2, 85097, Note_on_c, 0, 82, 0
2, 85126, Control_c, 0, 64, 42
2, 85141, Control_c, 0, 64, 39
2, 85157, Control_c, 0, 64, 34
2, 85172, Control_c, 0, 64, 27
2, 85186, Control_c, 0, 64, 22
2, 85202, Control_c, 0, 64, 18
2, 85217, Control_c, 0, 64, 17
2, 85238, Note_on_c, 0, 81, 71
2, 85240, Note_on_c, 0, 65, 58
2, 85248, Control_c, 0, 64, 15
2, 85252, Note_on_c, 0, 79, 0
2, 85262, Control_c, 0, 64, 12
2, 85278, Control_c, 0, 64, 9
2, 85294, Note_on_c, 0, 76, 0
2, 85355, Note_on_c, 0, 73, 59
2, 85358, Note_on_c, 0, 64, 56
2, 85358, Note_on_c, 0, 65, 0
2, 85413, Note_on_c, 0, 73, 0
2, 85478, Note_on_c, 0, 64, 0
2, 85486, Note_on_c, 0, 67, 66
2, 85486, Note_on_c, 0, 74, 59
2, 85602, Note_on_c, 0, 67, 0
2, 85611, Note_on_c, 0, 65, 65
2, 85611, Note_on_c, 0, 82, 79
2, 85629, Note_on_c, 0, 74, 0
2, 85721, Note_on_c, 0, 81, 0
2, 85740, Note_on_c, 0, 79, 73
2, 85745, Note_on_c, 0, 64, 61
2, 85745, Note_on_c, 0, 82, 0
2, 85751, Note_on_c, 0, 65, 0
2, 85873, Note_on_c, 0, 64, 0
2, 85873, Note_on_c, 0, 71, 65
2, 85884, Note_on_c, 0, 62, 60
2, 85978, Note_on_c, 0, 62, 0
2, 85993, Note_on_c, 0, 71, 0
2, 86002, Note_on_c, 0, 73, 63
2, 86008, Note_on_c, 0, 65, 58
2, 86102, Note_on_c, 0, 73, 0
2, 86112, Note_on_c, 0, 81, 67
2, 86131, Note_on_c, 0, 64, 62
2, 86134, Note_on_c, 0, 65, 0
2, 86156, Note_on_c, 0, 79, 0
2, 86238, Note_on_c, 0, 64, 0
2, 86243, Note_on_c, 0, 81, 0
2, 86246, Note_on_c, 0, 62, 72
2, 86251, Note_on_c, 0, 77, 73
2, 86263, Note_on_c, 0, 74, 62
2, 86293, Note_on_c, 0, 62, 0
2, 86305, Control_c, 0, 64, 0
2, 86357, Note_on_c, 0, 77, 0
2, 86375, Note_on_c, 0, 76, 67
2, 86498, Note_on_c, 0, 64, 76
2, 86501, Note_on_c, 0, 77, 74
2, 86511, Note_on_c, 0, 76, 0
2, 86561, Note_on_c, 0, 64, 0
2, 86619, Note_on_c, 0, 77, 0
2, 86627, Note_on_c, 0, 79, 76
2, 86764, Note_on_c, 0, 81, 73
2, 86765, Note_on_c, 0, 79, 0
2, 86767, Note_on_c, 0, 65, 65
2, 86804, Note_on_c, 0, 81, 0
2, 86806, Note_on_c, 0, 74, 0
2, 86882, Note_on_c, 0, 64, 72
2, 86885, Note_on_c, 0, 65, 0
2, 87005, Note_on_c, 0, 64, 0
2, 87017, Note_on_c, 0, 69, 73
2, 87018, Note_on_c, 0, 62, 71
2, 87023, Note_on_c, 0, 65, 63
2, 87057, Note_on_c, 0, 65, 0
2, 87067, Note_on_c, 0, 69, 0
2, 87120, Note_on_c, 0, 62, 0
2, 87142, Note_on_c, 0, 60, 68
2, 87278, Note_on_c, 0, 58, 65
2, 87281, Note_on_c, 0, 74, 71
2, 87286, Note_on_c, 0, 60, 0
2, 87290, Note_on_c, 0, 67, 60
2, 87364, Note_on_c, 0, 67, 0
2, 87409, Note_on_c, 0, 74, 0
2, 87412, Note_on_c, 0, 73, 62
2, 87417, Note_on_c, 0, 79, 73
2, 87457, Note_on_c, 0, 73, 0
2, 87537, Note_on_c, 0, 79, 0
2, 87545, Note_on_c, 0, 57, 72
2, 87546, Note_on_c, 0, 77, 76
2, 87552, Note_on_c, 0, 74, 66
2, 87566, Note_on_c, 0, 58, 0
2, 87610, Note_on_c, 0, 74, 0
2, 87656, Note_on_c, 0, 77, 0
2, 87659, Note_on_c, 0, 76, 68
2, 87661, Note_on_c, 0, 55, 54
2, 87673, Note_on_c, 0, 57, 0
2, 87682, Note_on_c, 0, 58, 63
2, 87696, Note_on_c, 0, 76, 0
2, 87751, Note_on_c, 0, 55, 0
2, 87793, Note_on_c, 0, 76, 68
2, 87795, Note_on_c, 0, 58, 0
2, 87804, Note_on_c, 0, 57, 62
2, 87827, Note_on_c, 0, 76, 0
2, 87847, Note_on_c, 0, 77, 69
2, 87882, Note_on_c, 0, 77, 0
2, 87908, Note_on_c, 0, 76, 74
2, 87937, Note_on_c, 0, 76, 0
2, 87952, Note_on_c, 0, 77, 79
2, 87977, Note_on_c, 0, 77, 0
2, 88007, Note_on_c, 0, 76, 74
2, 88055, Note_on_c, 0, 55, 48
2, 88136, Note_on_c, 0, 76, 0
2, 88163, Note_on_c, 0, 74, 72
2, 88217, Note_on_c, 0, 74, 0
2, 88307, Note_on_c, 0, 53, 54
2, 88315, Note_on_c, 0, 74, 55
2, 88327, Note_on_c, 0, 55, 0
2, 88369, Note_on_c, 0, 53, 0
2, 88386, Note_on_c, 0, 57, 0
2, 88578, Note_on_c, 0, 57, 47
2, 88582, Note_on_c, 0, 53, 45
2, 88582, Note_on_c, 0, 69, 56
2, 88659, Note_on_c, 0, 69, 0
2, 88675, Note_on_c, 0, 55, 59
2, 88682, Note_on_c, 0, 70, 62
2, 88691, Note_on_c, 0, 57, 0
2, 88696, Note_on_c, 0, 53, 0
2, 88717, Note_on_c, 0, 55, 0
2, 88729, Note_on_c, 0, 70, 0
2, 88803, Note_on_c, 0, 69, 67
2, 88814, Note_on_c, 0, 53, 64
2, 88820, Note_on_c, 0, 59, 58
2, 88854, Note_on_c, 0, 53, 0
2, 88859, Note_on_c, 0, 59, 0
2, 88864, Note_on_c, 0, 69, 0
2, 88894, Note_on_c, 0, 74, 0
2, 89075, Note_on_c, 0, 76, 69
2, 89084, Note_on_c, 0, 67, 58
2, 89091, Note_on_c, 0, 61, 58
2, 89095, Note_on_c, 0, 52, 49
2, 89120, Note_on_c, 0, 67, 0
2, 89134, Note_on_c, 0, 76, 0
2, 89138, Note_on_c, 0, 52, 0
2, 89147, Note_on_c, 0, 61, 0
2, 89343, Note_on_c, 0, 77, 72
2, 89346, Note_on_c, 0, 62, 47
2, 89350, Note_on_c, 0, 50, 49
2, 89350, Note_on_c, 0, 65, 57
2, 89428, Note_on_c, 0, 65, 0
2, 89463, Note_on_c, 0, 52, 61
2, 89508, Note_on_c, 0, 50, 0
2, 89585, Note_on_c, 0, 52, 0
2, 89588, Note_on_c, 0, 53, 61
2, 89613, Note_on_c, 0, 69, 69
2, 89650, Note_on_c, 0, 69, 0
2, 89704, Note_on_c, 0, 52, 71
2, 89707, Note_on_c, 0, 53, 0
2, 89840, Note_on_c, 0, 50, 71
2, 89840, Note_on_c, 0, 52, 0
2, 89841, Note_on_c, 0, 71, 81
2, 89888, Note_on_c, 0, 71, 0
2, 89903, Note_on_c, 0, 50, 0
2, 90113, Note_on_c, 0, 72, 78
2, 90115, Note_on_c, 0, 48, 78
2, 90163, Note_on_c, 0, 48, 0
2, 90165, Note_on_c, 0, 72, 0
2, 90367, Note_on_c, 0, 59, 67
2, 90378, Note_on_c, 0, 74, 68
2, 90399, Note_on_c, 0, 62, 0
2, 90426, Note_on_c, 0, 59, 0
2, 90495, Note_on_c, 0, 72, 66
2, 90499, Note_on_c, 0, 74, 0
2, 90616, Note_on_c, 0, 72, 0
2, 90629, Note_on_c, 0, 71, 68
2, 90632, Note_on_c, 0, 62, 61
2, 90701, Note_on_c, 0, 62, 0
2, 90705, Note_on_c, 0, 77, 0
2, 90730, Note_on_c, 0, 71, 0
2, 90751, Note_on_c, 0, 69, 64
2, 90861, Note_on_c, 0, 69, 0
2, 90878, Note_on_c, 0, 67, 69
2, 91000, Note_on_c, 0, 76, 69
2, 91007, Note_on_c, 0, 67, 0
2, 91118, Note_on_c, 0, 57, 71
2, 91121, Note_on_c, 0, 76, 0
2, 91124, Note_on_c, 0, 74, 70
2, 91144, Note_on_c, 0, 65, 58
2, 91160, Note_on_c, 0, 57, 0
2, 91253, Note_on_c, 0, 74, 0
2, 91258, Note_on_c, 0, 72, 71
2, 91327, Note_on_c, 0, 72, 0
2, 91379, Note_on_c, 0, 55, 65
2, 91379, Note_on_c, 0, 71, 71
2, 91487, Note_on_c, 0, 53, 69
2, 91496, Note_on_c, 0, 55, 0
2, 91516, Note_on_c, 0, 65, 0
2, 91604, Note_on_c, 0, 53, 0
2, 91621, Note_on_c, 0, 71, 0
2, 91630, Note_on_c, 0, 57, 56
2, 91632, Note_on_c, 0, 72, 69
2, 91644, Note_on_c, 0, 64, 63
2, 91689, Note_on_c, 0, 64, 0
2, 91740, Note_on_c, 0, 57, 0
2, 91749, Note_on_c, 0, 55, 59
2, 91887, Note_on_c, 0, 53, 54
2, 91890, Note_on_c, 0, 62, 60
2, 91891, Note_on_c, 0, 55, 0
2, 92006, Note_on_c, 0, 52, 57
2, 92015, Note_on_c, 0, 53, 0
2, 92125, Note_on_c, 0, 52, 0
2, 92145, Note_on_c, 0, 71, 67
2, 92157, Note_on_c, 0, 55, 56
2, 92159, Note_on_c, 0, 72, 0
2, 92213, Note_on_c, 0, 71, 0
2, 92263, Note_on_c, 0, 53, 54
2, 92265, Note_on_c, 0, 55, 0
2, 92391, Note_on_c, 0, 52, 63
2, 92398, Note_on_c, 0, 72, 67
2, 92403, Note_on_c, 0, 53, 0
2, 92422, Note_on_c, 0, 62, 0
2, 92455, Note_on_c, 0, 52, 0
2, 92518, Note_on_c, 0, 69, 63
2, 92646, Note_on_c, 0, 53, 69
2, 92647, Note_on_c, 0, 69, 0
2, 92652, Note_on_c, 0, 67, 65
2, 92697, Note_on_c, 0, 53, 0
2, 92777, Note_on_c, 0, 65, 69
2, 92782, Note_on_c, 0, 67, 0
2, 92836, Note_on_c, 0, 65, 0
2, 92910, Note_on_c, 0, 64, 73
2, 92915, Note_on_c, 0, 55, 65
2, 93026, Note_on_c, 0, 52, 71
2, 93054, Note_on_c, 0, 55, 0
2, 93153, Note_on_c, 0, 64, 0
2, 93153, Note_on_c, 0, 72, 0
2, 93156, Note_on_c, 0, 70, 72
2, 93161, Note_on_c, 0, 67, 73
2, 93167, Note_on_c, 0, 50, 69
2, 93193, Note_on_c, 0, 52, 0
2, 93264, Note_on_c, 0, 70, 0
2, 93281, Note_on_c, 0, 48, 70
2, 93285, Note_on_c, 0, 50, 0
2, 93421, Note_on_c, 0, 69, 76
2, 93428, Note_on_c, 0, 53, 66
2, 93434, Note_on_c, 0, 48, 0
2, 93559, Note_on_c, 0, 52, 67
2, 93586, Note_on_c, 0, 53, 0
2, 93685, Note_on_c, 0, 65, 67
2, 93691, Note_on_c, 0, 67, 0
2, 93696, Note_on_c, 0, 50, 68
2, 93721, Note_on_c, 0, 52, 0
2, 93802, Note_on_c, 0, 67, 75
2, 93807, Note_on_c, 0, 48, 72
2, 93807, Note_on_c, 0, 65, 0
2, 93810, Note_on_c, 0, 50, 0
2, 93909, Note_on_c, 0, 67, 0
2, 93925, Note_on_c, 0, 50, 78
2, 93936, Note_on_c, 0, 65, 78
2, 93946, Note_on_c, 0, 48, 0
2, 93996, Note_on_c, 0, 65, 0
2, 94049, Note_on_c, 0, 52, 75
2, 94075, Note_on_c, 0, 50, 0
2, 94174, Note_on_c, 0, 52, 0
2, 94181, Note_on_c, 0, 53, 77
2, 94188, Note_on_c, 0, 64, 81
2, 94250, Note_on_c, 0, 64, 0
2, 94305, Note_on_c, 0, 50, 76
2, 94327, Note_on_c, 0, 53, 0
2, 94487, Note_on_c, 0, 50, 0
2, 94493, Note_on_c, 0, 47, 72
2, 94494, Note_on_c, 0, 62, 85
2, 94600, Control_c, 0, 64, 29
2, 94615, Control_c, 0, 64, 53
2, 94630, Control_c, 0, 64, 62
2, 94646, Control_c, 0, 64, 69
2, 94648, Note_on_c, 0, 62, 0
2, 94661, Control_c, 0, 64, 76
2, 94676, Control_c, 0, 64, 87
2, 94691, Control_c, 0, 64, 100
2, 94706, Control_c, 0, 64, 119
2, 94722, Control_c, 0, 64, 127
2, 94737, Control_c, 0, 64, 117
2, 94742, Note_on_c, 0, 69, 0
2, 94752, Control_c, 0, 64, 109
2, 94762, Note_on_c, 0, 59, 71
2, 94768, Control_c, 0, 64, 103
2, 94774, Note_on_c, 0, 68, 78
2, 94783, Control_c, 0, 64, 97
2, 94786, Note_on_c, 0, 62, 67
2, 94793, Note_on_c, 0, 59, 0
2, 94799, Control_c, 0, 64, 89
2, 94813, Control_c, 0, 64, 80
2, 94828, Control_c, 0, 64, 70
2, 94830, Note_on_c, 0, 62, 0
2, 94844, Control_c, 0, 64, 63
2, 94859, Control_c, 0, 64, 55
2, 94875, Control_c, 0, 64, 48
2, 94884, Note_on_c, 0, 60, 79
2, 94884, Note_on_c, 0, 64, 83
2, 94889, Control_c, 0, 64, 46
2, 94904, Control_c, 0, 64, 46
2, 94912, Note_on_c, 0, 47, 0
2, 94920, Control_c, 0, 64, 43
2, 94926, Note_on_c, 0, 68, 0
2, 94935, Control_c, 0, 64, 37
2, 94940, Note_on_c, 0, 60, 0
2, 94950, Control_c, 0, 64, 24
2, 94965, Control_c, 0, 64, 0
2, 94985, Note_on_c, 0, 64, 0
2, 95014, Note_on_c, 0, 69, 88
2, 95026, Note_on_c, 0, 62, 75
2, 95030, Note_on_c, 0, 48, 76
2, 95032, Note_on_c, 0, 59, 75
2, 95058, Note_on_c, 0, 62, 0
2, 95061, Note_on_c, 0, 48, 0
2, 95070, Note_on_c, 0, 69, 0
2, 95071, Note_on_c, 0, 59, 0
2, 95285, Note_on_c, 0, 71, 84
2, 95288, Note_on_c, 0, 60, 68
2, 95294, Note_on_c, 0, 57, 83
2, 95300, Note_on_c, 0, 50, 71
2, 95316, Note_on_c, 0, 60, 0
2, 95334, Note_on_c, 0, 71, 0
2, 95558, Note_on_c, 0, 64, 79
2, 95560, Note_on_c, 0, 56, 77
2, 95566, Note_on_c, 0, 57, 0
2, 95571, Note_on_c, 0, 59, 66
2, 95597, Note_on_c, 0, 50, 0
2, 95629, Note_on_c, 0, 59, 0
2, 95672, Note_on_c, 0, 60, 69
2, 95810, Note_on_c, 0, 52, 70
2, 95813, Note_on_c, 0, 62, 69
2, 95816, Note_on_c, 0, 60, 0
2, 95858, Note_on_c, 0, 52, 0
2, 95933, Note_on_c, 0, 62, 0
2, 95934, Note_on_c, 0, 60, 74
2, 95941, Note_on_c, 0, 64, 0
2, 95991, Note_on_c, 0, 60, 0
2, 96061, Note_on_c, 0, 59, 72
2, 96065, Note_on_c, 0, 50, 73
2, 96089, Note_on_c, 0, 56, 0
2, 96119, Note_on_c, 0, 50, 0
2, 96166, Note_on_c, 0, 59, 0
2, 96175, Note_on_c, 0, 66, 77
2, 96301, Note_on_c, 0, 68, 77
2, 96302, Note_on_c, 0, 52, 68
2, 96311, Note_on_c, 0, 48, 65
2, 96311, Note_on_c, 0, 66, 0
2, 96318, Note_on_c, 0, 57, 67
2, 96337, Note_on_c, 0, 52, 0
2, 96352, Note_on_c, 0, 48, 0
2, 96378, Note_on_c, 0, 57, 0
2, 96395, Control_c, 0, 64, 31
2, 96410, Control_c, 0, 64, 49
2, 96425, Control_c, 0, 64, 59
2, 96428, Note_on_c, 0, 69, 82
2, 96440, Control_c, 0, 64, 63
2, 96460, Note_on_c, 0, 68, 0
2, 96470, Control_c, 0, 64, 62
2, 96480, Note_on_c, 0, 69, 0
2, 96486, Control_c, 0, 64, 60
2, 96501, Control_c, 0, 64, 57
2, 96524, Control_c, 0, 64, 53
2, 96539, Control_c, 0, 64, 49
2, 96555, Control_c, 0, 64, 47
2, 96571, Note_on_c, 0, 47, 61
2, 96571, Note_on_c, 0, 71, 76
2, 96572, Note_on_c, 0, 68, 77
2, 96575, Note_on_c, 0, 50, 56
2, 96585, Control_c, 0, 64, 46
2, 96601, Control_c, 0, 64, 43
2, 96616, Control_c, 0, 64, 39
2, 96630, Control_c, 0, 64, 34
2, 96646, Control_c, 0, 64, 28
2, 96661, Control_c, 0, 64, 24
2, 96677, Control_c, 0, 64, 21
2, 96681, Note_on_c, 0, 72, 84
2, 96692, Control_c, 0, 64, 20
2, 96696, Note_on_c, 0, 68, 0
2, 96704, Note_on_c, 0, 50, 0
2, 96706, Control_c, 0, 64, 18
2, 96719, Note_on_c, 0, 71, 0
2, 96722, Control_c, 0, 64, 15
2, 96737, Control_c, 0, 64, 12
2, 96752, Control_c, 0, 64, 9
2, 96766, Note_on_c, 0, 72, 0
2, 96768, Control_c, 0, 64, 0
2, 96820, Note_on_c, 0, 71, 88
2, 96822, Note_on_c, 0, 53, 73
2, 96823, Note_on_c, 0, 50, 71
2, 96853, Note_on_c, 0, 47, 0
2, 96875, Note_on_c, 0, 53, 0
2, 96878, Note_on_c, 0, 50, 0
2, 96911, Note_on_c, 0, 71, 0
2, 96923, Note_on_c, 0, 52, 70
2, 96927, Note_on_c, 0, 48, 68
2, 96929, Note_on_c, 0, 72, 84
2, 96975, Note_on_c, 0, 48, 0
2, 96978, Note_on_c, 0, 52, 0
2, 97056, Note_on_c, 0, 74, 85
2, 97059, Note_on_c, 0, 72, 0
2, 97064, Note_on_c, 0, 50, 71
2, 97071, Note_on_c, 0, 47, 74
2, 97101, Note_on_c, 0, 50, 0
2, 97119, Note_on_c, 0, 47, 0
2, 97333, Note_on_c, 0, 65, 75
2, 97335, Note_on_c, 0, 48, 73
2, 97339, Note_on_c, 0, 45, 65
2, 97373, Note_on_c, 0, 48, 0
2, 97377, Note_on_c, 0, 45, 0
2, 97393, Note_on_c, 0, 65, 0
2, 97589, Note_on_c, 0, 64, 66
2, 97597, Note_on_c, 0, 47, 65
2, 97601, Note_on_c, 0, 44, 68
2, 97652, Note_on_c, 0, 44, 0
2, 97664, Note_on_c, 0, 47, 0
2, 97669, Note_on_c, 0, 74, 0
2, 97701, Note_on_c, 0, 62, 74
2, 97713, Note_on_c, 0, 64, 0
2, 97828, Note_on_c, 0, 62, 0
2, 97831, Note_on_c, 0, 72, 81
2, 97840, Note_on_c, 0, 65, 69
2, 97844, Note_on_c, 0, 48, 64
2, 97847, Note_on_c, 0, 45, 60
2, 97883, Note_on_c, 0, 48, 0
2, 97900, Note_on_c, 0, 45, 0
2, 97943, Note_on_c, 0, 65, 0
2, 97950, Note_on_c, 0, 64, 69
2, 98057, Note_on_c, 0, 64, 0
2, 98085, Note_on_c, 0, 62, 64
2, 98094, Note_on_c, 0, 50, 52
2, 98100, Note_on_c, 0, 47, 59
2, 98129, Note_on_c, 0, 50, 0
2, 98142, Note_on_c, 0, 47, 0
2, 98205, Note_on_c, 0, 60, 74
2, 98205, Note_on_c, 0, 62, 0
2, 98216, Note_on_c, 0, 72, 0
2, 98313, Note_on_c, 0, 60, 0
2, 98333, Note_on_c, 0, 47, 71
2, 98333, Note_on_c, 0, 71, 77
2, 98342, Note_on_c, 0, 44, 55
2, 98346, Note_on_c, 0, 64, 62
2, 98369, Note_on_c, 0, 47, 0
2, 98378, Note_on_c, 0, 44, 0
2, 98425, Note_on_c, 0, 64, 0
2, 98455, Note_on_c, 0, 62, 68
2, 98490, Note_on_c, 0, 62, 0
2, 98596, Note_on_c, 0, 60, 75
2, 98598, Note_on_c, 0, 45, 77
2, 98600, Note_on_c, 0, 52, 62
2, 98667, Control_c, 0, 64, 45
2, 98683, Control_c, 0, 64, 60
2, 98685, Note_on_c, 0, 60, 0
2, 98691, Note_on_c, 0, 71, 0
2, 98697, Control_c, 0, 64, 67
2, 98712, Control_c, 0, 64, 75
2, 98728, Control_c, 0, 64, 89
2, 98743, Control_c, 0, 64, 123
2, 98758, Control_c, 0, 64, 127
2, 98805, Control_c, 0, 64, 105
2, 98826, Control_c, 0, 64, 86
2, 98842, Control_c, 0, 64, 69
2, 98850, Note_on_c, 0, 45, 0
2, 98854, Note_on_c, 0, 69, 79
2, 98856, Note_on_c, 0, 47, 72
2, 98857, Control_c, 0, 64, 56
2, 98859, Note_on_c, 0, 62, 72
2, 98872, Control_c, 0, 64, 22
2, 98888, Control_c, 0, 64, 0
2, 98908, Note_on_c, 0, 62, 0
2, 98934, Note_on_c, 0, 47, 0
2, 98967, Note_on_c, 0, 68, 78
2, 98978, Note_on_c, 0, 69, 0
2, 99046, Note_on_c, 0, 68, 0
2, 99104, Note_on_c, 0, 69, 83
2, 99107, Note_on_c, 0, 64, 73
2, 99110, Note_on_c, 0, 48, 68
2, 99137, Note_on_c, 0, 52, 0
2, 99189, Note_on_c, 0, 64, 0
2, 99223, Note_on_c, 0, 60, 74
2, 99319, Note_on_c, 0, 60, 0
2, 99336, Note_on_c, 0, 48, 0
2, 99353, Note_on_c, 0, 59, 73
2, 99357, Note_on_c, 0, 53, 66
2, 99432, Note_on_c, 0, 59, 0
2, 99459, Note_on_c, 0, 57, 75
2, 99530, Note_on_c, 0, 57, 0
2, 99600, Note_on_c, 0, 50, 67
2, 99623, Note_on_c, 0, 65, 72
2, 99643, Note_on_c, 0, 50, 0
2, 99682, Note_on_c, 0, 69, 0
2, 99708, Note_on_c, 0, 65, 0
2, 99722, Note_on_c, 0, 62, 70
2, 99815, Note_on_c, 0, 62, 0
2, 99844, Note_on_c, 0, 53, 0
2, 99855, Note_on_c, 0, 50, 66
2, 99862, Note_on_c, 0, 64, 72
2, 99864, Note_on_c, 0, 47, 55
2, 99929, Note_on_c, 0, 64, 0
2, 99987, Note_on_c, 0, 65, 67
2, 100020, Control_c, 0, 64, 25
2, 100035, Control_c, 0, 64, 43
2, 100049, Note_on_c, 0, 47, 0
2, 100051, Control_c, 0, 64, 52
2, 100066, Control_c, 0, 64, 57
2, 100071, Note_on_c, 0, 65, 0
2, 100076, Note_on_c, 0, 50, 0
2, 100080, Control_c, 0, 64, 58
2, 100096, Control_c, 0, 64, 57
2, 100112, Control_c, 0, 64, 56
2, 100112, Note_on_c, 0, 59, 68
2, 100122, Note_on_c, 0, 52, 54
2, 100122, Note_on_c, 0, 68, 65
2, 100128, Control_c, 0, 64, 54
2, 100143, Control_c, 0, 64, 51
2, 100147, Note_on_c, 0, 52, 0
2, 100158, Control_c, 0, 64, 44
2, 100162, Note_on_c, 0, 59, 0
2, 100174, Control_c, 0, 64, 31
2, 100180, Note_on_c, 0, 60, 70
2, 100188, Control_c, 0, 64, 11
2, 100204, Control_c, 0, 64, 0
2, 100213, Note_on_c, 0, 60, 0
2, 100251, Note_on_c, 0, 59, 58
2, 100285, Note_on_c, 0, 59, 0
2, 100302, Note_on_c, 0, 60, 69
2, 100351, Note_on_c, 0, 60, 0
2, 100364, Note_on_c, 0, 50, 65
2, 100372, Note_on_c, 0, 40, 51
2, 100379, Note_on_c, 0, 59, 61
2, 100394, Note_on_c, 0, 50, 0
2, 100404, Note_on_c, 0, 40, 0
2, 100418, Note_on_c, 0, 59, 0
2, 100510, Note_on_c, 0, 57, 64
2, 100541, Note_on_c, 0, 68, 0
2, 100550, Note_on_c, 0, 57, 0
2, 100669, Note_on_c, 0, 57, 66
2, 100669, Note_on_c, 0, 69, 72
2, 100682, Control_c, 0, 64, 44
2, 100693, Note_on_c, 0, 48, 48
2, 100697, Control_c, 0, 64, 61
2, 100697, Note_on_c, 0, 45, 32
2, 100697, Note_on_c, 0, 57, 0
2, 100709, Note_on_c, 0, 69, 0
2, 100712, Control_c, 0, 64, 68
2, 100728, Control_c, 0, 64, 77
2, 100742, Control_c, 0, 64, 92
2, 100757, Control_c, 0, 64, 121
2, 100773, Control_c, 0, 64, 127
2, 100950, Note_on_c, 0, 57, 74
2, 100956, Control_c, 0, 64, 97
2, 100956, Note_on_c, 0, 69, 73
2, 100972, Control_c, 0, 64, 80
2, 100975, Note_on_c, 0, 45, 0
2, 100978, Note_on_c, 0, 48, 0
2, 100982, Note_on_c, 0, 57, 0
2, 100987, Control_c, 0, 64, 68
2, 101003, Control_c, 0, 64, 58
2, 101018, Control_c, 0, 64, 38
2, 101032, Control_c, 0, 64, 13
2, 101054, Note_on_c, 0, 69, 0
2, 101063, Control_c, 0, 64, 9
2, 101067, Note_on_c, 0, 68, 72
2, 101077, Control_c, 0, 64, 0
2, 101149, Note_on_c, 0, 68, 0
2, 101207, Note_on_c, 0, 69, 83
2, 101209, Note_on_c, 0, 48, 75
2, 101240, Note_on_c, 0, 48, 0
2, 101249, Note_on_c, 0, 69, 0
2, 101467, Note_on_c, 0, 71, 80
2, 101473, Note_on_c, 0, 52, 76
2, 101500, Note_on_c, 0, 52, 0
2, 101510, Note_on_c, 0, 71, 0
2, 101723, Control_c, 0, 64, 28
2, 101726, Note_on_c, 0, 72, 72
2, 101738, Note_on_c, 0, 45, 70
2, 101739, Control_c, 0, 64, 51
2, 101754, Control_c, 0, 64, 61
2, 101770, Control_c, 0, 64, 66
2, 101785, Control_c, 0, 64, 72
2, 101794, Note_on_c, 0, 45, 0
2, 101799, Control_c, 0, 64, 81
2, 101815, Control_c, 0, 64, 91
2, 101819, Note_on_c, 0, 72, 0
2, 101830, Control_c, 0, 64, 104
2, 101845, Control_c, 0, 64, 127
2, 101959, Control_c, 0, 64, 118
2, 101975, Control_c, 0, 64, 105
2, 101990, Control_c, 0, 64, 93
2, 102000, Note_on_c, 0, 72, 80
2, 102005, Control_c, 0, 64, 79
2, 102006, Note_on_c, 0, 57, 79
2, 102012, Note_on_c, 0, 53, 66
2, 102020, Control_c, 0, 64, 68
2, 102035, Control_c, 0, 64, 59
2, 102050, Control_c, 0, 64, 39
2, 102065, Control_c, 0, 64, 0
2, 102097, Note_on_c, 0, 57, 0
2, 102102, Note_on_c, 0, 56, 84
2, 102116, Note_on_c, 0, 71, 89
2, 102131, Note_on_c, 0, 53, 0
2, 102134, Note_on_c, 0, 72, 0
2, 102175, Note_on_c, 0, 71, 0
2, 102176, Note_on_c, 0, 56, 0
2, 102244, Note_on_c, 0, 57, 86
2, 102250, Note_on_c, 0, 72, 82
2, 102256, Note_on_c, 0, 52, 70
2, 102298, Note_on_c, 0, 57, 0
2, 102300, Note_on_c, 0, 52, 0
2, 102308, Note_on_c, 0, 72, 0
2, 102511, Note_on_c, 0, 74, 85
2, 102520, Note_on_c, 0, 59, 90
2, 102530, Note_on_c, 0, 50, 68
2, 102565, Note_on_c, 0, 74, 0
2, 102574, Note_on_c, 0, 59, 0
2, 102576, Note_on_c, 0, 50, 0
2, 102779, Note_on_c, 0, 76, 82
2, 102783, Note_on_c, 0, 60, 75
2, 102788, Note_on_c, 0, 48, 64
2, 102804, Control_c, 0, 64, 35
2, 102819, Control_c, 0, 64, 53
2, 102825, Note_on_c, 0, 48, 0
2, 102834, Control_c, 0, 64, 62
2, 102849, Control_c, 0, 64, 66
2, 102864, Control_c, 0, 64, 71
2, 102879, Control_c, 0, 64, 76
2, 102883, Note_on_c, 0, 60, 0
2, 102895, Control_c, 0, 64, 81
2, 102901, Note_on_c, 0, 74, 75
2, 102910, Control_c, 0, 64, 85
2, 102911, Note_on_c, 0, 76, 0
2, 102926, Control_c, 0, 64, 87
2, 102941, Control_c, 0, 64, 86
2, 102956, Control_c, 0, 64, 85
2, 102971, Control_c, 0, 64, 83
2, 102986, Control_c, 0, 64, 81
2, 103002, Control_c, 0, 64, 78
2, 103017, Control_c, 0, 64, 74
2, 103032, Control_c, 0, 64, 69
2, 103035, Note_on_c, 0, 72, 80
2, 103040, Note_on_c, 0, 60, 71
2, 103044, Note_on_c, 0, 74, 0
2, 103045, Note_on_c, 0, 57, 66
2, 103047, Control_c, 0, 64, 63
2, 103062, Control_c, 0, 64, 58
2, 103077, Control_c, 0, 64, 52
2, 103093, Control_c, 0, 64, 49
2, 103107, Control_c, 0, 64, 48
2, 103123, Control_c, 0, 64, 47
2, 103131, Note_on_c, 0, 60, 0
2, 103136, Note_on_c, 0, 72, 0
2, 103138, Control_c, 0, 64, 43
2, 103142, Note_on_c, 0, 74, 82
2, 103148, Note_on_c, 0, 59, 75
2, 103151, Note_on_c, 0, 60, 28
2, 103153, Control_c, 0, 64, 37
2, 103169, Control_c, 0, 64, 28
2, 103173, Note_on_c, 0, 57, 0
2, 103182, Note_on_c, 0, 60, 0
2, 103183, Control_c, 0, 64, 19
2, 103198, Control_c, 0, 64, 12
2, 103204, Note_on_c, 0, 59, 0
2, 103208, Note_on_c, 0, 74, 0
2, 103214, Control_c, 0, 64, 0
2, 103269, Note_on_c, 0, 60, 76
2, 103273, Note_on_c, 0, 55, 83
2, 103277, Note_on_c, 0, 76, 88
2, 103323, Note_on_c, 0, 60, 0
2, 103327, Note_on_c, 0, 55, 0
2, 103334, Note_on_c, 0, 76, 0
2, 103540, Note_on_c, 0, 77, 81
2, 103551, Note_on_c, 0, 62, 78
2, 103555, Note_on_c, 0, 53, 69
2, 103577, Note_on_c, 0, 77, 0
2, 103584, Note_on_c, 0, 62, 0
2, 103592, Note_on_c, 0, 53, 0
2, 103803, Note_on_c, 0, 68, 79
2, 103811, Note_on_c, 0, 52, 69
2, 103812, Note_on_c, 0, 64, 67
2, 103893, Note_on_c, 0, 64, 0
2, 103934, Note_on_c, 0, 62, 70
2, 103987, Note_on_c, 0, 62, 0
2, 104026, Note_on_c, 0, 68, 0
2, 104055, Note_on_c, 0, 64, 70
2, 104062, Note_on_c, 0, 60, 74
2, 104065, Note_on_c, 0, 57, 66
2, 104077, Note_on_c, 0, 52, 0
2, 104092, Note_on_c, 0, 60, 0
2, 104135, Note_on_c, 0, 64, 0
2, 104170, Note_on_c, 0, 62, 76
2, 104172, Note_on_c, 0, 55, 68
2, 104175, Note_on_c, 0, 57, 0
2, 104233, Note_on_c, 0, 62, 0
2, 104285, Note_on_c, 0, 55, 0
2, 104306, Note_on_c, 0, 64, 84
2, 104308, Note_on_c, 0, 53, 76
2, 104340, Note_on_c, 0, 64, 0
2, 104421, Note_on_c, 0, 52, 73
2, 104426, Note_on_c, 0, 53, 0
2, 104540, Note_on_c, 0, 50, 72
2, 104548, Note_on_c, 0, 52, 0
2, 104555, Note_on_c, 0, 65, 68
2, 104561, Note_on_c, 0, 69, 78
2, 104580, Note_on_c, 0, 65, 0
2, 104598, Note_on_c, 0, 69, 0
2, 104655, Note_on_c, 0, 50, 0
2, 104666, Note_on_c, 0, 48, 73
2, 104756, Note_on_c, 0, 48, 0
2, 104797, Note_on_c, 0, 56, 82
2, 104802, Note_on_c, 0, 47, 70
2, 104806, Note_on_c, 0, 71, 77
2, 104836, Note_on_c, 0, 47, 0
2, 104867, Note_on_c, 0, 56, 0
2, 104924, Note_on_c, 0, 72, 79
2, 104948, Note_on_c, 0, 71, 0
2, 105055, Note_on_c, 0, 60, 68
2, 105057, Note_on_c, 0, 69, 79
2, 105064, Note_on_c, 0, 52, 61
2, 105086, Note_on_c, 0, 72, 0
2, 105136, Note_on_c, 0, 60, 0
2, 105169, Note_on_c, 0, 71, 79
2, 105170, Note_on_c, 0, 59, 71
2, 105172, Note_on_c, 0, 69, 0
2, 105272, Note_on_c, 0, 59, 0
2, 105282, Note_on_c, 0, 52, 0
2, 105297, Note_on_c, 0, 57, 66
2, 105299, Note_on_c, 0, 72, 82
2, 105334, Note_on_c, 0, 71, 0
2, 105415, Note_on_c, 0, 74, 83
2, 105419, Note_on_c, 0, 55, 78
2, 105422, Note_on_c, 0, 57, 0
2, 105427, Note_on_c, 0, 72, 0
2, 105533, Note_on_c, 0, 55, 0
2, 105538, Note_on_c, 0, 71, 84
2, 105542, Note_on_c, 0, 53, 69
2, 105544, Note_on_c, 0, 57, 74
2, 105578, Note_on_c, 0, 74, 0
2, 105612, Note_on_c, 0, 53, 0
2, 105645, Note_on_c, 0, 52, 64
2, 105659, Note_on_c, 0, 72, 84
2, 105666, Note_on_c, 0, 57, 0
2, 105680, Note_on_c, 0, 71, 0
2, 105701, Note_on_c, 0, 52, 0
2, 105743, Note_on_c, 0, 72, 0
2, 105789, Note_on_c, 0, 59, 82
2, 105796, Note_on_c, 0, 74, 88
2, 105813, Note_on_c, 0, 50, 55
2, 105842, Note_on_c, 0, 74, 0
2, 105900, Note_on_c, 0, 59, 0
2, 105908, Note_on_c, 0, 60, 75
2, 106040, Note_on_c, 0, 72, 85
2, 106043, Note_on_c, 0, 57, 71
2, 106046, Note_on_c, 0, 60, 0
2, 106085, Note_on_c, 0, 72, 0
2, 106163, Note_on_c, 0, 59, 78
2, 106172, Note_on_c, 0, 50, 0
2, 106188, Note_on_c, 0, 57, 0
2, 106279, Note_on_c, 0, 59, 0
2, 106286, Note_on_c, 0, 71, 86
2, 106291, Note_on_c, 0, 60, 79
2, 106309, Note_on_c, 0, 52, 61
2, 106337, Note_on_c, 0, 71, 0
2, 106398, Note_on_c, 0, 62, 81
2, 106416, Note_on_c, 0, 60, 0
2, 106496, Note_on_c, 0, 62, 0
2, 106529, Note_on_c, 0, 76, 94
2, 106537, Note_on_c, 0, 59, 82
2, 106605, Note_on_c, 0, 76, 0
2, 106621, Note_on_c, 0, 52, 0
2, 106649, Note_on_c, 0, 60, 87
2, 106694, Note_on_c, 0, 59, 0
2, 106775, Note_on_c, 0, 60, 0
2, 106779, Note_on_c, 0, 62, 86
2, 106781, Note_on_c, 0, 53, 75
2, 106783, Note_on_c, 0, 69, 90
2, 106839, Note_on_c, 0, 69, 0
2, 106847, Note_on_c, 0, 62, 0
2, 106853, Note_on_c, 0, 53, 0
2, 107040, Note_on_c, 0, 81, 86
2, 107047, Note_on_c, 0, 60, 71
2, 107055, Note_on_c, 0, 52, 63
2, 107110, Note_on_c, 0, 60, 0
2, 107129, Note_on_c, 0, 52, 0
2, 107331, Note_on_c, 0, 50, 56
2, 107332, Note_on_c, 0, 59, 58
2, 107373, Note_on_c, 0, 59, 0
2, 107386, Note_on_c, 0, 50, 0
2, 107575, Note_on_c, 0, 81, 0
2, 107587, Note_on_c, 0, 79, 70
2, 107604, Note_on_c, 0, 64, 57
2, 107608, Note_on_c, 0, 52, 54
2, 107640, Note_on_c, 0, 64, 0
2, 107657, Note_on_c, 0, 52, 0
2, 107899, Note_on_c, 0, 57, 53
2, 107908, Note_on_c, 0, 48, 43
2, 107981, Note_on_c, 0, 48, 0
2, 108183, Note_on_c, 0, 84, 63
2, 108198, Note_on_c, 0, 47, 48
2, 108232, Note_on_c, 0, 79, 0
2, 108245, Note_on_c, 0, 47, 0
2, 108303, Note_on_c, 0, 83, 64
2, 108308, Note_on_c, 0, 84, 0
2, 108430, Note_on_c, 0, 83, 0
2, 108433, Note_on_c, 0, 81, 62
2, 108440, Note_on_c, 0, 48, 49
2, 108473, Note_on_c, 0, 48, 0
2, 108517, Note_on_c, 0, 81, 0
2, 108556, Note_on_c, 0, 79, 60
2, 108681, Note_on_c, 0, 45, 57
2, 108691, Note_on_c, 0, 78, 67
2, 108699, Note_on_c, 0, 79, 0
2, 108729, Note_on_c, 0, 45, 0
2, 108773, Note_on_c, 0, 78, 0
2, 108819, Note_on_c, 0, 76, 61
2, 108877, Note_on_c, 0, 76, 0
2, 108953, Note_on_c, 0, 75, 69
2, 108969, Note_on_c, 0, 47, 46
2, 108978, Control_c, 0, 64, 42
2, 108985, Note_on_c, 0, 75, 0
2, 108991, Note_on_c, 0, 57, 0
2, 108993, Control_c, 0, 64, 55
2, 109009, Control_c, 0, 64, 62
2, 109024, Control_c, 0, 64, 65
2, 109040, Control_c, 0, 64, 68
2, 109055, Control_c, 0, 64, 72
2, 109069, Control_c, 0, 64, 77
2, 109085, Control_c, 0, 64, 80
2, 109100, Control_c, 0, 64, 81
2, 109116, Control_c, 0, 64, 82
2, 109192, Control_c, 0, 64, 81
2, 109208, Control_c, 0, 64, 81
2, 109220, Note_on_c, 0, 55, 58
2, 109222, Control_c, 0, 64, 80
2, 109228, Note_on_c, 0, 71, 67
2, 109238, Control_c, 0, 64, 79
2, 109243, Note_on_c, 0, 64, 58
2, 109253, Control_c, 0, 64, 77
2, 109268, Control_c, 0, 64, 74
2, 109284, Control_c, 0, 64, 70
2, 109298, Control_c, 0, 64, 65
2, 109300, Note_on_c, 0, 55, 0
2, 109313, Control_c, 0, 64, 60
2, 109316, Note_on_c, 0, 64, 0
2, 109326, Note_on_c, 0, 54, 59
2, 109329, Control_c, 0, 64, 52
2, 109341, Note_on_c, 0, 71, 0
2, 109343, Note_on_c, 0, 63, 63
2, 109344, Control_c, 0, 64, 44
2, 109360, Control_c, 0, 64, 39
2, 109364, Note_on_c, 0, 54, 0
2, 109374, Control_c, 0, 64, 38
2, 109379, Note_on_c, 0, 63, 0
2, 109389, Control_c, 0, 64, 35
2, 109405, Control_c, 0, 64, 30
2, 109420, Control_c, 0, 64, 21
2, 109436, Control_c, 0, 64, 9
2, 109450, Control_c, 0, 64, 0
2, 109473, Note_on_c, 0, 55, 69
2, 109475, Note_on_c, 0, 64, 77
2, 109481, Note_on_c, 0, 47, 0
2, 109483, Note_on_c, 0, 73, 74
2, 109507, Note_on_c, 0, 55, 0
2, 109507, Note_on_c, 0, 73, 0
2, 109508, Note_on_c, 0, 64, 0
2, 109744, Note_on_c, 0, 66, 77
2, 109746, Note_on_c, 0, 75, 80
2, 109748, Note_on_c, 0, 57, 68
2, 109752, Note_on_c, 0, 45, 56
2, 109785, Note_on_c, 0, 45, 0
2, 109787, Note_on_c, 0, 57, 0
2, 109801, Note_on_c, 0, 66, 0
2, 109804, Note_on_c, 0, 75, 0
2, 110006, Control_c, 0, 64, 33
2, 110015, Note_on_c, 0, 67, 67
2, 110020, Note_on_c, 0, 43, 62
2, 110021, Control_c, 0, 64, 56
2, 110022, Note_on_c, 0, 76, 59
2, 110036, Control_c, 0, 64, 65
2, 110051, Control_c, 0, 64, 71
2, 110057, Note_on_c, 0, 43, 0
2, 110066, Control_c, 0, 64, 82
2, 110082, Control_c, 0, 64, 97
2, 110097, Control_c, 0, 64, 123
2, 110112, Control_c, 0, 64, 127
2, 110136, Note_on_c, 0, 76, 0
2, 110140, Note_on_c, 0, 74, 65
2, 110174, Note_on_c, 0, 67, 0
2, 110175, Note_on_c, 0, 74, 0
2, 110249, Control_c, 0, 64, 106
2, 110264, Control_c, 0, 64, 88
2, 110277, Note_on_c, 0, 64, 69
2, 110278, Note_on_c, 0, 67, 78
2, 110278, Note_on_c, 0, 72, 75
2, 110280, Control_c, 0, 64, 73
2, 110294, Control_c, 0, 64, 63
2, 110309, Control_c, 0, 64, 45
2, 110325, Control_c, 0, 64, 31
2, 110347, Control_c, 0, 64, 29
2, 110372, Note_on_c, 0, 67, 0
2, 110379, Note_on_c, 0, 51, 83
2, 110380, Note_on_c, 0, 72, 0
2, 110384, Note_on_c, 0, 71, 74
2, 110387, Note_on_c, 0, 66, 69
2, 110393, Control_c, 0, 64, 29
2, 110409, Control_c, 0, 64, 24
2, 110423, Control_c, 0, 64, 18
2, 110437, Note_on_c, 0, 51, 0
2, 110439, Control_c, 0, 64, 13
2, 110448, Note_on_c, 0, 66, 0
2, 110454, Control_c, 0, 64, 9
2, 110459, Note_on_c, 0, 71, 0
2, 110469, Control_c, 0, 64, 0
2, 110485, Note_on_c, 0, 64, 0
2, 110520, Note_on_c, 0, 52, 77
2, 110522, Note_on_c, 0, 67, 75
2, 110522, Note_on_c, 0, 72, 84
2, 110567, Note_on_c, 0, 67, 0
2, 110572, Note_on_c, 0, 52, 0
2, 110789, Note_on_c, 0, 54, 71
2, 110789, Note_on_c, 0, 63, 75
2, 110796, Note_on_c, 0, 69, 74
2, 110829, Note_on_c, 0, 63, 0
2, 110830, Note_on_c, 0, 54, 0
2, 110841, Note_on_c, 0, 69, 0
2, 111057, Note_on_c, 0, 71, 69
2, 111065, Note_on_c, 0, 72, 0
2, 111070, Note_on_c, 0, 64, 66
2, 111075, Note_on_c, 0, 55, 59
2, 111094, Control_c, 0, 64, 12
2, 111109, Control_c, 0, 64, 36
2, 111131, Control_c, 0, 64, 51
2, 111146, Control_c, 0, 64, 59
2, 111161, Note_on_c, 0, 71, 0
2, 111162, Control_c, 0, 64, 63
2, 111177, Control_c, 0, 64, 65
2, 111192, Control_c, 0, 64, 67
2, 111193, Note_on_c, 0, 69, 64
2, 111197, Note_on_c, 0, 55, 0
2, 111207, Control_c, 0, 64, 70
2, 111222, Control_c, 0, 64, 73
2, 111234, Note_on_c, 0, 69, 0
2, 111238, Control_c, 0, 64, 76
2, 111253, Control_c, 0, 64, 78
2, 111268, Control_c, 0, 64, 79
2, 111284, Control_c, 0, 64, 79
2, 111299, Control_c, 0, 64, 78
2, 111313, Control_c, 0, 64, 77
2, 111320, Note_on_c, 0, 76, 77
2, 111323, Note_on_c, 0, 67, 69
2, 111327, Note_on_c, 0, 55, 59
2, 111329, Control_c, 0, 64, 76
2, 111344, Control_c, 0, 64, 74
2, 111350, Note_on_c, 0, 55, 0
2, 111360, Control_c, 0, 64, 71
2, 111364, Note_on_c, 0, 67, 0
2, 111375, Control_c, 0, 64, 67
2, 111385, Note_on_c, 0, 76, 0
2, 111390, Control_c, 0, 64, 63
2, 111405, Control_c, 0, 64, 55
2, 111420, Control_c, 0, 64, 47
2, 111430, Note_on_c, 0, 69, 71
2, 111432, Note_on_c, 0, 54, 81
2, 111433, Note_on_c, 0, 75, 74
2, 111436, Control_c, 0, 64, 43
2, 111466, Control_c, 0, 64, 41
2, 111481, Control_c, 0, 64, 37
2, 111483, Note_on_c, 0, 69, 0
2, 111488, Note_on_c, 0, 54, 0
2, 111496, Control_c, 0, 64, 30
2, 111500, Note_on_c, 0, 64, 0
2, 111511, Control_c, 0, 64, 19
2, 111512, Note_on_c, 0, 75, 0
2, 111526, Control_c, 0, 64, 9
2, 111541, Control_c, 0, 64, 0
2, 111562, Note_on_c, 0, 55, 80
2, 111571, Note_on_c, 0, 71, 80
2, 111580, Note_on_c, 0, 77, 69
2, 111584, Note_on_c, 0, 76, 64
2, 111608, Note_on_c, 0, 71, 0
2, 111613, Note_on_c, 0, 77, 0
2, 111620, Note_on_c, 0, 76, 0
2, 111623, Note_on_c, 0, 55, 0
2, 111832, Note_on_c, 0, 57, 70
2, 111832, Note_on_c, 0, 78, 81
2, 111838, Note_on_c, 0, 72, 57
2, 111867, Note_on_c, 0, 72, 0
2, 111869, Note_on_c, 0, 57, 0
2, 111893, Note_on_c, 0, 78, 0
2, 112093, Note_on_c, 0, 79, 76
2, 112105, Note_on_c, 0, 59, 63
2, 112112, Note_on_c, 0, 63, 38
2, 112143, Note_on_c, 0, 63, 0
2, 112175, Note_on_c, 0, 79, 0
2, 112225, Note_on_c, 0, 57, 65
2, 112240, Note_on_c, 0, 59, 0
2, 112350, Note_on_c, 0, 55, 62
2, 112350, Note_on_c, 0, 59, 69
2, 112357, Note_on_c, 0, 79, 75
2, 112358, Note_on_c, 0, 57, 0
2, 112424, Note_on_c, 0, 55, 0
2, 112445, Note_on_c, 0, 79, 0
2, 112454, Note_on_c, 0, 59, 0
2, 112462, Note_on_c, 0, 57, 76
2, 112462, Note_on_c, 0, 78, 81
2, 112517, Note_on_c, 0, 78, 0
2, 112522, Note_on_c, 0, 57, 0
2, 112588, Note_on_c, 0, 59, 80
2, 112591, Note_on_c, 0, 79, 81
2, 112634, Note_on_c, 0, 59, 0
2, 112640, Note_on_c, 0, 79, 0
2, 112857, Note_on_c, 0, 81, 74
2, 112871, Note_on_c, 0, 60, 65
2, 112876, Note_on_c, 0, 64, 64
2, 112901, Note_on_c, 0, 81, 0
2, 112903, Note_on_c, 0, 60, 0
2, 112906, Note_on_c, 0, 64, 0
2, 113119, Note_on_c, 0, 71, 68
2, 113127, Note_on_c, 0, 51, 63
2, 113134, Note_on_c, 0, 66, 53
2, 113178, Note_on_c, 0, 51, 0
2, 113215, Note_on_c, 0, 66, 0
2, 113245, Note_on_c, 0, 67, 61
2, 113374, Note_on_c, 0, 67, 0
2, 113377, Note_on_c, 0, 64, 57
2, 113378, Note_on_c, 0, 47, 59
2, 113454, Note_on_c, 0, 47, 0
2, 113476, Note_on_c, 0, 64, 0
2, 113502, Note_on_c, 0, 66, 57
2, 113627, Note_on_c, 0, 67, 65
2, 113644, Note_on_c, 0, 66, 0
2, 113736, Note_on_c, 0, 69, 67
2, 113758, Note_on_c, 0, 67, 0
2, 113878, Note_on_c, 0, 52, 65
2, 113879, Note_on_c, 0, 66, 63
2, 113879, Note_on_c, 0, 69, 0
2, 113920, Note_on_c, 0, 52, 0
2, 113959, Note_on_c, 0, 66, 0
2, 113992, Note_on_c, 0, 67, 69
2, 114033, Note_on_c, 0, 67, 0
2, 114119, Note_on_c, 0, 69, 71
2, 114125, Note_on_c, 0, 54, 61
2, 114170, Note_on_c, 0, 69, 0
2, 114237, Note_on_c, 0, 55, 68
2, 114246, Note_on_c, 0, 54, 0
2, 114374, Note_on_c, 0, 67, 75
2, 114377, Note_on_c, 0, 52, 67
2, 114383, Note_on_c, 0, 55, 0
2, 114426, Note_on_c, 0, 67, 0
2, 114486, Note_on_c, 0, 54, 75
2, 114524, Note_on_c, 0, 52, 0
2, 114614, Note_on_c, 0, 55, 70
2, 114625, Note_on_c, 0, 66, 80
2, 114633, Note_on_c, 0, 71, 0
2, 114643, Note_on_c, 0, 54, 0
2, 114658, Note_on_c, 0, 66, 0
2, 114738, Note_on_c, 0, 55, 0
2, 114738, Note_on_c, 0, 57, 73
2, 114863, Note_on_c, 0, 54, 73
2, 114869, Note_on_c, 0, 71, 74
2, 114871, Note_on_c, 0, 57, 0
2, 114872, Note_on_c, 0, 76, 67
2, 114973, Note_on_c, 0, 71, 0
2, 114980, Note_on_c, 0, 76, 0
2, 114994, Note_on_c, 0, 55, 67
2, 114994, Note_on_c, 0, 74, 69
2, 115019, Note_on_c, 0, 54, 0
2, 115031, Note_on_c, 0, 74, 0
2, 115118, Note_on_c, 0, 55, 0
2, 115120, Note_on_c, 0, 57, 68
2, 115127, Note_on_c, 0, 64, 62
2, 115129, Note_on_c, 0, 72, 65
2, 115186, Note_on_c, 0, 57, 0
2, 115228, Note_on_c, 0, 72, 0
2, 115243, Note_on_c, 0, 71, 65
2, 115378, Note_on_c, 0, 71, 0
2, 115380, Note_on_c, 0, 55, 50
2, 115392, Note_on_c, 0, 69, 62
2, 115439, Note_on_c, 0, 55, 0
2, 115492, Note_on_c, 0, 69, 0
2, 115507, Note_on_c, 0, 71, 57
2, 115557, Note_on_c, 0, 71, 0
2, 115653, Note_on_c, 0, 72, 59
2, 115664, Note_on_c, 0, 54, 42
2, 115723, Note_on_c, 0, 64, 0
2, 115738, Control_c, 0, 64, 28
2, 115753, Control_c, 0, 64, 50
2, 115758, Note_on_c, 0, 54, 0
2, 115769, Control_c, 0, 64, 58
2, 115784, Control_c, 0, 64, 62
2, 115799, Control_c, 0, 64, 65
2, 115814, Control_c, 0, 64, 67
2, 115829, Control_c, 0, 64, 69
2, 115845, Control_c, 0, 64, 72
2, 115860, Control_c, 0, 64, 73
2, 115876, Control_c, 0, 64, 74
2, 115891, Control_c, 0, 64, 73
2, 115905, Control_c, 0, 64, 73
2, 115907, Note_on_c, 0, 72, 0
2, 115921, Control_c, 0, 64, 72
2, 115925, Note_on_c, 0, 71, 59
2, 115928, Note_on_c, 0, 59, 51
2, 115936, Control_c, 0, 64, 70
2, 115951, Control_c, 0, 64, 67
2, 115954, Note_on_c, 0, 63, 39
2, 115967, Control_c, 0, 64, 64
2, 115971, Note_on_c, 0, 59, 0
2, 115981, Control_c, 0, 64, 58
2, 115997, Control_c, 0, 64, 51
2, 116004, Note_on_c, 0, 63, 0
2, 116012, Control_c, 0, 64, 44
2, 116027, Control_c, 0, 64, 41
2, 116032, Note_on_c, 0, 71, 0
2, 116043, Control_c, 0, 64, 38
2, 116046, Note_on_c, 0, 69, 58
2, 116057, Control_c, 0, 64, 34
2, 116072, Control_c, 0, 64, 23
2, 116088, Control_c, 0, 64, 0
2, 116105, Note_on_c, 0, 69, 0
2, 116185, Note_on_c, 0, 67, 56
2, 116193, Note_on_c, 0, 64, 47
2, 116205, Note_on_c, 0, 52, 47
2, 116255, Control_c, 0, 64, 39
2, 116269, Control_c, 0, 64, 55
2, 116285, Control_c, 0, 64, 62
2, 116300, Control_c, 0, 64, 65
2, 116309, Note_on_c, 0, 52, 0
2, 116316, Control_c, 0, 64, 68
2, 116331, Control_c, 0, 64, 70
2, 116346, Control_c, 0, 64, 72
2, 116362, Control_c, 0, 64, 73
2, 116377, Control_c, 0, 64, 75
2, 116391, Control_c, 0, 64, 76
2, 116407, Control_c, 0, 64, 76
2, 116467, Control_c, 0, 64, 76
2, 116502, Note_on_c, 0, 72, 62
2, 116503, Note_on_c, 0, 52, 57
2, 116506, Control_c, 0, 64, 75
2, 116522, Control_c, 0, 64, 74
2, 116537, Control_c, 0, 64, 74
2, 116551, Control_c, 0, 64, 73
2, 116567, Control_c, 0, 64, 72
2, 116574, Note_on_c, 0, 67, 0
2, 116582, Control_c, 0, 64, 70
2, 116598, Control_c, 0, 64, 67
2, 116600, Note_on_c, 0, 51, 68
2, 116601, Note_on_c, 0, 72, 0
2, 116604, Note_on_c, 0, 71, 76
2, 116613, Control_c, 0, 64, 63
2, 116621, Note_on_c, 0, 52, 0
2, 116627, Control_c, 0, 64, 59
2, 116643, Control_c, 0, 64, 54
2, 116649, Note_on_c, 0, 64, 0
2, 116658, Control_c, 0, 64, 51
2, 116673, Control_c, 0, 64, 50
2, 116689, Control_c, 0, 64, 48
2, 116704, Control_c, 0, 64, 42
2, 116706, Note_on_c, 0, 71, 0
2, 116713, Note_on_c, 0, 51, 0
2, 116720, Control_c, 0, 64, 35
2, 116734, Note_on_c, 0, 72, 74
2, 116735, Control_c, 0, 64, 28
2, 116741, Note_on_c, 0, 52, 62
2, 116749, Control_c, 0, 64, 22
2, 116756, Note_on_c, 0, 69, 61
2, 116765, Control_c, 0, 64, 15
2, 116780, Control_c, 0, 64, 0
2, 116794, Note_on_c, 0, 52, 0
2, 116801, Note_on_c, 0, 69, 0
2, 116851, Note_on_c, 0, 67, 63
2, 116948, Note_on_c, 0, 67, 0
2, 116983, Note_on_c, 0, 66, 61
2, 116987, Note_on_c, 0, 54, 66
2, 117027, Note_on_c, 0, 54, 0
2, 117097, Note_on_c, 0, 66, 0
2, 117104, Note_on_c, 0, 64, 61
2, 117143, Note_on_c, 0, 64, 0
2, 117248, Note_on_c, 0, 62, 58
2, 117259, Note_on_c, 0, 55, 57
2, 117321, Control_c, 0, 64, 37
2, 117335, Control_c, 0, 64, 54
2, 117350, Control_c, 0, 64, 62
2, 117366, Control_c, 0, 64, 66
2, 117381, Control_c, 0, 64, 70
2, 117385, Note_on_c, 0, 62, 0
2, 117396, Control_c, 0, 64, 74
2, 117411, Control_c, 0, 64, 78
2, 117426, Control_c, 0, 64, 81
2, 117442, Control_c, 0, 64, 82
2, 117457, Control_c, 0, 64, 82
2, 117470, Note_on_c, 0, 72, 0
2, 117471, Control_c, 0, 64, 82
2, 117487, Control_c, 0, 64, 81
2, 117498, Note_on_c, 0, 71, 73
2, 117502, Control_c, 0, 64, 80
2, 117508, Note_on_c, 0, 67, 63
2, 117518, Control_c, 0, 64, 79
2, 117533, Control_c, 0, 64, 77
2, 117547, Control_c, 0, 64, 75
2, 117563, Control_c, 0, 64, 72
2, 117578, Control_c, 0, 64, 68
2, 117593, Control_c, 0, 64, 63
2, 117609, Control_c, 0, 64, 56
2, 117615, Note_on_c, 0, 67, 0
2, 117618, Note_on_c, 0, 69, 78
2, 117624, Control_c, 0, 64, 48
2, 117625, Note_on_c, 0, 65, 70
2, 117640, Control_c, 0, 64, 44
2, 117642, Note_on_c, 0, 71, 0
2, 117669, Control_c, 0, 64, 43
2, 117685, Control_c, 0, 64, 41
2, 117700, Control_c, 0, 64, 38
2, 117716, Control_c, 0, 64, 35
2, 117724, Note_on_c, 0, 65, 0
2, 117731, Control_c, 0, 64, 32
2, 117745, Control_c, 0, 64, 30
2, 117747, Note_on_c, 0, 64, 70
2, 117747, Note_on_c, 0, 71, 85
2, 117750, Note_on_c, 0, 69, 0
2, 117761, Control_c, 0, 64, 28
2, 117776, Control_c, 0, 64, 27
2, 117791, Control_c, 0, 64, 26
2, 117799, Note_on_c, 0, 71, 0
2, 117806, Control_c, 0, 64, 25
2, 117821, Control_c, 0, 64, 24
2, 117837, Control_c, 0, 64, 24
2, 117852, Control_c, 0, 64, 23
2, 117870, Note_on_c, 0, 62, 73
2, 117876, Note_on_c, 0, 64, 0
2, 117927, Control_c, 0, 64, 23
2, 117942, Control_c, 0, 64, 22
2, 117991, Note_on_c, 0, 73, 85
2, 117999, Note_on_c, 0, 61, 74
2, 118019, Note_on_c, 0, 62, 0
2, 118057, Note_on_c, 0, 73, 0
2, 118087, Control_c, 0, 64, 21
2, 118104, Note_on_c, 0, 61, 0
2, 118117, Note_on_c, 0, 59, 78
2, 118194, Control_c, 0, 64, 19
2, 118210, Control_c, 0, 64, 13
2, 118225, Control_c, 0, 64, 0
2, 118255, Note_on_c, 0, 74, 87
2, 118257, Note_on_c, 0, 55, 0
2, 118263, Note_on_c, 0, 57, 70
2, 118271, Note_on_c, 0, 55, 45
2, 118296, Note_on_c, 0, 59, 0
2, 118362, Control_c, 0, 64, 43
2, 118377, Control_c, 0, 64, 57
2, 118391, Control_c, 0, 64, 64
2, 118404, Note_on_c, 0, 74, 0
2, 118407, Control_c, 0, 64, 68
2, 118422, Control_c, 0, 64, 76
2, 118438, Control_c, 0, 64, 83
2, 118453, Control_c, 0, 64, 90
2, 118468, Control_c, 0, 64, 95
2, 118484, Control_c, 0, 64, 96
2, 118499, Control_c, 0, 64, 94
2, 118513, Control_c, 0, 64, 91
2, 118519, Note_on_c, 0, 74, 81
2, 118521, Note_on_c, 0, 54, 74
2, 118529, Control_c, 0, 64, 88
2, 118544, Control_c, 0, 64, 83
2, 118552, Note_on_c, 0, 55, 0
2, 118559, Control_c, 0, 64, 77
2, 118574, Control_c, 0, 64, 70
2, 118589, Control_c, 0, 64, 64
2, 118605, Control_c, 0, 64, 55
2, 118620, Control_c, 0, 64, 48
2, 118627, Note_on_c, 0, 52, 77
2, 118633, Note_on_c, 0, 72, 82
2, 118636, Control_c, 0, 64, 46
2, 118648, Note_on_c, 0, 54, 0
2, 118650, Control_c, 0, 64, 45
2, 118665, Control_c, 0, 64, 44
2, 118681, Control_c, 0, 64, 40
2, 118696, Control_c, 0, 64, 32
2, 118711, Control_c, 0, 64, 18
2, 118726, Control_c, 0, 64, 0
2, 118747, Note_on_c, 0, 54, 88
2, 118752, Note_on_c, 0, 71, 86
2, 118759, Note_on_c, 0, 57, 0
2, 118772, Note_on_c, 0, 52, 0
2, 118782, Note_on_c, 0, 72, 0
2, 118811, Note_on_c, 0, 54, 0
2, 118868, Note_on_c, 0, 71, 0
2, 118878, Note_on_c, 0, 69, 80
2, 119012, Note_on_c, 0, 56, 90
2, 119015, Note_on_c, 0, 68, 82
2, 119024, Note_on_c, 0, 69, 0
2, 119069, Note_on_c, 0, 56, 0
2, 119132, Note_on_c, 0, 68, 0
2, 119134, Note_on_c, 0, 66, 81
2, 119185, Note_on_c, 0, 66, 0
2, 119277, Note_on_c, 0, 64, 83
2, 119287, Note_on_c, 0, 57, 81
2, 119311, Control_c, 0, 64, 43
2, 119327, Control_c, 0, 64, 57
2, 119342, Control_c, 0, 64, 64
2, 119344, Note_on_c, 0, 74, 0
2, 119358, Control_c, 0, 64, 71
2, 119373, Control_c, 0, 64, 88
2, 119388, Control_c, 0, 64, 127
2, 119443, Note_on_c, 0, 57, 0
2, 119544, Note_on_c, 0, 72, 86
2, 119551, Note_on_c, 0, 57, 86
2, 119578, Control_c, 0, 64, 113
2, 119593, Control_c, 0, 64, 94
2, 119606, Note_on_c, 0, 64, 0
2, 119609, Control_c, 0, 64, 81
2, 119623, Control_c, 0, 64, 70
2, 119639, Control_c, 0, 64, 62
2, 119654, Control_c, 0, 64, 50
2, 119660, Note_on_c, 0, 71, 89
2, 119661, Note_on_c, 0, 56, 85
2, 119669, Control_c, 0, 64, 39
2, 119679, Note_on_c, 0, 57, 0
2, 119685, Control_c, 0, 64, 36
2, 119691, Note_on_c, 0, 72, 0
2, 119699, Control_c, 0, 64, 35
2, 119714, Control_c, 0, 64, 32
2, 119730, Control_c, 0, 64, 20
2, 119741, Note_on_c, 0, 71, 0
2, 119745, Control_c, 0, 64, 0
2, 119754, Note_on_c, 0, 56, 0
2, 119792, Note_on_c, 0, 69, 89
2, 119793, Note_on_c, 0, 72, 91
2, 119801, Note_on_c, 0, 57, 82
2, 119863, Note_on_c, 0, 57, 0
2, 119868, Note_on_c, 0, 72, 0
2, 120054, Note_on_c, 0, 74, 91
2, 120060, Note_on_c, 0, 59, 82
2, 120104, Note_on_c, 0, 59, 0
2, 120123, Note_on_c, 0, 74, 0
2, 120323, Note_on_c, 0, 76, 92
2, 120333, Note_on_c, 0, 60, 79
2, 120385, Note_on_c, 0, 69, 0
2, 120391, Control_c, 0, 64, 22
2, 120407, Control_c, 0, 64, 50
2, 120422, Control_c, 0, 64, 61
2, 120437, Control_c, 0, 64, 67
2, 120452, Control_c, 0, 64, 71
2, 120458, Note_on_c, 0, 60, 0
2, 120467, Control_c, 0, 64, 77
2, 120483, Control_c, 0, 64, 83
2, 120498, Control_c, 0, 64, 89
2, 120513, Control_c, 0, 64, 93
2, 120529, Control_c, 0, 64, 94
2, 120543, Control_c, 0, 64, 93
2, 120556, Note_on_c, 0, 76, 0
2, 120559, Control_c, 0, 64, 93
2, 120572, Control_c, 0, 64, 92
2, 120582, Note_on_c, 0, 60, 77
2, 120584, Note_on_c, 0, 69, 85
2, 120587, Control_c, 0, 64, 91
2, 120587, Note_on_c, 0, 57, 72
2, 120603, Control_c, 0, 64, 89
2, 120618, Control_c, 0, 64, 87
2, 120633, Control_c, 0, 64, 85
2, 120649, Control_c, 0, 64, 82
2, 120664, Control_c, 0, 64, 78
2, 120679, Control_c, 0, 64, 72
2, 120681, Note_on_c, 0, 68, 88
2, 120689, Note_on_c, 0, 59, 86
2, 120694, Control_c, 0, 64, 66
2, 120699, Note_on_c, 0, 69, 0
2, 120709, Control_c, 0, 64, 59
2, 120713, Note_on_c, 0, 57, 0
2, 120715, Note_on_c, 0, 60, 0
2, 120723, Note_on_c, 0, 68, 0
2, 120725, Control_c, 0, 64, 49
2, 120740, Control_c, 0, 64, 43
2, 120755, Control_c, 0, 64, 42
2, 120758, Note_on_c, 0, 59, 0
2, 120770, Control_c, 0, 64, 40
2, 120785, Control_c, 0, 64, 35
2, 120800, Control_c, 0, 64, 24
2, 120816, Control_c, 0, 64, 0
2, 120820, Note_on_c, 0, 81, 87
2, 120821, Note_on_c, 0, 55, 66
2, 120826, Note_on_c, 0, 60, 81
2, 120826, Note_on_c, 0, 69, 86
2, 120885, Note_on_c, 0, 69, 0
2, 120886, Note_on_c, 0, 60, 0
2, 120896, Note_on_c, 0, 55, 0
2, 121097, Note_on_c, 0, 71, 84
2, 121107, Note_on_c, 0, 53, 71
2, 121108, Note_on_c, 0, 62, 72
2, 121145, Note_on_c, 0, 62, 0
2, 121155, Note_on_c, 0, 71, 0
2, 121163, Note_on_c, 0, 53, 0
2, 121340, Control_c, 0, 64, 27
2, 121355, Control_c, 0, 64, 49
2, 121355, Note_on_c, 0, 64, 60
2, 121355, Note_on_c, 0, 72, 75
2, 121359, Note_on_c, 0, 52, 57
2, 121371, Control_c, 0, 64, 59
2, 121385, Control_c, 0, 64, 65
2, 121400, Control_c, 0, 64, 69
2, 121407, Note_on_c, 0, 72, 0
2, 121416, Control_c, 0, 64, 75
2, 121430, Note_on_c, 0, 64, 0
2, 121431, Control_c, 0, 64, 79
2, 121447, Control_c, 0, 64, 82
2, 121462, Control_c, 0, 64, 83
2, 121465, Note_on_c, 0, 62, 71
2, 121472, Note_on_c, 0, 80, 81
2, 121477, Control_c, 0, 64, 82
2, 121492, Note_on_c, 0, 81, 0
2, 121493, Control_c, 0, 64, 82
2, 121502, Note_on_c, 0, 72, 60
2, 121508, Control_c, 0, 64, 81
2, 121524, Control_c, 0, 64, 81
2, 121527, Note_on_c, 0, 72, 0
2, 121538, Control_c, 0, 64, 80
2, 121553, Control_c, 0, 64, 79
2, 121553, Note_on_c, 0, 80, 0
2, 121569, Control_c, 0, 64, 78
2, 121584, Control_c, 0, 64, 76
2, 121584, Note_on_c, 0, 60, 77
2, 121593, Note_on_c, 0, 72, 85
2, 121599, Control_c, 0, 64, 74
2, 121599, Note_on_c, 0, 81, 82
2, 121609, Note_on_c, 0, 62, 0
2, 121614, Control_c, 0, 64, 72
2, 121629, Control_c, 0, 64, 68
2, 121645, Control_c, 0, 64, 64
2, 121647, Note_on_c, 0, 72, 0
2, 121659, Control_c, 0, 64, 61
2, 121674, Control_c, 0, 64, 55
2, 121690, Control_c, 0, 64, 52
2, 121705, Control_c, 0, 64, 51
2, 121709, Note_on_c, 0, 62, 82
2, 121710, Note_on_c, 0, 80, 82
2, 121711, Note_on_c, 0, 71, 88
2, 121720, Control_c, 0, 64, 50
2, 121724, Note_on_c, 0, 60, 0
2, 121735, Control_c, 0, 64, 48
2, 121742, Note_on_c, 0, 81, 0
2, 121750, Control_c, 0, 64, 44
2, 121763, Note_on_c, 0, 71, 0
2, 121766, Control_c, 0, 64, 37
2, 121781, Control_c, 0, 64, 29
2, 121790, Note_on_c, 0, 80, 0
2, 121795, Note_on_c, 0, 62, 0
2, 121796, Control_c, 0, 64, 22
2, 121805, Note_on_c, 0, 52, 0
2, 121811, Control_c, 0, 64, 15
2, 121826, Control_c, 0, 64, 0
2, 121834, Note_on_c, 0, 64, 81
2, 121834, Note_on_c, 0, 81, 90
2, 121835, Note_on_c, 0, 72, 88
2, 121887, Note_on_c, 0, 72, 0
2, 121907, Note_on_c, 0, 64, 0
2, 121913, Note_on_c, 0, 81, 0
2, 122100, Note_on_c, 0, 65, 81
2, 122101, Note_on_c, 0, 83, 87
2, 122109, Note_on_c, 0, 74, 79
2, 122150, Note_on_c, 0, 65, 0
2, 122153, Note_on_c, 0, 74, 0
2, 122158, Note_on_c, 0, 83, 0
2, 122353, Note_on_c, 0, 56, 79
2, 122361, Note_on_c, 0, 76, 77
2, 122420, Note_on_c, 0, 56, 0
2, 122472, Note_on_c, 0, 74, 76
2, 122510, Note_on_c, 0, 76, 0
2, 122593, Note_on_c, 0, 72, 77
2, 122600, Note_on_c, 0, 45, 83
2, 122608, Note_on_c, 0, 52, 69
2, 122622, Note_on_c, 0, 74, 0
2, 122715, Note_on_c, 0, 74, 86
2, 122721, Note_on_c, 0, 47, 77
2, 122721, Note_on_c, 0, 72, 0
2, 122748, Note_on_c, 0, 45, 0
2, 122791, Note_on_c, 0, 74, 0
2, 122793, Note_on_c, 0, 47, 0
2, 122852, Note_on_c, 0, 48, 85
2, 122853, Note_on_c, 0, 76, 90
2, 122894, Note_on_c, 0, 52, 0
2, 122903, Note_on_c, 0, 48, 0
2, 122925, Note_on_c, 0, 76, 0
2, 123096, Note_on_c, 0, 74, 74
2, 123101, Note_on_c, 0, 57, 65
2, 123101, Note_on_c, 0, 77, 76
2, 123107, Note_on_c, 0, 50, 61
2, 123155, Note_on_c, 0, 74, 0
2, 123165, Control_c, 0, 64, 33
2, 123168, Note_on_c, 0, 77, 0
2, 123177, Note_on_c, 0, 57, 0
2, 123180, Control_c, 0, 64, 49
2, 123195, Control_c, 0, 64, 57
2, 123211, Control_c, 0, 64, 58
2, 123214, Note_on_c, 0, 72, 72
2, 123241, Control_c, 0, 64, 57
2, 123257, Control_c, 0, 64, 57
2, 123272, Control_c, 0, 64, 56
2, 123288, Control_c, 0, 64, 55
2, 123302, Control_c, 0, 64, 54
2, 123304, Note_on_c, 0, 72, 0
2, 123317, Control_c, 0, 64, 52
2, 123333, Control_c, 0, 64, 48
2, 123341, Note_on_c, 0, 68, 76
2, 123341, Note_on_c, 0, 71, 77
2, 123347, Control_c, 0, 64, 41
2, 123348, Note_on_c, 0, 59, 77
2, 123363, Control_c, 0, 64, 35
2, 123378, Control_c, 0, 64, 32
2, 123393, Control_c, 0, 64, 31
2, 123426, Note_on_c, 0, 59, 0
2, 123447, Control_c, 0, 64, 34
2, 123459, Note_on_c, 0, 71, 0
2, 123462, Control_c, 0, 64, 39
2, 123476, Control_c, 0, 64, 45
2, 123492, Control_c, 0, 64, 50
2, 123496, Note_on_c, 0, 59, 48
2, 123507, Control_c, 0, 64, 54
2, 123511, Note_on_c, 0, 50, 0
2, 123523, Control_c, 0, 64, 55
2, 123527, Note_on_c, 0, 59, 0
2, 123609, Note_on_c, 0, 48, 82
2, 123610, Note_on_c, 0, 76, 83
2, 123614, Control_c, 0, 64, 55
2, 123617, Note_on_c, 0, 64, 70
2, 123618, Note_on_c, 0, 57, 71
2, 123641, Note_on_c, 0, 68, 0
2, 123645, Note_on_c, 0, 57, 0
2, 123656, Note_on_c, 0, 48, 0
2, 123674, Control_c, 0, 64, 55
2, 123681, Note_on_c, 0, 64, 0
2, 123690, Control_c, 0, 64, 54
2, 123725, Note_on_c, 0, 74, 85
2, 123732, Note_on_c, 0, 50, 45
2, 123736, Note_on_c, 0, 48, 50
2, 123743, Note_on_c, 0, 57, 22
2, 123746, Note_on_c, 0, 76, 0
2, 123761, Note_on_c, 0, 50, 0
2, 123764, Note_on_c, 0, 48, 0
2, 123780, Control_c, 0, 64, 54
2, 123783, Note_on_c, 0, 57, 0
2, 123826, Control_c, 0, 64, 53
2, 123847, Note_on_c, 0, 72, 88
2, 123856, Note_on_c, 0, 52, 76
2, 123857, Control_c, 0, 64, 53
2, 123862, Note_on_c, 0, 60, 73
2, 123872, Control_c, 0, 64, 52
2, 123875, Note_on_c, 0, 74, 0
2, 123888, Control_c, 0, 64, 51
2, 123903, Control_c, 0, 64, 50
2, 123918, Control_c, 0, 64, 50
2, 123933, Control_c, 0, 64, 49
2, 123964, Control_c, 0, 64, 49
2, 123967, Note_on_c, 0, 71, 82
2, 123975, Note_on_c, 0, 72, 0
2, 123977, Note_on_c, 0, 62, 78
2, 123979, Control_c, 0, 64, 48
2, 123993, Control_c, 0, 64, 48
2, 123999, Note_on_c, 0, 60, 0
2, 124006, Note_on_c, 0, 52, 0
2, 124009, Control_c, 0, 64, 47
2, 124024, Control_c, 0, 64, 47
2, 124039, Control_c, 0, 64, 46
2, 124052, Note_on_c, 0, 62, 0
2, 124055, Control_c, 0, 64, 44
2, 124064, Note_on_c, 0, 71, 0
2, 124070, Control_c, 0, 64, 43
2, 124086, Control_c, 0, 64, 42
2, 124092, Note_on_c, 0, 69, 87
2, 124096, Note_on_c, 0, 59, 77
2, 124106, Note_on_c, 0, 53, 72
2, 124115, Control_c, 0, 64, 41
2, 124146, Control_c, 0, 64, 41
2, 124184, Control_c, 0, 64, 40
2, 124198, Control_c, 0, 64, 40
2, 124201, Note_on_c, 0, 60, 76
2, 124209, Note_on_c, 0, 68, 81
2, 124214, Control_c, 0, 64, 39
2, 124223, Note_on_c, 0, 69, 0
2, 124226, Note_on_c, 0, 59, 0
2, 124260, Control_c, 0, 64, 39
2, 124274, Control_c, 0, 64, 38
2, 124284, Note_on_c, 0, 68, 0
2, 124290, Control_c, 0, 64, 35
2, 124293, Note_on_c, 0, 60, 0
2, 124305, Control_c, 0, 64, 30
2, 124320, Control_c, 0, 64, 23
2, 124336, Control_c, 0, 64, 12
2, 124342, Note_on_c, 0, 71, 80
2, 124345, Note_on_c, 0, 62, 67
2, 124348, Note_on_c, 0, 69, 71
2, 124351, Control_c, 0, 64, 0
2, 124397, Control_c, 0, 64, 18
2, 124412, Control_c, 0, 64, 31
2, 124427, Control_c, 0, 64, 45
2, 124433, Note_on_c, 0, 69, 0
2, 124443, Control_c, 0, 64, 56
2, 124456, Note_on_c, 0, 62, 0
2, 124460, Control_c, 0, 64, 60
2, 124464, Note_on_c, 0, 72, 81
2, 124470, Note_on_c, 0, 53, 0
2, 124476, Control_c, 0, 64, 60
2, 124491, Note_on_c, 0, 71, 0
2, 124505, Control_c, 0, 64, 60
2, 124521, Control_c, 0, 64, 59
2, 124535, Control_c, 0, 64, 59
2, 124547, Note_on_c, 0, 72, 0
2, 124566, Control_c, 0, 64, 58
2, 124580, Note_on_c, 0, 52, 71
2, 124581, Control_c, 0, 64, 58
2, 124583, Note_on_c, 0, 60, 68
2, 124584, Note_on_c, 0, 69, 75
2, 124597, Control_c, 0, 64, 57
2, 124607, Note_on_c, 0, 52, 0
2, 124611, Control_c, 0, 64, 55
2, 124626, Control_c, 0, 64, 52
2, 124642, Control_c, 0, 64, 50
2, 124657, Control_c, 0, 64, 48
2, 124659, Note_on_c, 0, 69, 0
2, 124672, Control_c, 0, 64, 47
2, 124685, Note_on_c, 0, 71, 82
2, 124689, Control_c, 0, 64, 46
2, 124692, Note_on_c, 0, 50, 79
2, 124703, Control_c, 0, 64, 45
2, 124705, Note_on_c, 0, 60, 0
2, 124719, Control_c, 0, 64, 42
2, 124726, Note_on_c, 0, 50, 0
2, 124734, Control_c, 0, 64, 38
2, 124749, Control_c, 0, 64, 34
2, 124765, Control_c, 0, 64, 26
2, 124779, Control_c, 0, 64, 0
2, 124794, Note_on_c, 0, 71, 0
2, 124814, Note_on_c, 0, 72, 81
2, 124823, Note_on_c, 0, 68, 82
2, 124826, Note_on_c, 0, 59, 80
2, 124828, Note_on_c, 0, 52, 74
2, 124905, Note_on_c, 0, 68, 0
2, 124916, Control_c, 0, 64, 49
2, 124938, Note_on_c, 0, 74, 89
2, 124939, Control_c, 0, 64, 61
2, 124943, Note_on_c, 0, 72, 0
2, 124947, Note_on_c, 0, 52, 0
2, 124954, Control_c, 0, 64, 65
2, 124969, Control_c, 0, 64, 66
2, 124984, Control_c, 0, 64, 67
2, 125015, Control_c, 0, 64, 66
2, 125045, Control_c, 0, 64, 66
2, 125060, Control_c, 0, 64, 65
2, 125077, Note_on_c, 0, 74, 0
2, 125081, Note_on_c, 0, 71, 83
2, 125082, Note_on_c, 0, 48, 70
2, 125086, Note_on_c, 0, 64, 82
2, 125091, Control_c, 0, 64, 64
2, 125109, Control_c, 0, 64, 63
2, 125123, Control_c, 0, 64, 61
2, 125138, Control_c, 0, 64, 59
2, 125147, Note_on_c, 0, 59, 0
2, 125154, Control_c, 0, 64, 56
2, 125160, Note_on_c, 0, 64, 0
2, 125169, Control_c, 0, 64, 54
2, 125184, Control_c, 0, 64, 52
2, 125200, Control_c, 0, 64, 51
2, 125203, Note_on_c, 0, 72, 87
2, 125212, Note_on_c, 0, 71, 0
2, 125215, Control_c, 0, 64, 47
2, 125231, Control_c, 0, 64, 43
2, 125245, Control_c, 0, 64, 36
2, 125260, Control_c, 0, 64, 29
2, 125276, Control_c, 0, 64, 24
2, 125280, Note_on_c, 0, 72, 0
2, 125291, Control_c, 0, 64, 23
2, 125306, Control_c, 0, 64, 21
2, 125321, Control_c, 0, 64, 20
2, 125336, Control_c, 0, 64, 18
2, 125352, Control_c, 0, 64, 16
2, 125356, Note_on_c, 0, 74, 77
2, 125362, Note_on_c, 0, 69, 60
2, 125367, Control_c, 0, 64, 15
2, 125381, Control_c, 0, 64, 13
2, 125392, Note_on_c, 0, 57, 49
2, 125396, Note_on_c, 0, 53, 55
2, 125397, Control_c, 0, 64, 12
2, 125404, Note_on_c, 0, 48, 0
2, 125412, Control_c, 0, 64, 11
2, 125427, Control_c, 0, 64, 9
2, 125533, Note_on_c, 0, 74, 0
2, 125593, Note_on_c, 0, 52, 61
2, 125596, Note_on_c, 0, 53, 0
2, 125606, Note_on_c, 0, 72, 77
2, 125720, Note_on_c, 0, 50, 74
2, 125723, Note_on_c, 0, 72, 0
2, 125728, Note_on_c, 0, 52, 0
2, 125840, Note_on_c, 0, 52, 72
2, 125845, Note_on_c, 0, 71, 84
2, 125867, Note_on_c, 0, 50, 0
2, 125885, Note_on_c, 0, 69, 0
2, 125924, Note_on_c, 0, 71, 0
2, 125956, Note_on_c, 0, 53, 79
2, 125987, Note_on_c, 0, 52, 0
2, 126023, Note_on_c, 0, 57, 0
2, 126089, Note_on_c, 0, 53, 0
2, 126089, Note_on_c, 0, 55, 59
2, 126091, Note_on_c, 0, 76, 83
2, 126092, Note_on_c, 0, 52, 74
2, 126209, Note_on_c, 0, 50, 71
2, 126214, Note_on_c, 0, 52, 0
2, 126230, Note_on_c, 0, 76, 0
2, 126264, Note_on_c, 0, 50, 0
2, 126271, Control_c, 0, 64, 0
2, 126365, Note_on_c, 0, 69, 76
2, 126383, Note_on_c, 0, 49, 60
2, 126410, Note_on_c, 0, 55, 0
2, 126491, Note_on_c, 0, 49, 0
2, 126657, Note_on_c, 0, 53, 69
2, 126662, Note_on_c, 0, 45, 65
2, 126753, Note_on_c, 0, 52, 73
2, 126759, Note_on_c, 0, 53, 0
2, 126808, Note_on_c, 0, 45, 0
2, 126821, Note_on_c, 0, 52, 0
2, 126887, Note_on_c, 0, 53, 72
2, 126888, Note_on_c, 0, 50, 72
2, 126971, Note_on_c, 0, 50, 0
2, 127000, Note_on_c, 0, 77, 87
2, 127040, Note_on_c, 0, 69, 0
2, 127126, Note_on_c, 0, 48, 71
2, 127132, Note_on_c, 0, 74, 85
2, 127150, Note_on_c, 0, 77, 0
2, 127174, Note_on_c, 0, 48, 0
2, 127255, Note_on_c, 0, 71, 83
2, 127255, Note_on_c, 0, 74, 0
2, 127314, Note_on_c, 0, 71, 0
2, 127385, Note_on_c, 0, 47, 52
2, 127389, Note_on_c, 0, 67, 72
2, 127458, Control_c, 0, 64, 32
2, 127470, Note_on_c, 0, 53, 0
2, 127474, Control_c, 0, 64, 48
2, 127489, Control_c, 0, 64, 54
2, 127491, Note_on_c, 0, 47, 0
2, 127503, Control_c, 0, 64, 55
2, 127550, Control_c, 0, 64, 55
2, 127565, Control_c, 0, 64, 54
2, 127595, Control_c, 0, 64, 54
2, 127610, Control_c, 0, 64, 53
2, 127625, Control_c, 0, 64, 53
2, 127640, Control_c, 0, 64, 52
2, 127645, Note_on_c, 0, 52, 64
2, 127654, Note_on_c, 0, 43, 59
2, 127655, Control_c, 0, 64, 51
2, 127671, Control_c, 0, 64, 49
2, 127686, Control_c, 0, 64, 46
2, 127700, Control_c, 0, 64, 43
2, 127716, Control_c, 0, 64, 41
2, 127731, Control_c, 0, 64, 39
2, 127740, Note_on_c, 0, 52, 0
2, 127746, Control_c, 0, 64, 38
2, 127747, Note_on_c, 0, 50, 63
2, 127762, Control_c, 0, 64, 35
2, 127777, Control_c, 0, 64, 33
2, 127793, Control_c, 0, 64, 30
2, 127798, Note_on_c, 0, 43, 0
2, 127807, Control_c, 0, 64, 28
2, 127812, Note_on_c, 0, 50, 0
2, 127822, Control_c, 0, 64, 25
2, 127838, Control_c, 0, 64, 23
2, 127853, Control_c, 0, 64, 21
2, 127869, Control_c, 0, 64, 18
2, 127884, Control_c, 0, 64, 16
2, 127885, Note_on_c, 0, 52, 52
2, 127887, Note_on_c, 0, 48, 59
2, 127899, Control_c, 0, 64, 13
2, 127914, Control_c, 0, 64, 9
2, 127929, Control_c, 0, 64, 0
2, 127959, Note_on_c, 0, 48, 0
2, 128003, Note_on_c, 0, 76, 64
2, 128043, Note_on_c, 0, 67, 0
2, 128139, Note_on_c, 0, 72, 67
2, 128143, Note_on_c, 0, 76, 0
2, 128154, Note_on_c, 0, 47, 49
2, 128196, Note_on_c, 0, 47, 0
2, 128252, Note_on_c, 0, 72, 0
2, 128259, Note_on_c, 0, 69, 63
2, 128301, Note_on_c, 0, 69, 0
2, 128386, Note_on_c, 0, 65, 61
2, 128395, Note_on_c, 0, 45, 46
2, 128630, Note_on_c, 0, 45, 0
2, 128642, Note_on_c, 0, 47, 47
2, 128642, Note_on_c, 0, 67, 60
2, 128660, Note_on_c, 0, 65, 0
2, 128690, Note_on_c, 0, 52, 0
2, 128750, Note_on_c, 0, 48, 54
2, 128757, Note_on_c, 0, 69, 66
2, 128761, Note_on_c, 0, 47, 0
2, 128761, Note_on_c, 0, 67, 0
2, 128865, Note_on_c, 0, 48, 0
2, 128891, Note_on_c, 0, 67, 66
2, 128895, Note_on_c, 0, 69, 0
2, 128897, Note_on_c, 0, 47, 58
2, 128901, Note_on_c, 0, 50, 50
2, 128939, Note_on_c, 0, 47, 0
2, 128998, Note_on_c, 0, 67, 0
2, 129010, Note_on_c, 0, 65, 62
2, 129135, Note_on_c, 0, 65, 0
2, 129146, Note_on_c, 0, 64, 58
2, 129156, Note_on_c, 0, 43, 50
2, 129211, Note_on_c, 0, 43, 0
2, 129251, Note_on_c, 0, 64, 0
2, 129262, Note_on_c, 0, 65, 58
2, 129356, Control_c, 0, 64, 12
2, 129371, Control_c, 0, 64, 35
2, 129379, Note_on_c, 0, 65, 0
2, 129386, Control_c, 0, 64, 53
2, 129391, Note_on_c, 0, 64, 58
2, 129400, Note_on_c, 0, 48, 55
2, 129401, Control_c, 0, 64, 61
2, 129406, Note_on_c, 0, 50, 0
2, 129416, Control_c, 0, 64, 62
2, 129429, Note_on_c, 0, 48, 0
2, 129431, Control_c, 0, 64, 62
2, 129447, Control_c, 0, 64, 61
2, 129462, Control_c, 0, 64, 59
2, 129478, Control_c, 0, 64, 56
2, 129493, Control_c, 0, 64, 50
2, 129508, Control_c, 0, 64, 44
2, 129522, Note_on_c, 0, 48, 58
2, 129523, Control_c, 0, 64, 39
2, 129538, Control_c, 0, 64, 35
2, 129561, Control_c, 0, 64, 30
2, 129576, Control_c, 0, 64, 24
2, 129591, Control_c, 0, 64, 17
2, 129608, Control_c, 0, 64, 0
2, 129664, Note_on_c, 0, 50, 60
2, 129668, Note_on_c, 0, 48, 0
2, 129781, Note_on_c, 0, 52, 61
2, 129867, Note_on_c, 0, 50, 0
2, 129873, Note_on_c, 0, 52, 0
2, 129907, Note_on_c, 0, 53, 56
2, 130006, Note_on_c, 0, 53, 0
2, 130024, Note_on_c, 0, 55, 59
2, 130123, Note_on_c, 0, 55, 0
2, 130158, Note_on_c, 0, 47, 53
2, 130162, Note_on_c, 0, 57, 61
2, 130202, Note_on_c, 0, 47, 0
2, 130230, Note_on_c, 0, 57, 0
2, 130266, Note_on_c, 0, 59, 52
2, 130383, Note_on_c, 0, 59, 0
2, 130411, Note_on_c, 0, 60, 62
2, 130434, Note_on_c, 0, 45, 44
2, 130513, Note_on_c, 0, 64, 0
2, 130550, Note_on_c, 0, 62, 55
2, 130659, Note_on_c, 0, 64, 54
2, 130660, Note_on_c, 0, 62, 0
2, 130778, Note_on_c, 0, 64, 0
2, 130786, Note_on_c, 0, 65, 67
2, 130868, Note_on_c, 0, 65, 0
2, 130918, Note_on_c, 0, 67, 66
2, 131024, Note_on_c, 0, 67, 0
2, 131030, Note_on_c, 0, 69, 71
2, 131137, Note_on_c, 0, 69, 0
2, 131163, Note_on_c, 0, 71, 67
2, 131164, Note_on_c, 0, 43, 55
2, 131172, Note_on_c, 0, 45, 0
2, 131272, Note_on_c, 0, 71, 0
2, 131278, Note_on_c, 0, 72, 68
2, 131341, Note_on_c, 0, 72, 0
2, 131413, Note_on_c, 0, 62, 69
2, 131425, Note_on_c, 0, 41, 63
2, 131430, Note_on_c, 0, 43, 0
2, 131510, Note_on_c, 0, 41, 0
2, 131533, Note_on_c, 0, 64, 72
2, 131537, Note_on_c, 0, 62, 0
2, 131540, Note_on_c, 0, 55, 69
2, 131648, Note_on_c, 0, 55, 0
2, 131649, Note_on_c, 0, 64, 0
2, 131658, Note_on_c, 0, 62, 67
2, 131661, Note_on_c, 0, 53, 62
2, 131766, Note_on_c, 0, 64, 66
2, 131774, Note_on_c, 0, 52, 58
2, 131776, Note_on_c, 0, 62, 0
2, 131786, Note_on_c, 0, 53, 0
2, 131894, Note_on_c, 0, 52, 0
2, 131908, Note_on_c, 0, 64, 0
2, 131912, Note_on_c, 0, 65, 61
2, 131920, Note_on_c, 0, 50, 59
2, 132012, Note_on_c, 0, 60, 0
2, 132031, Note_on_c, 0, 50, 0
2, 132032, Note_on_c, 0, 64, 54
2, 132046, Note_on_c, 0, 48, 48
2, 132159, Note_on_c, 0, 64, 0
2, 132171, Note_on_c, 0, 62, 58
2, 132177, Note_on_c, 0, 47, 47
2, 132217, Note_on_c, 0, 48, 0
2, 132264, Note_on_c, 0, 62, 0
2, 132273, Note_on_c, 0, 47, 0
2, 132291, Note_on_c, 0, 45, 46
2, 132291, Note_on_c, 0, 60, 54
2, 132329, Note_on_c, 0, 60, 0
2, 132331, Note_on_c, 0, 45, 0
2, 132426, Control_c, 0, 64, 37
2, 132441, Control_c, 0, 64, 60
2, 132448, Note_on_c, 0, 59, 44
2, 132457, Control_c, 0, 64, 71
2, 132461, Note_on_c, 0, 43, 35
2, 132472, Control_c, 0, 64, 87
2, 132475, Note_on_c, 0, 59, 0
2, 132487, Control_c, 0, 64, 127
2, 132499, Note_on_c, 0, 43, 0
2, 132511, Note_on_c, 0, 65, 0
2, 132624, Note_on_c, 0, 69, 60
2, 132667, Note_on_c, 0, 69, 0
2, 132723, Control_c, 0, 64, 121
2, 132738, Control_c, 0, 64, 95
2, 132753, Control_c, 0, 64, 78
2, 132755, Note_on_c, 0, 72, 67
2, 132760, Note_on_c, 0, 67, 62
2, 132768, Control_c, 0, 64, 67
2, 132776, Note_on_c, 0, 64, 56
2, 132783, Control_c, 0, 64, 57
2, 132796, Note_on_c, 0, 67, 0
2, 132798, Control_c, 0, 64, 43
2, 132805, Note_on_c, 0, 55, 43
2, 132814, Control_c, 0, 64, 38
2, 132845, Note_on_c, 0, 72, 0
2, 132857, Note_on_c, 0, 64, 0
2, 132860, Control_c, 0, 64, 37
2, 132868, Note_on_c, 0, 71, 74
2, 132872, Note_on_c, 0, 62, 60
2, 132875, Control_c, 0, 64, 33
2, 132891, Control_c, 0, 64, 29
2, 132901, Note_on_c, 0, 62, 0
2, 132903, Note_on_c, 0, 55, 0
2, 132906, Control_c, 0, 64, 23
2, 132920, Control_c, 0, 64, 15
2, 132936, Control_c, 0, 64, 0
2, 132948, Note_on_c, 0, 71, 0
2, 132991, Note_on_c, 0, 72, 76
2, 132997, Note_on_c, 0, 64, 58
2, 133014, Note_on_c, 0, 60, 51
2, 133015, Note_on_c, 0, 57, 42
2, 133027, Note_on_c, 0, 64, 0
2, 133046, Note_on_c, 0, 72, 0
2, 133112, Note_on_c, 0, 60, 0
2, 133120, Note_on_c, 0, 59, 63
2, 133135, Note_on_c, 0, 57, 0
2, 133227, Note_on_c, 0, 59, 0
2, 133237, Note_on_c, 0, 74, 71
2, 133240, Note_on_c, 0, 69, 67
2, 133244, Note_on_c, 0, 53, 47
2, 133257, Note_on_c, 0, 57, 60
2, 133267, Note_on_c, 0, 69, 0
2, 133279, Note_on_c, 0, 74, 0
2, 133348, Note_on_c, 0, 57, 0
2, 133356, Note_on_c, 0, 59, 57
2, 133357, Note_on_c, 0, 53, 0
2, 133468, Note_on_c, 0, 59, 0
2, 133494, Note_on_c, 0, 76, 65
2, 133500, Note_on_c, 0, 67, 58
2, 133509, Note_on_c, 0, 60, 51
2, 133596, Control_c, 0, 64, 43
2, 133612, Control_c, 0, 64, 59
2, 133627, Control_c, 0, 64, 64
2, 133639, Note_on_c, 0, 76, 0
2, 133643, Control_c, 0, 64, 68
2, 133658, Control_c, 0, 64, 73
2, 133673, Control_c, 0, 64, 78
2, 133689, Control_c, 0, 64, 83
2, 133704, Control_c, 0, 64, 88
2, 133735, Control_c, 0, 64, 85
2, 133750, Control_c, 0, 64, 82
2, 133761, Note_on_c, 0, 76, 67
2, 133766, Control_c, 0, 64, 78
2, 133774, Note_on_c, 0, 48, 60
2, 133780, Control_c, 0, 64, 72
2, 133795, Control_c, 0, 64, 65
2, 133811, Control_c, 0, 64, 58
2, 133826, Control_c, 0, 64, 47
2, 133841, Control_c, 0, 64, 38
2, 133845, Note_on_c, 0, 48, 0
2, 133857, Control_c, 0, 64, 35
2, 133868, Note_on_c, 0, 74, 73
2, 133872, Control_c, 0, 64, 34
2, 133873, Note_on_c, 0, 47, 51
2, 133875, Note_on_c, 0, 76, 0
2, 133887, Control_c, 0, 64, 31
2, 133902, Control_c, 0, 64, 19
2, 133914, Note_on_c, 0, 47, 0
2, 133917, Control_c, 0, 64, 0
2, 133932, Note_on_c, 0, 74, 0
2, 133994, Note_on_c, 0, 76, 75
2, 134006, Note_on_c, 0, 48, 61
2, 134048, Note_on_c, 0, 76, 0
2, 134049, Note_on_c, 0, 48, 0
2, 134262, Note_on_c, 0, 77, 80
2, 134270, Note_on_c, 0, 50, 64
2, 134300, Note_on_c, 0, 50, 0
2, 134307, Note_on_c, 0, 77, 0
2, 134516, Note_on_c, 0, 79, 72
2, 134523, Note_on_c, 0, 52, 65
2, 134527, Note_on_c, 0, 67, 0
2, 134533, Control_c, 0, 64, 38
2, 134548, Control_c, 0, 64, 55
2, 134553, Note_on_c, 0, 60, 0
2, 134563, Note_on_c, 0, 52, 0
2, 134564, Control_c, 0, 64, 64
2, 134579, Control_c, 0, 64, 68
2, 134594, Control_c, 0, 64, 72
2, 134609, Control_c, 0, 64, 75
2, 134624, Control_c, 0, 64, 77
2, 134638, Note_on_c, 0, 77, 72
2, 134639, Control_c, 0, 64, 77
2, 134639, Note_on_c, 0, 79, 0
2, 134655, Control_c, 0, 64, 77
2, 134700, Control_c, 0, 64, 76
2, 134715, Control_c, 0, 64, 75
2, 134731, Control_c, 0, 64, 74
2, 134746, Control_c, 0, 64, 72
2, 134761, Control_c, 0, 64, 69
2, 134761, Note_on_c, 0, 76, 75
2, 134767, Note_on_c, 0, 77, 0
2, 134770, Note_on_c, 0, 52, 64
2, 134770, Note_on_c, 0, 55, 62
2, 134771, Note_on_c, 0, 72, 63
2, 134777, Control_c, 0, 64, 65
2, 134792, Control_c, 0, 64, 60
2, 134808, Control_c, 0, 64, 54
2, 134822, Control_c, 0, 64, 48
2, 134825, Note_on_c, 0, 52, 0
2, 134837, Control_c, 0, 64, 45
2, 134853, Control_c, 0, 64, 45
2, 134867, Control_c, 0, 64, 43
2, 134875, Note_on_c, 0, 50, 65
2, 134877, Note_on_c, 0, 77, 81
2, 134878, Note_on_c, 0, 76, 0
2, 134883, Control_c, 0, 64, 40
2, 134898, Control_c, 0, 64, 35
2, 134905, Note_on_c, 0, 72, 0
2, 134913, Control_c, 0, 64, 31
2, 134930, Note_on_c, 0, 50, 0
2, 134936, Control_c, 0, 64, 27
2, 134937, Note_on_c, 0, 55, 0
2, 134951, Control_c, 0, 64, 23
2, 134957, Note_on_c, 0, 77, 0
2, 134967, Control_c, 0, 64, 21
2, 134982, Control_c, 0, 64, 19
2, 134996, Control_c, 0, 64, 17
2, 135006, Note_on_c, 0, 52, 70
2, 135012, Control_c, 0, 64, 16
2, 135013, Note_on_c, 0, 79, 79
2, 135019, Note_on_c, 0, 71, 73
2, 135027, Control_c, 0, 64, 15
2, 135043, Control_c, 0, 64, 12
2, 135055, Note_on_c, 0, 52, 0
2, 135055, Note_on_c, 0, 71, 0
2, 135061, Note_on_c, 0, 79, 0
2, 135073, Control_c, 0, 64, 11
2, 135164, Control_c, 0, 64, 9
2, 135278, Note_on_c, 0, 81, 64
2, 135286, Note_on_c, 0, 69, 62
2, 135287, Note_on_c, 0, 62, 59
2, 135289, Note_on_c, 0, 54, 54
2, 135304, Note_on_c, 0, 81, 0
2, 135315, Note_on_c, 0, 69, 0
2, 135340, Note_on_c, 0, 54, 0
2, 135532, Note_on_c, 0, 55, 64
2, 135532, Note_on_c, 0, 71, 68
2, 135541, Note_on_c, 0, 67, 61
2, 135559, Control_c, 0, 64, 0
2, 135594, Note_on_c, 0, 62, 0
2, 135611, Note_on_c, 0, 71, 0
2, 135629, Note_on_c, 0, 67, 0
2, 135652, Note_on_c, 0, 53, 69
2, 135674, Note_on_c, 0, 55, 0
2, 135700, Note_on_c, 0, 53, 0
2, 135780, Note_on_c, 0, 67, 70
2, 135786, Note_on_c, 0, 52, 68
2, 135792, Note_on_c, 0, 64, 65
2, 135823, Note_on_c, 0, 64, 0
2, 135825, Note_on_c, 0, 52, 0
2, 135831, Note_on_c, 0, 67, 0
2, 135892, Note_on_c, 0, 53, 60
2, 135937, Note_on_c, 0, 53, 0
2, 136021, Note_on_c, 0, 55, 62
2, 136021, Note_on_c, 0, 65, 72
2, 136028, Note_on_c, 0, 62, 55
2, 136053, Note_on_c, 0, 65, 0
2, 136056, Note_on_c, 0, 55, 0
2, 136064, Note_on_c, 0, 62, 0
2, 136269, Note_on_c, 0, 72, 75
2, 136284, Note_on_c, 0, 64, 58
2, 136287, Note_on_c, 0, 57, 58
2, 136291, Note_on_c, 0, 60, 46
2, 136315, Note_on_c, 0, 64, 0
2, 136317, Note_on_c, 0, 60, 0
2, 136318, Note_on_c, 0, 57, 0
2, 136343, Note_on_c, 0, 72, 0
2, 136538, Note_on_c, 0, 62, 64
2, 136542, Note_on_c, 0, 74, 72
2, 136548, Control_c, 0, 64, 17
2, 136552, Note_on_c, 0, 47, 56
2, 136553, Note_on_c, 0, 55, 55
2, 136563, Control_c, 0, 64, 48
2, 136570, Note_on_c, 0, 62, 0
2, 136578, Control_c, 0, 64, 62
2, 136592, Note_on_c, 0, 74, 0
2, 136593, Control_c, 0, 64, 68
2, 136608, Note_on_c, 0, 47, 0
2, 136609, Control_c, 0, 64, 74
2, 136624, Control_c, 0, 64, 81
2, 136638, Control_c, 0, 64, 84
2, 136654, Control_c, 0, 64, 83
2, 136661, Note_on_c, 0, 76, 71
2, 136667, Note_on_c, 0, 67, 65
2, 136669, Control_c, 0, 64, 81
2, 136685, Control_c, 0, 64, 79
2, 136702, Control_c, 0, 64, 77
2, 136705, Note_on_c, 0, 67, 0
2, 136718, Control_c, 0, 64, 74
2, 136732, Note_on_c, 0, 76, 0
2, 136733, Control_c, 0, 64, 70
2, 136748, Control_c, 0, 64, 65
2, 136763, Control_c, 0, 64, 57
2, 136777, Note_on_c, 0, 72, 76
2, 136778, Control_c, 0, 64, 50
2, 136786, Note_on_c, 0, 43, 63
2, 136793, Control_c, 0, 64, 45
2, 136809, Control_c, 0, 64, 44
2, 136822, Control_c, 0, 64, 44
2, 136838, Control_c, 0, 64, 42
2, 136852, Control_c, 0, 64, 37
2, 136854, Note_on_c, 0, 72, 0
2, 136867, Control_c, 0, 64, 31
2, 136883, Control_c, 0, 64, 27
2, 136898, Control_c, 0, 64, 25
2, 136904, Note_on_c, 0, 74, 75
2, 136905, Note_on_c, 0, 71, 56
2, 136913, Control_c, 0, 64, 24
2, 136928, Control_c, 0, 64, 22
2, 136928, Note_on_c, 0, 71, 0
2, 136941, Note_on_c, 0, 74, 0
2, 136943, Control_c, 0, 64, 21
2, 136959, Control_c, 0, 64, 19
2, 136975, Control_c, 0, 64, 18
2, 136995, Note_on_c, 0, 43, 0
2, 137005, Control_c, 0, 64, 17
2, 137020, Control_c, 0, 64, 17
2, 137029, Note_on_c, 0, 76, 71
2, 137035, Control_c, 0, 64, 16
2, 137047, Note_on_c, 0, 72, 60
2, 137051, Control_c, 0, 64, 15
2, 137066, Control_c, 0, 64, 13
2, 137111, Control_c, 0, 64, 12
2, 137140, Note_on_c, 0, 76, 0
2, 137142, Note_on_c, 0, 77, 66
2, 137158, Control_c, 0, 64, 11
2, 137269, Note_on_c, 0, 77, 0
2, 137275, Note_on_c, 0, 74, 66
2, 137280, Note_on_c, 0, 48, 65
2, 137326, Note_on_c, 0, 48, 0
2, 137373, Note_on_c, 0, 74, 0
2, 137394, Note_on_c, 0, 76, 67
2, 137435, Note_on_c, 0, 76, 0
2, 137497, Note_on_c, 0, 72, 0
2, 137520, Note_on_c, 0, 72, 31
2, 137523, Note_on_c, 0, 77, 73
2, 137525, Note_on_c, 0, 50, 64
2, 137626, Note_on_c, 0, 50, 0
2, 137631, Note_on_c, 0, 52, 65
2, 137637, Note_on_c, 0, 77, 0
2, 137697, Control_c, 0, 64, 9
2, 137728, Control_c, 0, 64, 0
2, 137753, Note_on_c, 0, 48, 68
2, 137754, Note_on_c, 0, 52, 0
2, 137764, Note_on_c, 0, 76, 77
2, 137847, Note_on_c, 0, 72, 0
2, 137877, Note_on_c, 0, 50, 71
2, 137885, Note_on_c, 0, 76, 0
2, 137900, Note_on_c, 0, 48, 0
2, 138014, Note_on_c, 0, 71, 81
2, 138014, Note_on_c, 0, 74, 76
2, 138023, Note_on_c, 0, 52, 78
2, 138039, Note_on_c, 0, 50, 0
2, 138105, Note_on_c, 0, 71, 0
2, 138141, Note_on_c, 0, 53, 82
2, 138151, Note_on_c, 0, 74, 0
2, 138178, Note_on_c, 0, 52, 0
2, 138260, Note_on_c, 0, 70, 81
2, 138260, Note_on_c, 0, 79, 74
2, 138264, Note_on_c, 0, 50, 75
2, 138294, Note_on_c, 0, 53, 0
2, 138307, Note_on_c, 0, 79, 0
2, 138314, Note_on_c, 0, 55, 0
2, 138371, Note_on_c, 0, 70, 0
2, 138376, Note_on_c, 0, 52, 74
2, 138416, Note_on_c, 0, 50, 0
2, 138528, Note_on_c, 0, 72, 70
2, 138530, Note_on_c, 0, 52, 0
2, 138533, Note_on_c, 0, 53, 45
2, 138534, Note_on_c, 0, 69, 60
2, 138542, Note_on_c, 0, 57, 57
2, 138563, Note_on_c, 0, 53, 0
2, 138619, Note_on_c, 0, 69, 0
2, 138643, Note_on_c, 0, 72, 0
2, 138652, Note_on_c, 0, 71, 69
2, 138662, Note_on_c, 0, 59, 73
2, 138663, Note_on_c, 0, 57, 0
2, 138757, Note_on_c, 0, 59, 0
2, 138786, Note_on_c, 0, 74, 71
2, 138792, Note_on_c, 0, 52, 57
2, 138795, Note_on_c, 0, 55, 56
2, 138809, Note_on_c, 0, 71, 0
2, 138894, Note_on_c, 0, 52, 0
2, 138894, Note_on_c, 0, 57, 73
2, 138901, Note_on_c, 0, 72, 78
2, 138914, Note_on_c, 0, 74, 0
2, 138922, Note_on_c, 0, 55, 0
2, 139018, Note_on_c, 0, 57, 0
2, 139028, Note_on_c, 0, 71, 79
2, 139031, Note_on_c, 0, 50, 63
2, 139033, Note_on_c, 0, 59, 69
2, 139052, Note_on_c, 0, 72, 0
2, 139084, Note_on_c, 0, 50, 0
2, 139137, Note_on_c, 0, 71, 0
2, 139138, Note_on_c, 0, 69, 76
2, 139140, Note_on_c, 0, 59, 0
2, 139144, Note_on_c, 0, 60, 65
2, 139227, Note_on_c, 0, 69, 0
2, 139259, Note_on_c, 0, 67, 73
2, 139265, Note_on_c, 0, 60, 0
2, 139280, Note_on_c, 0, 57, 59
2, 139283, Note_on_c, 0, 55, 50
2, 139378, Note_on_c, 0, 65, 71
2, 139380, Note_on_c, 0, 55, 0
2, 139383, Note_on_c, 0, 67, 0
2, 139392, Note_on_c, 0, 57, 0
2, 139393, Note_on_c, 0, 59, 52
2, 139418, Note_on_c, 0, 59, 0
2, 139431, Note_on_c, 0, 65, 0
2, 139508, Note_on_c, 0, 64, 65
2, 139534, Note_on_c, 0, 60, 69
2, 139550, Note_on_c, 0, 48, 48
2, 139576, Control_c, 0, 64, 39
2, 139591, Control_c, 0, 64, 57
2, 139607, Control_c, 0, 64, 64
2, 139622, Control_c, 0, 64, 70
2, 139625, Note_on_c, 0, 48, 0
2, 139638, Control_c, 0, 64, 74
2, 139649, Note_on_c, 0, 60, 0
2, 139652, Control_c, 0, 64, 74
2, 139667, Control_c, 0, 64, 72
2, 139683, Control_c, 0, 64, 70
2, 139698, Control_c, 0, 64, 68
2, 139713, Control_c, 0, 64, 64
2, 139729, Control_c, 0, 64, 57
2, 139737, Note_on_c, 0, 64, 0
2, 139743, Control_c, 0, 64, 48
2, 139759, Control_c, 0, 64, 40
2, 139769, Note_on_c, 0, 65, 71
2, 139774, Control_c, 0, 64, 36
2, 139778, Note_on_c, 0, 59, 64
2, 139779, Note_on_c, 0, 50, 57
2, 139789, Control_c, 0, 64, 35
2, 139805, Control_c, 0, 64, 32
2, 139819, Control_c, 0, 64, 24
2, 139834, Control_c, 0, 64, 16
2, 139850, Control_c, 0, 64, 9
2, 139860, Note_on_c, 0, 65, 0
2, 139864, Control_c, 0, 64, 0
2, 139880, Note_on_c, 0, 67, 73
2, 139882, Note_on_c, 0, 50, 0
2, 139882, Note_on_c, 0, 52, 64
2, 139900, Note_on_c, 0, 59, 0
2, 139932, Note_on_c, 0, 52, 0
2, 139986, Note_on_c, 0, 67, 0
2, 140008, Note_on_c, 0, 69, 74
2, 140022, Note_on_c, 0, 57, 65
2, 140025, Note_on_c, 0, 53, 58
2, 140118, Note_on_c, 0, 69, 0
2, 140133, Note_on_c, 0, 71, 76
2, 140252, Note_on_c, 0, 71, 0
2, 140258, Note_on_c, 0, 72, 79
2, 140271, Note_on_c, 0, 62, 68
2, 140389, Note_on_c, 0, 74, 75
2, 140414, Note_on_c, 0, 72, 0
2, 140456, Note_on_c, 0, 57, 0
2, 140514, Note_on_c, 0, 71, 79
2, 140527, Note_on_c, 0, 55, 59
2, 140527, Note_on_c, 0, 62, 0
2, 140532, Note_on_c, 0, 74, 0
2, 140638, Note_on_c, 0, 64, 75
2, 140640, Note_on_c, 0, 71, 0
2, 140747, Note_on_c, 0, 64, 0
2, 140764, Note_on_c, 0, 69, 82
2, 140773, Note_on_c, 0, 60, 68
2, 140811, Note_on_c, 0, 60, 0
2, 140869, Note_on_c, 0, 69, 0
2, 140873, Note_on_c, 0, 67, 73
2, 140879, Note_on_c, 0, 62, 58
2, 140907, Note_on_c, 0, 62, 0
2, 140921, Note_on_c, 0, 67, 0
2, 141002, Note_on_c, 0, 52, 71
2, 141004, Note_on_c, 0, 72, 86
2, 141012, Note_on_c, 0, 55, 0
2, 141013, Note_on_c, 0, 64, 68
2, 141022, Note_on_c, 0, 53, 0
2, 141054, Note_on_c, 0, 64, 0
2, 141144, Note_on_c, 0, 65, 65
2, 141259, Note_on_c, 0, 65, 0
2, 141269, Note_on_c, 0, 62, 70
2, 141271, Note_on_c, 0, 57, 61
2, 141273, Note_on_c, 0, 52, 0
2, 141279, Note_on_c, 0, 60, 63
2, 141298, Note_on_c, 0, 57, 0
2, 141306, Note_on_c, 0, 62, 0
2, 141310, Note_on_c, 0, 60, 0
2, 141383, Note_on_c, 0, 64, 69
2, 141411, Note_on_c, 0, 64, 0
2, 141515, Note_on_c, 0, 65, 69
2, 141524, Note_on_c, 0, 50, 62
2, 141527, Note_on_c, 0, 62, 57
2, 141600, Note_on_c, 0, 62, 0
2, 141621, Note_on_c, 0, 65, 0
2, 141641, Note_on_c, 0, 53, 61
2, 141673, Note_on_c, 0, 50, 0
2, 141734, Note_on_c, 0, 53, 0
2, 141750, Note_on_c, 0, 55, 71
2, 141761, Note_on_c, 0, 64, 70
2, 141769, Note_on_c, 0, 52, 61
2, 141873, Note_on_c, 0, 55, 0
2, 141874, Note_on_c, 0, 57, 66
2, 141876, Note_on_c, 0, 72, 0
2, 141878, Note_on_c, 0, 53, 64
2, 141884, Note_on_c, 0, 64, 0
2, 141891, Note_on_c, 0, 52, 0
2, 141910, Note_on_c, 0, 57, 0
2, 142009, Note_on_c, 0, 55, 58
2, 142011, Note_on_c, 0, 59, 66
2, 142012, Note_on_c, 0, 71, 76
2, 142014, Note_on_c, 0, 53, 0
2, 142025, Note_on_c, 0, 62, 59
2, 142039, Note_on_c, 0, 55, 0
2, 142040, Note_on_c, 0, 59, 0
2, 142101, Note_on_c, 0, 62, 0
2, 142124, Note_on_c, 0, 60, 62
2, 142188, Note_on_c, 0, 60, 0
2, 142257, Note_on_c, 0, 43, 58
2, 142257, Note_on_c, 0, 62, 43
2, 142260, Note_on_c, 0, 67, 62
2, 142286, Note_on_c, 0, 43, 0
2, 142337, Note_on_c, 0, 62, 0
2, 142379, Note_on_c, 0, 59, 65
2, 142405, Note_on_c, 0, 67, 0
2, 142407, Note_on_c, 0, 59, 0
2, 142430, Note_on_c, 0, 71, 0
2, 142502, Control_c, 0, 64, 44
2, 142517, Control_c, 0, 64, 59
2, 142532, Control_c, 0, 64, 65
2, 142533, Note_on_c, 0, 72, 64
2, 142534, Note_on_c, 0, 48, 53
2, 142545, Note_on_c, 0, 55, 44
2, 142546, Note_on_c, 0, 64, 54
2, 142547, Control_c, 0, 64, 71
2, 142562, Control_c, 0, 64, 80
2, 142565, Note_on_c, 0, 48, 0
2, 142576, Note_on_c, 0, 55, 0
2, 142578, Control_c, 0, 64, 93
2, 142588, Note_on_c, 0, 64, 0
2, 142593, Control_c, 0, 64, 105
2, 142616, Control_c, 0, 64, 116
2, 142631, Control_c, 0, 64, 121
2, 142647, Control_c, 0, 64, 123
2, 142674, Note_on_c, 0, 65, 59
2, 142692, Control_c, 0, 64, 121
2, 142703, Note_on_c, 0, 65, 0
2, 142707, Control_c, 0, 64, 118
2, 142720, Note_on_c, 0, 72, 0
2, 142722, Control_c, 0, 64, 116
2, 142738, Control_c, 0, 64, 114
2, 142753, Control_c, 0, 64, 110
2, 142769, Control_c, 0, 64, 100
2, 142784, Control_c, 0, 64, 85
2, 142799, Control_c, 0, 64, 71
2, 142813, Note_on_c, 0, 76, 73
2, 142814, Note_on_c, 0, 64, 58
2, 142815, Control_c, 0, 64, 61
2, 142830, Control_c, 0, 64, 38
2, 142845, Control_c, 0, 64, 0
2, 142893, Note_on_c, 0, 76, 0
2, 142906, Note_on_c, 0, 64, 0
2, 142921, Note_on_c, 0, 77, 80
2, 142934, Note_on_c, 0, 62, 48
2, 142972, Note_on_c, 0, 77, 0
2, 143049, Note_on_c, 0, 62, 0
2, 143049, Note_on_c, 0, 76, 78
2, 143061, Note_on_c, 0, 60, 60
2, 143095, Note_on_c, 0, 76, 0
2, 143148, Note_on_c, 0, 60, 0
2, 143171, Note_on_c, 0, 59, 62
2, 143200, Note_on_c, 0, 59, 0
2, 143290, Note_on_c, 0, 74, 77
2, 143307, Note_on_c, 0, 52, 64
2, 143313, Note_on_c, 0, 57, 60
2, 143336, Note_on_c, 0, 74, 0
2, 143408, Note_on_c, 0, 56, 69
2, 143408, Note_on_c, 0, 57, 0
2, 143417, Note_on_c, 0, 52, 0
2, 143438, Note_on_c, 0, 56, 0
2, 143545, Note_on_c, 0, 72, 80
2, 143551, Note_on_c, 0, 45, 61
2, 143551, Note_on_c, 0, 57, 60
2, 143567, Control_c, 0, 64, 35
2, 143579, Note_on_c, 0, 45, 0
2, 143582, Control_c, 0, 64, 55
2, 143597, Control_c, 0, 64, 63
2, 143599, Note_on_c, 0, 72, 0
2, 143613, Control_c, 0, 64, 67
2, 143628, Control_c, 0, 64, 72
2, 143642, Control_c, 0, 64, 77
2, 143658, Control_c, 0, 64, 82
2, 143673, Control_c, 0, 64, 86
2, 143673, Note_on_c, 0, 58, 69
2, 143676, Note_on_c, 0, 57, 0
2, 143689, Control_c, 0, 64, 88
2, 143704, Control_c, 0, 64, 88
2, 143719, Control_c, 0, 64, 86
2, 143735, Control_c, 0, 64, 84
2, 143750, Control_c, 0, 64, 81
2, 143765, Control_c, 0, 64, 76
2, 143780, Control_c, 0, 64, 70
2, 143784, Note_on_c, 0, 58, 0
2, 143793, Note_on_c, 0, 73, 80
2, 143795, Control_c, 0, 64, 64
2, 143798, Note_on_c, 0, 57, 76
2, 143805, Note_on_c, 0, 69, 69
2, 143810, Control_c, 0, 64, 54
2, 143825, Control_c, 0, 64, 40
2, 143840, Control_c, 0, 64, 33
2, 143854, Note_on_c, 0, 69, 0
2, 143856, Control_c, 0, 64, 31
2, 143871, Control_c, 0, 64, 27
2, 143886, Control_c, 0, 64, 16
2, 143901, Control_c, 0, 64, 0
2, 143903, Note_on_c, 0, 70, 83
2, 143909, Note_on_c, 0, 55, 76
2, 143921, Note_on_c, 0, 57, 0
2, 143936, Note_on_c, 0, 73, 0
2, 143994, Note_on_c, 0, 70, 0
2, 144033, Note_on_c, 0, 74, 86
2, 144034, Note_on_c, 0, 53, 77
2, 144039, Note_on_c, 0, 55, 0
2, 144041, Note_on_c, 0, 69, 74
2, 144070, Note_on_c, 0, 69, 0
2, 144092, Note_on_c, 0, 74, 0
2, 144149, Note_on_c, 0, 52, 78
2, 144150, Note_on_c, 0, 53, 0
2, 144276, Note_on_c, 0, 76, 88
2, 144285, Note_on_c, 0, 50, 79
2, 144287, Note_on_c, 0, 67, 75
2, 144289, Note_on_c, 0, 52, 0
2, 144316, Note_on_c, 0, 67, 0
2, 144355, Note_on_c, 0, 76, 0
2, 144398, Note_on_c, 0, 49, 72
2, 144423, Note_on_c, 0, 50, 0
2, 144551, Note_on_c, 0, 69, 82
2, 144560, Note_on_c, 0, 50, 69
2, 144562, Note_on_c, 0, 65, 66
2, 144597, Note_on_c, 0, 49, 0
2, 144668, Control_c, 0, 64, 16
2, 144684, Control_c, 0, 64, 51
2, 144699, Control_c, 0, 64, 62
2, 144713, Note_on_c, 0, 65, 0
2, 144714, Control_c, 0, 64, 66
2, 144729, Control_c, 0, 64, 71
2, 144744, Control_c, 0, 64, 76
2, 144759, Control_c, 0, 64, 79
2, 144774, Control_c, 0, 64, 80
2, 144789, Control_c, 0, 64, 78
2, 144805, Control_c, 0, 64, 76
2, 144820, Control_c, 0, 64, 74
2, 144824, Note_on_c, 0, 69, 0
2, 144830, Note_on_c, 0, 74, 78
2, 144835, Control_c, 0, 64, 70
2, 144836, Note_on_c, 0, 65, 68
2, 144837, Note_on_c, 0, 57, 58
2, 144851, Control_c, 0, 64, 65
2, 144866, Control_c, 0, 64, 59
2, 144881, Control_c, 0, 64, 46
2, 144884, Note_on_c, 0, 65, 0
2, 144897, Control_c, 0, 64, 34
2, 144919, Control_c, 0, 64, 30
2, 144934, Control_c, 0, 64, 30
2, 144942, Note_on_c, 0, 57, 0
2, 144942, Note_on_c, 0, 58, 73
2, 144949, Control_c, 0, 64, 25
2, 144949, Note_on_c, 0, 76, 83
2, 144951, Note_on_c, 0, 67, 78
2, 144965, Control_c, 0, 64, 12
2, 144979, Control_c, 0, 64, 0
2, 144981, Note_on_c, 0, 74, 0
2, 144987, Note_on_c, 0, 67, 0
2, 145008, Note_on_c, 0, 58, 0
2, 145074, Note_on_c, 0, 57, 73
2, 145079, Note_on_c, 0, 74, 82
2, 145080, Note_on_c, 0, 76, 0
2, 145082, Note_on_c, 0, 65, 77
2, 145130, Note_on_c, 0, 57, 0
2, 145134, Note_on_c, 0, 74, 0
2, 145139, Note_on_c, 0, 65, 0
2, 145334, Note_on_c, 0, 55, 68
2, 145334, Note_on_c, 0, 72, 80
2, 145342, Note_on_c, 0, 64, 71
2, 145380, Note_on_c, 0, 64, 0
2, 145395, Note_on_c, 0, 55, 0
2, 145406, Note_on_c, 0, 72, 0
2, 145559, Control_c, 0, 64, 26
2, 145574, Control_c, 0, 64, 49
2, 145589, Control_c, 0, 64, 61
2, 145591, Note_on_c, 0, 71, 73
2, 145596, Note_on_c, 0, 62, 63
2, 145600, Note_on_c, 0, 53, 61
2, 145605, Control_c, 0, 64, 67
2, 145619, Control_c, 0, 64, 73
2, 145629, Note_on_c, 0, 62, 0
2, 145634, Control_c, 0, 64, 80
2, 145650, Control_c, 0, 64, 82
2, 145661, Note_on_c, 0, 71, 0
2, 145665, Control_c, 0, 64, 81
2, 145689, Control_c, 0, 64, 80
2, 145703, Control_c, 0, 64, 78
2, 145716, Note_on_c, 0, 72, 79
2, 145717, Note_on_c, 0, 64, 71
2, 145718, Control_c, 0, 64, 77
2, 145727, Note_on_c, 0, 53, 0
2, 145734, Control_c, 0, 64, 76
2, 145749, Control_c, 0, 64, 73
2, 145752, Note_on_c, 0, 64, 0
2, 145765, Control_c, 0, 64, 68
2, 145776, Note_on_c, 0, 72, 0
2, 145779, Control_c, 0, 64, 64
2, 145794, Control_c, 0, 64, 58
2, 145810, Control_c, 0, 64, 51
2, 145825, Control_c, 0, 64, 49
2, 145837, Note_on_c, 0, 74, 83
2, 145845, Note_on_c, 0, 53, 66
2, 145845, Note_on_c, 0, 65, 73
2, 145855, Control_c, 0, 64, 48
2, 145870, Control_c, 0, 64, 44
2, 145886, Control_c, 0, 64, 39
2, 145886, Note_on_c, 0, 65, 0
2, 145901, Control_c, 0, 64, 31
2, 145915, Control_c, 0, 64, 23
2, 145931, Control_c, 0, 64, 11
2, 145945, Note_on_c, 0, 53, 0
2, 145945, Note_on_c, 0, 72, 82
2, 145946, Control_c, 0, 64, 0
2, 145950, Note_on_c, 0, 55, 71
2, 145956, Note_on_c, 0, 64, 74
2, 145966, Note_on_c, 0, 74, 0
2, 146001, Note_on_c, 0, 64, 0
2, 146015, Note_on_c, 0, 55, 0
2, 146070, Note_on_c, 0, 71, 83
2, 146071, Note_on_c, 0, 53, 74
2, 146097, Note_on_c, 0, 62, 50
2, 146099, Note_on_c, 0, 72, 0
2, 146121, Note_on_c, 0, 62, 0
2, 146129, Note_on_c, 0, 53, 0
2, 146138, Note_on_c, 0, 71, 0
2, 146331, Note_on_c, 0, 69, 74
2, 146336, Note_on_c, 0, 60, 70
2, 146340, Note_on_c, 0, 52, 59
2, 146364, Note_on_c, 0, 60, 0
2, 146376, Note_on_c, 0, 52, 0
2, 146388, Note_on_c, 0, 50, 0
2, 146396, Note_on_c, 0, 69, 0
2, 146596, Note_on_c, 0, 67, 70
2, 146598, Note_on_c, 0, 71, 58
2, 146599, Note_on_c, 0, 53, 52
2, 146620, Note_on_c, 0, 50, 24
2, 146685, Note_on_c, 0, 71, 0
2, 146700, Note_on_c, 0, 52, 59
2, 146705, Note_on_c, 0, 53, 0
2, 146776, Note_on_c, 0, 50, 0
2, 146847, Note_on_c, 0, 53, 57
2, 146849, Note_on_c, 0, 74, 70
2, 146863, Note_on_c, 0, 52, 0
2, 146898, Note_on_c, 0, 74, 0
2, 146964, Note_on_c, 0, 53, 0
2, 146965, Note_on_c, 0, 52, 64
2, 147094, Note_on_c, 0, 52, 0
2, 147095, Note_on_c, 0, 50, 66
2, 147104, Note_on_c, 0, 67, 0
2, 147138, Note_on_c, 0, 50, 0
2, 147355, Note_on_c, 0, 69, 68
2, 147358, Note_on_c, 0, 48, 64
2, 147394, Note_on_c, 0, 69, 0
2, 147400, Note_on_c, 0, 48, 0
2, 147598, Note_on_c, 0, 59, 50
2, 147608, Note_on_c, 0, 67, 63
2, 147625, Note_on_c, 0, 53, 53
2, 147691, Note_on_c, 0, 67, 0
2, 147706, Note_on_c, 0, 55, 67
2, 147718, Note_on_c, 0, 59, 0
2, 147718, Note_on_c, 0, 65, 64
2, 147749, Note_on_c, 0, 53, 0
2, 147829, Note_on_c, 0, 55, 0
2, 147844, Note_on_c, 0, 53, 68
2, 147844, Note_on_c, 0, 65, 0
2, 147844, Note_on_c, 0, 69, 74
2, 147862, Note_on_c, 0, 62, 57
2, 147940, Note_on_c, 0, 69, 0
2, 147943, Note_on_c, 0, 53, 0
2, 147951, Note_on_c, 0, 67, 71
2, 147952, Note_on_c, 0, 52, 60
2, 147992, Note_on_c, 0, 52, 0
2, 148052, Note_on_c, 0, 62, 0
2, 148073, Note_on_c, 0, 67, 0
2, 148088, Note_on_c, 0, 50, 62
2, 148089, Note_on_c, 0, 65, 65
2, 148204, Note_on_c, 0, 64, 67
2, 148211, Note_on_c, 0, 65, 0
2, 148330, Note_on_c, 0, 67, 64
2, 148334, Note_on_c, 0, 64, 0
2, 148342, Note_on_c, 0, 57, 58
2, 148440, Note_on_c, 0, 65, 63
2, 148456, Note_on_c, 0, 67, 0
2, 148507, Note_on_c, 0, 65, 0
2, 148528, Note_on_c, 0, 57, 0
2, 148569, Note_on_c, 0, 64, 67
2, 148570, Note_on_c, 0, 55, 63
2, 148602, Note_on_c, 0, 64, 0
2, 148616, Note_on_c, 0, 50, 0
2, 148675, Note_on_c, 0, 53, 64
2, 148687, Note_on_c, 0, 55, 0
2, 148811, Note_on_c, 0, 53, 0
2, 148816, Note_on_c, 0, 65, 70
2, 148822, Note_on_c, 0, 57, 57
2, 148828, Note_on_c, 0, 48, 51
2, 148865, Note_on_c, 0, 65, 0
2, 148929, Note_on_c, 0, 57, 0
2, 148941, Note_on_c, 0, 55, 55
2, 149076, Note_on_c, 0, 67, 67
2, 149079, Note_on_c, 0, 53, 63
2, 149103, Note_on_c, 0, 55, 0
2, 149118, Note_on_c, 0, 67, 0
2, 149148, Note_on_c, 0, 48, 0
2, 149160, Note_on_c, 0, 53, 0
2, 149195, Note_on_c, 0, 52, 58
2, 149249, Note_on_c, 0, 52, 0
2, 149322, Note_on_c, 0, 62, 69
2, 149338, Note_on_c, 0, 55, 58
2, 149355, Note_on_c, 0, 62, 0
2, 149360, Note_on_c, 0, 47, 50
2, 149424, Note_on_c, 0, 47, 0
2, 149431, Note_on_c, 0, 55, 0
2, 149435, Note_on_c, 0, 53, 67
2, 149577, Note_on_c, 0, 69, 69
2, 149580, Note_on_c, 0, 53, 0
2, 149583, Note_on_c, 0, 52, 54
2, 149586, Note_on_c, 0, 48, 52
2, 149697, Note_on_c, 0, 71, 70
2, 149701, Note_on_c, 0, 69, 0
2, 149819, Note_on_c, 0, 71, 0
2, 149824, Note_on_c, 0, 69, 70
2, 149825, Note_on_c, 0, 53, 46
2, 149827, Note_on_c, 0, 50, 53
2, 149850, Note_on_c, 0, 52, 0
2, 149857, Note_on_c, 0, 53, 0
2, 149859, Note_on_c, 0, 48, 0
2, 149865, Note_on_c, 0, 50, 0
2, 149894, Note_on_c, 0, 69, 0
2, 149932, Note_on_c, 0, 71, 71
2, 149961, Note_on_c, 0, 71, 0
2, 150039, Note_on_c, 0, 55, 62
2, 150045, Control_c, 0, 64, 38
2, 150047, Note_on_c, 0, 72, 70
2, 150058, Note_on_c, 0, 43, 52
2, 150059, Control_c, 0, 64, 45
2, 150075, Control_c, 0, 64, 54
2, 150091, Control_c, 0, 64, 61
2, 150095, Note_on_c, 0, 72, 0
2, 150099, Note_on_c, 0, 71, 76
2, 150106, Control_c, 0, 64, 65
2, 150121, Control_c, 0, 64, 70
2, 150137, Control_c, 0, 64, 77
2, 150140, Note_on_c, 0, 71, 0
2, 150151, Control_c, 0, 64, 82
2, 150160, Note_on_c, 0, 69, 69
2, 150167, Control_c, 0, 64, 83
2, 150182, Control_c, 0, 64, 81
2, 150197, Control_c, 0, 64, 79
2, 150198, Note_on_c, 0, 69, 0
2, 150212, Control_c, 0, 64, 78
2, 150227, Control_c, 0, 64, 75
2, 150235, Note_on_c, 0, 71, 77
2, 150242, Control_c, 0, 64, 71
2, 150258, Control_c, 0, 64, 66
2, 150273, Control_c, 0, 64, 60
2, 150273, Note_on_c, 0, 71, 0
2, 150293, Note_on_c, 0, 72, 85
2, 150296, Control_c, 0, 64, 50
2, 150311, Control_c, 0, 64, 41
2, 150314, Note_on_c, 0, 55, 0
2, 150314, Note_on_c, 0, 72, 0
2, 150321, Note_on_c, 0, 50, 58
2, 150327, Control_c, 0, 64, 39
2, 150355, Note_on_c, 0, 71, 84
2, 150357, Control_c, 0, 64, 39
2, 150372, Control_c, 0, 64, 38
2, 150382, Note_on_c, 0, 43, 0
2, 150387, Control_c, 0, 64, 36
2, 150401, Note_on_c, 0, 71, 0
2, 150402, Control_c, 0, 64, 34
2, 150417, Control_c, 0, 64, 33
2, 150418, Note_on_c, 0, 69, 73
2, 150448, Control_c, 0, 64, 33
2, 150463, Control_c, 0, 64, 32
2, 150467, Note_on_c, 0, 71, 71
2, 150468, Note_on_c, 0, 69, 0
2, 150478, Control_c, 0, 64, 31
2, 150493, Control_c, 0, 64, 29
2, 150508, Control_c, 0, 64, 26
2, 150521, Note_on_c, 0, 43, 59
2, 150524, Control_c, 0, 64, 24
2, 150528, Note_on_c, 0, 50, 0
2, 150534, Note_on_c, 0, 72, 85
2, 150536, Note_on_c, 0, 57, 66
2, 150539, Control_c, 0, 64, 24
2, 150554, Control_c, 0, 64, 23
2, 150554, Note_on_c, 0, 43, 0
2, 150558, Note_on_c, 0, 71, 0
2, 150569, Control_c, 0, 64, 23
2, 150584, Control_c, 0, 64, 21
2, 150599, Control_c, 0, 64, 20
2, 150614, Control_c, 0, 64, 19
2, 150629, Control_c, 0, 64, 18
2, 150645, Control_c, 0, 64, 17
2, 150660, Control_c, 0, 64, 16
2, 150666, Note_on_c, 0, 74, 84
2, 150667, Note_on_c, 0, 57, 0
2, 150670, Note_on_c, 0, 59, 66
2, 150672, Note_on_c, 0, 72, 0
2, 150675, Control_c, 0, 64, 13
2, 150690, Control_c, 0, 64, 11
2, 150705, Control_c, 0, 64, 9
2, 150736, Control_c, 0, 64, 0
2, 150765, Note_on_c, 0, 74, 0
2, 150781, Note_on_c, 0, 57, 72
2, 150782, Note_on_c, 0, 59, 0
2, 150786, Note_on_c, 0, 72, 81
2, 150875, Note_on_c, 0, 72, 0
2, 150893, Note_on_c, 0, 74, 85
2, 150896, Note_on_c, 0, 59, 74
2, 150916, Note_on_c, 0, 57, 0
2, 150934, Control_c, 0, 64, 34
2, 150942, Note_on_c, 0, 74, 0
2, 150944, Note_on_c, 0, 59, 0
2, 150949, Control_c, 0, 64, 52
2, 150965, Control_c, 0, 64, 62
2, 150980, Control_c, 0, 64, 67
2, 150994, Control_c, 0, 64, 73
2, 151010, Control_c, 0, 64, 75
2, 151020, Note_on_c, 0, 76, 83
2, 151022, Note_on_c, 0, 55, 69
2, 151025, Control_c, 0, 64, 74
2, 151029, Note_on_c, 0, 59, 67
2, 151040, Control_c, 0, 64, 72
2, 151063, Control_c, 0, 64, 69
2, 151076, Note_on_c, 0, 74, 79
2, 151078, Control_c, 0, 64, 65
2, 151081, Note_on_c, 0, 76, 0
2, 151094, Control_c, 0, 64, 59
2, 151109, Control_c, 0, 64, 55
2, 151125, Control_c, 0, 64, 52
2, 151131, Note_on_c, 0, 74, 0
2, 151139, Control_c, 0, 64, 51
2, 151143, Note_on_c, 0, 72, 77
2, 151154, Control_c, 0, 64, 48
2, 151170, Control_c, 0, 64, 44
2, 151185, Control_c, 0, 64, 38
2, 151200, Control_c, 0, 64, 34
2, 151200, Note_on_c, 0, 72, 0
2, 151210, Note_on_c, 0, 74, 78
2, 151215, Control_c, 0, 64, 32
2, 151230, Control_c, 0, 64, 30
2, 151246, Control_c, 0, 64, 25
2, 151260, Control_c, 0, 64, 17
2, 151265, Note_on_c, 0, 74, 0
2, 151265, Note_on_c, 0, 76, 87
2, 151272, Note_on_c, 0, 55, 0
2, 151275, Control_c, 0, 64, 0
2, 151277, Note_on_c, 0, 53, 62
2, 151286, Note_on_c, 0, 76, 0
2, 151290, Note_on_c, 0, 59, 0
2, 151308, Note_on_c, 0, 57, 63
2, 151327, Note_on_c, 0, 74, 82
2, 151374, Note_on_c, 0, 74, 0
2, 151387, Note_on_c, 0, 59, 71
2, 151393, Note_on_c, 0, 72, 78
2, 151424, Note_on_c, 0, 53, 0
2, 151424, Note_on_c, 0, 57, 0
2, 151447, Note_on_c, 0, 74, 86
2, 151451, Note_on_c, 0, 72, 0
2, 151474, Note_on_c, 0, 59, 0
2, 151496, Note_on_c, 0, 60, 62
2, 151524, Note_on_c, 0, 76, 86
2, 151540, Note_on_c, 0, 52, 65
2, 151549, Note_on_c, 0, 74, 0
2, 151602, Note_on_c, 0, 52, 0
2, 151661, Note_on_c, 0, 74, 80
2, 151677, Note_on_c, 0, 76, 0
2, 151783, Note_on_c, 0, 74, 0
2, 151785, Note_on_c, 0, 50, 72
2, 151793, Note_on_c, 0, 72, 76
2, 151848, Note_on_c, 0, 50, 0
2, 151922, Note_on_c, 0, 71, 77
2, 151932, Note_on_c, 0, 72, 0
2, 152041, Note_on_c, 0, 48, 75
2, 152051, Note_on_c, 0, 69, 77
2, 152054, Note_on_c, 0, 71, 0
2, 152111, Note_on_c, 0, 48, 0
2, 152145, Note_on_c, 0, 69, 0
2, 152156, Note_on_c, 0, 67, 75
2, 152280, Note_on_c, 0, 52, 68
2, 152280, Note_on_c, 0, 66, 75
2, 152297, Note_on_c, 0, 67, 0
2, 152324, Note_on_c, 0, 52, 0
2, 152377, Note_on_c, 0, 66, 0
2, 152382, Note_on_c, 0, 64, 79
2, 152439, Note_on_c, 0, 64, 0
2, 152535, Note_on_c, 0, 66, 77
2, 152553, Note_on_c, 0, 50, 77
2, 152561, Control_c, 0, 64, 33
2, 152584, Control_c, 0, 64, 57
2, 152599, Control_c, 0, 64, 66
2, 152614, Control_c, 0, 64, 80
2, 152629, Control_c, 0, 64, 111
2, 152645, Control_c, 0, 64, 127
2, 152677, Note_on_c, 0, 66, 0
2, 152680, Note_on_c, 0, 50, 0
2, 152802, Note_on_c, 0, 60, 0
2, 152809, Note_on_c, 0, 50, 75
2, 152809, Note_on_c, 0, 62, 84
2, 152812, Control_c, 0, 64, 97
2, 152815, Note_on_c, 0, 54, 72
2, 152827, Control_c, 0, 64, 79
2, 152842, Control_c, 0, 64, 67
2, 152858, Control_c, 0, 64, 56
2, 152872, Control_c, 0, 64, 33
2, 152884, Note_on_c, 0, 50, 0
2, 152888, Control_c, 0, 64, 0
2, 152889, Note_on_c, 0, 54, 0
2, 152928, Note_on_c, 0, 52, 82
2, 152939, Note_on_c, 0, 54, 22
2, 152954, Note_on_c, 0, 50, 29
2, 152970, Note_on_c, 0, 54, 0
2, 152984, Note_on_c, 0, 52, 0
2, 152995, Note_on_c, 0, 50, 0
2, 153022, Note_on_c, 0, 62, 0
2, 153046, Note_on_c, 0, 64, 87
2, 153053, Note_on_c, 0, 55, 79
2, 153059, Note_on_c, 0, 50, 83
2, 153096, Note_on_c, 0, 55, 0
2, 153099, Note_on_c, 0, 64, 0
2, 153120, Note_on_c, 0, 50, 0
2, 153322, Note_on_c, 0, 66, 85
2, 153327, Note_on_c, 0, 48, 78
2, 153329, Note_on_c, 0, 57, 72
2, 153375, Note_on_c, 0, 57, 0
2, 153384, Note_on_c, 0, 66, 0
2, 153391, Note_on_c, 0, 48, 0
2, 153607, Note_on_c, 0, 67, 86
2, 153610, Note_on_c, 0, 47, 74
2, 153613, Note_on_c, 0, 59, 75
2, 153626, Control_c, 0, 64, 34
2, 153641, Control_c, 0, 64, 53
2, 153656, Note_on_c, 0, 59, 0
2, 153657, Control_c, 0, 64, 62
2, 153671, Control_c, 0, 64, 67
2, 153684, Note_on_c, 0, 47, 0
2, 153684, Note_on_c, 0, 67, 0
2, 153687, Control_c, 0, 64, 73
2, 153702, Control_c, 0, 64, 81
2, 153717, Control_c, 0, 64, 91
2, 153732, Control_c, 0, 64, 103
2, 153747, Control_c, 0, 64, 127
2, 153824, Control_c, 0, 64, 115
2, 153839, Control_c, 0, 64, 95
2, 153855, Control_c, 0, 64, 74
2, 153867, Note_on_c, 0, 47, 73
2, 153867, Note_on_c, 0, 74, 78
2, 153869, Control_c, 0, 64, 61
2, 153870, Note_on_c, 0, 66, 75
2, 153871, Note_on_c, 0, 50, 73
2, 153885, Control_c, 0, 64, 33
2, 153900, Control_c, 0, 64, 0
2, 153915, Note_on_c, 0, 50, 0
2, 153928, Note_on_c, 0, 66, 0
2, 153954, Note_on_c, 0, 47, 0
2, 153976, Note_on_c, 0, 76, 83
2, 153977, Note_on_c, 0, 48, 81
2, 153988, Note_on_c, 0, 47, 10
2, 154013, Note_on_c, 0, 74, 0
2, 154014, Note_on_c, 0, 47, 0
2, 154029, Note_on_c, 0, 48, 0
2, 154059, Note_on_c, 0, 76, 0
2, 154105, Note_on_c, 0, 47, 77
2, 154108, Note_on_c, 0, 74, 86
2, 154109, Note_on_c, 0, 67, 83
2, 154148, Note_on_c, 0, 67, 0
2, 154169, Note_on_c, 0, 74, 0
2, 154178, Note_on_c, 0, 47, 0
2, 154383, Note_on_c, 0, 45, 75
2, 154383, Note_on_c, 0, 72, 82
2, 154387, Note_on_c, 0, 69, 79
2, 154393, Note_on_c, 0, 54, 64
2, 154417, Note_on_c, 0, 69, 0
2, 154423, Note_on_c, 0, 72, 0
2, 154426, Note_on_c, 0, 54, 0
2, 154436, Note_on_c, 0, 45, 0
2, 154634, Note_on_c, 0, 71, 76
2, 154637, Control_c, 0, 64, 29
2, 154646, Note_on_c, 0, 43, 70
2, 154648, Note_on_c, 0, 62, 72
2, 154651, Note_on_c, 0, 55, 55
2, 154653, Control_c, 0, 64, 52
2, 154668, Control_c, 0, 64, 62
2, 154682, Control_c, 0, 64, 64
2, 154698, Control_c, 0, 64, 64
2, 154713, Control_c, 0, 64, 63
2, 154729, Control_c, 0, 64, 61
2, 154744, Control_c, 0, 64, 59
2, 154752, Note_on_c, 0, 55, 0
2, 154758, Control_c, 0, 64, 57
2, 154766, Note_on_c, 0, 55, 46
2, 154773, Note_on_c, 0, 45, 73
2, 154774, Control_c, 0, 64, 54
2, 154776, Note_on_c, 0, 71, 0
2, 154789, Control_c, 0, 64, 52
2, 154805, Control_c, 0, 64, 50
2, 154820, Control_c, 0, 64, 48
2, 154821, Note_on_c, 0, 43, 0
2, 154834, Control_c, 0, 64, 45
2, 154850, Control_c, 0, 64, 43
2, 154865, Control_c, 0, 64, 42
2, 154903, Note_on_c, 0, 47, 80
2, 154906, Note_on_c, 0, 71, 83
2, 154925, Note_on_c, 0, 45, 0
2, 154934, Control_c, 0, 64, 43
2, 154965, Control_c, 0, 64, 42
2, 154979, Control_c, 0, 64, 30
2, 154995, Control_c, 0, 64, 0
2, 155013, Note_on_c, 0, 72, 84
2, 155015, Note_on_c, 0, 47, 0
2, 155020, Note_on_c, 0, 45, 83
2, 155042, Note_on_c, 0, 71, 0
2, 155079, Note_on_c, 0, 45, 0
2, 155089, Note_on_c, 0, 72, 0
2, 155145, Note_on_c, 0, 71, 94
2, 155146, Note_on_c, 0, 43, 81
2, 155171, Note_on_c, 0, 55, 0
2, 155186, Note_on_c, 0, 62, 0
2, 155195, Note_on_c, 0, 71, 0
2, 155206, Note_on_c, 0, 43, 0
2, 155401, Note_on_c, 0, 57, 80
2, 155402, Note_on_c, 0, 42, 91
2, 155402, Note_on_c, 0, 69, 83
2, 155405, Note_on_c, 0, 63, 76
2, 155445, Note_on_c, 0, 57, 0
2, 155471, Note_on_c, 0, 63, 0
2, 155481, Note_on_c, 0, 42, 0
2, 155481, Note_on_c, 0, 69, 0
2, 155676, Note_on_c, 0, 52, 74
2, 155677, Note_on_c, 0, 59, 71
2, 155681, Note_on_c, 0, 67, 71
2, 155688, Note_on_c, 0, 64, 63
2, 155757, Note_on_c, 0, 52, 0
2, 155772, Note_on_c, 0, 64, 0
2, 155796, Note_on_c, 0, 69, 82
2, 155824, Note_on_c, 0, 67, 0
2, 155892, Note_on_c, 0, 69, 0
2, 155927, Note_on_c, 0, 71, 78
2, 155932, Note_on_c, 0, 64, 71
2, 155934, Note_on_c, 0, 55, 73
2, 156000, Note_on_c, 0, 55, 0
2, 156026, Note_on_c, 0, 69, 78
2, 156031, Note_on_c, 0, 71, 0
2, 156037, Note_on_c, 0, 63, 76
2, 156053, Note_on_c, 0, 64, 0
2, 156091, Note_on_c, 0, 63, 0
2, 156117, Note_on_c, 0, 69, 0
2, 156171, Note_on_c, 0, 67, 86
2, 156180, Note_on_c, 0, 64, 72
2, 156239, Note_on_c, 0, 67, 0
2, 156436, Note_on_c, 0, 66, 83
2, 156444, Note_on_c, 0, 50, 75
2, 156449, Note_on_c, 0, 64, 0
2, 156479, Note_on_c, 0, 66, 0
2, 156497, Note_on_c, 0, 50, 0
2, 156703, Note_on_c, 0, 76, 77
2, 156705, Note_on_c, 0, 48, 72
2, 156747, Note_on_c, 0, 59, 0
2, 156771, Note_on_c, 0, 76, 0
2, 156783, Note_on_c, 0, 48, 0
2, 156816, Note_on_c, 0, 47, 73
2, 156931, Note_on_c, 0, 47, 0
2, 156936, Note_on_c, 0, 50, 72
2, 156940, Note_on_c, 0, 67, 77
2, 156944, Note_on_c, 0, 79, 78
2, 156951, Note_on_c, 0, 52, 52
2, 157000, Note_on_c, 0, 67, 0
2, 157005, Note_on_c, 0, 52, 0
2, 157036, Note_on_c, 0, 50, 0
2, 157039, Note_on_c, 0, 79, 0
2, 157054, Note_on_c, 0, 48, 77
2, 157100, Note_on_c, 0, 54, 39
2, 157112, Note_on_c, 0, 48, 0
2, 157139, Note_on_c, 0, 54, 0
2, 157205, Note_on_c, 0, 45, 78
2, 157208, Note_on_c, 0, 69, 80
2, 157263, Note_on_c, 0, 69, 0
2, 157337, Note_on_c, 0, 48, 66
2, 157372, Note_on_c, 0, 45, 0
2, 157459, Note_on_c, 0, 47, 71
2, 157459, Note_on_c, 0, 71, 74
2, 157459, Note_on_c, 0, 74, 78
2, 157480, Note_on_c, 0, 48, 0
2, 157499, Note_on_c, 0, 71, 0
2, 157535, Note_on_c, 0, 74, 0
2, 157540, Note_on_c, 0, 47, 0
2, 157686, Note_on_c, 0, 72, 78
2, 157689, Note_on_c, 0, 57, 78
2, 157695, Note_on_c, 0, 45, 68
2, 157792, Note_on_c, 0, 72, 0
2, 157794, Note_on_c, 0, 71, 77
2, 157804, Note_on_c, 0, 45, 0
2, 157935, Note_on_c, 0, 74, 74
2, 157942, Note_on_c, 0, 50, 61
2, 157943, Note_on_c, 0, 67, 70
2, 157947, Note_on_c, 0, 47, 61
2, 157948, Note_on_c, 0, 71, 0
2, 157982, Note_on_c, 0, 57, 0
2, 158069, Note_on_c, 0, 74, 0
2, 158074, Note_on_c, 0, 72, 77
2, 158169, Note_on_c, 0, 67, 0
2, 158195, Note_on_c, 0, 47, 0
2, 158202, Note_on_c, 0, 52, 71
2, 158204, Note_on_c, 0, 71, 78
2, 158208, Note_on_c, 0, 50, 0
2, 158211, Note_on_c, 0, 48, 62
2, 158231, Note_on_c, 0, 72, 0
2, 158283, Control_c, 0, 64, 32
2, 158285, Note_on_c, 0, 52, 0
2, 158297, Control_c, 0, 64, 51
2, 158304, Note_on_c, 0, 48, 0
2, 158311, Note_on_c, 0, 71, 0
2, 158312, Control_c, 0, 64, 59
2, 158319, Note_on_c, 0, 69, 75
2, 158327, Control_c, 0, 64, 63
2, 158342, Control_c, 0, 64, 65
2, 158358, Control_c, 0, 64, 66
2, 158403, Control_c, 0, 64, 66
2, 158418, Control_c, 0, 64, 65
2, 158433, Control_c, 0, 64, 65
2, 158444, Note_on_c, 0, 43, 68
2, 158446, Note_on_c, 0, 72, 73
2, 158447, Note_on_c, 0, 66, 66
2, 158447, Note_on_c, 0, 69, 0
2, 158448, Control_c, 0, 64, 64
2, 158463, Control_c, 0, 64, 63
2, 158471, Note_on_c, 0, 50, 36
2, 158475, Note_on_c, 0, 66, 0
2, 158479, Control_c, 0, 64, 59
2, 158493, Control_c, 0, 64, 53
2, 158508, Control_c, 0, 64, 46
2, 158508, Note_on_c, 0, 50, 0
2, 158522, Note_on_c, 0, 43, 0
2, 158524, Control_c, 0, 64, 41
2, 158539, Control_c, 0, 64, 37
2, 158554, Control_c, 0, 64, 33
2, 158560, Note_on_c, 0, 52, 71
2, 158562, Note_on_c, 0, 67, 56
2, 158563, Note_on_c, 0, 71, 75
2, 158570, Control_c, 0, 64, 24
2, 158584, Control_c, 0, 64, 0
2, 158584, Note_on_c, 0, 72, 0
2, 158616, Note_on_c, 0, 67, 0
2, 158645, Note_on_c, 0, 71, 0
2, 158669, Note_on_c, 0, 52, 0
2, 158688, Note_on_c, 0, 69, 80
2, 158691, Note_on_c, 0, 54, 69
2, 158696, Note_on_c, 0, 50, 63
2, 158736, Note_on_c, 0, 69, 0
2, 158792, Note_on_c, 0, 54, 0
2, 158810, Note_on_c, 0, 55, 63
2, 158935, Note_on_c, 0, 55, 0
2, 158940, Note_on_c, 0, 71, 79
2, 158941, Note_on_c, 0, 52, 54
2, 158979, Note_on_c, 0, 71, 0
2, 159055, Note_on_c, 0, 54, 75
2, 159081, Note_on_c, 0, 50, 0
2, 159082, Note_on_c, 0, 52, 0
2, 159115, Note_on_c, 0, 54, 0
2, 159188, Note_on_c, 0, 72, 77
2, 159191, Note_on_c, 0, 55, 67
2, 159210, Note_on_c, 0, 52, 59
2, 159238, Note_on_c, 0, 72, 0
2, 159290, Note_on_c, 0, 55, 0
2, 159291, Note_on_c, 0, 57, 67
2, 159424, Note_on_c, 0, 67, 82
2, 159431, Note_on_c, 0, 54, 71
2, 159445, Note_on_c, 0, 57, 0
2, 159456, Note_on_c, 0, 67, 0
2, 159467, Note_on_c, 0, 52, 0
2, 159545, Note_on_c, 0, 55, 67
2, 159575, Note_on_c, 0, 54, 0
2, 159685, Note_on_c, 0, 74, 69
2, 159695, Note_on_c, 0, 57, 62
2, 159697, Note_on_c, 0, 54, 66
2, 159703, Note_on_c, 0, 55, 0
2, 159798, Note_on_c, 0, 76, 74
2, 159819, Note_on_c, 0, 74, 0
2, 159917, Note_on_c, 0, 57, 0
2, 159927, Note_on_c, 0, 59, 59
2, 159929, Note_on_c, 0, 74, 75
2, 159935, Note_on_c, 0, 76, 0
2, 160018, Note_on_c, 0, 74, 0
2, 160027, Control_c, 0, 64, 33
2, 160036, Note_on_c, 0, 76, 80
2, 160042, Control_c, 0, 64, 52
2, 160049, Note_on_c, 0, 60, 59
2, 160058, Control_c, 0, 64, 62
2, 160067, Note_on_c, 0, 59, 0
2, 160073, Control_c, 0, 64, 65
2, 160076, Note_on_c, 0, 76, 0
2, 160089, Control_c, 0, 64, 67
2, 160097, Note_on_c, 0, 54, 0
2, 160104, Control_c, 0, 64, 66
2, 160118, Control_c, 0, 64, 66
2, 160134, Control_c, 0, 64, 65
2, 160149, Control_c, 0, 64, 64
2, 160165, Control_c, 0, 64, 62
2, 160171, Note_on_c, 0, 77, 74
2, 160173, Note_on_c, 0, 55, 50
2, 160174, Note_on_c, 0, 60, 0
2, 160179, Control_c, 0, 64, 59
2, 160185, Note_on_c, 0, 59, 62
2, 160194, Control_c, 0, 64, 53
2, 160210, Control_c, 0, 64, 47
2, 160220, Note_on_c, 0, 76, 77
2, 160220, Note_on_c, 0, 77, 0
2, 160225, Control_c, 0, 64, 43
2, 160240, Control_c, 0, 64, 41
2, 160263, Control_c, 0, 64, 39
2, 160275, Note_on_c, 0, 76, 0
2, 160278, Control_c, 0, 64, 35
2, 160293, Control_c, 0, 64, 28
2, 160299, Note_on_c, 0, 74, 60
2, 160308, Control_c, 0, 64, 19
2, 160320, Note_on_c, 0, 59, 0
2, 160324, Control_c, 0, 64, 13
2, 160328, Note_on_c, 0, 60, 56
2, 160335, Note_on_c, 0, 74, 0
2, 160339, Control_c, 0, 64, 12
2, 160354, Control_c, 0, 64, 0
2, 160367, Note_on_c, 0, 76, 77
2, 160405, Note_on_c, 0, 76, 0
2, 160428, Note_on_c, 0, 77, 82
2, 160451, Note_on_c, 0, 77, 0
2, 160455, Note_on_c, 0, 60, 0
2, 160465, Note_on_c, 0, 57, 61
2, 160487, Note_on_c, 0, 76, 86
2, 160531, Note_on_c, 0, 76, 0
2, 160547, Note_on_c, 0, 55, 0
2, 160562, Note_on_c, 0, 74, 73
2, 160590, Note_on_c, 0, 59, 61
2, 160627, Note_on_c, 0, 74, 0
2, 160629, Note_on_c, 0, 76, 75
2, 160638, Note_on_c, 0, 57, 0
2, 160746, Note_on_c, 0, 77, 76
2, 160756, Note_on_c, 0, 60, 59
2, 160756, Note_on_c, 0, 76, 0
2, 160761, Note_on_c, 0, 59, 0
2, 160764, Note_on_c, 0, 57, 54
2, 160891, Note_on_c, 0, 76, 69
2, 161023, Note_on_c, 0, 74, 70
2, 161025, Note_on_c, 0, 76, 0
2, 161026, Note_on_c, 0, 60, 0
2, 161030, Note_on_c, 0, 62, 60
2, 161151, Note_on_c, 0, 72, 69
2, 161152, Note_on_c, 0, 74, 0
2, 161159, Note_on_c, 0, 64, 59
2, 161179, Note_on_c, 0, 57, 0
2, 161181, Note_on_c, 0, 62, 0
2, 161275, Note_on_c, 0, 62, 59
2, 161276, Note_on_c, 0, 64, 0
2, 161277, Note_on_c, 0, 71, 71
2, 161277, Note_on_c, 0, 72, 0
2, 161278, Note_on_c, 0, 59, 60
2, 161311, Note_on_c, 0, 59, 0
2, 161311, Note_on_c, 0, 62, 0
2, 161345, Note_on_c, 0, 71, 0
2, 161397, Note_on_c, 0, 69, 61
2, 161504, Note_on_c, 0, 69, 0
2, 161527, Note_on_c, 0, 68, 60
2, 161528, Note_on_c, 0, 60, 54
2, 161532, Note_on_c, 0, 57, 61
2, 161553, Note_on_c, 0, 60, 0
2, 161561, Note_on_c, 0, 57, 0
2, 161621, Note_on_c, 0, 68, 0
2, 161630, Note_on_c, 0, 69, 66
2, 161663, Note_on_c, 0, 69, 0
2, 161773, Note_on_c, 0, 71, 66
2, 161776, Control_c, 0, 64, 43
2, 161776, Note_on_c, 0, 56, 52
2, 161787, Note_on_c, 0, 59, 48
2, 161791, Control_c, 0, 64, 57
2, 161814, Control_c, 0, 64, 63
2, 161819, Note_on_c, 0, 56, 0
2, 161822, Note_on_c, 0, 59, 0
2, 161829, Control_c, 0, 64, 67
2, 161845, Control_c, 0, 64, 70
2, 161860, Control_c, 0, 64, 74
2, 161875, Control_c, 0, 64, 75
2, 161890, Control_c, 0, 64, 76
2, 161990, Note_on_c, 0, 77, 0
2, 161996, Control_c, 0, 64, 75
2, 162012, Control_c, 0, 64, 73
2, 162027, Control_c, 0, 64, 68
2, 162037, Note_on_c, 0, 56, 63
2, 162041, Note_on_c, 0, 52, 56
2, 162042, Control_c, 0, 64, 62
2, 162042, Note_on_c, 0, 76, 66
2, 162057, Control_c, 0, 64, 50
2, 162070, Note_on_c, 0, 56, 0
2, 162072, Control_c, 0, 64, 27
2, 162076, Note_on_c, 0, 52, 0
2, 162088, Control_c, 0, 64, 0
2, 162154, Note_on_c, 0, 77, 71
2, 162155, Note_on_c, 0, 76, 0
2, 162201, Note_on_c, 0, 77, 0
2, 162284, Note_on_c, 0, 76, 73
2, 162291, Note_on_c, 0, 54, 63
2, 162295, Note_on_c, 0, 57, 59
2, 162319, Note_on_c, 0, 76, 0
2, 162325, Note_on_c, 0, 54, 0
2, 162331, Note_on_c, 0, 57, 0
2, 162554, Note_on_c, 0, 56, 67
2, 162555, Note_on_c, 0, 74, 74
2, 162557, Note_on_c, 0, 59, 62
2, 162595, Note_on_c, 0, 59, 0
2, 162596, Note_on_c, 0, 56, 0
2, 162605, Note_on_c, 0, 74, 0
2, 162765, Note_on_c, 0, 71, 0
2, 162822, Note_on_c, 0, 72, 72
2, 162831, Note_on_c, 0, 60, 61
2, 162832, Note_on_c, 0, 57, 61
2, 162853, Note_on_c, 0, 72, 0
2, 162861, Note_on_c, 0, 74, 75
2, 162881, Note_on_c, 0, 57, 0
2, 162886, Note_on_c, 0, 74, 0
2, 162901, Control_c, 0, 64, 43
2, 162916, Control_c, 0, 64, 58
2, 162916, Note_on_c, 0, 72, 72
2, 162932, Control_c, 0, 64, 63
2, 162947, Control_c, 0, 64, 67
2, 162962, Control_c, 0, 64, 71
2, 162977, Control_c, 0, 64, 75
2, 162983, Note_on_c, 0, 72, 0
2, 162992, Control_c, 0, 64, 79
2, 163008, Control_c, 0, 64, 83
2, 163023, Control_c, 0, 64, 86
2, 163038, Control_c, 0, 64, 87
2, 163068, Control_c, 0, 64, 87
2, 163082, Note_on_c, 0, 72, 76
2, 163084, Control_c, 0, 64, 84
2, 163085, Note_on_c, 0, 64, 67
2, 163094, Note_on_c, 0, 48, 64
2, 163099, Control_c, 0, 64, 80
2, 163099, Note_on_c, 0, 52, 65
2, 163112, Note_on_c, 0, 64, 0
2, 163114, Control_c, 0, 64, 74
2, 163121, Note_on_c, 0, 60, 0
2, 163129, Control_c, 0, 64, 67
2, 163144, Control_c, 0, 64, 61
2, 163144, Note_on_c, 0, 72, 0
2, 163159, Control_c, 0, 64, 52
2, 163172, Note_on_c, 0, 48, 0
2, 163175, Control_c, 0, 64, 42
2, 163183, Note_on_c, 0, 52, 0
2, 163191, Control_c, 0, 64, 38
2, 163191, Note_on_c, 0, 74, 79
2, 163195, Note_on_c, 0, 65, 74
2, 163206, Control_c, 0, 64, 37
2, 163221, Control_c, 0, 64, 32
2, 163236, Control_c, 0, 64, 19
2, 163239, Note_on_c, 0, 65, 0
2, 163252, Control_c, 0, 64, 0
2, 163265, Note_on_c, 0, 74, 0
2, 163321, Note_on_c, 0, 72, 85
2, 163327, Note_on_c, 0, 54, 77
2, 163328, Note_on_c, 0, 50, 77
2, 163343, Note_on_c, 0, 64, 61
2, 163372, Note_on_c, 0, 64, 0
2, 163383, Note_on_c, 0, 54, 0
2, 163393, Note_on_c, 0, 72, 0
2, 163402, Note_on_c, 0, 50, 0
2, 163593, Note_on_c, 0, 52, 84
2, 163598, Note_on_c, 0, 56, 79
2, 163601, Note_on_c, 0, 62, 80
2, 163605, Note_on_c, 0, 71, 77
2, 163629, Note_on_c, 0, 62, 0
2, 163645, Note_on_c, 0, 52, 0
2, 163654, Note_on_c, 0, 56, 0
2, 163664, Note_on_c, 0, 71, 0
2, 163867, Note_on_c, 0, 69, 78
2, 163869, Note_on_c, 0, 60, 73
2, 163877, Note_on_c, 0, 53, 75
2, 163884, Note_on_c, 0, 57, 63
2, 163932, Note_on_c, 0, 60, 0
2, 163992, Note_on_c, 0, 71, 83
2, 164022, Note_on_c, 0, 69, 0
2, 164121, Note_on_c, 0, 60, 83
2, 164121, Note_on_c, 0, 72, 87
2, 164126, Note_on_c, 0, 71, 0
2, 164215, Note_on_c, 0, 60, 0
2, 164230, Note_on_c, 0, 71, 91
2, 164231, Note_on_c, 0, 62, 83
2, 164242, Note_on_c, 0, 72, 0
2, 164283, Note_on_c, 0, 71, 0
2, 164286, Note_on_c, 0, 62, 0
2, 164357, Note_on_c, 0, 69, 91
2, 164361, Note_on_c, 0, 60, 81
2, 164396, Note_on_c, 0, 60, 0
2, 164401, Note_on_c, 0, 69, 0
2, 164412, Note_on_c, 0, 57, 0
2, 164414, Note_on_c, 0, 53, 0
2, 164622, Note_on_c, 0, 67, 77
2, 164626, Note_on_c, 0, 52, 66
2, 164626, Note_on_c, 0, 58, 69
2, 164637, Note_on_c, 0, 49, 52
2, 164662, Note_on_c, 0, 52, 0
2, 164670, Note_on_c, 0, 67, 0
2, 164673, Note_on_c, 0, 58, 0
2, 164679, Note_on_c, 0, 49, 0
2, 164865, Note_on_c, 0, 77, 81
2, 164883, Note_on_c, 0, 57, 65
2, 164887, Note_on_c, 0, 50, 59
2, 164889, Note_on_c, 0, 53, 51
2, 164915, Note_on_c, 0, 53, 0
2, 164932, Note_on_c, 0, 50, 0
2, 164943, Note_on_c, 0, 77, 0
2, 164972, Note_on_c, 0, 59, 76
2, 164977, Note_on_c, 0, 57, 0
2, 165055, Note_on_c, 0, 59, 0
2, 165104, Note_on_c, 0, 61, 87
2, 165104, Note_on_c, 0, 81, 73
2, 165116, Note_on_c, 0, 52, 63
2, 165125, Note_on_c, 0, 55, 58
2, 165155, Note_on_c, 0, 81, 0
2, 165163, Note_on_c, 0, 61, 0
2, 165174, Note_on_c, 0, 55, 0
2, 165196, Note_on_c, 0, 52, 0
2, 165238, Note_on_c, 0, 59, 72
2, 165279, Note_on_c, 0, 59, 0
2, 165356, Note_on_c, 0, 57, 82
2, 165358, Note_on_c, 0, 53, 75
2, 165401, Note_on_c, 0, 57, 0
2, 165414, Note_on_c, 0, 53, 0
2, 165614, Note_on_c, 0, 76, 79
2, 165615, Note_on_c, 0, 49, 64
2, 165616, Note_on_c, 0, 55, 67
2, 165617, Note_on_c, 0, 58, 71
2, 165668, Note_on_c, 0, 55, 0
2, 165671, Note_on_c, 0, 58, 0
2, 165696, Note_on_c, 0, 49, 0
2, 165700, Note_on_c, 0, 76, 0
2, 165878, Note_on_c, 0, 57, 73
2, 165880, Note_on_c, 0, 50, 80
2, 165893, Note_on_c, 0, 74, 72
2, 165894, Note_on_c, 0, 66, 69
2, 165981, Note_on_c, 0, 66, 0
2, 166000, Note_on_c, 0, 72, 81
2, 166050, Note_on_c, 0, 74, 0
2, 166133, Note_on_c, 0, 76, 75
2, 166136, Note_on_c, 0, 72, 0
2, 166137, Note_on_c, 0, 71, 75
2, 166141, Note_on_c, 0, 56, 79
2, 166178, Note_on_c, 0, 57, 0
2, 166238, Note_on_c, 0, 54, 82
2, 166249, Note_on_c, 0, 74, 89
2, 166257, Note_on_c, 0, 76, 0
2, 166258, Note_on_c, 0, 50, 0
2, 166258, Note_on_c, 0, 56, 0
2, 166259, Note_on_c, 0, 71, 0
2, 166287, Note_on_c, 0, 54, 0
2, 166380, Note_on_c, 0, 72, 90
2, 166382, Note_on_c, 0, 52, 83
2, 166387, Note_on_c, 0, 45, 81
2, 166418, Note_on_c, 0, 74, 0
2, 166438, Note_on_c, 0, 52, 0
2, 166511, Note_on_c, 0, 71, 84
2, 166528, Note_on_c, 0, 72, 0
2, 166662, Note_on_c, 0, 74, 78
2, 166672, Note_on_c, 0, 52, 91
2, 166673, Note_on_c, 0, 64, 68
2, 166688, Note_on_c, 0, 71, 0
2, 166756, Control_c, 0, 64, 43
2, 166772, Control_c, 0, 64, 60
2, 166787, Control_c, 0, 64, 68
2, 166798, Note_on_c, 0, 72, 73
2, 166802, Control_c, 0, 64, 78
2, 166818, Control_c, 0, 64, 106
2, 166819, Note_on_c, 0, 74, 0
2, 166833, Control_c, 0, 64, 127
2, 166849, Note_on_c, 0, 64, 0
2, 166855, Note_on_c, 0, 72, 0
2, 166934, Note_on_c, 0, 53, 86
2, 166939, Control_c, 0, 64, 90
2, 166946, Note_on_c, 0, 52, 0
2, 166949, Note_on_c, 0, 71, 74
2, 166950, Note_on_c, 0, 62, 69
2, 166954, Control_c, 0, 64, 69
2, 166958, Note_on_c, 0, 45, 0
2, 166970, Control_c, 0, 64, 55
2, 166971, Note_on_c, 0, 72, 44
2, 166972, Note_on_c, 0, 72, 0
2, 166985, Control_c, 0, 64, 24
2, 166987, Note_on_c, 0, 53, 0
2, 166999, Control_c, 0, 64, 0
2, 167043, Note_on_c, 0, 62, 0
2, 167068, Note_on_c, 0, 60, 82
2, 167150, Note_on_c, 0, 60, 0
2, 167201, Note_on_c, 0, 64, 71
2, 167212, Note_on_c, 0, 52, 73
2, 167215, Note_on_c, 0, 44, 71
2, 167323, Note_on_c, 0, 64, 0
2, 167328, Control_c, 0, 64, 28
2, 167329, Note_on_c, 0, 62, 72
2, 167343, Control_c, 0, 64, 47
2, 167357, Control_c, 0, 64, 54
2, 167373, Control_c, 0, 64, 58
2, 167388, Control_c, 0, 64, 58
2, 167432, Note_on_c, 0, 44, 0
2, 167451, Note_on_c, 0, 62, 0
2, 167461, Note_on_c, 0, 60, 77
2, 167472, Note_on_c, 0, 45, 82
2, 167479, Control_c, 0, 64, 58
2, 167509, Control_c, 0, 64, 57
2, 167511, Note_on_c, 0, 60, 0
2, 167525, Control_c, 0, 64, 56
2, 167549, Note_on_c, 0, 52, 0
2, 167555, Control_c, 0, 64, 56
2, 167559, Note_on_c, 0, 71, 0
2, 167570, Control_c, 0, 64, 55
2, 167579, Note_on_c, 0, 59, 79
2, 167585, Control_c, 0, 64, 54
2, 167600, Control_c, 0, 64, 52
2, 167616, Control_c, 0, 64, 51
2, 167631, Control_c, 0, 64, 50
2, 167636, Note_on_c, 0, 59, 0
2, 167647, Control_c, 0, 64, 48
2, 167661, Control_c, 0, 64, 40
2, 167676, Control_c, 0, 64, 20
2, 167692, Control_c, 0, 64, 0
2, 167710, Note_on_c, 0, 53, 78
2, 167710, Note_on_c, 0, 69, 83
2, 167711, Note_on_c, 0, 62, 74
2, 167758, Note_on_c, 0, 62, 0
2, 167823, Note_on_c, 0, 51, 80
2, 167823, Note_on_c, 0, 60, 70
2, 167841, Note_on_c, 0, 53, 0
2, 167843, Control_c, 0, 64, 29
2, 167843, Note_on_c, 0, 45, 0
2, 167859, Control_c, 0, 64, 47
2, 167861, Note_on_c, 0, 51, 0
2, 167866, Note_on_c, 0, 60, 0
2, 167874, Control_c, 0, 64, 55
2, 167889, Control_c, 0, 64, 57
2, 167904, Control_c, 0, 64, 57
2, 167919, Control_c, 0, 64, 56
2, 167935, Control_c, 0, 64, 55
2, 167958, Control_c, 0, 64, 54
2, 167971, Note_on_c, 0, 59, 75
2, 167974, Control_c, 0, 64, 52
2, 167984, Note_on_c, 0, 52, 80
2, 167988, Control_c, 0, 64, 46
2, 167994, Note_on_c, 0, 40, 72
2, 168003, Control_c, 0, 64, 40
2, 168019, Control_c, 0, 64, 36
2, 168034, Control_c, 0, 64, 32
2, 168049, Control_c, 0, 64, 24
2, 168064, Control_c, 0, 64, 0
2, 168091, Note_on_c, 0, 59, 0
2, 168110, Note_on_c, 0, 71, 79
2, 168151, Note_on_c, 0, 69, 0
2, 168239, Note_on_c, 0, 68, 81
2, 168250, Note_on_c, 0, 60, 72
2, 168263, Note_on_c, 0, 71, 0
2, 168313, Note_on_c, 0, 60, 0
2, 168361, Note_on_c, 0, 69, 81
2, 168374, Note_on_c, 0, 68, 0
2, 168442, Note_on_c, 0, 69, 0
2, 168508, Note_on_c, 0, 71, 84
2, 168519, Note_on_c, 0, 62, 67
2, 168633, Note_on_c, 0, 62, 0
2, 168639, Note_on_c, 0, 60, 73
2, 168775, Note_on_c, 0, 64, 79
2, 168808, Note_on_c, 0, 60, 0
2, 168817, Control_c, 0, 64, 44
2, 168832, Control_c, 0, 64, 58
2, 168848, Control_c, 0, 64, 64
2, 168863, Control_c, 0, 64, 68
2, 168874, Note_on_c, 0, 64, 0
2, 168878, Control_c, 0, 64, 72
2, 168881, Note_on_c, 0, 62, 80
2, 168894, Control_c, 0, 64, 75
2, 168909, Control_c, 0, 64, 77
2, 168925, Control_c, 0, 64, 77
2, 168930, Note_on_c, 0, 40, 0
2, 168940, Control_c, 0, 64, 77
2, 168940, Note_on_c, 0, 62, 0
2, 168955, Control_c, 0, 64, 76
2, 168970, Control_c, 0, 64, 73
2, 168981, Note_on_c, 0, 71, 0
2, 168985, Control_c, 0, 64, 71
2, 169000, Control_c, 0, 64, 67
2, 169010, Note_on_c, 0, 60, 80
2, 169016, Control_c, 0, 64, 61
2, 169031, Control_c, 0, 64, 49
2, 169042, Note_on_c, 0, 40, 80
2, 169047, Control_c, 0, 64, 32
2, 169062, Control_c, 0, 64, 25
2, 169077, Control_c, 0, 64, 24
2, 169093, Control_c, 0, 64, 15
2, 169107, Control_c, 0, 64, 0
2, 169145, Note_on_c, 0, 72, 88
2, 169172, Note_on_c, 0, 60, 0
2, 169272, Note_on_c, 0, 69, 83
2, 169276, Note_on_c, 0, 62, 80
2, 169293, Note_on_c, 0, 72, 0
2, 169335, Control_c, 0, 64, 28
2, 169350, Control_c, 0, 64, 51
2, 169359, Note_on_c, 0, 62, 0
2, 169366, Control_c, 0, 64, 61
2, 169380, Control_c, 0, 64, 66
2, 169383, Note_on_c, 0, 71, 91
2, 169384, Note_on_c, 0, 69, 0
2, 169395, Control_c, 0, 64, 70
2, 169411, Control_c, 0, 64, 75
2, 169426, Control_c, 0, 64, 78
2, 169441, Control_c, 0, 64, 79
2, 169455, Note_on_c, 0, 52, 0
2, 169456, Control_c, 0, 64, 80
2, 169471, Control_c, 0, 64, 79
2, 169495, Control_c, 0, 64, 77
2, 169510, Control_c, 0, 64, 75
2, 169526, Control_c, 0, 64, 71
2, 169540, Control_c, 0, 64, 65
2, 169555, Control_c, 0, 64, 57
2, 169568, Note_on_c, 0, 72, 89
2, 169571, Control_c, 0, 64, 40
2, 169579, Note_on_c, 0, 64, 75
2, 169584, Note_on_c, 0, 52, 64
2, 169585, Control_c, 0, 64, 13
2, 169600, Control_c, 0, 64, 0
2, 169651, Note_on_c, 0, 71, 0
2, 169713, Note_on_c, 0, 62, 80
2, 169716, Note_on_c, 0, 64, 0
2, 169835, Note_on_c, 0, 65, 82
2, 169865, Note_on_c, 0, 62, 0
2, 169935, Control_c, 0, 64, 30
2, 169936, Note_on_c, 0, 64, 83
2, 169943, Note_on_c, 0, 65, 0
2, 169950, Control_c, 0, 64, 54
2, 169965, Control_c, 0, 64, 63
2, 169980, Control_c, 0, 64, 67
2, 169991, Note_on_c, 0, 40, 0
2, 169995, Control_c, 0, 64, 75
2, 170007, Note_on_c, 0, 64, 0
2, 170011, Control_c, 0, 64, 82
2, 170025, Control_c, 0, 64, 89
2, 170040, Control_c, 0, 64, 89
2, 170047, Note_on_c, 0, 72, 0
2, 170056, Control_c, 0, 64, 85
2, 170070, Note_on_c, 0, 62, 84
2, 170071, Control_c, 0, 64, 77
2, 170087, Control_c, 0, 64, 67
2, 170096, Note_on_c, 0, 40, 84
2, 170101, Control_c, 0, 64, 56
2, 170116, Control_c, 0, 64, 32
2, 170132, Control_c, 0, 64, 0
2, 170200, Note_on_c, 0, 74, 89
2, 170225, Note_on_c, 0, 62, 0
2, 170330, Note_on_c, 0, 71, 88
2, 170338, Note_on_c, 0, 64, 83
2, 170347, Note_on_c, 0, 74, 0
2, 170450, Note_on_c, 0, 72, 93
2, 170459, Control_c, 0, 64, 22
2, 170468, Note_on_c, 0, 71, 0
2, 170474, Control_c, 0, 64, 50
2, 170490, Control_c, 0, 64, 58
2, 170504, Control_c, 0, 64, 61
2, 170518, Note_on_c, 0, 64, 0
2, 170519, Control_c, 0, 64, 62
2, 170534, Note_on_c, 0, 52, 0
2, 170581, Control_c, 0, 64, 61
2, 170612, Control_c, 0, 64, 61
2, 170636, Note_on_c, 0, 74, 84
2, 170642, Control_c, 0, 64, 60
2, 170646, Note_on_c, 0, 65, 73
2, 170657, Control_c, 0, 64, 59
2, 170664, Note_on_c, 0, 52, 65
2, 170672, Control_c, 0, 64, 57
2, 170688, Control_c, 0, 64, 52
2, 170689, Note_on_c, 0, 72, 0
2, 170703, Control_c, 0, 64, 46
2, 170718, Control_c, 0, 64, 39
2, 170733, Control_c, 0, 64, 31
2, 170748, Control_c, 0, 64, 23
2, 170763, Control_c, 0, 64, 0
2, 170801, Note_on_c, 0, 72, 83
2, 170821, Note_on_c, 0, 74, 0
2, 170923, Note_on_c, 0, 71, 81
2, 170957, Note_on_c, 0, 72, 0
2, 171042, Note_on_c, 0, 71, 0
2, 171045, Control_c, 0, 64, 20
2, 171046, Note_on_c, 0, 69, 74
2, 171060, Control_c, 0, 64, 44
2, 171074, Control_c, 0, 64, 56
2, 171082, Note_on_c, 0, 69, 0
2, 171090, Control_c, 0, 64, 61
2, 171105, Control_c, 0, 64, 64
2, 171120, Control_c, 0, 64, 66
2, 171136, Control_c, 0, 64, 67
2, 171138, Note_on_c, 0, 40, 0
2, 171150, Control_c, 0, 64, 67
2, 171169, Note_on_c, 0, 65, 0
2, 171175, Note_on_c, 0, 68, 75
2, 171196, Control_c, 0, 64, 67
2, 171212, Control_c, 0, 64, 66
2, 171226, Control_c, 0, 64, 66
2, 171257, Control_c, 0, 64, 65
2, 171275, Note_on_c, 0, 71, 77
2, 171288, Control_c, 0, 64, 65
2, 171292, Note_on_c, 0, 68, 0
2, 171303, Control_c, 0, 64, 64
2, 171306, Note_on_c, 0, 52, 0
2, 171318, Control_c, 0, 64, 63
2, 171334, Control_c, 0, 64, 61
2, 171348, Control_c, 0, 64, 60
2, 171363, Control_c, 0, 64, 58
2, 171379, Control_c, 0, 64, 55
2, 171394, Control_c, 0, 64, 51
2, 171396, Note_on_c, 0, 71, 0
2, 171399, Note_on_c, 0, 72, 75
2, 171409, Note_on_c, 0, 52, 78
2, 171410, Control_c, 0, 64, 45
2, 171418, Note_on_c, 0, 64, 64
2, 171425, Control_c, 0, 64, 38
2, 171440, Control_c, 0, 64, 28
2, 171456, Control_c, 0, 64, 0
2, 171489, Note_on_c, 0, 64, 0
2, 171519, Note_on_c, 0, 53, 74
2, 171519, Note_on_c, 0, 74, 81
2, 171543, Note_on_c, 0, 72, 0
2, 171544, Note_on_c, 0, 52, 0
2, 171569, Note_on_c, 0, 74, 0
2, 171623, Note_on_c, 0, 53, 0
2, 171646, Note_on_c, 0, 52, 80
2, 171649, Note_on_c, 0, 76, 82
2, 171705, Note_on_c, 0, 52, 0
2, 171759, Note_on_c, 0, 76, 0
2, 171766, Note_on_c, 0, 77, 81
2, 171898, Note_on_c, 0, 77, 0
2, 171906, Note_on_c, 0, 79, 79
2, 171912, Note_on_c, 0, 50, 61
2, 171943, Note_on_c, 0, 50, 0
2, 172018, Note_on_c, 0, 70, 69
2, 172070, Note_on_c, 0, 70, 0
2, 172135, Note_on_c, 0, 79, 0
2, 172150, Note_on_c, 0, 69, 73
2, 172158, Note_on_c, 0, 49, 65
2, 172193, Control_c, 0, 64, 35
2, 172209, Control_c, 0, 64, 53
2, 172223, Control_c, 0, 64, 61
2, 172238, Control_c, 0, 64, 65
2, 172254, Control_c, 0, 64, 68
2, 172260, Note_on_c, 0, 49, 0
2, 172269, Control_c, 0, 64, 71
2, 172282, Note_on_c, 0, 81, 74
2, 172285, Control_c, 0, 64, 75
2, 172299, Control_c, 0, 64, 79
2, 172314, Control_c, 0, 64, 83
2, 172330, Control_c, 0, 64, 87
2, 172345, Control_c, 0, 64, 89
2, 172376, Control_c, 0, 64, 87
2, 172391, Control_c, 0, 64, 85
2, 172403, Note_on_c, 0, 79, 84
2, 172407, Control_c, 0, 64, 82
2, 172407, Note_on_c, 0, 81, 0
2, 172410, Note_on_c, 0, 52, 70
2, 172413, Note_on_c, 0, 49, 65
2, 172421, Control_c, 0, 64, 78
2, 172436, Control_c, 0, 64, 73
2, 172452, Control_c, 0, 64, 67
2, 172467, Control_c, 0, 64, 61
2, 172481, Control_c, 0, 64, 49
2, 172497, Control_c, 0, 64, 40
2, 172512, Control_c, 0, 64, 34
2, 172520, Note_on_c, 0, 53, 78
2, 172520, Note_on_c, 0, 77, 87
2, 172528, Control_c, 0, 64, 30
2, 172538, Note_on_c, 0, 50, 65
2, 172543, Control_c, 0, 64, 21
2, 172566, Control_c, 0, 64, 0
2, 172566, Note_on_c, 0, 79, 0
2, 172569, Note_on_c, 0, 49, 0
2, 172571, Note_on_c, 0, 52, 0
2, 172593, Note_on_c, 0, 50, 0
2, 172623, Note_on_c, 0, 53, 0
2, 172647, Note_on_c, 0, 79, 90
2, 172650, Note_on_c, 0, 52, 78
2, 172650, Note_on_c, 0, 77, 0
2, 172653, Note_on_c, 0, 49, 80
2, 172718, Note_on_c, 0, 52, 0
2, 172723, Note_on_c, 0, 49, 0
2, 172738, Note_on_c, 0, 69, 0
2, 172757, Note_on_c, 0, 73, 80
2, 172888, Note_on_c, 0, 76, 81
2, 172896, Note_on_c, 0, 50, 77
2, 172903, Note_on_c, 0, 47, 76
2, 172903, Note_on_c, 0, 73, 0
2, 172932, Note_on_c, 0, 50, 0
2, 172957, Note_on_c, 0, 47, 0
2, 173009, Note_on_c, 0, 74, 84
2, 173027, Note_on_c, 0, 76, 0
2, 173151, Note_on_c, 0, 49, 66
2, 173153, Note_on_c, 0, 45, 70
2, 173156, Control_c, 0, 64, 23
2, 173156, Note_on_c, 0, 76, 83
2, 173172, Control_c, 0, 64, 32
2, 173185, Note_on_c, 0, 79, 0
2, 173187, Control_c, 0, 64, 35
2, 173195, Note_on_c, 0, 74, 0
2, 173202, Control_c, 0, 64, 35
2, 173248, Control_c, 0, 64, 36
2, 173255, Note_on_c, 0, 47, 75
2, 173275, Note_on_c, 0, 77, 93
2, 173284, Note_on_c, 0, 49, 0
2, 173289, Note_on_c, 0, 76, 0
2, 173294, Control_c, 0, 64, 36
2, 173305, Note_on_c, 0, 45, 0
2, 173396, Note_on_c, 0, 49, 86
2, 173399, Note_on_c, 0, 76, 92
2, 173429, Note_on_c, 0, 47, 0
2, 173431, Note_on_c, 0, 77, 0
2, 173453, Control_c, 0, 64, 36
2, 173468, Control_c, 0, 64, 35
2, 173483, Control_c, 0, 64, 33
2, 173501, Note_on_c, 0, 76, 0
2, 173505, Note_on_c, 0, 77, 92
2, 173513, Note_on_c, 0, 47, 79
2, 173514, Control_c, 0, 64, 33
2, 173515, Note_on_c, 0, 50, 76
2, 173527, Note_on_c, 0, 49, 0
2, 173528, Control_c, 0, 64, 30
2, 173544, Control_c, 0, 64, 24
2, 173559, Control_c, 0, 64, 0
2, 173639, Note_on_c, 0, 49, 74
2, 173646, Note_on_c, 0, 45, 78
2, 173649, Note_on_c, 0, 79, 87
2, 173657, Note_on_c, 0, 50, 0
2, 173660, Note_on_c, 0, 47, 0
2, 173694, Note_on_c, 0, 49, 0
2, 173702, Note_on_c, 0, 77, 0
2, 173709, Note_on_c, 0, 45, 0
2, 173780, Note_on_c, 0, 69, 79
2, 173908, Note_on_c, 0, 46, 73
2, 173910, Note_on_c, 0, 73, 87
2, 173911, Note_on_c, 0, 43, 69
2, 173917, Note_on_c, 0, 69, 0
2, 173960, Note_on_c, 0, 43, 0
2, 173970, Note_on_c, 0, 46, 0
2, 174028, Note_on_c, 0, 74, 84
2, 174054, Note_on_c, 0, 73, 0
2, 174159, Note_on_c, 0, 74, 0
2, 174175, Note_on_c, 0, 79, 0
2, 174180, Note_on_c, 0, 76, 84
2, 174185, Note_on_c, 0, 45, 80
2, 174189, Note_on_c, 0, 41, 73
2, 174205, Control_c, 0, 64, 28
2, 174221, Control_c, 0, 64, 51
2, 174227, Note_on_c, 0, 76, 0
2, 174236, Control_c, 0, 64, 61
2, 174250, Control_c, 0, 64, 65
2, 174266, Control_c, 0, 64, 69
2, 174281, Control_c, 0, 64, 73
2, 174297, Control_c, 0, 64, 75
2, 174312, Control_c, 0, 64, 74
2, 174315, Note_on_c, 0, 82, 85
2, 174317, Note_on_c, 0, 73, 85
2, 174327, Control_c, 0, 64, 73
2, 174343, Control_c, 0, 64, 71
2, 174358, Control_c, 0, 64, 68
2, 174370, Note_on_c, 0, 73, 0
2, 174373, Control_c, 0, 64, 64
2, 174385, Note_on_c, 0, 82, 0
2, 174388, Control_c, 0, 64, 57
2, 174403, Control_c, 0, 64, 46
2, 174419, Control_c, 0, 64, 34
2, 174434, Control_c, 0, 64, 25
2, 174445, Note_on_c, 0, 81, 86
2, 174448, Control_c, 0, 64, 21
2, 174456, Note_on_c, 0, 74, 76
2, 174464, Control_c, 0, 64, 11
2, 174479, Control_c, 0, 64, 0
2, 174564, Note_on_c, 0, 79, 86
2, 174596, Note_on_c, 0, 81, 0
2, 174621, Note_on_c, 0, 74, 0
2, 174638, Note_on_c, 0, 41, 0
2, 174662, Note_on_c, 0, 45, 0
2, 174685, Note_on_c, 0, 79, 0
2, 174690, Note_on_c, 0, 77, 88
2, 174693, Control_c, 0, 64, 28
2, 174708, Control_c, 0, 64, 52
2, 174723, Control_c, 0, 64, 61
2, 174739, Control_c, 0, 64, 62
2, 174753, Control_c, 0, 64, 62
2, 174784, Control_c, 0, 64, 61
2, 174792, Note_on_c, 0, 77, 0
2, 174810, Note_on_c, 0, 76, 80
2, 174859, Note_on_c, 0, 76, 0
2, 174883, Control_c, 0, 64, 61
2, 174913, Control_c, 0, 64, 60
2, 174928, Note_on_c, 0, 65, 77
2, 174943, Note_on_c, 0, 53, 62
2, 174946, Note_on_c, 0, 69, 73
2, 174949, Note_on_c, 0, 74, 73
2, 174956, Note_on_c, 0, 65, 0
2, 174958, Control_c, 0, 64, 60
2, 174974, Control_c, 0, 64, 59
2, 174980, Note_on_c, 0, 69, 0
2, 174989, Control_c, 0, 64, 58
2, 175004, Control_c, 0, 64, 57
2, 175019, Control_c, 0, 64, 56
2, 175034, Control_c, 0, 64, 55
2, 175046, Note_on_c, 0, 64, 80
2, 175049, Control_c, 0, 64, 55
2, 175052, Note_on_c, 0, 73, 77
2, 175058, Note_on_c, 0, 67, 70
2, 175067, Note_on_c, 0, 74, 0
2, 175080, Control_c, 0, 64, 54
2, 175087, Note_on_c, 0, 64, 0
2, 175088, Note_on_c, 0, 67, 0
2, 175109, Note_on_c, 0, 73, 0
2, 175110, Control_c, 0, 64, 54
2, 175125, Control_c, 0, 64, 53
2, 175156, Control_c, 0, 64, 52
2, 175164, Note_on_c, 0, 53, 0
2, 175165, Note_on_c, 0, 62, 78
2, 175168, Note_on_c, 0, 58, 72
2, 175172, Control_c, 0, 64, 50
2, 175172, Note_on_c, 0, 74, 92
2, 175179, Note_on_c, 0, 65, 79
2, 175186, Control_c, 0, 64, 48
2, 175201, Control_c, 0, 64, 47
2, 175232, Control_c, 0, 64, 47
2, 175232, Note_on_c, 0, 74, 0
2, 175278, Control_c, 0, 64, 46
2, 175293, Control_c, 0, 64, 45
2, 175294, Note_on_c, 0, 76, 80
2, 175308, Control_c, 0, 64, 44
2, 175323, Control_c, 0, 64, 44
2, 175353, Control_c, 0, 64, 42
2, 175368, Control_c, 0, 64, 39
2, 175384, Control_c, 0, 64, 32
2, 175399, Control_c, 0, 64, 16
2, 175402, Note_on_c, 0, 70, 76
2, 175404, Note_on_c, 0, 76, 0
2, 175413, Note_on_c, 0, 55, 77
2, 175413, Note_on_c, 0, 74, 83
2, 175414, Control_c, 0, 64, 0
2, 175415, Note_on_c, 0, 58, 0
2, 175430, Note_on_c, 0, 65, 0
2, 175461, Note_on_c, 0, 70, 0
2, 175520, Note_on_c, 0, 76, 82
2, 175532, Note_on_c, 0, 74, 0
2, 175565, Note_on_c, 0, 76, 0
2, 175659, Note_on_c, 0, 55, 0
2, 175661, Note_on_c, 0, 77, 91
2, 175666, Note_on_c, 0, 57, 69
2, 175669, Note_on_c, 0, 62, 0
2, 175675, Note_on_c, 0, 69, 72
2, 175697, Control_c, 0, 64, 24
2, 175712, Control_c, 0, 64, 32
2, 175727, Control_c, 0, 64, 35
2, 175727, Note_on_c, 0, 76, 68
2, 175730, Note_on_c, 0, 77, 0
2, 175742, Control_c, 0, 64, 38
2, 175757, Control_c, 0, 64, 38
2, 175776, Note_on_c, 0, 69, 0
2, 175784, Note_on_c, 0, 76, 0
2, 175785, Note_on_c, 0, 77, 69
2, 175863, Control_c, 0, 64, 38
2, 175871, Note_on_c, 0, 67, 72
2, 175878, Control_c, 0, 64, 37
2, 175889, Note_on_c, 0, 76, 79
2, 175894, Control_c, 0, 64, 36
2, 175901, Note_on_c, 0, 77, 0
2, 175909, Control_c, 0, 64, 35
2, 175913, Note_on_c, 0, 61, 77
2, 175924, Control_c, 0, 64, 30
2, 175932, Note_on_c, 0, 57, 0
2, 175939, Control_c, 0, 64, 0
2, 175960, Note_on_c, 0, 61, 0
2, 176026, Note_on_c, 0, 74, 88
2, 176031, Note_on_c, 0, 76, 0
2, 176100, Note_on_c, 0, 74, 0
2, 176196, Note_on_c, 0, 74, 83
2, 176206, Note_on_c, 0, 62, 67
2, 176222, Note_on_c, 0, 50, 58
2, 176259, Control_c, 0, 64, 24
2, 176274, Control_c, 0, 64, 50
2, 176274, Note_on_c, 0, 67, 0
2, 176284, Note_on_c, 0, 62, 0
2, 176290, Control_c, 0, 64, 61
2, 176305, Control_c, 0, 64, 66
2, 176320, Control_c, 0, 64, 71
2, 176336, Control_c, 0, 64, 78
2, 176351, Control_c, 0, 64, 85
2, 176366, Control_c, 0, 64, 91
2, 176366, Note_on_c, 0, 50, 0
2, 176382, Control_c, 0, 64, 96
2, 176404, Control_c, 0, 64, 99
2, 176449, Control_c, 0, 64, 95
2, 176465, Control_c, 0, 64, 89
2, 176479, Note_on_c, 0, 57, 70
2, 176480, Control_c, 0, 64, 78
2, 176485, Note_on_c, 0, 65, 77
2, 176496, Control_c, 0, 64, 65
2, 176496, Note_on_c, 0, 50, 47
2, 176510, Control_c, 0, 64, 51
2, 176523, Note_on_c, 0, 50, 0
2, 176525, Control_c, 0, 64, 0
2, 176591, Note_on_c, 0, 65, 0
2, 176593, Note_on_c, 0, 64, 78
2, 176601, Note_on_c, 0, 49, 71
2, 176635, Note_on_c, 0, 49, 0
2, 176663, Note_on_c, 0, 64, 0
2, 176718, Note_on_c, 0, 50, 92
2, 176722, Note_on_c, 0, 65, 84
2, 176777, Note_on_c, 0, 50, 0
2, 176791, Note_on_c, 0, 65, 0
2, 176848, Note_on_c, 0, 67, 82
2, 176920, Note_on_c, 0, 67, 0
2, 176981, Note_on_c, 0, 52, 89
2, 176981, Note_on_c, 0, 69, 85
2, 177027, Note_on_c, 0, 52, 0
2, 177089, Note_on_c, 0, 69, 0
2, 177102, Note_on_c, 0, 65, 79
2, 177152, Note_on_c, 0, 74, 0
2, 177167, Note_on_c, 0, 65, 0
2, 177247, Control_c, 0, 64, 25
2, 177252, Note_on_c, 0, 62, 77
2, 177257, Note_on_c, 0, 53, 95
2, 177262, Control_c, 0, 64, 56
2, 177269, Note_on_c, 0, 57, 0
2, 177277, Control_c, 0, 64, 65
2, 177293, Control_c, 0, 64, 71
2, 177300, Note_on_c, 0, 53, 0
2, 177308, Control_c, 0, 64, 83
2, 177308, Note_on_c, 0, 62, 0
2, 177323, Control_c, 0, 64, 109
2, 177339, Control_c, 0, 64, 127
2, 177513, Note_on_c, 0, 53, 82
2, 177513, Note_on_c, 0, 57, 85
2, 177521, Control_c, 0, 64, 109
2, 177537, Control_c, 0, 64, 76
2, 177551, Control_c, 0, 64, 61
2, 177566, Control_c, 0, 64, 0
2, 177587, Note_on_c, 0, 53, 0
2, 177587, Note_on_c, 0, 57, 0
2, 177619, Note_on_c, 0, 52, 85
2, 177620, Note_on_c, 0, 56, 92
2, 177659, Note_on_c, 0, 52, 0
2, 177687, Note_on_c, 0, 56, 0
2, 177740, Note_on_c, 0, 54, 101
2, 177750, Note_on_c, 0, 57, 90
2, 177786, Note_on_c, 0, 54, 0
2, 177801, Note_on_c, 0, 57, 0
2, 178013, Note_on_c, 0, 56, 94
2, 178016, Note_on_c, 0, 59, 90
2, 178059, Note_on_c, 0, 59, 0
2, 178063, Note_on_c, 0, 56, 0
2, 178271, Note_on_c, 0, 57, 81
2, 178271, Note_on_c, 0, 60, 77
2, 178307, Note_on_c, 0, 62, 87
2, 178314, Note_on_c, 0, 60, 0
2, 178329, Note_on_c, 0, 62, 0
2, 178358, Note_on_c, 0, 60, 78
2, 178376, Note_on_c, 0, 56, 79
2, 178382, Note_on_c, 0, 57, 0
2, 178486, Note_on_c, 0, 60, 0
2, 178535, Note_on_c, 0, 54, 77
2, 178548, Note_on_c, 0, 56, 0
2, 178548, Note_on_c, 0, 60, 79
2, 178615, Note_on_c, 0, 60, 0
2, 178652, Note_on_c, 0, 56, 85
2, 178656, Note_on_c, 0, 59, 89
2, 178662, Note_on_c, 0, 54, 0
2, 178714, Note_on_c, 0, 59, 0
2, 178728, Note_on_c, 0, 56, 0
2, 178794, Note_on_c, 0, 60, 94
2, 178798, Note_on_c, 0, 57, 90
2, 178850, Note_on_c, 0, 57, 0
2, 178853, Note_on_c, 0, 60, 0
2, 179044, Note_on_c, 0, 62, 82
2, 179048, Note_on_c, 0, 59, 79
2, 179097, Note_on_c, 0, 62, 0
2, 179112, Note_on_c, 0, 59, 0
2, 179212, Note_on_c, 0, 64, 73
2, 179256, Note_on_c, 0, 64, 0
2, 179256, Note_on_c, 0, 65, 84
2, 179277, Note_on_c, 0, 65, 0
2, 179288, Note_on_c, 0, 48, 80
2, 179299, Note_on_c, 0, 64, 77
2, 179339, Note_on_c, 0, 48, 0
2, 179405, Note_on_c, 0, 64, 0
2, 179428, Note_on_c, 0, 62, 80
2, 179497, Note_on_c, 0, 62, 0
2, 179563, Note_on_c, 0, 45, 71
2, 179563, Note_on_c, 0, 60, 81
2, 179632, Note_on_c, 0, 60, 0
2, 179660, Note_on_c, 0, 45, 0
2, 179668, Note_on_c, 0, 62, 76
2, 179723, Note_on_c, 0, 62, 0
2, 179809, Note_on_c, 0, 64, 82
2, 179853, Note_on_c, 0, 64, 0
2, 180060, Note_on_c, 0, 50, 68
2, 180063, Note_on_c, 0, 65, 76
2, 180097, Note_on_c, 0, 65, 0
2, 180111, Note_on_c, 0, 50, 0
2, 180322, Note_on_c, 0, 56, 78
2, 180325, Note_on_c, 0, 52, 69
2, 180384, Note_on_c, 0, 56, 0
2, 180436, Note_on_c, 0, 52, 0
2, 180437, Note_on_c, 0, 53, 71
2, 180551, Note_on_c, 0, 53, 0
2, 180561, Note_on_c, 0, 52, 75
2, 180573, Note_on_c, 0, 50, 68
2, 180610, Note_on_c, 0, 52, 0
2, 180683, Note_on_c, 0, 52, 74
2, 180696, Note_on_c, 0, 50, 0
2, 180805, Note_on_c, 0, 52, 0
2, 180825, Note_on_c, 0, 53, 82
2, 180934, Note_on_c, 0, 55, 78
2, 180959, Note_on_c, 0, 53, 0
2, 181067, Note_on_c, 0, 57, 83
2, 181075, Note_on_c, 0, 52, 72
2, 181096, Note_on_c, 0, 55, 0
2, 181111, Note_on_c, 0, 57, 0
2, 181179, Note_on_c, 0, 54, 80
2, 181212, Note_on_c, 0, 52, 0
2, 181322, Note_on_c, 0, 54, 0
2, 181324, Note_on_c, 0, 59, 77
2, 181326, Note_on_c, 0, 55, 80
2, 181381, Note_on_c, 0, 55, 0
2, 181433, Note_on_c, 0, 60, 72
2, 181435, Note_on_c, 0, 59, 0
2, 181579, Note_on_c, 0, 57, 67
2, 181588, Note_on_c, 0, 53, 62
2, 181609, Note_on_c, 0, 60, 0
2, 181647, Note_on_c, 0, 53, 0
2, 181683, Note_on_c, 0, 57, 0
2, 181690, Note_on_c, 0, 59, 61
2, 181823, Note_on_c, 0, 59, 0
2, 181832, Note_on_c, 0, 60, 63
2, 181837, Note_on_c, 0, 52, 58
2, 181883, Note_on_c, 0, 52, 0
2, 181950, Note_on_c, 0, 60, 0
2, 181957, Note_on_c, 0, 62, 58
2, 182062, Note_on_c, 0, 62, 0
2, 182094, Note_on_c, 0, 59, 57
2, 182096, Note_on_c, 0, 57, 58
2, 182144, Note_on_c, 0, 57, 0
2, 182183, Note_on_c, 0, 59, 0
2, 182221, Note_on_c, 0, 61, 47
2, 182262, Note_on_c, 0, 61, 0
2, 182371, Note_on_c, 0, 62, 57
2, 182373, Note_on_c, 0, 50, 52
2, 182403, Control_c, 0, 64, 26
2, 182419, Control_c, 0, 64, 52
2, 182434, Control_c, 0, 64, 61
2, 182449, Note_on_c, 0, 50, 0
2, 182450, Control_c, 0, 64, 65
2, 182465, Control_c, 0, 64, 69
2, 182480, Control_c, 0, 64, 75
2, 182488, Note_on_c, 0, 62, 0
2, 182496, Control_c, 0, 64, 83
2, 182511, Control_c, 0, 64, 94
2, 182527, Control_c, 0, 64, 107
2, 182548, Control_c, 0, 64, 127
2, 182593, Control_c, 0, 64, 119
2, 182609, Control_c, 0, 64, 108
2, 182624, Control_c, 0, 64, 100
2, 182639, Control_c, 0, 64, 91
2, 182655, Control_c, 0, 64, 80
2, 182655, Note_on_c, 0, 76, 66
2, 182668, Note_on_c, 0, 57, 47
2, 182670, Control_c, 0, 64, 70
2, 182675, Note_on_c, 0, 60, 50
2, 182686, Control_c, 0, 64, 61
2, 182701, Control_c, 0, 64, 41
2, 182715, Control_c, 0, 64, 22
2, 182731, Control_c, 0, 64, 19
2, 182746, Control_c, 0, 64, 17
2, 182761, Control_c, 0, 64, 0
2, 182776, Note_on_c, 0, 76, 0
2, 182777, Note_on_c, 0, 77, 72
2, 182826, Note_on_c, 0, 77, 0
2, 182849, Note_on_c, 0, 60, 0
2, 182902, Note_on_c, 0, 59, 55
2, 182902, Note_on_c, 0, 76, 73
2, 182938, Note_on_c, 0, 76, 0
2, 183003, Note_on_c, 0, 59, 0
2, 183011, Note_on_c, 0, 57, 0
2, 183019, Note_on_c, 0, 56, 58
2, 183144, Note_on_c, 0, 64, 54
2, 183145, Note_on_c, 0, 74, 73
2, 183150, Note_on_c, 0, 57, 46
2, 183151, Note_on_c, 0, 56, 0
2, 183174, Note_on_c, 0, 74, 0
2, 183210, Note_on_c, 0, 64, 0
2, 183282, Note_on_c, 0, 56, 58
2, 183285, Note_on_c, 0, 57, 0
2, 183401, Note_on_c, 0, 56, 0
2, 183407, Note_on_c, 0, 72, 73
2, 183419, Note_on_c, 0, 57, 59
2, 183437, Note_on_c, 0, 72, 0
2, 183443, Note_on_c, 0, 74, 76
2, 183477, Note_on_c, 0, 74, 0
2, 183510, Note_on_c, 0, 72, 75
2, 183589, Control_c, 0, 64, 11
2, 183605, Control_c, 0, 64, 44
2, 183619, Note_on_c, 0, 72, 0
2, 183620, Control_c, 0, 64, 58
2, 183635, Control_c, 0, 64, 64
2, 183650, Control_c, 0, 64, 67
2, 183666, Control_c, 0, 64, 69
2, 183681, Control_c, 0, 64, 70
2, 183697, Control_c, 0, 64, 69
2, 183702, Note_on_c, 0, 69, 61
2, 183704, Note_on_c, 0, 72, 66
2, 183712, Control_c, 0, 64, 69
2, 183728, Control_c, 0, 64, 68
2, 183743, Control_c, 0, 64, 67
2, 183745, Note_on_c, 0, 69, 0
2, 183758, Control_c, 0, 64, 64
2, 183774, Control_c, 0, 64, 61
2, 183780, Note_on_c, 0, 72, 0
2, 183789, Control_c, 0, 64, 53
2, 183805, Control_c, 0, 64, 38
2, 183812, Note_on_c, 0, 74, 68
2, 183817, Note_on_c, 0, 71, 69
2, 183819, Control_c, 0, 64, 0
2, 183853, Note_on_c, 0, 71, 0
2, 183874, Note_on_c, 0, 74, 0
2, 183931, Note_on_c, 0, 72, 78
2, 183944, Note_on_c, 0, 69, 65
2, 183972, Note_on_c, 0, 69, 0
2, 183977, Note_on_c, 0, 72, 0
2, 184046, Note_on_c, 0, 55, 75
2, 184066, Note_on_c, 0, 57, 0
2, 184177, Note_on_c, 0, 70, 73
2, 184178, Note_on_c, 0, 67, 67
2, 184181, Note_on_c, 0, 53, 72
2, 184201, Note_on_c, 0, 55, 0
2, 184211, Note_on_c, 0, 67, 0
2, 184227, Note_on_c, 0, 70, 0
2, 184295, Note_on_c, 0, 52, 72
2, 184304, Note_on_c, 0, 53, 0
2, 184441, Note_on_c, 0, 53, 62
2, 184443, Note_on_c, 0, 69, 65
2, 184451, Note_on_c, 0, 65, 55
2, 184453, Note_on_c, 0, 52, 0
2, 184559, Note_on_c, 0, 70, 68
2, 184562, Note_on_c, 0, 65, 0
2, 184562, Note_on_c, 0, 69, 0
2, 184697, Note_on_c, 0, 65, 54
2, 184699, Note_on_c, 0, 57, 60
2, 184699, Note_on_c, 0, 72, 65
2, 184714, Note_on_c, 0, 70, 0
2, 184772, Note_on_c, 0, 65, 0
2, 184788, Note_on_c, 0, 57, 0
2, 184800, Note_on_c, 0, 72, 0
2, 184809, Note_on_c, 0, 58, 64
2, 184819, Note_on_c, 0, 67, 53
2, 184819, Note_on_c, 0, 70, 65
2, 184912, Note_on_c, 0, 67, 0
2, 184928, Note_on_c, 0, 70, 0
2, 184947, Note_on_c, 0, 60, 66
2, 184956, Note_on_c, 0, 58, 0
2, 184956, Note_on_c, 0, 69, 68
2, 184967, Note_on_c, 0, 65, 57
2, 185013, Note_on_c, 0, 65, 0
2, 185027, Note_on_c, 0, 53, 0
2, 185034, Note_on_c, 0, 69, 0
2, 185057, Note_on_c, 0, 60, 0
2, 185066, Note_on_c, 0, 52, 67
2, 185113, Note_on_c, 0, 52, 0
2, 185186, Note_on_c, 0, 67, 66
2, 185193, Note_on_c, 0, 58, 60
2, 185193, Note_on_c, 0, 64, 53
2, 185194, Note_on_c, 0, 50, 65
2, 185218, Note_on_c, 0, 67, 0
2, 185221, Note_on_c, 0, 64, 0
2, 185229, Note_on_c, 0, 50, 0
2, 185315, Note_on_c, 0, 49, 73
2, 185344, Note_on_c, 0, 58, 0
2, 185382, Note_on_c, 0, 49, 0
2, 185438, Note_on_c, 0, 77, 80
2, 185441, Note_on_c, 0, 50, 60
2, 185451, Note_on_c, 0, 53, 60
2, 185460, Note_on_c, 0, 62, 62
2, 185483, Note_on_c, 0, 53, 0
2, 185502, Note_on_c, 0, 50, 0
2, 185510, Note_on_c, 0, 77, 0
2, 185569, Note_on_c, 0, 62, 0
2, 185600, Note_on_c, 0, 64, 73
2, 185729, Note_on_c, 0, 62, 57
2, 185731, Note_on_c, 0, 81, 75
2, 185733, Note_on_c, 0, 64, 0
2, 185742, Note_on_c, 0, 65, 69
2, 185781, Note_on_c, 0, 62, 0
2, 185791, Note_on_c, 0, 81, 0
2, 185827, Note_on_c, 0, 65, 0
2, 185843, Note_on_c, 0, 64, 78
2, 185973, Note_on_c, 0, 64, 0
2, 185975, Note_on_c, 0, 65, 69
2, 185991, Note_on_c, 0, 62, 57
2, 186023, Note_on_c, 0, 62, 0
2, 186105, Note_on_c, 0, 67, 71
2, 186108, Note_on_c, 0, 65, 0
2, 186218, Note_on_c, 0, 67, 0
2, 186239, Note_on_c, 0, 76, 66
2, 186253, Note_on_c, 0, 69, 62
2, 186261, Note_on_c, 0, 61, 50
2, 186497, Note_on_c, 0, 76, 0
2, 186518, Note_on_c, 0, 74, 65
2, 186519, Note_on_c, 0, 70, 57
2, 186566, Note_on_c, 0, 70, 0
2, 186589, Note_on_c, 0, 61, 0
2, 186633, Note_on_c, 0, 73, 67
2, 186674, Note_on_c, 0, 74, 0
2, 186691, Note_on_c, 0, 73, 0
2, 186761, Note_on_c, 0, 69, 0
2, 186762, Note_on_c, 0, 67, 60
2, 186766, Note_on_c, 0, 76, 65
2, 186767, Note_on_c, 0, 74, 62
2, 186806, Note_on_c, 0, 74, 0
2, 186889, Note_on_c, 0, 76, 0
2, 186892, Note_on_c, 0, 74, 71
2, 187026, Note_on_c, 0, 73, 73
2, 187066, Note_on_c, 0, 74, 0
2, 187155, Note_on_c, 0, 71, 74
2, 187160, Note_on_c, 0, 73, 0
2, 187283, Note_on_c, 0, 71, 0
2, 187286, Note_on_c, 0, 74, 69
2, 187287, Note_on_c, 0, 65, 71
2, 187293, Note_on_c, 0, 67, 0
2, 187296, Note_on_c, 0, 69, 67
2, 187418, Note_on_c, 0, 72, 74
2, 187434, Note_on_c, 0, 74, 0
2, 187466, Note_on_c, 0, 69, 0
2, 187509, Note_on_c, 0, 72, 0
2, 187534, Note_on_c, 0, 65, 0
2, 187540, Note_on_c, 0, 71, 72
2, 187549, Note_on_c, 0, 67, 72
2, 187586, Note_on_c, 0, 67, 0
2, 187592, Note_on_c, 0, 71, 0
2, 187673, Note_on_c, 0, 65, 62
2, 187720, Note_on_c, 0, 65, 0
2, 187787, Note_on_c, 0, 64, 78
2, 187794, Note_on_c, 0, 73, 72
2, 187799, Note_on_c, 0, 69, 69
2, 187811, Note_on_c, 0, 64, 0
2, 187846, Note_on_c, 0, 69, 0
2, 187905, Note_on_c, 0, 67, 64
2, 187954, Note_on_c, 0, 67, 0
2, 187961, Note_on_c, 0, 73, 0
2, 188045, Note_on_c, 0, 74, 73
2, 188050, Note_on_c, 0, 65, 68
2, 188052, Note_on_c, 0, 62, 63
2, 188089, Note_on_c, 0, 65, 0
2, 188159, Note_on_c, 0, 64, 68
2, 188197, Note_on_c, 0, 64, 0
2, 188285, Note_on_c, 0, 74, 0
2, 188309, Note_on_c, 0, 69, 72
2, 188315, Note_on_c, 0, 67, 63
2, 188345, Note_on_c, 0, 69, 0
2, 188347, Note_on_c, 0, 67, 0
2, 188425, Note_on_c, 0, 65, 62
2, 188459, Note_on_c, 0, 65, 0
2, 188565, Note_on_c, 0, 76, 87
2, 188573, Note_on_c, 0, 64, 74
2, 188653, Note_on_c, 0, 64, 0
2, 188674, Note_on_c, 0, 62, 0
2, 188702, Note_on_c, 0, 61, 65
2, 188815, Note_on_c, 0, 61, 0
2, 188819, Note_on_c, 0, 64, 66
2, 188823, Note_on_c, 0, 65, 78
2, 188851, Note_on_c, 0, 65, 0
2, 188929, Note_on_c, 0, 64, 0
2, 188940, Note_on_c, 0, 62, 70
2, 189060, Note_on_c, 0, 67, 76
2, 189063, Note_on_c, 0, 61, 68
2, 189072, Note_on_c, 0, 62, 0
2, 189109, Note_on_c, 0, 67, 0
2, 189113, Note_on_c, 0, 65, 74
2, 189172, Note_on_c, 0, 65, 0
2, 189172, Note_on_c, 0, 67, 79
2, 189188, Note_on_c, 0, 59, 66
2, 189199, Note_on_c, 0, 61, 0
2, 189307, Note_on_c, 0, 62, 70
2, 189319, Note_on_c, 0, 59, 0
2, 189427, Note_on_c, 0, 61, 71
2, 189435, Note_on_c, 0, 62, 0
2, 189565, Note_on_c, 0, 67, 0
2, 189574, Note_on_c, 0, 62, 66
2, 189574, Note_on_c, 0, 65, 77
2, 189616, Note_on_c, 0, 61, 0
2, 189677, Note_on_c, 0, 76, 0
2, 189687, Note_on_c, 0, 73, 74
2, 189823, Note_on_c, 0, 74, 80
2, 189827, Note_on_c, 0, 73, 0
2, 189940, Note_on_c, 0, 77, 86
2, 189970, Note_on_c, 0, 74, 0
2, 190023, Note_on_c, 0, 77, 0
2, 190065, Note_on_c, 0, 79, 83
2, 190066, Note_on_c, 0, 64, 63
2, 190104, Note_on_c, 0, 65, 0
2, 190120, Note_on_c, 0, 62, 0
2, 190194, Note_on_c, 0, 59, 64
2, 190296, Note_on_c, 0, 64, 0
2, 190344, Note_on_c, 0, 61, 65
2, 190344, Note_on_c, 0, 69, 83
2, 190381, Note_on_c, 0, 59, 0
2, 190466, Note_on_c, 0, 64, 76
2, 190479, Note_on_c, 0, 61, 0
2, 190585, Note_on_c, 0, 65, 80
2, 190587, Note_on_c, 0, 69, 0
2, 190599, Note_on_c, 0, 64, 0
2, 190661, Note_on_c, 0, 79, 0
2, 190699, Note_on_c, 0, 76, 78
2, 190701, Note_on_c, 0, 73, 69
2, 190753, Note_on_c, 0, 73, 0
2, 190761, Note_on_c, 0, 76, 0
2, 190791, Control_c, 0, 64, 21
2, 190807, Control_c, 0, 64, 45
2, 190821, Note_on_c, 0, 74, 68
2, 190822, Control_c, 0, 64, 58
2, 190830, Note_on_c, 0, 79, 74
2, 190833, Note_on_c, 0, 77, 52
2, 190836, Control_c, 0, 64, 63
2, 190852, Control_c, 0, 64, 67
2, 190857, Note_on_c, 0, 77, 0
2, 190859, Note_on_c, 0, 79, 0
2, 190865, Note_on_c, 0, 74, 0
2, 190867, Control_c, 0, 64, 71
2, 190881, Control_c, 0, 64, 75
2, 190897, Control_c, 0, 64, 80
2, 190912, Control_c, 0, 64, 84
2, 190928, Control_c, 0, 64, 86
2, 190930, Note_on_c, 0, 81, 83
2, 190943, Control_c, 0, 64, 87
2, 190974, Note_on_c, 0, 81, 0
2, 190996, Control_c, 0, 64, 86
2, 191012, Control_c, 0, 64, 85
2, 191027, Control_c, 0, 64, 84
2, 191043, Control_c, 0, 64, 81
2, 191059, Control_c, 0, 64, 77
2, 191065, Note_on_c, 0, 82, 92
2, 191066, Note_on_c, 0, 67, 80
2, 191073, Control_c, 0, 64, 70
2, 191089, Control_c, 0, 64, 62
2, 191098, Note_on_c, 0, 65, 0
2, 191104, Control_c, 0, 64, 48
2, 191118, Control_c, 0, 64, 33
2, 191134, Control_c, 0, 64, 27
2, 191149, Control_c, 0, 64, 27
2, 191164, Control_c, 0, 64, 25
2, 191180, Control_c, 0, 64, 17
2, 191194, Control_c, 0, 64, 0
2, 191194, Note_on_c, 0, 62, 70
2, 191329, Note_on_c, 0, 64, 77
2, 191332, Note_on_c, 0, 72, 88
2, 191336, Note_on_c, 0, 62, 0
2, 191358, Note_on_c, 0, 67, 0
2, 191449, Note_on_c, 0, 67, 81
2, 191457, Note_on_c, 0, 64, 0
2, 191515, Note_on_c, 0, 82, 0
2, 191576, Note_on_c, 0, 69, 91
2, 191616, Note_on_c, 0, 67, 0
2, 191634, Note_on_c, 0, 72, 0
2, 191695, Note_on_c, 0, 76, 77
2, 191697, Note_on_c, 0, 79, 83
2, 191780, Note_on_c, 0, 76, 0
2, 191831, Note_on_c, 0, 81, 85
2, 191841, Note_on_c, 0, 77, 79
2, 191860, Note_on_c, 0, 79, 0
2, 191947, Control_c, 0, 64, 33
2, 191955, Note_on_c, 0, 84, 90
2, 191961, Control_c, 0, 64, 56
2, 191961, Note_on_c, 0, 81, 0
2, 191977, Control_c, 0, 64, 63
2, 191984, Note_on_c, 0, 77, 0
2, 191992, Control_c, 0, 64, 67
2, 191994, Note_on_c, 0, 84, 0
2, 192008, Control_c, 0, 64, 70
2, 192023, Control_c, 0, 64, 73
2, 192037, Control_c, 0, 64, 75
2, 192053, Control_c, 0, 64, 76
2, 192095, Note_on_c, 0, 74, 82
2, 192099, Control_c, 0, 64, 75
2, 192117, Note_on_c, 0, 70, 75
2, 192130, Control_c, 0, 64, 75
2, 192145, Control_c, 0, 64, 74
2, 192159, Control_c, 0, 64, 72
2, 192167, Note_on_c, 0, 69, 0
2, 192175, Control_c, 0, 64, 71
2, 192190, Control_c, 0, 64, 68
2, 192206, Control_c, 0, 64, 65
2, 192212, Note_on_c, 0, 65, 72
2, 192221, Control_c, 0, 64, 61
2, 192235, Control_c, 0, 64, 56
2, 192251, Control_c, 0, 64, 51
2, 192266, Control_c, 0, 64, 50
2, 192281, Control_c, 0, 64, 49
2, 192293, Note_on_c, 0, 70, 0
2, 192297, Control_c, 0, 64, 45
2, 192311, Control_c, 0, 64, 38
2, 192327, Control_c, 0, 64, 23
2, 192340, Note_on_c, 0, 67, 71
2, 192342, Control_c, 0, 64, 0
2, 192346, Note_on_c, 0, 76, 79
2, 192370, Note_on_c, 0, 74, 0
2, 192379, Note_on_c, 0, 65, 0
2, 192433, Control_c, 0, 64, 13
2, 192448, Control_c, 0, 64, 33
2, 192458, Note_on_c, 0, 70, 72
2, 192458, Note_on_c, 0, 79, 79
2, 192459, Note_on_c, 0, 76, 0
2, 192463, Control_c, 0, 64, 44
2, 192478, Control_c, 0, 64, 51
2, 192493, Control_c, 0, 64, 54
2, 192504, Note_on_c, 0, 79, 0
2, 192505, Note_on_c, 0, 67, 0
2, 192508, Control_c, 0, 64, 55
2, 192529, Note_on_c, 0, 70, 0
2, 192562, Control_c, 0, 64, 54
2, 192577, Control_c, 0, 64, 54
2, 192592, Control_c, 0, 64, 53
2, 192606, Note_on_c, 0, 64, 73
2, 192607, Note_on_c, 0, 72, 76
2, 192608, Control_c, 0, 64, 52
2, 192623, Control_c, 0, 64, 52
2, 192629, Note_on_c, 0, 70, 61
2, 192638, Control_c, 0, 64, 50
2, 192653, Control_c, 0, 64, 48
2, 192668, Control_c, 0, 64, 45
2, 192670, Note_on_c, 0, 64, 0
2, 192684, Control_c, 0, 64, 41
2, 192700, Control_c, 0, 64, 38
2, 192707, Note_on_c, 0, 70, 0
2, 192715, Control_c, 0, 64, 36
2, 192731, Control_c, 0, 64, 33
2, 192738, Note_on_c, 0, 67, 63
2, 192746, Control_c, 0, 64, 32
2, 192760, Control_c, 0, 64, 30
2, 192776, Control_c, 0, 64, 27
2, 192791, Control_c, 0, 64, 24
2, 192806, Control_c, 0, 64, 20
2, 192821, Control_c, 0, 64, 15
2, 192836, Control_c, 0, 64, 0
2, 192854, Note_on_c, 0, 65, 59
2, 192864, Note_on_c, 0, 69, 70
2, 192870, Note_on_c, 0, 72, 0
2, 192878, Note_on_c, 0, 67, 0
2, 192904, Note_on_c, 0, 65, 0
2, 192970, Note_on_c, 0, 69, 0
2, 192984, Note_on_c, 0, 72, 75
2, 193122, Note_on_c, 0, 58, 59
2, 193129, Note_on_c, 0, 62, 60
2, 193216, Note_on_c, 0, 72, 0
2, 193250, Note_on_c, 0, 65, 63
2, 193391, Note_on_c, 0, 67, 64
2, 193395, Note_on_c, 0, 65, 0
2, 193479, Note_on_c, 0, 62, 0
2, 193520, Note_on_c, 0, 70, 70
2, 193527, Note_on_c, 0, 67, 0
2, 193551, Note_on_c, 0, 58, 0
2, 193645, Note_on_c, 0, 70, 0
2, 193648, Note_on_c, 0, 64, 61
2, 193657, Note_on_c, 0, 60, 58
2, 193770, Note_on_c, 0, 70, 71
2, 193773, Note_on_c, 0, 64, 0
2, 193851, Note_on_c, 0, 70, 0
2, 193864, Control_c, 0, 64, 23
2, 193880, Control_c, 0, 64, 45
2, 193885, Note_on_c, 0, 48, 54
2, 193892, Note_on_c, 0, 69, 64
2, 193895, Control_c, 0, 64, 56
2, 193896, Note_on_c, 0, 65, 57
2, 193899, Note_on_c, 0, 60, 0
2, 193910, Control_c, 0, 64, 60
2, 193926, Control_c, 0, 64, 61
2, 193940, Control_c, 0, 64, 60
2, 193955, Control_c, 0, 64, 60
2, 193977, Note_on_c, 0, 65, 0
2, 193985, Control_c, 0, 64, 59
2, 194002, Note_on_c, 0, 48, 0
2, 194009, Note_on_c, 0, 67, 63
2, 194012, Note_on_c, 0, 50, 61
2, 194016, Control_c, 0, 64, 59
2, 194019, Note_on_c, 0, 69, 0
2, 194043, Note_on_c, 0, 67, 0
2, 194047, Control_c, 0, 64, 58
2, 194069, Control_c, 0, 64, 55
2, 194085, Control_c, 0, 64, 53
2, 194100, Control_c, 0, 64, 52
2, 194109, Note_on_c, 0, 50, 0
2, 194115, Control_c, 0, 64, 50
2, 194131, Control_c, 0, 64, 49
2, 194138, Note_on_c, 0, 48, 57
2, 194145, Control_c, 0, 64, 48
2, 194146, Note_on_c, 0, 67, 69
2, 194161, Control_c, 0, 64, 45
2, 194176, Control_c, 0, 64, 42
2, 194180, Note_on_c, 0, 67, 0
2, 194190, Control_c, 0, 64, 39
2, 194196, Note_on_c, 0, 69, 65
2, 194206, Control_c, 0, 64, 35
2, 194221, Control_c, 0, 64, 30
2, 194232, Note_on_c, 0, 69, 0
2, 194236, Control_c, 0, 64, 27
2, 194252, Control_c, 0, 64, 25
2, 194263, Note_on_c, 0, 67, 53
2, 194266, Control_c, 0, 64, 24
2, 194282, Control_c, 0, 64, 22
2, 194287, Note_on_c, 0, 67, 0
2, 194292, Note_on_c, 0, 69, 64
2, 194297, Control_c, 0, 64, 19
2, 194313, Control_c, 0, 64, 17
2, 194317, Note_on_c, 0, 69, 0
2, 194329, Control_c, 0, 64, 16
2, 194344, Control_c, 0, 64, 13
2, 194349, Note_on_c, 0, 67, 70
2, 194360, Control_c, 0, 64, 12
2, 194374, Control_c, 0, 64, 9
2, 194392, Note_on_c, 0, 67, 0
2, 194402, Note_on_c, 0, 46, 47
2, 194405, Control_c, 0, 64, 0
2, 194421, Note_on_c, 0, 64, 66
2, 194498, Note_on_c, 0, 64, 0
2, 194532, Note_on_c, 0, 65, 58
2, 194567, Note_on_c, 0, 65, 0
2, 194648, Note_on_c, 0, 45, 55
2, 194654, Note_on_c, 0, 65, 54
2, 194673, Note_on_c, 0, 48, 0
2, 194698, Note_on_c, 0, 46, 0
2, 194719, Note_on_c, 0, 45, 0
2, 194944, Note_on_c, 0, 48, 47
2, 194944, Note_on_c, 0, 72, 57
2, 194957, Note_on_c, 0, 45, 45
2, 195044, Note_on_c, 0, 46, 62
2, 195052, Note_on_c, 0, 74, 63
2, 195054, Note_on_c, 0, 72, 0
2, 195060, Note_on_c, 0, 48, 0
2, 195072, Note_on_c, 0, 45, 0
2, 195073, Note_on_c, 0, 65, 0
2, 195086, Note_on_c, 0, 46, 0
2, 195130, Note_on_c, 0, 74, 0
2, 195173, Note_on_c, 0, 72, 67
2, 195184, Note_on_c, 0, 50, 57
2, 195199, Note_on_c, 0, 45, 45
2, 195216, Note_on_c, 0, 50, 0
2, 195229, Note_on_c, 0, 45, 0
2, 195446, Note_on_c, 0, 70, 59
2, 195452, Note_on_c, 0, 43, 53
2, 195458, Note_on_c, 0, 52, 44
2, 195480, Note_on_c, 0, 70, 0
2, 195483, Note_on_c, 0, 52, 0
2, 195487, Note_on_c, 0, 43, 0
2, 195714, Note_on_c, 0, 41, 55
2, 195718, Note_on_c, 0, 69, 57
2, 195720, Note_on_c, 0, 53, 46
2, 195755, Control_c, 0, 64, 42
2, 195771, Control_c, 0, 64, 55
2, 195771, Note_on_c, 0, 53, 0
2, 195786, Control_c, 0, 64, 61
2, 195801, Control_c, 0, 64, 64
2, 195817, Control_c, 0, 64, 65
2, 195844, Note_on_c, 0, 43, 57
2, 195861, Note_on_c, 0, 69, 0
2, 195862, Control_c, 0, 64, 64
2, 195877, Control_c, 0, 64, 64
2, 195908, Control_c, 0, 64, 63
2, 195923, Control_c, 0, 64, 63
2, 195939, Control_c, 0, 64, 62
2, 195954, Control_c, 0, 64, 59
2, 195959, Note_on_c, 0, 52, 51
2, 195970, Control_c, 0, 64, 54
2, 195973, Note_on_c, 0, 45, 59
2, 195974, Note_on_c, 0, 69, 62
2, 195985, Control_c, 0, 64, 50
2, 195993, Note_on_c, 0, 41, 0
2, 195999, Control_c, 0, 64, 45
2, 196001, Note_on_c, 0, 52, 0
2, 196002, Note_on_c, 0, 43, 0
2, 196015, Control_c, 0, 64, 40
2, 196030, Control_c, 0, 64, 34
2, 196030, Note_on_c, 0, 69, 0
2, 196046, Control_c, 0, 64, 26
2, 196061, Control_c, 0, 64, 13
2, 196064, Note_on_c, 0, 70, 65
2, 196070, Note_on_c, 0, 43, 50
2, 196076, Control_c, 0, 64, 0
2, 196077, Note_on_c, 0, 45, 0
2, 196126, Note_on_c, 0, 70, 0
2, 196144, Note_on_c, 0, 43, 0
2, 196196, Note_on_c, 0, 69, 70
2, 196198, Note_on_c, 0, 41, 72
2, 196198, Note_on_c, 0, 53, 70
2, 196226, Note_on_c, 0, 41, 0
2, 196226, Note_on_c, 0, 53, 0
2, 196239, Note_on_c, 0, 69, 0
2, 196408, Note_on_c, 0, 39, 61
2, 196433, Control_c, 0, 64, 40
2, 196448, Control_c, 0, 64, 56
2, 196453, Note_on_c, 0, 39, 0
2, 196460, Note_on_c, 0, 67, 70
2, 196463, Control_c, 0, 64, 65
2, 196478, Control_c, 0, 64, 69
2, 196486, Note_on_c, 0, 55, 70
2, 196494, Control_c, 0, 64, 75
2, 196509, Control_c, 0, 64, 81
2, 196510, Note_on_c, 0, 67, 0
2, 196519, Note_on_c, 0, 55, 0
2, 196523, Control_c, 0, 64, 85
2, 196539, Control_c, 0, 64, 87
2, 196644, Control_c, 0, 64, 87
2, 196675, Control_c, 0, 64, 86
2, 196691, Control_c, 0, 64, 85
2, 196706, Control_c, 0, 64, 82
2, 196715, Note_on_c, 0, 66, 70
2, 196719, Note_on_c, 0, 50, 62
2, 196719, Note_on_c, 0, 57, 63
2, 196721, Control_c, 0, 64, 77
2, 196737, Control_c, 0, 64, 68
2, 196752, Control_c, 0, 64, 61
2, 196768, Control_c, 0, 64, 47
2, 196783, Control_c, 0, 64, 31
2, 196798, Control_c, 0, 64, 25
2, 196826, Note_on_c, 0, 67, 72
2, 196828, Control_c, 0, 64, 25
2, 196828, Note_on_c, 0, 66, 0
2, 196831, Note_on_c, 0, 57, 0
2, 196832, Note_on_c, 0, 55, 66
2, 196843, Control_c, 0, 64, 21
2, 196859, Control_c, 0, 64, 0
2, 196951, Note_on_c, 0, 69, 78
2, 196956, Note_on_c, 0, 54, 69
2, 196961, Note_on_c, 0, 67, 0
2, 196970, Note_on_c, 0, 55, 0
2, 197068, Note_on_c, 0, 67, 80
2, 197079, Note_on_c, 0, 55, 67
2, 197082, Note_on_c, 0, 69, 0
2, 197131, Note_on_c, 0, 54, 0
2, 197157, Note_on_c, 0, 67, 0
2, 197199, Note_on_c, 0, 55, 0
2, 197211, Note_on_c, 0, 57, 78
2, 197217, Note_on_c, 0, 66, 82
2, 197278, Note_on_c, 0, 57, 0
2, 197283, Note_on_c, 0, 66, 0
2, 197317, Note_on_c, 0, 58, 77
2, 197351, Note_on_c, 0, 50, 0
2, 197370, Note_on_c, 0, 58, 0
2, 197449, Note_on_c, 0, 63, 80
2, 197452, Note_on_c, 0, 60, 81
2, 197455, Note_on_c, 0, 48, 78
2, 197459, Control_c, 0, 64, 35
2, 197473, Note_on_c, 0, 63, 0
2, 197474, Control_c, 0, 64, 57
2, 197481, Note_on_c, 0, 60, 0
2, 197486, Note_on_c, 0, 48, 0
2, 197489, Control_c, 0, 64, 65
2, 197504, Control_c, 0, 64, 71
2, 197511, Note_on_c, 0, 72, 0
2, 197519, Control_c, 0, 64, 77
2, 197535, Control_c, 0, 64, 78
2, 197566, Control_c, 0, 64, 78
2, 197596, Control_c, 0, 64, 77
2, 197627, Control_c, 0, 64, 78
2, 197658, Control_c, 0, 64, 77
2, 197672, Control_c, 0, 64, 76
2, 197688, Control_c, 0, 64, 74
2, 197703, Control_c, 0, 64, 70
2, 197710, Note_on_c, 0, 74, 85
2, 197717, Note_on_c, 0, 46, 74
2, 197718, Control_c, 0, 64, 65
2, 197718, Note_on_c, 0, 54, 75
2, 197734, Control_c, 0, 64, 59
2, 197749, Control_c, 0, 64, 52
2, 197758, Note_on_c, 0, 74, 0
2, 197763, Control_c, 0, 64, 45
2, 197779, Control_c, 0, 64, 42
2, 197791, Note_on_c, 0, 54, 0
2, 197794, Control_c, 0, 64, 40
2, 197810, Control_c, 0, 64, 36
2, 197824, Note_on_c, 0, 45, 76
2, 197825, Control_c, 0, 64, 29
2, 197834, Note_on_c, 0, 46, 0
2, 197840, Control_c, 0, 64, 21
2, 197856, Control_c, 0, 64, 11
2, 197870, Control_c, 0, 64, 0
2, 197975, Note_on_c, 0, 48, 67
2, 197976, Note_on_c, 0, 45, 0
2, 197978, Note_on_c, 0, 57, 82
2, 197978, Note_on_c, 0, 78, 90
2, 197981, Note_on_c, 0, 69, 87
2, 198027, Note_on_c, 0, 69, 0
2, 198029, Note_on_c, 0, 78, 0
2, 198064, Note_on_c, 0, 57, 0
2, 198100, Note_on_c, 0, 46, 74
2, 198123, Note_on_c, 0, 48, 0
2, 198259, Note_on_c, 0, 75, 92
2, 198265, Note_on_c, 0, 46, 0
2, 198265, Note_on_c, 0, 55, 72
2, 198274, Note_on_c, 0, 45, 56
2, 198304, Note_on_c, 0, 45, 0
2, 198361, Note_on_c, 0, 55, 0
2, 198386, Note_on_c, 0, 43, 80
2, 198519, Note_on_c, 0, 46, 67
2, 198522, Note_on_c, 0, 72, 84
2, 198532, Note_on_c, 0, 54, 70
2, 198537, Note_on_c, 0, 43, 0
2, 198576, Note_on_c, 0, 72, 0
2, 198632, Note_on_c, 0, 45, 80
2, 198648, Note_on_c, 0, 46, 0
2, 198692, Note_on_c, 0, 54, 0
2, 198785, Note_on_c, 0, 70, 77
2, 198796, Note_on_c, 0, 45, 0
2, 198797, Note_on_c, 0, 43, 75
2, 198797, Note_on_c, 0, 55, 79
2, 198857, Note_on_c, 0, 75, 0
2, 198889, Control_c, 0, 64, 27
2, 198904, Control_c, 0, 64, 42
2, 198916, Note_on_c, 0, 69, 73
2, 198918, Control_c, 0, 64, 49
2, 198932, Note_on_c, 0, 70, 0
2, 198934, Control_c, 0, 64, 52
2, 198944, Note_on_c, 0, 55, 0
2, 198994, Control_c, 0, 64, 51
2, 199010, Control_c, 0, 64, 50
2, 199025, Control_c, 0, 64, 49
2, 199026, Note_on_c, 0, 69, 0
2, 199032, Note_on_c, 0, 74, 77
2, 199040, Control_c, 0, 64, 48
2, 199041, Note_on_c, 0, 72, 74
2, 199055, Control_c, 0, 64, 45
2, 199058, Note_on_c, 0, 53, 76
2, 199070, Control_c, 0, 64, 40
2, 199086, Control_c, 0, 64, 28
2, 199100, Control_c, 0, 64, 0
2, 199149, Note_on_c, 0, 70, 87
2, 199176, Note_on_c, 0, 72, 0
2, 199185, Note_on_c, 0, 74, 0
2, 199192, Control_c, 0, 64, 13
2, 199207, Control_c, 0, 64, 29
2, 199223, Control_c, 0, 64, 31
2, 199225, Note_on_c, 0, 70, 0
2, 199269, Control_c, 0, 64, 31
2, 199277, Note_on_c, 0, 72, 89
2, 199281, Note_on_c, 0, 51, 78
2, 199283, Control_c, 0, 64, 30
2, 199287, Note_on_c, 0, 69, 83
2, 199295, Note_on_c, 0, 53, 0
2, 199299, Control_c, 0, 64, 30
2, 199303, Note_on_c, 0, 43, 0
2, 199314, Control_c, 0, 64, 29
2, 199330, Control_c, 0, 64, 28
2, 199345, Control_c, 0, 64, 28
2, 199351, Note_on_c, 0, 69, 0
2, 199390, Control_c, 0, 64, 27
2, 199400, Note_on_c, 0, 70, 87
2, 199406, Note_on_c, 0, 67, 78
2, 199421, Control_c, 0, 64, 27
2, 199424, Note_on_c, 0, 72, 0
2, 199475, Control_c, 0, 64, 26
2, 199482, Note_on_c, 0, 70, 0
2, 199490, Control_c, 0, 64, 23
2, 199505, Control_c, 0, 64, 17
2, 199520, Control_c, 0, 64, 0
2, 199538, Note_on_c, 0, 74, 86
2, 199540, Note_on_c, 0, 51, 0
2, 199545, Note_on_c, 0, 50, 72
2, 199545, Note_on_c, 0, 70, 71
2, 199546, Note_on_c, 0, 42, 81
2, 199581, Note_on_c, 0, 67, 0
2, 199631, Note_on_c, 0, 70, 0
2, 199667, Note_on_c, 0, 72, 87
2, 199668, Note_on_c, 0, 69, 87
2, 199705, Note_on_c, 0, 74, 0
2, 199831, Note_on_c, 0, 42, 0
2, 199867, Note_on_c, 0, 70, 87
2, 199876, Note_on_c, 0, 67, 73
2, 199886, Note_on_c, 0, 43, 83
2, 199896, Note_on_c, 0, 72, 0
2, 199904, Note_on_c, 0, 69, 0
2, 199972, Note_on_c, 0, 50, 0
2, 200035, Note_on_c, 0, 70, 0
2, 200048, Note_on_c, 0, 72, 89
2, 200204, Note_on_c, 0, 55, 81
2, 200204, Note_on_c, 0, 74, 83
2, 200237, Note_on_c, 0, 72, 0
2, 200239, Note_on_c, 0, 55, 0
2, 200330, Note_on_c, 0, 72, 85
2, 200337, Note_on_c, 0, 57, 80
2, 200352, Note_on_c, 0, 74, 0
2, 200371, Note_on_c, 0, 57, 0
2, 200399, Note_on_c, 0, 67, 0
2, 200462, Note_on_c, 0, 70, 87
2, 200472, Note_on_c, 0, 55, 78
2, 200491, Note_on_c, 0, 72, 0
2, 200502, Note_on_c, 0, 55, 0
2, 200595, Note_on_c, 0, 69, 87
2, 200615, Note_on_c, 0, 70, 0
2, 200709, Note_on_c, 0, 69, 0
2, 200714, Note_on_c, 0, 53, 85
2, 200721, Note_on_c, 0, 67, 81
2, 200745, Note_on_c, 0, 53, 0
2, 200833, Note_on_c, 0, 67, 0
2, 200838, Note_on_c, 0, 65, 75
2, 200913, Note_on_c, 0, 65, 0
2, 200975, Note_on_c, 0, 67, 80
2, 200980, Note_on_c, 0, 52, 81
2, 201041, Control_c, 0, 64, 23
2, 201057, Control_c, 0, 64, 47
2, 201072, Control_c, 0, 64, 57
2, 201088, Control_c, 0, 64, 62
2, 201103, Control_c, 0, 64, 65
2, 201109, Note_on_c, 0, 69, 83
2, 201115, Note_on_c, 0, 67, 0
2, 201117, Control_c, 0, 64, 67
2, 201120, Note_on_c, 0, 52, 0
2, 201133, Control_c, 0, 64, 71
2, 201148, Control_c, 0, 64, 74
2, 201163, Control_c, 0, 64, 76
2, 201179, Control_c, 0, 64, 78
2, 201194, Control_c, 0, 64, 77
2, 201210, Control_c, 0, 64, 75
2, 201226, Control_c, 0, 64, 72
2, 201235, Note_on_c, 0, 70, 83
2, 201242, Control_c, 0, 64, 66
2, 201242, Note_on_c, 0, 52, 78
2, 201255, Note_on_c, 0, 69, 0
2, 201257, Control_c, 0, 64, 60
2, 201272, Control_c, 0, 64, 48
2, 201288, Control_c, 0, 64, 31
2, 201303, Control_c, 0, 64, 21
2, 201317, Control_c, 0, 64, 19
2, 201333, Control_c, 0, 64, 17
2, 201348, Control_c, 0, 64, 0
2, 201356, Note_on_c, 0, 69, 84
2, 201362, Note_on_c, 0, 53, 83
2, 201368, Note_on_c, 0, 52, 0
2, 201387, Note_on_c, 0, 70, 0
2, 201473, Note_on_c, 0, 69, 0
2, 201474, Note_on_c, 0, 67, 85
2, 201481, Note_on_c, 0, 52, 81
2, 201488, Note_on_c, 0, 53, 0
2, 201536, Note_on_c, 0, 52, 0
2, 201594, Note_on_c, 0, 65, 83
2, 201618, Note_on_c, 0, 67, 0
2, 201713, Note_on_c, 0, 50, 77
2, 201720, Note_on_c, 0, 64, 83
2, 201720, Note_on_c, 0, 65, 0
2, 201765, Note_on_c, 0, 50, 0
2, 201808, Note_on_c, 0, 64, 0
2, 201835, Note_on_c, 0, 62, 85
2, 201997, Note_on_c, 0, 49, 70
2, 202007, Note_on_c, 0, 76, 92
2, 202091, Note_on_c, 0, 62, 0
2, 202123, Note_on_c, 0, 50, 76
2, 202150, Note_on_c, 0, 49, 0
2, 202266, Note_on_c, 0, 69, 79
2, 202268, Note_on_c, 0, 52, 74
2, 202276, Note_on_c, 0, 50, 0
2, 202374, Note_on_c, 0, 67, 78
2, 202375, Note_on_c, 0, 52, 0
2, 202376, Note_on_c, 0, 50, 75
2, 202380, Note_on_c, 0, 69, 0
2, 202429, Note_on_c, 0, 67, 0
2, 202431, Note_on_c, 0, 50, 0
2, 202495, Note_on_c, 0, 69, 90
2, 202508, Note_on_c, 0, 49, 81
2, 202542, Note_on_c, 0, 69, 0
2, 202565, Note_on_c, 0, 49, 0
2, 202768, Note_on_c, 0, 47, 75
2, 202779, Note_on_c, 0, 71, 85
2, 202817, Note_on_c, 0, 71, 0
2, 202830, Note_on_c, 0, 47, 0
2, 202890, Note_on_c, 0, 76, 0
2, 203031, Note_on_c, 0, 73, 79
2, 203041, Note_on_c, 0, 57, 81
2, 203061, Note_on_c, 0, 74, 85
2, 203070, Note_on_c, 0, 73, 0
2, 203095, Note_on_c, 0, 43, 0
2, 203110, Control_c, 0, 64, 42
2, 203114, Note_on_c, 0, 73, 79
2, 203126, Control_c, 0, 64, 56
2, 203137, Note_on_c, 0, 57, 0
2, 203141, Control_c, 0, 64, 63
2, 203141, Note_on_c, 0, 74, 0
2, 203156, Control_c, 0, 64, 66
2, 203172, Control_c, 0, 64, 69
2, 203187, Control_c, 0, 64, 71
2, 203202, Control_c, 0, 64, 73
2, 203212, Note_on_c, 0, 73, 0
2, 203217, Control_c, 0, 64, 75
2, 203232, Control_c, 0, 64, 77
2, 203247, Control_c, 0, 64, 80
2, 203262, Control_c, 0, 64, 82
2, 203285, Control_c, 0, 64, 83
2, 203300, Control_c, 0, 64, 82
2, 203315, Control_c, 0, 64, 80
2, 203322, Note_on_c, 0, 61, 74
2, 203323, Note_on_c, 0, 73, 79
2, 203326, Note_on_c, 0, 76, 83
2, 203331, Note_on_c, 0, 52, 55
2, 203332, Control_c, 0, 64, 77
2, 203347, Control_c, 0, 64, 73
2, 203362, Control_c, 0, 64, 67
2, 203377, Control_c, 0, 64, 60
2, 203390, Note_on_c, 0, 73, 0
2, 203392, Control_c, 0, 64, 46
2, 203408, Control_c, 0, 64, 26
2, 203423, Control_c, 0, 64, 11
2, 203427, Note_on_c, 0, 52, 0
2, 203432, Note_on_c, 0, 71, 83
2, 203437, Control_c, 0, 64, 9
2, 203440, Note_on_c, 0, 74, 81
2, 203448, Note_on_c, 0, 53, 67
2, 203453, Control_c, 0, 64, 0
2, 203456, Note_on_c, 0, 61, 0
2, 203471, Note_on_c, 0, 76, 0
2, 203504, Note_on_c, 0, 71, 0
2, 203537, Note_on_c, 0, 74, 0
2, 203562, Note_on_c, 0, 55, 81
2, 203568, Note_on_c, 0, 73, 87
2, 203569, Note_on_c, 0, 76, 88
2, 203595, Note_on_c, 0, 53, 0
2, 203614, Note_on_c, 0, 73, 0
2, 203635, Note_on_c, 0, 76, 0
2, 203673, Note_on_c, 0, 53, 82
2, 203673, Note_on_c, 0, 55, 0
2, 203799, Note_on_c, 0, 52, 85
2, 203799, Note_on_c, 0, 53, 0
2, 203802, Note_on_c, 0, 69, 94
2, 203811, Note_on_c, 0, 77, 85
2, 203812, Note_on_c, 0, 74, 73
2, 203851, Note_on_c, 0, 74, 0
2, 203863, Note_on_c, 0, 69, 0
2, 203896, Note_on_c, 0, 77, 0
2, 203926, Note_on_c, 0, 50, 86
2, 203952, Note_on_c, 0, 52, 0
2, 204090, Note_on_c, 0, 49, 77
2, 204091, Note_on_c, 0, 70, 92
2, 204094, Note_on_c, 0, 76, 74
2, 204096, Note_on_c, 0, 79, 79
2, 204106, Note_on_c, 0, 50, 0
2, 204175, Control_c, 0, 64, 22
2, 204190, Control_c, 0, 64, 51
2, 204204, Control_c, 0, 64, 61
2, 204220, Control_c, 0, 64, 65
2, 204221, Note_on_c, 0, 70, 0
2, 204225, Note_on_c, 0, 74, 83
2, 204231, Note_on_c, 0, 79, 0
2, 204235, Control_c, 0, 64, 70
2, 204249, Note_on_c, 0, 49, 0
2, 204251, Control_c, 0, 64, 77
2, 204266, Control_c, 0, 64, 84
2, 204280, Control_c, 0, 64, 90
2, 204283, Note_on_c, 0, 76, 0
2, 204296, Control_c, 0, 64, 94
2, 204311, Control_c, 0, 64, 94
2, 204335, Note_on_c, 0, 74, 0
2, 204341, Control_c, 0, 64, 93
2, 204354, Note_on_c, 0, 73, 85
2, 204356, Control_c, 0, 64, 92
2, 204359, Note_on_c, 0, 79, 73
2, 204372, Control_c, 0, 64, 90
2, 204387, Control_c, 0, 64, 88
2, 204401, Control_c, 0, 64, 86
2, 204415, Note_on_c, 0, 73, 0
2, 204417, Control_c, 0, 64, 81
2, 204429, Note_on_c, 0, 79, 0
2, 204432, Control_c, 0, 64, 75
2, 204448, Control_c, 0, 64, 68
2, 204463, Control_c, 0, 64, 60
2, 204474, Note_on_c, 0, 77, 84
2, 204475, Note_on_c, 0, 74, 84
2, 204477, Control_c, 0, 64, 42
2, 204480, Note_on_c, 0, 69, 74
2, 204493, Control_c, 0, 64, 24
2, 204508, Control_c, 0, 64, 15
2, 204523, Control_c, 0, 64, 0
2, 204541, Note_on_c, 0, 74, 0
2, 204574, Note_on_c, 0, 77, 0
2, 204607, Note_on_c, 0, 76, 83
2, 204610, Note_on_c, 0, 67, 80
2, 204613, Note_on_c, 0, 79, 89
2, 204617, Note_on_c, 0, 69, 0
2, 204649, Note_on_c, 0, 76, 0
2, 204667, Note_on_c, 0, 79, 0
2, 204737, Note_on_c, 0, 65, 78
2, 204741, Note_on_c, 0, 67, 0
2, 204847, Note_on_c, 0, 65, 0
2, 204854, Note_on_c, 0, 64, 73
2, 204872, Note_on_c, 0, 77, 89
2, 204875, Note_on_c, 0, 81, 86
2, 204920, Note_on_c, 0, 77, 0
2, 204937, Note_on_c, 0, 81, 0
2, 204973, Note_on_c, 0, 64, 0
2, 204989, Note_on_c, 0, 62, 70
2, 205025, Note_on_c, 0, 61, 69
2, 205061, Note_on_c, 0, 62, 0
2, 205128, Note_on_c, 0, 82, 88
2, 205130, Note_on_c, 0, 67, 70
2, 205268, Note_on_c, 0, 81, 78
2, 205299, Note_on_c, 0, 82, 0
2, 205404, Note_on_c, 0, 79, 87
2, 205408, Note_on_c, 0, 64, 65
2, 205425, Note_on_c, 0, 67, 0
2, 205429, Note_on_c, 0, 81, 0
2, 205457, Note_on_c, 0, 64, 0
2, 205468, Note_on_c, 0, 61, 0
2, 205530, Note_on_c, 0, 79, 0
2, 205530, Note_on_c, 0, 81, 85
2, 205663, Note_on_c, 0, 82, 82
2, 205666, Note_on_c, 0, 61, 71
2, 205701, Note_on_c, 0, 81, 0
2, 205716, Note_on_c, 0, 61, 0
2, 205776, Note_on_c, 0, 79, 75
2, 205786, Note_on_c, 0, 82, 0
2, 205825, Note_on_c, 0, 79, 0
2, 205903, Note_on_c, 0, 61, 63
2, 205906, Note_on_c, 0, 81, 78
2, 205910, Note_on_c, 0, 57, 63
2, 205915, Note_on_c, 0, 69, 66
2, 205930, Note_on_c, 0, 61, 0
2, 205939, Note_on_c, 0, 57, 0
2, 205958, Note_on_c, 0, 69, 0
2, 206031, Note_on_c, 0, 76, 80
2, 206037, Note_on_c, 0, 81, 0
2, 206081, Note_on_c, 0, 76, 0
2, 206161, Note_on_c, 0, 77, 89
2, 206166, Note_on_c, 0, 50, 71
2, 206172, Note_on_c, 0, 69, 76
2, 206175, Note_on_c, 0, 62, 74
2, 206181, Control_c, 0, 64, 45
2, 206196, Control_c, 0, 64, 60
2, 206212, Control_c, 0, 64, 66
2, 206223, Note_on_c, 0, 50, 0
2, 206226, Control_c, 0, 64, 71
2, 206241, Control_c, 0, 64, 78
2, 206246, Note_on_c, 0, 62, 0
2, 206257, Control_c, 0, 64, 86
2, 206272, Control_c, 0, 64, 95
2, 206288, Control_c, 0, 64, 107
2, 206291, Note_on_c, 0, 76, 81
2, 206294, Note_on_c, 0, 77, 0
2, 206303, Control_c, 0, 64, 118
2, 206318, Control_c, 0, 64, 127
2, 206384, Control_c, 0, 64, 110
2, 206399, Control_c, 0, 64, 92
2, 206415, Control_c, 0, 64, 74
2, 206429, Control_c, 0, 64, 60
2, 206431, Note_on_c, 0, 74, 88
2, 206432, Note_on_c, 0, 65, 84
2, 206444, Control_c, 0, 64, 19
2, 206460, Control_c, 0, 64, 0
2, 206465, Note_on_c, 0, 76, 0
2, 206481, Note_on_c, 0, 65, 0
2, 206498, Note_on_c, 0, 69, 0
2, 206560, Note_on_c, 0, 76, 92
2, 206584, Note_on_c, 0, 74, 0
2, 206691, Note_on_c, 0, 62, 83
2, 206693, Note_on_c, 0, 77, 92
2, 206704, Note_on_c, 0, 69, 77
2, 206740, Note_on_c, 0, 62, 0
2, 206753, Note_on_c, 0, 69, 0
2, 206760, Note_on_c, 0, 76, 0
2, 206817, Note_on_c, 0, 74, 86
2, 206831, Note_on_c, 0, 77, 0
2, 206940, Note_on_c, 0, 57, 76
2, 206949, Note_on_c, 0, 76, 88
2, 206959, Note_on_c, 0, 67, 74
2, 206978, Note_on_c, 0, 57, 0
2, 206989, Note_on_c, 0, 74, 0
2, 207038, Note_on_c, 0, 67, 0
2, 207062, Note_on_c, 0, 73, 89
2, 207071, Note_on_c, 0, 76, 0
2, 207133, Note_on_c, 0, 73, 0
2, 207215, Note_on_c, 0, 58, 82
2, 207220, Note_on_c, 0, 74, 91
2, 207223, Note_on_c, 0, 65, 82
2, 207224, Note_on_c, 0, 50, 74
2, 207259, Control_c, 0, 64, 31
2, 207273, Control_c, 0, 64, 52
2, 207276, Note_on_c, 0, 65, 0
2, 207288, Control_c, 0, 64, 61
2, 207304, Control_c, 0, 64, 66
2, 207319, Control_c, 0, 64, 71
2, 207335, Control_c, 0, 64, 79
2, 207350, Control_c, 0, 64, 89
2, 207364, Control_c, 0, 64, 101
2, 207367, Note_on_c, 0, 72, 87
2, 207380, Control_c, 0, 64, 127
2, 207398, Note_on_c, 0, 74, 0
2, 207450, Note_on_c, 0, 58, 0
2, 207466, Note_on_c, 0, 50, 0
2, 207518, Control_c, 0, 64, 104
2, 207522, Note_on_c, 0, 53, 90
2, 207522, Note_on_c, 0, 62, 81
2, 207523, Note_on_c, 0, 70, 85
2, 207534, Control_c, 0, 64, 80
2, 207549, Control_c, 0, 64, 66
2, 207557, Note_on_c, 0, 72, 0
2, 207564, Control_c, 0, 64, 50
2, 207570, Note_on_c, 0, 53, 0
2, 207579, Control_c, 0, 64, 0
2, 207611, Note_on_c, 0, 62, 0
2, 207662, Note_on_c, 0, 70, 0
2, 207664, Note_on_c, 0, 72, 91
2, 207813, Note_on_c, 0, 74, 94
2, 207818, Note_on_c, 0, 58, 93
2, 207825, Note_on_c, 0, 65, 78
2, 207868, Note_on_c, 0, 58, 0
2, 207937, Note_on_c, 0, 72, 0
2, 207982, Note_on_c, 0, 70, 88
2, 208003, Note_on_c, 0, 65, 0
2, 208009, Note_on_c, 0, 74, 0
2, 208134, Note_on_c, 0, 62, 74
2, 208145, Note_on_c, 0, 72, 94
2, 208155, Note_on_c, 0, 65, 80
2, 208158, Note_on_c, 0, 70, 0
2, 208162, Note_on_c, 0, 62, 0
2, 208281, Note_on_c, 0, 65, 0
2, 208285, Note_on_c, 0, 69, 88
2, 208300, Note_on_c, 0, 72, 0
2, 208325, Note_on_c, 0, 69, 0
2, 208361, Note_on_c, 0, 50, 70
2, 208409, Note_on_c, 0, 59, 77
2, 208469, Control_c, 0, 64, 43
2, 208475, Note_on_c, 0, 64, 80
2, 208475, Note_on_c, 0, 71, 75
2, 208483, Control_c, 0, 64, 61
2, 208499, Control_c, 0, 64, 67
2, 208514, Control_c, 0, 64, 75
2, 208529, Control_c, 0, 64, 90
2, 208534, Note_on_c, 0, 76, 81
2, 208545, Control_c, 0, 64, 127
2, 208591, Note_on_c, 0, 80, 93
2, 208606, Control_c, 0, 64, 123
2, 208621, Control_c, 0, 64, 91
2, 208636, Control_c, 0, 64, 75
2, 208637, Note_on_c, 0, 76, 0
2, 208659, Control_c, 0, 64, 65
2, 208673, Control_c, 0, 64, 56
2, 208688, Control_c, 0, 64, 44
2, 208704, Control_c, 0, 64, 39
2, 208719, Control_c, 0, 64, 38
2, 208735, Control_c, 0, 64, 34
2, 208750, Control_c, 0, 64, 24
2, 208765, Control_c, 0, 64, 0
2, 208807, Note_on_c, 0, 81, 87
2, 208820, Note_on_c, 0, 80, 0
2, 208919, Note_on_c, 0, 80, 87
2, 208924, Note_on_c, 0, 81, 0
2, 208994, Note_on_c, 0, 80, 0
2, 208997, Note_on_c, 0, 81, 81
2, 209067, Note_on_c, 0, 80, 79
2, 209068, Note_on_c, 0, 81, 0
2, 209100, Control_c, 0, 64, 9
2, 209114, Control_c, 0, 64, 11
2, 209121, Note_on_c, 0, 80, 0
2, 209125, Note_on_c, 0, 81, 75
2, 209129, Control_c, 0, 64, 13
2, 209145, Control_c, 0, 64, 17
2, 209160, Control_c, 0, 64, 24
2, 209176, Control_c, 0, 64, 27
2, 209190, Control_c, 0, 64, 29
2, 209193, Note_on_c, 0, 80, 72
2, 209194, Note_on_c, 0, 71, 0
2, 209194, Note_on_c, 0, 71, 4
2, 209198, Note_on_c, 0, 81, 0
2, 209205, Control_c, 0, 64, 30
2, 209221, Control_c, 0, 64, 32
2, 209236, Control_c, 0, 64, 34
2, 209239, Note_on_c, 0, 80, 0
2, 209248, Note_on_c, 0, 81, 68
2, 209251, Control_c, 0, 64, 37
2, 209267, Control_c, 0, 64, 40
2, 209281, Control_c, 0, 64, 41
2, 209306, Note_on_c, 0, 80, 94
2, 209312, Control_c, 0, 64, 40
2, 209327, Control_c, 0, 64, 38
2, 209341, Note_on_c, 0, 81, 0
2, 209343, Control_c, 0, 64, 35
2, 209358, Control_c, 0, 64, 31
2, 209374, Control_c, 0, 64, 20
2, 209388, Control_c, 0, 64, 0
2, 209713, Note_on_c, 0, 78, 93
2, 209742, Note_on_c, 0, 80, 0
2, 209866, Control_c, 0, 64, 48
2, 209883, Control_c, 0, 64, 61
2, 209899, Control_c, 0, 64, 67
2, 209913, Control_c, 0, 64, 77
2, 209926, Note_on_c, 0, 78, 0
2, 209928, Control_c, 0, 64, 90
2, 209944, Control_c, 0, 64, 123
2, 209958, Control_c, 0, 64, 127
2, 210223, Note_on_c, 0, 80, 79
2, 210274, Note_on_c, 0, 78, 83
2, 210274, Note_on_c, 0, 80, 0
2, 210315, Control_c, 0, 64, 101
2, 210329, Note_on_c, 0, 80, 91
2, 210330, Control_c, 0, 64, 81
2, 210346, Control_c, 0, 64, 67
2, 210361, Control_c, 0, 64, 54
2, 210367, Note_on_c, 0, 78, 0
2, 210377, Control_c, 0, 64, 21
2, 210392, Control_c, 0, 64, 0
2, 211038, Control_c, 0, 64, 11
2, 211054, Control_c, 0, 64, 33
2, 211069, Control_c, 0, 64, 49
2, 211083, Control_c, 0, 64, 56
2, 211099, Control_c, 0, 64, 61
2, 211114, Control_c, 0, 64, 63
2, 211129, Control_c, 0, 64, 65
2, 211144, Control_c, 0, 64, 68
2, 211159, Control_c, 0, 64, 72
2, 211175, Control_c, 0, 64, 77
2, 211190, Control_c, 0, 64, 85
2, 211205, Control_c, 0, 64, 95
2, 211220, Control_c, 0, 64, 115
2, 211235, Control_c, 0, 64, 127
2, 211338, Note_on_c, 0, 64, 0
2, 211367, Note_on_c, 0, 71, 0
2, 211371, Note_on_c, 0, 59, 0
2, 211379, Note_on_c, 0, 50, 0
2, 211386, Note_on_c, 0, 80, 0
2, 211388, Control_c, 0, 64, 99
2, 211403, Control_c, 0, 64, 80
2, 211419, Control_c, 0, 64, 67
2, 211434, Control_c, 0, 64, 53
2, 211449, Control_c, 0, 64, 17
2, 211465, Control_c, 0, 64, 0
2, 211749, Note_on_c, 0, 81, 87
2, 211756, Note_on_c, 0, 57, 68
2, 211763, Note_on_c, 0, 60, 75
2, 211770, Note_on_c, 0, 51, 78
2, 211807, Control_c, 0, 64, 35
2, 211823, Control_c, 0, 64, 54
2, 211838, Control_c, 0, 64, 64
2, 211853, Control_c, 0, 64, 69
2, 211868, Control_c, 0, 64, 75
2, 211883, Control_c, 0, 64, 82
2, 211899, Control_c, 0, 64, 88
2, 211914, Control_c, 0, 64, 94
2, 211928, Control_c, 0, 64, 95
2, 211944, Control_c, 0, 64, 94
2, 211959, Control_c, 0, 64, 93
2, 211975, Control_c, 0, 64, 91
2, 211989, Control_c, 0, 64, 86
2, 212004, Control_c, 0, 64, 77
2, 212020, Control_c, 0, 64, 63
2, 212023, Note_on_c, 0, 69, 80
2, 212035, Control_c, 0, 64, 36
2, 212050, Control_c, 0, 64, 0
2, 212055, Note_on_c, 0, 69, 0
2, 212135, Note_on_c, 0, 68, 85
2, 212190, Note_on_c, 0, 68, 0
2, 212237, Note_on_c, 0, 60, 0
2, 212258, Note_on_c, 0, 57, 0
2, 212258, Note_on_c, 0, 69, 86
2, 212267, Note_on_c, 0, 51, 0
2, 212299, Note_on_c, 0, 69, 0
2, 212541, Note_on_c, 0, 71, 89
2, 212585, Note_on_c, 0, 71, 0
2, 212790, Control_c, 0, 64, 18
2, 212806, Control_c, 0, 64, 47
2, 212807, Note_on_c, 0, 72, 86
2, 212810, Note_on_c, 0, 60, 71
2, 212812, Note_on_c, 0, 81, 0
2, 212814, Note_on_c, 0, 52, 66
2, 212815, Note_on_c, 0, 57, 67
2, 212821, Control_c, 0, 64, 59
2, 212835, Control_c, 0, 64, 65
2, 212850, Control_c, 0, 64, 70
2, 212865, Control_c, 0, 64, 77
2, 212875, Note_on_c, 0, 72, 0
2, 212880, Control_c, 0, 64, 92
2, 212896, Control_c, 0, 64, 127
2, 213062, Note_on_c, 0, 76, 82
2, 213063, Note_on_c, 0, 72, 81
2, 213078, Control_c, 0, 64, 89
2, 213094, Control_c, 0, 64, 73
2, 213108, Control_c, 0, 64, 62
2, 213115, Note_on_c, 0, 72, 0
2, 213123, Control_c, 0, 64, 43
2, 213124, Note_on_c, 0, 76, 0
2, 213139, Control_c, 0, 64, 0
2, 213176, Note_on_c, 0, 74, 81
2, 213185, Note_on_c, 0, 71, 75
2, 213218, Note_on_c, 0, 71, 0
2, 213250, Note_on_c, 0, 52, 0
2, 213260, Note_on_c, 0, 74, 0
2, 213269, Note_on_c, 0, 60, 0
2, 213292, Note_on_c, 0, 57, 0
2, 213304, Note_on_c, 0, 72, 85
2, 213309, Note_on_c, 0, 76, 92
2, 213337, Note_on_c, 0, 72, 0
2, 213354, Note_on_c, 0, 76, 0
2, 213563, Note_on_c, 0, 78, 89
2, 213568, Note_on_c, 0, 74, 79
2, 213595, Note_on_c, 0, 74, 0
2, 213617, Note_on_c, 0, 78, 0
2, 213701, Note_on_c, 0, 52, 66
2, 213750, Note_on_c, 0, 59, 69
2, 213813, Note_on_c, 0, 80, 89
2, 213815, Note_on_c, 0, 76, 76
2, 213818, Note_on_c, 0, 62, 74
2, 213904, Control_c, 0, 64, 41
2, 213919, Control_c, 0, 64, 56
2, 213935, Control_c, 0, 64, 63
2, 213941, Note_on_c, 0, 74, 65
2, 213949, Control_c, 0, 64, 65
2, 213964, Control_c, 0, 64, 66
2, 213970, Note_on_c, 0, 80, 0
2, 213981, Control_c, 0, 64, 66
2, 213996, Control_c, 0, 64, 67
2, 214008, Note_on_c, 0, 74, 0
2, 214032, Note_on_c, 0, 76, 0
2, 214033, Control_c, 0, 64, 66
2, 214048, Control_c, 0, 64, 66
2, 214079, Control_c, 0, 64, 65
2, 214082, Note_on_c, 0, 80, 81
2, 214083, Note_on_c, 0, 72, 79
2, 214095, Control_c, 0, 64, 64
2, 214109, Control_c, 0, 64, 61
2, 214124, Control_c, 0, 64, 52
2, 214140, Control_c, 0, 64, 40
2, 214140, Note_on_c, 0, 72, 0
2, 214155, Control_c, 0, 64, 23
2, 214170, Control_c, 0, 64, 0
2, 214189, Note_on_c, 0, 74, 76
2, 214196, Note_on_c, 0, 78, 80
2, 214198, Note_on_c, 0, 80, 0
2, 214235, Note_on_c, 0, 74, 0
2, 214251, Note_on_c, 0, 52, 0
2, 214274, Note_on_c, 0, 62, 0
2, 214295, Note_on_c, 0, 59, 0
2, 214312, Note_on_c, 0, 80, 89
2, 214323, Note_on_c, 0, 76, 80
2, 214330, Note_on_c, 0, 78, 0
2, 214349, Note_on_c, 0, 76, 0
2, 214363, Note_on_c, 0, 80, 0
2, 214583, Note_on_c, 0, 77, 72
2, 214583, Note_on_c, 0, 81, 90
2, 214610, Note_on_c, 0, 77, 0
2, 214628, Note_on_c, 0, 81, 0
2, 214844, Note_on_c, 0, 83, 85
2, 214849, Note_on_c, 0, 68, 77
2, 214912, Note_on_c, 0, 68, 0
2, 214981, Note_on_c, 0, 81, 79
2, 215002, Note_on_c, 0, 83, 0
2, 215110, Note_on_c, 0, 59, 66
2, 215113, Note_on_c, 0, 64, 71
2, 215118, Note_on_c, 0, 81, 0
2, 215119, Note_on_c, 0, 80, 83
2, 215209, Note_on_c, 0, 80, 0
2, 215227, Note_on_c, 0, 59, 0
2, 215232, Note_on_c, 0, 60, 73
2, 215243, Note_on_c, 0, 81, 87
2, 215320, Note_on_c, 0, 64, 0
2, 215343, Note_on_c, 0, 81, 0
2, 215365, Note_on_c, 0, 62, 79
2, 215378, Note_on_c, 0, 64, 31
2, 215382, Note_on_c, 0, 83, 96
2, 215393, Note_on_c, 0, 60, 0
2, 215414, Note_on_c, 0, 64, 0
2, 215486, Note_on_c, 0, 83, 0
2, 215498, Note_on_c, 0, 64, 83
2, 215510, Note_on_c, 0, 62, 0
2, 215553, Note_on_c, 0, 64, 0
2, 215633, Note_on_c, 0, 84, 99
2, 215664, Note_on_c, 0, 69, 84
2, 215672, Note_on_c, 0, 66, 84
2, 215706, Note_on_c, 0, 84, 0
2, 215790, Note_on_c, 0, 68, 94
2, 215799, Note_on_c, 0, 69, 0
2, 215819, Note_on_c, 0, 66, 0
2, 215830, Note_on_c, 0, 68, 0
2, 215989, Note_on_c, 0, 54, 86
2, 215995, Control_c, 0, 64, 24
2, 216010, Control_c, 0, 64, 55
2, 216026, Control_c, 0, 64, 68
2, 216041, Control_c, 0, 64, 82
2, 216051, Note_on_c, 0, 75, 92
2, 216056, Control_c, 0, 64, 127
2, 216109, Note_on_c, 0, 71, 84
2, 216161, Note_on_c, 0, 69, 77
2, 216178, Control_c, 0, 64, 100
2, 216193, Control_c, 0, 64, 78
2, 216197, Note_on_c, 0, 57, 86
2, 216207, Control_c, 0, 64, 64
2, 216208, Note_on_c, 0, 66, 84
2, 216223, Control_c, 0, 64, 40
2, 216238, Control_c, 0, 64, 0
2, 216565, Control_c, 0, 64, 23
2, 216581, Control_c, 0, 64, 42
2, 216596, Control_c, 0, 64, 52
2, 216611, Control_c, 0, 64, 60
2, 216627, Control_c, 0, 64, 63
2, 216641, Control_c, 0, 64, 66
2, 216657, Control_c, 0, 64, 69
2, 216672, Control_c, 0, 64, 75
2, 216686, Control_c, 0, 64, 83
2, 216702, Control_c, 0, 64, 105
2, 216717, Control_c, 0, 64, 127
2, 216803, Note_on_c, 0, 57, 0
2, 216889, Note_on_c, 0, 69, 0
2, 216895, Note_on_c, 0, 54, 0
2, 216898, Note_on_c, 0, 71, 0
2, 216900, Control_c, 0, 64, 94
2, 216901, Note_on_c, 0, 66, 0
2, 216915, Control_c, 0, 64, 75
2, 216922, Note_on_c, 0, 75, 0
2, 216930, Control_c, 0, 64, 63
2, 216946, Control_c, 0, 64, 42
2, 216961, Control_c, 0, 64, 0
2, 217181, Control_c, 0, 64, 28
2, 217196, Control_c, 0, 64, 54
2, 217199, Note_on_c, 0, 76, 85
2, 217200, Note_on_c, 0, 64, 83
2, 217200, Note_on_c, 0, 71, 73
2, 217206, Note_on_c, 0, 56, 86
2, 217207, Note_on_c, 0, 59, 79
2, 217211, Control_c, 0, 64, 65
2, 217227, Control_c, 0, 64, 73
2, 217242, Control_c, 0, 64, 87
2, 217259, Control_c, 0, 64, 94
2, 217265, Note_on_c, 0, 59, 0
2, 217265, Note_on_c, 0, 71, 0
2, 217270, Note_on_c, 0, 56, 0
2, 217274, Control_c, 0, 64, 86
2, 217282, Note_on_c, 0, 64, 0
2, 217285, Note_on_c, 0, 76, 0
2, 217288, Control_c, 0, 64, 76
2, 217304, Control_c, 0, 64, 67
2, 217319, Control_c, 0, 64, 56
2, 217335, Control_c, 0, 64, 32
2, 217350, Control_c, 0, 64, 0
2, 217486, Control_c, 0, 64, 40
2, 217490, Note_on_c, 0, 72, 87
2, 217492, Note_on_c, 0, 57, 84
2, 217492, Note_on_c, 0, 60, 77
2, 217492, Note_on_c, 0, 69, 77
2, 217498, Note_on_c, 0, 64, 81
2, 217502, Control_c, 0, 64, 57
2, 217517, Control_c, 0, 64, 65
2, 217530, Note_on_c, 0, 60, 0
2, 217531, Control_c, 0, 64, 71
2, 217544, Note_on_c, 0, 69, 0
2, 217547, Control_c, 0, 64, 78
2, 217547, Note_on_c, 0, 64, 0
2, 217549, Note_on_c, 0, 57, 0
2, 217562, Control_c, 0, 64, 82
2, 217578, Control_c, 0, 64, 83
2, 217589, Note_on_c, 0, 72, 0
2, 217593, Control_c, 0, 64, 82
2, 217607, Control_c, 0, 64, 80
2, 217623, Control_c, 0, 64, 77
2, 217638, Control_c, 0, 64, 72
2, 217654, Control_c, 0, 64, 65
2, 217669, Control_c, 0, 64, 53
2, 217683, Control_c, 0, 64, 0
2, 217779, Note_on_c, 0, 71, 88
2, 217785, Note_on_c, 0, 65, 76
2, 217786, Note_on_c, 0, 62, 87
2, 217787, Note_on_c, 0, 50, 84
2, 217821, Control_c, 0, 64, 39
2, 217836, Control_c, 0, 64, 54
2, 217848, Note_on_c, 0, 65, 0
2, 217851, Control_c, 0, 64, 60
2, 217874, Control_c, 0, 64, 64
2, 217889, Control_c, 0, 64, 68
2, 217894, Note_on_c, 0, 62, 0
2, 217895, Note_on_c, 0, 50, 0
2, 217904, Control_c, 0, 64, 76
2, 217919, Control_c, 0, 64, 90
2, 217929, Note_on_c, 0, 69, 89
2, 217935, Control_c, 0, 64, 111
2, 217951, Control_c, 0, 64, 127
2, 217997, Control_c, 0, 64, 104
2, 217999, Note_on_c, 0, 71, 0
2, 218013, Control_c, 0, 64, 78
2, 218026, Note_on_c, 0, 69, 0
2, 218028, Control_c, 0, 64, 62
2, 218043, Control_c, 0, 64, 20
2, 218059, Control_c, 0, 64, 0
2, 218076, Note_on_c, 0, 72, 93
2, 218089, Note_on_c, 0, 64, 81
2, 218092, Note_on_c, 0, 60, 81
2, 218093, Note_on_c, 0, 52, 89
2, 218094, Note_on_c, 0, 69, 57
2, 218173, Note_on_c, 0, 72, 0
2, 218212, Note_on_c, 0, 69, 0
2, 218226, Note_on_c, 0, 71, 90
2, 218268, Note_on_c, 0, 64, 0
2, 218387, Note_on_c, 0, 60, 0
2, 218389, Note_on_c, 0, 69, 90
2, 218392, Note_on_c, 0, 59, 85
2, 218395, Note_on_c, 0, 64, 80
2, 218397, Note_on_c, 0, 62, 80
2, 218417, Note_on_c, 0, 71, 0
2, 218447, Note_on_c, 0, 59, 0
2, 218455, Note_on_c, 0, 52, 0
2, 218463, Note_on_c, 0, 64, 0
2, 218466, Note_on_c, 0, 62, 0
2, 218548, Note_on_c, 0, 68, 94
2, 218560, Note_on_c, 0, 69, 0
2, 218617, Note_on_c, 0, 68, 0
2, 218736, Control_c, 0, 64, 24
2, 218750, Control_c, 0, 64, 53
2, 218765, Control_c, 0, 64, 65
2, 218781, Control_c, 0, 64, 77
2, 218795, Control_c, 0, 64, 98
2, 218807, Note_on_c, 0, 69, 95
2, 218811, Control_c, 0, 64, 109
2, 218814, Note_on_c, 0, 64, 74
2, 218817, Note_on_c, 0, 61, 86
2, 218826, Control_c, 0, 64, 95
2, 218835, Note_on_c, 0, 57, 89
2, 218838, Note_on_c, 0, 45, 85
2, 218841, Control_c, 0, 64, 81
2, 218857, Control_c, 0, 64, 68
2, 218872, Control_c, 0, 64, 54
2, 218888, Control_c, 0, 64, 0
2, 218964, Control_c, 0, 64, 34
2, 218979, Control_c, 0, 64, 52
2, 218995, Control_c, 0, 64, 63
2, 219011, Control_c, 0, 64, 68
2, 219025, Control_c, 0, 64, 76
2, 219040, Control_c, 0, 64, 91
2, 219056, Control_c, 0, 64, 127
2, 219089, Note_on_c, 0, 57, 0
2, 219181, Note_on_c, 0, 61, 0
2, 219193, Control_c, 0, 64, 83
2, 219209, Control_c, 0, 64, 67
2, 219211, Note_on_c, 0, 57, 81
2, 219223, Control_c, 0, 64, 52
2, 219238, Control_c, 0, 64, 17
2, 219254, Control_c, 0, 64, 0
2, 219321, Note_on_c, 0, 58, 86
2, 219340, Note_on_c, 0, 57, 0
2, 219391, Note_on_c, 0, 69, 0
2, 219413, Note_on_c, 0, 64, 0
2, 219416, Note_on_c, 0, 58, 0
2, 219463, Note_on_c, 0, 57, 87
2, 219510, Note_on_c, 0, 57, 0
2, 219580, Control_c, 0, 66, 127
2, 219745, Note_on_c, 0, 45, 0
2, 219745, Note_on_c, 0, 64, 80
2, 219749, Note_on_c, 0, 55, 78
2, 219784, Note_on_c, 0, 55, 0
2, 219788, Note_on_c, 0, 64, 0
2, 219960, Control_c, 0, 64, 34
2, 219976, Control_c, 0, 64, 54
2, 219990, Control_c, 0, 64, 63
2, 220005, Control_c, 0, 64, 70
2, 220021, Control_c, 0, 64, 84
2, 220029, Note_on_c, 0, 53, 79
2, 220029, Note_on_c, 0, 57, 75
2, 220036, Control_c, 0, 64, 127
2, 220057, Note_on_c, 0, 53, 0
2, 220083, Note_on_c, 0, 57, 0
2, 220271, Control_c, 0, 64, 119
2, 220287, Control_c, 0, 64, 93
2, 220302, Control_c, 0, 64, 77
2, 220317, Control_c, 0, 64, 65
2, 220319, Note_on_c, 0, 53, 76
2, 220319, Note_on_c, 0, 69, 80
2, 220333, Control_c, 0, 64, 37
2, 220348, Control_c, 0, 64, 0
2, 220425, Note_on_c, 0, 53, 0
2, 220425, Note_on_c, 0, 70, 81
2, 220434, Note_on_c, 0, 55, 81
2, 220445, Note_on_c, 0, 69, 0
2, 220479, Note_on_c, 0, 55, 0
2, 220484, Note_on_c, 0, 70, 0
2, 220559, Note_on_c, 0, 69, 88
2, 220562, Note_on_c, 0, 53, 83
2, 220603, Note_on_c, 0, 69, 0
2, 220612, Note_on_c, 0, 53, 0
2, 220827, Note_on_c, 0, 52, 78
2, 220831, Note_on_c, 0, 67, 84
2, 220866, Note_on_c, 0, 52, 0
2, 220873, Note_on_c, 0, 67, 0
2, 221092, Note_on_c, 0, 50, 66
2, 221101, Control_c, 0, 64, 24
2, 221103, Note_on_c, 0, 65, 77
2, 221115, Control_c, 0, 64, 52
2, 221131, Control_c, 0, 64, 62
2, 221135, Note_on_c, 0, 67, 83
2, 221142, Note_on_c, 0, 65, 0
2, 221146, Control_c, 0, 64, 64
2, 221161, Control_c, 0, 64, 62
2, 221177, Control_c, 0, 64, 60
2, 221180, Note_on_c, 0, 67, 0
2, 221191, Control_c, 0, 64, 57
2, 221201, Note_on_c, 0, 65, 81
2, 221205, Note_on_c, 0, 52, 73
2, 221207, Control_c, 0, 64, 55
2, 221219, Note_on_c, 0, 50, 0
2, 221252, Control_c, 0, 64, 55
2, 221267, Control_c, 0, 64, 53
2, 221279, Note_on_c, 0, 65, 0
2, 221282, Control_c, 0, 64, 46
2, 221298, Control_c, 0, 64, 36
2, 221313, Control_c, 0, 64, 21
2, 221328, Control_c, 0, 64, 0
2, 221358, Note_on_c, 0, 53, 77
2, 221362, Note_on_c, 0, 74, 83
2, 221363, Note_on_c, 0, 52, 0
2, 221367, Note_on_c, 0, 65, 69
2, 221403, Note_on_c, 0, 65, 0
2, 221464, Note_on_c, 0, 52, 80
2, 221464, Note_on_c, 0, 74, 0
2, 221467, Note_on_c, 0, 67, 69
2, 221469, Note_on_c, 0, 73, 78
2, 221473, Note_on_c, 0, 53, 0
2, 221499, Note_on_c, 0, 67, 0
2, 221531, Note_on_c, 0, 73, 0
2, 221533, Note_on_c, 0, 52, 0
2, 221607, Note_on_c, 0, 74, 82
2, 221611, Note_on_c, 0, 50, 80
2, 221612, Note_on_c, 0, 65, 78
2, 221644, Note_on_c, 0, 65, 0
2, 221649, Note_on_c, 0, 50, 0
2, 221657, Note_on_c, 0, 74, 0
2, 221887, Note_on_c, 0, 49, 75
2, 221887, Note_on_c, 0, 64, 82
2, 221890, Note_on_c, 0, 76, 83
2, 221927, Note_on_c, 0, 64, 0
2, 221939, Note_on_c, 0, 49, 0
2, 221948, Note_on_c, 0, 76, 0
2, 222156, Note_on_c, 0, 77, 89
2, 222165, Note_on_c, 0, 62, 77
2, 222171, Note_on_c, 0, 50, 69
2, 222174, Control_c, 0, 64, 42
2, 222189, Control_c, 0, 64, 58
2, 222203, Control_c, 0, 64, 64
2, 222212, Note_on_c, 0, 62, 0
2, 222219, Control_c, 0, 64, 69
2, 222223, Note_on_c, 0, 50, 0
2, 222234, Control_c, 0, 64, 75
2, 222250, Control_c, 0, 64, 84
2, 222263, Note_on_c, 0, 77, 0
2, 222265, Control_c, 0, 64, 91
2, 222279, Control_c, 0, 64, 96
2, 222295, Control_c, 0, 64, 98
2, 222340, Control_c, 0, 64, 98
2, 222371, Control_c, 0, 64, 97
2, 222386, Control_c, 0, 64, 95
2, 222400, Control_c, 0, 64, 93
2, 222416, Control_c, 0, 64, 90
2, 222427, Note_on_c, 0, 77, 87
2, 222430, Note_on_c, 0, 57, 71
2, 222431, Control_c, 0, 64, 86
2, 222433, Note_on_c, 0, 53, 73
2, 222433, Note_on_c, 0, 69, 73
2, 222447, Control_c, 0, 64, 82
2, 222462, Control_c, 0, 64, 75
2, 222469, Note_on_c, 0, 69, 0
2, 222484, Control_c, 0, 64, 68
2, 222500, Control_c, 0, 64, 60
2, 222515, Control_c, 0, 64, 47
2, 222530, Control_c, 0, 64, 28
2, 222538, Note_on_c, 0, 77, 0
2, 222545, Control_c, 0, 64, 24
2, 222553, Note_on_c, 0, 59, 72
2, 222556, Note_on_c, 0, 76, 85
2, 222557, Note_on_c, 0, 67, 80
2, 222560, Control_c, 0, 64, 23
2, 222576, Control_c, 0, 64, 20
2, 222586, Note_on_c, 0, 57, 0
2, 222591, Control_c, 0, 64, 0
2, 222591, Note_on_c, 0, 53, 0
2, 222598, Note_on_c, 0, 52, 31
2, 222602, Note_on_c, 0, 59, 0
2, 222608, Note_on_c, 0, 67, 0
2, 222633, Note_on_c, 0, 52, 0
2, 222657, Note_on_c, 0, 76, 0
2, 222680, Note_on_c, 0, 77, 99
2, 222684, Note_on_c, 0, 52, 70
2, 222684, Note_on_c, 0, 61, 82
2, 222689, Note_on_c, 0, 69, 92
2, 222731, Note_on_c, 0, 52, 0
2, 222753, Note_on_c, 0, 61, 0
2, 222760, Note_on_c, 0, 69, 0
2, 222801, Note_on_c, 0, 77, 0
2, 222917, Note_on_c, 0, 62, 71
2, 222924, Note_on_c, 0, 50, 61
2, 222944, Note_on_c, 0, 62, 0
2, 222952, Note_on_c, 0, 50, 0
2, 222964, Note_on_c, 0, 79, 95
2, 222969, Note_on_c, 0, 71, 87
2, 222972, Control_c, 0, 64, 35
2, 222987, Control_c, 0, 64, 58
2, 223002, Control_c, 0, 64, 69
2, 223018, Control_c, 0, 64, 84
2, 223033, Control_c, 0, 64, 127
2, 223067, Note_on_c, 0, 71, 0
2, 223075, Note_on_c, 0, 79, 0
2, 223096, Note_on_c, 0, 45, 93
2, 223167, Note_on_c, 0, 45, 0
2, 223299, Control_c, 0, 64, 87
2, 223314, Control_c, 0, 64, 70
2, 223327, Note_on_c, 0, 73, 92
2, 223328, Note_on_c, 0, 81, 80
2, 223330, Control_c, 0, 64, 54
2, 223345, Control_c, 0, 64, 0
2, 223359, Note_on_c, 0, 64, 80
2, 223370, Note_on_c, 0, 55, 76
2, 223449, Note_on_c, 0, 81, 0
2, 223503, Note_on_c, 0, 79, 90
2, 223540, Note_on_c, 0, 73, 0
2, 223640, Note_on_c, 0, 77, 88
2, 223644, Note_on_c, 0, 73, 86
2, 223667, Note_on_c, 0, 79, 0
2, 223699, Note_on_c, 0, 73, 0
2, 223708, Control_c, 0, 64, 40
2, 223723, Control_c, 0, 64, 56
2, 223739, Control_c, 0, 64, 62
2, 223743, Note_on_c, 0, 77, 0
2, 223754, Control_c, 0, 64, 64
2, 223760, Note_on_c, 0, 79, 83
2, 223764, Note_on_c, 0, 71, 82
2, 223784, Control_c, 0, 64, 63
2, 223800, Note_on_c, 0, 71, 0
2, 223816, Control_c, 0, 64, 63
2, 223847, Control_c, 0, 64, 62
2, 223861, Control_c, 0, 64, 62
2, 223876, Control_c, 0, 64, 61
2, 223892, Control_c, 0, 64, 59
2, 223892, Note_on_c, 0, 79, 0
2, 223895, Note_on_c, 0, 55, 0
2, 223895, Note_on_c, 0, 81, 84
2, 223898, Note_on_c, 0, 73, 85
2, 223907, Control_c, 0, 64, 54
2, 223922, Control_c, 0, 64, 46
2, 223925, Note_on_c, 0, 64, 0
2, 223937, Control_c, 0, 64, 39
2, 223943, Note_on_c, 0, 73, 0
2, 223952, Control_c, 0, 64, 36
2, 223956, Note_on_c, 0, 81, 0
2, 223968, Control_c, 0, 64, 35
2, 223983, Control_c, 0, 64, 32
2, 223998, Control_c, 0, 64, 24
2, 224020, Control_c, 0, 64, 9
2, 224035, Control_c, 0, 64, 0
2, 224188, Note_on_c, 0, 62, 80
2, 224188, Note_on_c, 0, 82, 94
2, 224196, Note_on_c, 0, 53, 76
2, 224197, Note_on_c, 0, 74, 82
2, 224234, Note_on_c, 0, 62, 0
2, 224247, Note_on_c, 0, 82, 0
2, 224253, Note_on_c, 0, 74, 0
2, 224263, Note_on_c, 0, 53, 0
2, 224340, Control_c, 0, 64, 31
2, 224354, Control_c, 0, 64, 48
2, 224369, Control_c, 0, 64, 56
2, 224384, Control_c, 0, 64, 59
2, 224399, Control_c, 0, 64, 60
2, 224415, Control_c, 0, 64, 59
2, 224430, Control_c, 0, 64, 58
2, 224445, Control_c, 0, 64, 57
2, 224461, Control_c, 0, 64, 57
2, 224476, Control_c, 0, 64, 55
2, 224482, Note_on_c, 0, 76, 87
2, 224483, Note_on_c, 0, 73, 75
2, 224484, Note_on_c, 0, 67, 78
2, 224488, Note_on_c, 0, 52, 72
2, 224492, Control_c, 0, 64, 52
2, 224492, Note_on_c, 0, 45, 81
2, 224506, Control_c, 0, 64, 47
2, 224521, Control_c, 0, 64, 42
2, 224537, Control_c, 0, 64, 36
2, 224551, Control_c, 0, 64, 29
2, 224567, Control_c, 0, 64, 18
2, 224582, Control_c, 0, 64, 0
2, 224602, Note_on_c, 0, 76, 0
2, 224609, Note_on_c, 0, 67, 0
2, 224620, Note_on_c, 0, 74, 86
2, 224632, Note_on_c, 0, 73, 0
2, 224751, Note_on_c, 0, 73, 82
2, 224752, Note_on_c, 0, 69, 81
2, 224798, Note_on_c, 0, 74, 0
2, 224864, Note_on_c, 0, 73, 0
2, 224887, Note_on_c, 0, 74, 92
2, 224965, Note_on_c, 0, 74, 0
2, 225036, Note_on_c, 0, 76, 94
2, 225138, Control_c, 0, 64, 17
2, 225152, Control_c, 0, 64, 48
2, 225168, Control_c, 0, 64, 61
2, 225183, Control_c, 0, 64, 66
2, 225190, Note_on_c, 0, 76, 0
2, 225197, Control_c, 0, 64, 74
2, 225211, Note_on_c, 0, 69, 0
2, 225213, Control_c, 0, 64, 80
2, 225228, Control_c, 0, 64, 84
2, 225243, Control_c, 0, 64, 85
2, 225259, Control_c, 0, 64, 86
2, 225335, Control_c, 0, 64, 85
2, 225335, Note_on_c, 0, 50, 76
2, 225341, Note_on_c, 0, 52, 0
2, 225350, Control_c, 0, 64, 83
2, 225363, Note_on_c, 0, 45, 0
2, 225365, Control_c, 0, 64, 79
2, 225381, Control_c, 0, 64, 70
2, 225395, Control_c, 0, 64, 50
2, 225399, Note_on_c, 0, 65, 86
2, 225399, Note_on_c, 0, 77, 91
2, 225402, Note_on_c, 0, 74, 77
2, 225411, Control_c, 0, 64, 0
2, 225472, Control_c, 0, 64, 27
2, 225488, Control_c, 0, 64, 59
2, 225494, Note_on_c, 0, 65, 0
2, 225503, Control_c, 0, 64, 68
2, 225518, Control_c, 0, 64, 81
2, 225534, Control_c, 0, 64, 111
2, 225552, Note_on_c, 0, 45, 87
2, 225554, Note_on_c, 0, 74, 0
2, 225556, Control_c, 0, 64, 127
2, 225562, Note_on_c, 0, 77, 0
2, 225570, Note_on_c, 0, 64, 100
2, 225598, Note_on_c, 0, 50, 0
2, 225677, Note_on_c, 0, 64, 0
2, 225739, Control_c, 0, 64, 99
2, 225754, Control_c, 0, 64, 81
2, 225770, Control_c, 0, 64, 66
2, 225784, Control_c, 0, 64, 37
2, 225799, Control_c, 0, 64, 0
2, 225824, Note_on_c, 0, 74, 87
2, 225831, Note_on_c, 0, 62, 81
2, 225836, Note_on_c, 0, 68, 72
2, 225848, Note_on_c, 0, 59, 80
2, 225889, Note_on_c, 0, 73, 13
2, 225928, Note_on_c, 0, 73, 0
2, 226034, Note_on_c, 0, 74, 0
2, 226048, Note_on_c, 0, 72, 83
2, 226193, Note_on_c, 0, 72, 0
2, 226209, Note_on_c, 0, 71, 78
2, 226242, Note_on_c, 0, 62, 0
2, 226251, Control_c, 0, 64, 31
2, 226268, Control_c, 0, 64, 53
2, 226283, Control_c, 0, 64, 62
2, 226299, Control_c, 0, 64, 68
2, 226321, Control_c, 0, 64, 74
2, 226323, Note_on_c, 0, 68, 0
2, 226337, Control_c, 0, 64, 81
2, 226351, Control_c, 0, 64, 84
2, 226360, Note_on_c, 0, 72, 91
2, 226362, Note_on_c, 0, 71, 0
2, 226366, Control_c, 0, 64, 84
2, 226382, Control_c, 0, 64, 81
2, 226397, Control_c, 0, 64, 77
2, 226411, Note_on_c, 0, 72, 0
2, 226412, Control_c, 0, 64, 69
2, 226427, Control_c, 0, 64, 58
2, 226442, Control_c, 0, 64, 0
2, 226513, Note_on_c, 0, 74, 95
2, 226549, Control_c, 0, 64, 46
2, 226562, Note_on_c, 0, 45, 0
2, 226564, Control_c, 0, 64, 61
2, 226580, Control_c, 0, 64, 68
2, 226594, Control_c, 0, 64, 75
2, 226609, Control_c, 0, 64, 86
2, 226625, Control_c, 0, 64, 94
2, 226631, Note_on_c, 0, 59, 0
2, 226640, Control_c, 0, 64, 98
2, 226684, Note_on_c, 0, 74, 0
2, 226684, Note_on_c, 0, 76, 95
2, 226702, Control_c, 0, 64, 98
2, 226717, Control_c, 0, 64, 99
2, 226762, Control_c, 0, 64, 98
2, 226778, Control_c, 0, 64, 98
2, 226792, Control_c, 0, 64, 97
2, 226807, Control_c, 0, 64, 96
2, 226823, Control_c, 0, 64, 95
2, 226838, Control_c, 0, 64, 93
2, 226854, Control_c, 0, 64, 90
2, 226865, Note_on_c, 0, 76, 0
2, 226869, Control_c, 0, 64, 83
2, 226883, Control_c, 0, 64, 73
2, 226883, Note_on_c, 0, 78, 93
2, 226896, Note_on_c, 0, 62, 85
2, 226897, Note_on_c, 0, 74, 81
2, 226899, Control_c, 0, 64, 63
2, 226914, Control_c, 0, 64, 21
2, 226929, Control_c, 0, 64, 0
2, 227087, Note_on_c, 0, 80, 95
2, 227091, Note_on_c, 0, 64, 88
2, 227100, Note_on_c, 0, 62, 0
2, 227114, Note_on_c, 0, 78, 0
2, 227195, Note_on_c, 0, 74, 0
2, 227196, Control_c, 0, 64, 26
2, 227211, Control_c, 0, 64, 54
2, 227225, Note_on_c, 0, 80, 0
2, 227227, Control_c, 0, 64, 64
2, 227231, Note_on_c, 0, 64, 0
2, 227241, Control_c, 0, 64, 71
2, 227257, Control_c, 0, 64, 84
2, 227272, Control_c, 0, 64, 105
2, 227287, Control_c, 0, 64, 127
2, 227470, Control_c, 0, 64, 114
2, 227482, Note_on_c, 0, 81, 94
2, 227485, Control_c, 0, 64, 104
2, 227494, Note_on_c, 0, 65, 86
2, 227498, Note_on_c, 0, 57, 79
2, 227501, Control_c, 0, 64, 91
2, 227501, Note_on_c, 0, 74, 73
2, 227515, Control_c, 0, 64, 81
2, 227530, Control_c, 0, 64, 71
2, 227546, Control_c, 0, 64, 61
2, 227561, Control_c, 0, 64, 30
2, 227577, Control_c, 0, 64, 0
2, 227682, Control_c, 0, 64, 22
2, 227698, Control_c, 0, 64, 48
2, 227713, Control_c, 0, 64, 59
2, 227727, Control_c, 0, 64, 64
2, 227743, Control_c, 0, 64, 67
2, 227758, Control_c, 0, 64, 69
2, 227774, Control_c, 0, 64, 73
2, 227788, Control_c, 0, 64, 77
2, 227791, Note_on_c, 0, 65, 0
2, 227803, Control_c, 0, 64, 82
2, 227819, Control_c, 0, 64, 87
2, 227829, Note_on_c, 0, 74, 0
2, 227834, Control_c, 0, 64, 91
2, 227980, Control_c, 0, 64, 90
2, 227995, Control_c, 0, 64, 90
2, 228010, Control_c, 0, 64, 89
2, 228026, Control_c, 0, 64, 87
2, 228040, Control_c, 0, 64, 86
2, 228056, Control_c, 0, 64, 84
2, 228060, Note_on_c, 0, 76, 78
2, 228061, Note_on_c, 0, 61, 71
2, 228061, Note_on_c, 0, 64, 76
2, 228064, Note_on_c, 0, 73, 79
2, 228071, Control_c, 0, 64, 79
2, 228085, Control_c, 0, 64, 74
2, 228101, Control_c, 0, 64, 67
2, 228116, Control_c, 0, 64, 61
2, 228131, Control_c, 0, 64, 53
2, 228147, Control_c, 0, 64, 44
2, 228161, Control_c, 0, 64, 35
2, 228170, Note_on_c, 0, 62, 83
2, 228170, Note_on_c, 0, 77, 82
2, 228177, Control_c, 0, 64, 26
2, 228177, Note_on_c, 0, 59, 74
2, 228177, Note_on_c, 0, 74, 85
2, 228192, Control_c, 0, 64, 11
2, 228196, Note_on_c, 0, 64, 0
2, 228197, Note_on_c, 0, 73, 0
2, 228200, Note_on_c, 0, 61, 0
2, 228207, Control_c, 0, 64, 0
2, 228207, Note_on_c, 0, 76, 0
2, 228250, Note_on_c, 0, 74, 0
2, 228308, Note_on_c, 0, 62, 0
2, 228309, Note_on_c, 0, 76, 90
2, 228316, Note_on_c, 0, 64, 89
2, 228317, Note_on_c, 0, 61, 82
2, 228318, Note_on_c, 0, 73, 82
2, 228325, Note_on_c, 0, 59, 0
2, 228352, Note_on_c, 0, 77, 0
2, 228496, Control_c, 0, 64, 18
2, 228511, Control_c, 0, 64, 45
2, 228526, Control_c, 0, 64, 58
2, 228538, Note_on_c, 0, 64, 0
2, 228542, Control_c, 0, 64, 64
2, 228557, Control_c, 0, 64, 67
2, 228571, Control_c, 0, 64, 71
2, 228572, Note_on_c, 0, 73, 0
2, 228583, Note_on_c, 0, 76, 0
2, 228587, Control_c, 0, 64, 73
2, 228602, Control_c, 0, 64, 75
2, 228626, Control_c, 0, 64, 76
2, 228641, Control_c, 0, 64, 76
2, 228671, Control_c, 0, 64, 76
2, 228701, Control_c, 0, 64, 75
2, 228717, Control_c, 0, 64, 75
2, 228732, Control_c, 0, 64, 74
2, 228748, Control_c, 0, 64, 73
2, 228763, Control_c, 0, 64, 73
2, 228763, Note_on_c, 0, 61, 0
2, 228779, Control_c, 0, 64, 71
2, 228794, Control_c, 0, 64, 69
2, 228808, Control_c, 0, 64, 66
2, 228824, Control_c, 0, 64, 61
2, 228836, Note_on_c, 0, 74, 91
2, 228839, Control_c, 0, 64, 41
2, 228844, Note_on_c, 0, 71, 86
2, 228845, Note_on_c, 0, 65, 82
2, 228847, Note_on_c, 0, 62, 77
2, 228855, Control_c, 0, 64, 0
2, 228960, Control_c, 0, 64, 31
2, 228976, Control_c, 0, 64, 53
2, 228991, Control_c, 0, 64, 62
2, 228993, Note_on_c, 0, 71, 0
2, 229005, Control_c, 0, 64, 66
2, 229021, Control_c, 0, 64, 71
2, 229036, Control_c, 0, 64, 75
2, 229051, Control_c, 0, 64, 79
2, 229052, Note_on_c, 0, 65, 0
2, 229067, Control_c, 0, 64, 83
2, 229069, Note_on_c, 0, 74, 0
2, 229081, Control_c, 0, 64, 87
2, 229097, Control_c, 0, 64, 90
2, 229112, Control_c, 0, 64, 92
2, 229127, Control_c, 0, 64, 92
2, 229142, Control_c, 0, 64, 93
2, 229146, Note_on_c, 0, 62, 0
2, 229157, Control_c, 0, 64, 93
2, 229180, Note_on_c, 0, 57, 0
2, 229262, Note_on_c, 0, 68, 97
2, 229279, Control_c, 0, 64, 93
2, 229295, Control_c, 0, 64, 92
2, 229310, Control_c, 0, 64, 92
2, 229325, Control_c, 0, 64, 91
2, 229340, Control_c, 0, 64, 89
2, 229355, Control_c, 0, 64, 87
2, 229370, Control_c, 0, 64, 86
2, 229393, Control_c, 0, 64, 84
2, 229408, Control_c, 0, 64, 80
2, 229424, Control_c, 0, 64, 75
2, 229439, Control_c, 0, 64, 67
2, 229454, Control_c, 0, 64, 51
2, 229469, Control_c, 0, 64, 0
2, 229539, Note_on_c, 0, 45, 90
2, 229544, Note_on_c, 0, 81, 0
2, 229561, Control_c, 0, 64, 16
2, 229577, Control_c, 0, 64, 53
2, 229589, Note_on_c, 0, 68, 0
2, 229592, Control_c, 0, 64, 66
2, 229607, Control_c, 0, 64, 76
2, 229622, Control_c, 0, 64, 94
2, 229628, Note_on_c, 0, 45, 0
2, 229637, Control_c, 0, 64, 127
2, 230202, Note_on_c, 0, 69, 85
2, 230207, Note_on_c, 0, 64, 75
2, 230212, Note_on_c, 0, 57, 73
2, 230214, Note_on_c, 0, 73, 88
2, 230255, Control_c, 0, 64, 95
2, 230269, Control_c, 0, 64, 71
2, 230284, Control_c, 0, 64, 57
2, 230297, Note_on_c, 0, 71, 86
2, 230300, Control_c, 0, 64, 0
2, 230312, Note_on_c, 0, 73, 0
2, 230383, Note_on_c, 0, 73, 95
2, 230401, Note_on_c, 0, 71, 0
2, 231776, Control_c, 0, 64, 17
2, 231791, Control_c, 0, 64, 32
2, 231805, Control_c, 0, 64, 43
2, 231821, Control_c, 0, 64, 51
2, 231836, Control_c, 0, 64, 56
2, 231852, Control_c, 0, 64, 59
2, 231867, Control_c, 0, 64, 60
2, 231881, Control_c, 0, 64, 62
2, 231897, Control_c, 0, 64, 63
2, 231912, Control_c, 0, 64, 64
2, 231928, Control_c, 0, 64, 65
2, 231943, Control_c, 0, 64, 66
2, 231957, Control_c, 0, 64, 68
2, 231973, Control_c, 0, 64, 70
2, 231988, Control_c, 0, 64, 72
2, 232004, Control_c, 0, 64, 75
2, 232020, Control_c, 0, 64, 78
2, 232034, Control_c, 0, 64, 80
2, 232050, Control_c, 0, 64, 83
2, 232065, Control_c, 0, 64, 85
2, 232080, Control_c, 0, 64, 88
2, 232096, Control_c, 0, 64, 89
2, 232110, Control_c, 0, 64, 91
2, 232125, Control_c, 0, 64, 93
2, 232141, Control_c, 0, 64, 95
2, 232156, Control_c, 0, 64, 97
2, 232172, Control_c, 0, 64, 102
2, 232186, Control_c, 0, 64, 106
2, 232201, Control_c, 0, 64, 113
2, 232217, Control_c, 0, 64, 127
2, 232724, Note_on_c, 0, 69, 0
2, 232777, Note_on_c, 0, 64, 0
2, 232783, Note_on_c, 0, 57, 0
2, 232854, Note_on_c, 0, 73, 0
2, 232878, Control_c, 0, 64, 121
2, 232894, Control_c, 0, 64, 92
2, 232909, Control_c, 0, 64, 75
2, 232924, Control_c, 0, 64, 63
2, 232940, Control_c, 0, 64, 43
2, 232954, Control_c, 0, 64, 20
2, 232970, Control_c, 0, 64, 17
2, 233000, Control_c, 0, 64, 0
2, 233137, Control_c, 0, 66, 0
2, 233138, End_track
0, 0, End_of_file
