0, 0, Header, 1, 2, 384
1, 0, Start_track
1, 0, Tempo, 500000
1, 0, Time_signature, 4, 2, 24, 8
1, 1, End_track
2,0,Start_track
2,0, Note_on_c, 0, 57, 46
2,21, Control_c, 0, 67, 21
2,50, Control_c, 0, 67, 20
2,66, Control_c, 0, 67, 19
2,112, Control_c, 0, 67, 19
2,122, Note_on_c, 0, 56, 55
2,124, Note_on_c, 0, 57, 0
2,126, Control_c, 0, 67, 18
2,142, Control_c, 0, 67, 18
2,157, Control_c, 0, 67, 12
2,172, Control_c, 0, 67, 0
2,256, Note_on_c, 0, 57, 60
2,281, Note_on_c, 0, 56, 0
2,328, Note_on_c, 0, 57, 0
2,540, Note_on_c, 0, 59, 57
2,591, Note_on_c, 0, 59, 0
2,788, Control_c, 0, 64, 22
2,804, Control_c, 0, 64, 40
2,820, Control_c, 0, 64, 54
2,824, Note_on_c, 0, 60, 55
2,835, Control_c, 0, 64, 62
2,849, Control_c, 0, 64, 66
2,865, Control_c, 0, 64, 71
2,880, Control_c, 0, 64, 77
2,894, Control_c, 0, 64, 85
2,894, Note_on_c, 0, 60, 0
2,910, Control_c, 0, 64, 96
2,925, Control_c, 0, 64, 127
2,1099, Note_on_c, 0, 60, 58
2,1123, Control_c, 0, 64, 106
2,1139, Control_c, 0, 64, 94
2,1154, Control_c, 0, 64, 83
2,1169, Control_c, 0, 64, 72
2,1184, Control_c, 0, 64, 64
2,1199, Control_c, 0, 64, 48
2,1208, Note_on_c, 0, 59, 66
2,1208, Note_on_c, 0, 60, 0
2,1214, Control_c, 0, 64, 31
2,1229, Control_c, 0, 64, 26
2,1260, Control_c, 0, 64, 24
2,1275, Control_c, 0, 64, 18
2,1290, Control_c, 0, 64, 0
2,1347, Note_on_c, 0, 60, 73
2,1363, Note_on_c, 0, 59, 0
2,1386, Note_on_c, 0, 60, 0
2,1601, Note_on_c, 0, 62, 68
2,1632, Note_on_c, 0, 62, 0
2,1853, Note_on_c, 0, 64, 60
2,1975, Note_on_c, 0, 62, 64
2,1984, Note_on_c, 0, 64, 0
2,2111, Note_on_c, 0, 60, 69
2,2113, Note_on_c, 0, 62, 0
2,2225, Note_on_c, 0, 62, 69
2,2230, Note_on_c, 0, 60, 0
2,2340, Note_on_c, 0, 64, 72
2,2349, Note_on_c, 0, 62, 0
2,2389, Note_on_c, 0, 64, 0
2,2597, Note_on_c, 0, 65, 64
2,2647, Note_on_c, 0, 65, 0
2,2853, Note_on_c, 0, 56, 52
2,2914, Note_on_c, 0, 56, 0
2,3123, Note_on_c, 0, 52, 42
2,3190, Note_on_c, 0, 52, 0
2,3670, Note_on_c, 0, 57, 48
2,3732, Note_on_c, 0, 57, 0
2,3913, Note_on_c, 0, 59, 55
2,4037, Note_on_c, 0, 60, 56
2,4044, Note_on_c, 0, 59, 0
2,4160, Note_on_c, 0, 57, 61
2,4162, Note_on_c, 0, 60, 0
2,4275, Note_on_c, 0, 59, 65
2,4308, Note_on_c, 0, 57, 0
2,4417, Note_on_c, 0, 60, 71
2,4430, Note_on_c, 0, 59, 0
2,4543, Note_on_c, 0, 62, 71
2,4553, Note_on_c, 0, 60, 0
2,4668, Note_on_c, 0, 59, 66
2,4678, Note_on_c, 0, 62, 0
2,4791, Note_on_c, 0, 60, 69
2,4804, Note_on_c, 0, 59, 0
2,4923, Note_on_c, 0, 60, 0
2,4929, Note_on_c, 0, 62, 67
2,4973, Note_on_c, 0, 62, 0
2,5197, Note_on_c, 0, 60, 59
2,5240, Note_on_c, 0, 60, 0
2,5456, Note_on_c, 0, 59, 53
2,5506, Note_on_c, 0, 59, 0
2,5717, Note_on_c, 0, 64, 49
2,5771, Note_on_c, 0, 64, 0
2,6000, Note_on_c, 0, 57, 54
2,6265, Note_on_c, 0, 64, 60
2,6356, Note_on_c, 0, 64, 0
2,6360, Note_on_c, 0, 63, 67
2,6494, Note_on_c, 0, 55, 58
2,6494, Note_on_c, 0, 64, 68
2,6497, Note_on_c, 0, 63, 0
2,6507, Note_on_c, 0, 57, 0
2,6544, Note_on_c, 0, 55, 0
2,6547, Note_on_c, 0, 64, 0
2,6770, Note_on_c, 0, 54, 60
2,6774, Note_on_c, 0, 66, 72
2,6816, Note_on_c, 0, 54, 0
2,6825, Note_on_c, 0, 66, 0
2,7042, Note_on_c, 0, 67, 68
2,7053, Control_c, 0, 64, 36
2,7055, Note_on_c, 0, 52, 53
2,7068, Control_c, 0, 64, 56
2,7083, Control_c, 0, 64, 64
2,7099, Control_c, 0, 64, 68
2,7109, Note_on_c, 0, 52, 0
2,7114, Control_c, 0, 64, 72
2,7129, Control_c, 0, 64, 76
2,7129, Note_on_c, 0, 67, 0
2,7144, Control_c, 0, 64, 77
2,7159, Control_c, 0, 64, 79
2,7174, Control_c, 0, 64, 82
2,7190, Control_c, 0, 64, 84
2,7204, Control_c, 0, 64, 85
2,7220, Control_c, 0, 64, 84
2,7235, Control_c, 0, 64, 82
2,7250, Control_c, 0, 64, 79
2,7266, Control_c, 0, 64, 74
2,7281, Control_c, 0, 64, 68
2,7295, Control_c, 0, 64, 61
2,7300, Note_on_c, 0, 60, 63
2,7303, Note_on_c, 0, 67, 67
2,7311, Control_c, 0, 64, 47
2,7326, Control_c, 0, 64, 30
2,7340, Note_on_c, 0, 60, 0
2,7343, Control_c, 0, 64, 12
2,7358, Control_c, 0, 64, 0
2,7397, Note_on_c, 0, 67, 0
2,7409, Note_on_c, 0, 66, 73
2,7496, Note_on_c, 0, 66, 0
2,7550, Note_on_c, 0, 67, 77
2,7557, Note_on_c, 0, 59, 67
2,7595, Note_on_c, 0, 59, 0
2,7609, Note_on_c, 0, 67, 0
2,7817, Note_on_c, 0, 57, 56
2,7818, Note_on_c, 0, 69, 67
2,7861, Note_on_c, 0, 57, 0
2,7868, Note_on_c, 0, 69, 0
2,8072, Note_on_c, 0, 71, 65
2,8079, Note_on_c, 0, 55, 49
2,8191, Note_on_c, 0, 69, 72
2,8194, Note_on_c, 0, 54, 61
2,8204, Note_on_c, 0, 71, 0
2,8205, Note_on_c, 0, 55, 0
2,8295, Note_on_c, 0, 54, 0
2,8304, Note_on_c, 0, 52, 59
2,8313, Note_on_c, 0, 67, 76
2,8328, Note_on_c, 0, 69, 0
2,8407, Note_on_c, 0, 52, 0
2,8419, Note_on_c, 0, 54, 68
2,8427, Note_on_c, 0, 69, 81
2,8435, Note_on_c, 0, 67, 0
2,8560, Note_on_c, 0, 71, 77
2,8567, Note_on_c, 0, 55, 57
2,8568, Note_on_c, 0, 54, 0
2,8575, Note_on_c, 0, 69, 0
2,8609, Note_on_c, 0, 55, 0
2,8624, Note_on_c, 0, 71, 0
2,8819, Note_on_c, 0, 72, 72
2,8826, Note_on_c, 0, 57, 54
2,8871, Note_on_c, 0, 72, 0
2,8882, Note_on_c, 0, 57, 0
2,9099, Note_on_c, 0, 59, 49
2,9099, Note_on_c, 0, 63, 67
2,9166, Note_on_c, 0, 63, 0
2,9206, Note_on_c, 0, 59, 0
2,9208, Note_on_c, 0, 57, 48
2,9324, Note_on_c, 0, 57, 0
2,9339, Note_on_c, 0, 55, 48
2,9347, Note_on_c, 0, 59, 57
2,9414, Note_on_c, 0, 59, 0
2,9466, Note_on_c, 0, 55, 0
2,9468, Note_on_c, 0, 57, 54
2,9585, Note_on_c, 0, 57, 0
2,9608, Note_on_c, 0, 59, 60
2,9647, Note_on_c, 0, 59, 0
2,9869, Note_on_c, 0, 64, 58
2,9877, Note_on_c, 0, 60, 58
2,9935, Note_on_c, 0, 64, 0
2,10138, Note_on_c, 0, 66, 57
2,10245, Note_on_c, 0, 67, 62
2,10265, Note_on_c, 0, 66, 0
2,10384, Note_on_c, 0, 64, 64
2,10390, Note_on_c, 0, 59, 57
2,10417, Note_on_c, 0, 67, 0
2,10493, Note_on_c, 0, 66, 69
2,10495, Note_on_c, 0, 57, 67
2,10497, Note_on_c, 0, 60, 0
2,10505, Note_on_c, 0, 59, 0
2,10508, Note_on_c, 0, 64, 0
2,10628, Note_on_c, 0, 57, 0
2,10631, Note_on_c, 0, 67, 75
2,10637, Note_on_c, 0, 59, 67
2,10664, Note_on_c, 0, 66, 0
2,10710, Note_on_c, 0, 59, 0
2,10756, Note_on_c, 0, 69, 79
2,10761, Note_on_c, 0, 67, 0
2,10887, Note_on_c, 0, 64, 71
2,10892, Note_on_c, 0, 66, 74
2,10915, Note_on_c, 0, 69, 0
2,11007, Note_on_c, 0, 67, 74
2,11022, Note_on_c, 0, 66, 0
2,11098, Note_on_c, 0, 67, 0
2,11153, Note_on_c, 0, 69, 74
2,11206, Note_on_c, 0, 69, 0
2,11407, Note_on_c, 0, 67, 66
2,11423, Note_on_c, 0, 62, 57
2,11426, Note_on_c, 0, 64, 0
2,11456, Note_on_c, 0, 67, 0
2,11515, Note_on_c, 0, 62, 0
2,11533, Note_on_c, 0, 61, 56
2,11655, Note_on_c, 0, 66, 65
2,11660, Note_on_c, 0, 61, 0
2,11662, Note_on_c, 0, 62, 54
2,11693, Note_on_c, 0, 66, 0
2,11921, Note_on_c, 0, 71, 66
2,11960, Note_on_c, 0, 71, 0
2,12198, Note_on_c, 0, 64, 58
2,12461, Note_on_c, 0, 66, 58
2,12474, Note_on_c, 0, 60, 54
2,12485, Note_on_c, 0, 64, 0
2,12493, Note_on_c, 0, 62, 0
2,12580, Note_on_c, 0, 68, 70
2,12590, Note_on_c, 0, 59, 62
2,12593, Note_on_c, 0, 60, 0
2,12603, Note_on_c, 0, 66, 0
2,12712, Note_on_c, 0, 69, 76
2,12717, Note_on_c, 0, 68, 0
2,12718, Note_on_c, 0, 60, 68
2,12733, Note_on_c, 0, 59, 0
2,12843, Note_on_c, 0, 71, 78
2,12850, Note_on_c, 0, 69, 0
2,12967, Note_on_c, 0, 72, 78
2,12985, Note_on_c, 0, 71, 0
2,13079, Note_on_c, 0, 72, 0
2,13088, Note_on_c, 0, 74, 79
2,13221, Note_on_c, 0, 76, 80
2,13224, Note_on_c, 0, 74, 0
2,13280, Note_on_c, 0, 76, 0
2,13343, Note_on_c, 0, 60, 0
2,13354, Note_on_c, 0, 69, 68
2,13407, Note_on_c, 0, 69, 0
2,13480, Note_on_c, 0, 67, 61
2,13480, Note_on_c, 0, 69, 72
2,13525, Note_on_c, 0, 69, 0
2,13586, Note_on_c, 0, 67, 0
2,13605, Note_on_c, 0, 65, 57
2,13724, Note_on_c, 0, 65, 0
2,13725, Note_on_c, 0, 68, 69
2,13740, Note_on_c, 0, 64, 56
2,13780, Note_on_c, 0, 68, 0
2,13788, Note_on_c, 0, 69, 69
2,13831, Note_on_c, 0, 69, 0
2,13850, Note_on_c, 0, 68, 68
2,13854, Note_on_c, 0, 64, 0
2,13864, Note_on_c, 0, 62, 56
2,13981, Note_on_c, 0, 62, 0
2,13991, Note_on_c, 0, 60, 55
2,14088, Note_on_c, 0, 60, 0
2,14098, Note_on_c, 0, 68, 0
2,14110, Note_on_c, 0, 59, 59
2,14213, Note_on_c, 0, 59, 0
2,14226, Note_on_c, 0, 60, 55
2,14228, Note_on_c, 0, 69, 57
2,14289, Note_on_c, 0, 60, 0
2,14347, Note_on_c, 0, 59, 62
2,14351, Note_on_c, 0, 69, 0
2,14406, Note_on_c, 0, 59, 0
2,14481, Note_on_c, 0, 69, 61
2,14486, Note_on_c, 0, 45, 68
2,14488, Note_on_c, 0, 60, 51
2,14579, Note_on_c, 0, 69, 0
2,14594, Note_on_c, 0, 44, 75
2,14599, Note_on_c, 0, 45, 0
2,14668, Note_on_c, 0, 44, 0
2,14728, Note_on_c, 0, 67, 68
2,14730, Note_on_c, 0, 45, 74
2,14736, Note_on_c, 0, 60, 0
2,14801, Note_on_c, 0, 45, 0
2,14803, Note_on_c, 0, 67, 0
2,14990, Note_on_c, 0, 65, 58
2,14996, Note_on_c, 0, 47, 75
2,14996, Note_on_c, 0, 62, 52
2,15055, Note_on_c, 0, 47, 0
2,15067, Note_on_c, 0, 62, 0
2,15067, Note_on_c, 0, 65, 0
2,15256, Note_on_c, 0, 64, 65
2,15257, Note_on_c, 0, 48, 64
2,15288, Control_c, 0, 64, 38
2,15304, Control_c, 0, 64, 55
2,15319, Control_c, 0, 64, 63
2,15335, Control_c, 0, 64, 68
2,15342, Note_on_c, 0, 48, 0
2,15350, Control_c, 0, 64, 75
2,15357, Note_on_c, 0, 64, 0
2,15364, Control_c, 0, 64, 83
2,15380, Control_c, 0, 64, 91
2,15387, Note_on_c, 0, 62, 67
2,15395, Control_c, 0, 64, 94
2,15410, Control_c, 0, 64, 93
2,15425, Note_on_c, 0, 62, 0
2,15426, Control_c, 0, 64, 91
2,15440, Control_c, 0, 64, 86
2,15456, Control_c, 0, 64, 79
2,15471, Control_c, 0, 64, 70
2,15486, Control_c, 0, 64, 63
2,15501, Control_c, 0, 64, 50
2,15506, Note_on_c, 0, 48, 72
2,15509, Note_on_c, 0, 72, 74
2,15516, Control_c, 0, 64, 33
2,15523, Note_on_c, 0, 64, 65
2,15531, Control_c, 0, 64, 21
2,15548, Control_c, 0, 64, 21
2,15563, Control_c, 0, 64, 19
2,15579, Control_c, 0, 64, 12
2,15593, Control_c, 0, 64, 0
2,15620, Note_on_c, 0, 47, 71
2,15632, Note_on_c, 0, 48, 0
2,15679, Note_on_c, 0, 47, 0
2,15681, Note_on_c, 0, 72, 0
2,15760, Note_on_c, 0, 48, 78
2,15767, Note_on_c, 0, 71, 71
2,15813, Note_on_c, 0, 64, 0
2,15819, Note_on_c, 0, 48, 0
2,15823, Note_on_c, 0, 71, 0
2,16021, Note_on_c, 0, 69, 69
2,16030, Note_on_c, 0, 50, 71
2,16041, Note_on_c, 0, 65, 53
2,16086, Note_on_c, 0, 69, 0
2,16109, Note_on_c, 0, 50, 0
2,16278, Note_on_c, 0, 52, 64
2,16285, Note_on_c, 0, 68, 62
2,16367, Note_on_c, 0, 65, 0
2,16393, Note_on_c, 0, 50, 73
2,16397, Note_on_c, 0, 68, 0
2,16398, Note_on_c, 0, 66, 68
2,16415, Note_on_c, 0, 52, 0
2,16526, Note_on_c, 0, 76, 74
2,16529, Note_on_c, 0, 48, 77
2,16531, Note_on_c, 0, 66, 0
2,16535, Note_on_c, 0, 64, 68
2,16542, Note_on_c, 0, 50, 0
2,16616, Note_on_c, 0, 76, 0
2,16626, Note_on_c, 0, 48, 0
2,16641, Note_on_c, 0, 50, 81
2,16641, Note_on_c, 0, 64, 0
2,16645, Note_on_c, 0, 66, 71
2,16708, Note_on_c, 0, 50, 0
2,16736, Note_on_c, 0, 66, 0
2,16786, Note_on_c, 0, 52, 72
2,16791, Note_on_c, 0, 74, 72
2,16794, Note_on_c, 0, 68, 62
2,16834, Note_on_c, 0, 68, 0
2,16848, Note_on_c, 0, 52, 0
2,16868, Note_on_c, 0, 74, 0
2,17057, Note_on_c, 0, 72, 58
2,17058, Note_on_c, 0, 69, 50
2,17060, Note_on_c, 0, 53, 69
2,17102, Note_on_c, 0, 69, 0
2,17111, Note_on_c, 0, 53, 0
2,17137, Note_on_c, 0, 72, 0
2,17314, Note_on_c, 0, 44, 61
2,17318, Note_on_c, 0, 71, 59
2,17387, Note_on_c, 0, 44, 0
2,17439, Note_on_c, 0, 72, 58
2,17448, Note_on_c, 0, 71, 0
2,17589, Note_on_c, 0, 40, 57
2,17592, Note_on_c, 0, 74, 48
2,17671, Note_on_c, 0, 40, 0
2,17690, Note_on_c, 0, 74, 0
2,17705, Note_on_c, 0, 71, 57
2,17711, Note_on_c, 0, 72, 0
2,17845, Note_on_c, 0, 72, 61
2,17848, Note_on_c, 0, 71, 0
2,17965, Note_on_c, 0, 71, 66
2,17971, Note_on_c, 0, 72, 0
2,18094, Note_on_c, 0, 45, 65
2,18094, Note_on_c, 0, 69, 60
2,18104, Note_on_c, 0, 71, 0
2,18112, Control_c, 0, 64, 26
2,18126, Control_c, 0, 64, 47
2,18142, Control_c, 0, 64, 52
2,18157, Control_c, 0, 64, 52
2,18162, Note_on_c, 0, 45, 0
2,18171, Control_c, 0, 64, 52
2,18187, Control_c, 0, 64, 51
2,18209, Control_c, 0, 64, 50
2,18210, Note_on_c, 0, 69, 0
2,18216, Note_on_c, 0, 72, 68
2,18225, Control_c, 0, 64, 49
2,18250, Note_on_c, 0, 72, 0
2,18256, Control_c, 0, 64, 49
2,18286, Control_c, 0, 64, 48
2,18302, Control_c, 0, 64, 46
2,18317, Control_c, 0, 64, 43
2,18333, Control_c, 0, 64, 40
2,18337, Note_on_c, 0, 47, 63
2,18347, Control_c, 0, 64, 37
2,18349, Note_on_c, 0, 74, 60
2,18360, Note_on_c, 0, 67, 56
2,18362, Control_c, 0, 64, 33
2,18378, Control_c, 0, 64, 30
2,18392, Control_c, 0, 64, 27
2,18407, Control_c, 0, 64, 24
2,18423, Control_c, 0, 64, 20
2,18438, Control_c, 0, 64, 15
2,18454, Control_c, 0, 64, 0
2,18462, Note_on_c, 0, 48, 64
2,18469, Note_on_c, 0, 76, 69
2,18470, Note_on_c, 0, 74, 0
2,18510, Note_on_c, 0, 47, 0
2,18587, Note_on_c, 0, 45, 71
2,18590, Note_on_c, 0, 48, 0
2,18604, Note_on_c, 0, 77, 76
2,18649, Note_on_c, 0, 76, 0
2,18722, Note_on_c, 0, 77, 0
2,18726, Note_on_c, 0, 47, 72
2,18726, Note_on_c, 0, 74, 73
2,18748, Note_on_c, 0, 45, 0
2,18855, Note_on_c, 0, 74, 0
2,18859, Note_on_c, 0, 76, 75
2,18862, Note_on_c, 0, 49, 71
2,18878, Note_on_c, 0, 47, 0
2,18928, Note_on_c, 0, 67, 0
2,18982, Note_on_c, 0, 50, 70
2,18987, Note_on_c, 0, 49, 0
2,18992, Note_on_c, 0, 65, 63
2,19113, Note_on_c, 0, 47, 68
2,19124, Note_on_c, 0, 64, 64
2,19124, Note_on_c, 0, 65, 0
2,19133, Note_on_c, 0, 50, 0
2,19225, Note_on_c, 0, 64, 0
2,19232, Note_on_c, 0, 49, 69
2,19237, Note_on_c, 0, 47, 0
2,19243, Note_on_c, 0, 67, 69
2,19273, Note_on_c, 0, 67, 0
2,19301, Note_on_c, 0, 49, 0
2,19378, Note_on_c, 0, 66, 62
2,19384, Note_on_c, 0, 50, 60
2,19397, Note_on_c, 0, 76, 0
2,19446, Note_on_c, 0, 50, 0
2,19648, Note_on_c, 0, 69, 53
2,19650, Note_on_c, 0, 48, 52
2,19687, Note_on_c, 0, 48, 0
2,19702, Note_on_c, 0, 69, 0
2,19921, Note_on_c, 0, 47, 51
2,19923, Note_on_c, 0, 68, 49
2,19928, Note_on_c, 0, 71, 46
2,19969, Note_on_c, 0, 47, 0
2,20020, Note_on_c, 0, 66, 0
2,20033, Note_on_c, 0, 71, 0
2,20036, Note_on_c, 0, 72, 61
2,20161, Note_on_c, 0, 72, 0
2,20175, Note_on_c, 0, 74, 54
2,20177, Note_on_c, 0, 52, 44
2,20230, Note_on_c, 0, 52, 0
2,20431, Note_on_c, 0, 45, 52
2,20434, Note_on_c, 0, 69, 56
2,20443, Note_on_c, 0, 68, 0
2,20447, Control_c, 0, 64, 13
2,20462, Control_c, 0, 64, 37
2,20477, Control_c, 0, 64, 52
2,20489, Note_on_c, 0, 45, 0
2,20493, Control_c, 0, 64, 61
2,20496, Note_on_c, 0, 69, 0
2,20515, Control_c, 0, 64, 65
2,20531, Control_c, 0, 64, 67
2,20546, Control_c, 0, 64, 69
2,20561, Control_c, 0, 64, 70
2,20577, Control_c, 0, 64, 71
2,20622, Control_c, 0, 64, 70
2,20637, Control_c, 0, 64, 69
2,20652, Control_c, 0, 64, 68
2,20667, Control_c, 0, 64, 66
2,20682, Control_c, 0, 64, 62
2,20695, Note_on_c, 0, 74, 0
2,20698, Control_c, 0, 64, 52
2,20700, Note_on_c, 0, 52, 70
2,20701, Note_on_c, 0, 69, 57
2,20703, Note_on_c, 0, 72, 61
2,20710, Note_on_c, 0, 47, 62
2,20713, Control_c, 0, 64, 36
2,20729, Control_c, 0, 64, 18
2,20737, Note_on_c, 0, 69, 0
2,20743, Control_c, 0, 64, 13
2,20746, Note_on_c, 0, 52, 0
2,20774, Control_c, 0, 64, 12
2,20783, Note_on_c, 0, 47, 0
2,20789, Control_c, 0, 64, 0
2,20809, Note_on_c, 0, 51, 75
2,20870, Note_on_c, 0, 51, 0
2,20879, Note_on_c, 0, 72, 0
2,20945, Note_on_c, 0, 52, 78
2,20948, Note_on_c, 0, 71, 68
2,20951, Note_on_c, 0, 67, 68
2,20960, Note_on_c, 0, 49, 65
2,20982, Note_on_c, 0, 71, 0
2,20985, Note_on_c, 0, 67, 0
2,20995, Note_on_c, 0, 49, 0
2,21000, Note_on_c, 0, 52, 0
2,21223, Note_on_c, 0, 54, 76
2,21223, Note_on_c, 0, 69, 70
2,21226, Note_on_c, 0, 51, 72
2,21229, Note_on_c, 0, 66, 59
2,21260, Note_on_c, 0, 51, 0
2,21260, Note_on_c, 0, 66, 0
2,21267, Note_on_c, 0, 54, 0
2,21269, Note_on_c, 0, 69, 0
2,21481, Control_c, 0, 64, 40
2,21494, Note_on_c, 0, 55, 74
2,21496, Control_c, 0, 64, 56
2,21496, Note_on_c, 0, 52, 63
2,21501, Note_on_c, 0, 64, 56
2,21502, Note_on_c, 0, 67, 52
2,21511, Control_c, 0, 64, 63
2,21527, Control_c, 0, 64, 68
2,21537, Note_on_c, 0, 55, 0
2,21537, Note_on_c, 0, 67, 0
2,21542, Control_c, 0, 64, 73
2,21544, Note_on_c, 0, 64, 0
2,21547, Note_on_c, 0, 52, 0
2,21557, Control_c, 0, 64, 79
2,21572, Control_c, 0, 64, 84
2,21587, Control_c, 0, 64, 88
2,21602, Control_c, 0, 64, 90
2,21634, Control_c, 0, 64, 89
2,21649, Control_c, 0, 64, 88
2,21664, Control_c, 0, 64, 87
2,21679, Control_c, 0, 64, 85
2,21695, Control_c, 0, 64, 83
2,21709, Control_c, 0, 64, 79
2,21724, Control_c, 0, 64, 74
2,21740, Control_c, 0, 64, 66
2,21750, Note_on_c, 0, 55, 74
2,21752, Note_on_c, 0, 76, 68
2,21755, Control_c, 0, 64, 59
2,21755, Note_on_c, 0, 52, 68
2,21763, Note_on_c, 0, 72, 61
2,21771, Control_c, 0, 64, 44
2,21786, Control_c, 0, 64, 27
2,21801, Control_c, 0, 64, 23
2,21811, Note_on_c, 0, 55, 0
2,21814, Note_on_c, 0, 72, 0
2,21817, Control_c, 0, 64, 22
2,21823, Note_on_c, 0, 52, 0
2,21832, Control_c, 0, 64, 20
2,21847, Control_c, 0, 64, 0
2,21854, Note_on_c, 0, 76, 0
2,21861, Note_on_c, 0, 50, 71
2,21861, Note_on_c, 0, 54, 81
2,21918, Note_on_c, 0, 50, 0
2,21919, Note_on_c, 0, 54, 0
2,21983, Note_on_c, 0, 52, 78
2,21984, Note_on_c, 0, 55, 83
2,21991, Note_on_c, 0, 74, 66
2,21996, Note_on_c, 0, 71, 69
2,22026, Note_on_c, 0, 74, 0
2,22034, Note_on_c, 0, 52, 0
2,22050, Note_on_c, 0, 71, 0
2,22053, Note_on_c, 0, 55, 0
2,22275, Note_on_c, 0, 57, 76
2,22275, Note_on_c, 0, 69, 73
2,22276, Note_on_c, 0, 72, 72
2,22280, Note_on_c, 0, 54, 72
2,22310, Note_on_c, 0, 72, 0
2,22312, Note_on_c, 0, 69, 0
2,22324, Note_on_c, 0, 54, 0
2,22327, Note_on_c, 0, 57, 0
2,22530, Note_on_c, 0, 71, 67
2,22546, Note_on_c, 0, 59, 68
2,22548, Note_on_c, 0, 67, 59
2,22556, Note_on_c, 0, 55, 61
2,22658, Note_on_c, 0, 67, 0
2,22659, Note_on_c, 0, 66, 66
2,22660, Note_on_c, 0, 57, 72
2,22675, Note_on_c, 0, 59, 0
2,22688, Note_on_c, 0, 55, 0
2,22772, Note_on_c, 0, 66, 0
2,22785, Note_on_c, 0, 55, 78
2,22786, Note_on_c, 0, 64, 65
2,22789, Note_on_c, 0, 57, 0
2,22877, Note_on_c, 0, 64, 0
2,22896, Note_on_c, 0, 55, 0
2,22901, Note_on_c, 0, 57, 79
2,22902, Note_on_c, 0, 66, 68
2,22951, Note_on_c, 0, 57, 0
2,22954, Note_on_c, 0, 66, 0
2,23033, Note_on_c, 0, 59, 84
2,23040, Note_on_c, 0, 67, 68
2,23077, Note_on_c, 0, 67, 0
2,23101, Note_on_c, 0, 59, 0
2,23302, Note_on_c, 0, 60, 70
2,23302, Note_on_c, 0, 71, 0
2,23308, Note_on_c, 0, 57, 61
2,23308, Note_on_c, 0, 69, 62
2,23316, Note_on_c, 0, 66, 57
2,23337, Note_on_c, 0, 57, 0
2,23387, Note_on_c, 0, 60, 0
2,23566, Note_on_c, 0, 51, 68
2,23598, Note_on_c, 0, 59, 33
2,23633, Note_on_c, 0, 59, 0
2,23638, Note_on_c, 0, 51, 0
2,23817, Note_on_c, 0, 47, 56
2,23821, Note_on_c, 0, 69, 0
2,23833, Note_on_c, 0, 66, 0
2,23840, Note_on_c, 0, 64, 51
2,23841, Note_on_c, 0, 67, 56
2,23898, Note_on_c, 0, 64, 0
2,23935, Note_on_c, 0, 47, 0
2,23939, Note_on_c, 0, 67, 0
2,23941, Note_on_c, 0, 63, 54
2,23943, Note_on_c, 0, 45, 64
2,23951, Note_on_c, 0, 66, 65
2,23971, Note_on_c, 0, 63, 0
2,23984, Note_on_c, 0, 66, 0
2,24012, Note_on_c, 0, 45, 0
2,24067, Note_on_c, 0, 67, 64
2,24070, Note_on_c, 0, 43, 66
2,24089, Note_on_c, 0, 64, 47
2,24112, Note_on_c, 0, 43, 0
2,24155, Note_on_c, 0, 67, 0
2,24181, Note_on_c, 0, 69, 58
2,24314, Note_on_c, 0, 71, 66
2,24315, Note_on_c, 0, 52, 70
2,24318, Note_on_c, 0, 69, 0
2,24327, Note_on_c, 0, 40, 58
2,24362, Note_on_c, 0, 40, 0
2,24382, Note_on_c, 0, 52, 0
2,24433, Note_on_c, 0, 71, 0
2,24436, Note_on_c, 0, 67, 67
2,24468, Note_on_c, 0, 67, 0
2,24568, Note_on_c, 0, 72, 73
2,24570, Note_on_c, 0, 45, 58
2,24570, Note_on_c, 0, 54, 76
2,24685, Note_on_c, 0, 55, 74
2,24716, Note_on_c, 0, 54, 0
2,24764, Note_on_c, 0, 64, 0
2,24815, Note_on_c, 0, 52, 73
2,24827, Note_on_c, 0, 69, 63
2,24829, Note_on_c, 0, 55, 0
2,24867, Control_c, 0, 64, 13
2,24882, Control_c, 0, 64, 38
2,24897, Control_c, 0, 64, 50
2,24913, Control_c, 0, 64, 54
2,24936, Note_on_c, 0, 54, 82
2,24941, Note_on_c, 0, 69, 0
2,24943, Note_on_c, 0, 63, 76
2,24955, Note_on_c, 0, 52, 0
2,24963, Note_on_c, 0, 45, 0
2,24973, Control_c, 0, 64, 53
2,24989, Control_c, 0, 64, 53
2,24992, Note_on_c, 0, 54, 0
2,25004, Control_c, 0, 64, 52
2,25014, Note_on_c, 0, 63, 0
2,25020, Control_c, 0, 64, 52
2,25035, Control_c, 0, 64, 51
2,25050, Control_c, 0, 64, 49
2,25065, Control_c, 0, 64, 46
2,25073, Note_on_c, 0, 64, 77
2,25080, Control_c, 0, 64, 43
2,25080, Note_on_c, 0, 55, 77
2,25095, Control_c, 0, 64, 40
2,25098, Note_on_c, 0, 47, 65
2,25118, Control_c, 0, 64, 37
2,25133, Control_c, 0, 64, 34
2,25148, Control_c, 0, 64, 30
2,25163, Control_c, 0, 64, 26
2,25178, Control_c, 0, 64, 20
2,25194, Control_c, 0, 64, 9
2,25208, Note_on_c, 0, 57, 82
2,25209, Control_c, 0, 64, 0
2,25213, Note_on_c, 0, 55, 0
2,25331, Note_on_c, 0, 54, 75
2,25344, Note_on_c, 0, 71, 76
2,25344, Note_on_c, 0, 72, 0
2,25368, Note_on_c, 0, 57, 0
2,25397, Note_on_c, 0, 71, 0
2,25420, Note_on_c, 0, 47, 0
2,25442, Note_on_c, 0, 55, 80
2,25475, Note_on_c, 0, 54, 0
2,25572, Note_on_c, 0, 55, 0
2,25572, Note_on_c, 0, 57, 82
2,25582, Note_on_c, 0, 69, 74
2,25583, Note_on_c, 0, 48, 71
2,25625, Note_on_c, 0, 48, 0
2,25628, Note_on_c, 0, 57, 0
2,25695, Note_on_c, 0, 69, 0
2,25698, Note_on_c, 0, 67, 70
2,25830, Note_on_c, 0, 55, 69
2,25831, Note_on_c, 0, 47, 72
2,25833, Note_on_c, 0, 69, 65
2,25840, Note_on_c, 0, 67, 0
2,25875, Note_on_c, 0, 47, 0
2,25887, Note_on_c, 0, 55, 0
2,25936, Note_on_c, 0, 69, 0
2,25955, Note_on_c, 0, 71, 70
2,25998, Note_on_c, 0, 64, 0
2,26017, Note_on_c, 0, 71, 0
2,26078, Note_on_c, 0, 72, 68
2,26091, Note_on_c, 0, 54, 59
2,26096, Note_on_c, 0, 45, 54
2,26319, Note_on_c, 0, 45, 0
2,26325, Note_on_c, 0, 59, 66
2,26333, Note_on_c, 0, 66, 66
2,26335, Note_on_c, 0, 47, 61
2,26340, Note_on_c, 0, 63, 52
2,26355, Note_on_c, 0, 59, 0
2,26357, Note_on_c, 0, 54, 0
2,26364, Note_on_c, 0, 72, 0
2,26366, Note_on_c, 0, 63, 0
2,26366, Note_on_c, 0, 66, 0
2,26453, Note_on_c, 0, 47, 0
2,26460, Note_on_c, 0, 45, 59
2,26590, Note_on_c, 0, 71, 56
2,26591, Note_on_c, 0, 45, 0
2,26602, Note_on_c, 0, 43, 62
2,26602, Note_on_c, 0, 64, 52
2,26606, Note_on_c, 0, 52, 54
2,26700, Note_on_c, 0, 71, 0
2,26708, Note_on_c, 0, 69, 67
2,26841, Note_on_c, 0, 45, 69
2,26845, Note_on_c, 0, 72, 69
2,26858, Note_on_c, 0, 69, 0
2,26863, Note_on_c, 0, 52, 0
2,26867, Control_c, 0, 64, 36
2,26877, Note_on_c, 0, 43, 0
2,26881, Control_c, 0, 64, 51
2,26885, Note_on_c, 0, 45, 0
2,26896, Control_c, 0, 64, 59
2,26912, Control_c, 0, 64, 62
2,26927, Control_c, 0, 64, 63
2,26943, Control_c, 0, 64, 63
2,26958, Control_c, 0, 64, 63
2,26968, Note_on_c, 0, 72, 0
2,26980, Note_on_c, 0, 71, 53
2,26988, Control_c, 0, 64, 62
2,27001, Note_on_c, 0, 71, 0
2,27003, Control_c, 0, 64, 62
2,27020, Control_c, 0, 64, 61
2,27035, Control_c, 0, 64, 60
2,27050, Control_c, 0, 64, 58
2,27065, Control_c, 0, 64, 55
2,27080, Control_c, 0, 64, 52
2,27095, Control_c, 0, 64, 48
2,27102, Note_on_c, 0, 69, 78
2,27111, Control_c, 0, 64, 46
2,27119, Note_on_c, 0, 47, 56
2,27120, Note_on_c, 0, 59, 60
2,27126, Control_c, 0, 64, 43
2,27141, Control_c, 0, 64, 38
2,27156, Control_c, 0, 64, 30
2,27171, Control_c, 0, 64, 23
2,27180, Note_on_c, 0, 59, 0
2,27187, Control_c, 0, 64, 16
2,27202, Control_c, 0, 64, 11
2,27214, Note_on_c, 0, 69, 0
2,27217, Control_c, 0, 64, 0
2,27223, Note_on_c, 0, 67, 72
2,27361, Note_on_c, 0, 63, 60
2,27361, Note_on_c, 0, 66, 64
2,27361, Note_on_c, 0, 67, 0
2,27363, Note_on_c, 0, 57, 61
2,27392, Note_on_c, 0, 64, 0
2,27400, Note_on_c, 0, 57, 0
2,27461, Note_on_c, 0, 63, 0
2,27489, Note_on_c, 0, 67, 68
2,27492, Note_on_c, 0, 66, 0
2,27538, Note_on_c, 0, 67, 0
2,27648, Note_on_c, 0, 52, 52
2,27650, Note_on_c, 0, 64, 62
2,27669, Note_on_c, 0, 56, 45
2,27695, Control_c, 0, 64, 22
2,27701, Note_on_c, 0, 47, 0
2,27711, Control_c, 0, 64, 45
2,27724, Note_on_c, 0, 56, 0
2,27725, Control_c, 0, 64, 56
2,27741, Control_c, 0, 64, 60
2,27753, Note_on_c, 0, 52, 0
2,27756, Control_c, 0, 64, 62
2,27816, Control_c, 0, 64, 61
2,27848, Control_c, 0, 64, 61
2,27864, Control_c, 0, 64, 60
2,27879, Control_c, 0, 64, 60
2,27894, Control_c, 0, 64, 59
2,27909, Control_c, 0, 64, 57
2,27924, Control_c, 0, 64, 55
2,27934, Note_on_c, 0, 50, 56
2,27940, Control_c, 0, 64, 53
2,27942, Note_on_c, 0, 52, 50
2,27945, Note_on_c, 0, 76, 70
2,27954, Control_c, 0, 64, 50
2,27969, Control_c, 0, 64, 48
2,27985, Control_c, 0, 64, 44
2,27988, Note_on_c, 0, 50, 0
2,27988, Note_on_c, 0, 52, 0
2,28000, Control_c, 0, 64, 38
2,28003, Note_on_c, 0, 64, 0
2,28015, Control_c, 0, 64, 31
2,28031, Control_c, 0, 64, 21
2,28046, Control_c, 0, 64, 0
2,28056, Note_on_c, 0, 77, 78
2,28071, Note_on_c, 0, 76, 0
2,28114, Note_on_c, 0, 77, 0
2,28190, Note_on_c, 0, 76, 83
2,28193, Note_on_c, 0, 48, 66
2,28193, Note_on_c, 0, 54, 65
2,28225, Note_on_c, 0, 54, 0
2,28229, Note_on_c, 0, 48, 0
2,28243, Note_on_c, 0, 76, 0
2,28456, Note_on_c, 0, 74, 76
2,28457, Note_on_c, 0, 47, 58
2,28457, Note_on_c, 0, 56, 65
2,28489, Note_on_c, 0, 56, 0
2,28496, Note_on_c, 0, 47, 0
2,28498, Note_on_c, 0, 74, 0
2,28701, Note_on_c, 0, 72, 67
2,28724, Note_on_c, 0, 57, 61
2,28730, Note_on_c, 0, 45, 54
2,28737, Note_on_c, 0, 72, 0
2,28740, Note_on_c, 0, 74, 82
2,28771, Note_on_c, 0, 74, 0
2,28795, Note_on_c, 0, 72, 78
2,28805, Note_on_c, 0, 57, 0
2,28844, Control_c, 0, 64, 40
2,28860, Control_c, 0, 64, 55
2,28875, Control_c, 0, 64, 62
2,28881, Note_on_c, 0, 72, 0
2,28890, Control_c, 0, 64, 66
2,28905, Control_c, 0, 64, 69
2,28920, Control_c, 0, 64, 72
2,28929, Note_on_c, 0, 45, 0
2,28935, Control_c, 0, 64, 73
2,28973, Control_c, 0, 64, 72
2,28987, Note_on_c, 0, 72, 71
2,28989, Control_c, 0, 64, 71
2,28993, Note_on_c, 0, 64, 62
2,29001, Note_on_c, 0, 59, 56
2,29004, Control_c, 0, 64, 70
2,29018, Control_c, 0, 64, 69
2,29034, Control_c, 0, 64, 66
2,29049, Control_c, 0, 64, 63
2,29050, Note_on_c, 0, 64, 0
2,29065, Control_c, 0, 64, 59
2,29080, Control_c, 0, 64, 52
2,29084, Note_on_c, 0, 59, 0
2,29094, Control_c, 0, 64, 46
2,29100, Note_on_c, 0, 74, 79
2,29101, Note_on_c, 0, 72, 0
2,29110, Control_c, 0, 64, 42
2,29125, Control_c, 0, 64, 39
2,29141, Control_c, 0, 64, 34
2,29156, Control_c, 0, 64, 25
2,29171, Control_c, 0, 64, 0
2,29183, Note_on_c, 0, 74, 0
2,29229, Note_on_c, 0, 57, 77
2,29229, Note_on_c, 0, 72, 75
2,29241, Note_on_c, 0, 66, 66
2,29273, Note_on_c, 0, 66, 0
2,29281, Note_on_c, 0, 57, 0
2,29289, Note_on_c, 0, 72, 0
2,29502, Note_on_c, 0, 71, 71
2,29505, Note_on_c, 0, 67, 69
2,29506, Note_on_c, 0, 55, 74
2,29544, Note_on_c, 0, 67, 0
2,29550, Note_on_c, 0, 55, 0
2,29571, Note_on_c, 0, 71, 0
2,29761, Note_on_c, 0, 69, 68
2,29762, Note_on_c, 0, 54, 72
2,29829, Note_on_c, 0, 54, 0
2,29889, Note_on_c, 0, 71, 79
2,29900, Note_on_c, 0, 69, 0
2,30010, Note_on_c, 0, 57, 69
2,30012, Note_on_c, 0, 72, 82
2,30018, Note_on_c, 0, 55, 64
2,30031, Note_on_c, 0, 71, 0
2,30051, Note_on_c, 0, 57, 0
2,30054, Note_on_c, 0, 55, 0
2,30129, Note_on_c, 0, 71, 87
2,30144, Note_on_c, 0, 72, 0
2,30189, Note_on_c, 0, 71, 0
2,30262, Note_on_c, 0, 69, 85
2,30271, Note_on_c, 0, 59, 62
2,30272, Note_on_c, 0, 54, 64
2,30312, Note_on_c, 0, 69, 0
2,30318, Note_on_c, 0, 54, 0
2,30325, Note_on_c, 0, 59, 0
2,30526, Note_on_c, 0, 67, 77
2,30545, Note_on_c, 0, 61, 61
2,30547, Note_on_c, 0, 52, 47
2,30586, Note_on_c, 0, 61, 0
2,30590, Note_on_c, 0, 52, 0
2,30590, Note_on_c, 0, 67, 0
2,30789, Note_on_c, 0, 78, 74
2,30804, Note_on_c, 0, 62, 58
2,30810, Note_on_c, 0, 50, 47
2,30840, Note_on_c, 0, 62, 0
2,30843, Note_on_c, 0, 50, 0
2,30853, Note_on_c, 0, 78, 0
2,31058, Note_on_c, 0, 81, 72
2,31062, Note_on_c, 0, 52, 47
2,31063, Note_on_c, 0, 62, 54
2,31104, Note_on_c, 0, 52, 0
2,31109, Note_on_c, 0, 62, 0
2,31110, Note_on_c, 0, 81, 0
2,31331, Note_on_c, 0, 64, 64
2,31342, Note_on_c, 0, 50, 53
2,31373, Note_on_c, 0, 64, 0
2,31381, Note_on_c, 0, 50, 0
2,31587, Note_on_c, 0, 48, 57
2,31588, Note_on_c, 0, 76, 68
2,31594, Note_on_c, 0, 66, 52
2,31632, Note_on_c, 0, 48, 0
2,31654, Note_on_c, 0, 76, 0
2,31664, Note_on_c, 0, 66, 0
2,31831, Note_on_c, 0, 74, 62
2,31843, Note_on_c, 0, 67, 59
2,31851, Note_on_c, 0, 47, 56
2,31957, Note_on_c, 0, 72, 70
2,31997, Note_on_c, 0, 74, 0
2,32081, Note_on_c, 0, 47, 0
2,32088, Note_on_c, 0, 76, 70
2,32092, Note_on_c, 0, 59, 66
2,32100, Note_on_c, 0, 55, 60
2,32115, Note_on_c, 0, 67, 0
2,32120, Note_on_c, 0, 72, 0
2,32160, Note_on_c, 0, 59, 0
2,32208, Note_on_c, 0, 74, 75
2,32223, Note_on_c, 0, 76, 0
2,32345, Note_on_c, 0, 72, 74
2,32348, Note_on_c, 0, 57, 66
2,32360, Note_on_c, 0, 74, 0
2,32469, Note_on_c, 0, 71, 71
2,32469, Note_on_c, 0, 72, 0
2,32480, Note_on_c, 0, 55, 0
2,32591, Note_on_c, 0, 57, 0
2,32601, Note_on_c, 0, 54, 62
2,32602, Note_on_c, 0, 74, 69
2,32613, Note_on_c, 0, 71, 0
2,32707, Note_on_c, 0, 74, 0
2,32724, Note_on_c, 0, 72, 64
2,32787, Note_on_c, 0, 72, 0
2,32842, Note_on_c, 0, 54, 0
2,32859, Note_on_c, 0, 71, 73
2,32861, Note_on_c, 0, 55, 56
2,32885, Note_on_c, 0, 71, 0
2,32974, Note_on_c, 0, 52, 53
2,33102, Note_on_c, 0, 50, 53
2,33114, Note_on_c, 0, 72, 72
2,33141, Note_on_c, 0, 52, 0
2,33151, Note_on_c, 0, 72, 0
2,33219, Note_on_c, 0, 50, 0
2,33228, Note_on_c, 0, 48, 54
2,33360, Note_on_c, 0, 74, 68
2,33365, Note_on_c, 0, 48, 0
2,33367, Note_on_c, 0, 47, 55
2,33417, Note_on_c, 0, 47, 0
2,33470, Note_on_c, 0, 74, 0
2,33478, Note_on_c, 0, 71, 68
2,33606, Note_on_c, 0, 71, 0
2,33611, Note_on_c, 0, 69, 66
2,33626, Note_on_c, 0, 52, 55
2,33674, Note_on_c, 0, 69, 0
2,33715, Note_on_c, 0, 67, 68
2,33721, Control_c, 0, 64, 11
2,33737, Control_c, 0, 64, 28
2,33752, Control_c, 0, 64, 34
2,33757, Note_on_c, 0, 67, 0
2,33767, Control_c, 0, 64, 38
2,33783, Control_c, 0, 64, 39
2,33857, Note_on_c, 0, 76, 54
2,33873, Control_c, 0, 64, 38
2,33878, Note_on_c, 0, 48, 57
2,33886, Note_on_c, 0, 76, 0
2,33888, Control_c, 0, 64, 36
2,33894, Note_on_c, 0, 78, 71
2,33904, Control_c, 0, 64, 34
2,33918, Control_c, 0, 64, 31
2,33918, Note_on_c, 0, 78, 0
2,33930, Note_on_c, 0, 55, 0
2,33934, Control_c, 0, 64, 24
2,33942, Note_on_c, 0, 52, 0
2,33946, Note_on_c, 0, 76, 82
2,33949, Control_c, 0, 64, 12
2,33964, Control_c, 0, 64, 0
2,34133, Note_on_c, 0, 48, 0
2,34133, Note_on_c, 0, 78, 69
2,34146, Note_on_c, 0, 76, 0
2,34148, Note_on_c, 0, 74, 60
2,34149, Note_on_c, 0, 45, 49
2,34156, Note_on_c, 0, 57, 47
2,34224, Note_on_c, 0, 74, 0
2,34253, Note_on_c, 0, 79, 70
2,34257, Note_on_c, 0, 78, 0
2,34261, Note_on_c, 0, 76, 64
2,34349, Note_on_c, 0, 45, 0
2,34367, Note_on_c, 0, 57, 0
2,34396, Note_on_c, 0, 79, 0
2,34401, Note_on_c, 0, 76, 0
2,34404, Note_on_c, 0, 78, 70
2,34414, Note_on_c, 0, 50, 45
2,34426, Note_on_c, 0, 74, 53
2,34497, Note_on_c, 0, 74, 0
2,34535, Control_c, 0, 67, 8
2,34550, Control_c, 0, 67, 14
2,34564, Control_c, 0, 67, 17
2,34610, Control_c, 0, 67, 16
2,34626, Control_c, 0, 67, 14
2,34640, Control_c, 0, 67, 13
2,34656, Control_c, 0, 67, 11
2,34671, Control_c, 0, 67, 9
2,34686, Control_c, 0, 67, 0
2,34699, Note_on_c, 0, 72, 63
2,34725, Note_on_c, 0, 38, 28
2,34767, Note_on_c, 0, 38, 0
2,34784, Note_on_c, 0, 78, 0
2,34796, Note_on_c, 0, 72, 0
2,34821, Note_on_c, 0, 79, 66
2,34864, Note_on_c, 0, 79, 0
2,35002, Note_on_c, 0, 79, 61
2,35005, Control_c, 0, 64, 37
2,35017, Note_on_c, 0, 71, 55
2,35020, Note_on_c, 0, 43, 52
2,35021, Control_c, 0, 64, 56
2,35036, Control_c, 0, 64, 63
2,35050, Control_c, 0, 64, 67
2,35066, Control_c, 0, 64, 74
2,35066, Note_on_c, 0, 50, 0
2,35069, Note_on_c, 0, 71, 0
2,35070, Note_on_c, 0, 43, 0
2,35081, Control_c, 0, 64, 83
2,35104, Control_c, 0, 64, 94
2,35119, Control_c, 0, 64, 127
2,35321, Note_on_c, 0, 67, 68
2,35321, Note_on_c, 0, 71, 59
2,35333, Control_c, 0, 64, 118
2,35348, Control_c, 0, 64, 97
2,35363, Control_c, 0, 64, 82
2,35373, Note_on_c, 0, 67, 0
2,35379, Control_c, 0, 64, 71
2,35394, Control_c, 0, 64, 61
2,35394, Note_on_c, 0, 71, 0
2,35408, Control_c, 0, 64, 47
2,35423, Note_on_c, 0, 72, 69
2,35424, Control_c, 0, 64, 34
2,35429, Note_on_c, 0, 69, 70
2,35439, Control_c, 0, 64, 30
2,35454, Control_c, 0, 64, 29
2,35463, Note_on_c, 0, 72, 0
2,35469, Control_c, 0, 64, 25
2,35477, Note_on_c, 0, 69, 0
2,35483, Control_c, 0, 64, 13
2,35499, Control_c, 0, 64, 0
2,35554, Note_on_c, 0, 67, 79
2,35555, Note_on_c, 0, 71, 68
2,35606, Note_on_c, 0, 67, 0
2,35613, Note_on_c, 0, 71, 0
2,35814, Note_on_c, 0, 69, 68
2,35818, Note_on_c, 0, 65, 77
2,35877, Note_on_c, 0, 65, 0
2,35878, Note_on_c, 0, 69, 0
2,36101, Control_c, 0, 64, 22
2,36103, Note_on_c, 0, 64, 71
2,36106, Note_on_c, 0, 67, 60
2,36116, Control_c, 0, 64, 46
2,36116, Note_on_c, 0, 79, 0
2,36130, Control_c, 0, 64, 58
2,36146, Control_c, 0, 64, 63
2,36161, Control_c, 0, 64, 67
2,36176, Control_c, 0, 64, 71
2,36191, Control_c, 0, 64, 76
2,36195, Note_on_c, 0, 64, 0
2,36206, Control_c, 0, 64, 81
2,36221, Control_c, 0, 64, 87
2,36236, Control_c, 0, 64, 94
2,36251, Control_c, 0, 64, 97
2,36266, Control_c, 0, 64, 96
2,36281, Control_c, 0, 64, 95
2,36297, Control_c, 0, 64, 94
2,36312, Control_c, 0, 64, 92
2,36327, Control_c, 0, 64, 90
2,36343, Control_c, 0, 64, 87
2,36358, Control_c, 0, 64, 82
2,36359, Note_on_c, 0, 64, 73
2,36370, Note_on_c, 0, 79, 74
2,36374, Control_c, 0, 64, 76
2,36388, Control_c, 0, 64, 70
2,36403, Control_c, 0, 64, 64
2,36419, Control_c, 0, 64, 58
2,36434, Control_c, 0, 64, 50
2,36449, Control_c, 0, 64, 41
2,36464, Control_c, 0, 64, 36
2,36471, Note_on_c, 0, 65, 80
2,36472, Note_on_c, 0, 81, 75
2,36479, Control_c, 0, 64, 32
2,36493, Note_on_c, 0, 64, 0
2,36493, Note_on_c, 0, 67, 0
2,36495, Control_c, 0, 64, 23
2,36506, Note_on_c, 0, 79, 0
2,36510, Control_c, 0, 64, 0
2,36545, Note_on_c, 0, 65, 0
2,36573, Note_on_c, 0, 81, 0
2,36603, Note_on_c, 0, 64, 85
2,36603, Note_on_c, 0, 79, 82
2,36618, Note_on_c, 0, 69, 60
2,36658, Note_on_c, 0, 69, 0
2,36670, Note_on_c, 0, 64, 0
2,36686, Note_on_c, 0, 79, 0
2,36879, Note_on_c, 0, 77, 75
2,36881, Note_on_c, 0, 71, 72
2,36887, Note_on_c, 0, 62, 71
2,36914, Note_on_c, 0, 62, 0
2,36917, Note_on_c, 0, 71, 0
2,36934, Note_on_c, 0, 77, 0
2,37158, Note_on_c, 0, 60, 59
2,37160, Note_on_c, 0, 76, 64
2,37165, Note_on_c, 0, 72, 54
2,37270, Note_on_c, 0, 72, 0
2,37275, Note_on_c, 0, 62, 67
2,37276, Note_on_c, 0, 74, 70
2,37302, Note_on_c, 0, 60, 0
2,37330, Note_on_c, 0, 76, 0
2,37396, Note_on_c, 0, 64, 73
2,37416, Note_on_c, 0, 72, 71
2,37422, Note_on_c, 0, 62, 0
2,37428, Note_on_c, 0, 74, 0
2,37529, Note_on_c, 0, 62, 76
2,37529, Note_on_c, 0, 74, 79
2,37536, Note_on_c, 0, 72, 0
2,37545, Note_on_c, 0, 64, 0
2,37615, Note_on_c, 0, 62, 0
2,37655, Note_on_c, 0, 76, 81
2,37685, Note_on_c, 0, 60, 72
2,37689, Note_on_c, 0, 74, 0
2,37742, Note_on_c, 0, 60, 0
2,37786, Note_on_c, 0, 76, 0
2,37786, Note_on_c, 0, 77, 81
2,37908, Note_on_c, 0, 58, 68
2,37919, Note_on_c, 0, 79, 75
2,37935, Note_on_c, 0, 77, 0
2,37941, Note_on_c, 0, 74, 62
2,37959, Note_on_c, 0, 58, 0
2,38159, Note_on_c, 0, 73, 66
2,38177, Note_on_c, 0, 69, 60
2,38188, Note_on_c, 0, 74, 0
2,38244, Note_on_c, 0, 69, 0
2,38258, Note_on_c, 0, 73, 0
2,38297, Note_on_c, 0, 77, 72
2,38315, Note_on_c, 0, 79, 0
2,38414, Note_on_c, 0, 73, 65
2,38419, Note_on_c, 0, 76, 72
2,38419, Note_on_c, 0, 77, 0
2,38465, Note_on_c, 0, 73, 0
2,38519, Note_on_c, 0, 77, 55
2,38520, Note_on_c, 0, 76, 0
2,38548, Note_on_c, 0, 74, 60
2,38601, Note_on_c, 0, 74, 0
2,38627, Note_on_c, 0, 77, 0
2,38658, Note_on_c, 0, 76, 60
2,38667, Note_on_c, 0, 79, 73
2,38758, Note_on_c, 0, 79, 0
2,38771, Note_on_c, 0, 81, 71
2,38784, Control_c, 0, 64, 41
2,38799, Control_c, 0, 64, 55
2,38815, Control_c, 0, 64, 62
2,38819, Note_on_c, 0, 81, 0
2,38830, Control_c, 0, 64, 65
2,38844, Control_c, 0, 64, 67
2,38860, Control_c, 0, 64, 68
2,38880, Note_on_c, 0, 76, 0
2,38880, Note_on_c, 0, 76, 28
2,38890, Control_c, 0, 64, 67
2,38903, Note_on_c, 0, 82, 74
2,38906, Control_c, 0, 64, 67
2,38910, Note_on_c, 0, 67, 62
2,38920, Control_c, 0, 64, 66
2,38944, Control_c, 0, 64, 65
2,38957, Note_on_c, 0, 67, 0
2,38959, Control_c, 0, 64, 64
2,38975, Control_c, 0, 64, 62
2,38990, Control_c, 0, 64, 58
2,39004, Control_c, 0, 64, 52
2,39020, Control_c, 0, 64, 46
2,39031, Note_on_c, 0, 79, 71
2,39035, Control_c, 0, 64, 43
2,39036, Note_on_c, 0, 82, 0
2,39065, Control_c, 0, 64, 42
2,39080, Control_c, 0, 64, 39
2,39096, Control_c, 0, 64, 34
2,39111, Control_c, 0, 64, 27
2,39125, Control_c, 0, 64, 22
2,39141, Control_c, 0, 64, 18
2,39156, Control_c, 0, 64, 17
2,39177, Note_on_c, 0, 81, 71
2,39179, Note_on_c, 0, 65, 58
2,39187, Control_c, 0, 64, 15
2,39191, Note_on_c, 0, 79, 0
2,39201, Control_c, 0, 64, 12
2,39217, Control_c, 0, 64, 9
2,39233, Note_on_c, 0, 76, 0
2,39294, Note_on_c, 0, 73, 59
2,39297, Note_on_c, 0, 64, 56
2,39297, Note_on_c, 0, 65, 0
2,39352, Note_on_c, 0, 73, 0
2,39417, Note_on_c, 0, 64, 0
2,39425, Note_on_c, 0, 67, 66
2,39425, Note_on_c, 0, 74, 59
2,39541, Note_on_c, 0, 67, 0
2,39550, Note_on_c, 0, 65, 65
2,39550, Note_on_c, 0, 82, 79
2,39568, Note_on_c, 0, 74, 0
2,39660, Note_on_c, 0, 81, 0
2,39679, Note_on_c, 0, 79, 73
2,39684, Note_on_c, 0, 64, 61
2,39684, Note_on_c, 0, 82, 0
2,39690, Note_on_c, 0, 65, 0
2,39812, Note_on_c, 0, 64, 0
2,39812, Note_on_c, 0, 71, 65
2,39823, Note_on_c, 0, 62, 60
2,39917, Note_on_c, 0, 62, 0
2,39932, Note_on_c, 0, 71, 0
2,39941, Note_on_c, 0, 73, 63
2,39947, Note_on_c, 0, 65, 58
2,40041, Note_on_c, 0, 73, 0
2,40051, Note_on_c, 0, 81, 67
2,40070, Note_on_c, 0, 64, 62
2,40073, Note_on_c, 0, 65, 0
2,40095, Note_on_c, 0, 79, 0
2,40177, Note_on_c, 0, 64, 0
2,40182, Note_on_c, 0, 81, 0
2,40185, Note_on_c, 0, 62, 72
2,40190, Note_on_c, 0, 77, 73
2,40202, Note_on_c, 0, 74, 62
2,40232, Note_on_c, 0, 62, 0
2,40244, Control_c, 0, 64, 0
2,40296, Note_on_c, 0, 77, 0
2,40314, Note_on_c, 0, 76, 67
2,40437, Note_on_c, 0, 64, 76
2,40440, Note_on_c, 0, 77, 74
2,40450, Note_on_c, 0, 76, 0
2,40500, Note_on_c, 0, 64, 0
2,40558, Note_on_c, 0, 77, 0
2,40566, Note_on_c, 0, 79, 76
2,40703, Note_on_c, 0, 81, 73
2,40704, Note_on_c, 0, 79, 0
2,40706, Note_on_c, 0, 65, 65
2,40743, Note_on_c, 0, 81, 0
2,40745, Note_on_c, 0, 74, 0
2,40821, Note_on_c, 0, 64, 72
2,40824, Note_on_c, 0, 65, 0
2,40944, Note_on_c, 0, 64, 0
2,40956, Note_on_c, 0, 69, 73
2,40957, Note_on_c, 0, 62, 71
2,40962, Note_on_c, 0, 65, 63
2,40996, Note_on_c, 0, 65, 0
2,41006, Note_on_c, 0, 69, 0
2,41059, Note_on_c, 0, 62, 0
2,41081, Note_on_c, 0, 60, 68
2,41217, Note_on_c, 0, 58, 65
2,41220, Note_on_c, 0, 74, 71
2,41225, Note_on_c, 0, 60, 0
2,41229, Note_on_c, 0, 67, 60
2,41303, Note_on_c, 0, 67, 0
2,41348, Note_on_c, 0, 74, 0
2,41351, Note_on_c, 0, 73, 62
2,41356, Note_on_c, 0, 79, 73
2,41396, Note_on_c, 0, 73, 0
2,41476, Note_on_c, 0, 79, 0
2,41484, Note_on_c, 0, 57, 72
2,41485, Note_on_c, 0, 77, 76
2,41491, Note_on_c, 0, 74, 66
2,41505, Note_on_c, 0, 58, 0
2,41549, Note_on_c, 0, 74, 0
2,41595, Note_on_c, 0, 77, 0
2,41598, Note_on_c, 0, 76, 68
2,41600, Note_on_c, 0, 55, 54
2,41612, Note_on_c, 0, 57, 0
2,41621, Note_on_c, 0, 58, 63
2,41635, Note_on_c, 0, 76, 0
2,41690, Note_on_c, 0, 55, 0
2,41732, Note_on_c, 0, 76, 68
2,41734, Note_on_c, 0, 58, 0
2,41743, Note_on_c, 0, 57, 62
2,41766, Note_on_c, 0, 76, 0
2,41786, Note_on_c, 0, 77, 69
2,41821, Note_on_c, 0, 77, 0
2,41847, Note_on_c, 0, 76, 74
2,41876, Note_on_c, 0, 76, 0
2,41891, Note_on_c, 0, 77, 79
2,41916, Note_on_c, 0, 77, 0
2,41946, Note_on_c, 0, 76, 74
2,41994, Note_on_c, 0, 55, 48
2,42075, Note_on_c, 0, 76, 0
2,42102, Note_on_c, 0, 74, 72
2,42156, Note_on_c, 0, 74, 0
2,42246, Note_on_c, 0, 53, 54
2,42254, Note_on_c, 0, 74, 55
2,42266, Note_on_c, 0, 55, 0
2,42308, Note_on_c, 0, 53, 0
2,42325, Note_on_c, 0, 57, 0
2,42517, Note_on_c, 0, 57, 47
2,42521, Note_on_c, 0, 53, 45
2,42521, Note_on_c, 0, 69, 56
2,42598, Note_on_c, 0, 69, 0
2,42614, Note_on_c, 0, 55, 59
2,42621, Note_on_c, 0, 70, 62
2,42630, Note_on_c, 0, 57, 0
2,42635, Note_on_c, 0, 53, 0
2,42656, Note_on_c, 0, 55, 0
2,42668, Note_on_c, 0, 70, 0
2,42742, Note_on_c, 0, 69, 67
2,42753, Note_on_c, 0, 53, 64
2,42759, Note_on_c, 0, 59, 58
2,42793, Note_on_c, 0, 53, 0
2,42798, Note_on_c, 0, 59, 0
2,42803, Note_on_c, 0, 69, 0
2,42833, Note_on_c, 0, 74, 0
2,43014, Note_on_c, 0, 76, 69
2,43023, Note_on_c, 0, 67, 58
2,43030, Note_on_c, 0, 61, 58
2,43034, Note_on_c, 0, 52, 49
2,43059, Note_on_c, 0, 67, 0
2,43073, Note_on_c, 0, 76, 0
2,43077, Note_on_c, 0, 52, 0
2,43086, Note_on_c, 0, 61, 0
2,43282, Note_on_c, 0, 77, 72
2,43285, Note_on_c, 0, 62, 47
2,43289, Note_on_c, 0, 50, 49
2,43289, Note_on_c, 0, 65, 57
2,43367, Note_on_c, 0, 65, 0
2,43402, Note_on_c, 0, 52, 61
2,43447, Note_on_c, 0, 50, 0
2,43524, Note_on_c, 0, 52, 0
2,43527, Note_on_c, 0, 53, 61
2,43552, Note_on_c, 0, 69, 69
2,43589, Note_on_c, 0, 69, 0
2,43643, Note_on_c, 0, 52, 71
2,43646, Note_on_c, 0, 53, 0
2,43779, Note_on_c, 0, 50, 71
2,43779, Note_on_c, 0, 52, 0
2,43780, Note_on_c, 0, 71, 81
2,43827, Note_on_c, 0, 71, 0
2,43842, Note_on_c, 0, 50, 0
2,44052, Note_on_c, 0, 72, 78
2,44054, Note_on_c, 0, 48, 78
2,44102, Note_on_c, 0, 48, 0
2,44104, Note_on_c, 0, 72, 0
2,44306, Note_on_c, 0, 59, 67
2,44317, Note_on_c, 0, 74, 68
2,44338, Note_on_c, 0, 62, 0
2,44365, Note_on_c, 0, 59, 0
2,44434, Note_on_c, 0, 72, 66
2,44438, Note_on_c, 0, 74, 0
2,44555, Note_on_c, 0, 72, 0
2,44568, Note_on_c, 0, 71, 68
2,44571, Note_on_c, 0, 62, 61
2,44640, Note_on_c, 0, 62, 0
2,44644, Note_on_c, 0, 77, 0
2,44669, Note_on_c, 0, 71, 0
2,44690, Note_on_c, 0, 69, 64
2,44800, Note_on_c, 0, 69, 0
2,44817, Note_on_c, 0, 67, 69
2,44939, Note_on_c, 0, 76, 69
2,44946, Note_on_c, 0, 67, 0
2,45057, Note_on_c, 0, 57, 71
2,45060, Note_on_c, 0, 76, 0
2,45063, Note_on_c, 0, 74, 70
2,45083, Note_on_c, 0, 65, 58
2,45099, Note_on_c, 0, 57, 0
2,45192, Note_on_c, 0, 74, 0
2,45197, Note_on_c, 0, 72, 71
2,45266, Note_on_c, 0, 72, 0
2,45318, Note_on_c, 0, 55, 65
2,45318, Note_on_c, 0, 71, 71
2,45426, Note_on_c, 0, 53, 69
2,45435, Note_on_c, 0, 55, 0
2,45455, Note_on_c, 0, 65, 0
2,45543, Note_on_c, 0, 53, 0
2,45560, Note_on_c, 0, 71, 0
2,45569, Note_on_c, 0, 57, 56
2,45571, Note_on_c, 0, 72, 69
2,45583, Note_on_c, 0, 64, 63
2,45628, Note_on_c, 0, 64, 0
2,45679, Note_on_c, 0, 57, 0
2,45688, Note_on_c, 0, 55, 59
2,45826, Note_on_c, 0, 53, 54
2,45829, Note_on_c, 0, 62, 60
2,45830, Note_on_c, 0, 55, 0
2,45945, Note_on_c, 0, 52, 57
2,45954, Note_on_c, 0, 53, 0
2,46064, Note_on_c, 0, 52, 0
2,46084, Note_on_c, 0, 71, 67
2,46096, Note_on_c, 0, 55, 56
2,46098, Note_on_c, 0, 72, 0
2,46152, Note_on_c, 0, 71, 0
2,46202, Note_on_c, 0, 53, 54
2,46204, Note_on_c, 0, 55, 0
2,46330, Note_on_c, 0, 52, 63
2,46337, Note_on_c, 0, 72, 67
2,46342, Note_on_c, 0, 53, 0
2,46361, Note_on_c, 0, 62, 0
2,46394, Note_on_c, 0, 52, 0
2,46457, Note_on_c, 0, 69, 63
2,46585, Note_on_c, 0, 53, 69
2,46586, Note_on_c, 0, 69, 0
2,46591, Note_on_c, 0, 67, 65
2,46636, Note_on_c, 0, 53, 0
2,46716, Note_on_c, 0, 65, 69
2,46721, Note_on_c, 0, 67, 0
2,46775, Note_on_c, 0, 65, 0
2,46849, Note_on_c, 0, 64, 73
2,46854, Note_on_c, 0, 55, 65
2,46965, Note_on_c, 0, 52, 71
2,46993, Note_on_c, 0, 55, 0
2,47092, Note_on_c, 0, 64, 0
2,47092, Note_on_c, 0, 72, 0
2,47095, Note_on_c, 0, 70, 72
2,47100, Note_on_c, 0, 67, 73
2,47106, Note_on_c, 0, 50, 69
2,47132, Note_on_c, 0, 52, 0
2,47203, Note_on_c, 0, 70, 0
2,47220, Note_on_c, 0, 48, 70
2,47224, Note_on_c, 0, 50, 0
2,47360, Note_on_c, 0, 69, 76
2,47367, Note_on_c, 0, 53, 66
2,47373, Note_on_c, 0, 48, 0
2,47498, Note_on_c, 0, 52, 67
2,47525, Note_on_c, 0, 53, 0
2,47624, Note_on_c, 0, 65, 67
2,47630, Note_on_c, 0, 67, 0
2,47635, Note_on_c, 0, 50, 68
2,47660, Note_on_c, 0, 52, 0
2,47741, Note_on_c, 0, 67, 75
2,47746, Note_on_c, 0, 48, 72
2,47746, Note_on_c, 0, 65, 0
2,47749, Note_on_c, 0, 50, 0
2,47848, Note_on_c, 0, 67, 0
2,47864, Note_on_c, 0, 50, 78
2,47875, Note_on_c, 0, 65, 78
2,47885, Note_on_c, 0, 48, 0
2,47935, Note_on_c, 0, 65, 0
2,47988, Note_on_c, 0, 52, 75
2,48014, Note_on_c, 0, 50, 0
2,48113, Note_on_c, 0, 52, 0
2,48120, Note_on_c, 0, 53, 77
2,48127, Note_on_c, 0, 64, 81
2,48189, Note_on_c, 0, 64, 0
2,48244, Note_on_c, 0, 50, 76
2,48266, Note_on_c, 0, 53, 0
2,48426, Note_on_c, 0, 50, 0
2,48432, Note_on_c, 0, 47, 72
2,48433, Note_on_c, 0, 62, 85
2,48539, Control_c, 0, 64, 29
2,48554, Control_c, 0, 64, 53
2,48569, Control_c, 0, 64, 62
2,48585, Control_c, 0, 64, 69
2,48587, Note_on_c, 0, 62, 0
2,48600, Control_c, 0, 64, 76
2,48615, Control_c, 0, 64, 87
2,48630, Control_c, 0, 64, 100
2,48645, Control_c, 0, 64, 119
2,48661, Control_c, 0, 64, 127
2,48676, Control_c, 0, 64, 117
2,48681, Note_on_c, 0, 69, 0
2,48691, Control_c, 0, 64, 109
2,48701, Note_on_c, 0, 59, 71
2,48707, Control_c, 0, 64, 103
2,48713, Note_on_c, 0, 68, 78
2,48722, Control_c, 0, 64, 97
2,48725, Note_on_c, 0, 62, 67
2,48732, Note_on_c, 0, 59, 0
2,48738, Control_c, 0, 64, 89
2,48752, Control_c, 0, 64, 80
2,48767, Control_c, 0, 64, 70
2,48769, Note_on_c, 0, 62, 0
2,48783, Control_c, 0, 64, 63
2,48798, Control_c, 0, 64, 55
2,48814, Control_c, 0, 64, 48
2,48823, Note_on_c, 0, 60, 79
2,48823, Note_on_c, 0, 64, 83
2,48828, Control_c, 0, 64, 46
2,48843, Control_c, 0, 64, 46
2,48851, Note_on_c, 0, 47, 0
2,48859, Control_c, 0, 64, 43
2,48865, Note_on_c, 0, 68, 0
2,48874, Control_c, 0, 64, 37
2,48879, Note_on_c, 0, 60, 0
2,48889, Control_c, 0, 64, 24
2,48904, Control_c, 0, 64, 0
2,48924, Note_on_c, 0, 64, 0
2,48953, Note_on_c, 0, 69, 88
2,48965, Note_on_c, 0, 62, 75
2,48969, Note_on_c, 0, 48, 76
2,48971, Note_on_c, 0, 59, 75
2,48997, Note_on_c, 0, 62, 0
2,49000, Note_on_c, 0, 48, 0
2,49009, Note_on_c, 0, 69, 0
2,49010, Note_on_c, 0, 59, 0
2,49224, Note_on_c, 0, 71, 84
2,49227, Note_on_c, 0, 60, 68
2,49233, Note_on_c, 0, 57, 83
2,49239, Note_on_c, 0, 50, 71
2,49255, Note_on_c, 0, 60, 0
2,49273, Note_on_c, 0, 71, 0
2,49497, Note_on_c, 0, 64, 79
2,49499, Note_on_c, 0, 56, 77
2,49505, Note_on_c, 0, 57, 0
2,49510, Note_on_c, 0, 59, 66
2,49536, Note_on_c, 0, 50, 0
2,49568, Note_on_c, 0, 59, 0
2,49611, Note_on_c, 0, 60, 69
2,49749, Note_on_c, 0, 52, 70
2,49752, Note_on_c, 0, 62, 69
2,49755, Note_on_c, 0, 60, 0
2,49797, Note_on_c, 0, 52, 0
2,49872, Note_on_c, 0, 62, 0
2,49873, Note_on_c, 0, 60, 74
2,49880, Note_on_c, 0, 64, 0
2,49930, Note_on_c, 0, 60, 0
2,50000, Note_on_c, 0, 59, 72
2,50004, Note_on_c, 0, 50, 73
2,50028, Note_on_c, 0, 56, 0
2,50058, Note_on_c, 0, 50, 0
2,50105, Note_on_c, 0, 59, 0
2,50114, Note_on_c, 0, 66, 77
2,50240, Note_on_c, 0, 68, 77
2,50241, Note_on_c, 0, 52, 68
2,50250, Note_on_c, 0, 48, 65
2,50250, Note_on_c, 0, 66, 0
2,50257, Note_on_c, 0, 57, 67
2,50276, Note_on_c, 0, 52, 0
2,50291, Note_on_c, 0, 48, 0
2,50317, Note_on_c, 0, 57, 0
2,50334, Control_c, 0, 64, 31
2,50349, Control_c, 0, 64, 49
2,50364, Control_c, 0, 64, 59
2,50367, Note_on_c, 0, 69, 82
2,50379, Control_c, 0, 64, 63
2,50399, Note_on_c, 0, 68, 0
2,50409, Control_c, 0, 64, 62
2,50419, Note_on_c, 0, 69, 0
2,50425, Control_c, 0, 64, 60
2,50440, Control_c, 0, 64, 57
2,50463, Control_c, 0, 64, 53
2,50478, Control_c, 0, 64, 49
2,50494, Control_c, 0, 64, 47
2,50510, Note_on_c, 0, 47, 61
2,50510, Note_on_c, 0, 71, 76
2,50511, Note_on_c, 0, 68, 77
2,50514, Note_on_c, 0, 50, 56
2,50524, Control_c, 0, 64, 46
2,50540, Control_c, 0, 64, 43
2,50555, Control_c, 0, 64, 39
2,50569, Control_c, 0, 64, 34
2,50585, Control_c, 0, 64, 28
2,50600, Control_c, 0, 64, 24
2,50616, Control_c, 0, 64, 21
2,50620, Note_on_c, 0, 72, 84
2,50631, Control_c, 0, 64, 20
2,50635, Note_on_c, 0, 68, 0
2,50643, Note_on_c, 0, 50, 0
2,50645, Control_c, 0, 64, 18
2,50658, Note_on_c, 0, 71, 0
2,50661, Control_c, 0, 64, 15
2,50676, Control_c, 0, 64, 12
2,50691, Control_c, 0, 64, 9
2,50705, Note_on_c, 0, 72, 0
2,50707, Control_c, 0, 64, 0
2,50759, Note_on_c, 0, 71, 88
2,50761, Note_on_c, 0, 53, 73
2,50762, Note_on_c, 0, 50, 71
2,50792, Note_on_c, 0, 47, 0
2,50814, Note_on_c, 0, 53, 0
2,50817, Note_on_c, 0, 50, 0
2,50850, Note_on_c, 0, 71, 0
2,50862, Note_on_c, 0, 52, 70
2,50866, Note_on_c, 0, 48, 68
2,50868, Note_on_c, 0, 72, 84
2,50914, Note_on_c, 0, 48, 0
2,50917, Note_on_c, 0, 52, 0
2,50995, Note_on_c, 0, 74, 85
2,50998, Note_on_c, 0, 72, 0
2,51003, Note_on_c, 0, 50, 71
2,51010, Note_on_c, 0, 47, 74
2,51040, Note_on_c, 0, 50, 0
2,51058, Note_on_c, 0, 47, 0
2,51272, Note_on_c, 0, 65, 75
2,51274, Note_on_c, 0, 48, 73
2,51278, Note_on_c, 0, 45, 65
2,51312, Note_on_c, 0, 48, 0
2,51316, Note_on_c, 0, 45, 0
2,51332, Note_on_c, 0, 65, 0
2,51528, Note_on_c, 0, 64, 66
2,51536, Note_on_c, 0, 47, 65
2,51540, Note_on_c, 0, 44, 68
2,51591, Note_on_c, 0, 44, 0
2,51603, Note_on_c, 0, 47, 0
2,51608, Note_on_c, 0, 74, 0
2,51640, Note_on_c, 0, 62, 74
2,51652, Note_on_c, 0, 64, 0
2,51767, Note_on_c, 0, 62, 0
2,51770, Note_on_c, 0, 72, 81
2,51779, Note_on_c, 0, 65, 69
2,51783, Note_on_c, 0, 48, 64
2,51786, Note_on_c, 0, 45, 60
2,51822, Note_on_c, 0, 48, 0
2,51839, Note_on_c, 0, 45, 0
2,51882, Note_on_c, 0, 65, 0
2,51889, Note_on_c, 0, 64, 69
2,51996, Note_on_c, 0, 64, 0
2,52024, Note_on_c, 0, 62, 64
2,52033, Note_on_c, 0, 50, 52
2,52039, Note_on_c, 0, 47, 59
2,52068, Note_on_c, 0, 50, 0
2,52081, Note_on_c, 0, 47, 0
2,52144, Note_on_c, 0, 60, 74
2,52144, Note_on_c, 0, 62, 0
2,52155, Note_on_c, 0, 72, 0
2,52252, Note_on_c, 0, 60, 0
2,52272, Note_on_c, 0, 47, 71
2,52272, Note_on_c, 0, 71, 77
2,52281, Note_on_c, 0, 44, 55
2,52285, Note_on_c, 0, 64, 62
2,52308, Note_on_c, 0, 47, 0
2,52317, Note_on_c, 0, 44, 0
2,52364, Note_on_c, 0, 64, 0
2,52394, Note_on_c, 0, 62, 68
2,52429, Note_on_c, 0, 62, 0
2,52535, Note_on_c, 0, 60, 75
2,52537, Note_on_c, 0, 45, 77
2,52539, Note_on_c, 0, 52, 62
2,52606, Control_c, 0, 64, 45
2,52622, Control_c, 0, 64, 60
2,52624, Note_on_c, 0, 60, 0
2,52630, Note_on_c, 0, 71, 0
2,52636, Control_c, 0, 64, 67
2,52651, Control_c, 0, 64, 75
2,52667, Control_c, 0, 64, 89
2,52682, Control_c, 0, 64, 123
2,52697, Control_c, 0, 64, 127
2,52744, Control_c, 0, 64, 105
2,52765, Control_c, 0, 64, 86
2,52781, Control_c, 0, 64, 69
2,52789, Note_on_c, 0, 45, 0
2,52793, Note_on_c, 0, 69, 79
2,52795, Note_on_c, 0, 47, 72
2,52796, Control_c, 0, 64, 56
2,52798, Note_on_c, 0, 62, 72
2,52811, Control_c, 0, 64, 22
2,52827, Control_c, 0, 64, 0
2,52847, Note_on_c, 0, 62, 0
2,52873, Note_on_c, 0, 47, 0
2,52906, Note_on_c, 0, 68, 78
2,52917, Note_on_c, 0, 69, 0
2,52985, Note_on_c, 0, 68, 0
2,53043, Note_on_c, 0, 69, 83
2,53046, Note_on_c, 0, 64, 73
2,53049, Note_on_c, 0, 48, 68
2,53076, Note_on_c, 0, 52, 0
2,53128, Note_on_c, 0, 64, 0
2,53162, Note_on_c, 0, 60, 74
2,53258, Note_on_c, 0, 60, 0
2,53275, Note_on_c, 0, 48, 0
2,53292, Note_on_c, 0, 59, 73
2,53296, Note_on_c, 0, 53, 66
2,53371, Note_on_c, 0, 59, 0
2,53398, Note_on_c, 0, 57, 75
2,53469, Note_on_c, 0, 57, 0
2,53539, Note_on_c, 0, 50, 67
2,53562, Note_on_c, 0, 65, 72
2,53582, Note_on_c, 0, 50, 0
2,53621, Note_on_c, 0, 69, 0
2,53647, Note_on_c, 0, 65, 0
2,53661, Note_on_c, 0, 62, 70
2,53754, Note_on_c, 0, 62, 0
2,53783, Note_on_c, 0, 53, 0
2,53794, Note_on_c, 0, 50, 66
2,53801, Note_on_c, 0, 64, 72
2,53803, Note_on_c, 0, 47, 55
2,53868, Note_on_c, 0, 64, 0
2,53926, Note_on_c, 0, 65, 67
2,53959, Control_c, 0, 64, 25
2,53974, Control_c, 0, 64, 43
2,53988, Note_on_c, 0, 47, 0
2,53990, Control_c, 0, 64, 52
2,54005, Control_c, 0, 64, 57
2,54010, Note_on_c, 0, 65, 0
2,54015, Note_on_c, 0, 50, 0
2,54019, Control_c, 0, 64, 58
2,54035, Control_c, 0, 64, 57
2,54051, Control_c, 0, 64, 56
2,54051, Note_on_c, 0, 59, 68
2,54061, Note_on_c, 0, 52, 54
2,54061, Note_on_c, 0, 68, 65
2,54067, Control_c, 0, 64, 54
2,54082, Control_c, 0, 64, 51
2,54086, Note_on_c, 0, 52, 0
2,54097, Control_c, 0, 64, 44
2,54101, Note_on_c, 0, 59, 0
2,54113, Control_c, 0, 64, 31
2,54119, Note_on_c, 0, 60, 70
2,54127, Control_c, 0, 64, 11
2,54143, Control_c, 0, 64, 0
2,54152, Note_on_c, 0, 60, 0
2,54190, Note_on_c, 0, 59, 58
2,54224, Note_on_c, 0, 59, 0
2,54241, Note_on_c, 0, 60, 69
2,54290, Note_on_c, 0, 60, 0
2,54303, Note_on_c, 0, 50, 65
2,54311, Note_on_c, 0, 40, 51
2,54318, Note_on_c, 0, 59, 61
2,54333, Note_on_c, 0, 50, 0
2,54343, Note_on_c, 0, 40, 0
2,54357, Note_on_c, 0, 59, 0
2,54449, Note_on_c, 0, 57, 64
2,54480, Note_on_c, 0, 68, 0
2,54489, Note_on_c, 0, 57, 0
2,54608, Note_on_c, 0, 57, 66
2,54608, Note_on_c, 0, 69, 72
2,54621, Control_c, 0, 64, 44
2,54632, Note_on_c, 0, 48, 48
2,54636, Control_c, 0, 64, 61
2,54636, Note_on_c, 0, 45, 32
2,54636, Note_on_c, 0, 57, 0
2,54648, Note_on_c, 0, 69, 0
2,54651, Control_c, 0, 64, 68
2,54667, Control_c, 0, 64, 77
2,54681, Control_c, 0, 64, 92
2,54696, Control_c, 0, 64, 121
2,54712, Control_c, 0, 64, 127
2,54889, Note_on_c, 0, 57, 74
2,54895, Control_c, 0, 64, 97
2,54895, Note_on_c, 0, 69, 73
2,54911, Control_c, 0, 64, 80
2,54914, Note_on_c, 0, 45, 0
2,54917, Note_on_c, 0, 48, 0
2,54921, Note_on_c, 0, 57, 0
2,54926, Control_c, 0, 64, 68
2,54942, Control_c, 0, 64, 58
2,54957, Control_c, 0, 64, 38
2,54971, Control_c, 0, 64, 13
2,54993, Note_on_c, 0, 69, 0
2,55002, Control_c, 0, 64, 9
2,55006, Note_on_c, 0, 68, 72
2,55016, Control_c, 0, 64, 0
2,55088, Note_on_c, 0, 68, 0
2,55146, Note_on_c, 0, 69, 83
2,55148, Note_on_c, 0, 48, 75
2,55179, Note_on_c, 0, 48, 0
2,55188, Note_on_c, 0, 69, 0
2,55406, Note_on_c, 0, 71, 80
2,55412, Note_on_c, 0, 52, 76
2,55439, Note_on_c, 0, 52, 0
2,55449, Note_on_c, 0, 71, 0
2,55662, Control_c, 0, 64, 28
2,55665, Note_on_c, 0, 72, 72
2,55677, Note_on_c, 0, 45, 70
2,55678, Control_c, 0, 64, 51
2,55693, Control_c, 0, 64, 61
2,55709, Control_c, 0, 64, 66
2,55724, Control_c, 0, 64, 72
2,55733, Note_on_c, 0, 45, 0
2,55738, Control_c, 0, 64, 81
2,55754, Control_c, 0, 64, 91
2,55758, Note_on_c, 0, 72, 0
2,55769, Control_c, 0, 64, 104
2,55784, Control_c, 0, 64, 127
2,55898, Control_c, 0, 64, 118
2,55914, Control_c, 0, 64, 105
2,55929, Control_c, 0, 64, 93
2,55939, Note_on_c, 0, 72, 80
2,55944, Control_c, 0, 64, 79
2,55945, Note_on_c, 0, 57, 79
2,55951, Note_on_c, 0, 53, 66
2,55959, Control_c, 0, 64, 68
2,55974, Control_c, 0, 64, 59
2,55989, Control_c, 0, 64, 39
2,56004, Control_c, 0, 64, 0
2,56036, Note_on_c, 0, 57, 0
2,56041, Note_on_c, 0, 56, 84
2,56055, Note_on_c, 0, 71, 89
2,56070, Note_on_c, 0, 53, 0
2,56073, Note_on_c, 0, 72, 0
2,56114, Note_on_c, 0, 71, 0
2,56115, Note_on_c, 0, 56, 0
2,56183, Note_on_c, 0, 57, 86
2,56189, Note_on_c, 0, 72, 82
2,56195, Note_on_c, 0, 52, 70
2,56237, Note_on_c, 0, 57, 0
2,56239, Note_on_c, 0, 52, 0
2,56247, Note_on_c, 0, 72, 0
2,56450, Note_on_c, 0, 74, 85
2,56459, Note_on_c, 0, 59, 90
2,56469, Note_on_c, 0, 50, 68
2,56504, Note_on_c, 0, 74, 0
2,56513, Note_on_c, 0, 59, 0
2,56515, Note_on_c, 0, 50, 0
2,56718, Note_on_c, 0, 76, 82
2,56722, Note_on_c, 0, 60, 75
2,56727, Note_on_c, 0, 48, 64
2,56743, Control_c, 0, 64, 35
2,56758, Control_c, 0, 64, 53
2,56764, Note_on_c, 0, 48, 0
2,56773, Control_c, 0, 64, 62
2,56788, Control_c, 0, 64, 66
2,56803, Control_c, 0, 64, 71
2,56818, Control_c, 0, 64, 76
2,56822, Note_on_c, 0, 60, 0
2,56834, Control_c, 0, 64, 81
2,56840, Note_on_c, 0, 74, 75
2,56849, Control_c, 0, 64, 85
2,56850, Note_on_c, 0, 76, 0
2,56865, Control_c, 0, 64, 87
2,56880, Control_c, 0, 64, 86
2,56895, Control_c, 0, 64, 85
2,56910, Control_c, 0, 64, 83
2,56925, Control_c, 0, 64, 81
2,56941, Control_c, 0, 64, 78
2,56956, Control_c, 0, 64, 74
2,56971, Control_c, 0, 64, 69
2,56974, Note_on_c, 0, 72, 80
2,56979, Note_on_c, 0, 60, 71
2,56983, Note_on_c, 0, 74, 0
2,56984, Note_on_c, 0, 57, 66
2,56986, Control_c, 0, 64, 63
2,57001, Control_c, 0, 64, 58
2,57016, Control_c, 0, 64, 52
2,57032, Control_c, 0, 64, 49
2,57046, Control_c, 0, 64, 48
2,57062, Control_c, 0, 64, 47
2,57070, Note_on_c, 0, 60, 0
2,57075, Note_on_c, 0, 72, 0
2,57077, Control_c, 0, 64, 43
2,57081, Note_on_c, 0, 74, 82
2,57087, Note_on_c, 0, 59, 75
2,57090, Note_on_c, 0, 60, 28
2,57092, Control_c, 0, 64, 37
2,57108, Control_c, 0, 64, 28
2,57112, Note_on_c, 0, 57, 0
2,57121, Note_on_c, 0, 60, 0
2,57122, Control_c, 0, 64, 19
2,57137, Control_c, 0, 64, 12
2,57143, Note_on_c, 0, 59, 0
2,57147, Note_on_c, 0, 74, 0
2,57153, Control_c, 0, 64, 0
2,57208, Note_on_c, 0, 60, 76
2,57212, Note_on_c, 0, 55, 83
2,57216, Note_on_c, 0, 76, 88
2,57262, Note_on_c, 0, 60, 0
2,57266, Note_on_c, 0, 55, 0
2,57273, Note_on_c, 0, 76, 0
2,57479, Note_on_c, 0, 77, 81
2,57490, Note_on_c, 0, 62, 78
2,57494, Note_on_c, 0, 53, 69
2,57516, Note_on_c, 0, 77, 0
2,57523, Note_on_c, 0, 62, 0
2,57531, Note_on_c, 0, 53, 0
2,57742, Note_on_c, 0, 68, 79
2,57750, Note_on_c, 0, 52, 69
2,57751, Note_on_c, 0, 64, 67
2,57832, Note_on_c, 0, 64, 0
2,57873, Note_on_c, 0, 62, 70
2,57926, Note_on_c, 0, 62, 0
2,57965, Note_on_c, 0, 68, 0
2,57994, Note_on_c, 0, 64, 70
2,58001, Note_on_c, 0, 60, 74
2,58004, Note_on_c, 0, 57, 66
2,58016, Note_on_c, 0, 52, 0
2,58031, Note_on_c, 0, 60, 0
2,58074, Note_on_c, 0, 64, 0
2,58109, Note_on_c, 0, 62, 76
2,58111, Note_on_c, 0, 55, 68
2,58114, Note_on_c, 0, 57, 0
2,58172, Note_on_c, 0, 62, 0
2,58224, Note_on_c, 0, 55, 0
2,58245, Note_on_c, 0, 64, 84
2,58247, Note_on_c, 0, 53, 76
2,58279, Note_on_c, 0, 64, 0
2,58360, Note_on_c, 0, 52, 73
2,58365, Note_on_c, 0, 53, 0
2,58479, Note_on_c, 0, 50, 72
2,58487, Note_on_c, 0, 52, 0
2,58494, Note_on_c, 0, 65, 68
2,58500, Note_on_c, 0, 69, 78
2,58519, Note_on_c, 0, 65, 0
2,58537, Note_on_c, 0, 69, 0
2,58594, Note_on_c, 0, 50, 0
2,58605, Note_on_c, 0, 48, 73
2,58695, Note_on_c, 0, 48, 0
2,58736, Note_on_c, 0, 56, 82
2,58741, Note_on_c, 0, 47, 70
2,58745, Note_on_c, 0, 71, 77
2,58775, Note_on_c, 0, 47, 0
2,58806, Note_on_c, 0, 56, 0
2,58863, Note_on_c, 0, 72, 79
2,58887, Note_on_c, 0, 71, 0
2,58994, Note_on_c, 0, 60, 68
2,58996, Note_on_c, 0, 69, 79
2,59003, Note_on_c, 0, 52, 61
2,59025, Note_on_c, 0, 72, 0
2,59075, Note_on_c, 0, 60, 0
2,59108, Note_on_c, 0, 71, 79
2,59109, Note_on_c, 0, 59, 71
2,59111, Note_on_c, 0, 69, 0
2,59211, Note_on_c, 0, 59, 0
2,59221, Note_on_c, 0, 52, 0
2,59236, Note_on_c, 0, 57, 66
2,59238, Note_on_c, 0, 72, 82
2,59273, Note_on_c, 0, 71, 0
2,59354, Note_on_c, 0, 74, 83
2,59358, Note_on_c, 0, 55, 78
2,59361, Note_on_c, 0, 57, 0
2,59366, Note_on_c, 0, 72, 0
2,59472, Note_on_c, 0, 55, 0
2,59477, Note_on_c, 0, 71, 84
2,59481, Note_on_c, 0, 53, 69
2,59483, Note_on_c, 0, 57, 74
2,59517, Note_on_c, 0, 74, 0
2,59551, Note_on_c, 0, 53, 0
2,59584, Note_on_c, 0, 52, 64
2,59598, Note_on_c, 0, 72, 84
2,59605, Note_on_c, 0, 57, 0
2,59619, Note_on_c, 0, 71, 0
2,59640, Note_on_c, 0, 52, 0
2,59682, Note_on_c, 0, 72, 0
2,59728, Note_on_c, 0, 59, 82
2,59735, Note_on_c, 0, 74, 88
2,59752, Note_on_c, 0, 50, 55
2,59781, Note_on_c, 0, 74, 0
2,59839, Note_on_c, 0, 59, 0
2,59847, Note_on_c, 0, 60, 75
2,59979, Note_on_c, 0, 72, 85
2,59982, Note_on_c, 0, 57, 71
2,59985, Note_on_c, 0, 60, 0
2,60024, Note_on_c, 0, 72, 0
2,60102, Note_on_c, 0, 59, 78
2,60111, Note_on_c, 0, 50, 0
2,60127, Note_on_c, 0, 57, 0
2,60218, Note_on_c, 0, 59, 0
2,60225, Note_on_c, 0, 71, 86
2,60230, Note_on_c, 0, 60, 79
2,60248, Note_on_c, 0, 52, 61
2,60276, Note_on_c, 0, 71, 0
2,60337, Note_on_c, 0, 62, 81
2,60355, Note_on_c, 0, 60, 0
2,60435, Note_on_c, 0, 62, 0
2,60468, Note_on_c, 0, 76, 94
2,60476, Note_on_c, 0, 59, 82
2,60544, Note_on_c, 0, 76, 0
2,60560, Note_on_c, 0, 52, 0
2,60588, Note_on_c, 0, 60, 87
2,60633, Note_on_c, 0, 59, 0
2,60714, Note_on_c, 0, 60, 0
2,60718, Note_on_c, 0, 62, 86
2,60720, Note_on_c, 0, 53, 75
2,60722, Note_on_c, 0, 69, 90
2,60778, Note_on_c, 0, 69, 0
2,60786, Note_on_c, 0, 62, 0
2,60792, Note_on_c, 0, 53, 0
2,60979, Note_on_c, 0, 81, 86
2,60986, Note_on_c, 0, 60, 71
2,60994, Note_on_c, 0, 52, 63
2,61049, Note_on_c, 0, 60, 0
2,61068, Note_on_c, 0, 52, 0
2,61270, Note_on_c, 0, 50, 56
2,61271, Note_on_c, 0, 59, 58
2,61312, Note_on_c, 0, 59, 0
2,61325, Note_on_c, 0, 50, 0
2,61514, Note_on_c, 0, 81, 0
2,61526, Note_on_c, 0, 79, 70
2,61543, Note_on_c, 0, 64, 57
2,61547, Note_on_c, 0, 52, 54
2,61579, Note_on_c, 0, 64, 0
2,61596, Note_on_c, 0, 52, 0
2,61838, Note_on_c, 0, 57, 53
2,61847, Note_on_c, 0, 48, 43
2,61920, Note_on_c, 0, 48, 0
2,62122, Note_on_c, 0, 84, 63
2,62137, Note_on_c, 0, 47, 48
2,62171, Note_on_c, 0, 79, 0
2,62184, Note_on_c, 0, 47, 0
2,62242, Note_on_c, 0, 83, 64
2,62247, Note_on_c, 0, 84, 0
2,62369, Note_on_c, 0, 83, 0
2,62372, Note_on_c, 0, 81, 62
2,62379, Note_on_c, 0, 48, 49
2,62412, Note_on_c, 0, 48, 0
2,62456, Note_on_c, 0, 81, 0
2,62495, Note_on_c, 0, 79, 60
2,62620, Note_on_c, 0, 45, 57
2,62630, Note_on_c, 0, 78, 67
2,62638, Note_on_c, 0, 79, 0
2,62668, Note_on_c, 0, 45, 0
2,62712, Note_on_c, 0, 78, 0
2,62758, Note_on_c, 0, 76, 61
2,62816, Note_on_c, 0, 76, 0
2,62892, Note_on_c, 0, 75, 69
2,62908, Note_on_c, 0, 47, 46
2,62917, Control_c, 0, 64, 42
2,62924, Note_on_c, 0, 75, 0
2,62930, Note_on_c, 0, 57, 0
2,62932, Control_c, 0, 64, 55
2,62948, Control_c, 0, 64, 62
2,62963, Control_c, 0, 64, 65
2,62979, Control_c, 0, 64, 68
2,62994, Control_c, 0, 64, 72
2,63008, Control_c, 0, 64, 77
2,63024, Control_c, 0, 64, 80
2,63039, Control_c, 0, 64, 81
2,63055, Control_c, 0, 64, 82
2,63131, Control_c, 0, 64, 81
2,63147, Control_c, 0, 64, 81
2,63159, Note_on_c, 0, 55, 58
2,63161, Control_c, 0, 64, 80
2,63167, Note_on_c, 0, 71, 67
2,63177, Control_c, 0, 64, 79
2,63182, Note_on_c, 0, 64, 58
2,63192, Control_c, 0, 64, 77
2,63207, Control_c, 0, 64, 74
2,63223, Control_c, 0, 64, 70
2,63237, Control_c, 0, 64, 65
2,63239, Note_on_c, 0, 55, 0
2,63252, Control_c, 0, 64, 60
2,63255, Note_on_c, 0, 64, 0
2,63265, Note_on_c, 0, 54, 59
2,63268, Control_c, 0, 64, 52
2,63280, Note_on_c, 0, 71, 0
2,63282, Note_on_c, 0, 63, 63
2,63283, Control_c, 0, 64, 44
2,63299, Control_c, 0, 64, 39
2,63303, Note_on_c, 0, 54, 0
2,63313, Control_c, 0, 64, 38
2,63318, Note_on_c, 0, 63, 0
2,63328, Control_c, 0, 64, 35
2,63344, Control_c, 0, 64, 30
2,63359, Control_c, 0, 64, 21
2,63375, Control_c, 0, 64, 9
2,63389, Control_c, 0, 64, 0
2,63412, Note_on_c, 0, 55, 69
2,63414, Note_on_c, 0, 64, 77
2,63420, Note_on_c, 0, 47, 0
2,63422, Note_on_c, 0, 73, 74
2,63446, Note_on_c, 0, 55, 0
2,63446, Note_on_c, 0, 73, 0
2,63447, Note_on_c, 0, 64, 0
2,63683, Note_on_c, 0, 66, 77
2,63685, Note_on_c, 0, 75, 80
2,63687, Note_on_c, 0, 57, 68
2,63691, Note_on_c, 0, 45, 56
2,63724, Note_on_c, 0, 45, 0
2,63726, Note_on_c, 0, 57, 0
2,63740, Note_on_c, 0, 66, 0
2,63743, Note_on_c, 0, 75, 0
2,63945, Control_c, 0, 64, 33
2,63954, Note_on_c, 0, 67, 67
2,63959, Note_on_c, 0, 43, 62
2,63960, Control_c, 0, 64, 56
2,63961, Note_on_c, 0, 76, 59
2,63975, Control_c, 0, 64, 65
2,63990, Control_c, 0, 64, 71
2,63996, Note_on_c, 0, 43, 0
2,64005, Control_c, 0, 64, 82
2,64021, Control_c, 0, 64, 97
2,64036, Control_c, 0, 64, 123
2,64051, Control_c, 0, 64, 127
2,64075, Note_on_c, 0, 76, 0
2,64079, Note_on_c, 0, 74, 65
2,64113, Note_on_c, 0, 67, 0
2,64114, Note_on_c, 0, 74, 0
2,64188, Control_c, 0, 64, 106
2,64203, Control_c, 0, 64, 88
2,64216, Note_on_c, 0, 64, 69
2,64217, Note_on_c, 0, 67, 78
2,64217, Note_on_c, 0, 72, 75
2,64219, Control_c, 0, 64, 73
2,64233, Control_c, 0, 64, 63
2,64248, Control_c, 0, 64, 45
2,64264, Control_c, 0, 64, 31
2,64286, Control_c, 0, 64, 29
2,64311, Note_on_c, 0, 67, 0
2,64318, Note_on_c, 0, 51, 83
2,64319, Note_on_c, 0, 72, 0
2,64323, Note_on_c, 0, 71, 74
2,64326, Note_on_c, 0, 66, 69
2,64332, Control_c, 0, 64, 29
2,64348, Control_c, 0, 64, 24
2,64362, Control_c, 0, 64, 18
2,64376, Note_on_c, 0, 51, 0
2,64378, Control_c, 0, 64, 13
2,64387, Note_on_c, 0, 66, 0
2,64393, Control_c, 0, 64, 9
2,64398, Note_on_c, 0, 71, 0
2,64408, Control_c, 0, 64, 0
2,64424, Note_on_c, 0, 64, 0
2,64459, Note_on_c, 0, 52, 77
2,64461, Note_on_c, 0, 67, 75
2,64461, Note_on_c, 0, 72, 84
2,64506, Note_on_c, 0, 67, 0
2,64511, Note_on_c, 0, 52, 0
2,64728, Note_on_c, 0, 54, 71
2,64728, Note_on_c, 0, 63, 75
2,64735, Note_on_c, 0, 69, 74
2,64768, Note_on_c, 0, 63, 0
2,64769, Note_on_c, 0, 54, 0
2,64780, Note_on_c, 0, 69, 0
2,64996, Note_on_c, 0, 71, 69
2,65004, Note_on_c, 0, 72, 0
2,65009, Note_on_c, 0, 64, 66
2,65014, Note_on_c, 0, 55, 59
2,65033, Control_c, 0, 64, 12
2,65048, Control_c, 0, 64, 36
2,65070, Control_c, 0, 64, 51
2,65085, Control_c, 0, 64, 59
2,65100, Note_on_c, 0, 71, 0
2,65101, Control_c, 0, 64, 63
2,65116, Control_c, 0, 64, 65
2,65131, Control_c, 0, 64, 67
2,65132, Note_on_c, 0, 69, 64
2,65136, Note_on_c, 0, 55, 0
2,65146, Control_c, 0, 64, 70
2,65161, Control_c, 0, 64, 73
2,65173, Note_on_c, 0, 69, 0
2,65177, Control_c, 0, 64, 76
2,65192, Control_c, 0, 64, 78
2,65207, Control_c, 0, 64, 79
2,65223, Control_c, 0, 64, 79
2,65238, Control_c, 0, 64, 78
2,65252, Control_c, 0, 64, 77
2,65259, Note_on_c, 0, 76, 77
2,65262, Note_on_c, 0, 67, 69
2,65266, Note_on_c, 0, 55, 59
2,65268, Control_c, 0, 64, 76
2,65283, Control_c, 0, 64, 74
2,65289, Note_on_c, 0, 55, 0
2,65299, Control_c, 0, 64, 71
2,65303, Note_on_c, 0, 67, 0
2,65314, Control_c, 0, 64, 67
2,65324, Note_on_c, 0, 76, 0
2,65329, Control_c, 0, 64, 63
2,65344, Control_c, 0, 64, 55
2,65359, Control_c, 0, 64, 47
2,65369, Note_on_c, 0, 69, 71
2,65371, Note_on_c, 0, 54, 81
2,65372, Note_on_c, 0, 75, 74
2,65375, Control_c, 0, 64, 43
2,65405, Control_c, 0, 64, 41
2,65420, Control_c, 0, 64, 37
2,65422, Note_on_c, 0, 69, 0
2,65427, Note_on_c, 0, 54, 0
2,65435, Control_c, 0, 64, 30
2,65439, Note_on_c, 0, 64, 0
2,65450, Control_c, 0, 64, 19
2,65451, Note_on_c, 0, 75, 0
2,65465, Control_c, 0, 64, 9
2,65480, Control_c, 0, 64, 0
2,65501, Note_on_c, 0, 55, 80
2,65510, Note_on_c, 0, 71, 80
2,65519, Note_on_c, 0, 77, 69
2,65523, Note_on_c, 0, 76, 64
2,65547, Note_on_c, 0, 71, 0
2,65552, Note_on_c, 0, 77, 0
2,65559, Note_on_c, 0, 76, 0
2,65562, Note_on_c, 0, 55, 0
2,65771, Note_on_c, 0, 57, 70
2,65771, Note_on_c, 0, 78, 81
2,65777, Note_on_c, 0, 72, 57
2,65806, Note_on_c, 0, 72, 0
2,65808, Note_on_c, 0, 57, 0
2,65832, Note_on_c, 0, 78, 0
2,66032, Note_on_c, 0, 79, 76
2,66044, Note_on_c, 0, 59, 63
2,66051, Note_on_c, 0, 63, 38
2,66082, Note_on_c, 0, 63, 0
2,66114, Note_on_c, 0, 79, 0
2,66164, Note_on_c, 0, 57, 65
2,66179, Note_on_c, 0, 59, 0
2,66289, Note_on_c, 0, 55, 62
2,66289, Note_on_c, 0, 59, 69
2,66296, Note_on_c, 0, 79, 75
2,66297, Note_on_c, 0, 57, 0
2,66363, Note_on_c, 0, 55, 0
2,66384, Note_on_c, 0, 79, 0
2,66393, Note_on_c, 0, 59, 0
2,66401, Note_on_c, 0, 57, 76
2,66401, Note_on_c, 0, 78, 81
2,66456, Note_on_c, 0, 78, 0
2,66461, Note_on_c, 0, 57, 0
2,66527, Note_on_c, 0, 59, 80
2,66530, Note_on_c, 0, 79, 81
2,66573, Note_on_c, 0, 59, 0
2,66579, Note_on_c, 0, 79, 0
2,66796, Note_on_c, 0, 81, 74
2,66810, Note_on_c, 0, 60, 65
2,66815, Note_on_c, 0, 64, 64
2,66840, Note_on_c, 0, 81, 0
2,66842, Note_on_c, 0, 60, 0
2,66845, Note_on_c, 0, 64, 0
2,67058, Note_on_c, 0, 71, 68
2,67066, Note_on_c, 0, 51, 63
2,67073, Note_on_c, 0, 66, 53
2,67117, Note_on_c, 0, 51, 0
2,67154, Note_on_c, 0, 66, 0
2,67184, Note_on_c, 0, 67, 61
2,67313, Note_on_c, 0, 67, 0
2,67316, Note_on_c, 0, 64, 57
2,67317, Note_on_c, 0, 47, 59
2,67393, Note_on_c, 0, 47, 0
2,67415, Note_on_c, 0, 64, 0
2,67441, Note_on_c, 0, 66, 57
2,67566, Note_on_c, 0, 67, 65
2,67583, Note_on_c, 0, 66, 0
2,67675, Note_on_c, 0, 69, 67
2,67697, Note_on_c, 0, 67, 0
2,67817, Note_on_c, 0, 52, 65
2,67818, Note_on_c, 0, 66, 63
2,67818, Note_on_c, 0, 69, 0
2,67859, Note_on_c, 0, 52, 0
2,67898, Note_on_c, 0, 66, 0
2,67931, Note_on_c, 0, 67, 69
2,67972, Note_on_c, 0, 67, 0
2,68058, Note_on_c, 0, 69, 71
2,68064, Note_on_c, 0, 54, 61
2,68109, Note_on_c, 0, 69, 0
2,68176, Note_on_c, 0, 55, 68
2,68185, Note_on_c, 0, 54, 0
2,68313, Note_on_c, 0, 67, 75
2,68316, Note_on_c, 0, 52, 67
2,68322, Note_on_c, 0, 55, 0
2,68365, Note_on_c, 0, 67, 0
2,68425, Note_on_c, 0, 54, 75
2,68463, Note_on_c, 0, 52, 0
2,68553, Note_on_c, 0, 55, 70
2,68564, Note_on_c, 0, 66, 80
2,68572, Note_on_c, 0, 71, 0
2,68582, Note_on_c, 0, 54, 0
2,68597, Note_on_c, 0, 66, 0
2,68677, Note_on_c, 0, 55, 0
2,68677, Note_on_c, 0, 57, 73
2,68802, Note_on_c, 0, 54, 73
2,68808, Note_on_c, 0, 71, 74
2,68810, Note_on_c, 0, 57, 0
2,68811, Note_on_c, 0, 76, 67
2,68912, Note_on_c, 0, 71, 0
2,68919, Note_on_c, 0, 76, 0
2,68933, Note_on_c, 0, 55, 67
2,68933, Note_on_c, 0, 74, 69
2,68958, Note_on_c, 0, 54, 0
2,68970, Note_on_c, 0, 74, 0
2,69057, Note_on_c, 0, 55, 0
2,69059, Note_on_c, 0, 57, 68
2,69066, Note_on_c, 0, 64, 62
2,69068, Note_on_c, 0, 72, 65
2,69125, Note_on_c, 0, 57, 0
2,69167, Note_on_c, 0, 72, 0
2,69182, Note_on_c, 0, 71, 65
2,69317, Note_on_c, 0, 71, 0
2,69319, Note_on_c, 0, 55, 50
2,69331, Note_on_c, 0, 69, 62
2,69378, Note_on_c, 0, 55, 0
2,69431, Note_on_c, 0, 69, 0
2,69446, Note_on_c, 0, 71, 57
2,69496, Note_on_c, 0, 71, 0
2,69592, Note_on_c, 0, 72, 59
2,69603, Note_on_c, 0, 54, 42
2,69662, Note_on_c, 0, 64, 0
2,69677, Control_c, 0, 64, 28
2,69692, Control_c, 0, 64, 50
2,69697, Note_on_c, 0, 54, 0
2,69708, Control_c, 0, 64, 58
2,69723, Control_c, 0, 64, 62
2,69738, Control_c, 0, 64, 65
2,69753, Control_c, 0, 64, 67
2,69768, Control_c, 0, 64, 69
2,69784, Control_c, 0, 64, 72
2,69799, Control_c, 0, 64, 73
2,69815, Control_c, 0, 64, 74
2,69830, Control_c, 0, 64, 73
2,69844, Control_c, 0, 64, 73
2,69846, Note_on_c, 0, 72, 0
2,69860, Control_c, 0, 64, 72
2,69864, Note_on_c, 0, 71, 59
2,69867, Note_on_c, 0, 59, 51
2,69875, Control_c, 0, 64, 70
2,69890, Control_c, 0, 64, 67
2,69893, Note_on_c, 0, 63, 39
2,69906, Control_c, 0, 64, 64
2,69910, Note_on_c, 0, 59, 0
2,69920, Control_c, 0, 64, 58
2,69936, Control_c, 0, 64, 51
2,69943, Note_on_c, 0, 63, 0
2,69951, Control_c, 0, 64, 44
2,69966, Control_c, 0, 64, 41
2,69971, Note_on_c, 0, 71, 0
2,69982, Control_c, 0, 64, 38
2,69985, Note_on_c, 0, 69, 58
2,69996, Control_c, 0, 64, 34
2,70011, Control_c, 0, 64, 23
2,70027, Control_c, 0, 64, 0
2,70044, Note_on_c, 0, 69, 0
2,70124, Note_on_c, 0, 67, 56
2,70132, Note_on_c, 0, 64, 47
2,70144, Note_on_c, 0, 52, 47
2,70194, Control_c, 0, 64, 39
2,70208, Control_c, 0, 64, 55
2,70224, Control_c, 0, 64, 62
2,70239, Control_c, 0, 64, 65
2,70248, Note_on_c, 0, 52, 0
2,70255, Control_c, 0, 64, 68
2,70270, Control_c, 0, 64, 70
2,70285, Control_c, 0, 64, 72
2,70301, Control_c, 0, 64, 73
2,70316, Control_c, 0, 64, 75
2,70330, Control_c, 0, 64, 76
2,70346, Control_c, 0, 64, 76
2,70406, Control_c, 0, 64, 76
2,70441, Note_on_c, 0, 72, 62
2,70442, Note_on_c, 0, 52, 57
2,70445, Control_c, 0, 64, 75
2,70461, Control_c, 0, 64, 74
2,70476, Control_c, 0, 64, 74
2,70490, Control_c, 0, 64, 73
2,70506, Control_c, 0, 64, 72
2,70513, Note_on_c, 0, 67, 0
2,70521, Control_c, 0, 64, 70
2,70537, Control_c, 0, 64, 67
2,70539, Note_on_c, 0, 51, 68
2,70540, Note_on_c, 0, 72, 0
2,70543, Note_on_c, 0, 71, 76
2,70552, Control_c, 0, 64, 63
2,70560, Note_on_c, 0, 52, 0
2,70566, Control_c, 0, 64, 59
2,70582, Control_c, 0, 64, 54
2,70588, Note_on_c, 0, 64, 0
2,70597, Control_c, 0, 64, 51
2,70612, Control_c, 0, 64, 50
2,70628, Control_c, 0, 64, 48
2,70643, Control_c, 0, 64, 42
2,70645, Note_on_c, 0, 71, 0
2,70652, Note_on_c, 0, 51, 0
2,70659, Control_c, 0, 64, 35
2,70673, Note_on_c, 0, 72, 74
2,70674, Control_c, 0, 64, 28
2,70680, Note_on_c, 0, 52, 62
2,70688, Control_c, 0, 64, 22
2,70695, Note_on_c, 0, 69, 61
2,70704, Control_c, 0, 64, 15
2,70719, Control_c, 0, 64, 0
2,70733, Note_on_c, 0, 52, 0
2,70740, Note_on_c, 0, 69, 0
2,70790, Note_on_c, 0, 67, 63
2,70887, Note_on_c, 0, 67, 0
2,70922, Note_on_c, 0, 66, 61
2,70926, Note_on_c, 0, 54, 66
2,70966, Note_on_c, 0, 54, 0
2,71036, Note_on_c, 0, 66, 0
2,71043, Note_on_c, 0, 64, 61
2,71082, Note_on_c, 0, 64, 0
2,71187, Note_on_c, 0, 62, 58
2,71198, Note_on_c, 0, 55, 57
2,71260, Control_c, 0, 64, 37
2,71274, Control_c, 0, 64, 54
2,71289, Control_c, 0, 64, 62
2,71305, Control_c, 0, 64, 66
2,71320, Control_c, 0, 64, 70
2,71324, Note_on_c, 0, 62, 0
2,71335, Control_c, 0, 64, 74
2,71350, Control_c, 0, 64, 78
2,71365, Control_c, 0, 64, 81
2,71381, Control_c, 0, 64, 82
2,71396, Control_c, 0, 64, 82
2,71409, Note_on_c, 0, 72, 0
2,71410, Control_c, 0, 64, 82
2,71426, Control_c, 0, 64, 81
2,71437, Note_on_c, 0, 71, 73
2,71441, Control_c, 0, 64, 80
2,71447, Note_on_c, 0, 67, 63
2,71457, Control_c, 0, 64, 79
2,71472, Control_c, 0, 64, 77
2,71486, Control_c, 0, 64, 75
2,71502, Control_c, 0, 64, 72
2,71517, Control_c, 0, 64, 68
2,71532, Control_c, 0, 64, 63
2,71548, Control_c, 0, 64, 56
2,71554, Note_on_c, 0, 67, 0
2,71557, Note_on_c, 0, 69, 78
2,71563, Control_c, 0, 64, 48
2,71564, Note_on_c, 0, 65, 70
2,71579, Control_c, 0, 64, 44
2,71581, Note_on_c, 0, 71, 0
2,71608, Control_c, 0, 64, 43
2,71624, Control_c, 0, 64, 41
2,71639, Control_c, 0, 64, 38
2,71655, Control_c, 0, 64, 35
2,71663, Note_on_c, 0, 65, 0
2,71670, Control_c, 0, 64, 32
2,71684, Control_c, 0, 64, 30
2,71686, Note_on_c, 0, 64, 70
2,71686, Note_on_c, 0, 71, 85
2,71689, Note_on_c, 0, 69, 0
2,71700, Control_c, 0, 64, 28
2,71715, Control_c, 0, 64, 27
2,71730, Control_c, 0, 64, 26
2,71738, Note_on_c, 0, 71, 0
2,71745, Control_c, 0, 64, 25
2,71760, Control_c, 0, 64, 24
2,71776, Control_c, 0, 64, 24
2,71791, Control_c, 0, 64, 23
2,71809, Note_on_c, 0, 62, 73
2,71815, Note_on_c, 0, 64, 0
2,71866, Control_c, 0, 64, 23
2,71881, Control_c, 0, 64, 22
2,71930, Note_on_c, 0, 73, 85
2,71938, Note_on_c, 0, 61, 74
2,71958, Note_on_c, 0, 62, 0
2,71996, Note_on_c, 0, 73, 0
2,72026, Control_c, 0, 64, 21
2,72043, Note_on_c, 0, 61, 0
2,72056, Note_on_c, 0, 59, 78
2,72133, Control_c, 0, 64, 19
2,72149, Control_c, 0, 64, 13
2,72164, Control_c, 0, 64, 0
2,72194, Note_on_c, 0, 74, 87
2,72196, Note_on_c, 0, 55, 0
2,72202, Note_on_c, 0, 57, 70
2,72210, Note_on_c, 0, 55, 45
2,72235, Note_on_c, 0, 59, 0
2,72301, Control_c, 0, 64, 43
2,72316, Control_c, 0, 64, 57
2,72330, Control_c, 0, 64, 64
2,72343, Note_on_c, 0, 74, 0
2,72346, Control_c, 0, 64, 68
2,72361, Control_c, 0, 64, 76
2,72377, Control_c, 0, 64, 83
2,72392, Control_c, 0, 64, 90
2,72407, Control_c, 0, 64, 95
2,72423, Control_c, 0, 64, 96
2,72438, Control_c, 0, 64, 94
2,72452, Control_c, 0, 64, 91
2,72458, Note_on_c, 0, 74, 81
2,72460, Note_on_c, 0, 54, 74
2,72468, Control_c, 0, 64, 88
2,72483, Control_c, 0, 64, 83
2,72491, Note_on_c, 0, 55, 0
2,72498, Control_c, 0, 64, 77
2,72513, Control_c, 0, 64, 70
2,72528, Control_c, 0, 64, 64
2,72544, Control_c, 0, 64, 55
2,72559, Control_c, 0, 64, 48
2,72566, Note_on_c, 0, 52, 77
2,72572, Note_on_c, 0, 72, 82
2,72575, Control_c, 0, 64, 46
2,72587, Note_on_c, 0, 54, 0
2,72589, Control_c, 0, 64, 45
2,72604, Control_c, 0, 64, 44
2,72620, Control_c, 0, 64, 40
2,72635, Control_c, 0, 64, 32
2,72650, Control_c, 0, 64, 18
2,72665, Control_c, 0, 64, 0
2,72686, Note_on_c, 0, 54, 88
2,72691, Note_on_c, 0, 71, 86
2,72698, Note_on_c, 0, 57, 0
2,72711, Note_on_c, 0, 52, 0
2,72721, Note_on_c, 0, 72, 0
2,72750, Note_on_c, 0, 54, 0
2,72807, Note_on_c, 0, 71, 0
2,72817, Note_on_c, 0, 69, 80
2,72951, Note_on_c, 0, 56, 90
2,72954, Note_on_c, 0, 68, 82
2,72963, Note_on_c, 0, 69, 0
2,73008, Note_on_c, 0, 56, 0
2,73071, Note_on_c, 0, 68, 0
2,73073, Note_on_c, 0, 66, 81
2,73124, Note_on_c, 0, 66, 0
2,73216, Note_on_c, 0, 64, 83
2,73226, Note_on_c, 0, 57, 81
2,73250, Control_c, 0, 64, 43
2,73266, Control_c, 0, 64, 57
2,73281, Control_c, 0, 64, 64
2,73283, Note_on_c, 0, 74, 0
2,73297, Control_c, 0, 64, 71
2,73312, Control_c, 0, 64, 88
2,73327, Control_c, 0, 64, 127
2,73382, Note_on_c, 0, 57, 0
2,73483, Note_on_c, 0, 72, 86
2,73490, Note_on_c, 0, 57, 86
2,73517, Control_c, 0, 64, 113
2,73532, Control_c, 0, 64, 94
2,73545, Note_on_c, 0, 64, 0
2,73548, Control_c, 0, 64, 81
2,73562, Control_c, 0, 64, 70
2,73578, Control_c, 0, 64, 62
2,73593, Control_c, 0, 64, 50
2,73599, Note_on_c, 0, 71, 89
2,73600, Note_on_c, 0, 56, 85
2,73608, Control_c, 0, 64, 39
2,73618, Note_on_c, 0, 57, 0
2,73624, Control_c, 0, 64, 36
2,73630, Note_on_c, 0, 72, 0
2,73638, Control_c, 0, 64, 35
2,73653, Control_c, 0, 64, 32
2,73669, Control_c, 0, 64, 20
2,73680, Note_on_c, 0, 71, 0
2,73684, Control_c, 0, 64, 0
2,73693, Note_on_c, 0, 56, 0
2,73731, Note_on_c, 0, 69, 89
2,73732, Note_on_c, 0, 72, 91
2,73740, Note_on_c, 0, 57, 82
2,73802, Note_on_c, 0, 57, 0
2,73807, Note_on_c, 0, 72, 0
2,73993, Note_on_c, 0, 74, 91
2,73999, Note_on_c, 0, 59, 82
2,74043, Note_on_c, 0, 59, 0
2,74062, Note_on_c, 0, 74, 0
2,74262, Note_on_c, 0, 76, 92
2,74272, Note_on_c, 0, 60, 79
2,74324, Note_on_c, 0, 69, 0
2,74330, Control_c, 0, 64, 22
2,74346, Control_c, 0, 64, 50
2,74361, Control_c, 0, 64, 61
2,74376, Control_c, 0, 64, 67
2,74391, Control_c, 0, 64, 71
2,74397, Note_on_c, 0, 60, 0
2,74406, Control_c, 0, 64, 77
2,74422, Control_c, 0, 64, 83
2,74437, Control_c, 0, 64, 89
2,74452, Control_c, 0, 64, 93
2,74468, Control_c, 0, 64, 94
2,74482, Control_c, 0, 64, 93
2,74495, Note_on_c, 0, 76, 0
2,74498, Control_c, 0, 64, 93
2,74511, Control_c, 0, 64, 92
2,74521, Note_on_c, 0, 60, 77
2,74523, Note_on_c, 0, 69, 85
2,74526, Control_c, 0, 64, 91
2,74526, Note_on_c, 0, 57, 72
2,74542, Control_c, 0, 64, 89
2,74557, Control_c, 0, 64, 87
2,74572, Control_c, 0, 64, 85
2,74588, Control_c, 0, 64, 82
2,74603, Control_c, 0, 64, 78
2,74618, Control_c, 0, 64, 72
2,74620, Note_on_c, 0, 68, 88
2,74628, Note_on_c, 0, 59, 86
2,74633, Control_c, 0, 64, 66
2,74638, Note_on_c, 0, 69, 0
2,74648, Control_c, 0, 64, 59
2,74652, Note_on_c, 0, 57, 0
2,74654, Note_on_c, 0, 60, 0
2,74662, Note_on_c, 0, 68, 0
2,74664, Control_c, 0, 64, 49
2,74679, Control_c, 0, 64, 43
2,74694, Control_c, 0, 64, 42
2,74697, Note_on_c, 0, 59, 0
2,74709, Control_c, 0, 64, 40
2,74724, Control_c, 0, 64, 35
2,74739, Control_c, 0, 64, 24
2,74755, Control_c, 0, 64, 0
2,74759, Note_on_c, 0, 81, 87
2,74760, Note_on_c, 0, 55, 66
2,74765, Note_on_c, 0, 60, 81
2,74765, Note_on_c, 0, 69, 86
2,74824, Note_on_c, 0, 69, 0
2,74825, Note_on_c, 0, 60, 0
2,74835, Note_on_c, 0, 55, 0
2,75036, Note_on_c, 0, 71, 84
2,75046, Note_on_c, 0, 53, 71
2,75047, Note_on_c, 0, 62, 72
2,75084, Note_on_c, 0, 62, 0
2,75094, Note_on_c, 0, 71, 0
2,75102, Note_on_c, 0, 53, 0
2,75279, Control_c, 0, 64, 27
2,75294, Control_c, 0, 64, 49
2,75294, Note_on_c, 0, 64, 60
2,75294, Note_on_c, 0, 72, 75
2,75298, Note_on_c, 0, 52, 57
2,75310, Control_c, 0, 64, 59
2,75324, Control_c, 0, 64, 65
2,75339, Control_c, 0, 64, 69
2,75346, Note_on_c, 0, 72, 0
2,75355, Control_c, 0, 64, 75
2,75369, Note_on_c, 0, 64, 0
2,75370, Control_c, 0, 64, 79
2,75386, Control_c, 0, 64, 82
2,75401, Control_c, 0, 64, 83
2,75404, Note_on_c, 0, 62, 71
2,75411, Note_on_c, 0, 80, 81
2,75416, Control_c, 0, 64, 82
2,75431, Note_on_c, 0, 81, 0
2,75432, Control_c, 0, 64, 82
2,75441, Note_on_c, 0, 72, 60
2,75447, Control_c, 0, 64, 81
2,75463, Control_c, 0, 64, 81
2,75466, Note_on_c, 0, 72, 0
2,75477, Control_c, 0, 64, 80
2,75492, Control_c, 0, 64, 79
2,75492, Note_on_c, 0, 80, 0
2,75508, Control_c, 0, 64, 78
2,75523, Control_c, 0, 64, 76
2,75523, Note_on_c, 0, 60, 77
2,75532, Note_on_c, 0, 72, 85
2,75538, Control_c, 0, 64, 74
2,75538, Note_on_c, 0, 81, 82
2,75548, Note_on_c, 0, 62, 0
2,75553, Control_c, 0, 64, 72
2,75568, Control_c, 0, 64, 68
2,75584, Control_c, 0, 64, 64
2,75586, Note_on_c, 0, 72, 0
2,75598, Control_c, 0, 64, 61
2,75613, Control_c, 0, 64, 55
2,75629, Control_c, 0, 64, 52
2,75644, Control_c, 0, 64, 51
2,75648, Note_on_c, 0, 62, 82
2,75649, Note_on_c, 0, 80, 82
2,75650, Note_on_c, 0, 71, 88
2,75659, Control_c, 0, 64, 50
2,75663, Note_on_c, 0, 60, 0
2,75674, Control_c, 0, 64, 48
2,75681, Note_on_c, 0, 81, 0
2,75689, Control_c, 0, 64, 44
2,75702, Note_on_c, 0, 71, 0
2,75705, Control_c, 0, 64, 37
2,75720, Control_c, 0, 64, 29
2,75729, Note_on_c, 0, 80, 0
2,75734, Note_on_c, 0, 62, 0
2,75735, Control_c, 0, 64, 22
2,75744, Note_on_c, 0, 52, 0
2,75750, Control_c, 0, 64, 15
2,75765, Control_c, 0, 64, 0
2,75773, Note_on_c, 0, 64, 81
2,75773, Note_on_c, 0, 81, 90
2,75774, Note_on_c, 0, 72, 88
2,75826, Note_on_c, 0, 72, 0
2,75846, Note_on_c, 0, 64, 0
2,75852, Note_on_c, 0, 81, 0
2,76039, Note_on_c, 0, 65, 81
2,76040, Note_on_c, 0, 83, 87
2,76048, Note_on_c, 0, 74, 79
2,76089, Note_on_c, 0, 65, 0
2,76092, Note_on_c, 0, 74, 0
2,76097, Note_on_c, 0, 83, 0
2,76292, Note_on_c, 0, 56, 79
2,76300, Note_on_c, 0, 76, 77
2,76359, Note_on_c, 0, 56, 0
2,76411, Note_on_c, 0, 74, 76
2,76449, Note_on_c, 0, 76, 0
2,76532, Note_on_c, 0, 72, 77
2,76539, Note_on_c, 0, 45, 83
2,76547, Note_on_c, 0, 52, 69
2,76561, Note_on_c, 0, 74, 0
2,76654, Note_on_c, 0, 74, 86
2,76660, Note_on_c, 0, 47, 77
2,76660, Note_on_c, 0, 72, 0
2,76687, Note_on_c, 0, 45, 0
2,76730, Note_on_c, 0, 74, 0
2,76732, Note_on_c, 0, 47, 0
2,76791, Note_on_c, 0, 48, 85
2,76792, Note_on_c, 0, 76, 90
2,76833, Note_on_c, 0, 52, 0
2,76842, Note_on_c, 0, 48, 0
2,76864, Note_on_c, 0, 76, 0
2,77035, Note_on_c, 0, 74, 74
2,77040, Note_on_c, 0, 57, 65
2,77040, Note_on_c, 0, 77, 76
2,77046, Note_on_c, 0, 50, 61
2,77094, Note_on_c, 0, 74, 0
2,77104, Control_c, 0, 64, 33
2,77107, Note_on_c, 0, 77, 0
2,77116, Note_on_c, 0, 57, 0
2,77119, Control_c, 0, 64, 49
2,77134, Control_c, 0, 64, 57
2,77150, Control_c, 0, 64, 58
2,77153, Note_on_c, 0, 72, 72
2,77180, Control_c, 0, 64, 57
2,77196, Control_c, 0, 64, 57
2,77211, Control_c, 0, 64, 56
2,77227, Control_c, 0, 64, 55
2,77241, Control_c, 0, 64, 54
2,77243, Note_on_c, 0, 72, 0
2,77256, Control_c, 0, 64, 52
2,77272, Control_c, 0, 64, 48
2,77280, Note_on_c, 0, 68, 76
2,77280, Note_on_c, 0, 71, 77
2,77286, Control_c, 0, 64, 41
2,77287, Note_on_c, 0, 59, 77
2,77302, Control_c, 0, 64, 35
2,77317, Control_c, 0, 64, 32
2,77332, Control_c, 0, 64, 31
2,77365, Note_on_c, 0, 59, 0
2,77386, Control_c, 0, 64, 34
2,77398, Note_on_c, 0, 71, 0
2,77401, Control_c, 0, 64, 39
2,77415, Control_c, 0, 64, 45
2,77431, Control_c, 0, 64, 50
2,77435, Note_on_c, 0, 59, 48
2,77446, Control_c, 0, 64, 54
2,77450, Note_on_c, 0, 50, 0
2,77462, Control_c, 0, 64, 55
2,77466, Note_on_c, 0, 59, 0
2,77548, Note_on_c, 0, 48, 82
2,77549, Note_on_c, 0, 76, 83
2,77553, Control_c, 0, 64, 55
2,77556, Note_on_c, 0, 64, 70
2,77557, Note_on_c, 0, 57, 71
2,77580, Note_on_c, 0, 68, 0
2,77584, Note_on_c, 0, 57, 0
2,77595, Note_on_c, 0, 48, 0
2,77613, Control_c, 0, 64, 55
2,77620, Note_on_c, 0, 64, 0
2,77629, Control_c, 0, 64, 54
2,77664, Note_on_c, 0, 74, 85
2,77671, Note_on_c, 0, 50, 45
2,77675, Note_on_c, 0, 48, 50
2,77682, Note_on_c, 0, 57, 22
2,77685, Note_on_c, 0, 76, 0
2,77700, Note_on_c, 0, 50, 0
2,77703, Note_on_c, 0, 48, 0
2,77719, Control_c, 0, 64, 54
2,77722, Note_on_c, 0, 57, 0
2,77765, Control_c, 0, 64, 53
2,77786, Note_on_c, 0, 72, 88
2,77795, Note_on_c, 0, 52, 76
2,77796, Control_c, 0, 64, 53
2,77801, Note_on_c, 0, 60, 73
2,77811, Control_c, 0, 64, 52
2,77814, Note_on_c, 0, 74, 0
2,77827, Control_c, 0, 64, 51
2,77842, Control_c, 0, 64, 50
2,77857, Control_c, 0, 64, 50
2,77872, Control_c, 0, 64, 49
2,77903, Control_c, 0, 64, 49
2,77906, Note_on_c, 0, 71, 82
2,77914, Note_on_c, 0, 72, 0
2,77916, Note_on_c, 0, 62, 78
2,77918, Control_c, 0, 64, 48
2,77932, Control_c, 0, 64, 48
2,77938, Note_on_c, 0, 60, 0
2,77945, Note_on_c, 0, 52, 0
2,77948, Control_c, 0, 64, 47
2,77963, Control_c, 0, 64, 47
2,77978, Control_c, 0, 64, 46
2,77991, Note_on_c, 0, 62, 0
2,77994, Control_c, 0, 64, 44
2,78003, Note_on_c, 0, 71, 0
2,78009, Control_c, 0, 64, 43
2,78025, Control_c, 0, 64, 42
2,78031, Note_on_c, 0, 69, 87
2,78035, Note_on_c, 0, 59, 77
2,78045, Note_on_c, 0, 53, 72
2,78054, Control_c, 0, 64, 41
2,78085, Control_c, 0, 64, 41
2,78123, Control_c, 0, 64, 40
2,78137, Control_c, 0, 64, 40
2,78140, Note_on_c, 0, 60, 76
2,78148, Note_on_c, 0, 68, 81
2,78153, Control_c, 0, 64, 39
2,78162, Note_on_c, 0, 69, 0
2,78165, Note_on_c, 0, 59, 0
2,78199, Control_c, 0, 64, 39
2,78213, Control_c, 0, 64, 38
2,78223, Note_on_c, 0, 68, 0
2,78229, Control_c, 0, 64, 35
2,78232, Note_on_c, 0, 60, 0
2,78244, Control_c, 0, 64, 30
2,78259, Control_c, 0, 64, 23
2,78275, Control_c, 0, 64, 12
2,78281, Note_on_c, 0, 71, 80
2,78284, Note_on_c, 0, 62, 67
2,78287, Note_on_c, 0, 69, 71
2,78290, Control_c, 0, 64, 0
2,78336, Control_c, 0, 64, 18
2,78351, Control_c, 0, 64, 31
2,78366, Control_c, 0, 64, 45
2,78372, Note_on_c, 0, 69, 0
2,78382, Control_c, 0, 64, 56
2,78395, Note_on_c, 0, 62, 0
2,78399, Control_c, 0, 64, 60
2,78403, Note_on_c, 0, 72, 81
2,78409, Note_on_c, 0, 53, 0
2,78415, Control_c, 0, 64, 60
2,78430, Note_on_c, 0, 71, 0
2,78444, Control_c, 0, 64, 60
2,78460, Control_c, 0, 64, 59
2,78474, Control_c, 0, 64, 59
2,78486, Note_on_c, 0, 72, 0
2,78505, Control_c, 0, 64, 58
2,78519, Note_on_c, 0, 52, 71
2,78520, Control_c, 0, 64, 58
2,78522, Note_on_c, 0, 60, 68
2,78523, Note_on_c, 0, 69, 75
2,78536, Control_c, 0, 64, 57
2,78546, Note_on_c, 0, 52, 0
2,78550, Control_c, 0, 64, 55
2,78565, Control_c, 0, 64, 52
2,78581, Control_c, 0, 64, 50
2,78596, Control_c, 0, 64, 48
2,78598, Note_on_c, 0, 69, 0
2,78611, Control_c, 0, 64, 47
2,78624, Note_on_c, 0, 71, 82
2,78628, Control_c, 0, 64, 46
2,78631, Note_on_c, 0, 50, 79
2,78642, Control_c, 0, 64, 45
2,78644, Note_on_c, 0, 60, 0
2,78658, Control_c, 0, 64, 42
2,78665, Note_on_c, 0, 50, 0
2,78673, Control_c, 0, 64, 38
2,78688, Control_c, 0, 64, 34
2,78704, Control_c, 0, 64, 26
2,78718, Control_c, 0, 64, 0
2,78733, Note_on_c, 0, 71, 0
2,78753, Note_on_c, 0, 72, 81
2,78762, Note_on_c, 0, 68, 82
2,78765, Note_on_c, 0, 59, 80
2,78767, Note_on_c, 0, 52, 74
2,78844, Note_on_c, 0, 68, 0
2,78855, Control_c, 0, 64, 49
2,78877, Note_on_c, 0, 74, 89
2,78878, Control_c, 0, 64, 61
2,78882, Note_on_c, 0, 72, 0
2,78886, Note_on_c, 0, 52, 0
2,78893, Control_c, 0, 64, 65
2,78908, Control_c, 0, 64, 66
2,78923, Control_c, 0, 64, 67
2,78954, Control_c, 0, 64, 66
2,78984, Control_c, 0, 64, 66
2,78999, Control_c, 0, 64, 65
2,79016, Note_on_c, 0, 74, 0
2,79020, Note_on_c, 0, 71, 83
2,79021, Note_on_c, 0, 48, 70
2,79025, Note_on_c, 0, 64, 82
2,79030, Control_c, 0, 64, 64
2,79048, Control_c, 0, 64, 63
2,79062, Control_c, 0, 64, 61
2,79077, Control_c, 0, 64, 59
2,79086, Note_on_c, 0, 59, 0
2,79093, Control_c, 0, 64, 56
2,79099, Note_on_c, 0, 64, 0
2,79108, Control_c, 0, 64, 54
2,79123, Control_c, 0, 64, 52
2,79139, Control_c, 0, 64, 51
2,79142, Note_on_c, 0, 72, 87
2,79151, Note_on_c, 0, 71, 0
2,79154, Control_c, 0, 64, 47
2,79170, Control_c, 0, 64, 43
2,79184, Control_c, 0, 64, 36
2,79199, Control_c, 0, 64, 29
2,79215, Control_c, 0, 64, 24
2,79219, Note_on_c, 0, 72, 0
2,79230, Control_c, 0, 64, 23
2,79245, Control_c, 0, 64, 21
2,79260, Control_c, 0, 64, 20
2,79275, Control_c, 0, 64, 18
2,79291, Control_c, 0, 64, 16
2,79295, Note_on_c, 0, 74, 77
2,79301, Note_on_c, 0, 69, 60
2,79306, Control_c, 0, 64, 15
2,79320, Control_c, 0, 64, 13
2,79331, Note_on_c, 0, 57, 49
2,79335, Note_on_c, 0, 53, 55
2,79336, Control_c, 0, 64, 12
2,79343, Note_on_c, 0, 48, 0
2,79351, Control_c, 0, 64, 11
2,79366, Control_c, 0, 64, 9
2,79472, Note_on_c, 0, 74, 0
2,79532, Note_on_c, 0, 52, 61
2,79535, Note_on_c, 0, 53, 0
2,79545, Note_on_c, 0, 72, 77
2,79659, Note_on_c, 0, 50, 74
2,79662, Note_on_c, 0, 72, 0
2,79667, Note_on_c, 0, 52, 0
2,79779, Note_on_c, 0, 52, 72
2,79784, Note_on_c, 0, 71, 84
2,79806, Note_on_c, 0, 50, 0
2,79824, Note_on_c, 0, 69, 0
2,79863, Note_on_c, 0, 71, 0
2,79895, Note_on_c, 0, 53, 79
2,79926, Note_on_c, 0, 52, 0
2,79962, Note_on_c, 0, 57, 0
2,80028, Note_on_c, 0, 53, 0
2,80028, Note_on_c, 0, 55, 59
2,80030, Note_on_c, 0, 76, 83
2,80031, Note_on_c, 0, 52, 74
2,80148, Note_on_c, 0, 50, 71
2,80153, Note_on_c, 0, 52, 0
2,80169, Note_on_c, 0, 76, 0
2,80203, Note_on_c, 0, 50, 0
2,80210, Control_c, 0, 64, 0
2,80304, Note_on_c, 0, 69, 76
2,80322, Note_on_c, 0, 49, 60
2,80349, Note_on_c, 0, 55, 0
2,80430, Note_on_c, 0, 49, 0
2,80596, Note_on_c, 0, 53, 69
2,80601, Note_on_c, 0, 45, 65
2,80692, Note_on_c, 0, 52, 73
2,80698, Note_on_c, 0, 53, 0
2,80747, Note_on_c, 0, 45, 0
2,80760, Note_on_c, 0, 52, 0
2,80826, Note_on_c, 0, 53, 72
2,80827, Note_on_c, 0, 50, 72
2,80910, Note_on_c, 0, 50, 0
2,80939, Note_on_c, 0, 77, 87
2,80979, Note_on_c, 0, 69, 0
2,81065, Note_on_c, 0, 48, 71
2,81071, Note_on_c, 0, 74, 85
2,81089, Note_on_c, 0, 77, 0
2,81113, Note_on_c, 0, 48, 0
2,81194, Note_on_c, 0, 71, 83
2,81194, Note_on_c, 0, 74, 0
2,81253, Note_on_c, 0, 71, 0
2,81324, Note_on_c, 0, 47, 52
2,81328, Note_on_c, 0, 67, 72
2,81397, Control_c, 0, 64, 32
2,81409, Note_on_c, 0, 53, 0
2,81413, Control_c, 0, 64, 48
2,81428, Control_c, 0, 64, 54
2,81430, Note_on_c, 0, 47, 0
2,81442, Control_c, 0, 64, 55
2,81489, Control_c, 0, 64, 55
2,81504, Control_c, 0, 64, 54
2,81534, Control_c, 0, 64, 54
2,81549, Control_c, 0, 64, 53
2,81564, Control_c, 0, 64, 53
2,81579, Control_c, 0, 64, 52
2,81584, Note_on_c, 0, 52, 64
2,81593, Note_on_c, 0, 43, 59
2,81594, Control_c, 0, 64, 51
2,81610, Control_c, 0, 64, 49
2,81625, Control_c, 0, 64, 46
2,81639, Control_c, 0, 64, 43
2,81655, Control_c, 0, 64, 41
2,81670, Control_c, 0, 64, 39
2,81679, Note_on_c, 0, 52, 0
2,81685, Control_c, 0, 64, 38
2,81686, Note_on_c, 0, 50, 63
2,81701, Control_c, 0, 64, 35
2,81716, Control_c, 0, 64, 33
2,81732, Control_c, 0, 64, 30
2,81737, Note_on_c, 0, 43, 0
2,81746, Control_c, 0, 64, 28
2,81751, Note_on_c, 0, 50, 0
2,81761, Control_c, 0, 64, 25
2,81777, Control_c, 0, 64, 23
2,81792, Control_c, 0, 64, 21
2,81808, Control_c, 0, 64, 18
2,81823, Control_c, 0, 64, 16
2,81824, Note_on_c, 0, 52, 52
2,81826, Note_on_c, 0, 48, 59
2,81838, Control_c, 0, 64, 13
2,81853, Control_c, 0, 64, 9
2,81868, Control_c, 0, 64, 0
2,81898, Note_on_c, 0, 48, 0
2,81942, Note_on_c, 0, 76, 64
2,81982, Note_on_c, 0, 67, 0
2,82078, Note_on_c, 0, 72, 67
2,82082, Note_on_c, 0, 76, 0
2,82093, Note_on_c, 0, 47, 49
2,82135, Note_on_c, 0, 47, 0
2,82191, Note_on_c, 0, 72, 0
2,82198, Note_on_c, 0, 69, 63
2,82240, Note_on_c, 0, 69, 0
2,82325, Note_on_c, 0, 65, 61
2,82334, Note_on_c, 0, 45, 46
2,82569, Note_on_c, 0, 45, 0
2,82581, Note_on_c, 0, 47, 47
2,82581, Note_on_c, 0, 67, 60
2,82599, Note_on_c, 0, 65, 0
2,82629, Note_on_c, 0, 52, 0
2,82689, Note_on_c, 0, 48, 54
2,82696, Note_on_c, 0, 69, 66
2,82700, Note_on_c, 0, 47, 0
2,82700, Note_on_c, 0, 67, 0
2,82804, Note_on_c, 0, 48, 0
2,82830, Note_on_c, 0, 67, 66
2,82834, Note_on_c, 0, 69, 0
2,82836, Note_on_c, 0, 47, 58
2,82840, Note_on_c, 0, 50, 50
2,82878, Note_on_c, 0, 47, 0
2,82937, Note_on_c, 0, 67, 0
2,82949, Note_on_c, 0, 65, 62
2,83074, Note_on_c, 0, 65, 0
2,83085, Note_on_c, 0, 64, 58
2,83095, Note_on_c, 0, 43, 50
2,83150, Note_on_c, 0, 43, 0
2,83190, Note_on_c, 0, 64, 0
2,83201, Note_on_c, 0, 65, 58
2,83295, Control_c, 0, 64, 12
2,83310, Control_c, 0, 64, 35
2,83318, Note_on_c, 0, 65, 0
2,83325, Control_c, 0, 64, 53
2,83330, Note_on_c, 0, 64, 58
2,83339, Note_on_c, 0, 48, 55
2,83340, Control_c, 0, 64, 61
2,83345, Note_on_c, 0, 50, 0
2,83355, Control_c, 0, 64, 62
2,83368, Note_on_c, 0, 48, 0
2,83370, Control_c, 0, 64, 62
2,83386, Control_c, 0, 64, 61
2,83401, Control_c, 0, 64, 59
2,83417, Control_c, 0, 64, 56
2,83432, Control_c, 0, 64, 50
2,83447, Control_c, 0, 64, 44
2,83461, Note_on_c, 0, 48, 58
2,83462, Control_c, 0, 64, 39
2,83477, Control_c, 0, 64, 35
2,83500, Control_c, 0, 64, 30
2,83515, Control_c, 0, 64, 24
2,83530, Control_c, 0, 64, 17
2,83547, Control_c, 0, 64, 0
2,83603, Note_on_c, 0, 50, 60
2,83607, Note_on_c, 0, 48, 0
2,83720, Note_on_c, 0, 52, 61
2,83806, Note_on_c, 0, 50, 0
2,83812, Note_on_c, 0, 52, 0
2,83846, Note_on_c, 0, 53, 56
2,83945, Note_on_c, 0, 53, 0
2,83963, Note_on_c, 0, 55, 59
2,84062, Note_on_c, 0, 55, 0
2,84097, Note_on_c, 0, 47, 53
2,84101, Note_on_c, 0, 57, 61
2,84141, Note_on_c, 0, 47, 0
2,84169, Note_on_c, 0, 57, 0
2,84205, Note_on_c, 0, 59, 52
2,84322, Note_on_c, 0, 59, 0
2,84350, Note_on_c, 0, 60, 62
2,84373, Note_on_c, 0, 45, 44
2,84452, Note_on_c, 0, 64, 0
2,84489, Note_on_c, 0, 62, 55
2,84598, Note_on_c, 0, 64, 54
2,84599, Note_on_c, 0, 62, 0
2,84717, Note_on_c, 0, 64, 0
2,84725, Note_on_c, 0, 65, 67
2,84807, Note_on_c, 0, 65, 0
2,84857, Note_on_c, 0, 67, 66
2,84963, Note_on_c, 0, 67, 0
2,84969, Note_on_c, 0, 69, 71
2,85076, Note_on_c, 0, 69, 0
2,85102, Note_on_c, 0, 71, 67
2,85103, Note_on_c, 0, 43, 55
2,85111, Note_on_c, 0, 45, 0
2,85211, Note_on_c, 0, 71, 0
2,85217, Note_on_c, 0, 72, 68
2,85280, Note_on_c, 0, 72, 0
2,85352, Note_on_c, 0, 62, 69
2,85364, Note_on_c, 0, 41, 63
2,85369, Note_on_c, 0, 43, 0
2,85449, Note_on_c, 0, 41, 0
2,85472, Note_on_c, 0, 64, 72
2,85476, Note_on_c, 0, 62, 0
2,85479, Note_on_c, 0, 55, 69
2,85587, Note_on_c, 0, 55, 0
2,85588, Note_on_c, 0, 64, 0
2,85597, Note_on_c, 0, 62, 67
2,85600, Note_on_c, 0, 53, 62
2,85705, Note_on_c, 0, 64, 66
2,85713, Note_on_c, 0, 52, 58
2,85715, Note_on_c, 0, 62, 0
2,85725, Note_on_c, 0, 53, 0
2,85833, Note_on_c, 0, 52, 0
2,85847, Note_on_c, 0, 64, 0
2,85851, Note_on_c, 0, 65, 61
2,85859, Note_on_c, 0, 50, 59
2,85951, Note_on_c, 0, 60, 0
2,85970, Note_on_c, 0, 50, 0
2,85971, Note_on_c, 0, 64, 54
2,85985, Note_on_c, 0, 48, 48
2,86098, Note_on_c, 0, 64, 0
2,86110, Note_on_c, 0, 62, 58
2,86116, Note_on_c, 0, 47, 47
2,86156, Note_on_c, 0, 48, 0
2,86203, Note_on_c, 0, 62, 0
2,86212, Note_on_c, 0, 47, 0
2,86230, Note_on_c, 0, 45, 46
2,86230, Note_on_c, 0, 60, 54
2,86268, Note_on_c, 0, 60, 0
2,86270, Note_on_c, 0, 45, 0
2,86365, Control_c, 0, 64, 37
2,86380, Control_c, 0, 64, 60
2,86387, Note_on_c, 0, 59, 44
2,86396, Control_c, 0, 64, 71
2,86400, Note_on_c, 0, 43, 35
2,86411, Control_c, 0, 64, 87
2,86414, Note_on_c, 0, 59, 0
2,86426, Control_c, 0, 64, 127
2,86438, Note_on_c, 0, 43, 0
2,86450, Note_on_c, 0, 65, 0
2,86563, Note_on_c, 0, 69, 60
2,86606, Note_on_c, 0, 69, 0
2,86662, Control_c, 0, 64, 121
2,86677, Control_c, 0, 64, 95
2,86692, Control_c, 0, 64, 78
2,86694, Note_on_c, 0, 72, 67
2,86699, Note_on_c, 0, 67, 62
2,86707, Control_c, 0, 64, 67
2,86715, Note_on_c, 0, 64, 56
2,86722, Control_c, 0, 64, 57
2,86735, Note_on_c, 0, 67, 0
2,86737, Control_c, 0, 64, 43
2,86744, Note_on_c, 0, 55, 43
2,86753, Control_c, 0, 64, 38
2,86784, Note_on_c, 0, 72, 0
2,86796, Note_on_c, 0, 64, 0
2,86799, Control_c, 0, 64, 37
2,86807, Note_on_c, 0, 71, 74
2,86811, Note_on_c, 0, 62, 60
2,86814, Control_c, 0, 64, 33
2,86830, Control_c, 0, 64, 29
2,86840, Note_on_c, 0, 62, 0
2,86842, Note_on_c, 0, 55, 0
2,86845, Control_c, 0, 64, 23
2,86859, Control_c, 0, 64, 15
2,86875, Control_c, 0, 64, 0
2,86887, Note_on_c, 0, 71, 0
2,86930, Note_on_c, 0, 72, 76
2,86936, Note_on_c, 0, 64, 58
2,86953, Note_on_c, 0, 60, 51
2,86954, Note_on_c, 0, 57, 42
2,86966, Note_on_c, 0, 64, 0
2,86985, Note_on_c, 0, 72, 0
2,87051, Note_on_c, 0, 60, 0
2,87059, Note_on_c, 0, 59, 63
2,87074, Note_on_c, 0, 57, 0
2,87166, Note_on_c, 0, 59, 0
2,87176, Note_on_c, 0, 74, 71
2,87179, Note_on_c, 0, 69, 67
2,87183, Note_on_c, 0, 53, 47
2,87196, Note_on_c, 0, 57, 60
2,87206, Note_on_c, 0, 69, 0
2,87218, Note_on_c, 0, 74, 0
2,87287, Note_on_c, 0, 57, 0
2,87295, Note_on_c, 0, 59, 57
2,87296, Note_on_c, 0, 53, 0
2,87407, Note_on_c, 0, 59, 0
2,87433, Note_on_c, 0, 76, 65
2,87439, Note_on_c, 0, 67, 58
2,87448, Note_on_c, 0, 60, 51
2,87535, Control_c, 0, 64, 43
2,87551, Control_c, 0, 64, 59
2,87566, Control_c, 0, 64, 64
2,87578, Note_on_c, 0, 76, 0
2,87582, Control_c, 0, 64, 68
2,87597, Control_c, 0, 64, 73
2,87612, Control_c, 0, 64, 78
2,87628, Control_c, 0, 64, 83
2,87643, Control_c, 0, 64, 88
2,87674, Control_c, 0, 64, 85
2,87689, Control_c, 0, 64, 82
2,87700, Note_on_c, 0, 76, 67
2,87705, Control_c, 0, 64, 78
2,87713, Note_on_c, 0, 48, 60
2,87719, Control_c, 0, 64, 72
2,87734, Control_c, 0, 64, 65
2,87750, Control_c, 0, 64, 58
2,87765, Control_c, 0, 64, 47
2,87780, Control_c, 0, 64, 38
2,87784, Note_on_c, 0, 48, 0
2,87796, Control_c, 0, 64, 35
2,87807, Note_on_c, 0, 74, 73
2,87811, Control_c, 0, 64, 34
2,87812, Note_on_c, 0, 47, 51
2,87814, Note_on_c, 0, 76, 0
2,87826, Control_c, 0, 64, 31
2,87841, Control_c, 0, 64, 19
2,87853, Note_on_c, 0, 47, 0
2,87856, Control_c, 0, 64, 0
2,87871, Note_on_c, 0, 74, 0
2,87933, Note_on_c, 0, 76, 75
2,87945, Note_on_c, 0, 48, 61
2,87987, Note_on_c, 0, 76, 0
2,87988, Note_on_c, 0, 48, 0
2,88201, Note_on_c, 0, 77, 80
2,88209, Note_on_c, 0, 50, 64
2,88239, Note_on_c, 0, 50, 0
2,88246, Note_on_c, 0, 77, 0
2,88455, Note_on_c, 0, 79, 72
2,88462, Note_on_c, 0, 52, 65
2,88466, Note_on_c, 0, 67, 0
2,88472, Control_c, 0, 64, 38
2,88487, Control_c, 0, 64, 55
2,88492, Note_on_c, 0, 60, 0
2,88502, Note_on_c, 0, 52, 0
2,88503, Control_c, 0, 64, 64
2,88518, Control_c, 0, 64, 68
2,88533, Control_c, 0, 64, 72
2,88548, Control_c, 0, 64, 75
2,88563, Control_c, 0, 64, 77
2,88577, Note_on_c, 0, 77, 72
2,88578, Control_c, 0, 64, 77
2,88578, Note_on_c, 0, 79, 0
2,88594, Control_c, 0, 64, 77
2,88639, Control_c, 0, 64, 76
2,88654, Control_c, 0, 64, 75
2,88670, Control_c, 0, 64, 74
2,88685, Control_c, 0, 64, 72
2,88700, Control_c, 0, 64, 69
2,88700, Note_on_c, 0, 76, 75
2,88706, Note_on_c, 0, 77, 0
2,88709, Note_on_c, 0, 52, 64
2,88709, Note_on_c, 0, 55, 62
2,88710, Note_on_c, 0, 72, 63
2,88716, Control_c, 0, 64, 65
2,88731, Control_c, 0, 64, 60
2,88747, Control_c, 0, 64, 54
2,88761, Control_c, 0, 64, 48
2,88764, Note_on_c, 0, 52, 0
2,88776, Control_c, 0, 64, 45
2,88792, Control_c, 0, 64, 45
2,88806, Control_c, 0, 64, 43
2,88814, Note_on_c, 0, 50, 65
2,88816, Note_on_c, 0, 77, 81
2,88817, Note_on_c, 0, 76, 0
2,88822, Control_c, 0, 64, 40
2,88837, Control_c, 0, 64, 35
2,88844, Note_on_c, 0, 72, 0
2,88852, Control_c, 0, 64, 31
2,88869, Note_on_c, 0, 50, 0
2,88875, Control_c, 0, 64, 27
2,88876, Note_on_c, 0, 55, 0
2,88890, Control_c, 0, 64, 23
2,88896, Note_on_c, 0, 77, 0
2,88906, Control_c, 0, 64, 21
2,88921, Control_c, 0, 64, 19
2,88935, Control_c, 0, 64, 17
2,88945, Note_on_c, 0, 52, 70
2,88951, Control_c, 0, 64, 16
2,88952, Note_on_c, 0, 79, 79
2,88958, Note_on_c, 0, 71, 73
2,88966, Control_c, 0, 64, 15
2,88982, Control_c, 0, 64, 12
2,88994, Note_on_c, 0, 52, 0
2,88994, Note_on_c, 0, 71, 0
2,89000, Note_on_c, 0, 79, 0
2,89012, Control_c, 0, 64, 11
2,89103, Control_c, 0, 64, 9
2,89217, Note_on_c, 0, 81, 64
2,89225, Note_on_c, 0, 69, 62
2,89226, Note_on_c, 0, 62, 59
2,89228, Note_on_c, 0, 54, 54
2,89243, Note_on_c, 0, 81, 0
2,89254, Note_on_c, 0, 69, 0
2,89279, Note_on_c, 0, 54, 0
2,89471, Note_on_c, 0, 55, 64
2,89471, Note_on_c, 0, 71, 68
2,89480, Note_on_c, 0, 67, 61
2,89498, Control_c, 0, 64, 0
2,89533, Note_on_c, 0, 62, 0
2,89550, Note_on_c, 0, 71, 0
2,89568, Note_on_c, 0, 67, 0
2,89591, Note_on_c, 0, 53, 69
2,89613, Note_on_c, 0, 55, 0
2,89639, Note_on_c, 0, 53, 0
2,89719, Note_on_c, 0, 67, 70
2,89725, Note_on_c, 0, 52, 68
2,89731, Note_on_c, 0, 64, 65
2,89762, Note_on_c, 0, 64, 0
2,89764, Note_on_c, 0, 52, 0
2,89770, Note_on_c, 0, 67, 0
2,89831, Note_on_c, 0, 53, 60
2,89876, Note_on_c, 0, 53, 0
2,89960, Note_on_c, 0, 55, 62
2,89960, Note_on_c, 0, 65, 72
2,89967, Note_on_c, 0, 62, 55
2,89992, Note_on_c, 0, 65, 0
2,89995, Note_on_c, 0, 55, 0
2,90003, Note_on_c, 0, 62, 0
2,90208, Note_on_c, 0, 72, 75
2,90223, Note_on_c, 0, 64, 58
2,90226, Note_on_c, 0, 57, 58
2,90230, Note_on_c, 0, 60, 46
2,90254, Note_on_c, 0, 64, 0
2,90256, Note_on_c, 0, 60, 0
2,90257, Note_on_c, 0, 57, 0
2,90282, Note_on_c, 0, 72, 0
2,90477, Note_on_c, 0, 62, 64
2,90481, Note_on_c, 0, 74, 72
2,90487, Control_c, 0, 64, 17
2,90491, Note_on_c, 0, 47, 56
2,90492, Note_on_c, 0, 55, 55
2,90502, Control_c, 0, 64, 48
2,90509, Note_on_c, 0, 62, 0
2,90517, Control_c, 0, 64, 62
2,90531, Note_on_c, 0, 74, 0
2,90532, Control_c, 0, 64, 68
2,90547, Note_on_c, 0, 47, 0
2,90548, Control_c, 0, 64, 74
2,90563, Control_c, 0, 64, 81
2,90577, Control_c, 0, 64, 84
2,90593, Control_c, 0, 64, 83
2,90600, Note_on_c, 0, 76, 71
2,90606, Note_on_c, 0, 67, 65
2,90608, Control_c, 0, 64, 81
2,90624, Control_c, 0, 64, 79
2,90641, Control_c, 0, 64, 77
2,90644, Note_on_c, 0, 67, 0
2,90657, Control_c, 0, 64, 74
2,90671, Note_on_c, 0, 76, 0
2,90672, Control_c, 0, 64, 70
2,90687, Control_c, 0, 64, 65
2,90702, Control_c, 0, 64, 57
2,90716, Note_on_c, 0, 72, 76
2,90717, Control_c, 0, 64, 50
2,90725, Note_on_c, 0, 43, 63
2,90732, Control_c, 0, 64, 45
2,90748, Control_c, 0, 64, 44
2,90761, Control_c, 0, 64, 44
2,90777, Control_c, 0, 64, 42
2,90791, Control_c, 0, 64, 37
2,90793, Note_on_c, 0, 72, 0
2,90806, Control_c, 0, 64, 31
2,90822, Control_c, 0, 64, 27
2,90837, Control_c, 0, 64, 25
2,90843, Note_on_c, 0, 74, 75
2,90844, Note_on_c, 0, 71, 56
2,90852, Control_c, 0, 64, 24
2,90867, Control_c, 0, 64, 22
2,90867, Note_on_c, 0, 71, 0
2,90880, Note_on_c, 0, 74, 0
2,90882, Control_c, 0, 64, 21
2,90898, Control_c, 0, 64, 19
2,90914, Control_c, 0, 64, 18
2,90934, Note_on_c, 0, 43, 0
2,90944, Control_c, 0, 64, 17
2,90959, Control_c, 0, 64, 17
2,90968, Note_on_c, 0, 76, 71
2,90974, Control_c, 0, 64, 16
2,90986, Note_on_c, 0, 72, 60
2,90990, Control_c, 0, 64, 15
2,91005, Control_c, 0, 64, 13
2,91050, Control_c, 0, 64, 12
2,91079, Note_on_c, 0, 76, 0
2,91081, Note_on_c, 0, 77, 66
2,91097, Control_c, 0, 64, 11
2,91208, Note_on_c, 0, 77, 0
2,91214, Note_on_c, 0, 74, 66
2,91219, Note_on_c, 0, 48, 65
2,91265, Note_on_c, 0, 48, 0
2,91312, Note_on_c, 0, 74, 0
2,91333, Note_on_c, 0, 76, 67
2,91374, Note_on_c, 0, 76, 0
2,91436, Note_on_c, 0, 72, 0
2,91459, Note_on_c, 0, 72, 31
2,91462, Note_on_c, 0, 77, 73
2,91464, Note_on_c, 0, 50, 64
2,91565, Note_on_c, 0, 50, 0
2,91570, Note_on_c, 0, 52, 65
2,91576, Note_on_c, 0, 77, 0
2,91636, Control_c, 0, 64, 9
2,91667, Control_c, 0, 64, 0
2,91692, Note_on_c, 0, 48, 68
2,91693, Note_on_c, 0, 52, 0
2,91703, Note_on_c, 0, 76, 77
2,91786, Note_on_c, 0, 72, 0
2,91816, Note_on_c, 0, 50, 71
2,91824, Note_on_c, 0, 76, 0
2,91839, Note_on_c, 0, 48, 0
2,91953, Note_on_c, 0, 71, 81
2,91953, Note_on_c, 0, 74, 76
2,91962, Note_on_c, 0, 52, 78
2,91978, Note_on_c, 0, 50, 0
2,92044, Note_on_c, 0, 71, 0
2,92080, Note_on_c, 0, 53, 82
2,92090, Note_on_c, 0, 74, 0
2,92117, Note_on_c, 0, 52, 0
2,92199, Note_on_c, 0, 70, 81
2,92199, Note_on_c, 0, 79, 74
2,92203, Note_on_c, 0, 50, 75
2,92233, Note_on_c, 0, 53, 0
2,92246, Note_on_c, 0, 79, 0
2,92253, Note_on_c, 0, 55, 0
2,92310, Note_on_c, 0, 70, 0
2,92315, Note_on_c, 0, 52, 74
2,92355, Note_on_c, 0, 50, 0
2,92467, Note_on_c, 0, 72, 70
2,92469, Note_on_c, 0, 52, 0
2,92472, Note_on_c, 0, 53, 45
2,92473, Note_on_c, 0, 69, 60
2,92481, Note_on_c, 0, 57, 57
2,92502, Note_on_c, 0, 53, 0
2,92558, Note_on_c, 0, 69, 0
2,92582, Note_on_c, 0, 72, 0
2,92591, Note_on_c, 0, 71, 69
2,92601, Note_on_c, 0, 59, 73
2,92602, Note_on_c, 0, 57, 0
2,92696, Note_on_c, 0, 59, 0
2,92725, Note_on_c, 0, 74, 71
2,92731, Note_on_c, 0, 52, 57
2,92734, Note_on_c, 0, 55, 56
2,92748, Note_on_c, 0, 71, 0
2,92833, Note_on_c, 0, 52, 0
2,92833, Note_on_c, 0, 57, 73
2,92840, Note_on_c, 0, 72, 78
2,92853, Note_on_c, 0, 74, 0
2,92861, Note_on_c, 0, 55, 0
2,92957, Note_on_c, 0, 57, 0
2,92967, Note_on_c, 0, 71, 79
2,92970, Note_on_c, 0, 50, 63
2,92972, Note_on_c, 0, 59, 69
2,92991, Note_on_c, 0, 72, 0
2,93023, Note_on_c, 0, 50, 0
2,93076, Note_on_c, 0, 71, 0
2,93077, Note_on_c, 0, 69, 76
2,93079, Note_on_c, 0, 59, 0
2,93083, Note_on_c, 0, 60, 65
2,93166, Note_on_c, 0, 69, 0
2,93198, Note_on_c, 0, 67, 73
2,93204, Note_on_c, 0, 60, 0
2,93219, Note_on_c, 0, 57, 59
2,93222, Note_on_c, 0, 55, 50
2,93317, Note_on_c, 0, 65, 71
2,93319, Note_on_c, 0, 55, 0
2,93322, Note_on_c, 0, 67, 0
2,93331, Note_on_c, 0, 57, 0
2,93332, Note_on_c, 0, 59, 52
2,93357, Note_on_c, 0, 59, 0
2,93370, Note_on_c, 0, 65, 0
2,93447, Note_on_c, 0, 64, 65
2,93473, Note_on_c, 0, 60, 69
2,93489, Note_on_c, 0, 48, 48
2,93515, Control_c, 0, 64, 39
2,93530, Control_c, 0, 64, 57
2,93546, Control_c, 0, 64, 64
2,93561, Control_c, 0, 64, 70
2,93564, Note_on_c, 0, 48, 0
2,93577, Control_c, 0, 64, 74
2,93588, Note_on_c, 0, 60, 0
2,93591, Control_c, 0, 64, 74
2,93606, Control_c, 0, 64, 72
2,93622, Control_c, 0, 64, 70
2,93637, Control_c, 0, 64, 68
2,93652, Control_c, 0, 64, 64
2,93668, Control_c, 0, 64, 57
2,93676, Note_on_c, 0, 64, 0
2,93682, Control_c, 0, 64, 48
2,93698, Control_c, 0, 64, 40
2,93708, Note_on_c, 0, 65, 71
2,93713, Control_c, 0, 64, 36
2,93717, Note_on_c, 0, 59, 64
2,93718, Note_on_c, 0, 50, 57
2,93728, Control_c, 0, 64, 35
2,93744, Control_c, 0, 64, 32
2,93758, Control_c, 0, 64, 24
2,93773, Control_c, 0, 64, 16
2,93789, Control_c, 0, 64, 9
2,93799, Note_on_c, 0, 65, 0
2,93803, Control_c, 0, 64, 0
2,93819, Note_on_c, 0, 67, 73
2,93821, Note_on_c, 0, 50, 0
2,93821, Note_on_c, 0, 52, 64
2,93839, Note_on_c, 0, 59, 0
2,93871, Note_on_c, 0, 52, 0
2,93925, Note_on_c, 0, 67, 0
2,93947, Note_on_c, 0, 69, 74
2,93961, Note_on_c, 0, 57, 65
2,93964, Note_on_c, 0, 53, 58
2,94057, Note_on_c, 0, 69, 0
2,94072, Note_on_c, 0, 71, 76
2,94191, Note_on_c, 0, 71, 0
2,94197, Note_on_c, 0, 72, 79
2,94210, Note_on_c, 0, 62, 68
2,94328, Note_on_c, 0, 74, 75
2,94353, Note_on_c, 0, 72, 0
2,94395, Note_on_c, 0, 57, 0
2,94453, Note_on_c, 0, 71, 79
2,94466, Note_on_c, 0, 55, 59
2,94466, Note_on_c, 0, 62, 0
2,94471, Note_on_c, 0, 74, 0
2,94577, Note_on_c, 0, 64, 75
2,94579, Note_on_c, 0, 71, 0
2,94686, Note_on_c, 0, 64, 0
2,94703, Note_on_c, 0, 69, 82
2,94712, Note_on_c, 0, 60, 68
2,94750, Note_on_c, 0, 60, 0
2,94808, Note_on_c, 0, 69, 0
2,94812, Note_on_c, 0, 67, 73
2,94818, Note_on_c, 0, 62, 58
2,94846, Note_on_c, 0, 62, 0
2,94860, Note_on_c, 0, 67, 0
2,94941, Note_on_c, 0, 52, 71
2,94943, Note_on_c, 0, 72, 86
2,94951, Note_on_c, 0, 55, 0
2,94952, Note_on_c, 0, 64, 68
2,94961, Note_on_c, 0, 53, 0
2,94993, Note_on_c, 0, 64, 0
2,95083, Note_on_c, 0, 65, 65
2,95198, Note_on_c, 0, 65, 0
2,95208, Note_on_c, 0, 62, 70
2,95210, Note_on_c, 0, 57, 61
2,95212, Note_on_c, 0, 52, 0
2,95218, Note_on_c, 0, 60, 63
2,95237, Note_on_c, 0, 57, 0
2,95245, Note_on_c, 0, 62, 0
2,95249, Note_on_c, 0, 60, 0
2,95322, Note_on_c, 0, 64, 69
2,95350, Note_on_c, 0, 64, 0
2,95454, Note_on_c, 0, 65, 69
2,95463, Note_on_c, 0, 50, 62
2,95466, Note_on_c, 0, 62, 57
2,95539, Note_on_c, 0, 62, 0
2,95560, Note_on_c, 0, 65, 0
2,95580, Note_on_c, 0, 53, 61
2,95612, Note_on_c, 0, 50, 0
2,95673, Note_on_c, 0, 53, 0
2,95689, Note_on_c, 0, 55, 71
2,95700, Note_on_c, 0, 64, 70
2,95708, Note_on_c, 0, 52, 61
2,95812, Note_on_c, 0, 55, 0
2,95813, Note_on_c, 0, 57, 66
2,95815, Note_on_c, 0, 72, 0
2,95817, Note_on_c, 0, 53, 64
2,95823, Note_on_c, 0, 64, 0
2,95830, Note_on_c, 0, 52, 0
2,95849, Note_on_c, 0, 57, 0
2,95948, Note_on_c, 0, 55, 58
2,95950, Note_on_c, 0, 59, 66
2,95951, Note_on_c, 0, 71, 76
2,95953, Note_on_c, 0, 53, 0
2,95964, Note_on_c, 0, 62, 59
2,95978, Note_on_c, 0, 55, 0
2,95979, Note_on_c, 0, 59, 0
2,96040, Note_on_c, 0, 62, 0
2,96063, Note_on_c, 0, 60, 62
2,96127, Note_on_c, 0, 60, 0
2,96196, Note_on_c, 0, 43, 58
2,96196, Note_on_c, 0, 62, 43
2,96199, Note_on_c, 0, 67, 62
2,96225, Note_on_c, 0, 43, 0
2,96276, Note_on_c, 0, 62, 0
2,96318, Note_on_c, 0, 59, 65
2,96344, Note_on_c, 0, 67, 0
2,96346, Note_on_c, 0, 59, 0
2,96369, Note_on_c, 0, 71, 0
2,96441, Control_c, 0, 64, 44
2,96456, Control_c, 0, 64, 59
2,96471, Control_c, 0, 64, 65
2,96472, Note_on_c, 0, 72, 64
2,96473, Note_on_c, 0, 48, 53
2,96484, Note_on_c, 0, 55, 44
2,96485, Note_on_c, 0, 64, 54
2,96486, Control_c, 0, 64, 71
2,96501, Control_c, 0, 64, 80
2,96504, Note_on_c, 0, 48, 0
2,96515, Note_on_c, 0, 55, 0
2,96517, Control_c, 0, 64, 93
2,96527, Note_on_c, 0, 64, 0
2,96532, Control_c, 0, 64, 105
2,96555, Control_c, 0, 64, 116
2,96570, Control_c, 0, 64, 121
2,96586, Control_c, 0, 64, 123
2,96613, Note_on_c, 0, 65, 59
2,96631, Control_c, 0, 64, 121
2,96642, Note_on_c, 0, 65, 0
2,96646, Control_c, 0, 64, 118
2,96659, Note_on_c, 0, 72, 0
2,96661, Control_c, 0, 64, 116
2,96677, Control_c, 0, 64, 114
2,96692, Control_c, 0, 64, 110
2,96708, Control_c, 0, 64, 100
2,96723, Control_c, 0, 64, 85
2,96738, Control_c, 0, 64, 71
2,96752, Note_on_c, 0, 76, 73
2,96753, Note_on_c, 0, 64, 58
2,96754, Control_c, 0, 64, 61
2,96769, Control_c, 0, 64, 38
2,96784, Control_c, 0, 64, 0
2,96832, Note_on_c, 0, 76, 0
2,96845, Note_on_c, 0, 64, 0
2,96860, Note_on_c, 0, 77, 80
2,96873, Note_on_c, 0, 62, 48
2,96911, Note_on_c, 0, 77, 0
2,96988, Note_on_c, 0, 62, 0
2,96988, Note_on_c, 0, 76, 78
2,97000, Note_on_c, 0, 60, 60
2,97034, Note_on_c, 0, 76, 0
2,97087, Note_on_c, 0, 60, 0
2,97110, Note_on_c, 0, 59, 62
2,97139, Note_on_c, 0, 59, 0
2,97229, Note_on_c, 0, 74, 77
2,97246, Note_on_c, 0, 52, 64
2,97252, Note_on_c, 0, 57, 60
2,97275, Note_on_c, 0, 74, 0
2,97347, Note_on_c, 0, 56, 69
2,97347, Note_on_c, 0, 57, 0
2,97356, Note_on_c, 0, 52, 0
2,97377, Note_on_c, 0, 56, 0
2,97484, Note_on_c, 0, 72, 80
2,97490, Note_on_c, 0, 45, 61
2,97490, Note_on_c, 0, 57, 60
2,97506, Control_c, 0, 64, 35
2,97518, Note_on_c, 0, 45, 0
2,97521, Control_c, 0, 64, 55
2,97536, Control_c, 0, 64, 63
2,97538, Note_on_c, 0, 72, 0
2,97552, Control_c, 0, 64, 67
2,97567, Control_c, 0, 64, 72
2,97581, Control_c, 0, 64, 77
2,97597, Control_c, 0, 64, 82
2,97612, Control_c, 0, 64, 86
2,97612, Note_on_c, 0, 58, 69
2,97615, Note_on_c, 0, 57, 0
2,97628, Control_c, 0, 64, 88
2,97643, Control_c, 0, 64, 88
2,97658, Control_c, 0, 64, 86
2,97674, Control_c, 0, 64, 84
2,97689, Control_c, 0, 64, 81
2,97704, Control_c, 0, 64, 76
2,97719, Control_c, 0, 64, 70
2,97723, Note_on_c, 0, 58, 0
2,97732, Note_on_c, 0, 73, 80
2,97734, Control_c, 0, 64, 64
2,97737, Note_on_c, 0, 57, 76
2,97744, Note_on_c, 0, 69, 69
2,97749, Control_c, 0, 64, 54
2,97764, Control_c, 0, 64, 40
2,97779, Control_c, 0, 64, 33
2,97793, Note_on_c, 0, 69, 0
2,97795, Control_c, 0, 64, 31
2,97810, Control_c, 0, 64, 27
2,97825, Control_c, 0, 64, 16
2,97840, Control_c, 0, 64, 0
2,97842, Note_on_c, 0, 70, 83
2,97848, Note_on_c, 0, 55, 76
2,97860, Note_on_c, 0, 57, 0
2,97875, Note_on_c, 0, 73, 0
2,97933, Note_on_c, 0, 70, 0
2,97972, Note_on_c, 0, 74, 86
2,97973, Note_on_c, 0, 53, 77
2,97978, Note_on_c, 0, 55, 0
2,97980, Note_on_c, 0, 69, 74
2,98009, Note_on_c, 0, 69, 0
2,98031, Note_on_c, 0, 74, 0
2,98088, Note_on_c, 0, 52, 78
2,98089, Note_on_c, 0, 53, 0
2,98215, Note_on_c, 0, 76, 88
2,98224, Note_on_c, 0, 50, 79
2,98226, Note_on_c, 0, 67, 75
2,98228, Note_on_c, 0, 52, 0
2,98255, Note_on_c, 0, 67, 0
2,98294, Note_on_c, 0, 76, 0
2,98337, Note_on_c, 0, 49, 72
2,98362, Note_on_c, 0, 50, 0
2,98490, Note_on_c, 0, 69, 82
2,98499, Note_on_c, 0, 50, 69
2,98501, Note_on_c, 0, 65, 66
2,98536, Note_on_c, 0, 49, 0
2,98607, Control_c, 0, 64, 16
2,98623, Control_c, 0, 64, 51
2,98638, Control_c, 0, 64, 62
2,98652, Note_on_c, 0, 65, 0
2,98653, Control_c, 0, 64, 66
2,98668, Control_c, 0, 64, 71
2,98683, Control_c, 0, 64, 76
2,98698, Control_c, 0, 64, 79
2,98713, Control_c, 0, 64, 80
2,98728, Control_c, 0, 64, 78
2,98744, Control_c, 0, 64, 76
2,98759, Control_c, 0, 64, 74
2,98763, Note_on_c, 0, 69, 0
2,98769, Note_on_c, 0, 74, 78
2,98774, Control_c, 0, 64, 70
2,98775, Note_on_c, 0, 65, 68
2,98776, Note_on_c, 0, 57, 58
2,98790, Control_c, 0, 64, 65
2,98805, Control_c, 0, 64, 59
2,98820, Control_c, 0, 64, 46
2,98823, Note_on_c, 0, 65, 0
2,98836, Control_c, 0, 64, 34
2,98858, Control_c, 0, 64, 30
2,98873, Control_c, 0, 64, 30
2,98881, Note_on_c, 0, 57, 0
2,98881, Note_on_c, 0, 58, 73
2,98888, Control_c, 0, 64, 25
2,98888, Note_on_c, 0, 76, 83
2,98890, Note_on_c, 0, 67, 78
2,98904, Control_c, 0, 64, 12
2,98918, Control_c, 0, 64, 0
2,98920, Note_on_c, 0, 74, 0
2,98926, Note_on_c, 0, 67, 0
2,98947, Note_on_c, 0, 58, 0
2,99013, Note_on_c, 0, 57, 73
2,99018, Note_on_c, 0, 74, 82
2,99019, Note_on_c, 0, 76, 0
2,99021, Note_on_c, 0, 65, 77
2,99069, Note_on_c, 0, 57, 0
2,99073, Note_on_c, 0, 74, 0
2,99078, Note_on_c, 0, 65, 0
2,99273, Note_on_c, 0, 55, 68
2,99273, Note_on_c, 0, 72, 80
2,99281, Note_on_c, 0, 64, 71
2,99319, Note_on_c, 0, 64, 0
2,99334, Note_on_c, 0, 55, 0
2,99345, Note_on_c, 0, 72, 0
2,99498, Control_c, 0, 64, 26
2,99513, Control_c, 0, 64, 49
2,99528, Control_c, 0, 64, 61
2,99530, Note_on_c, 0, 71, 73
2,99535, Note_on_c, 0, 62, 63
2,99539, Note_on_c, 0, 53, 61
2,99544, Control_c, 0, 64, 67
2,99558, Control_c, 0, 64, 73
2,99568, Note_on_c, 0, 62, 0
2,99573, Control_c, 0, 64, 80
2,99589, Control_c, 0, 64, 82
2,99600, Note_on_c, 0, 71, 0
2,99604, Control_c, 0, 64, 81
2,99628, Control_c, 0, 64, 80
2,99642, Control_c, 0, 64, 78
2,99655, Note_on_c, 0, 72, 79
2,99656, Note_on_c, 0, 64, 71
2,99657, Control_c, 0, 64, 77
2,99666, Note_on_c, 0, 53, 0
2,99673, Control_c, 0, 64, 76
2,99688, Control_c, 0, 64, 73
2,99691, Note_on_c, 0, 64, 0
2,99704, Control_c, 0, 64, 68
2,99715, Note_on_c, 0, 72, 0
2,99718, Control_c, 0, 64, 64
2,99733, Control_c, 0, 64, 58
2,99749, Control_c, 0, 64, 51
2,99764, Control_c, 0, 64, 49
2,99776, Note_on_c, 0, 74, 83
2,99784, Note_on_c, 0, 53, 66
2,99784, Note_on_c, 0, 65, 73
2,99794, Control_c, 0, 64, 48
2,99809, Control_c, 0, 64, 44
2,99825, Control_c, 0, 64, 39
2,99825, Note_on_c, 0, 65, 0
2,99840, Control_c, 0, 64, 31
2,99854, Control_c, 0, 64, 23
2,99870, Control_c, 0, 64, 11
2,99884, Note_on_c, 0, 53, 0
2,99884, Note_on_c, 0, 72, 82
2,99885, Control_c, 0, 64, 0
2,99889, Note_on_c, 0, 55, 71
2,99895, Note_on_c, 0, 64, 74
2,99905, Note_on_c, 0, 74, 0
2,99940, Note_on_c, 0, 64, 0
2,99954, Note_on_c, 0, 55, 0
2,100009, Note_on_c, 0, 71, 83
2,100010, Note_on_c, 0, 53, 74
2,100036, Note_on_c, 0, 62, 50
2,100038, Note_on_c, 0, 72, 0
2,100060, Note_on_c, 0, 62, 0
2,100068, Note_on_c, 0, 53, 0
2,100077, Note_on_c, 0, 71, 0
2,100270, Note_on_c, 0, 69, 74
2,100275, Note_on_c, 0, 60, 70
2,100279, Note_on_c, 0, 52, 59
2,100303, Note_on_c, 0, 60, 0
2,100315, Note_on_c, 0, 52, 0
2,100327, Note_on_c, 0, 50, 0
2,100335, Note_on_c, 0, 69, 0
2,100535, Note_on_c, 0, 67, 70
2,100537, Note_on_c, 0, 71, 58
2,100538, Note_on_c, 0, 53, 52
2,100559, Note_on_c, 0, 50, 24
2,100624, Note_on_c, 0, 71, 0
2,100639, Note_on_c, 0, 52, 59
2,100644, Note_on_c, 0, 53, 0
2,100715, Note_on_c, 0, 50, 0
2,100786, Note_on_c, 0, 53, 57
2,100788, Note_on_c, 0, 74, 70
2,100802, Note_on_c, 0, 52, 0
2,100837, Note_on_c, 0, 74, 0
2,100903, Note_on_c, 0, 53, 0
2,100904, Note_on_c, 0, 52, 64
2,101033, Note_on_c, 0, 52, 0
2,101034, Note_on_c, 0, 50, 66
2,101043, Note_on_c, 0, 67, 0
2,101077, Note_on_c, 0, 50, 0
2,101294, Note_on_c, 0, 69, 68
2,101297, Note_on_c, 0, 48, 64
2,101333, Note_on_c, 0, 69, 0
2,101339, Note_on_c, 0, 48, 0
2,101537, Note_on_c, 0, 59, 50
2,101547, Note_on_c, 0, 67, 63
2,101564, Note_on_c, 0, 53, 53
2,101630, Note_on_c, 0, 67, 0
2,101645, Note_on_c, 0, 55, 67
2,101657, Note_on_c, 0, 59, 0
2,101657, Note_on_c, 0, 65, 64
2,101688, Note_on_c, 0, 53, 0
2,101768, Note_on_c, 0, 55, 0
2,101783, Note_on_c, 0, 53, 68
2,101783, Note_on_c, 0, 65, 0
2,101783, Note_on_c, 0, 69, 74
2,101801, Note_on_c, 0, 62, 57
2,101879, Note_on_c, 0, 69, 0
2,101882, Note_on_c, 0, 53, 0
2,101890, Note_on_c, 0, 67, 71
2,101891, Note_on_c, 0, 52, 60
2,101931, Note_on_c, 0, 52, 0
2,101991, Note_on_c, 0, 62, 0
2,102012, Note_on_c, 0, 67, 0
2,102027, Note_on_c, 0, 50, 62
2,102028, Note_on_c, 0, 65, 65
2,102143, Note_on_c, 0, 64, 67
2,102150, Note_on_c, 0, 65, 0
2,102269, Note_on_c, 0, 67, 64
2,102273, Note_on_c, 0, 64, 0
2,102281, Note_on_c, 0, 57, 58
2,102379, Note_on_c, 0, 65, 63
2,102395, Note_on_c, 0, 67, 0
2,102446, Note_on_c, 0, 65, 0
2,102467, Note_on_c, 0, 57, 0
2,102508, Note_on_c, 0, 64, 67
2,102509, Note_on_c, 0, 55, 63
2,102541, Note_on_c, 0, 64, 0
2,102555, Note_on_c, 0, 50, 0
2,102614, Note_on_c, 0, 53, 64
2,102626, Note_on_c, 0, 55, 0
2,102750, Note_on_c, 0, 53, 0
2,102755, Note_on_c, 0, 65, 70
2,102761, Note_on_c, 0, 57, 57
2,102767, Note_on_c, 0, 48, 51
2,102804, Note_on_c, 0, 65, 0
2,102868, Note_on_c, 0, 57, 0
2,102880, Note_on_c, 0, 55, 55
2,103015, Note_on_c, 0, 67, 67
2,103018, Note_on_c, 0, 53, 63
2,103042, Note_on_c, 0, 55, 0
2,103057, Note_on_c, 0, 67, 0
2,103087, Note_on_c, 0, 48, 0
2,103099, Note_on_c, 0, 53, 0
2,103134, Note_on_c, 0, 52, 58
2,103188, Note_on_c, 0, 52, 0
2,103261, Note_on_c, 0, 62, 69
2,103277, Note_on_c, 0, 55, 58
2,103294, Note_on_c, 0, 62, 0
2,103299, Note_on_c, 0, 47, 50
2,103363, Note_on_c, 0, 47, 0
2,103370, Note_on_c, 0, 55, 0
2,103374, Note_on_c, 0, 53, 67
2,103516, Note_on_c, 0, 69, 69
2,103519, Note_on_c, 0, 53, 0
2,103522, Note_on_c, 0, 52, 54
2,103525, Note_on_c, 0, 48, 52
2,103636, Note_on_c, 0, 71, 70
2,103640, Note_on_c, 0, 69, 0
2,103758, Note_on_c, 0, 71, 0
2,103763, Note_on_c, 0, 69, 70
2,103764, Note_on_c, 0, 53, 46
2,103766, Note_on_c, 0, 50, 53
2,103789, Note_on_c, 0, 52, 0
2,103796, Note_on_c, 0, 53, 0
2,103798, Note_on_c, 0, 48, 0
2,103804, Note_on_c, 0, 50, 0
2,103833, Note_on_c, 0, 69, 0
2,103871, Note_on_c, 0, 71, 71
2,103900, Note_on_c, 0, 71, 0
2,103978, Note_on_c, 0, 55, 62
2,103984, Control_c, 0, 64, 38
2,103986, Note_on_c, 0, 72, 70
2,103997, Note_on_c, 0, 43, 52
2,103998, Control_c, 0, 64, 45
2,104014, Control_c, 0, 64, 54
2,104030, Control_c, 0, 64, 61
2,104034, Note_on_c, 0, 72, 0
2,104038, Note_on_c, 0, 71, 76
2,104045, Control_c, 0, 64, 65
2,104060, Control_c, 0, 64, 70
2,104076, Control_c, 0, 64, 77
2,104079, Note_on_c, 0, 71, 0
2,104090, Control_c, 0, 64, 82
2,104099, Note_on_c, 0, 69, 69
2,104106, Control_c, 0, 64, 83
2,104121, Control_c, 0, 64, 81
2,104136, Control_c, 0, 64, 79
2,104137, Note_on_c, 0, 69, 0
2,104151, Control_c, 0, 64, 78
2,104166, Control_c, 0, 64, 75
2,104174, Note_on_c, 0, 71, 77
2,104181, Control_c, 0, 64, 71
2,104197, Control_c, 0, 64, 66
2,104212, Control_c, 0, 64, 60
2,104212, Note_on_c, 0, 71, 0
2,104232, Note_on_c, 0, 72, 85
2,104235, Control_c, 0, 64, 50
2,104250, Control_c, 0, 64, 41
2,104253, Note_on_c, 0, 55, 0
2,104253, Note_on_c, 0, 72, 0
2,104260, Note_on_c, 0, 50, 58
2,104266, Control_c, 0, 64, 39
2,104294, Note_on_c, 0, 71, 84
2,104296, Control_c, 0, 64, 39
2,104311, Control_c, 0, 64, 38
2,104321, Note_on_c, 0, 43, 0
2,104326, Control_c, 0, 64, 36
2,104340, Note_on_c, 0, 71, 0
2,104341, Control_c, 0, 64, 34
2,104356, Control_c, 0, 64, 33
2,104357, Note_on_c, 0, 69, 73
2,104387, Control_c, 0, 64, 33
2,104402, Control_c, 0, 64, 32
2,104406, Note_on_c, 0, 71, 71
2,104407, Note_on_c, 0, 69, 0
2,104417, Control_c, 0, 64, 31
2,104432, Control_c, 0, 64, 29
2,104447, Control_c, 0, 64, 26
2,104460, Note_on_c, 0, 43, 59
2,104463, Control_c, 0, 64, 24
2,104467, Note_on_c, 0, 50, 0
2,104473, Note_on_c, 0, 72, 85
2,104475, Note_on_c, 0, 57, 66
2,104478, Control_c, 0, 64, 24
2,104493, Control_c, 0, 64, 23
2,104493, Note_on_c, 0, 43, 0
2,104497, Note_on_c, 0, 71, 0
2,104508, Control_c, 0, 64, 23
2,104523, Control_c, 0, 64, 21
2,104538, Control_c, 0, 64, 20
2,104553, Control_c, 0, 64, 19
2,104568, Control_c, 0, 64, 18
2,104584, Control_c, 0, 64, 17
2,104599, Control_c, 0, 64, 16
2,104605, Note_on_c, 0, 74, 84
2,104606, Note_on_c, 0, 57, 0
2,104609, Note_on_c, 0, 59, 66
2,104611, Note_on_c, 0, 72, 0
2,104614, Control_c, 0, 64, 13
2,104629, Control_c, 0, 64, 11
2,104644, Control_c, 0, 64, 9
2,104675, Control_c, 0, 64, 0
2,104704, Note_on_c, 0, 74, 0
2,104720, Note_on_c, 0, 57, 72
2,104721, Note_on_c, 0, 59, 0
2,104725, Note_on_c, 0, 72, 81
2,104814, Note_on_c, 0, 72, 0
2,104832, Note_on_c, 0, 74, 85
2,104835, Note_on_c, 0, 59, 74
2,104855, Note_on_c, 0, 57, 0
2,104873, Control_c, 0, 64, 34
2,104881, Note_on_c, 0, 74, 0
2,104883, Note_on_c, 0, 59, 0
2,104888, Control_c, 0, 64, 52
2,104904, Control_c, 0, 64, 62
2,104919, Control_c, 0, 64, 67
2,104933, Control_c, 0, 64, 73
2,104949, Control_c, 0, 64, 75
2,104959, Note_on_c, 0, 76, 83
2,104961, Note_on_c, 0, 55, 69
2,104964, Control_c, 0, 64, 74
2,104968, Note_on_c, 0, 59, 67
2,104979, Control_c, 0, 64, 72
2,105002, Control_c, 0, 64, 69
2,105015, Note_on_c, 0, 74, 79
2,105017, Control_c, 0, 64, 65
2,105020, Note_on_c, 0, 76, 0
2,105033, Control_c, 0, 64, 59
2,105048, Control_c, 0, 64, 55
2,105064, Control_c, 0, 64, 52
2,105070, Note_on_c, 0, 74, 0
2,105078, Control_c, 0, 64, 51
2,105082, Note_on_c, 0, 72, 77
2,105093, Control_c, 0, 64, 48
2,105109, Control_c, 0, 64, 44
2,105124, Control_c, 0, 64, 38
2,105139, Control_c, 0, 64, 34
2,105139, Note_on_c, 0, 72, 0
2,105149, Note_on_c, 0, 74, 78
2,105154, Control_c, 0, 64, 32
2,105169, Control_c, 0, 64, 30
2,105185, Control_c, 0, 64, 25
2,105199, Control_c, 0, 64, 17
2,105204, Note_on_c, 0, 74, 0
2,105204, Note_on_c, 0, 76, 87
2,105211, Note_on_c, 0, 55, 0
2,105214, Control_c, 0, 64, 0
2,105216, Note_on_c, 0, 53, 62
2,105225, Note_on_c, 0, 76, 0
2,105229, Note_on_c, 0, 59, 0
2,105247, Note_on_c, 0, 57, 63
2,105266, Note_on_c, 0, 74, 82
2,105313, Note_on_c, 0, 74, 0
2,105326, Note_on_c, 0, 59, 71
2,105332, Note_on_c, 0, 72, 78
2,105363, Note_on_c, 0, 53, 0
2,105363, Note_on_c, 0, 57, 0
2,105386, Note_on_c, 0, 74, 86
2,105390, Note_on_c, 0, 72, 0
2,105413, Note_on_c, 0, 59, 0
2,105435, Note_on_c, 0, 60, 62
2,105463, Note_on_c, 0, 76, 86
2,105479, Note_on_c, 0, 52, 65
2,105488, Note_on_c, 0, 74, 0
2,105541, Note_on_c, 0, 52, 0
2,105600, Note_on_c, 0, 74, 80
2,105616, Note_on_c, 0, 76, 0
2,105722, Note_on_c, 0, 74, 0
2,105724, Note_on_c, 0, 50, 72
2,105732, Note_on_c, 0, 72, 76
2,105787, Note_on_c, 0, 50, 0
2,105861, Note_on_c, 0, 71, 77
2,105871, Note_on_c, 0, 72, 0
2,105980, Note_on_c, 0, 48, 75
2,105990, Note_on_c, 0, 69, 77
2,105993, Note_on_c, 0, 71, 0
2,106050, Note_on_c, 0, 48, 0
2,106084, Note_on_c, 0, 69, 0
2,106095, Note_on_c, 0, 67, 75
2,106219, Note_on_c, 0, 52, 68
2,106219, Note_on_c, 0, 66, 75
2,106236, Note_on_c, 0, 67, 0
2,106263, Note_on_c, 0, 52, 0
2,106316, Note_on_c, 0, 66, 0
2,106321, Note_on_c, 0, 64, 79
2,106378, Note_on_c, 0, 64, 0
2,106474, Note_on_c, 0, 66, 77
2,106492, Note_on_c, 0, 50, 77
2,106500, Control_c, 0, 64, 33
2,106523, Control_c, 0, 64, 57
2,106538, Control_c, 0, 64, 66
2,106553, Control_c, 0, 64, 80
2,106568, Control_c, 0, 64, 111
2,106584, Control_c, 0, 64, 127
2,106616, Note_on_c, 0, 66, 0
2,106619, Note_on_c, 0, 50, 0
2,106741, Note_on_c, 0, 60, 0
2,106748, Note_on_c, 0, 50, 75
2,106748, Note_on_c, 0, 62, 84
2,106751, Control_c, 0, 64, 97
2,106754, Note_on_c, 0, 54, 72
2,106766, Control_c, 0, 64, 79
2,106781, Control_c, 0, 64, 67
2,106797, Control_c, 0, 64, 56
2,106811, Control_c, 0, 64, 33
2,106823, Note_on_c, 0, 50, 0
2,106827, Control_c, 0, 64, 0
2,106828, Note_on_c, 0, 54, 0
2,106867, Note_on_c, 0, 52, 82
2,106878, Note_on_c, 0, 54, 22
2,106893, Note_on_c, 0, 50, 29
2,106909, Note_on_c, 0, 54, 0
2,106923, Note_on_c, 0, 52, 0
2,106934, Note_on_c, 0, 50, 0
2,106961, Note_on_c, 0, 62, 0
2,106985, Note_on_c, 0, 64, 87
2,106992, Note_on_c, 0, 55, 79
2,106998, Note_on_c, 0, 50, 83
2,107035, Note_on_c, 0, 55, 0
2,107038, Note_on_c, 0, 64, 0
2,107059, Note_on_c, 0, 50, 0
2,107261, Note_on_c, 0, 66, 85
2,107266, Note_on_c, 0, 48, 78
2,107268, Note_on_c, 0, 57, 72
2,107314, Note_on_c, 0, 57, 0
2,107323, Note_on_c, 0, 66, 0
2,107330, Note_on_c, 0, 48, 0
2,107546, Note_on_c, 0, 67, 86
2,107549, Note_on_c, 0, 47, 74
2,107552, Note_on_c, 0, 59, 75
2,107565, Control_c, 0, 64, 34
2,107580, Control_c, 0, 64, 53
2,107595, Note_on_c, 0, 59, 0
2,107596, Control_c, 0, 64, 62
2,107610, Control_c, 0, 64, 67
2,107623, Note_on_c, 0, 47, 0
2,107623, Note_on_c, 0, 67, 0
2,107626, Control_c, 0, 64, 73
2,107641, Control_c, 0, 64, 81
2,107656, Control_c, 0, 64, 91
2,107671, Control_c, 0, 64, 103
2,107686, Control_c, 0, 64, 127
2,107763, Control_c, 0, 64, 115
2,107778, Control_c, 0, 64, 95
2,107794, Control_c, 0, 64, 74
2,107806, Note_on_c, 0, 47, 73
2,107806, Note_on_c, 0, 74, 78
2,107808, Control_c, 0, 64, 61
2,107809, Note_on_c, 0, 66, 75
2,107810, Note_on_c, 0, 50, 73
2,107824, Control_c, 0, 64, 33
2,107839, Control_c, 0, 64, 0
2,107854, Note_on_c, 0, 50, 0
2,107867, Note_on_c, 0, 66, 0
2,107893, Note_on_c, 0, 47, 0
2,107915, Note_on_c, 0, 76, 83
2,107916, Note_on_c, 0, 48, 81
2,107927, Note_on_c, 0, 47, 10
2,107952, Note_on_c, 0, 74, 0
2,107953, Note_on_c, 0, 47, 0
2,107968, Note_on_c, 0, 48, 0
2,107998, Note_on_c, 0, 76, 0
2,108044, Note_on_c, 0, 47, 77
2,108047, Note_on_c, 0, 74, 86
2,108048, Note_on_c, 0, 67, 83
2,108087, Note_on_c, 0, 67, 0
2,108108, Note_on_c, 0, 74, 0
2,108117, Note_on_c, 0, 47, 0
2,108322, Note_on_c, 0, 45, 75
2,108322, Note_on_c, 0, 72, 82
2,108326, Note_on_c, 0, 69, 79
2,108332, Note_on_c, 0, 54, 64
2,108356, Note_on_c, 0, 69, 0
2,108362, Note_on_c, 0, 72, 0
2,108365, Note_on_c, 0, 54, 0
2,108375, Note_on_c, 0, 45, 0
2,108573, Note_on_c, 0, 71, 76
2,108576, Control_c, 0, 64, 29
2,108585, Note_on_c, 0, 43, 70
2,108587, Note_on_c, 0, 62, 72
2,108590, Note_on_c, 0, 55, 55
2,108592, Control_c, 0, 64, 52
2,108607, Control_c, 0, 64, 62
2,108621, Control_c, 0, 64, 64
2,108637, Control_c, 0, 64, 64
2,108652, Control_c, 0, 64, 63
2,108668, Control_c, 0, 64, 61
2,108683, Control_c, 0, 64, 59
2,108691, Note_on_c, 0, 55, 0
2,108697, Control_c, 0, 64, 57
2,108705, Note_on_c, 0, 55, 46
2,108712, Note_on_c, 0, 45, 73
2,108713, Control_c, 0, 64, 54
2,108715, Note_on_c, 0, 71, 0
2,108728, Control_c, 0, 64, 52
2,108744, Control_c, 0, 64, 50
2,108759, Control_c, 0, 64, 48
2,108760, Note_on_c, 0, 43, 0
2,108773, Control_c, 0, 64, 45
2,108789, Control_c, 0, 64, 43
2,108804, Control_c, 0, 64, 42
2,108842, Note_on_c, 0, 47, 80
2,108845, Note_on_c, 0, 71, 83
2,108864, Note_on_c, 0, 45, 0
2,108873, Control_c, 0, 64, 43
2,108904, Control_c, 0, 64, 42
2,108918, Control_c, 0, 64, 30
2,108934, Control_c, 0, 64, 0
2,108952, Note_on_c, 0, 72, 84
2,108954, Note_on_c, 0, 47, 0
2,108959, Note_on_c, 0, 45, 83
2,108981, Note_on_c, 0, 71, 0
2,109018, Note_on_c, 0, 45, 0
2,109028, Note_on_c, 0, 72, 0
2,109084, Note_on_c, 0, 71, 94
2,109085, Note_on_c, 0, 43, 81
2,109110, Note_on_c, 0, 55, 0
2,109125, Note_on_c, 0, 62, 0
2,109134, Note_on_c, 0, 71, 0
2,109145, Note_on_c, 0, 43, 0
2,109340, Note_on_c, 0, 57, 80
2,109341, Note_on_c, 0, 42, 91
2,109341, Note_on_c, 0, 69, 83
2,109344, Note_on_c, 0, 63, 76
2,109384, Note_on_c, 0, 57, 0
2,109410, Note_on_c, 0, 63, 0
2,109420, Note_on_c, 0, 42, 0
2,109420, Note_on_c, 0, 69, 0
2,109615, Note_on_c, 0, 52, 74
2,109616, Note_on_c, 0, 59, 71
2,109620, Note_on_c, 0, 67, 71
2,109627, Note_on_c, 0, 64, 63
2,109696, Note_on_c, 0, 52, 0
2,109711, Note_on_c, 0, 64, 0
2,109735, Note_on_c, 0, 69, 82
2,109763, Note_on_c, 0, 67, 0
2,109831, Note_on_c, 0, 69, 0
2,109866, Note_on_c, 0, 71, 78
2,109871, Note_on_c, 0, 64, 71
2,109873, Note_on_c, 0, 55, 73
2,109939, Note_on_c, 0, 55, 0
2,109965, Note_on_c, 0, 69, 78
2,109970, Note_on_c, 0, 71, 0
2,109976, Note_on_c, 0, 63, 76
2,109992, Note_on_c, 0, 64, 0
2,110030, Note_on_c, 0, 63, 0
2,110056, Note_on_c, 0, 69, 0
2,110110, Note_on_c, 0, 67, 86
2,110119, Note_on_c, 0, 64, 72
2,110178, Note_on_c, 0, 67, 0
2,110375, Note_on_c, 0, 66, 83
2,110383, Note_on_c, 0, 50, 75
2,110388, Note_on_c, 0, 64, 0
2,110418, Note_on_c, 0, 66, 0
2,110436, Note_on_c, 0, 50, 0
2,110642, Note_on_c, 0, 76, 77
2,110644, Note_on_c, 0, 48, 72
2,110686, Note_on_c, 0, 59, 0
2,110710, Note_on_c, 0, 76, 0
2,110722, Note_on_c, 0, 48, 0
2,110755, Note_on_c, 0, 47, 73
2,110870, Note_on_c, 0, 47, 0
2,110875, Note_on_c, 0, 50, 72
2,110879, Note_on_c, 0, 67, 77
2,110883, Note_on_c, 0, 79, 78
2,110890, Note_on_c, 0, 52, 52
2,110939, Note_on_c, 0, 67, 0
2,110944, Note_on_c, 0, 52, 0
2,110975, Note_on_c, 0, 50, 0
2,110978, Note_on_c, 0, 79, 0
2,110993, Note_on_c, 0, 48, 77
2,111039, Note_on_c, 0, 54, 39
2,111051, Note_on_c, 0, 48, 0
2,111078, Note_on_c, 0, 54, 0
2,111144, Note_on_c, 0, 45, 78
2,111147, Note_on_c, 0, 69, 80
2,111202, Note_on_c, 0, 69, 0
2,111276, Note_on_c, 0, 48, 66
2,111311, Note_on_c, 0, 45, 0
2,111398, Note_on_c, 0, 47, 71
2,111398, Note_on_c, 0, 71, 74
2,111398, Note_on_c, 0, 74, 78
2,111419, Note_on_c, 0, 48, 0
2,111438, Note_on_c, 0, 71, 0
2,111474, Note_on_c, 0, 74, 0
2,111479, Note_on_c, 0, 47, 0
2,111625, Note_on_c, 0, 72, 78
2,111628, Note_on_c, 0, 57, 78
2,111634, Note_on_c, 0, 45, 68
2,111731, Note_on_c, 0, 72, 0
2,111733, Note_on_c, 0, 71, 77
2,111743, Note_on_c, 0, 45, 0
2,111874, Note_on_c, 0, 74, 74
2,111881, Note_on_c, 0, 50, 61
2,111882, Note_on_c, 0, 67, 70
2,111886, Note_on_c, 0, 47, 61
2,111887, Note_on_c, 0, 71, 0
2,111921, Note_on_c, 0, 57, 0
2,112008, Note_on_c, 0, 74, 0
2,112013, Note_on_c, 0, 72, 77
2,112108, Note_on_c, 0, 67, 0
2,112134, Note_on_c, 0, 47, 0
2,112141, Note_on_c, 0, 52, 71
2,112143, Note_on_c, 0, 71, 78
2,112147, Note_on_c, 0, 50, 0
2,112150, Note_on_c, 0, 48, 62
2,112170, Note_on_c, 0, 72, 0
2,112222, Control_c, 0, 64, 32
2,112224, Note_on_c, 0, 52, 0
2,112236, Control_c, 0, 64, 51
2,112243, Note_on_c, 0, 48, 0
2,112250, Note_on_c, 0, 71, 0
2,112251, Control_c, 0, 64, 59
2,112258, Note_on_c, 0, 69, 75
2,112266, Control_c, 0, 64, 63
2,112281, Control_c, 0, 64, 65
2,112297, Control_c, 0, 64, 66
2,112342, Control_c, 0, 64, 66
2,112357, Control_c, 0, 64, 65
2,112372, Control_c, 0, 64, 65
2,112383, Note_on_c, 0, 43, 68
2,112385, Note_on_c, 0, 72, 73
2,112386, Note_on_c, 0, 66, 66
2,112386, Note_on_c, 0, 69, 0
2,112387, Control_c, 0, 64, 64
2,112402, Control_c, 0, 64, 63
2,112410, Note_on_c, 0, 50, 36
2,112414, Note_on_c, 0, 66, 0
2,112418, Control_c, 0, 64, 59
2,112432, Control_c, 0, 64, 53
2,112447, Control_c, 0, 64, 46
2,112447, Note_on_c, 0, 50, 0
2,112461, Note_on_c, 0, 43, 0
2,112463, Control_c, 0, 64, 41
2,112478, Control_c, 0, 64, 37
2,112493, Control_c, 0, 64, 33
2,112499, Note_on_c, 0, 52, 71
2,112501, Note_on_c, 0, 67, 56
2,112502, Note_on_c, 0, 71, 75
2,112509, Control_c, 0, 64, 24
2,112523, Control_c, 0, 64, 0
2,112523, Note_on_c, 0, 72, 0
2,112555, Note_on_c, 0, 67, 0
2,112584, Note_on_c, 0, 71, 0
2,112608, Note_on_c, 0, 52, 0
2,112627, Note_on_c, 0, 69, 80
2,112630, Note_on_c, 0, 54, 69
2,112635, Note_on_c, 0, 50, 63
2,112675, Note_on_c, 0, 69, 0
2,112731, Note_on_c, 0, 54, 0
2,112749, Note_on_c, 0, 55, 63
2,112874, Note_on_c, 0, 55, 0
2,112879, Note_on_c, 0, 71, 79
2,112880, Note_on_c, 0, 52, 54
2,112918, Note_on_c, 0, 71, 0
2,112994, Note_on_c, 0, 54, 75
2,113020, Note_on_c, 0, 50, 0
2,113021, Note_on_c, 0, 52, 0
2,113054, Note_on_c, 0, 54, 0
2,113127, Note_on_c, 0, 72, 77
2,113130, Note_on_c, 0, 55, 67
2,113149, Note_on_c, 0, 52, 59
2,113177, Note_on_c, 0, 72, 0
2,113229, Note_on_c, 0, 55, 0
2,113230, Note_on_c, 0, 57, 67
2,113363, Note_on_c, 0, 67, 82
2,113370, Note_on_c, 0, 54, 71
2,113384, Note_on_c, 0, 57, 0
2,113395, Note_on_c, 0, 67, 0
2,113406, Note_on_c, 0, 52, 0
2,113484, Note_on_c, 0, 55, 67
2,113514, Note_on_c, 0, 54, 0
2,113624, Note_on_c, 0, 74, 69
2,113634, Note_on_c, 0, 57, 62
2,113636, Note_on_c, 0, 54, 66
2,113642, Note_on_c, 0, 55, 0
2,113737, Note_on_c, 0, 76, 74
2,113758, Note_on_c, 0, 74, 0
2,113856, Note_on_c, 0, 57, 0
2,113866, Note_on_c, 0, 59, 59
2,113868, Note_on_c, 0, 74, 75
2,113874, Note_on_c, 0, 76, 0
2,113957, Note_on_c, 0, 74, 0
2,113966, Control_c, 0, 64, 33
2,113975, Note_on_c, 0, 76, 80
2,113981, Control_c, 0, 64, 52
2,113988, Note_on_c, 0, 60, 59
2,113997, Control_c, 0, 64, 62
2,114006, Note_on_c, 0, 59, 0
2,114012, Control_c, 0, 64, 65
2,114015, Note_on_c, 0, 76, 0
2,114028, Control_c, 0, 64, 67
2,114036, Note_on_c, 0, 54, 0
2,114043, Control_c, 0, 64, 66
2,114057, Control_c, 0, 64, 66
2,114073, Control_c, 0, 64, 65
2,114088, Control_c, 0, 64, 64
2,114104, Control_c, 0, 64, 62
2,114110, Note_on_c, 0, 77, 74
2,114112, Note_on_c, 0, 55, 50
2,114113, Note_on_c, 0, 60, 0
2,114118, Control_c, 0, 64, 59
2,114124, Note_on_c, 0, 59, 62
2,114133, Control_c, 0, 64, 53
2,114149, Control_c, 0, 64, 47
2,114159, Note_on_c, 0, 76, 77
2,114159, Note_on_c, 0, 77, 0
2,114164, Control_c, 0, 64, 43
2,114179, Control_c, 0, 64, 41
2,114202, Control_c, 0, 64, 39
2,114214, Note_on_c, 0, 76, 0
2,114217, Control_c, 0, 64, 35
2,114232, Control_c, 0, 64, 28
2,114238, Note_on_c, 0, 74, 60
2,114247, Control_c, 0, 64, 19
2,114259, Note_on_c, 0, 59, 0
2,114263, Control_c, 0, 64, 13
2,114267, Note_on_c, 0, 60, 56
2,114274, Note_on_c, 0, 74, 0
2,114278, Control_c, 0, 64, 12
2,114293, Control_c, 0, 64, 0
2,114306, Note_on_c, 0, 76, 77
2,114344, Note_on_c, 0, 76, 0
2,114367, Note_on_c, 0, 77, 82
2,114390, Note_on_c, 0, 77, 0
2,114394, Note_on_c, 0, 60, 0
2,114404, Note_on_c, 0, 57, 61
2,114426, Note_on_c, 0, 76, 86
2,114470, Note_on_c, 0, 76, 0
2,114486, Note_on_c, 0, 55, 0
2,114501, Note_on_c, 0, 74, 73
2,114529, Note_on_c, 0, 59, 61
2,114566, Note_on_c, 0, 74, 0
2,114568, Note_on_c, 0, 76, 75
2,114577, Note_on_c, 0, 57, 0
2,114685, Note_on_c, 0, 77, 76
2,114695, Note_on_c, 0, 60, 59
2,114695, Note_on_c, 0, 76, 0
2,114700, Note_on_c, 0, 59, 0
2,114703, Note_on_c, 0, 57, 54
2,114830, Note_on_c, 0, 76, 69
2,114962, Note_on_c, 0, 74, 70
2,114964, Note_on_c, 0, 76, 0
2,114965, Note_on_c, 0, 60, 0
2,114969, Note_on_c, 0, 62, 60
2,115090, Note_on_c, 0, 72, 69
2,115091, Note_on_c, 0, 74, 0
2,115098, Note_on_c, 0, 64, 59
2,115118, Note_on_c, 0, 57, 0
2,115120, Note_on_c, 0, 62, 0
2,115214, Note_on_c, 0, 62, 59
2,115215, Note_on_c, 0, 64, 0
2,115216, Note_on_c, 0, 71, 71
2,115216, Note_on_c, 0, 72, 0
2,115217, Note_on_c, 0, 59, 60
2,115250, Note_on_c, 0, 59, 0
2,115250, Note_on_c, 0, 62, 0
2,115284, Note_on_c, 0, 71, 0
2,115336, Note_on_c, 0, 69, 61
2,115443, Note_on_c, 0, 69, 0
2,115466, Note_on_c, 0, 68, 60
2,115467, Note_on_c, 0, 60, 54
2,115471, Note_on_c, 0, 57, 61
2,115492, Note_on_c, 0, 60, 0
2,115500, Note_on_c, 0, 57, 0
2,115560, Note_on_c, 0, 68, 0
2,115569, Note_on_c, 0, 69, 66
2,115602, Note_on_c, 0, 69, 0
2,115712, Note_on_c, 0, 71, 66
2,115715, Control_c, 0, 64, 43
2,115715, Note_on_c, 0, 56, 52
2,115726, Note_on_c, 0, 59, 48
2,115730, Control_c, 0, 64, 57
2,115753, Control_c, 0, 64, 63
2,115758, Note_on_c, 0, 56, 0
2,115761, Note_on_c, 0, 59, 0
2,115768, Control_c, 0, 64, 67
2,115784, Control_c, 0, 64, 70
2,115799, Control_c, 0, 64, 74
2,115814, Control_c, 0, 64, 75
2,115829, Control_c, 0, 64, 76
2,115929, Note_on_c, 0, 77, 0
2,115935, Control_c, 0, 64, 75
2,115951, Control_c, 0, 64, 73
2,115966, Control_c, 0, 64, 68
2,115976, Note_on_c, 0, 56, 63
2,115980, Note_on_c, 0, 52, 56
2,115981, Control_c, 0, 64, 62
2,115981, Note_on_c, 0, 76, 66
2,115996, Control_c, 0, 64, 50
2,116009, Note_on_c, 0, 56, 0
2,116011, Control_c, 0, 64, 27
2,116015, Note_on_c, 0, 52, 0
2,116027, Control_c, 0, 64, 0
2,116093, Note_on_c, 0, 77, 71
2,116094, Note_on_c, 0, 76, 0
2,116140, Note_on_c, 0, 77, 0
2,116223, Note_on_c, 0, 76, 73
2,116230, Note_on_c, 0, 54, 63
2,116234, Note_on_c, 0, 57, 59
2,116258, Note_on_c, 0, 76, 0
2,116264, Note_on_c, 0, 54, 0
2,116270, Note_on_c, 0, 57, 0
2,116493, Note_on_c, 0, 56, 67
2,116494, Note_on_c, 0, 74, 74
2,116496, Note_on_c, 0, 59, 62
2,116534, Note_on_c, 0, 59, 0
2,116535, Note_on_c, 0, 56, 0
2,116544, Note_on_c, 0, 74, 0
2,116704, Note_on_c, 0, 71, 0
2,116761, Note_on_c, 0, 72, 72
2,116770, Note_on_c, 0, 60, 61
2,116771, Note_on_c, 0, 57, 61
2,116792, Note_on_c, 0, 72, 0
2,116800, Note_on_c, 0, 74, 75
2,116820, Note_on_c, 0, 57, 0
2,116825, Note_on_c, 0, 74, 0
2,116840, Control_c, 0, 64, 43
2,116855, Control_c, 0, 64, 58
2,116855, Note_on_c, 0, 72, 72
2,116871, Control_c, 0, 64, 63
2,116886, Control_c, 0, 64, 67
2,116901, Control_c, 0, 64, 71
2,116916, Control_c, 0, 64, 75
2,116922, Note_on_c, 0, 72, 0
2,116931, Control_c, 0, 64, 79
2,116947, Control_c, 0, 64, 83
2,116962, Control_c, 0, 64, 86
2,116977, Control_c, 0, 64, 87
2,117007, Control_c, 0, 64, 87
2,117021, Note_on_c, 0, 72, 76
2,117023, Control_c, 0, 64, 84
2,117024, Note_on_c, 0, 64, 67
2,117033, Note_on_c, 0, 48, 64
2,117038, Control_c, 0, 64, 80
2,117038, Note_on_c, 0, 52, 65
2,117051, Note_on_c, 0, 64, 0
2,117053, Control_c, 0, 64, 74
2,117060, Note_on_c, 0, 60, 0
2,117068, Control_c, 0, 64, 67
2,117083, Control_c, 0, 64, 61
2,117083, Note_on_c, 0, 72, 0
2,117098, Control_c, 0, 64, 52
2,117111, Note_on_c, 0, 48, 0
2,117114, Control_c, 0, 64, 42
2,117122, Note_on_c, 0, 52, 0
2,117130, Control_c, 0, 64, 38
2,117130, Note_on_c, 0, 74, 79
2,117134, Note_on_c, 0, 65, 74
2,117145, Control_c, 0, 64, 37
2,117160, Control_c, 0, 64, 32
2,117175, Control_c, 0, 64, 19
2,117178, Note_on_c, 0, 65, 0
2,117191, Control_c, 0, 64, 0
2,117204, Note_on_c, 0, 74, 0
2,117260, Note_on_c, 0, 72, 85
2,117266, Note_on_c, 0, 54, 77
2,117267, Note_on_c, 0, 50, 77
2,117282, Note_on_c, 0, 64, 61
2,117311, Note_on_c, 0, 64, 0
2,117322, Note_on_c, 0, 54, 0
2,117332, Note_on_c, 0, 72, 0
2,117341, Note_on_c, 0, 50, 0
2,117532, Note_on_c, 0, 52, 84
2,117537, Note_on_c, 0, 56, 79
2,117540, Note_on_c, 0, 62, 80
2,117544, Note_on_c, 0, 71, 77
2,117568, Note_on_c, 0, 62, 0
2,117584, Note_on_c, 0, 52, 0
2,117593, Note_on_c, 0, 56, 0
2,117603, Note_on_c, 0, 71, 0
2,117806, Note_on_c, 0, 69, 78
2,117808, Note_on_c, 0, 60, 73
2,117816, Note_on_c, 0, 53, 75
2,117823, Note_on_c, 0, 57, 63
2,117871, Note_on_c, 0, 60, 0
2,117931, Note_on_c, 0, 71, 83
2,117961, Note_on_c, 0, 69, 0
2,118060, Note_on_c, 0, 60, 83
2,118060, Note_on_c, 0, 72, 87
2,118065, Note_on_c, 0, 71, 0
2,118154, Note_on_c, 0, 60, 0
2,118169, Note_on_c, 0, 71, 91
2,118170, Note_on_c, 0, 62, 83
2,118181, Note_on_c, 0, 72, 0
2,118222, Note_on_c, 0, 71, 0
2,118225, Note_on_c, 0, 62, 0
2,118296, Note_on_c, 0, 69, 91
2,118300, Note_on_c, 0, 60, 81
2,118335, Note_on_c, 0, 60, 0
2,118340, Note_on_c, 0, 69, 0
2,118351, Note_on_c, 0, 57, 0
2,118353, Note_on_c, 0, 53, 0
2,118561, Note_on_c, 0, 67, 77
2,118565, Note_on_c, 0, 52, 66
2,118565, Note_on_c, 0, 58, 69
2,118576, Note_on_c, 0, 49, 52
2,118601, Note_on_c, 0, 52, 0
2,118609, Note_on_c, 0, 67, 0
2,118612, Note_on_c, 0, 58, 0
2,118618, Note_on_c, 0, 49, 0
2,118804, Note_on_c, 0, 77, 81
2,118822, Note_on_c, 0, 57, 65
2,118826, Note_on_c, 0, 50, 59
2,118828, Note_on_c, 0, 53, 51
2,118854, Note_on_c, 0, 53, 0
2,118871, Note_on_c, 0, 50, 0
2,118882, Note_on_c, 0, 77, 0
2,118911, Note_on_c, 0, 59, 76
2,118916, Note_on_c, 0, 57, 0
2,118994, Note_on_c, 0, 59, 0
2,119043, Note_on_c, 0, 61, 87
2,119043, Note_on_c, 0, 81, 73
2,119055, Note_on_c, 0, 52, 63
2,119064, Note_on_c, 0, 55, 58
2,119094, Note_on_c, 0, 81, 0
2,119102, Note_on_c, 0, 61, 0
2,119113, Note_on_c, 0, 55, 0
2,119135, Note_on_c, 0, 52, 0
2,119177, Note_on_c, 0, 59, 72
2,119218, Note_on_c, 0, 59, 0
2,119295, Note_on_c, 0, 57, 82
2,119297, Note_on_c, 0, 53, 75
2,119340, Note_on_c, 0, 57, 0
2,119353, Note_on_c, 0, 53, 0
2,119553, Note_on_c, 0, 76, 79
2,119554, Note_on_c, 0, 49, 64
2,119555, Note_on_c, 0, 55, 67
2,119556, Note_on_c, 0, 58, 71
2,119607, Note_on_c, 0, 55, 0
2,119610, Note_on_c, 0, 58, 0
2,119635, Note_on_c, 0, 49, 0
2,119639, Note_on_c, 0, 76, 0
2,119817, Note_on_c, 0, 57, 73
2,119819, Note_on_c, 0, 50, 80
2,119832, Note_on_c, 0, 74, 72
2,119833, Note_on_c, 0, 66, 69
2,119920, Note_on_c, 0, 66, 0
2,119939, Note_on_c, 0, 72, 81
2,119989, Note_on_c, 0, 74, 0
2,120072, Note_on_c, 0, 76, 75
2,120075, Note_on_c, 0, 72, 0
2,120076, Note_on_c, 0, 71, 75
2,120080, Note_on_c, 0, 56, 79
2,120117, Note_on_c, 0, 57, 0
2,120177, Note_on_c, 0, 54, 82
2,120188, Note_on_c, 0, 74, 89
2,120196, Note_on_c, 0, 76, 0
2,120197, Note_on_c, 0, 50, 0
2,120197, Note_on_c, 0, 56, 0
2,120198, Note_on_c, 0, 71, 0
2,120226, Note_on_c, 0, 54, 0
2,120319, Note_on_c, 0, 72, 90
2,120321, Note_on_c, 0, 52, 83
2,120326, Note_on_c, 0, 45, 81
2,120357, Note_on_c, 0, 74, 0
2,120377, Note_on_c, 0, 52, 0
2,120450, Note_on_c, 0, 71, 84
2,120467, Note_on_c, 0, 72, 0
2,120601, Note_on_c, 0, 74, 78
2,120611, Note_on_c, 0, 52, 91
2,120612, Note_on_c, 0, 64, 68
2,120627, Note_on_c, 0, 71, 0
2,120695, Control_c, 0, 64, 43
2,120711, Control_c, 0, 64, 60
2,120726, Control_c, 0, 64, 68
2,120737, Note_on_c, 0, 72, 73
2,120741, Control_c, 0, 64, 78
2,120757, Control_c, 0, 64, 106
2,120758, Note_on_c, 0, 74, 0
2,120772, Control_c, 0, 64, 127
2,120788, Note_on_c, 0, 64, 0
2,120794, Note_on_c, 0, 72, 0
2,120873, Note_on_c, 0, 53, 86
2,120878, Control_c, 0, 64, 90
2,120885, Note_on_c, 0, 52, 0
2,120888, Note_on_c, 0, 71, 74
2,120889, Note_on_c, 0, 62, 69
2,120893, Control_c, 0, 64, 69
2,120897, Note_on_c, 0, 45, 0
2,120909, Control_c, 0, 64, 55
2,120910, Note_on_c, 0, 72, 44
2,120911, Note_on_c, 0, 72, 0
2,120924, Control_c, 0, 64, 24
2,120926, Note_on_c, 0, 53, 0
2,120938, Control_c, 0, 64, 0
2,120982, Note_on_c, 0, 62, 0
2,121007, Note_on_c, 0, 60, 82
2,121089, Note_on_c, 0, 60, 0
2,121140, Note_on_c, 0, 64, 71
2,121151, Note_on_c, 0, 52, 73
2,121154, Note_on_c, 0, 44, 71
2,121262, Note_on_c, 0, 64, 0
2,121267, Control_c, 0, 64, 28
2,121268, Note_on_c, 0, 62, 72
2,121282, Control_c, 0, 64, 47
2,121296, Control_c, 0, 64, 54
2,121312, Control_c, 0, 64, 58
2,121327, Control_c, 0, 64, 58
2,121371, Note_on_c, 0, 44, 0
2,121390, Note_on_c, 0, 62, 0
2,121400, Note_on_c, 0, 60, 77
2,121411, Note_on_c, 0, 45, 82
2,121418, Control_c, 0, 64, 58
2,121448, Control_c, 0, 64, 57
2,121450, Note_on_c, 0, 60, 0
2,121464, Control_c, 0, 64, 56
2,121488, Note_on_c, 0, 52, 0
2,121494, Control_c, 0, 64, 56
2,121498, Note_on_c, 0, 71, 0
2,121509, Control_c, 0, 64, 55
2,121518, Note_on_c, 0, 59, 79
2,121524, Control_c, 0, 64, 54
2,121539, Control_c, 0, 64, 52
2,121555, Control_c, 0, 64, 51
2,121570, Control_c, 0, 64, 50
2,121575, Note_on_c, 0, 59, 0
2,121586, Control_c, 0, 64, 48
2,121600, Control_c, 0, 64, 40
2,121615, Control_c, 0, 64, 20
2,121631, Control_c, 0, 64, 0
2,121649, Note_on_c, 0, 53, 78
2,121649, Note_on_c, 0, 69, 83
2,121650, Note_on_c, 0, 62, 74
2,121697, Note_on_c, 0, 62, 0
2,121762, Note_on_c, 0, 51, 80
2,121762, Note_on_c, 0, 60, 70
2,121780, Note_on_c, 0, 53, 0
2,121782, Control_c, 0, 64, 29
2,121782, Note_on_c, 0, 45, 0
2,121798, Control_c, 0, 64, 47
2,121800, Note_on_c, 0, 51, 0
2,121805, Note_on_c, 0, 60, 0
2,121813, Control_c, 0, 64, 55
2,121828, Control_c, 0, 64, 57
2,121843, Control_c, 0, 64, 57
2,121858, Control_c, 0, 64, 56
2,121874, Control_c, 0, 64, 55
2,121897, Control_c, 0, 64, 54
2,121910, Note_on_c, 0, 59, 75
2,121913, Control_c, 0, 64, 52
2,121923, Note_on_c, 0, 52, 80
2,121927, Control_c, 0, 64, 46
2,121933, Note_on_c, 0, 40, 72
2,121942, Control_c, 0, 64, 40
2,121958, Control_c, 0, 64, 36
2,121973, Control_c, 0, 64, 32
2,121988, Control_c, 0, 64, 24
2,122003, Control_c, 0, 64, 0
2,122030, Note_on_c, 0, 59, 0
2,122049, Note_on_c, 0, 71, 79
2,122090, Note_on_c, 0, 69, 0
2,122178, Note_on_c, 0, 68, 81
2,122189, Note_on_c, 0, 60, 72
2,122202, Note_on_c, 0, 71, 0
2,122252, Note_on_c, 0, 60, 0
2,122300, Note_on_c, 0, 69, 81
2,122313, Note_on_c, 0, 68, 0
2,122381, Note_on_c, 0, 69, 0
2,122447, Note_on_c, 0, 71, 84
2,122458, Note_on_c, 0, 62, 67
2,122572, Note_on_c, 0, 62, 0
2,122578, Note_on_c, 0, 60, 73
2,122714, Note_on_c, 0, 64, 79
2,122747, Note_on_c, 0, 60, 0
2,122756, Control_c, 0, 64, 44
2,122771, Control_c, 0, 64, 58
2,122787, Control_c, 0, 64, 64
2,122802, Control_c, 0, 64, 68
2,122813, Note_on_c, 0, 64, 0
2,122817, Control_c, 0, 64, 72
2,122820, Note_on_c, 0, 62, 80
2,122833, Control_c, 0, 64, 75
2,122848, Control_c, 0, 64, 77
2,122864, Control_c, 0, 64, 77
2,122869, Note_on_c, 0, 40, 0
2,122879, Control_c, 0, 64, 77
2,122879, Note_on_c, 0, 62, 0
2,122894, Control_c, 0, 64, 76
2,122909, Control_c, 0, 64, 73
2,122920, Note_on_c, 0, 71, 0
2,122924, Control_c, 0, 64, 71
2,122939, Control_c, 0, 64, 67
2,122949, Note_on_c, 0, 60, 80
2,122955, Control_c, 0, 64, 61
2,122970, Control_c, 0, 64, 49
2,122981, Note_on_c, 0, 40, 80
2,122986, Control_c, 0, 64, 32
2,123001, Control_c, 0, 64, 25
2,123016, Control_c, 0, 64, 24
2,123032, Control_c, 0, 64, 15
2,123046, Control_c, 0, 64, 0
2,123084, Note_on_c, 0, 72, 88
2,123111, Note_on_c, 0, 60, 0
2,123211, Note_on_c, 0, 69, 83
2,123215, Note_on_c, 0, 62, 80
2,123232, Note_on_c, 0, 72, 0
2,123274, Control_c, 0, 64, 28
2,123289, Control_c, 0, 64, 51
2,123298, Note_on_c, 0, 62, 0
2,123305, Control_c, 0, 64, 61
2,123319, Control_c, 0, 64, 66
2,123322, Note_on_c, 0, 71, 91
2,123323, Note_on_c, 0, 69, 0
2,123334, Control_c, 0, 64, 70
2,123350, Control_c, 0, 64, 75
2,123365, Control_c, 0, 64, 78
2,123380, Control_c, 0, 64, 79
2,123394, Note_on_c, 0, 52, 0
2,123395, Control_c, 0, 64, 80
2,123410, Control_c, 0, 64, 79
2,123434, Control_c, 0, 64, 77
2,123449, Control_c, 0, 64, 75
2,123465, Control_c, 0, 64, 71
2,123479, Control_c, 0, 64, 65
2,123494, Control_c, 0, 64, 57
2,123507, Note_on_c, 0, 72, 89
2,123510, Control_c, 0, 64, 40
2,123518, Note_on_c, 0, 64, 75
2,123523, Note_on_c, 0, 52, 64
2,123524, Control_c, 0, 64, 13
2,123539, Control_c, 0, 64, 0
2,123590, Note_on_c, 0, 71, 0
2,123652, Note_on_c, 0, 62, 80
2,123655, Note_on_c, 0, 64, 0
2,123774, Note_on_c, 0, 65, 82
2,123804, Note_on_c, 0, 62, 0
2,123874, Control_c, 0, 64, 30
2,123875, Note_on_c, 0, 64, 83
2,123882, Note_on_c, 0, 65, 0
2,123889, Control_c, 0, 64, 54
2,123904, Control_c, 0, 64, 63
2,123919, Control_c, 0, 64, 67
2,123930, Note_on_c, 0, 40, 0
2,123934, Control_c, 0, 64, 75
2,123946, Note_on_c, 0, 64, 0
2,123950, Control_c, 0, 64, 82
2,123964, Control_c, 0, 64, 89
2,123979, Control_c, 0, 64, 89
2,123986, Note_on_c, 0, 72, 0
2,123995, Control_c, 0, 64, 85
2,124009, Note_on_c, 0, 62, 84
2,124010, Control_c, 0, 64, 77
2,124026, Control_c, 0, 64, 67
2,124035, Note_on_c, 0, 40, 84
2,124040, Control_c, 0, 64, 56
2,124055, Control_c, 0, 64, 32
2,124071, Control_c, 0, 64, 0
2,124139, Note_on_c, 0, 74, 89
2,124164, Note_on_c, 0, 62, 0
2,124269, Note_on_c, 0, 71, 88
2,124277, Note_on_c, 0, 64, 83
2,124286, Note_on_c, 0, 74, 0
2,124389, Note_on_c, 0, 72, 93
2,124398, Control_c, 0, 64, 22
2,124407, Note_on_c, 0, 71, 0
2,124413, Control_c, 0, 64, 50
2,124429, Control_c, 0, 64, 58
2,124443, Control_c, 0, 64, 61
2,124457, Note_on_c, 0, 64, 0
2,124458, Control_c, 0, 64, 62
2,124473, Note_on_c, 0, 52, 0
2,124520, Control_c, 0, 64, 61
2,124551, Control_c, 0, 64, 61
2,124575, Note_on_c, 0, 74, 84
2,124581, Control_c, 0, 64, 60
2,124585, Note_on_c, 0, 65, 73
2,124596, Control_c, 0, 64, 59
2,124603, Note_on_c, 0, 52, 65
2,124611, Control_c, 0, 64, 57
2,124627, Control_c, 0, 64, 52
2,124628, Note_on_c, 0, 72, 0
2,124642, Control_c, 0, 64, 46
2,124657, Control_c, 0, 64, 39
2,124672, Control_c, 0, 64, 31
2,124687, Control_c, 0, 64, 23
2,124702, Control_c, 0, 64, 0
2,124740, Note_on_c, 0, 72, 83
2,124760, Note_on_c, 0, 74, 0
2,124862, Note_on_c, 0, 71, 81
2,124896, Note_on_c, 0, 72, 0
2,124981, Note_on_c, 0, 71, 0
2,124984, Control_c, 0, 64, 20
2,124985, Note_on_c, 0, 69, 74
2,124999, Control_c, 0, 64, 44
2,125013, Control_c, 0, 64, 56
2,125021, Note_on_c, 0, 69, 0
2,125029, Control_c, 0, 64, 61
2,125044, Control_c, 0, 64, 64
2,125059, Control_c, 0, 64, 66
2,125075, Control_c, 0, 64, 67
2,125077, Note_on_c, 0, 40, 0
2,125089, Control_c, 0, 64, 67
2,125108, Note_on_c, 0, 65, 0
2,125114, Note_on_c, 0, 68, 75
2,125135, Control_c, 0, 64, 67
2,125151, Control_c, 0, 64, 66
2,125165, Control_c, 0, 64, 66
2,125196, Control_c, 0, 64, 65
2,125214, Note_on_c, 0, 71, 77
2,125227, Control_c, 0, 64, 65
2,125231, Note_on_c, 0, 68, 0
2,125242, Control_c, 0, 64, 64
2,125245, Note_on_c, 0, 52, 0
2,125257, Control_c, 0, 64, 63
2,125273, Control_c, 0, 64, 61
2,125287, Control_c, 0, 64, 60
2,125302, Control_c, 0, 64, 58
2,125318, Control_c, 0, 64, 55
2,125333, Control_c, 0, 64, 51
2,125335, Note_on_c, 0, 71, 0
2,125338, Note_on_c, 0, 72, 75
2,125348, Note_on_c, 0, 52, 78
2,125349, Control_c, 0, 64, 45
2,125357, Note_on_c, 0, 64, 64
2,125364, Control_c, 0, 64, 38
2,125379, Control_c, 0, 64, 28
2,125395, Control_c, 0, 64, 0
2,125428, Note_on_c, 0, 64, 0
2,125458, Note_on_c, 0, 53, 74
2,125458, Note_on_c, 0, 74, 81
2,125482, Note_on_c, 0, 72, 0
2,125483, Note_on_c, 0, 52, 0
2,125508, Note_on_c, 0, 74, 0
2,125562, Note_on_c, 0, 53, 0
2,125585, Note_on_c, 0, 52, 80
2,125588, Note_on_c, 0, 76, 82
2,125644, Note_on_c, 0, 52, 0
2,125698, Note_on_c, 0, 76, 0
2,125705, Note_on_c, 0, 77, 81
2,125837, Note_on_c, 0, 77, 0
2,125845, Note_on_c, 0, 79, 79
2,125851, Note_on_c, 0, 50, 61
2,125882, Note_on_c, 0, 50, 0
2,125957, Note_on_c, 0, 70, 69
2,126009, Note_on_c, 0, 70, 0
2,126074, Note_on_c, 0, 79, 0
2,126089, Note_on_c, 0, 69, 73
2,126097, Note_on_c, 0, 49, 65
2,126132, Control_c, 0, 64, 35
2,126148, Control_c, 0, 64, 53
2,126162, Control_c, 0, 64, 61
2,126177, Control_c, 0, 64, 65
2,126193, Control_c, 0, 64, 68
2,126199, Note_on_c, 0, 49, 0
2,126208, Control_c, 0, 64, 71
2,126221, Note_on_c, 0, 81, 74
2,126224, Control_c, 0, 64, 75
2,126238, Control_c, 0, 64, 79
2,126253, Control_c, 0, 64, 83
2,126269, Control_c, 0, 64, 87
2,126284, Control_c, 0, 64, 89
2,126315, Control_c, 0, 64, 87
2,126330, Control_c, 0, 64, 85
2,126342, Note_on_c, 0, 79, 84
2,126346, Control_c, 0, 64, 82
2,126346, Note_on_c, 0, 81, 0
2,126349, Note_on_c, 0, 52, 70
2,126352, Note_on_c, 0, 49, 65
2,126360, Control_c, 0, 64, 78
2,126375, Control_c, 0, 64, 73
2,126391, Control_c, 0, 64, 67
2,126406, Control_c, 0, 64, 61
2,126420, Control_c, 0, 64, 49
2,126436, Control_c, 0, 64, 40
2,126451, Control_c, 0, 64, 34
2,126459, Note_on_c, 0, 53, 78
2,126459, Note_on_c, 0, 77, 87
2,126467, Control_c, 0, 64, 30
2,126477, Note_on_c, 0, 50, 65
2,126482, Control_c, 0, 64, 21
2,126505, Control_c, 0, 64, 0
2,126505, Note_on_c, 0, 79, 0
2,126508, Note_on_c, 0, 49, 0
2,126510, Note_on_c, 0, 52, 0
2,126532, Note_on_c, 0, 50, 0
2,126562, Note_on_c, 0, 53, 0
2,126586, Note_on_c, 0, 79, 90
2,126589, Note_on_c, 0, 52, 78
2,126589, Note_on_c, 0, 77, 0
2,126592, Note_on_c, 0, 49, 80
2,126657, Note_on_c, 0, 52, 0
2,126662, Note_on_c, 0, 49, 0
2,126677, Note_on_c, 0, 69, 0
2,126696, Note_on_c, 0, 73, 80
2,126827, Note_on_c, 0, 76, 81
2,126835, Note_on_c, 0, 50, 77
2,126842, Note_on_c, 0, 47, 76
2,126842, Note_on_c, 0, 73, 0
2,126871, Note_on_c, 0, 50, 0
2,126896, Note_on_c, 0, 47, 0
2,126948, Note_on_c, 0, 74, 84
2,126966, Note_on_c, 0, 76, 0
2,127090, Note_on_c, 0, 49, 66
2,127092, Note_on_c, 0, 45, 70
2,127095, Control_c, 0, 64, 23
2,127095, Note_on_c, 0, 76, 83
2,127111, Control_c, 0, 64, 32
2,127124, Note_on_c, 0, 79, 0
2,127126, Control_c, 0, 64, 35
2,127134, Note_on_c, 0, 74, 0
2,127141, Control_c, 0, 64, 35
2,127187, Control_c, 0, 64, 36
2,127194, Note_on_c, 0, 47, 75
2,127214, Note_on_c, 0, 77, 93
2,127223, Note_on_c, 0, 49, 0
2,127228, Note_on_c, 0, 76, 0
2,127233, Control_c, 0, 64, 36
2,127244, Note_on_c, 0, 45, 0
2,127335, Note_on_c, 0, 49, 86
2,127338, Note_on_c, 0, 76, 92
2,127368, Note_on_c, 0, 47, 0
2,127370, Note_on_c, 0, 77, 0
2,127392, Control_c, 0, 64, 36
2,127407, Control_c, 0, 64, 35
2,127422, Control_c, 0, 64, 33
2,127440, Note_on_c, 0, 76, 0
2,127444, Note_on_c, 0, 77, 92
2,127452, Note_on_c, 0, 47, 79
2,127453, Control_c, 0, 64, 33
2,127454, Note_on_c, 0, 50, 76
2,127466, Note_on_c, 0, 49, 0
2,127467, Control_c, 0, 64, 30
2,127483, Control_c, 0, 64, 24
2,127498, Control_c, 0, 64, 0
2,127578, Note_on_c, 0, 49, 74
2,127585, Note_on_c, 0, 45, 78
2,127588, Note_on_c, 0, 79, 87
2,127596, Note_on_c, 0, 50, 0
2,127599, Note_on_c, 0, 47, 0
2,127633, Note_on_c, 0, 49, 0
2,127641, Note_on_c, 0, 77, 0
2,127648, Note_on_c, 0, 45, 0
2,127719, Note_on_c, 0, 69, 79
2,127847, Note_on_c, 0, 46, 73
2,127849, Note_on_c, 0, 73, 87
2,127850, Note_on_c, 0, 43, 69
2,127856, Note_on_c, 0, 69, 0
2,127899, Note_on_c, 0, 43, 0
2,127909, Note_on_c, 0, 46, 0
2,127967, Note_on_c, 0, 74, 84
2,127993, Note_on_c, 0, 73, 0
2,128098, Note_on_c, 0, 74, 0
2,128114, Note_on_c, 0, 79, 0
2,128119, Note_on_c, 0, 76, 84
2,128124, Note_on_c, 0, 45, 80
2,128128, Note_on_c, 0, 41, 73
2,128144, Control_c, 0, 64, 28
2,128160, Control_c, 0, 64, 51
2,128166, Note_on_c, 0, 76, 0
2,128175, Control_c, 0, 64, 61
2,128189, Control_c, 0, 64, 65
2,128205, Control_c, 0, 64, 69
2,128220, Control_c, 0, 64, 73
2,128236, Control_c, 0, 64, 75
2,128251, Control_c, 0, 64, 74
2,128254, Note_on_c, 0, 82, 85
2,128256, Note_on_c, 0, 73, 85
2,128266, Control_c, 0, 64, 73
2,128282, Control_c, 0, 64, 71
2,128297, Control_c, 0, 64, 68
2,128309, Note_on_c, 0, 73, 0
2,128312, Control_c, 0, 64, 64
2,128324, Note_on_c, 0, 82, 0
2,128327, Control_c, 0, 64, 57
2,128342, Control_c, 0, 64, 46
2,128358, Control_c, 0, 64, 34
2,128373, Control_c, 0, 64, 25
2,128384, Note_on_c, 0, 81, 86
2,128387, Control_c, 0, 64, 21
2,128395, Note_on_c, 0, 74, 76
2,128403, Control_c, 0, 64, 11
2,128418, Control_c, 0, 64, 0
2,128503, Note_on_c, 0, 79, 86
2,128535, Note_on_c, 0, 81, 0
2,128560, Note_on_c, 0, 74, 0
2,128577, Note_on_c, 0, 41, 0
2,128601, Note_on_c, 0, 45, 0
2,128624, Note_on_c, 0, 79, 0
2,128629, Note_on_c, 0, 77, 88
2,128632, Control_c, 0, 64, 28
2,128647, Control_c, 0, 64, 52
2,128662, Control_c, 0, 64, 61
2,128678, Control_c, 0, 64, 62
2,128692, Control_c, 0, 64, 62
2,128723, Control_c, 0, 64, 61
2,128731, Note_on_c, 0, 77, 0
2,128749, Note_on_c, 0, 76, 80
2,128798, Note_on_c, 0, 76, 0
2,128822, Control_c, 0, 64, 61
2,128852, Control_c, 0, 64, 60
2,128867, Note_on_c, 0, 65, 77
2,128882, Note_on_c, 0, 53, 62
2,128885, Note_on_c, 0, 69, 73
2,128888, Note_on_c, 0, 74, 73
2,128895, Note_on_c, 0, 65, 0
2,128897, Control_c, 0, 64, 60
2,128913, Control_c, 0, 64, 59
2,128919, Note_on_c, 0, 69, 0
2,128928, Control_c, 0, 64, 58
2,128943, Control_c, 0, 64, 57
2,128958, Control_c, 0, 64, 56
2,128973, Control_c, 0, 64, 55
2,128985, Note_on_c, 0, 64, 80
2,128988, Control_c, 0, 64, 55
2,128991, Note_on_c, 0, 73, 77
2,128997, Note_on_c, 0, 67, 70
2,129006, Note_on_c, 0, 74, 0
2,129019, Control_c, 0, 64, 54
2,129026, Note_on_c, 0, 64, 0
2,129027, Note_on_c, 0, 67, 0
2,129048, Note_on_c, 0, 73, 0
2,129049, Control_c, 0, 64, 54
2,129064, Control_c, 0, 64, 53
2,129095, Control_c, 0, 64, 52
2,129103, Note_on_c, 0, 53, 0
2,129104, Note_on_c, 0, 62, 78
2,129107, Note_on_c, 0, 58, 72
2,129111, Control_c, 0, 64, 50
2,129111, Note_on_c, 0, 74, 92
2,129118, Note_on_c, 0, 65, 79
2,129125, Control_c, 0, 64, 48
2,129140, Control_c, 0, 64, 47
2,129171, Control_c, 0, 64, 47
2,129171, Note_on_c, 0, 74, 0
2,129217, Control_c, 0, 64, 46
2,129232, Control_c, 0, 64, 45
2,129233, Note_on_c, 0, 76, 80
2,129247, Control_c, 0, 64, 44
2,129262, Control_c, 0, 64, 44
2,129292, Control_c, 0, 64, 42
2,129307, Control_c, 0, 64, 39
2,129323, Control_c, 0, 64, 32
2,129338, Control_c, 0, 64, 16
2,129341, Note_on_c, 0, 70, 76
2,129343, Note_on_c, 0, 76, 0
2,129352, Note_on_c, 0, 55, 77
2,129352, Note_on_c, 0, 74, 83
2,129353, Control_c, 0, 64, 0
2,129354, Note_on_c, 0, 58, 0
2,129369, Note_on_c, 0, 65, 0
2,129400, Note_on_c, 0, 70, 0
2,129459, Note_on_c, 0, 76, 82
2,129471, Note_on_c, 0, 74, 0
2,129504, Note_on_c, 0, 76, 0
2,129598, Note_on_c, 0, 55, 0
2,129600, Note_on_c, 0, 77, 91
2,129605, Note_on_c, 0, 57, 69
2,129608, Note_on_c, 0, 62, 0
2,129614, Note_on_c, 0, 69, 72
2,129636, Control_c, 0, 64, 24
2,129651, Control_c, 0, 64, 32
2,129666, Control_c, 0, 64, 35
2,129666, Note_on_c, 0, 76, 68
2,129669, Note_on_c, 0, 77, 0
2,129681, Control_c, 0, 64, 38
2,129696, Control_c, 0, 64, 38
2,129715, Note_on_c, 0, 69, 0
2,129723, Note_on_c, 0, 76, 0
2,129724, Note_on_c, 0, 77, 69
2,129802, Control_c, 0, 64, 38
2,129810, Note_on_c, 0, 67, 72
2,129817, Control_c, 0, 64, 37
2,129828, Note_on_c, 0, 76, 79
2,129833, Control_c, 0, 64, 36
2,129840, Note_on_c, 0, 77, 0
2,129848, Control_c, 0, 64, 35
2,129852, Note_on_c, 0, 61, 77
2,129863, Control_c, 0, 64, 30
2,129871, Note_on_c, 0, 57, 0
2,129878, Control_c, 0, 64, 0
2,129899, Note_on_c, 0, 61, 0
2,129965, Note_on_c, 0, 74, 88
2,129970, Note_on_c, 0, 76, 0
2,130039, Note_on_c, 0, 74, 0
2,130135, Note_on_c, 0, 74, 83
2,130145, Note_on_c, 0, 62, 67
2,130161, Note_on_c, 0, 50, 58
2,130198, Control_c, 0, 64, 24
2,130213, Control_c, 0, 64, 50
2,130213, Note_on_c, 0, 67, 0
2,130223, Note_on_c, 0, 62, 0
2,130229, Control_c, 0, 64, 61
2,130244, Control_c, 0, 64, 66
2,130259, Control_c, 0, 64, 71
2,130275, Control_c, 0, 64, 78
2,130290, Control_c, 0, 64, 85
2,130305, Control_c, 0, 64, 91
2,130305, Note_on_c, 0, 50, 0
2,130321, Control_c, 0, 64, 96
2,130343, Control_c, 0, 64, 99
2,130388, Control_c, 0, 64, 95
2,130404, Control_c, 0, 64, 89
2,130418, Note_on_c, 0, 57, 70
2,130419, Control_c, 0, 64, 78
2,130424, Note_on_c, 0, 65, 77
2,130435, Control_c, 0, 64, 65
2,130435, Note_on_c, 0, 50, 47
2,130449, Control_c, 0, 64, 51
2,130462, Note_on_c, 0, 50, 0
2,130464, Control_c, 0, 64, 0
2,130530, Note_on_c, 0, 65, 0
2,130532, Note_on_c, 0, 64, 78
2,130540, Note_on_c, 0, 49, 71
2,130574, Note_on_c, 0, 49, 0
2,130602, Note_on_c, 0, 64, 0
2,130657, Note_on_c, 0, 50, 92
2,130661, Note_on_c, 0, 65, 84
2,130716, Note_on_c, 0, 50, 0
2,130730, Note_on_c, 0, 65, 0
2,130787, Note_on_c, 0, 67, 82
2,130859, Note_on_c, 0, 67, 0
2,130920, Note_on_c, 0, 52, 89
2,130920, Note_on_c, 0, 69, 85
2,130966, Note_on_c, 0, 52, 0
2,131028, Note_on_c, 0, 69, 0
2,131041, Note_on_c, 0, 65, 79
2,131091, Note_on_c, 0, 74, 0
2,131106, Note_on_c, 0, 65, 0
2,131186, Control_c, 0, 64, 25
2,131191, Note_on_c, 0, 62, 77
2,131196, Note_on_c, 0, 53, 95
2,131201, Control_c, 0, 64, 56
2,131208, Note_on_c, 0, 57, 0
2,131216, Control_c, 0, 64, 65
2,131232, Control_c, 0, 64, 71
2,131239, Note_on_c, 0, 53, 0
2,131247, Control_c, 0, 64, 83
2,131247, Note_on_c, 0, 62, 0
2,131262, Control_c, 0, 64, 109
2,131278, Control_c, 0, 64, 127
2,131452, Note_on_c, 0, 53, 82
2,131452, Note_on_c, 0, 57, 85
2,131460, Control_c, 0, 64, 109
2,131476, Control_c, 0, 64, 76
2,131490, Control_c, 0, 64, 61
2,131505, Control_c, 0, 64, 0
2,131526, Note_on_c, 0, 53, 0
2,131526, Note_on_c, 0, 57, 0
2,131558, Note_on_c, 0, 52, 85
2,131559, Note_on_c, 0, 56, 92
2,131598, Note_on_c, 0, 52, 0
2,131626, Note_on_c, 0, 56, 0
2,131679, Note_on_c, 0, 54, 101
2,131689, Note_on_c, 0, 57, 90
2,131725, Note_on_c, 0, 54, 0
2,131740, Note_on_c, 0, 57, 0
2,131952, Note_on_c, 0, 56, 94
2,131955, Note_on_c, 0, 59, 90
2,131998, Note_on_c, 0, 59, 0
2,132002, Note_on_c, 0, 56, 0
2,132210, Note_on_c, 0, 57, 81
2,132210, Note_on_c, 0, 60, 77
2,132246, Note_on_c, 0, 62, 87
2,132253, Note_on_c, 0, 60, 0
2,132268, Note_on_c, 0, 62, 0
2,132297, Note_on_c, 0, 60, 78
2,132315, Note_on_c, 0, 56, 79
2,132321, Note_on_c, 0, 57, 0
2,132425, Note_on_c, 0, 60, 0
2,132474, Note_on_c, 0, 54, 77
2,132487, Note_on_c, 0, 56, 0
2,132487, Note_on_c, 0, 60, 79
2,132554, Note_on_c, 0, 60, 0
2,132591, Note_on_c, 0, 56, 85
2,132595, Note_on_c, 0, 59, 89
2,132601, Note_on_c, 0, 54, 0
2,132653, Note_on_c, 0, 59, 0
2,132667, Note_on_c, 0, 56, 0
2,132733, Note_on_c, 0, 60, 94
2,132737, Note_on_c, 0, 57, 90
2,132789, Note_on_c, 0, 57, 0
2,132792, Note_on_c, 0, 60, 0
2,132983, Note_on_c, 0, 62, 82
2,132987, Note_on_c, 0, 59, 79
2,133036, Note_on_c, 0, 62, 0
2,133051, Note_on_c, 0, 59, 0
2,133151, Note_on_c, 0, 64, 73
2,133195, Note_on_c, 0, 64, 0
2,133195, Note_on_c, 0, 65, 84
2,133216, Note_on_c, 0, 65, 0
2,133227, Note_on_c, 0, 48, 80
2,133238, Note_on_c, 0, 64, 77
2,133278, Note_on_c, 0, 48, 0
2,133344, Note_on_c, 0, 64, 0
2,133367, Note_on_c, 0, 62, 80
2,133436, Note_on_c, 0, 62, 0
2,133502, Note_on_c, 0, 45, 71
2,133502, Note_on_c, 0, 60, 81
2,133571, Note_on_c, 0, 60, 0
2,133599, Note_on_c, 0, 45, 0
2,133607, Note_on_c, 0, 62, 76
2,133662, Note_on_c, 0, 62, 0
2,133748, Note_on_c, 0, 64, 82
2,133792, Note_on_c, 0, 64, 0
2,133999, Note_on_c, 0, 50, 68
2,134002, Note_on_c, 0, 65, 76
2,134036, Note_on_c, 0, 65, 0
2,134050, Note_on_c, 0, 50, 0
2,134261, Note_on_c, 0, 56, 78
2,134264, Note_on_c, 0, 52, 69
2,134323, Note_on_c, 0, 56, 0
2,134375, Note_on_c, 0, 52, 0
2,134376, Note_on_c, 0, 53, 71
2,134490, Note_on_c, 0, 53, 0
2,134500, Note_on_c, 0, 52, 75
2,134512, Note_on_c, 0, 50, 68
2,134549, Note_on_c, 0, 52, 0
2,134622, Note_on_c, 0, 52, 74
2,134635, Note_on_c, 0, 50, 0
2,134744, Note_on_c, 0, 52, 0
2,134764, Note_on_c, 0, 53, 82
2,134873, Note_on_c, 0, 55, 78
2,134898, Note_on_c, 0, 53, 0
2,135006, Note_on_c, 0, 57, 83
2,135014, Note_on_c, 0, 52, 72
2,135035, Note_on_c, 0, 55, 0
2,135050, Note_on_c, 0, 57, 0
2,135118, Note_on_c, 0, 54, 80
2,135151, Note_on_c, 0, 52, 0
2,135261, Note_on_c, 0, 54, 0
2,135263, Note_on_c, 0, 59, 77
2,135265, Note_on_c, 0, 55, 80
2,135320, Note_on_c, 0, 55, 0
2,135372, Note_on_c, 0, 60, 72
2,135374, Note_on_c, 0, 59, 0
2,135518, Note_on_c, 0, 57, 67
2,135527, Note_on_c, 0, 53, 62
2,135548, Note_on_c, 0, 60, 0
2,135586, Note_on_c, 0, 53, 0
2,135622, Note_on_c, 0, 57, 0
2,135629, Note_on_c, 0, 59, 61
2,135762, Note_on_c, 0, 59, 0
2,135771, Note_on_c, 0, 60, 63
2,135776, Note_on_c, 0, 52, 58
2,135822, Note_on_c, 0, 52, 0
2,135889, Note_on_c, 0, 60, 0
2,135896, Note_on_c, 0, 62, 58
2,136001, Note_on_c, 0, 62, 0
2,136033, Note_on_c, 0, 59, 57
2,136035, Note_on_c, 0, 57, 58
2,136083, Note_on_c, 0, 57, 0
2,136122, Note_on_c, 0, 59, 0
2,136160, Note_on_c, 0, 61, 47
2,136201, Note_on_c, 0, 61, 0
2,136310, Note_on_c, 0, 62, 57
2,136312, Note_on_c, 0, 50, 52
2,136342, Control_c, 0, 64, 26
2,136358, Control_c, 0, 64, 52
2,136373, Control_c, 0, 64, 61
2,136388, Note_on_c, 0, 50, 0
2,136389, Control_c, 0, 64, 65
2,136404, Control_c, 0, 64, 69
2,136419, Control_c, 0, 64, 75
2,136427, Note_on_c, 0, 62, 0
2,136435, Control_c, 0, 64, 83
2,136450, Control_c, 0, 64, 94
2,136466, Control_c, 0, 64, 107
2,136487, Control_c, 0, 64, 127
2,136532, Control_c, 0, 64, 119
2,136548, Control_c, 0, 64, 108
2,136563, Control_c, 0, 64, 100
2,136578, Control_c, 0, 64, 91
2,136594, Control_c, 0, 64, 80
2,136594, Note_on_c, 0, 76, 66
2,136607, Note_on_c, 0, 57, 47
2,136609, Control_c, 0, 64, 70
2,136614, Note_on_c, 0, 60, 50
2,136625, Control_c, 0, 64, 61
2,136640, Control_c, 0, 64, 41
2,136654, Control_c, 0, 64, 22
2,136670, Control_c, 0, 64, 19
2,136685, Control_c, 0, 64, 17
2,136700, Control_c, 0, 64, 0
2,136715, Note_on_c, 0, 76, 0
2,136716, Note_on_c, 0, 77, 72
2,136765, Note_on_c, 0, 77, 0
2,136788, Note_on_c, 0, 60, 0
2,136841, Note_on_c, 0, 59, 55
2,136841, Note_on_c, 0, 76, 73
2,136877, Note_on_c, 0, 76, 0
2,136942, Note_on_c, 0, 59, 0
2,136950, Note_on_c, 0, 57, 0
2,136958, Note_on_c, 0, 56, 58
2,137083, Note_on_c, 0, 64, 54
2,137084, Note_on_c, 0, 74, 73
2,137089, Note_on_c, 0, 57, 46
2,137090, Note_on_c, 0, 56, 0
2,137113, Note_on_c, 0, 74, 0
2,137149, Note_on_c, 0, 64, 0
2,137221, Note_on_c, 0, 56, 58
2,137224, Note_on_c, 0, 57, 0
2,137340, Note_on_c, 0, 56, 0
2,137346, Note_on_c, 0, 72, 73
2,137358, Note_on_c, 0, 57, 59
2,137376, Note_on_c, 0, 72, 0
2,137382, Note_on_c, 0, 74, 76
2,137416, Note_on_c, 0, 74, 0
2,137449, Note_on_c, 0, 72, 75
2,137528, Control_c, 0, 64, 11
2,137544, Control_c, 0, 64, 44
2,137558, Note_on_c, 0, 72, 0
2,137559, Control_c, 0, 64, 58
2,137574, Control_c, 0, 64, 64
2,137589, Control_c, 0, 64, 67
2,137605, Control_c, 0, 64, 69
2,137620, Control_c, 0, 64, 70
2,137636, Control_c, 0, 64, 69
2,137641, Note_on_c, 0, 69, 61
2,137643, Note_on_c, 0, 72, 66
2,137651, Control_c, 0, 64, 69
2,137667, Control_c, 0, 64, 68
2,137682, Control_c, 0, 64, 67
2,137684, Note_on_c, 0, 69, 0
2,137697, Control_c, 0, 64, 64
2,137713, Control_c, 0, 64, 61
2,137719, Note_on_c, 0, 72, 0
2,137728, Control_c, 0, 64, 53
2,137744, Control_c, 0, 64, 38
2,137751, Note_on_c, 0, 74, 68
2,137756, Note_on_c, 0, 71, 69
2,137758, Control_c, 0, 64, 0
2,137792, Note_on_c, 0, 71, 0
2,137813, Note_on_c, 0, 74, 0
2,137870, Note_on_c, 0, 72, 78
2,137883, Note_on_c, 0, 69, 65
2,137911, Note_on_c, 0, 69, 0
2,137916, Note_on_c, 0, 72, 0
2,137985, Note_on_c, 0, 55, 75
2,138005, Note_on_c, 0, 57, 0
2,138116, Note_on_c, 0, 70, 73
2,138117, Note_on_c, 0, 67, 67
2,138120, Note_on_c, 0, 53, 72
2,138140, Note_on_c, 0, 55, 0
2,138150, Note_on_c, 0, 67, 0
2,138166, Note_on_c, 0, 70, 0
2,138234, Note_on_c, 0, 52, 72
2,138243, Note_on_c, 0, 53, 0
2,138380, Note_on_c, 0, 53, 62
2,138382, Note_on_c, 0, 69, 65
2,138390, Note_on_c, 0, 65, 55
2,138392, Note_on_c, 0, 52, 0
2,138498, Note_on_c, 0, 70, 68
2,138501, Note_on_c, 0, 65, 0
2,138501, Note_on_c, 0, 69, 0
2,138636, Note_on_c, 0, 65, 54
2,138638, Note_on_c, 0, 57, 60
2,138638, Note_on_c, 0, 72, 65
2,138653, Note_on_c, 0, 70, 0
2,138711, Note_on_c, 0, 65, 0
2,138727, Note_on_c, 0, 57, 0
2,138739, Note_on_c, 0, 72, 0
2,138748, Note_on_c, 0, 58, 64
2,138758, Note_on_c, 0, 67, 53
2,138758, Note_on_c, 0, 70, 65
2,138851, Note_on_c, 0, 67, 0
2,138867, Note_on_c, 0, 70, 0
2,138886, Note_on_c, 0, 60, 66
2,138895, Note_on_c, 0, 58, 0
2,138895, Note_on_c, 0, 69, 68
2,138906, Note_on_c, 0, 65, 57
2,138952, Note_on_c, 0, 65, 0
2,138966, Note_on_c, 0, 53, 0
2,138973, Note_on_c, 0, 69, 0
2,138996, Note_on_c, 0, 60, 0
2,139005, Note_on_c, 0, 52, 67
2,139052, Note_on_c, 0, 52, 0
2,139125, Note_on_c, 0, 67, 66
2,139132, Note_on_c, 0, 58, 60
2,139132, Note_on_c, 0, 64, 53
2,139133, Note_on_c, 0, 50, 65
2,139157, Note_on_c, 0, 67, 0
2,139160, Note_on_c, 0, 64, 0
2,139168, Note_on_c, 0, 50, 0
2,139254, Note_on_c, 0, 49, 73
2,139283, Note_on_c, 0, 58, 0
2,139321, Note_on_c, 0, 49, 0
2,139377, Note_on_c, 0, 77, 80
2,139380, Note_on_c, 0, 50, 60
2,139390, Note_on_c, 0, 53, 60
2,139399, Note_on_c, 0, 62, 62
2,139422, Note_on_c, 0, 53, 0
2,139441, Note_on_c, 0, 50, 0
2,139449, Note_on_c, 0, 77, 0
2,139508, Note_on_c, 0, 62, 0
2,139539, Note_on_c, 0, 64, 73
2,139668, Note_on_c, 0, 62, 57
2,139670, Note_on_c, 0, 81, 75
2,139672, Note_on_c, 0, 64, 0
2,139681, Note_on_c, 0, 65, 69
2,139720, Note_on_c, 0, 62, 0
2,139730, Note_on_c, 0, 81, 0
2,139766, Note_on_c, 0, 65, 0
2,139782, Note_on_c, 0, 64, 78
2,139912, Note_on_c, 0, 64, 0
2,139914, Note_on_c, 0, 65, 69
2,139930, Note_on_c, 0, 62, 57
2,139962, Note_on_c, 0, 62, 0
2,140044, Note_on_c, 0, 67, 71
2,140047, Note_on_c, 0, 65, 0
2,140157, Note_on_c, 0, 67, 0
2,140178, Note_on_c, 0, 76, 66
2,140192, Note_on_c, 0, 69, 62
2,140200, Note_on_c, 0, 61, 50
2,140436, Note_on_c, 0, 76, 0
2,140457, Note_on_c, 0, 74, 65
2,140458, Note_on_c, 0, 70, 57
2,140505, Note_on_c, 0, 70, 0
2,140528, Note_on_c, 0, 61, 0
2,140572, Note_on_c, 0, 73, 67
2,140613, Note_on_c, 0, 74, 0
2,140630, Note_on_c, 0, 73, 0
2,140700, Note_on_c, 0, 69, 0
2,140701, Note_on_c, 0, 67, 60
2,140705, Note_on_c, 0, 76, 65
2,140706, Note_on_c, 0, 74, 62
2,140745, Note_on_c, 0, 74, 0
2,140828, Note_on_c, 0, 76, 0
2,140831, Note_on_c, 0, 74, 71
2,140965, Note_on_c, 0, 73, 73
2,141005, Note_on_c, 0, 74, 0
2,141094, Note_on_c, 0, 71, 74
2,141099, Note_on_c, 0, 73, 0
2,141222, Note_on_c, 0, 71, 0
2,141225, Note_on_c, 0, 74, 69
2,141226, Note_on_c, 0, 65, 71
2,141232, Note_on_c, 0, 67, 0
2,141235, Note_on_c, 0, 69, 67
2,141357, Note_on_c, 0, 72, 74
2,141373, Note_on_c, 0, 74, 0
2,141405, Note_on_c, 0, 69, 0
2,141448, Note_on_c, 0, 72, 0
2,141473, Note_on_c, 0, 65, 0
2,141479, Note_on_c, 0, 71, 72
2,141488, Note_on_c, 0, 67, 72
2,141525, Note_on_c, 0, 67, 0
2,141531, Note_on_c, 0, 71, 0
2,141612, Note_on_c, 0, 65, 62
2,141659, Note_on_c, 0, 65, 0
2,141726, Note_on_c, 0, 64, 78
2,141733, Note_on_c, 0, 73, 72
2,141738, Note_on_c, 0, 69, 69
2,141750, Note_on_c, 0, 64, 0
2,141785, Note_on_c, 0, 69, 0
2,141844, Note_on_c, 0, 67, 64
2,141893, Note_on_c, 0, 67, 0
2,141900, Note_on_c, 0, 73, 0
2,141984, Note_on_c, 0, 74, 73
2,141989, Note_on_c, 0, 65, 68
2,141991, Note_on_c, 0, 62, 63
2,142028, Note_on_c, 0, 65, 0
2,142098, Note_on_c, 0, 64, 68
2,142136, Note_on_c, 0, 64, 0
2,142224, Note_on_c, 0, 74, 0
2,142248, Note_on_c, 0, 69, 72
2,142254, Note_on_c, 0, 67, 63
2,142284, Note_on_c, 0, 69, 0
2,142286, Note_on_c, 0, 67, 0
2,142364, Note_on_c, 0, 65, 62
2,142398, Note_on_c, 0, 65, 0
2,142504, Note_on_c, 0, 76, 87
2,142512, Note_on_c, 0, 64, 74
2,142592, Note_on_c, 0, 64, 0
2,142613, Note_on_c, 0, 62, 0
2,142641, Note_on_c, 0, 61, 65
2,142754, Note_on_c, 0, 61, 0
2,142758, Note_on_c, 0, 64, 66
2,142762, Note_on_c, 0, 65, 78
2,142790, Note_on_c, 0, 65, 0
2,142868, Note_on_c, 0, 64, 0
2,142879, Note_on_c, 0, 62, 70
2,142999, Note_on_c, 0, 67, 76
2,143002, Note_on_c, 0, 61, 68
2,143011, Note_on_c, 0, 62, 0
2,143048, Note_on_c, 0, 67, 0
2,143052, Note_on_c, 0, 65, 74
2,143111, Note_on_c, 0, 65, 0
2,143111, Note_on_c, 0, 67, 79
2,143127, Note_on_c, 0, 59, 66
2,143138, Note_on_c, 0, 61, 0
2,143246, Note_on_c, 0, 62, 70
2,143258, Note_on_c, 0, 59, 0
2,143366, Note_on_c, 0, 61, 71
2,143374, Note_on_c, 0, 62, 0
2,143504, Note_on_c, 0, 67, 0
2,143513, Note_on_c, 0, 62, 66
2,143513, Note_on_c, 0, 65, 77
2,143555, Note_on_c, 0, 61, 0
2,143616, Note_on_c, 0, 76, 0
2,143626, Note_on_c, 0, 73, 74
2,143762, Note_on_c, 0, 74, 80
2,143766, Note_on_c, 0, 73, 0
2,143879, Note_on_c, 0, 77, 86
2,143909, Note_on_c, 0, 74, 0
2,143962, Note_on_c, 0, 77, 0
2,144004, Note_on_c, 0, 79, 83
2,144005, Note_on_c, 0, 64, 63
2,144043, Note_on_c, 0, 65, 0
2,144059, Note_on_c, 0, 62, 0
2,144133, Note_on_c, 0, 59, 64
2,144235, Note_on_c, 0, 64, 0
2,144283, Note_on_c, 0, 61, 65
2,144283, Note_on_c, 0, 69, 83
2,144320, Note_on_c, 0, 59, 0
2,144405, Note_on_c, 0, 64, 76
2,144418, Note_on_c, 0, 61, 0
2,144524, Note_on_c, 0, 65, 80
2,144526, Note_on_c, 0, 69, 0
2,144538, Note_on_c, 0, 64, 0
2,144600, Note_on_c, 0, 79, 0
2,144638, Note_on_c, 0, 76, 78
2,144640, Note_on_c, 0, 73, 69
2,144692, Note_on_c, 0, 73, 0
2,144700, Note_on_c, 0, 76, 0
2,144730, Control_c, 0, 64, 21
2,144746, Control_c, 0, 64, 45
2,144760, Note_on_c, 0, 74, 68
2,144761, Control_c, 0, 64, 58
2,144769, Note_on_c, 0, 79, 74
2,144772, Note_on_c, 0, 77, 52
2,144775, Control_c, 0, 64, 63
2,144791, Control_c, 0, 64, 67
2,144796, Note_on_c, 0, 77, 0
2,144798, Note_on_c, 0, 79, 0
2,144804, Note_on_c, 0, 74, 0
2,144806, Control_c, 0, 64, 71
2,144820, Control_c, 0, 64, 75
2,144836, Control_c, 0, 64, 80
2,144851, Control_c, 0, 64, 84
2,144867, Control_c, 0, 64, 86
2,144869, Note_on_c, 0, 81, 83
2,144882, Control_c, 0, 64, 87
2,144913, Note_on_c, 0, 81, 0
2,144935, Control_c, 0, 64, 86
2,144951, Control_c, 0, 64, 85
2,144966, Control_c, 0, 64, 84
2,144982, Control_c, 0, 64, 81
2,144998, Control_c, 0, 64, 77
2,145004, Note_on_c, 0, 82, 92
2,145005, Note_on_c, 0, 67, 80
2,145012, Control_c, 0, 64, 70
2,145028, Control_c, 0, 64, 62
2,145037, Note_on_c, 0, 65, 0
2,145043, Control_c, 0, 64, 48
2,145057, Control_c, 0, 64, 33
2,145073, Control_c, 0, 64, 27
2,145088, Control_c, 0, 64, 27
2,145103, Control_c, 0, 64, 25
2,145119, Control_c, 0, 64, 17
2,145133, Control_c, 0, 64, 0
2,145133, Note_on_c, 0, 62, 70
2,145268, Note_on_c, 0, 64, 77
2,145271, Note_on_c, 0, 72, 88
2,145275, Note_on_c, 0, 62, 0
2,145297, Note_on_c, 0, 67, 0
2,145388, Note_on_c, 0, 67, 81
2,145396, Note_on_c, 0, 64, 0
2,145454, Note_on_c, 0, 82, 0
2,145515, Note_on_c, 0, 69, 91
2,145555, Note_on_c, 0, 67, 0
2,145573, Note_on_c, 0, 72, 0
2,145634, Note_on_c, 0, 76, 77
2,145636, Note_on_c, 0, 79, 83
2,145719, Note_on_c, 0, 76, 0
2,145770, Note_on_c, 0, 81, 85
2,145780, Note_on_c, 0, 77, 79
2,145799, Note_on_c, 0, 79, 0
2,145886, Control_c, 0, 64, 33
2,145894, Note_on_c, 0, 84, 90
2,145900, Control_c, 0, 64, 56
2,145900, Note_on_c, 0, 81, 0
2,145916, Control_c, 0, 64, 63
2,145923, Note_on_c, 0, 77, 0
2,145931, Control_c, 0, 64, 67
2,145933, Note_on_c, 0, 84, 0
2,145947, Control_c, 0, 64, 70
2,145962, Control_c, 0, 64, 73
2,145976, Control_c, 0, 64, 75
2,145992, Control_c, 0, 64, 76
2,146034, Note_on_c, 0, 74, 82
2,146038, Control_c, 0, 64, 75
2,146056, Note_on_c, 0, 70, 75
2,146069, Control_c, 0, 64, 75
2,146084, Control_c, 0, 64, 74
2,146098, Control_c, 0, 64, 72
2,146106, Note_on_c, 0, 69, 0
2,146114, Control_c, 0, 64, 71
2,146129, Control_c, 0, 64, 68
2,146145, Control_c, 0, 64, 65
2,146151, Note_on_c, 0, 65, 72
2,146160, Control_c, 0, 64, 61
2,146174, Control_c, 0, 64, 56
2,146190, Control_c, 0, 64, 51
2,146205, Control_c, 0, 64, 50
2,146220, Control_c, 0, 64, 49
2,146232, Note_on_c, 0, 70, 0
2,146236, Control_c, 0, 64, 45
2,146250, Control_c, 0, 64, 38
2,146266, Control_c, 0, 64, 23
2,146279, Note_on_c, 0, 67, 71
2,146281, Control_c, 0, 64, 0
2,146285, Note_on_c, 0, 76, 79
2,146309, Note_on_c, 0, 74, 0
2,146318, Note_on_c, 0, 65, 0
2,146372, Control_c, 0, 64, 13
2,146387, Control_c, 0, 64, 33
2,146397, Note_on_c, 0, 70, 72
2,146397, Note_on_c, 0, 79, 79
2,146398, Note_on_c, 0, 76, 0
2,146402, Control_c, 0, 64, 44
2,146417, Control_c, 0, 64, 51
2,146432, Control_c, 0, 64, 54
2,146443, Note_on_c, 0, 79, 0
2,146444, Note_on_c, 0, 67, 0
2,146447, Control_c, 0, 64, 55
2,146468, Note_on_c, 0, 70, 0
2,146501, Control_c, 0, 64, 54
2,146516, Control_c, 0, 64, 54
2,146531, Control_c, 0, 64, 53
2,146545, Note_on_c, 0, 64, 73
2,146546, Note_on_c, 0, 72, 76
2,146547, Control_c, 0, 64, 52
2,146562, Control_c, 0, 64, 52
2,146568, Note_on_c, 0, 70, 61
2,146577, Control_c, 0, 64, 50
2,146592, Control_c, 0, 64, 48
2,146607, Control_c, 0, 64, 45
2,146609, Note_on_c, 0, 64, 0
2,146623, Control_c, 0, 64, 41
2,146639, Control_c, 0, 64, 38
2,146646, Note_on_c, 0, 70, 0
2,146654, Control_c, 0, 64, 36
2,146670, Control_c, 0, 64, 33
2,146677, Note_on_c, 0, 67, 63
2,146685, Control_c, 0, 64, 32
2,146699, Control_c, 0, 64, 30
2,146715, Control_c, 0, 64, 27
2,146730, Control_c, 0, 64, 24
2,146745, Control_c, 0, 64, 20
2,146760, Control_c, 0, 64, 15
2,146775, Control_c, 0, 64, 0
2,146793, Note_on_c, 0, 65, 59
2,146803, Note_on_c, 0, 69, 70
2,146809, Note_on_c, 0, 72, 0
2,146817, Note_on_c, 0, 67, 0
2,146843, Note_on_c, 0, 65, 0
2,146909, Note_on_c, 0, 69, 0
2,146923, Note_on_c, 0, 72, 75
2,147061, Note_on_c, 0, 58, 59
2,147068, Note_on_c, 0, 62, 60
2,147155, Note_on_c, 0, 72, 0
2,147189, Note_on_c, 0, 65, 63
2,147330, Note_on_c, 0, 67, 64
2,147334, Note_on_c, 0, 65, 0
2,147418, Note_on_c, 0, 62, 0
2,147459, Note_on_c, 0, 70, 70
2,147466, Note_on_c, 0, 67, 0
2,147490, Note_on_c, 0, 58, 0
2,147584, Note_on_c, 0, 70, 0
2,147587, Note_on_c, 0, 64, 61
2,147596, Note_on_c, 0, 60, 58
2,147709, Note_on_c, 0, 70, 71
2,147712, Note_on_c, 0, 64, 0
2,147790, Note_on_c, 0, 70, 0
2,147803, Control_c, 0, 64, 23
2,147819, Control_c, 0, 64, 45
2,147824, Note_on_c, 0, 48, 54
2,147831, Note_on_c, 0, 69, 64
2,147834, Control_c, 0, 64, 56
2,147835, Note_on_c, 0, 65, 57
2,147838, Note_on_c, 0, 60, 0
2,147849, Control_c, 0, 64, 60
2,147865, Control_c, 0, 64, 61
2,147879, Control_c, 0, 64, 60
2,147894, Control_c, 0, 64, 60
2,147916, Note_on_c, 0, 65, 0
2,147924, Control_c, 0, 64, 59
2,147941, Note_on_c, 0, 48, 0
2,147948, Note_on_c, 0, 67, 63
2,147951, Note_on_c, 0, 50, 61
2,147955, Control_c, 0, 64, 59
2,147958, Note_on_c, 0, 69, 0
2,147982, Note_on_c, 0, 67, 0
2,147986, Control_c, 0, 64, 58
2,148008, Control_c, 0, 64, 55
2,148024, Control_c, 0, 64, 53
2,148039, Control_c, 0, 64, 52
2,148048, Note_on_c, 0, 50, 0
2,148054, Control_c, 0, 64, 50
2,148070, Control_c, 0, 64, 49
2,148077, Note_on_c, 0, 48, 57
2,148084, Control_c, 0, 64, 48
2,148085, Note_on_c, 0, 67, 69
2,148100, Control_c, 0, 64, 45
2,148115, Control_c, 0, 64, 42
2,148119, Note_on_c, 0, 67, 0
2,148129, Control_c, 0, 64, 39
2,148135, Note_on_c, 0, 69, 65
2,148145, Control_c, 0, 64, 35
2,148160, Control_c, 0, 64, 30
2,148171, Note_on_c, 0, 69, 0
2,148175, Control_c, 0, 64, 27
2,148191, Control_c, 0, 64, 25
2,148202, Note_on_c, 0, 67, 53
2,148205, Control_c, 0, 64, 24
2,148221, Control_c, 0, 64, 22
2,148226, Note_on_c, 0, 67, 0
2,148231, Note_on_c, 0, 69, 64
2,148236, Control_c, 0, 64, 19
2,148252, Control_c, 0, 64, 17
2,148256, Note_on_c, 0, 69, 0
2,148268, Control_c, 0, 64, 16
2,148283, Control_c, 0, 64, 13
2,148288, Note_on_c, 0, 67, 70
2,148299, Control_c, 0, 64, 12
2,148313, Control_c, 0, 64, 9
2,148331, Note_on_c, 0, 67, 0
2,148341, Note_on_c, 0, 46, 47
2,148344, Control_c, 0, 64, 0
2,148360, Note_on_c, 0, 64, 66
2,148437, Note_on_c, 0, 64, 0
2,148471, Note_on_c, 0, 65, 58
2,148506, Note_on_c, 0, 65, 0
2,148587, Note_on_c, 0, 45, 55
2,148593, Note_on_c, 0, 65, 54
2,148612, Note_on_c, 0, 48, 0
2,148637, Note_on_c, 0, 46, 0
2,148658, Note_on_c, 0, 45, 0
2,148883, Note_on_c, 0, 48, 47
2,148883, Note_on_c, 0, 72, 57
2,148896, Note_on_c, 0, 45, 45
2,148983, Note_on_c, 0, 46, 62
2,148991, Note_on_c, 0, 74, 63
2,148993, Note_on_c, 0, 72, 0
2,148999, Note_on_c, 0, 48, 0
2,149011, Note_on_c, 0, 45, 0
2,149012, Note_on_c, 0, 65, 0
2,149025, Note_on_c, 0, 46, 0
2,149069, Note_on_c, 0, 74, 0
2,149112, Note_on_c, 0, 72, 67
2,149123, Note_on_c, 0, 50, 57
2,149138, Note_on_c, 0, 45, 45
2,149155, Note_on_c, 0, 50, 0
2,149168, Note_on_c, 0, 45, 0
2,149385, Note_on_c, 0, 70, 59
2,149391, Note_on_c, 0, 43, 53
2,149397, Note_on_c, 0, 52, 44
2,149419, Note_on_c, 0, 70, 0
2,149422, Note_on_c, 0, 52, 0
2,149426, Note_on_c, 0, 43, 0
2,149653, Note_on_c, 0, 41, 55
2,149657, Note_on_c, 0, 69, 57
2,149659, Note_on_c, 0, 53, 46
2,149694, Control_c, 0, 64, 42
2,149710, Control_c, 0, 64, 55
2,149710, Note_on_c, 0, 53, 0
2,149725, Control_c, 0, 64, 61
2,149740, Control_c, 0, 64, 64
2,149756, Control_c, 0, 64, 65
2,149783, Note_on_c, 0, 43, 57
2,149800, Note_on_c, 0, 69, 0
2,149801, Control_c, 0, 64, 64
2,149816, Control_c, 0, 64, 64
2,149847, Control_c, 0, 64, 63
2,149862, Control_c, 0, 64, 63
2,149878, Control_c, 0, 64, 62
2,149893, Control_c, 0, 64, 59
2,149898, Note_on_c, 0, 52, 51
2,149909, Control_c, 0, 64, 54
2,149912, Note_on_c, 0, 45, 59
2,149913, Note_on_c, 0, 69, 62
2,149924, Control_c, 0, 64, 50
2,149932, Note_on_c, 0, 41, 0
2,149938, Control_c, 0, 64, 45
2,149940, Note_on_c, 0, 52, 0
2,149941, Note_on_c, 0, 43, 0
2,149954, Control_c, 0, 64, 40
2,149969, Control_c, 0, 64, 34
2,149969, Note_on_c, 0, 69, 0
2,149985, Control_c, 0, 64, 26
2,150000, Control_c, 0, 64, 13
2,150003, Note_on_c, 0, 70, 65
2,150009, Note_on_c, 0, 43, 50
2,150015, Control_c, 0, 64, 0
2,150016, Note_on_c, 0, 45, 0
2,150065, Note_on_c, 0, 70, 0
2,150083, Note_on_c, 0, 43, 0
2,150135, Note_on_c, 0, 69, 70
2,150137, Note_on_c, 0, 41, 72
2,150137, Note_on_c, 0, 53, 70
2,150165, Note_on_c, 0, 41, 0
2,150165, Note_on_c, 0, 53, 0
2,150178, Note_on_c, 0, 69, 0
2,150347, Note_on_c, 0, 39, 61
2,150372, Control_c, 0, 64, 40
2,150387, Control_c, 0, 64, 56
2,150392, Note_on_c, 0, 39, 0
2,150399, Note_on_c, 0, 67, 70
2,150402, Control_c, 0, 64, 65
2,150417, Control_c, 0, 64, 69
2,150425, Note_on_c, 0, 55, 70
2,150433, Control_c, 0, 64, 75
2,150448, Control_c, 0, 64, 81
2,150449, Note_on_c, 0, 67, 0
2,150458, Note_on_c, 0, 55, 0
2,150462, Control_c, 0, 64, 85
2,150478, Control_c, 0, 64, 87
2,150583, Control_c, 0, 64, 87
2,150614, Control_c, 0, 64, 86
2,150630, Control_c, 0, 64, 85
2,150645, Control_c, 0, 64, 82
2,150654, Note_on_c, 0, 66, 70
2,150658, Note_on_c, 0, 50, 62
2,150658, Note_on_c, 0, 57, 63
2,150660, Control_c, 0, 64, 77
2,150676, Control_c, 0, 64, 68
2,150691, Control_c, 0, 64, 61
2,150707, Control_c, 0, 64, 47
2,150722, Control_c, 0, 64, 31
2,150737, Control_c, 0, 64, 25
2,150765, Note_on_c, 0, 67, 72
2,150767, Control_c, 0, 64, 25
2,150767, Note_on_c, 0, 66, 0
2,150770, Note_on_c, 0, 57, 0
2,150771, Note_on_c, 0, 55, 66
2,150782, Control_c, 0, 64, 21
2,150798, Control_c, 0, 64, 0
2,150890, Note_on_c, 0, 69, 78
2,150895, Note_on_c, 0, 54, 69
2,150900, Note_on_c, 0, 67, 0
2,150909, Note_on_c, 0, 55, 0
2,151007, Note_on_c, 0, 67, 80
2,151018, Note_on_c, 0, 55, 67
2,151021, Note_on_c, 0, 69, 0
2,151070, Note_on_c, 0, 54, 0
2,151096, Note_on_c, 0, 67, 0
2,151138, Note_on_c, 0, 55, 0
2,151150, Note_on_c, 0, 57, 78
2,151156, Note_on_c, 0, 66, 82
2,151217, Note_on_c, 0, 57, 0
2,151222, Note_on_c, 0, 66, 0
2,151256, Note_on_c, 0, 58, 77
2,151290, Note_on_c, 0, 50, 0
2,151309, Note_on_c, 0, 58, 0
2,151388, Note_on_c, 0, 63, 80
2,151391, Note_on_c, 0, 60, 81
2,151394, Note_on_c, 0, 48, 78
2,151398, Control_c, 0, 64, 35
2,151412, Note_on_c, 0, 63, 0
2,151413, Control_c, 0, 64, 57
2,151420, Note_on_c, 0, 60, 0
2,151425, Note_on_c, 0, 48, 0
2,151428, Control_c, 0, 64, 65
2,151443, Control_c, 0, 64, 71
2,151450, Note_on_c, 0, 72, 0
2,151458, Control_c, 0, 64, 77
2,151474, Control_c, 0, 64, 78
2,151505, Control_c, 0, 64, 78
2,151535, Control_c, 0, 64, 77
2,151566, Control_c, 0, 64, 78
2,151597, Control_c, 0, 64, 77
2,151611, Control_c, 0, 64, 76
2,151627, Control_c, 0, 64, 74
2,151642, Control_c, 0, 64, 70
2,151649, Note_on_c, 0, 74, 85
2,151656, Note_on_c, 0, 46, 74
2,151657, Control_c, 0, 64, 65
2,151657, Note_on_c, 0, 54, 75
2,151673, Control_c, 0, 64, 59
2,151688, Control_c, 0, 64, 52
2,151697, Note_on_c, 0, 74, 0
2,151702, Control_c, 0, 64, 45
2,151718, Control_c, 0, 64, 42
2,151730, Note_on_c, 0, 54, 0
2,151733, Control_c, 0, 64, 40
2,151749, Control_c, 0, 64, 36
2,151763, Note_on_c, 0, 45, 76
2,151764, Control_c, 0, 64, 29
2,151773, Note_on_c, 0, 46, 0
2,151779, Control_c, 0, 64, 21
2,151795, Control_c, 0, 64, 11
2,151809, Control_c, 0, 64, 0
2,151914, Note_on_c, 0, 48, 67
2,151915, Note_on_c, 0, 45, 0
2,151917, Note_on_c, 0, 57, 82
2,151917, Note_on_c, 0, 78, 90
2,151920, Note_on_c, 0, 69, 87
2,151966, Note_on_c, 0, 69, 0
2,151968, Note_on_c, 0, 78, 0
2,152003, Note_on_c, 0, 57, 0
2,152039, Note_on_c, 0, 46, 74
2,152062, Note_on_c, 0, 48, 0
2,152198, Note_on_c, 0, 75, 92
2,152204, Note_on_c, 0, 46, 0
2,152204, Note_on_c, 0, 55, 72
2,152213, Note_on_c, 0, 45, 56
2,152243, Note_on_c, 0, 45, 0
2,152300, Note_on_c, 0, 55, 0
2,152325, Note_on_c, 0, 43, 80
2,152458, Note_on_c, 0, 46, 67
2,152461, Note_on_c, 0, 72, 84
2,152471, Note_on_c, 0, 54, 70
2,152476, Note_on_c, 0, 43, 0
2,152515, Note_on_c, 0, 72, 0
2,152571, Note_on_c, 0, 45, 80
2,152587, Note_on_c, 0, 46, 0
2,152631, Note_on_c, 0, 54, 0
2,152724, Note_on_c, 0, 70, 77
2,152735, Note_on_c, 0, 45, 0
2,152736, Note_on_c, 0, 43, 75
2,152736, Note_on_c, 0, 55, 79
2,152796, Note_on_c, 0, 75, 0
2,152828, Control_c, 0, 64, 27
2,152843, Control_c, 0, 64, 42
2,152855, Note_on_c, 0, 69, 73
2,152857, Control_c, 0, 64, 49
2,152871, Note_on_c, 0, 70, 0
2,152873, Control_c, 0, 64, 52
2,152883, Note_on_c, 0, 55, 0
2,152933, Control_c, 0, 64, 51
2,152949, Control_c, 0, 64, 50
2,152964, Control_c, 0, 64, 49
2,152965, Note_on_c, 0, 69, 0
2,152971, Note_on_c, 0, 74, 77
2,152979, Control_c, 0, 64, 48
2,152980, Note_on_c, 0, 72, 74
2,152994, Control_c, 0, 64, 45
2,152997, Note_on_c, 0, 53, 76
2,153009, Control_c, 0, 64, 40
2,153025, Control_c, 0, 64, 28
2,153039, Control_c, 0, 64, 0
2,153088, Note_on_c, 0, 70, 87
2,153115, Note_on_c, 0, 72, 0
2,153124, Note_on_c, 0, 74, 0
2,153131, Control_c, 0, 64, 13
2,153146, Control_c, 0, 64, 29
2,153162, Control_c, 0, 64, 31
2,153164, Note_on_c, 0, 70, 0
2,153208, Control_c, 0, 64, 31
2,153216, Note_on_c, 0, 72, 89
2,153220, Note_on_c, 0, 51, 78
2,153222, Control_c, 0, 64, 30
2,153226, Note_on_c, 0, 69, 83
2,153234, Note_on_c, 0, 53, 0
2,153238, Control_c, 0, 64, 30
2,153242, Note_on_c, 0, 43, 0
2,153253, Control_c, 0, 64, 29
2,153269, Control_c, 0, 64, 28
2,153284, Control_c, 0, 64, 28
2,153290, Note_on_c, 0, 69, 0
2,153329, Control_c, 0, 64, 27
2,153339, Note_on_c, 0, 70, 87
2,153345, Note_on_c, 0, 67, 78
2,153360, Control_c, 0, 64, 27
2,153363, Note_on_c, 0, 72, 0
2,153414, Control_c, 0, 64, 26
2,153421, Note_on_c, 0, 70, 0
2,153429, Control_c, 0, 64, 23
2,153444, Control_c, 0, 64, 17
2,153459, Control_c, 0, 64, 0
2,153477, Note_on_c, 0, 74, 86
2,153479, Note_on_c, 0, 51, 0
2,153484, Note_on_c, 0, 50, 72
2,153484, Note_on_c, 0, 70, 71
2,153485, Note_on_c, 0, 42, 81
2,153520, Note_on_c, 0, 67, 0
2,153570, Note_on_c, 0, 70, 0
2,153606, Note_on_c, 0, 72, 87
2,153607, Note_on_c, 0, 69, 87
2,153644, Note_on_c, 0, 74, 0
2,153770, Note_on_c, 0, 42, 0
2,153806, Note_on_c, 0, 70, 87
2,153815, Note_on_c, 0, 67, 73
2,153825, Note_on_c, 0, 43, 83
2,153835, Note_on_c, 0, 72, 0
2,153843, Note_on_c, 0, 69, 0
2,153911, Note_on_c, 0, 50, 0
2,153974, Note_on_c, 0, 70, 0
2,153987, Note_on_c, 0, 72, 89
2,154143, Note_on_c, 0, 55, 81
2,154143, Note_on_c, 0, 74, 83
2,154176, Note_on_c, 0, 72, 0
2,154178, Note_on_c, 0, 55, 0
2,154269, Note_on_c, 0, 72, 85
2,154276, Note_on_c, 0, 57, 80
2,154291, Note_on_c, 0, 74, 0
2,154310, Note_on_c, 0, 57, 0
2,154338, Note_on_c, 0, 67, 0
2,154401, Note_on_c, 0, 70, 87
2,154411, Note_on_c, 0, 55, 78
2,154430, Note_on_c, 0, 72, 0
2,154441, Note_on_c, 0, 55, 0
2,154534, Note_on_c, 0, 69, 87
2,154554, Note_on_c, 0, 70, 0
2,154648, Note_on_c, 0, 69, 0
2,154653, Note_on_c, 0, 53, 85
2,154660, Note_on_c, 0, 67, 81
2,154684, Note_on_c, 0, 53, 0
2,154772, Note_on_c, 0, 67, 0
2,154777, Note_on_c, 0, 65, 75
2,154852, Note_on_c, 0, 65, 0
2,154914, Note_on_c, 0, 67, 80
2,154919, Note_on_c, 0, 52, 81
2,154980, Control_c, 0, 64, 23
2,154996, Control_c, 0, 64, 47
2,155011, Control_c, 0, 64, 57
2,155027, Control_c, 0, 64, 62
2,155042, Control_c, 0, 64, 65
2,155048, Note_on_c, 0, 69, 83
2,155054, Note_on_c, 0, 67, 0
2,155056, Control_c, 0, 64, 67
2,155059, Note_on_c, 0, 52, 0
2,155072, Control_c, 0, 64, 71
2,155087, Control_c, 0, 64, 74
2,155102, Control_c, 0, 64, 76
2,155118, Control_c, 0, 64, 78
2,155133, Control_c, 0, 64, 77
2,155149, Control_c, 0, 64, 75
2,155165, Control_c, 0, 64, 72
2,155174, Note_on_c, 0, 70, 83
2,155181, Control_c, 0, 64, 66
2,155181, Note_on_c, 0, 52, 78
2,155194, Note_on_c, 0, 69, 0
2,155196, Control_c, 0, 64, 60
2,155211, Control_c, 0, 64, 48
2,155227, Control_c, 0, 64, 31
2,155242, Control_c, 0, 64, 21
2,155256, Control_c, 0, 64, 19
2,155272, Control_c, 0, 64, 17
2,155287, Control_c, 0, 64, 0
2,155295, Note_on_c, 0, 69, 84
2,155301, Note_on_c, 0, 53, 83
2,155307, Note_on_c, 0, 52, 0
2,155326, Note_on_c, 0, 70, 0
2,155412, Note_on_c, 0, 69, 0
2,155413, Note_on_c, 0, 67, 85
2,155420, Note_on_c, 0, 52, 81
2,155427, Note_on_c, 0, 53, 0
2,155475, Note_on_c, 0, 52, 0
2,155533, Note_on_c, 0, 65, 83
2,155557, Note_on_c, 0, 67, 0
2,155652, Note_on_c, 0, 50, 77
2,155659, Note_on_c, 0, 64, 83
2,155659, Note_on_c, 0, 65, 0
2,155704, Note_on_c, 0, 50, 0
2,155747, Note_on_c, 0, 64, 0
2,155774, Note_on_c, 0, 62, 85
2,155936, Note_on_c, 0, 49, 70
2,155946, Note_on_c, 0, 76, 92
2,156030, Note_on_c, 0, 62, 0
2,156062, Note_on_c, 0, 50, 76
2,156089, Note_on_c, 0, 49, 0
2,156205, Note_on_c, 0, 69, 79
2,156207, Note_on_c, 0, 52, 74
2,156215, Note_on_c, 0, 50, 0
2,156313, Note_on_c, 0, 67, 78
2,156314, Note_on_c, 0, 52, 0
2,156315, Note_on_c, 0, 50, 75
2,156319, Note_on_c, 0, 69, 0
2,156368, Note_on_c, 0, 67, 0
2,156370, Note_on_c, 0, 50, 0
2,156434, Note_on_c, 0, 69, 90
2,156447, Note_on_c, 0, 49, 81
2,156481, Note_on_c, 0, 69, 0
2,156504, Note_on_c, 0, 49, 0
2,156707, Note_on_c, 0, 47, 75
2,156718, Note_on_c, 0, 71, 85
2,156756, Note_on_c, 0, 71, 0
2,156769, Note_on_c, 0, 47, 0
2,156829, Note_on_c, 0, 76, 0
2,156970, Note_on_c, 0, 73, 79
2,156980, Note_on_c, 0, 57, 81
2,157000, Note_on_c, 0, 74, 85
2,157009, Note_on_c, 0, 73, 0
2,157034, Note_on_c, 0, 43, 0
2,157049, Control_c, 0, 64, 42
2,157053, Note_on_c, 0, 73, 79
2,157065, Control_c, 0, 64, 56
2,157076, Note_on_c, 0, 57, 0
2,157080, Control_c, 0, 64, 63
2,157080, Note_on_c, 0, 74, 0
2,157095, Control_c, 0, 64, 66
2,157111, Control_c, 0, 64, 69
2,157126, Control_c, 0, 64, 71
2,157141, Control_c, 0, 64, 73
2,157151, Note_on_c, 0, 73, 0
2,157156, Control_c, 0, 64, 75
2,157171, Control_c, 0, 64, 77
2,157186, Control_c, 0, 64, 80
2,157201, Control_c, 0, 64, 82
2,157224, Control_c, 0, 64, 83
2,157239, Control_c, 0, 64, 82
2,157254, Control_c, 0, 64, 80
2,157261, Note_on_c, 0, 61, 74
2,157262, Note_on_c, 0, 73, 79
2,157265, Note_on_c, 0, 76, 83
2,157270, Note_on_c, 0, 52, 55
2,157271, Control_c, 0, 64, 77
2,157286, Control_c, 0, 64, 73
2,157301, Control_c, 0, 64, 67
2,157316, Control_c, 0, 64, 60
2,157329, Note_on_c, 0, 73, 0
2,157331, Control_c, 0, 64, 46
2,157347, Control_c, 0, 64, 26
2,157362, Control_c, 0, 64, 11
2,157366, Note_on_c, 0, 52, 0
2,157371, Note_on_c, 0, 71, 83
2,157376, Control_c, 0, 64, 9
2,157379, Note_on_c, 0, 74, 81
2,157387, Note_on_c, 0, 53, 67
2,157392, Control_c, 0, 64, 0
2,157395, Note_on_c, 0, 61, 0
2,157410, Note_on_c, 0, 76, 0
2,157443, Note_on_c, 0, 71, 0
2,157476, Note_on_c, 0, 74, 0
2,157501, Note_on_c, 0, 55, 81
2,157507, Note_on_c, 0, 73, 87
2,157508, Note_on_c, 0, 76, 88
2,157534, Note_on_c, 0, 53, 0
2,157553, Note_on_c, 0, 73, 0
2,157574, Note_on_c, 0, 76, 0
2,157612, Note_on_c, 0, 53, 82
2,157612, Note_on_c, 0, 55, 0
2,157738, Note_on_c, 0, 52, 85
2,157738, Note_on_c, 0, 53, 0
2,157741, Note_on_c, 0, 69, 94
2,157750, Note_on_c, 0, 77, 85
2,157751, Note_on_c, 0, 74, 73
2,157790, Note_on_c, 0, 74, 0
2,157802, Note_on_c, 0, 69, 0
2,157835, Note_on_c, 0, 77, 0
2,157865, Note_on_c, 0, 50, 86
2,157891, Note_on_c, 0, 52, 0
2,158029, Note_on_c, 0, 49, 77
2,158030, Note_on_c, 0, 70, 92
2,158033, Note_on_c, 0, 76, 74
2,158035, Note_on_c, 0, 79, 79
2,158045, Note_on_c, 0, 50, 0
2,158114, Control_c, 0, 64, 22
2,158129, Control_c, 0, 64, 51
2,158143, Control_c, 0, 64, 61
2,158159, Control_c, 0, 64, 65
2,158160, Note_on_c, 0, 70, 0
2,158164, Note_on_c, 0, 74, 83
2,158170, Note_on_c, 0, 79, 0
2,158174, Control_c, 0, 64, 70
2,158188, Note_on_c, 0, 49, 0
2,158190, Control_c, 0, 64, 77
2,158205, Control_c, 0, 64, 84
2,158219, Control_c, 0, 64, 90
2,158222, Note_on_c, 0, 76, 0
2,158235, Control_c, 0, 64, 94
2,158250, Control_c, 0, 64, 94
2,158274, Note_on_c, 0, 74, 0
2,158280, Control_c, 0, 64, 93
2,158293, Note_on_c, 0, 73, 85
2,158295, Control_c, 0, 64, 92
2,158298, Note_on_c, 0, 79, 73
2,158311, Control_c, 0, 64, 90
2,158326, Control_c, 0, 64, 88
2,158340, Control_c, 0, 64, 86
2,158354, Note_on_c, 0, 73, 0
2,158356, Control_c, 0, 64, 81
2,158368, Note_on_c, 0, 79, 0
2,158371, Control_c, 0, 64, 75
2,158387, Control_c, 0, 64, 68
2,158402, Control_c, 0, 64, 60
2,158413, Note_on_c, 0, 77, 84
2,158414, Note_on_c, 0, 74, 84
2,158416, Control_c, 0, 64, 42
2,158419, Note_on_c, 0, 69, 74
2,158432, Control_c, 0, 64, 24
2,158447, Control_c, 0, 64, 15
2,158462, Control_c, 0, 64, 0
2,158480, Note_on_c, 0, 74, 0
2,158513, Note_on_c, 0, 77, 0
2,158546, Note_on_c, 0, 76, 83
2,158549, Note_on_c, 0, 67, 80
2,158552, Note_on_c, 0, 79, 89
2,158556, Note_on_c, 0, 69, 0
2,158588, Note_on_c, 0, 76, 0
2,158606, Note_on_c, 0, 79, 0
2,158676, Note_on_c, 0, 65, 78
2,158680, Note_on_c, 0, 67, 0
2,158786, Note_on_c, 0, 65, 0
2,158793, Note_on_c, 0, 64, 73
2,158811, Note_on_c, 0, 77, 89
2,158814, Note_on_c, 0, 81, 86
2,158859, Note_on_c, 0, 77, 0
2,158876, Note_on_c, 0, 81, 0
2,158912, Note_on_c, 0, 64, 0
2,158928, Note_on_c, 0, 62, 70
2,158964, Note_on_c, 0, 61, 69
2,159000, Note_on_c, 0, 62, 0
2,159067, Note_on_c, 0, 82, 88
2,159069, Note_on_c, 0, 67, 70
2,159207, Note_on_c, 0, 81, 78
2,159238, Note_on_c, 0, 82, 0
2,159343, Note_on_c, 0, 79, 87
2,159347, Note_on_c, 0, 64, 65
2,159364, Note_on_c, 0, 67, 0
2,159368, Note_on_c, 0, 81, 0
2,159396, Note_on_c, 0, 64, 0
2,159407, Note_on_c, 0, 61, 0
2,159469, Note_on_c, 0, 79, 0
2,159469, Note_on_c, 0, 81, 85
2,159602, Note_on_c, 0, 82, 82
2,159605, Note_on_c, 0, 61, 71
2,159640, Note_on_c, 0, 81, 0
2,159655, Note_on_c, 0, 61, 0
2,159715, Note_on_c, 0, 79, 75
2,159725, Note_on_c, 0, 82, 0
2,159764, Note_on_c, 0, 79, 0
2,159842, Note_on_c, 0, 61, 63
2,159845, Note_on_c, 0, 81, 78
2,159849, Note_on_c, 0, 57, 63
2,159854, Note_on_c, 0, 69, 66
2,159869, Note_on_c, 0, 61, 0
2,159878, Note_on_c, 0, 57, 0
2,159897, Note_on_c, 0, 69, 0
2,159970, Note_on_c, 0, 76, 80
2,159976, Note_on_c, 0, 81, 0
2,160020, Note_on_c, 0, 76, 0
2,160100, Note_on_c, 0, 77, 89
2,160105, Note_on_c, 0, 50, 71
2,160111, Note_on_c, 0, 69, 76
2,160114, Note_on_c, 0, 62, 74
2,160120, Control_c, 0, 64, 45
2,160135, Control_c, 0, 64, 60
2,160151, Control_c, 0, 64, 66
2,160162, Note_on_c, 0, 50, 0
2,160165, Control_c, 0, 64, 71
2,160180, Control_c, 0, 64, 78
2,160185, Note_on_c, 0, 62, 0
2,160196, Control_c, 0, 64, 86
2,160211, Control_c, 0, 64, 95
2,160227, Control_c, 0, 64, 107
2,160230, Note_on_c, 0, 76, 81
2,160233, Note_on_c, 0, 77, 0
2,160242, Control_c, 0, 64, 118
2,160257, Control_c, 0, 64, 127
2,160323, Control_c, 0, 64, 110
2,160338, Control_c, 0, 64, 92
2,160354, Control_c, 0, 64, 74
2,160368, Control_c, 0, 64, 60
2,160370, Note_on_c, 0, 74, 88
2,160371, Note_on_c, 0, 65, 84
2,160383, Control_c, 0, 64, 19
2,160399, Control_c, 0, 64, 0
2,160404, Note_on_c, 0, 76, 0
2,160420, Note_on_c, 0, 65, 0
2,160437, Note_on_c, 0, 69, 0
2,160499, Note_on_c, 0, 76, 92
2,160523, Note_on_c, 0, 74, 0
2,160630, Note_on_c, 0, 62, 83
2,160632, Note_on_c, 0, 77, 92
2,160643, Note_on_c, 0, 69, 77
2,160679, Note_on_c, 0, 62, 0
2,160692, Note_on_c, 0, 69, 0
2,160699, Note_on_c, 0, 76, 0
2,160756, Note_on_c, 0, 74, 86
2,160770, Note_on_c, 0, 77, 0
2,160879, Note_on_c, 0, 57, 76
2,160888, Note_on_c, 0, 76, 88
2,160898, Note_on_c, 0, 67, 74
2,160917, Note_on_c, 0, 57, 0
2,160928, Note_on_c, 0, 74, 0
2,160977, Note_on_c, 0, 67, 0
2,161001, Note_on_c, 0, 73, 89
2,161010, Note_on_c, 0, 76, 0
2,161072, Note_on_c, 0, 73, 0
2,161154, Note_on_c, 0, 58, 82
2,161159, Note_on_c, 0, 74, 91
2,161162, Note_on_c, 0, 65, 82
2,161163, Note_on_c, 0, 50, 74
2,161198, Control_c, 0, 64, 31
2,161212, Control_c, 0, 64, 52
2,161215, Note_on_c, 0, 65, 0
2,161227, Control_c, 0, 64, 61
2,161243, Control_c, 0, 64, 66
2,161258, Control_c, 0, 64, 71
2,161274, Control_c, 0, 64, 79
2,161289, Control_c, 0, 64, 89
2,161303, Control_c, 0, 64, 101
2,161306, Note_on_c, 0, 72, 87
2,161319, Control_c, 0, 64, 127
2,161337, Note_on_c, 0, 74, 0
2,161389, Note_on_c, 0, 58, 0
2,161405, Note_on_c, 0, 50, 0
2,161457, Control_c, 0, 64, 104
2,161461, Note_on_c, 0, 53, 90
2,161461, Note_on_c, 0, 62, 81
2,161462, Note_on_c, 0, 70, 85
2,161473, Control_c, 0, 64, 80
2,161488, Control_c, 0, 64, 66
2,161496, Note_on_c, 0, 72, 0
2,161503, Control_c, 0, 64, 50
2,161509, Note_on_c, 0, 53, 0
2,161518, Control_c, 0, 64, 0
2,161550, Note_on_c, 0, 62, 0
2,161601, Note_on_c, 0, 70, 0
2,161603, Note_on_c, 0, 72, 91
2,161752, Note_on_c, 0, 74, 94
2,161757, Note_on_c, 0, 58, 93
2,161764, Note_on_c, 0, 65, 78
2,161807, Note_on_c, 0, 58, 0
2,161876, Note_on_c, 0, 72, 0
2,161921, Note_on_c, 0, 70, 88
2,161942, Note_on_c, 0, 65, 0
2,161948, Note_on_c, 0, 74, 0
2,162073, Note_on_c, 0, 62, 74
2,162084, Note_on_c, 0, 72, 94
2,162094, Note_on_c, 0, 65, 80
2,162097, Note_on_c, 0, 70, 0
2,162101, Note_on_c, 0, 62, 0
2,162220, Note_on_c, 0, 65, 0
2,162224, Note_on_c, 0, 69, 88
2,162239, Note_on_c, 0, 72, 0
2,162264, Note_on_c, 0, 69, 0
2,162300, Note_on_c, 0, 50, 70
2,162348, Note_on_c, 0, 59, 77
2,162408, Control_c, 0, 64, 43
2,162414, Note_on_c, 0, 64, 80
2,162414, Note_on_c, 0, 71, 75
2,162422, Control_c, 0, 64, 61
2,162438, Control_c, 0, 64, 67
2,162453, Control_c, 0, 64, 75
2,162468, Control_c, 0, 64, 90
2,162473, Note_on_c, 0, 76, 81
2,162484, Control_c, 0, 64, 127
2,162530, Note_on_c, 0, 80, 93
2,162545, Control_c, 0, 64, 123
2,162560, Control_c, 0, 64, 91
2,162575, Control_c, 0, 64, 75
2,162576, Note_on_c, 0, 76, 0
2,162598, Control_c, 0, 64, 65
2,162612, Control_c, 0, 64, 56
2,162627, Control_c, 0, 64, 44
2,162643, Control_c, 0, 64, 39
2,162658, Control_c, 0, 64, 38
2,162674, Control_c, 0, 64, 34
2,162689, Control_c, 0, 64, 24
2,162704, Control_c, 0, 64, 0
2,162746, Note_on_c, 0, 81, 87
2,162759, Note_on_c, 0, 80, 0
2,162858, Note_on_c, 0, 80, 87
2,162863, Note_on_c, 0, 81, 0
2,162933, Note_on_c, 0, 80, 0
2,162936, Note_on_c, 0, 81, 81
2,163006, Note_on_c, 0, 80, 79
2,163007, Note_on_c, 0, 81, 0
2,163039, Control_c, 0, 64, 9
2,163053, Control_c, 0, 64, 11
2,163060, Note_on_c, 0, 80, 0
2,163064, Note_on_c, 0, 81, 75
2,163068, Control_c, 0, 64, 13
2,163084, Control_c, 0, 64, 17
2,163099, Control_c, 0, 64, 24
2,163115, Control_c, 0, 64, 27
2,163129, Control_c, 0, 64, 29
2,163132, Note_on_c, 0, 80, 72
2,163133, Note_on_c, 0, 71, 0
2,163133, Note_on_c, 0, 71, 4
2,163137, Note_on_c, 0, 81, 0
2,163144, Control_c, 0, 64, 30
2,163160, Control_c, 0, 64, 32
2,163175, Control_c, 0, 64, 34
2,163178, Note_on_c, 0, 80, 0
2,163187, Note_on_c, 0, 81, 68
2,163190, Control_c, 0, 64, 37
2,163206, Control_c, 0, 64, 40
2,163220, Control_c, 0, 64, 41
2,163245, Note_on_c, 0, 80, 94
2,163251, Control_c, 0, 64, 40
2,163266, Control_c, 0, 64, 38
2,163280, Note_on_c, 0, 81, 0
2,163282, Control_c, 0, 64, 35
2,163297, Control_c, 0, 64, 31
2,163313, Control_c, 0, 64, 20
2,163327, Control_c, 0, 64, 0
2,163652, Note_on_c, 0, 78, 93
2,163681, Note_on_c, 0, 80, 0
2,163805, Control_c, 0, 64, 48
2,163822, Control_c, 0, 64, 61
2,163838, Control_c, 0, 64, 67
2,163852, Control_c, 0, 64, 77
2,163865, Note_on_c, 0, 78, 0
2,163867, Control_c, 0, 64, 90
2,163883, Control_c, 0, 64, 123
2,163897, Control_c, 0, 64, 127
2,164162, Note_on_c, 0, 80, 79
2,164213, Note_on_c, 0, 78, 83
2,164213, Note_on_c, 0, 80, 0
2,164254, Control_c, 0, 64, 101
2,164268, Note_on_c, 0, 80, 91
2,164269, Control_c, 0, 64, 81
2,164285, Control_c, 0, 64, 67
2,164300, Control_c, 0, 64, 54
2,164306, Note_on_c, 0, 78, 0
2,164316, Control_c, 0, 64, 21
2,164331, Control_c, 0, 64, 0
2,164977, Control_c, 0, 64, 11
2,164993, Control_c, 0, 64, 33
2,165008, Control_c, 0, 64, 49
2,165022, Control_c, 0, 64, 56
2,165038, Control_c, 0, 64, 61
2,165053, Control_c, 0, 64, 63
2,165068, Control_c, 0, 64, 65
2,165083, Control_c, 0, 64, 68
2,165098, Control_c, 0, 64, 72
2,165114, Control_c, 0, 64, 77
2,165129, Control_c, 0, 64, 85
2,165144, Control_c, 0, 64, 95
2,165159, Control_c, 0, 64, 115
2,165174, Control_c, 0, 64, 127
2,165277, Note_on_c, 0, 64, 0
2,165306, Note_on_c, 0, 71, 0
2,165310, Note_on_c, 0, 59, 0
2,165318, Note_on_c, 0, 50, 0
2,165325, Note_on_c, 0, 80, 0
2,165327, Control_c, 0, 64, 99
2,165342, Control_c, 0, 64, 80
2,165358, Control_c, 0, 64, 67
2,165373, Control_c, 0, 64, 53
2,165388, Control_c, 0, 64, 17
2,165404, Control_c, 0, 64, 0
2,165688, Note_on_c, 0, 81, 87
2,165695, Note_on_c, 0, 57, 68
2,165702, Note_on_c, 0, 60, 75
2,165709, Note_on_c, 0, 51, 78
2,165746, Control_c, 0, 64, 35
2,165762, Control_c, 0, 64, 54
2,165777, Control_c, 0, 64, 64
2,165792, Control_c, 0, 64, 69
2,165807, Control_c, 0, 64, 75
2,165822, Control_c, 0, 64, 82
2,165838, Control_c, 0, 64, 88
2,165853, Control_c, 0, 64, 94
2,165867, Control_c, 0, 64, 95
2,165883, Control_c, 0, 64, 94
2,165898, Control_c, 0, 64, 93
2,165914, Control_c, 0, 64, 91
2,165928, Control_c, 0, 64, 86
2,165943, Control_c, 0, 64, 77
2,165959, Control_c, 0, 64, 63
2,165962, Note_on_c, 0, 69, 80
2,165974, Control_c, 0, 64, 36
2,165989, Control_c, 0, 64, 0
2,165994, Note_on_c, 0, 69, 0
2,166074, Note_on_c, 0, 68, 85
2,166129, Note_on_c, 0, 68, 0
2,166176, Note_on_c, 0, 60, 0
2,166197, Note_on_c, 0, 57, 0
2,166197, Note_on_c, 0, 69, 86
2,166206, Note_on_c, 0, 51, 0
2,166238, Note_on_c, 0, 69, 0
2,166480, Note_on_c, 0, 71, 89
2,166524, Note_on_c, 0, 71, 0
2,166729, Control_c, 0, 64, 18
2,166745, Control_c, 0, 64, 47
2,166746, Note_on_c, 0, 72, 86
2,166749, Note_on_c, 0, 60, 71
2,166751, Note_on_c, 0, 81, 0
2,166753, Note_on_c, 0, 52, 66
2,166754, Note_on_c, 0, 57, 67
2,166760, Control_c, 0, 64, 59
2,166774, Control_c, 0, 64, 65
2,166789, Control_c, 0, 64, 70
2,166804, Control_c, 0, 64, 77
2,166814, Note_on_c, 0, 72, 0
2,166819, Control_c, 0, 64, 92
2,166835, Control_c, 0, 64, 127
2,167001, Note_on_c, 0, 76, 82
2,167002, Note_on_c, 0, 72, 81
2,167017, Control_c, 0, 64, 89
2,167033, Control_c, 0, 64, 73
2,167047, Control_c, 0, 64, 62
2,167054, Note_on_c, 0, 72, 0
2,167062, Control_c, 0, 64, 43
2,167063, Note_on_c, 0, 76, 0
2,167078, Control_c, 0, 64, 0
2,167115, Note_on_c, 0, 74, 81
2,167124, Note_on_c, 0, 71, 75
2,167157, Note_on_c, 0, 71, 0
2,167189, Note_on_c, 0, 52, 0
2,167199, Note_on_c, 0, 74, 0
2,167208, Note_on_c, 0, 60, 0
2,167231, Note_on_c, 0, 57, 0
2,167243, Note_on_c, 0, 72, 85
2,167248, Note_on_c, 0, 76, 92
2,167276, Note_on_c, 0, 72, 0
2,167293, Note_on_c, 0, 76, 0
2,167502, Note_on_c, 0, 78, 89
2,167507, Note_on_c, 0, 74, 79
2,167534, Note_on_c, 0, 74, 0
2,167556, Note_on_c, 0, 78, 0
2,167640, Note_on_c, 0, 52, 66
2,167689, Note_on_c, 0, 59, 69
2,167752, Note_on_c, 0, 80, 89
2,167754, Note_on_c, 0, 76, 76
2,167757, Note_on_c, 0, 62, 74
2,167843, Control_c, 0, 64, 41
2,167858, Control_c, 0, 64, 56
2,167874, Control_c, 0, 64, 63
2,167880, Note_on_c, 0, 74, 65
2,167888, Control_c, 0, 64, 65
2,167903, Control_c, 0, 64, 66
2,167909, Note_on_c, 0, 80, 0
2,167920, Control_c, 0, 64, 66
2,167935, Control_c, 0, 64, 67
2,167947, Note_on_c, 0, 74, 0
2,167971, Note_on_c, 0, 76, 0
2,167972, Control_c, 0, 64, 66
2,167987, Control_c, 0, 64, 66
2,168018, Control_c, 0, 64, 65
2,168021, Note_on_c, 0, 80, 81
2,168022, Note_on_c, 0, 72, 79
2,168034, Control_c, 0, 64, 64
2,168048, Control_c, 0, 64, 61
2,168063, Control_c, 0, 64, 52
2,168079, Control_c, 0, 64, 40
2,168079, Note_on_c, 0, 72, 0
2,168094, Control_c, 0, 64, 23
2,168109, Control_c, 0, 64, 0
2,168128, Note_on_c, 0, 74, 76
2,168135, Note_on_c, 0, 78, 80
2,168137, Note_on_c, 0, 80, 0
2,168174, Note_on_c, 0, 74, 0
2,168190, Note_on_c, 0, 52, 0
2,168213, Note_on_c, 0, 62, 0
2,168234, Note_on_c, 0, 59, 0
2,168251, Note_on_c, 0, 80, 89
2,168262, Note_on_c, 0, 76, 80
2,168269, Note_on_c, 0, 78, 0
2,168288, Note_on_c, 0, 76, 0
2,168302, Note_on_c, 0, 80, 0
2,168522, Note_on_c, 0, 77, 72
2,168522, Note_on_c, 0, 81, 90
2,168549, Note_on_c, 0, 77, 0
2,168567, Note_on_c, 0, 81, 0
2,168783, Note_on_c, 0, 83, 85
2,168788, Note_on_c, 0, 68, 77
2,168851, Note_on_c, 0, 68, 0
2,168920, Note_on_c, 0, 81, 79
2,168941, Note_on_c, 0, 83, 0
2,169049, Note_on_c, 0, 59, 66
2,169052, Note_on_c, 0, 64, 71
2,169057, Note_on_c, 0, 81, 0
2,169058, Note_on_c, 0, 80, 83
2,169148, Note_on_c, 0, 80, 0
2,169166, Note_on_c, 0, 59, 0
2,169171, Note_on_c, 0, 60, 73
2,169182, Note_on_c, 0, 81, 87
2,169259, Note_on_c, 0, 64, 0
2,169282, Note_on_c, 0, 81, 0
2,169304, Note_on_c, 0, 62, 79
2,169317, Note_on_c, 0, 64, 31
2,169321, Note_on_c, 0, 83, 96
2,169332, Note_on_c, 0, 60, 0
2,169353, Note_on_c, 0, 64, 0
2,169425, Note_on_c, 0, 83, 0
2,169437, Note_on_c, 0, 64, 83
2,169449, Note_on_c, 0, 62, 0
2,169492, Note_on_c, 0, 64, 0
2,169572, Note_on_c, 0, 84, 99
2,169603, Note_on_c, 0, 69, 84
2,169611, Note_on_c, 0, 66, 84
2,169645, Note_on_c, 0, 84, 0
2,169729, Note_on_c, 0, 68, 94
2,169738, Note_on_c, 0, 69, 0
2,169758, Note_on_c, 0, 66, 0
2,169769, Note_on_c, 0, 68, 0
2,169928, Note_on_c, 0, 54, 86
2,169934, Control_c, 0, 64, 24
2,169949, Control_c, 0, 64, 55
2,169965, Control_c, 0, 64, 68
2,169980, Control_c, 0, 64, 82
2,169990, Note_on_c, 0, 75, 92
2,169995, Control_c, 0, 64, 127
2,170048, Note_on_c, 0, 71, 84
2,170100, Note_on_c, 0, 69, 77
2,170117, Control_c, 0, 64, 100
2,170132, Control_c, 0, 64, 78
2,170136, Note_on_c, 0, 57, 86
2,170146, Control_c, 0, 64, 64
2,170147, Note_on_c, 0, 66, 84
2,170162, Control_c, 0, 64, 40
2,170177, Control_c, 0, 64, 0
2,170504, Control_c, 0, 64, 23
2,170520, Control_c, 0, 64, 42
2,170535, Control_c, 0, 64, 52
2,170550, Control_c, 0, 64, 60
2,170566, Control_c, 0, 64, 63
2,170580, Control_c, 0, 64, 66
2,170596, Control_c, 0, 64, 69
2,170611, Control_c, 0, 64, 75
2,170625, Control_c, 0, 64, 83
2,170641, Control_c, 0, 64, 105
2,170656, Control_c, 0, 64, 127
2,170742, Note_on_c, 0, 57, 0
2,170828, Note_on_c, 0, 69, 0
2,170834, Note_on_c, 0, 54, 0
2,170837, Note_on_c, 0, 71, 0
2,170839, Control_c, 0, 64, 94
2,170840, Note_on_c, 0, 66, 0
2,170854, Control_c, 0, 64, 75
2,170861, Note_on_c, 0, 75, 0
2,170869, Control_c, 0, 64, 63
2,170885, Control_c, 0, 64, 42
2,170900, Control_c, 0, 64, 0
2,171120, Control_c, 0, 64, 28
2,171135, Control_c, 0, 64, 54
2,171138, Note_on_c, 0, 76, 85
2,171139, Note_on_c, 0, 64, 83
2,171139, Note_on_c, 0, 71, 73
2,171145, Note_on_c, 0, 56, 86
2,171146, Note_on_c, 0, 59, 79
2,171150, Control_c, 0, 64, 65
2,171166, Control_c, 0, 64, 73
2,171181, Control_c, 0, 64, 87
2,171198, Control_c, 0, 64, 94
2,171204, Note_on_c, 0, 59, 0
2,171204, Note_on_c, 0, 71, 0
2,171209, Note_on_c, 0, 56, 0
2,171213, Control_c, 0, 64, 86
2,171221, Note_on_c, 0, 64, 0
2,171224, Note_on_c, 0, 76, 0
2,171227, Control_c, 0, 64, 76
2,171243, Control_c, 0, 64, 67
2,171258, Control_c, 0, 64, 56
2,171274, Control_c, 0, 64, 32
2,171289, Control_c, 0, 64, 0
2,171425, Control_c, 0, 64, 40
2,171429, Note_on_c, 0, 72, 87
2,171431, Note_on_c, 0, 57, 84
2,171431, Note_on_c, 0, 60, 77
2,171431, Note_on_c, 0, 69, 77
2,171437, Note_on_c, 0, 64, 81
2,171441, Control_c, 0, 64, 57
2,171456, Control_c, 0, 64, 65
2,171469, Note_on_c, 0, 60, 0
2,171470, Control_c, 0, 64, 71
2,171483, Note_on_c, 0, 69, 0
2,171486, Control_c, 0, 64, 78
2,171486, Note_on_c, 0, 64, 0
2,171488, Note_on_c, 0, 57, 0
2,171501, Control_c, 0, 64, 82
2,171517, Control_c, 0, 64, 83
2,171528, Note_on_c, 0, 72, 0
2,171532, Control_c, 0, 64, 82
2,171546, Control_c, 0, 64, 80
2,171562, Control_c, 0, 64, 77
2,171577, Control_c, 0, 64, 72
2,171593, Control_c, 0, 64, 65
2,171608, Control_c, 0, 64, 53
2,171622, Control_c, 0, 64, 0
2,171718, Note_on_c, 0, 71, 88
2,171724, Note_on_c, 0, 65, 76
2,171725, Note_on_c, 0, 62, 87
2,171726, Note_on_c, 0, 50, 84
2,171760, Control_c, 0, 64, 39
2,171775, Control_c, 0, 64, 54
2,171787, Note_on_c, 0, 65, 0
2,171790, Control_c, 0, 64, 60
2,171813, Control_c, 0, 64, 64
2,171828, Control_c, 0, 64, 68
2,171833, Note_on_c, 0, 62, 0
2,171834, Note_on_c, 0, 50, 0
2,171843, Control_c, 0, 64, 76
2,171858, Control_c, 0, 64, 90
2,171868, Note_on_c, 0, 69, 89
2,171874, Control_c, 0, 64, 111
2,171890, Control_c, 0, 64, 127
2,171936, Control_c, 0, 64, 104
2,171938, Note_on_c, 0, 71, 0
2,171952, Control_c, 0, 64, 78
2,171965, Note_on_c, 0, 69, 0
2,171967, Control_c, 0, 64, 62
2,171982, Control_c, 0, 64, 20
2,171998, Control_c, 0, 64, 0
2,172015, Note_on_c, 0, 72, 93
2,172028, Note_on_c, 0, 64, 81
2,172031, Note_on_c, 0, 60, 81
2,172032, Note_on_c, 0, 52, 89
2,172033, Note_on_c, 0, 69, 57
2,172112, Note_on_c, 0, 72, 0
2,172151, Note_on_c, 0, 69, 0
2,172165, Note_on_c, 0, 71, 90
2,172207, Note_on_c, 0, 64, 0
2,172326, Note_on_c, 0, 60, 0
2,172328, Note_on_c, 0, 69, 90
2,172331, Note_on_c, 0, 59, 85
2,172334, Note_on_c, 0, 64, 80
2,172336, Note_on_c, 0, 62, 80
2,172356, Note_on_c, 0, 71, 0
2,172386, Note_on_c, 0, 59, 0
2,172394, Note_on_c, 0, 52, 0
2,172402, Note_on_c, 0, 64, 0
2,172405, Note_on_c, 0, 62, 0
2,172487, Note_on_c, 0, 68, 94
2,172499, Note_on_c, 0, 69, 0
2,172556, Note_on_c, 0, 68, 0
2,172675, Control_c, 0, 64, 24
2,172689, Control_c, 0, 64, 53
2,172704, Control_c, 0, 64, 65
2,172720, Control_c, 0, 64, 77
2,172734, Control_c, 0, 64, 98
2,172746, Note_on_c, 0, 69, 95
2,172750, Control_c, 0, 64, 109
2,172753, Note_on_c, 0, 64, 74
2,172756, Note_on_c, 0, 61, 86
2,172765, Control_c, 0, 64, 95
2,172774, Note_on_c, 0, 57, 89
2,172777, Note_on_c, 0, 45, 85
2,172780, Control_c, 0, 64, 81
2,172796, Control_c, 0, 64, 68
2,172811, Control_c, 0, 64, 54
2,172827, Control_c, 0, 64, 0
2,172903, Control_c, 0, 64, 34
2,172918, Control_c, 0, 64, 52
2,172934, Control_c, 0, 64, 63
2,172950, Control_c, 0, 64, 68
2,172964, Control_c, 0, 64, 76
2,172979, Control_c, 0, 64, 91
2,172995, Control_c, 0, 64, 127
2,173028, Note_on_c, 0, 57, 0
2,173120, Note_on_c, 0, 61, 0
2,173132, Control_c, 0, 64, 83
2,173148, Control_c, 0, 64, 67
2,173150, Note_on_c, 0, 57, 81
2,173162, Control_c, 0, 64, 52
2,173177, Control_c, 0, 64, 17
2,173193, Control_c, 0, 64, 0
2,173260, Note_on_c, 0, 58, 86
2,173279, Note_on_c, 0, 57, 0
2,173330, Note_on_c, 0, 69, 0
2,173352, Note_on_c, 0, 64, 0
2,173355, Note_on_c, 0, 58, 0
2,173402, Note_on_c, 0, 57, 87
2,173449, Note_on_c, 0, 57, 0
2,173519, Control_c, 0, 66, 127
2,173684, Note_on_c, 0, 45, 0
2,173684, Note_on_c, 0, 64, 80
2,173688, Note_on_c, 0, 55, 78
2,173723, Note_on_c, 0, 55, 0
2,173727, Note_on_c, 0, 64, 0
2,173899, Control_c, 0, 64, 34
2,173915, Control_c, 0, 64, 54
2,173929, Control_c, 0, 64, 63
2,173944, Control_c, 0, 64, 70
2,173960, Control_c, 0, 64, 84
2,173968, Note_on_c, 0, 53, 79
2,173968, Note_on_c, 0, 57, 75
2,173975, Control_c, 0, 64, 127
2,173996, Note_on_c, 0, 53, 0
2,174022, Note_on_c, 0, 57, 0
2,174210, Control_c, 0, 64, 119
2,174226, Control_c, 0, 64, 93
2,174241, Control_c, 0, 64, 77
2,174256, Control_c, 0, 64, 65
2,174258, Note_on_c, 0, 53, 76
2,174258, Note_on_c, 0, 69, 80
2,174272, Control_c, 0, 64, 37
2,174287, Control_c, 0, 64, 0
2,174364, Note_on_c, 0, 53, 0
2,174364, Note_on_c, 0, 70, 81
2,174373, Note_on_c, 0, 55, 81
2,174384, Note_on_c, 0, 69, 0
2,174418, Note_on_c, 0, 55, 0
2,174423, Note_on_c, 0, 70, 0
2,174498, Note_on_c, 0, 69, 88
2,174501, Note_on_c, 0, 53, 83
2,174542, Note_on_c, 0, 69, 0
2,174551, Note_on_c, 0, 53, 0
2,174766, Note_on_c, 0, 52, 78
2,174770, Note_on_c, 0, 67, 84
2,174805, Note_on_c, 0, 52, 0
2,174812, Note_on_c, 0, 67, 0
2,175031, Note_on_c, 0, 50, 66
2,175040, Control_c, 0, 64, 24
2,175042, Note_on_c, 0, 65, 77
2,175054, Control_c, 0, 64, 52
2,175070, Control_c, 0, 64, 62
2,175074, Note_on_c, 0, 67, 83
2,175081, Note_on_c, 0, 65, 0
2,175085, Control_c, 0, 64, 64
2,175100, Control_c, 0, 64, 62
2,175116, Control_c, 0, 64, 60
2,175119, Note_on_c, 0, 67, 0
2,175130, Control_c, 0, 64, 57
2,175140, Note_on_c, 0, 65, 81
2,175144, Note_on_c, 0, 52, 73
2,175146, Control_c, 0, 64, 55
2,175158, Note_on_c, 0, 50, 0
2,175191, Control_c, 0, 64, 55
2,175206, Control_c, 0, 64, 53
2,175218, Note_on_c, 0, 65, 0
2,175221, Control_c, 0, 64, 46
2,175237, Control_c, 0, 64, 36
2,175252, Control_c, 0, 64, 21
2,175267, Control_c, 0, 64, 0
2,175297, Note_on_c, 0, 53, 77
2,175301, Note_on_c, 0, 74, 83
2,175302, Note_on_c, 0, 52, 0
2,175306, Note_on_c, 0, 65, 69
2,175342, Note_on_c, 0, 65, 0
2,175403, Note_on_c, 0, 52, 80
2,175403, Note_on_c, 0, 74, 0
2,175406, Note_on_c, 0, 67, 69
2,175408, Note_on_c, 0, 73, 78
2,175412, Note_on_c, 0, 53, 0
2,175438, Note_on_c, 0, 67, 0
2,175470, Note_on_c, 0, 73, 0
2,175472, Note_on_c, 0, 52, 0
2,175546, Note_on_c, 0, 74, 82
2,175550, Note_on_c, 0, 50, 80
2,175551, Note_on_c, 0, 65, 78
2,175583, Note_on_c, 0, 65, 0
2,175588, Note_on_c, 0, 50, 0
2,175596, Note_on_c, 0, 74, 0
2,175826, Note_on_c, 0, 49, 75
2,175826, Note_on_c, 0, 64, 82
2,175829, Note_on_c, 0, 76, 83
2,175866, Note_on_c, 0, 64, 0
2,175878, Note_on_c, 0, 49, 0
2,175887, Note_on_c, 0, 76, 0
2,176095, Note_on_c, 0, 77, 89
2,176104, Note_on_c, 0, 62, 77
2,176110, Note_on_c, 0, 50, 69
2,176113, Control_c, 0, 64, 42
2,176128, Control_c, 0, 64, 58
2,176142, Control_c, 0, 64, 64
2,176151, Note_on_c, 0, 62, 0
2,176158, Control_c, 0, 64, 69
2,176162, Note_on_c, 0, 50, 0
2,176173, Control_c, 0, 64, 75
2,176189, Control_c, 0, 64, 84
2,176202, Note_on_c, 0, 77, 0
2,176204, Control_c, 0, 64, 91
2,176218, Control_c, 0, 64, 96
2,176234, Control_c, 0, 64, 98
2,176279, Control_c, 0, 64, 98
2,176310, Control_c, 0, 64, 97
2,176325, Control_c, 0, 64, 95
2,176339, Control_c, 0, 64, 93
2,176355, Control_c, 0, 64, 90
2,176366, Note_on_c, 0, 77, 87
2,176369, Note_on_c, 0, 57, 71
2,176370, Control_c, 0, 64, 86
2,176372, Note_on_c, 0, 53, 73
2,176372, Note_on_c, 0, 69, 73
2,176386, Control_c, 0, 64, 82
2,176401, Control_c, 0, 64, 75
2,176408, Note_on_c, 0, 69, 0
2,176423, Control_c, 0, 64, 68
2,176439, Control_c, 0, 64, 60
2,176454, Control_c, 0, 64, 47
2,176469, Control_c, 0, 64, 28
2,176477, Note_on_c, 0, 77, 0
2,176484, Control_c, 0, 64, 24
2,176492, Note_on_c, 0, 59, 72
2,176495, Note_on_c, 0, 76, 85
2,176496, Note_on_c, 0, 67, 80
2,176499, Control_c, 0, 64, 23
2,176515, Control_c, 0, 64, 20
2,176525, Note_on_c, 0, 57, 0
2,176530, Control_c, 0, 64, 0
2,176530, Note_on_c, 0, 53, 0
2,176537, Note_on_c, 0, 52, 31
2,176541, Note_on_c, 0, 59, 0
2,176547, Note_on_c, 0, 67, 0
2,176572, Note_on_c, 0, 52, 0
2,176596, Note_on_c, 0, 76, 0
2,176619, Note_on_c, 0, 77, 99
2,176623, Note_on_c, 0, 52, 70
2,176623, Note_on_c, 0, 61, 82
2,176628, Note_on_c, 0, 69, 92
2,176670, Note_on_c, 0, 52, 0
2,176692, Note_on_c, 0, 61, 0
2,176699, Note_on_c, 0, 69, 0
2,176740, Note_on_c, 0, 77, 0
2,176856, Note_on_c, 0, 62, 71
2,176863, Note_on_c, 0, 50, 61
2,176883, Note_on_c, 0, 62, 0
2,176891, Note_on_c, 0, 50, 0
2,176903, Note_on_c, 0, 79, 95
2,176908, Note_on_c, 0, 71, 87
2,176911, Control_c, 0, 64, 35
2,176926, Control_c, 0, 64, 58
2,176941, Control_c, 0, 64, 69
2,176957, Control_c, 0, 64, 84
2,176972, Control_c, 0, 64, 127
2,177006, Note_on_c, 0, 71, 0
2,177014, Note_on_c, 0, 79, 0
2,177035, Note_on_c, 0, 45, 93
2,177106, Note_on_c, 0, 45, 0
2,177238, Control_c, 0, 64, 87
2,177253, Control_c, 0, 64, 70
2,177266, Note_on_c, 0, 73, 92
2,177267, Note_on_c, 0, 81, 80
2,177269, Control_c, 0, 64, 54
2,177284, Control_c, 0, 64, 0
2,177298, Note_on_c, 0, 64, 80
2,177309, Note_on_c, 0, 55, 76
2,177388, Note_on_c, 0, 81, 0
2,177442, Note_on_c, 0, 79, 90
2,177479, Note_on_c, 0, 73, 0
2,177579, Note_on_c, 0, 77, 88
2,177583, Note_on_c, 0, 73, 86
2,177606, Note_on_c, 0, 79, 0
2,177638, Note_on_c, 0, 73, 0
2,177647, Control_c, 0, 64, 40
2,177662, Control_c, 0, 64, 56
2,177678, Control_c, 0, 64, 62
2,177682, Note_on_c, 0, 77, 0
2,177693, Control_c, 0, 64, 64
2,177699, Note_on_c, 0, 79, 83
2,177703, Note_on_c, 0, 71, 82
2,177723, Control_c, 0, 64, 63
2,177739, Note_on_c, 0, 71, 0
2,177755, Control_c, 0, 64, 63
2,177786, Control_c, 0, 64, 62
2,177800, Control_c, 0, 64, 62
2,177815, Control_c, 0, 64, 61
2,177831, Control_c, 0, 64, 59
2,177831, Note_on_c, 0, 79, 0
2,177834, Note_on_c, 0, 55, 0
2,177834, Note_on_c, 0, 81, 84
2,177837, Note_on_c, 0, 73, 85
2,177846, Control_c, 0, 64, 54
2,177861, Control_c, 0, 64, 46
2,177864, Note_on_c, 0, 64, 0
2,177876, Control_c, 0, 64, 39
2,177882, Note_on_c, 0, 73, 0
2,177891, Control_c, 0, 64, 36
2,177895, Note_on_c, 0, 81, 0
2,177907, Control_c, 0, 64, 35
2,177922, Control_c, 0, 64, 32
2,177937, Control_c, 0, 64, 24
2,177959, Control_c, 0, 64, 9
2,177974, Control_c, 0, 64, 0
2,178127, Note_on_c, 0, 62, 80
2,178127, Note_on_c, 0, 82, 94
2,178135, Note_on_c, 0, 53, 76
2,178136, Note_on_c, 0, 74, 82
2,178173, Note_on_c, 0, 62, 0
2,178186, Note_on_c, 0, 82, 0
2,178192, Note_on_c, 0, 74, 0
2,178202, Note_on_c, 0, 53, 0
2,178279, Control_c, 0, 64, 31
2,178293, Control_c, 0, 64, 48
2,178308, Control_c, 0, 64, 56
2,178323, Control_c, 0, 64, 59
2,178338, Control_c, 0, 64, 60
2,178354, Control_c, 0, 64, 59
2,178369, Control_c, 0, 64, 58
2,178384, Control_c, 0, 64, 57
2,178400, Control_c, 0, 64, 57
2,178415, Control_c, 0, 64, 55
2,178421, Note_on_c, 0, 76, 87
2,178422, Note_on_c, 0, 73, 75
2,178423, Note_on_c, 0, 67, 78
2,178427, Note_on_c, 0, 52, 72
2,178431, Control_c, 0, 64, 52
2,178431, Note_on_c, 0, 45, 81
2,178445, Control_c, 0, 64, 47
2,178460, Control_c, 0, 64, 42
2,178476, Control_c, 0, 64, 36
2,178490, Control_c, 0, 64, 29
2,178506, Control_c, 0, 64, 18
2,178521, Control_c, 0, 64, 0
2,178541, Note_on_c, 0, 76, 0
2,178548, Note_on_c, 0, 67, 0
2,178559, Note_on_c, 0, 74, 86
2,178571, Note_on_c, 0, 73, 0
2,178690, Note_on_c, 0, 73, 82
2,178691, Note_on_c, 0, 69, 81
2,178737, Note_on_c, 0, 74, 0
2,178803, Note_on_c, 0, 73, 0
2,178826, Note_on_c, 0, 74, 92
2,178904, Note_on_c, 0, 74, 0
2,178975, Note_on_c, 0, 76, 94
2,179077, Control_c, 0, 64, 17
2,179091, Control_c, 0, 64, 48
2,179107, Control_c, 0, 64, 61
2,179122, Control_c, 0, 64, 66
2,179129, Note_on_c, 0, 76, 0
2,179136, Control_c, 0, 64, 74
2,179150, Note_on_c, 0, 69, 0
2,179152, Control_c, 0, 64, 80
2,179167, Control_c, 0, 64, 84
2,179182, Control_c, 0, 64, 85
2,179198, Control_c, 0, 64, 86
2,179274, Control_c, 0, 64, 85
2,179274, Note_on_c, 0, 50, 76
2,179280, Note_on_c, 0, 52, 0
2,179289, Control_c, 0, 64, 83
2,179302, Note_on_c, 0, 45, 0
2,179304, Control_c, 0, 64, 79
2,179320, Control_c, 0, 64, 70
2,179334, Control_c, 0, 64, 50
2,179338, Note_on_c, 0, 65, 86
2,179338, Note_on_c, 0, 77, 91
2,179341, Note_on_c, 0, 74, 77
2,179350, Control_c, 0, 64, 0
2,179411, Control_c, 0, 64, 27
2,179427, Control_c, 0, 64, 59
2,179433, Note_on_c, 0, 65, 0
2,179442, Control_c, 0, 64, 68
2,179457, Control_c, 0, 64, 81
2,179473, Control_c, 0, 64, 111
2,179491, Note_on_c, 0, 45, 87
2,179493, Note_on_c, 0, 74, 0
2,179495, Control_c, 0, 64, 127
2,179501, Note_on_c, 0, 77, 0
2,179509, Note_on_c, 0, 64, 100
2,179537, Note_on_c, 0, 50, 0
2,179616, Note_on_c, 0, 64, 0
2,179678, Control_c, 0, 64, 99
2,179693, Control_c, 0, 64, 81
2,179709, Control_c, 0, 64, 66
2,179723, Control_c, 0, 64, 37
2,179738, Control_c, 0, 64, 0
2,179763, Note_on_c, 0, 74, 87
2,179770, Note_on_c, 0, 62, 81
2,179775, Note_on_c, 0, 68, 72
2,179787, Note_on_c, 0, 59, 80
2,179828, Note_on_c, 0, 73, 13
2,179867, Note_on_c, 0, 73, 0
2,179973, Note_on_c, 0, 74, 0
2,179987, Note_on_c, 0, 72, 83
2,180132, Note_on_c, 0, 72, 0
2,180148, Note_on_c, 0, 71, 78
2,180181, Note_on_c, 0, 62, 0
2,180190, Control_c, 0, 64, 31
2,180207, Control_c, 0, 64, 53
2,180222, Control_c, 0, 64, 62
2,180238, Control_c, 0, 64, 68
2,180260, Control_c, 0, 64, 74
2,180262, Note_on_c, 0, 68, 0
2,180276, Control_c, 0, 64, 81
2,180290, Control_c, 0, 64, 84
2,180299, Note_on_c, 0, 72, 91
2,180301, Note_on_c, 0, 71, 0
2,180305, Control_c, 0, 64, 84
2,180321, Control_c, 0, 64, 81
2,180336, Control_c, 0, 64, 77
2,180350, Note_on_c, 0, 72, 0
2,180351, Control_c, 0, 64, 69
2,180366, Control_c, 0, 64, 58
2,180381, Control_c, 0, 64, 0
2,180452, Note_on_c, 0, 74, 95
2,180488, Control_c, 0, 64, 46
2,180501, Note_on_c, 0, 45, 0
2,180503, Control_c, 0, 64, 61
2,180519, Control_c, 0, 64, 68
2,180533, Control_c, 0, 64, 75
2,180548, Control_c, 0, 64, 86
2,180564, Control_c, 0, 64, 94
2,180570, Note_on_c, 0, 59, 0
2,180579, Control_c, 0, 64, 98
2,180623, Note_on_c, 0, 74, 0
2,180623, Note_on_c, 0, 76, 95
2,180641, Control_c, 0, 64, 98
2,180656, Control_c, 0, 64, 99
2,180701, Control_c, 0, 64, 98
2,180717, Control_c, 0, 64, 98
2,180731, Control_c, 0, 64, 97
2,180746, Control_c, 0, 64, 96
2,180762, Control_c, 0, 64, 95
2,180777, Control_c, 0, 64, 93
2,180793, Control_c, 0, 64, 90
2,180804, Note_on_c, 0, 76, 0
2,180808, Control_c, 0, 64, 83
2,180822, Control_c, 0, 64, 73
2,180822, Note_on_c, 0, 78, 93
2,180835, Note_on_c, 0, 62, 85
2,180836, Note_on_c, 0, 74, 81
2,180838, Control_c, 0, 64, 63
2,180853, Control_c, 0, 64, 21
2,180868, Control_c, 0, 64, 0
2,181026, Note_on_c, 0, 80, 95
2,181030, Note_on_c, 0, 64, 88
2,181039, Note_on_c, 0, 62, 0
2,181053, Note_on_c, 0, 78, 0
2,181134, Note_on_c, 0, 74, 0
2,181135, Control_c, 0, 64, 26
2,181150, Control_c, 0, 64, 54
2,181164, Note_on_c, 0, 80, 0
2,181166, Control_c, 0, 64, 64
2,181170, Note_on_c, 0, 64, 0
2,181180, Control_c, 0, 64, 71
2,181196, Control_c, 0, 64, 84
2,181211, Control_c, 0, 64, 105
2,181226, Control_c, 0, 64, 127
2,181409, Control_c, 0, 64, 114
2,181421, Note_on_c, 0, 81, 94
2,181424, Control_c, 0, 64, 104
2,181433, Note_on_c, 0, 65, 86
2,181437, Note_on_c, 0, 57, 79
2,181440, Control_c, 0, 64, 91
2,181440, Note_on_c, 0, 74, 73
2,181454, Control_c, 0, 64, 81
2,181469, Control_c, 0, 64, 71
2,181485, Control_c, 0, 64, 61
2,181500, Control_c, 0, 64, 30
2,181516, Control_c, 0, 64, 0
2,181621, Control_c, 0, 64, 22
2,181637, Control_c, 0, 64, 48
2,181652, Control_c, 0, 64, 59
2,181666, Control_c, 0, 64, 64
2,181682, Control_c, 0, 64, 67
2,181697, Control_c, 0, 64, 69
2,181713, Control_c, 0, 64, 73
2,181727, Control_c, 0, 64, 77
2,181730, Note_on_c, 0, 65, 0
2,181742, Control_c, 0, 64, 82
2,181758, Control_c, 0, 64, 87
2,181768, Note_on_c, 0, 74, 0
2,181773, Control_c, 0, 64, 91
2,181919, Control_c, 0, 64, 90
2,181934, Control_c, 0, 64, 90
2,181949, Control_c, 0, 64, 89
2,181965, Control_c, 0, 64, 87
2,181979, Control_c, 0, 64, 86
2,181995, Control_c, 0, 64, 84
2,181999, Note_on_c, 0, 76, 78
2,182000, Note_on_c, 0, 61, 71
2,182000, Note_on_c, 0, 64, 76
2,182003, Note_on_c, 0, 73, 79
2,182010, Control_c, 0, 64, 79
2,182024, Control_c, 0, 64, 74
2,182040, Control_c, 0, 64, 67
2,182055, Control_c, 0, 64, 61
2,182070, Control_c, 0, 64, 53
2,182086, Control_c, 0, 64, 44
2,182100, Control_c, 0, 64, 35
2,182109, Note_on_c, 0, 62, 83
2,182109, Note_on_c, 0, 77, 82
2,182116, Control_c, 0, 64, 26
2,182116, Note_on_c, 0, 59, 74
2,182116, Note_on_c, 0, 74, 85
2,182131, Control_c, 0, 64, 11
2,182135, Note_on_c, 0, 64, 0
2,182136, Note_on_c, 0, 73, 0
2,182139, Note_on_c, 0, 61, 0
2,182146, Control_c, 0, 64, 0
2,182146, Note_on_c, 0, 76, 0
2,182189, Note_on_c, 0, 74, 0
2,182247, Note_on_c, 0, 62, 0
2,182248, Note_on_c, 0, 76, 90
2,182255, Note_on_c, 0, 64, 89
2,182256, Note_on_c, 0, 61, 82
2,182257, Note_on_c, 0, 73, 82
2,182264, Note_on_c, 0, 59, 0
2,182291, Note_on_c, 0, 77, 0
2,182435, Control_c, 0, 64, 18
2,182450, Control_c, 0, 64, 45
2,182465, Control_c, 0, 64, 58
2,182477, Note_on_c, 0, 64, 0
2,182481, Control_c, 0, 64, 64
2,182496, Control_c, 0, 64, 67
2,182510, Control_c, 0, 64, 71
2,182511, Note_on_c, 0, 73, 0
2,182522, Note_on_c, 0, 76, 0
2,182526, Control_c, 0, 64, 73
2,182541, Control_c, 0, 64, 75
2,182565, Control_c, 0, 64, 76
2,182580, Control_c, 0, 64, 76
2,182610, Control_c, 0, 64, 76
2,182640, Control_c, 0, 64, 75
2,182656, Control_c, 0, 64, 75
2,182671, Control_c, 0, 64, 74
2,182687, Control_c, 0, 64, 73
2,182702, Control_c, 0, 64, 73
2,182702, Note_on_c, 0, 61, 0
2,182718, Control_c, 0, 64, 71
2,182733, Control_c, 0, 64, 69
2,182747, Control_c, 0, 64, 66
2,182763, Control_c, 0, 64, 61
2,182775, Note_on_c, 0, 74, 91
2,182778, Control_c, 0, 64, 41
2,182783, Note_on_c, 0, 71, 86
2,182784, Note_on_c, 0, 65, 82
2,182786, Note_on_c, 0, 62, 77
2,182794, Control_c, 0, 64, 0
2,182899, Control_c, 0, 64, 31
2,182915, Control_c, 0, 64, 53
2,182930, Control_c, 0, 64, 62
2,182932, Note_on_c, 0, 71, 0
2,182944, Control_c, 0, 64, 66
2,182960, Control_c, 0, 64, 71
2,182975, Control_c, 0, 64, 75
2,182990, Control_c, 0, 64, 79
2,182991, Note_on_c, 0, 65, 0
2,183006, Control_c, 0, 64, 83
2,183008, Note_on_c, 0, 74, 0
2,183020, Control_c, 0, 64, 87
2,183036, Control_c, 0, 64, 90
2,183051, Control_c, 0, 64, 92
2,183066, Control_c, 0, 64, 92
2,183081, Control_c, 0, 64, 93
2,183085, Note_on_c, 0, 62, 0
2,183096, Control_c, 0, 64, 93
2,183119, Note_on_c, 0, 57, 0
2,183201, Note_on_c, 0, 68, 97
2,183218, Control_c, 0, 64, 93
2,183234, Control_c, 0, 64, 92
2,183249, Control_c, 0, 64, 92
2,183264, Control_c, 0, 64, 91
2,183279, Control_c, 0, 64, 89
2,183294, Control_c, 0, 64, 87
2,183309, Control_c, 0, 64, 86
2,183332, Control_c, 0, 64, 84
2,183347, Control_c, 0, 64, 80
2,183363, Control_c, 0, 64, 75
2,183378, Control_c, 0, 64, 67
2,183393, Control_c, 0, 64, 51
2,183408, Control_c, 0, 64, 0
2,183478, Note_on_c, 0, 45, 90
2,183483, Note_on_c, 0, 81, 0
2,183500, Control_c, 0, 64, 16
2,183516, Control_c, 0, 64, 53
2,183528, Note_on_c, 0, 68, 0
2,183531, Control_c, 0, 64, 66
2,183546, Control_c, 0, 64, 76
2,183561, Control_c, 0, 64, 94
2,183567, Note_on_c, 0, 45, 0
2,183576, Control_c, 0, 64, 127
2,184141, Note_on_c, 0, 69, 85
2,184146, Note_on_c, 0, 64, 75
2,184151, Note_on_c, 0, 57, 73
2,184153, Note_on_c, 0, 73, 88
2,184194, Control_c, 0, 64, 95
2,184208, Control_c, 0, 64, 71
2,184223, Control_c, 0, 64, 57
2,184236, Note_on_c, 0, 71, 86
2,184239, Control_c, 0, 64, 0
2,184251, Note_on_c, 0, 73, 0
2,184322, Note_on_c, 0, 73, 95
2,184340, Note_on_c, 0, 71, 0
2,185715, Control_c, 0, 64, 17
2,185730, Control_c, 0, 64, 32
2,185744, Control_c, 0, 64, 43
2,185760, Control_c, 0, 64, 51
2,185775, Control_c, 0, 64, 56
2,185791, Control_c, 0, 64, 59
2,185806, Control_c, 0, 64, 60
2,185820, Control_c, 0, 64, 62
2,185836, Control_c, 0, 64, 63
2,185851, Control_c, 0, 64, 64
2,185867, Control_c, 0, 64, 65
2,185882, Control_c, 0, 64, 66
2,185896, Control_c, 0, 64, 68
2,185912, Control_c, 0, 64, 70
2,185927, Control_c, 0, 64, 72
2,185943, Control_c, 0, 64, 75
2,185959, Control_c, 0, 64, 78
2,185973, Control_c, 0, 64, 80
2,185989, Control_c, 0, 64, 83
2,186004, Control_c, 0, 64, 85
2,186019, Control_c, 0, 64, 88
2,186035, Control_c, 0, 64, 89
2,186049, Control_c, 0, 64, 91
2,186064, Control_c, 0, 64, 93
2,186080, Control_c, 0, 64, 95
2,186095, Control_c, 0, 64, 97
2,186111, Control_c, 0, 64, 102
2,186125, Control_c, 0, 64, 106
2,186140, Control_c, 0, 64, 113
2,186156, Control_c, 0, 64, 127
2,186663, Note_on_c, 0, 69, 0
2,186716, Note_on_c, 0, 64, 0
2,186722, Note_on_c, 0, 57, 0
2,186793, Note_on_c, 0, 73, 0
2,186817, Control_c, 0, 64, 121
2,186833, Control_c, 0, 64, 92
2,186848, Control_c, 0, 64, 75
2,186863, Control_c, 0, 64, 63
2,186879, Control_c, 0, 64, 43
2,186893, Control_c, 0, 64, 20
2,186909, Control_c, 0, 64, 17
2,186939, Control_c, 0, 64, 0
2,187076, Control_c, 0, 66, 0
2,187077, End_track
0, 0, End_of_file
