0, 0, Header, 1, 2, 480
1, 0, Start_track
1, 0, Tempo, 500000
1, 0, Time_signature, 4, 2, 24, 8
1, 1, End_track
2,0,Start_track
2,0, Note_on_c, 0, 57, 52
2,57, Note_on_c, 0, 57, 0
2,159, Note_on_c, 0, 56, 57
2,206, Note_on_c, 0, 56, 0
2,309, Note_on_c, 0, 57, 58
2,366, Note_on_c, 0, 57, 0
2,624, Note_on_c, 0, 59, 66
2,709, Note_on_c, 0, 59, 0
2,958, Note_on_c, 0, 60, 60
2,1195, Note_on_c, 0, 60, 0
2,1263, Note_on_c, 0, 60, 62
2,1312, Note_on_c, 0, 60, 0
2,1411, Note_on_c, 0, 59, 70
2,1464, Note_on_c, 0, 59, 0
2,1580, Note_on_c, 0, 60, 68
2,1627, Note_on_c, 0, 60, 0
2,1895, Note_on_c, 0, 62, 65
2,1940, Note_on_c, 0, 62, 0
2,2227, Note_on_c, 0, 64, 59
2,2371, Note_on_c, 0, 64, 0
2,2380, Note_on_c, 0, 62, 63
2,2424, Note_on_c, 0, 62, 0
2,2530, Note_on_c, 0, 60, 65
2,2575, Note_on_c, 0, 60, 0
2,2665, Note_on_c, 0, 62, 69
2,2712, Note_on_c, 0, 62, 0
2,2817, Note_on_c, 0, 64, 73
2,2865, Note_on_c, 0, 64, 0
2,3127, Note_on_c, 0, 65, 73
2,3201, Note_on_c, 0, 65, 0
2,3458, Note_on_c, 0, 56, 70
2,3539, Note_on_c, 0, 56, 0
2,3817, Note_on_c, 0, 52, 49
2,3874, Note_on_c, 0, 52, 0
2,4483, Note_on_c, 0, 57, 51
2,4572, Note_on_c, 0, 57, 0
2,4819, Note_on_c, 0, 59, 47
2,4935, Note_on_c, 0, 59, 0
2,4960, Note_on_c, 0, 60, 57
2,5008, Note_on_c, 0, 60, 0
2,5116, Note_on_c, 0, 57, 63
2,5161, Note_on_c, 0, 57, 0
2,5269, Note_on_c, 0, 59, 66
2,5320, Note_on_c, 0, 59, 0
2,5434, Note_on_c, 0, 60, 70
2,5554, Note_on_c, 0, 60, 0
2,5588, Note_on_c, 0, 62, 65
2,5637, Note_on_c, 0, 62, 0
2,5745, Note_on_c, 0, 59, 70
2,5789, Note_on_c, 0, 59, 0
2,5891, Note_on_c, 0, 60, 68
2,5948, Note_on_c, 0, 60, 0
2,6060, Note_on_c, 0, 62, 57
2,6114, Note_on_c, 0, 62, 0
2,6386, Note_on_c, 0, 60, 58
2,6450, Note_on_c, 0, 60, 0
2,6703, Note_on_c, 0, 59, 50
2,6762, Note_on_c, 0, 59, 0
2,7043, Note_on_c, 0, 64, 50
2,7128, Note_on_c, 0, 64, 0
2,7381, Note_on_c, 0, 57, 34
2,7720, Note_on_c, 0, 64, 58
2,7766, Note_on_c, 0, 64, 0
2,7858, Note_on_c, 0, 63, 62
2,7915, Note_on_c, 0, 63, 0
2,8007, Note_on_c, 0, 55, 48
2,8015, Note_on_c, 0, 64, 66
2,8055, Note_on_c, 0, 57, 0
2,8067, Note_on_c, 0, 55, 0
2,8070, Note_on_c, 0, 64, 0
2,8316, Note_on_c, 0, 66, 67
2,8323, Note_on_c, 0, 54, 53
2,8373, Note_on_c, 0, 54, 0
2,8382, Note_on_c, 0, 66, 0
2,8631, Note_on_c, 0, 67, 52
2,8639, Note_on_c, 0, 52, 46
2,8893, Note_on_c, 0, 67, 0
2,8953, Note_on_c, 0, 60, 42
2,8970, Note_on_c, 0, 67, 60
2,9021, Note_on_c, 0, 67, 0
2,9113, Note_on_c, 0, 66, 65
2,9136, Note_on_c, 0, 52, 0
2,9167, Note_on_c, 0, 66, 0
2,9178, Note_on_c, 0, 60, 0
2,9256, Note_on_c, 0, 59, 53
2,9280, Note_on_c, 0, 67, 74
2,9325, Note_on_c, 0, 59, 0
2,9353, Note_on_c, 0, 67, 0
2,9583, Note_on_c, 0, 57, 46
2,9583, Note_on_c, 0, 69, 77
2,9633, Note_on_c, 0, 57, 0
2,9651, Note_on_c, 0, 69, 0
2,9904, Note_on_c, 0, 55, 52
2,9904, Note_on_c, 0, 71, 68
2,9997, Note_on_c, 0, 55, 0
2,10047, Note_on_c, 0, 69, 76
2,10055, Note_on_c, 0, 54, 58
2,10073, Note_on_c, 0, 71, 0
2,10104, Note_on_c, 0, 54, 0
2,10124, Note_on_c, 0, 69, 0
2,10202, Note_on_c, 0, 67, 73
2,10207, Note_on_c, 0, 52, 51
2,10257, Note_on_c, 0, 52, 0
2,10263, Note_on_c, 0, 67, 0
2,10353, Note_on_c, 0, 54, 57
2,10353, Note_on_c, 0, 69, 79
2,10395, Note_on_c, 0, 54, 0
2,10417, Note_on_c, 0, 69, 0
2,10511, Note_on_c, 0, 71, 79
2,10528, Note_on_c, 0, 55, 53
2,10596, Note_on_c, 0, 55, 0
2,10597, Note_on_c, 0, 71, 0
2,10847, Note_on_c, 0, 72, 73
2,10858, Note_on_c, 0, 57, 45
2,11140, Note_on_c, 0, 57, 0
2,11154, Note_on_c, 0, 59, 53
2,11160, Note_on_c, 0, 72, 0
2,11171, Note_on_c, 0, 63, 67
2,11223, Note_on_c, 0, 63, 0
2,11225, Note_on_c, 0, 59, 0
2,11323, Note_on_c, 0, 57, 42
2,11367, Note_on_c, 0, 57, 0
2,11485, Note_on_c, 0, 59, 66
2,11496, Note_on_c, 0, 55, 46
2,11549, Note_on_c, 0, 55, 0
2,11550, Note_on_c, 0, 59, 0
2,11644, Note_on_c, 0, 57, 55
2,11704, Note_on_c, 0, 57, 0
2,11826, Note_on_c, 0, 59, 56
2,11890, Note_on_c, 0, 59, 0
2,12131, Note_on_c, 0, 60, 42
2,12133, Note_on_c, 0, 64, 60
2,12267, Note_on_c, 0, 64, 0
2,12471, Note_on_c, 0, 66, 59
2,12615, Note_on_c, 0, 66, 0
2,12619, Note_on_c, 0, 67, 56
2,12681, Note_on_c, 0, 60, 0
2,12687, Note_on_c, 0, 67, 0
2,12775, Note_on_c, 0, 59, 51
2,12780, Note_on_c, 0, 64, 65
2,12824, Note_on_c, 0, 59, 0
2,12825, Note_on_c, 0, 64, 0
2,12920, Note_on_c, 0, 66, 73
2,12941, Note_on_c, 0, 57, 45
2,12984, Note_on_c, 0, 66, 0
2,13012, Note_on_c, 0, 57, 0
2,13088, Note_on_c, 0, 67, 66
2,13089, Note_on_c, 0, 59, 57
2,13230, Note_on_c, 0, 67, 0
2,13236, Note_on_c, 0, 69, 70
2,13318, Note_on_c, 0, 69, 0
2,13394, Note_on_c, 0, 66, 70
2,13402, Note_on_c, 0, 64, 57
2,13486, Note_on_c, 0, 66, 0
2,13543, Note_on_c, 0, 67, 67
2,13617, Note_on_c, 0, 59, 0
2,13623, Note_on_c, 0, 67, 0
2,13717, Note_on_c, 0, 69, 68
2,13933, Note_on_c, 0, 69, 0
2,14033, Note_on_c, 0, 64, 0
2,14040, Note_on_c, 0, 67, 52
2,14053, Note_on_c, 0, 62, 44
2,14160, Note_on_c, 0, 62, 0
2,14186, Note_on_c, 0, 67, 0
2,14206, Note_on_c, 0, 61, 47
2,14268, Note_on_c, 0, 61, 0
2,14358, Note_on_c, 0, 66, 60
2,14360, Note_on_c, 0, 62, 41
2,14458, Note_on_c, 0, 66, 0
2,14689, Note_on_c, 0, 71, 64
2,14828, Note_on_c, 0, 71, 0
2,15050, Note_on_c, 0, 64, 56
2,15338, Note_on_c, 0, 64, 0
2,15377, Note_on_c, 0, 66, 67
2,15393, Note_on_c, 0, 62, 0
2,15416, Note_on_c, 0, 60, 30
2,15433, Note_on_c, 0, 66, 0
2,15460, Note_on_c, 0, 60, 0
2,15525, Note_on_c, 0, 68, 77
2,15547, Note_on_c, 0, 59, 54
2,15584, Note_on_c, 0, 68, 0
2,15615, Note_on_c, 0, 59, 0
2,15702, Note_on_c, 0, 69, 73
2,15703, Note_on_c, 0, 60, 50
2,15849, Note_on_c, 0, 71, 78
2,15860, Note_on_c, 0, 69, 0
2,15913, Note_on_c, 0, 71, 0
2,16003, Note_on_c, 0, 72, 82
2,16039, Note_on_c, 0, 72, 0
2,16151, Note_on_c, 0, 74, 74
2,16189, Note_on_c, 0, 74, 0
2,16312, Note_on_c, 0, 76, 79
2,16352, Note_on_c, 0, 76, 0
2,16475, Note_on_c, 0, 69, 63
2,16552, Note_on_c, 0, 69, 0
2,16627, Note_on_c, 0, 69, 78
2,16637, Note_on_c, 0, 67, 40
2,16664, Note_on_c, 0, 69, 0
2,16755, Note_on_c, 0, 67, 0
2,16792, Note_on_c, 0, 65, 50
2,16888, Note_on_c, 0, 65, 0
2,16906, Note_on_c, 0, 69, 66
2,16946, Note_on_c, 0, 69, 0
2,16961, Note_on_c, 0, 68, 73
2,16968, Note_on_c, 0, 64, 50
2,17009, Note_on_c, 0, 68, 0
2,17015, Note_on_c, 0, 69, 77
2,17063, Note_on_c, 0, 69, 0
2,17065, Note_on_c, 0, 60, 0
2,17068, Note_on_c, 0, 64, 0
2,17072, Note_on_c, 0, 68, 74
2,17094, Note_on_c, 0, 62, 51
2,17236, Note_on_c, 0, 62, 0
2,17260, Note_on_c, 0, 60, 57
2,17428, Note_on_c, 0, 59, 64
2,17455, Note_on_c, 0, 60, 0
2,17492, Note_on_c, 0, 68, 0
2,17523, Note_on_c, 0, 59, 0
2,17577, Note_on_c, 0, 69, 62
2,17579, Note_on_c, 0, 60, 58
2,17623, Note_on_c, 0, 60, 0
2,17674, Note_on_c, 0, 69, 0
2,17733, Note_on_c, 0, 59, 58
2,17777, Note_on_c, 0, 59, 0
2,17901, Note_on_c, 0, 45, 73
2,17915, Note_on_c, 0, 60, 58
2,17923, Note_on_c, 0, 69, 63
2,18047, Note_on_c, 0, 44, 83
2,18054, Note_on_c, 0, 45, 0
2,18123, Note_on_c, 0, 44, 0
2,18209, Note_on_c, 0, 45, 77
2,18211, Note_on_c, 0, 69, 0
2,18218, Note_on_c, 0, 67, 68
2,18238, Note_on_c, 0, 60, 0
2,18279, Note_on_c, 0, 45, 0
2,18335, Note_on_c, 0, 67, 0
2,18532, Note_on_c, 0, 47, 72
2,18557, Note_on_c, 0, 65, 57
2,18614, Note_on_c, 0, 47, 0
2,18789, Note_on_c, 0, 65, 0
2,18851, Note_on_c, 0, 48, 70
2,18865, Note_on_c, 0, 64, 56
2,18996, Note_on_c, 0, 64, 0
2,19021, Note_on_c, 0, 62, 59
2,19067, Note_on_c, 0, 48, 0
2,19111, Note_on_c, 0, 62, 0
2,19183, Note_on_c, 0, 72, 72
2,19184, Note_on_c, 0, 48, 76
2,19186, Note_on_c, 0, 64, 46
2,19238, Note_on_c, 0, 48, 0
2,19323, Note_on_c, 0, 72, 0
2,19326, Note_on_c, 0, 47, 80
2,19396, Note_on_c, 0, 47, 0
2,19509, Note_on_c, 0, 48, 74
2,19517, Note_on_c, 0, 71, 72
2,19555, Note_on_c, 0, 64, 0
2,19558, Note_on_c, 0, 48, 0
2,19660, Note_on_c, 0, 71, 0
2,19847, Note_on_c, 0, 50, 74
2,19851, Note_on_c, 0, 69, 72
2,19926, Note_on_c, 0, 50, 0
2,19927, Note_on_c, 0, 69, 0
2,20170, Note_on_c, 0, 52, 71
2,20190, Note_on_c, 0, 68, 71
2,20270, Note_on_c, 0, 68, 0
2,20278, Note_on_c, 0, 52, 0
2,20328, Note_on_c, 0, 50, 74
2,20336, Note_on_c, 0, 66, 70
2,20383, Note_on_c, 0, 50, 0
2,20417, Note_on_c, 0, 66, 0
2,20493, Note_on_c, 0, 48, 70
2,20505, Note_on_c, 0, 64, 65
2,20539, Note_on_c, 0, 76, 36
2,20542, Note_on_c, 0, 48, 0
2,20552, Note_on_c, 0, 64, 0
2,20580, Note_on_c, 0, 76, 0
2,20649, Note_on_c, 0, 66, 74
2,20653, Note_on_c, 0, 50, 70
2,20716, Note_on_c, 0, 50, 0
2,20754, Note_on_c, 0, 66, 0
2,20813, Note_on_c, 0, 68, 59
2,20818, Note_on_c, 0, 52, 75
2,20821, Note_on_c, 0, 74, 70
2,20857, Note_on_c, 0, 68, 0
2,20908, Note_on_c, 0, 52, 0
2,20943, Note_on_c, 0, 74, 0
2,21143, Note_on_c, 0, 53, 81
2,21143, Note_on_c, 0, 72, 62
2,21163, Note_on_c, 0, 69, 41
2,21454, Note_on_c, 0, 72, 0
2,21458, Note_on_c, 0, 44, 76
2,21475, Note_on_c, 0, 53, 0
2,21493, Note_on_c, 0, 71, 69
2,21506, Note_on_c, 0, 44, 0
2,21515, Note_on_c, 0, 69, 0
2,21553, Note_on_c, 0, 71, 0
2,21643, Note_on_c, 0, 72, 68
2,21727, Note_on_c, 0, 72, 0
2,21797, Note_on_c, 0, 40, 68
2,21820, Note_on_c, 0, 74, 61
2,21873, Note_on_c, 0, 40, 0
2,21892, Note_on_c, 0, 74, 0
2,21974, Note_on_c, 0, 71, 60
2,22056, Note_on_c, 0, 71, 0
2,22136, Note_on_c, 0, 72, 64
2,22273, Note_on_c, 0, 71, 63
2,22333, Note_on_c, 0, 72, 0
2,22372, Note_on_c, 0, 71, 0
2,22435, Note_on_c, 0, 45, 70
2,22448, Note_on_c, 0, 69, 58
2,22539, Note_on_c, 0, 45, 0
2,22597, Note_on_c, 0, 72, 69
2,22599, Note_on_c, 0, 69, 0
2,22704, Note_on_c, 0, 72, 0
2,22752, Note_on_c, 0, 47, 77
2,22776, Note_on_c, 0, 67, 46
2,22780, Note_on_c, 0, 74, 57
2,22846, Note_on_c, 0, 47, 0
2,22868, Note_on_c, 0, 74, 0
2,22910, Note_on_c, 0, 48, 75
2,22919, Note_on_c, 0, 76, 67
2,22975, Note_on_c, 0, 48, 0
2,23008, Note_on_c, 0, 76, 0
2,23072, Note_on_c, 0, 45, 63
2,23089, Note_on_c, 0, 77, 61
2,23128, Note_on_c, 0, 45, 0
2,23153, Note_on_c, 0, 77, 0
2,23231, Note_on_c, 0, 74, 65
2,23233, Note_on_c, 0, 47, 74
2,23280, Note_on_c, 0, 47, 0
2,23293, Note_on_c, 0, 74, 0
2,23389, Note_on_c, 0, 49, 77
2,23404, Note_on_c, 0, 76, 67
2,23538, Note_on_c, 0, 67, 0
2,23544, Note_on_c, 0, 50, 75
2,23562, Note_on_c, 0, 49, 0
2,23576, Note_on_c, 0, 65, 54
2,23655, Note_on_c, 0, 65, 0
2,23662, Note_on_c, 0, 50, 0
2,23704, Note_on_c, 0, 47, 73
2,23740, Note_on_c, 0, 64, 51
2,23772, Note_on_c, 0, 64, 0
2,23782, Note_on_c, 0, 47, 0
2,23856, Note_on_c, 0, 49, 82
2,23875, Note_on_c, 0, 67, 63
2,23931, Note_on_c, 0, 49, 0
2,23931, Note_on_c, 0, 67, 0
2,24037, Note_on_c, 0, 50, 81
2,24053, Note_on_c, 0, 66, 58
2,24124, Note_on_c, 0, 50, 0
2,24223, Note_on_c, 0, 66, 0
2,24362, Note_on_c, 0, 48, 70
2,24372, Note_on_c, 0, 69, 64
2,24466, Note_on_c, 0, 48, 0
2,24484, Note_on_c, 0, 69, 0
2,24697, Note_on_c, 0, 47, 65
2,24710, Note_on_c, 0, 76, 0
2,24716, Note_on_c, 0, 71, 66
2,24723, Note_on_c, 0, 68, 48
2,24793, Note_on_c, 0, 71, 0
2,24842, Note_on_c, 0, 47, 0
2,24874, Note_on_c, 0, 72, 56
2,24954, Note_on_c, 0, 72, 0
2,25027, Note_on_c, 0, 52, 63
2,25053, Note_on_c, 0, 74, 59
2,25245, Note_on_c, 0, 52, 0
2,25371, Note_on_c, 0, 69, 56
2,25376, Note_on_c, 0, 45, 56
2,25437, Note_on_c, 0, 68, 0
2,25682, Note_on_c, 0, 45, 0
2,25699, Note_on_c, 0, 74, 0
2,25718, Note_on_c, 0, 52, 72
2,25724, Note_on_c, 0, 47, 65
2,25737, Note_on_c, 0, 72, 55
2,25776, Note_on_c, 0, 52, 0
2,25779, Note_on_c, 0, 47, 0
2,25811, Note_on_c, 0, 72, 0
2,25868, Note_on_c, 0, 51, 72
2,25925, Note_on_c, 0, 51, 0
2,25937, Note_on_c, 0, 69, 0
2,26038, Note_on_c, 0, 52, 76
2,26043, Note_on_c, 0, 71, 62
2,26046, Note_on_c, 0, 49, 54
2,26081, Note_on_c, 0, 49, 0
2,26081, Note_on_c, 0, 71, 0
2,26084, Note_on_c, 0, 67, 22
2,26098, Note_on_c, 0, 52, 0
2,26278, Note_on_c, 0, 67, 0
2,26367, Note_on_c, 0, 54, 78
2,26376, Note_on_c, 0, 69, 57
2,26383, Note_on_c, 0, 66, 36
2,26384, Note_on_c, 0, 51, 48
2,26428, Note_on_c, 0, 66, 0
2,26430, Note_on_c, 0, 69, 0
2,26440, Note_on_c, 0, 51, 0
2,26444, Note_on_c, 0, 54, 0
2,26690, Note_on_c, 0, 55, 75
2,26700, Note_on_c, 0, 67, 56
2,26705, Note_on_c, 0, 52, 51
2,26737, Control_c, 0, 64, 42
2,26739, Note_on_c, 0, 67, 0
2,26756, Control_c, 0, 64, 58
2,26775, Control_c, 0, 64, 61
2,26814, Control_c, 0, 64, 62
2,26833, Control_c, 0, 64, 63
2,26852, Control_c, 0, 64, 63
2,26871, Control_c, 0, 64, 64
2,26891, Control_c, 0, 64, 64
2,26895, Note_on_c, 0, 55, 0
2,26896, Note_on_c, 0, 52, 0
2,26909, Control_c, 0, 64, 65
2,26929, Control_c, 0, 64, 65
2,26967, Control_c, 0, 64, 65
2,26985, Control_c, 0, 64, 63
2,27005, Control_c, 0, 64, 42
2,27024, Control_c, 0, 64, 0
2,27024, Note_on_c, 0, 55, 69
2,27035, Note_on_c, 0, 52, 53
2,27040, Note_on_c, 0, 72, 50
2,27044, Note_on_c, 0, 76, 58
2,27066, Note_on_c, 0, 55, 0
2,27078, Note_on_c, 0, 52, 0
2,27089, Note_on_c, 0, 72, 0
2,27129, Note_on_c, 0, 76, 0
2,27168, Note_on_c, 0, 54, 74
2,27171, Note_on_c, 0, 50, 64
2,27210, Note_on_c, 0, 54, 0
2,27214, Note_on_c, 0, 50, 0
2,27338, Note_on_c, 0, 55, 76
2,27359, Note_on_c, 0, 74, 68
2,27381, Note_on_c, 0, 52, 20
2,27391, Note_on_c, 0, 55, 0
2,27420, Note_on_c, 0, 74, 0
2,27436, Note_on_c, 0, 52, 0
2,27671, Note_on_c, 0, 57, 75
2,27683, Note_on_c, 0, 54, 60
2,27688, Note_on_c, 0, 72, 65
2,27723, Note_on_c, 0, 72, 0
2,27733, Note_on_c, 0, 54, 0
2,27828, Note_on_c, 0, 57, 0
2,27990, Note_on_c, 0, 59, 76
2,28001, Note_on_c, 0, 55, 61
2,28012, Note_on_c, 0, 71, 65
2,28017, Note_on_c, 0, 67, 47
2,28063, Note_on_c, 0, 55, 0
2,28074, Note_on_c, 0, 67, 0
2,28145, Note_on_c, 0, 57, 69
2,28160, Note_on_c, 0, 66, 56
2,28169, Note_on_c, 0, 59, 0
2,28227, Note_on_c, 0, 57, 0
2,28231, Note_on_c, 0, 66, 0
2,28303, Note_on_c, 0, 55, 78
2,28331, Note_on_c, 0, 64, 54
2,28359, Note_on_c, 0, 55, 0
2,28385, Note_on_c, 0, 64, 0
2,28459, Note_on_c, 0, 57, 77
2,28473, Note_on_c, 0, 66, 58
2,28507, Note_on_c, 0, 57, 0
2,28543, Note_on_c, 0, 66, 0
2,28633, Note_on_c, 0, 59, 85
2,28643, Note_on_c, 0, 67, 62
2,28692, Note_on_c, 0, 67, 0
2,28708, Note_on_c, 0, 59, 0
2,28974, Note_on_c, 0, 60, 76
2,28982, Note_on_c, 0, 57, 48
2,28982, Note_on_c, 0, 69, 66
2,28991, Note_on_c, 0, 66, 28
2,29001, Note_on_c, 0, 71, 0
2,29320, Note_on_c, 0, 51, 76
2,29330, Note_on_c, 0, 60, 0
2,29352, Note_on_c, 0, 57, 0
2,29385, Note_on_c, 0, 51, 0
2,29625, Note_on_c, 0, 47, 77
2,29638, Note_on_c, 0, 66, 0
2,29657, Note_on_c, 0, 64, 57
2,29657, Note_on_c, 0, 69, 0
2,29668, Note_on_c, 0, 67, 53
2,29688, Note_on_c, 0, 47, 0
2,29727, Note_on_c, 0, 64, 0
2,29765, Note_on_c, 0, 67, 0
2,29775, Note_on_c, 0, 45, 65
2,29806, Note_on_c, 0, 63, 41
2,29809, Note_on_c, 0, 66, 51
2,29826, Note_on_c, 0, 45, 0
2,29911, Note_on_c, 0, 63, 0
2,29928, Note_on_c, 0, 43, 62
2,29966, Note_on_c, 0, 66, 0
2,29976, Note_on_c, 0, 67, 61
2,29983, Note_on_c, 0, 43, 0
2,29996, Note_on_c, 0, 64, 45
2,30088, Note_on_c, 0, 64, 0
2,30123, Note_on_c, 0, 67, 0
2,30124, Note_on_c, 0, 69, 69
2,30182, Note_on_c, 0, 69, 0
2,30276, Note_on_c, 0, 52, 69
2,30292, Note_on_c, 0, 40, 47
2,30296, Note_on_c, 0, 71, 64
2,30331, Note_on_c, 0, 40, 0
2,30339, Note_on_c, 0, 52, 0
2,30369, Note_on_c, 0, 71, 0
2,30428, Note_on_c, 0, 67, 72
2,30542, Note_on_c, 0, 67, 0
2,30582, Note_on_c, 0, 54, 73
2,30589, Note_on_c, 0, 45, 61
2,30595, Note_on_c, 0, 72, 78
2,30759, Note_on_c, 0, 54, 0
2,30769, Note_on_c, 0, 55, 56
2,30824, Note_on_c, 0, 55, 0
2,30921, Note_on_c, 0, 52, 63
2,30923, Note_on_c, 0, 69, 72
2,30965, Note_on_c, 0, 52, 0
2,30997, Note_on_c, 0, 69, 0
2,31077, Note_on_c, 0, 63, 64
2,31084, Note_on_c, 0, 54, 64
2,31101, Note_on_c, 0, 45, 0
2,31148, Note_on_c, 0, 54, 0
2,31156, Note_on_c, 0, 63, 0
2,31244, Note_on_c, 0, 64, 68
2,31255, Note_on_c, 0, 55, 71
2,31256, Note_on_c, 0, 47, 62
2,31337, Note_on_c, 0, 72, 0
2,31396, Note_on_c, 0, 55, 0
2,31401, Note_on_c, 0, 57, 69
2,31465, Note_on_c, 0, 57, 0
2,31557, Note_on_c, 0, 54, 70
2,31569, Note_on_c, 0, 71, 74
2,31601, Note_on_c, 0, 54, 0
2,31647, Note_on_c, 0, 71, 0
2,31714, Note_on_c, 0, 55, 67
2,31717, Note_on_c, 0, 47, 0
2,31799, Note_on_c, 0, 55, 0
2,31900, Note_on_c, 0, 57, 67
2,31907, Note_on_c, 0, 48, 55
2,31907, Note_on_c, 0, 69, 76
2,31979, Note_on_c, 0, 48, 0
2,31994, Note_on_c, 0, 57, 0
2,32020, Note_on_c, 0, 69, 0
2,32061, Note_on_c, 0, 67, 69
2,32160, Note_on_c, 0, 67, 0
2,32222, Note_on_c, 0, 55, 60
2,32222, Note_on_c, 0, 69, 76
2,32242, Note_on_c, 0, 47, 45
2,32297, Note_on_c, 0, 69, 0
2,32350, Note_on_c, 0, 55, 0
2,32374, Note_on_c, 0, 71, 76
2,32375, Note_on_c, 0, 47, 0
2,32455, Note_on_c, 0, 71, 0
2,32558, Note_on_c, 0, 54, 48
2,32559, Note_on_c, 0, 72, 76
2,32563, Note_on_c, 0, 45, 46
2,32666, Note_on_c, 0, 45, 0
2,32740, Note_on_c, 0, 72, 0
2,32840, Note_on_c, 0, 54, 0
2,32892, Note_on_c, 0, 59, 62
2,32892, Note_on_c, 0, 66, 69
2,32901, Note_on_c, 0, 47, 52
2,32901, Note_on_c, 0, 63, 52
2,32909, Note_on_c, 0, 64, 0
2,32932, Note_on_c, 0, 59, 0
2,32964, Note_on_c, 0, 47, 0
2,33053, Note_on_c, 0, 45, 55
2,33111, Note_on_c, 0, 45, 0
2,33220, Note_on_c, 0, 52, 61
2,33227, Note_on_c, 0, 43, 50
2,33237, Note_on_c, 0, 71, 78
2,33243, Note_on_c, 0, 66, 0
2,33247, Note_on_c, 0, 64, 68
2,33258, Note_on_c, 0, 63, 0
2,33342, Note_on_c, 0, 71, 0
2,33385, Note_on_c, 0, 43, 0
2,33394, Note_on_c, 0, 69, 68
2,33486, Note_on_c, 0, 69, 0
2,33524, Note_on_c, 0, 45, 52
2,33546, Note_on_c, 0, 72, 66
2,33564, Note_on_c, 0, 52, 0
2,33567, Note_on_c, 0, 45, 0
2,33617, Note_on_c, 0, 72, 0
2,33700, Note_on_c, 0, 71, 63
2,33739, Note_on_c, 0, 71, 0
2,33818, Note_on_c, 0, 64, 0
2,33873, Note_on_c, 0, 69, 70
2,33881, Note_on_c, 0, 47, 55
2,33891, Note_on_c, 0, 59, 55
2,33959, Note_on_c, 0, 69, 0
2,33997, Note_on_c, 0, 59, 0
2,34027, Note_on_c, 0, 67, 64
2,34092, Note_on_c, 0, 67, 0
2,34193, Note_on_c, 0, 66, 69
2,34215, Note_on_c, 0, 57, 46
2,34219, Note_on_c, 0, 63, 34
2,34255, Note_on_c, 0, 66, 0
2,34264, Note_on_c, 0, 63, 0
2,34275, Note_on_c, 0, 57, 0
2,34350, Note_on_c, 0, 67, 64
2,34406, Note_on_c, 0, 67, 0
2,34535, Note_on_c, 0, 52, 42
2,34546, Note_on_c, 0, 56, 43
2,34561, Note_on_c, 0, 64, 64
2,34702, Note_on_c, 0, 52, 0
2,34716, Note_on_c, 0, 47, 0
2,34842, Note_on_c, 0, 64, 0
2,34904, Note_on_c, 0, 56, 0
2,34907, Note_on_c, 0, 52, 35
2,34909, Note_on_c, 0, 50, 40
2,34910, Note_on_c, 0, 76, 60
2,34954, Note_on_c, 0, 76, 0
2,34964, Note_on_c, 0, 52, 0
2,34969, Note_on_c, 0, 50, 0
2,35057, Note_on_c, 0, 77, 64
2,35098, Note_on_c, 0, 77, 0
2,35221, Note_on_c, 0, 54, 51
2,35223, Note_on_c, 0, 48, 43
2,35233, Note_on_c, 0, 76, 70
2,35266, Note_on_c, 0, 76, 0
2,35271, Note_on_c, 0, 48, 0
2,35277, Note_on_c, 0, 54, 0
2,35562, Note_on_c, 0, 74, 70
2,35564, Note_on_c, 0, 56, 43
2,35573, Note_on_c, 0, 47, 35
2,35595, Note_on_c, 0, 74, 0
2,35610, Note_on_c, 0, 56, 0
2,35616, Note_on_c, 0, 47, 0
2,35905, Note_on_c, 0, 72, 68
2,35918, Note_on_c, 0, 45, 28
2,35930, Note_on_c, 0, 57, 31
2,36102, Note_on_c, 0, 45, 0
2,36159, Note_on_c, 0, 72, 0
2,36235, Note_on_c, 0, 72, 68
2,36248, Note_on_c, 0, 57, 0
2,36256, Note_on_c, 0, 64, 43
2,36277, Note_on_c, 0, 59, 36
2,36291, Note_on_c, 0, 64, 0
2,36297, Note_on_c, 0, 72, 0
2,36315, Note_on_c, 0, 59, 0
2,36389, Note_on_c, 0, 74, 61
2,36437, Note_on_c, 0, 74, 0
2,36546, Note_on_c, 0, 72, 72
2,36547, Note_on_c, 0, 57, 51
2,36579, Note_on_c, 0, 66, 30
2,36595, Note_on_c, 0, 57, 0
2,36610, Note_on_c, 0, 72, 0
2,36621, Note_on_c, 0, 66, 0
2,36871, Note_on_c, 0, 55, 48
2,36871, Note_on_c, 0, 71, 67
2,36880, Note_on_c, 0, 67, 42
2,36916, Note_on_c, 0, 71, 0
2,36918, Note_on_c, 0, 67, 0
2,36922, Note_on_c, 0, 55, 0
2,37202, Note_on_c, 0, 54, 51
2,37208, Note_on_c, 0, 69, 73
2,37302, Note_on_c, 0, 69, 0
2,37353, Note_on_c, 0, 71, 75
2,37412, Note_on_c, 0, 54, 0
2,37413, Note_on_c, 0, 71, 0
2,37513, Note_on_c, 0, 72, 74
2,37518, Note_on_c, 0, 55, 48
2,37520, Note_on_c, 0, 57, 43
2,37549, Note_on_c, 0, 72, 0
2,37580, Note_on_c, 0, 55, 0
2,37601, Note_on_c, 0, 57, 0
2,37639, Note_on_c, 0, 71, 78
2,37681, Note_on_c, 0, 71, 0
2,37803, Note_on_c, 0, 54, 48
2,37810, Note_on_c, 0, 69, 82
2,37816, Note_on_c, 0, 59, 46
2,37850, Note_on_c, 0, 69, 0
2,37858, Note_on_c, 0, 54, 0
2,37864, Note_on_c, 0, 59, 0
2,38149, Note_on_c, 0, 61, 50
2,38152, Note_on_c, 0, 67, 76
2,38162, Note_on_c, 0, 52, 41
2,38230, Note_on_c, 0, 61, 0
2,38384, Note_on_c, 0, 52, 0
2,38434, Note_on_c, 0, 67, 0
2,38474, Note_on_c, 0, 50, 45
2,38474, Note_on_c, 0, 78, 74
2,38495, Note_on_c, 0, 62, 42
2,38507, Note_on_c, 0, 78, 0
2,38551, Note_on_c, 0, 62, 0
2,38788, Note_on_c, 0, 50, 0
2,38795, Note_on_c, 0, 81, 78
2,38800, Note_on_c, 0, 52, 42
2,38810, Note_on_c, 0, 62, 44
2,38846, Note_on_c, 0, 81, 0
2,39133, Note_on_c, 0, 50, 32
2,39136, Note_on_c, 0, 64, 59
2,39163, Note_on_c, 0, 62, 0
2,39195, Note_on_c, 0, 52, 0
2,39214, Note_on_c, 0, 64, 0
2,39455, Note_on_c, 0, 48, 47
2,39456, Note_on_c, 0, 76, 69
2,39467, Note_on_c, 0, 66, 51
2,39487, Note_on_c, 0, 50, 0
2,39583, Note_on_c, 0, 76, 0
2,39607, Note_on_c, 0, 66, 0
2,39759, Note_on_c, 0, 48, 0
2,39794, Note_on_c, 0, 74, 72
2,39800, Note_on_c, 0, 47, 47
2,39801, Note_on_c, 0, 67, 58
2,39943, Note_on_c, 0, 72, 71
2,39984, Note_on_c, 0, 74, 0
2,40048, Note_on_c, 0, 72, 0
2,40063, Note_on_c, 0, 47, 0
2,40093, Note_on_c, 0, 55, 51
2,40107, Note_on_c, 0, 59, 54
2,40111, Note_on_c, 0, 76, 65
2,40158, Note_on_c, 0, 76, 0
2,40256, Note_on_c, 0, 74, 65
2,40340, Note_on_c, 0, 74, 0
2,40435, Note_on_c, 0, 57, 68
2,40435, Note_on_c, 0, 72, 63
2,40508, Note_on_c, 0, 72, 0
2,40513, Note_on_c, 0, 55, 0
2,40582, Note_on_c, 0, 71, 64
2,40591, Note_on_c, 0, 59, 0
2,40750, Note_on_c, 0, 54, 60
2,40765, Note_on_c, 0, 74, 65
2,40775, Note_on_c, 0, 71, 0
2,40829, Note_on_c, 0, 74, 0
2,40895, Note_on_c, 0, 67, 0
2,40905, Note_on_c, 0, 72, 75
2,41000, Note_on_c, 0, 72, 0
2,41016, Note_on_c, 0, 57, 0
2,41039, Note_on_c, 0, 54, 0
2,41068, Note_on_c, 0, 55, 56
2,41079, Note_on_c, 0, 71, 76
2,41113, Note_on_c, 0, 71, 0
2,41224, Note_on_c, 0, 52, 53
2,41317, Note_on_c, 0, 52, 0
2,41384, Note_on_c, 0, 50, 63
2,41393, Note_on_c, 0, 72, 77
2,41430, Note_on_c, 0, 50, 0
2,41458, Note_on_c, 0, 72, 0
2,41556, Note_on_c, 0, 48, 60
2,41610, Note_on_c, 0, 48, 0
2,41713, Note_on_c, 0, 47, 47
2,41719, Note_on_c, 0, 74, 77
2,41857, Note_on_c, 0, 74, 0
2,41862, Note_on_c, 0, 71, 82
2,41927, Note_on_c, 0, 71, 0
2,41948, Note_on_c, 0, 47, 0
2,42025, Note_on_c, 0, 52, 54
2,42029, Note_on_c, 0, 69, 80
2,42075, Note_on_c, 0, 69, 0
2,42181, Note_on_c, 0, 67, 72
2,42231, Note_on_c, 0, 67, 0
2,42356, Note_on_c, 0, 76, 78
2,42366, Note_on_c, 0, 48, 55
2,42401, Note_on_c, 0, 76, 0
2,42423, Note_on_c, 0, 78, 80
2,42472, Note_on_c, 0, 55, 0
2,42481, Note_on_c, 0, 78, 0
2,42483, Note_on_c, 0, 76, 75
2,42626, Note_on_c, 0, 76, 0
2,42668, Note_on_c, 0, 48, 0
2,42672, Note_on_c, 0, 78, 87
2,42677, Note_on_c, 0, 74, 65
2,42680, Note_on_c, 0, 57, 60
2,42683, Note_on_c, 0, 45, 52
2,42698, Note_on_c, 0, 52, 0
2,42713, Note_on_c, 0, 74, 0
2,42723, Note_on_c, 0, 78, 0
2,42808, Note_on_c, 0, 76, 61
2,42811, Note_on_c, 0, 79, 77
2,42821, Note_on_c, 0, 57, 0
2,42847, Note_on_c, 0, 76, 0
2,42860, Note_on_c, 0, 79, 0
2,42980, Note_on_c, 0, 79, 88
2,42987, Note_on_c, 0, 50, 59
2,42995, Note_on_c, 0, 74, 67
2,43021, Note_on_c, 0, 45, 0
2,43023, Note_on_c, 0, 79, 0
2,43059, Note_on_c, 0, 78, 74
2,43095, Note_on_c, 0, 78, 0
2,43114, Note_on_c, 0, 79, 74
2,43130, Note_on_c, 0, 74, 0
2,43177, Note_on_c, 0, 79, 0
2,43183, Note_on_c, 0, 78, 80
2,43265, Note_on_c, 0, 78, 0
2,43318, Note_on_c, 0, 72, 80
2,43324, Note_on_c, 0, 38, 63
2,43380, Note_on_c, 0, 72, 0
2,43394, Note_on_c, 0, 38, 0
2,43465, Note_on_c, 0, 79, 83
2,43544, Note_on_c, 0, 79, 0
2,43638, Note_on_c, 0, 79, 84
2,43647, Note_on_c, 0, 71, 65
2,43649, Note_on_c, 0, 43, 65
2,43704, Note_on_c, 0, 43, 0
2,43737, Note_on_c, 0, 50, 0
2,43851, Note_on_c, 0, 71, 0
2,43978, Note_on_c, 0, 67, 74
2,44030, Note_on_c, 0, 67, 0
2,44123, Note_on_c, 0, 72, 50
2,44128, Note_on_c, 0, 69, 79
2,44171, Note_on_c, 0, 69, 0
2,44200, Note_on_c, 0, 72, 0
2,44302, Note_on_c, 0, 67, 75
2,44318, Note_on_c, 0, 71, 61
2,44335, Note_on_c, 0, 67, 0
2,44355, Note_on_c, 0, 71, 0
2,44632, Note_on_c, 0, 65, 66
2,44633, Note_on_c, 0, 69, 52
2,44678, Note_on_c, 0, 65, 0
2,44689, Note_on_c, 0, 69, 0
2,44827, Note_on_c, 0, 62, 15
2,44908, Note_on_c, 0, 62, 0
2,44953, Note_on_c, 0, 67, 45
2,44966, Note_on_c, 0, 64, 71
2,45142, Note_on_c, 0, 79, 0
2,45219, Note_on_c, 0, 64, 0
2,45238, Note_on_c, 0, 67, 0
2,45300, Note_on_c, 0, 64, 74
2,45309, Note_on_c, 0, 79, 66
2,45342, Note_on_c, 0, 64, 0
2,45386, Note_on_c, 0, 79, 0
2,45456, Note_on_c, 0, 65, 66
2,45458, Note_on_c, 0, 81, 72
2,45499, Note_on_c, 0, 65, 0
2,45503, Note_on_c, 0, 81, 0
2,45628, Note_on_c, 0, 64, 77
2,45628, Note_on_c, 0, 79, 74
2,45644, Note_on_c, 0, 69, 52
2,45666, Note_on_c, 0, 64, 0
2,45675, Note_on_c, 0, 69, 0
2,45712, Note_on_c, 0, 79, 0
2,45941, Note_on_c, 0, 77, 73
2,45946, Note_on_c, 0, 71, 57
2,45958, Note_on_c, 0, 62, 68
2,45988, Note_on_c, 0, 71, 0
2,46022, Note_on_c, 0, 62, 0
2,46051, Note_on_c, 0, 77, 0
2,46281, Note_on_c, 0, 76, 66
2,46291, Note_on_c, 0, 60, 65
2,46394, Note_on_c, 0, 60, 0
2,46449, Note_on_c, 0, 62, 69
2,46451, Note_on_c, 0, 74, 65
2,46497, Note_on_c, 0, 76, 0
2,46537, Note_on_c, 0, 62, 0
2,46570, Note_on_c, 0, 74, 0
2,46609, Note_on_c, 0, 64, 70
2,46613, Note_on_c, 0, 72, 77
2,46650, Note_on_c, 0, 64, 0
2,46690, Note_on_c, 0, 72, 0
2,46763, Note_on_c, 0, 74, 71
2,46764, Note_on_c, 0, 62, 68
2,46804, Note_on_c, 0, 62, 0
2,46853, Note_on_c, 0, 74, 0
2,46921, Note_on_c, 0, 60, 65
2,46932, Note_on_c, 0, 76, 75
2,46962, Note_on_c, 0, 60, 0
2,46989, Note_on_c, 0, 76, 0
2,47068, Note_on_c, 0, 77, 71
2,47163, Note_on_c, 0, 77, 0
2,47224, Note_on_c, 0, 58, 76
2,47224, Note_on_c, 0, 79, 79
2,47501, Note_on_c, 0, 58, 0
2,47530, Note_on_c, 0, 69, 83
2,47532, Note_on_c, 0, 73, 64
2,47569, Note_on_c, 0, 69, 0
2,47615, Note_on_c, 0, 73, 0
2,47685, Note_on_c, 0, 77, 69
2,47786, Note_on_c, 0, 77, 0
2,47804, Note_on_c, 0, 79, 0
2,47859, Note_on_c, 0, 76, 65
2,47860, Note_on_c, 0, 73, 79
2,47941, Note_on_c, 0, 73, 0
2,47998, Note_on_c, 0, 77, 68
2,48035, Note_on_c, 0, 76, 0
2,48105, Note_on_c, 0, 77, 0
2,48158, Note_on_c, 0, 79, 75
2,48284, Note_on_c, 0, 79, 0
2,48314, Note_on_c, 0, 81, 71
2,48403, Note_on_c, 0, 81, 0
2,48491, Note_on_c, 0, 67, 65
2,48495, Note_on_c, 0, 82, 63
2,48530, Note_on_c, 0, 79, 69
2,48532, Note_on_c, 0, 82, 0
2,48535, Note_on_c, 0, 67, 0
2,48583, Note_on_c, 0, 79, 0
2,48765, Note_on_c, 0, 81, 64
2,48807, Note_on_c, 0, 65, 60
2,48824, Note_on_c, 0, 64, 43
2,48864, Note_on_c, 0, 64, 0
2,48867, Note_on_c, 0, 81, 0
2,48898, Note_on_c, 0, 65, 0
2,48928, Note_on_c, 0, 73, 73
2,48984, Note_on_c, 0, 67, 65
2,49009, Note_on_c, 0, 73, 0
2,49054, Note_on_c, 0, 67, 0
2,49092, Note_on_c, 0, 74, 61
2,49137, Note_on_c, 0, 76, 17
2,49140, Note_on_c, 0, 65, 67
2,49143, Note_on_c, 0, 76, 0
2,49182, Note_on_c, 0, 65, 0
2,49242, Note_on_c, 0, 82, 79
2,49309, Note_on_c, 0, 64, 60
2,49320, Note_on_c, 0, 74, 0
2,49360, Note_on_c, 0, 82, 0
2,49361, Note_on_c, 0, 64, 0
2,49414, Note_on_c, 0, 79, 76
2,49431, Note_on_c, 0, 62, 56
2,49483, Note_on_c, 0, 62, 0
2,49576, Note_on_c, 0, 65, 56
2,49579, Note_on_c, 0, 71, 17
2,49627, Note_on_c, 0, 65, 0
2,49628, Note_on_c, 0, 71, 0
2,49708, Note_on_c, 0, 64, 63
2,49715, Note_on_c, 0, 73, 70
2,49757, Note_on_c, 0, 64, 0
2,49770, Note_on_c, 0, 79, 0
2,49823, Note_on_c, 0, 73, 0
2,49858, Note_on_c, 0, 81, 74
2,49872, Note_on_c, 0, 62, 41
2,49909, Note_on_c, 0, 62, 0
2,50014, Note_on_c, 0, 62, 63
2,50026, Note_on_c, 0, 77, 68
2,50030, Note_on_c, 0, 81, 0
2,50048, Note_on_c, 0, 74, 39
2,50119, Note_on_c, 0, 62, 0
2,50174, Note_on_c, 0, 77, 0
2,50181, Note_on_c, 0, 76, 63
2,50342, Note_on_c, 0, 64, 69
2,50357, Note_on_c, 0, 77, 68
2,50390, Note_on_c, 0, 76, 0
2,50424, Note_on_c, 0, 64, 0
2,50461, Note_on_c, 0, 77, 0
2,50517, Note_on_c, 0, 79, 71
2,50681, Note_on_c, 0, 65, 57
2,50691, Note_on_c, 0, 81, 80
2,50713, Note_on_c, 0, 79, 0
2,50725, Note_on_c, 0, 74, 0
2,50740, Note_on_c, 0, 81, 0
2,50830, Note_on_c, 0, 64, 69
2,50831, Note_on_c, 0, 65, 0
2,50931, Note_on_c, 0, 64, 0
2,50996, Note_on_c, 0, 62, 69
2,51000, Note_on_c, 0, 69, 71
2,51014, Note_on_c, 0, 65, 48
2,51059, Note_on_c, 0, 65, 0
2,51072, Note_on_c, 0, 62, 0
2,51089, Note_on_c, 0, 69, 0
2,51150, Note_on_c, 0, 60, 70
2,51268, Note_on_c, 0, 60, 0
2,51332, Note_on_c, 0, 58, 67
2,51341, Note_on_c, 0, 74, 61
2,51348, Note_on_c, 0, 67, 55
2,51405, Note_on_c, 0, 67, 0
2,51481, Note_on_c, 0, 74, 0
2,51503, Note_on_c, 0, 79, 67
2,51504, Note_on_c, 0, 73, 45
2,51557, Note_on_c, 0, 58, 0
2,51571, Note_on_c, 0, 73, 0
2,51627, Note_on_c, 0, 79, 0
2,51668, Note_on_c, 0, 57, 80
2,51680, Note_on_c, 0, 77, 73
2,51720, Note_on_c, 0, 57, 0
2,51756, Note_on_c, 0, 77, 0
2,51837, Note_on_c, 0, 55, 64
2,51859, Note_on_c, 0, 76, 49
2,51862, Note_on_c, 0, 57, 61
2,51866, Note_on_c, 0, 58, 15
2,51899, Note_on_c, 0, 57, 0
2,51916, Note_on_c, 0, 58, 0
2,51917, Note_on_c, 0, 55, 0
2,51968, Note_on_c, 0, 76, 0
2,51998, Note_on_c, 0, 77, 73
2,52002, Note_on_c, 0, 57, 73
2,52020, Note_on_c, 0, 73, 47
2,52060, Note_on_c, 0, 77, 0
2,52063, Note_on_c, 0, 76, 73
2,52080, Note_on_c, 0, 73, 0
2,52108, Note_on_c, 0, 73, 33
2,52120, Note_on_c, 0, 77, 66
2,52129, Note_on_c, 0, 76, 0
2,52180, Note_on_c, 0, 77, 0
2,52183, Note_on_c, 0, 76, 72
2,52343, Note_on_c, 0, 55, 84
2,52376, Note_on_c, 0, 73, 0
2,52432, Note_on_c, 0, 55, 0
2,52495, Note_on_c, 0, 76, 0
2,52496, Note_on_c, 0, 74, 75
2,52581, Note_on_c, 0, 74, 0
2,52680, Note_on_c, 0, 53, 75
2,52681, Note_on_c, 0, 74, 73
2,52822, Note_on_c, 0, 57, 0
2,52931, Note_on_c, 0, 53, 0
2,53014, Note_on_c, 0, 53, 65
2,53015, Note_on_c, 0, 57, 62
2,53033, Note_on_c, 0, 69, 66
2,53055, Note_on_c, 0, 57, 0
2,53065, Note_on_c, 0, 53, 0
2,53095, Note_on_c, 0, 69, 0
2,53164, Note_on_c, 0, 55, 79
2,53181, Note_on_c, 0, 70, 72
2,53210, Note_on_c, 0, 55, 0
2,53251, Note_on_c, 0, 70, 0
2,53347, Note_on_c, 0, 53, 68
2,53353, Note_on_c, 0, 69, 75
2,53354, Note_on_c, 0, 59, 71
2,53388, Note_on_c, 0, 53, 0
2,53405, Note_on_c, 0, 59, 0
2,53414, Note_on_c, 0, 74, 0
2,53425, Note_on_c, 0, 69, 0
2,53681, Note_on_c, 0, 76, 78
2,53682, Note_on_c, 0, 61, 68
2,53683, Note_on_c, 0, 52, 59
2,53694, Note_on_c, 0, 67, 64
2,53752, Note_on_c, 0, 67, 0
2,53765, Note_on_c, 0, 52, 0
2,53771, Note_on_c, 0, 61, 0
2,53827, Note_on_c, 0, 76, 0
2,54027, Note_on_c, 0, 77, 74
2,54029, Note_on_c, 0, 62, 64
2,54031, Note_on_c, 0, 50, 64
2,54040, Note_on_c, 0, 65, 47
2,54183, Note_on_c, 0, 52, 72
2,54198, Note_on_c, 0, 62, 0
2,54206, Note_on_c, 0, 50, 0
2,54268, Note_on_c, 0, 52, 0
2,54300, Note_on_c, 0, 65, 0
2,54343, Note_on_c, 0, 53, 74
2,54370, Note_on_c, 0, 69, 66
2,54388, Note_on_c, 0, 53, 0
2,54494, Note_on_c, 0, 69, 0
2,54500, Note_on_c, 0, 52, 77
2,54545, Note_on_c, 0, 52, 0
2,54673, Note_on_c, 0, 71, 71
2,54694, Note_on_c, 0, 50, 77
2,54766, Note_on_c, 0, 50, 0
2,54778, Note_on_c, 0, 71, 0
2,55038, Note_on_c, 0, 48, 77
2,55040, Note_on_c, 0, 72, 64
2,55348, Note_on_c, 0, 48, 0
2,55357, Note_on_c, 0, 59, 83
2,55358, Note_on_c, 0, 72, 0
2,55375, Note_on_c, 0, 74, 45
2,55390, Note_on_c, 0, 59, 0
2,55506, Note_on_c, 0, 72, 64
2,55593, Note_on_c, 0, 72, 0
2,55663, Note_on_c, 0, 77, 0
2,55700, Note_on_c, 0, 62, 72
2,55706, Note_on_c, 0, 71, 66
2,55777, Note_on_c, 0, 62, 0
2,55796, Note_on_c, 0, 71, 0
2,55866, Note_on_c, 0, 69, 63
2,55975, Note_on_c, 0, 74, 0
2,56031, Note_on_c, 0, 67, 65
2,56057, Note_on_c, 0, 69, 0
2,56203, Note_on_c, 0, 76, 66
2,56326, Note_on_c, 0, 67, 0
2,56383, Note_on_c, 0, 57, 65
2,56384, Note_on_c, 0, 74, 66
2,56400, Note_on_c, 0, 65, 56
2,56410, Note_on_c, 0, 76, 0
2,56435, Note_on_c, 0, 57, 0
2,56534, Note_on_c, 0, 72, 73
2,56542, Note_on_c, 0, 74, 0
2,56696, Note_on_c, 0, 72, 0
2,56697, Note_on_c, 0, 55, 62
2,56703, Note_on_c, 0, 71, 71
2,56830, Note_on_c, 0, 65, 0
2,56854, Note_on_c, 0, 53, 69
2,56864, Note_on_c, 0, 55, 0
2,56907, Note_on_c, 0, 53, 0
2,57027, Note_on_c, 0, 57, 64
2,57028, Note_on_c, 0, 71, 0
2,57028, Note_on_c, 0, 72, 75
2,57049, Note_on_c, 0, 64, 47
2,57074, Note_on_c, 0, 57, 0
2,57098, Note_on_c, 0, 64, 0
2,57184, Note_on_c, 0, 55, 68
2,57259, Note_on_c, 0, 55, 0
2,57350, Note_on_c, 0, 53, 67
2,57350, Note_on_c, 0, 62, 62
2,57497, Note_on_c, 0, 53, 0
2,57501, Note_on_c, 0, 52, 78
2,57566, Note_on_c, 0, 72, 0
2,57580, Note_on_c, 0, 52, 0
2,57665, Note_on_c, 0, 55, 74
2,57691, Note_on_c, 0, 71, 70
2,57711, Note_on_c, 0, 55, 0
2,57784, Note_on_c, 0, 71, 0
2,57826, Note_on_c, 0, 53, 75
2,57885, Note_on_c, 0, 53, 0
2,57996, Note_on_c, 0, 52, 81
2,58014, Note_on_c, 0, 72, 71
2,58039, Note_on_c, 0, 62, 0
2,58049, Note_on_c, 0, 52, 0
2,58163, Note_on_c, 0, 69, 66
2,58251, Note_on_c, 0, 69, 0
2,58339, Note_on_c, 0, 67, 64
2,58342, Note_on_c, 0, 53, 60
2,58392, Note_on_c, 0, 53, 0
2,58440, Note_on_c, 0, 67, 0
2,58494, Note_on_c, 0, 65, 68
2,58543, Note_on_c, 0, 65, 0
2,58668, Note_on_c, 0, 55, 54
2,58672, Note_on_c, 0, 64, 59
2,58822, Note_on_c, 0, 52, 52
2,58933, Note_on_c, 0, 55, 0
2,58984, Note_on_c, 0, 64, 0
2,58985, Note_on_c, 0, 70, 67
2,58989, Note_on_c, 0, 50, 49
2,58991, Note_on_c, 0, 67, 44
2,59020, Note_on_c, 0, 72, 0
2,59023, Note_on_c, 0, 52, 0
2,59142, Note_on_c, 0, 50, 0
2,59172, Note_on_c, 0, 48, 37
2,59297, Note_on_c, 0, 70, 0
2,59336, Note_on_c, 0, 69, 59
2,59345, Note_on_c, 0, 53, 47
2,59434, Note_on_c, 0, 67, 0
2,59467, Note_on_c, 0, 53, 0
2,59516, Note_on_c, 0, 52, 47
2,59636, Note_on_c, 0, 52, 0
2,59662, Note_on_c, 0, 48, 0
2,59681, Note_on_c, 0, 50, 49
2,59685, Note_on_c, 0, 65, 66
2,59736, Note_on_c, 0, 65, 0
2,59764, Note_on_c, 0, 50, 0
2,59832, Note_on_c, 0, 48, 52
2,59835, Note_on_c, 0, 67, 71
2,59898, Note_on_c, 0, 67, 0
2,60007, Note_on_c, 0, 65, 77
2,60010, Note_on_c, 0, 50, 51
2,60058, Note_on_c, 0, 48, 0
2,60064, Note_on_c, 0, 65, 0
2,60076, Note_on_c, 0, 50, 0
2,60172, Note_on_c, 0, 52, 40
2,60239, Note_on_c, 0, 52, 0
2,60317, Note_on_c, 0, 53, 53
2,60332, Note_on_c, 0, 64, 73
2,60390, Note_on_c, 0, 64, 0
2,60401, Note_on_c, 0, 53, 0
2,60476, Note_on_c, 0, 50, 51
2,60588, Note_on_c, 0, 50, 0
2,60657, Note_on_c, 0, 62, 73
2,60682, Note_on_c, 0, 47, 47
2,60716, Control_c, 0, 64, 25
2,60736, Control_c, 0, 64, 58
2,60755, Control_c, 0, 64, 65
2,60775, Control_c, 0, 64, 69
2,60791, Note_on_c, 0, 47, 0
2,60793, Control_c, 0, 64, 74
2,60813, Control_c, 0, 64, 81
2,60826, Note_on_c, 0, 62, 0
2,60832, Control_c, 0, 64, 88
2,60852, Control_c, 0, 64, 93
2,60870, Control_c, 0, 64, 98
2,60890, Control_c, 0, 64, 103
2,60909, Control_c, 0, 64, 109
2,60927, Control_c, 0, 64, 112
2,60947, Control_c, 0, 64, 113
2,60966, Control_c, 0, 64, 110
2,60986, Control_c, 0, 64, 91
2,60986, Note_on_c, 0, 62, 72
2,60991, Note_on_c, 0, 59, 66
2,61003, Note_on_c, 0, 68, 68
2,61004, Control_c, 0, 64, 70
2,61024, Control_c, 0, 64, 43
2,61032, Note_on_c, 0, 62, 0
2,61037, Note_on_c, 0, 59, 0
2,61043, Control_c, 0, 64, 0
2,61062, Note_on_c, 0, 68, 0
2,61068, Note_on_c, 0, 69, 0
2,61141, Note_on_c, 0, 60, 58
2,61147, Note_on_c, 0, 64, 70
2,61182, Note_on_c, 0, 60, 0
2,61222, Note_on_c, 0, 64, 0
2,61318, Note_on_c, 0, 62, 72
2,61320, Note_on_c, 0, 59, 61
2,61321, Note_on_c, 0, 48, 50
2,61335, Note_on_c, 0, 69, 58
2,61370, Note_on_c, 0, 69, 0
2,61406, Note_on_c, 0, 59, 0
2,61412, Note_on_c, 0, 62, 0
2,61641, Note_on_c, 0, 57, 48
2,61645, Note_on_c, 0, 71, 66
2,61649, Note_on_c, 0, 48, 0
2,61655, Note_on_c, 0, 60, 67
2,61661, Note_on_c, 0, 50, 38
2,61683, Note_on_c, 0, 71, 0
2,61735, Control_c, 0, 64, 41
2,61753, Control_c, 0, 64, 59
2,61773, Control_c, 0, 64, 64
2,61792, Control_c, 0, 64, 66
2,61812, Control_c, 0, 64, 68
2,61830, Control_c, 0, 64, 70
2,61838, Note_on_c, 0, 60, 0
2,61850, Control_c, 0, 64, 74
2,61857, Note_on_c, 0, 57, 0
2,61869, Control_c, 0, 64, 77
2,61887, Control_c, 0, 64, 80
2,61907, Control_c, 0, 64, 81
2,61926, Control_c, 0, 64, 81
2,61946, Control_c, 0, 64, 79
2,61964, Control_c, 0, 64, 74
2,61984, Control_c, 0, 64, 68
2,61995, Note_on_c, 0, 56, 48
2,61999, Note_on_c, 0, 64, 62
2,62000, Note_on_c, 0, 59, 70
2,62003, Control_c, 0, 64, 60
2,62022, Control_c, 0, 64, 25
2,62041, Control_c, 0, 64, 0
2,62061, Note_on_c, 0, 59, 0
2,62109, Note_on_c, 0, 50, 0
2,62162, Note_on_c, 0, 60, 70
2,62226, Note_on_c, 0, 60, 0
2,62321, Note_on_c, 0, 62, 71
2,62322, Note_on_c, 0, 52, 47
2,62374, Note_on_c, 0, 62, 0
2,62399, Note_on_c, 0, 52, 0
2,62471, Note_on_c, 0, 60, 73
2,62571, Note_on_c, 0, 64, 0
2,62572, Note_on_c, 0, 60, 0
2,62640, Note_on_c, 0, 50, 47
2,62641, Note_on_c, 0, 59, 78
2,62736, Note_on_c, 0, 56, 0
2,62764, Note_on_c, 0, 59, 0
2,62806, Note_on_c, 0, 66, 60
2,62892, Note_on_c, 0, 50, 0
2,62912, Note_on_c, 0, 66, 0
2,62965, Note_on_c, 0, 52, 53
2,62976, Note_on_c, 0, 57, 80
2,62984, Note_on_c, 0, 48, 38
2,62984, Note_on_c, 0, 68, 59
2,62985, Control_c, 0, 64, 28
2,63004, Control_c, 0, 64, 62
2,63006, Note_on_c, 0, 52, 0
2,63024, Control_c, 0, 64, 64
2,63026, Note_on_c, 0, 48, 0
2,63041, Note_on_c, 0, 57, 0
2,63042, Control_c, 0, 64, 66
2,63062, Control_c, 0, 64, 68
2,63064, Note_on_c, 0, 68, 0
2,63071, Note_on_c, 0, 62, 3
2,63081, Control_c, 0, 64, 73
2,63101, Control_c, 0, 64, 82
2,63119, Control_c, 0, 64, 96
2,63130, Note_on_c, 0, 69, 72
2,63139, Control_c, 0, 64, 127
2,63142, Note_on_c, 0, 62, 0
2,63174, Note_on_c, 0, 69, 0
2,63254, Control_c, 0, 64, 122
2,63273, Control_c, 0, 64, 77
2,63293, Control_c, 0, 64, 49
2,63302, Note_on_c, 0, 68, 90
2,63311, Control_c, 0, 64, 0
2,63314, Note_on_c, 0, 71, 72
2,63320, Note_on_c, 0, 47, 55
2,63335, Note_on_c, 0, 50, 58
2,63400, Note_on_c, 0, 68, 0
2,63403, Note_on_c, 0, 50, 0
2,63422, Note_on_c, 0, 71, 0
2,63486, Note_on_c, 0, 72, 66
2,63586, Note_on_c, 0, 47, 0
2,63607, Note_on_c, 0, 53, 65
2,63618, Note_on_c, 0, 50, 60
2,63641, Note_on_c, 0, 71, 75
2,63659, Note_on_c, 0, 50, 0
2,63659, Note_on_c, 0, 72, 0
2,63660, Note_on_c, 0, 53, 0
2,63675, Note_on_c, 0, 70, 40
2,63716, Note_on_c, 0, 70, 0
2,63742, Note_on_c, 0, 71, 0
2,63780, Note_on_c, 0, 52, 50
2,63781, Note_on_c, 0, 48, 55
2,63801, Note_on_c, 0, 72, 65
2,63824, Note_on_c, 0, 52, 0
2,63829, Note_on_c, 0, 48, 0
2,63931, Note_on_c, 0, 72, 0
2,63952, Note_on_c, 0, 50, 59
2,63957, Note_on_c, 0, 74, 65
2,63974, Note_on_c, 0, 47, 42
2,64026, Note_on_c, 0, 50, 0
2,64070, Note_on_c, 0, 47, 0
2,64284, Note_on_c, 0, 48, 51
2,64288, Note_on_c, 0, 65, 61
2,64314, Note_on_c, 0, 45, 18
2,64362, Note_on_c, 0, 45, 0
2,64426, Note_on_c, 0, 65, 0
2,64429, Note_on_c, 0, 48, 0
2,64617, Note_on_c, 0, 74, 0
2,64618, Note_on_c, 0, 64, 67
2,64620, Note_on_c, 0, 44, 34
2,64626, Note_on_c, 0, 47, 39
2,64752, Note_on_c, 0, 64, 0
2,64763, Note_on_c, 0, 62, 66
2,64830, Note_on_c, 0, 62, 0
2,64834, Note_on_c, 0, 44, 0
2,64857, Note_on_c, 0, 47, 0
2,64927, Note_on_c, 0, 65, 62
2,64928, Note_on_c, 0, 45, 44
2,64932, Note_on_c, 0, 72, 72
2,64937, Note_on_c, 0, 48, 44
2,64981, Note_on_c, 0, 65, 0
2,65035, Note_on_c, 0, 48, 0
2,65100, Note_on_c, 0, 64, 58
2,65179, Note_on_c, 0, 45, 0
2,65222, Note_on_c, 0, 64, 0
2,65258, Note_on_c, 0, 72, 0
2,65259, Note_on_c, 0, 50, 51
2,65262, Note_on_c, 0, 62, 65
2,65270, Note_on_c, 0, 47, 40
2,65358, Note_on_c, 0, 47, 0
2,65404, Note_on_c, 0, 60, 66
2,65407, Note_on_c, 0, 62, 0
2,65480, Note_on_c, 0, 60, 0
2,65576, Note_on_c, 0, 44, 54
2,65592, Note_on_c, 0, 71, 69
2,65597, Note_on_c, 0, 64, 57
2,65605, Note_on_c, 0, 47, 47
2,65645, Note_on_c, 0, 64, 0
2,65677, Note_on_c, 0, 50, 0
2,65749, Note_on_c, 0, 62, 54
2,65899, Note_on_c, 0, 47, 0
2,65902, Note_on_c, 0, 44, 0
2,65931, Note_on_c, 0, 52, 56
2,65931, Note_on_c, 0, 71, 0
2,65935, Note_on_c, 0, 45, 45
2,65935, Note_on_c, 0, 60, 67
2,65948, Note_on_c, 0, 62, 0
2,66142, Note_on_c, 0, 45, 0
2,66187, Note_on_c, 0, 60, 0
2,66255, Note_on_c, 0, 47, 49
2,66261, Note_on_c, 0, 69, 78
2,66266, Note_on_c, 0, 62, 64
2,66310, Note_on_c, 0, 62, 0
2,66324, Note_on_c, 0, 69, 0
2,66405, Note_on_c, 0, 68, 82
2,66489, Note_on_c, 0, 68, 0
2,66578, Note_on_c, 0, 48, 45
2,66578, Note_on_c, 0, 64, 68
2,66586, Note_on_c, 0, 69, 78
2,66625, Note_on_c, 0, 64, 0
2,66634, Note_on_c, 0, 47, 0
2,66662, Note_on_c, 0, 52, 0
2,66750, Note_on_c, 0, 60, 66
2,66839, Note_on_c, 0, 60, 0
2,66856, Note_on_c, 0, 69, 0
2,66921, Note_on_c, 0, 53, 53
2,66921, Note_on_c, 0, 59, 72
2,66963, Note_on_c, 0, 59, 0
2,67065, Note_on_c, 0, 57, 65
2,67131, Note_on_c, 0, 57, 0
2,67138, Note_on_c, 0, 48, 0
2,67222, Note_on_c, 0, 50, 48
2,67240, Note_on_c, 0, 65, 71
2,67297, Note_on_c, 0, 53, 0
2,67338, Note_on_c, 0, 65, 0
2,67389, Note_on_c, 0, 62, 64
2,67457, Note_on_c, 0, 62, 0
2,67555, Note_on_c, 0, 47, 43
2,67561, Note_on_c, 0, 64, 55
2,67609, Note_on_c, 0, 64, 0
2,67694, Note_on_c, 0, 65, 69
2,67737, Note_on_c, 0, 65, 0
2,67820, Note_on_c, 0, 50, 0
2,67836, Note_on_c, 0, 47, 0
2,67865, Note_on_c, 0, 60, 67
2,67890, Note_on_c, 0, 52, 54
2,67892, Note_on_c, 0, 68, 57
2,67931, Note_on_c, 0, 60, 0
2,67954, Note_on_c, 0, 59, 70
2,67998, Note_on_c, 0, 59, 0
2,68030, Note_on_c, 0, 60, 58
2,68072, Note_on_c, 0, 60, 0
2,68097, Note_on_c, 0, 59, 64
2,68206, Note_on_c, 0, 59, 0
2,68219, Note_on_c, 0, 40, 44
2,68299, Note_on_c, 0, 52, 0
2,68371, Note_on_c, 0, 68, 0
2,68405, Note_on_c, 0, 57, 58
2,68607, Note_on_c, 0, 57, 0
2,68609, Note_on_c, 0, 40, 0
2,68625, Note_on_c, 0, 45, 41
2,68634, Note_on_c, 0, 69, 67
2,68727, Note_on_c, 0, 45, 0
2,68745, Control_c, 0, 64, 30
2,68763, Control_c, 0, 64, 49
2,68783, Control_c, 0, 64, 54
2,68802, Control_c, 0, 64, 55
2,68820, Control_c, 0, 64, 57
2,68840, Control_c, 0, 64, 58
2,68859, Control_c, 0, 64, 60
2,68879, Control_c, 0, 64, 62
2,68897, Control_c, 0, 64, 63
2,68904, Note_on_c, 0, 69, 0
2,68917, Control_c, 0, 64, 64
2,68936, Control_c, 0, 64, 65
2,68955, Control_c, 0, 64, 66
2,68974, Control_c, 0, 64, 65
2,68994, Control_c, 0, 64, 60
2,69000, Note_on_c, 0, 69, 91
2,69002, Note_on_c, 0, 57, 56
2,69013, Control_c, 0, 64, 32
2,69032, Control_c, 0, 64, 0
2,69061, Note_on_c, 0, 69, 0
2,69065, Note_on_c, 0, 57, 0
2,69155, Note_on_c, 0, 68, 86
2,69238, Note_on_c, 0, 68, 0
2,69348, Note_on_c, 0, 69, 90
2,69349, Note_on_c, 0, 48, 54
2,69399, Note_on_c, 0, 48, 0
2,69418, Note_on_c, 0, 69, 0
2,69663, Note_on_c, 0, 52, 53
2,69692, Note_on_c, 0, 71, 88
2,69745, Note_on_c, 0, 52, 0
2,69767, Note_on_c, 0, 71, 0
2,70023, Note_on_c, 0, 45, 62
2,70025, Note_on_c, 0, 72, 89
2,70085, Control_c, 0, 64, 48
2,70091, Note_on_c, 0, 45, 0
2,70105, Control_c, 0, 64, 57
2,70123, Control_c, 0, 64, 58
2,70143, Control_c, 0, 64, 60
2,70162, Control_c, 0, 64, 62
2,70182, Control_c, 0, 64, 63
2,70200, Control_c, 0, 64, 64
2,70258, Control_c, 0, 64, 64
2,70277, Control_c, 0, 64, 65
2,70297, Control_c, 0, 64, 65
2,70309, Note_on_c, 0, 72, 0
2,70335, Control_c, 0, 64, 65
2,70354, Control_c, 0, 64, 63
2,70374, Control_c, 0, 64, 55
2,70381, Note_on_c, 0, 57, 77
2,70388, Note_on_c, 0, 53, 64
2,70392, Control_c, 0, 64, 0
2,70403, Note_on_c, 0, 72, 64
2,70426, Note_on_c, 0, 57, 0
2,70437, Note_on_c, 0, 53, 0
2,70465, Note_on_c, 0, 72, 0
2,70520, Note_on_c, 0, 56, 85
2,70546, Note_on_c, 0, 71, 69
2,70587, Note_on_c, 0, 56, 0
2,70613, Note_on_c, 0, 71, 0
2,70709, Note_on_c, 0, 57, 85
2,70711, Note_on_c, 0, 52, 75
2,70717, Note_on_c, 0, 72, 76
2,70754, Note_on_c, 0, 52, 0
2,70763, Note_on_c, 0, 57, 0
2,70773, Note_on_c, 0, 72, 0
2,71053, Note_on_c, 0, 74, 76
2,71054, Note_on_c, 0, 59, 89
2,71057, Note_on_c, 0, 50, 45
2,71105, Note_on_c, 0, 50, 0
2,71127, Note_on_c, 0, 59, 0
2,71133, Note_on_c, 0, 74, 0
2,71383, Note_on_c, 0, 48, 67
2,71385, Note_on_c, 0, 60, 80
2,71396, Note_on_c, 0, 76, 78
2,71510, Note_on_c, 0, 48, 0
2,71552, Note_on_c, 0, 74, 73
2,71563, Control_c, 0, 64, 33
2,71578, Note_on_c, 0, 60, 0
2,71583, Control_c, 0, 64, 44
2,71602, Control_c, 0, 64, 49
2,71622, Control_c, 0, 64, 53
2,71640, Control_c, 0, 64, 55
2,71660, Control_c, 0, 64, 56
2,71665, Note_on_c, 0, 74, 0
2,71678, Note_on_c, 0, 76, 0
2,71679, Control_c, 0, 64, 55
2,71698, Control_c, 0, 64, 50
2,71711, Note_on_c, 0, 57, 64
2,71713, Note_on_c, 0, 72, 87
2,71715, Note_on_c, 0, 60, 68
2,71717, Control_c, 0, 64, 32
2,71737, Control_c, 0, 64, 0
2,71756, Note_on_c, 0, 60, 0
2,71757, Note_on_c, 0, 57, 0
2,71798, Note_on_c, 0, 72, 0
2,71862, Note_on_c, 0, 74, 87
2,71870, Note_on_c, 0, 59, 70
2,71918, Note_on_c, 0, 59, 0
2,71944, Note_on_c, 0, 74, 0
2,72029, Note_on_c, 0, 76, 87
2,72039, Note_on_c, 0, 60, 66
2,72041, Note_on_c, 0, 55, 55
2,72084, Note_on_c, 0, 55, 0
2,72100, Note_on_c, 0, 60, 0
2,72124, Note_on_c, 0, 76, 0
2,72361, Note_on_c, 0, 77, 87
2,72364, Note_on_c, 0, 62, 57
2,72371, Control_c, 0, 64, 53
2,72387, Note_on_c, 0, 53, 41
2,72389, Control_c, 0, 64, 70
2,72408, Control_c, 0, 64, 86
2,72420, Note_on_c, 0, 77, 0
2,72428, Control_c, 0, 64, 127
2,72466, Note_on_c, 0, 62, 0
2,72674, Note_on_c, 0, 53, 0
2,72677, Control_c, 0, 64, 73
2,72692, Note_on_c, 0, 64, 70
2,72695, Note_on_c, 0, 68, 85
2,72697, Control_c, 0, 64, 14
2,72709, Note_on_c, 0, 52, 53
2,72716, Control_c, 0, 64, 0
2,72736, Note_on_c, 0, 64, 0
2,72784, Note_on_c, 0, 68, 0
2,72840, Note_on_c, 0, 62, 59
2,72953, Note_on_c, 0, 62, 0
2,72966, Note_on_c, 0, 52, 0
2,73018, Note_on_c, 0, 64, 79
2,73019, Note_on_c, 0, 57, 52
2,73031, Note_on_c, 0, 60, 47
2,73069, Note_on_c, 0, 60, 0
2,73076, Note_on_c, 0, 57, 0
2,73145, Note_on_c, 0, 64, 0
2,73181, Note_on_c, 0, 55, 46
2,73197, Note_on_c, 0, 62, 55
2,73264, Note_on_c, 0, 55, 0
2,73288, Note_on_c, 0, 62, 0
2,73354, Note_on_c, 0, 53, 53
2,73368, Note_on_c, 0, 64, 65
2,73422, Note_on_c, 0, 53, 0
2,73422, Note_on_c, 0, 64, 0
2,73526, Note_on_c, 0, 52, 47
2,73653, Note_on_c, 0, 52, 0
2,73692, Note_on_c, 0, 50, 57
2,73697, Note_on_c, 0, 65, 80
2,73714, Control_c, 0, 64, 59
2,73734, Control_c, 0, 64, 64
2,73752, Control_c, 0, 64, 65
2,73756, Note_on_c, 0, 65, 0
2,73772, Control_c, 0, 64, 67
2,73791, Control_c, 0, 64, 70
2,73810, Control_c, 0, 64, 77
2,73827, Note_on_c, 0, 50, 0
2,73829, Control_c, 0, 64, 87
2,73848, Control_c, 0, 64, 102
2,73864, Note_on_c, 0, 48, 48
2,73868, Control_c, 0, 64, 127
2,73934, Note_on_c, 0, 48, 0
2,73983, Control_c, 0, 64, 114
2,74002, Control_c, 0, 64, 74
2,74021, Note_on_c, 0, 56, 84
2,74022, Control_c, 0, 64, 28
2,74024, Note_on_c, 0, 71, 80
2,74025, Note_on_c, 0, 47, 65
2,74040, Control_c, 0, 64, 0
2,74060, Note_on_c, 0, 47, 0
2,74067, Note_on_c, 0, 56, 0
2,74142, Note_on_c, 0, 71, 0
2,74190, Note_on_c, 0, 72, 71
2,74292, Note_on_c, 0, 72, 0
2,74337, Note_on_c, 0, 52, 58
2,74349, Note_on_c, 0, 60, 59
2,74358, Note_on_c, 0, 69, 76
2,74421, Note_on_c, 0, 60, 0
2,74445, Note_on_c, 0, 69, 0
2,74512, Note_on_c, 0, 59, 62
2,74517, Note_on_c, 0, 71, 78
2,74574, Note_on_c, 0, 71, 0
2,74628, Note_on_c, 0, 59, 0
2,74679, Note_on_c, 0, 72, 82
2,74685, Note_on_c, 0, 57, 63
2,74778, Note_on_c, 0, 57, 0
2,74810, Note_on_c, 0, 72, 0
2,74837, Note_on_c, 0, 55, 64
2,74838, Note_on_c, 0, 74, 66
2,74848, Note_on_c, 0, 52, 0
2,74893, Note_on_c, 0, 55, 0
2,74924, Note_on_c, 0, 74, 0
2,75003, Note_on_c, 0, 53, 52
2,75005, Note_on_c, 0, 57, 57
2,75006, Note_on_c, 0, 71, 76
2,75049, Note_on_c, 0, 53, 0
2,75063, Note_on_c, 0, 57, 0
2,75081, Note_on_c, 0, 71, 0
2,75160, Note_on_c, 0, 72, 77
2,75168, Note_on_c, 0, 52, 62
2,75225, Note_on_c, 0, 72, 0
2,75236, Note_on_c, 0, 52, 0
2,75324, Note_on_c, 0, 74, 75
2,75341, Note_on_c, 0, 59, 70
2,75348, Note_on_c, 0, 50, 52
2,75427, Note_on_c, 0, 74, 0
2,75430, Note_on_c, 0, 59, 0
2,75494, Note_on_c, 0, 60, 68
2,75546, Note_on_c, 0, 60, 0
2,75653, Note_on_c, 0, 57, 55
2,75669, Note_on_c, 0, 72, 77
2,75706, Note_on_c, 0, 57, 0
2,75757, Note_on_c, 0, 72, 0
2,75814, Note_on_c, 0, 59, 65
2,75821, Note_on_c, 0, 50, 0
2,75941, Note_on_c, 0, 59, 0
2,75986, Note_on_c, 0, 60, 65
2,75988, Note_on_c, 0, 71, 78
2,75993, Note_on_c, 0, 52, 50
2,76091, Note_on_c, 0, 71, 0
2,76110, Note_on_c, 0, 60, 0
2,76153, Note_on_c, 0, 62, 62
2,76199, Note_on_c, 0, 62, 0
2,76305, Note_on_c, 0, 76, 78
2,76331, Note_on_c, 0, 59, 63
2,76392, Note_on_c, 0, 59, 0
2,76435, Note_on_c, 0, 76, 0
2,76478, Note_on_c, 0, 52, 0
2,76484, Note_on_c, 0, 60, 64
2,76606, Note_on_c, 0, 60, 0
2,76657, Note_on_c, 0, 62, 64
2,76658, Note_on_c, 0, 69, 82
2,76661, Note_on_c, 0, 53, 61
2,76765, Note_on_c, 0, 62, 0
2,76973, Note_on_c, 0, 53, 0
2,76973, Note_on_c, 0, 69, 0
2,76991, Note_on_c, 0, 60, 51
2,76995, Note_on_c, 0, 52, 50
2,77007, Note_on_c, 0, 81, 88
2,77169, Note_on_c, 0, 60, 0
2,77324, Note_on_c, 0, 52, 0
2,77325, Note_on_c, 0, 59, 65
2,77333, Note_on_c, 0, 50, 56
2,77445, Note_on_c, 0, 50, 0
2,77702, Note_on_c, 0, 52, 52
2,77702, Note_on_c, 0, 64, 52
2,77708, Note_on_c, 0, 79, 77
2,77711, Control_c, 0, 64, 43
2,77729, Control_c, 0, 64, 55
2,77749, Control_c, 0, 64, 59
2,77759, Note_on_c, 0, 64, 0
2,77762, Note_on_c, 0, 59, 0
2,77768, Control_c, 0, 64, 61
2,77788, Control_c, 0, 64, 63
2,77806, Control_c, 0, 64, 65
2,77826, Control_c, 0, 64, 67
2,77845, Control_c, 0, 64, 70
2,77851, Note_on_c, 0, 52, 0
2,77865, Control_c, 0, 64, 75
2,77868, Note_on_c, 0, 81, 0
2,77883, Control_c, 0, 64, 82
2,77902, Control_c, 0, 64, 94
2,77922, Control_c, 0, 64, 113
2,77940, Control_c, 0, 64, 127
2,77999, Control_c, 0, 64, 92
2,78018, Control_c, 0, 64, 62
2,78038, Control_c, 0, 64, 0
2,78046, Note_on_c, 0, 57, 68
2,78049, Note_on_c, 0, 48, 54
2,78184, Note_on_c, 0, 48, 0
2,78361, Note_on_c, 0, 47, 53
2,78385, Note_on_c, 0, 84, 79
2,78390, Note_on_c, 0, 79, 0
2,78420, Note_on_c, 0, 47, 0
2,78420, Note_on_c, 0, 84, 0
2,78539, Note_on_c, 0, 83, 74
2,78575, Note_on_c, 0, 83, 0
2,78706, Note_on_c, 0, 48, 44
2,78710, Note_on_c, 0, 81, 80
2,78815, Note_on_c, 0, 48, 0
2,78831, Note_on_c, 0, 81, 0
2,78865, Note_on_c, 0, 79, 75
2,78907, Note_on_c, 0, 79, 0
2,79010, Note_on_c, 0, 45, 48
2,79035, Note_on_c, 0, 78, 63
2,79077, Note_on_c, 0, 45, 0
2,79087, Note_on_c, 0, 78, 0
2,79177, Note_on_c, 0, 76, 62
2,79241, Note_on_c, 0, 76, 0
2,79334, Note_on_c, 0, 75, 68
2,79344, Control_c, 0, 64, 29
2,79361, Note_on_c, 0, 47, 42
2,79363, Control_c, 0, 64, 55
2,79369, Note_on_c, 0, 75, 0
2,79381, Control_c, 0, 64, 59
2,79391, Note_on_c, 0, 57, 0
2,79401, Control_c, 0, 64, 61
2,79420, Control_c, 0, 64, 63
2,79439, Control_c, 0, 64, 63
2,79574, Control_c, 0, 64, 64
2,79632, Control_c, 0, 64, 62
2,79650, Control_c, 0, 64, 53
2,79661, Note_on_c, 0, 55, 48
2,79662, Note_on_c, 0, 64, 66
2,79670, Control_c, 0, 64, 0
2,79696, Note_on_c, 0, 71, 33
2,79708, Note_on_c, 0, 64, 0
2,79710, Note_on_c, 0, 55, 0
2,79733, Note_on_c, 0, 71, 0
2,79814, Note_on_c, 0, 54, 54
2,79814, Note_on_c, 0, 63, 64
2,79857, Note_on_c, 0, 54, 0
2,79870, Note_on_c, 0, 63, 0
2,79976, Note_on_c, 0, 55, 54
2,79984, Note_on_c, 0, 64, 71
2,80010, Note_on_c, 0, 73, 44
2,80021, Note_on_c, 0, 55, 0
2,80028, Note_on_c, 0, 64, 0
2,80035, Note_on_c, 0, 47, 0
2,80043, Note_on_c, 0, 73, 0
2,80312, Note_on_c, 0, 57, 50
2,80313, Note_on_c, 0, 66, 68
2,80321, Note_on_c, 0, 45, 37
2,80369, Note_on_c, 0, 45, 0
2,80381, Note_on_c, 0, 57, 0
2,80394, Note_on_c, 0, 66, 0
2,80647, Control_c, 0, 64, 14
2,80647, Note_on_c, 0, 59, 57
2,80650, Note_on_c, 0, 47, 43
2,80654, Note_on_c, 0, 67, 62
2,80656, Note_on_c, 0, 76, 50
2,80667, Control_c, 0, 64, 59
2,80685, Control_c, 0, 64, 62
2,80687, Note_on_c, 0, 47, 0
2,80693, Note_on_c, 0, 59, 0
2,80724, Control_c, 0, 64, 62
2,80724, Note_on_c, 0, 76, 0
2,80744, Control_c, 0, 64, 63
2,80762, Control_c, 0, 64, 64
2,80781, Control_c, 0, 64, 66
2,80801, Control_c, 0, 64, 67
2,80808, Note_on_c, 0, 67, 0
2,80808, Note_on_c, 0, 74, 42
2,80819, Control_c, 0, 64, 70
2,80839, Control_c, 0, 64, 73
2,80858, Control_c, 0, 64, 77
2,80878, Control_c, 0, 64, 80
2,80896, Control_c, 0, 64, 82
2,80916, Control_c, 0, 64, 82
2,80935, Control_c, 0, 64, 80
2,80955, Control_c, 0, 64, 71
2,80966, Note_on_c, 0, 74, 0
2,80971, Note_on_c, 0, 52, 62
2,80973, Control_c, 0, 64, 54
2,80985, Note_on_c, 0, 64, 59
2,80985, Note_on_c, 0, 72, 61
2,80993, Control_c, 0, 64, 0
2,81012, Note_on_c, 0, 52, 0
2,81024, Note_on_c, 0, 72, 0
2,81122, Note_on_c, 0, 51, 71
2,81146, Note_on_c, 0, 71, 53
2,81195, Note_on_c, 0, 51, 0
2,81299, Note_on_c, 0, 71, 0
2,81312, Note_on_c, 0, 52, 73
2,81327, Note_on_c, 0, 72, 65
2,81355, Note_on_c, 0, 52, 0
2,81359, Note_on_c, 0, 64, 0
2,81375, Note_on_c, 0, 72, 0
2,81648, Note_on_c, 0, 69, 65
2,81653, Note_on_c, 0, 63, 65
2,81655, Note_on_c, 0, 54, 67
2,81689, Note_on_c, 0, 63, 0
2,81701, Note_on_c, 0, 69, 0
2,81716, Note_on_c, 0, 54, 0
2,81977, Note_on_c, 0, 64, 69
2,81988, Note_on_c, 0, 55, 63
2,81990, Note_on_c, 0, 71, 78
2,82030, Control_c, 0, 64, 55
2,82049, Control_c, 0, 64, 61
2,82052, Note_on_c, 0, 55, 0
2,82066, Note_on_c, 0, 71, 0
2,82068, Control_c, 0, 64, 59
2,82087, Control_c, 0, 64, 59
2,82107, Control_c, 0, 64, 60
2,82125, Control_c, 0, 64, 62
2,82138, Note_on_c, 0, 69, 75
2,82145, Control_c, 0, 64, 63
2,82164, Control_c, 0, 64, 64
2,82183, Control_c, 0, 64, 64
2,82221, Control_c, 0, 64, 65
2,82236, Note_on_c, 0, 69, 0
2,82241, Control_c, 0, 64, 64
2,82259, Control_c, 0, 64, 64
2,82279, Control_c, 0, 64, 59
2,82297, Note_on_c, 0, 55, 59
2,82298, Control_c, 0, 64, 0
2,82308, Note_on_c, 0, 76, 76
2,82309, Note_on_c, 0, 67, 71
2,82332, Note_on_c, 0, 64, 0
2,82340, Note_on_c, 0, 55, 0
2,82342, Note_on_c, 0, 67, 0
2,82365, Note_on_c, 0, 76, 0
2,82451, Note_on_c, 0, 54, 57
2,82458, Note_on_c, 0, 75, 77
2,82461, Note_on_c, 0, 69, 54
2,82490, Note_on_c, 0, 69, 0
2,82515, Note_on_c, 0, 54, 0
2,82526, Note_on_c, 0, 75, 0
2,82637, Note_on_c, 0, 76, 79
2,82643, Note_on_c, 0, 71, 71
2,82653, Note_on_c, 0, 55, 51
2,82675, Note_on_c, 0, 71, 0
2,82680, Note_on_c, 0, 76, 0
2,82687, Note_on_c, 0, 55, 0
2,82967, Note_on_c, 0, 78, 78
2,82968, Note_on_c, 0, 72, 70
2,82980, Note_on_c, 0, 57, 61
2,83009, Control_c, 0, 64, 42
2,83029, Control_c, 0, 64, 62
2,83048, Control_c, 0, 64, 64
2,83068, Control_c, 0, 64, 64
2,83086, Control_c, 0, 64, 65
2,83106, Control_c, 0, 64, 66
2,83125, Control_c, 0, 64, 69
2,83145, Control_c, 0, 64, 74
2,83163, Control_c, 0, 64, 80
2,83182, Control_c, 0, 64, 86
2,83202, Control_c, 0, 64, 90
2,83218, Note_on_c, 0, 57, 0
2,83220, Control_c, 0, 64, 93
2,83234, Note_on_c, 0, 78, 0
2,83238, Note_on_c, 0, 72, 0
2,83259, Control_c, 0, 64, 86
2,83279, Control_c, 0, 64, 69
2,83288, Note_on_c, 0, 63, 67
2,83295, Note_on_c, 0, 59, 66
2,83297, Control_c, 0, 64, 0
2,83297, Note_on_c, 0, 79, 82
2,83330, Note_on_c, 0, 63, 0
2,83352, Note_on_c, 0, 59, 0
2,83353, Note_on_c, 0, 79, 0
2,83439, Note_on_c, 0, 57, 66
2,83493, Note_on_c, 0, 57, 0
2,83603, Note_on_c, 0, 55, 60
2,83616, Note_on_c, 0, 59, 57
2,83618, Note_on_c, 0, 79, 79
2,83644, Note_on_c, 0, 55, 0
2,83651, Note_on_c, 0, 59, 0
2,83682, Note_on_c, 0, 79, 0
2,83755, Note_on_c, 0, 57, 65
2,83768, Note_on_c, 0, 78, 76
2,83800, Note_on_c, 0, 57, 0
2,83849, Note_on_c, 0, 78, 0
2,83933, Note_on_c, 0, 59, 75
2,83943, Note_on_c, 0, 79, 81
2,83974, Note_on_c, 0, 59, 0
2,84010, Note_on_c, 0, 79, 0
2,84271, Note_on_c, 0, 81, 75
2,84276, Control_c, 0, 64, 44
2,84278, Note_on_c, 0, 64, 74
2,84286, Note_on_c, 0, 60, 65
2,84295, Control_c, 0, 64, 62
2,84301, Note_on_c, 0, 81, 0
2,84315, Control_c, 0, 64, 64
2,84333, Control_c, 0, 64, 65
2,84345, Note_on_c, 0, 64, 0
2,84353, Control_c, 0, 64, 67
2,84372, Control_c, 0, 64, 70
2,84391, Control_c, 0, 64, 76
2,84410, Control_c, 0, 64, 84
2,84430, Control_c, 0, 64, 94
2,84449, Control_c, 0, 64, 104
2,84468, Control_c, 0, 64, 117
2,84487, Control_c, 0, 64, 127
2,84581, Control_c, 0, 64, 83
2,84587, Note_on_c, 0, 51, 76
2,84600, Control_c, 0, 64, 59
2,84602, Note_on_c, 0, 60, 0
2,84614, Note_on_c, 0, 71, 69
2,84619, Control_c, 0, 64, 0
2,84619, Note_on_c, 0, 66, 60
2,84645, Note_on_c, 0, 51, 0
2,84670, Note_on_c, 0, 66, 0
2,84767, Note_on_c, 0, 67, 55
2,84857, Note_on_c, 0, 67, 0
2,84927, Note_on_c, 0, 47, 66
2,84942, Note_on_c, 0, 64, 63
2,84986, Note_on_c, 0, 64, 0
2,85023, Note_on_c, 0, 47, 0
2,85091, Note_on_c, 0, 66, 69
2,85196, Note_on_c, 0, 66, 0
2,85257, Note_on_c, 0, 67, 71
2,85379, Note_on_c, 0, 67, 0
2,85416, Note_on_c, 0, 69, 71
2,85498, Note_on_c, 0, 69, 0
2,85578, Note_on_c, 0, 52, 60
2,85596, Note_on_c, 0, 66, 58
2,85644, Note_on_c, 0, 52, 0
2,85657, Note_on_c, 0, 66, 0
2,85742, Note_on_c, 0, 67, 64
2,85811, Note_on_c, 0, 67, 0
2,85905, Note_on_c, 0, 69, 66
2,85906, Note_on_c, 0, 54, 70
2,86029, Note_on_c, 0, 54, 0
2,86038, Note_on_c, 0, 69, 0
2,86068, Note_on_c, 0, 55, 70
2,86114, Note_on_c, 0, 55, 0
2,86226, Note_on_c, 0, 52, 62
2,86238, Note_on_c, 0, 67, 57
2,86268, Note_on_c, 0, 52, 0
2,86283, Note_on_c, 0, 67, 0
2,86373, Note_on_c, 0, 54, 66
2,86408, Note_on_c, 0, 54, 0
2,86520, Note_on_c, 0, 71, 0
2,86534, Note_on_c, 0, 55, 69
2,86560, Note_on_c, 0, 66, 70
2,86594, Note_on_c, 0, 55, 0
2,86616, Control_c, 0, 64, 34
2,86636, Control_c, 0, 64, 52
2,86656, Control_c, 0, 64, 58
2,86676, Control_c, 0, 64, 59
2,86683, Note_on_c, 0, 57, 62
2,86695, Control_c, 0, 64, 59
2,86715, Control_c, 0, 64, 60
2,86733, Control_c, 0, 64, 62
2,86739, Note_on_c, 0, 57, 0
2,86753, Control_c, 0, 64, 63
2,86754, Note_on_c, 0, 66, 0
2,86772, Control_c, 0, 64, 64
2,86791, Control_c, 0, 64, 66
2,86810, Control_c, 0, 64, 66
2,86830, Control_c, 0, 64, 62
2,86849, Control_c, 0, 64, 28
2,86851, Note_on_c, 0, 54, 71
2,86868, Control_c, 0, 64, 0
2,86876, Note_on_c, 0, 76, 75
2,86879, Note_on_c, 0, 71, 62
2,86894, Note_on_c, 0, 54, 0
2,86924, Note_on_c, 0, 71, 0
2,86948, Note_on_c, 0, 76, 0
2,87007, Note_on_c, 0, 55, 62
2,87018, Note_on_c, 0, 74, 77
2,87048, Note_on_c, 0, 55, 0
2,87068, Note_on_c, 0, 74, 0
2,87188, Note_on_c, 0, 72, 82
2,87202, Note_on_c, 0, 57, 58
2,87213, Note_on_c, 0, 64, 60
2,87270, Note_on_c, 0, 57, 0
2,87300, Note_on_c, 0, 72, 0
2,87364, Note_on_c, 0, 71, 83
2,87455, Note_on_c, 0, 71, 0
2,87524, Note_on_c, 0, 55, 60
2,87528, Note_on_c, 0, 69, 80
2,87572, Note_on_c, 0, 55, 0
2,87592, Note_on_c, 0, 69, 0
2,87675, Note_on_c, 0, 71, 84
2,87750, Note_on_c, 0, 71, 0
2,87855, Note_on_c, 0, 72, 84
2,87860, Note_on_c, 0, 54, 55
2,87969, Note_on_c, 0, 64, 0
2,88180, Note_on_c, 0, 72, 0
2,88193, Note_on_c, 0, 71, 70
2,88194, Note_on_c, 0, 59, 59
2,88205, Note_on_c, 0, 54, 0
2,88208, Note_on_c, 0, 63, 51
2,88272, Note_on_c, 0, 63, 0
2,88340, Note_on_c, 0, 69, 74
2,88467, Note_on_c, 0, 59, 0
2,88504, Note_on_c, 0, 71, 0
2,88520, Note_on_c, 0, 69, 0
2,88526, Note_on_c, 0, 67, 68
2,88530, Note_on_c, 0, 52, 47
2,88539, Note_on_c, 0, 64, 52
2,88737, Note_on_c, 0, 52, 0
2,88877, Note_on_c, 0, 72, 66
2,88880, Note_on_c, 0, 52, 45
2,88881, Note_on_c, 0, 67, 0
2,88916, Note_on_c, 0, 52, 0
2,88934, Note_on_c, 0, 72, 0
2,89021, Note_on_c, 0, 71, 63
2,89027, Note_on_c, 0, 51, 56
2,89070, Note_on_c, 0, 51, 0
2,89084, Note_on_c, 0, 71, 0
2,89143, Note_on_c, 0, 64, 0
2,89190, Note_on_c, 0, 69, 57
2,89194, Note_on_c, 0, 72, 67
2,89214, Note_on_c, 0, 52, 44
2,89241, Note_on_c, 0, 69, 0
2,89252, Note_on_c, 0, 52, 0
2,89369, Note_on_c, 0, 67, 43
2,89430, Note_on_c, 0, 67, 0
2,89512, Note_on_c, 0, 54, 58
2,89531, Note_on_c, 0, 66, 48
2,89565, Note_on_c, 0, 54, 0
2,89589, Note_on_c, 0, 66, 0
2,89684, Note_on_c, 0, 64, 53
2,89788, Note_on_c, 0, 64, 0
2,89854, Note_on_c, 0, 55, 54
2,89863, Note_on_c, 0, 62, 50
2,90097, Note_on_c, 0, 62, 0
2,90159, Note_on_c, 0, 72, 0
2,90197, Note_on_c, 0, 71, 68
2,90203, Note_on_c, 0, 67, 51
2,90247, Note_on_c, 0, 67, 0
2,90280, Note_on_c, 0, 71, 0
2,90350, Note_on_c, 0, 69, 77
2,90361, Note_on_c, 0, 65, 54
2,90394, Note_on_c, 0, 65, 0
2,90422, Note_on_c, 0, 69, 0
2,90515, Note_on_c, 0, 64, 77
2,90519, Note_on_c, 0, 71, 78
2,90570, Note_on_c, 0, 64, 0
2,90588, Note_on_c, 0, 71, 0
2,90670, Note_on_c, 0, 62, 73
2,90720, Note_on_c, 0, 62, 0
2,90838, Note_on_c, 0, 61, 66
2,90840, Note_on_c, 0, 73, 78
2,90889, Note_on_c, 0, 61, 0
2,90923, Note_on_c, 0, 73, 0
2,91005, Note_on_c, 0, 59, 60
2,91103, Note_on_c, 0, 59, 0
2,91173, Note_on_c, 0, 74, 71
2,91182, Note_on_c, 0, 57, 53
2,91207, Control_c, 0, 64, 20
2,91227, Control_c, 0, 64, 57
2,91245, Control_c, 0, 64, 61
2,91256, Note_on_c, 0, 55, 0
2,91264, Control_c, 0, 64, 63
2,91284, Control_c, 0, 64, 63
2,91303, Control_c, 0, 64, 64
2,91317, Note_on_c, 0, 74, 0
2,91322, Control_c, 0, 64, 65
2,91341, Control_c, 0, 64, 65
2,91361, Control_c, 0, 64, 66
2,91379, Control_c, 0, 64, 66
2,91396, Control_c, 0, 64, 67
2,91416, Control_c, 0, 64, 68
2,91435, Control_c, 0, 64, 69
2,91453, Control_c, 0, 64, 69
2,91473, Control_c, 0, 64, 63
2,91492, Control_c, 0, 64, 0
2,91499, Note_on_c, 0, 54, 51
2,91503, Note_on_c, 0, 57, 0
2,91512, Note_on_c, 0, 74, 60
2,91541, Note_on_c, 0, 54, 0
2,91587, Note_on_c, 0, 74, 0
2,91660, Note_on_c, 0, 74, 16
2,91662, Note_on_c, 0, 72, 57
2,91665, Note_on_c, 0, 52, 54
2,91708, Note_on_c, 0, 52, 0
2,91719, Note_on_c, 0, 72, 0
2,91820, Note_on_c, 0, 74, 0
2,91820, Note_on_c, 0, 74, 4
2,91831, Note_on_c, 0, 54, 61
2,91839, Note_on_c, 0, 71, 58
2,91880, Note_on_c, 0, 54, 0
2,91913, Note_on_c, 0, 71, 0
2,91992, Note_on_c, 0, 69, 51
2,92080, Note_on_c, 0, 69, 0
2,92161, Note_on_c, 0, 56, 57
2,92181, Note_on_c, 0, 68, 50
2,92207, Note_on_c, 0, 56, 0
2,92298, Note_on_c, 0, 68, 0
2,92330, Note_on_c, 0, 66, 47
2,92490, Note_on_c, 0, 64, 43
2,92492, Note_on_c, 0, 66, 0
2,92493, Note_on_c, 0, 57, 53
2,92548, Control_c, 0, 64, 43
2,92567, Control_c, 0, 64, 62
2,92587, Control_c, 0, 64, 61
2,92606, Control_c, 0, 64, 62
2,92625, Control_c, 0, 64, 63
2,92644, Control_c, 0, 64, 64
2,92664, Control_c, 0, 64, 66
2,92682, Control_c, 0, 64, 70
2,92702, Control_c, 0, 64, 79
2,92721, Control_c, 0, 64, 101
2,92731, Note_on_c, 0, 57, 0
2,92741, Control_c, 0, 64, 127
2,92767, Note_on_c, 0, 64, 0
2,92846, Note_on_c, 0, 72, 72
2,92850, Note_on_c, 0, 57, 77
2,92856, Control_c, 0, 64, 76
2,92875, Control_c, 0, 64, 0
2,92883, Note_on_c, 0, 57, 0
2,92924, Note_on_c, 0, 74, 0
2,92953, Note_on_c, 0, 72, 0
2,93001, Note_on_c, 0, 56, 87
2,93001, Note_on_c, 0, 71, 66
2,93064, Note_on_c, 0, 56, 0
2,93169, Note_on_c, 0, 57, 90
2,93179, Note_on_c, 0, 71, 0
2,93189, Note_on_c, 0, 69, 62
2,93189, Note_on_c, 0, 72, 73
2,93222, Note_on_c, 0, 57, 0
2,93277, Note_on_c, 0, 72, 0
2,93501, Note_on_c, 0, 59, 90
2,93516, Note_on_c, 0, 74, 74
2,93561, Note_on_c, 0, 59, 0
2,93588, Note_on_c, 0, 74, 0
2,93847, Note_on_c, 0, 60, 82
2,93869, Note_on_c, 0, 76, 80
2,93950, Control_c, 0, 64, 36
2,93969, Control_c, 0, 64, 62
2,93988, Control_c, 0, 64, 64
2,94007, Control_c, 0, 64, 66
2,94007, Note_on_c, 0, 69, 0
2,94027, Control_c, 0, 64, 70
2,94043, Note_on_c, 0, 60, 0
2,94046, Control_c, 0, 64, 79
2,94065, Control_c, 0, 64, 98
2,94084, Control_c, 0, 64, 127
2,94195, Note_on_c, 0, 69, 92
2,94196, Note_on_c, 0, 60, 73
2,94199, Control_c, 0, 64, 77
2,94206, Note_on_c, 0, 57, 59
2,94219, Control_c, 0, 64, 30
2,94238, Control_c, 0, 64, 0
2,94238, Note_on_c, 0, 60, 0
2,94251, Note_on_c, 0, 69, 0
2,94251, Note_on_c, 0, 76, 0
2,94257, Note_on_c, 0, 57, 0
2,94341, Note_on_c, 0, 68, 91
2,94359, Note_on_c, 0, 59, 64
2,94406, Note_on_c, 0, 68, 0
2,94410, Note_on_c, 0, 59, 0
2,94526, Note_on_c, 0, 60, 68
2,94526, Note_on_c, 0, 69, 93
2,94527, Note_on_c, 0, 81, 93
2,94544, Note_on_c, 0, 55, 50
2,94617, Note_on_c, 0, 55, 0
2,94670, Note_on_c, 0, 69, 0
2,94805, Note_on_c, 0, 60, 0
2,94866, Note_on_c, 0, 62, 70
2,94871, Note_on_c, 0, 71, 87
2,94875, Note_on_c, 0, 53, 57
2,94949, Control_c, 0, 64, 53
2,94968, Control_c, 0, 64, 62
2,94978, Note_on_c, 0, 53, 0
2,94988, Control_c, 0, 64, 63
2,95002, Note_on_c, 0, 62, 0
2,95006, Control_c, 0, 64, 64
2,95026, Control_c, 0, 64, 67
2,95037, Note_on_c, 0, 71, 0
2,95045, Control_c, 0, 64, 74
2,95065, Control_c, 0, 64, 88
2,95083, Control_c, 0, 64, 127
2,95198, Control_c, 0, 64, 88
2,95202, Note_on_c, 0, 64, 81
2,95204, Note_on_c, 0, 52, 58
2,95206, Note_on_c, 0, 72, 86
2,95217, Control_c, 0, 64, 45
2,95236, Control_c, 0, 64, 0
2,95252, Note_on_c, 0, 79, 28
2,95310, Note_on_c, 0, 79, 0
2,95312, Note_on_c, 0, 64, 0
2,95359, Note_on_c, 0, 62, 75
2,95360, Note_on_c, 0, 80, 81
2,95380, Note_on_c, 0, 81, 0
2,95390, Note_on_c, 0, 72, 0
2,95421, Note_on_c, 0, 62, 0
2,95481, Note_on_c, 0, 80, 0
2,95518, Note_on_c, 0, 52, 0
2,95523, Note_on_c, 0, 60, 74
2,95529, Note_on_c, 0, 81, 81
2,95531, Note_on_c, 0, 72, 73
2,95563, Note_on_c, 0, 60, 0
2,95570, Note_on_c, 0, 72, 0
2,95612, Note_on_c, 0, 81, 0
2,95669, Note_on_c, 0, 62, 75
2,95685, Note_on_c, 0, 80, 84
2,95697, Note_on_c, 0, 71, 70
2,95710, Note_on_c, 0, 62, 0
2,95734, Note_on_c, 0, 71, 0
2,95785, Note_on_c, 0, 80, 0
2,95856, Note_on_c, 0, 64, 85
2,95862, Note_on_c, 0, 81, 82
2,95868, Note_on_c, 0, 72, 68
2,95908, Note_on_c, 0, 72, 0
2,95949, Note_on_c, 0, 81, 0
2,95980, Note_on_c, 0, 64, 0
2,96200, Note_on_c, 0, 83, 76
2,96211, Note_on_c, 0, 74, 47
2,96214, Note_on_c, 0, 65, 82
2,96252, Control_c, 0, 64, 14
2,96272, Control_c, 0, 64, 48
2,96291, Control_c, 0, 64, 57
2,96311, Control_c, 0, 64, 61
2,96329, Control_c, 0, 64, 64
2,96349, Control_c, 0, 64, 67
2,96368, Control_c, 0, 64, 72
2,96387, Control_c, 0, 64, 82
2,96406, Control_c, 0, 64, 98
2,96426, Control_c, 0, 64, 127
2,96510, Note_on_c, 0, 83, 0
2,96518, Note_on_c, 0, 65, 0
2,96522, Control_c, 0, 64, 84
2,96522, Note_on_c, 0, 56, 87
2,96541, Control_c, 0, 64, 56
2,96551, Note_on_c, 0, 76, 81
2,96560, Control_c, 0, 64, 0
2,96580, Note_on_c, 0, 56, 0
2,96588, Note_on_c, 0, 74, 0
2,96666, Note_on_c, 0, 76, 0
2,96715, Note_on_c, 0, 74, 75
2,96856, Note_on_c, 0, 74, 0
2,96867, Note_on_c, 0, 52, 63
2,96878, Note_on_c, 0, 45, 57
2,96897, Note_on_c, 0, 72, 83
2,96939, Note_on_c, 0, 45, 0
2,96971, Note_on_c, 0, 72, 0
2,97040, Note_on_c, 0, 47, 64
2,97045, Note_on_c, 0, 74, 76
2,97094, Note_on_c, 0, 47, 0
2,97130, Note_on_c, 0, 74, 0
2,97203, Note_on_c, 0, 48, 66
2,97212, Note_on_c, 0, 76, 84
2,97250, Note_on_c, 0, 48, 0
2,97276, Note_on_c, 0, 52, 0
2,97290, Note_on_c, 0, 76, 0
2,97542, Note_on_c, 0, 77, 85
2,97552, Note_on_c, 0, 57, 57
2,97552, Note_on_c, 0, 74, 61
2,97557, Note_on_c, 0, 50, 53
2,97579, Control_c, 0, 64, 43
2,97593, Note_on_c, 0, 74, 0
2,97598, Control_c, 0, 64, 62
2,97617, Control_c, 0, 64, 64
2,97636, Control_c, 0, 64, 65
2,97656, Control_c, 0, 64, 67
2,97675, Control_c, 0, 64, 71
2,97682, Note_on_c, 0, 72, 64
2,97693, Control_c, 0, 64, 82
2,97696, Note_on_c, 0, 57, 0
2,97713, Control_c, 0, 64, 101
2,97732, Control_c, 0, 64, 127
2,97758, Note_on_c, 0, 72, 0
2,97785, Note_on_c, 0, 77, 0
2,97847, Control_c, 0, 64, 90
2,97857, Note_on_c, 0, 68, 86
2,97857, Note_on_c, 0, 71, 75
2,97862, Note_on_c, 0, 59, 72
2,97867, Control_c, 0, 64, 62
2,97886, Control_c, 0, 64, 0
2,97900, Note_on_c, 0, 71, 0
2,97913, Note_on_c, 0, 59, 0
2,97937, Note_on_c, 0, 68, 0
2,98000, Note_on_c, 0, 50, 0
2,98027, Note_on_c, 0, 60, 60
2,98069, Note_on_c, 0, 60, 0
2,98187, Note_on_c, 0, 57, 61
2,98194, Note_on_c, 0, 64, 72
2,98201, Note_on_c, 0, 76, 64
2,98202, Note_on_c, 0, 48, 48
2,98234, Note_on_c, 0, 57, 0
2,98272, Note_on_c, 0, 48, 0
2,98278, Note_on_c, 0, 64, 0
2,98352, Note_on_c, 0, 74, 59
2,98364, Note_on_c, 0, 59, 60
2,98367, Note_on_c, 0, 50, 39
2,98393, Note_on_c, 0, 76, 0
2,98409, Note_on_c, 0, 50, 0
2,98412, Note_on_c, 0, 59, 0
2,98526, Note_on_c, 0, 52, 52
2,98527, Note_on_c, 0, 72, 72
2,98528, Note_on_c, 0, 60, 56
2,98597, Note_on_c, 0, 60, 0
2,98610, Note_on_c, 0, 74, 0
2,98664, Note_on_c, 0, 72, 0
2,98667, Note_on_c, 0, 52, 0
2,98688, Note_on_c, 0, 71, 61
2,98709, Note_on_c, 0, 62, 50
2,98767, Note_on_c, 0, 62, 0
2,98813, Note_on_c, 0, 71, 0
2,98854, Note_on_c, 0, 53, 46
2,98858, Note_on_c, 0, 59, 50
2,98865, Note_on_c, 0, 69, 87
2,98922, Control_c, 0, 64, 58
2,98925, Note_on_c, 0, 59, 0
2,98941, Control_c, 0, 64, 62
2,98950, Note_on_c, 0, 69, 0
2,98960, Control_c, 0, 64, 62
2,98980, Control_c, 0, 64, 62
2,98998, Control_c, 0, 64, 63
2,99016, Note_on_c, 0, 60, 48
2,99017, Note_on_c, 0, 68, 61
2,99018, Control_c, 0, 64, 65
2,99037, Control_c, 0, 64, 68
2,99057, Control_c, 0, 64, 73
2,99072, Note_on_c, 0, 60, 0
2,99075, Control_c, 0, 64, 82
2,99094, Control_c, 0, 64, 90
2,99112, Note_on_c, 0, 68, 0
2,99114, Control_c, 0, 64, 92
2,99142, Control_c, 0, 64, 88
2,99161, Control_c, 0, 64, 72
2,99180, Control_c, 0, 64, 51
2,99199, Control_c, 0, 64, 0
2,99204, Note_on_c, 0, 62, 53
2,99210, Note_on_c, 0, 71, 84
2,99235, Note_on_c, 0, 69, 49
2,99268, Note_on_c, 0, 69, 0
2,99300, Note_on_c, 0, 71, 0
2,99360, Note_on_c, 0, 62, 0
2,99365, Note_on_c, 0, 72, 81
2,99411, Note_on_c, 0, 53, 0
2,99433, Note_on_c, 0, 72, 0
2,99528, Note_on_c, 0, 52, 52
2,99528, Note_on_c, 0, 60, 59
2,99532, Note_on_c, 0, 69, 82
2,99579, Note_on_c, 0, 52, 0
2,99579, Note_on_c, 0, 60, 0
2,99587, Note_on_c, 0, 69, 0
2,99679, Note_on_c, 0, 50, 60
2,99685, Note_on_c, 0, 71, 78
2,99744, Note_on_c, 0, 50, 0
2,99813, Note_on_c, 0, 71, 0
2,99854, Note_on_c, 0, 72, 75
2,99860, Note_on_c, 0, 52, 48
2,99864, Note_on_c, 0, 68, 69
2,99866, Note_on_c, 0, 59, 55
2,99900, Control_c, 0, 64, 45
2,99919, Control_c, 0, 64, 52
2,99939, Control_c, 0, 64, 55
2,99953, Note_on_c, 0, 68, 0
2,99957, Control_c, 0, 64, 57
2,99977, Control_c, 0, 64, 58
2,99996, Control_c, 0, 64, 59
2,100015, Control_c, 0, 64, 60
2,100017, Note_on_c, 0, 74, 75
2,100034, Control_c, 0, 64, 59
2,100047, Note_on_c, 0, 72, 0
2,100053, Control_c, 0, 64, 59
2,100073, Control_c, 0, 64, 58
2,100092, Control_c, 0, 64, 57
2,100111, Note_on_c, 0, 74, 0
2,100112, Control_c, 0, 64, 53
2,100131, Control_c, 0, 64, 42
2,100151, Control_c, 0, 64, 0
2,100167, Note_on_c, 0, 52, 0
2,100171, Note_on_c, 0, 48, 55
2,100186, Note_on_c, 0, 71, 82
2,100200, Note_on_c, 0, 64, 65
2,100243, Note_on_c, 0, 64, 0
2,100268, Note_on_c, 0, 71, 0
2,100345, Note_on_c, 0, 72, 85
2,100377, Note_on_c, 0, 59, 0
2,100428, Note_on_c, 0, 72, 0
2,100527, Note_on_c, 0, 57, 48
2,100529, Note_on_c, 0, 74, 76
2,100539, Note_on_c, 0, 53, 45
2,100546, Note_on_c, 0, 69, 60
2,100687, Note_on_c, 0, 53, 0
2,100765, Note_on_c, 0, 69, 0
2,100799, Note_on_c, 0, 48, 0
2,100838, Note_on_c, 0, 74, 0
2,100861, Note_on_c, 0, 52, 49
2,100868, Note_on_c, 0, 72, 77
2,101011, Note_on_c, 0, 52, 0
2,101031, Note_on_c, 0, 50, 57
2,101074, Note_on_c, 0, 57, 0
2,101085, Note_on_c, 0, 72, 0
2,101177, Note_on_c, 0, 52, 51
2,101189, Note_on_c, 0, 71, 79
2,101309, Note_on_c, 0, 52, 0
2,101339, Note_on_c, 0, 53, 57
2,101369, Note_on_c, 0, 50, 0
2,101473, Note_on_c, 0, 53, 0
2,101515, Note_on_c, 0, 76, 71
2,101520, Note_on_c, 0, 52, 49
2,101525, Note_on_c, 0, 55, 50
2,101699, Note_on_c, 0, 50, 54
2,101700, Note_on_c, 0, 52, 0
2,101858, Note_on_c, 0, 50, 0
2,101859, Note_on_c, 0, 69, 79
2,101883, Note_on_c, 0, 49, 56
2,101950, Note_on_c, 0, 71, 0
2,101958, Note_on_c, 0, 55, 0
2,101984, Note_on_c, 0, 76, 0
2,102170, Note_on_c, 0, 49, 0
2,102178, Note_on_c, 0, 53, 64
2,102193, Note_on_c, 0, 45, 44
2,102316, Note_on_c, 0, 53, 0
2,102329, Note_on_c, 0, 52, 66
2,102459, Note_on_c, 0, 52, 0
2,102506, Note_on_c, 0, 53, 72
2,102517, Note_on_c, 0, 50, 50
2,102676, Note_on_c, 0, 77, 79
2,102687, Note_on_c, 0, 69, 0
2,102690, Note_on_c, 0, 45, 0
2,102750, Note_on_c, 0, 77, 0
2,102842, Note_on_c, 0, 74, 75
2,102847, Note_on_c, 0, 48, 46
2,102862, Note_on_c, 0, 50, 0
2,102882, Note_on_c, 0, 74, 0
2,102980, Note_on_c, 0, 71, 76
2,103054, Note_on_c, 0, 71, 0
2,103139, Note_on_c, 0, 48, 0
2,103162, Note_on_c, 0, 47, 51
2,103181, Note_on_c, 0, 67, 71
2,103312, Note_on_c, 0, 53, 0
2,103499, Note_on_c, 0, 47, 0
2,103518, Note_on_c, 0, 52, 53
2,103525, Note_on_c, 0, 43, 44
2,103645, Note_on_c, 0, 52, 0
2,103674, Note_on_c, 0, 50, 58
2,103829, Note_on_c, 0, 50, 0
2,103849, Note_on_c, 0, 52, 55
2,103867, Note_on_c, 0, 48, 43
2,103960, Note_on_c, 0, 67, 0
2,104012, Note_on_c, 0, 76, 69
2,104069, Note_on_c, 0, 76, 0
2,104100, Note_on_c, 0, 48, 0
2,104173, Note_on_c, 0, 72, 70
2,104176, Note_on_c, 0, 47, 46
2,104180, Note_on_c, 0, 43, 0
2,104209, Note_on_c, 0, 72, 0
2,104331, Note_on_c, 0, 69, 66
2,104373, Note_on_c, 0, 69, 0
2,104483, Note_on_c, 0, 47, 0
2,104514, Note_on_c, 0, 45, 39
2,104516, Note_on_c, 0, 65, 59
2,104659, Note_on_c, 0, 52, 0
2,104831, Note_on_c, 0, 65, 0
2,104844, Note_on_c, 0, 47, 45
2,104846, Note_on_c, 0, 67, 62
2,104903, Note_on_c, 0, 67, 0
2,104909, Note_on_c, 0, 47, 0
2,104984, Note_on_c, 0, 48, 45
2,104999, Note_on_c, 0, 69, 69
2,105007, Note_on_c, 0, 45, 0
2,105044, Note_on_c, 0, 69, 0
2,105060, Note_on_c, 0, 48, 0
2,105165, Note_on_c, 0, 50, 46
2,105170, Note_on_c, 0, 47, 42
2,105174, Note_on_c, 0, 67, 62
2,105259, Note_on_c, 0, 67, 0
2,105321, Note_on_c, 0, 65, 57
2,105396, Note_on_c, 0, 65, 0
2,105435, Note_on_c, 0, 47, 0
2,105478, Note_on_c, 0, 43, 39
2,105483, Note_on_c, 0, 64, 58
2,105535, Note_on_c, 0, 50, 0
2,105540, Note_on_c, 0, 64, 0
2,105636, Note_on_c, 0, 65, 57
2,105693, Note_on_c, 0, 65, 0
2,105745, Note_on_c, 0, 43, 0
2,105799, Note_on_c, 0, 48, 44
2,105806, Note_on_c, 0, 64, 61
2,105836, Note_on_c, 0, 48, 0
2,105960, Note_on_c, 0, 48, 43
2,106134, Note_on_c, 0, 50, 47
2,106234, Note_on_c, 0, 50, 0
2,106284, Note_on_c, 0, 52, 47
2,106418, Note_on_c, 0, 52, 0
2,106443, Note_on_c, 0, 53, 51
2,106517, Note_on_c, 0, 53, 0
2,106604, Note_on_c, 0, 55, 44
2,106659, Note_on_c, 0, 55, 0
2,106741, Note_on_c, 0, 57, 57
2,106756, Note_on_c, 0, 47, 46
2,106776, Note_on_c, 0, 48, 0
2,106793, Note_on_c, 0, 57, 0
2,106843, Note_on_c, 0, 47, 0
2,106870, Note_on_c, 0, 64, 0
2,106914, Note_on_c, 0, 59, 56
2,106951, Note_on_c, 0, 59, 0
2,107076, Note_on_c, 0, 45, 43
2,107092, Note_on_c, 0, 60, 58
2,107245, Note_on_c, 0, 62, 57
2,107331, Note_on_c, 0, 62, 0
2,107360, Note_on_c, 0, 60, 0
2,107406, Note_on_c, 0, 64, 62
2,107458, Note_on_c, 0, 64, 0
2,107559, Note_on_c, 0, 65, 55
2,107706, Note_on_c, 0, 60, 7
2,107720, Note_on_c, 0, 65, 0
2,107720, Note_on_c, 0, 67, 61
2,107793, Note_on_c, 0, 67, 0
2,107878, Note_on_c, 0, 69, 64
2,107933, Note_on_c, 0, 69, 0
2,108042, Note_on_c, 0, 71, 59
2,108045, Note_on_c, 0, 43, 54
2,108092, Note_on_c, 0, 71, 0
2,108110, Note_on_c, 0, 45, 0
2,108194, Note_on_c, 0, 72, 64
2,108224, Note_on_c, 0, 43, 0
2,108240, Note_on_c, 0, 72, 0
2,108351, Note_on_c, 0, 41, 51
2,108365, Note_on_c, 0, 62, 64
2,108392, Note_on_c, 0, 41, 0
2,108476, Note_on_c, 0, 62, 0
2,108522, Note_on_c, 0, 55, 48
2,108524, Note_on_c, 0, 64, 61
2,108580, Note_on_c, 0, 55, 0
2,108612, Note_on_c, 0, 64, 0
2,108672, Note_on_c, 0, 53, 55
2,108689, Note_on_c, 0, 62, 59
2,108720, Note_on_c, 0, 53, 0
2,108757, Note_on_c, 0, 62, 0
2,108814, Note_on_c, 0, 60, 0
2,108828, Note_on_c, 0, 64, 71
2,108833, Note_on_c, 0, 52, 55
2,108885, Note_on_c, 0, 52, 0
2,108907, Note_on_c, 0, 64, 0
2,108995, Note_on_c, 0, 65, 65
2,109000, Note_on_c, 0, 50, 55
2,109084, Note_on_c, 0, 50, 0
2,109153, Note_on_c, 0, 64, 64
2,109167, Note_on_c, 0, 48, 48
2,109219, Note_on_c, 0, 48, 0
2,109245, Note_on_c, 0, 64, 0
2,109311, Note_on_c, 0, 62, 60
2,109312, Note_on_c, 0, 47, 60
2,109355, Note_on_c, 0, 47, 0
2,109382, Note_on_c, 0, 62, 0
2,109462, Note_on_c, 0, 60, 55
2,109466, Note_on_c, 0, 45, 52
2,109515, Note_on_c, 0, 60, 0
2,109524, Note_on_c, 0, 45, 0
2,109599, Note_on_c, 0, 43, 60
2,109600, Control_c, 0, 64, 29
2,109605, Note_on_c, 0, 65, 0
2,109610, Note_on_c, 0, 59, 74
2,109619, Control_c, 0, 64, 59
2,109638, Control_c, 0, 64, 65
2,109639, Note_on_c, 0, 65, 10
2,109640, Note_on_c, 0, 59, 0
2,109642, Note_on_c, 0, 43, 0
2,109657, Control_c, 0, 64, 69
2,109672, Note_on_c, 0, 65, 0
2,109677, Control_c, 0, 64, 71
2,109696, Control_c, 0, 64, 74
2,109716, Control_c, 0, 64, 76
2,109735, Control_c, 0, 64, 77
2,109755, Control_c, 0, 64, 78
2,109767, Note_on_c, 0, 69, 70
2,109773, Control_c, 0, 64, 78
2,109793, Control_c, 0, 64, 80
2,109812, Control_c, 0, 64, 82
2,109831, Control_c, 0, 64, 87
2,109850, Control_c, 0, 64, 94
2,109870, Control_c, 0, 64, 99
2,109889, Control_c, 0, 64, 87
2,109906, Note_on_c, 0, 69, 0
2,109907, Control_c, 0, 64, 63
2,109927, Control_c, 0, 64, 0
2,109943, Note_on_c, 0, 72, 90
2,109953, Note_on_c, 0, 67, 63
2,109964, Note_on_c, 0, 55, 59
2,109976, Note_on_c, 0, 64, 53
2,109986, Note_on_c, 0, 72, 0
2,109990, Note_on_c, 0, 67, 0
2,110012, Note_on_c, 0, 64, 0
2,110099, Note_on_c, 0, 71, 78
2,110112, Note_on_c, 0, 62, 51
2,110145, Note_on_c, 0, 65, 9
2,110163, Note_on_c, 0, 65, 0
2,110175, Note_on_c, 0, 71, 0
2,110236, Note_on_c, 0, 62, 0
2,110268, Note_on_c, 0, 72, 90
2,110273, Note_on_c, 0, 64, 69
2,110281, Note_on_c, 0, 60, 62
2,110291, Note_on_c, 0, 55, 0
2,110308, Note_on_c, 0, 64, 0
2,110327, Note_on_c, 0, 72, 0
2,110346, Note_on_c, 0, 60, 0
2,110435, Note_on_c, 0, 59, 48
2,110568, Note_on_c, 0, 59, 0
2,110591, Note_on_c, 0, 74, 81
2,110592, Note_on_c, 0, 69, 72
2,110601, Note_on_c, 0, 53, 46
2,110606, Note_on_c, 0, 57, 48
2,110625, Note_on_c, 0, 69, 0
2,110648, Note_on_c, 0, 74, 0
2,110762, Note_on_c, 0, 59, 46
2,110819, Note_on_c, 0, 57, 0
2,110930, Note_on_c, 0, 76, 82
2,110937, Note_on_c, 0, 59, 0
2,110943, Note_on_c, 0, 60, 55
2,110947, Note_on_c, 0, 67, 53
2,110970, Note_on_c, 0, 53, 0
2,110982, Control_c, 0, 64, 36
2,111001, Control_c, 0, 64, 52
2,111020, Control_c, 0, 64, 55
2,111040, Control_c, 0, 64, 58
2,111059, Control_c, 0, 64, 60
2,111078, Control_c, 0, 64, 61
2,111097, Control_c, 0, 64, 62
2,111117, Control_c, 0, 64, 63
2,111135, Control_c, 0, 64, 64
2,111155, Control_c, 0, 64, 66
2,111161, Note_on_c, 0, 76, 0
2,111174, Control_c, 0, 64, 69
2,111194, Control_c, 0, 64, 74
2,111212, Control_c, 0, 64, 80
2,111232, Control_c, 0, 64, 86
2,111251, Control_c, 0, 64, 85
2,111268, Note_on_c, 0, 48, 78
2,111270, Control_c, 0, 64, 70
2,111289, Control_c, 0, 64, 11
2,111303, Note_on_c, 0, 76, 60
2,111308, Control_c, 0, 64, 0
2,111327, Note_on_c, 0, 48, 0
2,111360, Note_on_c, 0, 76, 0
2,111414, Note_on_c, 0, 47, 79
2,111436, Note_on_c, 0, 74, 58
2,111471, Note_on_c, 0, 47, 0
2,111510, Note_on_c, 0, 74, 0
2,111591, Note_on_c, 0, 48, 80
2,111609, Note_on_c, 0, 76, 71
2,111641, Note_on_c, 0, 48, 0
2,111659, Note_on_c, 0, 76, 0
2,111914, Note_on_c, 0, 50, 79
2,111930, Note_on_c, 0, 77, 75
2,111973, Note_on_c, 0, 50, 0
2,112004, Note_on_c, 0, 77, 0
2,112262, Note_on_c, 0, 52, 77
2,112266, Note_on_c, 0, 79, 80
2,112288, Control_c, 0, 64, 17
2,112289, Note_on_c, 0, 67, 0
2,112299, Note_on_c, 0, 60, 0
2,112306, Control_c, 0, 64, 66
2,112326, Control_c, 0, 64, 70
2,112327, Note_on_c, 0, 52, 0
2,112345, Control_c, 0, 64, 73
2,112365, Control_c, 0, 64, 72
2,112397, Note_on_c, 0, 79, 0
2,112403, Control_c, 0, 64, 73
2,112410, Note_on_c, 0, 77, 73
2,112441, Control_c, 0, 64, 73
2,112460, Control_c, 0, 64, 74
2,112480, Control_c, 0, 64, 75
2,112508, Note_on_c, 0, 77, 0
2,112518, Control_c, 0, 64, 74
2,112537, Control_c, 0, 64, 69
2,112557, Control_c, 0, 64, 40
2,112564, Note_on_c, 0, 52, 64
2,112575, Control_c, 0, 64, 0
2,112575, Note_on_c, 0, 55, 59
2,112576, Note_on_c, 0, 76, 84
2,112603, Note_on_c, 0, 72, 43
2,112605, Note_on_c, 0, 52, 0
2,112636, Note_on_c, 0, 72, 0
2,112638, Note_on_c, 0, 55, 0
2,112645, Note_on_c, 0, 76, 0
2,112711, Note_on_c, 0, 50, 60
2,112720, Note_on_c, 0, 77, 84
2,112760, Note_on_c, 0, 50, 0
2,112803, Note_on_c, 0, 77, 0
2,112881, Note_on_c, 0, 52, 60
2,112890, Note_on_c, 0, 79, 90
2,112904, Note_on_c, 0, 71, 59
2,112919, Note_on_c, 0, 52, 0
2,112931, Note_on_c, 0, 71, 0
2,112954, Note_on_c, 0, 79, 0
2,113222, Note_on_c, 0, 54, 58
2,113225, Note_on_c, 0, 69, 69
2,113225, Note_on_c, 0, 81, 89
2,113241, Note_on_c, 0, 62, 51
2,113266, Control_c, 0, 64, 47
2,113286, Control_c, 0, 64, 64
2,113305, Control_c, 0, 64, 65
2,113325, Control_c, 0, 64, 67
2,113342, Control_c, 0, 64, 68
2,113348, Note_on_c, 0, 81, 0
2,113362, Control_c, 0, 64, 71
2,113381, Control_c, 0, 64, 77
2,113400, Control_c, 0, 64, 85
2,113419, Control_c, 0, 64, 97
2,113439, Control_c, 0, 64, 120
2,113446, Note_on_c, 0, 54, 0
2,113458, Control_c, 0, 64, 127
2,113516, Control_c, 0, 64, 109
2,113535, Control_c, 0, 64, 70
2,113554, Control_c, 0, 64, 0
2,113555, Note_on_c, 0, 55, 63
2,113559, Note_on_c, 0, 71, 81
2,113570, Note_on_c, 0, 67, 48
2,113573, Note_on_c, 0, 69, 0
2,113586, Note_on_c, 0, 62, 0
2,113602, Note_on_c, 0, 67, 0
2,113604, Note_on_c, 0, 55, 0
2,113621, Note_on_c, 0, 71, 0
2,113702, Note_on_c, 0, 53, 64
2,113757, Note_on_c, 0, 53, 0
2,113871, Note_on_c, 0, 52, 57
2,113874, Note_on_c, 0, 64, 65
2,113875, Note_on_c, 0, 67, 76
2,113917, Note_on_c, 0, 52, 0
2,113919, Note_on_c, 0, 64, 0
2,113949, Note_on_c, 0, 67, 0
2,114032, Note_on_c, 0, 53, 62
2,114090, Note_on_c, 0, 53, 0
2,114196, Note_on_c, 0, 65, 64
2,114202, Note_on_c, 0, 55, 63
2,114215, Note_on_c, 0, 62, 53
2,114251, Note_on_c, 0, 65, 0
2,114253, Note_on_c, 0, 62, 0
2,114311, Note_on_c, 0, 55, 0
2,114536, Note_on_c, 0, 72, 71
2,114544, Note_on_c, 0, 60, 57
2,114546, Note_on_c, 0, 57, 67
2,114558, Note_on_c, 0, 64, 41
2,114572, Control_c, 0, 64, 62
2,114584, Note_on_c, 0, 60, 0
2,114591, Note_on_c, 0, 72, 0
2,114592, Control_c, 0, 64, 66
2,114595, Note_on_c, 0, 64, 0
2,114611, Control_c, 0, 64, 68
2,114629, Control_c, 0, 64, 69
2,114636, Note_on_c, 0, 57, 0
2,114649, Control_c, 0, 64, 74
2,114668, Control_c, 0, 64, 81
2,114688, Control_c, 0, 64, 93
2,114706, Control_c, 0, 64, 115
2,114726, Control_c, 0, 64, 127
2,114841, Control_c, 0, 64, 84
2,114857, Note_on_c, 0, 47, 70
2,114860, Control_c, 0, 64, 55
2,114860, Note_on_c, 0, 55, 71
2,114875, Note_on_c, 0, 74, 75
2,114880, Control_c, 0, 64, 0
2,114885, Note_on_c, 0, 62, 65
2,114908, Note_on_c, 0, 47, 0
2,114928, Note_on_c, 0, 62, 0
2,114971, Note_on_c, 0, 74, 0
2,115039, Note_on_c, 0, 67, 58
2,115044, Note_on_c, 0, 76, 70
2,115082, Note_on_c, 0, 67, 0
2,115154, Note_on_c, 0, 76, 0
2,115191, Note_on_c, 0, 43, 57
2,115208, Note_on_c, 0, 72, 71
2,115255, Note_on_c, 0, 72, 0
2,115263, Note_on_c, 0, 43, 0
2,115357, Note_on_c, 0, 71, 61
2,115365, Note_on_c, 0, 74, 71
2,115388, Note_on_c, 0, 71, 0
2,115425, Note_on_c, 0, 74, 0
2,115528, Note_on_c, 0, 76, 76
2,115535, Note_on_c, 0, 55, 0
2,115542, Note_on_c, 0, 72, 53
2,115678, Note_on_c, 0, 76, 0
2,115703, Note_on_c, 0, 77, 60
2,115786, Note_on_c, 0, 77, 0
2,115846, Note_on_c, 0, 48, 63
2,115859, Note_on_c, 0, 74, 68
2,115886, Note_on_c, 0, 48, 0
2,115955, Note_on_c, 0, 74, 0
2,116010, Note_on_c, 0, 76, 74
2,116100, Note_on_c, 0, 76, 0
2,116173, Note_on_c, 0, 50, 72
2,116173, Note_on_c, 0, 77, 75
2,116258, Note_on_c, 0, 50, 0
2,116279, Note_on_c, 0, 77, 0
2,116301, Note_on_c, 0, 72, 0
2,116325, Note_on_c, 0, 52, 73
2,116369, Note_on_c, 0, 52, 0
2,116487, Note_on_c, 0, 48, 68
2,116497, Note_on_c, 0, 76, 74
2,116532, Note_on_c, 0, 48, 0
2,116558, Note_on_c, 0, 76, 0
2,116652, Note_on_c, 0, 50, 65
2,116695, Note_on_c, 0, 50, 0
2,116805, Note_on_c, 0, 52, 66
2,116812, Note_on_c, 0, 74, 73
2,116818, Control_c, 0, 64, 38
2,116837, Control_c, 0, 64, 48
2,116841, Note_on_c, 0, 71, 53
2,116856, Control_c, 0, 64, 53
2,116866, Note_on_c, 0, 52, 0
2,116876, Control_c, 0, 64, 55
2,116885, Note_on_c, 0, 74, 0
2,116895, Control_c, 0, 64, 57
2,116914, Control_c, 0, 64, 58
2,116933, Control_c, 0, 64, 59
2,116953, Control_c, 0, 64, 59
2,116959, Note_on_c, 0, 53, 61
2,116971, Control_c, 0, 64, 60
2,116991, Control_c, 0, 64, 61
2,116998, Note_on_c, 0, 53, 0
2,117010, Control_c, 0, 64, 61
2,117029, Control_c, 0, 64, 60
2,117048, Control_c, 0, 64, 53
2,117067, Control_c, 0, 64, 0
2,117075, Note_on_c, 0, 71, 0
2,117132, Note_on_c, 0, 79, 76
2,117141, Note_on_c, 0, 52, 45
2,117143, Note_on_c, 0, 57, 50
2,117143, Note_on_c, 0, 70, 58
2,117187, Note_on_c, 0, 57, 0
2,117195, Note_on_c, 0, 52, 0
2,117197, Note_on_c, 0, 79, 0
2,117198, Control_c, 0, 64, 46
2,117217, Control_c, 0, 64, 59
2,117229, Note_on_c, 0, 70, 0
2,117237, Control_c, 0, 64, 60
2,117255, Control_c, 0, 64, 61
2,117275, Control_c, 0, 64, 62
2,117275, Note_on_c, 0, 53, 64
2,117294, Control_c, 0, 64, 63
2,117311, Note_on_c, 0, 53, 0
2,117314, Control_c, 0, 64, 64
2,117332, Control_c, 0, 64, 65
2,117352, Control_c, 0, 64, 67
2,117375, Control_c, 0, 64, 70
2,117394, Control_c, 0, 64, 72
2,117413, Control_c, 0, 64, 69
2,117433, Control_c, 0, 64, 58
2,117451, Control_c, 0, 64, 0
2,117463, Note_on_c, 0, 53, 51
2,117474, Note_on_c, 0, 72, 76
2,117476, Note_on_c, 0, 57, 65
2,117569, Note_on_c, 0, 57, 0
2,117596, Note_on_c, 0, 53, 0
2,117624, Note_on_c, 0, 59, 70
2,117632, Note_on_c, 0, 71, 69
2,117660, Note_on_c, 0, 72, 0
2,117669, Note_on_c, 0, 59, 0
2,117707, Note_on_c, 0, 71, 0
2,117795, Note_on_c, 0, 52, 50
2,117796, Note_on_c, 0, 55, 47
2,117804, Note_on_c, 0, 74, 76
2,117840, Note_on_c, 0, 55, 0
2,117848, Note_on_c, 0, 52, 0
2,117879, Note_on_c, 0, 74, 0
2,117955, Note_on_c, 0, 57, 56
2,117959, Note_on_c, 0, 72, 78
2,117984, Note_on_c, 0, 55, 9
2,117996, Note_on_c, 0, 57, 0
2,118036, Note_on_c, 0, 72, 0
2,118053, Note_on_c, 0, 55, 0
2,118126, Note_on_c, 0, 59, 62
2,118134, Note_on_c, 0, 50, 44
2,118136, Note_on_c, 0, 71, 75
2,118182, Note_on_c, 0, 59, 0
2,118269, Note_on_c, 0, 71, 0
2,118287, Note_on_c, 0, 69, 60
2,118290, Note_on_c, 0, 60, 46
2,118327, Note_on_c, 0, 60, 0
2,118376, Note_on_c, 0, 69, 0
2,118440, Note_on_c, 0, 57, 53
2,118453, Note_on_c, 0, 67, 69
2,118461, Note_on_c, 0, 55, 29
2,118486, Note_on_c, 0, 57, 0
2,118509, Note_on_c, 0, 67, 0
2,118512, Note_on_c, 0, 55, 0
2,118530, Note_on_c, 0, 50, 0
2,118601, Note_on_c, 0, 59, 52
2,118608, Note_on_c, 0, 65, 63
2,118634, Note_on_c, 0, 59, 0
2,118705, Note_on_c, 0, 65, 0
2,118779, Note_on_c, 0, 48, 58
2,118782, Note_on_c, 0, 60, 68
2,118787, Note_on_c, 0, 64, 65
2,118815, Control_c, 0, 64, 23
2,118834, Control_c, 0, 64, 54
2,118853, Control_c, 0, 64, 57
2,118873, Control_c, 0, 64, 59
2,118891, Control_c, 0, 64, 60
2,118910, Control_c, 0, 64, 62
2,118930, Control_c, 0, 64, 63
2,118949, Control_c, 0, 64, 64
2,118968, Control_c, 0, 64, 65
2,118974, Note_on_c, 0, 60, 0
2,118987, Control_c, 0, 64, 67
2,119007, Control_c, 0, 64, 70
2,119025, Control_c, 0, 64, 74
2,119045, Control_c, 0, 64, 80
2,119064, Control_c, 0, 64, 83
2,119069, Note_on_c, 0, 48, 0
2,119084, Control_c, 0, 64, 79
2,119099, Control_c, 0, 64, 66
2,119103, Note_on_c, 0, 64, 0
2,119106, Note_on_c, 0, 50, 62
2,119108, Note_on_c, 0, 65, 69
2,119114, Note_on_c, 0, 59, 62
2,119118, Control_c, 0, 64, 0
2,119150, Note_on_c, 0, 59, 0
2,119167, Note_on_c, 0, 50, 0
2,119184, Note_on_c, 0, 65, 0
2,119261, Note_on_c, 0, 67, 75
2,119262, Note_on_c, 0, 52, 59
2,119319, Note_on_c, 0, 67, 0
2,119325, Note_on_c, 0, 52, 0
2,119427, Note_on_c, 0, 69, 78
2,119428, Note_on_c, 0, 53, 58
2,119447, Note_on_c, 0, 57, 66
2,119559, Note_on_c, 0, 57, 0
2,119592, Note_on_c, 0, 71, 75
2,119606, Note_on_c, 0, 69, 0
2,119669, Note_on_c, 0, 71, 0
2,119761, Note_on_c, 0, 72, 82
2,119762, Note_on_c, 0, 62, 63
2,119822, Note_on_c, 0, 72, 0
2,119922, Note_on_c, 0, 74, 78
2,120012, Note_on_c, 0, 74, 0
2,120059, Note_on_c, 0, 62, 0
2,120094, Note_on_c, 0, 71, 79
2,120253, Note_on_c, 0, 64, 65
2,120342, Note_on_c, 0, 64, 0
2,120410, Note_on_c, 0, 69, 77
2,120414, Note_on_c, 0, 60, 68
2,120422, Note_on_c, 0, 71, 0
2,120451, Note_on_c, 0, 60, 0
2,120505, Note_on_c, 0, 69, 0
2,120565, Note_on_c, 0, 67, 70
2,120571, Note_on_c, 0, 62, 59
2,120615, Note_on_c, 0, 62, 0
2,120638, Note_on_c, 0, 67, 0
2,120732, Note_on_c, 0, 53, 0
2,120743, Note_on_c, 0, 64, 60
2,120743, Note_on_c, 0, 72, 80
2,120749, Note_on_c, 0, 52, 56
2,120802, Note_on_c, 0, 64, 0
2,120896, Note_on_c, 0, 65, 61
2,120963, Note_on_c, 0, 65, 0
2,120979, Note_on_c, 0, 52, 0
2,121056, Note_on_c, 0, 57, 38
2,121065, Note_on_c, 0, 60, 39
2,121066, Note_on_c, 0, 62, 57
2,121109, Note_on_c, 0, 62, 0
2,121110, Note_on_c, 0, 57, 0
2,121125, Note_on_c, 0, 60, 0
2,121215, Note_on_c, 0, 64, 59
2,121260, Note_on_c, 0, 64, 0
2,121372, Note_on_c, 0, 65, 57
2,121392, Note_on_c, 0, 50, 49
2,121396, Note_on_c, 0, 62, 46
2,121425, Note_on_c, 0, 65, 0
2,121438, Note_on_c, 0, 62, 0
2,121457, Note_on_c, 0, 50, 0
2,121562, Note_on_c, 0, 53, 58
2,121608, Note_on_c, 0, 53, 0
2,121713, Note_on_c, 0, 64, 62
2,121725, Note_on_c, 0, 52, 52
2,121725, Note_on_c, 0, 55, 55
2,121758, Note_on_c, 0, 72, 0
2,121766, Note_on_c, 0, 55, 0
2,121767, Note_on_c, 0, 64, 0
2,121773, Note_on_c, 0, 52, 0
2,121849, Control_c, 0, 64, 36
2,121868, Control_c, 0, 64, 49
2,121875, Note_on_c, 0, 53, 53
2,121878, Note_on_c, 0, 57, 51
2,121888, Control_c, 0, 64, 54
2,121906, Control_c, 0, 64, 56
2,121920, Note_on_c, 0, 57, 0
2,121926, Control_c, 0, 64, 56
2,121927, Note_on_c, 0, 53, 0
2,121965, Control_c, 0, 64, 54
2,121983, Control_c, 0, 64, 40
2,122003, Control_c, 0, 64, 0
2,122040, Note_on_c, 0, 59, 52
2,122048, Note_on_c, 0, 71, 69
2,122052, Note_on_c, 0, 55, 47
2,122061, Note_on_c, 0, 62, 48
2,122075, Note_on_c, 0, 59, 0
2,122086, Note_on_c, 0, 55, 0
2,122110, Note_on_c, 0, 62, 0
2,122199, Note_on_c, 0, 60, 54
2,122251, Note_on_c, 0, 60, 0
2,122306, Note_on_c, 0, 71, 0
2,122375, Note_on_c, 0, 43, 51
2,122377, Note_on_c, 0, 67, 57
2,122387, Note_on_c, 0, 62, 48
2,122436, Note_on_c, 0, 62, 0
2,122447, Note_on_c, 0, 67, 0
2,122533, Note_on_c, 0, 59, 63
2,122573, Note_on_c, 0, 59, 0
2,122655, Note_on_c, 0, 43, 0
2,122719, Note_on_c, 0, 48, 47
2,122720, Note_on_c, 0, 55, 44
2,122729, Note_on_c, 0, 72, 68
2,122750, Control_c, 0, 64, 58
2,122757, Note_on_c, 0, 64, 19
2,122759, Note_on_c, 0, 48, 0
2,122762, Note_on_c, 0, 64, 0
2,122770, Control_c, 0, 64, 62
2,122776, Note_on_c, 0, 55, 0
2,122789, Control_c, 0, 64, 63
2,122804, Note_on_c, 0, 72, 0
2,122808, Control_c, 0, 64, 63
2,122827, Control_c, 0, 64, 64
2,122847, Control_c, 0, 64, 64
2,122865, Control_c, 0, 64, 65
2,122874, Note_on_c, 0, 65, 55
2,122959, Note_on_c, 0, 65, 0
2,123019, Control_c, 0, 64, 64
2,123039, Control_c, 0, 64, 58
2,123057, Note_on_c, 0, 76, 63
2,123058, Control_c, 0, 64, 0
2,123072, Note_on_c, 0, 64, 47
2,123107, Note_on_c, 0, 76, 0
2,123117, Note_on_c, 0, 64, 0
2,123205, Note_on_c, 0, 77, 67
2,123213, Note_on_c, 0, 62, 52
2,123261, Note_on_c, 0, 77, 0
2,123275, Note_on_c, 0, 62, 0
2,123374, Note_on_c, 0, 60, 59
2,123378, Note_on_c, 0, 76, 75
2,123433, Note_on_c, 0, 76, 0
2,123439, Note_on_c, 0, 60, 0
2,123524, Note_on_c, 0, 59, 56
2,123589, Note_on_c, 0, 59, 0
2,123696, Note_on_c, 0, 74, 68
2,123701, Note_on_c, 0, 52, 47
2,123716, Note_on_c, 0, 57, 41
2,123757, Note_on_c, 0, 74, 0
2,123797, Note_on_c, 0, 57, 0
2,123818, Note_on_c, 0, 52, 0
2,123857, Note_on_c, 0, 56, 58
2,123894, Note_on_c, 0, 56, 0
2,124018, Control_c, 0, 64, 54
2,124022, Note_on_c, 0, 72, 64
2,124037, Control_c, 0, 64, 61
2,124050, Note_on_c, 0, 45, 41
2,124063, Note_on_c, 0, 57, 25
2,124076, Control_c, 0, 64, 61
2,124095, Control_c, 0, 64, 62
2,124095, Note_on_c, 0, 45, 0
2,124111, Note_on_c, 0, 57, 0
2,124114, Control_c, 0, 64, 63
2,124133, Control_c, 0, 64, 63
2,124153, Control_c, 0, 64, 64
2,124210, Control_c, 0, 64, 64
2,124211, Note_on_c, 0, 58, 37
2,124248, Control_c, 0, 64, 65
2,124250, Note_on_c, 0, 72, 0
2,124267, Control_c, 0, 64, 66
2,124287, Control_c, 0, 64, 66
2,124305, Control_c, 0, 64, 66
2,124323, Note_on_c, 0, 58, 0
2,124325, Control_c, 0, 64, 62
2,124344, Control_c, 0, 64, 34
2,124361, Note_on_c, 0, 57, 54
2,124364, Control_c, 0, 64, 0
2,124365, Note_on_c, 0, 69, 73
2,124367, Note_on_c, 0, 73, 64
2,124408, Note_on_c, 0, 73, 0
2,124414, Note_on_c, 0, 69, 0
2,124427, Note_on_c, 0, 57, 0
2,124510, Note_on_c, 0, 55, 52
2,124514, Note_on_c, 0, 70, 78
2,124602, Note_on_c, 0, 55, 0
2,124602, Note_on_c, 0, 70, 0
2,124690, Note_on_c, 0, 69, 81
2,124691, Note_on_c, 0, 53, 60
2,124719, Note_on_c, 0, 74, 39
2,124751, Note_on_c, 0, 69, 0
2,124757, Note_on_c, 0, 74, 0
2,124782, Note_on_c, 0, 53, 0
2,124851, Note_on_c, 0, 52, 56
2,124917, Note_on_c, 0, 52, 0
2,125020, Note_on_c, 0, 67, 75
2,125021, Note_on_c, 0, 50, 54
2,125042, Note_on_c, 0, 76, 55
2,125085, Note_on_c, 0, 50, 0
2,125085, Note_on_c, 0, 76, 0
2,125105, Note_on_c, 0, 67, 0
2,125179, Note_on_c, 0, 49, 57
2,125292, Note_on_c, 0, 49, 0
2,125353, Note_on_c, 0, 50, 52
2,125359, Note_on_c, 0, 65, 72
2,125370, Note_on_c, 0, 69, 70
2,125400, Control_c, 0, 64, 40
2,125419, Control_c, 0, 64, 63
2,125439, Control_c, 0, 64, 63
2,125477, Control_c, 0, 64, 64
2,125496, Control_c, 0, 64, 64
2,125516, Control_c, 0, 64, 65
2,125535, Control_c, 0, 64, 66
2,125554, Control_c, 0, 64, 66
2,125564, Note_on_c, 0, 65, 0
2,125573, Control_c, 0, 64, 67
2,125593, Control_c, 0, 64, 68
2,125646, Note_on_c, 0, 69, 0
2,125669, Control_c, 0, 64, 66
2,125688, Control_c, 0, 64, 58
2,125703, Note_on_c, 0, 57, 68
2,125707, Control_c, 0, 64, 0
2,125717, Note_on_c, 0, 74, 62
2,125718, Note_on_c, 0, 65, 51
2,125745, Note_on_c, 0, 57, 0
2,125753, Note_on_c, 0, 65, 0
2,125764, Note_on_c, 0, 74, 0
2,125842, Note_on_c, 0, 58, 78
2,125850, Note_on_c, 0, 76, 69
2,125874, Note_on_c, 0, 67, 29
2,125901, Note_on_c, 0, 58, 0
2,125916, Note_on_c, 0, 67, 0
2,125927, Note_on_c, 0, 76, 0
2,126021, Note_on_c, 0, 57, 80
2,126029, Note_on_c, 0, 74, 66
2,126035, Note_on_c, 0, 65, 55
2,126058, Note_on_c, 0, 57, 0
2,126069, Note_on_c, 0, 65, 0
2,126082, Note_on_c, 0, 74, 0
2,126359, Note_on_c, 0, 55, 73
2,126360, Note_on_c, 0, 72, 72
2,126370, Note_on_c, 0, 64, 61
2,126413, Note_on_c, 0, 55, 0
2,126417, Note_on_c, 0, 64, 0
2,126422, Note_on_c, 0, 72, 0
2,126695, Note_on_c, 0, 62, 66
2,126699, Note_on_c, 0, 53, 61
2,126700, Control_c, 0, 64, 37
2,126707, Note_on_c, 0, 71, 60
2,126718, Control_c, 0, 64, 62
2,126737, Note_on_c, 0, 62, 0
2,126751, Note_on_c, 0, 71, 0
2,126773, Control_c, 0, 64, 62
2,126792, Control_c, 0, 64, 63
2,126812, Control_c, 0, 64, 64
2,126831, Control_c, 0, 64, 64
2,126847, Note_on_c, 0, 53, 0
2,126847, Note_on_c, 0, 72, 76
2,126850, Control_c, 0, 64, 65
2,126852, Note_on_c, 0, 64, 57
2,126869, Control_c, 0, 64, 65
2,126889, Control_c, 0, 64, 66
2,126890, Note_on_c, 0, 64, 0
2,126907, Control_c, 0, 64, 66
2,126920, Note_on_c, 0, 72, 0
2,126927, Control_c, 0, 64, 66
2,126946, Control_c, 0, 64, 64
2,126975, Control_c, 0, 64, 56
2,126984, Note_on_c, 0, 50, 0
2,126994, Control_c, 0, 64, 0
2,127014, Note_on_c, 0, 53, 63
2,127015, Note_on_c, 0, 65, 61
2,127017, Note_on_c, 0, 74, 65
2,127056, Note_on_c, 0, 65, 0
2,127064, Note_on_c, 0, 53, 0
2,127068, Note_on_c, 0, 74, 0
2,127168, Note_on_c, 0, 50, 4
2,127173, Note_on_c, 0, 72, 67
2,127184, Note_on_c, 0, 55, 47
2,127188, Note_on_c, 0, 64, 48
2,127220, Note_on_c, 0, 64, 0
2,127227, Note_on_c, 0, 72, 0
2,127240, Note_on_c, 0, 55, 0
2,127335, Note_on_c, 0, 71, 71
2,127343, Note_on_c, 0, 53, 48
2,127353, Note_on_c, 0, 62, 49
2,127385, Note_on_c, 0, 62, 0
2,127396, Note_on_c, 0, 53, 0
2,127411, Note_on_c, 0, 71, 0
2,127683, Note_on_c, 0, 69, 73
2,127686, Note_on_c, 0, 52, 50
2,127698, Note_on_c, 0, 60, 49
2,127704, Control_c, 0, 64, 29
2,127724, Control_c, 0, 64, 56
2,127733, Control_c, 0, 64, 59
2,127742, Note_on_c, 0, 52, 0
2,127744, Note_on_c, 0, 60, 0
2,127752, Control_c, 0, 64, 60
2,127772, Control_c, 0, 64, 62
2,127791, Control_c, 0, 64, 63
2,127810, Control_c, 0, 64, 64
2,127829, Control_c, 0, 64, 66
2,127849, Control_c, 0, 64, 67
2,127867, Control_c, 0, 64, 70
2,127887, Control_c, 0, 64, 75
2,127906, Control_c, 0, 64, 82
2,127930, Control_c, 0, 64, 91
2,127933, Note_on_c, 0, 50, 0
2,127949, Control_c, 0, 64, 101
2,127949, Note_on_c, 0, 69, 0
2,127969, Control_c, 0, 64, 100
2,127987, Control_c, 0, 64, 80
2,128002, Note_on_c, 0, 71, 75
2,128007, Control_c, 0, 64, 57
2,128010, Note_on_c, 0, 50, 52
2,128026, Control_c, 0, 64, 0
2,128031, Note_on_c, 0, 67, 38
2,128059, Note_on_c, 0, 50, 0
2,128085, Note_on_c, 0, 71, 0
2,128115, Note_on_c, 0, 67, 0
2,128137, Note_on_c, 0, 67, 36
2,128179, Note_on_c, 0, 52, 47
2,128243, Note_on_c, 0, 52, 0
2,128322, Note_on_c, 0, 53, 54
2,128336, Note_on_c, 0, 74, 71
2,128373, Note_on_c, 0, 53, 0
2,128404, Note_on_c, 0, 74, 0
2,128496, Note_on_c, 0, 52, 51
2,128562, Note_on_c, 0, 52, 0
2,128663, Note_on_c, 0, 50, 61
2,128699, Note_on_c, 0, 50, 0
2,128877, Note_on_c, 0, 67, 0
2,128990, Note_on_c, 0, 48, 73
2,128995, Note_on_c, 0, 69, 57
2,129027, Control_c, 0, 64, 46
2,129046, Control_c, 0, 64, 51
2,129066, Control_c, 0, 64, 53
2,129085, Control_c, 0, 64, 55
2,129104, Control_c, 0, 64, 57
2,129123, Control_c, 0, 64, 59
2,129143, Control_c, 0, 64, 61
2,129162, Control_c, 0, 64, 62
2,129180, Control_c, 0, 64, 62
2,129200, Control_c, 0, 64, 63
2,129219, Control_c, 0, 64, 64
2,129238, Control_c, 0, 64, 65
2,129257, Control_c, 0, 64, 66
2,129270, Note_on_c, 0, 48, 0
2,129277, Control_c, 0, 64, 67
2,129296, Control_c, 0, 64, 64
2,129315, Control_c, 0, 64, 47
2,129325, Note_on_c, 0, 59, 64
2,129333, Note_on_c, 0, 69, 0
2,129334, Control_c, 0, 64, 0
2,129337, Note_on_c, 0, 67, 68
2,129360, Note_on_c, 0, 59, 0
2,129387, Note_on_c, 0, 67, 0
2,129464, Note_on_c, 0, 55, 56
2,129482, Note_on_c, 0, 65, 59
2,129503, Note_on_c, 0, 55, 0
2,129528, Note_on_c, 0, 65, 0
2,129642, Note_on_c, 0, 62, 60
2,129650, Note_on_c, 0, 53, 48
2,129650, Note_on_c, 0, 69, 74
2,129687, Note_on_c, 0, 62, 0
2,129708, Note_on_c, 0, 69, 0
2,129710, Note_on_c, 0, 53, 0
2,129797, Note_on_c, 0, 52, 46
2,129798, Note_on_c, 0, 67, 68
2,129853, Note_on_c, 0, 52, 0
2,129870, Note_on_c, 0, 67, 0
2,129957, Note_on_c, 0, 50, 57
2,129986, Note_on_c, 0, 65, 54
2,130057, Note_on_c, 0, 65, 0
2,130120, Note_on_c, 0, 64, 54
2,130227, Note_on_c, 0, 64, 0
2,130284, Note_on_c, 0, 57, 54
2,130284, Note_on_c, 0, 67, 63
2,130333, Note_on_c, 0, 57, 0
2,130333, Note_on_c, 0, 67, 0
2,130431, Note_on_c, 0, 65, 66
2,130480, Note_on_c, 0, 65, 0
2,130602, Note_on_c, 0, 55, 54
2,130604, Note_on_c, 0, 64, 70
2,130677, Note_on_c, 0, 64, 0
2,130760, Note_on_c, 0, 53, 51
2,130773, Note_on_c, 0, 55, 0
2,130847, Note_on_c, 0, 53, 0
2,130901, Note_on_c, 0, 65, 64
2,130920, Note_on_c, 0, 57, 58
2,130923, Note_on_c, 0, 48, 48
2,130970, Note_on_c, 0, 50, 0
2,130971, Note_on_c, 0, 65, 0
2,130977, Note_on_c, 0, 57, 0
2,131056, Note_on_c, 0, 55, 57
2,131110, Note_on_c, 0, 55, 0
2,131217, Note_on_c, 0, 53, 56
2,131248, Note_on_c, 0, 67, 67
2,131286, Note_on_c, 0, 53, 0
2,131391, Note_on_c, 0, 48, 0
2,131391, Note_on_c, 0, 52, 53
2,131442, Note_on_c, 0, 52, 0
2,131469, Note_on_c, 0, 67, 0
2,131577, Note_on_c, 0, 55, 43
2,131578, Note_on_c, 0, 62, 63
2,131585, Note_on_c, 0, 47, 40
2,131618, Control_c, 0, 64, 26
2,131629, Note_on_c, 0, 55, 0
2,131637, Control_c, 0, 64, 50
2,131638, Note_on_c, 0, 62, 0
2,131656, Control_c, 0, 64, 58
2,131676, Control_c, 0, 64, 60
2,131693, Note_on_c, 0, 47, 0
2,131695, Control_c, 0, 64, 60
2,131714, Control_c, 0, 64, 61
2,131733, Control_c, 0, 64, 62
2,131733, Note_on_c, 0, 53, 52
2,131753, Control_c, 0, 64, 63
2,131772, Control_c, 0, 64, 64
2,131791, Control_c, 0, 64, 64
2,131810, Control_c, 0, 64, 65
2,131817, Note_on_c, 0, 53, 0
2,131868, Control_c, 0, 64, 63
2,131887, Control_c, 0, 64, 49
2,131907, Control_c, 0, 64, 0
2,131918, Note_on_c, 0, 52, 41
2,131926, Note_on_c, 0, 48, 44
2,131926, Note_on_c, 0, 69, 76
2,132012, Note_on_c, 0, 69, 0
2,132027, Note_on_c, 0, 52, 0
2,132087, Note_on_c, 0, 71, 71
2,132158, Note_on_c, 0, 71, 0
2,132188, Note_on_c, 0, 48, 0
2,132243, Note_on_c, 0, 53, 51
2,132257, Note_on_c, 0, 50, 37
2,132260, Note_on_c, 0, 69, 75
2,132282, Note_on_c, 0, 53, 0
2,132296, Note_on_c, 0, 50, 0
2,132319, Note_on_c, 0, 69, 0
2,132402, Note_on_c, 0, 71, 76
2,132439, Note_on_c, 0, 71, 0
2,132572, Note_on_c, 0, 72, 79
2,132576, Note_on_c, 0, 43, 52
2,132588, Note_on_c, 0, 55, 49
2,132613, Note_on_c, 0, 72, 0
2,132649, Note_on_c, 0, 71, 74
2,132695, Note_on_c, 0, 71, 0
2,132730, Note_on_c, 0, 72, 64
2,132773, Note_on_c, 0, 72, 0
2,132796, Note_on_c, 0, 71, 77
2,132837, Note_on_c, 0, 50, 61
2,132845, Note_on_c, 0, 72, 80
2,132857, Note_on_c, 0, 71, 0
2,132871, Note_on_c, 0, 55, 0
2,132911, Note_on_c, 0, 72, 0
2,132924, Note_on_c, 0, 71, 80
2,132983, Note_on_c, 0, 71, 0
2,132989, Note_on_c, 0, 69, 75
2,133060, Note_on_c, 0, 71, 82
2,133074, Note_on_c, 0, 69, 0
2,133118, Note_on_c, 0, 43, 0
2,133150, Note_on_c, 0, 50, 0
2,133151, Note_on_c, 0, 72, 90
2,133158, Note_on_c, 0, 71, 0
2,133160, Note_on_c, 0, 57, 60
2,133236, Note_on_c, 0, 57, 0
2,133280, Note_on_c, 0, 72, 0
2,133314, Note_on_c, 0, 74, 82
2,133321, Note_on_c, 0, 59, 56
2,133361, Note_on_c, 0, 59, 0
2,133373, Note_on_c, 0, 74, 0
2,133473, Note_on_c, 0, 57, 58
2,133481, Note_on_c, 0, 72, 80
2,133515, Note_on_c, 0, 57, 0
2,133546, Note_on_c, 0, 72, 0
2,133610, Note_on_c, 0, 59, 67
2,133617, Note_on_c, 0, 74, 80
2,133650, Note_on_c, 0, 59, 0
2,133653, Note_on_c, 0, 74, 0
2,133775, Note_on_c, 0, 55, 65
2,133783, Note_on_c, 0, 60, 66
2,133784, Note_on_c, 0, 76, 87
2,133842, Note_on_c, 0, 76, 0
2,133868, Note_on_c, 0, 74, 79
2,133881, Note_on_c, 0, 59, 73
2,133930, Note_on_c, 0, 59, 0
2,133933, Note_on_c, 0, 74, 0
2,133944, Note_on_c, 0, 76, 83
2,133957, Note_on_c, 0, 60, 0
2,133988, Note_on_c, 0, 60, 10
2,134003, Note_on_c, 0, 76, 0
2,134006, Note_on_c, 0, 55, 0
2,134010, Note_on_c, 0, 74, 76
2,134020, Note_on_c, 0, 59, 51
2,134028, Note_on_c, 0, 53, 48
2,134052, Note_on_c, 0, 60, 0
2,134075, Note_on_c, 0, 76, 77
2,134078, Note_on_c, 0, 74, 0
2,134136, Note_on_c, 0, 76, 0
2,134137, Note_on_c, 0, 74, 80
2,134199, Note_on_c, 0, 74, 0
2,134203, Note_on_c, 0, 59, 0
2,134208, Note_on_c, 0, 72, 73
2,134229, Control_c, 0, 64, 32
2,134247, Control_c, 0, 64, 47
2,134267, Control_c, 0, 64, 55
2,134272, Note_on_c, 0, 74, 80
2,134282, Note_on_c, 0, 72, 0
2,134286, Control_c, 0, 64, 55
2,134306, Control_c, 0, 64, 49
2,134324, Control_c, 0, 64, 0
2,134361, Note_on_c, 0, 60, 65
2,134362, Note_on_c, 0, 52, 47
2,134364, Note_on_c, 0, 76, 91
2,134374, Note_on_c, 0, 74, 0
2,134406, Note_on_c, 0, 53, 0
2,134539, Note_on_c, 0, 74, 78
2,134555, Note_on_c, 0, 76, 0
2,134599, Note_on_c, 0, 74, 0
2,134624, Note_on_c, 0, 52, 0
2,134694, Note_on_c, 0, 50, 51
2,134708, Note_on_c, 0, 72, 78
2,134743, Note_on_c, 0, 72, 0
2,134763, Note_on_c, 0, 50, 0
2,134855, Note_on_c, 0, 71, 76
2,134898, Note_on_c, 0, 71, 0
2,135017, Note_on_c, 0, 69, 84
2,135025, Note_on_c, 0, 48, 53
2,135098, Note_on_c, 0, 69, 0
2,135176, Note_on_c, 0, 67, 73
2,135235, Note_on_c, 0, 67, 0
2,135315, Note_on_c, 0, 52, 53
2,135339, Note_on_c, 0, 66, 76
2,135396, Note_on_c, 0, 66, 0
2,135439, Note_on_c, 0, 52, 0
2,135491, Note_on_c, 0, 64, 66
2,135537, Note_on_c, 0, 64, 0
2,135596, Note_on_c, 0, 48, 0
2,135660, Note_on_c, 0, 50, 65
2,135664, Note_on_c, 0, 60, 0
2,135668, Note_on_c, 0, 66, 60
2,135687, Control_c, 0, 64, 42
2,135707, Control_c, 0, 64, 65
2,135726, Control_c, 0, 64, 63
2,135764, Control_c, 0, 64, 64
2,135779, Note_on_c, 0, 50, 0
2,135784, Control_c, 0, 64, 64
2,135803, Control_c, 0, 64, 65
2,135822, Control_c, 0, 64, 66
2,135880, Control_c, 0, 64, 66
2,135898, Control_c, 0, 64, 67
2,135918, Control_c, 0, 64, 68
2,135937, Control_c, 0, 64, 69
2,135957, Control_c, 0, 64, 70
2,135975, Control_c, 0, 64, 67
2,135995, Control_c, 0, 64, 58
2,136000, Note_on_c, 0, 50, 70
2,136002, Note_on_c, 0, 54, 72
2,136002, Note_on_c, 0, 62, 58
2,136002, Note_on_c, 0, 66, 0
2,136014, Control_c, 0, 64, 0
2,136042, Note_on_c, 0, 54, 0
2,136053, Note_on_c, 0, 62, 0
2,136058, Note_on_c, 0, 50, 0
2,136152, Note_on_c, 0, 52, 72
2,136201, Note_on_c, 0, 52, 0
2,136323, Note_on_c, 0, 50, 74
2,136325, Note_on_c, 0, 64, 73
2,136327, Note_on_c, 0, 55, 70
2,136362, Note_on_c, 0, 55, 0
2,136367, Note_on_c, 0, 50, 0
2,136399, Note_on_c, 0, 64, 0
2,136656, Note_on_c, 0, 48, 65
2,136662, Note_on_c, 0, 66, 70
2,136752, Note_on_c, 0, 66, 0
2,136759, Note_on_c, 0, 48, 0
2,136990, Note_on_c, 0, 67, 76
2,136992, Note_on_c, 0, 47, 61
2,137001, Note_on_c, 0, 59, 54
2,137012, Control_c, 0, 64, 52
2,137030, Note_on_c, 0, 67, 0
2,137032, Control_c, 0, 64, 70
2,137051, Control_c, 0, 64, 70
2,137070, Control_c, 0, 64, 69
2,137093, Note_on_c, 0, 59, 0
2,137109, Control_c, 0, 64, 71
2,137127, Control_c, 0, 64, 73
2,137147, Control_c, 0, 64, 75
2,137166, Control_c, 0, 64, 76
2,137186, Control_c, 0, 64, 77
2,137196, Note_on_c, 0, 47, 0
2,137204, Control_c, 0, 64, 77
2,137224, Control_c, 0, 64, 78
2,137243, Control_c, 0, 64, 78
2,137262, Control_c, 0, 64, 80
2,137281, Control_c, 0, 64, 81
2,137300, Control_c, 0, 64, 82
2,137320, Control_c, 0, 64, 78
2,137323, Note_on_c, 0, 74, 82
2,137328, Note_on_c, 0, 50, 56
2,137330, Note_on_c, 0, 47, 59
2,137338, Control_c, 0, 64, 66
2,137358, Control_c, 0, 64, 8
2,137364, Note_on_c, 0, 50, 0
2,137369, Note_on_c, 0, 66, 27
2,137371, Note_on_c, 0, 47, 0
2,137377, Control_c, 0, 64, 0
2,137395, Note_on_c, 0, 74, 0
2,137406, Note_on_c, 0, 66, 0
2,137476, Note_on_c, 0, 48, 62
2,137477, Note_on_c, 0, 76, 82
2,137522, Note_on_c, 0, 48, 0
2,137553, Note_on_c, 0, 76, 0
2,137655, Note_on_c, 0, 52, 57
2,137656, Note_on_c, 0, 74, 77
2,137657, Note_on_c, 0, 67, 64
2,137658, Note_on_c, 0, 47, 57
2,137695, Note_on_c, 0, 52, 0
2,137695, Note_on_c, 0, 67, 0
2,137709, Note_on_c, 0, 47, 0
2,137727, Note_on_c, 0, 74, 0
2,137975, Note_on_c, 0, 54, 68
2,137977, Note_on_c, 0, 72, 85
2,137992, Note_on_c, 0, 69, 51
2,138000, Note_on_c, 0, 45, 45
2,138028, Note_on_c, 0, 69, 0
2,138045, Note_on_c, 0, 45, 0
2,138055, Note_on_c, 0, 72, 0
2,138067, Note_on_c, 0, 54, 0
2,138320, Note_on_c, 0, 71, 79
2,138321, Note_on_c, 0, 62, 62
2,138322, Note_on_c, 0, 55, 56
2,138335, Note_on_c, 0, 43, 48
2,138397, Control_c, 0, 64, 19
2,138405, Note_on_c, 0, 43, 0
2,138416, Control_c, 0, 64, 26
2,138435, Control_c, 0, 64, 27
2,138454, Control_c, 0, 64, 35
2,138474, Control_c, 0, 64, 44
2,138488, Note_on_c, 0, 45, 62
2,138492, Control_c, 0, 64, 47
2,138512, Control_c, 0, 64, 48
2,138531, Control_c, 0, 64, 47
2,138537, Note_on_c, 0, 71, 0
2,138540, Note_on_c, 0, 45, 0
2,138551, Control_c, 0, 64, 46
2,138569, Control_c, 0, 64, 44
2,138589, Control_c, 0, 64, 31
2,138608, Control_c, 0, 64, 0
2,138649, Note_on_c, 0, 71, 83
2,138651, Note_on_c, 0, 47, 69
2,138687, Note_on_c, 0, 47, 0
2,138719, Note_on_c, 0, 71, 0
2,138790, Note_on_c, 0, 45, 57
2,138806, Note_on_c, 0, 72, 82
2,138848, Note_on_c, 0, 45, 0
2,138889, Note_on_c, 0, 72, 0
2,138977, Note_on_c, 0, 43, 80
2,138998, Note_on_c, 0, 71, 75
2,139015, Note_on_c, 0, 55, 0
2,139017, Note_on_c, 0, 70, 54
2,139030, Note_on_c, 0, 62, 0
2,139051, Note_on_c, 0, 70, 0
2,139060, Note_on_c, 0, 43, 0
2,139069, Note_on_c, 0, 71, 0
2,139314, Note_on_c, 0, 42, 84
2,139317, Control_c, 0, 64, 48
2,139323, Note_on_c, 0, 69, 78
2,139335, Control_c, 0, 64, 65
2,139355, Control_c, 0, 64, 66
2,139360, Note_on_c, 0, 63, 42
2,139385, Note_on_c, 0, 69, 0
2,139389, Note_on_c, 0, 42, 0
2,139393, Control_c, 0, 64, 67
2,139401, Note_on_c, 0, 63, 0
2,139412, Control_c, 0, 64, 68
2,139432, Control_c, 0, 64, 69
2,139452, Control_c, 0, 64, 71
2,139471, Control_c, 0, 64, 72
2,139510, Note_on_c, 0, 69, 13
2,139567, Control_c, 0, 64, 73
2,139605, Control_c, 0, 64, 73
2,139625, Control_c, 0, 64, 73
2,139644, Control_c, 0, 64, 67
2,139662, Control_c, 0, 64, 40
2,139666, Note_on_c, 0, 67, 76
2,139674, Note_on_c, 0, 52, 57
2,139675, Note_on_c, 0, 59, 65
2,139682, Control_c, 0, 64, 0
2,139708, Note_on_c, 0, 69, 0
2,139736, Note_on_c, 0, 52, 0
2,139763, Note_on_c, 0, 67, 0
2,139818, Note_on_c, 0, 69, 83
2,139918, Note_on_c, 0, 69, 0
2,139980, Note_on_c, 0, 55, 60
2,139996, Note_on_c, 0, 71, 84
2,140022, Note_on_c, 0, 64, 49
2,140053, Note_on_c, 0, 64, 0
2,140073, Note_on_c, 0, 71, 0
2,140127, Note_on_c, 0, 55, 0
2,140146, Note_on_c, 0, 69, 81
2,140159, Note_on_c, 0, 63, 56
2,140194, Note_on_c, 0, 63, 0
2,140239, Note_on_c, 0, 69, 0
2,140316, Note_on_c, 0, 67, 80
2,140332, Note_on_c, 0, 64, 53
2,140347, Note_on_c, 0, 59, 0
2,140361, Note_on_c, 0, 64, 0
2,140401, Note_on_c, 0, 67, 0
2,140646, Note_on_c, 0, 66, 81
2,140649, Note_on_c, 0, 50, 60
2,140869, Note_on_c, 0, 50, 0
2,140919, Note_on_c, 0, 66, 0
2,140964, Note_on_c, 0, 48, 65
2,140968, Note_on_c, 0, 76, 84
2,141018, Note_on_c, 0, 48, 0
2,141031, Note_on_c, 0, 76, 0
2,141121, Note_on_c, 0, 47, 54
2,141174, Note_on_c, 0, 47, 0
2,141291, Note_on_c, 0, 50, 50
2,141294, Note_on_c, 0, 52, 51
2,141299, Note_on_c, 0, 79, 80
2,141313, Note_on_c, 0, 67, 57
2,141341, Note_on_c, 0, 50, 0
2,141357, Note_on_c, 0, 52, 0
2,141362, Note_on_c, 0, 79, 0
2,141402, Note_on_c, 0, 67, 0
2,141439, Note_on_c, 0, 48, 58
2,141505, Note_on_c, 0, 48, 0
2,141623, Note_on_c, 0, 69, 65
2,141628, Note_on_c, 0, 54, 59
2,141640, Note_on_c, 0, 47, 53
2,141683, Note_on_c, 0, 54, 0
2,141705, Note_on_c, 0, 47, 0
2,141790, Note_on_c, 0, 45, 63
2,141810, Note_on_c, 0, 69, 0
2,141845, Note_on_c, 0, 45, 0
2,141961, Note_on_c, 0, 71, 50
2,141966, Note_on_c, 0, 55, 56
2,141966, Note_on_c, 0, 74, 68
2,141972, Note_on_c, 0, 48, 59
2,142016, Note_on_c, 0, 48, 0
2,142016, Note_on_c, 0, 55, 0
2,142033, Note_on_c, 0, 71, 0
2,142083, Note_on_c, 0, 74, 0
2,142122, Note_on_c, 0, 47, 65
2,142178, Note_on_c, 0, 47, 0
2,142292, Note_on_c, 0, 57, 60
2,142301, Note_on_c, 0, 45, 43
2,142311, Note_on_c, 0, 72, 72
2,142388, Note_on_c, 0, 57, 0
2,142409, Note_on_c, 0, 72, 0
2,142461, Note_on_c, 0, 71, 75
2,142490, Note_on_c, 0, 45, 0
2,142538, Note_on_c, 0, 71, 0
2,142632, Note_on_c, 0, 50, 56
2,142639, Note_on_c, 0, 47, 47
2,142643, Note_on_c, 0, 74, 75
2,142659, Note_on_c, 0, 67, 49
2,142690, Note_on_c, 0, 67, 0
2,142715, Note_on_c, 0, 74, 0
2,142759, Note_on_c, 0, 50, 0
2,142793, Note_on_c, 0, 72, 77
2,142805, Note_on_c, 0, 47, 0
2,142873, Note_on_c, 0, 72, 0
2,142953, Note_on_c, 0, 48, 52
2,142957, Note_on_c, 0, 52, 51
2,142963, Note_on_c, 0, 71, 73
2,143062, Note_on_c, 0, 71, 0
2,143103, Note_on_c, 0, 48, 0
2,143113, Note_on_c, 0, 69, 70
2,143206, Note_on_c, 0, 52, 0
2,143223, Note_on_c, 0, 69, 0
2,143267, Note_on_c, 0, 72, 77
2,143271, Note_on_c, 0, 43, 62
2,143281, Note_on_c, 0, 50, 55
2,143303, Note_on_c, 0, 66, 42
2,143333, Note_on_c, 0, 50, 0
2,143338, Note_on_c, 0, 66, 0
2,143361, Note_on_c, 0, 72, 0
2,143402, Note_on_c, 0, 43, 0
2,143434, Note_on_c, 0, 71, 72
2,143438, Note_on_c, 0, 52, 65
2,143472, Note_on_c, 0, 67, 24
2,143487, Note_on_c, 0, 52, 0
2,143510, Note_on_c, 0, 67, 0
2,143519, Note_on_c, 0, 71, 0
2,143601, Note_on_c, 0, 50, 57
2,143602, Note_on_c, 0, 69, 73
2,143603, Note_on_c, 0, 54, 63
2,143660, Note_on_c, 0, 69, 0
2,143667, Note_on_c, 0, 54, 0
2,143761, Note_on_c, 0, 55, 65
2,143821, Note_on_c, 0, 55, 0
2,143916, Note_on_c, 0, 52, 66
2,143931, Note_on_c, 0, 71, 70
2,143982, Note_on_c, 0, 52, 0
2,143992, Note_on_c, 0, 71, 0
2,143993, Note_on_c, 0, 50, 0
2,144084, Note_on_c, 0, 54, 73
2,144128, Note_on_c, 0, 54, 0
2,144261, Note_on_c, 0, 72, 71
2,144270, Note_on_c, 0, 52, 48
2,144279, Note_on_c, 0, 55, 46
2,144385, Note_on_c, 0, 55, 0
2,144385, Note_on_c, 0, 72, 0
2,144435, Note_on_c, 0, 57, 62
2,144493, Note_on_c, 0, 57, 0
2,144518, Note_on_c, 0, 52, 0
2,144603, Note_on_c, 0, 67, 61
2,144611, Note_on_c, 0, 54, 58
2,144655, Note_on_c, 0, 67, 0
2,144665, Note_on_c, 0, 54, 0
2,144673, Control_c, 0, 64, 35
2,144691, Control_c, 0, 64, 53
2,144711, Control_c, 0, 64, 55
2,144730, Control_c, 0, 64, 56
2,144749, Control_c, 0, 64, 56
2,144768, Control_c, 0, 64, 57
2,144768, Note_on_c, 0, 55, 62
2,144788, Control_c, 0, 64, 58
2,144807, Control_c, 0, 64, 59
2,144813, Note_on_c, 0, 55, 0
2,144826, Control_c, 0, 64, 60
2,144845, Control_c, 0, 64, 60
2,144865, Control_c, 0, 64, 61
2,144883, Control_c, 0, 64, 60
2,144902, Control_c, 0, 64, 55
2,144922, Control_c, 0, 64, 11
2,144927, Note_on_c, 0, 74, 70
2,144931, Note_on_c, 0, 54, 51
2,144934, Note_on_c, 0, 57, 55
2,144941, Control_c, 0, 64, 0
2,145015, Note_on_c, 0, 74, 0
2,145020, Note_on_c, 0, 57, 0
2,145085, Note_on_c, 0, 76, 71
2,145148, Note_on_c, 0, 76, 0
2,145242, Note_on_c, 0, 59, 58
2,145245, Note_on_c, 0, 74, 74
2,145300, Note_on_c, 0, 59, 0
2,145313, Note_on_c, 0, 74, 0
2,145391, Note_on_c, 0, 76, 80
2,145394, Note_on_c, 0, 60, 55
2,145430, Note_on_c, 0, 76, 0
2,145443, Note_on_c, 0, 54, 0
2,145468, Note_on_c, 0, 60, 0
2,145557, Note_on_c, 0, 77, 80
2,145558, Note_on_c, 0, 59, 61
2,145562, Note_on_c, 0, 55, 46
2,145610, Note_on_c, 0, 77, 0
2,145620, Note_on_c, 0, 59, 0
2,145633, Note_on_c, 0, 76, 78
2,145700, Note_on_c, 0, 76, 0
2,145708, Note_on_c, 0, 77, 82
2,145713, Note_on_c, 0, 60, 52
2,145767, Note_on_c, 0, 60, 0
2,145772, Note_on_c, 0, 77, 0
2,145788, Note_on_c, 0, 76, 76
2,145829, Note_on_c, 0, 57, 59
2,145846, Note_on_c, 0, 77, 76
2,145847, Note_on_c, 0, 76, 0
2,145894, Note_on_c, 0, 57, 0
2,145917, Note_on_c, 0, 77, 0
2,145925, Note_on_c, 0, 76, 77
2,145961, Note_on_c, 0, 76, 0
2,145968, Note_on_c, 0, 55, 0
2,145969, Note_on_c, 0, 59, 65
2,145971, Note_on_c, 0, 74, 65
2,146040, Note_on_c, 0, 59, 0
2,146051, Note_on_c, 0, 76, 88
2,146065, Note_on_c, 0, 74, 0
2,146132, Note_on_c, 0, 76, 0
2,146137, Note_on_c, 0, 77, 89
2,146142, Note_on_c, 0, 60, 71
2,146170, Note_on_c, 0, 57, 39
2,146330, Note_on_c, 0, 60, 0
2,146353, Note_on_c, 0, 76, 64
2,146375, Note_on_c, 0, 74, 53
2,146412, Note_on_c, 0, 74, 0
2,146415, Note_on_c, 0, 76, 0
2,146488, Note_on_c, 0, 62, 67
2,146498, Note_on_c, 0, 74, 75
2,146532, Note_on_c, 0, 62, 0
2,146537, Note_on_c, 0, 74, 0
2,146642, Note_on_c, 0, 64, 62
2,146643, Note_on_c, 0, 72, 74
2,146693, Note_on_c, 0, 64, 0
2,146702, Note_on_c, 0, 72, 0
2,146808, Note_on_c, 0, 71, 75
2,146821, Note_on_c, 0, 62, 62
2,146823, Note_on_c, 0, 57, 0
2,146847, Note_on_c, 0, 59, 49
2,146897, Note_on_c, 0, 71, 0
2,146970, Note_on_c, 0, 69, 71
2,146991, Note_on_c, 0, 59, 0
2,147001, Note_on_c, 0, 62, 0
2,147026, Note_on_c, 0, 69, 0
2,147131, Note_on_c, 0, 57, 46
2,147132, Note_on_c, 0, 68, 71
2,147134, Note_on_c, 0, 60, 44
2,147171, Note_on_c, 0, 60, 0
2,147183, Note_on_c, 0, 57, 0
2,147196, Note_on_c, 0, 68, 0
2,147281, Note_on_c, 0, 69, 74
2,147315, Note_on_c, 0, 69, 0
2,147475, Note_on_c, 0, 71, 59
2,147477, Note_on_c, 0, 56, 44
2,147499, Note_on_c, 0, 59, 42
2,147565, Note_on_c, 0, 56, 0
2,147574, Control_c, 0, 64, 8
2,147594, Control_c, 0, 64, 34
2,147612, Control_c, 0, 64, 41
2,147632, Control_c, 0, 64, 42
2,147671, Control_c, 0, 64, 43
2,147687, Note_on_c, 0, 77, 0
2,147689, Control_c, 0, 64, 45
2,147709, Control_c, 0, 64, 49
2,147728, Control_c, 0, 64, 53
2,147748, Control_c, 0, 64, 56
2,147766, Control_c, 0, 64, 57
2,147786, Control_c, 0, 64, 54
2,147791, Note_on_c, 0, 59, 0
2,147794, Note_on_c, 0, 76, 69
2,147795, Note_on_c, 0, 56, 55
2,147805, Control_c, 0, 64, 32
2,147809, Note_on_c, 0, 52, 39
2,147823, Control_c, 0, 64, 0
2,147840, Note_on_c, 0, 56, 0
2,147846, Note_on_c, 0, 76, 0
2,147868, Note_on_c, 0, 52, 0
2,147893, Note_on_c, 0, 71, 0
2,147918, Note_on_c, 0, 71, 39
2,147942, Note_on_c, 0, 77, 77
2,148010, Note_on_c, 0, 77, 0
2,148115, Note_on_c, 0, 54, 49
2,148119, Note_on_c, 0, 76, 81
2,148120, Note_on_c, 0, 57, 50
2,148168, Note_on_c, 0, 54, 0
2,148174, Note_on_c, 0, 76, 0
2,148175, Note_on_c, 0, 57, 0
2,148197, Note_on_c, 0, 71, 0
2,148448, Note_on_c, 0, 56, 52
2,148451, Note_on_c, 0, 59, 62
2,148461, Note_on_c, 0, 74, 76
2,148495, Note_on_c, 0, 56, 0
2,148510, Note_on_c, 0, 74, 0
2,148514, Note_on_c, 0, 59, 0
2,148791, Note_on_c, 0, 72, 73
2,148805, Note_on_c, 0, 57, 46
2,148809, Note_on_c, 0, 60, 46
2,148821, Control_c, 0, 64, 31
2,148841, Control_c, 0, 64, 50
2,148844, Note_on_c, 0, 72, 0
2,148852, Note_on_c, 0, 60, 0
2,148857, Control_c, 0, 64, 58
2,148857, Note_on_c, 0, 57, 0
2,148877, Control_c, 0, 64, 62
2,148896, Control_c, 0, 64, 65
2,148916, Control_c, 0, 64, 67
2,148934, Control_c, 0, 64, 71
2,148954, Control_c, 0, 64, 77
2,148973, Control_c, 0, 64, 83
2,148993, Control_c, 0, 64, 89
2,149011, Control_c, 0, 64, 93
2,149031, Control_c, 0, 64, 97
2,149050, Control_c, 0, 64, 101
2,149069, Control_c, 0, 64, 104
2,149088, Control_c, 0, 64, 105
2,149108, Control_c, 0, 64, 102
2,149127, Control_c, 0, 64, 81
2,149129, Note_on_c, 0, 64, 79
2,149144, Note_on_c, 0, 48, 48
2,149144, Note_on_c, 0, 52, 45
2,149144, Note_on_c, 0, 72, 61
2,149146, Control_c, 0, 64, 62
2,149165, Control_c, 0, 64, 0
2,149166, Note_on_c, 0, 64, 0
2,149178, Note_on_c, 0, 52, 0
2,149184, Note_on_c, 0, 48, 0
2,149188, Note_on_c, 0, 72, 0
2,149272, Note_on_c, 0, 65, 76
2,149288, Note_on_c, 0, 72, 56
2,149289, Note_on_c, 0, 74, 67
2,149320, Note_on_c, 0, 65, 0
2,149325, Note_on_c, 0, 72, 0
2,149335, Note_on_c, 0, 74, 0
2,149433, Note_on_c, 0, 64, 86
2,149442, Note_on_c, 0, 72, 64
2,149444, Note_on_c, 0, 54, 71
2,149467, Note_on_c, 0, 50, 38
2,149480, Note_on_c, 0, 64, 0
2,149493, Note_on_c, 0, 72, 0
2,149496, Note_on_c, 0, 54, 0
2,149514, Note_on_c, 0, 50, 0
2,149783, Note_on_c, 0, 62, 77
2,149791, Note_on_c, 0, 56, 70
2,149791, Note_on_c, 0, 71, 74
2,149792, Note_on_c, 0, 52, 44
2,149826, Note_on_c, 0, 52, 0
2,149840, Note_on_c, 0, 71, 0
2,149858, Note_on_c, 0, 62, 0
2,149864, Note_on_c, 0, 56, 0
2,150128, Note_on_c, 0, 57, 77
2,150137, Note_on_c, 0, 60, 59
2,150142, Note_on_c, 0, 53, 64
2,150143, Note_on_c, 0, 69, 67
2,150182, Control_c, 0, 64, 28
2,150195, Note_on_c, 0, 60, 0
2,150202, Control_c, 0, 64, 48
2,150221, Control_c, 0, 64, 57
2,150240, Control_c, 0, 64, 59
2,150256, Note_on_c, 0, 69, 0
2,150259, Control_c, 0, 64, 60
2,150279, Control_c, 0, 64, 61
2,150297, Control_c, 0, 64, 62
2,150316, Note_on_c, 0, 71, 62
2,150317, Control_c, 0, 64, 63
2,150327, Note_on_c, 0, 57, 0
2,150336, Control_c, 0, 64, 64
2,150356, Control_c, 0, 64, 65
2,150374, Control_c, 0, 64, 67
2,150394, Control_c, 0, 64, 68
2,150412, Note_on_c, 0, 53, 0
2,150413, Control_c, 0, 64, 67
2,150433, Control_c, 0, 64, 64
2,150444, Note_on_c, 0, 71, 0
2,150451, Control_c, 0, 64, 37
2,150471, Control_c, 0, 64, 0
2,150471, Note_on_c, 0, 60, 75
2,150485, Note_on_c, 0, 72, 67
2,150523, Note_on_c, 0, 60, 0
2,150536, Note_on_c, 0, 72, 0
2,150630, Note_on_c, 0, 62, 71
2,150635, Note_on_c, 0, 71, 77
2,150668, Note_on_c, 0, 62, 0
2,150715, Note_on_c, 0, 71, 0
2,150804, Note_on_c, 0, 69, 89
2,150806, Note_on_c, 0, 60, 70
2,150839, Note_on_c, 0, 60, 0
2,150898, Note_on_c, 0, 69, 0
2,151140, Note_on_c, 0, 67, 83
2,151143, Note_on_c, 0, 49, 55
2,151149, Note_on_c, 0, 52, 47
2,151161, Note_on_c, 0, 58, 41
2,151184, Control_c, 0, 64, 62
2,151193, Note_on_c, 0, 52, 0
2,151203, Control_c, 0, 64, 65
2,151222, Control_c, 0, 64, 66
2,151242, Control_c, 0, 64, 66
2,151260, Control_c, 0, 64, 67
2,151280, Control_c, 0, 64, 70
2,151290, Note_on_c, 0, 58, 0
2,151296, Note_on_c, 0, 49, 0
2,151299, Control_c, 0, 64, 74
2,151319, Control_c, 0, 64, 76
2,151337, Control_c, 0, 64, 77
2,151395, Control_c, 0, 64, 77
2,151414, Control_c, 0, 64, 78
2,151433, Control_c, 0, 64, 80
2,151446, Note_on_c, 0, 67, 0
2,151462, Note_on_c, 0, 77, 83
2,151471, Control_c, 0, 64, 70
2,151481, Note_on_c, 0, 57, 67
2,151491, Control_c, 0, 64, 47
2,151497, Note_on_c, 0, 50, 51
2,151501, Note_on_c, 0, 53, 45
2,151510, Control_c, 0, 64, 0
2,151528, Note_on_c, 0, 57, 0
2,151545, Note_on_c, 0, 77, 0
2,151553, Note_on_c, 0, 53, 0
2,151588, Note_on_c, 0, 50, 0
2,151635, Note_on_c, 0, 59, 76
2,151675, Note_on_c, 0, 59, 0
2,151791, Note_on_c, 0, 81, 82
2,151796, Note_on_c, 0, 61, 68
2,151815, Note_on_c, 0, 52, 47
2,151826, Note_on_c, 0, 55, 41
2,151842, Note_on_c, 0, 61, 0
2,151892, Note_on_c, 0, 55, 0
2,151892, Note_on_c, 0, 81, 0
2,151927, Note_on_c, 0, 52, 0
2,151955, Note_on_c, 0, 59, 70
2,152003, Note_on_c, 0, 59, 0
2,152105, Control_c, 0, 64, 52
2,152115, Note_on_c, 0, 57, 66
2,152125, Control_c, 0, 64, 58
2,152132, Note_on_c, 0, 50, 56
2,152143, Note_on_c, 0, 53, 48
2,152144, Control_c, 0, 64, 57
2,152163, Control_c, 0, 64, 59
2,152182, Control_c, 0, 64, 60
2,152191, Note_on_c, 0, 50, 0
2,152202, Control_c, 0, 64, 62
2,152205, Note_on_c, 0, 53, 0
2,152220, Control_c, 0, 64, 63
2,152233, Note_on_c, 0, 57, 0
2,152259, Control_c, 0, 64, 64
2,152297, Control_c, 0, 64, 64
2,152316, Control_c, 0, 64, 65
2,152336, Control_c, 0, 64, 66
2,152355, Control_c, 0, 64, 68
2,152374, Control_c, 0, 64, 70
2,152393, Control_c, 0, 64, 71
2,152413, Control_c, 0, 64, 70
2,152431, Control_c, 0, 64, 62
2,152444, Note_on_c, 0, 76, 78
2,152451, Control_c, 0, 64, 0
2,152457, Note_on_c, 0, 58, 61
2,152461, Note_on_c, 0, 49, 53
2,152466, Note_on_c, 0, 55, 46
2,152590, Note_on_c, 0, 49, 0
2,152598, Note_on_c, 0, 76, 0
2,152609, Note_on_c, 0, 58, 0
2,152695, Note_on_c, 0, 55, 0
2,152787, Note_on_c, 0, 50, 44
2,152787, Note_on_c, 0, 66, 67
2,152790, Note_on_c, 0, 74, 76
2,152811, Note_on_c, 0, 57, 44
2,152835, Note_on_c, 0, 66, 0
2,152943, Note_on_c, 0, 72, 80
2,152963, Note_on_c, 0, 57, 0
2,153045, Note_on_c, 0, 74, 0
2,153057, Note_on_c, 0, 72, 0
2,153096, Note_on_c, 0, 56, 59
2,153118, Note_on_c, 0, 71, 71
2,153118, Note_on_c, 0, 76, 69
2,153155, Note_on_c, 0, 56, 0
2,153164, Note_on_c, 0, 71, 0
2,153202, Note_on_c, 0, 76, 0
2,153223, Note_on_c, 0, 50, 0
2,153246, Note_on_c, 0, 54, 61
2,153276, Note_on_c, 0, 74, 74
2,153285, Note_on_c, 0, 54, 0
2,153371, Note_on_c, 0, 74, 0
2,153439, Note_on_c, 0, 52, 55
2,153451, Note_on_c, 0, 72, 74
2,153486, Note_on_c, 0, 45, 36
2,153545, Note_on_c, 0, 72, 0
2,153603, Note_on_c, 0, 71, 72
2,153664, Note_on_c, 0, 71, 0
2,153756, Note_on_c, 0, 74, 66
2,153768, Note_on_c, 0, 57, 50
2,153773, Note_on_c, 0, 64, 62
2,153792, Control_c, 0, 64, 36
2,153811, Control_c, 0, 64, 53
2,153822, Note_on_c, 0, 64, 0
2,153829, Note_on_c, 0, 74, 0
2,153830, Control_c, 0, 64, 59
2,153853, Control_c, 0, 64, 61
2,153871, Control_c, 0, 64, 62
2,153891, Control_c, 0, 64, 62
2,153907, Note_on_c, 0, 72, 74
2,153910, Control_c, 0, 64, 63
2,153930, Control_c, 0, 64, 64
2,153948, Control_c, 0, 64, 64
2,153955, Note_on_c, 0, 72, 0
2,153968, Control_c, 0, 64, 65
2,153987, Control_c, 0, 64, 66
2,154006, Control_c, 0, 64, 67
2,154025, Control_c, 0, 64, 69
2,154045, Control_c, 0, 64, 68
2,154064, Control_c, 0, 64, 63
2,154081, Note_on_c, 0, 71, 68
2,154083, Control_c, 0, 64, 0
2,154086, Note_on_c, 0, 62, 60
2,154123, Note_on_c, 0, 57, 0
2,154162, Note_on_c, 0, 52, 0
2,154195, Note_on_c, 0, 62, 0
2,154241, Note_on_c, 0, 60, 45
2,154328, Note_on_c, 0, 60, 0
2,154385, Note_on_c, 0, 44, 60
2,154400, Note_on_c, 0, 52, 66
2,154406, Note_on_c, 0, 64, 49
2,154409, Note_on_c, 0, 45, 0
2,154463, Note_on_c, 0, 44, 0
2,154501, Note_on_c, 0, 64, 0
2,154558, Note_on_c, 0, 62, 50
2,154708, Note_on_c, 0, 71, 0
2,154711, Note_on_c, 0, 62, 0
2,154736, Note_on_c, 0, 45, 63
2,154748, Note_on_c, 0, 60, 54
2,154816, Note_on_c, 0, 52, 0
2,154860, Note_on_c, 0, 60, 0
2,154903, Note_on_c, 0, 59, 53
2,154985, Note_on_c, 0, 59, 0
2,155058, Note_on_c, 0, 53, 62
2,155082, Control_c, 0, 64, 29
2,155091, Note_on_c, 0, 69, 65
2,155100, Control_c, 0, 64, 32
2,155113, Note_on_c, 0, 53, 0
2,155120, Control_c, 0, 64, 41
2,155139, Control_c, 0, 64, 50
2,155159, Control_c, 0, 64, 56
2,155177, Control_c, 0, 64, 59
2,155196, Control_c, 0, 64, 60
2,155209, Note_on_c, 0, 51, 55
2,155219, Note_on_c, 0, 45, 0
2,155233, Note_on_c, 0, 60, 48
2,155235, Control_c, 0, 64, 61
2,155250, Note_on_c, 0, 51, 0
2,155254, Control_c, 0, 64, 61
2,155273, Control_c, 0, 64, 62
2,155293, Control_c, 0, 64, 63
2,155311, Control_c, 0, 64, 64
2,155324, Note_on_c, 0, 60, 0
2,155331, Control_c, 0, 64, 65
2,155350, Control_c, 0, 64, 64
2,155370, Control_c, 0, 64, 56
2,155371, Note_on_c, 0, 69, 0
2,155388, Control_c, 0, 64, 0
2,155402, Note_on_c, 0, 52, 53
2,155407, Note_on_c, 0, 59, 65
2,155427, Note_on_c, 0, 40, 34
2,155500, Note_on_c, 0, 59, 0
2,155554, Note_on_c, 0, 71, 58
2,155641, Note_on_c, 0, 71, 0
2,155711, Note_on_c, 0, 68, 65
2,155751, Note_on_c, 0, 60, 26
2,155777, Note_on_c, 0, 68, 0
2,155815, Note_on_c, 0, 60, 0
2,155881, Note_on_c, 0, 69, 63
2,155947, Note_on_c, 0, 69, 0
2,156048, Note_on_c, 0, 62, 45
2,156056, Note_on_c, 0, 71, 55
2,156183, Note_on_c, 0, 62, 0
2,156212, Note_on_c, 0, 60, 33
2,156277, Note_on_c, 0, 60, 0
2,156378, Note_on_c, 0, 64, 48
2,156430, Note_on_c, 0, 64, 0
2,156519, Note_on_c, 0, 62, 53
2,156581, Note_on_c, 0, 62, 0
2,156694, Note_on_c, 0, 71, 0
2,156700, Note_on_c, 0, 60, 58
2,156813, Note_on_c, 0, 60, 0
2,156850, Note_on_c, 0, 72, 65
2,156953, Note_on_c, 0, 72, 0
2,157022, Note_on_c, 0, 69, 68
2,157047, Note_on_c, 0, 62, 42
2,157069, Note_on_c, 0, 69, 0
2,157084, Note_on_c, 0, 62, 0
2,157178, Note_on_c, 0, 71, 77
2,157246, Note_on_c, 0, 71, 0
2,157339, Note_on_c, 0, 72, 77
2,157344, Note_on_c, 0, 64, 65
2,157476, Note_on_c, 0, 64, 0
2,157514, Note_on_c, 0, 62, 69
2,157567, Note_on_c, 0, 62, 0
2,157670, Note_on_c, 0, 65, 70
2,157721, Note_on_c, 0, 65, 0
2,157817, Note_on_c, 0, 64, 72
2,157875, Note_on_c, 0, 64, 0
2,157968, Note_on_c, 0, 72, 0
2,157997, Note_on_c, 0, 62, 72
2,158037, Control_c, 0, 64, 19
2,158056, Control_c, 0, 64, 41
2,158075, Control_c, 0, 64, 47
2,158095, Control_c, 0, 64, 48
2,158134, Note_on_c, 0, 62, 0
2,158139, Note_on_c, 0, 74, 71
2,158152, Control_c, 0, 64, 48
2,158172, Control_c, 0, 64, 50
2,158190, Control_c, 0, 64, 52
2,158210, Control_c, 0, 64, 54
2,158229, Control_c, 0, 64, 55
2,158273, Note_on_c, 0, 74, 0
2,158306, Control_c, 0, 64, 54
2,158314, Note_on_c, 0, 71, 76
2,158325, Note_on_c, 0, 64, 63
2,158326, Control_c, 0, 64, 54
2,158344, Control_c, 0, 64, 52
2,158364, Control_c, 0, 64, 50
2,158366, Note_on_c, 0, 64, 0
2,158383, Control_c, 0, 64, 48
2,158384, Note_on_c, 0, 71, 0
2,158402, Control_c, 0, 64, 45
2,158421, Control_c, 0, 64, 41
2,158441, Control_c, 0, 64, 36
2,158460, Control_c, 0, 64, 26
2,158467, Note_on_c, 0, 72, 89
2,158479, Control_c, 0, 64, 8
2,158498, Control_c, 0, 64, 0
2,158543, Note_on_c, 0, 72, 0
2,158646, Note_on_c, 0, 74, 82
2,158664, Note_on_c, 0, 65, 60
2,158817, Note_on_c, 0, 72, 86
2,158897, Note_on_c, 0, 65, 0
2,158899, Note_on_c, 0, 74, 0
2,158940, Note_on_c, 0, 72, 0
2,158975, Note_on_c, 0, 71, 85
2,159011, Note_on_c, 0, 40, 0
2,159061, Note_on_c, 0, 71, 0
2,159117, Note_on_c, 0, 69, 89
2,159244, Note_on_c, 0, 69, 0
2,159276, Note_on_c, 0, 68, 94
2,159326, Control_c, 0, 64, 34
2,159345, Control_c, 0, 64, 63
2,159346, Note_on_c, 0, 52, 0
2,159400, Note_on_c, 0, 68, 0
2,159403, Control_c, 0, 64, 64
2,159421, Control_c, 0, 64, 65
2,159434, Note_on_c, 0, 71, 78
2,159441, Control_c, 0, 64, 65
2,159460, Control_c, 0, 64, 66
2,159498, Control_c, 0, 64, 66
2,159537, Control_c, 0, 64, 67
2,159555, Control_c, 0, 64, 67
2,159563, Note_on_c, 0, 71, 0
2,159605, Note_on_c, 0, 52, 91
2,159606, Note_on_c, 0, 72, 80
2,159612, Control_c, 0, 64, 65
2,159630, Control_c, 0, 64, 57
2,159650, Control_c, 0, 64, 0
2,159671, Note_on_c, 0, 52, 0
2,159743, Note_on_c, 0, 72, 0
2,159759, Note_on_c, 0, 74, 76
2,159766, Note_on_c, 0, 53, 86
2,159843, Note_on_c, 0, 53, 0
2,159908, Note_on_c, 0, 74, 0
2,159941, Note_on_c, 0, 52, 85
2,159942, Note_on_c, 0, 76, 77
2,160002, Note_on_c, 0, 52, 0
2,160097, Note_on_c, 0, 77, 82
2,160140, Note_on_c, 0, 76, 0
2,160268, Note_on_c, 0, 79, 86
2,160271, Note_on_c, 0, 77, 0
2,160277, Note_on_c, 0, 50, 87
2,160353, Note_on_c, 0, 50, 0
2,160437, Note_on_c, 0, 70, 89
2,160608, Note_on_c, 0, 69, 93
2,160616, Note_on_c, 0, 49, 81
2,160629, Note_on_c, 0, 79, 0
2,160640, Note_on_c, 0, 70, 0
2,160652, Control_c, 0, 64, 40
2,160670, Control_c, 0, 64, 64
2,160689, Control_c, 0, 64, 63
2,160728, Control_c, 0, 64, 63
2,160781, Note_on_c, 0, 81, 90
2,160832, Note_on_c, 0, 49, 0
2,160878, Note_on_c, 0, 81, 0
2,160920, Control_c, 0, 64, 61
2,160935, Note_on_c, 0, 52, 75
2,160939, Control_c, 0, 64, 45
2,160944, Note_on_c, 0, 79, 87
2,160958, Control_c, 0, 64, 0
2,160985, Note_on_c, 0, 52, 0
2,160989, Note_on_c, 0, 50, 20
2,161049, Note_on_c, 0, 50, 0
2,161053, Note_on_c, 0, 79, 0
2,161091, Note_on_c, 0, 77, 88
2,161093, Note_on_c, 0, 50, 60
2,161104, Note_on_c, 0, 53, 72
2,161148, Note_on_c, 0, 53, 0
2,161151, Note_on_c, 0, 50, 0
2,161183, Note_on_c, 0, 77, 0
2,161263, Note_on_c, 0, 79, 90
2,161270, Note_on_c, 0, 52, 71
2,161287, Note_on_c, 0, 49, 62
2,161344, Note_on_c, 0, 52, 0
2,161356, Note_on_c, 0, 49, 0
2,161390, Note_on_c, 0, 69, 0
2,161440, Note_on_c, 0, 73, 81
2,161548, Note_on_c, 0, 73, 0
2,161600, Note_on_c, 0, 50, 78
2,161605, Note_on_c, 0, 47, 69
2,161605, Note_on_c, 0, 76, 84
2,161650, Note_on_c, 0, 50, 0
2,161655, Note_on_c, 0, 47, 0
2,161714, Note_on_c, 0, 76, 0
2,161769, Note_on_c, 0, 74, 81
2,161861, Note_on_c, 0, 74, 0
2,161936, Note_on_c, 0, 76, 91
2,161937, Note_on_c, 0, 49, 80
2,161948, Note_on_c, 0, 45, 60
2,161955, Control_c, 0, 64, 29
2,161975, Control_c, 0, 64, 53
2,162002, Note_on_c, 0, 79, 0
2,162017, Note_on_c, 0, 45, 0
2,162020, Note_on_c, 0, 49, 0
2,162032, Control_c, 0, 64, 54
2,162052, Control_c, 0, 64, 54
2,162071, Control_c, 0, 64, 55
2,162089, Note_on_c, 0, 47, 81
2,162090, Control_c, 0, 64, 56
2,162100, Note_on_c, 0, 77, 89
2,162109, Control_c, 0, 64, 57
2,162129, Control_c, 0, 64, 58
2,162143, Note_on_c, 0, 76, 0
2,162148, Control_c, 0, 64, 58
2,162157, Note_on_c, 0, 47, 0
2,162167, Control_c, 0, 64, 59
2,162221, Note_on_c, 0, 77, 0
2,162225, Control_c, 0, 64, 58
2,162244, Control_c, 0, 64, 50
2,162257, Note_on_c, 0, 49, 81
2,162263, Control_c, 0, 64, 0
2,162264, Note_on_c, 0, 76, 91
2,162272, Note_on_c, 0, 50, 63
2,162299, Note_on_c, 0, 49, 0
2,162315, Note_on_c, 0, 50, 0
2,162361, Note_on_c, 0, 76, 0
2,162412, Note_on_c, 0, 77, 90
2,162430, Note_on_c, 0, 50, 69
2,162455, Note_on_c, 0, 49, 40
2,162477, Note_on_c, 0, 50, 0
2,162505, Note_on_c, 0, 49, 0
2,162578, Note_on_c, 0, 47, 56
2,162584, Note_on_c, 0, 79, 91
2,162598, Note_on_c, 0, 77, 0
2,162608, Control_c, 0, 64, 49
2,162627, Control_c, 0, 64, 54
2,162632, Note_on_c, 0, 47, 0
2,162641, Note_on_c, 0, 45, 28
2,162646, Control_c, 0, 64, 57
2,162665, Control_c, 0, 64, 58
2,162685, Control_c, 0, 64, 59
2,162696, Note_on_c, 0, 45, 0
2,162739, Note_on_c, 0, 69, 78
2,162742, Control_c, 0, 64, 59
2,162762, Control_c, 0, 64, 60
2,162780, Control_c, 0, 64, 62
2,162800, Control_c, 0, 64, 63
2,162816, Note_on_c, 0, 69, 0
2,162819, Control_c, 0, 64, 65
2,162838, Control_c, 0, 64, 66
2,162876, Control_c, 0, 64, 65
2,162911, Note_on_c, 0, 46, 78
2,162915, Control_c, 0, 64, 65
2,162917, Note_on_c, 0, 43, 54
2,162928, Note_on_c, 0, 73, 82
2,162934, Control_c, 0, 64, 64
2,162948, Note_on_c, 0, 46, 0
2,162953, Control_c, 0, 64, 64
2,162954, Note_on_c, 0, 74, 30
2,162961, Note_on_c, 0, 43, 0
2,162991, Control_c, 0, 64, 63
2,163001, Note_on_c, 0, 74, 0
2,163013, Note_on_c, 0, 73, 0
2,163030, Control_c, 0, 64, 63
2,163037, Note_on_c, 0, 79, 0
2,163082, Note_on_c, 0, 74, 84
2,163165, Control_c, 0, 64, 63
2,163184, Control_c, 0, 64, 63
2,163203, Control_c, 0, 64, 60
2,163222, Control_c, 0, 64, 31
2,163232, Note_on_c, 0, 74, 0
2,163242, Control_c, 0, 64, 0
2,163265, Note_on_c, 0, 45, 80
2,163269, Note_on_c, 0, 41, 71
2,163269, Note_on_c, 0, 76, 85
2,163444, Note_on_c, 0, 82, 82
2,163458, Note_on_c, 0, 73, 66
2,163530, Note_on_c, 0, 73, 0
2,163543, Note_on_c, 0, 82, 0
2,163617, Note_on_c, 0, 81, 83
2,163629, Note_on_c, 0, 74, 69
2,163630, Note_on_c, 0, 76, 0
2,163739, Note_on_c, 0, 74, 0
2,163786, Note_on_c, 0, 79, 90
2,163843, Note_on_c, 0, 41, 0
2,163873, Note_on_c, 0, 45, 0
2,163877, Control_c, 0, 64, 43
2,163897, Control_c, 0, 64, 49
2,163914, Note_on_c, 0, 79, 0
2,163916, Control_c, 0, 64, 55
2,163935, Control_c, 0, 64, 58
2,163950, Note_on_c, 0, 77, 87
2,163954, Control_c, 0, 64, 60
2,163974, Control_c, 0, 64, 62
2,163990, Note_on_c, 0, 79, 11
2,163993, Control_c, 0, 64, 62
2,164031, Control_c, 0, 64, 63
2,164043, Note_on_c, 0, 79, 0
2,164058, Note_on_c, 0, 81, 0
2,164064, Note_on_c, 0, 77, 0
2,164070, Control_c, 0, 64, 63
2,164089, Control_c, 0, 64, 64
2,164101, Note_on_c, 0, 76, 86
2,164108, Control_c, 0, 64, 65
2,164128, Control_c, 0, 64, 67
2,164146, Control_c, 0, 64, 70
2,164149, Note_on_c, 0, 76, 0
2,164166, Control_c, 0, 64, 75
2,164185, Control_c, 0, 64, 82
2,164205, Control_c, 0, 64, 89
2,164221, Control_c, 0, 64, 92
2,164241, Control_c, 0, 64, 84
2,164260, Control_c, 0, 64, 66
2,164264, Note_on_c, 0, 65, 75
2,164267, Note_on_c, 0, 53, 60
2,164276, Note_on_c, 0, 74, 84
2,164280, Control_c, 0, 64, 0
2,164289, Note_on_c, 0, 69, 66
2,164307, Note_on_c, 0, 65, 0
2,164331, Note_on_c, 0, 69, 0
2,164364, Note_on_c, 0, 74, 0
2,164413, Note_on_c, 0, 64, 73
2,164438, Note_on_c, 0, 73, 86
2,164455, Note_on_c, 0, 67, 60
2,164461, Note_on_c, 0, 64, 0
2,164490, Note_on_c, 0, 67, 0
2,164523, Note_on_c, 0, 73, 0
2,164614, Note_on_c, 0, 58, 57
2,164617, Note_on_c, 0, 62, 67
2,164622, Note_on_c, 0, 74, 86
2,164641, Note_on_c, 0, 65, 62
2,164645, Note_on_c, 0, 53, 0
2,164802, Note_on_c, 0, 76, 85
2,164826, Note_on_c, 0, 74, 0
2,164829, Note_on_c, 0, 65, 0
2,164912, Note_on_c, 0, 76, 0
2,164972, Note_on_c, 0, 74, 82
2,164982, Note_on_c, 0, 55, 59
2,164987, Note_on_c, 0, 70, 64
2,165018, Note_on_c, 0, 73, 32
2,165024, Note_on_c, 0, 70, 0
2,165045, Note_on_c, 0, 73, 0
2,165060, Note_on_c, 0, 58, 0
2,165063, Note_on_c, 0, 74, 0
2,165156, Note_on_c, 0, 76, 86
2,165225, Note_on_c, 0, 76, 0
2,165348, Note_on_c, 0, 77, 86
2,165371, Note_on_c, 0, 69, 55
2,165387, Note_on_c, 0, 57, 35
2,165427, Note_on_c, 0, 76, 83
2,165431, Note_on_c, 0, 77, 0
2,165439, Note_on_c, 0, 55, 0
2,165448, Note_on_c, 0, 57, 0
2,165448, Note_on_c, 0, 57, 7
2,165473, Note_on_c, 0, 69, 0
2,165508, Note_on_c, 0, 76, 0
2,165513, Note_on_c, 0, 77, 75
2,165582, Note_on_c, 0, 76, 82
2,165604, Note_on_c, 0, 77, 0
2,165740, Note_on_c, 0, 61, 69
2,165745, Note_on_c, 0, 67, 65
2,165772, Note_on_c, 0, 76, 0
2,165813, Control_c, 0, 64, 18
2,165829, Note_on_c, 0, 62, 0
2,165832, Control_c, 0, 64, 42
2,165852, Control_c, 0, 64, 56
2,165870, Control_c, 0, 64, 61
2,165890, Control_c, 0, 64, 62
2,165909, Control_c, 0, 64, 63
2,165929, Control_c, 0, 64, 63
2,165936, Note_on_c, 0, 74, 84
2,165947, Control_c, 0, 64, 64
2,165967, Control_c, 0, 64, 64
2,165974, Note_on_c, 0, 61, 0
2,166006, Control_c, 0, 64, 65
2,166016, Note_on_c, 0, 74, 0
2,166024, Control_c, 0, 64, 65
2,166044, Control_c, 0, 64, 66
2,166063, Control_c, 0, 64, 68
2,166082, Control_c, 0, 64, 70
2,166101, Control_c, 0, 64, 72
2,166121, Control_c, 0, 64, 70
2,166139, Control_c, 0, 64, 62
2,166157, Control_c, 0, 64, 0
2,166186, Note_on_c, 0, 57, 0
2,166208, Note_on_c, 0, 62, 73
2,166215, Note_on_c, 0, 50, 67
2,166215, Note_on_c, 0, 74, 79
2,166242, Note_on_c, 0, 62, 0
2,166254, Control_c, 0, 64, 11
2,166264, Note_on_c, 0, 50, 0
2,166273, Control_c, 0, 64, 61
2,166292, Control_c, 0, 64, 64
2,166311, Control_c, 0, 64, 66
2,166332, Control_c, 0, 64, 67
2,166350, Control_c, 0, 64, 69
2,166370, Control_c, 0, 64, 72
2,166389, Control_c, 0, 64, 77
2,166409, Control_c, 0, 64, 82
2,166427, Control_c, 0, 64, 85
2,166447, Control_c, 0, 64, 88
2,166466, Control_c, 0, 64, 91
2,166473, Note_on_c, 0, 67, 0
2,166486, Control_c, 0, 64, 94
2,166504, Control_c, 0, 64, 98
2,166543, Control_c, 0, 64, 82
2,166551, Note_on_c, 0, 50, 71
2,166559, Note_on_c, 0, 57, 63
2,166562, Control_c, 0, 64, 61
2,166574, Note_on_c, 0, 65, 55
2,166581, Control_c, 0, 64, 0
2,166603, Note_on_c, 0, 50, 0
2,166631, Note_on_c, 0, 65, 0
2,166707, Note_on_c, 0, 49, 70
2,166771, Note_on_c, 0, 64, 16
2,166780, Note_on_c, 0, 49, 0
2,166833, Note_on_c, 0, 64, 0
2,166889, Note_on_c, 0, 50, 74
2,166902, Note_on_c, 0, 57, 0
2,166924, Note_on_c, 0, 65, 40
2,166931, Note_on_c, 0, 50, 0
2,166996, Note_on_c, 0, 65, 0
2,167008, Note_on_c, 0, 67, 50
2,167206, Note_on_c, 0, 52, 69
2,167243, Note_on_c, 0, 69, 47
2,167247, Note_on_c, 0, 52, 0
2,167310, Note_on_c, 0, 67, 0
2,167380, Note_on_c, 0, 65, 40
2,167534, Note_on_c, 0, 74, 0
2,167541, Note_on_c, 0, 53, 63
2,167553, Note_on_c, 0, 62, 35
2,167559, Note_on_c, 0, 69, 0
2,167561, Control_c, 0, 64, 59
2,167576, Note_on_c, 0, 65, 0
2,167580, Control_c, 0, 64, 62
2,167591, Note_on_c, 0, 62, 0
2,167598, Control_c, 0, 64, 63
2,167618, Control_c, 0, 64, 64
2,167637, Control_c, 0, 64, 65
2,167656, Control_c, 0, 64, 69
2,167675, Control_c, 0, 64, 75
2,167695, Control_c, 0, 64, 86
2,167714, Control_c, 0, 64, 94
2,167715, Note_on_c, 0, 53, 0
2,167733, Control_c, 0, 64, 98
2,167752, Control_c, 0, 64, 98
2,167772, Control_c, 0, 64, 99
2,167790, Control_c, 0, 64, 100
2,167810, Control_c, 0, 64, 101
2,167849, Control_c, 0, 64, 96
2,167867, Control_c, 0, 64, 78
2,167877, Note_on_c, 0, 53, 54
2,167883, Note_on_c, 0, 57, 58
2,167887, Control_c, 0, 64, 58
2,167906, Control_c, 0, 64, 0
2,167909, Note_on_c, 0, 53, 0
2,167926, Note_on_c, 0, 57, 0
2,168027, Note_on_c, 0, 56, 61
2,168048, Note_on_c, 0, 52, 44
2,168072, Note_on_c, 0, 56, 0
2,168081, Note_on_c, 0, 52, 0
2,168193, Note_on_c, 0, 54, 54
2,168202, Note_on_c, 0, 57, 65
2,168244, Note_on_c, 0, 57, 0
2,168246, Note_on_c, 0, 54, 0
2,168540, Note_on_c, 0, 59, 70
2,168543, Note_on_c, 0, 56, 56
2,168589, Note_on_c, 0, 56, 0
2,168603, Note_on_c, 0, 59, 0
2,168867, Note_on_c, 0, 60, 61
2,168887, Note_on_c, 0, 57, 19
2,168924, Control_c, 0, 64, 53
2,168981, Control_c, 0, 64, 54
2,169001, Control_c, 0, 64, 56
2,169008, Note_on_c, 0, 57, 0
2,169015, Note_on_c, 0, 56, 52
2,169020, Control_c, 0, 64, 59
2,169038, Control_c, 0, 64, 60
2,169058, Control_c, 0, 64, 61
2,169076, Note_on_c, 0, 56, 0
2,169077, Control_c, 0, 64, 61
2,169119, Note_on_c, 0, 60, 0
2,169135, Control_c, 0, 64, 60
2,169154, Control_c, 0, 64, 54
2,169173, Control_c, 0, 64, 0
2,169178, Note_on_c, 0, 54, 56
2,169202, Note_on_c, 0, 60, 64
2,169230, Note_on_c, 0, 54, 0
2,169247, Note_on_c, 0, 60, 0
2,169338, Note_on_c, 0, 56, 58
2,169351, Note_on_c, 0, 59, 70
2,169370, Note_on_c, 0, 56, 0
2,169404, Note_on_c, 0, 59, 0
2,169510, Note_on_c, 0, 57, 60
2,169517, Note_on_c, 0, 60, 71
2,169561, Note_on_c, 0, 60, 0
2,169575, Note_on_c, 0, 57, 0
2,169844, Note_on_c, 0, 59, 74
2,169846, Control_c, 0, 64, 21
2,169846, Note_on_c, 0, 62, 55
2,169864, Control_c, 0, 64, 47
2,169884, Control_c, 0, 64, 51
2,169903, Control_c, 0, 64, 54
2,169910, Note_on_c, 0, 62, 0
2,169922, Control_c, 0, 64, 57
2,169941, Control_c, 0, 64, 59
2,169961, Control_c, 0, 64, 61
2,169979, Control_c, 0, 64, 63
2,169997, Control_c, 0, 64, 64
2,170017, Control_c, 0, 64, 66
2,170036, Control_c, 0, 64, 68
2,170055, Control_c, 0, 64, 71
2,170074, Control_c, 0, 64, 76
2,170094, Control_c, 0, 64, 79
2,170132, Control_c, 0, 64, 72
2,170151, Control_c, 0, 64, 60
2,170158, Note_on_c, 0, 48, 62
2,170158, Note_on_c, 0, 59, 0
2,170172, Control_c, 0, 64, 0
2,170176, Note_on_c, 0, 64, 68
2,170213, Note_on_c, 0, 48, 0
2,170248, Note_on_c, 0, 64, 0
2,170326, Note_on_c, 0, 62, 64
2,170379, Note_on_c, 0, 62, 0
2,170482, Note_on_c, 0, 45, 51
2,170495, Note_on_c, 0, 60, 62
2,170544, Note_on_c, 0, 60, 0
2,170546, Note_on_c, 0, 45, 0
2,170641, Note_on_c, 0, 62, 63
2,170689, Note_on_c, 0, 62, 0
2,170814, Note_on_c, 0, 64, 67
2,170864, Note_on_c, 0, 64, 0
2,171134, Note_on_c, 0, 65, 74
2,171147, Note_on_c, 0, 50, 45
2,171171, Control_c, 0, 64, 39
2,171190, Control_c, 0, 64, 40
2,171210, Control_c, 0, 64, 48
2,171228, Control_c, 0, 64, 54
2,171248, Control_c, 0, 64, 58
2,171267, Control_c, 0, 64, 61
2,171286, Control_c, 0, 64, 63
2,171303, Note_on_c, 0, 50, 0
2,171305, Control_c, 0, 64, 64
2,171325, Control_c, 0, 64, 66
2,171344, Control_c, 0, 64, 68
2,171363, Control_c, 0, 64, 70
2,171382, Control_c, 0, 64, 73
2,171402, Control_c, 0, 64, 75
2,171420, Control_c, 0, 64, 74
2,171439, Control_c, 0, 64, 67
2,171443, Note_on_c, 0, 65, 0
2,171447, Note_on_c, 0, 52, 56
2,171459, Control_c, 0, 64, 52
2,171463, Note_on_c, 0, 56, 71
2,171478, Control_c, 0, 64, 0
2,171505, Note_on_c, 0, 52, 0
2,171506, Note_on_c, 0, 56, 0
2,171613, Note_on_c, 0, 53, 47
2,171667, Note_on_c, 0, 53, 0
2,171780, Note_on_c, 0, 50, 52
2,171790, Note_on_c, 0, 52, 54
2,171832, Note_on_c, 0, 52, 0
2,171840, Note_on_c, 0, 50, 0
2,171931, Note_on_c, 0, 52, 60
2,171985, Note_on_c, 0, 52, 0
2,172095, Note_on_c, 0, 53, 60
2,172187, Note_on_c, 0, 53, 0
2,172260, Note_on_c, 0, 55, 48
2,172317, Note_on_c, 0, 55, 0
2,172408, Note_on_c, 0, 52, 50
2,172420, Note_on_c, 0, 57, 64
2,172455, Note_on_c, 0, 52, 0
2,172487, Note_on_c, 0, 57, 0
2,172566, Note_on_c, 0, 54, 49
2,172618, Note_on_c, 0, 54, 0
2,172757, Note_on_c, 0, 55, 50
2,172764, Note_on_c, 0, 59, 67
2,172878, Note_on_c, 0, 59, 0
2,172924, Note_on_c, 0, 55, 0
2,172924, Note_on_c, 0, 60, 64
2,172974, Note_on_c, 0, 60, 0
2,173084, Note_on_c, 0, 57, 65
2,173108, Note_on_c, 0, 53, 36
2,173124, Note_on_c, 0, 57, 0
2,173150, Note_on_c, 0, 53, 0
2,173244, Note_on_c, 0, 59, 65
2,173284, Note_on_c, 0, 59, 0
2,173410, Note_on_c, 0, 52, 52
2,173423, Note_on_c, 0, 60, 59
2,173516, Note_on_c, 0, 60, 0
2,173574, Note_on_c, 0, 62, 53
2,173575, Note_on_c, 0, 52, 0
2,173633, Note_on_c, 0, 62, 0
2,173747, Note_on_c, 0, 57, 44
2,173755, Note_on_c, 0, 59, 55
2,173788, Note_on_c, 0, 59, 0
2,173828, Note_on_c, 0, 57, 0
2,173896, Note_on_c, 0, 61, 55
2,173956, Note_on_c, 0, 61, 0
2,174075, Note_on_c, 0, 62, 55
2,174079, Note_on_c, 0, 50, 37
2,174088, Control_c, 0, 64, 55
2,174106, Control_c, 0, 64, 60
2,174112, Note_on_c, 0, 62, 0
2,174126, Control_c, 0, 64, 61
2,174145, Control_c, 0, 64, 62
2,174165, Control_c, 0, 64, 64
2,174183, Control_c, 0, 64, 67
2,174203, Control_c, 0, 64, 71
2,174222, Control_c, 0, 64, 76
2,174240, Control_c, 0, 64, 79
2,174260, Control_c, 0, 64, 79
2,174299, Control_c, 0, 64, 79
2,174394, Control_c, 0, 64, 78
2,174414, Control_c, 0, 64, 76
2,174433, Control_c, 0, 64, 71
2,174451, Note_on_c, 0, 76, 67
2,174452, Control_c, 0, 64, 66
2,174453, Note_on_c, 0, 57, 37
2,174456, Note_on_c, 0, 60, 37
2,174471, Control_c, 0, 64, 59
2,174491, Control_c, 0, 64, 40
2,174507, Note_on_c, 0, 76, 0
2,174510, Control_c, 0, 64, 0
2,174516, Note_on_c, 0, 50, 0
2,174596, Note_on_c, 0, 77, 71
2,174667, Note_on_c, 0, 77, 0
2,174754, Note_on_c, 0, 60, 0
2,174759, Note_on_c, 0, 59, 56
2,174775, Note_on_c, 0, 76, 72
2,174813, Note_on_c, 0, 57, 0
2,174836, Note_on_c, 0, 76, 0
2,174932, Note_on_c, 0, 56, 52
2,174976, Note_on_c, 0, 59, 0
2,175024, Note_on_c, 0, 56, 0
2,175088, Note_on_c, 0, 74, 71
2,175107, Note_on_c, 0, 64, 46
2,175122, Note_on_c, 0, 57, 43
2,175143, Note_on_c, 0, 74, 0
2,175195, Note_on_c, 0, 64, 0
2,175242, Note_on_c, 0, 57, 0
2,175277, Note_on_c, 0, 56, 50
2,175433, Note_on_c, 0, 56, 0
2,175433, Note_on_c, 0, 72, 73
2,175440, Note_on_c, 0, 57, 52
2,175490, Control_c, 0, 64, 50
2,175509, Control_c, 0, 64, 58
2,175529, Control_c, 0, 64, 60
2,175547, Control_c, 0, 64, 61
2,175567, Control_c, 0, 64, 63
2,175586, Control_c, 0, 64, 64
2,175606, Control_c, 0, 64, 65
2,175624, Control_c, 0, 64, 66
2,175644, Control_c, 0, 64, 68
2,175661, Note_on_c, 0, 72, 0
2,175663, Control_c, 0, 64, 69
2,175682, Control_c, 0, 64, 70
2,175720, Control_c, 0, 64, 69
2,175740, Control_c, 0, 64, 66
2,175757, Control_c, 0, 64, 60
2,175766, Note_on_c, 0, 69, 69
2,175771, Note_on_c, 0, 72, 74
2,175777, Control_c, 0, 64, 31
2,175796, Control_c, 0, 64, 0
2,175814, Note_on_c, 0, 69, 0
2,175829, Note_on_c, 0, 72, 0
2,175920, Note_on_c, 0, 71, 72
2,175933, Note_on_c, 0, 74, 68
2,175969, Note_on_c, 0, 71, 0
2,176000, Note_on_c, 0, 74, 0
2,176107, Note_on_c, 0, 72, 77
2,176111, Note_on_c, 0, 69, 70
2,176156, Note_on_c, 0, 69, 0
2,176176, Note_on_c, 0, 72, 0
2,176270, Note_on_c, 0, 55, 58
2,176274, Note_on_c, 0, 57, 0
2,176431, Note_on_c, 0, 55, 0
2,176437, Note_on_c, 0, 70, 74
2,176438, Note_on_c, 0, 67, 64
2,176441, Note_on_c, 0, 53, 55
2,176514, Note_on_c, 0, 67, 0
2,176530, Note_on_c, 0, 70, 0
2,176597, Note_on_c, 0, 53, 0
2,176615, Note_on_c, 0, 52, 56
2,176749, Note_on_c, 0, 52, 0
2,176778, Note_on_c, 0, 53, 56
2,176797, Note_on_c, 0, 69, 76
2,176800, Note_on_c, 0, 65, 63
2,176834, Control_c, 0, 64, 50
2,176853, Control_c, 0, 64, 59
2,176872, Control_c, 0, 64, 59
2,176892, Control_c, 0, 64, 60
2,176892, Note_on_c, 0, 69, 0
2,176910, Control_c, 0, 64, 61
2,176930, Control_c, 0, 64, 62
2,176949, Control_c, 0, 64, 63
2,176956, Note_on_c, 0, 70, 79
2,176969, Control_c, 0, 64, 64
2,176974, Note_on_c, 0, 65, 0
2,176987, Control_c, 0, 64, 65
2,177007, Control_c, 0, 64, 66
2,177026, Control_c, 0, 64, 68
2,177043, Note_on_c, 0, 70, 0
2,177046, Control_c, 0, 64, 69
2,177064, Control_c, 0, 64, 68
2,177084, Control_c, 0, 64, 64
2,177103, Control_c, 0, 64, 53
2,177117, Note_on_c, 0, 72, 78
2,177120, Note_on_c, 0, 65, 67
2,177121, Control_c, 0, 64, 0
2,177126, Note_on_c, 0, 57, 50
2,177159, Note_on_c, 0, 65, 0
2,177179, Note_on_c, 0, 57, 0
2,177192, Note_on_c, 0, 72, 0
2,177274, Note_on_c, 0, 70, 77
2,177276, Note_on_c, 0, 67, 67
2,177279, Note_on_c, 0, 58, 57
2,177316, Note_on_c, 0, 67, 0
2,177345, Note_on_c, 0, 58, 0
2,177363, Note_on_c, 0, 70, 0
2,177456, Note_on_c, 0, 60, 57
2,177459, Note_on_c, 0, 69, 75
2,177472, Note_on_c, 0, 65, 53
2,177507, Note_on_c, 0, 65, 0
2,177510, Note_on_c, 0, 60, 0
2,177528, Note_on_c, 0, 53, 0
2,177540, Note_on_c, 0, 69, 0
2,177585, Note_on_c, 0, 52, 55
2,177670, Note_on_c, 0, 52, 0
2,177766, Note_on_c, 0, 58, 56
2,177777, Note_on_c, 0, 50, 45
2,177788, Note_on_c, 0, 64, 64
2,177788, Note_on_c, 0, 67, 78
2,177792, Note_on_c, 0, 68, 43
2,177813, Control_c, 0, 64, 61
2,177814, Note_on_c, 0, 68, 0
2,177825, Note_on_c, 0, 64, 0
2,177832, Control_c, 0, 64, 69
2,177852, Control_c, 0, 64, 72
2,177855, Note_on_c, 0, 67, 0
2,177860, Note_on_c, 0, 50, 0
2,177867, Note_on_c, 0, 58, 0
2,177870, Control_c, 0, 64, 73
2,177890, Control_c, 0, 64, 73
2,177909, Control_c, 0, 64, 75
2,177923, Note_on_c, 0, 49, 71
2,177929, Control_c, 0, 64, 78
2,177947, Control_c, 0, 64, 82
2,177967, Control_c, 0, 64, 86
2,177986, Control_c, 0, 64, 88
2,177993, Note_on_c, 0, 49, 0
2,178006, Control_c, 0, 64, 89
2,178024, Control_c, 0, 64, 90
2,178081, Control_c, 0, 64, 83
2,178101, Control_c, 0, 64, 68
2,178117, Note_on_c, 0, 77, 83
2,178120, Control_c, 0, 64, 34
2,178121, Note_on_c, 0, 50, 57
2,178121, Note_on_c, 0, 62, 72
2,178140, Control_c, 0, 64, 0
2,178152, Note_on_c, 0, 50, 0
2,178212, Note_on_c, 0, 62, 0
2,178217, Note_on_c, 0, 77, 0
2,178283, Note_on_c, 0, 64, 73
2,178350, Note_on_c, 0, 64, 0
2,178440, Note_on_c, 0, 81, 80
2,178452, Note_on_c, 0, 62, 69
2,178455, Note_on_c, 0, 65, 65
2,178499, Note_on_c, 0, 65, 0
2,178513, Note_on_c, 0, 62, 0
2,178520, Note_on_c, 0, 81, 0
2,178611, Note_on_c, 0, 64, 80
2,178669, Note_on_c, 0, 64, 0
2,178774, Note_on_c, 0, 65, 72
2,178786, Note_on_c, 0, 62, 61
2,178845, Note_on_c, 0, 62, 0
2,178858, Note_on_c, 0, 65, 0
2,178933, Note_on_c, 0, 67, 65
2,178937, Note_on_c, 0, 62, 20
2,178993, Note_on_c, 0, 62, 0
2,179033, Note_on_c, 0, 67, 0
2,179112, Note_on_c, 0, 69, 82
2,179123, Note_on_c, 0, 76, 73
2,179125, Note_on_c, 0, 61, 61
2,179157, Control_c, 0, 64, 34
2,179176, Control_c, 0, 64, 56
2,179195, Control_c, 0, 64, 58
2,179215, Control_c, 0, 64, 59
2,179234, Control_c, 0, 64, 61
2,179253, Control_c, 0, 64, 63
2,179272, Control_c, 0, 64, 65
2,179292, Control_c, 0, 64, 68
2,179310, Control_c, 0, 64, 73
2,179318, Note_on_c, 0, 76, 0
2,179330, Control_c, 0, 64, 80
2,179349, Control_c, 0, 64, 87
2,179369, Control_c, 0, 64, 92
2,179387, Control_c, 0, 64, 91
2,179407, Control_c, 0, 64, 77
2,179426, Control_c, 0, 64, 61
2,179446, Control_c, 0, 64, 0
2,179446, Note_on_c, 0, 70, 80
2,179451, Note_on_c, 0, 74, 76
2,179472, Note_on_c, 0, 61, 0
2,179517, Note_on_c, 0, 70, 0
2,179527, Note_on_c, 0, 74, 0
2,179601, Note_on_c, 0, 73, 78
2,179673, Note_on_c, 0, 73, 0
2,179731, Note_on_c, 0, 69, 0
2,179770, Note_on_c, 0, 67, 60
2,179782, Note_on_c, 0, 76, 79
2,179797, Note_on_c, 0, 74, 58
2,179840, Note_on_c, 0, 74, 0
2,179888, Note_on_c, 0, 76, 0
2,179943, Note_on_c, 0, 74, 61
2,180056, Note_on_c, 0, 74, 0
2,180123, Note_on_c, 0, 73, 69
2,180217, Note_on_c, 0, 73, 0
2,180286, Note_on_c, 0, 71, 59
2,180380, Note_on_c, 0, 67, 0
2,180390, Note_on_c, 0, 71, 0
2,180436, Note_on_c, 0, 65, 53
2,180441, Note_on_c, 0, 74, 66
2,180451, Note_on_c, 0, 69, 62
2,180524, Note_on_c, 0, 69, 0
2,180524, Note_on_c, 0, 74, 0
2,180601, Note_on_c, 0, 72, 64
2,180696, Note_on_c, 0, 72, 0
2,180750, Control_c, 0, 64, 53
2,180761, Note_on_c, 0, 71, 76
2,180769, Control_c, 0, 64, 57
2,180775, Note_on_c, 0, 67, 56
2,180788, Control_c, 0, 64, 59
2,180808, Control_c, 0, 64, 60
2,180815, Note_on_c, 0, 71, 0
2,180824, Note_on_c, 0, 67, 0
2,180826, Control_c, 0, 64, 61
2,180826, Note_on_c, 0, 65, 0
2,180846, Control_c, 0, 64, 62
2,180865, Control_c, 0, 64, 63
2,180903, Control_c, 0, 64, 64
2,180923, Control_c, 0, 64, 64
2,180942, Control_c, 0, 64, 65
2,180943, Note_on_c, 0, 65, 63
2,180960, Control_c, 0, 64, 66
2,180980, Control_c, 0, 64, 67
2,180996, Note_on_c, 0, 65, 0
2,180999, Control_c, 0, 64, 69
2,181019, Control_c, 0, 64, 71
2,181037, Control_c, 0, 64, 73
2,181057, Control_c, 0, 64, 72
2,181076, Control_c, 0, 64, 66
2,181096, Control_c, 0, 64, 54
2,181104, Note_on_c, 0, 73, 71
2,181105, Note_on_c, 0, 64, 47
2,181114, Control_c, 0, 64, 0
2,181114, Note_on_c, 0, 69, 49
2,181267, Note_on_c, 0, 73, 0
2,181273, Note_on_c, 0, 67, 46
2,181275, Note_on_c, 0, 69, 0
2,181387, Note_on_c, 0, 64, 0
2,181427, Note_on_c, 0, 74, 65
2,181428, Note_on_c, 0, 67, 0
2,181441, Note_on_c, 0, 62, 45
2,181456, Note_on_c, 0, 65, 48
2,181501, Note_on_c, 0, 74, 0
2,181602, Note_on_c, 0, 65, 0
2,181612, Note_on_c, 0, 64, 50
2,181690, Note_on_c, 0, 64, 0
2,181768, Control_c, 0, 64, 40
2,181771, Note_on_c, 0, 69, 68
2,181775, Note_on_c, 0, 67, 43
2,181786, Control_c, 0, 64, 49
2,181806, Control_c, 0, 64, 55
2,181819, Note_on_c, 0, 67, 0
2,181825, Control_c, 0, 64, 58
2,181845, Control_c, 0, 64, 60
2,181863, Control_c, 0, 64, 62
2,181882, Control_c, 0, 64, 63
2,181902, Control_c, 0, 64, 64
2,181910, Note_on_c, 0, 69, 0
2,181922, Note_on_c, 0, 65, 54
2,181965, Note_on_c, 0, 65, 0
2,182036, Control_c, 0, 64, 63
2,182056, Control_c, 0, 64, 58
2,182074, Control_c, 0, 64, 29
2,182094, Control_c, 0, 64, 0
2,182106, Note_on_c, 0, 76, 62
2,182115, Note_on_c, 0, 64, 53
2,182171, Note_on_c, 0, 64, 0
2,182263, Note_on_c, 0, 61, 43
2,182275, Note_on_c, 0, 62, 0
2,182348, Note_on_c, 0, 61, 0
2,182434, Note_on_c, 0, 65, 54
2,182439, Note_on_c, 0, 64, 49
2,182527, Note_on_c, 0, 65, 0
2,182541, Note_on_c, 0, 64, 0
2,182606, Note_on_c, 0, 62, 49
2,182771, Note_on_c, 0, 61, 47
2,182776, Note_on_c, 0, 67, 59
2,182828, Note_on_c, 0, 62, 0
2,182910, Note_on_c, 0, 61, 0
2,182937, Note_on_c, 0, 59, 51
2,183119, Note_on_c, 0, 62, 46
2,183253, Note_on_c, 0, 62, 0
2,183286, Note_on_c, 0, 61, 39
2,183379, Note_on_c, 0, 67, 0
2,183428, Note_on_c, 0, 61, 0
2,183444, Note_on_c, 0, 62, 40
2,183456, Note_on_c, 0, 59, 0
2,183479, Note_on_c, 0, 65, 45
2,183570, Note_on_c, 0, 65, 0
2,183626, Note_on_c, 0, 73, 59
2,183671, Note_on_c, 0, 76, 0
2,183791, Note_on_c, 0, 74, 66
2,183875, Note_on_c, 0, 73, 0
2,183941, Note_on_c, 0, 77, 69
2,183974, Note_on_c, 0, 74, 0
2,184120, Note_on_c, 0, 64, 41
2,184124, Note_on_c, 0, 79, 77
2,184141, Note_on_c, 0, 62, 0
2,184143, Note_on_c, 0, 77, 0
2,184332, Note_on_c, 0, 59, 28
2,184384, Note_on_c, 0, 64, 0
2,184467, Note_on_c, 0, 69, 60
2,184497, Note_on_c, 0, 61, 47
2,184595, Note_on_c, 0, 59, 0
2,184642, Note_on_c, 0, 64, 63
2,184782, Note_on_c, 0, 69, 0
2,184811, Note_on_c, 0, 65, 61
2,184862, Note_on_c, 0, 61, 0
2,184870, Note_on_c, 0, 64, 0
2,184968, Note_on_c, 0, 76, 75
2,184976, Note_on_c, 0, 73, 52
2,184995, Note_on_c, 0, 79, 0
2,185103, Note_on_c, 0, 73, 0
2,185136, Note_on_c, 0, 77, 82
2,185140, Note_on_c, 0, 74, 52
2,185174, Note_on_c, 0, 76, 0
2,185293, Note_on_c, 0, 81, 88
2,185303, Note_on_c, 0, 77, 0
2,185385, Note_on_c, 0, 74, 0
2,185471, Note_on_c, 0, 82, 86
2,185492, Note_on_c, 0, 67, 46
2,185503, Note_on_c, 0, 81, 0
2,185607, Note_on_c, 0, 65, 0
2,185660, Note_on_c, 0, 62, 62
2,185791, Note_on_c, 0, 67, 0
2,185796, Note_on_c, 0, 72, 74
2,185816, Note_on_c, 0, 62, 0
2,185824, Note_on_c, 0, 64, 59
2,185989, Note_on_c, 0, 67, 72
2,186070, Note_on_c, 0, 72, 0
2,186077, Note_on_c, 0, 64, 0
2,186125, Note_on_c, 0, 67, 0
2,186147, Note_on_c, 0, 69, 79
2,186294, Note_on_c, 0, 79, 87
2,186307, Note_on_c, 0, 82, 0
2,186418, Note_on_c, 0, 79, 0
2,186452, Control_c, 0, 64, 29
2,186459, Note_on_c, 0, 81, 91
2,186467, Note_on_c, 0, 77, 70
2,186471, Control_c, 0, 64, 58
2,186491, Control_c, 0, 64, 62
2,186505, Note_on_c, 0, 77, 0
2,186510, Control_c, 0, 64, 64
2,186529, Control_c, 0, 64, 66
2,186548, Control_c, 0, 64, 68
2,186561, Note_on_c, 0, 81, 0
2,186568, Control_c, 0, 64, 73
2,186586, Control_c, 0, 64, 80
2,186606, Control_c, 0, 64, 88
2,186621, Note_on_c, 0, 84, 88
2,186625, Control_c, 0, 64, 93
2,186645, Control_c, 0, 64, 94
2,186660, Note_on_c, 0, 84, 0
2,186682, Control_c, 0, 64, 94
2,186702, Control_c, 0, 64, 93
2,186720, Control_c, 0, 64, 88
2,186740, Control_c, 0, 64, 74
2,186759, Control_c, 0, 64, 58
2,186779, Control_c, 0, 64, 0
2,186792, Note_on_c, 0, 74, 83
2,186807, Note_on_c, 0, 70, 67
2,186956, Note_on_c, 0, 65, 64
2,186999, Note_on_c, 0, 69, 0
2,187093, Note_on_c, 0, 67, 62
2,187115, Note_on_c, 0, 76, 83
2,187126, Note_on_c, 0, 65, 0
2,187133, Note_on_c, 0, 74, 0
2,187137, Note_on_c, 0, 70, 0
2,187215, Note_on_c, 0, 67, 0
2,187252, Note_on_c, 0, 70, 65
2,187259, Note_on_c, 0, 79, 86
2,187344, Note_on_c, 0, 70, 0
2,187354, Note_on_c, 0, 76, 0
2,187418, Note_on_c, 0, 64, 81
2,187425, Note_on_c, 0, 72, 83
2,187431, Note_on_c, 0, 79, 0
2,187470, Note_on_c, 0, 64, 0
2,187574, Note_on_c, 0, 67, 67
2,187701, Note_on_c, 0, 72, 0
2,187751, Note_on_c, 0, 65, 79
2,187755, Note_on_c, 0, 69, 75
2,187814, Note_on_c, 0, 65, 0
2,187814, Note_on_c, 0, 67, 0
2,187899, Note_on_c, 0, 72, 78
2,187918, Note_on_c, 0, 69, 0
2,188078, Note_on_c, 0, 58, 81
2,188096, Note_on_c, 0, 62, 63
2,188239, Note_on_c, 0, 65, 54
2,188280, Note_on_c, 0, 72, 0
2,188367, Note_on_c, 0, 62, 0
2,188368, Note_on_c, 0, 67, 63
2,188536, Note_on_c, 0, 67, 0
2,188536, Note_on_c, 0, 70, 75
2,188667, Note_on_c, 0, 70, 0
2,188718, Note_on_c, 0, 60, 89
2,188728, Note_on_c, 0, 64, 64
2,188734, Note_on_c, 0, 58, 0
2,188794, Control_c, 0, 64, 34
2,188833, Control_c, 0, 64, 45
2,188852, Control_c, 0, 64, 56
2,188871, Control_c, 0, 64, 61
2,188873, Note_on_c, 0, 70, 69
2,188891, Control_c, 0, 64, 63
2,188910, Control_c, 0, 64, 64
2,188929, Control_c, 0, 64, 65
2,188948, Control_c, 0, 64, 68
2,188968, Control_c, 0, 64, 72
2,188986, Control_c, 0, 64, 79
2,188999, Note_on_c, 0, 70, 0
2,189006, Control_c, 0, 64, 94
2,189025, Control_c, 0, 64, 109
2,189037, Note_on_c, 0, 48, 86
2,189045, Control_c, 0, 64, 92
2,189059, Note_on_c, 0, 69, 74
2,189063, Control_c, 0, 64, 65
2,189082, Control_c, 0, 64, 0
2,189097, Note_on_c, 0, 48, 0
2,189112, Note_on_c, 0, 65, 0
2,189187, Note_on_c, 0, 69, 0
2,189195, Note_on_c, 0, 50, 87
2,189214, Note_on_c, 0, 67, 69
2,189240, Note_on_c, 0, 64, 0
2,189277, Note_on_c, 0, 50, 0
2,189310, Note_on_c, 0, 67, 0
2,189379, Note_on_c, 0, 48, 86
2,189399, Note_on_c, 0, 60, 0
2,189403, Note_on_c, 0, 67, 62
2,189453, Note_on_c, 0, 48, 0
2,189727, Note_on_c, 0, 46, 85
2,189742, Note_on_c, 0, 64, 51
2,189791, Note_on_c, 0, 46, 0
2,189798, Note_on_c, 0, 64, 0
2,189867, Note_on_c, 0, 65, 57
2,189997, Note_on_c, 0, 65, 0
2,190058, Note_on_c, 0, 45, 83
2,190063, Note_on_c, 0, 65, 71
2,190068, Note_on_c, 0, 67, 0
2,190118, Control_c, 0, 64, 57
2,190138, Control_c, 0, 64, 60
2,190156, Control_c, 0, 64, 60
2,190176, Control_c, 0, 64, 61
2,190195, Control_c, 0, 64, 62
2,190215, Control_c, 0, 64, 63
2,190233, Control_c, 0, 64, 64
2,190253, Control_c, 0, 64, 65
2,190261, Note_on_c, 0, 45, 0
2,190272, Control_c, 0, 64, 66
2,190291, Control_c, 0, 64, 67
2,190310, Control_c, 0, 64, 68
2,190330, Control_c, 0, 64, 69
2,190349, Control_c, 0, 64, 69
2,190368, Control_c, 0, 64, 68
2,190381, Note_on_c, 0, 48, 72
2,190387, Control_c, 0, 64, 64
2,190405, Note_on_c, 0, 72, 83
2,190407, Control_c, 0, 64, 50
2,190411, Note_on_c, 0, 45, 41
2,190420, Note_on_c, 0, 74, 73
2,190426, Control_c, 0, 64, 0
2,190426, Note_on_c, 0, 47, 40
2,190427, Note_on_c, 0, 48, 0
2,190441, Note_on_c, 0, 74, 0
2,190447, Note_on_c, 0, 45, 0
2,190466, Note_on_c, 0, 47, 0
2,190470, Note_on_c, 0, 72, 0
2,190537, Note_on_c, 0, 46, 68
2,190546, Note_on_c, 0, 74, 76
2,190565, Note_on_c, 0, 48, 21
2,190600, Note_on_c, 0, 46, 0
2,190615, Note_on_c, 0, 48, 0
2,190673, Note_on_c, 0, 74, 0
2,190726, Note_on_c, 0, 72, 91
2,190728, Note_on_c, 0, 50, 70
2,190745, Note_on_c, 0, 45, 58
2,190866, Note_on_c, 0, 50, 0
2,190895, Note_on_c, 0, 65, 0
2,190971, Note_on_c, 0, 45, 0
2,191056, Note_on_c, 0, 43, 66
2,191063, Note_on_c, 0, 52, 64
2,191068, Note_on_c, 0, 70, 89
2,191116, Control_c, 0, 64, 26
2,191136, Control_c, 0, 64, 39
2,191155, Control_c, 0, 64, 49
2,191175, Control_c, 0, 64, 57
2,191193, Control_c, 0, 64, 60
2,191212, Note_on_c, 0, 52, 0
2,191213, Control_c, 0, 64, 62
2,191232, Control_c, 0, 64, 63
2,191251, Control_c, 0, 64, 63
2,191270, Control_c, 0, 64, 64
2,191282, Note_on_c, 0, 70, 0
2,191309, Control_c, 0, 64, 64
2,191328, Control_c, 0, 64, 65
2,191367, Control_c, 0, 64, 64
2,191371, Note_on_c, 0, 43, 0
2,191386, Control_c, 0, 64, 54
2,191405, Control_c, 0, 64, 0
2,191420, Note_on_c, 0, 53, 66
2,191421, Note_on_c, 0, 41, 66
2,191425, Note_on_c, 0, 69, 85
2,191501, Note_on_c, 0, 41, 0
2,191570, Note_on_c, 0, 43, 75
2,191580, Note_on_c, 0, 53, 0
2,191652, Note_on_c, 0, 43, 0
2,191663, Note_on_c, 0, 69, 0
2,191732, Note_on_c, 0, 45, 71
2,191739, Note_on_c, 0, 52, 65
2,191748, Note_on_c, 0, 69, 88
2,191781, Note_on_c, 0, 45, 0
2,191784, Note_on_c, 0, 52, 0
2,191824, Note_on_c, 0, 69, 0
2,191895, Note_on_c, 0, 43, 76
2,191904, Note_on_c, 0, 70, 84
2,191957, Note_on_c, 0, 43, 0
2,192024, Note_on_c, 0, 70, 0
2,192082, Note_on_c, 0, 69, 87
2,192087, Note_on_c, 0, 53, 74
2,192089, Note_on_c, 0, 41, 68
2,192147, Note_on_c, 0, 53, 0
2,192150, Note_on_c, 0, 41, 0
2,192158, Note_on_c, 0, 69, 0
2,192422, Note_on_c, 0, 39, 84
2,192427, Note_on_c, 0, 67, 62
2,192441, Control_c, 0, 64, 40
2,192461, Control_c, 0, 64, 67
2,192478, Note_on_c, 0, 39, 0
2,192480, Control_c, 0, 64, 70
2,192499, Control_c, 0, 64, 73
2,192517, Note_on_c, 0, 67, 0
2,192518, Control_c, 0, 64, 74
2,192538, Control_c, 0, 64, 74
2,192556, Control_c, 0, 64, 76
2,192576, Control_c, 0, 64, 81
2,192595, Control_c, 0, 64, 85
2,192615, Control_c, 0, 64, 89
2,192633, Control_c, 0, 64, 92
2,192653, Control_c, 0, 64, 93
2,192672, Control_c, 0, 64, 94
2,192691, Control_c, 0, 64, 96
2,192710, Control_c, 0, 64, 98
2,192730, Control_c, 0, 64, 97
2,192749, Control_c, 0, 64, 79
2,192752, Note_on_c, 0, 50, 76
2,192756, Note_on_c, 0, 57, 74
2,192760, Note_on_c, 0, 66, 82
2,192768, Control_c, 0, 64, 59
2,192787, Control_c, 0, 64, 0
2,192797, Note_on_c, 0, 57, 0
2,192842, Note_on_c, 0, 66, 0
2,192908, Note_on_c, 0, 55, 65
2,192913, Note_on_c, 0, 50, 0
2,192927, Note_on_c, 0, 67, 76
2,192966, Note_on_c, 0, 55, 0
2,193003, Note_on_c, 0, 67, 0
2,193077, Note_on_c, 0, 54, 68
2,193089, Note_on_c, 0, 69, 81
2,193122, Note_on_c, 0, 54, 0
2,193151, Note_on_c, 0, 69, 0
2,193238, Note_on_c, 0, 67, 73
2,193244, Note_on_c, 0, 55, 58
2,193297, Note_on_c, 0, 55, 0
2,193319, Note_on_c, 0, 67, 0
2,193409, Note_on_c, 0, 66, 73
2,193416, Note_on_c, 0, 57, 62
2,193468, Note_on_c, 0, 57, 0
2,193481, Note_on_c, 0, 66, 0
2,193558, Note_on_c, 0, 58, 58
2,193624, Note_on_c, 0, 58, 0
2,193731, Note_on_c, 0, 60, 47
2,193731, Note_on_c, 0, 63, 81
2,193741, Note_on_c, 0, 48, 54
2,193749, Control_c, 0, 64, 60
2,193767, Note_on_c, 0, 60, 0
2,193769, Control_c, 0, 64, 73
2,193786, Note_on_c, 0, 48, 0
2,193787, Control_c, 0, 64, 80
2,193807, Control_c, 0, 64, 85
2,193826, Control_c, 0, 64, 87
2,193839, Note_on_c, 0, 63, 0
2,193846, Control_c, 0, 64, 88
2,193864, Control_c, 0, 64, 92
2,193883, Control_c, 0, 64, 98
2,193903, Control_c, 0, 64, 104
2,193921, Control_c, 0, 64, 109
2,193941, Control_c, 0, 64, 112
2,193954, Note_on_c, 0, 72, 0
2,193960, Control_c, 0, 64, 115
2,193980, Control_c, 0, 64, 119
2,193997, Control_c, 0, 64, 122
2,194039, Control_c, 0, 64, 105
2,194050, Note_on_c, 0, 74, 90
2,194059, Control_c, 0, 64, 76
2,194063, Note_on_c, 0, 46, 59
2,194065, Note_on_c, 0, 54, 54
2,194077, Control_c, 0, 64, 46
2,194097, Control_c, 0, 64, 0
2,194124, Note_on_c, 0, 54, 0
2,194125, Note_on_c, 0, 74, 0
2,194158, Note_on_c, 0, 46, 0
2,194209, Note_on_c, 0, 45, 42
2,194307, Note_on_c, 0, 45, 0
2,194385, Note_on_c, 0, 57, 50
2,194385, Note_on_c, 0, 78, 85
2,194386, Note_on_c, 0, 48, 44
2,194398, Note_on_c, 0, 69, 59
2,194441, Note_on_c, 0, 69, 0
2,194461, Note_on_c, 0, 48, 0
2,194479, Note_on_c, 0, 78, 0
2,194501, Note_on_c, 0, 57, 0
2,194540, Note_on_c, 0, 46, 62
2,194634, Note_on_c, 0, 46, 0
2,194715, Note_on_c, 0, 45, 67
2,194721, Note_on_c, 0, 55, 65
2,194725, Note_on_c, 0, 75, 74
2,194767, Note_on_c, 0, 55, 0
2,194849, Note_on_c, 0, 45, 0
2,194869, Note_on_c, 0, 43, 68
2,195038, Note_on_c, 0, 72, 77
2,195044, Note_on_c, 0, 54, 58
2,195045, Note_on_c, 0, 43, 0
2,195045, Note_on_c, 0, 46, 54
2,195100, Note_on_c, 0, 46, 0
2,195104, Note_on_c, 0, 54, 0
2,195131, Note_on_c, 0, 72, 0
2,195192, Note_on_c, 0, 45, 69
2,195306, Note_on_c, 0, 45, 0
2,195379, Note_on_c, 0, 43, 69
2,195384, Note_on_c, 0, 55, 71
2,195389, Note_on_c, 0, 70, 76
2,195502, Note_on_c, 0, 70, 0
2,195545, Note_on_c, 0, 69, 82
2,195555, Note_on_c, 0, 55, 0
2,195568, Note_on_c, 0, 75, 0
2,195642, Note_on_c, 0, 69, 0
2,195713, Note_on_c, 0, 53, 65
2,195717, Note_on_c, 0, 72, 63
2,195720, Note_on_c, 0, 74, 73
2,195780, Note_on_c, 0, 72, 0
2,195818, Note_on_c, 0, 74, 0
2,195827, Note_on_c, 0, 53, 0
2,195870, Note_on_c, 0, 70, 80
2,195954, Note_on_c, 0, 70, 0
2,196040, Note_on_c, 0, 51, 60
2,196041, Note_on_c, 0, 69, 68
2,196043, Note_on_c, 0, 72, 78
2,196113, Note_on_c, 0, 69, 0
2,196203, Note_on_c, 0, 70, 76
2,196208, Note_on_c, 0, 67, 61
2,196224, Note_on_c, 0, 51, 0
2,196242, Note_on_c, 0, 72, 0
2,196251, Note_on_c, 0, 67, 0
2,196255, Note_on_c, 0, 70, 0
2,196377, Note_on_c, 0, 70, 72
2,196378, Note_on_c, 0, 42, 53
2,196382, Note_on_c, 0, 74, 68
2,196385, Note_on_c, 0, 43, 0
2,196385, Note_on_c, 0, 50, 53
2,196425, Note_on_c, 0, 70, 0
2,196433, Note_on_c, 0, 42, 0
2,196487, Note_on_c, 0, 74, 0
2,196546, Note_on_c, 0, 72, 61
2,196549, Note_on_c, 0, 69, 51
2,196604, Note_on_c, 0, 69, 0
2,196666, Note_on_c, 0, 72, 0
2,196713, Note_on_c, 0, 43, 67
2,196721, Note_on_c, 0, 50, 0
2,196733, Note_on_c, 0, 70, 61
2,196762, Control_c, 0, 64, 56
2,196771, Note_on_c, 0, 67, 5
2,196782, Control_c, 0, 64, 62
2,196800, Control_c, 0, 64, 62
2,196820, Control_c, 0, 64, 63
2,196855, Note_on_c, 0, 70, 0
2,196859, Control_c, 0, 64, 63
2,196875, Control_c, 0, 64, 64
2,196882, Note_on_c, 0, 72, 50
2,196914, Control_c, 0, 64, 64
2,196952, Control_c, 0, 64, 65
2,196972, Control_c, 0, 64, 65
2,197011, Control_c, 0, 64, 64
2,197025, Note_on_c, 0, 72, 0
2,197029, Control_c, 0, 64, 52
2,197040, Note_on_c, 0, 55, 78
2,197049, Control_c, 0, 64, 0
2,197063, Note_on_c, 0, 67, 0
2,197067, Note_on_c, 0, 74, 54
2,197082, Note_on_c, 0, 55, 0
2,197183, Note_on_c, 0, 74, 0
2,197184, Note_on_c, 0, 57, 79
2,197191, Note_on_c, 0, 72, 62
2,197228, Note_on_c, 0, 57, 0
2,197236, Note_on_c, 0, 74, 13
2,197354, Note_on_c, 0, 72, 0
2,197371, Note_on_c, 0, 55, 82
2,197388, Note_on_c, 0, 70, 55
2,197412, Note_on_c, 0, 55, 0
2,197528, Note_on_c, 0, 70, 0
2,197535, Note_on_c, 0, 69, 52
2,197706, Note_on_c, 0, 69, 0
2,197715, Note_on_c, 0, 53, 82
2,197737, Note_on_c, 0, 67, 48
2,197793, Note_on_c, 0, 53, 0
2,197821, Note_on_c, 0, 67, 0
2,197900, Note_on_c, 0, 65, 37
2,198035, Note_on_c, 0, 65, 0
2,198055, Note_on_c, 0, 52, 77
2,198105, Note_on_c, 0, 67, 39
2,198124, Control_c, 0, 64, 53
2,198144, Control_c, 0, 64, 60
2,198163, Control_c, 0, 64, 61
2,198182, Control_c, 0, 64, 62
2,198201, Control_c, 0, 64, 63
2,198221, Control_c, 0, 64, 65
2,198240, Control_c, 0, 64, 68
2,198242, Note_on_c, 0, 67, 0
2,198248, Note_on_c, 0, 69, 52
2,198259, Control_c, 0, 64, 73
2,198276, Note_on_c, 0, 52, 0
2,198278, Control_c, 0, 64, 81
2,198298, Control_c, 0, 64, 90
2,198316, Control_c, 0, 64, 100
2,198333, Note_on_c, 0, 69, 0
2,198336, Control_c, 0, 64, 103
2,198355, Control_c, 0, 64, 96
2,198375, Control_c, 0, 64, 75
2,198393, Control_c, 0, 64, 52
2,198398, Note_on_c, 0, 52, 72
2,198413, Control_c, 0, 64, 0
2,198420, Note_on_c, 0, 70, 70
2,198449, Note_on_c, 0, 52, 0
2,198518, Note_on_c, 0, 74, 0
2,198532, Note_on_c, 0, 70, 0
2,198552, Note_on_c, 0, 53, 78
2,198577, Note_on_c, 0, 69, 74
2,198595, Note_on_c, 0, 53, 0
2,198694, Note_on_c, 0, 69, 0
2,198744, Note_on_c, 0, 67, 76
2,198748, Note_on_c, 0, 52, 80
2,198786, Note_on_c, 0, 52, 0
2,198825, Note_on_c, 0, 67, 0
2,198904, Note_on_c, 0, 65, 70
2,198983, Note_on_c, 0, 65, 0
2,199066, Note_on_c, 0, 50, 68
2,199077, Note_on_c, 0, 64, 70
2,199110, Note_on_c, 0, 50, 0
2,199135, Note_on_c, 0, 64, 0
2,199142, Control_c, 0, 64, 52
2,199161, Control_c, 0, 64, 57
2,199200, Control_c, 0, 64, 58
2,199219, Control_c, 0, 64, 60
2,199225, Note_on_c, 0, 62, 72
2,199238, Control_c, 0, 64, 63
2,199258, Control_c, 0, 64, 65
2,199276, Control_c, 0, 64, 70
2,199296, Control_c, 0, 64, 87
2,199305, Note_on_c, 0, 62, 0
2,199315, Control_c, 0, 64, 127
2,199392, Control_c, 0, 64, 87
2,199393, Note_on_c, 0, 76, 81
2,199396, Note_on_c, 0, 49, 67
2,199411, Control_c, 0, 64, 31
2,199430, Control_c, 0, 64, 0
2,199471, Note_on_c, 0, 49, 0
2,199556, Note_on_c, 0, 50, 64
2,199624, Note_on_c, 0, 50, 0
2,199720, Note_on_c, 0, 52, 59
2,199722, Note_on_c, 0, 69, 91
2,199773, Note_on_c, 0, 52, 0
2,199774, Note_on_c, 0, 69, 0
2,199876, Note_on_c, 0, 67, 80
2,199900, Note_on_c, 0, 50, 51
2,199948, Note_on_c, 0, 67, 0
2,199965, Note_on_c, 0, 50, 0
2,200063, Note_on_c, 0, 69, 88
2,200078, Note_on_c, 0, 49, 63
2,200121, Note_on_c, 0, 69, 0
2,200136, Note_on_c, 0, 49, 0
2,200405, Note_on_c, 0, 47, 50
2,200410, Note_on_c, 0, 71, 89
2,200470, Note_on_c, 0, 71, 0
2,200714, Note_on_c, 0, 47, 0
2,200720, Note_on_c, 0, 43, 0
2,200724, Note_on_c, 0, 57, 69
2,200731, Note_on_c, 0, 73, 89
2,200793, Control_c, 0, 64, 41
2,200813, Control_c, 0, 64, 74
2,200819, Note_on_c, 0, 57, 0
2,200832, Control_c, 0, 64, 92
2,200851, Control_c, 0, 64, 127
2,200899, Note_on_c, 0, 76, 0
2,200998, Note_on_c, 0, 73, 0
2,201076, Note_on_c, 0, 61, 65
2,201077, Note_on_c, 0, 76, 89
2,201080, Note_on_c, 0, 52, 53
2,201081, Control_c, 0, 64, 98
2,201084, Note_on_c, 0, 73, 79
2,201101, Control_c, 0, 64, 64
2,201120, Control_c, 0, 64, 0
2,201142, Note_on_c, 0, 61, 0
2,201142, Note_on_c, 0, 73, 0
2,201153, Note_on_c, 0, 52, 0
2,201153, Note_on_c, 0, 76, 0
2,201226, Note_on_c, 0, 53, 63
2,201238, Note_on_c, 0, 74, 85
2,201249, Note_on_c, 0, 71, 69
2,201282, Note_on_c, 0, 71, 0
2,201322, Note_on_c, 0, 74, 0
2,201391, Note_on_c, 0, 53, 0
2,201405, Note_on_c, 0, 55, 70
2,201411, Note_on_c, 0, 76, 82
2,201414, Note_on_c, 0, 73, 72
2,201461, Note_on_c, 0, 73, 0
2,201472, Note_on_c, 0, 55, 0
2,201492, Note_on_c, 0, 76, 0
2,201562, Note_on_c, 0, 53, 60
2,201704, Note_on_c, 0, 53, 0
2,201742, Note_on_c, 0, 77, 89
2,201747, Note_on_c, 0, 52, 65
2,201747, Note_on_c, 0, 69, 76
2,201751, Note_on_c, 0, 74, 63
2,201779, Note_on_c, 0, 69, 0
2,201808, Note_on_c, 0, 74, 0
2,201843, Note_on_c, 0, 77, 0
2,201866, Note_on_c, 0, 52, 0
2,201893, Note_on_c, 0, 50, 63
2,202036, Note_on_c, 0, 50, 0
2,202071, Note_on_c, 0, 49, 62
2,202086, Note_on_c, 0, 79, 94
2,202095, Note_on_c, 0, 70, 80
2,202096, Note_on_c, 0, 76, 65
2,202140, Control_c, 0, 64, 63
2,202151, Note_on_c, 0, 70, 0
2,202158, Control_c, 0, 64, 70
2,202168, Note_on_c, 0, 49, 0
2,202178, Control_c, 0, 64, 73
2,202197, Control_c, 0, 64, 74
2,202233, Note_on_c, 0, 76, 0
2,202235, Control_c, 0, 64, 75
2,202243, Note_on_c, 0, 79, 0
2,202245, Note_on_c, 0, 74, 81
2,202255, Control_c, 0, 64, 78
2,202256, Note_on_c, 0, 76, 35
2,202274, Control_c, 0, 64, 81
2,202293, Control_c, 0, 64, 87
2,202307, Note_on_c, 0, 76, 0
2,202312, Control_c, 0, 64, 93
2,202332, Control_c, 0, 64, 100
2,202351, Control_c, 0, 64, 103
2,202357, Note_on_c, 0, 74, 0
2,202389, Control_c, 0, 64, 99
2,202406, Note_on_c, 0, 79, 86
2,202409, Control_c, 0, 64, 81
2,202416, Note_on_c, 0, 73, 78
2,202427, Control_c, 0, 64, 63
2,202446, Control_c, 0, 64, 0
2,202461, Note_on_c, 0, 73, 0
2,202496, Note_on_c, 0, 79, 0
2,202562, Note_on_c, 0, 69, 84
2,202565, Note_on_c, 0, 77, 83
2,202571, Note_on_c, 0, 74, 65
2,202610, Note_on_c, 0, 74, 0
2,202641, Note_on_c, 0, 77, 0
2,202661, Note_on_c, 0, 69, 0
2,202725, Note_on_c, 0, 67, 68
2,202741, Note_on_c, 0, 79, 88
2,202742, Note_on_c, 0, 76, 64
2,202784, Note_on_c, 0, 76, 0
2,202838, Note_on_c, 0, 79, 0
2,202882, Note_on_c, 0, 67, 0
2,202891, Note_on_c, 0, 65, 77
2,202985, Note_on_c, 0, 65, 0
2,203060, Note_on_c, 0, 64, 70
2,203061, Note_on_c, 0, 77, 74
2,203065, Note_on_c, 0, 81, 88
2,203103, Note_on_c, 0, 77, 0
2,203131, Note_on_c, 0, 64, 0
2,203155, Note_on_c, 0, 81, 0
2,203212, Control_c, 0, 64, 36
2,203219, Note_on_c, 0, 62, 73
2,203231, Control_c, 0, 64, 52
2,203251, Control_c, 0, 64, 56
2,203269, Control_c, 0, 64, 58
2,203282, Note_on_c, 0, 62, 0
2,203289, Control_c, 0, 64, 60
2,203308, Control_c, 0, 64, 61
2,203326, Control_c, 0, 64, 62
2,203346, Control_c, 0, 64, 63
2,203365, Control_c, 0, 64, 64
2,203403, Control_c, 0, 64, 61
2,203405, Note_on_c, 0, 82, 92
2,203406, Note_on_c, 0, 61, 56
2,203408, Note_on_c, 0, 67, 65
2,203423, Control_c, 0, 64, 42
2,203442, Control_c, 0, 64, 0
2,203556, Note_on_c, 0, 67, 0
2,203570, Note_on_c, 0, 82, 0
2,203581, Note_on_c, 0, 81, 89
2,203681, Note_on_c, 0, 81, 0
2,203753, Note_on_c, 0, 79, 91
2,203761, Note_on_c, 0, 64, 34
2,203770, Note_on_c, 0, 61, 0
2,203821, Note_on_c, 0, 79, 0
2,203902, Note_on_c, 0, 81, 87
2,203980, Note_on_c, 0, 81, 0
2,204071, Note_on_c, 0, 61, 64
2,204072, Note_on_c, 0, 82, 83
2,204091, Note_on_c, 0, 64, 0
2,204095, Control_c, 0, 64, 61
2,204114, Control_c, 0, 64, 63
2,204172, Control_c, 0, 64, 64
2,204197, Note_on_c, 0, 82, 0
2,204211, Control_c, 0, 64, 64
2,204233, Note_on_c, 0, 79, 80
2,204249, Control_c, 0, 64, 65
2,204268, Control_c, 0, 64, 65
2,204285, Note_on_c, 0, 79, 0
2,204286, Control_c, 0, 64, 66
2,204306, Control_c, 0, 64, 67
2,204325, Control_c, 0, 64, 70
2,204345, Control_c, 0, 64, 75
2,204346, Note_on_c, 0, 61, 0
2,204363, Control_c, 0, 64, 79
2,204383, Control_c, 0, 64, 77
2,204391, Note_on_c, 0, 57, 61
2,204400, Note_on_c, 0, 81, 91
2,204402, Control_c, 0, 64, 65
2,204405, Note_on_c, 0, 69, 78
2,204421, Control_c, 0, 64, 0
2,204438, Note_on_c, 0, 57, 0
2,204440, Note_on_c, 0, 69, 0
2,204474, Note_on_c, 0, 81, 0
2,204563, Note_on_c, 0, 76, 81
2,204635, Note_on_c, 0, 76, 0
2,204723, Note_on_c, 0, 77, 81
2,204739, Note_on_c, 0, 69, 66
2,204745, Note_on_c, 0, 62, 74
2,204747, Note_on_c, 0, 50, 61
2,204859, Note_on_c, 0, 50, 0
2,204907, Note_on_c, 0, 76, 80
2,204922, Note_on_c, 0, 77, 0
2,204925, Note_on_c, 0, 62, 0
2,204966, Note_on_c, 0, 69, 0
2,205015, Note_on_c, 0, 76, 0
2,205066, Note_on_c, 0, 65, 68
2,205072, Note_on_c, 0, 74, 78
2,205104, Note_on_c, 0, 65, 0
2,205149, Note_on_c, 0, 74, 0
2,205228, Note_on_c, 0, 76, 87
2,205324, Note_on_c, 0, 76, 0
2,205396, Note_on_c, 0, 77, 85
2,205405, Note_on_c, 0, 69, 71
2,205406, Note_on_c, 0, 62, 68
2,205566, Note_on_c, 0, 74, 86
2,205586, Note_on_c, 0, 69, 0
2,205593, Note_on_c, 0, 77, 0
2,205638, Note_on_c, 0, 74, 0
2,205683, Note_on_c, 0, 62, 0
2,205734, Note_on_c, 0, 57, 60
2,205748, Note_on_c, 0, 76, 84
2,205763, Note_on_c, 0, 67, 55
2,205791, Note_on_c, 0, 57, 0
2,205803, Note_on_c, 0, 67, 0
2,205860, Note_on_c, 0, 76, 0
2,205914, Note_on_c, 0, 73, 89
2,205981, Note_on_c, 0, 73, 0
2,206093, Note_on_c, 0, 74, 84
2,206101, Note_on_c, 0, 58, 64
2,206101, Note_on_c, 0, 65, 63
2,206112, Note_on_c, 0, 50, 53
2,206273, Note_on_c, 0, 72, 86
2,206289, Note_on_c, 0, 65, 0
2,206296, Note_on_c, 0, 74, 0
2,206332, Note_on_c, 0, 58, 0
2,206343, Note_on_c, 0, 72, 0
2,206442, Note_on_c, 0, 70, 91
2,206454, Note_on_c, 0, 62, 70
2,206469, Note_on_c, 0, 53, 51
2,206473, Note_on_c, 0, 50, 0
2,206476, Note_on_c, 0, 52, 45
2,206491, Note_on_c, 0, 62, 0
2,206518, Note_on_c, 0, 52, 0
2,206524, Note_on_c, 0, 53, 0
2,206547, Note_on_c, 0, 70, 0
2,206620, Note_on_c, 0, 72, 89
2,206691, Note_on_c, 0, 72, 0
2,206808, Note_on_c, 0, 74, 82
2,206809, Note_on_c, 0, 58, 67
2,206827, Note_on_c, 0, 65, 59
2,207008, Note_on_c, 0, 70, 88
2,207031, Note_on_c, 0, 65, 0
2,207063, Note_on_c, 0, 74, 0
2,207181, Note_on_c, 0, 70, 0
2,207211, Note_on_c, 0, 72, 90
2,207218, Note_on_c, 0, 62, 70
2,207226, Note_on_c, 0, 65, 61
2,207246, Note_on_c, 0, 58, 0
2,207266, Note_on_c, 0, 65, 0
2,207302, Control_c, 0, 64, 43
2,207321, Control_c, 0, 64, 61
2,207341, Control_c, 0, 64, 65
2,207344, Note_on_c, 0, 62, 0
2,207360, Control_c, 0, 64, 69
2,207379, Control_c, 0, 64, 73
2,207398, Control_c, 0, 64, 79
2,207418, Control_c, 0, 64, 87
2,207432, Note_on_c, 0, 69, 94
2,207436, Control_c, 0, 64, 106
2,207455, Control_c, 0, 64, 127
2,207461, Note_on_c, 0, 72, 0
2,207479, Note_on_c, 0, 69, 0
2,207786, Note_on_c, 0, 64, 75
2,207788, Note_on_c, 0, 50, 67
2,207790, Note_on_c, 0, 80, 97
2,207795, Note_on_c, 0, 59, 65
2,207796, Note_on_c, 0, 76, 69
2,207801, Note_on_c, 0, 71, 72
2,207821, Control_c, 0, 64, 93
2,207840, Control_c, 0, 64, 45
2,207859, Control_c, 0, 64, 0
2,208472, Control_c, 0, 64, 46
2,208492, Control_c, 0, 64, 63
2,208511, Control_c, 0, 64, 66
2,208549, Control_c, 0, 64, 68
2,208569, Control_c, 0, 64, 71
2,208589, Control_c, 0, 64, 79
2,208607, Control_c, 0, 64, 94
2,208624, Control_c, 0, 64, 127
2,208828, Note_on_c, 0, 50, 0
2,209393, Note_on_c, 0, 64, 0
2,209399, Note_on_c, 0, 59, 0
2,209403, Note_on_c, 0, 71, 0
2,209404, Note_on_c, 0, 80, 0
2,209416, Note_on_c, 0, 76, 0
2,209449, Control_c, 0, 64, 95
2,209468, Control_c, 0, 64, 51
2,209488, Control_c, 0, 64, 0
2,210380, Note_on_c, 0, 51, 55
2,210383, Note_on_c, 0, 60, 72
2,210383, Note_on_c, 0, 81, 93
2,210389, Note_on_c, 0, 57, 53
2,210726, Note_on_c, 0, 69, 87
2,210758, Note_on_c, 0, 69, 0
2,210881, Note_on_c, 0, 68, 85
2,210959, Note_on_c, 0, 68, 0
2,211073, Note_on_c, 0, 69, 94
2,211131, Note_on_c, 0, 69, 0
2,211425, Note_on_c, 0, 71, 93
2,211456, Note_on_c, 0, 60, 0
2,211461, Note_on_c, 0, 57, 0
2,211480, Note_on_c, 0, 51, 0
2,211490, Note_on_c, 0, 71, 0
2,211757, Note_on_c, 0, 72, 91
2,211767, Note_on_c, 0, 60, 71
2,211776, Note_on_c, 0, 52, 53
2,211786, Note_on_c, 0, 57, 48
2,211816, Control_c, 0, 64, 63
2,211817, Note_on_c, 0, 81, 0
2,211834, Control_c, 0, 64, 67
2,211854, Control_c, 0, 64, 68
2,211873, Control_c, 0, 64, 69
2,211892, Control_c, 0, 64, 69
2,211911, Control_c, 0, 64, 71
2,211931, Control_c, 0, 64, 73
2,211950, Control_c, 0, 64, 76
2,211969, Control_c, 0, 64, 79
2,211988, Control_c, 0, 64, 81
2,212004, Note_on_c, 0, 72, 0
2,212007, Control_c, 0, 64, 82
2,212026, Control_c, 0, 64, 83
2,212065, Control_c, 0, 64, 82
2,212084, Control_c, 0, 64, 73
2,212095, Note_on_c, 0, 76, 82
2,212097, Note_on_c, 0, 72, 79
2,212103, Control_c, 0, 64, 49
2,212122, Control_c, 0, 64, 0
2,212146, Note_on_c, 0, 72, 0
2,212169, Note_on_c, 0, 76, 0
2,212249, Note_on_c, 0, 71, 76
2,212258, Note_on_c, 0, 74, 75
2,212279, Note_on_c, 0, 71, 0
2,212319, Note_on_c, 0, 74, 0
2,212424, Note_on_c, 0, 72, 75
2,212425, Note_on_c, 0, 76, 87
2,212460, Note_on_c, 0, 72, 0
2,212487, Note_on_c, 0, 76, 0
2,212531, Note_on_c, 0, 57, 0
2,212759, Note_on_c, 0, 74, 73
2,212762, Note_on_c, 0, 78, 85
2,212793, Note_on_c, 0, 52, 0
2,212805, Note_on_c, 0, 74, 0
2,212816, Note_on_c, 0, 60, 0
2,212844, Note_on_c, 0, 78, 0
2,213118, Note_on_c, 0, 76, 79
2,213119, Note_on_c, 0, 80, 87
2,213120, Note_on_c, 0, 62, 70
2,213125, Note_on_c, 0, 52, 50
2,213139, Note_on_c, 0, 59, 57
2,213157, Control_c, 0, 64, 50
2,213177, Control_c, 0, 64, 62
2,213196, Control_c, 0, 64, 61
2,213215, Control_c, 0, 64, 62
2,213234, Control_c, 0, 64, 64
2,213251, Note_on_c, 0, 76, 0
2,213254, Control_c, 0, 64, 68
2,213272, Control_c, 0, 64, 79
2,213285, Note_on_c, 0, 74, 81
2,213292, Control_c, 0, 64, 127
2,213352, Note_on_c, 0, 80, 0
2,213388, Control_c, 0, 64, 86
2,213389, Note_on_c, 0, 74, 0
2,213406, Control_c, 0, 64, 36
2,213426, Control_c, 0, 64, 0
2,213448, Note_on_c, 0, 72, 83
2,213459, Note_on_c, 0, 80, 88
2,213508, Note_on_c, 0, 72, 0
2,213525, Note_on_c, 0, 80, 0
2,213607, Note_on_c, 0, 74, 73
2,213609, Note_on_c, 0, 78, 79
2,213679, Note_on_c, 0, 74, 0
2,213698, Note_on_c, 0, 78, 0
2,213762, Note_on_c, 0, 59, 0
2,213797, Note_on_c, 0, 80, 94
2,213810, Note_on_c, 0, 76, 52
2,213839, Note_on_c, 0, 76, 0
2,213888, Note_on_c, 0, 80, 0
2,214098, Note_on_c, 0, 52, 0
2,214134, Note_on_c, 0, 81, 97
2,214137, Note_on_c, 0, 77, 69
2,214169, Note_on_c, 0, 62, 0
2,214175, Control_c, 0, 64, 66
2,214190, Note_on_c, 0, 77, 0
2,214195, Control_c, 0, 64, 71
2,214214, Control_c, 0, 64, 78
2,214234, Control_c, 0, 64, 85
2,214252, Control_c, 0, 64, 104
2,214272, Control_c, 0, 64, 127
2,214466, Control_c, 0, 64, 103
2,214485, Control_c, 0, 64, 68
2,214489, Note_on_c, 0, 68, 78
2,214502, Note_on_c, 0, 83, 94
2,214504, Control_c, 0, 64, 0
2,214533, Note_on_c, 0, 81, 0
2,214680, Note_on_c, 0, 81, 94
2,214707, Note_on_c, 0, 83, 0
2,214781, Note_on_c, 0, 68, 0
2,214801, Note_on_c, 0, 81, 0
2,214848, Note_on_c, 0, 64, 70
2,214852, Note_on_c, 0, 80, 93
2,214856, Note_on_c, 0, 59, 59
2,214922, Note_on_c, 0, 59, 0
2,214956, Note_on_c, 0, 64, 0
2,214962, Note_on_c, 0, 80, 0
2,215011, Note_on_c, 0, 60, 77
2,215024, Note_on_c, 0, 81, 93
2,215087, Note_on_c, 0, 60, 0
2,215164, Note_on_c, 0, 81, 0
2,215205, Note_on_c, 0, 62, 78
2,215219, Note_on_c, 0, 83, 91
2,215253, Control_c, 0, 64, 48
2,215272, Control_c, 0, 64, 66
2,215276, Note_on_c, 0, 62, 0
2,215329, Control_c, 0, 64, 67
2,215349, Control_c, 0, 64, 69
2,215357, Note_on_c, 0, 83, 0
2,215368, Control_c, 0, 64, 72
2,215388, Control_c, 0, 64, 77
2,215392, Note_on_c, 0, 64, 83
2,215406, Control_c, 0, 64, 86
2,215426, Control_c, 0, 64, 96
2,215435, Note_on_c, 0, 64, 0
2,215445, Control_c, 0, 64, 110
2,215464, Control_c, 0, 64, 127
2,215503, Control_c, 0, 64, 92
2,215522, Control_c, 0, 64, 67
2,215541, Control_c, 0, 64, 0
2,215584, Note_on_c, 0, 84, 95
2,215593, Note_on_c, 0, 69, 78
2,215600, Note_on_c, 0, 66, 73
2,215617, Control_c, 0, 64, 34
2,215637, Control_c, 0, 64, 62
2,215639, Note_on_c, 0, 84, 0
2,215656, Control_c, 0, 64, 68
2,215675, Control_c, 0, 64, 75
2,215676, Note_on_c, 0, 69, 0
2,215694, Control_c, 0, 64, 91
2,215714, Control_c, 0, 64, 114
2,215733, Control_c, 0, 64, 127
2,215794, Note_on_c, 0, 68, 88
2,215799, Note_on_c, 0, 69, 46
2,215813, Note_on_c, 0, 66, 0
2,215840, Note_on_c, 0, 69, 0
2,215846, Note_on_c, 0, 68, 0
2,216059, Control_c, 0, 64, 76
2,216069, Note_on_c, 0, 54, 75
2,216069, Note_on_c, 0, 57, 71
2,216071, Note_on_c, 0, 75, 97
2,216079, Control_c, 0, 64, 0
2,216079, Note_on_c, 0, 66, 66
2,216084, Note_on_c, 0, 71, 63
2,216091, Note_on_c, 0, 69, 51
2,216136, Note_on_c, 0, 71, 0
2,216234, Note_on_c, 0, 71, 32
2,216616, Control_c, 0, 64, 36
2,216635, Control_c, 0, 64, 58
2,216654, Control_c, 0, 64, 64
2,216674, Control_c, 0, 64, 66
2,216693, Control_c, 0, 64, 69
2,216712, Control_c, 0, 64, 76
2,216731, Control_c, 0, 64, 91
2,216751, Control_c, 0, 64, 127
2,216830, Note_on_c, 0, 66, 0
2,216935, Note_on_c, 0, 75, 0
2,217045, Note_on_c, 0, 71, 0
2,217327, Note_on_c, 0, 54, 0
2,217343, Control_c, 0, 64, 66
2,217360, Note_on_c, 0, 57, 0
2,217362, Control_c, 0, 64, 0
2,217456, Note_on_c, 0, 69, 0
2,217906, Note_on_c, 0, 76, 93
2,217910, Note_on_c, 0, 59, 68
2,217924, Note_on_c, 0, 71, 56
2,217927, Note_on_c, 0, 56, 53
2,217927, Note_on_c, 0, 64, 65
2,217977, Control_c, 0, 64, 64
2,217996, Control_c, 0, 64, 72
2,218015, Control_c, 0, 64, 77
2,218034, Control_c, 0, 64, 80
2,218054, Control_c, 0, 64, 86
2,218072, Control_c, 0, 64, 96
2,218092, Control_c, 0, 64, 127
2,218101, Note_on_c, 0, 64, 0
2,218131, Note_on_c, 0, 56, 0
2,218135, Note_on_c, 0, 76, 0
2,218146, Note_on_c, 0, 59, 0
2,218282, Control_c, 0, 64, 102
2,218296, Note_on_c, 0, 72, 94
2,218299, Note_on_c, 0, 57, 56
2,218299, Note_on_c, 0, 69, 58
2,218302, Control_c, 0, 64, 63
2,218304, Note_on_c, 0, 60, 64
2,218317, Note_on_c, 0, 64, 64
2,218321, Control_c, 0, 64, 0
2,218417, Control_c, 0, 64, 53
2,218422, Note_on_c, 0, 64, 0
2,218436, Control_c, 0, 64, 63
2,218437, Note_on_c, 0, 71, 0
2,218456, Control_c, 0, 64, 64
2,218475, Control_c, 0, 64, 65
2,218494, Control_c, 0, 64, 66
2,218513, Control_c, 0, 64, 69
2,218533, Control_c, 0, 64, 76
2,218551, Control_c, 0, 64, 86
2,218571, Control_c, 0, 64, 108
2,218590, Control_c, 0, 64, 127
2,218647, Control_c, 0, 64, 93
2,218661, Note_on_c, 0, 50, 56
2,218667, Control_c, 0, 64, 65
2,218676, Note_on_c, 0, 71, 89
2,218684, Note_on_c, 0, 65, 65
2,218685, Control_c, 0, 64, 0
2,218686, Note_on_c, 0, 62, 59
2,218692, Note_on_c, 0, 60, 0
2,218697, Note_on_c, 0, 72, 0
2,218714, Note_on_c, 0, 69, 0
2,218721, Note_on_c, 0, 65, 0
2,218778, Note_on_c, 0, 71, 0
2,218782, Note_on_c, 0, 50, 0
2,218834, Note_on_c, 0, 57, 0
2,218856, Note_on_c, 0, 69, 91
2,219021, Note_on_c, 0, 69, 0
2,219067, Note_on_c, 0, 60, 61
2,219071, Note_on_c, 0, 72, 87
2,219078, Note_on_c, 0, 62, 0
2,219083, Note_on_c, 0, 64, 73
2,219092, Note_on_c, 0, 52, 43
2,219127, Control_c, 0, 64, 47
2,219147, Control_c, 0, 64, 59
2,219165, Control_c, 0, 64, 58
2,219185, Control_c, 0, 64, 59
2,219204, Control_c, 0, 64, 59
2,219224, Control_c, 0, 64, 60
2,219242, Control_c, 0, 64, 61
2,219247, Note_on_c, 0, 71, 85
2,219248, Note_on_c, 0, 60, 0
2,219253, Note_on_c, 0, 72, 0
2,219308, Note_on_c, 0, 64, 0
2,219319, Control_c, 0, 64, 60
2,219339, Control_c, 0, 64, 53
2,219358, Control_c, 0, 64, 14
2,219359, Note_on_c, 0, 71, 0
2,219377, Control_c, 0, 64, 0
2,219403, Note_on_c, 0, 59, 67
2,219421, Note_on_c, 0, 69, 86
2,219434, Note_on_c, 0, 62, 62
2,219473, Control_c, 0, 64, 14
2,219478, Note_on_c, 0, 62, 0
2,219493, Control_c, 0, 64, 55
2,219511, Control_c, 0, 64, 63
2,219512, Note_on_c, 0, 59, 0
2,219531, Control_c, 0, 64, 66
2,219550, Control_c, 0, 64, 70
2,219556, Note_on_c, 0, 69, 0
2,219569, Control_c, 0, 64, 77
2,219581, Note_on_c, 0, 68, 92
2,219588, Control_c, 0, 64, 89
2,219607, Control_c, 0, 64, 106
2,219627, Control_c, 0, 64, 127
2,219640, Note_on_c, 0, 68, 0
2,219838, Control_c, 0, 64, 87
2,219857, Control_c, 0, 64, 61
2,219860, Note_on_c, 0, 69, 84
2,219867, Note_on_c, 0, 45, 58
2,219867, Note_on_c, 0, 61, 69
2,219876, Control_c, 0, 64, 0
2,219886, Note_on_c, 0, 64, 52
2,220171, Note_on_c, 0, 61, 0
2,220200, Note_on_c, 0, 64, 0
2,220217, Note_on_c, 0, 52, 0
2,220217, Note_on_c, 0, 57, 60
2,220281, Note_on_c, 0, 57, 0
2,220374, Note_on_c, 0, 58, 65
2,220466, Note_on_c, 0, 58, 0
2,220555, Note_on_c, 0, 57, 71
2,220611, Note_on_c, 0, 57, 0
2,220887, Note_on_c, 0, 55, 65
2,220895, Note_on_c, 0, 64, 58
2,220946, Note_on_c, 0, 64, 0
2,220975, Note_on_c, 0, 55, 0
2,221213, Note_on_c, 0, 53, 67
2,221239, Control_c, 0, 64, 60
2,221259, Control_c, 0, 64, 66
2,221278, Control_c, 0, 64, 69
2,221297, Control_c, 0, 64, 73
2,221298, Note_on_c, 0, 69, 0
2,221316, Control_c, 0, 64, 85
2,221336, Control_c, 0, 64, 112
2,221342, Note_on_c, 0, 53, 0
2,221355, Control_c, 0, 64, 127
2,221560, Note_on_c, 0, 53, 46
2,221564, Note_on_c, 0, 69, 68
2,221565, Control_c, 0, 64, 104
2,221585, Control_c, 0, 64, 68
2,221598, Note_on_c, 0, 53, 0
2,221604, Control_c, 0, 64, 0
2,221611, Note_on_c, 0, 69, 0
2,221703, Note_on_c, 0, 55, 48
2,221706, Note_on_c, 0, 70, 75
2,221742, Note_on_c, 0, 55, 0
2,221752, Note_on_c, 0, 70, 0
2,221893, Note_on_c, 0, 53, 50
2,221893, Note_on_c, 0, 69, 74
2,221938, Note_on_c, 0, 53, 0
2,221940, Note_on_c, 0, 69, 0
2,222226, Note_on_c, 0, 52, 50
2,222235, Note_on_c, 0, 67, 63
2,222276, Note_on_c, 0, 52, 0
2,222305, Note_on_c, 0, 67, 0
2,222553, Note_on_c, 0, 50, 49
2,222562, Note_on_c, 0, 65, 60
2,222602, Control_c, 0, 64, 31
2,222622, Control_c, 0, 64, 54
2,222641, Control_c, 0, 64, 60
2,222643, Note_on_c, 0, 50, 0
2,222661, Control_c, 0, 64, 63
2,222679, Control_c, 0, 64, 65
2,222696, Note_on_c, 0, 65, 0
2,222699, Control_c, 0, 64, 69
2,222714, Note_on_c, 0, 52, 53
2,222718, Control_c, 0, 64, 74
2,222737, Control_c, 0, 64, 83
2,222756, Control_c, 0, 64, 94
2,222776, Control_c, 0, 64, 109
2,222795, Control_c, 0, 64, 127
2,222796, Note_on_c, 0, 52, 0
2,222871, Control_c, 0, 64, 112
2,222885, Note_on_c, 0, 53, 54
2,222891, Control_c, 0, 64, 75
2,222897, Note_on_c, 0, 74, 70
2,222910, Control_c, 0, 64, 36
2,222918, Note_on_c, 0, 65, 38
2,222929, Control_c, 0, 64, 0
2,222933, Note_on_c, 0, 53, 0
2,222941, Note_on_c, 0, 74, 0
2,222954, Note_on_c, 0, 65, 0
2,223033, Note_on_c, 0, 52, 56
2,223043, Note_on_c, 0, 73, 74
2,223049, Note_on_c, 0, 67, 53
2,223080, Note_on_c, 0, 52, 0
2,223088, Note_on_c, 0, 67, 0
2,223111, Note_on_c, 0, 73, 0
2,223210, Note_on_c, 0, 74, 73
2,223214, Note_on_c, 0, 65, 64
2,223222, Note_on_c, 0, 50, 53
2,223249, Note_on_c, 0, 65, 0
2,223267, Note_on_c, 0, 50, 0
2,223275, Note_on_c, 0, 74, 0
2,223541, Note_on_c, 0, 76, 76
2,223546, Note_on_c, 0, 64, 66
2,223561, Note_on_c, 0, 49, 56
2,223562, Control_c, 0, 64, 59
2,223582, Control_c, 0, 64, 65
2,223592, Note_on_c, 0, 64, 0
2,223601, Control_c, 0, 64, 66
2,223621, Control_c, 0, 64, 67
2,223636, Note_on_c, 0, 45, 0
2,223639, Control_c, 0, 64, 70
2,223659, Control_c, 0, 64, 80
2,223678, Control_c, 0, 64, 97
2,223697, Control_c, 0, 64, 127
2,223698, Note_on_c, 0, 49, 0
2,223831, Control_c, 0, 64, 87
2,223849, Control_c, 0, 64, 59
2,223869, Control_c, 0, 64, 0
2,223884, Note_on_c, 0, 77, 82
2,223887, Note_on_c, 0, 62, 49
2,223925, Note_on_c, 0, 76, 0
2,223966, Control_c, 0, 64, 42
2,223985, Control_c, 0, 64, 58
2,224004, Control_c, 0, 64, 62
2,224024, Control_c, 0, 64, 64
2,224042, Control_c, 0, 64, 66
2,224054, Note_on_c, 0, 62, 0
2,224062, Control_c, 0, 64, 69
2,224077, Note_on_c, 0, 77, 0
2,224081, Control_c, 0, 64, 77
2,224101, Control_c, 0, 64, 88
2,224119, Control_c, 0, 64, 106
2,224139, Control_c, 0, 64, 127
2,224177, Control_c, 0, 64, 88
2,224196, Control_c, 0, 64, 55
2,224204, Note_on_c, 0, 57, 54
2,224213, Note_on_c, 0, 77, 77
2,224216, Control_c, 0, 64, 0
2,224221, Note_on_c, 0, 53, 39
2,224232, Note_on_c, 0, 69, 58
2,224246, Note_on_c, 0, 57, 0
2,224257, Note_on_c, 0, 69, 0
2,224257, Note_on_c, 0, 77, 0
2,224260, Note_on_c, 0, 53, 0
2,224362, Note_on_c, 0, 59, 55
2,224370, Note_on_c, 0, 76, 80
2,224389, Note_on_c, 0, 67, 53
2,224396, Note_on_c, 0, 59, 0
2,224417, Note_on_c, 0, 67, 0
2,224449, Note_on_c, 0, 76, 0
2,224549, Note_on_c, 0, 77, 88
2,224552, Note_on_c, 0, 61, 62
2,224553, Note_on_c, 0, 52, 56
2,224558, Note_on_c, 0, 69, 64
2,224591, Note_on_c, 0, 69, 0
2,224598, Note_on_c, 0, 61, 0
2,224616, Note_on_c, 0, 52, 0
2,224623, Note_on_c, 0, 77, 0
2,224871, Note_on_c, 0, 62, 53
2,224891, Note_on_c, 0, 79, 87
2,224893, Note_on_c, 0, 50, 49
2,224895, Note_on_c, 0, 71, 70
2,224933, Note_on_c, 0, 71, 0
2,224955, Note_on_c, 0, 62, 0
2,224971, Note_on_c, 0, 79, 0
2,225217, Note_on_c, 0, 55, 53
2,225221, Note_on_c, 0, 81, 88
2,225224, Note_on_c, 0, 50, 0
2,225225, Note_on_c, 0, 64, 49
2,225227, Note_on_c, 0, 73, 71
2,225366, Note_on_c, 0, 81, 0
2,225368, Note_on_c, 0, 73, 0
2,225381, Note_on_c, 0, 79, 86
2,225396, Note_on_c, 0, 73, 25
2,225437, Note_on_c, 0, 73, 0
2,225503, Note_on_c, 0, 79, 0
2,225548, Note_on_c, 0, 73, 67
2,225549, Note_on_c, 0, 77, 81
2,225584, Note_on_c, 0, 73, 0
2,225641, Note_on_c, 0, 77, 0
2,225710, Note_on_c, 0, 79, 85
2,225722, Note_on_c, 0, 71, 68
2,225757, Note_on_c, 0, 71, 0
2,225797, Note_on_c, 0, 79, 0
2,225873, Note_on_c, 0, 81, 91
2,225883, Note_on_c, 0, 73, 69
2,225928, Note_on_c, 0, 73, 0
2,225937, Note_on_c, 0, 64, 0
2,225986, Note_on_c, 0, 81, 0
2,226138, Note_on_c, 0, 55, 0
2,226203, Note_on_c, 0, 82, 90
2,226207, Note_on_c, 0, 53, 52
2,226213, Note_on_c, 0, 62, 53
2,226213, Note_on_c, 0, 74, 67
2,226230, Control_c, 0, 64, 29
2,226247, Note_on_c, 0, 74, 0
2,226250, Control_c, 0, 64, 58
2,226260, Note_on_c, 0, 82, 0
2,226269, Control_c, 0, 64, 65
2,226288, Control_c, 0, 64, 70
2,226307, Control_c, 0, 64, 79
2,226327, Control_c, 0, 64, 93
2,226346, Control_c, 0, 64, 127
2,226435, Note_on_c, 0, 70, 29
2,226484, Note_on_c, 0, 70, 0
2,226554, Note_on_c, 0, 76, 88
2,226557, Control_c, 0, 64, 65
2,226562, Note_on_c, 0, 73, 70
2,226566, Note_on_c, 0, 67, 67
2,226572, Note_on_c, 0, 52, 60
2,226576, Control_c, 0, 64, 0
2,226674, Note_on_c, 0, 73, 0
2,226740, Note_on_c, 0, 74, 82
2,226758, Note_on_c, 0, 67, 0
2,226759, Note_on_c, 0, 73, 56
2,226768, Note_on_c, 0, 76, 0
2,226795, Note_on_c, 0, 73, 0
2,226805, Note_on_c, 0, 53, 0
2,226837, Note_on_c, 0, 74, 0
2,226907, Note_on_c, 0, 73, 77
2,226917, Note_on_c, 0, 69, 74
2,226952, Note_on_c, 0, 69, 0
2,227005, Note_on_c, 0, 73, 0
2,227075, Note_on_c, 0, 74, 86
2,227196, Note_on_c, 0, 74, 0
2,227286, Note_on_c, 0, 76, 90
2,227326, Control_c, 0, 64, 55
2,227346, Control_c, 0, 64, 61
2,227365, Control_c, 0, 64, 63
2,227385, Control_c, 0, 64, 66
2,227403, Control_c, 0, 64, 72
2,227423, Control_c, 0, 64, 84
2,227442, Control_c, 0, 64, 104
2,227461, Control_c, 0, 64, 127
2,227538, Note_on_c, 0, 62, 0
2,227596, Note_on_c, 0, 76, 0
2,227615, Control_c, 0, 64, 77
2,227634, Control_c, 0, 64, 0
2,227650, Note_on_c, 0, 52, 0
2,227655, Note_on_c, 0, 77, 86
2,227665, Note_on_c, 0, 50, 58
2,227667, Note_on_c, 0, 65, 62
2,227671, Note_on_c, 0, 74, 47
2,227715, Note_on_c, 0, 74, 0
2,227766, Note_on_c, 0, 65, 0
2,227768, Control_c, 0, 64, 54
2,227788, Control_c, 0, 64, 59
2,227806, Control_c, 0, 64, 62
2,227826, Control_c, 0, 64, 65
2,227845, Control_c, 0, 64, 70
2,227856, Note_on_c, 0, 64, 75
2,227865, Control_c, 0, 64, 80
2,227883, Control_c, 0, 64, 103
2,227901, Note_on_c, 0, 50, 0
2,227903, Control_c, 0, 64, 127
2,227907, Note_on_c, 0, 64, 0
2,228057, Control_c, 0, 64, 73
2,228062, Note_on_c, 0, 68, 87
2,228068, Note_on_c, 0, 62, 62
2,228076, Control_c, 0, 64, 0
2,228082, Note_on_c, 0, 59, 54
2,228243, Note_on_c, 0, 68, 0
2,228253, Note_on_c, 0, 72, 87
2,228340, Note_on_c, 0, 72, 0
2,228439, Note_on_c, 0, 71, 86
2,228501, Note_on_c, 0, 71, 0
2,228634, Note_on_c, 0, 72, 84
2,228680, Note_on_c, 0, 72, 0
2,228775, Note_on_c, 0, 62, 0
2,228848, Note_on_c, 0, 74, 88
2,228871, Note_on_c, 0, 77, 0
2,229054, Note_on_c, 0, 76, 86
2,229079, Note_on_c, 0, 74, 0
2,229163, Note_on_c, 0, 76, 0
2,229278, Note_on_c, 0, 62, 69
2,229278, Note_on_c, 0, 78, 86
2,229280, Note_on_c, 0, 74, 71
2,229320, Note_on_c, 0, 74, 0
2,229366, Note_on_c, 0, 78, 0
2,229411, Note_on_c, 0, 74, 40
2,229426, Note_on_c, 0, 62, 0
2,229507, Note_on_c, 0, 64, 79
2,229512, Note_on_c, 0, 80, 92
2,229615, Note_on_c, 0, 80, 0
2,229647, Note_on_c, 0, 64, 0
2,229766, Note_on_c, 0, 81, 99
2,229767, Note_on_c, 0, 59, 0
2,229768, Note_on_c, 0, 57, 70
2,229768, Note_on_c, 0, 65, 76
2,229820, Note_on_c, 0, 74, 0
2,229858, Control_c, 0, 64, 61
2,229876, Control_c, 0, 64, 67
2,229896, Control_c, 0, 64, 71
2,229915, Control_c, 0, 64, 75
2,229934, Control_c, 0, 64, 84
2,229953, Control_c, 0, 64, 102
2,229973, Control_c, 0, 64, 127
2,229985, Note_on_c, 0, 65, 0
2,230034, Note_on_c, 0, 81, 0
2,230226, Note_on_c, 0, 76, 87
2,230229, Note_on_c, 0, 64, 72
2,230231, Note_on_c, 0, 61, 63
2,230240, Note_on_c, 0, 73, 68
2,230242, Control_c, 0, 64, 87
2,230261, Control_c, 0, 64, 43
2,230263, Note_on_c, 0, 73, 0
2,230265, Note_on_c, 0, 64, 0
2,230273, Note_on_c, 0, 61, 0
2,230279, Control_c, 0, 64, 0
2,230291, Note_on_c, 0, 76, 0
2,230473, Note_on_c, 0, 62, 66
2,230474, Note_on_c, 0, 77, 86
2,230487, Note_on_c, 0, 59, 59
2,230494, Note_on_c, 0, 74, 52
2,230527, Note_on_c, 0, 62, 0
2,230533, Note_on_c, 0, 74, 0
2,230543, Note_on_c, 0, 59, 0
2,230569, Note_on_c, 0, 77, 0
2,230770, Note_on_c, 0, 76, 88
2,230774, Note_on_c, 0, 64, 67
2,230787, Note_on_c, 0, 73, 64
2,230790, Note_on_c, 0, 61, 55
2,230837, Control_c, 0, 64, 51
2,230857, Control_c, 0, 64, 70
2,230876, Control_c, 0, 64, 74
2,230895, Control_c, 0, 64, 80
2,230914, Control_c, 0, 64, 83
2,230934, Control_c, 0, 64, 88
2,230953, Control_c, 0, 64, 101
2,230972, Control_c, 0, 64, 127
2,231031, Note_on_c, 0, 73, 0
2,231032, Note_on_c, 0, 64, 0
2,231058, Note_on_c, 0, 61, 0
2,231375, Control_c, 0, 64, 93
2,231387, Note_on_c, 0, 74, 86
2,231394, Control_c, 0, 64, 62
2,231402, Note_on_c, 0, 62, 50
2,231411, Note_on_c, 0, 65, 53
2,231413, Control_c, 0, 64, 0
2,231413, Note_on_c, 0, 71, 54
2,231440, Note_on_c, 0, 76, 0
2,231547, Control_c, 0, 64, 53
2,231564, Note_on_c, 0, 71, 0
2,231567, Control_c, 0, 64, 55
2,231605, Control_c, 0, 64, 56
2,231624, Control_c, 0, 64, 58
2,231644, Control_c, 0, 64, 61
2,231662, Control_c, 0, 64, 64
2,231682, Control_c, 0, 64, 67
2,231701, Control_c, 0, 64, 71
2,231719, Control_c, 0, 64, 79
2,231739, Control_c, 0, 64, 92
2,231758, Control_c, 0, 64, 113
2,231778, Control_c, 0, 64, 127
2,231838, Note_on_c, 0, 68, 87
2,231958, Note_on_c, 0, 65, 0
2,232009, Note_on_c, 0, 74, 0
2,232410, Note_on_c, 0, 73, 83
2,232418, Note_on_c, 0, 64, 65
2,232418, Note_on_c, 0, 69, 76
2,232435, Note_on_c, 0, 68, 0
2,232450, Control_c, 0, 64, 83
2,232468, Control_c, 0, 64, 27
2,232488, Control_c, 0, 64, 0
2,232500, Note_on_c, 0, 62, 0
2,232556, Note_on_c, 0, 68, 88
2,232558, Note_on_c, 0, 69, 0
2,232667, Note_on_c, 0, 68, 0
2,232683, Note_on_c, 0, 69, 85
2,236053, Note_on_c, 0, 73, 0
2,236116, Note_on_c, 0, 57, 0
2,236136, Note_on_c, 0, 64, 0
2,236169, Note_on_c, 0, 69, 0
2,236170, End_track
0, 0, End_of_file
