0, 0, Header, 1, 2, 480
1, 0, Start_track
1, 0, Tempo, 500000
1, 0, Time_signature, 4, 2, 24, 8
1, 1, End_track
2, 0, Start_track
2, 0, Program_c, 0, 0
2, 988, Note_on_c, 0, 45, 42
2, 1012, Note_on_c, 0, 69, 66
2, 1084, Note_on_c, 0, 69, 0
2, 1113, Note_on_c, 0, 71, 68
2, 1194, Note_on_c, 0, 71, 0
2, 1225, Note_on_c, 0, 72, 72
2, 1259, Note_on_c, 0, 72, 0
2, 1491, Note_on_c, 0, 76, 68
2, 1528, Note_on_c, 0, 76, 0
2, 1728, Note_on_c, 0, 45, 0
2, 1735, Note_on_c, 0, 57, 54
2, 1739, Note_on_c, 0, 72, 72
2, 1780, Note_on_c, 0, 72, 0
2, 1801, Note_on_c, 0, 57, 0
2, 1847, Note_on_c, 0, 56, 62
2, 1911, Note_on_c, 0, 56, 0
2, 1961, Note_on_c, 0, 57, 59
2, 1964, Note_on_c, 0, 69, 74
2, 2013, Note_on_c, 0, 69, 0
2, 2015, Note_on_c, 0, 57, 0
2, 2062, Note_on_c, 0, 56, 68
2, 2132, Note_on_c, 0, 56, 0
2, 2199, Note_on_c, 0, 57, 53
2, 2199, Note_on_c, 0, 64, 69
2, 2241, Note_on_c, 0, 64, 0
2, 2248, Note_on_c, 0, 57, 0
2, 2283, Note_on_c, 0, 56, 64
2, 2352, Note_on_c, 0, 56, 0
2, 2418, Note_on_c, 0, 57, 47
2, 2438, Note_on_c, 0, 69, 70
2, 2468, Note_on_c, 0, 69, 0
2, 2479, Note_on_c, 0, 57, 0
2, 2692, Note_on_c, 0, 52, 49
2, 2695, Note_on_c, 0, 72, 71
2, 2736, Note_on_c, 0, 52, 0
2, 2736, Note_on_c, 0, 72, 0
2, 2923, Note_on_c, 0, 48, 49
2, 2924, Note_on_c, 0, 76, 73
2, 2965, Note_on_c, 0, 76, 0
2, 2968, Note_on_c, 0, 48, 0
2, 3198, Note_on_c, 0, 71, 79
2, 3199, Note_on_c, 0, 45, 48
2, 3260, Note_on_c, 0, 71, 0
2, 3288, Note_on_c, 0, 72, 82
2, 3348, Note_on_c, 0, 72, 0
2, 3397, Note_on_c, 0, 74, 78
2, 3427, Note_on_c, 0, 74, 0
2, 3655, Note_on_c, 0, 77, 63
2, 3692, Note_on_c, 0, 77, 0
2, 3882, Note_on_c, 0, 45, 0
2, 3890, Note_on_c, 0, 57, 59
2, 3891, Note_on_c, 0, 74, 70
2, 3929, Note_on_c, 0, 74, 0
2, 3958, Note_on_c, 0, 57, 0
2, 3998, Note_on_c, 0, 56, 65
2, 4043, Note_on_c, 0, 56, 0
2, 4104, Note_on_c, 0, 57, 66
2, 4115, Note_on_c, 0, 71, 70
2, 4155, Note_on_c, 0, 71, 0
2, 4156, Note_on_c, 0, 57, 0
2, 4205, Note_on_c, 0, 56, 65
2, 4262, Note_on_c, 0, 56, 0
2, 4322, Note_on_c, 0, 57, 65
2, 4329, Note_on_c, 0, 68, 78
2, 4370, Note_on_c, 0, 57, 0
2, 4399, Note_on_c, 0, 68, 0
2, 4409, Note_on_c, 0, 56, 76
2, 4491, Note_on_c, 0, 56, 0
2, 4550, Note_on_c, 0, 57, 56
2, 4565, Note_on_c, 0, 71, 85
2, 4594, Note_on_c, 0, 71, 0
2, 4599, Note_on_c, 0, 57, 0
2, 4804, Note_on_c, 0, 74, 79
2, 4809, Note_on_c, 0, 53, 57
2, 4843, Note_on_c, 0, 74, 0
2, 4847, Note_on_c, 0, 53, 0
2, 5039, Note_on_c, 0, 77, 86
2, 5040, Note_on_c, 0, 50, 51
2, 5088, Note_on_c, 0, 77, 0
2, 5096, Note_on_c, 0, 50, 0
2, 5284, Note_on_c, 0, 45, 51
2, 5298, Note_on_c, 0, 74, 82
2, 5355, Note_on_c, 0, 74, 0
2, 5401, Note_on_c, 0, 76, 85
2, 5469, Note_on_c, 0, 76, 0
2, 5513, Note_on_c, 0, 77, 83
2, 5542, Note_on_c, 0, 77, 0
2, 5748, Note_on_c, 0, 80, 88
2, 5890, Note_on_c, 0, 80, 0
2, 5950, Note_on_c, 0, 45, 0
2, 5980, Note_on_c, 0, 77, 74
2, 5988, Note_on_c, 0, 57, 63
2, 6021, Note_on_c, 0, 77, 0
2, 6056, Note_on_c, 0, 57, 0
2, 6099, Note_on_c, 0, 56, 70
2, 6150, Note_on_c, 0, 56, 0
2, 6204, Note_on_c, 0, 57, 67
2, 6211, Note_on_c, 0, 74, 75
2, 6249, Note_on_c, 0, 74, 0
2, 6266, Note_on_c, 0, 57, 0
2, 6322, Note_on_c, 0, 56, 69
2, 6373, Note_on_c, 0, 56, 0
2, 6435, Note_on_c, 0, 71, 83
2, 6436, Note_on_c, 0, 57, 64
2, 6496, Note_on_c, 0, 57, 0
2, 6505, Note_on_c, 0, 71, 0
2, 6540, Note_on_c, 0, 56, 66
2, 6602, Note_on_c, 0, 56, 0
2, 6664, Note_on_c, 0, 57, 59
2, 6664, Note_on_c, 0, 74, 84
2, 6708, Note_on_c, 0, 57, 0
2, 6716, Note_on_c, 0, 74, 0
2, 6903, Note_on_c, 0, 77, 86
2, 6914, Note_on_c, 0, 53, 59
2, 6953, Note_on_c, 0, 77, 0
2, 6954, Note_on_c, 0, 53, 0
2, 7134, Note_on_c, 0, 50, 54
2, 7134, Note_on_c, 0, 80, 88
2, 7165, Note_on_c, 0, 76, 28
2, 7180, Note_on_c, 0, 50, 0
2, 7199, Note_on_c, 0, 76, 0
2, 7201, Note_on_c, 0, 80, 0
2, 7394, Note_on_c, 0, 45, 51
2, 7396, Note_on_c, 0, 81, 84
2, 7652, Note_on_c, 0, 81, 0
2, 7659, Note_on_c, 0, 79, 71
2, 7756, Note_on_c, 0, 77, 67
2, 7769, Note_on_c, 0, 79, 0
2, 7827, Note_on_c, 0, 45, 0
2, 7851, Note_on_c, 0, 76, 71
2, 7863, Note_on_c, 0, 77, 0
2, 7929, Note_on_c, 0, 76, 0
2, 7960, Note_on_c, 0, 74, 70
2, 8059, Note_on_c, 0, 74, 0
2, 8070, Note_on_c, 0, 72, 70
2, 8300, Note_on_c, 0, 72, 0
2, 8305, Note_on_c, 0, 69, 68
2, 8338, Note_on_c, 0, 69, 0
2, 8549, Note_on_c, 0, 64, 58
2, 8597, Note_on_c, 0, 64, 0
2, 8781, Note_on_c, 0, 60, 65
2, 8830, Note_on_c, 0, 60, 0
2, 9026, Note_on_c, 0, 57, 62
2, 9069, Note_on_c, 0, 57, 0
2, 9237, Note_on_c, 0, 63, 75
2, 9278, Note_on_c, 0, 63, 0
2, 9490, Note_on_c, 0, 79, 75
2, 9491, Note_on_c, 0, 52, 76
2, 9503, Note_on_c, 0, 71, 49
2, 9574, Note_on_c, 0, 52, 0
2, 9617, Note_on_c, 0, 54, 84
2, 9675, Note_on_c, 0, 54, 0
2, 9736, Note_on_c, 0, 55, 83
2, 9785, Note_on_c, 0, 55, 0
2, 9973, Note_on_c, 0, 59, 81
2, 10011, Note_on_c, 0, 59, 0
2, 10186, Note_on_c, 0, 71, 0
2, 10221, Note_on_c, 0, 55, 55
2, 10225, Note_on_c, 0, 76, 64
2, 10266, Note_on_c, 0, 55, 0
2, 10281, Note_on_c, 0, 76, 0
2, 10315, Note_on_c, 0, 75, 71
2, 10390, Note_on_c, 0, 79, 0
2, 10408, Note_on_c, 0, 75, 0
2, 10417, Note_on_c, 0, 76, 68
2, 10432, Note_on_c, 0, 52, 64
2, 10472, Note_on_c, 0, 52, 0
2, 10489, Note_on_c, 0, 76, 0
2, 10506, Note_on_c, 0, 50, 3
2, 10530, Note_on_c, 0, 75, 73
2, 10556, Note_on_c, 0, 50, 0
2, 10608, Note_on_c, 0, 75, 0
2, 10646, Note_on_c, 0, 76, 62
2, 10657, Note_on_c, 0, 47, 71
2, 10686, Note_on_c, 0, 50, 28
2, 10711, Note_on_c, 0, 47, 0
2, 10725, Note_on_c, 0, 50, 0
2, 10738, Note_on_c, 0, 76, 0
2, 10757, Note_on_c, 0, 75, 70
2, 10868, Note_on_c, 0, 75, 0
2, 10870, Note_on_c, 0, 76, 75
2, 10871, Note_on_c, 0, 52, 74
2, 10917, Note_on_c, 0, 52, 0
2, 10960, Note_on_c, 0, 76, 0
2, 11005, Note_on_c, 0, 71, 77
2, 11081, Note_on_c, 0, 71, 0
2, 11100, Note_on_c, 0, 55, 73
2, 11105, Note_on_c, 0, 69, 78
2, 11145, Note_on_c, 0, 55, 0
2, 11221, Note_on_c, 0, 67, 73
2, 11260, Note_on_c, 0, 69, 0
2, 11297, Note_on_c, 0, 67, 0
2, 11307, Note_on_c, 0, 59, 79
2, 11309, Note_on_c, 0, 66, 76
2, 11366, Note_on_c, 0, 59, 0
2, 11406, Note_on_c, 0, 66, 0
2, 11412, Note_on_c, 0, 64, 74
2, 11534, Note_on_c, 0, 54, 79
2, 11545, Note_on_c, 0, 72, 83
2, 11566, Note_on_c, 0, 69, 20
2, 11602, Note_on_c, 0, 54, 0
2, 11624, Note_on_c, 0, 69, 0
2, 11635, Note_on_c, 0, 55, 87
2, 11700, Note_on_c, 0, 55, 0
2, 11758, Note_on_c, 0, 57, 78
2, 11796, Note_on_c, 0, 57, 0
2, 12020, Note_on_c, 0, 60, 73
2, 12063, Note_on_c, 0, 60, 0
2, 12084, Note_on_c, 0, 64, 0
2, 12261, Note_on_c, 0, 57, 65
2, 12310, Note_on_c, 0, 57, 0
2, 12331, Note_on_c, 0, 72, 0
2, 12348, Note_on_c, 0, 71, 67
2, 12447, Note_on_c, 0, 71, 0
2, 12463, Note_on_c, 0, 72, 80
2, 12474, Note_on_c, 0, 54, 63
2, 12519, Note_on_c, 0, 54, 0
2, 12549, Note_on_c, 0, 72, 0
2, 12572, Note_on_c, 0, 71, 81
2, 12680, Note_on_c, 0, 71, 0
2, 12682, Note_on_c, 0, 72, 82
2, 12688, Note_on_c, 0, 51, 64
2, 12747, Note_on_c, 0, 51, 0
2, 12749, Note_on_c, 0, 72, 0
2, 12794, Note_on_c, 0, 71, 81
2, 12851, Note_on_c, 0, 71, 0
2, 12908, Note_on_c, 0, 54, 75
2, 12908, Note_on_c, 0, 72, 80
2, 12958, Note_on_c, 0, 54, 0
2, 13029, Note_on_c, 0, 79, 76
2, 13050, Note_on_c, 0, 72, 0
2, 13122, Note_on_c, 0, 57, 79
2, 13133, Note_on_c, 0, 78, 77
2, 13150, Note_on_c, 0, 79, 0
2, 13163, Note_on_c, 0, 57, 0
2, 13231, Note_on_c, 0, 76, 78
2, 13234, Note_on_c, 0, 78, 0
2, 13332, Note_on_c, 0, 75, 79
2, 13338, Note_on_c, 0, 60, 80
2, 13338, Note_on_c, 0, 76, 0
2, 13380, Note_on_c, 0, 75, 0
2, 13408, Note_on_c, 0, 60, 0
2, 13452, Note_on_c, 0, 76, 67
2, 13509, Note_on_c, 0, 76, 0
2, 13550, Note_on_c, 0, 57, 84
2, 13568, Note_on_c, 0, 66, 61
2, 13572, Note_on_c, 0, 75, 78
2, 13630, Note_on_c, 0, 57, 0
2, 13674, Note_on_c, 0, 59, 87
2, 13686, Note_on_c, 0, 66, 0
2, 13747, Note_on_c, 0, 59, 0
2, 13786, Note_on_c, 0, 60, 83
2, 13826, Note_on_c, 0, 60, 0
2, 14038, Note_on_c, 0, 63, 78
2, 14090, Note_on_c, 0, 63, 0
2, 14254, Note_on_c, 0, 60, 76
2, 14314, Note_on_c, 0, 60, 0
2, 14324, Note_on_c, 0, 75, 0
2, 14353, Note_on_c, 0, 76, 71
2, 14448, Note_on_c, 0, 76, 0
2, 14466, Note_on_c, 0, 57, 67
2, 14477, Note_on_c, 0, 78, 74
2, 14517, Note_on_c, 0, 57, 0
2, 14555, Note_on_c, 0, 78, 0
2, 14583, Note_on_c, 0, 76, 77
2, 14680, Note_on_c, 0, 76, 0
2, 14689, Note_on_c, 0, 54, 70
2, 14694, Note_on_c, 0, 78, 77
2, 14760, Note_on_c, 0, 54, 0
2, 14778, Note_on_c, 0, 78, 0
2, 14805, Note_on_c, 0, 76, 78
2, 14904, Note_on_c, 0, 76, 0
2, 14910, Note_on_c, 0, 57, 71
2, 14910, Note_on_c, 0, 78, 82
2, 14970, Note_on_c, 0, 57, 0
2, 14971, Note_on_c, 0, 78, 0
2, 15025, Note_on_c, 0, 76, 77
2, 15115, Note_on_c, 0, 76, 0
2, 15123, Note_on_c, 0, 60, 68
2, 15135, Note_on_c, 0, 75, 76
2, 15189, Note_on_c, 0, 60, 0
2, 15250, Note_on_c, 0, 78, 74
2, 15293, Note_on_c, 0, 75, 0
2, 15350, Note_on_c, 0, 63, 76
2, 15357, Note_on_c, 0, 71, 76
2, 15362, Note_on_c, 0, 78, 0
2, 15441, Note_on_c, 0, 63, 0
2, 15460, Note_on_c, 0, 69, 82
2, 15477, Note_on_c, 0, 71, 0
2, 15549, Note_on_c, 0, 69, 0
2, 15584, Note_on_c, 0, 67, 76
2, 15595, Note_on_c, 0, 64, 75
2, 15752, Note_on_c, 0, 64, 0
2, 15839, Note_on_c, 0, 52, 60
2, 15953, Note_on_c, 0, 52, 0
2, 15956, Note_on_c, 0, 54, 71
2, 16030, Note_on_c, 0, 67, 0
2, 16042, Note_on_c, 0, 54, 0
2, 16055, Note_on_c, 0, 55, 68
2, 16150, Note_on_c, 0, 55, 0
2, 16150, Note_on_c, 0, 57, 73
2, 16215, Note_on_c, 0, 57, 0
2, 16279, Note_on_c, 0, 59, 66
2, 16449, Note_on_c, 0, 59, 0
2, 16529, Note_on_c, 0, 64, 69
2, 16563, Note_on_c, 0, 64, 0
2, 16760, Note_on_c, 0, 67, 69
2, 16794, Note_on_c, 0, 67, 0
2, 16996, Note_on_c, 0, 71, 75
2, 17032, Note_on_c, 0, 71, 0
2, 17229, Note_on_c, 0, 76, 73
2, 17289, Note_on_c, 0, 76, 0
2, 17465, Note_on_c, 0, 70, 72
2, 17505, Note_on_c, 0, 70, 0
2, 17694, Note_on_c, 0, 76, 32
2, 17702, Note_on_c, 0, 71, 50
2, 17710, Note_on_c, 0, 79, 66
2, 17713, Note_on_c, 0, 64, 55
2, 17769, Note_on_c, 0, 71, 0
2, 17770, Note_on_c, 0, 64, 0
2, 17816, Note_on_c, 0, 66, 61
2, 17873, Note_on_c, 0, 66, 0
2, 17922, Note_on_c, 0, 67, 58
2, 17963, Note_on_c, 0, 67, 0
2, 18178, Note_on_c, 0, 71, 53
2, 18233, Note_on_c, 0, 71, 0
2, 18257, Note_on_c, 0, 76, 0
2, 18403, Note_on_c, 0, 67, 57
2, 18453, Note_on_c, 0, 67, 0
2, 18492, Note_on_c, 0, 79, 0
2, 18523, Note_on_c, 0, 78, 58
2, 18615, Note_on_c, 0, 78, 0
2, 18629, Note_on_c, 0, 79, 68
2, 18655, Note_on_c, 0, 64, 40
2, 18690, Note_on_c, 0, 64, 0
2, 18706, Note_on_c, 0, 79, 0
2, 18737, Note_on_c, 0, 78, 67
2, 18842, Note_on_c, 0, 78, 0
2, 18849, Note_on_c, 0, 79, 71
2, 18865, Note_on_c, 0, 59, 62
2, 18923, Note_on_c, 0, 59, 0
2, 18940, Note_on_c, 0, 79, 0
2, 18960, Note_on_c, 0, 78, 71
2, 19074, Note_on_c, 0, 78, 0
2, 19076, Note_on_c, 0, 79, 81
2, 19087, Note_on_c, 0, 61, 66
2, 19141, Note_on_c, 0, 61, 0
2, 19167, Note_on_c, 0, 79, 0
2, 19193, Note_on_c, 0, 77, 71
2, 19261, Note_on_c, 0, 77, 0
2, 19301, Note_on_c, 0, 76, 75
2, 19307, Note_on_c, 0, 64, 64
2, 19351, Note_on_c, 0, 64, 0
2, 19365, Note_on_c, 0, 76, 0
2, 19399, Note_on_c, 0, 74, 76
2, 19463, Note_on_c, 0, 74, 0
2, 19513, Note_on_c, 0, 69, 75
2, 19514, Note_on_c, 0, 73, 77
2, 19561, Note_on_c, 0, 73, 0
2, 19572, Note_on_c, 0, 69, 0
2, 19624, Note_on_c, 0, 71, 65
2, 19632, Note_on_c, 0, 72, 48
2, 19661, Note_on_c, 0, 72, 0
2, 19713, Note_on_c, 0, 71, 0
2, 19736, Note_on_c, 0, 62, 71
2, 19750, Note_on_c, 0, 69, 61
2, 19751, Note_on_c, 0, 77, 72
2, 19785, Note_on_c, 0, 62, 0
2, 19809, Note_on_c, 0, 69, 0
2, 19850, Note_on_c, 0, 64, 73
2, 19899, Note_on_c, 0, 64, 0
2, 19963, Note_on_c, 0, 65, 69
2, 19997, Note_on_c, 0, 65, 0
2, 20209, Note_on_c, 0, 69, 72
2, 20246, Note_on_c, 0, 69, 0
2, 20437, Note_on_c, 0, 65, 67
2, 20454, Note_on_c, 0, 77, 0
2, 20489, Note_on_c, 0, 65, 0
2, 20498, Note_on_c, 0, 76, 58
2, 20607, Note_on_c, 0, 77, 67
2, 20612, Note_on_c, 0, 76, 0
2, 20671, Note_on_c, 0, 62, 61
2, 20693, Note_on_c, 0, 77, 0
2, 20724, Note_on_c, 0, 62, 0
2, 20731, Note_on_c, 0, 76, 56
2, 20857, Note_on_c, 0, 77, 59
2, 20877, Note_on_c, 0, 57, 67
2, 20884, Note_on_c, 0, 76, 0
2, 20931, Note_on_c, 0, 57, 0
2, 20937, Note_on_c, 0, 77, 0
2, 20951, Note_on_c, 0, 76, 64
2, 21064, Note_on_c, 0, 76, 0
2, 21073, Note_on_c, 0, 77, 79
2, 21085, Note_on_c, 0, 59, 72
2, 21134, Note_on_c, 0, 59, 0
2, 21185, Note_on_c, 0, 76, 60
2, 21221, Note_on_c, 0, 77, 0
2, 21273, Note_on_c, 0, 74, 69
2, 21281, Note_on_c, 0, 62, 65
2, 21307, Note_on_c, 0, 76, 0
2, 21322, Note_on_c, 0, 62, 0
2, 21378, Note_on_c, 0, 72, 75
2, 21378, Note_on_c, 0, 74, 0
2, 21451, Note_on_c, 0, 72, 0
2, 21486, Note_on_c, 0, 67, 60
2, 21494, Note_on_c, 0, 71, 70
2, 21527, Note_on_c, 0, 67, 0
2, 21546, Note_on_c, 0, 71, 0
2, 21590, Note_on_c, 0, 69, 70
2, 21652, Note_on_c, 0, 69, 0
2, 21729, Note_on_c, 0, 60, 58
2, 21742, Note_on_c, 0, 72, 39
2, 21742, Note_on_c, 0, 76, 63
2, 21757, Note_on_c, 0, 67, 38
2, 21795, Note_on_c, 0, 60, 0
2, 21850, Note_on_c, 0, 62, 55
2, 21854, Note_on_c, 0, 67, 0
2, 21897, Note_on_c, 0, 62, 0
2, 21953, Note_on_c, 0, 64, 64
2, 21988, Note_on_c, 0, 64, 0
2, 22193, Note_on_c, 0, 72, 0
2, 22201, Note_on_c, 0, 67, 57
2, 22244, Note_on_c, 0, 67, 0
2, 22424, Note_on_c, 0, 64, 66
2, 22476, Note_on_c, 0, 64, 0
2, 22525, Note_on_c, 0, 76, 0
2, 22552, Note_on_c, 0, 74, 55
2, 22634, Note_on_c, 0, 74, 0
2, 22666, Note_on_c, 0, 76, 62
2, 22672, Note_on_c, 0, 60, 51
2, 22717, Note_on_c, 0, 60, 0
2, 22736, Note_on_c, 0, 76, 0
2, 22771, Note_on_c, 0, 74, 61
2, 22862, Note_on_c, 0, 74, 0
2, 22875, Note_on_c, 0, 76, 72
2, 22888, Note_on_c, 0, 55, 60
2, 22939, Note_on_c, 0, 55, 0
2, 22939, Note_on_c, 0, 76, 0
2, 22986, Note_on_c, 0, 74, 68
2, 23043, Note_on_c, 0, 74, 0
2, 23100, Note_on_c, 0, 72, 68
2, 23102, Note_on_c, 0, 57, 62
2, 23153, Note_on_c, 0, 57, 0
2, 23199, Note_on_c, 0, 72, 0
2, 23215, Note_on_c, 0, 79, 73
2, 23266, Note_on_c, 0, 79, 0
2, 23325, Note_on_c, 0, 77, 68
2, 23330, Note_on_c, 0, 60, 63
2, 23379, Note_on_c, 0, 60, 0
2, 23417, Note_on_c, 0, 77, 0
2, 23432, Note_on_c, 0, 76, 74
2, 23541, Note_on_c, 0, 74, 72
2, 23550, Note_on_c, 0, 76, 0
2, 23553, Note_on_c, 0, 65, 50
2, 23600, Note_on_c, 0, 65, 0
2, 23613, Note_on_c, 0, 74, 0
2, 23652, Note_on_c, 0, 72, 75
2, 23764, Note_on_c, 0, 71, 73
2, 23778, Note_on_c, 0, 55, 52
2, 23792, Note_on_c, 0, 72, 0
2, 23848, Note_on_c, 0, 55, 0
2, 23871, Note_on_c, 0, 71, 0
2, 23878, Note_on_c, 0, 76, 73
2, 23986, Note_on_c, 0, 74, 72
2, 24002, Note_on_c, 0, 59, 59
2, 24012, Note_on_c, 0, 76, 0
2, 24045, Note_on_c, 0, 59, 0
2, 24098, Note_on_c, 0, 72, 75
2, 24133, Note_on_c, 0, 74, 0
2, 24208, Note_on_c, 0, 71, 76
2, 24213, Note_on_c, 0, 72, 0
2, 24214, Note_on_c, 0, 62, 66
2, 24271, Note_on_c, 0, 71, 0
2, 24274, Note_on_c, 0, 62, 0
2, 24322, Note_on_c, 0, 69, 73
2, 24422, Note_on_c, 0, 67, 72
2, 24431, Note_on_c, 0, 65, 60
2, 24450, Note_on_c, 0, 69, 0
2, 24487, Note_on_c, 0, 65, 0
2, 24519, Note_on_c, 0, 67, 0
2, 24534, Note_on_c, 0, 72, 78
2, 24637, Note_on_c, 0, 72, 0
2, 24645, Note_on_c, 0, 71, 75
2, 24654, Note_on_c, 0, 62, 64
2, 24695, Note_on_c, 0, 62, 0
2, 24759, Note_on_c, 0, 69, 75
2, 24803, Note_on_c, 0, 71, 0
2, 24872, Note_on_c, 0, 59, 72
2, 24872, Note_on_c, 0, 67, 73
2, 24880, Note_on_c, 0, 69, 0
2, 24913, Note_on_c, 0, 59, 0
2, 24936, Note_on_c, 0, 67, 0
2, 24985, Note_on_c, 0, 65, 72
2, 25088, Note_on_c, 0, 64, 80
2, 25091, Note_on_c, 0, 55, 71
2, 25111, Note_on_c, 0, 65, 0
2, 25134, Note_on_c, 0, 55, 0
2, 25203, Note_on_c, 0, 69, 80
2, 25211, Note_on_c, 0, 64, 0
2, 25308, Note_on_c, 0, 59, 78
2, 25318, Note_on_c, 0, 67, 74
2, 25345, Note_on_c, 0, 69, 0
2, 25351, Note_on_c, 0, 59, 0
2, 25426, Note_on_c, 0, 65, 74
2, 25464, Note_on_c, 0, 67, 0
2, 25530, Note_on_c, 0, 55, 75
2, 25537, Note_on_c, 0, 64, 82
2, 25546, Note_on_c, 0, 65, 0
2, 25565, Note_on_c, 0, 55, 0
2, 25608, Note_on_c, 0, 64, 0
2, 25648, Note_on_c, 0, 62, 82
2, 25719, Note_on_c, 0, 62, 0
2, 25748, Note_on_c, 0, 60, 74
2, 25762, Note_on_c, 0, 64, 88
2, 25827, Note_on_c, 0, 64, 0
2, 25873, Note_on_c, 0, 65, 84
2, 25953, Note_on_c, 0, 65, 0
2, 25984, Note_on_c, 0, 67, 82
2, 26013, Note_on_c, 0, 67, 0
2, 26237, Note_on_c, 0, 72, 84
2, 26281, Note_on_c, 0, 72, 0
2, 26476, Note_on_c, 0, 67, 79
2, 26528, Note_on_c, 0, 67, 0
2, 26539, Note_on_c, 0, 60, 0
2, 26588, Note_on_c, 0, 57, 68
2, 26662, Note_on_c, 0, 57, 0
2, 26698, Note_on_c, 0, 64, 82
2, 26708, Note_on_c, 0, 55, 70
2, 26742, Note_on_c, 0, 64, 0
2, 26775, Note_on_c, 0, 55, 0
2, 26807, Note_on_c, 0, 53, 73
2, 26861, Note_on_c, 0, 53, 0
2, 26914, Note_on_c, 0, 52, 77
2, 26928, Note_on_c, 0, 60, 78
2, 26997, Note_on_c, 0, 52, 0
2, 27003, Note_on_c, 0, 60, 0
2, 27031, Note_on_c, 0, 50, 74
2, 27134, Note_on_c, 0, 50, 0
2, 27156, Note_on_c, 0, 48, 63
2, 27160, Note_on_c, 0, 64, 82
2, 27229, Note_on_c, 0, 64, 0
2, 27275, Note_on_c, 0, 50, 67
2, 27383, Note_on_c, 0, 67, 85
2, 27387, Note_on_c, 0, 52, 68
2, 27419, Note_on_c, 0, 50, 0
2, 27449, Note_on_c, 0, 67, 0
2, 27498, Note_on_c, 0, 53, 63
2, 27515, Note_on_c, 0, 52, 0
2, 27569, Note_on_c, 0, 53, 0
2, 27595, Note_on_c, 0, 55, 70
2, 27601, Note_on_c, 0, 72, 90
2, 27666, Note_on_c, 0, 72, 0
2, 27714, Note_on_c, 0, 52, 67
2, 27715, Note_on_c, 0, 55, 0
2, 27843, Note_on_c, 0, 65, 86
2, 27852, Note_on_c, 0, 57, 65
2, 27929, Note_on_c, 0, 52, 0
2, 27942, Note_on_c, 0, 67, 87
2, 27957, Note_on_c, 0, 65, 0
2, 28017, Note_on_c, 0, 67, 0
2, 28058, Note_on_c, 0, 69, 97
2, 28092, Note_on_c, 0, 69, 0
2, 28309, Note_on_c, 0, 72, 88
2, 28380, Note_on_c, 0, 72, 0
2, 28447, Note_on_c, 0, 48, 0
2, 28532, Note_on_c, 0, 69, 85
2, 28582, Note_on_c, 0, 69, 0
2, 28639, Note_on_c, 0, 57, 0
2, 28652, Note_on_c, 0, 48, 66
2, 28758, Note_on_c, 0, 50, 69
2, 28761, Note_on_c, 0, 65, 75
2, 28812, Note_on_c, 0, 65, 0
2, 28873, Note_on_c, 0, 52, 70
2, 28884, Note_on_c, 0, 50, 0
2, 28972, Note_on_c, 0, 53, 77
2, 28977, Note_on_c, 0, 60, 77
2, 28982, Note_on_c, 0, 52, 0
2, 29040, Note_on_c, 0, 53, 0
2, 29046, Note_on_c, 0, 60, 0
2, 29087, Note_on_c, 0, 55, 75
2, 29199, Note_on_c, 0, 65, 84
2, 29200, Note_on_c, 0, 55, 0
2, 29204, Note_on_c, 0, 57, 69
2, 29256, Note_on_c, 0, 57, 0
2, 29257, Note_on_c, 0, 65, 0
2, 29330, Note_on_c, 0, 55, 67
2, 29384, Note_on_c, 0, 55, 0
2, 29431, Note_on_c, 0, 53, 69
2, 29432, Note_on_c, 0, 69, 83
2, 29450, Note_on_c, 0, 48, 0
2, 29489, Note_on_c, 0, 53, 0
2, 29512, Note_on_c, 0, 69, 0
2, 29537, Note_on_c, 0, 52, 75
2, 29652, Note_on_c, 0, 50, 70
2, 29658, Note_on_c, 0, 72, 87
2, 29681, Note_on_c, 0, 52, 0
2, 29709, Note_on_c, 0, 72, 0
2, 29738, Note_on_c, 0, 50, 0
2, 29747, Note_on_c, 0, 48, 67
2, 29877, Note_on_c, 0, 50, 73
2, 29907, Note_on_c, 0, 71, 95
2, 29974, Note_on_c, 0, 71, 0
2, 30012, Note_on_c, 0, 72, 91
2, 30083, Note_on_c, 0, 72, 0
2, 30128, Note_on_c, 0, 74, 95
2, 30176, Note_on_c, 0, 74, 0
2, 30373, Note_on_c, 0, 77, 90
2, 30438, Note_on_c, 0, 77, 0
2, 30570, Note_on_c, 0, 48, 0
2, 30584, Note_on_c, 0, 50, 0
2, 30586, Note_on_c, 0, 47, 67
2, 30603, Note_on_c, 0, 74, 82
2, 30663, Note_on_c, 0, 74, 0
2, 30701, Note_on_c, 0, 52, 73
2, 30778, Note_on_c, 0, 52, 0
2, 30823, Note_on_c, 0, 50, 73
2, 30830, Note_on_c, 0, 71, 84
2, 30853, Note_on_c, 0, 47, 0
2, 30877, Note_on_c, 0, 71, 0
2, 30925, Note_on_c, 0, 50, 0
2, 30935, Note_on_c, 0, 48, 71
2, 31046, Note_on_c, 0, 47, 74
2, 31049, Note_on_c, 0, 48, 0
2, 31066, Note_on_c, 0, 67, 76
2, 31143, Note_on_c, 0, 67, 0
2, 31168, Note_on_c, 0, 47, 0
2, 31174, Note_on_c, 0, 45, 67
2, 31278, Note_on_c, 0, 45, 0
2, 31288, Note_on_c, 0, 43, 71
2, 31288, Note_on_c, 0, 71, 85
2, 31349, Note_on_c, 0, 71, 0
2, 31420, Note_on_c, 0, 45, 73
2, 31422, Note_on_c, 0, 43, 0
2, 31512, Note_on_c, 0, 74, 80
2, 31513, Note_on_c, 0, 45, 0
2, 31540, Note_on_c, 0, 43, 68
2, 31573, Note_on_c, 0, 74, 0
2, 31607, Note_on_c, 0, 43, 0
2, 31655, Note_on_c, 0, 41, 70
2, 31745, Note_on_c, 0, 77, 85
2, 31750, Note_on_c, 0, 41, 0
2, 31763, Note_on_c, 0, 40, 72
2, 31803, Note_on_c, 0, 77, 0
2, 31863, Note_on_c, 0, 38, 76
2, 31866, Note_on_c, 0, 40, 0
2, 31963, Note_on_c, 0, 38, 0
2, 32002, Note_on_c, 0, 36, 49
2, 32014, Note_on_c, 0, 76, 88
2, 32131, Note_on_c, 0, 74, 77
2, 32209, Note_on_c, 0, 36, 0
2, 32240, Note_on_c, 0, 72, 80
2, 32316, Note_on_c, 0, 74, 0
2, 32344, Note_on_c, 0, 71, 82
2, 32353, Note_on_c, 0, 72, 0
2, 32464, Note_on_c, 0, 72, 83
2, 32476, Note_on_c, 0, 71, 0
2, 32575, Note_on_c, 0, 67, 71
2, 32701, Note_on_c, 0, 64, 64
2, 32803, Note_on_c, 0, 64, 0
2, 32814, Note_on_c, 0, 62, 64
2, 32917, Note_on_c, 0, 60, 67
2, 32917, Note_on_c, 0, 62, 0
2, 33033, Note_on_c, 0, 59, 68
2, 33034, Note_on_c, 0, 60, 0
2, 33088, Note_on_c, 0, 59, 0
2, 33143, Note_on_c, 0, 60, 67
2, 33243, Note_on_c, 0, 55, 68
2, 33245, Note_on_c, 0, 60, 0
2, 33339, Note_on_c, 0, 55, 0
2, 33362, Note_on_c, 0, 52, 65
2, 33452, Note_on_c, 0, 52, 0
2, 33473, Note_on_c, 0, 55, 67
2, 33543, Note_on_c, 0, 55, 0
2, 33575, Note_on_c, 0, 53, 66
2, 33638, Note_on_c, 0, 53, 0
2, 33686, Note_on_c, 0, 52, 67
2, 33793, Note_on_c, 0, 50, 70
2, 33795, Note_on_c, 0, 52, 0
2, 33855, Note_on_c, 0, 67, 0
2, 33897, Note_on_c, 0, 50, 0
2, 33913, Note_on_c, 0, 48, 51
2, 34012, Note_on_c, 0, 48, 0
2, 34012, Note_on_c, 0, 48, 4
2, 34043, Note_on_c, 0, 54, 55
2, 34043, Note_on_c, 0, 75, 85
2, 34045, Note_on_c, 0, 48, 0
2, 34083, Note_on_c, 0, 72, 0
2, 34085, Note_on_c, 0, 76, 0
2, 34091, Note_on_c, 0, 54, 0
2, 34159, Note_on_c, 0, 69, 60
2, 34264, Note_on_c, 0, 69, 0
2, 34275, Note_on_c, 0, 70, 62
2, 34281, Note_on_c, 0, 54, 51
2, 34346, Note_on_c, 0, 54, 0
2, 34372, Note_on_c, 0, 70, 0
2, 34389, Note_on_c, 0, 72, 58
2, 34503, Note_on_c, 0, 70, 64
2, 34522, Note_on_c, 0, 54, 53
2, 34579, Note_on_c, 0, 54, 0
2, 34617, Note_on_c, 0, 69, 61
2, 34634, Note_on_c, 0, 70, 0
2, 34650, Note_on_c, 0, 75, 0
2, 34718, Note_on_c, 0, 69, 0
2, 34732, Note_on_c, 0, 54, 60
2, 34732, Note_on_c, 0, 74, 78
2, 34782, Note_on_c, 0, 72, 0
2, 34788, Note_on_c, 0, 54, 0
2, 34856, Note_on_c, 0, 69, 66
2, 34969, Note_on_c, 0, 70, 62
2, 34974, Note_on_c, 0, 54, 56
2, 34974, Note_on_c, 0, 69, 0
2, 35026, Note_on_c, 0, 54, 0
2, 35067, Note_on_c, 0, 70, 0
2, 35078, Note_on_c, 0, 72, 69
2, 35205, Note_on_c, 0, 54, 54
2, 35209, Note_on_c, 0, 70, 74
2, 35248, Note_on_c, 0, 72, 0
2, 35251, Note_on_c, 0, 54, 0
2, 35263, Note_on_c, 0, 74, 0
2, 35290, Note_on_c, 0, 70, 0
2, 35317, Note_on_c, 0, 69, 69
2, 35408, Note_on_c, 0, 69, 0
2, 35441, Note_on_c, 0, 54, 49
2, 35448, Note_on_c, 0, 81, 74
2, 35498, Note_on_c, 0, 54, 0
2, 35535, Note_on_c, 0, 81, 0
2, 35570, Note_on_c, 0, 69, 67
2, 35651, Note_on_c, 0, 69, 0
2, 35689, Note_on_c, 0, 54, 43
2, 35691, Note_on_c, 0, 70, 65
2, 35726, Note_on_c, 0, 54, 0
2, 35758, Note_on_c, 0, 70, 0
2, 35795, Note_on_c, 0, 72, 70
2, 35884, Note_on_c, 0, 72, 0
2, 35896, Note_on_c, 0, 70, 76
2, 35904, Note_on_c, 0, 54, 52
2, 35954, Note_on_c, 0, 70, 0
2, 35957, Note_on_c, 0, 54, 0
2, 36008, Note_on_c, 0, 69, 74
2, 36110, Note_on_c, 0, 69, 0
2, 36134, Note_on_c, 0, 55, 50
2, 36144, Note_on_c, 0, 70, 81
2, 36254, Note_on_c, 0, 69, 72
2, 36355, Note_on_c, 0, 67, 70
2, 36396, Note_on_c, 0, 69, 0
2, 36463, Note_on_c, 0, 66, 75
2, 36469, Note_on_c, 0, 67, 0
2, 36482, Note_on_c, 0, 55, 0
2, 36545, Note_on_c, 0, 66, 0
2, 36584, Note_on_c, 0, 67, 65
2, 36691, Note_on_c, 0, 62, 57
2, 36807, Note_on_c, 0, 58, 60
2, 36873, Note_on_c, 0, 58, 0
2, 36929, Note_on_c, 0, 57, 59
2, 37027, Note_on_c, 0, 57, 0
2, 37045, Note_on_c, 0, 55, 59
2, 37128, Note_on_c, 0, 55, 0
2, 37142, Note_on_c, 0, 54, 67
2, 37197, Note_on_c, 0, 54, 0
2, 37265, Note_on_c, 0, 55, 61
2, 37346, Note_on_c, 0, 55, 0
2, 37390, Note_on_c, 0, 50, 55
2, 37487, Note_on_c, 0, 50, 0
2, 37490, Note_on_c, 0, 46, 61
2, 37544, Note_on_c, 0, 46, 0
2, 37625, Note_on_c, 0, 50, 46
2, 37686, Note_on_c, 0, 50, 0
2, 37724, Note_on_c, 0, 48, 51
2, 37828, Note_on_c, 0, 46, 57
2, 37834, Note_on_c, 0, 48, 0
2, 37887, Note_on_c, 0, 70, 0
2, 37924, Note_on_c, 0, 46, 0
2, 37937, Note_on_c, 0, 45, 57
2, 37955, Note_on_c, 0, 62, 0
2, 38015, Note_on_c, 0, 45, 0
2, 38053, Note_on_c, 0, 43, 52
2, 38168, Note_on_c, 0, 70, 76
2, 38181, Note_on_c, 0, 43, 0
2, 38191, Note_on_c, 0, 49, 56
2, 38198, Note_on_c, 0, 67, 0
2, 38242, Note_on_c, 0, 49, 0
2, 38278, Note_on_c, 0, 64, 56
2, 38373, Note_on_c, 0, 64, 0
2, 38397, Note_on_c, 0, 65, 49
2, 38408, Note_on_c, 0, 49, 49
2, 38475, Note_on_c, 0, 49, 0
2, 38493, Note_on_c, 0, 65, 0
2, 38522, Note_on_c, 0, 67, 50
2, 38625, Note_on_c, 0, 49, 59
2, 38633, Note_on_c, 0, 65, 60
2, 38679, Note_on_c, 0, 49, 0
2, 38746, Note_on_c, 0, 64, 57
2, 38749, Note_on_c, 0, 70, 0
2, 38806, Note_on_c, 0, 64, 0
2, 38849, Note_on_c, 0, 69, 75
2, 38864, Note_on_c, 0, 49, 51
2, 38893, Note_on_c, 0, 67, 0
2, 38902, Note_on_c, 0, 65, 0
2, 38911, Note_on_c, 0, 49, 0
2, 38966, Note_on_c, 0, 64, 51
2, 39025, Note_on_c, 0, 64, 0
2, 39071, Note_on_c, 0, 65, 47
2, 39092, Note_on_c, 0, 49, 47
2, 39141, Note_on_c, 0, 49, 0
2, 39147, Note_on_c, 0, 65, 0
2, 39190, Note_on_c, 0, 67, 57
2, 39294, Note_on_c, 0, 65, 61
2, 39308, Note_on_c, 0, 49, 50
2, 39343, Note_on_c, 0, 67, 0
2, 39363, Note_on_c, 0, 49, 0
2, 39384, Note_on_c, 0, 65, 0
2, 39385, Note_on_c, 0, 69, 0
2, 39416, Note_on_c, 0, 64, 59
2, 39488, Note_on_c, 0, 64, 0
2, 39533, Note_on_c, 0, 76, 65
2, 39539, Note_on_c, 0, 49, 51
2, 39598, Note_on_c, 0, 49, 0
2, 39625, Note_on_c, 0, 76, 0
2, 39646, Note_on_c, 0, 64, 60
2, 39708, Note_on_c, 0, 64, 0
2, 39766, Note_on_c, 0, 65, 59
2, 39787, Note_on_c, 0, 49, 48
2, 39822, Note_on_c, 0, 65, 0
2, 39827, Note_on_c, 0, 49, 0
2, 39881, Note_on_c, 0, 67, 58
2, 39930, Note_on_c, 0, 67, 0
2, 39985, Note_on_c, 0, 65, 56
2, 39987, Note_on_c, 0, 49, 53
2, 40034, Note_on_c, 0, 49, 0
2, 40052, Note_on_c, 0, 65, 0
2, 40101, Note_on_c, 0, 64, 57
2, 40184, Note_on_c, 0, 64, 0
2, 40215, Note_on_c, 0, 50, 69
2, 40220, Note_on_c, 0, 65, 51
2, 40269, Note_on_c, 0, 50, 0
2, 40330, Note_on_c, 0, 52, 60
2, 40395, Note_on_c, 0, 52, 0
2, 40424, Note_on_c, 0, 53, 63
2, 40460, Note_on_c, 0, 53, 0
2, 40678, Note_on_c, 0, 57, 62
2, 40714, Note_on_c, 0, 57, 0
2, 40915, Note_on_c, 0, 53, 57
2, 40965, Note_on_c, 0, 53, 0
2, 40971, Note_on_c, 0, 65, 0
2, 40995, Note_on_c, 0, 64, 55
2, 41107, Note_on_c, 0, 64, 0
2, 41124, Note_on_c, 0, 65, 59
2, 41138, Note_on_c, 0, 50, 55
2, 41179, Note_on_c, 0, 50, 0
2, 41188, Note_on_c, 0, 65, 0
2, 41230, Note_on_c, 0, 69, 63
2, 41327, Note_on_c, 0, 69, 0
2, 41336, Note_on_c, 0, 45, 62
2, 41339, Note_on_c, 0, 74, 63
2, 41391, Note_on_c, 0, 45, 0
2, 41400, Note_on_c, 0, 74, 0
2, 41454, Note_on_c, 0, 69, 74
2, 41546, Note_on_c, 0, 69, 0
2, 41570, Note_on_c, 0, 50, 63
2, 41578, Note_on_c, 0, 77, 72
2, 41619, Note_on_c, 0, 50, 0
2, 41674, Note_on_c, 0, 77, 0
2, 41693, Note_on_c, 0, 76, 66
2, 41770, Note_on_c, 0, 76, 0
2, 41798, Note_on_c, 0, 53, 57
2, 41799, Note_on_c, 0, 74, 71
2, 41846, Note_on_c, 0, 53, 0
2, 41899, Note_on_c, 0, 74, 0
2, 41905, Note_on_c, 0, 72, 75
2, 41974, Note_on_c, 0, 72, 0
2, 42011, Note_on_c, 0, 57, 58
2, 42022, Note_on_c, 0, 71, 72
2, 42077, Note_on_c, 0, 57, 0
2, 42123, Note_on_c, 0, 69, 75
2, 42130, Note_on_c, 0, 71, 0
2, 42157, Note_on_c, 0, 69, 0
2, 42238, Note_on_c, 0, 50, 66
2, 42267, Note_on_c, 0, 80, 77
2, 42344, Note_on_c, 0, 50, 0
2, 42360, Note_on_c, 0, 52, 68
2, 42411, Note_on_c, 0, 52, 0
2, 42458, Note_on_c, 0, 53, 74
2, 42499, Note_on_c, 0, 53, 0
2, 42721, Note_on_c, 0, 56, 68
2, 42776, Note_on_c, 0, 56, 0
2, 42944, Note_on_c, 0, 53, 62
2, 43006, Note_on_c, 0, 53, 0
2, 43040, Note_on_c, 0, 80, 0
2, 43063, Note_on_c, 0, 81, 64
2, 43167, Note_on_c, 0, 50, 59
2, 43173, Note_on_c, 0, 83, 75
2, 43178, Note_on_c, 0, 81, 0
2, 43216, Note_on_c, 0, 50, 0
2, 43302, Note_on_c, 0, 81, 69
2, 43319, Note_on_c, 0, 83, 0
2, 43386, Note_on_c, 0, 47, 63
2, 43403, Note_on_c, 0, 80, 74
2, 43450, Note_on_c, 0, 47, 0
2, 43463, Note_on_c, 0, 81, 0
2, 43512, Note_on_c, 0, 78, 74
2, 43559, Note_on_c, 0, 80, 0
2, 43595, Note_on_c, 0, 78, 0
2, 43622, Note_on_c, 0, 76, 79
2, 43624, Note_on_c, 0, 50, 65
2, 43677, Note_on_c, 0, 50, 0
2, 43731, Note_on_c, 0, 77, 75
2, 43747, Note_on_c, 0, 76, 0
2, 43838, Note_on_c, 0, 53, 63
2, 43850, Note_on_c, 0, 76, 78
2, 43903, Note_on_c, 0, 77, 0
2, 43916, Note_on_c, 0, 53, 0
2, 43950, Note_on_c, 0, 74, 78
2, 43962, Note_on_c, 0, 76, 0
2, 44023, Note_on_c, 0, 74, 0
2, 44046, Note_on_c, 0, 56, 66
2, 44054, Note_on_c, 0, 72, 88
2, 44116, Note_on_c, 0, 56, 0
2, 44118, Note_on_c, 0, 72, 0
2, 44163, Note_on_c, 0, 71, 83
2, 44253, Note_on_c, 0, 71, 0
2, 44276, Note_on_c, 0, 48, 63
2, 44287, Note_on_c, 0, 69, 90
2, 44390, Note_on_c, 0, 71, 83
2, 44403, Note_on_c, 0, 69, 0
2, 44464, Note_on_c, 0, 71, 0
2, 44509, Note_on_c, 0, 72, 88
2, 44552, Note_on_c, 0, 72, 0
2, 44758, Note_on_c, 0, 76, 77
2, 44816, Note_on_c, 0, 76, 0
2, 44975, Note_on_c, 0, 57, 53
2, 44983, Note_on_c, 0, 72, 75
2, 45030, Note_on_c, 0, 72, 0
2, 45053, Note_on_c, 0, 57, 0
2, 45092, Note_on_c, 0, 56, 64
2, 45148, Note_on_c, 0, 56, 0
2, 45207, Note_on_c, 0, 57, 65
2, 45208, Note_on_c, 0, 69, 76
2, 45255, Note_on_c, 0, 69, 0
2, 45265, Note_on_c, 0, 57, 0
2, 45309, Note_on_c, 0, 56, 72
2, 45354, Note_on_c, 0, 56, 0
2, 45412, Note_on_c, 0, 57, 72
2, 45438, Note_on_c, 0, 64, 75
2, 45482, Note_on_c, 0, 57, 0
2, 45517, Note_on_c, 0, 56, 78
2, 45545, Note_on_c, 0, 64, 0
2, 45594, Note_on_c, 0, 56, 0
2, 45646, Note_on_c, 0, 57, 75
2, 45658, Note_on_c, 0, 76, 80
2, 45682, Note_on_c, 0, 57, 0
2, 45688, Note_on_c, 0, 48, 0
2, 45780, Note_on_c, 0, 74, 78
2, 45801, Note_on_c, 0, 76, 0
2, 45887, Note_on_c, 0, 72, 82
2, 45894, Note_on_c, 0, 52, 56
2, 45929, Note_on_c, 0, 74, 0
2, 45935, Note_on_c, 0, 52, 0
2, 45992, Note_on_c, 0, 71, 81
2, 46016, Note_on_c, 0, 72, 0
2, 46060, Note_on_c, 0, 71, 0
2, 46103, Note_on_c, 0, 69, 87
2, 46137, Note_on_c, 0, 48, 32
2, 46198, Note_on_c, 0, 48, 0
2, 46223, Note_on_c, 0, 68, 82
2, 46225, Note_on_c, 0, 69, 0
2, 46312, Note_on_c, 0, 68, 0
2, 46346, Note_on_c, 0, 69, 93
2, 46363, Note_on_c, 0, 41, 62
2, 46452, Note_on_c, 0, 69, 0
2, 46458, Note_on_c, 0, 71, 83
2, 46542, Note_on_c, 0, 71, 0
2, 46557, Note_on_c, 0, 72, 86
2, 46584, Note_on_c, 0, 72, 0
2, 46798, Note_on_c, 0, 81, 86
2, 46858, Note_on_c, 0, 81, 0
2, 46895, Note_on_c, 0, 41, 0
2, 47030, Note_on_c, 0, 76, 78
2, 47043, Note_on_c, 0, 57, 67
2, 47076, Note_on_c, 0, 76, 0
2, 47087, Note_on_c, 0, 57, 0
2, 47143, Note_on_c, 0, 56, 71
2, 47188, Note_on_c, 0, 56, 0
2, 47256, Note_on_c, 0, 72, 78
2, 47263, Note_on_c, 0, 57, 65
2, 47298, Note_on_c, 0, 72, 0
2, 47315, Note_on_c, 0, 57, 0
2, 47365, Note_on_c, 0, 56, 73
2, 47410, Note_on_c, 0, 56, 0
2, 47472, Note_on_c, 0, 69, 78
2, 47487, Note_on_c, 0, 57, 69
2, 47541, Note_on_c, 0, 57, 0
2, 47570, Note_on_c, 0, 69, 0
2, 47609, Note_on_c, 0, 56, 74
2, 47653, Note_on_c, 0, 56, 0
2, 47699, Note_on_c, 0, 81, 78
2, 47712, Note_on_c, 0, 57, 76
2, 47747, Note_on_c, 0, 57, 0
2, 47830, Note_on_c, 0, 79, 69
2, 47854, Note_on_c, 0, 81, 0
2, 47946, Note_on_c, 0, 77, 68
2, 47957, Note_on_c, 0, 59, 56
2, 47958, Note_on_c, 0, 79, 0
2, 48002, Note_on_c, 0, 59, 0
2, 48050, Note_on_c, 0, 76, 69
2, 48072, Note_on_c, 0, 77, 0
2, 48143, Note_on_c, 0, 76, 0
2, 48165, Note_on_c, 0, 60, 62
2, 48171, Note_on_c, 0, 74, 74
2, 48225, Note_on_c, 0, 60, 0
2, 48271, Note_on_c, 0, 72, 71
2, 48304, Note_on_c, 0, 74, 0
2, 48393, Note_on_c, 0, 77, 72
2, 48395, Note_on_c, 0, 50, 64
2, 48407, Note_on_c, 0, 72, 0
2, 48452, Note_on_c, 0, 50, 0
2, 48500, Note_on_c, 0, 76, 69
2, 48506, Note_on_c, 0, 77, 0
2, 48621, Note_on_c, 0, 74, 71
2, 48622, Note_on_c, 0, 52, 63
2, 48677, Note_on_c, 0, 52, 0
2, 48694, Note_on_c, 0, 76, 0
2, 48734, Note_on_c, 0, 72, 78
2, 48771, Note_on_c, 0, 74, 0
2, 48818, Note_on_c, 0, 72, 0
2, 48835, Note_on_c, 0, 53, 65
2, 48862, Note_on_c, 0, 71, 73
2, 48929, Note_on_c, 0, 53, 0
2, 48965, Note_on_c, 0, 69, 78
2, 48981, Note_on_c, 0, 71, 0
2, 49079, Note_on_c, 0, 47, 66
2, 49091, Note_on_c, 0, 74, 73
2, 49106, Note_on_c, 0, 69, 0
2, 49182, Note_on_c, 0, 47, 0
2, 49207, Note_on_c, 0, 72, 77
2, 49245, Note_on_c, 0, 74, 0
2, 49325, Note_on_c, 0, 48, 70
2, 49325, Note_on_c, 0, 71, 75
2, 49364, Note_on_c, 0, 72, 0
2, 49385, Note_on_c, 0, 48, 0
2, 49397, Note_on_c, 0, 71, 0
2, 49423, Note_on_c, 0, 69, 80
2, 49545, Note_on_c, 0, 68, 76
2, 49546, Note_on_c, 0, 50, 65
2, 49588, Note_on_c, 0, 69, 0
2, 49611, Note_on_c, 0, 50, 0
2, 49647, Note_on_c, 0, 66, 78
2, 49721, Note_on_c, 0, 68, 0
2, 49765, Note_on_c, 0, 71, 80
2, 49772, Note_on_c, 0, 44, 67
2, 49784, Note_on_c, 0, 66, 0
2, 49818, Note_on_c, 0, 44, 0
2, 49884, Note_on_c, 0, 69, 76
2, 49906, Note_on_c, 0, 71, 0
2, 49989, Note_on_c, 0, 45, 76
2, 49992, Note_on_c, 0, 68, 80
2, 50032, Note_on_c, 0, 45, 0
2, 50042, Note_on_c, 0, 69, 0
2, 50101, Note_on_c, 0, 66, 78
2, 50147, Note_on_c, 0, 68, 0
2, 50193, Note_on_c, 0, 66, 0
2, 50202, Note_on_c, 0, 47, 74
2, 50218, Note_on_c, 0, 64, 85
2, 50298, Note_on_c, 0, 47, 0
2, 50315, Note_on_c, 0, 62, 79
2, 50318, Note_on_c, 0, 64, 0
2, 50412, Note_on_c, 0, 62, 0
2, 50429, Note_on_c, 0, 36, 83
2, 50432, Note_on_c, 0, 64, 89
2, 50557, Note_on_c, 0, 69, 81
2, 50568, Note_on_c, 0, 64, 0
2, 50666, Note_on_c, 0, 67, 72
2, 50677, Note_on_c, 0, 69, 0
2, 50771, Note_on_c, 0, 65, 76
2, 50809, Note_on_c, 0, 67, 0
2, 50879, Note_on_c, 0, 64, 79
2, 50897, Note_on_c, 0, 65, 0
2, 50948, Note_on_c, 0, 64, 0
2, 50983, Note_on_c, 0, 62, 81
2, 51086, Note_on_c, 0, 60, 82
2, 51130, Note_on_c, 0, 62, 0
2, 51208, Note_on_c, 0, 65, 69
2, 51245, Note_on_c, 0, 60, 0
2, 51257, Note_on_c, 0, 36, 0
2, 51272, Note_on_c, 0, 48, 84
2, 51312, Note_on_c, 0, 64, 71
2, 51317, Note_on_c, 0, 48, 0
2, 51322, Note_on_c, 0, 65, 0
2, 51424, Note_on_c, 0, 62, 68
2, 51485, Note_on_c, 0, 64, 0
2, 51506, Note_on_c, 0, 50, 81
2, 51528, Note_on_c, 0, 60, 77
2, 51543, Note_on_c, 0, 50, 0
2, 51552, Note_on_c, 0, 62, 0
2, 51609, Note_on_c, 0, 60, 0
2, 51644, Note_on_c, 0, 59, 72
2, 51736, Note_on_c, 0, 52, 85
2, 51747, Note_on_c, 0, 57, 73
2, 51776, Note_on_c, 0, 52, 0
2, 51781, Note_on_c, 0, 59, 0
2, 51845, Note_on_c, 0, 57, 0
2, 51851, Note_on_c, 0, 62, 64
2, 51931, Note_on_c, 0, 62, 0
2, 51965, Note_on_c, 0, 50, 77
2, 51969, Note_on_c, 0, 60, 65
2, 52011, Note_on_c, 0, 50, 0
2, 52052, Note_on_c, 0, 60, 0
2, 52083, Note_on_c, 0, 59, 66
2, 52146, Note_on_c, 0, 59, 0
2, 52199, Note_on_c, 0, 57, 70
2, 52200, Note_on_c, 0, 52, 75
2, 52255, Note_on_c, 0, 52, 0
2, 52274, Note_on_c, 0, 57, 0
2, 52307, Note_on_c, 0, 56, 72
2, 52391, Note_on_c, 0, 56, 0
2, 52436, Note_on_c, 0, 57, 71
2, 52437, Note_on_c, 0, 45, 79
2, 52510, Note_on_c, 0, 57, 0
2, 52543, Note_on_c, 0, 59, 74
2, 52616, Note_on_c, 0, 59, 0
2, 52660, Note_on_c, 0, 61, 75
2, 52729, Note_on_c, 0, 61, 0
2, 52765, Note_on_c, 0, 62, 74
2, 52856, Note_on_c, 0, 62, 0
2, 52871, Note_on_c, 0, 64, 77
2, 52946, Note_on_c, 0, 64, 0
2, 52970, Note_on_c, 0, 65, 78
2, 53040, Note_on_c, 0, 65, 0
2, 53088, Note_on_c, 0, 67, 85
2, 53156, Note_on_c, 0, 67, 0
2, 53190, Note_on_c, 0, 47, 71
2, 53303, Note_on_c, 0, 49, 78
2, 53313, Note_on_c, 0, 64, 84
2, 53322, Note_on_c, 0, 47, 0
2, 53405, Note_on_c, 0, 64, 0
2, 53415, Note_on_c, 0, 50, 76
2, 53442, Note_on_c, 0, 49, 0
2, 53490, Note_on_c, 0, 50, 0
2, 53526, Note_on_c, 0, 61, 83
2, 53528, Note_on_c, 0, 52, 73
2, 53636, Note_on_c, 0, 53, 78
2, 53639, Note_on_c, 0, 52, 0
2, 53641, Note_on_c, 0, 61, 0
2, 53694, Note_on_c, 0, 53, 0
2, 53745, Note_on_c, 0, 70, 91
2, 53769, Note_on_c, 0, 55, 66
2, 53873, Note_on_c, 0, 70, 0
2, 53877, Note_on_c, 0, 61, 60
2, 53921, Note_on_c, 0, 55, 0
2, 53978, Note_on_c, 0, 69, 85
2, 53981, Note_on_c, 0, 61, 0
2, 53987, Note_on_c, 0, 53, 68
2, 54102, Note_on_c, 0, 61, 70
2, 54104, Note_on_c, 0, 53, 0
2, 54116, Note_on_c, 0, 69, 0
2, 54184, Note_on_c, 0, 52, 70
2, 54197, Note_on_c, 0, 61, 0
2, 54207, Note_on_c, 0, 67, 74
2, 54312, Note_on_c, 0, 61, 81
2, 54340, Note_on_c, 0, 67, 0
2, 54380, Note_on_c, 0, 61, 0
2, 54430, Note_on_c, 0, 50, 75
2, 54447, Note_on_c, 0, 65, 73
2, 54463, Note_on_c, 0, 52, 0
2, 54503, Note_on_c, 0, 65, 0
2, 54565, Note_on_c, 0, 69, 71
2, 54664, Note_on_c, 0, 71, 76
2, 54667, Note_on_c, 0, 69, 0
2, 54738, Note_on_c, 0, 71, 0
2, 54772, Note_on_c, 0, 73, 82
2, 54849, Note_on_c, 0, 73, 0
2, 54889, Note_on_c, 0, 74, 88
2, 54966, Note_on_c, 0, 74, 0
2, 54990, Note_on_c, 0, 76, 85
2, 55102, Note_on_c, 0, 76, 0
2, 55113, Note_on_c, 0, 77, 95
2, 55134, Note_on_c, 0, 50, 0
2, 55140, Note_on_c, 0, 45, 0
2, 55185, Note_on_c, 0, 57, 66
2, 55198, Note_on_c, 0, 77, 0
2, 55252, Note_on_c, 0, 57, 0
2, 55302, Note_on_c, 0, 59, 68
2, 55322, Note_on_c, 0, 57, 45
2, 55339, Note_on_c, 0, 74, 85
2, 55436, Note_on_c, 0, 61, 67
2, 55486, Note_on_c, 0, 74, 0
2, 55563, Note_on_c, 0, 62, 71
2, 55580, Note_on_c, 0, 71, 86
2, 55587, Note_on_c, 0, 59, 0
2, 55613, Note_on_c, 0, 61, 0
2, 55704, Note_on_c, 0, 62, 0
2, 55725, Note_on_c, 0, 64, 67
2, 55833, Note_on_c, 0, 81, 93
2, 55861, Note_on_c, 0, 65, 69
2, 55863, Note_on_c, 0, 64, 0
2, 55964, Note_on_c, 0, 80, 84
2, 55984, Note_on_c, 0, 81, 0
2, 56091, Note_on_c, 0, 65, 0
2, 56111, Note_on_c, 0, 64, 70
2, 56119, Note_on_c, 0, 81, 91
2, 56148, Note_on_c, 0, 80, 0
2, 56268, Note_on_c, 0, 80, 89
2, 56298, Note_on_c, 0, 81, 0
2, 56411, Note_on_c, 0, 62, 66
2, 56437, Note_on_c, 0, 81, 90
2, 56459, Note_on_c, 0, 64, 0
2, 56470, Note_on_c, 0, 80, 0
2, 56511, Note_on_c, 0, 71, 0
2, 56599, Note_on_c, 0, 80, 87
2, 56627, Note_on_c, 0, 81, 0
2, 56850, Note_on_c, 0, 81, 98
2, 56851, Note_on_c, 0, 64, 74
2, 56855, Note_on_c, 0, 76, 68
2, 56861, Note_on_c, 0, 73, 73
2, 56885, Note_on_c, 0, 80, 0
2, 56892, Note_on_c, 0, 62, 0
2, 59081, Note_on_c, 0, 81, 0
2, 59098, Note_on_c, 0, 64, 0
2, 59106, Note_on_c, 0, 76, 0
2, 59121, Note_on_c, 0, 57, 0
2, 59121, Note_on_c, 0, 73, 0
2, 60691, Note_on_c, 0, 57, 52
2, 60748, Note_on_c, 0, 57, 0
2, 60850, Note_on_c, 0, 56, 57
2, 60897, Note_on_c, 0, 56, 0
2, 61000, Note_on_c, 0, 57, 58
2, 61057, Note_on_c, 0, 57, 0
2, 61315, Note_on_c, 0, 59, 66
2, 61400, Note_on_c, 0, 59, 0
2, 61649, Note_on_c, 0, 60, 60
2, 61886, Note_on_c, 0, 60, 0
2, 61954, Note_on_c, 0, 60, 62
2, 62003, Note_on_c, 0, 60, 0
2, 62102, Note_on_c, 0, 59, 70
2, 62155, Note_on_c, 0, 59, 0
2, 62271, Note_on_c, 0, 60, 68
2, 62318, Note_on_c, 0, 60, 0
2, 62586, Note_on_c, 0, 62, 65
2, 62631, Note_on_c, 0, 62, 0
2, 62918, Note_on_c, 0, 64, 59
2, 63062, Note_on_c, 0, 64, 0
2, 63071, Note_on_c, 0, 62, 63
2, 63115, Note_on_c, 0, 62, 0
2, 63221, Note_on_c, 0, 60, 65
2, 63266, Note_on_c, 0, 60, 0
2, 63356, Note_on_c, 0, 62, 69
2, 63403, Note_on_c, 0, 62, 0
2, 63508, Note_on_c, 0, 64, 73
2, 63556, Note_on_c, 0, 64, 0
2, 63818, Note_on_c, 0, 65, 73
2, 63892, Note_on_c, 0, 65, 0
2, 64149, Note_on_c, 0, 56, 70
2, 64230, Note_on_c, 0, 56, 0
2, 64508, Note_on_c, 0, 52, 49
2, 64565, Note_on_c, 0, 52, 0
2, 65174, Note_on_c, 0, 57, 51
2, 65263, Note_on_c, 0, 57, 0
2, 65510, Note_on_c, 0, 59, 47
2, 65626, Note_on_c, 0, 59, 0
2, 65651, Note_on_c, 0, 60, 57
2, 65699, Note_on_c, 0, 60, 0
2, 65807, Note_on_c, 0, 57, 63
2, 65852, Note_on_c, 0, 57, 0
2, 65960, Note_on_c, 0, 59, 66
2, 66011, Note_on_c, 0, 59, 0
2, 66125, Note_on_c, 0, 60, 70
2, 66245, Note_on_c, 0, 60, 0
2, 66279, Note_on_c, 0, 62, 65
2, 66328, Note_on_c, 0, 62, 0
2, 66436, Note_on_c, 0, 59, 70
2, 66480, Note_on_c, 0, 59, 0
2, 66582, Note_on_c, 0, 60, 68
2, 66639, Note_on_c, 0, 60, 0
2, 66751, Note_on_c, 0, 62, 57
2, 66805, Note_on_c, 0, 62, 0
2, 67077, Note_on_c, 0, 60, 58
2, 67141, Note_on_c, 0, 60, 0
2, 67394, Note_on_c, 0, 59, 50
2, 67453, Note_on_c, 0, 59, 0
2, 67734, Note_on_c, 0, 64, 50
2, 67819, Note_on_c, 0, 64, 0
2, 68072, Note_on_c, 0, 57, 34
2, 68411, Note_on_c, 0, 64, 58
2, 68457, Note_on_c, 0, 64, 0
2, 68549, Note_on_c, 0, 63, 62
2, 68606, Note_on_c, 0, 63, 0
2, 68698, Note_on_c, 0, 55, 48
2, 68706, Note_on_c, 0, 64, 66
2, 68746, Note_on_c, 0, 57, 0
2, 68758, Note_on_c, 0, 55, 0
2, 68761, Note_on_c, 0, 64, 0
2, 69007, Note_on_c, 0, 66, 67
2, 69014, Note_on_c, 0, 54, 53
2, 69064, Note_on_c, 0, 54, 0
2, 69073, Note_on_c, 0, 66, 0
2, 69322, Note_on_c, 0, 67, 52
2, 69330, Note_on_c, 0, 52, 46
2, 69584, Note_on_c, 0, 67, 0
2, 69644, Note_on_c, 0, 60, 42
2, 69661, Note_on_c, 0, 67, 60
2, 69712, Note_on_c, 0, 67, 0
2, 69804, Note_on_c, 0, 66, 65
2, 69827, Note_on_c, 0, 52, 0
2, 69858, Note_on_c, 0, 66, 0
2, 69869, Note_on_c, 0, 60, 0
2, 69947, Note_on_c, 0, 59, 53
2, 69971, Note_on_c, 0, 67, 74
2, 70016, Note_on_c, 0, 59, 0
2, 70044, Note_on_c, 0, 67, 0
2, 70274, Note_on_c, 0, 57, 46
2, 70274, Note_on_c, 0, 69, 77
2, 70324, Note_on_c, 0, 57, 0
2, 70342, Note_on_c, 0, 69, 0
2, 70595, Note_on_c, 0, 55, 52
2, 70595, Note_on_c, 0, 71, 68
2, 70688, Note_on_c, 0, 55, 0
2, 70738, Note_on_c, 0, 69, 76
2, 70746, Note_on_c, 0, 54, 58
2, 70764, Note_on_c, 0, 71, 0
2, 70795, Note_on_c, 0, 54, 0
2, 70815, Note_on_c, 0, 69, 0
2, 70893, Note_on_c, 0, 67, 73
2, 70898, Note_on_c, 0, 52, 51
2, 70948, Note_on_c, 0, 52, 0
2, 70954, Note_on_c, 0, 67, 0
2, 71044, Note_on_c, 0, 54, 57
2, 71044, Note_on_c, 0, 69, 79
2, 71086, Note_on_c, 0, 54, 0
2, 71108, Note_on_c, 0, 69, 0
2, 71202, Note_on_c, 0, 71, 79
2, 71219, Note_on_c, 0, 55, 53
2, 71287, Note_on_c, 0, 55, 0
2, 71288, Note_on_c, 0, 71, 0
2, 71538, Note_on_c, 0, 72, 73
2, 71549, Note_on_c, 0, 57, 45
2, 71831, Note_on_c, 0, 57, 0
2, 71845, Note_on_c, 0, 59, 53
2, 71851, Note_on_c, 0, 72, 0
2, 71862, Note_on_c, 0, 63, 67
2, 71914, Note_on_c, 0, 63, 0
2, 71916, Note_on_c, 0, 59, 0
2, 72014, Note_on_c, 0, 57, 42
2, 72058, Note_on_c, 0, 57, 0
2, 72176, Note_on_c, 0, 59, 66
2, 72187, Note_on_c, 0, 55, 46
2, 72240, Note_on_c, 0, 55, 0
2, 72241, Note_on_c, 0, 59, 0
2, 72335, Note_on_c, 0, 57, 55
2, 72395, Note_on_c, 0, 57, 0
2, 72517, Note_on_c, 0, 59, 56
2, 72581, Note_on_c, 0, 59, 0
2, 72822, Note_on_c, 0, 60, 42
2, 72824, Note_on_c, 0, 64, 60
2, 72958, Note_on_c, 0, 64, 0
2, 73162, Note_on_c, 0, 66, 59
2, 73306, Note_on_c, 0, 66, 0
2, 73310, Note_on_c, 0, 67, 56
2, 73372, Note_on_c, 0, 60, 0
2, 73378, Note_on_c, 0, 67, 0
2, 73466, Note_on_c, 0, 59, 51
2, 73471, Note_on_c, 0, 64, 65
2, 73515, Note_on_c, 0, 59, 0
2, 73516, Note_on_c, 0, 64, 0
2, 73611, Note_on_c, 0, 66, 73
2, 73632, Note_on_c, 0, 57, 45
2, 73675, Note_on_c, 0, 66, 0
2, 73703, Note_on_c, 0, 57, 0
2, 73779, Note_on_c, 0, 67, 66
2, 73780, Note_on_c, 0, 59, 57
2, 73921, Note_on_c, 0, 67, 0
2, 73927, Note_on_c, 0, 69, 70
2, 74009, Note_on_c, 0, 69, 0
2, 74085, Note_on_c, 0, 66, 70
2, 74093, Note_on_c, 0, 64, 57
2, 74177, Note_on_c, 0, 66, 0
2, 74234, Note_on_c, 0, 67, 67
2, 74308, Note_on_c, 0, 59, 0
2, 74314, Note_on_c, 0, 67, 0
2, 74408, Note_on_c, 0, 69, 68
2, 74624, Note_on_c, 0, 69, 0
2, 74724, Note_on_c, 0, 64, 0
2, 74731, Note_on_c, 0, 67, 52
2, 74744, Note_on_c, 0, 62, 44
2, 74851, Note_on_c, 0, 62, 0
2, 74877, Note_on_c, 0, 67, 0
2, 74897, Note_on_c, 0, 61, 47
2, 74959, Note_on_c, 0, 61, 0
2, 75049, Note_on_c, 0, 66, 60
2, 75051, Note_on_c, 0, 62, 41
2, 75149, Note_on_c, 0, 66, 0
2, 75380, Note_on_c, 0, 71, 64
2, 75519, Note_on_c, 0, 71, 0
2, 75741, Note_on_c, 0, 64, 56
2, 76029, Note_on_c, 0, 64, 0
2, 76068, Note_on_c, 0, 66, 67
2, 76084, Note_on_c, 0, 62, 0
2, 76107, Note_on_c, 0, 60, 30
2, 76124, Note_on_c, 0, 66, 0
2, 76151, Note_on_c, 0, 60, 0
2, 76216, Note_on_c, 0, 68, 77
2, 76238, Note_on_c, 0, 59, 54
2, 76275, Note_on_c, 0, 68, 0
2, 76306, Note_on_c, 0, 59, 0
2, 76393, Note_on_c, 0, 69, 73
2, 76394, Note_on_c, 0, 60, 50
2, 76540, Note_on_c, 0, 71, 78
2, 76551, Note_on_c, 0, 69, 0
2, 76604, Note_on_c, 0, 71, 0
2, 76694, Note_on_c, 0, 72, 82
2, 76730, Note_on_c, 0, 72, 0
2, 76842, Note_on_c, 0, 74, 74
2, 76880, Note_on_c, 0, 74, 0
2, 77003, Note_on_c, 0, 76, 79
2, 77043, Note_on_c, 0, 76, 0
2, 77166, Note_on_c, 0, 69, 63
2, 77243, Note_on_c, 0, 69, 0
2, 77318, Note_on_c, 0, 69, 78
2, 77328, Note_on_c, 0, 67, 40
2, 77355, Note_on_c, 0, 69, 0
2, 77446, Note_on_c, 0, 67, 0
2, 77483, Note_on_c, 0, 65, 50
2, 77579, Note_on_c, 0, 65, 0
2, 77597, Note_on_c, 0, 69, 66
2, 77637, Note_on_c, 0, 69, 0
2, 77652, Note_on_c, 0, 68, 73
2, 77659, Note_on_c, 0, 64, 50
2, 77700, Note_on_c, 0, 68, 0
2, 77706, Note_on_c, 0, 69, 77
2, 77754, Note_on_c, 0, 69, 0
2, 77756, Note_on_c, 0, 60, 0
2, 77759, Note_on_c, 0, 64, 0
2, 77763, Note_on_c, 0, 68, 74
2, 77785, Note_on_c, 0, 62, 51
2, 77927, Note_on_c, 0, 62, 0
2, 77951, Note_on_c, 0, 60, 57
2, 78119, Note_on_c, 0, 59, 64
2, 78146, Note_on_c, 0, 60, 0
2, 78183, Note_on_c, 0, 68, 0
2, 78214, Note_on_c, 0, 59, 0
2, 78268, Note_on_c, 0, 69, 62
2, 78270, Note_on_c, 0, 60, 58
2, 78314, Note_on_c, 0, 60, 0
2, 78365, Note_on_c, 0, 69, 0
2, 78424, Note_on_c, 0, 59, 58
2, 78468, Note_on_c, 0, 59, 0
2, 78592, Note_on_c, 0, 45, 73
2, 78606, Note_on_c, 0, 60, 58
2, 78614, Note_on_c, 0, 69, 63
2, 78738, Note_on_c, 0, 44, 83
2, 78745, Note_on_c, 0, 45, 0
2, 78814, Note_on_c, 0, 44, 0
2, 78900, Note_on_c, 0, 45, 77
2, 78902, Note_on_c, 0, 69, 0
2, 78909, Note_on_c, 0, 67, 68
2, 78929, Note_on_c, 0, 60, 0
2, 78970, Note_on_c, 0, 45, 0
2, 79026, Note_on_c, 0, 67, 0
2, 79223, Note_on_c, 0, 47, 72
2, 79248, Note_on_c, 0, 65, 57
2, 79305, Note_on_c, 0, 47, 0
2, 79480, Note_on_c, 0, 65, 0
2, 79542, Note_on_c, 0, 48, 70
2, 79556, Note_on_c, 0, 64, 56
2, 79687, Note_on_c, 0, 64, 0
2, 79712, Note_on_c, 0, 62, 59
2, 79758, Note_on_c, 0, 48, 0
2, 79802, Note_on_c, 0, 62, 0
2, 79874, Note_on_c, 0, 72, 72
2, 79875, Note_on_c, 0, 48, 76
2, 79877, Note_on_c, 0, 64, 46
2, 79929, Note_on_c, 0, 48, 0
2, 80014, Note_on_c, 0, 72, 0
2, 80017, Note_on_c, 0, 47, 80
2, 80087, Note_on_c, 0, 47, 0
2, 80200, Note_on_c, 0, 48, 74
2, 80208, Note_on_c, 0, 71, 72
2, 80246, Note_on_c, 0, 64, 0
2, 80249, Note_on_c, 0, 48, 0
2, 80351, Note_on_c, 0, 71, 0
2, 80538, Note_on_c, 0, 50, 74
2, 80542, Note_on_c, 0, 69, 72
2, 80617, Note_on_c, 0, 50, 0
2, 80618, Note_on_c, 0, 69, 0
2, 80861, Note_on_c, 0, 52, 71
2, 80881, Note_on_c, 0, 68, 71
2, 80961, Note_on_c, 0, 68, 0
2, 80969, Note_on_c, 0, 52, 0
2, 81019, Note_on_c, 0, 50, 74
2, 81027, Note_on_c, 0, 66, 70
2, 81074, Note_on_c, 0, 50, 0
2, 81108, Note_on_c, 0, 66, 0
2, 81184, Note_on_c, 0, 48, 70
2, 81196, Note_on_c, 0, 64, 65
2, 81230, Note_on_c, 0, 76, 36
2, 81233, Note_on_c, 0, 48, 0
2, 81243, Note_on_c, 0, 64, 0
2, 81271, Note_on_c, 0, 76, 0
2, 81340, Note_on_c, 0, 66, 74
2, 81344, Note_on_c, 0, 50, 70
2, 81407, Note_on_c, 0, 50, 0
2, 81445, Note_on_c, 0, 66, 0
2, 81504, Note_on_c, 0, 68, 59
2, 81509, Note_on_c, 0, 52, 75
2, 81512, Note_on_c, 0, 74, 70
2, 81548, Note_on_c, 0, 68, 0
2, 81599, Note_on_c, 0, 52, 0
2, 81634, Note_on_c, 0, 74, 0
2, 81834, Note_on_c, 0, 53, 81
2, 81834, Note_on_c, 0, 72, 62
2, 81854, Note_on_c, 0, 69, 41
2, 82145, Note_on_c, 0, 72, 0
2, 82149, Note_on_c, 0, 44, 76
2, 82166, Note_on_c, 0, 53, 0
2, 82184, Note_on_c, 0, 71, 69
2, 82197, Note_on_c, 0, 44, 0
2, 82206, Note_on_c, 0, 69, 0
2, 82244, Note_on_c, 0, 71, 0
2, 82334, Note_on_c, 0, 72, 68
2, 82418, Note_on_c, 0, 72, 0
2, 82488, Note_on_c, 0, 40, 68
2, 82511, Note_on_c, 0, 74, 61
2, 82564, Note_on_c, 0, 40, 0
2, 82583, Note_on_c, 0, 74, 0
2, 82665, Note_on_c, 0, 71, 60
2, 82747, Note_on_c, 0, 71, 0
2, 82827, Note_on_c, 0, 72, 64
2, 82964, Note_on_c, 0, 71, 63
2, 83024, Note_on_c, 0, 72, 0
2, 83063, Note_on_c, 0, 71, 0
2, 83126, Note_on_c, 0, 45, 70
2, 83139, Note_on_c, 0, 69, 58
2, 83230, Note_on_c, 0, 45, 0
2, 83288, Note_on_c, 0, 72, 69
2, 83290, Note_on_c, 0, 69, 0
2, 83395, Note_on_c, 0, 72, 0
2, 83443, Note_on_c, 0, 47, 77
2, 83467, Note_on_c, 0, 67, 46
2, 83471, Note_on_c, 0, 74, 57
2, 83537, Note_on_c, 0, 47, 0
2, 83559, Note_on_c, 0, 74, 0
2, 83601, Note_on_c, 0, 48, 75
2, 83610, Note_on_c, 0, 76, 67
2, 83666, Note_on_c, 0, 48, 0
2, 83699, Note_on_c, 0, 76, 0
2, 83763, Note_on_c, 0, 45, 63
2, 83780, Note_on_c, 0, 77, 61
2, 83819, Note_on_c, 0, 45, 0
2, 83844, Note_on_c, 0, 77, 0
2, 83922, Note_on_c, 0, 74, 65
2, 83924, Note_on_c, 0, 47, 74
2, 83971, Note_on_c, 0, 47, 0
2, 83984, Note_on_c, 0, 74, 0
2, 84080, Note_on_c, 0, 49, 77
2, 84095, Note_on_c, 0, 76, 67
2, 84229, Note_on_c, 0, 67, 0
2, 84235, Note_on_c, 0, 50, 75
2, 84253, Note_on_c, 0, 49, 0
2, 84267, Note_on_c, 0, 65, 54
2, 84346, Note_on_c, 0, 65, 0
2, 84353, Note_on_c, 0, 50, 0
2, 84395, Note_on_c, 0, 47, 73
2, 84431, Note_on_c, 0, 64, 51
2, 84463, Note_on_c, 0, 64, 0
2, 84473, Note_on_c, 0, 47, 0
2, 84547, Note_on_c, 0, 49, 82
2, 84566, Note_on_c, 0, 67, 63
2, 84622, Note_on_c, 0, 49, 0
2, 84622, Note_on_c, 0, 67, 0
2, 84728, Note_on_c, 0, 50, 81
2, 84744, Note_on_c, 0, 66, 58
2, 84815, Note_on_c, 0, 50, 0
2, 84914, Note_on_c, 0, 66, 0
2, 85053, Note_on_c, 0, 48, 70
2, 85063, Note_on_c, 0, 69, 64
2, 85157, Note_on_c, 0, 48, 0
2, 85175, Note_on_c, 0, 69, 0
2, 85388, Note_on_c, 0, 47, 65
2, 85401, Note_on_c, 0, 76, 0
2, 85407, Note_on_c, 0, 71, 66
2, 85414, Note_on_c, 0, 68, 48
2, 85484, Note_on_c, 0, 71, 0
2, 85533, Note_on_c, 0, 47, 0
2, 85565, Note_on_c, 0, 72, 56
2, 85645, Note_on_c, 0, 72, 0
2, 85718, Note_on_c, 0, 52, 63
2, 85744, Note_on_c, 0, 74, 59
2, 85936, Note_on_c, 0, 52, 0
2, 86062, Note_on_c, 0, 69, 56
2, 86067, Note_on_c, 0, 45, 56
2, 86128, Note_on_c, 0, 68, 0
2, 86373, Note_on_c, 0, 45, 0
2, 86390, Note_on_c, 0, 74, 0
2, 86409, Note_on_c, 0, 52, 72
2, 86415, Note_on_c, 0, 47, 65
2, 86428, Note_on_c, 0, 72, 55
2, 86467, Note_on_c, 0, 52, 0
2, 86470, Note_on_c, 0, 47, 0
2, 86502, Note_on_c, 0, 72, 0
2, 86559, Note_on_c, 0, 51, 72
2, 86616, Note_on_c, 0, 51, 0
2, 86628, Note_on_c, 0, 69, 0
2, 86729, Note_on_c, 0, 52, 76
2, 86734, Note_on_c, 0, 71, 62
2, 86737, Note_on_c, 0, 49, 54
2, 86772, Note_on_c, 0, 49, 0
2, 86772, Note_on_c, 0, 71, 0
2, 86775, Note_on_c, 0, 67, 22
2, 86789, Note_on_c, 0, 52, 0
2, 86969, Note_on_c, 0, 67, 0
2, 87058, Note_on_c, 0, 54, 78
2, 87067, Note_on_c, 0, 69, 57
2, 87074, Note_on_c, 0, 66, 36
2, 87075, Note_on_c, 0, 51, 48
2, 87119, Note_on_c, 0, 66, 0
2, 87121, Note_on_c, 0, 69, 0
2, 87131, Note_on_c, 0, 51, 0
2, 87135, Note_on_c, 0, 54, 0
2, 87381, Note_on_c, 0, 55, 75
2, 87391, Note_on_c, 0, 67, 56
2, 87396, Note_on_c, 0, 52, 51
2, 87428, Control_c, 0, 64, 42
2, 87430, Note_on_c, 0, 67, 0
2, 87447, Control_c, 0, 64, 58
2, 87466, Control_c, 0, 64, 61
2, 87505, Control_c, 0, 64, 62
2, 87524, Control_c, 0, 64, 63
2, 87543, Control_c, 0, 64, 63
2, 87562, Control_c, 0, 64, 64
2, 87582, Control_c, 0, 64, 64
2, 87586, Note_on_c, 0, 55, 0
2, 87587, Note_on_c, 0, 52, 0
2, 87600, Control_c, 0, 64, 65
2, 87620, Control_c, 0, 64, 65
2, 87658, Control_c, 0, 64, 65
2, 87676, Control_c, 0, 64, 63
2, 87696, Control_c, 0, 64, 42
2, 87715, Control_c, 0, 64, 0
2, 87715, Note_on_c, 0, 55, 69
2, 87726, Note_on_c, 0, 52, 53
2, 87731, Note_on_c, 0, 72, 50
2, 87735, Note_on_c, 0, 76, 58
2, 87757, Note_on_c, 0, 55, 0
2, 87769, Note_on_c, 0, 52, 0
2, 87780, Note_on_c, 0, 72, 0
2, 87820, Note_on_c, 0, 76, 0
2, 87859, Note_on_c, 0, 54, 74
2, 87862, Note_on_c, 0, 50, 64
2, 87901, Note_on_c, 0, 54, 0
2, 87905, Note_on_c, 0, 50, 0
2, 88029, Note_on_c, 0, 55, 76
2, 88050, Note_on_c, 0, 74, 68
2, 88072, Note_on_c, 0, 52, 20
2, 88082, Note_on_c, 0, 55, 0
2, 88111, Note_on_c, 0, 74, 0
2, 88127, Note_on_c, 0, 52, 0
2, 88362, Note_on_c, 0, 57, 75
2, 88374, Note_on_c, 0, 54, 60
2, 88379, Note_on_c, 0, 72, 65
2, 88414, Note_on_c, 0, 72, 0
2, 88424, Note_on_c, 0, 54, 0
2, 88519, Note_on_c, 0, 57, 0
2, 88681, Note_on_c, 0, 59, 76
2, 88692, Note_on_c, 0, 55, 61
2, 88703, Note_on_c, 0, 71, 65
2, 88708, Note_on_c, 0, 67, 47
2, 88754, Note_on_c, 0, 55, 0
2, 88765, Note_on_c, 0, 67, 0
2, 88836, Note_on_c, 0, 57, 69
2, 88851, Note_on_c, 0, 66, 56
2, 88860, Note_on_c, 0, 59, 0
2, 88918, Note_on_c, 0, 57, 0
2, 88922, Note_on_c, 0, 66, 0
2, 88994, Note_on_c, 0, 55, 78
2, 89022, Note_on_c, 0, 64, 54
2, 89050, Note_on_c, 0, 55, 0
2, 89076, Note_on_c, 0, 64, 0
2, 89150, Note_on_c, 0, 57, 77
2, 89164, Note_on_c, 0, 66, 58
2, 89198, Note_on_c, 0, 57, 0
2, 89234, Note_on_c, 0, 66, 0
2, 89324, Note_on_c, 0, 59, 85
2, 89334, Note_on_c, 0, 67, 62
2, 89383, Note_on_c, 0, 67, 0
2, 89399, Note_on_c, 0, 59, 0
2, 89665, Note_on_c, 0, 60, 76
2, 89673, Note_on_c, 0, 57, 48
2, 89673, Note_on_c, 0, 69, 66
2, 89682, Note_on_c, 0, 66, 28
2, 89692, Note_on_c, 0, 71, 0
2, 90011, Note_on_c, 0, 51, 76
2, 90021, Note_on_c, 0, 60, 0
2, 90043, Note_on_c, 0, 57, 0
2, 90076, Note_on_c, 0, 51, 0
2, 90316, Note_on_c, 0, 47, 77
2, 90329, Note_on_c, 0, 66, 0
2, 90348, Note_on_c, 0, 64, 57
2, 90348, Note_on_c, 0, 69, 0
2, 90359, Note_on_c, 0, 67, 53
2, 90379, Note_on_c, 0, 47, 0
2, 90418, Note_on_c, 0, 64, 0
2, 90456, Note_on_c, 0, 67, 0
2, 90466, Note_on_c, 0, 45, 65
2, 90497, Note_on_c, 0, 63, 41
2, 90500, Note_on_c, 0, 66, 51
2, 90517, Note_on_c, 0, 45, 0
2, 90602, Note_on_c, 0, 63, 0
2, 90619, Note_on_c, 0, 43, 62
2, 90657, Note_on_c, 0, 66, 0
2, 90667, Note_on_c, 0, 67, 61
2, 90674, Note_on_c, 0, 43, 0
2, 90687, Note_on_c, 0, 64, 45
2, 90779, Note_on_c, 0, 64, 0
2, 90814, Note_on_c, 0, 67, 0
2, 90815, Note_on_c, 0, 69, 69
2, 90873, Note_on_c, 0, 69, 0
2, 90967, Note_on_c, 0, 52, 69
2, 90983, Note_on_c, 0, 40, 47
2, 90987, Note_on_c, 0, 71, 64
2, 91022, Note_on_c, 0, 40, 0
2, 91030, Note_on_c, 0, 52, 0
2, 91060, Note_on_c, 0, 71, 0
2, 91119, Note_on_c, 0, 67, 72
2, 91233, Note_on_c, 0, 67, 0
2, 91273, Note_on_c, 0, 54, 73
2, 91280, Note_on_c, 0, 45, 61
2, 91286, Note_on_c, 0, 72, 78
2, 91450, Note_on_c, 0, 54, 0
2, 91460, Note_on_c, 0, 55, 56
2, 91515, Note_on_c, 0, 55, 0
2, 91612, Note_on_c, 0, 52, 63
2, 91614, Note_on_c, 0, 69, 72
2, 91656, Note_on_c, 0, 52, 0
2, 91688, Note_on_c, 0, 69, 0
2, 91768, Note_on_c, 0, 63, 64
2, 91775, Note_on_c, 0, 54, 64
2, 91792, Note_on_c, 0, 45, 0
2, 91839, Note_on_c, 0, 54, 0
2, 91847, Note_on_c, 0, 63, 0
2, 91935, Note_on_c, 0, 64, 68
2, 91946, Note_on_c, 0, 55, 71
2, 91947, Note_on_c, 0, 47, 62
2, 92028, Note_on_c, 0, 72, 0
2, 92087, Note_on_c, 0, 55, 0
2, 92092, Note_on_c, 0, 57, 69
2, 92156, Note_on_c, 0, 57, 0
2, 92248, Note_on_c, 0, 54, 70
2, 92260, Note_on_c, 0, 71, 74
2, 92292, Note_on_c, 0, 54, 0
2, 92338, Note_on_c, 0, 71, 0
2, 92405, Note_on_c, 0, 55, 67
2, 92408, Note_on_c, 0, 47, 0
2, 92490, Note_on_c, 0, 55, 0
2, 92591, Note_on_c, 0, 57, 67
2, 92598, Note_on_c, 0, 48, 55
2, 92598, Note_on_c, 0, 69, 76
2, 92670, Note_on_c, 0, 48, 0
2, 92685, Note_on_c, 0, 57, 0
2, 92711, Note_on_c, 0, 69, 0
2, 92752, Note_on_c, 0, 67, 69
2, 92851, Note_on_c, 0, 67, 0
2, 92913, Note_on_c, 0, 55, 60
2, 92913, Note_on_c, 0, 69, 76
2, 92933, Note_on_c, 0, 47, 45
2, 92988, Note_on_c, 0, 69, 0
2, 93041, Note_on_c, 0, 55, 0
2, 93065, Note_on_c, 0, 71, 76
2, 93066, Note_on_c, 0, 47, 0
2, 93146, Note_on_c, 0, 71, 0
2, 93249, Note_on_c, 0, 54, 48
2, 93250, Note_on_c, 0, 72, 76
2, 93254, Note_on_c, 0, 45, 46
2, 93357, Note_on_c, 0, 45, 0
2, 93431, Note_on_c, 0, 72, 0
2, 93531, Note_on_c, 0, 54, 0
2, 93583, Note_on_c, 0, 59, 62
2, 93583, Note_on_c, 0, 66, 69
2, 93592, Note_on_c, 0, 47, 52
2, 93592, Note_on_c, 0, 63, 52
2, 93600, Note_on_c, 0, 64, 0
2, 93623, Note_on_c, 0, 59, 0
2, 93655, Note_on_c, 0, 47, 0
2, 93744, Note_on_c, 0, 45, 55
2, 93802, Note_on_c, 0, 45, 0
2, 93911, Note_on_c, 0, 52, 61
2, 93918, Note_on_c, 0, 43, 50
2, 93928, Note_on_c, 0, 71, 78
2, 93934, Note_on_c, 0, 66, 0
2, 93938, Note_on_c, 0, 64, 68
2, 93949, Note_on_c, 0, 63, 0
2, 94033, Note_on_c, 0, 71, 0
2, 94076, Note_on_c, 0, 43, 0
2, 94085, Note_on_c, 0, 69, 68
2, 94177, Note_on_c, 0, 69, 0
2, 94215, Note_on_c, 0, 45, 52
2, 94237, Note_on_c, 0, 72, 66
2, 94255, Note_on_c, 0, 52, 0
2, 94258, Note_on_c, 0, 45, 0
2, 94308, Note_on_c, 0, 72, 0
2, 94391, Note_on_c, 0, 71, 63
2, 94430, Note_on_c, 0, 71, 0
2, 94509, Note_on_c, 0, 64, 0
2, 94564, Note_on_c, 0, 69, 70
2, 94572, Note_on_c, 0, 47, 55
2, 94582, Note_on_c, 0, 59, 55
2, 94650, Note_on_c, 0, 69, 0
2, 94688, Note_on_c, 0, 59, 0
2, 94718, Note_on_c, 0, 67, 64
2, 94783, Note_on_c, 0, 67, 0
2, 94884, Note_on_c, 0, 66, 69
2, 94906, Note_on_c, 0, 57, 46
2, 94910, Note_on_c, 0, 63, 34
2, 94946, Note_on_c, 0, 66, 0
2, 94955, Note_on_c, 0, 63, 0
2, 94966, Note_on_c, 0, 57, 0
2, 95041, Note_on_c, 0, 67, 64
2, 95097, Note_on_c, 0, 67, 0
2, 95226, Note_on_c, 0, 52, 42
2, 95237, Note_on_c, 0, 56, 43
2, 95252, Note_on_c, 0, 64, 64
2, 95393, Note_on_c, 0, 52, 0
2, 95407, Note_on_c, 0, 47, 0
2, 95533, Note_on_c, 0, 64, 0
2, 95595, Note_on_c, 0, 56, 0
2, 95598, Note_on_c, 0, 52, 35
2, 95600, Note_on_c, 0, 50, 40
2, 95601, Note_on_c, 0, 76, 60
2, 95645, Note_on_c, 0, 76, 0
2, 95655, Note_on_c, 0, 52, 0
2, 95660, Note_on_c, 0, 50, 0
2, 95748, Note_on_c, 0, 77, 64
2, 95789, Note_on_c, 0, 77, 0
2, 95912, Note_on_c, 0, 54, 51
2, 95914, Note_on_c, 0, 48, 43
2, 95924, Note_on_c, 0, 76, 70
2, 95957, Note_on_c, 0, 76, 0
2, 95962, Note_on_c, 0, 48, 0
2, 95968, Note_on_c, 0, 54, 0
2, 96253, Note_on_c, 0, 74, 70
2, 96255, Note_on_c, 0, 56, 43
2, 96264, Note_on_c, 0, 47, 35
2, 96286, Note_on_c, 0, 74, 0
2, 96301, Note_on_c, 0, 56, 0
2, 96307, Note_on_c, 0, 47, 0
2, 96596, Note_on_c, 0, 72, 68
2, 96609, Note_on_c, 0, 45, 28
2, 96621, Note_on_c, 0, 57, 31
2, 96793, Note_on_c, 0, 45, 0
2, 96850, Note_on_c, 0, 72, 0
2, 96926, Note_on_c, 0, 72, 68
2, 96939, Note_on_c, 0, 57, 0
2, 96947, Note_on_c, 0, 64, 43
2, 96968, Note_on_c, 0, 59, 36
2, 96982, Note_on_c, 0, 64, 0
2, 96988, Note_on_c, 0, 72, 0
2, 97006, Note_on_c, 0, 59, 0
2, 97080, Note_on_c, 0, 74, 61
2, 97128, Note_on_c, 0, 74, 0
2, 97237, Note_on_c, 0, 72, 72
2, 97238, Note_on_c, 0, 57, 51
2, 97270, Note_on_c, 0, 66, 30
2, 97286, Note_on_c, 0, 57, 0
2, 97301, Note_on_c, 0, 72, 0
2, 97312, Note_on_c, 0, 66, 0
2, 97562, Note_on_c, 0, 55, 48
2, 97562, Note_on_c, 0, 71, 67
2, 97571, Note_on_c, 0, 67, 42
2, 97607, Note_on_c, 0, 71, 0
2, 97609, Note_on_c, 0, 67, 0
2, 97613, Note_on_c, 0, 55, 0
2, 97893, Note_on_c, 0, 54, 51
2, 97899, Note_on_c, 0, 69, 73
2, 97993, Note_on_c, 0, 69, 0
2, 98044, Note_on_c, 0, 71, 75
2, 98103, Note_on_c, 0, 54, 0
2, 98104, Note_on_c, 0, 71, 0
2, 98204, Note_on_c, 0, 72, 74
2, 98209, Note_on_c, 0, 55, 48
2, 98211, Note_on_c, 0, 57, 43
2, 98240, Note_on_c, 0, 72, 0
2, 98271, Note_on_c, 0, 55, 0
2, 98292, Note_on_c, 0, 57, 0
2, 98330, Note_on_c, 0, 71, 78
2, 98372, Note_on_c, 0, 71, 0
2, 98494, Note_on_c, 0, 54, 48
2, 98501, Note_on_c, 0, 69, 82
2, 98507, Note_on_c, 0, 59, 46
2, 98541, Note_on_c, 0, 69, 0
2, 98549, Note_on_c, 0, 54, 0
2, 98555, Note_on_c, 0, 59, 0
2, 98840, Note_on_c, 0, 61, 50
2, 98843, Note_on_c, 0, 67, 76
2, 98853, Note_on_c, 0, 52, 41
2, 98921, Note_on_c, 0, 61, 0
2, 99075, Note_on_c, 0, 52, 0
2, 99125, Note_on_c, 0, 67, 0
2, 99165, Note_on_c, 0, 50, 45
2, 99165, Note_on_c, 0, 78, 74
2, 99186, Note_on_c, 0, 62, 42
2, 99198, Note_on_c, 0, 78, 0
2, 99242, Note_on_c, 0, 62, 0
2, 99479, Note_on_c, 0, 50, 0
2, 99486, Note_on_c, 0, 81, 78
2, 99491, Note_on_c, 0, 52, 42
2, 99501, Note_on_c, 0, 62, 44
2, 99537, Note_on_c, 0, 81, 0
2, 99824, Note_on_c, 0, 50, 32
2, 99827, Note_on_c, 0, 64, 59
2, 99854, Note_on_c, 0, 62, 0
2, 99886, Note_on_c, 0, 52, 0
2, 99905, Note_on_c, 0, 64, 0
2, 100146, Note_on_c, 0, 48, 47
2, 100147, Note_on_c, 0, 76, 69
2, 100158, Note_on_c, 0, 66, 51
2, 100178, Note_on_c, 0, 50, 0
2, 100274, Note_on_c, 0, 76, 0
2, 100298, Note_on_c, 0, 66, 0
2, 100450, Note_on_c, 0, 48, 0
2, 100485, Note_on_c, 0, 74, 72
2, 100491, Note_on_c, 0, 47, 47
2, 100492, Note_on_c, 0, 67, 58
2, 100634, Note_on_c, 0, 72, 71
2, 100675, Note_on_c, 0, 74, 0
2, 100739, Note_on_c, 0, 72, 0
2, 100754, Note_on_c, 0, 47, 0
2, 100784, Note_on_c, 0, 55, 51
2, 100798, Note_on_c, 0, 59, 54
2, 100802, Note_on_c, 0, 76, 65
2, 100849, Note_on_c, 0, 76, 0
2, 100947, Note_on_c, 0, 74, 65
2, 101031, Note_on_c, 0, 74, 0
2, 101126, Note_on_c, 0, 57, 68
2, 101126, Note_on_c, 0, 72, 63
2, 101199, Note_on_c, 0, 72, 0
2, 101204, Note_on_c, 0, 55, 0
2, 101273, Note_on_c, 0, 71, 64
2, 101282, Note_on_c, 0, 59, 0
2, 101441, Note_on_c, 0, 54, 60
2, 101456, Note_on_c, 0, 74, 65
2, 101466, Note_on_c, 0, 71, 0
2, 101520, Note_on_c, 0, 74, 0
2, 101586, Note_on_c, 0, 67, 0
2, 101596, Note_on_c, 0, 72, 75
2, 101691, Note_on_c, 0, 72, 0
2, 101707, Note_on_c, 0, 57, 0
2, 101730, Note_on_c, 0, 54, 0
2, 101759, Note_on_c, 0, 55, 56
2, 101770, Note_on_c, 0, 71, 76
2, 101804, Note_on_c, 0, 71, 0
2, 101915, Note_on_c, 0, 52, 53
2, 102008, Note_on_c, 0, 52, 0
2, 102075, Note_on_c, 0, 50, 63
2, 102084, Note_on_c, 0, 72, 77
2, 102121, Note_on_c, 0, 50, 0
2, 102149, Note_on_c, 0, 72, 0
2, 102247, Note_on_c, 0, 48, 60
2, 102301, Note_on_c, 0, 48, 0
2, 102404, Note_on_c, 0, 47, 47
2, 102410, Note_on_c, 0, 74, 77
2, 102548, Note_on_c, 0, 74, 0
2, 102553, Note_on_c, 0, 71, 82
2, 102618, Note_on_c, 0, 71, 0
2, 102639, Note_on_c, 0, 47, 0
2, 102716, Note_on_c, 0, 52, 54
2, 102720, Note_on_c, 0, 69, 80
2, 102766, Note_on_c, 0, 69, 0
2, 102872, Note_on_c, 0, 67, 72
2, 102922, Note_on_c, 0, 67, 0
2, 103047, Note_on_c, 0, 76, 78
2, 103057, Note_on_c, 0, 48, 55
2, 103092, Note_on_c, 0, 76, 0
2, 103114, Note_on_c, 0, 78, 80
2, 103163, Note_on_c, 0, 55, 0
2, 103172, Note_on_c, 0, 78, 0
2, 103174, Note_on_c, 0, 76, 75
2, 103317, Note_on_c, 0, 76, 0
2, 103359, Note_on_c, 0, 48, 0
2, 103363, Note_on_c, 0, 78, 87
2, 103368, Note_on_c, 0, 74, 65
2, 103371, Note_on_c, 0, 57, 60
2, 103374, Note_on_c, 0, 45, 52
2, 103389, Note_on_c, 0, 52, 0
2, 103404, Note_on_c, 0, 74, 0
2, 103414, Note_on_c, 0, 78, 0
2, 103499, Note_on_c, 0, 76, 61
2, 103502, Note_on_c, 0, 79, 77
2, 103512, Note_on_c, 0, 57, 0
2, 103538, Note_on_c, 0, 76, 0
2, 103551, Note_on_c, 0, 79, 0
2, 103671, Note_on_c, 0, 79, 88
2, 103678, Note_on_c, 0, 50, 59
2, 103686, Note_on_c, 0, 74, 67
2, 103712, Note_on_c, 0, 45, 0
2, 103714, Note_on_c, 0, 79, 0
2, 103750, Note_on_c, 0, 78, 74
2, 103786, Note_on_c, 0, 78, 0
2, 103805, Note_on_c, 0, 79, 74
2, 103821, Note_on_c, 0, 74, 0
2, 103868, Note_on_c, 0, 79, 0
2, 103874, Note_on_c, 0, 78, 80
2, 103956, Note_on_c, 0, 78, 0
2, 104009, Note_on_c, 0, 72, 80
2, 104015, Note_on_c, 0, 38, 63
2, 104071, Note_on_c, 0, 72, 0
2, 104085, Note_on_c, 0, 38, 0
2, 104156, Note_on_c, 0, 79, 83
2, 104235, Note_on_c, 0, 79, 0
2, 104329, Note_on_c, 0, 79, 84
2, 104338, Note_on_c, 0, 71, 65
2, 104340, Note_on_c, 0, 43, 65
2, 104395, Note_on_c, 0, 43, 0
2, 104428, Note_on_c, 0, 50, 0
2, 104542, Note_on_c, 0, 71, 0
2, 104669, Note_on_c, 0, 67, 74
2, 104721, Note_on_c, 0, 67, 0
2, 104814, Note_on_c, 0, 72, 50
2, 104819, Note_on_c, 0, 69, 79
2, 104862, Note_on_c, 0, 69, 0
2, 104891, Note_on_c, 0, 72, 0
2, 104993, Note_on_c, 0, 67, 75
2, 105009, Note_on_c, 0, 71, 61
2, 105026, Note_on_c, 0, 67, 0
2, 105046, Note_on_c, 0, 71, 0
2, 105323, Note_on_c, 0, 65, 66
2, 105324, Note_on_c, 0, 69, 52
2, 105369, Note_on_c, 0, 65, 0
2, 105380, Note_on_c, 0, 69, 0
2, 105518, Note_on_c, 0, 62, 15
2, 105599, Note_on_c, 0, 62, 0
2, 105644, Note_on_c, 0, 67, 45
2, 105657, Note_on_c, 0, 64, 71
2, 105833, Note_on_c, 0, 79, 0
2, 105910, Note_on_c, 0, 64, 0
2, 105929, Note_on_c, 0, 67, 0
2, 105991, Note_on_c, 0, 64, 74
2, 106000, Note_on_c, 0, 79, 66
2, 106033, Note_on_c, 0, 64, 0
2, 106077, Note_on_c, 0, 79, 0
2, 106147, Note_on_c, 0, 65, 66
2, 106149, Note_on_c, 0, 81, 72
2, 106190, Note_on_c, 0, 65, 0
2, 106194, Note_on_c, 0, 81, 0
2, 106319, Note_on_c, 0, 64, 77
2, 106319, Note_on_c, 0, 79, 74
2, 106335, Note_on_c, 0, 69, 52
2, 106357, Note_on_c, 0, 64, 0
2, 106366, Note_on_c, 0, 69, 0
2, 106403, Note_on_c, 0, 79, 0
2, 106632, Note_on_c, 0, 77, 73
2, 106637, Note_on_c, 0, 71, 57
2, 106649, Note_on_c, 0, 62, 68
2, 106679, Note_on_c, 0, 71, 0
2, 106713, Note_on_c, 0, 62, 0
2, 106742, Note_on_c, 0, 77, 0
2, 106972, Note_on_c, 0, 76, 66
2, 106982, Note_on_c, 0, 60, 65
2, 107085, Note_on_c, 0, 60, 0
2, 107140, Note_on_c, 0, 62, 69
2, 107142, Note_on_c, 0, 74, 65
2, 107188, Note_on_c, 0, 76, 0
2, 107228, Note_on_c, 0, 62, 0
2, 107261, Note_on_c, 0, 74, 0
2, 107300, Note_on_c, 0, 64, 70
2, 107304, Note_on_c, 0, 72, 77
2, 107341, Note_on_c, 0, 64, 0
2, 107381, Note_on_c, 0, 72, 0
2, 107454, Note_on_c, 0, 74, 71
2, 107455, Note_on_c, 0, 62, 68
2, 107495, Note_on_c, 0, 62, 0
2, 107544, Note_on_c, 0, 74, 0
2, 107612, Note_on_c, 0, 60, 65
2, 107623, Note_on_c, 0, 76, 75
2, 107653, Note_on_c, 0, 60, 0
2, 107680, Note_on_c, 0, 76, 0
2, 107759, Note_on_c, 0, 77, 71
2, 107854, Note_on_c, 0, 77, 0
2, 107915, Note_on_c, 0, 58, 76
2, 107915, Note_on_c, 0, 79, 79
2, 108192, Note_on_c, 0, 58, 0
2, 108221, Note_on_c, 0, 69, 83
2, 108223, Note_on_c, 0, 73, 64
2, 108260, Note_on_c, 0, 69, 0
2, 108306, Note_on_c, 0, 73, 0
2, 108376, Note_on_c, 0, 77, 69
2, 108477, Note_on_c, 0, 77, 0
2, 108495, Note_on_c, 0, 79, 0
2, 108550, Note_on_c, 0, 76, 65
2, 108551, Note_on_c, 0, 73, 79
2, 108632, Note_on_c, 0, 73, 0
2, 108689, Note_on_c, 0, 77, 68
2, 108726, Note_on_c, 0, 76, 0
2, 108796, Note_on_c, 0, 77, 0
2, 108849, Note_on_c, 0, 79, 75
2, 108975, Note_on_c, 0, 79, 0
2, 109005, Note_on_c, 0, 81, 71
2, 109094, Note_on_c, 0, 81, 0
2, 109182, Note_on_c, 0, 67, 65
2, 109186, Note_on_c, 0, 82, 63
2, 109221, Note_on_c, 0, 79, 69
2, 109223, Note_on_c, 0, 82, 0
2, 109226, Note_on_c, 0, 67, 0
2, 109274, Note_on_c, 0, 79, 0
2, 109456, Note_on_c, 0, 81, 64
2, 109498, Note_on_c, 0, 65, 60
2, 109515, Note_on_c, 0, 64, 43
2, 109555, Note_on_c, 0, 64, 0
2, 109558, Note_on_c, 0, 81, 0
2, 109589, Note_on_c, 0, 65, 0
2, 109619, Note_on_c, 0, 73, 73
2, 109675, Note_on_c, 0, 67, 65
2, 109700, Note_on_c, 0, 73, 0
2, 109745, Note_on_c, 0, 67, 0
2, 109783, Note_on_c, 0, 74, 61
2, 109828, Note_on_c, 0, 76, 17
2, 109831, Note_on_c, 0, 65, 67
2, 109834, Note_on_c, 0, 76, 0
2, 109873, Note_on_c, 0, 65, 0
2, 109933, Note_on_c, 0, 82, 79
2, 110000, Note_on_c, 0, 64, 60
2, 110011, Note_on_c, 0, 74, 0
2, 110051, Note_on_c, 0, 82, 0
2, 110052, Note_on_c, 0, 64, 0
2, 110105, Note_on_c, 0, 79, 76
2, 110122, Note_on_c, 0, 62, 56
2, 110174, Note_on_c, 0, 62, 0
2, 110267, Note_on_c, 0, 65, 56
2, 110270, Note_on_c, 0, 71, 17
2, 110318, Note_on_c, 0, 65, 0
2, 110319, Note_on_c, 0, 71, 0
2, 110399, Note_on_c, 0, 64, 63
2, 110406, Note_on_c, 0, 73, 70
2, 110448, Note_on_c, 0, 64, 0
2, 110461, Note_on_c, 0, 79, 0
2, 110514, Note_on_c, 0, 73, 0
2, 110549, Note_on_c, 0, 81, 74
2, 110563, Note_on_c, 0, 62, 41
2, 110600, Note_on_c, 0, 62, 0
2, 110705, Note_on_c, 0, 62, 63
2, 110717, Note_on_c, 0, 77, 68
2, 110721, Note_on_c, 0, 81, 0
2, 110739, Note_on_c, 0, 74, 39
2, 110810, Note_on_c, 0, 62, 0
2, 110865, Note_on_c, 0, 77, 0
2, 110872, Note_on_c, 0, 76, 63
2, 111033, Note_on_c, 0, 64, 69
2, 111048, Note_on_c, 0, 77, 68
2, 111081, Note_on_c, 0, 76, 0
2, 111115, Note_on_c, 0, 64, 0
2, 111152, Note_on_c, 0, 77, 0
2, 111208, Note_on_c, 0, 79, 71
2, 111372, Note_on_c, 0, 65, 57
2, 111382, Note_on_c, 0, 81, 80
2, 111404, Note_on_c, 0, 79, 0
2, 111416, Note_on_c, 0, 74, 0
2, 111431, Note_on_c, 0, 81, 0
2, 111521, Note_on_c, 0, 64, 69
2, 111522, Note_on_c, 0, 65, 0
2, 111622, Note_on_c, 0, 64, 0
2, 111687, Note_on_c, 0, 62, 69
2, 111691, Note_on_c, 0, 69, 71
2, 111705, Note_on_c, 0, 65, 48
2, 111750, Note_on_c, 0, 65, 0
2, 111763, Note_on_c, 0, 62, 0
2, 111780, Note_on_c, 0, 69, 0
2, 111841, Note_on_c, 0, 60, 70
2, 111959, Note_on_c, 0, 60, 0
2, 112023, Note_on_c, 0, 58, 67
2, 112032, Note_on_c, 0, 74, 61
2, 112039, Note_on_c, 0, 67, 55
2, 112096, Note_on_c, 0, 67, 0
2, 112172, Note_on_c, 0, 74, 0
2, 112194, Note_on_c, 0, 79, 67
2, 112195, Note_on_c, 0, 73, 45
2, 112248, Note_on_c, 0, 58, 0
2, 112262, Note_on_c, 0, 73, 0
2, 112318, Note_on_c, 0, 79, 0
2, 112359, Note_on_c, 0, 57, 80
2, 112371, Note_on_c, 0, 77, 73
2, 112411, Note_on_c, 0, 57, 0
2, 112447, Note_on_c, 0, 77, 0
2, 112528, Note_on_c, 0, 55, 64
2, 112550, Note_on_c, 0, 76, 49
2, 112553, Note_on_c, 0, 57, 61
2, 112557, Note_on_c, 0, 58, 15
2, 112590, Note_on_c, 0, 57, 0
2, 112607, Note_on_c, 0, 58, 0
2, 112608, Note_on_c, 0, 55, 0
2, 112659, Note_on_c, 0, 76, 0
2, 112689, Note_on_c, 0, 77, 73
2, 112693, Note_on_c, 0, 57, 73
2, 112711, Note_on_c, 0, 73, 47
2, 112751, Note_on_c, 0, 77, 0
2, 112754, Note_on_c, 0, 76, 73
2, 112771, Note_on_c, 0, 73, 0
2, 112799, Note_on_c, 0, 73, 33
2, 112811, Note_on_c, 0, 77, 66
2, 112820, Note_on_c, 0, 76, 0
2, 112871, Note_on_c, 0, 77, 0
2, 112874, Note_on_c, 0, 76, 72
2, 113034, Note_on_c, 0, 55, 84
2, 113067, Note_on_c, 0, 73, 0
2, 113123, Note_on_c, 0, 55, 0
2, 113186, Note_on_c, 0, 76, 0
2, 113187, Note_on_c, 0, 74, 75
2, 113272, Note_on_c, 0, 74, 0
2, 113371, Note_on_c, 0, 53, 75
2, 113372, Note_on_c, 0, 74, 73
2, 113513, Note_on_c, 0, 57, 0
2, 113622, Note_on_c, 0, 53, 0
2, 113705, Note_on_c, 0, 53, 65
2, 113706, Note_on_c, 0, 57, 62
2, 113724, Note_on_c, 0, 69, 66
2, 113746, Note_on_c, 0, 57, 0
2, 113756, Note_on_c, 0, 53, 0
2, 113786, Note_on_c, 0, 69, 0
2, 113855, Note_on_c, 0, 55, 79
2, 113872, Note_on_c, 0, 70, 72
2, 113901, Note_on_c, 0, 55, 0
2, 113942, Note_on_c, 0, 70, 0
2, 114038, Note_on_c, 0, 53, 68
2, 114044, Note_on_c, 0, 69, 75
2, 114045, Note_on_c, 0, 59, 71
2, 114079, Note_on_c, 0, 53, 0
2, 114096, Note_on_c, 0, 59, 0
2, 114105, Note_on_c, 0, 74, 0
2, 114116, Note_on_c, 0, 69, 0
2, 114372, Note_on_c, 0, 76, 78
2, 114373, Note_on_c, 0, 61, 68
2, 114374, Note_on_c, 0, 52, 59
2, 114385, Note_on_c, 0, 67, 64
2, 114443, Note_on_c, 0, 67, 0
2, 114456, Note_on_c, 0, 52, 0
2, 114462, Note_on_c, 0, 61, 0
2, 114518, Note_on_c, 0, 76, 0
2, 114718, Note_on_c, 0, 77, 74
2, 114720, Note_on_c, 0, 62, 64
2, 114722, Note_on_c, 0, 50, 64
2, 114731, Note_on_c, 0, 65, 47
2, 114874, Note_on_c, 0, 52, 72
2, 114889, Note_on_c, 0, 62, 0
2, 114897, Note_on_c, 0, 50, 0
2, 114959, Note_on_c, 0, 52, 0
2, 114991, Note_on_c, 0, 65, 0
2, 115034, Note_on_c, 0, 53, 74
2, 115061, Note_on_c, 0, 69, 66
2, 115079, Note_on_c, 0, 53, 0
2, 115185, Note_on_c, 0, 69, 0
2, 115191, Note_on_c, 0, 52, 77
2, 115236, Note_on_c, 0, 52, 0
2, 115364, Note_on_c, 0, 71, 71
2, 115385, Note_on_c, 0, 50, 77
2, 115457, Note_on_c, 0, 50, 0
2, 115469, Note_on_c, 0, 71, 0
2, 115729, Note_on_c, 0, 48, 77
2, 115731, Note_on_c, 0, 72, 64
2, 116039, Note_on_c, 0, 48, 0
2, 116048, Note_on_c, 0, 59, 83
2, 116049, Note_on_c, 0, 72, 0
2, 116066, Note_on_c, 0, 74, 45
2, 116081, Note_on_c, 0, 59, 0
2, 116197, Note_on_c, 0, 72, 64
2, 116284, Note_on_c, 0, 72, 0
2, 116354, Note_on_c, 0, 77, 0
2, 116391, Note_on_c, 0, 62, 72
2, 116397, Note_on_c, 0, 71, 66
2, 116468, Note_on_c, 0, 62, 0
2, 116487, Note_on_c, 0, 71, 0
2, 116557, Note_on_c, 0, 69, 63
2, 116666, Note_on_c, 0, 74, 0
2, 116722, Note_on_c, 0, 67, 65
2, 116748, Note_on_c, 0, 69, 0
2, 116894, Note_on_c, 0, 76, 66
2, 117017, Note_on_c, 0, 67, 0
2, 117074, Note_on_c, 0, 57, 65
2, 117075, Note_on_c, 0, 74, 66
2, 117091, Note_on_c, 0, 65, 56
2, 117101, Note_on_c, 0, 76, 0
2, 117126, Note_on_c, 0, 57, 0
2, 117225, Note_on_c, 0, 72, 73
2, 117233, Note_on_c, 0, 74, 0
2, 117387, Note_on_c, 0, 72, 0
2, 117388, Note_on_c, 0, 55, 62
2, 117394, Note_on_c, 0, 71, 71
2, 117521, Note_on_c, 0, 65, 0
2, 117545, Note_on_c, 0, 53, 69
2, 117555, Note_on_c, 0, 55, 0
2, 117598, Note_on_c, 0, 53, 0
2, 117718, Note_on_c, 0, 57, 64
2, 117719, Note_on_c, 0, 71, 0
2, 117719, Note_on_c, 0, 72, 75
2, 117740, Note_on_c, 0, 64, 47
2, 117765, Note_on_c, 0, 57, 0
2, 117789, Note_on_c, 0, 64, 0
2, 117875, Note_on_c, 0, 55, 68
2, 117950, Note_on_c, 0, 55, 0
2, 118041, Note_on_c, 0, 53, 67
2, 118041, Note_on_c, 0, 62, 62
2, 118188, Note_on_c, 0, 53, 0
2, 118192, Note_on_c, 0, 52, 78
2, 118257, Note_on_c, 0, 72, 0
2, 118271, Note_on_c, 0, 52, 0
2, 118356, Note_on_c, 0, 55, 74
2, 118382, Note_on_c, 0, 71, 70
2, 118402, Note_on_c, 0, 55, 0
2, 118475, Note_on_c, 0, 71, 0
2, 118517, Note_on_c, 0, 53, 75
2, 118576, Note_on_c, 0, 53, 0
2, 118687, Note_on_c, 0, 52, 81
2, 118705, Note_on_c, 0, 72, 71
2, 118730, Note_on_c, 0, 62, 0
2, 118740, Note_on_c, 0, 52, 0
2, 118854, Note_on_c, 0, 69, 66
2, 118942, Note_on_c, 0, 69, 0
2, 119030, Note_on_c, 0, 67, 64
2, 119033, Note_on_c, 0, 53, 60
2, 119083, Note_on_c, 0, 53, 0
2, 119131, Note_on_c, 0, 67, 0
2, 119185, Note_on_c, 0, 65, 68
2, 119234, Note_on_c, 0, 65, 0
2, 119359, Note_on_c, 0, 55, 54
2, 119363, Note_on_c, 0, 64, 59
2, 119513, Note_on_c, 0, 52, 52
2, 119624, Note_on_c, 0, 55, 0
2, 119675, Note_on_c, 0, 64, 0
2, 119676, Note_on_c, 0, 70, 67
2, 119680, Note_on_c, 0, 50, 49
2, 119682, Note_on_c, 0, 67, 44
2, 119711, Note_on_c, 0, 72, 0
2, 119714, Note_on_c, 0, 52, 0
2, 119833, Note_on_c, 0, 50, 0
2, 119863, Note_on_c, 0, 48, 37
2, 119988, Note_on_c, 0, 70, 0
2, 120027, Note_on_c, 0, 69, 59
2, 120036, Note_on_c, 0, 53, 47
2, 120125, Note_on_c, 0, 67, 0
2, 120158, Note_on_c, 0, 53, 0
2, 120207, Note_on_c, 0, 52, 47
2, 120327, Note_on_c, 0, 52, 0
2, 120353, Note_on_c, 0, 48, 0
2, 120372, Note_on_c, 0, 50, 49
2, 120376, Note_on_c, 0, 65, 66
2, 120427, Note_on_c, 0, 65, 0
2, 120455, Note_on_c, 0, 50, 0
2, 120523, Note_on_c, 0, 48, 52
2, 120526, Note_on_c, 0, 67, 71
2, 120589, Note_on_c, 0, 67, 0
2, 120698, Note_on_c, 0, 65, 77
2, 120701, Note_on_c, 0, 50, 51
2, 120749, Note_on_c, 0, 48, 0
2, 120755, Note_on_c, 0, 65, 0
2, 120767, Note_on_c, 0, 50, 0
2, 120863, Note_on_c, 0, 52, 40
2, 120930, Note_on_c, 0, 52, 0
2, 121008, Note_on_c, 0, 53, 53
2, 121023, Note_on_c, 0, 64, 73
2, 121081, Note_on_c, 0, 64, 0
2, 121092, Note_on_c, 0, 53, 0
2, 121167, Note_on_c, 0, 50, 51
2, 121279, Note_on_c, 0, 50, 0
2, 121348, Note_on_c, 0, 62, 73
2, 121373, Note_on_c, 0, 47, 47
2, 121407, Control_c, 0, 64, 25
2, 121427, Control_c, 0, 64, 58
2, 121446, Control_c, 0, 64, 65
2, 121466, Control_c, 0, 64, 69
2, 121482, Note_on_c, 0, 47, 0
2, 121484, Control_c, 0, 64, 74
2, 121504, Control_c, 0, 64, 81
2, 121517, Note_on_c, 0, 62, 0
2, 121523, Control_c, 0, 64, 88
2, 121543, Control_c, 0, 64, 93
2, 121561, Control_c, 0, 64, 98
2, 121581, Control_c, 0, 64, 103
2, 121600, Control_c, 0, 64, 109
2, 121618, Control_c, 0, 64, 112
2, 121638, Control_c, 0, 64, 113
2, 121657, Control_c, 0, 64, 110
2, 121677, Control_c, 0, 64, 91
2, 121677, Note_on_c, 0, 62, 72
2, 121682, Note_on_c, 0, 59, 66
2, 121694, Note_on_c, 0, 68, 68
2, 121695, Control_c, 0, 64, 70
2, 121715, Control_c, 0, 64, 43
2, 121723, Note_on_c, 0, 62, 0
2, 121728, Note_on_c, 0, 59, 0
2, 121734, Control_c, 0, 64, 0
2, 121753, Note_on_c, 0, 68, 0
2, 121759, Note_on_c, 0, 69, 0
2, 121832, Note_on_c, 0, 60, 58
2, 121838, Note_on_c, 0, 64, 70
2, 121873, Note_on_c, 0, 60, 0
2, 121913, Note_on_c, 0, 64, 0
2, 122009, Note_on_c, 0, 62, 72
2, 122011, Note_on_c, 0, 59, 61
2, 122012, Note_on_c, 0, 48, 50
2, 122026, Note_on_c, 0, 69, 58
2, 122061, Note_on_c, 0, 69, 0
2, 122097, Note_on_c, 0, 59, 0
2, 122103, Note_on_c, 0, 62, 0
2, 122332, Note_on_c, 0, 57, 48
2, 122336, Note_on_c, 0, 71, 66
2, 122340, Note_on_c, 0, 48, 0
2, 122346, Note_on_c, 0, 60, 67
2, 122352, Note_on_c, 0, 50, 38
2, 122374, Note_on_c, 0, 71, 0
2, 122426, Control_c, 0, 64, 41
2, 122444, Control_c, 0, 64, 59
2, 122464, Control_c, 0, 64, 64
2, 122483, Control_c, 0, 64, 66
2, 122503, Control_c, 0, 64, 68
2, 122521, Control_c, 0, 64, 70
2, 122529, Note_on_c, 0, 60, 0
2, 122541, Control_c, 0, 64, 74
2, 122548, Note_on_c, 0, 57, 0
2, 122560, Control_c, 0, 64, 77
2, 122578, Control_c, 0, 64, 80
2, 122598, Control_c, 0, 64, 81
2, 122617, Control_c, 0, 64, 81
2, 122637, Control_c, 0, 64, 79
2, 122655, Control_c, 0, 64, 74
2, 122675, Control_c, 0, 64, 68
2, 122686, Note_on_c, 0, 56, 48
2, 122690, Note_on_c, 0, 64, 62
2, 122691, Note_on_c, 0, 59, 70
2, 122694, Control_c, 0, 64, 60
2, 122713, Control_c, 0, 64, 25
2, 122732, Control_c, 0, 64, 0
2, 122752, Note_on_c, 0, 59, 0
2, 122800, Note_on_c, 0, 50, 0
2, 122853, Note_on_c, 0, 60, 70
2, 122917, Note_on_c, 0, 60, 0
2, 123012, Note_on_c, 0, 62, 71
2, 123013, Note_on_c, 0, 52, 47
2, 123065, Note_on_c, 0, 62, 0
2, 123090, Note_on_c, 0, 52, 0
2, 123162, Note_on_c, 0, 60, 73
2, 123262, Note_on_c, 0, 64, 0
2, 123263, Note_on_c, 0, 60, 0
2, 123331, Note_on_c, 0, 50, 47
2, 123332, Note_on_c, 0, 59, 78
2, 123427, Note_on_c, 0, 56, 0
2, 123455, Note_on_c, 0, 59, 0
2, 123497, Note_on_c, 0, 66, 60
2, 123583, Note_on_c, 0, 50, 0
2, 123603, Note_on_c, 0, 66, 0
2, 123656, Note_on_c, 0, 52, 53
2, 123667, Note_on_c, 0, 57, 80
2, 123675, Note_on_c, 0, 48, 38
2, 123675, Note_on_c, 0, 68, 59
2, 123676, Control_c, 0, 64, 28
2, 123695, Control_c, 0, 64, 62
2, 123697, Note_on_c, 0, 52, 0
2, 123715, Control_c, 0, 64, 64
2, 123717, Note_on_c, 0, 48, 0
2, 123732, Note_on_c, 0, 57, 0
2, 123733, Control_c, 0, 64, 66
2, 123753, Control_c, 0, 64, 68
2, 123755, Note_on_c, 0, 68, 0
2, 123762, Note_on_c, 0, 62, 3
2, 123772, Control_c, 0, 64, 73
2, 123792, Control_c, 0, 64, 82
2, 123810, Control_c, 0, 64, 96
2, 123821, Note_on_c, 0, 69, 72
2, 123830, Control_c, 0, 64, 127
2, 123833, Note_on_c, 0, 62, 0
2, 123865, Note_on_c, 0, 69, 0
2, 123945, Control_c, 0, 64, 122
2, 123964, Control_c, 0, 64, 77
2, 123984, Control_c, 0, 64, 49
2, 123993, Note_on_c, 0, 68, 90
2, 124002, Control_c, 0, 64, 0
2, 124005, Note_on_c, 0, 71, 72
2, 124011, Note_on_c, 0, 47, 55
2, 124026, Note_on_c, 0, 50, 58
2, 124091, Note_on_c, 0, 68, 0
2, 124094, Note_on_c, 0, 50, 0
2, 124113, Note_on_c, 0, 71, 0
2, 124177, Note_on_c, 0, 72, 66
2, 124277, Note_on_c, 0, 47, 0
2, 124298, Note_on_c, 0, 53, 65
2, 124309, Note_on_c, 0, 50, 60
2, 124332, Note_on_c, 0, 71, 75
2, 124350, Note_on_c, 0, 50, 0
2, 124350, Note_on_c, 0, 72, 0
2, 124351, Note_on_c, 0, 53, 0
2, 124366, Note_on_c, 0, 70, 40
2, 124407, Note_on_c, 0, 70, 0
2, 124433, Note_on_c, 0, 71, 0
2, 124471, Note_on_c, 0, 52, 50
2, 124472, Note_on_c, 0, 48, 55
2, 124492, Note_on_c, 0, 72, 65
2, 124515, Note_on_c, 0, 52, 0
2, 124520, Note_on_c, 0, 48, 0
2, 124622, Note_on_c, 0, 72, 0
2, 124643, Note_on_c, 0, 50, 59
2, 124648, Note_on_c, 0, 74, 65
2, 124665, Note_on_c, 0, 47, 42
2, 124717, Note_on_c, 0, 50, 0
2, 124761, Note_on_c, 0, 47, 0
2, 124975, Note_on_c, 0, 48, 51
2, 124979, Note_on_c, 0, 65, 61
2, 125005, Note_on_c, 0, 45, 18
2, 125053, Note_on_c, 0, 45, 0
2, 125117, Note_on_c, 0, 65, 0
2, 125120, Note_on_c, 0, 48, 0
2, 125308, Note_on_c, 0, 74, 0
2, 125309, Note_on_c, 0, 64, 67
2, 125311, Note_on_c, 0, 44, 34
2, 125317, Note_on_c, 0, 47, 39
2, 125443, Note_on_c, 0, 64, 0
2, 125454, Note_on_c, 0, 62, 66
2, 125521, Note_on_c, 0, 62, 0
2, 125525, Note_on_c, 0, 44, 0
2, 125548, Note_on_c, 0, 47, 0
2, 125618, Note_on_c, 0, 65, 62
2, 125619, Note_on_c, 0, 45, 44
2, 125623, Note_on_c, 0, 72, 72
2, 125628, Note_on_c, 0, 48, 44
2, 125672, Note_on_c, 0, 65, 0
2, 125726, Note_on_c, 0, 48, 0
2, 125791, Note_on_c, 0, 64, 58
2, 125870, Note_on_c, 0, 45, 0
2, 125913, Note_on_c, 0, 64, 0
2, 125949, Note_on_c, 0, 72, 0
2, 125950, Note_on_c, 0, 50, 51
2, 125953, Note_on_c, 0, 62, 65
2, 125961, Note_on_c, 0, 47, 40
2, 126049, Note_on_c, 0, 47, 0
2, 126095, Note_on_c, 0, 60, 66
2, 126098, Note_on_c, 0, 62, 0
2, 126171, Note_on_c, 0, 60, 0
2, 126267, Note_on_c, 0, 44, 54
2, 126283, Note_on_c, 0, 71, 69
2, 126288, Note_on_c, 0, 64, 57
2, 126296, Note_on_c, 0, 47, 47
2, 126336, Note_on_c, 0, 64, 0
2, 126368, Note_on_c, 0, 50, 0
2, 126440, Note_on_c, 0, 62, 54
2, 126590, Note_on_c, 0, 47, 0
2, 126593, Note_on_c, 0, 44, 0
2, 126622, Note_on_c, 0, 52, 56
2, 126622, Note_on_c, 0, 71, 0
2, 126626, Note_on_c, 0, 45, 45
2, 126626, Note_on_c, 0, 60, 67
2, 126639, Note_on_c, 0, 62, 0
2, 126833, Note_on_c, 0, 45, 0
2, 126878, Note_on_c, 0, 60, 0
2, 126946, Note_on_c, 0, 47, 49
2, 126952, Note_on_c, 0, 69, 78
2, 126957, Note_on_c, 0, 62, 64
2, 127001, Note_on_c, 0, 62, 0
2, 127015, Note_on_c, 0, 69, 0
2, 127096, Note_on_c, 0, 68, 82
2, 127180, Note_on_c, 0, 68, 0
2, 127269, Note_on_c, 0, 48, 45
2, 127269, Note_on_c, 0, 64, 68
2, 127277, Note_on_c, 0, 69, 78
2, 127316, Note_on_c, 0, 64, 0
2, 127325, Note_on_c, 0, 47, 0
2, 127353, Note_on_c, 0, 52, 0
2, 127441, Note_on_c, 0, 60, 66
2, 127530, Note_on_c, 0, 60, 0
2, 127547, Note_on_c, 0, 69, 0
2, 127612, Note_on_c, 0, 53, 53
2, 127612, Note_on_c, 0, 59, 72
2, 127654, Note_on_c, 0, 59, 0
2, 127756, Note_on_c, 0, 57, 65
2, 127822, Note_on_c, 0, 57, 0
2, 127829, Note_on_c, 0, 48, 0
2, 127913, Note_on_c, 0, 50, 48
2, 127931, Note_on_c, 0, 65, 71
2, 127988, Note_on_c, 0, 53, 0
2, 128029, Note_on_c, 0, 65, 0
2, 128080, Note_on_c, 0, 62, 64
2, 128148, Note_on_c, 0, 62, 0
2, 128246, Note_on_c, 0, 47, 43
2, 128252, Note_on_c, 0, 64, 55
2, 128300, Note_on_c, 0, 64, 0
2, 128385, Note_on_c, 0, 65, 69
2, 128428, Note_on_c, 0, 65, 0
2, 128511, Note_on_c, 0, 50, 0
2, 128527, Note_on_c, 0, 47, 0
2, 128556, Note_on_c, 0, 60, 67
2, 128581, Note_on_c, 0, 52, 54
2, 128583, Note_on_c, 0, 68, 57
2, 128622, Note_on_c, 0, 60, 0
2, 128645, Note_on_c, 0, 59, 70
2, 128689, Note_on_c, 0, 59, 0
2, 128721, Note_on_c, 0, 60, 58
2, 128763, Note_on_c, 0, 60, 0
2, 128788, Note_on_c, 0, 59, 64
2, 128897, Note_on_c, 0, 59, 0
2, 128910, Note_on_c, 0, 40, 44
2, 128990, Note_on_c, 0, 52, 0
2, 129062, Note_on_c, 0, 68, 0
2, 129096, Note_on_c, 0, 57, 58
2, 129298, Note_on_c, 0, 57, 0
2, 129300, Note_on_c, 0, 40, 0
2, 129316, Note_on_c, 0, 45, 41
2, 129325, Note_on_c, 0, 69, 67
2, 129418, Note_on_c, 0, 45, 0
2, 129436, Control_c, 0, 64, 30
2, 129454, Control_c, 0, 64, 49
2, 129474, Control_c, 0, 64, 54
2, 129493, Control_c, 0, 64, 55
2, 129511, Control_c, 0, 64, 57
2, 129531, Control_c, 0, 64, 58
2, 129550, Control_c, 0, 64, 60
2, 129570, Control_c, 0, 64, 62
2, 129588, Control_c, 0, 64, 63
2, 129595, Note_on_c, 0, 69, 0
2, 129608, Control_c, 0, 64, 64
2, 129627, Control_c, 0, 64, 65
2, 129646, Control_c, 0, 64, 66
2, 129665, Control_c, 0, 64, 65
2, 129685, Control_c, 0, 64, 60
2, 129691, Note_on_c, 0, 69, 91
2, 129693, Note_on_c, 0, 57, 56
2, 129704, Control_c, 0, 64, 32
2, 129723, Control_c, 0, 64, 0
2, 129752, Note_on_c, 0, 69, 0
2, 129756, Note_on_c, 0, 57, 0
2, 129846, Note_on_c, 0, 68, 86
2, 129929, Note_on_c, 0, 68, 0
2, 130039, Note_on_c, 0, 69, 90
2, 130040, Note_on_c, 0, 48, 54
2, 130090, Note_on_c, 0, 48, 0
2, 130109, Note_on_c, 0, 69, 0
2, 130354, Note_on_c, 0, 52, 53
2, 130383, Note_on_c, 0, 71, 88
2, 130436, Note_on_c, 0, 52, 0
2, 130458, Note_on_c, 0, 71, 0
2, 130714, Note_on_c, 0, 45, 62
2, 130716, Note_on_c, 0, 72, 89
2, 130776, Control_c, 0, 64, 48
2, 130782, Note_on_c, 0, 45, 0
2, 130796, Control_c, 0, 64, 57
2, 130814, Control_c, 0, 64, 58
2, 130834, Control_c, 0, 64, 60
2, 130853, Control_c, 0, 64, 62
2, 130873, Control_c, 0, 64, 63
2, 130891, Control_c, 0, 64, 64
2, 130949, Control_c, 0, 64, 64
2, 130968, Control_c, 0, 64, 65
2, 130988, Control_c, 0, 64, 65
2, 131000, Note_on_c, 0, 72, 0
2, 131026, Control_c, 0, 64, 65
2, 131045, Control_c, 0, 64, 63
2, 131065, Control_c, 0, 64, 55
2, 131072, Note_on_c, 0, 57, 77
2, 131079, Note_on_c, 0, 53, 64
2, 131083, Control_c, 0, 64, 0
2, 131094, Note_on_c, 0, 72, 64
2, 131117, Note_on_c, 0, 57, 0
2, 131128, Note_on_c, 0, 53, 0
2, 131156, Note_on_c, 0, 72, 0
2, 131211, Note_on_c, 0, 56, 85
2, 131237, Note_on_c, 0, 71, 69
2, 131278, Note_on_c, 0, 56, 0
2, 131304, Note_on_c, 0, 71, 0
2, 131400, Note_on_c, 0, 57, 85
2, 131402, Note_on_c, 0, 52, 75
2, 131408, Note_on_c, 0, 72, 76
2, 131445, Note_on_c, 0, 52, 0
2, 131454, Note_on_c, 0, 57, 0
2, 131464, Note_on_c, 0, 72, 0
2, 131744, Note_on_c, 0, 74, 76
2, 131745, Note_on_c, 0, 59, 89
2, 131748, Note_on_c, 0, 50, 45
2, 131796, Note_on_c, 0, 50, 0
2, 131818, Note_on_c, 0, 59, 0
2, 131824, Note_on_c, 0, 74, 0
2, 132074, Note_on_c, 0, 48, 67
2, 132076, Note_on_c, 0, 60, 80
2, 132087, Note_on_c, 0, 76, 78
2, 132201, Note_on_c, 0, 48, 0
2, 132243, Note_on_c, 0, 74, 73
2, 132254, Control_c, 0, 64, 33
2, 132269, Note_on_c, 0, 60, 0
2, 132274, Control_c, 0, 64, 44
2, 132293, Control_c, 0, 64, 49
2, 132313, Control_c, 0, 64, 53
2, 132331, Control_c, 0, 64, 55
2, 132351, Control_c, 0, 64, 56
2, 132356, Note_on_c, 0, 74, 0
2, 132369, Note_on_c, 0, 76, 0
2, 132370, Control_c, 0, 64, 55
2, 132389, Control_c, 0, 64, 50
2, 132402, Note_on_c, 0, 57, 64
2, 132404, Note_on_c, 0, 72, 87
2, 132406, Note_on_c, 0, 60, 68
2, 132408, Control_c, 0, 64, 32
2, 132428, Control_c, 0, 64, 0
2, 132447, Note_on_c, 0, 60, 0
2, 132448, Note_on_c, 0, 57, 0
2, 132489, Note_on_c, 0, 72, 0
2, 132553, Note_on_c, 0, 74, 87
2, 132561, Note_on_c, 0, 59, 70
2, 132609, Note_on_c, 0, 59, 0
2, 132635, Note_on_c, 0, 74, 0
2, 132720, Note_on_c, 0, 76, 87
2, 132730, Note_on_c, 0, 60, 66
2, 132732, Note_on_c, 0, 55, 55
2, 132775, Note_on_c, 0, 55, 0
2, 132791, Note_on_c, 0, 60, 0
2, 132815, Note_on_c, 0, 76, 0
2, 133052, Note_on_c, 0, 77, 87
2, 133055, Note_on_c, 0, 62, 57
2, 133062, Control_c, 0, 64, 53
2, 133078, Note_on_c, 0, 53, 41
2, 133080, Control_c, 0, 64, 70
2, 133099, Control_c, 0, 64, 86
2, 133111, Note_on_c, 0, 77, 0
2, 133119, Control_c, 0, 64, 127
2, 133157, Note_on_c, 0, 62, 0
2, 133365, Note_on_c, 0, 53, 0
2, 133368, Control_c, 0, 64, 73
2, 133383, Note_on_c, 0, 64, 70
2, 133386, Note_on_c, 0, 68, 85
2, 133388, Control_c, 0, 64, 14
2, 133400, Note_on_c, 0, 52, 53
2, 133407, Control_c, 0, 64, 0
2, 133427, Note_on_c, 0, 64, 0
2, 133475, Note_on_c, 0, 68, 0
2, 133531, Note_on_c, 0, 62, 59
2, 133644, Note_on_c, 0, 62, 0
2, 133657, Note_on_c, 0, 52, 0
2, 133709, Note_on_c, 0, 64, 79
2, 133710, Note_on_c, 0, 57, 52
2, 133722, Note_on_c, 0, 60, 47
2, 133760, Note_on_c, 0, 60, 0
2, 133767, Note_on_c, 0, 57, 0
2, 133836, Note_on_c, 0, 64, 0
2, 133872, Note_on_c, 0, 55, 46
2, 133888, Note_on_c, 0, 62, 55
2, 133955, Note_on_c, 0, 55, 0
2, 133979, Note_on_c, 0, 62, 0
2, 134045, Note_on_c, 0, 53, 53
2, 134059, Note_on_c, 0, 64, 65
2, 134113, Note_on_c, 0, 53, 0
2, 134113, Note_on_c, 0, 64, 0
2, 134217, Note_on_c, 0, 52, 47
2, 134344, Note_on_c, 0, 52, 0
2, 134383, Note_on_c, 0, 50, 57
2, 134388, Note_on_c, 0, 65, 80
2, 134405, Control_c, 0, 64, 59
2, 134425, Control_c, 0, 64, 64
2, 134443, Control_c, 0, 64, 65
2, 134447, Note_on_c, 0, 65, 0
2, 134463, Control_c, 0, 64, 67
2, 134482, Control_c, 0, 64, 70
2, 134501, Control_c, 0, 64, 77
2, 134518, Note_on_c, 0, 50, 0
2, 134520, Control_c, 0, 64, 87
2, 134539, Control_c, 0, 64, 102
2, 134555, Note_on_c, 0, 48, 48
2, 134559, Control_c, 0, 64, 127
2, 134625, Note_on_c, 0, 48, 0
2, 134674, Control_c, 0, 64, 114
2, 134693, Control_c, 0, 64, 74
2, 134712, Note_on_c, 0, 56, 84
2, 134713, Control_c, 0, 64, 28
2, 134715, Note_on_c, 0, 71, 80
2, 134716, Note_on_c, 0, 47, 65
2, 134731, Control_c, 0, 64, 0
2, 134751, Note_on_c, 0, 47, 0
2, 134758, Note_on_c, 0, 56, 0
2, 134833, Note_on_c, 0, 71, 0
2, 134881, Note_on_c, 0, 72, 71
2, 134983, Note_on_c, 0, 72, 0
2, 135028, Note_on_c, 0, 52, 58
2, 135040, Note_on_c, 0, 60, 59
2, 135049, Note_on_c, 0, 69, 76
2, 135112, Note_on_c, 0, 60, 0
2, 135136, Note_on_c, 0, 69, 0
2, 135203, Note_on_c, 0, 59, 62
2, 135208, Note_on_c, 0, 71, 78
2, 135265, Note_on_c, 0, 71, 0
2, 135319, Note_on_c, 0, 59, 0
2, 135370, Note_on_c, 0, 72, 82
2, 135376, Note_on_c, 0, 57, 63
2, 135469, Note_on_c, 0, 57, 0
2, 135501, Note_on_c, 0, 72, 0
2, 135528, Note_on_c, 0, 55, 64
2, 135529, Note_on_c, 0, 74, 66
2, 135539, Note_on_c, 0, 52, 0
2, 135584, Note_on_c, 0, 55, 0
2, 135615, Note_on_c, 0, 74, 0
2, 135694, Note_on_c, 0, 53, 52
2, 135696, Note_on_c, 0, 57, 57
2, 135697, Note_on_c, 0, 71, 76
2, 135740, Note_on_c, 0, 53, 0
2, 135754, Note_on_c, 0, 57, 0
2, 135772, Note_on_c, 0, 71, 0
2, 135851, Note_on_c, 0, 72, 77
2, 135859, Note_on_c, 0, 52, 62
2, 135916, Note_on_c, 0, 72, 0
2, 135927, Note_on_c, 0, 52, 0
2, 136015, Note_on_c, 0, 74, 75
2, 136032, Note_on_c, 0, 59, 70
2, 136039, Note_on_c, 0, 50, 52
2, 136118, Note_on_c, 0, 74, 0
2, 136121, Note_on_c, 0, 59, 0
2, 136185, Note_on_c, 0, 60, 68
2, 136237, Note_on_c, 0, 60, 0
2, 136344, Note_on_c, 0, 57, 55
2, 136360, Note_on_c, 0, 72, 77
2, 136397, Note_on_c, 0, 57, 0
2, 136448, Note_on_c, 0, 72, 0
2, 136505, Note_on_c, 0, 59, 65
2, 136512, Note_on_c, 0, 50, 0
2, 136632, Note_on_c, 0, 59, 0
2, 136677, Note_on_c, 0, 60, 65
2, 136679, Note_on_c, 0, 71, 78
2, 136684, Note_on_c, 0, 52, 50
2, 136782, Note_on_c, 0, 71, 0
2, 136801, Note_on_c, 0, 60, 0
2, 136844, Note_on_c, 0, 62, 62
2, 136890, Note_on_c, 0, 62, 0
2, 136996, Note_on_c, 0, 76, 78
2, 137022, Note_on_c, 0, 59, 63
2, 137083, Note_on_c, 0, 59, 0
2, 137126, Note_on_c, 0, 76, 0
2, 137169, Note_on_c, 0, 52, 0
2, 137175, Note_on_c, 0, 60, 64
2, 137297, Note_on_c, 0, 60, 0
2, 137348, Note_on_c, 0, 62, 64
2, 137349, Note_on_c, 0, 69, 82
2, 137352, Note_on_c, 0, 53, 61
2, 137456, Note_on_c, 0, 62, 0
2, 137664, Note_on_c, 0, 53, 0
2, 137664, Note_on_c, 0, 69, 0
2, 137682, Note_on_c, 0, 60, 51
2, 137686, Note_on_c, 0, 52, 50
2, 137698, Note_on_c, 0, 81, 88
2, 137860, Note_on_c, 0, 60, 0
2, 138015, Note_on_c, 0, 52, 0
2, 138016, Note_on_c, 0, 59, 65
2, 138024, Note_on_c, 0, 50, 56
2, 138136, Note_on_c, 0, 50, 0
2, 138393, Note_on_c, 0, 52, 52
2, 138393, Note_on_c, 0, 64, 52
2, 138399, Note_on_c, 0, 79, 77
2, 138402, Control_c, 0, 64, 43
2, 138420, Control_c, 0, 64, 55
2, 138440, Control_c, 0, 64, 59
2, 138450, Note_on_c, 0, 64, 0
2, 138453, Note_on_c, 0, 59, 0
2, 138459, Control_c, 0, 64, 61
2, 138479, Control_c, 0, 64, 63
2, 138497, Control_c, 0, 64, 65
2, 138517, Control_c, 0, 64, 67
2, 138536, Control_c, 0, 64, 70
2, 138542, Note_on_c, 0, 52, 0
2, 138556, Control_c, 0, 64, 75
2, 138559, Note_on_c, 0, 81, 0
2, 138574, Control_c, 0, 64, 82
2, 138593, Control_c, 0, 64, 94
2, 138613, Control_c, 0, 64, 113
2, 138631, Control_c, 0, 64, 127
2, 138690, Control_c, 0, 64, 92
2, 138709, Control_c, 0, 64, 62
2, 138729, Control_c, 0, 64, 0
2, 138737, Note_on_c, 0, 57, 68
2, 138740, Note_on_c, 0, 48, 54
2, 138875, Note_on_c, 0, 48, 0
2, 139052, Note_on_c, 0, 47, 53
2, 139076, Note_on_c, 0, 84, 79
2, 139081, Note_on_c, 0, 79, 0
2, 139111, Note_on_c, 0, 47, 0
2, 139111, Note_on_c, 0, 84, 0
2, 139230, Note_on_c, 0, 83, 74
2, 139266, Note_on_c, 0, 83, 0
2, 139397, Note_on_c, 0, 48, 44
2, 139401, Note_on_c, 0, 81, 80
2, 139506, Note_on_c, 0, 48, 0
2, 139522, Note_on_c, 0, 81, 0
2, 139556, Note_on_c, 0, 79, 75
2, 139598, Note_on_c, 0, 79, 0
2, 139701, Note_on_c, 0, 45, 48
2, 139726, Note_on_c, 0, 78, 63
2, 139768, Note_on_c, 0, 45, 0
2, 139778, Note_on_c, 0, 78, 0
2, 139868, Note_on_c, 0, 76, 62
2, 139932, Note_on_c, 0, 76, 0
2, 140025, Note_on_c, 0, 75, 68
2, 140035, Control_c, 0, 64, 29
2, 140052, Note_on_c, 0, 47, 42
2, 140054, Control_c, 0, 64, 55
2, 140060, Note_on_c, 0, 75, 0
2, 140072, Control_c, 0, 64, 59
2, 140082, Note_on_c, 0, 57, 0
2, 140092, Control_c, 0, 64, 61
2, 140111, Control_c, 0, 64, 63
2, 140130, Control_c, 0, 64, 63
2, 140265, Control_c, 0, 64, 64
2, 140323, Control_c, 0, 64, 62
2, 140341, Control_c, 0, 64, 53
2, 140352, Note_on_c, 0, 55, 48
2, 140353, Note_on_c, 0, 64, 66
2, 140361, Control_c, 0, 64, 0
2, 140387, Note_on_c, 0, 71, 33
2, 140399, Note_on_c, 0, 64, 0
2, 140401, Note_on_c, 0, 55, 0
2, 140424, Note_on_c, 0, 71, 0
2, 140505, Note_on_c, 0, 54, 54
2, 140505, Note_on_c, 0, 63, 64
2, 140548, Note_on_c, 0, 54, 0
2, 140561, Note_on_c, 0, 63, 0
2, 140667, Note_on_c, 0, 55, 54
2, 140675, Note_on_c, 0, 64, 71
2, 140701, Note_on_c, 0, 73, 44
2, 140712, Note_on_c, 0, 55, 0
2, 140719, Note_on_c, 0, 64, 0
2, 140726, Note_on_c, 0, 47, 0
2, 140734, Note_on_c, 0, 73, 0
2, 141003, Note_on_c, 0, 57, 50
2, 141004, Note_on_c, 0, 66, 68
2, 141012, Note_on_c, 0, 45, 37
2, 141060, Note_on_c, 0, 45, 0
2, 141072, Note_on_c, 0, 57, 0
2, 141085, Note_on_c, 0, 66, 0
2, 141338, Control_c, 0, 64, 14
2, 141338, Note_on_c, 0, 59, 57
2, 141341, Note_on_c, 0, 47, 43
2, 141345, Note_on_c, 0, 67, 62
2, 141347, Note_on_c, 0, 76, 50
2, 141358, Control_c, 0, 64, 59
2, 141376, Control_c, 0, 64, 62
2, 141378, Note_on_c, 0, 47, 0
2, 141384, Note_on_c, 0, 59, 0
2, 141415, Control_c, 0, 64, 62
2, 141415, Note_on_c, 0, 76, 0
2, 141435, Control_c, 0, 64, 63
2, 141453, Control_c, 0, 64, 64
2, 141472, Control_c, 0, 64, 66
2, 141492, Control_c, 0, 64, 67
2, 141499, Note_on_c, 0, 67, 0
2, 141499, Note_on_c, 0, 74, 42
2, 141510, Control_c, 0, 64, 70
2, 141530, Control_c, 0, 64, 73
2, 141549, Control_c, 0, 64, 77
2, 141569, Control_c, 0, 64, 80
2, 141587, Control_c, 0, 64, 82
2, 141607, Control_c, 0, 64, 82
2, 141626, Control_c, 0, 64, 80
2, 141646, Control_c, 0, 64, 71
2, 141657, Note_on_c, 0, 74, 0
2, 141662, Note_on_c, 0, 52, 62
2, 141664, Control_c, 0, 64, 54
2, 141676, Note_on_c, 0, 64, 59
2, 141676, Note_on_c, 0, 72, 61
2, 141684, Control_c, 0, 64, 0
2, 141703, Note_on_c, 0, 52, 0
2, 141715, Note_on_c, 0, 72, 0
2, 141813, Note_on_c, 0, 51, 71
2, 141837, Note_on_c, 0, 71, 53
2, 141886, Note_on_c, 0, 51, 0
2, 141990, Note_on_c, 0, 71, 0
2, 142003, Note_on_c, 0, 52, 73
2, 142018, Note_on_c, 0, 72, 65
2, 142046, Note_on_c, 0, 52, 0
2, 142050, Note_on_c, 0, 64, 0
2, 142066, Note_on_c, 0, 72, 0
2, 142339, Note_on_c, 0, 69, 65
2, 142344, Note_on_c, 0, 63, 65
2, 142346, Note_on_c, 0, 54, 67
2, 142380, Note_on_c, 0, 63, 0
2, 142392, Note_on_c, 0, 69, 0
2, 142407, Note_on_c, 0, 54, 0
2, 142668, Note_on_c, 0, 64, 69
2, 142679, Note_on_c, 0, 55, 63
2, 142681, Note_on_c, 0, 71, 78
2, 142721, Control_c, 0, 64, 55
2, 142740, Control_c, 0, 64, 61
2, 142743, Note_on_c, 0, 55, 0
2, 142757, Note_on_c, 0, 71, 0
2, 142759, Control_c, 0, 64, 59
2, 142778, Control_c, 0, 64, 59
2, 142798, Control_c, 0, 64, 60
2, 142816, Control_c, 0, 64, 62
2, 142829, Note_on_c, 0, 69, 75
2, 142836, Control_c, 0, 64, 63
2, 142855, Control_c, 0, 64, 64
2, 142874, Control_c, 0, 64, 64
2, 142912, Control_c, 0, 64, 65
2, 142927, Note_on_c, 0, 69, 0
2, 142932, Control_c, 0, 64, 64
2, 142950, Control_c, 0, 64, 64
2, 142970, Control_c, 0, 64, 59
2, 142988, Note_on_c, 0, 55, 59
2, 142989, Control_c, 0, 64, 0
2, 142999, Note_on_c, 0, 76, 76
2, 143000, Note_on_c, 0, 67, 71
2, 143023, Note_on_c, 0, 64, 0
2, 143031, Note_on_c, 0, 55, 0
2, 143033, Note_on_c, 0, 67, 0
2, 143056, Note_on_c, 0, 76, 0
2, 143142, Note_on_c, 0, 54, 57
2, 143149, Note_on_c, 0, 75, 77
2, 143152, Note_on_c, 0, 69, 54
2, 143181, Note_on_c, 0, 69, 0
2, 143206, Note_on_c, 0, 54, 0
2, 143217, Note_on_c, 0, 75, 0
2, 143328, Note_on_c, 0, 76, 79
2, 143334, Note_on_c, 0, 71, 71
2, 143344, Note_on_c, 0, 55, 51
2, 143366, Note_on_c, 0, 71, 0
2, 143371, Note_on_c, 0, 76, 0
2, 143378, Note_on_c, 0, 55, 0
2, 143658, Note_on_c, 0, 78, 78
2, 143659, Note_on_c, 0, 72, 70
2, 143671, Note_on_c, 0, 57, 61
2, 143700, Control_c, 0, 64, 42
2, 143720, Control_c, 0, 64, 62
2, 143739, Control_c, 0, 64, 64
2, 143759, Control_c, 0, 64, 64
2, 143777, Control_c, 0, 64, 65
2, 143797, Control_c, 0, 64, 66
2, 143816, Control_c, 0, 64, 69
2, 143836, Control_c, 0, 64, 74
2, 143854, Control_c, 0, 64, 80
2, 143873, Control_c, 0, 64, 86
2, 143893, Control_c, 0, 64, 90
2, 143909, Note_on_c, 0, 57, 0
2, 143911, Control_c, 0, 64, 93
2, 143925, Note_on_c, 0, 78, 0
2, 143929, Note_on_c, 0, 72, 0
2, 143950, Control_c, 0, 64, 86
2, 143970, Control_c, 0, 64, 69
2, 143979, Note_on_c, 0, 63, 67
2, 143986, Note_on_c, 0, 59, 66
2, 143988, Control_c, 0, 64, 0
2, 143988, Note_on_c, 0, 79, 82
2, 144021, Note_on_c, 0, 63, 0
2, 144043, Note_on_c, 0, 59, 0
2, 144044, Note_on_c, 0, 79, 0
2, 144130, Note_on_c, 0, 57, 66
2, 144184, Note_on_c, 0, 57, 0
2, 144294, Note_on_c, 0, 55, 60
2, 144307, Note_on_c, 0, 59, 57
2, 144309, Note_on_c, 0, 79, 79
2, 144335, Note_on_c, 0, 55, 0
2, 144342, Note_on_c, 0, 59, 0
2, 144373, Note_on_c, 0, 79, 0
2, 144446, Note_on_c, 0, 57, 65
2, 144459, Note_on_c, 0, 78, 76
2, 144491, Note_on_c, 0, 57, 0
2, 144540, Note_on_c, 0, 78, 0
2, 144624, Note_on_c, 0, 59, 75
2, 144634, Note_on_c, 0, 79, 81
2, 144665, Note_on_c, 0, 59, 0
2, 144701, Note_on_c, 0, 79, 0
2, 144962, Note_on_c, 0, 81, 75
2, 144967, Control_c, 0, 64, 44
2, 144969, Note_on_c, 0, 64, 74
2, 144977, Note_on_c, 0, 60, 65
2, 144986, Control_c, 0, 64, 62
2, 144992, Note_on_c, 0, 81, 0
2, 145006, Control_c, 0, 64, 64
2, 145024, Control_c, 0, 64, 65
2, 145036, Note_on_c, 0, 64, 0
2, 145044, Control_c, 0, 64, 67
2, 145063, Control_c, 0, 64, 70
2, 145082, Control_c, 0, 64, 76
2, 145101, Control_c, 0, 64, 84
2, 145121, Control_c, 0, 64, 94
2, 145140, Control_c, 0, 64, 104
2, 145159, Control_c, 0, 64, 117
2, 145178, Control_c, 0, 64, 127
2, 145272, Control_c, 0, 64, 83
2, 145278, Note_on_c, 0, 51, 76
2, 145291, Control_c, 0, 64, 59
2, 145293, Note_on_c, 0, 60, 0
2, 145305, Note_on_c, 0, 71, 69
2, 145310, Control_c, 0, 64, 0
2, 145310, Note_on_c, 0, 66, 60
2, 145336, Note_on_c, 0, 51, 0
2, 145361, Note_on_c, 0, 66, 0
2, 145458, Note_on_c, 0, 67, 55
2, 145548, Note_on_c, 0, 67, 0
2, 145618, Note_on_c, 0, 47, 66
2, 145633, Note_on_c, 0, 64, 63
2, 145677, Note_on_c, 0, 64, 0
2, 145714, Note_on_c, 0, 47, 0
2, 145782, Note_on_c, 0, 66, 69
2, 145887, Note_on_c, 0, 66, 0
2, 145948, Note_on_c, 0, 67, 71
2, 146070, Note_on_c, 0, 67, 0
2, 146107, Note_on_c, 0, 69, 71
2, 146189, Note_on_c, 0, 69, 0
2, 146269, Note_on_c, 0, 52, 60
2, 146287, Note_on_c, 0, 66, 58
2, 146335, Note_on_c, 0, 52, 0
2, 146348, Note_on_c, 0, 66, 0
2, 146433, Note_on_c, 0, 67, 64
2, 146502, Note_on_c, 0, 67, 0
2, 146596, Note_on_c, 0, 69, 66
2, 146597, Note_on_c, 0, 54, 70
2, 146720, Note_on_c, 0, 54, 0
2, 146729, Note_on_c, 0, 69, 0
2, 146759, Note_on_c, 0, 55, 70
2, 146805, Note_on_c, 0, 55, 0
2, 146917, Note_on_c, 0, 52, 62
2, 146929, Note_on_c, 0, 67, 57
2, 146959, Note_on_c, 0, 52, 0
2, 146974, Note_on_c, 0, 67, 0
2, 147064, Note_on_c, 0, 54, 66
2, 147099, Note_on_c, 0, 54, 0
2, 147211, Note_on_c, 0, 71, 0
2, 147225, Note_on_c, 0, 55, 69
2, 147251, Note_on_c, 0, 66, 70
2, 147285, Note_on_c, 0, 55, 0
2, 147307, Control_c, 0, 64, 34
2, 147327, Control_c, 0, 64, 52
2, 147347, Control_c, 0, 64, 58
2, 147367, Control_c, 0, 64, 59
2, 147374, Note_on_c, 0, 57, 62
2, 147386, Control_c, 0, 64, 59
2, 147406, Control_c, 0, 64, 60
2, 147424, Control_c, 0, 64, 62
2, 147430, Note_on_c, 0, 57, 0
2, 147444, Control_c, 0, 64, 63
2, 147445, Note_on_c, 0, 66, 0
2, 147463, Control_c, 0, 64, 64
2, 147482, Control_c, 0, 64, 66
2, 147501, Control_c, 0, 64, 66
2, 147521, Control_c, 0, 64, 62
2, 147540, Control_c, 0, 64, 28
2, 147542, Note_on_c, 0, 54, 71
2, 147559, Control_c, 0, 64, 0
2, 147567, Note_on_c, 0, 76, 75
2, 147570, Note_on_c, 0, 71, 62
2, 147585, Note_on_c, 0, 54, 0
2, 147615, Note_on_c, 0, 71, 0
2, 147639, Note_on_c, 0, 76, 0
2, 147698, Note_on_c, 0, 55, 62
2, 147709, Note_on_c, 0, 74, 77
2, 147739, Note_on_c, 0, 55, 0
2, 147759, Note_on_c, 0, 74, 0
2, 147879, Note_on_c, 0, 72, 82
2, 147893, Note_on_c, 0, 57, 58
2, 147904, Note_on_c, 0, 64, 60
2, 147961, Note_on_c, 0, 57, 0
2, 147991, Note_on_c, 0, 72, 0
2, 148055, Note_on_c, 0, 71, 83
2, 148146, Note_on_c, 0, 71, 0
2, 148215, Note_on_c, 0, 55, 60
2, 148219, Note_on_c, 0, 69, 80
2, 148263, Note_on_c, 0, 55, 0
2, 148283, Note_on_c, 0, 69, 0
2, 148366, Note_on_c, 0, 71, 84
2, 148441, Note_on_c, 0, 71, 0
2, 148546, Note_on_c, 0, 72, 84
2, 148551, Note_on_c, 0, 54, 55
2, 148660, Note_on_c, 0, 64, 0
2, 148871, Note_on_c, 0, 72, 0
2, 148884, Note_on_c, 0, 71, 70
2, 148885, Note_on_c, 0, 59, 59
2, 148896, Note_on_c, 0, 54, 0
2, 148899, Note_on_c, 0, 63, 51
2, 148963, Note_on_c, 0, 63, 0
2, 149031, Note_on_c, 0, 69, 74
2, 149158, Note_on_c, 0, 59, 0
2, 149195, Note_on_c, 0, 71, 0
2, 149211, Note_on_c, 0, 69, 0
2, 149217, Note_on_c, 0, 67, 68
2, 149221, Note_on_c, 0, 52, 47
2, 149230, Note_on_c, 0, 64, 52
2, 149428, Note_on_c, 0, 52, 0
2, 149568, Note_on_c, 0, 72, 66
2, 149571, Note_on_c, 0, 52, 45
2, 149572, Note_on_c, 0, 67, 0
2, 149607, Note_on_c, 0, 52, 0
2, 149625, Note_on_c, 0, 72, 0
2, 149712, Note_on_c, 0, 71, 63
2, 149718, Note_on_c, 0, 51, 56
2, 149761, Note_on_c, 0, 51, 0
2, 149775, Note_on_c, 0, 71, 0
2, 149834, Note_on_c, 0, 64, 0
2, 149881, Note_on_c, 0, 69, 57
2, 149885, Note_on_c, 0, 72, 67
2, 149905, Note_on_c, 0, 52, 44
2, 149932, Note_on_c, 0, 69, 0
2, 149943, Note_on_c, 0, 52, 0
2, 150060, Note_on_c, 0, 67, 43
2, 150121, Note_on_c, 0, 67, 0
2, 150203, Note_on_c, 0, 54, 58
2, 150222, Note_on_c, 0, 66, 48
2, 150256, Note_on_c, 0, 54, 0
2, 150280, Note_on_c, 0, 66, 0
2, 150375, Note_on_c, 0, 64, 53
2, 150479, Note_on_c, 0, 64, 0
2, 150545, Note_on_c, 0, 55, 54
2, 150554, Note_on_c, 0, 62, 50
2, 150788, Note_on_c, 0, 62, 0
2, 150850, Note_on_c, 0, 72, 0
2, 150888, Note_on_c, 0, 71, 68
2, 150894, Note_on_c, 0, 67, 51
2, 150938, Note_on_c, 0, 67, 0
2, 150971, Note_on_c, 0, 71, 0
2, 151041, Note_on_c, 0, 69, 77
2, 151052, Note_on_c, 0, 65, 54
2, 151085, Note_on_c, 0, 65, 0
2, 151113, Note_on_c, 0, 69, 0
2, 151206, Note_on_c, 0, 64, 77
2, 151210, Note_on_c, 0, 71, 78
2, 151261, Note_on_c, 0, 64, 0
2, 151279, Note_on_c, 0, 71, 0
2, 151361, Note_on_c, 0, 62, 73
2, 151411, Note_on_c, 0, 62, 0
2, 151529, Note_on_c, 0, 61, 66
2, 151531, Note_on_c, 0, 73, 78
2, 151580, Note_on_c, 0, 61, 0
2, 151614, Note_on_c, 0, 73, 0
2, 151696, Note_on_c, 0, 59, 60
2, 151794, Note_on_c, 0, 59, 0
2, 151864, Note_on_c, 0, 74, 71
2, 151873, Note_on_c, 0, 57, 53
2, 151898, Control_c, 0, 64, 20
2, 151918, Control_c, 0, 64, 57
2, 151936, Control_c, 0, 64, 61
2, 151947, Note_on_c, 0, 55, 0
2, 151955, Control_c, 0, 64, 63
2, 151975, Control_c, 0, 64, 63
2, 151994, Control_c, 0, 64, 64
2, 152008, Note_on_c, 0, 74, 0
2, 152013, Control_c, 0, 64, 65
2, 152032, Control_c, 0, 64, 65
2, 152052, Control_c, 0, 64, 66
2, 152070, Control_c, 0, 64, 66
2, 152087, Control_c, 0, 64, 67
2, 152107, Control_c, 0, 64, 68
2, 152126, Control_c, 0, 64, 69
2, 152144, Control_c, 0, 64, 69
2, 152164, Control_c, 0, 64, 63
2, 152183, Control_c, 0, 64, 0
2, 152190, Note_on_c, 0, 54, 51
2, 152194, Note_on_c, 0, 57, 0
2, 152203, Note_on_c, 0, 74, 60
2, 152232, Note_on_c, 0, 54, 0
2, 152278, Note_on_c, 0, 74, 0
2, 152351, Note_on_c, 0, 74, 16
2, 152353, Note_on_c, 0, 72, 57
2, 152356, Note_on_c, 0, 52, 54
2, 152399, Note_on_c, 0, 52, 0
2, 152410, Note_on_c, 0, 72, 0
2, 152511, Note_on_c, 0, 74, 0
2, 152511, Note_on_c, 0, 74, 4
2, 152522, Note_on_c, 0, 54, 61
2, 152530, Note_on_c, 0, 71, 58
2, 152571, Note_on_c, 0, 54, 0
2, 152604, Note_on_c, 0, 71, 0
2, 152683, Note_on_c, 0, 69, 51
2, 152771, Note_on_c, 0, 69, 0
2, 152852, Note_on_c, 0, 56, 57
2, 152872, Note_on_c, 0, 68, 50
2, 152898, Note_on_c, 0, 56, 0
2, 152989, Note_on_c, 0, 68, 0
2, 153021, Note_on_c, 0, 66, 47
2, 153181, Note_on_c, 0, 64, 43
2, 153183, Note_on_c, 0, 66, 0
2, 153184, Note_on_c, 0, 57, 53
2, 153239, Control_c, 0, 64, 43
2, 153258, Control_c, 0, 64, 62
2, 153278, Control_c, 0, 64, 61
2, 153297, Control_c, 0, 64, 62
2, 153316, Control_c, 0, 64, 63
2, 153335, Control_c, 0, 64, 64
2, 153355, Control_c, 0, 64, 66
2, 153373, Control_c, 0, 64, 70
2, 153393, Control_c, 0, 64, 79
2, 153412, Control_c, 0, 64, 101
2, 153422, Note_on_c, 0, 57, 0
2, 153432, Control_c, 0, 64, 127
2, 153458, Note_on_c, 0, 64, 0
2, 153537, Note_on_c, 0, 72, 72
2, 153541, Note_on_c, 0, 57, 77
2, 153547, Control_c, 0, 64, 76
2, 153566, Control_c, 0, 64, 0
2, 153574, Note_on_c, 0, 57, 0
2, 153615, Note_on_c, 0, 74, 0
2, 153644, Note_on_c, 0, 72, 0
2, 153692, Note_on_c, 0, 56, 87
2, 153692, Note_on_c, 0, 71, 66
2, 153755, Note_on_c, 0, 56, 0
2, 153860, Note_on_c, 0, 57, 90
2, 153870, Note_on_c, 0, 71, 0
2, 153880, Note_on_c, 0, 69, 62
2, 153880, Note_on_c, 0, 72, 73
2, 153913, Note_on_c, 0, 57, 0
2, 153968, Note_on_c, 0, 72, 0
2, 154192, Note_on_c, 0, 59, 90
2, 154207, Note_on_c, 0, 74, 74
2, 154252, Note_on_c, 0, 59, 0
2, 154279, Note_on_c, 0, 74, 0
2, 154538, Note_on_c, 0, 60, 82
2, 154560, Note_on_c, 0, 76, 80
2, 154641, Control_c, 0, 64, 36
2, 154660, Control_c, 0, 64, 62
2, 154679, Control_c, 0, 64, 64
2, 154698, Control_c, 0, 64, 66
2, 154698, Note_on_c, 0, 69, 0
2, 154718, Control_c, 0, 64, 70
2, 154734, Note_on_c, 0, 60, 0
2, 154737, Control_c, 0, 64, 79
2, 154756, Control_c, 0, 64, 98
2, 154775, Control_c, 0, 64, 127
2, 154886, Note_on_c, 0, 69, 92
2, 154887, Note_on_c, 0, 60, 73
2, 154890, Control_c, 0, 64, 77
2, 154897, Note_on_c, 0, 57, 59
2, 154910, Control_c, 0, 64, 30
2, 154929, Control_c, 0, 64, 0
2, 154929, Note_on_c, 0, 60, 0
2, 154942, Note_on_c, 0, 69, 0
2, 154942, Note_on_c, 0, 76, 0
2, 154948, Note_on_c, 0, 57, 0
2, 155032, Note_on_c, 0, 68, 91
2, 155050, Note_on_c, 0, 59, 64
2, 155097, Note_on_c, 0, 68, 0
2, 155101, Note_on_c, 0, 59, 0
2, 155217, Note_on_c, 0, 60, 68
2, 155217, Note_on_c, 0, 69, 93
2, 155218, Note_on_c, 0, 81, 93
2, 155235, Note_on_c, 0, 55, 50
2, 155308, Note_on_c, 0, 55, 0
2, 155361, Note_on_c, 0, 69, 0
2, 155496, Note_on_c, 0, 60, 0
2, 155557, Note_on_c, 0, 62, 70
2, 155562, Note_on_c, 0, 71, 87
2, 155566, Note_on_c, 0, 53, 57
2, 155640, Control_c, 0, 64, 53
2, 155659, Control_c, 0, 64, 62
2, 155669, Note_on_c, 0, 53, 0
2, 155679, Control_c, 0, 64, 63
2, 155693, Note_on_c, 0, 62, 0
2, 155697, Control_c, 0, 64, 64
2, 155717, Control_c, 0, 64, 67
2, 155728, Note_on_c, 0, 71, 0
2, 155736, Control_c, 0, 64, 74
2, 155756, Control_c, 0, 64, 88
2, 155774, Control_c, 0, 64, 127
2, 155889, Control_c, 0, 64, 88
2, 155893, Note_on_c, 0, 64, 81
2, 155895, Note_on_c, 0, 52, 58
2, 155897, Note_on_c, 0, 72, 86
2, 155908, Control_c, 0, 64, 45
2, 155927, Control_c, 0, 64, 0
2, 155943, Note_on_c, 0, 79, 28
2, 156001, Note_on_c, 0, 79, 0
2, 156003, Note_on_c, 0, 64, 0
2, 156050, Note_on_c, 0, 62, 75
2, 156051, Note_on_c, 0, 80, 81
2, 156071, Note_on_c, 0, 81, 0
2, 156081, Note_on_c, 0, 72, 0
2, 156112, Note_on_c, 0, 62, 0
2, 156172, Note_on_c, 0, 80, 0
2, 156209, Note_on_c, 0, 52, 0
2, 156214, Note_on_c, 0, 60, 74
2, 156220, Note_on_c, 0, 81, 81
2, 156222, Note_on_c, 0, 72, 73
2, 156254, Note_on_c, 0, 60, 0
2, 156261, Note_on_c, 0, 72, 0
2, 156303, Note_on_c, 0, 81, 0
2, 156360, Note_on_c, 0, 62, 75
2, 156376, Note_on_c, 0, 80, 84
2, 156388, Note_on_c, 0, 71, 70
2, 156401, Note_on_c, 0, 62, 0
2, 156425, Note_on_c, 0, 71, 0
2, 156476, Note_on_c, 0, 80, 0
2, 156547, Note_on_c, 0, 64, 85
2, 156553, Note_on_c, 0, 81, 82
2, 156559, Note_on_c, 0, 72, 68
2, 156599, Note_on_c, 0, 72, 0
2, 156640, Note_on_c, 0, 81, 0
2, 156671, Note_on_c, 0, 64, 0
2, 156891, Note_on_c, 0, 83, 76
2, 156902, Note_on_c, 0, 74, 47
2, 156905, Note_on_c, 0, 65, 82
2, 156943, Control_c, 0, 64, 14
2, 156963, Control_c, 0, 64, 48
2, 156982, Control_c, 0, 64, 57
2, 157002, Control_c, 0, 64, 61
2, 157020, Control_c, 0, 64, 64
2, 157040, Control_c, 0, 64, 67
2, 157059, Control_c, 0, 64, 72
2, 157078, Control_c, 0, 64, 82
2, 157097, Control_c, 0, 64, 98
2, 157117, Control_c, 0, 64, 127
2, 157201, Note_on_c, 0, 83, 0
2, 157209, Note_on_c, 0, 65, 0
2, 157213, Control_c, 0, 64, 84
2, 157213, Note_on_c, 0, 56, 87
2, 157232, Control_c, 0, 64, 56
2, 157242, Note_on_c, 0, 76, 81
2, 157251, Control_c, 0, 64, 0
2, 157271, Note_on_c, 0, 56, 0
2, 157279, Note_on_c, 0, 74, 0
2, 157357, Note_on_c, 0, 76, 0
2, 157406, Note_on_c, 0, 74, 75
2, 157547, Note_on_c, 0, 74, 0
2, 157558, Note_on_c, 0, 52, 63
2, 157569, Note_on_c, 0, 45, 57
2, 157588, Note_on_c, 0, 72, 83
2, 157630, Note_on_c, 0, 45, 0
2, 157662, Note_on_c, 0, 72, 0
2, 157731, Note_on_c, 0, 47, 64
2, 157736, Note_on_c, 0, 74, 76
2, 157785, Note_on_c, 0, 47, 0
2, 157821, Note_on_c, 0, 74, 0
2, 157894, Note_on_c, 0, 48, 66
2, 157903, Note_on_c, 0, 76, 84
2, 157941, Note_on_c, 0, 48, 0
2, 157967, Note_on_c, 0, 52, 0
2, 157981, Note_on_c, 0, 76, 0
2, 158233, Note_on_c, 0, 77, 85
2, 158243, Note_on_c, 0, 57, 57
2, 158243, Note_on_c, 0, 74, 61
2, 158248, Note_on_c, 0, 50, 53
2, 158270, Control_c, 0, 64, 43
2, 158284, Note_on_c, 0, 74, 0
2, 158289, Control_c, 0, 64, 62
2, 158308, Control_c, 0, 64, 64
2, 158327, Control_c, 0, 64, 65
2, 158347, Control_c, 0, 64, 67
2, 158366, Control_c, 0, 64, 71
2, 158373, Note_on_c, 0, 72, 64
2, 158384, Control_c, 0, 64, 82
2, 158387, Note_on_c, 0, 57, 0
2, 158404, Control_c, 0, 64, 101
2, 158423, Control_c, 0, 64, 127
2, 158449, Note_on_c, 0, 72, 0
2, 158476, Note_on_c, 0, 77, 0
2, 158538, Control_c, 0, 64, 90
2, 158548, Note_on_c, 0, 68, 86
2, 158548, Note_on_c, 0, 71, 75
2, 158553, Note_on_c, 0, 59, 72
2, 158558, Control_c, 0, 64, 62
2, 158577, Control_c, 0, 64, 0
2, 158591, Note_on_c, 0, 71, 0
2, 158604, Note_on_c, 0, 59, 0
2, 158628, Note_on_c, 0, 68, 0
2, 158691, Note_on_c, 0, 50, 0
2, 158718, Note_on_c, 0, 60, 60
2, 158760, Note_on_c, 0, 60, 0
2, 158878, Note_on_c, 0, 57, 61
2, 158885, Note_on_c, 0, 64, 72
2, 158892, Note_on_c, 0, 76, 64
2, 158893, Note_on_c, 0, 48, 48
2, 158925, Note_on_c, 0, 57, 0
2, 158963, Note_on_c, 0, 48, 0
2, 158969, Note_on_c, 0, 64, 0
2, 159043, Note_on_c, 0, 74, 59
2, 159055, Note_on_c, 0, 59, 60
2, 159058, Note_on_c, 0, 50, 39
2, 159084, Note_on_c, 0, 76, 0
2, 159100, Note_on_c, 0, 50, 0
2, 159103, Note_on_c, 0, 59, 0
2, 159217, Note_on_c, 0, 52, 52
2, 159218, Note_on_c, 0, 72, 72
2, 159219, Note_on_c, 0, 60, 56
2, 159288, Note_on_c, 0, 60, 0
2, 159301, Note_on_c, 0, 74, 0
2, 159355, Note_on_c, 0, 72, 0
2, 159358, Note_on_c, 0, 52, 0
2, 159379, Note_on_c, 0, 71, 61
2, 159400, Note_on_c, 0, 62, 50
2, 159458, Note_on_c, 0, 62, 0
2, 159504, Note_on_c, 0, 71, 0
2, 159545, Note_on_c, 0, 53, 46
2, 159549, Note_on_c, 0, 59, 50
2, 159556, Note_on_c, 0, 69, 87
2, 159613, Control_c, 0, 64, 58
2, 159616, Note_on_c, 0, 59, 0
2, 159632, Control_c, 0, 64, 62
2, 159641, Note_on_c, 0, 69, 0
2, 159651, Control_c, 0, 64, 62
2, 159671, Control_c, 0, 64, 62
2, 159689, Control_c, 0, 64, 63
2, 159707, Note_on_c, 0, 60, 48
2, 159708, Note_on_c, 0, 68, 61
2, 159709, Control_c, 0, 64, 65
2, 159728, Control_c, 0, 64, 68
2, 159748, Control_c, 0, 64, 73
2, 159763, Note_on_c, 0, 60, 0
2, 159766, Control_c, 0, 64, 82
2, 159785, Control_c, 0, 64, 90
2, 159803, Note_on_c, 0, 68, 0
2, 159805, Control_c, 0, 64, 92
2, 159833, Control_c, 0, 64, 88
2, 159852, Control_c, 0, 64, 72
2, 159871, Control_c, 0, 64, 51
2, 159890, Control_c, 0, 64, 0
2, 159895, Note_on_c, 0, 62, 53
2, 159901, Note_on_c, 0, 71, 84
2, 159926, Note_on_c, 0, 69, 49
2, 159959, Note_on_c, 0, 69, 0
2, 159991, Note_on_c, 0, 71, 0
2, 160051, Note_on_c, 0, 62, 0
2, 160056, Note_on_c, 0, 72, 81
2, 160102, Note_on_c, 0, 53, 0
2, 160124, Note_on_c, 0, 72, 0
2, 160219, Note_on_c, 0, 52, 52
2, 160219, Note_on_c, 0, 60, 59
2, 160223, Note_on_c, 0, 69, 82
2, 160270, Note_on_c, 0, 52, 0
2, 160270, Note_on_c, 0, 60, 0
2, 160278, Note_on_c, 0, 69, 0
2, 160370, Note_on_c, 0, 50, 60
2, 160376, Note_on_c, 0, 71, 78
2, 160435, Note_on_c, 0, 50, 0
2, 160504, Note_on_c, 0, 71, 0
2, 160545, Note_on_c, 0, 72, 75
2, 160551, Note_on_c, 0, 52, 48
2, 160555, Note_on_c, 0, 68, 69
2, 160557, Note_on_c, 0, 59, 55
2, 160591, Control_c, 0, 64, 45
2, 160610, Control_c, 0, 64, 52
2, 160630, Control_c, 0, 64, 55
2, 160644, Note_on_c, 0, 68, 0
2, 160648, Control_c, 0, 64, 57
2, 160668, Control_c, 0, 64, 58
2, 160687, Control_c, 0, 64, 59
2, 160706, Control_c, 0, 64, 60
2, 160708, Note_on_c, 0, 74, 75
2, 160725, Control_c, 0, 64, 59
2, 160738, Note_on_c, 0, 72, 0
2, 160744, Control_c, 0, 64, 59
2, 160764, Control_c, 0, 64, 58
2, 160783, Control_c, 0, 64, 57
2, 160802, Note_on_c, 0, 74, 0
2, 160803, Control_c, 0, 64, 53
2, 160822, Control_c, 0, 64, 42
2, 160842, Control_c, 0, 64, 0
2, 160858, Note_on_c, 0, 52, 0
2, 160862, Note_on_c, 0, 48, 55
2, 160877, Note_on_c, 0, 71, 82
2, 160891, Note_on_c, 0, 64, 65
2, 160934, Note_on_c, 0, 64, 0
2, 160959, Note_on_c, 0, 71, 0
2, 161036, Note_on_c, 0, 72, 85
2, 161068, Note_on_c, 0, 59, 0
2, 161119, Note_on_c, 0, 72, 0
2, 161218, Note_on_c, 0, 57, 48
2, 161220, Note_on_c, 0, 74, 76
2, 161230, Note_on_c, 0, 53, 45
2, 161237, Note_on_c, 0, 69, 60
2, 161378, Note_on_c, 0, 53, 0
2, 161456, Note_on_c, 0, 69, 0
2, 161490, Note_on_c, 0, 48, 0
2, 161529, Note_on_c, 0, 74, 0
2, 161552, Note_on_c, 0, 52, 49
2, 161559, Note_on_c, 0, 72, 77
2, 161702, Note_on_c, 0, 52, 0
2, 161722, Note_on_c, 0, 50, 57
2, 161765, Note_on_c, 0, 57, 0
2, 161776, Note_on_c, 0, 72, 0
2, 161868, Note_on_c, 0, 52, 51
2, 161880, Note_on_c, 0, 71, 79
2, 162000, Note_on_c, 0, 52, 0
2, 162030, Note_on_c, 0, 53, 57
2, 162060, Note_on_c, 0, 50, 0
2, 162164, Note_on_c, 0, 53, 0
2, 162206, Note_on_c, 0, 76, 71
2, 162211, Note_on_c, 0, 52, 49
2, 162216, Note_on_c, 0, 55, 50
2, 162390, Note_on_c, 0, 50, 54
2, 162391, Note_on_c, 0, 52, 0
2, 162549, Note_on_c, 0, 50, 0
2, 162550, Note_on_c, 0, 69, 79
2, 162574, Note_on_c, 0, 49, 56
2, 162641, Note_on_c, 0, 71, 0
2, 162649, Note_on_c, 0, 55, 0
2, 162675, Note_on_c, 0, 76, 0
2, 162861, Note_on_c, 0, 49, 0
2, 162869, Note_on_c, 0, 53, 64
2, 162884, Note_on_c, 0, 45, 44
2, 163007, Note_on_c, 0, 53, 0
2, 163020, Note_on_c, 0, 52, 66
2, 163150, Note_on_c, 0, 52, 0
2, 163197, Note_on_c, 0, 53, 72
2, 163208, Note_on_c, 0, 50, 50
2, 163367, Note_on_c, 0, 77, 79
2, 163378, Note_on_c, 0, 69, 0
2, 163381, Note_on_c, 0, 45, 0
2, 163441, Note_on_c, 0, 77, 0
2, 163533, Note_on_c, 0, 74, 75
2, 163538, Note_on_c, 0, 48, 46
2, 163553, Note_on_c, 0, 50, 0
2, 163573, Note_on_c, 0, 74, 0
2, 163671, Note_on_c, 0, 71, 76
2, 163745, Note_on_c, 0, 71, 0
2, 163830, Note_on_c, 0, 48, 0
2, 163853, Note_on_c, 0, 47, 51
2, 163872, Note_on_c, 0, 67, 71
2, 164003, Note_on_c, 0, 53, 0
2, 164190, Note_on_c, 0, 47, 0
2, 164209, Note_on_c, 0, 52, 53
2, 164216, Note_on_c, 0, 43, 44
2, 164336, Note_on_c, 0, 52, 0
2, 164365, Note_on_c, 0, 50, 58
2, 164520, Note_on_c, 0, 50, 0
2, 164540, Note_on_c, 0, 52, 55
2, 164558, Note_on_c, 0, 48, 43
2, 164651, Note_on_c, 0, 67, 0
2, 164703, Note_on_c, 0, 76, 69
2, 164760, Note_on_c, 0, 76, 0
2, 164791, Note_on_c, 0, 48, 0
2, 164864, Note_on_c, 0, 72, 70
2, 164867, Note_on_c, 0, 47, 46
2, 164871, Note_on_c, 0, 43, 0
2, 164900, Note_on_c, 0, 72, 0
2, 165022, Note_on_c, 0, 69, 66
2, 165064, Note_on_c, 0, 69, 0
2, 165174, Note_on_c, 0, 47, 0
2, 165205, Note_on_c, 0, 45, 39
2, 165207, Note_on_c, 0, 65, 59
2, 165350, Note_on_c, 0, 52, 0
2, 165522, Note_on_c, 0, 65, 0
2, 165535, Note_on_c, 0, 47, 45
2, 165537, Note_on_c, 0, 67, 62
2, 165594, Note_on_c, 0, 67, 0
2, 165600, Note_on_c, 0, 47, 0
2, 165675, Note_on_c, 0, 48, 45
2, 165690, Note_on_c, 0, 69, 69
2, 165698, Note_on_c, 0, 45, 0
2, 165735, Note_on_c, 0, 69, 0
2, 165751, Note_on_c, 0, 48, 0
2, 165856, Note_on_c, 0, 50, 46
2, 165861, Note_on_c, 0, 47, 42
2, 165865, Note_on_c, 0, 67, 62
2, 165950, Note_on_c, 0, 67, 0
2, 166012, Note_on_c, 0, 65, 57
2, 166087, Note_on_c, 0, 65, 0
2, 166126, Note_on_c, 0, 47, 0
2, 166169, Note_on_c, 0, 43, 39
2, 166174, Note_on_c, 0, 64, 58
2, 166226, Note_on_c, 0, 50, 0
2, 166231, Note_on_c, 0, 64, 0
2, 166327, Note_on_c, 0, 65, 57
2, 166384, Note_on_c, 0, 65, 0
2, 166436, Note_on_c, 0, 43, 0
2, 166490, Note_on_c, 0, 48, 44
2, 166497, Note_on_c, 0, 64, 61
2, 166527, Note_on_c, 0, 48, 0
2, 166651, Note_on_c, 0, 48, 43
2, 166825, Note_on_c, 0, 50, 47
2, 166925, Note_on_c, 0, 50, 0
2, 166975, Note_on_c, 0, 52, 47
2, 167109, Note_on_c, 0, 52, 0
2, 167134, Note_on_c, 0, 53, 51
2, 167208, Note_on_c, 0, 53, 0
2, 167295, Note_on_c, 0, 55, 44
2, 167350, Note_on_c, 0, 55, 0
2, 167432, Note_on_c, 0, 57, 57
2, 167447, Note_on_c, 0, 47, 46
2, 167467, Note_on_c, 0, 48, 0
2, 167484, Note_on_c, 0, 57, 0
2, 167534, Note_on_c, 0, 47, 0
2, 167561, Note_on_c, 0, 64, 0
2, 167605, Note_on_c, 0, 59, 56
2, 167642, Note_on_c, 0, 59, 0
2, 167767, Note_on_c, 0, 45, 43
2, 167783, Note_on_c, 0, 60, 58
2, 167936, Note_on_c, 0, 62, 57
2, 168022, Note_on_c, 0, 62, 0
2, 168051, Note_on_c, 0, 60, 0
2, 168097, Note_on_c, 0, 64, 62
2, 168149, Note_on_c, 0, 64, 0
2, 168250, Note_on_c, 0, 65, 55
2, 168397, Note_on_c, 0, 60, 7
2, 168411, Note_on_c, 0, 65, 0
2, 168411, Note_on_c, 0, 67, 61
2, 168484, Note_on_c, 0, 67, 0
2, 168569, Note_on_c, 0, 69, 64
2, 168624, Note_on_c, 0, 69, 0
2, 168733, Note_on_c, 0, 71, 59
2, 168736, Note_on_c, 0, 43, 54
2, 168783, Note_on_c, 0, 71, 0
2, 168801, Note_on_c, 0, 45, 0
2, 168885, Note_on_c, 0, 72, 64
2, 168915, Note_on_c, 0, 43, 0
2, 168931, Note_on_c, 0, 72, 0
2, 169042, Note_on_c, 0, 41, 51
2, 169056, Note_on_c, 0, 62, 64
2, 169083, Note_on_c, 0, 41, 0
2, 169167, Note_on_c, 0, 62, 0
2, 169213, Note_on_c, 0, 55, 48
2, 169215, Note_on_c, 0, 64, 61
2, 169271, Note_on_c, 0, 55, 0
2, 169303, Note_on_c, 0, 64, 0
2, 169363, Note_on_c, 0, 53, 55
2, 169380, Note_on_c, 0, 62, 59
2, 169411, Note_on_c, 0, 53, 0
2, 169448, Note_on_c, 0, 62, 0
2, 169505, Note_on_c, 0, 60, 0
2, 169519, Note_on_c, 0, 64, 71
2, 169524, Note_on_c, 0, 52, 55
2, 169576, Note_on_c, 0, 52, 0
2, 169598, Note_on_c, 0, 64, 0
2, 169686, Note_on_c, 0, 65, 65
2, 169691, Note_on_c, 0, 50, 55
2, 169775, Note_on_c, 0, 50, 0
2, 169844, Note_on_c, 0, 64, 64
2, 169858, Note_on_c, 0, 48, 48
2, 169910, Note_on_c, 0, 48, 0
2, 169936, Note_on_c, 0, 64, 0
2, 170002, Note_on_c, 0, 62, 60
2, 170003, Note_on_c, 0, 47, 60
2, 170046, Note_on_c, 0, 47, 0
2, 170073, Note_on_c, 0, 62, 0
2, 170153, Note_on_c, 0, 60, 55
2, 170157, Note_on_c, 0, 45, 52
2, 170206, Note_on_c, 0, 60, 0
2, 170215, Note_on_c, 0, 45, 0
2, 170290, Note_on_c, 0, 43, 60
2, 170291, Control_c, 0, 64, 29
2, 170296, Note_on_c, 0, 65, 0
2, 170301, Note_on_c, 0, 59, 74
2, 170310, Control_c, 0, 64, 59
2, 170329, Control_c, 0, 64, 65
2, 170330, Note_on_c, 0, 65, 10
2, 170331, Note_on_c, 0, 59, 0
2, 170333, Note_on_c, 0, 43, 0
2, 170348, Control_c, 0, 64, 69
2, 170363, Note_on_c, 0, 65, 0
2, 170368, Control_c, 0, 64, 71
2, 170387, Control_c, 0, 64, 74
2, 170407, Control_c, 0, 64, 76
2, 170426, Control_c, 0, 64, 77
2, 170446, Control_c, 0, 64, 78
2, 170458, Note_on_c, 0, 69, 70
2, 170464, Control_c, 0, 64, 78
2, 170484, Control_c, 0, 64, 80
2, 170503, Control_c, 0, 64, 82
2, 170522, Control_c, 0, 64, 87
2, 170541, Control_c, 0, 64, 94
2, 170561, Control_c, 0, 64, 99
2, 170580, Control_c, 0, 64, 87
2, 170597, Note_on_c, 0, 69, 0
2, 170598, Control_c, 0, 64, 63
2, 170618, Control_c, 0, 64, 0
2, 170634, Note_on_c, 0, 72, 90
2, 170644, Note_on_c, 0, 67, 63
2, 170655, Note_on_c, 0, 55, 59
2, 170667, Note_on_c, 0, 64, 53
2, 170677, Note_on_c, 0, 72, 0
2, 170681, Note_on_c, 0, 67, 0
2, 170703, Note_on_c, 0, 64, 0
2, 170790, Note_on_c, 0, 71, 78
2, 170803, Note_on_c, 0, 62, 51
2, 170836, Note_on_c, 0, 65, 9
2, 170854, Note_on_c, 0, 65, 0
2, 170866, Note_on_c, 0, 71, 0
2, 170927, Note_on_c, 0, 62, 0
2, 170959, Note_on_c, 0, 72, 90
2, 170964, Note_on_c, 0, 64, 69
2, 170972, Note_on_c, 0, 60, 62
2, 170982, Note_on_c, 0, 55, 0
2, 170999, Note_on_c, 0, 64, 0
2, 171018, Note_on_c, 0, 72, 0
2, 171037, Note_on_c, 0, 60, 0
2, 171126, Note_on_c, 0, 59, 48
2, 171259, Note_on_c, 0, 59, 0
2, 171282, Note_on_c, 0, 74, 81
2, 171283, Note_on_c, 0, 69, 72
2, 171292, Note_on_c, 0, 53, 46
2, 171297, Note_on_c, 0, 57, 48
2, 171316, Note_on_c, 0, 69, 0
2, 171339, Note_on_c, 0, 74, 0
2, 171453, Note_on_c, 0, 59, 46
2, 171510, Note_on_c, 0, 57, 0
2, 171621, Note_on_c, 0, 76, 82
2, 171628, Note_on_c, 0, 59, 0
2, 171634, Note_on_c, 0, 60, 55
2, 171638, Note_on_c, 0, 67, 53
2, 171661, Note_on_c, 0, 53, 0
2, 171673, Control_c, 0, 64, 36
2, 171692, Control_c, 0, 64, 52
2, 171711, Control_c, 0, 64, 55
2, 171731, Control_c, 0, 64, 58
2, 171750, Control_c, 0, 64, 60
2, 171769, Control_c, 0, 64, 61
2, 171788, Control_c, 0, 64, 62
2, 171808, Control_c, 0, 64, 63
2, 171826, Control_c, 0, 64, 64
2, 171846, Control_c, 0, 64, 66
2, 171852, Note_on_c, 0, 76, 0
2, 171865, Control_c, 0, 64, 69
2, 171885, Control_c, 0, 64, 74
2, 171903, Control_c, 0, 64, 80
2, 171923, Control_c, 0, 64, 86
2, 171942, Control_c, 0, 64, 85
2, 171959, Note_on_c, 0, 48, 78
2, 171961, Control_c, 0, 64, 70
2, 171980, Control_c, 0, 64, 11
2, 171994, Note_on_c, 0, 76, 60
2, 171999, Control_c, 0, 64, 0
2, 172018, Note_on_c, 0, 48, 0
2, 172051, Note_on_c, 0, 76, 0
2, 172105, Note_on_c, 0, 47, 79
2, 172127, Note_on_c, 0, 74, 58
2, 172162, Note_on_c, 0, 47, 0
2, 172201, Note_on_c, 0, 74, 0
2, 172282, Note_on_c, 0, 48, 80
2, 172300, Note_on_c, 0, 76, 71
2, 172332, Note_on_c, 0, 48, 0
2, 172350, Note_on_c, 0, 76, 0
2, 172605, Note_on_c, 0, 50, 79
2, 172621, Note_on_c, 0, 77, 75
2, 172664, Note_on_c, 0, 50, 0
2, 172695, Note_on_c, 0, 77, 0
2, 172953, Note_on_c, 0, 52, 77
2, 172957, Note_on_c, 0, 79, 80
2, 172979, Control_c, 0, 64, 17
2, 172980, Note_on_c, 0, 67, 0
2, 172990, Note_on_c, 0, 60, 0
2, 172997, Control_c, 0, 64, 66
2, 173017, Control_c, 0, 64, 70
2, 173018, Note_on_c, 0, 52, 0
2, 173036, Control_c, 0, 64, 73
2, 173056, Control_c, 0, 64, 72
2, 173088, Note_on_c, 0, 79, 0
2, 173094, Control_c, 0, 64, 73
2, 173101, Note_on_c, 0, 77, 73
2, 173132, Control_c, 0, 64, 73
2, 173151, Control_c, 0, 64, 74
2, 173171, Control_c, 0, 64, 75
2, 173199, Note_on_c, 0, 77, 0
2, 173209, Control_c, 0, 64, 74
2, 173228, Control_c, 0, 64, 69
2, 173248, Control_c, 0, 64, 40
2, 173255, Note_on_c, 0, 52, 64
2, 173266, Control_c, 0, 64, 0
2, 173266, Note_on_c, 0, 55, 59
2, 173267, Note_on_c, 0, 76, 84
2, 173294, Note_on_c, 0, 72, 43
2, 173296, Note_on_c, 0, 52, 0
2, 173327, Note_on_c, 0, 72, 0
2, 173329, Note_on_c, 0, 55, 0
2, 173336, Note_on_c, 0, 76, 0
2, 173402, Note_on_c, 0, 50, 60
2, 173411, Note_on_c, 0, 77, 84
2, 173451, Note_on_c, 0, 50, 0
2, 173494, Note_on_c, 0, 77, 0
2, 173572, Note_on_c, 0, 52, 60
2, 173581, Note_on_c, 0, 79, 90
2, 173595, Note_on_c, 0, 71, 59
2, 173610, Note_on_c, 0, 52, 0
2, 173622, Note_on_c, 0, 71, 0
2, 173645, Note_on_c, 0, 79, 0
2, 173913, Note_on_c, 0, 54, 58
2, 173916, Note_on_c, 0, 69, 69
2, 173916, Note_on_c, 0, 81, 89
2, 173932, Note_on_c, 0, 62, 51
2, 173957, Control_c, 0, 64, 47
2, 173977, Control_c, 0, 64, 64
2, 173996, Control_c, 0, 64, 65
2, 174016, Control_c, 0, 64, 67
2, 174033, Control_c, 0, 64, 68
2, 174039, Note_on_c, 0, 81, 0
2, 174053, Control_c, 0, 64, 71
2, 174072, Control_c, 0, 64, 77
2, 174091, Control_c, 0, 64, 85
2, 174110, Control_c, 0, 64, 97
2, 174130, Control_c, 0, 64, 120
2, 174137, Note_on_c, 0, 54, 0
2, 174149, Control_c, 0, 64, 127
2, 174207, Control_c, 0, 64, 109
2, 174226, Control_c, 0, 64, 70
2, 174245, Control_c, 0, 64, 0
2, 174246, Note_on_c, 0, 55, 63
2, 174250, Note_on_c, 0, 71, 81
2, 174261, Note_on_c, 0, 67, 48
2, 174264, Note_on_c, 0, 69, 0
2, 174277, Note_on_c, 0, 62, 0
2, 174293, Note_on_c, 0, 67, 0
2, 174295, Note_on_c, 0, 55, 0
2, 174312, Note_on_c, 0, 71, 0
2, 174393, Note_on_c, 0, 53, 64
2, 174448, Note_on_c, 0, 53, 0
2, 174562, Note_on_c, 0, 52, 57
2, 174565, Note_on_c, 0, 64, 65
2, 174566, Note_on_c, 0, 67, 76
2, 174608, Note_on_c, 0, 52, 0
2, 174610, Note_on_c, 0, 64, 0
2, 174640, Note_on_c, 0, 67, 0
2, 174723, Note_on_c, 0, 53, 62
2, 174781, Note_on_c, 0, 53, 0
2, 174887, Note_on_c, 0, 65, 64
2, 174893, Note_on_c, 0, 55, 63
2, 174906, Note_on_c, 0, 62, 53
2, 174942, Note_on_c, 0, 65, 0
2, 174944, Note_on_c, 0, 62, 0
2, 175002, Note_on_c, 0, 55, 0
2, 175227, Note_on_c, 0, 72, 71
2, 175235, Note_on_c, 0, 60, 57
2, 175237, Note_on_c, 0, 57, 67
2, 175249, Note_on_c, 0, 64, 41
2, 175263, Control_c, 0, 64, 62
2, 175275, Note_on_c, 0, 60, 0
2, 175282, Note_on_c, 0, 72, 0
2, 175283, Control_c, 0, 64, 66
2, 175286, Note_on_c, 0, 64, 0
2, 175302, Control_c, 0, 64, 68
2, 175320, Control_c, 0, 64, 69
2, 175327, Note_on_c, 0, 57, 0
2, 175340, Control_c, 0, 64, 74
2, 175359, Control_c, 0, 64, 81
2, 175379, Control_c, 0, 64, 93
2, 175397, Control_c, 0, 64, 115
2, 175417, Control_c, 0, 64, 127
2, 175532, Control_c, 0, 64, 84
2, 175548, Note_on_c, 0, 47, 70
2, 175551, Control_c, 0, 64, 55
2, 175551, Note_on_c, 0, 55, 71
2, 175566, Note_on_c, 0, 74, 75
2, 175571, Control_c, 0, 64, 0
2, 175576, Note_on_c, 0, 62, 65
2, 175599, Note_on_c, 0, 47, 0
2, 175619, Note_on_c, 0, 62, 0
2, 175662, Note_on_c, 0, 74, 0
2, 175730, Note_on_c, 0, 67, 58
2, 175735, Note_on_c, 0, 76, 70
2, 175773, Note_on_c, 0, 67, 0
2, 175845, Note_on_c, 0, 76, 0
2, 175882, Note_on_c, 0, 43, 57
2, 175899, Note_on_c, 0, 72, 71
2, 175946, Note_on_c, 0, 72, 0
2, 175954, Note_on_c, 0, 43, 0
2, 176048, Note_on_c, 0, 71, 61
2, 176056, Note_on_c, 0, 74, 71
2, 176079, Note_on_c, 0, 71, 0
2, 176116, Note_on_c, 0, 74, 0
2, 176219, Note_on_c, 0, 76, 76
2, 176226, Note_on_c, 0, 55, 0
2, 176233, Note_on_c, 0, 72, 53
2, 176369, Note_on_c, 0, 76, 0
2, 176394, Note_on_c, 0, 77, 60
2, 176477, Note_on_c, 0, 77, 0
2, 176537, Note_on_c, 0, 48, 63
2, 176550, Note_on_c, 0, 74, 68
2, 176577, Note_on_c, 0, 48, 0
2, 176646, Note_on_c, 0, 74, 0
2, 176701, Note_on_c, 0, 76, 74
2, 176791, Note_on_c, 0, 76, 0
2, 176864, Note_on_c, 0, 50, 72
2, 176864, Note_on_c, 0, 77, 75
2, 176949, Note_on_c, 0, 50, 0
2, 176970, Note_on_c, 0, 77, 0
2, 176992, Note_on_c, 0, 72, 0
2, 177016, Note_on_c, 0, 52, 73
2, 177060, Note_on_c, 0, 52, 0
2, 177178, Note_on_c, 0, 48, 68
2, 177188, Note_on_c, 0, 76, 74
2, 177223, Note_on_c, 0, 48, 0
2, 177249, Note_on_c, 0, 76, 0
2, 177343, Note_on_c, 0, 50, 65
2, 177386, Note_on_c, 0, 50, 0
2, 177496, Note_on_c, 0, 52, 66
2, 177503, Note_on_c, 0, 74, 73
2, 177509, Control_c, 0, 64, 38
2, 177528, Control_c, 0, 64, 48
2, 177532, Note_on_c, 0, 71, 53
2, 177547, Control_c, 0, 64, 53
2, 177557, Note_on_c, 0, 52, 0
2, 177567, Control_c, 0, 64, 55
2, 177576, Note_on_c, 0, 74, 0
2, 177586, Control_c, 0, 64, 57
2, 177605, Control_c, 0, 64, 58
2, 177624, Control_c, 0, 64, 59
2, 177644, Control_c, 0, 64, 59
2, 177650, Note_on_c, 0, 53, 61
2, 177662, Control_c, 0, 64, 60
2, 177682, Control_c, 0, 64, 61
2, 177689, Note_on_c, 0, 53, 0
2, 177701, Control_c, 0, 64, 61
2, 177720, Control_c, 0, 64, 60
2, 177739, Control_c, 0, 64, 53
2, 177758, Control_c, 0, 64, 0
2, 177766, Note_on_c, 0, 71, 0
2, 177823, Note_on_c, 0, 79, 76
2, 177832, Note_on_c, 0, 52, 45
2, 177834, Note_on_c, 0, 57, 50
2, 177834, Note_on_c, 0, 70, 58
2, 177878, Note_on_c, 0, 57, 0
2, 177886, Note_on_c, 0, 52, 0
2, 177888, Note_on_c, 0, 79, 0
2, 177889, Control_c, 0, 64, 46
2, 177908, Control_c, 0, 64, 59
2, 177920, Note_on_c, 0, 70, 0
2, 177928, Control_c, 0, 64, 60
2, 177946, Control_c, 0, 64, 61
2, 177966, Control_c, 0, 64, 62
2, 177966, Note_on_c, 0, 53, 64
2, 177985, Control_c, 0, 64, 63
2, 178002, Note_on_c, 0, 53, 0
2, 178005, Control_c, 0, 64, 64
2, 178023, Control_c, 0, 64, 65
2, 178043, Control_c, 0, 64, 67
2, 178066, Control_c, 0, 64, 70
2, 178085, Control_c, 0, 64, 72
2, 178104, Control_c, 0, 64, 69
2, 178124, Control_c, 0, 64, 58
2, 178142, Control_c, 0, 64, 0
2, 178154, Note_on_c, 0, 53, 51
2, 178165, Note_on_c, 0, 72, 76
2, 178167, Note_on_c, 0, 57, 65
2, 178260, Note_on_c, 0, 57, 0
2, 178287, Note_on_c, 0, 53, 0
2, 178315, Note_on_c, 0, 59, 70
2, 178323, Note_on_c, 0, 71, 69
2, 178351, Note_on_c, 0, 72, 0
2, 178360, Note_on_c, 0, 59, 0
2, 178398, Note_on_c, 0, 71, 0
2, 178486, Note_on_c, 0, 52, 50
2, 178487, Note_on_c, 0, 55, 47
2, 178495, Note_on_c, 0, 74, 76
2, 178531, Note_on_c, 0, 55, 0
2, 178539, Note_on_c, 0, 52, 0
2, 178570, Note_on_c, 0, 74, 0
2, 178646, Note_on_c, 0, 57, 56
2, 178650, Note_on_c, 0, 72, 78
2, 178675, Note_on_c, 0, 55, 9
2, 178687, Note_on_c, 0, 57, 0
2, 178727, Note_on_c, 0, 72, 0
2, 178744, Note_on_c, 0, 55, 0
2, 178817, Note_on_c, 0, 59, 62
2, 178825, Note_on_c, 0, 50, 44
2, 178827, Note_on_c, 0, 71, 75
2, 178873, Note_on_c, 0, 59, 0
2, 178960, Note_on_c, 0, 71, 0
2, 178978, Note_on_c, 0, 69, 60
2, 178981, Note_on_c, 0, 60, 46
2, 179018, Note_on_c, 0, 60, 0
2, 179067, Note_on_c, 0, 69, 0
2, 179131, Note_on_c, 0, 57, 53
2, 179144, Note_on_c, 0, 67, 69
2, 179152, Note_on_c, 0, 55, 29
2, 179177, Note_on_c, 0, 57, 0
2, 179200, Note_on_c, 0, 67, 0
2, 179203, Note_on_c, 0, 55, 0
2, 179221, Note_on_c, 0, 50, 0
2, 179292, Note_on_c, 0, 59, 52
2, 179299, Note_on_c, 0, 65, 63
2, 179325, Note_on_c, 0, 59, 0
2, 179396, Note_on_c, 0, 65, 0
2, 179470, Note_on_c, 0, 48, 58
2, 179473, Note_on_c, 0, 60, 68
2, 179478, Note_on_c, 0, 64, 65
2, 179506, Control_c, 0, 64, 23
2, 179525, Control_c, 0, 64, 54
2, 179544, Control_c, 0, 64, 57
2, 179564, Control_c, 0, 64, 59
2, 179582, Control_c, 0, 64, 60
2, 179601, Control_c, 0, 64, 62
2, 179621, Control_c, 0, 64, 63
2, 179640, Control_c, 0, 64, 64
2, 179659, Control_c, 0, 64, 65
2, 179665, Note_on_c, 0, 60, 0
2, 179678, Control_c, 0, 64, 67
2, 179698, Control_c, 0, 64, 70
2, 179716, Control_c, 0, 64, 74
2, 179736, Control_c, 0, 64, 80
2, 179755, Control_c, 0, 64, 83
2, 179760, Note_on_c, 0, 48, 0
2, 179775, Control_c, 0, 64, 79
2, 179790, Control_c, 0, 64, 66
2, 179794, Note_on_c, 0, 64, 0
2, 179797, Note_on_c, 0, 50, 62
2, 179799, Note_on_c, 0, 65, 69
2, 179805, Note_on_c, 0, 59, 62
2, 179809, Control_c, 0, 64, 0
2, 179841, Note_on_c, 0, 59, 0
2, 179858, Note_on_c, 0, 50, 0
2, 179875, Note_on_c, 0, 65, 0
2, 179952, Note_on_c, 0, 67, 75
2, 179953, Note_on_c, 0, 52, 59
2, 180010, Note_on_c, 0, 67, 0
2, 180016, Note_on_c, 0, 52, 0
2, 180118, Note_on_c, 0, 69, 78
2, 180119, Note_on_c, 0, 53, 58
2, 180138, Note_on_c, 0, 57, 66
2, 180250, Note_on_c, 0, 57, 0
2, 180283, Note_on_c, 0, 71, 75
2, 180297, Note_on_c, 0, 69, 0
2, 180360, Note_on_c, 0, 71, 0
2, 180452, Note_on_c, 0, 72, 82
2, 180453, Note_on_c, 0, 62, 63
2, 180513, Note_on_c, 0, 72, 0
2, 180613, Note_on_c, 0, 74, 78
2, 180703, Note_on_c, 0, 74, 0
2, 180750, Note_on_c, 0, 62, 0
2, 180785, Note_on_c, 0, 71, 79
2, 180944, Note_on_c, 0, 64, 65
2, 181033, Note_on_c, 0, 64, 0
2, 181101, Note_on_c, 0, 69, 77
2, 181105, Note_on_c, 0, 60, 68
2, 181113, Note_on_c, 0, 71, 0
2, 181142, Note_on_c, 0, 60, 0
2, 181196, Note_on_c, 0, 69, 0
2, 181256, Note_on_c, 0, 67, 70
2, 181262, Note_on_c, 0, 62, 59
2, 181306, Note_on_c, 0, 62, 0
2, 181329, Note_on_c, 0, 67, 0
2, 181423, Note_on_c, 0, 53, 0
2, 181434, Note_on_c, 0, 64, 60
2, 181434, Note_on_c, 0, 72, 80
2, 181440, Note_on_c, 0, 52, 56
2, 181493, Note_on_c, 0, 64, 0
2, 181587, Note_on_c, 0, 65, 61
2, 181654, Note_on_c, 0, 65, 0
2, 181670, Note_on_c, 0, 52, 0
2, 181747, Note_on_c, 0, 57, 38
2, 181756, Note_on_c, 0, 60, 39
2, 181757, Note_on_c, 0, 62, 57
2, 181800, Note_on_c, 0, 62, 0
2, 181801, Note_on_c, 0, 57, 0
2, 181816, Note_on_c, 0, 60, 0
2, 181906, Note_on_c, 0, 64, 59
2, 181951, Note_on_c, 0, 64, 0
2, 182063, Note_on_c, 0, 65, 57
2, 182083, Note_on_c, 0, 50, 49
2, 182087, Note_on_c, 0, 62, 46
2, 182116, Note_on_c, 0, 65, 0
2, 182129, Note_on_c, 0, 62, 0
2, 182148, Note_on_c, 0, 50, 0
2, 182253, Note_on_c, 0, 53, 58
2, 182299, Note_on_c, 0, 53, 0
2, 182404, Note_on_c, 0, 64, 62
2, 182416, Note_on_c, 0, 52, 52
2, 182416, Note_on_c, 0, 55, 55
2, 182449, Note_on_c, 0, 72, 0
2, 182457, Note_on_c, 0, 55, 0
2, 182458, Note_on_c, 0, 64, 0
2, 182464, Note_on_c, 0, 52, 0
2, 182540, Control_c, 0, 64, 36
2, 182559, Control_c, 0, 64, 49
2, 182566, Note_on_c, 0, 53, 53
2, 182569, Note_on_c, 0, 57, 51
2, 182579, Control_c, 0, 64, 54
2, 182597, Control_c, 0, 64, 56
2, 182611, Note_on_c, 0, 57, 0
2, 182617, Control_c, 0, 64, 56
2, 182618, Note_on_c, 0, 53, 0
2, 182656, Control_c, 0, 64, 54
2, 182674, Control_c, 0, 64, 40
2, 182694, Control_c, 0, 64, 0
2, 182731, Note_on_c, 0, 59, 52
2, 182739, Note_on_c, 0, 71, 69
2, 182743, Note_on_c, 0, 55, 47
2, 182752, Note_on_c, 0, 62, 48
2, 182766, Note_on_c, 0, 59, 0
2, 182777, Note_on_c, 0, 55, 0
2, 182801, Note_on_c, 0, 62, 0
2, 182890, Note_on_c, 0, 60, 54
2, 182942, Note_on_c, 0, 60, 0
2, 182997, Note_on_c, 0, 71, 0
2, 183066, Note_on_c, 0, 43, 51
2, 183068, Note_on_c, 0, 67, 57
2, 183078, Note_on_c, 0, 62, 48
2, 183127, Note_on_c, 0, 62, 0
2, 183138, Note_on_c, 0, 67, 0
2, 183224, Note_on_c, 0, 59, 63
2, 183264, Note_on_c, 0, 59, 0
2, 183346, Note_on_c, 0, 43, 0
2, 183410, Note_on_c, 0, 48, 47
2, 183411, Note_on_c, 0, 55, 44
2, 183420, Note_on_c, 0, 72, 68
2, 183441, Control_c, 0, 64, 58
2, 183448, Note_on_c, 0, 64, 19
2, 183450, Note_on_c, 0, 48, 0
2, 183453, Note_on_c, 0, 64, 0
2, 183461, Control_c, 0, 64, 62
2, 183467, Note_on_c, 0, 55, 0
2, 183480, Control_c, 0, 64, 63
2, 183495, Note_on_c, 0, 72, 0
2, 183499, Control_c, 0, 64, 63
2, 183518, Control_c, 0, 64, 64
2, 183538, Control_c, 0, 64, 64
2, 183556, Control_c, 0, 64, 65
2, 183565, Note_on_c, 0, 65, 55
2, 183650, Note_on_c, 0, 65, 0
2, 183710, Control_c, 0, 64, 64
2, 183730, Control_c, 0, 64, 58
2, 183748, Note_on_c, 0, 76, 63
2, 183749, Control_c, 0, 64, 0
2, 183763, Note_on_c, 0, 64, 47
2, 183798, Note_on_c, 0, 76, 0
2, 183808, Note_on_c, 0, 64, 0
2, 183896, Note_on_c, 0, 77, 67
2, 183904, Note_on_c, 0, 62, 52
2, 183952, Note_on_c, 0, 77, 0
2, 183966, Note_on_c, 0, 62, 0
2, 184065, Note_on_c, 0, 60, 59
2, 184069, Note_on_c, 0, 76, 75
2, 184124, Note_on_c, 0, 76, 0
2, 184130, Note_on_c, 0, 60, 0
2, 184215, Note_on_c, 0, 59, 56
2, 184280, Note_on_c, 0, 59, 0
2, 184387, Note_on_c, 0, 74, 68
2, 184392, Note_on_c, 0, 52, 47
2, 184407, Note_on_c, 0, 57, 41
2, 184448, Note_on_c, 0, 74, 0
2, 184488, Note_on_c, 0, 57, 0
2, 184509, Note_on_c, 0, 52, 0
2, 184548, Note_on_c, 0, 56, 58
2, 184585, Note_on_c, 0, 56, 0
2, 184709, Control_c, 0, 64, 54
2, 184713, Note_on_c, 0, 72, 64
2, 184728, Control_c, 0, 64, 61
2, 184741, Note_on_c, 0, 45, 41
2, 184754, Note_on_c, 0, 57, 25
2, 184767, Control_c, 0, 64, 61
2, 184786, Control_c, 0, 64, 62
2, 184786, Note_on_c, 0, 45, 0
2, 184802, Note_on_c, 0, 57, 0
2, 184805, Control_c, 0, 64, 63
2, 184824, Control_c, 0, 64, 63
2, 184844, Control_c, 0, 64, 64
2, 184901, Control_c, 0, 64, 64
2, 184902, Note_on_c, 0, 58, 37
2, 184939, Control_c, 0, 64, 65
2, 184941, Note_on_c, 0, 72, 0
2, 184958, Control_c, 0, 64, 66
2, 184978, Control_c, 0, 64, 66
2, 184996, Control_c, 0, 64, 66
2, 185014, Note_on_c, 0, 58, 0
2, 185016, Control_c, 0, 64, 62
2, 185035, Control_c, 0, 64, 34
2, 185052, Note_on_c, 0, 57, 54
2, 185055, Control_c, 0, 64, 0
2, 185056, Note_on_c, 0, 69, 73
2, 185058, Note_on_c, 0, 73, 64
2, 185099, Note_on_c, 0, 73, 0
2, 185105, Note_on_c, 0, 69, 0
2, 185118, Note_on_c, 0, 57, 0
2, 185201, Note_on_c, 0, 55, 52
2, 185205, Note_on_c, 0, 70, 78
2, 185293, Note_on_c, 0, 55, 0
2, 185293, Note_on_c, 0, 70, 0
2, 185381, Note_on_c, 0, 69, 81
2, 185382, Note_on_c, 0, 53, 60
2, 185410, Note_on_c, 0, 74, 39
2, 185442, Note_on_c, 0, 69, 0
2, 185448, Note_on_c, 0, 74, 0
2, 185473, Note_on_c, 0, 53, 0
2, 185542, Note_on_c, 0, 52, 56
2, 185608, Note_on_c, 0, 52, 0
2, 185711, Note_on_c, 0, 67, 75
2, 185712, Note_on_c, 0, 50, 54
2, 185733, Note_on_c, 0, 76, 55
2, 185776, Note_on_c, 0, 50, 0
2, 185776, Note_on_c, 0, 76, 0
2, 185796, Note_on_c, 0, 67, 0
2, 185870, Note_on_c, 0, 49, 57
2, 185983, Note_on_c, 0, 49, 0
2, 186044, Note_on_c, 0, 50, 52
2, 186050, Note_on_c, 0, 65, 72
2, 186061, Note_on_c, 0, 69, 70
2, 186091, Control_c, 0, 64, 40
2, 186110, Control_c, 0, 64, 63
2, 186130, Control_c, 0, 64, 63
2, 186168, Control_c, 0, 64, 64
2, 186187, Control_c, 0, 64, 64
2, 186207, Control_c, 0, 64, 65
2, 186226, Control_c, 0, 64, 66
2, 186245, Control_c, 0, 64, 66
2, 186255, Note_on_c, 0, 65, 0
2, 186264, Control_c, 0, 64, 67
2, 186284, Control_c, 0, 64, 68
2, 186337, Note_on_c, 0, 69, 0
2, 186360, Control_c, 0, 64, 66
2, 186379, Control_c, 0, 64, 58
2, 186394, Note_on_c, 0, 57, 68
2, 186398, Control_c, 0, 64, 0
2, 186408, Note_on_c, 0, 74, 62
2, 186409, Note_on_c, 0, 65, 51
2, 186436, Note_on_c, 0, 57, 0
2, 186444, Note_on_c, 0, 65, 0
2, 186455, Note_on_c, 0, 74, 0
2, 186533, Note_on_c, 0, 58, 78
2, 186541, Note_on_c, 0, 76, 69
2, 186565, Note_on_c, 0, 67, 29
2, 186592, Note_on_c, 0, 58, 0
2, 186607, Note_on_c, 0, 67, 0
2, 186618, Note_on_c, 0, 76, 0
2, 186712, Note_on_c, 0, 57, 80
2, 186720, Note_on_c, 0, 74, 66
2, 186726, Note_on_c, 0, 65, 55
2, 186749, Note_on_c, 0, 57, 0
2, 186760, Note_on_c, 0, 65, 0
2, 186773, Note_on_c, 0, 74, 0
2, 187050, Note_on_c, 0, 55, 73
2, 187051, Note_on_c, 0, 72, 72
2, 187061, Note_on_c, 0, 64, 61
2, 187104, Note_on_c, 0, 55, 0
2, 187108, Note_on_c, 0, 64, 0
2, 187113, Note_on_c, 0, 72, 0
2, 187386, Note_on_c, 0, 62, 66
2, 187390, Note_on_c, 0, 53, 61
2, 187391, Control_c, 0, 64, 37
2, 187398, Note_on_c, 0, 71, 60
2, 187409, Control_c, 0, 64, 62
2, 187428, Note_on_c, 0, 62, 0
2, 187442, Note_on_c, 0, 71, 0
2, 187464, Control_c, 0, 64, 62
2, 187483, Control_c, 0, 64, 63
2, 187503, Control_c, 0, 64, 64
2, 187522, Control_c, 0, 64, 64
2, 187538, Note_on_c, 0, 53, 0
2, 187538, Note_on_c, 0, 72, 76
2, 187541, Control_c, 0, 64, 65
2, 187543, Note_on_c, 0, 64, 57
2, 187560, Control_c, 0, 64, 65
2, 187580, Control_c, 0, 64, 66
2, 187581, Note_on_c, 0, 64, 0
2, 187598, Control_c, 0, 64, 66
2, 187611, Note_on_c, 0, 72, 0
2, 187618, Control_c, 0, 64, 66
2, 187637, Control_c, 0, 64, 64
2, 187666, Control_c, 0, 64, 56
2, 187675, Note_on_c, 0, 50, 0
2, 187685, Control_c, 0, 64, 0
2, 187705, Note_on_c, 0, 53, 63
2, 187706, Note_on_c, 0, 65, 61
2, 187708, Note_on_c, 0, 74, 65
2, 187747, Note_on_c, 0, 65, 0
2, 187755, Note_on_c, 0, 53, 0
2, 187759, Note_on_c, 0, 74, 0
2, 187859, Note_on_c, 0, 50, 4
2, 187864, Note_on_c, 0, 72, 67
2, 187875, Note_on_c, 0, 55, 47
2, 187879, Note_on_c, 0, 64, 48
2, 187911, Note_on_c, 0, 64, 0
2, 187918, Note_on_c, 0, 72, 0
2, 187931, Note_on_c, 0, 55, 0
2, 188026, Note_on_c, 0, 71, 71
2, 188034, Note_on_c, 0, 53, 48
2, 188044, Note_on_c, 0, 62, 49
2, 188076, Note_on_c, 0, 62, 0
2, 188087, Note_on_c, 0, 53, 0
2, 188102, Note_on_c, 0, 71, 0
2, 188374, Note_on_c, 0, 69, 73
2, 188377, Note_on_c, 0, 52, 50
2, 188389, Note_on_c, 0, 60, 49
2, 188395, Control_c, 0, 64, 29
2, 188415, Control_c, 0, 64, 56
2, 188424, Control_c, 0, 64, 59
2, 188433, Note_on_c, 0, 52, 0
2, 188435, Note_on_c, 0, 60, 0
2, 188443, Control_c, 0, 64, 60
2, 188463, Control_c, 0, 64, 62
2, 188482, Control_c, 0, 64, 63
2, 188501, Control_c, 0, 64, 64
2, 188520, Control_c, 0, 64, 66
2, 188540, Control_c, 0, 64, 67
2, 188558, Control_c, 0, 64, 70
2, 188578, Control_c, 0, 64, 75
2, 188597, Control_c, 0, 64, 82
2, 188621, Control_c, 0, 64, 91
2, 188624, Note_on_c, 0, 50, 0
2, 188640, Control_c, 0, 64, 101
2, 188640, Note_on_c, 0, 69, 0
2, 188660, Control_c, 0, 64, 100
2, 188678, Control_c, 0, 64, 80
2, 188693, Note_on_c, 0, 71, 75
2, 188698, Control_c, 0, 64, 57
2, 188701, Note_on_c, 0, 50, 52
2, 188717, Control_c, 0, 64, 0
2, 188722, Note_on_c, 0, 67, 38
2, 188750, Note_on_c, 0, 50, 0
2, 188776, Note_on_c, 0, 71, 0
2, 188806, Note_on_c, 0, 67, 0
2, 188828, Note_on_c, 0, 67, 36
2, 188870, Note_on_c, 0, 52, 47
2, 188934, Note_on_c, 0, 52, 0
2, 189013, Note_on_c, 0, 53, 54
2, 189027, Note_on_c, 0, 74, 71
2, 189064, Note_on_c, 0, 53, 0
2, 189095, Note_on_c, 0, 74, 0
2, 189187, Note_on_c, 0, 52, 51
2, 189253, Note_on_c, 0, 52, 0
2, 189354, Note_on_c, 0, 50, 61
2, 189390, Note_on_c, 0, 50, 0
2, 189568, Note_on_c, 0, 67, 0
2, 189681, Note_on_c, 0, 48, 73
2, 189686, Note_on_c, 0, 69, 57
2, 189718, Control_c, 0, 64, 46
2, 189737, Control_c, 0, 64, 51
2, 189757, Control_c, 0, 64, 53
2, 189776, Control_c, 0, 64, 55
2, 189795, Control_c, 0, 64, 57
2, 189814, Control_c, 0, 64, 59
2, 189834, Control_c, 0, 64, 61
2, 189853, Control_c, 0, 64, 62
2, 189871, Control_c, 0, 64, 62
2, 189891, Control_c, 0, 64, 63
2, 189910, Control_c, 0, 64, 64
2, 189929, Control_c, 0, 64, 65
2, 189948, Control_c, 0, 64, 66
2, 189961, Note_on_c, 0, 48, 0
2, 189968, Control_c, 0, 64, 67
2, 189987, Control_c, 0, 64, 64
2, 190006, Control_c, 0, 64, 47
2, 190016, Note_on_c, 0, 59, 64
2, 190024, Note_on_c, 0, 69, 0
2, 190025, Control_c, 0, 64, 0
2, 190028, Note_on_c, 0, 67, 68
2, 190051, Note_on_c, 0, 59, 0
2, 190078, Note_on_c, 0, 67, 0
2, 190155, Note_on_c, 0, 55, 56
2, 190173, Note_on_c, 0, 65, 59
2, 190194, Note_on_c, 0, 55, 0
2, 190219, Note_on_c, 0, 65, 0
2, 190333, Note_on_c, 0, 62, 60
2, 190341, Note_on_c, 0, 53, 48
2, 190341, Note_on_c, 0, 69, 74
2, 190378, Note_on_c, 0, 62, 0
2, 190399, Note_on_c, 0, 69, 0
2, 190401, Note_on_c, 0, 53, 0
2, 190488, Note_on_c, 0, 52, 46
2, 190489, Note_on_c, 0, 67, 68
2, 190544, Note_on_c, 0, 52, 0
2, 190561, Note_on_c, 0, 67, 0
2, 190648, Note_on_c, 0, 50, 57
2, 190677, Note_on_c, 0, 65, 54
2, 190748, Note_on_c, 0, 65, 0
2, 190811, Note_on_c, 0, 64, 54
2, 190918, Note_on_c, 0, 64, 0
2, 190975, Note_on_c, 0, 57, 54
2, 190975, Note_on_c, 0, 67, 63
2, 191024, Note_on_c, 0, 57, 0
2, 191024, Note_on_c, 0, 67, 0
2, 191122, Note_on_c, 0, 65, 66
2, 191171, Note_on_c, 0, 65, 0
2, 191293, Note_on_c, 0, 55, 54
2, 191295, Note_on_c, 0, 64, 70
2, 191368, Note_on_c, 0, 64, 0
2, 191451, Note_on_c, 0, 53, 51
2, 191464, Note_on_c, 0, 55, 0
2, 191538, Note_on_c, 0, 53, 0
2, 191592, Note_on_c, 0, 65, 64
2, 191611, Note_on_c, 0, 57, 58
2, 191614, Note_on_c, 0, 48, 48
2, 191661, Note_on_c, 0, 50, 0
2, 191662, Note_on_c, 0, 65, 0
2, 191668, Note_on_c, 0, 57, 0
2, 191747, Note_on_c, 0, 55, 57
2, 191801, Note_on_c, 0, 55, 0
2, 191908, Note_on_c, 0, 53, 56
2, 191939, Note_on_c, 0, 67, 67
2, 191977, Note_on_c, 0, 53, 0
2, 192082, Note_on_c, 0, 48, 0
2, 192082, Note_on_c, 0, 52, 53
2, 192133, Note_on_c, 0, 52, 0
2, 192160, Note_on_c, 0, 67, 0
2, 192268, Note_on_c, 0, 55, 43
2, 192269, Note_on_c, 0, 62, 63
2, 192276, Note_on_c, 0, 47, 40
2, 192309, Control_c, 0, 64, 26
2, 192320, Note_on_c, 0, 55, 0
2, 192328, Control_c, 0, 64, 50
2, 192329, Note_on_c, 0, 62, 0
2, 192347, Control_c, 0, 64, 58
2, 192367, Control_c, 0, 64, 60
2, 192384, Note_on_c, 0, 47, 0
2, 192386, Control_c, 0, 64, 60
2, 192405, Control_c, 0, 64, 61
2, 192424, Control_c, 0, 64, 62
2, 192424, Note_on_c, 0, 53, 52
2, 192444, Control_c, 0, 64, 63
2, 192463, Control_c, 0, 64, 64
2, 192482, Control_c, 0, 64, 64
2, 192501, Control_c, 0, 64, 65
2, 192508, Note_on_c, 0, 53, 0
2, 192559, Control_c, 0, 64, 63
2, 192578, Control_c, 0, 64, 49
2, 192598, Control_c, 0, 64, 0
2, 192609, Note_on_c, 0, 52, 41
2, 192617, Note_on_c, 0, 48, 44
2, 192617, Note_on_c, 0, 69, 76
2, 192703, Note_on_c, 0, 69, 0
2, 192718, Note_on_c, 0, 52, 0
2, 192778, Note_on_c, 0, 71, 71
2, 192849, Note_on_c, 0, 71, 0
2, 192879, Note_on_c, 0, 48, 0
2, 192934, Note_on_c, 0, 53, 51
2, 192948, Note_on_c, 0, 50, 37
2, 192951, Note_on_c, 0, 69, 75
2, 192973, Note_on_c, 0, 53, 0
2, 192987, Note_on_c, 0, 50, 0
2, 193010, Note_on_c, 0, 69, 0
2, 193093, Note_on_c, 0, 71, 76
2, 193130, Note_on_c, 0, 71, 0
2, 193263, Note_on_c, 0, 72, 79
2, 193267, Note_on_c, 0, 43, 52
2, 193279, Note_on_c, 0, 55, 49
2, 193304, Note_on_c, 0, 72, 0
2, 193340, Note_on_c, 0, 71, 74
2, 193386, Note_on_c, 0, 71, 0
2, 193421, Note_on_c, 0, 72, 64
2, 193464, Note_on_c, 0, 72, 0
2, 193487, Note_on_c, 0, 71, 77
2, 193528, Note_on_c, 0, 50, 61
2, 193536, Note_on_c, 0, 72, 80
2, 193548, Note_on_c, 0, 71, 0
2, 193562, Note_on_c, 0, 55, 0
2, 193602, Note_on_c, 0, 72, 0
2, 193615, Note_on_c, 0, 71, 80
2, 193674, Note_on_c, 0, 71, 0
2, 193680, Note_on_c, 0, 69, 75
2, 193751, Note_on_c, 0, 71, 82
2, 193765, Note_on_c, 0, 69, 0
2, 193809, Note_on_c, 0, 43, 0
2, 193841, Note_on_c, 0, 50, 0
2, 193842, Note_on_c, 0, 72, 90
2, 193849, Note_on_c, 0, 71, 0
2, 193851, Note_on_c, 0, 57, 60
2, 193927, Note_on_c, 0, 57, 0
2, 193971, Note_on_c, 0, 72, 0
2, 194005, Note_on_c, 0, 74, 82
2, 194012, Note_on_c, 0, 59, 56
2, 194052, Note_on_c, 0, 59, 0
2, 194064, Note_on_c, 0, 74, 0
2, 194164, Note_on_c, 0, 57, 58
2, 194172, Note_on_c, 0, 72, 80
2, 194206, Note_on_c, 0, 57, 0
2, 194237, Note_on_c, 0, 72, 0
2, 194301, Note_on_c, 0, 59, 67
2, 194308, Note_on_c, 0, 74, 80
2, 194341, Note_on_c, 0, 59, 0
2, 194344, Note_on_c, 0, 74, 0
2, 194466, Note_on_c, 0, 55, 65
2, 194474, Note_on_c, 0, 60, 66
2, 194475, Note_on_c, 0, 76, 87
2, 194533, Note_on_c, 0, 76, 0
2, 194559, Note_on_c, 0, 74, 79
2, 194572, Note_on_c, 0, 59, 73
2, 194621, Note_on_c, 0, 59, 0
2, 194624, Note_on_c, 0, 74, 0
2, 194635, Note_on_c, 0, 76, 83
2, 194648, Note_on_c, 0, 60, 0
2, 194679, Note_on_c, 0, 60, 10
2, 194694, Note_on_c, 0, 76, 0
2, 194697, Note_on_c, 0, 55, 0
2, 194701, Note_on_c, 0, 74, 76
2, 194711, Note_on_c, 0, 59, 51
2, 194719, Note_on_c, 0, 53, 48
2, 194743, Note_on_c, 0, 60, 0
2, 194766, Note_on_c, 0, 76, 77
2, 194769, Note_on_c, 0, 74, 0
2, 194827, Note_on_c, 0, 76, 0
2, 194828, Note_on_c, 0, 74, 80
2, 194890, Note_on_c, 0, 74, 0
2, 194894, Note_on_c, 0, 59, 0
2, 194899, Note_on_c, 0, 72, 73
2, 194920, Control_c, 0, 64, 32
2, 194938, Control_c, 0, 64, 47
2, 194958, Control_c, 0, 64, 55
2, 194963, Note_on_c, 0, 74, 80
2, 194973, Note_on_c, 0, 72, 0
2, 194977, Control_c, 0, 64, 55
2, 194997, Control_c, 0, 64, 49
2, 195015, Control_c, 0, 64, 0
2, 195052, Note_on_c, 0, 60, 65
2, 195053, Note_on_c, 0, 52, 47
2, 195055, Note_on_c, 0, 76, 91
2, 195065, Note_on_c, 0, 74, 0
2, 195097, Note_on_c, 0, 53, 0
2, 195230, Note_on_c, 0, 74, 78
2, 195246, Note_on_c, 0, 76, 0
2, 195290, Note_on_c, 0, 74, 0
2, 195315, Note_on_c, 0, 52, 0
2, 195385, Note_on_c, 0, 50, 51
2, 195399, Note_on_c, 0, 72, 78
2, 195434, Note_on_c, 0, 72, 0
2, 195454, Note_on_c, 0, 50, 0
2, 195546, Note_on_c, 0, 71, 76
2, 195589, Note_on_c, 0, 71, 0
2, 195708, Note_on_c, 0, 69, 84
2, 195716, Note_on_c, 0, 48, 53
2, 195789, Note_on_c, 0, 69, 0
2, 195867, Note_on_c, 0, 67, 73
2, 195926, Note_on_c, 0, 67, 0
2, 196006, Note_on_c, 0, 52, 53
2, 196030, Note_on_c, 0, 66, 76
2, 196087, Note_on_c, 0, 66, 0
2, 196130, Note_on_c, 0, 52, 0
2, 196182, Note_on_c, 0, 64, 66
2, 196228, Note_on_c, 0, 64, 0
2, 196287, Note_on_c, 0, 48, 0
2, 196351, Note_on_c, 0, 50, 65
2, 196355, Note_on_c, 0, 60, 0
2, 196359, Note_on_c, 0, 66, 60
2, 196378, Control_c, 0, 64, 42
2, 196398, Control_c, 0, 64, 65
2, 196417, Control_c, 0, 64, 63
2, 196455, Control_c, 0, 64, 64
2, 196470, Note_on_c, 0, 50, 0
2, 196475, Control_c, 0, 64, 64
2, 196494, Control_c, 0, 64, 65
2, 196513, Control_c, 0, 64, 66
2, 196571, Control_c, 0, 64, 66
2, 196589, Control_c, 0, 64, 67
2, 196609, Control_c, 0, 64, 68
2, 196628, Control_c, 0, 64, 69
2, 196648, Control_c, 0, 64, 70
2, 196666, Control_c, 0, 64, 67
2, 196686, Control_c, 0, 64, 58
2, 196691, Note_on_c, 0, 50, 70
2, 196693, Note_on_c, 0, 54, 72
2, 196693, Note_on_c, 0, 62, 58
2, 196693, Note_on_c, 0, 66, 0
2, 196705, Control_c, 0, 64, 0
2, 196733, Note_on_c, 0, 54, 0
2, 196744, Note_on_c, 0, 62, 0
2, 196749, Note_on_c, 0, 50, 0
2, 196843, Note_on_c, 0, 52, 72
2, 196892, Note_on_c, 0, 52, 0
2, 197014, Note_on_c, 0, 50, 74
2, 197016, Note_on_c, 0, 64, 73
2, 197018, Note_on_c, 0, 55, 70
2, 197053, Note_on_c, 0, 55, 0
2, 197058, Note_on_c, 0, 50, 0
2, 197090, Note_on_c, 0, 64, 0
2, 197347, Note_on_c, 0, 48, 65
2, 197353, Note_on_c, 0, 66, 70
2, 197443, Note_on_c, 0, 66, 0
2, 197450, Note_on_c, 0, 48, 0
2, 197681, Note_on_c, 0, 67, 76
2, 197683, Note_on_c, 0, 47, 61
2, 197692, Note_on_c, 0, 59, 54
2, 197703, Control_c, 0, 64, 52
2, 197721, Note_on_c, 0, 67, 0
2, 197723, Control_c, 0, 64, 70
2, 197742, Control_c, 0, 64, 70
2, 197761, Control_c, 0, 64, 69
2, 197784, Note_on_c, 0, 59, 0
2, 197800, Control_c, 0, 64, 71
2, 197818, Control_c, 0, 64, 73
2, 197838, Control_c, 0, 64, 75
2, 197857, Control_c, 0, 64, 76
2, 197877, Control_c, 0, 64, 77
2, 197887, Note_on_c, 0, 47, 0
2, 197895, Control_c, 0, 64, 77
2, 197915, Control_c, 0, 64, 78
2, 197934, Control_c, 0, 64, 78
2, 197953, Control_c, 0, 64, 80
2, 197972, Control_c, 0, 64, 81
2, 197991, Control_c, 0, 64, 82
2, 198011, Control_c, 0, 64, 78
2, 198014, Note_on_c, 0, 74, 82
2, 198019, Note_on_c, 0, 50, 56
2, 198021, Note_on_c, 0, 47, 59
2, 198029, Control_c, 0, 64, 66
2, 198049, Control_c, 0, 64, 8
2, 198055, Note_on_c, 0, 50, 0
2, 198060, Note_on_c, 0, 66, 27
2, 198062, Note_on_c, 0, 47, 0
2, 198068, Control_c, 0, 64, 0
2, 198086, Note_on_c, 0, 74, 0
2, 198097, Note_on_c, 0, 66, 0
2, 198167, Note_on_c, 0, 48, 62
2, 198168, Note_on_c, 0, 76, 82
2, 198213, Note_on_c, 0, 48, 0
2, 198244, Note_on_c, 0, 76, 0
2, 198346, Note_on_c, 0, 52, 57
2, 198347, Note_on_c, 0, 74, 77
2, 198348, Note_on_c, 0, 67, 64
2, 198349, Note_on_c, 0, 47, 57
2, 198386, Note_on_c, 0, 52, 0
2, 198386, Note_on_c, 0, 67, 0
2, 198400, Note_on_c, 0, 47, 0
2, 198418, Note_on_c, 0, 74, 0
2, 198666, Note_on_c, 0, 54, 68
2, 198668, Note_on_c, 0, 72, 85
2, 198683, Note_on_c, 0, 69, 51
2, 198691, Note_on_c, 0, 45, 45
2, 198719, Note_on_c, 0, 69, 0
2, 198736, Note_on_c, 0, 45, 0
2, 198746, Note_on_c, 0, 72, 0
2, 198758, Note_on_c, 0, 54, 0
2, 199011, Note_on_c, 0, 71, 79
2, 199012, Note_on_c, 0, 62, 62
2, 199013, Note_on_c, 0, 55, 56
2, 199026, Note_on_c, 0, 43, 48
2, 199088, Control_c, 0, 64, 19
2, 199096, Note_on_c, 0, 43, 0
2, 199107, Control_c, 0, 64, 26
2, 199126, Control_c, 0, 64, 27
2, 199145, Control_c, 0, 64, 35
2, 199165, Control_c, 0, 64, 44
2, 199179, Note_on_c, 0, 45, 62
2, 199183, Control_c, 0, 64, 47
2, 199203, Control_c, 0, 64, 48
2, 199222, Control_c, 0, 64, 47
2, 199228, Note_on_c, 0, 71, 0
2, 199231, Note_on_c, 0, 45, 0
2, 199242, Control_c, 0, 64, 46
2, 199260, Control_c, 0, 64, 44
2, 199280, Control_c, 0, 64, 31
2, 199299, Control_c, 0, 64, 0
2, 199340, Note_on_c, 0, 71, 83
2, 199342, Note_on_c, 0, 47, 69
2, 199378, Note_on_c, 0, 47, 0
2, 199410, Note_on_c, 0, 71, 0
2, 199481, Note_on_c, 0, 45, 57
2, 199497, Note_on_c, 0, 72, 82
2, 199539, Note_on_c, 0, 45, 0
2, 199580, Note_on_c, 0, 72, 0
2, 199668, Note_on_c, 0, 43, 80
2, 199689, Note_on_c, 0, 71, 75
2, 199706, Note_on_c, 0, 55, 0
2, 199708, Note_on_c, 0, 70, 54
2, 199721, Note_on_c, 0, 62, 0
2, 199742, Note_on_c, 0, 70, 0
2, 199751, Note_on_c, 0, 43, 0
2, 199760, Note_on_c, 0, 71, 0
2, 200005, Note_on_c, 0, 42, 84
2, 200008, Control_c, 0, 64, 48
2, 200014, Note_on_c, 0, 69, 78
2, 200026, Control_c, 0, 64, 65
2, 200046, Control_c, 0, 64, 66
2, 200051, Note_on_c, 0, 63, 42
2, 200076, Note_on_c, 0, 69, 0
2, 200080, Note_on_c, 0, 42, 0
2, 200084, Control_c, 0, 64, 67
2, 200092, Note_on_c, 0, 63, 0
2, 200103, Control_c, 0, 64, 68
2, 200123, Control_c, 0, 64, 69
2, 200143, Control_c, 0, 64, 71
2, 200162, Control_c, 0, 64, 72
2, 200201, Note_on_c, 0, 69, 13
2, 200258, Control_c, 0, 64, 73
2, 200296, Control_c, 0, 64, 73
2, 200316, Control_c, 0, 64, 73
2, 200335, Control_c, 0, 64, 67
2, 200353, Control_c, 0, 64, 40
2, 200357, Note_on_c, 0, 67, 76
2, 200365, Note_on_c, 0, 52, 57
2, 200366, Note_on_c, 0, 59, 65
2, 200373, Control_c, 0, 64, 0
2, 200399, Note_on_c, 0, 69, 0
2, 200427, Note_on_c, 0, 52, 0
2, 200454, Note_on_c, 0, 67, 0
2, 200509, Note_on_c, 0, 69, 83
2, 200609, Note_on_c, 0, 69, 0
2, 200671, Note_on_c, 0, 55, 60
2, 200687, Note_on_c, 0, 71, 84
2, 200713, Note_on_c, 0, 64, 49
2, 200744, Note_on_c, 0, 64, 0
2, 200764, Note_on_c, 0, 71, 0
2, 200818, Note_on_c, 0, 55, 0
2, 200837, Note_on_c, 0, 69, 81
2, 200850, Note_on_c, 0, 63, 56
2, 200885, Note_on_c, 0, 63, 0
2, 200930, Note_on_c, 0, 69, 0
2, 201007, Note_on_c, 0, 67, 80
2, 201023, Note_on_c, 0, 64, 53
2, 201038, Note_on_c, 0, 59, 0
2, 201052, Note_on_c, 0, 64, 0
2, 201092, Note_on_c, 0, 67, 0
2, 201337, Note_on_c, 0, 66, 81
2, 201340, Note_on_c, 0, 50, 60
2, 201560, Note_on_c, 0, 50, 0
2, 201610, Note_on_c, 0, 66, 0
2, 201655, Note_on_c, 0, 48, 65
2, 201659, Note_on_c, 0, 76, 84
2, 201709, Note_on_c, 0, 48, 0
2, 201722, Note_on_c, 0, 76, 0
2, 201812, Note_on_c, 0, 47, 54
2, 201865, Note_on_c, 0, 47, 0
2, 201982, Note_on_c, 0, 50, 50
2, 201985, Note_on_c, 0, 52, 51
2, 201990, Note_on_c, 0, 79, 80
2, 202004, Note_on_c, 0, 67, 57
2, 202032, Note_on_c, 0, 50, 0
2, 202048, Note_on_c, 0, 52, 0
2, 202053, Note_on_c, 0, 79, 0
2, 202093, Note_on_c, 0, 67, 0
2, 202130, Note_on_c, 0, 48, 58
2, 202196, Note_on_c, 0, 48, 0
2, 202314, Note_on_c, 0, 69, 65
2, 202319, Note_on_c, 0, 54, 59
2, 202331, Note_on_c, 0, 47, 53
2, 202374, Note_on_c, 0, 54, 0
2, 202396, Note_on_c, 0, 47, 0
2, 202481, Note_on_c, 0, 45, 63
2, 202501, Note_on_c, 0, 69, 0
2, 202536, Note_on_c, 0, 45, 0
2, 202652, Note_on_c, 0, 71, 50
2, 202657, Note_on_c, 0, 55, 56
2, 202657, Note_on_c, 0, 74, 68
2, 202663, Note_on_c, 0, 48, 59
2, 202707, Note_on_c, 0, 48, 0
2, 202707, Note_on_c, 0, 55, 0
2, 202724, Note_on_c, 0, 71, 0
2, 202774, Note_on_c, 0, 74, 0
2, 202813, Note_on_c, 0, 47, 65
2, 202869, Note_on_c, 0, 47, 0
2, 202983, Note_on_c, 0, 57, 60
2, 202992, Note_on_c, 0, 45, 43
2, 203002, Note_on_c, 0, 72, 72
2, 203079, Note_on_c, 0, 57, 0
2, 203100, Note_on_c, 0, 72, 0
2, 203152, Note_on_c, 0, 71, 75
2, 203181, Note_on_c, 0, 45, 0
2, 203229, Note_on_c, 0, 71, 0
2, 203323, Note_on_c, 0, 50, 56
2, 203330, Note_on_c, 0, 47, 47
2, 203334, Note_on_c, 0, 74, 75
2, 203350, Note_on_c, 0, 67, 49
2, 203381, Note_on_c, 0, 67, 0
2, 203406, Note_on_c, 0, 74, 0
2, 203450, Note_on_c, 0, 50, 0
2, 203484, Note_on_c, 0, 72, 77
2, 203496, Note_on_c, 0, 47, 0
2, 203564, Note_on_c, 0, 72, 0
2, 203644, Note_on_c, 0, 48, 52
2, 203648, Note_on_c, 0, 52, 51
2, 203654, Note_on_c, 0, 71, 73
2, 203753, Note_on_c, 0, 71, 0
2, 203794, Note_on_c, 0, 48, 0
2, 203804, Note_on_c, 0, 69, 70
2, 203897, Note_on_c, 0, 52, 0
2, 203914, Note_on_c, 0, 69, 0
2, 203958, Note_on_c, 0, 72, 77
2, 203962, Note_on_c, 0, 43, 62
2, 203972, Note_on_c, 0, 50, 55
2, 203994, Note_on_c, 0, 66, 42
2, 204024, Note_on_c, 0, 50, 0
2, 204029, Note_on_c, 0, 66, 0
2, 204052, Note_on_c, 0, 72, 0
2, 204093, Note_on_c, 0, 43, 0
2, 204125, Note_on_c, 0, 71, 72
2, 204129, Note_on_c, 0, 52, 65
2, 204163, Note_on_c, 0, 67, 24
2, 204178, Note_on_c, 0, 52, 0
2, 204201, Note_on_c, 0, 67, 0
2, 204210, Note_on_c, 0, 71, 0
2, 204292, Note_on_c, 0, 50, 57
2, 204293, Note_on_c, 0, 69, 73
2, 204294, Note_on_c, 0, 54, 63
2, 204351, Note_on_c, 0, 69, 0
2, 204358, Note_on_c, 0, 54, 0
2, 204452, Note_on_c, 0, 55, 65
2, 204512, Note_on_c, 0, 55, 0
2, 204607, Note_on_c, 0, 52, 66
2, 204622, Note_on_c, 0, 71, 70
2, 204673, Note_on_c, 0, 52, 0
2, 204683, Note_on_c, 0, 71, 0
2, 204684, Note_on_c, 0, 50, 0
2, 204775, Note_on_c, 0, 54, 73
2, 204819, Note_on_c, 0, 54, 0
2, 204952, Note_on_c, 0, 72, 71
2, 204961, Note_on_c, 0, 52, 48
2, 204970, Note_on_c, 0, 55, 46
2, 205076, Note_on_c, 0, 55, 0
2, 205076, Note_on_c, 0, 72, 0
2, 205126, Note_on_c, 0, 57, 62
2, 205184, Note_on_c, 0, 57, 0
2, 205209, Note_on_c, 0, 52, 0
2, 205294, Note_on_c, 0, 67, 61
2, 205302, Note_on_c, 0, 54, 58
2, 205346, Note_on_c, 0, 67, 0
2, 205356, Note_on_c, 0, 54, 0
2, 205364, Control_c, 0, 64, 35
2, 205382, Control_c, 0, 64, 53
2, 205402, Control_c, 0, 64, 55
2, 205421, Control_c, 0, 64, 56
2, 205440, Control_c, 0, 64, 56
2, 205459, Control_c, 0, 64, 57
2, 205459, Note_on_c, 0, 55, 62
2, 205479, Control_c, 0, 64, 58
2, 205498, Control_c, 0, 64, 59
2, 205504, Note_on_c, 0, 55, 0
2, 205517, Control_c, 0, 64, 60
2, 205536, Control_c, 0, 64, 60
2, 205556, Control_c, 0, 64, 61
2, 205574, Control_c, 0, 64, 60
2, 205593, Control_c, 0, 64, 55
2, 205613, Control_c, 0, 64, 11
2, 205618, Note_on_c, 0, 74, 70
2, 205622, Note_on_c, 0, 54, 51
2, 205625, Note_on_c, 0, 57, 55
2, 205632, Control_c, 0, 64, 0
2, 205706, Note_on_c, 0, 74, 0
2, 205711, Note_on_c, 0, 57, 0
2, 205776, Note_on_c, 0, 76, 71
2, 205839, Note_on_c, 0, 76, 0
2, 205933, Note_on_c, 0, 59, 58
2, 205936, Note_on_c, 0, 74, 74
2, 205991, Note_on_c, 0, 59, 0
2, 206004, Note_on_c, 0, 74, 0
2, 206082, Note_on_c, 0, 76, 80
2, 206085, Note_on_c, 0, 60, 55
2, 206121, Note_on_c, 0, 76, 0
2, 206134, Note_on_c, 0, 54, 0
2, 206159, Note_on_c, 0, 60, 0
2, 206248, Note_on_c, 0, 77, 80
2, 206249, Note_on_c, 0, 59, 61
2, 206253, Note_on_c, 0, 55, 46
2, 206301, Note_on_c, 0, 77, 0
2, 206311, Note_on_c, 0, 59, 0
2, 206324, Note_on_c, 0, 76, 78
2, 206391, Note_on_c, 0, 76, 0
2, 206399, Note_on_c, 0, 77, 82
2, 206404, Note_on_c, 0, 60, 52
2, 206458, Note_on_c, 0, 60, 0
2, 206463, Note_on_c, 0, 77, 0
2, 206479, Note_on_c, 0, 76, 76
2, 206520, Note_on_c, 0, 57, 59
2, 206537, Note_on_c, 0, 77, 76
2, 206538, Note_on_c, 0, 76, 0
2, 206585, Note_on_c, 0, 57, 0
2, 206608, Note_on_c, 0, 77, 0
2, 206616, Note_on_c, 0, 76, 77
2, 206652, Note_on_c, 0, 76, 0
2, 206659, Note_on_c, 0, 55, 0
2, 206660, Note_on_c, 0, 59, 65
2, 206662, Note_on_c, 0, 74, 65
2, 206731, Note_on_c, 0, 59, 0
2, 206742, Note_on_c, 0, 76, 88
2, 206756, Note_on_c, 0, 74, 0
2, 206823, Note_on_c, 0, 76, 0
2, 206828, Note_on_c, 0, 77, 89
2, 206833, Note_on_c, 0, 60, 71
2, 206861, Note_on_c, 0, 57, 39
2, 207021, Note_on_c, 0, 60, 0
2, 207044, Note_on_c, 0, 76, 64
2, 207066, Note_on_c, 0, 74, 53
2, 207103, Note_on_c, 0, 74, 0
2, 207106, Note_on_c, 0, 76, 0
2, 207179, Note_on_c, 0, 62, 67
2, 207189, Note_on_c, 0, 74, 75
2, 207223, Note_on_c, 0, 62, 0
2, 207228, Note_on_c, 0, 74, 0
2, 207333, Note_on_c, 0, 64, 62
2, 207334, Note_on_c, 0, 72, 74
2, 207384, Note_on_c, 0, 64, 0
2, 207393, Note_on_c, 0, 72, 0
2, 207499, Note_on_c, 0, 71, 75
2, 207512, Note_on_c, 0, 62, 62
2, 207514, Note_on_c, 0, 57, 0
2, 207538, Note_on_c, 0, 59, 49
2, 207588, Note_on_c, 0, 71, 0
2, 207661, Note_on_c, 0, 69, 71
2, 207682, Note_on_c, 0, 59, 0
2, 207692, Note_on_c, 0, 62, 0
2, 207717, Note_on_c, 0, 69, 0
2, 207822, Note_on_c, 0, 57, 46
2, 207823, Note_on_c, 0, 68, 71
2, 207825, Note_on_c, 0, 60, 44
2, 207862, Note_on_c, 0, 60, 0
2, 207874, Note_on_c, 0, 57, 0
2, 207887, Note_on_c, 0, 68, 0
2, 207972, Note_on_c, 0, 69, 74
2, 208006, Note_on_c, 0, 69, 0
2, 208166, Note_on_c, 0, 71, 59
2, 208168, Note_on_c, 0, 56, 44
2, 208190, Note_on_c, 0, 59, 42
2, 208256, Note_on_c, 0, 56, 0
2, 208265, Control_c, 0, 64, 8
2, 208285, Control_c, 0, 64, 34
2, 208303, Control_c, 0, 64, 41
2, 208323, Control_c, 0, 64, 42
2, 208362, Control_c, 0, 64, 43
2, 208378, Note_on_c, 0, 77, 0
2, 208380, Control_c, 0, 64, 45
2, 208400, Control_c, 0, 64, 49
2, 208419, Control_c, 0, 64, 53
2, 208439, Control_c, 0, 64, 56
2, 208457, Control_c, 0, 64, 57
2, 208477, Control_c, 0, 64, 54
2, 208482, Note_on_c, 0, 59, 0
2, 208485, Note_on_c, 0, 76, 69
2, 208486, Note_on_c, 0, 56, 55
2, 208496, Control_c, 0, 64, 32
2, 208500, Note_on_c, 0, 52, 39
2, 208514, Control_c, 0, 64, 0
2, 208531, Note_on_c, 0, 56, 0
2, 208537, Note_on_c, 0, 76, 0
2, 208559, Note_on_c, 0, 52, 0
2, 208584, Note_on_c, 0, 71, 0
2, 208609, Note_on_c, 0, 71, 39
2, 208633, Note_on_c, 0, 77, 77
2, 208701, Note_on_c, 0, 77, 0
2, 208806, Note_on_c, 0, 54, 49
2, 208810, Note_on_c, 0, 76, 81
2, 208811, Note_on_c, 0, 57, 50
2, 208859, Note_on_c, 0, 54, 0
2, 208865, Note_on_c, 0, 76, 0
2, 208866, Note_on_c, 0, 57, 0
2, 208888, Note_on_c, 0, 71, 0
2, 209139, Note_on_c, 0, 56, 52
2, 209142, Note_on_c, 0, 59, 62
2, 209152, Note_on_c, 0, 74, 76
2, 209186, Note_on_c, 0, 56, 0
2, 209201, Note_on_c, 0, 74, 0
2, 209205, Note_on_c, 0, 59, 0
2, 209482, Note_on_c, 0, 72, 73
2, 209496, Note_on_c, 0, 57, 46
2, 209500, Note_on_c, 0, 60, 46
2, 209512, Control_c, 0, 64, 31
2, 209532, Control_c, 0, 64, 50
2, 209535, Note_on_c, 0, 72, 0
2, 209543, Note_on_c, 0, 60, 0
2, 209548, Control_c, 0, 64, 58
2, 209548, Note_on_c, 0, 57, 0
2, 209568, Control_c, 0, 64, 62
2, 209587, Control_c, 0, 64, 65
2, 209607, Control_c, 0, 64, 67
2, 209625, Control_c, 0, 64, 71
2, 209645, Control_c, 0, 64, 77
2, 209664, Control_c, 0, 64, 83
2, 209684, Control_c, 0, 64, 89
2, 209702, Control_c, 0, 64, 93
2, 209722, Control_c, 0, 64, 97
2, 209741, Control_c, 0, 64, 101
2, 209760, Control_c, 0, 64, 104
2, 209779, Control_c, 0, 64, 105
2, 209799, Control_c, 0, 64, 102
2, 209818, Control_c, 0, 64, 81
2, 209820, Note_on_c, 0, 64, 79
2, 209835, Note_on_c, 0, 48, 48
2, 209835, Note_on_c, 0, 52, 45
2, 209835, Note_on_c, 0, 72, 61
2, 209837, Control_c, 0, 64, 62
2, 209856, Control_c, 0, 64, 0
2, 209857, Note_on_c, 0, 64, 0
2, 209869, Note_on_c, 0, 52, 0
2, 209875, Note_on_c, 0, 48, 0
2, 209879, Note_on_c, 0, 72, 0
2, 209963, Note_on_c, 0, 65, 76
2, 209979, Note_on_c, 0, 72, 56
2, 209980, Note_on_c, 0, 74, 67
2, 210011, Note_on_c, 0, 65, 0
2, 210016, Note_on_c, 0, 72, 0
2, 210026, Note_on_c, 0, 74, 0
2, 210124, Note_on_c, 0, 64, 86
2, 210133, Note_on_c, 0, 72, 64
2, 210135, Note_on_c, 0, 54, 71
2, 210158, Note_on_c, 0, 50, 38
2, 210171, Note_on_c, 0, 64, 0
2, 210184, Note_on_c, 0, 72, 0
2, 210187, Note_on_c, 0, 54, 0
2, 210205, Note_on_c, 0, 50, 0
2, 210474, Note_on_c, 0, 62, 77
2, 210482, Note_on_c, 0, 56, 70
2, 210482, Note_on_c, 0, 71, 74
2, 210483, Note_on_c, 0, 52, 44
2, 210517, Note_on_c, 0, 52, 0
2, 210531, Note_on_c, 0, 71, 0
2, 210549, Note_on_c, 0, 62, 0
2, 210555, Note_on_c, 0, 56, 0
2, 210819, Note_on_c, 0, 57, 77
2, 210828, Note_on_c, 0, 60, 59
2, 210833, Note_on_c, 0, 53, 64
2, 210834, Note_on_c, 0, 69, 67
2, 210873, Control_c, 0, 64, 28
2, 210886, Note_on_c, 0, 60, 0
2, 210893, Control_c, 0, 64, 48
2, 210912, Control_c, 0, 64, 57
2, 210931, Control_c, 0, 64, 59
2, 210947, Note_on_c, 0, 69, 0
2, 210950, Control_c, 0, 64, 60
2, 210970, Control_c, 0, 64, 61
2, 210988, Control_c, 0, 64, 62
2, 211007, Note_on_c, 0, 71, 62
2, 211008, Control_c, 0, 64, 63
2, 211018, Note_on_c, 0, 57, 0
2, 211027, Control_c, 0, 64, 64
2, 211047, Control_c, 0, 64, 65
2, 211065, Control_c, 0, 64, 67
2, 211085, Control_c, 0, 64, 68
2, 211103, Note_on_c, 0, 53, 0
2, 211104, Control_c, 0, 64, 67
2, 211124, Control_c, 0, 64, 64
2, 211135, Note_on_c, 0, 71, 0
2, 211142, Control_c, 0, 64, 37
2, 211162, Control_c, 0, 64, 0
2, 211162, Note_on_c, 0, 60, 75
2, 211176, Note_on_c, 0, 72, 67
2, 211214, Note_on_c, 0, 60, 0
2, 211227, Note_on_c, 0, 72, 0
2, 211321, Note_on_c, 0, 62, 71
2, 211326, Note_on_c, 0, 71, 77
2, 211359, Note_on_c, 0, 62, 0
2, 211406, Note_on_c, 0, 71, 0
2, 211495, Note_on_c, 0, 69, 89
2, 211497, Note_on_c, 0, 60, 70
2, 211530, Note_on_c, 0, 60, 0
2, 211589, Note_on_c, 0, 69, 0
2, 211831, Note_on_c, 0, 67, 83
2, 211834, Note_on_c, 0, 49, 55
2, 211840, Note_on_c, 0, 52, 47
2, 211852, Note_on_c, 0, 58, 41
2, 211875, Control_c, 0, 64, 62
2, 211884, Note_on_c, 0, 52, 0
2, 211894, Control_c, 0, 64, 65
2, 211913, Control_c, 0, 64, 66
2, 211933, Control_c, 0, 64, 66
2, 211951, Control_c, 0, 64, 67
2, 211971, Control_c, 0, 64, 70
2, 211981, Note_on_c, 0, 58, 0
2, 211987, Note_on_c, 0, 49, 0
2, 211990, Control_c, 0, 64, 74
2, 212010, Control_c, 0, 64, 76
2, 212028, Control_c, 0, 64, 77
2, 212086, Control_c, 0, 64, 77
2, 212105, Control_c, 0, 64, 78
2, 212124, Control_c, 0, 64, 80
2, 212137, Note_on_c, 0, 67, 0
2, 212153, Note_on_c, 0, 77, 83
2, 212162, Control_c, 0, 64, 70
2, 212172, Note_on_c, 0, 57, 67
2, 212182, Control_c, 0, 64, 47
2, 212188, Note_on_c, 0, 50, 51
2, 212192, Note_on_c, 0, 53, 45
2, 212201, Control_c, 0, 64, 0
2, 212219, Note_on_c, 0, 57, 0
2, 212236, Note_on_c, 0, 77, 0
2, 212244, Note_on_c, 0, 53, 0
2, 212279, Note_on_c, 0, 50, 0
2, 212326, Note_on_c, 0, 59, 76
2, 212366, Note_on_c, 0, 59, 0
2, 212482, Note_on_c, 0, 81, 82
2, 212487, Note_on_c, 0, 61, 68
2, 212506, Note_on_c, 0, 52, 47
2, 212517, Note_on_c, 0, 55, 41
2, 212533, Note_on_c, 0, 61, 0
2, 212583, Note_on_c, 0, 55, 0
2, 212583, Note_on_c, 0, 81, 0
2, 212618, Note_on_c, 0, 52, 0
2, 212646, Note_on_c, 0, 59, 70
2, 212694, Note_on_c, 0, 59, 0
2, 212796, Control_c, 0, 64, 52
2, 212806, Note_on_c, 0, 57, 66
2, 212816, Control_c, 0, 64, 58
2, 212823, Note_on_c, 0, 50, 56
2, 212834, Note_on_c, 0, 53, 48
2, 212835, Control_c, 0, 64, 57
2, 212854, Control_c, 0, 64, 59
2, 212873, Control_c, 0, 64, 60
2, 212882, Note_on_c, 0, 50, 0
2, 212893, Control_c, 0, 64, 62
2, 212896, Note_on_c, 0, 53, 0
2, 212911, Control_c, 0, 64, 63
2, 212924, Note_on_c, 0, 57, 0
2, 212950, Control_c, 0, 64, 64
2, 212988, Control_c, 0, 64, 64
2, 213007, Control_c, 0, 64, 65
2, 213027, Control_c, 0, 64, 66
2, 213046, Control_c, 0, 64, 68
2, 213065, Control_c, 0, 64, 70
2, 213084, Control_c, 0, 64, 71
2, 213104, Control_c, 0, 64, 70
2, 213122, Control_c, 0, 64, 62
2, 213135, Note_on_c, 0, 76, 78
2, 213142, Control_c, 0, 64, 0
2, 213148, Note_on_c, 0, 58, 61
2, 213152, Note_on_c, 0, 49, 53
2, 213157, Note_on_c, 0, 55, 46
2, 213281, Note_on_c, 0, 49, 0
2, 213289, Note_on_c, 0, 76, 0
2, 213300, Note_on_c, 0, 58, 0
2, 213386, Note_on_c, 0, 55, 0
2, 213478, Note_on_c, 0, 50, 44
2, 213478, Note_on_c, 0, 66, 67
2, 213481, Note_on_c, 0, 74, 76
2, 213502, Note_on_c, 0, 57, 44
2, 213526, Note_on_c, 0, 66, 0
2, 213634, Note_on_c, 0, 72, 80
2, 213654, Note_on_c, 0, 57, 0
2, 213736, Note_on_c, 0, 74, 0
2, 213748, Note_on_c, 0, 72, 0
2, 213787, Note_on_c, 0, 56, 59
2, 213809, Note_on_c, 0, 71, 71
2, 213809, Note_on_c, 0, 76, 69
2, 213846, Note_on_c, 0, 56, 0
2, 213855, Note_on_c, 0, 71, 0
2, 213893, Note_on_c, 0, 76, 0
2, 213914, Note_on_c, 0, 50, 0
2, 213937, Note_on_c, 0, 54, 61
2, 213967, Note_on_c, 0, 74, 74
2, 213976, Note_on_c, 0, 54, 0
2, 214062, Note_on_c, 0, 74, 0
2, 214130, Note_on_c, 0, 52, 55
2, 214142, Note_on_c, 0, 72, 74
2, 214177, Note_on_c, 0, 45, 36
2, 214236, Note_on_c, 0, 72, 0
2, 214294, Note_on_c, 0, 71, 72
2, 214355, Note_on_c, 0, 71, 0
2, 214447, Note_on_c, 0, 74, 66
2, 214459, Note_on_c, 0, 57, 50
2, 214464, Note_on_c, 0, 64, 62
2, 214483, Control_c, 0, 64, 36
2, 214502, Control_c, 0, 64, 53
2, 214513, Note_on_c, 0, 64, 0
2, 214520, Note_on_c, 0, 74, 0
2, 214521, Control_c, 0, 64, 59
2, 214544, Control_c, 0, 64, 61
2, 214562, Control_c, 0, 64, 62
2, 214582, Control_c, 0, 64, 62
2, 214598, Note_on_c, 0, 72, 74
2, 214601, Control_c, 0, 64, 63
2, 214621, Control_c, 0, 64, 64
2, 214639, Control_c, 0, 64, 64
2, 214646, Note_on_c, 0, 72, 0
2, 214659, Control_c, 0, 64, 65
2, 214678, Control_c, 0, 64, 66
2, 214697, Control_c, 0, 64, 67
2, 214716, Control_c, 0, 64, 69
2, 214736, Control_c, 0, 64, 68
2, 214755, Control_c, 0, 64, 63
2, 214772, Note_on_c, 0, 71, 68
2, 214774, Control_c, 0, 64, 0
2, 214777, Note_on_c, 0, 62, 60
2, 214814, Note_on_c, 0, 57, 0
2, 214853, Note_on_c, 0, 52, 0
2, 214886, Note_on_c, 0, 62, 0
2, 214932, Note_on_c, 0, 60, 45
2, 215019, Note_on_c, 0, 60, 0
2, 215076, Note_on_c, 0, 44, 60
2, 215091, Note_on_c, 0, 52, 66
2, 215097, Note_on_c, 0, 64, 49
2, 215100, Note_on_c, 0, 45, 0
2, 215154, Note_on_c, 0, 44, 0
2, 215192, Note_on_c, 0, 64, 0
2, 215249, Note_on_c, 0, 62, 50
2, 215399, Note_on_c, 0, 71, 0
2, 215402, Note_on_c, 0, 62, 0
2, 215427, Note_on_c, 0, 45, 63
2, 215439, Note_on_c, 0, 60, 54
2, 215507, Note_on_c, 0, 52, 0
2, 215551, Note_on_c, 0, 60, 0
2, 215594, Note_on_c, 0, 59, 53
2, 215676, Note_on_c, 0, 59, 0
2, 215749, Note_on_c, 0, 53, 62
2, 215773, Control_c, 0, 64, 29
2, 215782, Note_on_c, 0, 69, 65
2, 215791, Control_c, 0, 64, 32
2, 215804, Note_on_c, 0, 53, 0
2, 215811, Control_c, 0, 64, 41
2, 215830, Control_c, 0, 64, 50
2, 215850, Control_c, 0, 64, 56
2, 215868, Control_c, 0, 64, 59
2, 215887, Control_c, 0, 64, 60
2, 215900, Note_on_c, 0, 51, 55
2, 215910, Note_on_c, 0, 45, 0
2, 215924, Note_on_c, 0, 60, 48
2, 215926, Control_c, 0, 64, 61
2, 215941, Note_on_c, 0, 51, 0
2, 215945, Control_c, 0, 64, 61
2, 215964, Control_c, 0, 64, 62
2, 215984, Control_c, 0, 64, 63
2, 216002, Control_c, 0, 64, 64
2, 216015, Note_on_c, 0, 60, 0
2, 216022, Control_c, 0, 64, 65
2, 216041, Control_c, 0, 64, 64
2, 216061, Control_c, 0, 64, 56
2, 216062, Note_on_c, 0, 69, 0
2, 216079, Control_c, 0, 64, 0
2, 216093, Note_on_c, 0, 52, 53
2, 216098, Note_on_c, 0, 59, 65
2, 216118, Note_on_c, 0, 40, 34
2, 216191, Note_on_c, 0, 59, 0
2, 216245, Note_on_c, 0, 71, 58
2, 216332, Note_on_c, 0, 71, 0
2, 216402, Note_on_c, 0, 68, 65
2, 216442, Note_on_c, 0, 60, 26
2, 216468, Note_on_c, 0, 68, 0
2, 216506, Note_on_c, 0, 60, 0
2, 216572, Note_on_c, 0, 69, 63
2, 216638, Note_on_c, 0, 69, 0
2, 216739, Note_on_c, 0, 62, 45
2, 216747, Note_on_c, 0, 71, 55
2, 216874, Note_on_c, 0, 62, 0
2, 216903, Note_on_c, 0, 60, 33
2, 216968, Note_on_c, 0, 60, 0
2, 217069, Note_on_c, 0, 64, 48
2, 217121, Note_on_c, 0, 64, 0
2, 217210, Note_on_c, 0, 62, 53
2, 217272, Note_on_c, 0, 62, 0
2, 217385, Note_on_c, 0, 71, 0
2, 217391, Note_on_c, 0, 60, 58
2, 217504, Note_on_c, 0, 60, 0
2, 217541, Note_on_c, 0, 72, 65
2, 217644, Note_on_c, 0, 72, 0
2, 217713, Note_on_c, 0, 69, 68
2, 217738, Note_on_c, 0, 62, 42
2, 217760, Note_on_c, 0, 69, 0
2, 217775, Note_on_c, 0, 62, 0
2, 217869, Note_on_c, 0, 71, 77
2, 217937, Note_on_c, 0, 71, 0
2, 218030, Note_on_c, 0, 72, 77
2, 218035, Note_on_c, 0, 64, 65
2, 218167, Note_on_c, 0, 64, 0
2, 218205, Note_on_c, 0, 62, 69
2, 218258, Note_on_c, 0, 62, 0
2, 218361, Note_on_c, 0, 65, 70
2, 218412, Note_on_c, 0, 65, 0
2, 218508, Note_on_c, 0, 64, 72
2, 218566, Note_on_c, 0, 64, 0
2, 218659, Note_on_c, 0, 72, 0
2, 218688, Note_on_c, 0, 62, 72
2, 218728, Control_c, 0, 64, 19
2, 218747, Control_c, 0, 64, 41
2, 218766, Control_c, 0, 64, 47
2, 218786, Control_c, 0, 64, 48
2, 218825, Note_on_c, 0, 62, 0
2, 218830, Note_on_c, 0, 74, 71
2, 218843, Control_c, 0, 64, 48
2, 218863, Control_c, 0, 64, 50
2, 218881, Control_c, 0, 64, 52
2, 218901, Control_c, 0, 64, 54
2, 218920, Control_c, 0, 64, 55
2, 218964, Note_on_c, 0, 74, 0
2, 218997, Control_c, 0, 64, 54
2, 219005, Note_on_c, 0, 71, 76
2, 219016, Note_on_c, 0, 64, 63
2, 219017, Control_c, 0, 64, 54
2, 219035, Control_c, 0, 64, 52
2, 219055, Control_c, 0, 64, 50
2, 219057, Note_on_c, 0, 64, 0
2, 219074, Control_c, 0, 64, 48
2, 219075, Note_on_c, 0, 71, 0
2, 219093, Control_c, 0, 64, 45
2, 219112, Control_c, 0, 64, 41
2, 219132, Control_c, 0, 64, 36
2, 219151, Control_c, 0, 64, 26
2, 219158, Note_on_c, 0, 72, 89
2, 219170, Control_c, 0, 64, 8
2, 219189, Control_c, 0, 64, 0
2, 219234, Note_on_c, 0, 72, 0
2, 219337, Note_on_c, 0, 74, 82
2, 219355, Note_on_c, 0, 65, 60
2, 219508, Note_on_c, 0, 72, 86
2, 219588, Note_on_c, 0, 65, 0
2, 219590, Note_on_c, 0, 74, 0
2, 219631, Note_on_c, 0, 72, 0
2, 219666, Note_on_c, 0, 71, 85
2, 219702, Note_on_c, 0, 40, 0
2, 219752, Note_on_c, 0, 71, 0
2, 219808, Note_on_c, 0, 69, 89
2, 219935, Note_on_c, 0, 69, 0
2, 219967, Note_on_c, 0, 68, 94
2, 220017, Control_c, 0, 64, 34
2, 220036, Control_c, 0, 64, 63
2, 220037, Note_on_c, 0, 52, 0
2, 220091, Note_on_c, 0, 68, 0
2, 220094, Control_c, 0, 64, 64
2, 220112, Control_c, 0, 64, 65
2, 220125, Note_on_c, 0, 71, 78
2, 220132, Control_c, 0, 64, 65
2, 220151, Control_c, 0, 64, 66
2, 220189, Control_c, 0, 64, 66
2, 220228, Control_c, 0, 64, 67
2, 220246, Control_c, 0, 64, 67
2, 220254, Note_on_c, 0, 71, 0
2, 220296, Note_on_c, 0, 52, 91
2, 220297, Note_on_c, 0, 72, 80
2, 220303, Control_c, 0, 64, 65
2, 220321, Control_c, 0, 64, 57
2, 220341, Control_c, 0, 64, 0
2, 220362, Note_on_c, 0, 52, 0
2, 220434, Note_on_c, 0, 72, 0
2, 220450, Note_on_c, 0, 74, 76
2, 220457, Note_on_c, 0, 53, 86
2, 220534, Note_on_c, 0, 53, 0
2, 220599, Note_on_c, 0, 74, 0
2, 220632, Note_on_c, 0, 52, 85
2, 220633, Note_on_c, 0, 76, 77
2, 220693, Note_on_c, 0, 52, 0
2, 220788, Note_on_c, 0, 77, 82
2, 220831, Note_on_c, 0, 76, 0
2, 220959, Note_on_c, 0, 79, 86
2, 220962, Note_on_c, 0, 77, 0
2, 220968, Note_on_c, 0, 50, 87
2, 221044, Note_on_c, 0, 50, 0
2, 221128, Note_on_c, 0, 70, 89
2, 221299, Note_on_c, 0, 69, 93
2, 221307, Note_on_c, 0, 49, 81
2, 221320, Note_on_c, 0, 79, 0
2, 221331, Note_on_c, 0, 70, 0
2, 221343, Control_c, 0, 64, 40
2, 221361, Control_c, 0, 64, 64
2, 221380, Control_c, 0, 64, 63
2, 221419, Control_c, 0, 64, 63
2, 221472, Note_on_c, 0, 81, 90
2, 221523, Note_on_c, 0, 49, 0
2, 221569, Note_on_c, 0, 81, 0
2, 221611, Control_c, 0, 64, 61
2, 221626, Note_on_c, 0, 52, 75
2, 221630, Control_c, 0, 64, 45
2, 221635, Note_on_c, 0, 79, 87
2, 221649, Control_c, 0, 64, 0
2, 221676, Note_on_c, 0, 52, 0
2, 221680, Note_on_c, 0, 50, 20
2, 221740, Note_on_c, 0, 50, 0
2, 221744, Note_on_c, 0, 79, 0
2, 221782, Note_on_c, 0, 77, 88
2, 221784, Note_on_c, 0, 50, 60
2, 221795, Note_on_c, 0, 53, 72
2, 221839, Note_on_c, 0, 53, 0
2, 221842, Note_on_c, 0, 50, 0
2, 221874, Note_on_c, 0, 77, 0
2, 221954, Note_on_c, 0, 79, 90
2, 221961, Note_on_c, 0, 52, 71
2, 221978, Note_on_c, 0, 49, 62
2, 222035, Note_on_c, 0, 52, 0
2, 222047, Note_on_c, 0, 49, 0
2, 222081, Note_on_c, 0, 69, 0
2, 222131, Note_on_c, 0, 73, 81
2, 222239, Note_on_c, 0, 73, 0
2, 222291, Note_on_c, 0, 50, 78
2, 222296, Note_on_c, 0, 47, 69
2, 222296, Note_on_c, 0, 76, 84
2, 222341, Note_on_c, 0, 50, 0
2, 222346, Note_on_c, 0, 47, 0
2, 222405, Note_on_c, 0, 76, 0
2, 222460, Note_on_c, 0, 74, 81
2, 222552, Note_on_c, 0, 74, 0
2, 222627, Note_on_c, 0, 76, 91
2, 222628, Note_on_c, 0, 49, 80
2, 222639, Note_on_c, 0, 45, 60
2, 222646, Control_c, 0, 64, 29
2, 222666, Control_c, 0, 64, 53
2, 222693, Note_on_c, 0, 79, 0
2, 222708, Note_on_c, 0, 45, 0
2, 222711, Note_on_c, 0, 49, 0
2, 222723, Control_c, 0, 64, 54
2, 222743, Control_c, 0, 64, 54
2, 222762, Control_c, 0, 64, 55
2, 222780, Note_on_c, 0, 47, 81
2, 222781, Control_c, 0, 64, 56
2, 222791, Note_on_c, 0, 77, 89
2, 222800, Control_c, 0, 64, 57
2, 222820, Control_c, 0, 64, 58
2, 222834, Note_on_c, 0, 76, 0
2, 222839, Control_c, 0, 64, 58
2, 222848, Note_on_c, 0, 47, 0
2, 222858, Control_c, 0, 64, 59
2, 222912, Note_on_c, 0, 77, 0
2, 222916, Control_c, 0, 64, 58
2, 222935, Control_c, 0, 64, 50
2, 222948, Note_on_c, 0, 49, 81
2, 222954, Control_c, 0, 64, 0
2, 222955, Note_on_c, 0, 76, 91
2, 222963, Note_on_c, 0, 50, 63
2, 222990, Note_on_c, 0, 49, 0
2, 223006, Note_on_c, 0, 50, 0
2, 223052, Note_on_c, 0, 76, 0
2, 223103, Note_on_c, 0, 77, 90
2, 223121, Note_on_c, 0, 50, 69
2, 223146, Note_on_c, 0, 49, 40
2, 223168, Note_on_c, 0, 50, 0
2, 223196, Note_on_c, 0, 49, 0
2, 223269, Note_on_c, 0, 47, 56
2, 223275, Note_on_c, 0, 79, 91
2, 223289, Note_on_c, 0, 77, 0
2, 223299, Control_c, 0, 64, 49
2, 223318, Control_c, 0, 64, 54
2, 223323, Note_on_c, 0, 47, 0
2, 223332, Note_on_c, 0, 45, 28
2, 223337, Control_c, 0, 64, 57
2, 223356, Control_c, 0, 64, 58
2, 223376, Control_c, 0, 64, 59
2, 223387, Note_on_c, 0, 45, 0
2, 223430, Note_on_c, 0, 69, 78
2, 223433, Control_c, 0, 64, 59
2, 223453, Control_c, 0, 64, 60
2, 223471, Control_c, 0, 64, 62
2, 223491, Control_c, 0, 64, 63
2, 223507, Note_on_c, 0, 69, 0
2, 223510, Control_c, 0, 64, 65
2, 223529, Control_c, 0, 64, 66
2, 223567, Control_c, 0, 64, 65
2, 223602, Note_on_c, 0, 46, 78
2, 223606, Control_c, 0, 64, 65
2, 223608, Note_on_c, 0, 43, 54
2, 223619, Note_on_c, 0, 73, 82
2, 223625, Control_c, 0, 64, 64
2, 223639, Note_on_c, 0, 46, 0
2, 223644, Control_c, 0, 64, 64
2, 223645, Note_on_c, 0, 74, 30
2, 223652, Note_on_c, 0, 43, 0
2, 223682, Control_c, 0, 64, 63
2, 223692, Note_on_c, 0, 74, 0
2, 223704, Note_on_c, 0, 73, 0
2, 223721, Control_c, 0, 64, 63
2, 223728, Note_on_c, 0, 79, 0
2, 223773, Note_on_c, 0, 74, 84
2, 223856, Control_c, 0, 64, 63
2, 223875, Control_c, 0, 64, 63
2, 223894, Control_c, 0, 64, 60
2, 223913, Control_c, 0, 64, 31
2, 223923, Note_on_c, 0, 74, 0
2, 223933, Control_c, 0, 64, 0
2, 223956, Note_on_c, 0, 45, 80
2, 223960, Note_on_c, 0, 41, 71
2, 223960, Note_on_c, 0, 76, 85
2, 224135, Note_on_c, 0, 82, 82
2, 224149, Note_on_c, 0, 73, 66
2, 224221, Note_on_c, 0, 73, 0
2, 224234, Note_on_c, 0, 82, 0
2, 224308, Note_on_c, 0, 81, 83
2, 224320, Note_on_c, 0, 74, 69
2, 224321, Note_on_c, 0, 76, 0
2, 224430, Note_on_c, 0, 74, 0
2, 224477, Note_on_c, 0, 79, 90
2, 224534, Note_on_c, 0, 41, 0
2, 224564, Note_on_c, 0, 45, 0
2, 224568, Control_c, 0, 64, 43
2, 224588, Control_c, 0, 64, 49
2, 224605, Note_on_c, 0, 79, 0
2, 224607, Control_c, 0, 64, 55
2, 224626, Control_c, 0, 64, 58
2, 224641, Note_on_c, 0, 77, 87
2, 224645, Control_c, 0, 64, 60
2, 224665, Control_c, 0, 64, 62
2, 224681, Note_on_c, 0, 79, 11
2, 224684, Control_c, 0, 64, 62
2, 224722, Control_c, 0, 64, 63
2, 224734, Note_on_c, 0, 79, 0
2, 224749, Note_on_c, 0, 81, 0
2, 224755, Note_on_c, 0, 77, 0
2, 224761, Control_c, 0, 64, 63
2, 224780, Control_c, 0, 64, 64
2, 224792, Note_on_c, 0, 76, 86
2, 224799, Control_c, 0, 64, 65
2, 224819, Control_c, 0, 64, 67
2, 224837, Control_c, 0, 64, 70
2, 224840, Note_on_c, 0, 76, 0
2, 224857, Control_c, 0, 64, 75
2, 224876, Control_c, 0, 64, 82
2, 224896, Control_c, 0, 64, 89
2, 224912, Control_c, 0, 64, 92
2, 224932, Control_c, 0, 64, 84
2, 224951, Control_c, 0, 64, 66
2, 224955, Note_on_c, 0, 65, 75
2, 224958, Note_on_c, 0, 53, 60
2, 224967, Note_on_c, 0, 74, 84
2, 224971, Control_c, 0, 64, 0
2, 224980, Note_on_c, 0, 69, 66
2, 224998, Note_on_c, 0, 65, 0
2, 225022, Note_on_c, 0, 69, 0
2, 225055, Note_on_c, 0, 74, 0
2, 225104, Note_on_c, 0, 64, 73
2, 225129, Note_on_c, 0, 73, 86
2, 225146, Note_on_c, 0, 67, 60
2, 225152, Note_on_c, 0, 64, 0
2, 225181, Note_on_c, 0, 67, 0
2, 225214, Note_on_c, 0, 73, 0
2, 225305, Note_on_c, 0, 58, 57
2, 225308, Note_on_c, 0, 62, 67
2, 225313, Note_on_c, 0, 74, 86
2, 225332, Note_on_c, 0, 65, 62
2, 225336, Note_on_c, 0, 53, 0
2, 225493, Note_on_c, 0, 76, 85
2, 225517, Note_on_c, 0, 74, 0
2, 225520, Note_on_c, 0, 65, 0
2, 225603, Note_on_c, 0, 76, 0
2, 225663, Note_on_c, 0, 74, 82
2, 225673, Note_on_c, 0, 55, 59
2, 225678, Note_on_c, 0, 70, 64
2, 225709, Note_on_c, 0, 73, 32
2, 225715, Note_on_c, 0, 70, 0
2, 225736, Note_on_c, 0, 73, 0
2, 225751, Note_on_c, 0, 58, 0
2, 225754, Note_on_c, 0, 74, 0
2, 225847, Note_on_c, 0, 76, 86
2, 225916, Note_on_c, 0, 76, 0
2, 226039, Note_on_c, 0, 77, 86
2, 226062, Note_on_c, 0, 69, 55
2, 226078, Note_on_c, 0, 57, 35
2, 226118, Note_on_c, 0, 76, 83
2, 226122, Note_on_c, 0, 77, 0
2, 226130, Note_on_c, 0, 55, 0
2, 226139, Note_on_c, 0, 57, 0
2, 226139, Note_on_c, 0, 57, 7
2, 226164, Note_on_c, 0, 69, 0
2, 226199, Note_on_c, 0, 76, 0
2, 226204, Note_on_c, 0, 77, 75
2, 226273, Note_on_c, 0, 76, 82
2, 226295, Note_on_c, 0, 77, 0
2, 226431, Note_on_c, 0, 61, 69
2, 226436, Note_on_c, 0, 67, 65
2, 226463, Note_on_c, 0, 76, 0
2, 226504, Control_c, 0, 64, 18
2, 226520, Note_on_c, 0, 62, 0
2, 226523, Control_c, 0, 64, 42
2, 226543, Control_c, 0, 64, 56
2, 226561, Control_c, 0, 64, 61
2, 226581, Control_c, 0, 64, 62
2, 226600, Control_c, 0, 64, 63
2, 226620, Control_c, 0, 64, 63
2, 226627, Note_on_c, 0, 74, 84
2, 226638, Control_c, 0, 64, 64
2, 226658, Control_c, 0, 64, 64
2, 226665, Note_on_c, 0, 61, 0
2, 226697, Control_c, 0, 64, 65
2, 226707, Note_on_c, 0, 74, 0
2, 226715, Control_c, 0, 64, 65
2, 226735, Control_c, 0, 64, 66
2, 226754, Control_c, 0, 64, 68
2, 226773, Control_c, 0, 64, 70
2, 226792, Control_c, 0, 64, 72
2, 226812, Control_c, 0, 64, 70
2, 226830, Control_c, 0, 64, 62
2, 226848, Control_c, 0, 64, 0
2, 226877, Note_on_c, 0, 57, 0
2, 226899, Note_on_c, 0, 62, 73
2, 226906, Note_on_c, 0, 50, 67
2, 226906, Note_on_c, 0, 74, 79
2, 226933, Note_on_c, 0, 62, 0
2, 226945, Control_c, 0, 64, 11
2, 226955, Note_on_c, 0, 50, 0
2, 226964, Control_c, 0, 64, 61
2, 226983, Control_c, 0, 64, 64
2, 227002, Control_c, 0, 64, 66
2, 227023, Control_c, 0, 64, 67
2, 227041, Control_c, 0, 64, 69
2, 227061, Control_c, 0, 64, 72
2, 227080, Control_c, 0, 64, 77
2, 227100, Control_c, 0, 64, 82
2, 227118, Control_c, 0, 64, 85
2, 227138, Control_c, 0, 64, 88
2, 227157, Control_c, 0, 64, 91
2, 227164, Note_on_c, 0, 67, 0
2, 227177, Control_c, 0, 64, 94
2, 227195, Control_c, 0, 64, 98
2, 227234, Control_c, 0, 64, 82
2, 227242, Note_on_c, 0, 50, 71
2, 227250, Note_on_c, 0, 57, 63
2, 227253, Control_c, 0, 64, 61
2, 227265, Note_on_c, 0, 65, 55
2, 227272, Control_c, 0, 64, 0
2, 227294, Note_on_c, 0, 50, 0
2, 227322, Note_on_c, 0, 65, 0
2, 227398, Note_on_c, 0, 49, 70
2, 227462, Note_on_c, 0, 64, 16
2, 227471, Note_on_c, 0, 49, 0
2, 227524, Note_on_c, 0, 64, 0
2, 227580, Note_on_c, 0, 50, 74
2, 227593, Note_on_c, 0, 57, 0
2, 227615, Note_on_c, 0, 65, 40
2, 227622, Note_on_c, 0, 50, 0
2, 227687, Note_on_c, 0, 65, 0
2, 227699, Note_on_c, 0, 67, 50
2, 227897, Note_on_c, 0, 52, 69
2, 227934, Note_on_c, 0, 69, 47
2, 227938, Note_on_c, 0, 52, 0
2, 228001, Note_on_c, 0, 67, 0
2, 228071, Note_on_c, 0, 65, 40
2, 228225, Note_on_c, 0, 74, 0
2, 228232, Note_on_c, 0, 53, 63
2, 228244, Note_on_c, 0, 62, 35
2, 228250, Note_on_c, 0, 69, 0
2, 228252, Control_c, 0, 64, 59
2, 228267, Note_on_c, 0, 65, 0
2, 228271, Control_c, 0, 64, 62
2, 228282, Note_on_c, 0, 62, 0
2, 228289, Control_c, 0, 64, 63
2, 228309, Control_c, 0, 64, 64
2, 228328, Control_c, 0, 64, 65
2, 228347, Control_c, 0, 64, 69
2, 228366, Control_c, 0, 64, 75
2, 228386, Control_c, 0, 64, 86
2, 228405, Control_c, 0, 64, 94
2, 228406, Note_on_c, 0, 53, 0
2, 228424, Control_c, 0, 64, 98
2, 228443, Control_c, 0, 64, 98
2, 228463, Control_c, 0, 64, 99
2, 228481, Control_c, 0, 64, 100
2, 228501, Control_c, 0, 64, 101
2, 228540, Control_c, 0, 64, 96
2, 228558, Control_c, 0, 64, 78
2, 228568, Note_on_c, 0, 53, 54
2, 228574, Note_on_c, 0, 57, 58
2, 228578, Control_c, 0, 64, 58
2, 228597, Control_c, 0, 64, 0
2, 228600, Note_on_c, 0, 53, 0
2, 228617, Note_on_c, 0, 57, 0
2, 228718, Note_on_c, 0, 56, 61
2, 228739, Note_on_c, 0, 52, 44
2, 228763, Note_on_c, 0, 56, 0
2, 228772, Note_on_c, 0, 52, 0
2, 228884, Note_on_c, 0, 54, 54
2, 228893, Note_on_c, 0, 57, 65
2, 228935, Note_on_c, 0, 57, 0
2, 228937, Note_on_c, 0, 54, 0
2, 229231, Note_on_c, 0, 59, 70
2, 229234, Note_on_c, 0, 56, 56
2, 229280, Note_on_c, 0, 56, 0
2, 229294, Note_on_c, 0, 59, 0
2, 229558, Note_on_c, 0, 60, 61
2, 229578, Note_on_c, 0, 57, 19
2, 229615, Control_c, 0, 64, 53
2, 229672, Control_c, 0, 64, 54
2, 229692, Control_c, 0, 64, 56
2, 229699, Note_on_c, 0, 57, 0
2, 229706, Note_on_c, 0, 56, 52
2, 229711, Control_c, 0, 64, 59
2, 229729, Control_c, 0, 64, 60
2, 229749, Control_c, 0, 64, 61
2, 229767, Note_on_c, 0, 56, 0
2, 229768, Control_c, 0, 64, 61
2, 229810, Note_on_c, 0, 60, 0
2, 229826, Control_c, 0, 64, 60
2, 229845, Control_c, 0, 64, 54
2, 229864, Control_c, 0, 64, 0
2, 229869, Note_on_c, 0, 54, 56
2, 229893, Note_on_c, 0, 60, 64
2, 229921, Note_on_c, 0, 54, 0
2, 229938, Note_on_c, 0, 60, 0
2, 230029, Note_on_c, 0, 56, 58
2, 230042, Note_on_c, 0, 59, 70
2, 230061, Note_on_c, 0, 56, 0
2, 230095, Note_on_c, 0, 59, 0
2, 230201, Note_on_c, 0, 57, 60
2, 230208, Note_on_c, 0, 60, 71
2, 230252, Note_on_c, 0, 60, 0
2, 230266, Note_on_c, 0, 57, 0
2, 230535, Note_on_c, 0, 59, 74
2, 230537, Control_c, 0, 64, 21
2, 230537, Note_on_c, 0, 62, 55
2, 230555, Control_c, 0, 64, 47
2, 230575, Control_c, 0, 64, 51
2, 230594, Control_c, 0, 64, 54
2, 230601, Note_on_c, 0, 62, 0
2, 230613, Control_c, 0, 64, 57
2, 230632, Control_c, 0, 64, 59
2, 230652, Control_c, 0, 64, 61
2, 230670, Control_c, 0, 64, 63
2, 230688, Control_c, 0, 64, 64
2, 230708, Control_c, 0, 64, 66
2, 230727, Control_c, 0, 64, 68
2, 230746, Control_c, 0, 64, 71
2, 230765, Control_c, 0, 64, 76
2, 230785, Control_c, 0, 64, 79
2, 230823, Control_c, 0, 64, 72
2, 230842, Control_c, 0, 64, 60
2, 230849, Note_on_c, 0, 48, 62
2, 230849, Note_on_c, 0, 59, 0
2, 230863, Control_c, 0, 64, 0
2, 230867, Note_on_c, 0, 64, 68
2, 230904, Note_on_c, 0, 48, 0
2, 230939, Note_on_c, 0, 64, 0
2, 231017, Note_on_c, 0, 62, 64
2, 231070, Note_on_c, 0, 62, 0
2, 231173, Note_on_c, 0, 45, 51
2, 231186, Note_on_c, 0, 60, 62
2, 231235, Note_on_c, 0, 60, 0
2, 231237, Note_on_c, 0, 45, 0
2, 231332, Note_on_c, 0, 62, 63
2, 231380, Note_on_c, 0, 62, 0
2, 231505, Note_on_c, 0, 64, 67
2, 231555, Note_on_c, 0, 64, 0
2, 231825, Note_on_c, 0, 65, 74
2, 231838, Note_on_c, 0, 50, 45
2, 231862, Control_c, 0, 64, 39
2, 231881, Control_c, 0, 64, 40
2, 231901, Control_c, 0, 64, 48
2, 231919, Control_c, 0, 64, 54
2, 231939, Control_c, 0, 64, 58
2, 231958, Control_c, 0, 64, 61
2, 231977, Control_c, 0, 64, 63
2, 231994, Note_on_c, 0, 50, 0
2, 231996, Control_c, 0, 64, 64
2, 232016, Control_c, 0, 64, 66
2, 232035, Control_c, 0, 64, 68
2, 232054, Control_c, 0, 64, 70
2, 232073, Control_c, 0, 64, 73
2, 232093, Control_c, 0, 64, 75
2, 232111, Control_c, 0, 64, 74
2, 232130, Control_c, 0, 64, 67
2, 232134, Note_on_c, 0, 65, 0
2, 232138, Note_on_c, 0, 52, 56
2, 232150, Control_c, 0, 64, 52
2, 232154, Note_on_c, 0, 56, 71
2, 232169, Control_c, 0, 64, 0
2, 232196, Note_on_c, 0, 52, 0
2, 232197, Note_on_c, 0, 56, 0
2, 232304, Note_on_c, 0, 53, 47
2, 232358, Note_on_c, 0, 53, 0
2, 232471, Note_on_c, 0, 50, 52
2, 232481, Note_on_c, 0, 52, 54
2, 232523, Note_on_c, 0, 52, 0
2, 232531, Note_on_c, 0, 50, 0
2, 232622, Note_on_c, 0, 52, 60
2, 232676, Note_on_c, 0, 52, 0
2, 232786, Note_on_c, 0, 53, 60
2, 232878, Note_on_c, 0, 53, 0
2, 232951, Note_on_c, 0, 55, 48
2, 233008, Note_on_c, 0, 55, 0
2, 233099, Note_on_c, 0, 52, 50
2, 233111, Note_on_c, 0, 57, 64
2, 233146, Note_on_c, 0, 52, 0
2, 233178, Note_on_c, 0, 57, 0
2, 233257, Note_on_c, 0, 54, 49
2, 233309, Note_on_c, 0, 54, 0
2, 233448, Note_on_c, 0, 55, 50
2, 233455, Note_on_c, 0, 59, 67
2, 233569, Note_on_c, 0, 59, 0
2, 233615, Note_on_c, 0, 55, 0
2, 233615, Note_on_c, 0, 60, 64
2, 233665, Note_on_c, 0, 60, 0
2, 233775, Note_on_c, 0, 57, 65
2, 233799, Note_on_c, 0, 53, 36
2, 233815, Note_on_c, 0, 57, 0
2, 233841, Note_on_c, 0, 53, 0
2, 233935, Note_on_c, 0, 59, 65
2, 233975, Note_on_c, 0, 59, 0
2, 234101, Note_on_c, 0, 52, 52
2, 234114, Note_on_c, 0, 60, 59
2, 234207, Note_on_c, 0, 60, 0
2, 234265, Note_on_c, 0, 62, 53
2, 234266, Note_on_c, 0, 52, 0
2, 234324, Note_on_c, 0, 62, 0
2, 234438, Note_on_c, 0, 57, 44
2, 234446, Note_on_c, 0, 59, 55
2, 234479, Note_on_c, 0, 59, 0
2, 234519, Note_on_c, 0, 57, 0
2, 234587, Note_on_c, 0, 61, 55
2, 234647, Note_on_c, 0, 61, 0
2, 234766, Note_on_c, 0, 62, 55
2, 234770, Note_on_c, 0, 50, 37
2, 234779, Control_c, 0, 64, 55
2, 234797, Control_c, 0, 64, 60
2, 234803, Note_on_c, 0, 62, 0
2, 234817, Control_c, 0, 64, 61
2, 234836, Control_c, 0, 64, 62
2, 234856, Control_c, 0, 64, 64
2, 234874, Control_c, 0, 64, 67
2, 234894, Control_c, 0, 64, 71
2, 234913, Control_c, 0, 64, 76
2, 234931, Control_c, 0, 64, 79
2, 234951, Control_c, 0, 64, 79
2, 234990, Control_c, 0, 64, 79
2, 235085, Control_c, 0, 64, 78
2, 235105, Control_c, 0, 64, 76
2, 235124, Control_c, 0, 64, 71
2, 235142, Note_on_c, 0, 76, 67
2, 235143, Control_c, 0, 64, 66
2, 235144, Note_on_c, 0, 57, 37
2, 235147, Note_on_c, 0, 60, 37
2, 235162, Control_c, 0, 64, 59
2, 235182, Control_c, 0, 64, 40
2, 235198, Note_on_c, 0, 76, 0
2, 235201, Control_c, 0, 64, 0
2, 235207, Note_on_c, 0, 50, 0
2, 235287, Note_on_c, 0, 77, 71
2, 235358, Note_on_c, 0, 77, 0
2, 235445, Note_on_c, 0, 60, 0
2, 235450, Note_on_c, 0, 59, 56
2, 235466, Note_on_c, 0, 76, 72
2, 235504, Note_on_c, 0, 57, 0
2, 235527, Note_on_c, 0, 76, 0
2, 235623, Note_on_c, 0, 56, 52
2, 235667, Note_on_c, 0, 59, 0
2, 235715, Note_on_c, 0, 56, 0
2, 235779, Note_on_c, 0, 74, 71
2, 235798, Note_on_c, 0, 64, 46
2, 235813, Note_on_c, 0, 57, 43
2, 235834, Note_on_c, 0, 74, 0
2, 235886, Note_on_c, 0, 64, 0
2, 235933, Note_on_c, 0, 57, 0
2, 235968, Note_on_c, 0, 56, 50
2, 236124, Note_on_c, 0, 56, 0
2, 236124, Note_on_c, 0, 72, 73
2, 236131, Note_on_c, 0, 57, 52
2, 236181, Control_c, 0, 64, 50
2, 236200, Control_c, 0, 64, 58
2, 236220, Control_c, 0, 64, 60
2, 236238, Control_c, 0, 64, 61
2, 236258, Control_c, 0, 64, 63
2, 236277, Control_c, 0, 64, 64
2, 236297, Control_c, 0, 64, 65
2, 236315, Control_c, 0, 64, 66
2, 236335, Control_c, 0, 64, 68
2, 236352, Note_on_c, 0, 72, 0
2, 236354, Control_c, 0, 64, 69
2, 236373, Control_c, 0, 64, 70
2, 236411, Control_c, 0, 64, 69
2, 236431, Control_c, 0, 64, 66
2, 236448, Control_c, 0, 64, 60
2, 236457, Note_on_c, 0, 69, 69
2, 236462, Note_on_c, 0, 72, 74
2, 236468, Control_c, 0, 64, 31
2, 236487, Control_c, 0, 64, 0
2, 236505, Note_on_c, 0, 69, 0
2, 236520, Note_on_c, 0, 72, 0
2, 236611, Note_on_c, 0, 71, 72
2, 236624, Note_on_c, 0, 74, 68
2, 236660, Note_on_c, 0, 71, 0
2, 236691, Note_on_c, 0, 74, 0
2, 236798, Note_on_c, 0, 72, 77
2, 236802, Note_on_c, 0, 69, 70
2, 236847, Note_on_c, 0, 69, 0
2, 236867, Note_on_c, 0, 72, 0
2, 236961, Note_on_c, 0, 55, 58
2, 236965, Note_on_c, 0, 57, 0
2, 237122, Note_on_c, 0, 55, 0
2, 237128, Note_on_c, 0, 70, 74
2, 237129, Note_on_c, 0, 67, 64
2, 237132, Note_on_c, 0, 53, 55
2, 237205, Note_on_c, 0, 67, 0
2, 237221, Note_on_c, 0, 70, 0
2, 237288, Note_on_c, 0, 53, 0
2, 237306, Note_on_c, 0, 52, 56
2, 237440, Note_on_c, 0, 52, 0
2, 237469, Note_on_c, 0, 53, 56
2, 237488, Note_on_c, 0, 69, 76
2, 237491, Note_on_c, 0, 65, 63
2, 237525, Control_c, 0, 64, 50
2, 237544, Control_c, 0, 64, 59
2, 237563, Control_c, 0, 64, 59
2, 237583, Control_c, 0, 64, 60
2, 237583, Note_on_c, 0, 69, 0
2, 237601, Control_c, 0, 64, 61
2, 237621, Control_c, 0, 64, 62
2, 237640, Control_c, 0, 64, 63
2, 237647, Note_on_c, 0, 70, 79
2, 237660, Control_c, 0, 64, 64
2, 237665, Note_on_c, 0, 65, 0
2, 237678, Control_c, 0, 64, 65
2, 237698, Control_c, 0, 64, 66
2, 237717, Control_c, 0, 64, 68
2, 237734, Note_on_c, 0, 70, 0
2, 237737, Control_c, 0, 64, 69
2, 237755, Control_c, 0, 64, 68
2, 237775, Control_c, 0, 64, 64
2, 237794, Control_c, 0, 64, 53
2, 237808, Note_on_c, 0, 72, 78
2, 237811, Note_on_c, 0, 65, 67
2, 237812, Control_c, 0, 64, 0
2, 237817, Note_on_c, 0, 57, 50
2, 237850, Note_on_c, 0, 65, 0
2, 237870, Note_on_c, 0, 57, 0
2, 237883, Note_on_c, 0, 72, 0
2, 237965, Note_on_c, 0, 70, 77
2, 237967, Note_on_c, 0, 67, 67
2, 237970, Note_on_c, 0, 58, 57
2, 238007, Note_on_c, 0, 67, 0
2, 238036, Note_on_c, 0, 58, 0
2, 238054, Note_on_c, 0, 70, 0
2, 238147, Note_on_c, 0, 60, 57
2, 238150, Note_on_c, 0, 69, 75
2, 238163, Note_on_c, 0, 65, 53
2, 238198, Note_on_c, 0, 65, 0
2, 238201, Note_on_c, 0, 60, 0
2, 238219, Note_on_c, 0, 53, 0
2, 238231, Note_on_c, 0, 69, 0
2, 238276, Note_on_c, 0, 52, 55
2, 238361, Note_on_c, 0, 52, 0
2, 238457, Note_on_c, 0, 58, 56
2, 238468, Note_on_c, 0, 50, 45
2, 238479, Note_on_c, 0, 64, 64
2, 238479, Note_on_c, 0, 67, 78
2, 238483, Note_on_c, 0, 68, 43
2, 238504, Control_c, 0, 64, 61
2, 238505, Note_on_c, 0, 68, 0
2, 238516, Note_on_c, 0, 64, 0
2, 238523, Control_c, 0, 64, 69
2, 238543, Control_c, 0, 64, 72
2, 238546, Note_on_c, 0, 67, 0
2, 238551, Note_on_c, 0, 50, 0
2, 238558, Note_on_c, 0, 58, 0
2, 238561, Control_c, 0, 64, 73
2, 238581, Control_c, 0, 64, 73
2, 238600, Control_c, 0, 64, 75
2, 238614, Note_on_c, 0, 49, 71
2, 238620, Control_c, 0, 64, 78
2, 238638, Control_c, 0, 64, 82
2, 238658, Control_c, 0, 64, 86
2, 238677, Control_c, 0, 64, 88
2, 238684, Note_on_c, 0, 49, 0
2, 238697, Control_c, 0, 64, 89
2, 238715, Control_c, 0, 64, 90
2, 238772, Control_c, 0, 64, 83
2, 238792, Control_c, 0, 64, 68
2, 238808, Note_on_c, 0, 77, 83
2, 238811, Control_c, 0, 64, 34
2, 238812, Note_on_c, 0, 50, 57
2, 238812, Note_on_c, 0, 62, 72
2, 238831, Control_c, 0, 64, 0
2, 238843, Note_on_c, 0, 50, 0
2, 238903, Note_on_c, 0, 62, 0
2, 238908, Note_on_c, 0, 77, 0
2, 238974, Note_on_c, 0, 64, 73
2, 239041, Note_on_c, 0, 64, 0
2, 239131, Note_on_c, 0, 81, 80
2, 239143, Note_on_c, 0, 62, 69
2, 239146, Note_on_c, 0, 65, 65
2, 239190, Note_on_c, 0, 65, 0
2, 239204, Note_on_c, 0, 62, 0
2, 239211, Note_on_c, 0, 81, 0
2, 239302, Note_on_c, 0, 64, 80
2, 239360, Note_on_c, 0, 64, 0
2, 239465, Note_on_c, 0, 65, 72
2, 239477, Note_on_c, 0, 62, 61
2, 239536, Note_on_c, 0, 62, 0
2, 239549, Note_on_c, 0, 65, 0
2, 239624, Note_on_c, 0, 67, 65
2, 239628, Note_on_c, 0, 62, 20
2, 239684, Note_on_c, 0, 62, 0
2, 239724, Note_on_c, 0, 67, 0
2, 239803, Note_on_c, 0, 69, 82
2, 239814, Note_on_c, 0, 76, 73
2, 239816, Note_on_c, 0, 61, 61
2, 239848, Control_c, 0, 64, 34
2, 239867, Control_c, 0, 64, 56
2, 239886, Control_c, 0, 64, 58
2, 239906, Control_c, 0, 64, 59
2, 239925, Control_c, 0, 64, 61
2, 239944, Control_c, 0, 64, 63
2, 239963, Control_c, 0, 64, 65
2, 239983, Control_c, 0, 64, 68
2, 240001, Control_c, 0, 64, 73
2, 240009, Note_on_c, 0, 76, 0
2, 240021, Control_c, 0, 64, 80
2, 240040, Control_c, 0, 64, 87
2, 240060, Control_c, 0, 64, 92
2, 240078, Control_c, 0, 64, 91
2, 240098, Control_c, 0, 64, 77
2, 240117, Control_c, 0, 64, 61
2, 240137, Control_c, 0, 64, 0
2, 240137, Note_on_c, 0, 70, 80
2, 240142, Note_on_c, 0, 74, 76
2, 240163, Note_on_c, 0, 61, 0
2, 240208, Note_on_c, 0, 70, 0
2, 240218, Note_on_c, 0, 74, 0
2, 240292, Note_on_c, 0, 73, 78
2, 240364, Note_on_c, 0, 73, 0
2, 240422, Note_on_c, 0, 69, 0
2, 240461, Note_on_c, 0, 67, 60
2, 240473, Note_on_c, 0, 76, 79
2, 240488, Note_on_c, 0, 74, 58
2, 240531, Note_on_c, 0, 74, 0
2, 240579, Note_on_c, 0, 76, 0
2, 240634, Note_on_c, 0, 74, 61
2, 240747, Note_on_c, 0, 74, 0
2, 240814, Note_on_c, 0, 73, 69
2, 240908, Note_on_c, 0, 73, 0
2, 240977, Note_on_c, 0, 71, 59
2, 241071, Note_on_c, 0, 67, 0
2, 241081, Note_on_c, 0, 71, 0
2, 241127, Note_on_c, 0, 65, 53
2, 241132, Note_on_c, 0, 74, 66
2, 241142, Note_on_c, 0, 69, 62
2, 241215, Note_on_c, 0, 69, 0
2, 241215, Note_on_c, 0, 74, 0
2, 241292, Note_on_c, 0, 72, 64
2, 241387, Note_on_c, 0, 72, 0
2, 241441, Control_c, 0, 64, 53
2, 241452, Note_on_c, 0, 71, 76
2, 241460, Control_c, 0, 64, 57
2, 241466, Note_on_c, 0, 67, 56
2, 241479, Control_c, 0, 64, 59
2, 241499, Control_c, 0, 64, 60
2, 241506, Note_on_c, 0, 71, 0
2, 241515, Note_on_c, 0, 67, 0
2, 241517, Control_c, 0, 64, 61
2, 241517, Note_on_c, 0, 65, 0
2, 241537, Control_c, 0, 64, 62
2, 241556, Control_c, 0, 64, 63
2, 241594, Control_c, 0, 64, 64
2, 241614, Control_c, 0, 64, 64
2, 241633, Control_c, 0, 64, 65
2, 241634, Note_on_c, 0, 65, 63
2, 241651, Control_c, 0, 64, 66
2, 241671, Control_c, 0, 64, 67
2, 241687, Note_on_c, 0, 65, 0
2, 241690, Control_c, 0, 64, 69
2, 241710, Control_c, 0, 64, 71
2, 241728, Control_c, 0, 64, 73
2, 241748, Control_c, 0, 64, 72
2, 241767, Control_c, 0, 64, 66
2, 241787, Control_c, 0, 64, 54
2, 241795, Note_on_c, 0, 73, 71
2, 241796, Note_on_c, 0, 64, 47
2, 241805, Control_c, 0, 64, 0
2, 241805, Note_on_c, 0, 69, 49
2, 241958, Note_on_c, 0, 73, 0
2, 241964, Note_on_c, 0, 67, 46
2, 241966, Note_on_c, 0, 69, 0
2, 242078, Note_on_c, 0, 64, 0
2, 242118, Note_on_c, 0, 74, 65
2, 242119, Note_on_c, 0, 67, 0
2, 242132, Note_on_c, 0, 62, 45
2, 242147, Note_on_c, 0, 65, 48
2, 242192, Note_on_c, 0, 74, 0
2, 242293, Note_on_c, 0, 65, 0
2, 242303, Note_on_c, 0, 64, 50
2, 242381, Note_on_c, 0, 64, 0
2, 242459, Control_c, 0, 64, 40
2, 242462, Note_on_c, 0, 69, 68
2, 242466, Note_on_c, 0, 67, 43
2, 242477, Control_c, 0, 64, 49
2, 242497, Control_c, 0, 64, 55
2, 242510, Note_on_c, 0, 67, 0
2, 242516, Control_c, 0, 64, 58
2, 242536, Control_c, 0, 64, 60
2, 242554, Control_c, 0, 64, 62
2, 242573, Control_c, 0, 64, 63
2, 242593, Control_c, 0, 64, 64
2, 242601, Note_on_c, 0, 69, 0
2, 242613, Note_on_c, 0, 65, 54
2, 242656, Note_on_c, 0, 65, 0
2, 242727, Control_c, 0, 64, 63
2, 242747, Control_c, 0, 64, 58
2, 242765, Control_c, 0, 64, 29
2, 242785, Control_c, 0, 64, 0
2, 242797, Note_on_c, 0, 76, 62
2, 242806, Note_on_c, 0, 64, 53
2, 242862, Note_on_c, 0, 64, 0
2, 242954, Note_on_c, 0, 61, 43
2, 242966, Note_on_c, 0, 62, 0
2, 243039, Note_on_c, 0, 61, 0
2, 243125, Note_on_c, 0, 65, 54
2, 243130, Note_on_c, 0, 64, 49
2, 243218, Note_on_c, 0, 65, 0
2, 243232, Note_on_c, 0, 64, 0
2, 243297, Note_on_c, 0, 62, 49
2, 243462, Note_on_c, 0, 61, 47
2, 243467, Note_on_c, 0, 67, 59
2, 243519, Note_on_c, 0, 62, 0
2, 243601, Note_on_c, 0, 61, 0
2, 243628, Note_on_c, 0, 59, 51
2, 243810, Note_on_c, 0, 62, 46
2, 243944, Note_on_c, 0, 62, 0
2, 243977, Note_on_c, 0, 61, 39
2, 244070, Note_on_c, 0, 67, 0
2, 244119, Note_on_c, 0, 61, 0
2, 244135, Note_on_c, 0, 62, 40
2, 244147, Note_on_c, 0, 59, 0
2, 244170, Note_on_c, 0, 65, 45
2, 244261, Note_on_c, 0, 65, 0
2, 244317, Note_on_c, 0, 73, 59
2, 244362, Note_on_c, 0, 76, 0
2, 244482, Note_on_c, 0, 74, 66
2, 244566, Note_on_c, 0, 73, 0
2, 244632, Note_on_c, 0, 77, 69
2, 244665, Note_on_c, 0, 74, 0
2, 244811, Note_on_c, 0, 64, 41
2, 244815, Note_on_c, 0, 79, 77
2, 244832, Note_on_c, 0, 62, 0
2, 244834, Note_on_c, 0, 77, 0
2, 245023, Note_on_c, 0, 59, 28
2, 245075, Note_on_c, 0, 64, 0
2, 245158, Note_on_c, 0, 69, 60
2, 245188, Note_on_c, 0, 61, 47
2, 245286, Note_on_c, 0, 59, 0
2, 245333, Note_on_c, 0, 64, 63
2, 245473, Note_on_c, 0, 69, 0
2, 245502, Note_on_c, 0, 65, 61
2, 245553, Note_on_c, 0, 61, 0
2, 245561, Note_on_c, 0, 64, 0
2, 245659, Note_on_c, 0, 76, 75
2, 245667, Note_on_c, 0, 73, 52
2, 245686, Note_on_c, 0, 79, 0
2, 245794, Note_on_c, 0, 73, 0
2, 245827, Note_on_c, 0, 77, 82
2, 245831, Note_on_c, 0, 74, 52
2, 245865, Note_on_c, 0, 76, 0
2, 245984, Note_on_c, 0, 81, 88
2, 245994, Note_on_c, 0, 77, 0
2, 246076, Note_on_c, 0, 74, 0
2, 246162, Note_on_c, 0, 82, 86
2, 246183, Note_on_c, 0, 67, 46
2, 246194, Note_on_c, 0, 81, 0
2, 246298, Note_on_c, 0, 65, 0
2, 246351, Note_on_c, 0, 62, 62
2, 246482, Note_on_c, 0, 67, 0
2, 246487, Note_on_c, 0, 72, 74
2, 246507, Note_on_c, 0, 62, 0
2, 246515, Note_on_c, 0, 64, 59
2, 246680, Note_on_c, 0, 67, 72
2, 246761, Note_on_c, 0, 72, 0
2, 246768, Note_on_c, 0, 64, 0
2, 246816, Note_on_c, 0, 67, 0
2, 246838, Note_on_c, 0, 69, 79
2, 246985, Note_on_c, 0, 79, 87
2, 246998, Note_on_c, 0, 82, 0
2, 247109, Note_on_c, 0, 79, 0
2, 247143, Control_c, 0, 64, 29
2, 247150, Note_on_c, 0, 81, 91
2, 247158, Note_on_c, 0, 77, 70
2, 247162, Control_c, 0, 64, 58
2, 247182, Control_c, 0, 64, 62
2, 247196, Note_on_c, 0, 77, 0
2, 247201, Control_c, 0, 64, 64
2, 247220, Control_c, 0, 64, 66
2, 247239, Control_c, 0, 64, 68
2, 247252, Note_on_c, 0, 81, 0
2, 247259, Control_c, 0, 64, 73
2, 247277, Control_c, 0, 64, 80
2, 247297, Control_c, 0, 64, 88
2, 247312, Note_on_c, 0, 84, 88
2, 247316, Control_c, 0, 64, 93
2, 247336, Control_c, 0, 64, 94
2, 247351, Note_on_c, 0, 84, 0
2, 247373, Control_c, 0, 64, 94
2, 247393, Control_c, 0, 64, 93
2, 247411, Control_c, 0, 64, 88
2, 247431, Control_c, 0, 64, 74
2, 247450, Control_c, 0, 64, 58
2, 247470, Control_c, 0, 64, 0
2, 247483, Note_on_c, 0, 74, 83
2, 247498, Note_on_c, 0, 70, 67
2, 247647, Note_on_c, 0, 65, 64
2, 247690, Note_on_c, 0, 69, 0
2, 247784, Note_on_c, 0, 67, 62
2, 247806, Note_on_c, 0, 76, 83
2, 247817, Note_on_c, 0, 65, 0
2, 247824, Note_on_c, 0, 74, 0
2, 247828, Note_on_c, 0, 70, 0
2, 247906, Note_on_c, 0, 67, 0
2, 247943, Note_on_c, 0, 70, 65
2, 247950, Note_on_c, 0, 79, 86
2, 248035, Note_on_c, 0, 70, 0
2, 248045, Note_on_c, 0, 76, 0
2, 248109, Note_on_c, 0, 64, 81
2, 248116, Note_on_c, 0, 72, 83
2, 248122, Note_on_c, 0, 79, 0
2, 248161, Note_on_c, 0, 64, 0
2, 248265, Note_on_c, 0, 67, 67
2, 248392, Note_on_c, 0, 72, 0
2, 248442, Note_on_c, 0, 65, 79
2, 248446, Note_on_c, 0, 69, 75
2, 248505, Note_on_c, 0, 65, 0
2, 248505, Note_on_c, 0, 67, 0
2, 248590, Note_on_c, 0, 72, 78
2, 248609, Note_on_c, 0, 69, 0
2, 248769, Note_on_c, 0, 58, 81
2, 248787, Note_on_c, 0, 62, 63
2, 248930, Note_on_c, 0, 65, 54
2, 248971, Note_on_c, 0, 72, 0
2, 249058, Note_on_c, 0, 62, 0
2, 249059, Note_on_c, 0, 67, 63
2, 249227, Note_on_c, 0, 67, 0
2, 249227, Note_on_c, 0, 70, 75
2, 249358, Note_on_c, 0, 70, 0
2, 249409, Note_on_c, 0, 60, 89
2, 249419, Note_on_c, 0, 64, 64
2, 249425, Note_on_c, 0, 58, 0
2, 249485, Control_c, 0, 64, 34
2, 249524, Control_c, 0, 64, 45
2, 249543, Control_c, 0, 64, 56
2, 249562, Control_c, 0, 64, 61
2, 249564, Note_on_c, 0, 70, 69
2, 249582, Control_c, 0, 64, 63
2, 249601, Control_c, 0, 64, 64
2, 249620, Control_c, 0, 64, 65
2, 249639, Control_c, 0, 64, 68
2, 249659, Control_c, 0, 64, 72
2, 249677, Control_c, 0, 64, 79
2, 249690, Note_on_c, 0, 70, 0
2, 249697, Control_c, 0, 64, 94
2, 249716, Control_c, 0, 64, 109
2, 249728, Note_on_c, 0, 48, 86
2, 249736, Control_c, 0, 64, 92
2, 249750, Note_on_c, 0, 69, 74
2, 249754, Control_c, 0, 64, 65
2, 249773, Control_c, 0, 64, 0
2, 249788, Note_on_c, 0, 48, 0
2, 249803, Note_on_c, 0, 65, 0
2, 249878, Note_on_c, 0, 69, 0
2, 249886, Note_on_c, 0, 50, 87
2, 249905, Note_on_c, 0, 67, 69
2, 249931, Note_on_c, 0, 64, 0
2, 249968, Note_on_c, 0, 50, 0
2, 250001, Note_on_c, 0, 67, 0
2, 250070, Note_on_c, 0, 48, 86
2, 250090, Note_on_c, 0, 60, 0
2, 250094, Note_on_c, 0, 67, 62
2, 250144, Note_on_c, 0, 48, 0
2, 250418, Note_on_c, 0, 46, 85
2, 250433, Note_on_c, 0, 64, 51
2, 250482, Note_on_c, 0, 46, 0
2, 250489, Note_on_c, 0, 64, 0
2, 250558, Note_on_c, 0, 65, 57
2, 250688, Note_on_c, 0, 65, 0
2, 250749, Note_on_c, 0, 45, 83
2, 250754, Note_on_c, 0, 65, 71
2, 250759, Note_on_c, 0, 67, 0
2, 250809, Control_c, 0, 64, 57
2, 250829, Control_c, 0, 64, 60
2, 250847, Control_c, 0, 64, 60
2, 250867, Control_c, 0, 64, 61
2, 250886, Control_c, 0, 64, 62
2, 250906, Control_c, 0, 64, 63
2, 250924, Control_c, 0, 64, 64
2, 250944, Control_c, 0, 64, 65
2, 250952, Note_on_c, 0, 45, 0
2, 250963, Control_c, 0, 64, 66
2, 250982, Control_c, 0, 64, 67
2, 251001, Control_c, 0, 64, 68
2, 251021, Control_c, 0, 64, 69
2, 251040, Control_c, 0, 64, 69
2, 251059, Control_c, 0, 64, 68
2, 251072, Note_on_c, 0, 48, 72
2, 251078, Control_c, 0, 64, 64
2, 251096, Note_on_c, 0, 72, 83
2, 251098, Control_c, 0, 64, 50
2, 251102, Note_on_c, 0, 45, 41
2, 251111, Note_on_c, 0, 74, 73
2, 251117, Control_c, 0, 64, 0
2, 251117, Note_on_c, 0, 47, 40
2, 251118, Note_on_c, 0, 48, 0
2, 251132, Note_on_c, 0, 74, 0
2, 251138, Note_on_c, 0, 45, 0
2, 251157, Note_on_c, 0, 47, 0
2, 251161, Note_on_c, 0, 72, 0
2, 251228, Note_on_c, 0, 46, 68
2, 251237, Note_on_c, 0, 74, 76
2, 251256, Note_on_c, 0, 48, 21
2, 251291, Note_on_c, 0, 46, 0
2, 251306, Note_on_c, 0, 48, 0
2, 251364, Note_on_c, 0, 74, 0
2, 251417, Note_on_c, 0, 72, 91
2, 251419, Note_on_c, 0, 50, 70
2, 251436, Note_on_c, 0, 45, 58
2, 251557, Note_on_c, 0, 50, 0
2, 251586, Note_on_c, 0, 65, 0
2, 251662, Note_on_c, 0, 45, 0
2, 251747, Note_on_c, 0, 43, 66
2, 251754, Note_on_c, 0, 52, 64
2, 251759, Note_on_c, 0, 70, 89
2, 251807, Control_c, 0, 64, 26
2, 251827, Control_c, 0, 64, 39
2, 251846, Control_c, 0, 64, 49
2, 251866, Control_c, 0, 64, 57
2, 251884, Control_c, 0, 64, 60
2, 251903, Note_on_c, 0, 52, 0
2, 251904, Control_c, 0, 64, 62
2, 251923, Control_c, 0, 64, 63
2, 251942, Control_c, 0, 64, 63
2, 251961, Control_c, 0, 64, 64
2, 251973, Note_on_c, 0, 70, 0
2, 252000, Control_c, 0, 64, 64
2, 252019, Control_c, 0, 64, 65
2, 252058, Control_c, 0, 64, 64
2, 252062, Note_on_c, 0, 43, 0
2, 252077, Control_c, 0, 64, 54
2, 252096, Control_c, 0, 64, 0
2, 252111, Note_on_c, 0, 53, 66
2, 252112, Note_on_c, 0, 41, 66
2, 252116, Note_on_c, 0, 69, 85
2, 252192, Note_on_c, 0, 41, 0
2, 252261, Note_on_c, 0, 43, 75
2, 252271, Note_on_c, 0, 53, 0
2, 252343, Note_on_c, 0, 43, 0
2, 252354, Note_on_c, 0, 69, 0
2, 252423, Note_on_c, 0, 45, 71
2, 252430, Note_on_c, 0, 52, 65
2, 252439, Note_on_c, 0, 69, 88
2, 252472, Note_on_c, 0, 45, 0
2, 252475, Note_on_c, 0, 52, 0
2, 252515, Note_on_c, 0, 69, 0
2, 252586, Note_on_c, 0, 43, 76
2, 252595, Note_on_c, 0, 70, 84
2, 252648, Note_on_c, 0, 43, 0
2, 252715, Note_on_c, 0, 70, 0
2, 252773, Note_on_c, 0, 69, 87
2, 252778, Note_on_c, 0, 53, 74
2, 252780, Note_on_c, 0, 41, 68
2, 252838, Note_on_c, 0, 53, 0
2, 252841, Note_on_c, 0, 41, 0
2, 252849, Note_on_c, 0, 69, 0
2, 253113, Note_on_c, 0, 39, 84
2, 253118, Note_on_c, 0, 67, 62
2, 253132, Control_c, 0, 64, 40
2, 253152, Control_c, 0, 64, 67
2, 253169, Note_on_c, 0, 39, 0
2, 253171, Control_c, 0, 64, 70
2, 253190, Control_c, 0, 64, 73
2, 253208, Note_on_c, 0, 67, 0
2, 253209, Control_c, 0, 64, 74
2, 253229, Control_c, 0, 64, 74
2, 253247, Control_c, 0, 64, 76
2, 253267, Control_c, 0, 64, 81
2, 253286, Control_c, 0, 64, 85
2, 253306, Control_c, 0, 64, 89
2, 253324, Control_c, 0, 64, 92
2, 253344, Control_c, 0, 64, 93
2, 253363, Control_c, 0, 64, 94
2, 253382, Control_c, 0, 64, 96
2, 253401, Control_c, 0, 64, 98
2, 253421, Control_c, 0, 64, 97
2, 253440, Control_c, 0, 64, 79
2, 253443, Note_on_c, 0, 50, 76
2, 253447, Note_on_c, 0, 57, 74
2, 253451, Note_on_c, 0, 66, 82
2, 253459, Control_c, 0, 64, 59
2, 253478, Control_c, 0, 64, 0
2, 253488, Note_on_c, 0, 57, 0
2, 253533, Note_on_c, 0, 66, 0
2, 253599, Note_on_c, 0, 55, 65
2, 253604, Note_on_c, 0, 50, 0
2, 253618, Note_on_c, 0, 67, 76
2, 253657, Note_on_c, 0, 55, 0
2, 253694, Note_on_c, 0, 67, 0
2, 253768, Note_on_c, 0, 54, 68
2, 253780, Note_on_c, 0, 69, 81
2, 253813, Note_on_c, 0, 54, 0
2, 253842, Note_on_c, 0, 69, 0
2, 253929, Note_on_c, 0, 67, 73
2, 253935, Note_on_c, 0, 55, 58
2, 253988, Note_on_c, 0, 55, 0
2, 254010, Note_on_c, 0, 67, 0
2, 254100, Note_on_c, 0, 66, 73
2, 254107, Note_on_c, 0, 57, 62
2, 254159, Note_on_c, 0, 57, 0
2, 254172, Note_on_c, 0, 66, 0
2, 254249, Note_on_c, 0, 58, 58
2, 254315, Note_on_c, 0, 58, 0
2, 254422, Note_on_c, 0, 60, 47
2, 254422, Note_on_c, 0, 63, 81
2, 254432, Note_on_c, 0, 48, 54
2, 254440, Control_c, 0, 64, 60
2, 254458, Note_on_c, 0, 60, 0
2, 254460, Control_c, 0, 64, 73
2, 254477, Note_on_c, 0, 48, 0
2, 254478, Control_c, 0, 64, 80
2, 254498, Control_c, 0, 64, 85
2, 254517, Control_c, 0, 64, 87
2, 254530, Note_on_c, 0, 63, 0
2, 254537, Control_c, 0, 64, 88
2, 254555, Control_c, 0, 64, 92
2, 254574, Control_c, 0, 64, 98
2, 254594, Control_c, 0, 64, 104
2, 254612, Control_c, 0, 64, 109
2, 254632, Control_c, 0, 64, 112
2, 254645, Note_on_c, 0, 72, 0
2, 254651, Control_c, 0, 64, 115
2, 254671, Control_c, 0, 64, 119
2, 254688, Control_c, 0, 64, 122
2, 254730, Control_c, 0, 64, 105
2, 254741, Note_on_c, 0, 74, 90
2, 254750, Control_c, 0, 64, 76
2, 254754, Note_on_c, 0, 46, 59
2, 254756, Note_on_c, 0, 54, 54
2, 254768, Control_c, 0, 64, 46
2, 254788, Control_c, 0, 64, 0
2, 254815, Note_on_c, 0, 54, 0
2, 254816, Note_on_c, 0, 74, 0
2, 254849, Note_on_c, 0, 46, 0
2, 254900, Note_on_c, 0, 45, 42
2, 254998, Note_on_c, 0, 45, 0
2, 255076, Note_on_c, 0, 57, 50
2, 255076, Note_on_c, 0, 78, 85
2, 255077, Note_on_c, 0, 48, 44
2, 255089, Note_on_c, 0, 69, 59
2, 255132, Note_on_c, 0, 69, 0
2, 255152, Note_on_c, 0, 48, 0
2, 255170, Note_on_c, 0, 78, 0
2, 255192, Note_on_c, 0, 57, 0
2, 255231, Note_on_c, 0, 46, 62
2, 255325, Note_on_c, 0, 46, 0
2, 255406, Note_on_c, 0, 45, 67
2, 255412, Note_on_c, 0, 55, 65
2, 255416, Note_on_c, 0, 75, 74
2, 255458, Note_on_c, 0, 55, 0
2, 255540, Note_on_c, 0, 45, 0
2, 255560, Note_on_c, 0, 43, 68
2, 255729, Note_on_c, 0, 72, 77
2, 255735, Note_on_c, 0, 54, 58
2, 255736, Note_on_c, 0, 43, 0
2, 255736, Note_on_c, 0, 46, 54
2, 255791, Note_on_c, 0, 46, 0
2, 255795, Note_on_c, 0, 54, 0
2, 255822, Note_on_c, 0, 72, 0
2, 255883, Note_on_c, 0, 45, 69
2, 255997, Note_on_c, 0, 45, 0
2, 256070, Note_on_c, 0, 43, 69
2, 256075, Note_on_c, 0, 55, 71
2, 256080, Note_on_c, 0, 70, 76
2, 256193, Note_on_c, 0, 70, 0
2, 256236, Note_on_c, 0, 69, 82
2, 256246, Note_on_c, 0, 55, 0
2, 256259, Note_on_c, 0, 75, 0
2, 256333, Note_on_c, 0, 69, 0
2, 256404, Note_on_c, 0, 53, 65
2, 256408, Note_on_c, 0, 72, 63
2, 256411, Note_on_c, 0, 74, 73
2, 256471, Note_on_c, 0, 72, 0
2, 256509, Note_on_c, 0, 74, 0
2, 256518, Note_on_c, 0, 53, 0
2, 256561, Note_on_c, 0, 70, 80
2, 256645, Note_on_c, 0, 70, 0
2, 256731, Note_on_c, 0, 51, 60
2, 256732, Note_on_c, 0, 69, 68
2, 256734, Note_on_c, 0, 72, 78
2, 256804, Note_on_c, 0, 69, 0
2, 256894, Note_on_c, 0, 70, 76
2, 256899, Note_on_c, 0, 67, 61
2, 256915, Note_on_c, 0, 51, 0
2, 256933, Note_on_c, 0, 72, 0
2, 256942, Note_on_c, 0, 67, 0
2, 256946, Note_on_c, 0, 70, 0
2, 257068, Note_on_c, 0, 70, 72
2, 257069, Note_on_c, 0, 42, 53
2, 257073, Note_on_c, 0, 74, 68
2, 257076, Note_on_c, 0, 43, 0
2, 257076, Note_on_c, 0, 50, 53
2, 257116, Note_on_c, 0, 70, 0
2, 257124, Note_on_c, 0, 42, 0
2, 257178, Note_on_c, 0, 74, 0
2, 257237, Note_on_c, 0, 72, 61
2, 257240, Note_on_c, 0, 69, 51
2, 257295, Note_on_c, 0, 69, 0
2, 257357, Note_on_c, 0, 72, 0
2, 257404, Note_on_c, 0, 43, 67
2, 257412, Note_on_c, 0, 50, 0
2, 257424, Note_on_c, 0, 70, 61
2, 257453, Control_c, 0, 64, 56
2, 257462, Note_on_c, 0, 67, 5
2, 257473, Control_c, 0, 64, 62
2, 257491, Control_c, 0, 64, 62
2, 257511, Control_c, 0, 64, 63
2, 257546, Note_on_c, 0, 70, 0
2, 257550, Control_c, 0, 64, 63
2, 257566, Control_c, 0, 64, 64
2, 257573, Note_on_c, 0, 72, 50
2, 257605, Control_c, 0, 64, 64
2, 257643, Control_c, 0, 64, 65
2, 257663, Control_c, 0, 64, 65
2, 257702, Control_c, 0, 64, 64
2, 257716, Note_on_c, 0, 72, 0
2, 257720, Control_c, 0, 64, 52
2, 257731, Note_on_c, 0, 55, 78
2, 257740, Control_c, 0, 64, 0
2, 257754, Note_on_c, 0, 67, 0
2, 257758, Note_on_c, 0, 74, 54
2, 257773, Note_on_c, 0, 55, 0
2, 257874, Note_on_c, 0, 74, 0
2, 257875, Note_on_c, 0, 57, 79
2, 257882, Note_on_c, 0, 72, 62
2, 257919, Note_on_c, 0, 57, 0
2, 257927, Note_on_c, 0, 74, 13
2, 258045, Note_on_c, 0, 72, 0
2, 258062, Note_on_c, 0, 55, 82
2, 258079, Note_on_c, 0, 70, 55
2, 258103, Note_on_c, 0, 55, 0
2, 258219, Note_on_c, 0, 70, 0
2, 258226, Note_on_c, 0, 69, 52
2, 258397, Note_on_c, 0, 69, 0
2, 258406, Note_on_c, 0, 53, 82
2, 258428, Note_on_c, 0, 67, 48
2, 258484, Note_on_c, 0, 53, 0
2, 258512, Note_on_c, 0, 67, 0
2, 258591, Note_on_c, 0, 65, 37
2, 258726, Note_on_c, 0, 65, 0
2, 258746, Note_on_c, 0, 52, 77
2, 258796, Note_on_c, 0, 67, 39
2, 258815, Control_c, 0, 64, 53
2, 258835, Control_c, 0, 64, 60
2, 258854, Control_c, 0, 64, 61
2, 258873, Control_c, 0, 64, 62
2, 258892, Control_c, 0, 64, 63
2, 258912, Control_c, 0, 64, 65
2, 258931, Control_c, 0, 64, 68
2, 258933, Note_on_c, 0, 67, 0
2, 258939, Note_on_c, 0, 69, 52
2, 258950, Control_c, 0, 64, 73
2, 258967, Note_on_c, 0, 52, 0
2, 258969, Control_c, 0, 64, 81
2, 258989, Control_c, 0, 64, 90
2, 259007, Control_c, 0, 64, 100
2, 259024, Note_on_c, 0, 69, 0
2, 259027, Control_c, 0, 64, 103
2, 259046, Control_c, 0, 64, 96
2, 259066, Control_c, 0, 64, 75
2, 259084, Control_c, 0, 64, 52
2, 259089, Note_on_c, 0, 52, 72
2, 259104, Control_c, 0, 64, 0
2, 259111, Note_on_c, 0, 70, 70
2, 259140, Note_on_c, 0, 52, 0
2, 259209, Note_on_c, 0, 74, 0
2, 259223, Note_on_c, 0, 70, 0
2, 259243, Note_on_c, 0, 53, 78
2, 259268, Note_on_c, 0, 69, 74
2, 259286, Note_on_c, 0, 53, 0
2, 259385, Note_on_c, 0, 69, 0
2, 259435, Note_on_c, 0, 67, 76
2, 259439, Note_on_c, 0, 52, 80
2, 259477, Note_on_c, 0, 52, 0
2, 259516, Note_on_c, 0, 67, 0
2, 259595, Note_on_c, 0, 65, 70
2, 259674, Note_on_c, 0, 65, 0
2, 259757, Note_on_c, 0, 50, 68
2, 259768, Note_on_c, 0, 64, 70
2, 259801, Note_on_c, 0, 50, 0
2, 259826, Note_on_c, 0, 64, 0
2, 259833, Control_c, 0, 64, 52
2, 259852, Control_c, 0, 64, 57
2, 259891, Control_c, 0, 64, 58
2, 259910, Control_c, 0, 64, 60
2, 259916, Note_on_c, 0, 62, 72
2, 259929, Control_c, 0, 64, 63
2, 259949, Control_c, 0, 64, 65
2, 259967, Control_c, 0, 64, 70
2, 259987, Control_c, 0, 64, 87
2, 259996, Note_on_c, 0, 62, 0
2, 260006, Control_c, 0, 64, 127
2, 260083, Control_c, 0, 64, 87
2, 260084, Note_on_c, 0, 76, 81
2, 260087, Note_on_c, 0, 49, 67
2, 260102, Control_c, 0, 64, 31
2, 260121, Control_c, 0, 64, 0
2, 260162, Note_on_c, 0, 49, 0
2, 260247, Note_on_c, 0, 50, 64
2, 260315, Note_on_c, 0, 50, 0
2, 260411, Note_on_c, 0, 52, 59
2, 260413, Note_on_c, 0, 69, 91
2, 260464, Note_on_c, 0, 52, 0
2, 260465, Note_on_c, 0, 69, 0
2, 260567, Note_on_c, 0, 67, 80
2, 260591, Note_on_c, 0, 50, 51
2, 260639, Note_on_c, 0, 67, 0
2, 260656, Note_on_c, 0, 50, 0
2, 260754, Note_on_c, 0, 69, 88
2, 260769, Note_on_c, 0, 49, 63
2, 260812, Note_on_c, 0, 69, 0
2, 260827, Note_on_c, 0, 49, 0
2, 261096, Note_on_c, 0, 47, 50
2, 261101, Note_on_c, 0, 71, 89
2, 261161, Note_on_c, 0, 71, 0
2, 261405, Note_on_c, 0, 47, 0
2, 261411, Note_on_c, 0, 43, 0
2, 261415, Note_on_c, 0, 57, 69
2, 261422, Note_on_c, 0, 73, 89
2, 261484, Control_c, 0, 64, 41
2, 261504, Control_c, 0, 64, 74
2, 261510, Note_on_c, 0, 57, 0
2, 261523, Control_c, 0, 64, 92
2, 261542, Control_c, 0, 64, 127
2, 261590, Note_on_c, 0, 76, 0
2, 261689, Note_on_c, 0, 73, 0
2, 261767, Note_on_c, 0, 61, 65
2, 261768, Note_on_c, 0, 76, 89
2, 261771, Note_on_c, 0, 52, 53
2, 261772, Control_c, 0, 64, 98
2, 261775, Note_on_c, 0, 73, 79
2, 261792, Control_c, 0, 64, 64
2, 261811, Control_c, 0, 64, 0
2, 261833, Note_on_c, 0, 61, 0
2, 261833, Note_on_c, 0, 73, 0
2, 261844, Note_on_c, 0, 52, 0
2, 261844, Note_on_c, 0, 76, 0
2, 261917, Note_on_c, 0, 53, 63
2, 261929, Note_on_c, 0, 74, 85
2, 261940, Note_on_c, 0, 71, 69
2, 261973, Note_on_c, 0, 71, 0
2, 262013, Note_on_c, 0, 74, 0
2, 262082, Note_on_c, 0, 53, 0
2, 262096, Note_on_c, 0, 55, 70
2, 262102, Note_on_c, 0, 76, 82
2, 262105, Note_on_c, 0, 73, 72
2, 262152, Note_on_c, 0, 73, 0
2, 262163, Note_on_c, 0, 55, 0
2, 262183, Note_on_c, 0, 76, 0
2, 262253, Note_on_c, 0, 53, 60
2, 262395, Note_on_c, 0, 53, 0
2, 262433, Note_on_c, 0, 77, 89
2, 262438, Note_on_c, 0, 52, 65
2, 262438, Note_on_c, 0, 69, 76
2, 262442, Note_on_c, 0, 74, 63
2, 262470, Note_on_c, 0, 69, 0
2, 262499, Note_on_c, 0, 74, 0
2, 262534, Note_on_c, 0, 77, 0
2, 262557, Note_on_c, 0, 52, 0
2, 262584, Note_on_c, 0, 50, 63
2, 262727, Note_on_c, 0, 50, 0
2, 262762, Note_on_c, 0, 49, 62
2, 262777, Note_on_c, 0, 79, 94
2, 262786, Note_on_c, 0, 70, 80
2, 262787, Note_on_c, 0, 76, 65
2, 262831, Control_c, 0, 64, 63
2, 262842, Note_on_c, 0, 70, 0
2, 262849, Control_c, 0, 64, 70
2, 262859, Note_on_c, 0, 49, 0
2, 262869, Control_c, 0, 64, 73
2, 262888, Control_c, 0, 64, 74
2, 262924, Note_on_c, 0, 76, 0
2, 262926, Control_c, 0, 64, 75
2, 262934, Note_on_c, 0, 79, 0
2, 262936, Note_on_c, 0, 74, 81
2, 262946, Control_c, 0, 64, 78
2, 262947, Note_on_c, 0, 76, 35
2, 262965, Control_c, 0, 64, 81
2, 262984, Control_c, 0, 64, 87
2, 262998, Note_on_c, 0, 76, 0
2, 263003, Control_c, 0, 64, 93
2, 263023, Control_c, 0, 64, 100
2, 263042, Control_c, 0, 64, 103
2, 263048, Note_on_c, 0, 74, 0
2, 263080, Control_c, 0, 64, 99
2, 263097, Note_on_c, 0, 79, 86
2, 263100, Control_c, 0, 64, 81
2, 263107, Note_on_c, 0, 73, 78
2, 263118, Control_c, 0, 64, 63
2, 263137, Control_c, 0, 64, 0
2, 263152, Note_on_c, 0, 73, 0
2, 263187, Note_on_c, 0, 79, 0
2, 263253, Note_on_c, 0, 69, 84
2, 263256, Note_on_c, 0, 77, 83
2, 263262, Note_on_c, 0, 74, 65
2, 263301, Note_on_c, 0, 74, 0
2, 263332, Note_on_c, 0, 77, 0
2, 263352, Note_on_c, 0, 69, 0
2, 263416, Note_on_c, 0, 67, 68
2, 263432, Note_on_c, 0, 79, 88
2, 263433, Note_on_c, 0, 76, 64
2, 263475, Note_on_c, 0, 76, 0
2, 263529, Note_on_c, 0, 79, 0
2, 263573, Note_on_c, 0, 67, 0
2, 263582, Note_on_c, 0, 65, 77
2, 263676, Note_on_c, 0, 65, 0
2, 263751, Note_on_c, 0, 64, 70
2, 263752, Note_on_c, 0, 77, 74
2, 263756, Note_on_c, 0, 81, 88
2, 263794, Note_on_c, 0, 77, 0
2, 263822, Note_on_c, 0, 64, 0
2, 263846, Note_on_c, 0, 81, 0
2, 263903, Control_c, 0, 64, 36
2, 263910, Note_on_c, 0, 62, 73
2, 263922, Control_c, 0, 64, 52
2, 263942, Control_c, 0, 64, 56
2, 263960, Control_c, 0, 64, 58
2, 263973, Note_on_c, 0, 62, 0
2, 263980, Control_c, 0, 64, 60
2, 263999, Control_c, 0, 64, 61
2, 264017, Control_c, 0, 64, 62
2, 264037, Control_c, 0, 64, 63
2, 264056, Control_c, 0, 64, 64
2, 264094, Control_c, 0, 64, 61
2, 264096, Note_on_c, 0, 82, 92
2, 264097, Note_on_c, 0, 61, 56
2, 264099, Note_on_c, 0, 67, 65
2, 264114, Control_c, 0, 64, 42
2, 264133, Control_c, 0, 64, 0
2, 264247, Note_on_c, 0, 67, 0
2, 264261, Note_on_c, 0, 82, 0
2, 264272, Note_on_c, 0, 81, 89
2, 264372, Note_on_c, 0, 81, 0
2, 264444, Note_on_c, 0, 79, 91
2, 264452, Note_on_c, 0, 64, 34
2, 264461, Note_on_c, 0, 61, 0
2, 264512, Note_on_c, 0, 79, 0
2, 264593, Note_on_c, 0, 81, 87
2, 264671, Note_on_c, 0, 81, 0
2, 264762, Note_on_c, 0, 61, 64
2, 264763, Note_on_c, 0, 82, 83
2, 264782, Note_on_c, 0, 64, 0
2, 264786, Control_c, 0, 64, 61
2, 264805, Control_c, 0, 64, 63
2, 264863, Control_c, 0, 64, 64
2, 264888, Note_on_c, 0, 82, 0
2, 264902, Control_c, 0, 64, 64
2, 264924, Note_on_c, 0, 79, 80
2, 264940, Control_c, 0, 64, 65
2, 264959, Control_c, 0, 64, 65
2, 264976, Note_on_c, 0, 79, 0
2, 264977, Control_c, 0, 64, 66
2, 264997, Control_c, 0, 64, 67
2, 265016, Control_c, 0, 64, 70
2, 265036, Control_c, 0, 64, 75
2, 265037, Note_on_c, 0, 61, 0
2, 265054, Control_c, 0, 64, 79
2, 265074, Control_c, 0, 64, 77
2, 265082, Note_on_c, 0, 57, 61
2, 265091, Note_on_c, 0, 81, 91
2, 265093, Control_c, 0, 64, 65
2, 265096, Note_on_c, 0, 69, 78
2, 265112, Control_c, 0, 64, 0
2, 265129, Note_on_c, 0, 57, 0
2, 265131, Note_on_c, 0, 69, 0
2, 265165, Note_on_c, 0, 81, 0
2, 265254, Note_on_c, 0, 76, 81
2, 265326, Note_on_c, 0, 76, 0
2, 265414, Note_on_c, 0, 77, 81
2, 265430, Note_on_c, 0, 69, 66
2, 265436, Note_on_c, 0, 62, 74
2, 265438, Note_on_c, 0, 50, 61
2, 265550, Note_on_c, 0, 50, 0
2, 265598, Note_on_c, 0, 76, 80
2, 265613, Note_on_c, 0, 77, 0
2, 265616, Note_on_c, 0, 62, 0
2, 265657, Note_on_c, 0, 69, 0
2, 265706, Note_on_c, 0, 76, 0
2, 265757, Note_on_c, 0, 65, 68
2, 265763, Note_on_c, 0, 74, 78
2, 265795, Note_on_c, 0, 65, 0
2, 265840, Note_on_c, 0, 74, 0
2, 265919, Note_on_c, 0, 76, 87
2, 266015, Note_on_c, 0, 76, 0
2, 266087, Note_on_c, 0, 77, 85
2, 266096, Note_on_c, 0, 69, 71
2, 266097, Note_on_c, 0, 62, 68
2, 266257, Note_on_c, 0, 74, 86
2, 266277, Note_on_c, 0, 69, 0
2, 266284, Note_on_c, 0, 77, 0
2, 266329, Note_on_c, 0, 74, 0
2, 266374, Note_on_c, 0, 62, 0
2, 266425, Note_on_c, 0, 57, 60
2, 266439, Note_on_c, 0, 76, 84
2, 266454, Note_on_c, 0, 67, 55
2, 266482, Note_on_c, 0, 57, 0
2, 266494, Note_on_c, 0, 67, 0
2, 266551, Note_on_c, 0, 76, 0
2, 266605, Note_on_c, 0, 73, 89
2, 266672, Note_on_c, 0, 73, 0
2, 266784, Note_on_c, 0, 74, 84
2, 266792, Note_on_c, 0, 58, 64
2, 266792, Note_on_c, 0, 65, 63
2, 266803, Note_on_c, 0, 50, 53
2, 266964, Note_on_c, 0, 72, 86
2, 266980, Note_on_c, 0, 65, 0
2, 266987, Note_on_c, 0, 74, 0
2, 267023, Note_on_c, 0, 58, 0
2, 267034, Note_on_c, 0, 72, 0
2, 267133, Note_on_c, 0, 70, 91
2, 267145, Note_on_c, 0, 62, 70
2, 267160, Note_on_c, 0, 53, 51
2, 267164, Note_on_c, 0, 50, 0
2, 267167, Note_on_c, 0, 52, 45
2, 267182, Note_on_c, 0, 62, 0
2, 267209, Note_on_c, 0, 52, 0
2, 267215, Note_on_c, 0, 53, 0
2, 267238, Note_on_c, 0, 70, 0
2, 267311, Note_on_c, 0, 72, 89
2, 267382, Note_on_c, 0, 72, 0
2, 267499, Note_on_c, 0, 74, 82
2, 267500, Note_on_c, 0, 58, 67
2, 267518, Note_on_c, 0, 65, 59
2, 267699, Note_on_c, 0, 70, 88
2, 267722, Note_on_c, 0, 65, 0
2, 267754, Note_on_c, 0, 74, 0
2, 267872, Note_on_c, 0, 70, 0
2, 267902, Note_on_c, 0, 72, 90
2, 267909, Note_on_c, 0, 62, 70
2, 267917, Note_on_c, 0, 65, 61
2, 267937, Note_on_c, 0, 58, 0
2, 267957, Note_on_c, 0, 65, 0
2, 267993, Control_c, 0, 64, 43
2, 268012, Control_c, 0, 64, 61
2, 268032, Control_c, 0, 64, 65
2, 268035, Note_on_c, 0, 62, 0
2, 268051, Control_c, 0, 64, 69
2, 268070, Control_c, 0, 64, 73
2, 268089, Control_c, 0, 64, 79
2, 268109, Control_c, 0, 64, 87
2, 268123, Note_on_c, 0, 69, 94
2, 268127, Control_c, 0, 64, 106
2, 268146, Control_c, 0, 64, 127
2, 268152, Note_on_c, 0, 72, 0
2, 268170, Note_on_c, 0, 69, 0
2, 268477, Note_on_c, 0, 64, 75
2, 268479, Note_on_c, 0, 50, 67
2, 268481, Note_on_c, 0, 80, 97
2, 268486, Note_on_c, 0, 59, 65
2, 268487, Note_on_c, 0, 76, 69
2, 268492, Note_on_c, 0, 71, 72
2, 268512, Control_c, 0, 64, 93
2, 268531, Control_c, 0, 64, 45
2, 268550, Control_c, 0, 64, 0
2, 269163, Control_c, 0, 64, 46
2, 269183, Control_c, 0, 64, 63
2, 269202, Control_c, 0, 64, 66
2, 269240, Control_c, 0, 64, 68
2, 269260, Control_c, 0, 64, 71
2, 269280, Control_c, 0, 64, 79
2, 269298, Control_c, 0, 64, 94
2, 269315, Control_c, 0, 64, 127
2, 269519, Note_on_c, 0, 50, 0
2, 270084, Note_on_c, 0, 64, 0
2, 270090, Note_on_c, 0, 59, 0
2, 270094, Note_on_c, 0, 71, 0
2, 270095, Note_on_c, 0, 80, 0
2, 270107, Note_on_c, 0, 76, 0
2, 270140, Control_c, 0, 64, 95
2, 270159, Control_c, 0, 64, 51
2, 270179, Control_c, 0, 64, 0
2, 271071, Note_on_c, 0, 51, 55
2, 271074, Note_on_c, 0, 60, 72
2, 271074, Note_on_c, 0, 81, 93
2, 271080, Note_on_c, 0, 57, 53
2, 271417, Note_on_c, 0, 69, 87
2, 271449, Note_on_c, 0, 69, 0
2, 271572, Note_on_c, 0, 68, 85
2, 271650, Note_on_c, 0, 68, 0
2, 271764, Note_on_c, 0, 69, 94
2, 271822, Note_on_c, 0, 69, 0
2, 272116, Note_on_c, 0, 71, 93
2, 272147, Note_on_c, 0, 60, 0
2, 272152, Note_on_c, 0, 57, 0
2, 272171, Note_on_c, 0, 51, 0
2, 272181, Note_on_c, 0, 71, 0
2, 272448, Note_on_c, 0, 72, 91
2, 272458, Note_on_c, 0, 60, 71
2, 272467, Note_on_c, 0, 52, 53
2, 272477, Note_on_c, 0, 57, 48
2, 272507, Control_c, 0, 64, 63
2, 272508, Note_on_c, 0, 81, 0
2, 272525, Control_c, 0, 64, 67
2, 272545, Control_c, 0, 64, 68
2, 272564, Control_c, 0, 64, 69
2, 272583, Control_c, 0, 64, 69
2, 272602, Control_c, 0, 64, 71
2, 272622, Control_c, 0, 64, 73
2, 272641, Control_c, 0, 64, 76
2, 272660, Control_c, 0, 64, 79
2, 272679, Control_c, 0, 64, 81
2, 272695, Note_on_c, 0, 72, 0
2, 272698, Control_c, 0, 64, 82
2, 272717, Control_c, 0, 64, 83
2, 272756, Control_c, 0, 64, 82
2, 272775, Control_c, 0, 64, 73
2, 272786, Note_on_c, 0, 76, 82
2, 272788, Note_on_c, 0, 72, 79
2, 272794, Control_c, 0, 64, 49
2, 272813, Control_c, 0, 64, 0
2, 272837, Note_on_c, 0, 72, 0
2, 272860, Note_on_c, 0, 76, 0
2, 272940, Note_on_c, 0, 71, 76
2, 272949, Note_on_c, 0, 74, 75
2, 272970, Note_on_c, 0, 71, 0
2, 273010, Note_on_c, 0, 74, 0
2, 273115, Note_on_c, 0, 72, 75
2, 273116, Note_on_c, 0, 76, 87
2, 273151, Note_on_c, 0, 72, 0
2, 273178, Note_on_c, 0, 76, 0
2, 273222, Note_on_c, 0, 57, 0
2, 273450, Note_on_c, 0, 74, 73
2, 273453, Note_on_c, 0, 78, 85
2, 273484, Note_on_c, 0, 52, 0
2, 273496, Note_on_c, 0, 74, 0
2, 273507, Note_on_c, 0, 60, 0
2, 273535, Note_on_c, 0, 78, 0
2, 273809, Note_on_c, 0, 76, 79
2, 273810, Note_on_c, 0, 80, 87
2, 273811, Note_on_c, 0, 62, 70
2, 273816, Note_on_c, 0, 52, 50
2, 273830, Note_on_c, 0, 59, 57
2, 273848, Control_c, 0, 64, 50
2, 273868, Control_c, 0, 64, 62
2, 273887, Control_c, 0, 64, 61
2, 273906, Control_c, 0, 64, 62
2, 273925, Control_c, 0, 64, 64
2, 273942, Note_on_c, 0, 76, 0
2, 273945, Control_c, 0, 64, 68
2, 273963, Control_c, 0, 64, 79
2, 273976, Note_on_c, 0, 74, 81
2, 273983, Control_c, 0, 64, 127
2, 274043, Note_on_c, 0, 80, 0
2, 274079, Control_c, 0, 64, 86
2, 274080, Note_on_c, 0, 74, 0
2, 274097, Control_c, 0, 64, 36
2, 274117, Control_c, 0, 64, 0
2, 274139, Note_on_c, 0, 72, 83
2, 274150, Note_on_c, 0, 80, 88
2, 274199, Note_on_c, 0, 72, 0
2, 274216, Note_on_c, 0, 80, 0
2, 274298, Note_on_c, 0, 74, 73
2, 274300, Note_on_c, 0, 78, 79
2, 274370, Note_on_c, 0, 74, 0
2, 274389, Note_on_c, 0, 78, 0
2, 274453, Note_on_c, 0, 59, 0
2, 274488, Note_on_c, 0, 80, 94
2, 274501, Note_on_c, 0, 76, 52
2, 274530, Note_on_c, 0, 76, 0
2, 274579, Note_on_c, 0, 80, 0
2, 274789, Note_on_c, 0, 52, 0
2, 274825, Note_on_c, 0, 81, 97
2, 274828, Note_on_c, 0, 77, 69
2, 274860, Note_on_c, 0, 62, 0
2, 274866, Control_c, 0, 64, 66
2, 274881, Note_on_c, 0, 77, 0
2, 274886, Control_c, 0, 64, 71
2, 274905, Control_c, 0, 64, 78
2, 274925, Control_c, 0, 64, 85
2, 274943, Control_c, 0, 64, 104
2, 274963, Control_c, 0, 64, 127
2, 275157, Control_c, 0, 64, 103
2, 275176, Control_c, 0, 64, 68
2, 275180, Note_on_c, 0, 68, 78
2, 275193, Note_on_c, 0, 83, 94
2, 275195, Control_c, 0, 64, 0
2, 275224, Note_on_c, 0, 81, 0
2, 275371, Note_on_c, 0, 81, 94
2, 275398, Note_on_c, 0, 83, 0
2, 275472, Note_on_c, 0, 68, 0
2, 275492, Note_on_c, 0, 81, 0
2, 275539, Note_on_c, 0, 64, 70
2, 275543, Note_on_c, 0, 80, 93
2, 275547, Note_on_c, 0, 59, 59
2, 275613, Note_on_c, 0, 59, 0
2, 275647, Note_on_c, 0, 64, 0
2, 275653, Note_on_c, 0, 80, 0
2, 275702, Note_on_c, 0, 60, 77
2, 275715, Note_on_c, 0, 81, 93
2, 275778, Note_on_c, 0, 60, 0
2, 275855, Note_on_c, 0, 81, 0
2, 275896, Note_on_c, 0, 62, 78
2, 275910, Note_on_c, 0, 83, 91
2, 275944, Control_c, 0, 64, 48
2, 275963, Control_c, 0, 64, 66
2, 275967, Note_on_c, 0, 62, 0
2, 276020, Control_c, 0, 64, 67
2, 276040, Control_c, 0, 64, 69
2, 276048, Note_on_c, 0, 83, 0
2, 276059, Control_c, 0, 64, 72
2, 276079, Control_c, 0, 64, 77
2, 276083, Note_on_c, 0, 64, 83
2, 276097, Control_c, 0, 64, 86
2, 276117, Control_c, 0, 64, 96
2, 276126, Note_on_c, 0, 64, 0
2, 276136, Control_c, 0, 64, 110
2, 276155, Control_c, 0, 64, 127
2, 276194, Control_c, 0, 64, 92
2, 276213, Control_c, 0, 64, 67
2, 276232, Control_c, 0, 64, 0
2, 276275, Note_on_c, 0, 84, 95
2, 276284, Note_on_c, 0, 69, 78
2, 276291, Note_on_c, 0, 66, 73
2, 276308, Control_c, 0, 64, 34
2, 276328, Control_c, 0, 64, 62
2, 276330, Note_on_c, 0, 84, 0
2, 276347, Control_c, 0, 64, 68
2, 276366, Control_c, 0, 64, 75
2, 276367, Note_on_c, 0, 69, 0
2, 276385, Control_c, 0, 64, 91
2, 276405, Control_c, 0, 64, 114
2, 276424, Control_c, 0, 64, 127
2, 276485, Note_on_c, 0, 68, 88
2, 276490, Note_on_c, 0, 69, 46
2, 276504, Note_on_c, 0, 66, 0
2, 276531, Note_on_c, 0, 69, 0
2, 276537, Note_on_c, 0, 68, 0
2, 276750, Control_c, 0, 64, 76
2, 276760, Note_on_c, 0, 54, 75
2, 276760, Note_on_c, 0, 57, 71
2, 276762, Note_on_c, 0, 75, 97
2, 276770, Control_c, 0, 64, 0
2, 276770, Note_on_c, 0, 66, 66
2, 276775, Note_on_c, 0, 71, 63
2, 276782, Note_on_c, 0, 69, 51
2, 276827, Note_on_c, 0, 71, 0
2, 276925, Note_on_c, 0, 71, 32
2, 277307, Control_c, 0, 64, 36
2, 277326, Control_c, 0, 64, 58
2, 277345, Control_c, 0, 64, 64
2, 277365, Control_c, 0, 64, 66
2, 277384, Control_c, 0, 64, 69
2, 277403, Control_c, 0, 64, 76
2, 277422, Control_c, 0, 64, 91
2, 277442, Control_c, 0, 64, 127
2, 277521, Note_on_c, 0, 66, 0
2, 277626, Note_on_c, 0, 75, 0
2, 277736, Note_on_c, 0, 71, 0
2, 278018, Note_on_c, 0, 54, 0
2, 278034, Control_c, 0, 64, 66
2, 278051, Note_on_c, 0, 57, 0
2, 278053, Control_c, 0, 64, 0
2, 278147, Note_on_c, 0, 69, 0
2, 278597, Note_on_c, 0, 76, 93
2, 278601, Note_on_c, 0, 59, 68
2, 278615, Note_on_c, 0, 71, 56
2, 278618, Note_on_c, 0, 56, 53
2, 278618, Note_on_c, 0, 64, 65
2, 278668, Control_c, 0, 64, 64
2, 278687, Control_c, 0, 64, 72
2, 278706, Control_c, 0, 64, 77
2, 278725, Control_c, 0, 64, 80
2, 278745, Control_c, 0, 64, 86
2, 278763, Control_c, 0, 64, 96
2, 278783, Control_c, 0, 64, 127
2, 278792, Note_on_c, 0, 64, 0
2, 278822, Note_on_c, 0, 56, 0
2, 278826, Note_on_c, 0, 76, 0
2, 278837, Note_on_c, 0, 59, 0
2, 278973, Control_c, 0, 64, 102
2, 278987, Note_on_c, 0, 72, 94
2, 278990, Note_on_c, 0, 57, 56
2, 278990, Note_on_c, 0, 69, 58
2, 278993, Control_c, 0, 64, 63
2, 278995, Note_on_c, 0, 60, 64
2, 279008, Note_on_c, 0, 64, 64
2, 279012, Control_c, 0, 64, 0
2, 279108, Control_c, 0, 64, 53
2, 279113, Note_on_c, 0, 64, 0
2, 279127, Control_c, 0, 64, 63
2, 279128, Note_on_c, 0, 71, 0
2, 279147, Control_c, 0, 64, 64
2, 279166, Control_c, 0, 64, 65
2, 279185, Control_c, 0, 64, 66
2, 279204, Control_c, 0, 64, 69
2, 279224, Control_c, 0, 64, 76
2, 279242, Control_c, 0, 64, 86
2, 279262, Control_c, 0, 64, 108
2, 279281, Control_c, 0, 64, 127
2, 279338, Control_c, 0, 64, 93
2, 279352, Note_on_c, 0, 50, 56
2, 279358, Control_c, 0, 64, 65
2, 279367, Note_on_c, 0, 71, 89
2, 279375, Note_on_c, 0, 65, 65
2, 279376, Control_c, 0, 64, 0
2, 279377, Note_on_c, 0, 62, 59
2, 279383, Note_on_c, 0, 60, 0
2, 279388, Note_on_c, 0, 72, 0
2, 279405, Note_on_c, 0, 69, 0
2, 279412, Note_on_c, 0, 65, 0
2, 279469, Note_on_c, 0, 71, 0
2, 279473, Note_on_c, 0, 50, 0
2, 279525, Note_on_c, 0, 57, 0
2, 279547, Note_on_c, 0, 69, 91
2, 279712, Note_on_c, 0, 69, 0
2, 279758, Note_on_c, 0, 60, 61
2, 279762, Note_on_c, 0, 72, 87
2, 279769, Note_on_c, 0, 62, 0
2, 279774, Note_on_c, 0, 64, 73
2, 279783, Note_on_c, 0, 52, 43
2, 279818, Control_c, 0, 64, 47
2, 279838, Control_c, 0, 64, 59
2, 279856, Control_c, 0, 64, 58
2, 279876, Control_c, 0, 64, 59
2, 279895, Control_c, 0, 64, 59
2, 279915, Control_c, 0, 64, 60
2, 279933, Control_c, 0, 64, 61
2, 279938, Note_on_c, 0, 71, 85
2, 279939, Note_on_c, 0, 60, 0
2, 279944, Note_on_c, 0, 72, 0
2, 279999, Note_on_c, 0, 64, 0
2, 280010, Control_c, 0, 64, 60
2, 280030, Control_c, 0, 64, 53
2, 280049, Control_c, 0, 64, 14
2, 280050, Note_on_c, 0, 71, 0
2, 280068, Control_c, 0, 64, 0
2, 280094, Note_on_c, 0, 59, 67
2, 280112, Note_on_c, 0, 69, 86
2, 280125, Note_on_c, 0, 62, 62
2, 280164, Control_c, 0, 64, 14
2, 280169, Note_on_c, 0, 62, 0
2, 280184, Control_c, 0, 64, 55
2, 280202, Control_c, 0, 64, 63
2, 280203, Note_on_c, 0, 59, 0
2, 280222, Control_c, 0, 64, 66
2, 280241, Control_c, 0, 64, 70
2, 280247, Note_on_c, 0, 69, 0
2, 280260, Control_c, 0, 64, 77
2, 280272, Note_on_c, 0, 68, 92
2, 280279, Control_c, 0, 64, 89
2, 280298, Control_c, 0, 64, 106
2, 280318, Control_c, 0, 64, 127
2, 280331, Note_on_c, 0, 68, 0
2, 280529, Control_c, 0, 64, 87
2, 280548, Control_c, 0, 64, 61
2, 280551, Note_on_c, 0, 69, 84
2, 280558, Note_on_c, 0, 45, 58
2, 280558, Note_on_c, 0, 61, 69
2, 280567, Control_c, 0, 64, 0
2, 280577, Note_on_c, 0, 64, 52
2, 280862, Note_on_c, 0, 61, 0
2, 280891, Note_on_c, 0, 64, 0
2, 280908, Note_on_c, 0, 52, 0
2, 280908, Note_on_c, 0, 57, 60
2, 280972, Note_on_c, 0, 57, 0
2, 281065, Note_on_c, 0, 58, 65
2, 281157, Note_on_c, 0, 58, 0
2, 281246, Note_on_c, 0, 57, 71
2, 281302, Note_on_c, 0, 57, 0
2, 281578, Note_on_c, 0, 55, 65
2, 281586, Note_on_c, 0, 64, 58
2, 281637, Note_on_c, 0, 64, 0
2, 281666, Note_on_c, 0, 55, 0
2, 281904, Note_on_c, 0, 53, 67
2, 281930, Control_c, 0, 64, 60
2, 281950, Control_c, 0, 64, 66
2, 281969, Control_c, 0, 64, 69
2, 281988, Control_c, 0, 64, 73
2, 281989, Note_on_c, 0, 69, 0
2, 282007, Control_c, 0, 64, 85
2, 282027, Control_c, 0, 64, 112
2, 282033, Note_on_c, 0, 53, 0
2, 282046, Control_c, 0, 64, 127
2, 282251, Note_on_c, 0, 53, 46
2, 282255, Note_on_c, 0, 69, 68
2, 282256, Control_c, 0, 64, 104
2, 282276, Control_c, 0, 64, 68
2, 282289, Note_on_c, 0, 53, 0
2, 282295, Control_c, 0, 64, 0
2, 282302, Note_on_c, 0, 69, 0
2, 282394, Note_on_c, 0, 55, 48
2, 282397, Note_on_c, 0, 70, 75
2, 282433, Note_on_c, 0, 55, 0
2, 282443, Note_on_c, 0, 70, 0
2, 282584, Note_on_c, 0, 53, 50
2, 282584, Note_on_c, 0, 69, 74
2, 282629, Note_on_c, 0, 53, 0
2, 282631, Note_on_c, 0, 69, 0
2, 282917, Note_on_c, 0, 52, 50
2, 282926, Note_on_c, 0, 67, 63
2, 282967, Note_on_c, 0, 52, 0
2, 282996, Note_on_c, 0, 67, 0
2, 283244, Note_on_c, 0, 50, 49
2, 283253, Note_on_c, 0, 65, 60
2, 283293, Control_c, 0, 64, 31
2, 283313, Control_c, 0, 64, 54
2, 283332, Control_c, 0, 64, 60
2, 283334, Note_on_c, 0, 50, 0
2, 283352, Control_c, 0, 64, 63
2, 283370, Control_c, 0, 64, 65
2, 283387, Note_on_c, 0, 65, 0
2, 283390, Control_c, 0, 64, 69
2, 283405, Note_on_c, 0, 52, 53
2, 283409, Control_c, 0, 64, 74
2, 283428, Control_c, 0, 64, 83
2, 283447, Control_c, 0, 64, 94
2, 283467, Control_c, 0, 64, 109
2, 283486, Control_c, 0, 64, 127
2, 283487, Note_on_c, 0, 52, 0
2, 283562, Control_c, 0, 64, 112
2, 283576, Note_on_c, 0, 53, 54
2, 283582, Control_c, 0, 64, 75
2, 283588, Note_on_c, 0, 74, 70
2, 283601, Control_c, 0, 64, 36
2, 283609, Note_on_c, 0, 65, 38
2, 283620, Control_c, 0, 64, 0
2, 283624, Note_on_c, 0, 53, 0
2, 283632, Note_on_c, 0, 74, 0
2, 283645, Note_on_c, 0, 65, 0
2, 283724, Note_on_c, 0, 52, 56
2, 283734, Note_on_c, 0, 73, 74
2, 283740, Note_on_c, 0, 67, 53
2, 283771, Note_on_c, 0, 52, 0
2, 283779, Note_on_c, 0, 67, 0
2, 283802, Note_on_c, 0, 73, 0
2, 283901, Note_on_c, 0, 74, 73
2, 283905, Note_on_c, 0, 65, 64
2, 283913, Note_on_c, 0, 50, 53
2, 283940, Note_on_c, 0, 65, 0
2, 283958, Note_on_c, 0, 50, 0
2, 283966, Note_on_c, 0, 74, 0
2, 284232, Note_on_c, 0, 76, 76
2, 284237, Note_on_c, 0, 64, 66
2, 284252, Note_on_c, 0, 49, 56
2, 284253, Control_c, 0, 64, 59
2, 284273, Control_c, 0, 64, 65
2, 284283, Note_on_c, 0, 64, 0
2, 284292, Control_c, 0, 64, 66
2, 284312, Control_c, 0, 64, 67
2, 284327, Note_on_c, 0, 45, 0
2, 284330, Control_c, 0, 64, 70
2, 284350, Control_c, 0, 64, 80
2, 284369, Control_c, 0, 64, 97
2, 284388, Control_c, 0, 64, 127
2, 284389, Note_on_c, 0, 49, 0
2, 284522, Control_c, 0, 64, 87
2, 284540, Control_c, 0, 64, 59
2, 284560, Control_c, 0, 64, 0
2, 284575, Note_on_c, 0, 77, 82
2, 284578, Note_on_c, 0, 62, 49
2, 284616, Note_on_c, 0, 76, 0
2, 284657, Control_c, 0, 64, 42
2, 284676, Control_c, 0, 64, 58
2, 284695, Control_c, 0, 64, 62
2, 284715, Control_c, 0, 64, 64
2, 284733, Control_c, 0, 64, 66
2, 284745, Note_on_c, 0, 62, 0
2, 284753, Control_c, 0, 64, 69
2, 284768, Note_on_c, 0, 77, 0
2, 284772, Control_c, 0, 64, 77
2, 284792, Control_c, 0, 64, 88
2, 284810, Control_c, 0, 64, 106
2, 284830, Control_c, 0, 64, 127
2, 284868, Control_c, 0, 64, 88
2, 284887, Control_c, 0, 64, 55
2, 284895, Note_on_c, 0, 57, 54
2, 284904, Note_on_c, 0, 77, 77
2, 284907, Control_c, 0, 64, 0
2, 284912, Note_on_c, 0, 53, 39
2, 284923, Note_on_c, 0, 69, 58
2, 284937, Note_on_c, 0, 57, 0
2, 284948, Note_on_c, 0, 69, 0
2, 284948, Note_on_c, 0, 77, 0
2, 284951, Note_on_c, 0, 53, 0
2, 285053, Note_on_c, 0, 59, 55
2, 285061, Note_on_c, 0, 76, 80
2, 285080, Note_on_c, 0, 67, 53
2, 285087, Note_on_c, 0, 59, 0
2, 285108, Note_on_c, 0, 67, 0
2, 285140, Note_on_c, 0, 76, 0
2, 285240, Note_on_c, 0, 77, 88
2, 285243, Note_on_c, 0, 61, 62
2, 285244, Note_on_c, 0, 52, 56
2, 285249, Note_on_c, 0, 69, 64
2, 285282, Note_on_c, 0, 69, 0
2, 285289, Note_on_c, 0, 61, 0
2, 285307, Note_on_c, 0, 52, 0
2, 285314, Note_on_c, 0, 77, 0
2, 285562, Note_on_c, 0, 62, 53
2, 285582, Note_on_c, 0, 79, 87
2, 285584, Note_on_c, 0, 50, 49
2, 285586, Note_on_c, 0, 71, 70
2, 285624, Note_on_c, 0, 71, 0
2, 285646, Note_on_c, 0, 62, 0
2, 285662, Note_on_c, 0, 79, 0
2, 285908, Note_on_c, 0, 55, 53
2, 285912, Note_on_c, 0, 81, 88
2, 285915, Note_on_c, 0, 50, 0
2, 285916, Note_on_c, 0, 64, 49
2, 285918, Note_on_c, 0, 73, 71
2, 286057, Note_on_c, 0, 81, 0
2, 286059, Note_on_c, 0, 73, 0
2, 286072, Note_on_c, 0, 79, 86
2, 286087, Note_on_c, 0, 73, 25
2, 286128, Note_on_c, 0, 73, 0
2, 286194, Note_on_c, 0, 79, 0
2, 286239, Note_on_c, 0, 73, 67
2, 286240, Note_on_c, 0, 77, 81
2, 286275, Note_on_c, 0, 73, 0
2, 286332, Note_on_c, 0, 77, 0
2, 286401, Note_on_c, 0, 79, 85
2, 286413, Note_on_c, 0, 71, 68
2, 286448, Note_on_c, 0, 71, 0
2, 286488, Note_on_c, 0, 79, 0
2, 286564, Note_on_c, 0, 81, 91
2, 286574, Note_on_c, 0, 73, 69
2, 286619, Note_on_c, 0, 73, 0
2, 286628, Note_on_c, 0, 64, 0
2, 286677, Note_on_c, 0, 81, 0
2, 286829, Note_on_c, 0, 55, 0
2, 286894, Note_on_c, 0, 82, 90
2, 286898, Note_on_c, 0, 53, 52
2, 286904, Note_on_c, 0, 62, 53
2, 286904, Note_on_c, 0, 74, 67
2, 286921, Control_c, 0, 64, 29
2, 286938, Note_on_c, 0, 74, 0
2, 286941, Control_c, 0, 64, 58
2, 286951, Note_on_c, 0, 82, 0
2, 286960, Control_c, 0, 64, 65
2, 286979, Control_c, 0, 64, 70
2, 286998, Control_c, 0, 64, 79
2, 287018, Control_c, 0, 64, 93
2, 287037, Control_c, 0, 64, 127
2, 287126, Note_on_c, 0, 70, 29
2, 287175, Note_on_c, 0, 70, 0
2, 287245, Note_on_c, 0, 76, 88
2, 287248, Control_c, 0, 64, 65
2, 287253, Note_on_c, 0, 73, 70
2, 287257, Note_on_c, 0, 67, 67
2, 287263, Note_on_c, 0, 52, 60
2, 287267, Control_c, 0, 64, 0
2, 287365, Note_on_c, 0, 73, 0
2, 287431, Note_on_c, 0, 74, 82
2, 287449, Note_on_c, 0, 67, 0
2, 287450, Note_on_c, 0, 73, 56
2, 287459, Note_on_c, 0, 76, 0
2, 287486, Note_on_c, 0, 73, 0
2, 287496, Note_on_c, 0, 53, 0
2, 287528, Note_on_c, 0, 74, 0
2, 287598, Note_on_c, 0, 73, 77
2, 287608, Note_on_c, 0, 69, 74
2, 287643, Note_on_c, 0, 69, 0
2, 287696, Note_on_c, 0, 73, 0
2, 287766, Note_on_c, 0, 74, 86
2, 287887, Note_on_c, 0, 74, 0
2, 287977, Note_on_c, 0, 76, 90
2, 288017, Control_c, 0, 64, 55
2, 288037, Control_c, 0, 64, 61
2, 288056, Control_c, 0, 64, 63
2, 288076, Control_c, 0, 64, 66
2, 288094, Control_c, 0, 64, 72
2, 288114, Control_c, 0, 64, 84
2, 288133, Control_c, 0, 64, 104
2, 288152, Control_c, 0, 64, 127
2, 288229, Note_on_c, 0, 62, 0
2, 288287, Note_on_c, 0, 76, 0
2, 288306, Control_c, 0, 64, 77
2, 288325, Control_c, 0, 64, 0
2, 288341, Note_on_c, 0, 52, 0
2, 288346, Note_on_c, 0, 77, 86
2, 288356, Note_on_c, 0, 50, 58
2, 288358, Note_on_c, 0, 65, 62
2, 288362, Note_on_c, 0, 74, 47
2, 288406, Note_on_c, 0, 74, 0
2, 288457, Note_on_c, 0, 65, 0
2, 288459, Control_c, 0, 64, 54
2, 288479, Control_c, 0, 64, 59
2, 288497, Control_c, 0, 64, 62
2, 288517, Control_c, 0, 64, 65
2, 288536, Control_c, 0, 64, 70
2, 288547, Note_on_c, 0, 64, 75
2, 288556, Control_c, 0, 64, 80
2, 288574, Control_c, 0, 64, 103
2, 288592, Note_on_c, 0, 50, 0
2, 288594, Control_c, 0, 64, 127
2, 288598, Note_on_c, 0, 64, 0
2, 288748, Control_c, 0, 64, 73
2, 288753, Note_on_c, 0, 68, 87
2, 288759, Note_on_c, 0, 62, 62
2, 288767, Control_c, 0, 64, 0
2, 288773, Note_on_c, 0, 59, 54
2, 288934, Note_on_c, 0, 68, 0
2, 288944, Note_on_c, 0, 72, 87
2, 289031, Note_on_c, 0, 72, 0
2, 289130, Note_on_c, 0, 71, 86
2, 289192, Note_on_c, 0, 71, 0
2, 289325, Note_on_c, 0, 72, 84
2, 289371, Note_on_c, 0, 72, 0
2, 289466, Note_on_c, 0, 62, 0
2, 289539, Note_on_c, 0, 74, 88
2, 289562, Note_on_c, 0, 77, 0
2, 289745, Note_on_c, 0, 76, 86
2, 289770, Note_on_c, 0, 74, 0
2, 289854, Note_on_c, 0, 76, 0
2, 289969, Note_on_c, 0, 62, 69
2, 289969, Note_on_c, 0, 78, 86
2, 289971, Note_on_c, 0, 74, 71
2, 290011, Note_on_c, 0, 74, 0
2, 290057, Note_on_c, 0, 78, 0
2, 290102, Note_on_c, 0, 74, 40
2, 290117, Note_on_c, 0, 62, 0
2, 290198, Note_on_c, 0, 64, 79
2, 290203, Note_on_c, 0, 80, 92
2, 290306, Note_on_c, 0, 80, 0
2, 290338, Note_on_c, 0, 64, 0
2, 290457, Note_on_c, 0, 81, 99
2, 290458, Note_on_c, 0, 59, 0
2, 290459, Note_on_c, 0, 57, 70
2, 290459, Note_on_c, 0, 65, 76
2, 290511, Note_on_c, 0, 74, 0
2, 290549, Control_c, 0, 64, 61
2, 290567, Control_c, 0, 64, 67
2, 290587, Control_c, 0, 64, 71
2, 290606, Control_c, 0, 64, 75
2, 290625, Control_c, 0, 64, 84
2, 290644, Control_c, 0, 64, 102
2, 290664, Control_c, 0, 64, 127
2, 290676, Note_on_c, 0, 65, 0
2, 290725, Note_on_c, 0, 81, 0
2, 290917, Note_on_c, 0, 76, 87
2, 290920, Note_on_c, 0, 64, 72
2, 290922, Note_on_c, 0, 61, 63
2, 290931, Note_on_c, 0, 73, 68
2, 290933, Control_c, 0, 64, 87
2, 290952, Control_c, 0, 64, 43
2, 290954, Note_on_c, 0, 73, 0
2, 290956, Note_on_c, 0, 64, 0
2, 290964, Note_on_c, 0, 61, 0
2, 290970, Control_c, 0, 64, 0
2, 290982, Note_on_c, 0, 76, 0
2, 291164, Note_on_c, 0, 62, 66
2, 291165, Note_on_c, 0, 77, 86
2, 291178, Note_on_c, 0, 59, 59
2, 291185, Note_on_c, 0, 74, 52
2, 291218, Note_on_c, 0, 62, 0
2, 291224, Note_on_c, 0, 74, 0
2, 291234, Note_on_c, 0, 59, 0
2, 291260, Note_on_c, 0, 77, 0
2, 291461, Note_on_c, 0, 76, 88
2, 291465, Note_on_c, 0, 64, 67
2, 291478, Note_on_c, 0, 73, 64
2, 291481, Note_on_c, 0, 61, 55
2, 291528, Control_c, 0, 64, 51
2, 291548, Control_c, 0, 64, 70
2, 291567, Control_c, 0, 64, 74
2, 291586, Control_c, 0, 64, 80
2, 291605, Control_c, 0, 64, 83
2, 291625, Control_c, 0, 64, 88
2, 291644, Control_c, 0, 64, 101
2, 291663, Control_c, 0, 64, 127
2, 291722, Note_on_c, 0, 73, 0
2, 291723, Note_on_c, 0, 64, 0
2, 291749, Note_on_c, 0, 61, 0
2, 292066, Control_c, 0, 64, 93
2, 292078, Note_on_c, 0, 74, 86
2, 292085, Control_c, 0, 64, 62
2, 292093, Note_on_c, 0, 62, 50
2, 292102, Note_on_c, 0, 65, 53
2, 292104, Control_c, 0, 64, 0
2, 292104, Note_on_c, 0, 71, 54
2, 292131, Note_on_c, 0, 76, 0
2, 292238, Control_c, 0, 64, 53
2, 292255, Note_on_c, 0, 71, 0
2, 292258, Control_c, 0, 64, 55
2, 292296, Control_c, 0, 64, 56
2, 292315, Control_c, 0, 64, 58
2, 292335, Control_c, 0, 64, 61
2, 292353, Control_c, 0, 64, 64
2, 292373, Control_c, 0, 64, 67
2, 292392, Control_c, 0, 64, 71
2, 292410, Control_c, 0, 64, 79
2, 292430, Control_c, 0, 64, 92
2, 292449, Control_c, 0, 64, 113
2, 292469, Control_c, 0, 64, 127
2, 292529, Note_on_c, 0, 68, 87
2, 292649, Note_on_c, 0, 65, 0
2, 292700, Note_on_c, 0, 74, 0
2, 293101, Note_on_c, 0, 73, 83
2, 293109, Note_on_c, 0, 64, 65
2, 293109, Note_on_c, 0, 69, 76
2, 293126, Note_on_c, 0, 68, 0
2, 293141, Control_c, 0, 64, 83
2, 293159, Control_c, 0, 64, 27
2, 293179, Control_c, 0, 64, 0
2, 293191, Note_on_c, 0, 62, 0
2, 293247, Note_on_c, 0, 68, 88
2, 293249, Note_on_c, 0, 69, 0
2, 293358, Note_on_c, 0, 68, 0
2, 293374, Note_on_c, 0, 69, 85
2, 296744, Note_on_c, 0, 73, 0
2, 296807, Note_on_c, 0, 57, 0
2, 296827, Note_on_c, 0, 64, 0
2, 296860, Note_on_c, 0, 69, 0
2, 296861, End_track
0, 0, End_of_file
