0, 0, Header, 1, 2, 480
1, 0, Start_track
1, 0, Tempo, 500000
1, 0, Time_signature, 4, 2, 24, 8
1, 1, End_track
2, 0, Start_track
2, 0, Program_c, 0, 0
2, 988, Note_on_c, 0, 45, 42
2, 1012, Note_on_c, 0, 69, 66
2, 1084, Note_on_c, 0, 69, 0
2, 1113, Note_on_c, 0, 71, 68
2, 1194, Note_on_c, 0, 71, 0
2, 1225, Note_on_c, 0, 72, 72
2, 1259, Note_on_c, 0, 72, 0
2, 1491, Note_on_c, 0, 76, 68
2, 1528, Note_on_c, 0, 76, 0
2, 1728, Note_on_c, 0, 45, 0
2, 1735, Note_on_c, 0, 57, 54
2, 1739, Note_on_c, 0, 72, 72
2, 1780, Note_on_c, 0, 72, 0
2, 1801, Note_on_c, 0, 57, 0
2, 1847, Note_on_c, 0, 56, 62
2, 1911, Note_on_c, 0, 56, 0
2, 1961, Note_on_c, 0, 57, 59
2, 1964, Note_on_c, 0, 69, 74
2, 2013, Note_on_c, 0, 69, 0
2, 2015, Note_on_c, 0, 57, 0
2, 2062, Note_on_c, 0, 56, 68
2, 2132, Note_on_c, 0, 56, 0
2, 2199, Note_on_c, 0, 57, 53
2, 2199, Note_on_c, 0, 64, 69
2, 2241, Note_on_c, 0, 64, 0
2, 2248, Note_on_c, 0, 57, 0
2, 2283, Note_on_c, 0, 56, 64
2, 2352, Note_on_c, 0, 56, 0
2, 2418, Note_on_c, 0, 57, 47
2, 2438, Note_on_c, 0, 69, 70
2, 2468, Note_on_c, 0, 69, 0
2, 2479, Note_on_c, 0, 57, 0
2, 2692, Note_on_c, 0, 52, 49
2, 2695, Note_on_c, 0, 72, 71
2, 2736, Note_on_c, 0, 52, 0
2, 2736, Note_on_c, 0, 72, 0
2, 2923, Note_on_c, 0, 48, 49
2, 2924, Note_on_c, 0, 76, 73
2, 2965, Note_on_c, 0, 76, 0
2, 2968, Note_on_c, 0, 48, 0
2, 3198, Note_on_c, 0, 71, 79
2, 3199, Note_on_c, 0, 45, 48
2, 3260, Note_on_c, 0, 71, 0
2, 3288, Note_on_c, 0, 72, 82
2, 3348, Note_on_c, 0, 72, 0
2, 3397, Note_on_c, 0, 74, 78
2, 3427, Note_on_c, 0, 74, 0
2, 3655, Note_on_c, 0, 77, 63
2, 3692, Note_on_c, 0, 77, 0
2, 3882, Note_on_c, 0, 45, 0
2, 3890, Note_on_c, 0, 57, 59
2, 3891, Note_on_c, 0, 74, 70
2, 3929, Note_on_c, 0, 74, 0
2, 3958, Note_on_c, 0, 57, 0
2, 3998, Note_on_c, 0, 56, 65
2, 4043, Note_on_c, 0, 56, 0
2, 4104, Note_on_c, 0, 57, 66
2, 4115, Note_on_c, 0, 71, 70
2, 4155, Note_on_c, 0, 71, 0
2, 4156, Note_on_c, 0, 57, 0
2, 4205, Note_on_c, 0, 56, 65
2, 4262, Note_on_c, 0, 56, 0
2, 4322, Note_on_c, 0, 57, 65
2, 4329, Note_on_c, 0, 68, 78
2, 4370, Note_on_c, 0, 57, 0
2, 4399, Note_on_c, 0, 68, 0
2, 4409, Note_on_c, 0, 56, 76
2, 4491, Note_on_c, 0, 56, 0
2, 4550, Note_on_c, 0, 57, 56
2, 4565, Note_on_c, 0, 71, 85
2, 4594, Note_on_c, 0, 71, 0
2, 4599, Note_on_c, 0, 57, 0
2, 4804, Note_on_c, 0, 74, 79
2, 4809, Note_on_c, 0, 53, 57
2, 4843, Note_on_c, 0, 74, 0
2, 4847, Note_on_c, 0, 53, 0
2, 5039, Note_on_c, 0, 77, 86
2, 5040, Note_on_c, 0, 50, 51
2, 5088, Note_on_c, 0, 77, 0
2, 5096, Note_on_c, 0, 50, 0
2, 5284, Note_on_c, 0, 45, 51
2, 5298, Note_on_c, 0, 74, 82
2, 5355, Note_on_c, 0, 74, 0
2, 5401, Note_on_c, 0, 76, 85
2, 5469, Note_on_c, 0, 76, 0
2, 5513, Note_on_c, 0, 77, 83
2, 5542, Note_on_c, 0, 77, 0
2, 5748, Note_on_c, 0, 80, 88
2, 5890, Note_on_c, 0, 80, 0
2, 5950, Note_on_c, 0, 45, 0
2, 5980, Note_on_c, 0, 77, 74
2, 5988, Note_on_c, 0, 57, 63
2, 6021, Note_on_c, 0, 77, 0
2, 6056, Note_on_c, 0, 57, 0
2, 6099, Note_on_c, 0, 56, 70
2, 6150, Note_on_c, 0, 56, 0
2, 6204, Note_on_c, 0, 57, 67
2, 6211, Note_on_c, 0, 74, 75
2, 6249, Note_on_c, 0, 74, 0
2, 6266, Note_on_c, 0, 57, 0
2, 6322, Note_on_c, 0, 56, 69
2, 6373, Note_on_c, 0, 56, 0
2, 6435, Note_on_c, 0, 71, 83
2, 6436, Note_on_c, 0, 57, 64
2, 6496, Note_on_c, 0, 57, 0
2, 6505, Note_on_c, 0, 71, 0
2, 6540, Note_on_c, 0, 56, 66
2, 6602, Note_on_c, 0, 56, 0
2, 6664, Note_on_c, 0, 57, 59
2, 6664, Note_on_c, 0, 74, 84
2, 6708, Note_on_c, 0, 57, 0
2, 6716, Note_on_c, 0, 74, 0
2, 6903, Note_on_c, 0, 77, 86
2, 6914, Note_on_c, 0, 53, 59
2, 6953, Note_on_c, 0, 77, 0
2, 6954, Note_on_c, 0, 53, 0
2, 7134, Note_on_c, 0, 50, 54
2, 7134, Note_on_c, 0, 80, 88
2, 7165, Note_on_c, 0, 76, 28
2, 7180, Note_on_c, 0, 50, 0
2, 7199, Note_on_c, 0, 76, 0
2, 7201, Note_on_c, 0, 80, 0
2, 7394, Note_on_c, 0, 45, 51
2, 7396, Note_on_c, 0, 81, 84
2, 7652, Note_on_c, 0, 81, 0
2, 7659, Note_on_c, 0, 79, 71
2, 7756, Note_on_c, 0, 77, 67
2, 7769, Note_on_c, 0, 79, 0
2, 7827, Note_on_c, 0, 45, 0
2, 7851, Note_on_c, 0, 76, 71
2, 7863, Note_on_c, 0, 77, 0
2, 7929, Note_on_c, 0, 76, 0
2, 7960, Note_on_c, 0, 74, 70
2, 8059, Note_on_c, 0, 74, 0
2, 8070, Note_on_c, 0, 72, 70
2, 8300, Note_on_c, 0, 72, 0
2, 8305, Note_on_c, 0, 69, 68
2, 8338, Note_on_c, 0, 69, 0
2, 8549, Note_on_c, 0, 64, 58
2, 8597, Note_on_c, 0, 64, 0
2, 8781, Note_on_c, 0, 60, 65
2, 8830, Note_on_c, 0, 60, 0
2, 9026, Note_on_c, 0, 57, 62
2, 9069, Note_on_c, 0, 57, 0
2, 9237, Note_on_c, 0, 63, 75
2, 9278, Note_on_c, 0, 63, 0
2, 9490, Note_on_c, 0, 79, 75
2, 9491, Note_on_c, 0, 52, 76
2, 9503, Note_on_c, 0, 71, 49
2, 9574, Note_on_c, 0, 52, 0
2, 9617, Note_on_c, 0, 54, 84
2, 9675, Note_on_c, 0, 54, 0
2, 9736, Note_on_c, 0, 55, 83
2, 9785, Note_on_c, 0, 55, 0
2, 9973, Note_on_c, 0, 59, 81
2, 10011, Note_on_c, 0, 59, 0
2, 10186, Note_on_c, 0, 71, 0
2, 10221, Note_on_c, 0, 55, 55
2, 10225, Note_on_c, 0, 76, 64
2, 10266, Note_on_c, 0, 55, 0
2, 10281, Note_on_c, 0, 76, 0
2, 10315, Note_on_c, 0, 75, 71
2, 10390, Note_on_c, 0, 79, 0
2, 10408, Note_on_c, 0, 75, 0
2, 10417, Note_on_c, 0, 76, 68
2, 10432, Note_on_c, 0, 52, 64
2, 10472, Note_on_c, 0, 52, 0
2, 10489, Note_on_c, 0, 76, 0
2, 10506, Note_on_c, 0, 50, 3
2, 10530, Note_on_c, 0, 75, 73
2, 10556, Note_on_c, 0, 50, 0
2, 10608, Note_on_c, 0, 75, 0
2, 10646, Note_on_c, 0, 76, 62
2, 10657, Note_on_c, 0, 47, 71
2, 10686, Note_on_c, 0, 50, 28
2, 10711, Note_on_c, 0, 47, 0
2, 10725, Note_on_c, 0, 50, 0
2, 10738, Note_on_c, 0, 76, 0
2, 10757, Note_on_c, 0, 75, 70
2, 10868, Note_on_c, 0, 75, 0
2, 10870, Note_on_c, 0, 76, 75
2, 10871, Note_on_c, 0, 52, 74
2, 10917, Note_on_c, 0, 52, 0
2, 10960, Note_on_c, 0, 76, 0
2, 11005, Note_on_c, 0, 71, 77
2, 11081, Note_on_c, 0, 71, 0
2, 11100, Note_on_c, 0, 55, 73
2, 11105, Note_on_c, 0, 69, 78
2, 11145, Note_on_c, 0, 55, 0
2, 11221, Note_on_c, 0, 67, 73
2, 11260, Note_on_c, 0, 69, 0
2, 11297, Note_on_c, 0, 67, 0
2, 11307, Note_on_c, 0, 59, 79
2, 11309, Note_on_c, 0, 66, 76
2, 11366, Note_on_c, 0, 59, 0
2, 11406, Note_on_c, 0, 66, 0
2, 11412, Note_on_c, 0, 64, 74
2, 11534, Note_on_c, 0, 54, 79
2, 11545, Note_on_c, 0, 72, 83
2, 11566, Note_on_c, 0, 69, 20
2, 11602, Note_on_c, 0, 54, 0
2, 11624, Note_on_c, 0, 69, 0
2, 11635, Note_on_c, 0, 55, 87
2, 11700, Note_on_c, 0, 55, 0
2, 11758, Note_on_c, 0, 57, 78
2, 11796, Note_on_c, 0, 57, 0
2, 12020, Note_on_c, 0, 60, 73
2, 12063, Note_on_c, 0, 60, 0
2, 12084, Note_on_c, 0, 64, 0
2, 12261, Note_on_c, 0, 57, 65
2, 12310, Note_on_c, 0, 57, 0
2, 12331, Note_on_c, 0, 72, 0
2, 12348, Note_on_c, 0, 71, 67
2, 12447, Note_on_c, 0, 71, 0
2, 12463, Note_on_c, 0, 72, 80
2, 12474, Note_on_c, 0, 54, 63
2, 12519, Note_on_c, 0, 54, 0
2, 12549, Note_on_c, 0, 72, 0
2, 12572, Note_on_c, 0, 71, 81
2, 12680, Note_on_c, 0, 71, 0
2, 12682, Note_on_c, 0, 72, 82
2, 12688, Note_on_c, 0, 51, 64
2, 12747, Note_on_c, 0, 51, 0
2, 12749, Note_on_c, 0, 72, 0
2, 12794, Note_on_c, 0, 71, 81
2, 12851, Note_on_c, 0, 71, 0
2, 12908, Note_on_c, 0, 54, 75
2, 12908, Note_on_c, 0, 72, 80
2, 12958, Note_on_c, 0, 54, 0
2, 13029, Note_on_c, 0, 79, 76
2, 13050, Note_on_c, 0, 72, 0
2, 13122, Note_on_c, 0, 57, 79
2, 13133, Note_on_c, 0, 78, 77
2, 13150, Note_on_c, 0, 79, 0
2, 13163, Note_on_c, 0, 57, 0
2, 13231, Note_on_c, 0, 76, 78
2, 13234, Note_on_c, 0, 78, 0
2, 13332, Note_on_c, 0, 75, 79
2, 13338, Note_on_c, 0, 60, 80
2, 13338, Note_on_c, 0, 76, 0
2, 13380, Note_on_c, 0, 75, 0
2, 13408, Note_on_c, 0, 60, 0
2, 13452, Note_on_c, 0, 76, 67
2, 13509, Note_on_c, 0, 76, 0
2, 13550, Note_on_c, 0, 57, 84
2, 13568, Note_on_c, 0, 66, 61
2, 13572, Note_on_c, 0, 75, 78
2, 13630, Note_on_c, 0, 57, 0
2, 13674, Note_on_c, 0, 59, 87
2, 13686, Note_on_c, 0, 66, 0
2, 13747, Note_on_c, 0, 59, 0
2, 13786, Note_on_c, 0, 60, 83
2, 13826, Note_on_c, 0, 60, 0
2, 14038, Note_on_c, 0, 63, 78
2, 14090, Note_on_c, 0, 63, 0
2, 14254, Note_on_c, 0, 60, 76
2, 14314, Note_on_c, 0, 60, 0
2, 14324, Note_on_c, 0, 75, 0
2, 14353, Note_on_c, 0, 76, 71
2, 14448, Note_on_c, 0, 76, 0
2, 14466, Note_on_c, 0, 57, 67
2, 14477, Note_on_c, 0, 78, 74
2, 14517, Note_on_c, 0, 57, 0
2, 14555, Note_on_c, 0, 78, 0
2, 14583, Note_on_c, 0, 76, 77
2, 14680, Note_on_c, 0, 76, 0
2, 14689, Note_on_c, 0, 54, 70
2, 14694, Note_on_c, 0, 78, 77
2, 14760, Note_on_c, 0, 54, 0
2, 14778, Note_on_c, 0, 78, 0
2, 14805, Note_on_c, 0, 76, 78
2, 14904, Note_on_c, 0, 76, 0
2, 14910, Note_on_c, 0, 57, 71
2, 14910, Note_on_c, 0, 78, 82
2, 14970, Note_on_c, 0, 57, 0
2, 14971, Note_on_c, 0, 78, 0
2, 15025, Note_on_c, 0, 76, 77
2, 15115, Note_on_c, 0, 76, 0
2, 15123, Note_on_c, 0, 60, 68
2, 15135, Note_on_c, 0, 75, 76
2, 15189, Note_on_c, 0, 60, 0
2, 15250, Note_on_c, 0, 78, 74
2, 15293, Note_on_c, 0, 75, 0
2, 15350, Note_on_c, 0, 63, 76
2, 15357, Note_on_c, 0, 71, 76
2, 15362, Note_on_c, 0, 78, 0
2, 15441, Note_on_c, 0, 63, 0
2, 15460, Note_on_c, 0, 69, 82
2, 15477, Note_on_c, 0, 71, 0
2, 15549, Note_on_c, 0, 69, 0
2, 15584, Note_on_c, 0, 67, 76
2, 15595, Note_on_c, 0, 64, 75
2, 15752, Note_on_c, 0, 64, 0
2, 15839, Note_on_c, 0, 52, 60
2, 15953, Note_on_c, 0, 52, 0
2, 15956, Note_on_c, 0, 54, 71
2, 16030, Note_on_c, 0, 67, 0
2, 16042, Note_on_c, 0, 54, 0
2, 16055, Note_on_c, 0, 55, 68
2, 16150, Note_on_c, 0, 55, 0
2, 16150, Note_on_c, 0, 57, 73
2, 16215, Note_on_c, 0, 57, 0
2, 16279, Note_on_c, 0, 59, 66
2, 16449, Note_on_c, 0, 59, 0
2, 16529, Note_on_c, 0, 64, 69
2, 16563, Note_on_c, 0, 64, 0
2, 16760, Note_on_c, 0, 67, 69
2, 16794, Note_on_c, 0, 67, 0
2, 16996, Note_on_c, 0, 71, 75
2, 17032, Note_on_c, 0, 71, 0
2, 17229, Note_on_c, 0, 76, 73
2, 17289, Note_on_c, 0, 76, 0
2, 17465, Note_on_c, 0, 70, 72
2, 17505, Note_on_c, 0, 70, 0
2, 17694, Note_on_c, 0, 76, 32
2, 17702, Note_on_c, 0, 71, 50
2, 17710, Note_on_c, 0, 79, 66
2, 17713, Note_on_c, 0, 64, 55
2, 17769, Note_on_c, 0, 71, 0
2, 17770, Note_on_c, 0, 64, 0
2, 17816, Note_on_c, 0, 66, 61
2, 17873, Note_on_c, 0, 66, 0
2, 17922, Note_on_c, 0, 67, 58
2, 17963, Note_on_c, 0, 67, 0
2, 18178, Note_on_c, 0, 71, 53
2, 18233, Note_on_c, 0, 71, 0
2, 18257, Note_on_c, 0, 76, 0
2, 18403, Note_on_c, 0, 67, 57
2, 18453, Note_on_c, 0, 67, 0
2, 18492, Note_on_c, 0, 79, 0
2, 18523, Note_on_c, 0, 78, 58
2, 18615, Note_on_c, 0, 78, 0
2, 18629, Note_on_c, 0, 79, 68
2, 18655, Note_on_c, 0, 64, 40
2, 18690, Note_on_c, 0, 64, 0
2, 18706, Note_on_c, 0, 79, 0
2, 18737, Note_on_c, 0, 78, 67
2, 18842, Note_on_c, 0, 78, 0
2, 18849, Note_on_c, 0, 79, 71
2, 18865, Note_on_c, 0, 59, 62
2, 18923, Note_on_c, 0, 59, 0
2, 18940, Note_on_c, 0, 79, 0
2, 18960, Note_on_c, 0, 78, 71
2, 19074, Note_on_c, 0, 78, 0
2, 19076, Note_on_c, 0, 79, 81
2, 19087, Note_on_c, 0, 61, 66
2, 19141, Note_on_c, 0, 61, 0
2, 19167, Note_on_c, 0, 79, 0
2, 19193, Note_on_c, 0, 77, 71
2, 19261, Note_on_c, 0, 77, 0
2, 19301, Note_on_c, 0, 76, 75
2, 19307, Note_on_c, 0, 64, 64
2, 19351, Note_on_c, 0, 64, 0
2, 19365, Note_on_c, 0, 76, 0
2, 19399, Note_on_c, 0, 74, 76
2, 19463, Note_on_c, 0, 74, 0
2, 19513, Note_on_c, 0, 69, 75
2, 19514, Note_on_c, 0, 73, 77
2, 19561, Note_on_c, 0, 73, 0
2, 19572, Note_on_c, 0, 69, 0
2, 19624, Note_on_c, 0, 71, 65
2, 19632, Note_on_c, 0, 72, 48
2, 19661, Note_on_c, 0, 72, 0
2, 19713, Note_on_c, 0, 71, 0
2, 19736, Note_on_c, 0, 62, 71
2, 19750, Note_on_c, 0, 69, 61
2, 19751, Note_on_c, 0, 77, 72
2, 19785, Note_on_c, 0, 62, 0
2, 19809, Note_on_c, 0, 69, 0
2, 19850, Note_on_c, 0, 64, 73
2, 19899, Note_on_c, 0, 64, 0
2, 19963, Note_on_c, 0, 65, 69
2, 19997, Note_on_c, 0, 65, 0
2, 20209, Note_on_c, 0, 69, 72
2, 20246, Note_on_c, 0, 69, 0
2, 20437, Note_on_c, 0, 65, 67
2, 20454, Note_on_c, 0, 77, 0
2, 20489, Note_on_c, 0, 65, 0
2, 20498, Note_on_c, 0, 76, 58
2, 20607, Note_on_c, 0, 77, 67
2, 20612, Note_on_c, 0, 76, 0
2, 20671, Note_on_c, 0, 62, 61
2, 20693, Note_on_c, 0, 77, 0
2, 20724, Note_on_c, 0, 62, 0
2, 20731, Note_on_c, 0, 76, 56
2, 20857, Note_on_c, 0, 77, 59
2, 20877, Note_on_c, 0, 57, 67
2, 20884, Note_on_c, 0, 76, 0
2, 20931, Note_on_c, 0, 57, 0
2, 20937, Note_on_c, 0, 77, 0
2, 20951, Note_on_c, 0, 76, 64
2, 21064, Note_on_c, 0, 76, 0
2, 21073, Note_on_c, 0, 77, 79
2, 21085, Note_on_c, 0, 59, 72
2, 21134, Note_on_c, 0, 59, 0
2, 21185, Note_on_c, 0, 76, 60
2, 21221, Note_on_c, 0, 77, 0
2, 21273, Note_on_c, 0, 74, 69
2, 21281, Note_on_c, 0, 62, 65
2, 21307, Note_on_c, 0, 76, 0
2, 21322, Note_on_c, 0, 62, 0
2, 21378, Note_on_c, 0, 72, 75
2, 21378, Note_on_c, 0, 74, 0
2, 21451, Note_on_c, 0, 72, 0
2, 21486, Note_on_c, 0, 67, 60
2, 21494, Note_on_c, 0, 71, 70
2, 21527, Note_on_c, 0, 67, 0
2, 21546, Note_on_c, 0, 71, 0
2, 21590, Note_on_c, 0, 69, 70
2, 21652, Note_on_c, 0, 69, 0
2, 21729, Note_on_c, 0, 60, 58
2, 21742, Note_on_c, 0, 72, 39
2, 21742, Note_on_c, 0, 76, 63
2, 21757, Note_on_c, 0, 67, 38
2, 21795, Note_on_c, 0, 60, 0
2, 21850, Note_on_c, 0, 62, 55
2, 21854, Note_on_c, 0, 67, 0
2, 21897, Note_on_c, 0, 62, 0
2, 21953, Note_on_c, 0, 64, 64
2, 21988, Note_on_c, 0, 64, 0
2, 22193, Note_on_c, 0, 72, 0
2, 22201, Note_on_c, 0, 67, 57
2, 22244, Note_on_c, 0, 67, 0
2, 22424, Note_on_c, 0, 64, 66
2, 22476, Note_on_c, 0, 64, 0
2, 22525, Note_on_c, 0, 76, 0
2, 22552, Note_on_c, 0, 74, 55
2, 22634, Note_on_c, 0, 74, 0
2, 22666, Note_on_c, 0, 76, 62
2, 22672, Note_on_c, 0, 60, 51
2, 22717, Note_on_c, 0, 60, 0
2, 22736, Note_on_c, 0, 76, 0
2, 22771, Note_on_c, 0, 74, 61
2, 22862, Note_on_c, 0, 74, 0
2, 22875, Note_on_c, 0, 76, 72
2, 22888, Note_on_c, 0, 55, 60
2, 22939, Note_on_c, 0, 55, 0
2, 22939, Note_on_c, 0, 76, 0
2, 22986, Note_on_c, 0, 74, 68
2, 23043, Note_on_c, 0, 74, 0
2, 23100, Note_on_c, 0, 72, 68
2, 23102, Note_on_c, 0, 57, 62
2, 23153, Note_on_c, 0, 57, 0
2, 23199, Note_on_c, 0, 72, 0
2, 23215, Note_on_c, 0, 79, 73
2, 23266, Note_on_c, 0, 79, 0
2, 23325, Note_on_c, 0, 77, 68
2, 23330, Note_on_c, 0, 60, 63
2, 23379, Note_on_c, 0, 60, 0
2, 23417, Note_on_c, 0, 77, 0
2, 23432, Note_on_c, 0, 76, 74
2, 23541, Note_on_c, 0, 74, 72
2, 23550, Note_on_c, 0, 76, 0
2, 23553, Note_on_c, 0, 65, 50
2, 23600, Note_on_c, 0, 65, 0
2, 23613, Note_on_c, 0, 74, 0
2, 23652, Note_on_c, 0, 72, 75
2, 23764, Note_on_c, 0, 71, 73
2, 23778, Note_on_c, 0, 55, 52
2, 23792, Note_on_c, 0, 72, 0
2, 23848, Note_on_c, 0, 55, 0
2, 23871, Note_on_c, 0, 71, 0
2, 23878, Note_on_c, 0, 76, 73
2, 23986, Note_on_c, 0, 74, 72
2, 24002, Note_on_c, 0, 59, 59
2, 24012, Note_on_c, 0, 76, 0
2, 24045, Note_on_c, 0, 59, 0
2, 24098, Note_on_c, 0, 72, 75
2, 24133, Note_on_c, 0, 74, 0
2, 24208, Note_on_c, 0, 71, 76
2, 24213, Note_on_c, 0, 72, 0
2, 24214, Note_on_c, 0, 62, 66
2, 24271, Note_on_c, 0, 71, 0
2, 24274, Note_on_c, 0, 62, 0
2, 24322, Note_on_c, 0, 69, 73
2, 24422, Note_on_c, 0, 67, 72
2, 24431, Note_on_c, 0, 65, 60
2, 24450, Note_on_c, 0, 69, 0
2, 24487, Note_on_c, 0, 65, 0
2, 24519, Note_on_c, 0, 67, 0
2, 24534, Note_on_c, 0, 72, 78
2, 24637, Note_on_c, 0, 72, 0
2, 24645, Note_on_c, 0, 71, 75
2, 24654, Note_on_c, 0, 62, 64
2, 24695, Note_on_c, 0, 62, 0
2, 24759, Note_on_c, 0, 69, 75
2, 24803, Note_on_c, 0, 71, 0
2, 24872, Note_on_c, 0, 59, 72
2, 24872, Note_on_c, 0, 67, 73
2, 24880, Note_on_c, 0, 69, 0
2, 24913, Note_on_c, 0, 59, 0
2, 24936, Note_on_c, 0, 67, 0
2, 24985, Note_on_c, 0, 65, 72
2, 25088, Note_on_c, 0, 64, 80
2, 25091, Note_on_c, 0, 55, 71
2, 25111, Note_on_c, 0, 65, 0
2, 25134, Note_on_c, 0, 55, 0
2, 25203, Note_on_c, 0, 69, 80
2, 25211, Note_on_c, 0, 64, 0
2, 25308, Note_on_c, 0, 59, 78
2, 25318, Note_on_c, 0, 67, 74
2, 25345, Note_on_c, 0, 69, 0
2, 25351, Note_on_c, 0, 59, 0
2, 25426, Note_on_c, 0, 65, 74
2, 25464, Note_on_c, 0, 67, 0
2, 25530, Note_on_c, 0, 55, 75
2, 25537, Note_on_c, 0, 64, 82
2, 25546, Note_on_c, 0, 65, 0
2, 25565, Note_on_c, 0, 55, 0
2, 25608, Note_on_c, 0, 64, 0
2, 25648, Note_on_c, 0, 62, 82
2, 25719, Note_on_c, 0, 62, 0
2, 25748, Note_on_c, 0, 60, 74
2, 25762, Note_on_c, 0, 64, 88
2, 25827, Note_on_c, 0, 64, 0
2, 25873, Note_on_c, 0, 65, 84
2, 25953, Note_on_c, 0, 65, 0
2, 25984, Note_on_c, 0, 67, 82
2, 26013, Note_on_c, 0, 67, 0
2, 26237, Note_on_c, 0, 72, 84
2, 26281, Note_on_c, 0, 72, 0
2, 26476, Note_on_c, 0, 67, 79
2, 26528, Note_on_c, 0, 67, 0
2, 26539, Note_on_c, 0, 60, 0
2, 26588, Note_on_c, 0, 57, 68
2, 26662, Note_on_c, 0, 57, 0
2, 26698, Note_on_c, 0, 64, 82
2, 26708, Note_on_c, 0, 55, 70
2, 26742, Note_on_c, 0, 64, 0
2, 26775, Note_on_c, 0, 55, 0
2, 26807, Note_on_c, 0, 53, 73
2, 26861, Note_on_c, 0, 53, 0
2, 26914, Note_on_c, 0, 52, 77
2, 26928, Note_on_c, 0, 60, 78
2, 26997, Note_on_c, 0, 52, 0
2, 27003, Note_on_c, 0, 60, 0
2, 27031, Note_on_c, 0, 50, 74
2, 27134, Note_on_c, 0, 50, 0
2, 27156, Note_on_c, 0, 48, 63
2, 27160, Note_on_c, 0, 64, 82
2, 27229, Note_on_c, 0, 64, 0
2, 27275, Note_on_c, 0, 50, 67
2, 27383, Note_on_c, 0, 67, 85
2, 27387, Note_on_c, 0, 52, 68
2, 27419, Note_on_c, 0, 50, 0
2, 27449, Note_on_c, 0, 67, 0
2, 27498, Note_on_c, 0, 53, 63
2, 27515, Note_on_c, 0, 52, 0
2, 27569, Note_on_c, 0, 53, 0
2, 27595, Note_on_c, 0, 55, 70
2, 27601, Note_on_c, 0, 72, 90
2, 27666, Note_on_c, 0, 72, 0
2, 27714, Note_on_c, 0, 52, 67
2, 27715, Note_on_c, 0, 55, 0
2, 27843, Note_on_c, 0, 65, 86
2, 27852, Note_on_c, 0, 57, 65
2, 27929, Note_on_c, 0, 52, 0
2, 27942, Note_on_c, 0, 67, 87
2, 27957, Note_on_c, 0, 65, 0
2, 28017, Note_on_c, 0, 67, 0
2, 28058, Note_on_c, 0, 69, 97
2, 28092, Note_on_c, 0, 69, 0
2, 28309, Note_on_c, 0, 72, 88
2, 28380, Note_on_c, 0, 72, 0
2, 28447, Note_on_c, 0, 48, 0
2, 28532, Note_on_c, 0, 69, 85
2, 28582, Note_on_c, 0, 69, 0
2, 28639, Note_on_c, 0, 57, 0
2, 28652, Note_on_c, 0, 48, 66
2, 28758, Note_on_c, 0, 50, 69
2, 28761, Note_on_c, 0, 65, 75
2, 28812, Note_on_c, 0, 65, 0
2, 28873, Note_on_c, 0, 52, 70
2, 28884, Note_on_c, 0, 50, 0
2, 28972, Note_on_c, 0, 53, 77
2, 28977, Note_on_c, 0, 60, 77
2, 28982, Note_on_c, 0, 52, 0
2, 29040, Note_on_c, 0, 53, 0
2, 29046, Note_on_c, 0, 60, 0
2, 29087, Note_on_c, 0, 55, 75
2, 29199, Note_on_c, 0, 65, 84
2, 29200, Note_on_c, 0, 55, 0
2, 29204, Note_on_c, 0, 57, 69
2, 29256, Note_on_c, 0, 57, 0
2, 29257, Note_on_c, 0, 65, 0
2, 29330, Note_on_c, 0, 55, 67
2, 29384, Note_on_c, 0, 55, 0
2, 29431, Note_on_c, 0, 53, 69
2, 29432, Note_on_c, 0, 69, 83
2, 29450, Note_on_c, 0, 48, 0
2, 29489, Note_on_c, 0, 53, 0
2, 29512, Note_on_c, 0, 69, 0
2, 29537, Note_on_c, 0, 52, 75
2, 29652, Note_on_c, 0, 50, 70
2, 29658, Note_on_c, 0, 72, 87
2, 29681, Note_on_c, 0, 52, 0
2, 29709, Note_on_c, 0, 72, 0
2, 29738, Note_on_c, 0, 50, 0
2, 29747, Note_on_c, 0, 48, 67
2, 29877, Note_on_c, 0, 50, 73
2, 29907, Note_on_c, 0, 71, 95
2, 29974, Note_on_c, 0, 71, 0
2, 30012, Note_on_c, 0, 72, 91
2, 30083, Note_on_c, 0, 72, 0
2, 30128, Note_on_c, 0, 74, 95
2, 30176, Note_on_c, 0, 74, 0
2, 30373, Note_on_c, 0, 77, 90
2, 30438, Note_on_c, 0, 77, 0
2, 30570, Note_on_c, 0, 48, 0
2, 30584, Note_on_c, 0, 50, 0
2, 30586, Note_on_c, 0, 47, 67
2, 30603, Note_on_c, 0, 74, 82
2, 30663, Note_on_c, 0, 74, 0
2, 30701, Note_on_c, 0, 52, 73
2, 30778, Note_on_c, 0, 52, 0
2, 30823, Note_on_c, 0, 50, 73
2, 30830, Note_on_c, 0, 71, 84
2, 30853, Note_on_c, 0, 47, 0
2, 30877, Note_on_c, 0, 71, 0
2, 30925, Note_on_c, 0, 50, 0
2, 30935, Note_on_c, 0, 48, 71
2, 31046, Note_on_c, 0, 47, 74
2, 31049, Note_on_c, 0, 48, 0
2, 31066, Note_on_c, 0, 67, 76
2, 31143, Note_on_c, 0, 67, 0
2, 31168, Note_on_c, 0, 47, 0
2, 31174, Note_on_c, 0, 45, 67
2, 31278, Note_on_c, 0, 45, 0
2, 31288, Note_on_c, 0, 43, 71
2, 31288, Note_on_c, 0, 71, 85
2, 31349, Note_on_c, 0, 71, 0
2, 31420, Note_on_c, 0, 45, 73
2, 31422, Note_on_c, 0, 43, 0
2, 31512, Note_on_c, 0, 74, 80
2, 31513, Note_on_c, 0, 45, 0
2, 31540, Note_on_c, 0, 43, 68
2, 31573, Note_on_c, 0, 74, 0
2, 31607, Note_on_c, 0, 43, 0
2, 31655, Note_on_c, 0, 41, 70
2, 31745, Note_on_c, 0, 77, 85
2, 31750, Note_on_c, 0, 41, 0
2, 31763, Note_on_c, 0, 40, 72
2, 31803, Note_on_c, 0, 77, 0
2, 31863, Note_on_c, 0, 38, 76
2, 31866, Note_on_c, 0, 40, 0
2, 31963, Note_on_c, 0, 38, 0
2, 32002, Note_on_c, 0, 36, 49
2, 32014, Note_on_c, 0, 76, 88
2, 32131, Note_on_c, 0, 74, 77
2, 32209, Note_on_c, 0, 36, 0
2, 32240, Note_on_c, 0, 72, 80
2, 32316, Note_on_c, 0, 74, 0
2, 32344, Note_on_c, 0, 71, 82
2, 32353, Note_on_c, 0, 72, 0
2, 32464, Note_on_c, 0, 72, 83
2, 32476, Note_on_c, 0, 71, 0
2, 32575, Note_on_c, 0, 67, 71
2, 32701, Note_on_c, 0, 64, 64
2, 32803, Note_on_c, 0, 64, 0
2, 32814, Note_on_c, 0, 62, 64
2, 32917, Note_on_c, 0, 60, 67
2, 32917, Note_on_c, 0, 62, 0
2, 33033, Note_on_c, 0, 59, 68
2, 33034, Note_on_c, 0, 60, 0
2, 33088, Note_on_c, 0, 59, 0
2, 33143, Note_on_c, 0, 60, 67
2, 33243, Note_on_c, 0, 55, 68
2, 33245, Note_on_c, 0, 60, 0
2, 33339, Note_on_c, 0, 55, 0
2, 33362, Note_on_c, 0, 52, 65
2, 33452, Note_on_c, 0, 52, 0
2, 33473, Note_on_c, 0, 55, 67
2, 33543, Note_on_c, 0, 55, 0
2, 33575, Note_on_c, 0, 53, 66
2, 33638, Note_on_c, 0, 53, 0
2, 33686, Note_on_c, 0, 52, 67
2, 33793, Note_on_c, 0, 50, 70
2, 33795, Note_on_c, 0, 52, 0
2, 33855, Note_on_c, 0, 67, 0
2, 33897, Note_on_c, 0, 50, 0
2, 33913, Note_on_c, 0, 48, 51
2, 34012, Note_on_c, 0, 48, 0
2, 34012, Note_on_c, 0, 48, 4
2, 34043, Note_on_c, 0, 54, 55
2, 34043, Note_on_c, 0, 75, 85
2, 34045, Note_on_c, 0, 48, 0
2, 34083, Note_on_c, 0, 72, 0
2, 34085, Note_on_c, 0, 76, 0
2, 34091, Note_on_c, 0, 54, 0
2, 34159, Note_on_c, 0, 69, 60
2, 34264, Note_on_c, 0, 69, 0
2, 34275, Note_on_c, 0, 70, 62
2, 34281, Note_on_c, 0, 54, 51
2, 34346, Note_on_c, 0, 54, 0
2, 34372, Note_on_c, 0, 70, 0
2, 34389, Note_on_c, 0, 72, 58
2, 34503, Note_on_c, 0, 70, 64
2, 34522, Note_on_c, 0, 54, 53
2, 34579, Note_on_c, 0, 54, 0
2, 34617, Note_on_c, 0, 69, 61
2, 34634, Note_on_c, 0, 70, 0
2, 34650, Note_on_c, 0, 75, 0
2, 34718, Note_on_c, 0, 69, 0
2, 34732, Note_on_c, 0, 54, 60
2, 34732, Note_on_c, 0, 74, 78
2, 34782, Note_on_c, 0, 72, 0
2, 34788, Note_on_c, 0, 54, 0
2, 34856, Note_on_c, 0, 69, 66
2, 34969, Note_on_c, 0, 70, 62
2, 34974, Note_on_c, 0, 54, 56
2, 34974, Note_on_c, 0, 69, 0
2, 35026, Note_on_c, 0, 54, 0
2, 35067, Note_on_c, 0, 70, 0
2, 35078, Note_on_c, 0, 72, 69
2, 35205, Note_on_c, 0, 54, 54
2, 35209, Note_on_c, 0, 70, 74
2, 35248, Note_on_c, 0, 72, 0
2, 35251, Note_on_c, 0, 54, 0
2, 35263, Note_on_c, 0, 74, 0
2, 35290, Note_on_c, 0, 70, 0
2, 35317, Note_on_c, 0, 69, 69
2, 35408, Note_on_c, 0, 69, 0
2, 35441, Note_on_c, 0, 54, 49
2, 35448, Note_on_c, 0, 81, 74
2, 35498, Note_on_c, 0, 54, 0
2, 35535, Note_on_c, 0, 81, 0
2, 35570, Note_on_c, 0, 69, 67
2, 35651, Note_on_c, 0, 69, 0
2, 35689, Note_on_c, 0, 54, 43
2, 35691, Note_on_c, 0, 70, 65
2, 35726, Note_on_c, 0, 54, 0
2, 35758, Note_on_c, 0, 70, 0
2, 35795, Note_on_c, 0, 72, 70
2, 35884, Note_on_c, 0, 72, 0
2, 35896, Note_on_c, 0, 70, 76
2, 35904, Note_on_c, 0, 54, 52
2, 35954, Note_on_c, 0, 70, 0
2, 35957, Note_on_c, 0, 54, 0
2, 36008, Note_on_c, 0, 69, 74
2, 36110, Note_on_c, 0, 69, 0
2, 36134, Note_on_c, 0, 55, 50
2, 36144, Note_on_c, 0, 70, 81
2, 36254, Note_on_c, 0, 69, 72
2, 36355, Note_on_c, 0, 67, 70
2, 36396, Note_on_c, 0, 69, 0
2, 36463, Note_on_c, 0, 66, 75
2, 36469, Note_on_c, 0, 67, 0
2, 36482, Note_on_c, 0, 55, 0
2, 36545, Note_on_c, 0, 66, 0
2, 36584, Note_on_c, 0, 67, 65
2, 36691, Note_on_c, 0, 62, 57
2, 36807, Note_on_c, 0, 58, 60
2, 36873, Note_on_c, 0, 58, 0
2, 36929, Note_on_c, 0, 57, 59
2, 37027, Note_on_c, 0, 57, 0
2, 37045, Note_on_c, 0, 55, 59
2, 37128, Note_on_c, 0, 55, 0
2, 37142, Note_on_c, 0, 54, 67
2, 37197, Note_on_c, 0, 54, 0
2, 37265, Note_on_c, 0, 55, 61
2, 37346, Note_on_c, 0, 55, 0
2, 37390, Note_on_c, 0, 50, 55
2, 37487, Note_on_c, 0, 50, 0
2, 37490, Note_on_c, 0, 46, 61
2, 37544, Note_on_c, 0, 46, 0
2, 37625, Note_on_c, 0, 50, 46
2, 37686, Note_on_c, 0, 50, 0
2, 37724, Note_on_c, 0, 48, 51
2, 37828, Note_on_c, 0, 46, 57
2, 37834, Note_on_c, 0, 48, 0
2, 37887, Note_on_c, 0, 70, 0
2, 37924, Note_on_c, 0, 46, 0
2, 37937, Note_on_c, 0, 45, 57
2, 37955, Note_on_c, 0, 62, 0
2, 38015, Note_on_c, 0, 45, 0
2, 38053, Note_on_c, 0, 43, 52
2, 38168, Note_on_c, 0, 70, 76
2, 38181, Note_on_c, 0, 43, 0
2, 38191, Note_on_c, 0, 49, 56
2, 38198, Note_on_c, 0, 67, 0
2, 38242, Note_on_c, 0, 49, 0
2, 38278, Note_on_c, 0, 64, 56
2, 38373, Note_on_c, 0, 64, 0
2, 38397, Note_on_c, 0, 65, 49
2, 38408, Note_on_c, 0, 49, 49
2, 38475, Note_on_c, 0, 49, 0
2, 38493, Note_on_c, 0, 65, 0
2, 38522, Note_on_c, 0, 67, 50
2, 38625, Note_on_c, 0, 49, 59
2, 38633, Note_on_c, 0, 65, 60
2, 38679, Note_on_c, 0, 49, 0
2, 38746, Note_on_c, 0, 64, 57
2, 38749, Note_on_c, 0, 70, 0
2, 38806, Note_on_c, 0, 64, 0
2, 38849, Note_on_c, 0, 69, 75
2, 38864, Note_on_c, 0, 49, 51
2, 38893, Note_on_c, 0, 67, 0
2, 38902, Note_on_c, 0, 65, 0
2, 38911, Note_on_c, 0, 49, 0
2, 38966, Note_on_c, 0, 64, 51
2, 39025, Note_on_c, 0, 64, 0
2, 39071, Note_on_c, 0, 65, 47
2, 39092, Note_on_c, 0, 49, 47
2, 39141, Note_on_c, 0, 49, 0
2, 39147, Note_on_c, 0, 65, 0
2, 39190, Note_on_c, 0, 67, 57
2, 39294, Note_on_c, 0, 65, 61
2, 39308, Note_on_c, 0, 49, 50
2, 39343, Note_on_c, 0, 67, 0
2, 39363, Note_on_c, 0, 49, 0
2, 39384, Note_on_c, 0, 65, 0
2, 39385, Note_on_c, 0, 69, 0
2, 39416, Note_on_c, 0, 64, 59
2, 39488, Note_on_c, 0, 64, 0
2, 39533, Note_on_c, 0, 76, 65
2, 39539, Note_on_c, 0, 49, 51
2, 39598, Note_on_c, 0, 49, 0
2, 39625, Note_on_c, 0, 76, 0
2, 39646, Note_on_c, 0, 64, 60
2, 39708, Note_on_c, 0, 64, 0
2, 39766, Note_on_c, 0, 65, 59
2, 39787, Note_on_c, 0, 49, 48
2, 39822, Note_on_c, 0, 65, 0
2, 39827, Note_on_c, 0, 49, 0
2, 39881, Note_on_c, 0, 67, 58
2, 39930, Note_on_c, 0, 67, 0
2, 39985, Note_on_c, 0, 65, 56
2, 39987, Note_on_c, 0, 49, 53
2, 40034, Note_on_c, 0, 49, 0
2, 40052, Note_on_c, 0, 65, 0
2, 40101, Note_on_c, 0, 64, 57
2, 40184, Note_on_c, 0, 64, 0
2, 40215, Note_on_c, 0, 50, 69
2, 40220, Note_on_c, 0, 65, 51
2, 40269, Note_on_c, 0, 50, 0
2, 40330, Note_on_c, 0, 52, 60
2, 40395, Note_on_c, 0, 52, 0
2, 40424, Note_on_c, 0, 53, 63
2, 40460, Note_on_c, 0, 53, 0
2, 40678, Note_on_c, 0, 57, 62
2, 40714, Note_on_c, 0, 57, 0
2, 40915, Note_on_c, 0, 53, 57
2, 40965, Note_on_c, 0, 53, 0
2, 40971, Note_on_c, 0, 65, 0
2, 40995, Note_on_c, 0, 64, 55
2, 41107, Note_on_c, 0, 64, 0
2, 41124, Note_on_c, 0, 65, 59
2, 41138, Note_on_c, 0, 50, 55
2, 41179, Note_on_c, 0, 50, 0
2, 41188, Note_on_c, 0, 65, 0
2, 41230, Note_on_c, 0, 69, 63
2, 41327, Note_on_c, 0, 69, 0
2, 41336, Note_on_c, 0, 45, 62
2, 41339, Note_on_c, 0, 74, 63
2, 41391, Note_on_c, 0, 45, 0
2, 41400, Note_on_c, 0, 74, 0
2, 41454, Note_on_c, 0, 69, 74
2, 41546, Note_on_c, 0, 69, 0
2, 41570, Note_on_c, 0, 50, 63
2, 41578, Note_on_c, 0, 77, 72
2, 41619, Note_on_c, 0, 50, 0
2, 41674, Note_on_c, 0, 77, 0
2, 41693, Note_on_c, 0, 76, 66
2, 41770, Note_on_c, 0, 76, 0
2, 41798, Note_on_c, 0, 53, 57
2, 41799, Note_on_c, 0, 74, 71
2, 41846, Note_on_c, 0, 53, 0
2, 41899, Note_on_c, 0, 74, 0
2, 41905, Note_on_c, 0, 72, 75
2, 41974, Note_on_c, 0, 72, 0
2, 42011, Note_on_c, 0, 57, 58
2, 42022, Note_on_c, 0, 71, 72
2, 42077, Note_on_c, 0, 57, 0
2, 42123, Note_on_c, 0, 69, 75
2, 42130, Note_on_c, 0, 71, 0
2, 42157, Note_on_c, 0, 69, 0
2, 42238, Note_on_c, 0, 50, 66
2, 42267, Note_on_c, 0, 80, 77
2, 42344, Note_on_c, 0, 50, 0
2, 42360, Note_on_c, 0, 52, 68
2, 42411, Note_on_c, 0, 52, 0
2, 42458, Note_on_c, 0, 53, 74
2, 42499, Note_on_c, 0, 53, 0
2, 42721, Note_on_c, 0, 56, 68
2, 42776, Note_on_c, 0, 56, 0
2, 42944, Note_on_c, 0, 53, 62
2, 43006, Note_on_c, 0, 53, 0
2, 43040, Note_on_c, 0, 80, 0
2, 43063, Note_on_c, 0, 81, 64
2, 43167, Note_on_c, 0, 50, 59
2, 43173, Note_on_c, 0, 83, 75
2, 43178, Note_on_c, 0, 81, 0
2, 43216, Note_on_c, 0, 50, 0
2, 43302, Note_on_c, 0, 81, 69
2, 43319, Note_on_c, 0, 83, 0
2, 43386, Note_on_c, 0, 47, 63
2, 43403, Note_on_c, 0, 80, 74
2, 43450, Note_on_c, 0, 47, 0
2, 43463, Note_on_c, 0, 81, 0
2, 43512, Note_on_c, 0, 78, 74
2, 43559, Note_on_c, 0, 80, 0
2, 43595, Note_on_c, 0, 78, 0
2, 43622, Note_on_c, 0, 76, 79
2, 43624, Note_on_c, 0, 50, 65
2, 43677, Note_on_c, 0, 50, 0
2, 43731, Note_on_c, 0, 77, 75
2, 43747, Note_on_c, 0, 76, 0
2, 43838, Note_on_c, 0, 53, 63
2, 43850, Note_on_c, 0, 76, 78
2, 43903, Note_on_c, 0, 77, 0
2, 43916, Note_on_c, 0, 53, 0
2, 43950, Note_on_c, 0, 74, 78
2, 43962, Note_on_c, 0, 76, 0
2, 44023, Note_on_c, 0, 74, 0
2, 44046, Note_on_c, 0, 56, 66
2, 44054, Note_on_c, 0, 72, 88
2, 44116, Note_on_c, 0, 56, 0
2, 44118, Note_on_c, 0, 72, 0
2, 44163, Note_on_c, 0, 71, 83
2, 44253, Note_on_c, 0, 71, 0
2, 44276, Note_on_c, 0, 48, 63
2, 44287, Note_on_c, 0, 69, 90
2, 44390, Note_on_c, 0, 71, 83
2, 44403, Note_on_c, 0, 69, 0
2, 44464, Note_on_c, 0, 71, 0
2, 44509, Note_on_c, 0, 72, 88
2, 44552, Note_on_c, 0, 72, 0
2, 44758, Note_on_c, 0, 76, 77
2, 44816, Note_on_c, 0, 76, 0
2, 44975, Note_on_c, 0, 57, 53
2, 44983, Note_on_c, 0, 72, 75
2, 45030, Note_on_c, 0, 72, 0
2, 45053, Note_on_c, 0, 57, 0
2, 45092, Note_on_c, 0, 56, 64
2, 45148, Note_on_c, 0, 56, 0
2, 45207, Note_on_c, 0, 57, 65
2, 45208, Note_on_c, 0, 69, 76
2, 45255, Note_on_c, 0, 69, 0
2, 45265, Note_on_c, 0, 57, 0
2, 45309, Note_on_c, 0, 56, 72
2, 45354, Note_on_c, 0, 56, 0
2, 45412, Note_on_c, 0, 57, 72
2, 45438, Note_on_c, 0, 64, 75
2, 45482, Note_on_c, 0, 57, 0
2, 45517, Note_on_c, 0, 56, 78
2, 45545, Note_on_c, 0, 64, 0
2, 45594, Note_on_c, 0, 56, 0
2, 45646, Note_on_c, 0, 57, 75
2, 45658, Note_on_c, 0, 76, 80
2, 45682, Note_on_c, 0, 57, 0
2, 45688, Note_on_c, 0, 48, 0
2, 45780, Note_on_c, 0, 74, 78
2, 45801, Note_on_c, 0, 76, 0
2, 45887, Note_on_c, 0, 72, 82
2, 45894, Note_on_c, 0, 52, 56
2, 45929, Note_on_c, 0, 74, 0
2, 45935, Note_on_c, 0, 52, 0
2, 45992, Note_on_c, 0, 71, 81
2, 46016, Note_on_c, 0, 72, 0
2, 46060, Note_on_c, 0, 71, 0
2, 46103, Note_on_c, 0, 69, 87
2, 46137, Note_on_c, 0, 48, 32
2, 46198, Note_on_c, 0, 48, 0
2, 46223, Note_on_c, 0, 68, 82
2, 46225, Note_on_c, 0, 69, 0
2, 46312, Note_on_c, 0, 68, 0
2, 46346, Note_on_c, 0, 69, 93
2, 46363, Note_on_c, 0, 41, 62
2, 46452, Note_on_c, 0, 69, 0
2, 46458, Note_on_c, 0, 71, 83
2, 46542, Note_on_c, 0, 71, 0
2, 46557, Note_on_c, 0, 72, 86
2, 46584, Note_on_c, 0, 72, 0
2, 46798, Note_on_c, 0, 81, 86
2, 46858, Note_on_c, 0, 81, 0
2, 46895, Note_on_c, 0, 41, 0
2, 47030, Note_on_c, 0, 76, 78
2, 47043, Note_on_c, 0, 57, 67
2, 47076, Note_on_c, 0, 76, 0
2, 47087, Note_on_c, 0, 57, 0
2, 47143, Note_on_c, 0, 56, 71
2, 47188, Note_on_c, 0, 56, 0
2, 47256, Note_on_c, 0, 72, 78
2, 47263, Note_on_c, 0, 57, 65
2, 47298, Note_on_c, 0, 72, 0
2, 47315, Note_on_c, 0, 57, 0
2, 47365, Note_on_c, 0, 56, 73
2, 47410, Note_on_c, 0, 56, 0
2, 47472, Note_on_c, 0, 69, 78
2, 47487, Note_on_c, 0, 57, 69
2, 47541, Note_on_c, 0, 57, 0
2, 47570, Note_on_c, 0, 69, 0
2, 47609, Note_on_c, 0, 56, 74
2, 47653, Note_on_c, 0, 56, 0
2, 47699, Note_on_c, 0, 81, 78
2, 47712, Note_on_c, 0, 57, 76
2, 47747, Note_on_c, 0, 57, 0
2, 47830, Note_on_c, 0, 79, 69
2, 47854, Note_on_c, 0, 81, 0
2, 47946, Note_on_c, 0, 77, 68
2, 47957, Note_on_c, 0, 59, 56
2, 47958, Note_on_c, 0, 79, 0
2, 48002, Note_on_c, 0, 59, 0
2, 48050, Note_on_c, 0, 76, 69
2, 48072, Note_on_c, 0, 77, 0
2, 48143, Note_on_c, 0, 76, 0
2, 48165, Note_on_c, 0, 60, 62
2, 48171, Note_on_c, 0, 74, 74
2, 48225, Note_on_c, 0, 60, 0
2, 48271, Note_on_c, 0, 72, 71
2, 48304, Note_on_c, 0, 74, 0
2, 48393, Note_on_c, 0, 77, 72
2, 48395, Note_on_c, 0, 50, 64
2, 48407, Note_on_c, 0, 72, 0
2, 48452, Note_on_c, 0, 50, 0
2, 48500, Note_on_c, 0, 76, 69
2, 48506, Note_on_c, 0, 77, 0
2, 48621, Note_on_c, 0, 74, 71
2, 48622, Note_on_c, 0, 52, 63
2, 48677, Note_on_c, 0, 52, 0
2, 48694, Note_on_c, 0, 76, 0
2, 48734, Note_on_c, 0, 72, 78
2, 48771, Note_on_c, 0, 74, 0
2, 48818, Note_on_c, 0, 72, 0
2, 48835, Note_on_c, 0, 53, 65
2, 48862, Note_on_c, 0, 71, 73
2, 48929, Note_on_c, 0, 53, 0
2, 48965, Note_on_c, 0, 69, 78
2, 48981, Note_on_c, 0, 71, 0
2, 49079, Note_on_c, 0, 47, 66
2, 49091, Note_on_c, 0, 74, 73
2, 49106, Note_on_c, 0, 69, 0
2, 49182, Note_on_c, 0, 47, 0
2, 49207, Note_on_c, 0, 72, 77
2, 49245, Note_on_c, 0, 74, 0
2, 49325, Note_on_c, 0, 48, 70
2, 49325, Note_on_c, 0, 71, 75
2, 49364, Note_on_c, 0, 72, 0
2, 49385, Note_on_c, 0, 48, 0
2, 49397, Note_on_c, 0, 71, 0
2, 49423, Note_on_c, 0, 69, 80
2, 49545, Note_on_c, 0, 68, 76
2, 49546, Note_on_c, 0, 50, 65
2, 49588, Note_on_c, 0, 69, 0
2, 49611, Note_on_c, 0, 50, 0
2, 49647, Note_on_c, 0, 66, 78
2, 49721, Note_on_c, 0, 68, 0
2, 49765, Note_on_c, 0, 71, 80
2, 49772, Note_on_c, 0, 44, 67
2, 49784, Note_on_c, 0, 66, 0
2, 49818, Note_on_c, 0, 44, 0
2, 49884, Note_on_c, 0, 69, 76
2, 49906, Note_on_c, 0, 71, 0
2, 49989, Note_on_c, 0, 45, 76
2, 49992, Note_on_c, 0, 68, 80
2, 50032, Note_on_c, 0, 45, 0
2, 50042, Note_on_c, 0, 69, 0
2, 50101, Note_on_c, 0, 66, 78
2, 50147, Note_on_c, 0, 68, 0
2, 50193, Note_on_c, 0, 66, 0
2, 50202, Note_on_c, 0, 47, 74
2, 50218, Note_on_c, 0, 64, 85
2, 50298, Note_on_c, 0, 47, 0
2, 50315, Note_on_c, 0, 62, 79
2, 50318, Note_on_c, 0, 64, 0
2, 50412, Note_on_c, 0, 62, 0
2, 50429, Note_on_c, 0, 36, 83
2, 50432, Note_on_c, 0, 64, 89
2, 50557, Note_on_c, 0, 69, 81
2, 50568, Note_on_c, 0, 64, 0
2, 50666, Note_on_c, 0, 67, 72
2, 50677, Note_on_c, 0, 69, 0
2, 50771, Note_on_c, 0, 65, 76
2, 50809, Note_on_c, 0, 67, 0
2, 50879, Note_on_c, 0, 64, 79
2, 50897, Note_on_c, 0, 65, 0
2, 50948, Note_on_c, 0, 64, 0
2, 50983, Note_on_c, 0, 62, 81
2, 51086, Note_on_c, 0, 60, 82
2, 51130, Note_on_c, 0, 62, 0
2, 51208, Note_on_c, 0, 65, 69
2, 51245, Note_on_c, 0, 60, 0
2, 51257, Note_on_c, 0, 36, 0
2, 51272, Note_on_c, 0, 48, 84
2, 51312, Note_on_c, 0, 64, 71
2, 51317, Note_on_c, 0, 48, 0
2, 51322, Note_on_c, 0, 65, 0
2, 51424, Note_on_c, 0, 62, 68
2, 51485, Note_on_c, 0, 64, 0
2, 51506, Note_on_c, 0, 50, 81
2, 51528, Note_on_c, 0, 60, 77
2, 51543, Note_on_c, 0, 50, 0
2, 51552, Note_on_c, 0, 62, 0
2, 51609, Note_on_c, 0, 60, 0
2, 51644, Note_on_c, 0, 59, 72
2, 51736, Note_on_c, 0, 52, 85
2, 51747, Note_on_c, 0, 57, 73
2, 51776, Note_on_c, 0, 52, 0
2, 51781, Note_on_c, 0, 59, 0
2, 51845, Note_on_c, 0, 57, 0
2, 51851, Note_on_c, 0, 62, 64
2, 51931, Note_on_c, 0, 62, 0
2, 51965, Note_on_c, 0, 50, 77
2, 51969, Note_on_c, 0, 60, 65
2, 52011, Note_on_c, 0, 50, 0
2, 52052, Note_on_c, 0, 60, 0
2, 52083, Note_on_c, 0, 59, 66
2, 52146, Note_on_c, 0, 59, 0
2, 52199, Note_on_c, 0, 57, 70
2, 52200, Note_on_c, 0, 52, 75
2, 52255, Note_on_c, 0, 52, 0
2, 52274, Note_on_c, 0, 57, 0
2, 52307, Note_on_c, 0, 56, 72
2, 52391, Note_on_c, 0, 56, 0
2, 52436, Note_on_c, 0, 57, 71
2, 52437, Note_on_c, 0, 45, 79
2, 52510, Note_on_c, 0, 57, 0
2, 52543, Note_on_c, 0, 59, 74
2, 52616, Note_on_c, 0, 59, 0
2, 52660, Note_on_c, 0, 61, 75
2, 52729, Note_on_c, 0, 61, 0
2, 52765, Note_on_c, 0, 62, 74
2, 52856, Note_on_c, 0, 62, 0
2, 52871, Note_on_c, 0, 64, 77
2, 52946, Note_on_c, 0, 64, 0
2, 52970, Note_on_c, 0, 65, 78
2, 53040, Note_on_c, 0, 65, 0
2, 53088, Note_on_c, 0, 67, 85
2, 53156, Note_on_c, 0, 67, 0
2, 53190, Note_on_c, 0, 47, 71
2, 53303, Note_on_c, 0, 49, 78
2, 53313, Note_on_c, 0, 64, 84
2, 53322, Note_on_c, 0, 47, 0
2, 53405, Note_on_c, 0, 64, 0
2, 53415, Note_on_c, 0, 50, 76
2, 53442, Note_on_c, 0, 49, 0
2, 53490, Note_on_c, 0, 50, 0
2, 53526, Note_on_c, 0, 61, 83
2, 53528, Note_on_c, 0, 52, 73
2, 53636, Note_on_c, 0, 53, 78
2, 53639, Note_on_c, 0, 52, 0
2, 53641, Note_on_c, 0, 61, 0
2, 53694, Note_on_c, 0, 53, 0
2, 53745, Note_on_c, 0, 70, 91
2, 53769, Note_on_c, 0, 55, 66
2, 53873, Note_on_c, 0, 70, 0
2, 53877, Note_on_c, 0, 61, 60
2, 53921, Note_on_c, 0, 55, 0
2, 53978, Note_on_c, 0, 69, 85
2, 53981, Note_on_c, 0, 61, 0
2, 53987, Note_on_c, 0, 53, 68
2, 54102, Note_on_c, 0, 61, 70
2, 54104, Note_on_c, 0, 53, 0
2, 54116, Note_on_c, 0, 69, 0
2, 54184, Note_on_c, 0, 52, 70
2, 54197, Note_on_c, 0, 61, 0
2, 54207, Note_on_c, 0, 67, 74
2, 54312, Note_on_c, 0, 61, 81
2, 54340, Note_on_c, 0, 67, 0
2, 54380, Note_on_c, 0, 61, 0
2, 54430, Note_on_c, 0, 50, 75
2, 54447, Note_on_c, 0, 65, 73
2, 54463, Note_on_c, 0, 52, 0
2, 54503, Note_on_c, 0, 65, 0
2, 54565, Note_on_c, 0, 69, 71
2, 54664, Note_on_c, 0, 71, 76
2, 54667, Note_on_c, 0, 69, 0
2, 54738, Note_on_c, 0, 71, 0
2, 54772, Note_on_c, 0, 73, 82
2, 54849, Note_on_c, 0, 73, 0
2, 54889, Note_on_c, 0, 74, 88
2, 54966, Note_on_c, 0, 74, 0
2, 54990, Note_on_c, 0, 76, 85
2, 55102, Note_on_c, 0, 76, 0
2, 55113, Note_on_c, 0, 77, 95
2, 55134, Note_on_c, 0, 50, 0
2, 55140, Note_on_c, 0, 45, 0
2, 55185, Note_on_c, 0, 57, 66
2, 55198, Note_on_c, 0, 77, 0
2, 55252, Note_on_c, 0, 57, 0
2, 55302, Note_on_c, 0, 59, 68
2, 55322, Note_on_c, 0, 57, 45
2, 55339, Note_on_c, 0, 74, 85
2, 55436, Note_on_c, 0, 61, 67
2, 55486, Note_on_c, 0, 74, 0
2, 55563, Note_on_c, 0, 62, 71
2, 55580, Note_on_c, 0, 71, 86
2, 55587, Note_on_c, 0, 59, 0
2, 55613, Note_on_c, 0, 61, 0
2, 55704, Note_on_c, 0, 62, 0
2, 55725, Note_on_c, 0, 64, 67
2, 55833, Note_on_c, 0, 81, 93
2, 55861, Note_on_c, 0, 65, 69
2, 55863, Note_on_c, 0, 64, 0
2, 55964, Note_on_c, 0, 80, 84
2, 55984, Note_on_c, 0, 81, 0
2, 56091, Note_on_c, 0, 65, 0
2, 56111, Note_on_c, 0, 64, 70
2, 56119, Note_on_c, 0, 81, 91
2, 56148, Note_on_c, 0, 80, 0
2, 56268, Note_on_c, 0, 80, 89
2, 56298, Note_on_c, 0, 81, 0
2, 56411, Note_on_c, 0, 62, 66
2, 56437, Note_on_c, 0, 81, 90
2, 56459, Note_on_c, 0, 64, 0
2, 56470, Note_on_c, 0, 80, 0
2, 56511, Note_on_c, 0, 71, 0
2, 56599, Note_on_c, 0, 80, 87
2, 56627, Note_on_c, 0, 81, 0
2, 56850, Note_on_c, 0, 81, 98
2, 56851, Note_on_c, 0, 64, 74
2, 56855, Note_on_c, 0, 76, 68
2, 56861, Note_on_c, 0, 73, 73
2, 56885, Note_on_c, 0, 80, 0
2, 56892, Note_on_c, 0, 62, 0
2, 59081, Note_on_c, 0, 81, 0
2, 59098, Note_on_c, 0, 64, 0
2, 59106, Note_on_c, 0, 76, 0
2, 59121, Note_on_c, 0, 57, 0
2, 59121, Note_on_c, 0, 73, 0
2, 60691,End_track
0, 0, End_of_file
