0, 0, Header, 1, 2, 384
1, 0, Start_track
1, 0, Tempo, 500000
1, 0, Time_signature, 4, 2, 24, 8
1, 1, End_track
2, 0, Start_track
2, 0, Program_c, 0, 0
2, 357, Control_c, 0, 64, 19
2, 372, Control_c, 0, 64, 29
2, 388, Control_c, 0, 64, 35
2, 403, Control_c, 0, 64, 42
2, 418, Control_c, 0, 64, 49
2, 428, Note_on_c, 0, 45, 32
2, 433, Control_c, 0, 64, 54
2, 448, Control_c, 0, 64, 59
2, 464, Control_c, 0, 64, 62
2, 479, Control_c, 0, 64, 64
2, 494, Control_c, 0, 64, 66
2, 509, Control_c, 0, 64, 67
2, 524, Control_c, 0, 64, 68
2, 535, Note_on_c, 0, 72, 58
2, 540, Control_c, 0, 64, 70
2, 555, Control_c, 0, 64, 70
2, 585, Control_c, 0, 64, 70
2, 615, Control_c, 0, 64, 69
2, 630, Control_c, 0, 64, 69
2, 645, Control_c, 0, 64, 68
2, 661, Control_c, 0, 64, 66
2, 664, Note_on_c, 0, 74, 69
2, 676, Control_c, 0, 64, 65
2, 681, Note_on_c, 0, 72, 0
2, 690, Control_c, 0, 64, 64
2, 706, Control_c, 0, 64, 63
2, 721, Control_c, 0, 64, 60
2, 737, Control_c, 0, 64, 53
2, 749, Note_on_c, 0, 74, 0
2, 753, Control_c, 0, 64, 46
2, 761, Note_on_c, 0, 76, 71
2, 768, Control_c, 0, 64, 39
2, 784, Control_c, 0, 64, 35
2, 798, Control_c, 0, 64, 34
2, 814, Control_c, 0, 64, 33
2, 829, Control_c, 0, 64, 32
2, 843, Control_c, 0, 64, 31
2, 859, Control_c, 0, 64, 29
2, 859, Note_on_c, 0, 76, 0
2, 874, Control_c, 0, 64, 28
2, 878, Note_on_c, 0, 77, 75
2, 889, Control_c, 0, 64, 26
2, 892, Note_on_c, 0, 57, 51
2, 905, Control_c, 0, 64, 25
2, 920, Control_c, 0, 64, 24
2, 935, Control_c, 0, 64, 23
2, 935, Note_on_c, 0, 45, 0
2, 950, Control_c, 0, 64, 21
2, 965, Control_c, 0, 64, 19
2, 981, Control_c, 0, 64, 17
2, 996, Control_c, 0, 64, 15
2, 1011, Control_c, 0, 64, 14
2, 1027, Control_c, 0, 64, 10
2, 1042, Control_c, 0, 64, 8
2, 1057, Control_c, 0, 64, 0
2, 1106, Note_on_c, 0, 77, 0
2, 1112, Note_on_c, 0, 72, 76
2, 1323, Note_on_c, 0, 72, 0
2, 1342, Note_on_c, 0, 56, 50
2, 1344, Note_on_c, 0, 71, 70
2, 1348, Note_on_c, 0, 57, 0
2, 1546, Note_on_c, 0, 71, 0
2, 1547, Note_on_c, 0, 75, 74
2, 1752, Note_on_c, 0, 75, 0
2, 1752, Note_on_c, 0, 76, 67
2, 1761, Note_on_c, 0, 56, 0
2, 1767, Note_on_c, 0, 55, 34
2, 1956, Note_on_c, 0, 76, 0
2, 1975, Note_on_c, 0, 70, 72
2, 2173, Note_on_c, 0, 70, 0
2, 2181, Note_on_c, 0, 55, 0
2, 2185, Note_on_c, 0, 69, 70
2, 2194, Note_on_c, 0, 54, 48
2, 2388, Note_on_c, 0, 69, 0
2, 2391, Note_on_c, 0, 73, 75
2, 2580, Note_on_c, 0, 54, 0
2, 2607, Note_on_c, 0, 73, 0
2, 2608, Note_on_c, 0, 53, 43
2, 2609, Note_on_c, 0, 74, 66
2, 2823, Note_on_c, 0, 74, 0
2, 2834, Note_on_c, 0, 68, 71
2, 3032, Note_on_c, 0, 52, 52
2, 3036, Note_on_c, 0, 53, 0
2, 3245, Note_on_c, 0, 69, 69
2, 3278, Note_on_c, 0, 68, 0
2, 3459, Note_on_c, 0, 50, 52
2, 3465, Note_on_c, 0, 52, 0
2, 3649, Note_on_c, 0, 69, 0
2, 3667, Note_on_c, 0, 71, 62
2, 3865, Note_on_c, 0, 71, 0
2, 3869, Note_on_c, 0, 64, 59
2, 3970, Note_on_c, 0, 50, 0
2, 3978, Note_on_c, 0, 48, 63
2, 4083, Note_on_c, 0, 50, 74
2, 4098, Note_on_c, 0, 48, 0
2, 4152, Note_on_c, 0, 64, 0
2, 4186, Note_on_c, 0, 52, 72
2, 4189, Note_on_c, 0, 50, 0
2, 4288, Note_on_c, 0, 69, 69
2, 4297, Note_on_c, 0, 52, 0
2, 4308, Note_on_c, 0, 53, 73
2, 4525, Note_on_c, 0, 48, 70
2, 4566, Note_on_c, 0, 53, 0
2, 4721, Note_on_c, 0, 47, 66
2, 4722, Note_on_c, 0, 48, 0
2, 4737, Note_on_c, 0, 68, 64
2, 4762, Note_on_c, 0, 69, 0
2, 4945, Note_on_c, 0, 47, 0
2, 4947, Note_on_c, 0, 51, 80
2, 5144, Note_on_c, 0, 51, 0
2, 5153, Note_on_c, 0, 52, 70
2, 5164, Note_on_c, 0, 67, 66
2, 5169, Note_on_c, 0, 68, 0
2, 5351, Note_on_c, 0, 46, 69
2, 5358, Note_on_c, 0, 52, 0
2, 5552, Note_on_c, 0, 67, 0
2, 5563, Note_on_c, 0, 45, 61
2, 5573, Note_on_c, 0, 66, 59
2, 5578, Note_on_c, 0, 46, 0
2, 5794, Note_on_c, 0, 49, 67
2, 5796, Note_on_c, 0, 45, 0
2, 5951, Note_on_c, 0, 66, 0
2, 5986, Note_on_c, 0, 49, 0
2, 5998, Note_on_c, 0, 50, 65
2, 6003, Note_on_c, 0, 65, 58
2, 6205, Note_on_c, 0, 44, 67
2, 6207, Note_on_c, 0, 50, 0
2, 6421, Note_on_c, 0, 64, 62
2, 6429, Note_on_c, 0, 65, 0
2, 6645, Note_on_c, 0, 45, 59
2, 6660, Note_on_c, 0, 44, 0
2, 6840, Note_on_c, 0, 64, 0
2, 6858, Note_on_c, 0, 62, 60
2, 7049, Note_on_c, 0, 47, 66
2, 7056, Note_on_c, 0, 45, 0
2, 7282, Note_on_c, 0, 47, 0
2, 7285, Note_on_c, 0, 40, 55
2, 7506, Note_on_c, 0, 62, 0
2, 7520, Note_on_c, 0, 60, 62
2, 7585, Note_on_c, 0, 60, 0
2, 7610, Note_on_c, 0, 59, 66
2, 7716, Note_on_c, 0, 45, 56
2, 7718, Note_on_c, 0, 60, 68
2, 7722, Note_on_c, 0, 59, 0
2, 7761, Note_on_c, 0, 40, 0
2, 7830, Note_on_c, 0, 60, 0
2, 7935, Note_on_c, 0, 69, 74
2, 8145, Note_on_c, 0, 47, 59
2, 8164, Note_on_c, 0, 45, 0
2, 8352, Note_on_c, 0, 69, 0
2, 8353, Note_on_c, 0, 68, 72
2, 8458, Note_on_c, 0, 68, 0
2, 8561, Note_on_c, 0, 76, 71
2, 8577, Note_on_c, 0, 49, 49
2, 8581, Note_on_c, 0, 47, 0
2, 8767, Note_on_c, 0, 76, 0
2, 8789, Note_on_c, 0, 67, 67
2, 8991, Note_on_c, 0, 50, 57
2, 8992, Note_on_c, 0, 49, 0
2, 9145, Note_on_c, 0, 67, 0
2, 9199, Note_on_c, 0, 65, 72
2, 9265, Note_on_c, 0, 65, 0
2, 9291, Note_on_c, 0, 64, 72
2, 9376, Note_on_c, 0, 64, 0
2, 9391, Note_on_c, 0, 63, 71
2, 9409, Note_on_c, 0, 47, 59
2, 9421, Note_on_c, 0, 50, 0
2, 9491, Note_on_c, 0, 63, 0
2, 9620, Note_on_c, 0, 71, 82
2, 9830, Note_on_c, 0, 47, 0
2, 9833, Note_on_c, 0, 49, 60
2, 10048, Note_on_c, 0, 70, 75
2, 10051, Note_on_c, 0, 71, 0
2, 10148, Note_on_c, 0, 70, 0
2, 10257, Note_on_c, 0, 78, 79
2, 10276, Note_on_c, 0, 51, 59
2, 10310, Note_on_c, 0, 49, 0
2, 10478, Note_on_c, 0, 78, 0
2, 10486, Note_on_c, 0, 69, 75
2, 10689, Note_on_c, 0, 52, 60
2, 10732, Note_on_c, 0, 51, 0
2, 10805, Note_on_c, 0, 67, 75
2, 10822, Note_on_c, 0, 69, 0
2, 10912, Note_on_c, 0, 69, 83
2, 10936, Note_on_c, 0, 67, 0
2, 10995, Note_on_c, 0, 69, 0
2, 10998, Note_on_c, 0, 71, 80
2, 11126, Note_on_c, 0, 71, 0
2, 11137, Note_on_c, 0, 72, 74
2, 11146, Note_on_c, 0, 64, 49
2, 11228, Note_on_c, 0, 52, 0
2, 11390, Note_on_c, 0, 72, 0
2, 11391, Note_on_c, 0, 67, 75
2, 11597, Note_on_c, 0, 63, 51
2, 11602, Note_on_c, 0, 66, 76
2, 11604, Note_on_c, 0, 64, 0
2, 11605, Note_on_c, 0, 67, 0
2, 11805, Note_on_c, 0, 70, 77
2, 11809, Note_on_c, 0, 66, 0
2, 12016, Note_on_c, 0, 70, 0
2, 12019, Note_on_c, 0, 62, 49
2, 12026, Note_on_c, 0, 63, 0
2, 12028, Note_on_c, 0, 71, 74
2, 12230, Note_on_c, 0, 65, 70
2, 12230, Note_on_c, 0, 71, 0
2, 12429, Note_on_c, 0, 62, 0
2, 12435, Note_on_c, 0, 65, 0
2, 12451, Note_on_c, 0, 61, 47
2, 12454, Note_on_c, 0, 64, 69
2, 12629, Note_on_c, 0, 64, 0
2, 12649, Note_on_c, 0, 68, 74
2, 12825, Note_on_c, 0, 61, 0
2, 12846, Note_on_c, 0, 68, 0
2, 12857, Note_on_c, 0, 60, 52
2, 12859, Note_on_c, 0, 69, 68
2, 13037, Note_on_c, 0, 69, 0
2, 13073, Note_on_c, 0, 63, 64
2, 13273, Note_on_c, 0, 60, 0
2, 13283, Note_on_c, 0, 59, 55
2, 13499, Note_on_c, 0, 64, 67
2, 13555, Note_on_c, 0, 63, 0
2, 13694, Note_on_c, 0, 59, 0
2, 13695, Note_on_c, 0, 57, 58
2, 13890, Note_on_c, 0, 64, 0
2, 13901, Note_on_c, 0, 66, 61
2, 14083, Note_on_c, 0, 66, 0
2, 14095, Note_on_c, 0, 59, 62
2, 14202, Note_on_c, 0, 57, 0
2, 14210, Note_on_c, 0, 55, 71
2, 14228, Note_on_c, 0, 59, 0
2, 14308, Note_on_c, 0, 57, 78
2, 14331, Note_on_c, 0, 55, 0
2, 14401, Note_on_c, 0, 57, 0
2, 14404, Note_on_c, 0, 59, 79
2, 14507, Note_on_c, 0, 59, 0
2, 14507, Note_on_c, 0, 76, 72
2, 14525, Note_on_c, 0, 60, 72
2, 14734, Note_on_c, 0, 55, 73
2, 14752, Note_on_c, 0, 60, 0
2, 14946, Note_on_c, 0, 55, 0
2, 14950, Note_on_c, 0, 75, 69
2, 14951, Note_on_c, 0, 54, 69
2, 14976, Note_on_c, 0, 76, 0
2, 15164, Note_on_c, 0, 54, 0
2, 15167, Note_on_c, 0, 58, 78
2, 15361, Note_on_c, 0, 58, 0
2, 15376, Note_on_c, 0, 59, 70
2, 15382, Note_on_c, 0, 74, 67
2, 15388, Note_on_c, 0, 75, 0
2, 15585, Note_on_c, 0, 53, 73
2, 15601, Note_on_c, 0, 59, 0
2, 15805, Note_on_c, 0, 74, 0
2, 15808, Note_on_c, 0, 52, 64
2, 15823, Note_on_c, 0, 53, 0
2, 15823, Note_on_c, 0, 73, 66
2, 16029, Note_on_c, 0, 52, 0
2, 16030, Note_on_c, 0, 56, 73
2, 16154, Note_on_c, 0, 73, 0
2, 16225, Note_on_c, 0, 72, 61
2, 16226, Note_on_c, 0, 56, 0
2, 16235, Note_on_c, 0, 57, 67
2, 16443, Note_on_c, 0, 51, 71
2, 16453, Note_on_c, 0, 57, 0
2, 16667, Note_on_c, 0, 71, 70
2, 16678, Note_on_c, 0, 72, 0
2, 16874, Note_on_c, 0, 52, 67
2, 16893, Note_on_c, 0, 51, 0
2, 17077, Note_on_c, 0, 69, 71
2, 17096, Note_on_c, 0, 71, 0
2, 17304, Note_on_c, 0, 52, 0
2, 17311, Note_on_c, 0, 54, 67
2, 17537, Note_on_c, 0, 47, 57
2, 17537, Note_on_c, 0, 54, 0
2, 17718, Note_on_c, 0, 69, 0
2, 17751, Note_on_c, 0, 67, 64
2, 17839, Note_on_c, 0, 67, 0
2, 17841, Note_on_c, 0, 66, 68
2, 17915, Note_on_c, 0, 66, 0
2, 17944, Note_on_c, 0, 67, 74
2, 17946, Note_on_c, 0, 52, 62
2, 17991, Note_on_c, 0, 47, 0
2, 18038, Note_on_c, 0, 67, 0
2, 18156, Note_on_c, 0, 76, 83
2, 18393, Note_on_c, 0, 54, 64
2, 18396, Note_on_c, 0, 52, 0
2, 18580, Note_on_c, 0, 75, 72
2, 18585, Note_on_c, 0, 76, 0
2, 18652, Note_on_c, 0, 75, 0
2, 18797, Note_on_c, 0, 56, 46
2, 18797, Note_on_c, 0, 83, 73
2, 18828, Note_on_c, 0, 54, 0
2, 18999, Note_on_c, 0, 83, 0
2, 19012, Note_on_c, 0, 74, 66
2, 19193, Note_on_c, 0, 56, 0
2, 19210, Note_on_c, 0, 57, 73
2, 19366, Note_on_c, 0, 74, 0
2, 19409, Note_on_c, 0, 57, 0
2, 19415, Note_on_c, 0, 72, 69
2, 19418, Note_on_c, 0, 45, 66
2, 19516, Note_on_c, 0, 72, 0
2, 19517, Note_on_c, 0, 71, 74
2, 19612, Note_on_c, 0, 71, 0
2, 19633, Note_on_c, 0, 72, 78
2, 19638, Note_on_c, 0, 57, 67
2, 19643, Note_on_c, 0, 45, 0
2, 19816, Note_on_c, 0, 72, 0
2, 19841, Note_on_c, 0, 69, 73
2, 20031, Note_on_c, 0, 69, 0
2, 20049, Note_on_c, 0, 71, 74
2, 20227, Note_on_c, 0, 57, 0
2, 20247, Note_on_c, 0, 56, 62
2, 20464, Note_on_c, 0, 56, 0
2, 20475, Note_on_c, 0, 73, 66
2, 20483, Note_on_c, 0, 71, 0
2, 20485, Note_on_c, 0, 64, 54
2, 20669, Note_on_c, 0, 64, 0
2, 20687, Note_on_c, 0, 55, 62
2, 20883, Note_on_c, 0, 74, 79
2, 20897, Note_on_c, 0, 73, 0
2, 21066, Note_on_c, 0, 55, 0
2, 21082, Note_on_c, 0, 74, 0
2, 21110, Note_on_c, 0, 54, 55
2, 21112, Note_on_c, 0, 62, 79
2, 21191, Note_on_c, 0, 54, 0
2, 21202, Note_on_c, 0, 52, 58
2, 21286, Note_on_c, 0, 62, 0
2, 21298, Note_on_c, 0, 52, 0
2, 21310, Note_on_c, 0, 74, 83
2, 21323, Note_on_c, 0, 54, 53
2, 21523, Note_on_c, 0, 54, 0
2, 21528, Note_on_c, 0, 50, 59
2, 21735, Note_on_c, 0, 50, 0
2, 21736, Note_on_c, 0, 52, 65
2, 21944, Note_on_c, 0, 74, 0
2, 21952, Note_on_c, 0, 73, 74
2, 22137, Note_on_c, 0, 52, 0
2, 22146, Note_on_c, 0, 73, 0
2, 22151, Note_on_c, 0, 54, 56
2, 22169, Note_on_c, 0, 81, 68
2, 22330, Note_on_c, 0, 81, 0
2, 22376, Note_on_c, 0, 72, 67
2, 22565, Note_on_c, 0, 54, 0
2, 22588, Note_on_c, 0, 55, 71
2, 22792, Note_on_c, 0, 72, 0
2, 22795, Note_on_c, 0, 43, 67
2, 22796, Note_on_c, 0, 71, 70
2, 22810, Note_on_c, 0, 55, 0
2, 22897, Note_on_c, 0, 69, 77
2, 22897, Note_on_c, 0, 71, 0
2, 22986, Note_on_c, 0, 69, 0
2, 22995, Note_on_c, 0, 43, 0
2, 23010, Note_on_c, 0, 55, 66
2, 23011, Note_on_c, 0, 71, 73
2, 23198, Note_on_c, 0, 71, 0
2, 23224, Note_on_c, 0, 67, 71
2, 23447, Note_on_c, 0, 69, 69
2, 23466, Note_on_c, 0, 67, 0
2, 23628, Note_on_c, 0, 55, 0
2, 23656, Note_on_c, 0, 54, 65
2, 23872, Note_on_c, 0, 54, 0
2, 23878, Note_on_c, 0, 71, 68
2, 23891, Note_on_c, 0, 62, 60
2, 23900, Note_on_c, 0, 69, 0
2, 24086, Note_on_c, 0, 62, 0
2, 24087, Note_on_c, 0, 53, 59
2, 24289, Note_on_c, 0, 71, 0
2, 24333, Note_on_c, 0, 72, 61
2, 24442, Note_on_c, 0, 53, 0
2, 24445, Note_on_c, 0, 52, 71
2, 24554, Note_on_c, 0, 53, 78
2, 24558, Note_on_c, 0, 72, 0
2, 24570, Note_on_c, 0, 52, 0
2, 24646, Note_on_c, 0, 53, 0
2, 24648, Note_on_c, 0, 55, 79
2, 24761, Note_on_c, 0, 55, 0
2, 24766, Note_on_c, 0, 84, 72
2, 24774, Note_on_c, 0, 57, 74
2, 24988, Note_on_c, 0, 52, 73
2, 25013, Note_on_c, 0, 57, 0
2, 25201, Note_on_c, 0, 83, 68
2, 25202, Note_on_c, 0, 51, 73
2, 25207, Note_on_c, 0, 52, 0
2, 25212, Note_on_c, 0, 84, 0
2, 25424, Note_on_c, 0, 54, 82
2, 25427, Note_on_c, 0, 51, 0
2, 25628, Note_on_c, 0, 54, 0
2, 25630, Note_on_c, 0, 55, 73
2, 25634, Note_on_c, 0, 83, 0
2, 25637, Note_on_c, 0, 82, 67
2, 25845, Note_on_c, 0, 50, 71
2, 25867, Note_on_c, 0, 55, 0
2, 26067, Note_on_c, 0, 49, 66
2, 26069, Note_on_c, 0, 50, 0
2, 26071, Note_on_c, 0, 81, 60
2, 26072, Note_on_c, 0, 82, 0
2, 26294, Note_on_c, 0, 52, 73
2, 26296, Note_on_c, 0, 49, 0
2, 26496, Note_on_c, 0, 52, 0
2, 26505, Note_on_c, 0, 80, 68
2, 26511, Note_on_c, 0, 53, 65
2, 26511, Note_on_c, 0, 81, 0
2, 26712, Note_on_c, 0, 48, 67
2, 26728, Note_on_c, 0, 53, 0
2, 26927, Note_on_c, 0, 79, 67
2, 26961, Note_on_c, 0, 80, 0
2, 27101, Note_on_c, 0, 48, 0
2, 27123, Note_on_c, 0, 47, 65
2, 27355, Note_on_c, 0, 79, 0
2, 27370, Note_on_c, 0, 77, 69
2, 27550, Note_on_c, 0, 48, 57
2, 27558, Note_on_c, 0, 47, 0
2, 27627, Note_on_c, 0, 48, 0
2, 27652, Note_on_c, 0, 50, 63
2, 27769, Note_on_c, 0, 50, 0
2, 27777, Note_on_c, 0, 43, 61
2, 27868, Note_on_c, 0, 77, 0
2, 27896, Note_on_c, 0, 71, 71
2, 28012, Note_on_c, 0, 72, 79
2, 28021, Note_on_c, 0, 71, 0
2, 28110, Note_on_c, 0, 74, 79
2, 28119, Note_on_c, 0, 72, 0
2, 28210, Note_on_c, 0, 74, 0
2, 28222, Note_on_c, 0, 76, 77
2, 28227, Note_on_c, 0, 55, 59
2, 28229, Note_on_c, 0, 43, 0
2, 28449, Note_on_c, 0, 71, 78
2, 28450, Note_on_c, 0, 76, 0
2, 28669, Note_on_c, 0, 55, 0
2, 28673, Note_on_c, 0, 54, 53
2, 28675, Note_on_c, 0, 70, 75
2, 28675, Note_on_c, 0, 71, 0
2, 28890, Note_on_c, 0, 70, 0
2, 28897, Note_on_c, 0, 73, 75
2, 29107, Note_on_c, 0, 53, 46
2, 29107, Note_on_c, 0, 73, 0
2, 29110, Note_on_c, 0, 54, 0
2, 29113, Note_on_c, 0, 74, 69
2, 29327, Note_on_c, 0, 69, 72
2, 29329, Note_on_c, 0, 74, 0
2, 29550, Note_on_c, 0, 52, 45
2, 29553, Note_on_c, 0, 69, 0
2, 29559, Note_on_c, 0, 53, 0
2, 29569, Note_on_c, 0, 68, 69
2, 29753, Note_on_c, 0, 68, 0
2, 29770, Note_on_c, 0, 71, 73
2, 29934, Note_on_c, 0, 52, 0
2, 29969, Note_on_c, 0, 71, 0
2, 29982, Note_on_c, 0, 72, 72
2, 29996, Note_on_c, 0, 51, 53
2, 30189, Note_on_c, 0, 72, 0
2, 30198, Note_on_c, 0, 67, 58
2, 30235, Note_on_c, 0, 65, 28
2, 30236, Note_on_c, 0, 65, 0
2, 30417, Note_on_c, 0, 50, 53
2, 30417, Note_on_c, 0, 51, 0
2, 30611, Note_on_c, 0, 67, 0
2, 30622, Note_on_c, 0, 66, 65
2, 30842, Note_on_c, 0, 48, 55
2, 30847, Note_on_c, 0, 50, 0
2, 31048, Note_on_c, 0, 67, 61
2, 31075, Note_on_c, 0, 66, 0
2, 31143, Note_on_c, 0, 67, 0
2, 31157, Note_on_c, 0, 69, 67
2, 31229, Note_on_c, 0, 69, 0
2, 31270, Note_on_c, 0, 62, 66
2, 31483, Note_on_c, 0, 48, 0
2, 31491, Note_on_c, 0, 47, 58
2, 31574, Note_on_c, 0, 47, 0
2, 31587, Note_on_c, 0, 45, 59
2, 31690, Note_on_c, 0, 45, 0
2, 31692, Note_on_c, 0, 47, 59
2, 31693, Note_on_c, 0, 62, 0
2, 31702, Note_on_c, 0, 67, 69
2, 31876, Note_on_c, 0, 47, 0
2, 31922, Note_on_c, 0, 55, 68
2, 32117, Note_on_c, 0, 69, 78
2, 32119, Note_on_c, 0, 67, 0
2, 32301, Note_on_c, 0, 55, 0
2, 32318, Note_on_c, 0, 54, 69
2, 32535, Note_on_c, 0, 71, 73
2, 32537, Note_on_c, 0, 54, 0
2, 32546, Note_on_c, 0, 62, 56
2, 32568, Note_on_c, 0, 69, 0
2, 32742, Note_on_c, 0, 62, 0
2, 32770, Note_on_c, 0, 53, 58
2, 32987, Note_on_c, 0, 72, 65
2, 32999, Note_on_c, 0, 71, 0
2, 33171, Note_on_c, 0, 53, 0
2, 33194, Note_on_c, 0, 52, 58
2, 33288, Note_on_c, 0, 52, 0
2, 33292, Note_on_c, 0, 50, 67
2, 33393, Note_on_c, 0, 50, 0
2, 33396, Note_on_c, 0, 49, 65
2, 33399, Note_on_c, 0, 72, 0
2, 33407, Note_on_c, 0, 69, 68
2, 33586, Note_on_c, 0, 49, 0
2, 33631, Note_on_c, 0, 57, 72
2, 33818, Note_on_c, 0, 71, 76
2, 33858, Note_on_c, 0, 69, 0
2, 34008, Note_on_c, 0, 57, 0
2, 34024, Note_on_c, 0, 56, 67
2, 34246, Note_on_c, 0, 73, 68
2, 34258, Note_on_c, 0, 64, 66
2, 34266, Note_on_c, 0, 56, 0
2, 34266, Note_on_c, 0, 71, 0
2, 34460, Note_on_c, 0, 55, 71
2, 34472, Note_on_c, 0, 64, 0
2, 34659, Note_on_c, 0, 74, 64
2, 34683, Note_on_c, 0, 73, 0
2, 34781, Note_on_c, 0, 55, 0
2, 34785, Note_on_c, 0, 54, 72
2, 34888, Note_on_c, 0, 55, 79
2, 34910, Note_on_c, 0, 54, 0
2, 34985, Note_on_c, 0, 55, 0
2, 34989, Note_on_c, 0, 57, 81
2, 35038, Note_on_c, 0, 74, 0
2, 35100, Note_on_c, 0, 62, 65
2, 35108, Note_on_c, 0, 57, 0
2, 35112, Note_on_c, 0, 58, 78
2, 35338, Note_on_c, 0, 53, 77
2, 35338, Note_on_c, 0, 58, 0
2, 35533, Note_on_c, 0, 52, 69
2, 35548, Note_on_c, 0, 53, 0
2, 35548, Note_on_c, 0, 61, 64
2, 35579, Note_on_c, 0, 62, 0
2, 35769, Note_on_c, 0, 52, 0
2, 35774, Note_on_c, 0, 56, 76
2, 35969, Note_on_c, 0, 56, 0
2, 35982, Note_on_c, 0, 57, 69
2, 35986, Note_on_c, 0, 60, 62
2, 36013, Note_on_c, 0, 61, 0
2, 36190, Note_on_c, 0, 51, 73
2, 36196, Note_on_c, 0, 57, 0
2, 36379, Note_on_c, 0, 60, 0
2, 36397, Note_on_c, 0, 59, 63
2, 36407, Note_on_c, 0, 50, 62
2, 36415, Note_on_c, 0, 51, 0
2, 36614, Note_on_c, 0, 50, 0
2, 36625, Note_on_c, 0, 54, 71
2, 36813, Note_on_c, 0, 54, 0
2, 36819, Note_on_c, 0, 59, 0
2, 36824, Note_on_c, 0, 58, 62
2, 36827, Note_on_c, 0, 55, 63
2, 37040, Note_on_c, 0, 55, 0
2, 37047, Note_on_c, 0, 49, 59
2, 37264, Note_on_c, 0, 57, 60
2, 37294, Note_on_c, 0, 58, 0
2, 37485, Note_on_c, 0, 50, 50
2, 37513, Note_on_c, 0, 49, 0
2, 37686, Note_on_c, 0, 57, 0
2, 37698, Note_on_c, 0, 55, 51
2, 37904, Note_on_c, 0, 50, 0
2, 37909, Note_on_c, 0, 52, 49
2, 38128, Note_on_c, 0, 52, 0
2, 38144, Note_on_c, 0, 45, 42
2, 38348, Note_on_c, 0, 55, 0
2, 38372, Note_on_c, 0, 53, 52
2, 38434, Note_on_c, 0, 53, 0
2, 38462, Note_on_c, 0, 52, 55
2, 38559, Note_on_c, 0, 52, 0
2, 38569, Note_on_c, 0, 50, 50
2, 38579, Note_on_c, 0, 45, 0
2, 38581, Note_on_c, 0, 53, 55
2, 38701, Note_on_c, 0, 53, 0
2, 38817, Note_on_c, 0, 62, 67
2, 39013, Note_on_c, 0, 52, 52
2, 39016, Note_on_c, 0, 50, 0
2, 39231, Note_on_c, 0, 62, 0
2, 39233, Note_on_c, 0, 61, 66
2, 39329, Note_on_c, 0, 61, 0
2, 39435, Note_on_c, 0, 52, 0
2, 39447, Note_on_c, 0, 69, 70
2, 39449, Note_on_c, 0, 54, 47
2, 39647, Note_on_c, 0, 69, 0
2, 39671, Note_on_c, 0, 60, 66
2, 39861, Note_on_c, 0, 54, 0
2, 39885, Note_on_c, 0, 55, 55
2, 40023, Note_on_c, 0, 60, 0
2, 40085, Note_on_c, 0, 59, 67
2, 40172, Note_on_c, 0, 59, 0
2, 40180, Note_on_c, 0, 57, 69
2, 40278, Note_on_c, 0, 57, 0
2, 40297, Note_on_c, 0, 56, 68
2, 40300, Note_on_c, 0, 52, 51
2, 40314, Note_on_c, 0, 55, 0
2, 40404, Note_on_c, 0, 56, 0
2, 40524, Note_on_c, 0, 64, 77
2, 40737, Note_on_c, 0, 54, 61
2, 40741, Note_on_c, 0, 52, 0
2, 40946, Note_on_c, 0, 64, 0
2, 40948, Note_on_c, 0, 63, 69
2, 41046, Note_on_c, 0, 63, 0
2, 41148, Note_on_c, 0, 56, 50
2, 41162, Note_on_c, 0, 54, 0
2, 41168, Note_on_c, 0, 71, 73
2, 41350, Note_on_c, 0, 71, 0
2, 41377, Note_on_c, 0, 62, 69
2, 41546, Note_on_c, 0, 56, 0
2, 41570, Note_on_c, 0, 57, 64
2, 41675, Note_on_c, 0, 60, 72
2, 41697, Note_on_c, 0, 62, 0
2, 41756, Note_on_c, 0, 45, 52
2, 41765, Note_on_c, 0, 57, 0
2, 41785, Note_on_c, 0, 62, 77
2, 41817, Note_on_c, 0, 60, 0
2, 41872, Note_on_c, 0, 62, 0
2, 41883, Note_on_c, 0, 64, 81
2, 41981, Note_on_c, 0, 57, 54
2, 41986, Note_on_c, 0, 45, 0
2, 42003, Note_on_c, 0, 64, 0
2, 42008, Note_on_c, 0, 65, 77
2, 42220, Note_on_c, 0, 60, 79
2, 42227, Note_on_c, 0, 65, 0
2, 42424, Note_on_c, 0, 57, 0
2, 42432, Note_on_c, 0, 60, 0
2, 42434, Note_on_c, 0, 56, 50
2, 42443, Note_on_c, 0, 59, 74
2, 42664, Note_on_c, 0, 63, 77
2, 42695, Note_on_c, 0, 59, 0
2, 42885, Note_on_c, 0, 63, 0
2, 42886, Note_on_c, 0, 56, 0
2, 42887, Note_on_c, 0, 55, 48
2, 42888, Note_on_c, 0, 64, 72
2, 43099, Note_on_c, 0, 64, 0
2, 43104, Note_on_c, 0, 58, 73
2, 43304, Note_on_c, 0, 55, 0
2, 43317, Note_on_c, 0, 58, 0
2, 43329, Note_on_c, 0, 57, 66
2, 43333, Note_on_c, 0, 54, 40
2, 43542, Note_on_c, 0, 61, 69
2, 43548, Note_on_c, 0, 57, 0
2, 43722, Note_on_c, 0, 54, 0
2, 43766, Note_on_c, 0, 61, 0
2, 43768, Note_on_c, 0, 53, 41
2, 43772, Note_on_c, 0, 62, 64
2, 43968, Note_on_c, 0, 62, 0
2, 43983, Note_on_c, 0, 56, 67
2, 44218, Note_on_c, 0, 53, 0
2, 44222, Note_on_c, 0, 52, 49
2, 44399, Note_on_c, 0, 57, 63
2, 44403, Note_on_c, 0, 56, 0
2, 44619, Note_on_c, 0, 50, 52
2, 44619, Note_on_c, 0, 52, 0
2, 44822, Note_on_c, 0, 57, 0
2, 44837, Note_on_c, 0, 59, 53
2, 45062, Note_on_c, 0, 52, 53
2, 45066, Note_on_c, 0, 59, 0
2, 45224, Control_c, 0, 64, 15
2, 45240, Control_c, 0, 64, 25
2, 45255, Control_c, 0, 64, 32
2, 45259, Note_on_c, 0, 52, 0
2, 45260, Note_on_c, 0, 50, 0
2, 45269, Control_c, 0, 64, 37
2, 45280, Note_on_c, 0, 48, 60
2, 45285, Control_c, 0, 64, 40
2, 45300, Control_c, 0, 64, 42
2, 45316, Control_c, 0, 64, 44
2, 45331, Control_c, 0, 64, 44
2, 45364, Note_on_c, 0, 48, 0
2, 45371, Note_on_c, 0, 47, 61
2, 45376, Control_c, 0, 64, 44
2, 45391, Control_c, 0, 64, 40
2, 45407, Control_c, 0, 64, 38
2, 45421, Control_c, 0, 64, 34
2, 45437, Control_c, 0, 64, 30
2, 45452, Control_c, 0, 64, 27
2, 45466, Note_on_c, 0, 64, 62
2, 45467, Control_c, 0, 64, 24
2, 45468, Note_on_c, 0, 47, 0
2, 45476, Note_on_c, 0, 48, 52
2, 45482, Control_c, 0, 64, 22
2, 45497, Control_c, 0, 64, 20
2, 45512, Control_c, 0, 64, 18
2, 45543, Control_c, 0, 64, 17
2, 45558, Control_c, 0, 64, 16
2, 45618, Note_on_c, 0, 48, 0
2, 45702, Note_on_c, 0, 52, 60
2, 45906, Note_on_c, 0, 64, 0
2, 45907, Note_on_c, 0, 66, 73
2, 46106, Note_on_c, 0, 52, 0
2, 46123, Note_on_c, 0, 51, 63
2, 46335, Note_on_c, 0, 51, 0
2, 46337, Note_on_c, 0, 68, 69
2, 46345, Note_on_c, 0, 59, 59
2, 46362, Note_on_c, 0, 66, 0
2, 46557, Note_on_c, 0, 50, 54
2, 46560, Note_on_c, 0, 59, 0
2, 46773, Note_on_c, 0, 69, 76
2, 46786, Note_on_c, 0, 68, 0
2, 46962, Note_on_c, 0, 50, 0
2, 46962, Note_on_c, 0, 69, 0
2, 46988, Note_on_c, 0, 49, 50
2, 46989, Note_on_c, 0, 57, 73
2, 47084, Note_on_c, 0, 49, 0
2, 47086, Note_on_c, 0, 47, 47
2, 47147, Note_on_c, 0, 57, 0
2, 47188, Note_on_c, 0, 47, 0
2, 47200, Note_on_c, 0, 69, 78
2, 47207, Note_on_c, 0, 49, 54
2, 47402, Note_on_c, 0, 49, 0
2, 47406, Note_on_c, 0, 45, 63
2, 47614, Note_on_c, 0, 47, 63
2, 47654, Note_on_c, 0, 45, 0
2, 47822, Note_on_c, 0, 69, 0
2, 47837, Note_on_c, 0, 68, 69
2, 48040, Note_on_c, 0, 47, 0
2, 48054, Note_on_c, 0, 49, 48
2, 48063, Note_on_c, 0, 76, 66
2, 48070, Note_on_c, 0, 68, 0
2, 48253, Note_on_c, 0, 76, 0
2, 48276, Note_on_c, 0, 67, 70
2, 48465, Note_on_c, 0, 49, 0
2, 48483, Note_on_c, 0, 50, 73
2, 48632, Note_on_c, 0, 67, 0
2, 48676, Note_on_c, 0, 66, 67
2, 48684, Note_on_c, 0, 38, 68
2, 48684, Note_on_c, 0, 50, 0
2, 48795, Note_on_c, 0, 64, 68
2, 48795, Note_on_c, 0, 66, 0
2, 48873, Note_on_c, 0, 64, 0
2, 48911, Note_on_c, 0, 50, 73
2, 48917, Note_on_c, 0, 66, 60
2, 48924, Note_on_c, 0, 38, 0
2, 49102, Note_on_c, 0, 66, 0
2, 49125, Note_on_c, 0, 62, 64
2, 49293, Note_on_c, 0, 62, 0
2, 49327, Note_on_c, 0, 64, 62
2, 49512, Note_on_c, 0, 50, 0
2, 49530, Note_on_c, 0, 49, 60
2, 49738, Note_on_c, 0, 49, 0
2, 49752, Note_on_c, 0, 66, 61
2, 49753, Note_on_c, 0, 57, 60
2, 49779, Note_on_c, 0, 64, 0
2, 49965, Note_on_c, 0, 57, 0
2, 49973, Note_on_c, 0, 48, 60
2, 50174, Note_on_c, 0, 67, 82
2, 50185, Note_on_c, 0, 66, 0
2, 50372, Note_on_c, 0, 67, 0
2, 50381, Note_on_c, 0, 48, 0
2, 50393, Note_on_c, 0, 55, 69
2, 50409, Note_on_c, 0, 47, 53
2, 50477, Control_c, 0, 64, 15
2, 50490, Note_on_c, 0, 47, 0
2, 50501, Note_on_c, 0, 45, 51
2, 50589, Note_on_c, 0, 45, 0
2, 50601, Note_on_c, 0, 67, 73
2, 50602, Note_on_c, 0, 55, 0
2, 50611, Note_on_c, 0, 47, 51
2, 50690, Control_c, 0, 64, 14
2, 50736, Control_c, 0, 64, 12
2, 50798, Control_c, 0, 64, 10
2, 50816, Note_on_c, 0, 43, 63
2, 50819, Note_on_c, 0, 47, 0
2, 50888, Control_c, 0, 64, 8
2, 51053, Note_on_c, 0, 43, 0
2, 51058, Note_on_c, 0, 45, 63
2, 51123, Control_c, 0, 64, 0
2, 51237, Note_on_c, 0, 67, 0
2, 51252, Note_on_c, 0, 66, 73
2, 51477, Note_on_c, 0, 66, 0
2, 51481, Note_on_c, 0, 45, 0
2, 51484, Note_on_c, 0, 74, 74
2, 51492, Note_on_c, 0, 47, 61
2, 51675, Note_on_c, 0, 74, 0
2, 51684, Note_on_c, 0, 65, 78
2, 51904, Note_on_c, 0, 47, 0
2, 51920, Note_on_c, 0, 48, 71
2, 51998, Control_c, 0, 64, 20
2, 52013, Control_c, 0, 64, 30
2, 52027, Control_c, 0, 64, 36
2, 52043, Control_c, 0, 64, 40
2, 52058, Control_c, 0, 64, 42
2, 52073, Control_c, 0, 64, 45
2, 52079, Note_on_c, 0, 65, 0
2, 52088, Control_c, 0, 64, 46
2, 52103, Control_c, 0, 64, 47
2, 52141, Note_on_c, 0, 64, 78
2, 52179, Control_c, 0, 64, 45
2, 52195, Control_c, 0, 64, 41
2, 52210, Control_c, 0, 64, 36
2, 52225, Control_c, 0, 64, 24
2, 52228, Note_on_c, 0, 64, 0
2, 52241, Control_c, 0, 64, 0
2, 52243, Note_on_c, 0, 62, 72
2, 52311, Note_on_c, 0, 62, 0
2, 52338, Note_on_c, 0, 64, 80
2, 52409, Control_c, 0, 64, 30
2, 52418, Note_on_c, 0, 64, 0
2, 52424, Control_c, 0, 64, 41
2, 52440, Control_c, 0, 64, 47
2, 52455, Control_c, 0, 64, 53
2, 52470, Control_c, 0, 64, 57
2, 52486, Control_c, 0, 64, 61
2, 52500, Control_c, 0, 64, 63
2, 52516, Control_c, 0, 64, 64
2, 52531, Control_c, 0, 64, 66
2, 52546, Control_c, 0, 64, 66
2, 52553, Note_on_c, 0, 48, 0
2, 52569, Control_c, 0, 64, 67
2, 52574, Note_on_c, 0, 47, 57
2, 52574, Note_on_c, 0, 76, 83
2, 52599, Control_c, 0, 64, 66
2, 52614, Control_c, 0, 64, 66
2, 52629, Control_c, 0, 64, 65
2, 52645, Control_c, 0, 64, 64
2, 52658, Note_on_c, 0, 47, 0
2, 52660, Control_c, 0, 64, 63
2, 52668, Note_on_c, 0, 45, 67
2, 52675, Control_c, 0, 64, 62
2, 52690, Control_c, 0, 64, 61
2, 52705, Control_c, 0, 64, 60
2, 52721, Control_c, 0, 64, 57
2, 52736, Control_c, 0, 64, 54
2, 52751, Control_c, 0, 64, 51
2, 52767, Control_c, 0, 64, 45
2, 52775, Note_on_c, 0, 52, 75
2, 52782, Control_c, 0, 64, 38
2, 52785, Note_on_c, 0, 45, 0
2, 52797, Control_c, 0, 64, 29
2, 52812, Control_c, 0, 64, 10
2, 52827, Control_c, 0, 64, 0
2, 52885, Note_on_c, 0, 52, 0
2, 52886, Note_on_c, 0, 53, 74
2, 52964, Control_c, 0, 64, 17
2, 52972, Note_on_c, 0, 53, 0
2, 52977, Control_c, 0, 64, 29
2, 52984, Note_on_c, 0, 55, 71
2, 52992, Control_c, 0, 64, 36
2, 53007, Control_c, 0, 64, 40
2, 53017, Note_on_c, 0, 77, 77
2, 53021, Note_on_c, 0, 76, 0
2, 53022, Control_c, 0, 64, 44
2, 53037, Control_c, 0, 64, 48
2, 53053, Control_c, 0, 64, 52
2, 53068, Control_c, 0, 64, 55
2, 53075, Note_on_c, 0, 55, 0
2, 53083, Control_c, 0, 64, 57
2, 53089, Note_on_c, 0, 53, 70
2, 53098, Control_c, 0, 64, 60
2, 53113, Control_c, 0, 64, 61
2, 53129, Control_c, 0, 64, 62
2, 53131, Note_on_c, 0, 76, 84
2, 53143, Control_c, 0, 64, 63
2, 53145, Note_on_c, 0, 77, 0
2, 53158, Control_c, 0, 64, 63
2, 53158, Note_on_c, 0, 53, 0
2, 53179, Note_on_c, 0, 55, 70
2, 53190, Control_c, 0, 64, 64
2, 53229, Note_on_c, 0, 55, 0
2, 53238, Note_on_c, 0, 76, 0
2, 53244, Note_on_c, 0, 74, 80
2, 53247, Note_on_c, 0, 53, 59
2, 53290, Note_on_c, 0, 53, 0
2, 53300, Note_on_c, 0, 55, 66
2, 53332, Note_on_c, 0, 74, 0
2, 53335, Control_c, 0, 64, 63
2, 53348, Note_on_c, 0, 72, 83
2, 53365, Control_c, 0, 64, 63
2, 53372, Note_on_c, 0, 53, 68
2, 53372, Note_on_c, 0, 55, 0
2, 53380, Control_c, 0, 64, 61
2, 53395, Control_c, 0, 64, 60
2, 53411, Control_c, 0, 64, 57
2, 53422, Note_on_c, 0, 72, 0
2, 53426, Control_c, 0, 64, 55
2, 53437, Note_on_c, 0, 53, 0
2, 53440, Control_c, 0, 64, 53
2, 53444, Note_on_c, 0, 52, 67
2, 53453, Note_on_c, 0, 71, 82
2, 53456, Control_c, 0, 64, 51
2, 53471, Control_c, 0, 64, 49
2, 53486, Control_c, 0, 64, 48
2, 53501, Control_c, 0, 64, 47
2, 53530, Note_on_c, 0, 71, 0
2, 53544, Note_on_c, 0, 52, 0
2, 53544, Note_on_c, 0, 53, 72
2, 53570, Note_on_c, 0, 69, 77
2, 53635, Note_on_c, 0, 53, 0
2, 53655, Note_on_c, 0, 52, 70
2, 53658, Note_on_c, 0, 69, 0
2, 53690, Note_on_c, 0, 68, 77
2, 53750, Note_on_c, 0, 66, 34
2, 53822, Note_on_c, 0, 64, 73
2, 53877, Note_on_c, 0, 66, 0
2, 53923, Note_on_c, 0, 64, 0
2, 53928, Note_on_c, 0, 62, 76
2, 53987, Control_c, 0, 64, 45
2, 54004, Control_c, 0, 64, 42
2, 54019, Control_c, 0, 64, 31
2, 54027, Note_on_c, 0, 62, 0
2, 54030, Note_on_c, 0, 60, 78
2, 54034, Control_c, 0, 64, 0
2, 54124, Note_on_c, 0, 59, 74
2, 54198, Note_on_c, 0, 60, 0
2, 54224, Control_c, 0, 64, 17
2, 54232, Note_on_c, 0, 57, 76
2, 54238, Note_on_c, 0, 59, 0
2, 54239, Control_c, 0, 64, 27
2, 54255, Control_c, 0, 64, 31
2, 54270, Control_c, 0, 64, 34
2, 54285, Control_c, 0, 64, 36
2, 54330, Control_c, 0, 64, 31
2, 54345, Control_c, 0, 64, 0
2, 54347, Note_on_c, 0, 56, 78
2, 54372, Note_on_c, 0, 52, 0
2, 54390, Note_on_c, 0, 57, 0
2, 54448, Note_on_c, 0, 56, 0
2, 54452, Note_on_c, 0, 54, 76
2, 54467, Control_c, 0, 64, 24
2, 54483, Control_c, 0, 64, 40
2, 54498, Control_c, 0, 64, 46
2, 54513, Control_c, 0, 64, 50
2, 54528, Control_c, 0, 64, 53
2, 54543, Control_c, 0, 64, 55
2, 54558, Control_c, 0, 64, 56
2, 54562, Note_on_c, 0, 54, 0
2, 54574, Control_c, 0, 64, 58
2, 54589, Control_c, 0, 64, 59
2, 54592, Note_on_c, 0, 52, 73
2, 54604, Control_c, 0, 64, 59
2, 54619, Control_c, 0, 64, 60
2, 54680, Control_c, 0, 64, 59
2, 54695, Control_c, 0, 64, 58
2, 54710, Control_c, 0, 64, 57
2, 54726, Control_c, 0, 64, 56
2, 54740, Control_c, 0, 64, 55
2, 54755, Control_c, 0, 64, 53
2, 54771, Control_c, 0, 64, 52
2, 54786, Control_c, 0, 64, 50
2, 54802, Control_c, 0, 64, 48
2, 54818, Control_c, 0, 64, 46
2, 54833, Control_c, 0, 64, 43
2, 54848, Control_c, 0, 64, 40
2, 54871, Control_c, 0, 64, 36
2, 54887, Control_c, 0, 64, 29
2, 54901, Control_c, 0, 64, 12
2, 54916, Control_c, 0, 64, 0
2, 55097, Note_on_c, 0, 40, 64
2, 55128, Note_on_c, 0, 52, 0
2, 55205, Control_c, 0, 64, 29
2, 55220, Control_c, 0, 64, 40
2, 55235, Control_c, 0, 64, 48
2, 55240, Note_on_c, 0, 68, 0
2, 55250, Control_c, 0, 64, 54
2, 55265, Control_c, 0, 64, 58
2, 55280, Control_c, 0, 64, 61
2, 55296, Control_c, 0, 64, 65
2, 55311, Control_c, 0, 64, 69
2, 55327, Control_c, 0, 64, 74
2, 55342, Control_c, 0, 64, 80
2, 55357, Control_c, 0, 64, 85
2, 55372, Control_c, 0, 64, 90
2, 55387, Control_c, 0, 64, 95
2, 55403, Control_c, 0, 64, 96
2, 55432, Control_c, 0, 64, 95
2, 55462, Control_c, 0, 64, 95
2, 55477, Control_c, 0, 64, 94
2, 55493, Control_c, 0, 64, 94
2, 55508, Control_c, 0, 64, 93
2, 55523, Control_c, 0, 64, 92
2, 55538, Control_c, 0, 64, 91
2, 55553, Control_c, 0, 64, 90
2, 55569, Control_c, 0, 64, 89
2, 55582, Note_on_c, 0, 40, 0
2, 55583, Control_c, 0, 64, 88
2, 55598, Control_c, 0, 64, 86
2, 55614, Control_c, 0, 64, 85
2, 55638, Control_c, 0, 64, 84
2, 55654, Control_c, 0, 64, 84
2, 55669, Control_c, 0, 64, 83
2, 55685, Control_c, 0, 64, 82
2, 55699, Control_c, 0, 64, 81
2, 55714, Control_c, 0, 64, 80
2, 55728, Note_on_c, 0, 76, 54
2, 55730, Control_c, 0, 64, 79
2, 55745, Control_c, 0, 64, 79
2, 55759, Control_c, 0, 64, 78
2, 55775, Control_c, 0, 64, 77
2, 55790, Control_c, 0, 64, 77
2, 55806, Control_c, 0, 64, 76
2, 55820, Control_c, 0, 64, 75
2, 55835, Control_c, 0, 64, 74
2, 55851, Control_c, 0, 64, 72
2, 55866, Control_c, 0, 64, 70
2, 55871, Note_on_c, 0, 60, 61
2, 55882, Control_c, 0, 64, 68
2, 55896, Control_c, 0, 64, 65
2, 55911, Control_c, 0, 64, 62
2, 55927, Control_c, 0, 64, 59
2, 55942, Control_c, 0, 64, 56
2, 55957, Control_c, 0, 64, 54
2, 55972, Control_c, 0, 64, 52
2, 55975, Note_on_c, 0, 60, 0
2, 55981, Note_on_c, 0, 59, 70
2, 55987, Control_c, 0, 64, 49
2, 56003, Control_c, 0, 64, 47
2, 56017, Control_c, 0, 64, 45
2, 56032, Control_c, 0, 64, 44
2, 56048, Control_c, 0, 64, 43
2, 56063, Control_c, 0, 64, 43
2, 56072, Note_on_c, 0, 57, 72
2, 56078, Control_c, 0, 64, 42
2, 56082, Note_on_c, 0, 59, 0
2, 56094, Control_c, 0, 64, 41
2, 56109, Control_c, 0, 64, 41
2, 56140, Control_c, 0, 64, 40
2, 56169, Note_on_c, 0, 57, 0
2, 56186, Note_on_c, 0, 76, 0
2, 56193, Note_on_c, 0, 56, 63
2, 56197, Note_on_c, 0, 64, 62
2, 56323, Control_c, 0, 64, 40
2, 56418, Note_on_c, 0, 56, 0
2, 56424, Note_on_c, 0, 61, 74
2, 56621, Note_on_c, 0, 64, 0
2, 56629, Note_on_c, 0, 61, 0
2, 56634, Note_on_c, 0, 65, 63
2, 56642, Note_on_c, 0, 62, 64
2, 56848, Control_c, 0, 64, 40
2, 56857, Note_on_c, 0, 58, 74
2, 56861, Note_on_c, 0, 62, 0
2, 56862, Control_c, 0, 64, 40
2, 56924, Control_c, 0, 64, 40
2, 57054, Note_on_c, 0, 58, 0
2, 57063, Note_on_c, 0, 57, 64
2, 57066, Note_on_c, 0, 66, 65
2, 57082, Note_on_c, 0, 65, 0
2, 57286, Note_on_c, 0, 57, 0
2, 57292, Note_on_c, 0, 63, 75
2, 57495, Note_on_c, 0, 63, 0
2, 57499, Note_on_c, 0, 64, 70
2, 57512, Note_on_c, 0, 67, 66
2, 57543, Note_on_c, 0, 66, 0
2, 57717, Note_on_c, 0, 60, 75
2, 57729, Note_on_c, 0, 64, 0
2, 57919, Note_on_c, 0, 67, 0
2, 57923, Note_on_c, 0, 59, 67
2, 57929, Note_on_c, 0, 60, 0
2, 57944, Note_on_c, 0, 68, 59
2, 58003, Control_c, 0, 64, 40
2, 58150, Note_on_c, 0, 59, 0
2, 58152, Note_on_c, 0, 65, 78
2, 58216, Control_c, 0, 64, 39
2, 58368, Note_on_c, 0, 68, 0
2, 58371, Note_on_c, 0, 69, 69
2, 58585, Note_on_c, 0, 65, 0
2, 58589, Note_on_c, 0, 64, 70
2, 58825, Note_on_c, 0, 71, 66
2, 58833, Note_on_c, 0, 69, 0
2, 59048, Note_on_c, 0, 62, 59
2, 59049, Note_on_c, 0, 64, 0
2, 59257, Note_on_c, 0, 71, 0
2, 59265, Note_on_c, 0, 62, 0
2, 59274, Note_on_c, 0, 69, 47
2, 59297, Note_on_c, 0, 72, 62
2, 59404, Note_on_c, 0, 77, 73
2, 59410, Note_on_c, 0, 72, 0
2, 59504, Note_on_c, 0, 76, 75
2, 59528, Note_on_c, 0, 77, 0
2, 59597, Note_on_c, 0, 74, 80
2, 59597, Note_on_c, 0, 76, 0
2, 59715, Note_on_c, 0, 74, 0
2, 59716, Note_on_c, 0, 73, 78
2, 59720, Note_on_c, 0, 57, 53
2, 59750, Note_on_c, 0, 69, 0
2, 59920, Note_on_c, 0, 78, 81
2, 59931, Note_on_c, 0, 73, 0
2, 60140, Note_on_c, 0, 79, 76
2, 60144, Note_on_c, 0, 78, 0
2, 60148, Note_on_c, 0, 57, 0
2, 60153, Note_on_c, 0, 58, 53
2, 60361, Note_on_c, 0, 75, 82
2, 60374, Note_on_c, 0, 79, 0
2, 60565, Note_on_c, 0, 75, 0
2, 60575, Note_on_c, 0, 74, 77
2, 60581, Note_on_c, 0, 59, 54
2, 60590, Note_on_c, 0, 58, 0
2, 60782, Note_on_c, 0, 80, 78
2, 60800, Note_on_c, 0, 74, 0
2, 60974, Note_on_c, 0, 59, 0
2, 61000, Note_on_c, 0, 81, 71
2, 61004, Note_on_c, 0, 60, 54
2, 61031, Note_on_c, 0, 80, 0
2, 61218, Note_on_c, 0, 77, 82
2, 61239, Note_on_c, 0, 81, 0
2, 61432, Note_on_c, 0, 61, 56
2, 61434, Note_on_c, 0, 60, 0
2, 61435, Note_on_c, 0, 77, 0
2, 61441, Note_on_c, 0, 76, 76
2, 61607, Control_c, 0, 64, 39
2, 61646, Note_on_c, 0, 76, 0
2, 61655, Note_on_c, 0, 82, 77
2, 61886, Note_on_c, 0, 62, 57
2, 61918, Note_on_c, 0, 61, 0
2, 62090, Note_on_c, 0, 81, 69
2, 62113, Note_on_c, 0, 82, 0
2, 62326, Note_on_c, 0, 64, 59
2, 62334, Note_on_c, 0, 62, 0
2, 62517, Note_on_c, 0, 79, 69
2, 62545, Note_on_c, 0, 81, 0
2, 62729, Note_on_c, 0, 64, 0
2, 62753, Note_on_c, 0, 79, 0
2, 62753, Note_on_c, 0, 81, 60
2, 62755, Note_on_c, 0, 65, 39
2, 62867, Note_on_c, 0, 79, 76
2, 62879, Note_on_c, 0, 81, 0
2, 62968, Note_on_c, 0, 77, 81
2, 62986, Note_on_c, 0, 79, 0
2, 63060, Note_on_c, 0, 76, 81
2, 63061, Note_on_c, 0, 77, 0
2, 63159, Note_on_c, 0, 76, 0
2, 63171, Note_on_c, 0, 77, 77
2, 63173, Note_on_c, 0, 65, 0
2, 63178, Note_on_c, 0, 62, 54
2, 63389, Note_on_c, 0, 70, 74
2, 63393, Note_on_c, 0, 77, 0
2, 63578, Note_on_c, 0, 70, 0
2, 63601, Note_on_c, 0, 69, 69
2, 63606, Note_on_c, 0, 60, 50
2, 63614, Note_on_c, 0, 62, 0
2, 63813, Note_on_c, 0, 76, 68
2, 63823, Note_on_c, 0, 69, 0
2, 64030, Note_on_c, 0, 60, 0
2, 64032, Note_on_c, 0, 59, 46
2, 64036, Note_on_c, 0, 76, 0
2, 64038, Note_on_c, 0, 74, 65
2, 64232, Note_on_c, 0, 74, 0
2, 64248, Note_on_c, 0, 68, 67
2, 64461, Note_on_c, 0, 57, 52
2, 64477, Note_on_c, 0, 59, 0
2, 64561, Note_on_c, 0, 74, 61
2, 64572, Note_on_c, 0, 68, 0
2, 64662, Note_on_c, 0, 72, 72
2, 64689, Note_on_c, 0, 74, 0
2, 64756, Note_on_c, 0, 71, 73
2, 64787, Note_on_c, 0, 72, 0
2, 64874, Note_on_c, 0, 71, 0
2, 64884, Note_on_c, 0, 69, 70
2, 64891, Note_on_c, 0, 60, 47
2, 64894, Note_on_c, 0, 57, 0
2, 65095, Note_on_c, 0, 69, 0
2, 65095, Note_on_c, 0, 76, 70
2, 65298, Note_on_c, 0, 60, 0
2, 65303, Note_on_c, 0, 76, 0
2, 65305, Note_on_c, 0, 74, 70
2, 65313, Note_on_c, 0, 59, 46
2, 65507, Note_on_c, 0, 74, 0
2, 65521, Note_on_c, 0, 67, 63
2, 65734, Note_on_c, 0, 67, 0
2, 65746, Note_on_c, 0, 59, 0
2, 65746, Note_on_c, 0, 66, 63
2, 65753, Note_on_c, 0, 57, 49
2, 65952, Note_on_c, 0, 66, 0
2, 65961, Note_on_c, 0, 72, 66
2, 66001, Control_c, 0, 64, 36
2, 66017, Control_c, 0, 64, 33
2, 66032, Control_c, 0, 64, 26
2, 66048, Control_c, 0, 64, 16
2, 66063, Control_c, 0, 64, 10
2, 66153, Control_c, 0, 64, 16
2, 66157, Note_on_c, 0, 57, 0
2, 66165, Note_on_c, 0, 72, 0
2, 66169, Control_c, 0, 64, 25
2, 66175, Note_on_c, 0, 71, 59
2, 66177, Note_on_c, 0, 55, 58
2, 66184, Control_c, 0, 64, 32
2, 66198, Control_c, 0, 64, 37
2, 66214, Control_c, 0, 64, 41
2, 66229, Control_c, 0, 64, 44
2, 66245, Control_c, 0, 64, 46
2, 66259, Control_c, 0, 64, 49
2, 66271, Note_on_c, 0, 55, 0
2, 66274, Control_c, 0, 64, 51
2, 66280, Note_on_c, 0, 59, 67
2, 66291, Control_c, 0, 64, 52
2, 66305, Control_c, 0, 64, 54
2, 66320, Control_c, 0, 64, 55
2, 66370, Note_on_c, 0, 60, 76
2, 66388, Note_on_c, 0, 59, 0
2, 66405, Control_c, 0, 64, 54
2, 66420, Control_c, 0, 64, 53
2, 66435, Control_c, 0, 64, 51
2, 66450, Control_c, 0, 64, 49
2, 66465, Control_c, 0, 64, 47
2, 66472, Note_on_c, 0, 60, 0
2, 66476, Note_on_c, 0, 62, 78
2, 66480, Control_c, 0, 64, 45
2, 66496, Control_c, 0, 64, 43
2, 66511, Control_c, 0, 64, 41
2, 66526, Control_c, 0, 64, 40
2, 66541, Control_c, 0, 64, 39
2, 66556, Control_c, 0, 64, 39
2, 66583, Note_on_c, 0, 62, 0
2, 66586, Control_c, 0, 64, 38
2, 66587, Note_on_c, 0, 79, 71
2, 66598, Note_on_c, 0, 64, 73
2, 66598, Note_on_c, 0, 71, 0
2, 66617, Control_c, 0, 64, 38
2, 66769, Control_c, 0, 64, 37
2, 66801, Note_on_c, 0, 58, 76
2, 66824, Note_on_c, 0, 64, 0
2, 67003, Note_on_c, 0, 77, 67
2, 67004, Note_on_c, 0, 57, 70
2, 67007, Note_on_c, 0, 79, 0
2, 67013, Note_on_c, 0, 58, 0
2, 67233, Note_on_c, 0, 57, 0
2, 67237, Note_on_c, 0, 62, 75
2, 67439, Note_on_c, 0, 61, 67
2, 67449, Note_on_c, 0, 62, 0
2, 67449, Note_on_c, 0, 77, 0
2, 67452, Note_on_c, 0, 76, 66
2, 67664, Note_on_c, 0, 61, 0
2, 67668, Note_on_c, 0, 55, 70
2, 67880, Note_on_c, 0, 74, 62
2, 67880, Note_on_c, 0, 76, 0
2, 67971, Note_on_c, 0, 55, 0
2, 68003, Note_on_c, 0, 67, 68
2, 68103, Note_on_c, 0, 65, 76
2, 68109, Note_on_c, 0, 67, 0
2, 68203, Note_on_c, 0, 64, 71
2, 68226, Note_on_c, 0, 65, 0
2, 68299, Note_on_c, 0, 64, 0
2, 68299, Note_on_c, 0, 77, 69
2, 68312, Note_on_c, 0, 62, 66
2, 68317, Note_on_c, 0, 74, 0
2, 68516, Note_on_c, 0, 62, 0
2, 68520, Note_on_c, 0, 68, 79
2, 68726, Note_on_c, 0, 68, 0
2, 68737, Note_on_c, 0, 76, 69
2, 68741, Note_on_c, 0, 77, 0
2, 68742, Note_on_c, 0, 69, 72
2, 68947, Note_on_c, 0, 69, 0
2, 68959, Note_on_c, 0, 60, 72
2, 69160, Note_on_c, 0, 60, 0
2, 69166, Note_on_c, 0, 59, 64
2, 69178, Note_on_c, 0, 76, 0
2, 69181, Note_on_c, 0, 74, 68
2, 69359, Note_on_c, 0, 59, 0
2, 69391, Note_on_c, 0, 65, 58
2, 69596, Note_on_c, 0, 65, 0
2, 69605, Note_on_c, 0, 64, 53
2, 69692, Note_on_c, 0, 64, 0
2, 69708, Note_on_c, 0, 62, 65
2, 69786, Note_on_c, 0, 62, 0
2, 69799, Note_on_c, 0, 60, 72
2, 69885, Note_on_c, 0, 60, 0
2, 69889, Note_on_c, 0, 59, 78
2, 70003, Note_on_c, 0, 57, 71
2, 70011, Note_on_c, 0, 59, 0
2, 70011, Note_on_c, 0, 74, 0
2, 70023, Note_on_c, 0, 72, 69
2, 70199, Note_on_c, 0, 57, 0
2, 70201, Note_on_c, 0, 72, 0
2, 70212, Note_on_c, 0, 71, 71
2, 70216, Note_on_c, 0, 56, 72
2, 70429, Note_on_c, 0, 71, 0
2, 70432, Note_on_c, 0, 56, 0
2, 70435, Note_on_c, 0, 57, 67
2, 70435, Note_on_c, 0, 72, 71
2, 70564, Control_c, 0, 64, 37
2, 70653, Note_on_c, 0, 53, 68
2, 70657, Note_on_c, 0, 57, 0
2, 70857, Note_on_c, 0, 73, 68
2, 70858, Note_on_c, 0, 53, 0
2, 70862, Note_on_c, 0, 52, 67
2, 70875, Note_on_c, 0, 72, 0
2, 71075, Note_on_c, 0, 52, 0
2, 71084, Note_on_c, 0, 58, 73
2, 71291, Note_on_c, 0, 58, 0
2, 71295, Note_on_c, 0, 59, 70
2, 71298, Note_on_c, 0, 74, 66
2, 71310, Note_on_c, 0, 73, 0
2, 71498, Note_on_c, 0, 55, 75
2, 71506, Note_on_c, 0, 59, 0
2, 71695, Note_on_c, 0, 74, 0
2, 71717, Note_on_c, 0, 55, 0
2, 71717, Note_on_c, 0, 75, 71
2, 71723, Note_on_c, 0, 54, 70
2, 71945, Control_c, 0, 64, 37
2, 71948, Note_on_c, 0, 60, 76
2, 71978, Note_on_c, 0, 54, 0
2, 72115, Note_on_c, 0, 75, 0
2, 72140, Note_on_c, 0, 76, 75
2, 72234, Control_c, 0, 64, 38
2, 72373, Note_on_c, 0, 59, 68
2, 72379, Note_on_c, 0, 60, 0
2, 72586, Note_on_c, 0, 78, 77
2, 72598, Note_on_c, 0, 76, 0
2, 72808, Note_on_c, 0, 57, 57
2, 72812, Note_on_c, 0, 59, 0
2, 73005, Note_on_c, 0, 79, 59
2, 73007, Note_on_c, 0, 78, 0
2, 73008, Note_on_c, 0, 64, 49
2, 73017, Note_on_c, 0, 57, 0
2, 73118, Note_on_c, 0, 77, 76
2, 73130, Note_on_c, 0, 79, 0
2, 73216, Note_on_c, 0, 76, 77
2, 73247, Note_on_c, 0, 77, 0
2, 73316, Note_on_c, 0, 76, 0
2, 73321, Note_on_c, 0, 74, 75
2, 73421, Note_on_c, 0, 74, 0
2, 73432, Note_on_c, 0, 73, 78
2, 73435, Note_on_c, 0, 52, 56
2, 73478, Note_on_c, 0, 64, 0
2, 73637, Note_on_c, 0, 80, 80
2, 73674, Note_on_c, 0, 73, 0
2, 73800, Control_c, 0, 64, 37
2, 73863, Note_on_c, 0, 81, 70
2, 73864, Note_on_c, 0, 53, 52
2, 73907, Note_on_c, 0, 52, 0
2, 73908, Note_on_c, 0, 80, 0
2, 74028, Control_c, 0, 64, 37
2, 74081, Control_c, 0, 64, 36
2, 74091, Note_on_c, 0, 75, 83
2, 74097, Control_c, 0, 64, 36
2, 74111, Control_c, 0, 64, 35
2, 74114, Note_on_c, 0, 81, 0
2, 74157, Control_c, 0, 64, 35
2, 74218, Control_c, 0, 64, 34
2, 74293, Note_on_c, 0, 75, 0
2, 74303, Note_on_c, 0, 74, 77
2, 74307, Note_on_c, 0, 54, 55
2, 74324, Control_c, 0, 64, 34
2, 74328, Note_on_c, 0, 53, 0
2, 74370, Control_c, 0, 64, 33
2, 74445, Control_c, 0, 64, 33
2, 74477, Control_c, 0, 64, 32
2, 74513, Note_on_c, 0, 82, 82
2, 74549, Note_on_c, 0, 74, 0
2, 74553, Control_c, 0, 64, 32
2, 74709, Note_on_c, 0, 54, 0
2, 74732, Note_on_c, 0, 55, 55
2, 74732, Note_on_c, 0, 82, 0
2, 74732, Note_on_c, 0, 83, 78
2, 74940, Control_c, 0, 64, 31
2, 74962, Note_on_c, 0, 77, 83
2, 74967, Note_on_c, 0, 83, 0
2, 75108, Control_c, 0, 64, 31
2, 75182, Note_on_c, 0, 56, 57
2, 75189, Note_on_c, 0, 77, 0
2, 75190, Note_on_c, 0, 76, 78
2, 75205, Note_on_c, 0, 55, 0
2, 75291, Control_c, 0, 64, 30
2, 75405, Note_on_c, 0, 76, 0
2, 75419, Note_on_c, 0, 74, 78
2, 75628, Note_on_c, 0, 57, 62
2, 75658, Note_on_c, 0, 56, 0
2, 75855, Note_on_c, 0, 72, 65
2, 75855, Note_on_c, 0, 74, 0
2, 76058, Note_on_c, 0, 59, 60
2, 76060, Note_on_c, 0, 57, 0
2, 76287, Control_c, 0, 64, 29
2, 76303, Control_c, 0, 64, 24
2, 76307, Note_on_c, 0, 71, 62
2, 76308, Note_on_c, 0, 72, 0
2, 76318, Control_c, 0, 64, 16
2, 76334, Control_c, 0, 64, 14
2, 76348, Control_c, 0, 64, 12
2, 76492, Note_on_c, 0, 59, 0
2, 76499, Note_on_c, 0, 60, 57
2, 76710, Note_on_c, 0, 71, 0
2, 76734, Note_on_c, 0, 69, 64
2, 76812, Note_on_c, 0, 69, 0
2, 76824, Note_on_c, 0, 71, 71
2, 76911, Note_on_c, 0, 71, 0
2, 76931, Note_on_c, 0, 57, 58
2, 76934, Note_on_c, 0, 72, 70
2, 76937, Note_on_c, 0, 60, 0
2, 77117, Note_on_c, 0, 72, 0
2, 77144, Note_on_c, 0, 63, 74
2, 77356, Note_on_c, 0, 63, 0
2, 77360, Note_on_c, 0, 55, 52
2, 77370, Note_on_c, 0, 57, 0
2, 77376, Note_on_c, 0, 64, 69
2, 77589, Note_on_c, 0, 73, 69
2, 77603, Note_on_c, 0, 64, 0
2, 77780, Note_on_c, 0, 55, 0
2, 77786, Note_on_c, 0, 73, 0
2, 77797, Note_on_c, 0, 53, 52
2, 77797, Note_on_c, 0, 74, 63
2, 77977, Note_on_c, 0, 74, 0
2, 78006, Note_on_c, 0, 65, 60
2, 78030, Control_c, 0, 64, 10
2, 78186, Note_on_c, 0, 53, 0
2, 78190, Note_on_c, 0, 65, 0
2, 78203, Note_on_c, 0, 52, 52
2, 78206, Note_on_c, 0, 67, 57
2, 78303, Note_on_c, 0, 53, 73
2, 78308, Note_on_c, 0, 52, 0
2, 78403, Note_on_c, 0, 55, 73
2, 78420, Note_on_c, 0, 53, 0
2, 78499, Note_on_c, 0, 55, 0
2, 78503, Note_on_c, 0, 57, 79
2, 78630, Note_on_c, 0, 58, 78
2, 78632, Note_on_c, 0, 57, 0
2, 78634, Note_on_c, 0, 74, 65
2, 78648, Note_on_c, 0, 67, 0
2, 78863, Note_on_c, 0, 53, 73
2, 78880, Note_on_c, 0, 58, 0
2, 79063, Note_on_c, 0, 74, 0
2, 79071, Note_on_c, 0, 73, 65
2, 79080, Note_on_c, 0, 52, 69
2, 79102, Note_on_c, 0, 53, 0
2, 79284, Note_on_c, 0, 52, 0
2, 79295, Note_on_c, 0, 57, 74
2, 79506, Note_on_c, 0, 70, 57
2, 79506, Note_on_c, 0, 73, 0
2, 79516, Note_on_c, 0, 55, 63
2, 79523, Note_on_c, 0, 57, 0
2, 79718, Note_on_c, 0, 55, 0
2, 79723, Note_on_c, 0, 50, 70
2, 79945, Note_on_c, 0, 49, 62
2, 79946, Note_on_c, 0, 50, 0
2, 80045, Note_on_c, 0, 69, 63
2, 80088, Note_on_c, 0, 70, 0
2, 80116, Note_on_c, 0, 69, 0
2, 80137, Note_on_c, 0, 67, 68
2, 80221, Note_on_c, 0, 67, 0
2, 80240, Note_on_c, 0, 69, 80
2, 80360, Note_on_c, 0, 69, 0
2, 80366, Note_on_c, 0, 49, 0
2, 80370, Note_on_c, 0, 70, 73
2, 80381, Note_on_c, 0, 55, 55
2, 80577, Note_on_c, 0, 61, 69
2, 80577, Note_on_c, 0, 70, 0
2, 80766, Note_on_c, 0, 61, 0
2, 80796, Note_on_c, 0, 55, 0
2, 80798, Note_on_c, 0, 62, 67
2, 80813, Note_on_c, 0, 53, 51
2, 81013, Note_on_c, 0, 62, 0
2, 81013, Note_on_c, 0, 71, 71
2, 81214, Note_on_c, 0, 53, 0
2, 81217, Note_on_c, 0, 71, 0
2, 81227, Note_on_c, 0, 72, 72
2, 81229, Note_on_c, 0, 52, 48
2, 81421, Note_on_c, 0, 72, 0
2, 81431, Note_on_c, 0, 64, 63
2, 81635, Note_on_c, 0, 52, 0
2, 81650, Note_on_c, 0, 64, 0
2, 81653, Note_on_c, 0, 66, 58
2, 81658, Note_on_c, 0, 50, 55
2, 81760, Note_on_c, 0, 52, 69
2, 81763, Note_on_c, 0, 50, 0
2, 81856, Note_on_c, 0, 54, 76
2, 81862, Note_on_c, 0, 52, 0
2, 81959, Note_on_c, 0, 54, 0
2, 81960, Note_on_c, 0, 55, 77
2, 82058, Note_on_c, 0, 55, 0
2, 82069, Note_on_c, 0, 57, 72
2, 82085, Note_on_c, 0, 72, 64
2, 82089, Note_on_c, 0, 66, 0
2, 82283, Note_on_c, 0, 51, 73
2, 82305, Note_on_c, 0, 57, 0
2, 82500, Note_on_c, 0, 50, 60
2, 82505, Note_on_c, 0, 51, 0
2, 82519, Note_on_c, 0, 71, 69
2, 82530, Note_on_c, 0, 72, 0
2, 82714, Note_on_c, 0, 50, 0
2, 82724, Note_on_c, 0, 55, 63
2, 82924, Note_on_c, 0, 55, 0
2, 82925, Note_on_c, 0, 54, 60
2, 82938, Note_on_c, 0, 69, 62
2, 82949, Note_on_c, 0, 71, 0
2, 83114, Note_on_c, 0, 54, 0
2, 83124, Note_on_c, 0, 48, 62
2, 83353, Note_on_c, 0, 47, 60
2, 83390, Note_on_c, 0, 48, 0
2, 83472, Note_on_c, 0, 69, 0
2, 83481, Note_on_c, 0, 67, 72
2, 83599, Note_on_c, 0, 69, 79
2, 83639, Note_on_c, 0, 67, 0
2, 83686, Note_on_c, 0, 69, 0
2, 83699, Note_on_c, 0, 71, 81
2, 83821, Note_on_c, 0, 71, 0
2, 83827, Note_on_c, 0, 72, 80
2, 83837, Note_on_c, 0, 52, 57
2, 83874, Note_on_c, 0, 47, 0
2, 84080, Note_on_c, 0, 67, 77
2, 84080, Note_on_c, 0, 72, 0
2, 84293, Note_on_c, 0, 66, 75
2, 84294, Note_on_c, 0, 67, 0
2, 84296, Note_on_c, 0, 51, 57
2, 84330, Note_on_c, 0, 52, 0
2, 84506, Note_on_c, 0, 70, 78
2, 84507, Note_on_c, 0, 66, 0
2, 84710, Note_on_c, 0, 70, 0
2, 84717, Note_on_c, 0, 71, 72
2, 84721, Note_on_c, 0, 50, 49
2, 84729, Note_on_c, 0, 51, 0
2, 84943, Note_on_c, 0, 65, 73
2, 84951, Note_on_c, 0, 71, 0
2, 85156, Note_on_c, 0, 50, 0
2, 85159, Note_on_c, 0, 49, 46
2, 85169, Note_on_c, 0, 65, 0
2, 85170, Note_on_c, 0, 64, 69
2, 85364, Note_on_c, 0, 64, 0
2, 85371, Note_on_c, 0, 68, 71
2, 85560, Note_on_c, 0, 49, 0
2, 85576, Note_on_c, 0, 68, 0
2, 85594, Note_on_c, 0, 69, 67
2, 85604, Note_on_c, 0, 48, 43
2, 85802, Note_on_c, 0, 69, 0
2, 85814, Note_on_c, 0, 63, 73
2, 86046, Note_on_c, 0, 47, 58
2, 86061, Note_on_c, 0, 48, 0
2, 86253, Note_on_c, 0, 64, 68
2, 86274, Note_on_c, 0, 63, 0
2, 86501, Note_on_c, 0, 45, 63
2, 86508, Note_on_c, 0, 47, 0
2, 86685, Note_on_c, 0, 66, 60
2, 86686, Note_on_c, 0, 64, 0
2, 86887, Note_on_c, 0, 66, 0
2, 86905, Control_c, 0, 64, 12
2, 86906, Note_on_c, 0, 59, 60
2, 86921, Control_c, 0, 64, 15
2, 86936, Control_c, 0, 64, 19
2, 86951, Control_c, 0, 64, 24
2, 86966, Control_c, 0, 64, 27
2, 86981, Control_c, 0, 64, 31
2, 86997, Control_c, 0, 64, 35
2, 87012, Control_c, 0, 64, 39
2, 87018, Note_on_c, 0, 45, 0
2, 87018, Note_on_c, 0, 48, 68
2, 87027, Control_c, 0, 64, 42
2, 87043, Control_c, 0, 64, 44
2, 87058, Control_c, 0, 64, 46
2, 87073, Control_c, 0, 64, 48
2, 87085, Note_on_c, 0, 59, 0
2, 87088, Control_c, 0, 64, 50
2, 87103, Control_c, 0, 64, 52
2, 87119, Control_c, 0, 64, 52
2, 87133, Note_on_c, 0, 47, 70
2, 87141, Control_c, 0, 64, 53
2, 87146, Note_on_c, 0, 48, 0
2, 87217, Control_c, 0, 64, 52
2, 87218, Note_on_c, 0, 45, 71
2, 87224, Note_on_c, 0, 47, 0
2, 87232, Control_c, 0, 64, 50
2, 87247, Control_c, 0, 64, 49
2, 87262, Control_c, 0, 64, 47
2, 87278, Control_c, 0, 64, 45
2, 87293, Control_c, 0, 64, 43
2, 87308, Control_c, 0, 64, 41
2, 87324, Control_c, 0, 64, 39
2, 87324, Note_on_c, 0, 45, 0
2, 87328, Note_on_c, 0, 76, 69
2, 87336, Note_on_c, 0, 44, 67
2, 87339, Control_c, 0, 64, 38
2, 87353, Control_c, 0, 64, 37
2, 87369, Control_c, 0, 64, 36
2, 87384, Control_c, 0, 64, 35
2, 87400, Control_c, 0, 64, 34
2, 87415, Control_c, 0, 64, 33
2, 87429, Control_c, 0, 64, 33
2, 87460, Control_c, 0, 64, 32
2, 87555, Note_on_c, 0, 44, 0
2, 87555, Note_on_c, 0, 49, 66
2, 87740, Note_on_c, 0, 76, 0
2, 87761, Note_on_c, 0, 77, 67
2, 87764, Note_on_c, 0, 49, 0
2, 87773, Note_on_c, 0, 50, 68
2, 87993, Note_on_c, 0, 46, 73
2, 88009, Note_on_c, 0, 50, 0
2, 88192, Note_on_c, 0, 46, 0
2, 88193, Note_on_c, 0, 45, 62
2, 88197, Note_on_c, 0, 78, 69
2, 88232, Note_on_c, 0, 77, 0
2, 88349, Control_c, 0, 64, 32
2, 88415, Note_on_c, 0, 51, 75
2, 88416, Note_on_c, 0, 45, 0
2, 88426, Control_c, 0, 64, 31
2, 88457, Control_c, 0, 64, 31
2, 88502, Control_c, 0, 64, 30
2, 88578, Control_c, 0, 64, 30
2, 88629, Note_on_c, 0, 79, 70
2, 88637, Note_on_c, 0, 51, 0
2, 88640, Note_on_c, 0, 52, 69
2, 88669, Note_on_c, 0, 78, 0
2, 88708, Control_c, 0, 64, 29
2, 88843, Note_on_c, 0, 48, 75
2, 88849, Note_on_c, 0, 52, 0
2, 89040, Note_on_c, 0, 79, 0
2, 89042, Control_c, 0, 64, 29
2, 89051, Note_on_c, 0, 80, 78
2, 89068, Note_on_c, 0, 47, 67
2, 89072, Control_c, 0, 64, 28
2, 89073, Note_on_c, 0, 48, 0
2, 89088, Control_c, 0, 64, 27
2, 89119, Control_c, 0, 64, 26
2, 89148, Control_c, 0, 64, 26
2, 89179, Control_c, 0, 64, 25
2, 89209, Control_c, 0, 64, 24
2, 89241, Control_c, 0, 64, 24
2, 89256, Control_c, 0, 64, 23
2, 89277, Note_on_c, 0, 47, 0
2, 89283, Note_on_c, 0, 53, 77
2, 89286, Control_c, 0, 64, 22
2, 89317, Control_c, 0, 64, 21
2, 89346, Control_c, 0, 64, 20
2, 89480, Note_on_c, 0, 80, 0
2, 89482, Note_on_c, 0, 81, 73
2, 89696, Note_on_c, 0, 52, 71
2, 89708, Note_on_c, 0, 53, 0
2, 89911, Note_on_c, 0, 83, 75
2, 89950, Note_on_c, 0, 81, 0
2, 90117, Note_on_c, 0, 50, 71
2, 90118, Note_on_c, 0, 52, 0
2, 90338, Note_on_c, 0, 50, 0
2, 90357, Note_on_c, 0, 48, 66
2, 90563, Control_c, 0, 64, 19
2, 90574, Note_on_c, 0, 83, 0
2, 90580, Note_on_c, 0, 81, 68
2, 90668, Note_on_c, 0, 81, 0
2, 90673, Note_on_c, 0, 83, 80
2, 90749, Note_on_c, 0, 83, 0
2, 90767, Note_on_c, 0, 84, 76
2, 90775, Note_on_c, 0, 52, 54
2, 90837, Note_on_c, 0, 48, 0
2, 90871, Note_on_c, 0, 84, 0
2, 90995, Note_on_c, 0, 76, 74
2, 91220, Note_on_c, 0, 54, 64
2, 91237, Note_on_c, 0, 52, 0
2, 91424, Note_on_c, 0, 75, 75
2, 91462, Note_on_c, 0, 76, 0
2, 91554, Note_on_c, 0, 75, 0
2, 91638, Note_on_c, 0, 83, 78
2, 91644, Note_on_c, 0, 56, 53
2, 91675, Note_on_c, 0, 54, 0
2, 91847, Note_on_c, 0, 83, 0
2, 91856, Note_on_c, 0, 74, 68
2, 92041, Note_on_c, 0, 56, 0
2, 92059, Note_on_c, 0, 57, 62
2, 92109, Note_on_c, 0, 74, 0
2, 92161, Note_on_c, 0, 72, 74
2, 92252, Note_on_c, 0, 74, 74
2, 92267, Note_on_c, 0, 72, 0
2, 92330, Note_on_c, 0, 74, 0
2, 92336, Note_on_c, 0, 76, 75
2, 92439, Note_on_c, 0, 76, 0
2, 92445, Note_on_c, 0, 77, 80
2, 92466, Note_on_c, 0, 45, 52
2, 92467, Note_on_c, 0, 57, 0
2, 92539, Note_on_c, 0, 77, 0
2, 92694, Note_on_c, 0, 69, 73
2, 92908, Note_on_c, 0, 45, 0
2, 92919, Note_on_c, 0, 47, 59
2, 93129, Note_on_c, 0, 69, 0
2, 93133, Note_on_c, 0, 68, 70
2, 93357, Note_on_c, 0, 47, 0
2, 93359, Note_on_c, 0, 68, 0
2, 93360, Note_on_c, 0, 49, 51
2, 93363, Note_on_c, 0, 76, 68
2, 93526, Note_on_c, 0, 76, 0
2, 93564, Note_on_c, 0, 67, 66
2, 93769, Note_on_c, 0, 49, 0
2, 93787, Note_on_c, 0, 50, 61
2, 93842, Note_on_c, 0, 67, 0
2, 93882, Note_on_c, 0, 65, 67
2, 93979, Note_on_c, 0, 67, 75
2, 93991, Note_on_c, 0, 65, 0
2, 94067, Note_on_c, 0, 67, 0
2, 94075, Note_on_c, 0, 69, 76
2, 94189, Note_on_c, 0, 69, 0
2, 94189, Note_on_c, 0, 70, 75
2, 94204, Note_on_c, 0, 38, 48
2, 94241, Note_on_c, 0, 50, 0
2, 94411, Note_on_c, 0, 62, 74
2, 94425, Note_on_c, 0, 70, 0
2, 94634, Note_on_c, 0, 38, 0
2, 94638, Note_on_c, 0, 40, 59
2, 94827, Note_on_c, 0, 62, 0
2, 94839, Note_on_c, 0, 61, 71
2, 95054, Note_on_c, 0, 61, 0
2, 95070, Note_on_c, 0, 69, 67
2, 95079, Note_on_c, 0, 52, 51
2, 95153, Note_on_c, 0, 40, 0
2, 95245, Note_on_c, 0, 69, 0
2, 95300, Note_on_c, 0, 60, 73
2, 95514, Note_on_c, 0, 51, 64
2, 95524, Note_on_c, 0, 52, 0
2, 95683, Note_on_c, 0, 60, 0
2, 95730, Note_on_c, 0, 59, 70
2, 95949, Note_on_c, 0, 50, 44
2, 95949, Note_on_c, 0, 68, 69
2, 95961, Note_on_c, 0, 51, 0
2, 95968, Note_on_c, 0, 59, 0
2, 96153, Note_on_c, 0, 68, 0
2, 96158, Note_on_c, 0, 59, 71
2, 96392, Note_on_c, 0, 49, 52
2, 96406, Note_on_c, 0, 50, 0
2, 96590, Note_on_c, 0, 57, 63
2, 96597, Note_on_c, 0, 59, 0
2, 96757, Note_on_c, 0, 57, 0
2, 96793, Note_on_c, 0, 49, 0
2, 96812, Note_on_c, 0, 65, 64
2, 96818, Note_on_c, 0, 48, 45
2, 96967, Note_on_c, 0, 65, 0
2, 97026, Note_on_c, 0, 57, 64
2, 97264, Note_on_c, 0, 48, 0
2, 97269, Note_on_c, 0, 47, 43
2, 97492, Note_on_c, 0, 57, 0
2, 97508, Note_on_c, 0, 56, 60
2, 97595, Note_on_c, 0, 56, 0
2, 97604, Note_on_c, 0, 54, 62
2, 97657, Note_on_c, 0, 47, 0
2, 97708, Note_on_c, 0, 54, 0
2, 97711, Note_on_c, 0, 47, 37
2, 97726, Note_on_c, 0, 56, 63
2, 97893, Note_on_c, 0, 56, 0
2, 97951, Note_on_c, 0, 62, 70
2, 97979, Control_c, 0, 64, 20
2, 98169, Note_on_c, 0, 45, 58
2, 98196, Note_on_c, 0, 47, 0
2, 98260, Note_on_c, 0, 62, 0
2, 98261, Note_on_c, 0, 60, 73
2, 98354, Note_on_c, 0, 60, 0
2, 98365, Note_on_c, 0, 59, 75
2, 98438, Note_on_c, 0, 59, 0
2, 98455, Note_on_c, 0, 57, 72
2, 98511, Note_on_c, 0, 45, 0
2, 98544, Note_on_c, 0, 57, 0
2, 98561, Note_on_c, 0, 59, 74
2, 98577, Note_on_c, 0, 45, 60
2, 98671, Note_on_c, 0, 59, 0
2, 98780, Note_on_c, 0, 65, 84
2, 98822, Control_c, 0, 64, 19
2, 98853, Control_c, 0, 64, 20
2, 98898, Control_c, 0, 64, 19
2, 98928, Control_c, 0, 64, 20
2, 98977, Note_on_c, 0, 44, 67
2, 98989, Control_c, 0, 64, 19
2, 99000, Note_on_c, 0, 45, 0
2, 99004, Control_c, 0, 64, 20
2, 99081, Control_c, 0, 64, 19
2, 99103, Note_on_c, 0, 64, 76
2, 99112, Control_c, 0, 64, 20
2, 99121, Note_on_c, 0, 65, 0
2, 99188, Note_on_c, 0, 64, 0
2, 99192, Note_on_c, 0, 62, 78
2, 99280, Note_on_c, 0, 62, 0
2, 99286, Note_on_c, 0, 61, 76
2, 99325, Note_on_c, 0, 44, 0
2, 99353, Note_on_c, 0, 61, 0
2, 99386, Note_on_c, 0, 62, 78
2, 99395, Note_on_c, 0, 44, 67
2, 99506, Note_on_c, 0, 62, 0
2, 99604, Note_on_c, 0, 71, 86
2, 99821, Note_on_c, 0, 40, 65
2, 99901, Note_on_c, 0, 44, 0
2, 99931, Note_on_c, 0, 69, 79
2, 99935, Note_on_c, 0, 71, 0
2, 100027, Note_on_c, 0, 69, 0
2, 100031, Note_on_c, 0, 68, 85
2, 100111, Note_on_c, 0, 68, 0
2, 100126, Note_on_c, 0, 66, 78
2, 100154, Note_on_c, 0, 40, 0
2, 100230, Note_on_c, 0, 66, 0
2, 100236, Note_on_c, 0, 68, 80
2, 100244, Note_on_c, 0, 40, 60
2, 100434, Note_on_c, 0, 68, 0
2, 100488, Note_on_c, 0, 74, 83
2, 100737, Note_on_c, 0, 40, 0
2, 100739, Note_on_c, 0, 45, 63
2, 101017, Note_on_c, 0, 72, 71
2, 101020, Note_on_c, 0, 74, 0
2, 101104, Note_on_c, 0, 71, 75
2, 101114, Control_c, 0, 64, 21
2, 101120, Note_on_c, 0, 72, 0
2, 101188, Note_on_c, 0, 71, 0
2, 101205, Note_on_c, 0, 72, 82
2, 101309, Note_on_c, 0, 50, 73
2, 101310, Note_on_c, 0, 45, 0
2, 101386, Note_on_c, 0, 72, 0
2, 101391, Note_on_c, 0, 52, 69
2, 101404, Note_on_c, 0, 69, 73
2, 101416, Note_on_c, 0, 50, 0
2, 101490, Note_on_c, 0, 54, 80
2, 101495, Note_on_c, 0, 52, 0
2, 101582, Note_on_c, 0, 54, 0
2, 101591, Note_on_c, 0, 55, 72
2, 101613, Note_on_c, 0, 69, 0
2, 101618, Note_on_c, 0, 70, 75
2, 101829, Note_on_c, 0, 51, 76
2, 101847, Note_on_c, 0, 55, 0
2, 102059, Note_on_c, 0, 51, 0
2, 102061, Note_on_c, 0, 50, 62
2, 102061, Note_on_c, 0, 71, 73
2, 102086, Note_on_c, 0, 70, 0
2, 102274, Note_on_c, 0, 50, 0
2, 102276, Note_on_c, 0, 56, 73
2, 102482, Note_on_c, 0, 57, 71
2, 102494, Note_on_c, 0, 56, 0
2, 102503, Note_on_c, 0, 72, 72
2, 102521, Note_on_c, 0, 71, 0
2, 102706, Note_on_c, 0, 53, 78
2, 102709, Note_on_c, 0, 57, 0
2, 102917, Note_on_c, 0, 72, 0
2, 102922, Note_on_c, 0, 73, 78
2, 102925, Note_on_c, 0, 53, 0
2, 102927, Note_on_c, 0, 52, 72
2, 103120, Note_on_c, 0, 52, 0
2, 103132, Note_on_c, 0, 58, 83
2, 103337, Note_on_c, 0, 73, 0
2, 103357, Note_on_c, 0, 74, 78
2, 103572, Note_on_c, 0, 57, 76
2, 103577, Note_on_c, 0, 58, 0
2, 103794, Note_on_c, 0, 76, 77
2, 103817, Note_on_c, 0, 74, 0
2, 104022, Note_on_c, 0, 55, 71
2, 104039, Note_on_c, 0, 57, 0
2, 104253, Note_on_c, 0, 53, 68
2, 104253, Note_on_c, 0, 55, 0
2, 104395, Note_on_c, 0, 52, 62
2, 104397, Note_on_c, 0, 76, 0
2, 104400, Note_on_c, 0, 73, 70
2, 104401, Note_on_c, 0, 53, 0
2, 104495, Note_on_c, 0, 73, 0
2, 104507, Note_on_c, 0, 52, 0
2, 104507, Note_on_c, 0, 74, 77
2, 104509, Note_on_c, 0, 53, 65
2, 104586, Note_on_c, 0, 53, 0
2, 104592, Note_on_c, 0, 55, 69
2, 104594, Note_on_c, 0, 76, 80
2, 104608, Note_on_c, 0, 74, 0
2, 104693, Note_on_c, 0, 55, 0
2, 104694, Note_on_c, 0, 76, 0
2, 104702, Note_on_c, 0, 77, 81
2, 104711, Note_on_c, 0, 57, 68
2, 104931, Note_on_c, 0, 72, 86
2, 104941, Note_on_c, 0, 77, 0
2, 105143, Note_on_c, 0, 56, 64
2, 105145, Note_on_c, 0, 57, 0
2, 105145, Note_on_c, 0, 71, 81
2, 105145, Note_on_c, 0, 72, 0
2, 105352, Note_on_c, 0, 75, 85
2, 105378, Note_on_c, 0, 71, 0
2, 105575, Note_on_c, 0, 75, 0
2, 105575, Note_on_c, 0, 76, 77
2, 105585, Note_on_c, 0, 55, 59
2, 105609, Note_on_c, 0, 56, 0
2, 105793, Note_on_c, 0, 70, 76
2, 105795, Note_on_c, 0, 76, 0
2, 106006, Note_on_c, 0, 55, 0
2, 106011, Note_on_c, 0, 70, 0
2, 106019, Note_on_c, 0, 54, 58
2, 106022, Note_on_c, 0, 69, 75
2, 106235, Note_on_c, 0, 73, 71
2, 106246, Note_on_c, 0, 69, 0
2, 106445, Note_on_c, 0, 54, 0
2, 106454, Note_on_c, 0, 73, 0
2, 106457, Note_on_c, 0, 74, 65
2, 106474, Note_on_c, 0, 53, 52
2, 106678, Note_on_c, 0, 68, 75
2, 106683, Note_on_c, 0, 74, 0
2, 106901, Note_on_c, 0, 52, 63
2, 106907, Note_on_c, 0, 53, 0
2, 107120, Note_on_c, 0, 69, 73
2, 107170, Note_on_c, 0, 68, 0
2, 107339, Note_on_c, 0, 50, 68
2, 107354, Note_on_c, 0, 52, 0
2, 107551, Note_on_c, 0, 71, 73
2, 107564, Control_c, 0, 64, 22
2, 107568, Note_on_c, 0, 69, 0
2, 107736, Note_on_c, 0, 71, 0
2, 107765, Note_on_c, 0, 64, 70
2, 108014, Note_on_c, 0, 64, 0
2, 108019, Note_on_c, 0, 50, 0
2, 108031, Note_on_c, 0, 48, 54
2, 108031, Note_on_c, 0, 76, 73
2, 108150, Note_on_c, 0, 47, 64
2, 108154, Note_on_c, 0, 48, 0
2, 108267, Note_on_c, 0, 47, 0
2, 108275, Note_on_c, 0, 48, 64
2, 108379, Note_on_c, 0, 76, 0
2, 108384, Note_on_c, 0, 74, 71
2, 108526, Note_on_c, 0, 48, 0
2, 108528, Note_on_c, 0, 45, 56
2, 108533, Note_on_c, 0, 74, 0
2, 108541, Note_on_c, 0, 72, 74
2, 108670, Note_on_c, 0, 72, 0
2, 108697, Note_on_c, 0, 71, 72
2, 108850, Note_on_c, 0, 45, 0
2, 108854, Note_on_c, 0, 52, 48
2, 108869, Note_on_c, 0, 71, 0
2, 108872, Note_on_c, 0, 74, 71
2, 109057, Note_on_c, 0, 74, 0
2, 109069, Note_on_c, 0, 72, 72
2, 109198, Note_on_c, 0, 72, 0
2, 109199, Note_on_c, 0, 71, 75
2, 109279, Note_on_c, 0, 71, 0
2, 109314, Note_on_c, 0, 69, 77
2, 109445, Note_on_c, 0, 69, 0
2, 109446, Note_on_c, 0, 52, 0
2, 109446, Note_on_c, 0, 72, 74
2, 109450, Note_on_c, 0, 40, 49
2, 109570, Note_on_c, 0, 72, 0
2, 109573, Note_on_c, 0, 71, 73
2, 109703, Note_on_c, 0, 71, 0
2, 109709, Note_on_c, 0, 69, 77
2, 109840, Note_on_c, 0, 69, 0
2, 109863, Note_on_c, 0, 68, 70
2, 110016, Note_on_c, 0, 68, 0
2, 110046, Note_on_c, 0, 69, 66
2, 110052, Note_on_c, 0, 45, 47
2, 110076, Note_on_c, 0, 40, 0
2, 110114, Note_on_c, 0, 69, 0
2, 110127, Note_on_c, 0, 68, 70
2, 110198, Note_on_c, 0, 68, 0
2, 110214, Note_on_c, 0, 69, 69
2, 110401, Note_on_c, 0, 47, 68
2, 110443, Note_on_c, 0, 45, 0
2, 110530, Note_on_c, 0, 48, 74
2, 110534, Note_on_c, 0, 47, 0
2, 110649, Note_on_c, 0, 48, 0
2, 110655, Note_on_c, 0, 50, 72
2, 110772, Note_on_c, 0, 50, 0
2, 110789, Note_on_c, 0, 52, 72
2, 110935, Note_on_c, 0, 54, 70
2, 110939, Note_on_c, 0, 52, 0
2, 111119, Note_on_c, 0, 54, 0
2, 111119, Note_on_c, 0, 56, 65
2, 111290, Note_on_c, 0, 56, 0
2, 111325, Note_on_c, 0, 57, 58
2, 111391, Note_on_c, 0, 57, 0
2, 111394, Note_on_c, 0, 56, 63
2, 111405, Control_c, 0, 64, 21
2, 111450, Note_on_c, 0, 56, 0
2, 111473, Note_on_c, 0, 57, 58
2, 111807, Control_c, 0, 64, 20
2, 111838, Control_c, 0, 64, 19
2, 111868, Control_c, 0, 64, 18
2, 111913, Control_c, 0, 64, 17
2, 112406, Note_on_c, 0, 45, 45
2, 112443, Note_on_c, 0, 57, 0
2, 114427, Note_on_c, 0, 45, 0
2, 114440, Note_on_c, 0, 69, 0
2, 115519, Note_on_c, 0, 64, 87
2, 115583, Note_on_c, 0, 65, 14
2, 115584, Note_on_c, 0, 65, 0
2, 116325, Note_on_c, 0, 64, 0
2, 116364, Note_on_c, 0, 60, 90
2, 117146, Note_on_c, 0, 60, 0
2, 117167, Note_on_c, 0, 65, 93
2, 117884, Note_on_c, 0, 65, 0
2, 117929, Note_on_c, 0, 56, 93
2, 119114, Note_on_c, 0, 56, 0
2, 119443, Note_on_c, 0, 62, 84
2, 119483, Note_on_c, 0, 62, 0
2, 119763, Note_on_c, 0, 59, 88
2, 119812, Note_on_c, 0, 59, 0
2, 120063, Note_on_c, 0, 64, 85
2, 120120, Note_on_c, 0, 64, 0
2, 120366, Note_on_c, 0, 60, 84
2, 120416, Note_on_c, 0, 60, 0
2, 120664, Note_on_c, 0, 57, 79
2, 120714, Note_on_c, 0, 57, 0
2, 120962, Note_on_c, 0, 69, 96
2, 120965, Note_on_c, 0, 54, 84
2, 121025, Note_on_c, 0, 54, 0
2, 121272, Note_on_c, 0, 63, 84
2, 121329, Note_on_c, 0, 63, 0
2, 121517, Note_on_c, 0, 69, 0
2, 121547, Note_on_c, 0, 52, 81
2, 121561, Note_on_c, 0, 67, 97
2, 121602, Note_on_c, 0, 52, 0
2, 121866, Note_on_c, 0, 64, 80
2, 121920, Note_on_c, 0, 64, 0
2, 121932, Note_on_c, 0, 62, 79
2, 122008, Note_on_c, 0, 60, 71
2, 122048, Note_on_c, 0, 62, 0
2, 122072, Note_on_c, 0, 59, 80
2, 122080, Note_on_c, 0, 67, 0
2, 122095, Note_on_c, 0, 60, 0
2, 122115, Note_on_c, 0, 67, 22
2, 122130, Note_on_c, 0, 59, 0
2, 122160, Note_on_c, 0, 67, 0
2, 122176, Note_on_c, 0, 57, 62
2, 122183, Note_on_c, 0, 72, 97
2, 122244, Note_on_c, 0, 57, 0
2, 122485, Note_on_c, 0, 60, 81
2, 122539, Note_on_c, 0, 60, 0
2, 122549, Note_on_c, 0, 59, 82
2, 122627, Note_on_c, 0, 57, 74
2, 122670, Note_on_c, 0, 59, 0
2, 122693, Note_on_c, 0, 55, 79
2, 122703, Note_on_c, 0, 57, 0
2, 122751, Note_on_c, 0, 55, 0
2, 122766, Control_c, 0, 64, 8
2, 122775, Note_on_c, 0, 72, 0
2, 122781, Control_c, 0, 64, 0
2, 122781, Note_on_c, 0, 63, 97
2, 122783, Note_on_c, 0, 54, 83
2, 122842, Note_on_c, 0, 54, 0
2, 122855, Note_on_c, 0, 55, 81
2, 122919, Note_on_c, 0, 55, 0
2, 122927, Note_on_c, 0, 57, 84
2, 123120, Note_on_c, 0, 57, 0
2, 123154, Note_on_c, 0, 55, 66
2, 123231, Note_on_c, 0, 54, 70
2, 123268, Note_on_c, 0, 55, 0
2, 123292, Note_on_c, 0, 52, 74
2, 123295, Note_on_c, 0, 54, 0
2, 123354, Note_on_c, 0, 52, 0
2, 123365, Note_on_c, 0, 51, 90
2, 123425, Note_on_c, 0, 51, 0
2, 123432, Note_on_c, 0, 52, 83
2, 123508, Note_on_c, 0, 52, 0
2, 123518, Note_on_c, 0, 54, 83
2, 123768, Note_on_c, 0, 54, 0
2, 123775, Note_on_c, 0, 52, 68
2, 123843, Note_on_c, 0, 51, 73
2, 123859, Note_on_c, 0, 63, 0
2, 123883, Note_on_c, 0, 52, 0
2, 123901, Note_on_c, 0, 51, 0
2, 123906, Note_on_c, 0, 49, 73
2, 123974, Note_on_c, 0, 47, 85
2, 123989, Note_on_c, 0, 49, 0
2, 124281, Note_on_c, 0, 69, 94
2, 124323, Note_on_c, 0, 69, 0
2, 124469, Note_on_c, 0, 47, 0
2, 124473, Note_on_c, 0, 49, 63
2, 124538, Note_on_c, 0, 51, 69
2, 124554, Note_on_c, 0, 49, 0
2, 124597, Note_on_c, 0, 51, 0
2, 124599, Note_on_c, 0, 52, 77
2, 124601, Note_on_c, 0, 66, 90
2, 124649, Note_on_c, 0, 66, 0
2, 124681, Note_on_c, 0, 52, 0
2, 124686, Note_on_c, 0, 51, 79
2, 124766, Note_on_c, 0, 51, 0
2, 124775, Note_on_c, 0, 52, 78
2, 124845, Note_on_c, 0, 52, 0
2, 124857, Note_on_c, 0, 51, 72
2, 124909, Note_on_c, 0, 71, 95
2, 124920, Note_on_c, 0, 51, 0
2, 124929, Note_on_c, 0, 52, 77
2, 124947, Note_on_c, 0, 71, 0
2, 124993, Note_on_c, 0, 51, 73
2, 124995, Note_on_c, 0, 52, 0
2, 125054, Note_on_c, 0, 51, 0
2, 125056, Note_on_c, 0, 49, 71
2, 125140, Note_on_c, 0, 51, 71
2, 125145, Note_on_c, 0, 49, 0
2, 125193, Note_on_c, 0, 51, 0
2, 125212, Note_on_c, 0, 52, 83
2, 125217, Note_on_c, 0, 67, 97
2, 125263, Note_on_c, 0, 67, 0
2, 125447, Note_on_c, 0, 52, 0
2, 125558, Note_on_c, 0, 64, 90
2, 125602, Note_on_c, 0, 64, 0
2, 125621, Note_on_c, 0, 52, 80
2, 125662, Note_on_c, 0, 52, 0
2, 125679, Note_on_c, 0, 53, 85
2, 125754, Note_on_c, 0, 53, 0
2, 125758, Note_on_c, 0, 55, 84
2, 125822, Note_on_c, 0, 55, 0
2, 125844, Note_on_c, 0, 57, 90
2, 125867, Note_on_c, 0, 61, 89
2, 125918, Note_on_c, 0, 61, 0
2, 126133, Note_on_c, 0, 57, 0
2, 126186, Note_on_c, 0, 69, 90
2, 126220, Note_on_c, 0, 69, 0
2, 126255, Note_on_c, 0, 55, 86
2, 126327, Note_on_c, 0, 55, 0
2, 126339, Note_on_c, 0, 53, 81
2, 126410, Note_on_c, 0, 52, 76
2, 126445, Note_on_c, 0, 53, 0
2, 126487, Note_on_c, 0, 50, 89
2, 126488, Note_on_c, 0, 52, 0
2, 126493, Note_on_c, 0, 65, 90
2, 126530, Note_on_c, 0, 65, 0
2, 126770, Note_on_c, 0, 50, 0
2, 126826, Note_on_c, 0, 62, 82
2, 126863, Note_on_c, 0, 62, 0
2, 126897, Note_on_c, 0, 50, 77
2, 126967, Note_on_c, 0, 52, 75
2, 126973, Note_on_c, 0, 50, 0
2, 127043, Note_on_c, 0, 52, 0
2, 127045, Note_on_c, 0, 53, 81
2, 127134, Note_on_c, 0, 53, 0
2, 127135, Note_on_c, 0, 59, 84
2, 127147, Note_on_c, 0, 55, 81
2, 127170, Note_on_c, 0, 59, 0
2, 127427, Note_on_c, 0, 55, 0
2, 127452, Note_on_c, 0, 67, 74
2, 127479, Note_on_c, 0, 67, 0
2, 127532, Note_on_c, 0, 53, 70
2, 127603, Note_on_c, 0, 53, 0
2, 127608, Note_on_c, 0, 52, 73
2, 127664, Note_on_c, 0, 50, 71
2, 127669, Note_on_c, 0, 52, 0
2, 127751, Note_on_c, 0, 64, 86
2, 127752, Note_on_c, 0, 50, 0
2, 127767, Note_on_c, 0, 48, 79
2, 127790, Note_on_c, 0, 64, 0
2, 128069, Note_on_c, 0, 69, 91
2, 128121, Note_on_c, 0, 69, 0
2, 128251, Note_on_c, 0, 50, 73
2, 128279, Note_on_c, 0, 48, 0
2, 128384, Note_on_c, 0, 76, 101
2, 128400, Note_on_c, 0, 52, 77
2, 128418, Note_on_c, 0, 50, 0
2, 128544, Note_on_c, 0, 52, 0
2, 128568, Note_on_c, 0, 53, 74
2, 128638, Note_on_c, 0, 53, 0
2, 128651, Note_on_c, 0, 52, 73
2, 128714, Note_on_c, 0, 68, 79
2, 128732, Note_on_c, 0, 50, 75
2, 128753, Note_on_c, 0, 52, 0
2, 128770, Note_on_c, 0, 68, 0
2, 128878, Note_on_c, 0, 52, 78
2, 128895, Note_on_c, 0, 76, 0
2, 128926, Note_on_c, 0, 50, 0
2, 129023, Note_on_c, 0, 72, 105
2, 129026, Note_on_c, 0, 52, 0
2, 129029, Note_on_c, 0, 53, 80
2, 129037, Note_on_c, 0, 57, 78
2, 129094, Control_c, 0, 64, 32
2, 129107, Control_c, 0, 64, 45
2, 129122, Control_c, 0, 64, 52
2, 129138, Control_c, 0, 64, 57
2, 129147, Note_on_c, 0, 57, 0
2, 129153, Control_c, 0, 64, 61
2, 129168, Control_c, 0, 64, 63
2, 129183, Control_c, 0, 64, 64
2, 129198, Control_c, 0, 64, 64
2, 129274, Control_c, 0, 64, 64
2, 129289, Control_c, 0, 64, 63
2, 129304, Control_c, 0, 64, 62
2, 129304, Note_on_c, 0, 69, 74
2, 129319, Control_c, 0, 64, 60
2, 129335, Control_c, 0, 64, 54
2, 129350, Control_c, 0, 64, 44
2, 129363, Note_on_c, 0, 69, 0
2, 129374, Control_c, 0, 64, 24
2, 129388, Note_on_c, 0, 67, 84
2, 129389, Control_c, 0, 64, 0
2, 129401, Note_on_c, 0, 72, 0
2, 129410, Note_on_c, 0, 67, 0
2, 129446, Note_on_c, 0, 65, 83
2, 129507, Note_on_c, 0, 65, 0
2, 129522, Note_on_c, 0, 64, 83
2, 129607, Note_on_c, 0, 62, 82
2, 129618, Note_on_c, 0, 77, 99
2, 129630, Note_on_c, 0, 53, 0
2, 129640, Note_on_c, 0, 64, 0
2, 129836, Note_on_c, 0, 62, 0
2, 129933, Note_on_c, 0, 65, 74
2, 129965, Note_on_c, 0, 77, 0
2, 129987, Note_on_c, 0, 65, 0
2, 130006, Note_on_c, 0, 64, 81
2, 130082, Note_on_c, 0, 62, 75
2, 130106, Note_on_c, 0, 64, 0
2, 130161, Note_on_c, 0, 62, 0
2, 130180, Note_on_c, 0, 60, 80
2, 130226, Note_on_c, 0, 60, 0
2, 130244, Note_on_c, 0, 68, 87
2, 130245, Note_on_c, 0, 59, 81
2, 130315, Note_on_c, 0, 60, 70
2, 130323, Note_on_c, 0, 59, 0
2, 130394, Note_on_c, 0, 60, 0
2, 130398, Note_on_c, 0, 62, 79
2, 130550, Note_on_c, 0, 53, 85
2, 130603, Note_on_c, 0, 53, 0
2, 130628, Note_on_c, 0, 68, 0
2, 130635, Note_on_c, 0, 60, 75
2, 130648, Note_on_c, 0, 62, 0
2, 130685, Note_on_c, 0, 60, 0
2, 130715, Note_on_c, 0, 59, 69
2, 130745, Note_on_c, 0, 59, 0
2, 130781, Note_on_c, 0, 57, 78
2, 130846, Note_on_c, 0, 57, 0
2, 130855, Note_on_c, 0, 47, 87
2, 130857, Note_on_c, 0, 56, 81
2, 130905, Note_on_c, 0, 47, 0
2, 130907, Note_on_c, 0, 56, 0
2, 130941, Note_on_c, 0, 57, 78
2, 130999, Note_on_c, 0, 57, 0
2, 131021, Note_on_c, 0, 59, 76
2, 131167, Note_on_c, 0, 50, 90
2, 131200, Note_on_c, 0, 50, 0
2, 131209, Note_on_c, 0, 59, 0
2, 131238, Note_on_c, 0, 57, 78
2, 131317, Note_on_c, 0, 56, 75
2, 131323, Note_on_c, 0, 57, 0
2, 131388, Note_on_c, 0, 56, 0
2, 131391, Note_on_c, 0, 54, 85
2, 131448, Note_on_c, 0, 54, 0
2, 131471, Note_on_c, 0, 52, 88
2, 131476, Note_on_c, 0, 44, 76
2, 131506, Note_on_c, 0, 44, 0
2, 131773, Note_on_c, 0, 74, 100
2, 131782, Note_on_c, 0, 47, 65
2, 131811, Note_on_c, 0, 74, 0
2, 131829, Note_on_c, 0, 47, 0
2, 131920, Note_on_c, 0, 52, 0
2, 131948, Note_on_c, 0, 54, 68
2, 132017, Note_on_c, 0, 56, 66
2, 132040, Note_on_c, 0, 54, 0
2, 132072, Note_on_c, 0, 56, 0
2, 132082, Note_on_c, 0, 52, 56
2, 132082, Note_on_c, 0, 57, 74
2, 132082, Note_on_c, 0, 71, 96
2, 132133, Note_on_c, 0, 71, 0
2, 132152, Note_on_c, 0, 57, 0
2, 132159, Note_on_c, 0, 56, 73
2, 132235, Note_on_c, 0, 56, 0
2, 132243, Note_on_c, 0, 57, 80
2, 132314, Note_on_c, 0, 57, 0
2, 132318, Note_on_c, 0, 56, 72
2, 132394, Note_on_c, 0, 56, 0
2, 132406, Note_on_c, 0, 76, 98
2, 132412, Note_on_c, 0, 57, 76
2, 132445, Note_on_c, 0, 76, 0
2, 132486, Note_on_c, 0, 57, 0
2, 132493, Note_on_c, 0, 56, 72
2, 132554, Note_on_c, 0, 56, 0
2, 132573, Note_on_c, 0, 54, 64
2, 132613, Note_on_c, 0, 52, 0
2, 132642, Note_on_c, 0, 56, 76
2, 132650, Note_on_c, 0, 54, 0
2, 132691, Note_on_c, 0, 56, 0
2, 132727, Note_on_c, 0, 57, 95
2, 132727, Note_on_c, 0, 72, 92
2, 132736, Note_on_c, 0, 45, 82
2, 132775, Note_on_c, 0, 72, 0
2, 132902, Note_on_c, 0, 45, 0
2, 133050, Note_on_c, 0, 69, 93
2, 133051, Note_on_c, 0, 57, 0
2, 133092, Note_on_c, 0, 69, 0
2, 133128, Note_on_c, 0, 57, 86
2, 133203, Note_on_c, 0, 59, 82
2, 133204, Note_on_c, 0, 57, 0
2, 133273, Note_on_c, 0, 60, 89
2, 133284, Note_on_c, 0, 59, 0
2, 133344, Note_on_c, 0, 60, 0
2, 133361, Note_on_c, 0, 66, 97
2, 133363, Note_on_c, 0, 62, 89
2, 133421, Note_on_c, 0, 66, 0
2, 133626, Note_on_c, 0, 62, 0
2, 133688, Note_on_c, 0, 54, 73
2, 133689, Note_on_c, 0, 74, 97
2, 133727, Note_on_c, 0, 74, 0
2, 133755, Note_on_c, 0, 54, 0
2, 133773, Note_on_c, 0, 60, 79
2, 133833, Note_on_c, 0, 60, 0
2, 133846, Note_on_c, 0, 59, 83
2, 133925, Note_on_c, 0, 57, 78
2, 133968, Note_on_c, 0, 59, 0
2, 134005, Note_on_c, 0, 71, 93
2, 134007, Note_on_c, 0, 55, 90
2, 134016, Note_on_c, 0, 57, 0
2, 134051, Note_on_c, 0, 71, 0
2, 134225, Note_on_c, 0, 55, 0
2, 134321, Note_on_c, 0, 67, 80
2, 134364, Note_on_c, 0, 67, 0
2, 134390, Note_on_c, 0, 55, 66
2, 134456, Note_on_c, 0, 57, 71
2, 134461, Note_on_c, 0, 55, 0
2, 134532, Note_on_c, 0, 57, 0
2, 134535, Note_on_c, 0, 59, 75
2, 134605, Note_on_c, 0, 64, 86
2, 134607, Note_on_c, 0, 59, 0
2, 134616, Note_on_c, 0, 60, 86
2, 134648, Note_on_c, 0, 64, 0
2, 134902, Note_on_c, 0, 60, 0
2, 134929, Note_on_c, 0, 72, 83
2, 134948, Note_on_c, 0, 52, 53
2, 134965, Note_on_c, 0, 72, 0
2, 135011, Note_on_c, 0, 58, 65
2, 135025, Note_on_c, 0, 52, 0
2, 135073, Note_on_c, 0, 58, 0
2, 135094, Note_on_c, 0, 57, 69
2, 135152, Note_on_c, 0, 57, 0
2, 135165, Note_on_c, 0, 55, 61
2, 135227, Note_on_c, 0, 69, 81
2, 135257, Note_on_c, 0, 55, 0
2, 135265, Note_on_c, 0, 53, 59
2, 135378, Note_on_c, 0, 65, 73
2, 135540, Note_on_c, 0, 53, 0
2, 135549, Note_on_c, 0, 55, 59
2, 135552, Note_on_c, 0, 71, 77
2, 135579, Note_on_c, 0, 65, 0
2, 135583, Note_on_c, 0, 69, 0
2, 135695, Note_on_c, 0, 65, 72
2, 135801, Note_on_c, 0, 65, 0
2, 135841, Note_on_c, 0, 71, 0
2, 135843, Note_on_c, 0, 72, 73
2, 135851, Note_on_c, 0, 57, 59
2, 135854, Note_on_c, 0, 55, 0
2, 135928, Note_on_c, 0, 64, 71
2, 135994, Note_on_c, 0, 64, 0
2, 136000, Note_on_c, 0, 65, 68
2, 136067, Note_on_c, 0, 65, 0
2, 136071, Note_on_c, 0, 67, 71
2, 136133, Note_on_c, 0, 67, 0
2, 136151, Note_on_c, 0, 57, 0
2, 136152, Note_on_c, 0, 69, 65
2, 136159, Note_on_c, 0, 55, 67
2, 136228, Note_on_c, 0, 67, 71
2, 136239, Note_on_c, 0, 69, 0
2, 136282, Note_on_c, 0, 67, 0
2, 136307, Note_on_c, 0, 65, 72
2, 136331, Note_on_c, 0, 55, 0
2, 136339, Note_on_c, 0, 65, 0
2, 136380, Note_on_c, 0, 64, 75
2, 136407, Note_on_c, 0, 64, 0
2, 136410, Note_on_c, 0, 72, 0
2, 136454, Note_on_c, 0, 62, 75
2, 136459, Note_on_c, 0, 53, 73
2, 136469, Control_c, 0, 64, 26
2, 136484, Control_c, 0, 64, 37
2, 136500, Control_c, 0, 64, 47
2, 136514, Control_c, 0, 64, 55
2, 136529, Note_on_c, 0, 72, 72
2, 136530, Control_c, 0, 64, 60
2, 136545, Control_c, 0, 64, 61
2, 136606, Control_c, 0, 64, 60
2, 136607, Note_on_c, 0, 74, 74
2, 136614, Note_on_c, 0, 72, 0
2, 136621, Control_c, 0, 64, 59
2, 136636, Control_c, 0, 64, 58
2, 136652, Control_c, 0, 64, 56
2, 136658, Note_on_c, 0, 74, 0
2, 136667, Control_c, 0, 64, 54
2, 136671, Note_on_c, 0, 76, 77
2, 136682, Control_c, 0, 64, 51
2, 136698, Control_c, 0, 64, 47
2, 136712, Control_c, 0, 64, 44
2, 136726, Note_on_c, 0, 53, 0
2, 136728, Control_c, 0, 64, 39
2, 136743, Control_c, 0, 64, 33
2, 136745, Note_on_c, 0, 76, 0
2, 136747, Note_on_c, 0, 50, 68
2, 136755, Note_on_c, 0, 77, 80
2, 136758, Control_c, 0, 64, 28
2, 136774, Control_c, 0, 64, 26
2, 136789, Control_c, 0, 64, 24
2, 136804, Control_c, 0, 64, 24
2, 136834, Note_on_c, 0, 76, 75
2, 136835, Control_c, 0, 64, 23
2, 136836, Note_on_c, 0, 77, 0
2, 136896, Note_on_c, 0, 76, 0
2, 136900, Note_on_c, 0, 74, 65
2, 136910, Control_c, 0, 64, 22
2, 136954, Note_on_c, 0, 74, 0
2, 136970, Note_on_c, 0, 72, 62
2, 136994, Note_on_c, 0, 62, 0
2, 136997, Note_on_c, 0, 72, 0
2, 137056, Note_on_c, 0, 71, 80
2, 137064, Note_on_c, 0, 55, 65
2, 137136, Note_on_c, 0, 62, 71
2, 137178, Note_on_c, 0, 50, 0
2, 137212, Note_on_c, 0, 62, 0
2, 137213, Note_on_c, 0, 64, 72
2, 137260, Note_on_c, 0, 55, 0
2, 137275, Note_on_c, 0, 64, 0
2, 137275, Note_on_c, 0, 65, 73
2, 137322, Note_on_c, 0, 71, 0
2, 137340, Note_on_c, 0, 65, 0
2, 137342, Note_on_c, 0, 53, 95
2, 137354, Note_on_c, 0, 67, 68
2, 137354, Note_on_c, 0, 71, 24
2, 137409, Note_on_c, 0, 53, 0
2, 137418, Note_on_c, 0, 65, 75
2, 137457, Note_on_c, 0, 67, 0
2, 137490, Note_on_c, 0, 65, 0
2, 137503, Note_on_c, 0, 64, 72
2, 137510, Control_c, 0, 64, 21
2, 137524, Control_c, 0, 64, 22
2, 137538, Note_on_c, 0, 64, 0
2, 137575, Note_on_c, 0, 62, 77
2, 137612, Note_on_c, 0, 62, 0
2, 137616, Note_on_c, 0, 71, 0
2, 137650, Note_on_c, 0, 52, 94
2, 137654, Note_on_c, 0, 60, 94
2, 137678, Control_c, 0, 64, 21
2, 137771, Control_c, 0, 64, 20
2, 137975, Note_on_c, 0, 55, 78
2, 137981, Note_on_c, 0, 84, 83
2, 138017, Note_on_c, 0, 55, 0
2, 138017, Note_on_c, 0, 60, 0
2, 138061, Note_on_c, 0, 83, 79
2, 138072, Note_on_c, 0, 84, 0
2, 138097, Control_c, 0, 64, 21
2, 138119, Note_on_c, 0, 60, 43
2, 138129, Note_on_c, 0, 81, 72
2, 138140, Note_on_c, 0, 83, 0
2, 138195, Note_on_c, 0, 81, 0
2, 138201, Note_on_c, 0, 60, 0
2, 138211, Note_on_c, 0, 79, 72
2, 138225, Note_on_c, 0, 52, 0
2, 138252, Note_on_c, 0, 79, 0
2, 138273, Note_on_c, 0, 77, 87
2, 138278, Note_on_c, 0, 57, 94
2, 138298, Note_on_c, 0, 60, 80
2, 138315, Note_on_c, 0, 77, 0
2, 138323, Note_on_c, 0, 60, 0
2, 138591, Control_c, 0, 64, 22
2, 138606, Note_on_c, 0, 65, 79
2, 138609, Note_on_c, 0, 81, 73
2, 138636, Control_c, 0, 64, 21
2, 138654, Note_on_c, 0, 65, 0
2, 138671, Note_on_c, 0, 57, 0
2, 138691, Note_on_c, 0, 79, 75
2, 138697, Control_c, 0, 64, 22
2, 138716, Note_on_c, 0, 81, 0
2, 138759, Note_on_c, 0, 77, 79
2, 138781, Note_on_c, 0, 79, 0
2, 138828, Note_on_c, 0, 77, 0
2, 138834, Control_c, 0, 64, 21
2, 138834, Note_on_c, 0, 76, 63
2, 138850, Control_c, 0, 64, 0
2, 138884, Note_on_c, 0, 76, 0
2, 138891, Note_on_c, 0, 74, 90
2, 138895, Note_on_c, 0, 47, 96
2, 138967, Note_on_c, 0, 76, 85
2, 138969, Note_on_c, 0, 74, 0
2, 138984, Control_c, 0, 64, 40
2, 138999, Control_c, 0, 64, 47
2, 139014, Control_c, 0, 64, 51
2, 139029, Control_c, 0, 64, 53
2, 139032, Note_on_c, 0, 76, 0
2, 139056, Note_on_c, 0, 77, 23
2, 139089, Control_c, 0, 64, 52
2, 139105, Control_c, 0, 64, 50
2, 139120, Control_c, 0, 64, 46
2, 139136, Control_c, 0, 64, 41
2, 139151, Control_c, 0, 64, 34
2, 139165, Control_c, 0, 64, 25
2, 139182, Control_c, 0, 64, 8
2, 139197, Control_c, 0, 64, 0
2, 139210, Note_on_c, 0, 69, 93
2, 139288, Note_on_c, 0, 76, 79
2, 139297, Note_on_c, 0, 69, 0
2, 139303, Note_on_c, 0, 47, 0
2, 139317, Note_on_c, 0, 77, 0
2, 139364, Note_on_c, 0, 74, 76
2, 139395, Note_on_c, 0, 76, 0
2, 139431, Note_on_c, 0, 74, 0
2, 139437, Note_on_c, 0, 72, 80
2, 139495, Note_on_c, 0, 72, 0
2, 139512, Note_on_c, 0, 62, 88
2, 139516, Note_on_c, 0, 71, 81
2, 139548, Note_on_c, 0, 62, 0
2, 139553, Note_on_c, 0, 71, 0
2, 139587, Note_on_c, 0, 72, 84
2, 139645, Note_on_c, 0, 72, 0
2, 139674, Note_on_c, 0, 74, 83
2, 139817, Note_on_c, 0, 65, 84
2, 139868, Note_on_c, 0, 65, 0
2, 139905, Note_on_c, 0, 72, 80
2, 139906, Note_on_c, 0, 74, 0
2, 139968, Note_on_c, 0, 71, 76
2, 139992, Note_on_c, 0, 72, 0
2, 140046, Note_on_c, 0, 71, 0
2, 140051, Note_on_c, 0, 69, 79
2, 140109, Note_on_c, 0, 69, 0
2, 140122, Note_on_c, 0, 59, 97
2, 140125, Note_on_c, 0, 67, 84
2, 140168, Note_on_c, 0, 59, 0
2, 140433, Note_on_c, 0, 62, 87
2, 140437, Note_on_c, 0, 53, 92
2, 140478, Note_on_c, 0, 53, 0
2, 140490, Note_on_c, 0, 67, 0
2, 140557, Note_on_c, 0, 62, 0
2, 140618, Note_on_c, 0, 69, 76
2, 140669, Note_on_c, 0, 69, 0
2, 140685, Note_on_c, 0, 71, 74
2, 140749, Note_on_c, 0, 50, 90
2, 140751, Note_on_c, 0, 71, 0
2, 140759, Note_on_c, 0, 72, 83
2, 140769, Note_on_c, 0, 65, 76
2, 140794, Note_on_c, 0, 50, 0
2, 140820, Note_on_c, 0, 65, 0
2, 140821, Note_on_c, 0, 72, 0
2, 140829, Note_on_c, 0, 71, 73
2, 140897, Note_on_c, 0, 71, 0
2, 140914, Note_on_c, 0, 72, 79
2, 140978, Note_on_c, 0, 72, 0
2, 140991, Note_on_c, 0, 71, 67
2, 141054, Note_on_c, 0, 71, 0
2, 141067, Note_on_c, 0, 55, 89
2, 141068, Note_on_c, 0, 72, 79
2, 141080, Note_on_c, 0, 62, 65
2, 141103, Note_on_c, 0, 55, 0
2, 141113, Note_on_c, 0, 62, 0
2, 141150, Note_on_c, 0, 71, 74
2, 141153, Note_on_c, 0, 72, 0
2, 141192, Note_on_c, 0, 71, 0
2, 141223, Note_on_c, 0, 69, 79
2, 141284, Note_on_c, 0, 69, 0
2, 141314, Note_on_c, 0, 71, 70
2, 141359, Note_on_c, 0, 71, 0
2, 141378, Note_on_c, 0, 52, 78
2, 141378, Note_on_c, 0, 72, 96
2, 141385, Note_on_c, 0, 67, 81
2, 141479, Note_on_c, 0, 67, 0
2, 141695, Note_on_c, 0, 60, 96
2, 141725, Note_on_c, 0, 72, 0
2, 141750, Note_on_c, 0, 60, 0
2, 141798, Note_on_c, 0, 52, 0
2, 141883, Note_on_c, 0, 52, 76
2, 141950, Note_on_c, 0, 54, 79
2, 141971, Note_on_c, 0, 52, 0
2, 142005, Note_on_c, 0, 57, 93
2, 142024, Note_on_c, 0, 54, 0
2, 142028, Note_on_c, 0, 55, 82
2, 142055, Note_on_c, 0, 57, 0
2, 142093, Note_on_c, 0, 55, 0
2, 142112, Note_on_c, 0, 54, 73
2, 142169, Note_on_c, 0, 54, 0
2, 142171, Note_on_c, 0, 55, 81
2, 142249, Note_on_c, 0, 55, 0
2, 142260, Note_on_c, 0, 54, 71
2, 142313, Note_on_c, 0, 62, 92
2, 142318, Note_on_c, 0, 54, 0
2, 142320, Note_on_c, 0, 55, 78
2, 142360, Note_on_c, 0, 62, 0
2, 142389, Note_on_c, 0, 54, 72
2, 142395, Note_on_c, 0, 55, 0
2, 142470, Note_on_c, 0, 54, 0
2, 142479, Note_on_c, 0, 52, 69
2, 142546, Note_on_c, 0, 54, 58
2, 142553, Note_on_c, 0, 52, 0
2, 142609, Note_on_c, 0, 59, 93
2, 142627, Note_on_c, 0, 54, 0
2, 142630, Note_on_c, 0, 55, 74
2, 142894, Note_on_c, 0, 59, 0
2, 142904, Note_on_c, 0, 55, 0
2, 142909, Note_on_c, 0, 52, 69
2, 142921, Note_on_c, 0, 67, 92
2, 142954, Note_on_c, 0, 52, 0
2, 142976, Note_on_c, 0, 67, 0
2, 143082, Note_on_c, 0, 59, 74
2, 143164, Note_on_c, 0, 59, 0
2, 143165, Note_on_c, 0, 61, 70
2, 143214, Note_on_c, 0, 57, 49
2, 143230, Note_on_c, 0, 64, 90
2, 143234, Note_on_c, 0, 61, 0
2, 143247, Note_on_c, 0, 62, 73
2, 143274, Note_on_c, 0, 64, 0
2, 143323, Note_on_c, 0, 62, 0
2, 143327, Note_on_c, 0, 61, 72
2, 143401, Note_on_c, 0, 61, 0
2, 143409, Note_on_c, 0, 62, 76
2, 143483, Note_on_c, 0, 61, 71
2, 143483, Note_on_c, 0, 62, 0
2, 143539, Note_on_c, 0, 69, 94
2, 143559, Note_on_c, 0, 61, 0
2, 143570, Note_on_c, 0, 62, 76
2, 143571, Note_on_c, 0, 69, 0
2, 143578, Control_c, 0, 64, 8
2, 143629, Note_on_c, 0, 61, 68
2, 143634, Note_on_c, 0, 62, 0
2, 143695, Note_on_c, 0, 61, 0
2, 143703, Note_on_c, 0, 59, 69
2, 143767, Note_on_c, 0, 57, 0
2, 143779, Note_on_c, 0, 61, 65
2, 143799, Note_on_c, 0, 59, 0
2, 143804, Control_c, 0, 64, 10
2, 143834, Note_on_c, 0, 61, 0
2, 143839, Note_on_c, 0, 66, 93
2, 143842, Note_on_c, 0, 62, 83
2, 144126, Note_on_c, 0, 62, 0
2, 144146, Note_on_c, 0, 50, 81
2, 144188, Note_on_c, 0, 66, 0
2, 144217, Note_on_c, 0, 50, 0
2, 144308, Note_on_c, 0, 66, 71
2, 144366, Note_on_c, 0, 66, 0
2, 144371, Note_on_c, 0, 68, 75
2, 144428, Note_on_c, 0, 68, 0
2, 144446, Note_on_c, 0, 69, 74
2, 144448, Note_on_c, 0, 47, 80
2, 144504, Note_on_c, 0, 69, 0
2, 144511, Note_on_c, 0, 47, 0
2, 144528, Note_on_c, 0, 68, 75
2, 144581, Note_on_c, 0, 68, 0
2, 144598, Note_on_c, 0, 69, 75
2, 144662, Note_on_c, 0, 69, 0
2, 144679, Note_on_c, 0, 68, 65
2, 144724, Note_on_c, 0, 68, 0
2, 144744, Note_on_c, 0, 69, 65
2, 144745, Note_on_c, 0, 52, 83
2, 144803, Note_on_c, 0, 69, 0
2, 144807, Note_on_c, 0, 52, 0
2, 144810, Note_on_c, 0, 68, 75
2, 144867, Note_on_c, 0, 68, 0
2, 144888, Note_on_c, 0, 66, 72
2, 144926, Note_on_c, 0, 66, 0
2, 144954, Note_on_c, 0, 68, 73
2, 145014, Note_on_c, 0, 68, 0
2, 145028, Note_on_c, 0, 69, 86
2, 145032, Note_on_c, 0, 48, 84
2, 145085, Note_on_c, 0, 48, 0
2, 145191, Note_on_c, 0, 69, 0
2, 145193, Note_on_c, 0, 71, 72
2, 145259, Note_on_c, 0, 71, 0
2, 145260, Note_on_c, 0, 72, 79
2, 145298, Note_on_c, 0, 72, 0
2, 145342, Note_on_c, 0, 74, 79
2, 145351, Note_on_c, 0, 45, 78
2, 145390, Note_on_c, 0, 45, 0
2, 145405, Note_on_c, 0, 74, 0
2, 145405, Note_on_c, 0, 76, 82
2, 145472, Note_on_c, 0, 78, 81
2, 145476, Note_on_c, 0, 76, 0
2, 145544, Note_on_c, 0, 80, 81
2, 145548, Note_on_c, 0, 78, 0
2, 145629, Note_on_c, 0, 81, 92
2, 145640, Note_on_c, 0, 42, 88
2, 145644, Note_on_c, 0, 80, 0
2, 145711, Note_on_c, 0, 42, 0
2, 145815, Note_on_c, 0, 72, 73
2, 145907, Note_on_c, 0, 72, 0
2, 145963, Note_on_c, 0, 71, 66
2, 145969, Note_on_c, 0, 51, 79
2, 146026, Note_on_c, 0, 51, 0
2, 146033, Note_on_c, 0, 71, 0
2, 146107, Note_on_c, 0, 78, 82
2, 146113, Note_on_c, 0, 81, 0
2, 146169, Control_c, 0, 64, 0
2, 146203, Note_on_c, 0, 78, 0
2, 146262, Note_on_c, 0, 79, 91
2, 146265, Note_on_c, 0, 40, 83
2, 146328, Control_c, 0, 64, 37
2, 146344, Control_c, 0, 64, 53
2, 146359, Control_c, 0, 64, 60
2, 146361, Note_on_c, 0, 40, 0
2, 146375, Control_c, 0, 64, 65
2, 146390, Control_c, 0, 64, 69
2, 146405, Control_c, 0, 64, 76
2, 146420, Control_c, 0, 64, 85
2, 146435, Control_c, 0, 64, 101
2, 146444, Note_on_c, 0, 71, 76
2, 146450, Control_c, 0, 64, 119
2, 146465, Control_c, 0, 64, 127
2, 146480, Control_c, 0, 64, 119
2, 146496, Control_c, 0, 64, 111
2, 146511, Control_c, 0, 64, 106
2, 146526, Control_c, 0, 64, 104
2, 146530, Note_on_c, 0, 71, 0
2, 146541, Control_c, 0, 64, 99
2, 146556, Control_c, 0, 64, 91
2, 146573, Control_c, 0, 64, 82
2, 146588, Control_c, 0, 64, 72
2, 146598, Note_on_c, 0, 76, 82
2, 146603, Control_c, 0, 64, 62
2, 146618, Note_on_c, 0, 79, 0
2, 146619, Control_c, 0, 64, 33
2, 146634, Control_c, 0, 64, 0
2, 146668, Note_on_c, 0, 74, 86
2, 146668, Note_on_c, 0, 76, 0
2, 146702, Note_on_c, 0, 74, 0
2, 146740, Note_on_c, 0, 72, 87
2, 146782, Note_on_c, 0, 72, 0
2, 146806, Note_on_c, 0, 71, 81
2, 146883, Note_on_c, 0, 84, 99
2, 146891, Note_on_c, 0, 69, 90
2, 146906, Note_on_c, 0, 71, 0
2, 147035, Note_on_c, 0, 69, 0
2, 147223, Note_on_c, 0, 72, 76
2, 147270, Note_on_c, 0, 72, 0
2, 147282, Note_on_c, 0, 84, 0
2, 147288, Note_on_c, 0, 71, 76
2, 147362, Note_on_c, 0, 69, 75
2, 147399, Note_on_c, 0, 71, 0
2, 147437, Note_on_c, 0, 69, 0
2, 147450, Note_on_c, 0, 67, 74
2, 147509, Note_on_c, 0, 66, 89
2, 147510, Note_on_c, 0, 75, 87
2, 147515, Note_on_c, 0, 67, 0
2, 147542, Note_on_c, 0, 73, 49
2, 147560, Note_on_c, 0, 66, 0
2, 147570, Note_on_c, 0, 73, 0
2, 147594, Note_on_c, 0, 67, 80
2, 147674, Note_on_c, 0, 67, 0
2, 147674, Note_on_c, 0, 69, 84
2, 147830, Note_on_c, 0, 60, 86
2, 147886, Note_on_c, 0, 60, 0
2, 147906, Note_on_c, 0, 69, 0
2, 147907, Note_on_c, 0, 67, 78
2, 147907, Note_on_c, 0, 75, 0
2, 147970, Note_on_c, 0, 67, 0
2, 147983, Note_on_c, 0, 66, 78
2, 148006, Note_on_c, 0, 66, 0
2, 148058, Note_on_c, 0, 64, 75
2, 148122, Note_on_c, 0, 63, 80
2, 148124, Note_on_c, 0, 54, 84
2, 148126, Note_on_c, 0, 64, 0
2, 148174, Note_on_c, 0, 54, 0
2, 148196, Note_on_c, 0, 63, 0
2, 148197, Note_on_c, 0, 64, 81
2, 148281, Note_on_c, 0, 66, 83
2, 148284, Note_on_c, 0, 64, 0
2, 148425, Note_on_c, 0, 57, 86
2, 148474, Note_on_c, 0, 66, 0
2, 148475, Note_on_c, 0, 57, 0
2, 148498, Note_on_c, 0, 64, 76
2, 148577, Note_on_c, 0, 63, 78
2, 148588, Note_on_c, 0, 64, 0
2, 148651, Note_on_c, 0, 63, 0
2, 148658, Note_on_c, 0, 61, 80
2, 148733, Note_on_c, 0, 59, 90
2, 148736, Note_on_c, 0, 61, 0
2, 148739, Note_on_c, 0, 51, 76
2, 148775, Note_on_c, 0, 51, 0
2, 149053, Note_on_c, 0, 54, 63
2, 149056, Note_on_c, 0, 79, 84
2, 149056, Note_on_c, 0, 81, 81
2, 149096, Note_on_c, 0, 54, 0
2, 149102, Note_on_c, 0, 79, 0
2, 149102, Note_on_c, 0, 81, 0
2, 149194, Note_on_c, 0, 59, 0
2, 149216, Note_on_c, 0, 61, 62
2, 149291, Note_on_c, 0, 63, 67
2, 149313, Note_on_c, 0, 61, 0
2, 149358, Note_on_c, 0, 59, 59
2, 149358, Note_on_c, 0, 63, 0
2, 149371, Note_on_c, 0, 78, 94
2, 149375, Note_on_c, 0, 64, 75
2, 149418, Note_on_c, 0, 78, 0
2, 149447, Note_on_c, 0, 64, 0
2, 149457, Note_on_c, 0, 63, 71
2, 149526, Note_on_c, 0, 63, 0
2, 149538, Note_on_c, 0, 64, 78
2, 149606, Note_on_c, 0, 64, 0
2, 149609, Note_on_c, 0, 63, 66
2, 149673, Note_on_c, 0, 63, 0
2, 149685, Note_on_c, 0, 83, 98
2, 149695, Note_on_c, 0, 64, 73
2, 149728, Note_on_c, 0, 83, 0
2, 149756, Note_on_c, 0, 64, 0
2, 149758, Note_on_c, 0, 63, 72
2, 149773, Note_on_c, 0, 59, 0
2, 149820, Note_on_c, 0, 63, 0
2, 149827, Note_on_c, 0, 61, 67
2, 149904, Note_on_c, 0, 63, 76
2, 149909, Note_on_c, 0, 61, 0
2, 149952, Note_on_c, 0, 63, 0
2, 149995, Note_on_c, 0, 79, 95
2, 150000, Note_on_c, 0, 52, 87
2, 150000, Note_on_c, 0, 64, 90
2, 150056, Control_c, 0, 64, 24
2, 150056, Note_on_c, 0, 79, 0
2, 150070, Control_c, 0, 64, 49
2, 150073, Note_on_c, 0, 64, 0
2, 150085, Control_c, 0, 64, 57
2, 150108, Control_c, 0, 64, 61
2, 150111, Note_on_c, 0, 52, 0
2, 150123, Control_c, 0, 64, 63
2, 150139, Control_c, 0, 64, 65
2, 150153, Control_c, 0, 64, 66
2, 150168, Control_c, 0, 64, 67
2, 150215, Control_c, 0, 64, 67
2, 150261, Control_c, 0, 64, 66
2, 150275, Control_c, 0, 64, 64
2, 150290, Control_c, 0, 64, 62
2, 150306, Control_c, 0, 64, 56
2, 150315, Note_on_c, 0, 76, 92
2, 150321, Control_c, 0, 64, 36
2, 150337, Control_c, 0, 64, 0
2, 150364, Note_on_c, 0, 76, 0
2, 150391, Note_on_c, 0, 40, 77
2, 150418, Note_on_c, 0, 41, 36
2, 150447, Note_on_c, 0, 40, 0
2, 150450, Note_on_c, 0, 41, 0
2, 150450, Note_on_c, 0, 41, 24
2, 150534, Note_on_c, 0, 43, 82
2, 150535, Note_on_c, 0, 41, 0
2, 150597, Note_on_c, 0, 43, 0
2, 150609, Note_on_c, 0, 45, 88
2, 150626, Note_on_c, 0, 73, 93
2, 150680, Note_on_c, 0, 73, 0
2, 150884, Note_on_c, 0, 45, 0
2, 150934, Note_on_c, 0, 81, 88
2, 150978, Note_on_c, 0, 81, 0
2, 151009, Note_on_c, 0, 43, 78
2, 151076, Note_on_c, 0, 43, 0
2, 151078, Note_on_c, 0, 41, 80
2, 151151, Note_on_c, 0, 40, 76
2, 151184, Note_on_c, 0, 41, 0
2, 151239, Note_on_c, 0, 38, 86
2, 151241, Note_on_c, 0, 40, 0
2, 151245, Note_on_c, 0, 77, 95
2, 151313, Note_on_c, 0, 77, 0
2, 151330, Note_on_c, 0, 38, 0
2, 151569, Note_on_c, 0, 62, 92
2, 151611, Note_on_c, 0, 62, 0
2, 151643, Note_on_c, 0, 74, 77
2, 151719, Note_on_c, 0, 76, 79
2, 151721, Note_on_c, 0, 74, 0
2, 151786, Note_on_c, 0, 76, 0
2, 151794, Note_on_c, 0, 77, 80
2, 151876, Note_on_c, 0, 77, 0
2, 151887, Note_on_c, 0, 59, 87
2, 151889, Note_on_c, 0, 79, 87
2, 151948, Note_on_c, 0, 79, 0
2, 151954, Note_on_c, 0, 59, 0
2, 152206, Note_on_c, 0, 67, 81
2, 152264, Note_on_c, 0, 77, 79
2, 152275, Note_on_c, 0, 67, 0
2, 152336, Note_on_c, 0, 77, 0
2, 152346, Note_on_c, 0, 76, 78
2, 152409, Note_on_c, 0, 76, 0
2, 152432, Note_on_c, 0, 74, 83
2, 152486, Note_on_c, 0, 74, 0
2, 152514, Note_on_c, 0, 72, 85
2, 152519, Note_on_c, 0, 64, 88
2, 152562, Note_on_c, 0, 72, 0
2, 152563, Note_on_c, 0, 64, 0
2, 152823, Note_on_c, 0, 57, 89
2, 152886, Note_on_c, 0, 57, 0
2, 152899, Note_on_c, 0, 76, 75
2, 152964, Note_on_c, 0, 77, 79
2, 152970, Note_on_c, 0, 76, 0
2, 153037, Note_on_c, 0, 79, 79
2, 153040, Note_on_c, 0, 77, 0
2, 153120, Note_on_c, 0, 81, 76
2, 153128, Note_on_c, 0, 53, 95
2, 153129, Note_on_c, 0, 79, 0
2, 153197, Note_on_c, 0, 53, 0
2, 153206, Note_on_c, 0, 81, 0
2, 153218, Note_on_c, 0, 82, 78
2, 153269, Note_on_c, 0, 82, 0
2, 153291, Note_on_c, 0, 81, 75
2, 153366, Note_on_c, 0, 79, 75
2, 153369, Note_on_c, 0, 81, 0
2, 153443, Note_on_c, 0, 77, 84
2, 153444, Note_on_c, 0, 79, 0
2, 153456, Note_on_c, 0, 62, 77
2, 153503, Note_on_c, 0, 77, 0
2, 153516, Note_on_c, 0, 76, 82
2, 153522, Note_on_c, 0, 62, 0
2, 153562, Note_on_c, 0, 76, 0
2, 153591, Note_on_c, 0, 74, 80
2, 153669, Note_on_c, 0, 74, 0
2, 153672, Note_on_c, 0, 72, 85
2, 153727, Note_on_c, 0, 72, 0
2, 153740, Note_on_c, 0, 71, 82
2, 153751, Note_on_c, 0, 56, 76
2, 153784, Note_on_c, 0, 71, 0
2, 153820, Note_on_c, 0, 56, 0
2, 153822, Note_on_c, 0, 72, 80
2, 153889, Note_on_c, 0, 71, 75
2, 153920, Note_on_c, 0, 72, 0
2, 153970, Note_on_c, 0, 69, 78
2, 153986, Note_on_c, 0, 71, 0
2, 154034, Note_on_c, 0, 52, 71
2, 154044, Note_on_c, 0, 69, 0
2, 154050, Note_on_c, 0, 68, 80
2, 154077, Note_on_c, 0, 52, 0
2, 154102, Note_on_c, 0, 68, 0
2, 154125, Note_on_c, 0, 66, 72
2, 154157, Note_on_c, 0, 66, 0
2, 154197, Note_on_c, 0, 64, 72
2, 154266, Note_on_c, 0, 64, 0
2, 154277, Note_on_c, 0, 62, 70
2, 154331, Note_on_c, 0, 62, 0
2, 154336, Note_on_c, 0, 57, 74
2, 154345, Note_on_c, 0, 60, 83
2, 154375, Note_on_c, 0, 60, 0
2, 154391, Control_c, 0, 64, 31
2, 154402, Note_on_c, 0, 64, 66
2, 154407, Control_c, 0, 64, 44
2, 154421, Control_c, 0, 64, 50
2, 154436, Control_c, 0, 64, 53
2, 154452, Control_c, 0, 64, 55
2, 154464, Note_on_c, 0, 64, 0
2, 154473, Note_on_c, 0, 65, 58
2, 154477, Note_on_c, 0, 67, 59
2, 154509, Note_on_c, 0, 67, 0
2, 154512, Control_c, 0, 64, 53
2, 154521, Note_on_c, 0, 65, 0
2, 154528, Control_c, 0, 64, 52
2, 154543, Control_c, 0, 64, 51
2, 154558, Control_c, 0, 64, 49
2, 154574, Control_c, 0, 64, 48
2, 154589, Control_c, 0, 64, 47
2, 154604, Control_c, 0, 64, 46
2, 154620, Control_c, 0, 64, 45
2, 154620, Note_on_c, 0, 72, 90
2, 154626, Note_on_c, 0, 69, 77
2, 154634, Control_c, 0, 64, 44
2, 154643, Note_on_c, 0, 72, 0
2, 154650, Control_c, 0, 64, 43
2, 154665, Control_c, 0, 64, 42
2, 154672, Note_on_c, 0, 69, 0
2, 154721, Note_on_c, 0, 67, 64
2, 154733, Control_c, 0, 64, 42
2, 154771, Note_on_c, 0, 67, 0
2, 154792, Note_on_c, 0, 65, 72
2, 154858, Note_on_c, 0, 65, 0
2, 154862, Note_on_c, 0, 64, 59
2, 154901, Control_c, 0, 64, 41
2, 154901, Note_on_c, 0, 64, 0
2, 154916, Note_on_c, 0, 57, 0
2, 154930, Note_on_c, 0, 71, 82
2, 154933, Note_on_c, 0, 62, 72
2, 154961, Control_c, 0, 64, 41
2, 154961, Note_on_c, 0, 62, 0
2, 154977, Control_c, 0, 64, 40
2, 155008, Note_on_c, 0, 57, 76
2, 155060, Note_on_c, 0, 57, 0
2, 155086, Note_on_c, 0, 59, 68
2, 155142, Note_on_c, 0, 59, 0
2, 155160, Note_on_c, 0, 60, 65
2, 155200, Note_on_c, 0, 60, 0
2, 155227, Note_on_c, 0, 65, 87
2, 155228, Note_on_c, 0, 62, 71
2, 155265, Control_c, 0, 64, 40
2, 155271, Note_on_c, 0, 65, 0
2, 155282, Note_on_c, 0, 62, 0
2, 155311, Note_on_c, 0, 60, 72
2, 155344, Note_on_c, 0, 60, 0
2, 155383, Note_on_c, 0, 59, 74
2, 155441, Note_on_c, 0, 59, 0
2, 155451, Note_on_c, 0, 57, 69
2, 155531, Note_on_c, 0, 57, 0
2, 155535, Note_on_c, 0, 59, 82
2, 155536, Note_on_c, 0, 56, 66
2, 155564, Note_on_c, 0, 59, 0
2, 155590, Note_on_c, 0, 56, 0
2, 155616, Note_on_c, 0, 57, 80
2, 155638, Control_c, 0, 64, 39
2, 155654, Control_c, 0, 64, 38
2, 155669, Control_c, 0, 64, 38
2, 155682, Note_on_c, 0, 56, 84
2, 155688, Note_on_c, 0, 57, 0
2, 155714, Control_c, 0, 64, 37
2, 155748, Note_on_c, 0, 54, 81
2, 155772, Note_on_c, 0, 56, 0
2, 155775, Control_c, 0, 64, 37
2, 155815, Note_on_c, 0, 54, 0
2, 155821, Note_on_c, 0, 62, 78
2, 155824, Note_on_c, 0, 52, 78
2, 155864, Note_on_c, 0, 62, 0
2, 155889, Note_on_c, 0, 52, 0
2, 155898, Note_on_c, 0, 50, 80
2, 155953, Note_on_c, 0, 48, 71
2, 155982, Note_on_c, 0, 50, 0
2, 156019, Control_c, 0, 64, 36
2, 156023, Note_on_c, 0, 48, 0
2, 156029, Note_on_c, 0, 47, 69
2, 156118, Note_on_c, 0, 47, 0
2, 156122, Note_on_c, 0, 60, 84
2, 156126, Note_on_c, 0, 45, 66
2, 156154, Note_on_c, 0, 71, 0
2, 156185, Control_c, 0, 64, 37
2, 156200, Control_c, 0, 64, 41
2, 156216, Control_c, 0, 64, 44
2, 156231, Control_c, 0, 64, 47
2, 156253, Control_c, 0, 64, 50
2, 156268, Control_c, 0, 64, 54
2, 156283, Control_c, 0, 64, 57
2, 156299, Control_c, 0, 64, 60
2, 156300, Note_on_c, 0, 45, 0
2, 156314, Control_c, 0, 64, 62
2, 156319, Note_on_c, 0, 64, 65
2, 156329, Control_c, 0, 64, 64
2, 156344, Control_c, 0, 64, 65
2, 156359, Control_c, 0, 64, 66
2, 156390, Control_c, 0, 64, 66
2, 156406, Control_c, 0, 64, 64
2, 156421, Control_c, 0, 64, 62
2, 156436, Control_c, 0, 64, 56
2, 156450, Note_on_c, 0, 57, 70
2, 156452, Control_c, 0, 64, 39
2, 156460, Note_on_c, 0, 64, 0
2, 156467, Control_c, 0, 64, 0
2, 156475, Note_on_c, 0, 69, 62
2, 156500, Note_on_c, 0, 57, 0
2, 156522, Note_on_c, 0, 69, 0
2, 156523, Note_on_c, 0, 55, 67
2, 156601, Note_on_c, 0, 53, 57
2, 156610, Note_on_c, 0, 55, 0
2, 156652, Note_on_c, 0, 53, 0
2, 156661, Note_on_c, 0, 52, 65
2, 156750, Note_on_c, 0, 50, 74
2, 156754, Note_on_c, 0, 52, 0
2, 156755, Note_on_c, 0, 65, 92
2, 156786, Control_c, 0, 64, 20
2, 156795, Note_on_c, 0, 60, 0
2, 156800, Control_c, 0, 64, 40
2, 156817, Control_c, 0, 64, 48
2, 156832, Control_c, 0, 64, 54
2, 156848, Control_c, 0, 64, 58
2, 156863, Control_c, 0, 64, 60
2, 156875, Note_on_c, 0, 50, 0
2, 156877, Control_c, 0, 64, 61
2, 156908, Control_c, 0, 64, 61
2, 156935, Note_on_c, 0, 57, 69
2, 157002, Note_on_c, 0, 57, 0
2, 157037, Control_c, 0, 64, 60
2, 157053, Control_c, 0, 64, 58
2, 157068, Control_c, 0, 64, 54
2, 157083, Control_c, 0, 64, 46
2, 157086, Note_on_c, 0, 53, 65
2, 157093, Note_on_c, 0, 62, 70
2, 157098, Control_c, 0, 64, 8
2, 157113, Control_c, 0, 64, 0
2, 157126, Note_on_c, 0, 53, 0
2, 157164, Note_on_c, 0, 52, 63
2, 157224, Note_on_c, 0, 50, 70
2, 157246, Note_on_c, 0, 52, 0
2, 157295, Note_on_c, 0, 48, 66
2, 157307, Note_on_c, 0, 50, 0
2, 157343, Note_on_c, 0, 47, 72
2, 157347, Note_on_c, 0, 48, 0
2, 157361, Note_on_c, 0, 56, 90
2, 157402, Control_c, 0, 64, 35
2, 157406, Note_on_c, 0, 47, 0
2, 157418, Control_c, 0, 64, 51
2, 157433, Control_c, 0, 64, 58
2, 157448, Control_c, 0, 64, 61
2, 157454, Note_on_c, 0, 48, 64
2, 157463, Control_c, 0, 64, 63
2, 157478, Control_c, 0, 64, 64
2, 157488, Note_on_c, 0, 62, 0
2, 157517, Note_on_c, 0, 65, 0
2, 157523, Control_c, 0, 64, 63
2, 157539, Control_c, 0, 64, 63
2, 157539, Note_on_c, 0, 48, 0
2, 157542, Note_on_c, 0, 50, 69
2, 157554, Control_c, 0, 64, 62
2, 157570, Control_c, 0, 64, 61
2, 157585, Control_c, 0, 64, 59
2, 157599, Control_c, 0, 64, 56
2, 157615, Control_c, 0, 64, 51
2, 157630, Control_c, 0, 64, 44
2, 157644, Control_c, 0, 64, 33
2, 157660, Control_c, 0, 64, 23
2, 157675, Control_c, 0, 64, 19
2, 157696, Note_on_c, 0, 77, 90
2, 157722, Note_on_c, 0, 77, 0
2, 157785, Note_on_c, 0, 48, 61
2, 157790, Note_on_c, 0, 50, 0
2, 157803, Note_on_c, 0, 56, 0
2, 157804, Control_c, 0, 64, 18
2, 157858, Note_on_c, 0, 47, 65
2, 157864, Note_on_c, 0, 48, 0
2, 157918, Note_on_c, 0, 47, 0
2, 157924, Note_on_c, 0, 45, 64
2, 157977, Note_on_c, 0, 45, 0
2, 157985, Note_on_c, 0, 44, 80
2, 157991, Note_on_c, 0, 71, 89
2, 158031, Note_on_c, 0, 71, 0
2, 158055, Note_on_c, 0, 44, 0
2, 158069, Note_on_c, 0, 45, 74
2, 158078, Control_c, 0, 64, 19
2, 158140, Note_on_c, 0, 45, 0
2, 158145, Note_on_c, 0, 47, 79
2, 158315, Note_on_c, 0, 74, 72
2, 158340, Note_on_c, 0, 74, 0
2, 158356, Note_on_c, 0, 47, 0
2, 158377, Note_on_c, 0, 45, 69
2, 158448, Note_on_c, 0, 44, 76
2, 158488, Control_c, 0, 64, 20
2, 158489, Note_on_c, 0, 45, 0
2, 158503, Control_c, 0, 64, 21
2, 158511, Note_on_c, 0, 42, 75
2, 158514, Note_on_c, 0, 44, 0
2, 158557, Control_c, 0, 64, 22
2, 158597, Note_on_c, 0, 42, 0
2, 158607, Note_on_c, 0, 40, 84
2, 158616, Note_on_c, 0, 68, 89
2, 158636, Note_on_c, 0, 41, 8
2, 158687, Note_on_c, 0, 41, 0
2, 158815, Control_c, 0, 64, 23
2, 158931, Note_on_c, 0, 62, 86
2, 158997, Note_on_c, 0, 62, 0
2, 159101, Note_on_c, 0, 42, 74
2, 159107, Note_on_c, 0, 40, 0
2, 159119, Control_c, 0, 64, 24
2, 159175, Note_on_c, 0, 44, 72
2, 159179, Note_on_c, 0, 42, 0
2, 159233, Note_on_c, 0, 68, 0
2, 159239, Note_on_c, 0, 59, 89
2, 159240, Note_on_c, 0, 71, 83
2, 159246, Note_on_c, 0, 44, 0
2, 159247, Note_on_c, 0, 45, 78
2, 159297, Note_on_c, 0, 59, 0
2, 159340, Note_on_c, 0, 45, 0
2, 159344, Note_on_c, 0, 44, 75
2, 159421, Note_on_c, 0, 44, 0
2, 159424, Note_on_c, 0, 45, 76
2, 159499, Note_on_c, 0, 45, 0
2, 159507, Note_on_c, 0, 44, 67
2, 159557, Note_on_c, 0, 64, 86
2, 159582, Note_on_c, 0, 44, 0
2, 159587, Note_on_c, 0, 45, 74
2, 159608, Note_on_c, 0, 64, 0
2, 159657, Note_on_c, 0, 45, 0
2, 159659, Note_on_c, 0, 44, 67
2, 159705, Control_c, 0, 64, 19
2, 159720, Control_c, 0, 64, 0
2, 159724, Note_on_c, 0, 42, 73
2, 159726, Note_on_c, 0, 44, 0
2, 159812, Note_on_c, 0, 42, 0
2, 159816, Note_on_c, 0, 44, 64
2, 159863, Note_on_c, 0, 60, 81
2, 159877, Note_on_c, 0, 44, 0
2, 159880, Note_on_c, 0, 45, 86
2, 159915, Note_on_c, 0, 71, 0
2, 159917, Control_c, 0, 64, 30
2, 159933, Control_c, 0, 64, 47
2, 159936, Note_on_c, 0, 60, 0
2, 159948, Control_c, 0, 64, 56
2, 159963, Control_c, 0, 64, 63
2, 159979, Control_c, 0, 64, 68
2, 159994, Control_c, 0, 64, 73
2, 160010, Control_c, 0, 64, 82
2, 160025, Control_c, 0, 64, 89
2, 160040, Control_c, 0, 64, 94
2, 160055, Control_c, 0, 64, 97
2, 160093, Control_c, 0, 64, 96
2, 160107, Control_c, 0, 64, 96
2, 160122, Control_c, 0, 64, 94
2, 160138, Control_c, 0, 64, 92
2, 160153, Control_c, 0, 64, 90
2, 160166, Note_on_c, 0, 76, 84
2, 160169, Control_c, 0, 64, 85
2, 160184, Control_c, 0, 64, 79
2, 160199, Control_c, 0, 64, 72
2, 160215, Control_c, 0, 64, 64
2, 160230, Control_c, 0, 64, 50
2, 160242, Note_on_c, 0, 74, 82
2, 160244, Control_c, 0, 64, 22
2, 160260, Control_c, 0, 64, 0
2, 160278, Note_on_c, 0, 76, 0
2, 160284, Note_on_c, 0, 45, 0
2, 160311, Note_on_c, 0, 72, 84
2, 160315, Note_on_c, 0, 47, 60
2, 160375, Note_on_c, 0, 74, 0
2, 160386, Note_on_c, 0, 71, 90
2, 160389, Note_on_c, 0, 47, 0
2, 160389, Note_on_c, 0, 48, 66
2, 160391, Note_on_c, 0, 72, 0
2, 160443, Note_on_c, 0, 71, 0
2, 160446, Note_on_c, 0, 48, 0
2, 160461, Note_on_c, 0, 50, 76
2, 160465, Note_on_c, 0, 69, 89
2, 160542, Note_on_c, 0, 50, 0
2, 160553, Note_on_c, 0, 49, 74
2, 160609, Note_on_c, 0, 69, 0
2, 160613, Note_on_c, 0, 73, 85
2, 160618, Note_on_c, 0, 49, 0
2, 160627, Note_on_c, 0, 50, 75
2, 160657, Note_on_c, 0, 73, 0
2, 160681, Note_on_c, 0, 74, 49
2, 160686, Note_on_c, 0, 76, 88
2, 160700, Note_on_c, 0, 50, 0
2, 160704, Note_on_c, 0, 74, 0
2, 160705, Note_on_c, 0, 49, 71
2, 160754, Note_on_c, 0, 76, 0
2, 160762, Note_on_c, 0, 49, 0
2, 160764, Note_on_c, 0, 79, 93
2, 160767, Note_on_c, 0, 50, 71
2, 160835, Note_on_c, 0, 49, 65
2, 160838, Note_on_c, 0, 50, 0
2, 160907, Control_c, 0, 64, 8
2, 160911, Note_on_c, 0, 49, 0
2, 160917, Note_on_c, 0, 47, 69
2, 160948, Note_on_c, 0, 79, 0
2, 160968, Control_c, 0, 64, 0
2, 160993, Note_on_c, 0, 49, 73
2, 160994, Note_on_c, 0, 47, 0
2, 161062, Note_on_c, 0, 50, 75
2, 161064, Note_on_c, 0, 49, 0
2, 161066, Note_on_c, 0, 77, 93
2, 161104, Control_c, 0, 64, 12
2, 161119, Control_c, 0, 64, 41
2, 161135, Control_c, 0, 64, 53
2, 161138, Note_on_c, 0, 77, 0
2, 161150, Control_c, 0, 64, 61
2, 161166, Control_c, 0, 64, 65
2, 161181, Control_c, 0, 64, 69
2, 161196, Control_c, 0, 64, 75
2, 161211, Control_c, 0, 64, 84
2, 161226, Control_c, 0, 64, 96
2, 161241, Control_c, 0, 64, 112
2, 161257, Control_c, 0, 64, 127
2, 161334, Control_c, 0, 64, 115
2, 161349, Control_c, 0, 64, 99
2, 161363, Control_c, 0, 64, 87
2, 161378, Note_on_c, 0, 69, 81
2, 161379, Control_c, 0, 64, 75
2, 161394, Control_c, 0, 64, 64
2, 161410, Control_c, 0, 64, 38
2, 161425, Control_c, 0, 64, 0
2, 161449, Note_on_c, 0, 67, 73
2, 161463, Note_on_c, 0, 69, 0
2, 161502, Note_on_c, 0, 50, 0
2, 161510, Note_on_c, 0, 52, 60
2, 161513, Note_on_c, 0, 65, 79
2, 161517, Note_on_c, 0, 67, 0
2, 161584, Note_on_c, 0, 53, 71
2, 161587, Note_on_c, 0, 52, 0
2, 161590, Note_on_c, 0, 65, 0
2, 161592, Note_on_c, 0, 64, 82
2, 161658, Note_on_c, 0, 53, 0
2, 161658, Note_on_c, 0, 64, 0
2, 161676, Note_on_c, 0, 55, 70
2, 161678, Note_on_c, 0, 62, 81
2, 161756, Note_on_c, 0, 55, 0
2, 161764, Note_on_c, 0, 54, 66
2, 161798, Note_on_c, 0, 62, 0
2, 161811, Note_on_c, 0, 66, 75
2, 161819, Note_on_c, 0, 54, 0
2, 161835, Note_on_c, 0, 55, 68
2, 161861, Note_on_c, 0, 66, 0
2, 161879, Note_on_c, 0, 69, 81
2, 161903, Note_on_c, 0, 55, 0
2, 161917, Note_on_c, 0, 54, 63
2, 161949, Note_on_c, 0, 69, 0
2, 161954, Note_on_c, 0, 54, 0
2, 161964, Note_on_c, 0, 72, 86
2, 161968, Note_on_c, 0, 55, 71
2, 162030, Note_on_c, 0, 55, 0
2, 162033, Note_on_c, 0, 54, 70
2, 162098, Note_on_c, 0, 54, 0
2, 162115, Note_on_c, 0, 52, 61
2, 162189, Note_on_c, 0, 52, 0
2, 162195, Note_on_c, 0, 54, 57
2, 162220, Note_on_c, 0, 72, 0
2, 162245, Note_on_c, 0, 71, 83
2, 162254, Note_on_c, 0, 54, 0
2, 162260, Note_on_c, 0, 55, 63
2, 162300, Control_c, 0, 64, 26
2, 162303, Note_on_c, 0, 71, 0
2, 162314, Control_c, 0, 64, 43
2, 162330, Control_c, 0, 64, 52
2, 162345, Control_c, 0, 64, 58
2, 162359, Control_c, 0, 64, 61
2, 162375, Control_c, 0, 64, 64
2, 162397, Control_c, 0, 64, 65
2, 162419, Note_on_c, 0, 74, 71
2, 162428, Control_c, 0, 64, 64
2, 162443, Control_c, 0, 64, 63
2, 162455, Note_on_c, 0, 74, 0
2, 162459, Control_c, 0, 64, 61
2, 162474, Control_c, 0, 64, 57
2, 162476, Note_on_c, 0, 72, 86
2, 162489, Control_c, 0, 64, 52
2, 162504, Control_c, 0, 64, 43
2, 162519, Control_c, 0, 64, 28
2, 162535, Control_c, 0, 64, 10
2, 162543, Note_on_c, 0, 72, 0
2, 162550, Control_c, 0, 64, 0
2, 162553, Note_on_c, 0, 71, 89
2, 162603, Note_on_c, 0, 71, 0
2, 162712, Note_on_c, 0, 72, 83
2, 162714, Note_on_c, 0, 55, 0
2, 162721, Note_on_c, 0, 57, 62
2, 162771, Note_on_c, 0, 72, 0
2, 162781, Note_on_c, 0, 74, 79
2, 162786, Note_on_c, 0, 57, 0
2, 162789, Note_on_c, 0, 59, 66
2, 162837, Note_on_c, 0, 74, 0
2, 162844, Note_on_c, 0, 59, 0
2, 162856, Note_on_c, 0, 67, 86
2, 162861, Note_on_c, 0, 60, 75
2, 162927, Note_on_c, 0, 60, 0
2, 162958, Note_on_c, 0, 59, 70
2, 163004, Note_on_c, 0, 59, 0
2, 163027, Note_on_c, 0, 60, 75
2, 163083, Note_on_c, 0, 60, 0
2, 163107, Note_on_c, 0, 59, 63
2, 163116, Note_on_c, 0, 67, 0
2, 163153, Note_on_c, 0, 59, 0
2, 163173, Note_on_c, 0, 77, 92
2, 163181, Note_on_c, 0, 60, 71
2, 163220, Note_on_c, 0, 60, 0
2, 163244, Note_on_c, 0, 59, 69
2, 163303, Note_on_c, 0, 59, 0
2, 163327, Note_on_c, 0, 57, 58
2, 163367, Note_on_c, 0, 77, 0
2, 163386, Note_on_c, 0, 57, 0
2, 163403, Note_on_c, 0, 59, 65
2, 163445, Note_on_c, 0, 59, 0
2, 163445, Note_on_c, 0, 76, 84
2, 163454, Control_c, 0, 64, 33
2, 163456, Note_on_c, 0, 60, 62
2, 163469, Control_c, 0, 64, 49
2, 163478, Note_on_c, 0, 76, 0
2, 163483, Control_c, 0, 64, 57
2, 163499, Control_c, 0, 64, 63
2, 163514, Control_c, 0, 64, 67
2, 163530, Control_c, 0, 64, 74
2, 163545, Control_c, 0, 64, 88
2, 163559, Control_c, 0, 64, 107
2, 163575, Control_c, 0, 64, 127
2, 163615, Note_on_c, 0, 67, 75
2, 163620, Control_c, 0, 64, 113
2, 163635, Control_c, 0, 64, 90
2, 163651, Control_c, 0, 64, 77
2, 163664, Note_on_c, 0, 67, 0
2, 163666, Control_c, 0, 64, 66
2, 163672, Note_on_c, 0, 65, 77
2, 163681, Control_c, 0, 64, 53
2, 163697, Control_c, 0, 64, 28
2, 163712, Control_c, 0, 64, 20
2, 163730, Note_on_c, 0, 65, 0
2, 163745, Note_on_c, 0, 64, 80
2, 163822, Note_on_c, 0, 64, 0
2, 163834, Control_c, 0, 64, 19
2, 163858, Note_on_c, 0, 60, 0
2, 163884, Note_on_c, 0, 65, 78
2, 163892, Note_on_c, 0, 62, 57
2, 163896, Control_c, 0, 64, 18
2, 163911, Control_c, 0, 64, 15
2, 163933, Control_c, 0, 64, 0
2, 163951, Note_on_c, 0, 62, 0
2, 163956, Note_on_c, 0, 64, 60
2, 163956, Note_on_c, 0, 65, 0
2, 163965, Note_on_c, 0, 67, 74
2, 163996, Note_on_c, 0, 64, 0
2, 164015, Note_on_c, 0, 67, 0
2, 164034, Note_on_c, 0, 60, 84
2, 164039, Note_on_c, 0, 65, 60
2, 164085, Note_on_c, 0, 65, 0
2, 164100, Control_c, 0, 64, 36
2, 164114, Note_on_c, 0, 64, 62
2, 164115, Control_c, 0, 64, 50
2, 164131, Control_c, 0, 64, 57
2, 164146, Control_c, 0, 64, 60
2, 164150, Note_on_c, 0, 60, 0
2, 164153, Note_on_c, 0, 64, 0
2, 164161, Control_c, 0, 64, 62
2, 164177, Control_c, 0, 64, 63
2, 164190, Note_on_c, 0, 65, 62
2, 164192, Control_c, 0, 64, 64
2, 164207, Control_c, 0, 64, 65
2, 164222, Control_c, 0, 64, 66
2, 164229, Note_on_c, 0, 65, 0
2, 164264, Note_on_c, 0, 64, 59
2, 164282, Control_c, 0, 64, 66
2, 164298, Control_c, 0, 64, 65
2, 164301, Note_on_c, 0, 64, 0
2, 164313, Control_c, 0, 64, 63
2, 164317, Note_on_c, 0, 70, 81
2, 164328, Control_c, 0, 64, 60
2, 164332, Note_on_c, 0, 65, 68
2, 164343, Control_c, 0, 64, 55
2, 164358, Control_c, 0, 64, 46
2, 164374, Control_c, 0, 64, 25
2, 164376, Note_on_c, 0, 65, 0
2, 164389, Control_c, 0, 64, 0
2, 164397, Note_on_c, 0, 64, 61
2, 164438, Note_on_c, 0, 64, 0
2, 164461, Note_on_c, 0, 62, 58
2, 164525, Note_on_c, 0, 62, 0
2, 164551, Note_on_c, 0, 64, 58
2, 164589, Note_on_c, 0, 70, 0
2, 164596, Note_on_c, 0, 64, 0
2, 164610, Note_on_c, 0, 69, 79
2, 164632, Note_on_c, 0, 65, 64
2, 164649, Control_c, 0, 64, 18
2, 164664, Control_c, 0, 64, 35
2, 164679, Control_c, 0, 64, 43
2, 164702, Control_c, 0, 64, 50
2, 164717, Control_c, 0, 64, 56
2, 164733, Control_c, 0, 64, 59
2, 164748, Control_c, 0, 64, 61
2, 164763, Control_c, 0, 64, 63
2, 164778, Control_c, 0, 64, 64
2, 164786, Note_on_c, 0, 69, 0
2, 164792, Note_on_c, 0, 71, 75
2, 164793, Control_c, 0, 64, 65
2, 164824, Control_c, 0, 64, 66
2, 164859, Note_on_c, 0, 71, 0
2, 164859, Note_on_c, 0, 73, 85
2, 164869, Control_c, 0, 64, 65
2, 164920, Note_on_c, 0, 73, 0
2, 164935, Note_on_c, 0, 74, 88
2, 164945, Control_c, 0, 64, 65
2, 164960, Control_c, 0, 64, 64
2, 164975, Control_c, 0, 64, 63
2, 164990, Control_c, 0, 64, 61
2, 165005, Control_c, 0, 64, 57
2, 165021, Control_c, 0, 64, 52
2, 165036, Control_c, 0, 64, 39
2, 165051, Control_c, 0, 64, 0
2, 165083, Note_on_c, 0, 65, 0
2, 165106, Note_on_c, 0, 67, 66
2, 165167, Note_on_c, 0, 67, 0
2, 165173, Note_on_c, 0, 69, 70
2, 165222, Note_on_c, 0, 81, 93
2, 165240, Note_on_c, 0, 69, 0
2, 165243, Note_on_c, 0, 70, 78
2, 165279, Control_c, 0, 64, 30
2, 165295, Control_c, 0, 64, 46
2, 165309, Control_c, 0, 64, 56
2, 165311, Note_on_c, 0, 70, 0
2, 165324, Control_c, 0, 64, 63
2, 165329, Note_on_c, 0, 69, 66
2, 165340, Control_c, 0, 64, 66
2, 165355, Control_c, 0, 64, 69
2, 165371, Control_c, 0, 64, 72
2, 165385, Control_c, 0, 64, 74
2, 165385, Note_on_c, 0, 69, 0
2, 165395, Note_on_c, 0, 70, 73
2, 165401, Control_c, 0, 64, 75
2, 165448, Control_c, 0, 64, 76
2, 165465, Note_on_c, 0, 70, 0
2, 165478, Note_on_c, 0, 69, 64
2, 165485, Control_c, 0, 64, 76
2, 165501, Control_c, 0, 64, 76
2, 165511, Note_on_c, 0, 74, 0
2, 165516, Control_c, 0, 64, 75
2, 165530, Note_on_c, 0, 73, 82
2, 165531, Control_c, 0, 64, 74
2, 165534, Note_on_c, 0, 69, 0
2, 165546, Control_c, 0, 64, 70
2, 165553, Note_on_c, 0, 70, 71
2, 165561, Control_c, 0, 64, 66
2, 165577, Control_c, 0, 64, 59
2, 165592, Control_c, 0, 64, 31
2, 165608, Control_c, 0, 64, 0
2, 165615, Note_on_c, 0, 70, 0
2, 165632, Note_on_c, 0, 69, 58
2, 165668, Note_on_c, 0, 73, 0
2, 165672, Note_on_c, 0, 69, 0
2, 165691, Note_on_c, 0, 67, 68
2, 165765, Note_on_c, 0, 67, 0
2, 165767, Note_on_c, 0, 69, 73
2, 165804, Note_on_c, 0, 81, 0
2, 165837, Note_on_c, 0, 77, 96
2, 165840, Note_on_c, 0, 74, 88
2, 165842, Note_on_c, 0, 69, 0
2, 165849, Note_on_c, 0, 70, 73
2, 165850, Control_c, 0, 64, 28
2, 165864, Control_c, 0, 64, 49
2, 165871, Note_on_c, 0, 70, 0
2, 165879, Control_c, 0, 64, 61
2, 165895, Control_c, 0, 64, 66
2, 165910, Control_c, 0, 64, 73
2, 165925, Control_c, 0, 64, 89
2, 165941, Control_c, 0, 64, 127
2, 166000, Note_on_c, 0, 58, 78
2, 166072, Note_on_c, 0, 58, 0
2, 166076, Note_on_c, 0, 60, 77
2, 166093, Control_c, 0, 64, 109
2, 166108, Control_c, 0, 64, 83
2, 166123, Control_c, 0, 64, 65
2, 166139, Control_c, 0, 64, 28
2, 166145, Note_on_c, 0, 60, 0
2, 166149, Note_on_c, 0, 62, 79
2, 166153, Control_c, 0, 64, 0
2, 166204, Note_on_c, 0, 60, 59
2, 166213, Note_on_c, 0, 62, 0
2, 166287, Note_on_c, 0, 58, 77
2, 166305, Note_on_c, 0, 60, 0
2, 166350, Note_on_c, 0, 58, 0
2, 166356, Note_on_c, 0, 57, 79
2, 166424, Note_on_c, 0, 57, 0
2, 166427, Note_on_c, 0, 55, 84
2, 166438, Note_on_c, 0, 82, 95
2, 166466, Control_c, 0, 64, 39
2, 166469, Note_on_c, 0, 77, 0
2, 166476, Note_on_c, 0, 74, 0
2, 166477, Note_on_c, 0, 81, 83
2, 166481, Control_c, 0, 64, 55
2, 166497, Control_c, 0, 64, 63
2, 166503, Note_on_c, 0, 53, 63
2, 166508, Note_on_c, 0, 55, 0
2, 166511, Control_c, 0, 64, 66
2, 166527, Control_c, 0, 64, 70
2, 166542, Control_c, 0, 64, 76
2, 166557, Control_c, 0, 64, 85
2, 166571, Note_on_c, 0, 53, 0
2, 166573, Control_c, 0, 64, 95
2, 166575, Note_on_c, 0, 81, 0
2, 166578, Note_on_c, 0, 82, 0
2, 166584, Note_on_c, 0, 55, 80
2, 166587, Control_c, 0, 64, 104
2, 166602, Control_c, 0, 64, 107
2, 166618, Control_c, 0, 64, 105
2, 166633, Control_c, 0, 64, 104
2, 166649, Control_c, 0, 64, 103
2, 166655, Note_on_c, 0, 55, 0
2, 166657, Note_on_c, 0, 57, 86
2, 166663, Control_c, 0, 64, 100
2, 166678, Control_c, 0, 64, 98
2, 166694, Control_c, 0, 64, 93
2, 166708, Control_c, 0, 64, 87
2, 166720, Note_on_c, 0, 57, 0
2, 166723, Control_c, 0, 64, 79
2, 166736, Note_on_c, 0, 58, 81
2, 166739, Control_c, 0, 64, 69
2, 166754, Control_c, 0, 64, 56
2, 166757, Note_on_c, 0, 82, 28
2, 166770, Control_c, 0, 64, 0
2, 166801, Note_on_c, 0, 58, 0
2, 166803, Note_on_c, 0, 57, 72
2, 166869, Note_on_c, 0, 55, 77
2, 166884, Note_on_c, 0, 57, 0
2, 166925, Note_on_c, 0, 55, 0
2, 166950, Note_on_c, 0, 53, 59
2, 167031, Note_on_c, 0, 53, 0
2, 167038, Note_on_c, 0, 73, 95
2, 167039, Note_on_c, 0, 52, 79
2, 167081, Control_c, 0, 64, 26
2, 167085, Note_on_c, 0, 82, 0
2, 167097, Control_c, 0, 64, 47
2, 167112, Control_c, 0, 64, 56
2, 167113, Note_on_c, 0, 52, 0
2, 167123, Note_on_c, 0, 53, 81
2, 167127, Control_c, 0, 64, 61
2, 167142, Control_c, 0, 64, 63
2, 167157, Control_c, 0, 64, 64
2, 167173, Control_c, 0, 64, 66
2, 167184, Note_on_c, 0, 53, 0
2, 167188, Control_c, 0, 64, 67
2, 167191, Note_on_c, 0, 55, 84
2, 167203, Control_c, 0, 64, 67
2, 167295, Control_c, 0, 64, 67
2, 167309, Control_c, 0, 64, 66
2, 167324, Control_c, 0, 64, 65
2, 167340, Control_c, 0, 64, 62
2, 167344, Note_on_c, 0, 70, 91
2, 167354, Control_c, 0, 64, 57
2, 167370, Control_c, 0, 64, 49
2, 167385, Control_c, 0, 64, 34
2, 167393, Note_on_c, 0, 70, 0
2, 167400, Control_c, 0, 64, 0
2, 167422, Note_on_c, 0, 55, 0
2, 167428, Note_on_c, 0, 53, 74
2, 167497, Note_on_c, 0, 52, 73
2, 167546, Note_on_c, 0, 53, 0
2, 167567, Note_on_c, 0, 50, 73
2, 167580, Note_on_c, 0, 52, 0
2, 167622, Note_on_c, 0, 50, 0
2, 167649, Note_on_c, 0, 64, 91
2, 167662, Note_on_c, 0, 49, 78
2, 167669, Note_on_c, 0, 73, 0
2, 167697, Note_on_c, 0, 64, 0
2, 167722, Note_on_c, 0, 49, 0
2, 167739, Note_on_c, 0, 50, 82
2, 167819, Note_on_c, 0, 50, 0
2, 167821, Note_on_c, 0, 52, 81
2, 167982, Note_on_c, 0, 67, 92
2, 168017, Note_on_c, 0, 67, 0
2, 168023, Note_on_c, 0, 52, 0
2, 168054, Note_on_c, 0, 50, 77
2, 168114, Note_on_c, 0, 49, 75
2, 168167, Note_on_c, 0, 50, 0
2, 168188, Note_on_c, 0, 47, 74
2, 168190, Note_on_c, 0, 49, 0
2, 168270, Note_on_c, 0, 45, 85
2, 168279, Note_on_c, 0, 61, 92
2, 168295, Note_on_c, 0, 47, 0
2, 168319, Control_c, 0, 64, 10
2, 168331, Note_on_c, 0, 61, 0
2, 168335, Control_c, 0, 64, 42
2, 168350, Control_c, 0, 64, 51
2, 168365, Control_c, 0, 64, 56
2, 168381, Control_c, 0, 64, 59
2, 168396, Control_c, 0, 64, 61
2, 168411, Control_c, 0, 64, 62
2, 168426, Control_c, 0, 64, 63
2, 168586, Control_c, 0, 64, 62
2, 168594, Note_on_c, 0, 79, 94
2, 168596, Note_on_c, 0, 76, 90
2, 168601, Control_c, 0, 64, 58
2, 168616, Control_c, 0, 64, 52
2, 168631, Control_c, 0, 64, 40
2, 168647, Control_c, 0, 64, 0
2, 168647, Note_on_c, 0, 76, 0
2, 168654, Note_on_c, 0, 79, 0
2, 168753, Note_on_c, 0, 45, 0
2, 168757, Note_on_c, 0, 47, 70
2, 168830, Note_on_c, 0, 49, 71
2, 168849, Note_on_c, 0, 47, 0
2, 168905, Note_on_c, 0, 49, 0
2, 168909, Note_on_c, 0, 76, 95
2, 168912, Note_on_c, 0, 50, 75
2, 168912, Note_on_c, 0, 69, 84
2, 168964, Note_on_c, 0, 77, 6
2, 168977, Note_on_c, 0, 76, 0
2, 168979, Note_on_c, 0, 77, 0
2, 168999, Note_on_c, 0, 50, 0
2, 169007, Note_on_c, 0, 49, 72
2, 169068, Note_on_c, 0, 49, 0
2, 169074, Note_on_c, 0, 50, 71
2, 169154, Note_on_c, 0, 50, 0
2, 169160, Note_on_c, 0, 49, 69
2, 169205, Note_on_c, 0, 49, 0
2, 169212, Note_on_c, 0, 81, 88
2, 169215, Note_on_c, 0, 50, 67
2, 169255, Control_c, 0, 64, 38
2, 169270, Control_c, 0, 64, 49
2, 169276, Note_on_c, 0, 81, 0
2, 169281, Note_on_c, 0, 50, 0
2, 169285, Control_c, 0, 64, 54
2, 169289, Note_on_c, 0, 49, 67
2, 169308, Control_c, 0, 64, 58
2, 169322, Control_c, 0, 64, 61
2, 169338, Control_c, 0, 64, 63
2, 169353, Control_c, 0, 64, 65
2, 169363, Note_on_c, 0, 49, 0
2, 169369, Control_c, 0, 64, 67
2, 169370, Note_on_c, 0, 47, 71
2, 169383, Control_c, 0, 64, 69
2, 169398, Control_c, 0, 64, 72
2, 169414, Control_c, 0, 64, 74
2, 169426, Note_on_c, 0, 49, 64
2, 169429, Control_c, 0, 64, 75
2, 169454, Note_on_c, 0, 47, 0
2, 169460, Control_c, 0, 64, 73
2, 169472, Note_on_c, 0, 49, 0
2, 169475, Control_c, 0, 64, 68
2, 169491, Control_c, 0, 64, 62
2, 169506, Control_c, 0, 64, 48
2, 169515, Note_on_c, 0, 50, 89
2, 169519, Note_on_c, 0, 77, 96
2, 169521, Control_c, 0, 64, 0
2, 169582, Note_on_c, 0, 50, 0
2, 169585, Note_on_c, 0, 69, 0
2, 169585, Note_on_c, 0, 77, 0
2, 169600, Note_on_c, 0, 52, 86
2, 169672, Note_on_c, 0, 52, 0
2, 169676, Note_on_c, 0, 53, 84
2, 169830, Note_on_c, 0, 74, 84
2, 169832, Note_on_c, 0, 69, 78
2, 169857, Note_on_c, 0, 69, 0
2, 169865, Note_on_c, 0, 74, 0
2, 169873, Note_on_c, 0, 53, 0
2, 169902, Note_on_c, 0, 52, 74
2, 169968, Note_on_c, 0, 50, 70
2, 170010, Note_on_c, 0, 52, 0
2, 170039, Note_on_c, 0, 48, 73
2, 170045, Note_on_c, 0, 50, 0
2, 170099, Note_on_c, 0, 48, 0
2, 170122, Note_on_c, 0, 62, 87
2, 170134, Note_on_c, 0, 47, 91
2, 170168, Note_on_c, 0, 62, 0
2, 170200, Note_on_c, 0, 47, 0
2, 170207, Note_on_c, 0, 48, 89
2, 170274, Note_on_c, 0, 48, 0
2, 170282, Note_on_c, 0, 50, 82
2, 170444, Note_on_c, 0, 65, 94
2, 170473, Note_on_c, 0, 65, 0
2, 170512, Note_on_c, 0, 50, 0
2, 170527, Note_on_c, 0, 48, 75
2, 170597, Note_on_c, 0, 47, 73
2, 170644, Note_on_c, 0, 48, 0
2, 170645, Note_on_c, 0, 47, 0
2, 170661, Note_on_c, 0, 45, 78
2, 170744, Note_on_c, 0, 59, 91
2, 170745, Note_on_c, 0, 43, 87
2, 170745, Note_on_c, 0, 45, 0
2, 170781, Note_on_c, 0, 59, 0
2, 170805, Control_c, 0, 64, 41
2, 170821, Control_c, 0, 64, 51
2, 170844, Control_c, 0, 64, 56
2, 170860, Control_c, 0, 64, 58
2, 170874, Control_c, 0, 64, 60
2, 170890, Control_c, 0, 64, 60
2, 171057, Control_c, 0, 64, 60
2, 171071, Control_c, 0, 64, 59
2, 171077, Note_on_c, 0, 77, 97
2, 171083, Note_on_c, 0, 74, 79
2, 171087, Control_c, 0, 64, 57
2, 171102, Control_c, 0, 64, 53
2, 171108, Note_on_c, 0, 74, 0
2, 171117, Control_c, 0, 64, 46
2, 171132, Note_on_c, 0, 77, 0
2, 171133, Control_c, 0, 64, 38
2, 171149, Control_c, 0, 64, 29
2, 171163, Control_c, 0, 64, 17
2, 171179, Control_c, 0, 64, 0
2, 171263, Note_on_c, 0, 45, 69
2, 171265, Note_on_c, 0, 43, 0
2, 171331, Note_on_c, 0, 47, 71
2, 171350, Note_on_c, 0, 45, 0
2, 171391, Note_on_c, 0, 47, 0
2, 171400, Note_on_c, 0, 67, 82
2, 171401, Note_on_c, 0, 74, 87
2, 171404, Note_on_c, 0, 48, 80
2, 171460, Note_on_c, 0, 74, 0
2, 171477, Note_on_c, 0, 48, 0
2, 171496, Note_on_c, 0, 47, 76
2, 171560, Note_on_c, 0, 47, 0
2, 171576, Note_on_c, 0, 48, 78
2, 171652, Note_on_c, 0, 48, 0
2, 171663, Note_on_c, 0, 47, 71
2, 171716, Note_on_c, 0, 79, 89
2, 171719, Note_on_c, 0, 47, 0
2, 171736, Note_on_c, 0, 48, 74
2, 171746, Note_on_c, 0, 67, 0
2, 171764, Note_on_c, 0, 79, 0
2, 171797, Note_on_c, 0, 48, 0
2, 171812, Note_on_c, 0, 47, 71
2, 171880, Note_on_c, 0, 45, 69
2, 171880, Note_on_c, 0, 47, 0
2, 171949, Note_on_c, 0, 45, 0
2, 171957, Note_on_c, 0, 72, 33
2, 171962, Note_on_c, 0, 47, 67
2, 171990, Note_on_c, 0, 72, 0
2, 172026, Note_on_c, 0, 76, 92
2, 172035, Note_on_c, 0, 48, 88
2, 172043, Note_on_c, 0, 47, 0
2, 172078, Note_on_c, 0, 76, 0
2, 172081, Control_c, 0, 64, 31
2, 172097, Control_c, 0, 64, 48
2, 172112, Control_c, 0, 64, 55
2, 172127, Control_c, 0, 64, 59
2, 172132, Note_on_c, 0, 48, 0
2, 172142, Control_c, 0, 64, 64
2, 172157, Control_c, 0, 64, 67
2, 172174, Control_c, 0, 64, 71
2, 172189, Control_c, 0, 64, 75
2, 172204, Control_c, 0, 64, 77
2, 172295, Control_c, 0, 64, 75
2, 172310, Control_c, 0, 64, 72
2, 172325, Control_c, 0, 64, 65
2, 172341, Control_c, 0, 64, 59
2, 172343, Note_on_c, 0, 72, 88
2, 172356, Control_c, 0, 64, 41
2, 172379, Control_c, 0, 64, 0
2, 172406, Note_on_c, 0, 72, 0
2, 172437, Note_on_c, 0, 60, 79
2, 172512, Note_on_c, 0, 62, 73
2, 172518, Note_on_c, 0, 60, 0
2, 172580, Note_on_c, 0, 64, 89
2, 172589, Note_on_c, 0, 62, 0
2, 172652, Note_on_c, 0, 64, 0
2, 172657, Note_on_c, 0, 69, 91
2, 172665, Note_on_c, 0, 65, 93
2, 172735, Note_on_c, 0, 69, 0
2, 172774, Control_c, 0, 64, 10
2, 172790, Control_c, 0, 64, 14
2, 172805, Control_c, 0, 64, 17
2, 172821, Control_c, 0, 64, 19
2, 172851, Control_c, 0, 64, 20
2, 172919, Note_on_c, 0, 65, 0
2, 172989, Note_on_c, 0, 77, 97
2, 173023, Note_on_c, 0, 77, 0
2, 173070, Note_on_c, 0, 64, 77
2, 173126, Note_on_c, 0, 64, 0
2, 173142, Note_on_c, 0, 62, 79
2, 173211, Note_on_c, 0, 60, 72
2, 173252, Note_on_c, 0, 62, 0
2, 173289, Note_on_c, 0, 59, 87
2, 173291, Note_on_c, 0, 60, 0
2, 173295, Note_on_c, 0, 74, 83
2, 173341, Note_on_c, 0, 74, 0
2, 173439, Note_on_c, 0, 59, 0
2, 173594, Note_on_c, 0, 71, 80
2, 173600, Note_on_c, 0, 62, 77
2, 173628, Note_on_c, 0, 62, 0
2, 173631, Note_on_c, 0, 71, 0
2, 173673, Note_on_c, 0, 47, 80
2, 173695, Control_c, 0, 64, 19
2, 173738, Note_on_c, 0, 47, 0
2, 173745, Note_on_c, 0, 48, 78
2, 173769, Control_c, 0, 64, 12
2, 173785, Control_c, 0, 64, 0
2, 173823, Note_on_c, 0, 50, 81
2, 173831, Note_on_c, 0, 48, 0
2, 173903, Note_on_c, 0, 68, 88
2, 173905, Note_on_c, 0, 50, 0
2, 173905, Note_on_c, 0, 59, 80
2, 173913, Note_on_c, 0, 52, 85
2, 173931, Note_on_c, 0, 59, 0
2, 173955, Note_on_c, 0, 68, 0
2, 173975, Control_c, 0, 64, 35
2, 173990, Control_c, 0, 64, 42
2, 174005, Control_c, 0, 64, 46
2, 174021, Control_c, 0, 64, 49
2, 174035, Control_c, 0, 64, 50
2, 174181, Note_on_c, 0, 52, 0
2, 174203, Note_on_c, 0, 76, 82
2, 174205, Note_on_c, 0, 68, 84
2, 174233, Control_c, 0, 64, 49
2, 174245, Note_on_c, 0, 76, 0
2, 174248, Control_c, 0, 64, 47
2, 174249, Note_on_c, 0, 68, 0
2, 174264, Control_c, 0, 64, 44
2, 174279, Control_c, 0, 64, 41
2, 174295, Control_c, 0, 64, 38
2, 174295, Note_on_c, 0, 50, 76
2, 174309, Control_c, 0, 64, 33
2, 174324, Control_c, 0, 64, 27
2, 174340, Control_c, 0, 64, 17
2, 174355, Control_c, 0, 64, 0
2, 174357, Note_on_c, 0, 50, 0
2, 174359, Note_on_c, 0, 48, 70
2, 174416, Note_on_c, 0, 47, 68
2, 174441, Note_on_c, 0, 48, 0
2, 174490, Note_on_c, 0, 72, 75
2, 174494, Note_on_c, 0, 69, 81
2, 174496, Note_on_c, 0, 45, 75
2, 174497, Note_on_c, 0, 47, 0
2, 174598, Control_c, 0, 64, 37
2, 174614, Control_c, 0, 64, 46
2, 174629, Control_c, 0, 64, 52
2, 174644, Control_c, 0, 64, 59
2, 174660, Control_c, 0, 64, 63
2, 174662, Note_on_c, 0, 45, 0
2, 174679, Note_on_c, 0, 47, 69
2, 174682, Control_c, 0, 64, 65
2, 174698, Control_c, 0, 64, 66
2, 174713, Control_c, 0, 64, 66
2, 174728, Control_c, 0, 64, 66
2, 174739, Note_on_c, 0, 48, 71
2, 174744, Control_c, 0, 64, 65
2, 174750, Note_on_c, 0, 47, 0
2, 174758, Control_c, 0, 64, 64
2, 174774, Control_c, 0, 64, 62
2, 174789, Control_c, 0, 64, 59
2, 174803, Control_c, 0, 64, 53
2, 174807, Note_on_c, 0, 50, 79
2, 174819, Control_c, 0, 64, 40
2, 174821, Note_on_c, 0, 48, 0
2, 174834, Control_c, 0, 64, 19
2, 174849, Control_c, 0, 64, 0
2, 174875, Note_on_c, 0, 50, 0
2, 174886, Note_on_c, 0, 52, 74
2, 174967, Note_on_c, 0, 54, 80
2, 174982, Note_on_c, 0, 52, 0
2, 175034, Note_on_c, 0, 56, 80
2, 175056, Note_on_c, 0, 54, 0
2, 175077, Note_on_c, 0, 69, 0
2, 175111, Note_on_c, 0, 56, 0
2, 175111, Note_on_c, 0, 57, 82
2, 175160, Note_on_c, 0, 72, 0
2, 175192, Note_on_c, 0, 71, 78
2, 175214, Control_c, 0, 64, 15
2, 175230, Control_c, 0, 64, 33
2, 175245, Control_c, 0, 64, 42
2, 175261, Control_c, 0, 64, 47
2, 175273, Note_on_c, 0, 69, 79
2, 175276, Control_c, 0, 64, 51
2, 175277, Note_on_c, 0, 71, 0
2, 175290, Control_c, 0, 64, 54
2, 175306, Control_c, 0, 64, 57
2, 175321, Control_c, 0, 64, 59
2, 175327, Note_on_c, 0, 69, 0
2, 175337, Control_c, 0, 64, 62
2, 175343, Note_on_c, 0, 67, 79
2, 175352, Control_c, 0, 64, 63
2, 175367, Control_c, 0, 64, 64
2, 175382, Control_c, 0, 64, 65
2, 175397, Control_c, 0, 64, 64
2, 175412, Control_c, 0, 64, 64
2, 175415, Note_on_c, 0, 65, 82
2, 175417, Note_on_c, 0, 67, 0
2, 175428, Control_c, 0, 64, 63
2, 175449, Control_c, 0, 64, 61
2, 175465, Control_c, 0, 64, 57
2, 175480, Control_c, 0, 64, 51
2, 175490, Note_on_c, 0, 64, 85
2, 175490, Note_on_c, 0, 65, 0
2, 175496, Control_c, 0, 64, 46
2, 175511, Control_c, 0, 64, 40
2, 175526, Control_c, 0, 64, 33
2, 175542, Control_c, 0, 64, 25
2, 175547, Note_on_c, 0, 62, 79
2, 175548, Note_on_c, 0, 64, 0
2, 175557, Control_c, 0, 64, 19
2, 175571, Control_c, 0, 64, 0
2, 175624, Note_on_c, 0, 60, 80
2, 175624, Note_on_c, 0, 62, 0
2, 175692, Note_on_c, 0, 60, 0
2, 175698, Note_on_c, 0, 62, 84
2, 175777, Note_on_c, 0, 71, 75
2, 175784, Control_c, 0, 64, 30
2, 175799, Control_c, 0, 64, 44
2, 175815, Control_c, 0, 64, 50
2, 175830, Control_c, 0, 64, 55
2, 175835, Note_on_c, 0, 62, 0
2, 175844, Control_c, 0, 64, 58
2, 175845, Note_on_c, 0, 71, 0
2, 175846, Note_on_c, 0, 72, 77
2, 175860, Control_c, 0, 64, 60
2, 175875, Control_c, 0, 64, 62
2, 175890, Control_c, 0, 64, 64
2, 175906, Control_c, 0, 64, 65
2, 175912, Note_on_c, 0, 72, 0
2, 175913, Note_on_c, 0, 74, 81
2, 175921, Control_c, 0, 64, 67
2, 175936, Control_c, 0, 64, 69
2, 175959, Note_on_c, 0, 74, 0
2, 175960, Note_on_c, 0, 57, 0
2, 175966, Control_c, 0, 64, 67
2, 175982, Control_c, 0, 64, 62
2, 175990, Note_on_c, 0, 56, 73
2, 175992, Note_on_c, 0, 59, 83
2, 175994, Note_on_c, 0, 76, 78
2, 175997, Control_c, 0, 64, 52
2, 176012, Control_c, 0, 64, 21
2, 176028, Control_c, 0, 64, 0
2, 176052, Note_on_c, 0, 76, 0
2, 176062, Note_on_c, 0, 78, 79
2, 176067, Note_on_c, 0, 59, 0
2, 176100, Note_on_c, 0, 56, 0
2, 176127, Note_on_c, 0, 78, 0
2, 176130, Note_on_c, 0, 80, 74
2, 176141, Note_on_c, 0, 57, 77
2, 176149, Note_on_c, 0, 54, 69
2, 176170, Note_on_c, 0, 80, 0
2, 176196, Note_on_c, 0, 81, 77
2, 176228, Note_on_c, 0, 57, 0
2, 176246, Note_on_c, 0, 54, 0
2, 176285, Note_on_c, 0, 81, 0
2, 176291, Note_on_c, 0, 83, 91
2, 176299, Note_on_c, 0, 52, 85
2, 176304, Note_on_c, 0, 56, 86
2, 176341, Control_c, 0, 64, 35
2, 176356, Control_c, 0, 64, 51
2, 176370, Control_c, 0, 64, 59
2, 176380, Note_on_c, 0, 81, 78
2, 176386, Control_c, 0, 64, 63
2, 176392, Note_on_c, 0, 83, 0
2, 176401, Control_c, 0, 64, 65
2, 176416, Control_c, 0, 64, 69
2, 176431, Control_c, 0, 64, 75
2, 176446, Control_c, 0, 64, 86
2, 176452, Note_on_c, 0, 80, 78
2, 176461, Note_on_c, 0, 81, 0
2, 176462, Control_c, 0, 64, 101
2, 176477, Control_c, 0, 64, 127
2, 176515, Note_on_c, 0, 52, 0
2, 176536, Note_on_c, 0, 78, 79
2, 176545, Note_on_c, 0, 80, 0
2, 176568, Control_c, 0, 64, 112
2, 176584, Control_c, 0, 64, 86
2, 176597, Note_on_c, 0, 78, 0
2, 176599, Control_c, 0, 64, 70
2, 176609, Note_on_c, 0, 76, 71
2, 176615, Control_c, 0, 64, 56
2, 176617, Note_on_c, 0, 50, 69
2, 176629, Control_c, 0, 64, 0
2, 176640, Note_on_c, 0, 76, 0
2, 176680, Note_on_c, 0, 74, 78
2, 176746, Note_on_c, 0, 74, 0
2, 176764, Note_on_c, 0, 72, 77
2, 176815, Note_on_c, 0, 50, 0
2, 176818, Note_on_c, 0, 72, 0
2, 176836, Note_on_c, 0, 71, 71
2, 176844, Note_on_c, 0, 56, 0
2, 176880, Note_on_c, 0, 71, 0
2, 176896, Note_on_c, 0, 48, 90
2, 176896, Note_on_c, 0, 57, 88
2, 176900, Note_on_c, 0, 76, 86
2, 176989, Note_on_c, 0, 74, 72
2, 177004, Note_on_c, 0, 76, 0
2, 177067, Note_on_c, 0, 72, 74
2, 177076, Note_on_c, 0, 74, 0
2, 177148, Note_on_c, 0, 72, 0
2, 177150, Note_on_c, 0, 71, 71
2, 177185, Control_c, 0, 64, 10
2, 177200, Control_c, 0, 64, 34
2, 177203, Note_on_c, 0, 71, 0
2, 177215, Control_c, 0, 64, 44
2, 177229, Note_on_c, 0, 69, 68
2, 177230, Control_c, 0, 64, 50
2, 177245, Control_c, 0, 64, 53
2, 177260, Control_c, 0, 64, 56
2, 177267, Note_on_c, 0, 69, 0
2, 177275, Control_c, 0, 64, 59
2, 177290, Control_c, 0, 64, 60
2, 177300, Note_on_c, 0, 68, 75
2, 177306, Control_c, 0, 64, 62
2, 177321, Control_c, 0, 64, 63
2, 177337, Control_c, 0, 64, 64
2, 177352, Control_c, 0, 64, 66
2, 177355, Note_on_c, 0, 68, 0
2, 177366, Control_c, 0, 64, 68
2, 177372, Note_on_c, 0, 66, 71
2, 177382, Control_c, 0, 64, 72
2, 177397, Control_c, 0, 64, 77
2, 177412, Control_c, 0, 64, 82
2, 177428, Control_c, 0, 64, 85
2, 177430, Note_on_c, 0, 66, 0
2, 177442, Note_on_c, 0, 64, 72
2, 177459, Control_c, 0, 64, 84
2, 177462, Note_on_c, 0, 57, 0
2, 177473, Control_c, 0, 64, 83
2, 177488, Control_c, 0, 64, 81
2, 177504, Control_c, 0, 64, 76
2, 177513, Note_on_c, 0, 69, 82
2, 177515, Note_on_c, 0, 53, 97
2, 177519, Control_c, 0, 64, 69
2, 177521, Note_on_c, 0, 64, 0
2, 177535, Control_c, 0, 64, 63
2, 177536, Note_on_c, 0, 48, 0
2, 177548, Control_c, 0, 64, 43
2, 177563, Control_c, 0, 64, 0
2, 177597, Note_on_c, 0, 67, 65
2, 177614, Note_on_c, 0, 69, 0
2, 177659, Note_on_c, 0, 65, 74
2, 177694, Note_on_c, 0, 67, 0
2, 177747, Note_on_c, 0, 64, 73
2, 177751, Note_on_c, 0, 65, 0
2, 177807, Note_on_c, 0, 64, 0
2, 177826, Note_on_c, 0, 62, 74
2, 177874, Note_on_c, 0, 62, 0
2, 177903, Note_on_c, 0, 60, 72
2, 177906, Control_c, 0, 64, 15
2, 177921, Control_c, 0, 64, 30
2, 177937, Control_c, 0, 64, 40
2, 177952, Control_c, 0, 64, 50
2, 177967, Control_c, 0, 64, 58
2, 177976, Note_on_c, 0, 60, 0
2, 177977, Note_on_c, 0, 59, 73
2, 177982, Control_c, 0, 64, 61
2, 177997, Control_c, 0, 64, 62
2, 178012, Control_c, 0, 64, 64
2, 178028, Control_c, 0, 64, 66
2, 178033, Note_on_c, 0, 59, 0
2, 178043, Control_c, 0, 64, 69
2, 178049, Note_on_c, 0, 57, 78
2, 178058, Control_c, 0, 64, 73
2, 178073, Control_c, 0, 64, 77
2, 178088, Control_c, 0, 64, 81
2, 178098, Note_on_c, 0, 53, 0
2, 178104, Control_c, 0, 64, 82
2, 178119, Control_c, 0, 64, 81
2, 178124, Note_on_c, 0, 57, 0
2, 178128, Note_on_c, 0, 65, 83
2, 178129, Note_on_c, 0, 44, 91
2, 178135, Control_c, 0, 64, 76
2, 178150, Control_c, 0, 64, 69
2, 178165, Control_c, 0, 64, 49
2, 178180, Control_c, 0, 64, 0
2, 178205, Note_on_c, 0, 64, 71
2, 178235, Note_on_c, 0, 65, 0
2, 178270, Note_on_c, 0, 62, 73
2, 178292, Note_on_c, 0, 64, 0
2, 178354, Note_on_c, 0, 62, 0
2, 178355, Note_on_c, 0, 60, 75
2, 178405, Note_on_c, 0, 60, 0
2, 178427, Note_on_c, 0, 59, 71
2, 178471, Note_on_c, 0, 59, 0
2, 178510, Note_on_c, 0, 57, 79
2, 178583, Note_on_c, 0, 57, 0
2, 178595, Note_on_c, 0, 56, 68
2, 178636, Note_on_c, 0, 56, 0
2, 178644, Control_c, 0, 64, 29
2, 178656, Note_on_c, 0, 54, 80
2, 178660, Control_c, 0, 64, 42
2, 178675, Control_c, 0, 64, 50
2, 178689, Control_c, 0, 64, 57
2, 178705, Control_c, 0, 64, 62
2, 178706, Note_on_c, 0, 54, 0
2, 178720, Control_c, 0, 64, 65
2, 178736, Control_c, 0, 64, 68
2, 178739, Note_on_c, 0, 62, 75
2, 178750, Control_c, 0, 64, 69
2, 178765, Control_c, 0, 64, 70
2, 178796, Control_c, 0, 64, 69
2, 178811, Note_on_c, 0, 60, 71
2, 178826, Control_c, 0, 64, 69
2, 178837, Note_on_c, 0, 62, 0
2, 178841, Control_c, 0, 64, 68
2, 178857, Control_c, 0, 64, 67
2, 178868, Note_on_c, 0, 59, 74
2, 178871, Control_c, 0, 64, 67
2, 178886, Control_c, 0, 64, 66
2, 178890, Note_on_c, 0, 60, 0
2, 178917, Control_c, 0, 64, 65
2, 178929, Note_on_c, 0, 59, 0
2, 178932, Control_c, 0, 64, 64
2, 178942, Note_on_c, 0, 57, 78
2, 178948, Control_c, 0, 64, 63
2, 178963, Control_c, 0, 64, 59
2, 178978, Control_c, 0, 64, 53
2, 178993, Control_c, 0, 64, 47
2, 179008, Control_c, 0, 64, 44
2, 179009, Note_on_c, 0, 57, 0
2, 179020, Note_on_c, 0, 56, 81
2, 179024, Control_c, 0, 64, 43
2, 179039, Control_c, 0, 64, 42
2, 179043, Note_on_c, 0, 44, 0
2, 179055, Control_c, 0, 64, 41
2, 179069, Control_c, 0, 64, 40
2, 179083, Control_c, 0, 64, 39
2, 179091, Note_on_c, 0, 56, 0
2, 179092, Note_on_c, 0, 54, 85
2, 179114, Control_c, 0, 64, 38
2, 179129, Control_c, 0, 64, 37
2, 179144, Control_c, 0, 64, 36
2, 179159, Note_on_c, 0, 52, 72
2, 179168, Note_on_c, 0, 54, 0
2, 179226, Note_on_c, 0, 51, 82
2, 179229, Note_on_c, 0, 52, 0
2, 179235, Control_c, 0, 64, 36
2, 179250, Control_c, 0, 64, 35
2, 179266, Control_c, 0, 64, 34
2, 179291, Note_on_c, 0, 51, 0
2, 179308, Note_on_c, 0, 52, 88
2, 179351, Control_c, 0, 64, 34
2, 179382, Control_c, 0, 64, 33
2, 179396, Control_c, 0, 64, 33
2, 179411, Control_c, 0, 64, 32
2, 179427, Control_c, 0, 64, 32
2, 179442, Control_c, 0, 64, 31
2, 179620, Note_on_c, 0, 50, 83
2, 179674, Note_on_c, 0, 50, 0
2, 179718, Note_on_c, 0, 64, 68
2, 179786, Note_on_c, 0, 66, 74
2, 179788, Note_on_c, 0, 64, 0
2, 179856, Note_on_c, 0, 68, 76
2, 179860, Note_on_c, 0, 66, 0
2, 179915, Note_on_c, 0, 47, 83
2, 179926, Note_on_c, 0, 52, 0
2, 179928, Note_on_c, 0, 68, 0
2, 179932, Note_on_c, 0, 69, 78
2, 179998, Note_on_c, 0, 69, 0
2, 180007, Note_on_c, 0, 68, 80
2, 180087, Note_on_c, 0, 68, 0
2, 180092, Note_on_c, 0, 69, 81
2, 180160, Note_on_c, 0, 69, 0
2, 180161, Note_on_c, 0, 68, 74
2, 180180, Note_on_c, 0, 47, 0
2, 180232, Note_on_c, 0, 68, 0
2, 180233, Note_on_c, 0, 69, 74
2, 180236, Note_on_c, 0, 52, 85
2, 180302, Note_on_c, 0, 69, 0
2, 180305, Note_on_c, 0, 68, 80
2, 180359, Note_on_c, 0, 68, 0
2, 180384, Note_on_c, 0, 66, 78
2, 180448, Note_on_c, 0, 66, 0
2, 180450, Note_on_c, 0, 68, 81
2, 180471, Note_on_c, 0, 52, 0
2, 180483, Control_c, 0, 64, 25
2, 180499, Control_c, 0, 64, 0
2, 180507, Note_on_c, 0, 68, 0
2, 180527, Note_on_c, 0, 48, 85
2, 180531, Note_on_c, 0, 69, 90
2, 180650, Control_c, 0, 64, 16
2, 180666, Control_c, 0, 64, 31
2, 180681, Control_c, 0, 64, 37
2, 180697, Control_c, 0, 64, 41
2, 180711, Control_c, 0, 64, 45
2, 180726, Control_c, 0, 64, 48
2, 180742, Control_c, 0, 64, 50
2, 180756, Control_c, 0, 64, 52
2, 180771, Control_c, 0, 64, 53
2, 180787, Control_c, 0, 64, 54
2, 180799, Note_on_c, 0, 48, 0
2, 180840, Control_c, 0, 64, 49
2, 180855, Note_on_c, 0, 45, 83
2, 180856, Control_c, 0, 64, 37
2, 180871, Control_c, 0, 64, 0
2, 180916, Note_on_c, 0, 59, 75
2, 180990, Note_on_c, 0, 60, 73
2, 180993, Note_on_c, 0, 59, 0
2, 181024, Control_c, 0, 64, 29
2, 181039, Control_c, 0, 64, 38
2, 181054, Control_c, 0, 64, 44
2, 181055, Note_on_c, 0, 60, 0
2, 181062, Note_on_c, 0, 62, 73
2, 181069, Control_c, 0, 64, 49
2, 181084, Control_c, 0, 64, 55
2, 181086, Note_on_c, 0, 45, 0
2, 181100, Control_c, 0, 64, 61
2, 181115, Control_c, 0, 64, 64
2, 181130, Control_c, 0, 64, 66
2, 181134, Note_on_c, 0, 62, 0
2, 181137, Note_on_c, 0, 40, 85
2, 181144, Note_on_c, 0, 61, 75
2, 181146, Control_c, 0, 64, 67
2, 181160, Control_c, 0, 64, 68
2, 181176, Control_c, 0, 64, 69
2, 181204, Note_on_c, 0, 61, 0
2, 181205, Control_c, 0, 64, 68
2, 181206, Note_on_c, 0, 62, 72
2, 181221, Control_c, 0, 64, 68
2, 181236, Control_c, 0, 64, 67
2, 181251, Control_c, 0, 64, 67
2, 181266, Note_on_c, 0, 69, 0
2, 181267, Control_c, 0, 64, 66
2, 181274, Note_on_c, 0, 62, 0
2, 181278, Note_on_c, 0, 61, 72
2, 181281, Control_c, 0, 64, 65
2, 181297, Control_c, 0, 64, 64
2, 181312, Control_c, 0, 64, 64
2, 181337, Note_on_c, 0, 61, 0
2, 181339, Note_on_c, 0, 62, 59
2, 181357, Control_c, 0, 64, 63
2, 181372, Control_c, 0, 64, 63
2, 181388, Control_c, 0, 64, 62
2, 181400, Note_on_c, 0, 62, 0
2, 181402, Control_c, 0, 64, 60
2, 181402, Note_on_c, 0, 61, 64
2, 181412, Note_on_c, 0, 40, 0
2, 181418, Control_c, 0, 64, 56
2, 181433, Control_c, 0, 64, 46
2, 181445, Note_on_c, 0, 43, 92
2, 181448, Control_c, 0, 64, 24
2, 181455, Note_on_c, 0, 62, 59
2, 181461, Note_on_c, 0, 61, 0
2, 181464, Control_c, 0, 64, 0
2, 181523, Note_on_c, 0, 61, 66
2, 181540, Note_on_c, 0, 62, 0
2, 181555, Note_on_c, 0, 69, 19
2, 181597, Note_on_c, 0, 61, 0
2, 181602, Note_on_c, 0, 59, 77
2, 181652, Note_on_c, 0, 59, 0
2, 181659, Note_on_c, 0, 61, 71
2, 181709, Note_on_c, 0, 61, 0
2, 181724, Note_on_c, 0, 43, 0
2, 181733, Note_on_c, 0, 69, 0
2, 181733, Note_on_c, 0, 69, 32
2, 181736, Note_on_c, 0, 41, 81
2, 181736, Note_on_c, 0, 62, 84
2, 181745, Note_on_c, 0, 43, 30
2, 181776, Note_on_c, 0, 43, 0
2, 181817, Note_on_c, 0, 40, 68
2, 181830, Note_on_c, 0, 41, 0
2, 181892, Note_on_c, 0, 38, 84
2, 181903, Note_on_c, 0, 40, 0
2, 182040, Note_on_c, 0, 62, 0
2, 182074, Note_on_c, 0, 71, 86
2, 182076, Note_on_c, 0, 65, 78
2, 182116, Note_on_c, 0, 69, 0
2, 182138, Control_c, 0, 64, 31
2, 182154, Control_c, 0, 64, 48
2, 182168, Control_c, 0, 64, 56
2, 182184, Control_c, 0, 64, 62
2, 182199, Control_c, 0, 64, 67
2, 182214, Control_c, 0, 64, 75
2, 182230, Control_c, 0, 64, 86
2, 182232, Note_on_c, 0, 71, 0
2, 182244, Control_c, 0, 64, 99
2, 182251, Note_on_c, 0, 40, 88
2, 182259, Control_c, 0, 64, 127
2, 182269, Note_on_c, 0, 65, 0
2, 182278, Note_on_c, 0, 38, 0
2, 182354, Note_on_c, 0, 41, 85
2, 182357, Note_on_c, 0, 40, 0
2, 182419, Control_c, 0, 64, 123
2, 182435, Control_c, 0, 64, 86
2, 182452, Control_c, 0, 64, 66
2, 182467, Control_c, 0, 64, 0
2, 182473, Note_on_c, 0, 41, 0
2, 182477, Note_on_c, 0, 38, 75
2, 182482, Note_on_c, 0, 56, 81
2, 182489, Note_on_c, 0, 64, 78
2, 182576, Note_on_c, 0, 40, 81
2, 182580, Note_on_c, 0, 38, 0
2, 182664, Note_on_c, 0, 40, 0
2, 182668, Control_c, 0, 64, 22
2, 182669, Note_on_c, 0, 41, 82
2, 182682, Control_c, 0, 64, 36
2, 182698, Control_c, 0, 64, 45
2, 182713, Control_c, 0, 64, 52
2, 182729, Control_c, 0, 64, 56
2, 182744, Control_c, 0, 64, 61
2, 182744, Note_on_c, 0, 41, 0
2, 182757, Note_on_c, 0, 40, 80
2, 182759, Control_c, 0, 64, 64
2, 182775, Control_c, 0, 64, 67
2, 182790, Control_c, 0, 64, 69
2, 182805, Control_c, 0, 64, 72
2, 182820, Control_c, 0, 64, 75
2, 182826, Note_on_c, 0, 40, 0
2, 182832, Note_on_c, 0, 56, 0
2, 182835, Control_c, 0, 64, 77
2, 182839, Note_on_c, 0, 41, 86
2, 182851, Control_c, 0, 64, 77
2, 182866, Control_c, 0, 64, 75
2, 182881, Control_c, 0, 64, 73
2, 182896, Control_c, 0, 64, 70
2, 182911, Control_c, 0, 64, 64
2, 182911, Note_on_c, 0, 41, 0
2, 182921, Note_on_c, 0, 40, 83
2, 182927, Control_c, 0, 64, 45
2, 182942, Control_c, 0, 64, 0
2, 183008, Note_on_c, 0, 41, 87
2, 183014, Note_on_c, 0, 40, 0
2, 183017, Note_on_c, 0, 59, 82
2, 183017, Note_on_c, 0, 64, 0
2, 183020, Note_on_c, 0, 68, 77
2, 183108, Control_c, 0, 64, 17
2, 183113, Note_on_c, 0, 40, 84
2, 183129, Note_on_c, 0, 41, 0
2, 183132, Control_c, 0, 64, 39
2, 183147, Control_c, 0, 64, 47
2, 183162, Control_c, 0, 64, 53
2, 183177, Control_c, 0, 64, 57
2, 183192, Control_c, 0, 64, 60
2, 183208, Control_c, 0, 64, 61
2, 183223, Control_c, 0, 64, 63
2, 183233, Note_on_c, 0, 41, 87
2, 183237, Control_c, 0, 64, 64
2, 183240, Note_on_c, 0, 40, 0
2, 183253, Control_c, 0, 64, 65
2, 183283, Control_c, 0, 64, 65
2, 183299, Control_c, 0, 64, 65
2, 183313, Control_c, 0, 64, 63
2, 183329, Control_c, 0, 64, 59
2, 183344, Control_c, 0, 64, 51
2, 183356, Note_on_c, 0, 40, 85
2, 183359, Control_c, 0, 64, 28
2, 183374, Note_on_c, 0, 41, 0
2, 183375, Control_c, 0, 64, 0
2, 183483, Note_on_c, 0, 40, 0
2, 183523, Note_on_c, 0, 38, 86
2, 183678, Note_on_c, 0, 38, 0
2, 183701, Note_on_c, 0, 40, 85
2, 183866, Note_on_c, 0, 59, 0
2, 183909, Note_on_c, 0, 68, 0
2, 183918, Note_on_c, 0, 69, 81
2, 183921, Note_on_c, 0, 33, 83
2, 183921, Note_on_c, 0, 61, 75
2, 183961, Note_on_c, 0, 40, 0
2, 185350, Note_on_c, 0, 33, 0
2, 185354, Note_on_c, 0, 69, 0
2, 185378, Note_on_c, 0, 61, 0
2, 185379, End_track
0, 0, End_of_file
