0, 0, Header, 1, 2, 384
1, 0, Start_track
1, 0, Tempo, 500000
1, 0, Time_signature, 4, 2, 24, 8
1, 1, End_track
2,0,Start_track
2,0, Note_on_c, 0, 64, 87
2,64, Note_on_c, 0, 65, 14
2,65, Note_on_c, 0, 65, 0
2,806, Note_on_c, 0, 64, 0
2,845, Note_on_c, 0, 60, 90
2,1627, Note_on_c, 0, 60, 0
2,1648, Note_on_c, 0, 65, 93
2,2365, Note_on_c, 0, 65, 0
2,2410, Note_on_c, 0, 56, 93
2,3595, Note_on_c, 0, 56, 0
2,3924, Note_on_c, 0, 62, 84
2,3964, Note_on_c, 0, 62, 0
2,4244, Note_on_c, 0, 59, 88
2,4293, Note_on_c, 0, 59, 0
2,4544, Note_on_c, 0, 64, 85
2,4601, Note_on_c, 0, 64, 0
2,4847, Note_on_c, 0, 60, 84
2,4897, Note_on_c, 0, 60, 0
2,5145, Note_on_c, 0, 57, 79
2,5195, Note_on_c, 0, 57, 0
2,5443, Note_on_c, 0, 69, 96
2,5446, Note_on_c, 0, 54, 84
2,5506, Note_on_c, 0, 54, 0
2,5753, Note_on_c, 0, 63, 84
2,5810, Note_on_c, 0, 63, 0
2,5998, Note_on_c, 0, 69, 0
2,6028, Note_on_c, 0, 52, 81
2,6042, Note_on_c, 0, 67, 97
2,6083, Note_on_c, 0, 52, 0
2,6347, Note_on_c, 0, 64, 80
2,6401, Note_on_c, 0, 64, 0
2,6413, Note_on_c, 0, 62, 79
2,6489, Note_on_c, 0, 60, 71
2,6529, Note_on_c, 0, 62, 0
2,6553, Note_on_c, 0, 59, 80
2,6561, Note_on_c, 0, 67, 0
2,6576, Note_on_c, 0, 60, 0
2,6596, Note_on_c, 0, 67, 22
2,6611, Note_on_c, 0, 59, 0
2,6641, Note_on_c, 0, 67, 0
2,6657, Note_on_c, 0, 57, 62
2,6664, Note_on_c, 0, 72, 97
2,6725, Note_on_c, 0, 57, 0
2,6966, Note_on_c, 0, 60, 81
2,7020, Note_on_c, 0, 60, 0
2,7030, Note_on_c, 0, 59, 82
2,7108, Note_on_c, 0, 57, 74
2,7151, Note_on_c, 0, 59, 0
2,7174, Note_on_c, 0, 55, 79
2,7184, Note_on_c, 0, 57, 0
2,7232, Note_on_c, 0, 55, 0
2,7247, Control_c, 0, 64, 8
2,7256, Note_on_c, 0, 72, 0
2,7262, Control_c, 0, 64, 0
2,7262, Note_on_c, 0, 63, 97
2,7264, Note_on_c, 0, 54, 83
2,7323, Note_on_c, 0, 54, 0
2,7336, Note_on_c, 0, 55, 81
2,7400, Note_on_c, 0, 55, 0
2,7408, Note_on_c, 0, 57, 84
2,7601, Note_on_c, 0, 57, 0
2,7635, Note_on_c, 0, 55, 66
2,7712, Note_on_c, 0, 54, 70
2,7749, Note_on_c, 0, 55, 0
2,7773, Note_on_c, 0, 52, 74
2,7776, Note_on_c, 0, 54, 0
2,7835, Note_on_c, 0, 52, 0
2,7846, Note_on_c, 0, 51, 90
2,7906, Note_on_c, 0, 51, 0
2,7913, Note_on_c, 0, 52, 83
2,7989, Note_on_c, 0, 52, 0
2,7999, Note_on_c, 0, 54, 83
2,8249, Note_on_c, 0, 54, 0
2,8256, Note_on_c, 0, 52, 68
2,8324, Note_on_c, 0, 51, 73
2,8340, Note_on_c, 0, 63, 0
2,8364, Note_on_c, 0, 52, 0
2,8382, Note_on_c, 0, 51, 0
2,8387, Note_on_c, 0, 49, 73
2,8455, Note_on_c, 0, 47, 85
2,8470, Note_on_c, 0, 49, 0
2,8762, Note_on_c, 0, 69, 94
2,8804, Note_on_c, 0, 69, 0
2,8950, Note_on_c, 0, 47, 0
2,8954, Note_on_c, 0, 49, 63
2,9019, Note_on_c, 0, 51, 69
2,9035, Note_on_c, 0, 49, 0
2,9078, Note_on_c, 0, 51, 0
2,9080, Note_on_c, 0, 52, 77
2,9082, Note_on_c, 0, 66, 90
2,9130, Note_on_c, 0, 66, 0
2,9162, Note_on_c, 0, 52, 0
2,9167, Note_on_c, 0, 51, 79
2,9247, Note_on_c, 0, 51, 0
2,9256, Note_on_c, 0, 52, 78
2,9326, Note_on_c, 0, 52, 0
2,9338, Note_on_c, 0, 51, 72
2,9390, Note_on_c, 0, 71, 95
2,9401, Note_on_c, 0, 51, 0
2,9410, Note_on_c, 0, 52, 77
2,9428, Note_on_c, 0, 71, 0
2,9474, Note_on_c, 0, 51, 73
2,9476, Note_on_c, 0, 52, 0
2,9535, Note_on_c, 0, 51, 0
2,9537, Note_on_c, 0, 49, 71
2,9621, Note_on_c, 0, 51, 71
2,9626, Note_on_c, 0, 49, 0
2,9674, Note_on_c, 0, 51, 0
2,9693, Note_on_c, 0, 52, 83
2,9698, Note_on_c, 0, 67, 97
2,9744, Note_on_c, 0, 67, 0
2,9928, Note_on_c, 0, 52, 0
2,10039, Note_on_c, 0, 64, 90
2,10083, Note_on_c, 0, 64, 0
2,10102, Note_on_c, 0, 52, 80
2,10143, Note_on_c, 0, 52, 0
2,10160, Note_on_c, 0, 53, 85
2,10235, Note_on_c, 0, 53, 0
2,10239, Note_on_c, 0, 55, 84
2,10303, Note_on_c, 0, 55, 0
2,10325, Note_on_c, 0, 57, 90
2,10348, Note_on_c, 0, 61, 89
2,10399, Note_on_c, 0, 61, 0
2,10614, Note_on_c, 0, 57, 0
2,10667, Note_on_c, 0, 69, 90
2,10701, Note_on_c, 0, 69, 0
2,10736, Note_on_c, 0, 55, 86
2,10808, Note_on_c, 0, 55, 0
2,10820, Note_on_c, 0, 53, 81
2,10891, Note_on_c, 0, 52, 76
2,10926, Note_on_c, 0, 53, 0
2,10968, Note_on_c, 0, 50, 89
2,10969, Note_on_c, 0, 52, 0
2,10974, Note_on_c, 0, 65, 90
2,11011, Note_on_c, 0, 65, 0
2,11251, Note_on_c, 0, 50, 0
2,11307, Note_on_c, 0, 62, 82
2,11344, Note_on_c, 0, 62, 0
2,11378, Note_on_c, 0, 50, 77
2,11448, Note_on_c, 0, 52, 75
2,11454, Note_on_c, 0, 50, 0
2,11524, Note_on_c, 0, 52, 0
2,11526, Note_on_c, 0, 53, 81
2,11615, Note_on_c, 0, 53, 0
2,11616, Note_on_c, 0, 59, 84
2,11628, Note_on_c, 0, 55, 81
2,11651, Note_on_c, 0, 59, 0
2,11908, Note_on_c, 0, 55, 0
2,11933, Note_on_c, 0, 67, 74
2,11960, Note_on_c, 0, 67, 0
2,12013, Note_on_c, 0, 53, 70
2,12084, Note_on_c, 0, 53, 0
2,12089, Note_on_c, 0, 52, 73
2,12145, Note_on_c, 0, 50, 71
2,12150, Note_on_c, 0, 52, 0
2,12232, Note_on_c, 0, 64, 86
2,12233, Note_on_c, 0, 50, 0
2,12248, Note_on_c, 0, 48, 79
2,12271, Note_on_c, 0, 64, 0
2,12550, Note_on_c, 0, 69, 91
2,12602, Note_on_c, 0, 69, 0
2,12732, Note_on_c, 0, 50, 73
2,12760, Note_on_c, 0, 48, 0
2,12865, Note_on_c, 0, 76, 101
2,12881, Note_on_c, 0, 52, 77
2,12899, Note_on_c, 0, 50, 0
2,13025, Note_on_c, 0, 52, 0
2,13049, Note_on_c, 0, 53, 74
2,13119, Note_on_c, 0, 53, 0
2,13132, Note_on_c, 0, 52, 73
2,13195, Note_on_c, 0, 68, 79
2,13213, Note_on_c, 0, 50, 75
2,13234, Note_on_c, 0, 52, 0
2,13251, Note_on_c, 0, 68, 0
2,13359, Note_on_c, 0, 52, 78
2,13376, Note_on_c, 0, 76, 0
2,13407, Note_on_c, 0, 50, 0
2,13504, Note_on_c, 0, 72, 105
2,13507, Note_on_c, 0, 52, 0
2,13510, Note_on_c, 0, 53, 80
2,13518, Note_on_c, 0, 57, 78
2,13575, Control_c, 0, 64, 32
2,13588, Control_c, 0, 64, 45
2,13603, Control_c, 0, 64, 52
2,13619, Control_c, 0, 64, 57
2,13628, Note_on_c, 0, 57, 0
2,13634, Control_c, 0, 64, 61
2,13649, Control_c, 0, 64, 63
2,13664, Control_c, 0, 64, 64
2,13679, Control_c, 0, 64, 64
2,13755, Control_c, 0, 64, 64
2,13770, Control_c, 0, 64, 63
2,13785, Control_c, 0, 64, 62
2,13785, Note_on_c, 0, 69, 74
2,13800, Control_c, 0, 64, 60
2,13816, Control_c, 0, 64, 54
2,13831, Control_c, 0, 64, 44
2,13844, Note_on_c, 0, 69, 0
2,13855, Control_c, 0, 64, 24
2,13869, Note_on_c, 0, 67, 84
2,13870, Control_c, 0, 64, 0
2,13882, Note_on_c, 0, 72, 0
2,13891, Note_on_c, 0, 67, 0
2,13927, Note_on_c, 0, 65, 83
2,13988, Note_on_c, 0, 65, 0
2,14003, Note_on_c, 0, 64, 83
2,14088, Note_on_c, 0, 62, 82
2,14099, Note_on_c, 0, 77, 99
2,14111, Note_on_c, 0, 53, 0
2,14121, Note_on_c, 0, 64, 0
2,14317, Note_on_c, 0, 62, 0
2,14414, Note_on_c, 0, 65, 74
2,14446, Note_on_c, 0, 77, 0
2,14468, Note_on_c, 0, 65, 0
2,14487, Note_on_c, 0, 64, 81
2,14563, Note_on_c, 0, 62, 75
2,14587, Note_on_c, 0, 64, 0
2,14642, Note_on_c, 0, 62, 0
2,14661, Note_on_c, 0, 60, 80
2,14707, Note_on_c, 0, 60, 0
2,14725, Note_on_c, 0, 68, 87
2,14726, Note_on_c, 0, 59, 81
2,14796, Note_on_c, 0, 60, 70
2,14804, Note_on_c, 0, 59, 0
2,14875, Note_on_c, 0, 60, 0
2,14879, Note_on_c, 0, 62, 79
2,15031, Note_on_c, 0, 53, 85
2,15084, Note_on_c, 0, 53, 0
2,15109, Note_on_c, 0, 68, 0
2,15116, Note_on_c, 0, 60, 75
2,15129, Note_on_c, 0, 62, 0
2,15166, Note_on_c, 0, 60, 0
2,15196, Note_on_c, 0, 59, 69
2,15226, Note_on_c, 0, 59, 0
2,15262, Note_on_c, 0, 57, 78
2,15327, Note_on_c, 0, 57, 0
2,15336, Note_on_c, 0, 47, 87
2,15338, Note_on_c, 0, 56, 81
2,15386, Note_on_c, 0, 47, 0
2,15388, Note_on_c, 0, 56, 0
2,15422, Note_on_c, 0, 57, 78
2,15480, Note_on_c, 0, 57, 0
2,15502, Note_on_c, 0, 59, 76
2,15648, Note_on_c, 0, 50, 90
2,15681, Note_on_c, 0, 50, 0
2,15690, Note_on_c, 0, 59, 0
2,15719, Note_on_c, 0, 57, 78
2,15798, Note_on_c, 0, 56, 75
2,15804, Note_on_c, 0, 57, 0
2,15869, Note_on_c, 0, 56, 0
2,15872, Note_on_c, 0, 54, 85
2,15929, Note_on_c, 0, 54, 0
2,15952, Note_on_c, 0, 52, 88
2,15957, Note_on_c, 0, 44, 76
2,15987, Note_on_c, 0, 44, 0
2,16254, Note_on_c, 0, 74, 100
2,16263, Note_on_c, 0, 47, 65
2,16292, Note_on_c, 0, 74, 0
2,16310, Note_on_c, 0, 47, 0
2,16401, Note_on_c, 0, 52, 0
2,16429, Note_on_c, 0, 54, 68
2,16498, Note_on_c, 0, 56, 66
2,16521, Note_on_c, 0, 54, 0
2,16553, Note_on_c, 0, 56, 0
2,16563, Note_on_c, 0, 52, 56
2,16563, Note_on_c, 0, 57, 74
2,16563, Note_on_c, 0, 71, 96
2,16614, Note_on_c, 0, 71, 0
2,16633, Note_on_c, 0, 57, 0
2,16640, Note_on_c, 0, 56, 73
2,16716, Note_on_c, 0, 56, 0
2,16724, Note_on_c, 0, 57, 80
2,16795, Note_on_c, 0, 57, 0
2,16799, Note_on_c, 0, 56, 72
2,16875, Note_on_c, 0, 56, 0
2,16887, Note_on_c, 0, 76, 98
2,16893, Note_on_c, 0, 57, 76
2,16926, Note_on_c, 0, 76, 0
2,16967, Note_on_c, 0, 57, 0
2,16974, Note_on_c, 0, 56, 72
2,17035, Note_on_c, 0, 56, 0
2,17054, Note_on_c, 0, 54, 64
2,17094, Note_on_c, 0, 52, 0
2,17123, Note_on_c, 0, 56, 76
2,17131, Note_on_c, 0, 54, 0
2,17172, Note_on_c, 0, 56, 0
2,17208, Note_on_c, 0, 57, 95
2,17208, Note_on_c, 0, 72, 92
2,17217, Note_on_c, 0, 45, 82
2,17256, Note_on_c, 0, 72, 0
2,17383, Note_on_c, 0, 45, 0
2,17531, Note_on_c, 0, 69, 93
2,17532, Note_on_c, 0, 57, 0
2,17573, Note_on_c, 0, 69, 0
2,17609, Note_on_c, 0, 57, 86
2,17684, Note_on_c, 0, 59, 82
2,17685, Note_on_c, 0, 57, 0
2,17754, Note_on_c, 0, 60, 89
2,17765, Note_on_c, 0, 59, 0
2,17825, Note_on_c, 0, 60, 0
2,17842, Note_on_c, 0, 66, 97
2,17844, Note_on_c, 0, 62, 89
2,17902, Note_on_c, 0, 66, 0
2,18107, Note_on_c, 0, 62, 0
2,18169, Note_on_c, 0, 54, 73
2,18170, Note_on_c, 0, 74, 97
2,18208, Note_on_c, 0, 74, 0
2,18236, Note_on_c, 0, 54, 0
2,18254, Note_on_c, 0, 60, 79
2,18314, Note_on_c, 0, 60, 0
2,18327, Note_on_c, 0, 59, 83
2,18406, Note_on_c, 0, 57, 78
2,18449, Note_on_c, 0, 59, 0
2,18486, Note_on_c, 0, 71, 93
2,18488, Note_on_c, 0, 55, 90
2,18497, Note_on_c, 0, 57, 0
2,18532, Note_on_c, 0, 71, 0
2,18706, Note_on_c, 0, 55, 0
2,18802, Note_on_c, 0, 67, 80
2,18845, Note_on_c, 0, 67, 0
2,18871, Note_on_c, 0, 55, 66
2,18937, Note_on_c, 0, 57, 71
2,18942, Note_on_c, 0, 55, 0
2,19013, Note_on_c, 0, 57, 0
2,19016, Note_on_c, 0, 59, 75
2,19086, Note_on_c, 0, 64, 86
2,19088, Note_on_c, 0, 59, 0
2,19097, Note_on_c, 0, 60, 86
2,19129, Note_on_c, 0, 64, 0
2,19383, Note_on_c, 0, 60, 0
2,19410, Note_on_c, 0, 72, 83
2,19429, Note_on_c, 0, 52, 53
2,19446, Note_on_c, 0, 72, 0
2,19492, Note_on_c, 0, 58, 65
2,19506, Note_on_c, 0, 52, 0
2,19554, Note_on_c, 0, 58, 0
2,19575, Note_on_c, 0, 57, 69
2,19633, Note_on_c, 0, 57, 0
2,19646, Note_on_c, 0, 55, 61
2,19708, Note_on_c, 0, 69, 81
2,19738, Note_on_c, 0, 55, 0
2,19746, Note_on_c, 0, 53, 59
2,19859, Note_on_c, 0, 65, 73
2,20021, Note_on_c, 0, 53, 0
2,20030, Note_on_c, 0, 55, 59
2,20033, Note_on_c, 0, 71, 77
2,20060, Note_on_c, 0, 65, 0
2,20064, Note_on_c, 0, 69, 0
2,20176, Note_on_c, 0, 65, 72
2,20282, Note_on_c, 0, 65, 0
2,20322, Note_on_c, 0, 71, 0
2,20324, Note_on_c, 0, 72, 73
2,20332, Note_on_c, 0, 57, 59
2,20335, Note_on_c, 0, 55, 0
2,20409, Note_on_c, 0, 64, 71
2,20475, Note_on_c, 0, 64, 0
2,20481, Note_on_c, 0, 65, 68
2,20548, Note_on_c, 0, 65, 0
2,20552, Note_on_c, 0, 67, 71
2,20614, Note_on_c, 0, 67, 0
2,20632, Note_on_c, 0, 57, 0
2,20633, Note_on_c, 0, 69, 65
2,20640, Note_on_c, 0, 55, 67
2,20709, Note_on_c, 0, 67, 71
2,20720, Note_on_c, 0, 69, 0
2,20763, Note_on_c, 0, 67, 0
2,20788, Note_on_c, 0, 65, 72
2,20812, Note_on_c, 0, 55, 0
2,20820, Note_on_c, 0, 65, 0
2,20861, Note_on_c, 0, 64, 75
2,20888, Note_on_c, 0, 64, 0
2,20891, Note_on_c, 0, 72, 0
2,20935, Note_on_c, 0, 62, 75
2,20940, Note_on_c, 0, 53, 73
2,20950, Control_c, 0, 64, 26
2,20965, Control_c, 0, 64, 37
2,20981, Control_c, 0, 64, 47
2,20995, Control_c, 0, 64, 55
2,21010, Note_on_c, 0, 72, 72
2,21011, Control_c, 0, 64, 60
2,21026, Control_c, 0, 64, 61
2,21087, Control_c, 0, 64, 60
2,21088, Note_on_c, 0, 74, 74
2,21095, Note_on_c, 0, 72, 0
2,21102, Control_c, 0, 64, 59
2,21117, Control_c, 0, 64, 58
2,21133, Control_c, 0, 64, 56
2,21139, Note_on_c, 0, 74, 0
2,21148, Control_c, 0, 64, 54
2,21152, Note_on_c, 0, 76, 77
2,21163, Control_c, 0, 64, 51
2,21179, Control_c, 0, 64, 47
2,21193, Control_c, 0, 64, 44
2,21207, Note_on_c, 0, 53, 0
2,21209, Control_c, 0, 64, 39
2,21224, Control_c, 0, 64, 33
2,21226, Note_on_c, 0, 76, 0
2,21228, Note_on_c, 0, 50, 68
2,21236, Note_on_c, 0, 77, 80
2,21239, Control_c, 0, 64, 28
2,21255, Control_c, 0, 64, 26
2,21270, Control_c, 0, 64, 24
2,21285, Control_c, 0, 64, 24
2,21315, Note_on_c, 0, 76, 75
2,21316, Control_c, 0, 64, 23
2,21317, Note_on_c, 0, 77, 0
2,21377, Note_on_c, 0, 76, 0
2,21381, Note_on_c, 0, 74, 65
2,21391, Control_c, 0, 64, 22
2,21435, Note_on_c, 0, 74, 0
2,21451, Note_on_c, 0, 72, 62
2,21475, Note_on_c, 0, 62, 0
2,21478, Note_on_c, 0, 72, 0
2,21537, Note_on_c, 0, 71, 80
2,21545, Note_on_c, 0, 55, 65
2,21617, Note_on_c, 0, 62, 71
2,21659, Note_on_c, 0, 50, 0
2,21693, Note_on_c, 0, 62, 0
2,21694, Note_on_c, 0, 64, 72
2,21741, Note_on_c, 0, 55, 0
2,21756, Note_on_c, 0, 64, 0
2,21756, Note_on_c, 0, 65, 73
2,21803, Note_on_c, 0, 71, 0
2,21821, Note_on_c, 0, 65, 0
2,21823, Note_on_c, 0, 53, 95
2,21835, Note_on_c, 0, 67, 68
2,21835, Note_on_c, 0, 71, 24
2,21890, Note_on_c, 0, 53, 0
2,21899, Note_on_c, 0, 65, 75
2,21938, Note_on_c, 0, 67, 0
2,21971, Note_on_c, 0, 65, 0
2,21984, Note_on_c, 0, 64, 72
2,21991, Control_c, 0, 64, 21
2,22005, Control_c, 0, 64, 22
2,22019, Note_on_c, 0, 64, 0
2,22056, Note_on_c, 0, 62, 77
2,22093, Note_on_c, 0, 62, 0
2,22097, Note_on_c, 0, 71, 0
2,22131, Note_on_c, 0, 52, 94
2,22135, Note_on_c, 0, 60, 94
2,22159, Control_c, 0, 64, 21
2,22252, Control_c, 0, 64, 20
2,22456, Note_on_c, 0, 55, 78
2,22462, Note_on_c, 0, 84, 83
2,22498, Note_on_c, 0, 55, 0
2,22498, Note_on_c, 0, 60, 0
2,22542, Note_on_c, 0, 83, 79
2,22553, Note_on_c, 0, 84, 0
2,22578, Control_c, 0, 64, 21
2,22600, Note_on_c, 0, 60, 43
2,22610, Note_on_c, 0, 81, 72
2,22621, Note_on_c, 0, 83, 0
2,22676, Note_on_c, 0, 81, 0
2,22682, Note_on_c, 0, 60, 0
2,22692, Note_on_c, 0, 79, 72
2,22706, Note_on_c, 0, 52, 0
2,22733, Note_on_c, 0, 79, 0
2,22754, Note_on_c, 0, 77, 87
2,22759, Note_on_c, 0, 57, 94
2,22779, Note_on_c, 0, 60, 80
2,22796, Note_on_c, 0, 77, 0
2,22804, Note_on_c, 0, 60, 0
2,23072, Control_c, 0, 64, 22
2,23087, Note_on_c, 0, 65, 79
2,23090, Note_on_c, 0, 81, 73
2,23117, Control_c, 0, 64, 21
2,23135, Note_on_c, 0, 65, 0
2,23152, Note_on_c, 0, 57, 0
2,23172, Note_on_c, 0, 79, 75
2,23178, Control_c, 0, 64, 22
2,23197, Note_on_c, 0, 81, 0
2,23240, Note_on_c, 0, 77, 79
2,23262, Note_on_c, 0, 79, 0
2,23309, Note_on_c, 0, 77, 0
2,23315, Control_c, 0, 64, 21
2,23315, Note_on_c, 0, 76, 63
2,23331, Control_c, 0, 64, 0
2,23365, Note_on_c, 0, 76, 0
2,23372, Note_on_c, 0, 74, 90
2,23376, Note_on_c, 0, 47, 96
2,23448, Note_on_c, 0, 76, 85
2,23450, Note_on_c, 0, 74, 0
2,23465, Control_c, 0, 64, 40
2,23480, Control_c, 0, 64, 47
2,23495, Control_c, 0, 64, 51
2,23510, Control_c, 0, 64, 53
2,23513, Note_on_c, 0, 76, 0
2,23537, Note_on_c, 0, 77, 23
2,23570, Control_c, 0, 64, 52
2,23586, Control_c, 0, 64, 50
2,23601, Control_c, 0, 64, 46
2,23617, Control_c, 0, 64, 41
2,23632, Control_c, 0, 64, 34
2,23646, Control_c, 0, 64, 25
2,23663, Control_c, 0, 64, 8
2,23678, Control_c, 0, 64, 0
2,23691, Note_on_c, 0, 69, 93
2,23769, Note_on_c, 0, 76, 79
2,23778, Note_on_c, 0, 69, 0
2,23784, Note_on_c, 0, 47, 0
2,23798, Note_on_c, 0, 77, 0
2,23845, Note_on_c, 0, 74, 76
2,23876, Note_on_c, 0, 76, 0
2,23912, Note_on_c, 0, 74, 0
2,23918, Note_on_c, 0, 72, 80
2,23976, Note_on_c, 0, 72, 0
2,23993, Note_on_c, 0, 62, 88
2,23997, Note_on_c, 0, 71, 81
2,24029, Note_on_c, 0, 62, 0
2,24034, Note_on_c, 0, 71, 0
2,24068, Note_on_c, 0, 72, 84
2,24126, Note_on_c, 0, 72, 0
2,24155, Note_on_c, 0, 74, 83
2,24298, Note_on_c, 0, 65, 84
2,24349, Note_on_c, 0, 65, 0
2,24386, Note_on_c, 0, 72, 80
2,24387, Note_on_c, 0, 74, 0
2,24449, Note_on_c, 0, 71, 76
2,24473, Note_on_c, 0, 72, 0
2,24527, Note_on_c, 0, 71, 0
2,24532, Note_on_c, 0, 69, 79
2,24590, Note_on_c, 0, 69, 0
2,24603, Note_on_c, 0, 59, 97
2,24606, Note_on_c, 0, 67, 84
2,24649, Note_on_c, 0, 59, 0
2,24914, Note_on_c, 0, 62, 87
2,24918, Note_on_c, 0, 53, 92
2,24959, Note_on_c, 0, 53, 0
2,24971, Note_on_c, 0, 67, 0
2,25038, Note_on_c, 0, 62, 0
2,25099, Note_on_c, 0, 69, 76
2,25150, Note_on_c, 0, 69, 0
2,25166, Note_on_c, 0, 71, 74
2,25230, Note_on_c, 0, 50, 90
2,25232, Note_on_c, 0, 71, 0
2,25240, Note_on_c, 0, 72, 83
2,25250, Note_on_c, 0, 65, 76
2,25275, Note_on_c, 0, 50, 0
2,25301, Note_on_c, 0, 65, 0
2,25302, Note_on_c, 0, 72, 0
2,25310, Note_on_c, 0, 71, 73
2,25378, Note_on_c, 0, 71, 0
2,25395, Note_on_c, 0, 72, 79
2,25459, Note_on_c, 0, 72, 0
2,25472, Note_on_c, 0, 71, 67
2,25535, Note_on_c, 0, 71, 0
2,25548, Note_on_c, 0, 55, 89
2,25549, Note_on_c, 0, 72, 79
2,25561, Note_on_c, 0, 62, 65
2,25584, Note_on_c, 0, 55, 0
2,25594, Note_on_c, 0, 62, 0
2,25631, Note_on_c, 0, 71, 74
2,25634, Note_on_c, 0, 72, 0
2,25673, Note_on_c, 0, 71, 0
2,25704, Note_on_c, 0, 69, 79
2,25765, Note_on_c, 0, 69, 0
2,25795, Note_on_c, 0, 71, 70
2,25840, Note_on_c, 0, 71, 0
2,25859, Note_on_c, 0, 52, 78
2,25859, Note_on_c, 0, 72, 96
2,25866, Note_on_c, 0, 67, 81
2,25960, Note_on_c, 0, 67, 0
2,26176, Note_on_c, 0, 60, 96
2,26206, Note_on_c, 0, 72, 0
2,26231, Note_on_c, 0, 60, 0
2,26279, Note_on_c, 0, 52, 0
2,26364, Note_on_c, 0, 52, 76
2,26431, Note_on_c, 0, 54, 79
2,26452, Note_on_c, 0, 52, 0
2,26486, Note_on_c, 0, 57, 93
2,26505, Note_on_c, 0, 54, 0
2,26509, Note_on_c, 0, 55, 82
2,26536, Note_on_c, 0, 57, 0
2,26574, Note_on_c, 0, 55, 0
2,26593, Note_on_c, 0, 54, 73
2,26650, Note_on_c, 0, 54, 0
2,26652, Note_on_c, 0, 55, 81
2,26730, Note_on_c, 0, 55, 0
2,26741, Note_on_c, 0, 54, 71
2,26794, Note_on_c, 0, 62, 92
2,26799, Note_on_c, 0, 54, 0
2,26801, Note_on_c, 0, 55, 78
2,26841, Note_on_c, 0, 62, 0
2,26870, Note_on_c, 0, 54, 72
2,26876, Note_on_c, 0, 55, 0
2,26951, Note_on_c, 0, 54, 0
2,26960, Note_on_c, 0, 52, 69
2,27027, Note_on_c, 0, 54, 58
2,27034, Note_on_c, 0, 52, 0
2,27090, Note_on_c, 0, 59, 93
2,27108, Note_on_c, 0, 54, 0
2,27111, Note_on_c, 0, 55, 74
2,27375, Note_on_c, 0, 59, 0
2,27385, Note_on_c, 0, 55, 0
2,27390, Note_on_c, 0, 52, 69
2,27402, Note_on_c, 0, 67, 92
2,27435, Note_on_c, 0, 52, 0
2,27457, Note_on_c, 0, 67, 0
2,27563, Note_on_c, 0, 59, 74
2,27645, Note_on_c, 0, 59, 0
2,27646, Note_on_c, 0, 61, 70
2,27695, Note_on_c, 0, 57, 49
2,27711, Note_on_c, 0, 64, 90
2,27715, Note_on_c, 0, 61, 0
2,27728, Note_on_c, 0, 62, 73
2,27755, Note_on_c, 0, 64, 0
2,27804, Note_on_c, 0, 62, 0
2,27808, Note_on_c, 0, 61, 72
2,27882, Note_on_c, 0, 61, 0
2,27890, Note_on_c, 0, 62, 76
2,27964, Note_on_c, 0, 61, 71
2,27964, Note_on_c, 0, 62, 0
2,28020, Note_on_c, 0, 69, 94
2,28040, Note_on_c, 0, 61, 0
2,28051, Note_on_c, 0, 62, 76
2,28052, Note_on_c, 0, 69, 0
2,28059, Control_c, 0, 64, 8
2,28110, Note_on_c, 0, 61, 68
2,28115, Note_on_c, 0, 62, 0
2,28176, Note_on_c, 0, 61, 0
2,28184, Note_on_c, 0, 59, 69
2,28248, Note_on_c, 0, 57, 0
2,28260, Note_on_c, 0, 61, 65
2,28280, Note_on_c, 0, 59, 0
2,28285, Control_c, 0, 64, 10
2,28315, Note_on_c, 0, 61, 0
2,28320, Note_on_c, 0, 66, 93
2,28323, Note_on_c, 0, 62, 83
2,28607, Note_on_c, 0, 62, 0
2,28627, Note_on_c, 0, 50, 81
2,28669, Note_on_c, 0, 66, 0
2,28698, Note_on_c, 0, 50, 0
2,28789, Note_on_c, 0, 66, 71
2,28847, Note_on_c, 0, 66, 0
2,28852, Note_on_c, 0, 68, 75
2,28909, Note_on_c, 0, 68, 0
2,28927, Note_on_c, 0, 69, 74
2,28929, Note_on_c, 0, 47, 80
2,28985, Note_on_c, 0, 69, 0
2,28992, Note_on_c, 0, 47, 0
2,29009, Note_on_c, 0, 68, 75
2,29062, Note_on_c, 0, 68, 0
2,29079, Note_on_c, 0, 69, 75
2,29143, Note_on_c, 0, 69, 0
2,29160, Note_on_c, 0, 68, 65
2,29205, Note_on_c, 0, 68, 0
2,29225, Note_on_c, 0, 69, 65
2,29226, Note_on_c, 0, 52, 83
2,29284, Note_on_c, 0, 69, 0
2,29288, Note_on_c, 0, 52, 0
2,29291, Note_on_c, 0, 68, 75
2,29348, Note_on_c, 0, 68, 0
2,29369, Note_on_c, 0, 66, 72
2,29407, Note_on_c, 0, 66, 0
2,29435, Note_on_c, 0, 68, 73
2,29495, Note_on_c, 0, 68, 0
2,29509, Note_on_c, 0, 69, 86
2,29513, Note_on_c, 0, 48, 84
2,29566, Note_on_c, 0, 48, 0
2,29672, Note_on_c, 0, 69, 0
2,29674, Note_on_c, 0, 71, 72
2,29740, Note_on_c, 0, 71, 0
2,29741, Note_on_c, 0, 72, 79
2,29779, Note_on_c, 0, 72, 0
2,29823, Note_on_c, 0, 74, 79
2,29832, Note_on_c, 0, 45, 78
2,29871, Note_on_c, 0, 45, 0
2,29886, Note_on_c, 0, 74, 0
2,29886, Note_on_c, 0, 76, 82
2,29953, Note_on_c, 0, 78, 81
2,29957, Note_on_c, 0, 76, 0
2,30025, Note_on_c, 0, 80, 81
2,30029, Note_on_c, 0, 78, 0
2,30110, Note_on_c, 0, 81, 92
2,30121, Note_on_c, 0, 42, 88
2,30125, Note_on_c, 0, 80, 0
2,30192, Note_on_c, 0, 42, 0
2,30296, Note_on_c, 0, 72, 73
2,30388, Note_on_c, 0, 72, 0
2,30444, Note_on_c, 0, 71, 66
2,30450, Note_on_c, 0, 51, 79
2,30507, Note_on_c, 0, 51, 0
2,30514, Note_on_c, 0, 71, 0
2,30588, Note_on_c, 0, 78, 82
2,30594, Note_on_c, 0, 81, 0
2,30650, Control_c, 0, 64, 0
2,30684, Note_on_c, 0, 78, 0
2,30743, Note_on_c, 0, 79, 91
2,30746, Note_on_c, 0, 40, 83
2,30809, Control_c, 0, 64, 37
2,30825, Control_c, 0, 64, 53
2,30840, Control_c, 0, 64, 60
2,30842, Note_on_c, 0, 40, 0
2,30856, Control_c, 0, 64, 65
2,30871, Control_c, 0, 64, 69
2,30886, Control_c, 0, 64, 76
2,30901, Control_c, 0, 64, 85
2,30916, Control_c, 0, 64, 101
2,30925, Note_on_c, 0, 71, 76
2,30931, Control_c, 0, 64, 119
2,30946, Control_c, 0, 64, 127
2,30961, Control_c, 0, 64, 119
2,30977, Control_c, 0, 64, 111
2,30992, Control_c, 0, 64, 106
2,31007, Control_c, 0, 64, 104
2,31011, Note_on_c, 0, 71, 0
2,31022, Control_c, 0, 64, 99
2,31037, Control_c, 0, 64, 91
2,31054, Control_c, 0, 64, 82
2,31069, Control_c, 0, 64, 72
2,31079, Note_on_c, 0, 76, 82
2,31084, Control_c, 0, 64, 62
2,31099, Note_on_c, 0, 79, 0
2,31100, Control_c, 0, 64, 33
2,31115, Control_c, 0, 64, 0
2,31149, Note_on_c, 0, 74, 86
2,31149, Note_on_c, 0, 76, 0
2,31183, Note_on_c, 0, 74, 0
2,31221, Note_on_c, 0, 72, 87
2,31263, Note_on_c, 0, 72, 0
2,31287, Note_on_c, 0, 71, 81
2,31364, Note_on_c, 0, 84, 99
2,31372, Note_on_c, 0, 69, 90
2,31387, Note_on_c, 0, 71, 0
2,31516, Note_on_c, 0, 69, 0
2,31704, Note_on_c, 0, 72, 76
2,31751, Note_on_c, 0, 72, 0
2,31763, Note_on_c, 0, 84, 0
2,31769, Note_on_c, 0, 71, 76
2,31843, Note_on_c, 0, 69, 75
2,31880, Note_on_c, 0, 71, 0
2,31918, Note_on_c, 0, 69, 0
2,31931, Note_on_c, 0, 67, 74
2,31990, Note_on_c, 0, 66, 89
2,31991, Note_on_c, 0, 75, 87
2,31996, Note_on_c, 0, 67, 0
2,32023, Note_on_c, 0, 73, 49
2,32041, Note_on_c, 0, 66, 0
2,32051, Note_on_c, 0, 73, 0
2,32075, Note_on_c, 0, 67, 80
2,32155, Note_on_c, 0, 67, 0
2,32155, Note_on_c, 0, 69, 84
2,32311, Note_on_c, 0, 60, 86
2,32367, Note_on_c, 0, 60, 0
2,32387, Note_on_c, 0, 69, 0
2,32388, Note_on_c, 0, 67, 78
2,32388, Note_on_c, 0, 75, 0
2,32451, Note_on_c, 0, 67, 0
2,32464, Note_on_c, 0, 66, 78
2,32487, Note_on_c, 0, 66, 0
2,32539, Note_on_c, 0, 64, 75
2,32603, Note_on_c, 0, 63, 80
2,32605, Note_on_c, 0, 54, 84
2,32607, Note_on_c, 0, 64, 0
2,32655, Note_on_c, 0, 54, 0
2,32677, Note_on_c, 0, 63, 0
2,32678, Note_on_c, 0, 64, 81
2,32762, Note_on_c, 0, 66, 83
2,32765, Note_on_c, 0, 64, 0
2,32906, Note_on_c, 0, 57, 86
2,32955, Note_on_c, 0, 66, 0
2,32956, Note_on_c, 0, 57, 0
2,32979, Note_on_c, 0, 64, 76
2,33058, Note_on_c, 0, 63, 78
2,33069, Note_on_c, 0, 64, 0
2,33132, Note_on_c, 0, 63, 0
2,33139, Note_on_c, 0, 61, 80
2,33214, Note_on_c, 0, 59, 90
2,33217, Note_on_c, 0, 61, 0
2,33220, Note_on_c, 0, 51, 76
2,33256, Note_on_c, 0, 51, 0
2,33534, Note_on_c, 0, 54, 63
2,33537, Note_on_c, 0, 79, 84
2,33537, Note_on_c, 0, 81, 81
2,33577, Note_on_c, 0, 54, 0
2,33583, Note_on_c, 0, 79, 0
2,33583, Note_on_c, 0, 81, 0
2,33675, Note_on_c, 0, 59, 0
2,33697, Note_on_c, 0, 61, 62
2,33772, Note_on_c, 0, 63, 67
2,33794, Note_on_c, 0, 61, 0
2,33839, Note_on_c, 0, 59, 59
2,33839, Note_on_c, 0, 63, 0
2,33852, Note_on_c, 0, 78, 94
2,33856, Note_on_c, 0, 64, 75
2,33899, Note_on_c, 0, 78, 0
2,33928, Note_on_c, 0, 64, 0
2,33938, Note_on_c, 0, 63, 71
2,34007, Note_on_c, 0, 63, 0
2,34019, Note_on_c, 0, 64, 78
2,34087, Note_on_c, 0, 64, 0
2,34090, Note_on_c, 0, 63, 66
2,34154, Note_on_c, 0, 63, 0
2,34166, Note_on_c, 0, 83, 98
2,34176, Note_on_c, 0, 64, 73
2,34209, Note_on_c, 0, 83, 0
2,34237, Note_on_c, 0, 64, 0
2,34239, Note_on_c, 0, 63, 72
2,34254, Note_on_c, 0, 59, 0
2,34301, Note_on_c, 0, 63, 0
2,34308, Note_on_c, 0, 61, 67
2,34385, Note_on_c, 0, 63, 76
2,34390, Note_on_c, 0, 61, 0
2,34433, Note_on_c, 0, 63, 0
2,34476, Note_on_c, 0, 79, 95
2,34481, Note_on_c, 0, 52, 87
2,34481, Note_on_c, 0, 64, 90
2,34537, Control_c, 0, 64, 24
2,34537, Note_on_c, 0, 79, 0
2,34551, Control_c, 0, 64, 49
2,34554, Note_on_c, 0, 64, 0
2,34566, Control_c, 0, 64, 57
2,34589, Control_c, 0, 64, 61
2,34592, Note_on_c, 0, 52, 0
2,34604, Control_c, 0, 64, 63
2,34620, Control_c, 0, 64, 65
2,34634, Control_c, 0, 64, 66
2,34649, Control_c, 0, 64, 67
2,34696, Control_c, 0, 64, 67
2,34742, Control_c, 0, 64, 66
2,34756, Control_c, 0, 64, 64
2,34771, Control_c, 0, 64, 62
2,34787, Control_c, 0, 64, 56
2,34796, Note_on_c, 0, 76, 92
2,34802, Control_c, 0, 64, 36
2,34818, Control_c, 0, 64, 0
2,34845, Note_on_c, 0, 76, 0
2,34872, Note_on_c, 0, 40, 77
2,34899, Note_on_c, 0, 41, 36
2,34928, Note_on_c, 0, 40, 0
2,34931, Note_on_c, 0, 41, 0
2,34931, Note_on_c, 0, 41, 24
2,35015, Note_on_c, 0, 43, 82
2,35016, Note_on_c, 0, 41, 0
2,35078, Note_on_c, 0, 43, 0
2,35090, Note_on_c, 0, 45, 88
2,35107, Note_on_c, 0, 73, 93
2,35161, Note_on_c, 0, 73, 0
2,35365, Note_on_c, 0, 45, 0
2,35415, Note_on_c, 0, 81, 88
2,35459, Note_on_c, 0, 81, 0
2,35490, Note_on_c, 0, 43, 78
2,35557, Note_on_c, 0, 43, 0
2,35559, Note_on_c, 0, 41, 80
2,35632, Note_on_c, 0, 40, 76
2,35665, Note_on_c, 0, 41, 0
2,35720, Note_on_c, 0, 38, 86
2,35722, Note_on_c, 0, 40, 0
2,35726, Note_on_c, 0, 77, 95
2,35794, Note_on_c, 0, 77, 0
2,35811, Note_on_c, 0, 38, 0
2,36050, Note_on_c, 0, 62, 92
2,36092, Note_on_c, 0, 62, 0
2,36124, Note_on_c, 0, 74, 77
2,36200, Note_on_c, 0, 76, 79
2,36202, Note_on_c, 0, 74, 0
2,36267, Note_on_c, 0, 76, 0
2,36275, Note_on_c, 0, 77, 80
2,36357, Note_on_c, 0, 77, 0
2,36368, Note_on_c, 0, 59, 87
2,36370, Note_on_c, 0, 79, 87
2,36429, Note_on_c, 0, 79, 0
2,36435, Note_on_c, 0, 59, 0
2,36687, Note_on_c, 0, 67, 81
2,36745, Note_on_c, 0, 77, 79
2,36756, Note_on_c, 0, 67, 0
2,36817, Note_on_c, 0, 77, 0
2,36827, Note_on_c, 0, 76, 78
2,36890, Note_on_c, 0, 76, 0
2,36913, Note_on_c, 0, 74, 83
2,36967, Note_on_c, 0, 74, 0
2,36995, Note_on_c, 0, 72, 85
2,37000, Note_on_c, 0, 64, 88
2,37043, Note_on_c, 0, 72, 0
2,37044, Note_on_c, 0, 64, 0
2,37304, Note_on_c, 0, 57, 89
2,37367, Note_on_c, 0, 57, 0
2,37380, Note_on_c, 0, 76, 75
2,37445, Note_on_c, 0, 77, 79
2,37451, Note_on_c, 0, 76, 0
2,37518, Note_on_c, 0, 79, 79
2,37521, Note_on_c, 0, 77, 0
2,37601, Note_on_c, 0, 81, 76
2,37609, Note_on_c, 0, 53, 95
2,37610, Note_on_c, 0, 79, 0
2,37678, Note_on_c, 0, 53, 0
2,37687, Note_on_c, 0, 81, 0
2,37699, Note_on_c, 0, 82, 78
2,37750, Note_on_c, 0, 82, 0
2,37772, Note_on_c, 0, 81, 75
2,37847, Note_on_c, 0, 79, 75
2,37850, Note_on_c, 0, 81, 0
2,37924, Note_on_c, 0, 77, 84
2,37925, Note_on_c, 0, 79, 0
2,37937, Note_on_c, 0, 62, 77
2,37984, Note_on_c, 0, 77, 0
2,37997, Note_on_c, 0, 76, 82
2,38003, Note_on_c, 0, 62, 0
2,38043, Note_on_c, 0, 76, 0
2,38072, Note_on_c, 0, 74, 80
2,38150, Note_on_c, 0, 74, 0
2,38153, Note_on_c, 0, 72, 85
2,38208, Note_on_c, 0, 72, 0
2,38221, Note_on_c, 0, 71, 82
2,38232, Note_on_c, 0, 56, 76
2,38265, Note_on_c, 0, 71, 0
2,38301, Note_on_c, 0, 56, 0
2,38303, Note_on_c, 0, 72, 80
2,38370, Note_on_c, 0, 71, 75
2,38401, Note_on_c, 0, 72, 0
2,38451, Note_on_c, 0, 69, 78
2,38467, Note_on_c, 0, 71, 0
2,38515, Note_on_c, 0, 52, 71
2,38525, Note_on_c, 0, 69, 0
2,38531, Note_on_c, 0, 68, 80
2,38558, Note_on_c, 0, 52, 0
2,38583, Note_on_c, 0, 68, 0
2,38606, Note_on_c, 0, 66, 72
2,38638, Note_on_c, 0, 66, 0
2,38678, Note_on_c, 0, 64, 72
2,38747, Note_on_c, 0, 64, 0
2,38758, Note_on_c, 0, 62, 70
2,38812, Note_on_c, 0, 62, 0
2,38817, Note_on_c, 0, 57, 74
2,38826, Note_on_c, 0, 60, 83
2,38856, Note_on_c, 0, 60, 0
2,38872, Control_c, 0, 64, 31
2,38883, Note_on_c, 0, 64, 66
2,38888, Control_c, 0, 64, 44
2,38902, Control_c, 0, 64, 50
2,38917, Control_c, 0, 64, 53
2,38933, Control_c, 0, 64, 55
2,38945, Note_on_c, 0, 64, 0
2,38954, Note_on_c, 0, 65, 58
2,38958, Note_on_c, 0, 67, 59
2,38990, Note_on_c, 0, 67, 0
2,38993, Control_c, 0, 64, 53
2,39002, Note_on_c, 0, 65, 0
2,39009, Control_c, 0, 64, 52
2,39024, Control_c, 0, 64, 51
2,39039, Control_c, 0, 64, 49
2,39055, Control_c, 0, 64, 48
2,39070, Control_c, 0, 64, 47
2,39085, Control_c, 0, 64, 46
2,39101, Control_c, 0, 64, 45
2,39101, Note_on_c, 0, 72, 90
2,39107, Note_on_c, 0, 69, 77
2,39115, Control_c, 0, 64, 44
2,39124, Note_on_c, 0, 72, 0
2,39131, Control_c, 0, 64, 43
2,39146, Control_c, 0, 64, 42
2,39153, Note_on_c, 0, 69, 0
2,39202, Note_on_c, 0, 67, 64
2,39214, Control_c, 0, 64, 42
2,39252, Note_on_c, 0, 67, 0
2,39273, Note_on_c, 0, 65, 72
2,39339, Note_on_c, 0, 65, 0
2,39343, Note_on_c, 0, 64, 59
2,39382, Control_c, 0, 64, 41
2,39382, Note_on_c, 0, 64, 0
2,39397, Note_on_c, 0, 57, 0
2,39411, Note_on_c, 0, 71, 82
2,39414, Note_on_c, 0, 62, 72
2,39442, Control_c, 0, 64, 41
2,39442, Note_on_c, 0, 62, 0
2,39458, Control_c, 0, 64, 40
2,39489, Note_on_c, 0, 57, 76
2,39541, Note_on_c, 0, 57, 0
2,39567, Note_on_c, 0, 59, 68
2,39623, Note_on_c, 0, 59, 0
2,39641, Note_on_c, 0, 60, 65
2,39681, Note_on_c, 0, 60, 0
2,39708, Note_on_c, 0, 65, 87
2,39709, Note_on_c, 0, 62, 71
2,39746, Control_c, 0, 64, 40
2,39752, Note_on_c, 0, 65, 0
2,39763, Note_on_c, 0, 62, 0
2,39792, Note_on_c, 0, 60, 72
2,39825, Note_on_c, 0, 60, 0
2,39864, Note_on_c, 0, 59, 74
2,39922, Note_on_c, 0, 59, 0
2,39932, Note_on_c, 0, 57, 69
2,40012, Note_on_c, 0, 57, 0
2,40016, Note_on_c, 0, 59, 82
2,40017, Note_on_c, 0, 56, 66
2,40045, Note_on_c, 0, 59, 0
2,40071, Note_on_c, 0, 56, 0
2,40097, Note_on_c, 0, 57, 80
2,40119, Control_c, 0, 64, 39
2,40135, Control_c, 0, 64, 38
2,40150, Control_c, 0, 64, 38
2,40163, Note_on_c, 0, 56, 84
2,40169, Note_on_c, 0, 57, 0
2,40195, Control_c, 0, 64, 37
2,40229, Note_on_c, 0, 54, 81
2,40253, Note_on_c, 0, 56, 0
2,40256, Control_c, 0, 64, 37
2,40296, Note_on_c, 0, 54, 0
2,40302, Note_on_c, 0, 62, 78
2,40305, Note_on_c, 0, 52, 78
2,40345, Note_on_c, 0, 62, 0
2,40370, Note_on_c, 0, 52, 0
2,40379, Note_on_c, 0, 50, 80
2,40434, Note_on_c, 0, 48, 71
2,40463, Note_on_c, 0, 50, 0
2,40500, Control_c, 0, 64, 36
2,40504, Note_on_c, 0, 48, 0
2,40510, Note_on_c, 0, 47, 69
2,40599, Note_on_c, 0, 47, 0
2,40603, Note_on_c, 0, 60, 84
2,40607, Note_on_c, 0, 45, 66
2,40635, Note_on_c, 0, 71, 0
2,40666, Control_c, 0, 64, 37
2,40681, Control_c, 0, 64, 41
2,40697, Control_c, 0, 64, 44
2,40712, Control_c, 0, 64, 47
2,40734, Control_c, 0, 64, 50
2,40749, Control_c, 0, 64, 54
2,40764, Control_c, 0, 64, 57
2,40780, Control_c, 0, 64, 60
2,40781, Note_on_c, 0, 45, 0
2,40795, Control_c, 0, 64, 62
2,40800, Note_on_c, 0, 64, 65
2,40810, Control_c, 0, 64, 64
2,40825, Control_c, 0, 64, 65
2,40840, Control_c, 0, 64, 66
2,40871, Control_c, 0, 64, 66
2,40887, Control_c, 0, 64, 64
2,40902, Control_c, 0, 64, 62
2,40917, Control_c, 0, 64, 56
2,40931, Note_on_c, 0, 57, 70
2,40933, Control_c, 0, 64, 39
2,40941, Note_on_c, 0, 64, 0
2,40948, Control_c, 0, 64, 0
2,40956, Note_on_c, 0, 69, 62
2,40981, Note_on_c, 0, 57, 0
2,41003, Note_on_c, 0, 69, 0
2,41004, Note_on_c, 0, 55, 67
2,41082, Note_on_c, 0, 53, 57
2,41091, Note_on_c, 0, 55, 0
2,41133, Note_on_c, 0, 53, 0
2,41142, Note_on_c, 0, 52, 65
2,41231, Note_on_c, 0, 50, 74
2,41235, Note_on_c, 0, 52, 0
2,41236, Note_on_c, 0, 65, 92
2,41267, Control_c, 0, 64, 20
2,41276, Note_on_c, 0, 60, 0
2,41281, Control_c, 0, 64, 40
2,41298, Control_c, 0, 64, 48
2,41313, Control_c, 0, 64, 54
2,41329, Control_c, 0, 64, 58
2,41344, Control_c, 0, 64, 60
2,41356, Note_on_c, 0, 50, 0
2,41358, Control_c, 0, 64, 61
2,41389, Control_c, 0, 64, 61
2,41416, Note_on_c, 0, 57, 69
2,41483, Note_on_c, 0, 57, 0
2,41518, Control_c, 0, 64, 60
2,41534, Control_c, 0, 64, 58
2,41549, Control_c, 0, 64, 54
2,41564, Control_c, 0, 64, 46
2,41567, Note_on_c, 0, 53, 65
2,41574, Note_on_c, 0, 62, 70
2,41579, Control_c, 0, 64, 8
2,41594, Control_c, 0, 64, 0
2,41607, Note_on_c, 0, 53, 0
2,41645, Note_on_c, 0, 52, 63
2,41705, Note_on_c, 0, 50, 70
2,41727, Note_on_c, 0, 52, 0
2,41776, Note_on_c, 0, 48, 66
2,41788, Note_on_c, 0, 50, 0
2,41824, Note_on_c, 0, 47, 72
2,41828, Note_on_c, 0, 48, 0
2,41842, Note_on_c, 0, 56, 90
2,41883, Control_c, 0, 64, 35
2,41887, Note_on_c, 0, 47, 0
2,41899, Control_c, 0, 64, 51
2,41914, Control_c, 0, 64, 58
2,41929, Control_c, 0, 64, 61
2,41935, Note_on_c, 0, 48, 64
2,41944, Control_c, 0, 64, 63
2,41959, Control_c, 0, 64, 64
2,41969, Note_on_c, 0, 62, 0
2,41998, Note_on_c, 0, 65, 0
2,42004, Control_c, 0, 64, 63
2,42020, Control_c, 0, 64, 63
2,42020, Note_on_c, 0, 48, 0
2,42023, Note_on_c, 0, 50, 69
2,42035, Control_c, 0, 64, 62
2,42051, Control_c, 0, 64, 61
2,42066, Control_c, 0, 64, 59
2,42080, Control_c, 0, 64, 56
2,42096, Control_c, 0, 64, 51
2,42111, Control_c, 0, 64, 44
2,42125, Control_c, 0, 64, 33
2,42141, Control_c, 0, 64, 23
2,42156, Control_c, 0, 64, 19
2,42177, Note_on_c, 0, 77, 90
2,42203, Note_on_c, 0, 77, 0
2,42266, Note_on_c, 0, 48, 61
2,42271, Note_on_c, 0, 50, 0
2,42284, Note_on_c, 0, 56, 0
2,42285, Control_c, 0, 64, 18
2,42339, Note_on_c, 0, 47, 65
2,42345, Note_on_c, 0, 48, 0
2,42399, Note_on_c, 0, 47, 0
2,42405, Note_on_c, 0, 45, 64
2,42458, Note_on_c, 0, 45, 0
2,42466, Note_on_c, 0, 44, 80
2,42472, Note_on_c, 0, 71, 89
2,42512, Note_on_c, 0, 71, 0
2,42536, Note_on_c, 0, 44, 0
2,42550, Note_on_c, 0, 45, 74
2,42559, Control_c, 0, 64, 19
2,42621, Note_on_c, 0, 45, 0
2,42626, Note_on_c, 0, 47, 79
2,42796, Note_on_c, 0, 74, 72
2,42821, Note_on_c, 0, 74, 0
2,42837, Note_on_c, 0, 47, 0
2,42858, Note_on_c, 0, 45, 69
2,42929, Note_on_c, 0, 44, 76
2,42969, Control_c, 0, 64, 20
2,42970, Note_on_c, 0, 45, 0
2,42984, Control_c, 0, 64, 21
2,42992, Note_on_c, 0, 42, 75
2,42995, Note_on_c, 0, 44, 0
2,43038, Control_c, 0, 64, 22
2,43078, Note_on_c, 0, 42, 0
2,43088, Note_on_c, 0, 40, 84
2,43097, Note_on_c, 0, 68, 89
2,43117, Note_on_c, 0, 41, 8
2,43168, Note_on_c, 0, 41, 0
2,43296, Control_c, 0, 64, 23
2,43412, Note_on_c, 0, 62, 86
2,43478, Note_on_c, 0, 62, 0
2,43582, Note_on_c, 0, 42, 74
2,43588, Note_on_c, 0, 40, 0
2,43600, Control_c, 0, 64, 24
2,43656, Note_on_c, 0, 44, 72
2,43660, Note_on_c, 0, 42, 0
2,43714, Note_on_c, 0, 68, 0
2,43720, Note_on_c, 0, 59, 89
2,43721, Note_on_c, 0, 71, 83
2,43727, Note_on_c, 0, 44, 0
2,43728, Note_on_c, 0, 45, 78
2,43778, Note_on_c, 0, 59, 0
2,43821, Note_on_c, 0, 45, 0
2,43825, Note_on_c, 0, 44, 75
2,43902, Note_on_c, 0, 44, 0
2,43905, Note_on_c, 0, 45, 76
2,43980, Note_on_c, 0, 45, 0
2,43988, Note_on_c, 0, 44, 67
2,44038, Note_on_c, 0, 64, 86
2,44063, Note_on_c, 0, 44, 0
2,44068, Note_on_c, 0, 45, 74
2,44089, Note_on_c, 0, 64, 0
2,44138, Note_on_c, 0, 45, 0
2,44140, Note_on_c, 0, 44, 67
2,44186, Control_c, 0, 64, 19
2,44201, Control_c, 0, 64, 0
2,44205, Note_on_c, 0, 42, 73
2,44207, Note_on_c, 0, 44, 0
2,44293, Note_on_c, 0, 42, 0
2,44297, Note_on_c, 0, 44, 64
2,44344, Note_on_c, 0, 60, 81
2,44358, Note_on_c, 0, 44, 0
2,44361, Note_on_c, 0, 45, 86
2,44396, Note_on_c, 0, 71, 0
2,44398, Control_c, 0, 64, 30
2,44414, Control_c, 0, 64, 47
2,44417, Note_on_c, 0, 60, 0
2,44429, Control_c, 0, 64, 56
2,44444, Control_c, 0, 64, 63
2,44460, Control_c, 0, 64, 68
2,44475, Control_c, 0, 64, 73
2,44491, Control_c, 0, 64, 82
2,44506, Control_c, 0, 64, 89
2,44521, Control_c, 0, 64, 94
2,44536, Control_c, 0, 64, 97
2,44574, Control_c, 0, 64, 96
2,44588, Control_c, 0, 64, 96
2,44603, Control_c, 0, 64, 94
2,44619, Control_c, 0, 64, 92
2,44634, Control_c, 0, 64, 90
2,44647, Note_on_c, 0, 76, 84
2,44650, Control_c, 0, 64, 85
2,44665, Control_c, 0, 64, 79
2,44680, Control_c, 0, 64, 72
2,44696, Control_c, 0, 64, 64
2,44711, Control_c, 0, 64, 50
2,44723, Note_on_c, 0, 74, 82
2,44725, Control_c, 0, 64, 22
2,44741, Control_c, 0, 64, 0
2,44759, Note_on_c, 0, 76, 0
2,44765, Note_on_c, 0, 45, 0
2,44792, Note_on_c, 0, 72, 84
2,44796, Note_on_c, 0, 47, 60
2,44856, Note_on_c, 0, 74, 0
2,44867, Note_on_c, 0, 71, 90
2,44870, Note_on_c, 0, 47, 0
2,44870, Note_on_c, 0, 48, 66
2,44872, Note_on_c, 0, 72, 0
2,44924, Note_on_c, 0, 71, 0
2,44927, Note_on_c, 0, 48, 0
2,44942, Note_on_c, 0, 50, 76
2,44946, Note_on_c, 0, 69, 89
2,45023, Note_on_c, 0, 50, 0
2,45034, Note_on_c, 0, 49, 74
2,45090, Note_on_c, 0, 69, 0
2,45094, Note_on_c, 0, 73, 85
2,45099, Note_on_c, 0, 49, 0
2,45108, Note_on_c, 0, 50, 75
2,45138, Note_on_c, 0, 73, 0
2,45162, Note_on_c, 0, 74, 49
2,45167, Note_on_c, 0, 76, 88
2,45181, Note_on_c, 0, 50, 0
2,45185, Note_on_c, 0, 74, 0
2,45186, Note_on_c, 0, 49, 71
2,45235, Note_on_c, 0, 76, 0
2,45243, Note_on_c, 0, 49, 0
2,45245, Note_on_c, 0, 79, 93
2,45248, Note_on_c, 0, 50, 71
2,45316, Note_on_c, 0, 49, 65
2,45319, Note_on_c, 0, 50, 0
2,45388, Control_c, 0, 64, 8
2,45392, Note_on_c, 0, 49, 0
2,45398, Note_on_c, 0, 47, 69
2,45429, Note_on_c, 0, 79, 0
2,45449, Control_c, 0, 64, 0
2,45474, Note_on_c, 0, 49, 73
2,45475, Note_on_c, 0, 47, 0
2,45543, Note_on_c, 0, 50, 75
2,45545, Note_on_c, 0, 49, 0
2,45547, Note_on_c, 0, 77, 93
2,45585, Control_c, 0, 64, 12
2,45600, Control_c, 0, 64, 41
2,45616, Control_c, 0, 64, 53
2,45619, Note_on_c, 0, 77, 0
2,45631, Control_c, 0, 64, 61
2,45647, Control_c, 0, 64, 65
2,45662, Control_c, 0, 64, 69
2,45677, Control_c, 0, 64, 75
2,45692, Control_c, 0, 64, 84
2,45707, Control_c, 0, 64, 96
2,45722, Control_c, 0, 64, 112
2,45738, Control_c, 0, 64, 127
2,45815, Control_c, 0, 64, 115
2,45830, Control_c, 0, 64, 99
2,45844, Control_c, 0, 64, 87
2,45859, Note_on_c, 0, 69, 81
2,45860, Control_c, 0, 64, 75
2,45875, Control_c, 0, 64, 64
2,45891, Control_c, 0, 64, 38
2,45906, Control_c, 0, 64, 0
2,45930, Note_on_c, 0, 67, 73
2,45944, Note_on_c, 0, 69, 0
2,45983, Note_on_c, 0, 50, 0
2,45991, Note_on_c, 0, 52, 60
2,45994, Note_on_c, 0, 65, 79
2,45998, Note_on_c, 0, 67, 0
2,46065, Note_on_c, 0, 53, 71
2,46068, Note_on_c, 0, 52, 0
2,46071, Note_on_c, 0, 65, 0
2,46073, Note_on_c, 0, 64, 82
2,46139, Note_on_c, 0, 53, 0
2,46139, Note_on_c, 0, 64, 0
2,46157, Note_on_c, 0, 55, 70
2,46159, Note_on_c, 0, 62, 81
2,46237, Note_on_c, 0, 55, 0
2,46245, Note_on_c, 0, 54, 66
2,46279, Note_on_c, 0, 62, 0
2,46292, Note_on_c, 0, 66, 75
2,46300, Note_on_c, 0, 54, 0
2,46316, Note_on_c, 0, 55, 68
2,46342, Note_on_c, 0, 66, 0
2,46360, Note_on_c, 0, 69, 81
2,46384, Note_on_c, 0, 55, 0
2,46398, Note_on_c, 0, 54, 63
2,46430, Note_on_c, 0, 69, 0
2,46435, Note_on_c, 0, 54, 0
2,46445, Note_on_c, 0, 72, 86
2,46449, Note_on_c, 0, 55, 71
2,46511, Note_on_c, 0, 55, 0
2,46514, Note_on_c, 0, 54, 70
2,46579, Note_on_c, 0, 54, 0
2,46596, Note_on_c, 0, 52, 61
2,46670, Note_on_c, 0, 52, 0
2,46676, Note_on_c, 0, 54, 57
2,46701, Note_on_c, 0, 72, 0
2,46726, Note_on_c, 0, 71, 83
2,46735, Note_on_c, 0, 54, 0
2,46741, Note_on_c, 0, 55, 63
2,46781, Control_c, 0, 64, 26
2,46784, Note_on_c, 0, 71, 0
2,46795, Control_c, 0, 64, 43
2,46811, Control_c, 0, 64, 52
2,46826, Control_c, 0, 64, 58
2,46840, Control_c, 0, 64, 61
2,46856, Control_c, 0, 64, 64
2,46878, Control_c, 0, 64, 65
2,46900, Note_on_c, 0, 74, 71
2,46909, Control_c, 0, 64, 64
2,46924, Control_c, 0, 64, 63
2,46936, Note_on_c, 0, 74, 0
2,46940, Control_c, 0, 64, 61
2,46955, Control_c, 0, 64, 57
2,46957, Note_on_c, 0, 72, 86
2,46970, Control_c, 0, 64, 52
2,46985, Control_c, 0, 64, 43
2,47000, Control_c, 0, 64, 28
2,47016, Control_c, 0, 64, 10
2,47024, Note_on_c, 0, 72, 0
2,47031, Control_c, 0, 64, 0
2,47034, Note_on_c, 0, 71, 89
2,47084, Note_on_c, 0, 71, 0
2,47193, Note_on_c, 0, 72, 83
2,47195, Note_on_c, 0, 55, 0
2,47202, Note_on_c, 0, 57, 62
2,47252, Note_on_c, 0, 72, 0
2,47262, Note_on_c, 0, 74, 79
2,47267, Note_on_c, 0, 57, 0
2,47270, Note_on_c, 0, 59, 66
2,47318, Note_on_c, 0, 74, 0
2,47325, Note_on_c, 0, 59, 0
2,47337, Note_on_c, 0, 67, 86
2,47342, Note_on_c, 0, 60, 75
2,47408, Note_on_c, 0, 60, 0
2,47439, Note_on_c, 0, 59, 70
2,47485, Note_on_c, 0, 59, 0
2,47508, Note_on_c, 0, 60, 75
2,47564, Note_on_c, 0, 60, 0
2,47588, Note_on_c, 0, 59, 63
2,47597, Note_on_c, 0, 67, 0
2,47634, Note_on_c, 0, 59, 0
2,47654, Note_on_c, 0, 77, 92
2,47662, Note_on_c, 0, 60, 71
2,47701, Note_on_c, 0, 60, 0
2,47725, Note_on_c, 0, 59, 69
2,47784, Note_on_c, 0, 59, 0
2,47808, Note_on_c, 0, 57, 58
2,47848, Note_on_c, 0, 77, 0
2,47867, Note_on_c, 0, 57, 0
2,47884, Note_on_c, 0, 59, 65
2,47926, Note_on_c, 0, 59, 0
2,47926, Note_on_c, 0, 76, 84
2,47935, Control_c, 0, 64, 33
2,47937, Note_on_c, 0, 60, 62
2,47950, Control_c, 0, 64, 49
2,47959, Note_on_c, 0, 76, 0
2,47964, Control_c, 0, 64, 57
2,47980, Control_c, 0, 64, 63
2,47995, Control_c, 0, 64, 67
2,48011, Control_c, 0, 64, 74
2,48026, Control_c, 0, 64, 88
2,48040, Control_c, 0, 64, 107
2,48056, Control_c, 0, 64, 127
2,48096, Note_on_c, 0, 67, 75
2,48101, Control_c, 0, 64, 113
2,48116, Control_c, 0, 64, 90
2,48132, Control_c, 0, 64, 77
2,48145, Note_on_c, 0, 67, 0
2,48147, Control_c, 0, 64, 66
2,48153, Note_on_c, 0, 65, 77
2,48162, Control_c, 0, 64, 53
2,48178, Control_c, 0, 64, 28
2,48193, Control_c, 0, 64, 20
2,48211, Note_on_c, 0, 65, 0
2,48226, Note_on_c, 0, 64, 80
2,48303, Note_on_c, 0, 64, 0
2,48315, Control_c, 0, 64, 19
2,48339, Note_on_c, 0, 60, 0
2,48365, Note_on_c, 0, 65, 78
2,48373, Note_on_c, 0, 62, 57
2,48377, Control_c, 0, 64, 18
2,48392, Control_c, 0, 64, 15
2,48414, Control_c, 0, 64, 0
2,48432, Note_on_c, 0, 62, 0
2,48437, Note_on_c, 0, 64, 60
2,48437, Note_on_c, 0, 65, 0
2,48446, Note_on_c, 0, 67, 74
2,48477, Note_on_c, 0, 64, 0
2,48496, Note_on_c, 0, 67, 0
2,48515, Note_on_c, 0, 60, 84
2,48520, Note_on_c, 0, 65, 60
2,48566, Note_on_c, 0, 65, 0
2,48581, Control_c, 0, 64, 36
2,48595, Note_on_c, 0, 64, 62
2,48596, Control_c, 0, 64, 50
2,48612, Control_c, 0, 64, 57
2,48627, Control_c, 0, 64, 60
2,48631, Note_on_c, 0, 60, 0
2,48634, Note_on_c, 0, 64, 0
2,48642, Control_c, 0, 64, 62
2,48658, Control_c, 0, 64, 63
2,48671, Note_on_c, 0, 65, 62
2,48673, Control_c, 0, 64, 64
2,48688, Control_c, 0, 64, 65
2,48703, Control_c, 0, 64, 66
2,48710, Note_on_c, 0, 65, 0
2,48745, Note_on_c, 0, 64, 59
2,48763, Control_c, 0, 64, 66
2,48779, Control_c, 0, 64, 65
2,48782, Note_on_c, 0, 64, 0
2,48794, Control_c, 0, 64, 63
2,48798, Note_on_c, 0, 70, 81
2,48809, Control_c, 0, 64, 60
2,48813, Note_on_c, 0, 65, 68
2,48824, Control_c, 0, 64, 55
2,48839, Control_c, 0, 64, 46
2,48855, Control_c, 0, 64, 25
2,48857, Note_on_c, 0, 65, 0
2,48870, Control_c, 0, 64, 0
2,48878, Note_on_c, 0, 64, 61
2,48919, Note_on_c, 0, 64, 0
2,48942, Note_on_c, 0, 62, 58
2,49006, Note_on_c, 0, 62, 0
2,49032, Note_on_c, 0, 64, 58
2,49070, Note_on_c, 0, 70, 0
2,49077, Note_on_c, 0, 64, 0
2,49091, Note_on_c, 0, 69, 79
2,49113, Note_on_c, 0, 65, 64
2,49130, Control_c, 0, 64, 18
2,49145, Control_c, 0, 64, 35
2,49160, Control_c, 0, 64, 43
2,49183, Control_c, 0, 64, 50
2,49198, Control_c, 0, 64, 56
2,49214, Control_c, 0, 64, 59
2,49229, Control_c, 0, 64, 61
2,49244, Control_c, 0, 64, 63
2,49259, Control_c, 0, 64, 64
2,49267, Note_on_c, 0, 69, 0
2,49273, Note_on_c, 0, 71, 75
2,49274, Control_c, 0, 64, 65
2,49305, Control_c, 0, 64, 66
2,49340, Note_on_c, 0, 71, 0
2,49340, Note_on_c, 0, 73, 85
2,49350, Control_c, 0, 64, 65
2,49401, Note_on_c, 0, 73, 0
2,49416, Note_on_c, 0, 74, 88
2,49426, Control_c, 0, 64, 65
2,49441, Control_c, 0, 64, 64
2,49456, Control_c, 0, 64, 63
2,49471, Control_c, 0, 64, 61
2,49486, Control_c, 0, 64, 57
2,49502, Control_c, 0, 64, 52
2,49517, Control_c, 0, 64, 39
2,49532, Control_c, 0, 64, 0
2,49564, Note_on_c, 0, 65, 0
2,49587, Note_on_c, 0, 67, 66
2,49648, Note_on_c, 0, 67, 0
2,49654, Note_on_c, 0, 69, 70
2,49703, Note_on_c, 0, 81, 93
2,49721, Note_on_c, 0, 69, 0
2,49724, Note_on_c, 0, 70, 78
2,49760, Control_c, 0, 64, 30
2,49776, Control_c, 0, 64, 46
2,49790, Control_c, 0, 64, 56
2,49792, Note_on_c, 0, 70, 0
2,49805, Control_c, 0, 64, 63
2,49810, Note_on_c, 0, 69, 66
2,49821, Control_c, 0, 64, 66
2,49836, Control_c, 0, 64, 69
2,49852, Control_c, 0, 64, 72
2,49866, Control_c, 0, 64, 74
2,49866, Note_on_c, 0, 69, 0
2,49876, Note_on_c, 0, 70, 73
2,49882, Control_c, 0, 64, 75
2,49929, Control_c, 0, 64, 76
2,49946, Note_on_c, 0, 70, 0
2,49959, Note_on_c, 0, 69, 64
2,49966, Control_c, 0, 64, 76
2,49982, Control_c, 0, 64, 76
2,49992, Note_on_c, 0, 74, 0
2,49997, Control_c, 0, 64, 75
2,50011, Note_on_c, 0, 73, 82
2,50012, Control_c, 0, 64, 74
2,50015, Note_on_c, 0, 69, 0
2,50027, Control_c, 0, 64, 70
2,50034, Note_on_c, 0, 70, 71
2,50042, Control_c, 0, 64, 66
2,50058, Control_c, 0, 64, 59
2,50073, Control_c, 0, 64, 31
2,50089, Control_c, 0, 64, 0
2,50096, Note_on_c, 0, 70, 0
2,50113, Note_on_c, 0, 69, 58
2,50149, Note_on_c, 0, 73, 0
2,50153, Note_on_c, 0, 69, 0
2,50172, Note_on_c, 0, 67, 68
2,50246, Note_on_c, 0, 67, 0
2,50248, Note_on_c, 0, 69, 73
2,50285, Note_on_c, 0, 81, 0
2,50318, Note_on_c, 0, 77, 96
2,50321, Note_on_c, 0, 74, 88
2,50323, Note_on_c, 0, 69, 0
2,50330, Note_on_c, 0, 70, 73
2,50331, Control_c, 0, 64, 28
2,50345, Control_c, 0, 64, 49
2,50352, Note_on_c, 0, 70, 0
2,50360, Control_c, 0, 64, 61
2,50376, Control_c, 0, 64, 66
2,50391, Control_c, 0, 64, 73
2,50406, Control_c, 0, 64, 89
2,50422, Control_c, 0, 64, 127
2,50481, Note_on_c, 0, 58, 78
2,50553, Note_on_c, 0, 58, 0
2,50557, Note_on_c, 0, 60, 77
2,50574, Control_c, 0, 64, 109
2,50589, Control_c, 0, 64, 83
2,50604, Control_c, 0, 64, 65
2,50620, Control_c, 0, 64, 28
2,50626, Note_on_c, 0, 60, 0
2,50630, Note_on_c, 0, 62, 79
2,50634, Control_c, 0, 64, 0
2,50685, Note_on_c, 0, 60, 59
2,50694, Note_on_c, 0, 62, 0
2,50768, Note_on_c, 0, 58, 77
2,50786, Note_on_c, 0, 60, 0
2,50831, Note_on_c, 0, 58, 0
2,50837, Note_on_c, 0, 57, 79
2,50905, Note_on_c, 0, 57, 0
2,50908, Note_on_c, 0, 55, 84
2,50919, Note_on_c, 0, 82, 95
2,50947, Control_c, 0, 64, 39
2,50950, Note_on_c, 0, 77, 0
2,50957, Note_on_c, 0, 74, 0
2,50958, Note_on_c, 0, 81, 83
2,50962, Control_c, 0, 64, 55
2,50978, Control_c, 0, 64, 63
2,50984, Note_on_c, 0, 53, 63
2,50989, Note_on_c, 0, 55, 0
2,50992, Control_c, 0, 64, 66
2,51008, Control_c, 0, 64, 70
2,51023, Control_c, 0, 64, 76
2,51038, Control_c, 0, 64, 85
2,51052, Note_on_c, 0, 53, 0
2,51054, Control_c, 0, 64, 95
2,51056, Note_on_c, 0, 81, 0
2,51059, Note_on_c, 0, 82, 0
2,51065, Note_on_c, 0, 55, 80
2,51068, Control_c, 0, 64, 104
2,51083, Control_c, 0, 64, 107
2,51099, Control_c, 0, 64, 105
2,51114, Control_c, 0, 64, 104
2,51130, Control_c, 0, 64, 103
2,51136, Note_on_c, 0, 55, 0
2,51138, Note_on_c, 0, 57, 86
2,51144, Control_c, 0, 64, 100
2,51159, Control_c, 0, 64, 98
2,51175, Control_c, 0, 64, 93
2,51189, Control_c, 0, 64, 87
2,51201, Note_on_c, 0, 57, 0
2,51204, Control_c, 0, 64, 79
2,51217, Note_on_c, 0, 58, 81
2,51220, Control_c, 0, 64, 69
2,51235, Control_c, 0, 64, 56
2,51238, Note_on_c, 0, 82, 28
2,51251, Control_c, 0, 64, 0
2,51282, Note_on_c, 0, 58, 0
2,51284, Note_on_c, 0, 57, 72
2,51350, Note_on_c, 0, 55, 77
2,51365, Note_on_c, 0, 57, 0
2,51406, Note_on_c, 0, 55, 0
2,51431, Note_on_c, 0, 53, 59
2,51512, Note_on_c, 0, 53, 0
2,51519, Note_on_c, 0, 73, 95
2,51520, Note_on_c, 0, 52, 79
2,51562, Control_c, 0, 64, 26
2,51566, Note_on_c, 0, 82, 0
2,51578, Control_c, 0, 64, 47
2,51593, Control_c, 0, 64, 56
2,51594, Note_on_c, 0, 52, 0
2,51604, Note_on_c, 0, 53, 81
2,51608, Control_c, 0, 64, 61
2,51623, Control_c, 0, 64, 63
2,51638, Control_c, 0, 64, 64
2,51654, Control_c, 0, 64, 66
2,51665, Note_on_c, 0, 53, 0
2,51669, Control_c, 0, 64, 67
2,51672, Note_on_c, 0, 55, 84
2,51684, Control_c, 0, 64, 67
2,51776, Control_c, 0, 64, 67
2,51790, Control_c, 0, 64, 66
2,51805, Control_c, 0, 64, 65
2,51821, Control_c, 0, 64, 62
2,51825, Note_on_c, 0, 70, 91
2,51835, Control_c, 0, 64, 57
2,51851, Control_c, 0, 64, 49
2,51866, Control_c, 0, 64, 34
2,51874, Note_on_c, 0, 70, 0
2,51881, Control_c, 0, 64, 0
2,51903, Note_on_c, 0, 55, 0
2,51909, Note_on_c, 0, 53, 74
2,51978, Note_on_c, 0, 52, 73
2,52027, Note_on_c, 0, 53, 0
2,52048, Note_on_c, 0, 50, 73
2,52061, Note_on_c, 0, 52, 0
2,52103, Note_on_c, 0, 50, 0
2,52130, Note_on_c, 0, 64, 91
2,52143, Note_on_c, 0, 49, 78
2,52150, Note_on_c, 0, 73, 0
2,52178, Note_on_c, 0, 64, 0
2,52203, Note_on_c, 0, 49, 0
2,52220, Note_on_c, 0, 50, 82
2,52300, Note_on_c, 0, 50, 0
2,52302, Note_on_c, 0, 52, 81
2,52463, Note_on_c, 0, 67, 92
2,52498, Note_on_c, 0, 67, 0
2,52504, Note_on_c, 0, 52, 0
2,52535, Note_on_c, 0, 50, 77
2,52595, Note_on_c, 0, 49, 75
2,52648, Note_on_c, 0, 50, 0
2,52669, Note_on_c, 0, 47, 74
2,52671, Note_on_c, 0, 49, 0
2,52751, Note_on_c, 0, 45, 85
2,52760, Note_on_c, 0, 61, 92
2,52776, Note_on_c, 0, 47, 0
2,52800, Control_c, 0, 64, 10
2,52812, Note_on_c, 0, 61, 0
2,52816, Control_c, 0, 64, 42
2,52831, Control_c, 0, 64, 51
2,52846, Control_c, 0, 64, 56
2,52862, Control_c, 0, 64, 59
2,52877, Control_c, 0, 64, 61
2,52892, Control_c, 0, 64, 62
2,52907, Control_c, 0, 64, 63
2,53067, Control_c, 0, 64, 62
2,53075, Note_on_c, 0, 79, 94
2,53077, Note_on_c, 0, 76, 90
2,53082, Control_c, 0, 64, 58
2,53097, Control_c, 0, 64, 52
2,53112, Control_c, 0, 64, 40
2,53128, Control_c, 0, 64, 0
2,53128, Note_on_c, 0, 76, 0
2,53135, Note_on_c, 0, 79, 0
2,53234, Note_on_c, 0, 45, 0
2,53238, Note_on_c, 0, 47, 70
2,53311, Note_on_c, 0, 49, 71
2,53330, Note_on_c, 0, 47, 0
2,53386, Note_on_c, 0, 49, 0
2,53390, Note_on_c, 0, 76, 95
2,53393, Note_on_c, 0, 50, 75
2,53393, Note_on_c, 0, 69, 84
2,53445, Note_on_c, 0, 77, 6
2,53458, Note_on_c, 0, 76, 0
2,53460, Note_on_c, 0, 77, 0
2,53480, Note_on_c, 0, 50, 0
2,53488, Note_on_c, 0, 49, 72
2,53549, Note_on_c, 0, 49, 0
2,53555, Note_on_c, 0, 50, 71
2,53635, Note_on_c, 0, 50, 0
2,53641, Note_on_c, 0, 49, 69
2,53686, Note_on_c, 0, 49, 0
2,53693, Note_on_c, 0, 81, 88
2,53696, Note_on_c, 0, 50, 67
2,53736, Control_c, 0, 64, 38
2,53751, Control_c, 0, 64, 49
2,53757, Note_on_c, 0, 81, 0
2,53762, Note_on_c, 0, 50, 0
2,53766, Control_c, 0, 64, 54
2,53770, Note_on_c, 0, 49, 67
2,53789, Control_c, 0, 64, 58
2,53803, Control_c, 0, 64, 61
2,53819, Control_c, 0, 64, 63
2,53834, Control_c, 0, 64, 65
2,53844, Note_on_c, 0, 49, 0
2,53850, Control_c, 0, 64, 67
2,53851, Note_on_c, 0, 47, 71
2,53864, Control_c, 0, 64, 69
2,53879, Control_c, 0, 64, 72
2,53895, Control_c, 0, 64, 74
2,53907, Note_on_c, 0, 49, 64
2,53910, Control_c, 0, 64, 75
2,53935, Note_on_c, 0, 47, 0
2,53941, Control_c, 0, 64, 73
2,53953, Note_on_c, 0, 49, 0
2,53956, Control_c, 0, 64, 68
2,53972, Control_c, 0, 64, 62
2,53987, Control_c, 0, 64, 48
2,53996, Note_on_c, 0, 50, 89
2,54000, Note_on_c, 0, 77, 96
2,54002, Control_c, 0, 64, 0
2,54063, Note_on_c, 0, 50, 0
2,54066, Note_on_c, 0, 69, 0
2,54066, Note_on_c, 0, 77, 0
2,54081, Note_on_c, 0, 52, 86
2,54153, Note_on_c, 0, 52, 0
2,54157, Note_on_c, 0, 53, 84
2,54311, Note_on_c, 0, 74, 84
2,54313, Note_on_c, 0, 69, 78
2,54338, Note_on_c, 0, 69, 0
2,54346, Note_on_c, 0, 74, 0
2,54354, Note_on_c, 0, 53, 0
2,54383, Note_on_c, 0, 52, 74
2,54449, Note_on_c, 0, 50, 70
2,54491, Note_on_c, 0, 52, 0
2,54520, Note_on_c, 0, 48, 73
2,54526, Note_on_c, 0, 50, 0
2,54580, Note_on_c, 0, 48, 0
2,54603, Note_on_c, 0, 62, 87
2,54615, Note_on_c, 0, 47, 91
2,54649, Note_on_c, 0, 62, 0
2,54681, Note_on_c, 0, 47, 0
2,54688, Note_on_c, 0, 48, 89
2,54755, Note_on_c, 0, 48, 0
2,54763, Note_on_c, 0, 50, 82
2,54925, Note_on_c, 0, 65, 94
2,54954, Note_on_c, 0, 65, 0
2,54993, Note_on_c, 0, 50, 0
2,55008, Note_on_c, 0, 48, 75
2,55078, Note_on_c, 0, 47, 73
2,55125, Note_on_c, 0, 48, 0
2,55126, Note_on_c, 0, 47, 0
2,55142, Note_on_c, 0, 45, 78
2,55225, Note_on_c, 0, 59, 91
2,55226, Note_on_c, 0, 43, 87
2,55226, Note_on_c, 0, 45, 0
2,55262, Note_on_c, 0, 59, 0
2,55286, Control_c, 0, 64, 41
2,55302, Control_c, 0, 64, 51
2,55325, Control_c, 0, 64, 56
2,55341, Control_c, 0, 64, 58
2,55355, Control_c, 0, 64, 60
2,55371, Control_c, 0, 64, 60
2,55538, Control_c, 0, 64, 60
2,55552, Control_c, 0, 64, 59
2,55558, Note_on_c, 0, 77, 97
2,55564, Note_on_c, 0, 74, 79
2,55568, Control_c, 0, 64, 57
2,55583, Control_c, 0, 64, 53
2,55589, Note_on_c, 0, 74, 0
2,55598, Control_c, 0, 64, 46
2,55613, Note_on_c, 0, 77, 0
2,55614, Control_c, 0, 64, 38
2,55630, Control_c, 0, 64, 29
2,55644, Control_c, 0, 64, 17
2,55660, Control_c, 0, 64, 0
2,55744, Note_on_c, 0, 45, 69
2,55746, Note_on_c, 0, 43, 0
2,55812, Note_on_c, 0, 47, 71
2,55831, Note_on_c, 0, 45, 0
2,55872, Note_on_c, 0, 47, 0
2,55881, Note_on_c, 0, 67, 82
2,55882, Note_on_c, 0, 74, 87
2,55885, Note_on_c, 0, 48, 80
2,55941, Note_on_c, 0, 74, 0
2,55958, Note_on_c, 0, 48, 0
2,55977, Note_on_c, 0, 47, 76
2,56041, Note_on_c, 0, 47, 0
2,56057, Note_on_c, 0, 48, 78
2,56133, Note_on_c, 0, 48, 0
2,56144, Note_on_c, 0, 47, 71
2,56197, Note_on_c, 0, 79, 89
2,56200, Note_on_c, 0, 47, 0
2,56217, Note_on_c, 0, 48, 74
2,56227, Note_on_c, 0, 67, 0
2,56245, Note_on_c, 0, 79, 0
2,56278, Note_on_c, 0, 48, 0
2,56293, Note_on_c, 0, 47, 71
2,56361, Note_on_c, 0, 45, 69
2,56361, Note_on_c, 0, 47, 0
2,56430, Note_on_c, 0, 45, 0
2,56438, Note_on_c, 0, 72, 33
2,56443, Note_on_c, 0, 47, 67
2,56471, Note_on_c, 0, 72, 0
2,56507, Note_on_c, 0, 76, 92
2,56516, Note_on_c, 0, 48, 88
2,56524, Note_on_c, 0, 47, 0
2,56559, Note_on_c, 0, 76, 0
2,56562, Control_c, 0, 64, 31
2,56578, Control_c, 0, 64, 48
2,56593, Control_c, 0, 64, 55
2,56608, Control_c, 0, 64, 59
2,56613, Note_on_c, 0, 48, 0
2,56623, Control_c, 0, 64, 64
2,56638, Control_c, 0, 64, 67
2,56655, Control_c, 0, 64, 71
2,56670, Control_c, 0, 64, 75
2,56685, Control_c, 0, 64, 77
2,56776, Control_c, 0, 64, 75
2,56791, Control_c, 0, 64, 72
2,56806, Control_c, 0, 64, 65
2,56822, Control_c, 0, 64, 59
2,56824, Note_on_c, 0, 72, 88
2,56837, Control_c, 0, 64, 41
2,56860, Control_c, 0, 64, 0
2,56887, Note_on_c, 0, 72, 0
2,56918, Note_on_c, 0, 60, 79
2,56993, Note_on_c, 0, 62, 73
2,56999, Note_on_c, 0, 60, 0
2,57061, Note_on_c, 0, 64, 89
2,57070, Note_on_c, 0, 62, 0
2,57133, Note_on_c, 0, 64, 0
2,57138, Note_on_c, 0, 69, 91
2,57146, Note_on_c, 0, 65, 93
2,57216, Note_on_c, 0, 69, 0
2,57255, Control_c, 0, 64, 10
2,57271, Control_c, 0, 64, 14
2,57286, Control_c, 0, 64, 17
2,57302, Control_c, 0, 64, 19
2,57332, Control_c, 0, 64, 20
2,57400, Note_on_c, 0, 65, 0
2,57470, Note_on_c, 0, 77, 97
2,57504, Note_on_c, 0, 77, 0
2,57551, Note_on_c, 0, 64, 77
2,57607, Note_on_c, 0, 64, 0
2,57623, Note_on_c, 0, 62, 79
2,57692, Note_on_c, 0, 60, 72
2,57733, Note_on_c, 0, 62, 0
2,57770, Note_on_c, 0, 59, 87
2,57772, Note_on_c, 0, 60, 0
2,57776, Note_on_c, 0, 74, 83
2,57822, Note_on_c, 0, 74, 0
2,57920, Note_on_c, 0, 59, 0
2,58075, Note_on_c, 0, 71, 80
2,58081, Note_on_c, 0, 62, 77
2,58109, Note_on_c, 0, 62, 0
2,58112, Note_on_c, 0, 71, 0
2,58154, Note_on_c, 0, 47, 80
2,58176, Control_c, 0, 64, 19
2,58219, Note_on_c, 0, 47, 0
2,58226, Note_on_c, 0, 48, 78
2,58250, Control_c, 0, 64, 12
2,58266, Control_c, 0, 64, 0
2,58304, Note_on_c, 0, 50, 81
2,58312, Note_on_c, 0, 48, 0
2,58384, Note_on_c, 0, 68, 88
2,58386, Note_on_c, 0, 50, 0
2,58386, Note_on_c, 0, 59, 80
2,58394, Note_on_c, 0, 52, 85
2,58412, Note_on_c, 0, 59, 0
2,58436, Note_on_c, 0, 68, 0
2,58456, Control_c, 0, 64, 35
2,58471, Control_c, 0, 64, 42
2,58486, Control_c, 0, 64, 46
2,58502, Control_c, 0, 64, 49
2,58516, Control_c, 0, 64, 50
2,58662, Note_on_c, 0, 52, 0
2,58684, Note_on_c, 0, 76, 82
2,58686, Note_on_c, 0, 68, 84
2,58714, Control_c, 0, 64, 49
2,58726, Note_on_c, 0, 76, 0
2,58729, Control_c, 0, 64, 47
2,58730, Note_on_c, 0, 68, 0
2,58745, Control_c, 0, 64, 44
2,58760, Control_c, 0, 64, 41
2,58776, Control_c, 0, 64, 38
2,58776, Note_on_c, 0, 50, 76
2,58790, Control_c, 0, 64, 33
2,58805, Control_c, 0, 64, 27
2,58821, Control_c, 0, 64, 17
2,58836, Control_c, 0, 64, 0
2,58838, Note_on_c, 0, 50, 0
2,58840, Note_on_c, 0, 48, 70
2,58897, Note_on_c, 0, 47, 68
2,58922, Note_on_c, 0, 48, 0
2,58971, Note_on_c, 0, 72, 75
2,58975, Note_on_c, 0, 69, 81
2,58977, Note_on_c, 0, 45, 75
2,58978, Note_on_c, 0, 47, 0
2,59079, Control_c, 0, 64, 37
2,59095, Control_c, 0, 64, 46
2,59110, Control_c, 0, 64, 52
2,59125, Control_c, 0, 64, 59
2,59141, Control_c, 0, 64, 63
2,59143, Note_on_c, 0, 45, 0
2,59160, Note_on_c, 0, 47, 69
2,59163, Control_c, 0, 64, 65
2,59179, Control_c, 0, 64, 66
2,59194, Control_c, 0, 64, 66
2,59209, Control_c, 0, 64, 66
2,59220, Note_on_c, 0, 48, 71
2,59225, Control_c, 0, 64, 65
2,59231, Note_on_c, 0, 47, 0
2,59239, Control_c, 0, 64, 64
2,59255, Control_c, 0, 64, 62
2,59270, Control_c, 0, 64, 59
2,59284, Control_c, 0, 64, 53
2,59288, Note_on_c, 0, 50, 79
2,59300, Control_c, 0, 64, 40
2,59302, Note_on_c, 0, 48, 0
2,59315, Control_c, 0, 64, 19
2,59330, Control_c, 0, 64, 0
2,59356, Note_on_c, 0, 50, 0
2,59367, Note_on_c, 0, 52, 74
2,59448, Note_on_c, 0, 54, 80
2,59463, Note_on_c, 0, 52, 0
2,59515, Note_on_c, 0, 56, 80
2,59537, Note_on_c, 0, 54, 0
2,59558, Note_on_c, 0, 69, 0
2,59592, Note_on_c, 0, 56, 0
2,59592, Note_on_c, 0, 57, 82
2,59641, Note_on_c, 0, 72, 0
2,59673, Note_on_c, 0, 71, 78
2,59695, Control_c, 0, 64, 15
2,59711, Control_c, 0, 64, 33
2,59726, Control_c, 0, 64, 42
2,59742, Control_c, 0, 64, 47
2,59754, Note_on_c, 0, 69, 79
2,59757, Control_c, 0, 64, 51
2,59758, Note_on_c, 0, 71, 0
2,59771, Control_c, 0, 64, 54
2,59787, Control_c, 0, 64, 57
2,59802, Control_c, 0, 64, 59
2,59808, Note_on_c, 0, 69, 0
2,59818, Control_c, 0, 64, 62
2,59824, Note_on_c, 0, 67, 79
2,59833, Control_c, 0, 64, 63
2,59848, Control_c, 0, 64, 64
2,59863, Control_c, 0, 64, 65
2,59878, Control_c, 0, 64, 64
2,59893, Control_c, 0, 64, 64
2,59896, Note_on_c, 0, 65, 82
2,59898, Note_on_c, 0, 67, 0
2,59909, Control_c, 0, 64, 63
2,59930, Control_c, 0, 64, 61
2,59946, Control_c, 0, 64, 57
2,59961, Control_c, 0, 64, 51
2,59971, Note_on_c, 0, 64, 85
2,59971, Note_on_c, 0, 65, 0
2,59977, Control_c, 0, 64, 46
2,59992, Control_c, 0, 64, 40
2,60007, Control_c, 0, 64, 33
2,60023, Control_c, 0, 64, 25
2,60028, Note_on_c, 0, 62, 79
2,60029, Note_on_c, 0, 64, 0
2,60038, Control_c, 0, 64, 19
2,60052, Control_c, 0, 64, 0
2,60105, Note_on_c, 0, 60, 80
2,60105, Note_on_c, 0, 62, 0
2,60173, Note_on_c, 0, 60, 0
2,60179, Note_on_c, 0, 62, 84
2,60258, Note_on_c, 0, 71, 75
2,60265, Control_c, 0, 64, 30
2,60280, Control_c, 0, 64, 44
2,60296, Control_c, 0, 64, 50
2,60311, Control_c, 0, 64, 55
2,60316, Note_on_c, 0, 62, 0
2,60325, Control_c, 0, 64, 58
2,60326, Note_on_c, 0, 71, 0
2,60327, Note_on_c, 0, 72, 77
2,60341, Control_c, 0, 64, 60
2,60356, Control_c, 0, 64, 62
2,60371, Control_c, 0, 64, 64
2,60387, Control_c, 0, 64, 65
2,60393, Note_on_c, 0, 72, 0
2,60394, Note_on_c, 0, 74, 81
2,60402, Control_c, 0, 64, 67
2,60417, Control_c, 0, 64, 69
2,60440, Note_on_c, 0, 74, 0
2,60441, Note_on_c, 0, 57, 0
2,60447, Control_c, 0, 64, 67
2,60463, Control_c, 0, 64, 62
2,60471, Note_on_c, 0, 56, 73
2,60473, Note_on_c, 0, 59, 83
2,60475, Note_on_c, 0, 76, 78
2,60478, Control_c, 0, 64, 52
2,60493, Control_c, 0, 64, 21
2,60509, Control_c, 0, 64, 0
2,60533, Note_on_c, 0, 76, 0
2,60543, Note_on_c, 0, 78, 79
2,60548, Note_on_c, 0, 59, 0
2,60581, Note_on_c, 0, 56, 0
2,60608, Note_on_c, 0, 78, 0
2,60611, Note_on_c, 0, 80, 74
2,60622, Note_on_c, 0, 57, 77
2,60630, Note_on_c, 0, 54, 69
2,60651, Note_on_c, 0, 80, 0
2,60677, Note_on_c, 0, 81, 77
2,60709, Note_on_c, 0, 57, 0
2,60727, Note_on_c, 0, 54, 0
2,60766, Note_on_c, 0, 81, 0
2,60772, Note_on_c, 0, 83, 91
2,60780, Note_on_c, 0, 52, 85
2,60785, Note_on_c, 0, 56, 86
2,60822, Control_c, 0, 64, 35
2,60837, Control_c, 0, 64, 51
2,60851, Control_c, 0, 64, 59
2,60861, Note_on_c, 0, 81, 78
2,60867, Control_c, 0, 64, 63
2,60873, Note_on_c, 0, 83, 0
2,60882, Control_c, 0, 64, 65
2,60897, Control_c, 0, 64, 69
2,60912, Control_c, 0, 64, 75
2,60927, Control_c, 0, 64, 86
2,60933, Note_on_c, 0, 80, 78
2,60942, Note_on_c, 0, 81, 0
2,60943, Control_c, 0, 64, 101
2,60958, Control_c, 0, 64, 127
2,60996, Note_on_c, 0, 52, 0
2,61017, Note_on_c, 0, 78, 79
2,61026, Note_on_c, 0, 80, 0
2,61049, Control_c, 0, 64, 112
2,61065, Control_c, 0, 64, 86
2,61078, Note_on_c, 0, 78, 0
2,61080, Control_c, 0, 64, 70
2,61090, Note_on_c, 0, 76, 71
2,61096, Control_c, 0, 64, 56
2,61098, Note_on_c, 0, 50, 69
2,61110, Control_c, 0, 64, 0
2,61121, Note_on_c, 0, 76, 0
2,61161, Note_on_c, 0, 74, 78
2,61227, Note_on_c, 0, 74, 0
2,61245, Note_on_c, 0, 72, 77
2,61296, Note_on_c, 0, 50, 0
2,61299, Note_on_c, 0, 72, 0
2,61317, Note_on_c, 0, 71, 71
2,61325, Note_on_c, 0, 56, 0
2,61361, Note_on_c, 0, 71, 0
2,61377, Note_on_c, 0, 48, 90
2,61377, Note_on_c, 0, 57, 88
2,61381, Note_on_c, 0, 76, 86
2,61470, Note_on_c, 0, 74, 72
2,61485, Note_on_c, 0, 76, 0
2,61548, Note_on_c, 0, 72, 74
2,61557, Note_on_c, 0, 74, 0
2,61629, Note_on_c, 0, 72, 0
2,61631, Note_on_c, 0, 71, 71
2,61666, Control_c, 0, 64, 10
2,61681, Control_c, 0, 64, 34
2,61684, Note_on_c, 0, 71, 0
2,61696, Control_c, 0, 64, 44
2,61710, Note_on_c, 0, 69, 68
2,61711, Control_c, 0, 64, 50
2,61726, Control_c, 0, 64, 53
2,61741, Control_c, 0, 64, 56
2,61748, Note_on_c, 0, 69, 0
2,61756, Control_c, 0, 64, 59
2,61771, Control_c, 0, 64, 60
2,61781, Note_on_c, 0, 68, 75
2,61787, Control_c, 0, 64, 62
2,61802, Control_c, 0, 64, 63
2,61818, Control_c, 0, 64, 64
2,61833, Control_c, 0, 64, 66
2,61836, Note_on_c, 0, 68, 0
2,61847, Control_c, 0, 64, 68
2,61853, Note_on_c, 0, 66, 71
2,61863, Control_c, 0, 64, 72
2,61878, Control_c, 0, 64, 77
2,61893, Control_c, 0, 64, 82
2,61909, Control_c, 0, 64, 85
2,61911, Note_on_c, 0, 66, 0
2,61923, Note_on_c, 0, 64, 72
2,61940, Control_c, 0, 64, 84
2,61943, Note_on_c, 0, 57, 0
2,61954, Control_c, 0, 64, 83
2,61969, Control_c, 0, 64, 81
2,61985, Control_c, 0, 64, 76
2,61994, Note_on_c, 0, 69, 82
2,61996, Note_on_c, 0, 53, 97
2,62000, Control_c, 0, 64, 69
2,62002, Note_on_c, 0, 64, 0
2,62016, Control_c, 0, 64, 63
2,62017, Note_on_c, 0, 48, 0
2,62029, Control_c, 0, 64, 43
2,62044, Control_c, 0, 64, 0
2,62078, Note_on_c, 0, 67, 65
2,62095, Note_on_c, 0, 69, 0
2,62140, Note_on_c, 0, 65, 74
2,62175, Note_on_c, 0, 67, 0
2,62228, Note_on_c, 0, 64, 73
2,62232, Note_on_c, 0, 65, 0
2,62288, Note_on_c, 0, 64, 0
2,62307, Note_on_c, 0, 62, 74
2,62355, Note_on_c, 0, 62, 0
2,62384, Note_on_c, 0, 60, 72
2,62387, Control_c, 0, 64, 15
2,62402, Control_c, 0, 64, 30
2,62418, Control_c, 0, 64, 40
2,62433, Control_c, 0, 64, 50
2,62448, Control_c, 0, 64, 58
2,62457, Note_on_c, 0, 60, 0
2,62458, Note_on_c, 0, 59, 73
2,62463, Control_c, 0, 64, 61
2,62478, Control_c, 0, 64, 62
2,62493, Control_c, 0, 64, 64
2,62509, Control_c, 0, 64, 66
2,62514, Note_on_c, 0, 59, 0
2,62524, Control_c, 0, 64, 69
2,62530, Note_on_c, 0, 57, 78
2,62539, Control_c, 0, 64, 73
2,62554, Control_c, 0, 64, 77
2,62569, Control_c, 0, 64, 81
2,62579, Note_on_c, 0, 53, 0
2,62585, Control_c, 0, 64, 82
2,62600, Control_c, 0, 64, 81
2,62605, Note_on_c, 0, 57, 0
2,62609, Note_on_c, 0, 65, 83
2,62610, Note_on_c, 0, 44, 91
2,62616, Control_c, 0, 64, 76
2,62631, Control_c, 0, 64, 69
2,62646, Control_c, 0, 64, 49
2,62661, Control_c, 0, 64, 0
2,62686, Note_on_c, 0, 64, 71
2,62716, Note_on_c, 0, 65, 0
2,62751, Note_on_c, 0, 62, 73
2,62773, Note_on_c, 0, 64, 0
2,62835, Note_on_c, 0, 62, 0
2,62836, Note_on_c, 0, 60, 75
2,62886, Note_on_c, 0, 60, 0
2,62908, Note_on_c, 0, 59, 71
2,62952, Note_on_c, 0, 59, 0
2,62991, Note_on_c, 0, 57, 79
2,63064, Note_on_c, 0, 57, 0
2,63076, Note_on_c, 0, 56, 68
2,63117, Note_on_c, 0, 56, 0
2,63125, Control_c, 0, 64, 29
2,63137, Note_on_c, 0, 54, 80
2,63141, Control_c, 0, 64, 42
2,63156, Control_c, 0, 64, 50
2,63170, Control_c, 0, 64, 57
2,63186, Control_c, 0, 64, 62
2,63187, Note_on_c, 0, 54, 0
2,63201, Control_c, 0, 64, 65
2,63217, Control_c, 0, 64, 68
2,63220, Note_on_c, 0, 62, 75
2,63231, Control_c, 0, 64, 69
2,63246, Control_c, 0, 64, 70
2,63277, Control_c, 0, 64, 69
2,63292, Note_on_c, 0, 60, 71
2,63307, Control_c, 0, 64, 69
2,63318, Note_on_c, 0, 62, 0
2,63322, Control_c, 0, 64, 68
2,63338, Control_c, 0, 64, 67
2,63349, Note_on_c, 0, 59, 74
2,63352, Control_c, 0, 64, 67
2,63367, Control_c, 0, 64, 66
2,63371, Note_on_c, 0, 60, 0
2,63398, Control_c, 0, 64, 65
2,63410, Note_on_c, 0, 59, 0
2,63413, Control_c, 0, 64, 64
2,63423, Note_on_c, 0, 57, 78
2,63429, Control_c, 0, 64, 63
2,63444, Control_c, 0, 64, 59
2,63459, Control_c, 0, 64, 53
2,63474, Control_c, 0, 64, 47
2,63489, Control_c, 0, 64, 44
2,63490, Note_on_c, 0, 57, 0
2,63501, Note_on_c, 0, 56, 81
2,63505, Control_c, 0, 64, 43
2,63520, Control_c, 0, 64, 42
2,63524, Note_on_c, 0, 44, 0
2,63536, Control_c, 0, 64, 41
2,63550, Control_c, 0, 64, 40
2,63564, Control_c, 0, 64, 39
2,63572, Note_on_c, 0, 56, 0
2,63573, Note_on_c, 0, 54, 85
2,63595, Control_c, 0, 64, 38
2,63610, Control_c, 0, 64, 37
2,63625, Control_c, 0, 64, 36
2,63640, Note_on_c, 0, 52, 72
2,63649, Note_on_c, 0, 54, 0
2,63707, Note_on_c, 0, 51, 82
2,63710, Note_on_c, 0, 52, 0
2,63716, Control_c, 0, 64, 36
2,63731, Control_c, 0, 64, 35
2,63747, Control_c, 0, 64, 34
2,63772, Note_on_c, 0, 51, 0
2,63789, Note_on_c, 0, 52, 88
2,63832, Control_c, 0, 64, 34
2,63863, Control_c, 0, 64, 33
2,63877, Control_c, 0, 64, 33
2,63892, Control_c, 0, 64, 32
2,63908, Control_c, 0, 64, 32
2,63923, Control_c, 0, 64, 31
2,64101, Note_on_c, 0, 50, 83
2,64155, Note_on_c, 0, 50, 0
2,64199, Note_on_c, 0, 64, 68
2,64267, Note_on_c, 0, 66, 74
2,64269, Note_on_c, 0, 64, 0
2,64337, Note_on_c, 0, 68, 76
2,64341, Note_on_c, 0, 66, 0
2,64396, Note_on_c, 0, 47, 83
2,64407, Note_on_c, 0, 52, 0
2,64409, Note_on_c, 0, 68, 0
2,64413, Note_on_c, 0, 69, 78
2,64479, Note_on_c, 0, 69, 0
2,64488, Note_on_c, 0, 68, 80
2,64568, Note_on_c, 0, 68, 0
2,64573, Note_on_c, 0, 69, 81
2,64641, Note_on_c, 0, 69, 0
2,64642, Note_on_c, 0, 68, 74
2,64661, Note_on_c, 0, 47, 0
2,64713, Note_on_c, 0, 68, 0
2,64714, Note_on_c, 0, 69, 74
2,64717, Note_on_c, 0, 52, 85
2,64783, Note_on_c, 0, 69, 0
2,64786, Note_on_c, 0, 68, 80
2,64840, Note_on_c, 0, 68, 0
2,64865, Note_on_c, 0, 66, 78
2,64929, Note_on_c, 0, 66, 0
2,64931, Note_on_c, 0, 68, 81
2,64952, Note_on_c, 0, 52, 0
2,64964, Control_c, 0, 64, 25
2,64980, Control_c, 0, 64, 0
2,64988, Note_on_c, 0, 68, 0
2,65008, Note_on_c, 0, 48, 85
2,65012, Note_on_c, 0, 69, 90
2,65131, Control_c, 0, 64, 16
2,65147, Control_c, 0, 64, 31
2,65162, Control_c, 0, 64, 37
2,65178, Control_c, 0, 64, 41
2,65192, Control_c, 0, 64, 45
2,65207, Control_c, 0, 64, 48
2,65223, Control_c, 0, 64, 50
2,65237, Control_c, 0, 64, 52
2,65252, Control_c, 0, 64, 53
2,65268, Control_c, 0, 64, 54
2,65280, Note_on_c, 0, 48, 0
2,65321, Control_c, 0, 64, 49
2,65336, Note_on_c, 0, 45, 83
2,65337, Control_c, 0, 64, 37
2,65352, Control_c, 0, 64, 0
2,65397, Note_on_c, 0, 59, 75
2,65471, Note_on_c, 0, 60, 73
2,65474, Note_on_c, 0, 59, 0
2,65505, Control_c, 0, 64, 29
2,65520, Control_c, 0, 64, 38
2,65535, Control_c, 0, 64, 44
2,65536, Note_on_c, 0, 60, 0
2,65543, Note_on_c, 0, 62, 73
2,65550, Control_c, 0, 64, 49
2,65565, Control_c, 0, 64, 55
2,65567, Note_on_c, 0, 45, 0
2,65581, Control_c, 0, 64, 61
2,65596, Control_c, 0, 64, 64
2,65611, Control_c, 0, 64, 66
2,65615, Note_on_c, 0, 62, 0
2,65618, Note_on_c, 0, 40, 85
2,65625, Note_on_c, 0, 61, 75
2,65627, Control_c, 0, 64, 67
2,65641, Control_c, 0, 64, 68
2,65657, Control_c, 0, 64, 69
2,65685, Note_on_c, 0, 61, 0
2,65686, Control_c, 0, 64, 68
2,65687, Note_on_c, 0, 62, 72
2,65702, Control_c, 0, 64, 68
2,65717, Control_c, 0, 64, 67
2,65732, Control_c, 0, 64, 67
2,65747, Note_on_c, 0, 69, 0
2,65748, Control_c, 0, 64, 66
2,65755, Note_on_c, 0, 62, 0
2,65759, Note_on_c, 0, 61, 72
2,65762, Control_c, 0, 64, 65
2,65778, Control_c, 0, 64, 64
2,65793, Control_c, 0, 64, 64
2,65818, Note_on_c, 0, 61, 0
2,65820, Note_on_c, 0, 62, 59
2,65838, Control_c, 0, 64, 63
2,65853, Control_c, 0, 64, 63
2,65869, Control_c, 0, 64, 62
2,65881, Note_on_c, 0, 62, 0
2,65883, Control_c, 0, 64, 60
2,65883, Note_on_c, 0, 61, 64
2,65893, Note_on_c, 0, 40, 0
2,65899, Control_c, 0, 64, 56
2,65914, Control_c, 0, 64, 46
2,65926, Note_on_c, 0, 43, 92
2,65929, Control_c, 0, 64, 24
2,65936, Note_on_c, 0, 62, 59
2,65942, Note_on_c, 0, 61, 0
2,65945, Control_c, 0, 64, 0
2,66004, Note_on_c, 0, 61, 66
2,66021, Note_on_c, 0, 62, 0
2,66036, Note_on_c, 0, 69, 19
2,66078, Note_on_c, 0, 61, 0
2,66083, Note_on_c, 0, 59, 77
2,66133, Note_on_c, 0, 59, 0
2,66140, Note_on_c, 0, 61, 71
2,66190, Note_on_c, 0, 61, 0
2,66205, Note_on_c, 0, 43, 0
2,66214, Note_on_c, 0, 69, 0
2,66214, Note_on_c, 0, 69, 32
2,66217, Note_on_c, 0, 41, 81
2,66217, Note_on_c, 0, 62, 84
2,66226, Note_on_c, 0, 43, 30
2,66257, Note_on_c, 0, 43, 0
2,66298, Note_on_c, 0, 40, 68
2,66311, Note_on_c, 0, 41, 0
2,66373, Note_on_c, 0, 38, 84
2,66384, Note_on_c, 0, 40, 0
2,66521, Note_on_c, 0, 62, 0
2,66555, Note_on_c, 0, 71, 86
2,66557, Note_on_c, 0, 65, 78
2,66597, Note_on_c, 0, 69, 0
2,66619, Control_c, 0, 64, 31
2,66635, Control_c, 0, 64, 48
2,66649, Control_c, 0, 64, 56
2,66665, Control_c, 0, 64, 62
2,66680, Control_c, 0, 64, 67
2,66695, Control_c, 0, 64, 75
2,66711, Control_c, 0, 64, 86
2,66713, Note_on_c, 0, 71, 0
2,66725, Control_c, 0, 64, 99
2,66732, Note_on_c, 0, 40, 88
2,66740, Control_c, 0, 64, 127
2,66750, Note_on_c, 0, 65, 0
2,66759, Note_on_c, 0, 38, 0
2,66835, Note_on_c, 0, 41, 85
2,66838, Note_on_c, 0, 40, 0
2,66900, Control_c, 0, 64, 123
2,66916, Control_c, 0, 64, 86
2,66933, Control_c, 0, 64, 66
2,66948, Control_c, 0, 64, 0
2,66954, Note_on_c, 0, 41, 0
2,66958, Note_on_c, 0, 38, 75
2,66963, Note_on_c, 0, 56, 81
2,66970, Note_on_c, 0, 64, 78
2,67057, Note_on_c, 0, 40, 81
2,67061, Note_on_c, 0, 38, 0
2,67145, Note_on_c, 0, 40, 0
2,67149, Control_c, 0, 64, 22
2,67150, Note_on_c, 0, 41, 82
2,67163, Control_c, 0, 64, 36
2,67179, Control_c, 0, 64, 45
2,67194, Control_c, 0, 64, 52
2,67210, Control_c, 0, 64, 56
2,67225, Control_c, 0, 64, 61
2,67225, Note_on_c, 0, 41, 0
2,67238, Note_on_c, 0, 40, 80
2,67240, Control_c, 0, 64, 64
2,67256, Control_c, 0, 64, 67
2,67271, Control_c, 0, 64, 69
2,67286, Control_c, 0, 64, 72
2,67301, Control_c, 0, 64, 75
2,67307, Note_on_c, 0, 40, 0
2,67313, Note_on_c, 0, 56, 0
2,67316, Control_c, 0, 64, 77
2,67320, Note_on_c, 0, 41, 86
2,67332, Control_c, 0, 64, 77
2,67347, Control_c, 0, 64, 75
2,67362, Control_c, 0, 64, 73
2,67377, Control_c, 0, 64, 70
2,67392, Control_c, 0, 64, 64
2,67392, Note_on_c, 0, 41, 0
2,67402, Note_on_c, 0, 40, 83
2,67408, Control_c, 0, 64, 45
2,67423, Control_c, 0, 64, 0
2,67489, Note_on_c, 0, 41, 87
2,67495, Note_on_c, 0, 40, 0
2,67498, Note_on_c, 0, 59, 82
2,67498, Note_on_c, 0, 64, 0
2,67501, Note_on_c, 0, 68, 77
2,67589, Control_c, 0, 64, 17
2,67594, Note_on_c, 0, 40, 84
2,67610, Note_on_c, 0, 41, 0
2,67613, Control_c, 0, 64, 39
2,67628, Control_c, 0, 64, 47
2,67643, Control_c, 0, 64, 53
2,67658, Control_c, 0, 64, 57
2,67673, Control_c, 0, 64, 60
2,67689, Control_c, 0, 64, 61
2,67704, Control_c, 0, 64, 63
2,67714, Note_on_c, 0, 41, 87
2,67718, Control_c, 0, 64, 64
2,67721, Note_on_c, 0, 40, 0
2,67734, Control_c, 0, 64, 65
2,67764, Control_c, 0, 64, 65
2,67780, Control_c, 0, 64, 65
2,67794, Control_c, 0, 64, 63
2,67810, Control_c, 0, 64, 59
2,67825, Control_c, 0, 64, 51
2,67837, Note_on_c, 0, 40, 85
2,67840, Control_c, 0, 64, 28
2,67855, Note_on_c, 0, 41, 0
2,67856, Control_c, 0, 64, 0
2,67964, Note_on_c, 0, 40, 0
2,68004, Note_on_c, 0, 38, 86
2,68159, Note_on_c, 0, 38, 0
2,68182, Note_on_c, 0, 40, 85
2,68347, Note_on_c, 0, 59, 0
2,68390, Note_on_c, 0, 68, 0
2,68399, Note_on_c, 0, 69, 81
2,68402, Note_on_c, 0, 33, 83
2,68402, Note_on_c, 0, 61, 75
2,68442, Note_on_c, 0, 40, 0
2,69831, Note_on_c, 0, 33, 0
2,69835, Note_on_c, 0, 69, 0
2,69859, Note_on_c, 0, 61, 0
2,69860, End_track
0, 0, End_of_file
