0, 0, Header, 1, 2, 384
1, 0, Start_track
1, 0, Tempo, 500000
1, 0, Time_signature, 4, 2, 24, 8
1, 1, End_track
2, 0, Start_track
2, 0, Program_c, 0, 0
2, 357, Control_c, 0, 64, 19
2, 372, Control_c, 0, 64, 29
2, 388, Control_c, 0, 64, 35
2, 403, Control_c, 0, 64, 42
2, 418, Control_c, 0, 64, 49
2, 428, Note_on_c, 0, 45, 32
2, 433, Control_c, 0, 64, 54
2, 448, Control_c, 0, 64, 59
2, 464, Control_c, 0, 64, 62
2, 479, Control_c, 0, 64, 64
2, 494, Control_c, 0, 64, 66
2, 509, Control_c, 0, 64, 67
2, 524, Control_c, 0, 64, 68
2, 535, Note_on_c, 0, 72, 58
2, 540, Control_c, 0, 64, 70
2, 555, Control_c, 0, 64, 70
2, 585, Control_c, 0, 64, 70
2, 615, Control_c, 0, 64, 69
2, 630, Control_c, 0, 64, 69
2, 645, Control_c, 0, 64, 68
2, 661, Control_c, 0, 64, 66
2, 664, Note_on_c, 0, 74, 69
2, 676, Control_c, 0, 64, 65
2, 681, Note_on_c, 0, 72, 0
2, 690, Control_c, 0, 64, 64
2, 706, Control_c, 0, 64, 63
2, 721, Control_c, 0, 64, 60
2, 737, Control_c, 0, 64, 53
2, 749, Note_on_c, 0, 74, 0
2, 753, Control_c, 0, 64, 46
2, 761, Note_on_c, 0, 76, 71
2, 768, Control_c, 0, 64, 39
2, 784, Control_c, 0, 64, 35
2, 798, Control_c, 0, 64, 34
2, 814, Control_c, 0, 64, 33
2, 829, Control_c, 0, 64, 32
2, 843, Control_c, 0, 64, 31
2, 859, Control_c, 0, 64, 29
2, 859, Note_on_c, 0, 76, 0
2, 874, Control_c, 0, 64, 28
2, 878, Note_on_c, 0, 77, 75
2, 889, Control_c, 0, 64, 26
2, 892, Note_on_c, 0, 57, 51
2, 905, Control_c, 0, 64, 25
2, 920, Control_c, 0, 64, 24
2, 935, Control_c, 0, 64, 23
2, 935, Note_on_c, 0, 45, 0
2, 950, Control_c, 0, 64, 21
2, 965, Control_c, 0, 64, 19
2, 981, Control_c, 0, 64, 17
2, 996, Control_c, 0, 64, 15
2, 1011, Control_c, 0, 64, 14
2, 1027, Control_c, 0, 64, 10
2, 1042, Control_c, 0, 64, 8
2, 1057, Control_c, 0, 64, 0
2, 1106, Note_on_c, 0, 77, 0
2, 1112, Note_on_c, 0, 72, 76
2, 1323, Note_on_c, 0, 72, 0
2, 1342, Note_on_c, 0, 56, 50
2, 1344, Note_on_c, 0, 71, 70
2, 1348, Note_on_c, 0, 57, 0
2, 1546, Note_on_c, 0, 71, 0
2, 1547, Note_on_c, 0, 75, 74
2, 1752, Note_on_c, 0, 75, 0
2, 1752, Note_on_c, 0, 76, 67
2, 1761, Note_on_c, 0, 56, 0
2, 1767, Note_on_c, 0, 55, 34
2, 1956, Note_on_c, 0, 76, 0
2, 1975, Note_on_c, 0, 70, 72
2, 2173, Note_on_c, 0, 70, 0
2, 2181, Note_on_c, 0, 55, 0
2, 2185, Note_on_c, 0, 69, 70
2, 2194, Note_on_c, 0, 54, 48
2, 2388, Note_on_c, 0, 69, 0
2, 2391, Note_on_c, 0, 73, 75
2, 2580, Note_on_c, 0, 54, 0
2, 2607, Note_on_c, 0, 73, 0
2, 2608, Note_on_c, 0, 53, 43
2, 2609, Note_on_c, 0, 74, 66
2, 2823, Note_on_c, 0, 74, 0
2, 2834, Note_on_c, 0, 68, 71
2, 3032, Note_on_c, 0, 52, 52
2, 3036, Note_on_c, 0, 53, 0
2, 3245, Note_on_c, 0, 69, 69
2, 3278, Note_on_c, 0, 68, 0
2, 3459, Note_on_c, 0, 50, 52
2, 3465, Note_on_c, 0, 52, 0
2, 3649, Note_on_c, 0, 69, 0
2, 3667, Note_on_c, 0, 71, 62
2, 3865, Note_on_c, 0, 71, 0
2, 3869, Note_on_c, 0, 64, 59
2, 3970, Note_on_c, 0, 50, 0
2, 3978, Note_on_c, 0, 48, 63
2, 4083, Note_on_c, 0, 50, 74
2, 4098, Note_on_c, 0, 48, 0
2, 4152, Note_on_c, 0, 64, 0
2, 4186, Note_on_c, 0, 52, 72
2, 4189, Note_on_c, 0, 50, 0
2, 4288, Note_on_c, 0, 69, 69
2, 4297, Note_on_c, 0, 52, 0
2, 4308, Note_on_c, 0, 53, 73
2, 4525, Note_on_c, 0, 48, 70
2, 4566, Note_on_c, 0, 53, 0
2, 4721, Note_on_c, 0, 47, 66
2, 4722, Note_on_c, 0, 48, 0
2, 4737, Note_on_c, 0, 68, 64
2, 4762, Note_on_c, 0, 69, 0
2, 4945, Note_on_c, 0, 47, 0
2, 4947, Note_on_c, 0, 51, 80
2, 5144, Note_on_c, 0, 51, 0
2, 5153, Note_on_c, 0, 52, 70
2, 5164, Note_on_c, 0, 67, 66
2, 5169, Note_on_c, 0, 68, 0
2, 5351, Note_on_c, 0, 46, 69
2, 5358, Note_on_c, 0, 52, 0
2, 5552, Note_on_c, 0, 67, 0
2, 5563, Note_on_c, 0, 45, 61
2, 5573, Note_on_c, 0, 66, 59
2, 5578, Note_on_c, 0, 46, 0
2, 5794, Note_on_c, 0, 49, 67
2, 5796, Note_on_c, 0, 45, 0
2, 5951, Note_on_c, 0, 66, 0
2, 5986, Note_on_c, 0, 49, 0
2, 5998, Note_on_c, 0, 50, 65
2, 6003, Note_on_c, 0, 65, 58
2, 6205, Note_on_c, 0, 44, 67
2, 6207, Note_on_c, 0, 50, 0
2, 6421, Note_on_c, 0, 64, 62
2, 6429, Note_on_c, 0, 65, 0
2, 6645, Note_on_c, 0, 45, 59
2, 6660, Note_on_c, 0, 44, 0
2, 6840, Note_on_c, 0, 64, 0
2, 6858, Note_on_c, 0, 62, 60
2, 7049, Note_on_c, 0, 47, 66
2, 7056, Note_on_c, 0, 45, 0
2, 7282, Note_on_c, 0, 47, 0
2, 7285, Note_on_c, 0, 40, 55
2, 7506, Note_on_c, 0, 62, 0
2, 7520, Note_on_c, 0, 60, 62
2, 7585, Note_on_c, 0, 60, 0
2, 7610, Note_on_c, 0, 59, 66
2, 7716, Note_on_c, 0, 45, 56
2, 7718, Note_on_c, 0, 60, 68
2, 7722, Note_on_c, 0, 59, 0
2, 7761, Note_on_c, 0, 40, 0
2, 7830, Note_on_c, 0, 60, 0
2, 7935, Note_on_c, 0, 69, 74
2, 8145, Note_on_c, 0, 47, 59
2, 8164, Note_on_c, 0, 45, 0
2, 8352, Note_on_c, 0, 69, 0
2, 8353, Note_on_c, 0, 68, 72
2, 8458, Note_on_c, 0, 68, 0
2, 8561, Note_on_c, 0, 76, 71
2, 8577, Note_on_c, 0, 49, 49
2, 8581, Note_on_c, 0, 47, 0
2, 8767, Note_on_c, 0, 76, 0
2, 8789, Note_on_c, 0, 67, 67
2, 8991, Note_on_c, 0, 50, 57
2, 8992, Note_on_c, 0, 49, 0
2, 9145, Note_on_c, 0, 67, 0
2, 9199, Note_on_c, 0, 65, 72
2, 9265, Note_on_c, 0, 65, 0
2, 9291, Note_on_c, 0, 64, 72
2, 9376, Note_on_c, 0, 64, 0
2, 9391, Note_on_c, 0, 63, 71
2, 9409, Note_on_c, 0, 47, 59
2, 9421, Note_on_c, 0, 50, 0
2, 9491, Note_on_c, 0, 63, 0
2, 9620, Note_on_c, 0, 71, 82
2, 9830, Note_on_c, 0, 47, 0
2, 9833, Note_on_c, 0, 49, 60
2, 10048, Note_on_c, 0, 70, 75
2, 10051, Note_on_c, 0, 71, 0
2, 10148, Note_on_c, 0, 70, 0
2, 10257, Note_on_c, 0, 78, 79
2, 10276, Note_on_c, 0, 51, 59
2, 10310, Note_on_c, 0, 49, 0
2, 10478, Note_on_c, 0, 78, 0
2, 10486, Note_on_c, 0, 69, 75
2, 10689, Note_on_c, 0, 52, 60
2, 10732, Note_on_c, 0, 51, 0
2, 10805, Note_on_c, 0, 67, 75
2, 10822, Note_on_c, 0, 69, 0
2, 10912, Note_on_c, 0, 69, 83
2, 10936, Note_on_c, 0, 67, 0
2, 10995, Note_on_c, 0, 69, 0
2, 10998, Note_on_c, 0, 71, 80
2, 11126, Note_on_c, 0, 71, 0
2, 11137, Note_on_c, 0, 72, 74
2, 11146, Note_on_c, 0, 64, 49
2, 11228, Note_on_c, 0, 52, 0
2, 11390, Note_on_c, 0, 72, 0
2, 11391, Note_on_c, 0, 67, 75
2, 11597, Note_on_c, 0, 63, 51
2, 11602, Note_on_c, 0, 66, 76
2, 11604, Note_on_c, 0, 64, 0
2, 11605, Note_on_c, 0, 67, 0
2, 11805, Note_on_c, 0, 70, 77
2, 11809, Note_on_c, 0, 66, 0
2, 12016, Note_on_c, 0, 70, 0
2, 12019, Note_on_c, 0, 62, 49
2, 12026, Note_on_c, 0, 63, 0
2, 12028, Note_on_c, 0, 71, 74
2, 12230, Note_on_c, 0, 65, 70
2, 12230, Note_on_c, 0, 71, 0
2, 12429, Note_on_c, 0, 62, 0
2, 12435, Note_on_c, 0, 65, 0
2, 12451, Note_on_c, 0, 61, 47
2, 12454, Note_on_c, 0, 64, 69
2, 12629, Note_on_c, 0, 64, 0
2, 12649, Note_on_c, 0, 68, 74
2, 12825, Note_on_c, 0, 61, 0
2, 12846, Note_on_c, 0, 68, 0
2, 12857, Note_on_c, 0, 60, 52
2, 12859, Note_on_c, 0, 69, 68
2, 13037, Note_on_c, 0, 69, 0
2, 13073, Note_on_c, 0, 63, 64
2, 13273, Note_on_c, 0, 60, 0
2, 13283, Note_on_c, 0, 59, 55
2, 13499, Note_on_c, 0, 64, 67
2, 13555, Note_on_c, 0, 63, 0
2, 13694, Note_on_c, 0, 59, 0
2, 13695, Note_on_c, 0, 57, 58
2, 13890, Note_on_c, 0, 64, 0
2, 13901, Note_on_c, 0, 66, 61
2, 14083, Note_on_c, 0, 66, 0
2, 14095, Note_on_c, 0, 59, 62
2, 14202, Note_on_c, 0, 57, 0
2, 14210, Note_on_c, 0, 55, 71
2, 14228, Note_on_c, 0, 59, 0
2, 14308, Note_on_c, 0, 57, 78
2, 14331, Note_on_c, 0, 55, 0
2, 14401, Note_on_c, 0, 57, 0
2, 14404, Note_on_c, 0, 59, 79
2, 14507, Note_on_c, 0, 59, 0
2, 14507, Note_on_c, 0, 76, 72
2, 14525, Note_on_c, 0, 60, 72
2, 14734, Note_on_c, 0, 55, 73
2, 14752, Note_on_c, 0, 60, 0
2, 14946, Note_on_c, 0, 55, 0
2, 14950, Note_on_c, 0, 75, 69
2, 14951, Note_on_c, 0, 54, 69
2, 14976, Note_on_c, 0, 76, 0
2, 15164, Note_on_c, 0, 54, 0
2, 15167, Note_on_c, 0, 58, 78
2, 15361, Note_on_c, 0, 58, 0
2, 15376, Note_on_c, 0, 59, 70
2, 15382, Note_on_c, 0, 74, 67
2, 15388, Note_on_c, 0, 75, 0
2, 15585, Note_on_c, 0, 53, 73
2, 15601, Note_on_c, 0, 59, 0
2, 15805, Note_on_c, 0, 74, 0
2, 15808, Note_on_c, 0, 52, 64
2, 15823, Note_on_c, 0, 53, 0
2, 15823, Note_on_c, 0, 73, 66
2, 16029, Note_on_c, 0, 52, 0
2, 16030, Note_on_c, 0, 56, 73
2, 16154, Note_on_c, 0, 73, 0
2, 16225, Note_on_c, 0, 72, 61
2, 16226, Note_on_c, 0, 56, 0
2, 16235, Note_on_c, 0, 57, 67
2, 16443, Note_on_c, 0, 51, 71
2, 16453, Note_on_c, 0, 57, 0
2, 16667, Note_on_c, 0, 71, 70
2, 16678, Note_on_c, 0, 72, 0
2, 16874, Note_on_c, 0, 52, 67
2, 16893, Note_on_c, 0, 51, 0
2, 17077, Note_on_c, 0, 69, 71
2, 17096, Note_on_c, 0, 71, 0
2, 17304, Note_on_c, 0, 52, 0
2, 17311, Note_on_c, 0, 54, 67
2, 17537, Note_on_c, 0, 47, 57
2, 17537, Note_on_c, 0, 54, 0
2, 17718, Note_on_c, 0, 69, 0
2, 17751, Note_on_c, 0, 67, 64
2, 17839, Note_on_c, 0, 67, 0
2, 17841, Note_on_c, 0, 66, 68
2, 17915, Note_on_c, 0, 66, 0
2, 17944, Note_on_c, 0, 67, 74
2, 17946, Note_on_c, 0, 52, 62
2, 17991, Note_on_c, 0, 47, 0
2, 18038, Note_on_c, 0, 67, 0
2, 18156, Note_on_c, 0, 76, 83
2, 18393, Note_on_c, 0, 54, 64
2, 18396, Note_on_c, 0, 52, 0
2, 18580, Note_on_c, 0, 75, 72
2, 18585, Note_on_c, 0, 76, 0
2, 18652, Note_on_c, 0, 75, 0
2, 18797, Note_on_c, 0, 56, 46
2, 18797, Note_on_c, 0, 83, 73
2, 18828, Note_on_c, 0, 54, 0
2, 18999, Note_on_c, 0, 83, 0
2, 19012, Note_on_c, 0, 74, 66
2, 19193, Note_on_c, 0, 56, 0
2, 19210, Note_on_c, 0, 57, 73
2, 19366, Note_on_c, 0, 74, 0
2, 19409, Note_on_c, 0, 57, 0
2, 19415, Note_on_c, 0, 72, 69
2, 19418, Note_on_c, 0, 45, 66
2, 19516, Note_on_c, 0, 72, 0
2, 19517, Note_on_c, 0, 71, 74
2, 19612, Note_on_c, 0, 71, 0
2, 19633, Note_on_c, 0, 72, 78
2, 19638, Note_on_c, 0, 57, 67
2, 19643, Note_on_c, 0, 45, 0
2, 19816, Note_on_c, 0, 72, 0
2, 19841, Note_on_c, 0, 69, 73
2, 20031, Note_on_c, 0, 69, 0
2, 20049, Note_on_c, 0, 71, 74
2, 20227, Note_on_c, 0, 57, 0
2, 20247, Note_on_c, 0, 56, 62
2, 20464, Note_on_c, 0, 56, 0
2, 20475, Note_on_c, 0, 73, 66
2, 20483, Note_on_c, 0, 71, 0
2, 20485, Note_on_c, 0, 64, 54
2, 20669, Note_on_c, 0, 64, 0
2, 20687, Note_on_c, 0, 55, 62
2, 20883, Note_on_c, 0, 74, 79
2, 20897, Note_on_c, 0, 73, 0
2, 21066, Note_on_c, 0, 55, 0
2, 21082, Note_on_c, 0, 74, 0
2, 21110, Note_on_c, 0, 54, 55
2, 21112, Note_on_c, 0, 62, 79
2, 21191, Note_on_c, 0, 54, 0
2, 21202, Note_on_c, 0, 52, 58
2, 21286, Note_on_c, 0, 62, 0
2, 21298, Note_on_c, 0, 52, 0
2, 21310, Note_on_c, 0, 74, 83
2, 21323, Note_on_c, 0, 54, 53
2, 21523, Note_on_c, 0, 54, 0
2, 21528, Note_on_c, 0, 50, 59
2, 21735, Note_on_c, 0, 50, 0
2, 21736, Note_on_c, 0, 52, 65
2, 21944, Note_on_c, 0, 74, 0
2, 21952, Note_on_c, 0, 73, 74
2, 22137, Note_on_c, 0, 52, 0
2, 22146, Note_on_c, 0, 73, 0
2, 22151, Note_on_c, 0, 54, 56
2, 22169, Note_on_c, 0, 81, 68
2, 22330, Note_on_c, 0, 81, 0
2, 22376, Note_on_c, 0, 72, 67
2, 22565, Note_on_c, 0, 54, 0
2, 22588, Note_on_c, 0, 55, 71
2, 22792, Note_on_c, 0, 72, 0
2, 22795, Note_on_c, 0, 43, 67
2, 22796, Note_on_c, 0, 71, 70
2, 22810, Note_on_c, 0, 55, 0
2, 22897, Note_on_c, 0, 69, 77
2, 22897, Note_on_c, 0, 71, 0
2, 22986, Note_on_c, 0, 69, 0
2, 22995, Note_on_c, 0, 43, 0
2, 23010, Note_on_c, 0, 55, 66
2, 23011, Note_on_c, 0, 71, 73
2, 23198, Note_on_c, 0, 71, 0
2, 23224, Note_on_c, 0, 67, 71
2, 23447, Note_on_c, 0, 69, 69
2, 23466, Note_on_c, 0, 67, 0
2, 23628, Note_on_c, 0, 55, 0
2, 23656, Note_on_c, 0, 54, 65
2, 23872, Note_on_c, 0, 54, 0
2, 23878, Note_on_c, 0, 71, 68
2, 23891, Note_on_c, 0, 62, 60
2, 23900, Note_on_c, 0, 69, 0
2, 24086, Note_on_c, 0, 62, 0
2, 24087, Note_on_c, 0, 53, 59
2, 24289, Note_on_c, 0, 71, 0
2, 24333, Note_on_c, 0, 72, 61
2, 24442, Note_on_c, 0, 53, 0
2, 24445, Note_on_c, 0, 52, 71
2, 24554, Note_on_c, 0, 53, 78
2, 24558, Note_on_c, 0, 72, 0
2, 24570, Note_on_c, 0, 52, 0
2, 24646, Note_on_c, 0, 53, 0
2, 24648, Note_on_c, 0, 55, 79
2, 24761, Note_on_c, 0, 55, 0
2, 24766, Note_on_c, 0, 84, 72
2, 24774, Note_on_c, 0, 57, 74
2, 24988, Note_on_c, 0, 52, 73
2, 25013, Note_on_c, 0, 57, 0
2, 25201, Note_on_c, 0, 83, 68
2, 25202, Note_on_c, 0, 51, 73
2, 25207, Note_on_c, 0, 52, 0
2, 25212, Note_on_c, 0, 84, 0
2, 25424, Note_on_c, 0, 54, 82
2, 25427, Note_on_c, 0, 51, 0
2, 25628, Note_on_c, 0, 54, 0
2, 25630, Note_on_c, 0, 55, 73
2, 25634, Note_on_c, 0, 83, 0
2, 25637, Note_on_c, 0, 82, 67
2, 25845, Note_on_c, 0, 50, 71
2, 25867, Note_on_c, 0, 55, 0
2, 26067, Note_on_c, 0, 49, 66
2, 26069, Note_on_c, 0, 50, 0
2, 26071, Note_on_c, 0, 81, 60
2, 26072, Note_on_c, 0, 82, 0
2, 26294, Note_on_c, 0, 52, 73
2, 26296, Note_on_c, 0, 49, 0
2, 26496, Note_on_c, 0, 52, 0
2, 26505, Note_on_c, 0, 80, 68
2, 26511, Note_on_c, 0, 53, 65
2, 26511, Note_on_c, 0, 81, 0
2, 26712, Note_on_c, 0, 48, 67
2, 26728, Note_on_c, 0, 53, 0
2, 26927, Note_on_c, 0, 79, 67
2, 26961, Note_on_c, 0, 80, 0
2, 27101, Note_on_c, 0, 48, 0
2, 27123, Note_on_c, 0, 47, 65
2, 27355, Note_on_c, 0, 79, 0
2, 27370, Note_on_c, 0, 77, 69
2, 27550, Note_on_c, 0, 48, 57
2, 27558, Note_on_c, 0, 47, 0
2, 27627, Note_on_c, 0, 48, 0
2, 27652, Note_on_c, 0, 50, 63
2, 27769, Note_on_c, 0, 50, 0
2, 27777, Note_on_c, 0, 43, 61
2, 27868, Note_on_c, 0, 77, 0
2, 27896, Note_on_c, 0, 71, 71
2, 28012, Note_on_c, 0, 72, 79
2, 28021, Note_on_c, 0, 71, 0
2, 28110, Note_on_c, 0, 74, 79
2, 28119, Note_on_c, 0, 72, 0
2, 28210, Note_on_c, 0, 74, 0
2, 28222, Note_on_c, 0, 76, 77
2, 28227, Note_on_c, 0, 55, 59
2, 28229, Note_on_c, 0, 43, 0
2, 28449, Note_on_c, 0, 71, 78
2, 28450, Note_on_c, 0, 76, 0
2, 28669, Note_on_c, 0, 55, 0
2, 28673, Note_on_c, 0, 54, 53
2, 28675, Note_on_c, 0, 70, 75
2, 28675, Note_on_c, 0, 71, 0
2, 28890, Note_on_c, 0, 70, 0
2, 28897, Note_on_c, 0, 73, 75
2, 29107, Note_on_c, 0, 53, 46
2, 29107, Note_on_c, 0, 73, 0
2, 29110, Note_on_c, 0, 54, 0
2, 29113, Note_on_c, 0, 74, 69
2, 29327, Note_on_c, 0, 69, 72
2, 29329, Note_on_c, 0, 74, 0
2, 29550, Note_on_c, 0, 52, 45
2, 29553, Note_on_c, 0, 69, 0
2, 29559, Note_on_c, 0, 53, 0
2, 29569, Note_on_c, 0, 68, 69
2, 29753, Note_on_c, 0, 68, 0
2, 29770, Note_on_c, 0, 71, 73
2, 29934, Note_on_c, 0, 52, 0
2, 29969, Note_on_c, 0, 71, 0
2, 29982, Note_on_c, 0, 72, 72
2, 29996, Note_on_c, 0, 51, 53
2, 30189, Note_on_c, 0, 72, 0
2, 30198, Note_on_c, 0, 67, 58
2, 30235, Note_on_c, 0, 65, 28
2, 30236, Note_on_c, 0, 65, 0
2, 30417, Note_on_c, 0, 50, 53
2, 30417, Note_on_c, 0, 51, 0
2, 30611, Note_on_c, 0, 67, 0
2, 30622, Note_on_c, 0, 66, 65
2, 30842, Note_on_c, 0, 48, 55
2, 30847, Note_on_c, 0, 50, 0
2, 31048, Note_on_c, 0, 67, 61
2, 31075, Note_on_c, 0, 66, 0
2, 31143, Note_on_c, 0, 67, 0
2, 31157, Note_on_c, 0, 69, 67
2, 31229, Note_on_c, 0, 69, 0
2, 31270, Note_on_c, 0, 62, 66
2, 31483, Note_on_c, 0, 48, 0
2, 31491, Note_on_c, 0, 47, 58
2, 31574, Note_on_c, 0, 47, 0
2, 31587, Note_on_c, 0, 45, 59
2, 31690, Note_on_c, 0, 45, 0
2, 31692, Note_on_c, 0, 47, 59
2, 31693, Note_on_c, 0, 62, 0
2, 31702, Note_on_c, 0, 67, 69
2, 31876, Note_on_c, 0, 47, 0
2, 31922, Note_on_c, 0, 55, 68
2, 32117, Note_on_c, 0, 69, 78
2, 32119, Note_on_c, 0, 67, 0
2, 32301, Note_on_c, 0, 55, 0
2, 32318, Note_on_c, 0, 54, 69
2, 32535, Note_on_c, 0, 71, 73
2, 32537, Note_on_c, 0, 54, 0
2, 32546, Note_on_c, 0, 62, 56
2, 32568, Note_on_c, 0, 69, 0
2, 32742, Note_on_c, 0, 62, 0
2, 32770, Note_on_c, 0, 53, 58
2, 32987, Note_on_c, 0, 72, 65
2, 32999, Note_on_c, 0, 71, 0
2, 33171, Note_on_c, 0, 53, 0
2, 33194, Note_on_c, 0, 52, 58
2, 33288, Note_on_c, 0, 52, 0
2, 33292, Note_on_c, 0, 50, 67
2, 33393, Note_on_c, 0, 50, 0
2, 33396, Note_on_c, 0, 49, 65
2, 33399, Note_on_c, 0, 72, 0
2, 33407, Note_on_c, 0, 69, 68
2, 33586, Note_on_c, 0, 49, 0
2, 33631, Note_on_c, 0, 57, 72
2, 33818, Note_on_c, 0, 71, 76
2, 33858, Note_on_c, 0, 69, 0
2, 34008, Note_on_c, 0, 57, 0
2, 34024, Note_on_c, 0, 56, 67
2, 34246, Note_on_c, 0, 73, 68
2, 34258, Note_on_c, 0, 64, 66
2, 34266, Note_on_c, 0, 56, 0
2, 34266, Note_on_c, 0, 71, 0
2, 34460, Note_on_c, 0, 55, 71
2, 34472, Note_on_c, 0, 64, 0
2, 34659, Note_on_c, 0, 74, 64
2, 34683, Note_on_c, 0, 73, 0
2, 34781, Note_on_c, 0, 55, 0
2, 34785, Note_on_c, 0, 54, 72
2, 34888, Note_on_c, 0, 55, 79
2, 34910, Note_on_c, 0, 54, 0
2, 34985, Note_on_c, 0, 55, 0
2, 34989, Note_on_c, 0, 57, 81
2, 35038, Note_on_c, 0, 74, 0
2, 35100, Note_on_c, 0, 62, 65
2, 35108, Note_on_c, 0, 57, 0
2, 35112, Note_on_c, 0, 58, 78
2, 35338, Note_on_c, 0, 53, 77
2, 35338, Note_on_c, 0, 58, 0
2, 35533, Note_on_c, 0, 52, 69
2, 35548, Note_on_c, 0, 53, 0
2, 35548, Note_on_c, 0, 61, 64
2, 35579, Note_on_c, 0, 62, 0
2, 35769, Note_on_c, 0, 52, 0
2, 35774, Note_on_c, 0, 56, 76
2, 35969, Note_on_c, 0, 56, 0
2, 35982, Note_on_c, 0, 57, 69
2, 35986, Note_on_c, 0, 60, 62
2, 36013, Note_on_c, 0, 61, 0
2, 36190, Note_on_c, 0, 51, 73
2, 36196, Note_on_c, 0, 57, 0
2, 36379, Note_on_c, 0, 60, 0
2, 36397, Note_on_c, 0, 59, 63
2, 36407, Note_on_c, 0, 50, 62
2, 36415, Note_on_c, 0, 51, 0
2, 36614, Note_on_c, 0, 50, 0
2, 36625, Note_on_c, 0, 54, 71
2, 36813, Note_on_c, 0, 54, 0
2, 36819, Note_on_c, 0, 59, 0
2, 36824, Note_on_c, 0, 58, 62
2, 36827, Note_on_c, 0, 55, 63
2, 37040, Note_on_c, 0, 55, 0
2, 37047, Note_on_c, 0, 49, 59
2, 37264, Note_on_c, 0, 57, 60
2, 37294, Note_on_c, 0, 58, 0
2, 37485, Note_on_c, 0, 50, 50
2, 37513, Note_on_c, 0, 49, 0
2, 37686, Note_on_c, 0, 57, 0
2, 37698, Note_on_c, 0, 55, 51
2, 37904, Note_on_c, 0, 50, 0
2, 37909, Note_on_c, 0, 52, 49
2, 38128, Note_on_c, 0, 52, 0
2, 38144, Note_on_c, 0, 45, 42
2, 38348, Note_on_c, 0, 55, 0
2, 38372, Note_on_c, 0, 53, 52
2, 38434, Note_on_c, 0, 53, 0
2, 38462, Note_on_c, 0, 52, 55
2, 38559, Note_on_c, 0, 52, 0
2, 38569, Note_on_c, 0, 50, 50
2, 38579, Note_on_c, 0, 45, 0
2, 38581, Note_on_c, 0, 53, 55
2, 38701, Note_on_c, 0, 53, 0
2, 38817, Note_on_c, 0, 62, 67
2, 39013, Note_on_c, 0, 52, 52
2, 39016, Note_on_c, 0, 50, 0
2, 39231, Note_on_c, 0, 62, 0
2, 39233, Note_on_c, 0, 61, 66
2, 39329, Note_on_c, 0, 61, 0
2, 39435, Note_on_c, 0, 52, 0
2, 39447, Note_on_c, 0, 69, 70
2, 39449, Note_on_c, 0, 54, 47
2, 39647, Note_on_c, 0, 69, 0
2, 39671, Note_on_c, 0, 60, 66
2, 39861, Note_on_c, 0, 54, 0
2, 39885, Note_on_c, 0, 55, 55
2, 40023, Note_on_c, 0, 60, 0
2, 40085, Note_on_c, 0, 59, 67
2, 40172, Note_on_c, 0, 59, 0
2, 40180, Note_on_c, 0, 57, 69
2, 40278, Note_on_c, 0, 57, 0
2, 40297, Note_on_c, 0, 56, 68
2, 40300, Note_on_c, 0, 52, 51
2, 40314, Note_on_c, 0, 55, 0
2, 40404, Note_on_c, 0, 56, 0
2, 40524, Note_on_c, 0, 64, 77
2, 40737, Note_on_c, 0, 54, 61
2, 40741, Note_on_c, 0, 52, 0
2, 40946, Note_on_c, 0, 64, 0
2, 40948, Note_on_c, 0, 63, 69
2, 41046, Note_on_c, 0, 63, 0
2, 41148, Note_on_c, 0, 56, 50
2, 41162, Note_on_c, 0, 54, 0
2, 41168, Note_on_c, 0, 71, 73
2, 41350, Note_on_c, 0, 71, 0
2, 41377, Note_on_c, 0, 62, 69
2, 41546, Note_on_c, 0, 56, 0
2, 41570, Note_on_c, 0, 57, 64
2, 41675, Note_on_c, 0, 60, 72
2, 41697, Note_on_c, 0, 62, 0
2, 41756, Note_on_c, 0, 45, 52
2, 41765, Note_on_c, 0, 57, 0
2, 41785, Note_on_c, 0, 62, 77
2, 41817, Note_on_c, 0, 60, 0
2, 41872, Note_on_c, 0, 62, 0
2, 41883, Note_on_c, 0, 64, 81
2, 41981, Note_on_c, 0, 57, 54
2, 41986, Note_on_c, 0, 45, 0
2, 42003, Note_on_c, 0, 64, 0
2, 42008, Note_on_c, 0, 65, 77
2, 42220, Note_on_c, 0, 60, 79
2, 42227, Note_on_c, 0, 65, 0
2, 42424, Note_on_c, 0, 57, 0
2, 42432, Note_on_c, 0, 60, 0
2, 42434, Note_on_c, 0, 56, 50
2, 42443, Note_on_c, 0, 59, 74
2, 42664, Note_on_c, 0, 63, 77
2, 42695, Note_on_c, 0, 59, 0
2, 42885, Note_on_c, 0, 63, 0
2, 42886, Note_on_c, 0, 56, 0
2, 42887, Note_on_c, 0, 55, 48
2, 42888, Note_on_c, 0, 64, 72
2, 43099, Note_on_c, 0, 64, 0
2, 43104, Note_on_c, 0, 58, 73
2, 43304, Note_on_c, 0, 55, 0
2, 43317, Note_on_c, 0, 58, 0
2, 43329, Note_on_c, 0, 57, 66
2, 43333, Note_on_c, 0, 54, 40
2, 43542, Note_on_c, 0, 61, 69
2, 43548, Note_on_c, 0, 57, 0
2, 43722, Note_on_c, 0, 54, 0
2, 43766, Note_on_c, 0, 61, 0
2, 43768, Note_on_c, 0, 53, 41
2, 43772, Note_on_c, 0, 62, 64
2, 43968, Note_on_c, 0, 62, 0
2, 43983, Note_on_c, 0, 56, 67
2, 44218, Note_on_c, 0, 53, 0
2, 44222, Note_on_c, 0, 52, 49
2, 44399, Note_on_c, 0, 57, 63
2, 44403, Note_on_c, 0, 56, 0
2, 44619, Note_on_c, 0, 50, 52
2, 44619, Note_on_c, 0, 52, 0
2, 44822, Note_on_c, 0, 57, 0
2, 44837, Note_on_c, 0, 59, 53
2, 45062, Note_on_c, 0, 52, 53
2, 45066, Note_on_c, 0, 59, 0
2, 45224, Control_c, 0, 64, 15
2, 45240, Control_c, 0, 64, 25
2, 45255, Control_c, 0, 64, 32
2, 45259, Note_on_c, 0, 52, 0
2, 45260, Note_on_c, 0, 50, 0
2, 45269, Control_c, 0, 64, 37
2, 45280, Note_on_c, 0, 48, 60
2, 45285, Control_c, 0, 64, 40
2, 45300, Control_c, 0, 64, 42
2, 45316, Control_c, 0, 64, 44
2, 45331, Control_c, 0, 64, 44
2, 45364, Note_on_c, 0, 48, 0
2, 45371, Note_on_c, 0, 47, 61
2, 45376, Control_c, 0, 64, 44
2, 45391, Control_c, 0, 64, 40
2, 45407, Control_c, 0, 64, 38
2, 45421, Control_c, 0, 64, 34
2, 45437, Control_c, 0, 64, 30
2, 45452, Control_c, 0, 64, 27
2, 45466, Note_on_c, 0, 64, 62
2, 45467, Control_c, 0, 64, 24
2, 45468, Note_on_c, 0, 47, 0
2, 45476, Note_on_c, 0, 48, 52
2, 45482, Control_c, 0, 64, 22
2, 45497, Control_c, 0, 64, 20
2, 45512, Control_c, 0, 64, 18
2, 45543, Control_c, 0, 64, 17
2, 45558, Control_c, 0, 64, 16
2, 45618, Note_on_c, 0, 48, 0
2, 45702, Note_on_c, 0, 52, 60
2, 45906, Note_on_c, 0, 64, 0
2, 45907, Note_on_c, 0, 66, 73
2, 46106, Note_on_c, 0, 52, 0
2, 46123, Note_on_c, 0, 51, 63
2, 46335, Note_on_c, 0, 51, 0
2, 46337, Note_on_c, 0, 68, 69
2, 46345, Note_on_c, 0, 59, 59
2, 46362, Note_on_c, 0, 66, 0
2, 46557, Note_on_c, 0, 50, 54
2, 46560, Note_on_c, 0, 59, 0
2, 46773, Note_on_c, 0, 69, 76
2, 46786, Note_on_c, 0, 68, 0
2, 46962, Note_on_c, 0, 50, 0
2, 46962, Note_on_c, 0, 69, 0
2, 46988, Note_on_c, 0, 49, 50
2, 46989, Note_on_c, 0, 57, 73
2, 47084, Note_on_c, 0, 49, 0
2, 47086, Note_on_c, 0, 47, 47
2, 47147, Note_on_c, 0, 57, 0
2, 47188, Note_on_c, 0, 47, 0
2, 47200, Note_on_c, 0, 69, 78
2, 47207, Note_on_c, 0, 49, 54
2, 47402, Note_on_c, 0, 49, 0
2, 47406, Note_on_c, 0, 45, 63
2, 47614, Note_on_c, 0, 47, 63
2, 47654, Note_on_c, 0, 45, 0
2, 47822, Note_on_c, 0, 69, 0
2, 47837, Note_on_c, 0, 68, 69
2, 48040, Note_on_c, 0, 47, 0
2, 48054, Note_on_c, 0, 49, 48
2, 48063, Note_on_c, 0, 76, 66
2, 48070, Note_on_c, 0, 68, 0
2, 48253, Note_on_c, 0, 76, 0
2, 48276, Note_on_c, 0, 67, 70
2, 48465, Note_on_c, 0, 49, 0
2, 48483, Note_on_c, 0, 50, 73
2, 48632, Note_on_c, 0, 67, 0
2, 48676, Note_on_c, 0, 66, 67
2, 48684, Note_on_c, 0, 38, 68
2, 48684, Note_on_c, 0, 50, 0
2, 48795, Note_on_c, 0, 64, 68
2, 48795, Note_on_c, 0, 66, 0
2, 48873, Note_on_c, 0, 64, 0
2, 48911, Note_on_c, 0, 50, 73
2, 48917, Note_on_c, 0, 66, 60
2, 48924, Note_on_c, 0, 38, 0
2, 49102, Note_on_c, 0, 66, 0
2, 49125, Note_on_c, 0, 62, 64
2, 49293, Note_on_c, 0, 62, 0
2, 49327, Note_on_c, 0, 64, 62
2, 49512, Note_on_c, 0, 50, 0
2, 49530, Note_on_c, 0, 49, 60
2, 49738, Note_on_c, 0, 49, 0
2, 49752, Note_on_c, 0, 66, 61
2, 49753, Note_on_c, 0, 57, 60
2, 49779, Note_on_c, 0, 64, 0
2, 49965, Note_on_c, 0, 57, 0
2, 49973, Note_on_c, 0, 48, 60
2, 50174, Note_on_c, 0, 67, 82
2, 50185, Note_on_c, 0, 66, 0
2, 50372, Note_on_c, 0, 67, 0
2, 50381, Note_on_c, 0, 48, 0
2, 50393, Note_on_c, 0, 55, 69
2, 50409, Note_on_c, 0, 47, 53
2, 50477, Control_c, 0, 64, 15
2, 50490, Note_on_c, 0, 47, 0
2, 50501, Note_on_c, 0, 45, 51
2, 50589, Note_on_c, 0, 45, 0
2, 50601, Note_on_c, 0, 67, 73
2, 50602, Note_on_c, 0, 55, 0
2, 50611, Note_on_c, 0, 47, 51
2, 50690, Control_c, 0, 64, 14
2, 50736, Control_c, 0, 64, 12
2, 50798, Control_c, 0, 64, 10
2, 50816, Note_on_c, 0, 43, 63
2, 50819, Note_on_c, 0, 47, 0
2, 50888, Control_c, 0, 64, 8
2, 51053, Note_on_c, 0, 43, 0
2, 51058, Note_on_c, 0, 45, 63
2, 51123, Control_c, 0, 64, 0
2, 51237, Note_on_c, 0, 67, 0
2, 51252, Note_on_c, 0, 66, 73
2, 51477, Note_on_c, 0, 66, 0
2, 51481, Note_on_c, 0, 45, 0
2, 51484, Note_on_c, 0, 74, 74
2, 51492, Note_on_c, 0, 47, 61
2, 51675, Note_on_c, 0, 74, 0
2, 51684, Note_on_c, 0, 65, 78
2, 51904, Note_on_c, 0, 47, 0
2, 51920, Note_on_c, 0, 48, 71
2, 51998, Control_c, 0, 64, 20
2, 52013, Control_c, 0, 64, 30
2, 52027, Control_c, 0, 64, 36
2, 52043, Control_c, 0, 64, 40
2, 52058, Control_c, 0, 64, 42
2, 52073, Control_c, 0, 64, 45
2, 52079, Note_on_c, 0, 65, 0
2, 52088, Control_c, 0, 64, 46
2, 52103, Control_c, 0, 64, 47
2, 52141, Note_on_c, 0, 64, 78
2, 52179, Control_c, 0, 64, 45
2, 52195, Control_c, 0, 64, 41
2, 52210, Control_c, 0, 64, 36
2, 52225, Control_c, 0, 64, 24
2, 52228, Note_on_c, 0, 64, 0
2, 52241, Control_c, 0, 64, 0
2, 52243, Note_on_c, 0, 62, 72
2, 52311, Note_on_c, 0, 62, 0
2, 52338, Note_on_c, 0, 64, 80
2, 52409, Control_c, 0, 64, 30
2, 52418, Note_on_c, 0, 64, 0
2, 52424, Control_c, 0, 64, 41
2, 52440, Control_c, 0, 64, 47
2, 52455, Control_c, 0, 64, 53
2, 52470, Control_c, 0, 64, 57
2, 52486, Control_c, 0, 64, 61
2, 52500, Control_c, 0, 64, 63
2, 52516, Control_c, 0, 64, 64
2, 52531, Control_c, 0, 64, 66
2, 52546, Control_c, 0, 64, 66
2, 52553, Note_on_c, 0, 48, 0
2, 52569, Control_c, 0, 64, 67
2, 52574, Note_on_c, 0, 47, 57
2, 52574, Note_on_c, 0, 76, 83
2, 52599, Control_c, 0, 64, 66
2, 52614, Control_c, 0, 64, 66
2, 52629, Control_c, 0, 64, 65
2, 52645, Control_c, 0, 64, 64
2, 52658, Note_on_c, 0, 47, 0
2, 52660, Control_c, 0, 64, 63
2, 52668, Note_on_c, 0, 45, 67
2, 52675, Control_c, 0, 64, 62
2, 52690, Control_c, 0, 64, 61
2, 52705, Control_c, 0, 64, 60
2, 52721, Control_c, 0, 64, 57
2, 52736, Control_c, 0, 64, 54
2, 52751, Control_c, 0, 64, 51
2, 52767, Control_c, 0, 64, 45
2, 52775, Note_on_c, 0, 52, 75
2, 52782, Control_c, 0, 64, 38
2, 52785, Note_on_c, 0, 45, 0
2, 52797, Control_c, 0, 64, 29
2, 52812, Control_c, 0, 64, 10
2, 52827, Control_c, 0, 64, 0
2, 52885, Note_on_c, 0, 52, 0
2, 52886, Note_on_c, 0, 53, 74
2, 52964, Control_c, 0, 64, 17
2, 52972, Note_on_c, 0, 53, 0
2, 52977, Control_c, 0, 64, 29
2, 52984, Note_on_c, 0, 55, 71
2, 52992, Control_c, 0, 64, 36
2, 53007, Control_c, 0, 64, 40
2, 53017, Note_on_c, 0, 77, 77
2, 53021, Note_on_c, 0, 76, 0
2, 53022, Control_c, 0, 64, 44
2, 53037, Control_c, 0, 64, 48
2, 53053, Control_c, 0, 64, 52
2, 53068, Control_c, 0, 64, 55
2, 53075, Note_on_c, 0, 55, 0
2, 53083, Control_c, 0, 64, 57
2, 53089, Note_on_c, 0, 53, 70
2, 53098, Control_c, 0, 64, 60
2, 53113, Control_c, 0, 64, 61
2, 53129, Control_c, 0, 64, 62
2, 53131, Note_on_c, 0, 76, 84
2, 53143, Control_c, 0, 64, 63
2, 53145, Note_on_c, 0, 77, 0
2, 53158, Control_c, 0, 64, 63
2, 53158, Note_on_c, 0, 53, 0
2, 53179, Note_on_c, 0, 55, 70
2, 53190, Control_c, 0, 64, 64
2, 53229, Note_on_c, 0, 55, 0
2, 53238, Note_on_c, 0, 76, 0
2, 53244, Note_on_c, 0, 74, 80
2, 53247, Note_on_c, 0, 53, 59
2, 53290, Note_on_c, 0, 53, 0
2, 53300, Note_on_c, 0, 55, 66
2, 53332, Note_on_c, 0, 74, 0
2, 53335, Control_c, 0, 64, 63
2, 53348, Note_on_c, 0, 72, 83
2, 53365, Control_c, 0, 64, 63
2, 53372, Note_on_c, 0, 53, 68
2, 53372, Note_on_c, 0, 55, 0
2, 53380, Control_c, 0, 64, 61
2, 53395, Control_c, 0, 64, 60
2, 53411, Control_c, 0, 64, 57
2, 53422, Note_on_c, 0, 72, 0
2, 53426, Control_c, 0, 64, 55
2, 53437, Note_on_c, 0, 53, 0
2, 53440, Control_c, 0, 64, 53
2, 53444, Note_on_c, 0, 52, 67
2, 53453, Note_on_c, 0, 71, 82
2, 53456, Control_c, 0, 64, 51
2, 53471, Control_c, 0, 64, 49
2, 53486, Control_c, 0, 64, 48
2, 53501, Control_c, 0, 64, 47
2, 53530, Note_on_c, 0, 71, 0
2, 53544, Note_on_c, 0, 52, 0
2, 53544, Note_on_c, 0, 53, 72
2, 53570, Note_on_c, 0, 69, 77
2, 53635, Note_on_c, 0, 53, 0
2, 53655, Note_on_c, 0, 52, 70
2, 53658, Note_on_c, 0, 69, 0
2, 53690, Note_on_c, 0, 68, 77
2, 53750, Note_on_c, 0, 66, 34
2, 53822, Note_on_c, 0, 64, 73
2, 53877, Note_on_c, 0, 66, 0
2, 53923, Note_on_c, 0, 64, 0
2, 53928, Note_on_c, 0, 62, 76
2, 53987, Control_c, 0, 64, 45
2, 54004, Control_c, 0, 64, 42
2, 54019, Control_c, 0, 64, 31
2, 54027, Note_on_c, 0, 62, 0
2, 54030, Note_on_c, 0, 60, 78
2, 54034, Control_c, 0, 64, 0
2, 54124, Note_on_c, 0, 59, 74
2, 54198, Note_on_c, 0, 60, 0
2, 54224, Control_c, 0, 64, 17
2, 54232, Note_on_c, 0, 57, 76
2, 54238, Note_on_c, 0, 59, 0
2, 54239, Control_c, 0, 64, 27
2, 54255, Control_c, 0, 64, 31
2, 54270, Control_c, 0, 64, 34
2, 54285, Control_c, 0, 64, 36
2, 54330, Control_c, 0, 64, 31
2, 54345, Control_c, 0, 64, 0
2, 54347, Note_on_c, 0, 56, 78
2, 54372, Note_on_c, 0, 52, 0
2, 54390, Note_on_c, 0, 57, 0
2, 54448, Note_on_c, 0, 56, 0
2, 54452, Note_on_c, 0, 54, 76
2, 54467, Control_c, 0, 64, 24
2, 54483, Control_c, 0, 64, 40
2, 54498, Control_c, 0, 64, 46
2, 54513, Control_c, 0, 64, 50
2, 54528, Control_c, 0, 64, 53
2, 54543, Control_c, 0, 64, 55
2, 54558, Control_c, 0, 64, 56
2, 54562, Note_on_c, 0, 54, 0
2, 54574, Control_c, 0, 64, 58
2, 54589, Control_c, 0, 64, 59
2, 54592, Note_on_c, 0, 52, 73
2, 54604, Control_c, 0, 64, 59
2, 54619, Control_c, 0, 64, 60
2, 54680, Control_c, 0, 64, 59
2, 54695, Control_c, 0, 64, 58
2, 54710, Control_c, 0, 64, 57
2, 54726, Control_c, 0, 64, 56
2, 54740, Control_c, 0, 64, 55
2, 54755, Control_c, 0, 64, 53
2, 54771, Control_c, 0, 64, 52
2, 54786, Control_c, 0, 64, 50
2, 54802, Control_c, 0, 64, 48
2, 54818, Control_c, 0, 64, 46
2, 54833, Control_c, 0, 64, 43
2, 54848, Control_c, 0, 64, 40
2, 54871, Control_c, 0, 64, 36
2, 54887, Control_c, 0, 64, 29
2, 54901, Control_c, 0, 64, 12
2, 54916, Control_c, 0, 64, 0
2, 55097, Note_on_c, 0, 40, 64
2, 55128, Note_on_c, 0, 52, 0
2, 55205, Control_c, 0, 64, 29
2, 55220, Control_c, 0, 64, 40
2, 55235, Control_c, 0, 64, 48
2, 55240, Note_on_c, 0, 68, 0
2, 55250, Control_c, 0, 64, 54
2, 55265, Control_c, 0, 64, 58
2, 55280, Control_c, 0, 64, 61
2, 55296, Control_c, 0, 64, 65
2, 55311, Control_c, 0, 64, 69
2, 55327, Control_c, 0, 64, 74
2, 55342, Control_c, 0, 64, 80
2, 55357, Control_c, 0, 64, 85
2, 55372, Control_c, 0, 64, 90
2, 55387, Control_c, 0, 64, 95
2, 55403, Control_c, 0, 64, 96
2, 55432, Control_c, 0, 64, 95
2, 55462, Control_c, 0, 64, 95
2, 55477, Control_c, 0, 64, 94
2, 55493, Control_c, 0, 64, 94
2, 55508, Control_c, 0, 64, 93
2, 55523, Control_c, 0, 64, 92
2, 55538, Control_c, 0, 64, 91
2, 55553, Control_c, 0, 64, 90
2, 55569, Control_c, 0, 64, 89
2, 55582, Note_on_c, 0, 40, 0
2, 55583, Control_c, 0, 64, 88
2, 55598, Control_c, 0, 64, 86
2, 55614, Control_c, 0, 64, 85
2, 55638, Control_c, 0, 64, 84
2, 55654, Control_c, 0, 64, 84
2, 55669, Control_c, 0, 64, 83
2, 55685, Control_c, 0, 64, 82
2, 55699, Control_c, 0, 64, 81
2, 55714, Control_c, 0, 64, 80
2, 55728, Note_on_c, 0, 76, 54
2, 55730, Control_c, 0, 64, 79
2, 55745, Control_c, 0, 64, 79
2, 55759, Control_c, 0, 64, 78
2, 55775, Control_c, 0, 64, 77
2, 55790, Control_c, 0, 64, 77
2, 55806, Control_c, 0, 64, 76
2, 55820, Control_c, 0, 64, 75
2, 55835, Control_c, 0, 64, 74
2, 55851, Control_c, 0, 64, 72
2, 55866, Control_c, 0, 64, 70
2, 55871, Note_on_c, 0, 60, 61
2, 55882, Control_c, 0, 64, 68
2, 55896, Control_c, 0, 64, 65
2, 55911, Control_c, 0, 64, 62
2, 55927, Control_c, 0, 64, 59
2, 55942, Control_c, 0, 64, 56
2, 55957, Control_c, 0, 64, 54
2, 55972, Control_c, 0, 64, 52
2, 55975, Note_on_c, 0, 60, 0
2, 55981, Note_on_c, 0, 59, 70
2, 55987, Control_c, 0, 64, 49
2, 56003, Control_c, 0, 64, 47
2, 56017, Control_c, 0, 64, 45
2, 56032, Control_c, 0, 64, 44
2, 56048, Control_c, 0, 64, 43
2, 56063, Control_c, 0, 64, 43
2, 56072, Note_on_c, 0, 57, 72
2, 56078, Control_c, 0, 64, 42
2, 56082, Note_on_c, 0, 59, 0
2, 56094, Control_c, 0, 64, 41
2, 56109, Control_c, 0, 64, 41
2, 56140, Control_c, 0, 64, 40
2, 56169, Note_on_c, 0, 57, 0
2, 56186, Note_on_c, 0, 76, 0
2, 56193, Note_on_c, 0, 56, 63
2, 56197, Note_on_c, 0, 64, 62
2, 56323, Control_c, 0, 64, 40
2, 56418, Note_on_c, 0, 56, 0
2, 56424, Note_on_c, 0, 61, 74
2, 56621, Note_on_c, 0, 64, 0
2, 56629, Note_on_c, 0, 61, 0
2, 56634, Note_on_c, 0, 65, 63
2, 56642, Note_on_c, 0, 62, 64
2, 56848, Control_c, 0, 64, 40
2, 56857, Note_on_c, 0, 58, 74
2, 56861, Note_on_c, 0, 62, 0
2, 56862, Control_c, 0, 64, 40
2, 56924, Control_c, 0, 64, 40
2, 57054, Note_on_c, 0, 58, 0
2, 57063, Note_on_c, 0, 57, 64
2, 57066, Note_on_c, 0, 66, 65
2, 57082, Note_on_c, 0, 65, 0
2, 57286, Note_on_c, 0, 57, 0
2, 57292, Note_on_c, 0, 63, 75
2, 57495, Note_on_c, 0, 63, 0
2, 57499, Note_on_c, 0, 64, 70
2, 57512, Note_on_c, 0, 67, 66
2, 57543, Note_on_c, 0, 66, 0
2, 57717, Note_on_c, 0, 60, 75
2, 57729, Note_on_c, 0, 64, 0
2, 57919, Note_on_c, 0, 67, 0
2, 57923, Note_on_c, 0, 59, 67
2, 57929, Note_on_c, 0, 60, 0
2, 57944, Note_on_c, 0, 68, 59
2, 58003, Control_c, 0, 64, 40
2, 58150, Note_on_c, 0, 59, 0
2, 58152, Note_on_c, 0, 65, 78
2, 58216, Control_c, 0, 64, 39
2, 58368, Note_on_c, 0, 68, 0
2, 58371, Note_on_c, 0, 69, 69
2, 58585, Note_on_c, 0, 65, 0
2, 58589, Note_on_c, 0, 64, 70
2, 58825, Note_on_c, 0, 71, 66
2, 58833, Note_on_c, 0, 69, 0
2, 59048, Note_on_c, 0, 62, 59
2, 59049, Note_on_c, 0, 64, 0
2, 59257, Note_on_c, 0, 71, 0
2, 59265, Note_on_c, 0, 62, 0
2, 59274, Note_on_c, 0, 69, 47
2, 59297, Note_on_c, 0, 72, 62
2, 59404, Note_on_c, 0, 77, 73
2, 59410, Note_on_c, 0, 72, 0
2, 59504, Note_on_c, 0, 76, 75
2, 59528, Note_on_c, 0, 77, 0
2, 59597, Note_on_c, 0, 74, 80
2, 59597, Note_on_c, 0, 76, 0
2, 59715, Note_on_c, 0, 74, 0
2, 59716, Note_on_c, 0, 73, 78
2, 59720, Note_on_c, 0, 57, 53
2, 59750, Note_on_c, 0, 69, 0
2, 59920, Note_on_c, 0, 78, 81
2, 59931, Note_on_c, 0, 73, 0
2, 60140, Note_on_c, 0, 79, 76
2, 60144, Note_on_c, 0, 78, 0
2, 60148, Note_on_c, 0, 57, 0
2, 60153, Note_on_c, 0, 58, 53
2, 60361, Note_on_c, 0, 75, 82
2, 60374, Note_on_c, 0, 79, 0
2, 60565, Note_on_c, 0, 75, 0
2, 60575, Note_on_c, 0, 74, 77
2, 60581, Note_on_c, 0, 59, 54
2, 60590, Note_on_c, 0, 58, 0
2, 60782, Note_on_c, 0, 80, 78
2, 60800, Note_on_c, 0, 74, 0
2, 60974, Note_on_c, 0, 59, 0
2, 61000, Note_on_c, 0, 81, 71
2, 61004, Note_on_c, 0, 60, 54
2, 61031, Note_on_c, 0, 80, 0
2, 61218, Note_on_c, 0, 77, 82
2, 61239, Note_on_c, 0, 81, 0
2, 61432, Note_on_c, 0, 61, 56
2, 61434, Note_on_c, 0, 60, 0
2, 61435, Note_on_c, 0, 77, 0
2, 61441, Note_on_c, 0, 76, 76
2, 61607, Control_c, 0, 64, 39
2, 61646, Note_on_c, 0, 76, 0
2, 61655, Note_on_c, 0, 82, 77
2, 61886, Note_on_c, 0, 62, 57
2, 61918, Note_on_c, 0, 61, 0
2, 62090, Note_on_c, 0, 81, 69
2, 62113, Note_on_c, 0, 82, 0
2, 62326, Note_on_c, 0, 64, 59
2, 62334, Note_on_c, 0, 62, 0
2, 62517, Note_on_c, 0, 79, 69
2, 62545, Note_on_c, 0, 81, 0
2, 62729, Note_on_c, 0, 64, 0
2, 62753, Note_on_c, 0, 79, 0
2, 62753, Note_on_c, 0, 81, 60
2, 62755, Note_on_c, 0, 65, 39
2, 62867, Note_on_c, 0, 79, 76
2, 62879, Note_on_c, 0, 81, 0
2, 62968, Note_on_c, 0, 77, 81
2, 62986, Note_on_c, 0, 79, 0
2, 63060, Note_on_c, 0, 76, 81
2, 63061, Note_on_c, 0, 77, 0
2, 63159, Note_on_c, 0, 76, 0
2, 63171, Note_on_c, 0, 77, 77
2, 63173, Note_on_c, 0, 65, 0
2, 63178, Note_on_c, 0, 62, 54
2, 63389, Note_on_c, 0, 70, 74
2, 63393, Note_on_c, 0, 77, 0
2, 63578, Note_on_c, 0, 70, 0
2, 63601, Note_on_c, 0, 69, 69
2, 63606, Note_on_c, 0, 60, 50
2, 63614, Note_on_c, 0, 62, 0
2, 63813, Note_on_c, 0, 76, 68
2, 63823, Note_on_c, 0, 69, 0
2, 64030, Note_on_c, 0, 60, 0
2, 64032, Note_on_c, 0, 59, 46
2, 64036, Note_on_c, 0, 76, 0
2, 64038, Note_on_c, 0, 74, 65
2, 64232, Note_on_c, 0, 74, 0
2, 64248, Note_on_c, 0, 68, 67
2, 64461, Note_on_c, 0, 57, 52
2, 64477, Note_on_c, 0, 59, 0
2, 64561, Note_on_c, 0, 74, 61
2, 64572, Note_on_c, 0, 68, 0
2, 64662, Note_on_c, 0, 72, 72
2, 64689, Note_on_c, 0, 74, 0
2, 64756, Note_on_c, 0, 71, 73
2, 64787, Note_on_c, 0, 72, 0
2, 64874, Note_on_c, 0, 71, 0
2, 64884, Note_on_c, 0, 69, 70
2, 64891, Note_on_c, 0, 60, 47
2, 64894, Note_on_c, 0, 57, 0
2, 65095, Note_on_c, 0, 69, 0
2, 65095, Note_on_c, 0, 76, 70
2, 65298, Note_on_c, 0, 60, 0
2, 65303, Note_on_c, 0, 76, 0
2, 65305, Note_on_c, 0, 74, 70
2, 65313, Note_on_c, 0, 59, 46
2, 65507, Note_on_c, 0, 74, 0
2, 65521, Note_on_c, 0, 67, 63
2, 65734, Note_on_c, 0, 67, 0
2, 65746, Note_on_c, 0, 59, 0
2, 65746, Note_on_c, 0, 66, 63
2, 65753, Note_on_c, 0, 57, 49
2, 65952, Note_on_c, 0, 66, 0
2, 65961, Note_on_c, 0, 72, 66
2, 66001, Control_c, 0, 64, 36
2, 66017, Control_c, 0, 64, 33
2, 66032, Control_c, 0, 64, 26
2, 66048, Control_c, 0, 64, 16
2, 66063, Control_c, 0, 64, 10
2, 66153, Control_c, 0, 64, 16
2, 66157, Note_on_c, 0, 57, 0
2, 66165, Note_on_c, 0, 72, 0
2, 66169, Control_c, 0, 64, 25
2, 66175, Note_on_c, 0, 71, 59
2, 66177, Note_on_c, 0, 55, 58
2, 66184, Control_c, 0, 64, 32
2, 66198, Control_c, 0, 64, 37
2, 66214, Control_c, 0, 64, 41
2, 66229, Control_c, 0, 64, 44
2, 66245, Control_c, 0, 64, 46
2, 66259, Control_c, 0, 64, 49
2, 66271, Note_on_c, 0, 55, 0
2, 66274, Control_c, 0, 64, 51
2, 66280, Note_on_c, 0, 59, 67
2, 66291, Control_c, 0, 64, 52
2, 66305, Control_c, 0, 64, 54
2, 66320, Control_c, 0, 64, 55
2, 66370, Note_on_c, 0, 60, 76
2, 66388, Note_on_c, 0, 59, 0
2, 66405, Control_c, 0, 64, 54
2, 66420, Control_c, 0, 64, 53
2, 66435, Control_c, 0, 64, 51
2, 66450, Control_c, 0, 64, 49
2, 66465, Control_c, 0, 64, 47
2, 66472, Note_on_c, 0, 60, 0
2, 66476, Note_on_c, 0, 62, 78
2, 66480, Control_c, 0, 64, 45
2, 66496, Control_c, 0, 64, 43
2, 66511, Control_c, 0, 64, 41
2, 66526, Control_c, 0, 64, 40
2, 66541, Control_c, 0, 64, 39
2, 66556, Control_c, 0, 64, 39
2, 66583, Note_on_c, 0, 62, 0
2, 66586, Control_c, 0, 64, 38
2, 66587, Note_on_c, 0, 79, 71
2, 66598, Note_on_c, 0, 64, 73
2, 66598, Note_on_c, 0, 71, 0
2, 66617, Control_c, 0, 64, 38
2, 66769, Control_c, 0, 64, 37
2, 66801, Note_on_c, 0, 58, 76
2, 66824, Note_on_c, 0, 64, 0
2, 67003, Note_on_c, 0, 77, 67
2, 67004, Note_on_c, 0, 57, 70
2, 67007, Note_on_c, 0, 79, 0
2, 67013, Note_on_c, 0, 58, 0
2, 67233, Note_on_c, 0, 57, 0
2, 67237, Note_on_c, 0, 62, 75
2, 67439, Note_on_c, 0, 61, 67
2, 67449, Note_on_c, 0, 62, 0
2, 67449, Note_on_c, 0, 77, 0
2, 67452, Note_on_c, 0, 76, 66
2, 67664, Note_on_c, 0, 61, 0
2, 67668, Note_on_c, 0, 55, 70
2, 67880, Note_on_c, 0, 74, 62
2, 67880, Note_on_c, 0, 76, 0
2, 67971, Note_on_c, 0, 55, 0
2, 68003, Note_on_c, 0, 67, 68
2, 68103, Note_on_c, 0, 65, 76
2, 68109, Note_on_c, 0, 67, 0
2, 68203, Note_on_c, 0, 64, 71
2, 68226, Note_on_c, 0, 65, 0
2, 68299, Note_on_c, 0, 64, 0
2, 68299, Note_on_c, 0, 77, 69
2, 68312, Note_on_c, 0, 62, 66
2, 68317, Note_on_c, 0, 74, 0
2, 68516, Note_on_c, 0, 62, 0
2, 68520, Note_on_c, 0, 68, 79
2, 68726, Note_on_c, 0, 68, 0
2, 68737, Note_on_c, 0, 76, 69
2, 68741, Note_on_c, 0, 77, 0
2, 68742, Note_on_c, 0, 69, 72
2, 68947, Note_on_c, 0, 69, 0
2, 68959, Note_on_c, 0, 60, 72
2, 69160, Note_on_c, 0, 60, 0
2, 69166, Note_on_c, 0, 59, 64
2, 69178, Note_on_c, 0, 76, 0
2, 69181, Note_on_c, 0, 74, 68
2, 69359, Note_on_c, 0, 59, 0
2, 69391, Note_on_c, 0, 65, 58
2, 69596, Note_on_c, 0, 65, 0
2, 69605, Note_on_c, 0, 64, 53
2, 69692, Note_on_c, 0, 64, 0
2, 69708, Note_on_c, 0, 62, 65
2, 69786, Note_on_c, 0, 62, 0
2, 69799, Note_on_c, 0, 60, 72
2, 69885, Note_on_c, 0, 60, 0
2, 69889, Note_on_c, 0, 59, 78
2, 70003, Note_on_c, 0, 57, 71
2, 70011, Note_on_c, 0, 59, 0
2, 70011, Note_on_c, 0, 74, 0
2, 70023, Note_on_c, 0, 72, 69
2, 70199, Note_on_c, 0, 57, 0
2, 70201, Note_on_c, 0, 72, 0
2, 70212, Note_on_c, 0, 71, 71
2, 70216, Note_on_c, 0, 56, 72
2, 70429, Note_on_c, 0, 71, 0
2, 70432, Note_on_c, 0, 56, 0
2, 70435, Note_on_c, 0, 57, 67
2, 70435, Note_on_c, 0, 72, 71
2, 70564, Control_c, 0, 64, 37
2, 70653, Note_on_c, 0, 53, 68
2, 70657, Note_on_c, 0, 57, 0
2, 70857, Note_on_c, 0, 73, 68
2, 70858, Note_on_c, 0, 53, 0
2, 70862, Note_on_c, 0, 52, 67
2, 70875, Note_on_c, 0, 72, 0
2, 71075, Note_on_c, 0, 52, 0
2, 71084, Note_on_c, 0, 58, 73
2, 71291, Note_on_c, 0, 58, 0
2, 71295, Note_on_c, 0, 59, 70
2, 71298, Note_on_c, 0, 74, 66
2, 71310, Note_on_c, 0, 73, 0
2, 71498, Note_on_c, 0, 55, 75
2, 71506, Note_on_c, 0, 59, 0
2, 71695, Note_on_c, 0, 74, 0
2, 71717, Note_on_c, 0, 55, 0
2, 71717, Note_on_c, 0, 75, 71
2, 71723, Note_on_c, 0, 54, 70
2, 71945, Control_c, 0, 64, 37
2, 71948, Note_on_c, 0, 60, 76
2, 71978, Note_on_c, 0, 54, 0
2, 72115, Note_on_c, 0, 75, 0
2, 72140, Note_on_c, 0, 76, 75
2, 72234, Control_c, 0, 64, 38
2, 72373, Note_on_c, 0, 59, 68
2, 72379, Note_on_c, 0, 60, 0
2, 72586, Note_on_c, 0, 78, 77
2, 72598, Note_on_c, 0, 76, 0
2, 72808, Note_on_c, 0, 57, 57
2, 72812, Note_on_c, 0, 59, 0
2, 73005, Note_on_c, 0, 79, 59
2, 73007, Note_on_c, 0, 78, 0
2, 73008, Note_on_c, 0, 64, 49
2, 73017, Note_on_c, 0, 57, 0
2, 73118, Note_on_c, 0, 77, 76
2, 73130, Note_on_c, 0, 79, 0
2, 73216, Note_on_c, 0, 76, 77
2, 73247, Note_on_c, 0, 77, 0
2, 73316, Note_on_c, 0, 76, 0
2, 73321, Note_on_c, 0, 74, 75
2, 73421, Note_on_c, 0, 74, 0
2, 73432, Note_on_c, 0, 73, 78
2, 73435, Note_on_c, 0, 52, 56
2, 73478, Note_on_c, 0, 64, 0
2, 73637, Note_on_c, 0, 80, 80
2, 73674, Note_on_c, 0, 73, 0
2, 73800, Control_c, 0, 64, 37
2, 73863, Note_on_c, 0, 81, 70
2, 73864, Note_on_c, 0, 53, 52
2, 73907, Note_on_c, 0, 52, 0
2, 73908, Note_on_c, 0, 80, 0
2, 74028, Control_c, 0, 64, 37
2, 74081, Control_c, 0, 64, 36
2, 74091, Note_on_c, 0, 75, 83
2, 74097, Control_c, 0, 64, 36
2, 74111, Control_c, 0, 64, 35
2, 74114, Note_on_c, 0, 81, 0
2, 74157, Control_c, 0, 64, 35
2, 74218, Control_c, 0, 64, 34
2, 74293, Note_on_c, 0, 75, 0
2, 74303, Note_on_c, 0, 74, 77
2, 74307, Note_on_c, 0, 54, 55
2, 74324, Control_c, 0, 64, 34
2, 74328, Note_on_c, 0, 53, 0
2, 74370, Control_c, 0, 64, 33
2, 74445, Control_c, 0, 64, 33
2, 74477, Control_c, 0, 64, 32
2, 74513, Note_on_c, 0, 82, 82
2, 74549, Note_on_c, 0, 74, 0
2, 74553, Control_c, 0, 64, 32
2, 74709, Note_on_c, 0, 54, 0
2, 74732, Note_on_c, 0, 55, 55
2, 74732, Note_on_c, 0, 82, 0
2, 74732, Note_on_c, 0, 83, 78
2, 74940, Control_c, 0, 64, 31
2, 74962, Note_on_c, 0, 77, 83
2, 74967, Note_on_c, 0, 83, 0
2, 75108, Control_c, 0, 64, 31
2, 75182, Note_on_c, 0, 56, 57
2, 75189, Note_on_c, 0, 77, 0
2, 75190, Note_on_c, 0, 76, 78
2, 75205, Note_on_c, 0, 55, 0
2, 75291, Control_c, 0, 64, 30
2, 75405, Note_on_c, 0, 76, 0
2, 75419, Note_on_c, 0, 74, 78
2, 75628, Note_on_c, 0, 57, 62
2, 75658, Note_on_c, 0, 56, 0
2, 75855, Note_on_c, 0, 72, 65
2, 75855, Note_on_c, 0, 74, 0
2, 76058, Note_on_c, 0, 59, 60
2, 76060, Note_on_c, 0, 57, 0
2, 76287, Control_c, 0, 64, 29
2, 76303, Control_c, 0, 64, 24
2, 76307, Note_on_c, 0, 71, 62
2, 76308, Note_on_c, 0, 72, 0
2, 76318, Control_c, 0, 64, 16
2, 76334, Control_c, 0, 64, 14
2, 76348, Control_c, 0, 64, 12
2, 76492, Note_on_c, 0, 59, 0
2, 76499, Note_on_c, 0, 60, 57
2, 76710, Note_on_c, 0, 71, 0
2, 76734, Note_on_c, 0, 69, 64
2, 76812, Note_on_c, 0, 69, 0
2, 76824, Note_on_c, 0, 71, 71
2, 76911, Note_on_c, 0, 71, 0
2, 76931, Note_on_c, 0, 57, 58
2, 76934, Note_on_c, 0, 72, 70
2, 76937, Note_on_c, 0, 60, 0
2, 77117, Note_on_c, 0, 72, 0
2, 77144, Note_on_c, 0, 63, 74
2, 77356, Note_on_c, 0, 63, 0
2, 77360, Note_on_c, 0, 55, 52
2, 77370, Note_on_c, 0, 57, 0
2, 77376, Note_on_c, 0, 64, 69
2, 77589, Note_on_c, 0, 73, 69
2, 77603, Note_on_c, 0, 64, 0
2, 77780, Note_on_c, 0, 55, 0
2, 77786, Note_on_c, 0, 73, 0
2, 77797, Note_on_c, 0, 53, 52
2, 77797, Note_on_c, 0, 74, 63
2, 77977, Note_on_c, 0, 74, 0
2, 78006, Note_on_c, 0, 65, 60
2, 78030, Control_c, 0, 64, 10
2, 78186, Note_on_c, 0, 53, 0
2, 78190, Note_on_c, 0, 65, 0
2, 78203, Note_on_c, 0, 52, 52
2, 78206, Note_on_c, 0, 67, 57
2, 78303, Note_on_c, 0, 53, 73
2, 78308, Note_on_c, 0, 52, 0
2, 78403, Note_on_c, 0, 55, 73
2, 78420, Note_on_c, 0, 53, 0
2, 78499, Note_on_c, 0, 55, 0
2, 78503, Note_on_c, 0, 57, 79
2, 78630, Note_on_c, 0, 58, 78
2, 78632, Note_on_c, 0, 57, 0
2, 78634, Note_on_c, 0, 74, 65
2, 78648, Note_on_c, 0, 67, 0
2, 78863, Note_on_c, 0, 53, 73
2, 78880, Note_on_c, 0, 58, 0
2, 79063, Note_on_c, 0, 74, 0
2, 79071, Note_on_c, 0, 73, 65
2, 79080, Note_on_c, 0, 52, 69
2, 79102, Note_on_c, 0, 53, 0
2, 79284, Note_on_c, 0, 52, 0
2, 79295, Note_on_c, 0, 57, 74
2, 79506, Note_on_c, 0, 70, 57
2, 79506, Note_on_c, 0, 73, 0
2, 79516, Note_on_c, 0, 55, 63
2, 79523, Note_on_c, 0, 57, 0
2, 79718, Note_on_c, 0, 55, 0
2, 79723, Note_on_c, 0, 50, 70
2, 79945, Note_on_c, 0, 49, 62
2, 79946, Note_on_c, 0, 50, 0
2, 80045, Note_on_c, 0, 69, 63
2, 80088, Note_on_c, 0, 70, 0
2, 80116, Note_on_c, 0, 69, 0
2, 80137, Note_on_c, 0, 67, 68
2, 80221, Note_on_c, 0, 67, 0
2, 80240, Note_on_c, 0, 69, 80
2, 80360, Note_on_c, 0, 69, 0
2, 80366, Note_on_c, 0, 49, 0
2, 80370, Note_on_c, 0, 70, 73
2, 80381, Note_on_c, 0, 55, 55
2, 80577, Note_on_c, 0, 61, 69
2, 80577, Note_on_c, 0, 70, 0
2, 80766, Note_on_c, 0, 61, 0
2, 80796, Note_on_c, 0, 55, 0
2, 80798, Note_on_c, 0, 62, 67
2, 80813, Note_on_c, 0, 53, 51
2, 81013, Note_on_c, 0, 62, 0
2, 81013, Note_on_c, 0, 71, 71
2, 81214, Note_on_c, 0, 53, 0
2, 81217, Note_on_c, 0, 71, 0
2, 81227, Note_on_c, 0, 72, 72
2, 81229, Note_on_c, 0, 52, 48
2, 81421, Note_on_c, 0, 72, 0
2, 81431, Note_on_c, 0, 64, 63
2, 81635, Note_on_c, 0, 52, 0
2, 81650, Note_on_c, 0, 64, 0
2, 81653, Note_on_c, 0, 66, 58
2, 81658, Note_on_c, 0, 50, 55
2, 81760, Note_on_c, 0, 52, 69
2, 81763, Note_on_c, 0, 50, 0
2, 81856, Note_on_c, 0, 54, 76
2, 81862, Note_on_c, 0, 52, 0
2, 81959, Note_on_c, 0, 54, 0
2, 81960, Note_on_c, 0, 55, 77
2, 82058, Note_on_c, 0, 55, 0
2, 82069, Note_on_c, 0, 57, 72
2, 82085, Note_on_c, 0, 72, 64
2, 82089, Note_on_c, 0, 66, 0
2, 82283, Note_on_c, 0, 51, 73
2, 82305, Note_on_c, 0, 57, 0
2, 82500, Note_on_c, 0, 50, 60
2, 82505, Note_on_c, 0, 51, 0
2, 82519, Note_on_c, 0, 71, 69
2, 82530, Note_on_c, 0, 72, 0
2, 82714, Note_on_c, 0, 50, 0
2, 82724, Note_on_c, 0, 55, 63
2, 82924, Note_on_c, 0, 55, 0
2, 82925, Note_on_c, 0, 54, 60
2, 82938, Note_on_c, 0, 69, 62
2, 82949, Note_on_c, 0, 71, 0
2, 83114, Note_on_c, 0, 54, 0
2, 83124, Note_on_c, 0, 48, 62
2, 83353, Note_on_c, 0, 47, 60
2, 83390, Note_on_c, 0, 48, 0
2, 83472, Note_on_c, 0, 69, 0
2, 83481, Note_on_c, 0, 67, 72
2, 83599, Note_on_c, 0, 69, 79
2, 83639, Note_on_c, 0, 67, 0
2, 83686, Note_on_c, 0, 69, 0
2, 83699, Note_on_c, 0, 71, 81
2, 83821, Note_on_c, 0, 71, 0
2, 83827, Note_on_c, 0, 72, 80
2, 83837, Note_on_c, 0, 52, 57
2, 83874, Note_on_c, 0, 47, 0
2, 84080, Note_on_c, 0, 67, 77
2, 84080, Note_on_c, 0, 72, 0
2, 84293, Note_on_c, 0, 66, 75
2, 84294, Note_on_c, 0, 67, 0
2, 84296, Note_on_c, 0, 51, 57
2, 84330, Note_on_c, 0, 52, 0
2, 84506, Note_on_c, 0, 70, 78
2, 84507, Note_on_c, 0, 66, 0
2, 84710, Note_on_c, 0, 70, 0
2, 84717, Note_on_c, 0, 71, 72
2, 84721, Note_on_c, 0, 50, 49
2, 84729, Note_on_c, 0, 51, 0
2, 84943, Note_on_c, 0, 65, 73
2, 84951, Note_on_c, 0, 71, 0
2, 85156, Note_on_c, 0, 50, 0
2, 85159, Note_on_c, 0, 49, 46
2, 85169, Note_on_c, 0, 65, 0
2, 85170, Note_on_c, 0, 64, 69
2, 85364, Note_on_c, 0, 64, 0
2, 85371, Note_on_c, 0, 68, 71
2, 85560, Note_on_c, 0, 49, 0
2, 85576, Note_on_c, 0, 68, 0
2, 85594, Note_on_c, 0, 69, 67
2, 85604, Note_on_c, 0, 48, 43
2, 85802, Note_on_c, 0, 69, 0
2, 85814, Note_on_c, 0, 63, 73
2, 86046, Note_on_c, 0, 47, 58
2, 86061, Note_on_c, 0, 48, 0
2, 86253, Note_on_c, 0, 64, 68
2, 86274, Note_on_c, 0, 63, 0
2, 86501, Note_on_c, 0, 45, 63
2, 86508, Note_on_c, 0, 47, 0
2, 86685, Note_on_c, 0, 66, 60
2, 86686, Note_on_c, 0, 64, 0
2, 86887, Note_on_c, 0, 66, 0
2, 86905, Control_c, 0, 64, 12
2, 86906, Note_on_c, 0, 59, 60
2, 86921, Control_c, 0, 64, 15
2, 86936, Control_c, 0, 64, 19
2, 86951, Control_c, 0, 64, 24
2, 86966, Control_c, 0, 64, 27
2, 86981, Control_c, 0, 64, 31
2, 86997, Control_c, 0, 64, 35
2, 87012, Control_c, 0, 64, 39
2, 87018, Note_on_c, 0, 45, 0
2, 87018, Note_on_c, 0, 48, 68
2, 87027, Control_c, 0, 64, 42
2, 87043, Control_c, 0, 64, 44
2, 87058, Control_c, 0, 64, 46
2, 87073, Control_c, 0, 64, 48
2, 87085, Note_on_c, 0, 59, 0
2, 87088, Control_c, 0, 64, 50
2, 87103, Control_c, 0, 64, 52
2, 87119, Control_c, 0, 64, 52
2, 87133, Note_on_c, 0, 47, 70
2, 87141, Control_c, 0, 64, 53
2, 87146, Note_on_c, 0, 48, 0
2, 87217, Control_c, 0, 64, 52
2, 87218, Note_on_c, 0, 45, 71
2, 87224, Note_on_c, 0, 47, 0
2, 87232, Control_c, 0, 64, 50
2, 87247, Control_c, 0, 64, 49
2, 87262, Control_c, 0, 64, 47
2, 87278, Control_c, 0, 64, 45
2, 87293, Control_c, 0, 64, 43
2, 87308, Control_c, 0, 64, 41
2, 87324, Control_c, 0, 64, 39
2, 87324, Note_on_c, 0, 45, 0
2, 87328, Note_on_c, 0, 76, 69
2, 87336, Note_on_c, 0, 44, 67
2, 87339, Control_c, 0, 64, 38
2, 87353, Control_c, 0, 64, 37
2, 87369, Control_c, 0, 64, 36
2, 87384, Control_c, 0, 64, 35
2, 87400, Control_c, 0, 64, 34
2, 87415, Control_c, 0, 64, 33
2, 87429, Control_c, 0, 64, 33
2, 87460, Control_c, 0, 64, 32
2, 87555, Note_on_c, 0, 44, 0
2, 87555, Note_on_c, 0, 49, 66
2, 87740, Note_on_c, 0, 76, 0
2, 87761, Note_on_c, 0, 77, 67
2, 87764, Note_on_c, 0, 49, 0
2, 87773, Note_on_c, 0, 50, 68
2, 87993, Note_on_c, 0, 46, 73
2, 88009, Note_on_c, 0, 50, 0
2, 88192, Note_on_c, 0, 46, 0
2, 88193, Note_on_c, 0, 45, 62
2, 88197, Note_on_c, 0, 78, 69
2, 88232, Note_on_c, 0, 77, 0
2, 88349, Control_c, 0, 64, 32
2, 88415, Note_on_c, 0, 51, 75
2, 88416, Note_on_c, 0, 45, 0
2, 88426, Control_c, 0, 64, 31
2, 88457, Control_c, 0, 64, 31
2, 88502, Control_c, 0, 64, 30
2, 88578, Control_c, 0, 64, 30
2, 88629, Note_on_c, 0, 79, 70
2, 88637, Note_on_c, 0, 51, 0
2, 88640, Note_on_c, 0, 52, 69
2, 88669, Note_on_c, 0, 78, 0
2, 88708, Control_c, 0, 64, 29
2, 88843, Note_on_c, 0, 48, 75
2, 88849, Note_on_c, 0, 52, 0
2, 89040, Note_on_c, 0, 79, 0
2, 89042, Control_c, 0, 64, 29
2, 89051, Note_on_c, 0, 80, 78
2, 89068, Note_on_c, 0, 47, 67
2, 89072, Control_c, 0, 64, 28
2, 89073, Note_on_c, 0, 48, 0
2, 89088, Control_c, 0, 64, 27
2, 89119, Control_c, 0, 64, 26
2, 89148, Control_c, 0, 64, 26
2, 89179, Control_c, 0, 64, 25
2, 89209, Control_c, 0, 64, 24
2, 89241, Control_c, 0, 64, 24
2, 89256, Control_c, 0, 64, 23
2, 89277, Note_on_c, 0, 47, 0
2, 89283, Note_on_c, 0, 53, 77
2, 89286, Control_c, 0, 64, 22
2, 89317, Control_c, 0, 64, 21
2, 89346, Control_c, 0, 64, 20
2, 89480, Note_on_c, 0, 80, 0
2, 89482, Note_on_c, 0, 81, 73
2, 89696, Note_on_c, 0, 52, 71
2, 89708, Note_on_c, 0, 53, 0
2, 89911, Note_on_c, 0, 83, 75
2, 89950, Note_on_c, 0, 81, 0
2, 90117, Note_on_c, 0, 50, 71
2, 90118, Note_on_c, 0, 52, 0
2, 90338, Note_on_c, 0, 50, 0
2, 90357, Note_on_c, 0, 48, 66
2, 90563, Control_c, 0, 64, 19
2, 90574, Note_on_c, 0, 83, 0
2, 90580, Note_on_c, 0, 81, 68
2, 90668, Note_on_c, 0, 81, 0
2, 90673, Note_on_c, 0, 83, 80
2, 90749, Note_on_c, 0, 83, 0
2, 90767, Note_on_c, 0, 84, 76
2, 90775, Note_on_c, 0, 52, 54
2, 90837, Note_on_c, 0, 48, 0
2, 90871, Note_on_c, 0, 84, 0
2, 90995, Note_on_c, 0, 76, 74
2, 91220, Note_on_c, 0, 54, 64
2, 91237, Note_on_c, 0, 52, 0
2, 91424, Note_on_c, 0, 75, 75
2, 91462, Note_on_c, 0, 76, 0
2, 91554, Note_on_c, 0, 75, 0
2, 91638, Note_on_c, 0, 83, 78
2, 91644, Note_on_c, 0, 56, 53
2, 91675, Note_on_c, 0, 54, 0
2, 91847, Note_on_c, 0, 83, 0
2, 91856, Note_on_c, 0, 74, 68
2, 92041, Note_on_c, 0, 56, 0
2, 92059, Note_on_c, 0, 57, 62
2, 92109, Note_on_c, 0, 74, 0
2, 92161, Note_on_c, 0, 72, 74
2, 92252, Note_on_c, 0, 74, 74
2, 92267, Note_on_c, 0, 72, 0
2, 92330, Note_on_c, 0, 74, 0
2, 92336, Note_on_c, 0, 76, 75
2, 92439, Note_on_c, 0, 76, 0
2, 92445, Note_on_c, 0, 77, 80
2, 92466, Note_on_c, 0, 45, 52
2, 92467, Note_on_c, 0, 57, 0
2, 92539, Note_on_c, 0, 77, 0
2, 92694, Note_on_c, 0, 69, 73
2, 92908, Note_on_c, 0, 45, 0
2, 92919, Note_on_c, 0, 47, 59
2, 93129, Note_on_c, 0, 69, 0
2, 93133, Note_on_c, 0, 68, 70
2, 93357, Note_on_c, 0, 47, 0
2, 93359, Note_on_c, 0, 68, 0
2, 93360, Note_on_c, 0, 49, 51
2, 93363, Note_on_c, 0, 76, 68
2, 93526, Note_on_c, 0, 76, 0
2, 93564, Note_on_c, 0, 67, 66
2, 93769, Note_on_c, 0, 49, 0
2, 93787, Note_on_c, 0, 50, 61
2, 93842, Note_on_c, 0, 67, 0
2, 93882, Note_on_c, 0, 65, 67
2, 93979, Note_on_c, 0, 67, 75
2, 93991, Note_on_c, 0, 65, 0
2, 94067, Note_on_c, 0, 67, 0
2, 94075, Note_on_c, 0, 69, 76
2, 94189, Note_on_c, 0, 69, 0
2, 94189, Note_on_c, 0, 70, 75
2, 94204, Note_on_c, 0, 38, 48
2, 94241, Note_on_c, 0, 50, 0
2, 94411, Note_on_c, 0, 62, 74
2, 94425, Note_on_c, 0, 70, 0
2, 94634, Note_on_c, 0, 38, 0
2, 94638, Note_on_c, 0, 40, 59
2, 94827, Note_on_c, 0, 62, 0
2, 94839, Note_on_c, 0, 61, 71
2, 95054, Note_on_c, 0, 61, 0
2, 95070, Note_on_c, 0, 69, 67
2, 95079, Note_on_c, 0, 52, 51
2, 95153, Note_on_c, 0, 40, 0
2, 95245, Note_on_c, 0, 69, 0
2, 95300, Note_on_c, 0, 60, 73
2, 95514, Note_on_c, 0, 51, 64
2, 95524, Note_on_c, 0, 52, 0
2, 95683, Note_on_c, 0, 60, 0
2, 95730, Note_on_c, 0, 59, 70
2, 95949, Note_on_c, 0, 50, 44
2, 95949, Note_on_c, 0, 68, 69
2, 95961, Note_on_c, 0, 51, 0
2, 95968, Note_on_c, 0, 59, 0
2, 96153, Note_on_c, 0, 68, 0
2, 96158, Note_on_c, 0, 59, 71
2, 96392, Note_on_c, 0, 49, 52
2, 96406, Note_on_c, 0, 50, 0
2, 96590, Note_on_c, 0, 57, 63
2, 96597, Note_on_c, 0, 59, 0
2, 96757, Note_on_c, 0, 57, 0
2, 96793, Note_on_c, 0, 49, 0
2, 96812, Note_on_c, 0, 65, 64
2, 96818, Note_on_c, 0, 48, 45
2, 96967, Note_on_c, 0, 65, 0
2, 97026, Note_on_c, 0, 57, 64
2, 97264, Note_on_c, 0, 48, 0
2, 97269, Note_on_c, 0, 47, 43
2, 97492, Note_on_c, 0, 57, 0
2, 97508, Note_on_c, 0, 56, 60
2, 97595, Note_on_c, 0, 56, 0
2, 97604, Note_on_c, 0, 54, 62
2, 97657, Note_on_c, 0, 47, 0
2, 97708, Note_on_c, 0, 54, 0
2, 97711, Note_on_c, 0, 47, 37
2, 97726, Note_on_c, 0, 56, 63
2, 97893, Note_on_c, 0, 56, 0
2, 97951, Note_on_c, 0, 62, 70
2, 97979, Control_c, 0, 64, 20
2, 98169, Note_on_c, 0, 45, 58
2, 98196, Note_on_c, 0, 47, 0
2, 98260, Note_on_c, 0, 62, 0
2, 98261, Note_on_c, 0, 60, 73
2, 98354, Note_on_c, 0, 60, 0
2, 98365, Note_on_c, 0, 59, 75
2, 98438, Note_on_c, 0, 59, 0
2, 98455, Note_on_c, 0, 57, 72
2, 98511, Note_on_c, 0, 45, 0
2, 98544, Note_on_c, 0, 57, 0
2, 98561, Note_on_c, 0, 59, 74
2, 98577, Note_on_c, 0, 45, 60
2, 98671, Note_on_c, 0, 59, 0
2, 98780, Note_on_c, 0, 65, 84
2, 98822, Control_c, 0, 64, 19
2, 98853, Control_c, 0, 64, 20
2, 98898, Control_c, 0, 64, 19
2, 98928, Control_c, 0, 64, 20
2, 98977, Note_on_c, 0, 44, 67
2, 98989, Control_c, 0, 64, 19
2, 99000, Note_on_c, 0, 45, 0
2, 99004, Control_c, 0, 64, 20
2, 99081, Control_c, 0, 64, 19
2, 99103, Note_on_c, 0, 64, 76
2, 99112, Control_c, 0, 64, 20
2, 99121, Note_on_c, 0, 65, 0
2, 99188, Note_on_c, 0, 64, 0
2, 99192, Note_on_c, 0, 62, 78
2, 99280, Note_on_c, 0, 62, 0
2, 99286, Note_on_c, 0, 61, 76
2, 99325, Note_on_c, 0, 44, 0
2, 99353, Note_on_c, 0, 61, 0
2, 99386, Note_on_c, 0, 62, 78
2, 99395, Note_on_c, 0, 44, 67
2, 99506, Note_on_c, 0, 62, 0
2, 99604, Note_on_c, 0, 71, 86
2, 99821, Note_on_c, 0, 40, 65
2, 99901, Note_on_c, 0, 44, 0
2, 99931, Note_on_c, 0, 69, 79
2, 99935, Note_on_c, 0, 71, 0
2, 100027, Note_on_c, 0, 69, 0
2, 100031, Note_on_c, 0, 68, 85
2, 100111, Note_on_c, 0, 68, 0
2, 100126, Note_on_c, 0, 66, 78
2, 100154, Note_on_c, 0, 40, 0
2, 100230, Note_on_c, 0, 66, 0
2, 100236, Note_on_c, 0, 68, 80
2, 100244, Note_on_c, 0, 40, 60
2, 100434, Note_on_c, 0, 68, 0
2, 100488, Note_on_c, 0, 74, 83
2, 100737, Note_on_c, 0, 40, 0
2, 100739, Note_on_c, 0, 45, 63
2, 101017, Note_on_c, 0, 72, 71
2, 101020, Note_on_c, 0, 74, 0
2, 101104, Note_on_c, 0, 71, 75
2, 101114, Control_c, 0, 64, 21
2, 101120, Note_on_c, 0, 72, 0
2, 101188, Note_on_c, 0, 71, 0
2, 101205, Note_on_c, 0, 72, 82
2, 101309, Note_on_c, 0, 50, 73
2, 101310, Note_on_c, 0, 45, 0
2, 101386, Note_on_c, 0, 72, 0
2, 101391, Note_on_c, 0, 52, 69
2, 101404, Note_on_c, 0, 69, 73
2, 101416, Note_on_c, 0, 50, 0
2, 101490, Note_on_c, 0, 54, 80
2, 101495, Note_on_c, 0, 52, 0
2, 101582, Note_on_c, 0, 54, 0
2, 101591, Note_on_c, 0, 55, 72
2, 101613, Note_on_c, 0, 69, 0
2, 101618, Note_on_c, 0, 70, 75
2, 101829, Note_on_c, 0, 51, 76
2, 101847, Note_on_c, 0, 55, 0
2, 102059, Note_on_c, 0, 51, 0
2, 102061, Note_on_c, 0, 50, 62
2, 102061, Note_on_c, 0, 71, 73
2, 102086, Note_on_c, 0, 70, 0
2, 102274, Note_on_c, 0, 50, 0
2, 102276, Note_on_c, 0, 56, 73
2, 102482, Note_on_c, 0, 57, 71
2, 102494, Note_on_c, 0, 56, 0
2, 102503, Note_on_c, 0, 72, 72
2, 102521, Note_on_c, 0, 71, 0
2, 102706, Note_on_c, 0, 53, 78
2, 102709, Note_on_c, 0, 57, 0
2, 102917, Note_on_c, 0, 72, 0
2, 102922, Note_on_c, 0, 73, 78
2, 102925, Note_on_c, 0, 53, 0
2, 102927, Note_on_c, 0, 52, 72
2, 103120, Note_on_c, 0, 52, 0
2, 103132, Note_on_c, 0, 58, 83
2, 103337, Note_on_c, 0, 73, 0
2, 103357, Note_on_c, 0, 74, 78
2, 103572, Note_on_c, 0, 57, 76
2, 103577, Note_on_c, 0, 58, 0
2, 103794, Note_on_c, 0, 76, 77
2, 103817, Note_on_c, 0, 74, 0
2, 104022, Note_on_c, 0, 55, 71
2, 104039, Note_on_c, 0, 57, 0
2, 104253, Note_on_c, 0, 53, 68
2, 104253, Note_on_c, 0, 55, 0
2, 104395, Note_on_c, 0, 52, 62
2, 104397, Note_on_c, 0, 76, 0
2, 104400, Note_on_c, 0, 73, 70
2, 104401, Note_on_c, 0, 53, 0
2, 104495, Note_on_c, 0, 73, 0
2, 104507, Note_on_c, 0, 52, 0
2, 104507, Note_on_c, 0, 74, 77
2, 104509, Note_on_c, 0, 53, 65
2, 104586, Note_on_c, 0, 53, 0
2, 104592, Note_on_c, 0, 55, 69
2, 104594, Note_on_c, 0, 76, 80
2, 104608, Note_on_c, 0, 74, 0
2, 104693, Note_on_c, 0, 55, 0
2, 104694, Note_on_c, 0, 76, 0
2, 104702, Note_on_c, 0, 77, 81
2, 104711, Note_on_c, 0, 57, 68
2, 104931, Note_on_c, 0, 72, 86
2, 104941, Note_on_c, 0, 77, 0
2, 105143, Note_on_c, 0, 56, 64
2, 105145, Note_on_c, 0, 57, 0
2, 105145, Note_on_c, 0, 71, 81
2, 105145, Note_on_c, 0, 72, 0
2, 105352, Note_on_c, 0, 75, 85
2, 105378, Note_on_c, 0, 71, 0
2, 105575, Note_on_c, 0, 75, 0
2, 105575, Note_on_c, 0, 76, 77
2, 105585, Note_on_c, 0, 55, 59
2, 105609, Note_on_c, 0, 56, 0
2, 105793, Note_on_c, 0, 70, 76
2, 105795, Note_on_c, 0, 76, 0
2, 106006, Note_on_c, 0, 55, 0
2, 106011, Note_on_c, 0, 70, 0
2, 106019, Note_on_c, 0, 54, 58
2, 106022, Note_on_c, 0, 69, 75
2, 106235, Note_on_c, 0, 73, 71
2, 106246, Note_on_c, 0, 69, 0
2, 106445, Note_on_c, 0, 54, 0
2, 106454, Note_on_c, 0, 73, 0
2, 106457, Note_on_c, 0, 74, 65
2, 106474, Note_on_c, 0, 53, 52
2, 106678, Note_on_c, 0, 68, 75
2, 106683, Note_on_c, 0, 74, 0
2, 106901, Note_on_c, 0, 52, 63
2, 106907, Note_on_c, 0, 53, 0
2, 107120, Note_on_c, 0, 69, 73
2, 107170, Note_on_c, 0, 68, 0
2, 107339, Note_on_c, 0, 50, 68
2, 107354, Note_on_c, 0, 52, 0
2, 107551, Note_on_c, 0, 71, 73
2, 107564, Control_c, 0, 64, 22
2, 107568, Note_on_c, 0, 69, 0
2, 107736, Note_on_c, 0, 71, 0
2, 107765, Note_on_c, 0, 64, 70
2, 108014, Note_on_c, 0, 64, 0
2, 108019, Note_on_c, 0, 50, 0
2, 108031, Note_on_c, 0, 48, 54
2, 108031, Note_on_c, 0, 76, 73
2, 108150, Note_on_c, 0, 47, 64
2, 108154, Note_on_c, 0, 48, 0
2, 108267, Note_on_c, 0, 47, 0
2, 108275, Note_on_c, 0, 48, 64
2, 108379, Note_on_c, 0, 76, 0
2, 108384, Note_on_c, 0, 74, 71
2, 108526, Note_on_c, 0, 48, 0
2, 108528, Note_on_c, 0, 45, 56
2, 108533, Note_on_c, 0, 74, 0
2, 108541, Note_on_c, 0, 72, 74
2, 108670, Note_on_c, 0, 72, 0
2, 108697, Note_on_c, 0, 71, 72
2, 108850, Note_on_c, 0, 45, 0
2, 108854, Note_on_c, 0, 52, 48
2, 108869, Note_on_c, 0, 71, 0
2, 108872, Note_on_c, 0, 74, 71
2, 109057, Note_on_c, 0, 74, 0
2, 109069, Note_on_c, 0, 72, 72
2, 109198, Note_on_c, 0, 72, 0
2, 109199, Note_on_c, 0, 71, 75
2, 109279, Note_on_c, 0, 71, 0
2, 109314, Note_on_c, 0, 69, 77
2, 109445, Note_on_c, 0, 69, 0
2, 109446, Note_on_c, 0, 52, 0
2, 109446, Note_on_c, 0, 72, 74
2, 109450, Note_on_c, 0, 40, 49
2, 109570, Note_on_c, 0, 72, 0
2, 109573, Note_on_c, 0, 71, 73
2, 109703, Note_on_c, 0, 71, 0
2, 109709, Note_on_c, 0, 69, 77
2, 109840, Note_on_c, 0, 69, 0
2, 109863, Note_on_c, 0, 68, 70
2, 110016, Note_on_c, 0, 68, 0
2, 110046, Note_on_c, 0, 69, 66
2, 110052, Note_on_c, 0, 45, 47
2, 110076, Note_on_c, 0, 40, 0
2, 110114, Note_on_c, 0, 69, 0
2, 110127, Note_on_c, 0, 68, 70
2, 110198, Note_on_c, 0, 68, 0
2, 110214, Note_on_c, 0, 69, 69
2, 110401, Note_on_c, 0, 47, 68
2, 110443, Note_on_c, 0, 45, 0
2, 110530, Note_on_c, 0, 48, 74
2, 110534, Note_on_c, 0, 47, 0
2, 110649, Note_on_c, 0, 48, 0
2, 110655, Note_on_c, 0, 50, 72
2, 110772, Note_on_c, 0, 50, 0
2, 110789, Note_on_c, 0, 52, 72
2, 110935, Note_on_c, 0, 54, 70
2, 110939, Note_on_c, 0, 52, 0
2, 111119, Note_on_c, 0, 54, 0
2, 111119, Note_on_c, 0, 56, 65
2, 111290, Note_on_c, 0, 56, 0
2, 111325, Note_on_c, 0, 57, 58
2, 111391, Note_on_c, 0, 57, 0
2, 111394, Note_on_c, 0, 56, 63
2, 111405, Control_c, 0, 64, 21
2, 111450, Note_on_c, 0, 56, 0
2, 111473, Note_on_c, 0, 57, 58
2, 111807, Control_c, 0, 64, 20
2, 111838, Control_c, 0, 64, 19
2, 111868, Control_c, 0, 64, 18
2, 111913, Control_c, 0, 64, 17
2, 112406, Note_on_c, 0, 45, 45
2, 112443, Note_on_c, 0, 57, 0
2, 114427, Note_on_c, 0, 45, 0
2, 114440, Note_on_c, 0, 69, 0
2, 115519,End_track
0, 0, End_of_file
