0, 0, Header, 1, 2, 384
1, 0, Start_track
1, 0, Tempo, 500000
1, 0, Time_signature, 4, 2, 24, 8
1, 1, End_track
2,0,Start_track
2,0, Note_on_c, 0, 64, 99
2,132, Control_c, 0, 64, 53
2,148, Control_c, 0, 64, 64
2,163, Control_c, 0, 64, 73
2,178, Control_c, 0, 64, 109
2,194, Control_c, 0, 64, 127
2,256, Note_on_c, 0, 64, 0
2,391, Control_c, 0, 64, 103
2,406, Control_c, 0, 64, 81
2,421, Control_c, 0, 64, 69
2,437, Control_c, 0, 64, 58
2,452, Control_c, 0, 64, 0
2,563, Note_on_c, 0, 60, 96
2,861, Note_on_c, 0, 60, 0
2,1110, Note_on_c, 0, 65, 96
2,1502, Note_on_c, 0, 65, 0
2,1672, Note_on_c, 0, 56, 94
2,2119, Note_on_c, 0, 56, 0
2,2887, Note_on_c, 0, 62, 85
2,2916, Note_on_c, 0, 62, 0
2,3167, Note_on_c, 0, 59, 81
2,3193, Note_on_c, 0, 59, 0
2,3449, Note_on_c, 0, 64, 86
2,3477, Note_on_c, 0, 64, 0
2,3725, Note_on_c, 0, 60, 85
2,3759, Note_on_c, 0, 60, 0
2,4005, Note_on_c, 0, 57, 83
2,4035, Note_on_c, 0, 57, 0
2,4261, Note_on_c, 0, 69, 96
2,4267, Note_on_c, 0, 54, 80
2,4290, Note_on_c, 0, 54, 0
2,4538, Note_on_c, 0, 63, 75
2,4565, Note_on_c, 0, 63, 0
2,4644, Note_on_c, 0, 69, 0
2,4794, Note_on_c, 0, 67, 95
2,4797, Note_on_c, 0, 52, 73
2,4821, Note_on_c, 0, 52, 0
2,5056, Note_on_c, 0, 64, 79
2,5102, Note_on_c, 0, 64, 0
2,5131, Note_on_c, 0, 62, 61
2,5196, Note_on_c, 0, 60, 71
2,5202, Note_on_c, 0, 62, 0
2,5215, Note_on_c, 0, 67, 0
2,5248, Note_on_c, 0, 59, 63
2,5250, Note_on_c, 0, 60, 0
2,5322, Note_on_c, 0, 57, 85
2,5324, Note_on_c, 0, 59, 0
2,5327, Note_on_c, 0, 72, 100
2,5350, Note_on_c, 0, 57, 0
2,5598, Note_on_c, 0, 60, 80
2,5647, Note_on_c, 0, 72, 0
2,5655, Note_on_c, 0, 59, 74
2,5665, Note_on_c, 0, 60, 0
2,5692, Note_on_c, 0, 59, 0
2,5723, Note_on_c, 0, 57, 74
2,5778, Note_on_c, 0, 57, 0
2,5794, Note_on_c, 0, 55, 72
2,5843, Note_on_c, 0, 54, 76
2,5845, Note_on_c, 0, 63, 92
2,5849, Note_on_c, 0, 55, 0
2,5910, Note_on_c, 0, 54, 0
2,5911, Note_on_c, 0, 55, 68
2,5976, Note_on_c, 0, 55, 0
2,5993, Note_on_c, 0, 57, 72
2,6178, Note_on_c, 0, 57, 0
2,6197, Note_on_c, 0, 55, 66
2,6241, Note_on_c, 0, 55, 0
2,6249, Note_on_c, 0, 54, 73
2,6291, Note_on_c, 0, 54, 0
2,6323, Note_on_c, 0, 52, 69
2,6365, Note_on_c, 0, 52, 0
2,6377, Note_on_c, 0, 51, 74
2,6415, Note_on_c, 0, 51, 0
2,6445, Note_on_c, 0, 52, 73
2,6490, Note_on_c, 0, 52, 0
2,6496, Note_on_c, 0, 54, 84
2,6584, Note_on_c, 0, 63, 0
2,6696, Note_on_c, 0, 54, 0
2,6729, Note_on_c, 0, 52, 65
2,6768, Note_on_c, 0, 52, 0
2,6784, Note_on_c, 0, 51, 70
2,6853, Note_on_c, 0, 49, 61
2,6865, Note_on_c, 0, 51, 0
2,6913, Note_on_c, 0, 47, 74
2,6916, Note_on_c, 0, 49, 0
2,7149, Note_on_c, 0, 69, 93
2,7182, Note_on_c, 0, 69, 0
2,7267, Note_on_c, 0, 47, 0
2,7277, Note_on_c, 0, 49, 60
2,7328, Note_on_c, 0, 49, 0
2,7351, Note_on_c, 0, 51, 62
2,7407, Note_on_c, 0, 51, 0
2,7423, Note_on_c, 0, 52, 69
2,7429, Note_on_c, 0, 66, 91
2,7466, Note_on_c, 0, 66, 0
2,7475, Note_on_c, 0, 52, 0
2,7487, Note_on_c, 0, 51, 63
2,7534, Note_on_c, 0, 51, 0
2,7549, Note_on_c, 0, 52, 61
2,7607, Note_on_c, 0, 52, 0
2,7621, Note_on_c, 0, 51, 66
2,7674, Note_on_c, 0, 51, 0
2,7701, Note_on_c, 0, 52, 65
2,7702, Note_on_c, 0, 71, 89
2,7738, Note_on_c, 0, 71, 0
2,7742, Note_on_c, 0, 52, 0
2,7757, Note_on_c, 0, 51, 56
2,7803, Note_on_c, 0, 51, 0
2,7820, Note_on_c, 0, 49, 57
2,7849, Note_on_c, 0, 49, 0
2,7882, Note_on_c, 0, 51, 66
2,7939, Note_on_c, 0, 51, 0
2,7960, Note_on_c, 0, 52, 67
2,7970, Note_on_c, 0, 67, 98
2,8010, Note_on_c, 0, 67, 0
2,8114, Note_on_c, 0, 52, 0
2,8235, Note_on_c, 0, 64, 91
2,8267, Note_on_c, 0, 64, 0
2,8333, Note_on_c, 0, 52, 53
2,8366, Note_on_c, 0, 52, 0
2,8378, Note_on_c, 0, 53, 60
2,8409, Note_on_c, 0, 53, 0
2,8432, Note_on_c, 0, 55, 49
2,8478, Note_on_c, 0, 55, 0
2,8484, Note_on_c, 0, 57, 75
2,8495, Note_on_c, 0, 61, 86
2,8516, Note_on_c, 0, 57, 0
2,8525, Note_on_c, 0, 61, 0
2,8756, Note_on_c, 0, 69, 80
2,8786, Note_on_c, 0, 69, 0
2,8829, Note_on_c, 0, 55, 50
2,8866, Note_on_c, 0, 55, 0
2,8885, Note_on_c, 0, 53, 53
2,8925, Note_on_c, 0, 53, 0
2,8936, Note_on_c, 0, 52, 52
2,9025, Note_on_c, 0, 65, 93
2,9031, Note_on_c, 0, 50, 56
2,9062, Note_on_c, 0, 52, 0
2,9070, Note_on_c, 0, 65, 0
2,9150, Note_on_c, 0, 50, 0
2,9288, Note_on_c, 0, 62, 80
2,9321, Note_on_c, 0, 62, 0
2,9374, Note_on_c, 0, 50, 56
2,9416, Note_on_c, 0, 50, 0
2,9433, Note_on_c, 0, 52, 43
2,9472, Note_on_c, 0, 52, 0
2,9488, Note_on_c, 0, 53, 46
2,9532, Note_on_c, 0, 59, 75
2,9545, Note_on_c, 0, 53, 0
2,9548, Note_on_c, 0, 55, 62
2,9566, Note_on_c, 0, 59, 0
2,9575, Note_on_c, 0, 55, 0
2,9802, Note_on_c, 0, 67, 76
2,9834, Note_on_c, 0, 67, 0
2,9890, Note_on_c, 0, 53, 49
2,9925, Note_on_c, 0, 53, 0
2,9939, Note_on_c, 0, 52, 53
2,9992, Note_on_c, 0, 52, 0
2,10012, Note_on_c, 0, 50, 48
2,10068, Note_on_c, 0, 64, 80
2,10074, Note_on_c, 0, 50, 0
2,10075, Note_on_c, 0, 48, 55
2,10101, Note_on_c, 0, 64, 0
2,10131, Control_c, 0, 64, 34
2,10147, Control_c, 0, 64, 46
2,10162, Control_c, 0, 64, 47
2,10177, Control_c, 0, 64, 48
2,10342, Note_on_c, 0, 69, 83
2,10486, Note_on_c, 0, 50, 67
2,10499, Note_on_c, 0, 48, 0
2,10522, Note_on_c, 0, 50, 0
2,10596, Control_c, 0, 64, 47
2,10611, Control_c, 0, 64, 46
2,10618, Note_on_c, 0, 76, 96
2,10626, Control_c, 0, 64, 45
2,10636, Note_on_c, 0, 52, 74
2,10641, Control_c, 0, 64, 44
2,10650, Note_on_c, 0, 69, 0
2,10656, Control_c, 0, 64, 42
2,10672, Control_c, 0, 64, 41
2,10687, Control_c, 0, 64, 41
2,10719, Control_c, 0, 64, 40
2,10750, Control_c, 0, 64, 40
2,10752, Note_on_c, 0, 52, 0
2,10772, Note_on_c, 0, 53, 56
2,10810, Control_c, 0, 64, 39
2,10815, Note_on_c, 0, 53, 0
2,10822, Note_on_c, 0, 52, 57
2,10840, Control_c, 0, 64, 39
2,10855, Control_c, 0, 64, 38
2,10871, Control_c, 0, 64, 34
2,10886, Control_c, 0, 64, 25
2,10893, Note_on_c, 0, 68, 82
2,10902, Control_c, 0, 64, 0
2,10902, Note_on_c, 0, 50, 78
2,10911, Note_on_c, 0, 52, 0
2,10920, Note_on_c, 0, 68, 0
2,10925, Note_on_c, 0, 50, 0
2,11038, Note_on_c, 0, 52, 77
2,11062, Note_on_c, 0, 52, 0
2,11074, Note_on_c, 0, 76, 0
2,11163, Note_on_c, 0, 72, 106
2,11182, Note_on_c, 0, 53, 68
2,11184, Note_on_c, 0, 57, 71
2,11202, Note_on_c, 0, 53, 0
2,11212, Note_on_c, 0, 57, 0
2,11222, Control_c, 0, 64, 53
2,11237, Control_c, 0, 64, 62
2,11252, Control_c, 0, 64, 71
2,11274, Control_c, 0, 64, 93
2,11289, Control_c, 0, 64, 127
2,11427, Control_c, 0, 64, 92
2,11442, Control_c, 0, 64, 70
2,11449, Note_on_c, 0, 69, 84
2,11458, Control_c, 0, 64, 43
2,11472, Control_c, 0, 64, 0
2,11485, Note_on_c, 0, 69, 0
2,11522, Note_on_c, 0, 67, 71
2,11588, Note_on_c, 0, 72, 0
2,11590, Note_on_c, 0, 65, 70
2,11595, Note_on_c, 0, 67, 0
2,11650, Note_on_c, 0, 64, 66
2,11663, Note_on_c, 0, 65, 0
2,11714, Note_on_c, 0, 77, 100
2,11720, Note_on_c, 0, 62, 84
2,11727, Note_on_c, 0, 64, 0
2,11742, Note_on_c, 0, 62, 0
2,11745, Control_c, 0, 64, 13
2,11760, Control_c, 0, 64, 16
2,11775, Control_c, 0, 64, 27
2,11791, Control_c, 0, 64, 32
2,11806, Control_c, 0, 64, 34
2,11822, Control_c, 0, 64, 35
2,11898, Control_c, 0, 64, 36
2,11913, Control_c, 0, 64, 36
2,11989, Control_c, 0, 64, 33
2,11994, Note_on_c, 0, 65, 82
2,12003, Control_c, 0, 64, 13
2,12019, Control_c, 0, 64, 0
2,12019, Note_on_c, 0, 77, 0
2,12060, Note_on_c, 0, 65, 0
2,12066, Note_on_c, 0, 64, 80
2,12142, Note_on_c, 0, 62, 70
2,12142, Note_on_c, 0, 64, 0
2,12169, Note_on_c, 0, 62, 0
2,12200, Note_on_c, 0, 60, 72
2,12245, Note_on_c, 0, 68, 94
2,12253, Note_on_c, 0, 60, 0
2,12260, Note_on_c, 0, 59, 83
2,12314, Note_on_c, 0, 59, 0
2,12317, Control_c, 0, 64, 44
2,12332, Control_c, 0, 64, 44
2,12335, Note_on_c, 0, 60, 72
2,12348, Control_c, 0, 64, 48
2,12363, Control_c, 0, 64, 50
2,12378, Control_c, 0, 64, 51
2,12389, Note_on_c, 0, 60, 0
2,12393, Control_c, 0, 64, 52
2,12405, Note_on_c, 0, 62, 74
2,12408, Control_c, 0, 64, 52
2,12424, Control_c, 0, 64, 53
2,12439, Control_c, 0, 64, 53
2,12503, Note_on_c, 0, 62, 0
2,12522, Note_on_c, 0, 53, 85
2,12546, Note_on_c, 0, 68, 0
2,12560, Control_c, 0, 64, 53
2,12575, Control_c, 0, 64, 49
2,12591, Control_c, 0, 64, 43
2,12594, Note_on_c, 0, 60, 82
2,12603, Note_on_c, 0, 53, 0
2,12605, Control_c, 0, 64, 32
2,12621, Control_c, 0, 64, 0
2,12647, Note_on_c, 0, 60, 0
2,12656, Note_on_c, 0, 59, 54
2,12714, Note_on_c, 0, 59, 0
2,12732, Note_on_c, 0, 57, 58
2,12778, Note_on_c, 0, 57, 0
2,12795, Note_on_c, 0, 56, 72
2,12796, Note_on_c, 0, 47, 93
2,12828, Note_on_c, 0, 47, 0
2,12854, Note_on_c, 0, 56, 0
2,12885, Note_on_c, 0, 57, 65
2,12950, Note_on_c, 0, 57, 0
2,12971, Note_on_c, 0, 59, 72
2,13090, Note_on_c, 0, 50, 90
2,13126, Note_on_c, 0, 50, 0
2,13162, Note_on_c, 0, 59, 0
2,13175, Note_on_c, 0, 57, 63
2,13238, Note_on_c, 0, 56, 63
2,13254, Note_on_c, 0, 57, 0
2,13302, Note_on_c, 0, 56, 0
2,13305, Note_on_c, 0, 54, 62
2,13365, Note_on_c, 0, 54, 0
2,13369, Note_on_c, 0, 44, 85
2,13382, Note_on_c, 0, 52, 66
2,13397, Note_on_c, 0, 44, 0
2,13405, Control_c, 0, 64, 63
2,13421, Control_c, 0, 64, 69
2,13436, Control_c, 0, 64, 78
2,13450, Control_c, 0, 64, 85
2,13466, Control_c, 0, 64, 89
2,13481, Control_c, 0, 64, 89
2,13652, Note_on_c, 0, 52, 0
2,13653, Note_on_c, 0, 47, 74
2,13660, Note_on_c, 0, 74, 95
2,13678, Note_on_c, 0, 47, 0
2,13696, Note_on_c, 0, 74, 0
2,13761, Control_c, 0, 64, 89
2,13792, Control_c, 0, 64, 88
2,13806, Control_c, 0, 64, 86
2,13812, Note_on_c, 0, 54, 71
2,13821, Control_c, 0, 64, 79
2,13837, Control_c, 0, 64, 67
2,13852, Control_c, 0, 64, 44
2,13868, Control_c, 0, 64, 0
2,13880, Note_on_c, 0, 54, 0
2,13883, Note_on_c, 0, 56, 70
2,13931, Note_on_c, 0, 71, 97
2,13945, Note_on_c, 0, 57, 80
2,13947, Note_on_c, 0, 52, 67
2,13947, Note_on_c, 0, 56, 0
2,13965, Note_on_c, 0, 71, 0
2,14013, Note_on_c, 0, 57, 0
2,14017, Note_on_c, 0, 56, 69
2,14079, Note_on_c, 0, 56, 0
2,14084, Note_on_c, 0, 57, 71
2,14134, Note_on_c, 0, 57, 0
2,14149, Note_on_c, 0, 56, 60
2,14206, Note_on_c, 0, 76, 92
2,14210, Note_on_c, 0, 56, 0
2,14223, Note_on_c, 0, 57, 78
2,14242, Note_on_c, 0, 76, 0
2,14253, Note_on_c, 0, 52, 0
2,14278, Note_on_c, 0, 57, 0
2,14284, Note_on_c, 0, 56, 69
2,14354, Note_on_c, 0, 56, 0
2,14370, Note_on_c, 0, 54, 62
2,14409, Note_on_c, 0, 54, 0
2,14417, Note_on_c, 0, 56, 65
2,14469, Note_on_c, 0, 56, 0
2,14498, Note_on_c, 0, 72, 96
2,14513, Note_on_c, 0, 57, 78
2,14514, Control_c, 0, 64, 45
2,14516, Note_on_c, 0, 45, 77
2,14528, Control_c, 0, 64, 64
2,14543, Control_c, 0, 64, 80
2,14543, Note_on_c, 0, 57, 0
2,14550, Note_on_c, 0, 45, 0
2,14559, Control_c, 0, 64, 127
2,14596, Note_on_c, 0, 72, 0
2,14787, Control_c, 0, 64, 69
2,14797, Note_on_c, 0, 69, 96
2,14802, Control_c, 0, 64, 0
2,14834, Note_on_c, 0, 69, 0
2,14892, Note_on_c, 0, 57, 67
2,14957, Note_on_c, 0, 57, 0
2,14959, Note_on_c, 0, 59, 70
2,15006, Note_on_c, 0, 59, 0
2,15015, Note_on_c, 0, 60, 64
2,15051, Note_on_c, 0, 66, 93
2,15054, Note_on_c, 0, 60, 0
2,15054, Note_on_c, 0, 62, 84
2,15093, Note_on_c, 0, 66, 0
2,15096, Note_on_c, 0, 62, 0
2,15329, Note_on_c, 0, 74, 81
2,15332, Note_on_c, 0, 54, 64
2,15357, Note_on_c, 0, 74, 0
2,15402, Note_on_c, 0, 54, 0
2,15406, Note_on_c, 0, 60, 63
2,15451, Note_on_c, 0, 60, 0
2,15467, Note_on_c, 0, 59, 55
2,15512, Note_on_c, 0, 59, 0
2,15537, Note_on_c, 0, 57, 55
2,15603, Note_on_c, 0, 71, 87
2,15616, Note_on_c, 0, 55, 55
2,15638, Note_on_c, 0, 57, 0
2,15647, Note_on_c, 0, 71, 0
2,15721, Control_c, 0, 64, 12
2,15721, Note_on_c, 0, 55, 0
2,15735, Control_c, 0, 64, 13
2,15812, Control_c, 0, 64, 8
2,15827, Control_c, 0, 64, 0
2,15872, Note_on_c, 0, 67, 73
2,15907, Note_on_c, 0, 67, 0
2,15966, Note_on_c, 0, 55, 56
2,16022, Note_on_c, 0, 55, 0
2,16032, Note_on_c, 0, 57, 46
2,16084, Note_on_c, 0, 57, 0
2,16102, Note_on_c, 0, 59, 45
2,16134, Note_on_c, 0, 64, 77
2,16140, Note_on_c, 0, 59, 0
2,16157, Note_on_c, 0, 60, 61
2,16167, Note_on_c, 0, 64, 0
2,16186, Control_c, 0, 64, 10
2,16198, Note_on_c, 0, 60, 0
2,16201, Control_c, 0, 64, 19
2,16215, Control_c, 0, 64, 24
2,16231, Control_c, 0, 64, 28
2,16246, Control_c, 0, 64, 32
2,16261, Control_c, 0, 64, 36
2,16277, Control_c, 0, 64, 38
2,16292, Control_c, 0, 64, 39
2,16308, Control_c, 0, 64, 40
2,16323, Control_c, 0, 64, 40
2,16353, Control_c, 0, 64, 41
2,16368, Control_c, 0, 64, 43
2,16382, Control_c, 0, 64, 45
2,16400, Control_c, 0, 64, 47
2,16409, Note_on_c, 0, 72, 66
2,16414, Note_on_c, 0, 52, 45
2,16415, Control_c, 0, 64, 50
2,16431, Control_c, 0, 64, 52
2,16444, Note_on_c, 0, 72, 0
2,16446, Control_c, 0, 64, 54
2,16460, Note_on_c, 0, 52, 0
2,16461, Control_c, 0, 64, 55
2,16476, Control_c, 0, 64, 57
2,16488, Note_on_c, 0, 58, 44
2,16491, Control_c, 0, 64, 58
2,16507, Control_c, 0, 64, 59
2,16522, Control_c, 0, 64, 60
2,16535, Note_on_c, 0, 58, 0
2,16536, Control_c, 0, 64, 61
2,16551, Note_on_c, 0, 57, 46
2,16610, Note_on_c, 0, 57, 0
2,16622, Note_on_c, 0, 55, 50
2,16696, Control_c, 0, 64, 59
2,16707, Note_on_c, 0, 69, 73
2,16712, Control_c, 0, 64, 58
2,16727, Control_c, 0, 64, 57
2,16733, Note_on_c, 0, 53, 43
2,16734, Note_on_c, 0, 55, 0
2,16743, Control_c, 0, 64, 56
2,16757, Control_c, 0, 64, 55
2,16772, Control_c, 0, 64, 55
2,16788, Control_c, 0, 64, 54
2,16802, Control_c, 0, 64, 53
2,16833, Control_c, 0, 64, 52
2,16868, Note_on_c, 0, 65, 56
2,16878, Control_c, 0, 64, 52
2,16893, Control_c, 0, 64, 51
2,16909, Control_c, 0, 64, 50
2,16924, Control_c, 0, 64, 45
2,16940, Control_c, 0, 64, 40
2,16956, Control_c, 0, 64, 36
2,16970, Control_c, 0, 64, 35
2,16989, Note_on_c, 0, 71, 86
2,16993, Note_on_c, 0, 55, 57
2,17029, Note_on_c, 0, 69, 0
2,17031, Control_c, 0, 64, 34
2,17046, Control_c, 0, 64, 33
2,17049, Note_on_c, 0, 65, 0
2,17062, Control_c, 0, 64, 32
2,17071, Note_on_c, 0, 53, 0
2,17092, Control_c, 0, 64, 30
2,17108, Control_c, 0, 64, 21
2,17123, Control_c, 0, 64, 0
2,17168, Note_on_c, 0, 65, 70
2,17295, Note_on_c, 0, 72, 74
2,17296, Note_on_c, 0, 57, 54
2,17315, Note_on_c, 0, 71, 0
2,17336, Note_on_c, 0, 65, 0
2,17354, Note_on_c, 0, 55, 0
2,17385, Note_on_c, 0, 64, 51
2,17435, Note_on_c, 0, 64, 0
2,17461, Note_on_c, 0, 65, 63
2,17498, Note_on_c, 0, 65, 0
2,17522, Note_on_c, 0, 67, 64
2,17574, Note_on_c, 0, 67, 0
2,17590, Note_on_c, 0, 69, 68
2,17596, Note_on_c, 0, 55, 51
2,17618, Control_c, 0, 64, 43
2,17618, Note_on_c, 0, 57, 0
2,17633, Control_c, 0, 64, 60
2,17648, Control_c, 0, 64, 64
2,17663, Control_c, 0, 64, 68
2,17666, Note_on_c, 0, 67, 72
2,17678, Control_c, 0, 64, 77
2,17679, Note_on_c, 0, 69, 0
2,17694, Control_c, 0, 64, 108
2,17709, Control_c, 0, 64, 127
2,17718, Note_on_c, 0, 67, 0
2,17741, Note_on_c, 0, 65, 61
2,17782, Note_on_c, 0, 64, 76
2,17786, Note_on_c, 0, 65, 0
2,17811, Note_on_c, 0, 64, 0
2,17834, Note_on_c, 0, 72, 0
2,17862, Note_on_c, 0, 62, 64
2,17868, Note_on_c, 0, 53, 59
2,17923, Note_on_c, 0, 55, 0
2,17942, Note_on_c, 0, 72, 79
2,17953, Control_c, 0, 64, 87
2,17968, Control_c, 0, 64, 71
2,17984, Control_c, 0, 64, 61
2,17999, Control_c, 0, 64, 35
2,18008, Note_on_c, 0, 72, 0
2,18015, Control_c, 0, 64, 0
2,18018, Note_on_c, 0, 74, 80
2,18084, Note_on_c, 0, 76, 80
2,18088, Note_on_c, 0, 74, 0
2,18148, Note_on_c, 0, 77, 88
2,18155, Note_on_c, 0, 53, 0
2,18155, Note_on_c, 0, 76, 0
2,18159, Note_on_c, 0, 50, 66
2,18204, Control_c, 0, 64, 47
2,18220, Control_c, 0, 64, 62
2,18234, Control_c, 0, 64, 70
2,18235, Note_on_c, 0, 76, 88
2,18244, Note_on_c, 0, 77, 0
2,18249, Control_c, 0, 64, 94
2,18265, Control_c, 0, 64, 127
2,18296, Note_on_c, 0, 76, 0
2,18302, Note_on_c, 0, 74, 86
2,18345, Note_on_c, 0, 74, 0
2,18357, Note_on_c, 0, 72, 81
2,18382, Note_on_c, 0, 72, 0
2,18436, Note_on_c, 0, 55, 74
2,18439, Note_on_c, 0, 62, 0
2,18440, Note_on_c, 0, 71, 93
2,18446, Control_c, 0, 64, 93
2,18462, Control_c, 0, 64, 69
2,18477, Control_c, 0, 64, 16
2,18477, Note_on_c, 0, 50, 0
2,18492, Control_c, 0, 64, 0
2,18516, Note_on_c, 0, 62, 72
2,18585, Note_on_c, 0, 62, 0
2,18597, Note_on_c, 0, 64, 74
2,18654, Note_on_c, 0, 65, 81
2,18661, Note_on_c, 0, 64, 0
2,18726, Note_on_c, 0, 67, 78
2,18729, Note_on_c, 0, 65, 0
2,18745, Note_on_c, 0, 53, 71
2,18764, Note_on_c, 0, 55, 0
2,18806, Note_on_c, 0, 65, 76
2,18841, Note_on_c, 0, 67, 0
2,18868, Note_on_c, 0, 64, 92
2,18870, Note_on_c, 0, 65, 0
2,18901, Note_on_c, 0, 71, 0
2,18934, Note_on_c, 0, 64, 0
2,18940, Note_on_c, 0, 62, 76
2,18971, Note_on_c, 0, 53, 0
2,18971, Note_on_c, 0, 62, 0
2,19015, Note_on_c, 0, 60, 96
2,19016, Note_on_c, 0, 52, 87
2,19066, Note_on_c, 0, 60, 0
2,19288, Note_on_c, 0, 55, 74
2,19308, Note_on_c, 0, 84, 79
2,19319, Note_on_c, 0, 55, 0
2,19380, Note_on_c, 0, 83, 81
2,19402, Note_on_c, 0, 84, 0
2,19444, Note_on_c, 0, 81, 82
2,19469, Note_on_c, 0, 52, 0
2,19470, Note_on_c, 0, 83, 0
2,19519, Note_on_c, 0, 79, 79
2,19522, Note_on_c, 0, 81, 0
2,19578, Note_on_c, 0, 79, 0
2,19582, Note_on_c, 0, 57, 91
2,19585, Note_on_c, 0, 77, 85
2,19590, Note_on_c, 0, 60, 86
2,19612, Note_on_c, 0, 60, 0
2,19618, Note_on_c, 0, 77, 0
2,19639, Control_c, 0, 64, 34
2,19654, Control_c, 0, 64, 34
2,19670, Control_c, 0, 64, 31
2,19799, Control_c, 0, 64, 30
2,19814, Control_c, 0, 64, 28
2,19830, Control_c, 0, 64, 26
2,19844, Control_c, 0, 64, 20
2,19860, Control_c, 0, 64, 0
2,19870, Note_on_c, 0, 81, 76
2,19889, Note_on_c, 0, 65, 78
2,19918, Note_on_c, 0, 65, 0
2,19951, Note_on_c, 0, 79, 81
2,19963, Note_on_c, 0, 81, 0
2,20006, Note_on_c, 0, 57, 0
2,20018, Note_on_c, 0, 77, 83
2,20034, Note_on_c, 0, 79, 0
2,20088, Note_on_c, 0, 76, 79
2,20092, Note_on_c, 0, 77, 0
2,20146, Note_on_c, 0, 76, 0
2,20155, Note_on_c, 0, 74, 84
2,20156, Note_on_c, 0, 47, 88
2,20209, Control_c, 0, 64, 58
2,20216, Note_on_c, 0, 47, 0
2,20226, Control_c, 0, 64, 63
2,20226, Note_on_c, 0, 74, 0
2,20227, Note_on_c, 0, 76, 82
2,20241, Control_c, 0, 64, 69
2,20256, Control_c, 0, 64, 87
2,20272, Control_c, 0, 64, 127
2,20307, Note_on_c, 0, 77, 83
2,20309, Note_on_c, 0, 76, 0
2,20442, Note_on_c, 0, 69, 89
2,20466, Note_on_c, 0, 69, 0
2,20469, Control_c, 0, 64, 81
2,20491, Control_c, 0, 64, 49
2,20507, Control_c, 0, 64, 0
2,20515, Note_on_c, 0, 77, 0
2,20528, Note_on_c, 0, 76, 72
2,20593, Note_on_c, 0, 74, 71
2,20596, Note_on_c, 0, 76, 0
2,20658, Note_on_c, 0, 72, 78
2,20665, Note_on_c, 0, 74, 0
2,20714, Note_on_c, 0, 72, 0
2,20731, Note_on_c, 0, 71, 82
2,20733, Note_on_c, 0, 62, 88
2,20758, Note_on_c, 0, 62, 0
2,20789, Note_on_c, 0, 71, 0
2,20802, Note_on_c, 0, 72, 80
2,20868, Note_on_c, 0, 72, 0
2,20880, Note_on_c, 0, 74, 73
2,21027, Note_on_c, 0, 65, 88
2,21049, Note_on_c, 0, 65, 0
2,21111, Note_on_c, 0, 74, 0
2,21114, Note_on_c, 0, 72, 70
2,21186, Note_on_c, 0, 71, 69
2,21198, Note_on_c, 0, 72, 0
2,21263, Note_on_c, 0, 69, 69
2,21264, Note_on_c, 0, 71, 0
2,21318, Note_on_c, 0, 69, 0
2,21321, Note_on_c, 0, 59, 79
2,21334, Note_on_c, 0, 67, 75
2,21345, Note_on_c, 0, 59, 0
2,21609, Note_on_c, 0, 53, 87
2,21628, Note_on_c, 0, 62, 81
2,21636, Note_on_c, 0, 53, 0
2,21696, Note_on_c, 0, 62, 0
2,21752, Note_on_c, 0, 67, 0
2,21774, Note_on_c, 0, 69, 69
2,21832, Note_on_c, 0, 69, 0
2,21851, Note_on_c, 0, 71, 74
2,21900, Note_on_c, 0, 50, 92
2,21910, Note_on_c, 0, 72, 80
2,21912, Note_on_c, 0, 71, 0
2,21920, Note_on_c, 0, 65, 67
2,21927, Note_on_c, 0, 50, 0
2,21969, Note_on_c, 0, 65, 0
2,21985, Note_on_c, 0, 72, 0
2,21987, Note_on_c, 0, 71, 74
2,22058, Note_on_c, 0, 71, 0
2,22070, Note_on_c, 0, 72, 76
2,22128, Note_on_c, 0, 71, 76
2,22129, Note_on_c, 0, 72, 0
2,22191, Note_on_c, 0, 71, 0
2,22197, Note_on_c, 0, 55, 89
2,22201, Note_on_c, 0, 62, 83
2,22201, Note_on_c, 0, 72, 78
2,22223, Note_on_c, 0, 62, 0
2,22234, Note_on_c, 0, 55, 0
2,22261, Note_on_c, 0, 72, 0
2,22265, Note_on_c, 0, 71, 71
2,22326, Note_on_c, 0, 71, 0
2,22339, Note_on_c, 0, 69, 74
2,22395, Note_on_c, 0, 69, 0
2,22413, Note_on_c, 0, 71, 69
2,22481, Note_on_c, 0, 52, 60
2,22491, Note_on_c, 0, 72, 81
2,22494, Note_on_c, 0, 71, 0
2,22499, Note_on_c, 0, 67, 81
2,22528, Control_c, 0, 64, 21
2,22541, Note_on_c, 0, 67, 0
2,22544, Control_c, 0, 64, 58
2,22544, Note_on_c, 0, 72, 0
2,22559, Control_c, 0, 64, 63
2,22574, Control_c, 0, 64, 68
2,22589, Control_c, 0, 64, 78
2,22604, Control_c, 0, 64, 93
2,22620, Control_c, 0, 64, 100
2,22634, Control_c, 0, 64, 102
2,22735, Note_on_c, 0, 52, 0
2,22778, Note_on_c, 0, 60, 90
2,22795, Control_c, 0, 64, 102
2,22810, Control_c, 0, 64, 101
2,22812, Note_on_c, 0, 60, 0
2,22826, Control_c, 0, 64, 101
2,22841, Control_c, 0, 64, 99
2,22856, Control_c, 0, 64, 98
2,22872, Control_c, 0, 64, 96
2,22887, Control_c, 0, 64, 94
2,22902, Control_c, 0, 64, 93
2,22917, Control_c, 0, 64, 92
2,22930, Note_on_c, 0, 52, 63
2,22932, Control_c, 0, 64, 90
2,22947, Control_c, 0, 64, 86
2,22962, Control_c, 0, 64, 80
2,22978, Control_c, 0, 64, 72
2,22991, Note_on_c, 0, 52, 0
2,22993, Control_c, 0, 64, 66
2,23008, Control_c, 0, 64, 57
2,23013, Note_on_c, 0, 54, 59
2,23024, Control_c, 0, 64, 0
2,23070, Note_on_c, 0, 54, 0
2,23077, Note_on_c, 0, 55, 74
2,23078, Note_on_c, 0, 57, 94
2,23111, Note_on_c, 0, 57, 0
2,23151, Note_on_c, 0, 55, 0
2,23159, Note_on_c, 0, 54, 70
2,23213, Note_on_c, 0, 54, 0
2,23230, Note_on_c, 0, 55, 68
2,23296, Note_on_c, 0, 55, 0
2,23308, Note_on_c, 0, 54, 67
2,23372, Note_on_c, 0, 62, 92
2,23379, Note_on_c, 0, 54, 0
2,23386, Note_on_c, 0, 55, 72
2,23413, Note_on_c, 0, 62, 0
2,23433, Note_on_c, 0, 55, 0
2,23461, Note_on_c, 0, 54, 64
2,23503, Note_on_c, 0, 54, 0
2,23523, Note_on_c, 0, 52, 57
2,23576, Note_on_c, 0, 52, 0
2,23588, Note_on_c, 0, 54, 65
2,23653, Note_on_c, 0, 54, 0
2,23676, Note_on_c, 0, 59, 89
2,23686, Note_on_c, 0, 55, 65
2,23730, Note_on_c, 0, 55, 0
2,23970, Note_on_c, 0, 67, 96
2,23975, Note_on_c, 0, 52, 63
2,23981, Note_on_c, 0, 59, 0
2,23996, Note_on_c, 0, 52, 0
2,24004, Control_c, 0, 64, 51
2,24020, Control_c, 0, 64, 63
2,24035, Control_c, 0, 64, 72
2,24040, Note_on_c, 0, 67, 0
2,24050, Control_c, 0, 64, 100
2,24065, Control_c, 0, 64, 127
2,24110, Note_on_c, 0, 59, 67
2,24194, Note_on_c, 0, 59, 0
2,24196, Note_on_c, 0, 61, 74
2,24216, Control_c, 0, 64, 89
2,24232, Control_c, 0, 64, 69
2,24247, Control_c, 0, 64, 44
2,24249, Note_on_c, 0, 64, 104
2,24251, Note_on_c, 0, 57, 48
2,24263, Control_c, 0, 64, 0
2,24265, Note_on_c, 0, 61, 0
2,24268, Note_on_c, 0, 62, 79
2,24292, Note_on_c, 0, 64, 0
2,24344, Note_on_c, 0, 62, 0
2,24348, Note_on_c, 0, 61, 78
2,24413, Note_on_c, 0, 61, 0
2,24427, Note_on_c, 0, 62, 80
2,24475, Note_on_c, 0, 62, 0
2,24491, Note_on_c, 0, 61, 67
2,24546, Note_on_c, 0, 61, 0
2,24552, Note_on_c, 0, 69, 95
2,24559, Note_on_c, 0, 62, 71
2,24589, Note_on_c, 0, 69, 0
2,24602, Note_on_c, 0, 62, 0
2,24623, Note_on_c, 0, 61, 69
2,24683, Note_on_c, 0, 61, 0
2,24689, Note_on_c, 0, 57, 0
2,24695, Note_on_c, 0, 59, 73
2,24786, Note_on_c, 0, 59, 0
2,24813, Note_on_c, 0, 61, 69
2,24840, Note_on_c, 0, 66, 96
2,24843, Note_on_c, 0, 61, 0
2,24847, Note_on_c, 0, 62, 88
2,24909, Control_c, 0, 64, 43
2,24924, Control_c, 0, 64, 41
2,24940, Control_c, 0, 64, 42
2,24955, Control_c, 0, 64, 43
2,24969, Control_c, 0, 64, 44
2,24985, Control_c, 0, 64, 44
2,25031, Control_c, 0, 64, 45
2,25045, Control_c, 0, 64, 46
2,25061, Control_c, 0, 64, 47
2,25076, Control_c, 0, 64, 48
2,25100, Control_c, 0, 64, 48
2,25106, Note_on_c, 0, 66, 0
2,25142, Note_on_c, 0, 50, 79
2,25164, Note_on_c, 0, 50, 0
2,25220, Control_c, 0, 64, 48
2,25235, Control_c, 0, 64, 47
2,25250, Control_c, 0, 64, 47
2,25266, Control_c, 0, 64, 46
2,25271, Note_on_c, 0, 62, 0
2,25277, Note_on_c, 0, 66, 67
2,25280, Control_c, 0, 64, 46
2,25295, Control_c, 0, 64, 45
2,25311, Control_c, 0, 64, 44
2,25323, Note_on_c, 0, 66, 0
2,25326, Control_c, 0, 64, 42
2,25342, Control_c, 0, 64, 39
2,25350, Note_on_c, 0, 68, 63
2,25356, Control_c, 0, 64, 37
2,25371, Control_c, 0, 64, 35
2,25387, Control_c, 0, 64, 34
2,25402, Control_c, 0, 64, 31
2,25402, Note_on_c, 0, 68, 0
2,25418, Control_c, 0, 64, 24
2,25424, Note_on_c, 0, 69, 70
2,25427, Note_on_c, 0, 47, 71
2,25433, Control_c, 0, 64, 0
2,25454, Note_on_c, 0, 47, 0
2,25487, Note_on_c, 0, 69, 0
2,25506, Note_on_c, 0, 68, 65
2,25543, Note_on_c, 0, 68, 0
2,25566, Note_on_c, 0, 69, 64
2,25629, Note_on_c, 0, 69, 0
2,25640, Note_on_c, 0, 68, 69
2,25702, Note_on_c, 0, 68, 0
2,25711, Note_on_c, 0, 69, 77
2,25721, Note_on_c, 0, 52, 83
2,25748, Note_on_c, 0, 52, 0
2,25785, Note_on_c, 0, 69, 0
2,25788, Note_on_c, 0, 68, 75
2,25864, Note_on_c, 0, 68, 0
2,25869, Note_on_c, 0, 66, 81
2,25944, Note_on_c, 0, 68, 78
2,25947, Note_on_c, 0, 66, 0
2,25998, Note_on_c, 0, 68, 0
2,26014, Note_on_c, 0, 48, 92
2,26016, Note_on_c, 0, 69, 90
2,26065, Note_on_c, 0, 48, 0
2,26141, Note_on_c, 0, 69, 0
2,26162, Note_on_c, 0, 71, 86
2,26234, Note_on_c, 0, 72, 80
2,26238, Note_on_c, 0, 71, 0
2,26283, Note_on_c, 0, 72, 0
2,26295, Note_on_c, 0, 74, 84
2,26301, Note_on_c, 0, 45, 85
2,26327, Note_on_c, 0, 45, 0
2,26367, Note_on_c, 0, 76, 85
2,26374, Note_on_c, 0, 74, 0
2,26427, Note_on_c, 0, 78, 85
2,26450, Note_on_c, 0, 76, 0
2,26503, Note_on_c, 0, 80, 82
2,26509, Note_on_c, 0, 78, 0
2,26573, Note_on_c, 0, 81, 97
2,26583, Note_on_c, 0, 42, 96
2,26605, Note_on_c, 0, 80, 0
2,26616, Note_on_c, 0, 42, 0
2,26742, Note_on_c, 0, 72, 80
2,26767, Note_on_c, 0, 72, 0
2,26887, Note_on_c, 0, 71, 87
2,26889, Note_on_c, 0, 51, 72
2,26912, Note_on_c, 0, 71, 0
2,26916, Note_on_c, 0, 51, 0
2,27026, Note_on_c, 0, 78, 87
2,27043, Note_on_c, 0, 81, 0
2,27073, Note_on_c, 0, 78, 0
2,27163, Note_on_c, 0, 40, 78
2,27163, Note_on_c, 0, 79, 104
2,27197, Control_c, 0, 64, 61
2,27197, Note_on_c, 0, 40, 0
2,27212, Control_c, 0, 64, 66
2,27228, Control_c, 0, 64, 91
2,27243, Control_c, 0, 64, 127
2,27327, Note_on_c, 0, 71, 76
2,27384, Note_on_c, 0, 71, 0
2,27470, Note_on_c, 0, 76, 81
2,27505, Note_on_c, 0, 79, 0
2,27509, Control_c, 0, 64, 85
2,27524, Control_c, 0, 64, 36
2,27524, Note_on_c, 0, 76, 0
2,27532, Note_on_c, 0, 74, 77
2,27540, Control_c, 0, 64, 0
2,27597, Note_on_c, 0, 72, 80
2,27616, Note_on_c, 0, 74, 0
2,27655, Note_on_c, 0, 71, 66
2,27680, Note_on_c, 0, 72, 0
2,27730, Note_on_c, 0, 84, 99
2,27731, Note_on_c, 0, 69, 94
2,27743, Note_on_c, 0, 71, 0
2,27759, Note_on_c, 0, 69, 0
2,27829, Control_c, 0, 64, 48
2,27844, Control_c, 0, 64, 43
2,28032, Note_on_c, 0, 72, 88
2,28041, Control_c, 0, 64, 37
2,28056, Control_c, 0, 64, 0
2,28102, Note_on_c, 0, 71, 75
2,28105, Note_on_c, 0, 84, 0
2,28114, Note_on_c, 0, 72, 0
2,28148, Note_on_c, 0, 71, 0
2,28172, Note_on_c, 0, 69, 67
2,28231, Note_on_c, 0, 69, 0
2,28239, Note_on_c, 0, 67, 81
2,28301, Note_on_c, 0, 66, 81
2,28301, Note_on_c, 0, 75, 99
2,28315, Note_on_c, 0, 67, 0
2,28361, Note_on_c, 0, 66, 0
2,28362, Note_on_c, 0, 67, 80
2,28383, Control_c, 0, 64, 42
2,28398, Control_c, 0, 64, 32
2,28413, Control_c, 0, 64, 32
2,28430, Note_on_c, 0, 67, 0
2,28438, Note_on_c, 0, 69, 84
2,28541, Note_on_c, 0, 69, 0
2,28551, Control_c, 0, 64, 33
2,28565, Control_c, 0, 64, 34
2,28575, Note_on_c, 0, 60, 91
2,28599, Note_on_c, 0, 75, 0
2,28643, Note_on_c, 0, 60, 0
2,28646, Note_on_c, 0, 67, 81
2,28708, Note_on_c, 0, 66, 72
2,28710, Note_on_c, 0, 67, 0
2,28781, Note_on_c, 0, 66, 0
2,28795, Note_on_c, 0, 64, 53
2,28824, Control_c, 0, 64, 33
2,28839, Control_c, 0, 64, 33
2,28854, Control_c, 0, 64, 32
2,28858, Note_on_c, 0, 63, 76
2,28859, Note_on_c, 0, 64, 0
2,28860, Note_on_c, 0, 54, 94
2,28869, Control_c, 0, 64, 30
2,28884, Control_c, 0, 64, 29
2,28886, Note_on_c, 0, 54, 0
2,28900, Control_c, 0, 64, 28
2,28915, Control_c, 0, 64, 26
2,28936, Note_on_c, 0, 64, 73
2,28938, Control_c, 0, 64, 24
2,28953, Control_c, 0, 64, 23
2,28961, Note_on_c, 0, 63, 0
2,28968, Control_c, 0, 64, 22
2,28998, Control_c, 0, 64, 21
2,29004, Note_on_c, 0, 64, 0
2,29013, Control_c, 0, 64, 18
2,29013, Note_on_c, 0, 66, 78
2,29029, Control_c, 0, 64, 0
2,29169, Note_on_c, 0, 57, 91
2,29196, Note_on_c, 0, 66, 0
2,29199, Note_on_c, 0, 57, 0
2,29226, Note_on_c, 0, 64, 71
2,29289, Note_on_c, 0, 64, 0
2,29304, Note_on_c, 0, 63, 66
2,29347, Note_on_c, 0, 63, 0
2,29385, Note_on_c, 0, 61, 65
2,29418, Note_on_c, 0, 61, 0
2,29455, Note_on_c, 0, 59, 69
2,29456, Note_on_c, 0, 51, 87
2,29489, Note_on_c, 0, 51, 0
2,29516, Control_c, 0, 64, 53
2,29531, Control_c, 0, 64, 61
2,29547, Control_c, 0, 64, 69
2,29562, Control_c, 0, 64, 89
2,29576, Control_c, 0, 64, 127
2,29731, Note_on_c, 0, 59, 0
2,29741, Note_on_c, 0, 54, 75
2,29756, Note_on_c, 0, 81, 92
2,29766, Note_on_c, 0, 54, 0
2,29790, Note_on_c, 0, 81, 0
2,29918, Note_on_c, 0, 61, 68
2,29950, Control_c, 0, 64, 104
2,29964, Control_c, 0, 64, 81
2,29980, Control_c, 0, 64, 64
2,29995, Control_c, 0, 64, 0
2,29998, Note_on_c, 0, 61, 0
2,29998, Note_on_c, 0, 63, 70
2,30036, Note_on_c, 0, 78, 96
2,30056, Note_on_c, 0, 59, 64
2,30059, Note_on_c, 0, 64, 83
2,30061, Note_on_c, 0, 63, 0
2,30077, Note_on_c, 0, 78, 0
2,30126, Note_on_c, 0, 63, 75
2,30127, Note_on_c, 0, 64, 0
2,30193, Note_on_c, 0, 63, 0
2,30199, Note_on_c, 0, 64, 81
2,30248, Note_on_c, 0, 64, 0
2,30256, Note_on_c, 0, 63, 45
2,30321, Note_on_c, 0, 63, 0
2,30327, Note_on_c, 0, 64, 83
2,30328, Note_on_c, 0, 83, 94
2,30366, Note_on_c, 0, 83, 0
2,30386, Note_on_c, 0, 59, 0
2,30387, Note_on_c, 0, 64, 0
2,30402, Note_on_c, 0, 63, 68
2,30456, Note_on_c, 0, 63, 0
2,30471, Note_on_c, 0, 61, 70
2,30517, Note_on_c, 0, 61, 0
2,30529, Note_on_c, 0, 63, 64
2,30579, Note_on_c, 0, 63, 0
2,30612, Note_on_c, 0, 79, 100
2,30623, Note_on_c, 0, 64, 85
2,30625, Note_on_c, 0, 52, 79
2,30642, Control_c, 0, 64, 52
2,30651, Note_on_c, 0, 64, 0
2,30655, Note_on_c, 0, 52, 0
2,30658, Control_c, 0, 64, 62
2,30672, Control_c, 0, 64, 72
2,30687, Control_c, 0, 64, 127
2,30714, Note_on_c, 0, 79, 0
2,30870, Control_c, 0, 64, 80
2,30886, Control_c, 0, 64, 41
2,30900, Note_on_c, 0, 76, 88
2,30901, Control_c, 0, 64, 0
2,30940, Note_on_c, 0, 76, 0
2,30998, Note_on_c, 0, 40, 76
2,31063, Note_on_c, 0, 41, 78
2,31066, Note_on_c, 0, 40, 0
2,31120, Note_on_c, 0, 41, 0
2,31120, Note_on_c, 0, 43, 80
2,31174, Note_on_c, 0, 45, 96
2,31175, Note_on_c, 0, 73, 96
2,31191, Note_on_c, 0, 43, 0
2,31216, Note_on_c, 0, 45, 0
2,31218, Control_c, 0, 64, 24
2,31232, Note_on_c, 0, 73, 0
2,31240, Control_c, 0, 64, 0
2,31459, Note_on_c, 0, 81, 85
2,31501, Note_on_c, 0, 81, 0
2,31549, Note_on_c, 0, 43, 77
2,31595, Note_on_c, 0, 43, 0
2,31613, Note_on_c, 0, 41, 73
2,31677, Note_on_c, 0, 40, 75
2,31679, Note_on_c, 0, 41, 0
2,31747, Note_on_c, 0, 38, 89
2,31747, Note_on_c, 0, 77, 95
2,31751, Note_on_c, 0, 40, 0
2,31779, Note_on_c, 0, 38, 0
2,31804, Control_c, 0, 64, 58
2,31818, Control_c, 0, 64, 62
2,31834, Control_c, 0, 64, 68
2,31849, Control_c, 0, 64, 79
2,31850, Note_on_c, 0, 77, 0
2,31865, Control_c, 0, 64, 99
2,31880, Control_c, 0, 64, 118
2,31894, Control_c, 0, 64, 127
2,31925, Control_c, 0, 64, 122
2,31940, Control_c, 0, 64, 117
2,31955, Control_c, 0, 64, 101
2,31970, Control_c, 0, 64, 81
2,31986, Control_c, 0, 64, 61
2,32009, Control_c, 0, 64, 0
2,32044, Note_on_c, 0, 62, 88
2,32065, Note_on_c, 0, 62, 0
2,32111, Note_on_c, 0, 74, 78
2,32182, Note_on_c, 0, 76, 85
2,32185, Note_on_c, 0, 74, 0
2,32245, Note_on_c, 0, 77, 87
2,32263, Note_on_c, 0, 76, 0
2,32316, Note_on_c, 0, 79, 101
2,32337, Note_on_c, 0, 77, 0
2,32339, Note_on_c, 0, 59, 79
2,32365, Note_on_c, 0, 59, 0
2,32431, Note_on_c, 0, 79, 0
2,32617, Note_on_c, 0, 67, 77
2,32642, Note_on_c, 0, 67, 0
2,32692, Note_on_c, 0, 77, 82
2,32756, Note_on_c, 0, 76, 82
2,32777, Note_on_c, 0, 77, 0
2,32823, Note_on_c, 0, 76, 0
2,32827, Note_on_c, 0, 74, 85
2,32888, Note_on_c, 0, 64, 84
2,32888, Note_on_c, 0, 72, 93
2,32889, Note_on_c, 0, 74, 0
2,32913, Control_c, 0, 64, 35
2,32916, Note_on_c, 0, 64, 0
2,32927, Control_c, 0, 64, 0
2,33039, Note_on_c, 0, 72, 0
2,33158, Note_on_c, 0, 57, 63
2,33189, Note_on_c, 0, 57, 0
2,33257, Note_on_c, 0, 76, 67
2,33296, Note_on_c, 0, 76, 0
2,33334, Note_on_c, 0, 77, 64
2,33369, Note_on_c, 0, 77, 0
2,33384, Control_c, 0, 64, 12
2,33400, Control_c, 0, 64, 15
2,33401, Note_on_c, 0, 79, 69
2,33415, Note_on_c, 0, 53, 52
2,33450, Note_on_c, 0, 79, 0
2,33466, Note_on_c, 0, 53, 0
2,33466, Note_on_c, 0, 81, 71
2,33476, Control_c, 0, 64, 16
2,33491, Control_c, 0, 64, 19
2,33506, Control_c, 0, 64, 21
2,33511, Note_on_c, 0, 81, 0
2,33521, Control_c, 0, 64, 21
2,33544, Note_on_c, 0, 82, 72
2,33607, Note_on_c, 0, 82, 0
2,33611, Note_on_c, 0, 81, 79
2,33637, Control_c, 0, 64, 22
2,33651, Control_c, 0, 64, 24
2,33667, Control_c, 0, 64, 26
2,33667, Note_on_c, 0, 81, 0
2,33681, Note_on_c, 0, 79, 75
2,33682, Control_c, 0, 64, 26
2,33697, Control_c, 0, 64, 27
2,33713, Note_on_c, 0, 62, 61
2,33718, Note_on_c, 0, 79, 0
2,33727, Control_c, 0, 64, 28
2,33737, Note_on_c, 0, 77, 80
2,33742, Note_on_c, 0, 62, 0
2,33788, Control_c, 0, 64, 28
2,33801, Note_on_c, 0, 76, 79
2,33802, Note_on_c, 0, 77, 0
2,33866, Note_on_c, 0, 76, 0
2,33869, Note_on_c, 0, 74, 81
2,33920, Note_on_c, 0, 74, 0
2,33933, Note_on_c, 0, 72, 81
2,33967, Note_on_c, 0, 72, 0
2,33988, Note_on_c, 0, 56, 72
2,34012, Note_on_c, 0, 71, 85
2,34032, Note_on_c, 0, 56, 0
2,34046, Control_c, 0, 64, 29
2,34061, Control_c, 0, 64, 29
2,34070, Note_on_c, 0, 71, 0
2,34072, Note_on_c, 0, 72, 82
2,34077, Control_c, 0, 64, 30
2,34092, Control_c, 0, 64, 31
2,34108, Control_c, 0, 64, 33
2,34122, Control_c, 0, 64, 34
2,34141, Note_on_c, 0, 71, 85
2,34151, Note_on_c, 0, 72, 0
2,34189, Note_on_c, 0, 71, 0
2,34214, Control_c, 0, 64, 31
2,34220, Note_on_c, 0, 69, 77
2,34230, Control_c, 0, 64, 0
2,34280, Note_on_c, 0, 68, 84
2,34287, Note_on_c, 0, 69, 0
2,34292, Note_on_c, 0, 52, 80
2,34326, Note_on_c, 0, 52, 0
2,34355, Note_on_c, 0, 66, 84
2,34379, Note_on_c, 0, 68, 0
2,34388, Control_c, 0, 64, 46
2,34403, Control_c, 0, 64, 54
2,34417, Control_c, 0, 64, 55
2,34418, Note_on_c, 0, 66, 0
2,34429, Note_on_c, 0, 64, 85
2,34499, Note_on_c, 0, 62, 82
2,34499, Note_on_c, 0, 64, 0
2,34509, Control_c, 0, 64, 54
2,34524, Control_c, 0, 64, 51
2,34539, Control_c, 0, 64, 43
2,34553, Note_on_c, 0, 62, 0
2,34555, Control_c, 0, 64, 0
2,34590, Note_on_c, 0, 60, 93
2,34591, Note_on_c, 0, 57, 86
2,34642, Note_on_c, 0, 64, 74
2,34673, Note_on_c, 0, 60, 0
2,34702, Note_on_c, 0, 64, 0
2,34731, Note_on_c, 0, 65, 70
2,34796, Note_on_c, 0, 67, 77
2,34798, Note_on_c, 0, 65, 0
2,34879, Note_on_c, 0, 67, 0
2,34879, Note_on_c, 0, 69, 76
2,34881, Note_on_c, 0, 72, 78
2,34947, Note_on_c, 0, 69, 0
2,34960, Note_on_c, 0, 72, 0
2,34966, Note_on_c, 0, 67, 76
2,34996, Control_c, 0, 64, 34
2,35011, Control_c, 0, 64, 54
2,35016, Note_on_c, 0, 67, 0
2,35027, Control_c, 0, 64, 62
2,35041, Control_c, 0, 64, 65
2,35043, Note_on_c, 0, 65, 71
2,35056, Control_c, 0, 64, 69
2,35080, Control_c, 0, 64, 72
2,35095, Control_c, 0, 64, 74
2,35111, Note_on_c, 0, 65, 0
2,35115, Note_on_c, 0, 64, 81
2,35164, Note_on_c, 0, 57, 0
2,35189, Note_on_c, 0, 64, 0
2,35201, Control_c, 0, 64, 74
2,35201, Note_on_c, 0, 62, 83
2,35201, Note_on_c, 0, 71, 86
2,35216, Control_c, 0, 64, 71
2,35232, Control_c, 0, 64, 66
2,35245, Note_on_c, 0, 62, 0
2,35247, Control_c, 0, 64, 56
2,35261, Control_c, 0, 64, 0
2,35283, Note_on_c, 0, 57, 67
2,35352, Note_on_c, 0, 57, 0
2,35354, Note_on_c, 0, 59, 71
2,35422, Note_on_c, 0, 60, 76
2,35433, Note_on_c, 0, 59, 0
2,35474, Note_on_c, 0, 60, 0
2,35482, Note_on_c, 0, 62, 77
2,35496, Note_on_c, 0, 65, 86
2,35547, Note_on_c, 0, 65, 0
2,35548, Note_on_c, 0, 62, 0
2,35560, Note_on_c, 0, 60, 71
2,35620, Note_on_c, 0, 59, 77
2,35636, Note_on_c, 0, 60, 0
2,35658, Note_on_c, 0, 59, 0
2,35686, Note_on_c, 0, 57, 80
2,35764, Note_on_c, 0, 57, 0
2,35767, Note_on_c, 0, 56, 77
2,35775, Note_on_c, 0, 59, 90
2,35819, Note_on_c, 0, 59, 0
2,35848, Note_on_c, 0, 56, 0
2,35855, Note_on_c, 0, 57, 77
2,35923, Note_on_c, 0, 57, 0
2,35926, Note_on_c, 0, 56, 83
2,36009, Note_on_c, 0, 54, 83
2,36037, Note_on_c, 0, 56, 0
2,36059, Note_on_c, 0, 54, 0
2,36067, Note_on_c, 0, 62, 96
2,36076, Note_on_c, 0, 52, 80
2,36114, Note_on_c, 0, 62, 0
2,36135, Note_on_c, 0, 52, 0
2,36152, Note_on_c, 0, 50, 80
2,36224, Note_on_c, 0, 48, 69
2,36238, Note_on_c, 0, 50, 0
2,36280, Note_on_c, 0, 48, 0
2,36281, Note_on_c, 0, 47, 70
2,36364, Note_on_c, 0, 60, 96
2,36367, Note_on_c, 0, 45, 81
2,36369, Note_on_c, 0, 47, 0
2,36375, Note_on_c, 0, 71, 0
2,36409, Control_c, 0, 64, 39
2,36415, Note_on_c, 0, 45, 0
2,36424, Control_c, 0, 64, 61
2,36440, Control_c, 0, 64, 64
2,36455, Control_c, 0, 64, 70
2,36471, Control_c, 0, 64, 90
2,36486, Control_c, 0, 64, 127
2,36529, Note_on_c, 0, 64, 85
2,36559, Note_on_c, 0, 64, 0
2,36576, Control_c, 0, 64, 76
2,36592, Control_c, 0, 64, 54
2,36615, Control_c, 0, 64, 0
2,36682, Note_on_c, 0, 57, 74
2,36694, Note_on_c, 0, 69, 81
2,36744, Note_on_c, 0, 57, 0
2,36749, Note_on_c, 0, 69, 0
2,36754, Note_on_c, 0, 55, 65
2,36827, Note_on_c, 0, 53, 67
2,36853, Note_on_c, 0, 55, 0
2,36888, Note_on_c, 0, 52, 61
2,36899, Note_on_c, 0, 53, 0
2,36922, Note_on_c, 0, 60, 0
2,36973, Note_on_c, 0, 65, 97
2,36978, Note_on_c, 0, 50, 81
2,36996, Note_on_c, 0, 52, 0
2,37012, Note_on_c, 0, 50, 0
2,37042, Control_c, 0, 64, 15
2,37057, Control_c, 0, 64, 21
2,37073, Control_c, 0, 64, 24
2,37088, Control_c, 0, 64, 27
2,37102, Control_c, 0, 64, 28
2,37132, Note_on_c, 0, 57, 84
2,37164, Note_on_c, 0, 57, 0
2,37194, Control_c, 0, 64, 26
2,37209, Control_c, 0, 64, 23
2,37223, Control_c, 0, 64, 18
2,37239, Control_c, 0, 64, 10
2,37254, Control_c, 0, 64, 0
2,37273, Note_on_c, 0, 53, 78
2,37282, Note_on_c, 0, 62, 88
2,37351, Note_on_c, 0, 53, 0
2,37357, Note_on_c, 0, 52, 67
2,37384, Note_on_c, 0, 65, 0
2,37421, Note_on_c, 0, 62, 0
2,37437, Note_on_c, 0, 50, 64
2,37461, Note_on_c, 0, 52, 0
2,37508, Note_on_c, 0, 50, 0
2,37512, Note_on_c, 0, 48, 62
2,37587, Note_on_c, 0, 48, 0
2,37588, Note_on_c, 0, 47, 74
2,37590, Note_on_c, 0, 56, 99
2,37643, Control_c, 0, 64, 35
2,37654, Note_on_c, 0, 56, 0
2,37657, Control_c, 0, 64, 65
2,37673, Control_c, 0, 64, 80
2,37684, Note_on_c, 0, 48, 77
2,37687, Note_on_c, 0, 47, 0
2,37688, Control_c, 0, 64, 127
2,37737, Note_on_c, 0, 48, 0
2,37750, Note_on_c, 0, 50, 85
2,37876, Note_on_c, 0, 77, 91
2,37901, Control_c, 0, 64, 104
2,37911, Note_on_c, 0, 77, 0
2,37916, Control_c, 0, 64, 69
2,37931, Control_c, 0, 64, 42
2,37944, Note_on_c, 0, 50, 0
2,37947, Control_c, 0, 64, 0
2,37954, Note_on_c, 0, 48, 74
2,38019, Note_on_c, 0, 47, 69
2,38026, Note_on_c, 0, 48, 0
2,38067, Note_on_c, 0, 47, 0
2,38091, Note_on_c, 0, 45, 74
2,38166, Note_on_c, 0, 71, 93
2,38168, Note_on_c, 0, 44, 78
2,38169, Note_on_c, 0, 45, 0
2,38202, Note_on_c, 0, 71, 0
2,38227, Note_on_c, 0, 44, 0
2,38234, Note_on_c, 0, 45, 72
2,38316, Note_on_c, 0, 45, 0
2,38321, Note_on_c, 0, 47, 83
2,38457, Note_on_c, 0, 74, 88
2,38500, Note_on_c, 0, 74, 0
2,38533, Note_on_c, 0, 47, 0
2,38540, Note_on_c, 0, 45, 74
2,38611, Note_on_c, 0, 44, 65
2,38631, Note_on_c, 0, 45, 0
2,38666, Note_on_c, 0, 44, 0
2,38670, Note_on_c, 0, 42, 70
2,38744, Note_on_c, 0, 68, 91
2,38748, Note_on_c, 0, 40, 80
2,38756, Note_on_c, 0, 42, 0
2,39039, Note_on_c, 0, 62, 95
2,39106, Note_on_c, 0, 62, 0
2,39175, Note_on_c, 0, 40, 0
2,39186, Note_on_c, 0, 42, 67
2,39249, Note_on_c, 0, 42, 0
2,39262, Note_on_c, 0, 44, 65
2,39340, Note_on_c, 0, 71, 90
2,39341, Note_on_c, 0, 59, 91
2,39344, Note_on_c, 0, 44, 0
2,39347, Note_on_c, 0, 45, 74
2,39381, Note_on_c, 0, 68, 0
2,39420, Note_on_c, 0, 45, 0
2,39426, Note_on_c, 0, 44, 73
2,39434, Note_on_c, 0, 59, 0
2,39490, Note_on_c, 0, 44, 0
2,39494, Note_on_c, 0, 45, 72
2,39570, Note_on_c, 0, 44, 72
2,39574, Note_on_c, 0, 45, 0
2,39632, Note_on_c, 0, 64, 97
2,39647, Note_on_c, 0, 44, 0
2,39651, Note_on_c, 0, 45, 75
2,39728, Note_on_c, 0, 45, 0
2,39731, Note_on_c, 0, 44, 70
2,39751, Note_on_c, 0, 64, 0
2,39795, Note_on_c, 0, 44, 0
2,39801, Note_on_c, 0, 42, 67
2,39827, Note_on_c, 0, 42, 0
2,39861, Note_on_c, 0, 44, 59
2,39922, Note_on_c, 0, 44, 0
2,39934, Note_on_c, 0, 60, 98
2,39935, Note_on_c, 0, 45, 77
2,39986, Note_on_c, 0, 71, 0
2,39997, Note_on_c, 0, 60, 0
2,40008, Control_c, 0, 64, 51
2,40023, Control_c, 0, 64, 67
2,40038, Control_c, 0, 64, 127
2,40064, Note_on_c, 0, 45, 0
2,40230, Note_on_c, 0, 76, 84
2,40250, Control_c, 0, 64, 80
2,40266, Control_c, 0, 64, 37
2,40281, Control_c, 0, 64, 0
2,40301, Note_on_c, 0, 74, 83
2,40320, Note_on_c, 0, 76, 0
2,40322, Note_on_c, 0, 47, 50
2,40361, Note_on_c, 0, 72, 85
2,40379, Note_on_c, 0, 47, 0
2,40393, Note_on_c, 0, 48, 68
2,40393, Note_on_c, 0, 74, 0
2,40431, Note_on_c, 0, 71, 86
2,40432, Note_on_c, 0, 72, 0
2,40468, Note_on_c, 0, 48, 0
2,40486, Note_on_c, 0, 50, 67
2,40499, Note_on_c, 0, 71, 0
2,40509, Note_on_c, 0, 69, 86
2,40546, Note_on_c, 0, 50, 0
2,40549, Note_on_c, 0, 49, 69
2,40611, Note_on_c, 0, 49, 0
2,40622, Note_on_c, 0, 50, 69
2,40668, Note_on_c, 0, 73, 88
2,40677, Note_on_c, 0, 69, 0
2,40682, Note_on_c, 0, 50, 0
2,40685, Note_on_c, 0, 49, 63
2,40722, Note_on_c, 0, 76, 79
2,40748, Note_on_c, 0, 73, 0
2,40763, Note_on_c, 0, 49, 0
2,40777, Note_on_c, 0, 50, 70
2,40789, Note_on_c, 0, 79, 94
2,40804, Note_on_c, 0, 76, 0
2,40823, Note_on_c, 0, 50, 0
2,40828, Note_on_c, 0, 79, 0
2,40833, Note_on_c, 0, 49, 59
2,40892, Note_on_c, 0, 49, 0
2,40907, Note_on_c, 0, 47, 59
2,40944, Note_on_c, 0, 47, 0
2,40974, Note_on_c, 0, 49, 62
2,41032, Note_on_c, 0, 49, 0
2,41057, Note_on_c, 0, 77, 89
2,41067, Note_on_c, 0, 50, 65
2,41094, Control_c, 0, 64, 48
2,41096, Note_on_c, 0, 77, 0
2,41110, Control_c, 0, 64, 63
2,41125, Control_c, 0, 64, 79
2,41140, Control_c, 0, 64, 127
2,41213, Note_on_c, 0, 50, 0
2,41335, Note_on_c, 0, 69, 60
2,41375, Control_c, 0, 64, 85
2,41390, Note_on_c, 0, 69, 0
2,41391, Control_c, 0, 64, 58
2,41406, Control_c, 0, 64, 0
2,41410, Note_on_c, 0, 67, 55
2,41460, Note_on_c, 0, 67, 0
2,41473, Note_on_c, 0, 65, 57
2,41483, Note_on_c, 0, 52, 39
2,41515, Note_on_c, 0, 52, 0
2,41519, Note_on_c, 0, 65, 0
2,41533, Note_on_c, 0, 64, 54
2,41548, Note_on_c, 0, 53, 32
2,41565, Note_on_c, 0, 64, 0
2,41576, Note_on_c, 0, 53, 0
2,41595, Note_on_c, 0, 62, 56
2,41597, Note_on_c, 0, 55, 57
2,41650, Note_on_c, 0, 55, 0
2,41680, Note_on_c, 0, 54, 50
2,41717, Note_on_c, 0, 54, 0
2,41733, Note_on_c, 0, 62, 0
2,41744, Note_on_c, 0, 66, 58
2,41752, Note_on_c, 0, 55, 51
2,41788, Note_on_c, 0, 66, 0
2,41795, Note_on_c, 0, 55, 0
2,41812, Note_on_c, 0, 69, 60
2,41820, Note_on_c, 0, 54, 49
2,41869, Note_on_c, 0, 54, 0
2,41883, Note_on_c, 0, 69, 0
2,41885, Note_on_c, 0, 72, 62
2,41893, Note_on_c, 0, 55, 50
2,41920, Note_on_c, 0, 72, 0
2,41927, Note_on_c, 0, 55, 0
2,41967, Note_on_c, 0, 54, 46
2,42002, Note_on_c, 0, 54, 0
2,42040, Note_on_c, 0, 52, 28
2,42070, Note_on_c, 0, 52, 0
2,42087, Note_on_c, 0, 54, 58
2,42144, Note_on_c, 0, 54, 0
2,42163, Note_on_c, 0, 71, 68
2,42165, Note_on_c, 0, 55, 45
2,42198, Note_on_c, 0, 71, 0
2,42219, Control_c, 0, 64, 59
2,42235, Control_c, 0, 64, 72
2,42250, Control_c, 0, 64, 127
2,42328, Note_on_c, 0, 74, 87
2,42356, Note_on_c, 0, 55, 0
2,42398, Note_on_c, 0, 72, 80
2,42443, Note_on_c, 0, 74, 0
2,42461, Note_on_c, 0, 71, 93
2,42477, Note_on_c, 0, 72, 0
2,42557, Control_c, 0, 64, 73
2,42572, Control_c, 0, 64, 0
2,42588, Note_on_c, 0, 72, 84
2,42591, Note_on_c, 0, 57, 69
2,42602, Note_on_c, 0, 71, 0
2,42633, Note_on_c, 0, 57, 0
2,42661, Note_on_c, 0, 74, 88
2,42665, Note_on_c, 0, 59, 67
2,42671, Note_on_c, 0, 72, 0
2,42721, Note_on_c, 0, 59, 0
2,42722, Note_on_c, 0, 67, 94
2,42728, Note_on_c, 0, 60, 74
2,42759, Note_on_c, 0, 74, 0
2,42771, Note_on_c, 0, 67, 0
2,42794, Note_on_c, 0, 60, 0
2,42804, Note_on_c, 0, 59, 67
2,42861, Note_on_c, 0, 59, 0
2,42873, Note_on_c, 0, 60, 72
2,42939, Note_on_c, 0, 60, 0
2,42948, Note_on_c, 0, 59, 58
2,43009, Note_on_c, 0, 77, 97
2,43017, Note_on_c, 0, 59, 0
2,43032, Note_on_c, 0, 60, 76
2,43048, Note_on_c, 0, 77, 0
2,43067, Note_on_c, 0, 60, 0
2,43109, Note_on_c, 0, 59, 65
2,43150, Note_on_c, 0, 59, 0
2,43171, Note_on_c, 0, 57, 66
2,43212, Note_on_c, 0, 57, 0
2,43249, Note_on_c, 0, 59, 57
2,43290, Note_on_c, 0, 59, 0
2,43310, Note_on_c, 0, 76, 93
2,43321, Note_on_c, 0, 60, 68
2,43340, Control_c, 0, 64, 57
2,43352, Note_on_c, 0, 76, 0
2,43355, Control_c, 0, 64, 64
2,43370, Control_c, 0, 64, 76
2,43386, Control_c, 0, 64, 127
2,43437, Note_on_c, 0, 60, 0
2,43479, Note_on_c, 0, 67, 73
2,43511, Note_on_c, 0, 67, 0
2,43529, Control_c, 0, 64, 78
2,43545, Control_c, 0, 64, 21
2,43548, Note_on_c, 0, 65, 67
2,43560, Control_c, 0, 64, 0
2,43587, Note_on_c, 0, 65, 0
2,43601, Note_on_c, 0, 64, 67
2,43714, Note_on_c, 0, 64, 0
2,43739, Note_on_c, 0, 65, 35
2,43761, Note_on_c, 0, 62, 48
2,43789, Note_on_c, 0, 62, 0
2,43792, Note_on_c, 0, 65, 0
2,43806, Note_on_c, 0, 67, 62
2,43864, Note_on_c, 0, 67, 0
2,43869, Note_on_c, 0, 65, 46
2,43877, Note_on_c, 0, 60, 69
2,43916, Note_on_c, 0, 60, 0
2,43926, Note_on_c, 0, 65, 0
2,43953, Note_on_c, 0, 64, 42
2,43983, Note_on_c, 0, 64, 0
2,44010, Note_on_c, 0, 65, 48
2,44055, Note_on_c, 0, 65, 0
2,44074, Note_on_c, 0, 64, 54
2,44122, Note_on_c, 0, 64, 0
2,44146, Note_on_c, 0, 70, 67
2,44147, Note_on_c, 0, 65, 60
2,44177, Note_on_c, 0, 70, 0
2,44192, Note_on_c, 0, 65, 0
2,44214, Note_on_c, 0, 64, 62
2,44267, Note_on_c, 0, 64, 0
2,44309, Note_on_c, 0, 62, 51
2,44354, Note_on_c, 0, 62, 0
2,44391, Note_on_c, 0, 64, 57
2,44449, Note_on_c, 0, 64, 0
2,44452, Note_on_c, 0, 69, 58
2,44463, Note_on_c, 0, 65, 51
2,44592, Note_on_c, 0, 69, 0
2,44602, Control_c, 0, 64, 46
2,44617, Control_c, 0, 64, 59
2,44617, Note_on_c, 0, 71, 58
2,44632, Control_c, 0, 64, 63
2,44647, Control_c, 0, 64, 66
2,44648, Note_on_c, 0, 65, 0
2,44663, Control_c, 0, 64, 72
2,44677, Control_c, 0, 64, 85
2,44685, Note_on_c, 0, 73, 71
2,44692, Control_c, 0, 64, 127
2,44697, Note_on_c, 0, 71, 0
2,44743, Note_on_c, 0, 73, 0
2,44753, Note_on_c, 0, 74, 70
2,44880, Note_on_c, 0, 67, 47
2,44891, Control_c, 0, 64, 93
2,44906, Control_c, 0, 64, 70
2,44910, Note_on_c, 0, 67, 0
2,44921, Control_c, 0, 64, 55
2,44936, Control_c, 0, 64, 0
2,44936, Note_on_c, 0, 69, 60
2,45002, Note_on_c, 0, 69, 0
2,45015, Note_on_c, 0, 70, 60
2,45052, Note_on_c, 0, 81, 86
2,45094, Note_on_c, 0, 70, 0
2,45107, Note_on_c, 0, 69, 53
2,45139, Note_on_c, 0, 74, 0
2,45179, Note_on_c, 0, 69, 0
2,45200, Note_on_c, 0, 70, 66
2,45247, Note_on_c, 0, 70, 0
2,45272, Note_on_c, 0, 69, 57
2,45324, Note_on_c, 0, 69, 0
2,45341, Note_on_c, 0, 73, 75
2,45347, Note_on_c, 0, 70, 67
2,45369, Control_c, 0, 64, 24
2,45374, Note_on_c, 0, 73, 0
2,45382, Note_on_c, 0, 70, 0
2,45385, Control_c, 0, 64, 38
2,45399, Control_c, 0, 64, 43
2,45414, Control_c, 0, 64, 45
2,45430, Control_c, 0, 64, 46
2,45434, Note_on_c, 0, 69, 54
2,45460, Control_c, 0, 64, 47
2,45470, Note_on_c, 0, 69, 0
2,45475, Control_c, 0, 64, 48
2,45492, Note_on_c, 0, 67, 60
2,45529, Note_on_c, 0, 67, 0
2,45564, Note_on_c, 0, 69, 54
2,45568, Note_on_c, 0, 81, 0
2,45596, Control_c, 0, 64, 34
2,45605, Note_on_c, 0, 69, 0
2,45611, Control_c, 0, 64, 0
2,45616, Note_on_c, 0, 70, 67
2,45616, Note_on_c, 0, 77, 95
2,45627, Note_on_c, 0, 74, 78
2,45642, Note_on_c, 0, 70, 0
2,45719, Control_c, 0, 64, 32
2,45734, Control_c, 0, 64, 62
2,45749, Control_c, 0, 64, 73
2,45762, Note_on_c, 0, 74, 0
2,45764, Control_c, 0, 64, 93
2,45776, Note_on_c, 0, 58, 75
2,45780, Control_c, 0, 64, 127
2,45853, Note_on_c, 0, 58, 0
2,45862, Note_on_c, 0, 60, 78
2,45894, Control_c, 0, 64, 102
2,45909, Control_c, 0, 64, 74
2,45919, Note_on_c, 0, 60, 0
2,45924, Control_c, 0, 64, 53
2,45926, Note_on_c, 0, 62, 72
2,45940, Control_c, 0, 64, 0
2,45989, Note_on_c, 0, 62, 0
2,45993, Note_on_c, 0, 60, 72
2,46070, Note_on_c, 0, 58, 78
2,46073, Note_on_c, 0, 60, 0
2,46110, Note_on_c, 0, 58, 0
2,46132, Note_on_c, 0, 57, 71
2,46164, Note_on_c, 0, 77, 0
2,46197, Note_on_c, 0, 82, 96
2,46207, Note_on_c, 0, 57, 0
2,46213, Note_on_c, 0, 55, 81
2,46290, Note_on_c, 0, 53, 76
2,46296, Note_on_c, 0, 55, 0
2,46371, Note_on_c, 0, 55, 78
2,46375, Note_on_c, 0, 53, 0
2,46433, Note_on_c, 0, 55, 0
2,46443, Note_on_c, 0, 82, 0
2,46452, Note_on_c, 0, 57, 74
2,46457, Control_c, 0, 64, 42
2,46472, Control_c, 0, 64, 57
2,46487, Control_c, 0, 64, 59
2,46506, Note_on_c, 0, 57, 0
2,46509, Note_on_c, 0, 58, 78
2,46516, Control_c, 0, 64, 56
2,46531, Control_c, 0, 64, 54
2,46546, Control_c, 0, 64, 51
2,46561, Control_c, 0, 64, 50
2,46571, Note_on_c, 0, 58, 0
2,46576, Control_c, 0, 64, 50
2,46581, Note_on_c, 0, 57, 78
2,46599, Control_c, 0, 64, 49
2,46615, Control_c, 0, 64, 48
2,46630, Control_c, 0, 64, 46
2,46645, Control_c, 0, 64, 45
2,46649, Note_on_c, 0, 57, 0
2,46655, Note_on_c, 0, 55, 79
2,46660, Control_c, 0, 64, 44
2,46676, Control_c, 0, 64, 43
2,46691, Control_c, 0, 64, 43
2,46707, Control_c, 0, 64, 40
2,46721, Control_c, 0, 64, 34
2,46721, Note_on_c, 0, 53, 75
2,46736, Control_c, 0, 64, 17
2,46752, Control_c, 0, 64, 0
2,46758, Note_on_c, 0, 55, 0
2,46780, Note_on_c, 0, 52, 75
2,46789, Note_on_c, 0, 73, 91
2,46795, Note_on_c, 0, 53, 0
2,46862, Note_on_c, 0, 53, 82
2,46881, Note_on_c, 0, 52, 0
2,46933, Note_on_c, 0, 55, 92
2,46941, Note_on_c, 0, 53, 0
2,47081, Note_on_c, 0, 70, 95
2,47158, Note_on_c, 0, 53, 72
2,47168, Note_on_c, 0, 55, 0
2,47180, Note_on_c, 0, 70, 0
2,47208, Note_on_c, 0, 53, 0
2,47228, Note_on_c, 0, 52, 70
2,47290, Note_on_c, 0, 52, 0
2,47298, Note_on_c, 0, 50, 73
2,47367, Note_on_c, 0, 49, 75
2,47376, Note_on_c, 0, 50, 0
2,47383, Note_on_c, 0, 64, 94
2,47422, Note_on_c, 0, 50, 75
2,47423, Note_on_c, 0, 64, 0
2,47434, Note_on_c, 0, 49, 0
2,47509, Note_on_c, 0, 50, 0
2,47511, Note_on_c, 0, 52, 79
2,47678, Note_on_c, 0, 67, 89
2,47722, Note_on_c, 0, 67, 0
2,47743, Note_on_c, 0, 52, 0
2,47752, Note_on_c, 0, 50, 61
2,47820, Note_on_c, 0, 49, 57
2,47841, Note_on_c, 0, 50, 0
2,47887, Note_on_c, 0, 49, 0
2,47890, Note_on_c, 0, 47, 60
2,47966, Note_on_c, 0, 45, 81
2,47970, Note_on_c, 0, 61, 88
2,47971, Note_on_c, 0, 47, 0
2,47993, Note_on_c, 0, 73, 0
2,48011, Note_on_c, 0, 61, 0
2,48024, Control_c, 0, 64, 50
2,48039, Control_c, 0, 64, 66
2,48053, Control_c, 0, 64, 78
2,48069, Control_c, 0, 64, 127
2,48244, Control_c, 0, 64, 87
2,48260, Control_c, 0, 64, 68
2,48272, Note_on_c, 0, 79, 95
2,48273, Note_on_c, 0, 76, 91
2,48275, Control_c, 0, 64, 52
2,48289, Control_c, 0, 64, 0
2,48311, Note_on_c, 0, 76, 0
2,48317, Note_on_c, 0, 79, 0
2,48408, Note_on_c, 0, 45, 0
2,48411, Note_on_c, 0, 47, 65
2,48482, Note_on_c, 0, 47, 0
2,48485, Note_on_c, 0, 49, 73
2,48551, Note_on_c, 0, 69, 87
2,48555, Note_on_c, 0, 76, 95
2,48562, Note_on_c, 0, 49, 0
2,48562, Note_on_c, 0, 50, 79
2,48626, Note_on_c, 0, 49, 71
2,48632, Note_on_c, 0, 50, 0
2,48645, Note_on_c, 0, 76, 0
2,48700, Note_on_c, 0, 49, 0
2,48704, Note_on_c, 0, 50, 76
2,48775, Note_on_c, 0, 50, 0
2,48777, Note_on_c, 0, 49, 74
2,48846, Note_on_c, 0, 81, 92
2,48849, Note_on_c, 0, 49, 0
2,48855, Note_on_c, 0, 50, 78
2,48872, Note_on_c, 0, 78, 51
2,48873, Note_on_c, 0, 78, 0
2,48911, Note_on_c, 0, 81, 0
2,48934, Note_on_c, 0, 49, 75
2,48936, Note_on_c, 0, 50, 0
2,49002, Note_on_c, 0, 47, 74
2,49007, Note_on_c, 0, 49, 0
2,49075, Note_on_c, 0, 49, 71
2,49081, Note_on_c, 0, 47, 0
2,49133, Note_on_c, 0, 77, 97
2,49149, Note_on_c, 0, 50, 81
2,49155, Note_on_c, 0, 49, 0
2,49159, Note_on_c, 0, 69, 0
2,49180, Control_c, 0, 64, 42
2,49195, Control_c, 0, 64, 38
2,49209, Note_on_c, 0, 50, 0
2,49215, Note_on_c, 0, 52, 90
2,49225, Control_c, 0, 64, 38
2,49240, Control_c, 0, 64, 37
2,49289, Note_on_c, 0, 53, 95
2,49303, Note_on_c, 0, 52, 0
2,49317, Control_c, 0, 64, 36
2,49342, Note_on_c, 0, 77, 0
2,49347, Control_c, 0, 64, 36
2,49362, Control_c, 0, 64, 35
2,49377, Control_c, 0, 64, 35
2,49393, Control_c, 0, 64, 33
2,49407, Control_c, 0, 64, 32
2,49423, Control_c, 0, 64, 30
2,49438, Control_c, 0, 64, 28
2,49441, Note_on_c, 0, 69, 91
2,49442, Note_on_c, 0, 74, 91
2,49453, Control_c, 0, 64, 26
2,49468, Control_c, 0, 64, 23
2,49483, Control_c, 0, 64, 21
2,49494, Note_on_c, 0, 69, 0
2,49499, Control_c, 0, 64, 19
2,49514, Control_c, 0, 64, 13
2,49527, Note_on_c, 0, 52, 74
2,49529, Control_c, 0, 64, 0
2,49534, Note_on_c, 0, 53, 0
2,49564, Note_on_c, 0, 52, 0
2,49598, Note_on_c, 0, 50, 78
2,49657, Note_on_c, 0, 50, 0
2,49678, Note_on_c, 0, 48, 73
2,49739, Note_on_c, 0, 62, 90
2,49742, Note_on_c, 0, 47, 72
2,49742, Note_on_c, 0, 48, 0
2,49767, Note_on_c, 0, 62, 0
2,49814, Note_on_c, 0, 47, 0
2,49819, Note_on_c, 0, 48, 75
2,49894, Note_on_c, 0, 48, 0
2,49897, Note_on_c, 0, 50, 79
2,50032, Note_on_c, 0, 65, 86
2,50063, Note_on_c, 0, 65, 0
2,50084, Note_on_c, 0, 50, 0
2,50096, Note_on_c, 0, 48, 70
2,50125, Note_on_c, 0, 74, 0
2,50161, Note_on_c, 0, 47, 63
2,50188, Note_on_c, 0, 48, 0
2,50228, Note_on_c, 0, 45, 65
2,50228, Note_on_c, 0, 47, 0
2,50314, Note_on_c, 0, 43, 80
2,50316, Note_on_c, 0, 45, 0
2,50323, Note_on_c, 0, 59, 89
2,50362, Note_on_c, 0, 59, 0
2,50372, Control_c, 0, 64, 36
2,50384, Note_on_c, 0, 70, 10
2,50385, Note_on_c, 0, 70, 0
2,50387, Control_c, 0, 64, 39
2,50402, Control_c, 0, 64, 46
2,50417, Control_c, 0, 64, 51
2,50441, Control_c, 0, 64, 52
2,50503, Control_c, 0, 64, 50
2,50517, Control_c, 0, 64, 47
2,50532, Control_c, 0, 64, 46
2,50549, Control_c, 0, 64, 44
2,50564, Control_c, 0, 64, 44
2,50580, Control_c, 0, 64, 43
2,50595, Control_c, 0, 64, 43
2,50610, Control_c, 0, 64, 42
2,50625, Control_c, 0, 64, 40
2,50628, Note_on_c, 0, 74, 89
2,50628, Note_on_c, 0, 77, 91
2,50640, Control_c, 0, 64, 35
2,50652, Note_on_c, 0, 74, 0
2,50655, Control_c, 0, 64, 26
2,50669, Note_on_c, 0, 77, 0
2,50671, Control_c, 0, 64, 0
2,50743, Note_on_c, 0, 43, 0
2,50760, Note_on_c, 0, 45, 64
2,50835, Note_on_c, 0, 45, 0
2,50842, Note_on_c, 0, 47, 63
2,50894, Note_on_c, 0, 67, 91
2,50894, Note_on_c, 0, 74, 91
2,50910, Note_on_c, 0, 48, 77
2,50911, Note_on_c, 0, 47, 0
2,50972, Note_on_c, 0, 74, 0
2,50975, Note_on_c, 0, 48, 0
2,50976, Note_on_c, 0, 47, 72
2,51046, Note_on_c, 0, 48, 68
2,51048, Note_on_c, 0, 47, 0
2,51122, Note_on_c, 0, 47, 65
2,51122, Note_on_c, 0, 48, 0
2,51213, Note_on_c, 0, 47, 0
2,51216, Note_on_c, 0, 79, 94
2,51222, Note_on_c, 0, 48, 86
2,51262, Note_on_c, 0, 79, 0
2,51287, Note_on_c, 0, 48, 0
2,51289, Note_on_c, 0, 47, 67
2,51357, Note_on_c, 0, 47, 0
2,51366, Note_on_c, 0, 45, 71
2,51405, Note_on_c, 0, 45, 0
2,51433, Note_on_c, 0, 47, 45
2,51491, Note_on_c, 0, 47, 0
2,51497, Note_on_c, 0, 76, 97
2,51504, Note_on_c, 0, 48, 91
2,51539, Note_on_c, 0, 67, 0
2,51542, Control_c, 0, 64, 53
2,51547, Note_on_c, 0, 48, 0
2,51558, Control_c, 0, 64, 61
2,51573, Control_c, 0, 64, 69
2,51588, Control_c, 0, 64, 83
2,51600, Note_on_c, 0, 76, 0
2,51603, Control_c, 0, 64, 117
2,51618, Control_c, 0, 64, 127
2,51679, Control_c, 0, 64, 118
2,51694, Control_c, 0, 64, 97
2,51710, Control_c, 0, 64, 83
2,51725, Control_c, 0, 64, 71
2,51739, Control_c, 0, 64, 61
2,51755, Control_c, 0, 64, 0
2,51791, Note_on_c, 0, 72, 90
2,51822, Note_on_c, 0, 72, 0
2,51894, Note_on_c, 0, 60, 74
2,51947, Note_on_c, 0, 60, 0
2,51947, Note_on_c, 0, 62, 77
2,52005, Note_on_c, 0, 62, 0
2,52007, Note_on_c, 0, 64, 83
2,52074, Note_on_c, 0, 64, 0
2,52075, Note_on_c, 0, 65, 92
2,52083, Note_on_c, 0, 69, 95
2,52109, Note_on_c, 0, 65, 0
2,52142, Note_on_c, 0, 69, 0
2,52366, Note_on_c, 0, 77, 91
2,52407, Note_on_c, 0, 77, 0
2,52439, Note_on_c, 0, 64, 70
2,52490, Note_on_c, 0, 64, 0
2,52500, Note_on_c, 0, 62, 70
2,52564, Note_on_c, 0, 62, 0
2,52569, Note_on_c, 0, 60, 71
2,52641, Note_on_c, 0, 59, 90
2,52644, Note_on_c, 0, 74, 91
2,52655, Note_on_c, 0, 60, 0
2,52675, Note_on_c, 0, 59, 0
2,52717, Note_on_c, 0, 74, 0
2,52919, Note_on_c, 0, 71, 82
2,52926, Note_on_c, 0, 62, 70
2,52955, Note_on_c, 0, 62, 0
2,52965, Note_on_c, 0, 71, 0
2,53011, Note_on_c, 0, 47, 70
2,53069, Note_on_c, 0, 47, 0
2,53069, Note_on_c, 0, 48, 82
2,53124, Note_on_c, 0, 48, 0
2,53130, Note_on_c, 0, 50, 76
2,53198, Note_on_c, 0, 52, 93
2,53200, Note_on_c, 0, 68, 87
2,53203, Note_on_c, 0, 59, 82
2,53229, Note_on_c, 0, 50, 0
2,53231, Note_on_c, 0, 59, 0
2,53242, Note_on_c, 0, 52, 0
2,53257, Note_on_c, 0, 68, 0
2,53474, Note_on_c, 0, 68, 84
2,53475, Note_on_c, 0, 76, 78
2,53506, Note_on_c, 0, 68, 0
2,53520, Note_on_c, 0, 76, 0
2,53564, Note_on_c, 0, 50, 69
2,53632, Note_on_c, 0, 48, 70
2,53662, Note_on_c, 0, 50, 0
2,53704, Note_on_c, 0, 47, 69
2,53708, Note_on_c, 0, 48, 0
2,53777, Note_on_c, 0, 72, 90
2,53778, Note_on_c, 0, 45, 85
2,53779, Note_on_c, 0, 69, 85
2,53792, Note_on_c, 0, 47, 0
2,53953, Note_on_c, 0, 45, 0
2,53968, Note_on_c, 0, 47, 68
2,54015, Note_on_c, 0, 69, 0
2,54031, Note_on_c, 0, 47, 0
2,54038, Note_on_c, 0, 48, 66
2,54089, Note_on_c, 0, 50, 76
2,54090, Note_on_c, 0, 48, 0
2,54136, Note_on_c, 0, 50, 0
2,54161, Note_on_c, 0, 52, 66
2,54226, Note_on_c, 0, 52, 0
2,54232, Note_on_c, 0, 54, 69
2,54281, Note_on_c, 0, 54, 0
2,54293, Note_on_c, 0, 56, 65
2,54358, Note_on_c, 0, 72, 0
2,54365, Note_on_c, 0, 56, 0
2,54380, Note_on_c, 0, 57, 65
2,54448, Note_on_c, 0, 71, 64
2,54523, Note_on_c, 0, 71, 0
2,54524, Note_on_c, 0, 69, 67
2,54591, Note_on_c, 0, 67, 77
2,54595, Note_on_c, 0, 69, 0
2,54648, Note_on_c, 0, 67, 0
2,54659, Note_on_c, 0, 65, 74
2,54662, Control_c, 0, 64, 19
2,54677, Control_c, 0, 64, 26
2,54692, Control_c, 0, 64, 29
2,54707, Control_c, 0, 64, 31
2,54722, Control_c, 0, 64, 32
2,54724, Note_on_c, 0, 65, 0
2,54725, Note_on_c, 0, 64, 81
2,54737, Control_c, 0, 64, 35
2,54753, Control_c, 0, 64, 38
2,54768, Control_c, 0, 64, 40
2,54784, Control_c, 0, 64, 41
2,54787, Note_on_c, 0, 64, 0
2,54793, Note_on_c, 0, 62, 78
2,54798, Control_c, 0, 64, 43
2,54813, Control_c, 0, 64, 46
2,54829, Control_c, 0, 64, 48
2,54843, Note_on_c, 0, 62, 0
2,54844, Control_c, 0, 64, 50
2,54859, Note_on_c, 0, 60, 74
2,54860, Control_c, 0, 64, 51
2,54875, Control_c, 0, 64, 52
2,54881, Note_on_c, 0, 60, 0
2,54890, Control_c, 0, 64, 53
2,54924, Note_on_c, 0, 62, 85
2,54951, Control_c, 0, 64, 47
2,54965, Control_c, 0, 64, 21
2,54966, Note_on_c, 0, 57, 0
2,54981, Control_c, 0, 64, 0
2,55008, Note_on_c, 0, 71, 79
2,55080, Note_on_c, 0, 72, 80
2,55082, Note_on_c, 0, 71, 0
2,55094, Control_c, 0, 64, 41
2,55110, Control_c, 0, 64, 56
2,55125, Control_c, 0, 64, 60
2,55141, Control_c, 0, 64, 61
2,55146, Note_on_c, 0, 74, 81
2,55153, Note_on_c, 0, 72, 0
2,55156, Control_c, 0, 64, 62
2,55170, Control_c, 0, 64, 63
2,55183, Note_on_c, 0, 74, 0
2,55186, Control_c, 0, 64, 63
2,55209, Note_on_c, 0, 62, 0
2,55214, Note_on_c, 0, 59, 77
2,55216, Note_on_c, 0, 76, 86
2,55227, Note_on_c, 0, 56, 74
2,55262, Control_c, 0, 64, 63
2,55277, Control_c, 0, 64, 62
2,55284, Note_on_c, 0, 78, 85
2,55288, Note_on_c, 0, 76, 0
2,55292, Control_c, 0, 64, 60
2,55293, Note_on_c, 0, 59, 0
2,55307, Control_c, 0, 64, 56
2,55322, Control_c, 0, 64, 48
2,55337, Control_c, 0, 64, 19
2,55343, Note_on_c, 0, 80, 83
2,55351, Note_on_c, 0, 57, 83
2,55353, Control_c, 0, 64, 0
2,55364, Note_on_c, 0, 54, 73
2,55367, Note_on_c, 0, 78, 0
2,55369, Note_on_c, 0, 56, 0
2,55388, Note_on_c, 0, 54, 0
2,55402, Note_on_c, 0, 80, 0
2,55422, Note_on_c, 0, 81, 82
2,55460, Note_on_c, 0, 57, 0
2,55493, Note_on_c, 0, 83, 89
2,55502, Note_on_c, 0, 56, 91
2,55503, Note_on_c, 0, 81, 0
2,55504, Note_on_c, 0, 52, 87
2,55566, Note_on_c, 0, 55, 49
2,55585, Note_on_c, 0, 81, 85
2,55597, Control_c, 0, 64, 43
2,55604, Note_on_c, 0, 83, 0
2,55642, Control_c, 0, 64, 44
2,55650, Note_on_c, 0, 52, 0
2,55651, Note_on_c, 0, 80, 84
2,55657, Control_c, 0, 64, 47
2,55661, Note_on_c, 0, 81, 0
2,55673, Control_c, 0, 64, 49
2,55688, Control_c, 0, 64, 52
2,55704, Control_c, 0, 64, 54
2,55719, Control_c, 0, 64, 54
2,55725, Note_on_c, 0, 78, 77
2,55736, Note_on_c, 0, 80, 0
2,55753, Note_on_c, 0, 55, 0
2,55756, Note_on_c, 0, 56, 0
2,55764, Control_c, 0, 64, 45
2,55780, Control_c, 0, 64, 0
2,55782, Note_on_c, 0, 78, 0
2,55799, Note_on_c, 0, 76, 75
2,55802, Note_on_c, 0, 50, 97
2,55855, Note_on_c, 0, 76, 0
2,55880, Note_on_c, 0, 74, 79
2,55892, Control_c, 0, 64, 19
2,55908, Control_c, 0, 64, 55
2,55923, Control_c, 0, 64, 62
2,55937, Control_c, 0, 64, 65
2,55942, Note_on_c, 0, 50, 0
2,55953, Control_c, 0, 64, 68
2,55967, Note_on_c, 0, 72, 73
2,55968, Control_c, 0, 64, 72
2,55984, Control_c, 0, 64, 74
2,55996, Note_on_c, 0, 74, 0
2,55999, Control_c, 0, 64, 74
2,56031, Note_on_c, 0, 71, 63
2,56031, Note_on_c, 0, 72, 0
2,56075, Control_c, 0, 64, 74
2,56089, Control_c, 0, 64, 69
2,56096, Note_on_c, 0, 71, 0
2,56105, Control_c, 0, 64, 56
2,56106, Note_on_c, 0, 76, 74
2,56120, Control_c, 0, 64, 0
2,56133, Note_on_c, 0, 48, 95
2,56137, Note_on_c, 0, 57, 88
2,56185, Note_on_c, 0, 74, 73
2,56199, Note_on_c, 0, 76, 0
2,56241, Note_on_c, 0, 57, 0
2,56253, Note_on_c, 0, 72, 78
2,56256, Control_c, 0, 64, 46
2,56269, Note_on_c, 0, 74, 0
2,56328, Note_on_c, 0, 71, 86
2,56331, Note_on_c, 0, 72, 0
2,56333, Control_c, 0, 64, 47
2,56393, Note_on_c, 0, 71, 0
2,56410, Note_on_c, 0, 69, 78
2,56471, Control_c, 0, 64, 47
2,56475, Note_on_c, 0, 69, 0
2,56478, Note_on_c, 0, 68, 80
2,56546, Note_on_c, 0, 68, 0
2,56548, Note_on_c, 0, 66, 81
2,56562, Control_c, 0, 64, 47
2,56612, Note_on_c, 0, 66, 0
2,56624, Note_on_c, 0, 64, 81
2,56639, Note_on_c, 0, 48, 0
2,56645, Control_c, 0, 64, 47
2,56661, Control_c, 0, 64, 46
2,56676, Control_c, 0, 64, 34
2,56685, Note_on_c, 0, 64, 0
2,56691, Control_c, 0, 64, 0
2,56700, Note_on_c, 0, 53, 95
2,56701, Note_on_c, 0, 69, 86
2,56782, Note_on_c, 0, 67, 86
2,56795, Note_on_c, 0, 69, 0
2,56828, Control_c, 0, 64, 50
2,56843, Control_c, 0, 64, 52
2,56860, Note_on_c, 0, 65, 82
2,56869, Note_on_c, 0, 67, 0
2,56931, Note_on_c, 0, 64, 80
2,56939, Note_on_c, 0, 65, 0
2,57000, Note_on_c, 0, 62, 81
2,57000, Note_on_c, 0, 64, 0
2,57067, Note_on_c, 0, 53, 0
2,57070, Note_on_c, 0, 60, 83
2,57073, Note_on_c, 0, 62, 0
2,57133, Note_on_c, 0, 60, 0
2,57141, Note_on_c, 0, 59, 82
2,57177, Control_c, 0, 64, 51
2,57190, Note_on_c, 0, 59, 0
2,57193, Control_c, 0, 64, 47
2,57208, Control_c, 0, 64, 33
2,57213, Note_on_c, 0, 57, 74
2,57223, Control_c, 0, 64, 0
2,57273, Note_on_c, 0, 44, 92
2,57273, Note_on_c, 0, 57, 0
2,57288, Note_on_c, 0, 65, 85
2,57391, Note_on_c, 0, 64, 84
2,57406, Note_on_c, 0, 65, 0
2,57458, Note_on_c, 0, 62, 87
2,57486, Note_on_c, 0, 64, 0
2,57490, Control_c, 0, 64, 40
2,57505, Control_c, 0, 64, 42
2,57520, Control_c, 0, 64, 51
2,57523, Note_on_c, 0, 62, 0
2,57526, Note_on_c, 0, 60, 82
2,57535, Control_c, 0, 64, 59
2,57551, Control_c, 0, 64, 63
2,57565, Note_on_c, 0, 44, 0
2,57566, Control_c, 0, 64, 66
2,57581, Control_c, 0, 64, 70
2,57583, Note_on_c, 0, 60, 0
2,57590, Note_on_c, 0, 59, 85
2,57596, Control_c, 0, 64, 72
2,57611, Control_c, 0, 64, 74
2,57664, Note_on_c, 0, 59, 0
2,57666, Note_on_c, 0, 57, 83
2,57687, Control_c, 0, 64, 70
2,57691, Note_on_c, 0, 57, 0
2,57697, Note_on_c, 0, 56, 70
2,57703, Control_c, 0, 64, 63
2,57718, Control_c, 0, 64, 26
2,57733, Control_c, 0, 64, 0
2,57758, Note_on_c, 0, 54, 81
2,57773, Note_on_c, 0, 56, 0
2,57835, Note_on_c, 0, 54, 0
2,57842, Note_on_c, 0, 62, 82
2,57914, Note_on_c, 0, 60, 81
2,57933, Note_on_c, 0, 62, 0
2,57971, Note_on_c, 0, 59, 77
2,57976, Note_on_c, 0, 60, 0
2,58034, Note_on_c, 0, 59, 0
2,58046, Note_on_c, 0, 57, 80
2,58116, Note_on_c, 0, 56, 79
2,58122, Note_on_c, 0, 57, 0
2,58183, Note_on_c, 0, 54, 83
2,58183, Note_on_c, 0, 56, 0
2,58247, Note_on_c, 0, 54, 0
2,58248, Note_on_c, 0, 52, 77
2,58308, Note_on_c, 0, 51, 81
2,58320, Note_on_c, 0, 52, 0
2,58390, Note_on_c, 0, 52, 90
2,58416, Note_on_c, 0, 51, 0
2,58699, Note_on_c, 0, 50, 79
2,58731, Note_on_c, 0, 50, 0
2,58791, Note_on_c, 0, 64, 70
2,58842, Note_on_c, 0, 64, 0
2,58855, Note_on_c, 0, 66, 76
2,58923, Note_on_c, 0, 66, 0
2,58924, Note_on_c, 0, 68, 76
2,58971, Note_on_c, 0, 52, 0
2,58996, Note_on_c, 0, 69, 83
2,58998, Note_on_c, 0, 47, 78
2,59000, Note_on_c, 0, 68, 0
2,59024, Note_on_c, 0, 47, 0
2,59071, Note_on_c, 0, 68, 81
2,59077, Note_on_c, 0, 69, 0
2,59143, Note_on_c, 0, 69, 81
2,59144, Note_on_c, 0, 68, 0
2,59220, Note_on_c, 0, 69, 0
2,59225, Note_on_c, 0, 68, 79
2,59284, Note_on_c, 0, 69, 79
2,59289, Note_on_c, 0, 68, 0
2,59296, Note_on_c, 0, 52, 81
2,59323, Note_on_c, 0, 52, 0
2,59367, Note_on_c, 0, 68, 83
2,59367, Note_on_c, 0, 69, 0
2,59432, Note_on_c, 0, 68, 0
2,59440, Note_on_c, 0, 66, 80
2,59514, Note_on_c, 0, 66, 0
2,59515, Note_on_c, 0, 68, 81
2,59593, Note_on_c, 0, 48, 87
2,59597, Note_on_c, 0, 68, 0
2,59597, Note_on_c, 0, 69, 84
2,59637, Note_on_c, 0, 48, 0
2,59747, Control_c, 0, 64, 16
2,59761, Control_c, 0, 64, 21
2,59776, Control_c, 0, 64, 24
2,59792, Control_c, 0, 64, 26
2,59807, Control_c, 0, 64, 30
2,59822, Control_c, 0, 64, 32
2,59838, Control_c, 0, 64, 34
2,59904, Note_on_c, 0, 45, 79
2,59929, Control_c, 0, 64, 34
2,59930, Note_on_c, 0, 45, 0
2,59974, Control_c, 0, 64, 35
2,59997, Note_on_c, 0, 59, 81
2,60065, Control_c, 0, 64, 35
2,60069, Note_on_c, 0, 60, 84
2,60079, Note_on_c, 0, 59, 0
2,60096, Control_c, 0, 64, 36
2,60111, Control_c, 0, 64, 36
2,60126, Control_c, 0, 64, 37
2,60134, Note_on_c, 0, 60, 0
2,60140, Note_on_c, 0, 62, 80
2,60199, Note_on_c, 0, 40, 86
2,60205, Note_on_c, 0, 61, 91
2,60217, Control_c, 0, 64, 37
2,60222, Note_on_c, 0, 62, 0
2,60233, Note_on_c, 0, 40, 0
2,60373, Note_on_c, 0, 61, 0
2,60395, Note_on_c, 0, 62, 77
2,60439, Control_c, 0, 64, 38
2,60464, Note_on_c, 0, 61, 84
2,60468, Note_on_c, 0, 62, 0
2,60484, Control_c, 0, 64, 38
2,60515, Control_c, 0, 64, 39
2,60534, Note_on_c, 0, 61, 0
2,60535, Note_on_c, 0, 69, 0
2,60535, Note_on_c, 0, 69, 9
2,60536, Note_on_c, 0, 43, 80
2,60541, Note_on_c, 0, 62, 85
2,60567, Note_on_c, 0, 43, 0
2,60575, Control_c, 0, 64, 40
2,60591, Control_c, 0, 64, 41
2,60605, Control_c, 0, 64, 41
2,60609, Note_on_c, 0, 61, 84
2,60617, Note_on_c, 0, 62, 0
2,60620, Control_c, 0, 64, 42
2,60669, Control_c, 0, 64, 43
2,60679, Note_on_c, 0, 61, 0
2,60683, Note_on_c, 0, 59, 84
2,60729, Control_c, 0, 64, 43
2,60759, Note_on_c, 0, 61, 85
2,60762, Note_on_c, 0, 59, 0
2,60841, Note_on_c, 0, 41, 82
2,60850, Note_on_c, 0, 62, 86
2,60857, Note_on_c, 0, 61, 0
2,60877, Note_on_c, 0, 69, 0
2,60922, Note_on_c, 0, 40, 84
2,60931, Note_on_c, 0, 41, 0
2,60998, Note_on_c, 0, 38, 85
2,61012, Note_on_c, 0, 40, 0
2,61078, Control_c, 0, 64, 43
2,61093, Control_c, 0, 64, 38
2,61109, Control_c, 0, 64, 19
2,61124, Control_c, 0, 64, 0
2,61164, Note_on_c, 0, 62, 0
2,61177, Note_on_c, 0, 65, 88
2,61177, Note_on_c, 0, 71, 90
2,61301, Control_c, 0, 64, 58
2,61304, Note_on_c, 0, 71, 0
2,61315, Control_c, 0, 64, 67
2,61322, Note_on_c, 0, 65, 0
2,61330, Control_c, 0, 64, 88
2,61346, Control_c, 0, 64, 127
2,61346, Note_on_c, 0, 40, 71
2,61356, Note_on_c, 0, 38, 0
2,61422, Note_on_c, 0, 41, 78
2,61425, Note_on_c, 0, 40, 0
2,61508, Note_on_c, 0, 38, 81
2,61513, Control_c, 0, 64, 71
2,61519, Note_on_c, 0, 41, 0
2,61521, Note_on_c, 0, 56, 87
2,61521, Note_on_c, 0, 64, 97
2,61527, Control_c, 0, 64, 0
2,61604, Note_on_c, 0, 40, 84
2,61626, Note_on_c, 0, 38, 0
2,61665, Control_c, 0, 64, 24
2,61680, Control_c, 0, 64, 32
2,61695, Control_c, 0, 64, 45
2,61707, Note_on_c, 0, 41, 87
2,61711, Control_c, 0, 64, 54
2,61725, Control_c, 0, 64, 58
2,61726, Note_on_c, 0, 40, 0
2,61737, Note_on_c, 0, 56, 0
2,61741, Control_c, 0, 64, 60
2,61756, Control_c, 0, 64, 62
2,61801, Note_on_c, 0, 40, 85
2,61825, Note_on_c, 0, 41, 0
2,61884, Note_on_c, 0, 64, 0
2,61903, Note_on_c, 0, 68, 94
2,61905, Note_on_c, 0, 59, 88
2,61908, Control_c, 0, 64, 59
2,61910, Note_on_c, 0, 41, 92
2,61922, Control_c, 0, 64, 31
2,61929, Note_on_c, 0, 40, 0
2,61937, Control_c, 0, 64, 0
2,62044, Note_on_c, 0, 40, 83
2,62069, Note_on_c, 0, 41, 0
2,62185, Note_on_c, 0, 38, 88
2,62214, Note_on_c, 0, 40, 0
2,62229, Note_on_c, 0, 59, 0
2,62337, Note_on_c, 0, 40, 83
2,62381, Note_on_c, 0, 38, 0
2,62464, Control_c, 0, 64, 30
2,62479, Control_c, 0, 64, 50
2,62493, Control_c, 0, 64, 62
2,62509, Control_c, 0, 64, 75
2,62509, Note_on_c, 0, 68, 0
2,62524, Control_c, 0, 64, 127
2,62598, Note_on_c, 0, 40, 0
2,62734, Note_on_c, 0, 69, 88
2,62737, Note_on_c, 0, 64, 88
2,62741, Note_on_c, 0, 61, 84
2,62742, Note_on_c, 0, 33, 90
2,62742, Note_on_c, 0, 45, 92
2,62835, Control_c, 0, 64, 84
2,62850, Control_c, 0, 64, 60
2,62866, Control_c, 0, 64, 0
2,63616, Control_c, 0, 64, 12
2,63632, Control_c, 0, 64, 13
2,63648, Control_c, 0, 64, 16
2,63664, Control_c, 0, 64, 17
2,63679, Control_c, 0, 64, 21
2,63694, Control_c, 0, 64, 24
2,63710, Control_c, 0, 64, 27
2,63724, Control_c, 0, 64, 29
2,63740, Control_c, 0, 64, 31
2,63755, Control_c, 0, 64, 32
2,63769, Control_c, 0, 64, 32
2,63785, Control_c, 0, 64, 33
2,63815, Control_c, 0, 64, 33
2,63831, Control_c, 0, 64, 35
2,63845, Control_c, 0, 64, 36
2,63861, Control_c, 0, 64, 37
2,63907, Control_c, 0, 64, 37
2,63952, Control_c, 0, 64, 38
2,64195, Control_c, 0, 64, 38
2,64341, Control_c, 0, 64, 39
2,64759, Control_c, 0, 64, 37
2,64767, Note_on_c, 0, 69, 0
2,64775, Control_c, 0, 64, 34
2,64780, Note_on_c, 0, 61, 0
2,64782, Note_on_c, 0, 64, 0
2,64790, Control_c, 0, 64, 30
2,64792, Note_on_c, 0, 33, 0
2,64806, Control_c, 0, 64, 23
2,64807, Note_on_c, 0, 45, 0
2,64820, Control_c, 0, 64, 0
2,65558, Control_c, 0, 64, 12
2,65574, Control_c, 0, 64, 16
2,65575, End_track
0, 0, End_of_file
