0, 0, Header, 1, 2, 384
1, 0, Start_track
1, 0, Tempo, 500000
1, 0, Time_signature, 4, 2, 24, 8
1, 1, End_track
2, 0, Start_track
2, 0, Title_t, "7.6.13 Group 3"
2, 0, Program_c, 0, 0
2, 0, Control_c, 0, 64, 80
2, 0, Control_c, 0, 67, 0
2, 12, Control_c, 0, 64, 82
2, 28, Control_c, 0, 64, 83
2, 50, Control_c, 0, 64, 85
2, 66, Control_c, 0, 64, 87
2, 80, Control_c, 0, 64, 92
2, 95, Control_c, 0, 64, 100
2, 111, Control_c, 0, 64, 107
2, 126, Control_c, 0, 64, 115
2, 142, Control_c, 0, 64, 127
2, 730, Control_c, 0, 64, 90
2, 746, Control_c, 0, 64, 74
2, 761, Control_c, 0, 64, 64
2, 776, Control_c, 0, 64, 46
2, 779, Note_on_c, 0, 45, 39
2, 792, Control_c, 0, 64, 0
2, 844, Control_c, 0, 64, 37
2, 859, Control_c, 0, 64, 52
2, 875, Control_c, 0, 64, 59
2, 890, Control_c, 0, 64, 64
2, 901, Note_on_c, 0, 72, 57
2, 906, Control_c, 0, 64, 69
2, 920, Control_c, 0, 64, 80
2, 935, Control_c, 0, 64, 99
2, 951, Control_c, 0, 64, 127
2, 966, Note_on_c, 0, 45, 0
2, 999, Note_on_c, 0, 74, 66
2, 1008, Note_on_c, 0, 72, 0
2, 1081, Note_on_c, 0, 76, 80
2, 1100, Note_on_c, 0, 74, 0
2, 1180, Note_on_c, 0, 57, 51
2, 1183, Note_on_c, 0, 77, 81
2, 1224, Note_on_c, 0, 76, 0
2, 1254, Control_c, 0, 64, 107
2, 1270, Control_c, 0, 64, 94
2, 1286, Control_c, 0, 64, 83
2, 1301, Control_c, 0, 64, 74
2, 1317, Control_c, 0, 64, 67
2, 1332, Control_c, 0, 64, 61
2, 1348, Control_c, 0, 64, 47
2, 1362, Control_c, 0, 64, 21
2, 1367, Note_on_c, 0, 72, 79
2, 1377, Control_c, 0, 64, 0
2, 1436, Note_on_c, 0, 77, 0
2, 1546, Note_on_c, 0, 71, 74
2, 1549, Note_on_c, 0, 56, 53
2, 1615, Note_on_c, 0, 72, 0
2, 1693, Note_on_c, 0, 57, 0
2, 1746, Note_on_c, 0, 75, 82
2, 1841, Note_on_c, 0, 71, 0
2, 1921, Note_on_c, 0, 76, 79
2, 1923, Note_on_c, 0, 55, 51
2, 1991, Note_on_c, 0, 75, 0
2, 2017, Note_on_c, 0, 56, 0
2, 2108, Note_on_c, 0, 70, 72
2, 2181, Note_on_c, 0, 76, 0
2, 2296, Note_on_c, 0, 69, 75
2, 2309, Note_on_c, 0, 54, 47
2, 2375, Note_on_c, 0, 70, 0
2, 2440, Note_on_c, 0, 55, 0
2, 2490, Note_on_c, 0, 73, 74
2, 2571, Note_on_c, 0, 69, 0
2, 2675, Note_on_c, 0, 74, 63
2, 2693, Note_on_c, 0, 53, 42
2, 2736, Note_on_c, 0, 73, 0
2, 2789, Note_on_c, 0, 74, 0
2, 2796, Note_on_c, 0, 54, 0
2, 2861, Note_on_c, 0, 68, 67
2, 3073, Note_on_c, 0, 52, 42
2, 3230, Note_on_c, 0, 53, 0
2, 3244, Note_on_c, 0, 69, 62
2, 3311, Note_on_c, 0, 68, 0
2, 3446, Note_on_c, 0, 50, 45
2, 3575, Note_on_c, 0, 52, 0
2, 3613, Note_on_c, 0, 71, 57
2, 3655, Note_on_c, 0, 69, 0
2, 3681, Control_c, 0, 64, 12
2, 3696, Control_c, 0, 64, 50
2, 3711, Control_c, 0, 64, 57
2, 3726, Control_c, 0, 64, 61
2, 3742, Control_c, 0, 64, 63
2, 3758, Control_c, 0, 64, 66
2, 3772, Control_c, 0, 64, 70
2, 3788, Control_c, 0, 64, 76
2, 3803, Control_c, 0, 64, 82
2, 3815, Note_on_c, 0, 64, 59
2, 3818, Control_c, 0, 64, 89
2, 3827, Note_on_c, 0, 50, 0
2, 3834, Control_c, 0, 64, 95
2, 3849, Control_c, 0, 64, 102
2, 3864, Control_c, 0, 64, 107
2, 3873, Note_on_c, 0, 71, 0
2, 3880, Control_c, 0, 64, 110
2, 3901, Control_c, 0, 64, 113
2, 3917, Control_c, 0, 64, 117
2, 3932, Control_c, 0, 64, 118
2, 3939, Note_on_c, 0, 48, 55
2, 3947, Control_c, 0, 64, 120
2, 4015, Note_on_c, 0, 48, 0
2, 4026, Note_on_c, 0, 50, 61
2, 4039, Control_c, 0, 64, 118
2, 4070, Control_c, 0, 64, 115
2, 4085, Control_c, 0, 64, 107
2, 4099, Control_c, 0, 64, 96
2, 4106, Note_on_c, 0, 52, 67
2, 4107, Note_on_c, 0, 50, 0
2, 4115, Control_c, 0, 64, 84
2, 4130, Control_c, 0, 64, 75
2, 4144, Control_c, 0, 64, 67
2, 4160, Control_c, 0, 64, 59
2, 4175, Control_c, 0, 64, 38
2, 4184, Note_on_c, 0, 69, 65
2, 4191, Control_c, 0, 64, 0
2, 4218, Note_on_c, 0, 53, 70
2, 4258, Note_on_c, 0, 52, 0
2, 4282, Note_on_c, 0, 64, 0
2, 4391, Note_on_c, 0, 48, 74
2, 4520, Note_on_c, 0, 53, 0
2, 4573, Note_on_c, 0, 68, 66
2, 4580, Note_on_c, 0, 47, 65
2, 4636, Note_on_c, 0, 48, 0
2, 4661, Note_on_c, 0, 69, 0
2, 4784, Note_on_c, 0, 51, 68
2, 4850, Note_on_c, 0, 47, 0
2, 4969, Note_on_c, 0, 52, 61
2, 4980, Note_on_c, 0, 67, 64
2, 5006, Note_on_c, 0, 51, 0
2, 5069, Note_on_c, 0, 68, 0
2, 5164, Note_on_c, 0, 46, 62
2, 5224, Note_on_c, 0, 52, 0
2, 5351, Note_on_c, 0, 66, 60
2, 5357, Note_on_c, 0, 45, 58
2, 5390, Note_on_c, 0, 46, 0
2, 5440, Note_on_c, 0, 67, 0
2, 5550, Note_on_c, 0, 49, 53
2, 5576, Note_on_c, 0, 45, 0
2, 5739, Note_on_c, 0, 65, 52
2, 5741, Note_on_c, 0, 49, 0
2, 5741, Note_on_c, 0, 50, 53
2, 5794, Note_on_c, 0, 50, 0
2, 5819, Note_on_c, 0, 66, 0
2, 5935, Note_on_c, 0, 44, 51
2, 6121, Note_on_c, 0, 64, 53
2, 6208, Note_on_c, 0, 65, 0
2, 6221, Control_c, 0, 64, 12
2, 6237, Control_c, 0, 64, 18
2, 6252, Control_c, 0, 64, 21
2, 6268, Control_c, 0, 64, 23
2, 6283, Control_c, 0, 64, 24
2, 6298, Control_c, 0, 64, 24
2, 6312, Note_on_c, 0, 45, 50
2, 6314, Control_c, 0, 64, 26
2, 6329, Control_c, 0, 64, 28
2, 6337, Note_on_c, 0, 64, 0
2, 6343, Control_c, 0, 64, 29
2, 6347, Note_on_c, 0, 44, 0
2, 6359, Control_c, 0, 64, 29
2, 6513, Note_on_c, 0, 62, 59
2, 6632, Control_c, 0, 64, 29
2, 6647, Control_c, 0, 64, 28
2, 6662, Control_c, 0, 64, 27
2, 6677, Control_c, 0, 64, 26
2, 6692, Control_c, 0, 64, 24
2, 6696, Note_on_c, 0, 47, 40
2, 6708, Control_c, 0, 64, 21
2, 6723, Control_c, 0, 64, 18
2, 6738, Control_c, 0, 64, 12
2, 6749, Note_on_c, 0, 45, 0
2, 6754, Control_c, 0, 64, 0
2, 6889, Note_on_c, 0, 47, 0
2, 6897, Note_on_c, 0, 40, 33
2, 7003, Control_c, 0, 64, 17
2, 7019, Control_c, 0, 64, 50
2, 7035, Control_c, 0, 64, 58
2, 7050, Control_c, 0, 64, 62
2, 7059, Note_on_c, 0, 40, 0
2, 7064, Control_c, 0, 64, 64
2, 7079, Note_on_c, 0, 62, 0
2, 7080, Control_c, 0, 64, 68
2, 7094, Note_on_c, 0, 60, 49
2, 7095, Control_c, 0, 64, 73
2, 7111, Control_c, 0, 64, 78
2, 7125, Control_c, 0, 64, 84
2, 7140, Control_c, 0, 64, 89
2, 7154, Note_on_c, 0, 60, 0
2, 7156, Control_c, 0, 64, 93
2, 7171, Control_c, 0, 64, 95
2, 7184, Note_on_c, 0, 59, 48
2, 7185, Control_c, 0, 64, 96
2, 7264, Note_on_c, 0, 45, 48
2, 7264, Note_on_c, 0, 59, 0
2, 7280, Note_on_c, 0, 60, 60
2, 7292, Control_c, 0, 64, 94
2, 7308, Control_c, 0, 64, 89
2, 7322, Control_c, 0, 64, 83
2, 7337, Control_c, 0, 64, 76
2, 7353, Control_c, 0, 64, 70
2, 7356, Note_on_c, 0, 60, 0
2, 7368, Control_c, 0, 64, 62
2, 7383, Control_c, 0, 64, 40
2, 7399, Control_c, 0, 64, 0
2, 7490, Note_on_c, 0, 69, 66
2, 7660, Note_on_c, 0, 47, 48
2, 7772, Note_on_c, 0, 45, 0
2, 7865, Note_on_c, 0, 68, 63
2, 7876, Note_on_c, 0, 69, 0
2, 8059, Note_on_c, 0, 49, 42
2, 8065, Note_on_c, 0, 76, 75
2, 8103, Note_on_c, 0, 68, 0
2, 8141, Note_on_c, 0, 76, 0
2, 8260, Note_on_c, 0, 67, 70
2, 8263, Note_on_c, 0, 47, 0
2, 8441, Note_on_c, 0, 50, 53
2, 8532, Note_on_c, 0, 67, 0
2, 8564, Note_on_c, 0, 49, 0
2, 8584, Control_c, 0, 64, 31
2, 8600, Control_c, 0, 64, 54
2, 8615, Control_c, 0, 64, 59
2, 8622, Note_on_c, 0, 65, 60
2, 8631, Control_c, 0, 64, 61
2, 8646, Control_c, 0, 64, 62
2, 8662, Control_c, 0, 64, 64
2, 8677, Control_c, 0, 64, 65
2, 8692, Control_c, 0, 64, 66
2, 8698, Note_on_c, 0, 65, 0
2, 8708, Control_c, 0, 64, 67
2, 8711, Note_on_c, 0, 64, 71
2, 8717, Note_on_c, 0, 50, 0
2, 8723, Control_c, 0, 64, 68
2, 8783, Note_on_c, 0, 64, 0
2, 8808, Note_on_c, 0, 63, 65
2, 8814, Control_c, 0, 64, 67
2, 8822, Note_on_c, 0, 47, 53
2, 8830, Control_c, 0, 64, 66
2, 8845, Control_c, 0, 64, 64
2, 8860, Control_c, 0, 64, 61
2, 8865, Note_on_c, 0, 63, 0
2, 8876, Control_c, 0, 64, 54
2, 8890, Control_c, 0, 64, 45
2, 8905, Control_c, 0, 64, 34
2, 8921, Control_c, 0, 64, 12
2, 8935, Control_c, 0, 64, 0
2, 9002, Note_on_c, 0, 71, 74
2, 9197, Note_on_c, 0, 49, 56
2, 9301, Note_on_c, 0, 47, 0
2, 9385, Note_on_c, 0, 70, 73
2, 9441, Note_on_c, 0, 71, 0
2, 9572, Note_on_c, 0, 78, 75
2, 9588, Note_on_c, 0, 51, 52
2, 9617, Note_on_c, 0, 70, 0
2, 9656, Note_on_c, 0, 78, 0
2, 9691, Note_on_c, 0, 49, 0
2, 9777, Note_on_c, 0, 69, 69
2, 9979, Note_on_c, 0, 52, 39
2, 10049, Note_on_c, 0, 51, 0
2, 10090, Control_c, 0, 64, 55
2, 10096, Note_on_c, 0, 67, 57
2, 10099, Note_on_c, 0, 69, 0
2, 10105, Control_c, 0, 64, 64
2, 10105, Note_on_c, 0, 52, 0
2, 10121, Control_c, 0, 64, 70
2, 10135, Control_c, 0, 64, 87
2, 10151, Control_c, 0, 64, 127
2, 10193, Note_on_c, 0, 69, 69
2, 10222, Note_on_c, 0, 67, 0
2, 10263, Note_on_c, 0, 71, 74
2, 10294, Note_on_c, 0, 69, 0
2, 10365, Note_on_c, 0, 72, 78
2, 10390, Note_on_c, 0, 64, 69
2, 10413, Note_on_c, 0, 71, 0
2, 10487, Control_c, 0, 64, 100
2, 10501, Control_c, 0, 64, 82
2, 10517, Control_c, 0, 64, 70
2, 10532, Control_c, 0, 64, 61
2, 10548, Control_c, 0, 64, 39
2, 10563, Control_c, 0, 64, 0
2, 10569, Note_on_c, 0, 67, 76
2, 10599, Note_on_c, 0, 72, 0
2, 10733, Note_on_c, 0, 63, 66
2, 10751, Note_on_c, 0, 66, 72
2, 10772, Note_on_c, 0, 67, 0
2, 10942, Note_on_c, 0, 70, 74
2, 10955, Note_on_c, 0, 64, 0
2, 11015, Note_on_c, 0, 66, 0
2, 11133, Note_on_c, 0, 71, 73
2, 11135, Note_on_c, 0, 62, 66
2, 11178, Note_on_c, 0, 70, 0
2, 11259, Note_on_c, 0, 63, 0
2, 11318, Note_on_c, 0, 65, 66
2, 11355, Note_on_c, 0, 71, 0
2, 11511, Note_on_c, 0, 64, 63
2, 11513, Note_on_c, 0, 61, 50
2, 11536, Note_on_c, 0, 65, 0
2, 11635, Note_on_c, 0, 62, 0
2, 11700, Note_on_c, 0, 68, 67
2, 11763, Note_on_c, 0, 64, 0
2, 11884, Note_on_c, 0, 69, 60
2, 11889, Note_on_c, 0, 60, 53
2, 11924, Note_on_c, 0, 68, 0
2, 11948, Note_on_c, 0, 61, 0
2, 11972, Note_on_c, 0, 69, 0
2, 12088, Note_on_c, 0, 63, 62
2, 12272, Note_on_c, 0, 59, 47
2, 12357, Note_on_c, 0, 60, 0
2, 12475, Note_on_c, 0, 64, 58
2, 12514, Note_on_c, 0, 63, 0
2, 12646, Note_on_c, 0, 57, 43
2, 12720, Note_on_c, 0, 59, 0
2, 12835, Note_on_c, 0, 66, 54
2, 12856, Note_on_c, 0, 64, 0
2, 12935, Note_on_c, 0, 57, 0
2, 12973, Control_c, 0, 64, 37
2, 12989, Control_c, 0, 64, 56
2, 13004, Control_c, 0, 64, 61
2, 13009, Note_on_c, 0, 59, 48
2, 13018, Control_c, 0, 64, 64
2, 13027, Note_on_c, 0, 66, 0
2, 13034, Control_c, 0, 64, 68
2, 13049, Control_c, 0, 64, 75
2, 13064, Control_c, 0, 64, 86
2, 13080, Control_c, 0, 64, 101
2, 13095, Control_c, 0, 64, 127
2, 13112, Note_on_c, 0, 55, 48
2, 13151, Note_on_c, 0, 59, 0
2, 13169, Note_on_c, 0, 55, 0
2, 13191, Note_on_c, 0, 57, 51
2, 13249, Note_on_c, 0, 57, 0
2, 13275, Note_on_c, 0, 59, 62
2, 13330, Control_c, 0, 64, 120
2, 13345, Control_c, 0, 64, 94
2, 13361, Control_c, 0, 64, 80
2, 13364, Note_on_c, 0, 76, 70
2, 13370, Note_on_c, 0, 60, 69
2, 13376, Control_c, 0, 64, 69
2, 13383, Note_on_c, 0, 59, 0
2, 13391, Control_c, 0, 64, 61
2, 13406, Control_c, 0, 64, 44
2, 13421, Control_c, 0, 64, 8
2, 13437, Control_c, 0, 64, 0
2, 13557, Note_on_c, 0, 55, 67
2, 13663, Note_on_c, 0, 60, 0
2, 13733, Note_on_c, 0, 75, 72
2, 13735, Note_on_c, 0, 54, 76
2, 13798, Note_on_c, 0, 55, 0
2, 13816, Note_on_c, 0, 76, 0
2, 13935, Note_on_c, 0, 58, 75
2, 14008, Note_on_c, 0, 54, 0
2, 14128, Note_on_c, 0, 59, 71
2, 14137, Note_on_c, 0, 74, 63
2, 14184, Note_on_c, 0, 58, 0
2, 14204, Note_on_c, 0, 75, 0
2, 14321, Note_on_c, 0, 53, 65
2, 14384, Note_on_c, 0, 59, 0
2, 14504, Note_on_c, 0, 52, 62
2, 14519, Note_on_c, 0, 73, 68
2, 14542, Note_on_c, 0, 53, 0
2, 14565, Note_on_c, 0, 74, 0
2, 14715, Note_on_c, 0, 56, 64
2, 14749, Note_on_c, 0, 52, 0
2, 14896, Note_on_c, 0, 57, 53
2, 14918, Note_on_c, 0, 72, 53
2, 14929, Note_on_c, 0, 56, 0
2, 14967, Note_on_c, 0, 57, 0
2, 14991, Note_on_c, 0, 73, 0
2, 15096, Note_on_c, 0, 51, 49
2, 15295, Note_on_c, 0, 71, 59
2, 15344, Note_on_c, 0, 72, 0
2, 15483, Note_on_c, 0, 52, 43
2, 15490, Note_on_c, 0, 71, 0
2, 15499, Note_on_c, 0, 51, 0
2, 15676, Note_on_c, 0, 69, 59
2, 15865, Note_on_c, 0, 54, 48
2, 15876, Note_on_c, 0, 52, 0
2, 16075, Note_on_c, 0, 47, 38
2, 16117, Note_on_c, 0, 54, 0
2, 16149, Control_c, 0, 64, 52
2, 16165, Control_c, 0, 64, 62
2, 16165, Note_on_c, 0, 69, 0
2, 16186, Control_c, 0, 64, 66
2, 16202, Control_c, 0, 64, 72
2, 16217, Control_c, 0, 64, 84
2, 16217, Note_on_c, 0, 47, 0
2, 16232, Control_c, 0, 64, 110
2, 16248, Control_c, 0, 64, 127
2, 16285, Note_on_c, 0, 67, 59
2, 16351, Note_on_c, 0, 67, 0
2, 16378, Note_on_c, 0, 66, 59
2, 16445, Control_c, 0, 64, 97
2, 16459, Control_c, 0, 64, 82
2, 16460, Note_on_c, 0, 66, 0
2, 16475, Control_c, 0, 64, 68
2, 16476, Note_on_c, 0, 52, 42
2, 16490, Control_c, 0, 64, 57
2, 16490, Note_on_c, 0, 67, 54
2, 16505, Control_c, 0, 64, 13
2, 16521, Control_c, 0, 64, 0
2, 16531, Note_on_c, 0, 67, 0
2, 16685, Note_on_c, 0, 76, 66
2, 16865, Note_on_c, 0, 54, 56
2, 16921, Note_on_c, 0, 52, 0
2, 17082, Note_on_c, 0, 75, 68
2, 17124, Note_on_c, 0, 76, 0
2, 17280, Note_on_c, 0, 83, 66
2, 17290, Note_on_c, 0, 56, 44
2, 17302, Note_on_c, 0, 75, 0
2, 17331, Note_on_c, 0, 54, 0
2, 17335, Note_on_c, 0, 83, 0
2, 17482, Note_on_c, 0, 74, 61
2, 17658, Note_on_c, 0, 56, 0
2, 17669, Note_on_c, 0, 57, 43
2, 17717, Note_on_c, 0, 57, 0
2, 17847, Note_on_c, 0, 74, 0
2, 17853, Note_on_c, 0, 72, 61
2, 17861, Note_on_c, 0, 45, 50
2, 17890, Note_on_c, 0, 45, 0
2, 17926, Note_on_c, 0, 72, 0
2, 17950, Note_on_c, 0, 71, 52
2, 18043, Note_on_c, 0, 71, 0
2, 18046, Note_on_c, 0, 72, 65
2, 18061, Note_on_c, 0, 57, 40
2, 18249, Note_on_c, 0, 69, 59
2, 18259, Note_on_c, 0, 72, 0
2, 18446, Note_on_c, 0, 71, 70
2, 18580, Note_on_c, 0, 69, 0
2, 18630, Note_on_c, 0, 56, 52
2, 18711, Note_on_c, 0, 57, 0
2, 18818, Note_on_c, 0, 56, 0
2, 18821, Note_on_c, 0, 73, 70
2, 18823, Note_on_c, 0, 64, 50
2, 18854, Note_on_c, 0, 64, 0
2, 18897, Note_on_c, 0, 71, 0
2, 19019, Note_on_c, 0, 55, 51
2, 19211, Note_on_c, 0, 74, 56
2, 19217, Note_on_c, 0, 73, 0
2, 19259, Note_on_c, 0, 74, 0
2, 19381, Note_on_c, 0, 55, 0
2, 19400, Note_on_c, 0, 62, 61
2, 19412, Note_on_c, 0, 54, 52
2, 19430, Note_on_c, 0, 62, 0
2, 19481, Note_on_c, 0, 54, 0
2, 19517, Note_on_c, 0, 52, 40
2, 19574, Note_on_c, 0, 52, 0
2, 19580, Note_on_c, 0, 74, 68
2, 19583, Note_on_c, 0, 54, 56
2, 19797, Note_on_c, 0, 50, 51
2, 19848, Note_on_c, 0, 54, 0
2, 19972, Note_on_c, 0, 52, 62
2, 20038, Note_on_c, 0, 50, 0
2, 20187, Note_on_c, 0, 73, 73
2, 20207, Note_on_c, 0, 74, 0
2, 20369, Note_on_c, 0, 54, 60
2, 20373, Note_on_c, 0, 81, 63
2, 20394, Note_on_c, 0, 73, 0
2, 20415, Note_on_c, 0, 81, 0
2, 20420, Note_on_c, 0, 52, 0
2, 20564, Note_on_c, 0, 72, 57
2, 20747, Note_on_c, 0, 54, 0
2, 20754, Note_on_c, 0, 55, 50
2, 20799, Note_on_c, 0, 55, 0
2, 20930, Note_on_c, 0, 72, 0
2, 20946, Note_on_c, 0, 43, 49
2, 20946, Note_on_c, 0, 71, 58
2, 20987, Note_on_c, 0, 43, 0
2, 21020, Note_on_c, 0, 71, 0
2, 21041, Note_on_c, 0, 69, 54
2, 21137, Note_on_c, 0, 69, 0
2, 21148, Note_on_c, 0, 71, 62
2, 21155, Note_on_c, 0, 55, 29
2, 21350, Note_on_c, 0, 67, 55
2, 21375, Note_on_c, 0, 71, 0
2, 21559, Note_on_c, 0, 69, 60
2, 21638, Note_on_c, 0, 67, 0
2, 21729, Note_on_c, 0, 54, 45
2, 21787, Note_on_c, 0, 55, 0
2, 21792, Control_c, 0, 64, 8
2, 21808, Control_c, 0, 64, 10
2, 21823, Control_c, 0, 64, 12
2, 21868, Control_c, 0, 64, 13
2, 21872, Note_on_c, 0, 54, 0
2, 21909, Note_on_c, 0, 62, 49
2, 21927, Note_on_c, 0, 71, 62
2, 21959, Note_on_c, 0, 62, 0
2, 22001, Note_on_c, 0, 69, 0
2, 22102, Note_on_c, 0, 53, 45
2, 22127, Control_c, 0, 64, 12
2, 22142, Control_c, 0, 64, 0
2, 22289, Note_on_c, 0, 71, 0
2, 22294, Note_on_c, 0, 72, 52
2, 22338, Note_on_c, 0, 53, 0
2, 22377, Control_c, 0, 64, 29
2, 22392, Control_c, 0, 64, 57
2, 22397, Note_on_c, 0, 52, 36
2, 22408, Control_c, 0, 64, 62
2, 22423, Control_c, 0, 64, 65
2, 22439, Control_c, 0, 64, 69
2, 22446, Note_on_c, 0, 52, 0
2, 22453, Control_c, 0, 64, 75
2, 22468, Control_c, 0, 64, 82
2, 22482, Note_on_c, 0, 53, 50
2, 22484, Control_c, 0, 64, 91
2, 22498, Control_c, 0, 64, 98
2, 22514, Control_c, 0, 64, 101
2, 22529, Control_c, 0, 64, 102
2, 22532, Note_on_c, 0, 53, 0
2, 22552, Note_on_c, 0, 55, 55
2, 22574, Note_on_c, 0, 72, 0
2, 22621, Control_c, 0, 64, 101
2, 22637, Control_c, 0, 64, 97
2, 22652, Control_c, 0, 64, 91
2, 22652, Note_on_c, 0, 84, 72
2, 22660, Note_on_c, 0, 57, 54
2, 22663, Note_on_c, 0, 55, 0
2, 22667, Control_c, 0, 64, 84
2, 22682, Control_c, 0, 64, 78
2, 22697, Control_c, 0, 64, 71
2, 22712, Control_c, 0, 64, 65
2, 22727, Control_c, 0, 64, 60
2, 22742, Control_c, 0, 64, 50
2, 22758, Control_c, 0, 64, 41
2, 22773, Control_c, 0, 64, 35
2, 22788, Control_c, 0, 64, 29
2, 22803, Control_c, 0, 64, 25
2, 22818, Control_c, 0, 64, 15
2, 22834, Control_c, 0, 64, 0
2, 22849, Note_on_c, 0, 52, 62
2, 22876, Note_on_c, 0, 57, 0
2, 23031, Note_on_c, 0, 83, 80
2, 23060, Note_on_c, 0, 51, 60
2, 23110, Note_on_c, 0, 52, 0
2, 23126, Note_on_c, 0, 84, 0
2, 23241, Note_on_c, 0, 54, 66
2, 23299, Note_on_c, 0, 51, 0
2, 23420, Note_on_c, 0, 55, 61
2, 23426, Note_on_c, 0, 82, 79
2, 23457, Note_on_c, 0, 54, 0
2, 23516, Note_on_c, 0, 83, 0
2, 23613, Note_on_c, 0, 50, 64
2, 23649, Note_on_c, 0, 55, 0
2, 23802, Note_on_c, 0, 49, 62
2, 23808, Note_on_c, 0, 81, 74
2, 23837, Note_on_c, 0, 50, 0
2, 23910, Note_on_c, 0, 82, 0
2, 24000, Note_on_c, 0, 52, 51
2, 24065, Note_on_c, 0, 49, 0
2, 24189, Note_on_c, 0, 80, 72
2, 24192, Note_on_c, 0, 53, 59
2, 24197, Note_on_c, 0, 52, 0
2, 24218, Control_c, 0, 64, 8
2, 24250, Note_on_c, 0, 53, 0
2, 24272, Note_on_c, 0, 81, 0
2, 24374, Note_on_c, 0, 48, 57
2, 24506, Control_c, 0, 64, 12
2, 24522, Control_c, 0, 64, 15
2, 24537, Control_c, 0, 64, 18
2, 24552, Control_c, 0, 64, 23
2, 24566, Note_on_c, 0, 79, 70
2, 24567, Control_c, 0, 64, 31
2, 24582, Control_c, 0, 64, 37
2, 24598, Control_c, 0, 64, 42
2, 24620, Control_c, 0, 64, 46
2, 24629, Note_on_c, 0, 80, 0
2, 24635, Control_c, 0, 64, 48
2, 24650, Control_c, 0, 64, 50
2, 24665, Control_c, 0, 64, 52
2, 24681, Control_c, 0, 64, 53
2, 24696, Control_c, 0, 64, 55
2, 24710, Control_c, 0, 64, 56
2, 24726, Control_c, 0, 64, 57
2, 24741, Control_c, 0, 64, 57
2, 24757, Control_c, 0, 64, 58
2, 24771, Note_on_c, 0, 79, 0
2, 24772, Control_c, 0, 64, 58
2, 24774, Note_on_c, 0, 47, 47
2, 24787, Control_c, 0, 64, 59
2, 24789, Note_on_c, 0, 48, 0
2, 24955, Note_on_c, 0, 77, 68
2, 25001, Control_c, 0, 64, 58
2, 25031, Control_c, 0, 64, 58
2, 25047, Control_c, 0, 64, 57
2, 25077, Control_c, 0, 64, 57
2, 25092, Control_c, 0, 64, 56
2, 25123, Control_c, 0, 64, 56
2, 25129, Note_on_c, 0, 47, 0
2, 25138, Note_on_c, 0, 48, 51
2, 25154, Control_c, 0, 64, 55
2, 25184, Control_c, 0, 64, 55
2, 25200, Control_c, 0, 64, 54
2, 25205, Note_on_c, 0, 48, 0
2, 25225, Note_on_c, 0, 50, 51
2, 25229, Control_c, 0, 64, 54
2, 25245, Control_c, 0, 64, 53
2, 25259, Control_c, 0, 64, 51
2, 25275, Control_c, 0, 64, 49
2, 25290, Control_c, 0, 64, 39
2, 25305, Control_c, 0, 64, 0
2, 25329, Note_on_c, 0, 43, 42
2, 25335, Note_on_c, 0, 50, 0
2, 25459, Note_on_c, 0, 71, 54
2, 25495, Control_c, 0, 64, 49
2, 25510, Control_c, 0, 64, 57
2, 25526, Control_c, 0, 64, 60
2, 25540, Control_c, 0, 64, 61
2, 25540, Note_on_c, 0, 77, 0
2, 25544, Note_on_c, 0, 71, 0
2, 25547, Note_on_c, 0, 72, 66
2, 25556, Control_c, 0, 64, 63
2, 25571, Control_c, 0, 64, 64
2, 25586, Control_c, 0, 64, 64
2, 25617, Note_on_c, 0, 43, 0
2, 25627, Note_on_c, 0, 72, 0
2, 25634, Note_on_c, 0, 74, 70
2, 25677, Control_c, 0, 64, 64
2, 25707, Control_c, 0, 64, 63
2, 25721, Note_on_c, 0, 76, 76
2, 25723, Control_c, 0, 64, 63
2, 25725, Note_on_c, 0, 55, 48
2, 25738, Control_c, 0, 64, 62
2, 25750, Note_on_c, 0, 74, 0
2, 25752, Control_c, 0, 64, 61
2, 25768, Control_c, 0, 64, 60
2, 25783, Control_c, 0, 64, 59
2, 25799, Control_c, 0, 64, 57
2, 25814, Control_c, 0, 64, 55
2, 25829, Control_c, 0, 64, 50
2, 25845, Control_c, 0, 64, 44
2, 25860, Control_c, 0, 64, 34
2, 25876, Control_c, 0, 64, 18
2, 25891, Control_c, 0, 64, 0
2, 25911, Note_on_c, 0, 71, 76
2, 25942, Note_on_c, 0, 76, 0
2, 26098, Note_on_c, 0, 54, 59
2, 26107, Note_on_c, 0, 70, 73
2, 26201, Note_on_c, 0, 55, 0
2, 26208, Note_on_c, 0, 71, 0
2, 26305, Note_on_c, 0, 73, 81
2, 26361, Note_on_c, 0, 70, 0
2, 26502, Note_on_c, 0, 74, 72
2, 26506, Note_on_c, 0, 53, 50
2, 26560, Note_on_c, 0, 73, 0
2, 26595, Note_on_c, 0, 54, 0
2, 26695, Note_on_c, 0, 69, 71
2, 26743, Note_on_c, 0, 74, 0
2, 26875, Note_on_c, 0, 52, 45
2, 26882, Note_on_c, 0, 68, 67
2, 26929, Note_on_c, 0, 69, 0
2, 26971, Note_on_c, 0, 53, 0
2, 27075, Note_on_c, 0, 71, 65
2, 27118, Note_on_c, 0, 68, 0
2, 27271, Note_on_c, 0, 51, 45
2, 27281, Note_on_c, 0, 72, 63
2, 27310, Note_on_c, 0, 71, 0
2, 27320, Note_on_c, 0, 52, 0
2, 27349, Control_c, 0, 64, 8
2, 27349, Note_on_c, 0, 72, 0
2, 27480, Note_on_c, 0, 67, 57
2, 27663, Note_on_c, 0, 50, 43
2, 27757, Note_on_c, 0, 51, 0
2, 27859, Control_c, 0, 64, 10
2, 27865, Note_on_c, 0, 66, 54
2, 27890, Control_c, 0, 64, 12
2, 27893, Note_on_c, 0, 67, 0
2, 28011, Control_c, 0, 64, 13
2, 28055, Note_on_c, 0, 48, 37
2, 28102, Control_c, 0, 64, 15
2, 28122, Note_on_c, 0, 50, 0
2, 28148, Control_c, 0, 64, 16
2, 28220, Note_on_c, 0, 66, 0
2, 28240, Note_on_c, 0, 67, 44
2, 28334, Note_on_c, 0, 67, 0
2, 28339, Note_on_c, 0, 69, 53
2, 28407, Control_c, 0, 64, 17
2, 28422, Control_c, 0, 64, 18
2, 28423, Note_on_c, 0, 69, 0
2, 28430, Note_on_c, 0, 62, 46
2, 28437, Control_c, 0, 64, 19
2, 28477, Control_c, 0, 64, 20
2, 28492, Control_c, 0, 64, 22
2, 28507, Control_c, 0, 64, 24
2, 28522, Control_c, 0, 64, 27
2, 28537, Control_c, 0, 64, 29
2, 28552, Control_c, 0, 64, 32
2, 28568, Control_c, 0, 64, 35
2, 28583, Control_c, 0, 64, 41
2, 28598, Control_c, 0, 64, 46
2, 28613, Control_c, 0, 64, 50
2, 28628, Control_c, 0, 64, 52
2, 28635, Note_on_c, 0, 47, 39
2, 28643, Control_c, 0, 64, 55
2, 28645, Note_on_c, 0, 48, 0
2, 28658, Control_c, 0, 64, 56
2, 28674, Control_c, 0, 64, 56
2, 28691, Note_on_c, 0, 47, 0
2, 28719, Note_on_c, 0, 45, 44
2, 28794, Note_on_c, 0, 45, 0
2, 28804, Note_on_c, 0, 62, 0
2, 28808, Note_on_c, 0, 47, 48
2, 28810, Control_c, 0, 64, 55
2, 28824, Note_on_c, 0, 67, 54
2, 28825, Control_c, 0, 64, 53
2, 28841, Control_c, 0, 64, 50
2, 28855, Note_on_c, 0, 47, 0
2, 28856, Control_c, 0, 64, 48
2, 28871, Control_c, 0, 64, 46
2, 28887, Control_c, 0, 64, 44
2, 28902, Control_c, 0, 64, 42
2, 28917, Control_c, 0, 64, 39
2, 28932, Control_c, 0, 64, 38
2, 28947, Control_c, 0, 64, 37
2, 28963, Control_c, 0, 64, 37
2, 29012, Note_on_c, 0, 55, 47
2, 29099, Control_c, 0, 64, 38
2, 29115, Control_c, 0, 64, 38
2, 29131, Control_c, 0, 64, 39
2, 29146, Control_c, 0, 64, 40
2, 29161, Control_c, 0, 64, 40
2, 29176, Control_c, 0, 64, 41
2, 29191, Control_c, 0, 64, 41
2, 29208, Note_on_c, 0, 69, 67
2, 29222, Control_c, 0, 64, 42
2, 29244, Control_c, 0, 64, 43
2, 29259, Control_c, 0, 64, 43
2, 29281, Note_on_c, 0, 67, 0
2, 29290, Control_c, 0, 64, 44
2, 29305, Control_c, 0, 64, 44
2, 29366, Control_c, 0, 64, 45
2, 29381, Control_c, 0, 64, 45
2, 29397, Control_c, 0, 64, 46
2, 29404, Note_on_c, 0, 54, 55
2, 29411, Control_c, 0, 64, 46
2, 29414, Note_on_c, 0, 55, 0
2, 29457, Control_c, 0, 64, 47
2, 29472, Control_c, 0, 64, 47
2, 29502, Control_c, 0, 64, 48
2, 29574, Note_on_c, 0, 54, 0
2, 29591, Note_on_c, 0, 62, 55
2, 29600, Note_on_c, 0, 71, 73
2, 29634, Note_on_c, 0, 62, 0
2, 29710, Note_on_c, 0, 69, 0
2, 29807, Note_on_c, 0, 53, 53
2, 29944, Control_c, 0, 64, 44
2, 29960, Control_c, 0, 64, 0
2, 29986, Note_on_c, 0, 72, 73
2, 30051, Note_on_c, 0, 71, 0
2, 30103, Control_c, 0, 64, 50
2, 30119, Control_c, 0, 64, 63
2, 30134, Control_c, 0, 64, 68
2, 30149, Control_c, 0, 64, 76
2, 30165, Control_c, 0, 64, 91
2, 30180, Control_c, 0, 64, 127
2, 30188, Note_on_c, 0, 53, 0
2, 30205, Note_on_c, 0, 52, 63
2, 30205, Note_on_c, 0, 72, 0
2, 30255, Note_on_c, 0, 52, 0
2, 30293, Note_on_c, 0, 50, 54
2, 30346, Control_c, 0, 64, 105
2, 30362, Control_c, 0, 64, 85
2, 30368, Note_on_c, 0, 49, 60
2, 30368, Note_on_c, 0, 50, 0
2, 30377, Control_c, 0, 64, 71
2, 30380, Note_on_c, 0, 69, 79
2, 30392, Control_c, 0, 64, 62
2, 30407, Control_c, 0, 64, 45
2, 30417, Note_on_c, 0, 49, 0
2, 30422, Control_c, 0, 64, 15
2, 30438, Control_c, 0, 64, 0
2, 30580, Note_on_c, 0, 57, 63
2, 30756, Note_on_c, 0, 71, 81
2, 30883, Note_on_c, 0, 69, 0
2, 30929, Note_on_c, 0, 57, 0
2, 30938, Note_on_c, 0, 56, 57
2, 31129, Note_on_c, 0, 73, 82
2, 31132, Note_on_c, 0, 56, 0
2, 31216, Note_on_c, 0, 71, 0
2, 31332, Note_on_c, 0, 55, 57
2, 31534, Note_on_c, 0, 74, 72
2, 31596, Note_on_c, 0, 73, 0
2, 31601, Note_on_c, 0, 55, 0
2, 31626, Note_on_c, 0, 54, 57
2, 31639, Control_c, 0, 64, 39
2, 31654, Control_c, 0, 64, 58
2, 31669, Control_c, 0, 64, 63
2, 31685, Control_c, 0, 64, 68
2, 31699, Control_c, 0, 64, 79
2, 31705, Note_on_c, 0, 54, 0
2, 31715, Control_c, 0, 64, 100
2, 31730, Control_c, 0, 64, 127
2, 31732, Note_on_c, 0, 55, 51
2, 31741, Note_on_c, 0, 74, 0
2, 31773, Note_on_c, 0, 55, 0
2, 31794, Note_on_c, 0, 57, 58
2, 31896, Note_on_c, 0, 57, 0
2, 31898, Note_on_c, 0, 62, 79
2, 31917, Note_on_c, 0, 58, 62
2, 31928, Control_c, 0, 64, 101
2, 31942, Control_c, 0, 64, 88
2, 31958, Control_c, 0, 64, 78
2, 31973, Control_c, 0, 64, 70
2, 31988, Control_c, 0, 64, 63
2, 32004, Control_c, 0, 64, 54
2, 32018, Control_c, 0, 64, 36
2, 32033, Control_c, 0, 64, 30
2, 32100, Note_on_c, 0, 53, 59
2, 32105, Note_on_c, 0, 58, 0
2, 32284, Note_on_c, 0, 61, 73
2, 32292, Note_on_c, 0, 52, 55
2, 32326, Note_on_c, 0, 53, 0
2, 32422, Note_on_c, 0, 62, 0
2, 32484, Control_c, 0, 64, 31
2, 32491, Note_on_c, 0, 56, 56
2, 32513, Note_on_c, 0, 52, 0
2, 32530, Control_c, 0, 64, 32
2, 32560, Control_c, 0, 64, 32
2, 32575, Control_c, 0, 64, 33
2, 32620, Control_c, 0, 64, 33
2, 32651, Control_c, 0, 64, 34
2, 32666, Note_on_c, 0, 60, 73
2, 32669, Note_on_c, 0, 57, 50
2, 32680, Note_on_c, 0, 56, 0
2, 32681, Control_c, 0, 64, 34
2, 32711, Control_c, 0, 64, 35
2, 32727, Control_c, 0, 64, 35
2, 32772, Control_c, 0, 64, 36
2, 32780, Note_on_c, 0, 61, 0
2, 32787, Control_c, 0, 64, 36
2, 32833, Control_c, 0, 64, 37
2, 32870, Note_on_c, 0, 51, 47
2, 32879, Control_c, 0, 64, 38
2, 32911, Note_on_c, 0, 57, 0
2, 32939, Control_c, 0, 64, 38
2, 33061, Control_c, 0, 64, 39
2, 33065, Note_on_c, 0, 59, 61
2, 33067, Note_on_c, 0, 50, 47
2, 33075, Note_on_c, 0, 51, 0
2, 33151, Note_on_c, 0, 60, 0
2, 33267, Note_on_c, 0, 54, 49
2, 33279, Note_on_c, 0, 50, 0
2, 33452, Note_on_c, 0, 58, 58
2, 33458, Note_on_c, 0, 54, 0
2, 33460, Note_on_c, 0, 55, 44
2, 33508, Note_on_c, 0, 55, 0
2, 33520, Note_on_c, 0, 59, 0
2, 33655, Note_on_c, 0, 49, 42
2, 33829, Control_c, 0, 64, 39
2, 33850, Note_on_c, 0, 57, 52
2, 33852, Control_c, 0, 64, 40
2, 33867, Control_c, 0, 64, 41
2, 33882, Control_c, 0, 64, 44
2, 33892, Note_on_c, 0, 58, 0
2, 33897, Control_c, 0, 64, 46
2, 33912, Control_c, 0, 64, 50
2, 33928, Control_c, 0, 64, 55
2, 33943, Control_c, 0, 64, 58
2, 33959, Control_c, 0, 64, 59
2, 33974, Control_c, 0, 64, 61
2, 33989, Control_c, 0, 64, 61
2, 34004, Control_c, 0, 64, 62
2, 34052, Note_on_c, 0, 50, 45
2, 34072, Note_on_c, 0, 49, 0
2, 34087, Note_on_c, 0, 57, 0
2, 34127, Control_c, 0, 64, 61
2, 34142, Control_c, 0, 64, 61
2, 34172, Control_c, 0, 64, 60
2, 34187, Control_c, 0, 64, 60
2, 34203, Control_c, 0, 64, 59
2, 34218, Control_c, 0, 64, 58
2, 34232, Control_c, 0, 64, 57
2, 34248, Control_c, 0, 64, 56
2, 34252, Note_on_c, 0, 55, 60
2, 34263, Control_c, 0, 64, 55
2, 34278, Control_c, 0, 64, 54
2, 34293, Control_c, 0, 64, 53
2, 34308, Control_c, 0, 64, 52
2, 34324, Control_c, 0, 64, 50
2, 34339, Control_c, 0, 64, 44
2, 34353, Control_c, 0, 64, 34
2, 34369, Control_c, 0, 64, 0
2, 34427, Note_on_c, 0, 52, 42
2, 34470, Note_on_c, 0, 50, 0
2, 34640, Note_on_c, 0, 45, 41
2, 34671, Note_on_c, 0, 52, 0
2, 34695, Control_c, 0, 64, 27
2, 34710, Control_c, 0, 64, 48
2, 34726, Control_c, 0, 64, 54
2, 34741, Control_c, 0, 64, 58
2, 34757, Control_c, 0, 64, 60
2, 34772, Control_c, 0, 64, 62
2, 34775, Note_on_c, 0, 45, 0
2, 34787, Control_c, 0, 64, 63
2, 34803, Control_c, 0, 64, 64
2, 34817, Note_on_c, 0, 55, 0
2, 34818, Control_c, 0, 64, 65
2, 34832, Control_c, 0, 64, 66
2, 34836, Note_on_c, 0, 53, 46
2, 34848, Control_c, 0, 64, 67
2, 34888, Note_on_c, 0, 53, 0
2, 34919, Note_on_c, 0, 52, 43
2, 34971, Control_c, 0, 64, 65
2, 34986, Control_c, 0, 64, 64
2, 34991, Note_on_c, 0, 52, 0
2, 35001, Control_c, 0, 64, 62
2, 35004, Note_on_c, 0, 53, 51
2, 35010, Note_on_c, 0, 50, 49
2, 35016, Control_c, 0, 64, 59
2, 35031, Control_c, 0, 64, 53
2, 35047, Control_c, 0, 64, 45
2, 35061, Control_c, 0, 64, 35
2, 35066, Note_on_c, 0, 53, 0
2, 35077, Control_c, 0, 64, 16
2, 35092, Control_c, 0, 64, 0
2, 35206, Note_on_c, 0, 62, 58
2, 35414, Note_on_c, 0, 52, 50
2, 35493, Note_on_c, 0, 50, 0
2, 35601, Note_on_c, 0, 61, 70
2, 35605, Note_on_c, 0, 62, 0
2, 35723, Control_c, 0, 64, 10
2, 35738, Control_c, 0, 64, 13
2, 35753, Control_c, 0, 64, 15
2, 35768, Control_c, 0, 64, 16
2, 35780, Note_on_c, 0, 69, 62
2, 35783, Control_c, 0, 64, 17
2, 35800, Note_on_c, 0, 54, 50
2, 35814, Control_c, 0, 64, 18
2, 35825, Note_on_c, 0, 61, 0
2, 35829, Control_c, 0, 64, 19
2, 35844, Control_c, 0, 64, 20
2, 35855, Note_on_c, 0, 69, 0
2, 35859, Control_c, 0, 64, 21
2, 35875, Control_c, 0, 64, 22
2, 35890, Control_c, 0, 64, 23
2, 35920, Control_c, 0, 64, 24
2, 35988, Note_on_c, 0, 52, 0
2, 35988, Note_on_c, 0, 60, 71
2, 36175, Note_on_c, 0, 55, 49
2, 36185, Control_c, 0, 64, 20
2, 36201, Control_c, 0, 64, 15
2, 36216, Control_c, 0, 64, 0
2, 36292, Note_on_c, 0, 54, 0
2, 36337, Control_c, 0, 64, 21
2, 36352, Control_c, 0, 64, 49
2, 36368, Control_c, 0, 64, 55
2, 36382, Note_on_c, 0, 59, 61
2, 36383, Control_c, 0, 64, 57
2, 36389, Note_on_c, 0, 60, 0
2, 36399, Control_c, 0, 64, 58
2, 36403, Note_on_c, 0, 55, 0
2, 36414, Control_c, 0, 64, 59
2, 36428, Control_c, 0, 64, 60
2, 36453, Note_on_c, 0, 59, 0
2, 36459, Note_on_c, 0, 57, 68
2, 36535, Note_on_c, 0, 52, 58
2, 36536, Control_c, 0, 64, 59
2, 36539, Note_on_c, 0, 57, 0
2, 36551, Control_c, 0, 64, 58
2, 36551, Note_on_c, 0, 56, 68
2, 36567, Control_c, 0, 64, 56
2, 36582, Control_c, 0, 64, 55
2, 36597, Control_c, 0, 64, 54
2, 36612, Control_c, 0, 64, 53
2, 36627, Control_c, 0, 64, 52
2, 36630, Note_on_c, 0, 56, 0
2, 36643, Control_c, 0, 64, 51
2, 36658, Control_c, 0, 64, 49
2, 36673, Control_c, 0, 64, 45
2, 36688, Control_c, 0, 64, 41
2, 36703, Control_c, 0, 64, 38
2, 36719, Control_c, 0, 64, 34
2, 36734, Control_c, 0, 64, 30
2, 36744, Note_on_c, 0, 64, 75
2, 36749, Control_c, 0, 64, 26
2, 36764, Control_c, 0, 64, 24
2, 36795, Control_c, 0, 64, 24
2, 36809, Control_c, 0, 64, 21
2, 36824, Control_c, 0, 64, 17
2, 36840, Control_c, 0, 64, 12
2, 36855, Control_c, 0, 64, 8
2, 36870, Control_c, 0, 64, 0
2, 36939, Note_on_c, 0, 54, 70
2, 36969, Control_c, 0, 67, 40
2, 36984, Control_c, 0, 64, 8
2, 36984, Control_c, 0, 67, 70
2, 37000, Control_c, 0, 64, 12
2, 37000, Control_c, 0, 67, 88
2, 37014, Control_c, 0, 64, 13
2, 37014, Control_c, 0, 67, 95
2, 37015, Note_on_c, 0, 52, 0
2, 37029, Control_c, 0, 64, 17
2, 37029, Control_c, 0, 67, 97
2, 37045, Control_c, 0, 64, 19
2, 37060, Control_c, 0, 67, 95
2, 37076, Control_c, 0, 67, 92
2, 37090, Control_c, 0, 67, 91
2, 37105, Control_c, 0, 67, 88
2, 37121, Control_c, 0, 67, 83
2, 37131, Note_on_c, 0, 63, 77
2, 37136, Control_c, 0, 67, 76
2, 37150, Control_c, 0, 64, 13
2, 37150, Control_c, 0, 67, 62
2, 37166, Control_c, 0, 64, 12
2, 37166, Control_c, 0, 67, 34
2, 37181, Control_c, 0, 64, 10
2, 37181, Control_c, 0, 67, 0
2, 37197, Note_on_c, 0, 64, 0
2, 37323, Note_on_c, 0, 71, 75
2, 37329, Note_on_c, 0, 56, 56
2, 37360, Note_on_c, 0, 63, 0
2, 37379, Note_on_c, 0, 54, 0
2, 37380, Control_c, 0, 64, 12
2, 37386, Note_on_c, 0, 71, 0
2, 37395, Control_c, 0, 64, 13
2, 37410, Control_c, 0, 64, 16
2, 37425, Control_c, 0, 64, 17
2, 37518, Note_on_c, 0, 62, 68
2, 37532, Control_c, 0, 64, 18
2, 37547, Control_c, 0, 64, 21
2, 37563, Control_c, 0, 64, 21
2, 37577, Control_c, 0, 64, 23
2, 37592, Control_c, 0, 64, 24
2, 37608, Control_c, 0, 64, 26
2, 37623, Control_c, 0, 64, 26
2, 37639, Control_c, 0, 64, 27
2, 37653, Control_c, 0, 64, 28
2, 37668, Control_c, 0, 64, 30
2, 37691, Control_c, 0, 64, 31
2, 37703, Note_on_c, 0, 57, 47
2, 37706, Control_c, 0, 64, 32
2, 37709, Note_on_c, 0, 56, 0
2, 37722, Control_c, 0, 64, 34
2, 37736, Control_c, 0, 64, 35
2, 37738, Note_on_c, 0, 57, 0
2, 37751, Control_c, 0, 64, 37
2, 37767, Control_c, 0, 64, 37
2, 37781, Control_c, 0, 64, 38
2, 37792, Note_on_c, 0, 60, 67
2, 37797, Note_on_c, 0, 62, 0
2, 37827, Control_c, 0, 64, 38
2, 37843, Control_c, 0, 64, 39
2, 37857, Control_c, 0, 64, 39
2, 37889, Note_on_c, 0, 62, 72
2, 37894, Note_on_c, 0, 45, 39
2, 37903, Note_on_c, 0, 60, 0
2, 37933, Control_c, 0, 64, 40
2, 37942, Note_on_c, 0, 45, 0
2, 37983, Note_on_c, 0, 64, 74
2, 38016, Note_on_c, 0, 62, 0
2, 38086, Note_on_c, 0, 65, 78
2, 38099, Note_on_c, 0, 57, 51
2, 38124, Note_on_c, 0, 64, 0
2, 38286, Note_on_c, 0, 60, 78
2, 38340, Note_on_c, 0, 65, 0
2, 38484, Note_on_c, 0, 56, 58
2, 38492, Note_on_c, 0, 59, 74
2, 38538, Note_on_c, 0, 60, 0
2, 38596, Note_on_c, 0, 57, 0
2, 38679, Note_on_c, 0, 63, 80
2, 38773, Note_on_c, 0, 59, 0
2, 38862, Note_on_c, 0, 55, 58
2, 38878, Note_on_c, 0, 64, 79
2, 38939, Note_on_c, 0, 63, 0
2, 38979, Note_on_c, 0, 56, 0
2, 39056, Note_on_c, 0, 58, 76
2, 39113, Note_on_c, 0, 64, 0
2, 39255, Note_on_c, 0, 57, 73
2, 39262, Note_on_c, 0, 54, 53
2, 39334, Note_on_c, 0, 58, 0
2, 39400, Note_on_c, 0, 55, 0
2, 39457, Note_on_c, 0, 61, 73
2, 39553, Note_on_c, 0, 57, 0
2, 39646, Note_on_c, 0, 62, 70
2, 39660, Note_on_c, 0, 53, 51
2, 39692, Note_on_c, 0, 61, 0
2, 39733, Note_on_c, 0, 62, 0
2, 39740, Note_on_c, 0, 54, 0
2, 39839, Note_on_c, 0, 56, 65
2, 39897, Control_c, 0, 64, 39
2, 39958, Control_c, 0, 64, 39
2, 40026, Control_c, 0, 64, 38
2, 40036, Note_on_c, 0, 52, 44
2, 40071, Control_c, 0, 64, 38
2, 40112, Note_on_c, 0, 53, 0
2, 40147, Control_c, 0, 64, 37
2, 40229, Note_on_c, 0, 57, 52
2, 40239, Control_c, 0, 64, 37
2, 40284, Control_c, 0, 64, 36
2, 40291, Note_on_c, 0, 56, 0
2, 40315, Control_c, 0, 64, 36
2, 40330, Control_c, 0, 64, 35
2, 40390, Control_c, 0, 64, 35
2, 40406, Control_c, 0, 64, 34
2, 40421, Control_c, 0, 64, 34
2, 40422, Note_on_c, 0, 50, 43
2, 40466, Control_c, 0, 64, 33
2, 40482, Control_c, 0, 64, 33
2, 40497, Control_c, 0, 64, 32
2, 40512, Control_c, 0, 64, 30
2, 40523, Note_on_c, 0, 52, 0
2, 40527, Control_c, 0, 64, 29
2, 40542, Control_c, 0, 64, 28
2, 40558, Control_c, 0, 64, 24
2, 40573, Control_c, 0, 64, 8
2, 40588, Control_c, 0, 64, 0
2, 40604, Note_on_c, 0, 59, 46
2, 40625, Note_on_c, 0, 57, 0
2, 40817, Note_on_c, 0, 52, 38
2, 40825, Control_c, 0, 64, 36
2, 40826, Note_on_c, 0, 59, 0
2, 40840, Control_c, 0, 64, 53
2, 40855, Control_c, 0, 64, 59
2, 40870, Control_c, 0, 64, 62
2, 40886, Control_c, 0, 64, 65
2, 40901, Control_c, 0, 64, 70
2, 40902, Note_on_c, 0, 52, 0
2, 40916, Control_c, 0, 64, 75
2, 40931, Control_c, 0, 64, 81
2, 40946, Control_c, 0, 64, 87
2, 40961, Control_c, 0, 64, 96
2, 40976, Control_c, 0, 64, 108
2, 40991, Control_c, 0, 64, 127
2, 40991, Note_on_c, 0, 50, 0
2, 41012, Note_on_c, 0, 48, 44
2, 41085, Note_on_c, 0, 48, 0
2, 41120, Note_on_c, 0, 47, 37
2, 41159, Control_c, 0, 64, 105
2, 41166, Note_on_c, 0, 47, 0
2, 41174, Control_c, 0, 64, 93
2, 41182, Note_on_c, 0, 64, 59
2, 41189, Control_c, 0, 64, 85
2, 41189, Note_on_c, 0, 48, 47
2, 41205, Control_c, 0, 64, 78
2, 41220, Control_c, 0, 64, 71
2, 41235, Control_c, 0, 64, 65
2, 41241, Note_on_c, 0, 48, 0
2, 41250, Control_c, 0, 64, 59
2, 41265, Control_c, 0, 64, 44
2, 41281, Control_c, 0, 64, 29
2, 41296, Control_c, 0, 64, 16
2, 41310, Control_c, 0, 64, 0
2, 41398, Note_on_c, 0, 52, 33
2, 41598, Note_on_c, 0, 66, 65
2, 41788, Note_on_c, 0, 51, 48
2, 41798, Note_on_c, 0, 52, 0
2, 41828, Note_on_c, 0, 64, 0
2, 41971, Note_on_c, 0, 68, 73
2, 41976, Note_on_c, 0, 51, 0
2, 42003, Note_on_c, 0, 59, 40
2, 42032, Control_c, 0, 64, 8
2, 42038, Note_on_c, 0, 59, 0
2, 42048, Control_c, 0, 64, 10
2, 42079, Control_c, 0, 64, 13
2, 42087, Note_on_c, 0, 66, 0
2, 42094, Control_c, 0, 64, 16
2, 42109, Control_c, 0, 64, 17
2, 42140, Control_c, 0, 64, 18
2, 42170, Control_c, 0, 64, 19
2, 42184, Note_on_c, 0, 50, 54
2, 42185, Control_c, 0, 64, 21
2, 42201, Control_c, 0, 64, 22
2, 42215, Control_c, 0, 64, 23
2, 42278, Control_c, 0, 64, 24
2, 42315, Control_c, 0, 64, 24
2, 42376, Control_c, 0, 64, 25
2, 42390, Control_c, 0, 64, 26
2, 42390, Note_on_c, 0, 69, 66
2, 42411, Note_on_c, 0, 68, 0
2, 42437, Control_c, 0, 64, 26
2, 42452, Note_on_c, 0, 69, 0
2, 42549, Note_on_c, 0, 50, 0
2, 42571, Note_on_c, 0, 57, 66
2, 42583, Note_on_c, 0, 49, 52
2, 42610, Note_on_c, 0, 57, 0
2, 42635, Control_c, 0, 64, 25
2, 42635, Note_on_c, 0, 49, 0
2, 42649, Control_c, 0, 64, 24
2, 42664, Control_c, 0, 64, 22
2, 42672, Note_on_c, 0, 47, 44
2, 42680, Control_c, 0, 64, 19
2, 42695, Control_c, 0, 64, 13
2, 42710, Control_c, 0, 64, 8
2, 42725, Control_c, 0, 64, 0
2, 42733, Note_on_c, 0, 47, 0
2, 42736, Note_on_c, 0, 49, 53
2, 42744, Note_on_c, 0, 69, 72
2, 42938, Note_on_c, 0, 45, 57
2, 42973, Note_on_c, 0, 49, 0
2, 43045, Control_c, 0, 64, 8
2, 43098, Control_c, 0, 64, 10
2, 43113, Control_c, 0, 64, 12
2, 43129, Control_c, 0, 64, 13
2, 43136, Note_on_c, 0, 47, 60
2, 43182, Note_on_c, 0, 45, 0
2, 43189, Control_c, 0, 64, 15
2, 43323, Note_on_c, 0, 68, 70
2, 43326, Control_c, 0, 64, 16
2, 43341, Control_c, 0, 64, 17
2, 43347, Note_on_c, 0, 69, 0
2, 43418, Control_c, 0, 64, 18
2, 43520, Note_on_c, 0, 76, 66
2, 43530, Note_on_c, 0, 49, 45
2, 43544, Note_on_c, 0, 68, 0
2, 43559, Note_on_c, 0, 76, 0
2, 43574, Note_on_c, 0, 47, 0
2, 43600, Control_c, 0, 64, 19
2, 43705, Control_c, 0, 64, 20
2, 43720, Note_on_c, 0, 67, 65
2, 43721, Control_c, 0, 64, 21
2, 43908, Note_on_c, 0, 49, 0
2, 43909, Note_on_c, 0, 50, 57
2, 43955, Note_on_c, 0, 50, 0
2, 44079, Control_c, 0, 64, 20
2, 44094, Note_on_c, 0, 67, 0
2, 44095, Note_on_c, 0, 66, 59
2, 44104, Note_on_c, 0, 38, 41
2, 44109, Control_c, 0, 64, 19
2, 44125, Control_c, 0, 64, 16
2, 44136, Note_on_c, 0, 38, 0
2, 44139, Control_c, 0, 64, 15
2, 44155, Control_c, 0, 64, 12
2, 44167, Note_on_c, 0, 66, 0
2, 44170, Control_c, 0, 64, 10
2, 44185, Control_c, 0, 64, 8
2, 44189, Note_on_c, 0, 64, 60
2, 44201, Control_c, 0, 64, 0
2, 44293, Note_on_c, 0, 66, 68
2, 44294, Note_on_c, 0, 64, 0
2, 44306, Note_on_c, 0, 50, 46
2, 44488, Note_on_c, 0, 62, 70
2, 44535, Note_on_c, 0, 66, 0
2, 44690, Note_on_c, 0, 64, 78
2, 44769, Note_on_c, 0, 62, 0
2, 44876, Note_on_c, 0, 49, 56
2, 45014, Note_on_c, 0, 50, 0
2, 45066, Note_on_c, 0, 66, 73
2, 45073, Control_c, 0, 64, 8
2, 45075, Note_on_c, 0, 57, 55
2, 45088, Note_on_c, 0, 49, 0
2, 45089, Control_c, 0, 64, 10
2, 45103, Control_c, 0, 64, 12
2, 45117, Note_on_c, 0, 57, 0
2, 45119, Control_c, 0, 64, 13
2, 45134, Control_c, 0, 64, 15
2, 45136, Note_on_c, 0, 64, 0
2, 45149, Control_c, 0, 64, 16
2, 45165, Control_c, 0, 64, 17
2, 45210, Control_c, 0, 64, 18
2, 45255, Control_c, 0, 64, 19
2, 45258, Note_on_c, 0, 48, 57
2, 45286, Control_c, 0, 64, 20
2, 45332, Control_c, 0, 64, 21
2, 45347, Control_c, 0, 64, 21
2, 45370, Control_c, 0, 64, 22
2, 45384, Control_c, 0, 64, 24
2, 45400, Control_c, 0, 64, 26
2, 45415, Control_c, 0, 64, 29
2, 45430, Control_c, 0, 64, 34
2, 45446, Control_c, 0, 64, 38
2, 45457, Note_on_c, 0, 66, 0
2, 45458, Note_on_c, 0, 67, 61
2, 45460, Control_c, 0, 64, 40
2, 45476, Control_c, 0, 64, 42
2, 45491, Control_c, 0, 64, 43
2, 45498, Note_on_c, 0, 67, 0
2, 45507, Control_c, 0, 64, 44
2, 45523, Control_c, 0, 64, 44
2, 45538, Control_c, 0, 64, 45
2, 45553, Control_c, 0, 64, 45
2, 45631, Note_on_c, 0, 48, 0
2, 45644, Note_on_c, 0, 55, 59
2, 45646, Note_on_c, 0, 47, 53
2, 45679, Note_on_c, 0, 55, 0
2, 45720, Note_on_c, 0, 47, 0
2, 45740, Note_on_c, 0, 45, 51
2, 45750, Control_c, 0, 64, 45
2, 45766, Control_c, 0, 64, 44
2, 45781, Control_c, 0, 64, 43
2, 45797, Control_c, 0, 64, 43
2, 45812, Control_c, 0, 64, 42
2, 45826, Control_c, 0, 64, 41
2, 45827, Note_on_c, 0, 67, 70
2, 45830, Note_on_c, 0, 45, 0
2, 45842, Control_c, 0, 64, 41
2, 45846, Note_on_c, 0, 47, 56
2, 45857, Control_c, 0, 64, 40
2, 45872, Control_c, 0, 64, 39
2, 45888, Control_c, 0, 64, 39
2, 45902, Control_c, 0, 64, 38
2, 45933, Control_c, 0, 64, 37
2, 45947, Control_c, 0, 64, 37
2, 45963, Control_c, 0, 64, 35
2, 45978, Control_c, 0, 64, 33
2, 45993, Control_c, 0, 64, 30
2, 46009, Control_c, 0, 64, 28
2, 46018, Note_on_c, 0, 43, 57
2, 46023, Control_c, 0, 64, 26
2, 46039, Control_c, 0, 64, 24
2, 46054, Control_c, 0, 64, 22
2, 46069, Control_c, 0, 64, 17
2, 46079, Note_on_c, 0, 47, 0
2, 46085, Control_c, 0, 64, 10
2, 46099, Control_c, 0, 64, 0
2, 46238, Note_on_c, 0, 45, 64
2, 46283, Note_on_c, 0, 43, 0
2, 46437, Note_on_c, 0, 66, 73
2, 46449, Note_on_c, 0, 67, 0
2, 46644, Note_on_c, 0, 74, 66
2, 46665, Note_on_c, 0, 47, 54
2, 46683, Note_on_c, 0, 66, 0
2, 46721, Note_on_c, 0, 74, 0
2, 46746, Note_on_c, 0, 45, 0
2, 46747, Control_c, 0, 64, 24
2, 46763, Control_c, 0, 64, 33
2, 46778, Control_c, 0, 64, 39
2, 46792, Control_c, 0, 64, 43
2, 46808, Control_c, 0, 64, 47
2, 46823, Control_c, 0, 64, 49
2, 46839, Control_c, 0, 64, 51
2, 46839, Note_on_c, 0, 65, 68
2, 46854, Control_c, 0, 64, 52
2, 46868, Control_c, 0, 64, 53
2, 46884, Control_c, 0, 64, 53
2, 46992, Note_on_c, 0, 47, 0
2, 47002, Note_on_c, 0, 48, 50
2, 47028, Control_c, 0, 64, 52
2, 47047, Note_on_c, 0, 48, 0
2, 47059, Control_c, 0, 64, 51
2, 47073, Control_c, 0, 64, 51
2, 47078, Note_on_c, 0, 50, 48
2, 47089, Control_c, 0, 64, 50
2, 47104, Control_c, 0, 64, 49
2, 47116, Note_on_c, 0, 65, 0
2, 47120, Control_c, 0, 64, 47
2, 47124, Note_on_c, 0, 50, 0
2, 47135, Control_c, 0, 64, 44
2, 47139, Note_on_c, 0, 48, 52
2, 47145, Note_on_c, 0, 64, 54
2, 47151, Control_c, 0, 64, 40
2, 47166, Control_c, 0, 64, 27
2, 47181, Control_c, 0, 64, 0
2, 47231, Note_on_c, 0, 64, 0
2, 47248, Note_on_c, 0, 62, 62
2, 47343, Note_on_c, 0, 62, 0
2, 47367, Note_on_c, 0, 64, 71
2, 47378, Control_c, 0, 64, 49
2, 47393, Control_c, 0, 64, 60
2, 47409, Control_c, 0, 64, 64
2, 47424, Control_c, 0, 64, 69
2, 47439, Control_c, 0, 64, 80
2, 47452, Note_on_c, 0, 64, 0
2, 47454, Control_c, 0, 64, 98
2, 47469, Control_c, 0, 64, 127
2, 47565, Note_on_c, 0, 76, 74
2, 47570, Note_on_c, 0, 47, 50
2, 47573, Note_on_c, 0, 48, 0
2, 47652, Control_c, 0, 64, 81
2, 47675, Control_c, 0, 64, 63
2, 47690, Control_c, 0, 64, 0
2, 47698, Note_on_c, 0, 47, 0
2, 47719, Note_on_c, 0, 45, 49
2, 47766, Control_c, 0, 64, 27
2, 47781, Control_c, 0, 64, 57
2, 47796, Control_c, 0, 64, 64
2, 47811, Control_c, 0, 64, 69
2, 47826, Control_c, 0, 64, 78
2, 47842, Control_c, 0, 64, 92
2, 47845, Note_on_c, 0, 45, 0
2, 47857, Control_c, 0, 64, 127
2, 47906, Note_on_c, 0, 53, 50
2, 48008, Note_on_c, 0, 53, 0
2, 48031, Note_on_c, 0, 55, 32
2, 48108, Note_on_c, 0, 53, 42
2, 48113, Note_on_c, 0, 55, 0
2, 48139, Note_on_c, 0, 77, 65
2, 48159, Note_on_c, 0, 76, 0
2, 48190, Note_on_c, 0, 53, 0
2, 48203, Note_on_c, 0, 55, 47
2, 48252, Note_on_c, 0, 76, 73
2, 48270, Note_on_c, 0, 53, 38
2, 48276, Note_on_c, 0, 77, 0
2, 48318, Note_on_c, 0, 53, 0
2, 48337, Note_on_c, 0, 74, 73
2, 48359, Note_on_c, 0, 76, 0
2, 48399, Note_on_c, 0, 55, 0
2, 48402, Note_on_c, 0, 53, 54
2, 48443, Note_on_c, 0, 72, 77
2, 48449, Note_on_c, 0, 74, 0
2, 48466, Note_on_c, 0, 53, 0
2, 48472, Control_c, 0, 64, 117
2, 48487, Control_c, 0, 64, 107
2, 48499, Note_on_c, 0, 55, 57
2, 48502, Control_c, 0, 64, 100
2, 48515, Note_on_c, 0, 72, 0
2, 48518, Control_c, 0, 64, 93
2, 48530, Note_on_c, 0, 71, 76
2, 48533, Control_c, 0, 64, 85
2, 48539, Note_on_c, 0, 55, 0
2, 48548, Control_c, 0, 64, 77
2, 48564, Control_c, 0, 64, 70
2, 48564, Note_on_c, 0, 53, 60
2, 48579, Control_c, 0, 64, 64
2, 48595, Control_c, 0, 64, 57
2, 48609, Control_c, 0, 64, 43
2, 48618, Note_on_c, 0, 71, 0
2, 48624, Control_c, 0, 64, 34
2, 48627, Note_on_c, 0, 69, 68
2, 48640, Control_c, 0, 64, 27
2, 48655, Control_c, 0, 64, 8
2, 48670, Control_c, 0, 64, 0
2, 48705, Note_on_c, 0, 53, 0
2, 48724, Note_on_c, 0, 52, 47
2, 48820, Note_on_c, 0, 68, 70
2, 48876, Note_on_c, 0, 69, 0
2, 48997, Note_on_c, 0, 64, 56
2, 49036, Control_c, 0, 64, 55
2, 49050, Note_on_c, 0, 52, 0
2, 49051, Control_c, 0, 64, 62
2, 49065, Control_c, 0, 64, 65
2, 49081, Control_c, 0, 64, 70
2, 49096, Control_c, 0, 64, 77
2, 49110, Note_on_c, 0, 62, 62
2, 49110, Note_on_c, 0, 64, 0
2, 49111, Control_c, 0, 64, 86
2, 49126, Control_c, 0, 64, 99
2, 49141, Control_c, 0, 64, 118
2, 49157, Control_c, 0, 64, 127
2, 49232, Note_on_c, 0, 62, 0
2, 49237, Note_on_c, 0, 60, 67
2, 49302, Control_c, 0, 64, 118
2, 49318, Control_c, 0, 64, 103
2, 49332, Control_c, 0, 64, 96
2, 49344, Note_on_c, 0, 60, 0
2, 49347, Control_c, 0, 64, 90
2, 49350, Note_on_c, 0, 59, 65
2, 49363, Control_c, 0, 64, 85
2, 49378, Control_c, 0, 64, 77
2, 49393, Control_c, 0, 64, 69
2, 49408, Control_c, 0, 64, 60
2, 49416, Note_on_c, 0, 59, 0
2, 49423, Control_c, 0, 64, 28
2, 49439, Control_c, 0, 64, 0
2, 49451, Note_on_c, 0, 57, 63
2, 49535, Note_on_c, 0, 57, 0
2, 49551, Note_on_c, 0, 56, 62
2, 49645, Note_on_c, 0, 56, 0
2, 49662, Note_on_c, 0, 54, 57
2, 49773, Note_on_c, 0, 54, 0
2, 49813, Note_on_c, 0, 52, 41
2, 50055, Control_c, 0, 64, 30
2, 50070, Control_c, 0, 64, 43
2, 50086, Control_c, 0, 64, 51
2, 50086, Note_on_c, 0, 52, 0
2, 50101, Control_c, 0, 64, 54
2, 50117, Control_c, 0, 64, 56
2, 50131, Control_c, 0, 64, 58
2, 50146, Control_c, 0, 64, 58
2, 50162, Control_c, 0, 64, 59
2, 50176, Control_c, 0, 64, 59
2, 50328, Control_c, 0, 64, 59
2, 50343, Control_c, 0, 64, 58
2, 50347, Note_on_c, 0, 40, 27
2, 50373, Control_c, 0, 64, 58
2, 50388, Control_c, 0, 64, 57
2, 50404, Control_c, 0, 64, 57
2, 50419, Control_c, 0, 64, 55
2, 50436, Control_c, 0, 64, 53
2, 50451, Control_c, 0, 64, 50
2, 50466, Control_c, 0, 64, 44
2, 50481, Control_c, 0, 64, 18
2, 50496, Control_c, 0, 64, 0
2, 50618, Control_c, 0, 64, 15
2, 50633, Control_c, 0, 64, 47
2, 50649, Control_c, 0, 64, 54
2, 50664, Control_c, 0, 64, 57
2, 50679, Control_c, 0, 64, 60
2, 50694, Control_c, 0, 64, 63
2, 50709, Control_c, 0, 64, 67
2, 50725, Control_c, 0, 64, 72
2, 50747, Control_c, 0, 64, 76
2, 50762, Control_c, 0, 64, 78
2, 50777, Control_c, 0, 64, 79
2, 50945, Note_on_c, 0, 40, 0
2, 51066, Control_c, 0, 64, 79
2, 51082, Control_c, 0, 64, 78
2, 51096, Control_c, 0, 64, 78
2, 51111, Control_c, 0, 64, 77
2, 51127, Control_c, 0, 64, 76
2, 51142, Control_c, 0, 64, 76
2, 51158, Control_c, 0, 64, 75
2, 51172, Control_c, 0, 64, 73
2, 51187, Control_c, 0, 64, 71
2, 51203, Control_c, 0, 64, 68
2, 51217, Control_c, 0, 64, 65
2, 51231, Note_on_c, 0, 68, 0
2, 51232, Control_c, 0, 64, 61
2, 51249, Control_c, 0, 64, 55
2, 51264, Control_c, 0, 64, 50
2, 51280, Control_c, 0, 64, 48
2, 51295, Control_c, 0, 64, 47
2, 51310, Control_c, 0, 64, 45
2, 51325, Control_c, 0, 64, 40
2, 51340, Control_c, 0, 64, 31
2, 51356, Control_c, 0, 64, 0
2, 51621, Control_c, 0, 64, 39
2, 51637, Control_c, 0, 64, 51
2, 51652, Control_c, 0, 64, 55
2, 51666, Control_c, 0, 64, 58
2, 51682, Control_c, 0, 64, 61
2, 51697, Control_c, 0, 64, 63
2, 51712, Control_c, 0, 64, 64
2, 51728, Control_c, 0, 64, 67
2, 51743, Control_c, 0, 64, 71
2, 51759, Control_c, 0, 64, 75
2, 51774, Control_c, 0, 64, 78
2, 51789, Control_c, 0, 64, 82
2, 51804, Control_c, 0, 64, 84
2, 51819, Control_c, 0, 64, 87
2, 51835, Control_c, 0, 64, 89
2, 51850, Control_c, 0, 64, 91
2, 51864, Control_c, 0, 64, 92
2, 51884, Note_on_c, 0, 76, 45
2, 51956, Note_on_c, 0, 60, 42
2, 52015, Note_on_c, 0, 60, 0
2, 52047, Control_c, 0, 64, 92
2, 52053, Note_on_c, 0, 59, 35
2, 52063, Control_c, 0, 64, 90
2, 52070, Note_on_c, 0, 76, 0
2, 52079, Control_c, 0, 64, 87
2, 52093, Control_c, 0, 64, 84
2, 52107, Note_on_c, 0, 59, 0
2, 52108, Control_c, 0, 64, 81
2, 52124, Control_c, 0, 64, 78
2, 52137, Note_on_c, 0, 57, 46
2, 52139, Control_c, 0, 64, 75
2, 52155, Control_c, 0, 64, 72
2, 52169, Control_c, 0, 64, 68
2, 52184, Control_c, 0, 64, 63
2, 52200, Control_c, 0, 64, 54
2, 52215, Control_c, 0, 64, 45
2, 52230, Control_c, 0, 64, 42
2, 52233, Note_on_c, 0, 57, 0
2, 52245, Control_c, 0, 64, 41
2, 52249, Note_on_c, 0, 56, 36
2, 52268, Control_c, 0, 64, 39
2, 52270, Note_on_c, 0, 64, 52
2, 52284, Control_c, 0, 64, 35
2, 52298, Control_c, 0, 64, 31
2, 52313, Control_c, 0, 64, 27
2, 52329, Control_c, 0, 64, 26
2, 52344, Control_c, 0, 64, 24
2, 52473, Note_on_c, 0, 61, 49
2, 52541, Note_on_c, 0, 56, 0
2, 52657, Note_on_c, 0, 62, 49
2, 52663, Control_c, 0, 64, 25
2, 52663, Note_on_c, 0, 65, 59
2, 52679, Control_c, 0, 64, 26
2, 52755, Control_c, 0, 64, 26
2, 52761, Note_on_c, 0, 61, 0
2, 52770, Control_c, 0, 64, 27
2, 52800, Control_c, 0, 64, 27
2, 52845, Control_c, 0, 64, 28
2, 52855, Note_on_c, 0, 58, 51
2, 52855, Note_on_c, 0, 64, 0
2, 52876, Control_c, 0, 64, 28
2, 52892, Control_c, 0, 64, 29
2, 52923, Control_c, 0, 64, 29
2, 52952, Control_c, 0, 64, 30
2, 52983, Control_c, 0, 64, 30
2, 52997, Note_on_c, 0, 62, 0
2, 52999, Control_c, 0, 64, 31
2, 53065, Note_on_c, 0, 66, 69
2, 53083, Note_on_c, 0, 57, 47
2, 53111, Note_on_c, 0, 58, 0
2, 53112, Control_c, 0, 64, 31
2, 53186, Note_on_c, 0, 65, 0
2, 53272, Note_on_c, 0, 63, 58
2, 53325, Control_c, 0, 64, 32
2, 53385, Control_c, 0, 64, 32
2, 53410, Note_on_c, 0, 57, 0
2, 53416, Control_c, 0, 64, 33
2, 53458, Note_on_c, 0, 64, 60
2, 53467, Note_on_c, 0, 67, 71
2, 53492, Control_c, 0, 64, 33
2, 53547, Note_on_c, 0, 66, 0
2, 53600, Note_on_c, 0, 63, 0
2, 53660, Note_on_c, 0, 60, 61
2, 53724, Note_on_c, 0, 64, 0
2, 53864, Note_on_c, 0, 68, 72
2, 53876, Note_on_c, 0, 59, 59
2, 53897, Note_on_c, 0, 60, 0
2, 53922, Note_on_c, 0, 59, 0
2, 53969, Note_on_c, 0, 67, 0
2, 54056, Note_on_c, 0, 65, 67
2, 54247, Note_on_c, 0, 69, 73
2, 54351, Note_on_c, 0, 68, 0
2, 54396, Control_c, 0, 64, 34
2, 54426, Control_c, 0, 64, 35
2, 54461, Note_on_c, 0, 64, 62
2, 54471, Control_c, 0, 64, 35
2, 54502, Control_c, 0, 64, 36
2, 54519, Control_c, 0, 64, 36
2, 54596, Note_on_c, 0, 65, 0
2, 54632, Control_c, 0, 64, 30
2, 54647, Note_on_c, 0, 71, 75
2, 54648, Control_c, 0, 64, 0
2, 54730, Note_on_c, 0, 69, 0
2, 54829, Control_c, 0, 64, 41
2, 54845, Control_c, 0, 64, 63
2, 54846, Note_on_c, 0, 62, 52
2, 54860, Control_c, 0, 64, 69
2, 54860, Note_on_c, 0, 64, 0
2, 54876, Control_c, 0, 64, 83
2, 54891, Control_c, 0, 64, 127
2, 54901, Note_on_c, 0, 62, 0
2, 54909, Note_on_c, 0, 71, 0
2, 55045, Note_on_c, 0, 72, 59
2, 55066, Note_on_c, 0, 69, 45
2, 55122, Note_on_c, 0, 72, 0
2, 55143, Note_on_c, 0, 77, 64
2, 55179, Control_c, 0, 64, 105
2, 55195, Control_c, 0, 64, 81
2, 55210, Control_c, 0, 64, 67
2, 55225, Control_c, 0, 64, 51
2, 55227, Note_on_c, 0, 76, 68
2, 55240, Control_c, 0, 64, 0
2, 55248, Note_on_c, 0, 77, 0
2, 55319, Note_on_c, 0, 74, 70
2, 55342, Note_on_c, 0, 76, 0
2, 55425, Note_on_c, 0, 57, 53
2, 55426, Note_on_c, 0, 73, 79
2, 55428, Note_on_c, 0, 74, 0
2, 55624, Note_on_c, 0, 78, 80
2, 55698, Note_on_c, 0, 73, 0
2, 55807, Note_on_c, 0, 79, 79
2, 55815, Note_on_c, 0, 58, 56
2, 55850, Note_on_c, 0, 78, 0
2, 55911, Note_on_c, 0, 69, 0
2, 55917, Control_c, 0, 64, 15
2, 55932, Control_c, 0, 64, 17
2, 55947, Control_c, 0, 64, 18
2, 55981, Note_on_c, 0, 57, 0
2, 56006, Note_on_c, 0, 75, 76
2, 56028, Note_on_c, 0, 79, 0
2, 56083, Control_c, 0, 64, 19
2, 56098, Control_c, 0, 64, 20
2, 56199, Control_c, 0, 64, 22
2, 56205, Note_on_c, 0, 74, 73
2, 56211, Note_on_c, 0, 59, 60
2, 56214, Control_c, 0, 64, 23
2, 56254, Note_on_c, 0, 58, 0
2, 56254, Note_on_c, 0, 75, 0
2, 56381, Control_c, 0, 64, 24
2, 56403, Note_on_c, 0, 80, 78
2, 56478, Note_on_c, 0, 74, 0
2, 56488, Control_c, 0, 64, 25
2, 56503, Control_c, 0, 64, 26
2, 56518, Control_c, 0, 64, 27
2, 56533, Control_c, 0, 64, 28
2, 56564, Control_c, 0, 64, 29
2, 56592, Note_on_c, 0, 81, 81
2, 56593, Control_c, 0, 64, 29
2, 56598, Note_on_c, 0, 60, 58
2, 56609, Control_c, 0, 64, 30
2, 56624, Control_c, 0, 64, 32
2, 56629, Note_on_c, 0, 59, 0
2, 56640, Control_c, 0, 64, 32
2, 56657, Note_on_c, 0, 80, 0
2, 56700, Control_c, 0, 64, 33
2, 56716, Control_c, 0, 64, 33
2, 56730, Control_c, 0, 64, 34
2, 56797, Note_on_c, 0, 77, 79
2, 56842, Note_on_c, 0, 81, 0
2, 56950, Control_c, 0, 64, 35
2, 56966, Control_c, 0, 64, 37
2, 56982, Control_c, 0, 64, 39
2, 56992, Note_on_c, 0, 76, 73
2, 56998, Control_c, 0, 64, 43
2, 56999, Note_on_c, 0, 61, 58
2, 57013, Control_c, 0, 64, 46
2, 57017, Note_on_c, 0, 60, 0
2, 57025, Note_on_c, 0, 77, 0
2, 57028, Control_c, 0, 64, 50
2, 57043, Control_c, 0, 64, 53
2, 57058, Control_c, 0, 64, 56
2, 57073, Control_c, 0, 64, 58
2, 57084, Note_on_c, 0, 76, 0
2, 57088, Control_c, 0, 64, 59
2, 57193, Note_on_c, 0, 82, 83
2, 57270, Control_c, 0, 64, 58
2, 57286, Control_c, 0, 64, 58
2, 57301, Control_c, 0, 64, 57
2, 57380, Note_on_c, 0, 62, 57
2, 57392, Control_c, 0, 64, 57
2, 57500, Note_on_c, 0, 61, 0
2, 57560, Control_c, 0, 64, 56
2, 57582, Note_on_c, 0, 81, 79
2, 57620, Control_c, 0, 64, 56
2, 57636, Control_c, 0, 64, 55
2, 57658, Control_c, 0, 64, 53
2, 57661, Note_on_c, 0, 82, 0
2, 57673, Control_c, 0, 64, 48
2, 57689, Control_c, 0, 64, 30
2, 57703, Control_c, 0, 64, 0
2, 57757, Note_on_c, 0, 64, 56
2, 57809, Note_on_c, 0, 62, 0
2, 57872, Control_c, 0, 64, 29
2, 57887, Control_c, 0, 64, 60
2, 57902, Control_c, 0, 64, 66
2, 57918, Control_c, 0, 64, 77
2, 57932, Control_c, 0, 64, 96
2, 57941, Note_on_c, 0, 79, 76
2, 57947, Control_c, 0, 64, 127
2, 58009, Note_on_c, 0, 81, 0
2, 58077, Note_on_c, 0, 79, 0
2, 58154, Note_on_c, 0, 65, 44
2, 58187, Note_on_c, 0, 81, 73
2, 58253, Note_on_c, 0, 64, 0
2, 58284, Note_on_c, 0, 79, 76
2, 58297, Control_c, 0, 64, 120
2, 58312, Control_c, 0, 64, 98
2, 58320, Note_on_c, 0, 81, 0
2, 58328, Control_c, 0, 64, 84
2, 58342, Control_c, 0, 64, 75
2, 58358, Control_c, 0, 64, 68
2, 58364, Note_on_c, 0, 77, 79
2, 58373, Control_c, 0, 64, 62
2, 58376, Note_on_c, 0, 79, 0
2, 58388, Control_c, 0, 64, 52
2, 58404, Control_c, 0, 64, 40
2, 58426, Control_c, 0, 64, 37
2, 58445, Note_on_c, 0, 77, 0
2, 58450, Note_on_c, 0, 76, 78
2, 58457, Control_c, 0, 64, 37
2, 58554, Note_on_c, 0, 77, 76
2, 58558, Note_on_c, 0, 62, 52
2, 58578, Note_on_c, 0, 76, 0
2, 58638, Note_on_c, 0, 65, 0
2, 58641, Control_c, 0, 64, 36
2, 58655, Control_c, 0, 64, 35
2, 58740, Note_on_c, 0, 70, 70
2, 58776, Control_c, 0, 64, 34
2, 58797, Note_on_c, 0, 77, 0
2, 58807, Control_c, 0, 64, 34
2, 58928, Note_on_c, 0, 60, 53
2, 58937, Note_on_c, 0, 69, 63
2, 58974, Note_on_c, 0, 70, 0
2, 59010, Note_on_c, 0, 62, 0
2, 59111, Control_c, 0, 64, 33
2, 59120, Note_on_c, 0, 76, 72
2, 59157, Control_c, 0, 64, 32
2, 59202, Note_on_c, 0, 69, 0
2, 59320, Note_on_c, 0, 74, 62
2, 59332, Note_on_c, 0, 59, 42
2, 59344, Note_on_c, 0, 76, 0
2, 59397, Note_on_c, 0, 74, 0
2, 59474, Note_on_c, 0, 60, 0
2, 59524, Note_on_c, 0, 68, 62
2, 59530, Control_c, 0, 64, 27
2, 59545, Control_c, 0, 64, 0
2, 59689, Note_on_c, 0, 57, 27
2, 59727, Control_c, 0, 64, 45
2, 59742, Control_c, 0, 64, 55
2, 59757, Note_on_c, 0, 68, 0
2, 59758, Control_c, 0, 64, 59
2, 59772, Control_c, 0, 64, 62
2, 59787, Control_c, 0, 64, 64
2, 59787, Note_on_c, 0, 59, 0
2, 59794, Note_on_c, 0, 74, 56
2, 59803, Control_c, 0, 64, 69
2, 59817, Control_c, 0, 64, 75
2, 59832, Control_c, 0, 64, 79
2, 59848, Control_c, 0, 64, 81
2, 59863, Control_c, 0, 64, 81
2, 59872, Note_on_c, 0, 74, 0
2, 59876, Note_on_c, 0, 72, 60
2, 59924, Note_on_c, 0, 57, 0
2, 59940, Control_c, 0, 64, 81
2, 59963, Control_c, 0, 64, 80
2, 59966, Note_on_c, 0, 72, 0
2, 59973, Note_on_c, 0, 71, 58
2, 59978, Control_c, 0, 64, 78
2, 59992, Control_c, 0, 64, 74
2, 60008, Control_c, 0, 64, 71
2, 60023, Control_c, 0, 64, 67
2, 60034, Note_on_c, 0, 71, 0
2, 60038, Control_c, 0, 64, 62
2, 60050, Note_on_c, 0, 60, 48
2, 60053, Control_c, 0, 64, 55
2, 60060, Note_on_c, 0, 69, 51
2, 60068, Control_c, 0, 64, 43
2, 60084, Control_c, 0, 64, 34
2, 60099, Control_c, 0, 64, 29
2, 60114, Control_c, 0, 64, 28
2, 60129, Control_c, 0, 64, 28
2, 60160, Control_c, 0, 64, 27
2, 60242, Note_on_c, 0, 76, 55
2, 60272, Note_on_c, 0, 69, 0
2, 60434, Note_on_c, 0, 59, 39
2, 60442, Note_on_c, 0, 74, 56
2, 60464, Note_on_c, 0, 76, 0
2, 60512, Note_on_c, 0, 60, 0
2, 60604, Note_on_c, 0, 74, 0
2, 60632, Note_on_c, 0, 67, 44
2, 60827, Note_on_c, 0, 66, 51
2, 60827, Note_on_c, 0, 67, 0
2, 60854, Note_on_c, 0, 57, 39
2, 60912, Control_c, 0, 64, 28
2, 60926, Note_on_c, 0, 59, 0
2, 60928, Control_c, 0, 64, 28
2, 61019, Note_on_c, 0, 66, 0
2, 61022, Note_on_c, 0, 72, 48
2, 61126, Control_c, 0, 64, 13
2, 61141, Control_c, 0, 64, 0
2, 61166, Note_on_c, 0, 57, 0
2, 61188, Note_on_c, 0, 55, 38
2, 61206, Note_on_c, 0, 72, 0
2, 61215, Note_on_c, 0, 71, 51
2, 61279, Control_c, 0, 64, 48
2, 61292, Note_on_c, 0, 55, 0
2, 61294, Control_c, 0, 64, 60
2, 61308, Control_c, 0, 64, 63
2, 61314, Note_on_c, 0, 59, 40
2, 61324, Control_c, 0, 64, 66
2, 61339, Control_c, 0, 64, 69
2, 61339, Note_on_c, 0, 71, 0
2, 61354, Control_c, 0, 64, 75
2, 61370, Control_c, 0, 64, 80
2, 61374, Note_on_c, 0, 59, 0
2, 61384, Control_c, 0, 64, 82
2, 61392, Note_on_c, 0, 60, 51
2, 61469, Note_on_c, 0, 60, 0
2, 61501, Note_on_c, 0, 62, 54
2, 61529, Control_c, 0, 64, 82
2, 61544, Control_c, 0, 64, 81
2, 61547, Note_on_c, 0, 79, 74
2, 61560, Control_c, 0, 64, 80
2, 61575, Control_c, 0, 64, 79
2, 61589, Control_c, 0, 64, 77
2, 61605, Control_c, 0, 64, 76
2, 61620, Control_c, 0, 64, 74
2, 61626, Note_on_c, 0, 62, 0
2, 61636, Control_c, 0, 64, 72
2, 61640, Note_on_c, 0, 64, 52
2, 61650, Control_c, 0, 64, 71
2, 61665, Control_c, 0, 64, 68
2, 61681, Control_c, 0, 64, 65
2, 61696, Control_c, 0, 64, 60
2, 61711, Control_c, 0, 64, 49
2, 61726, Control_c, 0, 64, 41
2, 61741, Control_c, 0, 64, 38
2, 61757, Control_c, 0, 64, 36
2, 61771, Note_on_c, 0, 64, 0
2, 61772, Control_c, 0, 64, 32
2, 61776, Note_on_c, 0, 58, 50
2, 61787, Control_c, 0, 64, 22
2, 61802, Control_c, 0, 64, 0
2, 61954, Note_on_c, 0, 77, 78
2, 61969, Note_on_c, 0, 58, 0
2, 61970, Note_on_c, 0, 57, 38
2, 62101, Note_on_c, 0, 79, 0
2, 62165, Note_on_c, 0, 62, 52
2, 62244, Control_c, 0, 64, 23
2, 62266, Control_c, 0, 64, 35
2, 62282, Control_c, 0, 64, 38
2, 62312, Control_c, 0, 64, 39
2, 62326, Note_on_c, 0, 62, 0
2, 62328, Control_c, 0, 64, 40
2, 62339, Note_on_c, 0, 57, 0
2, 62343, Control_c, 0, 64, 40
2, 62359, Control_c, 0, 64, 41
2, 62362, Note_on_c, 0, 61, 55
2, 62367, Note_on_c, 0, 76, 73
2, 62413, Note_on_c, 0, 61, 0
2, 62477, Note_on_c, 0, 77, 0
2, 62540, Control_c, 0, 64, 38
2, 62556, Control_c, 0, 64, 28
2, 62567, Note_on_c, 0, 55, 50
2, 62570, Control_c, 0, 64, 0
2, 62719, Note_on_c, 0, 55, 0
2, 62740, Note_on_c, 0, 74, 62
2, 62753, Control_c, 0, 64, 46
2, 62769, Control_c, 0, 64, 61
2, 62784, Control_c, 0, 64, 66
2, 62799, Control_c, 0, 64, 75
2, 62805, Note_on_c, 0, 76, 0
2, 62814, Control_c, 0, 64, 95
2, 62829, Control_c, 0, 64, 127
2, 62832, Note_on_c, 0, 67, 57
2, 62896, Note_on_c, 0, 67, 0
2, 62910, Note_on_c, 0, 65, 61
2, 63012, Note_on_c, 0, 65, 0
2, 63013, Note_on_c, 0, 64, 72
2, 63096, Control_c, 0, 64, 88
2, 63096, Note_on_c, 0, 77, 74
2, 63111, Control_c, 0, 64, 72
2, 63120, Note_on_c, 0, 62, 69
2, 63126, Control_c, 0, 64, 62
2, 63141, Control_c, 0, 64, 43
2, 63141, Note_on_c, 0, 64, 0
2, 63157, Control_c, 0, 64, 0
2, 63168, Note_on_c, 0, 74, 0
2, 63295, Note_on_c, 0, 68, 76
2, 63398, Note_on_c, 0, 62, 0
2, 63512, Note_on_c, 0, 76, 73
2, 63517, Note_on_c, 0, 69, 67
2, 63566, Note_on_c, 0, 68, 0
2, 63633, Note_on_c, 0, 77, 0
2, 63713, Note_on_c, 0, 60, 65
2, 63781, Note_on_c, 0, 69, 0
2, 63912, Note_on_c, 0, 59, 53
2, 63912, Note_on_c, 0, 60, 0
2, 63912, Note_on_c, 0, 74, 67
2, 63972, Note_on_c, 0, 76, 0
2, 64078, Note_on_c, 0, 59, 0
2, 64089, Control_c, 0, 64, 31
2, 64102, Note_on_c, 0, 65, 54
2, 64104, Control_c, 0, 64, 55
2, 64119, Control_c, 0, 64, 62
2, 64134, Control_c, 0, 64, 65
2, 64149, Control_c, 0, 64, 69
2, 64150, Note_on_c, 0, 65, 0
2, 64165, Control_c, 0, 64, 75
2, 64179, Control_c, 0, 64, 82
2, 64194, Control_c, 0, 64, 88
2, 64210, Control_c, 0, 64, 93
2, 64225, Control_c, 0, 64, 95
2, 64297, Note_on_c, 0, 64, 55
2, 64347, Control_c, 0, 64, 94
2, 64361, Note_on_c, 0, 64, 0
2, 64363, Control_c, 0, 64, 92
2, 64378, Control_c, 0, 64, 87
2, 64386, Note_on_c, 0, 62, 50
2, 64393, Control_c, 0, 64, 82
2, 64409, Control_c, 0, 64, 76
2, 64423, Control_c, 0, 64, 69
2, 64438, Control_c, 0, 64, 64
2, 64454, Control_c, 0, 64, 52
2, 64462, Note_on_c, 0, 62, 0
2, 64469, Control_c, 0, 64, 38
2, 64477, Note_on_c, 0, 60, 52
2, 64484, Control_c, 0, 64, 29
2, 64499, Control_c, 0, 64, 27
2, 64514, Control_c, 0, 64, 26
2, 64524, Note_on_c, 0, 60, 0
2, 64545, Control_c, 0, 64, 26
2, 64582, Note_on_c, 0, 59, 56
2, 64660, Note_on_c, 0, 59, 0
2, 64680, Note_on_c, 0, 57, 52
2, 64695, Note_on_c, 0, 72, 54
2, 64744, Note_on_c, 0, 74, 0
2, 64878, Note_on_c, 0, 57, 0
2, 64885, Note_on_c, 0, 71, 55
2, 64886, Note_on_c, 0, 72, 0
2, 64890, Note_on_c, 0, 56, 44
2, 65069, Note_on_c, 0, 57, 42
2, 65071, Note_on_c, 0, 72, 59
2, 65103, Note_on_c, 0, 56, 0
2, 65126, Note_on_c, 0, 71, 0
2, 65272, Note_on_c, 0, 53, 48
2, 65352, Note_on_c, 0, 57, 0
2, 65452, Note_on_c, 0, 53, 0
2, 65452, Note_on_c, 0, 73, 71
2, 65463, Note_on_c, 0, 52, 44
2, 65518, Control_c, 0, 64, 26
2, 65533, Control_c, 0, 64, 27
2, 65579, Control_c, 0, 64, 27
2, 65584, Note_on_c, 0, 72, 0
2, 65624, Control_c, 0, 64, 28
2, 65639, Control_c, 0, 64, 28
2, 65649, Note_on_c, 0, 58, 61
2, 65670, Control_c, 0, 64, 29
2, 65686, Control_c, 0, 64, 29
2, 65731, Control_c, 0, 64, 30
2, 65746, Control_c, 0, 64, 30
2, 65835, Note_on_c, 0, 74, 72
2, 65836, Note_on_c, 0, 52, 0
2, 65838, Note_on_c, 0, 59, 61
2, 65897, Note_on_c, 0, 73, 0
2, 65943, Control_c, 0, 64, 27
2, 65948, Note_on_c, 0, 58, 0
2, 65958, Control_c, 0, 64, 24
2, 65974, Control_c, 0, 64, 16
2, 65990, Control_c, 0, 64, 0
2, 66020, Note_on_c, 0, 55, 60
2, 66184, Note_on_c, 0, 59, 0
2, 66218, Note_on_c, 0, 54, 65
2, 66228, Note_on_c, 0, 75, 83
2, 66250, Note_on_c, 0, 55, 0
2, 66288, Note_on_c, 0, 54, 0
2, 66330, Note_on_c, 0, 74, 0
2, 66422, Note_on_c, 0, 60, 69
2, 66615, Note_on_c, 0, 76, 78
2, 66680, Note_on_c, 0, 75, 0
2, 66797, Note_on_c, 0, 59, 57
2, 66888, Note_on_c, 0, 60, 0
2, 67008, Note_on_c, 0, 78, 81
2, 67101, Note_on_c, 0, 76, 0
2, 67160, Control_c, 0, 64, 39
2, 67176, Control_c, 0, 64, 61
2, 67177, Note_on_c, 0, 57, 55
2, 67185, Note_on_c, 0, 59, 0
2, 67191, Control_c, 0, 64, 68
2, 67207, Control_c, 0, 64, 85
2, 67221, Control_c, 0, 64, 127
2, 67246, Note_on_c, 0, 57, 0
2, 67272, Note_on_c, 0, 78, 0
2, 67379, Note_on_c, 0, 79, 69
2, 67380, Note_on_c, 0, 64, 54
2, 67458, Note_on_c, 0, 77, 69
2, 67510, Control_c, 0, 64, 92
2, 67526, Control_c, 0, 64, 73
2, 67526, Note_on_c, 0, 79, 0
2, 67541, Control_c, 0, 64, 62
2, 67547, Note_on_c, 0, 76, 67
2, 67555, Control_c, 0, 64, 35
2, 67561, Note_on_c, 0, 77, 0
2, 67571, Control_c, 0, 64, 0
2, 67639, Note_on_c, 0, 76, 0
2, 67644, Note_on_c, 0, 74, 69
2, 67749, Note_on_c, 0, 73, 80
2, 67765, Note_on_c, 0, 52, 44
2, 67785, Note_on_c, 0, 74, 0
2, 67932, Note_on_c, 0, 80, 80
2, 67974, Note_on_c, 0, 73, 0
2, 68127, Note_on_c, 0, 81, 78
2, 68139, Note_on_c, 0, 53, 54
2, 68186, Note_on_c, 0, 80, 0
2, 68254, Note_on_c, 0, 64, 0
2, 68256, Note_on_c, 0, 52, 0
2, 68317, Note_on_c, 0, 75, 81
2, 68378, Note_on_c, 0, 81, 0
2, 68511, Note_on_c, 0, 74, 76
2, 68516, Note_on_c, 0, 54, 60
2, 68571, Note_on_c, 0, 75, 0
2, 68580, Note_on_c, 0, 53, 0
2, 68703, Note_on_c, 0, 82, 78
2, 68858, Note_on_c, 0, 74, 0
2, 68876, Note_on_c, 0, 55, 51
2, 68924, Note_on_c, 0, 54, 0
2, 68964, Note_on_c, 0, 83, 75
2, 69023, Note_on_c, 0, 82, 0
2, 69174, Note_on_c, 0, 77, 73
2, 69241, Note_on_c, 0, 83, 0
2, 69356, Note_on_c, 0, 56, 50
2, 69367, Note_on_c, 0, 76, 67
2, 69377, Note_on_c, 0, 55, 0
2, 69396, Note_on_c, 0, 77, 0
2, 69473, Note_on_c, 0, 76, 0
2, 69564, Note_on_c, 0, 74, 62
2, 69752, Note_on_c, 0, 57, 47
2, 69840, Note_on_c, 0, 56, 0
2, 69956, Note_on_c, 0, 72, 63
2, 70057, Note_on_c, 0, 74, 0
2, 70140, Note_on_c, 0, 59, 44
2, 70161, Note_on_c, 0, 57, 0
2, 70336, Note_on_c, 0, 71, 62
2, 70452, Note_on_c, 0, 72, 0
2, 70506, Note_on_c, 0, 60, 47
2, 70552, Control_c, 0, 64, 33
2, 70568, Control_c, 0, 64, 54
2, 70568, Note_on_c, 0, 59, 0
2, 70583, Control_c, 0, 64, 59
2, 70597, Control_c, 0, 64, 61
2, 70613, Control_c, 0, 64, 62
2, 70628, Control_c, 0, 64, 63
2, 70641, Note_on_c, 0, 71, 0
2, 70644, Control_c, 0, 64, 63
2, 70658, Control_c, 0, 64, 64
2, 70709, Note_on_c, 0, 69, 57
2, 70757, Control_c, 0, 64, 63
2, 70780, Note_on_c, 0, 71, 65
2, 70788, Control_c, 0, 64, 62
2, 70791, Note_on_c, 0, 69, 0
2, 70804, Control_c, 0, 64, 61
2, 70818, Control_c, 0, 64, 60
2, 70833, Control_c, 0, 64, 59
2, 70849, Control_c, 0, 64, 57
2, 70863, Control_c, 0, 64, 54
2, 70873, Note_on_c, 0, 57, 46
2, 70878, Control_c, 0, 64, 47
2, 70879, Note_on_c, 0, 72, 67
2, 70892, Note_on_c, 0, 71, 0
2, 70894, Control_c, 0, 64, 28
2, 70910, Control_c, 0, 64, 0
2, 70978, Note_on_c, 0, 60, 0
2, 71075, Note_on_c, 0, 63, 57
2, 71123, Control_c, 0, 64, 55
2, 71138, Control_c, 0, 64, 62
2, 71153, Control_c, 0, 64, 64
2, 71168, Control_c, 0, 64, 66
2, 71183, Control_c, 0, 64, 69
2, 71184, Note_on_c, 0, 63, 0
2, 71198, Control_c, 0, 64, 71
2, 71214, Control_c, 0, 64, 73
2, 71229, Control_c, 0, 64, 74
2, 71264, Note_on_c, 0, 55, 46
2, 71266, Note_on_c, 0, 64, 62
2, 71287, Note_on_c, 0, 72, 0
2, 71350, Control_c, 0, 64, 73
2, 71361, Note_on_c, 0, 57, 0
2, 71366, Control_c, 0, 64, 71
2, 71381, Control_c, 0, 64, 68
2, 71396, Control_c, 0, 64, 64
2, 71412, Control_c, 0, 64, 59
2, 71427, Control_c, 0, 64, 41
2, 71441, Control_c, 0, 64, 0
2, 71454, Note_on_c, 0, 73, 73
2, 71518, Note_on_c, 0, 64, 0
2, 71648, Note_on_c, 0, 53, 45
2, 71662, Note_on_c, 0, 74, 60
2, 71728, Note_on_c, 0, 73, 0
2, 71738, Note_on_c, 0, 55, 0
2, 71853, Note_on_c, 0, 65, 51
2, 71888, Note_on_c, 0, 74, 0
2, 71990, Note_on_c, 0, 53, 0
2, 72029, Note_on_c, 0, 52, 44
2, 72032, Note_on_c, 0, 67, 54
2, 72043, Note_on_c, 0, 65, 0
2, 72058, Control_c, 0, 64, 13
2, 72073, Control_c, 0, 64, 49
2, 72088, Control_c, 0, 64, 54
2, 72103, Control_c, 0, 64, 55
2, 72112, Note_on_c, 0, 52, 0
2, 72118, Control_c, 0, 64, 56
2, 72133, Control_c, 0, 64, 57
2, 72136, Note_on_c, 0, 53, 50
2, 72164, Control_c, 0, 64, 58
2, 72201, Note_on_c, 0, 53, 0
2, 72217, Note_on_c, 0, 55, 50
2, 72248, Control_c, 0, 64, 57
2, 72263, Control_c, 0, 64, 54
2, 72274, Note_on_c, 0, 55, 0
2, 72278, Control_c, 0, 64, 51
2, 72289, Note_on_c, 0, 57, 56
2, 72293, Control_c, 0, 64, 46
2, 72308, Control_c, 0, 64, 39
2, 72324, Control_c, 0, 64, 21
2, 72338, Control_c, 0, 64, 0
2, 72388, Note_on_c, 0, 67, 0
2, 72394, Note_on_c, 0, 58, 50
2, 72412, Note_on_c, 0, 57, 0
2, 72413, Note_on_c, 0, 74, 72
2, 72417, Note_on_c, 0, 67, 7
2, 72538, Note_on_c, 0, 67, 0
2, 72603, Note_on_c, 0, 53, 46
2, 72614, Note_on_c, 0, 58, 0
2, 72792, Note_on_c, 0, 72, 72
2, 72796, Note_on_c, 0, 52, 32
2, 72827, Note_on_c, 0, 53, 0
2, 72867, Note_on_c, 0, 74, 0
2, 72983, Note_on_c, 0, 52, 0
2, 72989, Note_on_c, 0, 57, 49
2, 73185, Note_on_c, 0, 70, 61
2, 73187, Note_on_c, 0, 55, 45
2, 73209, Note_on_c, 0, 57, 0
2, 73275, Note_on_c, 0, 72, 0
2, 73375, Note_on_c, 0, 50, 45
2, 73376, Note_on_c, 0, 55, 0
2, 73579, Note_on_c, 0, 49, 36
2, 73600, Note_on_c, 0, 50, 0
2, 73632, Note_on_c, 0, 70, 0
2, 73661, Note_on_c, 0, 69, 50
2, 73685, Control_c, 0, 64, 49
2, 73699, Control_c, 0, 64, 57
2, 73714, Control_c, 0, 64, 59
2, 73730, Control_c, 0, 64, 60
2, 73733, Note_on_c, 0, 69, 0
2, 73745, Control_c, 0, 64, 61
2, 73756, Note_on_c, 0, 67, 55
2, 73760, Control_c, 0, 64, 61
2, 73818, Note_on_c, 0, 67, 0
2, 73840, Note_on_c, 0, 69, 59
2, 73859, Control_c, 0, 64, 61
2, 73861, Note_on_c, 0, 49, 0
2, 73874, Control_c, 0, 64, 60
2, 73890, Control_c, 0, 64, 60
2, 73904, Control_c, 0, 64, 59
2, 73919, Control_c, 0, 64, 57
2, 73933, Note_on_c, 0, 69, 0
2, 73935, Control_c, 0, 64, 54
2, 73941, Note_on_c, 0, 55, 47
2, 73946, Note_on_c, 0, 70, 62
2, 73950, Control_c, 0, 64, 52
2, 73966, Control_c, 0, 64, 47
2, 73980, Control_c, 0, 64, 34
2, 73995, Control_c, 0, 64, 0
2, 74129, Note_on_c, 0, 61, 54
2, 74148, Control_c, 0, 64, 37
2, 74164, Control_c, 0, 64, 56
2, 74179, Control_c, 0, 64, 62
2, 74194, Control_c, 0, 64, 64
2, 74210, Control_c, 0, 64, 66
2, 74221, Note_on_c, 0, 61, 0
2, 74224, Control_c, 0, 64, 69
2, 74239, Control_c, 0, 64, 71
2, 74255, Control_c, 0, 64, 73
2, 74270, Control_c, 0, 64, 74
2, 74335, Note_on_c, 0, 62, 53
2, 74341, Note_on_c, 0, 53, 44
2, 74341, Note_on_c, 0, 70, 0
2, 74390, Note_on_c, 0, 55, 0
2, 74392, Control_c, 0, 64, 73
2, 74408, Control_c, 0, 64, 72
2, 74422, Control_c, 0, 64, 70
2, 74437, Control_c, 0, 64, 68
2, 74453, Control_c, 0, 64, 66
2, 74467, Control_c, 0, 64, 63
2, 74483, Control_c, 0, 64, 56
2, 74498, Control_c, 0, 64, 43
2, 74513, Control_c, 0, 64, 36
2, 74513, Note_on_c, 0, 71, 62
2, 74529, Control_c, 0, 64, 35
2, 74551, Control_c, 0, 64, 34
2, 74553, Note_on_c, 0, 62, 0
2, 74567, Control_c, 0, 64, 34
2, 74716, Note_on_c, 0, 52, 44
2, 74717, Note_on_c, 0, 53, 0
2, 74720, Note_on_c, 0, 72, 57
2, 74763, Note_on_c, 0, 71, 0
2, 74912, Note_on_c, 0, 64, 59
2, 74915, Control_c, 0, 64, 35
2, 74946, Control_c, 0, 64, 36
2, 75023, Control_c, 0, 64, 34
2, 75038, Control_c, 0, 64, 10
2, 75053, Control_c, 0, 64, 0
2, 75062, Note_on_c, 0, 72, 0
2, 75063, Note_on_c, 0, 52, 0
2, 75104, Note_on_c, 0, 64, 0
2, 75110, Note_on_c, 0, 50, 40
2, 75111, Note_on_c, 0, 66, 54
2, 75172, Note_on_c, 0, 50, 0
2, 75190, Control_c, 0, 64, 42
2, 75193, Note_on_c, 0, 52, 50
2, 75206, Control_c, 0, 64, 54
2, 75221, Control_c, 0, 64, 59
2, 75236, Control_c, 0, 64, 61
2, 75252, Control_c, 0, 64, 63
2, 75263, Note_on_c, 0, 52, 0
2, 75266, Control_c, 0, 64, 64
2, 75281, Control_c, 0, 64, 64
2, 75287, Note_on_c, 0, 54, 52
2, 75339, Note_on_c, 0, 54, 0
2, 75365, Control_c, 0, 64, 64
2, 75371, Note_on_c, 0, 55, 52
2, 75380, Control_c, 0, 64, 63
2, 75395, Control_c, 0, 64, 61
2, 75411, Control_c, 0, 64, 58
2, 75426, Control_c, 0, 64, 54
2, 75441, Control_c, 0, 64, 47
2, 75451, Note_on_c, 0, 55, 0
2, 75457, Control_c, 0, 64, 38
2, 75471, Control_c, 0, 64, 30
2, 75474, Note_on_c, 0, 57, 51
2, 75477, Note_on_c, 0, 72, 60
2, 75487, Control_c, 0, 64, 26
2, 75502, Control_c, 0, 64, 22
2, 75514, Note_on_c, 0, 66, 0
2, 75516, Control_c, 0, 64, 20
2, 75649, Note_on_c, 0, 57, 0
2, 75664, Note_on_c, 0, 51, 52
2, 75826, Note_on_c, 0, 51, 0
2, 75836, Control_c, 0, 64, 21
2, 75860, Note_on_c, 0, 50, 49
2, 75863, Note_on_c, 0, 71, 61
2, 75918, Note_on_c, 0, 72, 0
2, 75958, Control_c, 0, 64, 22
2, 75973, Control_c, 0, 64, 24
2, 75988, Control_c, 0, 64, 24
2, 76041, Note_on_c, 0, 50, 0
2, 76047, Note_on_c, 0, 55, 41
2, 76193, Control_c, 0, 64, 8
2, 76209, Control_c, 0, 64, 0
2, 76235, Note_on_c, 0, 54, 43
2, 76247, Note_on_c, 0, 55, 0
2, 76249, Note_on_c, 0, 69, 51
2, 76297, Note_on_c, 0, 71, 0
2, 76417, Note_on_c, 0, 54, 0
2, 76422, Control_c, 0, 64, 46
2, 76428, Note_on_c, 0, 48, 43
2, 76436, Control_c, 0, 64, 55
2, 76452, Control_c, 0, 64, 58
2, 76467, Control_c, 0, 64, 60
2, 76483, Control_c, 0, 64, 61
2, 76497, Control_c, 0, 64, 62
2, 76512, Control_c, 0, 64, 63
2, 76528, Control_c, 0, 64, 64
2, 76619, Control_c, 0, 64, 62
2, 76633, Note_on_c, 0, 69, 0
2, 76635, Control_c, 0, 64, 57
2, 76643, Note_on_c, 0, 47, 31
2, 76651, Control_c, 0, 64, 39
2, 76665, Control_c, 0, 64, 0
2, 76666, Note_on_c, 0, 48, 0
2, 76756, Control_c, 0, 64, 50
2, 76756, Note_on_c, 0, 67, 53
2, 76772, Control_c, 0, 64, 59
2, 76786, Control_c, 0, 64, 62
2, 76801, Control_c, 0, 64, 63
2, 76809, Note_on_c, 0, 67, 0
2, 76817, Control_c, 0, 64, 65
2, 76832, Control_c, 0, 64, 66
2, 76856, Control_c, 0, 64, 67
2, 76858, Note_on_c, 0, 69, 46
2, 76870, Control_c, 0, 64, 68
2, 76899, Note_on_c, 0, 69, 0
2, 76930, Note_on_c, 0, 71, 58
2, 76977, Note_on_c, 0, 47, 0
2, 76992, Control_c, 0, 64, 67
2, 77007, Control_c, 0, 64, 66
2, 77012, Note_on_c, 0, 71, 0
2, 77021, Note_on_c, 0, 52, 42
2, 77022, Control_c, 0, 64, 65
2, 77029, Note_on_c, 0, 72, 60
2, 77037, Control_c, 0, 64, 63
2, 77053, Control_c, 0, 64, 61
2, 77068, Control_c, 0, 64, 56
2, 77084, Control_c, 0, 64, 48
2, 77098, Control_c, 0, 64, 40
2, 77113, Control_c, 0, 64, 35
2, 77129, Control_c, 0, 64, 34
2, 77144, Control_c, 0, 64, 32
2, 77159, Control_c, 0, 64, 31
2, 77175, Control_c, 0, 64, 31
2, 77214, Note_on_c, 0, 72, 0
2, 77224, Note_on_c, 0, 67, 55
2, 77415, Note_on_c, 0, 66, 61
2, 77420, Note_on_c, 0, 51, 45
2, 77494, Note_on_c, 0, 67, 0
2, 77495, Control_c, 0, 64, 32
2, 77506, Note_on_c, 0, 52, 0
2, 77621, Note_on_c, 0, 70, 69
2, 77624, Control_c, 0, 64, 32
2, 77638, Control_c, 0, 64, 33
2, 77667, Note_on_c, 0, 66, 0
2, 77669, Control_c, 0, 64, 33
2, 77806, Control_c, 0, 64, 34
2, 77815, Note_on_c, 0, 71, 76
2, 77827, Note_on_c, 0, 50, 44
2, 77836, Control_c, 0, 64, 34
2, 77865, Note_on_c, 0, 70, 0
2, 77943, Note_on_c, 0, 51, 0
2, 77988, Control_c, 0, 64, 35
2, 78010, Note_on_c, 0, 65, 69
2, 78070, Note_on_c, 0, 71, 0
2, 78095, Control_c, 0, 64, 35
2, 78196, Note_on_c, 0, 49, 54
2, 78200, Control_c, 0, 64, 36
2, 78201, Note_on_c, 0, 64, 73
2, 78247, Control_c, 0, 64, 36
2, 78259, Note_on_c, 0, 65, 0
2, 78369, Control_c, 0, 64, 37
2, 78370, Note_on_c, 0, 50, 0
2, 78405, Note_on_c, 0, 68, 71
2, 78498, Control_c, 0, 64, 37
2, 78544, Control_c, 0, 64, 38
2, 78606, Note_on_c, 0, 69, 67
2, 78612, Note_on_c, 0, 48, 55
2, 78644, Note_on_c, 0, 68, 0
2, 78661, Note_on_c, 0, 64, 0
2, 78703, Note_on_c, 0, 49, 0
2, 78706, Note_on_c, 0, 69, 0
2, 78801, Control_c, 0, 64, 37
2, 78811, Note_on_c, 0, 63, 74
2, 78817, Control_c, 0, 64, 37
2, 78832, Control_c, 0, 64, 36
2, 78848, Control_c, 0, 64, 36
2, 78862, Control_c, 0, 64, 35
2, 78998, Note_on_c, 0, 47, 54
2, 79150, Note_on_c, 0, 48, 0
2, 79210, Note_on_c, 0, 64, 74
2, 79300, Note_on_c, 0, 63, 0
2, 79328, Control_c, 0, 64, 35
2, 79388, Control_c, 0, 64, 34
2, 79407, Note_on_c, 0, 45, 48
2, 79418, Control_c, 0, 64, 34
2, 79449, Control_c, 0, 64, 33
2, 79473, Note_on_c, 0, 47, 0
2, 79478, Control_c, 0, 64, 33
2, 79494, Control_c, 0, 64, 32
2, 79509, Control_c, 0, 64, 32
2, 79525, Control_c, 0, 64, 31
2, 79539, Control_c, 0, 64, 30
2, 79554, Control_c, 0, 64, 29
2, 79570, Control_c, 0, 64, 26
2, 79585, Control_c, 0, 64, 0
2, 79595, Note_on_c, 0, 65, 55
2, 79646, Note_on_c, 0, 64, 0
2, 79796, Note_on_c, 0, 59, 48
2, 79828, Control_c, 0, 64, 49
2, 79844, Control_c, 0, 64, 62
2, 79858, Control_c, 0, 64, 66
2, 79873, Control_c, 0, 64, 72
2, 79873, Note_on_c, 0, 65, 0
2, 79880, Note_on_c, 0, 48, 42
2, 79883, Note_on_c, 0, 59, 0
2, 79889, Control_c, 0, 64, 85
2, 79904, Control_c, 0, 64, 105
2, 79907, Note_on_c, 0, 45, 0
2, 79929, Control_c, 0, 64, 127
2, 79964, Note_on_c, 0, 48, 0
2, 79980, Note_on_c, 0, 47, 46
2, 80037, Note_on_c, 0, 47, 0
2, 80048, Note_on_c, 0, 45, 55
2, 80156, Control_c, 0, 64, 115
2, 80172, Control_c, 0, 64, 95
2, 80177, Note_on_c, 0, 44, 50
2, 80177, Note_on_c, 0, 45, 0
2, 80180, Note_on_c, 0, 76, 68
2, 80186, Control_c, 0, 64, 83
2, 80201, Control_c, 0, 64, 72
2, 80217, Control_c, 0, 64, 64
2, 80232, Control_c, 0, 64, 54
2, 80248, Control_c, 0, 64, 35
2, 80263, Control_c, 0, 64, 22
2, 80278, Control_c, 0, 64, 20
2, 80308, Control_c, 0, 64, 19
2, 80339, Control_c, 0, 64, 18
2, 80373, Note_on_c, 0, 49, 55
2, 80446, Note_on_c, 0, 44, 0
2, 80556, Note_on_c, 0, 77, 76
2, 80565, Note_on_c, 0, 50, 61
2, 80596, Control_c, 0, 64, 19
2, 80612, Control_c, 0, 64, 20
2, 80625, Note_on_c, 0, 49, 0
2, 80687, Note_on_c, 0, 76, 0
2, 80763, Note_on_c, 0, 46, 60
2, 80848, Note_on_c, 0, 50, 0
2, 80951, Note_on_c, 0, 45, 61
2, 80955, Note_on_c, 0, 78, 82
2, 81021, Note_on_c, 0, 46, 0
2, 81061, Note_on_c, 0, 77, 0
2, 81145, Note_on_c, 0, 51, 61
2, 81313, Note_on_c, 0, 45, 0
2, 81323, Note_on_c, 0, 79, 86
2, 81332, Note_on_c, 0, 52, 64
2, 81366, Control_c, 0, 64, 19
2, 81380, Note_on_c, 0, 78, 0
2, 81381, Control_c, 0, 64, 12
2, 81397, Control_c, 0, 64, 0
2, 81466, Note_on_c, 0, 51, 0
2, 81543, Note_on_c, 0, 48, 65
2, 81620, Note_on_c, 0, 52, 0
2, 81721, Note_on_c, 0, 80, 81
2, 81727, Note_on_c, 0, 47, 63
2, 81750, Note_on_c, 0, 48, 0
2, 81782, Note_on_c, 0, 47, 0
2, 81820, Note_on_c, 0, 79, 0
2, 81926, Note_on_c, 0, 53, 67
2, 82107, Note_on_c, 0, 81, 82
2, 82176, Note_on_c, 0, 80, 0
2, 82316, Note_on_c, 0, 52, 56
2, 82408, Note_on_c, 0, 53, 0
2, 82473, Note_on_c, 0, 81, 0
2, 82507, Note_on_c, 0, 83, 84
2, 82704, Control_c, 0, 64, 28
2, 82704, Note_on_c, 0, 50, 57
2, 82720, Control_c, 0, 64, 45
2, 82735, Control_c, 0, 64, 53
2, 82746, Note_on_c, 0, 52, 0
2, 82750, Control_c, 0, 64, 58
2, 82766, Control_c, 0, 64, 61
2, 82780, Control_c, 0, 64, 63
2, 82796, Control_c, 0, 64, 64
2, 82811, Control_c, 0, 64, 64
2, 82871, Control_c, 0, 64, 62
2, 82887, Control_c, 0, 64, 57
2, 82894, Note_on_c, 0, 48, 53
2, 82895, Note_on_c, 0, 50, 0
2, 82902, Control_c, 0, 64, 39
2, 82917, Control_c, 0, 64, 0
2, 83000, Note_on_c, 0, 83, 0
2, 83031, Control_c, 0, 64, 50
2, 83046, Control_c, 0, 64, 65
2, 83053, Note_on_c, 0, 48, 0
2, 83061, Control_c, 0, 64, 76
2, 83077, Control_c, 0, 64, 127
2, 83098, Note_on_c, 0, 81, 74
2, 83179, Note_on_c, 0, 83, 84
2, 83189, Note_on_c, 0, 81, 0
2, 83274, Control_c, 0, 64, 90
2, 83277, Note_on_c, 0, 84, 83
2, 83280, Note_on_c, 0, 52, 59
2, 83289, Note_on_c, 0, 83, 0
2, 83290, Control_c, 0, 64, 75
2, 83305, Control_c, 0, 64, 65
2, 83321, Control_c, 0, 64, 53
2, 83336, Control_c, 0, 64, 28
2, 83338, Note_on_c, 0, 84, 0
2, 83350, Control_c, 0, 64, 0
2, 83497, Note_on_c, 0, 76, 84
2, 83696, Note_on_c, 0, 54, 58
2, 83764, Note_on_c, 0, 52, 0
2, 83889, Note_on_c, 0, 75, 80
2, 83979, Note_on_c, 0, 76, 0
2, 84093, Note_on_c, 0, 83, 75
2, 84099, Note_on_c, 0, 56, 48
2, 84128, Note_on_c, 0, 54, 0
2, 84140, Note_on_c, 0, 75, 0
2, 84174, Note_on_c, 0, 83, 0
2, 84292, Note_on_c, 0, 74, 70
2, 84473, Note_on_c, 0, 57, 47
2, 84499, Control_c, 0, 64, 51
2, 84514, Control_c, 0, 64, 61
2, 84518, Note_on_c, 0, 56, 0
2, 84536, Control_c, 0, 64, 64
2, 84551, Control_c, 0, 64, 68
2, 84551, Note_on_c, 0, 74, 0
2, 84567, Control_c, 0, 64, 73
2, 84582, Control_c, 0, 64, 80
2, 84594, Note_on_c, 0, 72, 70
2, 84598, Control_c, 0, 64, 88
2, 84613, Control_c, 0, 64, 96
2, 84627, Control_c, 0, 64, 102
2, 84643, Control_c, 0, 64, 104
2, 84673, Note_on_c, 0, 72, 0
2, 84673, Note_on_c, 0, 74, 73
2, 84713, Note_on_c, 0, 57, 0
2, 84720, Control_c, 0, 64, 102
2, 84734, Control_c, 0, 64, 94
2, 84749, Control_c, 0, 64, 83
2, 84753, Note_on_c, 0, 76, 77
2, 84765, Control_c, 0, 64, 72
2, 84773, Note_on_c, 0, 74, 0
2, 84780, Control_c, 0, 64, 64
2, 84795, Control_c, 0, 64, 50
2, 84810, Control_c, 0, 64, 0
2, 84862, Note_on_c, 0, 77, 78
2, 84885, Note_on_c, 0, 76, 0
2, 84892, Note_on_c, 0, 45, 33
2, 84926, Note_on_c, 0, 77, 0
2, 85062, Note_on_c, 0, 69, 71
2, 85258, Note_on_c, 0, 47, 51
2, 85348, Note_on_c, 0, 45, 0
2, 85450, Note_on_c, 0, 68, 65
2, 85501, Note_on_c, 0, 69, 0
2, 85630, Note_on_c, 0, 49, 47
2, 85637, Note_on_c, 0, 76, 60
2, 85664, Note_on_c, 0, 68, 0
2, 85671, Note_on_c, 0, 47, 0
2, 85707, Note_on_c, 0, 76, 0
2, 85843, Note_on_c, 0, 67, 51
2, 86012, Note_on_c, 0, 50, 35
2, 86077, Note_on_c, 0, 49, 0
2, 86089, Control_c, 0, 64, 44
2, 86096, Note_on_c, 0, 67, 0
2, 86103, Control_c, 0, 64, 55
2, 86119, Control_c, 0, 64, 59
2, 86134, Control_c, 0, 64, 61
2, 86134, Note_on_c, 0, 65, 50
2, 86148, Control_c, 0, 64, 63
2, 86164, Control_c, 0, 64, 64
2, 86179, Control_c, 0, 64, 64
2, 86200, Note_on_c, 0, 65, 0
2, 86229, Note_on_c, 0, 50, 0
2, 86229, Note_on_c, 0, 67, 52
2, 86255, Control_c, 0, 64, 64
2, 86270, Control_c, 0, 64, 63
2, 86285, Note_on_c, 0, 67, 0
2, 86286, Control_c, 0, 64, 62
2, 86300, Control_c, 0, 64, 61
2, 86304, Note_on_c, 0, 69, 54
2, 86315, Control_c, 0, 64, 58
2, 86331, Control_c, 0, 64, 55
2, 86346, Control_c, 0, 64, 49
2, 86362, Control_c, 0, 64, 41
2, 86377, Control_c, 0, 64, 22
2, 86391, Control_c, 0, 64, 0
2, 86404, Note_on_c, 0, 70, 56
2, 86411, Note_on_c, 0, 38, 35
2, 86415, Note_on_c, 0, 69, 0
2, 86469, Note_on_c, 0, 70, 0
2, 86614, Note_on_c, 0, 62, 49
2, 86806, Note_on_c, 0, 38, 0
2, 86810, Note_on_c, 0, 40, 35
2, 86946, Control_c, 0, 64, 33
2, 86949, Note_on_c, 0, 40, 0
2, 86961, Control_c, 0, 64, 49
2, 86977, Control_c, 0, 64, 54
2, 86991, Control_c, 0, 64, 56
2, 86998, Note_on_c, 0, 61, 53
2, 87007, Control_c, 0, 64, 58
2, 87022, Control_c, 0, 64, 59
2, 87034, Note_on_c, 0, 62, 0
2, 87037, Control_c, 0, 64, 59
2, 87053, Control_c, 0, 64, 60
2, 87158, Control_c, 0, 64, 59
2, 87174, Control_c, 0, 64, 57
2, 87183, Note_on_c, 0, 52, 52
2, 87188, Control_c, 0, 64, 53
2, 87204, Control_c, 0, 64, 50
2, 87219, Control_c, 0, 64, 45
2, 87221, Note_on_c, 0, 69, 52
2, 87234, Control_c, 0, 64, 35
2, 87237, Note_on_c, 0, 61, 0
2, 87250, Control_c, 0, 64, 0
2, 87293, Note_on_c, 0, 69, 0
2, 87429, Note_on_c, 0, 60, 61
2, 87619, Note_on_c, 0, 51, 54
2, 87701, Note_on_c, 0, 52, 0
2, 87789, Control_c, 0, 64, 21
2, 87805, Control_c, 0, 64, 35
2, 87806, Note_on_c, 0, 59, 55
2, 87820, Control_c, 0, 64, 38
2, 87823, Note_on_c, 0, 60, 0
2, 87859, Note_on_c, 0, 51, 0
2, 87956, Control_c, 0, 64, 38
2, 87972, Control_c, 0, 64, 36
2, 87986, Control_c, 0, 64, 34
2, 87998, Note_on_c, 0, 50, 44
2, 88000, Note_on_c, 0, 68, 46
2, 88001, Control_c, 0, 64, 31
2, 88004, Note_on_c, 0, 59, 0
2, 88017, Control_c, 0, 64, 27
2, 88031, Control_c, 0, 64, 21
2, 88047, Control_c, 0, 64, 15
2, 88047, Note_on_c, 0, 68, 0
2, 88062, Control_c, 0, 64, 0
2, 88190, Note_on_c, 0, 59, 49
2, 88393, Note_on_c, 0, 49, 41
2, 88525, Note_on_c, 0, 50, 0
2, 88542, Control_c, 0, 64, 31
2, 88557, Control_c, 0, 64, 49
2, 88573, Control_c, 0, 64, 53
2, 88583, Note_on_c, 0, 57, 43
2, 88583, Note_on_c, 0, 59, 0
2, 88588, Control_c, 0, 64, 55
2, 88604, Control_c, 0, 64, 56
2, 88611, Note_on_c, 0, 49, 0
2, 88619, Control_c, 0, 64, 56
2, 88725, Control_c, 0, 64, 55
2, 88740, Control_c, 0, 64, 54
2, 88754, Control_c, 0, 64, 52
2, 88770, Control_c, 0, 64, 49
2, 88785, Control_c, 0, 64, 47
2, 88793, Note_on_c, 0, 48, 33
2, 88798, Note_on_c, 0, 65, 44
2, 88800, Control_c, 0, 64, 45
2, 88816, Control_c, 0, 64, 43
2, 88823, Note_on_c, 0, 57, 0
2, 88830, Control_c, 0, 64, 42
2, 88846, Control_c, 0, 64, 41
2, 88854, Note_on_c, 0, 65, 0
2, 88861, Control_c, 0, 64, 39
2, 88875, Control_c, 0, 64, 33
2, 88891, Control_c, 0, 64, 25
2, 88906, Control_c, 0, 64, 18
2, 88922, Control_c, 0, 64, 13
2, 88938, Control_c, 0, 64, 12
2, 88953, Control_c, 0, 64, 0
2, 88991, Note_on_c, 0, 57, 37
2, 89210, Note_on_c, 0, 47, 33
2, 89239, Note_on_c, 0, 57, 0
2, 89252, Note_on_c, 0, 48, 0
2, 89264, Control_c, 0, 64, 38
2, 89279, Control_c, 0, 64, 52
2, 89295, Control_c, 0, 64, 56
2, 89309, Control_c, 0, 64, 57
2, 89325, Control_c, 0, 64, 59
2, 89340, Control_c, 0, 64, 60
2, 89355, Control_c, 0, 64, 60
2, 89371, Control_c, 0, 64, 61
2, 89405, Note_on_c, 0, 56, 50
2, 89434, Note_on_c, 0, 47, 0
2, 89464, Note_on_c, 0, 56, 0
2, 89477, Control_c, 0, 64, 60
2, 89493, Control_c, 0, 64, 60
2, 89508, Control_c, 0, 64, 58
2, 89508, Note_on_c, 0, 54, 41
2, 89522, Control_c, 0, 64, 56
2, 89538, Control_c, 0, 64, 52
2, 89553, Control_c, 0, 64, 46
2, 89569, Control_c, 0, 64, 33
2, 89584, Control_c, 0, 64, 0
2, 89586, Note_on_c, 0, 47, 33
2, 89595, Note_on_c, 0, 56, 47
2, 89607, Note_on_c, 0, 54, 0
2, 89652, Note_on_c, 0, 56, 0
2, 89808, Note_on_c, 0, 62, 55
2, 90000, Note_on_c, 0, 45, 32
2, 90034, Note_on_c, 0, 47, 0
2, 90079, Note_on_c, 0, 60, 50
2, 90153, Note_on_c, 0, 62, 0
2, 90154, Control_c, 0, 64, 35
2, 90169, Note_on_c, 0, 60, 0
2, 90170, Control_c, 0, 64, 41
2, 90174, Note_on_c, 0, 59, 54
2, 90185, Control_c, 0, 64, 42
2, 90193, Note_on_c, 0, 45, 0
2, 90200, Control_c, 0, 64, 42
2, 90238, Note_on_c, 0, 59, 0
2, 90259, Note_on_c, 0, 57, 52
2, 90348, Note_on_c, 0, 57, 0
2, 90350, Note_on_c, 0, 45, 39
2, 90352, Control_c, 0, 64, 40
2, 90365, Note_on_c, 0, 59, 58
2, 90368, Control_c, 0, 64, 36
2, 90382, Control_c, 0, 64, 30
2, 90397, Control_c, 0, 64, 26
2, 90413, Control_c, 0, 64, 23
2, 90428, Control_c, 0, 64, 21
2, 90431, Note_on_c, 0, 59, 0
2, 90444, Control_c, 0, 64, 17
2, 90459, Control_c, 0, 64, 8
2, 90474, Control_c, 0, 64, 0
2, 90569, Note_on_c, 0, 65, 65
2, 90761, Note_on_c, 0, 44, 53
2, 90858, Note_on_c, 0, 45, 0
2, 90873, Note_on_c, 0, 64, 74
2, 90887, Note_on_c, 0, 65, 0
2, 90893, Control_c, 0, 64, 31
2, 90908, Control_c, 0, 64, 47
2, 90924, Control_c, 0, 64, 51
2, 90939, Control_c, 0, 64, 52
2, 90961, Note_on_c, 0, 62, 69
2, 90965, Note_on_c, 0, 44, 0
2, 90965, Note_on_c, 0, 64, 0
2, 91042, Note_on_c, 0, 62, 0
2, 91049, Note_on_c, 0, 61, 66
2, 91060, Control_c, 0, 64, 51
2, 91074, Control_c, 0, 64, 50
2, 91090, Control_c, 0, 64, 48
2, 91105, Control_c, 0, 64, 46
2, 91120, Control_c, 0, 64, 43
2, 91136, Control_c, 0, 64, 40
2, 91138, Note_on_c, 0, 44, 58
2, 91141, Note_on_c, 0, 62, 73
2, 91150, Control_c, 0, 64, 35
2, 91166, Control_c, 0, 64, 28
2, 91171, Note_on_c, 0, 61, 0
2, 91181, Control_c, 0, 64, 21
2, 91196, Control_c, 0, 64, 12
2, 91205, Note_on_c, 0, 62, 0
2, 91211, Control_c, 0, 64, 0
2, 91348, Note_on_c, 0, 71, 79
2, 91551, Note_on_c, 0, 40, 56
2, 91640, Note_on_c, 0, 44, 0
2, 91661, Note_on_c, 0, 69, 76
2, 91663, Note_on_c, 0, 71, 0
2, 91691, Control_c, 0, 64, 20
2, 91706, Control_c, 0, 64, 44
2, 91720, Control_c, 0, 64, 48
2, 91736, Control_c, 0, 64, 49
2, 91746, Note_on_c, 0, 69, 0
2, 91749, Note_on_c, 0, 68, 80
2, 91751, Control_c, 0, 64, 50
2, 91792, Note_on_c, 0, 40, 0
2, 91840, Note_on_c, 0, 66, 74
2, 91840, Note_on_c, 0, 68, 0
2, 91948, Control_c, 0, 64, 49
2, 91948, Note_on_c, 0, 40, 65
2, 91948, Note_on_c, 0, 68, 83
2, 91955, Note_on_c, 0, 66, 0
2, 91964, Control_c, 0, 64, 43
2, 91979, Control_c, 0, 64, 17
2, 91994, Control_c, 0, 64, 0
2, 92038, Note_on_c, 0, 68, 0
2, 92131, Control_c, 0, 64, 40
2, 92146, Control_c, 0, 64, 56
2, 92161, Control_c, 0, 64, 60
2, 92161, Note_on_c, 0, 74, 80
2, 92176, Control_c, 0, 64, 62
2, 92191, Control_c, 0, 64, 64
2, 92216, Control_c, 0, 64, 66
2, 92229, Control_c, 0, 64, 71
2, 92245, Control_c, 0, 64, 79
2, 92260, Control_c, 0, 64, 89
2, 92275, Control_c, 0, 64, 92
2, 92388, Note_on_c, 0, 45, 66
2, 92413, Control_c, 0, 64, 89
2, 92428, Control_c, 0, 64, 81
2, 92442, Control_c, 0, 64, 70
2, 92457, Note_on_c, 0, 40, 0
2, 92458, Control_c, 0, 64, 58
2, 92473, Control_c, 0, 64, 0
2, 92566, Note_on_c, 0, 72, 71
2, 92601, Note_on_c, 0, 74, 0
2, 92610, Control_c, 0, 64, 52
2, 92621, Note_on_c, 0, 45, 0
2, 92625, Control_c, 0, 64, 62
2, 92639, Control_c, 0, 64, 67
2, 92654, Note_on_c, 0, 71, 78
2, 92655, Control_c, 0, 64, 75
2, 92668, Note_on_c, 0, 72, 0
2, 92670, Control_c, 0, 64, 91
2, 92686, Control_c, 0, 64, 127
2, 92755, Note_on_c, 0, 72, 87
2, 92762, Note_on_c, 0, 71, 0
2, 92837, Note_on_c, 0, 50, 61
2, 92898, Control_c, 0, 64, 108
2, 92913, Control_c, 0, 64, 92
2, 92917, Note_on_c, 0, 52, 64
2, 92929, Control_c, 0, 64, 79
2, 92939, Note_on_c, 0, 50, 0
2, 92944, Control_c, 0, 64, 68
2, 92959, Control_c, 0, 64, 58
2, 92975, Note_on_c, 0, 69, 77
2, 92981, Control_c, 0, 64, 15
2, 92996, Control_c, 0, 64, 0
2, 92997, Note_on_c, 0, 72, 0
2, 93021, Note_on_c, 0, 54, 66
2, 93036, Note_on_c, 0, 52, 0
2, 93147, Note_on_c, 0, 55, 69
2, 93149, Note_on_c, 0, 70, 77
2, 93194, Note_on_c, 0, 54, 0
2, 93241, Note_on_c, 0, 69, 0
2, 93364, Note_on_c, 0, 51, 63
2, 93495, Note_on_c, 0, 55, 0
2, 93550, Note_on_c, 0, 71, 83
2, 93578, Note_on_c, 0, 50, 62
2, 93669, Note_on_c, 0, 51, 0
2, 93669, Note_on_c, 0, 70, 0
2, 93771, Note_on_c, 0, 56, 71
2, 93846, Note_on_c, 0, 50, 0
2, 93951, Note_on_c, 0, 72, 81
2, 93964, Note_on_c, 0, 57, 70
2, 94018, Note_on_c, 0, 71, 0
2, 94069, Note_on_c, 0, 56, 0
2, 94159, Note_on_c, 0, 53, 73
2, 94219, Note_on_c, 0, 57, 0
2, 94344, Note_on_c, 0, 73, 79
2, 94345, Note_on_c, 0, 52, 67
2, 94353, Note_on_c, 0, 53, 0
2, 94404, Note_on_c, 0, 52, 0
2, 94422, Note_on_c, 0, 72, 0
2, 94543, Note_on_c, 0, 58, 73
2, 94747, Note_on_c, 0, 74, 86
2, 94879, Note_on_c, 0, 73, 0
2, 94948, Note_on_c, 0, 57, 64
2, 95063, Note_on_c, 0, 58, 0
2, 95143, Note_on_c, 0, 76, 85
2, 95228, Note_on_c, 0, 74, 0
2, 95316, Control_c, 0, 64, 38
2, 95332, Control_c, 0, 64, 63
2, 95336, Note_on_c, 0, 55, 66
2, 95347, Control_c, 0, 64, 71
2, 95361, Control_c, 0, 64, 91
2, 95369, Note_on_c, 0, 57, 0
2, 95377, Control_c, 0, 64, 127
2, 95438, Note_on_c, 0, 55, 0
2, 95530, Note_on_c, 0, 53, 61
2, 95605, Note_on_c, 0, 53, 0
2, 95607, Control_c, 0, 64, 101
2, 95611, Note_on_c, 0, 52, 63
2, 95616, Note_on_c, 0, 73, 76
2, 95621, Control_c, 0, 64, 78
2, 95626, Note_on_c, 0, 76, 0
2, 95636, Control_c, 0, 64, 64
2, 95652, Control_c, 0, 64, 50
2, 95666, Control_c, 0, 64, 0
2, 95696, Note_on_c, 0, 52, 0
2, 95702, Note_on_c, 0, 53, 65
2, 95703, Note_on_c, 0, 74, 77
2, 95745, Note_on_c, 0, 73, 0
2, 95788, Note_on_c, 0, 53, 0
2, 95794, Note_on_c, 0, 55, 64
2, 95796, Note_on_c, 0, 76, 79
2, 95827, Note_on_c, 0, 74, 0
2, 95910, Note_on_c, 0, 77, 90
2, 95913, Note_on_c, 0, 57, 64
2, 95956, Note_on_c, 0, 55, 0
2, 95959, Note_on_c, 0, 76, 0
2, 96111, Note_on_c, 0, 72, 81
2, 96183, Note_on_c, 0, 77, 0
2, 96307, Note_on_c, 0, 71, 80
2, 96308, Note_on_c, 0, 56, 60
2, 96376, Note_on_c, 0, 72, 0
2, 96450, Note_on_c, 0, 57, 0
2, 96505, Note_on_c, 0, 75, 84
2, 96590, Note_on_c, 0, 71, 0
2, 96707, Note_on_c, 0, 76, 79
2, 96708, Note_on_c, 0, 55, 57
2, 96765, Note_on_c, 0, 75, 0
2, 96783, Note_on_c, 0, 56, 0
2, 96899, Note_on_c, 0, 70, 76
2, 96964, Note_on_c, 0, 76, 0
2, 97092, Note_on_c, 0, 69, 77
2, 97101, Note_on_c, 0, 54, 54
2, 97159, Note_on_c, 0, 70, 0
2, 97197, Note_on_c, 0, 55, 0
2, 97290, Note_on_c, 0, 73, 75
2, 97379, Note_on_c, 0, 69, 0
2, 97494, Note_on_c, 0, 74, 74
2, 97497, Note_on_c, 0, 53, 53
2, 97542, Note_on_c, 0, 73, 0
2, 97590, Note_on_c, 0, 54, 0
2, 97610, Note_on_c, 0, 74, 0
2, 97702, Note_on_c, 0, 68, 74
2, 97890, Note_on_c, 0, 52, 47
2, 97992, Note_on_c, 0, 53, 0
2, 98077, Note_on_c, 0, 69, 71
2, 98154, Note_on_c, 0, 68, 0
2, 98271, Note_on_c, 0, 50, 48
2, 98315, Note_on_c, 0, 52, 0
2, 98451, Note_on_c, 0, 71, 65
2, 98492, Note_on_c, 0, 69, 0
2, 98631, Control_c, 0, 64, 38
2, 98647, Control_c, 0, 64, 55
2, 98650, Note_on_c, 0, 64, 62
2, 98658, Note_on_c, 0, 71, 0
2, 98662, Control_c, 0, 64, 59
2, 98677, Control_c, 0, 64, 62
2, 98693, Control_c, 0, 64, 63
2, 98707, Control_c, 0, 64, 65
2, 98722, Control_c, 0, 64, 68
2, 98738, Control_c, 0, 64, 71
2, 98753, Control_c, 0, 64, 74
2, 98769, Control_c, 0, 64, 77
2, 98784, Control_c, 0, 64, 78
2, 98790, Note_on_c, 0, 64, 0
2, 98832, Note_on_c, 0, 50, 0
2, 98856, Note_on_c, 0, 48, 53
2, 98858, Note_on_c, 0, 76, 75
2, 98861, Control_c, 0, 64, 77
2, 98875, Control_c, 0, 64, 74
2, 98891, Control_c, 0, 64, 71
2, 98906, Control_c, 0, 64, 66
2, 98921, Control_c, 0, 64, 59
2, 98936, Note_on_c, 0, 48, 0
2, 98937, Control_c, 0, 64, 39
2, 98952, Control_c, 0, 64, 0
2, 98959, Note_on_c, 0, 47, 43
2, 99051, Note_on_c, 0, 47, 0
2, 99070, Note_on_c, 0, 48, 48
2, 99179, Note_on_c, 0, 74, 70
2, 99261, Note_on_c, 0, 76, 0
2, 99290, Note_on_c, 0, 72, 70
2, 99295, Note_on_c, 0, 48, 0
2, 99300, Note_on_c, 0, 45, 41
2, 99341, Note_on_c, 0, 74, 0
2, 99389, Note_on_c, 0, 71, 74
2, 99393, Note_on_c, 0, 72, 0
2, 99481, Note_on_c, 0, 45, 0
2, 99488, Note_on_c, 0, 52, 42
2, 99492, Note_on_c, 0, 74, 64
2, 99521, Note_on_c, 0, 71, 0
2, 99601, Note_on_c, 0, 72, 65
2, 99616, Note_on_c, 0, 74, 0
2, 99701, Note_on_c, 0, 71, 62
2, 99707, Note_on_c, 0, 72, 0
2, 99789, Note_on_c, 0, 71, 0
2, 99797, Note_on_c, 0, 69, 55
2, 99924, Note_on_c, 0, 40, 22
2, 99927, Note_on_c, 0, 69, 0
2, 99936, Note_on_c, 0, 72, 60
2, 99977, Note_on_c, 0, 52, 0
2, 100056, Note_on_c, 0, 72, 0
2, 100069, Note_on_c, 0, 71, 61
2, 100175, Note_on_c, 0, 71, 0
2, 100196, Note_on_c, 0, 69, 45
2, 100198, Control_c, 0, 64, 39
2, 100214, Control_c, 0, 64, 54
2, 100228, Control_c, 0, 64, 59
2, 100244, Control_c, 0, 64, 62
2, 100253, Note_on_c, 0, 40, 0
2, 100259, Control_c, 0, 64, 64
2, 100274, Control_c, 0, 64, 67
2, 100290, Control_c, 0, 64, 75
2, 100304, Control_c, 0, 64, 85
2, 100309, Note_on_c, 0, 69, 0
2, 100319, Control_c, 0, 64, 96
2, 100325, Note_on_c, 0, 68, 56
2, 100335, Control_c, 0, 64, 106
2, 100349, Control_c, 0, 64, 122
2, 100365, Control_c, 0, 64, 127
2, 100493, Note_on_c, 0, 45, 42
2, 100543, Note_on_c, 0, 68, 0
2, 100560, Note_on_c, 0, 69, 56
2, 100610, Control_c, 0, 64, 110
2, 100616, Note_on_c, 0, 69, 0
2, 100625, Control_c, 0, 64, 103
2, 100636, Note_on_c, 0, 68, 63
2, 100639, Control_c, 0, 64, 97
2, 100663, Control_c, 0, 64, 90
2, 100678, Control_c, 0, 64, 82
2, 100694, Control_c, 0, 64, 71
2, 100695, Note_on_c, 0, 68, 0
2, 100709, Control_c, 0, 64, 62
2, 100719, Note_on_c, 0, 69, 51
2, 100725, Control_c, 0, 64, 10
2, 100739, Control_c, 0, 64, 0
2, 100784, Note_on_c, 0, 45, 0
2, 100791, Note_on_c, 0, 47, 42
2, 100876, Note_on_c, 0, 47, 0
2, 100907, Note_on_c, 0, 48, 51
2, 100973, Note_on_c, 0, 48, 0
2, 100990, Note_on_c, 0, 50, 59
2, 101059, Note_on_c, 0, 50, 0
2, 101093, Note_on_c, 0, 52, 55
2, 101179, Note_on_c, 0, 52, 0
2, 101200, Note_on_c, 0, 54, 56
2, 101289, Note_on_c, 0, 54, 0
2, 101320, Note_on_c, 0, 56, 49
2, 101448, Note_on_c, 0, 56, 0
2, 101484, Note_on_c, 0, 57, 36
2, 101673, Control_c, 0, 64, 39
2, 101689, Control_c, 0, 64, 48
2, 101703, Control_c, 0, 64, 53
2, 101718, Control_c, 0, 64, 56
2, 101734, Control_c, 0, 64, 58
2, 101749, Control_c, 0, 64, 59
2, 101758, Note_on_c, 0, 57, 0
2, 101765, Control_c, 0, 64, 60
2, 101794, Control_c, 0, 64, 61
2, 101886, Control_c, 0, 64, 60
2, 101901, Control_c, 0, 64, 59
2, 101915, Control_c, 0, 64, 59
2, 101931, Control_c, 0, 64, 58
2, 101946, Control_c, 0, 64, 57
2, 101961, Control_c, 0, 64, 57
2, 101977, Control_c, 0, 64, 56
2, 101991, Control_c, 0, 64, 56
2, 102007, Control_c, 0, 64, 55
2, 102022, Control_c, 0, 64, 54
2, 102034, Note_on_c, 0, 45, 22
2, 102038, Control_c, 0, 64, 52
2, 102054, Control_c, 0, 64, 49
2, 102069, Control_c, 0, 64, 43
2, 102084, Control_c, 0, 64, 28
2, 102099, Control_c, 0, 64, 0
2, 102335, Control_c, 0, 64, 34
2, 102349, Control_c, 0, 64, 42
2, 102365, Control_c, 0, 64, 45
2, 102380, Control_c, 0, 64, 47
2, 102395, Control_c, 0, 64, 48
2, 102411, Control_c, 0, 64, 50
2, 102425, Control_c, 0, 64, 51
2, 102440, Control_c, 0, 64, 52
2, 102456, Control_c, 0, 64, 53
2, 102471, Control_c, 0, 64, 53
2, 102605, Note_on_c, 0, 69, 0
2, 102611, Note_on_c, 0, 45, 0
2, 102623, Control_c, 0, 64, 53
2, 102638, Control_c, 0, 64, 52
2, 102654, Control_c, 0, 64, 52
2, 102668, Control_c, 0, 64, 51
2, 102684, Control_c, 0, 64, 50
2, 102699, Control_c, 0, 64, 50
2, 102714, Control_c, 0, 64, 49
2, 102730, Control_c, 0, 64, 48
2, 102744, Control_c, 0, 64, 48
2, 102775, Control_c, 0, 64, 47
2, 102790, Control_c, 0, 64, 47
2, 102806, Control_c, 0, 64, 46
2, 102835, Control_c, 0, 64, 46
2, 102852, Control_c, 0, 64, 45
2, 102913, Control_c, 0, 64, 45
2, 103148, Control_c, 0, 64, 44
2, 104731, Control_c, 0, 64, 37
2, 104744, Control_c, 0, 64, 0
2, 104747, Note_on_c, 0, 64, 99
2, 104879, Control_c, 0, 64, 53
2, 104895, Control_c, 0, 64, 64
2, 104910, Control_c, 0, 64, 73
2, 104925, Control_c, 0, 64, 109
2, 104941, Control_c, 0, 64, 127
2, 105003, Note_on_c, 0, 64, 0
2, 105138, Control_c, 0, 64, 103
2, 105153, Control_c, 0, 64, 81
2, 105168, Control_c, 0, 64, 69
2, 105184, Control_c, 0, 64, 58
2, 105199, Control_c, 0, 64, 0
2, 105310, Note_on_c, 0, 60, 96
2, 105608, Note_on_c, 0, 60, 0
2, 105857, Note_on_c, 0, 65, 96
2, 106249, Note_on_c, 0, 65, 0
2, 106419, Note_on_c, 0, 56, 94
2, 106866, Note_on_c, 0, 56, 0
2, 107634, Note_on_c, 0, 62, 85
2, 107663, Note_on_c, 0, 62, 0
2, 107914, Note_on_c, 0, 59, 81
2, 107940, Note_on_c, 0, 59, 0
2, 108196, Note_on_c, 0, 64, 86
2, 108224, Note_on_c, 0, 64, 0
2, 108472, Note_on_c, 0, 60, 85
2, 108506, Note_on_c, 0, 60, 0
2, 108752, Note_on_c, 0, 57, 83
2, 108782, Note_on_c, 0, 57, 0
2, 109008, Note_on_c, 0, 69, 96
2, 109014, Note_on_c, 0, 54, 80
2, 109037, Note_on_c, 0, 54, 0
2, 109285, Note_on_c, 0, 63, 75
2, 109312, Note_on_c, 0, 63, 0
2, 109391, Note_on_c, 0, 69, 0
2, 109541, Note_on_c, 0, 67, 95
2, 109544, Note_on_c, 0, 52, 73
2, 109568, Note_on_c, 0, 52, 0
2, 109803, Note_on_c, 0, 64, 79
2, 109849, Note_on_c, 0, 64, 0
2, 109878, Note_on_c, 0, 62, 61
2, 109943, Note_on_c, 0, 60, 71
2, 109949, Note_on_c, 0, 62, 0
2, 109962, Note_on_c, 0, 67, 0
2, 109995, Note_on_c, 0, 59, 63
2, 109997, Note_on_c, 0, 60, 0
2, 110069, Note_on_c, 0, 57, 85
2, 110071, Note_on_c, 0, 59, 0
2, 110074, Note_on_c, 0, 72, 100
2, 110097, Note_on_c, 0, 57, 0
2, 110345, Note_on_c, 0, 60, 80
2, 110394, Note_on_c, 0, 72, 0
2, 110402, Note_on_c, 0, 59, 74
2, 110412, Note_on_c, 0, 60, 0
2, 110439, Note_on_c, 0, 59, 0
2, 110470, Note_on_c, 0, 57, 74
2, 110525, Note_on_c, 0, 57, 0
2, 110541, Note_on_c, 0, 55, 72
2, 110590, Note_on_c, 0, 54, 76
2, 110592, Note_on_c, 0, 63, 92
2, 110596, Note_on_c, 0, 55, 0
2, 110657, Note_on_c, 0, 54, 0
2, 110658, Note_on_c, 0, 55, 68
2, 110723, Note_on_c, 0, 55, 0
2, 110740, Note_on_c, 0, 57, 72
2, 110925, Note_on_c, 0, 57, 0
2, 110944, Note_on_c, 0, 55, 66
2, 110988, Note_on_c, 0, 55, 0
2, 110996, Note_on_c, 0, 54, 73
2, 111038, Note_on_c, 0, 54, 0
2, 111070, Note_on_c, 0, 52, 69
2, 111112, Note_on_c, 0, 52, 0
2, 111124, Note_on_c, 0, 51, 74
2, 111162, Note_on_c, 0, 51, 0
2, 111192, Note_on_c, 0, 52, 73
2, 111237, Note_on_c, 0, 52, 0
2, 111243, Note_on_c, 0, 54, 84
2, 111331, Note_on_c, 0, 63, 0
2, 111443, Note_on_c, 0, 54, 0
2, 111476, Note_on_c, 0, 52, 65
2, 111515, Note_on_c, 0, 52, 0
2, 111531, Note_on_c, 0, 51, 70
2, 111600, Note_on_c, 0, 49, 61
2, 111612, Note_on_c, 0, 51, 0
2, 111660, Note_on_c, 0, 47, 74
2, 111663, Note_on_c, 0, 49, 0
2, 111896, Note_on_c, 0, 69, 93
2, 111929, Note_on_c, 0, 69, 0
2, 112014, Note_on_c, 0, 47, 0
2, 112024, Note_on_c, 0, 49, 60
2, 112075, Note_on_c, 0, 49, 0
2, 112098, Note_on_c, 0, 51, 62
2, 112154, Note_on_c, 0, 51, 0
2, 112170, Note_on_c, 0, 52, 69
2, 112176, Note_on_c, 0, 66, 91
2, 112213, Note_on_c, 0, 66, 0
2, 112222, Note_on_c, 0, 52, 0
2, 112234, Note_on_c, 0, 51, 63
2, 112281, Note_on_c, 0, 51, 0
2, 112296, Note_on_c, 0, 52, 61
2, 112354, Note_on_c, 0, 52, 0
2, 112368, Note_on_c, 0, 51, 66
2, 112421, Note_on_c, 0, 51, 0
2, 112448, Note_on_c, 0, 52, 65
2, 112449, Note_on_c, 0, 71, 89
2, 112485, Note_on_c, 0, 71, 0
2, 112489, Note_on_c, 0, 52, 0
2, 112504, Note_on_c, 0, 51, 56
2, 112550, Note_on_c, 0, 51, 0
2, 112567, Note_on_c, 0, 49, 57
2, 112596, Note_on_c, 0, 49, 0
2, 112629, Note_on_c, 0, 51, 66
2, 112686, Note_on_c, 0, 51, 0
2, 112707, Note_on_c, 0, 52, 67
2, 112717, Note_on_c, 0, 67, 98
2, 112757, Note_on_c, 0, 67, 0
2, 112861, Note_on_c, 0, 52, 0
2, 112982, Note_on_c, 0, 64, 91
2, 113014, Note_on_c, 0, 64, 0
2, 113080, Note_on_c, 0, 52, 53
2, 113113, Note_on_c, 0, 52, 0
2, 113125, Note_on_c, 0, 53, 60
2, 113156, Note_on_c, 0, 53, 0
2, 113179, Note_on_c, 0, 55, 49
2, 113225, Note_on_c, 0, 55, 0
2, 113231, Note_on_c, 0, 57, 75
2, 113242, Note_on_c, 0, 61, 86
2, 113263, Note_on_c, 0, 57, 0
2, 113272, Note_on_c, 0, 61, 0
2, 113503, Note_on_c, 0, 69, 80
2, 113533, Note_on_c, 0, 69, 0
2, 113576, Note_on_c, 0, 55, 50
2, 113613, Note_on_c, 0, 55, 0
2, 113632, Note_on_c, 0, 53, 53
2, 113672, Note_on_c, 0, 53, 0
2, 113683, Note_on_c, 0, 52, 52
2, 113772, Note_on_c, 0, 65, 93
2, 113778, Note_on_c, 0, 50, 56
2, 113809, Note_on_c, 0, 52, 0
2, 113817, Note_on_c, 0, 65, 0
2, 113897, Note_on_c, 0, 50, 0
2, 114035, Note_on_c, 0, 62, 80
2, 114068, Note_on_c, 0, 62, 0
2, 114121, Note_on_c, 0, 50, 56
2, 114163, Note_on_c, 0, 50, 0
2, 114180, Note_on_c, 0, 52, 43
2, 114219, Note_on_c, 0, 52, 0
2, 114235, Note_on_c, 0, 53, 46
2, 114279, Note_on_c, 0, 59, 75
2, 114292, Note_on_c, 0, 53, 0
2, 114295, Note_on_c, 0, 55, 62
2, 114313, Note_on_c, 0, 59, 0
2, 114322, Note_on_c, 0, 55, 0
2, 114549, Note_on_c, 0, 67, 76
2, 114581, Note_on_c, 0, 67, 0
2, 114637, Note_on_c, 0, 53, 49
2, 114672, Note_on_c, 0, 53, 0
2, 114686, Note_on_c, 0, 52, 53
2, 114739, Note_on_c, 0, 52, 0
2, 114759, Note_on_c, 0, 50, 48
2, 114815, Note_on_c, 0, 64, 80
2, 114821, Note_on_c, 0, 50, 0
2, 114822, Note_on_c, 0, 48, 55
2, 114848, Note_on_c, 0, 64, 0
2, 114878, Control_c, 0, 64, 34
2, 114894, Control_c, 0, 64, 46
2, 114909, Control_c, 0, 64, 47
2, 114924, Control_c, 0, 64, 48
2, 115089, Note_on_c, 0, 69, 83
2, 115233, Note_on_c, 0, 50, 67
2, 115246, Note_on_c, 0, 48, 0
2, 115269, Note_on_c, 0, 50, 0
2, 115343, Control_c, 0, 64, 47
2, 115358, Control_c, 0, 64, 46
2, 115365, Note_on_c, 0, 76, 96
2, 115373, Control_c, 0, 64, 45
2, 115383, Note_on_c, 0, 52, 74
2, 115388, Control_c, 0, 64, 44
2, 115397, Note_on_c, 0, 69, 0
2, 115403, Control_c, 0, 64, 42
2, 115419, Control_c, 0, 64, 41
2, 115434, Control_c, 0, 64, 41
2, 115466, Control_c, 0, 64, 40
2, 115497, Control_c, 0, 64, 40
2, 115499, Note_on_c, 0, 52, 0
2, 115519, Note_on_c, 0, 53, 56
2, 115557, Control_c, 0, 64, 39
2, 115562, Note_on_c, 0, 53, 0
2, 115569, Note_on_c, 0, 52, 57
2, 115587, Control_c, 0, 64, 39
2, 115602, Control_c, 0, 64, 38
2, 115618, Control_c, 0, 64, 34
2, 115633, Control_c, 0, 64, 25
2, 115640, Note_on_c, 0, 68, 82
2, 115649, Control_c, 0, 64, 0
2, 115649, Note_on_c, 0, 50, 78
2, 115658, Note_on_c, 0, 52, 0
2, 115667, Note_on_c, 0, 68, 0
2, 115672, Note_on_c, 0, 50, 0
2, 115785, Note_on_c, 0, 52, 77
2, 115809, Note_on_c, 0, 52, 0
2, 115821, Note_on_c, 0, 76, 0
2, 115910, Note_on_c, 0, 72, 106
2, 115929, Note_on_c, 0, 53, 68
2, 115931, Note_on_c, 0, 57, 71
2, 115949, Note_on_c, 0, 53, 0
2, 115959, Note_on_c, 0, 57, 0
2, 115969, Control_c, 0, 64, 53
2, 115984, Control_c, 0, 64, 62
2, 115999, Control_c, 0, 64, 71
2, 116021, Control_c, 0, 64, 93
2, 116036, Control_c, 0, 64, 127
2, 116174, Control_c, 0, 64, 92
2, 116189, Control_c, 0, 64, 70
2, 116196, Note_on_c, 0, 69, 84
2, 116205, Control_c, 0, 64, 43
2, 116219, Control_c, 0, 64, 0
2, 116232, Note_on_c, 0, 69, 0
2, 116269, Note_on_c, 0, 67, 71
2, 116335, Note_on_c, 0, 72, 0
2, 116337, Note_on_c, 0, 65, 70
2, 116342, Note_on_c, 0, 67, 0
2, 116397, Note_on_c, 0, 64, 66
2, 116410, Note_on_c, 0, 65, 0
2, 116461, Note_on_c, 0, 77, 100
2, 116467, Note_on_c, 0, 62, 84
2, 116474, Note_on_c, 0, 64, 0
2, 116489, Note_on_c, 0, 62, 0
2, 116492, Control_c, 0, 64, 13
2, 116507, Control_c, 0, 64, 16
2, 116522, Control_c, 0, 64, 27
2, 116538, Control_c, 0, 64, 32
2, 116553, Control_c, 0, 64, 34
2, 116569, Control_c, 0, 64, 35
2, 116645, Control_c, 0, 64, 36
2, 116660, Control_c, 0, 64, 36
2, 116736, Control_c, 0, 64, 33
2, 116741, Note_on_c, 0, 65, 82
2, 116750, Control_c, 0, 64, 13
2, 116766, Control_c, 0, 64, 0
2, 116766, Note_on_c, 0, 77, 0
2, 116807, Note_on_c, 0, 65, 0
2, 116813, Note_on_c, 0, 64, 80
2, 116889, Note_on_c, 0, 62, 70
2, 116889, Note_on_c, 0, 64, 0
2, 116916, Note_on_c, 0, 62, 0
2, 116947, Note_on_c, 0, 60, 72
2, 116992, Note_on_c, 0, 68, 94
2, 117000, Note_on_c, 0, 60, 0
2, 117007, Note_on_c, 0, 59, 83
2, 117061, Note_on_c, 0, 59, 0
2, 117064, Control_c, 0, 64, 44
2, 117079, Control_c, 0, 64, 44
2, 117082, Note_on_c, 0, 60, 72
2, 117095, Control_c, 0, 64, 48
2, 117110, Control_c, 0, 64, 50
2, 117125, Control_c, 0, 64, 51
2, 117136, Note_on_c, 0, 60, 0
2, 117140, Control_c, 0, 64, 52
2, 117152, Note_on_c, 0, 62, 74
2, 117155, Control_c, 0, 64, 52
2, 117171, Control_c, 0, 64, 53
2, 117186, Control_c, 0, 64, 53
2, 117250, Note_on_c, 0, 62, 0
2, 117269, Note_on_c, 0, 53, 85
2, 117293, Note_on_c, 0, 68, 0
2, 117307, Control_c, 0, 64, 53
2, 117322, Control_c, 0, 64, 49
2, 117338, Control_c, 0, 64, 43
2, 117341, Note_on_c, 0, 60, 82
2, 117350, Note_on_c, 0, 53, 0
2, 117352, Control_c, 0, 64, 32
2, 117368, Control_c, 0, 64, 0
2, 117394, Note_on_c, 0, 60, 0
2, 117403, Note_on_c, 0, 59, 54
2, 117461, Note_on_c, 0, 59, 0
2, 117479, Note_on_c, 0, 57, 58
2, 117525, Note_on_c, 0, 57, 0
2, 117542, Note_on_c, 0, 56, 72
2, 117543, Note_on_c, 0, 47, 93
2, 117575, Note_on_c, 0, 47, 0
2, 117601, Note_on_c, 0, 56, 0
2, 117632, Note_on_c, 0, 57, 65
2, 117697, Note_on_c, 0, 57, 0
2, 117718, Note_on_c, 0, 59, 72
2, 117837, Note_on_c, 0, 50, 90
2, 117873, Note_on_c, 0, 50, 0
2, 117909, Note_on_c, 0, 59, 0
2, 117922, Note_on_c, 0, 57, 63
2, 117985, Note_on_c, 0, 56, 63
2, 118001, Note_on_c, 0, 57, 0
2, 118049, Note_on_c, 0, 56, 0
2, 118052, Note_on_c, 0, 54, 62
2, 118112, Note_on_c, 0, 54, 0
2, 118116, Note_on_c, 0, 44, 85
2, 118129, Note_on_c, 0, 52, 66
2, 118144, Note_on_c, 0, 44, 0
2, 118152, Control_c, 0, 64, 63
2, 118168, Control_c, 0, 64, 69
2, 118183, Control_c, 0, 64, 78
2, 118197, Control_c, 0, 64, 85
2, 118213, Control_c, 0, 64, 89
2, 118228, Control_c, 0, 64, 89
2, 118399, Note_on_c, 0, 52, 0
2, 118400, Note_on_c, 0, 47, 74
2, 118407, Note_on_c, 0, 74, 95
2, 118425, Note_on_c, 0, 47, 0
2, 118443, Note_on_c, 0, 74, 0
2, 118508, Control_c, 0, 64, 89
2, 118539, Control_c, 0, 64, 88
2, 118553, Control_c, 0, 64, 86
2, 118559, Note_on_c, 0, 54, 71
2, 118568, Control_c, 0, 64, 79
2, 118584, Control_c, 0, 64, 67
2, 118599, Control_c, 0, 64, 44
2, 118615, Control_c, 0, 64, 0
2, 118627, Note_on_c, 0, 54, 0
2, 118630, Note_on_c, 0, 56, 70
2, 118678, Note_on_c, 0, 71, 97
2, 118692, Note_on_c, 0, 57, 80
2, 118694, Note_on_c, 0, 52, 67
2, 118694, Note_on_c, 0, 56, 0
2, 118712, Note_on_c, 0, 71, 0
2, 118760, Note_on_c, 0, 57, 0
2, 118764, Note_on_c, 0, 56, 69
2, 118826, Note_on_c, 0, 56, 0
2, 118831, Note_on_c, 0, 57, 71
2, 118881, Note_on_c, 0, 57, 0
2, 118896, Note_on_c, 0, 56, 60
2, 118953, Note_on_c, 0, 76, 92
2, 118957, Note_on_c, 0, 56, 0
2, 118970, Note_on_c, 0, 57, 78
2, 118989, Note_on_c, 0, 76, 0
2, 119000, Note_on_c, 0, 52, 0
2, 119025, Note_on_c, 0, 57, 0
2, 119031, Note_on_c, 0, 56, 69
2, 119101, Note_on_c, 0, 56, 0
2, 119117, Note_on_c, 0, 54, 62
2, 119156, Note_on_c, 0, 54, 0
2, 119164, Note_on_c, 0, 56, 65
2, 119216, Note_on_c, 0, 56, 0
2, 119245, Note_on_c, 0, 72, 96
2, 119260, Note_on_c, 0, 57, 78
2, 119261, Control_c, 0, 64, 45
2, 119263, Note_on_c, 0, 45, 77
2, 119275, Control_c, 0, 64, 64
2, 119290, Control_c, 0, 64, 80
2, 119290, Note_on_c, 0, 57, 0
2, 119297, Note_on_c, 0, 45, 0
2, 119306, Control_c, 0, 64, 127
2, 119343, Note_on_c, 0, 72, 0
2, 119534, Control_c, 0, 64, 69
2, 119544, Note_on_c, 0, 69, 96
2, 119549, Control_c, 0, 64, 0
2, 119581, Note_on_c, 0, 69, 0
2, 119639, Note_on_c, 0, 57, 67
2, 119704, Note_on_c, 0, 57, 0
2, 119706, Note_on_c, 0, 59, 70
2, 119753, Note_on_c, 0, 59, 0
2, 119762, Note_on_c, 0, 60, 64
2, 119798, Note_on_c, 0, 66, 93
2, 119801, Note_on_c, 0, 60, 0
2, 119801, Note_on_c, 0, 62, 84
2, 119840, Note_on_c, 0, 66, 0
2, 119843, Note_on_c, 0, 62, 0
2, 120076, Note_on_c, 0, 74, 81
2, 120079, Note_on_c, 0, 54, 64
2, 120104, Note_on_c, 0, 74, 0
2, 120149, Note_on_c, 0, 54, 0
2, 120153, Note_on_c, 0, 60, 63
2, 120198, Note_on_c, 0, 60, 0
2, 120214, Note_on_c, 0, 59, 55
2, 120259, Note_on_c, 0, 59, 0
2, 120284, Note_on_c, 0, 57, 55
2, 120350, Note_on_c, 0, 71, 87
2, 120363, Note_on_c, 0, 55, 55
2, 120385, Note_on_c, 0, 57, 0
2, 120394, Note_on_c, 0, 71, 0
2, 120468, Control_c, 0, 64, 12
2, 120468, Note_on_c, 0, 55, 0
2, 120482, Control_c, 0, 64, 13
2, 120559, Control_c, 0, 64, 8
2, 120574, Control_c, 0, 64, 0
2, 120619, Note_on_c, 0, 67, 73
2, 120654, Note_on_c, 0, 67, 0
2, 120713, Note_on_c, 0, 55, 56
2, 120769, Note_on_c, 0, 55, 0
2, 120779, Note_on_c, 0, 57, 46
2, 120831, Note_on_c, 0, 57, 0
2, 120849, Note_on_c, 0, 59, 45
2, 120881, Note_on_c, 0, 64, 77
2, 120887, Note_on_c, 0, 59, 0
2, 120904, Note_on_c, 0, 60, 61
2, 120914, Note_on_c, 0, 64, 0
2, 120933, Control_c, 0, 64, 10
2, 120945, Note_on_c, 0, 60, 0
2, 120948, Control_c, 0, 64, 19
2, 120962, Control_c, 0, 64, 24
2, 120978, Control_c, 0, 64, 28
2, 120993, Control_c, 0, 64, 32
2, 121008, Control_c, 0, 64, 36
2, 121024, Control_c, 0, 64, 38
2, 121039, Control_c, 0, 64, 39
2, 121055, Control_c, 0, 64, 40
2, 121070, Control_c, 0, 64, 40
2, 121100, Control_c, 0, 64, 41
2, 121115, Control_c, 0, 64, 43
2, 121129, Control_c, 0, 64, 45
2, 121147, Control_c, 0, 64, 47
2, 121156, Note_on_c, 0, 72, 66
2, 121161, Note_on_c, 0, 52, 45
2, 121162, Control_c, 0, 64, 50
2, 121178, Control_c, 0, 64, 52
2, 121191, Note_on_c, 0, 72, 0
2, 121193, Control_c, 0, 64, 54
2, 121207, Note_on_c, 0, 52, 0
2, 121208, Control_c, 0, 64, 55
2, 121223, Control_c, 0, 64, 57
2, 121235, Note_on_c, 0, 58, 44
2, 121238, Control_c, 0, 64, 58
2, 121254, Control_c, 0, 64, 59
2, 121269, Control_c, 0, 64, 60
2, 121282, Note_on_c, 0, 58, 0
2, 121283, Control_c, 0, 64, 61
2, 121298, Note_on_c, 0, 57, 46
2, 121357, Note_on_c, 0, 57, 0
2, 121369, Note_on_c, 0, 55, 50
2, 121443, Control_c, 0, 64, 59
2, 121454, Note_on_c, 0, 69, 73
2, 121459, Control_c, 0, 64, 58
2, 121474, Control_c, 0, 64, 57
2, 121480, Note_on_c, 0, 53, 43
2, 121481, Note_on_c, 0, 55, 0
2, 121490, Control_c, 0, 64, 56
2, 121504, Control_c, 0, 64, 55
2, 121519, Control_c, 0, 64, 55
2, 121535, Control_c, 0, 64, 54
2, 121549, Control_c, 0, 64, 53
2, 121580, Control_c, 0, 64, 52
2, 121615, Note_on_c, 0, 65, 56
2, 121625, Control_c, 0, 64, 52
2, 121640, Control_c, 0, 64, 51
2, 121656, Control_c, 0, 64, 50
2, 121671, Control_c, 0, 64, 45
2, 121687, Control_c, 0, 64, 40
2, 121703, Control_c, 0, 64, 36
2, 121717, Control_c, 0, 64, 35
2, 121736, Note_on_c, 0, 71, 86
2, 121740, Note_on_c, 0, 55, 57
2, 121776, Note_on_c, 0, 69, 0
2, 121778, Control_c, 0, 64, 34
2, 121793, Control_c, 0, 64, 33
2, 121796, Note_on_c, 0, 65, 0
2, 121809, Control_c, 0, 64, 32
2, 121818, Note_on_c, 0, 53, 0
2, 121839, Control_c, 0, 64, 30
2, 121855, Control_c, 0, 64, 21
2, 121870, Control_c, 0, 64, 0
2, 121915, Note_on_c, 0, 65, 70
2, 122042, Note_on_c, 0, 72, 74
2, 122043, Note_on_c, 0, 57, 54
2, 122062, Note_on_c, 0, 71, 0
2, 122083, Note_on_c, 0, 65, 0
2, 122101, Note_on_c, 0, 55, 0
2, 122132, Note_on_c, 0, 64, 51
2, 122182, Note_on_c, 0, 64, 0
2, 122208, Note_on_c, 0, 65, 63
2, 122245, Note_on_c, 0, 65, 0
2, 122269, Note_on_c, 0, 67, 64
2, 122321, Note_on_c, 0, 67, 0
2, 122337, Note_on_c, 0, 69, 68
2, 122343, Note_on_c, 0, 55, 51
2, 122365, Control_c, 0, 64, 43
2, 122365, Note_on_c, 0, 57, 0
2, 122380, Control_c, 0, 64, 60
2, 122395, Control_c, 0, 64, 64
2, 122410, Control_c, 0, 64, 68
2, 122413, Note_on_c, 0, 67, 72
2, 122425, Control_c, 0, 64, 77
2, 122426, Note_on_c, 0, 69, 0
2, 122441, Control_c, 0, 64, 108
2, 122456, Control_c, 0, 64, 127
2, 122465, Note_on_c, 0, 67, 0
2, 122488, Note_on_c, 0, 65, 61
2, 122529, Note_on_c, 0, 64, 76
2, 122533, Note_on_c, 0, 65, 0
2, 122558, Note_on_c, 0, 64, 0
2, 122581, Note_on_c, 0, 72, 0
2, 122609, Note_on_c, 0, 62, 64
2, 122615, Note_on_c, 0, 53, 59
2, 122670, Note_on_c, 0, 55, 0
2, 122689, Note_on_c, 0, 72, 79
2, 122700, Control_c, 0, 64, 87
2, 122715, Control_c, 0, 64, 71
2, 122731, Control_c, 0, 64, 61
2, 122746, Control_c, 0, 64, 35
2, 122755, Note_on_c, 0, 72, 0
2, 122762, Control_c, 0, 64, 0
2, 122765, Note_on_c, 0, 74, 80
2, 122831, Note_on_c, 0, 76, 80
2, 122835, Note_on_c, 0, 74, 0
2, 122895, Note_on_c, 0, 77, 88
2, 122902, Note_on_c, 0, 53, 0
2, 122902, Note_on_c, 0, 76, 0
2, 122906, Note_on_c, 0, 50, 66
2, 122951, Control_c, 0, 64, 47
2, 122967, Control_c, 0, 64, 62
2, 122981, Control_c, 0, 64, 70
2, 122982, Note_on_c, 0, 76, 88
2, 122991, Note_on_c, 0, 77, 0
2, 122996, Control_c, 0, 64, 94
2, 123012, Control_c, 0, 64, 127
2, 123043, Note_on_c, 0, 76, 0
2, 123049, Note_on_c, 0, 74, 86
2, 123092, Note_on_c, 0, 74, 0
2, 123104, Note_on_c, 0, 72, 81
2, 123129, Note_on_c, 0, 72, 0
2, 123183, Note_on_c, 0, 55, 74
2, 123186, Note_on_c, 0, 62, 0
2, 123187, Note_on_c, 0, 71, 93
2, 123193, Control_c, 0, 64, 93
2, 123209, Control_c, 0, 64, 69
2, 123224, Control_c, 0, 64, 16
2, 123224, Note_on_c, 0, 50, 0
2, 123239, Control_c, 0, 64, 0
2, 123263, Note_on_c, 0, 62, 72
2, 123332, Note_on_c, 0, 62, 0
2, 123344, Note_on_c, 0, 64, 74
2, 123401, Note_on_c, 0, 65, 81
2, 123408, Note_on_c, 0, 64, 0
2, 123473, Note_on_c, 0, 67, 78
2, 123476, Note_on_c, 0, 65, 0
2, 123492, Note_on_c, 0, 53, 71
2, 123511, Note_on_c, 0, 55, 0
2, 123553, Note_on_c, 0, 65, 76
2, 123588, Note_on_c, 0, 67, 0
2, 123615, Note_on_c, 0, 64, 92
2, 123617, Note_on_c, 0, 65, 0
2, 123648, Note_on_c, 0, 71, 0
2, 123681, Note_on_c, 0, 64, 0
2, 123687, Note_on_c, 0, 62, 76
2, 123718, Note_on_c, 0, 53, 0
2, 123718, Note_on_c, 0, 62, 0
2, 123762, Note_on_c, 0, 60, 96
2, 123763, Note_on_c, 0, 52, 87
2, 123813, Note_on_c, 0, 60, 0
2, 124035, Note_on_c, 0, 55, 74
2, 124055, Note_on_c, 0, 84, 79
2, 124066, Note_on_c, 0, 55, 0
2, 124127, Note_on_c, 0, 83, 81
2, 124149, Note_on_c, 0, 84, 0
2, 124191, Note_on_c, 0, 81, 82
2, 124216, Note_on_c, 0, 52, 0
2, 124217, Note_on_c, 0, 83, 0
2, 124266, Note_on_c, 0, 79, 79
2, 124269, Note_on_c, 0, 81, 0
2, 124325, Note_on_c, 0, 79, 0
2, 124329, Note_on_c, 0, 57, 91
2, 124332, Note_on_c, 0, 77, 85
2, 124337, Note_on_c, 0, 60, 86
2, 124359, Note_on_c, 0, 60, 0
2, 124365, Note_on_c, 0, 77, 0
2, 124386, Control_c, 0, 64, 34
2, 124401, Control_c, 0, 64, 34
2, 124417, Control_c, 0, 64, 31
2, 124546, Control_c, 0, 64, 30
2, 124561, Control_c, 0, 64, 28
2, 124577, Control_c, 0, 64, 26
2, 124591, Control_c, 0, 64, 20
2, 124607, Control_c, 0, 64, 0
2, 124617, Note_on_c, 0, 81, 76
2, 124636, Note_on_c, 0, 65, 78
2, 124665, Note_on_c, 0, 65, 0
2, 124698, Note_on_c, 0, 79, 81
2, 124710, Note_on_c, 0, 81, 0
2, 124753, Note_on_c, 0, 57, 0
2, 124765, Note_on_c, 0, 77, 83
2, 124781, Note_on_c, 0, 79, 0
2, 124835, Note_on_c, 0, 76, 79
2, 124839, Note_on_c, 0, 77, 0
2, 124893, Note_on_c, 0, 76, 0
2, 124902, Note_on_c, 0, 74, 84
2, 124903, Note_on_c, 0, 47, 88
2, 124956, Control_c, 0, 64, 58
2, 124963, Note_on_c, 0, 47, 0
2, 124973, Control_c, 0, 64, 63
2, 124973, Note_on_c, 0, 74, 0
2, 124974, Note_on_c, 0, 76, 82
2, 124988, Control_c, 0, 64, 69
2, 125003, Control_c, 0, 64, 87
2, 125019, Control_c, 0, 64, 127
2, 125054, Note_on_c, 0, 77, 83
2, 125056, Note_on_c, 0, 76, 0
2, 125189, Note_on_c, 0, 69, 89
2, 125213, Note_on_c, 0, 69, 0
2, 125216, Control_c, 0, 64, 81
2, 125238, Control_c, 0, 64, 49
2, 125254, Control_c, 0, 64, 0
2, 125262, Note_on_c, 0, 77, 0
2, 125275, Note_on_c, 0, 76, 72
2, 125340, Note_on_c, 0, 74, 71
2, 125343, Note_on_c, 0, 76, 0
2, 125405, Note_on_c, 0, 72, 78
2, 125412, Note_on_c, 0, 74, 0
2, 125461, Note_on_c, 0, 72, 0
2, 125478, Note_on_c, 0, 71, 82
2, 125480, Note_on_c, 0, 62, 88
2, 125505, Note_on_c, 0, 62, 0
2, 125536, Note_on_c, 0, 71, 0
2, 125549, Note_on_c, 0, 72, 80
2, 125615, Note_on_c, 0, 72, 0
2, 125627, Note_on_c, 0, 74, 73
2, 125774, Note_on_c, 0, 65, 88
2, 125796, Note_on_c, 0, 65, 0
2, 125858, Note_on_c, 0, 74, 0
2, 125861, Note_on_c, 0, 72, 70
2, 125933, Note_on_c, 0, 71, 69
2, 125945, Note_on_c, 0, 72, 0
2, 126010, Note_on_c, 0, 69, 69
2, 126011, Note_on_c, 0, 71, 0
2, 126065, Note_on_c, 0, 69, 0
2, 126068, Note_on_c, 0, 59, 79
2, 126081, Note_on_c, 0, 67, 75
2, 126092, Note_on_c, 0, 59, 0
2, 126356, Note_on_c, 0, 53, 87
2, 126375, Note_on_c, 0, 62, 81
2, 126383, Note_on_c, 0, 53, 0
2, 126443, Note_on_c, 0, 62, 0
2, 126499, Note_on_c, 0, 67, 0
2, 126521, Note_on_c, 0, 69, 69
2, 126579, Note_on_c, 0, 69, 0
2, 126598, Note_on_c, 0, 71, 74
2, 126647, Note_on_c, 0, 50, 92
2, 126657, Note_on_c, 0, 72, 80
2, 126659, Note_on_c, 0, 71, 0
2, 126667, Note_on_c, 0, 65, 67
2, 126674, Note_on_c, 0, 50, 0
2, 126716, Note_on_c, 0, 65, 0
2, 126732, Note_on_c, 0, 72, 0
2, 126734, Note_on_c, 0, 71, 74
2, 126805, Note_on_c, 0, 71, 0
2, 126817, Note_on_c, 0, 72, 76
2, 126875, Note_on_c, 0, 71, 76
2, 126876, Note_on_c, 0, 72, 0
2, 126938, Note_on_c, 0, 71, 0
2, 126944, Note_on_c, 0, 55, 89
2, 126948, Note_on_c, 0, 62, 83
2, 126948, Note_on_c, 0, 72, 78
2, 126970, Note_on_c, 0, 62, 0
2, 126981, Note_on_c, 0, 55, 0
2, 127008, Note_on_c, 0, 72, 0
2, 127012, Note_on_c, 0, 71, 71
2, 127073, Note_on_c, 0, 71, 0
2, 127086, Note_on_c, 0, 69, 74
2, 127142, Note_on_c, 0, 69, 0
2, 127160, Note_on_c, 0, 71, 69
2, 127228, Note_on_c, 0, 52, 60
2, 127238, Note_on_c, 0, 72, 81
2, 127241, Note_on_c, 0, 71, 0
2, 127246, Note_on_c, 0, 67, 81
2, 127275, Control_c, 0, 64, 21
2, 127288, Note_on_c, 0, 67, 0
2, 127291, Control_c, 0, 64, 58
2, 127291, Note_on_c, 0, 72, 0
2, 127306, Control_c, 0, 64, 63
2, 127321, Control_c, 0, 64, 68
2, 127336, Control_c, 0, 64, 78
2, 127351, Control_c, 0, 64, 93
2, 127367, Control_c, 0, 64, 100
2, 127381, Control_c, 0, 64, 102
2, 127482, Note_on_c, 0, 52, 0
2, 127525, Note_on_c, 0, 60, 90
2, 127542, Control_c, 0, 64, 102
2, 127557, Control_c, 0, 64, 101
2, 127559, Note_on_c, 0, 60, 0
2, 127573, Control_c, 0, 64, 101
2, 127588, Control_c, 0, 64, 99
2, 127603, Control_c, 0, 64, 98
2, 127619, Control_c, 0, 64, 96
2, 127634, Control_c, 0, 64, 94
2, 127649, Control_c, 0, 64, 93
2, 127664, Control_c, 0, 64, 92
2, 127677, Note_on_c, 0, 52, 63
2, 127679, Control_c, 0, 64, 90
2, 127694, Control_c, 0, 64, 86
2, 127709, Control_c, 0, 64, 80
2, 127725, Control_c, 0, 64, 72
2, 127738, Note_on_c, 0, 52, 0
2, 127740, Control_c, 0, 64, 66
2, 127755, Control_c, 0, 64, 57
2, 127760, Note_on_c, 0, 54, 59
2, 127771, Control_c, 0, 64, 0
2, 127817, Note_on_c, 0, 54, 0
2, 127824, Note_on_c, 0, 55, 74
2, 127825, Note_on_c, 0, 57, 94
2, 127858, Note_on_c, 0, 57, 0
2, 127898, Note_on_c, 0, 55, 0
2, 127906, Note_on_c, 0, 54, 70
2, 127960, Note_on_c, 0, 54, 0
2, 127977, Note_on_c, 0, 55, 68
2, 128043, Note_on_c, 0, 55, 0
2, 128055, Note_on_c, 0, 54, 67
2, 128119, Note_on_c, 0, 62, 92
2, 128126, Note_on_c, 0, 54, 0
2, 128133, Note_on_c, 0, 55, 72
2, 128160, Note_on_c, 0, 62, 0
2, 128180, Note_on_c, 0, 55, 0
2, 128208, Note_on_c, 0, 54, 64
2, 128250, Note_on_c, 0, 54, 0
2, 128270, Note_on_c, 0, 52, 57
2, 128323, Note_on_c, 0, 52, 0
2, 128335, Note_on_c, 0, 54, 65
2, 128400, Note_on_c, 0, 54, 0
2, 128423, Note_on_c, 0, 59, 89
2, 128433, Note_on_c, 0, 55, 65
2, 128477, Note_on_c, 0, 55, 0
2, 128717, Note_on_c, 0, 67, 96
2, 128722, Note_on_c, 0, 52, 63
2, 128728, Note_on_c, 0, 59, 0
2, 128743, Note_on_c, 0, 52, 0
2, 128751, Control_c, 0, 64, 51
2, 128767, Control_c, 0, 64, 63
2, 128782, Control_c, 0, 64, 72
2, 128787, Note_on_c, 0, 67, 0
2, 128797, Control_c, 0, 64, 100
2, 128812, Control_c, 0, 64, 127
2, 128857, Note_on_c, 0, 59, 67
2, 128941, Note_on_c, 0, 59, 0
2, 128943, Note_on_c, 0, 61, 74
2, 128963, Control_c, 0, 64, 89
2, 128979, Control_c, 0, 64, 69
2, 128994, Control_c, 0, 64, 44
2, 128996, Note_on_c, 0, 64, 104
2, 128998, Note_on_c, 0, 57, 48
2, 129010, Control_c, 0, 64, 0
2, 129012, Note_on_c, 0, 61, 0
2, 129015, Note_on_c, 0, 62, 79
2, 129039, Note_on_c, 0, 64, 0
2, 129091, Note_on_c, 0, 62, 0
2, 129095, Note_on_c, 0, 61, 78
2, 129160, Note_on_c, 0, 61, 0
2, 129174, Note_on_c, 0, 62, 80
2, 129222, Note_on_c, 0, 62, 0
2, 129238, Note_on_c, 0, 61, 67
2, 129293, Note_on_c, 0, 61, 0
2, 129299, Note_on_c, 0, 69, 95
2, 129306, Note_on_c, 0, 62, 71
2, 129336, Note_on_c, 0, 69, 0
2, 129349, Note_on_c, 0, 62, 0
2, 129370, Note_on_c, 0, 61, 69
2, 129430, Note_on_c, 0, 61, 0
2, 129436, Note_on_c, 0, 57, 0
2, 129442, Note_on_c, 0, 59, 73
2, 129533, Note_on_c, 0, 59, 0
2, 129560, Note_on_c, 0, 61, 69
2, 129587, Note_on_c, 0, 66, 96
2, 129590, Note_on_c, 0, 61, 0
2, 129594, Note_on_c, 0, 62, 88
2, 129656, Control_c, 0, 64, 43
2, 129671, Control_c, 0, 64, 41
2, 129687, Control_c, 0, 64, 42
2, 129702, Control_c, 0, 64, 43
2, 129716, Control_c, 0, 64, 44
2, 129732, Control_c, 0, 64, 44
2, 129778, Control_c, 0, 64, 45
2, 129792, Control_c, 0, 64, 46
2, 129808, Control_c, 0, 64, 47
2, 129823, Control_c, 0, 64, 48
2, 129847, Control_c, 0, 64, 48
2, 129853, Note_on_c, 0, 66, 0
2, 129889, Note_on_c, 0, 50, 79
2, 129911, Note_on_c, 0, 50, 0
2, 129967, Control_c, 0, 64, 48
2, 129982, Control_c, 0, 64, 47
2, 129997, Control_c, 0, 64, 47
2, 130013, Control_c, 0, 64, 46
2, 130018, Note_on_c, 0, 62, 0
2, 130024, Note_on_c, 0, 66, 67
2, 130027, Control_c, 0, 64, 46
2, 130042, Control_c, 0, 64, 45
2, 130058, Control_c, 0, 64, 44
2, 130070, Note_on_c, 0, 66, 0
2, 130073, Control_c, 0, 64, 42
2, 130089, Control_c, 0, 64, 39
2, 130097, Note_on_c, 0, 68, 63
2, 130103, Control_c, 0, 64, 37
2, 130118, Control_c, 0, 64, 35
2, 130134, Control_c, 0, 64, 34
2, 130149, Control_c, 0, 64, 31
2, 130149, Note_on_c, 0, 68, 0
2, 130165, Control_c, 0, 64, 24
2, 130171, Note_on_c, 0, 69, 70
2, 130174, Note_on_c, 0, 47, 71
2, 130180, Control_c, 0, 64, 0
2, 130201, Note_on_c, 0, 47, 0
2, 130234, Note_on_c, 0, 69, 0
2, 130253, Note_on_c, 0, 68, 65
2, 130290, Note_on_c, 0, 68, 0
2, 130313, Note_on_c, 0, 69, 64
2, 130376, Note_on_c, 0, 69, 0
2, 130387, Note_on_c, 0, 68, 69
2, 130449, Note_on_c, 0, 68, 0
2, 130458, Note_on_c, 0, 69, 77
2, 130468, Note_on_c, 0, 52, 83
2, 130495, Note_on_c, 0, 52, 0
2, 130532, Note_on_c, 0, 69, 0
2, 130535, Note_on_c, 0, 68, 75
2, 130611, Note_on_c, 0, 68, 0
2, 130616, Note_on_c, 0, 66, 81
2, 130691, Note_on_c, 0, 68, 78
2, 130694, Note_on_c, 0, 66, 0
2, 130745, Note_on_c, 0, 68, 0
2, 130761, Note_on_c, 0, 48, 92
2, 130763, Note_on_c, 0, 69, 90
2, 130812, Note_on_c, 0, 48, 0
2, 130888, Note_on_c, 0, 69, 0
2, 130909, Note_on_c, 0, 71, 86
2, 130981, Note_on_c, 0, 72, 80
2, 130985, Note_on_c, 0, 71, 0
2, 131030, Note_on_c, 0, 72, 0
2, 131042, Note_on_c, 0, 74, 84
2, 131048, Note_on_c, 0, 45, 85
2, 131074, Note_on_c, 0, 45, 0
2, 131114, Note_on_c, 0, 76, 85
2, 131121, Note_on_c, 0, 74, 0
2, 131174, Note_on_c, 0, 78, 85
2, 131197, Note_on_c, 0, 76, 0
2, 131250, Note_on_c, 0, 80, 82
2, 131256, Note_on_c, 0, 78, 0
2, 131320, Note_on_c, 0, 81, 97
2, 131330, Note_on_c, 0, 42, 96
2, 131352, Note_on_c, 0, 80, 0
2, 131363, Note_on_c, 0, 42, 0
2, 131489, Note_on_c, 0, 72, 80
2, 131514, Note_on_c, 0, 72, 0
2, 131634, Note_on_c, 0, 71, 87
2, 131636, Note_on_c, 0, 51, 72
2, 131659, Note_on_c, 0, 71, 0
2, 131663, Note_on_c, 0, 51, 0
2, 131773, Note_on_c, 0, 78, 87
2, 131790, Note_on_c, 0, 81, 0
2, 131820, Note_on_c, 0, 78, 0
2, 131910, Note_on_c, 0, 40, 78
2, 131910, Note_on_c, 0, 79, 104
2, 131944, Control_c, 0, 64, 61
2, 131944, Note_on_c, 0, 40, 0
2, 131959, Control_c, 0, 64, 66
2, 131975, Control_c, 0, 64, 91
2, 131990, Control_c, 0, 64, 127
2, 132074, Note_on_c, 0, 71, 76
2, 132131, Note_on_c, 0, 71, 0
2, 132217, Note_on_c, 0, 76, 81
2, 132252, Note_on_c, 0, 79, 0
2, 132256, Control_c, 0, 64, 85
2, 132271, Control_c, 0, 64, 36
2, 132271, Note_on_c, 0, 76, 0
2, 132279, Note_on_c, 0, 74, 77
2, 132287, Control_c, 0, 64, 0
2, 132344, Note_on_c, 0, 72, 80
2, 132363, Note_on_c, 0, 74, 0
2, 132402, Note_on_c, 0, 71, 66
2, 132427, Note_on_c, 0, 72, 0
2, 132477, Note_on_c, 0, 84, 99
2, 132478, Note_on_c, 0, 69, 94
2, 132490, Note_on_c, 0, 71, 0
2, 132506, Note_on_c, 0, 69, 0
2, 132576, Control_c, 0, 64, 48
2, 132591, Control_c, 0, 64, 43
2, 132779, Note_on_c, 0, 72, 88
2, 132788, Control_c, 0, 64, 37
2, 132803, Control_c, 0, 64, 0
2, 132849, Note_on_c, 0, 71, 75
2, 132852, Note_on_c, 0, 84, 0
2, 132861, Note_on_c, 0, 72, 0
2, 132895, Note_on_c, 0, 71, 0
2, 132919, Note_on_c, 0, 69, 67
2, 132978, Note_on_c, 0, 69, 0
2, 132986, Note_on_c, 0, 67, 81
2, 133048, Note_on_c, 0, 66, 81
2, 133048, Note_on_c, 0, 75, 99
2, 133062, Note_on_c, 0, 67, 0
2, 133108, Note_on_c, 0, 66, 0
2, 133109, Note_on_c, 0, 67, 80
2, 133130, Control_c, 0, 64, 42
2, 133145, Control_c, 0, 64, 32
2, 133160, Control_c, 0, 64, 32
2, 133177, Note_on_c, 0, 67, 0
2, 133185, Note_on_c, 0, 69, 84
2, 133288, Note_on_c, 0, 69, 0
2, 133298, Control_c, 0, 64, 33
2, 133312, Control_c, 0, 64, 34
2, 133322, Note_on_c, 0, 60, 91
2, 133346, Note_on_c, 0, 75, 0
2, 133390, Note_on_c, 0, 60, 0
2, 133393, Note_on_c, 0, 67, 81
2, 133455, Note_on_c, 0, 66, 72
2, 133457, Note_on_c, 0, 67, 0
2, 133528, Note_on_c, 0, 66, 0
2, 133542, Note_on_c, 0, 64, 53
2, 133571, Control_c, 0, 64, 33
2, 133586, Control_c, 0, 64, 33
2, 133601, Control_c, 0, 64, 32
2, 133605, Note_on_c, 0, 63, 76
2, 133606, Note_on_c, 0, 64, 0
2, 133607, Note_on_c, 0, 54, 94
2, 133616, Control_c, 0, 64, 30
2, 133631, Control_c, 0, 64, 29
2, 133633, Note_on_c, 0, 54, 0
2, 133647, Control_c, 0, 64, 28
2, 133662, Control_c, 0, 64, 26
2, 133683, Note_on_c, 0, 64, 73
2, 133685, Control_c, 0, 64, 24
2, 133700, Control_c, 0, 64, 23
2, 133708, Note_on_c, 0, 63, 0
2, 133715, Control_c, 0, 64, 22
2, 133745, Control_c, 0, 64, 21
2, 133751, Note_on_c, 0, 64, 0
2, 133760, Control_c, 0, 64, 18
2, 133760, Note_on_c, 0, 66, 78
2, 133776, Control_c, 0, 64, 0
2, 133916, Note_on_c, 0, 57, 91
2, 133943, Note_on_c, 0, 66, 0
2, 133946, Note_on_c, 0, 57, 0
2, 133973, Note_on_c, 0, 64, 71
2, 134036, Note_on_c, 0, 64, 0
2, 134051, Note_on_c, 0, 63, 66
2, 134094, Note_on_c, 0, 63, 0
2, 134132, Note_on_c, 0, 61, 65
2, 134165, Note_on_c, 0, 61, 0
2, 134202, Note_on_c, 0, 59, 69
2, 134203, Note_on_c, 0, 51, 87
2, 134236, Note_on_c, 0, 51, 0
2, 134263, Control_c, 0, 64, 53
2, 134278, Control_c, 0, 64, 61
2, 134294, Control_c, 0, 64, 69
2, 134309, Control_c, 0, 64, 89
2, 134323, Control_c, 0, 64, 127
2, 134478, Note_on_c, 0, 59, 0
2, 134488, Note_on_c, 0, 54, 75
2, 134503, Note_on_c, 0, 81, 92
2, 134513, Note_on_c, 0, 54, 0
2, 134537, Note_on_c, 0, 81, 0
2, 134665, Note_on_c, 0, 61, 68
2, 134697, Control_c, 0, 64, 104
2, 134711, Control_c, 0, 64, 81
2, 134727, Control_c, 0, 64, 64
2, 134742, Control_c, 0, 64, 0
2, 134745, Note_on_c, 0, 61, 0
2, 134745, Note_on_c, 0, 63, 70
2, 134783, Note_on_c, 0, 78, 96
2, 134803, Note_on_c, 0, 59, 64
2, 134806, Note_on_c, 0, 64, 83
2, 134808, Note_on_c, 0, 63, 0
2, 134824, Note_on_c, 0, 78, 0
2, 134873, Note_on_c, 0, 63, 75
2, 134874, Note_on_c, 0, 64, 0
2, 134940, Note_on_c, 0, 63, 0
2, 134946, Note_on_c, 0, 64, 81
2, 134995, Note_on_c, 0, 64, 0
2, 135003, Note_on_c, 0, 63, 45
2, 135068, Note_on_c, 0, 63, 0
2, 135074, Note_on_c, 0, 64, 83
2, 135075, Note_on_c, 0, 83, 94
2, 135113, Note_on_c, 0, 83, 0
2, 135133, Note_on_c, 0, 59, 0
2, 135134, Note_on_c, 0, 64, 0
2, 135149, Note_on_c, 0, 63, 68
2, 135203, Note_on_c, 0, 63, 0
2, 135218, Note_on_c, 0, 61, 70
2, 135264, Note_on_c, 0, 61, 0
2, 135276, Note_on_c, 0, 63, 64
2, 135326, Note_on_c, 0, 63, 0
2, 135359, Note_on_c, 0, 79, 100
2, 135370, Note_on_c, 0, 64, 85
2, 135372, Note_on_c, 0, 52, 79
2, 135389, Control_c, 0, 64, 52
2, 135398, Note_on_c, 0, 64, 0
2, 135402, Note_on_c, 0, 52, 0
2, 135405, Control_c, 0, 64, 62
2, 135419, Control_c, 0, 64, 72
2, 135434, Control_c, 0, 64, 127
2, 135461, Note_on_c, 0, 79, 0
2, 135617, Control_c, 0, 64, 80
2, 135633, Control_c, 0, 64, 41
2, 135647, Note_on_c, 0, 76, 88
2, 135648, Control_c, 0, 64, 0
2, 135687, Note_on_c, 0, 76, 0
2, 135745, Note_on_c, 0, 40, 76
2, 135810, Note_on_c, 0, 41, 78
2, 135813, Note_on_c, 0, 40, 0
2, 135867, Note_on_c, 0, 41, 0
2, 135867, Note_on_c, 0, 43, 80
2, 135921, Note_on_c, 0, 45, 96
2, 135922, Note_on_c, 0, 73, 96
2, 135938, Note_on_c, 0, 43, 0
2, 135963, Note_on_c, 0, 45, 0
2, 135965, Control_c, 0, 64, 24
2, 135979, Note_on_c, 0, 73, 0
2, 135987, Control_c, 0, 64, 0
2, 136206, Note_on_c, 0, 81, 85
2, 136248, Note_on_c, 0, 81, 0
2, 136296, Note_on_c, 0, 43, 77
2, 136342, Note_on_c, 0, 43, 0
2, 136360, Note_on_c, 0, 41, 73
2, 136424, Note_on_c, 0, 40, 75
2, 136426, Note_on_c, 0, 41, 0
2, 136494, Note_on_c, 0, 38, 89
2, 136494, Note_on_c, 0, 77, 95
2, 136498, Note_on_c, 0, 40, 0
2, 136526, Note_on_c, 0, 38, 0
2, 136551, Control_c, 0, 64, 58
2, 136565, Control_c, 0, 64, 62
2, 136581, Control_c, 0, 64, 68
2, 136596, Control_c, 0, 64, 79
2, 136597, Note_on_c, 0, 77, 0
2, 136612, Control_c, 0, 64, 99
2, 136627, Control_c, 0, 64, 118
2, 136641, Control_c, 0, 64, 127
2, 136672, Control_c, 0, 64, 122
2, 136687, Control_c, 0, 64, 117
2, 136702, Control_c, 0, 64, 101
2, 136717, Control_c, 0, 64, 81
2, 136733, Control_c, 0, 64, 61
2, 136756, Control_c, 0, 64, 0
2, 136791, Note_on_c, 0, 62, 88
2, 136812, Note_on_c, 0, 62, 0
2, 136858, Note_on_c, 0, 74, 78
2, 136929, Note_on_c, 0, 76, 85
2, 136932, Note_on_c, 0, 74, 0
2, 136992, Note_on_c, 0, 77, 87
2, 137010, Note_on_c, 0, 76, 0
2, 137063, Note_on_c, 0, 79, 101
2, 137084, Note_on_c, 0, 77, 0
2, 137086, Note_on_c, 0, 59, 79
2, 137112, Note_on_c, 0, 59, 0
2, 137178, Note_on_c, 0, 79, 0
2, 137364, Note_on_c, 0, 67, 77
2, 137389, Note_on_c, 0, 67, 0
2, 137439, Note_on_c, 0, 77, 82
2, 137503, Note_on_c, 0, 76, 82
2, 137524, Note_on_c, 0, 77, 0
2, 137570, Note_on_c, 0, 76, 0
2, 137574, Note_on_c, 0, 74, 85
2, 137635, Note_on_c, 0, 64, 84
2, 137635, Note_on_c, 0, 72, 93
2, 137636, Note_on_c, 0, 74, 0
2, 137660, Control_c, 0, 64, 35
2, 137663, Note_on_c, 0, 64, 0
2, 137674, Control_c, 0, 64, 0
2, 137786, Note_on_c, 0, 72, 0
2, 137905, Note_on_c, 0, 57, 63
2, 137936, Note_on_c, 0, 57, 0
2, 138004, Note_on_c, 0, 76, 67
2, 138043, Note_on_c, 0, 76, 0
2, 138081, Note_on_c, 0, 77, 64
2, 138116, Note_on_c, 0, 77, 0
2, 138131, Control_c, 0, 64, 12
2, 138147, Control_c, 0, 64, 15
2, 138148, Note_on_c, 0, 79, 69
2, 138162, Note_on_c, 0, 53, 52
2, 138197, Note_on_c, 0, 79, 0
2, 138213, Note_on_c, 0, 53, 0
2, 138213, Note_on_c, 0, 81, 71
2, 138223, Control_c, 0, 64, 16
2, 138238, Control_c, 0, 64, 19
2, 138253, Control_c, 0, 64, 21
2, 138258, Note_on_c, 0, 81, 0
2, 138268, Control_c, 0, 64, 21
2, 138291, Note_on_c, 0, 82, 72
2, 138354, Note_on_c, 0, 82, 0
2, 138358, Note_on_c, 0, 81, 79
2, 138384, Control_c, 0, 64, 22
2, 138398, Control_c, 0, 64, 24
2, 138414, Control_c, 0, 64, 26
2, 138414, Note_on_c, 0, 81, 0
2, 138428, Note_on_c, 0, 79, 75
2, 138429, Control_c, 0, 64, 26
2, 138444, Control_c, 0, 64, 27
2, 138460, Note_on_c, 0, 62, 61
2, 138465, Note_on_c, 0, 79, 0
2, 138474, Control_c, 0, 64, 28
2, 138484, Note_on_c, 0, 77, 80
2, 138489, Note_on_c, 0, 62, 0
2, 138535, Control_c, 0, 64, 28
2, 138548, Note_on_c, 0, 76, 79
2, 138549, Note_on_c, 0, 77, 0
2, 138613, Note_on_c, 0, 76, 0
2, 138616, Note_on_c, 0, 74, 81
2, 138667, Note_on_c, 0, 74, 0
2, 138680, Note_on_c, 0, 72, 81
2, 138714, Note_on_c, 0, 72, 0
2, 138735, Note_on_c, 0, 56, 72
2, 138759, Note_on_c, 0, 71, 85
2, 138779, Note_on_c, 0, 56, 0
2, 138793, Control_c, 0, 64, 29
2, 138808, Control_c, 0, 64, 29
2, 138817, Note_on_c, 0, 71, 0
2, 138819, Note_on_c, 0, 72, 82
2, 138824, Control_c, 0, 64, 30
2, 138839, Control_c, 0, 64, 31
2, 138855, Control_c, 0, 64, 33
2, 138869, Control_c, 0, 64, 34
2, 138888, Note_on_c, 0, 71, 85
2, 138898, Note_on_c, 0, 72, 0
2, 138936, Note_on_c, 0, 71, 0
2, 138961, Control_c, 0, 64, 31
2, 138967, Note_on_c, 0, 69, 77
2, 138977, Control_c, 0, 64, 0
2, 139027, Note_on_c, 0, 68, 84
2, 139034, Note_on_c, 0, 69, 0
2, 139039, Note_on_c, 0, 52, 80
2, 139073, Note_on_c, 0, 52, 0
2, 139102, Note_on_c, 0, 66, 84
2, 139126, Note_on_c, 0, 68, 0
2, 139135, Control_c, 0, 64, 46
2, 139150, Control_c, 0, 64, 54
2, 139164, Control_c, 0, 64, 55
2, 139165, Note_on_c, 0, 66, 0
2, 139176, Note_on_c, 0, 64, 85
2, 139246, Note_on_c, 0, 62, 82
2, 139246, Note_on_c, 0, 64, 0
2, 139256, Control_c, 0, 64, 54
2, 139271, Control_c, 0, 64, 51
2, 139286, Control_c, 0, 64, 43
2, 139300, Note_on_c, 0, 62, 0
2, 139302, Control_c, 0, 64, 0
2, 139337, Note_on_c, 0, 60, 93
2, 139338, Note_on_c, 0, 57, 86
2, 139389, Note_on_c, 0, 64, 74
2, 139420, Note_on_c, 0, 60, 0
2, 139449, Note_on_c, 0, 64, 0
2, 139478, Note_on_c, 0, 65, 70
2, 139543, Note_on_c, 0, 67, 77
2, 139545, Note_on_c, 0, 65, 0
2, 139626, Note_on_c, 0, 67, 0
2, 139626, Note_on_c, 0, 69, 76
2, 139628, Note_on_c, 0, 72, 78
2, 139694, Note_on_c, 0, 69, 0
2, 139707, Note_on_c, 0, 72, 0
2, 139713, Note_on_c, 0, 67, 76
2, 139743, Control_c, 0, 64, 34
2, 139758, Control_c, 0, 64, 54
2, 139763, Note_on_c, 0, 67, 0
2, 139774, Control_c, 0, 64, 62
2, 139788, Control_c, 0, 64, 65
2, 139790, Note_on_c, 0, 65, 71
2, 139803, Control_c, 0, 64, 69
2, 139827, Control_c, 0, 64, 72
2, 139842, Control_c, 0, 64, 74
2, 139858, Note_on_c, 0, 65, 0
2, 139862, Note_on_c, 0, 64, 81
2, 139911, Note_on_c, 0, 57, 0
2, 139936, Note_on_c, 0, 64, 0
2, 139948, Control_c, 0, 64, 74
2, 139948, Note_on_c, 0, 62, 83
2, 139948, Note_on_c, 0, 71, 86
2, 139963, Control_c, 0, 64, 71
2, 139979, Control_c, 0, 64, 66
2, 139992, Note_on_c, 0, 62, 0
2, 139994, Control_c, 0, 64, 56
2, 140008, Control_c, 0, 64, 0
2, 140030, Note_on_c, 0, 57, 67
2, 140099, Note_on_c, 0, 57, 0
2, 140101, Note_on_c, 0, 59, 71
2, 140169, Note_on_c, 0, 60, 76
2, 140180, Note_on_c, 0, 59, 0
2, 140221, Note_on_c, 0, 60, 0
2, 140229, Note_on_c, 0, 62, 77
2, 140243, Note_on_c, 0, 65, 86
2, 140294, Note_on_c, 0, 65, 0
2, 140295, Note_on_c, 0, 62, 0
2, 140307, Note_on_c, 0, 60, 71
2, 140367, Note_on_c, 0, 59, 77
2, 140383, Note_on_c, 0, 60, 0
2, 140405, Note_on_c, 0, 59, 0
2, 140433, Note_on_c, 0, 57, 80
2, 140511, Note_on_c, 0, 57, 0
2, 140514, Note_on_c, 0, 56, 77
2, 140522, Note_on_c, 0, 59, 90
2, 140566, Note_on_c, 0, 59, 0
2, 140595, Note_on_c, 0, 56, 0
2, 140602, Note_on_c, 0, 57, 77
2, 140670, Note_on_c, 0, 57, 0
2, 140673, Note_on_c, 0, 56, 83
2, 140756, Note_on_c, 0, 54, 83
2, 140784, Note_on_c, 0, 56, 0
2, 140806, Note_on_c, 0, 54, 0
2, 140814, Note_on_c, 0, 62, 96
2, 140823, Note_on_c, 0, 52, 80
2, 140861, Note_on_c, 0, 62, 0
2, 140882, Note_on_c, 0, 52, 0
2, 140899, Note_on_c, 0, 50, 80
2, 140971, Note_on_c, 0, 48, 69
2, 140985, Note_on_c, 0, 50, 0
2, 141027, Note_on_c, 0, 48, 0
2, 141028, Note_on_c, 0, 47, 70
2, 141111, Note_on_c, 0, 60, 96
2, 141114, Note_on_c, 0, 45, 81
2, 141116, Note_on_c, 0, 47, 0
2, 141122, Note_on_c, 0, 71, 0
2, 141156, Control_c, 0, 64, 39
2, 141162, Note_on_c, 0, 45, 0
2, 141171, Control_c, 0, 64, 61
2, 141187, Control_c, 0, 64, 64
2, 141202, Control_c, 0, 64, 70
2, 141218, Control_c, 0, 64, 90
2, 141233, Control_c, 0, 64, 127
2, 141276, Note_on_c, 0, 64, 85
2, 141306, Note_on_c, 0, 64, 0
2, 141323, Control_c, 0, 64, 76
2, 141339, Control_c, 0, 64, 54
2, 141362, Control_c, 0, 64, 0
2, 141429, Note_on_c, 0, 57, 74
2, 141441, Note_on_c, 0, 69, 81
2, 141491, Note_on_c, 0, 57, 0
2, 141496, Note_on_c, 0, 69, 0
2, 141501, Note_on_c, 0, 55, 65
2, 141574, Note_on_c, 0, 53, 67
2, 141600, Note_on_c, 0, 55, 0
2, 141635, Note_on_c, 0, 52, 61
2, 141646, Note_on_c, 0, 53, 0
2, 141669, Note_on_c, 0, 60, 0
2, 141720, Note_on_c, 0, 65, 97
2, 141725, Note_on_c, 0, 50, 81
2, 141743, Note_on_c, 0, 52, 0
2, 141759, Note_on_c, 0, 50, 0
2, 141789, Control_c, 0, 64, 15
2, 141804, Control_c, 0, 64, 21
2, 141820, Control_c, 0, 64, 24
2, 141835, Control_c, 0, 64, 27
2, 141849, Control_c, 0, 64, 28
2, 141879, Note_on_c, 0, 57, 84
2, 141911, Note_on_c, 0, 57, 0
2, 141941, Control_c, 0, 64, 26
2, 141956, Control_c, 0, 64, 23
2, 141970, Control_c, 0, 64, 18
2, 141986, Control_c, 0, 64, 10
2, 142001, Control_c, 0, 64, 0
2, 142020, Note_on_c, 0, 53, 78
2, 142029, Note_on_c, 0, 62, 88
2, 142098, Note_on_c, 0, 53, 0
2, 142104, Note_on_c, 0, 52, 67
2, 142131, Note_on_c, 0, 65, 0
2, 142168, Note_on_c, 0, 62, 0
2, 142184, Note_on_c, 0, 50, 64
2, 142208, Note_on_c, 0, 52, 0
2, 142255, Note_on_c, 0, 50, 0
2, 142259, Note_on_c, 0, 48, 62
2, 142334, Note_on_c, 0, 48, 0
2, 142335, Note_on_c, 0, 47, 74
2, 142337, Note_on_c, 0, 56, 99
2, 142390, Control_c, 0, 64, 35
2, 142401, Note_on_c, 0, 56, 0
2, 142404, Control_c, 0, 64, 65
2, 142420, Control_c, 0, 64, 80
2, 142431, Note_on_c, 0, 48, 77
2, 142434, Note_on_c, 0, 47, 0
2, 142435, Control_c, 0, 64, 127
2, 142484, Note_on_c, 0, 48, 0
2, 142497, Note_on_c, 0, 50, 85
2, 142623, Note_on_c, 0, 77, 91
2, 142648, Control_c, 0, 64, 104
2, 142658, Note_on_c, 0, 77, 0
2, 142663, Control_c, 0, 64, 69
2, 142678, Control_c, 0, 64, 42
2, 142691, Note_on_c, 0, 50, 0
2, 142694, Control_c, 0, 64, 0
2, 142701, Note_on_c, 0, 48, 74
2, 142766, Note_on_c, 0, 47, 69
2, 142773, Note_on_c, 0, 48, 0
2, 142814, Note_on_c, 0, 47, 0
2, 142838, Note_on_c, 0, 45, 74
2, 142913, Note_on_c, 0, 71, 93
2, 142915, Note_on_c, 0, 44, 78
2, 142916, Note_on_c, 0, 45, 0
2, 142949, Note_on_c, 0, 71, 0
2, 142974, Note_on_c, 0, 44, 0
2, 142981, Note_on_c, 0, 45, 72
2, 143063, Note_on_c, 0, 45, 0
2, 143068, Note_on_c, 0, 47, 83
2, 143204, Note_on_c, 0, 74, 88
2, 143247, Note_on_c, 0, 74, 0
2, 143280, Note_on_c, 0, 47, 0
2, 143287, Note_on_c, 0, 45, 74
2, 143358, Note_on_c, 0, 44, 65
2, 143378, Note_on_c, 0, 45, 0
2, 143413, Note_on_c, 0, 44, 0
2, 143417, Note_on_c, 0, 42, 70
2, 143491, Note_on_c, 0, 68, 91
2, 143495, Note_on_c, 0, 40, 80
2, 143503, Note_on_c, 0, 42, 0
2, 143786, Note_on_c, 0, 62, 95
2, 143853, Note_on_c, 0, 62, 0
2, 143922, Note_on_c, 0, 40, 0
2, 143933, Note_on_c, 0, 42, 67
2, 143996, Note_on_c, 0, 42, 0
2, 144009, Note_on_c, 0, 44, 65
2, 144087, Note_on_c, 0, 71, 90
2, 144088, Note_on_c, 0, 59, 91
2, 144091, Note_on_c, 0, 44, 0
2, 144094, Note_on_c, 0, 45, 74
2, 144128, Note_on_c, 0, 68, 0
2, 144167, Note_on_c, 0, 45, 0
2, 144173, Note_on_c, 0, 44, 73
2, 144181, Note_on_c, 0, 59, 0
2, 144237, Note_on_c, 0, 44, 0
2, 144241, Note_on_c, 0, 45, 72
2, 144317, Note_on_c, 0, 44, 72
2, 144321, Note_on_c, 0, 45, 0
2, 144379, Note_on_c, 0, 64, 97
2, 144394, Note_on_c, 0, 44, 0
2, 144398, Note_on_c, 0, 45, 75
2, 144475, Note_on_c, 0, 45, 0
2, 144478, Note_on_c, 0, 44, 70
2, 144498, Note_on_c, 0, 64, 0
2, 144542, Note_on_c, 0, 44, 0
2, 144548, Note_on_c, 0, 42, 67
2, 144574, Note_on_c, 0, 42, 0
2, 144608, Note_on_c, 0, 44, 59
2, 144669, Note_on_c, 0, 44, 0
2, 144681, Note_on_c, 0, 60, 98
2, 144682, Note_on_c, 0, 45, 77
2, 144733, Note_on_c, 0, 71, 0
2, 144744, Note_on_c, 0, 60, 0
2, 144755, Control_c, 0, 64, 51
2, 144770, Control_c, 0, 64, 67
2, 144785, Control_c, 0, 64, 127
2, 144811, Note_on_c, 0, 45, 0
2, 144977, Note_on_c, 0, 76, 84
2, 144997, Control_c, 0, 64, 80
2, 145013, Control_c, 0, 64, 37
2, 145028, Control_c, 0, 64, 0
2, 145048, Note_on_c, 0, 74, 83
2, 145067, Note_on_c, 0, 76, 0
2, 145069, Note_on_c, 0, 47, 50
2, 145108, Note_on_c, 0, 72, 85
2, 145126, Note_on_c, 0, 47, 0
2, 145140, Note_on_c, 0, 48, 68
2, 145140, Note_on_c, 0, 74, 0
2, 145178, Note_on_c, 0, 71, 86
2, 145179, Note_on_c, 0, 72, 0
2, 145215, Note_on_c, 0, 48, 0
2, 145233, Note_on_c, 0, 50, 67
2, 145246, Note_on_c, 0, 71, 0
2, 145256, Note_on_c, 0, 69, 86
2, 145293, Note_on_c, 0, 50, 0
2, 145296, Note_on_c, 0, 49, 69
2, 145358, Note_on_c, 0, 49, 0
2, 145369, Note_on_c, 0, 50, 69
2, 145415, Note_on_c, 0, 73, 88
2, 145424, Note_on_c, 0, 69, 0
2, 145429, Note_on_c, 0, 50, 0
2, 145432, Note_on_c, 0, 49, 63
2, 145469, Note_on_c, 0, 76, 79
2, 145495, Note_on_c, 0, 73, 0
2, 145510, Note_on_c, 0, 49, 0
2, 145524, Note_on_c, 0, 50, 70
2, 145536, Note_on_c, 0, 79, 94
2, 145551, Note_on_c, 0, 76, 0
2, 145570, Note_on_c, 0, 50, 0
2, 145575, Note_on_c, 0, 79, 0
2, 145580, Note_on_c, 0, 49, 59
2, 145639, Note_on_c, 0, 49, 0
2, 145654, Note_on_c, 0, 47, 59
2, 145691, Note_on_c, 0, 47, 0
2, 145721, Note_on_c, 0, 49, 62
2, 145779, Note_on_c, 0, 49, 0
2, 145804, Note_on_c, 0, 77, 89
2, 145814, Note_on_c, 0, 50, 65
2, 145841, Control_c, 0, 64, 48
2, 145843, Note_on_c, 0, 77, 0
2, 145857, Control_c, 0, 64, 63
2, 145872, Control_c, 0, 64, 79
2, 145887, Control_c, 0, 64, 127
2, 145960, Note_on_c, 0, 50, 0
2, 146082, Note_on_c, 0, 69, 60
2, 146122, Control_c, 0, 64, 85
2, 146137, Note_on_c, 0, 69, 0
2, 146138, Control_c, 0, 64, 58
2, 146153, Control_c, 0, 64, 0
2, 146157, Note_on_c, 0, 67, 55
2, 146207, Note_on_c, 0, 67, 0
2, 146220, Note_on_c, 0, 65, 57
2, 146230, Note_on_c, 0, 52, 39
2, 146262, Note_on_c, 0, 52, 0
2, 146266, Note_on_c, 0, 65, 0
2, 146280, Note_on_c, 0, 64, 54
2, 146295, Note_on_c, 0, 53, 32
2, 146312, Note_on_c, 0, 64, 0
2, 146323, Note_on_c, 0, 53, 0
2, 146342, Note_on_c, 0, 62, 56
2, 146344, Note_on_c, 0, 55, 57
2, 146397, Note_on_c, 0, 55, 0
2, 146427, Note_on_c, 0, 54, 50
2, 146464, Note_on_c, 0, 54, 0
2, 146480, Note_on_c, 0, 62, 0
2, 146491, Note_on_c, 0, 66, 58
2, 146499, Note_on_c, 0, 55, 51
2, 146535, Note_on_c, 0, 66, 0
2, 146542, Note_on_c, 0, 55, 0
2, 146559, Note_on_c, 0, 69, 60
2, 146567, Note_on_c, 0, 54, 49
2, 146616, Note_on_c, 0, 54, 0
2, 146630, Note_on_c, 0, 69, 0
2, 146632, Note_on_c, 0, 72, 62
2, 146640, Note_on_c, 0, 55, 50
2, 146667, Note_on_c, 0, 72, 0
2, 146674, Note_on_c, 0, 55, 0
2, 146714, Note_on_c, 0, 54, 46
2, 146749, Note_on_c, 0, 54, 0
2, 146787, Note_on_c, 0, 52, 28
2, 146817, Note_on_c, 0, 52, 0
2, 146834, Note_on_c, 0, 54, 58
2, 146891, Note_on_c, 0, 54, 0
2, 146910, Note_on_c, 0, 71, 68
2, 146912, Note_on_c, 0, 55, 45
2, 146945, Note_on_c, 0, 71, 0
2, 146966, Control_c, 0, 64, 59
2, 146982, Control_c, 0, 64, 72
2, 146997, Control_c, 0, 64, 127
2, 147075, Note_on_c, 0, 74, 87
2, 147103, Note_on_c, 0, 55, 0
2, 147145, Note_on_c, 0, 72, 80
2, 147190, Note_on_c, 0, 74, 0
2, 147208, Note_on_c, 0, 71, 93
2, 147224, Note_on_c, 0, 72, 0
2, 147304, Control_c, 0, 64, 73
2, 147319, Control_c, 0, 64, 0
2, 147335, Note_on_c, 0, 72, 84
2, 147338, Note_on_c, 0, 57, 69
2, 147349, Note_on_c, 0, 71, 0
2, 147380, Note_on_c, 0, 57, 0
2, 147408, Note_on_c, 0, 74, 88
2, 147412, Note_on_c, 0, 59, 67
2, 147418, Note_on_c, 0, 72, 0
2, 147468, Note_on_c, 0, 59, 0
2, 147469, Note_on_c, 0, 67, 94
2, 147475, Note_on_c, 0, 60, 74
2, 147506, Note_on_c, 0, 74, 0
2, 147518, Note_on_c, 0, 67, 0
2, 147541, Note_on_c, 0, 60, 0
2, 147551, Note_on_c, 0, 59, 67
2, 147608, Note_on_c, 0, 59, 0
2, 147620, Note_on_c, 0, 60, 72
2, 147686, Note_on_c, 0, 60, 0
2, 147695, Note_on_c, 0, 59, 58
2, 147756, Note_on_c, 0, 77, 97
2, 147764, Note_on_c, 0, 59, 0
2, 147779, Note_on_c, 0, 60, 76
2, 147795, Note_on_c, 0, 77, 0
2, 147814, Note_on_c, 0, 60, 0
2, 147856, Note_on_c, 0, 59, 65
2, 147897, Note_on_c, 0, 59, 0
2, 147918, Note_on_c, 0, 57, 66
2, 147959, Note_on_c, 0, 57, 0
2, 147996, Note_on_c, 0, 59, 57
2, 148037, Note_on_c, 0, 59, 0
2, 148057, Note_on_c, 0, 76, 93
2, 148068, Note_on_c, 0, 60, 68
2, 148087, Control_c, 0, 64, 57
2, 148099, Note_on_c, 0, 76, 0
2, 148102, Control_c, 0, 64, 64
2, 148117, Control_c, 0, 64, 76
2, 148133, Control_c, 0, 64, 127
2, 148184, Note_on_c, 0, 60, 0
2, 148226, Note_on_c, 0, 67, 73
2, 148258, Note_on_c, 0, 67, 0
2, 148276, Control_c, 0, 64, 78
2, 148292, Control_c, 0, 64, 21
2, 148295, Note_on_c, 0, 65, 67
2, 148307, Control_c, 0, 64, 0
2, 148334, Note_on_c, 0, 65, 0
2, 148348, Note_on_c, 0, 64, 67
2, 148461, Note_on_c, 0, 64, 0
2, 148486, Note_on_c, 0, 65, 35
2, 148508, Note_on_c, 0, 62, 48
2, 148536, Note_on_c, 0, 62, 0
2, 148539, Note_on_c, 0, 65, 0
2, 148553, Note_on_c, 0, 67, 62
2, 148611, Note_on_c, 0, 67, 0
2, 148616, Note_on_c, 0, 65, 46
2, 148624, Note_on_c, 0, 60, 69
2, 148663, Note_on_c, 0, 60, 0
2, 148673, Note_on_c, 0, 65, 0
2, 148700, Note_on_c, 0, 64, 42
2, 148730, Note_on_c, 0, 64, 0
2, 148757, Note_on_c, 0, 65, 48
2, 148802, Note_on_c, 0, 65, 0
2, 148821, Note_on_c, 0, 64, 54
2, 148869, Note_on_c, 0, 64, 0
2, 148893, Note_on_c, 0, 70, 67
2, 148894, Note_on_c, 0, 65, 60
2, 148924, Note_on_c, 0, 70, 0
2, 148939, Note_on_c, 0, 65, 0
2, 148961, Note_on_c, 0, 64, 62
2, 149014, Note_on_c, 0, 64, 0
2, 149056, Note_on_c, 0, 62, 51
2, 149101, Note_on_c, 0, 62, 0
2, 149138, Note_on_c, 0, 64, 57
2, 149196, Note_on_c, 0, 64, 0
2, 149199, Note_on_c, 0, 69, 58
2, 149210, Note_on_c, 0, 65, 51
2, 149339, Note_on_c, 0, 69, 0
2, 149349, Control_c, 0, 64, 46
2, 149364, Control_c, 0, 64, 59
2, 149364, Note_on_c, 0, 71, 58
2, 149379, Control_c, 0, 64, 63
2, 149394, Control_c, 0, 64, 66
2, 149395, Note_on_c, 0, 65, 0
2, 149410, Control_c, 0, 64, 72
2, 149424, Control_c, 0, 64, 85
2, 149432, Note_on_c, 0, 73, 71
2, 149439, Control_c, 0, 64, 127
2, 149444, Note_on_c, 0, 71, 0
2, 149490, Note_on_c, 0, 73, 0
2, 149500, Note_on_c, 0, 74, 70
2, 149627, Note_on_c, 0, 67, 47
2, 149638, Control_c, 0, 64, 93
2, 149653, Control_c, 0, 64, 70
2, 149657, Note_on_c, 0, 67, 0
2, 149668, Control_c, 0, 64, 55
2, 149683, Control_c, 0, 64, 0
2, 149683, Note_on_c, 0, 69, 60
2, 149749, Note_on_c, 0, 69, 0
2, 149762, Note_on_c, 0, 70, 60
2, 149799, Note_on_c, 0, 81, 86
2, 149841, Note_on_c, 0, 70, 0
2, 149854, Note_on_c, 0, 69, 53
2, 149886, Note_on_c, 0, 74, 0
2, 149926, Note_on_c, 0, 69, 0
2, 149947, Note_on_c, 0, 70, 66
2, 149994, Note_on_c, 0, 70, 0
2, 150019, Note_on_c, 0, 69, 57
2, 150071, Note_on_c, 0, 69, 0
2, 150088, Note_on_c, 0, 73, 75
2, 150094, Note_on_c, 0, 70, 67
2, 150116, Control_c, 0, 64, 24
2, 150121, Note_on_c, 0, 73, 0
2, 150129, Note_on_c, 0, 70, 0
2, 150132, Control_c, 0, 64, 38
2, 150146, Control_c, 0, 64, 43
2, 150161, Control_c, 0, 64, 45
2, 150177, Control_c, 0, 64, 46
2, 150181, Note_on_c, 0, 69, 54
2, 150207, Control_c, 0, 64, 47
2, 150217, Note_on_c, 0, 69, 0
2, 150222, Control_c, 0, 64, 48
2, 150239, Note_on_c, 0, 67, 60
2, 150276, Note_on_c, 0, 67, 0
2, 150311, Note_on_c, 0, 69, 54
2, 150315, Note_on_c, 0, 81, 0
2, 150343, Control_c, 0, 64, 34
2, 150352, Note_on_c, 0, 69, 0
2, 150358, Control_c, 0, 64, 0
2, 150363, Note_on_c, 0, 70, 67
2, 150363, Note_on_c, 0, 77, 95
2, 150374, Note_on_c, 0, 74, 78
2, 150389, Note_on_c, 0, 70, 0
2, 150466, Control_c, 0, 64, 32
2, 150481, Control_c, 0, 64, 62
2, 150496, Control_c, 0, 64, 73
2, 150509, Note_on_c, 0, 74, 0
2, 150511, Control_c, 0, 64, 93
2, 150523, Note_on_c, 0, 58, 75
2, 150527, Control_c, 0, 64, 127
2, 150600, Note_on_c, 0, 58, 0
2, 150609, Note_on_c, 0, 60, 78
2, 150641, Control_c, 0, 64, 102
2, 150656, Control_c, 0, 64, 74
2, 150666, Note_on_c, 0, 60, 0
2, 150671, Control_c, 0, 64, 53
2, 150673, Note_on_c, 0, 62, 72
2, 150687, Control_c, 0, 64, 0
2, 150736, Note_on_c, 0, 62, 0
2, 150740, Note_on_c, 0, 60, 72
2, 150817, Note_on_c, 0, 58, 78
2, 150820, Note_on_c, 0, 60, 0
2, 150857, Note_on_c, 0, 58, 0
2, 150879, Note_on_c, 0, 57, 71
2, 150911, Note_on_c, 0, 77, 0
2, 150944, Note_on_c, 0, 82, 96
2, 150954, Note_on_c, 0, 57, 0
2, 150960, Note_on_c, 0, 55, 81
2, 151037, Note_on_c, 0, 53, 76
2, 151043, Note_on_c, 0, 55, 0
2, 151118, Note_on_c, 0, 55, 78
2, 151122, Note_on_c, 0, 53, 0
2, 151180, Note_on_c, 0, 55, 0
2, 151190, Note_on_c, 0, 82, 0
2, 151199, Note_on_c, 0, 57, 74
2, 151204, Control_c, 0, 64, 42
2, 151219, Control_c, 0, 64, 57
2, 151234, Control_c, 0, 64, 59
2, 151253, Note_on_c, 0, 57, 0
2, 151256, Note_on_c, 0, 58, 78
2, 151263, Control_c, 0, 64, 56
2, 151278, Control_c, 0, 64, 54
2, 151293, Control_c, 0, 64, 51
2, 151308, Control_c, 0, 64, 50
2, 151318, Note_on_c, 0, 58, 0
2, 151323, Control_c, 0, 64, 50
2, 151328, Note_on_c, 0, 57, 78
2, 151346, Control_c, 0, 64, 49
2, 151362, Control_c, 0, 64, 48
2, 151377, Control_c, 0, 64, 46
2, 151392, Control_c, 0, 64, 45
2, 151396, Note_on_c, 0, 57, 0
2, 151402, Note_on_c, 0, 55, 79
2, 151407, Control_c, 0, 64, 44
2, 151423, Control_c, 0, 64, 43
2, 151438, Control_c, 0, 64, 43
2, 151454, Control_c, 0, 64, 40
2, 151468, Control_c, 0, 64, 34
2, 151468, Note_on_c, 0, 53, 75
2, 151483, Control_c, 0, 64, 17
2, 151499, Control_c, 0, 64, 0
2, 151505, Note_on_c, 0, 55, 0
2, 151527, Note_on_c, 0, 52, 75
2, 151536, Note_on_c, 0, 73, 91
2, 151542, Note_on_c, 0, 53, 0
2, 151609, Note_on_c, 0, 53, 82
2, 151628, Note_on_c, 0, 52, 0
2, 151680, Note_on_c, 0, 55, 92
2, 151688, Note_on_c, 0, 53, 0
2, 151828, Note_on_c, 0, 70, 95
2, 151905, Note_on_c, 0, 53, 72
2, 151915, Note_on_c, 0, 55, 0
2, 151927, Note_on_c, 0, 70, 0
2, 151955, Note_on_c, 0, 53, 0
2, 151975, Note_on_c, 0, 52, 70
2, 152037, Note_on_c, 0, 52, 0
2, 152045, Note_on_c, 0, 50, 73
2, 152114, Note_on_c, 0, 49, 75
2, 152123, Note_on_c, 0, 50, 0
2, 152130, Note_on_c, 0, 64, 94
2, 152169, Note_on_c, 0, 50, 75
2, 152170, Note_on_c, 0, 64, 0
2, 152181, Note_on_c, 0, 49, 0
2, 152256, Note_on_c, 0, 50, 0
2, 152258, Note_on_c, 0, 52, 79
2, 152425, Note_on_c, 0, 67, 89
2, 152469, Note_on_c, 0, 67, 0
2, 152490, Note_on_c, 0, 52, 0
2, 152499, Note_on_c, 0, 50, 61
2, 152567, Note_on_c, 0, 49, 57
2, 152588, Note_on_c, 0, 50, 0
2, 152634, Note_on_c, 0, 49, 0
2, 152637, Note_on_c, 0, 47, 60
2, 152713, Note_on_c, 0, 45, 81
2, 152717, Note_on_c, 0, 61, 88
2, 152718, Note_on_c, 0, 47, 0
2, 152740, Note_on_c, 0, 73, 0
2, 152758, Note_on_c, 0, 61, 0
2, 152771, Control_c, 0, 64, 50
2, 152786, Control_c, 0, 64, 66
2, 152800, Control_c, 0, 64, 78
2, 152816, Control_c, 0, 64, 127
2, 152991, Control_c, 0, 64, 87
2, 153007, Control_c, 0, 64, 68
2, 153019, Note_on_c, 0, 79, 95
2, 153020, Note_on_c, 0, 76, 91
2, 153022, Control_c, 0, 64, 52
2, 153036, Control_c, 0, 64, 0
2, 153058, Note_on_c, 0, 76, 0
2, 153064, Note_on_c, 0, 79, 0
2, 153155, Note_on_c, 0, 45, 0
2, 153158, Note_on_c, 0, 47, 65
2, 153229, Note_on_c, 0, 47, 0
2, 153232, Note_on_c, 0, 49, 73
2, 153298, Note_on_c, 0, 69, 87
2, 153302, Note_on_c, 0, 76, 95
2, 153309, Note_on_c, 0, 49, 0
2, 153309, Note_on_c, 0, 50, 79
2, 153373, Note_on_c, 0, 49, 71
2, 153379, Note_on_c, 0, 50, 0
2, 153392, Note_on_c, 0, 76, 0
2, 153447, Note_on_c, 0, 49, 0
2, 153451, Note_on_c, 0, 50, 76
2, 153522, Note_on_c, 0, 50, 0
2, 153524, Note_on_c, 0, 49, 74
2, 153593, Note_on_c, 0, 81, 92
2, 153596, Note_on_c, 0, 49, 0
2, 153602, Note_on_c, 0, 50, 78
2, 153619, Note_on_c, 0, 78, 51
2, 153620, Note_on_c, 0, 78, 0
2, 153658, Note_on_c, 0, 81, 0
2, 153681, Note_on_c, 0, 49, 75
2, 153683, Note_on_c, 0, 50, 0
2, 153749, Note_on_c, 0, 47, 74
2, 153754, Note_on_c, 0, 49, 0
2, 153822, Note_on_c, 0, 49, 71
2, 153828, Note_on_c, 0, 47, 0
2, 153880, Note_on_c, 0, 77, 97
2, 153896, Note_on_c, 0, 50, 81
2, 153902, Note_on_c, 0, 49, 0
2, 153906, Note_on_c, 0, 69, 0
2, 153927, Control_c, 0, 64, 42
2, 153942, Control_c, 0, 64, 38
2, 153956, Note_on_c, 0, 50, 0
2, 153962, Note_on_c, 0, 52, 90
2, 153972, Control_c, 0, 64, 38
2, 153987, Control_c, 0, 64, 37
2, 154036, Note_on_c, 0, 53, 95
2, 154050, Note_on_c, 0, 52, 0
2, 154064, Control_c, 0, 64, 36
2, 154089, Note_on_c, 0, 77, 0
2, 154094, Control_c, 0, 64, 36
2, 154109, Control_c, 0, 64, 35
2, 154124, Control_c, 0, 64, 35
2, 154140, Control_c, 0, 64, 33
2, 154154, Control_c, 0, 64, 32
2, 154170, Control_c, 0, 64, 30
2, 154185, Control_c, 0, 64, 28
2, 154188, Note_on_c, 0, 69, 91
2, 154189, Note_on_c, 0, 74, 91
2, 154200, Control_c, 0, 64, 26
2, 154215, Control_c, 0, 64, 23
2, 154230, Control_c, 0, 64, 21
2, 154241, Note_on_c, 0, 69, 0
2, 154246, Control_c, 0, 64, 19
2, 154261, Control_c, 0, 64, 13
2, 154274, Note_on_c, 0, 52, 74
2, 154276, Control_c, 0, 64, 0
2, 154281, Note_on_c, 0, 53, 0
2, 154311, Note_on_c, 0, 52, 0
2, 154345, Note_on_c, 0, 50, 78
2, 154404, Note_on_c, 0, 50, 0
2, 154425, Note_on_c, 0, 48, 73
2, 154486, Note_on_c, 0, 62, 90
2, 154489, Note_on_c, 0, 47, 72
2, 154489, Note_on_c, 0, 48, 0
2, 154514, Note_on_c, 0, 62, 0
2, 154561, Note_on_c, 0, 47, 0
2, 154566, Note_on_c, 0, 48, 75
2, 154641, Note_on_c, 0, 48, 0
2, 154644, Note_on_c, 0, 50, 79
2, 154779, Note_on_c, 0, 65, 86
2, 154810, Note_on_c, 0, 65, 0
2, 154831, Note_on_c, 0, 50, 0
2, 154843, Note_on_c, 0, 48, 70
2, 154872, Note_on_c, 0, 74, 0
2, 154908, Note_on_c, 0, 47, 63
2, 154935, Note_on_c, 0, 48, 0
2, 154975, Note_on_c, 0, 45, 65
2, 154975, Note_on_c, 0, 47, 0
2, 155061, Note_on_c, 0, 43, 80
2, 155063, Note_on_c, 0, 45, 0
2, 155070, Note_on_c, 0, 59, 89
2, 155109, Note_on_c, 0, 59, 0
2, 155119, Control_c, 0, 64, 36
2, 155131, Note_on_c, 0, 70, 10
2, 155132, Note_on_c, 0, 70, 0
2, 155134, Control_c, 0, 64, 39
2, 155149, Control_c, 0, 64, 46
2, 155164, Control_c, 0, 64, 51
2, 155188, Control_c, 0, 64, 52
2, 155250, Control_c, 0, 64, 50
2, 155264, Control_c, 0, 64, 47
2, 155279, Control_c, 0, 64, 46
2, 155296, Control_c, 0, 64, 44
2, 155311, Control_c, 0, 64, 44
2, 155327, Control_c, 0, 64, 43
2, 155342, Control_c, 0, 64, 43
2, 155357, Control_c, 0, 64, 42
2, 155372, Control_c, 0, 64, 40
2, 155375, Note_on_c, 0, 74, 89
2, 155375, Note_on_c, 0, 77, 91
2, 155387, Control_c, 0, 64, 35
2, 155399, Note_on_c, 0, 74, 0
2, 155402, Control_c, 0, 64, 26
2, 155416, Note_on_c, 0, 77, 0
2, 155418, Control_c, 0, 64, 0
2, 155490, Note_on_c, 0, 43, 0
2, 155507, Note_on_c, 0, 45, 64
2, 155582, Note_on_c, 0, 45, 0
2, 155589, Note_on_c, 0, 47, 63
2, 155641, Note_on_c, 0, 67, 91
2, 155641, Note_on_c, 0, 74, 91
2, 155657, Note_on_c, 0, 48, 77
2, 155658, Note_on_c, 0, 47, 0
2, 155719, Note_on_c, 0, 74, 0
2, 155722, Note_on_c, 0, 48, 0
2, 155723, Note_on_c, 0, 47, 72
2, 155793, Note_on_c, 0, 48, 68
2, 155795, Note_on_c, 0, 47, 0
2, 155869, Note_on_c, 0, 47, 65
2, 155869, Note_on_c, 0, 48, 0
2, 155960, Note_on_c, 0, 47, 0
2, 155963, Note_on_c, 0, 79, 94
2, 155969, Note_on_c, 0, 48, 86
2, 156009, Note_on_c, 0, 79, 0
2, 156034, Note_on_c, 0, 48, 0
2, 156036, Note_on_c, 0, 47, 67
2, 156104, Note_on_c, 0, 47, 0
2, 156113, Note_on_c, 0, 45, 71
2, 156152, Note_on_c, 0, 45, 0
2, 156180, Note_on_c, 0, 47, 45
2, 156238, Note_on_c, 0, 47, 0
2, 156244, Note_on_c, 0, 76, 97
2, 156251, Note_on_c, 0, 48, 91
2, 156286, Note_on_c, 0, 67, 0
2, 156289, Control_c, 0, 64, 53
2, 156294, Note_on_c, 0, 48, 0
2, 156305, Control_c, 0, 64, 61
2, 156320, Control_c, 0, 64, 69
2, 156335, Control_c, 0, 64, 83
2, 156347, Note_on_c, 0, 76, 0
2, 156350, Control_c, 0, 64, 117
2, 156365, Control_c, 0, 64, 127
2, 156426, Control_c, 0, 64, 118
2, 156441, Control_c, 0, 64, 97
2, 156457, Control_c, 0, 64, 83
2, 156472, Control_c, 0, 64, 71
2, 156486, Control_c, 0, 64, 61
2, 156502, Control_c, 0, 64, 0
2, 156538, Note_on_c, 0, 72, 90
2, 156569, Note_on_c, 0, 72, 0
2, 156641, Note_on_c, 0, 60, 74
2, 156694, Note_on_c, 0, 60, 0
2, 156694, Note_on_c, 0, 62, 77
2, 156752, Note_on_c, 0, 62, 0
2, 156754, Note_on_c, 0, 64, 83
2, 156821, Note_on_c, 0, 64, 0
2, 156822, Note_on_c, 0, 65, 92
2, 156830, Note_on_c, 0, 69, 95
2, 156856, Note_on_c, 0, 65, 0
2, 156889, Note_on_c, 0, 69, 0
2, 157113, Note_on_c, 0, 77, 91
2, 157154, Note_on_c, 0, 77, 0
2, 157186, Note_on_c, 0, 64, 70
2, 157237, Note_on_c, 0, 64, 0
2, 157247, Note_on_c, 0, 62, 70
2, 157311, Note_on_c, 0, 62, 0
2, 157316, Note_on_c, 0, 60, 71
2, 157388, Note_on_c, 0, 59, 90
2, 157391, Note_on_c, 0, 74, 91
2, 157402, Note_on_c, 0, 60, 0
2, 157422, Note_on_c, 0, 59, 0
2, 157464, Note_on_c, 0, 74, 0
2, 157666, Note_on_c, 0, 71, 82
2, 157673, Note_on_c, 0, 62, 70
2, 157702, Note_on_c, 0, 62, 0
2, 157712, Note_on_c, 0, 71, 0
2, 157758, Note_on_c, 0, 47, 70
2, 157816, Note_on_c, 0, 47, 0
2, 157816, Note_on_c, 0, 48, 82
2, 157871, Note_on_c, 0, 48, 0
2, 157877, Note_on_c, 0, 50, 76
2, 157945, Note_on_c, 0, 52, 93
2, 157947, Note_on_c, 0, 68, 87
2, 157950, Note_on_c, 0, 59, 82
2, 157976, Note_on_c, 0, 50, 0
2, 157978, Note_on_c, 0, 59, 0
2, 157989, Note_on_c, 0, 52, 0
2, 158004, Note_on_c, 0, 68, 0
2, 158221, Note_on_c, 0, 68, 84
2, 158222, Note_on_c, 0, 76, 78
2, 158253, Note_on_c, 0, 68, 0
2, 158267, Note_on_c, 0, 76, 0
2, 158311, Note_on_c, 0, 50, 69
2, 158379, Note_on_c, 0, 48, 70
2, 158409, Note_on_c, 0, 50, 0
2, 158451, Note_on_c, 0, 47, 69
2, 158455, Note_on_c, 0, 48, 0
2, 158524, Note_on_c, 0, 72, 90
2, 158525, Note_on_c, 0, 45, 85
2, 158526, Note_on_c, 0, 69, 85
2, 158539, Note_on_c, 0, 47, 0
2, 158700, Note_on_c, 0, 45, 0
2, 158715, Note_on_c, 0, 47, 68
2, 158762, Note_on_c, 0, 69, 0
2, 158778, Note_on_c, 0, 47, 0
2, 158785, Note_on_c, 0, 48, 66
2, 158836, Note_on_c, 0, 50, 76
2, 158837, Note_on_c, 0, 48, 0
2, 158883, Note_on_c, 0, 50, 0
2, 158908, Note_on_c, 0, 52, 66
2, 158973, Note_on_c, 0, 52, 0
2, 158979, Note_on_c, 0, 54, 69
2, 159028, Note_on_c, 0, 54, 0
2, 159040, Note_on_c, 0, 56, 65
2, 159105, Note_on_c, 0, 72, 0
2, 159112, Note_on_c, 0, 56, 0
2, 159127, Note_on_c, 0, 57, 65
2, 159195, Note_on_c, 0, 71, 64
2, 159270, Note_on_c, 0, 71, 0
2, 159271, Note_on_c, 0, 69, 67
2, 159338, Note_on_c, 0, 67, 77
2, 159342, Note_on_c, 0, 69, 0
2, 159395, Note_on_c, 0, 67, 0
2, 159406, Note_on_c, 0, 65, 74
2, 159409, Control_c, 0, 64, 19
2, 159424, Control_c, 0, 64, 26
2, 159439, Control_c, 0, 64, 29
2, 159454, Control_c, 0, 64, 31
2, 159469, Control_c, 0, 64, 32
2, 159471, Note_on_c, 0, 65, 0
2, 159472, Note_on_c, 0, 64, 81
2, 159484, Control_c, 0, 64, 35
2, 159500, Control_c, 0, 64, 38
2, 159515, Control_c, 0, 64, 40
2, 159531, Control_c, 0, 64, 41
2, 159534, Note_on_c, 0, 64, 0
2, 159540, Note_on_c, 0, 62, 78
2, 159545, Control_c, 0, 64, 43
2, 159560, Control_c, 0, 64, 46
2, 159576, Control_c, 0, 64, 48
2, 159590, Note_on_c, 0, 62, 0
2, 159591, Control_c, 0, 64, 50
2, 159606, Note_on_c, 0, 60, 74
2, 159607, Control_c, 0, 64, 51
2, 159622, Control_c, 0, 64, 52
2, 159628, Note_on_c, 0, 60, 0
2, 159637, Control_c, 0, 64, 53
2, 159671, Note_on_c, 0, 62, 85
2, 159698, Control_c, 0, 64, 47
2, 159712, Control_c, 0, 64, 21
2, 159713, Note_on_c, 0, 57, 0
2, 159728, Control_c, 0, 64, 0
2, 159755, Note_on_c, 0, 71, 79
2, 159827, Note_on_c, 0, 72, 80
2, 159829, Note_on_c, 0, 71, 0
2, 159841, Control_c, 0, 64, 41
2, 159857, Control_c, 0, 64, 56
2, 159872, Control_c, 0, 64, 60
2, 159888, Control_c, 0, 64, 61
2, 159893, Note_on_c, 0, 74, 81
2, 159900, Note_on_c, 0, 72, 0
2, 159903, Control_c, 0, 64, 62
2, 159917, Control_c, 0, 64, 63
2, 159930, Note_on_c, 0, 74, 0
2, 159933, Control_c, 0, 64, 63
2, 159956, Note_on_c, 0, 62, 0
2, 159961, Note_on_c, 0, 59, 77
2, 159963, Note_on_c, 0, 76, 86
2, 159974, Note_on_c, 0, 56, 74
2, 160009, Control_c, 0, 64, 63
2, 160024, Control_c, 0, 64, 62
2, 160031, Note_on_c, 0, 78, 85
2, 160035, Note_on_c, 0, 76, 0
2, 160039, Control_c, 0, 64, 60
2, 160040, Note_on_c, 0, 59, 0
2, 160054, Control_c, 0, 64, 56
2, 160069, Control_c, 0, 64, 48
2, 160084, Control_c, 0, 64, 19
2, 160090, Note_on_c, 0, 80, 83
2, 160098, Note_on_c, 0, 57, 83
2, 160100, Control_c, 0, 64, 0
2, 160111, Note_on_c, 0, 54, 73
2, 160114, Note_on_c, 0, 78, 0
2, 160116, Note_on_c, 0, 56, 0
2, 160135, Note_on_c, 0, 54, 0
2, 160149, Note_on_c, 0, 80, 0
2, 160169, Note_on_c, 0, 81, 82
2, 160207, Note_on_c, 0, 57, 0
2, 160240, Note_on_c, 0, 83, 89
2, 160249, Note_on_c, 0, 56, 91
2, 160250, Note_on_c, 0, 81, 0
2, 160251, Note_on_c, 0, 52, 87
2, 160313, Note_on_c, 0, 55, 49
2, 160332, Note_on_c, 0, 81, 85
2, 160344, Control_c, 0, 64, 43
2, 160351, Note_on_c, 0, 83, 0
2, 160389, Control_c, 0, 64, 44
2, 160397, Note_on_c, 0, 52, 0
2, 160398, Note_on_c, 0, 80, 84
2, 160404, Control_c, 0, 64, 47
2, 160408, Note_on_c, 0, 81, 0
2, 160420, Control_c, 0, 64, 49
2, 160435, Control_c, 0, 64, 52
2, 160451, Control_c, 0, 64, 54
2, 160466, Control_c, 0, 64, 54
2, 160472, Note_on_c, 0, 78, 77
2, 160483, Note_on_c, 0, 80, 0
2, 160500, Note_on_c, 0, 55, 0
2, 160503, Note_on_c, 0, 56, 0
2, 160511, Control_c, 0, 64, 45
2, 160527, Control_c, 0, 64, 0
2, 160529, Note_on_c, 0, 78, 0
2, 160546, Note_on_c, 0, 76, 75
2, 160549, Note_on_c, 0, 50, 97
2, 160602, Note_on_c, 0, 76, 0
2, 160627, Note_on_c, 0, 74, 79
2, 160639, Control_c, 0, 64, 19
2, 160655, Control_c, 0, 64, 55
2, 160670, Control_c, 0, 64, 62
2, 160684, Control_c, 0, 64, 65
2, 160689, Note_on_c, 0, 50, 0
2, 160700, Control_c, 0, 64, 68
2, 160714, Note_on_c, 0, 72, 73
2, 160715, Control_c, 0, 64, 72
2, 160731, Control_c, 0, 64, 74
2, 160743, Note_on_c, 0, 74, 0
2, 160746, Control_c, 0, 64, 74
2, 160778, Note_on_c, 0, 71, 63
2, 160778, Note_on_c, 0, 72, 0
2, 160822, Control_c, 0, 64, 74
2, 160836, Control_c, 0, 64, 69
2, 160843, Note_on_c, 0, 71, 0
2, 160852, Control_c, 0, 64, 56
2, 160853, Note_on_c, 0, 76, 74
2, 160867, Control_c, 0, 64, 0
2, 160880, Note_on_c, 0, 48, 95
2, 160884, Note_on_c, 0, 57, 88
2, 160932, Note_on_c, 0, 74, 73
2, 160946, Note_on_c, 0, 76, 0
2, 160988, Note_on_c, 0, 57, 0
2, 161000, Note_on_c, 0, 72, 78
2, 161003, Control_c, 0, 64, 46
2, 161016, Note_on_c, 0, 74, 0
2, 161075, Note_on_c, 0, 71, 86
2, 161078, Note_on_c, 0, 72, 0
2, 161080, Control_c, 0, 64, 47
2, 161140, Note_on_c, 0, 71, 0
2, 161157, Note_on_c, 0, 69, 78
2, 161218, Control_c, 0, 64, 47
2, 161222, Note_on_c, 0, 69, 0
2, 161225, Note_on_c, 0, 68, 80
2, 161293, Note_on_c, 0, 68, 0
2, 161295, Note_on_c, 0, 66, 81
2, 161309, Control_c, 0, 64, 47
2, 161359, Note_on_c, 0, 66, 0
2, 161371, Note_on_c, 0, 64, 81
2, 161386, Note_on_c, 0, 48, 0
2, 161392, Control_c, 0, 64, 47
2, 161408, Control_c, 0, 64, 46
2, 161423, Control_c, 0, 64, 34
2, 161432, Note_on_c, 0, 64, 0
2, 161438, Control_c, 0, 64, 0
2, 161447, Note_on_c, 0, 53, 95
2, 161448, Note_on_c, 0, 69, 86
2, 161529, Note_on_c, 0, 67, 86
2, 161542, Note_on_c, 0, 69, 0
2, 161575, Control_c, 0, 64, 50
2, 161590, Control_c, 0, 64, 52
2, 161607, Note_on_c, 0, 65, 82
2, 161616, Note_on_c, 0, 67, 0
2, 161678, Note_on_c, 0, 64, 80
2, 161686, Note_on_c, 0, 65, 0
2, 161747, Note_on_c, 0, 62, 81
2, 161747, Note_on_c, 0, 64, 0
2, 161814, Note_on_c, 0, 53, 0
2, 161817, Note_on_c, 0, 60, 83
2, 161820, Note_on_c, 0, 62, 0
2, 161880, Note_on_c, 0, 60, 0
2, 161888, Note_on_c, 0, 59, 82
2, 161924, Control_c, 0, 64, 51
2, 161937, Note_on_c, 0, 59, 0
2, 161940, Control_c, 0, 64, 47
2, 161955, Control_c, 0, 64, 33
2, 161960, Note_on_c, 0, 57, 74
2, 161970, Control_c, 0, 64, 0
2, 162020, Note_on_c, 0, 44, 92
2, 162020, Note_on_c, 0, 57, 0
2, 162035, Note_on_c, 0, 65, 85
2, 162138, Note_on_c, 0, 64, 84
2, 162153, Note_on_c, 0, 65, 0
2, 162205, Note_on_c, 0, 62, 87
2, 162233, Note_on_c, 0, 64, 0
2, 162237, Control_c, 0, 64, 40
2, 162252, Control_c, 0, 64, 42
2, 162267, Control_c, 0, 64, 51
2, 162270, Note_on_c, 0, 62, 0
2, 162273, Note_on_c, 0, 60, 82
2, 162282, Control_c, 0, 64, 59
2, 162298, Control_c, 0, 64, 63
2, 162312, Note_on_c, 0, 44, 0
2, 162313, Control_c, 0, 64, 66
2, 162328, Control_c, 0, 64, 70
2, 162330, Note_on_c, 0, 60, 0
2, 162337, Note_on_c, 0, 59, 85
2, 162343, Control_c, 0, 64, 72
2, 162358, Control_c, 0, 64, 74
2, 162411, Note_on_c, 0, 59, 0
2, 162413, Note_on_c, 0, 57, 83
2, 162434, Control_c, 0, 64, 70
2, 162438, Note_on_c, 0, 57, 0
2, 162444, Note_on_c, 0, 56, 70
2, 162450, Control_c, 0, 64, 63
2, 162465, Control_c, 0, 64, 26
2, 162480, Control_c, 0, 64, 0
2, 162505, Note_on_c, 0, 54, 81
2, 162520, Note_on_c, 0, 56, 0
2, 162582, Note_on_c, 0, 54, 0
2, 162589, Note_on_c, 0, 62, 82
2, 162661, Note_on_c, 0, 60, 81
2, 162680, Note_on_c, 0, 62, 0
2, 162718, Note_on_c, 0, 59, 77
2, 162723, Note_on_c, 0, 60, 0
2, 162781, Note_on_c, 0, 59, 0
2, 162793, Note_on_c, 0, 57, 80
2, 162863, Note_on_c, 0, 56, 79
2, 162869, Note_on_c, 0, 57, 0
2, 162930, Note_on_c, 0, 54, 83
2, 162930, Note_on_c, 0, 56, 0
2, 162994, Note_on_c, 0, 54, 0
2, 162995, Note_on_c, 0, 52, 77
2, 163055, Note_on_c, 0, 51, 81
2, 163067, Note_on_c, 0, 52, 0
2, 163137, Note_on_c, 0, 52, 90
2, 163163, Note_on_c, 0, 51, 0
2, 163446, Note_on_c, 0, 50, 79
2, 163478, Note_on_c, 0, 50, 0
2, 163538, Note_on_c, 0, 64, 70
2, 163589, Note_on_c, 0, 64, 0
2, 163602, Note_on_c, 0, 66, 76
2, 163670, Note_on_c, 0, 66, 0
2, 163671, Note_on_c, 0, 68, 76
2, 163718, Note_on_c, 0, 52, 0
2, 163743, Note_on_c, 0, 69, 83
2, 163745, Note_on_c, 0, 47, 78
2, 163747, Note_on_c, 0, 68, 0
2, 163771, Note_on_c, 0, 47, 0
2, 163818, Note_on_c, 0, 68, 81
2, 163824, Note_on_c, 0, 69, 0
2, 163890, Note_on_c, 0, 69, 81
2, 163891, Note_on_c, 0, 68, 0
2, 163967, Note_on_c, 0, 69, 0
2, 163972, Note_on_c, 0, 68, 79
2, 164031, Note_on_c, 0, 69, 79
2, 164036, Note_on_c, 0, 68, 0
2, 164043, Note_on_c, 0, 52, 81
2, 164070, Note_on_c, 0, 52, 0
2, 164114, Note_on_c, 0, 68, 83
2, 164114, Note_on_c, 0, 69, 0
2, 164179, Note_on_c, 0, 68, 0
2, 164187, Note_on_c, 0, 66, 80
2, 164261, Note_on_c, 0, 66, 0
2, 164262, Note_on_c, 0, 68, 81
2, 164340, Note_on_c, 0, 48, 87
2, 164344, Note_on_c, 0, 68, 0
2, 164344, Note_on_c, 0, 69, 84
2, 164384, Note_on_c, 0, 48, 0
2, 164494, Control_c, 0, 64, 16
2, 164508, Control_c, 0, 64, 21
2, 164523, Control_c, 0, 64, 24
2, 164539, Control_c, 0, 64, 26
2, 164554, Control_c, 0, 64, 30
2, 164569, Control_c, 0, 64, 32
2, 164585, Control_c, 0, 64, 34
2, 164651, Note_on_c, 0, 45, 79
2, 164676, Control_c, 0, 64, 34
2, 164677, Note_on_c, 0, 45, 0
2, 164721, Control_c, 0, 64, 35
2, 164744, Note_on_c, 0, 59, 81
2, 164812, Control_c, 0, 64, 35
2, 164816, Note_on_c, 0, 60, 84
2, 164826, Note_on_c, 0, 59, 0
2, 164843, Control_c, 0, 64, 36
2, 164858, Control_c, 0, 64, 36
2, 164873, Control_c, 0, 64, 37
2, 164881, Note_on_c, 0, 60, 0
2, 164887, Note_on_c, 0, 62, 80
2, 164946, Note_on_c, 0, 40, 86
2, 164952, Note_on_c, 0, 61, 91
2, 164964, Control_c, 0, 64, 37
2, 164969, Note_on_c, 0, 62, 0
2, 164980, Note_on_c, 0, 40, 0
2, 165120, Note_on_c, 0, 61, 0
2, 165142, Note_on_c, 0, 62, 77
2, 165186, Control_c, 0, 64, 38
2, 165211, Note_on_c, 0, 61, 84
2, 165215, Note_on_c, 0, 62, 0
2, 165231, Control_c, 0, 64, 38
2, 165262, Control_c, 0, 64, 39
2, 165281, Note_on_c, 0, 61, 0
2, 165282, Note_on_c, 0, 69, 0
2, 165282, Note_on_c, 0, 69, 9
2, 165283, Note_on_c, 0, 43, 80
2, 165288, Note_on_c, 0, 62, 85
2, 165314, Note_on_c, 0, 43, 0
2, 165322, Control_c, 0, 64, 40
2, 165338, Control_c, 0, 64, 41
2, 165352, Control_c, 0, 64, 41
2, 165356, Note_on_c, 0, 61, 84
2, 165364, Note_on_c, 0, 62, 0
2, 165367, Control_c, 0, 64, 42
2, 165416, Control_c, 0, 64, 43
2, 165426, Note_on_c, 0, 61, 0
2, 165430, Note_on_c, 0, 59, 84
2, 165476, Control_c, 0, 64, 43
2, 165506, Note_on_c, 0, 61, 85
2, 165509, Note_on_c, 0, 59, 0
2, 165588, Note_on_c, 0, 41, 82
2, 165597, Note_on_c, 0, 62, 86
2, 165604, Note_on_c, 0, 61, 0
2, 165624, Note_on_c, 0, 69, 0
2, 165669, Note_on_c, 0, 40, 84
2, 165678, Note_on_c, 0, 41, 0
2, 165745, Note_on_c, 0, 38, 85
2, 165759, Note_on_c, 0, 40, 0
2, 165825, Control_c, 0, 64, 43
2, 165840, Control_c, 0, 64, 38
2, 165856, Control_c, 0, 64, 19
2, 165871, Control_c, 0, 64, 0
2, 165911, Note_on_c, 0, 62, 0
2, 165924, Note_on_c, 0, 65, 88
2, 165924, Note_on_c, 0, 71, 90
2, 166048, Control_c, 0, 64, 58
2, 166051, Note_on_c, 0, 71, 0
2, 166062, Control_c, 0, 64, 67
2, 166069, Note_on_c, 0, 65, 0
2, 166077, Control_c, 0, 64, 88
2, 166093, Control_c, 0, 64, 127
2, 166093, Note_on_c, 0, 40, 71
2, 166103, Note_on_c, 0, 38, 0
2, 166169, Note_on_c, 0, 41, 78
2, 166172, Note_on_c, 0, 40, 0
2, 166255, Note_on_c, 0, 38, 81
2, 166260, Control_c, 0, 64, 71
2, 166266, Note_on_c, 0, 41, 0
2, 166268, Note_on_c, 0, 56, 87
2, 166268, Note_on_c, 0, 64, 97
2, 166274, Control_c, 0, 64, 0
2, 166351, Note_on_c, 0, 40, 84
2, 166373, Note_on_c, 0, 38, 0
2, 166412, Control_c, 0, 64, 24
2, 166427, Control_c, 0, 64, 32
2, 166442, Control_c, 0, 64, 45
2, 166454, Note_on_c, 0, 41, 87
2, 166458, Control_c, 0, 64, 54
2, 166472, Control_c, 0, 64, 58
2, 166473, Note_on_c, 0, 40, 0
2, 166484, Note_on_c, 0, 56, 0
2, 166488, Control_c, 0, 64, 60
2, 166503, Control_c, 0, 64, 62
2, 166548, Note_on_c, 0, 40, 85
2, 166572, Note_on_c, 0, 41, 0
2, 166631, Note_on_c, 0, 64, 0
2, 166650, Note_on_c, 0, 68, 94
2, 166652, Note_on_c, 0, 59, 88
2, 166655, Control_c, 0, 64, 59
2, 166657, Note_on_c, 0, 41, 92
2, 166669, Control_c, 0, 64, 31
2, 166676, Note_on_c, 0, 40, 0
2, 166684, Control_c, 0, 64, 0
2, 166791, Note_on_c, 0, 40, 83
2, 166816, Note_on_c, 0, 41, 0
2, 166932, Note_on_c, 0, 38, 88
2, 166961, Note_on_c, 0, 40, 0
2, 166976, Note_on_c, 0, 59, 0
2, 167084, Note_on_c, 0, 40, 83
2, 167128, Note_on_c, 0, 38, 0
2, 167211, Control_c, 0, 64, 30
2, 167226, Control_c, 0, 64, 50
2, 167240, Control_c, 0, 64, 62
2, 167256, Control_c, 0, 64, 75
2, 167256, Note_on_c, 0, 68, 0
2, 167271, Control_c, 0, 64, 127
2, 167345, Note_on_c, 0, 40, 0
2, 167481, Note_on_c, 0, 69, 88
2, 167484, Note_on_c, 0, 64, 88
2, 167488, Note_on_c, 0, 61, 84
2, 167489, Note_on_c, 0, 33, 90
2, 167489, Note_on_c, 0, 45, 92
2, 167582, Control_c, 0, 64, 84
2, 167597, Control_c, 0, 64, 60
2, 167613, Control_c, 0, 64, 0
2, 168363, Control_c, 0, 64, 12
2, 168379, Control_c, 0, 64, 13
2, 168395, Control_c, 0, 64, 16
2, 168411, Control_c, 0, 64, 17
2, 168426, Control_c, 0, 64, 21
2, 168441, Control_c, 0, 64, 24
2, 168457, Control_c, 0, 64, 27
2, 168471, Control_c, 0, 64, 29
2, 168487, Control_c, 0, 64, 31
2, 168502, Control_c, 0, 64, 32
2, 168516, Control_c, 0, 64, 32
2, 168532, Control_c, 0, 64, 33
2, 168562, Control_c, 0, 64, 33
2, 168578, Control_c, 0, 64, 35
2, 168592, Control_c, 0, 64, 36
2, 168608, Control_c, 0, 64, 37
2, 168654, Control_c, 0, 64, 37
2, 168699, Control_c, 0, 64, 38
2, 168942, Control_c, 0, 64, 38
2, 169088, Control_c, 0, 64, 39
2, 169506, Control_c, 0, 64, 37
2, 169514, Note_on_c, 0, 69, 0
2, 169522, Control_c, 0, 64, 34
2, 169527, Note_on_c, 0, 61, 0
2, 169529, Note_on_c, 0, 64, 0
2, 169537, Control_c, 0, 64, 30
2, 169539, Note_on_c, 0, 33, 0
2, 169553, Control_c, 0, 64, 23
2, 169554, Note_on_c, 0, 45, 0
2, 169567, Control_c, 0, 64, 0
2, 170305, Control_c, 0, 64, 12
2, 170321, Control_c, 0, 64, 16
2, 170322, End_track
0, 0, End_of_file
