0, 0, Header, 1, 2, 384
1, 0, Start_track
1, 0, Tempo, 500000
1, 0, Time_signature, 4, 2, 24, 8
1, 1, End_track
2, 0, Start_track
2, 0, Title_t," ""7.6.13 Group 3"""
2, 0, Program_c, 0, 0
2, 0, Control_c, 0, 64, 80
2, 0, Control_c, 0, 67, 0
2, 12, Control_c, 0, 64, 82
2, 28, Control_c, 0, 64, 83
2, 50, Control_c, 0, 64, 85
2, 66, Control_c, 0, 64, 87
2, 80, Control_c, 0, 64, 92
2, 95, Control_c, 0, 64, 100
2, 111, Control_c, 0, 64, 107
2, 126, Control_c, 0, 64, 115
2, 142, Control_c, 0, 64, 127
2, 730, Control_c, 0, 64, 90
2, 746, Control_c, 0, 64, 74
2, 761, Control_c, 0, 64, 64
2, 776, Control_c, 0, 64, 46
2, 779, Note_on_c, 0, 45, 39
2, 792, Control_c, 0, 64, 0
2, 844, Control_c, 0, 64, 37
2, 859, Control_c, 0, 64, 52
2, 875, Control_c, 0, 64, 59
2, 890, Control_c, 0, 64, 64
2, 901, Note_on_c, 0, 72, 57
2, 906, Control_c, 0, 64, 69
2, 920, Control_c, 0, 64, 80
2, 935, Control_c, 0, 64, 99
2, 951, Control_c, 0, 64, 127
2, 966, Note_on_c, 0, 45, 0
2, 999, Note_on_c, 0, 74, 66
2, 1008, Note_on_c, 0, 72, 0
2, 1081, Note_on_c, 0, 76, 80
2, 1100, Note_on_c, 0, 74, 0
2, 1180, Note_on_c, 0, 57, 51
2, 1183, Note_on_c, 0, 77, 81
2, 1224, Note_on_c, 0, 76, 0
2, 1254, Control_c, 0, 64, 107
2, 1270, Control_c, 0, 64, 94
2, 1286, Control_c, 0, 64, 83
2, 1301, Control_c, 0, 64, 74
2, 1317, Control_c, 0, 64, 67
2, 1332, Control_c, 0, 64, 61
2, 1348, Control_c, 0, 64, 47
2, 1362, Control_c, 0, 64, 21
2, 1367, Note_on_c, 0, 72, 79
2, 1377, Control_c, 0, 64, 0
2, 1436, Note_on_c, 0, 77, 0
2, 1546, Note_on_c, 0, 71, 74
2, 1549, Note_on_c, 0, 56, 53
2, 1615, Note_on_c, 0, 72, 0
2, 1693, Note_on_c, 0, 57, 0
2, 1746, Note_on_c, 0, 75, 82
2, 1841, Note_on_c, 0, 71, 0
2, 1921, Note_on_c, 0, 76, 79
2, 1923, Note_on_c, 0, 55, 51
2, 1991, Note_on_c, 0, 75, 0
2, 2017, Note_on_c, 0, 56, 0
2, 2108, Note_on_c, 0, 70, 72
2, 2181, Note_on_c, 0, 76, 0
2, 2296, Note_on_c, 0, 69, 75
2, 2309, Note_on_c, 0, 54, 47
2, 2375, Note_on_c, 0, 70, 0
2, 2440, Note_on_c, 0, 55, 0
2, 2490, Note_on_c, 0, 73, 74
2, 2571, Note_on_c, 0, 69, 0
2, 2675, Note_on_c, 0, 74, 63
2, 2693, Note_on_c, 0, 53, 42
2, 2736, Note_on_c, 0, 73, 0
2, 2789, Note_on_c, 0, 74, 0
2, 2796, Note_on_c, 0, 54, 0
2, 2861, Note_on_c, 0, 68, 67
2, 3073, Note_on_c, 0, 52, 42
2, 3230, Note_on_c, 0, 53, 0
2, 3244, Note_on_c, 0, 69, 62
2, 3311, Note_on_c, 0, 68, 0
2, 3446, Note_on_c, 0, 50, 45
2, 3575, Note_on_c, 0, 52, 0
2, 3613, Note_on_c, 0, 71, 57
2, 3655, Note_on_c, 0, 69, 0
2, 3681, Control_c, 0, 64, 12
2, 3696, Control_c, 0, 64, 50
2, 3711, Control_c, 0, 64, 57
2, 3726, Control_c, 0, 64, 61
2, 3742, Control_c, 0, 64, 63
2, 3758, Control_c, 0, 64, 66
2, 3772, Control_c, 0, 64, 70
2, 3788, Control_c, 0, 64, 76
2, 3803, Control_c, 0, 64, 82
2, 3815, Note_on_c, 0, 64, 59
2, 3818, Control_c, 0, 64, 89
2, 3827, Note_on_c, 0, 50, 0
2, 3834, Control_c, 0, 64, 95
2, 3849, Control_c, 0, 64, 102
2, 3864, Control_c, 0, 64, 107
2, 3873, Note_on_c, 0, 71, 0
2, 3880, Control_c, 0, 64, 110
2, 3901, Control_c, 0, 64, 113
2, 3917, Control_c, 0, 64, 117
2, 3932, Control_c, 0, 64, 118
2, 3939, Note_on_c, 0, 48, 55
2, 3947, Control_c, 0, 64, 120
2, 4015, Note_on_c, 0, 48, 0
2, 4026, Note_on_c, 0, 50, 61
2, 4039, Control_c, 0, 64, 118
2, 4070, Control_c, 0, 64, 115
2, 4085, Control_c, 0, 64, 107
2, 4099, Control_c, 0, 64, 96
2, 4106, Note_on_c, 0, 52, 67
2, 4107, Note_on_c, 0, 50, 0
2, 4115, Control_c, 0, 64, 84
2, 4130, Control_c, 0, 64, 75
2, 4144, Control_c, 0, 64, 67
2, 4160, Control_c, 0, 64, 59
2, 4175, Control_c, 0, 64, 38
2, 4184, Note_on_c, 0, 69, 65
2, 4191, Control_c, 0, 64, 0
2, 4218, Note_on_c, 0, 53, 70
2, 4258, Note_on_c, 0, 52, 0
2, 4282, Note_on_c, 0, 64, 0
2, 4391, Note_on_c, 0, 48, 74
2, 4520, Note_on_c, 0, 53, 0
2, 4573, Note_on_c, 0, 68, 66
2, 4580, Note_on_c, 0, 47, 65
2, 4636, Note_on_c, 0, 48, 0
2, 4661, Note_on_c, 0, 69, 0
2, 4784, Note_on_c, 0, 51, 68
2, 4850, Note_on_c, 0, 47, 0
2, 4969, Note_on_c, 0, 52, 61
2, 4980, Note_on_c, 0, 67, 64
2, 5006, Note_on_c, 0, 51, 0
2, 5069, Note_on_c, 0, 68, 0
2, 5164, Note_on_c, 0, 46, 62
2, 5224, Note_on_c, 0, 52, 0
2, 5351, Note_on_c, 0, 66, 60
2, 5357, Note_on_c, 0, 45, 58
2, 5390, Note_on_c, 0, 46, 0
2, 5440, Note_on_c, 0, 67, 0
2, 5550, Note_on_c, 0, 49, 53
2, 5576, Note_on_c, 0, 45, 0
2, 5739, Note_on_c, 0, 65, 52
2, 5741, Note_on_c, 0, 49, 0
2, 5741, Note_on_c, 0, 50, 53
2, 5794, Note_on_c, 0, 50, 0
2, 5819, Note_on_c, 0, 66, 0
2, 5935, Note_on_c, 0, 44, 51
2, 6121, Note_on_c, 0, 64, 53
2, 6208, Note_on_c, 0, 65, 0
2, 6221, Control_c, 0, 64, 12
2, 6237, Control_c, 0, 64, 18
2, 6252, Control_c, 0, 64, 21
2, 6268, Control_c, 0, 64, 23
2, 6283, Control_c, 0, 64, 24
2, 6298, Control_c, 0, 64, 24
2, 6312, Note_on_c, 0, 45, 50
2, 6314, Control_c, 0, 64, 26
2, 6329, Control_c, 0, 64, 28
2, 6337, Note_on_c, 0, 64, 0
2, 6343, Control_c, 0, 64, 29
2, 6347, Note_on_c, 0, 44, 0
2, 6359, Control_c, 0, 64, 29
2, 6513, Note_on_c, 0, 62, 59
2, 6632, Control_c, 0, 64, 29
2, 6647, Control_c, 0, 64, 28
2, 6662, Control_c, 0, 64, 27
2, 6677, Control_c, 0, 64, 26
2, 6692, Control_c, 0, 64, 24
2, 6696, Note_on_c, 0, 47, 40
2, 6708, Control_c, 0, 64, 21
2, 6723, Control_c, 0, 64, 18
2, 6738, Control_c, 0, 64, 12
2, 6749, Note_on_c, 0, 45, 0
2, 6754, Control_c, 0, 64, 0
2, 6889, Note_on_c, 0, 47, 0
2, 6897, Note_on_c, 0, 40, 33
2, 7003, Control_c, 0, 64, 17
2, 7019, Control_c, 0, 64, 50
2, 7035, Control_c, 0, 64, 58
2, 7050, Control_c, 0, 64, 62
2, 7059, Note_on_c, 0, 40, 0
2, 7064, Control_c, 0, 64, 64
2, 7079, Note_on_c, 0, 62, 0
2, 7080, Control_c, 0, 64, 68
2, 7094, Note_on_c, 0, 60, 49
2, 7095, Control_c, 0, 64, 73
2, 7111, Control_c, 0, 64, 78
2, 7125, Control_c, 0, 64, 84
2, 7140, Control_c, 0, 64, 89
2, 7154, Note_on_c, 0, 60, 0
2, 7156, Control_c, 0, 64, 93
2, 7171, Control_c, 0, 64, 95
2, 7184, Note_on_c, 0, 59, 48
2, 7185, Control_c, 0, 64, 96
2, 7264, Note_on_c, 0, 45, 48
2, 7264, Note_on_c, 0, 59, 0
2, 7280, Note_on_c, 0, 60, 60
2, 7292, Control_c, 0, 64, 94
2, 7308, Control_c, 0, 64, 89
2, 7322, Control_c, 0, 64, 83
2, 7337, Control_c, 0, 64, 76
2, 7353, Control_c, 0, 64, 70
2, 7356, Note_on_c, 0, 60, 0
2, 7368, Control_c, 0, 64, 62
2, 7383, Control_c, 0, 64, 40
2, 7399, Control_c, 0, 64, 0
2, 7490, Note_on_c, 0, 69, 66
2, 7660, Note_on_c, 0, 47, 48
2, 7772, Note_on_c, 0, 45, 0
2, 7865, Note_on_c, 0, 68, 63
2, 7876, Note_on_c, 0, 69, 0
2, 8059, Note_on_c, 0, 49, 42
2, 8065, Note_on_c, 0, 76, 75
2, 8103, Note_on_c, 0, 68, 0
2, 8141, Note_on_c, 0, 76, 0
2, 8260, Note_on_c, 0, 67, 70
2, 8263, Note_on_c, 0, 47, 0
2, 8441, Note_on_c, 0, 50, 53
2, 8532, Note_on_c, 0, 67, 0
2, 8564, Note_on_c, 0, 49, 0
2, 8584, Control_c, 0, 64, 31
2, 8600, Control_c, 0, 64, 54
2, 8615, Control_c, 0, 64, 59
2, 8622, Note_on_c, 0, 65, 60
2, 8631, Control_c, 0, 64, 61
2, 8646, Control_c, 0, 64, 62
2, 8662, Control_c, 0, 64, 64
2, 8677, Control_c, 0, 64, 65
2, 8692, Control_c, 0, 64, 66
2, 8698, Note_on_c, 0, 65, 0
2, 8708, Control_c, 0, 64, 67
2, 8711, Note_on_c, 0, 64, 71
2, 8717, Note_on_c, 0, 50, 0
2, 8723, Control_c, 0, 64, 68
2, 8783, Note_on_c, 0, 64, 0
2, 8808, Note_on_c, 0, 63, 65
2, 8814, Control_c, 0, 64, 67
2, 8822, Note_on_c, 0, 47, 53
2, 8830, Control_c, 0, 64, 66
2, 8845, Control_c, 0, 64, 64
2, 8860, Control_c, 0, 64, 61
2, 8865, Note_on_c, 0, 63, 0
2, 8876, Control_c, 0, 64, 54
2, 8890, Control_c, 0, 64, 45
2, 8905, Control_c, 0, 64, 34
2, 8921, Control_c, 0, 64, 12
2, 8935, Control_c, 0, 64, 0
2, 9002, Note_on_c, 0, 71, 74
2, 9197, Note_on_c, 0, 49, 56
2, 9301, Note_on_c, 0, 47, 0
2, 9385, Note_on_c, 0, 70, 73
2, 9441, Note_on_c, 0, 71, 0
2, 9572, Note_on_c, 0, 78, 75
2, 9588, Note_on_c, 0, 51, 52
2, 9617, Note_on_c, 0, 70, 0
2, 9656, Note_on_c, 0, 78, 0
2, 9691, Note_on_c, 0, 49, 0
2, 9777, Note_on_c, 0, 69, 69
2, 9979, Note_on_c, 0, 52, 39
2, 10049, Note_on_c, 0, 51, 0
2, 10090, Control_c, 0, 64, 55
2, 10096, Note_on_c, 0, 67, 57
2, 10099, Note_on_c, 0, 69, 0
2, 10105, Control_c, 0, 64, 64
2, 10105, Note_on_c, 0, 52, 0
2, 10121, Control_c, 0, 64, 70
2, 10135, Control_c, 0, 64, 87
2, 10151, Control_c, 0, 64, 127
2, 10193, Note_on_c, 0, 69, 69
2, 10222, Note_on_c, 0, 67, 0
2, 10263, Note_on_c, 0, 71, 74
2, 10294, Note_on_c, 0, 69, 0
2, 10365, Note_on_c, 0, 72, 78
2, 10390, Note_on_c, 0, 64, 69
2, 10413, Note_on_c, 0, 71, 0
2, 10487, Control_c, 0, 64, 100
2, 10501, Control_c, 0, 64, 82
2, 10517, Control_c, 0, 64, 70
2, 10532, Control_c, 0, 64, 61
2, 10548, Control_c, 0, 64, 39
2, 10563, Control_c, 0, 64, 0
2, 10569, Note_on_c, 0, 67, 76
2, 10599, Note_on_c, 0, 72, 0
2, 10733, Note_on_c, 0, 63, 66
2, 10751, Note_on_c, 0, 66, 72
2, 10772, Note_on_c, 0, 67, 0
2, 10942, Note_on_c, 0, 70, 74
2, 10955, Note_on_c, 0, 64, 0
2, 11015, Note_on_c, 0, 66, 0
2, 11133, Note_on_c, 0, 71, 73
2, 11135, Note_on_c, 0, 62, 66
2, 11178, Note_on_c, 0, 70, 0
2, 11259, Note_on_c, 0, 63, 0
2, 11318, Note_on_c, 0, 65, 66
2, 11355, Note_on_c, 0, 71, 0
2, 11511, Note_on_c, 0, 64, 63
2, 11513, Note_on_c, 0, 61, 50
2, 11536, Note_on_c, 0, 65, 0
2, 11635, Note_on_c, 0, 62, 0
2, 11700, Note_on_c, 0, 68, 67
2, 11763, Note_on_c, 0, 64, 0
2, 11884, Note_on_c, 0, 69, 60
2, 11889, Note_on_c, 0, 60, 53
2, 11924, Note_on_c, 0, 68, 0
2, 11948, Note_on_c, 0, 61, 0
2, 11972, Note_on_c, 0, 69, 0
2, 12088, Note_on_c, 0, 63, 62
2, 12272, Note_on_c, 0, 59, 47
2, 12357, Note_on_c, 0, 60, 0
2, 12475, Note_on_c, 0, 64, 58
2, 12514, Note_on_c, 0, 63, 0
2, 12646, Note_on_c, 0, 57, 43
2, 12720, Note_on_c, 0, 59, 0
2, 12835, Note_on_c, 0, 66, 54
2, 12856, Note_on_c, 0, 64, 0
2, 12935, Note_on_c, 0, 57, 0
2, 12973, Control_c, 0, 64, 37
2, 12989, Control_c, 0, 64, 56
2, 13004, Control_c, 0, 64, 61
2, 13009, Note_on_c, 0, 59, 48
2, 13018, Control_c, 0, 64, 64
2, 13027, Note_on_c, 0, 66, 0
2, 13034, Control_c, 0, 64, 68
2, 13049, Control_c, 0, 64, 75
2, 13064, Control_c, 0, 64, 86
2, 13080, Control_c, 0, 64, 101
2, 13095, Control_c, 0, 64, 127
2, 13112, Note_on_c, 0, 55, 48
2, 13151, Note_on_c, 0, 59, 0
2, 13169, Note_on_c, 0, 55, 0
2, 13191, Note_on_c, 0, 57, 51
2, 13249, Note_on_c, 0, 57, 0
2, 13275, Note_on_c, 0, 59, 62
2, 13330, Control_c, 0, 64, 120
2, 13345, Control_c, 0, 64, 94
2, 13361, Control_c, 0, 64, 80
2, 13364, Note_on_c, 0, 76, 70
2, 13370, Note_on_c, 0, 60, 69
2, 13376, Control_c, 0, 64, 69
2, 13383, Note_on_c, 0, 59, 0
2, 13391, Control_c, 0, 64, 61
2, 13406, Control_c, 0, 64, 44
2, 13421, Control_c, 0, 64, 8
2, 13437, Control_c, 0, 64, 0
2, 13557, Note_on_c, 0, 55, 67
2, 13663, Note_on_c, 0, 60, 0
2, 13733, Note_on_c, 0, 75, 72
2, 13735, Note_on_c, 0, 54, 76
2, 13798, Note_on_c, 0, 55, 0
2, 13816, Note_on_c, 0, 76, 0
2, 13935, Note_on_c, 0, 58, 75
2, 14008, Note_on_c, 0, 54, 0
2, 14128, Note_on_c, 0, 59, 71
2, 14137, Note_on_c, 0, 74, 63
2, 14184, Note_on_c, 0, 58, 0
2, 14204, Note_on_c, 0, 75, 0
2, 14321, Note_on_c, 0, 53, 65
2, 14384, Note_on_c, 0, 59, 0
2, 14504, Note_on_c, 0, 52, 62
2, 14519, Note_on_c, 0, 73, 68
2, 14542, Note_on_c, 0, 53, 0
2, 14565, Note_on_c, 0, 74, 0
2, 14715, Note_on_c, 0, 56, 64
2, 14749, Note_on_c, 0, 52, 0
2, 14896, Note_on_c, 0, 57, 53
2, 14918, Note_on_c, 0, 72, 53
2, 14929, Note_on_c, 0, 56, 0
2, 14967, Note_on_c, 0, 57, 0
2, 14991, Note_on_c, 0, 73, 0
2, 15096, Note_on_c, 0, 51, 49
2, 15295, Note_on_c, 0, 71, 59
2, 15344, Note_on_c, 0, 72, 0
2, 15483, Note_on_c, 0, 52, 43
2, 15490, Note_on_c, 0, 71, 0
2, 15499, Note_on_c, 0, 51, 0
2, 15676, Note_on_c, 0, 69, 59
2, 15865, Note_on_c, 0, 54, 48
2, 15876, Note_on_c, 0, 52, 0
2, 16075, Note_on_c, 0, 47, 38
2, 16117, Note_on_c, 0, 54, 0
2, 16149, Control_c, 0, 64, 52
2, 16165, Control_c, 0, 64, 62
2, 16165, Note_on_c, 0, 69, 0
2, 16186, Control_c, 0, 64, 66
2, 16202, Control_c, 0, 64, 72
2, 16217, Control_c, 0, 64, 84
2, 16217, Note_on_c, 0, 47, 0
2, 16232, Control_c, 0, 64, 110
2, 16248, Control_c, 0, 64, 127
2, 16285, Note_on_c, 0, 67, 59
2, 16351, Note_on_c, 0, 67, 0
2, 16378, Note_on_c, 0, 66, 59
2, 16445, Control_c, 0, 64, 97
2, 16459, Control_c, 0, 64, 82
2, 16460, Note_on_c, 0, 66, 0
2, 16475, Control_c, 0, 64, 68
2, 16476, Note_on_c, 0, 52, 42
2, 16490, Control_c, 0, 64, 57
2, 16490, Note_on_c, 0, 67, 54
2, 16505, Control_c, 0, 64, 13
2, 16521, Control_c, 0, 64, 0
2, 16531, Note_on_c, 0, 67, 0
2, 16685, Note_on_c, 0, 76, 66
2, 16865, Note_on_c, 0, 54, 56
2, 16921, Note_on_c, 0, 52, 0
2, 17082, Note_on_c, 0, 75, 68
2, 17124, Note_on_c, 0, 76, 0
2, 17280, Note_on_c, 0, 83, 66
2, 17290, Note_on_c, 0, 56, 44
2, 17302, Note_on_c, 0, 75, 0
2, 17331, Note_on_c, 0, 54, 0
2, 17335, Note_on_c, 0, 83, 0
2, 17482, Note_on_c, 0, 74, 61
2, 17658, Note_on_c, 0, 56, 0
2, 17669, Note_on_c, 0, 57, 43
2, 17717, Note_on_c, 0, 57, 0
2, 17847, Note_on_c, 0, 74, 0
2, 17853, Note_on_c, 0, 72, 61
2, 17861, Note_on_c, 0, 45, 50
2, 17890, Note_on_c, 0, 45, 0
2, 17926, Note_on_c, 0, 72, 0
2, 17950, Note_on_c, 0, 71, 52
2, 18043, Note_on_c, 0, 71, 0
2, 18046, Note_on_c, 0, 72, 65
2, 18061, Note_on_c, 0, 57, 40
2, 18249, Note_on_c, 0, 69, 59
2, 18259, Note_on_c, 0, 72, 0
2, 18446, Note_on_c, 0, 71, 70
2, 18580, Note_on_c, 0, 69, 0
2, 18630, Note_on_c, 0, 56, 52
2, 18711, Note_on_c, 0, 57, 0
2, 18818, Note_on_c, 0, 56, 0
2, 18821, Note_on_c, 0, 73, 70
2, 18823, Note_on_c, 0, 64, 50
2, 18854, Note_on_c, 0, 64, 0
2, 18897, Note_on_c, 0, 71, 0
2, 19019, Note_on_c, 0, 55, 51
2, 19211, Note_on_c, 0, 74, 56
2, 19217, Note_on_c, 0, 73, 0
2, 19259, Note_on_c, 0, 74, 0
2, 19381, Note_on_c, 0, 55, 0
2, 19400, Note_on_c, 0, 62, 61
2, 19412, Note_on_c, 0, 54, 52
2, 19430, Note_on_c, 0, 62, 0
2, 19481, Note_on_c, 0, 54, 0
2, 19517, Note_on_c, 0, 52, 40
2, 19574, Note_on_c, 0, 52, 0
2, 19580, Note_on_c, 0, 74, 68
2, 19583, Note_on_c, 0, 54, 56
2, 19797, Note_on_c, 0, 50, 51
2, 19848, Note_on_c, 0, 54, 0
2, 19972, Note_on_c, 0, 52, 62
2, 20038, Note_on_c, 0, 50, 0
2, 20187, Note_on_c, 0, 73, 73
2, 20207, Note_on_c, 0, 74, 0
2, 20369, Note_on_c, 0, 54, 60
2, 20373, Note_on_c, 0, 81, 63
2, 20394, Note_on_c, 0, 73, 0
2, 20415, Note_on_c, 0, 81, 0
2, 20420, Note_on_c, 0, 52, 0
2, 20564, Note_on_c, 0, 72, 57
2, 20747, Note_on_c, 0, 54, 0
2, 20754, Note_on_c, 0, 55, 50
2, 20799, Note_on_c, 0, 55, 0
2, 20930, Note_on_c, 0, 72, 0
2, 20946, Note_on_c, 0, 43, 49
2, 20946, Note_on_c, 0, 71, 58
2, 20987, Note_on_c, 0, 43, 0
2, 21020, Note_on_c, 0, 71, 0
2, 21041, Note_on_c, 0, 69, 54
2, 21137, Note_on_c, 0, 69, 0
2, 21148, Note_on_c, 0, 71, 62
2, 21155, Note_on_c, 0, 55, 29
2, 21350, Note_on_c, 0, 67, 55
2, 21375, Note_on_c, 0, 71, 0
2, 21559, Note_on_c, 0, 69, 60
2, 21638, Note_on_c, 0, 67, 0
2, 21729, Note_on_c, 0, 54, 45
2, 21787, Note_on_c, 0, 55, 0
2, 21792, Control_c, 0, 64, 8
2, 21808, Control_c, 0, 64, 10
2, 21823, Control_c, 0, 64, 12
2, 21868, Control_c, 0, 64, 13
2, 21872, Note_on_c, 0, 54, 0
2, 21909, Note_on_c, 0, 62, 49
2, 21927, Note_on_c, 0, 71, 62
2, 21959, Note_on_c, 0, 62, 0
2, 22001, Note_on_c, 0, 69, 0
2, 22102, Note_on_c, 0, 53, 45
2, 22127, Control_c, 0, 64, 12
2, 22142, Control_c, 0, 64, 0
2, 22289, Note_on_c, 0, 71, 0
2, 22294, Note_on_c, 0, 72, 52
2, 22338, Note_on_c, 0, 53, 0
2, 22377, Control_c, 0, 64, 29
2, 22392, Control_c, 0, 64, 57
2, 22397, Note_on_c, 0, 52, 36
2, 22408, Control_c, 0, 64, 62
2, 22423, Control_c, 0, 64, 65
2, 22439, Control_c, 0, 64, 69
2, 22446, Note_on_c, 0, 52, 0
2, 22453, Control_c, 0, 64, 75
2, 22468, Control_c, 0, 64, 82
2, 22482, Note_on_c, 0, 53, 50
2, 22484, Control_c, 0, 64, 91
2, 22498, Control_c, 0, 64, 98
2, 22514, Control_c, 0, 64, 101
2, 22529, Control_c, 0, 64, 102
2, 22532, Note_on_c, 0, 53, 0
2, 22552, Note_on_c, 0, 55, 55
2, 22574, Note_on_c, 0, 72, 0
2, 22621, Control_c, 0, 64, 101
2, 22637, Control_c, 0, 64, 97
2, 22652, Control_c, 0, 64, 91
2, 22652, Note_on_c, 0, 84, 72
2, 22660, Note_on_c, 0, 57, 54
2, 22663, Note_on_c, 0, 55, 0
2, 22667, Control_c, 0, 64, 84
2, 22682, Control_c, 0, 64, 78
2, 22697, Control_c, 0, 64, 71
2, 22712, Control_c, 0, 64, 65
2, 22727, Control_c, 0, 64, 60
2, 22742, Control_c, 0, 64, 50
2, 22758, Control_c, 0, 64, 41
2, 22773, Control_c, 0, 64, 35
2, 22788, Control_c, 0, 64, 29
2, 22803, Control_c, 0, 64, 25
2, 22818, Control_c, 0, 64, 15
2, 22834, Control_c, 0, 64, 0
2, 22849, Note_on_c, 0, 52, 62
2, 22876, Note_on_c, 0, 57, 0
2, 23031, Note_on_c, 0, 83, 80
2, 23060, Note_on_c, 0, 51, 60
2, 23110, Note_on_c, 0, 52, 0
2, 23126, Note_on_c, 0, 84, 0
2, 23241, Note_on_c, 0, 54, 66
2, 23299, Note_on_c, 0, 51, 0
2, 23420, Note_on_c, 0, 55, 61
2, 23426, Note_on_c, 0, 82, 79
2, 23457, Note_on_c, 0, 54, 0
2, 23516, Note_on_c, 0, 83, 0
2, 23613, Note_on_c, 0, 50, 64
2, 23649, Note_on_c, 0, 55, 0
2, 23802, Note_on_c, 0, 49, 62
2, 23808, Note_on_c, 0, 81, 74
2, 23837, Note_on_c, 0, 50, 0
2, 23910, Note_on_c, 0, 82, 0
2, 24000, Note_on_c, 0, 52, 51
2, 24065, Note_on_c, 0, 49, 0
2, 24189, Note_on_c, 0, 80, 72
2, 24192, Note_on_c, 0, 53, 59
2, 24197, Note_on_c, 0, 52, 0
2, 24218, Control_c, 0, 64, 8
2, 24250, Note_on_c, 0, 53, 0
2, 24272, Note_on_c, 0, 81, 0
2, 24374, Note_on_c, 0, 48, 57
2, 24506, Control_c, 0, 64, 12
2, 24522, Control_c, 0, 64, 15
2, 24537, Control_c, 0, 64, 18
2, 24552, Control_c, 0, 64, 23
2, 24566, Note_on_c, 0, 79, 70
2, 24567, Control_c, 0, 64, 31
2, 24582, Control_c, 0, 64, 37
2, 24598, Control_c, 0, 64, 42
2, 24620, Control_c, 0, 64, 46
2, 24629, Note_on_c, 0, 80, 0
2, 24635, Control_c, 0, 64, 48
2, 24650, Control_c, 0, 64, 50
2, 24665, Control_c, 0, 64, 52
2, 24681, Control_c, 0, 64, 53
2, 24696, Control_c, 0, 64, 55
2, 24710, Control_c, 0, 64, 56
2, 24726, Control_c, 0, 64, 57
2, 24741, Control_c, 0, 64, 57
2, 24757, Control_c, 0, 64, 58
2, 24771, Note_on_c, 0, 79, 0
2, 24772, Control_c, 0, 64, 58
2, 24774, Note_on_c, 0, 47, 47
2, 24787, Control_c, 0, 64, 59
2, 24789, Note_on_c, 0, 48, 0
2, 24955, Note_on_c, 0, 77, 68
2, 25001, Control_c, 0, 64, 58
2, 25031, Control_c, 0, 64, 58
2, 25047, Control_c, 0, 64, 57
2, 25077, Control_c, 0, 64, 57
2, 25092, Control_c, 0, 64, 56
2, 25123, Control_c, 0, 64, 56
2, 25129, Note_on_c, 0, 47, 0
2, 25138, Note_on_c, 0, 48, 51
2, 25154, Control_c, 0, 64, 55
2, 25184, Control_c, 0, 64, 55
2, 25200, Control_c, 0, 64, 54
2, 25205, Note_on_c, 0, 48, 0
2, 25225, Note_on_c, 0, 50, 51
2, 25229, Control_c, 0, 64, 54
2, 25245, Control_c, 0, 64, 53
2, 25259, Control_c, 0, 64, 51
2, 25275, Control_c, 0, 64, 49
2, 25290, Control_c, 0, 64, 39
2, 25305, Control_c, 0, 64, 0
2, 25329, Note_on_c, 0, 43, 42
2, 25335, Note_on_c, 0, 50, 0
2, 25459, Note_on_c, 0, 71, 54
2, 25495, Control_c, 0, 64, 49
2, 25510, Control_c, 0, 64, 57
2, 25526, Control_c, 0, 64, 60
2, 25540, Control_c, 0, 64, 61
2, 25540, Note_on_c, 0, 77, 0
2, 25544, Note_on_c, 0, 71, 0
2, 25547, Note_on_c, 0, 72, 66
2, 25556, Control_c, 0, 64, 63
2, 25571, Control_c, 0, 64, 64
2, 25586, Control_c, 0, 64, 64
2, 25617, Note_on_c, 0, 43, 0
2, 25627, Note_on_c, 0, 72, 0
2, 25634, Note_on_c, 0, 74, 70
2, 25677, Control_c, 0, 64, 64
2, 25707, Control_c, 0, 64, 63
2, 25721, Note_on_c, 0, 76, 76
2, 25723, Control_c, 0, 64, 63
2, 25725, Note_on_c, 0, 55, 48
2, 25738, Control_c, 0, 64, 62
2, 25750, Note_on_c, 0, 74, 0
2, 25752, Control_c, 0, 64, 61
2, 25768, Control_c, 0, 64, 60
2, 25783, Control_c, 0, 64, 59
2, 25799, Control_c, 0, 64, 57
2, 25814, Control_c, 0, 64, 55
2, 25829, Control_c, 0, 64, 50
2, 25845, Control_c, 0, 64, 44
2, 25860, Control_c, 0, 64, 34
2, 25876, Control_c, 0, 64, 18
2, 25891, Control_c, 0, 64, 0
2, 25911, Note_on_c, 0, 71, 76
2, 25942, Note_on_c, 0, 76, 0
2, 26098, Note_on_c, 0, 54, 59
2, 26107, Note_on_c, 0, 70, 73
2, 26201, Note_on_c, 0, 55, 0
2, 26208, Note_on_c, 0, 71, 0
2, 26305, Note_on_c, 0, 73, 81
2, 26361, Note_on_c, 0, 70, 0
2, 26502, Note_on_c, 0, 74, 72
2, 26506, Note_on_c, 0, 53, 50
2, 26560, Note_on_c, 0, 73, 0
2, 26595, Note_on_c, 0, 54, 0
2, 26695, Note_on_c, 0, 69, 71
2, 26743, Note_on_c, 0, 74, 0
2, 26875, Note_on_c, 0, 52, 45
2, 26882, Note_on_c, 0, 68, 67
2, 26929, Note_on_c, 0, 69, 0
2, 26971, Note_on_c, 0, 53, 0
2, 27075, Note_on_c, 0, 71, 65
2, 27118, Note_on_c, 0, 68, 0
2, 27271, Note_on_c, 0, 51, 45
2, 27281, Note_on_c, 0, 72, 63
2, 27310, Note_on_c, 0, 71, 0
2, 27320, Note_on_c, 0, 52, 0
2, 27349, Control_c, 0, 64, 8
2, 27349, Note_on_c, 0, 72, 0
2, 27480, Note_on_c, 0, 67, 57
2, 27663, Note_on_c, 0, 50, 43
2, 27757, Note_on_c, 0, 51, 0
2, 27859, Control_c, 0, 64, 10
2, 27865, Note_on_c, 0, 66, 54
2, 27890, Control_c, 0, 64, 12
2, 27893, Note_on_c, 0, 67, 0
2, 28011, Control_c, 0, 64, 13
2, 28055, Note_on_c, 0, 48, 37
2, 28102, Control_c, 0, 64, 15
2, 28122, Note_on_c, 0, 50, 0
2, 28148, Control_c, 0, 64, 16
2, 28220, Note_on_c, 0, 66, 0
2, 28240, Note_on_c, 0, 67, 44
2, 28334, Note_on_c, 0, 67, 0
2, 28339, Note_on_c, 0, 69, 53
2, 28407, Control_c, 0, 64, 17
2, 28422, Control_c, 0, 64, 18
2, 28423, Note_on_c, 0, 69, 0
2, 28430, Note_on_c, 0, 62, 46
2, 28437, Control_c, 0, 64, 19
2, 28477, Control_c, 0, 64, 20
2, 28492, Control_c, 0, 64, 22
2, 28507, Control_c, 0, 64, 24
2, 28522, Control_c, 0, 64, 27
2, 28537, Control_c, 0, 64, 29
2, 28552, Control_c, 0, 64, 32
2, 28568, Control_c, 0, 64, 35
2, 28583, Control_c, 0, 64, 41
2, 28598, Control_c, 0, 64, 46
2, 28613, Control_c, 0, 64, 50
2, 28628, Control_c, 0, 64, 52
2, 28635, Note_on_c, 0, 47, 39
2, 28643, Control_c, 0, 64, 55
2, 28645, Note_on_c, 0, 48, 0
2, 28658, Control_c, 0, 64, 56
2, 28674, Control_c, 0, 64, 56
2, 28691, Note_on_c, 0, 47, 0
2, 28719, Note_on_c, 0, 45, 44
2, 28794, Note_on_c, 0, 45, 0
2, 28804, Note_on_c, 0, 62, 0
2, 28808, Note_on_c, 0, 47, 48
2, 28810, Control_c, 0, 64, 55
2, 28824, Note_on_c, 0, 67, 54
2, 28825, Control_c, 0, 64, 53
2, 28841, Control_c, 0, 64, 50
2, 28855, Note_on_c, 0, 47, 0
2, 28856, Control_c, 0, 64, 48
2, 28871, Control_c, 0, 64, 46
2, 28887, Control_c, 0, 64, 44
2, 28902, Control_c, 0, 64, 42
2, 28917, Control_c, 0, 64, 39
2, 28932, Control_c, 0, 64, 38
2, 28947, Control_c, 0, 64, 37
2, 28963, Control_c, 0, 64, 37
2, 29012, Note_on_c, 0, 55, 47
2, 29099, Control_c, 0, 64, 38
2, 29115, Control_c, 0, 64, 38
2, 29131, Control_c, 0, 64, 39
2, 29146, Control_c, 0, 64, 40
2, 29161, Control_c, 0, 64, 40
2, 29176, Control_c, 0, 64, 41
2, 29191, Control_c, 0, 64, 41
2, 29208, Note_on_c, 0, 69, 67
2, 29222, Control_c, 0, 64, 42
2, 29244, Control_c, 0, 64, 43
2, 29259, Control_c, 0, 64, 43
2, 29281, Note_on_c, 0, 67, 0
2, 29290, Control_c, 0, 64, 44
2, 29305, Control_c, 0, 64, 44
2, 29366, Control_c, 0, 64, 45
2, 29381, Control_c, 0, 64, 45
2, 29397, Control_c, 0, 64, 46
2, 29404, Note_on_c, 0, 54, 55
2, 29411, Control_c, 0, 64, 46
2, 29414, Note_on_c, 0, 55, 0
2, 29457, Control_c, 0, 64, 47
2, 29472, Control_c, 0, 64, 47
2, 29502, Control_c, 0, 64, 48
2, 29574, Note_on_c, 0, 54, 0
2, 29591, Note_on_c, 0, 62, 55
2, 29600, Note_on_c, 0, 71, 73
2, 29634, Note_on_c, 0, 62, 0
2, 29710, Note_on_c, 0, 69, 0
2, 29807, Note_on_c, 0, 53, 53
2, 29944, Control_c, 0, 64, 44
2, 29960, Control_c, 0, 64, 0
2, 29986, Note_on_c, 0, 72, 73
2, 30051, Note_on_c, 0, 71, 0
2, 30103, Control_c, 0, 64, 50
2, 30119, Control_c, 0, 64, 63
2, 30134, Control_c, 0, 64, 68
2, 30149, Control_c, 0, 64, 76
2, 30165, Control_c, 0, 64, 91
2, 30180, Control_c, 0, 64, 127
2, 30188, Note_on_c, 0, 53, 0
2, 30205, Note_on_c, 0, 52, 63
2, 30205, Note_on_c, 0, 72, 0
2, 30255, Note_on_c, 0, 52, 0
2, 30293, Note_on_c, 0, 50, 54
2, 30346, Control_c, 0, 64, 105
2, 30362, Control_c, 0, 64, 85
2, 30368, Note_on_c, 0, 49, 60
2, 30368, Note_on_c, 0, 50, 0
2, 30377, Control_c, 0, 64, 71
2, 30380, Note_on_c, 0, 69, 79
2, 30392, Control_c, 0, 64, 62
2, 30407, Control_c, 0, 64, 45
2, 30417, Note_on_c, 0, 49, 0
2, 30422, Control_c, 0, 64, 15
2, 30438, Control_c, 0, 64, 0
2, 30580, Note_on_c, 0, 57, 63
2, 30756, Note_on_c, 0, 71, 81
2, 30883, Note_on_c, 0, 69, 0
2, 30929, Note_on_c, 0, 57, 0
2, 30938, Note_on_c, 0, 56, 57
2, 31129, Note_on_c, 0, 73, 82
2, 31132, Note_on_c, 0, 56, 0
2, 31216, Note_on_c, 0, 71, 0
2, 31332, Note_on_c, 0, 55, 57
2, 31534, Note_on_c, 0, 74, 72
2, 31596, Note_on_c, 0, 73, 0
2, 31601, Note_on_c, 0, 55, 0
2, 31626, Note_on_c, 0, 54, 57
2, 31639, Control_c, 0, 64, 39
2, 31654, Control_c, 0, 64, 58
2, 31669, Control_c, 0, 64, 63
2, 31685, Control_c, 0, 64, 68
2, 31699, Control_c, 0, 64, 79
2, 31705, Note_on_c, 0, 54, 0
2, 31715, Control_c, 0, 64, 100
2, 31730, Control_c, 0, 64, 127
2, 31732, Note_on_c, 0, 55, 51
2, 31741, Note_on_c, 0, 74, 0
2, 31773, Note_on_c, 0, 55, 0
2, 31794, Note_on_c, 0, 57, 58
2, 31896, Note_on_c, 0, 57, 0
2, 31898, Note_on_c, 0, 62, 79
2, 31917, Note_on_c, 0, 58, 62
2, 31928, Control_c, 0, 64, 101
2, 31942, Control_c, 0, 64, 88
2, 31958, Control_c, 0, 64, 78
2, 31973, Control_c, 0, 64, 70
2, 31988, Control_c, 0, 64, 63
2, 32004, Control_c, 0, 64, 54
2, 32018, Control_c, 0, 64, 36
2, 32033, Control_c, 0, 64, 30
2, 32100, Note_on_c, 0, 53, 59
2, 32105, Note_on_c, 0, 58, 0
2, 32284, Note_on_c, 0, 61, 73
2, 32292, Note_on_c, 0, 52, 55
2, 32326, Note_on_c, 0, 53, 0
2, 32422, Note_on_c, 0, 62, 0
2, 32484, Control_c, 0, 64, 31
2, 32491, Note_on_c, 0, 56, 56
2, 32513, Note_on_c, 0, 52, 0
2, 32530, Control_c, 0, 64, 32
2, 32560, Control_c, 0, 64, 32
2, 32575, Control_c, 0, 64, 33
2, 32620, Control_c, 0, 64, 33
2, 32651, Control_c, 0, 64, 34
2, 32666, Note_on_c, 0, 60, 73
2, 32669, Note_on_c, 0, 57, 50
2, 32680, Note_on_c, 0, 56, 0
2, 32681, Control_c, 0, 64, 34
2, 32711, Control_c, 0, 64, 35
2, 32727, Control_c, 0, 64, 35
2, 32772, Control_c, 0, 64, 36
2, 32780, Note_on_c, 0, 61, 0
2, 32787, Control_c, 0, 64, 36
2, 32833, Control_c, 0, 64, 37
2, 32870, Note_on_c, 0, 51, 47
2, 32879, Control_c, 0, 64, 38
2, 32911, Note_on_c, 0, 57, 0
2, 32939, Control_c, 0, 64, 38
2, 33061, Control_c, 0, 64, 39
2, 33065, Note_on_c, 0, 59, 61
2, 33067, Note_on_c, 0, 50, 47
2, 33075, Note_on_c, 0, 51, 0
2, 33151, Note_on_c, 0, 60, 0
2, 33267, Note_on_c, 0, 54, 49
2, 33279, Note_on_c, 0, 50, 0
2, 33452, Note_on_c, 0, 58, 58
2, 33458, Note_on_c, 0, 54, 0
2, 33460, Note_on_c, 0, 55, 44
2, 33508, Note_on_c, 0, 55, 0
2, 33520, Note_on_c, 0, 59, 0
2, 33655, Note_on_c, 0, 49, 42
2, 33829, Control_c, 0, 64, 39
2, 33850, Note_on_c, 0, 57, 52
2, 33852, Control_c, 0, 64, 40
2, 33867, Control_c, 0, 64, 41
2, 33882, Control_c, 0, 64, 44
2, 33892, Note_on_c, 0, 58, 0
2, 33897, Control_c, 0, 64, 46
2, 33912, Control_c, 0, 64, 50
2, 33928, Control_c, 0, 64, 55
2, 33943, Control_c, 0, 64, 58
2, 33959, Control_c, 0, 64, 59
2, 33974, Control_c, 0, 64, 61
2, 33989, Control_c, 0, 64, 61
2, 34004, Control_c, 0, 64, 62
2, 34052, Note_on_c, 0, 50, 45
2, 34072, Note_on_c, 0, 49, 0
2, 34087, Note_on_c, 0, 57, 0
2, 34127, Control_c, 0, 64, 61
2, 34142, Control_c, 0, 64, 61
2, 34172, Control_c, 0, 64, 60
2, 34187, Control_c, 0, 64, 60
2, 34203, Control_c, 0, 64, 59
2, 34218, Control_c, 0, 64, 58
2, 34232, Control_c, 0, 64, 57
2, 34248, Control_c, 0, 64, 56
2, 34252, Note_on_c, 0, 55, 60
2, 34263, Control_c, 0, 64, 55
2, 34278, Control_c, 0, 64, 54
2, 34293, Control_c, 0, 64, 53
2, 34308, Control_c, 0, 64, 52
2, 34324, Control_c, 0, 64, 50
2, 34339, Control_c, 0, 64, 44
2, 34353, Control_c, 0, 64, 34
2, 34369, Control_c, 0, 64, 0
2, 34427, Note_on_c, 0, 52, 42
2, 34470, Note_on_c, 0, 50, 0
2, 34640, Note_on_c, 0, 45, 41
2, 34671, Note_on_c, 0, 52, 0
2, 34695, Control_c, 0, 64, 27
2, 34710, Control_c, 0, 64, 48
2, 34726, Control_c, 0, 64, 54
2, 34741, Control_c, 0, 64, 58
2, 34757, Control_c, 0, 64, 60
2, 34772, Control_c, 0, 64, 62
2, 34775, Note_on_c, 0, 45, 0
2, 34787, Control_c, 0, 64, 63
2, 34803, Control_c, 0, 64, 64
2, 34817, Note_on_c, 0, 55, 0
2, 34818, Control_c, 0, 64, 65
2, 34832, Control_c, 0, 64, 66
2, 34836, Note_on_c, 0, 53, 46
2, 34848, Control_c, 0, 64, 67
2, 34888, Note_on_c, 0, 53, 0
2, 34919, Note_on_c, 0, 52, 43
2, 34971, Control_c, 0, 64, 65
2, 34986, Control_c, 0, 64, 64
2, 34991, Note_on_c, 0, 52, 0
2, 35001, Control_c, 0, 64, 62
2, 35004, Note_on_c, 0, 53, 51
2, 35010, Note_on_c, 0, 50, 49
2, 35016, Control_c, 0, 64, 59
2, 35031, Control_c, 0, 64, 53
2, 35047, Control_c, 0, 64, 45
2, 35061, Control_c, 0, 64, 35
2, 35066, Note_on_c, 0, 53, 0
2, 35077, Control_c, 0, 64, 16
2, 35092, Control_c, 0, 64, 0
2, 35206, Note_on_c, 0, 62, 58
2, 35414, Note_on_c, 0, 52, 50
2, 35493, Note_on_c, 0, 50, 0
2, 35601, Note_on_c, 0, 61, 70
2, 35605, Note_on_c, 0, 62, 0
2, 35723, Control_c, 0, 64, 10
2, 35738, Control_c, 0, 64, 13
2, 35753, Control_c, 0, 64, 15
2, 35768, Control_c, 0, 64, 16
2, 35780, Note_on_c, 0, 69, 62
2, 35783, Control_c, 0, 64, 17
2, 35800, Note_on_c, 0, 54, 50
2, 35814, Control_c, 0, 64, 18
2, 35825, Note_on_c, 0, 61, 0
2, 35829, Control_c, 0, 64, 19
2, 35844, Control_c, 0, 64, 20
2, 35855, Note_on_c, 0, 69, 0
2, 35859, Control_c, 0, 64, 21
2, 35875, Control_c, 0, 64, 22
2, 35890, Control_c, 0, 64, 23
2, 35920, Control_c, 0, 64, 24
2, 35988, Note_on_c, 0, 52, 0
2, 35988, Note_on_c, 0, 60, 71
2, 36175, Note_on_c, 0, 55, 49
2, 36185, Control_c, 0, 64, 20
2, 36201, Control_c, 0, 64, 15
2, 36216, Control_c, 0, 64, 0
2, 36292, Note_on_c, 0, 54, 0
2, 36337, Control_c, 0, 64, 21
2, 36352, Control_c, 0, 64, 49
2, 36368, Control_c, 0, 64, 55
2, 36382, Note_on_c, 0, 59, 61
2, 36383, Control_c, 0, 64, 57
2, 36389, Note_on_c, 0, 60, 0
2, 36399, Control_c, 0, 64, 58
2, 36403, Note_on_c, 0, 55, 0
2, 36414, Control_c, 0, 64, 59
2, 36428, Control_c, 0, 64, 60
2, 36453, Note_on_c, 0, 59, 0
2, 36459, Note_on_c, 0, 57, 68
2, 36535, Note_on_c, 0, 52, 58
2, 36536, Control_c, 0, 64, 59
2, 36539, Note_on_c, 0, 57, 0
2, 36551, Control_c, 0, 64, 58
2, 36551, Note_on_c, 0, 56, 68
2, 36567, Control_c, 0, 64, 56
2, 36582, Control_c, 0, 64, 55
2, 36597, Control_c, 0, 64, 54
2, 36612, Control_c, 0, 64, 53
2, 36627, Control_c, 0, 64, 52
2, 36630, Note_on_c, 0, 56, 0
2, 36643, Control_c, 0, 64, 51
2, 36658, Control_c, 0, 64, 49
2, 36673, Control_c, 0, 64, 45
2, 36688, Control_c, 0, 64, 41
2, 36703, Control_c, 0, 64, 38
2, 36719, Control_c, 0, 64, 34
2, 36734, Control_c, 0, 64, 30
2, 36744, Note_on_c, 0, 64, 75
2, 36749, Control_c, 0, 64, 26
2, 36764, Control_c, 0, 64, 24
2, 36795, Control_c, 0, 64, 24
2, 36809, Control_c, 0, 64, 21
2, 36824, Control_c, 0, 64, 17
2, 36840, Control_c, 0, 64, 12
2, 36855, Control_c, 0, 64, 8
2, 36870, Control_c, 0, 64, 0
2, 36939, Note_on_c, 0, 54, 70
2, 36969, Control_c, 0, 67, 40
2, 36984, Control_c, 0, 64, 8
2, 36984, Control_c, 0, 67, 70
2, 37000, Control_c, 0, 64, 12
2, 37000, Control_c, 0, 67, 88
2, 37014, Control_c, 0, 64, 13
2, 37014, Control_c, 0, 67, 95
2, 37015, Note_on_c, 0, 52, 0
2, 37029, Control_c, 0, 64, 17
2, 37029, Control_c, 0, 67, 97
2, 37045, Control_c, 0, 64, 19
2, 37060, Control_c, 0, 67, 95
2, 37076, Control_c, 0, 67, 92
2, 37090, Control_c, 0, 67, 91
2, 37105, Control_c, 0, 67, 88
2, 37121, Control_c, 0, 67, 83
2, 37131, Note_on_c, 0, 63, 77
2, 37136, Control_c, 0, 67, 76
2, 37150, Control_c, 0, 64, 13
2, 37150, Control_c, 0, 67, 62
2, 37166, Control_c, 0, 64, 12
2, 37166, Control_c, 0, 67, 34
2, 37181, Control_c, 0, 64, 10
2, 37181, Control_c, 0, 67, 0
2, 37197, Note_on_c, 0, 64, 0
2, 37323, Note_on_c, 0, 71, 75
2, 37329, Note_on_c, 0, 56, 56
2, 37360, Note_on_c, 0, 63, 0
2, 37379, Note_on_c, 0, 54, 0
2, 37380, Control_c, 0, 64, 12
2, 37386, Note_on_c, 0, 71, 0
2, 37395, Control_c, 0, 64, 13
2, 37410, Control_c, 0, 64, 16
2, 37425, Control_c, 0, 64, 17
2, 37518, Note_on_c, 0, 62, 68
2, 37532, Control_c, 0, 64, 18
2, 37547, Control_c, 0, 64, 21
2, 37563, Control_c, 0, 64, 21
2, 37577, Control_c, 0, 64, 23
2, 37592, Control_c, 0, 64, 24
2, 37608, Control_c, 0, 64, 26
2, 37623, Control_c, 0, 64, 26
2, 37639, Control_c, 0, 64, 27
2, 37653, Control_c, 0, 64, 28
2, 37668, Control_c, 0, 64, 30
2, 37691, Control_c, 0, 64, 31
2, 37703, Note_on_c, 0, 57, 47
2, 37706, Control_c, 0, 64, 32
2, 37709, Note_on_c, 0, 56, 0
2, 37722, Control_c, 0, 64, 34
2, 37736, Control_c, 0, 64, 35
2, 37738, Note_on_c, 0, 57, 0
2, 37751, Control_c, 0, 64, 37
2, 37767, Control_c, 0, 64, 37
2, 37781, Control_c, 0, 64, 38
2, 37792, Note_on_c, 0, 60, 67
2, 37797, Note_on_c, 0, 62, 0
2, 37827, Control_c, 0, 64, 38
2, 37843, Control_c, 0, 64, 39
2, 37857, Control_c, 0, 64, 39
2, 37889, Note_on_c, 0, 62, 72
2, 37894, Note_on_c, 0, 45, 39
2, 37903, Note_on_c, 0, 60, 0
2, 37933, Control_c, 0, 64, 40
2, 37942, Note_on_c, 0, 45, 0
2, 37983, Note_on_c, 0, 64, 74
2, 38016, Note_on_c, 0, 62, 0
2, 38086, Note_on_c, 0, 65, 78
2, 38099, Note_on_c, 0, 57, 51
2, 38124, Note_on_c, 0, 64, 0
2, 38286, Note_on_c, 0, 60, 78
2, 38340, Note_on_c, 0, 65, 0
2, 38484, Note_on_c, 0, 56, 58
2, 38492, Note_on_c, 0, 59, 74
2, 38538, Note_on_c, 0, 60, 0
2, 38596, Note_on_c, 0, 57, 0
2, 38679, Note_on_c, 0, 63, 80
2, 38773, Note_on_c, 0, 59, 0
2, 38862, Note_on_c, 0, 55, 58
2, 38878, Note_on_c, 0, 64, 79
2, 38939, Note_on_c, 0, 63, 0
2, 38979, Note_on_c, 0, 56, 0
2, 39056, Note_on_c, 0, 58, 76
2, 39113, Note_on_c, 0, 64, 0
2, 39255, Note_on_c, 0, 57, 73
2, 39262, Note_on_c, 0, 54, 53
2, 39334, Note_on_c, 0, 58, 0
2, 39400, Note_on_c, 0, 55, 0
2, 39457, Note_on_c, 0, 61, 73
2, 39553, Note_on_c, 0, 57, 0
2, 39646, Note_on_c, 0, 62, 70
2, 39660, Note_on_c, 0, 53, 51
2, 39692, Note_on_c, 0, 61, 0
2, 39733, Note_on_c, 0, 62, 0
2, 39740, Note_on_c, 0, 54, 0
2, 39839, Note_on_c, 0, 56, 65
2, 39897, Control_c, 0, 64, 39
2, 39958, Control_c, 0, 64, 39
2, 40026, Control_c, 0, 64, 38
2, 40036, Note_on_c, 0, 52, 44
2, 40071, Control_c, 0, 64, 38
2, 40112, Note_on_c, 0, 53, 0
2, 40147, Control_c, 0, 64, 37
2, 40229, Note_on_c, 0, 57, 52
2, 40239, Control_c, 0, 64, 37
2, 40284, Control_c, 0, 64, 36
2, 40291, Note_on_c, 0, 56, 0
2, 40315, Control_c, 0, 64, 36
2, 40330, Control_c, 0, 64, 35
2, 40390, Control_c, 0, 64, 35
2, 40406, Control_c, 0, 64, 34
2, 40421, Control_c, 0, 64, 34
2, 40422, Note_on_c, 0, 50, 43
2, 40466, Control_c, 0, 64, 33
2, 40482, Control_c, 0, 64, 33
2, 40497, Control_c, 0, 64, 32
2, 40512, Control_c, 0, 64, 30
2, 40523, Note_on_c, 0, 52, 0
2, 40527, Control_c, 0, 64, 29
2, 40542, Control_c, 0, 64, 28
2, 40558, Control_c, 0, 64, 24
2, 40573, Control_c, 0, 64, 8
2, 40588, Control_c, 0, 64, 0
2, 40604, Note_on_c, 0, 59, 46
2, 40625, Note_on_c, 0, 57, 0
2, 40817, Note_on_c, 0, 52, 38
2, 40825, Control_c, 0, 64, 36
2, 40826, Note_on_c, 0, 59, 0
2, 40840, Control_c, 0, 64, 53
2, 40855, Control_c, 0, 64, 59
2, 40870, Control_c, 0, 64, 62
2, 40886, Control_c, 0, 64, 65
2, 40901, Control_c, 0, 64, 70
2, 40902, Note_on_c, 0, 52, 0
2, 40916, Control_c, 0, 64, 75
2, 40931, Control_c, 0, 64, 81
2, 40946, Control_c, 0, 64, 87
2, 40961, Control_c, 0, 64, 96
2, 40976, Control_c, 0, 64, 108
2, 40991, Control_c, 0, 64, 127
2, 40991, Note_on_c, 0, 50, 0
2, 41012, Note_on_c, 0, 48, 44
2, 41085, Note_on_c, 0, 48, 0
2, 41120, Note_on_c, 0, 47, 37
2, 41159, Control_c, 0, 64, 105
2, 41166, Note_on_c, 0, 47, 0
2, 41174, Control_c, 0, 64, 93
2, 41182, Note_on_c, 0, 64, 59
2, 41189, Control_c, 0, 64, 85
2, 41189, Note_on_c, 0, 48, 47
2, 41205, Control_c, 0, 64, 78
2, 41220, Control_c, 0, 64, 71
2, 41235, Control_c, 0, 64, 65
2, 41241, Note_on_c, 0, 48, 0
2, 41250, Control_c, 0, 64, 59
2, 41265, Control_c, 0, 64, 44
2, 41281, Control_c, 0, 64, 29
2, 41296, Control_c, 0, 64, 16
2, 41310, Control_c, 0, 64, 0
2, 41398, Note_on_c, 0, 52, 33
2, 41598, Note_on_c, 0, 66, 65
2, 41788, Note_on_c, 0, 51, 48
2, 41798, Note_on_c, 0, 52, 0
2, 41828, Note_on_c, 0, 64, 0
2, 41971, Note_on_c, 0, 68, 73
2, 41976, Note_on_c, 0, 51, 0
2, 42003, Note_on_c, 0, 59, 40
2, 42032, Control_c, 0, 64, 8
2, 42038, Note_on_c, 0, 59, 0
2, 42048, Control_c, 0, 64, 10
2, 42079, Control_c, 0, 64, 13
2, 42087, Note_on_c, 0, 66, 0
2, 42094, Control_c, 0, 64, 16
2, 42109, Control_c, 0, 64, 17
2, 42140, Control_c, 0, 64, 18
2, 42170, Control_c, 0, 64, 19
2, 42184, Note_on_c, 0, 50, 54
2, 42185, Control_c, 0, 64, 21
2, 42201, Control_c, 0, 64, 22
2, 42215, Control_c, 0, 64, 23
2, 42278, Control_c, 0, 64, 24
2, 42315, Control_c, 0, 64, 24
2, 42376, Control_c, 0, 64, 25
2, 42390, Control_c, 0, 64, 26
2, 42390, Note_on_c, 0, 69, 66
2, 42411, Note_on_c, 0, 68, 0
2, 42437, Control_c, 0, 64, 26
2, 42452, Note_on_c, 0, 69, 0
2, 42549, Note_on_c, 0, 50, 0
2, 42571, Note_on_c, 0, 57, 66
2, 42583, Note_on_c, 0, 49, 52
2, 42610, Note_on_c, 0, 57, 0
2, 42635, Control_c, 0, 64, 25
2, 42635, Note_on_c, 0, 49, 0
2, 42649, Control_c, 0, 64, 24
2, 42664, Control_c, 0, 64, 22
2, 42672, Note_on_c, 0, 47, 44
2, 42680, Control_c, 0, 64, 19
2, 42695, Control_c, 0, 64, 13
2, 42710, Control_c, 0, 64, 8
2, 42725, Control_c, 0, 64, 0
2, 42733, Note_on_c, 0, 47, 0
2, 42736, Note_on_c, 0, 49, 53
2, 42744, Note_on_c, 0, 69, 72
2, 42938, Note_on_c, 0, 45, 57
2, 42973, Note_on_c, 0, 49, 0
2, 43045, Control_c, 0, 64, 8
2, 43098, Control_c, 0, 64, 10
2, 43113, Control_c, 0, 64, 12
2, 43129, Control_c, 0, 64, 13
2, 43136, Note_on_c, 0, 47, 60
2, 43182, Note_on_c, 0, 45, 0
2, 43189, Control_c, 0, 64, 15
2, 43323, Note_on_c, 0, 68, 70
2, 43326, Control_c, 0, 64, 16
2, 43341, Control_c, 0, 64, 17
2, 43347, Note_on_c, 0, 69, 0
2, 43418, Control_c, 0, 64, 18
2, 43520, Note_on_c, 0, 76, 66
2, 43530, Note_on_c, 0, 49, 45
2, 43544, Note_on_c, 0, 68, 0
2, 43559, Note_on_c, 0, 76, 0
2, 43574, Note_on_c, 0, 47, 0
2, 43600, Control_c, 0, 64, 19
2, 43705, Control_c, 0, 64, 20
2, 43720, Note_on_c, 0, 67, 65
2, 43721, Control_c, 0, 64, 21
2, 43908, Note_on_c, 0, 49, 0
2, 43909, Note_on_c, 0, 50, 57
2, 43955, Note_on_c, 0, 50, 0
2, 44079, Control_c, 0, 64, 20
2, 44094, Note_on_c, 0, 67, 0
2, 44095, Note_on_c, 0, 66, 59
2, 44104, Note_on_c, 0, 38, 41
2, 44109, Control_c, 0, 64, 19
2, 44125, Control_c, 0, 64, 16
2, 44136, Note_on_c, 0, 38, 0
2, 44139, Control_c, 0, 64, 15
2, 44155, Control_c, 0, 64, 12
2, 44167, Note_on_c, 0, 66, 0
2, 44170, Control_c, 0, 64, 10
2, 44185, Control_c, 0, 64, 8
2, 44189, Note_on_c, 0, 64, 60
2, 44201, Control_c, 0, 64, 0
2, 44293, Note_on_c, 0, 66, 68
2, 44294, Note_on_c, 0, 64, 0
2, 44306, Note_on_c, 0, 50, 46
2, 44488, Note_on_c, 0, 62, 70
2, 44535, Note_on_c, 0, 66, 0
2, 44690, Note_on_c, 0, 64, 78
2, 44769, Note_on_c, 0, 62, 0
2, 44876, Note_on_c, 0, 49, 56
2, 45014, Note_on_c, 0, 50, 0
2, 45066, Note_on_c, 0, 66, 73
2, 45073, Control_c, 0, 64, 8
2, 45075, Note_on_c, 0, 57, 55
2, 45088, Note_on_c, 0, 49, 0
2, 45089, Control_c, 0, 64, 10
2, 45103, Control_c, 0, 64, 12
2, 45117, Note_on_c, 0, 57, 0
2, 45119, Control_c, 0, 64, 13
2, 45134, Control_c, 0, 64, 15
2, 45136, Note_on_c, 0, 64, 0
2, 45149, Control_c, 0, 64, 16
2, 45165, Control_c, 0, 64, 17
2, 45210, Control_c, 0, 64, 18
2, 45255, Control_c, 0, 64, 19
2, 45258, Note_on_c, 0, 48, 57
2, 45286, Control_c, 0, 64, 20
2, 45332, Control_c, 0, 64, 21
2, 45347, Control_c, 0, 64, 21
2, 45370, Control_c, 0, 64, 22
2, 45384, Control_c, 0, 64, 24
2, 45400, Control_c, 0, 64, 26
2, 45415, Control_c, 0, 64, 29
2, 45430, Control_c, 0, 64, 34
2, 45446, Control_c, 0, 64, 38
2, 45457, Note_on_c, 0, 66, 0
2, 45458, Note_on_c, 0, 67, 61
2, 45460, Control_c, 0, 64, 40
2, 45476, Control_c, 0, 64, 42
2, 45491, Control_c, 0, 64, 43
2, 45498, Note_on_c, 0, 67, 0
2, 45507, Control_c, 0, 64, 44
2, 45523, Control_c, 0, 64, 44
2, 45538, Control_c, 0, 64, 45
2, 45553, Control_c, 0, 64, 45
2, 45631, Note_on_c, 0, 48, 0
2, 45644, Note_on_c, 0, 55, 59
2, 45646, Note_on_c, 0, 47, 53
2, 45679, Note_on_c, 0, 55, 0
2, 45720, Note_on_c, 0, 47, 0
2, 45740, Note_on_c, 0, 45, 51
2, 45750, Control_c, 0, 64, 45
2, 45766, Control_c, 0, 64, 44
2, 45781, Control_c, 0, 64, 43
2, 45797, Control_c, 0, 64, 43
2, 45812, Control_c, 0, 64, 42
2, 45826, Control_c, 0, 64, 41
2, 45827, Note_on_c, 0, 67, 70
2, 45830, Note_on_c, 0, 45, 0
2, 45842, Control_c, 0, 64, 41
2, 45846, Note_on_c, 0, 47, 56
2, 45857, Control_c, 0, 64, 40
2, 45872, Control_c, 0, 64, 39
2, 45888, Control_c, 0, 64, 39
2, 45902, Control_c, 0, 64, 38
2, 45933, Control_c, 0, 64, 37
2, 45947, Control_c, 0, 64, 37
2, 45963, Control_c, 0, 64, 35
2, 45978, Control_c, 0, 64, 33
2, 45993, Control_c, 0, 64, 30
2, 46009, Control_c, 0, 64, 28
2, 46018, Note_on_c, 0, 43, 57
2, 46023, Control_c, 0, 64, 26
2, 46039, Control_c, 0, 64, 24
2, 46054, Control_c, 0, 64, 22
2, 46069, Control_c, 0, 64, 17
2, 46079, Note_on_c, 0, 47, 0
2, 46085, Control_c, 0, 64, 10
2, 46099, Control_c, 0, 64, 0
2, 46238, Note_on_c, 0, 45, 64
2, 46283, Note_on_c, 0, 43, 0
2, 46437, Note_on_c, 0, 66, 73
2, 46449, Note_on_c, 0, 67, 0
2, 46644, Note_on_c, 0, 74, 66
2, 46665, Note_on_c, 0, 47, 54
2, 46683, Note_on_c, 0, 66, 0
2, 46721, Note_on_c, 0, 74, 0
2, 46746, Note_on_c, 0, 45, 0
2, 46747, Control_c, 0, 64, 24
2, 46763, Control_c, 0, 64, 33
2, 46778, Control_c, 0, 64, 39
2, 46792, Control_c, 0, 64, 43
2, 46808, Control_c, 0, 64, 47
2, 46823, Control_c, 0, 64, 49
2, 46839, Control_c, 0, 64, 51
2, 46839, Note_on_c, 0, 65, 68
2, 46854, Control_c, 0, 64, 52
2, 46868, Control_c, 0, 64, 53
2, 46884, Control_c, 0, 64, 53
2, 46992, Note_on_c, 0, 47, 0
2, 47002, Note_on_c, 0, 48, 50
2, 47028, Control_c, 0, 64, 52
2, 47047, Note_on_c, 0, 48, 0
2, 47059, Control_c, 0, 64, 51
2, 47073, Control_c, 0, 64, 51
2, 47078, Note_on_c, 0, 50, 48
2, 47089, Control_c, 0, 64, 50
2, 47104, Control_c, 0, 64, 49
2, 47116, Note_on_c, 0, 65, 0
2, 47120, Control_c, 0, 64, 47
2, 47124, Note_on_c, 0, 50, 0
2, 47135, Control_c, 0, 64, 44
2, 47139, Note_on_c, 0, 48, 52
2, 47145, Note_on_c, 0, 64, 54
2, 47151, Control_c, 0, 64, 40
2, 47166, Control_c, 0, 64, 27
2, 47181, Control_c, 0, 64, 0
2, 47231, Note_on_c, 0, 64, 0
2, 47248, Note_on_c, 0, 62, 62
2, 47343, Note_on_c, 0, 62, 0
2, 47367, Note_on_c, 0, 64, 71
2, 47378, Control_c, 0, 64, 49
2, 47393, Control_c, 0, 64, 60
2, 47409, Control_c, 0, 64, 64
2, 47424, Control_c, 0, 64, 69
2, 47439, Control_c, 0, 64, 80
2, 47452, Note_on_c, 0, 64, 0
2, 47454, Control_c, 0, 64, 98
2, 47469, Control_c, 0, 64, 127
2, 47565, Note_on_c, 0, 76, 74
2, 47570, Note_on_c, 0, 47, 50
2, 47573, Note_on_c, 0, 48, 0
2, 47652, Control_c, 0, 64, 81
2, 47675, Control_c, 0, 64, 63
2, 47690, Control_c, 0, 64, 0
2, 47698, Note_on_c, 0, 47, 0
2, 47719, Note_on_c, 0, 45, 49
2, 47766, Control_c, 0, 64, 27
2, 47781, Control_c, 0, 64, 57
2, 47796, Control_c, 0, 64, 64
2, 47811, Control_c, 0, 64, 69
2, 47826, Control_c, 0, 64, 78
2, 47842, Control_c, 0, 64, 92
2, 47845, Note_on_c, 0, 45, 0
2, 47857, Control_c, 0, 64, 127
2, 47906, Note_on_c, 0, 53, 50
2, 48008, Note_on_c, 0, 53, 0
2, 48031, Note_on_c, 0, 55, 32
2, 48108, Note_on_c, 0, 53, 42
2, 48113, Note_on_c, 0, 55, 0
2, 48139, Note_on_c, 0, 77, 65
2, 48159, Note_on_c, 0, 76, 0
2, 48190, Note_on_c, 0, 53, 0
2, 48203, Note_on_c, 0, 55, 47
2, 48252, Note_on_c, 0, 76, 73
2, 48270, Note_on_c, 0, 53, 38
2, 48276, Note_on_c, 0, 77, 0
2, 48318, Note_on_c, 0, 53, 0
2, 48337, Note_on_c, 0, 74, 73
2, 48359, Note_on_c, 0, 76, 0
2, 48399, Note_on_c, 0, 55, 0
2, 48402, Note_on_c, 0, 53, 54
2, 48443, Note_on_c, 0, 72, 77
2, 48449, Note_on_c, 0, 74, 0
2, 48466, Note_on_c, 0, 53, 0
2, 48472, Control_c, 0, 64, 117
2, 48487, Control_c, 0, 64, 107
2, 48499, Note_on_c, 0, 55, 57
2, 48502, Control_c, 0, 64, 100
2, 48515, Note_on_c, 0, 72, 0
2, 48518, Control_c, 0, 64, 93
2, 48530, Note_on_c, 0, 71, 76
2, 48533, Control_c, 0, 64, 85
2, 48539, Note_on_c, 0, 55, 0
2, 48548, Control_c, 0, 64, 77
2, 48564, Control_c, 0, 64, 70
2, 48564, Note_on_c, 0, 53, 60
2, 48579, Control_c, 0, 64, 64
2, 48595, Control_c, 0, 64, 57
2, 48609, Control_c, 0, 64, 43
2, 48618, Note_on_c, 0, 71, 0
2, 48624, Control_c, 0, 64, 34
2, 48627, Note_on_c, 0, 69, 68
2, 48640, Control_c, 0, 64, 27
2, 48655, Control_c, 0, 64, 8
2, 48670, Control_c, 0, 64, 0
2, 48705, Note_on_c, 0, 53, 0
2, 48724, Note_on_c, 0, 52, 47
2, 48820, Note_on_c, 0, 68, 70
2, 48876, Note_on_c, 0, 69, 0
2, 48997, Note_on_c, 0, 64, 56
2, 49036, Control_c, 0, 64, 55
2, 49050, Note_on_c, 0, 52, 0
2, 49051, Control_c, 0, 64, 62
2, 49065, Control_c, 0, 64, 65
2, 49081, Control_c, 0, 64, 70
2, 49096, Control_c, 0, 64, 77
2, 49110, Note_on_c, 0, 62, 62
2, 49110, Note_on_c, 0, 64, 0
2, 49111, Control_c, 0, 64, 86
2, 49126, Control_c, 0, 64, 99
2, 49141, Control_c, 0, 64, 118
2, 49157, Control_c, 0, 64, 127
2, 49232, Note_on_c, 0, 62, 0
2, 49237, Note_on_c, 0, 60, 67
2, 49302, Control_c, 0, 64, 118
2, 49318, Control_c, 0, 64, 103
2, 49332, Control_c, 0, 64, 96
2, 49344, Note_on_c, 0, 60, 0
2, 49347, Control_c, 0, 64, 90
2, 49350, Note_on_c, 0, 59, 65
2, 49363, Control_c, 0, 64, 85
2, 49378, Control_c, 0, 64, 77
2, 49393, Control_c, 0, 64, 69
2, 49408, Control_c, 0, 64, 60
2, 49416, Note_on_c, 0, 59, 0
2, 49423, Control_c, 0, 64, 28
2, 49439, Control_c, 0, 64, 0
2, 49451, Note_on_c, 0, 57, 63
2, 49535, Note_on_c, 0, 57, 0
2, 49551, Note_on_c, 0, 56, 62
2, 49645, Note_on_c, 0, 56, 0
2, 49662, Note_on_c, 0, 54, 57
2, 49773, Note_on_c, 0, 54, 0
2, 49813, Note_on_c, 0, 52, 41
2, 50055, Control_c, 0, 64, 30
2, 50070, Control_c, 0, 64, 43
2, 50086, Control_c, 0, 64, 51
2, 50086, Note_on_c, 0, 52, 0
2, 50101, Control_c, 0, 64, 54
2, 50117, Control_c, 0, 64, 56
2, 50131, Control_c, 0, 64, 58
2, 50146, Control_c, 0, 64, 58
2, 50162, Control_c, 0, 64, 59
2, 50176, Control_c, 0, 64, 59
2, 50328, Control_c, 0, 64, 59
2, 50343, Control_c, 0, 64, 58
2, 50347, Note_on_c, 0, 40, 27
2, 50373, Control_c, 0, 64, 58
2, 50388, Control_c, 0, 64, 57
2, 50404, Control_c, 0, 64, 57
2, 50419, Control_c, 0, 64, 55
2, 50436, Control_c, 0, 64, 53
2, 50451, Control_c, 0, 64, 50
2, 50466, Control_c, 0, 64, 44
2, 50481, Control_c, 0, 64, 18
2, 50496, Control_c, 0, 64, 0
2, 50618, Control_c, 0, 64, 15
2, 50633, Control_c, 0, 64, 47
2, 50649, Control_c, 0, 64, 54
2, 50664, Control_c, 0, 64, 57
2, 50679, Control_c, 0, 64, 60
2, 50694, Control_c, 0, 64, 63
2, 50709, Control_c, 0, 64, 67
2, 50725, Control_c, 0, 64, 72
2, 50747, Control_c, 0, 64, 76
2, 50762, Control_c, 0, 64, 78
2, 50777, Control_c, 0, 64, 79
2, 50945, Note_on_c, 0, 40, 0
2, 51066, Control_c, 0, 64, 79
2, 51082, Control_c, 0, 64, 78
2, 51096, Control_c, 0, 64, 78
2, 51111, Control_c, 0, 64, 77
2, 51127, Control_c, 0, 64, 76
2, 51142, Control_c, 0, 64, 76
2, 51158, Control_c, 0, 64, 75
2, 51172, Control_c, 0, 64, 73
2, 51187, Control_c, 0, 64, 71
2, 51203, Control_c, 0, 64, 68
2, 51217, Control_c, 0, 64, 65
2, 51231, Note_on_c, 0, 68, 0
2, 51232, Control_c, 0, 64, 61
2, 51249, Control_c, 0, 64, 55
2, 51264, Control_c, 0, 64, 50
2, 51280, Control_c, 0, 64, 48
2, 51295, Control_c, 0, 64, 47
2, 51310, Control_c, 0, 64, 45
2, 51325, Control_c, 0, 64, 40
2, 51340, Control_c, 0, 64, 31
2, 51356, Control_c, 0, 64, 0
2, 51621, Control_c, 0, 64, 39
2, 51637, Control_c, 0, 64, 51
2, 51652, Control_c, 0, 64, 55
2, 51666, Control_c, 0, 64, 58
2, 51682, Control_c, 0, 64, 61
2, 51697, Control_c, 0, 64, 63
2, 51712, Control_c, 0, 64, 64
2, 51728, Control_c, 0, 64, 67
2, 51743, Control_c, 0, 64, 71
2, 51759, Control_c, 0, 64, 75
2, 51774, Control_c, 0, 64, 78
2, 51789, Control_c, 0, 64, 82
2, 51804, Control_c, 0, 64, 84
2, 51819, Control_c, 0, 64, 87
2, 51835, Control_c, 0, 64, 89
2, 51850, Control_c, 0, 64, 91
2, 51864, Control_c, 0, 64, 92
2, 51884, Note_on_c, 0, 76, 45
2, 51956, Note_on_c, 0, 60, 42
2, 52015, Note_on_c, 0, 60, 0
2, 52047, Control_c, 0, 64, 92
2, 52053, Note_on_c, 0, 59, 35
2, 52063, Control_c, 0, 64, 90
2, 52070, Note_on_c, 0, 76, 0
2, 52079, Control_c, 0, 64, 87
2, 52093, Control_c, 0, 64, 84
2, 52107, Note_on_c, 0, 59, 0
2, 52108, Control_c, 0, 64, 81
2, 52124, Control_c, 0, 64, 78
2, 52137, Note_on_c, 0, 57, 46
2, 52139, Control_c, 0, 64, 75
2, 52155, Control_c, 0, 64, 72
2, 52169, Control_c, 0, 64, 68
2, 52184, Control_c, 0, 64, 63
2, 52200, Control_c, 0, 64, 54
2, 52215, Control_c, 0, 64, 45
2, 52230, Control_c, 0, 64, 42
2, 52233, Note_on_c, 0, 57, 0
2, 52245, Control_c, 0, 64, 41
2, 52249, Note_on_c, 0, 56, 36
2, 52268, Control_c, 0, 64, 39
2, 52270, Note_on_c, 0, 64, 52
2, 52284, Control_c, 0, 64, 35
2, 52298, Control_c, 0, 64, 31
2, 52313, Control_c, 0, 64, 27
2, 52329, Control_c, 0, 64, 26
2, 52344, Control_c, 0, 64, 24
2, 52473, Note_on_c, 0, 61, 49
2, 52541, Note_on_c, 0, 56, 0
2, 52657, Note_on_c, 0, 62, 49
2, 52663, Control_c, 0, 64, 25
2, 52663, Note_on_c, 0, 65, 59
2, 52679, Control_c, 0, 64, 26
2, 52755, Control_c, 0, 64, 26
2, 52761, Note_on_c, 0, 61, 0
2, 52770, Control_c, 0, 64, 27
2, 52800, Control_c, 0, 64, 27
2, 52845, Control_c, 0, 64, 28
2, 52855, Note_on_c, 0, 58, 51
2, 52855, Note_on_c, 0, 64, 0
2, 52876, Control_c, 0, 64, 28
2, 52892, Control_c, 0, 64, 29
2, 52923, Control_c, 0, 64, 29
2, 52952, Control_c, 0, 64, 30
2, 52983, Control_c, 0, 64, 30
2, 52997, Note_on_c, 0, 62, 0
2, 52999, Control_c, 0, 64, 31
2, 53065, Note_on_c, 0, 66, 69
2, 53083, Note_on_c, 0, 57, 47
2, 53111, Note_on_c, 0, 58, 0
2, 53112, Control_c, 0, 64, 31
2, 53186, Note_on_c, 0, 65, 0
2, 53272, Note_on_c, 0, 63, 58
2, 53325, Control_c, 0, 64, 32
2, 53385, Control_c, 0, 64, 32
2, 53410, Note_on_c, 0, 57, 0
2, 53416, Control_c, 0, 64, 33
2, 53458, Note_on_c, 0, 64, 60
2, 53467, Note_on_c, 0, 67, 71
2, 53492, Control_c, 0, 64, 33
2, 53547, Note_on_c, 0, 66, 0
2, 53600, Note_on_c, 0, 63, 0
2, 53660, Note_on_c, 0, 60, 61
2, 53724, Note_on_c, 0, 64, 0
2, 53864, Note_on_c, 0, 68, 72
2, 53876, Note_on_c, 0, 59, 59
2, 53897, Note_on_c, 0, 60, 0
2, 53922, Note_on_c, 0, 59, 0
2, 53969, Note_on_c, 0, 67, 0
2, 54056, Note_on_c, 0, 65, 67
2, 54247, Note_on_c, 0, 69, 73
2, 54351, Note_on_c, 0, 68, 0
2, 54396, Control_c, 0, 64, 34
2, 54426, Control_c, 0, 64, 35
2, 54461, Note_on_c, 0, 64, 62
2, 54471, Control_c, 0, 64, 35
2, 54502, Control_c, 0, 64, 36
2, 54519, Control_c, 0, 64, 36
2, 54596, Note_on_c, 0, 65, 0
2, 54632, Control_c, 0, 64, 30
2, 54647, Note_on_c, 0, 71, 75
2, 54648, Control_c, 0, 64, 0
2, 54730, Note_on_c, 0, 69, 0
2, 54829, Control_c, 0, 64, 41
2, 54845, Control_c, 0, 64, 63
2, 54846, Note_on_c, 0, 62, 52
2, 54860, Control_c, 0, 64, 69
2, 54860, Note_on_c, 0, 64, 0
2, 54876, Control_c, 0, 64, 83
2, 54891, Control_c, 0, 64, 127
2, 54901, Note_on_c, 0, 62, 0
2, 54909, Note_on_c, 0, 71, 0
2, 55045, Note_on_c, 0, 72, 59
2, 55066, Note_on_c, 0, 69, 45
2, 55122, Note_on_c, 0, 72, 0
2, 55143, Note_on_c, 0, 77, 64
2, 55179, Control_c, 0, 64, 105
2, 55195, Control_c, 0, 64, 81
2, 55210, Control_c, 0, 64, 67
2, 55225, Control_c, 0, 64, 51
2, 55227, Note_on_c, 0, 76, 68
2, 55240, Control_c, 0, 64, 0
2, 55248, Note_on_c, 0, 77, 0
2, 55319, Note_on_c, 0, 74, 70
2, 55342, Note_on_c, 0, 76, 0
2, 55425, Note_on_c, 0, 57, 53
2, 55426, Note_on_c, 0, 73, 79
2, 55428, Note_on_c, 0, 74, 0
2, 55624, Note_on_c, 0, 78, 80
2, 55698, Note_on_c, 0, 73, 0
2, 55807, Note_on_c, 0, 79, 79
2, 55815, Note_on_c, 0, 58, 56
2, 55850, Note_on_c, 0, 78, 0
2, 55911, Note_on_c, 0, 69, 0
2, 55917, Control_c, 0, 64, 15
2, 55932, Control_c, 0, 64, 17
2, 55947, Control_c, 0, 64, 18
2, 55981, Note_on_c, 0, 57, 0
2, 56006, Note_on_c, 0, 75, 76
2, 56028, Note_on_c, 0, 79, 0
2, 56083, Control_c, 0, 64, 19
2, 56098, Control_c, 0, 64, 20
2, 56199, Control_c, 0, 64, 22
2, 56205, Note_on_c, 0, 74, 73
2, 56211, Note_on_c, 0, 59, 60
2, 56214, Control_c, 0, 64, 23
2, 56254, Note_on_c, 0, 58, 0
2, 56254, Note_on_c, 0, 75, 0
2, 56381, Control_c, 0, 64, 24
2, 56403, Note_on_c, 0, 80, 78
2, 56478, Note_on_c, 0, 74, 0
2, 56488, Control_c, 0, 64, 25
2, 56503, Control_c, 0, 64, 26
2, 56518, Control_c, 0, 64, 27
2, 56533, Control_c, 0, 64, 28
2, 56564, Control_c, 0, 64, 29
2, 56592, Note_on_c, 0, 81, 81
2, 56593, Control_c, 0, 64, 29
2, 56598, Note_on_c, 0, 60, 58
2, 56609, Control_c, 0, 64, 30
2, 56624, Control_c, 0, 64, 32
2, 56629, Note_on_c, 0, 59, 0
2, 56640, Control_c, 0, 64, 32
2, 56657, Note_on_c, 0, 80, 0
2, 56700, Control_c, 0, 64, 33
2, 56716, Control_c, 0, 64, 33
2, 56730, Control_c, 0, 64, 34
2, 56797, Note_on_c, 0, 77, 79
2, 56842, Note_on_c, 0, 81, 0
2, 56950, Control_c, 0, 64, 35
2, 56966, Control_c, 0, 64, 37
2, 56982, Control_c, 0, 64, 39
2, 56992, Note_on_c, 0, 76, 73
2, 56998, Control_c, 0, 64, 43
2, 56999, Note_on_c, 0, 61, 58
2, 57013, Control_c, 0, 64, 46
2, 57017, Note_on_c, 0, 60, 0
2, 57025, Note_on_c, 0, 77, 0
2, 57028, Control_c, 0, 64, 50
2, 57043, Control_c, 0, 64, 53
2, 57058, Control_c, 0, 64, 56
2, 57073, Control_c, 0, 64, 58
2, 57084, Note_on_c, 0, 76, 0
2, 57088, Control_c, 0, 64, 59
2, 57193, Note_on_c, 0, 82, 83
2, 57270, Control_c, 0, 64, 58
2, 57286, Control_c, 0, 64, 58
2, 57301, Control_c, 0, 64, 57
2, 57380, Note_on_c, 0, 62, 57
2, 57392, Control_c, 0, 64, 57
2, 57500, Note_on_c, 0, 61, 0
2, 57560, Control_c, 0, 64, 56
2, 57582, Note_on_c, 0, 81, 79
2, 57620, Control_c, 0, 64, 56
2, 57636, Control_c, 0, 64, 55
2, 57658, Control_c, 0, 64, 53
2, 57661, Note_on_c, 0, 82, 0
2, 57673, Control_c, 0, 64, 48
2, 57689, Control_c, 0, 64, 30
2, 57703, Control_c, 0, 64, 0
2, 57757, Note_on_c, 0, 64, 56
2, 57809, Note_on_c, 0, 62, 0
2, 57872, Control_c, 0, 64, 29
2, 57887, Control_c, 0, 64, 60
2, 57902, Control_c, 0, 64, 66
2, 57918, Control_c, 0, 64, 77
2, 57932, Control_c, 0, 64, 96
2, 57941, Note_on_c, 0, 79, 76
2, 57947, Control_c, 0, 64, 127
2, 58009, Note_on_c, 0, 81, 0
2, 58077, Note_on_c, 0, 79, 0
2, 58154, Note_on_c, 0, 65, 44
2, 58187, Note_on_c, 0, 81, 73
2, 58253, Note_on_c, 0, 64, 0
2, 58284, Note_on_c, 0, 79, 76
2, 58297, Control_c, 0, 64, 120
2, 58312, Control_c, 0, 64, 98
2, 58320, Note_on_c, 0, 81, 0
2, 58328, Control_c, 0, 64, 84
2, 58342, Control_c, 0, 64, 75
2, 58358, Control_c, 0, 64, 68
2, 58364, Note_on_c, 0, 77, 79
2, 58373, Control_c, 0, 64, 62
2, 58376, Note_on_c, 0, 79, 0
2, 58388, Control_c, 0, 64, 52
2, 58404, Control_c, 0, 64, 40
2, 58426, Control_c, 0, 64, 37
2, 58445, Note_on_c, 0, 77, 0
2, 58450, Note_on_c, 0, 76, 78
2, 58457, Control_c, 0, 64, 37
2, 58554, Note_on_c, 0, 77, 76
2, 58558, Note_on_c, 0, 62, 52
2, 58578, Note_on_c, 0, 76, 0
2, 58638, Note_on_c, 0, 65, 0
2, 58641, Control_c, 0, 64, 36
2, 58655, Control_c, 0, 64, 35
2, 58740, Note_on_c, 0, 70, 70
2, 58776, Control_c, 0, 64, 34
2, 58797, Note_on_c, 0, 77, 0
2, 58807, Control_c, 0, 64, 34
2, 58928, Note_on_c, 0, 60, 53
2, 58937, Note_on_c, 0, 69, 63
2, 58974, Note_on_c, 0, 70, 0
2, 59010, Note_on_c, 0, 62, 0
2, 59111, Control_c, 0, 64, 33
2, 59120, Note_on_c, 0, 76, 72
2, 59157, Control_c, 0, 64, 32
2, 59202, Note_on_c, 0, 69, 0
2, 59320, Note_on_c, 0, 74, 62
2, 59332, Note_on_c, 0, 59, 42
2, 59344, Note_on_c, 0, 76, 0
2, 59397, Note_on_c, 0, 74, 0
2, 59474, Note_on_c, 0, 60, 0
2, 59524, Note_on_c, 0, 68, 62
2, 59530, Control_c, 0, 64, 27
2, 59545, Control_c, 0, 64, 0
2, 59689, Note_on_c, 0, 57, 27
2, 59727, Control_c, 0, 64, 45
2, 59742, Control_c, 0, 64, 55
2, 59757, Note_on_c, 0, 68, 0
2, 59758, Control_c, 0, 64, 59
2, 59772, Control_c, 0, 64, 62
2, 59787, Control_c, 0, 64, 64
2, 59787, Note_on_c, 0, 59, 0
2, 59794, Note_on_c, 0, 74, 56
2, 59803, Control_c, 0, 64, 69
2, 59817, Control_c, 0, 64, 75
2, 59832, Control_c, 0, 64, 79
2, 59848, Control_c, 0, 64, 81
2, 59863, Control_c, 0, 64, 81
2, 59872, Note_on_c, 0, 74, 0
2, 59876, Note_on_c, 0, 72, 60
2, 59924, Note_on_c, 0, 57, 0
2, 59940, Control_c, 0, 64, 81
2, 59963, Control_c, 0, 64, 80
2, 59966, Note_on_c, 0, 72, 0
2, 59973, Note_on_c, 0, 71, 58
2, 59978, Control_c, 0, 64, 78
2, 59992, Control_c, 0, 64, 74
2, 60008, Control_c, 0, 64, 71
2, 60023, Control_c, 0, 64, 67
2, 60034, Note_on_c, 0, 71, 0
2, 60038, Control_c, 0, 64, 62
2, 60050, Note_on_c, 0, 60, 48
2, 60053, Control_c, 0, 64, 55
2, 60060, Note_on_c, 0, 69, 51
2, 60068, Control_c, 0, 64, 43
2, 60084, Control_c, 0, 64, 34
2, 60099, Control_c, 0, 64, 29
2, 60114, Control_c, 0, 64, 28
2, 60129, Control_c, 0, 64, 28
2, 60160, Control_c, 0, 64, 27
2, 60242, Note_on_c, 0, 76, 55
2, 60272, Note_on_c, 0, 69, 0
2, 60434, Note_on_c, 0, 59, 39
2, 60442, Note_on_c, 0, 74, 56
2, 60464, Note_on_c, 0, 76, 0
2, 60512, Note_on_c, 0, 60, 0
2, 60604, Note_on_c, 0, 74, 0
2, 60632, Note_on_c, 0, 67, 44
2, 60827, Note_on_c, 0, 66, 51
2, 60827, Note_on_c, 0, 67, 0
2, 60854, Note_on_c, 0, 57, 39
2, 60912, Control_c, 0, 64, 28
2, 60926, Note_on_c, 0, 59, 0
2, 60928, Control_c, 0, 64, 28
2, 61019, Note_on_c, 0, 66, 0
2, 61022, Note_on_c, 0, 72, 48
2, 61126, Control_c, 0, 64, 13
2, 61141, Control_c, 0, 64, 0
2, 61166, Note_on_c, 0, 57, 0
2, 61188, Note_on_c, 0, 55, 38
2, 61206, Note_on_c, 0, 72, 0
2, 61215, Note_on_c, 0, 71, 51
2, 61279, Control_c, 0, 64, 48
2, 61292, Note_on_c, 0, 55, 0
2, 61294, Control_c, 0, 64, 60
2, 61308, Control_c, 0, 64, 63
2, 61314, Note_on_c, 0, 59, 40
2, 61324, Control_c, 0, 64, 66
2, 61339, Control_c, 0, 64, 69
2, 61339, Note_on_c, 0, 71, 0
2, 61354, Control_c, 0, 64, 75
2, 61370, Control_c, 0, 64, 80
2, 61374, Note_on_c, 0, 59, 0
2, 61384, Control_c, 0, 64, 82
2, 61392, Note_on_c, 0, 60, 51
2, 61469, Note_on_c, 0, 60, 0
2, 61501, Note_on_c, 0, 62, 54
2, 61529, Control_c, 0, 64, 82
2, 61544, Control_c, 0, 64, 81
2, 61547, Note_on_c, 0, 79, 74
2, 61560, Control_c, 0, 64, 80
2, 61575, Control_c, 0, 64, 79
2, 61589, Control_c, 0, 64, 77
2, 61605, Control_c, 0, 64, 76
2, 61620, Control_c, 0, 64, 74
2, 61626, Note_on_c, 0, 62, 0
2, 61636, Control_c, 0, 64, 72
2, 61640, Note_on_c, 0, 64, 52
2, 61650, Control_c, 0, 64, 71
2, 61665, Control_c, 0, 64, 68
2, 61681, Control_c, 0, 64, 65
2, 61696, Control_c, 0, 64, 60
2, 61711, Control_c, 0, 64, 49
2, 61726, Control_c, 0, 64, 41
2, 61741, Control_c, 0, 64, 38
2, 61757, Control_c, 0, 64, 36
2, 61771, Note_on_c, 0, 64, 0
2, 61772, Control_c, 0, 64, 32
2, 61776, Note_on_c, 0, 58, 50
2, 61787, Control_c, 0, 64, 22
2, 61802, Control_c, 0, 64, 0
2, 61954, Note_on_c, 0, 77, 78
2, 61969, Note_on_c, 0, 58, 0
2, 61970, Note_on_c, 0, 57, 38
2, 62101, Note_on_c, 0, 79, 0
2, 62165, Note_on_c, 0, 62, 52
2, 62244, Control_c, 0, 64, 23
2, 62266, Control_c, 0, 64, 35
2, 62282, Control_c, 0, 64, 38
2, 62312, Control_c, 0, 64, 39
2, 62326, Note_on_c, 0, 62, 0
2, 62328, Control_c, 0, 64, 40
2, 62339, Note_on_c, 0, 57, 0
2, 62343, Control_c, 0, 64, 40
2, 62359, Control_c, 0, 64, 41
2, 62362, Note_on_c, 0, 61, 55
2, 62367, Note_on_c, 0, 76, 73
2, 62413, Note_on_c, 0, 61, 0
2, 62477, Note_on_c, 0, 77, 0
2, 62540, Control_c, 0, 64, 38
2, 62556, Control_c, 0, 64, 28
2, 62567, Note_on_c, 0, 55, 50
2, 62570, Control_c, 0, 64, 0
2, 62719, Note_on_c, 0, 55, 0
2, 62740, Note_on_c, 0, 74, 62
2, 62753, Control_c, 0, 64, 46
2, 62769, Control_c, 0, 64, 61
2, 62784, Control_c, 0, 64, 66
2, 62799, Control_c, 0, 64, 75
2, 62805, Note_on_c, 0, 76, 0
2, 62814, Control_c, 0, 64, 95
2, 62829, Control_c, 0, 64, 127
2, 62832, Note_on_c, 0, 67, 57
2, 62896, Note_on_c, 0, 67, 0
2, 62910, Note_on_c, 0, 65, 61
2, 63012, Note_on_c, 0, 65, 0
2, 63013, Note_on_c, 0, 64, 72
2, 63096, Control_c, 0, 64, 88
2, 63096, Note_on_c, 0, 77, 74
2, 63111, Control_c, 0, 64, 72
2, 63120, Note_on_c, 0, 62, 69
2, 63126, Control_c, 0, 64, 62
2, 63141, Control_c, 0, 64, 43
2, 63141, Note_on_c, 0, 64, 0
2, 63157, Control_c, 0, 64, 0
2, 63168, Note_on_c, 0, 74, 0
2, 63295, Note_on_c, 0, 68, 76
2, 63398, Note_on_c, 0, 62, 0
2, 63512, Note_on_c, 0, 76, 73
2, 63517, Note_on_c, 0, 69, 67
2, 63566, Note_on_c, 0, 68, 0
2, 63633, Note_on_c, 0, 77, 0
2, 63713, Note_on_c, 0, 60, 65
2, 63781, Note_on_c, 0, 69, 0
2, 63912, Note_on_c, 0, 59, 53
2, 63912, Note_on_c, 0, 60, 0
2, 63912, Note_on_c, 0, 74, 67
2, 63972, Note_on_c, 0, 76, 0
2, 64078, Note_on_c, 0, 59, 0
2, 64089, Control_c, 0, 64, 31
2, 64102, Note_on_c, 0, 65, 54
2, 64104, Control_c, 0, 64, 55
2, 64119, Control_c, 0, 64, 62
2, 64134, Control_c, 0, 64, 65
2, 64149, Control_c, 0, 64, 69
2, 64150, Note_on_c, 0, 65, 0
2, 64165, Control_c, 0, 64, 75
2, 64179, Control_c, 0, 64, 82
2, 64194, Control_c, 0, 64, 88
2, 64210, Control_c, 0, 64, 93
2, 64225, Control_c, 0, 64, 95
2, 64297, Note_on_c, 0, 64, 55
2, 64347, Control_c, 0, 64, 94
2, 64361, Note_on_c, 0, 64, 0
2, 64363, Control_c, 0, 64, 92
2, 64378, Control_c, 0, 64, 87
2, 64386, Note_on_c, 0, 62, 50
2, 64393, Control_c, 0, 64, 82
2, 64409, Control_c, 0, 64, 76
2, 64423, Control_c, 0, 64, 69
2, 64438, Control_c, 0, 64, 64
2, 64454, Control_c, 0, 64, 52
2, 64462, Note_on_c, 0, 62, 0
2, 64469, Control_c, 0, 64, 38
2, 64477, Note_on_c, 0, 60, 52
2, 64484, Control_c, 0, 64, 29
2, 64499, Control_c, 0, 64, 27
2, 64514, Control_c, 0, 64, 26
2, 64524, Note_on_c, 0, 60, 0
2, 64545, Control_c, 0, 64, 26
2, 64582, Note_on_c, 0, 59, 56
2, 64660, Note_on_c, 0, 59, 0
2, 64680, Note_on_c, 0, 57, 52
2, 64695, Note_on_c, 0, 72, 54
2, 64744, Note_on_c, 0, 74, 0
2, 64878, Note_on_c, 0, 57, 0
2, 64885, Note_on_c, 0, 71, 55
2, 64886, Note_on_c, 0, 72, 0
2, 64890, Note_on_c, 0, 56, 44
2, 65069, Note_on_c, 0, 57, 42
2, 65071, Note_on_c, 0, 72, 59
2, 65103, Note_on_c, 0, 56, 0
2, 65126, Note_on_c, 0, 71, 0
2, 65272, Note_on_c, 0, 53, 48
2, 65352, Note_on_c, 0, 57, 0
2, 65452, Note_on_c, 0, 53, 0
2, 65452, Note_on_c, 0, 73, 71
2, 65463, Note_on_c, 0, 52, 44
2, 65518, Control_c, 0, 64, 26
2, 65533, Control_c, 0, 64, 27
2, 65579, Control_c, 0, 64, 27
2, 65584, Note_on_c, 0, 72, 0
2, 65624, Control_c, 0, 64, 28
2, 65639, Control_c, 0, 64, 28
2, 65649, Note_on_c, 0, 58, 61
2, 65670, Control_c, 0, 64, 29
2, 65686, Control_c, 0, 64, 29
2, 65731, Control_c, 0, 64, 30
2, 65746, Control_c, 0, 64, 30
2, 65835, Note_on_c, 0, 74, 72
2, 65836, Note_on_c, 0, 52, 0
2, 65838, Note_on_c, 0, 59, 61
2, 65897, Note_on_c, 0, 73, 0
2, 65943, Control_c, 0, 64, 27
2, 65948, Note_on_c, 0, 58, 0
2, 65958, Control_c, 0, 64, 24
2, 65974, Control_c, 0, 64, 16
2, 65990, Control_c, 0, 64, 0
2, 66020, Note_on_c, 0, 55, 60
2, 66184, Note_on_c, 0, 59, 0
2, 66218, Note_on_c, 0, 54, 65
2, 66228, Note_on_c, 0, 75, 83
2, 66250, Note_on_c, 0, 55, 0
2, 66288, Note_on_c, 0, 54, 0
2, 66330, Note_on_c, 0, 74, 0
2, 66422, Note_on_c, 0, 60, 69
2, 66615, Note_on_c, 0, 76, 78
2, 66680, Note_on_c, 0, 75, 0
2, 66797, Note_on_c, 0, 59, 57
2, 66888, Note_on_c, 0, 60, 0
2, 67008, Note_on_c, 0, 78, 81
2, 67101, Note_on_c, 0, 76, 0
2, 67160, Control_c, 0, 64, 39
2, 67176, Control_c, 0, 64, 61
2, 67177, Note_on_c, 0, 57, 55
2, 67185, Note_on_c, 0, 59, 0
2, 67191, Control_c, 0, 64, 68
2, 67207, Control_c, 0, 64, 85
2, 67221, Control_c, 0, 64, 127
2, 67246, Note_on_c, 0, 57, 0
2, 67272, Note_on_c, 0, 78, 0
2, 67379, Note_on_c, 0, 79, 69
2, 67380, Note_on_c, 0, 64, 54
2, 67458, Note_on_c, 0, 77, 69
2, 67510, Control_c, 0, 64, 92
2, 67526, Control_c, 0, 64, 73
2, 67526, Note_on_c, 0, 79, 0
2, 67541, Control_c, 0, 64, 62
2, 67547, Note_on_c, 0, 76, 67
2, 67555, Control_c, 0, 64, 35
2, 67561, Note_on_c, 0, 77, 0
2, 67571, Control_c, 0, 64, 0
2, 67639, Note_on_c, 0, 76, 0
2, 67644, Note_on_c, 0, 74, 69
2, 67749, Note_on_c, 0, 73, 80
2, 67765, Note_on_c, 0, 52, 44
2, 67785, Note_on_c, 0, 74, 0
2, 67932, Note_on_c, 0, 80, 80
2, 67974, Note_on_c, 0, 73, 0
2, 68127, Note_on_c, 0, 81, 78
2, 68139, Note_on_c, 0, 53, 54
2, 68186, Note_on_c, 0, 80, 0
2, 68254, Note_on_c, 0, 64, 0
2, 68256, Note_on_c, 0, 52, 0
2, 68317, Note_on_c, 0, 75, 81
2, 68378, Note_on_c, 0, 81, 0
2, 68511, Note_on_c, 0, 74, 76
2, 68516, Note_on_c, 0, 54, 60
2, 68571, Note_on_c, 0, 75, 0
2, 68580, Note_on_c, 0, 53, 0
2, 68703, Note_on_c, 0, 82, 78
2, 68858, Note_on_c, 0, 74, 0
2, 68876, Note_on_c, 0, 55, 51
2, 68924, Note_on_c, 0, 54, 0
2, 68964, Note_on_c, 0, 83, 75
2, 69023, Note_on_c, 0, 82, 0
2, 69174, Note_on_c, 0, 77, 73
2, 69241, Note_on_c, 0, 83, 0
2, 69356, Note_on_c, 0, 56, 50
2, 69367, Note_on_c, 0, 76, 67
2, 69377, Note_on_c, 0, 55, 0
2, 69396, Note_on_c, 0, 77, 0
2, 69473, Note_on_c, 0, 76, 0
2, 69564, Note_on_c, 0, 74, 62
2, 69752, Note_on_c, 0, 57, 47
2, 69840, Note_on_c, 0, 56, 0
2, 69956, Note_on_c, 0, 72, 63
2, 70057, Note_on_c, 0, 74, 0
2, 70140, Note_on_c, 0, 59, 44
2, 70161, Note_on_c, 0, 57, 0
2, 70336, Note_on_c, 0, 71, 62
2, 70452, Note_on_c, 0, 72, 0
2, 70506, Note_on_c, 0, 60, 47
2, 70552, Control_c, 0, 64, 33
2, 70568, Control_c, 0, 64, 54
2, 70568, Note_on_c, 0, 59, 0
2, 70583, Control_c, 0, 64, 59
2, 70597, Control_c, 0, 64, 61
2, 70613, Control_c, 0, 64, 62
2, 70628, Control_c, 0, 64, 63
2, 70641, Note_on_c, 0, 71, 0
2, 70644, Control_c, 0, 64, 63
2, 70658, Control_c, 0, 64, 64
2, 70709, Note_on_c, 0, 69, 57
2, 70757, Control_c, 0, 64, 63
2, 70780, Note_on_c, 0, 71, 65
2, 70788, Control_c, 0, 64, 62
2, 70791, Note_on_c, 0, 69, 0
2, 70804, Control_c, 0, 64, 61
2, 70818, Control_c, 0, 64, 60
2, 70833, Control_c, 0, 64, 59
2, 70849, Control_c, 0, 64, 57
2, 70863, Control_c, 0, 64, 54
2, 70873, Note_on_c, 0, 57, 46
2, 70878, Control_c, 0, 64, 47
2, 70879, Note_on_c, 0, 72, 67
2, 70892, Note_on_c, 0, 71, 0
2, 70894, Control_c, 0, 64, 28
2, 70910, Control_c, 0, 64, 0
2, 70978, Note_on_c, 0, 60, 0
2, 71075, Note_on_c, 0, 63, 57
2, 71123, Control_c, 0, 64, 55
2, 71138, Control_c, 0, 64, 62
2, 71153, Control_c, 0, 64, 64
2, 71168, Control_c, 0, 64, 66
2, 71183, Control_c, 0, 64, 69
2, 71184, Note_on_c, 0, 63, 0
2, 71198, Control_c, 0, 64, 71
2, 71214, Control_c, 0, 64, 73
2, 71229, Control_c, 0, 64, 74
2, 71264, Note_on_c, 0, 55, 46
2, 71266, Note_on_c, 0, 64, 62
2, 71287, Note_on_c, 0, 72, 0
2, 71350, Control_c, 0, 64, 73
2, 71361, Note_on_c, 0, 57, 0
2, 71366, Control_c, 0, 64, 71
2, 71381, Control_c, 0, 64, 68
2, 71396, Control_c, 0, 64, 64
2, 71412, Control_c, 0, 64, 59
2, 71427, Control_c, 0, 64, 41
2, 71441, Control_c, 0, 64, 0
2, 71454, Note_on_c, 0, 73, 73
2, 71518, Note_on_c, 0, 64, 0
2, 71648, Note_on_c, 0, 53, 45
2, 71662, Note_on_c, 0, 74, 60
2, 71728, Note_on_c, 0, 73, 0
2, 71738, Note_on_c, 0, 55, 0
2, 71853, Note_on_c, 0, 65, 51
2, 71888, Note_on_c, 0, 74, 0
2, 71990, Note_on_c, 0, 53, 0
2, 72029, Note_on_c, 0, 52, 44
2, 72032, Note_on_c, 0, 67, 54
2, 72043, Note_on_c, 0, 65, 0
2, 72058, Control_c, 0, 64, 13
2, 72073, Control_c, 0, 64, 49
2, 72088, Control_c, 0, 64, 54
2, 72103, Control_c, 0, 64, 55
2, 72112, Note_on_c, 0, 52, 0
2, 72118, Control_c, 0, 64, 56
2, 72133, Control_c, 0, 64, 57
2, 72136, Note_on_c, 0, 53, 50
2, 72164, Control_c, 0, 64, 58
2, 72201, Note_on_c, 0, 53, 0
2, 72217, Note_on_c, 0, 55, 50
2, 72248, Control_c, 0, 64, 57
2, 72263, Control_c, 0, 64, 54
2, 72274, Note_on_c, 0, 55, 0
2, 72278, Control_c, 0, 64, 51
2, 72289, Note_on_c, 0, 57, 56
2, 72293, Control_c, 0, 64, 46
2, 72308, Control_c, 0, 64, 39
2, 72324, Control_c, 0, 64, 21
2, 72338, Control_c, 0, 64, 0
2, 72388, Note_on_c, 0, 67, 0
2, 72394, Note_on_c, 0, 58, 50
2, 72412, Note_on_c, 0, 57, 0
2, 72413, Note_on_c, 0, 74, 72
2, 72417, Note_on_c, 0, 67, 7
2, 72538, Note_on_c, 0, 67, 0
2, 72603, Note_on_c, 0, 53, 46
2, 72614, Note_on_c, 0, 58, 0
2, 72792, Note_on_c, 0, 72, 72
2, 72796, Note_on_c, 0, 52, 32
2, 72827, Note_on_c, 0, 53, 0
2, 72867, Note_on_c, 0, 74, 0
2, 72983, Note_on_c, 0, 52, 0
2, 72989, Note_on_c, 0, 57, 49
2, 73185, Note_on_c, 0, 70, 61
2, 73187, Note_on_c, 0, 55, 45
2, 73209, Note_on_c, 0, 57, 0
2, 73275, Note_on_c, 0, 72, 0
2, 73375, Note_on_c, 0, 50, 45
2, 73376, Note_on_c, 0, 55, 0
2, 73579, Note_on_c, 0, 49, 36
2, 73600, Note_on_c, 0, 50, 0
2, 73632, Note_on_c, 0, 70, 0
2, 73661, Note_on_c, 0, 69, 50
2, 73685, Control_c, 0, 64, 49
2, 73699, Control_c, 0, 64, 57
2, 73714, Control_c, 0, 64, 59
2, 73730, Control_c, 0, 64, 60
2, 73733, Note_on_c, 0, 69, 0
2, 73745, Control_c, 0, 64, 61
2, 73756, Note_on_c, 0, 67, 55
2, 73760, Control_c, 0, 64, 61
2, 73818, Note_on_c, 0, 67, 0
2, 73840, Note_on_c, 0, 69, 59
2, 73859, Control_c, 0, 64, 61
2, 73861, Note_on_c, 0, 49, 0
2, 73874, Control_c, 0, 64, 60
2, 73890, Control_c, 0, 64, 60
2, 73904, Control_c, 0, 64, 59
2, 73919, Control_c, 0, 64, 57
2, 73933, Note_on_c, 0, 69, 0
2, 73935, Control_c, 0, 64, 54
2, 73941, Note_on_c, 0, 55, 47
2, 73946, Note_on_c, 0, 70, 62
2, 73950, Control_c, 0, 64, 52
2, 73966, Control_c, 0, 64, 47
2, 73980, Control_c, 0, 64, 34
2, 73995, Control_c, 0, 64, 0
2, 74129, Note_on_c, 0, 61, 54
2, 74148, Control_c, 0, 64, 37
2, 74164, Control_c, 0, 64, 56
2, 74179, Control_c, 0, 64, 62
2, 74194, Control_c, 0, 64, 64
2, 74210, Control_c, 0, 64, 66
2, 74221, Note_on_c, 0, 61, 0
2, 74224, Control_c, 0, 64, 69
2, 74239, Control_c, 0, 64, 71
2, 74255, Control_c, 0, 64, 73
2, 74270, Control_c, 0, 64, 74
2, 74335, Note_on_c, 0, 62, 53
2, 74341, Note_on_c, 0, 53, 44
2, 74341, Note_on_c, 0, 70, 0
2, 74390, Note_on_c, 0, 55, 0
2, 74392, Control_c, 0, 64, 73
2, 74408, Control_c, 0, 64, 72
2, 74422, Control_c, 0, 64, 70
2, 74437, Control_c, 0, 64, 68
2, 74453, Control_c, 0, 64, 66
2, 74467, Control_c, 0, 64, 63
2, 74483, Control_c, 0, 64, 56
2, 74498, Control_c, 0, 64, 43
2, 74513, Control_c, 0, 64, 36
2, 74513, Note_on_c, 0, 71, 62
2, 74529, Control_c, 0, 64, 35
2, 74551, Control_c, 0, 64, 34
2, 74553, Note_on_c, 0, 62, 0
2, 74567, Control_c, 0, 64, 34
2, 74716, Note_on_c, 0, 52, 44
2, 74717, Note_on_c, 0, 53, 0
2, 74720, Note_on_c, 0, 72, 57
2, 74763, Note_on_c, 0, 71, 0
2, 74912, Note_on_c, 0, 64, 59
2, 74915, Control_c, 0, 64, 35
2, 74946, Control_c, 0, 64, 36
2, 75023, Control_c, 0, 64, 34
2, 75038, Control_c, 0, 64, 10
2, 75053, Control_c, 0, 64, 0
2, 75062, Note_on_c, 0, 72, 0
2, 75063, Note_on_c, 0, 52, 0
2, 75104, Note_on_c, 0, 64, 0
2, 75110, Note_on_c, 0, 50, 40
2, 75111, Note_on_c, 0, 66, 54
2, 75172, Note_on_c, 0, 50, 0
2, 75190, Control_c, 0, 64, 42
2, 75193, Note_on_c, 0, 52, 50
2, 75206, Control_c, 0, 64, 54
2, 75221, Control_c, 0, 64, 59
2, 75236, Control_c, 0, 64, 61
2, 75252, Control_c, 0, 64, 63
2, 75263, Note_on_c, 0, 52, 0
2, 75266, Control_c, 0, 64, 64
2, 75281, Control_c, 0, 64, 64
2, 75287, Note_on_c, 0, 54, 52
2, 75339, Note_on_c, 0, 54, 0
2, 75365, Control_c, 0, 64, 64
2, 75371, Note_on_c, 0, 55, 52
2, 75380, Control_c, 0, 64, 63
2, 75395, Control_c, 0, 64, 61
2, 75411, Control_c, 0, 64, 58
2, 75426, Control_c, 0, 64, 54
2, 75441, Control_c, 0, 64, 47
2, 75451, Note_on_c, 0, 55, 0
2, 75457, Control_c, 0, 64, 38
2, 75471, Control_c, 0, 64, 30
2, 75474, Note_on_c, 0, 57, 51
2, 75477, Note_on_c, 0, 72, 60
2, 75487, Control_c, 0, 64, 26
2, 75502, Control_c, 0, 64, 22
2, 75514, Note_on_c, 0, 66, 0
2, 75516, Control_c, 0, 64, 20
2, 75649, Note_on_c, 0, 57, 0
2, 75664, Note_on_c, 0, 51, 52
2, 75826, Note_on_c, 0, 51, 0
2, 75836, Control_c, 0, 64, 21
2, 75860, Note_on_c, 0, 50, 49
2, 75863, Note_on_c, 0, 71, 61
2, 75918, Note_on_c, 0, 72, 0
2, 75958, Control_c, 0, 64, 22
2, 75973, Control_c, 0, 64, 24
2, 75988, Control_c, 0, 64, 24
2, 76041, Note_on_c, 0, 50, 0
2, 76047, Note_on_c, 0, 55, 41
2, 76193, Control_c, 0, 64, 8
2, 76209, Control_c, 0, 64, 0
2, 76235, Note_on_c, 0, 54, 43
2, 76247, Note_on_c, 0, 55, 0
2, 76249, Note_on_c, 0, 69, 51
2, 76297, Note_on_c, 0, 71, 0
2, 76417, Note_on_c, 0, 54, 0
2, 76422, Control_c, 0, 64, 46
2, 76428, Note_on_c, 0, 48, 43
2, 76436, Control_c, 0, 64, 55
2, 76452, Control_c, 0, 64, 58
2, 76467, Control_c, 0, 64, 60
2, 76483, Control_c, 0, 64, 61
2, 76497, Control_c, 0, 64, 62
2, 76512, Control_c, 0, 64, 63
2, 76528, Control_c, 0, 64, 64
2, 76619, Control_c, 0, 64, 62
2, 76633, Note_on_c, 0, 69, 0
2, 76635, Control_c, 0, 64, 57
2, 76643, Note_on_c, 0, 47, 31
2, 76651, Control_c, 0, 64, 39
2, 76665, Control_c, 0, 64, 0
2, 76666, Note_on_c, 0, 48, 0
2, 76756, Control_c, 0, 64, 50
2, 76756, Note_on_c, 0, 67, 53
2, 76772, Control_c, 0, 64, 59
2, 76786, Control_c, 0, 64, 62
2, 76801, Control_c, 0, 64, 63
2, 76809, Note_on_c, 0, 67, 0
2, 76817, Control_c, 0, 64, 65
2, 76832, Control_c, 0, 64, 66
2, 76856, Control_c, 0, 64, 67
2, 76858, Note_on_c, 0, 69, 46
2, 76870, Control_c, 0, 64, 68
2, 76899, Note_on_c, 0, 69, 0
2, 76930, Note_on_c, 0, 71, 58
2, 76977, Note_on_c, 0, 47, 0
2, 76992, Control_c, 0, 64, 67
2, 77007, Control_c, 0, 64, 66
2, 77012, Note_on_c, 0, 71, 0
2, 77021, Note_on_c, 0, 52, 42
2, 77022, Control_c, 0, 64, 65
2, 77029, Note_on_c, 0, 72, 60
2, 77037, Control_c, 0, 64, 63
2, 77053, Control_c, 0, 64, 61
2, 77068, Control_c, 0, 64, 56
2, 77084, Control_c, 0, 64, 48
2, 77098, Control_c, 0, 64, 40
2, 77113, Control_c, 0, 64, 35
2, 77129, Control_c, 0, 64, 34
2, 77144, Control_c, 0, 64, 32
2, 77159, Control_c, 0, 64, 31
2, 77175, Control_c, 0, 64, 31
2, 77214, Note_on_c, 0, 72, 0
2, 77224, Note_on_c, 0, 67, 55
2, 77415, Note_on_c, 0, 66, 61
2, 77420, Note_on_c, 0, 51, 45
2, 77494, Note_on_c, 0, 67, 0
2, 77495, Control_c, 0, 64, 32
2, 77506, Note_on_c, 0, 52, 0
2, 77621, Note_on_c, 0, 70, 69
2, 77624, Control_c, 0, 64, 32
2, 77638, Control_c, 0, 64, 33
2, 77667, Note_on_c, 0, 66, 0
2, 77669, Control_c, 0, 64, 33
2, 77806, Control_c, 0, 64, 34
2, 77815, Note_on_c, 0, 71, 76
2, 77827, Note_on_c, 0, 50, 44
2, 77836, Control_c, 0, 64, 34
2, 77865, Note_on_c, 0, 70, 0
2, 77943, Note_on_c, 0, 51, 0
2, 77988, Control_c, 0, 64, 35
2, 78010, Note_on_c, 0, 65, 69
2, 78070, Note_on_c, 0, 71, 0
2, 78095, Control_c, 0, 64, 35
2, 78196, Note_on_c, 0, 49, 54
2, 78200, Control_c, 0, 64, 36
2, 78201, Note_on_c, 0, 64, 73
2, 78247, Control_c, 0, 64, 36
2, 78259, Note_on_c, 0, 65, 0
2, 78369, Control_c, 0, 64, 37
2, 78370, Note_on_c, 0, 50, 0
2, 78405, Note_on_c, 0, 68, 71
2, 78498, Control_c, 0, 64, 37
2, 78544, Control_c, 0, 64, 38
2, 78606, Note_on_c, 0, 69, 67
2, 78612, Note_on_c, 0, 48, 55
2, 78644, Note_on_c, 0, 68, 0
2, 78661, Note_on_c, 0, 64, 0
2, 78703, Note_on_c, 0, 49, 0
2, 78706, Note_on_c, 0, 69, 0
2, 78801, Control_c, 0, 64, 37
2, 78811, Note_on_c, 0, 63, 74
2, 78817, Control_c, 0, 64, 37
2, 78832, Control_c, 0, 64, 36
2, 78848, Control_c, 0, 64, 36
2, 78862, Control_c, 0, 64, 35
2, 78998, Note_on_c, 0, 47, 54
2, 79150, Note_on_c, 0, 48, 0
2, 79210, Note_on_c, 0, 64, 74
2, 79300, Note_on_c, 0, 63, 0
2, 79328, Control_c, 0, 64, 35
2, 79388, Control_c, 0, 64, 34
2, 79407, Note_on_c, 0, 45, 48
2, 79418, Control_c, 0, 64, 34
2, 79449, Control_c, 0, 64, 33
2, 79473, Note_on_c, 0, 47, 0
2, 79478, Control_c, 0, 64, 33
2, 79494, Control_c, 0, 64, 32
2, 79509, Control_c, 0, 64, 32
2, 79525, Control_c, 0, 64, 31
2, 79539, Control_c, 0, 64, 30
2, 79554, Control_c, 0, 64, 29
2, 79570, Control_c, 0, 64, 26
2, 79585, Control_c, 0, 64, 0
2, 79595, Note_on_c, 0, 65, 55
2, 79646, Note_on_c, 0, 64, 0
2, 79796, Note_on_c, 0, 59, 48
2, 79828, Control_c, 0, 64, 49
2, 79844, Control_c, 0, 64, 62
2, 79858, Control_c, 0, 64, 66
2, 79873, Control_c, 0, 64, 72
2, 79873, Note_on_c, 0, 65, 0
2, 79880, Note_on_c, 0, 48, 42
2, 79883, Note_on_c, 0, 59, 0
2, 79889, Control_c, 0, 64, 85
2, 79904, Control_c, 0, 64, 105
2, 79907, Note_on_c, 0, 45, 0
2, 79929, Control_c, 0, 64, 127
2, 79964, Note_on_c, 0, 48, 0
2, 79980, Note_on_c, 0, 47, 46
2, 80037, Note_on_c, 0, 47, 0
2, 80048, Note_on_c, 0, 45, 55
2, 80156, Control_c, 0, 64, 115
2, 80172, Control_c, 0, 64, 95
2, 80177, Note_on_c, 0, 44, 50
2, 80177, Note_on_c, 0, 45, 0
2, 80180, Note_on_c, 0, 76, 68
2, 80186, Control_c, 0, 64, 83
2, 80201, Control_c, 0, 64, 72
2, 80217, Control_c, 0, 64, 64
2, 80232, Control_c, 0, 64, 54
2, 80248, Control_c, 0, 64, 35
2, 80263, Control_c, 0, 64, 22
2, 80278, Control_c, 0, 64, 20
2, 80308, Control_c, 0, 64, 19
2, 80339, Control_c, 0, 64, 18
2, 80373, Note_on_c, 0, 49, 55
2, 80446, Note_on_c, 0, 44, 0
2, 80556, Note_on_c, 0, 77, 76
2, 80565, Note_on_c, 0, 50, 61
2, 80596, Control_c, 0, 64, 19
2, 80612, Control_c, 0, 64, 20
2, 80625, Note_on_c, 0, 49, 0
2, 80687, Note_on_c, 0, 76, 0
2, 80763, Note_on_c, 0, 46, 60
2, 80848, Note_on_c, 0, 50, 0
2, 80951, Note_on_c, 0, 45, 61
2, 80955, Note_on_c, 0, 78, 82
2, 81021, Note_on_c, 0, 46, 0
2, 81061, Note_on_c, 0, 77, 0
2, 81145, Note_on_c, 0, 51, 61
2, 81313, Note_on_c, 0, 45, 0
2, 81323, Note_on_c, 0, 79, 86
2, 81332, Note_on_c, 0, 52, 64
2, 81366, Control_c, 0, 64, 19
2, 81380, Note_on_c, 0, 78, 0
2, 81381, Control_c, 0, 64, 12
2, 81397, Control_c, 0, 64, 0
2, 81466, Note_on_c, 0, 51, 0
2, 81543, Note_on_c, 0, 48, 65
2, 81620, Note_on_c, 0, 52, 0
2, 81721, Note_on_c, 0, 80, 81
2, 81727, Note_on_c, 0, 47, 63
2, 81750, Note_on_c, 0, 48, 0
2, 81782, Note_on_c, 0, 47, 0
2, 81820, Note_on_c, 0, 79, 0
2, 81926, Note_on_c, 0, 53, 67
2, 82107, Note_on_c, 0, 81, 82
2, 82176, Note_on_c, 0, 80, 0
2, 82316, Note_on_c, 0, 52, 56
2, 82408, Note_on_c, 0, 53, 0
2, 82473, Note_on_c, 0, 81, 0
2, 82507, Note_on_c, 0, 83, 84
2, 82704, Control_c, 0, 64, 28
2, 82704, Note_on_c, 0, 50, 57
2, 82720, Control_c, 0, 64, 45
2, 82735, Control_c, 0, 64, 53
2, 82746, Note_on_c, 0, 52, 0
2, 82750, Control_c, 0, 64, 58
2, 82766, Control_c, 0, 64, 61
2, 82780, Control_c, 0, 64, 63
2, 82796, Control_c, 0, 64, 64
2, 82811, Control_c, 0, 64, 64
2, 82871, Control_c, 0, 64, 62
2, 82887, Control_c, 0, 64, 57
2, 82894, Note_on_c, 0, 48, 53
2, 82895, Note_on_c, 0, 50, 0
2, 82902, Control_c, 0, 64, 39
2, 82917, Control_c, 0, 64, 0
2, 83000, Note_on_c, 0, 83, 0
2, 83031, Control_c, 0, 64, 50
2, 83046, Control_c, 0, 64, 65
2, 83053, Note_on_c, 0, 48, 0
2, 83061, Control_c, 0, 64, 76
2, 83077, Control_c, 0, 64, 127
2, 83098, Note_on_c, 0, 81, 74
2, 83179, Note_on_c, 0, 83, 84
2, 83189, Note_on_c, 0, 81, 0
2, 83274, Control_c, 0, 64, 90
2, 83277, Note_on_c, 0, 84, 83
2, 83280, Note_on_c, 0, 52, 59
2, 83289, Note_on_c, 0, 83, 0
2, 83290, Control_c, 0, 64, 75
2, 83305, Control_c, 0, 64, 65
2, 83321, Control_c, 0, 64, 53
2, 83336, Control_c, 0, 64, 28
2, 83338, Note_on_c, 0, 84, 0
2, 83350, Control_c, 0, 64, 0
2, 83497, Note_on_c, 0, 76, 84
2, 83696, Note_on_c, 0, 54, 58
2, 83764, Note_on_c, 0, 52, 0
2, 83889, Note_on_c, 0, 75, 80
2, 83979, Note_on_c, 0, 76, 0
2, 84093, Note_on_c, 0, 83, 75
2, 84099, Note_on_c, 0, 56, 48
2, 84128, Note_on_c, 0, 54, 0
2, 84140, Note_on_c, 0, 75, 0
2, 84174, Note_on_c, 0, 83, 0
2, 84292, Note_on_c, 0, 74, 70
2, 84473, Note_on_c, 0, 57, 47
2, 84499, Control_c, 0, 64, 51
2, 84514, Control_c, 0, 64, 61
2, 84518, Note_on_c, 0, 56, 0
2, 84536, Control_c, 0, 64, 64
2, 84551, Control_c, 0, 64, 68
2, 84551, Note_on_c, 0, 74, 0
2, 84567, Control_c, 0, 64, 73
2, 84582, Control_c, 0, 64, 80
2, 84594, Note_on_c, 0, 72, 70
2, 84598, Control_c, 0, 64, 88
2, 84613, Control_c, 0, 64, 96
2, 84627, Control_c, 0, 64, 102
2, 84643, Control_c, 0, 64, 104
2, 84673, Note_on_c, 0, 72, 0
2, 84673, Note_on_c, 0, 74, 73
2, 84713, Note_on_c, 0, 57, 0
2, 84720, Control_c, 0, 64, 102
2, 84734, Control_c, 0, 64, 94
2, 84749, Control_c, 0, 64, 83
2, 84753, Note_on_c, 0, 76, 77
2, 84765, Control_c, 0, 64, 72
2, 84773, Note_on_c, 0, 74, 0
2, 84780, Control_c, 0, 64, 64
2, 84795, Control_c, 0, 64, 50
2, 84810, Control_c, 0, 64, 0
2, 84862, Note_on_c, 0, 77, 78
2, 84885, Note_on_c, 0, 76, 0
2, 84892, Note_on_c, 0, 45, 33
2, 84926, Note_on_c, 0, 77, 0
2, 85062, Note_on_c, 0, 69, 71
2, 85258, Note_on_c, 0, 47, 51
2, 85348, Note_on_c, 0, 45, 0
2, 85450, Note_on_c, 0, 68, 65
2, 85501, Note_on_c, 0, 69, 0
2, 85630, Note_on_c, 0, 49, 47
2, 85637, Note_on_c, 0, 76, 60
2, 85664, Note_on_c, 0, 68, 0
2, 85671, Note_on_c, 0, 47, 0
2, 85707, Note_on_c, 0, 76, 0
2, 85843, Note_on_c, 0, 67, 51
2, 86012, Note_on_c, 0, 50, 35
2, 86077, Note_on_c, 0, 49, 0
2, 86089, Control_c, 0, 64, 44
2, 86096, Note_on_c, 0, 67, 0
2, 86103, Control_c, 0, 64, 55
2, 86119, Control_c, 0, 64, 59
2, 86134, Control_c, 0, 64, 61
2, 86134, Note_on_c, 0, 65, 50
2, 86148, Control_c, 0, 64, 63
2, 86164, Control_c, 0, 64, 64
2, 86179, Control_c, 0, 64, 64
2, 86200, Note_on_c, 0, 65, 0
2, 86229, Note_on_c, 0, 50, 0
2, 86229, Note_on_c, 0, 67, 52
2, 86255, Control_c, 0, 64, 64
2, 86270, Control_c, 0, 64, 63
2, 86285, Note_on_c, 0, 67, 0
2, 86286, Control_c, 0, 64, 62
2, 86300, Control_c, 0, 64, 61
2, 86304, Note_on_c, 0, 69, 54
2, 86315, Control_c, 0, 64, 58
2, 86331, Control_c, 0, 64, 55
2, 86346, Control_c, 0, 64, 49
2, 86362, Control_c, 0, 64, 41
2, 86377, Control_c, 0, 64, 22
2, 86391, Control_c, 0, 64, 0
2, 86404, Note_on_c, 0, 70, 56
2, 86411, Note_on_c, 0, 38, 35
2, 86415, Note_on_c, 0, 69, 0
2, 86469, Note_on_c, 0, 70, 0
2, 86614, Note_on_c, 0, 62, 49
2, 86806, Note_on_c, 0, 38, 0
2, 86810, Note_on_c, 0, 40, 35
2, 86946, Control_c, 0, 64, 33
2, 86949, Note_on_c, 0, 40, 0
2, 86961, Control_c, 0, 64, 49
2, 86977, Control_c, 0, 64, 54
2, 86991, Control_c, 0, 64, 56
2, 86998, Note_on_c, 0, 61, 53
2, 87007, Control_c, 0, 64, 58
2, 87022, Control_c, 0, 64, 59
2, 87034, Note_on_c, 0, 62, 0
2, 87037, Control_c, 0, 64, 59
2, 87053, Control_c, 0, 64, 60
2, 87158, Control_c, 0, 64, 59
2, 87174, Control_c, 0, 64, 57
2, 87183, Note_on_c, 0, 52, 52
2, 87188, Control_c, 0, 64, 53
2, 87204, Control_c, 0, 64, 50
2, 87219, Control_c, 0, 64, 45
2, 87221, Note_on_c, 0, 69, 52
2, 87234, Control_c, 0, 64, 35
2, 87237, Note_on_c, 0, 61, 0
2, 87250, Control_c, 0, 64, 0
2, 87293, Note_on_c, 0, 69, 0
2, 87429, Note_on_c, 0, 60, 61
2, 87619, Note_on_c, 0, 51, 54
2, 87701, Note_on_c, 0, 52, 0
2, 87789, Control_c, 0, 64, 21
2, 87805, Control_c, 0, 64, 35
2, 87806, Note_on_c, 0, 59, 55
2, 87820, Control_c, 0, 64, 38
2, 87823, Note_on_c, 0, 60, 0
2, 87859, Note_on_c, 0, 51, 0
2, 87956, Control_c, 0, 64, 38
2, 87972, Control_c, 0, 64, 36
2, 87986, Control_c, 0, 64, 34
2, 87998, Note_on_c, 0, 50, 44
2, 88000, Note_on_c, 0, 68, 46
2, 88001, Control_c, 0, 64, 31
2, 88004, Note_on_c, 0, 59, 0
2, 88017, Control_c, 0, 64, 27
2, 88031, Control_c, 0, 64, 21
2, 88047, Control_c, 0, 64, 15
2, 88047, Note_on_c, 0, 68, 0
2, 88062, Control_c, 0, 64, 0
2, 88190, Note_on_c, 0, 59, 49
2, 88393, Note_on_c, 0, 49, 41
2, 88525, Note_on_c, 0, 50, 0
2, 88542, Control_c, 0, 64, 31
2, 88557, Control_c, 0, 64, 49
2, 88573, Control_c, 0, 64, 53
2, 88583, Note_on_c, 0, 57, 43
2, 88583, Note_on_c, 0, 59, 0
2, 88588, Control_c, 0, 64, 55
2, 88604, Control_c, 0, 64, 56
2, 88611, Note_on_c, 0, 49, 0
2, 88619, Control_c, 0, 64, 56
2, 88725, Control_c, 0, 64, 55
2, 88740, Control_c, 0, 64, 54
2, 88754, Control_c, 0, 64, 52
2, 88770, Control_c, 0, 64, 49
2, 88785, Control_c, 0, 64, 47
2, 88793, Note_on_c, 0, 48, 33
2, 88798, Note_on_c, 0, 65, 44
2, 88800, Control_c, 0, 64, 45
2, 88816, Control_c, 0, 64, 43
2, 88823, Note_on_c, 0, 57, 0
2, 88830, Control_c, 0, 64, 42
2, 88846, Control_c, 0, 64, 41
2, 88854, Note_on_c, 0, 65, 0
2, 88861, Control_c, 0, 64, 39
2, 88875, Control_c, 0, 64, 33
2, 88891, Control_c, 0, 64, 25
2, 88906, Control_c, 0, 64, 18
2, 88922, Control_c, 0, 64, 13
2, 88938, Control_c, 0, 64, 12
2, 88953, Control_c, 0, 64, 0
2, 88991, Note_on_c, 0, 57, 37
2, 89210, Note_on_c, 0, 47, 33
2, 89239, Note_on_c, 0, 57, 0
2, 89252, Note_on_c, 0, 48, 0
2, 89264, Control_c, 0, 64, 38
2, 89279, Control_c, 0, 64, 52
2, 89295, Control_c, 0, 64, 56
2, 89309, Control_c, 0, 64, 57
2, 89325, Control_c, 0, 64, 59
2, 89340, Control_c, 0, 64, 60
2, 89355, Control_c, 0, 64, 60
2, 89371, Control_c, 0, 64, 61
2, 89405, Note_on_c, 0, 56, 50
2, 89434, Note_on_c, 0, 47, 0
2, 89464, Note_on_c, 0, 56, 0
2, 89477, Control_c, 0, 64, 60
2, 89493, Control_c, 0, 64, 60
2, 89508, Control_c, 0, 64, 58
2, 89508, Note_on_c, 0, 54, 41
2, 89522, Control_c, 0, 64, 56
2, 89538, Control_c, 0, 64, 52
2, 89553, Control_c, 0, 64, 46
2, 89569, Control_c, 0, 64, 33
2, 89584, Control_c, 0, 64, 0
2, 89586, Note_on_c, 0, 47, 33
2, 89595, Note_on_c, 0, 56, 47
2, 89607, Note_on_c, 0, 54, 0
2, 89652, Note_on_c, 0, 56, 0
2, 89808, Note_on_c, 0, 62, 55
2, 90000, Note_on_c, 0, 45, 32
2, 90034, Note_on_c, 0, 47, 0
2, 90079, Note_on_c, 0, 60, 50
2, 90153, Note_on_c, 0, 62, 0
2, 90154, Control_c, 0, 64, 35
2, 90169, Note_on_c, 0, 60, 0
2, 90170, Control_c, 0, 64, 41
2, 90174, Note_on_c, 0, 59, 54
2, 90185, Control_c, 0, 64, 42
2, 90193, Note_on_c, 0, 45, 0
2, 90200, Control_c, 0, 64, 42
2, 90238, Note_on_c, 0, 59, 0
2, 90259, Note_on_c, 0, 57, 52
2, 90348, Note_on_c, 0, 57, 0
2, 90350, Note_on_c, 0, 45, 39
2, 90352, Control_c, 0, 64, 40
2, 90365, Note_on_c, 0, 59, 58
2, 90368, Control_c, 0, 64, 36
2, 90382, Control_c, 0, 64, 30
2, 90397, Control_c, 0, 64, 26
2, 90413, Control_c, 0, 64, 23
2, 90428, Control_c, 0, 64, 21
2, 90431, Note_on_c, 0, 59, 0
2, 90444, Control_c, 0, 64, 17
2, 90459, Control_c, 0, 64, 8
2, 90474, Control_c, 0, 64, 0
2, 90569, Note_on_c, 0, 65, 65
2, 90761, Note_on_c, 0, 44, 53
2, 90858, Note_on_c, 0, 45, 0
2, 90873, Note_on_c, 0, 64, 74
2, 90887, Note_on_c, 0, 65, 0
2, 90893, Control_c, 0, 64, 31
2, 90908, Control_c, 0, 64, 47
2, 90924, Control_c, 0, 64, 51
2, 90939, Control_c, 0, 64, 52
2, 90961, Note_on_c, 0, 62, 69
2, 90965, Note_on_c, 0, 44, 0
2, 90965, Note_on_c, 0, 64, 0
2, 91042, Note_on_c, 0, 62, 0
2, 91049, Note_on_c, 0, 61, 66
2, 91060, Control_c, 0, 64, 51
2, 91074, Control_c, 0, 64, 50
2, 91090, Control_c, 0, 64, 48
2, 91105, Control_c, 0, 64, 46
2, 91120, Control_c, 0, 64, 43
2, 91136, Control_c, 0, 64, 40
2, 91138, Note_on_c, 0, 44, 58
2, 91141, Note_on_c, 0, 62, 73
2, 91150, Control_c, 0, 64, 35
2, 91166, Control_c, 0, 64, 28
2, 91171, Note_on_c, 0, 61, 0
2, 91181, Control_c, 0, 64, 21
2, 91196, Control_c, 0, 64, 12
2, 91205, Note_on_c, 0, 62, 0
2, 91211, Control_c, 0, 64, 0
2, 91348, Note_on_c, 0, 71, 79
2, 91551, Note_on_c, 0, 40, 56
2, 91640, Note_on_c, 0, 44, 0
2, 91661, Note_on_c, 0, 69, 76
2, 91663, Note_on_c, 0, 71, 0
2, 91691, Control_c, 0, 64, 20
2, 91706, Control_c, 0, 64, 44
2, 91720, Control_c, 0, 64, 48
2, 91736, Control_c, 0, 64, 49
2, 91746, Note_on_c, 0, 69, 0
2, 91749, Note_on_c, 0, 68, 80
2, 91751, Control_c, 0, 64, 50
2, 91792, Note_on_c, 0, 40, 0
2, 91840, Note_on_c, 0, 66, 74
2, 91840, Note_on_c, 0, 68, 0
2, 91948, Control_c, 0, 64, 49
2, 91948, Note_on_c, 0, 40, 65
2, 91948, Note_on_c, 0, 68, 83
2, 91955, Note_on_c, 0, 66, 0
2, 91964, Control_c, 0, 64, 43
2, 91979, Control_c, 0, 64, 17
2, 91994, Control_c, 0, 64, 0
2, 92038, Note_on_c, 0, 68, 0
2, 92131, Control_c, 0, 64, 40
2, 92146, Control_c, 0, 64, 56
2, 92161, Control_c, 0, 64, 60
2, 92161, Note_on_c, 0, 74, 80
2, 92176, Control_c, 0, 64, 62
2, 92191, Control_c, 0, 64, 64
2, 92216, Control_c, 0, 64, 66
2, 92229, Control_c, 0, 64, 71
2, 92245, Control_c, 0, 64, 79
2, 92260, Control_c, 0, 64, 89
2, 92275, Control_c, 0, 64, 92
2, 92388, Note_on_c, 0, 45, 66
2, 92413, Control_c, 0, 64, 89
2, 92428, Control_c, 0, 64, 81
2, 92442, Control_c, 0, 64, 70
2, 92457, Note_on_c, 0, 40, 0
2, 92458, Control_c, 0, 64, 58
2, 92473, Control_c, 0, 64, 0
2, 92566, Note_on_c, 0, 72, 71
2, 92601, Note_on_c, 0, 74, 0
2, 92610, Control_c, 0, 64, 52
2, 92621, Note_on_c, 0, 45, 0
2, 92625, Control_c, 0, 64, 62
2, 92639, Control_c, 0, 64, 67
2, 92654, Note_on_c, 0, 71, 78
2, 92655, Control_c, 0, 64, 75
2, 92668, Note_on_c, 0, 72, 0
2, 92670, Control_c, 0, 64, 91
2, 92686, Control_c, 0, 64, 127
2, 92755, Note_on_c, 0, 72, 87
2, 92762, Note_on_c, 0, 71, 0
2, 92837, Note_on_c, 0, 50, 61
2, 92898, Control_c, 0, 64, 108
2, 92913, Control_c, 0, 64, 92
2, 92917, Note_on_c, 0, 52, 64
2, 92929, Control_c, 0, 64, 79
2, 92939, Note_on_c, 0, 50, 0
2, 92944, Control_c, 0, 64, 68
2, 92959, Control_c, 0, 64, 58
2, 92975, Note_on_c, 0, 69, 77
2, 92981, Control_c, 0, 64, 15
2, 92996, Control_c, 0, 64, 0
2, 92997, Note_on_c, 0, 72, 0
2, 93021, Note_on_c, 0, 54, 66
2, 93036, Note_on_c, 0, 52, 0
2, 93147, Note_on_c, 0, 55, 69
2, 93149, Note_on_c, 0, 70, 77
2, 93194, Note_on_c, 0, 54, 0
2, 93241, Note_on_c, 0, 69, 0
2, 93364, Note_on_c, 0, 51, 63
2, 93495, Note_on_c, 0, 55, 0
2, 93550, Note_on_c, 0, 71, 83
2, 93578, Note_on_c, 0, 50, 62
2, 93669, Note_on_c, 0, 51, 0
2, 93669, Note_on_c, 0, 70, 0
2, 93771, Note_on_c, 0, 56, 71
2, 93846, Note_on_c, 0, 50, 0
2, 93951, Note_on_c, 0, 72, 81
2, 93964, Note_on_c, 0, 57, 70
2, 94018, Note_on_c, 0, 71, 0
2, 94069, Note_on_c, 0, 56, 0
2, 94159, Note_on_c, 0, 53, 73
2, 94219, Note_on_c, 0, 57, 0
2, 94344, Note_on_c, 0, 73, 79
2, 94345, Note_on_c, 0, 52, 67
2, 94353, Note_on_c, 0, 53, 0
2, 94404, Note_on_c, 0, 52, 0
2, 94422, Note_on_c, 0, 72, 0
2, 94543, Note_on_c, 0, 58, 73
2, 94747, Note_on_c, 0, 74, 86
2, 94879, Note_on_c, 0, 73, 0
2, 94948, Note_on_c, 0, 57, 64
2, 95063, Note_on_c, 0, 58, 0
2, 95143, Note_on_c, 0, 76, 85
2, 95228, Note_on_c, 0, 74, 0
2, 95316, Control_c, 0, 64, 38
2, 95332, Control_c, 0, 64, 63
2, 95336, Note_on_c, 0, 55, 66
2, 95347, Control_c, 0, 64, 71
2, 95361, Control_c, 0, 64, 91
2, 95369, Note_on_c, 0, 57, 0
2, 95377, Control_c, 0, 64, 127
2, 95438, Note_on_c, 0, 55, 0
2, 95530, Note_on_c, 0, 53, 61
2, 95605, Note_on_c, 0, 53, 0
2, 95607, Control_c, 0, 64, 101
2, 95611, Note_on_c, 0, 52, 63
2, 95616, Note_on_c, 0, 73, 76
2, 95621, Control_c, 0, 64, 78
2, 95626, Note_on_c, 0, 76, 0
2, 95636, Control_c, 0, 64, 64
2, 95652, Control_c, 0, 64, 50
2, 95666, Control_c, 0, 64, 0
2, 95696, Note_on_c, 0, 52, 0
2, 95702, Note_on_c, 0, 53, 65
2, 95703, Note_on_c, 0, 74, 77
2, 95745, Note_on_c, 0, 73, 0
2, 95788, Note_on_c, 0, 53, 0
2, 95794, Note_on_c, 0, 55, 64
2, 95796, Note_on_c, 0, 76, 79
2, 95827, Note_on_c, 0, 74, 0
2, 95910, Note_on_c, 0, 77, 90
2, 95913, Note_on_c, 0, 57, 64
2, 95956, Note_on_c, 0, 55, 0
2, 95959, Note_on_c, 0, 76, 0
2, 96111, Note_on_c, 0, 72, 81
2, 96183, Note_on_c, 0, 77, 0
2, 96307, Note_on_c, 0, 71, 80
2, 96308, Note_on_c, 0, 56, 60
2, 96376, Note_on_c, 0, 72, 0
2, 96450, Note_on_c, 0, 57, 0
2, 96505, Note_on_c, 0, 75, 84
2, 96590, Note_on_c, 0, 71, 0
2, 96707, Note_on_c, 0, 76, 79
2, 96708, Note_on_c, 0, 55, 57
2, 96765, Note_on_c, 0, 75, 0
2, 96783, Note_on_c, 0, 56, 0
2, 96899, Note_on_c, 0, 70, 76
2, 96964, Note_on_c, 0, 76, 0
2, 97092, Note_on_c, 0, 69, 77
2, 97101, Note_on_c, 0, 54, 54
2, 97159, Note_on_c, 0, 70, 0
2, 97197, Note_on_c, 0, 55, 0
2, 97290, Note_on_c, 0, 73, 75
2, 97379, Note_on_c, 0, 69, 0
2, 97494, Note_on_c, 0, 74, 74
2, 97497, Note_on_c, 0, 53, 53
2, 97542, Note_on_c, 0, 73, 0
2, 97590, Note_on_c, 0, 54, 0
2, 97610, Note_on_c, 0, 74, 0
2, 97702, Note_on_c, 0, 68, 74
2, 97890, Note_on_c, 0, 52, 47
2, 97992, Note_on_c, 0, 53, 0
2, 98077, Note_on_c, 0, 69, 71
2, 98154, Note_on_c, 0, 68, 0
2, 98271, Note_on_c, 0, 50, 48
2, 98315, Note_on_c, 0, 52, 0
2, 98451, Note_on_c, 0, 71, 65
2, 98492, Note_on_c, 0, 69, 0
2, 98631, Control_c, 0, 64, 38
2, 98647, Control_c, 0, 64, 55
2, 98650, Note_on_c, 0, 64, 62
2, 98658, Note_on_c, 0, 71, 0
2, 98662, Control_c, 0, 64, 59
2, 98677, Control_c, 0, 64, 62
2, 98693, Control_c, 0, 64, 63
2, 98707, Control_c, 0, 64, 65
2, 98722, Control_c, 0, 64, 68
2, 98738, Control_c, 0, 64, 71
2, 98753, Control_c, 0, 64, 74
2, 98769, Control_c, 0, 64, 77
2, 98784, Control_c, 0, 64, 78
2, 98790, Note_on_c, 0, 64, 0
2, 98832, Note_on_c, 0, 50, 0
2, 98856, Note_on_c, 0, 48, 53
2, 98858, Note_on_c, 0, 76, 75
2, 98861, Control_c, 0, 64, 77
2, 98875, Control_c, 0, 64, 74
2, 98891, Control_c, 0, 64, 71
2, 98906, Control_c, 0, 64, 66
2, 98921, Control_c, 0, 64, 59
2, 98936, Note_on_c, 0, 48, 0
2, 98937, Control_c, 0, 64, 39
2, 98952, Control_c, 0, 64, 0
2, 98959, Note_on_c, 0, 47, 43
2, 99051, Note_on_c, 0, 47, 0
2, 99070, Note_on_c, 0, 48, 48
2, 99179, Note_on_c, 0, 74, 70
2, 99261, Note_on_c, 0, 76, 0
2, 99290, Note_on_c, 0, 72, 70
2, 99295, Note_on_c, 0, 48, 0
2, 99300, Note_on_c, 0, 45, 41
2, 99341, Note_on_c, 0, 74, 0
2, 99389, Note_on_c, 0, 71, 74
2, 99393, Note_on_c, 0, 72, 0
2, 99481, Note_on_c, 0, 45, 0
2, 99488, Note_on_c, 0, 52, 42
2, 99492, Note_on_c, 0, 74, 64
2, 99521, Note_on_c, 0, 71, 0
2, 99601, Note_on_c, 0, 72, 65
2, 99616, Note_on_c, 0, 74, 0
2, 99701, Note_on_c, 0, 71, 62
2, 99707, Note_on_c, 0, 72, 0
2, 99789, Note_on_c, 0, 71, 0
2, 99797, Note_on_c, 0, 69, 55
2, 99924, Note_on_c, 0, 40, 22
2, 99927, Note_on_c, 0, 69, 0
2, 99936, Note_on_c, 0, 72, 60
2, 99977, Note_on_c, 0, 52, 0
2, 100056, Note_on_c, 0, 72, 0
2, 100069, Note_on_c, 0, 71, 61
2, 100175, Note_on_c, 0, 71, 0
2, 100196, Note_on_c, 0, 69, 45
2, 100198, Control_c, 0, 64, 39
2, 100214, Control_c, 0, 64, 54
2, 100228, Control_c, 0, 64, 59
2, 100244, Control_c, 0, 64, 62
2, 100253, Note_on_c, 0, 40, 0
2, 100259, Control_c, 0, 64, 64
2, 100274, Control_c, 0, 64, 67
2, 100290, Control_c, 0, 64, 75
2, 100304, Control_c, 0, 64, 85
2, 100309, Note_on_c, 0, 69, 0
2, 100319, Control_c, 0, 64, 96
2, 100325, Note_on_c, 0, 68, 56
2, 100335, Control_c, 0, 64, 106
2, 100349, Control_c, 0, 64, 122
2, 100365, Control_c, 0, 64, 127
2, 100493, Note_on_c, 0, 45, 42
2, 100543, Note_on_c, 0, 68, 0
2, 100560, Note_on_c, 0, 69, 56
2, 100610, Control_c, 0, 64, 110
2, 100616, Note_on_c, 0, 69, 0
2, 100625, Control_c, 0, 64, 103
2, 100636, Note_on_c, 0, 68, 63
2, 100639, Control_c, 0, 64, 97
2, 100663, Control_c, 0, 64, 90
2, 100678, Control_c, 0, 64, 82
2, 100694, Control_c, 0, 64, 71
2, 100695, Note_on_c, 0, 68, 0
2, 100709, Control_c, 0, 64, 62
2, 100719, Note_on_c, 0, 69, 51
2, 100725, Control_c, 0, 64, 10
2, 100739, Control_c, 0, 64, 0
2, 100784, Note_on_c, 0, 45, 0
2, 100791, Note_on_c, 0, 47, 42
2, 100876, Note_on_c, 0, 47, 0
2, 100907, Note_on_c, 0, 48, 51
2, 100973, Note_on_c, 0, 48, 0
2, 100990, Note_on_c, 0, 50, 59
2, 101059, Note_on_c, 0, 50, 0
2, 101093, Note_on_c, 0, 52, 55
2, 101179, Note_on_c, 0, 52, 0
2, 101200, Note_on_c, 0, 54, 56
2, 101289, Note_on_c, 0, 54, 0
2, 101320, Note_on_c, 0, 56, 49
2, 101448, Note_on_c, 0, 56, 0
2, 101484, Note_on_c, 0, 57, 36
2, 101673, Control_c, 0, 64, 39
2, 101689, Control_c, 0, 64, 48
2, 101703, Control_c, 0, 64, 53
2, 101718, Control_c, 0, 64, 56
2, 101734, Control_c, 0, 64, 58
2, 101749, Control_c, 0, 64, 59
2, 101758, Note_on_c, 0, 57, 0
2, 101765, Control_c, 0, 64, 60
2, 101794, Control_c, 0, 64, 61
2, 101886, Control_c, 0, 64, 60
2, 101901, Control_c, 0, 64, 59
2, 101915, Control_c, 0, 64, 59
2, 101931, Control_c, 0, 64, 58
2, 101946, Control_c, 0, 64, 57
2, 101961, Control_c, 0, 64, 57
2, 101977, Control_c, 0, 64, 56
2, 101991, Control_c, 0, 64, 56
2, 102007, Control_c, 0, 64, 55
2, 102022, Control_c, 0, 64, 54
2, 102034, Note_on_c, 0, 45, 22
2, 102038, Control_c, 0, 64, 52
2, 102054, Control_c, 0, 64, 49
2, 102069, Control_c, 0, 64, 43
2, 102084, Control_c, 0, 64, 28
2, 102099, Control_c, 0, 64, 0
2, 102335, Control_c, 0, 64, 34
2, 102349, Control_c, 0, 64, 42
2, 102365, Control_c, 0, 64, 45
2, 102380, Control_c, 0, 64, 47
2, 102395, Control_c, 0, 64, 48
2, 102411, Control_c, 0, 64, 50
2, 102425, Control_c, 0, 64, 51
2, 102440, Control_c, 0, 64, 52
2, 102456, Control_c, 0, 64, 53
2, 102471, Control_c, 0, 64, 53
2, 102605, Note_on_c, 0, 69, 0
2, 102611, Note_on_c, 0, 45, 0
2, 102623, Control_c, 0, 64, 53
2, 102638, Control_c, 0, 64, 52
2, 102654, Control_c, 0, 64, 52
2, 102668, Control_c, 0, 64, 51
2, 102684, Control_c, 0, 64, 50
2, 102699, Control_c, 0, 64, 50
2, 102714, Control_c, 0, 64, 49
2, 102730, Control_c, 0, 64, 48
2, 102744, Control_c, 0, 64, 48
2, 102775, Control_c, 0, 64, 47
2, 102790, Control_c, 0, 64, 47
2, 102806, Control_c, 0, 64, 46
2, 102835, Control_c, 0, 64, 46
2, 102852, Control_c, 0, 64, 45
2, 102913, Control_c, 0, 64, 45
2, 103148, Control_c, 0, 64, 44
2, 104731, Control_c, 0, 64, 37
2, 104744, Control_c, 0, 64, 0
2, 104747,End_track
0, 0, End_of_file
