0, 0, Header, 1, 2, 480
1, 0, Start_track
1, 0, Tempo, 500000
1, 0, Time_signature, 4, 2, 24, 8
1, 1, End_track
2,0,Start_track
2,0, Note_on_c, 0, 64, 89
2,802, Note_on_c, 0, 64, 0
2,948, Note_on_c, 0, 60, 74
2,969, Note_on_c, 0, 62, 60
2,1014, Note_on_c, 0, 62, 0
2,1687, Note_on_c, 0, 60, 0
2,1811, Note_on_c, 0, 65, 81
2,2642, Note_on_c, 0, 65, 0
2,2758, Note_on_c, 0, 56, 84
2,3606, Note_on_c, 0, 56, 0
2,4811, Note_on_c, 0, 62, 79
2,4907, Note_on_c, 0, 62, 0
2,5236, Note_on_c, 0, 59, 81
2,5326, Note_on_c, 0, 59, 0
2,5639, Note_on_c, 0, 64, 87
2,5752, Note_on_c, 0, 64, 0
2,6049, Note_on_c, 0, 60, 88
2,6142, Note_on_c, 0, 60, 0
2,6438, Note_on_c, 0, 57, 89
2,6521, Note_on_c, 0, 57, 0
2,6825, Note_on_c, 0, 69, 88
2,6839, Note_on_c, 0, 54, 75
2,6936, Note_on_c, 0, 54, 0
2,7255, Note_on_c, 0, 63, 81
2,7395, Note_on_c, 0, 63, 0
2,7555, Note_on_c, 0, 69, 0
2,7644, Note_on_c, 0, 67, 89
2,7654, Note_on_c, 0, 52, 82
2,7663, Control_c, 0, 64, 17
2,7683, Control_c, 0, 64, 49
2,7701, Control_c, 0, 64, 51
2,7721, Control_c, 0, 64, 49
2,7740, Control_c, 0, 64, 43
2,7758, Control_c, 0, 64, 32
2,7776, Control_c, 0, 64, 8
2,7796, Control_c, 0, 64, 0
2,7840, Note_on_c, 0, 52, 0
2,8066, Note_on_c, 0, 64, 78
2,8111, Note_on_c, 0, 64, 0
2,8158, Note_on_c, 0, 62, 78
2,8244, Note_on_c, 0, 60, 80
2,8244, Note_on_c, 0, 62, 0
2,8318, Note_on_c, 0, 60, 0
2,8325, Note_on_c, 0, 67, 0
2,8346, Note_on_c, 0, 59, 80
2,8439, Note_on_c, 0, 72, 95
2,8444, Note_on_c, 0, 59, 0
2,8448, Note_on_c, 0, 57, 83
2,8471, Control_c, 0, 64, 46
2,8490, Control_c, 0, 64, 66
2,8507, Control_c, 0, 64, 67
2,8528, Control_c, 0, 64, 63
2,8539, Note_on_c, 0, 57, 0
2,8548, Control_c, 0, 64, 56
2,8568, Control_c, 0, 64, 55
2,8583, Control_c, 0, 64, 56
2,8603, Control_c, 0, 64, 57
2,8625, Control_c, 0, 64, 56
2,8641, Control_c, 0, 64, 55
2,8701, Control_c, 0, 64, 54
2,8719, Control_c, 0, 64, 53
2,8739, Control_c, 0, 64, 50
2,8756, Control_c, 0, 64, 37
2,8775, Control_c, 0, 64, 0
2,8841, Note_on_c, 0, 60, 76
2,8887, Note_on_c, 0, 60, 0
2,8931, Note_on_c, 0, 59, 83
2,8989, Note_on_c, 0, 59, 0
2,9020, Note_on_c, 0, 72, 0
2,9031, Note_on_c, 0, 57, 78
2,9095, Note_on_c, 0, 57, 0
2,9136, Note_on_c, 0, 55, 72
2,9192, Note_on_c, 0, 55, 0
2,9209, Note_on_c, 0, 63, 90
2,9243, Note_on_c, 0, 54, 76
2,9254, Control_c, 0, 64, 8
2,9274, Control_c, 0, 64, 59
2,9281, Note_on_c, 0, 54, 0
2,9295, Control_c, 0, 64, 64
2,9315, Control_c, 0, 64, 60
2,9320, Note_on_c, 0, 55, 74
2,9333, Control_c, 0, 64, 52
2,9353, Control_c, 0, 64, 43
2,9371, Control_c, 0, 64, 32
2,9375, Note_on_c, 0, 55, 0
2,9390, Control_c, 0, 64, 20
2,9411, Control_c, 0, 64, 0
2,9411, Note_on_c, 0, 57, 83
2,9710, Note_on_c, 0, 57, 0
2,9712, Note_on_c, 0, 55, 68
2,9785, Note_on_c, 0, 55, 0
2,9812, Note_on_c, 0, 54, 70
2,9870, Note_on_c, 0, 54, 0
2,9902, Note_on_c, 0, 52, 66
2,9962, Note_on_c, 0, 52, 0
2,9998, Note_on_c, 0, 51, 74
2,10042, Note_on_c, 0, 51, 0
2,10086, Note_on_c, 0, 52, 78
2,10142, Note_on_c, 0, 52, 0
2,10184, Note_on_c, 0, 54, 77
2,10459, Note_on_c, 0, 54, 0
2,10487, Note_on_c, 0, 52, 72
2,10558, Note_on_c, 0, 52, 0
2,10586, Note_on_c, 0, 51, 76
2,10635, Note_on_c, 0, 63, 0
2,10662, Note_on_c, 0, 51, 0
2,10669, Note_on_c, 0, 49, 75
2,10760, Note_on_c, 0, 49, 0
2,10778, Note_on_c, 0, 47, 85
2,11157, Note_on_c, 0, 69, 84
2,11234, Note_on_c, 0, 47, 0
2,11287, Note_on_c, 0, 69, 0
2,11361, Note_on_c, 0, 49, 73
2,11409, Note_on_c, 0, 49, 0
2,11449, Note_on_c, 0, 51, 83
2,11519, Note_on_c, 0, 51, 0
2,11547, Note_on_c, 0, 52, 82
2,11555, Note_on_c, 0, 66, 82
2,11608, Note_on_c, 0, 52, 0
2,11643, Note_on_c, 0, 51, 78
2,11647, Note_on_c, 0, 66, 0
2,11687, Note_on_c, 0, 51, 0
2,11730, Note_on_c, 0, 52, 80
2,11800, Note_on_c, 0, 52, 0
2,11820, Note_on_c, 0, 51, 75
2,11897, Note_on_c, 0, 51, 0
2,11924, Note_on_c, 0, 52, 78
2,11935, Note_on_c, 0, 71, 75
2,11949, Note_on_c, 0, 69, 60
2,11981, Note_on_c, 0, 69, 0
2,11992, Note_on_c, 0, 52, 0
2,12001, Note_on_c, 0, 71, 0
2,12021, Note_on_c, 0, 51, 75
2,12076, Note_on_c, 0, 51, 0
2,12115, Note_on_c, 0, 49, 73
2,12186, Note_on_c, 0, 49, 0
2,12207, Note_on_c, 0, 51, 76
2,12314, Note_on_c, 0, 51, 0
2,12334, Note_on_c, 0, 67, 77
2,12343, Note_on_c, 0, 52, 79
2,12365, Control_c, 0, 67, 20
2,12387, Control_c, 0, 67, 35
2,12407, Control_c, 0, 67, 49
2,12424, Control_c, 0, 67, 62
2,12435, Note_on_c, 0, 67, 0
2,12444, Control_c, 0, 67, 72
2,12464, Control_c, 0, 67, 82
2,12464, Note_on_c, 0, 52, 0
2,12484, Control_c, 0, 67, 95
2,12501, Control_c, 0, 67, 109
2,12520, Control_c, 0, 67, 122
2,12539, Control_c, 0, 67, 127
2,12769, Note_on_c, 0, 64, 68
2,12809, Note_on_c, 0, 64, 0
2,12846, Note_on_c, 0, 52, 55
2,12945, Note_on_c, 0, 53, 64
2,12954, Note_on_c, 0, 52, 0
2,12994, Note_on_c, 0, 53, 0
2,13023, Note_on_c, 0, 55, 69
2,13085, Note_on_c, 0, 55, 0
2,13140, Note_on_c, 0, 57, 69
2,13155, Note_on_c, 0, 61, 64
2,13240, Note_on_c, 0, 57, 0
2,13262, Note_on_c, 0, 61, 0
2,13577, Note_on_c, 0, 69, 66
2,13626, Note_on_c, 0, 69, 0
2,13653, Control_c, 0, 67, 126
2,13657, Note_on_c, 0, 55, 61
2,13700, Note_on_c, 0, 55, 0
2,13752, Note_on_c, 0, 53, 65
2,13815, Note_on_c, 0, 53, 0
2,13824, Control_c, 0, 67, 125
2,13848, Note_on_c, 0, 52, 68
2,13865, Control_c, 0, 67, 124
2,13947, Note_on_c, 0, 52, 0
2,13961, Note_on_c, 0, 50, 74
2,13961, Note_on_c, 0, 65, 74
2,14046, Note_on_c, 0, 65, 0
2,14091, Note_on_c, 0, 50, 0
2,14248, Control_c, 0, 67, 123
2,14286, Control_c, 0, 67, 122
2,14361, Control_c, 0, 67, 121
2,14388, Note_on_c, 0, 62, 71
2,14421, Note_on_c, 0, 62, 0
2,14425, Control_c, 0, 67, 120
2,14472, Note_on_c, 0, 50, 63
2,14480, Control_c, 0, 67, 119
2,14535, Control_c, 0, 67, 118
2,14563, Note_on_c, 0, 50, 0
2,14567, Note_on_c, 0, 52, 66
2,14594, Control_c, 0, 67, 117
2,14628, Note_on_c, 0, 52, 0
2,14647, Note_on_c, 0, 53, 74
2,14746, Note_on_c, 0, 53, 0
2,14769, Note_on_c, 0, 59, 76
2,14774, Note_on_c, 0, 55, 73
2,14881, Control_c, 0, 67, 116
2,14909, Note_on_c, 0, 55, 0
2,14918, Control_c, 0, 67, 115
2,14923, Note_on_c, 0, 59, 0
2,14939, Control_c, 0, 67, 114
2,14957, Control_c, 0, 67, 113
2,14978, Control_c, 0, 67, 110
2,14997, Control_c, 0, 67, 102
2,15016, Control_c, 0, 67, 91
2,15034, Control_c, 0, 67, 75
2,15054, Control_c, 0, 67, 55
2,15074, Control_c, 0, 67, 31
2,15092, Control_c, 0, 67, 0
2,15177, Note_on_c, 0, 67, 75
2,15229, Note_on_c, 0, 67, 0
2,15250, Note_on_c, 0, 53, 64
2,15346, Note_on_c, 0, 53, 0
2,15351, Note_on_c, 0, 52, 69
2,15428, Note_on_c, 0, 52, 0
2,15440, Note_on_c, 0, 50, 73
2,15548, Note_on_c, 0, 50, 0
2,15564, Note_on_c, 0, 64, 89
2,15569, Note_on_c, 0, 48, 81
2,15900, Note_on_c, 0, 64, 0
2,15970, Note_on_c, 0, 69, 87
2,16079, Note_on_c, 0, 48, 0
2,16171, Note_on_c, 0, 50, 83
2,16254, Note_on_c, 0, 50, 0
2,16368, Note_on_c, 0, 76, 95
2,16388, Note_on_c, 0, 52, 83
2,16394, Note_on_c, 0, 69, 0
2,16471, Note_on_c, 0, 52, 0
2,16574, Note_on_c, 0, 53, 77
2,16625, Note_on_c, 0, 53, 0
2,16663, Note_on_c, 0, 52, 79
2,16756, Note_on_c, 0, 52, 0
2,16767, Note_on_c, 0, 50, 82
2,16777, Note_on_c, 0, 68, 90
2,16840, Note_on_c, 0, 50, 0
2,16851, Note_on_c, 0, 76, 0
2,16974, Note_on_c, 0, 52, 85
2,17028, Note_on_c, 0, 52, 0
2,17162, Note_on_c, 0, 72, 96
2,17175, Note_on_c, 0, 68, 0
2,17195, Note_on_c, 0, 57, 86
2,17198, Note_on_c, 0, 53, 68
2,17591, Note_on_c, 0, 69, 77
2,17607, Note_on_c, 0, 53, 0
2,17616, Note_on_c, 0, 72, 0
2,17661, Note_on_c, 0, 57, 0
2,17682, Note_on_c, 0, 67, 79
2,17724, Note_on_c, 0, 69, 0
2,17774, Note_on_c, 0, 65, 76
2,17787, Note_on_c, 0, 67, 0
2,17839, Note_on_c, 0, 65, 0
2,17870, Note_on_c, 0, 64, 83
2,17941, Note_on_c, 0, 64, 0
2,17981, Note_on_c, 0, 62, 82
2,17981, Note_on_c, 0, 77, 97
2,18030, Control_c, 0, 64, 28
2,18048, Control_c, 0, 64, 54
2,18070, Control_c, 0, 64, 52
2,18091, Control_c, 0, 64, 48
2,18107, Control_c, 0, 64, 42
2,18128, Control_c, 0, 64, 40
2,18146, Control_c, 0, 64, 41
2,18166, Control_c, 0, 64, 42
2,18182, Control_c, 0, 64, 43
2,18279, Control_c, 0, 64, 42
2,18302, Control_c, 0, 64, 36
2,18321, Control_c, 0, 64, 0
2,18358, Note_on_c, 0, 77, 0
2,18364, Note_on_c, 0, 62, 0
2,18398, Note_on_c, 0, 65, 76
2,18438, Note_on_c, 0, 65, 0
2,18491, Note_on_c, 0, 64, 78
2,18528, Note_on_c, 0, 64, 0
2,18582, Note_on_c, 0, 62, 81
2,18658, Note_on_c, 0, 62, 0
2,18680, Note_on_c, 0, 60, 63
2,18726, Note_on_c, 0, 60, 0
2,18756, Note_on_c, 0, 59, 79
2,18766, Note_on_c, 0, 68, 85
2,18779, Control_c, 0, 64, 18
2,18798, Control_c, 0, 64, 50
2,18818, Control_c, 0, 64, 58
2,18827, Note_on_c, 0, 59, 0
2,18842, Note_on_c, 0, 60, 74
2,18856, Control_c, 0, 64, 56
2,18894, Control_c, 0, 64, 55
2,18922, Note_on_c, 0, 60, 0
2,18934, Control_c, 0, 64, 54
2,18957, Note_on_c, 0, 62, 79
2,18972, Control_c, 0, 64, 55
2,19000, Note_on_c, 0, 62, 0
2,19065, Control_c, 0, 64, 54
2,19087, Control_c, 0, 64, 53
2,19105, Control_c, 0, 64, 49
2,19124, Control_c, 0, 64, 41
2,19142, Control_c, 0, 64, 0
2,19171, Note_on_c, 0, 53, 75
2,19229, Note_on_c, 0, 53, 0
2,19249, Note_on_c, 0, 68, 0
2,19260, Note_on_c, 0, 60, 68
2,19316, Note_on_c, 0, 60, 0
2,19363, Note_on_c, 0, 59, 74
2,19450, Note_on_c, 0, 59, 0
2,19464, Note_on_c, 0, 57, 68
2,19524, Note_on_c, 0, 57, 0
2,19548, Note_on_c, 0, 56, 72
2,19568, Note_on_c, 0, 47, 70
2,19612, Note_on_c, 0, 47, 0
2,19642, Note_on_c, 0, 57, 82
2,19648, Note_on_c, 0, 56, 0
2,19753, Note_on_c, 0, 59, 83
2,19758, Note_on_c, 0, 57, 0
2,19964, Note_on_c, 0, 50, 73
2,20009, Note_on_c, 0, 50, 0
2,20063, Note_on_c, 0, 57, 72
2,20084, Note_on_c, 0, 59, 0
2,20153, Note_on_c, 0, 56, 72
2,20218, Note_on_c, 0, 57, 0
2,20251, Note_on_c, 0, 54, 74
2,20283, Note_on_c, 0, 56, 0
2,20326, Note_on_c, 0, 54, 0
2,20348, Note_on_c, 0, 52, 83
2,20354, Note_on_c, 0, 44, 82
2,20385, Note_on_c, 0, 50, 49
2,20394, Control_c, 0, 64, 15
2,20410, Control_c, 0, 64, 0
2,20431, Note_on_c, 0, 50, 0
2,20436, Note_on_c, 0, 44, 0
2,20488, Control_c, 0, 64, 10
2,20524, Control_c, 0, 64, 0
2,20755, Note_on_c, 0, 74, 86
2,20777, Note_on_c, 0, 47, 59
2,20788, Note_on_c, 0, 52, 0
2,20839, Note_on_c, 0, 47, 0
2,20891, Note_on_c, 0, 74, 0
2,20969, Note_on_c, 0, 54, 74
2,21077, Note_on_c, 0, 54, 0
2,21077, Note_on_c, 0, 56, 80
2,21106, Note_on_c, 0, 52, 57
2,21156, Note_on_c, 0, 56, 0
2,21158, Note_on_c, 0, 71, 83
2,21171, Note_on_c, 0, 57, 83
2,21258, Note_on_c, 0, 57, 0
2,21265, Note_on_c, 0, 56, 81
2,21284, Note_on_c, 0, 52, 0
2,21337, Note_on_c, 0, 56, 0
2,21381, Note_on_c, 0, 57, 77
2,21395, Note_on_c, 0, 71, 0
2,21430, Note_on_c, 0, 57, 0
2,21468, Note_on_c, 0, 56, 70
2,21537, Note_on_c, 0, 56, 0
2,21550, Note_on_c, 0, 76, 83
2,21566, Note_on_c, 0, 57, 75
2,21625, Note_on_c, 0, 57, 0
2,21660, Control_c, 0, 67, 15
2,21672, Note_on_c, 0, 56, 70
2,21678, Control_c, 0, 67, 24
2,21697, Control_c, 0, 67, 32
2,21712, Note_on_c, 0, 56, 0
2,21716, Control_c, 0, 67, 41
2,21735, Control_c, 0, 67, 51
2,21755, Control_c, 0, 67, 64
2,21768, Note_on_c, 0, 54, 67
2,21773, Control_c, 0, 67, 80
2,21793, Control_c, 0, 67, 96
2,21812, Control_c, 0, 67, 111
2,21817, Note_on_c, 0, 54, 0
2,21833, Control_c, 0, 67, 125
2,21845, Note_on_c, 0, 56, 68
2,21851, Control_c, 0, 67, 127
2,21883, Note_on_c, 0, 76, 0
2,21900, Note_on_c, 0, 56, 0
2,21948, Note_on_c, 0, 72, 84
2,21959, Note_on_c, 0, 57, 80
2,21980, Note_on_c, 0, 45, 70
2,22095, Note_on_c, 0, 72, 0
2,22099, Note_on_c, 0, 45, 0
2,22132, Note_on_c, 0, 57, 0
2,22391, Note_on_c, 0, 69, 70
2,22426, Note_on_c, 0, 69, 0
2,22506, Note_on_c, 0, 57, 63
2,22589, Note_on_c, 0, 59, 67
2,22614, Note_on_c, 0, 57, 0
2,22675, Note_on_c, 0, 59, 0
2,22688, Note_on_c, 0, 60, 63
2,22771, Note_on_c, 0, 60, 0
2,22794, Note_on_c, 0, 66, 78
2,22810, Note_on_c, 0, 62, 69
2,22897, Note_on_c, 0, 66, 0
2,23121, Note_on_c, 0, 62, 0
2,23219, Note_on_c, 0, 74, 65
2,23234, Note_on_c, 0, 54, 56
2,23263, Note_on_c, 0, 74, 0
2,23319, Note_on_c, 0, 60, 66
2,23363, Note_on_c, 0, 60, 0
2,23410, Note_on_c, 0, 59, 67
2,23429, Note_on_c, 0, 54, 0
2,23466, Note_on_c, 0, 59, 0
2,23507, Note_on_c, 0, 57, 62
2,23604, Note_on_c, 0, 57, 0
2,23606, Note_on_c, 0, 71, 76
2,23630, Note_on_c, 0, 55, 67
2,23700, Note_on_c, 0, 71, 0
2,23835, Note_on_c, 0, 55, 0
2,24042, Note_on_c, 0, 67, 69
2,24074, Note_on_c, 0, 67, 0
2,24152, Note_on_c, 0, 55, 60
2,24249, Note_on_c, 0, 55, 0
2,24254, Note_on_c, 0, 57, 59
2,24303, Note_on_c, 0, 57, 0
2,24331, Note_on_c, 0, 59, 69
2,24395, Note_on_c, 0, 59, 0
2,24448, Note_on_c, 0, 60, 69
2,24448, Note_on_c, 0, 64, 69
2,24568, Note_on_c, 0, 64, 0
2,24772, Note_on_c, 0, 60, 0
2,24847, Note_on_c, 0, 52, 55
2,24858, Note_on_c, 0, 72, 74
2,24902, Note_on_c, 0, 72, 0
2,24958, Note_on_c, 0, 58, 60
2,25011, Note_on_c, 0, 58, 0
2,25060, Note_on_c, 0, 57, 68
2,25103, Note_on_c, 0, 52, 0
2,25111, Note_on_c, 0, 57, 0
2,25155, Note_on_c, 0, 55, 62
2,25234, Note_on_c, 0, 55, 0
2,25258, Note_on_c, 0, 69, 71
2,25262, Note_on_c, 0, 53, 66
2,25460, Control_c, 0, 67, 125
2,25469, Note_on_c, 0, 65, 66
2,25479, Control_c, 0, 67, 115
2,25498, Control_c, 0, 67, 102
2,25518, Control_c, 0, 67, 86
2,25536, Control_c, 0, 67, 65
2,25555, Control_c, 0, 67, 37
2,25575, Control_c, 0, 67, 0
2,25620, Note_on_c, 0, 65, 0
2,25672, Note_on_c, 0, 71, 80
2,25681, Note_on_c, 0, 55, 64
2,25688, Note_on_c, 0, 69, 0
2,25708, Note_on_c, 0, 53, 0
2,25894, Note_on_c, 0, 65, 71
2,26104, Note_on_c, 0, 65, 0
2,26104, Note_on_c, 0, 72, 75
2,26108, Note_on_c, 0, 57, 58
2,26117, Note_on_c, 0, 71, 0
2,26137, Note_on_c, 0, 55, 0
2,26202, Note_on_c, 0, 64, 72
2,26303, Note_on_c, 0, 65, 66
2,26315, Note_on_c, 0, 64, 0
2,26319, Note_on_c, 0, 72, 0
2,26396, Note_on_c, 0, 67, 72
2,26401, Note_on_c, 0, 65, 0
2,26488, Note_on_c, 0, 55, 64
2,26488, Note_on_c, 0, 57, 0
2,26488, Note_on_c, 0, 69, 74
2,26493, Note_on_c, 0, 67, 0
2,26574, Note_on_c, 0, 67, 77
2,26670, Note_on_c, 0, 69, 0
2,26683, Note_on_c, 0, 65, 70
2,26700, Note_on_c, 0, 67, 0
2,26772, Note_on_c, 0, 65, 0
2,26776, Note_on_c, 0, 64, 76
2,26831, Note_on_c, 0, 64, 0
2,26836, Note_on_c, 0, 55, 0
2,26888, Note_on_c, 0, 53, 68
2,26899, Note_on_c, 0, 62, 74
2,27008, Note_on_c, 0, 72, 84
2,27084, Note_on_c, 0, 72, 0
2,27104, Note_on_c, 0, 74, 81
2,27197, Note_on_c, 0, 76, 87
2,27206, Note_on_c, 0, 74, 0
2,27294, Note_on_c, 0, 50, 83
2,27299, Note_on_c, 0, 76, 0
2,27299, Note_on_c, 0, 77, 85
2,27303, Note_on_c, 0, 53, 0
2,27395, Note_on_c, 0, 76, 82
2,27473, Note_on_c, 0, 77, 0
2,27495, Note_on_c, 0, 74, 81
2,27521, Note_on_c, 0, 76, 0
2,27587, Note_on_c, 0, 74, 0
2,27591, Note_on_c, 0, 72, 83
2,27600, Note_on_c, 0, 62, 0
2,27633, Note_on_c, 0, 72, 0
2,27713, Note_on_c, 0, 50, 0
2,27729, Note_on_c, 0, 55, 91
2,27739, Note_on_c, 0, 71, 84
2,27814, Note_on_c, 0, 71, 0
2,27832, Note_on_c, 0, 62, 81
2,27935, Note_on_c, 0, 62, 0
2,27958, Note_on_c, 0, 64, 63
2,28044, Note_on_c, 0, 64, 0
2,28050, Note_on_c, 0, 65, 74
2,28151, Note_on_c, 0, 53, 76
2,28155, Note_on_c, 0, 65, 0
2,28159, Note_on_c, 0, 67, 78
2,28243, Note_on_c, 0, 53, 0
2,28258, Note_on_c, 0, 65, 80
2,28310, Note_on_c, 0, 67, 0
2,28356, Note_on_c, 0, 64, 75
2,28356, Note_on_c, 0, 65, 0
2,28428, Note_on_c, 0, 64, 0
2,28436, Note_on_c, 0, 62, 84
2,28489, Note_on_c, 0, 62, 0
2,28539, Note_on_c, 0, 55, 0
2,28553, Note_on_c, 0, 60, 96
2,28558, Note_on_c, 0, 52, 89
2,28972, Note_on_c, 0, 55, 82
2,28976, Note_on_c, 0, 84, 86
2,29001, Note_on_c, 0, 53, 41
2,29041, Note_on_c, 0, 53, 0
2,29053, Note_on_c, 0, 52, 0
2,29062, Note_on_c, 0, 55, 0
2,29071, Note_on_c, 0, 83, 84
2,29126, Note_on_c, 0, 84, 0
2,29164, Note_on_c, 0, 81, 82
2,29169, Note_on_c, 0, 60, 0
2,29214, Note_on_c, 0, 83, 0
2,29256, Note_on_c, 0, 79, 91
2,29272, Note_on_c, 0, 81, 0
2,29332, Note_on_c, 0, 79, 0
2,29360, Control_c, 0, 64, 37
2,29369, Note_on_c, 0, 77, 100
2,29373, Note_on_c, 0, 57, 88
2,29377, Note_on_c, 0, 60, 84
2,29382, Control_c, 0, 64, 48
2,29401, Control_c, 0, 64, 47
2,29419, Control_c, 0, 64, 46
2,29437, Control_c, 0, 64, 47
2,29456, Control_c, 0, 64, 49
2,29476, Control_c, 0, 64, 50
2,29495, Control_c, 0, 64, 51
2,29611, Control_c, 0, 64, 50
2,29629, Control_c, 0, 64, 46
2,29649, Control_c, 0, 64, 11
2,29649, Note_on_c, 0, 77, 0
2,29667, Control_c, 0, 64, 0
2,29771, Note_on_c, 0, 81, 83
2,29782, Note_on_c, 0, 65, 72
2,29833, Note_on_c, 0, 60, 0
2,29840, Note_on_c, 0, 65, 0
2,29863, Note_on_c, 0, 79, 88
2,29868, Note_on_c, 0, 57, 0
2,29922, Note_on_c, 0, 81, 0
2,29965, Note_on_c, 0, 77, 83
2,29974, Note_on_c, 0, 79, 0
2,30032, Note_on_c, 0, 77, 0
2,30053, Note_on_c, 0, 76, 79
2,30113, Note_on_c, 0, 76, 0
2,30156, Note_on_c, 0, 74, 83
2,30167, Control_c, 0, 64, 33
2,30172, Note_on_c, 0, 47, 80
2,30186, Control_c, 0, 64, 68
2,30202, Control_c, 0, 64, 76
2,30222, Control_c, 0, 64, 79
2,30241, Control_c, 0, 64, 75
2,30245, Note_on_c, 0, 76, 94
2,30250, Note_on_c, 0, 74, 0
2,30283, Note_on_c, 0, 47, 0
2,30358, Note_on_c, 0, 77, 89
2,30370, Note_on_c, 0, 76, 0
2,30432, Control_c, 0, 64, 74
2,30452, Control_c, 0, 64, 72
2,30472, Control_c, 0, 64, 68
2,30490, Control_c, 0, 64, 62
2,30510, Control_c, 0, 64, 48
2,30527, Control_c, 0, 64, 0
2,30576, Note_on_c, 0, 69, 65
2,30627, Note_on_c, 0, 69, 0
2,30676, Note_on_c, 0, 76, 75
2,30720, Note_on_c, 0, 77, 0
2,30761, Note_on_c, 0, 74, 78
2,30775, Note_on_c, 0, 76, 0
2,30832, Note_on_c, 0, 74, 0
2,30869, Note_on_c, 0, 72, 69
2,30926, Note_on_c, 0, 72, 0
2,30957, Note_on_c, 0, 62, 63
2,30961, Note_on_c, 0, 71, 78
2,31000, Note_on_c, 0, 62, 0
2,31020, Note_on_c, 0, 71, 0
2,31057, Note_on_c, 0, 72, 82
2,31153, Note_on_c, 0, 72, 0
2,31158, Note_on_c, 0, 74, 79
2,31370, Note_on_c, 0, 65, 68
2,31424, Note_on_c, 0, 65, 0
2,31463, Note_on_c, 0, 72, 73
2,31506, Note_on_c, 0, 74, 0
2,31557, Note_on_c, 0, 71, 77
2,31570, Note_on_c, 0, 72, 0
2,31610, Note_on_c, 0, 71, 0
2,31652, Note_on_c, 0, 69, 68
2,31743, Note_on_c, 0, 69, 0
2,31754, Note_on_c, 0, 67, 75
2,31761, Note_on_c, 0, 59, 67
2,31854, Note_on_c, 0, 59, 0
2,32149, Note_on_c, 0, 67, 0
2,32168, Note_on_c, 0, 53, 86
2,32175, Note_on_c, 0, 62, 76
2,32305, Note_on_c, 0, 53, 0
2,32312, Note_on_c, 0, 62, 0
2,32387, Note_on_c, 0, 69, 74
2,32477, Note_on_c, 0, 71, 81
2,32485, Note_on_c, 0, 69, 0
2,32563, Note_on_c, 0, 71, 0
2,32572, Note_on_c, 0, 50, 79
2,32576, Note_on_c, 0, 65, 77
2,32576, Note_on_c, 0, 72, 90
2,32657, Note_on_c, 0, 65, 0
2,32679, Note_on_c, 0, 71, 85
2,32684, Note_on_c, 0, 72, 0
2,32752, Note_on_c, 0, 50, 0
2,32761, Note_on_c, 0, 71, 0
2,32766, Note_on_c, 0, 72, 82
2,32868, Note_on_c, 0, 72, 0
2,32870, Note_on_c, 0, 71, 78
2,32943, Note_on_c, 0, 71, 0
2,32970, Note_on_c, 0, 55, 78
2,32970, Note_on_c, 0, 62, 73
2,32979, Note_on_c, 0, 72, 78
2,33058, Note_on_c, 0, 62, 0
2,33071, Note_on_c, 0, 71, 83
2,33091, Note_on_c, 0, 72, 0
2,33159, Note_on_c, 0, 71, 0
2,33176, Note_on_c, 0, 69, 75
2,33207, Note_on_c, 0, 55, 0
2,33260, Note_on_c, 0, 69, 0
2,33267, Note_on_c, 0, 71, 75
2,33343, Note_on_c, 0, 71, 0
2,33366, Note_on_c, 0, 72, 81
2,33374, Note_on_c, 0, 52, 78
2,33387, Note_on_c, 0, 67, 70
2,33656, Note_on_c, 0, 72, 0
2,33669, Note_on_c, 0, 67, 0
2,33780, Note_on_c, 0, 60, 83
2,33837, Note_on_c, 0, 52, 0
2,33996, Note_on_c, 0, 52, 75
2,34058, Note_on_c, 0, 52, 0
2,34073, Note_on_c, 0, 60, 0
2,34097, Note_on_c, 0, 54, 76
2,34156, Note_on_c, 0, 54, 0
2,34188, Note_on_c, 0, 55, 79
2,34192, Note_on_c, 0, 57, 88
2,34261, Note_on_c, 0, 55, 0
2,34282, Note_on_c, 0, 54, 77
2,34353, Note_on_c, 0, 54, 0
2,34390, Note_on_c, 0, 55, 76
2,34445, Note_on_c, 0, 57, 0
2,34454, Note_on_c, 0, 55, 0
2,34491, Note_on_c, 0, 54, 71
2,34566, Note_on_c, 0, 54, 0
2,34596, Note_on_c, 0, 55, 77
2,34596, Note_on_c, 0, 62, 86
2,34657, Note_on_c, 0, 55, 0
2,34701, Note_on_c, 0, 54, 74
2,34756, Note_on_c, 0, 54, 0
2,34787, Note_on_c, 0, 52, 70
2,34856, Note_on_c, 0, 52, 0
2,34885, Note_on_c, 0, 54, 72
2,34929, Note_on_c, 0, 62, 0
2,34948, Note_on_c, 0, 54, 0
2,34983, Note_on_c, 0, 59, 81
2,34990, Note_on_c, 0, 55, 73
2,35388, Note_on_c, 0, 55, 0
2,35393, Note_on_c, 0, 59, 0
2,35406, Note_on_c, 0, 67, 85
2,35410, Note_on_c, 0, 52, 73
2,35441, Note_on_c, 0, 52, 0
2,35602, Note_on_c, 0, 59, 72
2,35623, Note_on_c, 0, 67, 0
2,35700, Note_on_c, 0, 61, 78
2,35707, Note_on_c, 0, 59, 0
2,35755, Note_on_c, 0, 61, 0
2,35796, Note_on_c, 0, 64, 77
2,35800, Note_on_c, 0, 62, 79
2,35804, Note_on_c, 0, 57, 63
2,35881, Note_on_c, 0, 62, 0
2,35892, Note_on_c, 0, 61, 75
2,35964, Note_on_c, 0, 61, 0
2,36010, Note_on_c, 0, 62, 75
2,36047, Note_on_c, 0, 64, 0
2,36070, Note_on_c, 0, 62, 0
2,36103, Note_on_c, 0, 61, 71
2,36175, Note_on_c, 0, 61, 0
2,36188, Note_on_c, 0, 69, 82
2,36215, Note_on_c, 0, 62, 72
2,36274, Note_on_c, 0, 57, 0
2,36281, Note_on_c, 0, 62, 0
2,36310, Note_on_c, 0, 61, 73
2,36360, Note_on_c, 0, 61, 0
2,36404, Note_on_c, 0, 59, 78
2,36491, Note_on_c, 0, 59, 0
2,36498, Note_on_c, 0, 61, 72
2,36558, Note_on_c, 0, 61, 0
2,36558, Note_on_c, 0, 69, 0
2,36597, Note_on_c, 0, 66, 87
2,36601, Note_on_c, 0, 62, 83
2,37009, Note_on_c, 0, 50, 87
2,37059, Note_on_c, 0, 66, 0
2,37214, Note_on_c, 0, 66, 78
2,37266, Note_on_c, 0, 62, 0
2,37287, Note_on_c, 0, 50, 0
2,37305, Note_on_c, 0, 68, 88
2,37332, Note_on_c, 0, 66, 0
2,37404, Note_on_c, 0, 69, 83
2,37412, Note_on_c, 0, 47, 86
2,37416, Note_on_c, 0, 68, 0
2,37504, Note_on_c, 0, 68, 82
2,37513, Note_on_c, 0, 69, 0
2,37595, Note_on_c, 0, 68, 0
2,37610, Note_on_c, 0, 69, 80
2,37708, Note_on_c, 0, 68, 83
2,37708, Note_on_c, 0, 69, 0
2,37753, Note_on_c, 0, 47, 0
2,37790, Note_on_c, 0, 68, 0
2,37797, Note_on_c, 0, 69, 72
2,37812, Note_on_c, 0, 52, 92
2,37900, Note_on_c, 0, 68, 85
2,37939, Note_on_c, 0, 69, 0
2,37991, Note_on_c, 0, 66, 84
2,37995, Note_on_c, 0, 52, 0
2,38003, Note_on_c, 0, 68, 0
2,38097, Note_on_c, 0, 68, 86
2,38108, Note_on_c, 0, 66, 0
2,38167, Note_on_c, 0, 68, 0
2,38183, Note_on_c, 0, 48, 87
2,38195, Note_on_c, 0, 69, 91
2,38373, Note_on_c, 0, 69, 0
2,38416, Note_on_c, 0, 71, 84
2,38487, Note_on_c, 0, 48, 0
2,38508, Note_on_c, 0, 71, 0
2,38508, Note_on_c, 0, 72, 91
2,38558, Note_on_c, 0, 72, 0
2,38594, Note_on_c, 0, 45, 84
2,38599, Note_on_c, 0, 74, 89
2,38674, Note_on_c, 0, 74, 0
2,38687, Note_on_c, 0, 76, 90
2,38789, Note_on_c, 0, 78, 80
2,38823, Note_on_c, 0, 76, 0
2,38885, Note_on_c, 0, 80, 83
2,38928, Note_on_c, 0, 45, 0
2,38950, Note_on_c, 0, 78, 0
2,38974, Note_on_c, 0, 81, 96
2,38981, Note_on_c, 0, 42, 87
2,39011, Note_on_c, 0, 80, 0
2,39148, Control_c, 0, 64, 19
2,39168, Control_c, 0, 64, 27
2,39179, Note_on_c, 0, 72, 93
2,39188, Control_c, 0, 64, 31
2,39207, Control_c, 0, 64, 33
2,39211, Note_on_c, 0, 42, 0
2,39227, Control_c, 0, 64, 34
2,39284, Control_c, 0, 64, 29
2,39303, Control_c, 0, 64, 0
2,39378, Note_on_c, 0, 71, 83
2,39395, Note_on_c, 0, 72, 0
2,39404, Note_on_c, 0, 51, 90
2,39521, Note_on_c, 0, 71, 0
2,39531, Note_on_c, 0, 51, 0
2,39580, Note_on_c, 0, 78, 89
2,39617, Note_on_c, 0, 81, 0
2,39808, Note_on_c, 0, 79, 97
2,39813, Note_on_c, 0, 40, 87
2,39824, Control_c, 0, 64, 65
2,39840, Note_on_c, 0, 78, 0
2,39842, Control_c, 0, 64, 80
2,39863, Control_c, 0, 64, 91
2,39878, Control_c, 0, 64, 92
2,39898, Control_c, 0, 64, 95
2,39917, Control_c, 0, 64, 98
2,39938, Control_c, 0, 64, 103
2,39949, Note_on_c, 0, 40, 0
2,39958, Control_c, 0, 64, 106
2,39994, Control_c, 0, 64, 107
2,40033, Note_on_c, 0, 71, 91
2,40071, Control_c, 0, 64, 106
2,40090, Control_c, 0, 64, 103
2,40107, Control_c, 0, 64, 100
2,40127, Control_c, 0, 64, 97
2,40147, Control_c, 0, 64, 96
2,40173, Note_on_c, 0, 79, 0
2,40194, Note_on_c, 0, 71, 0
2,40226, Control_c, 0, 64, 95
2,40244, Control_c, 0, 64, 94
2,40253, Note_on_c, 0, 76, 87
2,40263, Control_c, 0, 64, 93
2,40284, Control_c, 0, 64, 91
2,40304, Control_c, 0, 64, 89
2,40320, Control_c, 0, 64, 86
2,40336, Note_on_c, 0, 74, 86
2,40341, Control_c, 0, 64, 83
2,40359, Control_c, 0, 64, 79
2,40373, Note_on_c, 0, 76, 0
2,40382, Control_c, 0, 64, 75
2,40397, Control_c, 0, 64, 71
2,40418, Control_c, 0, 64, 69
2,40434, Note_on_c, 0, 72, 86
2,40438, Control_c, 0, 64, 68
2,40438, Note_on_c, 0, 74, 0
2,40488, Note_on_c, 0, 72, 0
2,40492, Control_c, 0, 64, 67
2,40513, Control_c, 0, 64, 65
2,40528, Note_on_c, 0, 71, 83
2,40534, Control_c, 0, 64, 63
2,40551, Control_c, 0, 64, 55
2,40572, Control_c, 0, 64, 29
2,40588, Control_c, 0, 64, 0
2,40595, Note_on_c, 0, 71, 0
2,40621, Note_on_c, 0, 69, 83
2,40630, Note_on_c, 0, 84, 93
2,40725, Control_c, 0, 64, 15
2,40743, Control_c, 0, 64, 45
2,40782, Control_c, 0, 64, 40
2,40802, Control_c, 0, 64, 37
2,40819, Control_c, 0, 64, 38
2,40839, Control_c, 0, 64, 41
2,40857, Control_c, 0, 64, 43
2,40935, Control_c, 0, 64, 44
2,40954, Control_c, 0, 64, 41
2,40972, Control_c, 0, 64, 24
2,40994, Control_c, 0, 64, 0
2,40994, Note_on_c, 0, 84, 0
2,41010, Note_on_c, 0, 69, 0
2,41036, Note_on_c, 0, 72, 81
2,41071, Control_c, 0, 64, 24
2,41088, Control_c, 0, 64, 29
2,41110, Control_c, 0, 64, 0
2,41117, Note_on_c, 0, 72, 0
2,41131, Note_on_c, 0, 71, 78
2,41186, Note_on_c, 0, 71, 0
2,41229, Note_on_c, 0, 69, 79
2,41298, Note_on_c, 0, 69, 0
2,41320, Note_on_c, 0, 67, 79
2,41376, Note_on_c, 0, 67, 0
2,41402, Note_on_c, 0, 75, 88
2,41415, Note_on_c, 0, 66, 80
2,41419, Control_c, 0, 64, 41
2,41432, Control_c, 0, 64, 69
2,41452, Control_c, 0, 64, 77
2,41474, Control_c, 0, 64, 78
2,41478, Note_on_c, 0, 66, 0
2,41491, Control_c, 0, 64, 77
2,41506, Note_on_c, 0, 67, 78
2,41549, Control_c, 0, 64, 76
2,41575, Note_on_c, 0, 67, 0
2,41588, Control_c, 0, 64, 75
2,41607, Control_c, 0, 64, 74
2,41618, Note_on_c, 0, 69, 71
2,41658, Note_on_c, 0, 69, 0
2,41705, Control_c, 0, 64, 72
2,41721, Control_c, 0, 64, 69
2,41741, Control_c, 0, 64, 64
2,41760, Control_c, 0, 64, 55
2,41778, Control_c, 0, 64, 20
2,41799, Control_c, 0, 64, 0
2,41814, Note_on_c, 0, 60, 75
2,41866, Note_on_c, 0, 60, 0
2,41898, Note_on_c, 0, 67, 64
2,41902, Note_on_c, 0, 75, 0
2,41937, Note_on_c, 0, 67, 0
2,41995, Note_on_c, 0, 66, 75
2,42051, Note_on_c, 0, 66, 0
2,42095, Note_on_c, 0, 64, 74
2,42182, Note_on_c, 0, 54, 66
2,42182, Note_on_c, 0, 64, 0
2,42196, Note_on_c, 0, 63, 72
2,42212, Note_on_c, 0, 54, 0
2,42276, Note_on_c, 0, 63, 0
2,42280, Note_on_c, 0, 64, 74
2,42386, Note_on_c, 0, 66, 77
2,42390, Note_on_c, 0, 64, 0
2,42581, Note_on_c, 0, 66, 0
2,42585, Note_on_c, 0, 57, 79
2,42626, Note_on_c, 0, 57, 0
2,42682, Note_on_c, 0, 64, 75
2,42765, Note_on_c, 0, 63, 74
2,42784, Note_on_c, 0, 64, 0
2,42854, Note_on_c, 0, 61, 70
2,42876, Note_on_c, 0, 63, 0
2,42949, Note_on_c, 0, 61, 0
2,42969, Note_on_c, 0, 59, 86
2,42974, Note_on_c, 0, 51, 74
2,43032, Note_on_c, 0, 51, 0
2,43390, Note_on_c, 0, 54, 66
2,43390, Note_on_c, 0, 81, 82
2,43408, Note_on_c, 0, 59, 0
2,43487, Note_on_c, 0, 54, 0
2,43505, Note_on_c, 0, 81, 0
2,43590, Note_on_c, 0, 61, 68
2,43699, Note_on_c, 0, 61, 0
2,43699, Note_on_c, 0, 63, 79
2,43764, Note_on_c, 0, 59, 36
2,43775, Note_on_c, 0, 63, 0
2,43777, Note_on_c, 0, 78, 80
2,43801, Note_on_c, 0, 64, 78
2,43875, Note_on_c, 0, 64, 0
2,43901, Note_on_c, 0, 63, 76
2,43968, Note_on_c, 0, 63, 0
2,44002, Note_on_c, 0, 64, 76
2,44011, Note_on_c, 0, 59, 0
2,44032, Note_on_c, 0, 78, 0
2,44070, Note_on_c, 0, 64, 0
2,44091, Note_on_c, 0, 63, 68
2,44148, Note_on_c, 0, 63, 0
2,44183, Note_on_c, 0, 83, 83
2,44204, Note_on_c, 0, 64, 73
2,44260, Note_on_c, 0, 64, 0
2,44293, Note_on_c, 0, 63, 69
2,44313, Control_c, 0, 67, 9
2,44329, Note_on_c, 0, 63, 0
2,44334, Control_c, 0, 67, 14
2,44352, Control_c, 0, 67, 19
2,44361, Note_on_c, 0, 61, 68
2,44371, Control_c, 0, 67, 29
2,44391, Control_c, 0, 67, 48
2,44410, Control_c, 0, 67, 68
2,44430, Control_c, 0, 67, 86
2,44430, Note_on_c, 0, 61, 0
2,44448, Control_c, 0, 67, 102
2,44454, Note_on_c, 0, 63, 62
2,44466, Control_c, 0, 67, 115
2,44488, Control_c, 0, 67, 127
2,44501, Note_on_c, 0, 63, 0
2,44563, Note_on_c, 0, 83, 0
2,44572, Note_on_c, 0, 79, 86
2,44592, Note_on_c, 0, 64, 68
2,44597, Note_on_c, 0, 52, 67
2,44684, Note_on_c, 0, 79, 0
2,44722, Note_on_c, 0, 64, 0
2,44760, Note_on_c, 0, 52, 0
2,45020, Note_on_c, 0, 76, 72
2,45058, Note_on_c, 0, 76, 0
2,45125, Note_on_c, 0, 40, 54
2,45209, Note_on_c, 0, 40, 0
2,45223, Note_on_c, 0, 41, 56
2,45273, Note_on_c, 0, 41, 0
2,45298, Note_on_c, 0, 43, 62
2,45360, Note_on_c, 0, 43, 0
2,45412, Note_on_c, 0, 45, 66
2,45416, Note_on_c, 0, 73, 81
2,45517, Note_on_c, 0, 45, 0
2,45544, Note_on_c, 0, 73, 0
2,45861, Note_on_c, 0, 81, 68
2,45910, Note_on_c, 0, 81, 0
2,45970, Note_on_c, 0, 43, 55
2,46019, Note_on_c, 0, 43, 0
2,46064, Note_on_c, 0, 41, 59
2,46128, Note_on_c, 0, 41, 0
2,46162, Note_on_c, 0, 40, 61
2,46233, Note_on_c, 0, 40, 0
2,46260, Note_on_c, 0, 77, 72
2,46268, Note_on_c, 0, 38, 69
2,46304, Note_on_c, 0, 38, 0
2,46449, Note_on_c, 0, 77, 0
2,46702, Note_on_c, 0, 62, 69
2,46740, Note_on_c, 0, 62, 0
2,46790, Note_on_c, 0, 74, 67
2,46876, Note_on_c, 0, 74, 0
2,46883, Note_on_c, 0, 76, 70
2,46961, Note_on_c, 0, 76, 0
2,46965, Note_on_c, 0, 77, 80
2,47076, Note_on_c, 0, 79, 76
2,47080, Note_on_c, 0, 77, 0
2,47095, Note_on_c, 0, 59, 69
2,47176, Note_on_c, 0, 59, 0
2,47262, Note_on_c, 0, 79, 0
2,47523, Note_on_c, 0, 67, 64
2,47563, Note_on_c, 0, 67, 0
2,47615, Note_on_c, 0, 77, 71
2,47712, Note_on_c, 0, 76, 75
2,47741, Note_on_c, 0, 77, 0
2,47801, Note_on_c, 0, 74, 75
2,47806, Note_on_c, 0, 76, 0
2,47854, Note_on_c, 0, 74, 0
2,47910, Note_on_c, 0, 72, 70
2,47928, Note_on_c, 0, 64, 67
2,47983, Note_on_c, 0, 64, 0
2,48123, Note_on_c, 0, 72, 0
2,48347, Control_c, 0, 67, 124
2,48351, Note_on_c, 0, 57, 85
2,48366, Control_c, 0, 67, 112
2,48387, Control_c, 0, 67, 96
2,48402, Control_c, 0, 67, 76
2,48408, Note_on_c, 0, 57, 0
2,48425, Control_c, 0, 67, 52
2,48442, Control_c, 0, 67, 20
2,48448, Note_on_c, 0, 76, 74
2,48461, Control_c, 0, 67, 0
2,48496, Note_on_c, 0, 76, 0
2,48543, Note_on_c, 0, 77, 81
2,48629, Note_on_c, 0, 77, 0
2,48646, Note_on_c, 0, 79, 79
2,48743, Note_on_c, 0, 53, 84
2,48752, Note_on_c, 0, 79, 0
2,48752, Note_on_c, 0, 81, 79
2,48807, Note_on_c, 0, 53, 0
2,48840, Note_on_c, 0, 81, 0
2,48852, Note_on_c, 0, 82, 75
2,48946, Note_on_c, 0, 81, 77
2,49005, Note_on_c, 0, 82, 0
2,49042, Note_on_c, 0, 79, 75
2,49050, Note_on_c, 0, 81, 0
2,49100, Note_on_c, 0, 79, 0
2,49118, Note_on_c, 0, 77, 81
2,49152, Note_on_c, 0, 62, 89
2,49184, Note_on_c, 0, 77, 0
2,49211, Note_on_c, 0, 62, 0
2,49230, Note_on_c, 0, 76, 82
2,49329, Note_on_c, 0, 74, 73
2,49333, Note_on_c, 0, 76, 0
2,49388, Note_on_c, 0, 74, 0
2,49420, Note_on_c, 0, 72, 78
2,49472, Note_on_c, 0, 72, 0
2,49523, Note_on_c, 0, 56, 87
2,49527, Note_on_c, 0, 71, 81
2,49585, Note_on_c, 0, 56, 0
2,49604, Note_on_c, 0, 71, 0
2,49625, Note_on_c, 0, 72, 80
2,49723, Note_on_c, 0, 71, 85
2,49727, Note_on_c, 0, 72, 0
2,49789, Note_on_c, 0, 71, 0
2,49825, Note_on_c, 0, 69, 72
2,49931, Note_on_c, 0, 69, 0
2,49936, Note_on_c, 0, 68, 76
2,49940, Note_on_c, 0, 52, 86
2,49988, Note_on_c, 0, 52, 0
2,50029, Note_on_c, 0, 66, 75
2,50100, Note_on_c, 0, 68, 0
2,50128, Note_on_c, 0, 64, 79
2,50144, Note_on_c, 0, 66, 0
2,50207, Note_on_c, 0, 64, 0
2,50228, Note_on_c, 0, 62, 69
2,50280, Note_on_c, 0, 62, 0
2,50346, Note_on_c, 0, 60, 84
2,50353, Note_on_c, 0, 57, 81
2,50441, Note_on_c, 0, 64, 78
2,50494, Note_on_c, 0, 64, 0
2,50553, Note_on_c, 0, 65, 72
2,50621, Note_on_c, 0, 65, 0
2,50638, Note_on_c, 0, 67, 82
2,50725, Note_on_c, 0, 67, 0
2,50729, Note_on_c, 0, 72, 86
2,50736, Note_on_c, 0, 69, 73
2,50830, Note_on_c, 0, 67, 82
2,50852, Note_on_c, 0, 69, 0
2,50881, Note_on_c, 0, 72, 0
2,50909, Note_on_c, 0, 67, 0
2,50930, Note_on_c, 0, 65, 80
2,50991, Note_on_c, 0, 65, 0
2,51024, Note_on_c, 0, 60, 0
2,51038, Note_on_c, 0, 64, 75
2,51099, Note_on_c, 0, 64, 0
2,51131, Note_on_c, 0, 57, 0
2,51137, Note_on_c, 0, 62, 92
2,51137, Note_on_c, 0, 71, 95
2,51235, Note_on_c, 0, 57, 80
2,51266, Note_on_c, 0, 62, 0
2,51327, Note_on_c, 0, 59, 85
2,51338, Note_on_c, 0, 57, 0
2,51430, Note_on_c, 0, 60, 80
2,51433, Note_on_c, 0, 59, 0
2,51497, Note_on_c, 0, 60, 0
2,51543, Note_on_c, 0, 62, 86
2,51547, Note_on_c, 0, 65, 77
2,51619, Note_on_c, 0, 62, 0
2,51638, Note_on_c, 0, 60, 77
2,51696, Note_on_c, 0, 60, 0
2,51736, Note_on_c, 0, 59, 77
2,51767, Note_on_c, 0, 65, 0
2,51791, Note_on_c, 0, 59, 0
2,51851, Note_on_c, 0, 57, 83
2,51909, Note_on_c, 0, 57, 0
2,51939, Note_on_c, 0, 59, 95
2,51960, Note_on_c, 0, 56, 78
2,52016, Note_on_c, 0, 56, 0
2,52052, Note_on_c, 0, 57, 84
2,52145, Note_on_c, 0, 56, 83
2,52152, Note_on_c, 0, 57, 0
2,52228, Note_on_c, 0, 56, 0
2,52239, Note_on_c, 0, 54, 77
2,52314, Note_on_c, 0, 54, 0
2,52325, Note_on_c, 0, 71, 0
2,52345, Note_on_c, 0, 52, 79
2,52345, Note_on_c, 0, 62, 83
2,52399, Note_on_c, 0, 52, 0
2,52429, Note_on_c, 0, 50, 77
2,52496, Note_on_c, 0, 50, 0
2,52539, Note_on_c, 0, 48, 72
2,52586, Note_on_c, 0, 48, 0
2,52632, Note_on_c, 0, 47, 76
2,52639, Note_on_c, 0, 59, 0
2,52654, Note_on_c, 0, 62, 0
2,52742, Note_on_c, 0, 47, 0
2,52761, Control_c, 0, 64, 26
2,52761, Note_on_c, 0, 60, 93
2,52765, Note_on_c, 0, 45, 81
2,52778, Control_c, 0, 64, 59
2,52797, Control_c, 0, 64, 61
2,52817, Control_c, 0, 64, 60
2,52932, Control_c, 0, 64, 59
2,52966, Note_on_c, 0, 45, 0
2,52978, Note_on_c, 0, 64, 75
2,53007, Control_c, 0, 64, 58
2,53030, Control_c, 0, 64, 57
2,53045, Control_c, 0, 64, 56
2,53068, Control_c, 0, 64, 52
2,53087, Control_c, 0, 64, 39
2,53087, Note_on_c, 0, 60, 0
2,53105, Control_c, 0, 64, 0
2,53181, Note_on_c, 0, 69, 85
2,53197, Note_on_c, 0, 57, 81
2,53220, Note_on_c, 0, 64, 0
2,53243, Note_on_c, 0, 57, 0
2,53295, Note_on_c, 0, 55, 73
2,53375, Note_on_c, 0, 55, 0
2,53388, Note_on_c, 0, 53, 72
2,53471, Note_on_c, 0, 53, 0
2,53489, Note_on_c, 0, 52, 72
2,53554, Note_on_c, 0, 69, 0
2,53587, Note_on_c, 0, 50, 85
2,53587, Note_on_c, 0, 65, 87
2,53593, Note_on_c, 0, 52, 0
2,53604, Control_c, 0, 64, 51
2,53624, Control_c, 0, 64, 59
2,53661, Control_c, 0, 64, 58
2,53699, Control_c, 0, 64, 59
2,53739, Control_c, 0, 64, 58
2,53739, Note_on_c, 0, 50, 0
2,53775, Control_c, 0, 64, 59
2,53790, Note_on_c, 0, 57, 81
2,53853, Control_c, 0, 64, 60
2,53871, Control_c, 0, 64, 59
2,53892, Control_c, 0, 64, 58
2,53911, Control_c, 0, 64, 49
2,53928, Control_c, 0, 64, 0
2,53935, Note_on_c, 0, 57, 0
2,53993, Note_on_c, 0, 53, 81
2,54002, Note_on_c, 0, 62, 86
2,54049, Note_on_c, 0, 65, 0
2,54056, Note_on_c, 0, 53, 0
2,54091, Note_on_c, 0, 52, 82
2,54148, Note_on_c, 0, 52, 0
2,54187, Note_on_c, 0, 50, 77
2,54233, Note_on_c, 0, 50, 0
2,54291, Note_on_c, 0, 48, 82
2,54347, Note_on_c, 0, 48, 0
2,54384, Note_on_c, 0, 47, 78
2,54410, Control_c, 0, 64, 34
2,54415, Note_on_c, 0, 56, 90
2,54430, Control_c, 0, 64, 62
2,54437, Note_on_c, 0, 47, 0
2,54450, Control_c, 0, 64, 64
2,54468, Control_c, 0, 64, 63
2,54472, Note_on_c, 0, 56, 0
2,54477, Note_on_c, 0, 62, 0
2,54481, Note_on_c, 0, 48, 80
2,54544, Control_c, 0, 64, 62
2,54549, Note_on_c, 0, 48, 0
2,54593, Note_on_c, 0, 50, 80
2,54660, Control_c, 0, 64, 61
2,54736, Control_c, 0, 64, 60
2,54756, Control_c, 0, 64, 58
2,54775, Control_c, 0, 64, 53
2,54780, Note_on_c, 0, 50, 0
2,54792, Control_c, 0, 64, 40
2,54812, Control_c, 0, 64, 0
2,54826, Note_on_c, 0, 77, 85
2,54908, Note_on_c, 0, 48, 78
2,54953, Note_on_c, 0, 48, 0
2,54967, Note_on_c, 0, 77, 0
2,55003, Note_on_c, 0, 47, 79
2,55108, Note_on_c, 0, 45, 78
2,55112, Note_on_c, 0, 47, 0
2,55177, Note_on_c, 0, 45, 0
2,55193, Note_on_c, 0, 44, 80
2,55206, Note_on_c, 0, 71, 83
2,55289, Note_on_c, 0, 44, 0
2,55302, Note_on_c, 0, 45, 82
2,55352, Note_on_c, 0, 45, 0
2,55431, Note_on_c, 0, 47, 66
2,55570, Note_on_c, 0, 71, 0
2,55592, Note_on_c, 0, 47, 0
2,55617, Note_on_c, 0, 74, 75
2,55724, Note_on_c, 0, 45, 69
2,55756, Note_on_c, 0, 74, 0
2,55802, Note_on_c, 0, 45, 0
2,55823, Note_on_c, 0, 44, 72
2,55889, Note_on_c, 0, 44, 0
2,55905, Note_on_c, 0, 42, 73
2,55985, Note_on_c, 0, 42, 0
2,56015, Note_on_c, 0, 68, 83
2,56017, Note_on_c, 0, 40, 76
2,56026, Control_c, 0, 64, 34
2,56042, Control_c, 0, 64, 37
2,56061, Control_c, 0, 64, 38
2,56100, Control_c, 0, 64, 39
2,56156, Control_c, 0, 64, 38
2,56292, Control_c, 0, 64, 37
2,56313, Control_c, 0, 64, 36
2,56330, Control_c, 0, 64, 34
2,56348, Control_c, 0, 64, 29
2,56368, Control_c, 0, 64, 16
2,56386, Control_c, 0, 64, 0
2,56426, Note_on_c, 0, 62, 80
2,56436, Note_on_c, 0, 68, 0
2,56518, Note_on_c, 0, 40, 0
2,56627, Note_on_c, 0, 62, 0
2,56658, Note_on_c, 0, 42, 71
2,56713, Note_on_c, 0, 42, 0
2,56757, Note_on_c, 0, 44, 77
2,56817, Note_on_c, 0, 44, 0
2,56848, Note_on_c, 0, 45, 77
2,56852, Note_on_c, 0, 71, 81
2,56861, Note_on_c, 0, 59, 76
2,56899, Note_on_c, 0, 45, 0
2,56948, Note_on_c, 0, 44, 82
2,57007, Note_on_c, 0, 44, 0
2,57036, Note_on_c, 0, 59, 0
2,57049, Note_on_c, 0, 45, 69
2,57106, Note_on_c, 0, 45, 0
2,57141, Note_on_c, 0, 44, 77
2,57207, Note_on_c, 0, 44, 0
2,57250, Note_on_c, 0, 45, 73
2,57257, Note_on_c, 0, 64, 75
2,57298, Note_on_c, 0, 45, 0
2,57340, Note_on_c, 0, 44, 74
2,57441, Note_on_c, 0, 44, 0
2,57448, Note_on_c, 0, 42, 60
2,57567, Note_on_c, 0, 42, 0
2,57578, Note_on_c, 0, 44, 78
2,57630, Note_on_c, 0, 64, 0
2,57634, Note_on_c, 0, 44, 0
2,57638, Control_c, 0, 67, 9
2,57656, Control_c, 0, 67, 20
2,57670, Note_on_c, 0, 60, 83
2,57670, Note_on_c, 0, 71, 0
2,57674, Control_c, 0, 67, 34
2,57683, Note_on_c, 0, 45, 81
2,57694, Control_c, 0, 67, 52
2,57716, Control_c, 0, 64, 50
2,57716, Control_c, 0, 67, 70
2,57734, Control_c, 0, 64, 57
2,57734, Control_c, 0, 67, 85
2,57753, Control_c, 0, 67, 99
2,57773, Control_c, 0, 67, 110
2,57789, Control_c, 0, 67, 120
2,57794, Note_on_c, 0, 60, 0
2,57808, Control_c, 0, 67, 127
2,57829, Control_c, 0, 64, 58
2,57848, Control_c, 0, 64, 57
2,57960, Control_c, 0, 64, 56
2,58020, Control_c, 0, 64, 55
2,58041, Control_c, 0, 64, 53
2,58057, Control_c, 0, 64, 49
2,58077, Control_c, 0, 64, 37
2,58097, Control_c, 0, 64, 0
2,58111, Note_on_c, 0, 76, 79
2,58139, Note_on_c, 0, 45, 0
2,58204, Note_on_c, 0, 74, 75
2,58233, Note_on_c, 0, 76, 0
2,58287, Note_on_c, 0, 72, 76
2,58313, Note_on_c, 0, 47, 72
2,58336, Note_on_c, 0, 74, 0
2,58368, Note_on_c, 0, 47, 0
2,58391, Note_on_c, 0, 71, 76
2,58400, Note_on_c, 0, 72, 0
2,58413, Note_on_c, 0, 48, 68
2,58450, Note_on_c, 0, 71, 0
2,58454, Note_on_c, 0, 48, 0
2,58499, Note_on_c, 0, 50, 71
2,58503, Note_on_c, 0, 69, 69
2,58557, Note_on_c, 0, 50, 0
2,58601, Note_on_c, 0, 49, 68
2,58663, Note_on_c, 0, 49, 0
2,58705, Note_on_c, 0, 69, 0
2,58705, Note_on_c, 0, 73, 72
2,58709, Note_on_c, 0, 50, 72
2,58741, Note_on_c, 0, 73, 0
2,58760, Note_on_c, 0, 50, 0
2,58790, Note_on_c, 0, 76, 80
2,58809, Note_on_c, 0, 49, 66
2,58857, Note_on_c, 0, 76, 0
2,58862, Note_on_c, 0, 49, 0
2,58901, Note_on_c, 0, 79, 79
2,58906, Note_on_c, 0, 50, 73
2,58956, Note_on_c, 0, 50, 0
2,59008, Note_on_c, 0, 49, 70
2,59057, Note_on_c, 0, 49, 0
2,59102, Note_on_c, 0, 47, 63
2,59164, Note_on_c, 0, 47, 0
2,59199, Note_on_c, 0, 49, 63
2,59252, Control_c, 0, 64, 19
2,59252, Note_on_c, 0, 49, 0
2,59261, Note_on_c, 0, 79, 0
2,59270, Control_c, 0, 64, 40
2,59290, Control_c, 0, 64, 42
2,59303, Note_on_c, 0, 77, 76
2,59309, Control_c, 0, 64, 44
2,59309, Note_on_c, 0, 50, 58
2,59327, Control_c, 0, 64, 47
2,59346, Control_c, 0, 64, 48
2,59368, Control_c, 0, 64, 50
2,59557, Control_c, 0, 64, 49
2,59577, Control_c, 0, 64, 48
2,59597, Control_c, 0, 64, 47
2,59601, Note_on_c, 0, 77, 0
2,59614, Control_c, 0, 64, 43
2,59635, Control_c, 0, 64, 37
2,59656, Control_c, 0, 64, 29
2,59674, Control_c, 0, 64, 22
2,59692, Control_c, 0, 64, 16
2,59697, Note_on_c, 0, 69, 68
2,59710, Control_c, 0, 64, 11
2,59732, Control_c, 0, 64, 0
2,59754, Note_on_c, 0, 50, 0
2,59756, Note_on_c, 0, 69, 0
2,59804, Note_on_c, 0, 67, 68
2,59881, Note_on_c, 0, 65, 68
2,59917, Note_on_c, 0, 52, 64
2,59924, Note_on_c, 0, 67, 0
2,59957, Note_on_c, 0, 52, 0
2,59970, Note_on_c, 0, 64, 79
2,59978, Note_on_c, 0, 65, 0
2,60009, Note_on_c, 0, 53, 71
2,60041, Note_on_c, 0, 64, 0
2,60050, Note_on_c, 0, 53, 0
2,60086, Note_on_c, 0, 62, 81
2,60099, Note_on_c, 0, 55, 62
2,60163, Note_on_c, 0, 55, 0
2,60202, Note_on_c, 0, 54, 60
2,60261, Note_on_c, 0, 54, 0
2,60276, Note_on_c, 0, 62, 0
2,60285, Note_on_c, 0, 66, 68
2,60307, Note_on_c, 0, 55, 68
2,60340, Note_on_c, 0, 66, 0
2,60367, Note_on_c, 0, 55, 0
2,60372, Note_on_c, 0, 69, 72
2,60401, Note_on_c, 0, 54, 66
2,60453, Note_on_c, 0, 69, 0
2,60467, Note_on_c, 0, 54, 0
2,60482, Note_on_c, 0, 72, 80
2,60504, Note_on_c, 0, 55, 76
2,60565, Note_on_c, 0, 55, 0
2,60605, Note_on_c, 0, 54, 66
2,60650, Note_on_c, 0, 54, 0
2,60688, Note_on_c, 0, 52, 66
2,60754, Note_on_c, 0, 52, 0
2,60785, Note_on_c, 0, 54, 58
2,60845, Note_on_c, 0, 54, 0
2,60863, Note_on_c, 0, 72, 0
2,60884, Control_c, 0, 64, 22
2,60890, Note_on_c, 0, 71, 76
2,60899, Note_on_c, 0, 55, 62
2,60904, Control_c, 0, 64, 23
2,60922, Control_c, 0, 64, 26
2,60939, Control_c, 0, 64, 30
2,60959, Control_c, 0, 64, 34
2,60980, Control_c, 0, 64, 36
2,60998, Control_c, 0, 64, 39
2,61020, Control_c, 0, 64, 41
2,61069, Note_on_c, 0, 71, 0
2,61095, Control_c, 0, 64, 40
2,61115, Control_c, 0, 64, 39
2,61134, Control_c, 0, 64, 34
2,61134, Note_on_c, 0, 74, 63
2,61152, Control_c, 0, 64, 20
2,61172, Control_c, 0, 64, 0
2,61209, Note_on_c, 0, 74, 0
2,61214, Note_on_c, 0, 72, 73
2,61264, Note_on_c, 0, 55, 0
2,61284, Note_on_c, 0, 72, 0
2,61306, Note_on_c, 0, 71, 78
2,61500, Note_on_c, 0, 57, 74
2,61504, Note_on_c, 0, 72, 79
2,61529, Note_on_c, 0, 71, 0
2,61555, Note_on_c, 0, 57, 0
2,61587, Note_on_c, 0, 59, 83
2,61607, Note_on_c, 0, 74, 79
2,61619, Note_on_c, 0, 72, 0
2,61638, Note_on_c, 0, 59, 0
2,61657, Note_on_c, 0, 74, 0
2,61694, Note_on_c, 0, 60, 79
2,61705, Note_on_c, 0, 67, 79
2,61763, Note_on_c, 0, 60, 0
2,61788, Note_on_c, 0, 59, 74
2,61866, Note_on_c, 0, 59, 0
2,61911, Note_on_c, 0, 60, 78
2,61959, Note_on_c, 0, 60, 0
2,61992, Note_on_c, 0, 67, 0
2,62004, Note_on_c, 0, 59, 74
2,62077, Note_on_c, 0, 59, 0
2,62098, Note_on_c, 0, 77, 82
2,62115, Note_on_c, 0, 60, 75
2,62163, Note_on_c, 0, 60, 0
2,62205, Note_on_c, 0, 59, 77
2,62257, Note_on_c, 0, 59, 0
2,62315, Note_on_c, 0, 57, 73
2,62366, Note_on_c, 0, 57, 0
2,62408, Note_on_c, 0, 59, 71
2,62458, Note_on_c, 0, 59, 0
2,62507, Note_on_c, 0, 76, 77
2,62516, Note_on_c, 0, 60, 75
2,62516, Note_on_c, 0, 77, 0
2,62554, Control_c, 0, 64, 38
2,62591, Control_c, 0, 64, 41
2,62609, Control_c, 0, 64, 45
2,62629, Control_c, 0, 64, 50
2,62649, Control_c, 0, 64, 53
2,62667, Control_c, 0, 64, 55
2,62681, Note_on_c, 0, 76, 0
2,62728, Control_c, 0, 64, 52
2,62734, Note_on_c, 0, 67, 73
2,62748, Control_c, 0, 64, 46
2,62766, Control_c, 0, 64, 36
2,62782, Note_on_c, 0, 67, 0
2,62786, Control_c, 0, 64, 26
2,62828, Note_on_c, 0, 60, 0
2,62832, Note_on_c, 0, 65, 77
2,62842, Control_c, 0, 64, 27
2,62891, Note_on_c, 0, 65, 0
2,62920, Note_on_c, 0, 64, 74
2,62976, Control_c, 0, 64, 26
2,62996, Control_c, 0, 64, 18
2,63014, Control_c, 0, 64, 0
2,63033, Control_c, 0, 67, 122
2,63053, Control_c, 0, 67, 113
2,63072, Control_c, 0, 67, 98
2,63093, Control_c, 0, 67, 68
2,63110, Control_c, 0, 67, 34
2,63127, Note_on_c, 0, 62, 78
2,63127, Note_on_c, 0, 65, 60
2,63132, Control_c, 0, 67, 0
2,63203, Note_on_c, 0, 62, 0
2,63212, Note_on_c, 0, 67, 77
2,63218, Note_on_c, 0, 64, 0
2,63223, Note_on_c, 0, 64, 19
2,63236, Note_on_c, 0, 65, 0
2,63253, Note_on_c, 0, 67, 0
2,63298, Note_on_c, 0, 64, 0
2,63311, Note_on_c, 0, 65, 77
2,63325, Note_on_c, 0, 60, 69
2,63399, Note_on_c, 0, 65, 0
2,63417, Note_on_c, 0, 64, 86
2,63453, Note_on_c, 0, 60, 0
2,63496, Note_on_c, 0, 64, 0
2,63518, Note_on_c, 0, 65, 79
2,63588, Note_on_c, 0, 65, 0
2,63619, Note_on_c, 0, 64, 70
2,63619, Note_on_c, 0, 68, 49
2,63661, Note_on_c, 0, 68, 0
2,63682, Note_on_c, 0, 64, 0
2,63716, Note_on_c, 0, 70, 86
2,63721, Note_on_c, 0, 65, 78
2,63806, Note_on_c, 0, 65, 0
2,63830, Note_on_c, 0, 64, 75
2,63896, Note_on_c, 0, 64, 0
2,63924, Note_on_c, 0, 62, 72
2,64023, Note_on_c, 0, 62, 0
2,64042, Note_on_c, 0, 64, 73
2,64070, Note_on_c, 0, 70, 0
2,64131, Note_on_c, 0, 64, 0
2,64144, Note_on_c, 0, 65, 82
2,64144, Note_on_c, 0, 69, 82
2,64308, Note_on_c, 0, 69, 0
2,64342, Control_c, 0, 64, 40
2,64359, Control_c, 0, 64, 62
2,64359, Note_on_c, 0, 71, 88
2,64378, Control_c, 0, 64, 63
2,64416, Control_c, 0, 64, 62
2,64425, Note_on_c, 0, 65, 0
2,64454, Note_on_c, 0, 73, 90
2,64462, Note_on_c, 0, 71, 0
2,64472, Control_c, 0, 64, 61
2,64557, Note_on_c, 0, 74, 87
2,64572, Control_c, 0, 64, 62
2,64577, Note_on_c, 0, 73, 0
2,64684, Control_c, 0, 64, 61
2,64705, Control_c, 0, 64, 60
2,64721, Control_c, 0, 64, 56
2,64741, Control_c, 0, 64, 44
2,64760, Control_c, 0, 64, 0
2,64776, Note_on_c, 0, 67, 82
2,64813, Note_on_c, 0, 74, 0
2,64869, Note_on_c, 0, 69, 77
2,64874, Note_on_c, 0, 67, 0
2,64964, Note_on_c, 0, 69, 0
2,64977, Note_on_c, 0, 70, 86
2,64981, Note_on_c, 0, 81, 91
2,65052, Note_on_c, 0, 70, 0
2,65082, Note_on_c, 0, 69, 80
2,65155, Note_on_c, 0, 69, 0
2,65183, Note_on_c, 0, 70, 81
2,65261, Control_c, 0, 64, 45
2,65279, Control_c, 0, 64, 54
2,65279, Note_on_c, 0, 70, 0
2,65280, Note_on_c, 0, 69, 67
2,65298, Control_c, 0, 64, 56
2,65319, Control_c, 0, 64, 57
2,65340, Control_c, 0, 64, 59
2,65358, Control_c, 0, 64, 60
2,65366, Note_on_c, 0, 69, 0
2,65375, Control_c, 0, 64, 61
2,65383, Note_on_c, 0, 73, 92
2,65390, Note_on_c, 0, 70, 80
2,65397, Control_c, 0, 64, 62
2,65426, Note_on_c, 0, 81, 0
2,65433, Control_c, 0, 64, 63
2,65472, Control_c, 0, 64, 64
2,65477, Note_on_c, 0, 70, 0
2,65493, Note_on_c, 0, 69, 70
2,65534, Note_on_c, 0, 73, 0
2,65561, Note_on_c, 0, 69, 0
2,65595, Note_on_c, 0, 67, 75
2,65609, Control_c, 0, 64, 63
2,65627, Control_c, 0, 64, 62
2,65645, Control_c, 0, 64, 60
2,65665, Control_c, 0, 64, 57
2,65683, Control_c, 0, 64, 51
2,65690, Note_on_c, 0, 69, 84
2,65702, Control_c, 0, 64, 43
2,65711, Note_on_c, 0, 67, 0
2,65720, Control_c, 0, 64, 32
2,65735, Note_on_c, 0, 69, 0
2,65740, Control_c, 0, 64, 23
2,65758, Control_c, 0, 64, 20
2,65791, Note_on_c, 0, 74, 87
2,65795, Note_on_c, 0, 77, 92
2,65800, Note_on_c, 0, 70, 87
2,65819, Control_c, 0, 64, 17
2,65838, Control_c, 0, 64, 11
2,65856, Control_c, 0, 64, 0
2,66005, Note_on_c, 0, 58, 77
2,66088, Note_on_c, 0, 58, 0
2,66104, Note_on_c, 0, 60, 78
2,66109, Control_c, 0, 64, 38
2,66125, Control_c, 0, 64, 50
2,66143, Control_c, 0, 64, 51
2,66184, Control_c, 0, 64, 53
2,66188, Note_on_c, 0, 60, 0
2,66192, Note_on_c, 0, 74, 0
2,66203, Control_c, 0, 64, 55
2,66203, Note_on_c, 0, 70, 0
2,66207, Note_on_c, 0, 62, 84
2,66242, Control_c, 0, 64, 54
2,66242, Note_on_c, 0, 77, 0
2,66259, Control_c, 0, 64, 51
2,66279, Control_c, 0, 64, 41
2,66296, Control_c, 0, 64, 0
2,66307, Note_on_c, 0, 60, 82
2,66319, Note_on_c, 0, 62, 0
2,66406, Note_on_c, 0, 60, 0
2,66415, Note_on_c, 0, 58, 82
2,66486, Note_on_c, 0, 58, 0
2,66508, Note_on_c, 0, 57, 89
2,66560, Note_on_c, 0, 57, 0
2,66614, Note_on_c, 0, 55, 80
2,66621, Note_on_c, 0, 82, 92
2,66678, Note_on_c, 0, 55, 0
2,66681, Control_c, 0, 64, 18
2,66701, Control_c, 0, 64, 54
2,66717, Note_on_c, 0, 53, 83
2,66721, Control_c, 0, 64, 57
2,66737, Control_c, 0, 64, 55
2,66758, Control_c, 0, 64, 54
2,66771, Note_on_c, 0, 53, 0
2,66820, Note_on_c, 0, 55, 74
2,66855, Note_on_c, 0, 55, 0
2,66860, Control_c, 0, 64, 53
2,66872, Control_c, 0, 64, 43
2,66894, Control_c, 0, 64, 0
2,66903, Note_on_c, 0, 57, 75
2,66987, Note_on_c, 0, 57, 0
2,67010, Note_on_c, 0, 58, 83
2,67015, Note_on_c, 0, 82, 0
2,67076, Note_on_c, 0, 58, 0
2,67110, Note_on_c, 0, 57, 87
2,67143, Note_on_c, 0, 57, 0
2,67201, Note_on_c, 0, 55, 86
2,67315, Note_on_c, 0, 55, 0
2,67316, Note_on_c, 0, 53, 78
2,67369, Note_on_c, 0, 53, 0
2,67405, Note_on_c, 0, 52, 80
2,67412, Control_c, 0, 64, 43
2,67423, Note_on_c, 0, 73, 89
2,67431, Control_c, 0, 64, 63
2,67450, Control_c, 0, 64, 62
2,67470, Control_c, 0, 64, 59
2,67479, Note_on_c, 0, 52, 0
2,67487, Control_c, 0, 64, 55
2,67505, Note_on_c, 0, 53, 82
2,67507, Control_c, 0, 64, 53
2,67543, Control_c, 0, 64, 52
2,67565, Control_c, 0, 64, 51
2,67574, Note_on_c, 0, 53, 0
2,67586, Control_c, 0, 64, 50
2,67632, Note_on_c, 0, 55, 85
2,67643, Control_c, 0, 64, 49
2,67660, Control_c, 0, 64, 46
2,67680, Control_c, 0, 64, 40
2,67699, Control_c, 0, 64, 32
2,67706, Note_on_c, 0, 55, 0
2,67717, Control_c, 0, 64, 25
2,67737, Control_c, 0, 64, 22
2,67757, Control_c, 0, 64, 19
2,67775, Control_c, 0, 64, 13
2,67797, Control_c, 0, 64, 0
2,67837, Note_on_c, 0, 70, 81
2,67907, Note_on_c, 0, 70, 0
2,67933, Note_on_c, 0, 53, 74
2,67982, Note_on_c, 0, 53, 0
2,68021, Note_on_c, 0, 52, 78
2,68128, Note_on_c, 0, 50, 74
2,68133, Note_on_c, 0, 52, 0
2,68208, Note_on_c, 0, 50, 0
2,68221, Note_on_c, 0, 49, 73
2,68234, Note_on_c, 0, 64, 71
2,68272, Note_on_c, 0, 64, 0
2,68300, Note_on_c, 0, 49, 0
2,68329, Note_on_c, 0, 50, 73
2,68333, Note_on_c, 0, 73, 0
2,68382, Note_on_c, 0, 50, 0
2,68442, Note_on_c, 0, 52, 80
2,68611, Note_on_c, 0, 52, 0
2,68645, Note_on_c, 0, 67, 75
2,68740, Note_on_c, 0, 50, 66
2,68768, Note_on_c, 0, 67, 0
2,68799, Note_on_c, 0, 50, 0
2,68836, Note_on_c, 0, 49, 76
2,68916, Note_on_c, 0, 49, 0
2,68941, Note_on_c, 0, 47, 65
2,69007, Note_on_c, 0, 47, 0
2,69031, Note_on_c, 0, 61, 77
2,69039, Note_on_c, 0, 45, 78
2,69125, Note_on_c, 0, 61, 0
2,69459, Note_on_c, 0, 79, 89
2,69483, Note_on_c, 0, 76, 74
2,69552, Note_on_c, 0, 45, 0
2,69599, Note_on_c, 0, 76, 0
2,69686, Note_on_c, 0, 47, 66
2,69745, Note_on_c, 0, 47, 0
2,69775, Note_on_c, 0, 49, 75
2,69827, Note_on_c, 0, 49, 0
2,69878, Note_on_c, 0, 50, 78
2,69878, Note_on_c, 0, 79, 0
2,69887, Note_on_c, 0, 76, 82
2,69896, Note_on_c, 0, 69, 72
2,69930, Note_on_c, 0, 50, 0
2,69970, Note_on_c, 0, 49, 70
2,70042, Note_on_c, 0, 49, 0
2,70073, Note_on_c, 0, 50, 74
2,70143, Note_on_c, 0, 50, 0
2,70177, Note_on_c, 0, 49, 67
2,70254, Note_on_c, 0, 49, 0
2,70283, Note_on_c, 0, 50, 80
2,70289, Note_on_c, 0, 81, 77
2,70332, Note_on_c, 0, 76, 0
2,70345, Note_on_c, 0, 50, 0
2,70368, Control_c, 0, 64, 12
2,70387, Control_c, 0, 64, 17
2,70389, Note_on_c, 0, 49, 77
2,70409, Control_c, 0, 64, 21
2,70426, Control_c, 0, 64, 24
2,70444, Control_c, 0, 64, 25
2,70448, Note_on_c, 0, 49, 0
2,70483, Note_on_c, 0, 47, 75
2,70503, Control_c, 0, 64, 23
2,70521, Control_c, 0, 64, 21
2,70539, Control_c, 0, 64, 18
2,70546, Note_on_c, 0, 69, 0
2,70561, Control_c, 0, 64, 16
2,70561, Note_on_c, 0, 47, 0
2,70580, Control_c, 0, 64, 15
2,70585, Note_on_c, 0, 49, 75
2,70598, Control_c, 0, 64, 12
2,70618, Control_c, 0, 64, 0
2,70637, Note_on_c, 0, 49, 0
2,70654, Control_c, 0, 67, 16
2,70674, Control_c, 0, 67, 29
2,70683, Note_on_c, 0, 50, 81
2,70687, Note_on_c, 0, 77, 78
2,70692, Note_on_c, 0, 69, 68
2,70696, Control_c, 0, 67, 42
2,70713, Control_c, 0, 67, 57
2,70732, Control_c, 0, 67, 73
2,70737, Note_on_c, 0, 81, 0
2,70741, Note_on_c, 0, 50, 0
2,70751, Control_c, 0, 67, 90
2,70769, Control_c, 0, 67, 107
2,70774, Note_on_c, 0, 77, 0
2,70791, Control_c, 0, 67, 120
2,70791, Note_on_c, 0, 52, 84
2,70807, Control_c, 0, 67, 127
2,70844, Note_on_c, 0, 52, 0
2,70866, Note_on_c, 0, 69, 0
2,70901, Note_on_c, 0, 53, 73
2,70914, Note_on_c, 0, 52, 67
2,70954, Note_on_c, 0, 52, 0
2,70981, Control_c, 0, 67, 125
2,70997, Control_c, 0, 67, 124
2,71036, Control_c, 0, 67, 123
2,71072, Note_on_c, 0, 53, 0
2,71108, Note_on_c, 0, 74, 71
2,71126, Note_on_c, 0, 69, 73
2,71133, Control_c, 0, 67, 122
2,71144, Note_on_c, 0, 74, 0
2,71198, Note_on_c, 0, 69, 0
2,71202, Note_on_c, 0, 52, 77
2,71250, Note_on_c, 0, 52, 0
2,71303, Note_on_c, 0, 50, 70
2,71365, Control_c, 0, 67, 123
2,71386, Note_on_c, 0, 50, 0
2,71390, Note_on_c, 0, 48, 71
2,71423, Control_c, 0, 67, 124
2,71451, Note_on_c, 0, 48, 0
2,71458, Control_c, 0, 67, 125
2,71479, Control_c, 0, 67, 126
2,71479, Note_on_c, 0, 47, 75
2,71497, Control_c, 0, 67, 127
2,71506, Note_on_c, 0, 62, 76
2,71543, Note_on_c, 0, 47, 0
2,71548, Note_on_c, 0, 62, 0
2,71585, Note_on_c, 0, 48, 78
2,71656, Note_on_c, 0, 48, 0
2,71709, Note_on_c, 0, 50, 77
2,71766, Control_c, 0, 67, 126
2,71823, Control_c, 0, 67, 125
2,71843, Control_c, 0, 67, 124
2,71872, Note_on_c, 0, 50, 0
2,71881, Control_c, 0, 67, 123
2,71900, Note_on_c, 0, 65, 71
2,71982, Note_on_c, 0, 65, 0
2,71998, Note_on_c, 0, 48, 71
2,72041, Note_on_c, 0, 48, 0
2,72092, Note_on_c, 0, 47, 72
2,72155, Note_on_c, 0, 47, 0
2,72189, Note_on_c, 0, 45, 69
2,72275, Note_on_c, 0, 45, 0
2,72307, Note_on_c, 0, 59, 77
2,72322, Note_on_c, 0, 43, 71
2,72380, Control_c, 0, 67, 122
2,72389, Note_on_c, 0, 59, 0
2,72400, Control_c, 0, 64, 24
2,72423, Control_c, 0, 64, 32
2,72423, Control_c, 0, 67, 121
2,72441, Control_c, 0, 64, 35
2,72476, Control_c, 0, 67, 120
2,72573, Control_c, 0, 67, 119
2,72591, Control_c, 0, 67, 118
2,72629, Control_c, 0, 67, 117
2,72688, Control_c, 0, 67, 116
2,72729, Note_on_c, 0, 77, 79
2,72733, Note_on_c, 0, 74, 73
2,72746, Control_c, 0, 64, 34
2,72746, Control_c, 0, 67, 115
2,72805, Control_c, 0, 67, 114
2,72827, Control_c, 0, 64, 33
2,72827, Control_c, 0, 67, 113
2,72827, Note_on_c, 0, 43, 0
2,72842, Control_c, 0, 64, 32
2,72855, Note_on_c, 0, 74, 0
2,72882, Control_c, 0, 64, 31
2,72882, Control_c, 0, 67, 112
2,72900, Control_c, 0, 64, 30
2,72919, Control_c, 0, 64, 29
2,72919, Control_c, 0, 67, 111
2,72938, Control_c, 0, 64, 27
2,72938, Control_c, 0, 67, 109
2,72959, Control_c, 0, 64, 23
2,72959, Control_c, 0, 67, 98
2,72959, Note_on_c, 0, 45, 65
2,72980, Control_c, 0, 64, 20
2,72980, Control_c, 0, 67, 73
2,72995, Control_c, 0, 64, 19
2,72995, Control_c, 0, 67, 41
2,73015, Control_c, 0, 64, 18
2,73015, Control_c, 0, 67, 0
2,73031, Note_on_c, 0, 45, 0
2,73055, Control_c, 0, 64, 16
2,73055, Note_on_c, 0, 47, 69
2,73070, Control_c, 0, 64, 13
2,73091, Control_c, 0, 64, 0
2,73104, Note_on_c, 0, 47, 0
2,73130, Note_on_c, 0, 77, 0
2,73145, Note_on_c, 0, 74, 78
2,73149, Note_on_c, 0, 48, 74
2,73154, Note_on_c, 0, 67, 68
2,73195, Note_on_c, 0, 48, 0
2,73255, Note_on_c, 0, 47, 72
2,73316, Note_on_c, 0, 47, 0
2,73365, Note_on_c, 0, 48, 67
2,73414, Note_on_c, 0, 48, 0
2,73451, Note_on_c, 0, 47, 73
2,73518, Note_on_c, 0, 47, 0
2,73532, Note_on_c, 0, 79, 81
2,73553, Note_on_c, 0, 74, 0
2,73559, Note_on_c, 0, 48, 70
2,73610, Note_on_c, 0, 48, 0
2,73643, Note_on_c, 0, 47, 71
2,73699, Note_on_c, 0, 47, 0
2,73749, Note_on_c, 0, 45, 62
2,73795, Note_on_c, 0, 67, 0
2,73804, Control_c, 0, 67, 9
2,73804, Note_on_c, 0, 45, 0
2,73820, Control_c, 0, 67, 18
2,73838, Note_on_c, 0, 47, 64
2,73840, Control_c, 0, 67, 27
2,73860, Control_c, 0, 67, 37
2,73878, Control_c, 0, 67, 49
2,73897, Control_c, 0, 67, 64
2,73905, Note_on_c, 0, 47, 0
2,73920, Control_c, 0, 67, 86
2,73936, Control_c, 0, 67, 108
2,73958, Control_c, 0, 67, 127
2,73958, Note_on_c, 0, 48, 66
2,73958, Note_on_c, 0, 76, 71
2,73965, Note_on_c, 0, 67, 63
2,74000, Note_on_c, 0, 79, 0
2,74072, Note_on_c, 0, 48, 0
2,74120, Note_on_c, 0, 76, 0
2,74195, Note_on_c, 0, 67, 0
2,74379, Note_on_c, 0, 72, 74
2,74429, Note_on_c, 0, 72, 0
2,74478, Note_on_c, 0, 60, 66
2,74568, Note_on_c, 0, 60, 0
2,74577, Note_on_c, 0, 62, 67
2,74629, Note_on_c, 0, 62, 0
2,74664, Note_on_c, 0, 64, 71
2,74740, Note_on_c, 0, 64, 0
2,74775, Note_on_c, 0, 69, 70
2,74786, Note_on_c, 0, 65, 68
2,74908, Note_on_c, 0, 69, 0
2,74930, Note_on_c, 0, 65, 0
2,75230, Note_on_c, 0, 77, 73
2,75276, Note_on_c, 0, 77, 0
2,75339, Note_on_c, 0, 64, 64
2,75383, Note_on_c, 0, 64, 0
2,75431, Note_on_c, 0, 62, 63
2,75504, Note_on_c, 0, 62, 0
2,75517, Note_on_c, 0, 60, 74
2,75598, Note_on_c, 0, 60, 0
2,75619, Note_on_c, 0, 74, 72
2,75635, Note_on_c, 0, 59, 79
2,75713, Note_on_c, 0, 74, 0
2,75777, Note_on_c, 0, 59, 0
2,75816, Control_c, 0, 67, 126
2,75836, Control_c, 0, 67, 123
2,75856, Control_c, 0, 67, 119
2,75876, Control_c, 0, 67, 116
2,75893, Control_c, 0, 67, 114
2,75913, Control_c, 0, 67, 113
2,75932, Control_c, 0, 67, 111
2,75951, Control_c, 0, 67, 108
2,75971, Control_c, 0, 67, 104
2,75989, Control_c, 0, 67, 100
2,76009, Control_c, 0, 67, 96
2,76028, Control_c, 0, 67, 91
2,76047, Control_c, 0, 67, 87
2,76056, Note_on_c, 0, 71, 77
2,76066, Control_c, 0, 67, 80
2,76077, Note_on_c, 0, 62, 65
2,76085, Control_c, 0, 67, 71
2,76106, Control_c, 0, 67, 58
2,76117, Note_on_c, 0, 62, 0
2,76123, Note_on_c, 0, 71, 0
2,76124, Control_c, 0, 67, 37
2,76144, Control_c, 0, 67, 0
2,76174, Note_on_c, 0, 47, 69
2,76258, Note_on_c, 0, 48, 71
2,76264, Note_on_c, 0, 47, 0
2,76341, Note_on_c, 0, 48, 0
2,76356, Note_on_c, 0, 50, 79
2,76448, Note_on_c, 0, 59, 81
2,76448, Note_on_c, 0, 68, 84
2,76452, Note_on_c, 0, 50, 0
2,76462, Note_on_c, 0, 52, 86
2,76529, Note_on_c, 0, 59, 0
2,76607, Note_on_c, 0, 52, 0
2,76661, Note_on_c, 0, 68, 0
2,76868, Note_on_c, 0, 76, 77
2,76875, Note_on_c, 0, 68, 81
2,76948, Note_on_c, 0, 68, 0
2,76954, Note_on_c, 0, 76, 0
2,76971, Note_on_c, 0, 50, 74
2,77056, Note_on_c, 0, 50, 0
2,77066, Note_on_c, 0, 48, 76
2,77161, Note_on_c, 0, 48, 0
2,77179, Note_on_c, 0, 47, 78
2,77261, Note_on_c, 0, 69, 79
2,77261, Note_on_c, 0, 72, 87
2,77270, Note_on_c, 0, 47, 0
2,77295, Note_on_c, 0, 45, 74
2,77490, Note_on_c, 0, 45, 0
2,77494, Note_on_c, 0, 47, 76
2,77579, Note_on_c, 0, 47, 0
2,77584, Note_on_c, 0, 48, 72
2,77648, Note_on_c, 0, 48, 0
2,77678, Note_on_c, 0, 50, 77
2,77733, Note_on_c, 0, 50, 0
2,77773, Note_on_c, 0, 52, 78
2,77856, Note_on_c, 0, 52, 0
2,77865, Note_on_c, 0, 54, 79
2,77961, Note_on_c, 0, 56, 81
2,77977, Note_on_c, 0, 54, 0
2,78012, Note_on_c, 0, 69, 0
2,78042, Note_on_c, 0, 56, 0
2,78064, Note_on_c, 0, 57, 91
2,78160, Note_on_c, 0, 71, 74
2,78230, Note_on_c, 0, 72, 0
2,78257, Note_on_c, 0, 69, 74
2,78279, Note_on_c, 0, 71, 0
2,78343, Note_on_c, 0, 69, 0
2,78359, Note_on_c, 0, 67, 78
2,78469, Note_on_c, 0, 65, 74
2,78524, Note_on_c, 0, 67, 0
2,78553, Note_on_c, 0, 64, 78
2,78560, Note_on_c, 0, 65, 0
2,78632, Note_on_c, 0, 64, 0
2,78647, Note_on_c, 0, 62, 78
2,78723, Note_on_c, 0, 62, 0
2,78743, Note_on_c, 0, 60, 78
2,78776, Note_on_c, 0, 60, 0
2,78851, Control_c, 0, 64, 46
2,78855, Note_on_c, 0, 62, 93
2,78871, Control_c, 0, 64, 72
2,78889, Control_c, 0, 64, 74
2,78909, Control_c, 0, 64, 73
2,78928, Control_c, 0, 64, 69
2,78960, Note_on_c, 0, 71, 83
2,79002, Note_on_c, 0, 57, 0
2,79005, Control_c, 0, 64, 68
2,79044, Control_c, 0, 64, 67
2,79044, Note_on_c, 0, 71, 0
2,79060, Note_on_c, 0, 62, 0
2,79063, Control_c, 0, 64, 65
2,79063, Note_on_c, 0, 72, 80
2,79082, Control_c, 0, 64, 64
2,79147, Note_on_c, 0, 74, 84
2,79151, Note_on_c, 0, 72, 0
2,79158, Control_c, 0, 64, 62
2,79176, Control_c, 0, 64, 59
2,79194, Control_c, 0, 64, 55
2,79207, Note_on_c, 0, 74, 0
2,79214, Control_c, 0, 64, 50
2,79234, Control_c, 0, 64, 45
2,79248, Note_on_c, 0, 76, 87
2,79252, Control_c, 0, 64, 42
2,79252, Note_on_c, 0, 56, 79
2,79252, Note_on_c, 0, 59, 86
2,79313, Control_c, 0, 64, 38
2,79318, Note_on_c, 0, 59, 0
2,79322, Note_on_c, 0, 76, 0
2,79331, Control_c, 0, 64, 30
2,79342, Note_on_c, 0, 78, 89
2,79354, Control_c, 0, 64, 17
2,79358, Note_on_c, 0, 56, 0
2,79369, Control_c, 0, 64, 0
2,79432, Note_on_c, 0, 80, 89
2,79445, Note_on_c, 0, 54, 81
2,79450, Note_on_c, 0, 57, 87
2,79473, Note_on_c, 0, 78, 0
2,79504, Note_on_c, 0, 57, 0
2,79542, Note_on_c, 0, 81, 74
2,79584, Note_on_c, 0, 54, 0
2,79597, Note_on_c, 0, 80, 0
2,79642, Note_on_c, 0, 52, 88
2,79642, Note_on_c, 0, 56, 94
2,79650, Note_on_c, 0, 81, 0
2,79655, Note_on_c, 0, 83, 81
2,79763, Note_on_c, 0, 81, 74
2,79780, Note_on_c, 0, 52, 0
2,79829, Note_on_c, 0, 83, 0
2,79852, Note_on_c, 0, 80, 76
2,79943, Note_on_c, 0, 81, 0
2,79948, Note_on_c, 0, 78, 80
2,80001, Note_on_c, 0, 80, 0
2,80046, Note_on_c, 0, 50, 79
2,80046, Note_on_c, 0, 76, 82
2,80046, Note_on_c, 0, 78, 0
2,80116, Note_on_c, 0, 76, 0
2,80120, Note_on_c, 0, 50, 0
2,80152, Note_on_c, 0, 74, 74
2,80251, Note_on_c, 0, 72, 76
2,80285, Note_on_c, 0, 74, 0
2,80357, Note_on_c, 0, 71, 69
2,80389, Note_on_c, 0, 72, 0
2,80459, Note_on_c, 0, 57, 99
2,80459, Note_on_c, 0, 71, 0
2,80463, Note_on_c, 0, 48, 87
2,80472, Note_on_c, 0, 76, 86
2,80477, Note_on_c, 0, 56, 0
2,80577, Note_on_c, 0, 74, 72
2,80597, Note_on_c, 0, 48, 0
2,80623, Note_on_c, 0, 76, 0
2,80660, Note_on_c, 0, 72, 68
2,80756, Note_on_c, 0, 74, 0
2,80764, Note_on_c, 0, 71, 72
2,80817, Note_on_c, 0, 72, 0
2,80845, Note_on_c, 0, 71, 0
2,80879, Note_on_c, 0, 69, 70
2,80967, Note_on_c, 0, 69, 0
2,80983, Note_on_c, 0, 68, 66
2,81091, Note_on_c, 0, 66, 70
2,81116, Note_on_c, 0, 68, 0
2,81173, Note_on_c, 0, 66, 0
2,81177, Note_on_c, 0, 64, 66
2,81284, Note_on_c, 0, 53, 96
2,81297, Note_on_c, 0, 69, 76
2,81301, Note_on_c, 0, 57, 0
2,81301, Note_on_c, 0, 64, 0
2,81398, Note_on_c, 0, 67, 76
2,81459, Note_on_c, 0, 69, 0
2,81499, Note_on_c, 0, 65, 66
2,81581, Note_on_c, 0, 67, 0
2,81588, Note_on_c, 0, 64, 72
2,81639, Note_on_c, 0, 65, 0
2,81679, Note_on_c, 0, 64, 0
2,81699, Note_on_c, 0, 62, 72
2,81768, Note_on_c, 0, 62, 0
2,81801, Note_on_c, 0, 60, 71
2,81898, Note_on_c, 0, 59, 73
2,81903, Note_on_c, 0, 60, 0
2,81976, Note_on_c, 0, 59, 0
2,81998, Note_on_c, 0, 57, 66
2,82036, Note_on_c, 0, 53, 0
2,82088, Note_on_c, 0, 57, 0
2,82109, Note_on_c, 0, 44, 98
2,82109, Note_on_c, 0, 65, 83
2,82223, Note_on_c, 0, 64, 71
2,82296, Note_on_c, 0, 65, 0
2,82324, Note_on_c, 0, 62, 69
2,82419, Note_on_c, 0, 60, 67
2,82419, Note_on_c, 0, 64, 0
2,82464, Note_on_c, 0, 62, 0
2,82507, Note_on_c, 0, 60, 0
2,82514, Note_on_c, 0, 59, 75
2,82589, Note_on_c, 0, 59, 0
2,82618, Note_on_c, 0, 57, 80
2,82724, Note_on_c, 0, 56, 67
2,82756, Note_on_c, 0, 57, 0
2,82819, Note_on_c, 0, 54, 65
2,82832, Note_on_c, 0, 56, 0
2,82859, Note_on_c, 0, 54, 0
2,82925, Note_on_c, 0, 62, 86
2,82959, Note_on_c, 0, 44, 0
2,83010, Note_on_c, 0, 60, 78
2,83082, Note_on_c, 0, 62, 0
2,83123, Note_on_c, 0, 59, 77
2,83130, Note_on_c, 0, 60, 0
2,83195, Note_on_c, 0, 59, 0
2,83220, Note_on_c, 0, 57, 84
2,83305, Note_on_c, 0, 57, 0
2,83323, Note_on_c, 0, 56, 66
2,83402, Note_on_c, 0, 54, 77
2,83429, Note_on_c, 0, 56, 0
2,83478, Note_on_c, 0, 54, 0
2,83505, Note_on_c, 0, 52, 77
2,83581, Note_on_c, 0, 52, 0
2,83600, Note_on_c, 0, 51, 83
2,83700, Note_on_c, 0, 52, 88
2,83708, Note_on_c, 0, 51, 0
2,83861, Note_on_c, 0, 52, 0
2,84118, Note_on_c, 0, 50, 88
2,84218, Note_on_c, 0, 64, 82
2,84229, Note_on_c, 0, 50, 0
2,84314, Note_on_c, 0, 66, 82
2,84325, Note_on_c, 0, 64, 0
2,84413, Note_on_c, 0, 68, 86
2,84433, Note_on_c, 0, 66, 0
2,84512, Note_on_c, 0, 68, 0
2,84512, Note_on_c, 0, 69, 85
2,84518, Note_on_c, 0, 47, 84
2,84622, Note_on_c, 0, 68, 85
2,84635, Note_on_c, 0, 69, 0
2,84655, Note_on_c, 0, 47, 0
2,84703, Note_on_c, 0, 68, 0
2,84721, Note_on_c, 0, 69, 80
2,84807, Note_on_c, 0, 69, 0
2,84820, Note_on_c, 0, 68, 78
2,84898, Note_on_c, 0, 68, 0
2,84902, Note_on_c, 0, 52, 81
2,84906, Note_on_c, 0, 69, 78
2,84985, Note_on_c, 0, 52, 0
2,85004, Note_on_c, 0, 68, 80
2,85029, Note_on_c, 0, 69, 0
2,85105, Note_on_c, 0, 66, 77
2,85109, Note_on_c, 0, 68, 0
2,85204, Note_on_c, 0, 68, 84
2,85208, Note_on_c, 0, 66, 0
2,85302, Note_on_c, 0, 48, 85
2,85302, Note_on_c, 0, 68, 0
2,85306, Note_on_c, 0, 69, 86
2,85482, Note_on_c, 0, 48, 0
2,85725, Note_on_c, 0, 45, 82
2,85809, Note_on_c, 0, 59, 81
2,85825, Note_on_c, 0, 45, 0
2,85917, Note_on_c, 0, 59, 0
2,85922, Note_on_c, 0, 60, 78
2,86003, Note_on_c, 0, 60, 0
2,86007, Note_on_c, 0, 62, 78
2,86042, Note_on_c, 0, 62, 0
2,86108, Note_on_c, 0, 62, 84
2,86135, Note_on_c, 0, 40, 81
2,86214, Note_on_c, 0, 61, 82
2,86221, Note_on_c, 0, 62, 0
2,86272, Note_on_c, 0, 40, 0
2,86316, Note_on_c, 0, 69, 0
2,86325, Note_on_c, 0, 61, 0
2,86329, Note_on_c, 0, 62, 82
2,86417, Note_on_c, 0, 62, 0
2,86447, Note_on_c, 0, 61, 72
2,86514, Note_on_c, 0, 43, 88
2,86514, Note_on_c, 0, 61, 0
2,86514, Note_on_c, 0, 62, 73
2,86588, Note_on_c, 0, 43, 0
2,86607, Note_on_c, 0, 61, 81
2,86642, Note_on_c, 0, 62, 0
2,86700, Note_on_c, 0, 61, 0
2,86718, Note_on_c, 0, 59, 82
2,86818, Note_on_c, 0, 59, 0
2,86826, Note_on_c, 0, 61, 86
2,86906, Note_on_c, 0, 61, 0
2,86921, Note_on_c, 0, 41, 84
2,86940, Note_on_c, 0, 62, 89
2,86969, Note_on_c, 0, 41, 0
2,87033, Note_on_c, 0, 40, 79
2,87126, Note_on_c, 0, 62, 0
2,87130, Note_on_c, 0, 38, 83
2,87142, Note_on_c, 0, 40, 0
2,87356, Note_on_c, 0, 71, 83
2,87363, Note_on_c, 0, 65, 80
2,87388, Note_on_c, 0, 38, 0
2,87485, Note_on_c, 0, 71, 0
2,87503, Note_on_c, 0, 65, 0
2,87568, Note_on_c, 0, 40, 72
2,87639, Note_on_c, 0, 40, 0
2,87672, Note_on_c, 0, 41, 83
2,87728, Note_on_c, 0, 41, 0
2,87776, Note_on_c, 0, 64, 80
2,87781, Note_on_c, 0, 38, 84
2,87781, Note_on_c, 0, 56, 81
2,87870, Note_on_c, 0, 38, 0
2,87887, Note_on_c, 0, 40, 81
2,87961, Note_on_c, 0, 40, 0
2,87998, Note_on_c, 0, 41, 83
2,88015, Note_on_c, 0, 56, 0
2,88125, Note_on_c, 0, 40, 80
2,88125, Note_on_c, 0, 41, 0
2,88125, Note_on_c, 0, 64, 0
2,88236, Note_on_c, 0, 40, 0
2,88240, Note_on_c, 0, 68, 84
2,88252, Note_on_c, 0, 59, 81
2,88261, Note_on_c, 0, 41, 82
2,88329, Note_on_c, 0, 41, 0
2,88396, Note_on_c, 0, 40, 81
2,88561, Note_on_c, 0, 38, 83
2,88566, Note_on_c, 0, 40, 0
2,88611, Note_on_c, 0, 59, 0
2,88664, Note_on_c, 0, 68, 0
2,88763, Note_on_c, 0, 40, 84
2,88765, Note_on_c, 0, 38, 0
2,89144, Note_on_c, 0, 69, 81
2,89149, Note_on_c, 0, 61, 79
2,89160, Note_on_c, 0, 33, 75
2,89173, Note_on_c, 0, 40, 0
2,90841, Note_on_c, 0, 33, 0
2,90867, Note_on_c, 0, 61, 0
2,90867, Note_on_c, 0, 69, 0
2,90868, End_track
0, 0, End_of_file
