0, 0, Header, 1, 2, 480
1, 0, Start_track
1, 0, Tempo, 500000
1, 0, Time_signature, 4, 2, 24, 8
1, 1, End_track
2, 0, Start_track
2, 0, Program_c, 0, 0
2, 0, Control_c, 0, 64, 0
2, 0, Control_c, 0, 67, 0
2, 1007, Note_on_c, 0, 45, 38
2, 1119, Note_on_c, 0, 72, 70
2, 1211, Note_on_c, 0, 72, 0
2, 1227, Note_on_c, 0, 74, 75
2, 1342, Note_on_c, 0, 74, 0
2, 1342, Note_on_c, 0, 76, 79
2, 1476, Note_on_c, 0, 76, 0
2, 1481, Note_on_c, 0, 77, 79
2, 1496, Note_on_c, 0, 57, 50
2, 1505, Note_on_c, 0, 45, 0
2, 1735, Note_on_c, 0, 77, 0
2, 1746, Note_on_c, 0, 72, 69
2, 1984, Note_on_c, 0, 72, 0
2, 1992, Note_on_c, 0, 71, 67
2, 2011, Note_on_c, 0, 56, 47
2, 2048, Note_on_c, 0, 57, 0
2, 2224, Note_on_c, 0, 71, 0
2, 2225, Note_on_c, 0, 75, 69
2, 2487, Note_on_c, 0, 76, 74
2, 2495, Note_on_c, 0, 56, 0
2, 2500, Note_on_c, 0, 55, 52
2, 2500, Note_on_c, 0, 75, 0
2, 2734, Note_on_c, 0, 70, 69
2, 2762, Note_on_c, 0, 76, 0
2, 2992, Note_on_c, 0, 69, 65
2, 3004, Note_on_c, 0, 54, 51
2, 3009, Note_on_c, 0, 70, 0
2, 3048, Note_on_c, 0, 55, 0
2, 3238, Note_on_c, 0, 69, 0
2, 3248, Note_on_c, 0, 73, 80
2, 3506, Note_on_c, 0, 74, 73
2, 3523, Note_on_c, 0, 53, 60
2, 3527, Note_on_c, 0, 73, 0
2, 3560, Note_on_c, 0, 54, 0
2, 3761, Note_on_c, 0, 68, 69
2, 3761, Note_on_c, 0, 74, 0
2, 4018, Note_on_c, 0, 52, 61
2, 4046, Note_on_c, 0, 53, 0
2, 4250, Note_on_c, 0, 69, 65
2, 4257, Note_on_c, 0, 68, 0
2, 4526, Note_on_c, 0, 50, 54
2, 4530, Note_on_c, 0, 52, 0
2, 4751, Note_on_c, 0, 71, 63
2, 4767, Note_on_c, 0, 69, 0
2, 4964, Note_on_c, 0, 71, 0
2, 5000, Note_on_c, 0, 64, 58
2, 5076, Note_on_c, 0, 50, 0
2, 5096, Note_on_c, 0, 48, 64
2, 5231, Note_on_c, 0, 48, 0
2, 5231, Note_on_c, 0, 50, 69
2, 5329, Note_on_c, 0, 50, 0
2, 5337, Note_on_c, 0, 52, 72
2, 5379, Note_on_c, 0, 64, 0
2, 5456, Note_on_c, 0, 52, 0
2, 5467, Note_on_c, 0, 69, 74
2, 5485, Note_on_c, 0, 53, 71
2, 5731, Note_on_c, 0, 48, 66
2, 5760, Note_on_c, 0, 53, 0
2, 5978, Note_on_c, 0, 68, 77
2, 5989, Note_on_c, 0, 48, 0
2, 6004, Note_on_c, 0, 47, 60
2, 6021, Note_on_c, 0, 69, 0
2, 6242, Note_on_c, 0, 51, 69
2, 6279, Note_on_c, 0, 47, 0
2, 6467, Note_on_c, 0, 68, 0
2, 6477, Note_on_c, 0, 67, 67
2, 6486, Note_on_c, 0, 51, 0
2, 6506, Note_on_c, 0, 52, 54
2, 6732, Note_on_c, 0, 46, 60
2, 6777, Note_on_c, 0, 52, 0
2, 6972, Note_on_c, 0, 66, 72
2, 6988, Note_on_c, 0, 45, 57
2, 6994, Note_on_c, 0, 67, 0
2, 6998, Note_on_c, 0, 46, 0
2, 7230, Note_on_c, 0, 49, 62
2, 7324, Note_on_c, 0, 45, 0
2, 7493, Note_on_c, 0, 65, 64
2, 7498, Note_on_c, 0, 49, 0
2, 7511, Note_on_c, 0, 50, 48
2, 7527, Note_on_c, 0, 66, 0
2, 7757, Note_on_c, 0, 44, 61
2, 7768, Note_on_c, 0, 50, 0
2, 8006, Note_on_c, 0, 64, 66
2, 8015, Note_on_c, 0, 65, 0
2, 8254, Note_on_c, 0, 45, 61
2, 8394, Note_on_c, 0, 44, 0
2, 8512, Note_on_c, 0, 64, 0
2, 8521, Note_on_c, 0, 62, 58
2, 8762, Note_on_c, 0, 47, 49
2, 8766, Note_on_c, 0, 45, 0
2, 9055, Note_on_c, 0, 40, 42
2, 9059, Note_on_c, 0, 47, 0
2, 9273, Note_on_c, 0, 62, 0
2, 9289, Note_on_c, 0, 60, 64
2, 9398, Note_on_c, 0, 59, 73
2, 9411, Note_on_c, 0, 60, 0
2, 9487, Note_on_c, 0, 59, 0
2, 9514, Note_on_c, 0, 60, 73
2, 9533, Note_on_c, 0, 45, 51
2, 9762, Note_on_c, 0, 40, 0
2, 9790, Note_on_c, 0, 60, 0
2, 9790, Note_on_c, 0, 69, 72
2, 10037, Note_on_c, 0, 47, 64
2, 10050, Note_on_c, 0, 45, 0
2, 10298, Note_on_c, 0, 68, 79
2, 10305, Note_on_c, 0, 69, 0
2, 10568, Note_on_c, 0, 49, 54
2, 10573, Note_on_c, 0, 76, 74
2, 10583, Note_on_c, 0, 68, 0
2, 10622, Note_on_c, 0, 47, 0
2, 10827, Note_on_c, 0, 76, 0
2, 10831, Note_on_c, 0, 67, 65
2, 11081, Note_on_c, 0, 50, 63
2, 11086, Note_on_c, 0, 49, 0
2, 11315, Note_on_c, 0, 67, 0
2, 11326, Note_on_c, 0, 65, 73
2, 11441, Note_on_c, 0, 64, 75
2, 11487, Note_on_c, 0, 65, 0
2, 11541, Note_on_c, 0, 50, 0
2, 11543, Note_on_c, 0, 64, 0
2, 11556, Note_on_c, 0, 47, 72
2, 11565, Note_on_c, 0, 63, 77
2, 11822, Note_on_c, 0, 71, 83
2, 11825, Note_on_c, 0, 63, 0
2, 12074, Note_on_c, 0, 49, 72
2, 12098, Note_on_c, 0, 47, 0
2, 12286, Note_on_c, 0, 71, 0
2, 12306, Note_on_c, 0, 70, 77
2, 12572, Note_on_c, 0, 78, 81
2, 12577, Note_on_c, 0, 70, 0
2, 12595, Note_on_c, 0, 51, 68
2, 12620, Note_on_c, 0, 49, 0
2, 12826, Note_on_c, 0, 78, 0
2, 12835, Note_on_c, 0, 69, 69
2, 13018, Note_on_c, 0, 51, 0
2, 13075, Note_on_c, 0, 52, 80
2, 13153, Note_on_c, 0, 69, 0
2, 13202, Note_on_c, 0, 67, 76
2, 13311, Note_on_c, 0, 69, 74
2, 13317, Note_on_c, 0, 67, 0
2, 13410, Note_on_c, 0, 71, 79
2, 13416, Note_on_c, 0, 69, 0
2, 13532, Note_on_c, 0, 72, 85
2, 13538, Note_on_c, 0, 71, 0
2, 13556, Note_on_c, 0, 52, 0
2, 13573, Note_on_c, 0, 64, 72
2, 13799, Note_on_c, 0, 72, 0
2, 13808, Note_on_c, 0, 67, 72
2, 14063, Note_on_c, 0, 66, 77
2, 14069, Note_on_c, 0, 63, 62
2, 14069, Note_on_c, 0, 67, 0
2, 14076, Note_on_c, 0, 64, 0
2, 14314, Note_on_c, 0, 70, 80
2, 14326, Note_on_c, 0, 66, 0
2, 14571, Note_on_c, 0, 71, 80
2, 14576, Note_on_c, 0, 62, 64
2, 14578, Note_on_c, 0, 63, 0
2, 14593, Note_on_c, 0, 70, 0
2, 14832, Note_on_c, 0, 65, 66
2, 14929, Note_on_c, 0, 71, 0
2, 15087, Note_on_c, 0, 64, 68
2, 15110, Note_on_c, 0, 65, 0
2, 15115, Note_on_c, 0, 61, 55
2, 15126, Note_on_c, 0, 62, 0
2, 15342, Note_on_c, 0, 68, 74
2, 15358, Note_on_c, 0, 64, 0
2, 15610, Note_on_c, 0, 69, 67
2, 15620, Note_on_c, 0, 60, 60
2, 15624, Note_on_c, 0, 68, 0
2, 15653, Note_on_c, 0, 61, 0
2, 15867, Note_on_c, 0, 63, 69
2, 15876, Note_on_c, 0, 69, 0
2, 16126, Note_on_c, 0, 59, 59
2, 16166, Note_on_c, 0, 60, 0
2, 16378, Note_on_c, 0, 64, 72
2, 16383, Note_on_c, 0, 63, 0
2, 16638, Note_on_c, 0, 57, 59
2, 16647, Note_on_c, 0, 59, 0
2, 16846, Note_on_c, 0, 64, 0
2, 16876, Note_on_c, 0, 66, 66
2, 17117, Note_on_c, 0, 59, 65
2, 17142, Note_on_c, 0, 66, 0
2, 17228, Note_on_c, 0, 57, 0
2, 17247, Note_on_c, 0, 59, 0
2, 17251, Note_on_c, 0, 55, 68
2, 17365, Note_on_c, 0, 55, 0
2, 17370, Note_on_c, 0, 57, 71
2, 17479, Note_on_c, 0, 57, 0
2, 17484, Note_on_c, 0, 59, 76
2, 17593, Note_on_c, 0, 59, 0
2, 17608, Note_on_c, 0, 76, 85
2, 17632, Note_on_c, 0, 60, 70
2, 17862, Note_on_c, 0, 55, 67
2, 17919, Note_on_c, 0, 60, 0
2, 18101, Note_on_c, 0, 75, 74
2, 18110, Note_on_c, 0, 55, 0
2, 18128, Note_on_c, 0, 54, 60
2, 18133, Note_on_c, 0, 76, 0
2, 18365, Note_on_c, 0, 58, 68
2, 18510, Note_on_c, 0, 54, 0
2, 18613, Note_on_c, 0, 74, 72
2, 18631, Note_on_c, 0, 58, 0
2, 18636, Note_on_c, 0, 59, 61
2, 18665, Note_on_c, 0, 75, 0
2, 18867, Note_on_c, 0, 53, 65
2, 18889, Note_on_c, 0, 59, 0
2, 19118, Note_on_c, 0, 73, 71
2, 19126, Note_on_c, 0, 53, 0
2, 19142, Note_on_c, 0, 52, 57
2, 19178, Note_on_c, 0, 74, 0
2, 19386, Note_on_c, 0, 56, 56
2, 19443, Note_on_c, 0, 52, 0
2, 19629, Note_on_c, 0, 72, 72
2, 19633, Note_on_c, 0, 73, 0
2, 19657, Note_on_c, 0, 56, 0
2, 19661, Note_on_c, 0, 57, 49
2, 19901, Note_on_c, 0, 51, 65
2, 19930, Note_on_c, 0, 57, 0
2, 20128, Note_on_c, 0, 72, 0
2, 20133, Note_on_c, 0, 71, 68
2, 20416, Note_on_c, 0, 52, 62
2, 20468, Note_on_c, 0, 51, 0
2, 20656, Note_on_c, 0, 69, 60
2, 20656, Note_on_c, 0, 71, 0
2, 20917, Note_on_c, 0, 54, 59
2, 20934, Note_on_c, 0, 52, 0
2, 21202, Note_on_c, 0, 54, 0
2, 21207, Note_on_c, 0, 47, 52
2, 21450, Note_on_c, 0, 69, 0
2, 21454, Note_on_c, 0, 67, 59
2, 21566, Note_on_c, 0, 66, 71
2, 21570, Note_on_c, 0, 67, 0
2, 21660, Note_on_c, 0, 66, 0
2, 21695, Note_on_c, 0, 67, 77
2, 21706, Note_on_c, 0, 52, 55
2, 21740, Note_on_c, 0, 47, 0
2, 21952, Note_on_c, 0, 67, 0
2, 21958, Note_on_c, 0, 76, 80
2, 22212, Note_on_c, 0, 54, 71
2, 22227, Note_on_c, 0, 52, 0
2, 22455, Note_on_c, 0, 75, 78
2, 22460, Note_on_c, 0, 76, 0
2, 22709, Note_on_c, 0, 83, 74
2, 22714, Note_on_c, 0, 75, 0
2, 22740, Note_on_c, 0, 56, 61
2, 22855, Note_on_c, 0, 54, 0
2, 22967, Note_on_c, 0, 83, 0
2, 22973, Note_on_c, 0, 74, 69
2, 23218, Note_on_c, 0, 56, 0
2, 23240, Note_on_c, 0, 57, 68
2, 23476, Note_on_c, 0, 57, 0
2, 23479, Note_on_c, 0, 72, 73
2, 23484, Note_on_c, 0, 74, 0
2, 23486, Note_on_c, 0, 45, 57
2, 23600, Note_on_c, 0, 71, 73
2, 23600, Note_on_c, 0, 72, 0
2, 23712, Note_on_c, 0, 45, 0
2, 23721, Note_on_c, 0, 71, 0
2, 23732, Note_on_c, 0, 57, 69
2, 23732, Note_on_c, 0, 72, 79
2, 23952, Note_on_c, 0, 72, 0
2, 23977, Note_on_c, 0, 69, 73
2, 24236, Note_on_c, 0, 71, 79
2, 24251, Note_on_c, 0, 69, 0
2, 24466, Note_on_c, 0, 57, 0
2, 24475, Note_on_c, 0, 56, 64
2, 24747, Note_on_c, 0, 73, 75
2, 24752, Note_on_c, 0, 71, 0
2, 24756, Note_on_c, 0, 64, 64
2, 24795, Note_on_c, 0, 56, 0
2, 24988, Note_on_c, 0, 64, 0
2, 25011, Note_on_c, 0, 55, 64
2, 25253, Note_on_c, 0, 73, 0
2, 25253, Note_on_c, 0, 74, 71
2, 25494, Note_on_c, 0, 55, 0
2, 25502, Note_on_c, 0, 74, 0
2, 25507, Note_on_c, 0, 62, 68
2, 25509, Note_on_c, 0, 54, 67
2, 25602, Note_on_c, 0, 54, 0
2, 25611, Note_on_c, 0, 52, 71
2, 25722, Note_on_c, 0, 62, 0
2, 25738, Note_on_c, 0, 52, 0
2, 25744, Note_on_c, 0, 74, 80
2, 25756, Note_on_c, 0, 54, 69
2, 25986, Note_on_c, 0, 54, 0
2, 25994, Note_on_c, 0, 50, 72
2, 26272, Note_on_c, 0, 52, 76
2, 26287, Note_on_c, 0, 50, 0
2, 26495, Note_on_c, 0, 73, 80
2, 26499, Note_on_c, 0, 74, 0
2, 26757, Note_on_c, 0, 73, 0
2, 26759, Note_on_c, 0, 81, 73
2, 26777, Note_on_c, 0, 54, 61
2, 26811, Note_on_c, 0, 52, 0
2, 27007, Note_on_c, 0, 81, 0
2, 27012, Note_on_c, 0, 72, 65
2, 27254, Note_on_c, 0, 54, 0
2, 27275, Note_on_c, 0, 55, 59
2, 27521, Note_on_c, 0, 55, 0
2, 27525, Note_on_c, 0, 71, 76
2, 27525, Note_on_c, 0, 72, 0
2, 27534, Note_on_c, 0, 43, 60
2, 27627, Note_on_c, 0, 71, 0
2, 27632, Note_on_c, 0, 69, 71
2, 27746, Note_on_c, 0, 69, 0
2, 27748, Note_on_c, 0, 43, 0
2, 27754, Note_on_c, 0, 71, 77
2, 27781, Note_on_c, 0, 55, 66
2, 28008, Note_on_c, 0, 71, 0
2, 28021, Note_on_c, 0, 67, 71
2, 28259, Note_on_c, 0, 67, 0
2, 28266, Note_on_c, 0, 69, 69
2, 28496, Note_on_c, 0, 55, 0
2, 28508, Note_on_c, 0, 54, 67
2, 28767, Note_on_c, 0, 71, 72
2, 28778, Note_on_c, 0, 62, 59
2, 28778, Note_on_c, 0, 69, 0
2, 28793, Note_on_c, 0, 54, 0
2, 29006, Note_on_c, 0, 62, 0
2, 29025, Note_on_c, 0, 53, 57
2, 29253, Note_on_c, 0, 71, 0
2, 29276, Note_on_c, 0, 72, 75
2, 29370, Note_on_c, 0, 53, 0
2, 29379, Note_on_c, 0, 52, 76
2, 29494, Note_on_c, 0, 52, 0
2, 29498, Note_on_c, 0, 53, 72
2, 29604, Note_on_c, 0, 55, 76
2, 29606, Note_on_c, 0, 53, 0
2, 29698, Note_on_c, 0, 72, 0
2, 29732, Note_on_c, 0, 55, 0
2, 29745, Note_on_c, 0, 84, 85
2, 29758, Note_on_c, 0, 57, 77
2, 29993, Note_on_c, 0, 52, 72
2, 30029, Note_on_c, 0, 57, 0
2, 30245, Note_on_c, 0, 83, 74
2, 30257, Note_on_c, 0, 52, 0
2, 30262, Note_on_c, 0, 51, 68
2, 30456, Note_on_c, 0, 84, 0
2, 30495, Note_on_c, 0, 54, 71
2, 30556, Note_on_c, 0, 51, 0
2, 30745, Note_on_c, 0, 82, 77
2, 30756, Note_on_c, 0, 54, 0
2, 30770, Note_on_c, 0, 55, 58
2, 30770, Note_on_c, 0, 83, 0
2, 30990, Note_on_c, 0, 50, 62
2, 31035, Note_on_c, 0, 55, 0
2, 31247, Note_on_c, 0, 81, 75
2, 31247, Note_on_c, 0, 82, 0
2, 31251, Note_on_c, 0, 50, 0
2, 31255, Note_on_c, 0, 49, 61
2, 31503, Note_on_c, 0, 52, 60
2, 31612, Note_on_c, 0, 49, 0
2, 31760, Note_on_c, 0, 80, 73
2, 31771, Note_on_c, 0, 52, 0
2, 31779, Note_on_c, 0, 81, 0
2, 31784, Note_on_c, 0, 53, 56
2, 32027, Note_on_c, 0, 48, 57
2, 32045, Note_on_c, 0, 53, 0
2, 32276, Note_on_c, 0, 79, 74
2, 32301, Note_on_c, 0, 80, 0
2, 32529, Note_on_c, 0, 47, 59
2, 32540, Note_on_c, 0, 48, 0
2, 32772, Note_on_c, 0, 77, 71
2, 32777, Note_on_c, 0, 79, 0
2, 33008, Note_on_c, 0, 48, 54
2, 33038, Note_on_c, 0, 47, 0
2, 33132, Note_on_c, 0, 50, 58
2, 33143, Note_on_c, 0, 48, 0
2, 33242, Note_on_c, 0, 50, 0
2, 33276, Note_on_c, 0, 43, 55
2, 33369, Note_on_c, 0, 77, 0
2, 33392, Note_on_c, 0, 71, 70
2, 33496, Note_on_c, 0, 72, 78
2, 33507, Note_on_c, 0, 71, 0
2, 33604, Note_on_c, 0, 74, 79
2, 33608, Note_on_c, 0, 72, 0
2, 33741, Note_on_c, 0, 76, 78
2, 33747, Note_on_c, 0, 43, 0
2, 33747, Note_on_c, 0, 55, 66
2, 33752, Note_on_c, 0, 74, 0
2, 33996, Note_on_c, 0, 76, 0
2, 34005, Note_on_c, 0, 71, 72
2, 34270, Note_on_c, 0, 54, 63
2, 34270, Note_on_c, 0, 70, 76
2, 34278, Note_on_c, 0, 71, 0
2, 34282, Note_on_c, 0, 55, 0
2, 34524, Note_on_c, 0, 73, 73
2, 34573, Note_on_c, 0, 70, 0
2, 34770, Note_on_c, 0, 74, 76
2, 34788, Note_on_c, 0, 54, 0
2, 34797, Note_on_c, 0, 53, 57
2, 34805, Note_on_c, 0, 73, 0
2, 35028, Note_on_c, 0, 69, 63
2, 35035, Note_on_c, 0, 74, 0
2, 35280, Note_on_c, 0, 69, 0
2, 35284, Note_on_c, 0, 68, 72
2, 35289, Note_on_c, 0, 52, 64
2, 35299, Note_on_c, 0, 53, 0
2, 35543, Note_on_c, 0, 68, 0
2, 35543, Note_on_c, 0, 71, 69
2, 35789, Note_on_c, 0, 52, 0
2, 35800, Note_on_c, 0, 51, 60
2, 35800, Note_on_c, 0, 72, 72
2, 35817, Note_on_c, 0, 71, 0
2, 36066, Note_on_c, 0, 67, 59
2, 36066, Note_on_c, 0, 72, 0
2, 36318, Note_on_c, 0, 50, 55
2, 36339, Note_on_c, 0, 51, 0
2, 36565, Note_on_c, 0, 67, 0
2, 36580, Note_on_c, 0, 66, 64
2, 36835, Note_on_c, 0, 48, 55
2, 36841, Note_on_c, 0, 50, 0
2, 37083, Note_on_c, 0, 67, 62
2, 37092, Note_on_c, 0, 66, 0
2, 37206, Note_on_c, 0, 69, 60
2, 37242, Note_on_c, 0, 67, 0
2, 37290, Note_on_c, 0, 69, 0
2, 37317, Note_on_c, 0, 62, 67
2, 37563, Note_on_c, 0, 48, 0
2, 37572, Note_on_c, 0, 47, 63
2, 37664, Note_on_c, 0, 47, 0
2, 37689, Note_on_c, 0, 45, 62
2, 37813, Note_on_c, 0, 62, 0
2, 37813, Note_on_c, 0, 67, 73
2, 37828, Note_on_c, 0, 45, 0
2, 37832, Note_on_c, 0, 47, 53
2, 38081, Note_on_c, 0, 55, 61
2, 38085, Note_on_c, 0, 47, 0
2, 38313, Note_on_c, 0, 69, 68
2, 38331, Note_on_c, 0, 67, 0
2, 38570, Note_on_c, 0, 55, 0
2, 38572, Note_on_c, 0, 54, 68
2, 38832, Note_on_c, 0, 71, 76
2, 38837, Note_on_c, 0, 69, 0
2, 38846, Note_on_c, 0, 62, 66
2, 38862, Note_on_c, 0, 54, 0
2, 39056, Note_on_c, 0, 62, 0
2, 39087, Note_on_c, 0, 53, 69
2, 39334, Note_on_c, 0, 72, 78
2, 39341, Note_on_c, 0, 71, 0
2, 39575, Note_on_c, 0, 53, 0
2, 39583, Note_on_c, 0, 52, 74
2, 39685, Note_on_c, 0, 52, 0
2, 39711, Note_on_c, 0, 50, 62
2, 39833, Note_on_c, 0, 50, 0
2, 39838, Note_on_c, 0, 69, 73
2, 39846, Note_on_c, 0, 49, 71
2, 39859, Note_on_c, 0, 72, 0
2, 40106, Note_on_c, 0, 49, 0
2, 40106, Note_on_c, 0, 57, 73
2, 40347, Note_on_c, 0, 71, 84
2, 40355, Note_on_c, 0, 69, 0
2, 40582, Note_on_c, 0, 57, 0
2, 40591, Note_on_c, 0, 56, 70
2, 40847, Note_on_c, 0, 73, 82
2, 40852, Note_on_c, 0, 64, 69
2, 40865, Note_on_c, 0, 71, 0
2, 40870, Note_on_c, 0, 56, 0
2, 41100, Note_on_c, 0, 55, 70
2, 41103, Control_c, 0, 64, 17
2, 41103, Note_on_c, 0, 64, 0
2, 41122, Control_c, 0, 64, 27
2, 41141, Control_c, 0, 64, 31
2, 41157, Control_c, 0, 64, 35
2, 41178, Control_c, 0, 64, 36
2, 41290, Control_c, 0, 64, 35
2, 41346, Note_on_c, 0, 74, 77
2, 41350, Control_c, 0, 64, 34
2, 41350, Note_on_c, 0, 55, 0
2, 41357, Note_on_c, 0, 73, 0
2, 41369, Control_c, 0, 64, 32
2, 41389, Control_c, 0, 64, 30
2, 41407, Control_c, 0, 64, 26
2, 41427, Control_c, 0, 64, 22
2, 41445, Control_c, 0, 64, 19
2, 41464, Control_c, 0, 64, 15
2, 41477, Note_on_c, 0, 54, 72
2, 41483, Control_c, 0, 64, 11
2, 41506, Control_c, 0, 64, 0
2, 41590, Note_on_c, 0, 54, 0
2, 41590, Note_on_c, 0, 55, 76
2, 41682, Note_on_c, 0, 55, 0
2, 41703, Note_on_c, 0, 57, 85
2, 41819, Note_on_c, 0, 74, 0
2, 41833, Note_on_c, 0, 62, 73
2, 41863, Note_on_c, 0, 57, 0
2, 41870, Note_on_c, 0, 58, 56
2, 42103, Note_on_c, 0, 53, 69
2, 42112, Note_on_c, 0, 58, 0
2, 42362, Note_on_c, 0, 61, 63
2, 42369, Note_on_c, 0, 53, 0
2, 42373, Note_on_c, 0, 52, 63
2, 42383, Note_on_c, 0, 62, 0
2, 42628, Note_on_c, 0, 56, 65
2, 42640, Note_on_c, 0, 52, 0
2, 42854, Note_on_c, 0, 56, 0
2, 42868, Note_on_c, 0, 60, 71
2, 42881, Note_on_c, 0, 57, 57
2, 42905, Note_on_c, 0, 61, 0
2, 43121, Note_on_c, 0, 51, 63
2, 43149, Note_on_c, 0, 57, 0
2, 43371, Note_on_c, 0, 60, 0
2, 43382, Note_on_c, 0, 59, 70
2, 43393, Note_on_c, 0, 50, 57
2, 43398, Note_on_c, 0, 51, 0
2, 43640, Note_on_c, 0, 54, 62
2, 43680, Note_on_c, 0, 50, 0
2, 43898, Note_on_c, 0, 58, 65
2, 43910, Note_on_c, 0, 54, 0
2, 43910, Note_on_c, 0, 59, 0
2, 43915, Note_on_c, 0, 55, 48
2, 44164, Note_on_c, 0, 49, 60
2, 44169, Note_on_c, 0, 55, 0
2, 44409, Note_on_c, 0, 57, 65
2, 44450, Note_on_c, 0, 58, 0
2, 44596, Control_c, 0, 67, 12
2, 44612, Control_c, 0, 67, 20
2, 44632, Control_c, 0, 67, 29
2, 44652, Control_c, 0, 67, 40
2, 44672, Control_c, 0, 67, 51
2, 44676, Note_on_c, 0, 50, 61
2, 44692, Control_c, 0, 67, 64
2, 44709, Control_c, 0, 67, 75
2, 44729, Control_c, 0, 67, 86
2, 44733, Note_on_c, 0, 49, 0
2, 44749, Control_c, 0, 67, 96
2, 44765, Control_c, 0, 67, 105
2, 44785, Control_c, 0, 67, 113
2, 44805, Control_c, 0, 67, 119
2, 44826, Control_c, 0, 67, 123
2, 44844, Control_c, 0, 67, 126
2, 44864, Control_c, 0, 67, 127
2, 44923, Note_on_c, 0, 55, 61
2, 44960, Note_on_c, 0, 57, 0
2, 45180, Note_on_c, 0, 52, 62
2, 45191, Control_c, 0, 67, 126
2, 45195, Note_on_c, 0, 50, 0
2, 45285, Control_c, 0, 67, 125
2, 45342, Control_c, 0, 67, 124
2, 45454, Note_on_c, 0, 52, 0
2, 45459, Note_on_c, 0, 45, 61
2, 45515, Control_c, 0, 67, 123
2, 45573, Control_c, 0, 67, 122
2, 45630, Control_c, 0, 67, 121
2, 45692, Note_on_c, 0, 55, 0
2, 45716, Note_on_c, 0, 53, 64
2, 45765, Control_c, 0, 67, 120
2, 45823, Note_on_c, 0, 52, 73
2, 45823, Note_on_c, 0, 53, 0
2, 45920, Note_on_c, 0, 52, 0
2, 45951, Note_on_c, 0, 53, 70
2, 45979, Note_on_c, 0, 50, 62
2, 46034, Control_c, 0, 67, 119
2, 46129, Control_c, 0, 67, 118
2, 46149, Control_c, 0, 67, 117
2, 46169, Control_c, 0, 67, 116
2, 46173, Note_on_c, 0, 45, 0
2, 46210, Note_on_c, 0, 53, 0
2, 46221, Note_on_c, 0, 62, 72
2, 46246, Control_c, 0, 67, 115
2, 46282, Control_c, 0, 67, 114
2, 46322, Control_c, 0, 67, 113
2, 46342, Control_c, 0, 67, 112
2, 46418, Control_c, 0, 67, 111
2, 46453, Note_on_c, 0, 50, 0
2, 46457, Control_c, 0, 67, 110
2, 46460, Note_on_c, 0, 52, 65
2, 46494, Control_c, 0, 67, 109
2, 46610, Control_c, 0, 67, 108
2, 46713, Note_on_c, 0, 61, 73
2, 46720, Note_on_c, 0, 62, 0
2, 46744, Control_c, 0, 67, 107
2, 46764, Control_c, 0, 67, 106
2, 46784, Control_c, 0, 67, 105
2, 46968, Note_on_c, 0, 69, 73
2, 46986, Note_on_c, 0, 54, 66
2, 46986, Note_on_c, 0, 61, 0
2, 46995, Control_c, 0, 67, 104
2, 47013, Control_c, 0, 67, 103
2, 47024, Note_on_c, 0, 52, 0
2, 47034, Control_c, 0, 67, 98
2, 47052, Control_c, 0, 67, 94
2, 47074, Control_c, 0, 67, 88
2, 47089, Control_c, 0, 67, 81
2, 47109, Control_c, 0, 67, 73
2, 47130, Control_c, 0, 67, 60
2, 47148, Control_c, 0, 67, 48
2, 47168, Control_c, 0, 67, 34
2, 47188, Control_c, 0, 67, 20
2, 47208, Control_c, 0, 67, 8
2, 47225, Control_c, 0, 67, 0
2, 47241, Note_on_c, 0, 60, 66
2, 47243, Note_on_c, 0, 69, 0
2, 47483, Note_on_c, 0, 55, 62
2, 47499, Note_on_c, 0, 54, 0
2, 47732, Note_on_c, 0, 59, 71
2, 47743, Note_on_c, 0, 60, 0
2, 47845, Note_on_c, 0, 57, 83
2, 47878, Note_on_c, 0, 59, 0
2, 47963, Note_on_c, 0, 57, 0
2, 47973, Note_on_c, 0, 56, 83
2, 47985, Note_on_c, 0, 52, 64
2, 47985, Note_on_c, 0, 55, 0
2, 48246, Note_on_c, 0, 64, 83
2, 48251, Note_on_c, 0, 56, 0
2, 48482, Note_on_c, 0, 54, 73
2, 48511, Note_on_c, 0, 52, 0
2, 48720, Note_on_c, 0, 64, 0
2, 48729, Note_on_c, 0, 63, 79
2, 48993, Note_on_c, 0, 63, 0
2, 48997, Note_on_c, 0, 71, 80
2, 49010, Note_on_c, 0, 56, 76
2, 49117, Note_on_c, 0, 54, 0
2, 49238, Note_on_c, 0, 71, 0
2, 49259, Note_on_c, 0, 62, 76
2, 49484, Note_on_c, 0, 56, 0
2, 49502, Note_on_c, 0, 57, 76
2, 49585, Note_on_c, 0, 62, 0
2, 49609, Note_on_c, 0, 60, 74
2, 49711, Note_on_c, 0, 57, 0
2, 49726, Note_on_c, 0, 62, 82
2, 49731, Note_on_c, 0, 60, 0
2, 49735, Note_on_c, 0, 45, 67
2, 49846, Note_on_c, 0, 64, 75
2, 49852, Note_on_c, 0, 62, 0
2, 49983, Note_on_c, 0, 45, 0
2, 49983, Note_on_c, 0, 57, 75
2, 49987, Note_on_c, 0, 65, 78
2, 49994, Note_on_c, 0, 64, 0
2, 50271, Note_on_c, 0, 60, 72
2, 50288, Note_on_c, 0, 65, 0
2, 50514, Note_on_c, 0, 59, 74
2, 50518, Note_on_c, 0, 60, 0
2, 50525, Note_on_c, 0, 56, 67
2, 50553, Note_on_c, 0, 57, 0
2, 50767, Note_on_c, 0, 63, 73
2, 50819, Note_on_c, 0, 59, 0
2, 51024, Note_on_c, 0, 64, 77
2, 51042, Note_on_c, 0, 55, 59
2, 51042, Note_on_c, 0, 56, 0
2, 51042, Note_on_c, 0, 63, 0
2, 51273, Note_on_c, 0, 58, 74
2, 51315, Note_on_c, 0, 64, 0
2, 51540, Note_on_c, 0, 57, 70
2, 51546, Note_on_c, 0, 58, 0
2, 51552, Note_on_c, 0, 54, 60
2, 51583, Note_on_c, 0, 55, 0
2, 51795, Note_on_c, 0, 61, 64
2, 51813, Note_on_c, 0, 57, 0
2, 52066, Note_on_c, 0, 62, 68
2, 52070, Note_on_c, 0, 53, 60
2, 52079, Note_on_c, 0, 61, 0
2, 52103, Note_on_c, 0, 54, 0
2, 52315, Note_on_c, 0, 62, 0
2, 52329, Note_on_c, 0, 56, 62
2, 52590, Note_on_c, 0, 52, 55
2, 52653, Note_on_c, 0, 53, 0
2, 52829, Note_on_c, 0, 57, 69
2, 52838, Note_on_c, 0, 56, 0
2, 53022, Control_c, 0, 67, 9
2, 53042, Control_c, 0, 67, 17
2, 53064, Control_c, 0, 67, 28
2, 53079, Control_c, 0, 67, 42
2, 53092, Note_on_c, 0, 50, 53
2, 53101, Control_c, 0, 67, 54
2, 53119, Control_c, 0, 67, 66
2, 53140, Control_c, 0, 67, 78
2, 53145, Note_on_c, 0, 52, 0
2, 53158, Control_c, 0, 67, 88
2, 53180, Control_c, 0, 67, 97
2, 53195, Control_c, 0, 67, 105
2, 53215, Control_c, 0, 67, 112
2, 53233, Control_c, 0, 67, 116
2, 53253, Control_c, 0, 67, 119
2, 53271, Control_c, 0, 67, 120
2, 53350, Note_on_c, 0, 59, 60
2, 53363, Note_on_c, 0, 57, 0
2, 53543, Control_c, 0, 67, 119
2, 53597, Note_on_c, 0, 59, 0
2, 53615, Note_on_c, 0, 52, 66
2, 53638, Control_c, 0, 67, 118
2, 53772, Control_c, 0, 67, 117
2, 53829, Control_c, 0, 67, 116
2, 53840, Note_on_c, 0, 50, 0
2, 53867, Control_c, 0, 67, 115
2, 53873, Note_on_c, 0, 48, 61
2, 53908, Control_c, 0, 67, 114
2, 53928, Control_c, 0, 67, 113
2, 53944, Control_c, 0, 67, 112
2, 53964, Control_c, 0, 67, 111
2, 53983, Note_on_c, 0, 48, 0
2, 53994, Note_on_c, 0, 47, 66
2, 54023, Control_c, 0, 67, 110
2, 54060, Control_c, 0, 67, 109
2, 54065, Note_on_c, 0, 52, 0
2, 54079, Control_c, 0, 67, 108
2, 54119, Note_on_c, 0, 64, 74
2, 54132, Note_on_c, 0, 47, 0
2, 54145, Note_on_c, 0, 48, 66
2, 54233, Control_c, 0, 67, 107
2, 54307, Control_c, 0, 67, 106
2, 54358, Note_on_c, 0, 48, 0
2, 54373, Note_on_c, 0, 52, 61
2, 54427, Control_c, 0, 67, 105
2, 54611, Note_on_c, 0, 64, 0
2, 54646, Note_on_c, 0, 66, 72
2, 54892, Note_on_c, 0, 52, 0
2, 54894, Note_on_c, 0, 51, 68
2, 55000, Control_c, 0, 67, 104
2, 55115, Control_c, 0, 67, 103
2, 55147, Note_on_c, 0, 68, 75
2, 55158, Note_on_c, 0, 59, 66
2, 55167, Note_on_c, 0, 66, 0
2, 55193, Control_c, 0, 67, 102
2, 55197, Note_on_c, 0, 51, 0
2, 55269, Control_c, 0, 67, 101
2, 55291, Control_c, 0, 67, 99
2, 55306, Control_c, 0, 67, 96
2, 55328, Control_c, 0, 67, 92
2, 55346, Control_c, 0, 67, 90
2, 55366, Control_c, 0, 67, 88
2, 55381, Note_on_c, 0, 59, 0
2, 55384, Control_c, 0, 67, 86
2, 55404, Control_c, 0, 67, 83
2, 55408, Note_on_c, 0, 50, 61
2, 55422, Control_c, 0, 67, 78
2, 55441, Control_c, 0, 67, 71
2, 55461, Control_c, 0, 67, 61
2, 55483, Control_c, 0, 67, 47
2, 55499, Control_c, 0, 67, 30
2, 55520, Control_c, 0, 67, 0
2, 55666, Note_on_c, 0, 69, 70
2, 55695, Note_on_c, 0, 68, 0
2, 55896, Note_on_c, 0, 50, 0
2, 55912, Note_on_c, 0, 69, 0
2, 55921, Note_on_c, 0, 57, 67
2, 55925, Note_on_c, 0, 49, 68
2, 55997, Note_on_c, 0, 49, 0
2, 56018, Note_on_c, 0, 47, 78
2, 56147, Note_on_c, 0, 47, 0
2, 56147, Note_on_c, 0, 57, 0
2, 56157, Note_on_c, 0, 49, 68
2, 56166, Note_on_c, 0, 69, 77
2, 56407, Note_on_c, 0, 49, 0
2, 56411, Note_on_c, 0, 45, 72
2, 56673, Note_on_c, 0, 47, 73
2, 56681, Note_on_c, 0, 45, 0
2, 56911, Note_on_c, 0, 69, 0
2, 56919, Note_on_c, 0, 68, 79
2, 57184, Note_on_c, 0, 76, 78
2, 57186, Note_on_c, 0, 68, 0
2, 57196, Note_on_c, 0, 49, 62
2, 57236, Note_on_c, 0, 47, 0
2, 57446, Note_on_c, 0, 76, 0
2, 57460, Note_on_c, 0, 67, 63
2, 57686, Note_on_c, 0, 49, 0
2, 57711, Note_on_c, 0, 50, 57
2, 57940, Note_on_c, 0, 50, 0
2, 57955, Note_on_c, 0, 66, 69
2, 57955, Note_on_c, 0, 67, 0
2, 57959, Note_on_c, 0, 38, 54
2, 58064, Note_on_c, 0, 64, 73
2, 58068, Note_on_c, 0, 66, 0
2, 58190, Note_on_c, 0, 64, 0
2, 58197, Note_on_c, 0, 66, 74
2, 58198, Note_on_c, 0, 38, 0
2, 58204, Note_on_c, 0, 50, 71
2, 58434, Note_on_c, 0, 66, 0
2, 58450, Note_on_c, 0, 62, 73
2, 58704, Note_on_c, 0, 62, 0
2, 58704, Note_on_c, 0, 64, 71
2, 58945, Note_on_c, 0, 49, 69
2, 58952, Note_on_c, 0, 50, 0
2, 59205, Note_on_c, 0, 66, 70
2, 59210, Note_on_c, 0, 57, 63
2, 59214, Note_on_c, 0, 64, 0
2, 59232, Note_on_c, 0, 49, 0
2, 59438, Note_on_c, 0, 57, 0
2, 59472, Note_on_c, 0, 48, 61
2, 59717, Note_on_c, 0, 66, 0
2, 59719, Note_on_c, 0, 67, 72
2, 59961, Note_on_c, 0, 48, 0
2, 59965, Note_on_c, 0, 67, 0
2, 59974, Note_on_c, 0, 55, 68
2, 59990, Note_on_c, 0, 47, 65
2, 60081, Note_on_c, 0, 47, 0
2, 60094, Note_on_c, 0, 45, 73
2, 60191, Note_on_c, 0, 55, 0
2, 60211, Note_on_c, 0, 45, 0
2, 60222, Note_on_c, 0, 47, 75
2, 60222, Note_on_c, 0, 67, 78
2, 60464, Note_on_c, 0, 47, 0
2, 60472, Note_on_c, 0, 43, 81
2, 60737, Note_on_c, 0, 45, 80
2, 60755, Note_on_c, 0, 43, 0
2, 60966, Note_on_c, 0, 67, 0
2, 60980, Note_on_c, 0, 66, 75
2, 61227, Note_on_c, 0, 74, 83
2, 61238, Note_on_c, 0, 66, 0
2, 61242, Note_on_c, 0, 47, 74
2, 61251, Note_on_c, 0, 45, 0
2, 61496, Note_on_c, 0, 74, 0
2, 61503, Note_on_c, 0, 65, 76
2, 61738, Note_on_c, 0, 47, 0
2, 61738, Note_on_c, 0, 48, 76
2, 61934, Note_on_c, 0, 65, 0
2, 62008, Note_on_c, 0, 64, 80
2, 62108, Note_on_c, 0, 64, 0
2, 62112, Note_on_c, 0, 62, 84
2, 62194, Note_on_c, 0, 62, 0
2, 62226, Note_on_c, 0, 64, 90
2, 62422, Note_on_c, 0, 64, 0
2, 62465, Note_on_c, 0, 76, 90
2, 62476, Note_on_c, 0, 48, 0
2, 62478, Note_on_c, 0, 47, 69
2, 62575, Note_on_c, 0, 47, 0
2, 62579, Note_on_c, 0, 45, 70
2, 62680, Note_on_c, 0, 45, 0
2, 62702, Note_on_c, 0, 55, 82
2, 62795, Note_on_c, 0, 55, 0
2, 62806, Note_on_c, 0, 53, 80
2, 62883, Note_on_c, 0, 53, 0
2, 62920, Note_on_c, 0, 55, 79
2, 62924, Note_on_c, 0, 76, 0
2, 62930, Note_on_c, 0, 77, 81
2, 62963, Note_on_c, 0, 55, 0
2, 63008, Note_on_c, 0, 53, 79
2, 63044, Note_on_c, 0, 76, 85
2, 63069, Note_on_c, 0, 53, 0
2, 63093, Note_on_c, 0, 77, 0
2, 63117, Note_on_c, 0, 55, 66
2, 63156, Note_on_c, 0, 74, 76
2, 63179, Note_on_c, 0, 55, 0
2, 63190, Note_on_c, 0, 53, 75
2, 63234, Note_on_c, 0, 76, 0
2, 63253, Note_on_c, 0, 72, 85
2, 63268, Note_on_c, 0, 53, 0
2, 63284, Note_on_c, 0, 74, 0
2, 63312, Note_on_c, 0, 55, 77
2, 63330, Note_on_c, 0, 72, 0
2, 63356, Note_on_c, 0, 71, 85
2, 63391, Note_on_c, 0, 55, 0
2, 63410, Note_on_c, 0, 53, 68
2, 63469, Note_on_c, 0, 69, 72
2, 63505, Note_on_c, 0, 71, 0
2, 63570, Note_on_c, 0, 52, 77
2, 63575, Note_on_c, 0, 53, 0
2, 63592, Note_on_c, 0, 68, 85
2, 63627, Note_on_c, 0, 69, 0
2, 63693, Control_c, 0, 67, 13
2, 63712, Control_c, 0, 67, 26
2, 63719, Note_on_c, 0, 64, 79
2, 63733, Control_c, 0, 67, 41
2, 63751, Control_c, 0, 67, 53
2, 63762, Note_on_c, 0, 52, 0
2, 63768, Control_c, 0, 67, 62
2, 63789, Control_c, 0, 67, 68
2, 63809, Control_c, 0, 67, 72
2, 63827, Control_c, 0, 67, 76
2, 63833, Note_on_c, 0, 62, 79
2, 63845, Control_c, 0, 67, 78
2, 63849, Note_on_c, 0, 64, 0
2, 63866, Control_c, 0, 67, 79
2, 63884, Control_c, 0, 67, 80
2, 63933, Note_on_c, 0, 60, 75
2, 63960, Control_c, 0, 67, 81
2, 63971, Note_on_c, 0, 62, 0
2, 64025, Note_on_c, 0, 60, 0
2, 64054, Note_on_c, 0, 59, 81
2, 64153, Note_on_c, 0, 59, 0
2, 64156, Note_on_c, 0, 57, 77
2, 64211, Control_c, 0, 67, 82
2, 64263, Note_on_c, 0, 57, 0
2, 64267, Control_c, 0, 67, 83
2, 64287, Control_c, 0, 67, 86
2, 64293, Note_on_c, 0, 56, 76
2, 64308, Control_c, 0, 67, 91
2, 64329, Control_c, 0, 67, 97
2, 64345, Control_c, 0, 67, 104
2, 64366, Control_c, 0, 67, 110
2, 64383, Control_c, 0, 67, 118
2, 64388, Note_on_c, 0, 56, 0
2, 64406, Control_c, 0, 67, 124
2, 64406, Note_on_c, 0, 54, 73
2, 64421, Control_c, 0, 67, 127
2, 64561, Note_on_c, 0, 54, 0
2, 64568, Note_on_c, 0, 52, 59
2, 65132, Note_on_c, 0, 52, 0
2, 65172, Note_on_c, 0, 40, 39
2, 65479, Control_c, 0, 64, 9
2, 65496, Control_c, 0, 64, 24
2, 65517, Control_c, 0, 64, 31
2, 65538, Control_c, 0, 64, 38
2, 65554, Control_c, 0, 64, 43
2, 65567, Note_on_c, 0, 68, 0
2, 65573, Control_c, 0, 64, 48
2, 65591, Control_c, 0, 64, 51
2, 65611, Control_c, 0, 64, 52
2, 65633, Control_c, 0, 64, 53
2, 65651, Control_c, 0, 64, 54
2, 65701, Note_on_c, 0, 40, 0
2, 65747, Control_c, 0, 64, 53
2, 65785, Control_c, 0, 64, 52
2, 65823, Control_c, 0, 64, 51
2, 65842, Control_c, 0, 64, 50
2, 65861, Control_c, 0, 64, 49
2, 65899, Control_c, 0, 64, 48
2, 65919, Control_c, 0, 64, 47
2, 65936, Note_on_c, 0, 76, 71
2, 65938, Control_c, 0, 64, 46
2, 65958, Control_c, 0, 64, 45
2, 65978, Control_c, 0, 64, 43
2, 65999, Control_c, 0, 64, 41
2, 66016, Control_c, 0, 64, 40
2, 66035, Control_c, 0, 64, 39
2, 66056, Note_on_c, 0, 60, 60
2, 66074, Control_c, 0, 64, 38
2, 66092, Control_c, 0, 64, 37
2, 66112, Control_c, 0, 64, 36
2, 66134, Control_c, 0, 64, 35
2, 66154, Control_c, 0, 64, 34
2, 66154, Note_on_c, 0, 60, 0
2, 66169, Control_c, 0, 64, 33
2, 66169, Note_on_c, 0, 59, 57
2, 66188, Control_c, 0, 64, 32
2, 66207, Control_c, 0, 64, 31
2, 66226, Control_c, 0, 64, 30
2, 66259, Note_on_c, 0, 59, 0
2, 66268, Control_c, 0, 64, 29
2, 66272, Note_on_c, 0, 57, 71
2, 66285, Control_c, 0, 64, 27
2, 66303, Control_c, 0, 64, 26
2, 66325, Control_c, 0, 64, 25
2, 66343, Control_c, 0, 64, 24
2, 66361, Control_c, 0, 64, 22
2, 66380, Control_c, 0, 64, 20
2, 66399, Control_c, 0, 64, 18
2, 66423, Control_c, 0, 64, 16
2, 66423, Note_on_c, 0, 64, 66
2, 66423, Note_on_c, 0, 76, 0
2, 66430, Note_on_c, 0, 57, 0
2, 66439, Note_on_c, 0, 56, 60
2, 66497, Control_c, 0, 64, 15
2, 66514, Control_c, 0, 64, 14
2, 66535, Control_c, 0, 64, 13
2, 66611, Control_c, 0, 64, 12
2, 66631, Control_c, 0, 64, 11
2, 66667, Control_c, 0, 64, 10
2, 66691, Note_on_c, 0, 61, 61
2, 66709, Control_c, 0, 64, 9
2, 66715, Note_on_c, 0, 56, 0
2, 66730, Control_c, 0, 64, 0
2, 66959, Note_on_c, 0, 61, 0
2, 66959, Note_on_c, 0, 65, 72
2, 66963, Note_on_c, 0, 62, 63
2, 66968, Note_on_c, 0, 64, 0
2, 67194, Note_on_c, 0, 58, 66
2, 67208, Note_on_c, 0, 62, 0
2, 67418, Control_c, 0, 67, 126
2, 67436, Control_c, 0, 67, 125
2, 67445, Note_on_c, 0, 58, 0
2, 67450, Note_on_c, 0, 57, 71
2, 67457, Control_c, 0, 67, 124
2, 67457, Note_on_c, 0, 66, 77
2, 67478, Control_c, 0, 67, 123
2, 67492, Note_on_c, 0, 65, 0
2, 67516, Control_c, 0, 67, 122
2, 67533, Control_c, 0, 67, 120
2, 67552, Control_c, 0, 67, 117
2, 67572, Control_c, 0, 67, 114
2, 67590, Control_c, 0, 67, 110
2, 67609, Control_c, 0, 67, 106
2, 67628, Control_c, 0, 67, 103
2, 67650, Control_c, 0, 67, 101
2, 67666, Control_c, 0, 67, 100
2, 67686, Control_c, 0, 67, 98
2, 67710, Control_c, 0, 67, 96
2, 67710, Note_on_c, 0, 57, 0
2, 67710, Note_on_c, 0, 63, 73
2, 67724, Control_c, 0, 67, 92
2, 67743, Control_c, 0, 67, 87
2, 67763, Control_c, 0, 67, 81
2, 67781, Control_c, 0, 67, 73
2, 67801, Control_c, 0, 67, 64
2, 67821, Control_c, 0, 67, 52
2, 67839, Control_c, 0, 67, 38
2, 67858, Control_c, 0, 67, 24
2, 67878, Control_c, 0, 67, 10
2, 67897, Control_c, 0, 67, 0
2, 67955, Note_on_c, 0, 66, 0
2, 67966, Note_on_c, 0, 67, 78
2, 67973, Note_on_c, 0, 63, 0
2, 67973, Note_on_c, 0, 64, 73
2, 68216, Note_on_c, 0, 60, 72
2, 68234, Note_on_c, 0, 64, 0
2, 68481, Note_on_c, 0, 60, 0
2, 68481, Note_on_c, 0, 68, 82
2, 68496, Note_on_c, 0, 59, 73
2, 68496, Note_on_c, 0, 67, 0
2, 68740, Note_on_c, 0, 65, 75
2, 68766, Note_on_c, 0, 59, 0
2, 68977, Note_on_c, 0, 68, 0
2, 68992, Note_on_c, 0, 69, 75
2, 69244, Note_on_c, 0, 64, 78
2, 69258, Note_on_c, 0, 65, 0
2, 69494, Note_on_c, 0, 71, 82
2, 69500, Note_on_c, 0, 69, 0
2, 69736, Note_on_c, 0, 62, 82
2, 69745, Note_on_c, 0, 64, 0
2, 69997, Note_on_c, 0, 69, 65
2, 70001, Note_on_c, 0, 71, 0
2, 70001, Note_on_c, 0, 72, 74
2, 70017, Note_on_c, 0, 62, 0
2, 70107, Note_on_c, 0, 72, 0
2, 70111, Note_on_c, 0, 77, 76
2, 70233, Note_on_c, 0, 76, 80
2, 70258, Note_on_c, 0, 77, 0
2, 70324, Note_on_c, 0, 74, 78
2, 70333, Note_on_c, 0, 76, 0
2, 70466, Note_on_c, 0, 73, 84
2, 70477, Note_on_c, 0, 57, 75
2, 70477, Note_on_c, 0, 69, 0
2, 70485, Note_on_c, 0, 74, 0
2, 70720, Note_on_c, 0, 78, 82
2, 70751, Note_on_c, 0, 73, 0
2, 70974, Note_on_c, 0, 58, 70
2, 70974, Note_on_c, 0, 79, 87
2, 71007, Note_on_c, 0, 78, 0
2, 71009, Note_on_c, 0, 57, 0
2, 71242, Note_on_c, 0, 75, 83
2, 71264, Note_on_c, 0, 79, 0
2, 71487, Note_on_c, 0, 74, 82
2, 71502, Note_on_c, 0, 58, 0
2, 71502, Note_on_c, 0, 59, 67
2, 71506, Note_on_c, 0, 75, 0
2, 71743, Note_on_c, 0, 80, 81
2, 71788, Note_on_c, 0, 74, 0
2, 72013, Note_on_c, 0, 81, 80
2, 72018, Note_on_c, 0, 60, 64
2, 72070, Note_on_c, 0, 80, 0
2, 72099, Note_on_c, 0, 59, 0
2, 72283, Note_on_c, 0, 77, 77
2, 72304, Note_on_c, 0, 81, 0
2, 72519, Note_on_c, 0, 77, 0
2, 72528, Note_on_c, 0, 76, 72
2, 72544, Note_on_c, 0, 61, 53
2, 72637, Note_on_c, 0, 60, 0
2, 72824, Note_on_c, 0, 82, 77
2, 72840, Note_on_c, 0, 76, 0
2, 73077, Note_on_c, 0, 62, 62
2, 73154, Note_on_c, 0, 61, 0
2, 73331, Note_on_c, 0, 81, 75
2, 73347, Note_on_c, 0, 82, 0
2, 73609, Note_on_c, 0, 64, 61
2, 73617, Note_on_c, 0, 62, 0
2, 73682, Control_c, 0, 67, 11
2, 73698, Control_c, 0, 67, 18
2, 73718, Control_c, 0, 67, 24
2, 73736, Control_c, 0, 67, 31
2, 73756, Control_c, 0, 67, 39
2, 73776, Control_c, 0, 67, 47
2, 73795, Control_c, 0, 67, 56
2, 73813, Control_c, 0, 67, 65
2, 73833, Control_c, 0, 67, 74
2, 73846, Note_on_c, 0, 80, 70
2, 73852, Control_c, 0, 67, 82
2, 73873, Control_c, 0, 67, 91
2, 73890, Control_c, 0, 67, 101
2, 73910, Control_c, 0, 67, 111
2, 73931, Control_c, 0, 67, 121
2, 73951, Control_c, 0, 67, 127
2, 73964, Note_on_c, 0, 81, 0
2, 74104, Note_on_c, 0, 65, 47
2, 74117, Note_on_c, 0, 81, 68
2, 74122, Note_on_c, 0, 64, 0
2, 74137, Note_on_c, 0, 80, 0
2, 74245, Note_on_c, 0, 79, 78
2, 74294, Note_on_c, 0, 81, 0
2, 74365, Note_on_c, 0, 77, 75
2, 74420, Note_on_c, 0, 79, 0
2, 74463, Note_on_c, 0, 76, 75
2, 74477, Note_on_c, 0, 77, 0
2, 74557, Note_on_c, 0, 76, 0
2, 74588, Note_on_c, 0, 62, 55
2, 74599, Note_on_c, 0, 65, 0
2, 74610, Note_on_c, 0, 77, 79
2, 74846, Note_on_c, 0, 77, 0
2, 74851, Note_on_c, 0, 70, 68
2, 75085, Note_on_c, 0, 70, 0
2, 75091, Note_on_c, 0, 69, 61
2, 75106, Note_on_c, 0, 60, 48
2, 75148, Note_on_c, 0, 62, 0
2, 75351, Note_on_c, 0, 76, 74
2, 75356, Note_on_c, 0, 69, 0
2, 75607, Note_on_c, 0, 74, 65
2, 75620, Note_on_c, 0, 60, 0
2, 75631, Note_on_c, 0, 59, 51
2, 75631, Note_on_c, 0, 76, 0
2, 75860, Note_on_c, 0, 74, 0
2, 75882, Note_on_c, 0, 68, 63
2, 76131, Note_on_c, 0, 59, 0
2, 76136, Note_on_c, 0, 57, 63
2, 76221, Note_on_c, 0, 68, 0
2, 76249, Note_on_c, 0, 74, 70
2, 76362, Note_on_c, 0, 72, 77
2, 76384, Note_on_c, 0, 74, 0
2, 76468, Note_on_c, 0, 71, 74
2, 76470, Note_on_c, 0, 72, 0
2, 76574, Note_on_c, 0, 71, 0
2, 76607, Note_on_c, 0, 60, 56
2, 76611, Note_on_c, 0, 69, 70
2, 76662, Note_on_c, 0, 57, 0
2, 76872, Note_on_c, 0, 69, 0
2, 76872, Note_on_c, 0, 76, 73
2, 77134, Note_on_c, 0, 74, 67
2, 77138, Note_on_c, 0, 60, 0
2, 77144, Note_on_c, 0, 59, 58
2, 77151, Note_on_c, 0, 76, 0
2, 77361, Note_on_c, 0, 74, 0
2, 77375, Note_on_c, 0, 67, 65
2, 77629, Note_on_c, 0, 67, 0
2, 77644, Note_on_c, 0, 57, 57
2, 77644, Note_on_c, 0, 66, 65
2, 77660, Note_on_c, 0, 59, 0
2, 77898, Note_on_c, 0, 66, 0
2, 77898, Note_on_c, 0, 72, 71
2, 78098, Note_on_c, 0, 72, 0
2, 78132, Note_on_c, 0, 57, 0
2, 78132, Note_on_c, 0, 71, 73
2, 78137, Note_on_c, 0, 55, 63
2, 78248, Note_on_c, 0, 55, 0
2, 78253, Note_on_c, 0, 59, 72
2, 78347, Note_on_c, 0, 59, 0
2, 78368, Note_on_c, 0, 60, 71
2, 78447, Note_on_c, 0, 60, 0
2, 78481, Note_on_c, 0, 62, 73
2, 78570, Note_on_c, 0, 71, 0
2, 78608, Note_on_c, 0, 79, 82
2, 78621, Note_on_c, 0, 62, 0
2, 78638, Note_on_c, 0, 64, 49
2, 78859, Note_on_c, 0, 64, 0
2, 78867, Note_on_c, 0, 58, 64
2, 79096, Note_on_c, 0, 58, 0
2, 79118, Note_on_c, 0, 57, 59
2, 79128, Note_on_c, 0, 77, 70
2, 79151, Note_on_c, 0, 79, 0
2, 79381, Note_on_c, 0, 62, 57
2, 79406, Note_on_c, 0, 57, 0
2, 79634, Note_on_c, 0, 76, 68
2, 79637, Note_on_c, 0, 62, 0
2, 79663, Note_on_c, 0, 61, 51
2, 79663, Note_on_c, 0, 77, 0
2, 79849, Note_on_c, 0, 61, 0
2, 79889, Note_on_c, 0, 55, 62
2, 80153, Note_on_c, 0, 74, 73
2, 80164, Note_on_c, 0, 76, 0
2, 80177, Note_on_c, 0, 55, 0
2, 80259, Note_on_c, 0, 67, 56
2, 80364, Note_on_c, 0, 67, 0
2, 80377, Note_on_c, 0, 65, 67
2, 80461, Note_on_c, 0, 65, 0
2, 80481, Note_on_c, 0, 64, 68
2, 80605, Note_on_c, 0, 64, 0
2, 80623, Note_on_c, 0, 74, 0
2, 80625, Note_on_c, 0, 77, 77
2, 80630, Note_on_c, 0, 62, 70
2, 80872, Note_on_c, 0, 62, 0
2, 80893, Note_on_c, 0, 68, 76
2, 81113, Note_on_c, 0, 68, 0
2, 81143, Note_on_c, 0, 76, 75
2, 81152, Note_on_c, 0, 69, 56
2, 81178, Note_on_c, 0, 77, 0
2, 81388, Note_on_c, 0, 60, 62
2, 81403, Note_on_c, 0, 69, 0
2, 81650, Note_on_c, 0, 76, 0
2, 81654, Note_on_c, 0, 60, 0
2, 81656, Note_on_c, 0, 74, 65
2, 81660, Note_on_c, 0, 59, 63
2, 81896, Note_on_c, 0, 65, 54
2, 81984, Note_on_c, 0, 59, 0
2, 82120, Note_on_c, 0, 65, 0
2, 82146, Note_on_c, 0, 64, 69
2, 82250, Note_on_c, 0, 64, 0
2, 82258, Note_on_c, 0, 62, 72
2, 82344, Note_on_c, 0, 62, 0
2, 82367, Note_on_c, 0, 60, 70
2, 82489, Note_on_c, 0, 59, 79
2, 82489, Note_on_c, 0, 60, 0
2, 82593, Note_on_c, 0, 59, 0
2, 82634, Note_on_c, 0, 72, 76
2, 82652, Note_on_c, 0, 74, 0
2, 82657, Note_on_c, 0, 57, 79
2, 82879, Note_on_c, 0, 57, 0
2, 82886, Note_on_c, 0, 72, 0
2, 82888, Note_on_c, 0, 71, 75
2, 82894, Note_on_c, 0, 56, 68
2, 83156, Note_on_c, 0, 57, 62
2, 83156, Note_on_c, 0, 72, 71
2, 83161, Note_on_c, 0, 56, 0
2, 83175, Note_on_c, 0, 71, 0
2, 83404, Note_on_c, 0, 53, 64
2, 83417, Note_on_c, 0, 57, 0
2, 83651, Note_on_c, 0, 53, 0
2, 83673, Note_on_c, 0, 52, 63
2, 83686, Control_c, 0, 67, 124
2, 83686, Note_on_c, 0, 73, 79
2, 83706, Control_c, 0, 67, 119
2, 83706, Note_on_c, 0, 72, 0
2, 83719, Control_c, 0, 67, 113
2, 83740, Control_c, 0, 67, 106
2, 83759, Control_c, 0, 67, 99
2, 83777, Control_c, 0, 67, 91
2, 83797, Control_c, 0, 67, 80
2, 83816, Control_c, 0, 67, 64
2, 83835, Control_c, 0, 67, 41
2, 83854, Control_c, 0, 67, 22
2, 83872, Control_c, 0, 67, 0
2, 83919, Note_on_c, 0, 58, 78
2, 83939, Note_on_c, 0, 52, 0
2, 84157, Note_on_c, 0, 73, 0
2, 84166, Note_on_c, 0, 74, 82
2, 84179, Note_on_c, 0, 59, 67
2, 84184, Note_on_c, 0, 58, 0
2, 84416, Note_on_c, 0, 55, 66
2, 84431, Note_on_c, 0, 59, 0
2, 84658, Note_on_c, 0, 55, 0
2, 84664, Note_on_c, 0, 75, 78
2, 84668, Note_on_c, 0, 54, 76
2, 84673, Note_on_c, 0, 74, 0
2, 84925, Note_on_c, 0, 60, 79
2, 84959, Note_on_c, 0, 54, 0
2, 85159, Note_on_c, 0, 75, 0
2, 85178, Note_on_c, 0, 76, 85
2, 85441, Note_on_c, 0, 59, 79
2, 85448, Note_on_c, 0, 60, 0
2, 85696, Note_on_c, 0, 78, 81
2, 85718, Note_on_c, 0, 76, 0
2, 85938, Note_on_c, 0, 57, 77
2, 85947, Note_on_c, 0, 59, 0
2, 86187, Note_on_c, 0, 57, 0
2, 86200, Note_on_c, 0, 79, 77
2, 86205, Note_on_c, 0, 64, 72
2, 86214, Note_on_c, 0, 78, 0
2, 86326, Note_on_c, 0, 77, 86
2, 86342, Note_on_c, 0, 79, 0
2, 86438, Note_on_c, 0, 77, 0
2, 86442, Note_on_c, 0, 76, 84
2, 86523, Note_on_c, 0, 76, 0
2, 86549, Note_on_c, 0, 74, 82
2, 86666, Note_on_c, 0, 64, 0
2, 86681, Note_on_c, 0, 52, 73
2, 86705, Note_on_c, 0, 73, 86
2, 86709, Note_on_c, 0, 74, 0
2, 86937, Note_on_c, 0, 80, 84
2, 86948, Note_on_c, 0, 73, 0
2, 87198, Note_on_c, 0, 53, 72
2, 87198, Note_on_c, 0, 81, 82
2, 87239, Note_on_c, 0, 80, 0
2, 87255, Note_on_c, 0, 52, 0
2, 87451, Note_on_c, 0, 75, 77
2, 87462, Note_on_c, 0, 81, 0
2, 87691, Note_on_c, 0, 75, 0
2, 87704, Note_on_c, 0, 74, 77
2, 87713, Note_on_c, 0, 54, 68
2, 87738, Note_on_c, 0, 53, 0
2, 87959, Note_on_c, 0, 82, 77
2, 88072, Note_on_c, 0, 74, 0
2, 88219, Note_on_c, 0, 83, 77
2, 88236, Note_on_c, 0, 55, 65
2, 88250, Note_on_c, 0, 54, 0
2, 88268, Note_on_c, 0, 82, 0
2, 88479, Note_on_c, 0, 77, 75
2, 88490, Note_on_c, 0, 83, 0
2, 88724, Note_on_c, 0, 77, 0
2, 88750, Note_on_c, 0, 55, 0
2, 88750, Note_on_c, 0, 76, 72
2, 88751, Note_on_c, 0, 56, 55
2, 88884, Note_on_c, 0, 76, 0
2, 89005, Note_on_c, 0, 74, 75
2, 89266, Note_on_c, 0, 57, 59
2, 89335, Note_on_c, 0, 56, 0
2, 89520, Note_on_c, 0, 72, 80
2, 89522, Note_on_c, 0, 74, 0
2, 89765, Note_on_c, 0, 59, 56
2, 89780, Note_on_c, 0, 57, 0
2, 89959, Control_c, 0, 67, 9
2, 89978, Control_c, 0, 67, 17
2, 90000, Control_c, 0, 67, 22
2, 90018, Control_c, 0, 67, 25
2, 90033, Note_on_c, 0, 71, 71
2, 90042, Note_on_c, 0, 72, 0
2, 90057, Control_c, 0, 67, 27
2, 90075, Control_c, 0, 67, 30
2, 90094, Control_c, 0, 67, 35
2, 90114, Control_c, 0, 67, 40
2, 90133, Control_c, 0, 67, 41
2, 90269, Control_c, 0, 67, 40
2, 90269, Note_on_c, 0, 60, 63
2, 90277, Note_on_c, 0, 59, 0
2, 90306, Control_c, 0, 67, 39
2, 90343, Control_c, 0, 67, 37
2, 90366, Control_c, 0, 67, 36
2, 90383, Control_c, 0, 67, 35
2, 90480, Control_c, 0, 67, 34
2, 90499, Control_c, 0, 67, 33
2, 90524, Note_on_c, 0, 71, 0
2, 90553, Note_on_c, 0, 69, 64
2, 90595, Control_c, 0, 67, 32
2, 90612, Control_c, 0, 67, 31
2, 90653, Note_on_c, 0, 69, 0
2, 90658, Note_on_c, 0, 71, 76
2, 90709, Control_c, 0, 67, 32
2, 90756, Note_on_c, 0, 71, 0
2, 90767, Note_on_c, 0, 60, 0
2, 90784, Note_on_c, 0, 57, 60
2, 90784, Note_on_c, 0, 72, 79
2, 90804, Control_c, 0, 67, 33
2, 91016, Control_c, 0, 67, 34
2, 91053, Note_on_c, 0, 63, 72
2, 91078, Note_on_c, 0, 72, 0
2, 91113, Control_c, 0, 67, 35
2, 91171, Control_c, 0, 67, 36
2, 91253, Note_on_c, 0, 63, 0
2, 91285, Note_on_c, 0, 64, 70
2, 91300, Note_on_c, 0, 55, 56
2, 91329, Note_on_c, 0, 57, 0
2, 91440, Control_c, 0, 67, 35
2, 91538, Control_c, 0, 67, 34
2, 91542, Note_on_c, 0, 73, 75
2, 91561, Note_on_c, 0, 64, 0
2, 91572, Control_c, 0, 67, 33
2, 91706, Control_c, 0, 67, 32
2, 91792, Note_on_c, 0, 74, 73
2, 91797, Note_on_c, 0, 55, 0
2, 91803, Note_on_c, 0, 53, 62
2, 91819, Note_on_c, 0, 73, 0
2, 91958, Control_c, 0, 67, 31
2, 92020, Note_on_c, 0, 74, 0
2, 92042, Note_on_c, 0, 65, 70
2, 92131, Control_c, 0, 67, 30
2, 92148, Control_c, 0, 67, 29
2, 92168, Control_c, 0, 67, 28
2, 92206, Control_c, 0, 67, 27
2, 92255, Note_on_c, 0, 53, 0
2, 92266, Control_c, 0, 67, 26
2, 92277, Note_on_c, 0, 52, 65
2, 92286, Note_on_c, 0, 67, 73
2, 92300, Note_on_c, 0, 65, 0
2, 92343, Control_c, 0, 67, 25
2, 92399, Note_on_c, 0, 52, 0
2, 92399, Note_on_c, 0, 53, 67
2, 92494, Control_c, 0, 67, 26
2, 92508, Note_on_c, 0, 53, 0
2, 92538, Note_on_c, 0, 55, 65
2, 92593, Note_on_c, 0, 55, 0
2, 92611, Control_c, 0, 67, 27
2, 92642, Note_on_c, 0, 57, 71
2, 92688, Control_c, 0, 67, 28
2, 92744, Control_c, 0, 67, 29
2, 92755, Note_on_c, 0, 67, 0
2, 92766, Note_on_c, 0, 74, 75
2, 92782, Note_on_c, 0, 57, 0
2, 92789, Note_on_c, 0, 58, 69
2, 92879, Control_c, 0, 67, 28
2, 93006, Note_on_c, 0, 58, 0
2, 93019, Note_on_c, 0, 53, 65
2, 93265, Note_on_c, 0, 53, 0
2, 93276, Note_on_c, 0, 73, 74
2, 93276, Note_on_c, 0, 74, 0
2, 93281, Note_on_c, 0, 52, 61
2, 93301, Control_c, 0, 67, 29
2, 93524, Note_on_c, 0, 57, 64
2, 93548, Note_on_c, 0, 52, 0
2, 93572, Control_c, 0, 67, 30
2, 93746, Note_on_c, 0, 57, 0
2, 93772, Note_on_c, 0, 55, 56
2, 93772, Note_on_c, 0, 70, 65
2, 93776, Note_on_c, 0, 73, 0
2, 94010, Note_on_c, 0, 55, 0
2, 94032, Note_on_c, 0, 50, 56
2, 94260, Control_c, 0, 67, 29
2, 94287, Note_on_c, 0, 49, 64
2, 94301, Note_on_c, 0, 50, 0
2, 94376, Control_c, 0, 67, 28
2, 94396, Control_c, 0, 67, 27
2, 94400, Note_on_c, 0, 69, 63
2, 94416, Control_c, 0, 67, 26
2, 94416, Note_on_c, 0, 70, 0
2, 94435, Control_c, 0, 67, 24
2, 94453, Control_c, 0, 67, 23
2, 94474, Control_c, 0, 67, 20
2, 94490, Control_c, 0, 67, 12
2, 94511, Control_c, 0, 67, 0
2, 94511, Note_on_c, 0, 69, 0
2, 94520, Note_on_c, 0, 67, 64
2, 94617, Note_on_c, 0, 69, 73
2, 94622, Note_on_c, 0, 67, 0
2, 94738, Note_on_c, 0, 69, 0
2, 94755, Note_on_c, 0, 70, 76
2, 94781, Note_on_c, 0, 55, 57
2, 94820, Note_on_c, 0, 49, 0
2, 95008, Note_on_c, 0, 70, 0
2, 95013, Note_on_c, 0, 61, 70
2, 95241, Note_on_c, 0, 61, 0
2, 95258, Note_on_c, 0, 62, 71
2, 95265, Note_on_c, 0, 53, 67
2, 95265, Note_on_c, 0, 55, 0
2, 95521, Note_on_c, 0, 71, 79
2, 95533, Note_on_c, 0, 62, 0
2, 95764, Note_on_c, 0, 71, 0
2, 95764, Note_on_c, 0, 72, 84
2, 95782, Note_on_c, 0, 53, 0
2, 95786, Note_on_c, 0, 52, 65
2, 96004, Note_on_c, 0, 72, 0
2, 96020, Note_on_c, 0, 64, 72
2, 96197, Note_on_c, 0, 64, 0
2, 96237, Note_on_c, 0, 52, 0
2, 96252, Note_on_c, 0, 50, 66
2, 96268, Note_on_c, 0, 66, 76
2, 96371, Note_on_c, 0, 50, 0
2, 96380, Note_on_c, 0, 52, 66
2, 96474, Note_on_c, 0, 52, 0
2, 96478, Note_on_c, 0, 54, 74
2, 96563, Note_on_c, 0, 54, 0
2, 96594, Note_on_c, 0, 55, 79
2, 96733, Note_on_c, 0, 66, 0
2, 96745, Note_on_c, 0, 72, 82
2, 96754, Note_on_c, 0, 57, 58
2, 96808, Note_on_c, 0, 55, 0
2, 96991, Note_on_c, 0, 51, 71
2, 96995, Note_on_c, 0, 57, 0
2, 97251, Note_on_c, 0, 71, 70
2, 97256, Note_on_c, 0, 51, 0
2, 97260, Note_on_c, 0, 50, 63
2, 97285, Note_on_c, 0, 72, 0
2, 97502, Note_on_c, 0, 50, 0
2, 97502, Note_on_c, 0, 55, 61
2, 97760, Note_on_c, 0, 55, 0
2, 97760, Note_on_c, 0, 68, 73
2, 97765, Note_on_c, 0, 71, 0
2, 97769, Note_on_c, 0, 53, 61
2, 98002, Note_on_c, 0, 53, 0
2, 98026, Note_on_c, 0, 48, 61
2, 98279, Note_on_c, 0, 47, 74
2, 98286, Note_on_c, 0, 48, 0
2, 98366, Note_on_c, 0, 68, 0
2, 98388, Note_on_c, 0, 67, 77
2, 98505, Note_on_c, 0, 69, 77
2, 98573, Note_on_c, 0, 67, 0
2, 98608, Note_on_c, 0, 69, 0
2, 98608, Note_on_c, 0, 71, 81
2, 98748, Note_on_c, 0, 71, 0
2, 98748, Note_on_c, 0, 72, 86
2, 98758, Note_on_c, 0, 52, 77
2, 98769, Note_on_c, 0, 47, 0
2, 99007, Note_on_c, 0, 72, 0
2, 99026, Note_on_c, 0, 67, 74
2, 99274, Note_on_c, 0, 66, 78
2, 99287, Note_on_c, 0, 51, 69
2, 99291, Note_on_c, 0, 52, 0
2, 99296, Note_on_c, 0, 67, 0
2, 99529, Note_on_c, 0, 70, 80
2, 99553, Note_on_c, 0, 66, 0
2, 99782, Note_on_c, 0, 71, 79
2, 99803, Note_on_c, 0, 51, 0
2, 99807, Note_on_c, 0, 50, 62
2, 99812, Note_on_c, 0, 70, 0
2, 100050, Note_on_c, 0, 65, 68
2, 100050, Note_on_c, 0, 71, 0
2, 100309, Note_on_c, 0, 49, 66
2, 100313, Note_on_c, 0, 64, 73
2, 100331, Note_on_c, 0, 50, 0
2, 100379, Note_on_c, 0, 65, 0
2, 100549, Note_on_c, 0, 68, 76
2, 100598, Note_on_c, 0, 64, 0
2, 100792, Note_on_c, 0, 69, 77
2, 100822, Note_on_c, 0, 48, 71
2, 100822, Note_on_c, 0, 68, 0
2, 100830, Note_on_c, 0, 49, 0
2, 101070, Note_on_c, 0, 63, 77
2, 101195, Note_on_c, 0, 69, 0
2, 101311, Note_on_c, 0, 47, 72
2, 101327, Note_on_c, 0, 48, 0
2, 101568, Note_on_c, 0, 64, 86
2, 101577, Note_on_c, 0, 63, 0
2, 101819, Note_on_c, 0, 45, 73
2, 101823, Note_on_c, 0, 47, 0
2, 102036, Note_on_c, 0, 64, 0
2, 102069, Note_on_c, 0, 65, 75
2, 102322, Note_on_c, 0, 59, 82
2, 102332, Note_on_c, 0, 65, 0
2, 102433, Note_on_c, 0, 45, 0
2, 102435, Note_on_c, 0, 48, 74
2, 102462, Note_on_c, 0, 59, 0
2, 102553, Note_on_c, 0, 47, 74
2, 102553, Note_on_c, 0, 48, 0
2, 102663, Note_on_c, 0, 47, 0
2, 102667, Note_on_c, 0, 45, 73
2, 102798, Note_on_c, 0, 45, 0
2, 102812, Note_on_c, 0, 76, 89
2, 102816, Note_on_c, 0, 44, 76
2, 103079, Note_on_c, 0, 49, 77
2, 103106, Note_on_c, 0, 44, 0
2, 103351, Note_on_c, 0, 50, 70
2, 103351, Note_on_c, 0, 77, 87
2, 103360, Note_on_c, 0, 76, 0
2, 103369, Note_on_c, 0, 49, 0
2, 103599, Note_on_c, 0, 46, 79
2, 103616, Note_on_c, 0, 50, 0
2, 103863, Note_on_c, 0, 46, 0
2, 103863, Note_on_c, 0, 78, 87
2, 103871, Note_on_c, 0, 45, 70
2, 103876, Note_on_c, 0, 77, 0
2, 104107, Note_on_c, 0, 45, 0
2, 104107, Note_on_c, 0, 51, 85
2, 104360, Note_on_c, 0, 79, 87
2, 104372, Note_on_c, 0, 52, 71
2, 104393, Note_on_c, 0, 51, 0
2, 104395, Note_on_c, 0, 78, 0
2, 104620, Note_on_c, 0, 48, 71
2, 104637, Note_on_c, 0, 52, 0
2, 104860, Note_on_c, 0, 48, 0
2, 104864, Note_on_c, 0, 80, 82
2, 104871, Note_on_c, 0, 47, 70
2, 104871, Note_on_c, 0, 79, 0
2, 105124, Note_on_c, 0, 53, 82
2, 105167, Note_on_c, 0, 47, 0
2, 105380, Note_on_c, 0, 81, 80
2, 105400, Note_on_c, 0, 80, 0
2, 105620, Note_on_c, 0, 53, 0
2, 105623, Note_on_c, 0, 52, 73
2, 105907, Note_on_c, 0, 83, 77
2, 105935, Note_on_c, 0, 81, 0
2, 106148, Note_on_c, 0, 50, 68
2, 106162, Note_on_c, 0, 52, 0
2, 106417, Note_on_c, 0, 50, 0
2, 106424, Note_on_c, 0, 48, 68
2, 106568, Control_c, 0, 67, 9
2, 106588, Control_c, 0, 67, 16
2, 106606, Control_c, 0, 67, 22
2, 106627, Control_c, 0, 67, 27
2, 106644, Control_c, 0, 67, 35
2, 106663, Control_c, 0, 67, 45
2, 106682, Control_c, 0, 67, 59
2, 106686, Note_on_c, 0, 83, 0
2, 106697, Note_on_c, 0, 81, 74
2, 106704, Control_c, 0, 67, 75
2, 106723, Control_c, 0, 67, 93
2, 106740, Control_c, 0, 67, 106
2, 106759, Control_c, 0, 67, 117
2, 106779, Control_c, 0, 67, 127
2, 106800, Note_on_c, 0, 81, 0
2, 106804, Note_on_c, 0, 83, 78
2, 106929, Note_on_c, 0, 83, 0
2, 106933, Note_on_c, 0, 52, 58
2, 106933, Note_on_c, 0, 84, 75
2, 106943, Note_on_c, 0, 48, 0
2, 107186, Note_on_c, 0, 84, 0
2, 107209, Note_on_c, 0, 76, 75
2, 107457, Note_on_c, 0, 54, 58
2, 107476, Note_on_c, 0, 52, 0
2, 107696, Note_on_c, 0, 76, 0
2, 107712, Note_on_c, 0, 75, 71
2, 107971, Note_on_c, 0, 75, 0
2, 107971, Note_on_c, 0, 83, 64
2, 107985, Note_on_c, 0, 56, 54
2, 108051, Note_on_c, 0, 54, 0
2, 108225, Note_on_c, 0, 83, 0
2, 108234, Note_on_c, 0, 74, 59
2, 108492, Note_on_c, 0, 56, 0
2, 108492, Note_on_c, 0, 57, 57
2, 108582, Note_on_c, 0, 74, 0
2, 108613, Note_on_c, 0, 72, 73
2, 108717, Note_on_c, 0, 74, 74
2, 108724, Note_on_c, 0, 72, 0
2, 108828, Note_on_c, 0, 76, 76
2, 108833, Note_on_c, 0, 74, 0
2, 108962, Note_on_c, 0, 77, 78
2, 108973, Note_on_c, 0, 45, 42
2, 108973, Note_on_c, 0, 57, 0
2, 108973, Note_on_c, 0, 76, 0
2, 109219, Note_on_c, 0, 77, 0
2, 109227, Note_on_c, 0, 69, 64
2, 109462, Note_on_c, 0, 47, 57
2, 109501, Note_on_c, 0, 45, 0
2, 109690, Note_on_c, 0, 69, 0
2, 109726, Note_on_c, 0, 68, 70
2, 109991, Note_on_c, 0, 76, 71
2, 109999, Note_on_c, 0, 68, 0
2, 110008, Note_on_c, 0, 49, 50
2, 110060, Note_on_c, 0, 47, 0
2, 110240, Note_on_c, 0, 76, 0
2, 110257, Note_on_c, 0, 67, 63
2, 110505, Note_on_c, 0, 49, 0
2, 110514, Note_on_c, 0, 50, 56
2, 110615, Note_on_c, 0, 67, 0
2, 110637, Note_on_c, 0, 65, 64
2, 110751, Note_on_c, 0, 67, 68
2, 110755, Note_on_c, 0, 65, 0
2, 110851, Note_on_c, 0, 67, 0
2, 110851, Note_on_c, 0, 69, 68
2, 110969, Note_on_c, 0, 50, 0
2, 110977, Note_on_c, 0, 69, 0
2, 110998, Note_on_c, 0, 38, 57
2, 110998, Note_on_c, 0, 70, 74
2, 111258, Note_on_c, 0, 62, 66
2, 111258, Note_on_c, 0, 70, 0
2, 111513, Note_on_c, 0, 40, 60
2, 111522, Note_on_c, 0, 38, 0
2, 111756, Note_on_c, 0, 62, 0
2, 111778, Note_on_c, 0, 61, 70
2, 112034, Note_on_c, 0, 40, 0
2, 112034, Note_on_c, 0, 52, 62
2, 112039, Note_on_c, 0, 69, 71
2, 112047, Note_on_c, 0, 61, 0
2, 112297, Note_on_c, 0, 69, 0
2, 112312, Note_on_c, 0, 60, 67
2, 112530, Note_on_c, 0, 52, 0
2, 112550, Note_on_c, 0, 51, 60
2, 112809, Note_on_c, 0, 59, 66
2, 112851, Note_on_c, 0, 60, 0
2, 113055, Note_on_c, 0, 59, 0
2, 113062, Note_on_c, 0, 51, 0
2, 113070, Note_on_c, 0, 50, 51
2, 113070, Note_on_c, 0, 68, 71
2, 113329, Note_on_c, 0, 68, 0
2, 113331, Note_on_c, 0, 59, 62
2, 113589, Note_on_c, 0, 50, 0
2, 113594, Note_on_c, 0, 49, 56
2, 113838, Note_on_c, 0, 59, 0
2, 113842, Note_on_c, 0, 57, 69
2, 114102, Note_on_c, 0, 57, 0
2, 114109, Note_on_c, 0, 48, 53
2, 114109, Note_on_c, 0, 65, 67
2, 114142, Note_on_c, 0, 49, 0
2, 114337, Note_on_c, 0, 65, 0
2, 114368, Note_on_c, 0, 57, 64
2, 114620, Note_on_c, 0, 47, 57
2, 114624, Note_on_c, 0, 48, 0
2, 114889, Note_on_c, 0, 57, 0
2, 114897, Note_on_c, 0, 56, 66
2, 114989, Note_on_c, 0, 47, 0
2, 114998, Note_on_c, 0, 54, 72
2, 115008, Note_on_c, 0, 56, 0
2, 115127, Note_on_c, 0, 56, 75
2, 115132, Note_on_c, 0, 47, 59
2, 115139, Note_on_c, 0, 54, 0
2, 115381, Note_on_c, 0, 56, 0
2, 115392, Note_on_c, 0, 62, 80
2, 115625, Note_on_c, 0, 47, 0
2, 115636, Note_on_c, 0, 45, 72
2, 115755, Note_on_c, 0, 60, 77
2, 115781, Note_on_c, 0, 62, 0
2, 115875, Note_on_c, 0, 59, 75
2, 115879, Note_on_c, 0, 60, 0
2, 115948, Note_on_c, 0, 59, 0
2, 115972, Note_on_c, 0, 57, 81
2, 115985, Note_on_c, 0, 45, 0
2, 116080, Note_on_c, 0, 57, 0
2, 116108, Note_on_c, 0, 59, 81
2, 116113, Note_on_c, 0, 45, 69
2, 116337, Control_c, 0, 67, 126
2, 116350, Note_on_c, 0, 59, 0
2, 116361, Control_c, 0, 67, 121
2, 116374, Control_c, 0, 67, 114
2, 116378, Note_on_c, 0, 65, 81
2, 116394, Control_c, 0, 67, 106
2, 116415, Control_c, 0, 67, 98
2, 116433, Control_c, 0, 67, 90
2, 116450, Control_c, 0, 67, 81
2, 116472, Control_c, 0, 67, 68
2, 116491, Control_c, 0, 67, 53
2, 116511, Control_c, 0, 67, 33
2, 116520, Note_on_c, 0, 45, 0
2, 116528, Control_c, 0, 67, 11
2, 116548, Control_c, 0, 67, 0
2, 116641, Note_on_c, 0, 44, 79
2, 116727, Note_on_c, 0, 64, 79
2, 116773, Note_on_c, 0, 65, 0
2, 116852, Note_on_c, 0, 62, 78
2, 116886, Note_on_c, 0, 64, 0
2, 116954, Note_on_c, 0, 61, 80
2, 116958, Note_on_c, 0, 62, 0
2, 117030, Note_on_c, 0, 44, 0
2, 117096, Note_on_c, 0, 62, 84
2, 117132, Note_on_c, 0, 44, 77
2, 117139, Note_on_c, 0, 61, 0
2, 117166, Control_c, 0, 64, 12
2, 117184, Control_c, 0, 64, 15
2, 117202, Control_c, 0, 64, 16
2, 117221, Control_c, 0, 64, 18
2, 117240, Control_c, 0, 64, 20
2, 117260, Control_c, 0, 64, 23
2, 117260, Note_on_c, 0, 62, 0
2, 117278, Control_c, 0, 64, 25
2, 117334, Control_c, 0, 64, 23
2, 117354, Control_c, 0, 64, 21
2, 117373, Control_c, 0, 64, 20
2, 117381, Note_on_c, 0, 71, 88
2, 117412, Control_c, 0, 64, 18
2, 117434, Control_c, 0, 64, 14
2, 117450, Control_c, 0, 64, 9
2, 117472, Control_c, 0, 64, 0
2, 117603, Control_c, 0, 64, 12
2, 117624, Note_on_c, 0, 44, 0
2, 117629, Control_c, 0, 64, 18
2, 117638, Note_on_c, 0, 40, 76
2, 117642, Control_c, 0, 64, 21
2, 117662, Control_c, 0, 64, 22
2, 117681, Control_c, 0, 64, 19
2, 117700, Control_c, 0, 64, 18
2, 117718, Control_c, 0, 64, 16
2, 117736, Note_on_c, 0, 69, 77
2, 117757, Control_c, 0, 64, 15
2, 117787, Note_on_c, 0, 71, 0
2, 117855, Control_c, 0, 64, 16
2, 117855, Note_on_c, 0, 68, 84
2, 117868, Note_on_c, 0, 69, 0
2, 117875, Control_c, 0, 64, 17
2, 117966, Note_on_c, 0, 40, 0
2, 117976, Note_on_c, 0, 66, 79
2, 117996, Note_on_c, 0, 68, 0
2, 118042, Control_c, 0, 64, 16
2, 118102, Note_on_c, 0, 68, 90
2, 118106, Control_c, 0, 64, 15
2, 118106, Note_on_c, 0, 40, 76
2, 118120, Note_on_c, 0, 66, 0
2, 118157, Control_c, 0, 64, 14
2, 118177, Control_c, 0, 64, 13
2, 118215, Control_c, 0, 64, 12
2, 118236, Control_c, 0, 64, 11
2, 118342, Note_on_c, 0, 68, 0
2, 118350, Control_c, 0, 64, 10
2, 118390, Control_c, 0, 64, 9
2, 118397, Note_on_c, 0, 74, 91
2, 118406, Control_c, 0, 64, 0
2, 118670, Note_on_c, 0, 45, 77
2, 118684, Note_on_c, 0, 40, 0
2, 118932, Note_on_c, 0, 72, 77
2, 118962, Note_on_c, 0, 74, 0
2, 119038, Note_on_c, 0, 71, 81
2, 119047, Note_on_c, 0, 72, 0
2, 119159, Note_on_c, 0, 72, 84
2, 119166, Note_on_c, 0, 71, 0
2, 119302, Note_on_c, 0, 50, 68
2, 119304, Note_on_c, 0, 45, 0
2, 119393, Note_on_c, 0, 72, 0
2, 119411, Note_on_c, 0, 50, 0
2, 119411, Note_on_c, 0, 69, 77
2, 119431, Note_on_c, 0, 52, 75
2, 119528, Note_on_c, 0, 52, 0
2, 119546, Note_on_c, 0, 54, 77
2, 119642, Note_on_c, 0, 54, 0
2, 119666, Note_on_c, 0, 55, 68
2, 119677, Note_on_c, 0, 69, 0
2, 119677, Note_on_c, 0, 70, 78
2, 119938, Note_on_c, 0, 51, 74
2, 119955, Note_on_c, 0, 55, 0
2, 120182, Note_on_c, 0, 70, 0
2, 120191, Note_on_c, 0, 51, 0
2, 120193, Note_on_c, 0, 71, 81
2, 120208, Note_on_c, 0, 50, 64
2, 120443, Note_on_c, 0, 56, 75
2, 120451, Note_on_c, 0, 50, 0
2, 120700, Note_on_c, 0, 72, 87
2, 120710, Note_on_c, 0, 57, 73
2, 120714, Note_on_c, 0, 71, 0
2, 120734, Note_on_c, 0, 56, 0
2, 120956, Note_on_c, 0, 53, 80
2, 120972, Note_on_c, 0, 57, 0
2, 121187, Note_on_c, 0, 53, 0
2, 121213, Note_on_c, 0, 52, 68
2, 121213, Note_on_c, 0, 73, 85
2, 121239, Note_on_c, 0, 72, 0
2, 121469, Note_on_c, 0, 58, 91
2, 121482, Note_on_c, 0, 52, 0
2, 121732, Note_on_c, 0, 73, 0
2, 121737, Note_on_c, 0, 74, 92
2, 122000, Note_on_c, 0, 57, 91
2, 122004, Note_on_c, 0, 58, 0
2, 122264, Note_on_c, 0, 74, 0
2, 122268, Note_on_c, 0, 76, 90
2, 122527, Note_on_c, 0, 55, 83
2, 122534, Note_on_c, 0, 57, 0
2, 122777, Note_on_c, 0, 53, 79
2, 122794, Note_on_c, 0, 55, 0
2, 122895, Note_on_c, 0, 73, 84
2, 122904, Note_on_c, 0, 53, 0
2, 122914, Note_on_c, 0, 52, 83
2, 122930, Note_on_c, 0, 76, 0
2, 123019, Note_on_c, 0, 74, 87
2, 123031, Note_on_c, 0, 53, 80
2, 123031, Note_on_c, 0, 73, 0
2, 123043, Note_on_c, 0, 52, 0
2, 123128, Note_on_c, 0, 53, 0
2, 123128, Note_on_c, 0, 76, 88
2, 123137, Note_on_c, 0, 55, 80
2, 123141, Note_on_c, 0, 74, 0
2, 123225, Note_on_c, 0, 55, 0
2, 123253, Note_on_c, 0, 77, 91
2, 123258, Note_on_c, 0, 57, 81
2, 123266, Note_on_c, 0, 76, 0
2, 123567, Note_on_c, 0, 72, 79
2, 123571, Note_on_c, 0, 77, 0
2, 123818, Note_on_c, 0, 71, 79
2, 123825, Note_on_c, 0, 56, 67
2, 123851, Note_on_c, 0, 72, 0
2, 123879, Note_on_c, 0, 57, 0
2, 124068, Note_on_c, 0, 75, 75
2, 124111, Note_on_c, 0, 71, 0
2, 124325, Note_on_c, 0, 76, 82
2, 124345, Note_on_c, 0, 55, 63
2, 124349, Note_on_c, 0, 75, 0
2, 124355, Note_on_c, 0, 56, 0
2, 124584, Note_on_c, 0, 70, 75
2, 124608, Note_on_c, 0, 76, 0
2, 124844, Note_on_c, 0, 69, 64
2, 124856, Note_on_c, 0, 54, 65
2, 124879, Note_on_c, 0, 55, 0
2, 124879, Note_on_c, 0, 70, 0
2, 125112, Note_on_c, 0, 73, 80
2, 125133, Note_on_c, 0, 69, 0
2, 125374, Note_on_c, 0, 74, 71
2, 125387, Note_on_c, 0, 53, 63
2, 125401, Note_on_c, 0, 73, 0
2, 125414, Note_on_c, 0, 54, 0
2, 125647, Note_on_c, 0, 68, 75
2, 125668, Note_on_c, 0, 74, 0
2, 125893, Note_on_c, 0, 52, 65
2, 125924, Note_on_c, 0, 53, 0
2, 126152, Note_on_c, 0, 69, 71
2, 126177, Note_on_c, 0, 68, 0
2, 126414, Note_on_c, 0, 50, 69
2, 126442, Note_on_c, 0, 52, 0
2, 126667, Note_on_c, 0, 71, 75
2, 126671, Note_on_c, 0, 69, 0
2, 126885, Note_on_c, 0, 71, 0
2, 126925, Note_on_c, 0, 64, 77
2, 127047, Note_on_c, 0, 50, 0
2, 127133, Note_on_c, 0, 64, 0
2, 127184, Note_on_c, 0, 76, 81
2, 127193, Note_on_c, 0, 48, 68
2, 127258, Note_on_c, 0, 48, 0
2, 127298, Note_on_c, 0, 47, 77
2, 127409, Note_on_c, 0, 47, 0
2, 127428, Note_on_c, 0, 48, 75
2, 127549, Note_on_c, 0, 74, 79
2, 127576, Note_on_c, 0, 76, 0
2, 127611, Note_on_c, 0, 48, 0
2, 127673, Note_on_c, 0, 72, 83
2, 127687, Note_on_c, 0, 45, 75
2, 127700, Note_on_c, 0, 74, 0
2, 127799, Note_on_c, 0, 71, 81
2, 127813, Note_on_c, 0, 72, 0
2, 127857, Note_on_c, 0, 45, 0
2, 127925, Note_on_c, 0, 71, 0
2, 127930, Note_on_c, 0, 74, 83
2, 127941, Note_on_c, 0, 52, 79
2, 127975, Control_c, 0, 67, 9
2, 127992, Control_c, 0, 67, 13
2, 128009, Control_c, 0, 67, 19
2, 128029, Control_c, 0, 67, 26
2, 128049, Control_c, 0, 67, 33
2, 128069, Control_c, 0, 67, 40
2, 128069, Note_on_c, 0, 72, 83
2, 128086, Control_c, 0, 67, 48
2, 128106, Control_c, 0, 67, 55
2, 128126, Control_c, 0, 67, 63
2, 128130, Note_on_c, 0, 74, 0
2, 128144, Control_c, 0, 67, 68
2, 128162, Control_c, 0, 67, 73
2, 128183, Control_c, 0, 67, 78
2, 128192, Note_on_c, 0, 71, 81
2, 128204, Control_c, 0, 67, 81
2, 128204, Note_on_c, 0, 72, 0
2, 128225, Control_c, 0, 67, 86
2, 128242, Control_c, 0, 67, 90
2, 128260, Control_c, 0, 67, 94
2, 128279, Control_c, 0, 67, 96
2, 128284, Note_on_c, 0, 71, 0
2, 128304, Note_on_c, 0, 69, 77
2, 128320, Control_c, 0, 67, 97
2, 128347, Note_on_c, 0, 52, 0
2, 128376, Control_c, 0, 67, 98
2, 128396, Control_c, 0, 67, 99
2, 128413, Control_c, 0, 67, 101
2, 128438, Control_c, 0, 67, 103
2, 128438, Note_on_c, 0, 40, 67
2, 128442, Note_on_c, 0, 69, 0
2, 128442, Note_on_c, 0, 72, 87
2, 128452, Control_c, 0, 67, 104
2, 128510, Control_c, 0, 67, 106
2, 128530, Control_c, 0, 67, 107
2, 128548, Control_c, 0, 67, 108
2, 128568, Control_c, 0, 67, 109
2, 128576, Note_on_c, 0, 71, 80
2, 128585, Note_on_c, 0, 72, 0
2, 128605, Control_c, 0, 67, 110
2, 128661, Note_on_c, 0, 71, 0
2, 128699, Note_on_c, 0, 69, 75
2, 128815, Note_on_c, 0, 68, 80
2, 128833, Note_on_c, 0, 69, 0
2, 128912, Control_c, 0, 67, 109
2, 128946, Note_on_c, 0, 45, 65
2, 128951, Note_on_c, 0, 40, 0
2, 128975, Note_on_c, 0, 68, 0
2, 128985, Note_on_c, 0, 69, 73
2, 129046, Control_c, 0, 67, 108
2, 129056, Note_on_c, 0, 69, 0
2, 129072, Note_on_c, 0, 68, 85
2, 129139, Note_on_c, 0, 69, 77
2, 129145, Note_on_c, 0, 68, 0
2, 129257, Control_c, 0, 67, 107
2, 129334, Note_on_c, 0, 47, 73
2, 129341, Note_on_c, 0, 45, 0
2, 129450, Control_c, 0, 67, 106
2, 129461, Note_on_c, 0, 48, 72
2, 129465, Note_on_c, 0, 47, 0
2, 129568, Note_on_c, 0, 48, 0
2, 129580, Note_on_c, 0, 50, 75
2, 129660, Note_on_c, 0, 50, 0
2, 129699, Note_on_c, 0, 52, 76
2, 129807, Note_on_c, 0, 52, 0
2, 129811, Note_on_c, 0, 54, 75
2, 129928, Note_on_c, 0, 54, 0
2, 129937, Note_on_c, 0, 56, 78
2, 130067, Note_on_c, 0, 56, 0
2, 130085, Note_on_c, 0, 57, 82
2, 130895, Note_on_c, 0, 45, 51
2, 130895, Note_on_c, 0, 57, 0
2, 132446, Control_c, 0, 67, 105
2, 132484, Control_c, 0, 67, 104
2, 132521, Control_c, 0, 67, 103
2, 132539, Control_c, 0, 67, 102
2, 132562, Control_c, 0, 67, 101
2, 132599, Control_c, 0, 67, 100
2, 132638, Control_c, 0, 67, 99
2, 132676, Control_c, 0, 67, 98
2, 132694, Control_c, 0, 67, 97
2, 132713, Control_c, 0, 67, 96
2, 132771, Note_on_c, 0, 69, 0
2, 132786, Note_on_c, 0, 45, 0
2, 132829, Control_c, 0, 67, 95
2, 133021, Control_c, 0, 67, 94
2, 133808, Control_c, 0, 67, 93
2, 133904, Control_c, 0, 67, 92
2, 133981, Control_c, 0, 67, 91
2, 134057, Control_c, 0, 67, 90
2, 134116, Control_c, 0, 67, 87
2, 134134, Control_c, 0, 67, 84
2, 134154, Control_c, 0, 67, 81
2, 134176, Control_c, 0, 67, 79
2, 134194, Control_c, 0, 67, 76
2, 134214, Control_c, 0, 67, 74
2, 134230, Control_c, 0, 67, 73
2, 134249, Control_c, 0, 67, 72
2, 134272, Control_c, 0, 67, 70
2, 134287, Control_c, 0, 67, 68
2, 134310, Control_c, 0, 67, 66
2, 134326, Control_c, 0, 67, 65
2, 134346, Control_c, 0, 67, 64
2, 134366, Control_c, 0, 67, 62
2, 134388, Control_c, 0, 67, 60
2, 134404, Control_c, 0, 67, 56
2, 134423, Control_c, 0, 67, 52
2, 134442, Control_c, 0, 67, 47
2, 134462, Control_c, 0, 67, 43
2, 134481, Control_c, 0, 67, 39
2, 134499, Control_c, 0, 67, 35
2, 134519, Control_c, 0, 67, 29
2, 134538, Control_c, 0, 67, 21
2, 134558, Control_c, 0, 67, 11
2, 134575, Control_c, 0, 67, 0
2, 135877, Note_on_c, 0, 64, 89
2, 136679, Note_on_c, 0, 64, 0
2, 136825, Note_on_c, 0, 60, 74
2, 136846, Note_on_c, 0, 62, 60
2, 136891, Note_on_c, 0, 62, 0
2, 137564, Note_on_c, 0, 60, 0
2, 137688, Note_on_c, 0, 65, 81
2, 138519, Note_on_c, 0, 65, 0
2, 138635, Note_on_c, 0, 56, 84
2, 139483, Note_on_c, 0, 56, 0
2, 140688, Note_on_c, 0, 62, 79
2, 140784, Note_on_c, 0, 62, 0
2, 141113, Note_on_c, 0, 59, 81
2, 141203, Note_on_c, 0, 59, 0
2, 141516, Note_on_c, 0, 64, 87
2, 141629, Note_on_c, 0, 64, 0
2, 141926, Note_on_c, 0, 60, 88
2, 142019, Note_on_c, 0, 60, 0
2, 142315, Note_on_c, 0, 57, 89
2, 142398, Note_on_c, 0, 57, 0
2, 142702, Note_on_c, 0, 69, 88
2, 142716, Note_on_c, 0, 54, 75
2, 142813, Note_on_c, 0, 54, 0
2, 143132, Note_on_c, 0, 63, 81
2, 143272, Note_on_c, 0, 63, 0
2, 143432, Note_on_c, 0, 69, 0
2, 143521, Note_on_c, 0, 67, 89
2, 143531, Note_on_c, 0, 52, 82
2, 143540, Control_c, 0, 64, 17
2, 143560, Control_c, 0, 64, 49
2, 143578, Control_c, 0, 64, 51
2, 143598, Control_c, 0, 64, 49
2, 143617, Control_c, 0, 64, 43
2, 143635, Control_c, 0, 64, 32
2, 143653, Control_c, 0, 64, 8
2, 143673, Control_c, 0, 64, 0
2, 143717, Note_on_c, 0, 52, 0
2, 143943, Note_on_c, 0, 64, 78
2, 143988, Note_on_c, 0, 64, 0
2, 144035, Note_on_c, 0, 62, 78
2, 144121, Note_on_c, 0, 60, 80
2, 144121, Note_on_c, 0, 62, 0
2, 144195, Note_on_c, 0, 60, 0
2, 144202, Note_on_c, 0, 67, 0
2, 144223, Note_on_c, 0, 59, 80
2, 144316, Note_on_c, 0, 72, 95
2, 144321, Note_on_c, 0, 59, 0
2, 144325, Note_on_c, 0, 57, 83
2, 144348, Control_c, 0, 64, 46
2, 144367, Control_c, 0, 64, 66
2, 144384, Control_c, 0, 64, 67
2, 144405, Control_c, 0, 64, 63
2, 144416, Note_on_c, 0, 57, 0
2, 144425, Control_c, 0, 64, 56
2, 144445, Control_c, 0, 64, 55
2, 144460, Control_c, 0, 64, 56
2, 144480, Control_c, 0, 64, 57
2, 144502, Control_c, 0, 64, 56
2, 144518, Control_c, 0, 64, 55
2, 144578, Control_c, 0, 64, 54
2, 144596, Control_c, 0, 64, 53
2, 144616, Control_c, 0, 64, 50
2, 144633, Control_c, 0, 64, 37
2, 144652, Control_c, 0, 64, 0
2, 144718, Note_on_c, 0, 60, 76
2, 144764, Note_on_c, 0, 60, 0
2, 144808, Note_on_c, 0, 59, 83
2, 144866, Note_on_c, 0, 59, 0
2, 144897, Note_on_c, 0, 72, 0
2, 144908, Note_on_c, 0, 57, 78
2, 144972, Note_on_c, 0, 57, 0
2, 145013, Note_on_c, 0, 55, 72
2, 145069, Note_on_c, 0, 55, 0
2, 145086, Note_on_c, 0, 63, 90
2, 145120, Note_on_c, 0, 54, 76
2, 145131, Control_c, 0, 64, 8
2, 145151, Control_c, 0, 64, 59
2, 145158, Note_on_c, 0, 54, 0
2, 145172, Control_c, 0, 64, 64
2, 145192, Control_c, 0, 64, 60
2, 145197, Note_on_c, 0, 55, 74
2, 145210, Control_c, 0, 64, 52
2, 145230, Control_c, 0, 64, 43
2, 145248, Control_c, 0, 64, 32
2, 145252, Note_on_c, 0, 55, 0
2, 145267, Control_c, 0, 64, 20
2, 145288, Control_c, 0, 64, 0
2, 145288, Note_on_c, 0, 57, 83
2, 145587, Note_on_c, 0, 57, 0
2, 145589, Note_on_c, 0, 55, 68
2, 145662, Note_on_c, 0, 55, 0
2, 145689, Note_on_c, 0, 54, 70
2, 145747, Note_on_c, 0, 54, 0
2, 145779, Note_on_c, 0, 52, 66
2, 145839, Note_on_c, 0, 52, 0
2, 145875, Note_on_c, 0, 51, 74
2, 145919, Note_on_c, 0, 51, 0
2, 145963, Note_on_c, 0, 52, 78
2, 146019, Note_on_c, 0, 52, 0
2, 146061, Note_on_c, 0, 54, 77
2, 146336, Note_on_c, 0, 54, 0
2, 146364, Note_on_c, 0, 52, 72
2, 146435, Note_on_c, 0, 52, 0
2, 146463, Note_on_c, 0, 51, 76
2, 146512, Note_on_c, 0, 63, 0
2, 146539, Note_on_c, 0, 51, 0
2, 146546, Note_on_c, 0, 49, 75
2, 146637, Note_on_c, 0, 49, 0
2, 146655, Note_on_c, 0, 47, 85
2, 147034, Note_on_c, 0, 69, 84
2, 147111, Note_on_c, 0, 47, 0
2, 147164, Note_on_c, 0, 69, 0
2, 147238, Note_on_c, 0, 49, 73
2, 147286, Note_on_c, 0, 49, 0
2, 147326, Note_on_c, 0, 51, 83
2, 147396, Note_on_c, 0, 51, 0
2, 147424, Note_on_c, 0, 52, 82
2, 147432, Note_on_c, 0, 66, 82
2, 147485, Note_on_c, 0, 52, 0
2, 147520, Note_on_c, 0, 51, 78
2, 147524, Note_on_c, 0, 66, 0
2, 147564, Note_on_c, 0, 51, 0
2, 147607, Note_on_c, 0, 52, 80
2, 147677, Note_on_c, 0, 52, 0
2, 147697, Note_on_c, 0, 51, 75
2, 147774, Note_on_c, 0, 51, 0
2, 147801, Note_on_c, 0, 52, 78
2, 147812, Note_on_c, 0, 71, 75
2, 147826, Note_on_c, 0, 69, 60
2, 147858, Note_on_c, 0, 69, 0
2, 147869, Note_on_c, 0, 52, 0
2, 147878, Note_on_c, 0, 71, 0
2, 147898, Note_on_c, 0, 51, 75
2, 147953, Note_on_c, 0, 51, 0
2, 147992, Note_on_c, 0, 49, 73
2, 148063, Note_on_c, 0, 49, 0
2, 148084, Note_on_c, 0, 51, 76
2, 148191, Note_on_c, 0, 51, 0
2, 148211, Note_on_c, 0, 67, 77
2, 148220, Note_on_c, 0, 52, 79
2, 148242, Control_c, 0, 67, 20
2, 148264, Control_c, 0, 67, 35
2, 148284, Control_c, 0, 67, 49
2, 148301, Control_c, 0, 67, 62
2, 148312, Note_on_c, 0, 67, 0
2, 148321, Control_c, 0, 67, 72
2, 148341, Control_c, 0, 67, 82
2, 148341, Note_on_c, 0, 52, 0
2, 148361, Control_c, 0, 67, 95
2, 148378, Control_c, 0, 67, 109
2, 148397, Control_c, 0, 67, 122
2, 148416, Control_c, 0, 67, 127
2, 148646, Note_on_c, 0, 64, 68
2, 148686, Note_on_c, 0, 64, 0
2, 148723, Note_on_c, 0, 52, 55
2, 148822, Note_on_c, 0, 53, 64
2, 148831, Note_on_c, 0, 52, 0
2, 148871, Note_on_c, 0, 53, 0
2, 148900, Note_on_c, 0, 55, 69
2, 148962, Note_on_c, 0, 55, 0
2, 149017, Note_on_c, 0, 57, 69
2, 149032, Note_on_c, 0, 61, 64
2, 149117, Note_on_c, 0, 57, 0
2, 149139, Note_on_c, 0, 61, 0
2, 149454, Note_on_c, 0, 69, 66
2, 149503, Note_on_c, 0, 69, 0
2, 149530, Control_c, 0, 67, 126
2, 149534, Note_on_c, 0, 55, 61
2, 149577, Note_on_c, 0, 55, 0
2, 149629, Note_on_c, 0, 53, 65
2, 149692, Note_on_c, 0, 53, 0
2, 149701, Control_c, 0, 67, 125
2, 149725, Note_on_c, 0, 52, 68
2, 149742, Control_c, 0, 67, 124
2, 149824, Note_on_c, 0, 52, 0
2, 149838, Note_on_c, 0, 50, 74
2, 149838, Note_on_c, 0, 65, 74
2, 149923, Note_on_c, 0, 65, 0
2, 149968, Note_on_c, 0, 50, 0
2, 150125, Control_c, 0, 67, 123
2, 150163, Control_c, 0, 67, 122
2, 150238, Control_c, 0, 67, 121
2, 150265, Note_on_c, 0, 62, 71
2, 150298, Note_on_c, 0, 62, 0
2, 150302, Control_c, 0, 67, 120
2, 150349, Note_on_c, 0, 50, 63
2, 150357, Control_c, 0, 67, 119
2, 150412, Control_c, 0, 67, 118
2, 150440, Note_on_c, 0, 50, 0
2, 150444, Note_on_c, 0, 52, 66
2, 150471, Control_c, 0, 67, 117
2, 150505, Note_on_c, 0, 52, 0
2, 150524, Note_on_c, 0, 53, 74
2, 150623, Note_on_c, 0, 53, 0
2, 150646, Note_on_c, 0, 59, 76
2, 150651, Note_on_c, 0, 55, 73
2, 150758, Control_c, 0, 67, 116
2, 150786, Note_on_c, 0, 55, 0
2, 150795, Control_c, 0, 67, 115
2, 150800, Note_on_c, 0, 59, 0
2, 150816, Control_c, 0, 67, 114
2, 150834, Control_c, 0, 67, 113
2, 150855, Control_c, 0, 67, 110
2, 150874, Control_c, 0, 67, 102
2, 150893, Control_c, 0, 67, 91
2, 150911, Control_c, 0, 67, 75
2, 150931, Control_c, 0, 67, 55
2, 150951, Control_c, 0, 67, 31
2, 150969, Control_c, 0, 67, 0
2, 151054, Note_on_c, 0, 67, 75
2, 151106, Note_on_c, 0, 67, 0
2, 151127, Note_on_c, 0, 53, 64
2, 151223, Note_on_c, 0, 53, 0
2, 151228, Note_on_c, 0, 52, 69
2, 151305, Note_on_c, 0, 52, 0
2, 151317, Note_on_c, 0, 50, 73
2, 151425, Note_on_c, 0, 50, 0
2, 151441, Note_on_c, 0, 64, 89
2, 151446, Note_on_c, 0, 48, 81
2, 151777, Note_on_c, 0, 64, 0
2, 151847, Note_on_c, 0, 69, 87
2, 151956, Note_on_c, 0, 48, 0
2, 152048, Note_on_c, 0, 50, 83
2, 152131, Note_on_c, 0, 50, 0
2, 152245, Note_on_c, 0, 76, 95
2, 152265, Note_on_c, 0, 52, 83
2, 152271, Note_on_c, 0, 69, 0
2, 152348, Note_on_c, 0, 52, 0
2, 152451, Note_on_c, 0, 53, 77
2, 152502, Note_on_c, 0, 53, 0
2, 152540, Note_on_c, 0, 52, 79
2, 152633, Note_on_c, 0, 52, 0
2, 152644, Note_on_c, 0, 50, 82
2, 152654, Note_on_c, 0, 68, 90
2, 152717, Note_on_c, 0, 50, 0
2, 152728, Note_on_c, 0, 76, 0
2, 152851, Note_on_c, 0, 52, 85
2, 152905, Note_on_c, 0, 52, 0
2, 153039, Note_on_c, 0, 72, 96
2, 153052, Note_on_c, 0, 68, 0
2, 153072, Note_on_c, 0, 57, 86
2, 153075, Note_on_c, 0, 53, 68
2, 153468, Note_on_c, 0, 69, 77
2, 153484, Note_on_c, 0, 53, 0
2, 153493, Note_on_c, 0, 72, 0
2, 153538, Note_on_c, 0, 57, 0
2, 153559, Note_on_c, 0, 67, 79
2, 153601, Note_on_c, 0, 69, 0
2, 153651, Note_on_c, 0, 65, 76
2, 153664, Note_on_c, 0, 67, 0
2, 153716, Note_on_c, 0, 65, 0
2, 153747, Note_on_c, 0, 64, 83
2, 153818, Note_on_c, 0, 64, 0
2, 153858, Note_on_c, 0, 62, 82
2, 153858, Note_on_c, 0, 77, 97
2, 153907, Control_c, 0, 64, 28
2, 153925, Control_c, 0, 64, 54
2, 153947, Control_c, 0, 64, 52
2, 153968, Control_c, 0, 64, 48
2, 153984, Control_c, 0, 64, 42
2, 154005, Control_c, 0, 64, 40
2, 154023, Control_c, 0, 64, 41
2, 154043, Control_c, 0, 64, 42
2, 154059, Control_c, 0, 64, 43
2, 154156, Control_c, 0, 64, 42
2, 154179, Control_c, 0, 64, 36
2, 154198, Control_c, 0, 64, 0
2, 154235, Note_on_c, 0, 77, 0
2, 154241, Note_on_c, 0, 62, 0
2, 154275, Note_on_c, 0, 65, 76
2, 154315, Note_on_c, 0, 65, 0
2, 154368, Note_on_c, 0, 64, 78
2, 154405, Note_on_c, 0, 64, 0
2, 154459, Note_on_c, 0, 62, 81
2, 154535, Note_on_c, 0, 62, 0
2, 154557, Note_on_c, 0, 60, 63
2, 154603, Note_on_c, 0, 60, 0
2, 154633, Note_on_c, 0, 59, 79
2, 154643, Note_on_c, 0, 68, 85
2, 154656, Control_c, 0, 64, 18
2, 154675, Control_c, 0, 64, 50
2, 154695, Control_c, 0, 64, 58
2, 154704, Note_on_c, 0, 59, 0
2, 154719, Note_on_c, 0, 60, 74
2, 154733, Control_c, 0, 64, 56
2, 154771, Control_c, 0, 64, 55
2, 154799, Note_on_c, 0, 60, 0
2, 154811, Control_c, 0, 64, 54
2, 154834, Note_on_c, 0, 62, 79
2, 154849, Control_c, 0, 64, 55
2, 154877, Note_on_c, 0, 62, 0
2, 154942, Control_c, 0, 64, 54
2, 154964, Control_c, 0, 64, 53
2, 154982, Control_c, 0, 64, 49
2, 155001, Control_c, 0, 64, 41
2, 155019, Control_c, 0, 64, 0
2, 155048, Note_on_c, 0, 53, 75
2, 155106, Note_on_c, 0, 53, 0
2, 155126, Note_on_c, 0, 68, 0
2, 155137, Note_on_c, 0, 60, 68
2, 155193, Note_on_c, 0, 60, 0
2, 155240, Note_on_c, 0, 59, 74
2, 155327, Note_on_c, 0, 59, 0
2, 155341, Note_on_c, 0, 57, 68
2, 155401, Note_on_c, 0, 57, 0
2, 155425, Note_on_c, 0, 56, 72
2, 155445, Note_on_c, 0, 47, 70
2, 155489, Note_on_c, 0, 47, 0
2, 155519, Note_on_c, 0, 57, 82
2, 155525, Note_on_c, 0, 56, 0
2, 155630, Note_on_c, 0, 59, 83
2, 155635, Note_on_c, 0, 57, 0
2, 155841, Note_on_c, 0, 50, 73
2, 155886, Note_on_c, 0, 50, 0
2, 155940, Note_on_c, 0, 57, 72
2, 155961, Note_on_c, 0, 59, 0
2, 156030, Note_on_c, 0, 56, 72
2, 156095, Note_on_c, 0, 57, 0
2, 156128, Note_on_c, 0, 54, 74
2, 156160, Note_on_c, 0, 56, 0
2, 156203, Note_on_c, 0, 54, 0
2, 156225, Note_on_c, 0, 52, 83
2, 156231, Note_on_c, 0, 44, 82
2, 156262, Note_on_c, 0, 50, 49
2, 156271, Control_c, 0, 64, 15
2, 156287, Control_c, 0, 64, 0
2, 156308, Note_on_c, 0, 50, 0
2, 156313, Note_on_c, 0, 44, 0
2, 156365, Control_c, 0, 64, 10
2, 156401, Control_c, 0, 64, 0
2, 156632, Note_on_c, 0, 74, 86
2, 156654, Note_on_c, 0, 47, 59
2, 156665, Note_on_c, 0, 52, 0
2, 156716, Note_on_c, 0, 47, 0
2, 156768, Note_on_c, 0, 74, 0
2, 156846, Note_on_c, 0, 54, 74
2, 156954, Note_on_c, 0, 54, 0
2, 156954, Note_on_c, 0, 56, 80
2, 156983, Note_on_c, 0, 52, 57
2, 157033, Note_on_c, 0, 56, 0
2, 157035, Note_on_c, 0, 71, 83
2, 157048, Note_on_c, 0, 57, 83
2, 157135, Note_on_c, 0, 57, 0
2, 157142, Note_on_c, 0, 56, 81
2, 157161, Note_on_c, 0, 52, 0
2, 157214, Note_on_c, 0, 56, 0
2, 157258, Note_on_c, 0, 57, 77
2, 157272, Note_on_c, 0, 71, 0
2, 157307, Note_on_c, 0, 57, 0
2, 157345, Note_on_c, 0, 56, 70
2, 157414, Note_on_c, 0, 56, 0
2, 157427, Note_on_c, 0, 76, 83
2, 157443, Note_on_c, 0, 57, 75
2, 157502, Note_on_c, 0, 57, 0
2, 157537, Control_c, 0, 67, 15
2, 157549, Note_on_c, 0, 56, 70
2, 157555, Control_c, 0, 67, 24
2, 157574, Control_c, 0, 67, 32
2, 157589, Note_on_c, 0, 56, 0
2, 157593, Control_c, 0, 67, 41
2, 157612, Control_c, 0, 67, 51
2, 157632, Control_c, 0, 67, 64
2, 157645, Note_on_c, 0, 54, 67
2, 157650, Control_c, 0, 67, 80
2, 157670, Control_c, 0, 67, 96
2, 157689, Control_c, 0, 67, 111
2, 157694, Note_on_c, 0, 54, 0
2, 157710, Control_c, 0, 67, 125
2, 157722, Note_on_c, 0, 56, 68
2, 157728, Control_c, 0, 67, 127
2, 157760, Note_on_c, 0, 76, 0
2, 157777, Note_on_c, 0, 56, 0
2, 157825, Note_on_c, 0, 72, 84
2, 157836, Note_on_c, 0, 57, 80
2, 157857, Note_on_c, 0, 45, 70
2, 157972, Note_on_c, 0, 72, 0
2, 157976, Note_on_c, 0, 45, 0
2, 158009, Note_on_c, 0, 57, 0
2, 158268, Note_on_c, 0, 69, 70
2, 158303, Note_on_c, 0, 69, 0
2, 158383, Note_on_c, 0, 57, 63
2, 158466, Note_on_c, 0, 59, 67
2, 158491, Note_on_c, 0, 57, 0
2, 158552, Note_on_c, 0, 59, 0
2, 158565, Note_on_c, 0, 60, 63
2, 158648, Note_on_c, 0, 60, 0
2, 158671, Note_on_c, 0, 66, 78
2, 158687, Note_on_c, 0, 62, 69
2, 158774, Note_on_c, 0, 66, 0
2, 158998, Note_on_c, 0, 62, 0
2, 159096, Note_on_c, 0, 74, 65
2, 159111, Note_on_c, 0, 54, 56
2, 159140, Note_on_c, 0, 74, 0
2, 159196, Note_on_c, 0, 60, 66
2, 159240, Note_on_c, 0, 60, 0
2, 159287, Note_on_c, 0, 59, 67
2, 159306, Note_on_c, 0, 54, 0
2, 159343, Note_on_c, 0, 59, 0
2, 159384, Note_on_c, 0, 57, 62
2, 159481, Note_on_c, 0, 57, 0
2, 159483, Note_on_c, 0, 71, 76
2, 159507, Note_on_c, 0, 55, 67
2, 159577, Note_on_c, 0, 71, 0
2, 159712, Note_on_c, 0, 55, 0
2, 159919, Note_on_c, 0, 67, 69
2, 159951, Note_on_c, 0, 67, 0
2, 160029, Note_on_c, 0, 55, 60
2, 160126, Note_on_c, 0, 55, 0
2, 160131, Note_on_c, 0, 57, 59
2, 160180, Note_on_c, 0, 57, 0
2, 160208, Note_on_c, 0, 59, 69
2, 160272, Note_on_c, 0, 59, 0
2, 160325, Note_on_c, 0, 60, 69
2, 160325, Note_on_c, 0, 64, 69
2, 160445, Note_on_c, 0, 64, 0
2, 160649, Note_on_c, 0, 60, 0
2, 160724, Note_on_c, 0, 52, 55
2, 160735, Note_on_c, 0, 72, 74
2, 160779, Note_on_c, 0, 72, 0
2, 160835, Note_on_c, 0, 58, 60
2, 160888, Note_on_c, 0, 58, 0
2, 160937, Note_on_c, 0, 57, 68
2, 160980, Note_on_c, 0, 52, 0
2, 160988, Note_on_c, 0, 57, 0
2, 161032, Note_on_c, 0, 55, 62
2, 161111, Note_on_c, 0, 55, 0
2, 161135, Note_on_c, 0, 69, 71
2, 161139, Note_on_c, 0, 53, 66
2, 161337, Control_c, 0, 67, 125
2, 161346, Note_on_c, 0, 65, 66
2, 161356, Control_c, 0, 67, 115
2, 161375, Control_c, 0, 67, 102
2, 161395, Control_c, 0, 67, 86
2, 161413, Control_c, 0, 67, 65
2, 161432, Control_c, 0, 67, 37
2, 161452, Control_c, 0, 67, 0
2, 161497, Note_on_c, 0, 65, 0
2, 161549, Note_on_c, 0, 71, 80
2, 161558, Note_on_c, 0, 55, 64
2, 161565, Note_on_c, 0, 69, 0
2, 161585, Note_on_c, 0, 53, 0
2, 161771, Note_on_c, 0, 65, 71
2, 161981, Note_on_c, 0, 65, 0
2, 161981, Note_on_c, 0, 72, 75
2, 161985, Note_on_c, 0, 57, 58
2, 161994, Note_on_c, 0, 71, 0
2, 162014, Note_on_c, 0, 55, 0
2, 162079, Note_on_c, 0, 64, 72
2, 162180, Note_on_c, 0, 65, 66
2, 162192, Note_on_c, 0, 64, 0
2, 162196, Note_on_c, 0, 72, 0
2, 162273, Note_on_c, 0, 67, 72
2, 162278, Note_on_c, 0, 65, 0
2, 162365, Note_on_c, 0, 55, 64
2, 162365, Note_on_c, 0, 57, 0
2, 162365, Note_on_c, 0, 69, 74
2, 162370, Note_on_c, 0, 67, 0
2, 162451, Note_on_c, 0, 67, 77
2, 162547, Note_on_c, 0, 69, 0
2, 162560, Note_on_c, 0, 65, 70
2, 162577, Note_on_c, 0, 67, 0
2, 162649, Note_on_c, 0, 65, 0
2, 162653, Note_on_c, 0, 64, 76
2, 162708, Note_on_c, 0, 64, 0
2, 162713, Note_on_c, 0, 55, 0
2, 162765, Note_on_c, 0, 53, 68
2, 162776, Note_on_c, 0, 62, 74
2, 162885, Note_on_c, 0, 72, 84
2, 162961, Note_on_c, 0, 72, 0
2, 162981, Note_on_c, 0, 74, 81
2, 163074, Note_on_c, 0, 76, 87
2, 163083, Note_on_c, 0, 74, 0
2, 163171, Note_on_c, 0, 50, 83
2, 163176, Note_on_c, 0, 76, 0
2, 163176, Note_on_c, 0, 77, 85
2, 163180, Note_on_c, 0, 53, 0
2, 163272, Note_on_c, 0, 76, 82
2, 163350, Note_on_c, 0, 77, 0
2, 163372, Note_on_c, 0, 74, 81
2, 163398, Note_on_c, 0, 76, 0
2, 163464, Note_on_c, 0, 74, 0
2, 163468, Note_on_c, 0, 72, 83
2, 163477, Note_on_c, 0, 62, 0
2, 163510, Note_on_c, 0, 72, 0
2, 163590, Note_on_c, 0, 50, 0
2, 163606, Note_on_c, 0, 55, 91
2, 163616, Note_on_c, 0, 71, 84
2, 163691, Note_on_c, 0, 71, 0
2, 163709, Note_on_c, 0, 62, 81
2, 163812, Note_on_c, 0, 62, 0
2, 163835, Note_on_c, 0, 64, 63
2, 163921, Note_on_c, 0, 64, 0
2, 163927, Note_on_c, 0, 65, 74
2, 164028, Note_on_c, 0, 53, 76
2, 164032, Note_on_c, 0, 65, 0
2, 164036, Note_on_c, 0, 67, 78
2, 164120, Note_on_c, 0, 53, 0
2, 164135, Note_on_c, 0, 65, 80
2, 164187, Note_on_c, 0, 67, 0
2, 164233, Note_on_c, 0, 64, 75
2, 164233, Note_on_c, 0, 65, 0
2, 164305, Note_on_c, 0, 64, 0
2, 164313, Note_on_c, 0, 62, 84
2, 164366, Note_on_c, 0, 62, 0
2, 164416, Note_on_c, 0, 55, 0
2, 164430, Note_on_c, 0, 60, 96
2, 164435, Note_on_c, 0, 52, 89
2, 164849, Note_on_c, 0, 55, 82
2, 164853, Note_on_c, 0, 84, 86
2, 164878, Note_on_c, 0, 53, 41
2, 164918, Note_on_c, 0, 53, 0
2, 164930, Note_on_c, 0, 52, 0
2, 164939, Note_on_c, 0, 55, 0
2, 164948, Note_on_c, 0, 83, 84
2, 165003, Note_on_c, 0, 84, 0
2, 165041, Note_on_c, 0, 81, 82
2, 165046, Note_on_c, 0, 60, 0
2, 165091, Note_on_c, 0, 83, 0
2, 165133, Note_on_c, 0, 79, 91
2, 165149, Note_on_c, 0, 81, 0
2, 165209, Note_on_c, 0, 79, 0
2, 165237, Control_c, 0, 64, 37
2, 165246, Note_on_c, 0, 77, 100
2, 165250, Note_on_c, 0, 57, 88
2, 165254, Note_on_c, 0, 60, 84
2, 165259, Control_c, 0, 64, 48
2, 165278, Control_c, 0, 64, 47
2, 165296, Control_c, 0, 64, 46
2, 165314, Control_c, 0, 64, 47
2, 165333, Control_c, 0, 64, 49
2, 165353, Control_c, 0, 64, 50
2, 165372, Control_c, 0, 64, 51
2, 165488, Control_c, 0, 64, 50
2, 165506, Control_c, 0, 64, 46
2, 165526, Control_c, 0, 64, 11
2, 165526, Note_on_c, 0, 77, 0
2, 165544, Control_c, 0, 64, 0
2, 165648, Note_on_c, 0, 81, 83
2, 165659, Note_on_c, 0, 65, 72
2, 165710, Note_on_c, 0, 60, 0
2, 165717, Note_on_c, 0, 65, 0
2, 165740, Note_on_c, 0, 79, 88
2, 165745, Note_on_c, 0, 57, 0
2, 165799, Note_on_c, 0, 81, 0
2, 165842, Note_on_c, 0, 77, 83
2, 165851, Note_on_c, 0, 79, 0
2, 165909, Note_on_c, 0, 77, 0
2, 165930, Note_on_c, 0, 76, 79
2, 165990, Note_on_c, 0, 76, 0
2, 166033, Note_on_c, 0, 74, 83
2, 166044, Control_c, 0, 64, 33
2, 166049, Note_on_c, 0, 47, 80
2, 166063, Control_c, 0, 64, 68
2, 166079, Control_c, 0, 64, 76
2, 166099, Control_c, 0, 64, 79
2, 166118, Control_c, 0, 64, 75
2, 166122, Note_on_c, 0, 76, 94
2, 166127, Note_on_c, 0, 74, 0
2, 166160, Note_on_c, 0, 47, 0
2, 166235, Note_on_c, 0, 77, 89
2, 166247, Note_on_c, 0, 76, 0
2, 166309, Control_c, 0, 64, 74
2, 166329, Control_c, 0, 64, 72
2, 166349, Control_c, 0, 64, 68
2, 166367, Control_c, 0, 64, 62
2, 166387, Control_c, 0, 64, 48
2, 166404, Control_c, 0, 64, 0
2, 166453, Note_on_c, 0, 69, 65
2, 166504, Note_on_c, 0, 69, 0
2, 166553, Note_on_c, 0, 76, 75
2, 166597, Note_on_c, 0, 77, 0
2, 166638, Note_on_c, 0, 74, 78
2, 166652, Note_on_c, 0, 76, 0
2, 166709, Note_on_c, 0, 74, 0
2, 166746, Note_on_c, 0, 72, 69
2, 166803, Note_on_c, 0, 72, 0
2, 166834, Note_on_c, 0, 62, 63
2, 166838, Note_on_c, 0, 71, 78
2, 166877, Note_on_c, 0, 62, 0
2, 166897, Note_on_c, 0, 71, 0
2, 166934, Note_on_c, 0, 72, 82
2, 167030, Note_on_c, 0, 72, 0
2, 167035, Note_on_c, 0, 74, 79
2, 167247, Note_on_c, 0, 65, 68
2, 167301, Note_on_c, 0, 65, 0
2, 167340, Note_on_c, 0, 72, 73
2, 167383, Note_on_c, 0, 74, 0
2, 167434, Note_on_c, 0, 71, 77
2, 167447, Note_on_c, 0, 72, 0
2, 167487, Note_on_c, 0, 71, 0
2, 167529, Note_on_c, 0, 69, 68
2, 167620, Note_on_c, 0, 69, 0
2, 167631, Note_on_c, 0, 67, 75
2, 167638, Note_on_c, 0, 59, 67
2, 167731, Note_on_c, 0, 59, 0
2, 168026, Note_on_c, 0, 67, 0
2, 168045, Note_on_c, 0, 53, 86
2, 168052, Note_on_c, 0, 62, 76
2, 168182, Note_on_c, 0, 53, 0
2, 168189, Note_on_c, 0, 62, 0
2, 168264, Note_on_c, 0, 69, 74
2, 168354, Note_on_c, 0, 71, 81
2, 168362, Note_on_c, 0, 69, 0
2, 168440, Note_on_c, 0, 71, 0
2, 168449, Note_on_c, 0, 50, 79
2, 168453, Note_on_c, 0, 65, 77
2, 168453, Note_on_c, 0, 72, 90
2, 168534, Note_on_c, 0, 65, 0
2, 168556, Note_on_c, 0, 71, 85
2, 168561, Note_on_c, 0, 72, 0
2, 168629, Note_on_c, 0, 50, 0
2, 168638, Note_on_c, 0, 71, 0
2, 168643, Note_on_c, 0, 72, 82
2, 168745, Note_on_c, 0, 72, 0
2, 168747, Note_on_c, 0, 71, 78
2, 168820, Note_on_c, 0, 71, 0
2, 168847, Note_on_c, 0, 55, 78
2, 168847, Note_on_c, 0, 62, 73
2, 168856, Note_on_c, 0, 72, 78
2, 168935, Note_on_c, 0, 62, 0
2, 168948, Note_on_c, 0, 71, 83
2, 168968, Note_on_c, 0, 72, 0
2, 169036, Note_on_c, 0, 71, 0
2, 169053, Note_on_c, 0, 69, 75
2, 169084, Note_on_c, 0, 55, 0
2, 169137, Note_on_c, 0, 69, 0
2, 169144, Note_on_c, 0, 71, 75
2, 169220, Note_on_c, 0, 71, 0
2, 169243, Note_on_c, 0, 72, 81
2, 169251, Note_on_c, 0, 52, 78
2, 169264, Note_on_c, 0, 67, 70
2, 169533, Note_on_c, 0, 72, 0
2, 169546, Note_on_c, 0, 67, 0
2, 169657, Note_on_c, 0, 60, 83
2, 169714, Note_on_c, 0, 52, 0
2, 169873, Note_on_c, 0, 52, 75
2, 169935, Note_on_c, 0, 52, 0
2, 169950, Note_on_c, 0, 60, 0
2, 169974, Note_on_c, 0, 54, 76
2, 170033, Note_on_c, 0, 54, 0
2, 170065, Note_on_c, 0, 55, 79
2, 170069, Note_on_c, 0, 57, 88
2, 170138, Note_on_c, 0, 55, 0
2, 170159, Note_on_c, 0, 54, 77
2, 170230, Note_on_c, 0, 54, 0
2, 170267, Note_on_c, 0, 55, 76
2, 170322, Note_on_c, 0, 57, 0
2, 170331, Note_on_c, 0, 55, 0
2, 170368, Note_on_c, 0, 54, 71
2, 170443, Note_on_c, 0, 54, 0
2, 170473, Note_on_c, 0, 55, 77
2, 170473, Note_on_c, 0, 62, 86
2, 170534, Note_on_c, 0, 55, 0
2, 170578, Note_on_c, 0, 54, 74
2, 170633, Note_on_c, 0, 54, 0
2, 170664, Note_on_c, 0, 52, 70
2, 170733, Note_on_c, 0, 52, 0
2, 170762, Note_on_c, 0, 54, 72
2, 170806, Note_on_c, 0, 62, 0
2, 170825, Note_on_c, 0, 54, 0
2, 170860, Note_on_c, 0, 59, 81
2, 170867, Note_on_c, 0, 55, 73
2, 171265, Note_on_c, 0, 55, 0
2, 171270, Note_on_c, 0, 59, 0
2, 171283, Note_on_c, 0, 67, 85
2, 171287, Note_on_c, 0, 52, 73
2, 171318, Note_on_c, 0, 52, 0
2, 171479, Note_on_c, 0, 59, 72
2, 171500, Note_on_c, 0, 67, 0
2, 171577, Note_on_c, 0, 61, 78
2, 171584, Note_on_c, 0, 59, 0
2, 171632, Note_on_c, 0, 61, 0
2, 171673, Note_on_c, 0, 64, 77
2, 171677, Note_on_c, 0, 62, 79
2, 171681, Note_on_c, 0, 57, 63
2, 171758, Note_on_c, 0, 62, 0
2, 171769, Note_on_c, 0, 61, 75
2, 171841, Note_on_c, 0, 61, 0
2, 171887, Note_on_c, 0, 62, 75
2, 171924, Note_on_c, 0, 64, 0
2, 171947, Note_on_c, 0, 62, 0
2, 171980, Note_on_c, 0, 61, 71
2, 172052, Note_on_c, 0, 61, 0
2, 172065, Note_on_c, 0, 69, 82
2, 172092, Note_on_c, 0, 62, 72
2, 172151, Note_on_c, 0, 57, 0
2, 172158, Note_on_c, 0, 62, 0
2, 172187, Note_on_c, 0, 61, 73
2, 172237, Note_on_c, 0, 61, 0
2, 172281, Note_on_c, 0, 59, 78
2, 172368, Note_on_c, 0, 59, 0
2, 172375, Note_on_c, 0, 61, 72
2, 172435, Note_on_c, 0, 61, 0
2, 172435, Note_on_c, 0, 69, 0
2, 172474, Note_on_c, 0, 66, 87
2, 172478, Note_on_c, 0, 62, 83
2, 172886, Note_on_c, 0, 50, 87
2, 172936, Note_on_c, 0, 66, 0
2, 173091, Note_on_c, 0, 66, 78
2, 173143, Note_on_c, 0, 62, 0
2, 173164, Note_on_c, 0, 50, 0
2, 173182, Note_on_c, 0, 68, 88
2, 173209, Note_on_c, 0, 66, 0
2, 173281, Note_on_c, 0, 69, 83
2, 173289, Note_on_c, 0, 47, 86
2, 173293, Note_on_c, 0, 68, 0
2, 173381, Note_on_c, 0, 68, 82
2, 173390, Note_on_c, 0, 69, 0
2, 173472, Note_on_c, 0, 68, 0
2, 173487, Note_on_c, 0, 69, 80
2, 173585, Note_on_c, 0, 68, 83
2, 173585, Note_on_c, 0, 69, 0
2, 173630, Note_on_c, 0, 47, 0
2, 173667, Note_on_c, 0, 68, 0
2, 173674, Note_on_c, 0, 69, 72
2, 173689, Note_on_c, 0, 52, 92
2, 173777, Note_on_c, 0, 68, 85
2, 173816, Note_on_c, 0, 69, 0
2, 173868, Note_on_c, 0, 66, 84
2, 173872, Note_on_c, 0, 52, 0
2, 173880, Note_on_c, 0, 68, 0
2, 173974, Note_on_c, 0, 68, 86
2, 173985, Note_on_c, 0, 66, 0
2, 174044, Note_on_c, 0, 68, 0
2, 174060, Note_on_c, 0, 48, 87
2, 174072, Note_on_c, 0, 69, 91
2, 174250, Note_on_c, 0, 69, 0
2, 174293, Note_on_c, 0, 71, 84
2, 174364, Note_on_c, 0, 48, 0
2, 174385, Note_on_c, 0, 71, 0
2, 174385, Note_on_c, 0, 72, 91
2, 174435, Note_on_c, 0, 72, 0
2, 174471, Note_on_c, 0, 45, 84
2, 174476, Note_on_c, 0, 74, 89
2, 174551, Note_on_c, 0, 74, 0
2, 174564, Note_on_c, 0, 76, 90
2, 174666, Note_on_c, 0, 78, 80
2, 174700, Note_on_c, 0, 76, 0
2, 174762, Note_on_c, 0, 80, 83
2, 174805, Note_on_c, 0, 45, 0
2, 174827, Note_on_c, 0, 78, 0
2, 174851, Note_on_c, 0, 81, 96
2, 174858, Note_on_c, 0, 42, 87
2, 174888, Note_on_c, 0, 80, 0
2, 175025, Control_c, 0, 64, 19
2, 175045, Control_c, 0, 64, 27
2, 175056, Note_on_c, 0, 72, 93
2, 175065, Control_c, 0, 64, 31
2, 175084, Control_c, 0, 64, 33
2, 175088, Note_on_c, 0, 42, 0
2, 175104, Control_c, 0, 64, 34
2, 175161, Control_c, 0, 64, 29
2, 175180, Control_c, 0, 64, 0
2, 175255, Note_on_c, 0, 71, 83
2, 175272, Note_on_c, 0, 72, 0
2, 175281, Note_on_c, 0, 51, 90
2, 175398, Note_on_c, 0, 71, 0
2, 175408, Note_on_c, 0, 51, 0
2, 175457, Note_on_c, 0, 78, 89
2, 175494, Note_on_c, 0, 81, 0
2, 175685, Note_on_c, 0, 79, 97
2, 175690, Note_on_c, 0, 40, 87
2, 175701, Control_c, 0, 64, 65
2, 175717, Note_on_c, 0, 78, 0
2, 175719, Control_c, 0, 64, 80
2, 175740, Control_c, 0, 64, 91
2, 175755, Control_c, 0, 64, 92
2, 175775, Control_c, 0, 64, 95
2, 175794, Control_c, 0, 64, 98
2, 175815, Control_c, 0, 64, 103
2, 175826, Note_on_c, 0, 40, 0
2, 175835, Control_c, 0, 64, 106
2, 175871, Control_c, 0, 64, 107
2, 175910, Note_on_c, 0, 71, 91
2, 175948, Control_c, 0, 64, 106
2, 175967, Control_c, 0, 64, 103
2, 175984, Control_c, 0, 64, 100
2, 176004, Control_c, 0, 64, 97
2, 176024, Control_c, 0, 64, 96
2, 176050, Note_on_c, 0, 79, 0
2, 176071, Note_on_c, 0, 71, 0
2, 176103, Control_c, 0, 64, 95
2, 176121, Control_c, 0, 64, 94
2, 176130, Note_on_c, 0, 76, 87
2, 176140, Control_c, 0, 64, 93
2, 176161, Control_c, 0, 64, 91
2, 176181, Control_c, 0, 64, 89
2, 176197, Control_c, 0, 64, 86
2, 176213, Note_on_c, 0, 74, 86
2, 176218, Control_c, 0, 64, 83
2, 176236, Control_c, 0, 64, 79
2, 176250, Note_on_c, 0, 76, 0
2, 176259, Control_c, 0, 64, 75
2, 176274, Control_c, 0, 64, 71
2, 176295, Control_c, 0, 64, 69
2, 176311, Note_on_c, 0, 72, 86
2, 176315, Control_c, 0, 64, 68
2, 176315, Note_on_c, 0, 74, 0
2, 176365, Note_on_c, 0, 72, 0
2, 176369, Control_c, 0, 64, 67
2, 176390, Control_c, 0, 64, 65
2, 176405, Note_on_c, 0, 71, 83
2, 176411, Control_c, 0, 64, 63
2, 176428, Control_c, 0, 64, 55
2, 176449, Control_c, 0, 64, 29
2, 176465, Control_c, 0, 64, 0
2, 176472, Note_on_c, 0, 71, 0
2, 176498, Note_on_c, 0, 69, 83
2, 176507, Note_on_c, 0, 84, 93
2, 176602, Control_c, 0, 64, 15
2, 176620, Control_c, 0, 64, 45
2, 176659, Control_c, 0, 64, 40
2, 176679, Control_c, 0, 64, 37
2, 176696, Control_c, 0, 64, 38
2, 176716, Control_c, 0, 64, 41
2, 176734, Control_c, 0, 64, 43
2, 176812, Control_c, 0, 64, 44
2, 176831, Control_c, 0, 64, 41
2, 176849, Control_c, 0, 64, 24
2, 176871, Control_c, 0, 64, 0
2, 176871, Note_on_c, 0, 84, 0
2, 176887, Note_on_c, 0, 69, 0
2, 176913, Note_on_c, 0, 72, 81
2, 176948, Control_c, 0, 64, 24
2, 176965, Control_c, 0, 64, 29
2, 176987, Control_c, 0, 64, 0
2, 176994, Note_on_c, 0, 72, 0
2, 177008, Note_on_c, 0, 71, 78
2, 177063, Note_on_c, 0, 71, 0
2, 177106, Note_on_c, 0, 69, 79
2, 177175, Note_on_c, 0, 69, 0
2, 177197, Note_on_c, 0, 67, 79
2, 177253, Note_on_c, 0, 67, 0
2, 177279, Note_on_c, 0, 75, 88
2, 177292, Note_on_c, 0, 66, 80
2, 177296, Control_c, 0, 64, 41
2, 177309, Control_c, 0, 64, 69
2, 177329, Control_c, 0, 64, 77
2, 177351, Control_c, 0, 64, 78
2, 177355, Note_on_c, 0, 66, 0
2, 177368, Control_c, 0, 64, 77
2, 177383, Note_on_c, 0, 67, 78
2, 177426, Control_c, 0, 64, 76
2, 177452, Note_on_c, 0, 67, 0
2, 177465, Control_c, 0, 64, 75
2, 177484, Control_c, 0, 64, 74
2, 177495, Note_on_c, 0, 69, 71
2, 177535, Note_on_c, 0, 69, 0
2, 177582, Control_c, 0, 64, 72
2, 177598, Control_c, 0, 64, 69
2, 177618, Control_c, 0, 64, 64
2, 177637, Control_c, 0, 64, 55
2, 177655, Control_c, 0, 64, 20
2, 177676, Control_c, 0, 64, 0
2, 177691, Note_on_c, 0, 60, 75
2, 177743, Note_on_c, 0, 60, 0
2, 177775, Note_on_c, 0, 67, 64
2, 177779, Note_on_c, 0, 75, 0
2, 177814, Note_on_c, 0, 67, 0
2, 177872, Note_on_c, 0, 66, 75
2, 177928, Note_on_c, 0, 66, 0
2, 177972, Note_on_c, 0, 64, 74
2, 178059, Note_on_c, 0, 54, 66
2, 178059, Note_on_c, 0, 64, 0
2, 178073, Note_on_c, 0, 63, 72
2, 178089, Note_on_c, 0, 54, 0
2, 178153, Note_on_c, 0, 63, 0
2, 178157, Note_on_c, 0, 64, 74
2, 178263, Note_on_c, 0, 66, 77
2, 178267, Note_on_c, 0, 64, 0
2, 178458, Note_on_c, 0, 66, 0
2, 178462, Note_on_c, 0, 57, 79
2, 178503, Note_on_c, 0, 57, 0
2, 178559, Note_on_c, 0, 64, 75
2, 178642, Note_on_c, 0, 63, 74
2, 178661, Note_on_c, 0, 64, 0
2, 178731, Note_on_c, 0, 61, 70
2, 178753, Note_on_c, 0, 63, 0
2, 178826, Note_on_c, 0, 61, 0
2, 178846, Note_on_c, 0, 59, 86
2, 178851, Note_on_c, 0, 51, 74
2, 178909, Note_on_c, 0, 51, 0
2, 179267, Note_on_c, 0, 54, 66
2, 179267, Note_on_c, 0, 81, 82
2, 179285, Note_on_c, 0, 59, 0
2, 179364, Note_on_c, 0, 54, 0
2, 179382, Note_on_c, 0, 81, 0
2, 179467, Note_on_c, 0, 61, 68
2, 179576, Note_on_c, 0, 61, 0
2, 179576, Note_on_c, 0, 63, 79
2, 179641, Note_on_c, 0, 59, 36
2, 179652, Note_on_c, 0, 63, 0
2, 179654, Note_on_c, 0, 78, 80
2, 179678, Note_on_c, 0, 64, 78
2, 179752, Note_on_c, 0, 64, 0
2, 179778, Note_on_c, 0, 63, 76
2, 179845, Note_on_c, 0, 63, 0
2, 179879, Note_on_c, 0, 64, 76
2, 179888, Note_on_c, 0, 59, 0
2, 179909, Note_on_c, 0, 78, 0
2, 179947, Note_on_c, 0, 64, 0
2, 179968, Note_on_c, 0, 63, 68
2, 180025, Note_on_c, 0, 63, 0
2, 180060, Note_on_c, 0, 83, 83
2, 180081, Note_on_c, 0, 64, 73
2, 180137, Note_on_c, 0, 64, 0
2, 180170, Note_on_c, 0, 63, 69
2, 180190, Control_c, 0, 67, 9
2, 180206, Note_on_c, 0, 63, 0
2, 180211, Control_c, 0, 67, 14
2, 180229, Control_c, 0, 67, 19
2, 180238, Note_on_c, 0, 61, 68
2, 180248, Control_c, 0, 67, 29
2, 180268, Control_c, 0, 67, 48
2, 180287, Control_c, 0, 67, 68
2, 180307, Control_c, 0, 67, 86
2, 180307, Note_on_c, 0, 61, 0
2, 180325, Control_c, 0, 67, 102
2, 180331, Note_on_c, 0, 63, 62
2, 180343, Control_c, 0, 67, 115
2, 180365, Control_c, 0, 67, 127
2, 180378, Note_on_c, 0, 63, 0
2, 180440, Note_on_c, 0, 83, 0
2, 180449, Note_on_c, 0, 79, 86
2, 180469, Note_on_c, 0, 64, 68
2, 180474, Note_on_c, 0, 52, 67
2, 180561, Note_on_c, 0, 79, 0
2, 180599, Note_on_c, 0, 64, 0
2, 180637, Note_on_c, 0, 52, 0
2, 180897, Note_on_c, 0, 76, 72
2, 180935, Note_on_c, 0, 76, 0
2, 181002, Note_on_c, 0, 40, 54
2, 181086, Note_on_c, 0, 40, 0
2, 181100, Note_on_c, 0, 41, 56
2, 181150, Note_on_c, 0, 41, 0
2, 181175, Note_on_c, 0, 43, 62
2, 181237, Note_on_c, 0, 43, 0
2, 181289, Note_on_c, 0, 45, 66
2, 181293, Note_on_c, 0, 73, 81
2, 181394, Note_on_c, 0, 45, 0
2, 181421, Note_on_c, 0, 73, 0
2, 181738, Note_on_c, 0, 81, 68
2, 181787, Note_on_c, 0, 81, 0
2, 181847, Note_on_c, 0, 43, 55
2, 181896, Note_on_c, 0, 43, 0
2, 181941, Note_on_c, 0, 41, 59
2, 182005, Note_on_c, 0, 41, 0
2, 182039, Note_on_c, 0, 40, 61
2, 182110, Note_on_c, 0, 40, 0
2, 182137, Note_on_c, 0, 77, 72
2, 182145, Note_on_c, 0, 38, 69
2, 182181, Note_on_c, 0, 38, 0
2, 182326, Note_on_c, 0, 77, 0
2, 182579, Note_on_c, 0, 62, 69
2, 182617, Note_on_c, 0, 62, 0
2, 182667, Note_on_c, 0, 74, 67
2, 182753, Note_on_c, 0, 74, 0
2, 182760, Note_on_c, 0, 76, 70
2, 182838, Note_on_c, 0, 76, 0
2, 182842, Note_on_c, 0, 77, 80
2, 182953, Note_on_c, 0, 79, 76
2, 182957, Note_on_c, 0, 77, 0
2, 182972, Note_on_c, 0, 59, 69
2, 183053, Note_on_c, 0, 59, 0
2, 183139, Note_on_c, 0, 79, 0
2, 183400, Note_on_c, 0, 67, 64
2, 183440, Note_on_c, 0, 67, 0
2, 183492, Note_on_c, 0, 77, 71
2, 183589, Note_on_c, 0, 76, 75
2, 183618, Note_on_c, 0, 77, 0
2, 183678, Note_on_c, 0, 74, 75
2, 183683, Note_on_c, 0, 76, 0
2, 183731, Note_on_c, 0, 74, 0
2, 183787, Note_on_c, 0, 72, 70
2, 183805, Note_on_c, 0, 64, 67
2, 183860, Note_on_c, 0, 64, 0
2, 184000, Note_on_c, 0, 72, 0
2, 184224, Control_c, 0, 67, 124
2, 184228, Note_on_c, 0, 57, 85
2, 184243, Control_c, 0, 67, 112
2, 184264, Control_c, 0, 67, 96
2, 184279, Control_c, 0, 67, 76
2, 184285, Note_on_c, 0, 57, 0
2, 184302, Control_c, 0, 67, 52
2, 184319, Control_c, 0, 67, 20
2, 184325, Note_on_c, 0, 76, 74
2, 184338, Control_c, 0, 67, 0
2, 184373, Note_on_c, 0, 76, 0
2, 184420, Note_on_c, 0, 77, 81
2, 184506, Note_on_c, 0, 77, 0
2, 184523, Note_on_c, 0, 79, 79
2, 184620, Note_on_c, 0, 53, 84
2, 184629, Note_on_c, 0, 79, 0
2, 184629, Note_on_c, 0, 81, 79
2, 184684, Note_on_c, 0, 53, 0
2, 184717, Note_on_c, 0, 81, 0
2, 184729, Note_on_c, 0, 82, 75
2, 184823, Note_on_c, 0, 81, 77
2, 184882, Note_on_c, 0, 82, 0
2, 184919, Note_on_c, 0, 79, 75
2, 184927, Note_on_c, 0, 81, 0
2, 184977, Note_on_c, 0, 79, 0
2, 184995, Note_on_c, 0, 77, 81
2, 185029, Note_on_c, 0, 62, 89
2, 185061, Note_on_c, 0, 77, 0
2, 185088, Note_on_c, 0, 62, 0
2, 185107, Note_on_c, 0, 76, 82
2, 185206, Note_on_c, 0, 74, 73
2, 185210, Note_on_c, 0, 76, 0
2, 185265, Note_on_c, 0, 74, 0
2, 185297, Note_on_c, 0, 72, 78
2, 185349, Note_on_c, 0, 72, 0
2, 185400, Note_on_c, 0, 56, 87
2, 185404, Note_on_c, 0, 71, 81
2, 185462, Note_on_c, 0, 56, 0
2, 185481, Note_on_c, 0, 71, 0
2, 185502, Note_on_c, 0, 72, 80
2, 185600, Note_on_c, 0, 71, 85
2, 185604, Note_on_c, 0, 72, 0
2, 185666, Note_on_c, 0, 71, 0
2, 185702, Note_on_c, 0, 69, 72
2, 185808, Note_on_c, 0, 69, 0
2, 185813, Note_on_c, 0, 68, 76
2, 185817, Note_on_c, 0, 52, 86
2, 185865, Note_on_c, 0, 52, 0
2, 185906, Note_on_c, 0, 66, 75
2, 185977, Note_on_c, 0, 68, 0
2, 186005, Note_on_c, 0, 64, 79
2, 186021, Note_on_c, 0, 66, 0
2, 186084, Note_on_c, 0, 64, 0
2, 186105, Note_on_c, 0, 62, 69
2, 186157, Note_on_c, 0, 62, 0
2, 186223, Note_on_c, 0, 60, 84
2, 186230, Note_on_c, 0, 57, 81
2, 186318, Note_on_c, 0, 64, 78
2, 186371, Note_on_c, 0, 64, 0
2, 186430, Note_on_c, 0, 65, 72
2, 186498, Note_on_c, 0, 65, 0
2, 186515, Note_on_c, 0, 67, 82
2, 186602, Note_on_c, 0, 67, 0
2, 186606, Note_on_c, 0, 72, 86
2, 186613, Note_on_c, 0, 69, 73
2, 186707, Note_on_c, 0, 67, 82
2, 186729, Note_on_c, 0, 69, 0
2, 186758, Note_on_c, 0, 72, 0
2, 186786, Note_on_c, 0, 67, 0
2, 186807, Note_on_c, 0, 65, 80
2, 186868, Note_on_c, 0, 65, 0
2, 186901, Note_on_c, 0, 60, 0
2, 186915, Note_on_c, 0, 64, 75
2, 186976, Note_on_c, 0, 64, 0
2, 187008, Note_on_c, 0, 57, 0
2, 187014, Note_on_c, 0, 62, 92
2, 187014, Note_on_c, 0, 71, 95
2, 187112, Note_on_c, 0, 57, 80
2, 187143, Note_on_c, 0, 62, 0
2, 187204, Note_on_c, 0, 59, 85
2, 187215, Note_on_c, 0, 57, 0
2, 187307, Note_on_c, 0, 60, 80
2, 187310, Note_on_c, 0, 59, 0
2, 187374, Note_on_c, 0, 60, 0
2, 187420, Note_on_c, 0, 62, 86
2, 187424, Note_on_c, 0, 65, 77
2, 187496, Note_on_c, 0, 62, 0
2, 187515, Note_on_c, 0, 60, 77
2, 187573, Note_on_c, 0, 60, 0
2, 187613, Note_on_c, 0, 59, 77
2, 187644, Note_on_c, 0, 65, 0
2, 187668, Note_on_c, 0, 59, 0
2, 187728, Note_on_c, 0, 57, 83
2, 187786, Note_on_c, 0, 57, 0
2, 187816, Note_on_c, 0, 59, 95
2, 187837, Note_on_c, 0, 56, 78
2, 187893, Note_on_c, 0, 56, 0
2, 187929, Note_on_c, 0, 57, 84
2, 188022, Note_on_c, 0, 56, 83
2, 188029, Note_on_c, 0, 57, 0
2, 188105, Note_on_c, 0, 56, 0
2, 188116, Note_on_c, 0, 54, 77
2, 188191, Note_on_c, 0, 54, 0
2, 188202, Note_on_c, 0, 71, 0
2, 188222, Note_on_c, 0, 52, 79
2, 188222, Note_on_c, 0, 62, 83
2, 188276, Note_on_c, 0, 52, 0
2, 188306, Note_on_c, 0, 50, 77
2, 188373, Note_on_c, 0, 50, 0
2, 188416, Note_on_c, 0, 48, 72
2, 188463, Note_on_c, 0, 48, 0
2, 188509, Note_on_c, 0, 47, 76
2, 188516, Note_on_c, 0, 59, 0
2, 188531, Note_on_c, 0, 62, 0
2, 188619, Note_on_c, 0, 47, 0
2, 188638, Control_c, 0, 64, 26
2, 188638, Note_on_c, 0, 60, 93
2, 188642, Note_on_c, 0, 45, 81
2, 188655, Control_c, 0, 64, 59
2, 188674, Control_c, 0, 64, 61
2, 188694, Control_c, 0, 64, 60
2, 188809, Control_c, 0, 64, 59
2, 188843, Note_on_c, 0, 45, 0
2, 188855, Note_on_c, 0, 64, 75
2, 188884, Control_c, 0, 64, 58
2, 188907, Control_c, 0, 64, 57
2, 188922, Control_c, 0, 64, 56
2, 188945, Control_c, 0, 64, 52
2, 188964, Control_c, 0, 64, 39
2, 188964, Note_on_c, 0, 60, 0
2, 188982, Control_c, 0, 64, 0
2, 189058, Note_on_c, 0, 69, 85
2, 189074, Note_on_c, 0, 57, 81
2, 189097, Note_on_c, 0, 64, 0
2, 189120, Note_on_c, 0, 57, 0
2, 189172, Note_on_c, 0, 55, 73
2, 189252, Note_on_c, 0, 55, 0
2, 189265, Note_on_c, 0, 53, 72
2, 189348, Note_on_c, 0, 53, 0
2, 189366, Note_on_c, 0, 52, 72
2, 189431, Note_on_c, 0, 69, 0
2, 189464, Note_on_c, 0, 50, 85
2, 189464, Note_on_c, 0, 65, 87
2, 189470, Note_on_c, 0, 52, 0
2, 189481, Control_c, 0, 64, 51
2, 189501, Control_c, 0, 64, 59
2, 189538, Control_c, 0, 64, 58
2, 189576, Control_c, 0, 64, 59
2, 189616, Control_c, 0, 64, 58
2, 189616, Note_on_c, 0, 50, 0
2, 189652, Control_c, 0, 64, 59
2, 189667, Note_on_c, 0, 57, 81
2, 189730, Control_c, 0, 64, 60
2, 189748, Control_c, 0, 64, 59
2, 189769, Control_c, 0, 64, 58
2, 189788, Control_c, 0, 64, 49
2, 189805, Control_c, 0, 64, 0
2, 189812, Note_on_c, 0, 57, 0
2, 189870, Note_on_c, 0, 53, 81
2, 189879, Note_on_c, 0, 62, 86
2, 189926, Note_on_c, 0, 65, 0
2, 189933, Note_on_c, 0, 53, 0
2, 189968, Note_on_c, 0, 52, 82
2, 190025, Note_on_c, 0, 52, 0
2, 190064, Note_on_c, 0, 50, 77
2, 190110, Note_on_c, 0, 50, 0
2, 190168, Note_on_c, 0, 48, 82
2, 190224, Note_on_c, 0, 48, 0
2, 190261, Note_on_c, 0, 47, 78
2, 190287, Control_c, 0, 64, 34
2, 190292, Note_on_c, 0, 56, 90
2, 190307, Control_c, 0, 64, 62
2, 190314, Note_on_c, 0, 47, 0
2, 190327, Control_c, 0, 64, 64
2, 190345, Control_c, 0, 64, 63
2, 190349, Note_on_c, 0, 56, 0
2, 190354, Note_on_c, 0, 62, 0
2, 190358, Note_on_c, 0, 48, 80
2, 190421, Control_c, 0, 64, 62
2, 190426, Note_on_c, 0, 48, 0
2, 190470, Note_on_c, 0, 50, 80
2, 190537, Control_c, 0, 64, 61
2, 190613, Control_c, 0, 64, 60
2, 190633, Control_c, 0, 64, 58
2, 190652, Control_c, 0, 64, 53
2, 190657, Note_on_c, 0, 50, 0
2, 190669, Control_c, 0, 64, 40
2, 190689, Control_c, 0, 64, 0
2, 190703, Note_on_c, 0, 77, 85
2, 190785, Note_on_c, 0, 48, 78
2, 190830, Note_on_c, 0, 48, 0
2, 190844, Note_on_c, 0, 77, 0
2, 190880, Note_on_c, 0, 47, 79
2, 190985, Note_on_c, 0, 45, 78
2, 190989, Note_on_c, 0, 47, 0
2, 191054, Note_on_c, 0, 45, 0
2, 191070, Note_on_c, 0, 44, 80
2, 191083, Note_on_c, 0, 71, 83
2, 191166, Note_on_c, 0, 44, 0
2, 191179, Note_on_c, 0, 45, 82
2, 191229, Note_on_c, 0, 45, 0
2, 191308, Note_on_c, 0, 47, 66
2, 191447, Note_on_c, 0, 71, 0
2, 191469, Note_on_c, 0, 47, 0
2, 191494, Note_on_c, 0, 74, 75
2, 191601, Note_on_c, 0, 45, 69
2, 191633, Note_on_c, 0, 74, 0
2, 191679, Note_on_c, 0, 45, 0
2, 191700, Note_on_c, 0, 44, 72
2, 191766, Note_on_c, 0, 44, 0
2, 191782, Note_on_c, 0, 42, 73
2, 191862, Note_on_c, 0, 42, 0
2, 191892, Note_on_c, 0, 68, 83
2, 191894, Note_on_c, 0, 40, 76
2, 191903, Control_c, 0, 64, 34
2, 191919, Control_c, 0, 64, 37
2, 191938, Control_c, 0, 64, 38
2, 191977, Control_c, 0, 64, 39
2, 192033, Control_c, 0, 64, 38
2, 192169, Control_c, 0, 64, 37
2, 192190, Control_c, 0, 64, 36
2, 192207, Control_c, 0, 64, 34
2, 192225, Control_c, 0, 64, 29
2, 192245, Control_c, 0, 64, 16
2, 192263, Control_c, 0, 64, 0
2, 192303, Note_on_c, 0, 62, 80
2, 192313, Note_on_c, 0, 68, 0
2, 192395, Note_on_c, 0, 40, 0
2, 192504, Note_on_c, 0, 62, 0
2, 192535, Note_on_c, 0, 42, 71
2, 192590, Note_on_c, 0, 42, 0
2, 192634, Note_on_c, 0, 44, 77
2, 192694, Note_on_c, 0, 44, 0
2, 192725, Note_on_c, 0, 45, 77
2, 192729, Note_on_c, 0, 71, 81
2, 192738, Note_on_c, 0, 59, 76
2, 192776, Note_on_c, 0, 45, 0
2, 192825, Note_on_c, 0, 44, 82
2, 192884, Note_on_c, 0, 44, 0
2, 192913, Note_on_c, 0, 59, 0
2, 192926, Note_on_c, 0, 45, 69
2, 192983, Note_on_c, 0, 45, 0
2, 193018, Note_on_c, 0, 44, 77
2, 193084, Note_on_c, 0, 44, 0
2, 193127, Note_on_c, 0, 45, 73
2, 193134, Note_on_c, 0, 64, 75
2, 193175, Note_on_c, 0, 45, 0
2, 193217, Note_on_c, 0, 44, 74
2, 193318, Note_on_c, 0, 44, 0
2, 193325, Note_on_c, 0, 42, 60
2, 193444, Note_on_c, 0, 42, 0
2, 193455, Note_on_c, 0, 44, 78
2, 193507, Note_on_c, 0, 64, 0
2, 193511, Note_on_c, 0, 44, 0
2, 193515, Control_c, 0, 67, 9
2, 193533, Control_c, 0, 67, 20
2, 193547, Note_on_c, 0, 60, 83
2, 193547, Note_on_c, 0, 71, 0
2, 193551, Control_c, 0, 67, 34
2, 193560, Note_on_c, 0, 45, 81
2, 193571, Control_c, 0, 67, 52
2, 193593, Control_c, 0, 64, 50
2, 193593, Control_c, 0, 67, 70
2, 193611, Control_c, 0, 64, 57
2, 193611, Control_c, 0, 67, 85
2, 193630, Control_c, 0, 67, 99
2, 193650, Control_c, 0, 67, 110
2, 193666, Control_c, 0, 67, 120
2, 193671, Note_on_c, 0, 60, 0
2, 193685, Control_c, 0, 67, 127
2, 193706, Control_c, 0, 64, 58
2, 193725, Control_c, 0, 64, 57
2, 193837, Control_c, 0, 64, 56
2, 193897, Control_c, 0, 64, 55
2, 193918, Control_c, 0, 64, 53
2, 193934, Control_c, 0, 64, 49
2, 193954, Control_c, 0, 64, 37
2, 193974, Control_c, 0, 64, 0
2, 193988, Note_on_c, 0, 76, 79
2, 194016, Note_on_c, 0, 45, 0
2, 194081, Note_on_c, 0, 74, 75
2, 194110, Note_on_c, 0, 76, 0
2, 194164, Note_on_c, 0, 72, 76
2, 194190, Note_on_c, 0, 47, 72
2, 194213, Note_on_c, 0, 74, 0
2, 194245, Note_on_c, 0, 47, 0
2, 194268, Note_on_c, 0, 71, 76
2, 194277, Note_on_c, 0, 72, 0
2, 194290, Note_on_c, 0, 48, 68
2, 194327, Note_on_c, 0, 71, 0
2, 194331, Note_on_c, 0, 48, 0
2, 194376, Note_on_c, 0, 50, 71
2, 194380, Note_on_c, 0, 69, 69
2, 194434, Note_on_c, 0, 50, 0
2, 194478, Note_on_c, 0, 49, 68
2, 194540, Note_on_c, 0, 49, 0
2, 194582, Note_on_c, 0, 69, 0
2, 194582, Note_on_c, 0, 73, 72
2, 194586, Note_on_c, 0, 50, 72
2, 194618, Note_on_c, 0, 73, 0
2, 194637, Note_on_c, 0, 50, 0
2, 194667, Note_on_c, 0, 76, 80
2, 194686, Note_on_c, 0, 49, 66
2, 194734, Note_on_c, 0, 76, 0
2, 194739, Note_on_c, 0, 49, 0
2, 194778, Note_on_c, 0, 79, 79
2, 194783, Note_on_c, 0, 50, 73
2, 194833, Note_on_c, 0, 50, 0
2, 194885, Note_on_c, 0, 49, 70
2, 194934, Note_on_c, 0, 49, 0
2, 194979, Note_on_c, 0, 47, 63
2, 195041, Note_on_c, 0, 47, 0
2, 195076, Note_on_c, 0, 49, 63
2, 195129, Control_c, 0, 64, 19
2, 195129, Note_on_c, 0, 49, 0
2, 195138, Note_on_c, 0, 79, 0
2, 195147, Control_c, 0, 64, 40
2, 195167, Control_c, 0, 64, 42
2, 195180, Note_on_c, 0, 77, 76
2, 195186, Control_c, 0, 64, 44
2, 195186, Note_on_c, 0, 50, 58
2, 195204, Control_c, 0, 64, 47
2, 195223, Control_c, 0, 64, 48
2, 195245, Control_c, 0, 64, 50
2, 195434, Control_c, 0, 64, 49
2, 195454, Control_c, 0, 64, 48
2, 195474, Control_c, 0, 64, 47
2, 195478, Note_on_c, 0, 77, 0
2, 195491, Control_c, 0, 64, 43
2, 195512, Control_c, 0, 64, 37
2, 195533, Control_c, 0, 64, 29
2, 195551, Control_c, 0, 64, 22
2, 195569, Control_c, 0, 64, 16
2, 195574, Note_on_c, 0, 69, 68
2, 195587, Control_c, 0, 64, 11
2, 195609, Control_c, 0, 64, 0
2, 195631, Note_on_c, 0, 50, 0
2, 195633, Note_on_c, 0, 69, 0
2, 195681, Note_on_c, 0, 67, 68
2, 195758, Note_on_c, 0, 65, 68
2, 195794, Note_on_c, 0, 52, 64
2, 195801, Note_on_c, 0, 67, 0
2, 195834, Note_on_c, 0, 52, 0
2, 195847, Note_on_c, 0, 64, 79
2, 195855, Note_on_c, 0, 65, 0
2, 195886, Note_on_c, 0, 53, 71
2, 195918, Note_on_c, 0, 64, 0
2, 195927, Note_on_c, 0, 53, 0
2, 195963, Note_on_c, 0, 62, 81
2, 195976, Note_on_c, 0, 55, 62
2, 196040, Note_on_c, 0, 55, 0
2, 196079, Note_on_c, 0, 54, 60
2, 196138, Note_on_c, 0, 54, 0
2, 196153, Note_on_c, 0, 62, 0
2, 196162, Note_on_c, 0, 66, 68
2, 196184, Note_on_c, 0, 55, 68
2, 196217, Note_on_c, 0, 66, 0
2, 196244, Note_on_c, 0, 55, 0
2, 196249, Note_on_c, 0, 69, 72
2, 196278, Note_on_c, 0, 54, 66
2, 196330, Note_on_c, 0, 69, 0
2, 196344, Note_on_c, 0, 54, 0
2, 196359, Note_on_c, 0, 72, 80
2, 196381, Note_on_c, 0, 55, 76
2, 196442, Note_on_c, 0, 55, 0
2, 196482, Note_on_c, 0, 54, 66
2, 196527, Note_on_c, 0, 54, 0
2, 196565, Note_on_c, 0, 52, 66
2, 196631, Note_on_c, 0, 52, 0
2, 196662, Note_on_c, 0, 54, 58
2, 196722, Note_on_c, 0, 54, 0
2, 196740, Note_on_c, 0, 72, 0
2, 196761, Control_c, 0, 64, 22
2, 196767, Note_on_c, 0, 71, 76
2, 196776, Note_on_c, 0, 55, 62
2, 196781, Control_c, 0, 64, 23
2, 196799, Control_c, 0, 64, 26
2, 196816, Control_c, 0, 64, 30
2, 196836, Control_c, 0, 64, 34
2, 196857, Control_c, 0, 64, 36
2, 196875, Control_c, 0, 64, 39
2, 196897, Control_c, 0, 64, 41
2, 196946, Note_on_c, 0, 71, 0
2, 196972, Control_c, 0, 64, 40
2, 196992, Control_c, 0, 64, 39
2, 197011, Control_c, 0, 64, 34
2, 197011, Note_on_c, 0, 74, 63
2, 197029, Control_c, 0, 64, 20
2, 197049, Control_c, 0, 64, 0
2, 197086, Note_on_c, 0, 74, 0
2, 197091, Note_on_c, 0, 72, 73
2, 197141, Note_on_c, 0, 55, 0
2, 197161, Note_on_c, 0, 72, 0
2, 197183, Note_on_c, 0, 71, 78
2, 197377, Note_on_c, 0, 57, 74
2, 197381, Note_on_c, 0, 72, 79
2, 197406, Note_on_c, 0, 71, 0
2, 197432, Note_on_c, 0, 57, 0
2, 197464, Note_on_c, 0, 59, 83
2, 197484, Note_on_c, 0, 74, 79
2, 197496, Note_on_c, 0, 72, 0
2, 197515, Note_on_c, 0, 59, 0
2, 197534, Note_on_c, 0, 74, 0
2, 197571, Note_on_c, 0, 60, 79
2, 197582, Note_on_c, 0, 67, 79
2, 197640, Note_on_c, 0, 60, 0
2, 197665, Note_on_c, 0, 59, 74
2, 197743, Note_on_c, 0, 59, 0
2, 197788, Note_on_c, 0, 60, 78
2, 197836, Note_on_c, 0, 60, 0
2, 197869, Note_on_c, 0, 67, 0
2, 197881, Note_on_c, 0, 59, 74
2, 197954, Note_on_c, 0, 59, 0
2, 197975, Note_on_c, 0, 77, 82
2, 197992, Note_on_c, 0, 60, 75
2, 198040, Note_on_c, 0, 60, 0
2, 198082, Note_on_c, 0, 59, 77
2, 198134, Note_on_c, 0, 59, 0
2, 198192, Note_on_c, 0, 57, 73
2, 198243, Note_on_c, 0, 57, 0
2, 198285, Note_on_c, 0, 59, 71
2, 198335, Note_on_c, 0, 59, 0
2, 198384, Note_on_c, 0, 76, 77
2, 198393, Note_on_c, 0, 60, 75
2, 198393, Note_on_c, 0, 77, 0
2, 198431, Control_c, 0, 64, 38
2, 198468, Control_c, 0, 64, 41
2, 198486, Control_c, 0, 64, 45
2, 198506, Control_c, 0, 64, 50
2, 198526, Control_c, 0, 64, 53
2, 198544, Control_c, 0, 64, 55
2, 198558, Note_on_c, 0, 76, 0
2, 198605, Control_c, 0, 64, 52
2, 198611, Note_on_c, 0, 67, 73
2, 198625, Control_c, 0, 64, 46
2, 198643, Control_c, 0, 64, 36
2, 198659, Note_on_c, 0, 67, 0
2, 198663, Control_c, 0, 64, 26
2, 198705, Note_on_c, 0, 60, 0
2, 198709, Note_on_c, 0, 65, 77
2, 198719, Control_c, 0, 64, 27
2, 198768, Note_on_c, 0, 65, 0
2, 198797, Note_on_c, 0, 64, 74
2, 198853, Control_c, 0, 64, 26
2, 198873, Control_c, 0, 64, 18
2, 198891, Control_c, 0, 64, 0
2, 198910, Control_c, 0, 67, 122
2, 198930, Control_c, 0, 67, 113
2, 198949, Control_c, 0, 67, 98
2, 198970, Control_c, 0, 67, 68
2, 198987, Control_c, 0, 67, 34
2, 199004, Note_on_c, 0, 62, 78
2, 199004, Note_on_c, 0, 65, 60
2, 199009, Control_c, 0, 67, 0
2, 199080, Note_on_c, 0, 62, 0
2, 199089, Note_on_c, 0, 67, 77
2, 199095, Note_on_c, 0, 64, 0
2, 199100, Note_on_c, 0, 64, 19
2, 199113, Note_on_c, 0, 65, 0
2, 199130, Note_on_c, 0, 67, 0
2, 199175, Note_on_c, 0, 64, 0
2, 199188, Note_on_c, 0, 65, 77
2, 199202, Note_on_c, 0, 60, 69
2, 199276, Note_on_c, 0, 65, 0
2, 199294, Note_on_c, 0, 64, 86
2, 199330, Note_on_c, 0, 60, 0
2, 199373, Note_on_c, 0, 64, 0
2, 199395, Note_on_c, 0, 65, 79
2, 199465, Note_on_c, 0, 65, 0
2, 199496, Note_on_c, 0, 64, 70
2, 199496, Note_on_c, 0, 68, 49
2, 199538, Note_on_c, 0, 68, 0
2, 199559, Note_on_c, 0, 64, 0
2, 199593, Note_on_c, 0, 70, 86
2, 199598, Note_on_c, 0, 65, 78
2, 199683, Note_on_c, 0, 65, 0
2, 199707, Note_on_c, 0, 64, 75
2, 199773, Note_on_c, 0, 64, 0
2, 199801, Note_on_c, 0, 62, 72
2, 199900, Note_on_c, 0, 62, 0
2, 199919, Note_on_c, 0, 64, 73
2, 199947, Note_on_c, 0, 70, 0
2, 200008, Note_on_c, 0, 64, 0
2, 200021, Note_on_c, 0, 65, 82
2, 200021, Note_on_c, 0, 69, 82
2, 200185, Note_on_c, 0, 69, 0
2, 200219, Control_c, 0, 64, 40
2, 200236, Control_c, 0, 64, 62
2, 200236, Note_on_c, 0, 71, 88
2, 200255, Control_c, 0, 64, 63
2, 200293, Control_c, 0, 64, 62
2, 200302, Note_on_c, 0, 65, 0
2, 200331, Note_on_c, 0, 73, 90
2, 200339, Note_on_c, 0, 71, 0
2, 200349, Control_c, 0, 64, 61
2, 200434, Note_on_c, 0, 74, 87
2, 200449, Control_c, 0, 64, 62
2, 200454, Note_on_c, 0, 73, 0
2, 200561, Control_c, 0, 64, 61
2, 200582, Control_c, 0, 64, 60
2, 200598, Control_c, 0, 64, 56
2, 200618, Control_c, 0, 64, 44
2, 200637, Control_c, 0, 64, 0
2, 200653, Note_on_c, 0, 67, 82
2, 200690, Note_on_c, 0, 74, 0
2, 200746, Note_on_c, 0, 69, 77
2, 200751, Note_on_c, 0, 67, 0
2, 200841, Note_on_c, 0, 69, 0
2, 200854, Note_on_c, 0, 70, 86
2, 200858, Note_on_c, 0, 81, 91
2, 200929, Note_on_c, 0, 70, 0
2, 200959, Note_on_c, 0, 69, 80
2, 201032, Note_on_c, 0, 69, 0
2, 201060, Note_on_c, 0, 70, 81
2, 201138, Control_c, 0, 64, 45
2, 201156, Control_c, 0, 64, 54
2, 201156, Note_on_c, 0, 70, 0
2, 201157, Note_on_c, 0, 69, 67
2, 201175, Control_c, 0, 64, 56
2, 201196, Control_c, 0, 64, 57
2, 201217, Control_c, 0, 64, 59
2, 201235, Control_c, 0, 64, 60
2, 201243, Note_on_c, 0, 69, 0
2, 201252, Control_c, 0, 64, 61
2, 201260, Note_on_c, 0, 73, 92
2, 201267, Note_on_c, 0, 70, 80
2, 201274, Control_c, 0, 64, 62
2, 201303, Note_on_c, 0, 81, 0
2, 201310, Control_c, 0, 64, 63
2, 201349, Control_c, 0, 64, 64
2, 201354, Note_on_c, 0, 70, 0
2, 201370, Note_on_c, 0, 69, 70
2, 201411, Note_on_c, 0, 73, 0
2, 201438, Note_on_c, 0, 69, 0
2, 201472, Note_on_c, 0, 67, 75
2, 201486, Control_c, 0, 64, 63
2, 201504, Control_c, 0, 64, 62
2, 201522, Control_c, 0, 64, 60
2, 201542, Control_c, 0, 64, 57
2, 201560, Control_c, 0, 64, 51
2, 201567, Note_on_c, 0, 69, 84
2, 201579, Control_c, 0, 64, 43
2, 201588, Note_on_c, 0, 67, 0
2, 201597, Control_c, 0, 64, 32
2, 201612, Note_on_c, 0, 69, 0
2, 201617, Control_c, 0, 64, 23
2, 201635, Control_c, 0, 64, 20
2, 201668, Note_on_c, 0, 74, 87
2, 201672, Note_on_c, 0, 77, 92
2, 201677, Note_on_c, 0, 70, 87
2, 201696, Control_c, 0, 64, 17
2, 201715, Control_c, 0, 64, 11
2, 201733, Control_c, 0, 64, 0
2, 201882, Note_on_c, 0, 58, 77
2, 201965, Note_on_c, 0, 58, 0
2, 201981, Note_on_c, 0, 60, 78
2, 201986, Control_c, 0, 64, 38
2, 202002, Control_c, 0, 64, 50
2, 202020, Control_c, 0, 64, 51
2, 202061, Control_c, 0, 64, 53
2, 202065, Note_on_c, 0, 60, 0
2, 202069, Note_on_c, 0, 74, 0
2, 202080, Control_c, 0, 64, 55
2, 202080, Note_on_c, 0, 70, 0
2, 202084, Note_on_c, 0, 62, 84
2, 202119, Control_c, 0, 64, 54
2, 202119, Note_on_c, 0, 77, 0
2, 202136, Control_c, 0, 64, 51
2, 202156, Control_c, 0, 64, 41
2, 202173, Control_c, 0, 64, 0
2, 202184, Note_on_c, 0, 60, 82
2, 202196, Note_on_c, 0, 62, 0
2, 202283, Note_on_c, 0, 60, 0
2, 202292, Note_on_c, 0, 58, 82
2, 202363, Note_on_c, 0, 58, 0
2, 202385, Note_on_c, 0, 57, 89
2, 202437, Note_on_c, 0, 57, 0
2, 202491, Note_on_c, 0, 55, 80
2, 202498, Note_on_c, 0, 82, 92
2, 202555, Note_on_c, 0, 55, 0
2, 202558, Control_c, 0, 64, 18
2, 202578, Control_c, 0, 64, 54
2, 202594, Note_on_c, 0, 53, 83
2, 202598, Control_c, 0, 64, 57
2, 202614, Control_c, 0, 64, 55
2, 202635, Control_c, 0, 64, 54
2, 202648, Note_on_c, 0, 53, 0
2, 202697, Note_on_c, 0, 55, 74
2, 202732, Note_on_c, 0, 55, 0
2, 202737, Control_c, 0, 64, 53
2, 202749, Control_c, 0, 64, 43
2, 202771, Control_c, 0, 64, 0
2, 202780, Note_on_c, 0, 57, 75
2, 202864, Note_on_c, 0, 57, 0
2, 202887, Note_on_c, 0, 58, 83
2, 202892, Note_on_c, 0, 82, 0
2, 202953, Note_on_c, 0, 58, 0
2, 202987, Note_on_c, 0, 57, 87
2, 203020, Note_on_c, 0, 57, 0
2, 203078, Note_on_c, 0, 55, 86
2, 203192, Note_on_c, 0, 55, 0
2, 203193, Note_on_c, 0, 53, 78
2, 203246, Note_on_c, 0, 53, 0
2, 203282, Note_on_c, 0, 52, 80
2, 203289, Control_c, 0, 64, 43
2, 203300, Note_on_c, 0, 73, 89
2, 203308, Control_c, 0, 64, 63
2, 203327, Control_c, 0, 64, 62
2, 203347, Control_c, 0, 64, 59
2, 203356, Note_on_c, 0, 52, 0
2, 203364, Control_c, 0, 64, 55
2, 203382, Note_on_c, 0, 53, 82
2, 203384, Control_c, 0, 64, 53
2, 203420, Control_c, 0, 64, 52
2, 203442, Control_c, 0, 64, 51
2, 203451, Note_on_c, 0, 53, 0
2, 203463, Control_c, 0, 64, 50
2, 203509, Note_on_c, 0, 55, 85
2, 203520, Control_c, 0, 64, 49
2, 203537, Control_c, 0, 64, 46
2, 203557, Control_c, 0, 64, 40
2, 203576, Control_c, 0, 64, 32
2, 203583, Note_on_c, 0, 55, 0
2, 203594, Control_c, 0, 64, 25
2, 203614, Control_c, 0, 64, 22
2, 203634, Control_c, 0, 64, 19
2, 203652, Control_c, 0, 64, 13
2, 203674, Control_c, 0, 64, 0
2, 203714, Note_on_c, 0, 70, 81
2, 203784, Note_on_c, 0, 70, 0
2, 203810, Note_on_c, 0, 53, 74
2, 203859, Note_on_c, 0, 53, 0
2, 203898, Note_on_c, 0, 52, 78
2, 204005, Note_on_c, 0, 50, 74
2, 204010, Note_on_c, 0, 52, 0
2, 204085, Note_on_c, 0, 50, 0
2, 204098, Note_on_c, 0, 49, 73
2, 204111, Note_on_c, 0, 64, 71
2, 204149, Note_on_c, 0, 64, 0
2, 204177, Note_on_c, 0, 49, 0
2, 204206, Note_on_c, 0, 50, 73
2, 204210, Note_on_c, 0, 73, 0
2, 204259, Note_on_c, 0, 50, 0
2, 204319, Note_on_c, 0, 52, 80
2, 204488, Note_on_c, 0, 52, 0
2, 204522, Note_on_c, 0, 67, 75
2, 204617, Note_on_c, 0, 50, 66
2, 204645, Note_on_c, 0, 67, 0
2, 204676, Note_on_c, 0, 50, 0
2, 204713, Note_on_c, 0, 49, 76
2, 204793, Note_on_c, 0, 49, 0
2, 204818, Note_on_c, 0, 47, 65
2, 204884, Note_on_c, 0, 47, 0
2, 204908, Note_on_c, 0, 61, 77
2, 204916, Note_on_c, 0, 45, 78
2, 205002, Note_on_c, 0, 61, 0
2, 205336, Note_on_c, 0, 79, 89
2, 205360, Note_on_c, 0, 76, 74
2, 205429, Note_on_c, 0, 45, 0
2, 205476, Note_on_c, 0, 76, 0
2, 205563, Note_on_c, 0, 47, 66
2, 205622, Note_on_c, 0, 47, 0
2, 205652, Note_on_c, 0, 49, 75
2, 205704, Note_on_c, 0, 49, 0
2, 205755, Note_on_c, 0, 50, 78
2, 205755, Note_on_c, 0, 79, 0
2, 205764, Note_on_c, 0, 76, 82
2, 205773, Note_on_c, 0, 69, 72
2, 205807, Note_on_c, 0, 50, 0
2, 205847, Note_on_c, 0, 49, 70
2, 205919, Note_on_c, 0, 49, 0
2, 205950, Note_on_c, 0, 50, 74
2, 206020, Note_on_c, 0, 50, 0
2, 206054, Note_on_c, 0, 49, 67
2, 206131, Note_on_c, 0, 49, 0
2, 206160, Note_on_c, 0, 50, 80
2, 206166, Note_on_c, 0, 81, 77
2, 206209, Note_on_c, 0, 76, 0
2, 206222, Note_on_c, 0, 50, 0
2, 206245, Control_c, 0, 64, 12
2, 206264, Control_c, 0, 64, 17
2, 206266, Note_on_c, 0, 49, 77
2, 206286, Control_c, 0, 64, 21
2, 206303, Control_c, 0, 64, 24
2, 206321, Control_c, 0, 64, 25
2, 206325, Note_on_c, 0, 49, 0
2, 206360, Note_on_c, 0, 47, 75
2, 206380, Control_c, 0, 64, 23
2, 206398, Control_c, 0, 64, 21
2, 206416, Control_c, 0, 64, 18
2, 206423, Note_on_c, 0, 69, 0
2, 206438, Control_c, 0, 64, 16
2, 206438, Note_on_c, 0, 47, 0
2, 206457, Control_c, 0, 64, 15
2, 206462, Note_on_c, 0, 49, 75
2, 206475, Control_c, 0, 64, 12
2, 206495, Control_c, 0, 64, 0
2, 206514, Note_on_c, 0, 49, 0
2, 206531, Control_c, 0, 67, 16
2, 206551, Control_c, 0, 67, 29
2, 206560, Note_on_c, 0, 50, 81
2, 206564, Note_on_c, 0, 77, 78
2, 206569, Note_on_c, 0, 69, 68
2, 206573, Control_c, 0, 67, 42
2, 206590, Control_c, 0, 67, 57
2, 206609, Control_c, 0, 67, 73
2, 206614, Note_on_c, 0, 81, 0
2, 206618, Note_on_c, 0, 50, 0
2, 206628, Control_c, 0, 67, 90
2, 206646, Control_c, 0, 67, 107
2, 206651, Note_on_c, 0, 77, 0
2, 206668, Control_c, 0, 67, 120
2, 206668, Note_on_c, 0, 52, 84
2, 206684, Control_c, 0, 67, 127
2, 206721, Note_on_c, 0, 52, 0
2, 206743, Note_on_c, 0, 69, 0
2, 206778, Note_on_c, 0, 53, 73
2, 206791, Note_on_c, 0, 52, 67
2, 206831, Note_on_c, 0, 52, 0
2, 206858, Control_c, 0, 67, 125
2, 206874, Control_c, 0, 67, 124
2, 206913, Control_c, 0, 67, 123
2, 206949, Note_on_c, 0, 53, 0
2, 206985, Note_on_c, 0, 74, 71
2, 207003, Note_on_c, 0, 69, 73
2, 207010, Control_c, 0, 67, 122
2, 207021, Note_on_c, 0, 74, 0
2, 207075, Note_on_c, 0, 69, 0
2, 207079, Note_on_c, 0, 52, 77
2, 207127, Note_on_c, 0, 52, 0
2, 207180, Note_on_c, 0, 50, 70
2, 207242, Control_c, 0, 67, 123
2, 207263, Note_on_c, 0, 50, 0
2, 207267, Note_on_c, 0, 48, 71
2, 207300, Control_c, 0, 67, 124
2, 207328, Note_on_c, 0, 48, 0
2, 207335, Control_c, 0, 67, 125
2, 207356, Control_c, 0, 67, 126
2, 207356, Note_on_c, 0, 47, 75
2, 207374, Control_c, 0, 67, 127
2, 207383, Note_on_c, 0, 62, 76
2, 207420, Note_on_c, 0, 47, 0
2, 207425, Note_on_c, 0, 62, 0
2, 207462, Note_on_c, 0, 48, 78
2, 207533, Note_on_c, 0, 48, 0
2, 207586, Note_on_c, 0, 50, 77
2, 207643, Control_c, 0, 67, 126
2, 207700, Control_c, 0, 67, 125
2, 207720, Control_c, 0, 67, 124
2, 207749, Note_on_c, 0, 50, 0
2, 207758, Control_c, 0, 67, 123
2, 207777, Note_on_c, 0, 65, 71
2, 207859, Note_on_c, 0, 65, 0
2, 207875, Note_on_c, 0, 48, 71
2, 207918, Note_on_c, 0, 48, 0
2, 207969, Note_on_c, 0, 47, 72
2, 208032, Note_on_c, 0, 47, 0
2, 208066, Note_on_c, 0, 45, 69
2, 208152, Note_on_c, 0, 45, 0
2, 208184, Note_on_c, 0, 59, 77
2, 208199, Note_on_c, 0, 43, 71
2, 208257, Control_c, 0, 67, 122
2, 208266, Note_on_c, 0, 59, 0
2, 208277, Control_c, 0, 64, 24
2, 208300, Control_c, 0, 64, 32
2, 208300, Control_c, 0, 67, 121
2, 208318, Control_c, 0, 64, 35
2, 208353, Control_c, 0, 67, 120
2, 208450, Control_c, 0, 67, 119
2, 208468, Control_c, 0, 67, 118
2, 208506, Control_c, 0, 67, 117
2, 208565, Control_c, 0, 67, 116
2, 208606, Note_on_c, 0, 77, 79
2, 208610, Note_on_c, 0, 74, 73
2, 208623, Control_c, 0, 64, 34
2, 208623, Control_c, 0, 67, 115
2, 208682, Control_c, 0, 67, 114
2, 208704, Control_c, 0, 64, 33
2, 208704, Control_c, 0, 67, 113
2, 208704, Note_on_c, 0, 43, 0
2, 208719, Control_c, 0, 64, 32
2, 208732, Note_on_c, 0, 74, 0
2, 208759, Control_c, 0, 64, 31
2, 208759, Control_c, 0, 67, 112
2, 208777, Control_c, 0, 64, 30
2, 208796, Control_c, 0, 64, 29
2, 208796, Control_c, 0, 67, 111
2, 208815, Control_c, 0, 64, 27
2, 208815, Control_c, 0, 67, 109
2, 208836, Control_c, 0, 64, 23
2, 208836, Control_c, 0, 67, 98
2, 208836, Note_on_c, 0, 45, 65
2, 208857, Control_c, 0, 64, 20
2, 208857, Control_c, 0, 67, 73
2, 208872, Control_c, 0, 64, 19
2, 208872, Control_c, 0, 67, 41
2, 208892, Control_c, 0, 64, 18
2, 208892, Control_c, 0, 67, 0
2, 208908, Note_on_c, 0, 45, 0
2, 208932, Control_c, 0, 64, 16
2, 208932, Note_on_c, 0, 47, 69
2, 208947, Control_c, 0, 64, 13
2, 208968, Control_c, 0, 64, 0
2, 208981, Note_on_c, 0, 47, 0
2, 209007, Note_on_c, 0, 77, 0
2, 209022, Note_on_c, 0, 74, 78
2, 209026, Note_on_c, 0, 48, 74
2, 209031, Note_on_c, 0, 67, 68
2, 209072, Note_on_c, 0, 48, 0
2, 209132, Note_on_c, 0, 47, 72
2, 209193, Note_on_c, 0, 47, 0
2, 209242, Note_on_c, 0, 48, 67
2, 209291, Note_on_c, 0, 48, 0
2, 209328, Note_on_c, 0, 47, 73
2, 209395, Note_on_c, 0, 47, 0
2, 209409, Note_on_c, 0, 79, 81
2, 209430, Note_on_c, 0, 74, 0
2, 209436, Note_on_c, 0, 48, 70
2, 209487, Note_on_c, 0, 48, 0
2, 209520, Note_on_c, 0, 47, 71
2, 209576, Note_on_c, 0, 47, 0
2, 209626, Note_on_c, 0, 45, 62
2, 209672, Note_on_c, 0, 67, 0
2, 209681, Control_c, 0, 67, 9
2, 209681, Note_on_c, 0, 45, 0
2, 209697, Control_c, 0, 67, 18
2, 209715, Note_on_c, 0, 47, 64
2, 209717, Control_c, 0, 67, 27
2, 209737, Control_c, 0, 67, 37
2, 209755, Control_c, 0, 67, 49
2, 209774, Control_c, 0, 67, 64
2, 209782, Note_on_c, 0, 47, 0
2, 209797, Control_c, 0, 67, 86
2, 209813, Control_c, 0, 67, 108
2, 209835, Control_c, 0, 67, 127
2, 209835, Note_on_c, 0, 48, 66
2, 209835, Note_on_c, 0, 76, 71
2, 209842, Note_on_c, 0, 67, 63
2, 209877, Note_on_c, 0, 79, 0
2, 209949, Note_on_c, 0, 48, 0
2, 209997, Note_on_c, 0, 76, 0
2, 210072, Note_on_c, 0, 67, 0
2, 210256, Note_on_c, 0, 72, 74
2, 210306, Note_on_c, 0, 72, 0
2, 210355, Note_on_c, 0, 60, 66
2, 210445, Note_on_c, 0, 60, 0
2, 210454, Note_on_c, 0, 62, 67
2, 210506, Note_on_c, 0, 62, 0
2, 210541, Note_on_c, 0, 64, 71
2, 210617, Note_on_c, 0, 64, 0
2, 210652, Note_on_c, 0, 69, 70
2, 210663, Note_on_c, 0, 65, 68
2, 210785, Note_on_c, 0, 69, 0
2, 210807, Note_on_c, 0, 65, 0
2, 211107, Note_on_c, 0, 77, 73
2, 211153, Note_on_c, 0, 77, 0
2, 211216, Note_on_c, 0, 64, 64
2, 211260, Note_on_c, 0, 64, 0
2, 211308, Note_on_c, 0, 62, 63
2, 211381, Note_on_c, 0, 62, 0
2, 211394, Note_on_c, 0, 60, 74
2, 211475, Note_on_c, 0, 60, 0
2, 211496, Note_on_c, 0, 74, 72
2, 211512, Note_on_c, 0, 59, 79
2, 211590, Note_on_c, 0, 74, 0
2, 211654, Note_on_c, 0, 59, 0
2, 211693, Control_c, 0, 67, 126
2, 211713, Control_c, 0, 67, 123
2, 211733, Control_c, 0, 67, 119
2, 211753, Control_c, 0, 67, 116
2, 211770, Control_c, 0, 67, 114
2, 211790, Control_c, 0, 67, 113
2, 211809, Control_c, 0, 67, 111
2, 211828, Control_c, 0, 67, 108
2, 211848, Control_c, 0, 67, 104
2, 211866, Control_c, 0, 67, 100
2, 211886, Control_c, 0, 67, 96
2, 211905, Control_c, 0, 67, 91
2, 211924, Control_c, 0, 67, 87
2, 211933, Note_on_c, 0, 71, 77
2, 211943, Control_c, 0, 67, 80
2, 211954, Note_on_c, 0, 62, 65
2, 211962, Control_c, 0, 67, 71
2, 211983, Control_c, 0, 67, 58
2, 211994, Note_on_c, 0, 62, 0
2, 212000, Note_on_c, 0, 71, 0
2, 212001, Control_c, 0, 67, 37
2, 212021, Control_c, 0, 67, 0
2, 212051, Note_on_c, 0, 47, 69
2, 212135, Note_on_c, 0, 48, 71
2, 212141, Note_on_c, 0, 47, 0
2, 212218, Note_on_c, 0, 48, 0
2, 212233, Note_on_c, 0, 50, 79
2, 212325, Note_on_c, 0, 59, 81
2, 212325, Note_on_c, 0, 68, 84
2, 212329, Note_on_c, 0, 50, 0
2, 212339, Note_on_c, 0, 52, 86
2, 212406, Note_on_c, 0, 59, 0
2, 212484, Note_on_c, 0, 52, 0
2, 212538, Note_on_c, 0, 68, 0
2, 212745, Note_on_c, 0, 76, 77
2, 212752, Note_on_c, 0, 68, 81
2, 212825, Note_on_c, 0, 68, 0
2, 212831, Note_on_c, 0, 76, 0
2, 212848, Note_on_c, 0, 50, 74
2, 212933, Note_on_c, 0, 50, 0
2, 212943, Note_on_c, 0, 48, 76
2, 213038, Note_on_c, 0, 48, 0
2, 213056, Note_on_c, 0, 47, 78
2, 213138, Note_on_c, 0, 69, 79
2, 213138, Note_on_c, 0, 72, 87
2, 213147, Note_on_c, 0, 47, 0
2, 213172, Note_on_c, 0, 45, 74
2, 213367, Note_on_c, 0, 45, 0
2, 213371, Note_on_c, 0, 47, 76
2, 213456, Note_on_c, 0, 47, 0
2, 213461, Note_on_c, 0, 48, 72
2, 213525, Note_on_c, 0, 48, 0
2, 213555, Note_on_c, 0, 50, 77
2, 213610, Note_on_c, 0, 50, 0
2, 213650, Note_on_c, 0, 52, 78
2, 213733, Note_on_c, 0, 52, 0
2, 213742, Note_on_c, 0, 54, 79
2, 213838, Note_on_c, 0, 56, 81
2, 213854, Note_on_c, 0, 54, 0
2, 213889, Note_on_c, 0, 69, 0
2, 213919, Note_on_c, 0, 56, 0
2, 213941, Note_on_c, 0, 57, 91
2, 214037, Note_on_c, 0, 71, 74
2, 214107, Note_on_c, 0, 72, 0
2, 214134, Note_on_c, 0, 69, 74
2, 214156, Note_on_c, 0, 71, 0
2, 214220, Note_on_c, 0, 69, 0
2, 214236, Note_on_c, 0, 67, 78
2, 214346, Note_on_c, 0, 65, 74
2, 214401, Note_on_c, 0, 67, 0
2, 214430, Note_on_c, 0, 64, 78
2, 214437, Note_on_c, 0, 65, 0
2, 214509, Note_on_c, 0, 64, 0
2, 214524, Note_on_c, 0, 62, 78
2, 214600, Note_on_c, 0, 62, 0
2, 214620, Note_on_c, 0, 60, 78
2, 214653, Note_on_c, 0, 60, 0
2, 214728, Control_c, 0, 64, 46
2, 214732, Note_on_c, 0, 62, 93
2, 214748, Control_c, 0, 64, 72
2, 214766, Control_c, 0, 64, 74
2, 214786, Control_c, 0, 64, 73
2, 214805, Control_c, 0, 64, 69
2, 214837, Note_on_c, 0, 71, 83
2, 214879, Note_on_c, 0, 57, 0
2, 214882, Control_c, 0, 64, 68
2, 214921, Control_c, 0, 64, 67
2, 214921, Note_on_c, 0, 71, 0
2, 214937, Note_on_c, 0, 62, 0
2, 214940, Control_c, 0, 64, 65
2, 214940, Note_on_c, 0, 72, 80
2, 214959, Control_c, 0, 64, 64
2, 215024, Note_on_c, 0, 74, 84
2, 215028, Note_on_c, 0, 72, 0
2, 215035, Control_c, 0, 64, 62
2, 215053, Control_c, 0, 64, 59
2, 215071, Control_c, 0, 64, 55
2, 215084, Note_on_c, 0, 74, 0
2, 215091, Control_c, 0, 64, 50
2, 215111, Control_c, 0, 64, 45
2, 215125, Note_on_c, 0, 76, 87
2, 215129, Control_c, 0, 64, 42
2, 215129, Note_on_c, 0, 56, 79
2, 215129, Note_on_c, 0, 59, 86
2, 215190, Control_c, 0, 64, 38
2, 215195, Note_on_c, 0, 59, 0
2, 215199, Note_on_c, 0, 76, 0
2, 215208, Control_c, 0, 64, 30
2, 215219, Note_on_c, 0, 78, 89
2, 215231, Control_c, 0, 64, 17
2, 215235, Note_on_c, 0, 56, 0
2, 215246, Control_c, 0, 64, 0
2, 215309, Note_on_c, 0, 80, 89
2, 215322, Note_on_c, 0, 54, 81
2, 215327, Note_on_c, 0, 57, 87
2, 215350, Note_on_c, 0, 78, 0
2, 215381, Note_on_c, 0, 57, 0
2, 215419, Note_on_c, 0, 81, 74
2, 215461, Note_on_c, 0, 54, 0
2, 215474, Note_on_c, 0, 80, 0
2, 215519, Note_on_c, 0, 52, 88
2, 215519, Note_on_c, 0, 56, 94
2, 215527, Note_on_c, 0, 81, 0
2, 215532, Note_on_c, 0, 83, 81
2, 215640, Note_on_c, 0, 81, 74
2, 215657, Note_on_c, 0, 52, 0
2, 215706, Note_on_c, 0, 83, 0
2, 215729, Note_on_c, 0, 80, 76
2, 215820, Note_on_c, 0, 81, 0
2, 215825, Note_on_c, 0, 78, 80
2, 215878, Note_on_c, 0, 80, 0
2, 215923, Note_on_c, 0, 50, 79
2, 215923, Note_on_c, 0, 76, 82
2, 215923, Note_on_c, 0, 78, 0
2, 215993, Note_on_c, 0, 76, 0
2, 215997, Note_on_c, 0, 50, 0
2, 216029, Note_on_c, 0, 74, 74
2, 216128, Note_on_c, 0, 72, 76
2, 216162, Note_on_c, 0, 74, 0
2, 216234, Note_on_c, 0, 71, 69
2, 216266, Note_on_c, 0, 72, 0
2, 216336, Note_on_c, 0, 57, 99
2, 216336, Note_on_c, 0, 71, 0
2, 216340, Note_on_c, 0, 48, 87
2, 216349, Note_on_c, 0, 76, 86
2, 216354, Note_on_c, 0, 56, 0
2, 216454, Note_on_c, 0, 74, 72
2, 216474, Note_on_c, 0, 48, 0
2, 216500, Note_on_c, 0, 76, 0
2, 216537, Note_on_c, 0, 72, 68
2, 216633, Note_on_c, 0, 74, 0
2, 216641, Note_on_c, 0, 71, 72
2, 216694, Note_on_c, 0, 72, 0
2, 216722, Note_on_c, 0, 71, 0
2, 216756, Note_on_c, 0, 69, 70
2, 216844, Note_on_c, 0, 69, 0
2, 216860, Note_on_c, 0, 68, 66
2, 216968, Note_on_c, 0, 66, 70
2, 216993, Note_on_c, 0, 68, 0
2, 217050, Note_on_c, 0, 66, 0
2, 217054, Note_on_c, 0, 64, 66
2, 217161, Note_on_c, 0, 53, 96
2, 217174, Note_on_c, 0, 69, 76
2, 217178, Note_on_c, 0, 57, 0
2, 217178, Note_on_c, 0, 64, 0
2, 217275, Note_on_c, 0, 67, 76
2, 217336, Note_on_c, 0, 69, 0
2, 217376, Note_on_c, 0, 65, 66
2, 217458, Note_on_c, 0, 67, 0
2, 217465, Note_on_c, 0, 64, 72
2, 217516, Note_on_c, 0, 65, 0
2, 217556, Note_on_c, 0, 64, 0
2, 217576, Note_on_c, 0, 62, 72
2, 217645, Note_on_c, 0, 62, 0
2, 217678, Note_on_c, 0, 60, 71
2, 217775, Note_on_c, 0, 59, 73
2, 217780, Note_on_c, 0, 60, 0
2, 217853, Note_on_c, 0, 59, 0
2, 217875, Note_on_c, 0, 57, 66
2, 217913, Note_on_c, 0, 53, 0
2, 217965, Note_on_c, 0, 57, 0
2, 217986, Note_on_c, 0, 44, 98
2, 217986, Note_on_c, 0, 65, 83
2, 218100, Note_on_c, 0, 64, 71
2, 218173, Note_on_c, 0, 65, 0
2, 218201, Note_on_c, 0, 62, 69
2, 218296, Note_on_c, 0, 60, 67
2, 218296, Note_on_c, 0, 64, 0
2, 218341, Note_on_c, 0, 62, 0
2, 218384, Note_on_c, 0, 60, 0
2, 218391, Note_on_c, 0, 59, 75
2, 218466, Note_on_c, 0, 59, 0
2, 218495, Note_on_c, 0, 57, 80
2, 218601, Note_on_c, 0, 56, 67
2, 218633, Note_on_c, 0, 57, 0
2, 218696, Note_on_c, 0, 54, 65
2, 218709, Note_on_c, 0, 56, 0
2, 218736, Note_on_c, 0, 54, 0
2, 218802, Note_on_c, 0, 62, 86
2, 218836, Note_on_c, 0, 44, 0
2, 218887, Note_on_c, 0, 60, 78
2, 218959, Note_on_c, 0, 62, 0
2, 219000, Note_on_c, 0, 59, 77
2, 219007, Note_on_c, 0, 60, 0
2, 219072, Note_on_c, 0, 59, 0
2, 219097, Note_on_c, 0, 57, 84
2, 219182, Note_on_c, 0, 57, 0
2, 219200, Note_on_c, 0, 56, 66
2, 219279, Note_on_c, 0, 54, 77
2, 219306, Note_on_c, 0, 56, 0
2, 219355, Note_on_c, 0, 54, 0
2, 219382, Note_on_c, 0, 52, 77
2, 219458, Note_on_c, 0, 52, 0
2, 219477, Note_on_c, 0, 51, 83
2, 219577, Note_on_c, 0, 52, 88
2, 219585, Note_on_c, 0, 51, 0
2, 219738, Note_on_c, 0, 52, 0
2, 219995, Note_on_c, 0, 50, 88
2, 220095, Note_on_c, 0, 64, 82
2, 220106, Note_on_c, 0, 50, 0
2, 220191, Note_on_c, 0, 66, 82
2, 220202, Note_on_c, 0, 64, 0
2, 220290, Note_on_c, 0, 68, 86
2, 220310, Note_on_c, 0, 66, 0
2, 220389, Note_on_c, 0, 68, 0
2, 220389, Note_on_c, 0, 69, 85
2, 220395, Note_on_c, 0, 47, 84
2, 220499, Note_on_c, 0, 68, 85
2, 220512, Note_on_c, 0, 69, 0
2, 220532, Note_on_c, 0, 47, 0
2, 220580, Note_on_c, 0, 68, 0
2, 220598, Note_on_c, 0, 69, 80
2, 220684, Note_on_c, 0, 69, 0
2, 220697, Note_on_c, 0, 68, 78
2, 220775, Note_on_c, 0, 68, 0
2, 220779, Note_on_c, 0, 52, 81
2, 220783, Note_on_c, 0, 69, 78
2, 220862, Note_on_c, 0, 52, 0
2, 220881, Note_on_c, 0, 68, 80
2, 220906, Note_on_c, 0, 69, 0
2, 220982, Note_on_c, 0, 66, 77
2, 220986, Note_on_c, 0, 68, 0
2, 221081, Note_on_c, 0, 68, 84
2, 221085, Note_on_c, 0, 66, 0
2, 221179, Note_on_c, 0, 48, 85
2, 221179, Note_on_c, 0, 68, 0
2, 221183, Note_on_c, 0, 69, 86
2, 221359, Note_on_c, 0, 48, 0
2, 221602, Note_on_c, 0, 45, 82
2, 221686, Note_on_c, 0, 59, 81
2, 221702, Note_on_c, 0, 45, 0
2, 221794, Note_on_c, 0, 59, 0
2, 221799, Note_on_c, 0, 60, 78
2, 221880, Note_on_c, 0, 60, 0
2, 221884, Note_on_c, 0, 62, 78
2, 221919, Note_on_c, 0, 62, 0
2, 221985, Note_on_c, 0, 62, 84
2, 222012, Note_on_c, 0, 40, 81
2, 222091, Note_on_c, 0, 61, 82
2, 222098, Note_on_c, 0, 62, 0
2, 222149, Note_on_c, 0, 40, 0
2, 222193, Note_on_c, 0, 69, 0
2, 222202, Note_on_c, 0, 61, 0
2, 222206, Note_on_c, 0, 62, 82
2, 222294, Note_on_c, 0, 62, 0
2, 222324, Note_on_c, 0, 61, 72
2, 222391, Note_on_c, 0, 43, 88
2, 222391, Note_on_c, 0, 61, 0
2, 222391, Note_on_c, 0, 62, 73
2, 222465, Note_on_c, 0, 43, 0
2, 222484, Note_on_c, 0, 61, 81
2, 222519, Note_on_c, 0, 62, 0
2, 222577, Note_on_c, 0, 61, 0
2, 222595, Note_on_c, 0, 59, 82
2, 222695, Note_on_c, 0, 59, 0
2, 222703, Note_on_c, 0, 61, 86
2, 222783, Note_on_c, 0, 61, 0
2, 222798, Note_on_c, 0, 41, 84
2, 222817, Note_on_c, 0, 62, 89
2, 222846, Note_on_c, 0, 41, 0
2, 222910, Note_on_c, 0, 40, 79
2, 223003, Note_on_c, 0, 62, 0
2, 223007, Note_on_c, 0, 38, 83
2, 223019, Note_on_c, 0, 40, 0
2, 223233, Note_on_c, 0, 71, 83
2, 223240, Note_on_c, 0, 65, 80
2, 223265, Note_on_c, 0, 38, 0
2, 223362, Note_on_c, 0, 71, 0
2, 223380, Note_on_c, 0, 65, 0
2, 223445, Note_on_c, 0, 40, 72
2, 223516, Note_on_c, 0, 40, 0
2, 223549, Note_on_c, 0, 41, 83
2, 223605, Note_on_c, 0, 41, 0
2, 223653, Note_on_c, 0, 64, 80
2, 223658, Note_on_c, 0, 38, 84
2, 223658, Note_on_c, 0, 56, 81
2, 223747, Note_on_c, 0, 38, 0
2, 223764, Note_on_c, 0, 40, 81
2, 223838, Note_on_c, 0, 40, 0
2, 223875, Note_on_c, 0, 41, 83
2, 223892, Note_on_c, 0, 56, 0
2, 224002, Note_on_c, 0, 40, 80
2, 224002, Note_on_c, 0, 41, 0
2, 224002, Note_on_c, 0, 64, 0
2, 224113, Note_on_c, 0, 40, 0
2, 224117, Note_on_c, 0, 68, 84
2, 224129, Note_on_c, 0, 59, 81
2, 224138, Note_on_c, 0, 41, 82
2, 224206, Note_on_c, 0, 41, 0
2, 224273, Note_on_c, 0, 40, 81
2, 224438, Note_on_c, 0, 38, 83
2, 224443, Note_on_c, 0, 40, 0
2, 224488, Note_on_c, 0, 59, 0
2, 224541, Note_on_c, 0, 68, 0
2, 224640, Note_on_c, 0, 40, 84
2, 224642, Note_on_c, 0, 38, 0
2, 225021, Note_on_c, 0, 69, 81
2, 225026, Note_on_c, 0, 61, 79
2, 225037, Note_on_c, 0, 33, 75
2, 225050, Note_on_c, 0, 40, 0
2, 226718, Note_on_c, 0, 33, 0
2, 226744, Note_on_c, 0, 61, 0
2, 226744, Note_on_c, 0, 69, 0
2, 226745, End_track
0, 0, End_of_file
