0, 0, Header, 1, 2, 384
1, 0, Start_track
1, 0, Tempo, 500000
1, 0, Time_signature, 4, 2, 24, 8
1, 1, End_track
2,0,Start_track
2,0, Note_on_c, 0, 64, 101
2,47, Note_on_c, 0, 63, 26
2,88, Note_on_c, 0, 63, 0
2,183, Control_c, 0, 64, 11
2,198, Control_c, 0, 64, 43
2,214, Control_c, 0, 64, 49
2,229, Control_c, 0, 64, 54
2,244, Control_c, 0, 64, 59
2,260, Control_c, 0, 64, 63
2,265, Note_on_c, 0, 64, 0
2,275, Control_c, 0, 64, 65
2,290, Control_c, 0, 64, 66
2,305, Control_c, 0, 64, 67
2,320, Control_c, 0, 64, 69
2,336, Control_c, 0, 64, 75
2,351, Control_c, 0, 64, 81
2,366, Control_c, 0, 64, 84
2,382, Control_c, 0, 64, 84
2,397, Control_c, 0, 64, 83
2,413, Control_c, 0, 64, 81
2,427, Control_c, 0, 64, 76
2,442, Control_c, 0, 64, 69
2,458, Control_c, 0, 64, 62
2,472, Control_c, 0, 64, 58
2,487, Control_c, 0, 64, 56
2,503, Control_c, 0, 64, 54
2,518, Control_c, 0, 64, 53
2,534, Control_c, 0, 64, 52
2,548, Control_c, 0, 64, 50
2,563, Control_c, 0, 64, 49
2,579, Control_c, 0, 64, 47
2,594, Control_c, 0, 64, 40
2,609, Control_c, 0, 64, 29
2,624, Control_c, 0, 64, 12
2,639, Control_c, 0, 64, 0
2,687, Note_on_c, 0, 60, 100
2,952, Control_c, 0, 64, 27
2,966, Control_c, 0, 64, 54
2,977, Note_on_c, 0, 60, 0
2,982, Control_c, 0, 64, 61
2,997, Control_c, 0, 64, 64
2,1013, Control_c, 0, 64, 70
2,1028, Control_c, 0, 64, 84
2,1044, Control_c, 0, 64, 127
2,1105, Control_c, 0, 64, 96
2,1119, Control_c, 0, 64, 78
2,1135, Control_c, 0, 64, 67
2,1150, Control_c, 0, 64, 62
2,1165, Control_c, 0, 64, 57
2,1181, Control_c, 0, 64, 49
2,1195, Control_c, 0, 64, 34
2,1210, Control_c, 0, 64, 0
2,1393, Note_on_c, 0, 65, 102
2,1583, Control_c, 0, 64, 47
2,1598, Control_c, 0, 64, 56
2,1614, Control_c, 0, 64, 61
2,1629, Control_c, 0, 64, 65
2,1643, Note_on_c, 0, 65, 0
2,1644, Control_c, 0, 64, 74
2,1660, Control_c, 0, 64, 101
2,1675, Control_c, 0, 64, 127
2,1765, Control_c, 0, 64, 101
2,1781, Control_c, 0, 64, 86
2,1796, Control_c, 0, 64, 75
2,1810, Control_c, 0, 64, 68
2,1826, Control_c, 0, 64, 63
2,1841, Control_c, 0, 64, 54
2,1858, Control_c, 0, 64, 44
2,1873, Control_c, 0, 64, 36
2,1888, Control_c, 0, 64, 33
2,1904, Control_c, 0, 64, 32
2,1918, Control_c, 0, 64, 30
2,1979, Control_c, 0, 64, 30
2,2025, Control_c, 0, 64, 31
2,2039, Control_c, 0, 64, 33
2,2055, Control_c, 0, 64, 35
2,2070, Control_c, 0, 64, 35
2,2113, Note_on_c, 0, 56, 98
2,2177, Control_c, 0, 64, 34
2,2191, Control_c, 0, 64, 33
2,2206, Control_c, 0, 64, 30
2,2222, Control_c, 0, 64, 21
2,2237, Control_c, 0, 64, 0
2,2624, Control_c, 0, 64, 39
2,2639, Control_c, 0, 64, 53
2,2654, Control_c, 0, 64, 61
2,2669, Control_c, 0, 64, 66
2,2685, Control_c, 0, 64, 75
2,2701, Control_c, 0, 64, 92
2,2716, Control_c, 0, 64, 105
2,2732, Control_c, 0, 64, 101
2,2740, Note_on_c, 0, 56, 0
2,2747, Control_c, 0, 64, 88
2,2761, Control_c, 0, 64, 77
2,2777, Control_c, 0, 64, 69
2,2792, Control_c, 0, 64, 63
2,2806, Control_c, 0, 64, 60
2,2837, Control_c, 0, 64, 59
2,2853, Control_c, 0, 64, 58
2,2868, Control_c, 0, 64, 58
2,2882, Control_c, 0, 64, 57
2,2913, Control_c, 0, 64, 58
2,2944, Control_c, 0, 64, 57
2,2959, Control_c, 0, 64, 55
2,2975, Control_c, 0, 64, 49
2,2989, Control_c, 0, 64, 42
2,3004, Control_c, 0, 64, 40
2,3020, Control_c, 0, 64, 40
2,3042, Control_c, 0, 64, 39
2,3058, Control_c, 0, 64, 39
2,3088, Control_c, 0, 64, 38
2,3134, Control_c, 0, 64, 38
2,3179, Control_c, 0, 64, 37
2,3194, Control_c, 0, 64, 36
2,3560, Control_c, 0, 64, 38
2,3575, Control_c, 0, 64, 39
2,3669, Note_on_c, 0, 62, 89
2,3816, Note_on_c, 0, 62, 0
2,3917, Control_c, 0, 64, 39
2,3932, Control_c, 0, 64, 40
2,3947, Control_c, 0, 64, 41
2,3962, Control_c, 0, 64, 42
2,3978, Control_c, 0, 64, 42
2,4007, Control_c, 0, 64, 43
2,4007, Note_on_c, 0, 59, 83
2,4162, Note_on_c, 0, 59, 0
2,4205, Control_c, 0, 64, 42
2,4221, Control_c, 0, 64, 41
2,4236, Control_c, 0, 64, 39
2,4252, Control_c, 0, 64, 36
2,4266, Control_c, 0, 64, 30
2,4281, Control_c, 0, 64, 21
2,4297, Control_c, 0, 64, 0
2,4345, Note_on_c, 0, 64, 86
2,4503, Note_on_c, 0, 64, 0
2,4643, Note_on_c, 0, 60, 89
2,4797, Note_on_c, 0, 60, 0
2,4948, Note_on_c, 0, 57, 89
2,5086, Note_on_c, 0, 57, 0
2,5250, Note_on_c, 0, 69, 97
2,5267, Note_on_c, 0, 54, 79
2,5414, Note_on_c, 0, 54, 0
2,5588, Note_on_c, 0, 63, 95
2,5689, Note_on_c, 0, 63, 0
2,5774, Note_on_c, 0, 69, 0
2,5904, Note_on_c, 0, 67, 96
2,5916, Note_on_c, 0, 52, 79
2,5982, Note_on_c, 0, 52, 0
2,6237, Note_on_c, 0, 64, 82
2,6295, Note_on_c, 0, 67, 0
2,6314, Note_on_c, 0, 62, 80
2,6322, Note_on_c, 0, 64, 0
2,6383, Note_on_c, 0, 60, 86
2,6406, Note_on_c, 0, 62, 0
2,6454, Note_on_c, 0, 59, 71
2,6472, Note_on_c, 0, 60, 0
2,6548, Note_on_c, 0, 57, 89
2,6548, Note_on_c, 0, 72, 100
2,6573, Note_on_c, 0, 59, 0
2,6594, Note_on_c, 0, 57, 0
2,6888, Note_on_c, 0, 60, 84
2,6910, Note_on_c, 0, 72, 0
2,6958, Note_on_c, 0, 59, 85
2,6963, Note_on_c, 0, 60, 0
2,7039, Note_on_c, 0, 57, 84
2,7052, Note_on_c, 0, 59, 0
2,7095, Note_on_c, 0, 57, 0
2,7099, Note_on_c, 0, 55, 77
2,7202, Note_on_c, 0, 54, 72
2,7208, Note_on_c, 0, 55, 0
2,7210, Note_on_c, 0, 63, 100
2,7303, Note_on_c, 0, 54, 0
2,7309, Note_on_c, 0, 55, 77
2,7367, Note_on_c, 0, 55, 0
2,7383, Note_on_c, 0, 57, 83
2,7627, Note_on_c, 0, 57, 0
2,7658, Note_on_c, 0, 55, 72
2,7738, Note_on_c, 0, 54, 84
2,7741, Note_on_c, 0, 55, 0
2,7792, Note_on_c, 0, 54, 0
2,7801, Note_on_c, 0, 52, 75
2,7875, Note_on_c, 0, 51, 81
2,7940, Note_on_c, 0, 63, 0
2,7963, Note_on_c, 0, 52, 0
2,7979, Note_on_c, 0, 51, 0
2,7983, Note_on_c, 0, 53, 63
2,7988, Note_on_c, 0, 52, 60
2,8004, Note_on_c, 0, 53, 0
2,8084, Note_on_c, 0, 54, 86
2,8087, Note_on_c, 0, 52, 0
2,8339, Note_on_c, 0, 52, 72
2,8341, Note_on_c, 0, 54, 0
2,8418, Note_on_c, 0, 51, 81
2,8430, Note_on_c, 0, 52, 0
2,8497, Note_on_c, 0, 49, 74
2,8505, Note_on_c, 0, 51, 0
2,8583, Note_on_c, 0, 47, 85
2,8618, Note_on_c, 0, 49, 0
2,8903, Note_on_c, 0, 69, 97
2,9019, Note_on_c, 0, 69, 0
2,9061, Note_on_c, 0, 49, 70
2,9075, Note_on_c, 0, 47, 0
2,9145, Note_on_c, 0, 51, 79
2,9182, Note_on_c, 0, 49, 0
2,9234, Note_on_c, 0, 51, 0
2,9238, Note_on_c, 0, 52, 74
2,9238, Note_on_c, 0, 66, 92
2,9304, Note_on_c, 0, 51, 74
2,9309, Note_on_c, 0, 52, 0
2,9332, Note_on_c, 0, 66, 0
2,9387, Note_on_c, 0, 51, 0
2,9391, Note_on_c, 0, 52, 72
2,9455, Note_on_c, 0, 51, 74
2,9457, Note_on_c, 0, 52, 0
2,9537, Note_on_c, 0, 51, 0
2,9543, Note_on_c, 0, 71, 89
2,9550, Note_on_c, 0, 52, 75
2,9617, Note_on_c, 0, 71, 0
2,9629, Note_on_c, 0, 52, 0
2,9640, Note_on_c, 0, 51, 80
2,9701, Note_on_c, 0, 49, 75
2,9701, Note_on_c, 0, 51, 0
2,9773, Note_on_c, 0, 51, 75
2,9783, Note_on_c, 0, 49, 0
2,9866, Note_on_c, 0, 51, 0
2,9869, Note_on_c, 0, 67, 88
2,9876, Note_on_c, 0, 52, 73
2,9995, Note_on_c, 0, 67, 0
2,10183, Note_on_c, 0, 52, 0
2,10199, Note_on_c, 0, 64, 92
2,10269, Note_on_c, 0, 64, 0
2,10289, Note_on_c, 0, 52, 78
2,10356, Note_on_c, 0, 53, 80
2,10409, Note_on_c, 0, 52, 0
2,10441, Note_on_c, 0, 55, 79
2,10461, Note_on_c, 0, 53, 0
2,10512, Note_on_c, 0, 61, 98
2,10520, Note_on_c, 0, 55, 0
2,10525, Note_on_c, 0, 57, 84
2,10644, Note_on_c, 0, 61, 0
2,10799, Note_on_c, 0, 57, 0
2,10848, Note_on_c, 0, 69, 91
2,10926, Note_on_c, 0, 55, 77
2,10930, Note_on_c, 0, 69, 0
2,10992, Note_on_c, 0, 53, 76
2,11019, Note_on_c, 0, 55, 0
2,11076, Note_on_c, 0, 52, 79
2,11105, Note_on_c, 0, 53, 0
2,11164, Note_on_c, 0, 65, 89
2,11168, Note_on_c, 0, 52, 0
2,11170, Note_on_c, 0, 50, 73
2,11287, Note_on_c, 0, 65, 0
2,11381, Note_on_c, 0, 50, 0
2,11473, Note_on_c, 0, 62, 89
2,11550, Note_on_c, 0, 62, 0
2,11554, Note_on_c, 0, 50, 78
2,11630, Note_on_c, 0, 52, 84
2,11678, Note_on_c, 0, 50, 0
2,11698, Note_on_c, 0, 53, 81
2,11724, Note_on_c, 0, 52, 0
2,11779, Note_on_c, 0, 53, 0
2,11784, Note_on_c, 0, 55, 93
2,11784, Note_on_c, 0, 59, 89
2,11871, Note_on_c, 0, 59, 0
2,12057, Note_on_c, 0, 55, 0
2,12112, Note_on_c, 0, 67, 94
2,12183, Note_on_c, 0, 67, 0
2,12198, Note_on_c, 0, 53, 89
2,12264, Note_on_c, 0, 52, 81
2,12283, Note_on_c, 0, 53, 0
2,12350, Note_on_c, 0, 50, 84
2,12367, Note_on_c, 0, 52, 0
2,12428, Note_on_c, 0, 48, 83
2,12442, Note_on_c, 0, 64, 95
2,12464, Note_on_c, 0, 50, 0
2,12525, Note_on_c, 0, 64, 0
2,12743, Note_on_c, 0, 69, 100
2,12813, Note_on_c, 0, 69, 0
2,12924, Note_on_c, 0, 50, 93
2,12966, Note_on_c, 0, 48, 0
2,13095, Note_on_c, 0, 76, 101
2,13100, Note_on_c, 0, 52, 85
2,13130, Note_on_c, 0, 50, 0
2,13240, Note_on_c, 0, 52, 0
2,13250, Note_on_c, 0, 53, 82
2,13318, Note_on_c, 0, 52, 78
2,13323, Note_on_c, 0, 53, 0
2,13391, Note_on_c, 0, 68, 94
2,13396, Note_on_c, 0, 52, 0
2,13399, Note_on_c, 0, 50, 79
2,13488, Note_on_c, 0, 68, 0
2,13537, Note_on_c, 0, 52, 81
2,13592, Note_on_c, 0, 50, 0
2,13732, Note_on_c, 0, 72, 105
2,13735, Note_on_c, 0, 53, 83
2,13738, Note_on_c, 0, 57, 80
2,13769, Note_on_c, 0, 52, 0
2,13772, Note_on_c, 0, 57, 0
2,13778, Note_on_c, 0, 76, 0
2,13797, Note_on_c, 0, 53, 0
2,14047, Note_on_c, 0, 69, 86
2,14127, Note_on_c, 0, 69, 0
2,14130, Note_on_c, 0, 67, 84
2,14179, Note_on_c, 0, 65, 79
2,14230, Note_on_c, 0, 67, 0
2,14239, Note_on_c, 0, 72, 0
2,14252, Note_on_c, 0, 64, 81
2,14273, Note_on_c, 0, 65, 0
2,14352, Note_on_c, 0, 77, 104
2,14360, Note_on_c, 0, 62, 87
2,14385, Note_on_c, 0, 64, 0
2,14399, Note_on_c, 0, 62, 0
2,14685, Note_on_c, 0, 77, 0
2,14686, Note_on_c, 0, 65, 89
2,14763, Note_on_c, 0, 64, 82
2,14788, Note_on_c, 0, 65, 0
2,14831, Note_on_c, 0, 62, 83
2,14883, Note_on_c, 0, 64, 0
2,14906, Note_on_c, 0, 60, 79
2,14932, Note_on_c, 0, 62, 0
2,14985, Note_on_c, 0, 68, 98
2,14991, Note_on_c, 0, 59, 91
2,14992, Note_on_c, 0, 60, 0
2,15084, Note_on_c, 0, 60, 88
2,15088, Note_on_c, 0, 59, 0
2,15162, Note_on_c, 0, 62, 82
2,15191, Note_on_c, 0, 60, 0
2,15329, Note_on_c, 0, 53, 97
2,15384, Note_on_c, 0, 68, 0
2,15427, Note_on_c, 0, 60, 67
2,15433, Note_on_c, 0, 53, 0
2,15441, Note_on_c, 0, 62, 0
2,15478, Note_on_c, 0, 60, 0
2,15494, Note_on_c, 0, 57, 63
2,15527, Note_on_c, 0, 59, 12
2,15529, Note_on_c, 0, 57, 0
2,15574, Note_on_c, 0, 59, 0
2,15646, Note_on_c, 0, 56, 59
2,15649, Note_on_c, 0, 47, 93
2,15658, Note_on_c, 0, 55, 78
2,15717, Note_on_c, 0, 55, 0
2,15729, Note_on_c, 0, 57, 80
2,15742, Note_on_c, 0, 56, 0
2,15781, Note_on_c, 0, 47, 0
2,15818, Note_on_c, 0, 59, 86
2,15852, Note_on_c, 0, 57, 0
2,15991, Note_on_c, 0, 50, 99
2,16064, Note_on_c, 0, 50, 0
2,16106, Note_on_c, 0, 57, 83
2,16164, Note_on_c, 0, 59, 0
2,16173, Note_on_c, 0, 56, 86
2,16210, Note_on_c, 0, 57, 0
2,16243, Note_on_c, 0, 54, 79
2,16294, Note_on_c, 0, 56, 0
2,16326, Note_on_c, 0, 54, 0
2,16329, Note_on_c, 0, 44, 93
2,16332, Note_on_c, 0, 52, 84
2,16369, Note_on_c, 0, 50, 31
2,16370, Note_on_c, 0, 50, 0
2,16475, Note_on_c, 0, 44, 0
2,16638, Note_on_c, 0, 74, 93
2,16648, Note_on_c, 0, 47, 77
2,16733, Note_on_c, 0, 47, 0
2,16735, Note_on_c, 0, 74, 0
2,16800, Note_on_c, 0, 54, 83
2,16812, Note_on_c, 0, 52, 0
2,16888, Note_on_c, 0, 56, 71
2,16923, Note_on_c, 0, 54, 0
2,16935, Note_on_c, 0, 52, 61
2,16965, Note_on_c, 0, 71, 81
2,16974, Note_on_c, 0, 56, 0
2,16988, Note_on_c, 0, 57, 69
2,17030, Note_on_c, 0, 71, 0
2,17054, Note_on_c, 0, 56, 78
2,17059, Note_on_c, 0, 57, 0
2,17133, Note_on_c, 0, 56, 0
2,17139, Note_on_c, 0, 57, 77
2,17194, Note_on_c, 0, 56, 75
2,17195, Note_on_c, 0, 57, 0
2,17267, Note_on_c, 0, 56, 0
2,17272, Note_on_c, 0, 76, 93
2,17276, Note_on_c, 0, 57, 80
2,17340, Note_on_c, 0, 56, 81
2,17342, Note_on_c, 0, 57, 0
2,17343, Note_on_c, 0, 76, 0
2,17367, Note_on_c, 0, 52, 0
2,17409, Note_on_c, 0, 56, 0
2,17411, Note_on_c, 0, 54, 81
2,17472, Note_on_c, 0, 56, 74
2,17494, Note_on_c, 0, 54, 0
2,17528, Note_on_c, 0, 56, 0
2,17580, Note_on_c, 0, 57, 63
2,17589, Note_on_c, 0, 72, 92
2,17591, Note_on_c, 0, 45, 69
2,17671, Note_on_c, 0, 72, 0
2,17805, Note_on_c, 0, 45, 0
2,17840, Note_on_c, 0, 57, 0
2,17897, Note_on_c, 0, 69, 85
2,17949, Note_on_c, 0, 69, 0
2,17974, Note_on_c, 0, 57, 77
2,18046, Note_on_c, 0, 59, 82
2,18091, Note_on_c, 0, 57, 0
2,18119, Note_on_c, 0, 60, 82
2,18145, Note_on_c, 0, 59, 0
2,18208, Note_on_c, 0, 66, 88
2,18210, Note_on_c, 0, 60, 0
2,18224, Note_on_c, 0, 62, 89
2,18273, Note_on_c, 0, 66, 0
2,18504, Note_on_c, 0, 62, 0
2,18527, Note_on_c, 0, 74, 74
2,18536, Note_on_c, 0, 54, 65
2,18581, Note_on_c, 0, 74, 0
2,18610, Note_on_c, 0, 60, 75
2,18643, Note_on_c, 0, 54, 0
2,18683, Note_on_c, 0, 59, 66
2,18689, Note_on_c, 0, 60, 0
2,18774, Note_on_c, 0, 57, 60
2,18800, Note_on_c, 0, 59, 0
2,18862, Note_on_c, 0, 71, 76
2,18863, Note_on_c, 0, 55, 59
2,18864, Note_on_c, 0, 57, 0
2,18961, Note_on_c, 0, 71, 0
2,19077, Note_on_c, 0, 55, 0
2,19172, Note_on_c, 0, 67, 81
2,19226, Note_on_c, 0, 67, 0
2,19237, Note_on_c, 0, 55, 56
2,19298, Note_on_c, 0, 57, 76
2,19353, Note_on_c, 0, 55, 0
2,19383, Note_on_c, 0, 59, 79
2,19404, Note_on_c, 0, 57, 0
2,19460, Note_on_c, 0, 59, 0
2,19473, Note_on_c, 0, 60, 76
2,19489, Note_on_c, 0, 64, 87
2,19557, Note_on_c, 0, 64, 0
2,19781, Note_on_c, 0, 60, 0
2,19784, Note_on_c, 0, 52, 56
2,19787, Note_on_c, 0, 72, 75
2,19834, Note_on_c, 0, 72, 0
2,19855, Note_on_c, 0, 58, 65
2,19921, Note_on_c, 0, 52, 0
2,19923, Note_on_c, 0, 58, 0
2,19947, Note_on_c, 0, 57, 64
2,20020, Note_on_c, 0, 57, 0
2,20031, Note_on_c, 0, 55, 55
2,20103, Note_on_c, 0, 69, 68
2,20121, Note_on_c, 0, 53, 53
2,20123, Note_on_c, 0, 55, 0
2,20194, Note_on_c, 0, 53, 0
2,20280, Note_on_c, 0, 65, 75
2,20438, Note_on_c, 0, 71, 87
2,20447, Note_on_c, 0, 55, 61
2,20462, Note_on_c, 0, 65, 0
2,20496, Note_on_c, 0, 69, 0
2,20533, Note_on_c, 0, 55, 0
2,20575, Note_on_c, 0, 65, 77
2,20732, Note_on_c, 0, 65, 0
2,20749, Note_on_c, 0, 72, 92
2,20762, Note_on_c, 0, 57, 74
2,20763, Note_on_c, 0, 71, 0
2,20789, Note_on_c, 0, 57, 0
2,20839, Note_on_c, 0, 64, 77
2,20911, Note_on_c, 0, 65, 86
2,20932, Note_on_c, 0, 64, 0
2,20985, Note_on_c, 0, 67, 87
2,21031, Note_on_c, 0, 65, 0
2,21066, Note_on_c, 0, 69, 84
2,21070, Note_on_c, 0, 55, 81
2,21073, Note_on_c, 0, 67, 0
2,21121, Note_on_c, 0, 55, 0
2,21141, Note_on_c, 0, 67, 87
2,21208, Note_on_c, 0, 65, 88
2,21214, Note_on_c, 0, 69, 0
2,21246, Note_on_c, 0, 72, 0
2,21247, Note_on_c, 0, 67, 0
2,21289, Note_on_c, 0, 64, 87
2,21289, Note_on_c, 0, 65, 0
2,21344, Note_on_c, 0, 64, 0
2,21370, Note_on_c, 0, 62, 92
2,21373, Note_on_c, 0, 53, 81
2,21433, Note_on_c, 0, 72, 92
2,21474, Note_on_c, 0, 53, 0
2,21515, Note_on_c, 0, 74, 90
2,21567, Note_on_c, 0, 72, 0
2,21596, Note_on_c, 0, 76, 90
2,21636, Note_on_c, 0, 74, 0
2,21671, Note_on_c, 0, 50, 83
2,21685, Note_on_c, 0, 77, 101
2,21701, Note_on_c, 0, 76, 0
2,21712, Note_on_c, 0, 62, 0
2,21776, Note_on_c, 0, 76, 89
2,21795, Note_on_c, 0, 50, 0
2,21834, Note_on_c, 0, 77, 0
2,21840, Note_on_c, 0, 74, 86
2,21901, Note_on_c, 0, 76, 0
2,21909, Note_on_c, 0, 72, 91
2,21924, Note_on_c, 0, 74, 0
2,21944, Note_on_c, 0, 72, 0
2,21994, Note_on_c, 0, 55, 94
2,22002, Note_on_c, 0, 71, 99
2,22055, Note_on_c, 0, 55, 0
2,22086, Note_on_c, 0, 62, 86
2,22166, Note_on_c, 0, 64, 81
2,22177, Note_on_c, 0, 62, 0
2,22227, Note_on_c, 0, 65, 82
2,22243, Note_on_c, 0, 64, 0
2,22309, Note_on_c, 0, 53, 98
2,22319, Note_on_c, 0, 67, 84
2,22324, Note_on_c, 0, 65, 0
2,22349, Note_on_c, 0, 53, 0
2,22398, Note_on_c, 0, 65, 88
2,22456, Note_on_c, 0, 64, 86
2,22463, Note_on_c, 0, 67, 0
2,22514, Note_on_c, 0, 65, 0
2,22535, Note_on_c, 0, 62, 84
2,22553, Note_on_c, 0, 64, 0
2,22615, Note_on_c, 0, 62, 0
2,22626, Note_on_c, 0, 71, 0
2,22632, Note_on_c, 0, 52, 100
2,22633, Note_on_c, 0, 60, 96
2,22687, Note_on_c, 0, 60, 0
2,22959, Note_on_c, 0, 84, 89
2,22969, Note_on_c, 0, 55, 85
2,23031, Note_on_c, 0, 55, 0
2,23052, Note_on_c, 0, 83, 89
2,23125, Note_on_c, 0, 81, 87
2,23128, Note_on_c, 0, 84, 0
2,23201, Note_on_c, 0, 79, 89
2,23210, Note_on_c, 0, 83, 0
2,23257, Note_on_c, 0, 81, 0
2,23290, Note_on_c, 0, 60, 97
2,23290, Note_on_c, 0, 77, 105
2,23297, Note_on_c, 0, 57, 94
2,23307, Note_on_c, 0, 52, 0
2,23316, Note_on_c, 0, 79, 0
2,23333, Note_on_c, 0, 55, 46
2,23363, Note_on_c, 0, 55, 0
2,23364, Note_on_c, 0, 60, 0
2,23404, Note_on_c, 0, 77, 0
2,23605, Note_on_c, 0, 65, 96
2,23614, Note_on_c, 0, 81, 89
2,23663, Note_on_c, 0, 65, 0
2,23696, Note_on_c, 0, 57, 0
2,23704, Note_on_c, 0, 79, 88
2,23783, Note_on_c, 0, 77, 97
2,23789, Note_on_c, 0, 81, 0
2,23859, Note_on_c, 0, 79, 0
2,23863, Note_on_c, 0, 76, 92
2,23907, Note_on_c, 0, 77, 0
2,23930, Note_on_c, 0, 47, 97
2,23947, Note_on_c, 0, 74, 94
2,23956, Note_on_c, 0, 76, 0
2,24024, Note_on_c, 0, 76, 92
2,24048, Note_on_c, 0, 74, 0
2,24113, Note_on_c, 0, 77, 98
2,24137, Note_on_c, 0, 76, 0
2,24170, Note_on_c, 0, 47, 0
2,24279, Note_on_c, 0, 69, 90
2,24317, Note_on_c, 0, 69, 0
2,24360, Note_on_c, 0, 76, 82
2,24419, Note_on_c, 0, 77, 0
2,24421, Note_on_c, 0, 74, 89
2,24472, Note_on_c, 0, 76, 0
2,24495, Note_on_c, 0, 72, 85
2,24546, Note_on_c, 0, 74, 0
2,24578, Note_on_c, 0, 62, 80
2,24585, Note_on_c, 0, 71, 85
2,24590, Note_on_c, 0, 72, 0
2,24630, Note_on_c, 0, 62, 0
2,24657, Note_on_c, 0, 72, 85
2,24669, Note_on_c, 0, 71, 0
2,24735, Note_on_c, 0, 74, 79
2,24737, Note_on_c, 0, 72, 0
2,24905, Note_on_c, 0, 65, 68
2,24941, Note_on_c, 0, 65, 0
2,24980, Note_on_c, 0, 72, 69
2,25031, Note_on_c, 0, 74, 0
2,25051, Note_on_c, 0, 71, 70
2,25081, Note_on_c, 0, 72, 0
2,25130, Note_on_c, 0, 69, 68
2,25130, Note_on_c, 0, 71, 0
2,25204, Note_on_c, 0, 69, 0
2,25218, Note_on_c, 0, 59, 56
2,25229, Note_on_c, 0, 67, 66
2,25507, Note_on_c, 0, 59, 0
2,25561, Note_on_c, 0, 53, 56
2,25562, Note_on_c, 0, 62, 54
2,25667, Note_on_c, 0, 53, 0
2,25706, Note_on_c, 0, 67, 0
2,25706, Note_on_c, 0, 69, 70
2,25773, Note_on_c, 0, 71, 79
2,25776, Note_on_c, 0, 69, 0
2,25788, Note_on_c, 0, 62, 0
2,25860, Note_on_c, 0, 72, 88
2,25864, Note_on_c, 0, 65, 77
2,25867, Note_on_c, 0, 71, 0
2,25873, Note_on_c, 0, 50, 66
2,25945, Note_on_c, 0, 71, 85
2,25956, Note_on_c, 0, 72, 0
2,25959, Note_on_c, 0, 65, 0
2,26024, Note_on_c, 0, 72, 84
2,26030, Note_on_c, 0, 71, 0
2,26108, Note_on_c, 0, 71, 83
2,26115, Note_on_c, 0, 50, 0
2,26124, Note_on_c, 0, 72, 0
2,26167, Note_on_c, 0, 55, 74
2,26189, Note_on_c, 0, 72, 81
2,26192, Note_on_c, 0, 71, 0
2,26232, Note_on_c, 0, 55, 0
2,26260, Note_on_c, 0, 71, 81
2,26296, Note_on_c, 0, 72, 0
2,26328, Note_on_c, 0, 69, 81
2,26334, Note_on_c, 0, 71, 0
2,26408, Note_on_c, 0, 69, 0
2,26413, Note_on_c, 0, 71, 81
2,26498, Note_on_c, 0, 52, 63
2,26498, Note_on_c, 0, 67, 78
2,26501, Note_on_c, 0, 72, 76
2,26505, Note_on_c, 0, 71, 0
2,26553, Note_on_c, 0, 67, 0
2,26590, Note_on_c, 0, 72, 0
2,26813, Note_on_c, 0, 60, 75
2,26819, Note_on_c, 0, 52, 0
2,26866, Note_on_c, 0, 60, 0
2,26970, Note_on_c, 0, 52, 57
2,27053, Note_on_c, 0, 54, 74
2,27060, Note_on_c, 0, 52, 0
2,27128, Note_on_c, 0, 54, 0
2,27128, Note_on_c, 0, 57, 80
2,27141, Note_on_c, 0, 55, 74
2,27176, Note_on_c, 0, 57, 0
2,27196, Note_on_c, 0, 55, 0
2,27219, Note_on_c, 0, 54, 67
2,27283, Note_on_c, 0, 54, 0
2,27290, Note_on_c, 0, 55, 77
2,27359, Note_on_c, 0, 55, 0
2,27384, Note_on_c, 0, 54, 70
2,27432, Note_on_c, 0, 62, 82
2,27440, Note_on_c, 0, 54, 0
2,27450, Note_on_c, 0, 55, 78
2,27496, Note_on_c, 0, 62, 0
2,27521, Note_on_c, 0, 54, 84
2,27528, Note_on_c, 0, 55, 0
2,27592, Note_on_c, 0, 54, 0
2,27598, Note_on_c, 0, 52, 75
2,27688, Note_on_c, 0, 54, 74
2,27727, Note_on_c, 0, 52, 0
2,27765, Note_on_c, 0, 55, 81
2,27770, Note_on_c, 0, 59, 85
2,27794, Note_on_c, 0, 54, 0
2,27821, Note_on_c, 0, 55, 0
2,28071, Note_on_c, 0, 67, 93
2,28079, Note_on_c, 0, 52, 86
2,28112, Note_on_c, 0, 59, 0
2,28127, Note_on_c, 0, 52, 0
2,28143, Note_on_c, 0, 67, 0
2,28227, Note_on_c, 0, 59, 88
2,28297, Note_on_c, 0, 59, 0
2,28298, Note_on_c, 0, 61, 81
2,28373, Note_on_c, 0, 61, 0
2,28388, Note_on_c, 0, 57, 75
2,28395, Note_on_c, 0, 62, 82
2,28397, Note_on_c, 0, 64, 94
2,28454, Note_on_c, 0, 64, 0
2,28481, Note_on_c, 0, 62, 0
2,28485, Note_on_c, 0, 61, 83
2,28561, Note_on_c, 0, 61, 0
2,28565, Note_on_c, 0, 62, 79
2,28632, Note_on_c, 0, 61, 73
2,28632, Note_on_c, 0, 62, 0
2,28697, Note_on_c, 0, 61, 0
2,28709, Note_on_c, 0, 62, 79
2,28716, Note_on_c, 0, 69, 92
2,28738, Note_on_c, 0, 68, 42
2,28740, Note_on_c, 0, 68, 0
2,28769, Note_on_c, 0, 69, 0
2,28785, Note_on_c, 0, 62, 0
2,28789, Note_on_c, 0, 61, 79
2,28854, Note_on_c, 0, 61, 0
2,28858, Note_on_c, 0, 59, 83
2,28895, Note_on_c, 0, 57, 0
2,28924, Note_on_c, 0, 61, 75
2,28962, Note_on_c, 0, 59, 0
2,29026, Note_on_c, 0, 61, 0
2,29027, Note_on_c, 0, 62, 83
2,29030, Note_on_c, 0, 66, 98
2,29054, Note_on_c, 0, 62, 0
2,29347, Note_on_c, 0, 50, 95
2,29399, Note_on_c, 0, 50, 0
2,29424, Note_on_c, 0, 66, 0
2,29504, Note_on_c, 0, 66, 87
2,29574, Note_on_c, 0, 68, 91
2,29586, Note_on_c, 0, 66, 0
2,29656, Note_on_c, 0, 69, 96
2,29660, Note_on_c, 0, 47, 85
2,29666, Note_on_c, 0, 68, 0
2,29691, Note_on_c, 0, 47, 0
2,29741, Note_on_c, 0, 68, 87
2,29745, Note_on_c, 0, 69, 0
2,29817, Note_on_c, 0, 68, 0
2,29818, Note_on_c, 0, 69, 90
2,29888, Note_on_c, 0, 69, 0
2,29890, Note_on_c, 0, 68, 85
2,29971, Note_on_c, 0, 68, 0
2,29974, Note_on_c, 0, 69, 88
2,29987, Note_on_c, 0, 52, 91
2,30016, Note_on_c, 0, 52, 0
2,30042, Note_on_c, 0, 69, 0
2,30047, Note_on_c, 0, 68, 86
2,30127, Note_on_c, 0, 68, 0
2,30143, Note_on_c, 0, 66, 81
2,30216, Note_on_c, 0, 68, 75
2,30217, Note_on_c, 0, 66, 0
2,30298, Note_on_c, 0, 68, 0
2,30301, Note_on_c, 0, 48, 79
2,30305, Note_on_c, 0, 69, 79
2,30341, Note_on_c, 0, 48, 0
2,30463, Note_on_c, 0, 71, 86
2,30469, Note_on_c, 0, 69, 0
2,30543, Note_on_c, 0, 72, 84
2,30554, Note_on_c, 0, 71, 0
2,30585, Note_on_c, 0, 45, 82
2,30594, Note_on_c, 0, 72, 0
2,30605, Note_on_c, 0, 74, 90
2,30643, Note_on_c, 0, 45, 0
2,30674, Note_on_c, 0, 76, 93
2,30694, Note_on_c, 0, 74, 0
2,30756, Note_on_c, 0, 78, 87
2,30785, Note_on_c, 0, 76, 0
2,30824, Note_on_c, 0, 80, 84
2,30836, Note_on_c, 0, 78, 0
2,30913, Note_on_c, 0, 42, 85
2,30914, Note_on_c, 0, 81, 104
2,30961, Note_on_c, 0, 80, 0
2,30969, Note_on_c, 0, 42, 0
2,31086, Note_on_c, 0, 72, 75
2,31194, Note_on_c, 0, 72, 0
2,31244, Note_on_c, 0, 71, 76
2,31247, Note_on_c, 0, 51, 81
2,31282, Note_on_c, 0, 51, 0
2,31319, Note_on_c, 0, 71, 0
2,31395, Note_on_c, 0, 78, 91
2,31495, Note_on_c, 0, 81, 0
2,31551, Note_on_c, 0, 78, 0
2,31556, Note_on_c, 0, 40, 83
2,31565, Note_on_c, 0, 79, 98
2,31592, Note_on_c, 0, 40, 0
2,31749, Note_on_c, 0, 71, 80
2,31887, Note_on_c, 0, 76, 89
2,31909, Note_on_c, 0, 71, 0
2,31965, Note_on_c, 0, 74, 92
2,32023, Note_on_c, 0, 79, 0
2,32029, Note_on_c, 0, 76, 0
2,32041, Note_on_c, 0, 74, 0
2,32053, Note_on_c, 0, 72, 90
2,32126, Note_on_c, 0, 71, 84
2,32153, Note_on_c, 0, 72, 0
2,32228, Note_on_c, 0, 69, 88
2,32236, Note_on_c, 0, 84, 107
2,32239, Note_on_c, 0, 71, 0
2,32249, Note_on_c, 0, 69, 0
2,32552, Note_on_c, 0, 72, 90
2,32557, Note_on_c, 0, 84, 0
2,32638, Note_on_c, 0, 71, 85
2,32660, Note_on_c, 0, 72, 0
2,32718, Note_on_c, 0, 69, 90
2,32748, Note_on_c, 0, 71, 0
2,32795, Note_on_c, 0, 67, 78
2,32832, Note_on_c, 0, 69, 0
2,32857, Note_on_c, 0, 66, 93
2,32862, Note_on_c, 0, 67, 0
2,32866, Note_on_c, 0, 75, 91
2,32948, Note_on_c, 0, 66, 0
2,32948, Note_on_c, 0, 67, 93
2,33033, Note_on_c, 0, 69, 84
2,33049, Note_on_c, 0, 67, 0
2,33117, Note_on_c, 0, 75, 0
2,33187, Note_on_c, 0, 60, 97
2,33233, Note_on_c, 0, 60, 0
2,33242, Note_on_c, 0, 69, 0
2,33260, Note_on_c, 0, 67, 84
2,33337, Note_on_c, 0, 66, 81
2,33348, Note_on_c, 0, 67, 0
2,33415, Note_on_c, 0, 64, 80
2,33479, Note_on_c, 0, 66, 0
2,33491, Note_on_c, 0, 54, 95
2,33496, Note_on_c, 0, 63, 86
2,33500, Note_on_c, 0, 64, 0
2,33539, Note_on_c, 0, 54, 0
2,33576, Note_on_c, 0, 64, 92
2,33605, Note_on_c, 0, 63, 0
2,33664, Note_on_c, 0, 66, 87
2,33701, Note_on_c, 0, 64, 0
2,33829, Note_on_c, 0, 57, 94
2,33866, Note_on_c, 0, 57, 0
2,33900, Note_on_c, 0, 64, 82
2,33920, Note_on_c, 0, 66, 0
2,33976, Note_on_c, 0, 63, 84
2,33999, Note_on_c, 0, 64, 0
2,34050, Note_on_c, 0, 56, 11
2,34060, Note_on_c, 0, 63, 0
2,34065, Note_on_c, 0, 61, 82
2,34127, Note_on_c, 0, 56, 0
2,34141, Note_on_c, 0, 51, 87
2,34141, Note_on_c, 0, 59, 89
2,34146, Note_on_c, 0, 61, 0
2,34269, Note_on_c, 0, 51, 0
2,34454, Note_on_c, 0, 81, 93
2,34459, Note_on_c, 0, 54, 82
2,34562, Note_on_c, 0, 54, 0
2,34562, Note_on_c, 0, 81, 0
2,34617, Note_on_c, 0, 61, 78
2,34623, Note_on_c, 0, 59, 0
2,34697, Note_on_c, 0, 63, 75
2,34732, Note_on_c, 0, 61, 0
2,34757, Note_on_c, 0, 59, 58
2,34779, Note_on_c, 0, 78, 86
2,34790, Note_on_c, 0, 63, 0
2,34798, Note_on_c, 0, 64, 76
2,34843, Note_on_c, 0, 78, 0
2,34862, Note_on_c, 0, 64, 0
2,34864, Note_on_c, 0, 63, 79
2,34936, Note_on_c, 0, 63, 0
2,34943, Note_on_c, 0, 64, 75
2,34994, Note_on_c, 0, 64, 0
2,34999, Note_on_c, 0, 63, 70
2,35069, Note_on_c, 0, 63, 0
2,35078, Note_on_c, 0, 64, 76
2,35081, Note_on_c, 0, 83, 86
2,35141, Note_on_c, 0, 64, 0
2,35143, Note_on_c, 0, 63, 81
2,35143, Note_on_c, 0, 83, 0
2,35181, Note_on_c, 0, 59, 0
2,35220, Note_on_c, 0, 61, 80
2,35223, Note_on_c, 0, 63, 0
2,35277, Note_on_c, 0, 63, 75
2,35314, Note_on_c, 0, 61, 0
2,35351, Note_on_c, 0, 63, 0
2,35398, Note_on_c, 0, 79, 89
2,35399, Note_on_c, 0, 64, 60
2,35416, Note_on_c, 0, 52, 80
2,35461, Note_on_c, 0, 79, 0
2,35573, Note_on_c, 0, 64, 0
2,35588, Note_on_c, 0, 54, 44
2,35617, Note_on_c, 0, 52, 0
2,35617, Note_on_c, 0, 54, 0
2,35705, Note_on_c, 0, 76, 73
2,35773, Note_on_c, 0, 76, 0
2,35790, Note_on_c, 0, 40, 77
2,35871, Note_on_c, 0, 41, 89
2,35904, Note_on_c, 0, 40, 0
2,35936, Note_on_c, 0, 43, 86
2,35969, Note_on_c, 0, 41, 0
2,36029, Note_on_c, 0, 43, 0
2,36030, Note_on_c, 0, 45, 95
2,36038, Note_on_c, 0, 73, 91
2,36147, Note_on_c, 0, 73, 0
2,36300, Note_on_c, 0, 45, 0
2,36363, Note_on_c, 0, 81, 87
2,36425, Note_on_c, 0, 43, 83
2,36436, Note_on_c, 0, 81, 0
2,36488, Note_on_c, 0, 41, 80
2,36506, Note_on_c, 0, 43, 0
2,36566, Note_on_c, 0, 40, 74
2,36589, Note_on_c, 0, 41, 0
2,36663, Note_on_c, 0, 40, 0
2,36668, Note_on_c, 0, 38, 66
2,36674, Note_on_c, 0, 77, 95
2,36704, Note_on_c, 0, 38, 0
2,36995, Note_on_c, 0, 62, 75
2,37043, Note_on_c, 0, 62, 0
2,37058, Note_on_c, 0, 77, 0
2,37073, Note_on_c, 0, 74, 82
2,37128, Note_on_c, 0, 76, 88
2,37179, Note_on_c, 0, 74, 0
2,37206, Note_on_c, 0, 77, 90
2,37240, Note_on_c, 0, 76, 0
2,37307, Note_on_c, 0, 79, 95
2,37318, Note_on_c, 0, 59, 57
2,37326, Note_on_c, 0, 77, 0
2,37381, Note_on_c, 0, 59, 0
2,37631, Note_on_c, 0, 67, 73
2,37672, Note_on_c, 0, 79, 0
2,37676, Note_on_c, 0, 67, 0
2,37705, Note_on_c, 0, 77, 71
2,37778, Note_on_c, 0, 76, 71
2,37789, Note_on_c, 0, 77, 0
2,37847, Note_on_c, 0, 74, 72
2,37886, Note_on_c, 0, 76, 0
2,37943, Note_on_c, 0, 74, 0
2,37944, Note_on_c, 0, 64, 57
2,37956, Note_on_c, 0, 72, 77
2,38003, Note_on_c, 0, 64, 0
2,38214, Note_on_c, 0, 72, 0
2,38267, Note_on_c, 0, 57, 73
2,38302, Note_on_c, 0, 57, 0
2,38348, Note_on_c, 0, 76, 73
2,38399, Note_on_c, 0, 76, 0
2,38437, Note_on_c, 0, 77, 76
2,38498, Note_on_c, 0, 77, 0
2,38516, Note_on_c, 0, 79, 63
2,38576, Note_on_c, 0, 79, 0
2,38576, Note_on_c, 0, 81, 68
2,38587, Note_on_c, 0, 53, 65
2,38629, Note_on_c, 0, 53, 0
2,38644, Note_on_c, 0, 81, 0
2,38654, Note_on_c, 0, 82, 73
2,38723, Note_on_c, 0, 81, 69
2,38730, Note_on_c, 0, 82, 0
2,38796, Note_on_c, 0, 79, 78
2,38810, Note_on_c, 0, 81, 0
2,38867, Note_on_c, 0, 79, 0
2,38883, Note_on_c, 0, 77, 82
2,38898, Note_on_c, 0, 62, 78
2,38922, Note_on_c, 0, 62, 0
2,38950, Note_on_c, 0, 76, 85
2,38966, Note_on_c, 0, 77, 0
2,39027, Note_on_c, 0, 74, 84
2,39050, Note_on_c, 0, 76, 0
2,39091, Note_on_c, 0, 74, 0
2,39108, Note_on_c, 0, 72, 80
2,39192, Note_on_c, 0, 72, 0
2,39194, Note_on_c, 0, 71, 82
2,39197, Note_on_c, 0, 56, 83
2,39223, Note_on_c, 0, 56, 0
2,39266, Note_on_c, 0, 71, 0
2,39267, Note_on_c, 0, 72, 87
2,39341, Note_on_c, 0, 71, 86
2,39354, Note_on_c, 0, 72, 0
2,39399, Note_on_c, 0, 71, 0
2,39418, Note_on_c, 0, 69, 83
2,39490, Note_on_c, 0, 68, 84
2,39491, Note_on_c, 0, 52, 82
2,39501, Note_on_c, 0, 69, 0
2,39518, Note_on_c, 0, 52, 0
2,39570, Note_on_c, 0, 66, 85
2,39628, Note_on_c, 0, 68, 0
2,39636, Note_on_c, 0, 64, 84
2,39671, Note_on_c, 0, 66, 0
2,39709, Note_on_c, 0, 64, 0
2,39714, Note_on_c, 0, 62, 83
2,39763, Note_on_c, 0, 62, 0
2,39794, Note_on_c, 0, 60, 86
2,39797, Note_on_c, 0, 57, 81
2,39885, Note_on_c, 0, 64, 74
2,39947, Note_on_c, 0, 65, 84
2,39968, Note_on_c, 0, 64, 0
2,40017, Note_on_c, 0, 67, 89
2,40039, Note_on_c, 0, 60, 0
2,40050, Note_on_c, 0, 57, 0
2,40057, Note_on_c, 0, 65, 0
2,40103, Note_on_c, 0, 69, 94
2,40111, Note_on_c, 0, 72, 93
2,40128, Note_on_c, 0, 67, 0
2,40194, Note_on_c, 0, 67, 87
2,40235, Note_on_c, 0, 72, 0
2,40262, Note_on_c, 0, 65, 88
2,40294, Note_on_c, 0, 69, 0
2,40317, Note_on_c, 0, 67, 0
2,40341, Note_on_c, 0, 64, 84
2,40356, Note_on_c, 0, 65, 0
2,40421, Note_on_c, 0, 71, 102
2,40443, Note_on_c, 0, 64, 0
2,40445, Note_on_c, 0, 62, 83
2,40514, Note_on_c, 0, 62, 0
2,40519, Note_on_c, 0, 57, 77
2,40589, Note_on_c, 0, 59, 85
2,40628, Note_on_c, 0, 57, 0
2,40659, Note_on_c, 0, 60, 80
2,40689, Note_on_c, 0, 59, 0
2,40729, Note_on_c, 0, 60, 0
2,40741, Note_on_c, 0, 62, 81
2,40741, Note_on_c, 0, 65, 96
2,40793, Note_on_c, 0, 60, 71
2,40817, Note_on_c, 0, 62, 0
2,40847, Note_on_c, 0, 65, 0
2,40882, Note_on_c, 0, 59, 80
2,40912, Note_on_c, 0, 60, 0
2,40944, Note_on_c, 0, 59, 0
2,40954, Note_on_c, 0, 57, 85
2,41044, Note_on_c, 0, 59, 94
2,41050, Note_on_c, 0, 56, 85
2,41055, Note_on_c, 0, 57, 0
2,41107, Note_on_c, 0, 59, 0
2,41120, Note_on_c, 0, 57, 80
2,41129, Note_on_c, 0, 56, 0
2,41185, Note_on_c, 0, 56, 73
2,41203, Note_on_c, 0, 57, 0
2,41258, Note_on_c, 0, 54, 78
2,41260, Note_on_c, 0, 56, 0
2,41331, Note_on_c, 0, 54, 0
2,41355, Note_on_c, 0, 52, 81
2,41355, Note_on_c, 0, 62, 97
2,41441, Note_on_c, 0, 50, 76
2,41455, Note_on_c, 0, 52, 0
2,41502, Note_on_c, 0, 48, 81
2,41520, Note_on_c, 0, 62, 0
2,41527, Note_on_c, 0, 50, 0
2,41545, Note_on_c, 0, 47, 69
2,41581, Note_on_c, 0, 48, 0
2,41660, Note_on_c, 0, 45, 84
2,41677, Note_on_c, 0, 60, 106
2,41678, Note_on_c, 0, 47, 0
2,41708, Note_on_c, 0, 45, 0
2,41861, Note_on_c, 0, 64, 79
2,41875, Note_on_c, 0, 71, 0
2,41996, Note_on_c, 0, 69, 92
2,42014, Note_on_c, 0, 57, 83
2,42033, Note_on_c, 0, 60, 0
2,42092, Note_on_c, 0, 55, 81
2,42098, Note_on_c, 0, 57, 0
2,42153, Note_on_c, 0, 53, 82
2,42180, Note_on_c, 0, 55, 0
2,42220, Note_on_c, 0, 52, 69
2,42244, Note_on_c, 0, 53, 0
2,42298, Note_on_c, 0, 64, 0
2,42303, Note_on_c, 0, 50, 89
2,42306, Note_on_c, 0, 65, 99
2,42335, Note_on_c, 0, 52, 0
2,42341, Note_on_c, 0, 50, 0
2,42474, Note_on_c, 0, 57, 73
2,42627, Note_on_c, 0, 62, 86
2,42639, Note_on_c, 0, 53, 91
2,42711, Note_on_c, 0, 52, 82
2,42731, Note_on_c, 0, 53, 0
2,42742, Note_on_c, 0, 57, 0
2,42780, Note_on_c, 0, 50, 74
2,42820, Note_on_c, 0, 52, 0
2,42854, Note_on_c, 0, 48, 65
2,42882, Note_on_c, 0, 50, 0
2,42933, Note_on_c, 0, 56, 99
2,42942, Note_on_c, 0, 47, 79
2,42946, Note_on_c, 0, 48, 0
2,42986, Note_on_c, 0, 62, 0
2,43000, Note_on_c, 0, 65, 0
2,43010, Note_on_c, 0, 69, 0
2,43030, Note_on_c, 0, 48, 74
2,43032, Note_on_c, 0, 47, 0
2,43105, Note_on_c, 0, 50, 79
2,43122, Note_on_c, 0, 48, 0
2,43132, Note_on_c, 0, 51, 29
2,43179, Note_on_c, 0, 51, 0
2,43286, Note_on_c, 0, 77, 102
2,43348, Note_on_c, 0, 48, 71
2,43360, Note_on_c, 0, 50, 0
2,43361, Note_on_c, 0, 56, 0
2,43431, Note_on_c, 0, 47, 67
2,43434, Note_on_c, 0, 48, 0
2,43461, Note_on_c, 0, 45, 63
2,43521, Note_on_c, 0, 47, 0
2,43529, Note_on_c, 0, 77, 0
2,43550, Note_on_c, 0, 44, 83
2,43555, Note_on_c, 0, 45, 0
2,43572, Note_on_c, 0, 71, 82
2,43630, Note_on_c, 0, 45, 81
2,43636, Note_on_c, 0, 71, 0
2,43647, Note_on_c, 0, 44, 0
2,43731, Note_on_c, 0, 47, 86
2,43748, Note_on_c, 0, 45, 0
2,43895, Note_on_c, 0, 74, 95
2,43964, Note_on_c, 0, 74, 0
2,43990, Note_on_c, 0, 45, 76
2,44003, Note_on_c, 0, 47, 0
2,44055, Note_on_c, 0, 44, 74
2,44070, Note_on_c, 0, 45, 0
2,44115, Note_on_c, 0, 42, 66
2,44140, Note_on_c, 0, 44, 0
2,44214, Note_on_c, 0, 68, 91
2,44215, Note_on_c, 0, 40, 69
2,44216, Note_on_c, 0, 42, 0
2,44543, Note_on_c, 0, 62, 73
2,44572, Note_on_c, 0, 62, 0
2,44648, Note_on_c, 0, 42, 70
2,44659, Note_on_c, 0, 40, 0
2,44739, Note_on_c, 0, 44, 66
2,44747, Note_on_c, 0, 42, 0
2,44817, Note_on_c, 0, 44, 0
2,44819, Note_on_c, 0, 71, 90
2,44827, Note_on_c, 0, 59, 77
2,44836, Note_on_c, 0, 45, 63
2,44837, Note_on_c, 0, 68, 0
2,44869, Note_on_c, 0, 59, 0
2,44883, Note_on_c, 0, 45, 0
2,44902, Note_on_c, 0, 44, 61
2,44975, Note_on_c, 0, 44, 0
2,44999, Note_on_c, 0, 45, 56
2,45046, Note_on_c, 0, 45, 0
2,45065, Note_on_c, 0, 44, 61
2,45117, Note_on_c, 0, 64, 69
2,45135, Note_on_c, 0, 44, 0
2,45153, Note_on_c, 0, 45, 58
2,45187, Note_on_c, 0, 64, 0
2,45215, Note_on_c, 0, 45, 0
2,45229, Note_on_c, 0, 44, 60
2,45280, Note_on_c, 0, 44, 0
2,45295, Note_on_c, 0, 42, 66
2,45354, Note_on_c, 0, 42, 0
2,45364, Note_on_c, 0, 44, 63
2,45433, Note_on_c, 0, 44, 0
2,45462, Note_on_c, 0, 60, 73
2,45469, Note_on_c, 0, 45, 55
2,45580, Note_on_c, 0, 60, 0
2,45598, Note_on_c, 0, 71, 0
2,45806, Note_on_c, 0, 76, 74
2,45865, Note_on_c, 0, 74, 72
2,45916, Note_on_c, 0, 47, 54
2,45924, Note_on_c, 0, 76, 0
2,45931, Note_on_c, 0, 72, 84
2,45932, Note_on_c, 0, 45, 0
2,45996, Note_on_c, 0, 74, 0
2,46003, Note_on_c, 0, 47, 0
2,46009, Note_on_c, 0, 71, 77
2,46012, Note_on_c, 0, 48, 64
2,46048, Note_on_c, 0, 72, 0
2,46084, Note_on_c, 0, 48, 0
2,46094, Note_on_c, 0, 71, 0
2,46104, Note_on_c, 0, 50, 67
2,46104, Note_on_c, 0, 69, 85
2,46177, Note_on_c, 0, 50, 0
2,46188, Note_on_c, 0, 49, 61
2,46263, Note_on_c, 0, 73, 75
2,46268, Note_on_c, 0, 49, 0
2,46296, Note_on_c, 0, 50, 62
2,46339, Note_on_c, 0, 76, 80
2,46343, Note_on_c, 0, 73, 0
2,46350, Note_on_c, 0, 50, 0
2,46360, Note_on_c, 0, 69, 0
2,46362, Note_on_c, 0, 49, 59
2,46430, Note_on_c, 0, 79, 82
2,46434, Note_on_c, 0, 49, 0
2,46458, Note_on_c, 0, 50, 63
2,46461, Note_on_c, 0, 76, 0
2,46503, Note_on_c, 0, 50, 0
2,46518, Note_on_c, 0, 49, 59
2,46571, Note_on_c, 0, 49, 0
2,46589, Note_on_c, 0, 47, 64
2,46657, Note_on_c, 0, 47, 0
2,46660, Note_on_c, 0, 49, 63
2,46733, Note_on_c, 0, 49, 0
2,46763, Note_on_c, 0, 77, 74
2,46767, Note_on_c, 0, 50, 46
2,46789, Note_on_c, 0, 79, 0
2,47016, Note_on_c, 0, 77, 0
2,47058, Note_on_c, 0, 69, 73
2,47118, Note_on_c, 0, 69, 0
2,47135, Note_on_c, 0, 67, 81
2,47188, Note_on_c, 0, 52, 60
2,47194, Note_on_c, 0, 65, 84
2,47225, Note_on_c, 0, 67, 0
2,47237, Note_on_c, 0, 50, 0
2,47266, Note_on_c, 0, 64, 80
2,47277, Note_on_c, 0, 53, 69
2,47280, Note_on_c, 0, 52, 0
2,47282, Note_on_c, 0, 65, 0
2,47330, Note_on_c, 0, 64, 0
2,47345, Note_on_c, 0, 62, 75
2,47348, Note_on_c, 0, 53, 0
2,47362, Note_on_c, 0, 55, 66
2,47427, Note_on_c, 0, 55, 0
2,47445, Note_on_c, 0, 54, 64
2,47502, Note_on_c, 0, 66, 73
2,47520, Note_on_c, 0, 62, 0
2,47533, Note_on_c, 0, 54, 0
2,47548, Note_on_c, 0, 55, 60
2,47574, Note_on_c, 0, 66, 0
2,47575, Note_on_c, 0, 69, 77
2,47601, Note_on_c, 0, 55, 0
2,47609, Note_on_c, 0, 54, 56
2,47664, Note_on_c, 0, 72, 82
2,47671, Note_on_c, 0, 69, 0
2,47677, Note_on_c, 0, 54, 0
2,47694, Note_on_c, 0, 55, 67
2,47746, Note_on_c, 0, 54, 66
2,47746, Note_on_c, 0, 55, 0
2,47813, Note_on_c, 0, 54, 0
2,47816, Note_on_c, 0, 52, 67
2,47888, Note_on_c, 0, 52, 0
2,47889, Note_on_c, 0, 54, 61
2,47963, Note_on_c, 0, 54, 0
2,47964, Note_on_c, 0, 72, 0
2,47984, Note_on_c, 0, 55, 62
2,47984, Note_on_c, 0, 71, 67
2,48149, Note_on_c, 0, 74, 80
2,48160, Note_on_c, 0, 71, 0
2,48211, Note_on_c, 0, 72, 85
2,48269, Note_on_c, 0, 74, 0
2,48287, Note_on_c, 0, 71, 88
2,48320, Note_on_c, 0, 72, 0
2,48439, Note_on_c, 0, 55, 0
2,48443, Note_on_c, 0, 57, 61
2,48457, Note_on_c, 0, 72, 78
2,48515, Note_on_c, 0, 71, 0
2,48524, Note_on_c, 0, 57, 0
2,48531, Note_on_c, 0, 59, 74
2,48555, Note_on_c, 0, 74, 77
2,48581, Note_on_c, 0, 72, 0
2,48604, Note_on_c, 0, 59, 0
2,48617, Note_on_c, 0, 67, 84
2,48624, Note_on_c, 0, 60, 69
2,48628, Note_on_c, 0, 74, 0
2,48683, Note_on_c, 0, 60, 0
2,48690, Note_on_c, 0, 59, 59
2,48763, Note_on_c, 0, 59, 0
2,48776, Note_on_c, 0, 60, 71
2,48830, Note_on_c, 0, 59, 61
2,48832, Note_on_c, 0, 60, 0
2,48911, Note_on_c, 0, 59, 0
2,48928, Note_on_c, 0, 60, 74
2,48929, Note_on_c, 0, 77, 95
2,48977, Note_on_c, 0, 67, 0
2,48987, Note_on_c, 0, 59, 71
2,48991, Note_on_c, 0, 60, 0
2,49057, Note_on_c, 0, 59, 0
2,49062, Note_on_c, 0, 57, 78
2,49152, Note_on_c, 0, 59, 70
2,49156, Note_on_c, 0, 57, 0
2,49235, Note_on_c, 0, 59, 0
2,49240, Note_on_c, 0, 76, 80
2,49247, Note_on_c, 0, 60, 89
2,49346, Note_on_c, 0, 77, 0
2,49398, Note_on_c, 0, 76, 0
2,49425, Note_on_c, 0, 67, 76
2,49467, Note_on_c, 0, 67, 0
2,49494, Note_on_c, 0, 65, 93
2,49552, Note_on_c, 0, 64, 91
2,49564, Note_on_c, 0, 65, 0
2,49713, Note_on_c, 0, 62, 77
2,49723, Note_on_c, 0, 65, 85
2,49747, Note_on_c, 0, 64, 0
2,49794, Note_on_c, 0, 60, 0
2,49799, Note_on_c, 0, 64, 72
2,49807, Note_on_c, 0, 62, 0
2,49814, Note_on_c, 0, 67, 77
2,49835, Note_on_c, 0, 65, 0
2,49869, Note_on_c, 0, 60, 83
2,49888, Note_on_c, 0, 64, 0
2,49893, Note_on_c, 0, 67, 0
2,49895, Note_on_c, 0, 65, 78
2,49951, Note_on_c, 0, 64, 63
2,49961, Note_on_c, 0, 65, 0
2,50035, Note_on_c, 0, 64, 0
2,50038, Note_on_c, 0, 65, 84
2,50102, Note_on_c, 0, 64, 70
2,50107, Note_on_c, 0, 65, 0
2,50133, Note_on_c, 0, 60, 0
2,50167, Note_on_c, 0, 70, 92
2,50188, Note_on_c, 0, 64, 0
2,50189, Note_on_c, 0, 65, 81
2,50254, Note_on_c, 0, 64, 77
2,50271, Note_on_c, 0, 65, 0
2,50335, Note_on_c, 0, 64, 0
2,50337, Note_on_c, 0, 62, 79
2,50408, Note_on_c, 0, 64, 80
2,50428, Note_on_c, 0, 62, 0
2,50467, Note_on_c, 0, 70, 0
2,50470, Note_on_c, 0, 69, 98
2,50483, Note_on_c, 0, 64, 0
2,50494, Note_on_c, 0, 65, 91
2,50661, Note_on_c, 0, 69, 0
2,50666, Note_on_c, 0, 71, 83
2,50727, Note_on_c, 0, 73, 91
2,50735, Note_on_c, 0, 71, 0
2,50795, Note_on_c, 0, 74, 103
2,50796, Note_on_c, 0, 73, 0
2,50962, Note_on_c, 0, 67, 71
2,50986, Note_on_c, 0, 65, 0
2,51026, Note_on_c, 0, 69, 83
2,51043, Note_on_c, 0, 67, 0
2,51095, Note_on_c, 0, 74, 0
2,51114, Note_on_c, 0, 69, 0
2,51122, Note_on_c, 0, 81, 98
2,51127, Note_on_c, 0, 70, 94
2,51159, Note_on_c, 0, 74, 33
2,51191, Note_on_c, 0, 74, 0
2,51203, Note_on_c, 0, 69, 74
2,51225, Note_on_c, 0, 70, 0
2,51290, Note_on_c, 0, 69, 0
2,51291, Note_on_c, 0, 70, 74
2,51376, Note_on_c, 0, 69, 64
2,51389, Note_on_c, 0, 70, 0
2,51416, Note_on_c, 0, 73, 94
2,51454, Note_on_c, 0, 69, 0
2,51460, Note_on_c, 0, 70, 72
2,51533, Note_on_c, 0, 69, 75
2,51570, Note_on_c, 0, 70, 0
2,51603, Note_on_c, 0, 73, 0
2,51616, Note_on_c, 0, 67, 81
2,51617, Note_on_c, 0, 69, 0
2,51700, Note_on_c, 0, 69, 81
2,51727, Note_on_c, 0, 67, 0
2,51743, Note_on_c, 0, 81, 0
2,51762, Note_on_c, 0, 69, 0
2,51765, Note_on_c, 0, 74, 103
2,51768, Note_on_c, 0, 77, 100
2,51772, Note_on_c, 0, 70, 87
2,51799, Note_on_c, 0, 70, 0
2,51941, Note_on_c, 0, 58, 70
2,52013, Note_on_c, 0, 60, 72
2,52034, Note_on_c, 0, 58, 0
2,52083, Note_on_c, 0, 60, 0
2,52083, Note_on_c, 0, 62, 85
2,52090, Note_on_c, 0, 74, 0
2,52107, Note_on_c, 0, 77, 0
2,52139, Note_on_c, 0, 55, 22
2,52140, Note_on_c, 0, 57, 4
2,52158, Note_on_c, 0, 60, 83
2,52169, Note_on_c, 0, 62, 0
2,52174, Note_on_c, 0, 55, 0
2,52178, Note_on_c, 0, 57, 0
2,52232, Note_on_c, 0, 58, 87
2,52260, Note_on_c, 0, 60, 0
2,52299, Note_on_c, 0, 58, 0
2,52305, Note_on_c, 0, 57, 78
2,52407, Note_on_c, 0, 82, 101
2,52409, Note_on_c, 0, 55, 87
2,52412, Note_on_c, 0, 57, 0
2,52471, Note_on_c, 0, 53, 80
2,52474, Note_on_c, 0, 55, 0
2,52549, Note_on_c, 0, 55, 83
2,52564, Note_on_c, 0, 53, 0
2,52615, Note_on_c, 0, 55, 0
2,52628, Note_on_c, 0, 57, 83
2,52702, Note_on_c, 0, 57, 0
2,52707, Note_on_c, 0, 58, 72
2,52747, Note_on_c, 0, 82, 0
2,52751, Note_on_c, 0, 59, 32
2,52765, Note_on_c, 0, 58, 0
2,52769, Note_on_c, 0, 57, 80
2,52786, Note_on_c, 0, 59, 0
2,52835, Note_on_c, 0, 55, 86
2,52863, Note_on_c, 0, 57, 0
2,52906, Note_on_c, 0, 53, 79
2,52939, Note_on_c, 0, 70, 25
2,52959, Note_on_c, 0, 55, 0
2,52991, Note_on_c, 0, 53, 0
2,52994, Note_on_c, 0, 52, 73
2,52996, Note_on_c, 0, 70, 0
2,53031, Note_on_c, 0, 73, 98
2,53068, Note_on_c, 0, 53, 82
2,53110, Note_on_c, 0, 52, 0
2,53169, Note_on_c, 0, 53, 0
2,53170, Note_on_c, 0, 55, 81
2,53324, Note_on_c, 0, 70, 96
2,53392, Note_on_c, 0, 53, 77
2,53394, Note_on_c, 0, 55, 0
2,53422, Note_on_c, 0, 70, 0
2,53452, Note_on_c, 0, 53, 0
2,53461, Note_on_c, 0, 52, 81
2,53539, Note_on_c, 0, 50, 74
2,53558, Note_on_c, 0, 52, 0
2,53601, Note_on_c, 0, 49, 78
2,53607, Note_on_c, 0, 50, 0
2,53626, Note_on_c, 0, 64, 97
2,53699, Note_on_c, 0, 50, 79
2,53701, Note_on_c, 0, 49, 0
2,53739, Note_on_c, 0, 64, 0
2,53801, Note_on_c, 0, 50, 0
2,53803, Note_on_c, 0, 52, 88
2,53958, Note_on_c, 0, 67, 95
2,54036, Note_on_c, 0, 67, 0
2,54059, Note_on_c, 0, 50, 79
2,54068, Note_on_c, 0, 52, 0
2,54122, Note_on_c, 0, 49, 68
2,54158, Note_on_c, 0, 50, 0
2,54193, Note_on_c, 0, 47, 76
2,54202, Note_on_c, 0, 49, 0
2,54276, Note_on_c, 0, 61, 94
2,54287, Note_on_c, 0, 45, 86
2,54315, Note_on_c, 0, 47, 0
2,54389, Note_on_c, 0, 61, 0
2,54410, Note_on_c, 0, 73, 0
2,54597, Note_on_c, 0, 79, 90
2,54602, Note_on_c, 0, 76, 90
2,54659, Note_on_c, 0, 78, 36
2,54695, Note_on_c, 0, 78, 0
2,54700, Note_on_c, 0, 76, 0
2,54736, Note_on_c, 0, 79, 0
2,54751, Note_on_c, 0, 47, 77
2,54781, Note_on_c, 0, 45, 0
2,54832, Note_on_c, 0, 49, 73
2,54847, Note_on_c, 0, 47, 0
2,54911, Note_on_c, 0, 76, 87
2,54914, Note_on_c, 0, 49, 0
2,54914, Note_on_c, 0, 69, 93
2,54919, Note_on_c, 0, 50, 79
2,54985, Note_on_c, 0, 49, 75
2,54993, Note_on_c, 0, 50, 0
2,54995, Note_on_c, 0, 69, 0
2,55028, Note_on_c, 0, 76, 0
2,55078, Note_on_c, 0, 49, 0
2,55079, Note_on_c, 0, 50, 82
2,55156, Note_on_c, 0, 49, 73
2,55157, Note_on_c, 0, 50, 0
2,55224, Note_on_c, 0, 81, 90
2,55241, Note_on_c, 0, 49, 0
2,55247, Note_on_c, 0, 50, 85
2,55312, Note_on_c, 0, 81, 0
2,55319, Note_on_c, 0, 49, 77
2,55328, Note_on_c, 0, 50, 0
2,55382, Note_on_c, 0, 47, 81
2,55393, Note_on_c, 0, 49, 0
2,55453, Note_on_c, 0, 49, 70
2,55471, Note_on_c, 0, 47, 0
2,55541, Note_on_c, 0, 49, 0
2,55545, Note_on_c, 0, 50, 82
2,55546, Note_on_c, 0, 77, 96
2,55622, Note_on_c, 0, 77, 0
2,55626, Note_on_c, 0, 52, 84
2,55655, Note_on_c, 0, 50, 0
2,55706, Note_on_c, 0, 53, 90
2,55727, Note_on_c, 0, 52, 0
2,55867, Note_on_c, 0, 69, 91
2,55871, Note_on_c, 0, 74, 88
2,55923, Note_on_c, 0, 69, 0
2,55948, Note_on_c, 0, 74, 0
2,55961, Note_on_c, 0, 52, 78
2,55973, Note_on_c, 0, 53, 0
2,56022, Note_on_c, 0, 50, 81
2,56035, Note_on_c, 0, 52, 0
2,56110, Note_on_c, 0, 48, 78
2,56132, Note_on_c, 0, 50, 0
2,56173, Note_on_c, 0, 47, 84
2,56177, Note_on_c, 0, 62, 95
2,56178, Note_on_c, 0, 48, 0
2,56245, Note_on_c, 0, 48, 84
2,56255, Note_on_c, 0, 62, 0
2,56260, Note_on_c, 0, 47, 0
2,56332, Note_on_c, 0, 48, 0
2,56339, Note_on_c, 0, 50, 93
2,56500, Note_on_c, 0, 65, 93
2,56562, Note_on_c, 0, 65, 0
2,56615, Note_on_c, 0, 48, 83
2,56625, Note_on_c, 0, 50, 0
2,56679, Note_on_c, 0, 47, 79
2,56708, Note_on_c, 0, 48, 0
2,56737, Note_on_c, 0, 45, 75
2,56758, Note_on_c, 0, 47, 0
2,56831, Note_on_c, 0, 43, 90
2,56831, Note_on_c, 0, 59, 91
2,56847, Note_on_c, 0, 45, 0
2,56902, Note_on_c, 0, 59, 0
2,56911, Note_on_c, 0, 69, 33
2,56940, Note_on_c, 0, 69, 0
2,57151, Note_on_c, 0, 77, 98
2,57152, Note_on_c, 0, 74, 91
2,57215, Note_on_c, 0, 74, 0
2,57245, Note_on_c, 0, 77, 0
2,57285, Note_on_c, 0, 45, 71
2,57313, Note_on_c, 0, 43, 0
2,57357, Note_on_c, 0, 47, 76
2,57385, Note_on_c, 0, 45, 0
2,57427, Note_on_c, 0, 48, 68
2,57441, Note_on_c, 0, 47, 0
2,57462, Note_on_c, 0, 74, 77
2,57467, Note_on_c, 0, 67, 82
2,57505, Note_on_c, 0, 47, 73
2,57507, Note_on_c, 0, 48, 0
2,57532, Note_on_c, 0, 67, 0
2,57569, Note_on_c, 0, 74, 0
2,57588, Note_on_c, 0, 48, 73
2,57595, Note_on_c, 0, 47, 0
2,57671, Note_on_c, 0, 47, 68
2,57672, Note_on_c, 0, 48, 0
2,57772, Note_on_c, 0, 48, 77
2,57775, Note_on_c, 0, 47, 0
2,57778, Note_on_c, 0, 79, 87
2,57856, Note_on_c, 0, 79, 0
2,57859, Note_on_c, 0, 47, 79
2,57880, Note_on_c, 0, 48, 0
2,57931, Note_on_c, 0, 45, 73
2,57938, Note_on_c, 0, 47, 0
2,57999, Note_on_c, 0, 47, 64
2,58036, Note_on_c, 0, 45, 0
2,58084, Note_on_c, 0, 48, 78
2,58088, Note_on_c, 0, 76, 84
2,58105, Note_on_c, 0, 47, 0
2,58113, Note_on_c, 0, 77, 47
2,58114, Note_on_c, 0, 77, 0
2,58167, Note_on_c, 0, 76, 0
2,58271, Note_on_c, 0, 48, 0
2,58415, Note_on_c, 0, 72, 79
2,58484, Note_on_c, 0, 72, 0
2,58495, Note_on_c, 0, 60, 75
2,58560, Note_on_c, 0, 62, 84
2,58602, Note_on_c, 0, 60, 0
2,58629, Note_on_c, 0, 64, 87
2,58654, Note_on_c, 0, 62, 0
2,58721, Note_on_c, 0, 64, 0
2,58722, Note_on_c, 0, 69, 88
2,58729, Note_on_c, 0, 65, 95
2,58856, Note_on_c, 0, 69, 0
2,59000, Note_on_c, 0, 65, 0
2,59032, Note_on_c, 0, 77, 92
2,59094, Note_on_c, 0, 77, 0
2,59122, Note_on_c, 0, 64, 87
2,59191, Note_on_c, 0, 62, 78
2,59194, Note_on_c, 0, 64, 0
2,59271, Note_on_c, 0, 60, 78
2,59302, Note_on_c, 0, 62, 0
2,59350, Note_on_c, 0, 74, 87
2,59359, Note_on_c, 0, 59, 82
2,59367, Note_on_c, 0, 60, 0
2,59458, Note_on_c, 0, 74, 0
2,59542, Note_on_c, 0, 59, 0
2,59669, Note_on_c, 0, 62, 84
2,59670, Note_on_c, 0, 71, 84
2,59735, Note_on_c, 0, 62, 0
2,59739, Note_on_c, 0, 71, 0
2,59749, Note_on_c, 0, 47, 77
2,59821, Note_on_c, 0, 48, 84
2,59893, Note_on_c, 0, 47, 0
2,59896, Note_on_c, 0, 50, 87
2,59925, Note_on_c, 0, 48, 0
2,59981, Note_on_c, 0, 52, 99
2,59983, Note_on_c, 0, 50, 0
2,59999, Note_on_c, 0, 59, 94
2,60004, Note_on_c, 0, 68, 86
2,60062, Note_on_c, 0, 59, 0
2,60096, Note_on_c, 0, 68, 0
2,60263, Note_on_c, 0, 52, 0
2,60297, Note_on_c, 0, 76, 88
2,60302, Note_on_c, 0, 68, 93
2,60387, Note_on_c, 0, 68, 0
2,60393, Note_on_c, 0, 76, 0
2,60399, Note_on_c, 0, 50, 83
2,60461, Note_on_c, 0, 48, 77
2,60480, Note_on_c, 0, 50, 0
2,60518, Note_on_c, 0, 47, 79
2,60559, Note_on_c, 0, 48, 0
2,60598, Note_on_c, 0, 47, 0
2,60600, Note_on_c, 0, 69, 94
2,60601, Note_on_c, 0, 45, 88
2,60601, Note_on_c, 0, 72, 94
2,60791, Note_on_c, 0, 45, 0
2,60792, Note_on_c, 0, 47, 75
2,60855, Note_on_c, 0, 48, 80
2,60884, Note_on_c, 0, 47, 0
2,60934, Note_on_c, 0, 50, 83
2,60948, Note_on_c, 0, 48, 0
2,60991, Note_on_c, 0, 50, 0
2,60997, Note_on_c, 0, 52, 83
2,61083, Note_on_c, 0, 54, 83
2,61090, Note_on_c, 0, 52, 0
2,61151, Note_on_c, 0, 56, 86
2,61173, Note_on_c, 0, 54, 0
2,61242, Note_on_c, 0, 57, 101
2,61250, Note_on_c, 0, 56, 0
2,61303, Note_on_c, 0, 69, 0
2,61307, Note_on_c, 0, 71, 85
2,61346, Note_on_c, 0, 72, 0
2,61392, Note_on_c, 0, 69, 95
2,61439, Note_on_c, 0, 71, 0
2,61476, Note_on_c, 0, 67, 85
2,61476, Note_on_c, 0, 69, 0
2,61558, Note_on_c, 0, 65, 90
2,61580, Note_on_c, 0, 67, 0
2,61629, Note_on_c, 0, 64, 89
2,61653, Note_on_c, 0, 65, 0
2,61682, Note_on_c, 0, 64, 0
2,61713, Note_on_c, 0, 62, 84
2,61723, Note_on_c, 0, 57, 0
2,61780, Note_on_c, 0, 60, 85
2,61799, Note_on_c, 0, 62, 0
2,61843, Note_on_c, 0, 59, 19
2,61866, Note_on_c, 0, 62, 94
2,61888, Note_on_c, 0, 59, 0
2,61894, Note_on_c, 0, 60, 0
2,61928, Note_on_c, 0, 62, 0
2,61952, Note_on_c, 0, 71, 92
2,62026, Note_on_c, 0, 72, 89
2,62035, Note_on_c, 0, 71, 0
2,62094, Note_on_c, 0, 74, 83
2,62112, Note_on_c, 0, 72, 0
2,62141, Note_on_c, 0, 74, 0
2,62162, Note_on_c, 0, 59, 96
2,62163, Note_on_c, 0, 56, 82
2,62164, Note_on_c, 0, 76, 93
2,62189, Note_on_c, 0, 50, 65
2,62248, Note_on_c, 0, 78, 91
2,62255, Note_on_c, 0, 76, 0
2,62256, Note_on_c, 0, 59, 0
2,62315, Note_on_c, 0, 50, 0
2,62327, Note_on_c, 0, 80, 91
2,62329, Note_on_c, 0, 57, 93
2,62332, Note_on_c, 0, 54, 95
2,62344, Note_on_c, 0, 56, 0
2,62369, Note_on_c, 0, 78, 0
2,62404, Note_on_c, 0, 81, 82
2,62417, Note_on_c, 0, 80, 0
2,62438, Note_on_c, 0, 57, 0
2,62484, Note_on_c, 0, 54, 0
2,62484, Note_on_c, 0, 56, 96
2,62485, Note_on_c, 0, 52, 84
2,62495, Note_on_c, 0, 83, 96
2,62515, Note_on_c, 0, 81, 0
2,62573, Note_on_c, 0, 52, 0
2,62574, Note_on_c, 0, 81, 79
2,62622, Note_on_c, 0, 83, 0
2,62644, Note_on_c, 0, 80, 86
2,62689, Note_on_c, 0, 81, 0
2,62714, Note_on_c, 0, 78, 89
2,62779, Note_on_c, 0, 80, 0
2,62808, Note_on_c, 0, 76, 85
2,62810, Note_on_c, 0, 78, 0
2,62816, Note_on_c, 0, 50, 94
2,62843, Note_on_c, 0, 56, 0
2,62876, Note_on_c, 0, 50, 0
2,62884, Note_on_c, 0, 74, 89
2,62888, Note_on_c, 0, 76, 0
2,62969, Note_on_c, 0, 72, 88
2,63008, Note_on_c, 0, 74, 0
2,63044, Note_on_c, 0, 71, 83
2,63124, Note_on_c, 0, 72, 0
2,63146, Note_on_c, 0, 48, 95
2,63154, Note_on_c, 0, 76, 99
2,63156, Note_on_c, 0, 57, 94
2,63174, Note_on_c, 0, 71, 0
2,63262, Note_on_c, 0, 74, 84
2,63345, Note_on_c, 0, 72, 83
2,63350, Note_on_c, 0, 76, 0
2,63392, Note_on_c, 0, 74, 0
2,63410, Note_on_c, 0, 71, 84
2,63441, Note_on_c, 0, 72, 0
2,63479, Note_on_c, 0, 71, 0
2,63488, Note_on_c, 0, 69, 87
2,63568, Note_on_c, 0, 68, 84
2,63589, Note_on_c, 0, 69, 0
2,63596, Note_on_c, 0, 48, 0
2,63611, Note_on_c, 0, 57, 0
2,63651, Note_on_c, 0, 66, 82
2,63721, Note_on_c, 0, 68, 0
2,63726, Note_on_c, 0, 64, 81
2,63760, Note_on_c, 0, 66, 0
2,63808, Note_on_c, 0, 64, 0
2,63809, Note_on_c, 0, 53, 106
2,63819, Note_on_c, 0, 69, 101
2,63919, Note_on_c, 0, 67, 85
2,63971, Note_on_c, 0, 69, 0
2,63996, Note_on_c, 0, 65, 84
2,64035, Note_on_c, 0, 67, 0
2,64057, Note_on_c, 0, 64, 86
2,64100, Note_on_c, 0, 65, 0
2,64140, Note_on_c, 0, 62, 85
2,64142, Note_on_c, 0, 64, 0
2,64144, Note_on_c, 0, 53, 0
2,64212, Note_on_c, 0, 62, 0
2,64223, Note_on_c, 0, 60, 87
2,64302, Note_on_c, 0, 59, 82
2,64371, Note_on_c, 0, 60, 0
2,64377, Note_on_c, 0, 57, 83
2,64396, Note_on_c, 0, 59, 0
2,64444, Note_on_c, 0, 57, 0
2,64469, Note_on_c, 0, 65, 93
2,64481, Note_on_c, 0, 44, 100
2,64581, Note_on_c, 0, 64, 84
2,64645, Note_on_c, 0, 65, 0
2,64654, Note_on_c, 0, 62, 78
2,64702, Note_on_c, 0, 64, 0
2,64717, Note_on_c, 0, 60, 80
2,64754, Note_on_c, 0, 62, 0
2,64787, Note_on_c, 0, 60, 0
2,64794, Note_on_c, 0, 59, 81
2,64866, Note_on_c, 0, 59, 0
2,64871, Note_on_c, 0, 57, 76
2,64953, Note_on_c, 0, 56, 81
2,64972, Note_on_c, 0, 57, 0
2,65027, Note_on_c, 0, 54, 84
2,65055, Note_on_c, 0, 56, 0
2,65103, Note_on_c, 0, 54, 0
2,65117, Note_on_c, 0, 62, 93
2,65130, Note_on_c, 0, 44, 0
2,65204, Note_on_c, 0, 60, 84
2,65271, Note_on_c, 0, 59, 87
2,65271, Note_on_c, 0, 62, 0
2,65307, Note_on_c, 0, 60, 0
2,65341, Note_on_c, 0, 59, 0
2,65350, Note_on_c, 0, 57, 78
2,65424, Note_on_c, 0, 56, 81
2,65441, Note_on_c, 0, 57, 0
2,65490, Note_on_c, 0, 54, 86
2,65519, Note_on_c, 0, 56, 0
2,65566, Note_on_c, 0, 52, 82
2,65587, Note_on_c, 0, 54, 0
2,65639, Note_on_c, 0, 51, 86
2,65663, Note_on_c, 0, 52, 0
2,65751, Note_on_c, 0, 52, 88
2,65756, Note_on_c, 0, 51, 0
2,66105, Note_on_c, 0, 50, 75
2,66166, Note_on_c, 0, 64, 72
2,66167, Note_on_c, 0, 50, 0
2,66199, Note_on_c, 0, 52, 0
2,66245, Note_on_c, 0, 66, 83
2,66264, Note_on_c, 0, 64, 0
2,66316, Note_on_c, 0, 68, 88
2,66342, Note_on_c, 0, 66, 0
2,66406, Note_on_c, 0, 69, 91
2,66417, Note_on_c, 0, 47, 74
2,66420, Note_on_c, 0, 68, 0
2,66485, Note_on_c, 0, 47, 0
2,66487, Note_on_c, 0, 68, 91
2,66491, Note_on_c, 0, 69, 0
2,66570, Note_on_c, 0, 69, 91
2,66574, Note_on_c, 0, 68, 0
2,66643, Note_on_c, 0, 68, 86
2,66646, Note_on_c, 0, 69, 0
2,66729, Note_on_c, 0, 68, 0
2,66730, Note_on_c, 0, 69, 89
2,66744, Note_on_c, 0, 52, 83
2,66807, Note_on_c, 0, 52, 0
2,66824, Note_on_c, 0, 68, 74
2,66828, Note_on_c, 0, 69, 0
2,66903, Note_on_c, 0, 68, 0
2,66908, Note_on_c, 0, 66, 78
2,66998, Note_on_c, 0, 66, 0
2,67000, Note_on_c, 0, 68, 75
2,67061, Note_on_c, 0, 48, 79
2,67081, Note_on_c, 0, 69, 80
2,67087, Note_on_c, 0, 68, 0
2,67149, Note_on_c, 0, 48, 0
2,67408, Note_on_c, 0, 69, 0
2,67415, Note_on_c, 0, 45, 86
2,67488, Note_on_c, 0, 45, 0
2,67494, Note_on_c, 0, 59, 79
2,67576, Note_on_c, 0, 60, 83
2,67596, Note_on_c, 0, 59, 0
2,67649, Note_on_c, 0, 62, 85
2,67658, Note_on_c, 0, 60, 0
2,67697, Note_on_c, 0, 62, 0
2,67751, Note_on_c, 0, 62, 89
2,67759, Note_on_c, 0, 40, 83
2,67811, Note_on_c, 0, 40, 0
2,67843, Note_on_c, 0, 61, 85
2,67861, Note_on_c, 0, 62, 0
2,67931, Note_on_c, 0, 62, 88
2,67936, Note_on_c, 0, 61, 0
2,68021, Note_on_c, 0, 61, 84
2,68044, Note_on_c, 0, 62, 0
2,68106, Note_on_c, 0, 43, 91
2,68124, Note_on_c, 0, 62, 86
2,68137, Note_on_c, 0, 61, 0
2,68159, Note_on_c, 0, 43, 0
2,68204, Note_on_c, 0, 61, 78
2,68234, Note_on_c, 0, 62, 0
2,68292, Note_on_c, 0, 59, 81
2,68295, Note_on_c, 0, 61, 0
2,68376, Note_on_c, 0, 61, 80
2,68379, Note_on_c, 0, 59, 0
2,68479, Note_on_c, 0, 62, 87
2,68481, Note_on_c, 0, 61, 0
2,68509, Note_on_c, 0, 41, 79
2,68599, Note_on_c, 0, 40, 79
2,68613, Note_on_c, 0, 41, 0
2,68625, Note_on_c, 0, 62, 0
2,68678, Note_on_c, 0, 38, 81
2,68702, Note_on_c, 0, 40, 0
2,68909, Note_on_c, 0, 71, 88
2,68918, Note_on_c, 0, 65, 87
2,69011, Note_on_c, 0, 71, 0
2,69033, Note_on_c, 0, 65, 0
2,69109, Note_on_c, 0, 38, 0
2,69109, Note_on_c, 0, 40, 73
2,69170, Note_on_c, 0, 41, 79
2,69174, Note_on_c, 0, 40, 0
2,69237, Note_on_c, 0, 41, 0
2,69295, Note_on_c, 0, 38, 69
2,69303, Note_on_c, 0, 64, 78
2,69308, Note_on_c, 0, 56, 85
2,69400, Note_on_c, 0, 40, 76
2,69404, Note_on_c, 0, 38, 0
2,69432, Note_on_c, 0, 56, 0
2,69485, Note_on_c, 0, 64, 0
2,69495, Note_on_c, 0, 40, 0
2,69499, Note_on_c, 0, 41, 81
2,69571, Note_on_c, 0, 40, 73
2,69576, Note_on_c, 0, 41, 0
2,69695, Note_on_c, 0, 41, 77
2,69700, Note_on_c, 0, 68, 90
2,69703, Note_on_c, 0, 40, 0
2,69709, Note_on_c, 0, 59, 88
2,69822, Note_on_c, 0, 40, 72
2,69830, Note_on_c, 0, 41, 0
2,69888, Note_on_c, 0, 59, 0
2,69930, Note_on_c, 0, 68, 0
2,69955, Note_on_c, 0, 38, 74
2,69968, Note_on_c, 0, 40, 0
2,70079, Note_on_c, 0, 40, 77
2,70095, Note_on_c, 0, 38, 0
2,70428, Note_on_c, 0, 69, 72
2,70434, Note_on_c, 0, 57, 63
2,70434, Note_on_c, 0, 61, 58
2,70448, Note_on_c, 0, 33, 46
2,70468, Note_on_c, 0, 40, 0
2,72264, Note_on_c, 0, 57, 0
2,72359, Note_on_c, 0, 33, 0
2,72408, Note_on_c, 0, 69, 0
2,72461, Note_on_c, 0, 61, 0
2,72462, End_track
0, 0, End_of_file
