0, 0, Header, 1, 2, 384
1, 0, Start_track
1, 0, Tempo, 500000
1, 0, Time_signature, 4, 2, 24, 8
1, 1, End_track
2, 0, Start_track
2, 0, Program_c, 0, 0
2, 0, Control_c, 0, 64, 0
2, 122, Control_c, 0, 64, 9
2, 137, Control_c, 0, 64, 11
2, 167, Control_c, 0, 64, 12
2, 611, Control_c, 0, 64, 13
2, 657, Control_c, 0, 64, 15
2, 687, Control_c, 0, 64, 16
2, 702, Control_c, 0, 64, 17
2, 739, Note_on_c, 0, 45, 24
2, 741, Control_c, 0, 64, 17
2, 867, Note_on_c, 0, 72, 57
2, 958, Note_on_c, 0, 45, 0
2, 977, Note_on_c, 0, 74, 65
2, 1022, Note_on_c, 0, 72, 0
2, 1062, Note_on_c, 0, 76, 69
2, 1114, Note_on_c, 0, 74, 0
2, 1209, Note_on_c, 0, 77, 81
2, 1243, Note_on_c, 0, 57, 50
2, 1243, Note_on_c, 0, 76, 0
2, 1455, Note_on_c, 0, 72, 68
2, 1561, Note_on_c, 0, 77, 0
2, 1698, Note_on_c, 0, 71, 65
2, 1709, Note_on_c, 0, 56, 55
2, 1724, Note_on_c, 0, 72, 0
2, 1826, Note_on_c, 0, 57, 0
2, 1917, Note_on_c, 0, 75, 70
2, 1935, Control_c, 0, 64, 17
2, 1979, Note_on_c, 0, 71, 0
2, 2144, Note_on_c, 0, 76, 70
2, 2147, Note_on_c, 0, 55, 57
2, 2187, Note_on_c, 0, 75, 0
2, 2188, Note_on_c, 0, 56, 0
2, 2337, Control_c, 0, 64, 16
2, 2379, Note_on_c, 0, 70, 71
2, 2429, Control_c, 0, 64, 15
2, 2444, Note_on_c, 0, 76, 0
2, 2445, Control_c, 0, 64, 13
2, 2475, Control_c, 0, 64, 12
2, 2536, Control_c, 0, 64, 11
2, 2597, Control_c, 0, 64, 9
2, 2604, Note_on_c, 0, 54, 62
2, 2610, Note_on_c, 0, 69, 65
2, 2612, Control_c, 0, 64, 0
2, 2618, Note_on_c, 0, 70, 0
2, 2668, Note_on_c, 0, 55, 0
2, 2818, Note_on_c, 0, 73, 71
2, 2869, Note_on_c, 0, 69, 0
2, 3047, Note_on_c, 0, 74, 66
2, 3059, Note_on_c, 0, 53, 58
2, 3092, Note_on_c, 0, 73, 0
2, 3113, Note_on_c, 0, 54, 0
2, 3293, Note_on_c, 0, 68, 72
2, 3369, Note_on_c, 0, 74, 0
2, 3503, Note_on_c, 0, 52, 59
2, 3546, Note_on_c, 0, 53, 0
2, 3727, Note_on_c, 0, 69, 65
2, 3768, Note_on_c, 0, 68, 0
2, 3943, Note_on_c, 0, 50, 49
2, 4005, Note_on_c, 0, 52, 0
2, 4167, Note_on_c, 0, 71, 62
2, 4180, Note_on_c, 0, 69, 0
2, 4400, Note_on_c, 0, 64, 51
2, 4458, Note_on_c, 0, 71, 0
2, 4514, Note_on_c, 0, 50, 0
2, 4529, Note_on_c, 0, 48, 60
2, 4612, Note_on_c, 0, 64, 0
2, 4638, Note_on_c, 0, 50, 70
2, 4643, Note_on_c, 0, 48, 0
2, 4728, Note_on_c, 0, 52, 72
2, 4755, Note_on_c, 0, 50, 0
2, 4855, Note_on_c, 0, 69, 81
2, 4856, Note_on_c, 0, 52, 0
2, 4869, Note_on_c, 0, 53, 61
2, 5064, Note_on_c, 0, 48, 71
2, 5086, Note_on_c, 0, 53, 0
2, 5296, Note_on_c, 0, 47, 55
2, 5296, Note_on_c, 0, 68, 81
2, 5315, Note_on_c, 0, 48, 0
2, 5382, Note_on_c, 0, 69, 0
2, 5509, Note_on_c, 0, 51, 77
2, 5526, Note_on_c, 0, 47, 0
2, 5733, Note_on_c, 0, 67, 78
2, 5741, Note_on_c, 0, 52, 61
2, 5746, Note_on_c, 0, 51, 0
2, 5780, Note_on_c, 0, 68, 0
2, 5931, Note_on_c, 0, 52, 0
2, 5939, Note_on_c, 0, 46, 71
2, 6176, Note_on_c, 0, 45, 59
2, 6177, Note_on_c, 0, 66, 73
2, 6202, Note_on_c, 0, 46, 0
2, 6240, Note_on_c, 0, 67, 0
2, 6384, Note_on_c, 0, 49, 66
2, 6417, Note_on_c, 0, 45, 0
2, 6602, Note_on_c, 0, 65, 73
2, 6603, Note_on_c, 0, 50, 59
2, 6641, Note_on_c, 0, 49, 0
2, 6644, Note_on_c, 0, 66, 0
2, 6820, Note_on_c, 0, 44, 69
2, 6889, Note_on_c, 0, 50, 0
2, 7042, Note_on_c, 0, 64, 67
2, 7126, Note_on_c, 0, 65, 0
2, 7262, Note_on_c, 0, 45, 59
2, 7278, Note_on_c, 0, 44, 0
2, 7490, Note_on_c, 0, 62, 57
2, 7526, Note_on_c, 0, 64, 0
2, 7712, Note_on_c, 0, 45, 0
2, 7716, Note_on_c, 0, 47, 49
2, 7926, Note_on_c, 0, 40, 47
2, 7965, Note_on_c, 0, 47, 0
2, 8105, Note_on_c, 0, 40, 0
2, 8122, Note_on_c, 0, 62, 0
2, 8146, Note_on_c, 0, 60, 62
2, 8233, Note_on_c, 0, 60, 0
2, 8238, Note_on_c, 0, 59, 64
2, 8319, Note_on_c, 0, 59, 0
2, 8354, Note_on_c, 0, 60, 70
2, 8356, Note_on_c, 0, 45, 62
2, 8515, Note_on_c, 0, 60, 0
2, 8598, Note_on_c, 0, 69, 82
2, 8813, Note_on_c, 0, 47, 72
2, 8827, Note_on_c, 0, 45, 0
2, 9017, Note_on_c, 0, 68, 82
2, 9028, Note_on_c, 0, 69, 0
2, 9259, Note_on_c, 0, 76, 81
2, 9263, Note_on_c, 0, 49, 60
2, 9279, Note_on_c, 0, 47, 0
2, 9329, Note_on_c, 0, 68, 0
2, 9414, Note_on_c, 0, 76, 0
2, 9478, Note_on_c, 0, 67, 76
2, 9692, Note_on_c, 0, 50, 77
2, 9713, Note_on_c, 0, 49, 0
2, 9902, Note_on_c, 0, 65, 80
2, 9915, Note_on_c, 0, 67, 0
2, 10014, Note_on_c, 0, 64, 83
2, 10027, Note_on_c, 0, 65, 0
2, 10123, Note_on_c, 0, 63, 83
2, 10140, Note_on_c, 0, 47, 73
2, 10140, Note_on_c, 0, 64, 0
2, 10153, Note_on_c, 0, 50, 0
2, 10280, Note_on_c, 0, 63, 0
2, 10350, Note_on_c, 0, 71, 93
2, 10412, Control_c, 0, 64, 9
2, 10427, Control_c, 0, 64, 12
2, 10442, Control_c, 0, 64, 13
2, 10457, Control_c, 0, 64, 15
2, 10488, Control_c, 0, 64, 16
2, 10502, Control_c, 0, 64, 17
2, 10574, Note_on_c, 0, 49, 76
2, 10580, Control_c, 0, 64, 17
2, 10604, Note_on_c, 0, 47, 0
2, 10787, Note_on_c, 0, 71, 0
2, 10789, Note_on_c, 0, 70, 87
2, 10983, Control_c, 0, 64, 17
2, 11014, Note_on_c, 0, 78, 83
2, 11018, Note_on_c, 0, 51, 68
2, 11075, Control_c, 0, 64, 15
2, 11079, Note_on_c, 0, 49, 0
2, 11081, Note_on_c, 0, 70, 0
2, 11104, Control_c, 0, 64, 12
2, 11120, Control_c, 0, 64, 0
2, 11168, Note_on_c, 0, 78, 0
2, 11211, Note_on_c, 0, 69, 73
2, 11440, Note_on_c, 0, 52, 67
2, 11465, Note_on_c, 0, 51, 0
2, 11545, Note_on_c, 0, 67, 74
2, 11546, Note_on_c, 0, 69, 0
2, 11589, Note_on_c, 0, 52, 0
2, 11627, Control_c, 0, 64, 9
2, 11643, Control_c, 0, 64, 11
2, 11651, Note_on_c, 0, 69, 76
2, 11667, Note_on_c, 0, 67, 0
2, 11747, Note_on_c, 0, 69, 0
2, 11748, Note_on_c, 0, 71, 67
2, 11895, Note_on_c, 0, 64, 73
2, 11904, Note_on_c, 0, 71, 0
2, 11906, Note_on_c, 0, 72, 66
2, 11962, Control_c, 0, 64, 0
2, 12131, Note_on_c, 0, 67, 66
2, 12268, Note_on_c, 0, 72, 0
2, 12347, Note_on_c, 0, 66, 69
2, 12348, Note_on_c, 0, 63, 69
2, 12385, Note_on_c, 0, 67, 0
2, 12449, Note_on_c, 0, 64, 0
2, 12568, Note_on_c, 0, 70, 70
2, 12592, Note_on_c, 0, 66, 0
2, 12785, Note_on_c, 0, 62, 63
2, 12787, Note_on_c, 0, 71, 67
2, 12827, Note_on_c, 0, 70, 0
2, 12840, Note_on_c, 0, 63, 0
2, 13017, Note_on_c, 0, 65, 69
2, 13139, Note_on_c, 0, 71, 0
2, 13237, Note_on_c, 0, 61, 63
2, 13237, Note_on_c, 0, 64, 66
2, 13247, Note_on_c, 0, 65, 0
2, 13281, Note_on_c, 0, 62, 0
2, 13465, Note_on_c, 0, 68, 64
2, 13483, Note_on_c, 0, 64, 0
2, 13675, Note_on_c, 0, 69, 63
2, 13677, Note_on_c, 0, 60, 55
2, 13692, Note_on_c, 0, 68, 0
2, 13704, Note_on_c, 0, 61, 0
2, 13898, Note_on_c, 0, 63, 76
2, 13955, Note_on_c, 0, 69, 0
2, 14117, Note_on_c, 0, 60, 0
2, 14123, Note_on_c, 0, 59, 51
2, 14344, Note_on_c, 0, 64, 65
2, 14370, Note_on_c, 0, 63, 0
2, 14564, Note_on_c, 0, 59, 0
2, 14574, Note_on_c, 0, 57, 49
2, 14607, Control_c, 0, 64, 9
2, 14622, Control_c, 0, 64, 11
2, 14637, Control_c, 0, 64, 12
2, 14684, Control_c, 0, 64, 13
2, 14775, Note_on_c, 0, 66, 56
2, 14790, Note_on_c, 0, 64, 0
2, 14850, Control_c, 0, 64, 12
2, 14865, Control_c, 0, 64, 9
2, 14910, Control_c, 0, 64, 0
2, 15000, Note_on_c, 0, 59, 56
2, 15071, Note_on_c, 0, 57, 0
2, 15092, Note_on_c, 0, 55, 59
2, 15095, Note_on_c, 0, 59, 0
2, 15137, Note_on_c, 0, 66, 0
2, 15169, Control_c, 0, 64, 9
2, 15184, Control_c, 0, 64, 11
2, 15187, Note_on_c, 0, 57, 73
2, 15200, Control_c, 0, 64, 12
2, 15215, Control_c, 0, 64, 15
2, 15215, Note_on_c, 0, 55, 0
2, 15245, Control_c, 0, 64, 16
2, 15275, Control_c, 0, 64, 17
2, 15285, Note_on_c, 0, 59, 76
2, 15290, Control_c, 0, 64, 17
2, 15316, Note_on_c, 0, 57, 0
2, 15344, Control_c, 0, 64, 18
2, 15360, Control_c, 0, 64, 19
2, 15405, Note_on_c, 0, 59, 0
2, 15419, Note_on_c, 0, 60, 63
2, 15420, Control_c, 0, 64, 20
2, 15426, Note_on_c, 0, 76, 83
2, 15655, Note_on_c, 0, 55, 66
2, 15655, Note_on_c, 0, 60, 0
2, 15873, Note_on_c, 0, 54, 56
2, 15874, Note_on_c, 0, 75, 81
2, 15876, Note_on_c, 0, 55, 0
2, 15938, Note_on_c, 0, 76, 0
2, 16101, Note_on_c, 0, 58, 66
2, 16163, Note_on_c, 0, 54, 0
2, 16307, Note_on_c, 0, 74, 73
2, 16326, Note_on_c, 0, 59, 48
2, 16334, Note_on_c, 0, 58, 0
2, 16369, Note_on_c, 0, 75, 0
2, 16530, Note_on_c, 0, 53, 59
2, 16552, Note_on_c, 0, 59, 0
2, 16750, Note_on_c, 0, 53, 0
2, 16756, Note_on_c, 0, 52, 50
2, 16756, Note_on_c, 0, 73, 69
2, 16840, Note_on_c, 0, 74, 0
2, 16981, Note_on_c, 0, 56, 64
2, 16986, Note_on_c, 0, 52, 0
2, 17203, Note_on_c, 0, 72, 67
2, 17206, Note_on_c, 0, 57, 54
2, 17243, Note_on_c, 0, 56, 0
2, 17268, Note_on_c, 0, 73, 0
2, 17411, Note_on_c, 0, 51, 70
2, 17502, Note_on_c, 0, 57, 0
2, 17564, Control_c, 0, 64, 19
2, 17644, Note_on_c, 0, 71, 60
2, 17710, Note_on_c, 0, 72, 0
2, 17854, Note_on_c, 0, 52, 58
2, 17894, Note_on_c, 0, 51, 0
2, 18081, Note_on_c, 0, 69, 56
2, 18123, Note_on_c, 0, 71, 0
2, 18291, Note_on_c, 0, 52, 0
2, 18306, Note_on_c, 0, 54, 56
2, 18528, Note_on_c, 0, 47, 32
2, 18587, Note_on_c, 0, 54, 0
2, 18613, Control_c, 0, 64, 20
2, 18701, Note_on_c, 0, 69, 0
2, 18704, Control_c, 0, 64, 21
2, 18735, Control_c, 0, 64, 21
2, 18745, Note_on_c, 0, 47, 0
2, 18759, Note_on_c, 0, 67, 50
2, 18767, Control_c, 0, 64, 22
2, 18781, Control_c, 0, 64, 23
2, 18796, Control_c, 0, 64, 23
2, 18812, Control_c, 0, 64, 24
2, 18826, Control_c, 0, 64, 26
2, 18836, Note_on_c, 0, 67, 0
2, 18842, Control_c, 0, 64, 27
2, 18845, Note_on_c, 0, 66, 57
2, 18857, Control_c, 0, 64, 28
2, 18872, Control_c, 0, 64, 29
2, 18888, Control_c, 0, 64, 30
2, 18903, Control_c, 0, 64, 30
2, 18917, Control_c, 0, 64, 31
2, 18927, Note_on_c, 0, 66, 0
2, 18933, Control_c, 0, 64, 31
2, 18948, Control_c, 0, 64, 32
2, 18951, Note_on_c, 0, 67, 56
2, 18964, Note_on_c, 0, 52, 49
2, 18979, Control_c, 0, 64, 32
2, 18994, Control_c, 0, 64, 33
2, 19131, Control_c, 0, 64, 34
2, 19172, Note_on_c, 0, 67, 0
2, 19184, Note_on_c, 0, 76, 75
2, 19389, Note_on_c, 0, 54, 65
2, 19417, Note_on_c, 0, 52, 0
2, 19504, Control_c, 0, 64, 33
2, 19608, Note_on_c, 0, 75, 76
2, 19625, Note_on_c, 0, 76, 0
2, 19657, Control_c, 0, 64, 32
2, 19671, Control_c, 0, 64, 32
2, 19702, Control_c, 0, 64, 31
2, 19839, Note_on_c, 0, 56, 50
2, 19842, Note_on_c, 0, 83, 70
2, 19884, Control_c, 0, 64, 31
2, 19885, Note_on_c, 0, 54, 0
2, 19893, Note_on_c, 0, 75, 0
2, 19914, Control_c, 0, 64, 30
2, 19952, Control_c, 0, 64, 30
2, 19968, Control_c, 0, 64, 29
2, 19983, Control_c, 0, 64, 28
2, 19993, Note_on_c, 0, 83, 0
2, 19999, Control_c, 0, 64, 27
2, 20013, Control_c, 0, 64, 25
2, 20028, Control_c, 0, 64, 25
2, 20044, Control_c, 0, 64, 24
2, 20059, Control_c, 0, 64, 22
2, 20063, Note_on_c, 0, 74, 68
2, 20073, Control_c, 0, 64, 19
2, 20089, Control_c, 0, 64, 17
2, 20104, Control_c, 0, 64, 16
2, 20120, Control_c, 0, 64, 15
2, 20279, Note_on_c, 0, 57, 64
2, 20297, Note_on_c, 0, 56, 0
2, 20333, Control_c, 0, 64, 16
2, 20348, Control_c, 0, 64, 18
2, 20378, Control_c, 0, 64, 19
2, 20396, Note_on_c, 0, 57, 0
2, 20441, Control_c, 0, 64, 20
2, 20486, Control_c, 0, 64, 21
2, 20489, Note_on_c, 0, 45, 65
2, 20493, Note_on_c, 0, 72, 78
2, 20501, Control_c, 0, 64, 22
2, 20515, Control_c, 0, 64, 23
2, 20524, Note_on_c, 0, 74, 0
2, 20556, Note_on_c, 0, 45, 0
2, 20562, Control_c, 0, 64, 24
2, 20577, Control_c, 0, 64, 25
2, 20591, Control_c, 0, 64, 26
2, 20594, Note_on_c, 0, 71, 74
2, 20629, Note_on_c, 0, 72, 0
2, 20636, Control_c, 0, 64, 26
2, 20683, Control_c, 0, 64, 27
2, 20706, Control_c, 0, 64, 27
2, 20720, Note_on_c, 0, 72, 81
2, 20721, Control_c, 0, 64, 28
2, 20722, Note_on_c, 0, 57, 70
2, 20735, Note_on_c, 0, 71, 0
2, 20736, Control_c, 0, 64, 28
2, 20751, Control_c, 0, 64, 30
2, 20767, Control_c, 0, 64, 30
2, 20796, Control_c, 0, 64, 31
2, 20827, Control_c, 0, 64, 31
2, 20879, Note_on_c, 0, 72, 0
2, 20941, Note_on_c, 0, 69, 74
2, 21164, Note_on_c, 0, 71, 73
2, 21230, Note_on_c, 0, 69, 0
2, 21313, Control_c, 0, 64, 31
2, 21345, Note_on_c, 0, 57, 0
2, 21363, Note_on_c, 0, 56, 70
2, 21590, Note_on_c, 0, 64, 63
2, 21594, Control_c, 0, 64, 30
2, 21596, Note_on_c, 0, 73, 76
2, 21600, Note_on_c, 0, 56, 0
2, 21625, Control_c, 0, 64, 29
2, 21648, Note_on_c, 0, 71, 0
2, 21670, Control_c, 0, 64, 29
2, 21691, Note_on_c, 0, 64, 0
2, 21700, Control_c, 0, 64, 28
2, 21731, Control_c, 0, 64, 28
2, 21746, Control_c, 0, 64, 27
2, 21762, Control_c, 0, 64, 26
2, 21816, Note_on_c, 0, 55, 79
2, 21884, Control_c, 0, 64, 26
2, 21898, Control_c, 0, 64, 25
2, 21913, Control_c, 0, 64, 25
2, 21929, Control_c, 0, 64, 24
2, 21974, Control_c, 0, 64, 24
2, 22018, Note_on_c, 0, 74, 80
2, 22020, Note_on_c, 0, 73, 0
2, 22161, Note_on_c, 0, 74, 0
2, 22242, Control_c, 0, 64, 24
2, 22249, Note_on_c, 0, 62, 81
2, 22251, Note_on_c, 0, 54, 76
2, 22257, Control_c, 0, 64, 25
2, 22289, Note_on_c, 0, 55, 0
2, 22302, Control_c, 0, 64, 25
2, 22332, Control_c, 0, 64, 26
2, 22345, Note_on_c, 0, 62, 0
2, 22349, Note_on_c, 0, 52, 58
2, 22351, Note_on_c, 0, 54, 0
2, 22363, Control_c, 0, 64, 26
2, 22423, Control_c, 0, 64, 27
2, 22451, Note_on_c, 0, 74, 87
2, 22453, Note_on_c, 0, 54, 78
2, 22454, Control_c, 0, 64, 27
2, 22458, Note_on_c, 0, 52, 0
2, 22469, Control_c, 0, 64, 28
2, 22499, Control_c, 0, 64, 29
2, 22511, Note_on_c, 0, 54, 0
2, 22660, Note_on_c, 0, 50, 74
2, 22885, Note_on_c, 0, 52, 75
2, 22910, Control_c, 0, 64, 29
2, 22926, Note_on_c, 0, 50, 0
2, 23098, Note_on_c, 0, 73, 77
2, 23099, Note_on_c, 0, 74, 0
2, 23192, Control_c, 0, 64, 29
2, 23321, Note_on_c, 0, 81, 71
2, 23333, Note_on_c, 0, 54, 65
2, 23382, Note_on_c, 0, 52, 0
2, 23394, Note_on_c, 0, 73, 0
2, 23472, Note_on_c, 0, 81, 0
2, 23539, Note_on_c, 0, 72, 69
2, 23556, Control_c, 0, 64, 28
2, 23572, Control_c, 0, 64, 27
2, 23586, Control_c, 0, 64, 26
2, 23602, Control_c, 0, 64, 25
2, 23617, Control_c, 0, 64, 25
2, 23632, Control_c, 0, 64, 24
2, 23648, Control_c, 0, 64, 24
2, 23664, Control_c, 0, 64, 23
2, 23709, Control_c, 0, 64, 23
2, 23751, Note_on_c, 0, 54, 0
2, 23751, Note_on_c, 0, 55, 65
2, 23868, Note_on_c, 0, 55, 0
2, 23961, Note_on_c, 0, 43, 58
2, 23972, Note_on_c, 0, 71, 70
2, 23990, Control_c, 0, 64, 24
2, 23997, Note_on_c, 0, 72, 0
2, 24006, Control_c, 0, 64, 24
2, 24021, Control_c, 0, 64, 25
2, 24036, Control_c, 0, 64, 26
2, 24047, Note_on_c, 0, 43, 0
2, 24060, Note_on_c, 0, 69, 67
2, 24066, Control_c, 0, 64, 26
2, 24086, Note_on_c, 0, 71, 0
2, 24128, Control_c, 0, 64, 27
2, 24143, Control_c, 0, 64, 27
2, 24157, Control_c, 0, 64, 28
2, 24173, Control_c, 0, 64, 28
2, 24181, Note_on_c, 0, 55, 73
2, 24187, Note_on_c, 0, 71, 79
2, 24196, Note_on_c, 0, 69, 0
2, 24219, Control_c, 0, 64, 29
2, 24249, Control_c, 0, 64, 30
2, 24280, Control_c, 0, 64, 30
2, 24339, Note_on_c, 0, 71, 0
2, 24393, Note_on_c, 0, 67, 69
2, 24546, Control_c, 0, 64, 30
2, 24562, Control_c, 0, 64, 29
2, 24577, Control_c, 0, 64, 28
2, 24607, Control_c, 0, 64, 28
2, 24633, Note_on_c, 0, 69, 70
2, 24653, Control_c, 0, 64, 27
2, 24667, Control_c, 0, 64, 27
2, 24693, Note_on_c, 0, 67, 0
2, 24794, Note_on_c, 0, 55, 0
2, 24822, Note_on_c, 0, 54, 66
2, 24834, Control_c, 0, 64, 26
2, 24850, Control_c, 0, 64, 25
2, 24864, Control_c, 0, 64, 24
2, 24880, Control_c, 0, 64, 24
2, 24895, Control_c, 0, 64, 23
2, 24910, Control_c, 0, 64, 22
2, 24941, Control_c, 0, 64, 21
2, 24986, Control_c, 0, 64, 20
2, 25002, Control_c, 0, 64, 19
2, 25029, Note_on_c, 0, 62, 51
2, 25034, Note_on_c, 0, 54, 0
2, 25036, Note_on_c, 0, 71, 63
2, 25077, Control_c, 0, 64, 18
2, 25077, Note_on_c, 0, 69, 0
2, 25093, Control_c, 0, 64, 17
2, 25108, Control_c, 0, 64, 17
2, 25112, Note_on_c, 0, 62, 0
2, 25139, Control_c, 0, 64, 16
2, 25184, Control_c, 0, 64, 15
2, 25199, Control_c, 0, 64, 13
2, 25229, Control_c, 0, 64, 12
2, 25254, Note_on_c, 0, 53, 49
2, 25314, Control_c, 0, 64, 11
2, 25454, Note_on_c, 0, 71, 0
2, 25454, Note_on_c, 0, 72, 57
2, 25552, Note_on_c, 0, 53, 0
2, 25577, Note_on_c, 0, 52, 53
2, 25631, Control_c, 0, 64, 12
2, 25662, Control_c, 0, 64, 13
2, 25666, Note_on_c, 0, 53, 69
2, 25673, Note_on_c, 0, 72, 0
2, 25677, Control_c, 0, 64, 15
2, 25687, Note_on_c, 0, 52, 0
2, 25693, Control_c, 0, 64, 16
2, 25723, Control_c, 0, 64, 17
2, 25762, Note_on_c, 0, 55, 72
2, 25794, Note_on_c, 0, 53, 0
2, 25844, Control_c, 0, 64, 17
2, 25889, Note_on_c, 0, 84, 83
2, 25916, Note_on_c, 0, 55, 0
2, 25921, Note_on_c, 0, 57, 56
2, 26122, Note_on_c, 0, 52, 63
2, 26157, Note_on_c, 0, 57, 0
2, 26334, Note_on_c, 0, 83, 85
2, 26340, Note_on_c, 0, 52, 0
2, 26348, Note_on_c, 0, 51, 57
2, 26453, Note_on_c, 0, 84, 0
2, 26560, Note_on_c, 0, 54, 69
2, 26600, Note_on_c, 0, 51, 0
2, 26773, Note_on_c, 0, 82, 80
2, 26779, Note_on_c, 0, 55, 58
2, 26814, Note_on_c, 0, 83, 0
2, 26844, Note_on_c, 0, 54, 0
2, 26865, Control_c, 0, 64, 18
2, 26881, Control_c, 0, 64, 19
2, 26895, Control_c, 0, 64, 20
2, 26910, Control_c, 0, 64, 21
2, 26992, Note_on_c, 0, 50, 72
2, 27023, Note_on_c, 0, 55, 0
2, 27080, Control_c, 0, 64, 21
2, 27217, Note_on_c, 0, 81, 76
2, 27220, Note_on_c, 0, 49, 63
2, 27236, Note_on_c, 0, 50, 0
2, 27242, Note_on_c, 0, 82, 0
2, 27436, Note_on_c, 0, 52, 77
2, 27478, Note_on_c, 0, 49, 0
2, 27521, Control_c, 0, 64, 21
2, 27661, Note_on_c, 0, 80, 79
2, 27666, Note_on_c, 0, 52, 0
2, 27667, Note_on_c, 0, 53, 55
2, 27727, Note_on_c, 0, 81, 0
2, 27876, Note_on_c, 0, 48, 72
2, 27908, Note_on_c, 0, 53, 0
2, 27954, Control_c, 0, 64, 21
2, 27999, Control_c, 0, 64, 22
2, 28014, Control_c, 0, 64, 23
2, 28044, Control_c, 0, 64, 23
2, 28059, Control_c, 0, 64, 24
2, 28089, Control_c, 0, 64, 24
2, 28099, Note_on_c, 0, 79, 69
2, 28120, Control_c, 0, 64, 25
2, 28135, Control_c, 0, 64, 25
2, 28155, Note_on_c, 0, 80, 0
2, 28166, Control_c, 0, 64, 26
2, 28197, Control_c, 0, 64, 26
2, 28273, Control_c, 0, 64, 27
2, 28303, Note_on_c, 0, 47, 63
2, 28326, Note_on_c, 0, 48, 0
2, 28478, Control_c, 0, 64, 28
2, 28493, Control_c, 0, 64, 29
2, 28507, Control_c, 0, 64, 30
2, 28523, Control_c, 0, 64, 32
2, 28538, Control_c, 0, 64, 33
2, 28541, Note_on_c, 0, 77, 71
2, 28554, Control_c, 0, 64, 33
2, 28560, Note_on_c, 0, 79, 0
2, 28584, Control_c, 0, 64, 34
2, 28600, Control_c, 0, 64, 34
2, 28769, Note_on_c, 0, 48, 56
2, 28796, Note_on_c, 0, 47, 0
2, 28874, Control_c, 0, 64, 34
2, 28877, Note_on_c, 0, 48, 0
2, 28881, Note_on_c, 0, 50, 59
2, 28888, Control_c, 0, 64, 33
2, 28903, Control_c, 0, 64, 32
2, 28919, Control_c, 0, 64, 31
2, 28964, Control_c, 0, 64, 30
2, 28988, Note_on_c, 0, 43, 55
2, 28995, Control_c, 0, 64, 29
2, 29002, Note_on_c, 0, 50, 0
2, 29009, Control_c, 0, 64, 28
2, 29024, Control_c, 0, 64, 27
2, 29040, Control_c, 0, 64, 26
2, 29055, Control_c, 0, 64, 24
2, 29070, Control_c, 0, 64, 22
2, 29086, Control_c, 0, 64, 21
2, 29097, Note_on_c, 0, 77, 0
2, 29101, Control_c, 0, 64, 20
2, 29106, Note_on_c, 0, 71, 58
2, 29117, Control_c, 0, 64, 18
2, 29132, Control_c, 0, 64, 17
2, 29150, Note_on_c, 0, 43, 0
2, 29169, Control_c, 0, 64, 17
2, 29213, Note_on_c, 0, 72, 69
2, 29270, Note_on_c, 0, 71, 0
2, 29305, Note_on_c, 0, 74, 72
2, 29306, Control_c, 0, 64, 17
2, 29331, Note_on_c, 0, 72, 0
2, 29352, Control_c, 0, 64, 18
2, 29367, Control_c, 0, 64, 19
2, 29382, Control_c, 0, 64, 20
2, 29436, Note_on_c, 0, 55, 60
2, 29444, Note_on_c, 0, 76, 69
2, 29462, Note_on_c, 0, 74, 0
2, 29489, Control_c, 0, 64, 21
2, 29653, Note_on_c, 0, 71, 65
2, 29654, Note_on_c, 0, 76, 0
2, 29763, Control_c, 0, 64, 21
2, 29777, Control_c, 0, 64, 22
2, 29793, Control_c, 0, 64, 23
2, 29808, Control_c, 0, 64, 23
2, 29858, Note_on_c, 0, 70, 66
2, 29873, Note_on_c, 0, 54, 67
2, 29878, Note_on_c, 0, 71, 0
2, 29931, Note_on_c, 0, 55, 0
2, 30044, Control_c, 0, 64, 24
2, 30080, Note_on_c, 0, 73, 75
2, 30089, Control_c, 0, 64, 24
2, 30103, Note_on_c, 0, 70, 0
2, 30120, Control_c, 0, 64, 25
2, 30165, Control_c, 0, 64, 25
2, 30211, Control_c, 0, 64, 26
2, 30257, Control_c, 0, 64, 26
2, 30288, Note_on_c, 0, 53, 68
2, 30295, Note_on_c, 0, 74, 67
2, 30334, Note_on_c, 0, 54, 0
2, 30337, Note_on_c, 0, 73, 0
2, 30510, Note_on_c, 0, 69, 73
2, 30526, Note_on_c, 0, 74, 0
2, 30607, Control_c, 0, 64, 27
2, 30731, Note_on_c, 0, 68, 68
2, 30737, Note_on_c, 0, 52, 70
2, 30756, Note_on_c, 0, 69, 0
2, 30770, Note_on_c, 0, 53, 0
2, 30934, Note_on_c, 0, 71, 69
2, 30973, Note_on_c, 0, 68, 0
2, 31072, Control_c, 0, 64, 26
2, 31147, Control_c, 0, 64, 26
2, 31148, Note_on_c, 0, 51, 72
2, 31157, Note_on_c, 0, 72, 69
2, 31163, Control_c, 0, 64, 25
2, 31168, Note_on_c, 0, 52, 0
2, 31178, Control_c, 0, 64, 24
2, 31182, Note_on_c, 0, 71, 0
2, 31208, Control_c, 0, 64, 23
2, 31223, Control_c, 0, 64, 22
2, 31254, Control_c, 0, 64, 21
2, 31299, Control_c, 0, 64, 21
2, 31315, Control_c, 0, 64, 20
2, 31345, Control_c, 0, 64, 19
2, 31361, Control_c, 0, 64, 17
2, 31371, Note_on_c, 0, 67, 70
2, 31376, Control_c, 0, 64, 16
2, 31390, Note_on_c, 0, 72, 0
2, 31601, Note_on_c, 0, 50, 64
2, 31605, Note_on_c, 0, 51, 0
2, 31810, Note_on_c, 0, 66, 66
2, 31823, Note_on_c, 0, 67, 0
2, 32030, Note_on_c, 0, 48, 63
2, 32035, Note_on_c, 0, 50, 0
2, 32251, Note_on_c, 0, 67, 61
2, 32276, Note_on_c, 0, 66, 0
2, 32360, Note_on_c, 0, 67, 0
2, 32361, Note_on_c, 0, 69, 60
2, 32437, Note_on_c, 0, 69, 0
2, 32483, Note_on_c, 0, 62, 56
2, 32683, Control_c, 0, 64, 17
2, 32706, Note_on_c, 0, 47, 65
2, 32706, Note_on_c, 0, 48, 0
2, 32714, Control_c, 0, 64, 17
2, 32729, Control_c, 0, 64, 18
2, 32744, Control_c, 0, 64, 19
2, 32759, Control_c, 0, 64, 20
2, 32806, Note_on_c, 0, 47, 0
2, 32814, Note_on_c, 0, 45, 67
2, 32820, Control_c, 0, 64, 21
2, 32914, Note_on_c, 0, 45, 0
2, 32915, Note_on_c, 0, 47, 71
2, 32917, Note_on_c, 0, 67, 76
2, 32926, Control_c, 0, 64, 21
2, 32950, Note_on_c, 0, 62, 0
2, 32957, Control_c, 0, 64, 22
2, 32972, Control_c, 0, 64, 23
2, 32995, Control_c, 0, 64, 23
2, 33025, Control_c, 0, 64, 24
2, 33040, Control_c, 0, 64, 25
2, 33055, Note_on_c, 0, 47, 0
2, 33070, Control_c, 0, 64, 25
2, 33116, Control_c, 0, 64, 26
2, 33131, Control_c, 0, 64, 27
2, 33131, Note_on_c, 0, 55, 72
2, 33146, Control_c, 0, 64, 28
2, 33162, Control_c, 0, 64, 28
2, 33207, Control_c, 0, 64, 29
2, 33361, Note_on_c, 0, 69, 77
2, 33406, Note_on_c, 0, 67, 0
2, 33550, Note_on_c, 0, 55, 0
2, 33571, Note_on_c, 0, 54, 72
2, 33724, Control_c, 0, 64, 28
2, 33739, Control_c, 0, 64, 28
2, 33763, Control_c, 0, 64, 26
2, 33778, Control_c, 0, 64, 26
2, 33794, Control_c, 0, 64, 25
2, 33799, Note_on_c, 0, 62, 70
2, 33804, Note_on_c, 0, 54, 0
2, 33804, Note_on_c, 0, 71, 77
2, 33823, Control_c, 0, 64, 25
2, 33852, Note_on_c, 0, 69, 0
2, 33891, Note_on_c, 0, 62, 0
2, 33899, Control_c, 0, 64, 24
2, 34004, Note_on_c, 0, 53, 78
2, 34082, Control_c, 0, 64, 24
2, 34142, Control_c, 0, 64, 23
2, 34224, Note_on_c, 0, 72, 79
2, 34245, Note_on_c, 0, 71, 0
2, 34436, Note_on_c, 0, 52, 73
2, 34442, Note_on_c, 0, 53, 0
2, 34455, Note_on_c, 0, 72, 0
2, 34526, Note_on_c, 0, 50, 68
2, 34549, Note_on_c, 0, 52, 0
2, 34576, Control_c, 0, 64, 24
2, 34622, Control_c, 0, 64, 24
2, 34638, Control_c, 0, 64, 25
2, 34646, Note_on_c, 0, 69, 89
2, 34652, Control_c, 0, 64, 25
2, 34668, Control_c, 0, 64, 26
2, 34670, Note_on_c, 0, 49, 60
2, 34674, Note_on_c, 0, 50, 0
2, 34684, Control_c, 0, 64, 26
2, 34760, Note_on_c, 0, 49, 0
2, 34876, Note_on_c, 0, 57, 79
2, 34910, Control_c, 0, 64, 27
2, 35098, Note_on_c, 0, 71, 86
2, 35161, Note_on_c, 0, 69, 0
2, 35260, Note_on_c, 0, 57, 0
2, 35314, Note_on_c, 0, 56, 73
2, 35524, Note_on_c, 0, 73, 87
2, 35532, Note_on_c, 0, 64, 67
2, 35542, Control_c, 0, 64, 26
2, 35555, Note_on_c, 0, 71, 0
2, 35556, Note_on_c, 0, 56, 0
2, 35601, Note_on_c, 0, 64, 0
2, 35649, Control_c, 0, 64, 25
2, 35664, Control_c, 0, 64, 25
2, 35729, Note_on_c, 0, 55, 70
2, 35922, Control_c, 0, 64, 25
2, 35949, Note_on_c, 0, 73, 0
2, 35949, Note_on_c, 0, 74, 76
2, 35969, Control_c, 0, 64, 26
2, 36026, Note_on_c, 0, 54, 72
2, 36027, Note_on_c, 0, 55, 0
2, 36120, Note_on_c, 0, 74, 0
2, 36155, Note_on_c, 0, 55, 81
2, 36183, Note_on_c, 0, 54, 0
2, 36237, Note_on_c, 0, 55, 0
2, 36248, Note_on_c, 0, 57, 77
2, 36400, Note_on_c, 0, 62, 81
2, 36407, Note_on_c, 0, 58, 71
2, 36408, Note_on_c, 0, 57, 0
2, 36415, Control_c, 0, 64, 26
2, 36621, Note_on_c, 0, 58, 0
2, 36622, Note_on_c, 0, 53, 69
2, 36848, Note_on_c, 0, 61, 79
2, 36865, Note_on_c, 0, 52, 58
2, 36880, Control_c, 0, 64, 27
2, 36895, Control_c, 0, 64, 26
2, 36897, Note_on_c, 0, 62, 0
2, 36899, Note_on_c, 0, 53, 0
2, 36909, Control_c, 0, 64, 27
2, 37071, Note_on_c, 0, 56, 69
2, 37078, Note_on_c, 0, 52, 0
2, 37280, Note_on_c, 0, 60, 79
2, 37288, Note_on_c, 0, 56, 0
2, 37293, Note_on_c, 0, 57, 59
2, 37338, Note_on_c, 0, 61, 0
2, 37504, Note_on_c, 0, 51, 66
2, 37504, Note_on_c, 0, 57, 0
2, 37703, Note_on_c, 0, 60, 0
2, 37710, Note_on_c, 0, 59, 68
2, 37713, Note_on_c, 0, 50, 58
2, 37719, Note_on_c, 0, 51, 0
2, 37787, Control_c, 0, 64, 26
2, 37927, Note_on_c, 0, 54, 66
2, 37939, Note_on_c, 0, 50, 0
2, 37969, Control_c, 0, 64, 26
2, 38142, Note_on_c, 0, 58, 69
2, 38154, Note_on_c, 0, 55, 57
2, 38160, Note_on_c, 0, 54, 0
2, 38166, Control_c, 0, 64, 25
2, 38208, Note_on_c, 0, 59, 0
2, 38346, Note_on_c, 0, 49, 64
2, 38364, Note_on_c, 0, 55, 0
2, 38371, Control_c, 0, 64, 25
2, 38434, Control_c, 0, 64, 24
2, 38463, Control_c, 0, 64, 24
2, 38479, Control_c, 0, 64, 23
2, 38494, Control_c, 0, 64, 22
2, 38510, Control_c, 0, 64, 21
2, 38581, Note_on_c, 0, 57, 62
2, 38603, Note_on_c, 0, 58, 0
2, 38615, Control_c, 0, 64, 21
2, 38645, Control_c, 0, 64, 20
2, 38676, Control_c, 0, 64, 19
2, 38790, Note_on_c, 0, 50, 60
2, 38816, Note_on_c, 0, 49, 0
2, 38858, Control_c, 0, 64, 20
2, 39014, Note_on_c, 0, 55, 59
2, 39058, Note_on_c, 0, 57, 0
2, 39223, Note_on_c, 0, 52, 57
2, 39233, Note_on_c, 0, 50, 0
2, 39446, Note_on_c, 0, 52, 0
2, 39451, Note_on_c, 0, 45, 50
2, 39520, Control_c, 0, 64, 21
2, 39551, Control_c, 0, 64, 22
2, 39566, Control_c, 0, 64, 24
2, 39596, Control_c, 0, 64, 24
2, 39627, Control_c, 0, 64, 25
2, 39630, Note_on_c, 0, 45, 0
2, 39642, Control_c, 0, 64, 26
2, 39647, Note_on_c, 0, 55, 0
2, 39657, Control_c, 0, 64, 26
2, 39670, Note_on_c, 0, 53, 58
2, 39687, Control_c, 0, 64, 27
2, 39702, Control_c, 0, 64, 28
2, 39718, Control_c, 0, 64, 29
2, 39733, Control_c, 0, 64, 29
2, 39748, Note_on_c, 0, 53, 0
2, 39751, Note_on_c, 0, 52, 60
2, 39763, Control_c, 0, 64, 30
2, 39778, Control_c, 0, 64, 31
2, 39808, Note_on_c, 0, 52, 0
2, 39856, Note_on_c, 0, 53, 58
2, 39859, Note_on_c, 0, 50, 61
2, 39885, Control_c, 0, 64, 32
2, 39938, Control_c, 0, 64, 31
2, 40055, Note_on_c, 0, 53, 0
2, 40082, Note_on_c, 0, 62, 73
2, 40107, Control_c, 0, 64, 31
2, 40312, Note_on_c, 0, 52, 70
2, 40318, Note_on_c, 0, 50, 0
2, 40517, Control_c, 0, 64, 30
2, 40520, Note_on_c, 0, 61, 70
2, 40523, Note_on_c, 0, 62, 0
2, 40562, Control_c, 0, 64, 30
2, 40653, Control_c, 0, 64, 29
2, 40738, Note_on_c, 0, 69, 71
2, 40752, Control_c, 0, 64, 29
2, 40753, Note_on_c, 0, 54, 61
2, 40759, Note_on_c, 0, 52, 0
2, 40783, Note_on_c, 0, 61, 0
2, 40813, Control_c, 0, 64, 28
2, 40843, Control_c, 0, 64, 27
2, 40877, Note_on_c, 0, 69, 0
2, 40951, Note_on_c, 0, 60, 75
2, 41168, Note_on_c, 0, 55, 78
2, 41196, Note_on_c, 0, 54, 0
2, 41251, Control_c, 0, 64, 28
2, 41266, Control_c, 0, 64, 28
2, 41282, Control_c, 0, 64, 29
2, 41313, Control_c, 0, 64, 29
2, 41342, Control_c, 0, 64, 30
2, 41358, Control_c, 0, 64, 30
2, 41373, Control_c, 0, 64, 31
2, 41384, Note_on_c, 0, 59, 76
2, 41403, Note_on_c, 0, 60, 0
2, 41419, Control_c, 0, 64, 31
2, 41442, Control_c, 0, 64, 32
2, 41480, Note_on_c, 0, 57, 81
2, 41526, Note_on_c, 0, 59, 0
2, 41590, Note_on_c, 0, 56, 82
2, 41601, Note_on_c, 0, 52, 70
2, 41618, Note_on_c, 0, 57, 0
2, 41626, Note_on_c, 0, 55, 0
2, 41739, Note_on_c, 0, 56, 0
2, 41810, Note_on_c, 0, 64, 86
2, 42005, Control_c, 0, 64, 33
2, 42023, Note_on_c, 0, 54, 78
2, 42034, Note_on_c, 0, 52, 0
2, 42210, Control_c, 0, 64, 32
2, 42243, Note_on_c, 0, 63, 79
2, 42244, Note_on_c, 0, 64, 0
2, 42270, Control_c, 0, 64, 31
2, 42286, Control_c, 0, 64, 31
2, 42438, Control_c, 0, 64, 30
2, 42461, Note_on_c, 0, 71, 78
2, 42486, Note_on_c, 0, 56, 65
2, 42525, Note_on_c, 0, 63, 0
2, 42572, Note_on_c, 0, 54, 0
2, 42594, Note_on_c, 0, 71, 0
2, 42666, Note_on_c, 0, 62, 68
2, 42697, Control_c, 0, 64, 29
2, 42728, Control_c, 0, 64, 29
2, 42742, Control_c, 0, 64, 28
2, 42758, Control_c, 0, 64, 27
2, 42773, Control_c, 0, 64, 26
2, 42882, Note_on_c, 0, 57, 68
2, 42884, Note_on_c, 0, 56, 0
2, 42978, Note_on_c, 0, 60, 72
2, 42987, Note_on_c, 0, 57, 0
2, 43008, Control_c, 0, 64, 27
2, 43016, Note_on_c, 0, 62, 0
2, 43023, Control_c, 0, 64, 27
2, 43039, Control_c, 0, 64, 28
2, 43054, Control_c, 0, 64, 30
2, 43084, Control_c, 0, 64, 31
2, 43091, Note_on_c, 0, 45, 65
2, 43094, Note_on_c, 0, 62, 68
2, 43111, Note_on_c, 0, 60, 0
2, 43115, Control_c, 0, 64, 31
2, 43144, Control_c, 0, 64, 32
2, 43160, Control_c, 0, 64, 33
2, 43175, Control_c, 0, 64, 34
2, 43183, Note_on_c, 0, 45, 0
2, 43187, Note_on_c, 0, 64, 77
2, 43190, Control_c, 0, 64, 34
2, 43199, Note_on_c, 0, 62, 0
2, 43333, Note_on_c, 0, 57, 72
2, 43335, Note_on_c, 0, 65, 74
2, 43345, Note_on_c, 0, 64, 0
2, 43495, Control_c, 0, 64, 34
2, 43541, Control_c, 0, 64, 33
2, 43554, Note_on_c, 0, 60, 71
2, 43613, Note_on_c, 0, 65, 0
2, 43781, Note_on_c, 0, 56, 70
2, 43791, Note_on_c, 0, 60, 0
2, 43798, Note_on_c, 0, 59, 67
2, 43858, Note_on_c, 0, 57, 0
2, 44000, Note_on_c, 0, 63, 68
2, 44024, Note_on_c, 0, 59, 0
2, 44204, Note_on_c, 0, 55, 64
2, 44210, Note_on_c, 0, 64, 62
2, 44233, Control_c, 0, 64, 33
2, 44238, Note_on_c, 0, 56, 0
2, 44243, Note_on_c, 0, 63, 0
2, 44248, Control_c, 0, 64, 32
2, 44263, Control_c, 0, 64, 32
2, 44308, Control_c, 0, 64, 31
2, 44423, Note_on_c, 0, 58, 65
2, 44480, Note_on_c, 0, 64, 0
2, 44629, Note_on_c, 0, 54, 64
2, 44641, Note_on_c, 0, 57, 64
2, 44646, Note_on_c, 0, 58, 0
2, 44678, Note_on_c, 0, 55, 0
2, 44696, Control_c, 0, 64, 31
2, 44855, Note_on_c, 0, 61, 66
2, 44910, Note_on_c, 0, 57, 0
2, 45073, Note_on_c, 0, 53, 50
2, 45078, Note_on_c, 0, 62, 64
2, 45123, Note_on_c, 0, 54, 0
2, 45141, Note_on_c, 0, 61, 0
2, 45244, Control_c, 0, 64, 30
2, 45309, Note_on_c, 0, 56, 70
2, 45313, Control_c, 0, 64, 30
2, 45433, Note_on_c, 0, 62, 0
2, 45544, Note_on_c, 0, 52, 54
2, 45551, Note_on_c, 0, 53, 0
2, 45750, Note_on_c, 0, 57, 64
2, 45827, Note_on_c, 0, 56, 0
2, 45968, Note_on_c, 0, 50, 51
2, 45999, Note_on_c, 0, 52, 0
2, 46176, Note_on_c, 0, 57, 0
2, 46184, Note_on_c, 0, 59, 53
2, 46187, Control_c, 0, 64, 29
2, 46248, Control_c, 0, 64, 29
2, 46395, Note_on_c, 0, 52, 53
2, 46546, Note_on_c, 0, 52, 0
2, 46565, Note_on_c, 0, 59, 0
2, 46584, Note_on_c, 0, 50, 0
2, 46596, Note_on_c, 0, 48, 66
2, 46693, Note_on_c, 0, 48, 0
2, 46701, Note_on_c, 0, 47, 62
2, 46803, Note_on_c, 0, 47, 0
2, 46819, Note_on_c, 0, 64, 77
2, 46843, Note_on_c, 0, 48, 56
2, 46849, Control_c, 0, 64, 29
2, 46946, Note_on_c, 0, 48, 0
2, 47053, Note_on_c, 0, 52, 70
2, 47213, Control_c, 0, 64, 30
2, 47264, Note_on_c, 0, 66, 79
2, 47289, Control_c, 0, 64, 30
2, 47319, Note_on_c, 0, 64, 0
2, 47320, Control_c, 0, 64, 31
2, 47349, Control_c, 0, 64, 31
2, 47365, Control_c, 0, 64, 32
2, 47396, Control_c, 0, 64, 32
2, 47426, Control_c, 0, 64, 33
2, 47442, Control_c, 0, 64, 33
2, 47473, Note_on_c, 0, 51, 76
2, 47474, Note_on_c, 0, 52, 0
2, 47488, Control_c, 0, 64, 34
2, 47678, Control_c, 0, 64, 34
2, 47709, Note_on_c, 0, 68, 86
2, 47715, Note_on_c, 0, 59, 62
2, 47726, Note_on_c, 0, 51, 0
2, 47747, Note_on_c, 0, 66, 0
2, 47790, Note_on_c, 0, 59, 0
2, 47858, Control_c, 0, 64, 34
2, 47916, Note_on_c, 0, 50, 72
2, 47949, Control_c, 0, 64, 33
2, 47980, Control_c, 0, 64, 32
2, 47996, Control_c, 0, 64, 32
2, 48011, Control_c, 0, 64, 31
2, 48026, Control_c, 0, 64, 30
2, 48056, Control_c, 0, 64, 29
2, 48071, Control_c, 0, 64, 28
2, 48109, Note_on_c, 0, 69, 76
2, 48133, Note_on_c, 0, 68, 0
2, 48178, Control_c, 0, 64, 28
2, 48277, Note_on_c, 0, 69, 0
2, 48331, Control_c, 0, 64, 28
2, 48334, Note_on_c, 0, 57, 68
2, 48346, Note_on_c, 0, 49, 67
2, 48368, Note_on_c, 0, 50, 0
2, 48399, Control_c, 0, 64, 29
2, 48414, Control_c, 0, 64, 29
2, 48445, Control_c, 0, 64, 30
2, 48451, Note_on_c, 0, 49, 0
2, 48457, Note_on_c, 0, 47, 61
2, 48476, Control_c, 0, 64, 30
2, 48485, Note_on_c, 0, 57, 0
2, 48551, Note_on_c, 0, 69, 88
2, 48570, Note_on_c, 0, 47, 0
2, 48573, Note_on_c, 0, 49, 66
2, 48649, Note_on_c, 0, 49, 0
2, 48763, Control_c, 0, 64, 31
2, 48766, Note_on_c, 0, 45, 71
2, 48809, Control_c, 0, 64, 31
2, 48840, Control_c, 0, 64, 32
2, 48976, Control_c, 0, 64, 32
2, 48982, Note_on_c, 0, 47, 81
2, 48991, Control_c, 0, 64, 33
2, 49007, Control_c, 0, 64, 33
2, 49010, Note_on_c, 0, 45, 0
2, 49022, Control_c, 0, 64, 34
2, 49190, Note_on_c, 0, 69, 0
2, 49205, Note_on_c, 0, 68, 77
2, 49243, Control_c, 0, 64, 34
2, 49394, Control_c, 0, 64, 35
2, 49409, Control_c, 0, 64, 35
2, 49414, Note_on_c, 0, 76, 81
2, 49419, Note_on_c, 0, 49, 58
2, 49424, Control_c, 0, 64, 36
2, 49464, Note_on_c, 0, 47, 0
2, 49482, Note_on_c, 0, 68, 0
2, 49485, Control_c, 0, 64, 37
2, 49516, Control_c, 0, 64, 37
2, 49572, Note_on_c, 0, 76, 0
2, 49607, Control_c, 0, 64, 37
2, 49622, Control_c, 0, 64, 36
2, 49628, Note_on_c, 0, 67, 77
2, 49638, Control_c, 0, 64, 35
2, 49653, Control_c, 0, 64, 34
2, 49667, Control_c, 0, 64, 34
2, 49683, Control_c, 0, 64, 33
2, 49698, Control_c, 0, 64, 31
2, 49714, Control_c, 0, 64, 29
2, 49728, Control_c, 0, 64, 28
2, 49743, Control_c, 0, 64, 27
2, 49774, Control_c, 0, 64, 27
2, 49838, Note_on_c, 0, 49, 0
2, 49842, Note_on_c, 0, 50, 76
2, 49889, Control_c, 0, 64, 27
2, 49903, Control_c, 0, 64, 28
2, 49919, Control_c, 0, 64, 29
2, 49934, Control_c, 0, 64, 29
2, 49939, Note_on_c, 0, 50, 0
2, 49949, Control_c, 0, 64, 30
2, 49980, Control_c, 0, 64, 31
2, 49995, Control_c, 0, 64, 31
2, 50010, Control_c, 0, 64, 32
2, 50025, Control_c, 0, 64, 33
2, 50041, Control_c, 0, 64, 33
2, 50056, Control_c, 0, 64, 34
2, 50059, Note_on_c, 0, 66, 76
2, 50064, Note_on_c, 0, 38, 58
2, 50071, Control_c, 0, 64, 35
2, 50087, Control_c, 0, 64, 36
2, 50095, Note_on_c, 0, 67, 0
2, 50102, Control_c, 0, 64, 36
2, 50118, Control_c, 0, 64, 37
2, 50121, Note_on_c, 0, 38, 0
2, 50133, Control_c, 0, 64, 38
2, 50157, Note_on_c, 0, 64, 74
2, 50163, Control_c, 0, 64, 39
2, 50184, Note_on_c, 0, 66, 0
2, 50194, Control_c, 0, 64, 39
2, 50224, Control_c, 0, 64, 40
2, 50264, Note_on_c, 0, 66, 82
2, 50275, Note_on_c, 0, 50, 74
2, 50290, Note_on_c, 0, 64, 0
2, 50406, Control_c, 0, 64, 39
2, 50421, Control_c, 0, 64, 39
2, 50436, Control_c, 0, 64, 38
2, 50439, Note_on_c, 0, 66, 0
2, 50451, Control_c, 0, 64, 38
2, 50481, Note_on_c, 0, 62, 77
2, 50482, Control_c, 0, 64, 37
2, 50497, Control_c, 0, 64, 37
2, 50511, Control_c, 0, 64, 36
2, 50542, Control_c, 0, 64, 36
2, 50573, Control_c, 0, 64, 35
2, 50711, Note_on_c, 0, 64, 75
2, 50775, Note_on_c, 0, 62, 0
2, 50908, Note_on_c, 0, 50, 0
2, 50918, Note_on_c, 0, 49, 68
2, 51127, Note_on_c, 0, 57, 68
2, 51129, Note_on_c, 0, 66, 76
2, 51135, Note_on_c, 0, 49, 0
2, 51170, Note_on_c, 0, 64, 0
2, 51201, Note_on_c, 0, 57, 0
2, 51344, Note_on_c, 0, 48, 70
2, 51402, Control_c, 0, 64, 34
2, 51424, Control_c, 0, 64, 34
2, 51440, Control_c, 0, 64, 33
2, 51559, Note_on_c, 0, 67, 72
2, 51560, Note_on_c, 0, 66, 0
2, 51695, Note_on_c, 0, 67, 0
2, 51769, Note_on_c, 0, 47, 70
2, 51774, Note_on_c, 0, 55, 70
2, 51795, Note_on_c, 0, 48, 0
2, 51836, Control_c, 0, 64, 34
2, 51851, Control_c, 0, 64, 34
2, 51857, Note_on_c, 0, 47, 0
2, 51862, Note_on_c, 0, 45, 65
2, 51882, Control_c, 0, 64, 35
2, 51885, Note_on_c, 0, 55, 0
2, 51911, Control_c, 0, 64, 35
2, 51961, Note_on_c, 0, 45, 0
2, 51966, Note_on_c, 0, 47, 72
2, 51971, Note_on_c, 0, 67, 87
2, 51973, Control_c, 0, 64, 36
2, 52003, Control_c, 0, 64, 37
2, 52034, Control_c, 0, 64, 37
2, 52039, Note_on_c, 0, 47, 0
2, 52048, Control_c, 0, 64, 38
2, 52197, Note_on_c, 0, 43, 73
2, 52223, Control_c, 0, 64, 38
2, 52416, Note_on_c, 0, 45, 78
2, 52454, Note_on_c, 0, 43, 0
2, 52604, Control_c, 0, 64, 38
2, 52612, Note_on_c, 0, 66, 76
2, 52614, Note_on_c, 0, 67, 0
2, 52635, Control_c, 0, 64, 37
2, 52649, Control_c, 0, 64, 37
2, 52725, Control_c, 0, 64, 36
2, 52771, Control_c, 0, 64, 36
2, 52802, Control_c, 0, 64, 35
2, 52842, Note_on_c, 0, 74, 69
2, 52849, Note_on_c, 0, 47, 76
2, 52893, Note_on_c, 0, 45, 0
2, 52930, Note_on_c, 0, 66, 0
2, 52995, Note_on_c, 0, 74, 0
2, 53051, Note_on_c, 0, 65, 76
2, 53219, Control_c, 0, 64, 36
2, 53266, Note_on_c, 0, 48, 81
2, 53303, Note_on_c, 0, 47, 0
2, 53470, Note_on_c, 0, 65, 0
2, 53471, Note_on_c, 0, 64, 74
2, 53554, Note_on_c, 0, 62, 79
2, 53584, Note_on_c, 0, 64, 0
2, 53614, Control_c, 0, 64, 35
2, 53637, Note_on_c, 0, 62, 0
2, 53645, Control_c, 0, 64, 35
2, 53657, Note_on_c, 0, 64, 80
2, 53660, Control_c, 0, 64, 34
2, 53743, Control_c, 0, 64, 35
2, 53774, Control_c, 0, 64, 35
2, 53805, Control_c, 0, 64, 36
2, 53865, Control_c, 0, 64, 37
2, 53873, Note_on_c, 0, 76, 88
2, 53876, Note_on_c, 0, 47, 67
2, 53892, Note_on_c, 0, 48, 0
2, 53909, Control_c, 0, 64, 37
2, 53909, Note_on_c, 0, 64, 0
2, 53925, Control_c, 0, 64, 38
2, 53940, Control_c, 0, 64, 39
2, 53956, Note_on_c, 0, 45, 71
2, 53971, Control_c, 0, 64, 39
2, 53974, Note_on_c, 0, 47, 0
2, 54001, Control_c, 0, 64, 40
2, 54013, Note_on_c, 0, 45, 0
2, 54016, Control_c, 0, 64, 40
2, 54077, Control_c, 0, 64, 41
2, 54091, Note_on_c, 0, 52, 74
2, 54138, Control_c, 0, 64, 41
2, 54162, Note_on_c, 0, 53, 81
2, 54168, Note_on_c, 0, 52, 0
2, 54198, Control_c, 0, 64, 42
2, 54214, Control_c, 0, 64, 42
2, 54246, Note_on_c, 0, 53, 0
2, 54253, Note_on_c, 0, 55, 78
2, 54304, Note_on_c, 0, 77, 83
2, 54312, Note_on_c, 0, 76, 0
2, 54313, Note_on_c, 0, 53, 76
2, 54315, Note_on_c, 0, 55, 0
2, 54362, Note_on_c, 0, 53, 0
2, 54372, Note_on_c, 0, 55, 70
2, 54411, Note_on_c, 0, 76, 83
2, 54420, Note_on_c, 0, 53, 72
2, 54427, Note_on_c, 0, 55, 0
2, 54474, Note_on_c, 0, 53, 0
2, 54492, Note_on_c, 0, 55, 73
2, 54499, Note_on_c, 0, 77, 0
2, 54505, Note_on_c, 0, 74, 80
2, 54536, Note_on_c, 0, 53, 73
2, 54540, Note_on_c, 0, 76, 0
2, 54545, Note_on_c, 0, 55, 0
2, 54555, Control_c, 0, 64, 42
2, 54586, Note_on_c, 0, 72, 84
2, 54596, Note_on_c, 0, 53, 0
2, 54610, Note_on_c, 0, 55, 77
2, 54616, Note_on_c, 0, 74, 0
2, 54655, Note_on_c, 0, 53, 69
2, 54661, Note_on_c, 0, 55, 0
2, 54662, Control_c, 0, 64, 41
2, 54668, Note_on_c, 0, 72, 0
2, 54676, Control_c, 0, 64, 41
2, 54682, Note_on_c, 0, 71, 83
2, 54707, Control_c, 0, 64, 40
2, 54711, Note_on_c, 0, 53, 0
2, 54722, Note_on_c, 0, 55, 75
2, 54723, Control_c, 0, 64, 40
2, 54738, Control_c, 0, 64, 39
2, 54762, Note_on_c, 0, 53, 72
2, 54772, Note_on_c, 0, 69, 85
2, 54785, Note_on_c, 0, 55, 0
2, 54803, Note_on_c, 0, 71, 0
2, 54834, Note_on_c, 0, 55, 44
2, 54887, Note_on_c, 0, 53, 0
2, 54893, Note_on_c, 0, 55, 0
2, 54900, Note_on_c, 0, 68, 84
2, 54912, Note_on_c, 0, 52, 67
2, 54918, Note_on_c, 0, 69, 0
2, 55015, Note_on_c, 0, 64, 75
2, 55073, Control_c, 0, 64, 38
2, 55089, Control_c, 0, 64, 38
2, 55103, Control_c, 0, 64, 37
2, 55111, Note_on_c, 0, 64, 0
2, 55118, Control_c, 0, 64, 37
2, 55124, Note_on_c, 0, 62, 69
2, 55148, Control_c, 0, 64, 36
2, 55179, Control_c, 0, 64, 36
2, 55194, Control_c, 0, 64, 35
2, 55210, Control_c, 0, 64, 34
2, 55226, Note_on_c, 0, 60, 70
2, 55240, Control_c, 0, 64, 34
2, 55242, Note_on_c, 0, 62, 0
2, 55263, Control_c, 0, 64, 33
2, 55294, Control_c, 0, 64, 33
2, 55324, Control_c, 0, 64, 32
2, 55335, Note_on_c, 0, 60, 0
2, 55347, Note_on_c, 0, 59, 70
2, 55434, Note_on_c, 0, 52, 0
2, 55441, Note_on_c, 0, 59, 0
2, 55445, Note_on_c, 0, 57, 69
2, 55537, Note_on_c, 0, 57, 0
2, 55539, Note_on_c, 0, 56, 68
2, 55613, Control_c, 0, 64, 33
2, 55640, Note_on_c, 0, 56, 0
2, 55648, Note_on_c, 0, 54, 59
2, 55658, Control_c, 0, 64, 33
2, 55807, Note_on_c, 0, 54, 0
2, 55826, Note_on_c, 0, 52, 50
2, 56058, Note_on_c, 0, 52, 0
2, 56280, Note_on_c, 0, 68, 0
2, 56282, Note_on_c, 0, 40, 30
2, 56380, Control_c, 0, 64, 33
2, 56451, Note_on_c, 0, 40, 0
2, 56640, Control_c, 0, 64, 32
2, 56700, Note_on_c, 0, 76, 57
2, 56835, Note_on_c, 0, 76, 0
2, 56838, Note_on_c, 0, 60, 60
2, 56933, Note_on_c, 0, 60, 0
2, 56945, Note_on_c, 0, 59, 53
2, 57019, Note_on_c, 0, 57, 49
2, 57050, Note_on_c, 0, 59, 0
2, 57103, Control_c, 0, 64, 33
2, 57117, Control_c, 0, 64, 33
2, 57118, Note_on_c, 0, 57, 0
2, 57133, Control_c, 0, 64, 34
2, 57139, Note_on_c, 0, 56, 51
2, 57147, Note_on_c, 0, 64, 62
2, 57164, Control_c, 0, 64, 35
2, 57178, Control_c, 0, 64, 35
2, 57193, Control_c, 0, 64, 36
2, 57209, Control_c, 0, 64, 36
2, 57240, Control_c, 0, 64, 37
2, 57256, Control_c, 0, 64, 37
2, 57260, Note_on_c, 0, 56, 0
2, 57270, Control_c, 0, 64, 38
2, 57316, Control_c, 0, 64, 38
2, 57362, Control_c, 0, 64, 39
2, 57370, Note_on_c, 0, 61, 59
2, 57377, Control_c, 0, 64, 39
2, 57392, Control_c, 0, 64, 40
2, 57408, Control_c, 0, 64, 40
2, 57422, Control_c, 0, 64, 41
2, 57437, Control_c, 0, 64, 41
2, 57484, Control_c, 0, 64, 42
2, 57594, Note_on_c, 0, 65, 73
2, 57611, Note_on_c, 0, 61, 0
2, 57611, Note_on_c, 0, 62, 52
2, 57669, Note_on_c, 0, 64, 0
2, 57795, Control_c, 0, 64, 41
2, 57800, Note_on_c, 0, 58, 71
2, 57808, Note_on_c, 0, 62, 0
2, 57871, Control_c, 0, 64, 41
2, 58012, Note_on_c, 0, 66, 81
2, 58013, Note_on_c, 0, 58, 0
2, 58017, Note_on_c, 0, 57, 54
2, 58081, Note_on_c, 0, 65, 0
2, 58206, Control_c, 0, 64, 41
2, 58220, Note_on_c, 0, 57, 0
2, 58220, Note_on_c, 0, 63, 78
2, 58236, Control_c, 0, 64, 42
2, 58366, Control_c, 0, 64, 41
2, 58381, Control_c, 0, 64, 40
2, 58396, Control_c, 0, 64, 40
2, 58411, Control_c, 0, 64, 39
2, 58433, Note_on_c, 0, 67, 84
2, 58442, Control_c, 0, 64, 39
2, 58442, Note_on_c, 0, 66, 0
2, 58450, Note_on_c, 0, 63, 0
2, 58450, Note_on_c, 0, 64, 62
2, 58456, Control_c, 0, 64, 38
2, 58486, Control_c, 0, 64, 38
2, 58638, Note_on_c, 0, 60, 80
2, 58638, Note_on_c, 0, 64, 0
2, 58820, Control_c, 0, 64, 38
2, 58858, Note_on_c, 0, 59, 65
2, 58859, Note_on_c, 0, 60, 0
2, 58864, Note_on_c, 0, 68, 85
2, 58865, Control_c, 0, 64, 39
2, 58936, Note_on_c, 0, 67, 0
2, 59019, Control_c, 0, 64, 39
2, 59076, Note_on_c, 0, 65, 86
2, 59094, Note_on_c, 0, 59, 0
2, 59240, Control_c, 0, 64, 40
2, 59296, Note_on_c, 0, 69, 83
2, 59331, Note_on_c, 0, 68, 0
2, 59361, Control_c, 0, 64, 40
2, 59391, Control_c, 0, 64, 41
2, 59436, Control_c, 0, 64, 41
2, 59482, Note_on_c, 0, 64, 74
2, 59494, Note_on_c, 0, 65, 0
2, 59512, Control_c, 0, 64, 42
2, 59543, Control_c, 0, 64, 42
2, 59574, Control_c, 0, 64, 43
2, 59633, Control_c, 0, 64, 43
2, 59691, Note_on_c, 0, 71, 82
2, 59698, Note_on_c, 0, 69, 0
2, 59726, Control_c, 0, 64, 44
2, 59901, Note_on_c, 0, 64, 0
2, 59906, Note_on_c, 0, 62, 66
2, 60008, Control_c, 0, 64, 43
2, 60036, Control_c, 0, 64, 43
2, 60102, Note_on_c, 0, 62, 0
2, 60111, Note_on_c, 0, 69, 65
2, 60112, Control_c, 0, 64, 42
2, 60115, Note_on_c, 0, 72, 68
2, 60130, Note_on_c, 0, 71, 0
2, 60161, Control_c, 0, 64, 42
2, 60195, Note_on_c, 0, 69, 0
2, 60216, Note_on_c, 0, 72, 0
2, 60220, Note_on_c, 0, 77, 70
2, 60221, Control_c, 0, 64, 41
2, 60237, Control_c, 0, 64, 41
2, 60324, Note_on_c, 0, 76, 61
2, 60375, Note_on_c, 0, 77, 0
2, 60388, Control_c, 0, 64, 40
2, 60417, Note_on_c, 0, 76, 0
2, 60426, Note_on_c, 0, 74, 57
2, 60479, Control_c, 0, 64, 39
2, 60507, Note_on_c, 0, 74, 0
2, 60535, Note_on_c, 0, 57, 59
2, 60541, Control_c, 0, 64, 39
2, 60554, Note_on_c, 0, 73, 52
2, 60731, Control_c, 0, 64, 38
2, 60761, Note_on_c, 0, 73, 0
2, 60766, Note_on_c, 0, 78, 62
2, 60791, Control_c, 0, 64, 38
2, 60974, Note_on_c, 0, 79, 62
2, 60976, Note_on_c, 0, 58, 70
2, 60996, Note_on_c, 0, 78, 0
2, 61058, Note_on_c, 0, 57, 0
2, 61179, Note_on_c, 0, 75, 74
2, 61209, Note_on_c, 0, 79, 0
2, 61388, Note_on_c, 0, 59, 75
2, 61397, Note_on_c, 0, 74, 69
2, 61420, Note_on_c, 0, 75, 0
2, 61439, Control_c, 0, 64, 38
2, 61469, Control_c, 0, 64, 39
2, 61472, Note_on_c, 0, 58, 0
2, 61515, Control_c, 0, 64, 39
2, 61545, Control_c, 0, 64, 40
2, 61600, Note_on_c, 0, 80, 83
2, 61660, Note_on_c, 0, 74, 0
2, 61800, Note_on_c, 0, 60, 74
2, 61804, Note_on_c, 0, 81, 74
2, 61806, Note_on_c, 0, 59, 0
2, 61866, Note_on_c, 0, 80, 0
2, 62006, Note_on_c, 0, 77, 86
2, 62034, Note_on_c, 0, 81, 0
2, 62218, Note_on_c, 0, 61, 75
2, 62230, Note_on_c, 0, 76, 74
2, 62252, Note_on_c, 0, 60, 0
2, 62265, Note_on_c, 0, 77, 0
2, 62443, Note_on_c, 0, 82, 89
2, 62481, Control_c, 0, 64, 39
2, 62496, Control_c, 0, 64, 39
2, 62501, Note_on_c, 0, 76, 0
2, 62641, Note_on_c, 0, 62, 78
2, 62670, Note_on_c, 0, 61, 0
2, 62769, Control_c, 0, 64, 38
2, 62860, Control_c, 0, 64, 38
2, 62866, Note_on_c, 0, 81, 77
2, 62876, Control_c, 0, 64, 37
2, 62892, Note_on_c, 0, 82, 0
2, 62922, Control_c, 0, 64, 37
2, 63021, Control_c, 0, 64, 36
2, 63099, Note_on_c, 0, 64, 70
2, 63141, Note_on_c, 0, 62, 0
2, 63173, Control_c, 0, 64, 35
2, 63203, Control_c, 0, 64, 35
2, 63279, Control_c, 0, 64, 34
2, 63297, Note_on_c, 0, 80, 73
2, 63318, Note_on_c, 0, 81, 0
2, 63325, Control_c, 0, 64, 34
2, 63340, Control_c, 0, 64, 33
2, 63356, Control_c, 0, 64, 33
2, 63401, Control_c, 0, 64, 32
2, 63416, Control_c, 0, 64, 32
2, 63472, Note_on_c, 0, 64, 0
2, 63477, Control_c, 0, 64, 31
2, 63489, Note_on_c, 0, 80, 0
2, 63493, Note_on_c, 0, 81, 67
2, 63496, Note_on_c, 0, 65, 59
2, 63603, Note_on_c, 0, 79, 64
2, 63664, Note_on_c, 0, 81, 0
2, 63710, Note_on_c, 0, 77, 71
2, 63719, Note_on_c, 0, 65, 0
2, 63729, Note_on_c, 0, 79, 0
2, 63773, Control_c, 0, 64, 32
2, 63799, Note_on_c, 0, 76, 71
2, 63802, Note_on_c, 0, 77, 0
2, 63864, Control_c, 0, 64, 32
2, 63879, Control_c, 0, 64, 33
2, 63909, Control_c, 0, 64, 33
2, 63917, Note_on_c, 0, 76, 0
2, 63924, Note_on_c, 0, 62, 64
2, 63925, Control_c, 0, 64, 34
2, 63933, Note_on_c, 0, 77, 72
2, 63940, Control_c, 0, 64, 35
2, 64001, Control_c, 0, 64, 35
2, 64092, Control_c, 0, 64, 36
2, 64123, Control_c, 0, 64, 36
2, 64139, Note_on_c, 0, 70, 64
2, 64154, Control_c, 0, 64, 37
2, 64160, Note_on_c, 0, 77, 0
2, 64168, Control_c, 0, 64, 37
2, 64183, Control_c, 0, 64, 38
2, 64228, Control_c, 0, 64, 38
2, 64244, Control_c, 0, 64, 39
2, 64289, Control_c, 0, 64, 39
2, 64304, Control_c, 0, 64, 40
2, 64337, Note_on_c, 0, 60, 55
2, 64342, Note_on_c, 0, 70, 0
2, 64347, Note_on_c, 0, 69, 60
2, 64365, Control_c, 0, 64, 40
2, 64377, Note_on_c, 0, 62, 0
2, 64570, Control_c, 0, 64, 41
2, 64589, Note_on_c, 0, 76, 55
2, 64597, Note_on_c, 0, 69, 0
2, 64784, Control_c, 0, 64, 41
2, 64787, Note_on_c, 0, 74, 61
2, 64796, Note_on_c, 0, 59, 57
2, 64807, Note_on_c, 0, 76, 0
2, 64810, Note_on_c, 0, 60, 0
2, 64829, Control_c, 0, 64, 42
2, 64860, Control_c, 0, 64, 42
2, 65002, Note_on_c, 0, 68, 68
2, 65003, Note_on_c, 0, 74, 0
2, 65133, Control_c, 0, 64, 42
2, 65148, Control_c, 0, 64, 41
2, 65192, Note_on_c, 0, 59, 0
2, 65194, Note_on_c, 0, 57, 62
2, 65263, Control_c, 0, 64, 41
2, 65269, Note_on_c, 0, 68, 0
2, 65316, Note_on_c, 0, 74, 70
2, 65426, Note_on_c, 0, 72, 74
2, 65475, Control_c, 0, 64, 41
2, 65512, Note_on_c, 0, 71, 73
2, 65526, Note_on_c, 0, 74, 0
2, 65582, Note_on_c, 0, 72, 0
2, 65608, Note_on_c, 0, 60, 62
2, 65612, Control_c, 0, 64, 42
2, 65619, Note_on_c, 0, 69, 85
2, 65641, Note_on_c, 0, 71, 0
2, 65662, Note_on_c, 0, 57, 0
2, 65822, Note_on_c, 0, 76, 82
2, 65839, Control_c, 0, 64, 42
2, 65851, Note_on_c, 0, 69, 0
2, 66043, Note_on_c, 0, 74, 75
2, 66054, Note_on_c, 0, 59, 66
2, 66086, Note_on_c, 0, 60, 0
2, 66196, Note_on_c, 0, 76, 0
2, 66242, Control_c, 0, 64, 43
2, 66248, Note_on_c, 0, 74, 0
2, 66255, Note_on_c, 0, 67, 76
2, 66258, Control_c, 0, 64, 43
2, 66289, Control_c, 0, 64, 44
2, 66349, Control_c, 0, 64, 44
2, 66448, Note_on_c, 0, 59, 0
2, 66451, Note_on_c, 0, 66, 69
2, 66458, Note_on_c, 0, 57, 58
2, 66466, Note_on_c, 0, 67, 0
2, 66655, Note_on_c, 0, 72, 62
2, 66668, Control_c, 0, 64, 43
2, 66670, Note_on_c, 0, 66, 0
2, 66684, Control_c, 0, 64, 42
2, 66698, Control_c, 0, 64, 42
2, 66713, Control_c, 0, 64, 41
2, 66729, Control_c, 0, 64, 41
2, 66744, Control_c, 0, 64, 40
2, 66759, Control_c, 0, 64, 39
2, 66782, Control_c, 0, 64, 38
2, 66828, Note_on_c, 0, 57, 0
2, 66866, Note_on_c, 0, 72, 0
2, 66869, Note_on_c, 0, 55, 53
2, 66869, Note_on_c, 0, 71, 60
2, 66970, Note_on_c, 0, 55, 0
2, 66980, Note_on_c, 0, 59, 65
2, 67010, Control_c, 0, 64, 39
2, 67025, Control_c, 0, 64, 40
2, 67056, Control_c, 0, 64, 40
2, 67056, Note_on_c, 0, 60, 72
2, 67071, Control_c, 0, 64, 41
2, 67087, Control_c, 0, 64, 42
2, 67096, Note_on_c, 0, 59, 0
2, 67102, Control_c, 0, 64, 42
2, 67116, Control_c, 0, 64, 43
2, 67132, Control_c, 0, 64, 44
2, 67147, Control_c, 0, 64, 44
2, 67154, Note_on_c, 0, 62, 77
2, 67163, Control_c, 0, 64, 45
2, 67177, Note_on_c, 0, 60, 0
2, 67178, Control_c, 0, 64, 45
2, 67193, Control_c, 0, 64, 46
2, 67275, Note_on_c, 0, 79, 84
2, 67286, Note_on_c, 0, 62, 0
2, 67287, Note_on_c, 0, 64, 74
2, 67427, Note_on_c, 0, 71, 0
2, 67490, Note_on_c, 0, 58, 71
2, 67497, Control_c, 0, 64, 45
2, 67507, Note_on_c, 0, 64, 0
2, 67697, Note_on_c, 0, 57, 54
2, 67704, Note_on_c, 0, 77, 82
2, 67727, Note_on_c, 0, 58, 0
2, 67808, Control_c, 0, 64, 45
2, 67827, Note_on_c, 0, 79, 0
2, 67911, Note_on_c, 0, 57, 0
2, 67917, Note_on_c, 0, 62, 53
2, 67961, Control_c, 0, 64, 44
2, 68059, Note_on_c, 0, 62, 0
2, 68098, Note_on_c, 0, 61, 47
2, 68108, Note_on_c, 0, 76, 66
2, 68147, Note_on_c, 0, 77, 0
2, 68313, Note_on_c, 0, 61, 0
2, 68330, Note_on_c, 0, 55, 48
2, 68394, Control_c, 0, 64, 44
2, 68410, Control_c, 0, 64, 43
2, 68439, Control_c, 0, 64, 42
2, 68455, Control_c, 0, 64, 41
2, 68469, Control_c, 0, 64, 41
2, 68485, Control_c, 0, 64, 40
2, 68500, Control_c, 0, 64, 39
2, 68514, Control_c, 0, 64, 38
2, 68530, Control_c, 0, 64, 38
2, 68531, Note_on_c, 0, 74, 63
2, 68545, Control_c, 0, 64, 37
2, 68591, Note_on_c, 0, 76, 0
2, 68619, Note_on_c, 0, 55, 0
2, 68646, Note_on_c, 0, 67, 68
2, 68729, Control_c, 0, 64, 38
2, 68743, Control_c, 0, 64, 38
2, 68752, Note_on_c, 0, 65, 70
2, 68755, Note_on_c, 0, 67, 0
2, 68789, Control_c, 0, 64, 39
2, 68805, Control_c, 0, 64, 40
2, 68827, Note_on_c, 0, 64, 73
2, 68851, Control_c, 0, 64, 40
2, 68858, Note_on_c, 0, 65, 0
2, 68865, Control_c, 0, 64, 41
2, 68881, Control_c, 0, 64, 42
2, 68896, Control_c, 0, 64, 42
2, 68942, Control_c, 0, 64, 43
2, 68948, Note_on_c, 0, 64, 0
2, 68951, Note_on_c, 0, 77, 82
2, 68954, Note_on_c, 0, 62, 64
2, 69049, Note_on_c, 0, 74, 0
2, 69177, Control_c, 0, 64, 43
2, 69177, Note_on_c, 0, 68, 73
2, 69185, Note_on_c, 0, 62, 0
2, 69192, Control_c, 0, 64, 44
2, 69222, Control_c, 0, 64, 44
2, 69253, Control_c, 0, 64, 45
2, 69313, Control_c, 0, 64, 45
2, 69359, Note_on_c, 0, 68, 0
2, 69379, Note_on_c, 0, 76, 71
2, 69384, Note_on_c, 0, 69, 63
2, 69404, Control_c, 0, 64, 46
2, 69475, Note_on_c, 0, 77, 0
2, 69584, Note_on_c, 0, 60, 64
2, 69633, Control_c, 0, 64, 45
2, 69649, Control_c, 0, 64, 44
2, 69650, Note_on_c, 0, 69, 0
2, 69664, Control_c, 0, 64, 44
2, 69694, Control_c, 0, 64, 43
2, 69725, Control_c, 0, 64, 43
2, 69801, Control_c, 0, 64, 42
2, 69801, Note_on_c, 0, 59, 44
2, 69810, Note_on_c, 0, 74, 65
2, 69814, Note_on_c, 0, 60, 0
2, 69816, Control_c, 0, 64, 42
2, 69825, Note_on_c, 0, 76, 0
2, 69831, Control_c, 0, 64, 41
2, 69853, Control_c, 0, 64, 41
2, 69884, Control_c, 0, 64, 40
2, 69982, Note_on_c, 0, 59, 0
2, 70018, Note_on_c, 0, 65, 63
2, 70112, Control_c, 0, 64, 40
2, 70157, Control_c, 0, 64, 39
2, 70172, Control_c, 0, 64, 38
2, 70185, Note_on_c, 0, 65, 0
2, 70214, Note_on_c, 0, 64, 60
2, 70249, Control_c, 0, 64, 38
2, 70278, Control_c, 0, 64, 37
2, 70294, Control_c, 0, 64, 36
2, 70305, Note_on_c, 0, 62, 65
2, 70310, Note_on_c, 0, 64, 0
2, 70414, Note_on_c, 0, 62, 0
2, 70421, Note_on_c, 0, 60, 62
2, 70431, Control_c, 0, 64, 37
2, 70447, Control_c, 0, 64, 38
2, 70486, Note_on_c, 0, 60, 0
2, 70492, Control_c, 0, 64, 38
2, 70495, Note_on_c, 0, 59, 60
2, 70507, Control_c, 0, 64, 39
2, 70631, Note_on_c, 0, 72, 62
2, 70634, Note_on_c, 0, 59, 0
2, 70657, Note_on_c, 0, 57, 55
2, 70666, Note_on_c, 0, 74, 0
2, 70758, Control_c, 0, 64, 39
2, 70833, Control_c, 0, 64, 40
2, 70837, Note_on_c, 0, 56, 57
2, 70839, Note_on_c, 0, 71, 68
2, 70843, Note_on_c, 0, 57, 0
2, 70893, Note_on_c, 0, 72, 0
2, 70894, Control_c, 0, 64, 40
2, 70955, Control_c, 0, 64, 41
2, 70985, Control_c, 0, 64, 41
2, 71030, Control_c, 0, 64, 42
2, 71061, Control_c, 0, 64, 42
2, 71061, Note_on_c, 0, 72, 72
2, 71067, Note_on_c, 0, 57, 54
2, 71070, Note_on_c, 0, 56, 0
2, 71123, Note_on_c, 0, 71, 0
2, 71214, Control_c, 0, 64, 43
2, 71246, Note_on_c, 0, 57, 0
2, 71259, Note_on_c, 0, 53, 60
2, 71489, Note_on_c, 0, 53, 0
2, 71489, Note_on_c, 0, 73, 78
2, 71505, Note_on_c, 0, 52, 43
2, 71555, Note_on_c, 0, 72, 0
2, 71697, Note_on_c, 0, 58, 73
2, 71703, Note_on_c, 0, 52, 0
2, 71814, Control_c, 0, 64, 42
2, 71905, Control_c, 0, 64, 42
2, 71919, Note_on_c, 0, 74, 85
2, 71926, Note_on_c, 0, 73, 0
2, 71936, Control_c, 0, 64, 41
2, 71937, Note_on_c, 0, 59, 61
2, 71950, Control_c, 0, 64, 41
2, 71953, Note_on_c, 0, 58, 0
2, 71997, Control_c, 0, 64, 40
2, 72028, Control_c, 0, 64, 40
2, 72043, Control_c, 0, 64, 39
2, 72058, Control_c, 0, 64, 38
2, 72073, Control_c, 0, 64, 38
2, 72088, Control_c, 0, 64, 37
2, 72103, Control_c, 0, 64, 36
2, 72118, Control_c, 0, 64, 35
2, 72126, Note_on_c, 0, 59, 0
2, 72131, Note_on_c, 0, 55, 68
2, 72134, Control_c, 0, 64, 35
2, 72157, Control_c, 0, 64, 34
2, 72172, Control_c, 0, 64, 33
2, 72187, Control_c, 0, 64, 32
2, 72218, Control_c, 0, 64, 31
2, 72233, Control_c, 0, 64, 31
2, 72248, Control_c, 0, 64, 30
2, 72341, Note_on_c, 0, 54, 73
2, 72341, Note_on_c, 0, 75, 88
2, 72354, Note_on_c, 0, 55, 0
2, 72385, Note_on_c, 0, 74, 0
2, 72430, Control_c, 0, 64, 31
2, 72446, Control_c, 0, 64, 31
2, 72476, Control_c, 0, 64, 32
2, 72552, Note_on_c, 0, 60, 83
2, 72573, Note_on_c, 0, 54, 0
2, 72628, Control_c, 0, 64, 32
2, 72673, Control_c, 0, 64, 33
2, 72689, Control_c, 0, 64, 33
2, 72704, Control_c, 0, 64, 34
2, 72718, Control_c, 0, 64, 34
2, 72758, Note_on_c, 0, 76, 90
2, 72765, Control_c, 0, 64, 35
2, 72794, Control_c, 0, 64, 36
2, 72826, Control_c, 0, 64, 37
2, 72842, Control_c, 0, 64, 37
2, 72857, Control_c, 0, 64, 38
2, 72887, Control_c, 0, 64, 38
2, 72926, Control_c, 0, 64, 40
2, 72926, Note_on_c, 0, 75, 0
2, 72940, Control_c, 0, 64, 40
2, 72955, Control_c, 0, 64, 41
2, 72969, Note_on_c, 0, 59, 75
2, 72975, Note_on_c, 0, 60, 0
2, 73180, Note_on_c, 0, 78, 82
2, 73199, Control_c, 0, 64, 41
2, 73215, Control_c, 0, 64, 42
2, 73250, Note_on_c, 0, 76, 0
2, 73260, Control_c, 0, 64, 43
2, 73290, Control_c, 0, 64, 43
2, 73305, Control_c, 0, 64, 44
2, 73321, Control_c, 0, 64, 44
2, 73336, Control_c, 0, 64, 45
2, 73350, Control_c, 0, 64, 45
2, 73366, Control_c, 0, 64, 46
2, 73380, Note_on_c, 0, 57, 72
2, 73381, Note_on_c, 0, 59, 0
2, 73579, Control_c, 0, 64, 45
2, 73589, Note_on_c, 0, 79, 66
2, 73594, Control_c, 0, 64, 44
2, 73596, Note_on_c, 0, 57, 0
2, 73598, Note_on_c, 0, 64, 70
2, 73610, Note_on_c, 0, 78, 0
2, 73671, Control_c, 0, 64, 43
2, 73716, Note_on_c, 0, 77, 75
2, 73767, Note_on_c, 0, 64, 0
2, 73770, Control_c, 0, 64, 43
2, 73797, Note_on_c, 0, 76, 72
2, 73807, Note_on_c, 0, 79, 0
2, 73808, Note_on_c, 0, 77, 0
2, 73875, Note_on_c, 0, 76, 0
2, 73892, Note_on_c, 0, 74, 64
2, 74018, Note_on_c, 0, 74, 0
2, 74024, Note_on_c, 0, 73, 64
2, 74027, Note_on_c, 0, 52, 66
2, 74241, Note_on_c, 0, 73, 0
2, 74244, Note_on_c, 0, 80, 65
2, 74458, Note_on_c, 0, 81, 61
2, 74460, Note_on_c, 0, 53, 75
2, 74464, Note_on_c, 0, 80, 0
2, 74507, Control_c, 0, 64, 43
2, 74554, Note_on_c, 0, 52, 0
2, 74671, Note_on_c, 0, 75, 77
2, 74735, Control_c, 0, 64, 44
2, 74822, Note_on_c, 0, 81, 0
2, 74856, Control_c, 0, 64, 43
2, 74883, Note_on_c, 0, 74, 64
2, 74885, Note_on_c, 0, 54, 73
2, 74887, Control_c, 0, 64, 43
2, 74888, Note_on_c, 0, 75, 0
2, 74962, Control_c, 0, 64, 42
2, 74968, Note_on_c, 0, 53, 0
2, 75085, Note_on_c, 0, 82, 80
2, 75130, Control_c, 0, 64, 42
2, 75164, Note_on_c, 0, 74, 0
2, 75190, Control_c, 0, 64, 41
2, 75307, Note_on_c, 0, 83, 75
2, 75316, Note_on_c, 0, 55, 74
2, 75350, Control_c, 0, 64, 41
2, 75350, Note_on_c, 0, 82, 0
2, 75364, Note_on_c, 0, 54, 0
2, 75442, Control_c, 0, 64, 40
2, 75522, Note_on_c, 0, 77, 80
2, 75624, Note_on_c, 0, 83, 0
2, 75730, Note_on_c, 0, 56, 72
2, 75743, Note_on_c, 0, 76, 71
2, 75788, Note_on_c, 0, 55, 0
2, 75796, Note_on_c, 0, 77, 0
2, 75938, Note_on_c, 0, 74, 80
2, 75949, Note_on_c, 0, 76, 0
2, 76152, Note_on_c, 0, 57, 73
2, 76228, Note_on_c, 0, 56, 0
2, 76356, Note_on_c, 0, 72, 85
2, 76389, Note_on_c, 0, 74, 0
2, 76579, Note_on_c, 0, 59, 74
2, 76628, Note_on_c, 0, 57, 0
2, 76789, Note_on_c, 0, 71, 74
2, 76823, Note_on_c, 0, 72, 0
2, 76986, Note_on_c, 0, 59, 0
2, 76995, Note_on_c, 0, 60, 62
2, 77100, Control_c, 0, 64, 41
2, 77192, Note_on_c, 0, 60, 0
2, 77195, Note_on_c, 0, 71, 0
2, 77208, Note_on_c, 0, 69, 57
2, 77310, Note_on_c, 0, 71, 65
2, 77318, Note_on_c, 0, 69, 0
2, 77358, Control_c, 0, 64, 41
2, 77374, Control_c, 0, 64, 42
2, 77392, Note_on_c, 0, 71, 0
2, 77405, Control_c, 0, 64, 42
2, 77405, Note_on_c, 0, 72, 69
2, 77419, Control_c, 0, 64, 43
2, 77419, Note_on_c, 0, 57, 51
2, 77434, Control_c, 0, 64, 43
2, 77450, Control_c, 0, 64, 44
2, 77495, Control_c, 0, 64, 45
2, 77510, Control_c, 0, 64, 45
2, 77619, Note_on_c, 0, 63, 63
2, 77701, Control_c, 0, 64, 45
2, 77747, Control_c, 0, 64, 44
2, 77792, Note_on_c, 0, 63, 0
2, 77793, Control_c, 0, 64, 44
2, 77808, Control_c, 0, 64, 43
2, 77815, Note_on_c, 0, 64, 68
2, 77820, Note_on_c, 0, 55, 52
2, 77823, Control_c, 0, 64, 43
2, 77834, Note_on_c, 0, 57, 0
2, 77834, Note_on_c, 0, 72, 0
2, 77838, Control_c, 0, 64, 42
2, 77854, Control_c, 0, 64, 42
2, 77884, Control_c, 0, 64, 41
2, 77914, Control_c, 0, 64, 41
2, 77929, Control_c, 0, 64, 40
2, 77959, Control_c, 0, 64, 40
2, 77975, Control_c, 0, 64, 39
2, 78032, Note_on_c, 0, 73, 78
2, 78054, Note_on_c, 0, 64, 0
2, 78065, Control_c, 0, 64, 39
2, 78111, Control_c, 0, 64, 38
2, 78239, Note_on_c, 0, 55, 0
2, 78241, Note_on_c, 0, 53, 64
2, 78243, Note_on_c, 0, 74, 76
2, 78256, Note_on_c, 0, 73, 0
2, 78454, Note_on_c, 0, 65, 77
2, 78461, Note_on_c, 0, 74, 0
2, 78545, Control_c, 0, 64, 39
2, 78591, Control_c, 0, 64, 39
2, 78607, Control_c, 0, 64, 40
2, 78633, Note_on_c, 0, 53, 0
2, 78636, Control_c, 0, 64, 40
2, 78652, Control_c, 0, 64, 41
2, 78658, Note_on_c, 0, 52, 55
2, 78665, Note_on_c, 0, 67, 78
2, 78667, Control_c, 0, 64, 41
2, 78712, Control_c, 0, 64, 42
2, 78728, Control_c, 0, 64, 43
2, 78729, Note_on_c, 0, 65, 0
2, 78754, Note_on_c, 0, 53, 68
2, 78774, Control_c, 0, 64, 44
2, 78805, Note_on_c, 0, 52, 0
2, 78842, Note_on_c, 0, 55, 75
2, 78863, Note_on_c, 0, 53, 0
2, 78924, Note_on_c, 0, 55, 0
2, 78935, Note_on_c, 0, 57, 79
2, 79070, Note_on_c, 0, 74, 82
2, 79097, Note_on_c, 0, 58, 72
2, 79100, Control_c, 0, 64, 43
2, 79108, Note_on_c, 0, 57, 0
2, 79108, Note_on_c, 0, 67, 0
2, 79114, Control_c, 0, 64, 43
2, 79161, Control_c, 0, 64, 42
2, 79206, Control_c, 0, 64, 42
2, 79288, Note_on_c, 0, 58, 0
2, 79290, Note_on_c, 0, 53, 76
2, 79486, Note_on_c, 0, 52, 63
2, 79496, Note_on_c, 0, 53, 0
2, 79502, Note_on_c, 0, 73, 82
2, 79573, Note_on_c, 0, 74, 0
2, 79602, Control_c, 0, 64, 41
2, 79678, Note_on_c, 0, 52, 0
2, 79695, Note_on_c, 0, 57, 68
2, 79894, Note_on_c, 0, 57, 0
2, 79900, Note_on_c, 0, 55, 60
2, 79914, Note_on_c, 0, 70, 71
2, 79916, Note_on_c, 0, 73, 0
2, 80068, Note_on_c, 0, 55, 0
2, 80096, Note_on_c, 0, 50, 65
2, 80218, Control_c, 0, 64, 42
2, 80232, Control_c, 0, 64, 42
2, 80248, Control_c, 0, 64, 43
2, 80323, Note_on_c, 0, 49, 73
2, 80331, Note_on_c, 0, 50, 0
2, 80385, Control_c, 0, 64, 42
2, 80399, Control_c, 0, 64, 42
2, 80439, Note_on_c, 0, 69, 66
2, 80445, Note_on_c, 0, 70, 0
2, 80461, Control_c, 0, 64, 41
2, 80475, Control_c, 0, 64, 40
2, 80491, Control_c, 0, 64, 39
2, 80506, Control_c, 0, 64, 38
2, 80533, Note_on_c, 0, 69, 0
2, 80542, Note_on_c, 0, 67, 69
2, 80547, Note_on_c, 0, 49, 0
2, 80551, Control_c, 0, 64, 38
2, 80567, Control_c, 0, 64, 36
2, 80582, Control_c, 0, 64, 35
2, 80605, Control_c, 0, 64, 34
2, 80629, Note_on_c, 0, 67, 0
2, 80638, Note_on_c, 0, 69, 72
2, 80749, Note_on_c, 0, 55, 73
2, 80764, Note_on_c, 0, 69, 0
2, 80770, Note_on_c, 0, 70, 66
2, 80924, Control_c, 0, 64, 35
2, 80957, Note_on_c, 0, 61, 72
2, 81101, Note_on_c, 0, 61, 0
2, 81112, Control_c, 0, 64, 35
2, 81155, Note_on_c, 0, 62, 62
2, 81163, Note_on_c, 0, 70, 0
2, 81168, Note_on_c, 0, 53, 77
2, 81179, Note_on_c, 0, 55, 0
2, 81188, Control_c, 0, 64, 36
2, 81203, Control_c, 0, 64, 36
2, 81248, Control_c, 0, 64, 37
2, 81279, Control_c, 0, 64, 37
2, 81294, Control_c, 0, 64, 38
2, 81324, Control_c, 0, 64, 39
2, 81339, Control_c, 0, 64, 39
2, 81361, Note_on_c, 0, 71, 78
2, 81393, Control_c, 0, 64, 40
2, 81408, Control_c, 0, 64, 40
2, 81465, Note_on_c, 0, 62, 0
2, 81484, Control_c, 0, 64, 41
2, 81582, Note_on_c, 0, 72, 75
2, 81584, Note_on_c, 0, 52, 66
2, 81610, Note_on_c, 0, 53, 0
2, 81615, Note_on_c, 0, 71, 0
2, 81757, Control_c, 0, 64, 41
2, 81772, Control_c, 0, 64, 42
2, 81782, Note_on_c, 0, 64, 76
2, 81811, Note_on_c, 0, 72, 0
2, 81817, Control_c, 0, 64, 42
2, 81834, Control_c, 0, 64, 43
2, 81863, Control_c, 0, 64, 43
2, 81975, Note_on_c, 0, 52, 0
2, 81980, Note_on_c, 0, 50, 64
2, 82015, Control_c, 0, 64, 44
2, 82025, Note_on_c, 0, 66, 70
2, 82073, Note_on_c, 0, 52, 70
2, 82118, Note_on_c, 0, 50, 0
2, 82125, Note_on_c, 0, 64, 0
2, 82178, Note_on_c, 0, 54, 79
2, 82188, Note_on_c, 0, 52, 0
2, 82273, Note_on_c, 0, 55, 78
2, 82276, Note_on_c, 0, 54, 0
2, 82327, Control_c, 0, 64, 43
2, 82382, Note_on_c, 0, 72, 88
2, 82400, Note_on_c, 0, 57, 74
2, 82403, Control_c, 0, 64, 43
2, 82431, Note_on_c, 0, 55, 0
2, 82437, Note_on_c, 0, 66, 0
2, 82479, Control_c, 0, 64, 42
2, 82555, Control_c, 0, 64, 42
2, 82589, Note_on_c, 0, 57, 0
2, 82601, Control_c, 0, 64, 41
2, 82609, Note_on_c, 0, 51, 72
2, 82631, Control_c, 0, 64, 41
2, 82646, Control_c, 0, 64, 40
2, 82677, Control_c, 0, 64, 40
2, 82708, Control_c, 0, 64, 39
2, 82723, Control_c, 0, 64, 38
2, 82769, Control_c, 0, 64, 38
2, 82803, Note_on_c, 0, 71, 80
2, 82814, Control_c, 0, 64, 37
2, 82814, Note_on_c, 0, 50, 63
2, 82830, Control_c, 0, 64, 37
2, 82844, Control_c, 0, 64, 36
2, 82909, Note_on_c, 0, 72, 0
2, 83013, Note_on_c, 0, 50, 0
2, 83023, Note_on_c, 0, 55, 67
2, 83032, Note_on_c, 0, 51, 0
2, 83080, Control_c, 0, 64, 36
2, 83221, Note_on_c, 0, 54, 57
2, 83232, Note_on_c, 0, 69, 66
2, 83246, Note_on_c, 0, 55, 0
2, 83277, Note_on_c, 0, 71, 0
2, 83440, Note_on_c, 0, 48, 65
2, 83443, Note_on_c, 0, 54, 0
2, 83649, Note_on_c, 0, 47, 63
2, 83689, Note_on_c, 0, 48, 0
2, 83711, Control_c, 0, 64, 36
2, 83754, Note_on_c, 0, 67, 59
2, 83754, Note_on_c, 0, 69, 0
2, 83772, Control_c, 0, 64, 37
2, 83787, Control_c, 0, 64, 37
2, 83802, Control_c, 0, 64, 38
2, 83817, Control_c, 0, 64, 39
2, 83833, Control_c, 0, 64, 40
2, 83848, Control_c, 0, 64, 40
2, 83850, Note_on_c, 0, 69, 68
2, 83863, Control_c, 0, 64, 41
2, 83868, Note_on_c, 0, 67, 0
2, 83879, Control_c, 0, 64, 42
2, 83894, Control_c, 0, 64, 43
2, 83909, Control_c, 0, 64, 43
2, 83924, Control_c, 0, 64, 44
2, 83926, Note_on_c, 0, 69, 0
2, 83931, Note_on_c, 0, 47, 0
2, 83939, Note_on_c, 0, 71, 71
2, 83955, Control_c, 0, 64, 44
2, 83984, Control_c, 0, 64, 45
2, 84073, Note_on_c, 0, 52, 74
2, 84075, Note_on_c, 0, 72, 64
2, 84077, Note_on_c, 0, 71, 0
2, 84286, Note_on_c, 0, 67, 69
2, 84376, Note_on_c, 0, 72, 0
2, 84505, Note_on_c, 0, 66, 70
2, 84512, Note_on_c, 0, 51, 81
2, 84542, Note_on_c, 0, 67, 0
2, 84579, Note_on_c, 0, 52, 0
2, 84616, Control_c, 0, 64, 44
2, 84708, Control_c, 0, 64, 44
2, 84714, Note_on_c, 0, 70, 78
2, 84751, Note_on_c, 0, 66, 0
2, 84924, Note_on_c, 0, 50, 73
2, 84924, Note_on_c, 0, 71, 79
2, 84964, Note_on_c, 0, 51, 0
2, 84965, Note_on_c, 0, 70, 0
2, 85042, Control_c, 0, 64, 43
2, 85087, Control_c, 0, 64, 43
2, 85103, Control_c, 0, 64, 42
2, 85141, Note_on_c, 0, 65, 79
2, 85165, Control_c, 0, 64, 41
2, 85179, Control_c, 0, 64, 41
2, 85195, Control_c, 0, 64, 40
2, 85268, Note_on_c, 0, 71, 0
2, 85294, Control_c, 0, 64, 40
2, 85350, Note_on_c, 0, 64, 73
2, 85353, Note_on_c, 0, 49, 74
2, 85355, Control_c, 0, 64, 39
2, 85369, Control_c, 0, 64, 39
2, 85373, Note_on_c, 0, 50, 0
2, 85373, Note_on_c, 0, 65, 0
2, 85414, Control_c, 0, 64, 38
2, 85460, Control_c, 0, 64, 38
2, 85563, Note_on_c, 0, 68, 82
2, 85591, Note_on_c, 0, 64, 0
2, 85612, Control_c, 0, 64, 37
2, 85628, Control_c, 0, 64, 37
2, 85643, Control_c, 0, 64, 36
2, 85703, Control_c, 0, 64, 36
2, 85733, Control_c, 0, 64, 35
2, 85770, Note_on_c, 0, 69, 75
2, 85783, Note_on_c, 0, 48, 66
2, 85812, Note_on_c, 0, 49, 0
2, 85814, Note_on_c, 0, 68, 0
2, 85985, Control_c, 0, 64, 36
2, 85998, Note_on_c, 0, 63, 79
2, 86000, Control_c, 0, 64, 36
2, 86031, Control_c, 0, 64, 37
2, 86061, Control_c, 0, 64, 38
2, 86077, Control_c, 0, 64, 39
2, 86111, Note_on_c, 0, 69, 0
2, 86122, Control_c, 0, 64, 39
2, 86137, Control_c, 0, 64, 40
2, 86153, Control_c, 0, 64, 41
2, 86223, Note_on_c, 0, 47, 68
2, 86257, Note_on_c, 0, 48, 0
2, 86350, Control_c, 0, 64, 41
2, 86413, Note_on_c, 0, 64, 75
2, 86479, Note_on_c, 0, 63, 0
2, 86501, Control_c, 0, 64, 42
2, 86548, Control_c, 0, 64, 42
2, 86608, Control_c, 0, 64, 43
2, 86635, Note_on_c, 0, 45, 61
2, 86660, Note_on_c, 0, 47, 0
2, 86852, Note_on_c, 0, 66, 65
2, 86885, Note_on_c, 0, 64, 0
2, 87052, Note_on_c, 0, 59, 65
2, 87133, Control_c, 0, 64, 42
2, 87149, Control_c, 0, 64, 42
2, 87149, Note_on_c, 0, 59, 0
2, 87156, Note_on_c, 0, 48, 65
2, 87159, Note_on_c, 0, 45, 0
2, 87178, Control_c, 0, 64, 41
2, 87194, Control_c, 0, 64, 41
2, 87195, Note_on_c, 0, 66, 0
2, 87257, Note_on_c, 0, 47, 70
2, 87266, Note_on_c, 0, 48, 0
2, 87336, Note_on_c, 0, 45, 66
2, 87339, Note_on_c, 0, 47, 0
2, 87454, Note_on_c, 0, 45, 0
2, 87460, Note_on_c, 0, 76, 79
2, 87479, Note_on_c, 0, 44, 52
2, 87482, Control_c, 0, 64, 41
2, 87681, Note_on_c, 0, 44, 0
2, 87682, Note_on_c, 0, 49, 67
2, 87810, Control_c, 0, 64, 42
2, 87825, Control_c, 0, 64, 42
2, 87841, Control_c, 0, 64, 43
2, 87880, Note_on_c, 0, 77, 89
2, 87901, Control_c, 0, 64, 43
2, 87911, Note_on_c, 0, 50, 59
2, 87931, Note_on_c, 0, 49, 0
2, 87945, Note_on_c, 0, 76, 0
2, 87946, Control_c, 0, 64, 44
2, 88092, Note_on_c, 0, 46, 78
2, 88095, Note_on_c, 0, 50, 0
2, 88159, Control_c, 0, 64, 44
2, 88304, Note_on_c, 0, 78, 90
2, 88309, Note_on_c, 0, 45, 62
2, 88333, Control_c, 0, 64, 45
2, 88338, Note_on_c, 0, 77, 0
2, 88373, Note_on_c, 0, 46, 0
2, 88470, Control_c, 0, 64, 44
2, 88496, Note_on_c, 0, 51, 82
2, 88500, Note_on_c, 0, 45, 0
2, 88531, Control_c, 0, 64, 44
2, 88546, Control_c, 0, 64, 43
2, 88606, Control_c, 0, 64, 43
2, 88637, Control_c, 0, 64, 42
2, 88667, Control_c, 0, 64, 42
2, 88683, Control_c, 0, 64, 41
2, 88698, Control_c, 0, 64, 41
2, 88707, Note_on_c, 0, 78, 0
2, 88708, Note_on_c, 0, 79, 90
2, 88721, Note_on_c, 0, 52, 71
2, 88728, Control_c, 0, 64, 40
2, 88742, Note_on_c, 0, 51, 0
2, 88743, Control_c, 0, 64, 40
2, 88774, Control_c, 0, 64, 39
2, 88905, Note_on_c, 0, 48, 77
2, 88911, Note_on_c, 0, 52, 0
2, 89055, Control_c, 0, 64, 40
2, 89070, Control_c, 0, 64, 40
2, 89116, Control_c, 0, 64, 41
2, 89129, Note_on_c, 0, 47, 72
2, 89131, Control_c, 0, 64, 41
2, 89131, Note_on_c, 0, 80, 90
2, 89144, Note_on_c, 0, 48, 0
2, 89176, Control_c, 0, 64, 42
2, 89191, Control_c, 0, 64, 42
2, 89191, Note_on_c, 0, 79, 0
2, 89208, Control_c, 0, 64, 43
2, 89284, Control_c, 0, 64, 43
2, 89344, Control_c, 0, 64, 44
2, 89350, Note_on_c, 0, 53, 91
2, 89371, Note_on_c, 0, 47, 0
2, 89405, Control_c, 0, 64, 44
2, 89465, Control_c, 0, 64, 45
2, 89564, Note_on_c, 0, 81, 91
2, 89610, Note_on_c, 0, 80, 0
2, 89725, Control_c, 0, 64, 45
2, 89752, Note_on_c, 0, 52, 80
2, 89755, Control_c, 0, 64, 44
2, 89775, Note_on_c, 0, 53, 0
2, 89785, Control_c, 0, 64, 44
2, 89884, Control_c, 0, 64, 43
2, 89983, Note_on_c, 0, 83, 91
2, 90025, Note_on_c, 0, 81, 0
2, 90037, Control_c, 0, 64, 44
2, 90096, Control_c, 0, 64, 44
2, 90111, Control_c, 0, 64, 45
2, 90168, Note_on_c, 0, 52, 0
2, 90188, Note_on_c, 0, 50, 78
2, 90279, Control_c, 0, 64, 44
2, 90294, Control_c, 0, 64, 43
2, 90309, Control_c, 0, 64, 43
2, 90324, Control_c, 0, 64, 42
2, 90339, Control_c, 0, 64, 41
2, 90355, Control_c, 0, 64, 40
2, 90370, Control_c, 0, 64, 39
2, 90388, Note_on_c, 0, 48, 74
2, 90391, Note_on_c, 0, 50, 0
2, 90431, Control_c, 0, 64, 38
2, 90564, Note_on_c, 0, 48, 0
2, 90590, Control_c, 0, 64, 39
2, 90605, Note_on_c, 0, 83, 0
2, 90621, Note_on_c, 0, 81, 83
2, 90651, Control_c, 0, 64, 39
2, 90666, Control_c, 0, 64, 40
2, 90682, Control_c, 0, 64, 41
2, 90710, Note_on_c, 0, 83, 91
2, 90727, Control_c, 0, 64, 41
2, 90763, Note_on_c, 0, 81, 0
2, 90787, Control_c, 0, 64, 42
2, 90803, Control_c, 0, 64, 42
2, 90818, Control_c, 0, 64, 43
2, 90839, Note_on_c, 0, 84, 95
2, 90851, Note_on_c, 0, 52, 69
2, 90878, Note_on_c, 0, 83, 0
2, 91006, Note_on_c, 0, 84, 0
2, 91051, Note_on_c, 0, 76, 86
2, 91062, Control_c, 0, 64, 42
2, 91077, Control_c, 0, 64, 42
2, 91092, Control_c, 0, 64, 41
2, 91152, Control_c, 0, 64, 41
2, 91183, Control_c, 0, 64, 40
2, 91214, Control_c, 0, 64, 40
2, 91263, Note_on_c, 0, 54, 80
2, 91297, Note_on_c, 0, 52, 0
2, 91456, Note_on_c, 0, 75, 91
2, 91510, Note_on_c, 0, 76, 0
2, 91555, Control_c, 0, 64, 40
2, 91685, Note_on_c, 0, 56, 64
2, 91688, Note_on_c, 0, 83, 87
2, 91724, Control_c, 0, 64, 41
2, 91724, Note_on_c, 0, 54, 0
2, 91732, Note_on_c, 0, 75, 0
2, 91833, Note_on_c, 0, 83, 0
2, 91875, Control_c, 0, 64, 40
2, 91884, Note_on_c, 0, 74, 74
2, 91890, Control_c, 0, 64, 40
2, 91921, Control_c, 0, 64, 39
2, 91935, Control_c, 0, 64, 38
2, 92077, Note_on_c, 0, 56, 0
2, 92090, Note_on_c, 0, 57, 77
2, 92171, Control_c, 0, 64, 39
2, 92214, Note_on_c, 0, 72, 78
2, 92224, Note_on_c, 0, 74, 0
2, 92232, Control_c, 0, 64, 39
2, 92241, Note_on_c, 0, 57, 0
2, 92262, Control_c, 0, 64, 40
2, 92293, Control_c, 0, 64, 40
2, 92296, Note_on_c, 0, 74, 77
2, 92338, Control_c, 0, 64, 41
2, 92348, Note_on_c, 0, 72, 0
2, 92353, Control_c, 0, 64, 42
2, 92369, Control_c, 0, 64, 42
2, 92392, Note_on_c, 0, 76, 75
2, 92403, Note_on_c, 0, 74, 0
2, 92414, Control_c, 0, 64, 43
2, 92502, Note_on_c, 0, 45, 65
2, 92522, Note_on_c, 0, 77, 82
2, 92550, Note_on_c, 0, 76, 0
2, 92598, Control_c, 0, 64, 43
2, 92613, Control_c, 0, 64, 44
2, 92651, Note_on_c, 0, 77, 0
2, 92730, Note_on_c, 0, 69, 81
2, 92764, Control_c, 0, 64, 44
2, 92795, Control_c, 0, 64, 45
2, 92810, Control_c, 0, 64, 45
2, 92871, Control_c, 0, 64, 46
2, 92936, Note_on_c, 0, 47, 76
2, 92939, Control_c, 0, 64, 46
2, 92955, Control_c, 0, 64, 47
2, 93020, Note_on_c, 0, 45, 0
2, 93076, Control_c, 0, 64, 46
2, 93137, Control_c, 0, 64, 46
2, 93144, Note_on_c, 0, 68, 79
2, 93213, Control_c, 0, 64, 45
2, 93218, Note_on_c, 0, 69, 0
2, 93243, Control_c, 0, 64, 45
2, 93366, Note_on_c, 0, 49, 69
2, 93375, Note_on_c, 0, 76, 72
2, 93396, Control_c, 0, 64, 45
2, 93421, Note_on_c, 0, 47, 0
2, 93426, Control_c, 0, 64, 46
2, 93454, Note_on_c, 0, 68, 0
2, 93507, Note_on_c, 0, 76, 0
2, 93547, Control_c, 0, 64, 45
2, 93573, Note_on_c, 0, 67, 74
2, 93578, Control_c, 0, 64, 45
2, 93593, Control_c, 0, 64, 44
2, 93608, Control_c, 0, 64, 44
2, 93639, Control_c, 0, 64, 43
2, 93662, Control_c, 0, 64, 43
2, 93678, Control_c, 0, 64, 42
2, 93768, Control_c, 0, 64, 41
2, 93797, Note_on_c, 0, 50, 70
2, 93807, Note_on_c, 0, 49, 0
2, 93828, Control_c, 0, 64, 40
2, 93844, Control_c, 0, 64, 39
2, 93859, Control_c, 0, 64, 38
2, 93889, Control_c, 0, 64, 38
2, 93901, Note_on_c, 0, 65, 71
2, 93904, Control_c, 0, 64, 37
2, 93905, Note_on_c, 0, 67, 0
2, 93920, Control_c, 0, 64, 36
2, 93924, Note_on_c, 0, 50, 0
2, 93992, Note_on_c, 0, 67, 73
2, 93993, Note_on_c, 0, 65, 0
2, 94057, Control_c, 0, 64, 37
2, 94082, Note_on_c, 0, 69, 72
2, 94087, Control_c, 0, 64, 37
2, 94100, Note_on_c, 0, 67, 0
2, 94102, Control_c, 0, 64, 38
2, 94134, Control_c, 0, 64, 38
2, 94149, Control_c, 0, 64, 39
2, 94179, Control_c, 0, 64, 39
2, 94210, Control_c, 0, 64, 40
2, 94210, Note_on_c, 0, 70, 74
2, 94215, Note_on_c, 0, 38, 68
2, 94228, Note_on_c, 0, 69, 0
2, 94255, Control_c, 0, 64, 40
2, 94270, Control_c, 0, 64, 41
2, 94345, Note_on_c, 0, 70, 0
2, 94346, Control_c, 0, 64, 42
2, 94407, Note_on_c, 0, 62, 71
2, 94567, Control_c, 0, 64, 42
2, 94612, Control_c, 0, 64, 43
2, 94627, Control_c, 0, 64, 43
2, 94660, Note_on_c, 0, 40, 73
2, 94672, Control_c, 0, 64, 44
2, 94748, Control_c, 0, 64, 45
2, 94758, Note_on_c, 0, 38, 0
2, 94851, Note_on_c, 0, 61, 76
2, 94870, Control_c, 0, 64, 44
2, 94886, Note_on_c, 0, 40, 0
2, 94940, Note_on_c, 0, 62, 0
2, 95069, Note_on_c, 0, 69, 69
2, 95091, Note_on_c, 0, 52, 72
2, 95144, Note_on_c, 0, 61, 0
2, 95160, Control_c, 0, 64, 44
2, 95175, Control_c, 0, 64, 43
2, 95197, Note_on_c, 0, 69, 0
2, 95198, Control_c, 0, 64, 43
2, 95244, Control_c, 0, 64, 42
2, 95297, Note_on_c, 0, 60, 73
2, 95380, Control_c, 0, 64, 43
2, 95396, Control_c, 0, 64, 44
2, 95456, Control_c, 0, 64, 45
2, 95471, Control_c, 0, 64, 45
2, 95501, Note_on_c, 0, 51, 76
2, 95541, Note_on_c, 0, 52, 0
2, 95592, Control_c, 0, 64, 46
2, 95608, Control_c, 0, 64, 46
2, 95622, Control_c, 0, 64, 47
2, 95638, Control_c, 0, 64, 47
2, 95713, Note_on_c, 0, 60, 0
2, 95719, Note_on_c, 0, 59, 73
2, 95925, Note_on_c, 0, 50, 68
2, 95936, Note_on_c, 0, 68, 70
2, 95961, Note_on_c, 0, 51, 0
2, 95997, Note_on_c, 0, 59, 0
2, 96011, Control_c, 0, 64, 47
2, 96026, Control_c, 0, 64, 46
2, 96057, Control_c, 0, 64, 46
2, 96065, Note_on_c, 0, 68, 0
2, 96087, Control_c, 0, 64, 45
2, 96102, Control_c, 0, 64, 44
2, 96133, Control_c, 0, 64, 44
2, 96140, Note_on_c, 0, 59, 68
2, 96164, Control_c, 0, 64, 43
2, 96179, Control_c, 0, 64, 43
2, 96347, Note_on_c, 0, 49, 67
2, 96370, Note_on_c, 0, 50, 0
2, 96546, Note_on_c, 0, 57, 66
2, 96589, Control_c, 0, 64, 43
2, 96604, Note_on_c, 0, 59, 0
2, 96772, Note_on_c, 0, 48, 59
2, 96784, Note_on_c, 0, 65, 59
2, 96789, Note_on_c, 0, 57, 0
2, 96800, Note_on_c, 0, 49, 0
2, 96891, Note_on_c, 0, 65, 0
2, 96989, Note_on_c, 0, 57, 65
2, 96992, Control_c, 0, 64, 44
2, 97008, Control_c, 0, 64, 44
2, 97039, Control_c, 0, 64, 45
2, 97053, Control_c, 0, 64, 45
2, 97068, Control_c, 0, 64, 46
2, 97084, Control_c, 0, 64, 46
2, 97099, Control_c, 0, 64, 47
2, 97219, Note_on_c, 0, 47, 68
2, 97243, Note_on_c, 0, 48, 0
2, 97371, Note_on_c, 0, 47, 0
2, 97458, Note_on_c, 0, 56, 59
2, 97502, Control_c, 0, 64, 48
2, 97518, Control_c, 0, 64, 48
2, 97522, Note_on_c, 0, 57, 0
2, 97537, Note_on_c, 0, 54, 60
2, 97547, Control_c, 0, 64, 49
2, 97547, Note_on_c, 0, 56, 0
2, 97563, Control_c, 0, 64, 50
2, 97578, Control_c, 0, 64, 50
2, 97640, Note_on_c, 0, 56, 60
2, 97647, Note_on_c, 0, 54, 0
2, 97653, Note_on_c, 0, 47, 68
2, 97685, Control_c, 0, 64, 50
2, 97730, Control_c, 0, 64, 49
2, 97745, Control_c, 0, 64, 49
2, 97806, Control_c, 0, 64, 48
2, 97821, Control_c, 0, 64, 48
2, 97827, Note_on_c, 0, 56, 0
2, 97855, Note_on_c, 0, 62, 77
2, 97973, Control_c, 0, 64, 48
2, 97988, Control_c, 0, 64, 49
2, 98004, Control_c, 0, 64, 49
2, 98019, Control_c, 0, 64, 50
2, 98033, Control_c, 0, 64, 50
2, 98059, Note_on_c, 0, 45, 67
2, 98109, Control_c, 0, 64, 51
2, 98127, Note_on_c, 0, 47, 0
2, 98175, Note_on_c, 0, 60, 75
2, 98206, Note_on_c, 0, 45, 0
2, 98217, Control_c, 0, 64, 51
2, 98232, Control_c, 0, 64, 50
2, 98248, Control_c, 0, 64, 50
2, 98249, Note_on_c, 0, 62, 0
2, 98275, Note_on_c, 0, 59, 77
2, 98286, Control_c, 0, 64, 49
2, 98301, Control_c, 0, 64, 49
2, 98301, Note_on_c, 0, 60, 0
2, 98316, Control_c, 0, 64, 48
2, 98331, Control_c, 0, 64, 48
2, 98352, Note_on_c, 0, 57, 68
2, 98357, Note_on_c, 0, 59, 0
2, 98362, Control_c, 0, 64, 47
2, 98377, Control_c, 0, 64, 46
2, 98391, Control_c, 0, 64, 46
2, 98407, Control_c, 0, 64, 45
2, 98463, Note_on_c, 0, 45, 78
2, 98463, Note_on_c, 0, 59, 80
2, 98466, Note_on_c, 0, 57, 0
2, 98573, Note_on_c, 0, 59, 0
2, 98685, Note_on_c, 0, 65, 89
2, 98695, Control_c, 0, 64, 45
2, 98710, Control_c, 0, 64, 44
2, 98878, Note_on_c, 0, 44, 79
2, 98893, Control_c, 0, 64, 44
2, 98909, Note_on_c, 0, 45, 0
2, 98938, Control_c, 0, 64, 43
2, 98953, Control_c, 0, 64, 43
2, 98985, Note_on_c, 0, 64, 81
2, 99010, Note_on_c, 0, 44, 0
2, 99016, Note_on_c, 0, 65, 0
2, 99068, Control_c, 0, 64, 43
2, 99081, Note_on_c, 0, 62, 79
2, 99081, Note_on_c, 0, 64, 0
2, 99084, Control_c, 0, 64, 44
2, 99099, Control_c, 0, 64, 44
2, 99115, Control_c, 0, 64, 45
2, 99144, Control_c, 0, 64, 45
2, 99168, Note_on_c, 0, 61, 83
2, 99175, Control_c, 0, 64, 46
2, 99175, Note_on_c, 0, 62, 0
2, 99259, Note_on_c, 0, 61, 0
2, 99280, Note_on_c, 0, 62, 79
2, 99300, Note_on_c, 0, 44, 77
2, 99448, Control_c, 0, 64, 45
2, 99452, Note_on_c, 0, 62, 0
2, 99505, Note_on_c, 0, 71, 91
2, 99524, Control_c, 0, 64, 45
2, 99661, Control_c, 0, 64, 46
2, 99677, Control_c, 0, 64, 47
2, 99692, Control_c, 0, 64, 47
2, 99720, Note_on_c, 0, 40, 84
2, 99726, Note_on_c, 0, 44, 0
2, 99737, Control_c, 0, 64, 48
2, 99752, Control_c, 0, 64, 48
2, 99805, Control_c, 0, 64, 49
2, 99805, Note_on_c, 0, 69, 72
2, 99806, Note_on_c, 0, 71, 0
2, 99836, Control_c, 0, 64, 49
2, 99852, Control_c, 0, 64, 50
2, 99897, Control_c, 0, 64, 49
2, 99909, Note_on_c, 0, 68, 84
2, 99919, Note_on_c, 0, 69, 0
2, 99928, Control_c, 0, 64, 49
2, 99943, Control_c, 0, 64, 48
2, 99947, Note_on_c, 0, 40, 0
2, 99958, Control_c, 0, 64, 47
2, 99973, Control_c, 0, 64, 46
2, 99988, Control_c, 0, 64, 46
2, 99995, Note_on_c, 0, 66, 76
2, 99996, Note_on_c, 0, 68, 0
2, 100004, Control_c, 0, 64, 45
2, 100035, Control_c, 0, 64, 45
2, 100092, Note_on_c, 0, 66, 0
2, 100119, Note_on_c, 0, 68, 81
2, 100122, Note_on_c, 0, 40, 85
2, 100126, Control_c, 0, 64, 45
2, 100141, Control_c, 0, 64, 46
2, 100156, Control_c, 0, 64, 46
2, 100171, Control_c, 0, 64, 47
2, 100202, Control_c, 0, 64, 47
2, 100216, Control_c, 0, 64, 48
2, 100231, Control_c, 0, 64, 48
2, 100269, Note_on_c, 0, 68, 0
2, 100315, Note_on_c, 0, 40, 0
2, 100329, Note_on_c, 0, 74, 93
2, 100505, Control_c, 0, 64, 48
2, 100528, Note_on_c, 0, 45, 81
2, 100535, Control_c, 0, 64, 47
2, 100550, Control_c, 0, 64, 47
2, 100741, Control_c, 0, 64, 47
2, 100753, Note_on_c, 0, 72, 74
2, 100787, Control_c, 0, 64, 48
2, 100802, Control_c, 0, 64, 49
2, 100838, Note_on_c, 0, 74, 0
2, 100842, Note_on_c, 0, 71, 77
2, 100868, Note_on_c, 0, 72, 0
2, 100879, Control_c, 0, 64, 49
2, 100924, Control_c, 0, 64, 50
2, 100964, Note_on_c, 0, 71, 0
2, 100965, Note_on_c, 0, 72, 79
2, 101062, Note_on_c, 0, 50, 68
2, 101110, Note_on_c, 0, 45, 0
2, 101124, Control_c, 0, 64, 49
2, 101138, Control_c, 0, 64, 48
2, 101141, Note_on_c, 0, 50, 0
2, 101142, Note_on_c, 0, 69, 77
2, 101146, Note_on_c, 0, 72, 0
2, 101152, Note_on_c, 0, 52, 76
2, 101236, Note_on_c, 0, 52, 0
2, 101240, Note_on_c, 0, 54, 83
2, 101339, Note_on_c, 0, 54, 0
2, 101343, Control_c, 0, 64, 49
2, 101349, Note_on_c, 0, 70, 80
2, 101352, Note_on_c, 0, 55, 66
2, 101376, Note_on_c, 0, 69, 0
2, 101404, Control_c, 0, 64, 50
2, 101551, Note_on_c, 0, 51, 80
2, 101561, Note_on_c, 0, 55, 0
2, 101679, Control_c, 0, 64, 50
2, 101724, Control_c, 0, 64, 51
2, 101753, Note_on_c, 0, 50, 66
2, 101755, Control_c, 0, 64, 51
2, 101755, Note_on_c, 0, 71, 86
2, 101773, Note_on_c, 0, 51, 0
2, 101789, Note_on_c, 0, 70, 0
2, 101946, Note_on_c, 0, 56, 75
2, 101951, Note_on_c, 0, 50, 0
2, 102155, Note_on_c, 0, 72, 81
2, 102157, Note_on_c, 0, 71, 0
2, 102161, Note_on_c, 0, 57, 67
2, 102163, Note_on_c, 0, 56, 0
2, 102355, Note_on_c, 0, 53, 79
2, 102375, Note_on_c, 0, 57, 0
2, 102446, Control_c, 0, 64, 51
2, 102491, Control_c, 0, 64, 50
2, 102522, Control_c, 0, 64, 50
2, 102560, Note_on_c, 0, 52, 63
2, 102562, Note_on_c, 0, 73, 89
2, 102568, Control_c, 0, 64, 49
2, 102568, Note_on_c, 0, 53, 0
2, 102599, Control_c, 0, 64, 49
2, 102644, Control_c, 0, 64, 48
2, 102645, Note_on_c, 0, 72, 0
2, 102750, Control_c, 0, 64, 48
2, 102761, Note_on_c, 0, 58, 85
2, 102762, Note_on_c, 0, 52, 0
2, 102811, Control_c, 0, 64, 47
2, 102879, Control_c, 0, 64, 47
2, 102925, Control_c, 0, 64, 46
2, 102984, Note_on_c, 0, 74, 93
2, 103023, Note_on_c, 0, 73, 0
2, 103187, Note_on_c, 0, 57, 74
2, 103216, Note_on_c, 0, 58, 0
2, 103226, Control_c, 0, 64, 46
2, 103393, Note_on_c, 0, 76, 82
2, 103435, Note_on_c, 0, 74, 0
2, 103576, Control_c, 0, 64, 45
2, 103577, Note_on_c, 0, 57, 0
2, 103584, Note_on_c, 0, 55, 64
2, 103590, Control_c, 0, 64, 45
2, 103606, Control_c, 0, 64, 44
2, 103789, Note_on_c, 0, 53, 63
2, 103812, Control_c, 0, 64, 45
2, 103839, Note_on_c, 0, 55, 0
2, 103899, Note_on_c, 0, 73, 79
2, 103903, Note_on_c, 0, 53, 0
2, 103906, Note_on_c, 0, 52, 68
2, 103922, Note_on_c, 0, 76, 0
2, 103980, Control_c, 0, 64, 45
2, 104006, Note_on_c, 0, 53, 69
2, 104009, Note_on_c, 0, 52, 0
2, 104018, Note_on_c, 0, 74, 88
2, 104039, Note_on_c, 0, 73, 0
2, 104073, Note_on_c, 0, 55, 65
2, 104095, Note_on_c, 0, 53, 0
2, 104111, Note_on_c, 0, 76, 82
2, 104117, Control_c, 0, 64, 46
2, 104153, Note_on_c, 0, 74, 0
2, 104223, Control_c, 0, 64, 46
2, 104224, Note_on_c, 0, 55, 0
2, 104245, Note_on_c, 0, 77, 87
2, 104251, Note_on_c, 0, 57, 57
2, 104269, Note_on_c, 0, 76, 0
2, 104479, Note_on_c, 0, 72, 74
2, 104605, Note_on_c, 0, 77, 0
2, 104688, Note_on_c, 0, 71, 72
2, 104692, Note_on_c, 0, 56, 66
2, 104724, Note_on_c, 0, 72, 0
2, 104733, Note_on_c, 0, 57, 0
2, 104888, Note_on_c, 0, 75, 81
2, 104900, Control_c, 0, 64, 45
2, 104939, Note_on_c, 0, 71, 0
2, 104961, Control_c, 0, 64, 45
2, 104976, Control_c, 0, 64, 44
2, 105021, Control_c, 0, 64, 44
2, 105052, Control_c, 0, 64, 43
2, 105082, Control_c, 0, 64, 43
2, 105108, Note_on_c, 0, 76, 80
2, 105113, Note_on_c, 0, 55, 60
2, 105140, Note_on_c, 0, 56, 0
2, 105152, Note_on_c, 0, 75, 0
2, 105338, Note_on_c, 0, 70, 77
2, 105437, Note_on_c, 0, 76, 0
2, 105500, Control_c, 0, 64, 43
2, 105540, Note_on_c, 0, 54, 66
2, 105543, Note_on_c, 0, 69, 76
2, 105577, Note_on_c, 0, 70, 0
2, 105582, Note_on_c, 0, 55, 0
2, 105744, Note_on_c, 0, 73, 80
2, 105787, Note_on_c, 0, 69, 0
2, 105805, Control_c, 0, 64, 44
2, 105926, Control_c, 0, 64, 44
2, 105949, Control_c, 0, 64, 45
2, 105973, Note_on_c, 0, 74, 73
2, 105990, Note_on_c, 0, 53, 51
2, 106005, Note_on_c, 0, 54, 0
2, 106006, Note_on_c, 0, 73, 0
2, 106182, Note_on_c, 0, 68, 76
2, 106238, Control_c, 0, 64, 44
2, 106287, Note_on_c, 0, 74, 0
2, 106408, Note_on_c, 0, 52, 58
2, 106421, Note_on_c, 0, 53, 0
2, 106605, Note_on_c, 0, 69, 69
2, 106643, Note_on_c, 0, 68, 0
2, 106841, Note_on_c, 0, 50, 58
2, 106863, Note_on_c, 0, 52, 0
2, 106974, Control_c, 0, 64, 45
2, 107020, Control_c, 0, 64, 45
2, 107040, Note_on_c, 0, 71, 62
2, 107064, Note_on_c, 0, 69, 0
2, 107228, Note_on_c, 0, 71, 0
2, 107241, Note_on_c, 0, 64, 68
2, 107295, Control_c, 0, 64, 46
2, 107310, Control_c, 0, 64, 47
2, 107386, Control_c, 0, 64, 47
2, 107446, Control_c, 0, 64, 48
2, 107452, Note_on_c, 0, 76, 82
2, 107455, Note_on_c, 0, 50, 0
2, 107463, Note_on_c, 0, 48, 56
2, 107544, Note_on_c, 0, 48, 0
2, 107557, Note_on_c, 0, 47, 57
2, 107605, Note_on_c, 0, 64, 0
2, 107656, Note_on_c, 0, 47, 0
2, 107663, Note_on_c, 0, 48, 76
2, 107756, Note_on_c, 0, 74, 81
2, 107851, Note_on_c, 0, 72, 85
2, 107858, Note_on_c, 0, 76, 0
2, 107870, Note_on_c, 0, 45, 55
2, 107872, Note_on_c, 0, 48, 0
2, 107913, Note_on_c, 0, 74, 0
2, 107951, Note_on_c, 0, 71, 84
2, 107999, Note_on_c, 0, 72, 0
2, 108065, Note_on_c, 0, 45, 0
2, 108072, Note_on_c, 0, 74, 79
2, 108076, Note_on_c, 0, 52, 52
2, 108079, Control_c, 0, 64, 47
2, 108079, Note_on_c, 0, 71, 0
2, 108187, Note_on_c, 0, 72, 82
2, 108215, Control_c, 0, 64, 47
2, 108268, Control_c, 0, 64, 46
2, 108290, Note_on_c, 0, 74, 0
2, 108295, Note_on_c, 0, 71, 79
2, 108323, Note_on_c, 0, 72, 0
2, 108344, Control_c, 0, 64, 46
2, 108387, Note_on_c, 0, 69, 75
2, 108410, Note_on_c, 0, 71, 0
2, 108436, Control_c, 0, 64, 45
2, 108488, Note_on_c, 0, 69, 0
2, 108492, Note_on_c, 0, 40, 47
2, 108500, Note_on_c, 0, 72, 81
2, 108613, Note_on_c, 0, 71, 73
2, 108680, Note_on_c, 0, 40, 0
2, 108690, Note_on_c, 0, 72, 0
2, 108715, Note_on_c, 0, 69, 73
2, 108726, Note_on_c, 0, 71, 0
2, 108800, Note_on_c, 0, 52, 0
2, 108815, Note_on_c, 0, 69, 0
2, 108824, Note_on_c, 0, 68, 64
2, 108915, Note_on_c, 0, 68, 0
2, 108924, Note_on_c, 0, 69, 76
2, 108956, Note_on_c, 0, 45, 53
2, 108991, Note_on_c, 0, 69, 0
2, 108998, Note_on_c, 0, 68, 72
2, 109084, Note_on_c, 0, 69, 76
2, 109096, Note_on_c, 0, 68, 0
2, 109226, Note_on_c, 0, 47, 58
2, 109233, Control_c, 0, 64, 44
2, 109263, Note_on_c, 0, 45, 0
2, 109295, Control_c, 0, 64, 44
2, 109325, Note_on_c, 0, 48, 71
2, 109326, Control_c, 0, 64, 43
2, 109329, Note_on_c, 0, 47, 0
2, 109445, Note_on_c, 0, 50, 75
2, 109450, Note_on_c, 0, 48, 0
2, 109535, Note_on_c, 0, 50, 0
2, 109549, Note_on_c, 0, 52, 71
2, 109657, Control_c, 0, 64, 44
2, 109666, Note_on_c, 0, 54, 68
2, 109674, Note_on_c, 0, 52, 0
2, 109807, Note_on_c, 0, 56, 70
2, 109815, Note_on_c, 0, 54, 0
2, 109927, Note_on_c, 0, 69, 0
2, 110022, Note_on_c, 0, 57, 52
2, 110026, Note_on_c, 0, 56, 0
2, 110387, Note_on_c, 0, 57, 0
2, 110776, Note_on_c, 0, 45, 24
2, 111100, Control_c, 0, 64, 44
2, 111191, Control_c, 0, 64, 45
2, 111232, Note_on_c, 0, 45, 0
2, 112211, Control_c, 0, 64, 44
2, 112286, Control_c, 0, 64, 44
2, 112302, Control_c, 0, 64, 43
2, 112409, Control_c, 0, 64, 43
2, 112438, Control_c, 0, 64, 41
2, 112454, Control_c, 0, 64, 40
2, 112651, Control_c, 0, 64, 41
2, 112666, Control_c, 0, 64, 43
2, 112697, Control_c, 0, 64, 43
2, 112727, Control_c, 0, 64, 44
2, 112757, Control_c, 0, 64, 44
2, 112788, Control_c, 0, 64, 45
2, 112871, Control_c, 0, 64, 45
2, 112886, Control_c, 0, 64, 46
2, 112902, Control_c, 0, 64, 48
2, 112917, Control_c, 0, 64, 48
2, 112947, Control_c, 0, 64, 49
2, 112963, Control_c, 0, 64, 49
2, 112979, Control_c, 0, 64, 50
2, 113039, Control_c, 0, 64, 50
2, 113055, Control_c, 0, 64, 51
2, 113084, Control_c, 0, 64, 51
2, 113131, Control_c, 0, 64, 52
2, 113192, Control_c, 0, 64, 52
2, 113298, Control_c, 0, 64, 53
2, 113358, Control_c, 0, 64, 53
2, 113389, Control_c, 0, 64, 54
2, 114246, Control_c, 0, 64, 54
2, 114620, Control_c, 0, 64, 54
2, 114651, Control_c, 0, 64, 53
2, 114680, Control_c, 0, 64, 53
2, 114696, Control_c, 0, 64, 52
2, 114711, Control_c, 0, 64, 52
2, 114742, Control_c, 0, 64, 51
2, 114757, Control_c, 0, 64, 51
2, 114772, Control_c, 0, 64, 50
2, 114787, Control_c, 0, 64, 50
2, 114802, Control_c, 0, 64, 49
2, 114817, Control_c, 0, 64, 48
2, 114832, Control_c, 0, 64, 47
2, 114847, Control_c, 0, 64, 45
2, 114863, Control_c, 0, 64, 45
2, 114878, Control_c, 0, 64, 44
2, 114893, Control_c, 0, 64, 44
2, 114908, Control_c, 0, 64, 43
2, 114939, Control_c, 0, 64, 41
2, 114954, Control_c, 0, 64, 40
2, 114968, Control_c, 0, 64, 40
2, 115136, Control_c, 0, 64, 38
2, 115159, Control_c, 0, 64, 34
2, 115175, Control_c, 0, 64, 23
2, 115189, Control_c, 0, 64, 0
2, 115191,End_track
0, 0, End_of_file
