0, 0, Header, 1, 2, 480
1, 0, Start_track
1, 0, Tempo, 500000
1, 0, Time_signature, 4, 2, 24, 8
1, 1, End_track
2, 0, Start_track
2, 0, Program_c, 0, 0
2, 0, Control_c, 0, 64, 0
2, 0, Control_c, 0, 67, 0
2, 840, Note_on_c, 0, 45, 36
2, 985, Note_on_c, 0, 72, 58
2, 990, Note_on_c, 0, 45, 0
2, 1088, Note_on_c, 0, 72, 0
2, 1114, Note_on_c, 0, 74, 55
2, 1196, Note_on_c, 0, 74, 0
2, 1209, Note_on_c, 0, 76, 66
2, 1344, Note_on_c, 0, 57, 38
2, 1359, Note_on_c, 0, 77, 64
2, 1365, Note_on_c, 0, 76, 0
2, 1597, Note_on_c, 0, 72, 66
2, 1841, Note_on_c, 0, 71, 62
2, 1854, Note_on_c, 0, 72, 0
2, 1863, Note_on_c, 0, 56, 45
2, 1936, Note_on_c, 0, 57, 0
2, 2086, Note_on_c, 0, 75, 74
2, 2100, Note_on_c, 0, 77, 0
2, 2163, Note_on_c, 0, 71, 0
2, 2352, Note_on_c, 0, 76, 62
2, 2358, Note_on_c, 0, 55, 42
2, 2386, Note_on_c, 0, 75, 0
2, 2420, Note_on_c, 0, 56, 0
2, 2590, Note_on_c, 0, 70, 63
2, 2859, Note_on_c, 0, 54, 47
2, 2859, Note_on_c, 0, 69, 61
2, 2869, Note_on_c, 0, 70, 0
2, 2875, Note_on_c, 0, 55, 0
2, 3096, Note_on_c, 0, 73, 68
2, 3102, Note_on_c, 0, 76, 0
2, 3153, Note_on_c, 0, 69, 0
2, 3358, Note_on_c, 0, 74, 60
2, 3362, Note_on_c, 0, 53, 45
2, 3389, Note_on_c, 0, 73, 0
2, 3396, Note_on_c, 0, 54, 0
2, 3597, Note_on_c, 0, 68, 64
2, 3649, Note_on_c, 0, 74, 0
2, 3851, Note_on_c, 0, 53, 0
2, 3855, Note_on_c, 0, 52, 49
2, 4088, Note_on_c, 0, 68, 0
2, 4093, Note_on_c, 0, 69, 65
2, 4351, Note_on_c, 0, 50, 46
2, 4355, Note_on_c, 0, 52, 0
2, 4571, Note_on_c, 0, 69, 0
2, 4581, Note_on_c, 0, 71, 62
2, 4780, Note_on_c, 0, 71, 0
2, 4815, Note_on_c, 0, 64, 57
2, 4888, Note_on_c, 0, 50, 0
2, 4927, Note_on_c, 0, 48, 48
2, 5039, Note_on_c, 0, 50, 58
2, 5042, Note_on_c, 0, 48, 0
2, 5137, Note_on_c, 0, 50, 0
2, 5150, Note_on_c, 0, 52, 64
2, 5257, Note_on_c, 0, 52, 0
2, 5290, Note_on_c, 0, 69, 69
2, 5296, Note_on_c, 0, 53, 53
2, 5346, Note_on_c, 0, 64, 0
2, 5535, Note_on_c, 0, 53, 0
2, 5540, Note_on_c, 0, 48, 61
2, 5797, Note_on_c, 0, 68, 72
2, 5799, Note_on_c, 0, 47, 54
2, 5817, Note_on_c, 0, 48, 0
2, 5857, Note_on_c, 0, 69, 0
2, 6035, Note_on_c, 0, 47, 0
2, 6045, Note_on_c, 0, 51, 59
2, 6301, Note_on_c, 0, 51, 0
2, 6306, Note_on_c, 0, 52, 42
2, 6308, Note_on_c, 0, 67, 58
2, 6318, Note_on_c, 0, 68, 0
2, 6549, Note_on_c, 0, 52, 0
2, 6554, Note_on_c, 0, 46, 49
2, 6799, Note_on_c, 0, 45, 45
2, 6803, Note_on_c, 0, 66, 57
2, 6813, Note_on_c, 0, 46, 0
2, 6817, Note_on_c, 0, 67, 0
2, 7019, Note_on_c, 0, 45, 0
2, 7046, Note_on_c, 0, 49, 54
2, 7278, Note_on_c, 0, 49, 0
2, 7308, Note_on_c, 0, 65, 52
2, 7310, Note_on_c, 0, 50, 40
2, 7313, Note_on_c, 0, 66, 0
2, 7541, Note_on_c, 0, 50, 0
2, 7556, Note_on_c, 0, 44, 44
2, 7787, Note_on_c, 0, 65, 0
2, 7811, Note_on_c, 0, 64, 54
2, 8056, Note_on_c, 0, 45, 43
2, 8094, Note_on_c, 0, 44, 0
2, 8305, Note_on_c, 0, 64, 0
2, 8321, Note_on_c, 0, 62, 48
2, 8559, Note_on_c, 0, 45, 0
2, 8567, Note_on_c, 0, 47, 41
2, 8835, Note_on_c, 0, 40, 38
2, 8853, Note_on_c, 0, 47, 0
2, 8977, Note_on_c, 0, 40, 0
2, 9010, Note_on_c, 0, 62, 0
2, 9066, Note_on_c, 0, 60, 50
2, 9142, Note_on_c, 0, 60, 0
2, 9157, Note_on_c, 0, 59, 63
2, 9260, Note_on_c, 0, 59, 0
2, 9288, Note_on_c, 0, 45, 40
2, 9289, Note_on_c, 0, 60, 64
2, 9545, Note_on_c, 0, 69, 67
2, 9557, Note_on_c, 0, 60, 0
2, 9788, Note_on_c, 0, 47, 52
2, 9842, Note_on_c, 0, 45, 0
2, 10010, Note_on_c, 0, 69, 0
2, 10026, Note_on_c, 0, 68, 68
2, 10296, Note_on_c, 0, 49, 50
2, 10296, Note_on_c, 0, 76, 61
2, 10308, Note_on_c, 0, 47, 0
2, 10520, Note_on_c, 0, 68, 0
2, 10521, Note_on_c, 0, 76, 0
2, 10532, Note_on_c, 0, 67, 57
2, 10765, Note_on_c, 0, 50, 51
2, 10835, Note_on_c, 0, 49, 0
2, 10949, Note_on_c, 0, 67, 0
2, 10958, Note_on_c, 0, 50, 0
2, 11016, Note_on_c, 0, 65, 63
2, 11102, Note_on_c, 0, 65, 0
2, 11118, Note_on_c, 0, 64, 69
2, 11208, Note_on_c, 0, 64, 0
2, 11230, Note_on_c, 0, 47, 60
2, 11231, Note_on_c, 0, 63, 74
2, 11474, Note_on_c, 0, 71, 75
2, 11531, Note_on_c, 0, 63, 0
2, 11721, Note_on_c, 0, 49, 78
2, 11769, Note_on_c, 0, 47, 0
2, 11875, Note_on_c, 0, 71, 0
2, 11958, Note_on_c, 0, 70, 77
2, 12202, Note_on_c, 0, 51, 52
2, 12204, Note_on_c, 0, 78, 74
2, 12236, Note_on_c, 0, 70, 0
2, 12259, Note_on_c, 0, 49, 0
2, 12426, Note_on_c, 0, 78, 0
2, 12453, Note_on_c, 0, 69, 65
2, 12684, Note_on_c, 0, 52, 53
2, 12694, Note_on_c, 0, 51, 0
2, 12757, Note_on_c, 0, 69, 0
2, 12789, Note_on_c, 0, 52, 0
2, 12800, Note_on_c, 0, 67, 70
2, 12908, Note_on_c, 0, 69, 78
2, 12914, Note_on_c, 0, 67, 0
2, 13009, Note_on_c, 0, 69, 0
2, 13010, Note_on_c, 0, 71, 80
2, 13149, Note_on_c, 0, 64, 48
2, 13152, Note_on_c, 0, 72, 75
2, 13163, Note_on_c, 0, 71, 0
2, 13402, Note_on_c, 0, 67, 64
2, 13675, Note_on_c, 0, 66, 70
2, 13677, Note_on_c, 0, 63, 49
2, 13679, Note_on_c, 0, 64, 0
2, 13704, Note_on_c, 0, 72, 0
2, 13732, Note_on_c, 0, 67, 0
2, 13919, Note_on_c, 0, 70, 74
2, 13983, Note_on_c, 0, 66, 0
2, 14171, Note_on_c, 0, 71, 66
2, 14190, Note_on_c, 0, 62, 48
2, 14193, Note_on_c, 0, 63, 0
2, 14210, Note_on_c, 0, 70, 0
2, 14424, Note_on_c, 0, 65, 62
2, 14613, Note_on_c, 0, 71, 0
2, 14668, Note_on_c, 0, 64, 64
2, 14687, Note_on_c, 0, 61, 45
2, 14705, Note_on_c, 0, 65, 0
2, 14712, Note_on_c, 0, 62, 0
2, 14913, Note_on_c, 0, 68, 68
2, 14960, Note_on_c, 0, 64, 0
2, 15167, Note_on_c, 0, 69, 65
2, 15184, Note_on_c, 0, 60, 45
2, 15193, Note_on_c, 0, 61, 0
2, 15194, Note_on_c, 0, 68, 0
2, 15411, Note_on_c, 0, 63, 56
2, 15470, Note_on_c, 0, 69, 0
2, 15641, Note_on_c, 0, 59, 55
2, 15647, Note_on_c, 0, 60, 0
2, 15878, Note_on_c, 0, 63, 0
2, 15899, Note_on_c, 0, 64, 62
2, 16148, Note_on_c, 0, 57, 51
2, 16158, Note_on_c, 0, 59, 0
2, 16333, Note_on_c, 0, 64, 0
2, 16372, Note_on_c, 0, 66, 58
2, 16609, Note_on_c, 0, 59, 60
2, 16670, Note_on_c, 0, 57, 0
2, 16708, Note_on_c, 0, 59, 0
2, 16716, Note_on_c, 0, 55, 51
2, 16751, Note_on_c, 0, 66, 0
2, 16825, Note_on_c, 0, 57, 64
2, 16831, Note_on_c, 0, 55, 0
2, 16919, Note_on_c, 0, 57, 0
2, 16923, Note_on_c, 0, 59, 69
2, 17035, Note_on_c, 0, 59, 0
2, 17067, Note_on_c, 0, 60, 51
2, 17067, Note_on_c, 0, 76, 70
2, 17291, Note_on_c, 0, 60, 0
2, 17310, Note_on_c, 0, 55, 62
2, 17560, Note_on_c, 0, 55, 0
2, 17568, Note_on_c, 0, 75, 73
2, 17575, Note_on_c, 0, 54, 54
2, 17613, Note_on_c, 0, 76, 0
2, 17806, Note_on_c, 0, 58, 62
2, 17849, Note_on_c, 0, 54, 0
2, 18060, Note_on_c, 0, 59, 50
2, 18063, Note_on_c, 0, 58, 0
2, 18066, Note_on_c, 0, 74, 64
2, 18086, Note_on_c, 0, 75, 0
2, 18303, Note_on_c, 0, 59, 0
2, 18310, Note_on_c, 0, 53, 58
2, 18544, Note_on_c, 0, 52, 49
2, 18556, Note_on_c, 0, 73, 68
2, 18558, Note_on_c, 0, 53, 0
2, 18588, Note_on_c, 0, 74, 0
2, 18810, Note_on_c, 0, 52, 0
2, 18813, Note_on_c, 0, 56, 60
2, 19049, Note_on_c, 0, 56, 0
2, 19061, Note_on_c, 0, 72, 62
2, 19063, Note_on_c, 0, 57, 49
2, 19096, Note_on_c, 0, 73, 0
2, 19289, Note_on_c, 0, 57, 0
2, 19300, Note_on_c, 0, 51, 50
2, 19548, Note_on_c, 0, 72, 0
2, 19554, Note_on_c, 0, 71, 60
2, 19786, Note_on_c, 0, 52, 50
2, 19831, Note_on_c, 0, 51, 0
2, 20040, Note_on_c, 0, 71, 0
2, 20042, Note_on_c, 0, 69, 56
2, 20281, Note_on_c, 0, 52, 0
2, 20283, Note_on_c, 0, 54, 46
2, 20505, Note_on_c, 0, 47, 41
2, 20540, Note_on_c, 0, 54, 0
2, 20671, Note_on_c, 0, 47, 0
2, 20686, Note_on_c, 0, 69, 0
2, 20745, Note_on_c, 0, 67, 54
2, 20831, Note_on_c, 0, 67, 0
2, 20840, Note_on_c, 0, 66, 67
2, 20956, Note_on_c, 0, 66, 0
2, 20964, Note_on_c, 0, 52, 46
2, 20975, Note_on_c, 0, 67, 65
2, 21234, Note_on_c, 0, 76, 69
2, 21249, Note_on_c, 0, 67, 0
2, 21467, Note_on_c, 0, 54, 65
2, 21534, Note_on_c, 0, 52, 0
2, 21659, Note_on_c, 0, 76, 0
2, 21693, Note_on_c, 0, 75, 72
2, 21948, Note_on_c, 0, 54, 0
2, 21960, Note_on_c, 0, 83, 67
2, 21962, Note_on_c, 0, 56, 53
2, 21987, Note_on_c, 0, 75, 0
2, 22165, Note_on_c, 0, 83, 0
2, 22186, Note_on_c, 0, 74, 55
2, 22345, Note_on_c, 0, 56, 0
2, 22428, Note_on_c, 0, 57, 50
2, 22462, Note_on_c, 0, 57, 0
2, 22645, Note_on_c, 0, 72, 64
2, 22649, Note_on_c, 0, 74, 0
2, 22655, Note_on_c, 0, 45, 43
2, 22695, Note_on_c, 0, 45, 0
2, 22744, Note_on_c, 0, 72, 0
2, 22751, Note_on_c, 0, 71, 65
2, 22875, Note_on_c, 0, 71, 0
2, 22882, Note_on_c, 0, 72, 70
2, 22891, Note_on_c, 0, 57, 55
2, 23108, Note_on_c, 0, 72, 0
2, 23129, Note_on_c, 0, 69, 77
2, 23383, Note_on_c, 0, 71, 77
2, 23422, Note_on_c, 0, 69, 0
2, 23553, Control_c, 0, 64, 9
2, 23571, Control_c, 0, 64, 15
2, 23591, Control_c, 0, 64, 18
2, 23592, Note_on_c, 0, 57, 0
2, 23609, Note_on_c, 0, 56, 65
2, 23610, Control_c, 0, 64, 20
2, 23629, Control_c, 0, 64, 21
2, 23822, Control_c, 0, 64, 20
2, 23842, Note_on_c, 0, 56, 0
2, 23860, Control_c, 0, 64, 19
2, 23864, Note_on_c, 0, 64, 55
2, 23879, Control_c, 0, 64, 18
2, 23881, Note_on_c, 0, 73, 73
2, 23899, Control_c, 0, 64, 17
2, 23902, Note_on_c, 0, 71, 0
2, 23917, Control_c, 0, 64, 15
2, 23936, Control_c, 0, 64, 13
2, 23956, Control_c, 0, 64, 11
2, 23974, Control_c, 0, 64, 9
2, 24013, Control_c, 0, 64, 0
2, 24026, Note_on_c, 0, 64, 0
2, 24105, Note_on_c, 0, 55, 59
2, 24308, Note_on_c, 0, 55, 0
2, 24334, Note_on_c, 0, 55, 19
2, 24345, Note_on_c, 0, 74, 60
2, 24350, Note_on_c, 0, 73, 0
2, 24382, Note_on_c, 0, 74, 0
2, 24554, Note_on_c, 0, 55, 0
2, 24568, Note_on_c, 0, 62, 56
2, 24572, Note_on_c, 0, 54, 54
2, 24603, Note_on_c, 0, 62, 0
2, 24642, Note_on_c, 0, 54, 0
2, 24667, Note_on_c, 0, 52, 58
2, 24786, Note_on_c, 0, 52, 0
2, 24798, Note_on_c, 0, 54, 51
2, 24798, Note_on_c, 0, 74, 68
2, 25020, Note_on_c, 0, 54, 0
2, 25026, Note_on_c, 0, 50, 66
2, 25285, Note_on_c, 0, 52, 71
2, 25325, Note_on_c, 0, 50, 0
2, 25473, Note_on_c, 0, 74, 0
2, 25491, Note_on_c, 0, 73, 75
2, 25757, Note_on_c, 0, 81, 69
2, 25761, Note_on_c, 0, 54, 46
2, 25772, Note_on_c, 0, 52, 0
2, 25795, Note_on_c, 0, 73, 0
2, 25956, Note_on_c, 0, 81, 0
2, 25987, Note_on_c, 0, 72, 64
2, 26177, Note_on_c, 0, 54, 0
2, 26217, Note_on_c, 0, 55, 49
2, 26251, Note_on_c, 0, 55, 0
2, 26440, Note_on_c, 0, 43, 58
2, 26442, Note_on_c, 0, 72, 0
2, 26446, Note_on_c, 0, 71, 61
2, 26479, Note_on_c, 0, 43, 0
2, 26543, Note_on_c, 0, 71, 0
2, 26547, Note_on_c, 0, 69, 65
2, 26668, Note_on_c, 0, 55, 50
2, 26679, Note_on_c, 0, 69, 0
2, 26679, Note_on_c, 0, 71, 73
2, 26911, Note_on_c, 0, 71, 0
2, 26920, Note_on_c, 0, 67, 71
2, 27165, Note_on_c, 0, 69, 79
2, 27218, Note_on_c, 0, 67, 0
2, 27393, Note_on_c, 0, 54, 73
2, 27397, Note_on_c, 0, 55, 0
2, 27639, Note_on_c, 0, 62, 53
2, 27648, Note_on_c, 0, 71, 73
2, 27653, Note_on_c, 0, 54, 0
2, 27695, Note_on_c, 0, 69, 0
2, 27856, Note_on_c, 0, 62, 0
2, 27874, Note_on_c, 0, 53, 57
2, 28064, Note_on_c, 0, 71, 0
2, 28098, Note_on_c, 0, 72, 68
2, 28171, Note_on_c, 0, 53, 0
2, 28222, Note_on_c, 0, 52, 50
2, 28309, Note_on_c, 0, 52, 0
2, 28338, Note_on_c, 0, 53, 55
2, 28417, Note_on_c, 0, 53, 0
2, 28441, Note_on_c, 0, 55, 53
2, 28549, Note_on_c, 0, 55, 0
2, 28559, Note_on_c, 0, 84, 68
2, 28584, Note_on_c, 0, 57, 43
2, 28686, Note_on_c, 0, 72, 0
2, 28803, Note_on_c, 0, 57, 0
2, 28818, Note_on_c, 0, 52, 58
2, 29071, Note_on_c, 0, 51, 55
2, 29074, Note_on_c, 0, 83, 69
2, 29081, Note_on_c, 0, 52, 0
2, 29126, Note_on_c, 0, 84, 0
2, 29309, Note_on_c, 0, 54, 68
2, 29355, Note_on_c, 0, 51, 0
2, 29577, Note_on_c, 0, 82, 75
2, 29578, Note_on_c, 0, 55, 53
2, 29598, Note_on_c, 0, 54, 0
2, 29604, Note_on_c, 0, 83, 0
2, 29805, Note_on_c, 0, 50, 61
2, 29821, Note_on_c, 0, 55, 0
2, 30055, Note_on_c, 0, 49, 55
2, 30055, Note_on_c, 0, 50, 0
2, 30067, Note_on_c, 0, 81, 69
2, 30113, Note_on_c, 0, 82, 0
2, 30138, Control_c, 0, 64, 9
2, 30311, Note_on_c, 0, 52, 53
2, 30326, Note_on_c, 0, 49, 0
2, 30554, Note_on_c, 0, 80, 62
2, 30560, Note_on_c, 0, 52, 0
2, 30569, Note_on_c, 0, 53, 41
2, 30585, Note_on_c, 0, 81, 0
2, 30801, Note_on_c, 0, 48, 44
2, 30813, Note_on_c, 0, 53, 0
2, 31035, Note_on_c, 0, 79, 63
2, 31049, Note_on_c, 0, 80, 0
2, 31286, Note_on_c, 0, 47, 45
2, 31369, Note_on_c, 0, 48, 0
2, 31425, Control_c, 0, 64, 0
2, 31513, Note_on_c, 0, 79, 0
2, 31519, Note_on_c, 0, 77, 55
2, 31723, Note_on_c, 0, 77, 0
2, 31732, Note_on_c, 0, 48, 46
2, 31742, Note_on_c, 0, 47, 0
2, 31818, Note_on_c, 0, 48, 0
2, 31840, Note_on_c, 0, 50, 51
2, 31964, Note_on_c, 0, 50, 0
2, 31967, Note_on_c, 0, 43, 49
2, 32057, Note_on_c, 0, 43, 0
2, 32084, Note_on_c, 0, 71, 59
2, 32183, Note_on_c, 0, 71, 0
2, 32183, Note_on_c, 0, 72, 64
2, 32284, Note_on_c, 0, 72, 0
2, 32285, Note_on_c, 0, 74, 66
2, 32415, Note_on_c, 0, 55, 45
2, 32420, Note_on_c, 0, 74, 0
2, 32421, Note_on_c, 0, 76, 67
2, 32661, Note_on_c, 0, 71, 66
2, 32914, Note_on_c, 0, 54, 51
2, 32917, Note_on_c, 0, 70, 72
2, 32986, Note_on_c, 0, 76, 0
2, 32998, Note_on_c, 0, 55, 0
2, 33003, Note_on_c, 0, 71, 0
2, 33018, Control_c, 0, 64, 9
2, 33146, Note_on_c, 0, 73, 73
2, 33153, Control_c, 0, 64, 11
2, 33247, Note_on_c, 0, 70, 0
2, 33404, Note_on_c, 0, 74, 71
2, 33407, Note_on_c, 0, 53, 53
2, 33457, Note_on_c, 0, 73, 0
2, 33502, Note_on_c, 0, 54, 0
2, 33646, Note_on_c, 0, 69, 70
2, 33895, Note_on_c, 0, 68, 71
2, 33910, Note_on_c, 0, 52, 51
2, 33928, Note_on_c, 0, 74, 0
2, 33953, Note_on_c, 0, 53, 0
2, 33959, Note_on_c, 0, 69, 0
2, 34017, Control_c, 0, 64, 13
2, 34139, Note_on_c, 0, 71, 74
2, 34170, Control_c, 0, 64, 15
2, 34204, Note_on_c, 0, 68, 0
2, 34323, Control_c, 0, 64, 17
2, 34379, Note_on_c, 0, 51, 48
2, 34384, Note_on_c, 0, 72, 74
2, 34431, Note_on_c, 0, 71, 0
2, 34465, Note_on_c, 0, 52, 0
2, 34638, Note_on_c, 0, 67, 65
2, 34708, Note_on_c, 0, 72, 0
2, 34823, Control_c, 0, 64, 18
2, 34880, Note_on_c, 0, 50, 56
2, 34901, Note_on_c, 0, 51, 0
2, 34996, Control_c, 0, 64, 19
2, 35130, Note_on_c, 0, 66, 65
2, 35167, Note_on_c, 0, 67, 0
2, 35366, Note_on_c, 0, 50, 0
2, 35371, Note_on_c, 0, 48, 55
2, 35437, Control_c, 0, 64, 18
2, 35533, Control_c, 0, 64, 17
2, 35548, Note_on_c, 0, 66, 0
2, 35591, Control_c, 0, 64, 15
2, 35609, Note_on_c, 0, 67, 35
2, 35668, Control_c, 0, 64, 13
2, 35673, Note_on_c, 0, 67, 0
2, 35687, Control_c, 0, 64, 11
2, 35694, Note_on_c, 0, 69, 57
2, 35725, Control_c, 0, 64, 9
2, 35745, Control_c, 0, 64, 0
2, 35793, Note_on_c, 0, 69, 0
2, 35834, Note_on_c, 0, 62, 53
2, 36055, Note_on_c, 0, 48, 0
2, 36082, Note_on_c, 0, 47, 53
2, 36149, Note_on_c, 0, 47, 0
2, 36178, Note_on_c, 0, 45, 51
2, 36289, Note_on_c, 0, 62, 0
2, 36307, Note_on_c, 0, 67, 57
2, 36317, Note_on_c, 0, 45, 0
2, 36318, Note_on_c, 0, 47, 43
2, 36501, Note_on_c, 0, 47, 0
2, 36556, Note_on_c, 0, 55, 57
2, 36803, Note_on_c, 0, 69, 70
2, 36832, Note_on_c, 0, 67, 0
2, 37002, Note_on_c, 0, 55, 0
2, 37025, Note_on_c, 0, 54, 65
2, 37283, Note_on_c, 0, 62, 52
2, 37292, Note_on_c, 0, 71, 70
2, 37299, Note_on_c, 0, 54, 0
2, 37329, Note_on_c, 0, 69, 0
2, 37479, Note_on_c, 0, 62, 0
2, 37523, Note_on_c, 0, 53, 63
2, 37746, Note_on_c, 0, 71, 0
2, 37753, Note_on_c, 0, 72, 70
2, 37995, Note_on_c, 0, 72, 0
2, 37996, Note_on_c, 0, 53, 0
2, 38005, Note_on_c, 0, 52, 67
2, 38096, Note_on_c, 0, 50, 70
2, 38114, Note_on_c, 0, 52, 0
2, 38182, Control_c, 0, 64, 9
2, 38220, Control_c, 0, 64, 11
2, 38230, Note_on_c, 0, 49, 59
2, 38235, Note_on_c, 0, 69, 79
2, 38258, Control_c, 0, 64, 13
2, 38287, Note_on_c, 0, 50, 0
2, 38297, Control_c, 0, 64, 15
2, 38316, Control_c, 0, 64, 17
2, 38373, Control_c, 0, 64, 18
2, 38476, Note_on_c, 0, 57, 74
2, 38509, Control_c, 0, 64, 19
2, 38534, Note_on_c, 0, 49, 0
2, 38723, Note_on_c, 0, 71, 78
2, 38769, Note_on_c, 0, 69, 0
2, 38945, Note_on_c, 0, 56, 72
2, 38945, Note_on_c, 0, 57, 0
2, 39009, Control_c, 0, 64, 18
2, 39067, Control_c, 0, 64, 17
2, 39183, Control_c, 0, 64, 15
2, 39210, Note_on_c, 0, 56, 0
2, 39214, Note_on_c, 0, 64, 61
2, 39216, Note_on_c, 0, 73, 76
2, 39258, Control_c, 0, 64, 13
2, 39258, Note_on_c, 0, 71, 0
2, 39297, Control_c, 0, 64, 11
2, 39335, Control_c, 0, 64, 9
2, 39374, Control_c, 0, 64, 0
2, 39404, Note_on_c, 0, 64, 0
2, 39430, Note_on_c, 0, 55, 69
2, 39680, Note_on_c, 0, 74, 69
2, 39723, Note_on_c, 0, 73, 0
2, 39764, Note_on_c, 0, 55, 0
2, 39793, Note_on_c, 0, 54, 59
2, 39903, Note_on_c, 0, 54, 0
2, 39909, Note_on_c, 0, 55, 69
2, 39998, Note_on_c, 0, 57, 73
2, 40005, Note_on_c, 0, 55, 0
2, 40123, Note_on_c, 0, 57, 0
2, 40135, Note_on_c, 0, 58, 61
2, 40160, Note_on_c, 0, 62, 72
2, 40164, Note_on_c, 0, 74, 0
2, 40384, Note_on_c, 0, 53, 68
2, 40395, Note_on_c, 0, 58, 0
2, 40633, Note_on_c, 0, 52, 51
2, 40643, Note_on_c, 0, 53, 0
2, 40648, Note_on_c, 0, 61, 72
2, 40689, Note_on_c, 0, 62, 0
2, 40895, Note_on_c, 0, 56, 63
2, 40903, Note_on_c, 0, 52, 0
2, 41131, Note_on_c, 0, 56, 0
2, 41134, Note_on_c, 0, 57, 44
2, 41140, Note_on_c, 0, 60, 66
2, 41191, Note_on_c, 0, 61, 0
2, 41382, Note_on_c, 0, 51, 46
2, 41389, Note_on_c, 0, 57, 0
2, 41636, Note_on_c, 0, 51, 0
2, 41642, Note_on_c, 0, 50, 41
2, 41649, Note_on_c, 0, 60, 0
2, 41654, Note_on_c, 0, 59, 59
2, 41874, Note_on_c, 0, 50, 0
2, 41890, Note_on_c, 0, 54, 49
2, 42115, Note_on_c, 0, 54, 0
2, 42138, Note_on_c, 0, 58, 51
2, 42157, Note_on_c, 0, 55, 38
2, 42200, Note_on_c, 0, 59, 0
2, 42382, Note_on_c, 0, 49, 52
2, 42411, Note_on_c, 0, 55, 0
2, 42646, Note_on_c, 0, 58, 0
2, 42649, Note_on_c, 0, 57, 52
2, 42874, Note_on_c, 0, 50, 41
2, 42891, Note_on_c, 0, 49, 0
2, 43127, Note_on_c, 0, 57, 0
2, 43157, Note_on_c, 0, 55, 46
2, 43378, Note_on_c, 0, 50, 0
2, 43393, Note_on_c, 0, 52, 38
2, 43632, Note_on_c, 0, 52, 0
2, 43641, Note_on_c, 0, 45, 32
2, 43745, Note_on_c, 0, 45, 0
2, 43758, Note_on_c, 0, 55, 0
2, 43883, Note_on_c, 0, 53, 49
2, 43946, Note_on_c, 0, 53, 0
2, 43973, Note_on_c, 0, 52, 55
2, 44093, Note_on_c, 0, 52, 0
2, 44096, Note_on_c, 0, 53, 52
2, 44108, Note_on_c, 0, 50, 43
2, 44306, Note_on_c, 0, 53, 0
2, 44357, Note_on_c, 0, 62, 57
2, 44603, Note_on_c, 0, 52, 58
2, 44636, Note_on_c, 0, 50, 0
2, 44814, Note_on_c, 0, 62, 0
2, 44826, Note_on_c, 0, 61, 69
2, 45076, Note_on_c, 0, 54, 52
2, 45076, Note_on_c, 0, 69, 68
2, 45080, Note_on_c, 0, 52, 0
2, 45208, Note_on_c, 0, 61, 0
2, 45307, Note_on_c, 0, 69, 0
2, 45328, Note_on_c, 0, 60, 61
2, 45556, Note_on_c, 0, 55, 54
2, 45684, Note_on_c, 0, 54, 0
2, 45703, Note_on_c, 0, 60, 0
2, 45740, Note_on_c, 0, 55, 0
2, 45789, Note_on_c, 0, 59, 72
2, 45885, Note_on_c, 0, 57, 75
2, 45902, Note_on_c, 0, 59, 0
2, 46008, Note_on_c, 0, 57, 0
2, 46012, Note_on_c, 0, 56, 78
2, 46017, Note_on_c, 0, 52, 64
2, 46256, Note_on_c, 0, 64, 76
2, 46271, Note_on_c, 0, 56, 0
2, 46501, Note_on_c, 0, 54, 80
2, 46560, Note_on_c, 0, 52, 0
2, 46705, Note_on_c, 0, 64, 0
2, 46733, Note_on_c, 0, 63, 76
2, 46966, Note_on_c, 0, 56, 63
2, 46984, Note_on_c, 0, 71, 72
2, 47034, Note_on_c, 0, 63, 0
2, 47058, Note_on_c, 0, 54, 0
2, 47198, Note_on_c, 0, 71, 0
2, 47220, Note_on_c, 0, 62, 68
2, 47319, Control_c, 0, 64, 11
2, 47339, Control_c, 0, 64, 15
2, 47357, Control_c, 0, 64, 17
2, 47377, Control_c, 0, 64, 19
2, 47396, Control_c, 0, 64, 20
2, 47434, Control_c, 0, 64, 21
2, 47436, Note_on_c, 0, 56, 0
2, 47453, Note_on_c, 0, 57, 57
2, 47490, Note_on_c, 0, 57, 0
2, 47501, Note_on_c, 0, 62, 0
2, 47557, Note_on_c, 0, 60, 70
2, 47588, Control_c, 0, 64, 22
2, 47664, Note_on_c, 0, 62, 75
2, 47672, Note_on_c, 0, 60, 0
2, 47681, Note_on_c, 0, 45, 54
2, 47719, Note_on_c, 0, 45, 0
2, 47772, Note_on_c, 0, 64, 78
2, 47788, Note_on_c, 0, 62, 0
2, 47897, Note_on_c, 0, 65, 77
2, 47909, Note_on_c, 0, 57, 54
2, 47925, Note_on_c, 0, 64, 0
2, 47953, Control_c, 0, 64, 21
2, 48106, Control_c, 0, 64, 20
2, 48156, Note_on_c, 0, 60, 70
2, 48202, Control_c, 0, 64, 19
2, 48397, Note_on_c, 0, 59, 75
2, 48407, Note_on_c, 0, 60, 0
2, 48409, Note_on_c, 0, 56, 55
2, 48414, Control_c, 0, 64, 18
2, 48436, Note_on_c, 0, 57, 0
2, 48528, Control_c, 0, 64, 17
2, 48643, Note_on_c, 0, 63, 75
2, 48644, Control_c, 0, 64, 15
2, 48661, Note_on_c, 0, 65, 0
2, 48682, Control_c, 0, 64, 13
2, 48702, Control_c, 0, 64, 11
2, 48720, Control_c, 0, 64, 9
2, 48721, Note_on_c, 0, 59, 0
2, 48740, Control_c, 0, 64, 0
2, 48904, Note_on_c, 0, 64, 69
2, 48913, Note_on_c, 0, 55, 48
2, 48933, Note_on_c, 0, 63, 0
2, 48984, Note_on_c, 0, 56, 0
2, 49151, Note_on_c, 0, 58, 59
2, 49395, Note_on_c, 0, 57, 62
2, 49406, Note_on_c, 0, 58, 0
2, 49410, Note_on_c, 0, 54, 44
2, 49430, Note_on_c, 0, 55, 0
2, 49637, Note_on_c, 0, 61, 68
2, 49642, Note_on_c, 0, 64, 0
2, 49735, Note_on_c, 0, 57, 0
2, 49896, Note_on_c, 0, 62, 62
2, 49915, Note_on_c, 0, 53, 43
2, 49941, Note_on_c, 0, 61, 0
2, 49966, Note_on_c, 0, 54, 0
2, 50145, Note_on_c, 0, 56, 59
2, 50382, Note_on_c, 0, 52, 52
2, 50397, Note_on_c, 0, 53, 0
2, 50591, Note_on_c, 0, 62, 0
2, 50649, Note_on_c, 0, 56, 0
2, 50651, Note_on_c, 0, 57, 57
2, 50882, Note_on_c, 0, 50, 51
2, 50906, Note_on_c, 0, 52, 0
2, 51106, Note_on_c, 0, 57, 0
2, 51127, Note_on_c, 0, 59, 59
2, 51363, Note_on_c, 0, 59, 0
2, 51376, Note_on_c, 0, 52, 55
2, 51544, Note_on_c, 0, 52, 0
2, 51577, Note_on_c, 0, 50, 0
2, 51596, Note_on_c, 0, 48, 53
2, 51666, Note_on_c, 0, 48, 0
2, 51695, Note_on_c, 0, 47, 55
2, 51816, Note_on_c, 0, 48, 53
2, 51821, Note_on_c, 0, 47, 0
2, 51835, Note_on_c, 0, 64, 65
2, 52046, Note_on_c, 0, 48, 0
2, 52072, Note_on_c, 0, 52, 65
2, 52321, Note_on_c, 0, 66, 74
2, 52381, Note_on_c, 0, 64, 0
2, 52561, Note_on_c, 0, 51, 69
2, 52563, Note_on_c, 0, 52, 0
2, 52805, Note_on_c, 0, 51, 0
2, 52808, Note_on_c, 0, 68, 77
2, 52810, Note_on_c, 0, 59, 60
2, 52856, Note_on_c, 0, 66, 0
2, 52990, Note_on_c, 0, 59, 0
2, 53034, Note_on_c, 0, 50, 60
2, 53226, Note_on_c, 0, 68, 0
2, 53310, Note_on_c, 0, 69, 39
2, 53367, Note_on_c, 0, 69, 0
2, 53477, Note_on_c, 0, 50, 0
2, 53496, Note_on_c, 0, 49, 62
2, 53515, Note_on_c, 0, 57, 67
2, 53547, Note_on_c, 0, 57, 0
2, 53628, Note_on_c, 0, 49, 0
2, 53641, Note_on_c, 0, 47, 53
2, 53737, Note_on_c, 0, 69, 74
2, 53766, Note_on_c, 0, 47, 0
2, 53789, Note_on_c, 0, 49, 60
2, 53964, Note_on_c, 0, 49, 0
2, 53980, Note_on_c, 0, 45, 58
2, 54219, Note_on_c, 0, 47, 71
2, 54237, Note_on_c, 0, 45, 0
2, 54402, Note_on_c, 0, 69, 0
2, 54436, Note_on_c, 0, 68, 80
2, 54697, Note_on_c, 0, 47, 0
2, 54697, Note_on_c, 0, 49, 60
2, 54707, Note_on_c, 0, 76, 74
2, 54751, Note_on_c, 0, 68, 0
2, 54909, Note_on_c, 0, 76, 0
2, 54937, Note_on_c, 0, 67, 68
2, 55147, Note_on_c, 0, 49, 0
2, 55156, Note_on_c, 0, 50, 64
2, 55184, Note_on_c, 0, 50, 0
2, 55391, Note_on_c, 0, 66, 68
2, 55395, Note_on_c, 0, 67, 0
2, 55400, Note_on_c, 0, 38, 62
2, 55435, Note_on_c, 0, 38, 0
2, 55501, Note_on_c, 0, 64, 72
2, 55509, Note_on_c, 0, 66, 0
2, 55516, Control_c, 0, 64, 9
2, 55535, Control_c, 0, 64, 11
2, 55554, Control_c, 0, 64, 13
2, 55574, Control_c, 0, 64, 15
2, 55611, Control_c, 0, 64, 17
2, 55628, Note_on_c, 0, 66, 76
2, 55629, Note_on_c, 0, 50, 61
2, 55652, Note_on_c, 0, 64, 0
2, 55871, Note_on_c, 0, 62, 77
2, 55907, Note_on_c, 0, 66, 0
2, 56094, Control_c, 0, 64, 15
2, 56116, Note_on_c, 0, 64, 81
2, 56152, Control_c, 0, 64, 13
2, 56159, Note_on_c, 0, 62, 0
2, 56171, Control_c, 0, 64, 11
2, 56191, Control_c, 0, 64, 9
2, 56209, Control_c, 0, 64, 0
2, 56338, Note_on_c, 0, 50, 0
2, 56343, Note_on_c, 0, 49, 76
2, 56581, Note_on_c, 0, 49, 0
2, 56581, Note_on_c, 0, 57, 62
2, 56586, Note_on_c, 0, 66, 78
2, 56632, Note_on_c, 0, 64, 0
2, 56749, Note_on_c, 0, 57, 0
2, 56819, Note_on_c, 0, 48, 66
2, 57058, Note_on_c, 0, 67, 68
2, 57063, Note_on_c, 0, 66, 0
2, 57092, Note_on_c, 0, 67, 0
2, 57271, Note_on_c, 0, 48, 0
2, 57275, Note_on_c, 0, 55, 62
2, 57285, Note_on_c, 0, 47, 60
2, 57315, Note_on_c, 0, 55, 0
2, 57367, Note_on_c, 0, 47, 0
2, 57373, Note_on_c, 0, 45, 71
2, 57516, Note_on_c, 0, 45, 0
2, 57519, Note_on_c, 0, 67, 77
2, 57522, Note_on_c, 0, 47, 63
2, 57756, Note_on_c, 0, 43, 77
2, 57766, Note_on_c, 0, 47, 0
2, 58008, Note_on_c, 0, 45, 78
2, 58054, Note_on_c, 0, 43, 0
2, 58218, Note_on_c, 0, 67, 0
2, 58228, Note_on_c, 0, 66, 82
2, 58477, Note_on_c, 0, 47, 64
2, 58482, Note_on_c, 0, 45, 0
2, 58483, Note_on_c, 0, 74, 78
2, 58529, Note_on_c, 0, 66, 0
2, 58713, Note_on_c, 0, 65, 69
2, 58717, Note_on_c, 0, 74, 0
2, 58914, Note_on_c, 0, 47, 0
2, 58936, Note_on_c, 0, 50, 55
2, 59017, Note_on_c, 0, 50, 0
2, 59039, Note_on_c, 0, 48, 55
2, 59065, Note_on_c, 0, 65, 0
2, 59116, Note_on_c, 0, 48, 0
2, 59130, Note_on_c, 0, 64, 64
2, 59151, Note_on_c, 0, 50, 52
2, 59190, Note_on_c, 0, 50, 0
2, 59207, Note_on_c, 0, 48, 50
2, 59220, Note_on_c, 0, 64, 0
2, 59229, Note_on_c, 0, 62, 70
2, 59250, Note_on_c, 0, 48, 0
2, 59296, Note_on_c, 0, 50, 59
2, 59327, Note_on_c, 0, 62, 0
2, 59330, Note_on_c, 0, 50, 0
2, 59338, Note_on_c, 0, 64, 76
2, 59352, Note_on_c, 0, 48, 64
2, 59404, Note_on_c, 0, 48, 0
2, 59427, Note_on_c, 0, 50, 66
2, 59479, Note_on_c, 0, 50, 0
2, 59507, Note_on_c, 0, 64, 0
2, 59545, Note_on_c, 0, 76, 74
2, 59570, Note_on_c, 0, 47, 53
2, 59641, Note_on_c, 0, 47, 0
2, 59656, Note_on_c, 0, 45, 65
2, 59768, Note_on_c, 0, 45, 0
2, 59775, Note_on_c, 0, 52, 65
2, 59870, Note_on_c, 0, 52, 0
2, 59874, Note_on_c, 0, 53, 68
2, 59961, Note_on_c, 0, 53, 0
2, 59966, Note_on_c, 0, 76, 0
2, 59986, Note_on_c, 0, 55, 66
2, 59993, Note_on_c, 0, 77, 77
2, 60078, Note_on_c, 0, 55, 0
2, 60101, Note_on_c, 0, 76, 78
2, 60103, Note_on_c, 0, 53, 63
2, 60129, Note_on_c, 0, 77, 0
2, 60179, Note_on_c, 0, 53, 0
2, 60210, Note_on_c, 0, 74, 78
2, 60220, Note_on_c, 0, 55, 70
2, 60231, Note_on_c, 0, 76, 0
2, 60290, Note_on_c, 0, 55, 0
2, 60302, Note_on_c, 0, 74, 0
2, 60303, Note_on_c, 0, 72, 80
2, 60325, Note_on_c, 0, 53, 68
2, 60398, Note_on_c, 0, 53, 0
2, 60406, Note_on_c, 0, 71, 84
2, 60426, Note_on_c, 0, 55, 71
2, 60429, Note_on_c, 0, 72, 0
2, 60500, Note_on_c, 0, 55, 0
2, 60501, Note_on_c, 0, 71, 0
2, 60509, Note_on_c, 0, 53, 71
2, 60511, Note_on_c, 0, 69, 79
2, 60608, Note_on_c, 0, 53, 0
2, 60622, Note_on_c, 0, 52, 67
2, 60622, Note_on_c, 0, 68, 76
2, 60633, Note_on_c, 0, 69, 0
2, 60687, Note_on_c, 0, 52, 0
2, 60739, Note_on_c, 0, 64, 69
2, 60848, Note_on_c, 0, 64, 0
2, 60852, Note_on_c, 0, 62, 66
2, 60941, Note_on_c, 0, 60, 73
2, 60944, Note_on_c, 0, 62, 0
2, 61028, Note_on_c, 0, 60, 0
2, 61050, Note_on_c, 0, 59, 80
2, 61161, Note_on_c, 0, 57, 77
2, 61171, Note_on_c, 0, 59, 0
2, 61270, Note_on_c, 0, 56, 78
2, 61306, Note_on_c, 0, 57, 0
2, 61382, Note_on_c, 0, 54, 74
2, 61430, Note_on_c, 0, 56, 0
2, 61565, Note_on_c, 0, 54, 0
2, 61580, Note_on_c, 0, 52, 69
2, 61693, Note_on_c, 0, 52, 0
2, 62367, Note_on_c, 0, 40, 40
2, 62449, Note_on_c, 0, 68, 0
2, 62737, Note_on_c, 0, 40, 0
2, 63510, Note_on_c, 0, 76, 44
2, 63610, Note_on_c, 0, 60, 44
2, 63709, Note_on_c, 0, 60, 0
2, 63740, Note_on_c, 0, 59, 48
2, 63819, Note_on_c, 0, 59, 0
2, 63842, Note_on_c, 0, 57, 45
2, 63930, Note_on_c, 0, 57, 0
2, 63968, Note_on_c, 0, 64, 47
2, 63978, Note_on_c, 0, 56, 45
2, 63978, Note_on_c, 0, 76, 0
2, 64218, Note_on_c, 0, 56, 0
2, 64223, Note_on_c, 0, 61, 46
2, 64410, Note_on_c, 0, 61, 0
2, 64457, Note_on_c, 0, 65, 55
2, 64465, Note_on_c, 0, 62, 36
2, 64505, Note_on_c, 0, 64, 0
2, 64719, Note_on_c, 0, 58, 48
2, 64721, Note_on_c, 0, 62, 0
2, 64954, Note_on_c, 0, 58, 0
2, 64964, Note_on_c, 0, 66, 63
2, 64975, Note_on_c, 0, 57, 39
2, 65005, Note_on_c, 0, 65, 0
2, 65209, Note_on_c, 0, 57, 0
2, 65209, Note_on_c, 0, 63, 62
2, 65449, Note_on_c, 0, 67, 67
2, 65461, Note_on_c, 0, 66, 0
2, 65462, Note_on_c, 0, 64, 47
2, 65507, Note_on_c, 0, 63, 0
2, 65705, Note_on_c, 0, 64, 0
2, 65709, Note_on_c, 0, 60, 61
2, 65947, Note_on_c, 0, 68, 68
2, 65950, Note_on_c, 0, 60, 0
2, 65971, Note_on_c, 0, 59, 54
2, 66001, Note_on_c, 0, 67, 0
2, 66169, Note_on_c, 0, 59, 0
2, 66200, Note_on_c, 0, 65, 63
2, 66447, Note_on_c, 0, 69, 60
2, 66464, Note_on_c, 0, 68, 0
2, 66690, Note_on_c, 0, 64, 51
2, 66699, Note_on_c, 0, 65, 0
2, 66960, Note_on_c, 0, 71, 63
2, 66983, Note_on_c, 0, 69, 0
2, 67180, Note_on_c, 0, 64, 0
2, 67195, Note_on_c, 0, 62, 47
2, 67383, Note_on_c, 0, 62, 0
2, 67422, Note_on_c, 0, 71, 0
2, 67437, Note_on_c, 0, 69, 45
2, 67468, Note_on_c, 0, 72, 59
2, 67519, Note_on_c, 0, 72, 0
2, 67580, Note_on_c, 0, 77, 61
2, 67627, Note_on_c, 0, 69, 0
2, 67680, Note_on_c, 0, 76, 62
2, 67686, Note_on_c, 0, 77, 0
2, 67761, Note_on_c, 0, 76, 0
2, 67781, Note_on_c, 0, 74, 64
2, 67888, Note_on_c, 0, 74, 0
2, 67916, Note_on_c, 0, 73, 64
2, 67923, Note_on_c, 0, 57, 36
2, 68153, Note_on_c, 0, 78, 67
2, 68314, Note_on_c, 0, 73, 0
2, 68406, Note_on_c, 0, 79, 68
2, 68420, Note_on_c, 0, 58, 47
2, 68450, Note_on_c, 0, 57, 0
2, 68646, Note_on_c, 0, 75, 73
2, 68646, Note_on_c, 0, 78, 0
2, 68664, Note_on_c, 0, 79, 0
2, 68897, Note_on_c, 0, 74, 65
2, 68900, Note_on_c, 0, 75, 0
2, 68901, Note_on_c, 0, 59, 56
2, 68989, Note_on_c, 0, 58, 0
2, 69124, Note_on_c, 0, 80, 73
2, 69311, Note_on_c, 0, 74, 0
2, 69377, Note_on_c, 0, 81, 71
2, 69405, Note_on_c, 0, 60, 55
2, 69459, Note_on_c, 0, 59, 0
2, 69624, Note_on_c, 0, 77, 73
2, 69637, Note_on_c, 0, 80, 0
2, 69653, Note_on_c, 0, 81, 0
2, 69864, Note_on_c, 0, 61, 58
2, 69872, Note_on_c, 0, 76, 70
2, 69890, Note_on_c, 0, 77, 0
2, 69997, Note_on_c, 0, 60, 0
2, 70121, Note_on_c, 0, 82, 73
2, 70241, Note_on_c, 0, 76, 0
2, 70383, Note_on_c, 0, 62, 55
2, 70445, Note_on_c, 0, 61, 0
2, 70634, Note_on_c, 0, 81, 66
2, 70654, Note_on_c, 0, 82, 0
2, 70893, Note_on_c, 0, 64, 41
2, 70908, Note_on_c, 0, 62, 0
2, 71106, Note_on_c, 0, 81, 0
2, 71134, Note_on_c, 0, 80, 61
2, 71337, Note_on_c, 0, 80, 0
2, 71382, Note_on_c, 0, 81, 54
2, 71391, Note_on_c, 0, 65, 23
2, 71461, Note_on_c, 0, 64, 0
2, 71497, Note_on_c, 0, 79, 59
2, 71502, Note_on_c, 0, 81, 0
2, 71550, Note_on_c, 0, 65, 0
2, 71584, Note_on_c, 0, 77, 65
2, 71584, Note_on_c, 0, 79, 0
2, 71652, Note_on_c, 0, 77, 0
2, 71685, Note_on_c, 0, 76, 63
2, 71826, Note_on_c, 0, 76, 0
2, 71829, Note_on_c, 0, 77, 54
2, 71845, Note_on_c, 0, 62, 31
2, 72071, Note_on_c, 0, 70, 59
2, 72152, Note_on_c, 0, 77, 0
2, 72312, Note_on_c, 0, 69, 57
2, 72319, Note_on_c, 0, 70, 0
2, 72331, Note_on_c, 0, 60, 40
2, 72419, Note_on_c, 0, 62, 0
2, 72556, Note_on_c, 0, 76, 62
2, 72614, Note_on_c, 0, 69, 0
2, 72811, Note_on_c, 0, 59, 45
2, 72813, Note_on_c, 0, 74, 54
2, 72820, Note_on_c, 0, 76, 0
2, 72903, Note_on_c, 0, 60, 0
2, 73040, Note_on_c, 0, 74, 0
2, 73052, Note_on_c, 0, 68, 59
2, 73265, Note_on_c, 0, 57, 31
2, 73355, Note_on_c, 0, 68, 0
2, 73366, Note_on_c, 0, 59, 0
2, 73381, Note_on_c, 0, 74, 55
2, 73436, Note_on_c, 0, 57, 0
2, 73481, Note_on_c, 0, 74, 0
2, 73489, Note_on_c, 0, 72, 67
2, 73592, Note_on_c, 0, 71, 64
2, 73615, Note_on_c, 0, 72, 0
2, 73717, Note_on_c, 0, 69, 63
2, 73721, Note_on_c, 0, 71, 0
2, 73728, Note_on_c, 0, 60, 36
2, 73959, Note_on_c, 0, 76, 63
2, 74221, Note_on_c, 0, 59, 45
2, 74228, Note_on_c, 0, 74, 60
2, 74260, Note_on_c, 0, 76, 0
2, 74265, Note_on_c, 0, 69, 0
2, 74284, Note_on_c, 0, 60, 0
2, 74443, Note_on_c, 0, 74, 0
2, 74463, Note_on_c, 0, 67, 63
2, 74706, Note_on_c, 0, 66, 62
2, 74707, Note_on_c, 0, 59, 0
2, 74710, Note_on_c, 0, 57, 40
2, 74750, Note_on_c, 0, 67, 0
2, 74943, Note_on_c, 0, 72, 69
2, 74957, Note_on_c, 0, 66, 0
2, 75084, Note_on_c, 0, 57, 0
2, 75146, Note_on_c, 0, 55, 44
2, 75154, Note_on_c, 0, 72, 0
2, 75179, Note_on_c, 0, 71, 59
2, 75254, Note_on_c, 0, 55, 0
2, 75286, Note_on_c, 0, 59, 59
2, 75354, Note_on_c, 0, 59, 0
2, 75380, Note_on_c, 0, 60, 57
2, 75461, Note_on_c, 0, 60, 0
2, 75481, Note_on_c, 0, 62, 63
2, 75576, Note_on_c, 0, 62, 0
2, 75629, Note_on_c, 0, 64, 47
2, 75631, Note_on_c, 0, 79, 71
2, 75851, Note_on_c, 0, 58, 55
2, 75863, Note_on_c, 0, 64, 0
2, 76088, Note_on_c, 0, 57, 41
2, 76101, Note_on_c, 0, 77, 64
2, 76116, Note_on_c, 0, 71, 0
2, 76143, Note_on_c, 0, 79, 0
2, 76182, Note_on_c, 0, 58, 0
2, 76287, Note_on_c, 0, 57, 0
2, 76338, Note_on_c, 0, 62, 50
2, 76561, Note_on_c, 0, 62, 0
2, 76590, Note_on_c, 0, 61, 42
2, 76590, Note_on_c, 0, 76, 61
2, 76615, Note_on_c, 0, 77, 0
2, 76840, Note_on_c, 0, 61, 0
2, 76841, Note_on_c, 0, 55, 41
2, 77038, Note_on_c, 0, 55, 0
2, 77076, Note_on_c, 0, 74, 61
2, 77091, Note_on_c, 0, 76, 0
2, 77193, Note_on_c, 0, 67, 56
2, 77284, Note_on_c, 0, 65, 63
2, 77286, Note_on_c, 0, 67, 0
2, 77385, Note_on_c, 0, 64, 69
2, 77389, Note_on_c, 0, 65, 0
2, 77497, Note_on_c, 0, 64, 0
2, 77509, Note_on_c, 0, 77, 69
2, 77522, Note_on_c, 0, 62, 54
2, 77553, Note_on_c, 0, 74, 0
2, 77691, Control_c, 0, 64, 9
2, 77730, Control_c, 0, 64, 11
2, 77732, Note_on_c, 0, 68, 65
2, 77768, Control_c, 0, 64, 13
2, 77807, Control_c, 0, 64, 15
2, 77895, Note_on_c, 0, 62, 0
2, 77949, Note_on_c, 0, 68, 0
2, 77991, Note_on_c, 0, 76, 70
2, 77993, Note_on_c, 0, 69, 48
2, 78040, Note_on_c, 0, 77, 0
2, 78175, Note_on_c, 0, 69, 0
2, 78221, Note_on_c, 0, 60, 59
2, 78459, Note_on_c, 0, 60, 0
2, 78477, Note_on_c, 0, 74, 61
2, 78490, Note_on_c, 0, 59, 44
2, 78521, Note_on_c, 0, 76, 0
2, 78654, Note_on_c, 0, 59, 0
2, 78732, Note_on_c, 0, 65, 52
2, 78919, Note_on_c, 0, 65, 0
2, 78955, Note_on_c, 0, 64, 52
2, 79019, Control_c, 0, 64, 13
2, 79041, Note_on_c, 0, 64, 0
2, 79057, Control_c, 0, 64, 11
2, 79058, Note_on_c, 0, 62, 56
2, 79109, Note_on_c, 0, 62, 0
2, 79134, Control_c, 0, 64, 9
2, 79180, Note_on_c, 0, 60, 54
2, 79243, Note_on_c, 0, 60, 0
2, 79277, Note_on_c, 0, 59, 61
2, 79409, Note_on_c, 0, 72, 62
2, 79412, Note_on_c, 0, 59, 0
2, 79414, Note_on_c, 0, 74, 0
2, 79422, Note_on_c, 0, 57, 56
2, 79480, Control_c, 0, 64, 0
2, 79640, Note_on_c, 0, 71, 71
2, 79647, Note_on_c, 0, 57, 0
2, 79649, Note_on_c, 0, 56, 56
2, 79668, Note_on_c, 0, 72, 0
2, 79864, Note_on_c, 0, 56, 0
2, 79894, Note_on_c, 0, 72, 70
2, 79896, Note_on_c, 0, 57, 47
2, 79924, Note_on_c, 0, 71, 0
2, 80124, Note_on_c, 0, 53, 64
2, 80142, Note_on_c, 0, 57, 0
2, 80345, Note_on_c, 0, 53, 0
2, 80358, Note_on_c, 0, 52, 54
2, 80365, Note_on_c, 0, 73, 72
2, 80443, Note_on_c, 0, 72, 0
2, 80606, Note_on_c, 0, 58, 69
2, 80714, Note_on_c, 0, 52, 0
2, 80854, Note_on_c, 0, 74, 75
2, 80860, Note_on_c, 0, 59, 62
2, 80901, Note_on_c, 0, 73, 0
2, 80907, Note_on_c, 0, 58, 0
2, 81087, Note_on_c, 0, 55, 69
2, 81102, Note_on_c, 0, 59, 0
2, 81326, Note_on_c, 0, 54, 65
2, 81328, Note_on_c, 0, 55, 0
2, 81337, Note_on_c, 0, 75, 77
2, 81390, Note_on_c, 0, 74, 0
2, 81561, Note_on_c, 0, 54, 0
2, 81581, Note_on_c, 0, 60, 77
2, 81820, Note_on_c, 0, 76, 78
2, 81841, Note_on_c, 0, 75, 0
2, 82063, Note_on_c, 0, 59, 73
2, 82068, Note_on_c, 0, 60, 0
2, 82297, Note_on_c, 0, 78, 71
2, 82330, Note_on_c, 0, 76, 0
2, 82519, Note_on_c, 0, 59, 0
2, 82525, Note_on_c, 0, 57, 51
2, 82712, Note_on_c, 0, 57, 0
2, 82734, Note_on_c, 0, 78, 0
2, 82759, Note_on_c, 0, 64, 37
2, 82774, Note_on_c, 0, 79, 59
2, 82859, Note_on_c, 0, 64, 0
2, 82875, Note_on_c, 0, 79, 0
2, 82885, Note_on_c, 0, 77, 66
2, 82974, Note_on_c, 0, 76, 67
2, 82979, Note_on_c, 0, 77, 0
2, 83074, Note_on_c, 0, 76, 0
2, 83077, Note_on_c, 0, 74, 65
2, 83169, Note_on_c, 0, 74, 0
2, 83206, Note_on_c, 0, 73, 62
2, 83219, Note_on_c, 0, 52, 44
2, 83456, Note_on_c, 0, 80, 72
2, 83620, Note_on_c, 0, 73, 0
2, 83693, Note_on_c, 0, 53, 55
2, 83701, Note_on_c, 0, 81, 70
2, 83758, Note_on_c, 0, 52, 0
2, 83927, Note_on_c, 0, 80, 0
2, 83939, Note_on_c, 0, 75, 77
2, 83943, Note_on_c, 0, 81, 0
2, 84169, Note_on_c, 0, 75, 0
2, 84174, Note_on_c, 0, 54, 70
2, 84175, Note_on_c, 0, 74, 72
2, 84244, Note_on_c, 0, 53, 0
2, 84416, Note_on_c, 0, 82, 79
2, 84607, Note_on_c, 0, 74, 0
2, 84681, Note_on_c, 0, 83, 78
2, 84690, Note_on_c, 0, 55, 58
2, 84756, Note_on_c, 0, 54, 0
2, 84908, Note_on_c, 0, 77, 77
2, 84913, Note_on_c, 0, 82, 0
2, 84993, Note_on_c, 0, 83, 0
2, 85145, Note_on_c, 0, 56, 57
2, 85174, Note_on_c, 0, 76, 75
2, 85180, Note_on_c, 0, 77, 0
2, 85192, Note_on_c, 0, 55, 0
2, 85404, Note_on_c, 0, 74, 70
2, 85433, Note_on_c, 0, 76, 0
2, 85650, Note_on_c, 0, 57, 52
2, 85661, Note_on_c, 0, 56, 0
2, 85878, Note_on_c, 0, 72, 59
2, 85916, Note_on_c, 0, 74, 0
2, 86128, Note_on_c, 0, 57, 0
2, 86148, Note_on_c, 0, 59, 43
2, 86338, Note_on_c, 0, 72, 0
2, 86374, Note_on_c, 0, 71, 51
2, 86591, Note_on_c, 0, 59, 0
2, 86638, Note_on_c, 0, 60, 41
2, 86764, Note_on_c, 0, 60, 0
2, 86812, Note_on_c, 0, 71, 0
2, 86854, Note_on_c, 0, 69, 59
2, 86929, Note_on_c, 0, 69, 0
2, 86955, Note_on_c, 0, 71, 65
2, 87073, Note_on_c, 0, 71, 0
2, 87087, Note_on_c, 0, 72, 59
2, 87099, Note_on_c, 0, 57, 32
2, 87139, Control_c, 0, 64, 32
2, 87158, Control_c, 0, 64, 56
2, 87177, Control_c, 0, 64, 63
2, 87197, Control_c, 0, 64, 65
2, 87215, Control_c, 0, 64, 69
2, 87235, Control_c, 0, 64, 74
2, 87254, Control_c, 0, 64, 81
2, 87274, Control_c, 0, 64, 85
2, 87292, Control_c, 0, 64, 88
2, 87312, Control_c, 0, 64, 90
2, 87321, Note_on_c, 0, 63, 49
2, 87331, Control_c, 0, 64, 93
2, 87349, Control_c, 0, 64, 94
2, 87422, Note_on_c, 0, 63, 0
2, 87449, Note_on_c, 0, 72, 0
2, 87503, Control_c, 0, 64, 93
2, 87523, Control_c, 0, 64, 91
2, 87542, Control_c, 0, 64, 85
2, 87561, Control_c, 0, 64, 73
2, 87565, Note_on_c, 0, 55, 42
2, 87566, Note_on_c, 0, 57, 0
2, 87574, Note_on_c, 0, 64, 58
2, 87580, Control_c, 0, 64, 65
2, 87600, Control_c, 0, 64, 56
2, 87619, Control_c, 0, 64, 41
2, 87638, Control_c, 0, 64, 0
2, 87793, Note_on_c, 0, 73, 67
2, 87867, Note_on_c, 0, 64, 0
2, 88037, Note_on_c, 0, 53, 46
2, 88050, Note_on_c, 0, 74, 63
2, 88065, Note_on_c, 0, 73, 0
2, 88129, Note_on_c, 0, 55, 0
2, 88251, Note_on_c, 0, 74, 0
2, 88268, Note_on_c, 0, 65, 60
2, 88440, Note_on_c, 0, 53, 0
2, 88503, Note_on_c, 0, 52, 46
2, 88504, Note_on_c, 0, 67, 59
2, 88506, Note_on_c, 0, 65, 0
2, 88621, Note_on_c, 0, 52, 0
2, 88623, Note_on_c, 0, 53, 51
2, 88720, Note_on_c, 0, 53, 0
2, 88722, Note_on_c, 0, 55, 59
2, 88809, Note_on_c, 0, 55, 0
2, 88823, Note_on_c, 0, 57, 64
2, 88938, Note_on_c, 0, 57, 0
2, 88962, Note_on_c, 0, 58, 55
2, 88975, Note_on_c, 0, 74, 64
2, 88999, Note_on_c, 0, 67, 0
2, 89208, Note_on_c, 0, 53, 57
2, 89209, Note_on_c, 0, 58, 0
2, 89463, Note_on_c, 0, 53, 0
2, 89465, Note_on_c, 0, 73, 60
2, 89466, Note_on_c, 0, 52, 43
2, 89481, Note_on_c, 0, 74, 0
2, 89674, Control_c, 0, 64, 9
2, 89693, Control_c, 0, 64, 11
2, 89707, Note_on_c, 0, 52, 0
2, 89713, Control_c, 0, 64, 13
2, 89721, Note_on_c, 0, 57, 50
2, 89732, Control_c, 0, 64, 15
2, 89770, Control_c, 0, 64, 17
2, 89884, Control_c, 0, 64, 18
2, 89914, Note_on_c, 0, 57, 0
2, 89945, Note_on_c, 0, 55, 41
2, 89945, Note_on_c, 0, 70, 61
2, 89967, Note_on_c, 0, 73, 0
2, 90192, Control_c, 0, 64, 17
2, 90199, Note_on_c, 0, 55, 0
2, 90213, Note_on_c, 0, 50, 41
2, 90306, Control_c, 0, 64, 15
2, 90402, Note_on_c, 0, 50, 0
2, 90426, Note_on_c, 0, 49, 52
2, 90502, Note_on_c, 0, 70, 0
2, 90524, Note_on_c, 0, 49, 0
2, 90532, Note_on_c, 0, 69, 50
2, 90575, Control_c, 0, 64, 17
2, 90589, Note_on_c, 0, 69, 0
2, 90630, Note_on_c, 0, 67, 48
2, 90712, Note_on_c, 0, 67, 0
2, 90732, Note_on_c, 0, 69, 64
2, 90806, Control_c, 0, 64, 18
2, 90825, Control_c, 0, 64, 25
2, 90844, Control_c, 0, 64, 36
2, 90844, Note_on_c, 0, 55, 51
2, 90854, Note_on_c, 0, 69, 0
2, 90863, Control_c, 0, 64, 50
2, 90875, Note_on_c, 0, 70, 65
2, 90883, Control_c, 0, 64, 57
2, 90902, Control_c, 0, 64, 61
2, 90921, Control_c, 0, 64, 63
2, 90940, Control_c, 0, 64, 66
2, 90960, Control_c, 0, 64, 69
2, 90979, Control_c, 0, 64, 74
2, 90998, Control_c, 0, 64, 82
2, 91017, Control_c, 0, 64, 86
2, 91017, Note_on_c, 0, 70, 0
2, 91037, Control_c, 0, 64, 88
2, 91055, Control_c, 0, 64, 90
2, 91075, Control_c, 0, 64, 94
2, 91094, Control_c, 0, 64, 100
2, 91099, Note_on_c, 0, 61, 69
2, 91114, Control_c, 0, 64, 104
2, 91132, Control_c, 0, 64, 106
2, 91218, Note_on_c, 0, 61, 0
2, 91228, Control_c, 0, 64, 106
2, 91248, Control_c, 0, 64, 105
2, 91266, Control_c, 0, 64, 104
2, 91286, Control_c, 0, 64, 100
2, 91305, Control_c, 0, 64, 92
2, 91324, Control_c, 0, 64, 80
2, 91329, Note_on_c, 0, 53, 55
2, 91331, Note_on_c, 0, 62, 69
2, 91343, Control_c, 0, 64, 69
2, 91352, Note_on_c, 0, 55, 0
2, 91363, Control_c, 0, 64, 61
2, 91382, Control_c, 0, 64, 47
2, 91401, Control_c, 0, 64, 31
2, 91420, Control_c, 0, 64, 18
2, 91440, Control_c, 0, 64, 13
2, 91459, Control_c, 0, 64, 11
2, 91564, Note_on_c, 0, 71, 77
2, 91594, Control_c, 0, 64, 9
2, 91597, Note_on_c, 0, 62, 0
2, 91802, Note_on_c, 0, 51, 51
2, 91811, Note_on_c, 0, 72, 75
2, 91840, Note_on_c, 0, 71, 0
2, 91915, Note_on_c, 0, 53, 0
2, 92048, Note_on_c, 0, 63, 73
2, 92149, Control_c, 0, 64, 11
2, 92187, Note_on_c, 0, 72, 0
2, 92246, Note_on_c, 0, 51, 0
2, 92268, Note_on_c, 0, 50, 50
2, 92284, Note_on_c, 0, 65, 65
2, 92305, Note_on_c, 0, 63, 0
2, 92371, Note_on_c, 0, 50, 0
2, 92394, Note_on_c, 0, 51, 60
2, 92400, Control_c, 0, 64, 13
2, 92489, Note_on_c, 0, 53, 63
2, 92494, Note_on_c, 0, 51, 0
2, 92554, Note_on_c, 0, 53, 0
2, 92596, Note_on_c, 0, 55, 62
2, 92744, Note_on_c, 0, 72, 74
2, 92757, Note_on_c, 0, 56, 53
2, 92763, Note_on_c, 0, 55, 0
2, 92888, Note_on_c, 0, 65, 0
2, 92983, Note_on_c, 0, 51, 55
2, 93024, Note_on_c, 0, 56, 0
2, 93229, Note_on_c, 0, 50, 45
2, 93234, Note_on_c, 0, 71, 63
2, 93238, Note_on_c, 0, 51, 0
2, 93281, Note_on_c, 0, 72, 0
2, 93284, Control_c, 0, 64, 11
2, 93435, Note_on_c, 0, 50, 0
2, 93461, Note_on_c, 0, 55, 44
2, 93668, Note_on_c, 0, 55, 0
2, 93710, Note_on_c, 0, 68, 61
2, 93718, Note_on_c, 0, 53, 36
2, 93727, Note_on_c, 0, 71, 0
2, 93946, Note_on_c, 0, 53, 0
2, 93960, Note_on_c, 0, 48, 45
2, 93996, Control_c, 0, 64, 13
2, 94200, Note_on_c, 0, 48, 0
2, 94207, Note_on_c, 0, 47, 43
2, 94264, Note_on_c, 0, 68, 0
2, 94307, Note_on_c, 0, 47, 0
2, 94325, Note_on_c, 0, 67, 50
2, 94414, Note_on_c, 0, 67, 0
2, 94433, Note_on_c, 0, 69, 66
2, 94519, Note_on_c, 0, 69, 0
2, 94534, Note_on_c, 0, 71, 70
2, 94628, Control_c, 0, 64, 11
2, 94633, Note_on_c, 0, 71, 0
2, 94649, Note_on_c, 0, 72, 65
2, 94668, Note_on_c, 0, 52, 38
2, 94724, Control_c, 0, 64, 9
2, 94781, Control_c, 0, 64, 0
2, 94900, Note_on_c, 0, 67, 62
2, 95164, Note_on_c, 0, 51, 44
2, 95168, Note_on_c, 0, 66, 68
2, 95247, Note_on_c, 0, 67, 0
2, 95252, Note_on_c, 0, 72, 0
2, 95253, Note_on_c, 0, 52, 0
2, 95403, Note_on_c, 0, 70, 75
2, 95658, Note_on_c, 0, 66, 0
2, 95668, Note_on_c, 0, 71, 71
2, 95669, Note_on_c, 0, 50, 56
2, 95702, Note_on_c, 0, 51, 0
2, 95777, Note_on_c, 0, 70, 0
2, 95910, Note_on_c, 0, 65, 61
2, 96156, Note_on_c, 0, 71, 0
2, 96163, Note_on_c, 0, 49, 53
2, 96163, Note_on_c, 0, 64, 66
2, 96223, Note_on_c, 0, 50, 0
2, 96246, Note_on_c, 0, 65, 0
2, 96395, Note_on_c, 0, 68, 75
2, 96571, Note_on_c, 0, 64, 0
2, 96635, Note_on_c, 0, 69, 73
2, 96649, Note_on_c, 0, 48, 55
2, 96695, Note_on_c, 0, 68, 0
2, 96701, Note_on_c, 0, 49, 0
2, 96907, Note_on_c, 0, 63, 74
2, 96963, Note_on_c, 0, 69, 0
2, 97141, Note_on_c, 0, 47, 68
2, 97189, Note_on_c, 0, 48, 0
2, 97378, Note_on_c, 0, 64, 75
2, 97398, Note_on_c, 0, 63, 0
2, 97634, Note_on_c, 0, 45, 67
2, 97699, Note_on_c, 0, 47, 0
2, 97855, Note_on_c, 0, 65, 69
2, 97858, Note_on_c, 0, 64, 0
2, 98089, Note_on_c, 0, 59, 68
2, 98171, Note_on_c, 0, 45, 0
2, 98203, Note_on_c, 0, 59, 0
2, 98209, Note_on_c, 0, 48, 62
2, 98228, Note_on_c, 0, 65, 0
2, 98299, Note_on_c, 0, 47, 68
2, 98314, Note_on_c, 0, 48, 0
2, 98406, Note_on_c, 0, 45, 65
2, 98448, Note_on_c, 0, 47, 0
2, 98555, Note_on_c, 0, 44, 51
2, 98555, Note_on_c, 0, 76, 74
2, 98569, Note_on_c, 0, 45, 0
2, 98791, Note_on_c, 0, 49, 71
2, 98862, Note_on_c, 0, 44, 0
2, 98985, Control_c, 0, 64, 9
2, 99043, Control_c, 0, 64, 11
2, 99054, Note_on_c, 0, 50, 61
2, 99058, Note_on_c, 0, 77, 76
2, 99081, Control_c, 0, 64, 13
2, 99099, Note_on_c, 0, 76, 0
2, 99120, Control_c, 0, 64, 15
2, 99133, Note_on_c, 0, 49, 0
2, 99139, Control_c, 0, 64, 17
2, 99197, Control_c, 0, 64, 18
2, 99235, Control_c, 0, 64, 19
2, 99254, Control_c, 0, 64, 20
2, 99274, Control_c, 0, 64, 21
2, 99286, Note_on_c, 0, 46, 72
2, 99331, Control_c, 0, 64, 22
2, 99333, Note_on_c, 0, 50, 0
2, 99527, Note_on_c, 0, 77, 0
2, 99537, Note_on_c, 0, 78, 79
2, 99539, Note_on_c, 0, 45, 57
2, 99572, Note_on_c, 0, 46, 0
2, 99778, Note_on_c, 0, 51, 73
2, 99803, Note_on_c, 0, 45, 0
2, 99829, Control_c, 0, 64, 23
2, 99906, Control_c, 0, 64, 24
2, 100003, Control_c, 0, 64, 25
2, 100024, Note_on_c, 0, 79, 85
2, 100027, Note_on_c, 0, 52, 63
2, 100051, Note_on_c, 0, 78, 0
2, 100106, Note_on_c, 0, 51, 0
2, 100257, Note_on_c, 0, 48, 75
2, 100280, Note_on_c, 0, 52, 0
2, 100291, Control_c, 0, 64, 24
2, 100367, Control_c, 0, 64, 23
2, 100405, Control_c, 0, 64, 22
2, 100424, Control_c, 0, 64, 21
2, 100444, Control_c, 0, 64, 19
2, 100462, Control_c, 0, 64, 18
2, 100482, Control_c, 0, 64, 13
2, 100501, Control_c, 0, 64, 0
2, 100502, Note_on_c, 0, 80, 84
2, 100510, Note_on_c, 0, 47, 66
2, 100537, Note_on_c, 0, 48, 0
2, 100579, Note_on_c, 0, 79, 0
2, 100748, Note_on_c, 0, 53, 80
2, 100803, Note_on_c, 0, 47, 0
2, 100986, Note_on_c, 0, 81, 86
2, 101002, Note_on_c, 0, 80, 0
2, 101220, Note_on_c, 0, 52, 81
2, 101279, Note_on_c, 0, 53, 0
2, 101466, Note_on_c, 0, 83, 90
2, 101524, Note_on_c, 0, 81, 0
2, 101701, Note_on_c, 0, 50, 75
2, 101743, Note_on_c, 0, 52, 0
2, 101952, Note_on_c, 0, 48, 70
2, 102009, Note_on_c, 0, 50, 0
2, 102133, Note_on_c, 0, 83, 0
2, 102141, Note_on_c, 0, 48, 0
2, 102191, Note_on_c, 0, 81, 84
2, 102288, Note_on_c, 0, 83, 90
2, 102319, Note_on_c, 0, 81, 0
2, 102407, Note_on_c, 0, 84, 85
2, 102420, Note_on_c, 0, 52, 72
2, 102444, Note_on_c, 0, 83, 0
2, 102664, Note_on_c, 0, 84, 0
2, 102668, Note_on_c, 0, 76, 82
2, 102919, Note_on_c, 0, 54, 77
2, 102982, Note_on_c, 0, 52, 0
2, 103152, Note_on_c, 0, 75, 83
2, 103198, Note_on_c, 0, 76, 0
2, 103394, Note_on_c, 0, 56, 63
2, 103398, Note_on_c, 0, 54, 0
2, 103410, Note_on_c, 0, 83, 75
2, 103455, Note_on_c, 0, 75, 0
2, 103622, Note_on_c, 0, 83, 0
2, 103650, Note_on_c, 0, 74, 60
2, 103861, Note_on_c, 0, 56, 0
2, 103891, Note_on_c, 0, 57, 50
2, 103951, Note_on_c, 0, 74, 0
2, 104014, Note_on_c, 0, 72, 62
2, 104025, Note_on_c, 0, 57, 0
2, 104111, Note_on_c, 0, 72, 0
2, 104119, Note_on_c, 0, 74, 59
2, 104212, Note_on_c, 0, 74, 0
2, 104227, Note_on_c, 0, 76, 63
2, 104302, Note_on_c, 0, 45, 44
2, 104350, Note_on_c, 0, 76, 0
2, 104358, Note_on_c, 0, 77, 58
2, 104578, Note_on_c, 0, 77, 0
2, 104580, Note_on_c, 0, 69, 53
2, 104860, Note_on_c, 0, 47, 45
2, 104971, Note_on_c, 0, 45, 0
2, 105065, Note_on_c, 0, 68, 61
2, 105081, Note_on_c, 0, 69, 0
2, 105305, Note_on_c, 0, 49, 36
2, 105321, Note_on_c, 0, 47, 0
2, 105332, Note_on_c, 0, 76, 58
2, 105342, Note_on_c, 0, 68, 0
2, 105501, Note_on_c, 0, 76, 0
2, 105559, Note_on_c, 0, 67, 48
2, 105772, Note_on_c, 0, 50, 43
2, 105818, Note_on_c, 0, 49, 0
2, 105845, Note_on_c, 0, 67, 0
2, 105905, Note_on_c, 0, 65, 47
2, 105928, Note_on_c, 0, 50, 0
2, 106004, Note_on_c, 0, 65, 0
2, 106011, Note_on_c, 0, 67, 55
2, 106110, Note_on_c, 0, 67, 0
2, 106129, Note_on_c, 0, 69, 64
2, 106237, Note_on_c, 0, 38, 32
2, 106260, Note_on_c, 0, 69, 0
2, 106279, Note_on_c, 0, 70, 61
2, 106518, Note_on_c, 0, 62, 48
2, 106618, Note_on_c, 0, 70, 0
2, 106778, Note_on_c, 0, 38, 0
2, 106778, Note_on_c, 0, 40, 42
2, 107008, Note_on_c, 0, 61, 55
2, 107023, Note_on_c, 0, 62, 0
2, 107241, Control_c, 0, 64, 9
2, 107244, Note_on_c, 0, 40, 0
2, 107269, Note_on_c, 0, 69, 62
2, 107273, Note_on_c, 0, 52, 41
2, 107284, Note_on_c, 0, 61, 0
2, 107318, Control_c, 0, 64, 11
2, 107375, Control_c, 0, 64, 13
2, 107395, Control_c, 0, 64, 15
2, 107414, Control_c, 0, 64, 17
2, 107491, Control_c, 0, 64, 18
2, 107506, Note_on_c, 0, 60, 56
2, 107509, Control_c, 0, 64, 19
2, 107516, Note_on_c, 0, 69, 0
2, 107548, Control_c, 0, 64, 20
2, 107586, Control_c, 0, 64, 21
2, 107644, Control_c, 0, 64, 22
2, 107757, Note_on_c, 0, 51, 54
2, 107832, Note_on_c, 0, 52, 0
2, 107985, Note_on_c, 0, 59, 65
2, 107997, Note_on_c, 0, 60, 0
2, 108028, Control_c, 0, 64, 23
2, 108143, Control_c, 0, 64, 24
2, 108182, Control_c, 0, 64, 25
2, 108240, Control_c, 0, 64, 26
2, 108240, Note_on_c, 0, 68, 59
2, 108244, Note_on_c, 0, 59, 0
2, 108245, Note_on_c, 0, 50, 41
2, 108297, Control_c, 0, 64, 27
2, 108301, Note_on_c, 0, 51, 0
2, 108462, Note_on_c, 0, 68, 0
2, 108499, Note_on_c, 0, 59, 54
2, 108734, Note_on_c, 0, 49, 49
2, 108739, Note_on_c, 0, 50, 0
2, 108902, Note_on_c, 0, 59, 0
2, 108957, Note_on_c, 0, 57, 49
2, 109007, Control_c, 0, 64, 26
2, 109064, Control_c, 0, 64, 25
2, 109160, Control_c, 0, 64, 24
2, 109207, Note_on_c, 0, 57, 0
2, 109208, Note_on_c, 0, 48, 38
2, 109212, Note_on_c, 0, 65, 48
2, 109248, Note_on_c, 0, 49, 0
2, 109352, Control_c, 0, 64, 23
2, 109390, Control_c, 0, 64, 22
2, 109418, Note_on_c, 0, 65, 0
2, 109453, Note_on_c, 0, 57, 46
2, 109544, Control_c, 0, 64, 21
2, 109602, Control_c, 0, 64, 20
2, 109679, Control_c, 0, 64, 19
2, 109703, Note_on_c, 0, 47, 36
2, 109706, Note_on_c, 0, 48, 0
2, 109836, Note_on_c, 0, 47, 0
2, 109890, Control_c, 0, 64, 20
2, 109898, Note_on_c, 0, 57, 0
2, 109920, Note_on_c, 0, 56, 55
2, 109928, Control_c, 0, 64, 21
2, 109985, Control_c, 0, 64, 22
2, 110005, Control_c, 0, 64, 23
2, 110010, Note_on_c, 0, 56, 0
2, 110024, Note_on_c, 0, 54, 63
2, 110062, Control_c, 0, 64, 24
2, 110151, Note_on_c, 0, 54, 0
2, 110159, Note_on_c, 0, 47, 43
2, 110164, Note_on_c, 0, 56, 58
2, 110331, Control_c, 0, 64, 23
2, 110374, Note_on_c, 0, 56, 0
2, 110393, Note_on_c, 0, 62, 56
2, 110504, Control_c, 0, 64, 22
2, 110542, Control_c, 0, 64, 21
2, 110581, Control_c, 0, 64, 20
2, 110619, Control_c, 0, 64, 19
2, 110639, Control_c, 0, 64, 18
2, 110649, Note_on_c, 0, 45, 47
2, 110696, Control_c, 0, 64, 17
2, 110734, Control_c, 0, 64, 15
2, 110760, Note_on_c, 0, 60, 58
2, 110761, Note_on_c, 0, 62, 0
2, 110773, Control_c, 0, 64, 13
2, 110789, Note_on_c, 0, 47, 0
2, 110792, Control_c, 0, 64, 11
2, 110836, Note_on_c, 0, 45, 0
2, 110862, Note_on_c, 0, 60, 0
2, 110868, Note_on_c, 0, 59, 71
2, 110926, Control_c, 0, 64, 13
2, 110944, Control_c, 0, 64, 15
2, 110944, Note_on_c, 0, 59, 0
2, 110962, Note_on_c, 0, 57, 69
2, 110965, Control_c, 0, 64, 17
2, 110984, Control_c, 0, 64, 18
2, 111004, Control_c, 0, 64, 19
2, 111022, Control_c, 0, 64, 21
2, 111042, Control_c, 0, 64, 22
2, 111061, Control_c, 0, 64, 23
2, 111080, Control_c, 0, 64, 24
2, 111085, Note_on_c, 0, 59, 75
2, 111094, Note_on_c, 0, 57, 0
2, 111109, Note_on_c, 0, 45, 44
2, 111138, Control_c, 0, 64, 25
2, 111291, Control_c, 0, 64, 24
2, 111310, Control_c, 0, 64, 23
2, 111330, Control_c, 0, 64, 22
2, 111340, Note_on_c, 0, 65, 69
2, 111349, Control_c, 0, 64, 21
2, 111361, Note_on_c, 0, 59, 0
2, 111368, Control_c, 0, 64, 20
2, 111387, Control_c, 0, 64, 19
2, 111407, Control_c, 0, 64, 18
2, 111445, Control_c, 0, 64, 17
2, 111566, Note_on_c, 0, 44, 54
2, 111579, Control_c, 0, 64, 15
2, 111643, Note_on_c, 0, 65, 0
2, 111679, Note_on_c, 0, 64, 65
2, 111708, Note_on_c, 0, 45, 0
2, 111752, Control_c, 0, 64, 17
2, 111764, Note_on_c, 0, 44, 0
2, 111790, Control_c, 0, 64, 18
2, 111790, Note_on_c, 0, 64, 0
2, 111791, Note_on_c, 0, 62, 67
2, 111810, Control_c, 0, 64, 19
2, 111829, Control_c, 0, 64, 20
2, 111848, Control_c, 0, 64, 21
2, 111877, Note_on_c, 0, 61, 76
2, 111880, Note_on_c, 0, 62, 0
2, 111944, Control_c, 0, 64, 22
2, 111964, Control_c, 0, 64, 23
2, 112002, Control_c, 0, 64, 24
2, 112006, Note_on_c, 0, 44, 51
2, 112009, Note_on_c, 0, 62, 77
2, 112015, Note_on_c, 0, 61, 0
2, 112256, Note_on_c, 0, 71, 77
2, 112288, Note_on_c, 0, 62, 0
2, 112504, Note_on_c, 0, 40, 54
2, 112539, Control_c, 0, 64, 23
2, 112566, Note_on_c, 0, 71, 0
2, 112589, Note_on_c, 0, 69, 69
2, 112695, Note_on_c, 0, 68, 71
2, 112706, Note_on_c, 0, 40, 0
2, 112729, Note_on_c, 0, 69, 0
2, 112733, Note_on_c, 0, 44, 0
2, 112804, Note_on_c, 0, 66, 80
2, 112827, Note_on_c, 0, 68, 0
2, 112933, Note_on_c, 0, 68, 84
2, 112947, Note_on_c, 0, 40, 57
2, 112978, Note_on_c, 0, 66, 0
2, 113170, Note_on_c, 0, 74, 74
2, 113179, Note_on_c, 0, 68, 0
2, 113269, Control_c, 0, 64, 22
2, 113426, Note_on_c, 0, 45, 66
2, 113450, Note_on_c, 0, 40, 0
2, 113614, Control_c, 0, 64, 23
2, 113653, Note_on_c, 0, 72, 72
2, 113679, Note_on_c, 0, 74, 0
2, 113748, Note_on_c, 0, 71, 76
2, 113750, Note_on_c, 0, 72, 0
2, 113862, Note_on_c, 0, 72, 81
2, 113873, Note_on_c, 0, 71, 0
2, 113926, Note_on_c, 0, 45, 0
2, 113985, Note_on_c, 0, 50, 60
2, 114077, Note_on_c, 0, 72, 0
2, 114088, Note_on_c, 0, 69, 72
2, 114092, Note_on_c, 0, 52, 61
2, 114094, Control_c, 0, 64, 24
2, 114100, Note_on_c, 0, 50, 0
2, 114194, Note_on_c, 0, 52, 0
2, 114206, Note_on_c, 0, 54, 63
2, 114247, Control_c, 0, 64, 25
2, 114309, Note_on_c, 0, 54, 0
2, 114346, Note_on_c, 0, 70, 72
2, 114358, Note_on_c, 0, 55, 41
2, 114363, Control_c, 0, 64, 26
2, 114377, Note_on_c, 0, 69, 0
2, 114401, Control_c, 0, 64, 27
2, 114440, Control_c, 0, 64, 27
2, 114478, Control_c, 0, 64, 28
2, 114516, Control_c, 0, 64, 29
2, 114535, Control_c, 0, 64, 29
2, 114554, Control_c, 0, 64, 31
2, 114569, Note_on_c, 0, 55, 0
2, 114574, Control_c, 0, 64, 31
2, 114575, Note_on_c, 0, 51, 59
2, 114592, Control_c, 0, 64, 32
2, 114612, Control_c, 0, 64, 32
2, 114631, Control_c, 0, 64, 33
2, 114650, Control_c, 0, 64, 34
2, 114669, Control_c, 0, 64, 34
2, 114708, Control_c, 0, 64, 35
2, 114727, Control_c, 0, 64, 35
2, 114763, Control_c, 0, 64, 36
2, 114821, Note_on_c, 0, 50, 56
2, 114826, Note_on_c, 0, 51, 0
2, 114836, Note_on_c, 0, 71, 73
2, 114843, Note_on_c, 0, 70, 0
2, 115063, Note_on_c, 0, 56, 73
2, 115099, Note_on_c, 0, 50, 0
2, 115320, Note_on_c, 0, 57, 62
2, 115324, Note_on_c, 0, 72, 80
2, 115372, Note_on_c, 0, 71, 0
2, 115438, Note_on_c, 0, 56, 0
2, 115534, Control_c, 0, 64, 35
2, 115563, Note_on_c, 0, 53, 78
2, 115586, Note_on_c, 0, 57, 0
2, 115592, Control_c, 0, 64, 35
2, 115650, Control_c, 0, 64, 34
2, 115784, Control_c, 0, 64, 34
2, 115804, Note_on_c, 0, 53, 0
2, 115806, Note_on_c, 0, 73, 82
2, 115808, Note_on_c, 0, 52, 66
2, 115857, Note_on_c, 0, 72, 0
2, 116033, Note_on_c, 0, 58, 78
2, 116131, Note_on_c, 0, 52, 0
2, 116284, Note_on_c, 0, 73, 0
2, 116292, Note_on_c, 0, 74, 83
2, 116437, Control_c, 0, 64, 34
2, 116513, Control_c, 0, 64, 35
2, 116515, Note_on_c, 0, 57, 76
2, 116535, Note_on_c, 0, 58, 0
2, 116552, Control_c, 0, 64, 35
2, 116760, Note_on_c, 0, 76, 80
2, 116788, Note_on_c, 0, 74, 0
2, 116955, Control_c, 0, 64, 36
2, 116994, Note_on_c, 0, 55, 73
2, 116998, Note_on_c, 0, 57, 0
2, 117032, Control_c, 0, 64, 36
2, 117090, Control_c, 0, 64, 37
2, 117128, Control_c, 0, 64, 37
2, 117241, Note_on_c, 0, 53, 61
2, 117248, Note_on_c, 0, 55, 0
2, 117334, Note_on_c, 0, 73, 69
2, 117348, Note_on_c, 0, 53, 0
2, 117357, Note_on_c, 0, 52, 64
2, 117361, Note_on_c, 0, 76, 0
2, 117438, Note_on_c, 0, 73, 0
2, 117442, Note_on_c, 0, 74, 76
2, 117456, Note_on_c, 0, 53, 66
2, 117463, Note_on_c, 0, 52, 0
2, 117544, Note_on_c, 0, 53, 0
2, 117544, Note_on_c, 0, 55, 71
2, 117544, Note_on_c, 0, 76, 81
2, 117562, Note_on_c, 0, 74, 0
2, 117648, Note_on_c, 0, 55, 0
2, 117664, Note_on_c, 0, 57, 69
2, 117666, Note_on_c, 0, 77, 82
2, 117696, Note_on_c, 0, 76, 0
2, 117801, Control_c, 0, 64, 37
2, 117896, Note_on_c, 0, 72, 82
2, 118153, Note_on_c, 0, 71, 78
2, 118154, Note_on_c, 0, 56, 74
2, 118166, Control_c, 0, 64, 36
2, 118185, Control_c, 0, 64, 36
2, 118204, Note_on_c, 0, 57, 0
2, 118221, Note_on_c, 0, 72, 0
2, 118225, Note_on_c, 0, 77, 0
2, 118281, Control_c, 0, 64, 35
2, 118392, Note_on_c, 0, 75, 86
2, 118549, Control_c, 0, 64, 35
2, 118584, Note_on_c, 0, 71, 0
2, 118649, Note_on_c, 0, 76, 79
2, 118654, Note_on_c, 0, 55, 70
2, 118663, Control_c, 0, 64, 34
2, 118696, Note_on_c, 0, 75, 0
2, 118697, Note_on_c, 0, 56, 0
2, 118721, Control_c, 0, 64, 34
2, 118778, Control_c, 0, 64, 33
2, 118835, Control_c, 0, 64, 32
2, 118887, Note_on_c, 0, 70, 79
2, 119012, Note_on_c, 0, 76, 0
2, 119137, Note_on_c, 0, 54, 75
2, 119150, Note_on_c, 0, 70, 0
2, 119158, Note_on_c, 0, 69, 77
2, 119180, Note_on_c, 0, 55, 0
2, 119395, Note_on_c, 0, 73, 81
2, 119450, Control_c, 0, 64, 32
2, 119488, Note_on_c, 0, 69, 0
2, 119489, Control_c, 0, 64, 31
2, 119546, Control_c, 0, 64, 31
2, 119605, Control_c, 0, 64, 30
2, 119644, Control_c, 0, 64, 29
2, 119648, Note_on_c, 0, 53, 64
2, 119648, Note_on_c, 0, 74, 77
2, 119720, Control_c, 0, 64, 29
2, 119735, Note_on_c, 0, 54, 0
2, 119816, Control_c, 0, 64, 28
2, 119873, Control_c, 0, 64, 27
2, 119890, Note_on_c, 0, 68, 80
2, 119934, Note_on_c, 0, 74, 0
2, 119950, Control_c, 0, 64, 27
2, 120005, Note_on_c, 0, 73, 0
2, 120027, Control_c, 0, 64, 26
2, 120085, Control_c, 0, 64, 25
2, 120117, Note_on_c, 0, 52, 76
2, 120162, Control_c, 0, 64, 24
2, 120170, Note_on_c, 0, 53, 0
2, 120239, Control_c, 0, 64, 23
2, 120364, Note_on_c, 0, 69, 83
2, 120373, Control_c, 0, 64, 22
2, 120378, Note_on_c, 0, 68, 0
2, 120430, Control_c, 0, 64, 21
2, 120488, Control_c, 0, 64, 20
2, 120527, Control_c, 0, 64, 18
2, 120545, Control_c, 0, 64, 17
2, 120584, Control_c, 0, 64, 13
2, 120604, Control_c, 0, 64, 9
2, 120605, Note_on_c, 0, 50, 76
2, 120622, Control_c, 0, 64, 0
2, 120635, Note_on_c, 0, 52, 0
2, 120809, Note_on_c, 0, 69, 0
2, 120830, Note_on_c, 0, 71, 83
2, 121052, Note_on_c, 0, 71, 0
2, 121070, Note_on_c, 0, 64, 71
2, 121279, Note_on_c, 0, 64, 0
2, 121287, Note_on_c, 0, 50, 0
2, 121294, Note_on_c, 0, 48, 57
2, 121308, Note_on_c, 0, 76, 72
2, 121380, Note_on_c, 0, 48, 0
2, 121400, Note_on_c, 0, 47, 70
2, 121520, Note_on_c, 0, 47, 0
2, 121523, Note_on_c, 0, 48, 71
2, 121603, Note_on_c, 0, 74, 75
2, 121633, Note_on_c, 0, 76, 0
2, 121721, Note_on_c, 0, 45, 69
2, 121722, Note_on_c, 0, 72, 78
2, 121727, Note_on_c, 0, 48, 0
2, 121796, Note_on_c, 0, 74, 0
2, 121825, Note_on_c, 0, 71, 82
2, 121856, Note_on_c, 0, 72, 0
2, 121910, Note_on_c, 0, 45, 0
2, 121948, Note_on_c, 0, 52, 69
2, 121950, Note_on_c, 0, 74, 78
2, 121954, Note_on_c, 0, 71, 0
2, 122051, Note_on_c, 0, 52, 0
2, 122056, Note_on_c, 0, 72, 82
2, 122063, Note_on_c, 0, 50, 66
2, 122102, Note_on_c, 0, 74, 0
2, 122154, Note_on_c, 0, 50, 0
2, 122161, Note_on_c, 0, 71, 76
2, 122182, Note_on_c, 0, 52, 71
2, 122196, Control_c, 0, 64, 9
2, 122196, Note_on_c, 0, 72, 0
2, 122235, Control_c, 0, 64, 11
2, 122262, Note_on_c, 0, 69, 79
2, 122271, Note_on_c, 0, 71, 0
2, 122293, Control_c, 0, 64, 13
2, 122370, Control_c, 0, 64, 15
2, 122377, Note_on_c, 0, 40, 67
2, 122389, Note_on_c, 0, 52, 0
2, 122391, Note_on_c, 0, 72, 85
2, 122407, Note_on_c, 0, 69, 0
2, 122464, Control_c, 0, 64, 17
2, 122494, Note_on_c, 0, 71, 83
2, 122503, Control_c, 0, 64, 19
2, 122515, Note_on_c, 0, 72, 0
2, 122523, Control_c, 0, 64, 21
2, 122561, Control_c, 0, 64, 22
2, 122580, Control_c, 0, 64, 23
2, 122588, Note_on_c, 0, 71, 0
2, 122600, Control_c, 0, 64, 24
2, 122602, Note_on_c, 0, 69, 82
2, 122618, Control_c, 0, 64, 26
2, 122638, Control_c, 0, 64, 27
2, 122695, Control_c, 0, 64, 27
2, 122711, Note_on_c, 0, 68, 76
2, 122725, Note_on_c, 0, 69, 0
2, 122854, Note_on_c, 0, 68, 0
2, 122876, Note_on_c, 0, 69, 72
2, 122886, Note_on_c, 0, 45, 51
2, 122910, Note_on_c, 0, 40, 0
2, 122950, Note_on_c, 0, 68, 79
2, 122952, Note_on_c, 0, 69, 0
2, 123024, Note_on_c, 0, 69, 73
2, 123046, Note_on_c, 0, 68, 0
2, 123118, Control_c, 0, 64, 27
2, 123169, Note_on_c, 0, 47, 63
2, 123171, Note_on_c, 0, 45, 0
2, 123257, Note_on_c, 0, 47, 0
2, 123284, Note_on_c, 0, 48, 62
2, 123382, Note_on_c, 0, 50, 72
2, 123405, Control_c, 0, 64, 27
2, 123418, Note_on_c, 0, 48, 0
2, 123424, Control_c, 0, 64, 28
2, 123444, Control_c, 0, 64, 29
2, 123463, Control_c, 0, 64, 30
2, 123470, Note_on_c, 0, 50, 0
2, 123483, Control_c, 0, 64, 32
2, 123500, Note_on_c, 0, 52, 70
2, 123501, Control_c, 0, 64, 34
2, 123521, Control_c, 0, 64, 35
2, 123540, Control_c, 0, 64, 35
2, 123578, Control_c, 0, 64, 36
2, 123598, Control_c, 0, 64, 36
2, 123608, Note_on_c, 0, 54, 80
2, 123617, Control_c, 0, 64, 37
2, 123635, Control_c, 0, 64, 38
2, 123638, Note_on_c, 0, 52, 0
2, 123655, Control_c, 0, 64, 38
2, 123694, Control_c, 0, 64, 39
2, 123722, Note_on_c, 0, 56, 83
2, 123734, Note_on_c, 0, 54, 0
2, 123866, Control_c, 0, 64, 38
2, 123886, Control_c, 0, 64, 36
2, 123904, Control_c, 0, 64, 35
2, 123924, Control_c, 0, 64, 32
2, 123927, Note_on_c, 0, 57, 78
2, 123930, Note_on_c, 0, 56, 0
2, 123943, Control_c, 0, 64, 29
2, 123963, Control_c, 0, 64, 24
2, 123981, Control_c, 0, 64, 17
2, 124001, Control_c, 0, 64, 0
2, 124144, Note_on_c, 0, 57, 0
2, 124784, Note_on_c, 0, 45, 67
2, 125834, Note_on_c, 0, 45, 0
2, 125895, Note_on_c, 0, 69, 0
2, 128013, Control_c, 0, 64, 9
2, 128051, Control_c, 0, 64, 11
2, 128059,End_track
0, 0, End_of_file
