0, 0, Header, 1, 2, 480
1, 0, Start_track
1, 0, Tempo, 500000
1, 0, Time_signature, 4, 2, 24, 8
1, 1, End_track
2, 0, Start_track
2, 0, Program_c, 0, 0
2, 0, Control_c, 0, 64, 0
2, 0, Control_c, 0, 67, 0
2, 840, Note_on_c, 0, 45, 36
2, 985, Note_on_c, 0, 72, 58
2, 990, Note_on_c, 0, 45, 0
2, 1088, Note_on_c, 0, 72, 0
2, 1114, Note_on_c, 0, 74, 55
2, 1196, Note_on_c, 0, 74, 0
2, 1209, Note_on_c, 0, 76, 66
2, 1344, Note_on_c, 0, 57, 38
2, 1359, Note_on_c, 0, 77, 64
2, 1365, Note_on_c, 0, 76, 0
2, 1597, Note_on_c, 0, 72, 66
2, 1841, Note_on_c, 0, 71, 62
2, 1854, Note_on_c, 0, 72, 0
2, 1863, Note_on_c, 0, 56, 45
2, 1936, Note_on_c, 0, 57, 0
2, 2086, Note_on_c, 0, 75, 74
2, 2100, Note_on_c, 0, 77, 0
2, 2163, Note_on_c, 0, 71, 0
2, 2352, Note_on_c, 0, 76, 62
2, 2358, Note_on_c, 0, 55, 42
2, 2386, Note_on_c, 0, 75, 0
2, 2420, Note_on_c, 0, 56, 0
2, 2590, Note_on_c, 0, 70, 63
2, 2859, Note_on_c, 0, 54, 47
2, 2859, Note_on_c, 0, 69, 61
2, 2869, Note_on_c, 0, 70, 0
2, 2875, Note_on_c, 0, 55, 0
2, 3096, Note_on_c, 0, 73, 68
2, 3102, Note_on_c, 0, 76, 0
2, 3153, Note_on_c, 0, 69, 0
2, 3358, Note_on_c, 0, 74, 60
2, 3362, Note_on_c, 0, 53, 45
2, 3389, Note_on_c, 0, 73, 0
2, 3396, Note_on_c, 0, 54, 0
2, 3597, Note_on_c, 0, 68, 64
2, 3649, Note_on_c, 0, 74, 0
2, 3851, Note_on_c, 0, 53, 0
2, 3855, Note_on_c, 0, 52, 49
2, 4088, Note_on_c, 0, 68, 0
2, 4093, Note_on_c, 0, 69, 65
2, 4351, Note_on_c, 0, 50, 46
2, 4355, Note_on_c, 0, 52, 0
2, 4571, Note_on_c, 0, 69, 0
2, 4581, Note_on_c, 0, 71, 62
2, 4780, Note_on_c, 0, 71, 0
2, 4815, Note_on_c, 0, 64, 57
2, 4888, Note_on_c, 0, 50, 0
2, 4927, Note_on_c, 0, 48, 48
2, 5039, Note_on_c, 0, 50, 58
2, 5042, Note_on_c, 0, 48, 0
2, 5137, Note_on_c, 0, 50, 0
2, 5150, Note_on_c, 0, 52, 64
2, 5257, Note_on_c, 0, 52, 0
2, 5290, Note_on_c, 0, 69, 69
2, 5296, Note_on_c, 0, 53, 53
2, 5346, Note_on_c, 0, 64, 0
2, 5535, Note_on_c, 0, 53, 0
2, 5540, Note_on_c, 0, 48, 61
2, 5797, Note_on_c, 0, 68, 72
2, 5799, Note_on_c, 0, 47, 54
2, 5817, Note_on_c, 0, 48, 0
2, 5857, Note_on_c, 0, 69, 0
2, 6035, Note_on_c, 0, 47, 0
2, 6045, Note_on_c, 0, 51, 59
2, 6301, Note_on_c, 0, 51, 0
2, 6306, Note_on_c, 0, 52, 42
2, 6308, Note_on_c, 0, 67, 58
2, 6318, Note_on_c, 0, 68, 0
2, 6549, Note_on_c, 0, 52, 0
2, 6554, Note_on_c, 0, 46, 49
2, 6799, Note_on_c, 0, 45, 45
2, 6803, Note_on_c, 0, 66, 57
2, 6813, Note_on_c, 0, 46, 0
2, 6817, Note_on_c, 0, 67, 0
2, 7019, Note_on_c, 0, 45, 0
2, 7046, Note_on_c, 0, 49, 54
2, 7278, Note_on_c, 0, 49, 0
2, 7308, Note_on_c, 0, 65, 52
2, 7310, Note_on_c, 0, 50, 40
2, 7313, Note_on_c, 0, 66, 0
2, 7541, Note_on_c, 0, 50, 0
2, 7556, Note_on_c, 0, 44, 44
2, 7787, Note_on_c, 0, 65, 0
2, 7811, Note_on_c, 0, 64, 54
2, 8056, Note_on_c, 0, 45, 43
2, 8094, Note_on_c, 0, 44, 0
2, 8305, Note_on_c, 0, 64, 0
2, 8321, Note_on_c, 0, 62, 48
2, 8559, Note_on_c, 0, 45, 0
2, 8567, Note_on_c, 0, 47, 41
2, 8835, Note_on_c, 0, 40, 38
2, 8853, Note_on_c, 0, 47, 0
2, 8977, Note_on_c, 0, 40, 0
2, 9010, Note_on_c, 0, 62, 0
2, 9066, Note_on_c, 0, 60, 50
2, 9142, Note_on_c, 0, 60, 0
2, 9157, Note_on_c, 0, 59, 63
2, 9260, Note_on_c, 0, 59, 0
2, 9288, Note_on_c, 0, 45, 40
2, 9289, Note_on_c, 0, 60, 64
2, 9545, Note_on_c, 0, 69, 67
2, 9557, Note_on_c, 0, 60, 0
2, 9788, Note_on_c, 0, 47, 52
2, 9842, Note_on_c, 0, 45, 0
2, 10010, Note_on_c, 0, 69, 0
2, 10026, Note_on_c, 0, 68, 68
2, 10296, Note_on_c, 0, 49, 50
2, 10296, Note_on_c, 0, 76, 61
2, 10308, Note_on_c, 0, 47, 0
2, 10520, Note_on_c, 0, 68, 0
2, 10521, Note_on_c, 0, 76, 0
2, 10532, Note_on_c, 0, 67, 57
2, 10765, Note_on_c, 0, 50, 51
2, 10835, Note_on_c, 0, 49, 0
2, 10949, Note_on_c, 0, 67, 0
2, 10958, Note_on_c, 0, 50, 0
2, 11016, Note_on_c, 0, 65, 63
2, 11102, Note_on_c, 0, 65, 0
2, 11118, Note_on_c, 0, 64, 69
2, 11208, Note_on_c, 0, 64, 0
2, 11230, Note_on_c, 0, 47, 60
2, 11231, Note_on_c, 0, 63, 74
2, 11474, Note_on_c, 0, 71, 75
2, 11531, Note_on_c, 0, 63, 0
2, 11721, Note_on_c, 0, 49, 78
2, 11769, Note_on_c, 0, 47, 0
2, 11875, Note_on_c, 0, 71, 0
2, 11958, Note_on_c, 0, 70, 77
2, 12202, Note_on_c, 0, 51, 52
2, 12204, Note_on_c, 0, 78, 74
2, 12236, Note_on_c, 0, 70, 0
2, 12259, Note_on_c, 0, 49, 0
2, 12426, Note_on_c, 0, 78, 0
2, 12453, Note_on_c, 0, 69, 65
2, 12684, Note_on_c, 0, 52, 53
2, 12694, Note_on_c, 0, 51, 0
2, 12757, Note_on_c, 0, 69, 0
2, 12789, Note_on_c, 0, 52, 0
2, 12800, Note_on_c, 0, 67, 70
2, 12908, Note_on_c, 0, 69, 78
2, 12914, Note_on_c, 0, 67, 0
2, 13009, Note_on_c, 0, 69, 0
2, 13010, Note_on_c, 0, 71, 80
2, 13149, Note_on_c, 0, 64, 48
2, 13152, Note_on_c, 0, 72, 75
2, 13163, Note_on_c, 0, 71, 0
2, 13402, Note_on_c, 0, 67, 64
2, 13675, Note_on_c, 0, 66, 70
2, 13677, Note_on_c, 0, 63, 49
2, 13679, Note_on_c, 0, 64, 0
2, 13704, Note_on_c, 0, 72, 0
2, 13732, Note_on_c, 0, 67, 0
2, 13919, Note_on_c, 0, 70, 74
2, 13983, Note_on_c, 0, 66, 0
2, 14171, Note_on_c, 0, 71, 66
2, 14190, Note_on_c, 0, 62, 48
2, 14193, Note_on_c, 0, 63, 0
2, 14210, Note_on_c, 0, 70, 0
2, 14424, Note_on_c, 0, 65, 62
2, 14613, Note_on_c, 0, 71, 0
2, 14668, Note_on_c, 0, 64, 64
2, 14687, Note_on_c, 0, 61, 45
2, 14705, Note_on_c, 0, 65, 0
2, 14712, Note_on_c, 0, 62, 0
2, 14913, Note_on_c, 0, 68, 68
2, 14960, Note_on_c, 0, 64, 0
2, 15167, Note_on_c, 0, 69, 65
2, 15184, Note_on_c, 0, 60, 45
2, 15193, Note_on_c, 0, 61, 0
2, 15194, Note_on_c, 0, 68, 0
2, 15411, Note_on_c, 0, 63, 56
2, 15470, Note_on_c, 0, 69, 0
2, 15641, Note_on_c, 0, 59, 55
2, 15647, Note_on_c, 0, 60, 0
2, 15878, Note_on_c, 0, 63, 0
2, 15899, Note_on_c, 0, 64, 62
2, 16148, Note_on_c, 0, 57, 51
2, 16158, Note_on_c, 0, 59, 0
2, 16333, Note_on_c, 0, 64, 0
2, 16372, Note_on_c, 0, 66, 58
2, 16609, Note_on_c, 0, 59, 60
2, 16670, Note_on_c, 0, 57, 0
2, 16708, Note_on_c, 0, 59, 0
2, 16716, Note_on_c, 0, 55, 51
2, 16751, Note_on_c, 0, 66, 0
2, 16825, Note_on_c, 0, 57, 64
2, 16831, Note_on_c, 0, 55, 0
2, 16919, Note_on_c, 0, 57, 0
2, 16923, Note_on_c, 0, 59, 69
2, 17035, Note_on_c, 0, 59, 0
2, 17067, Note_on_c, 0, 60, 51
2, 17067, Note_on_c, 0, 76, 70
2, 17291, Note_on_c, 0, 60, 0
2, 17310, Note_on_c, 0, 55, 62
2, 17560, Note_on_c, 0, 55, 0
2, 17568, Note_on_c, 0, 75, 73
2, 17575, Note_on_c, 0, 54, 54
2, 17613, Note_on_c, 0, 76, 0
2, 17806, Note_on_c, 0, 58, 62
2, 17849, Note_on_c, 0, 54, 0
2, 18060, Note_on_c, 0, 59, 50
2, 18063, Note_on_c, 0, 58, 0
2, 18066, Note_on_c, 0, 74, 64
2, 18086, Note_on_c, 0, 75, 0
2, 18303, Note_on_c, 0, 59, 0
2, 18310, Note_on_c, 0, 53, 58
2, 18544, Note_on_c, 0, 52, 49
2, 18556, Note_on_c, 0, 73, 68
2, 18558, Note_on_c, 0, 53, 0
2, 18588, Note_on_c, 0, 74, 0
2, 18810, Note_on_c, 0, 52, 0
2, 18813, Note_on_c, 0, 56, 60
2, 19049, Note_on_c, 0, 56, 0
2, 19061, Note_on_c, 0, 72, 62
2, 19063, Note_on_c, 0, 57, 49
2, 19096, Note_on_c, 0, 73, 0
2, 19289, Note_on_c, 0, 57, 0
2, 19300, Note_on_c, 0, 51, 50
2, 19548, Note_on_c, 0, 72, 0
2, 19554, Note_on_c, 0, 71, 60
2, 19786, Note_on_c, 0, 52, 50
2, 19831, Note_on_c, 0, 51, 0
2, 20040, Note_on_c, 0, 71, 0
2, 20042, Note_on_c, 0, 69, 56
2, 20281, Note_on_c, 0, 52, 0
2, 20283, Note_on_c, 0, 54, 46
2, 20505, Note_on_c, 0, 47, 41
2, 20540, Note_on_c, 0, 54, 0
2, 20671, Note_on_c, 0, 47, 0
2, 20686, Note_on_c, 0, 69, 0
2, 20745, Note_on_c, 0, 67, 54
2, 20831, Note_on_c, 0, 67, 0
2, 20840, Note_on_c, 0, 66, 67
2, 20956, Note_on_c, 0, 66, 0
2, 20964, Note_on_c, 0, 52, 46
2, 20975, Note_on_c, 0, 67, 65
2, 21234, Note_on_c, 0, 76, 69
2, 21249, Note_on_c, 0, 67, 0
2, 21467, Note_on_c, 0, 54, 65
2, 21534, Note_on_c, 0, 52, 0
2, 21659, Note_on_c, 0, 76, 0
2, 21693, Note_on_c, 0, 75, 72
2, 21948, Note_on_c, 0, 54, 0
2, 21960, Note_on_c, 0, 83, 67
2, 21962, Note_on_c, 0, 56, 53
2, 21987, Note_on_c, 0, 75, 0
2, 22165, Note_on_c, 0, 83, 0
2, 22186, Note_on_c, 0, 74, 55
2, 22345, Note_on_c, 0, 56, 0
2, 22428, Note_on_c, 0, 57, 50
2, 22462, Note_on_c, 0, 57, 0
2, 22645, Note_on_c, 0, 72, 64
2, 22649, Note_on_c, 0, 74, 0
2, 22655, Note_on_c, 0, 45, 43
2, 22695, Note_on_c, 0, 45, 0
2, 22744, Note_on_c, 0, 72, 0
2, 22751, Note_on_c, 0, 71, 65
2, 22875, Note_on_c, 0, 71, 0
2, 22882, Note_on_c, 0, 72, 70
2, 22891, Note_on_c, 0, 57, 55
2, 23108, Note_on_c, 0, 72, 0
2, 23129, Note_on_c, 0, 69, 77
2, 23383, Note_on_c, 0, 71, 77
2, 23422, Note_on_c, 0, 69, 0
2, 23553, Control_c, 0, 64, 9
2, 23571, Control_c, 0, 64, 15
2, 23591, Control_c, 0, 64, 18
2, 23592, Note_on_c, 0, 57, 0
2, 23609, Note_on_c, 0, 56, 65
2, 23610, Control_c, 0, 64, 20
2, 23629, Control_c, 0, 64, 21
2, 23822, Control_c, 0, 64, 20
2, 23842, Note_on_c, 0, 56, 0
2, 23860, Control_c, 0, 64, 19
2, 23864, Note_on_c, 0, 64, 55
2, 23879, Control_c, 0, 64, 18
2, 23881, Note_on_c, 0, 73, 73
2, 23899, Control_c, 0, 64, 17
2, 23902, Note_on_c, 0, 71, 0
2, 23917, Control_c, 0, 64, 15
2, 23936, Control_c, 0, 64, 13
2, 23956, Control_c, 0, 64, 11
2, 23974, Control_c, 0, 64, 9
2, 24013, Control_c, 0, 64, 0
2, 24026, Note_on_c, 0, 64, 0
2, 24105, Note_on_c, 0, 55, 59
2, 24308, Note_on_c, 0, 55, 0
2, 24334, Note_on_c, 0, 55, 19
2, 24345, Note_on_c, 0, 74, 60
2, 24350, Note_on_c, 0, 73, 0
2, 24382, Note_on_c, 0, 74, 0
2, 24554, Note_on_c, 0, 55, 0
2, 24568, Note_on_c, 0, 62, 56
2, 24572, Note_on_c, 0, 54, 54
2, 24603, Note_on_c, 0, 62, 0
2, 24642, Note_on_c, 0, 54, 0
2, 24667, Note_on_c, 0, 52, 58
2, 24786, Note_on_c, 0, 52, 0
2, 24798, Note_on_c, 0, 54, 51
2, 24798, Note_on_c, 0, 74, 68
2, 25020, Note_on_c, 0, 54, 0
2, 25026, Note_on_c, 0, 50, 66
2, 25285, Note_on_c, 0, 52, 71
2, 25325, Note_on_c, 0, 50, 0
2, 25473, Note_on_c, 0, 74, 0
2, 25491, Note_on_c, 0, 73, 75
2, 25757, Note_on_c, 0, 81, 69
2, 25761, Note_on_c, 0, 54, 46
2, 25772, Note_on_c, 0, 52, 0
2, 25795, Note_on_c, 0, 73, 0
2, 25956, Note_on_c, 0, 81, 0
2, 25987, Note_on_c, 0, 72, 64
2, 26177, Note_on_c, 0, 54, 0
2, 26217, Note_on_c, 0, 55, 49
2, 26251, Note_on_c, 0, 55, 0
2, 26440, Note_on_c, 0, 43, 58
2, 26442, Note_on_c, 0, 72, 0
2, 26446, Note_on_c, 0, 71, 61
2, 26479, Note_on_c, 0, 43, 0
2, 26543, Note_on_c, 0, 71, 0
2, 26547, Note_on_c, 0, 69, 65
2, 26668, Note_on_c, 0, 55, 50
2, 26679, Note_on_c, 0, 69, 0
2, 26679, Note_on_c, 0, 71, 73
2, 26911, Note_on_c, 0, 71, 0
2, 26920, Note_on_c, 0, 67, 71
2, 27165, Note_on_c, 0, 69, 79
2, 27218, Note_on_c, 0, 67, 0
2, 27393, Note_on_c, 0, 54, 73
2, 27397, Note_on_c, 0, 55, 0
2, 27639, Note_on_c, 0, 62, 53
2, 27648, Note_on_c, 0, 71, 73
2, 27653, Note_on_c, 0, 54, 0
2, 27695, Note_on_c, 0, 69, 0
2, 27856, Note_on_c, 0, 62, 0
2, 27874, Note_on_c, 0, 53, 57
2, 28064, Note_on_c, 0, 71, 0
2, 28098, Note_on_c, 0, 72, 68
2, 28171, Note_on_c, 0, 53, 0
2, 28222, Note_on_c, 0, 52, 50
2, 28309, Note_on_c, 0, 52, 0
2, 28338, Note_on_c, 0, 53, 55
2, 28417, Note_on_c, 0, 53, 0
2, 28441, Note_on_c, 0, 55, 53
2, 28549, Note_on_c, 0, 55, 0
2, 28559, Note_on_c, 0, 84, 68
2, 28584, Note_on_c, 0, 57, 43
2, 28686, Note_on_c, 0, 72, 0
2, 28803, Note_on_c, 0, 57, 0
2, 28818, Note_on_c, 0, 52, 58
2, 29071, Note_on_c, 0, 51, 55
2, 29074, Note_on_c, 0, 83, 69
2, 29081, Note_on_c, 0, 52, 0
2, 29126, Note_on_c, 0, 84, 0
2, 29309, Note_on_c, 0, 54, 68
2, 29355, Note_on_c, 0, 51, 0
2, 29577, Note_on_c, 0, 82, 75
2, 29578, Note_on_c, 0, 55, 53
2, 29598, Note_on_c, 0, 54, 0
2, 29604, Note_on_c, 0, 83, 0
2, 29805, Note_on_c, 0, 50, 61
2, 29821, Note_on_c, 0, 55, 0
2, 30055, Note_on_c, 0, 49, 55
2, 30055, Note_on_c, 0, 50, 0
2, 30067, Note_on_c, 0, 81, 69
2, 30113, Note_on_c, 0, 82, 0
2, 30138, Control_c, 0, 64, 9
2, 30311, Note_on_c, 0, 52, 53
2, 30326, Note_on_c, 0, 49, 0
2, 30554, Note_on_c, 0, 80, 62
2, 30560, Note_on_c, 0, 52, 0
2, 30569, Note_on_c, 0, 53, 41
2, 30585, Note_on_c, 0, 81, 0
2, 30801, Note_on_c, 0, 48, 44
2, 30813, Note_on_c, 0, 53, 0
2, 31035, Note_on_c, 0, 79, 63
2, 31049, Note_on_c, 0, 80, 0
2, 31286, Note_on_c, 0, 47, 45
2, 31369, Note_on_c, 0, 48, 0
2, 31425, Control_c, 0, 64, 0
2, 31513, Note_on_c, 0, 79, 0
2, 31519, Note_on_c, 0, 77, 55
2, 31723, Note_on_c, 0, 77, 0
2, 31732, Note_on_c, 0, 48, 46
2, 31742, Note_on_c, 0, 47, 0
2, 31818, Note_on_c, 0, 48, 0
2, 31840, Note_on_c, 0, 50, 51
2, 31964, Note_on_c, 0, 50, 0
2, 31967, Note_on_c, 0, 43, 49
2, 32057, Note_on_c, 0, 43, 0
2, 32084, Note_on_c, 0, 71, 59
2, 32183, Note_on_c, 0, 71, 0
2, 32183, Note_on_c, 0, 72, 64
2, 32284, Note_on_c, 0, 72, 0
2, 32285, Note_on_c, 0, 74, 66
2, 32415, Note_on_c, 0, 55, 45
2, 32420, Note_on_c, 0, 74, 0
2, 32421, Note_on_c, 0, 76, 67
2, 32661, Note_on_c, 0, 71, 66
2, 32914, Note_on_c, 0, 54, 51
2, 32917, Note_on_c, 0, 70, 72
2, 32986, Note_on_c, 0, 76, 0
2, 32998, Note_on_c, 0, 55, 0
2, 33003, Note_on_c, 0, 71, 0
2, 33018, Control_c, 0, 64, 9
2, 33146, Note_on_c, 0, 73, 73
2, 33153, Control_c, 0, 64, 11
2, 33247, Note_on_c, 0, 70, 0
2, 33404, Note_on_c, 0, 74, 71
2, 33407, Note_on_c, 0, 53, 53
2, 33457, Note_on_c, 0, 73, 0
2, 33502, Note_on_c, 0, 54, 0
2, 33646, Note_on_c, 0, 69, 70
2, 33895, Note_on_c, 0, 68, 71
2, 33910, Note_on_c, 0, 52, 51
2, 33928, Note_on_c, 0, 74, 0
2, 33953, Note_on_c, 0, 53, 0
2, 33959, Note_on_c, 0, 69, 0
2, 34017, Control_c, 0, 64, 13
2, 34139, Note_on_c, 0, 71, 74
2, 34170, Control_c, 0, 64, 15
2, 34204, Note_on_c, 0, 68, 0
2, 34323, Control_c, 0, 64, 17
2, 34379, Note_on_c, 0, 51, 48
2, 34384, Note_on_c, 0, 72, 74
2, 34431, Note_on_c, 0, 71, 0
2, 34465, Note_on_c, 0, 52, 0
2, 34638, Note_on_c, 0, 67, 65
2, 34708, Note_on_c, 0, 72, 0
2, 34823, Control_c, 0, 64, 18
2, 34880, Note_on_c, 0, 50, 56
2, 34901, Note_on_c, 0, 51, 0
2, 34996, Control_c, 0, 64, 19
2, 35130, Note_on_c, 0, 66, 65
2, 35167, Note_on_c, 0, 67, 0
2, 35366, Note_on_c, 0, 50, 0
2, 35371, Note_on_c, 0, 48, 55
2, 35437, Control_c, 0, 64, 18
2, 35533, Control_c, 0, 64, 17
2, 35548, Note_on_c, 0, 66, 0
2, 35591, Control_c, 0, 64, 15
2, 35609, Note_on_c, 0, 67, 35
2, 35668, Control_c, 0, 64, 13
2, 35673, Note_on_c, 0, 67, 0
2, 35687, Control_c, 0, 64, 11
2, 35694, Note_on_c, 0, 69, 57
2, 35725, Control_c, 0, 64, 9
2, 35745, Control_c, 0, 64, 0
2, 35793, Note_on_c, 0, 69, 0
2, 35834, Note_on_c, 0, 62, 53
2, 36055, Note_on_c, 0, 48, 0
2, 36082, Note_on_c, 0, 47, 53
2, 36149, Note_on_c, 0, 47, 0
2, 36178, Note_on_c, 0, 45, 51
2, 36289, Note_on_c, 0, 62, 0
2, 36307, Note_on_c, 0, 67, 57
2, 36317, Note_on_c, 0, 45, 0
2, 36318, Note_on_c, 0, 47, 43
2, 36501, Note_on_c, 0, 47, 0
2, 36556, Note_on_c, 0, 55, 57
2, 36803, Note_on_c, 0, 69, 70
2, 36832, Note_on_c, 0, 67, 0
2, 37002, Note_on_c, 0, 55, 0
2, 37025, Note_on_c, 0, 54, 65
2, 37283, Note_on_c, 0, 62, 52
2, 37292, Note_on_c, 0, 71, 70
2, 37299, Note_on_c, 0, 54, 0
2, 37329, Note_on_c, 0, 69, 0
2, 37479, Note_on_c, 0, 62, 0
2, 37523, Note_on_c, 0, 53, 63
2, 37746, Note_on_c, 0, 71, 0
2, 37753, Note_on_c, 0, 72, 70
2, 37995, Note_on_c, 0, 72, 0
2, 37996, Note_on_c, 0, 53, 0
2, 38005, Note_on_c, 0, 52, 67
2, 38096, Note_on_c, 0, 50, 70
2, 38114, Note_on_c, 0, 52, 0
2, 38182, Control_c, 0, 64, 9
2, 38220, Control_c, 0, 64, 11
2, 38230, Note_on_c, 0, 49, 59
2, 38235, Note_on_c, 0, 69, 79
2, 38258, Control_c, 0, 64, 13
2, 38287, Note_on_c, 0, 50, 0
2, 38297, Control_c, 0, 64, 15
2, 38316, Control_c, 0, 64, 17
2, 38373, Control_c, 0, 64, 18
2, 38476, Note_on_c, 0, 57, 74
2, 38509, Control_c, 0, 64, 19
2, 38534, Note_on_c, 0, 49, 0
2, 38723, Note_on_c, 0, 71, 78
2, 38769, Note_on_c, 0, 69, 0
2, 38945, Note_on_c, 0, 56, 72
2, 38945, Note_on_c, 0, 57, 0
2, 39009, Control_c, 0, 64, 18
2, 39067, Control_c, 0, 64, 17
2, 39183, Control_c, 0, 64, 15
2, 39210, Note_on_c, 0, 56, 0
2, 39214, Note_on_c, 0, 64, 61
2, 39216, Note_on_c, 0, 73, 76
2, 39258, Control_c, 0, 64, 13
2, 39258, Note_on_c, 0, 71, 0
2, 39297, Control_c, 0, 64, 11
2, 39335, Control_c, 0, 64, 9
2, 39374, Control_c, 0, 64, 0
2, 39404, Note_on_c, 0, 64, 0
2, 39430, Note_on_c, 0, 55, 69
2, 39680, Note_on_c, 0, 74, 69
2, 39723, Note_on_c, 0, 73, 0
2, 39764, Note_on_c, 0, 55, 0
2, 39793, Note_on_c, 0, 54, 59
2, 39903, Note_on_c, 0, 54, 0
2, 39909, Note_on_c, 0, 55, 69
2, 39998, Note_on_c, 0, 57, 73
2, 40005, Note_on_c, 0, 55, 0
2, 40123, Note_on_c, 0, 57, 0
2, 40135, Note_on_c, 0, 58, 61
2, 40160, Note_on_c, 0, 62, 72
2, 40164, Note_on_c, 0, 74, 0
2, 40384, Note_on_c, 0, 53, 68
2, 40395, Note_on_c, 0, 58, 0
2, 40633, Note_on_c, 0, 52, 51
2, 40643, Note_on_c, 0, 53, 0
2, 40648, Note_on_c, 0, 61, 72
2, 40689, Note_on_c, 0, 62, 0
2, 40895, Note_on_c, 0, 56, 63
2, 40903, Note_on_c, 0, 52, 0
2, 41131, Note_on_c, 0, 56, 0
2, 41134, Note_on_c, 0, 57, 44
2, 41140, Note_on_c, 0, 60, 66
2, 41191, Note_on_c, 0, 61, 0
2, 41382, Note_on_c, 0, 51, 46
2, 41389, Note_on_c, 0, 57, 0
2, 41636, Note_on_c, 0, 51, 0
2, 41642, Note_on_c, 0, 50, 41
2, 41649, Note_on_c, 0, 60, 0
2, 41654, Note_on_c, 0, 59, 59
2, 41874, Note_on_c, 0, 50, 0
2, 41890, Note_on_c, 0, 54, 49
2, 42115, Note_on_c, 0, 54, 0
2, 42138, Note_on_c, 0, 58, 51
2, 42157, Note_on_c, 0, 55, 38
2, 42200, Note_on_c, 0, 59, 0
2, 42382, Note_on_c, 0, 49, 52
2, 42411, Note_on_c, 0, 55, 0
2, 42646, Note_on_c, 0, 58, 0
2, 42649, Note_on_c, 0, 57, 52
2, 42874, Note_on_c, 0, 50, 41
2, 42891, Note_on_c, 0, 49, 0
2, 43127, Note_on_c, 0, 57, 0
2, 43157, Note_on_c, 0, 55, 46
2, 43378, Note_on_c, 0, 50, 0
2, 43393, Note_on_c, 0, 52, 38
2, 43632, Note_on_c, 0, 52, 0
2, 43641, Note_on_c, 0, 45, 32
2, 43745, Note_on_c, 0, 45, 0
2, 43758, Note_on_c, 0, 55, 0
2, 43883, Note_on_c, 0, 53, 49
2, 43946, Note_on_c, 0, 53, 0
2, 43973, Note_on_c, 0, 52, 55
2, 44093, Note_on_c, 0, 52, 0
2, 44096, Note_on_c, 0, 53, 52
2, 44108, Note_on_c, 0, 50, 43
2, 44306, Note_on_c, 0, 53, 0
2, 44357, Note_on_c, 0, 62, 57
2, 44603, Note_on_c, 0, 52, 58
2, 44636, Note_on_c, 0, 50, 0
2, 44814, Note_on_c, 0, 62, 0
2, 44826, Note_on_c, 0, 61, 69
2, 45076, Note_on_c, 0, 54, 52
2, 45076, Note_on_c, 0, 69, 68
2, 45080, Note_on_c, 0, 52, 0
2, 45208, Note_on_c, 0, 61, 0
2, 45307, Note_on_c, 0, 69, 0
2, 45328, Note_on_c, 0, 60, 61
2, 45556, Note_on_c, 0, 55, 54
2, 45684, Note_on_c, 0, 54, 0
2, 45703, Note_on_c, 0, 60, 0
2, 45740, Note_on_c, 0, 55, 0
2, 45789, Note_on_c, 0, 59, 72
2, 45885, Note_on_c, 0, 57, 75
2, 45902, Note_on_c, 0, 59, 0
2, 46008, Note_on_c, 0, 57, 0
2, 46012, Note_on_c, 0, 56, 78
2, 46017, Note_on_c, 0, 52, 64
2, 46256, Note_on_c, 0, 64, 76
2, 46271, Note_on_c, 0, 56, 0
2, 46501, Note_on_c, 0, 54, 80
2, 46560, Note_on_c, 0, 52, 0
2, 46705, Note_on_c, 0, 64, 0
2, 46733, Note_on_c, 0, 63, 76
2, 46966, Note_on_c, 0, 56, 63
2, 46984, Note_on_c, 0, 71, 72
2, 47034, Note_on_c, 0, 63, 0
2, 47058, Note_on_c, 0, 54, 0
2, 47198, Note_on_c, 0, 71, 0
2, 47220, Note_on_c, 0, 62, 68
2, 47319, Control_c, 0, 64, 11
2, 47339, Control_c, 0, 64, 15
2, 47357, Control_c, 0, 64, 17
2, 47377, Control_c, 0, 64, 19
2, 47396, Control_c, 0, 64, 20
2, 47434, Control_c, 0, 64, 21
2, 47436, Note_on_c, 0, 56, 0
2, 47453, Note_on_c, 0, 57, 57
2, 47490, Note_on_c, 0, 57, 0
2, 47501, Note_on_c, 0, 62, 0
2, 47557, Note_on_c, 0, 60, 70
2, 47588, Control_c, 0, 64, 22
2, 47664, Note_on_c, 0, 62, 75
2, 47672, Note_on_c, 0, 60, 0
2, 47681, Note_on_c, 0, 45, 54
2, 47719, Note_on_c, 0, 45, 0
2, 47772, Note_on_c, 0, 64, 78
2, 47788, Note_on_c, 0, 62, 0
2, 47897, Note_on_c, 0, 65, 77
2, 47909, Note_on_c, 0, 57, 54
2, 47925, Note_on_c, 0, 64, 0
2, 47953, Control_c, 0, 64, 21
2, 48106, Control_c, 0, 64, 20
2, 48156, Note_on_c, 0, 60, 70
2, 48202, Control_c, 0, 64, 19
2, 48397, Note_on_c, 0, 59, 75
2, 48407, Note_on_c, 0, 60, 0
2, 48409, Note_on_c, 0, 56, 55
2, 48414, Control_c, 0, 64, 18
2, 48436, Note_on_c, 0, 57, 0
2, 48528, Control_c, 0, 64, 17
2, 48643, Note_on_c, 0, 63, 75
2, 48644, Control_c, 0, 64, 15
2, 48661, Note_on_c, 0, 65, 0
2, 48682, Control_c, 0, 64, 13
2, 48702, Control_c, 0, 64, 11
2, 48720, Control_c, 0, 64, 9
2, 48721, Note_on_c, 0, 59, 0
2, 48740, Control_c, 0, 64, 0
2, 48904, Note_on_c, 0, 64, 69
2, 48913, Note_on_c, 0, 55, 48
2, 48933, Note_on_c, 0, 63, 0
2, 48984, Note_on_c, 0, 56, 0
2, 49151, Note_on_c, 0, 58, 59
2, 49395, Note_on_c, 0, 57, 62
2, 49406, Note_on_c, 0, 58, 0
2, 49410, Note_on_c, 0, 54, 44
2, 49430, Note_on_c, 0, 55, 0
2, 49637, Note_on_c, 0, 61, 68
2, 49642, Note_on_c, 0, 64, 0
2, 49735, Note_on_c, 0, 57, 0
2, 49896, Note_on_c, 0, 62, 62
2, 49915, Note_on_c, 0, 53, 43
2, 49941, Note_on_c, 0, 61, 0
2, 49966, Note_on_c, 0, 54, 0
2, 50145, Note_on_c, 0, 56, 59
2, 50382, Note_on_c, 0, 52, 52
2, 50397, Note_on_c, 0, 53, 0
2, 50591, Note_on_c, 0, 62, 0
2, 50649, Note_on_c, 0, 56, 0
2, 50651, Note_on_c, 0, 57, 57
2, 50882, Note_on_c, 0, 50, 51
2, 50906, Note_on_c, 0, 52, 0
2, 51106, Note_on_c, 0, 57, 0
2, 51127, Note_on_c, 0, 59, 59
2, 51363, Note_on_c, 0, 59, 0
2, 51376, Note_on_c, 0, 52, 55
2, 51544, Note_on_c, 0, 52, 0
2, 51577, Note_on_c, 0, 50, 0
2, 51596, Note_on_c, 0, 48, 53
2, 51666, Note_on_c, 0, 48, 0
2, 51695, Note_on_c, 0, 47, 55
2, 51816, Note_on_c, 0, 48, 53
2, 51821, Note_on_c, 0, 47, 0
2, 51835, Note_on_c, 0, 64, 65
2, 52046, Note_on_c, 0, 48, 0
2, 52072, Note_on_c, 0, 52, 65
2, 52321, Note_on_c, 0, 66, 74
2, 52381, Note_on_c, 0, 64, 0
2, 52561, Note_on_c, 0, 51, 69
2, 52563, Note_on_c, 0, 52, 0
2, 52805, Note_on_c, 0, 51, 0
2, 52808, Note_on_c, 0, 68, 77
2, 52810, Note_on_c, 0, 59, 60
2, 52856, Note_on_c, 0, 66, 0
2, 52990, Note_on_c, 0, 59, 0
2, 53034, Note_on_c, 0, 50, 60
2, 53226, Note_on_c, 0, 68, 0
2, 53310, Note_on_c, 0, 69, 39
2, 53367, Note_on_c, 0, 69, 0
2, 53477, Note_on_c, 0, 50, 0
2, 53496, Note_on_c, 0, 49, 62
2, 53515, Note_on_c, 0, 57, 67
2, 53547, Note_on_c, 0, 57, 0
2, 53628, Note_on_c, 0, 49, 0
2, 53641, Note_on_c, 0, 47, 53
2, 53737, Note_on_c, 0, 69, 74
2, 53766, Note_on_c, 0, 47, 0
2, 53789, Note_on_c, 0, 49, 60
2, 53964, Note_on_c, 0, 49, 0
2, 53980, Note_on_c, 0, 45, 58
2, 54219, Note_on_c, 0, 47, 71
2, 54237, Note_on_c, 0, 45, 0
2, 54402, Note_on_c, 0, 69, 0
2, 54436, Note_on_c, 0, 68, 80
2, 54697, Note_on_c, 0, 47, 0
2, 54697, Note_on_c, 0, 49, 60
2, 54707, Note_on_c, 0, 76, 74
2, 54751, Note_on_c, 0, 68, 0
2, 54909, Note_on_c, 0, 76, 0
2, 54937, Note_on_c, 0, 67, 68
2, 55147, Note_on_c, 0, 49, 0
2, 55156, Note_on_c, 0, 50, 64
2, 55184, Note_on_c, 0, 50, 0
2, 55391, Note_on_c, 0, 66, 68
2, 55395, Note_on_c, 0, 67, 0
2, 55400, Note_on_c, 0, 38, 62
2, 55435, Note_on_c, 0, 38, 0
2, 55501, Note_on_c, 0, 64, 72
2, 55509, Note_on_c, 0, 66, 0
2, 55516, Control_c, 0, 64, 9
2, 55535, Control_c, 0, 64, 11
2, 55554, Control_c, 0, 64, 13
2, 55574, Control_c, 0, 64, 15
2, 55611, Control_c, 0, 64, 17
2, 55628, Note_on_c, 0, 66, 76
2, 55629, Note_on_c, 0, 50, 61
2, 55652, Note_on_c, 0, 64, 0
2, 55871, Note_on_c, 0, 62, 77
2, 55907, Note_on_c, 0, 66, 0
2, 56094, Control_c, 0, 64, 15
2, 56116, Note_on_c, 0, 64, 81
2, 56152, Control_c, 0, 64, 13
2, 56159, Note_on_c, 0, 62, 0
2, 56171, Control_c, 0, 64, 11
2, 56191, Control_c, 0, 64, 9
2, 56209, Control_c, 0, 64, 0
2, 56338, Note_on_c, 0, 50, 0
2, 56343, Note_on_c, 0, 49, 76
2, 56581, Note_on_c, 0, 49, 0
2, 56581, Note_on_c, 0, 57, 62
2, 56586, Note_on_c, 0, 66, 78
2, 56632, Note_on_c, 0, 64, 0
2, 56749, Note_on_c, 0, 57, 0
2, 56819, Note_on_c, 0, 48, 66
2, 57058, Note_on_c, 0, 67, 68
2, 57063, Note_on_c, 0, 66, 0
2, 57092, Note_on_c, 0, 67, 0
2, 57271, Note_on_c, 0, 48, 0
2, 57275, Note_on_c, 0, 55, 62
2, 57285, Note_on_c, 0, 47, 60
2, 57315, Note_on_c, 0, 55, 0
2, 57367, Note_on_c, 0, 47, 0
2, 57373, Note_on_c, 0, 45, 71
2, 57516, Note_on_c, 0, 45, 0
2, 57519, Note_on_c, 0, 67, 77
2, 57522, Note_on_c, 0, 47, 63
2, 57756, Note_on_c, 0, 43, 77
2, 57766, Note_on_c, 0, 47, 0
2, 58008, Note_on_c, 0, 45, 78
2, 58054, Note_on_c, 0, 43, 0
2, 58218, Note_on_c, 0, 67, 0
2, 58228, Note_on_c, 0, 66, 82
2, 58477, Note_on_c, 0, 47, 64
2, 58482, Note_on_c, 0, 45, 0
2, 58483, Note_on_c, 0, 74, 78
2, 58529, Note_on_c, 0, 66, 0
2, 58713, Note_on_c, 0, 65, 69
2, 58717, Note_on_c, 0, 74, 0
2, 58914, Note_on_c, 0, 47, 0
2, 58936, Note_on_c, 0, 50, 55
2, 59017, Note_on_c, 0, 50, 0
2, 59039, Note_on_c, 0, 48, 55
2, 59065, Note_on_c, 0, 65, 0
2, 59116, Note_on_c, 0, 48, 0
2, 59130, Note_on_c, 0, 64, 64
2, 59151, Note_on_c, 0, 50, 52
2, 59190, Note_on_c, 0, 50, 0
2, 59207, Note_on_c, 0, 48, 50
2, 59220, Note_on_c, 0, 64, 0
2, 59229, Note_on_c, 0, 62, 70
2, 59250, Note_on_c, 0, 48, 0
2, 59296, Note_on_c, 0, 50, 59
2, 59327, Note_on_c, 0, 62, 0
2, 59330, Note_on_c, 0, 50, 0
2, 59338, Note_on_c, 0, 64, 76
2, 59352, Note_on_c, 0, 48, 64
2, 59404, Note_on_c, 0, 48, 0
2, 59427, Note_on_c, 0, 50, 66
2, 59479, Note_on_c, 0, 50, 0
2, 59507, Note_on_c, 0, 64, 0
2, 59545, Note_on_c, 0, 76, 74
2, 59570, Note_on_c, 0, 47, 53
2, 59641, Note_on_c, 0, 47, 0
2, 59656, Note_on_c, 0, 45, 65
2, 59768, Note_on_c, 0, 45, 0
2, 59775, Note_on_c, 0, 52, 65
2, 59870, Note_on_c, 0, 52, 0
2, 59874, Note_on_c, 0, 53, 68
2, 59961, Note_on_c, 0, 53, 0
2, 59966, Note_on_c, 0, 76, 0
2, 59986, Note_on_c, 0, 55, 66
2, 59993, Note_on_c, 0, 77, 77
2, 60078, Note_on_c, 0, 55, 0
2, 60101, Note_on_c, 0, 76, 78
2, 60103, Note_on_c, 0, 53, 63
2, 60129, Note_on_c, 0, 77, 0
2, 60179, Note_on_c, 0, 53, 0
2, 60210, Note_on_c, 0, 74, 78
2, 60220, Note_on_c, 0, 55, 70
2, 60231, Note_on_c, 0, 76, 0
2, 60290, Note_on_c, 0, 55, 0
2, 60302, Note_on_c, 0, 74, 0
2, 60303, Note_on_c, 0, 72, 80
2, 60325, Note_on_c, 0, 53, 68
2, 60398, Note_on_c, 0, 53, 0
2, 60406, Note_on_c, 0, 71, 84
2, 60426, Note_on_c, 0, 55, 71
2, 60429, Note_on_c, 0, 72, 0
2, 60500, Note_on_c, 0, 55, 0
2, 60501, Note_on_c, 0, 71, 0
2, 60509, Note_on_c, 0, 53, 71
2, 60511, Note_on_c, 0, 69, 79
2, 60608, Note_on_c, 0, 53, 0
2, 60622, Note_on_c, 0, 52, 67
2, 60622, Note_on_c, 0, 68, 76
2, 60633, Note_on_c, 0, 69, 0
2, 60687, Note_on_c, 0, 52, 0
2, 60739, Note_on_c, 0, 64, 69
2, 60848, Note_on_c, 0, 64, 0
2, 60852, Note_on_c, 0, 62, 66
2, 60941, Note_on_c, 0, 60, 73
2, 60944, Note_on_c, 0, 62, 0
2, 61028, Note_on_c, 0, 60, 0
2, 61050, Note_on_c, 0, 59, 80
2, 61161, Note_on_c, 0, 57, 77
2, 61171, Note_on_c, 0, 59, 0
2, 61270, Note_on_c, 0, 56, 78
2, 61306, Note_on_c, 0, 57, 0
2, 61382, Note_on_c, 0, 54, 74
2, 61430, Note_on_c, 0, 56, 0
2, 61565, Note_on_c, 0, 54, 0
2, 61580, Note_on_c, 0, 52, 69
2, 61693, Note_on_c, 0, 52, 0
2, 62367, Note_on_c, 0, 40, 40
2, 62449, Note_on_c, 0, 68, 0
2, 62737, Note_on_c, 0, 40, 0
2, 63510, Note_on_c, 0, 76, 44
2, 63610, Note_on_c, 0, 60, 44
2, 63709, Note_on_c, 0, 60, 0
2, 63740, Note_on_c, 0, 59, 48
2, 63819, Note_on_c, 0, 59, 0
2, 63842, Note_on_c, 0, 57, 45
2, 63930, Note_on_c, 0, 57, 0
2, 63968, Note_on_c, 0, 64, 47
2, 63978, Note_on_c, 0, 56, 45
2, 63978, Note_on_c, 0, 76, 0
2, 64218, Note_on_c, 0, 56, 0
2, 64223, Note_on_c, 0, 61, 46
2, 64410, Note_on_c, 0, 61, 0
2, 64457, Note_on_c, 0, 65, 55
2, 64465, Note_on_c, 0, 62, 36
2, 64505, Note_on_c, 0, 64, 0
2, 64719, Note_on_c, 0, 58, 48
2, 64721, Note_on_c, 0, 62, 0
2, 64954, Note_on_c, 0, 58, 0
2, 64964, Note_on_c, 0, 66, 63
2, 64975, Note_on_c, 0, 57, 39
2, 65005, Note_on_c, 0, 65, 0
2, 65209, Note_on_c, 0, 57, 0
2, 65209, Note_on_c, 0, 63, 62
2, 65449, Note_on_c, 0, 67, 67
2, 65461, Note_on_c, 0, 66, 0
2, 65462, Note_on_c, 0, 64, 47
2, 65507, Note_on_c, 0, 63, 0
2, 65705, Note_on_c, 0, 64, 0
2, 65709, Note_on_c, 0, 60, 61
2, 65947, Note_on_c, 0, 68, 68
2, 65950, Note_on_c, 0, 60, 0
2, 65971, Note_on_c, 0, 59, 54
2, 66001, Note_on_c, 0, 67, 0
2, 66169, Note_on_c, 0, 59, 0
2, 66200, Note_on_c, 0, 65, 63
2, 66447, Note_on_c, 0, 69, 60
2, 66464, Note_on_c, 0, 68, 0
2, 66690, Note_on_c, 0, 64, 51
2, 66699, Note_on_c, 0, 65, 0
2, 66960, Note_on_c, 0, 71, 63
2, 66983, Note_on_c, 0, 69, 0
2, 67180, Note_on_c, 0, 64, 0
2, 67195, Note_on_c, 0, 62, 47
2, 67383, Note_on_c, 0, 62, 0
2, 67422, Note_on_c, 0, 71, 0
2, 67437, Note_on_c, 0, 69, 45
2, 67468, Note_on_c, 0, 72, 59
2, 67519, Note_on_c, 0, 72, 0
2, 67580, Note_on_c, 0, 77, 61
2, 67627, Note_on_c, 0, 69, 0
2, 67680, Note_on_c, 0, 76, 62
2, 67686, Note_on_c, 0, 77, 0
2, 67761, Note_on_c, 0, 76, 0
2, 67781, Note_on_c, 0, 74, 64
2, 67888, Note_on_c, 0, 74, 0
2, 67916, Note_on_c, 0, 73, 64
2, 67923, Note_on_c, 0, 57, 36
2, 68153, Note_on_c, 0, 78, 67
2, 68314, Note_on_c, 0, 73, 0
2, 68406, Note_on_c, 0, 79, 68
2, 68420, Note_on_c, 0, 58, 47
2, 68450, Note_on_c, 0, 57, 0
2, 68646, Note_on_c, 0, 75, 73
2, 68646, Note_on_c, 0, 78, 0
2, 68664, Note_on_c, 0, 79, 0
2, 68897, Note_on_c, 0, 74, 65
2, 68900, Note_on_c, 0, 75, 0
2, 68901, Note_on_c, 0, 59, 56
2, 68989, Note_on_c, 0, 58, 0
2, 69124, Note_on_c, 0, 80, 73
2, 69311, Note_on_c, 0, 74, 0
2, 69377, Note_on_c, 0, 81, 71
2, 69405, Note_on_c, 0, 60, 55
2, 69459, Note_on_c, 0, 59, 0
2, 69624, Note_on_c, 0, 77, 73
2, 69637, Note_on_c, 0, 80, 0
2, 69653, Note_on_c, 0, 81, 0
2, 69864, Note_on_c, 0, 61, 58
2, 69872, Note_on_c, 0, 76, 70
2, 69890, Note_on_c, 0, 77, 0
2, 69997, Note_on_c, 0, 60, 0
2, 70121, Note_on_c, 0, 82, 73
2, 70241, Note_on_c, 0, 76, 0
2, 70383, Note_on_c, 0, 62, 55
2, 70445, Note_on_c, 0, 61, 0
2, 70634, Note_on_c, 0, 81, 66
2, 70654, Note_on_c, 0, 82, 0
2, 70893, Note_on_c, 0, 64, 41
2, 70908, Note_on_c, 0, 62, 0
2, 71106, Note_on_c, 0, 81, 0
2, 71134, Note_on_c, 0, 80, 61
2, 71337, Note_on_c, 0, 80, 0
2, 71382, Note_on_c, 0, 81, 54
2, 71391, Note_on_c, 0, 65, 23
2, 71461, Note_on_c, 0, 64, 0
2, 71497, Note_on_c, 0, 79, 59
2, 71502, Note_on_c, 0, 81, 0
2, 71550, Note_on_c, 0, 65, 0
2, 71584, Note_on_c, 0, 77, 65
2, 71584, Note_on_c, 0, 79, 0
2, 71652, Note_on_c, 0, 77, 0
2, 71685, Note_on_c, 0, 76, 63
2, 71826, Note_on_c, 0, 76, 0
2, 71829, Note_on_c, 0, 77, 54
2, 71845, Note_on_c, 0, 62, 31
2, 72071, Note_on_c, 0, 70, 59
2, 72152, Note_on_c, 0, 77, 0
2, 72312, Note_on_c, 0, 69, 57
2, 72319, Note_on_c, 0, 70, 0
2, 72331, Note_on_c, 0, 60, 40
2, 72419, Note_on_c, 0, 62, 0
2, 72556, Note_on_c, 0, 76, 62
2, 72614, Note_on_c, 0, 69, 0
2, 72811, Note_on_c, 0, 59, 45
2, 72813, Note_on_c, 0, 74, 54
2, 72820, Note_on_c, 0, 76, 0
2, 72903, Note_on_c, 0, 60, 0
2, 73040, Note_on_c, 0, 74, 0
2, 73052, Note_on_c, 0, 68, 59
2, 73265, Note_on_c, 0, 57, 31
2, 73355, Note_on_c, 0, 68, 0
2, 73366, Note_on_c, 0, 59, 0
2, 73381, Note_on_c, 0, 74, 55
2, 73436, Note_on_c, 0, 57, 0
2, 73481, Note_on_c, 0, 74, 0
2, 73489, Note_on_c, 0, 72, 67
2, 73592, Note_on_c, 0, 71, 64
2, 73615, Note_on_c, 0, 72, 0
2, 73717, Note_on_c, 0, 69, 63
2, 73721, Note_on_c, 0, 71, 0
2, 73728, Note_on_c, 0, 60, 36
2, 73959, Note_on_c, 0, 76, 63
2, 74221, Note_on_c, 0, 59, 45
2, 74228, Note_on_c, 0, 74, 60
2, 74260, Note_on_c, 0, 76, 0
2, 74265, Note_on_c, 0, 69, 0
2, 74284, Note_on_c, 0, 60, 0
2, 74443, Note_on_c, 0, 74, 0
2, 74463, Note_on_c, 0, 67, 63
2, 74706, Note_on_c, 0, 66, 62
2, 74707, Note_on_c, 0, 59, 0
2, 74710, Note_on_c, 0, 57, 40
2, 74750, Note_on_c, 0, 67, 0
2, 74943, Note_on_c, 0, 72, 69
2, 74957, Note_on_c, 0, 66, 0
2, 75084, Note_on_c, 0, 57, 0
2, 75146, Note_on_c, 0, 55, 44
2, 75154, Note_on_c, 0, 72, 0
2, 75179, Note_on_c, 0, 71, 59
2, 75254, Note_on_c, 0, 55, 0
2, 75286, Note_on_c, 0, 59, 59
2, 75354, Note_on_c, 0, 59, 0
2, 75380, Note_on_c, 0, 60, 57
2, 75461, Note_on_c, 0, 60, 0
2, 75481, Note_on_c, 0, 62, 63
2, 75576, Note_on_c, 0, 62, 0
2, 75629, Note_on_c, 0, 64, 47
2, 75631, Note_on_c, 0, 79, 71
2, 75851, Note_on_c, 0, 58, 55
2, 75863, Note_on_c, 0, 64, 0
2, 76088, Note_on_c, 0, 57, 41
2, 76101, Note_on_c, 0, 77, 64
2, 76116, Note_on_c, 0, 71, 0
2, 76143, Note_on_c, 0, 79, 0
2, 76182, Note_on_c, 0, 58, 0
2, 76287, Note_on_c, 0, 57, 0
2, 76338, Note_on_c, 0, 62, 50
2, 76561, Note_on_c, 0, 62, 0
2, 76590, Note_on_c, 0, 61, 42
2, 76590, Note_on_c, 0, 76, 61
2, 76615, Note_on_c, 0, 77, 0
2, 76840, Note_on_c, 0, 61, 0
2, 76841, Note_on_c, 0, 55, 41
2, 77038, Note_on_c, 0, 55, 0
2, 77076, Note_on_c, 0, 74, 61
2, 77091, Note_on_c, 0, 76, 0
2, 77193, Note_on_c, 0, 67, 56
2, 77284, Note_on_c, 0, 65, 63
2, 77286, Note_on_c, 0, 67, 0
2, 77385, Note_on_c, 0, 64, 69
2, 77389, Note_on_c, 0, 65, 0
2, 77497, Note_on_c, 0, 64, 0
2, 77509, Note_on_c, 0, 77, 69
2, 77522, Note_on_c, 0, 62, 54
2, 77553, Note_on_c, 0, 74, 0
2, 77691, Control_c, 0, 64, 9
2, 77730, Control_c, 0, 64, 11
2, 77732, Note_on_c, 0, 68, 65
2, 77768, Control_c, 0, 64, 13
2, 77807, Control_c, 0, 64, 15
2, 77895, Note_on_c, 0, 62, 0
2, 77949, Note_on_c, 0, 68, 0
2, 77991, Note_on_c, 0, 76, 70
2, 77993, Note_on_c, 0, 69, 48
2, 78040, Note_on_c, 0, 77, 0
2, 78175, Note_on_c, 0, 69, 0
2, 78221, Note_on_c, 0, 60, 59
2, 78459, Note_on_c, 0, 60, 0
2, 78477, Note_on_c, 0, 74, 61
2, 78490, Note_on_c, 0, 59, 44
2, 78521, Note_on_c, 0, 76, 0
2, 78654, Note_on_c, 0, 59, 0
2, 78732, Note_on_c, 0, 65, 52
2, 78919, Note_on_c, 0, 65, 0
2, 78955, Note_on_c, 0, 64, 52
2, 79019, Control_c, 0, 64, 13
2, 79041, Note_on_c, 0, 64, 0
2, 79057, Control_c, 0, 64, 11
2, 79058, Note_on_c, 0, 62, 56
2, 79109, Note_on_c, 0, 62, 0
2, 79134, Control_c, 0, 64, 9
2, 79180, Note_on_c, 0, 60, 54
2, 79243, Note_on_c, 0, 60, 0
2, 79277, Note_on_c, 0, 59, 61
2, 79409, Note_on_c, 0, 72, 62
2, 79412, Note_on_c, 0, 59, 0
2, 79414, Note_on_c, 0, 74, 0
2, 79422, Note_on_c, 0, 57, 56
2, 79480, Control_c, 0, 64, 0
2, 79640, Note_on_c, 0, 71, 71
2, 79647, Note_on_c, 0, 57, 0
2, 79649, Note_on_c, 0, 56, 56
2, 79668, Note_on_c, 0, 72, 0
2, 79864, Note_on_c, 0, 56, 0
2, 79894, Note_on_c, 0, 72, 70
2, 79896, Note_on_c, 0, 57, 47
2, 79924, Note_on_c, 0, 71, 0
2, 80124, Note_on_c, 0, 53, 64
2, 80142, Note_on_c, 0, 57, 0
2, 80345, Note_on_c, 0, 53, 0
2, 80358, Note_on_c, 0, 52, 54
2, 80365, Note_on_c, 0, 73, 72
2, 80443, Note_on_c, 0, 72, 0
2, 80606, Note_on_c, 0, 58, 69
2, 80714, Note_on_c, 0, 52, 0
2, 80854, Note_on_c, 0, 74, 75
2, 80860, Note_on_c, 0, 59, 62
2, 80901, Note_on_c, 0, 73, 0
2, 80907, Note_on_c, 0, 58, 0
2, 81087, Note_on_c, 0, 55, 69
2, 81102, Note_on_c, 0, 59, 0
2, 81326, Note_on_c, 0, 54, 65
2, 81328, Note_on_c, 0, 55, 0
2, 81337, Note_on_c, 0, 75, 77
2, 81390, Note_on_c, 0, 74, 0
2, 81561, Note_on_c, 0, 54, 0
2, 81581, Note_on_c, 0, 60, 77
2, 81820, Note_on_c, 0, 76, 78
2, 81841, Note_on_c, 0, 75, 0
2, 82063, Note_on_c, 0, 59, 73
2, 82068, Note_on_c, 0, 60, 0
2, 82297, Note_on_c, 0, 78, 71
2, 82330, Note_on_c, 0, 76, 0
2, 82519, Note_on_c, 0, 59, 0
2, 82525, Note_on_c, 0, 57, 51
2, 82712, Note_on_c, 0, 57, 0
2, 82734, Note_on_c, 0, 78, 0
2, 82759, Note_on_c, 0, 64, 37
2, 82774, Note_on_c, 0, 79, 59
2, 82859, Note_on_c, 0, 64, 0
2, 82875, Note_on_c, 0, 79, 0
2, 82885, Note_on_c, 0, 77, 66
2, 82974, Note_on_c, 0, 76, 67
2, 82979, Note_on_c, 0, 77, 0
2, 83074, Note_on_c, 0, 76, 0
2, 83077, Note_on_c, 0, 74, 65
2, 83169, Note_on_c, 0, 74, 0
2, 83206, Note_on_c, 0, 73, 62
2, 83219, Note_on_c, 0, 52, 44
2, 83456, Note_on_c, 0, 80, 72
2, 83620, Note_on_c, 0, 73, 0
2, 83693, Note_on_c, 0, 53, 55
2, 83701, Note_on_c, 0, 81, 70
2, 83758, Note_on_c, 0, 52, 0
2, 83927, Note_on_c, 0, 80, 0
2, 83939, Note_on_c, 0, 75, 77
2, 83943, Note_on_c, 0, 81, 0
2, 84169, Note_on_c, 0, 75, 0
2, 84174, Note_on_c, 0, 54, 70
2, 84175, Note_on_c, 0, 74, 72
2, 84244, Note_on_c, 0, 53, 0
2, 84416, Note_on_c, 0, 82, 79
2, 84607, Note_on_c, 0, 74, 0
2, 84681, Note_on_c, 0, 83, 78
2, 84690, Note_on_c, 0, 55, 58
2, 84756, Note_on_c, 0, 54, 0
2, 84908, Note_on_c, 0, 77, 77
2, 84913, Note_on_c, 0, 82, 0
2, 84993, Note_on_c, 0, 83, 0
2, 85145, Note_on_c, 0, 56, 57
2, 85174, Note_on_c, 0, 76, 75
2, 85180, Note_on_c, 0, 77, 0
2, 85192, Note_on_c, 0, 55, 0
2, 85404, Note_on_c, 0, 74, 70
2, 85433, Note_on_c, 0, 76, 0
2, 85650, Note_on_c, 0, 57, 52
2, 85661, Note_on_c, 0, 56, 0
2, 85878, Note_on_c, 0, 72, 59
2, 85916, Note_on_c, 0, 74, 0
2, 86128, Note_on_c, 0, 57, 0
2, 86148, Note_on_c, 0, 59, 43
2, 86338, Note_on_c, 0, 72, 0
2, 86374, Note_on_c, 0, 71, 51
2, 86591, Note_on_c, 0, 59, 0
2, 86638, Note_on_c, 0, 60, 41
2, 86764, Note_on_c, 0, 60, 0
2, 86812, Note_on_c, 0, 71, 0
2, 86854, Note_on_c, 0, 69, 59
2, 86929, Note_on_c, 0, 69, 0
2, 86955, Note_on_c, 0, 71, 65
2, 87073, Note_on_c, 0, 71, 0
2, 87087, Note_on_c, 0, 72, 59
2, 87099, Note_on_c, 0, 57, 32
2, 87139, Control_c, 0, 64, 32
2, 87158, Control_c, 0, 64, 56
2, 87177, Control_c, 0, 64, 63
2, 87197, Control_c, 0, 64, 65
2, 87215, Control_c, 0, 64, 69
2, 87235, Control_c, 0, 64, 74
2, 87254, Control_c, 0, 64, 81
2, 87274, Control_c, 0, 64, 85
2, 87292, Control_c, 0, 64, 88
2, 87312, Control_c, 0, 64, 90
2, 87321, Note_on_c, 0, 63, 49
2, 87331, Control_c, 0, 64, 93
2, 87349, Control_c, 0, 64, 94
2, 87422, Note_on_c, 0, 63, 0
2, 87449, Note_on_c, 0, 72, 0
2, 87503, Control_c, 0, 64, 93
2, 87523, Control_c, 0, 64, 91
2, 87542, Control_c, 0, 64, 85
2, 87561, Control_c, 0, 64, 73
2, 87565, Note_on_c, 0, 55, 42
2, 87566, Note_on_c, 0, 57, 0
2, 87574, Note_on_c, 0, 64, 58
2, 87580, Control_c, 0, 64, 65
2, 87600, Control_c, 0, 64, 56
2, 87619, Control_c, 0, 64, 41
2, 87638, Control_c, 0, 64, 0
2, 87793, Note_on_c, 0, 73, 67
2, 87867, Note_on_c, 0, 64, 0
2, 88037, Note_on_c, 0, 53, 46
2, 88050, Note_on_c, 0, 74, 63
2, 88065, Note_on_c, 0, 73, 0
2, 88129, Note_on_c, 0, 55, 0
2, 88251, Note_on_c, 0, 74, 0
2, 88268, Note_on_c, 0, 65, 60
2, 88440, Note_on_c, 0, 53, 0
2, 88503, Note_on_c, 0, 52, 46
2, 88504, Note_on_c, 0, 67, 59
2, 88506, Note_on_c, 0, 65, 0
2, 88621, Note_on_c, 0, 52, 0
2, 88623, Note_on_c, 0, 53, 51
2, 88720, Note_on_c, 0, 53, 0
2, 88722, Note_on_c, 0, 55, 59
2, 88809, Note_on_c, 0, 55, 0
2, 88823, Note_on_c, 0, 57, 64
2, 88938, Note_on_c, 0, 57, 0
2, 88962, Note_on_c, 0, 58, 55
2, 88975, Note_on_c, 0, 74, 64
2, 88999, Note_on_c, 0, 67, 0
2, 89208, Note_on_c, 0, 53, 57
2, 89209, Note_on_c, 0, 58, 0
2, 89463, Note_on_c, 0, 53, 0
2, 89465, Note_on_c, 0, 73, 60
2, 89466, Note_on_c, 0, 52, 43
2, 89481, Note_on_c, 0, 74, 0
2, 89674, Control_c, 0, 64, 9
2, 89693, Control_c, 0, 64, 11
2, 89707, Note_on_c, 0, 52, 0
2, 89713, Control_c, 0, 64, 13
2, 89721, Note_on_c, 0, 57, 50
2, 89732, Control_c, 0, 64, 15
2, 89770, Control_c, 0, 64, 17
2, 89884, Control_c, 0, 64, 18
2, 89914, Note_on_c, 0, 57, 0
2, 89945, Note_on_c, 0, 55, 41
2, 89945, Note_on_c, 0, 70, 61
2, 89967, Note_on_c, 0, 73, 0
2, 90192, Control_c, 0, 64, 17
2, 90199, Note_on_c, 0, 55, 0
2, 90213, Note_on_c, 0, 50, 41
2, 90306, Control_c, 0, 64, 15
2, 90402, Note_on_c, 0, 50, 0
2, 90426, Note_on_c, 0, 49, 52
2, 90502, Note_on_c, 0, 70, 0
2, 90524, Note_on_c, 0, 49, 0
2, 90532, Note_on_c, 0, 69, 50
2, 90575, Control_c, 0, 64, 17
2, 90589, Note_on_c, 0, 69, 0
2, 90630, Note_on_c, 0, 67, 48
2, 90712, Note_on_c, 0, 67, 0
2, 90732, Note_on_c, 0, 69, 64
2, 90806, Control_c, 0, 64, 18
2, 90825, Control_c, 0, 64, 25
2, 90844, Control_c, 0, 64, 36
2, 90844, Note_on_c, 0, 55, 51
2, 90854, Note_on_c, 0, 69, 0
2, 90863, Control_c, 0, 64, 50
2, 90875, Note_on_c, 0, 70, 65
2, 90883, Control_c, 0, 64, 57
2, 90902, Control_c, 0, 64, 61
2, 90921, Control_c, 0, 64, 63
2, 90940, Control_c, 0, 64, 66
2, 90960, Control_c, 0, 64, 69
2, 90979, Control_c, 0, 64, 74
2, 90998, Control_c, 0, 64, 82
2, 91017, Control_c, 0, 64, 86
2, 91017, Note_on_c, 0, 70, 0
2, 91037, Control_c, 0, 64, 88
2, 91055, Control_c, 0, 64, 90
2, 91075, Control_c, 0, 64, 94
2, 91094, Control_c, 0, 64, 100
2, 91099, Note_on_c, 0, 61, 69
2, 91114, Control_c, 0, 64, 104
2, 91132, Control_c, 0, 64, 106
2, 91218, Note_on_c, 0, 61, 0
2, 91228, Control_c, 0, 64, 106
2, 91248, Control_c, 0, 64, 105
2, 91266, Control_c, 0, 64, 104
2, 91286, Control_c, 0, 64, 100
2, 91305, Control_c, 0, 64, 92
2, 91324, Control_c, 0, 64, 80
2, 91329, Note_on_c, 0, 53, 55
2, 91331, Note_on_c, 0, 62, 69
2, 91343, Control_c, 0, 64, 69
2, 91352, Note_on_c, 0, 55, 0
2, 91363, Control_c, 0, 64, 61
2, 91382, Control_c, 0, 64, 47
2, 91401, Control_c, 0, 64, 31
2, 91420, Control_c, 0, 64, 18
2, 91440, Control_c, 0, 64, 13
2, 91459, Control_c, 0, 64, 11
2, 91564, Note_on_c, 0, 71, 77
2, 91594, Control_c, 0, 64, 9
2, 91597, Note_on_c, 0, 62, 0
2, 91802, Note_on_c, 0, 51, 51
2, 91811, Note_on_c, 0, 72, 75
2, 91840, Note_on_c, 0, 71, 0
2, 91915, Note_on_c, 0, 53, 0
2, 92048, Note_on_c, 0, 63, 73
2, 92149, Control_c, 0, 64, 11
2, 92187, Note_on_c, 0, 72, 0
2, 92246, Note_on_c, 0, 51, 0
2, 92268, Note_on_c, 0, 50, 50
2, 92284, Note_on_c, 0, 65, 65
2, 92305, Note_on_c, 0, 63, 0
2, 92371, Note_on_c, 0, 50, 0
2, 92394, Note_on_c, 0, 51, 60
2, 92400, Control_c, 0, 64, 13
2, 92489, Note_on_c, 0, 53, 63
2, 92494, Note_on_c, 0, 51, 0
2, 92554, Note_on_c, 0, 53, 0
2, 92596, Note_on_c, 0, 55, 62
2, 92744, Note_on_c, 0, 72, 74
2, 92757, Note_on_c, 0, 56, 53
2, 92763, Note_on_c, 0, 55, 0
2, 92888, Note_on_c, 0, 65, 0
2, 92983, Note_on_c, 0, 51, 55
2, 93024, Note_on_c, 0, 56, 0
2, 93229, Note_on_c, 0, 50, 45
2, 93234, Note_on_c, 0, 71, 63
2, 93238, Note_on_c, 0, 51, 0
2, 93281, Note_on_c, 0, 72, 0
2, 93284, Control_c, 0, 64, 11
2, 93435, Note_on_c, 0, 50, 0
2, 93461, Note_on_c, 0, 55, 44
2, 93668, Note_on_c, 0, 55, 0
2, 93710, Note_on_c, 0, 68, 61
2, 93718, Note_on_c, 0, 53, 36
2, 93727, Note_on_c, 0, 71, 0
2, 93946, Note_on_c, 0, 53, 0
2, 93960, Note_on_c, 0, 48, 45
2, 93996, Control_c, 0, 64, 13
2, 94200, Note_on_c, 0, 48, 0
2, 94207, Note_on_c, 0, 47, 43
2, 94264, Note_on_c, 0, 68, 0
2, 94307, Note_on_c, 0, 47, 0
2, 94325, Note_on_c, 0, 67, 50
2, 94414, Note_on_c, 0, 67, 0
2, 94433, Note_on_c, 0, 69, 66
2, 94519, Note_on_c, 0, 69, 0
2, 94534, Note_on_c, 0, 71, 70
2, 94628, Control_c, 0, 64, 11
2, 94633, Note_on_c, 0, 71, 0
2, 94649, Note_on_c, 0, 72, 65
2, 94668, Note_on_c, 0, 52, 38
2, 94724, Control_c, 0, 64, 9
2, 94781, Control_c, 0, 64, 0
2, 94900, Note_on_c, 0, 67, 62
2, 95164, Note_on_c, 0, 51, 44
2, 95168, Note_on_c, 0, 66, 68
2, 95247, Note_on_c, 0, 67, 0
2, 95252, Note_on_c, 0, 72, 0
2, 95253, Note_on_c, 0, 52, 0
2, 95403, Note_on_c, 0, 70, 75
2, 95658, Note_on_c, 0, 66, 0
2, 95668, Note_on_c, 0, 71, 71
2, 95669, Note_on_c, 0, 50, 56
2, 95702, Note_on_c, 0, 51, 0
2, 95777, Note_on_c, 0, 70, 0
2, 95910, Note_on_c, 0, 65, 61
2, 96156, Note_on_c, 0, 71, 0
2, 96163, Note_on_c, 0, 49, 53
2, 96163, Note_on_c, 0, 64, 66
2, 96223, Note_on_c, 0, 50, 0
2, 96246, Note_on_c, 0, 65, 0
2, 96395, Note_on_c, 0, 68, 75
2, 96571, Note_on_c, 0, 64, 0
2, 96635, Note_on_c, 0, 69, 73
2, 96649, Note_on_c, 0, 48, 55
2, 96695, Note_on_c, 0, 68, 0
2, 96701, Note_on_c, 0, 49, 0
2, 96907, Note_on_c, 0, 63, 74
2, 96963, Note_on_c, 0, 69, 0
2, 97141, Note_on_c, 0, 47, 68
2, 97189, Note_on_c, 0, 48, 0
2, 97378, Note_on_c, 0, 64, 75
2, 97398, Note_on_c, 0, 63, 0
2, 97634, Note_on_c, 0, 45, 67
2, 97699, Note_on_c, 0, 47, 0
2, 97855, Note_on_c, 0, 65, 69
2, 97858, Note_on_c, 0, 64, 0
2, 98089, Note_on_c, 0, 59, 68
2, 98171, Note_on_c, 0, 45, 0
2, 98203, Note_on_c, 0, 59, 0
2, 98209, Note_on_c, 0, 48, 62
2, 98228, Note_on_c, 0, 65, 0
2, 98299, Note_on_c, 0, 47, 68
2, 98314, Note_on_c, 0, 48, 0
2, 98406, Note_on_c, 0, 45, 65
2, 98448, Note_on_c, 0, 47, 0
2, 98555, Note_on_c, 0, 44, 51
2, 98555, Note_on_c, 0, 76, 74
2, 98569, Note_on_c, 0, 45, 0
2, 98791, Note_on_c, 0, 49, 71
2, 98862, Note_on_c, 0, 44, 0
2, 98985, Control_c, 0, 64, 9
2, 99043, Control_c, 0, 64, 11
2, 99054, Note_on_c, 0, 50, 61
2, 99058, Note_on_c, 0, 77, 76
2, 99081, Control_c, 0, 64, 13
2, 99099, Note_on_c, 0, 76, 0
2, 99120, Control_c, 0, 64, 15
2, 99133, Note_on_c, 0, 49, 0
2, 99139, Control_c, 0, 64, 17
2, 99197, Control_c, 0, 64, 18
2, 99235, Control_c, 0, 64, 19
2, 99254, Control_c, 0, 64, 20
2, 99274, Control_c, 0, 64, 21
2, 99286, Note_on_c, 0, 46, 72
2, 99331, Control_c, 0, 64, 22
2, 99333, Note_on_c, 0, 50, 0
2, 99527, Note_on_c, 0, 77, 0
2, 99537, Note_on_c, 0, 78, 79
2, 99539, Note_on_c, 0, 45, 57
2, 99572, Note_on_c, 0, 46, 0
2, 99778, Note_on_c, 0, 51, 73
2, 99803, Note_on_c, 0, 45, 0
2, 99829, Control_c, 0, 64, 23
2, 99906, Control_c, 0, 64, 24
2, 100003, Control_c, 0, 64, 25
2, 100024, Note_on_c, 0, 79, 85
2, 100027, Note_on_c, 0, 52, 63
2, 100051, Note_on_c, 0, 78, 0
2, 100106, Note_on_c, 0, 51, 0
2, 100257, Note_on_c, 0, 48, 75
2, 100280, Note_on_c, 0, 52, 0
2, 100291, Control_c, 0, 64, 24
2, 100367, Control_c, 0, 64, 23
2, 100405, Control_c, 0, 64, 22
2, 100424, Control_c, 0, 64, 21
2, 100444, Control_c, 0, 64, 19
2, 100462, Control_c, 0, 64, 18
2, 100482, Control_c, 0, 64, 13
2, 100501, Control_c, 0, 64, 0
2, 100502, Note_on_c, 0, 80, 84
2, 100510, Note_on_c, 0, 47, 66
2, 100537, Note_on_c, 0, 48, 0
2, 100579, Note_on_c, 0, 79, 0
2, 100748, Note_on_c, 0, 53, 80
2, 100803, Note_on_c, 0, 47, 0
2, 100986, Note_on_c, 0, 81, 86
2, 101002, Note_on_c, 0, 80, 0
2, 101220, Note_on_c, 0, 52, 81
2, 101279, Note_on_c, 0, 53, 0
2, 101466, Note_on_c, 0, 83, 90
2, 101524, Note_on_c, 0, 81, 0
2, 101701, Note_on_c, 0, 50, 75
2, 101743, Note_on_c, 0, 52, 0
2, 101952, Note_on_c, 0, 48, 70
2, 102009, Note_on_c, 0, 50, 0
2, 102133, Note_on_c, 0, 83, 0
2, 102141, Note_on_c, 0, 48, 0
2, 102191, Note_on_c, 0, 81, 84
2, 102288, Note_on_c, 0, 83, 90
2, 102319, Note_on_c, 0, 81, 0
2, 102407, Note_on_c, 0, 84, 85
2, 102420, Note_on_c, 0, 52, 72
2, 102444, Note_on_c, 0, 83, 0
2, 102664, Note_on_c, 0, 84, 0
2, 102668, Note_on_c, 0, 76, 82
2, 102919, Note_on_c, 0, 54, 77
2, 102982, Note_on_c, 0, 52, 0
2, 103152, Note_on_c, 0, 75, 83
2, 103198, Note_on_c, 0, 76, 0
2, 103394, Note_on_c, 0, 56, 63
2, 103398, Note_on_c, 0, 54, 0
2, 103410, Note_on_c, 0, 83, 75
2, 103455, Note_on_c, 0, 75, 0
2, 103622, Note_on_c, 0, 83, 0
2, 103650, Note_on_c, 0, 74, 60
2, 103861, Note_on_c, 0, 56, 0
2, 103891, Note_on_c, 0, 57, 50
2, 103951, Note_on_c, 0, 74, 0
2, 104014, Note_on_c, 0, 72, 62
2, 104025, Note_on_c, 0, 57, 0
2, 104111, Note_on_c, 0, 72, 0
2, 104119, Note_on_c, 0, 74, 59
2, 104212, Note_on_c, 0, 74, 0
2, 104227, Note_on_c, 0, 76, 63
2, 104302, Note_on_c, 0, 45, 44
2, 104350, Note_on_c, 0, 76, 0
2, 104358, Note_on_c, 0, 77, 58
2, 104578, Note_on_c, 0, 77, 0
2, 104580, Note_on_c, 0, 69, 53
2, 104860, Note_on_c, 0, 47, 45
2, 104971, Note_on_c, 0, 45, 0
2, 105065, Note_on_c, 0, 68, 61
2, 105081, Note_on_c, 0, 69, 0
2, 105305, Note_on_c, 0, 49, 36
2, 105321, Note_on_c, 0, 47, 0
2, 105332, Note_on_c, 0, 76, 58
2, 105342, Note_on_c, 0, 68, 0
2, 105501, Note_on_c, 0, 76, 0
2, 105559, Note_on_c, 0, 67, 48
2, 105772, Note_on_c, 0, 50, 43
2, 105818, Note_on_c, 0, 49, 0
2, 105845, Note_on_c, 0, 67, 0
2, 105905, Note_on_c, 0, 65, 47
2, 105928, Note_on_c, 0, 50, 0
2, 106004, Note_on_c, 0, 65, 0
2, 106011, Note_on_c, 0, 67, 55
2, 106110, Note_on_c, 0, 67, 0
2, 106129, Note_on_c, 0, 69, 64
2, 106237, Note_on_c, 0, 38, 32
2, 106260, Note_on_c, 0, 69, 0
2, 106279, Note_on_c, 0, 70, 61
2, 106518, Note_on_c, 0, 62, 48
2, 106618, Note_on_c, 0, 70, 0
2, 106778, Note_on_c, 0, 38, 0
2, 106778, Note_on_c, 0, 40, 42
2, 107008, Note_on_c, 0, 61, 55
2, 107023, Note_on_c, 0, 62, 0
2, 107241, Control_c, 0, 64, 9
2, 107244, Note_on_c, 0, 40, 0
2, 107269, Note_on_c, 0, 69, 62
2, 107273, Note_on_c, 0, 52, 41
2, 107284, Note_on_c, 0, 61, 0
2, 107318, Control_c, 0, 64, 11
2, 107375, Control_c, 0, 64, 13
2, 107395, Control_c, 0, 64, 15
2, 107414, Control_c, 0, 64, 17
2, 107491, Control_c, 0, 64, 18
2, 107506, Note_on_c, 0, 60, 56
2, 107509, Control_c, 0, 64, 19
2, 107516, Note_on_c, 0, 69, 0
2, 107548, Control_c, 0, 64, 20
2, 107586, Control_c, 0, 64, 21
2, 107644, Control_c, 0, 64, 22
2, 107757, Note_on_c, 0, 51, 54
2, 107832, Note_on_c, 0, 52, 0
2, 107985, Note_on_c, 0, 59, 65
2, 107997, Note_on_c, 0, 60, 0
2, 108028, Control_c, 0, 64, 23
2, 108143, Control_c, 0, 64, 24
2, 108182, Control_c, 0, 64, 25
2, 108240, Control_c, 0, 64, 26
2, 108240, Note_on_c, 0, 68, 59
2, 108244, Note_on_c, 0, 59, 0
2, 108245, Note_on_c, 0, 50, 41
2, 108297, Control_c, 0, 64, 27
2, 108301, Note_on_c, 0, 51, 0
2, 108462, Note_on_c, 0, 68, 0
2, 108499, Note_on_c, 0, 59, 54
2, 108734, Note_on_c, 0, 49, 49
2, 108739, Note_on_c, 0, 50, 0
2, 108902, Note_on_c, 0, 59, 0
2, 108957, Note_on_c, 0, 57, 49
2, 109007, Control_c, 0, 64, 26
2, 109064, Control_c, 0, 64, 25
2, 109160, Control_c, 0, 64, 24
2, 109207, Note_on_c, 0, 57, 0
2, 109208, Note_on_c, 0, 48, 38
2, 109212, Note_on_c, 0, 65, 48
2, 109248, Note_on_c, 0, 49, 0
2, 109352, Control_c, 0, 64, 23
2, 109390, Control_c, 0, 64, 22
2, 109418, Note_on_c, 0, 65, 0
2, 109453, Note_on_c, 0, 57, 46
2, 109544, Control_c, 0, 64, 21
2, 109602, Control_c, 0, 64, 20
2, 109679, Control_c, 0, 64, 19
2, 109703, Note_on_c, 0, 47, 36
2, 109706, Note_on_c, 0, 48, 0
2, 109836, Note_on_c, 0, 47, 0
2, 109890, Control_c, 0, 64, 20
2, 109898, Note_on_c, 0, 57, 0
2, 109920, Note_on_c, 0, 56, 55
2, 109928, Control_c, 0, 64, 21
2, 109985, Control_c, 0, 64, 22
2, 110005, Control_c, 0, 64, 23
2, 110010, Note_on_c, 0, 56, 0
2, 110024, Note_on_c, 0, 54, 63
2, 110062, Control_c, 0, 64, 24
2, 110151, Note_on_c, 0, 54, 0
2, 110159, Note_on_c, 0, 47, 43
2, 110164, Note_on_c, 0, 56, 58
2, 110331, Control_c, 0, 64, 23
2, 110374, Note_on_c, 0, 56, 0
2, 110393, Note_on_c, 0, 62, 56
2, 110504, Control_c, 0, 64, 22
2, 110542, Control_c, 0, 64, 21
2, 110581, Control_c, 0, 64, 20
2, 110619, Control_c, 0, 64, 19
2, 110639, Control_c, 0, 64, 18
2, 110649, Note_on_c, 0, 45, 47
2, 110696, Control_c, 0, 64, 17
2, 110734, Control_c, 0, 64, 15
2, 110760, Note_on_c, 0, 60, 58
2, 110761, Note_on_c, 0, 62, 0
2, 110773, Control_c, 0, 64, 13
2, 110789, Note_on_c, 0, 47, 0
2, 110792, Control_c, 0, 64, 11
2, 110836, Note_on_c, 0, 45, 0
2, 110862, Note_on_c, 0, 60, 0
2, 110868, Note_on_c, 0, 59, 71
2, 110926, Control_c, 0, 64, 13
2, 110944, Control_c, 0, 64, 15
2, 110944, Note_on_c, 0, 59, 0
2, 110962, Note_on_c, 0, 57, 69
2, 110965, Control_c, 0, 64, 17
2, 110984, Control_c, 0, 64, 18
2, 111004, Control_c, 0, 64, 19
2, 111022, Control_c, 0, 64, 21
2, 111042, Control_c, 0, 64, 22
2, 111061, Control_c, 0, 64, 23
2, 111080, Control_c, 0, 64, 24
2, 111085, Note_on_c, 0, 59, 75
2, 111094, Note_on_c, 0, 57, 0
2, 111109, Note_on_c, 0, 45, 44
2, 111138, Control_c, 0, 64, 25
2, 111291, Control_c, 0, 64, 24
2, 111310, Control_c, 0, 64, 23
2, 111330, Control_c, 0, 64, 22
2, 111340, Note_on_c, 0, 65, 69
2, 111349, Control_c, 0, 64, 21
2, 111361, Note_on_c, 0, 59, 0
2, 111368, Control_c, 0, 64, 20
2, 111387, Control_c, 0, 64, 19
2, 111407, Control_c, 0, 64, 18
2, 111445, Control_c, 0, 64, 17
2, 111566, Note_on_c, 0, 44, 54
2, 111579, Control_c, 0, 64, 15
2, 111643, Note_on_c, 0, 65, 0
2, 111679, Note_on_c, 0, 64, 65
2, 111708, Note_on_c, 0, 45, 0
2, 111752, Control_c, 0, 64, 17
2, 111764, Note_on_c, 0, 44, 0
2, 111790, Control_c, 0, 64, 18
2, 111790, Note_on_c, 0, 64, 0
2, 111791, Note_on_c, 0, 62, 67
2, 111810, Control_c, 0, 64, 19
2, 111829, Control_c, 0, 64, 20
2, 111848, Control_c, 0, 64, 21
2, 111877, Note_on_c, 0, 61, 76
2, 111880, Note_on_c, 0, 62, 0
2, 111944, Control_c, 0, 64, 22
2, 111964, Control_c, 0, 64, 23
2, 112002, Control_c, 0, 64, 24
2, 112006, Note_on_c, 0, 44, 51
2, 112009, Note_on_c, 0, 62, 77
2, 112015, Note_on_c, 0, 61, 0
2, 112256, Note_on_c, 0, 71, 77
2, 112288, Note_on_c, 0, 62, 0
2, 112504, Note_on_c, 0, 40, 54
2, 112539, Control_c, 0, 64, 23
2, 112566, Note_on_c, 0, 71, 0
2, 112589, Note_on_c, 0, 69, 69
2, 112695, Note_on_c, 0, 68, 71
2, 112706, Note_on_c, 0, 40, 0
2, 112729, Note_on_c, 0, 69, 0
2, 112733, Note_on_c, 0, 44, 0
2, 112804, Note_on_c, 0, 66, 80
2, 112827, Note_on_c, 0, 68, 0
2, 112933, Note_on_c, 0, 68, 84
2, 112947, Note_on_c, 0, 40, 57
2, 112978, Note_on_c, 0, 66, 0
2, 113170, Note_on_c, 0, 74, 74
2, 113179, Note_on_c, 0, 68, 0
2, 113269, Control_c, 0, 64, 22
2, 113426, Note_on_c, 0, 45, 66
2, 113450, Note_on_c, 0, 40, 0
2, 113614, Control_c, 0, 64, 23
2, 113653, Note_on_c, 0, 72, 72
2, 113679, Note_on_c, 0, 74, 0
2, 113748, Note_on_c, 0, 71, 76
2, 113750, Note_on_c, 0, 72, 0
2, 113862, Note_on_c, 0, 72, 81
2, 113873, Note_on_c, 0, 71, 0
2, 113926, Note_on_c, 0, 45, 0
2, 113985, Note_on_c, 0, 50, 60
2, 114077, Note_on_c, 0, 72, 0
2, 114088, Note_on_c, 0, 69, 72
2, 114092, Note_on_c, 0, 52, 61
2, 114094, Control_c, 0, 64, 24
2, 114100, Note_on_c, 0, 50, 0
2, 114194, Note_on_c, 0, 52, 0
2, 114206, Note_on_c, 0, 54, 63
2, 114247, Control_c, 0, 64, 25
2, 114309, Note_on_c, 0, 54, 0
2, 114346, Note_on_c, 0, 70, 72
2, 114358, Note_on_c, 0, 55, 41
2, 114363, Control_c, 0, 64, 26
2, 114377, Note_on_c, 0, 69, 0
2, 114401, Control_c, 0, 64, 27
2, 114440, Control_c, 0, 64, 27
2, 114478, Control_c, 0, 64, 28
2, 114516, Control_c, 0, 64, 29
2, 114535, Control_c, 0, 64, 29
2, 114554, Control_c, 0, 64, 31
2, 114569, Note_on_c, 0, 55, 0
2, 114574, Control_c, 0, 64, 31
2, 114575, Note_on_c, 0, 51, 59
2, 114592, Control_c, 0, 64, 32
2, 114612, Control_c, 0, 64, 32
2, 114631, Control_c, 0, 64, 33
2, 114650, Control_c, 0, 64, 34
2, 114669, Control_c, 0, 64, 34
2, 114708, Control_c, 0, 64, 35
2, 114727, Control_c, 0, 64, 35
2, 114763, Control_c, 0, 64, 36
2, 114821, Note_on_c, 0, 50, 56
2, 114826, Note_on_c, 0, 51, 0
2, 114836, Note_on_c, 0, 71, 73
2, 114843, Note_on_c, 0, 70, 0
2, 115063, Note_on_c, 0, 56, 73
2, 115099, Note_on_c, 0, 50, 0
2, 115320, Note_on_c, 0, 57, 62
2, 115324, Note_on_c, 0, 72, 80
2, 115372, Note_on_c, 0, 71, 0
2, 115438, Note_on_c, 0, 56, 0
2, 115534, Control_c, 0, 64, 35
2, 115563, Note_on_c, 0, 53, 78
2, 115586, Note_on_c, 0, 57, 0
2, 115592, Control_c, 0, 64, 35
2, 115650, Control_c, 0, 64, 34
2, 115784, Control_c, 0, 64, 34
2, 115804, Note_on_c, 0, 53, 0
2, 115806, Note_on_c, 0, 73, 82
2, 115808, Note_on_c, 0, 52, 66
2, 115857, Note_on_c, 0, 72, 0
2, 116033, Note_on_c, 0, 58, 78
2, 116131, Note_on_c, 0, 52, 0
2, 116284, Note_on_c, 0, 73, 0
2, 116292, Note_on_c, 0, 74, 83
2, 116437, Control_c, 0, 64, 34
2, 116513, Control_c, 0, 64, 35
2, 116515, Note_on_c, 0, 57, 76
2, 116535, Note_on_c, 0, 58, 0
2, 116552, Control_c, 0, 64, 35
2, 116760, Note_on_c, 0, 76, 80
2, 116788, Note_on_c, 0, 74, 0
2, 116955, Control_c, 0, 64, 36
2, 116994, Note_on_c, 0, 55, 73
2, 116998, Note_on_c, 0, 57, 0
2, 117032, Control_c, 0, 64, 36
2, 117090, Control_c, 0, 64, 37
2, 117128, Control_c, 0, 64, 37
2, 117241, Note_on_c, 0, 53, 61
2, 117248, Note_on_c, 0, 55, 0
2, 117334, Note_on_c, 0, 73, 69
2, 117348, Note_on_c, 0, 53, 0
2, 117357, Note_on_c, 0, 52, 64
2, 117361, Note_on_c, 0, 76, 0
2, 117438, Note_on_c, 0, 73, 0
2, 117442, Note_on_c, 0, 74, 76
2, 117456, Note_on_c, 0, 53, 66
2, 117463, Note_on_c, 0, 52, 0
2, 117544, Note_on_c, 0, 53, 0
2, 117544, Note_on_c, 0, 55, 71
2, 117544, Note_on_c, 0, 76, 81
2, 117562, Note_on_c, 0, 74, 0
2, 117648, Note_on_c, 0, 55, 0
2, 117664, Note_on_c, 0, 57, 69
2, 117666, Note_on_c, 0, 77, 82
2, 117696, Note_on_c, 0, 76, 0
2, 117801, Control_c, 0, 64, 37
2, 117896, Note_on_c, 0, 72, 82
2, 118153, Note_on_c, 0, 71, 78
2, 118154, Note_on_c, 0, 56, 74
2, 118166, Control_c, 0, 64, 36
2, 118185, Control_c, 0, 64, 36
2, 118204, Note_on_c, 0, 57, 0
2, 118221, Note_on_c, 0, 72, 0
2, 118225, Note_on_c, 0, 77, 0
2, 118281, Control_c, 0, 64, 35
2, 118392, Note_on_c, 0, 75, 86
2, 118549, Control_c, 0, 64, 35
2, 118584, Note_on_c, 0, 71, 0
2, 118649, Note_on_c, 0, 76, 79
2, 118654, Note_on_c, 0, 55, 70
2, 118663, Control_c, 0, 64, 34
2, 118696, Note_on_c, 0, 75, 0
2, 118697, Note_on_c, 0, 56, 0
2, 118721, Control_c, 0, 64, 34
2, 118778, Control_c, 0, 64, 33
2, 118835, Control_c, 0, 64, 32
2, 118887, Note_on_c, 0, 70, 79
2, 119012, Note_on_c, 0, 76, 0
2, 119137, Note_on_c, 0, 54, 75
2, 119150, Note_on_c, 0, 70, 0
2, 119158, Note_on_c, 0, 69, 77
2, 119180, Note_on_c, 0, 55, 0
2, 119395, Note_on_c, 0, 73, 81
2, 119450, Control_c, 0, 64, 32
2, 119488, Note_on_c, 0, 69, 0
2, 119489, Control_c, 0, 64, 31
2, 119546, Control_c, 0, 64, 31
2, 119605, Control_c, 0, 64, 30
2, 119644, Control_c, 0, 64, 29
2, 119648, Note_on_c, 0, 53, 64
2, 119648, Note_on_c, 0, 74, 77
2, 119720, Control_c, 0, 64, 29
2, 119735, Note_on_c, 0, 54, 0
2, 119816, Control_c, 0, 64, 28
2, 119873, Control_c, 0, 64, 27
2, 119890, Note_on_c, 0, 68, 80
2, 119934, Note_on_c, 0, 74, 0
2, 119950, Control_c, 0, 64, 27
2, 120005, Note_on_c, 0, 73, 0
2, 120027, Control_c, 0, 64, 26
2, 120085, Control_c, 0, 64, 25
2, 120117, Note_on_c, 0, 52, 76
2, 120162, Control_c, 0, 64, 24
2, 120170, Note_on_c, 0, 53, 0
2, 120239, Control_c, 0, 64, 23
2, 120364, Note_on_c, 0, 69, 83
2, 120373, Control_c, 0, 64, 22
2, 120378, Note_on_c, 0, 68, 0
2, 120430, Control_c, 0, 64, 21
2, 120488, Control_c, 0, 64, 20
2, 120527, Control_c, 0, 64, 18
2, 120545, Control_c, 0, 64, 17
2, 120584, Control_c, 0, 64, 13
2, 120604, Control_c, 0, 64, 9
2, 120605, Note_on_c, 0, 50, 76
2, 120622, Control_c, 0, 64, 0
2, 120635, Note_on_c, 0, 52, 0
2, 120809, Note_on_c, 0, 69, 0
2, 120830, Note_on_c, 0, 71, 83
2, 121052, Note_on_c, 0, 71, 0
2, 121070, Note_on_c, 0, 64, 71
2, 121279, Note_on_c, 0, 64, 0
2, 121287, Note_on_c, 0, 50, 0
2, 121294, Note_on_c, 0, 48, 57
2, 121308, Note_on_c, 0, 76, 72
2, 121380, Note_on_c, 0, 48, 0
2, 121400, Note_on_c, 0, 47, 70
2, 121520, Note_on_c, 0, 47, 0
2, 121523, Note_on_c, 0, 48, 71
2, 121603, Note_on_c, 0, 74, 75
2, 121633, Note_on_c, 0, 76, 0
2, 121721, Note_on_c, 0, 45, 69
2, 121722, Note_on_c, 0, 72, 78
2, 121727, Note_on_c, 0, 48, 0
2, 121796, Note_on_c, 0, 74, 0
2, 121825, Note_on_c, 0, 71, 82
2, 121856, Note_on_c, 0, 72, 0
2, 121910, Note_on_c, 0, 45, 0
2, 121948, Note_on_c, 0, 52, 69
2, 121950, Note_on_c, 0, 74, 78
2, 121954, Note_on_c, 0, 71, 0
2, 122051, Note_on_c, 0, 52, 0
2, 122056, Note_on_c, 0, 72, 82
2, 122063, Note_on_c, 0, 50, 66
2, 122102, Note_on_c, 0, 74, 0
2, 122154, Note_on_c, 0, 50, 0
2, 122161, Note_on_c, 0, 71, 76
2, 122182, Note_on_c, 0, 52, 71
2, 122196, Control_c, 0, 64, 9
2, 122196, Note_on_c, 0, 72, 0
2, 122235, Control_c, 0, 64, 11
2, 122262, Note_on_c, 0, 69, 79
2, 122271, Note_on_c, 0, 71, 0
2, 122293, Control_c, 0, 64, 13
2, 122370, Control_c, 0, 64, 15
2, 122377, Note_on_c, 0, 40, 67
2, 122389, Note_on_c, 0, 52, 0
2, 122391, Note_on_c, 0, 72, 85
2, 122407, Note_on_c, 0, 69, 0
2, 122464, Control_c, 0, 64, 17
2, 122494, Note_on_c, 0, 71, 83
2, 122503, Control_c, 0, 64, 19
2, 122515, Note_on_c, 0, 72, 0
2, 122523, Control_c, 0, 64, 21
2, 122561, Control_c, 0, 64, 22
2, 122580, Control_c, 0, 64, 23
2, 122588, Note_on_c, 0, 71, 0
2, 122600, Control_c, 0, 64, 24
2, 122602, Note_on_c, 0, 69, 82
2, 122618, Control_c, 0, 64, 26
2, 122638, Control_c, 0, 64, 27
2, 122695, Control_c, 0, 64, 27
2, 122711, Note_on_c, 0, 68, 76
2, 122725, Note_on_c, 0, 69, 0
2, 122854, Note_on_c, 0, 68, 0
2, 122876, Note_on_c, 0, 69, 72
2, 122886, Note_on_c, 0, 45, 51
2, 122910, Note_on_c, 0, 40, 0
2, 122950, Note_on_c, 0, 68, 79
2, 122952, Note_on_c, 0, 69, 0
2, 123024, Note_on_c, 0, 69, 73
2, 123046, Note_on_c, 0, 68, 0
2, 123118, Control_c, 0, 64, 27
2, 123169, Note_on_c, 0, 47, 63
2, 123171, Note_on_c, 0, 45, 0
2, 123257, Note_on_c, 0, 47, 0
2, 123284, Note_on_c, 0, 48, 62
2, 123382, Note_on_c, 0, 50, 72
2, 123405, Control_c, 0, 64, 27
2, 123418, Note_on_c, 0, 48, 0
2, 123424, Control_c, 0, 64, 28
2, 123444, Control_c, 0, 64, 29
2, 123463, Control_c, 0, 64, 30
2, 123470, Note_on_c, 0, 50, 0
2, 123483, Control_c, 0, 64, 32
2, 123500, Note_on_c, 0, 52, 70
2, 123501, Control_c, 0, 64, 34
2, 123521, Control_c, 0, 64, 35
2, 123540, Control_c, 0, 64, 35
2, 123578, Control_c, 0, 64, 36
2, 123598, Control_c, 0, 64, 36
2, 123608, Note_on_c, 0, 54, 80
2, 123617, Control_c, 0, 64, 37
2, 123635, Control_c, 0, 64, 38
2, 123638, Note_on_c, 0, 52, 0
2, 123655, Control_c, 0, 64, 38
2, 123694, Control_c, 0, 64, 39
2, 123722, Note_on_c, 0, 56, 83
2, 123734, Note_on_c, 0, 54, 0
2, 123866, Control_c, 0, 64, 38
2, 123886, Control_c, 0, 64, 36
2, 123904, Control_c, 0, 64, 35
2, 123924, Control_c, 0, 64, 32
2, 123927, Note_on_c, 0, 57, 78
2, 123930, Note_on_c, 0, 56, 0
2, 123943, Control_c, 0, 64, 29
2, 123963, Control_c, 0, 64, 24
2, 123981, Control_c, 0, 64, 17
2, 124001, Control_c, 0, 64, 0
2, 124144, Note_on_c, 0, 57, 0
2, 124784, Note_on_c, 0, 45, 67
2, 125834, Note_on_c, 0, 45, 0
2, 125895, Note_on_c, 0, 69, 0
2, 128013, Control_c, 0, 64, 9
2, 128051, Control_c, 0, 64, 11
2, 128059, Note_on_c, 0, 64, 79
2, 128070, Control_c, 0, 64, 13
2, 128108, Control_c, 0, 64, 15
2, 128128, Control_c, 0, 64, 17
2, 128166, Control_c, 0, 64, 18
2, 128185, Control_c, 0, 64, 19
2, 128205, Control_c, 0, 64, 20
2, 128224, Control_c, 0, 64, 21
2, 128243, Control_c, 0, 64, 22
2, 128262, Control_c, 0, 64, 23
2, 128282, Control_c, 0, 64, 24
2, 128320, Control_c, 0, 64, 25
2, 128396, Control_c, 0, 64, 26
2, 128454, Control_c, 0, 64, 27
2, 128477, Note_on_c, 0, 64, 0
2, 128493, Control_c, 0, 64, 27
2, 128531, Control_c, 0, 64, 28
2, 128550, Control_c, 0, 64, 29
2, 128588, Control_c, 0, 64, 29
2, 128608, Control_c, 0, 64, 30
2, 128646, Control_c, 0, 64, 31
2, 128704, Control_c, 0, 64, 31
2, 128800, Control_c, 0, 64, 32
2, 128907, Note_on_c, 0, 60, 87
2, 128934, Control_c, 0, 64, 32
2, 129389, Note_on_c, 0, 60, 0
2, 129866, Note_on_c, 0, 65, 86
2, 130383, Note_on_c, 0, 65, 0
2, 130586, Control_c, 0, 64, 32
2, 130644, Control_c, 0, 64, 31
2, 130858, Note_on_c, 0, 56, 93
2, 131028, Control_c, 0, 64, 31
2, 131738, Control_c, 0, 64, 31
2, 131790, Note_on_c, 0, 56, 0
2, 131930, Control_c, 0, 64, 27
2, 131949, Control_c, 0, 64, 11
2, 131969, Control_c, 0, 64, 0
2, 133071, Note_on_c, 0, 62, 52
2, 133115, Note_on_c, 0, 62, 0
2, 133509, Note_on_c, 0, 59, 65
2, 133554, Note_on_c, 0, 59, 0
2, 133949, Note_on_c, 0, 64, 74
2, 133988, Note_on_c, 0, 64, 0
2, 134417, Note_on_c, 0, 60, 65
2, 134464, Note_on_c, 0, 60, 0
2, 134851, Note_on_c, 0, 57, 67
2, 134901, Note_on_c, 0, 57, 0
2, 135305, Note_on_c, 0, 54, 35
2, 135318, Note_on_c, 0, 69, 93
2, 135377, Note_on_c, 0, 54, 0
2, 135776, Note_on_c, 0, 63, 73
2, 135811, Note_on_c, 0, 69, 0
2, 135859, Note_on_c, 0, 63, 0
2, 136215, Note_on_c, 0, 52, 44
2, 136231, Note_on_c, 0, 67, 92
2, 136308, Note_on_c, 0, 52, 0
2, 136685, Note_on_c, 0, 67, 0
2, 136687, Note_on_c, 0, 64, 81
2, 136773, Note_on_c, 0, 64, 0
2, 136778, Note_on_c, 0, 62, 74
2, 136806, Control_c, 0, 64, 9
2, 136825, Control_c, 0, 64, 11
2, 136845, Control_c, 0, 64, 13
2, 136883, Note_on_c, 0, 62, 0
2, 136887, Note_on_c, 0, 60, 70
2, 136902, Control_c, 0, 64, 15
2, 136940, Control_c, 0, 64, 18
2, 136960, Control_c, 0, 64, 20
2, 136979, Control_c, 0, 64, 21
2, 136979, Note_on_c, 0, 59, 68
2, 136981, Note_on_c, 0, 60, 0
2, 136998, Control_c, 0, 64, 22
2, 137098, Note_on_c, 0, 59, 0
2, 137104, Note_on_c, 0, 72, 103
2, 137110, Note_on_c, 0, 57, 62
2, 137228, Control_c, 0, 64, 20
2, 137248, Control_c, 0, 64, 18
2, 137263, Note_on_c, 0, 57, 0
2, 137267, Control_c, 0, 64, 15
2, 137286, Control_c, 0, 64, 13
2, 137305, Control_c, 0, 64, 11
2, 137528, Note_on_c, 0, 72, 0
2, 137549, Note_on_c, 0, 60, 83
2, 137617, Note_on_c, 0, 60, 0
2, 137631, Control_c, 0, 64, 13
2, 137638, Note_on_c, 0, 59, 75
2, 137651, Control_c, 0, 64, 17
2, 137670, Control_c, 0, 64, 18
2, 137690, Control_c, 0, 64, 19
2, 137735, Note_on_c, 0, 57, 71
2, 137736, Note_on_c, 0, 59, 0
2, 137766, Control_c, 0, 64, 20
2, 137785, Control_c, 0, 64, 21
2, 137815, Note_on_c, 0, 57, 0
2, 137828, Note_on_c, 0, 55, 63
2, 137940, Note_on_c, 0, 55, 0
2, 137948, Note_on_c, 0, 54, 59
2, 137956, Note_on_c, 0, 63, 88
2, 137959, Control_c, 0, 64, 20
2, 138018, Control_c, 0, 64, 19
2, 138049, Note_on_c, 0, 54, 0
2, 138064, Note_on_c, 0, 55, 61
2, 138153, Note_on_c, 0, 55, 0
2, 138183, Note_on_c, 0, 57, 60
2, 138190, Control_c, 0, 64, 21
2, 138210, Control_c, 0, 64, 22
2, 138229, Control_c, 0, 64, 23
2, 138267, Control_c, 0, 64, 24
2, 138287, Control_c, 0, 64, 25
2, 138305, Control_c, 0, 64, 27
2, 138325, Control_c, 0, 64, 29
2, 138344, Control_c, 0, 64, 31
2, 138364, Control_c, 0, 64, 32
2, 138382, Control_c, 0, 64, 35
2, 138402, Control_c, 0, 64, 37
2, 138421, Control_c, 0, 64, 38
2, 138439, Control_c, 0, 64, 39
2, 138459, Control_c, 0, 64, 39
2, 138504, Note_on_c, 0, 57, 0
2, 138516, Control_c, 0, 64, 40
2, 138530, Note_on_c, 0, 55, 52
2, 138575, Control_c, 0, 64, 39
2, 138593, Control_c, 0, 64, 38
2, 138606, Note_on_c, 0, 54, 59
2, 138613, Control_c, 0, 64, 37
2, 138615, Note_on_c, 0, 55, 0
2, 138632, Control_c, 0, 64, 36
2, 138651, Control_c, 0, 64, 35
2, 138670, Control_c, 0, 64, 34
2, 138690, Control_c, 0, 64, 32
2, 138698, Note_on_c, 0, 54, 0
2, 138709, Control_c, 0, 64, 31
2, 138725, Note_on_c, 0, 52, 52
2, 138728, Control_c, 0, 64, 29
2, 138747, Control_c, 0, 64, 27
2, 138767, Control_c, 0, 64, 23
2, 138785, Control_c, 0, 64, 21
2, 138808, Control_c, 0, 64, 20
2, 138824, Note_on_c, 0, 52, 0
2, 138827, Control_c, 0, 64, 19
2, 138832, Note_on_c, 0, 51, 56
2, 138919, Note_on_c, 0, 51, 0
2, 138939, Note_on_c, 0, 52, 53
2, 138942, Control_c, 0, 64, 20
2, 138962, Control_c, 0, 64, 23
2, 138980, Control_c, 0, 64, 29
2, 138999, Control_c, 0, 64, 34
2, 139019, Control_c, 0, 64, 35
2, 139022, Note_on_c, 0, 52, 0
2, 139038, Control_c, 0, 64, 36
2, 139055, Note_on_c, 0, 54, 51
2, 139057, Control_c, 0, 64, 37
2, 139076, Control_c, 0, 64, 38
2, 139096, Control_c, 0, 64, 39
2, 139114, Control_c, 0, 64, 39
2, 139134, Control_c, 0, 64, 40
2, 139153, Control_c, 0, 64, 40
2, 139191, Control_c, 0, 64, 41
2, 139211, Control_c, 0, 64, 41
2, 139230, Control_c, 0, 64, 42
2, 139325, Note_on_c, 0, 54, 0
2, 139345, Control_c, 0, 64, 41
2, 139348, Note_on_c, 0, 52, 53
2, 139365, Control_c, 0, 64, 40
2, 139384, Control_c, 0, 64, 39
2, 139403, Control_c, 0, 64, 38
2, 139422, Control_c, 0, 64, 37
2, 139432, Note_on_c, 0, 52, 0
2, 139439, Note_on_c, 0, 51, 58
2, 139442, Control_c, 0, 64, 36
2, 139460, Control_c, 0, 64, 35
2, 139479, Control_c, 0, 64, 35
2, 139525, Note_on_c, 0, 49, 58
2, 139527, Note_on_c, 0, 51, 0
2, 139539, Note_on_c, 0, 63, 0
2, 139656, Note_on_c, 0, 49, 0
2, 139663, Note_on_c, 0, 47, 51
2, 139764, Control_c, 0, 64, 34
2, 139783, Control_c, 0, 64, 33
2, 139803, Control_c, 0, 64, 32
2, 139821, Control_c, 0, 64, 31
2, 139841, Control_c, 0, 64, 31
2, 139860, Control_c, 0, 64, 30
2, 139879, Control_c, 0, 64, 29
2, 139898, Control_c, 0, 64, 27
2, 139917, Control_c, 0, 64, 26
2, 139937, Control_c, 0, 64, 25
2, 139955, Control_c, 0, 64, 23
2, 139975, Control_c, 0, 64, 22
2, 139994, Control_c, 0, 64, 19
2, 140014, Control_c, 0, 64, 11
2, 140032, Control_c, 0, 64, 0
2, 140085, Note_on_c, 0, 69, 68
2, 140183, Note_on_c, 0, 69, 0
2, 140186, Control_c, 0, 64, 9
2, 140206, Control_c, 0, 64, 15
2, 140224, Control_c, 0, 64, 17
2, 140244, Control_c, 0, 64, 18
2, 140331, Note_on_c, 0, 49, 51
2, 140338, Note_on_c, 0, 47, 0
2, 140378, Control_c, 0, 64, 17
2, 140397, Control_c, 0, 64, 13
2, 140417, Control_c, 0, 64, 11
2, 140430, Note_on_c, 0, 51, 60
2, 140437, Note_on_c, 0, 49, 0
2, 140512, Control_c, 0, 64, 15
2, 140524, Note_on_c, 0, 51, 0
2, 140532, Control_c, 0, 64, 18
2, 140542, Note_on_c, 0, 66, 74
2, 140549, Note_on_c, 0, 52, 55
2, 140551, Control_c, 0, 64, 24
2, 140570, Control_c, 0, 64, 29
2, 140589, Control_c, 0, 64, 33
2, 140609, Control_c, 0, 64, 35
2, 140628, Control_c, 0, 64, 37
2, 140630, Note_on_c, 0, 52, 0
2, 140647, Control_c, 0, 64, 38
2, 140663, Note_on_c, 0, 66, 0
2, 140666, Control_c, 0, 64, 39
2, 140672, Note_on_c, 0, 51, 52
2, 140685, Control_c, 0, 64, 40
2, 140704, Control_c, 0, 64, 41
2, 140712, Note_on_c, 0, 51, 0
2, 140749, Note_on_c, 0, 52, 62
2, 140762, Control_c, 0, 64, 40
2, 140780, Control_c, 0, 64, 37
2, 140794, Note_on_c, 0, 52, 0
2, 140799, Control_c, 0, 64, 32
2, 140806, Note_on_c, 0, 51, 64
2, 140819, Control_c, 0, 64, 25
2, 140838, Control_c, 0, 64, 11
2, 140845, Note_on_c, 0, 51, 0
2, 140857, Control_c, 0, 64, 0
2, 140883, Note_on_c, 0, 52, 65
2, 140927, Note_on_c, 0, 52, 0
2, 140928, Note_on_c, 0, 51, 68
2, 140996, Note_on_c, 0, 51, 0
2, 140999, Note_on_c, 0, 71, 87
2, 141008, Note_on_c, 0, 52, 70
2, 141086, Note_on_c, 0, 51, 65
2, 141121, Note_on_c, 0, 71, 0
2, 141194, Note_on_c, 0, 51, 0
2, 141198, Note_on_c, 0, 52, 0
2, 141203, Control_c, 0, 64, 11
2, 141217, Note_on_c, 0, 49, 61
2, 141222, Control_c, 0, 64, 17
2, 141242, Control_c, 0, 64, 20
2, 141260, Control_c, 0, 64, 23
2, 141279, Control_c, 0, 64, 26
2, 141316, Note_on_c, 0, 51, 68
2, 141334, Note_on_c, 0, 49, 0
2, 141438, Note_on_c, 0, 51, 0
2, 141457, Note_on_c, 0, 67, 71
2, 141463, Note_on_c, 0, 52, 56
2, 141491, Control_c, 0, 64, 25
2, 141510, Control_c, 0, 64, 23
2, 141530, Control_c, 0, 64, 22
2, 141548, Control_c, 0, 64, 21
2, 141568, Control_c, 0, 64, 20
2, 141587, Control_c, 0, 64, 18
2, 141625, Control_c, 0, 64, 17
2, 141645, Control_c, 0, 64, 15
2, 141664, Control_c, 0, 64, 11
2, 141683, Control_c, 0, 64, 0
2, 141689, Note_on_c, 0, 67, 0
2, 141735, Note_on_c, 0, 52, 0
2, 141916, Note_on_c, 0, 64, 75
2, 142022, Note_on_c, 0, 52, 73
2, 142087, Note_on_c, 0, 64, 0
2, 142124, Note_on_c, 0, 53, 76
2, 142132, Note_on_c, 0, 52, 0
2, 142220, Note_on_c, 0, 53, 0
2, 142220, Note_on_c, 0, 55, 78
2, 142333, Note_on_c, 0, 55, 0
2, 142337, Note_on_c, 0, 61, 69
2, 142366, Note_on_c, 0, 57, 59
2, 142565, Note_on_c, 0, 57, 0
2, 142632, Note_on_c, 0, 61, 0
2, 142807, Note_on_c, 0, 69, 62
2, 142924, Note_on_c, 0, 55, 51
2, 142968, Note_on_c, 0, 69, 0
2, 142974, Note_on_c, 0, 55, 0
2, 143012, Note_on_c, 0, 53, 56
2, 143075, Note_on_c, 0, 53, 0
2, 143109, Note_on_c, 0, 52, 58
2, 143185, Note_on_c, 0, 52, 0
2, 143225, Note_on_c, 0, 65, 48
2, 143249, Note_on_c, 0, 50, 39
2, 143459, Note_on_c, 0, 65, 0
2, 143496, Note_on_c, 0, 50, 0
2, 143679, Note_on_c, 0, 62, 56
2, 143780, Note_on_c, 0, 50, 56
2, 143813, Note_on_c, 0, 62, 0
2, 143855, Note_on_c, 0, 50, 0
2, 143885, Note_on_c, 0, 52, 58
2, 143947, Note_on_c, 0, 52, 0
2, 143975, Note_on_c, 0, 53, 61
2, 144040, Note_on_c, 0, 53, 0
2, 144102, Note_on_c, 0, 59, 54
2, 144111, Note_on_c, 0, 55, 44
2, 144333, Note_on_c, 0, 59, 0
2, 144341, Note_on_c, 0, 55, 0
2, 144562, Note_on_c, 0, 67, 58
2, 144659, Note_on_c, 0, 53, 55
2, 144730, Note_on_c, 0, 53, 0
2, 144768, Note_on_c, 0, 52, 55
2, 144840, Note_on_c, 0, 52, 0
2, 144860, Note_on_c, 0, 50, 62
2, 144994, Note_on_c, 0, 48, 55
2, 144994, Note_on_c, 0, 50, 0
2, 145003, Note_on_c, 0, 67, 0
2, 145008, Note_on_c, 0, 64, 66
2, 145418, Note_on_c, 0, 69, 83
2, 145463, Note_on_c, 0, 64, 0
2, 145664, Note_on_c, 0, 50, 84
2, 145697, Note_on_c, 0, 48, 0
2, 145895, Note_on_c, 0, 52, 60
2, 145896, Note_on_c, 0, 76, 84
2, 145897, Note_on_c, 0, 50, 0
2, 145902, Note_on_c, 0, 69, 0
2, 146072, Note_on_c, 0, 52, 0
2, 146120, Note_on_c, 0, 53, 69
2, 146196, Note_on_c, 0, 53, 0
2, 146206, Note_on_c, 0, 52, 75
2, 146300, Note_on_c, 0, 50, 75
2, 146300, Note_on_c, 0, 52, 0
2, 146317, Note_on_c, 0, 68, 89
2, 146322, Note_on_c, 0, 76, 0
2, 146520, Control_c, 0, 64, 9
2, 146540, Control_c, 0, 64, 18
2, 146551, Note_on_c, 0, 52, 78
2, 146556, Note_on_c, 0, 50, 0
2, 146558, Control_c, 0, 64, 21
2, 146578, Control_c, 0, 64, 23
2, 146584, Note_on_c, 0, 52, 0
2, 146597, Control_c, 0, 64, 24
2, 146616, Control_c, 0, 64, 25
2, 146635, Control_c, 0, 64, 27
2, 146674, Control_c, 0, 64, 27
2, 146712, Control_c, 0, 64, 28
2, 146750, Control_c, 0, 64, 29
2, 146770, Control_c, 0, 64, 31
2, 146789, Control_c, 0, 64, 34
2, 146789, Note_on_c, 0, 68, 0
2, 146804, Note_on_c, 0, 72, 104
2, 146809, Control_c, 0, 64, 37
2, 146810, Note_on_c, 0, 53, 67
2, 146810, Note_on_c, 0, 57, 61
2, 146827, Control_c, 0, 64, 44
2, 146847, Control_c, 0, 64, 53
2, 146866, Control_c, 0, 64, 59
2, 146885, Control_c, 0, 64, 62
2, 146904, Control_c, 0, 64, 64
2, 146924, Control_c, 0, 64, 67
2, 146943, Control_c, 0, 64, 71
2, 146962, Control_c, 0, 64, 78
2, 146981, Control_c, 0, 64, 90
2, 147000, Control_c, 0, 64, 98
2, 147020, Control_c, 0, 64, 105
2, 147038, Control_c, 0, 64, 115
2, 147058, Control_c, 0, 64, 127
2, 147183, Note_on_c, 0, 57, 0
2, 147196, Note_on_c, 0, 72, 0
2, 147199, Note_on_c, 0, 53, 0
2, 147217, Note_on_c, 0, 69, 83
2, 147230, Control_c, 0, 64, 90
2, 147250, Control_c, 0, 64, 64
2, 147269, Control_c, 0, 64, 0
2, 147315, Note_on_c, 0, 67, 67
2, 147368, Note_on_c, 0, 69, 0
2, 147406, Note_on_c, 0, 65, 73
2, 147426, Note_on_c, 0, 67, 0
2, 147490, Note_on_c, 0, 65, 0
2, 147511, Note_on_c, 0, 64, 73
2, 147555, Note_on_c, 0, 64, 0
2, 147638, Note_on_c, 0, 77, 97
2, 147646, Note_on_c, 0, 62, 61
2, 147711, Control_c, 0, 64, 39
2, 147731, Control_c, 0, 64, 59
2, 147750, Control_c, 0, 64, 66
2, 147770, Control_c, 0, 64, 71
2, 147788, Control_c, 0, 64, 82
2, 147808, Control_c, 0, 64, 102
2, 147827, Control_c, 0, 64, 127
2, 147836, Note_on_c, 0, 62, 0
2, 147885, Note_on_c, 0, 65, 66
2, 147927, Note_on_c, 0, 77, 0
2, 147961, Note_on_c, 0, 65, 0
2, 147976, Note_on_c, 0, 64, 72
2, 148067, Note_on_c, 0, 64, 0
2, 148068, Note_on_c, 0, 62, 76
2, 148123, Note_on_c, 0, 62, 0
2, 148172, Note_on_c, 0, 60, 75
2, 148266, Note_on_c, 0, 60, 0
2, 148272, Note_on_c, 0, 59, 79
2, 148288, Control_c, 0, 64, 105
2, 148307, Control_c, 0, 64, 91
2, 148326, Control_c, 0, 64, 81
2, 148345, Control_c, 0, 64, 75
2, 148359, Note_on_c, 0, 57, 71
2, 148360, Note_on_c, 0, 59, 0
2, 148365, Control_c, 0, 64, 68
2, 148384, Control_c, 0, 64, 62
2, 148399, Note_on_c, 0, 57, 0
2, 148403, Control_c, 0, 64, 52
2, 148422, Control_c, 0, 64, 27
2, 148441, Control_c, 0, 64, 0
2, 148490, Note_on_c, 0, 68, 86
2, 148493, Note_on_c, 0, 59, 83
2, 148610, Note_on_c, 0, 60, 68
2, 148613, Note_on_c, 0, 59, 0
2, 148739, Note_on_c, 0, 62, 62
2, 148784, Note_on_c, 0, 60, 0
2, 148880, Note_on_c, 0, 68, 0
2, 148948, Note_on_c, 0, 53, 63
2, 149031, Note_on_c, 0, 53, 0
2, 149037, Note_on_c, 0, 62, 0
2, 149066, Note_on_c, 0, 60, 56
2, 149120, Note_on_c, 0, 60, 0
2, 149153, Note_on_c, 0, 59, 64
2, 149258, Note_on_c, 0, 59, 0
2, 149259, Note_on_c, 0, 57, 73
2, 149360, Note_on_c, 0, 56, 74
2, 149363, Note_on_c, 0, 57, 0
2, 149373, Note_on_c, 0, 47, 48
2, 149446, Note_on_c, 0, 56, 0
2, 149473, Note_on_c, 0, 57, 73
2, 149479, Note_on_c, 0, 47, 0
2, 149597, Note_on_c, 0, 59, 84
2, 149609, Note_on_c, 0, 57, 0
2, 149819, Note_on_c, 0, 50, 67
2, 149847, Note_on_c, 0, 59, 0
2, 149902, Note_on_c, 0, 57, 66
2, 149920, Note_on_c, 0, 50, 0
2, 150016, Note_on_c, 0, 56, 78
2, 150019, Note_on_c, 0, 57, 0
2, 150115, Note_on_c, 0, 54, 75
2, 150164, Note_on_c, 0, 56, 0
2, 150244, Note_on_c, 0, 52, 79
2, 150245, Note_on_c, 0, 44, 60
2, 150251, Note_on_c, 0, 54, 0
2, 150306, Note_on_c, 0, 52, 0
2, 150701, Note_on_c, 0, 47, 56
2, 150716, Note_on_c, 0, 44, 0
2, 150721, Note_on_c, 0, 74, 89
2, 150888, Note_on_c, 0, 74, 0
2, 150897, Note_on_c, 0, 47, 0
2, 150917, Control_c, 0, 64, 9
2, 150936, Control_c, 0, 64, 11
2, 150942, Note_on_c, 0, 54, 64
2, 150955, Control_c, 0, 64, 13
2, 150975, Control_c, 0, 64, 15
2, 151001, Note_on_c, 0, 54, 0
2, 151033, Note_on_c, 0, 56, 74
2, 151109, Control_c, 0, 64, 11
2, 151129, Control_c, 0, 64, 0
2, 151154, Note_on_c, 0, 56, 0
2, 151160, Note_on_c, 0, 52, 51
2, 151186, Note_on_c, 0, 71, 85
2, 151194, Note_on_c, 0, 57, 50
2, 151311, Note_on_c, 0, 71, 0
2, 151314, Note_on_c, 0, 57, 0
2, 151320, Note_on_c, 0, 56, 70
2, 151373, Note_on_c, 0, 56, 0
2, 151404, Note_on_c, 0, 57, 68
2, 151462, Note_on_c, 0, 57, 0
2, 151484, Note_on_c, 0, 56, 73
2, 151532, Note_on_c, 0, 56, 0
2, 151544, Note_on_c, 0, 57, 70
2, 151600, Note_on_c, 0, 57, 0
2, 151612, Note_on_c, 0, 56, 69
2, 151625, Note_on_c, 0, 76, 91
2, 151683, Note_on_c, 0, 57, 64
2, 151687, Note_on_c, 0, 56, 0
2, 151775, Note_on_c, 0, 56, 54
2, 151776, Note_on_c, 0, 76, 0
2, 151780, Note_on_c, 0, 57, 0
2, 151812, Note_on_c, 0, 54, 66
2, 151820, Note_on_c, 0, 56, 0
2, 151831, Note_on_c, 0, 52, 0
2, 151914, Note_on_c, 0, 56, 80
2, 151940, Note_on_c, 0, 54, 0
2, 151985, Note_on_c, 0, 56, 0
2, 152074, Note_on_c, 0, 57, 50
2, 152081, Note_on_c, 0, 72, 83
2, 152088, Note_on_c, 0, 45, 47
2, 152300, Note_on_c, 0, 45, 0
2, 152308, Note_on_c, 0, 57, 0
2, 152346, Note_on_c, 0, 72, 0
2, 152552, Note_on_c, 0, 69, 78
2, 152658, Note_on_c, 0, 57, 72
2, 152737, Note_on_c, 0, 69, 0
2, 152753, Note_on_c, 0, 57, 0
2, 152754, Note_on_c, 0, 59, 74
2, 152845, Note_on_c, 0, 59, 0
2, 152847, Note_on_c, 0, 60, 78
2, 152960, Note_on_c, 0, 60, 0
2, 152996, Note_on_c, 0, 62, 52
2, 153001, Note_on_c, 0, 66, 64
2, 153192, Note_on_c, 0, 62, 0
2, 153281, Note_on_c, 0, 66, 0
2, 153457, Note_on_c, 0, 74, 56
2, 153476, Note_on_c, 0, 54, 38
2, 153554, Note_on_c, 0, 54, 0
2, 153593, Note_on_c, 0, 60, 47
2, 153609, Note_on_c, 0, 74, 0
2, 153663, Note_on_c, 0, 60, 0
2, 153678, Note_on_c, 0, 59, 56
2, 153746, Note_on_c, 0, 59, 0
2, 153773, Note_on_c, 0, 57, 57
2, 153884, Note_on_c, 0, 57, 0
2, 153900, Note_on_c, 0, 71, 51
2, 153940, Note_on_c, 0, 55, 39
2, 154140, Note_on_c, 0, 71, 0
2, 154201, Note_on_c, 0, 55, 0
2, 154364, Note_on_c, 0, 67, 52
2, 154487, Note_on_c, 0, 55, 34
2, 154515, Note_on_c, 0, 67, 0
2, 154537, Note_on_c, 0, 55, 0
2, 154561, Note_on_c, 0, 57, 57
2, 154622, Note_on_c, 0, 57, 0
2, 154652, Note_on_c, 0, 59, 57
2, 154717, Note_on_c, 0, 59, 0
2, 154784, Note_on_c, 0, 60, 37
2, 154785, Note_on_c, 0, 64, 49
2, 154872, Control_c, 0, 64, 9
2, 154892, Control_c, 0, 64, 15
2, 154910, Control_c, 0, 64, 19
2, 154930, Control_c, 0, 64, 23
2, 154949, Control_c, 0, 64, 26
2, 154969, Control_c, 0, 64, 27
2, 154987, Control_c, 0, 64, 29
2, 154992, Note_on_c, 0, 64, 0
2, 155007, Control_c, 0, 64, 29
2, 155026, Control_c, 0, 64, 30
2, 155058, Note_on_c, 0, 60, 0
2, 155216, Note_on_c, 0, 52, 38
2, 155223, Note_on_c, 0, 72, 57
2, 155332, Note_on_c, 0, 58, 47
2, 155354, Note_on_c, 0, 52, 0
2, 155372, Control_c, 0, 64, 29
2, 155379, Note_on_c, 0, 58, 0
2, 155390, Control_c, 0, 64, 29
2, 155429, Control_c, 0, 64, 28
2, 155448, Note_on_c, 0, 57, 52
2, 155449, Control_c, 0, 64, 27
2, 155467, Control_c, 0, 64, 26
2, 155487, Control_c, 0, 64, 25
2, 155504, Note_on_c, 0, 57, 0
2, 155506, Control_c, 0, 64, 24
2, 155525, Control_c, 0, 64, 23
2, 155541, Note_on_c, 0, 55, 50
2, 155544, Control_c, 0, 64, 22
2, 155564, Control_c, 0, 64, 21
2, 155601, Control_c, 0, 64, 20
2, 155620, Note_on_c, 0, 55, 0
2, 155674, Note_on_c, 0, 69, 58
2, 155675, Note_on_c, 0, 53, 46
2, 155686, Note_on_c, 0, 72, 0
2, 155698, Control_c, 0, 64, 22
2, 155717, Control_c, 0, 64, 28
2, 155736, Control_c, 0, 64, 40
2, 155755, Control_c, 0, 64, 53
2, 155775, Control_c, 0, 64, 59
2, 155794, Control_c, 0, 64, 63
2, 155813, Control_c, 0, 64, 65
2, 155832, Control_c, 0, 64, 69
2, 155852, Control_c, 0, 64, 76
2, 155870, Control_c, 0, 64, 90
2, 155890, Control_c, 0, 64, 110
2, 155900, Note_on_c, 0, 65, 54
2, 155909, Control_c, 0, 64, 127
2, 156102, Control_c, 0, 64, 88
2, 156114, Note_on_c, 0, 55, 55
2, 156121, Control_c, 0, 64, 64
2, 156122, Note_on_c, 0, 71, 77
2, 156138, Note_on_c, 0, 69, 0
2, 156140, Control_c, 0, 64, 0
2, 156185, Note_on_c, 0, 53, 0
2, 156190, Note_on_c, 0, 65, 0
2, 156217, Control_c, 0, 64, 53
2, 156236, Control_c, 0, 64, 67
2, 156256, Control_c, 0, 64, 77
2, 156274, Control_c, 0, 64, 105
2, 156294, Control_c, 0, 64, 127
2, 156333, Note_on_c, 0, 65, 64
2, 156500, Note_on_c, 0, 55, 0
2, 156542, Note_on_c, 0, 65, 0
2, 156544, Control_c, 0, 64, 104
2, 156562, Control_c, 0, 64, 68
2, 156579, Note_on_c, 0, 57, 49
2, 156582, Control_c, 0, 64, 0
2, 156587, Note_on_c, 0, 72, 71
2, 156633, Note_on_c, 0, 71, 0
2, 156639, Control_c, 0, 64, 30
2, 156659, Control_c, 0, 64, 62
2, 156678, Control_c, 0, 64, 70
2, 156697, Control_c, 0, 64, 85
2, 156707, Note_on_c, 0, 64, 69
2, 156714, Note_on_c, 0, 72, 0
2, 156716, Control_c, 0, 64, 127
2, 156797, Note_on_c, 0, 64, 0
2, 156800, Note_on_c, 0, 65, 72
2, 156850, Note_on_c, 0, 57, 0
2, 156891, Note_on_c, 0, 65, 0
2, 156901, Note_on_c, 0, 67, 74
2, 156994, Note_on_c, 0, 55, 61
2, 156994, Note_on_c, 0, 67, 0
2, 156998, Note_on_c, 0, 69, 83
2, 157058, Note_on_c, 0, 55, 0
2, 157100, Note_on_c, 0, 67, 76
2, 157140, Note_on_c, 0, 69, 0
2, 157184, Note_on_c, 0, 65, 75
2, 157205, Note_on_c, 0, 67, 0
2, 157274, Note_on_c, 0, 65, 0
2, 157288, Note_on_c, 0, 64, 80
2, 157345, Note_on_c, 0, 64, 0
2, 157349, Control_c, 0, 64, 76
2, 157369, Control_c, 0, 64, 58
2, 157387, Control_c, 0, 64, 0
2, 157406, Note_on_c, 0, 62, 61
2, 157408, Note_on_c, 0, 53, 63
2, 157515, Note_on_c, 0, 72, 80
2, 157616, Note_on_c, 0, 72, 0
2, 157618, Note_on_c, 0, 74, 72
2, 157668, Note_on_c, 0, 62, 0
2, 157715, Note_on_c, 0, 74, 0
2, 157715, Note_on_c, 0, 76, 73
2, 157811, Note_on_c, 0, 50, 65
2, 157814, Note_on_c, 0, 77, 82
2, 157820, Note_on_c, 0, 76, 0
2, 157845, Note_on_c, 0, 53, 0
2, 157916, Note_on_c, 0, 76, 75
2, 157925, Note_on_c, 0, 50, 0
2, 157979, Note_on_c, 0, 77, 0
2, 158013, Note_on_c, 0, 74, 70
2, 158032, Note_on_c, 0, 76, 0
2, 158090, Note_on_c, 0, 74, 0
2, 158105, Note_on_c, 0, 72, 74
2, 158143, Note_on_c, 0, 72, 0
2, 158222, Note_on_c, 0, 71, 86
2, 158224, Note_on_c, 0, 55, 69
2, 158339, Note_on_c, 0, 62, 62
2, 158427, Note_on_c, 0, 71, 0
2, 158446, Note_on_c, 0, 64, 70
2, 158455, Note_on_c, 0, 62, 0
2, 158554, Note_on_c, 0, 64, 0
2, 158556, Note_on_c, 0, 65, 71
2, 158653, Note_on_c, 0, 53, 55
2, 158670, Note_on_c, 0, 55, 0
2, 158670, Note_on_c, 0, 67, 80
2, 158673, Note_on_c, 0, 65, 0
2, 158750, Note_on_c, 0, 53, 0
2, 158771, Note_on_c, 0, 65, 78
2, 158813, Note_on_c, 0, 67, 0
2, 158870, Note_on_c, 0, 64, 82
2, 158899, Note_on_c, 0, 65, 0
2, 158969, Note_on_c, 0, 62, 85
2, 158973, Note_on_c, 0, 64, 0
2, 159040, Note_on_c, 0, 62, 0
2, 159079, Note_on_c, 0, 60, 84
2, 159080, Note_on_c, 0, 52, 76
2, 159530, Note_on_c, 0, 55, 48
2, 159531, Note_on_c, 0, 60, 0
2, 159559, Note_on_c, 0, 52, 0
2, 159561, Note_on_c, 0, 84, 82
2, 159615, Note_on_c, 0, 55, 0
2, 159665, Note_on_c, 0, 83, 79
2, 159710, Note_on_c, 0, 84, 0
2, 159759, Note_on_c, 0, 81, 89
2, 159849, Note_on_c, 0, 83, 0
2, 159853, Note_on_c, 0, 79, 92
2, 159899, Note_on_c, 0, 81, 0
2, 159977, Note_on_c, 0, 60, 50
2, 159978, Note_on_c, 0, 57, 43
2, 159978, Note_on_c, 0, 77, 87
2, 159979, Control_c, 0, 64, 18
2, 159991, Note_on_c, 0, 79, 0
2, 159997, Control_c, 0, 64, 42
2, 160017, Control_c, 0, 64, 58
2, 160036, Control_c, 0, 64, 64
2, 160055, Control_c, 0, 64, 69
2, 160074, Control_c, 0, 64, 77
2, 160094, Control_c, 0, 64, 95
2, 160113, Control_c, 0, 64, 127
2, 160140, Note_on_c, 0, 57, 0
2, 160157, Note_on_c, 0, 60, 0
2, 160314, Note_on_c, 0, 77, 0
2, 160433, Note_on_c, 0, 65, 43
2, 160446, Note_on_c, 0, 81, 75
2, 160465, Note_on_c, 0, 65, 0
2, 160477, Control_c, 0, 64, 100
2, 160497, Control_c, 0, 64, 77
2, 160516, Control_c, 0, 64, 65
2, 160535, Control_c, 0, 64, 53
2, 160554, Control_c, 0, 64, 32
2, 160559, Note_on_c, 0, 79, 65
2, 160560, Note_on_c, 0, 81, 0
2, 160574, Control_c, 0, 64, 0
2, 160654, Note_on_c, 0, 77, 61
2, 160691, Note_on_c, 0, 79, 0
2, 160759, Note_on_c, 0, 76, 56
2, 160771, Note_on_c, 0, 77, 0
2, 160833, Note_on_c, 0, 47, 48
2, 160834, Note_on_c, 0, 76, 0
2, 160871, Note_on_c, 0, 74, 52
2, 160911, Note_on_c, 0, 47, 0
2, 160969, Note_on_c, 0, 74, 0
2, 160989, Note_on_c, 0, 76, 54
2, 161055, Note_on_c, 0, 76, 0
2, 161092, Note_on_c, 0, 77, 49
2, 161315, Note_on_c, 0, 62, 49
2, 161393, Note_on_c, 0, 76, 57
2, 161398, Note_on_c, 0, 77, 0
2, 161425, Note_on_c, 0, 62, 0
2, 161466, Note_on_c, 0, 76, 0
2, 161504, Note_on_c, 0, 74, 55
2, 161604, Note_on_c, 0, 72, 62
2, 161605, Note_on_c, 0, 74, 0
2, 161701, Note_on_c, 0, 72, 0
2, 161721, Note_on_c, 0, 65, 41
2, 161724, Note_on_c, 0, 71, 58
2, 161778, Note_on_c, 0, 65, 0
2, 161810, Note_on_c, 0, 71, 0
2, 161835, Note_on_c, 0, 72, 64
2, 161920, Note_on_c, 0, 72, 0
2, 161947, Note_on_c, 0, 74, 58
2, 162158, Note_on_c, 0, 62, 49
2, 162262, Note_on_c, 0, 72, 64
2, 162262, Note_on_c, 0, 74, 0
2, 162263, Note_on_c, 0, 62, 0
2, 162358, Note_on_c, 0, 71, 66
2, 162358, Note_on_c, 0, 72, 0
2, 162430, Note_on_c, 0, 71, 0
2, 162461, Note_on_c, 0, 69, 67
2, 162594, Note_on_c, 0, 69, 0
2, 162607, Note_on_c, 0, 67, 58
2, 162617, Note_on_c, 0, 59, 51
2, 162686, Note_on_c, 0, 59, 0
2, 163067, Note_on_c, 0, 53, 72
2, 163067, Note_on_c, 0, 62, 72
2, 163150, Note_on_c, 0, 62, 0
2, 163177, Note_on_c, 0, 53, 0
2, 163305, Note_on_c, 0, 69, 71
2, 163315, Note_on_c, 0, 67, 0
2, 163401, Note_on_c, 0, 69, 0
2, 163406, Note_on_c, 0, 71, 73
2, 163512, Note_on_c, 0, 71, 0
2, 163520, Note_on_c, 0, 72, 79
2, 163535, Note_on_c, 0, 50, 69
2, 163540, Note_on_c, 0, 65, 66
2, 163641, Note_on_c, 0, 71, 77
2, 163648, Note_on_c, 0, 72, 0
2, 163668, Note_on_c, 0, 50, 0
2, 163671, Note_on_c, 0, 65, 0
2, 163720, Note_on_c, 0, 71, 0
2, 163744, Note_on_c, 0, 72, 74
2, 163831, Note_on_c, 0, 71, 81
2, 163847, Note_on_c, 0, 72, 0
2, 163907, Note_on_c, 0, 71, 0
2, 163918, Note_on_c, 0, 72, 74
2, 163951, Note_on_c, 0, 62, 84
2, 163960, Note_on_c, 0, 55, 72
2, 164011, Note_on_c, 0, 71, 79
2, 164013, Note_on_c, 0, 62, 0
2, 164109, Note_on_c, 0, 55, 0
2, 164118, Note_on_c, 0, 72, 0
2, 164157, Note_on_c, 0, 71, 0
2, 164158, Note_on_c, 0, 69, 78
2, 164257, Note_on_c, 0, 69, 0
2, 164260, Note_on_c, 0, 71, 84
2, 164359, Note_on_c, 0, 52, 71
2, 164371, Note_on_c, 0, 67, 75
2, 164376, Note_on_c, 0, 72, 84
2, 164412, Note_on_c, 0, 71, 0
2, 164529, Control_c, 0, 64, 9
2, 164548, Control_c, 0, 64, 11
2, 164586, Control_c, 0, 64, 13
2, 164606, Control_c, 0, 64, 15
2, 164612, Note_on_c, 0, 67, 0
2, 164648, Note_on_c, 0, 72, 0
2, 164811, Note_on_c, 0, 52, 0
2, 164814, Control_c, 0, 64, 17
2, 164834, Note_on_c, 0, 60, 84
2, 165037, Note_on_c, 0, 60, 0
2, 165050, Note_on_c, 0, 52, 67
2, 165083, Control_c, 0, 64, 15
2, 165102, Control_c, 0, 64, 13
2, 165122, Control_c, 0, 64, 11
2, 165136, Note_on_c, 0, 54, 76
2, 165149, Note_on_c, 0, 52, 0
2, 165160, Control_c, 0, 64, 9
2, 165253, Note_on_c, 0, 54, 0
2, 165264, Note_on_c, 0, 55, 64
2, 165277, Note_on_c, 0, 57, 85
2, 165371, Control_c, 0, 64, 11
2, 165378, Note_on_c, 0, 55, 0
2, 165393, Note_on_c, 0, 54, 68
2, 165422, Note_on_c, 0, 57, 0
2, 165449, Note_on_c, 0, 54, 0
2, 165486, Control_c, 0, 64, 13
2, 165492, Note_on_c, 0, 55, 59
2, 165545, Note_on_c, 0, 55, 0
2, 165556, Note_on_c, 0, 54, 71
2, 165601, Note_on_c, 0, 54, 0
2, 165630, Note_on_c, 0, 55, 72
2, 165678, Note_on_c, 0, 55, 0
2, 165681, Note_on_c, 0, 54, 70
2, 165732, Note_on_c, 0, 62, 88
2, 165745, Note_on_c, 0, 54, 0
2, 165765, Note_on_c, 0, 55, 75
2, 165775, Control_c, 0, 64, 15
2, 165795, Control_c, 0, 64, 17
2, 165813, Control_c, 0, 64, 18
2, 165840, Note_on_c, 0, 54, 66
2, 165846, Note_on_c, 0, 55, 0
2, 165871, Control_c, 0, 64, 19
2, 165880, Note_on_c, 0, 62, 0
2, 165890, Control_c, 0, 64, 22
2, 165909, Control_c, 0, 64, 25
2, 165929, Control_c, 0, 64, 26
2, 165942, Note_on_c, 0, 54, 0
2, 165946, Note_on_c, 0, 52, 62
2, 165967, Control_c, 0, 64, 27
2, 166006, Control_c, 0, 64, 27
2, 166058, Note_on_c, 0, 54, 78
2, 166080, Note_on_c, 0, 52, 0
2, 166121, Control_c, 0, 64, 28
2, 166178, Control_c, 0, 64, 29
2, 166187, Note_on_c, 0, 59, 88
2, 166203, Note_on_c, 0, 54, 0
2, 166204, Note_on_c, 0, 55, 63
2, 166217, Control_c, 0, 64, 29
2, 166351, Note_on_c, 0, 59, 0
2, 166600, Control_c, 0, 64, 29
2, 166610, Note_on_c, 0, 55, 0
2, 166639, Control_c, 0, 64, 28
2, 166644, Note_on_c, 0, 52, 55
2, 166664, Note_on_c, 0, 67, 89
2, 166843, Note_on_c, 0, 52, 0
2, 166849, Note_on_c, 0, 67, 0
2, 166891, Note_on_c, 0, 59, 73
2, 166966, Control_c, 0, 64, 27
2, 166982, Note_on_c, 0, 61, 68
2, 166984, Control_c, 0, 64, 27
2, 166989, Note_on_c, 0, 59, 0
2, 167004, Control_c, 0, 64, 26
2, 167042, Control_c, 0, 64, 25
2, 167061, Control_c, 0, 64, 23
2, 167081, Control_c, 0, 64, 22
2, 167089, Note_on_c, 0, 57, 49
2, 167091, Note_on_c, 0, 61, 0
2, 167100, Control_c, 0, 64, 21
2, 167117, Note_on_c, 0, 62, 56
2, 167119, Control_c, 0, 64, 20
2, 167137, Note_on_c, 0, 64, 83
2, 167240, Note_on_c, 0, 62, 0
2, 167257, Note_on_c, 0, 61, 63
2, 167279, Note_on_c, 0, 64, 0
2, 167323, Note_on_c, 0, 61, 0
2, 167353, Note_on_c, 0, 62, 65
2, 167387, Control_c, 0, 64, 19
2, 167398, Note_on_c, 0, 62, 0
2, 167429, Note_on_c, 0, 61, 64
2, 167446, Control_c, 0, 64, 18
2, 167467, Note_on_c, 0, 61, 0
2, 167482, Note_on_c, 0, 62, 76
2, 167503, Control_c, 0, 64, 17
2, 167539, Note_on_c, 0, 62, 0
2, 167549, Note_on_c, 0, 61, 70
2, 167581, Note_on_c, 0, 69, 88
2, 167616, Note_on_c, 0, 61, 0
2, 167620, Note_on_c, 0, 62, 64
2, 167689, Note_on_c, 0, 61, 52
2, 167702, Note_on_c, 0, 62, 0
2, 167739, Note_on_c, 0, 69, 0
2, 167784, Note_on_c, 0, 61, 0
2, 167793, Note_on_c, 0, 59, 76
2, 167833, Note_on_c, 0, 57, 0
2, 167888, Note_on_c, 0, 61, 77
2, 167909, Note_on_c, 0, 59, 0
2, 167963, Control_c, 0, 64, 15
2, 168023, Note_on_c, 0, 62, 64
2, 168042, Note_on_c, 0, 61, 0
2, 168046, Note_on_c, 0, 66, 79
2, 168078, Control_c, 0, 64, 13
2, 168210, Note_on_c, 0, 62, 0
2, 168251, Control_c, 0, 64, 11
2, 168499, Note_on_c, 0, 50, 61
2, 168601, Note_on_c, 0, 66, 0
2, 168654, Note_on_c, 0, 50, 0
2, 168745, Note_on_c, 0, 66, 63
2, 168845, Note_on_c, 0, 68, 57
2, 168848, Note_on_c, 0, 66, 0
2, 168925, Control_c, 0, 64, 9
2, 168930, Note_on_c, 0, 68, 0
2, 168941, Note_on_c, 0, 69, 62
2, 168956, Note_on_c, 0, 47, 37
2, 168983, Control_c, 0, 64, 0
2, 169029, Note_on_c, 0, 69, 0
2, 169057, Note_on_c, 0, 68, 62
2, 169110, Note_on_c, 0, 68, 0
2, 169144, Note_on_c, 0, 69, 64
2, 169179, Note_on_c, 0, 47, 0
2, 169219, Note_on_c, 0, 69, 0
2, 169236, Note_on_c, 0, 68, 68
2, 169278, Note_on_c, 0, 68, 0
2, 169298, Note_on_c, 0, 69, 68
2, 169359, Note_on_c, 0, 69, 0
2, 169375, Note_on_c, 0, 68, 73
2, 169401, Note_on_c, 0, 52, 53
2, 169426, Note_on_c, 0, 68, 0
2, 169450, Note_on_c, 0, 69, 60
2, 169473, Note_on_c, 0, 52, 0
2, 169496, Note_on_c, 0, 69, 0
2, 169500, Note_on_c, 0, 68, 62
2, 169572, Note_on_c, 0, 68, 0
2, 169593, Note_on_c, 0, 66, 63
2, 169674, Note_on_c, 0, 68, 71
2, 169677, Note_on_c, 0, 66, 0
2, 169784, Note_on_c, 0, 68, 0
2, 169804, Note_on_c, 0, 69, 65
2, 169823, Note_on_c, 0, 48, 51
2, 170001, Note_on_c, 0, 69, 0
2, 170022, Note_on_c, 0, 71, 66
2, 170109, Note_on_c, 0, 72, 75
2, 170115, Note_on_c, 0, 71, 0
2, 170175, Note_on_c, 0, 72, 0
2, 170213, Note_on_c, 0, 74, 76
2, 170229, Note_on_c, 0, 45, 50
2, 170251, Control_c, 0, 64, 9
2, 170289, Note_on_c, 0, 48, 0
2, 170319, Note_on_c, 0, 76, 77
2, 170327, Note_on_c, 0, 74, 0
2, 170334, Note_on_c, 0, 45, 0
2, 170385, Control_c, 0, 64, 11
2, 170423, Control_c, 0, 64, 13
2, 170428, Note_on_c, 0, 78, 73
2, 170443, Control_c, 0, 64, 15
2, 170455, Note_on_c, 0, 76, 0
2, 170463, Control_c, 0, 64, 17
2, 170481, Control_c, 0, 64, 18
2, 170501, Control_c, 0, 64, 19
2, 170520, Control_c, 0, 64, 20
2, 170536, Note_on_c, 0, 80, 75
2, 170540, Control_c, 0, 64, 21
2, 170558, Control_c, 0, 64, 23
2, 170573, Note_on_c, 0, 78, 0
2, 170578, Control_c, 0, 64, 27
2, 170597, Control_c, 0, 64, 32
2, 170616, Control_c, 0, 64, 39
2, 170635, Control_c, 0, 64, 49
2, 170655, Control_c, 0, 64, 56
2, 170655, Note_on_c, 0, 42, 45
2, 170674, Control_c, 0, 64, 61
2, 170684, Note_on_c, 0, 81, 80
2, 170693, Control_c, 0, 64, 64
2, 170712, Control_c, 0, 64, 67
2, 170712, Note_on_c, 0, 80, 0
2, 170732, Control_c, 0, 64, 70
2, 170750, Control_c, 0, 64, 78
2, 170770, Control_c, 0, 64, 92
2, 170789, Control_c, 0, 64, 115
2, 170809, Control_c, 0, 64, 127
2, 170911, Note_on_c, 0, 72, 82
2, 171106, Note_on_c, 0, 42, 0
2, 171133, Note_on_c, 0, 71, 88
2, 171144, Note_on_c, 0, 72, 0
2, 171147, Note_on_c, 0, 51, 58
2, 171202, Note_on_c, 0, 51, 0
2, 171309, Note_on_c, 0, 81, 0
2, 171350, Note_on_c, 0, 78, 88
2, 171453, Note_on_c, 0, 71, 0
2, 171518, Control_c, 0, 64, 118
2, 171538, Control_c, 0, 64, 72
2, 171557, Control_c, 0, 64, 0
2, 171592, Note_on_c, 0, 79, 99
2, 171602, Note_on_c, 0, 40, 61
2, 171602, Note_on_c, 0, 78, 0
2, 171672, Control_c, 0, 64, 43
2, 171692, Control_c, 0, 64, 62
2, 171710, Control_c, 0, 64, 68
2, 171730, Control_c, 0, 64, 79
2, 171749, Control_c, 0, 64, 127
2, 171786, Note_on_c, 0, 40, 0
2, 171831, Note_on_c, 0, 71, 75
2, 172000, Note_on_c, 0, 79, 0
2, 172014, Note_on_c, 0, 71, 0
2, 172058, Note_on_c, 0, 76, 85
2, 172151, Note_on_c, 0, 74, 83
2, 172178, Note_on_c, 0, 76, 0
2, 172238, Note_on_c, 0, 74, 0
2, 172251, Note_on_c, 0, 72, 84
2, 172348, Note_on_c, 0, 71, 87
2, 172353, Note_on_c, 0, 72, 0
2, 172392, Note_on_c, 0, 71, 0
2, 172459, Control_c, 0, 64, 109
2, 172477, Control_c, 0, 64, 68
2, 172490, Note_on_c, 0, 69, 60
2, 172490, Note_on_c, 0, 84, 103
2, 172497, Control_c, 0, 64, 0
2, 172593, Control_c, 0, 64, 28
2, 172612, Control_c, 0, 64, 61
2, 172631, Control_c, 0, 64, 67
2, 172651, Control_c, 0, 64, 74
2, 172670, Control_c, 0, 64, 90
2, 172689, Control_c, 0, 64, 127
2, 172847, Note_on_c, 0, 84, 0
2, 172857, Note_on_c, 0, 69, 0
2, 172910, Note_on_c, 0, 72, 73
2, 172960, Note_on_c, 0, 72, 0
2, 173020, Note_on_c, 0, 71, 70
2, 173098, Note_on_c, 0, 71, 0
2, 173105, Note_on_c, 0, 69, 76
2, 173176, Note_on_c, 0, 69, 0
2, 173219, Note_on_c, 0, 67, 73
2, 173260, Note_on_c, 0, 67, 0
2, 173284, Control_c, 0, 64, 97
2, 173303, Control_c, 0, 64, 70
2, 173320, Control_c, 0, 64, 47
2, 173324, Note_on_c, 0, 75, 79
2, 173327, Note_on_c, 0, 66, 77
2, 173340, Control_c, 0, 64, 0
2, 173435, Note_on_c, 0, 67, 71
2, 173437, Note_on_c, 0, 66, 0
2, 173552, Note_on_c, 0, 69, 68
2, 173569, Note_on_c, 0, 67, 0
2, 173776, Note_on_c, 0, 60, 56
2, 173810, Note_on_c, 0, 69, 0
2, 173815, Note_on_c, 0, 75, 0
2, 173860, Note_on_c, 0, 67, 67
2, 173888, Note_on_c, 0, 60, 0
2, 173959, Note_on_c, 0, 67, 0
2, 173965, Note_on_c, 0, 66, 73
2, 174071, Note_on_c, 0, 64, 70
2, 174080, Note_on_c, 0, 66, 0
2, 174171, Note_on_c, 0, 64, 0
2, 174179, Note_on_c, 0, 54, 67
2, 174182, Note_on_c, 0, 63, 77
2, 174283, Note_on_c, 0, 64, 76
2, 174297, Note_on_c, 0, 63, 0
2, 174312, Note_on_c, 0, 54, 0
2, 174396, Note_on_c, 0, 66, 76
2, 174439, Note_on_c, 0, 64, 0
2, 174642, Note_on_c, 0, 57, 84
2, 174696, Note_on_c, 0, 66, 0
2, 174736, Note_on_c, 0, 64, 72
2, 174760, Note_on_c, 0, 57, 0
2, 174844, Note_on_c, 0, 63, 77
2, 174867, Note_on_c, 0, 64, 0
2, 174947, Note_on_c, 0, 61, 80
2, 175023, Note_on_c, 0, 63, 0
2, 175070, Note_on_c, 0, 51, 74
2, 175074, Note_on_c, 0, 59, 92
2, 175101, Note_on_c, 0, 61, 0
2, 175132, Note_on_c, 0, 59, 0
2, 175532, Note_on_c, 0, 54, 66
2, 175543, Note_on_c, 0, 81, 92
2, 175588, Note_on_c, 0, 51, 0
2, 175715, Note_on_c, 0, 81, 0
2, 175721, Note_on_c, 0, 54, 0
2, 175755, Note_on_c, 0, 61, 61
2, 175849, Note_on_c, 0, 61, 0
2, 175849, Note_on_c, 0, 63, 74
2, 175974, Note_on_c, 0, 63, 0
2, 175983, Note_on_c, 0, 59, 53
2, 176001, Note_on_c, 0, 64, 59
2, 176014, Note_on_c, 0, 78, 91
2, 176132, Note_on_c, 0, 64, 0
2, 176155, Note_on_c, 0, 63, 67
2, 176162, Note_on_c, 0, 78, 0
2, 176215, Note_on_c, 0, 63, 0
2, 176248, Note_on_c, 0, 64, 71
2, 176289, Note_on_c, 0, 64, 0
2, 176326, Note_on_c, 0, 63, 67
2, 176364, Note_on_c, 0, 63, 0
2, 176377, Note_on_c, 0, 64, 77
2, 176426, Note_on_c, 0, 59, 0
2, 176426, Note_on_c, 0, 59, 8
2, 176438, Note_on_c, 0, 64, 0
2, 176443, Note_on_c, 0, 63, 67
2, 176485, Note_on_c, 0, 83, 93
2, 176508, Note_on_c, 0, 64, 62
2, 176512, Note_on_c, 0, 63, 0
2, 176605, Note_on_c, 0, 64, 0
2, 176609, Note_on_c, 0, 63, 61
2, 176650, Note_on_c, 0, 83, 0
2, 176699, Note_on_c, 0, 61, 69
2, 176703, Note_on_c, 0, 63, 0
2, 176706, Note_on_c, 0, 59, 0
2, 176740, Control_c, 0, 64, 22
2, 176759, Control_c, 0, 64, 29
2, 176779, Control_c, 0, 64, 33
2, 176795, Note_on_c, 0, 63, 74
2, 176797, Control_c, 0, 64, 35
2, 176816, Note_on_c, 0, 61, 0
2, 176817, Control_c, 0, 64, 36
2, 176836, Control_c, 0, 64, 36
2, 176855, Control_c, 0, 64, 37
2, 176864, Note_on_c, 0, 63, 0
2, 176874, Control_c, 0, 64, 38
2, 176929, Note_on_c, 0, 64, 67
2, 176945, Note_on_c, 0, 79, 85
2, 176949, Note_on_c, 0, 52, 50
2, 177140, Note_on_c, 0, 64, 0
2, 177172, Note_on_c, 0, 79, 0
2, 177301, Note_on_c, 0, 52, 0
2, 177425, Note_on_c, 0, 76, 76
2, 177530, Note_on_c, 0, 40, 76
2, 177602, Note_on_c, 0, 76, 0
2, 177604, Control_c, 0, 64, 36
2, 177623, Control_c, 0, 64, 34
2, 177624, Note_on_c, 0, 40, 0
2, 177635, Note_on_c, 0, 41, 69
2, 177642, Control_c, 0, 64, 33
2, 177662, Control_c, 0, 64, 32
2, 177680, Control_c, 0, 64, 31
2, 177700, Control_c, 0, 64, 29
2, 177719, Control_c, 0, 64, 24
2, 177724, Note_on_c, 0, 41, 0
2, 177732, Note_on_c, 0, 43, 69
2, 177739, Control_c, 0, 64, 21
2, 177757, Control_c, 0, 64, 19
2, 177777, Control_c, 0, 64, 15
2, 177796, Control_c, 0, 64, 0
2, 177831, Note_on_c, 0, 43, 0
2, 177868, Note_on_c, 0, 45, 55
2, 177874, Note_on_c, 0, 73, 65
2, 178103, Note_on_c, 0, 45, 0
2, 178154, Note_on_c, 0, 73, 0
2, 178330, Note_on_c, 0, 81, 61
2, 178429, Note_on_c, 0, 43, 50
2, 178448, Control_c, 0, 64, 9
2, 178467, Control_c, 0, 64, 13
2, 178486, Control_c, 0, 64, 18
2, 178505, Control_c, 0, 64, 20
2, 178511, Note_on_c, 0, 43, 0
2, 178524, Control_c, 0, 64, 21
2, 178539, Note_on_c, 0, 41, 56
2, 178544, Control_c, 0, 64, 22
2, 178552, Note_on_c, 0, 81, 0
2, 178563, Control_c, 0, 64, 23
2, 178582, Control_c, 0, 64, 24
2, 178601, Control_c, 0, 64, 26
2, 178605, Note_on_c, 0, 41, 0
2, 178628, Note_on_c, 0, 40, 55
2, 178640, Control_c, 0, 64, 27
2, 178698, Control_c, 0, 64, 27
2, 178716, Control_c, 0, 64, 28
2, 178739, Note_on_c, 0, 40, 0
2, 178755, Control_c, 0, 64, 29
2, 178778, Note_on_c, 0, 38, 51
2, 178780, Note_on_c, 0, 77, 60
2, 178826, Note_on_c, 0, 38, 0
2, 179179, Control_c, 0, 64, 28
2, 179210, Note_on_c, 0, 62, 47
2, 179263, Note_on_c, 0, 62, 0
2, 179289, Note_on_c, 0, 77, 0
2, 179313, Control_c, 0, 64, 27
2, 179318, Note_on_c, 0, 74, 49
2, 179332, Control_c, 0, 64, 27
2, 179371, Control_c, 0, 64, 26
2, 179390, Control_c, 0, 64, 25
2, 179403, Note_on_c, 0, 74, 0
2, 179428, Control_c, 0, 64, 24
2, 179428, Note_on_c, 0, 76, 56
2, 179447, Control_c, 0, 64, 23
2, 179502, Note_on_c, 0, 76, 0
2, 179505, Control_c, 0, 64, 22
2, 179530, Note_on_c, 0, 77, 64
2, 179653, Note_on_c, 0, 77, 0
2, 179658, Note_on_c, 0, 59, 43
2, 179667, Note_on_c, 0, 79, 61
2, 179718, Note_on_c, 0, 59, 0
2, 180140, Note_on_c, 0, 67, 39
2, 180176, Note_on_c, 0, 67, 0
2, 180231, Note_on_c, 0, 77, 52
2, 180234, Note_on_c, 0, 79, 0
2, 180356, Note_on_c, 0, 76, 59
2, 180364, Note_on_c, 0, 77, 0
2, 180444, Note_on_c, 0, 74, 60
2, 180451, Note_on_c, 0, 76, 0
2, 180535, Note_on_c, 0, 74, 0
2, 180559, Note_on_c, 0, 64, 43
2, 180571, Note_on_c, 0, 72, 59
2, 180600, Note_on_c, 0, 64, 0
2, 181031, Note_on_c, 0, 57, 45
2, 181084, Note_on_c, 0, 57, 0
2, 181091, Note_on_c, 0, 72, 0
2, 181129, Note_on_c, 0, 76, 52
2, 181209, Note_on_c, 0, 76, 0
2, 181230, Note_on_c, 0, 77, 58
2, 181280, Note_on_c, 0, 77, 0
2, 181331, Note_on_c, 0, 79, 64
2, 181451, Note_on_c, 0, 79, 0
2, 181455, Note_on_c, 0, 81, 61
2, 181462, Note_on_c, 0, 53, 49
2, 181530, Note_on_c, 0, 53, 0
2, 181536, Note_on_c, 0, 81, 0
2, 181562, Note_on_c, 0, 82, 65
2, 181671, Note_on_c, 0, 81, 68
2, 181693, Note_on_c, 0, 82, 0
2, 181760, Note_on_c, 0, 79, 75
2, 181777, Note_on_c, 0, 81, 0
2, 181852, Note_on_c, 0, 79, 0
2, 181872, Note_on_c, 0, 62, 57
2, 181876, Note_on_c, 0, 77, 67
2, 181951, Note_on_c, 0, 62, 0
2, 181975, Note_on_c, 0, 76, 74
2, 181984, Note_on_c, 0, 77, 0
2, 182079, Note_on_c, 0, 74, 72
2, 182086, Note_on_c, 0, 76, 0
2, 182159, Note_on_c, 0, 74, 0
2, 182177, Note_on_c, 0, 72, 75
2, 182281, Note_on_c, 0, 71, 76
2, 182283, Note_on_c, 0, 72, 0
2, 182284, Note_on_c, 0, 56, 62
2, 182357, Note_on_c, 0, 56, 0
2, 182381, Note_on_c, 0, 71, 0
2, 182390, Note_on_c, 0, 72, 80
2, 182496, Note_on_c, 0, 71, 73
2, 182517, Note_on_c, 0, 72, 0
2, 182569, Note_on_c, 0, 71, 0
2, 182576, Control_c, 0, 64, 23
2, 182592, Note_on_c, 0, 69, 73
2, 182595, Control_c, 0, 64, 24
2, 182633, Control_c, 0, 64, 25
2, 182653, Control_c, 0, 64, 26
2, 182672, Control_c, 0, 64, 27
2, 182691, Control_c, 0, 64, 27
2, 182701, Note_on_c, 0, 68, 79
2, 182704, Note_on_c, 0, 69, 0
2, 182710, Control_c, 0, 64, 28
2, 182711, Note_on_c, 0, 52, 71
2, 182791, Note_on_c, 0, 52, 0
2, 182797, Note_on_c, 0, 66, 74
2, 182815, Note_on_c, 0, 68, 0
2, 182883, Note_on_c, 0, 66, 0
2, 182913, Note_on_c, 0, 64, 75
2, 182966, Note_on_c, 0, 64, 0
2, 183010, Note_on_c, 0, 62, 79
2, 183102, Note_on_c, 0, 62, 0
2, 183113, Control_c, 0, 64, 29
2, 183122, Note_on_c, 0, 60, 79
2, 183130, Note_on_c, 0, 57, 71
2, 183190, Control_c, 0, 64, 29
2, 183210, Control_c, 0, 64, 30
2, 183225, Note_on_c, 0, 60, 0
2, 183229, Control_c, 0, 64, 31
2, 183232, Note_on_c, 0, 64, 84
2, 183331, Note_on_c, 0, 65, 79
2, 183332, Note_on_c, 0, 64, 0
2, 183395, Note_on_c, 0, 65, 0
2, 183432, Note_on_c, 0, 67, 76
2, 183516, Control_c, 0, 64, 30
2, 183537, Note_on_c, 0, 72, 88
2, 183547, Note_on_c, 0, 67, 0
2, 183549, Note_on_c, 0, 69, 83
2, 183555, Control_c, 0, 64, 29
2, 183575, Control_c, 0, 64, 29
2, 183593, Control_c, 0, 64, 28
2, 183613, Control_c, 0, 64, 27
2, 183632, Control_c, 0, 64, 27
2, 183637, Note_on_c, 0, 69, 0
2, 183651, Control_c, 0, 64, 26
2, 183652, Note_on_c, 0, 67, 74
2, 183660, Note_on_c, 0, 72, 0
2, 183670, Control_c, 0, 64, 24
2, 183690, Control_c, 0, 64, 23
2, 183709, Control_c, 0, 64, 21
2, 183727, Control_c, 0, 64, 20
2, 183739, Note_on_c, 0, 57, 0
2, 183747, Control_c, 0, 64, 19
2, 183752, Note_on_c, 0, 65, 81
2, 183764, Note_on_c, 0, 67, 0
2, 183766, Control_c, 0, 64, 18
2, 183785, Control_c, 0, 64, 15
2, 183804, Control_c, 0, 64, 13
2, 183824, Control_c, 0, 64, 11
2, 183843, Control_c, 0, 64, 9
2, 183847, Note_on_c, 0, 64, 79
2, 183852, Note_on_c, 0, 65, 0
2, 183882, Control_c, 0, 64, 0
2, 183946, Note_on_c, 0, 64, 0
2, 183961, Note_on_c, 0, 71, 85
2, 183964, Note_on_c, 0, 62, 75
2, 184058, Note_on_c, 0, 57, 67
2, 184108, Note_on_c, 0, 71, 0
2, 184115, Note_on_c, 0, 62, 0
2, 184149, Note_on_c, 0, 57, 0
2, 184162, Note_on_c, 0, 59, 67
2, 184247, Note_on_c, 0, 59, 0
2, 184256, Note_on_c, 0, 60, 68
2, 184345, Note_on_c, 0, 60, 0
2, 184371, Note_on_c, 0, 62, 63
2, 184398, Note_on_c, 0, 65, 76
2, 184470, Note_on_c, 0, 62, 0
2, 184477, Control_c, 0, 64, 11
2, 184488, Note_on_c, 0, 60, 61
2, 184497, Control_c, 0, 64, 13
2, 184516, Control_c, 0, 64, 15
2, 184535, Control_c, 0, 64, 17
2, 184554, Control_c, 0, 64, 18
2, 184565, Note_on_c, 0, 65, 0
2, 184573, Note_on_c, 0, 60, 0
2, 184576, Note_on_c, 0, 59, 74
2, 184593, Control_c, 0, 64, 20
2, 184612, Control_c, 0, 64, 21
2, 184625, Note_on_c, 0, 59, 0
2, 184631, Control_c, 0, 64, 22
2, 184651, Control_c, 0, 64, 23
2, 184669, Note_on_c, 0, 57, 77
2, 184791, Note_on_c, 0, 56, 69
2, 184792, Note_on_c, 0, 57, 0
2, 184804, Control_c, 0, 64, 24
2, 184814, Note_on_c, 0, 59, 89
2, 184842, Control_c, 0, 64, 25
2, 184862, Control_c, 0, 64, 26
2, 184880, Control_c, 0, 64, 27
2, 184900, Control_c, 0, 64, 28
2, 184905, Note_on_c, 0, 56, 0
2, 184919, Control_c, 0, 64, 29
2, 184930, Note_on_c, 0, 57, 76
2, 184939, Control_c, 0, 64, 31
2, 184957, Control_c, 0, 64, 32
2, 184977, Control_c, 0, 64, 33
2, 184985, Note_on_c, 0, 59, 0
2, 184996, Control_c, 0, 64, 34
2, 185015, Control_c, 0, 64, 34
2, 185034, Control_c, 0, 64, 35
2, 185034, Note_on_c, 0, 56, 83
2, 185036, Note_on_c, 0, 57, 0
2, 185054, Control_c, 0, 64, 35
2, 185073, Control_c, 0, 64, 36
2, 185127, Note_on_c, 0, 54, 76
2, 185150, Note_on_c, 0, 56, 0
2, 185213, Note_on_c, 0, 54, 0
2, 185225, Note_on_c, 0, 62, 90
2, 185252, Note_on_c, 0, 52, 80
2, 185355, Note_on_c, 0, 52, 0
2, 185356, Note_on_c, 0, 50, 80
2, 185412, Note_on_c, 0, 62, 0
2, 185443, Note_on_c, 0, 48, 78
2, 185465, Note_on_c, 0, 50, 0
2, 185545, Note_on_c, 0, 47, 76
2, 185574, Note_on_c, 0, 48, 0
2, 185591, Control_c, 0, 64, 35
2, 185611, Control_c, 0, 64, 34
2, 185630, Control_c, 0, 64, 34
2, 185648, Control_c, 0, 64, 33
2, 185684, Note_on_c, 0, 47, 0
2, 185692, Note_on_c, 0, 45, 73
2, 185707, Note_on_c, 0, 60, 91
2, 185725, Control_c, 0, 64, 34
2, 185748, Control_c, 0, 64, 41
2, 185767, Control_c, 0, 64, 53
2, 185786, Control_c, 0, 64, 60
2, 185805, Control_c, 0, 64, 63
2, 185825, Control_c, 0, 64, 65
2, 185843, Control_c, 0, 64, 69
2, 185863, Control_c, 0, 64, 74
2, 185882, Control_c, 0, 64, 82
2, 185893, Note_on_c, 0, 45, 0
2, 185902, Control_c, 0, 64, 90
2, 185920, Control_c, 0, 64, 92
2, 185932, Note_on_c, 0, 64, 89
2, 185951, Note_on_c, 0, 60, 0
2, 186093, Control_c, 0, 64, 91
2, 186113, Control_c, 0, 64, 88
2, 186131, Control_c, 0, 64, 78
2, 186151, Control_c, 0, 64, 66
2, 186170, Control_c, 0, 64, 34
2, 186175, Note_on_c, 0, 69, 98
2, 186181, Note_on_c, 0, 57, 69
2, 186189, Control_c, 0, 64, 0
2, 186199, Note_on_c, 0, 64, 0
2, 186276, Note_on_c, 0, 57, 0
2, 186278, Note_on_c, 0, 55, 73
2, 186371, Note_on_c, 0, 53, 78
2, 186383, Note_on_c, 0, 55, 0
2, 186473, Note_on_c, 0, 52, 74
2, 186488, Note_on_c, 0, 53, 0
2, 186601, Note_on_c, 0, 52, 0
2, 186609, Note_on_c, 0, 50, 77
2, 186631, Note_on_c, 0, 65, 87
2, 186635, Note_on_c, 0, 69, 0
2, 186848, Note_on_c, 0, 50, 0
2, 186851, Note_on_c, 0, 57, 82
2, 186871, Note_on_c, 0, 65, 0
2, 187083, Note_on_c, 0, 62, 81
2, 187091, Note_on_c, 0, 53, 73
2, 187113, Note_on_c, 0, 57, 0
2, 187174, Note_on_c, 0, 53, 0
2, 187191, Note_on_c, 0, 52, 70
2, 187282, Note_on_c, 0, 50, 74
2, 187286, Note_on_c, 0, 52, 0
2, 187302, Note_on_c, 0, 62, 0
2, 187384, Note_on_c, 0, 48, 60
2, 187409, Note_on_c, 0, 50, 0
2, 187484, Note_on_c, 0, 48, 0
2, 187508, Note_on_c, 0, 47, 52
2, 187532, Note_on_c, 0, 56, 80
2, 187605, Note_on_c, 0, 47, 0
2, 187633, Note_on_c, 0, 48, 61
2, 187672, Note_on_c, 0, 56, 0
2, 187753, Note_on_c, 0, 50, 58
2, 187755, Note_on_c, 0, 48, 0
2, 188024, Note_on_c, 0, 77, 64
2, 188044, Note_on_c, 0, 50, 0
2, 188103, Note_on_c, 0, 48, 52
2, 188190, Note_on_c, 0, 48, 0
2, 188212, Note_on_c, 0, 47, 63
2, 188228, Note_on_c, 0, 77, 0
2, 188306, Note_on_c, 0, 47, 0
2, 188307, Note_on_c, 0, 45, 67
2, 188415, Note_on_c, 0, 45, 0
2, 188440, Note_on_c, 0, 44, 54
2, 188459, Note_on_c, 0, 71, 76
2, 188571, Note_on_c, 0, 44, 0
2, 188572, Note_on_c, 0, 45, 57
2, 188635, Note_on_c, 0, 71, 0
2, 188663, Note_on_c, 0, 45, 0
2, 188697, Note_on_c, 0, 47, 55
2, 188946, Note_on_c, 0, 74, 63
2, 189030, Note_on_c, 0, 47, 0
2, 189056, Note_on_c, 0, 45, 55
2, 189077, Note_on_c, 0, 74, 0
2, 189145, Note_on_c, 0, 44, 62
2, 189160, Note_on_c, 0, 45, 0
2, 189248, Note_on_c, 0, 44, 0
2, 189252, Note_on_c, 0, 42, 60
2, 189383, Note_on_c, 0, 42, 0
2, 189397, Note_on_c, 0, 40, 44
2, 189409, Note_on_c, 0, 68, 70
2, 189574, Note_on_c, 0, 68, 0
2, 189872, Note_on_c, 0, 62, 83
2, 190064, Note_on_c, 0, 62, 0
2, 190104, Note_on_c, 0, 42, 69
2, 190133, Note_on_c, 0, 40, 0
2, 190203, Note_on_c, 0, 44, 74
2, 190226, Note_on_c, 0, 42, 0
2, 190322, Note_on_c, 0, 71, 90
2, 190329, Note_on_c, 0, 59, 87
2, 190338, Note_on_c, 0, 44, 0
2, 190346, Note_on_c, 0, 45, 55
2, 190461, Note_on_c, 0, 45, 0
2, 190468, Note_on_c, 0, 44, 68
2, 190474, Note_on_c, 0, 59, 0
2, 190509, Note_on_c, 0, 71, 0
2, 190528, Note_on_c, 0, 44, 0
2, 190547, Note_on_c, 0, 45, 72
2, 190632, Note_on_c, 0, 45, 0
2, 190633, Note_on_c, 0, 44, 78
2, 190695, Note_on_c, 0, 44, 0
2, 190703, Note_on_c, 0, 45, 65
2, 190762, Note_on_c, 0, 44, 64
2, 190764, Note_on_c, 0, 45, 0
2, 190794, Note_on_c, 0, 64, 88
2, 190840, Note_on_c, 0, 45, 71
2, 190844, Note_on_c, 0, 44, 0
2, 190932, Note_on_c, 0, 44, 58
2, 190947, Note_on_c, 0, 45, 0
2, 190949, Note_on_c, 0, 64, 0
2, 191003, Control_c, 0, 64, 11
2, 191014, Note_on_c, 0, 44, 0
2, 191017, Note_on_c, 0, 42, 71
2, 191022, Control_c, 0, 64, 18
2, 191042, Control_c, 0, 64, 19
2, 191060, Control_c, 0, 64, 20
2, 191113, Note_on_c, 0, 44, 79
2, 191151, Note_on_c, 0, 42, 0
2, 191236, Control_c, 0, 64, 23
2, 191255, Control_c, 0, 64, 37
2, 191256, Note_on_c, 0, 60, 93
2, 191260, Note_on_c, 0, 45, 67
2, 191274, Control_c, 0, 64, 55
2, 191282, Note_on_c, 0, 44, 0
2, 191294, Control_c, 0, 64, 62
2, 191313, Control_c, 0, 64, 66
2, 191332, Control_c, 0, 64, 70
2, 191351, Control_c, 0, 64, 80
2, 191371, Control_c, 0, 64, 97
2, 191384, Note_on_c, 0, 60, 0
2, 191390, Control_c, 0, 64, 127
2, 191695, Control_c, 0, 64, 83
2, 191699, Note_on_c, 0, 76, 85
2, 191714, Control_c, 0, 64, 67
2, 191734, Control_c, 0, 64, 56
2, 191752, Control_c, 0, 64, 37
2, 191772, Control_c, 0, 64, 11
2, 191791, Control_c, 0, 64, 0
2, 191803, Note_on_c, 0, 74, 82
2, 191842, Note_on_c, 0, 76, 0
2, 191901, Note_on_c, 0, 72, 92
2, 191909, Note_on_c, 0, 47, 60
2, 191910, Note_on_c, 0, 45, 0
2, 191959, Note_on_c, 0, 74, 0
2, 192005, Note_on_c, 0, 47, 0
2, 192005, Note_on_c, 0, 71, 90
2, 192015, Note_on_c, 0, 48, 70
2, 192039, Note_on_c, 0, 72, 0
2, 192120, Note_on_c, 0, 69, 96
2, 192123, Note_on_c, 0, 49, 73
2, 192135, Note_on_c, 0, 71, 0
2, 192141, Note_on_c, 0, 48, 0
2, 192197, Note_on_c, 0, 49, 0
2, 192245, Note_on_c, 0, 50, 77
2, 192335, Note_on_c, 0, 73, 88
2, 192356, Note_on_c, 0, 49, 71
2, 192357, Note_on_c, 0, 50, 0
2, 192440, Note_on_c, 0, 49, 0
2, 192448, Note_on_c, 0, 76, 87
2, 192455, Note_on_c, 0, 50, 76
2, 192488, Note_on_c, 0, 73, 0
2, 192546, Note_on_c, 0, 50, 0
2, 192559, Note_on_c, 0, 49, 75
2, 192576, Note_on_c, 0, 79, 95
2, 192613, Note_on_c, 0, 76, 0
2, 192621, Note_on_c, 0, 77, 41
2, 192653, Note_on_c, 0, 77, 0
2, 192664, Note_on_c, 0, 49, 0
2, 192670, Note_on_c, 0, 50, 76
2, 192785, Note_on_c, 0, 50, 0
2, 192792, Note_on_c, 0, 47, 71
2, 192901, Note_on_c, 0, 49, 80
2, 192934, Note_on_c, 0, 47, 0
2, 193048, Note_on_c, 0, 49, 0
2, 193052, Note_on_c, 0, 77, 80
2, 193074, Note_on_c, 0, 50, 60
2, 193105, Note_on_c, 0, 79, 0
2, 193196, Note_on_c, 0, 69, 0
2, 193440, Note_on_c, 0, 77, 0
2, 193488, Note_on_c, 0, 69, 49
2, 193538, Note_on_c, 0, 69, 0
2, 193596, Note_on_c, 0, 67, 58
2, 193656, Note_on_c, 0, 67, 0
2, 193667, Note_on_c, 0, 50, 0
2, 193687, Note_on_c, 0, 52, 37
2, 193698, Note_on_c, 0, 65, 53
2, 193753, Note_on_c, 0, 65, 0
2, 193754, Note_on_c, 0, 52, 0
2, 193785, Note_on_c, 0, 53, 44
2, 193787, Note_on_c, 0, 64, 60
2, 193855, Note_on_c, 0, 64, 0
2, 193871, Note_on_c, 0, 53, 0
2, 193895, Note_on_c, 0, 54, 55
2, 193906, Note_on_c, 0, 62, 54
2, 193962, Note_on_c, 0, 54, 0
2, 194030, Note_on_c, 0, 55, 51
2, 194102, Note_on_c, 0, 55, 0
2, 194103, Note_on_c, 0, 62, 0
2, 194115, Note_on_c, 0, 66, 55
2, 194125, Note_on_c, 0, 54, 49
2, 194193, Note_on_c, 0, 54, 0
2, 194196, Note_on_c, 0, 66, 0
2, 194204, Note_on_c, 0, 69, 62
2, 194239, Note_on_c, 0, 55, 53
2, 194296, Note_on_c, 0, 69, 0
2, 194296, Note_on_c, 0, 72, 69
2, 194301, Note_on_c, 0, 55, 0
2, 194331, Note_on_c, 0, 54, 49
2, 194390, Note_on_c, 0, 54, 0
2, 194417, Note_on_c, 0, 55, 61
2, 194494, Note_on_c, 0, 55, 0
2, 194527, Note_on_c, 0, 52, 55
2, 194628, Note_on_c, 0, 54, 66
2, 194632, Note_on_c, 0, 52, 0
2, 194713, Note_on_c, 0, 72, 0
2, 194729, Note_on_c, 0, 54, 0
2, 194756, Note_on_c, 0, 71, 71
2, 194768, Note_on_c, 0, 55, 46
2, 194969, Note_on_c, 0, 74, 82
2, 194975, Note_on_c, 0, 71, 0
2, 195060, Note_on_c, 0, 72, 91
2, 195092, Note_on_c, 0, 74, 0
2, 195166, Note_on_c, 0, 71, 96
2, 195192, Note_on_c, 0, 72, 0
2, 195286, Control_c, 0, 64, 11
2, 195394, Note_on_c, 0, 72, 93
2, 195401, Control_c, 0, 64, 9
2, 195402, Note_on_c, 0, 55, 0
2, 195410, Note_on_c, 0, 71, 0
2, 195416, Note_on_c, 0, 57, 57
2, 195421, Control_c, 0, 64, 0
2, 195486, Note_on_c, 0, 57, 0
2, 195489, Note_on_c, 0, 74, 87
2, 195497, Note_on_c, 0, 59, 70
2, 195515, Note_on_c, 0, 72, 0
2, 195600, Note_on_c, 0, 59, 0
2, 195606, Note_on_c, 0, 67, 92
2, 195616, Note_on_c, 0, 60, 69
2, 195646, Note_on_c, 0, 74, 0
2, 195724, Note_on_c, 0, 60, 0
2, 195735, Note_on_c, 0, 59, 72
2, 195785, Note_on_c, 0, 59, 0
2, 195831, Note_on_c, 0, 60, 62
2, 195886, Note_on_c, 0, 60, 0
2, 195905, Note_on_c, 0, 59, 72
2, 195954, Note_on_c, 0, 59, 0
2, 195984, Note_on_c, 0, 60, 69
2, 196022, Note_on_c, 0, 60, 0
2, 196035, Note_on_c, 0, 59, 64
2, 196070, Note_on_c, 0, 77, 96
2, 196094, Note_on_c, 0, 59, 0
2, 196109, Note_on_c, 0, 60, 68
2, 196202, Note_on_c, 0, 60, 0
2, 196209, Note_on_c, 0, 59, 60
2, 196277, Note_on_c, 0, 59, 0
2, 196298, Note_on_c, 0, 57, 72
2, 196400, Note_on_c, 0, 57, 0
2, 196402, Note_on_c, 0, 59, 81
2, 196534, Note_on_c, 0, 59, 0
2, 196548, Note_on_c, 0, 76, 77
2, 196558, Note_on_c, 0, 60, 55
2, 196559, Note_on_c, 0, 77, 0
2, 196584, Note_on_c, 0, 67, 0
2, 196727, Note_on_c, 0, 76, 0
2, 196778, Note_on_c, 0, 67, 56
2, 196841, Note_on_c, 0, 67, 0
2, 196877, Note_on_c, 0, 65, 60
2, 196952, Note_on_c, 0, 65, 0
2, 197001, Note_on_c, 0, 64, 53
2, 197175, Note_on_c, 0, 64, 0
2, 197180, Note_on_c, 0, 60, 0
2, 197203, Note_on_c, 0, 65, 56
2, 197213, Note_on_c, 0, 62, 47
2, 197273, Note_on_c, 0, 65, 0
2, 197277, Note_on_c, 0, 62, 0
2, 197305, Note_on_c, 0, 67, 58
2, 197332, Note_on_c, 0, 64, 35
2, 197378, Note_on_c, 0, 64, 0
2, 197399, Note_on_c, 0, 67, 0
2, 197441, Note_on_c, 0, 60, 53
2, 197464, Note_on_c, 0, 65, 25
2, 197520, Note_on_c, 0, 65, 0
2, 197534, Note_on_c, 0, 64, 48
2, 197598, Note_on_c, 0, 64, 0
2, 197656, Note_on_c, 0, 65, 47
2, 197696, Note_on_c, 0, 65, 0
2, 197712, Note_on_c, 0, 64, 44
2, 197756, Note_on_c, 0, 64, 0
2, 197793, Note_on_c, 0, 60, 0
2, 197797, Note_on_c, 0, 65, 56
2, 197839, Note_on_c, 0, 70, 63
2, 197845, Note_on_c, 0, 65, 0
2, 197880, Note_on_c, 0, 64, 53
2, 197976, Note_on_c, 0, 64, 0
2, 198028, Note_on_c, 0, 62, 44
2, 198115, Note_on_c, 0, 62, 0
2, 198135, Note_on_c, 0, 64, 57
2, 198215, Note_on_c, 0, 64, 0
2, 198236, Note_on_c, 0, 70, 0
2, 198252, Note_on_c, 0, 69, 60
2, 198280, Note_on_c, 0, 65, 41
2, 198463, Note_on_c, 0, 69, 0
2, 198478, Note_on_c, 0, 71, 68
2, 198567, Note_on_c, 0, 71, 0
2, 198581, Note_on_c, 0, 73, 67
2, 198650, Note_on_c, 0, 73, 0
2, 198676, Note_on_c, 0, 74, 67
2, 198881, Note_on_c, 0, 65, 0
2, 198907, Note_on_c, 0, 67, 43
2, 198986, Note_on_c, 0, 67, 0
2, 199001, Note_on_c, 0, 69, 56
2, 199094, Note_on_c, 0, 69, 0
2, 199127, Note_on_c, 0, 81, 67
2, 199150, Note_on_c, 0, 70, 50
2, 199241, Note_on_c, 0, 70, 0
2, 199250, Note_on_c, 0, 69, 60
2, 199308, Note_on_c, 0, 69, 0
2, 199404, Note_on_c, 0, 70, 13
2, 199414, Note_on_c, 0, 70, 0
2, 199428, Note_on_c, 0, 69, 47
2, 199460, Note_on_c, 0, 69, 0
2, 199470, Note_on_c, 0, 70, 38
2, 199520, Note_on_c, 0, 70, 0
2, 199550, Note_on_c, 0, 73, 68
2, 199577, Note_on_c, 0, 69, 58
2, 199584, Note_on_c, 0, 74, 0
2, 199746, Note_on_c, 0, 69, 0
2, 199792, Note_on_c, 0, 67, 44
2, 199868, Note_on_c, 0, 67, 0
2, 199880, Note_on_c, 0, 69, 64
2, 199946, Note_on_c, 0, 69, 0
2, 200005, Note_on_c, 0, 81, 0
2, 200016, Note_on_c, 0, 77, 69
2, 200020, Note_on_c, 0, 70, 51
2, 200023, Note_on_c, 0, 73, 0
2, 200039, Note_on_c, 0, 74, 53
2, 200181, Note_on_c, 0, 70, 0
2, 200244, Note_on_c, 0, 58, 52
2, 200315, Note_on_c, 0, 58, 0
2, 200341, Note_on_c, 0, 60, 53
2, 200409, Note_on_c, 0, 60, 0
2, 200423, Note_on_c, 0, 74, 0
2, 200448, Note_on_c, 0, 62, 66
2, 200456, Note_on_c, 0, 77, 0
2, 200525, Note_on_c, 0, 62, 0
2, 200553, Note_on_c, 0, 60, 57
2, 200654, Note_on_c, 0, 60, 0
2, 200666, Note_on_c, 0, 58, 55
2, 200717, Note_on_c, 0, 58, 0
2, 200762, Note_on_c, 0, 57, 63
2, 200837, Note_on_c, 0, 57, 0
2, 200870, Note_on_c, 0, 82, 80
2, 200873, Note_on_c, 0, 55, 59
2, 200956, Note_on_c, 0, 55, 0
2, 200992, Note_on_c, 0, 53, 55
2, 201088, Note_on_c, 0, 53, 0
2, 201111, Note_on_c, 0, 82, 0
2, 201112, Note_on_c, 0, 55, 56
2, 201156, Note_on_c, 0, 55, 0
2, 201205, Note_on_c, 0, 57, 59
2, 201294, Note_on_c, 0, 57, 0
2, 201309, Note_on_c, 0, 58, 67
2, 201390, Note_on_c, 0, 58, 0
2, 201417, Note_on_c, 0, 57, 74
2, 201518, Note_on_c, 0, 57, 0
2, 201522, Note_on_c, 0, 55, 68
2, 201626, Note_on_c, 0, 55, 0
2, 201632, Note_on_c, 0, 53, 67
2, 201710, Note_on_c, 0, 73, 75
2, 201741, Note_on_c, 0, 53, 0
2, 201754, Note_on_c, 0, 52, 58
2, 201848, Note_on_c, 0, 53, 66
2, 201870, Note_on_c, 0, 52, 0
2, 201879, Note_on_c, 0, 73, 0
2, 201909, Control_c, 0, 64, 9
2, 201928, Control_c, 0, 64, 11
2, 201940, Note_on_c, 0, 55, 74
2, 201947, Note_on_c, 0, 53, 0
2, 201948, Control_c, 0, 64, 15
2, 201966, Control_c, 0, 64, 17
2, 202005, Control_c, 0, 64, 18
2, 202043, Control_c, 0, 64, 19
2, 202063, Control_c, 0, 64, 20
2, 202082, Control_c, 0, 64, 21
2, 202101, Control_c, 0, 64, 22
2, 202121, Control_c, 0, 64, 23
2, 202141, Control_c, 0, 64, 24
2, 202181, Note_on_c, 0, 70, 79
2, 202236, Control_c, 0, 64, 25
2, 202275, Control_c, 0, 64, 26
2, 202299, Note_on_c, 0, 55, 0
2, 202306, Note_on_c, 0, 53, 66
2, 202313, Control_c, 0, 64, 27
2, 202333, Control_c, 0, 64, 27
2, 202352, Control_c, 0, 64, 29
2, 202356, Note_on_c, 0, 70, 0
2, 202370, Control_c, 0, 64, 31
2, 202390, Control_c, 0, 64, 34
2, 202406, Note_on_c, 0, 52, 72
2, 202409, Control_c, 0, 64, 35
2, 202416, Note_on_c, 0, 53, 0
2, 202429, Control_c, 0, 64, 36
2, 202447, Control_c, 0, 64, 36
2, 202467, Control_c, 0, 64, 37
2, 202505, Control_c, 0, 64, 37
2, 202509, Note_on_c, 0, 52, 0
2, 202512, Note_on_c, 0, 50, 68
2, 202630, Note_on_c, 0, 64, 86
2, 202639, Note_on_c, 0, 49, 63
2, 202639, Note_on_c, 0, 50, 0
2, 202659, Control_c, 0, 64, 37
2, 202698, Control_c, 0, 64, 36
2, 202747, Note_on_c, 0, 49, 0
2, 202748, Note_on_c, 0, 50, 66
2, 202755, Control_c, 0, 64, 36
2, 202832, Control_c, 0, 64, 35
2, 202833, Note_on_c, 0, 64, 0
2, 202850, Note_on_c, 0, 52, 73
2, 202859, Note_on_c, 0, 50, 0
2, 202909, Control_c, 0, 64, 35
2, 202927, Control_c, 0, 64, 34
2, 202947, Control_c, 0, 64, 34
2, 202966, Control_c, 0, 64, 33
2, 203004, Control_c, 0, 64, 32
2, 203024, Control_c, 0, 64, 32
2, 203043, Control_c, 0, 64, 31
2, 203062, Control_c, 0, 64, 31
2, 203101, Control_c, 0, 64, 30
2, 203103, Note_on_c, 0, 67, 82
2, 203119, Control_c, 0, 64, 29
2, 203138, Control_c, 0, 64, 29
2, 203157, Control_c, 0, 64, 28
2, 203177, Control_c, 0, 64, 27
2, 203195, Control_c, 0, 64, 27
2, 203203, Note_on_c, 0, 50, 71
2, 203215, Control_c, 0, 64, 26
2, 203219, Note_on_c, 0, 52, 0
2, 203234, Control_c, 0, 64, 25
2, 203272, Control_c, 0, 64, 24
2, 203291, Control_c, 0, 64, 23
2, 203291, Note_on_c, 0, 67, 0
2, 203295, Note_on_c, 0, 49, 76
2, 203344, Note_on_c, 0, 50, 0
2, 203397, Note_on_c, 0, 47, 70
2, 203446, Note_on_c, 0, 49, 0
2, 203483, Control_c, 0, 64, 22
2, 203522, Control_c, 0, 64, 21
2, 203549, Note_on_c, 0, 45, 71
2, 203564, Note_on_c, 0, 61, 87
2, 203565, Note_on_c, 0, 47, 0
2, 203657, Control_c, 0, 64, 22
2, 203675, Control_c, 0, 64, 23
2, 203695, Control_c, 0, 64, 24
2, 203695, Note_on_c, 0, 61, 0
2, 203714, Control_c, 0, 64, 26
2, 203734, Control_c, 0, 64, 27
2, 203752, Control_c, 0, 64, 28
2, 203771, Control_c, 0, 64, 29
2, 203791, Control_c, 0, 64, 31
2, 203829, Control_c, 0, 64, 32
2, 203963, Control_c, 0, 64, 32
2, 204002, Control_c, 0, 64, 33
2, 204026, Note_on_c, 0, 79, 89
2, 204047, Note_on_c, 0, 76, 71
2, 204175, Control_c, 0, 64, 32
2, 204176, Note_on_c, 0, 77, 33
2, 204210, Note_on_c, 0, 77, 0
2, 204216, Note_on_c, 0, 76, 0
2, 204232, Control_c, 0, 64, 32
2, 204239, Note_on_c, 0, 79, 0
2, 204251, Control_c, 0, 64, 30
2, 204261, Note_on_c, 0, 47, 59
2, 204271, Control_c, 0, 64, 29
2, 204279, Note_on_c, 0, 45, 0
2, 204290, Control_c, 0, 64, 28
2, 204344, Note_on_c, 0, 49, 73
2, 204349, Note_on_c, 0, 47, 0
2, 204463, Control_c, 0, 64, 27
2, 204470, Note_on_c, 0, 49, 0
2, 204470, Note_on_c, 0, 50, 59
2, 204482, Control_c, 0, 64, 27
2, 204495, Note_on_c, 0, 76, 87
2, 204501, Control_c, 0, 64, 26
2, 204501, Note_on_c, 0, 69, 82
2, 204559, Control_c, 0, 64, 25
2, 204597, Control_c, 0, 64, 24
2, 204597, Note_on_c, 0, 50, 0
2, 204613, Note_on_c, 0, 49, 73
2, 204620, Note_on_c, 0, 69, 0
2, 204650, Note_on_c, 0, 76, 0
2, 204674, Control_c, 0, 64, 23
2, 204689, Note_on_c, 0, 49, 0
2, 204711, Note_on_c, 0, 50, 69
2, 204764, Note_on_c, 0, 50, 0
2, 204781, Note_on_c, 0, 49, 73
2, 204861, Note_on_c, 0, 49, 0
2, 204872, Note_on_c, 0, 50, 68
2, 204926, Note_on_c, 0, 50, 0
2, 204928, Note_on_c, 0, 49, 62
2, 204943, Control_c, 0, 64, 22
2, 204958, Note_on_c, 0, 81, 91
2, 205020, Note_on_c, 0, 50, 66
2, 205023, Note_on_c, 0, 49, 0
2, 205096, Control_c, 0, 64, 23
2, 205104, Note_on_c, 0, 49, 55
2, 205109, Note_on_c, 0, 50, 0
2, 205124, Note_on_c, 0, 81, 0
2, 205167, Note_on_c, 0, 49, 0
2, 205180, Note_on_c, 0, 47, 64
2, 205230, Control_c, 0, 64, 24
2, 205273, Note_on_c, 0, 49, 74
2, 205287, Control_c, 0, 64, 25
2, 205295, Note_on_c, 0, 47, 0
2, 205364, Note_on_c, 0, 49, 0
2, 205376, Note_on_c, 0, 50, 71
2, 205404, Note_on_c, 0, 77, 84
2, 205517, Note_on_c, 0, 52, 72
2, 205521, Note_on_c, 0, 50, 0
2, 205537, Control_c, 0, 64, 24
2, 205556, Control_c, 0, 64, 23
2, 205576, Control_c, 0, 64, 21
2, 205595, Control_c, 0, 64, 20
2, 205614, Control_c, 0, 64, 19
2, 205619, Note_on_c, 0, 77, 0
2, 205625, Note_on_c, 0, 53, 76
2, 205633, Control_c, 0, 64, 18
2, 205652, Control_c, 0, 64, 17
2, 205661, Note_on_c, 0, 52, 0
2, 205748, Control_c, 0, 64, 15
2, 205867, Note_on_c, 0, 74, 68
2, 205887, Note_on_c, 0, 69, 52
2, 205940, Control_c, 0, 64, 17
2, 205970, Note_on_c, 0, 53, 0
2, 205994, Note_on_c, 0, 74, 0
2, 206001, Note_on_c, 0, 52, 49
2, 206023, Note_on_c, 0, 69, 0
2, 206043, Note_on_c, 0, 52, 0
2, 206075, Control_c, 0, 64, 18
2, 206090, Note_on_c, 0, 50, 55
2, 206094, Control_c, 0, 64, 20
2, 206113, Control_c, 0, 64, 22
2, 206132, Control_c, 0, 64, 23
2, 206151, Control_c, 0, 64, 25
2, 206157, Note_on_c, 0, 50, 0
2, 206170, Control_c, 0, 64, 26
2, 206190, Control_c, 0, 64, 27
2, 206193, Note_on_c, 0, 48, 56
2, 206228, Control_c, 0, 64, 27
2, 206247, Control_c, 0, 64, 28
2, 206281, Note_on_c, 0, 48, 0
2, 206313, Note_on_c, 0, 47, 55
2, 206319, Note_on_c, 0, 62, 56
2, 206418, Note_on_c, 0, 47, 0
2, 206435, Note_on_c, 0, 48, 57
2, 206485, Note_on_c, 0, 62, 0
2, 206520, Note_on_c, 0, 48, 0
2, 206536, Control_c, 0, 64, 27
2, 206564, Note_on_c, 0, 50, 43
2, 206574, Control_c, 0, 64, 27
2, 206670, Control_c, 0, 64, 26
2, 206795, Note_on_c, 0, 65, 55
2, 206873, Note_on_c, 0, 50, 0
2, 206892, Note_on_c, 0, 48, 47
2, 206923, Note_on_c, 0, 65, 0
2, 206940, Control_c, 0, 64, 27
2, 206980, Note_on_c, 0, 48, 0
2, 206997, Control_c, 0, 64, 27
2, 207000, Note_on_c, 0, 47, 52
2, 207055, Control_c, 0, 64, 28
2, 207066, Note_on_c, 0, 47, 0
2, 207100, Note_on_c, 0, 45, 52
2, 207131, Control_c, 0, 64, 29
2, 207208, Control_c, 0, 64, 29
2, 207235, Note_on_c, 0, 45, 0
2, 207251, Note_on_c, 0, 59, 46
2, 207261, Note_on_c, 0, 43, 39
2, 207323, Control_c, 0, 64, 30
2, 207357, Note_on_c, 0, 59, 0
2, 207362, Control_c, 0, 64, 31
2, 207400, Control_c, 0, 64, 31
2, 207710, Note_on_c, 0, 77, 60
2, 207723, Note_on_c, 0, 74, 46
2, 207765, Control_c, 0, 64, 32
2, 207862, Note_on_c, 0, 74, 0
2, 207876, Note_on_c, 0, 77, 0
2, 207900, Control_c, 0, 64, 32
2, 207963, Note_on_c, 0, 43, 0
2, 207969, Note_on_c, 0, 45, 38
2, 207977, Control_c, 0, 64, 33
2, 208023, Note_on_c, 0, 45, 0
2, 208048, Note_on_c, 0, 47, 52
2, 208054, Control_c, 0, 64, 34
2, 208124, Note_on_c, 0, 47, 0
2, 208171, Note_on_c, 0, 48, 45
2, 208171, Note_on_c, 0, 74, 53
2, 208192, Note_on_c, 0, 67, 33
2, 208244, Note_on_c, 0, 48, 0
2, 208259, Note_on_c, 0, 67, 0
2, 208277, Note_on_c, 0, 47, 47
2, 208310, Note_on_c, 0, 74, 0
2, 208340, Note_on_c, 0, 47, 0
2, 208371, Note_on_c, 0, 48, 59
2, 208424, Note_on_c, 0, 48, 0
2, 208459, Note_on_c, 0, 47, 60
2, 208475, Control_c, 0, 64, 33
2, 208504, Note_on_c, 0, 47, 0
2, 208530, Note_on_c, 0, 48, 58
2, 208575, Note_on_c, 0, 48, 0
2, 208602, Note_on_c, 0, 47, 54
2, 208610, Control_c, 0, 64, 34
2, 208624, Note_on_c, 0, 79, 67
2, 208629, Control_c, 0, 64, 34
2, 208635, Note_on_c, 0, 47, 0
2, 208648, Control_c, 0, 64, 35
2, 208668, Control_c, 0, 64, 36
2, 208674, Note_on_c, 0, 48, 55
2, 208686, Control_c, 0, 64, 37
2, 208706, Control_c, 0, 64, 37
2, 208715, Note_on_c, 0, 48, 0
2, 208725, Control_c, 0, 64, 38
2, 208739, Note_on_c, 0, 47, 62
2, 208745, Control_c, 0, 64, 39
2, 208756, Note_on_c, 0, 79, 0
2, 208783, Control_c, 0, 64, 39
2, 208802, Control_c, 0, 64, 40
2, 208817, Note_on_c, 0, 47, 0
2, 208840, Control_c, 0, 64, 40
2, 208848, Note_on_c, 0, 45, 52
2, 208935, Note_on_c, 0, 45, 0
2, 208937, Control_c, 0, 64, 41
2, 208953, Note_on_c, 0, 47, 54
2, 209036, Note_on_c, 0, 47, 0
2, 209071, Control_c, 0, 64, 41
2, 209076, Note_on_c, 0, 48, 51
2, 209100, Note_on_c, 0, 76, 56
2, 209109, Control_c, 0, 64, 42
2, 209186, Control_c, 0, 64, 42
2, 209243, Control_c, 0, 64, 43
2, 209330, Note_on_c, 0, 48, 0
2, 209381, Note_on_c, 0, 76, 0
2, 209567, Note_on_c, 0, 72, 71
2, 209665, Note_on_c, 0, 60, 62
2, 209705, Note_on_c, 0, 72, 0
2, 209723, Control_c, 0, 64, 43
2, 209770, Note_on_c, 0, 60, 0
2, 209776, Note_on_c, 0, 62, 67
2, 209818, Control_c, 0, 64, 44
2, 209867, Note_on_c, 0, 62, 0
2, 209870, Note_on_c, 0, 64, 72
2, 209988, Note_on_c, 0, 64, 0
2, 210023, Note_on_c, 0, 69, 61
2, 210028, Note_on_c, 0, 65, 48
2, 210145, Control_c, 0, 64, 44
2, 210202, Control_c, 0, 64, 45
2, 210241, Control_c, 0, 64, 45
2, 210251, Note_on_c, 0, 69, 0
2, 210261, Control_c, 0, 64, 46
2, 210275, Note_on_c, 0, 65, 0
2, 210299, Control_c, 0, 64, 46
2, 210318, Control_c, 0, 64, 47
2, 210475, Note_on_c, 0, 77, 60
2, 210580, Note_on_c, 0, 64, 56
2, 210605, Control_c, 0, 64, 46
2, 210621, Note_on_c, 0, 77, 0
2, 210640, Note_on_c, 0, 64, 0
2, 210644, Control_c, 0, 64, 46
2, 210664, Control_c, 0, 64, 45
2, 210702, Control_c, 0, 64, 45
2, 210703, Note_on_c, 0, 62, 49
2, 210721, Control_c, 0, 64, 44
2, 210773, Note_on_c, 0, 62, 0
2, 210779, Control_c, 0, 64, 44
2, 210805, Note_on_c, 0, 60, 54
2, 210818, Control_c, 0, 64, 43
2, 210904, Note_on_c, 0, 60, 0
2, 210932, Note_on_c, 0, 74, 49
2, 210963, Note_on_c, 0, 59, 43
2, 210991, Control_c, 0, 64, 43
2, 211059, Note_on_c, 0, 74, 0
2, 211068, Control_c, 0, 64, 42
2, 211086, Control_c, 0, 64, 42
2, 211163, Control_c, 0, 64, 41
2, 211182, Note_on_c, 0, 59, 0
2, 211183, Control_c, 0, 64, 41
2, 211202, Control_c, 0, 64, 40
2, 211221, Control_c, 0, 64, 39
2, 211240, Control_c, 0, 64, 39
2, 211279, Control_c, 0, 64, 38
2, 211317, Control_c, 0, 64, 38
2, 211352, Note_on_c, 0, 71, 57
2, 211365, Note_on_c, 0, 62, 51
2, 211436, Note_on_c, 0, 71, 0
2, 211464, Note_on_c, 0, 62, 0
2, 211475, Note_on_c, 0, 47, 42
2, 211558, Note_on_c, 0, 47, 0
2, 211582, Note_on_c, 0, 48, 49
2, 211605, Control_c, 0, 64, 38
2, 211625, Control_c, 0, 64, 39
2, 211656, Note_on_c, 0, 48, 0
2, 211663, Control_c, 0, 64, 39
2, 211671, Note_on_c, 0, 50, 61
2, 211701, Control_c, 0, 64, 40
2, 211719, Control_c, 0, 64, 40
2, 211739, Control_c, 0, 64, 41
2, 211759, Control_c, 0, 64, 41
2, 211764, Note_on_c, 0, 50, 0
2, 211778, Control_c, 0, 64, 42
2, 211804, Note_on_c, 0, 52, 44
2, 211822, Note_on_c, 0, 68, 58
2, 211835, Control_c, 0, 64, 43
2, 211843, Note_on_c, 0, 59, 53
2, 211855, Control_c, 0, 64, 44
2, 211874, Control_c, 0, 64, 44
2, 211893, Control_c, 0, 64, 45
2, 211920, Note_on_c, 0, 59, 0
2, 211951, Control_c, 0, 64, 44
2, 211963, Note_on_c, 0, 68, 0
2, 212143, Control_c, 0, 64, 44
2, 212287, Note_on_c, 0, 76, 60
2, 212291, Note_on_c, 0, 68, 50
2, 212315, Control_c, 0, 64, 44
2, 212354, Control_c, 0, 64, 45
2, 212373, Control_c, 0, 64, 46
2, 212373, Note_on_c, 0, 52, 0
2, 212392, Control_c, 0, 64, 46
2, 212405, Note_on_c, 0, 50, 49
2, 212411, Control_c, 0, 64, 47
2, 212431, Control_c, 0, 64, 48
2, 212450, Control_c, 0, 64, 48
2, 212469, Control_c, 0, 64, 49
2, 212488, Control_c, 0, 64, 49
2, 212508, Control_c, 0, 64, 50
2, 212526, Control_c, 0, 64, 50
2, 212529, Note_on_c, 0, 50, 0
2, 212531, Note_on_c, 0, 48, 40
2, 212565, Control_c, 0, 64, 51
2, 212584, Note_on_c, 0, 68, 0
2, 212615, Note_on_c, 0, 48, 0
2, 212631, Note_on_c, 0, 47, 45
2, 212736, Note_on_c, 0, 47, 0
2, 212773, Note_on_c, 0, 72, 57
2, 212784, Note_on_c, 0, 45, 34
2, 212787, Note_on_c, 0, 76, 0
2, 212799, Note_on_c, 0, 69, 42
2, 212872, Control_c, 0, 64, 50
2, 212930, Control_c, 0, 64, 50
2, 212949, Control_c, 0, 64, 49
2, 212988, Control_c, 0, 64, 49
2, 212988, Note_on_c, 0, 45, 0
2, 212988, Note_on_c, 0, 47, 43
2, 213006, Control_c, 0, 64, 48
2, 213065, Control_c, 0, 64, 48
2, 213106, Note_on_c, 0, 47, 0
2, 213107, Note_on_c, 0, 48, 53
2, 213122, Control_c, 0, 64, 47
2, 213160, Control_c, 0, 64, 47
2, 213196, Note_on_c, 0, 48, 0
2, 213202, Note_on_c, 0, 50, 63
2, 213218, Control_c, 0, 64, 46
2, 213247, Note_on_c, 0, 69, 0
2, 213257, Control_c, 0, 64, 46
2, 213259, Note_on_c, 0, 50, 0
2, 213303, Note_on_c, 0, 52, 58
2, 213314, Control_c, 0, 64, 45
2, 213333, Control_c, 0, 64, 45
2, 213352, Control_c, 0, 64, 44
2, 213371, Control_c, 0, 64, 44
2, 213391, Control_c, 0, 64, 43
2, 213406, Note_on_c, 0, 54, 64
2, 213410, Control_c, 0, 64, 43
2, 213425, Note_on_c, 0, 52, 0
2, 213429, Control_c, 0, 64, 42
2, 213448, Control_c, 0, 64, 42
2, 213468, Control_c, 0, 64, 41
2, 213486, Control_c, 0, 64, 41
2, 213488, Note_on_c, 0, 54, 0
2, 213500, Note_on_c, 0, 56, 69
2, 213525, Control_c, 0, 64, 40
2, 213563, Control_c, 0, 64, 40
2, 213611, Note_on_c, 0, 56, 0
2, 213620, Note_on_c, 0, 57, 66
2, 213697, Control_c, 0, 64, 40
2, 213702, Note_on_c, 0, 71, 67
2, 213712, Note_on_c, 0, 72, 0
2, 213736, Control_c, 0, 64, 41
2, 213773, Control_c, 0, 64, 41
2, 213792, Note_on_c, 0, 71, 0
2, 213811, Note_on_c, 0, 69, 77
2, 213812, Control_c, 0, 64, 42
2, 213870, Control_c, 0, 64, 42
2, 213922, Note_on_c, 0, 67, 78
2, 213926, Note_on_c, 0, 69, 0
2, 214004, Control_c, 0, 64, 42
2, 214032, Note_on_c, 0, 65, 73
2, 214036, Note_on_c, 0, 67, 0
2, 214042, Control_c, 0, 64, 41
2, 214062, Control_c, 0, 64, 41
2, 214101, Control_c, 0, 64, 40
2, 214113, Note_on_c, 0, 65, 0
2, 214130, Note_on_c, 0, 64, 77
2, 214139, Control_c, 0, 64, 40
2, 214158, Control_c, 0, 64, 39
2, 214198, Note_on_c, 0, 64, 0
2, 214229, Note_on_c, 0, 62, 76
2, 214309, Note_on_c, 0, 62, 0
2, 214329, Note_on_c, 0, 60, 75
2, 214369, Control_c, 0, 64, 40
2, 214370, Note_on_c, 0, 60, 0
2, 214427, Control_c, 0, 64, 40
2, 214437, Note_on_c, 0, 62, 83
2, 214560, Note_on_c, 0, 71, 73
2, 214640, Note_on_c, 0, 71, 0
2, 214660, Note_on_c, 0, 72, 76
2, 214759, Note_on_c, 0, 74, 73
2, 214760, Note_on_c, 0, 72, 0
2, 214805, Note_on_c, 0, 62, 0
2, 214815, Note_on_c, 0, 57, 0
2, 214827, Note_on_c, 0, 74, 0
2, 214835, Note_on_c, 0, 56, 67
2, 214840, Note_on_c, 0, 59, 61
2, 214858, Note_on_c, 0, 76, 80
2, 214907, Control_c, 0, 64, 40
2, 214945, Control_c, 0, 64, 39
2, 214962, Note_on_c, 0, 78, 77
2, 214964, Control_c, 0, 64, 39
2, 214964, Note_on_c, 0, 76, 0
2, 215029, Note_on_c, 0, 59, 0
2, 215039, Note_on_c, 0, 57, 63
2, 215045, Note_on_c, 0, 54, 65
2, 215061, Note_on_c, 0, 80, 76
2, 215074, Note_on_c, 0, 57, 0
2, 215080, Note_on_c, 0, 56, 0
2, 215083, Note_on_c, 0, 54, 0
2, 215093, Note_on_c, 0, 78, 0
2, 215159, Note_on_c, 0, 81, 76
2, 215188, Note_on_c, 0, 80, 0
2, 215260, Note_on_c, 0, 56, 67
2, 215271, Note_on_c, 0, 83, 83
2, 215274, Note_on_c, 0, 52, 61
2, 215284, Note_on_c, 0, 81, 0
2, 215348, Control_c, 0, 64, 38
2, 215367, Control_c, 0, 64, 37
2, 215390, Note_on_c, 0, 81, 76
2, 215405, Control_c, 0, 64, 37
2, 215422, Note_on_c, 0, 83, 0
2, 215423, Note_on_c, 0, 52, 0
2, 215431, Note_on_c, 0, 56, 0
2, 215444, Control_c, 0, 64, 36
2, 215487, Note_on_c, 0, 80, 76
2, 215538, Note_on_c, 0, 81, 0
2, 215560, Control_c, 0, 64, 36
2, 215603, Note_on_c, 0, 78, 76
2, 215659, Note_on_c, 0, 80, 0
2, 215690, Note_on_c, 0, 50, 76
2, 215705, Note_on_c, 0, 76, 76
2, 215708, Note_on_c, 0, 78, 0
2, 215768, Note_on_c, 0, 76, 0
2, 215810, Control_c, 0, 64, 35
2, 215814, Note_on_c, 0, 74, 79
2, 215839, Note_on_c, 0, 50, 0
2, 215848, Control_c, 0, 64, 35
2, 215868, Control_c, 0, 64, 34
2, 215886, Control_c, 0, 64, 34
2, 215909, Note_on_c, 0, 72, 83
2, 215925, Control_c, 0, 64, 33
2, 215932, Note_on_c, 0, 74, 0
2, 216003, Note_on_c, 0, 72, 0
2, 216016, Note_on_c, 0, 71, 77
2, 216120, Note_on_c, 0, 57, 73
2, 216120, Note_on_c, 0, 76, 87
2, 216126, Note_on_c, 0, 48, 67
2, 216133, Note_on_c, 0, 71, 0
2, 216231, Note_on_c, 0, 74, 74
2, 216272, Note_on_c, 0, 76, 0
2, 216344, Note_on_c, 0, 72, 78
2, 216422, Note_on_c, 0, 74, 0
2, 216438, Note_on_c, 0, 71, 79
2, 216475, Note_on_c, 0, 72, 0
2, 216482, Control_c, 0, 64, 32
2, 216520, Note_on_c, 0, 57, 0
2, 216522, Note_on_c, 0, 48, 0
2, 216546, Note_on_c, 0, 71, 0
2, 216554, Note_on_c, 0, 69, 86
2, 216559, Control_c, 0, 64, 31
2, 216578, Control_c, 0, 64, 31
2, 216597, Control_c, 0, 64, 29
2, 216617, Control_c, 0, 64, 28
2, 216627, Note_on_c, 0, 69, 0
2, 216635, Control_c, 0, 64, 27
2, 216654, Control_c, 0, 64, 26
2, 216666, Note_on_c, 0, 67, 66
2, 216674, Control_c, 0, 64, 24
2, 216687, Note_on_c, 0, 65, 59
2, 216693, Control_c, 0, 64, 23
2, 216712, Control_c, 0, 64, 21
2, 216718, Note_on_c, 0, 65, 0
2, 216731, Control_c, 0, 64, 19
2, 216751, Control_c, 0, 64, 18
2, 216760, Note_on_c, 0, 65, 69
2, 216770, Note_on_c, 0, 67, 0
2, 216789, Control_c, 0, 64, 17
2, 216843, Note_on_c, 0, 65, 0
2, 216869, Note_on_c, 0, 64, 77
2, 216953, Note_on_c, 0, 53, 79
2, 216964, Note_on_c, 0, 69, 94
2, 216979, Note_on_c, 0, 64, 0
2, 217000, Control_c, 0, 64, 15
2, 217020, Control_c, 0, 64, 13
2, 217058, Control_c, 0, 64, 11
2, 217082, Note_on_c, 0, 67, 73
2, 217112, Note_on_c, 0, 69, 0
2, 217188, Note_on_c, 0, 65, 72
2, 217250, Control_c, 0, 64, 13
2, 217251, Note_on_c, 0, 67, 0
2, 217269, Control_c, 0, 64, 15
2, 217276, Note_on_c, 0, 64, 83
2, 217288, Control_c, 0, 64, 17
2, 217308, Control_c, 0, 64, 19
2, 217314, Note_on_c, 0, 65, 0
2, 217326, Control_c, 0, 64, 20
2, 217346, Control_c, 0, 64, 21
2, 217365, Control_c, 0, 64, 22
2, 217385, Note_on_c, 0, 53, 0
2, 217389, Note_on_c, 0, 62, 87
2, 217393, Note_on_c, 0, 64, 0
2, 217423, Control_c, 0, 64, 23
2, 217458, Note_on_c, 0, 62, 0
2, 217497, Note_on_c, 0, 60, 82
2, 217594, Note_on_c, 0, 59, 82
2, 217595, Control_c, 0, 64, 22
2, 217612, Note_on_c, 0, 60, 0
2, 217634, Control_c, 0, 64, 21
2, 217682, Note_on_c, 0, 59, 0
2, 217693, Note_on_c, 0, 57, 79
2, 217711, Control_c, 0, 64, 20
2, 217768, Control_c, 0, 64, 19
2, 217784, Note_on_c, 0, 57, 0
2, 217788, Control_c, 0, 64, 18
2, 217803, Note_on_c, 0, 44, 80
2, 217806, Control_c, 0, 64, 17
2, 217812, Note_on_c, 0, 65, 90
2, 217826, Control_c, 0, 64, 15
2, 217845, Control_c, 0, 64, 11
2, 217865, Control_c, 0, 64, 9
2, 217883, Control_c, 0, 64, 0
2, 217924, Note_on_c, 0, 64, 76
2, 217951, Note_on_c, 0, 65, 0
2, 218029, Note_on_c, 0, 62, 72
2, 218081, Note_on_c, 0, 64, 0
2, 218115, Note_on_c, 0, 60, 75
2, 218115, Note_on_c, 0, 62, 0
2, 218221, Note_on_c, 0, 59, 84
2, 218247, Note_on_c, 0, 60, 0
2, 218314, Note_on_c, 0, 59, 0
2, 218322, Note_on_c, 0, 57, 72
2, 218404, Note_on_c, 0, 57, 0
2, 218434, Note_on_c, 0, 56, 72
2, 218523, Note_on_c, 0, 54, 75
2, 218528, Note_on_c, 0, 56, 0
2, 218567, Note_on_c, 0, 44, 0
2, 218608, Note_on_c, 0, 54, 0
2, 218644, Note_on_c, 0, 62, 76
2, 218751, Note_on_c, 0, 60, 76
2, 218772, Note_on_c, 0, 62, 0
2, 218854, Note_on_c, 0, 59, 78
2, 218893, Note_on_c, 0, 60, 0
2, 218946, Note_on_c, 0, 59, 0
2, 218952, Note_on_c, 0, 57, 78
2, 219034, Control_c, 0, 64, 9
2, 219052, Control_c, 0, 64, 11
2, 219060, Note_on_c, 0, 56, 83
2, 219084, Note_on_c, 0, 57, 0
2, 219091, Control_c, 0, 64, 13
2, 219110, Control_c, 0, 64, 15
2, 219129, Control_c, 0, 64, 18
2, 219149, Control_c, 0, 64, 20
2, 219157, Note_on_c, 0, 54, 83
2, 219168, Control_c, 0, 64, 23
2, 219187, Control_c, 0, 64, 25
2, 219204, Note_on_c, 0, 56, 0
2, 219206, Control_c, 0, 64, 26
2, 219226, Control_c, 0, 64, 27
2, 219245, Control_c, 0, 64, 28
2, 219261, Note_on_c, 0, 54, 0
2, 219264, Control_c, 0, 64, 29
2, 219267, Note_on_c, 0, 52, 79
2, 219283, Control_c, 0, 64, 30
2, 219303, Control_c, 0, 64, 31
2, 219321, Control_c, 0, 64, 31
2, 219341, Control_c, 0, 64, 33
2, 219360, Control_c, 0, 64, 34
2, 219367, Note_on_c, 0, 51, 86
2, 219380, Control_c, 0, 64, 36
2, 219398, Control_c, 0, 64, 37
2, 219404, Note_on_c, 0, 52, 0
2, 219418, Control_c, 0, 64, 38
2, 219437, Control_c, 0, 64, 39
2, 219475, Control_c, 0, 64, 39
2, 219484, Note_on_c, 0, 51, 0
2, 219515, Note_on_c, 0, 52, 94
2, 219532, Control_c, 0, 64, 37
2, 219552, Control_c, 0, 64, 33
2, 219571, Control_c, 0, 64, 28
2, 219590, Control_c, 0, 64, 26
2, 219609, Control_c, 0, 64, 20
2, 219629, Control_c, 0, 64, 11
2, 219648, Control_c, 0, 64, 0
2, 219890, Note_on_c, 0, 52, 0
2, 219986, Note_on_c, 0, 50, 92
2, 220144, Note_on_c, 0, 64, 85
2, 220180, Note_on_c, 0, 50, 0
2, 220292, Note_on_c, 0, 66, 83
2, 220356, Note_on_c, 0, 64, 0
2, 220440, Note_on_c, 0, 47, 82
2, 220470, Note_on_c, 0, 68, 81
2, 220518, Note_on_c, 0, 66, 0
2, 220609, Note_on_c, 0, 69, 74
2, 220626, Note_on_c, 0, 47, 0
2, 220632, Note_on_c, 0, 68, 0
2, 220716, Note_on_c, 0, 69, 0
2, 220719, Note_on_c, 0, 68, 72
2, 220802, Note_on_c, 0, 68, 0
2, 220813, Note_on_c, 0, 69, 72
2, 220893, Note_on_c, 0, 68, 75
2, 220893, Note_on_c, 0, 69, 0
2, 220904, Note_on_c, 0, 52, 91
2, 220962, Note_on_c, 0, 68, 0
2, 220973, Note_on_c, 0, 69, 71
2, 221041, Note_on_c, 0, 68, 73
2, 221058, Note_on_c, 0, 69, 0
2, 221098, Note_on_c, 0, 52, 0
2, 221128, Note_on_c, 0, 68, 0
2, 221138, Note_on_c, 0, 66, 79
2, 221235, Note_on_c, 0, 68, 80
2, 221263, Note_on_c, 0, 66, 0
2, 221360, Note_on_c, 0, 48, 83
2, 221368, Note_on_c, 0, 69, 84
2, 221390, Note_on_c, 0, 68, 0
2, 221613, Note_on_c, 0, 48, 0
2, 221847, Note_on_c, 0, 45, 82
2, 221926, Note_on_c, 0, 69, 0
2, 221963, Note_on_c, 0, 59, 81
2, 222037, Note_on_c, 0, 45, 0
2, 222077, Note_on_c, 0, 60, 78
2, 222098, Note_on_c, 0, 59, 0
2, 222175, Note_on_c, 0, 62, 79
2, 222182, Note_on_c, 0, 60, 0
2, 222290, Note_on_c, 0, 40, 83
2, 222310, Note_on_c, 0, 61, 77
2, 222323, Note_on_c, 0, 62, 0
2, 222411, Control_c, 0, 64, 11
2, 222414, Note_on_c, 0, 61, 0
2, 222417, Note_on_c, 0, 62, 71
2, 222430, Control_c, 0, 64, 13
2, 222450, Control_c, 0, 64, 15
2, 222468, Control_c, 0, 64, 17
2, 222477, Note_on_c, 0, 40, 0
2, 222507, Control_c, 0, 64, 18
2, 222515, Note_on_c, 0, 62, 0
2, 222523, Note_on_c, 0, 61, 77
2, 222602, Note_on_c, 0, 61, 0
2, 222612, Note_on_c, 0, 62, 73
2, 222702, Note_on_c, 0, 62, 0
2, 222709, Note_on_c, 0, 61, 71
2, 222736, Note_on_c, 0, 43, 86
2, 222786, Note_on_c, 0, 61, 0
2, 222792, Note_on_c, 0, 62, 74
2, 222887, Note_on_c, 0, 43, 0
2, 222893, Note_on_c, 0, 61, 71
2, 222898, Note_on_c, 0, 62, 0
2, 222968, Control_c, 0, 64, 19
2, 222977, Note_on_c, 0, 61, 0
2, 222984, Note_on_c, 0, 59, 83
2, 223081, Note_on_c, 0, 61, 84
2, 223099, Note_on_c, 0, 59, 0
2, 223179, Control_c, 0, 64, 20
2, 223201, Note_on_c, 0, 41, 74
2, 223216, Note_on_c, 0, 62, 84
2, 223218, Control_c, 0, 64, 21
2, 223222, Note_on_c, 0, 61, 0
2, 223256, Control_c, 0, 64, 22
2, 223276, Control_c, 0, 64, 23
2, 223295, Control_c, 0, 64, 25
2, 223317, Control_c, 0, 64, 27
2, 223337, Control_c, 0, 64, 29
2, 223355, Control_c, 0, 64, 31
2, 223363, Note_on_c, 0, 41, 0
2, 223367, Note_on_c, 0, 40, 78
2, 223374, Control_c, 0, 64, 32
2, 223394, Control_c, 0, 64, 34
2, 223413, Control_c, 0, 64, 35
2, 223419, Note_on_c, 0, 62, 0
2, 223432, Control_c, 0, 64, 36
2, 223471, Control_c, 0, 64, 36
2, 223490, Control_c, 0, 64, 38
2, 223491, Note_on_c, 0, 38, 89
2, 223509, Control_c, 0, 64, 39
2, 223520, Note_on_c, 0, 40, 0
2, 223548, Control_c, 0, 64, 40
2, 223566, Control_c, 0, 64, 40
2, 223586, Control_c, 0, 64, 41
2, 223605, Control_c, 0, 64, 41
2, 223643, Control_c, 0, 64, 42
2, 223701, Control_c, 0, 64, 42
2, 223720, Control_c, 0, 64, 43
2, 223740, Control_c, 0, 64, 43
2, 223754, Note_on_c, 0, 71, 89
2, 223759, Control_c, 0, 64, 44
2, 223762, Note_on_c, 0, 65, 79
2, 223778, Control_c, 0, 64, 44
2, 223797, Control_c, 0, 64, 45
2, 223893, Control_c, 0, 64, 45
2, 223970, Control_c, 0, 64, 44
2, 223995, Note_on_c, 0, 71, 0
2, 224007, Note_on_c, 0, 65, 0
2, 224012, Note_on_c, 0, 40, 79
2, 224028, Control_c, 0, 64, 44
2, 224032, Note_on_c, 0, 38, 0
2, 224066, Control_c, 0, 64, 43
2, 224110, Note_on_c, 0, 41, 82
2, 224123, Control_c, 0, 64, 44
2, 224129, Note_on_c, 0, 40, 0
2, 224162, Control_c, 0, 64, 44
2, 224233, Note_on_c, 0, 40, 63
2, 224237, Control_c, 0, 64, 44
2, 224267, Note_on_c, 0, 41, 0
2, 224314, Control_c, 0, 64, 43
2, 224322, Note_on_c, 0, 64, 83
2, 224328, Note_on_c, 0, 56, 81
2, 224332, Control_c, 0, 64, 43
2, 224393, Control_c, 0, 64, 43
2, 224412, Control_c, 0, 64, 44
2, 224453, Note_on_c, 0, 40, 0
2, 224498, Note_on_c, 0, 41, 64
2, 224500, Note_on_c, 0, 56, 0
2, 224528, Control_c, 0, 64, 44
2, 224544, Note_on_c, 0, 64, 0
2, 224546, Control_c, 0, 64, 45
2, 224571, Note_on_c, 0, 41, 0
2, 224585, Note_on_c, 0, 40, 68
2, 224604, Control_c, 0, 64, 46
2, 224633, Note_on_c, 0, 40, 0
2, 224663, Note_on_c, 0, 41, 78
2, 224700, Control_c, 0, 64, 46
2, 224709, Note_on_c, 0, 41, 0
2, 224719, Note_on_c, 0, 40, 76
2, 224720, Control_c, 0, 64, 47
2, 224738, Control_c, 0, 64, 48
2, 224789, Note_on_c, 0, 41, 74
2, 224796, Note_on_c, 0, 40, 0
2, 224797, Control_c, 0, 64, 48
2, 224849, Note_on_c, 0, 40, 62
2, 224874, Control_c, 0, 64, 48
2, 224874, Note_on_c, 0, 41, 0
2, 224874, Note_on_c, 0, 68, 94
2, 224883, Note_on_c, 0, 59, 82
2, 224892, Control_c, 0, 64, 47
2, 224939, Note_on_c, 0, 41, 42
2, 224991, Note_on_c, 0, 40, 0
2, 225008, Control_c, 0, 64, 47
2, 225046, Control_c, 0, 64, 46
2, 225066, Note_on_c, 0, 41, 0
2, 225087, Note_on_c, 0, 40, 47
2, 225123, Control_c, 0, 64, 47
2, 225132, Note_on_c, 0, 38, 78
2, 225142, Note_on_c, 0, 40, 0
2, 225159, Control_c, 0, 64, 47
2, 225178, Control_c, 0, 64, 48
2, 225201, Control_c, 0, 64, 48
2, 225203, Note_on_c, 0, 59, 0
2, 225239, Control_c, 0, 64, 49
2, 225278, Control_c, 0, 64, 49
2, 225291, Note_on_c, 0, 68, 0
2, 225316, Control_c, 0, 64, 50
2, 225354, Control_c, 0, 64, 50
2, 225445, Note_on_c, 0, 40, 77
2, 225505, Note_on_c, 0, 38, 0
2, 225688, Control_c, 0, 64, 50
2, 225823, Control_c, 0, 64, 49
2, 225996, Control_c, 0, 64, 50
2, 226021, Note_on_c, 0, 33, 48
2, 226092, Control_c, 0, 64, 50
2, 226123, Note_on_c, 0, 40, 0
2, 226131, Note_on_c, 0, 69, 79
2, 226145, Note_on_c, 0, 61, 62
2, 229663, Control_c, 0, 64, 50
2, 229855, Control_c, 0, 64, 49
2, 231125, Note_on_c, 0, 69, 0
2, 231418, Note_on_c, 0, 33, 0
2, 231435, Note_on_c, 0, 61, 0
2, 231679, Control_c, 0, 64, 49
2, 231717, Control_c, 0, 64, 48
2, 231756, Control_c, 0, 64, 48
2, 231774, Control_c, 0, 64, 47
2, 231794, Control_c, 0, 64, 47
2, 231813, Control_c, 0, 64, 46
2, 231833, Control_c, 0, 64, 46
2, 231870, Control_c, 0, 64, 45
2, 231889, Control_c, 0, 64, 44
2, 231908, Control_c, 0, 64, 43
2, 231927, Control_c, 0, 64, 42
2, 231947, Control_c, 0, 64, 41
2, 231966, Control_c, 0, 64, 40
2, 231985, Control_c, 0, 64, 39
2, 232004, Control_c, 0, 64, 37
2, 232023, Control_c, 0, 64, 36
2, 232043, Control_c, 0, 64, 34
2, 232061, Control_c, 0, 64, 32
2, 232081, Control_c, 0, 64, 31
2, 232100, Control_c, 0, 64, 29
2, 232119, Control_c, 0, 64, 25
2, 232138, Control_c, 0, 64, 21
2, 232158, Control_c, 0, 64, 15
2, 232177, Control_c, 0, 64, 0
2, 232178, End_track
0, 0, End_of_file
