0, 0, Header, 1, 2, 480
1, 0, Start_track
1, 0, Tempo, 500000
1, 0, Time_signature, 4, 2, 24, 8
1, 1, End_track
2,0,Start_track
2,0, Note_on_c, 0, 64, 79
2,11, Control_c, 0, 64, 13
2,49, Control_c, 0, 64, 15
2,69, Control_c, 0, 64, 17
2,107, Control_c, 0, 64, 18
2,126, Control_c, 0, 64, 19
2,146, Control_c, 0, 64, 20
2,165, Control_c, 0, 64, 21
2,184, Control_c, 0, 64, 22
2,203, Control_c, 0, 64, 23
2,223, Control_c, 0, 64, 24
2,261, Control_c, 0, 64, 25
2,337, Control_c, 0, 64, 26
2,395, Control_c, 0, 64, 27
2,418, Note_on_c, 0, 64, 0
2,434, Control_c, 0, 64, 27
2,472, Control_c, 0, 64, 28
2,491, Control_c, 0, 64, 29
2,529, Control_c, 0, 64, 29
2,549, Control_c, 0, 64, 30
2,587, Control_c, 0, 64, 31
2,645, Control_c, 0, 64, 31
2,741, Control_c, 0, 64, 32
2,848, Note_on_c, 0, 60, 87
2,875, Control_c, 0, 64, 32
2,1330, Note_on_c, 0, 60, 0
2,1807, Note_on_c, 0, 65, 86
2,2324, Note_on_c, 0, 65, 0
2,2527, Control_c, 0, 64, 32
2,2585, Control_c, 0, 64, 31
2,2799, Note_on_c, 0, 56, 93
2,2969, Control_c, 0, 64, 31
2,3679, Control_c, 0, 64, 31
2,3731, Note_on_c, 0, 56, 0
2,3871, Control_c, 0, 64, 27
2,3890, Control_c, 0, 64, 11
2,3910, Control_c, 0, 64, 0
2,5012, Note_on_c, 0, 62, 52
2,5056, Note_on_c, 0, 62, 0
2,5450, Note_on_c, 0, 59, 65
2,5495, Note_on_c, 0, 59, 0
2,5890, Note_on_c, 0, 64, 74
2,5929, Note_on_c, 0, 64, 0
2,6358, Note_on_c, 0, 60, 65
2,6405, Note_on_c, 0, 60, 0
2,6792, Note_on_c, 0, 57, 67
2,6842, Note_on_c, 0, 57, 0
2,7246, Note_on_c, 0, 54, 35
2,7259, Note_on_c, 0, 69, 93
2,7318, Note_on_c, 0, 54, 0
2,7717, Note_on_c, 0, 63, 73
2,7752, Note_on_c, 0, 69, 0
2,7800, Note_on_c, 0, 63, 0
2,8156, Note_on_c, 0, 52, 44
2,8172, Note_on_c, 0, 67, 92
2,8249, Note_on_c, 0, 52, 0
2,8626, Note_on_c, 0, 67, 0
2,8628, Note_on_c, 0, 64, 81
2,8714, Note_on_c, 0, 64, 0
2,8719, Note_on_c, 0, 62, 74
2,8747, Control_c, 0, 64, 9
2,8766, Control_c, 0, 64, 11
2,8786, Control_c, 0, 64, 13
2,8824, Note_on_c, 0, 62, 0
2,8828, Note_on_c, 0, 60, 70
2,8843, Control_c, 0, 64, 15
2,8881, Control_c, 0, 64, 18
2,8901, Control_c, 0, 64, 20
2,8920, Control_c, 0, 64, 21
2,8920, Note_on_c, 0, 59, 68
2,8922, Note_on_c, 0, 60, 0
2,8939, Control_c, 0, 64, 22
2,9039, Note_on_c, 0, 59, 0
2,9045, Note_on_c, 0, 72, 103
2,9051, Note_on_c, 0, 57, 62
2,9169, Control_c, 0, 64, 20
2,9189, Control_c, 0, 64, 18
2,9204, Note_on_c, 0, 57, 0
2,9208, Control_c, 0, 64, 15
2,9227, Control_c, 0, 64, 13
2,9246, Control_c, 0, 64, 11
2,9469, Note_on_c, 0, 72, 0
2,9490, Note_on_c, 0, 60, 83
2,9558, Note_on_c, 0, 60, 0
2,9572, Control_c, 0, 64, 13
2,9579, Note_on_c, 0, 59, 75
2,9592, Control_c, 0, 64, 17
2,9611, Control_c, 0, 64, 18
2,9631, Control_c, 0, 64, 19
2,9676, Note_on_c, 0, 57, 71
2,9677, Note_on_c, 0, 59, 0
2,9707, Control_c, 0, 64, 20
2,9726, Control_c, 0, 64, 21
2,9756, Note_on_c, 0, 57, 0
2,9769, Note_on_c, 0, 55, 63
2,9881, Note_on_c, 0, 55, 0
2,9889, Note_on_c, 0, 54, 59
2,9897, Note_on_c, 0, 63, 88
2,9900, Control_c, 0, 64, 20
2,9959, Control_c, 0, 64, 19
2,9990, Note_on_c, 0, 54, 0
2,10005, Note_on_c, 0, 55, 61
2,10094, Note_on_c, 0, 55, 0
2,10124, Note_on_c, 0, 57, 60
2,10131, Control_c, 0, 64, 21
2,10151, Control_c, 0, 64, 22
2,10170, Control_c, 0, 64, 23
2,10208, Control_c, 0, 64, 24
2,10228, Control_c, 0, 64, 25
2,10246, Control_c, 0, 64, 27
2,10266, Control_c, 0, 64, 29
2,10285, Control_c, 0, 64, 31
2,10305, Control_c, 0, 64, 32
2,10323, Control_c, 0, 64, 35
2,10343, Control_c, 0, 64, 37
2,10362, Control_c, 0, 64, 38
2,10380, Control_c, 0, 64, 39
2,10400, Control_c, 0, 64, 39
2,10445, Note_on_c, 0, 57, 0
2,10457, Control_c, 0, 64, 40
2,10471, Note_on_c, 0, 55, 52
2,10516, Control_c, 0, 64, 39
2,10534, Control_c, 0, 64, 38
2,10547, Note_on_c, 0, 54, 59
2,10554, Control_c, 0, 64, 37
2,10556, Note_on_c, 0, 55, 0
2,10573, Control_c, 0, 64, 36
2,10592, Control_c, 0, 64, 35
2,10611, Control_c, 0, 64, 34
2,10631, Control_c, 0, 64, 32
2,10639, Note_on_c, 0, 54, 0
2,10650, Control_c, 0, 64, 31
2,10666, Note_on_c, 0, 52, 52
2,10669, Control_c, 0, 64, 29
2,10688, Control_c, 0, 64, 27
2,10708, Control_c, 0, 64, 23
2,10726, Control_c, 0, 64, 21
2,10749, Control_c, 0, 64, 20
2,10765, Note_on_c, 0, 52, 0
2,10768, Control_c, 0, 64, 19
2,10773, Note_on_c, 0, 51, 56
2,10860, Note_on_c, 0, 51, 0
2,10880, Note_on_c, 0, 52, 53
2,10883, Control_c, 0, 64, 20
2,10903, Control_c, 0, 64, 23
2,10921, Control_c, 0, 64, 29
2,10940, Control_c, 0, 64, 34
2,10960, Control_c, 0, 64, 35
2,10963, Note_on_c, 0, 52, 0
2,10979, Control_c, 0, 64, 36
2,10996, Note_on_c, 0, 54, 51
2,10998, Control_c, 0, 64, 37
2,11017, Control_c, 0, 64, 38
2,11037, Control_c, 0, 64, 39
2,11055, Control_c, 0, 64, 39
2,11075, Control_c, 0, 64, 40
2,11094, Control_c, 0, 64, 40
2,11132, Control_c, 0, 64, 41
2,11152, Control_c, 0, 64, 41
2,11171, Control_c, 0, 64, 42
2,11266, Note_on_c, 0, 54, 0
2,11286, Control_c, 0, 64, 41
2,11289, Note_on_c, 0, 52, 53
2,11306, Control_c, 0, 64, 40
2,11325, Control_c, 0, 64, 39
2,11344, Control_c, 0, 64, 38
2,11363, Control_c, 0, 64, 37
2,11373, Note_on_c, 0, 52, 0
2,11380, Note_on_c, 0, 51, 58
2,11383, Control_c, 0, 64, 36
2,11401, Control_c, 0, 64, 35
2,11420, Control_c, 0, 64, 35
2,11466, Note_on_c, 0, 49, 58
2,11468, Note_on_c, 0, 51, 0
2,11480, Note_on_c, 0, 63, 0
2,11597, Note_on_c, 0, 49, 0
2,11604, Note_on_c, 0, 47, 51
2,11705, Control_c, 0, 64, 34
2,11724, Control_c, 0, 64, 33
2,11744, Control_c, 0, 64, 32
2,11762, Control_c, 0, 64, 31
2,11782, Control_c, 0, 64, 31
2,11801, Control_c, 0, 64, 30
2,11820, Control_c, 0, 64, 29
2,11839, Control_c, 0, 64, 27
2,11858, Control_c, 0, 64, 26
2,11878, Control_c, 0, 64, 25
2,11896, Control_c, 0, 64, 23
2,11916, Control_c, 0, 64, 22
2,11935, Control_c, 0, 64, 19
2,11955, Control_c, 0, 64, 11
2,11973, Control_c, 0, 64, 0
2,12026, Note_on_c, 0, 69, 68
2,12124, Note_on_c, 0, 69, 0
2,12127, Control_c, 0, 64, 9
2,12147, Control_c, 0, 64, 15
2,12165, Control_c, 0, 64, 17
2,12185, Control_c, 0, 64, 18
2,12272, Note_on_c, 0, 49, 51
2,12279, Note_on_c, 0, 47, 0
2,12319, Control_c, 0, 64, 17
2,12338, Control_c, 0, 64, 13
2,12358, Control_c, 0, 64, 11
2,12371, Note_on_c, 0, 51, 60
2,12378, Note_on_c, 0, 49, 0
2,12453, Control_c, 0, 64, 15
2,12465, Note_on_c, 0, 51, 0
2,12473, Control_c, 0, 64, 18
2,12483, Note_on_c, 0, 66, 74
2,12490, Note_on_c, 0, 52, 55
2,12492, Control_c, 0, 64, 24
2,12511, Control_c, 0, 64, 29
2,12530, Control_c, 0, 64, 33
2,12550, Control_c, 0, 64, 35
2,12569, Control_c, 0, 64, 37
2,12571, Note_on_c, 0, 52, 0
2,12588, Control_c, 0, 64, 38
2,12604, Note_on_c, 0, 66, 0
2,12607, Control_c, 0, 64, 39
2,12613, Note_on_c, 0, 51, 52
2,12626, Control_c, 0, 64, 40
2,12645, Control_c, 0, 64, 41
2,12653, Note_on_c, 0, 51, 0
2,12690, Note_on_c, 0, 52, 62
2,12703, Control_c, 0, 64, 40
2,12721, Control_c, 0, 64, 37
2,12735, Note_on_c, 0, 52, 0
2,12740, Control_c, 0, 64, 32
2,12747, Note_on_c, 0, 51, 64
2,12760, Control_c, 0, 64, 25
2,12779, Control_c, 0, 64, 11
2,12786, Note_on_c, 0, 51, 0
2,12798, Control_c, 0, 64, 0
2,12824, Note_on_c, 0, 52, 65
2,12868, Note_on_c, 0, 52, 0
2,12869, Note_on_c, 0, 51, 68
2,12937, Note_on_c, 0, 51, 0
2,12940, Note_on_c, 0, 71, 87
2,12949, Note_on_c, 0, 52, 70
2,13027, Note_on_c, 0, 51, 65
2,13062, Note_on_c, 0, 71, 0
2,13135, Note_on_c, 0, 51, 0
2,13139, Note_on_c, 0, 52, 0
2,13144, Control_c, 0, 64, 11
2,13158, Note_on_c, 0, 49, 61
2,13163, Control_c, 0, 64, 17
2,13183, Control_c, 0, 64, 20
2,13201, Control_c, 0, 64, 23
2,13220, Control_c, 0, 64, 26
2,13257, Note_on_c, 0, 51, 68
2,13275, Note_on_c, 0, 49, 0
2,13379, Note_on_c, 0, 51, 0
2,13398, Note_on_c, 0, 67, 71
2,13404, Note_on_c, 0, 52, 56
2,13432, Control_c, 0, 64, 25
2,13451, Control_c, 0, 64, 23
2,13471, Control_c, 0, 64, 22
2,13489, Control_c, 0, 64, 21
2,13509, Control_c, 0, 64, 20
2,13528, Control_c, 0, 64, 18
2,13566, Control_c, 0, 64, 17
2,13586, Control_c, 0, 64, 15
2,13605, Control_c, 0, 64, 11
2,13624, Control_c, 0, 64, 0
2,13630, Note_on_c, 0, 67, 0
2,13676, Note_on_c, 0, 52, 0
2,13857, Note_on_c, 0, 64, 75
2,13963, Note_on_c, 0, 52, 73
2,14028, Note_on_c, 0, 64, 0
2,14065, Note_on_c, 0, 53, 76
2,14073, Note_on_c, 0, 52, 0
2,14161, Note_on_c, 0, 53, 0
2,14161, Note_on_c, 0, 55, 78
2,14274, Note_on_c, 0, 55, 0
2,14278, Note_on_c, 0, 61, 69
2,14307, Note_on_c, 0, 57, 59
2,14506, Note_on_c, 0, 57, 0
2,14573, Note_on_c, 0, 61, 0
2,14748, Note_on_c, 0, 69, 62
2,14865, Note_on_c, 0, 55, 51
2,14909, Note_on_c, 0, 69, 0
2,14915, Note_on_c, 0, 55, 0
2,14953, Note_on_c, 0, 53, 56
2,15016, Note_on_c, 0, 53, 0
2,15050, Note_on_c, 0, 52, 58
2,15126, Note_on_c, 0, 52, 0
2,15166, Note_on_c, 0, 65, 48
2,15190, Note_on_c, 0, 50, 39
2,15400, Note_on_c, 0, 65, 0
2,15437, Note_on_c, 0, 50, 0
2,15620, Note_on_c, 0, 62, 56
2,15721, Note_on_c, 0, 50, 56
2,15754, Note_on_c, 0, 62, 0
2,15796, Note_on_c, 0, 50, 0
2,15826, Note_on_c, 0, 52, 58
2,15888, Note_on_c, 0, 52, 0
2,15916, Note_on_c, 0, 53, 61
2,15981, Note_on_c, 0, 53, 0
2,16043, Note_on_c, 0, 59, 54
2,16052, Note_on_c, 0, 55, 44
2,16274, Note_on_c, 0, 59, 0
2,16282, Note_on_c, 0, 55, 0
2,16503, Note_on_c, 0, 67, 58
2,16600, Note_on_c, 0, 53, 55
2,16671, Note_on_c, 0, 53, 0
2,16709, Note_on_c, 0, 52, 55
2,16781, Note_on_c, 0, 52, 0
2,16801, Note_on_c, 0, 50, 62
2,16935, Note_on_c, 0, 48, 55
2,16935, Note_on_c, 0, 50, 0
2,16944, Note_on_c, 0, 67, 0
2,16949, Note_on_c, 0, 64, 66
2,17359, Note_on_c, 0, 69, 83
2,17404, Note_on_c, 0, 64, 0
2,17605, Note_on_c, 0, 50, 84
2,17638, Note_on_c, 0, 48, 0
2,17836, Note_on_c, 0, 52, 60
2,17837, Note_on_c, 0, 76, 84
2,17838, Note_on_c, 0, 50, 0
2,17843, Note_on_c, 0, 69, 0
2,18013, Note_on_c, 0, 52, 0
2,18061, Note_on_c, 0, 53, 69
2,18137, Note_on_c, 0, 53, 0
2,18147, Note_on_c, 0, 52, 75
2,18241, Note_on_c, 0, 50, 75
2,18241, Note_on_c, 0, 52, 0
2,18258, Note_on_c, 0, 68, 89
2,18263, Note_on_c, 0, 76, 0
2,18461, Control_c, 0, 64, 9
2,18481, Control_c, 0, 64, 18
2,18492, Note_on_c, 0, 52, 78
2,18497, Note_on_c, 0, 50, 0
2,18499, Control_c, 0, 64, 21
2,18519, Control_c, 0, 64, 23
2,18525, Note_on_c, 0, 52, 0
2,18538, Control_c, 0, 64, 24
2,18557, Control_c, 0, 64, 25
2,18576, Control_c, 0, 64, 27
2,18615, Control_c, 0, 64, 27
2,18653, Control_c, 0, 64, 28
2,18691, Control_c, 0, 64, 29
2,18711, Control_c, 0, 64, 31
2,18730, Control_c, 0, 64, 34
2,18730, Note_on_c, 0, 68, 0
2,18745, Note_on_c, 0, 72, 104
2,18750, Control_c, 0, 64, 37
2,18751, Note_on_c, 0, 53, 67
2,18751, Note_on_c, 0, 57, 61
2,18768, Control_c, 0, 64, 44
2,18788, Control_c, 0, 64, 53
2,18807, Control_c, 0, 64, 59
2,18826, Control_c, 0, 64, 62
2,18845, Control_c, 0, 64, 64
2,18865, Control_c, 0, 64, 67
2,18884, Control_c, 0, 64, 71
2,18903, Control_c, 0, 64, 78
2,18922, Control_c, 0, 64, 90
2,18941, Control_c, 0, 64, 98
2,18961, Control_c, 0, 64, 105
2,18979, Control_c, 0, 64, 115
2,18999, Control_c, 0, 64, 127
2,19124, Note_on_c, 0, 57, 0
2,19137, Note_on_c, 0, 72, 0
2,19140, Note_on_c, 0, 53, 0
2,19158, Note_on_c, 0, 69, 83
2,19171, Control_c, 0, 64, 90
2,19191, Control_c, 0, 64, 64
2,19210, Control_c, 0, 64, 0
2,19256, Note_on_c, 0, 67, 67
2,19309, Note_on_c, 0, 69, 0
2,19347, Note_on_c, 0, 65, 73
2,19367, Note_on_c, 0, 67, 0
2,19431, Note_on_c, 0, 65, 0
2,19452, Note_on_c, 0, 64, 73
2,19496, Note_on_c, 0, 64, 0
2,19579, Note_on_c, 0, 77, 97
2,19587, Note_on_c, 0, 62, 61
2,19652, Control_c, 0, 64, 39
2,19672, Control_c, 0, 64, 59
2,19691, Control_c, 0, 64, 66
2,19711, Control_c, 0, 64, 71
2,19729, Control_c, 0, 64, 82
2,19749, Control_c, 0, 64, 102
2,19768, Control_c, 0, 64, 127
2,19777, Note_on_c, 0, 62, 0
2,19826, Note_on_c, 0, 65, 66
2,19868, Note_on_c, 0, 77, 0
2,19902, Note_on_c, 0, 65, 0
2,19917, Note_on_c, 0, 64, 72
2,20008, Note_on_c, 0, 64, 0
2,20009, Note_on_c, 0, 62, 76
2,20064, Note_on_c, 0, 62, 0
2,20113, Note_on_c, 0, 60, 75
2,20207, Note_on_c, 0, 60, 0
2,20213, Note_on_c, 0, 59, 79
2,20229, Control_c, 0, 64, 105
2,20248, Control_c, 0, 64, 91
2,20267, Control_c, 0, 64, 81
2,20286, Control_c, 0, 64, 75
2,20300, Note_on_c, 0, 57, 71
2,20301, Note_on_c, 0, 59, 0
2,20306, Control_c, 0, 64, 68
2,20325, Control_c, 0, 64, 62
2,20340, Note_on_c, 0, 57, 0
2,20344, Control_c, 0, 64, 52
2,20363, Control_c, 0, 64, 27
2,20382, Control_c, 0, 64, 0
2,20431, Note_on_c, 0, 68, 86
2,20434, Note_on_c, 0, 59, 83
2,20551, Note_on_c, 0, 60, 68
2,20554, Note_on_c, 0, 59, 0
2,20680, Note_on_c, 0, 62, 62
2,20725, Note_on_c, 0, 60, 0
2,20821, Note_on_c, 0, 68, 0
2,20889, Note_on_c, 0, 53, 63
2,20972, Note_on_c, 0, 53, 0
2,20978, Note_on_c, 0, 62, 0
2,21007, Note_on_c, 0, 60, 56
2,21061, Note_on_c, 0, 60, 0
2,21094, Note_on_c, 0, 59, 64
2,21199, Note_on_c, 0, 59, 0
2,21200, Note_on_c, 0, 57, 73
2,21301, Note_on_c, 0, 56, 74
2,21304, Note_on_c, 0, 57, 0
2,21314, Note_on_c, 0, 47, 48
2,21387, Note_on_c, 0, 56, 0
2,21414, Note_on_c, 0, 57, 73
2,21420, Note_on_c, 0, 47, 0
2,21538, Note_on_c, 0, 59, 84
2,21550, Note_on_c, 0, 57, 0
2,21760, Note_on_c, 0, 50, 67
2,21788, Note_on_c, 0, 59, 0
2,21843, Note_on_c, 0, 57, 66
2,21861, Note_on_c, 0, 50, 0
2,21957, Note_on_c, 0, 56, 78
2,21960, Note_on_c, 0, 57, 0
2,22056, Note_on_c, 0, 54, 75
2,22105, Note_on_c, 0, 56, 0
2,22185, Note_on_c, 0, 52, 79
2,22186, Note_on_c, 0, 44, 60
2,22192, Note_on_c, 0, 54, 0
2,22247, Note_on_c, 0, 52, 0
2,22642, Note_on_c, 0, 47, 56
2,22657, Note_on_c, 0, 44, 0
2,22662, Note_on_c, 0, 74, 89
2,22829, Note_on_c, 0, 74, 0
2,22838, Note_on_c, 0, 47, 0
2,22858, Control_c, 0, 64, 9
2,22877, Control_c, 0, 64, 11
2,22883, Note_on_c, 0, 54, 64
2,22896, Control_c, 0, 64, 13
2,22916, Control_c, 0, 64, 15
2,22942, Note_on_c, 0, 54, 0
2,22974, Note_on_c, 0, 56, 74
2,23050, Control_c, 0, 64, 11
2,23070, Control_c, 0, 64, 0
2,23095, Note_on_c, 0, 56, 0
2,23101, Note_on_c, 0, 52, 51
2,23127, Note_on_c, 0, 71, 85
2,23135, Note_on_c, 0, 57, 50
2,23252, Note_on_c, 0, 71, 0
2,23255, Note_on_c, 0, 57, 0
2,23261, Note_on_c, 0, 56, 70
2,23314, Note_on_c, 0, 56, 0
2,23345, Note_on_c, 0, 57, 68
2,23403, Note_on_c, 0, 57, 0
2,23425, Note_on_c, 0, 56, 73
2,23473, Note_on_c, 0, 56, 0
2,23485, Note_on_c, 0, 57, 70
2,23541, Note_on_c, 0, 57, 0
2,23553, Note_on_c, 0, 56, 69
2,23566, Note_on_c, 0, 76, 91
2,23624, Note_on_c, 0, 57, 64
2,23628, Note_on_c, 0, 56, 0
2,23716, Note_on_c, 0, 56, 54
2,23717, Note_on_c, 0, 76, 0
2,23721, Note_on_c, 0, 57, 0
2,23753, Note_on_c, 0, 54, 66
2,23761, Note_on_c, 0, 56, 0
2,23772, Note_on_c, 0, 52, 0
2,23855, Note_on_c, 0, 56, 80
2,23881, Note_on_c, 0, 54, 0
2,23926, Note_on_c, 0, 56, 0
2,24015, Note_on_c, 0, 57, 50
2,24022, Note_on_c, 0, 72, 83
2,24029, Note_on_c, 0, 45, 47
2,24241, Note_on_c, 0, 45, 0
2,24249, Note_on_c, 0, 57, 0
2,24287, Note_on_c, 0, 72, 0
2,24493, Note_on_c, 0, 69, 78
2,24599, Note_on_c, 0, 57, 72
2,24678, Note_on_c, 0, 69, 0
2,24694, Note_on_c, 0, 57, 0
2,24695, Note_on_c, 0, 59, 74
2,24786, Note_on_c, 0, 59, 0
2,24788, Note_on_c, 0, 60, 78
2,24901, Note_on_c, 0, 60, 0
2,24937, Note_on_c, 0, 62, 52
2,24942, Note_on_c, 0, 66, 64
2,25133, Note_on_c, 0, 62, 0
2,25222, Note_on_c, 0, 66, 0
2,25398, Note_on_c, 0, 74, 56
2,25417, Note_on_c, 0, 54, 38
2,25495, Note_on_c, 0, 54, 0
2,25534, Note_on_c, 0, 60, 47
2,25550, Note_on_c, 0, 74, 0
2,25604, Note_on_c, 0, 60, 0
2,25619, Note_on_c, 0, 59, 56
2,25687, Note_on_c, 0, 59, 0
2,25714, Note_on_c, 0, 57, 57
2,25825, Note_on_c, 0, 57, 0
2,25841, Note_on_c, 0, 71, 51
2,25881, Note_on_c, 0, 55, 39
2,26081, Note_on_c, 0, 71, 0
2,26142, Note_on_c, 0, 55, 0
2,26305, Note_on_c, 0, 67, 52
2,26428, Note_on_c, 0, 55, 34
2,26456, Note_on_c, 0, 67, 0
2,26478, Note_on_c, 0, 55, 0
2,26502, Note_on_c, 0, 57, 57
2,26563, Note_on_c, 0, 57, 0
2,26593, Note_on_c, 0, 59, 57
2,26658, Note_on_c, 0, 59, 0
2,26725, Note_on_c, 0, 60, 37
2,26726, Note_on_c, 0, 64, 49
2,26813, Control_c, 0, 64, 9
2,26833, Control_c, 0, 64, 15
2,26851, Control_c, 0, 64, 19
2,26871, Control_c, 0, 64, 23
2,26890, Control_c, 0, 64, 26
2,26910, Control_c, 0, 64, 27
2,26928, Control_c, 0, 64, 29
2,26933, Note_on_c, 0, 64, 0
2,26948, Control_c, 0, 64, 29
2,26967, Control_c, 0, 64, 30
2,26999, Note_on_c, 0, 60, 0
2,27157, Note_on_c, 0, 52, 38
2,27164, Note_on_c, 0, 72, 57
2,27273, Note_on_c, 0, 58, 47
2,27295, Note_on_c, 0, 52, 0
2,27313, Control_c, 0, 64, 29
2,27320, Note_on_c, 0, 58, 0
2,27331, Control_c, 0, 64, 29
2,27370, Control_c, 0, 64, 28
2,27389, Note_on_c, 0, 57, 52
2,27390, Control_c, 0, 64, 27
2,27408, Control_c, 0, 64, 26
2,27428, Control_c, 0, 64, 25
2,27445, Note_on_c, 0, 57, 0
2,27447, Control_c, 0, 64, 24
2,27466, Control_c, 0, 64, 23
2,27482, Note_on_c, 0, 55, 50
2,27485, Control_c, 0, 64, 22
2,27505, Control_c, 0, 64, 21
2,27542, Control_c, 0, 64, 20
2,27561, Note_on_c, 0, 55, 0
2,27615, Note_on_c, 0, 69, 58
2,27616, Note_on_c, 0, 53, 46
2,27627, Note_on_c, 0, 72, 0
2,27639, Control_c, 0, 64, 22
2,27658, Control_c, 0, 64, 28
2,27677, Control_c, 0, 64, 40
2,27696, Control_c, 0, 64, 53
2,27716, Control_c, 0, 64, 59
2,27735, Control_c, 0, 64, 63
2,27754, Control_c, 0, 64, 65
2,27773, Control_c, 0, 64, 69
2,27793, Control_c, 0, 64, 76
2,27811, Control_c, 0, 64, 90
2,27831, Control_c, 0, 64, 110
2,27841, Note_on_c, 0, 65, 54
2,27850, Control_c, 0, 64, 127
2,28043, Control_c, 0, 64, 88
2,28055, Note_on_c, 0, 55, 55
2,28062, Control_c, 0, 64, 64
2,28063, Note_on_c, 0, 71, 77
2,28079, Note_on_c, 0, 69, 0
2,28081, Control_c, 0, 64, 0
2,28126, Note_on_c, 0, 53, 0
2,28131, Note_on_c, 0, 65, 0
2,28158, Control_c, 0, 64, 53
2,28177, Control_c, 0, 64, 67
2,28197, Control_c, 0, 64, 77
2,28215, Control_c, 0, 64, 105
2,28235, Control_c, 0, 64, 127
2,28274, Note_on_c, 0, 65, 64
2,28441, Note_on_c, 0, 55, 0
2,28483, Note_on_c, 0, 65, 0
2,28485, Control_c, 0, 64, 104
2,28503, Control_c, 0, 64, 68
2,28520, Note_on_c, 0, 57, 49
2,28523, Control_c, 0, 64, 0
2,28528, Note_on_c, 0, 72, 71
2,28574, Note_on_c, 0, 71, 0
2,28580, Control_c, 0, 64, 30
2,28600, Control_c, 0, 64, 62
2,28619, Control_c, 0, 64, 70
2,28638, Control_c, 0, 64, 85
2,28648, Note_on_c, 0, 64, 69
2,28655, Note_on_c, 0, 72, 0
2,28657, Control_c, 0, 64, 127
2,28738, Note_on_c, 0, 64, 0
2,28741, Note_on_c, 0, 65, 72
2,28791, Note_on_c, 0, 57, 0
2,28832, Note_on_c, 0, 65, 0
2,28842, Note_on_c, 0, 67, 74
2,28935, Note_on_c, 0, 55, 61
2,28935, Note_on_c, 0, 67, 0
2,28939, Note_on_c, 0, 69, 83
2,28999, Note_on_c, 0, 55, 0
2,29041, Note_on_c, 0, 67, 76
2,29081, Note_on_c, 0, 69, 0
2,29125, Note_on_c, 0, 65, 75
2,29146, Note_on_c, 0, 67, 0
2,29215, Note_on_c, 0, 65, 0
2,29229, Note_on_c, 0, 64, 80
2,29286, Note_on_c, 0, 64, 0
2,29290, Control_c, 0, 64, 76
2,29310, Control_c, 0, 64, 58
2,29328, Control_c, 0, 64, 0
2,29347, Note_on_c, 0, 62, 61
2,29349, Note_on_c, 0, 53, 63
2,29456, Note_on_c, 0, 72, 80
2,29557, Note_on_c, 0, 72, 0
2,29559, Note_on_c, 0, 74, 72
2,29609, Note_on_c, 0, 62, 0
2,29656, Note_on_c, 0, 74, 0
2,29656, Note_on_c, 0, 76, 73
2,29752, Note_on_c, 0, 50, 65
2,29755, Note_on_c, 0, 77, 82
2,29761, Note_on_c, 0, 76, 0
2,29786, Note_on_c, 0, 53, 0
2,29857, Note_on_c, 0, 76, 75
2,29866, Note_on_c, 0, 50, 0
2,29920, Note_on_c, 0, 77, 0
2,29954, Note_on_c, 0, 74, 70
2,29973, Note_on_c, 0, 76, 0
2,30031, Note_on_c, 0, 74, 0
2,30046, Note_on_c, 0, 72, 74
2,30084, Note_on_c, 0, 72, 0
2,30163, Note_on_c, 0, 71, 86
2,30165, Note_on_c, 0, 55, 69
2,30280, Note_on_c, 0, 62, 62
2,30368, Note_on_c, 0, 71, 0
2,30387, Note_on_c, 0, 64, 70
2,30396, Note_on_c, 0, 62, 0
2,30495, Note_on_c, 0, 64, 0
2,30497, Note_on_c, 0, 65, 71
2,30594, Note_on_c, 0, 53, 55
2,30611, Note_on_c, 0, 55, 0
2,30611, Note_on_c, 0, 67, 80
2,30614, Note_on_c, 0, 65, 0
2,30691, Note_on_c, 0, 53, 0
2,30712, Note_on_c, 0, 65, 78
2,30754, Note_on_c, 0, 67, 0
2,30811, Note_on_c, 0, 64, 82
2,30840, Note_on_c, 0, 65, 0
2,30910, Note_on_c, 0, 62, 85
2,30914, Note_on_c, 0, 64, 0
2,30981, Note_on_c, 0, 62, 0
2,31020, Note_on_c, 0, 60, 84
2,31021, Note_on_c, 0, 52, 76
2,31471, Note_on_c, 0, 55, 48
2,31472, Note_on_c, 0, 60, 0
2,31500, Note_on_c, 0, 52, 0
2,31502, Note_on_c, 0, 84, 82
2,31556, Note_on_c, 0, 55, 0
2,31606, Note_on_c, 0, 83, 79
2,31651, Note_on_c, 0, 84, 0
2,31700, Note_on_c, 0, 81, 89
2,31790, Note_on_c, 0, 83, 0
2,31794, Note_on_c, 0, 79, 92
2,31840, Note_on_c, 0, 81, 0
2,31918, Note_on_c, 0, 60, 50
2,31919, Note_on_c, 0, 57, 43
2,31919, Note_on_c, 0, 77, 87
2,31920, Control_c, 0, 64, 18
2,31932, Note_on_c, 0, 79, 0
2,31938, Control_c, 0, 64, 42
2,31958, Control_c, 0, 64, 58
2,31977, Control_c, 0, 64, 64
2,31996, Control_c, 0, 64, 69
2,32015, Control_c, 0, 64, 77
2,32035, Control_c, 0, 64, 95
2,32054, Control_c, 0, 64, 127
2,32081, Note_on_c, 0, 57, 0
2,32098, Note_on_c, 0, 60, 0
2,32255, Note_on_c, 0, 77, 0
2,32374, Note_on_c, 0, 65, 43
2,32387, Note_on_c, 0, 81, 75
2,32406, Note_on_c, 0, 65, 0
2,32418, Control_c, 0, 64, 100
2,32438, Control_c, 0, 64, 77
2,32457, Control_c, 0, 64, 65
2,32476, Control_c, 0, 64, 53
2,32495, Control_c, 0, 64, 32
2,32500, Note_on_c, 0, 79, 65
2,32501, Note_on_c, 0, 81, 0
2,32515, Control_c, 0, 64, 0
2,32595, Note_on_c, 0, 77, 61
2,32632, Note_on_c, 0, 79, 0
2,32700, Note_on_c, 0, 76, 56
2,32712, Note_on_c, 0, 77, 0
2,32774, Note_on_c, 0, 47, 48
2,32775, Note_on_c, 0, 76, 0
2,32812, Note_on_c, 0, 74, 52
2,32852, Note_on_c, 0, 47, 0
2,32910, Note_on_c, 0, 74, 0
2,32930, Note_on_c, 0, 76, 54
2,32996, Note_on_c, 0, 76, 0
2,33033, Note_on_c, 0, 77, 49
2,33256, Note_on_c, 0, 62, 49
2,33334, Note_on_c, 0, 76, 57
2,33339, Note_on_c, 0, 77, 0
2,33366, Note_on_c, 0, 62, 0
2,33407, Note_on_c, 0, 76, 0
2,33445, Note_on_c, 0, 74, 55
2,33545, Note_on_c, 0, 72, 62
2,33546, Note_on_c, 0, 74, 0
2,33642, Note_on_c, 0, 72, 0
2,33662, Note_on_c, 0, 65, 41
2,33665, Note_on_c, 0, 71, 58
2,33719, Note_on_c, 0, 65, 0
2,33751, Note_on_c, 0, 71, 0
2,33776, Note_on_c, 0, 72, 64
2,33861, Note_on_c, 0, 72, 0
2,33888, Note_on_c, 0, 74, 58
2,34099, Note_on_c, 0, 62, 49
2,34203, Note_on_c, 0, 72, 64
2,34203, Note_on_c, 0, 74, 0
2,34204, Note_on_c, 0, 62, 0
2,34299, Note_on_c, 0, 71, 66
2,34299, Note_on_c, 0, 72, 0
2,34371, Note_on_c, 0, 71, 0
2,34402, Note_on_c, 0, 69, 67
2,34535, Note_on_c, 0, 69, 0
2,34548, Note_on_c, 0, 67, 58
2,34558, Note_on_c, 0, 59, 51
2,34627, Note_on_c, 0, 59, 0
2,35008, Note_on_c, 0, 53, 72
2,35008, Note_on_c, 0, 62, 72
2,35091, Note_on_c, 0, 62, 0
2,35118, Note_on_c, 0, 53, 0
2,35246, Note_on_c, 0, 69, 71
2,35256, Note_on_c, 0, 67, 0
2,35342, Note_on_c, 0, 69, 0
2,35347, Note_on_c, 0, 71, 73
2,35453, Note_on_c, 0, 71, 0
2,35461, Note_on_c, 0, 72, 79
2,35476, Note_on_c, 0, 50, 69
2,35481, Note_on_c, 0, 65, 66
2,35582, Note_on_c, 0, 71, 77
2,35589, Note_on_c, 0, 72, 0
2,35609, Note_on_c, 0, 50, 0
2,35612, Note_on_c, 0, 65, 0
2,35661, Note_on_c, 0, 71, 0
2,35685, Note_on_c, 0, 72, 74
2,35772, Note_on_c, 0, 71, 81
2,35788, Note_on_c, 0, 72, 0
2,35848, Note_on_c, 0, 71, 0
2,35859, Note_on_c, 0, 72, 74
2,35892, Note_on_c, 0, 62, 84
2,35901, Note_on_c, 0, 55, 72
2,35952, Note_on_c, 0, 71, 79
2,35954, Note_on_c, 0, 62, 0
2,36050, Note_on_c, 0, 55, 0
2,36059, Note_on_c, 0, 72, 0
2,36098, Note_on_c, 0, 71, 0
2,36099, Note_on_c, 0, 69, 78
2,36198, Note_on_c, 0, 69, 0
2,36201, Note_on_c, 0, 71, 84
2,36300, Note_on_c, 0, 52, 71
2,36312, Note_on_c, 0, 67, 75
2,36317, Note_on_c, 0, 72, 84
2,36353, Note_on_c, 0, 71, 0
2,36470, Control_c, 0, 64, 9
2,36489, Control_c, 0, 64, 11
2,36527, Control_c, 0, 64, 13
2,36547, Control_c, 0, 64, 15
2,36553, Note_on_c, 0, 67, 0
2,36589, Note_on_c, 0, 72, 0
2,36752, Note_on_c, 0, 52, 0
2,36755, Control_c, 0, 64, 17
2,36775, Note_on_c, 0, 60, 84
2,36978, Note_on_c, 0, 60, 0
2,36991, Note_on_c, 0, 52, 67
2,37024, Control_c, 0, 64, 15
2,37043, Control_c, 0, 64, 13
2,37063, Control_c, 0, 64, 11
2,37077, Note_on_c, 0, 54, 76
2,37090, Note_on_c, 0, 52, 0
2,37101, Control_c, 0, 64, 9
2,37194, Note_on_c, 0, 54, 0
2,37205, Note_on_c, 0, 55, 64
2,37218, Note_on_c, 0, 57, 85
2,37312, Control_c, 0, 64, 11
2,37319, Note_on_c, 0, 55, 0
2,37334, Note_on_c, 0, 54, 68
2,37363, Note_on_c, 0, 57, 0
2,37390, Note_on_c, 0, 54, 0
2,37427, Control_c, 0, 64, 13
2,37433, Note_on_c, 0, 55, 59
2,37486, Note_on_c, 0, 55, 0
2,37497, Note_on_c, 0, 54, 71
2,37542, Note_on_c, 0, 54, 0
2,37571, Note_on_c, 0, 55, 72
2,37619, Note_on_c, 0, 55, 0
2,37622, Note_on_c, 0, 54, 70
2,37673, Note_on_c, 0, 62, 88
2,37686, Note_on_c, 0, 54, 0
2,37706, Note_on_c, 0, 55, 75
2,37716, Control_c, 0, 64, 15
2,37736, Control_c, 0, 64, 17
2,37754, Control_c, 0, 64, 18
2,37781, Note_on_c, 0, 54, 66
2,37787, Note_on_c, 0, 55, 0
2,37812, Control_c, 0, 64, 19
2,37821, Note_on_c, 0, 62, 0
2,37831, Control_c, 0, 64, 22
2,37850, Control_c, 0, 64, 25
2,37870, Control_c, 0, 64, 26
2,37883, Note_on_c, 0, 54, 0
2,37887, Note_on_c, 0, 52, 62
2,37908, Control_c, 0, 64, 27
2,37947, Control_c, 0, 64, 27
2,37999, Note_on_c, 0, 54, 78
2,38021, Note_on_c, 0, 52, 0
2,38062, Control_c, 0, 64, 28
2,38119, Control_c, 0, 64, 29
2,38128, Note_on_c, 0, 59, 88
2,38144, Note_on_c, 0, 54, 0
2,38145, Note_on_c, 0, 55, 63
2,38158, Control_c, 0, 64, 29
2,38292, Note_on_c, 0, 59, 0
2,38541, Control_c, 0, 64, 29
2,38551, Note_on_c, 0, 55, 0
2,38580, Control_c, 0, 64, 28
2,38585, Note_on_c, 0, 52, 55
2,38605, Note_on_c, 0, 67, 89
2,38784, Note_on_c, 0, 52, 0
2,38790, Note_on_c, 0, 67, 0
2,38832, Note_on_c, 0, 59, 73
2,38907, Control_c, 0, 64, 27
2,38923, Note_on_c, 0, 61, 68
2,38925, Control_c, 0, 64, 27
2,38930, Note_on_c, 0, 59, 0
2,38945, Control_c, 0, 64, 26
2,38983, Control_c, 0, 64, 25
2,39002, Control_c, 0, 64, 23
2,39022, Control_c, 0, 64, 22
2,39030, Note_on_c, 0, 57, 49
2,39032, Note_on_c, 0, 61, 0
2,39041, Control_c, 0, 64, 21
2,39058, Note_on_c, 0, 62, 56
2,39060, Control_c, 0, 64, 20
2,39078, Note_on_c, 0, 64, 83
2,39181, Note_on_c, 0, 62, 0
2,39198, Note_on_c, 0, 61, 63
2,39220, Note_on_c, 0, 64, 0
2,39264, Note_on_c, 0, 61, 0
2,39294, Note_on_c, 0, 62, 65
2,39328, Control_c, 0, 64, 19
2,39339, Note_on_c, 0, 62, 0
2,39370, Note_on_c, 0, 61, 64
2,39387, Control_c, 0, 64, 18
2,39408, Note_on_c, 0, 61, 0
2,39423, Note_on_c, 0, 62, 76
2,39444, Control_c, 0, 64, 17
2,39480, Note_on_c, 0, 62, 0
2,39490, Note_on_c, 0, 61, 70
2,39522, Note_on_c, 0, 69, 88
2,39557, Note_on_c, 0, 61, 0
2,39561, Note_on_c, 0, 62, 64
2,39630, Note_on_c, 0, 61, 52
2,39643, Note_on_c, 0, 62, 0
2,39680, Note_on_c, 0, 69, 0
2,39725, Note_on_c, 0, 61, 0
2,39734, Note_on_c, 0, 59, 76
2,39774, Note_on_c, 0, 57, 0
2,39829, Note_on_c, 0, 61, 77
2,39850, Note_on_c, 0, 59, 0
2,39904, Control_c, 0, 64, 15
2,39964, Note_on_c, 0, 62, 64
2,39983, Note_on_c, 0, 61, 0
2,39987, Note_on_c, 0, 66, 79
2,40019, Control_c, 0, 64, 13
2,40151, Note_on_c, 0, 62, 0
2,40192, Control_c, 0, 64, 11
2,40440, Note_on_c, 0, 50, 61
2,40542, Note_on_c, 0, 66, 0
2,40595, Note_on_c, 0, 50, 0
2,40686, Note_on_c, 0, 66, 63
2,40786, Note_on_c, 0, 68, 57
2,40789, Note_on_c, 0, 66, 0
2,40866, Control_c, 0, 64, 9
2,40871, Note_on_c, 0, 68, 0
2,40882, Note_on_c, 0, 69, 62
2,40897, Note_on_c, 0, 47, 37
2,40924, Control_c, 0, 64, 0
2,40970, Note_on_c, 0, 69, 0
2,40998, Note_on_c, 0, 68, 62
2,41051, Note_on_c, 0, 68, 0
2,41085, Note_on_c, 0, 69, 64
2,41120, Note_on_c, 0, 47, 0
2,41160, Note_on_c, 0, 69, 0
2,41177, Note_on_c, 0, 68, 68
2,41219, Note_on_c, 0, 68, 0
2,41239, Note_on_c, 0, 69, 68
2,41300, Note_on_c, 0, 69, 0
2,41316, Note_on_c, 0, 68, 73
2,41342, Note_on_c, 0, 52, 53
2,41367, Note_on_c, 0, 68, 0
2,41391, Note_on_c, 0, 69, 60
2,41414, Note_on_c, 0, 52, 0
2,41437, Note_on_c, 0, 69, 0
2,41441, Note_on_c, 0, 68, 62
2,41513, Note_on_c, 0, 68, 0
2,41534, Note_on_c, 0, 66, 63
2,41615, Note_on_c, 0, 68, 71
2,41618, Note_on_c, 0, 66, 0
2,41725, Note_on_c, 0, 68, 0
2,41745, Note_on_c, 0, 69, 65
2,41764, Note_on_c, 0, 48, 51
2,41942, Note_on_c, 0, 69, 0
2,41963, Note_on_c, 0, 71, 66
2,42050, Note_on_c, 0, 72, 75
2,42056, Note_on_c, 0, 71, 0
2,42116, Note_on_c, 0, 72, 0
2,42154, Note_on_c, 0, 74, 76
2,42170, Note_on_c, 0, 45, 50
2,42192, Control_c, 0, 64, 9
2,42230, Note_on_c, 0, 48, 0
2,42260, Note_on_c, 0, 76, 77
2,42268, Note_on_c, 0, 74, 0
2,42275, Note_on_c, 0, 45, 0
2,42326, Control_c, 0, 64, 11
2,42364, Control_c, 0, 64, 13
2,42369, Note_on_c, 0, 78, 73
2,42384, Control_c, 0, 64, 15
2,42396, Note_on_c, 0, 76, 0
2,42404, Control_c, 0, 64, 17
2,42422, Control_c, 0, 64, 18
2,42442, Control_c, 0, 64, 19
2,42461, Control_c, 0, 64, 20
2,42477, Note_on_c, 0, 80, 75
2,42481, Control_c, 0, 64, 21
2,42499, Control_c, 0, 64, 23
2,42514, Note_on_c, 0, 78, 0
2,42519, Control_c, 0, 64, 27
2,42538, Control_c, 0, 64, 32
2,42557, Control_c, 0, 64, 39
2,42576, Control_c, 0, 64, 49
2,42596, Control_c, 0, 64, 56
2,42596, Note_on_c, 0, 42, 45
2,42615, Control_c, 0, 64, 61
2,42625, Note_on_c, 0, 81, 80
2,42634, Control_c, 0, 64, 64
2,42653, Control_c, 0, 64, 67
2,42653, Note_on_c, 0, 80, 0
2,42673, Control_c, 0, 64, 70
2,42691, Control_c, 0, 64, 78
2,42711, Control_c, 0, 64, 92
2,42730, Control_c, 0, 64, 115
2,42750, Control_c, 0, 64, 127
2,42852, Note_on_c, 0, 72, 82
2,43047, Note_on_c, 0, 42, 0
2,43074, Note_on_c, 0, 71, 88
2,43085, Note_on_c, 0, 72, 0
2,43088, Note_on_c, 0, 51, 58
2,43143, Note_on_c, 0, 51, 0
2,43250, Note_on_c, 0, 81, 0
2,43291, Note_on_c, 0, 78, 88
2,43394, Note_on_c, 0, 71, 0
2,43459, Control_c, 0, 64, 118
2,43479, Control_c, 0, 64, 72
2,43498, Control_c, 0, 64, 0
2,43533, Note_on_c, 0, 79, 99
2,43543, Note_on_c, 0, 40, 61
2,43543, Note_on_c, 0, 78, 0
2,43613, Control_c, 0, 64, 43
2,43633, Control_c, 0, 64, 62
2,43651, Control_c, 0, 64, 68
2,43671, Control_c, 0, 64, 79
2,43690, Control_c, 0, 64, 127
2,43727, Note_on_c, 0, 40, 0
2,43772, Note_on_c, 0, 71, 75
2,43941, Note_on_c, 0, 79, 0
2,43955, Note_on_c, 0, 71, 0
2,43999, Note_on_c, 0, 76, 85
2,44092, Note_on_c, 0, 74, 83
2,44119, Note_on_c, 0, 76, 0
2,44179, Note_on_c, 0, 74, 0
2,44192, Note_on_c, 0, 72, 84
2,44289, Note_on_c, 0, 71, 87
2,44294, Note_on_c, 0, 72, 0
2,44333, Note_on_c, 0, 71, 0
2,44400, Control_c, 0, 64, 109
2,44418, Control_c, 0, 64, 68
2,44431, Note_on_c, 0, 69, 60
2,44431, Note_on_c, 0, 84, 103
2,44438, Control_c, 0, 64, 0
2,44534, Control_c, 0, 64, 28
2,44553, Control_c, 0, 64, 61
2,44572, Control_c, 0, 64, 67
2,44592, Control_c, 0, 64, 74
2,44611, Control_c, 0, 64, 90
2,44630, Control_c, 0, 64, 127
2,44788, Note_on_c, 0, 84, 0
2,44798, Note_on_c, 0, 69, 0
2,44851, Note_on_c, 0, 72, 73
2,44901, Note_on_c, 0, 72, 0
2,44961, Note_on_c, 0, 71, 70
2,45039, Note_on_c, 0, 71, 0
2,45046, Note_on_c, 0, 69, 76
2,45117, Note_on_c, 0, 69, 0
2,45160, Note_on_c, 0, 67, 73
2,45201, Note_on_c, 0, 67, 0
2,45225, Control_c, 0, 64, 97
2,45244, Control_c, 0, 64, 70
2,45261, Control_c, 0, 64, 47
2,45265, Note_on_c, 0, 75, 79
2,45268, Note_on_c, 0, 66, 77
2,45281, Control_c, 0, 64, 0
2,45376, Note_on_c, 0, 67, 71
2,45378, Note_on_c, 0, 66, 0
2,45493, Note_on_c, 0, 69, 68
2,45510, Note_on_c, 0, 67, 0
2,45717, Note_on_c, 0, 60, 56
2,45751, Note_on_c, 0, 69, 0
2,45756, Note_on_c, 0, 75, 0
2,45801, Note_on_c, 0, 67, 67
2,45829, Note_on_c, 0, 60, 0
2,45900, Note_on_c, 0, 67, 0
2,45906, Note_on_c, 0, 66, 73
2,46012, Note_on_c, 0, 64, 70
2,46021, Note_on_c, 0, 66, 0
2,46112, Note_on_c, 0, 64, 0
2,46120, Note_on_c, 0, 54, 67
2,46123, Note_on_c, 0, 63, 77
2,46224, Note_on_c, 0, 64, 76
2,46238, Note_on_c, 0, 63, 0
2,46253, Note_on_c, 0, 54, 0
2,46337, Note_on_c, 0, 66, 76
2,46380, Note_on_c, 0, 64, 0
2,46583, Note_on_c, 0, 57, 84
2,46637, Note_on_c, 0, 66, 0
2,46677, Note_on_c, 0, 64, 72
2,46701, Note_on_c, 0, 57, 0
2,46785, Note_on_c, 0, 63, 77
2,46808, Note_on_c, 0, 64, 0
2,46888, Note_on_c, 0, 61, 80
2,46964, Note_on_c, 0, 63, 0
2,47011, Note_on_c, 0, 51, 74
2,47015, Note_on_c, 0, 59, 92
2,47042, Note_on_c, 0, 61, 0
2,47073, Note_on_c, 0, 59, 0
2,47473, Note_on_c, 0, 54, 66
2,47484, Note_on_c, 0, 81, 92
2,47529, Note_on_c, 0, 51, 0
2,47656, Note_on_c, 0, 81, 0
2,47662, Note_on_c, 0, 54, 0
2,47696, Note_on_c, 0, 61, 61
2,47790, Note_on_c, 0, 61, 0
2,47790, Note_on_c, 0, 63, 74
2,47915, Note_on_c, 0, 63, 0
2,47924, Note_on_c, 0, 59, 53
2,47942, Note_on_c, 0, 64, 59
2,47955, Note_on_c, 0, 78, 91
2,48073, Note_on_c, 0, 64, 0
2,48096, Note_on_c, 0, 63, 67
2,48103, Note_on_c, 0, 78, 0
2,48156, Note_on_c, 0, 63, 0
2,48189, Note_on_c, 0, 64, 71
2,48230, Note_on_c, 0, 64, 0
2,48267, Note_on_c, 0, 63, 67
2,48305, Note_on_c, 0, 63, 0
2,48318, Note_on_c, 0, 64, 77
2,48367, Note_on_c, 0, 59, 0
2,48367, Note_on_c, 0, 59, 8
2,48379, Note_on_c, 0, 64, 0
2,48384, Note_on_c, 0, 63, 67
2,48426, Note_on_c, 0, 83, 93
2,48449, Note_on_c, 0, 64, 62
2,48453, Note_on_c, 0, 63, 0
2,48546, Note_on_c, 0, 64, 0
2,48550, Note_on_c, 0, 63, 61
2,48591, Note_on_c, 0, 83, 0
2,48640, Note_on_c, 0, 61, 69
2,48644, Note_on_c, 0, 63, 0
2,48647, Note_on_c, 0, 59, 0
2,48681, Control_c, 0, 64, 22
2,48700, Control_c, 0, 64, 29
2,48720, Control_c, 0, 64, 33
2,48736, Note_on_c, 0, 63, 74
2,48738, Control_c, 0, 64, 35
2,48757, Note_on_c, 0, 61, 0
2,48758, Control_c, 0, 64, 36
2,48777, Control_c, 0, 64, 36
2,48796, Control_c, 0, 64, 37
2,48805, Note_on_c, 0, 63, 0
2,48815, Control_c, 0, 64, 38
2,48870, Note_on_c, 0, 64, 67
2,48886, Note_on_c, 0, 79, 85
2,48890, Note_on_c, 0, 52, 50
2,49081, Note_on_c, 0, 64, 0
2,49113, Note_on_c, 0, 79, 0
2,49242, Note_on_c, 0, 52, 0
2,49366, Note_on_c, 0, 76, 76
2,49471, Note_on_c, 0, 40, 76
2,49543, Note_on_c, 0, 76, 0
2,49545, Control_c, 0, 64, 36
2,49564, Control_c, 0, 64, 34
2,49565, Note_on_c, 0, 40, 0
2,49576, Note_on_c, 0, 41, 69
2,49583, Control_c, 0, 64, 33
2,49603, Control_c, 0, 64, 32
2,49621, Control_c, 0, 64, 31
2,49641, Control_c, 0, 64, 29
2,49660, Control_c, 0, 64, 24
2,49665, Note_on_c, 0, 41, 0
2,49673, Note_on_c, 0, 43, 69
2,49680, Control_c, 0, 64, 21
2,49698, Control_c, 0, 64, 19
2,49718, Control_c, 0, 64, 15
2,49737, Control_c, 0, 64, 0
2,49772, Note_on_c, 0, 43, 0
2,49809, Note_on_c, 0, 45, 55
2,49815, Note_on_c, 0, 73, 65
2,50044, Note_on_c, 0, 45, 0
2,50095, Note_on_c, 0, 73, 0
2,50271, Note_on_c, 0, 81, 61
2,50370, Note_on_c, 0, 43, 50
2,50389, Control_c, 0, 64, 9
2,50408, Control_c, 0, 64, 13
2,50427, Control_c, 0, 64, 18
2,50446, Control_c, 0, 64, 20
2,50452, Note_on_c, 0, 43, 0
2,50465, Control_c, 0, 64, 21
2,50480, Note_on_c, 0, 41, 56
2,50485, Control_c, 0, 64, 22
2,50493, Note_on_c, 0, 81, 0
2,50504, Control_c, 0, 64, 23
2,50523, Control_c, 0, 64, 24
2,50542, Control_c, 0, 64, 26
2,50546, Note_on_c, 0, 41, 0
2,50569, Note_on_c, 0, 40, 55
2,50581, Control_c, 0, 64, 27
2,50639, Control_c, 0, 64, 27
2,50657, Control_c, 0, 64, 28
2,50680, Note_on_c, 0, 40, 0
2,50696, Control_c, 0, 64, 29
2,50719, Note_on_c, 0, 38, 51
2,50721, Note_on_c, 0, 77, 60
2,50767, Note_on_c, 0, 38, 0
2,51120, Control_c, 0, 64, 28
2,51151, Note_on_c, 0, 62, 47
2,51204, Note_on_c, 0, 62, 0
2,51230, Note_on_c, 0, 77, 0
2,51254, Control_c, 0, 64, 27
2,51259, Note_on_c, 0, 74, 49
2,51273, Control_c, 0, 64, 27
2,51312, Control_c, 0, 64, 26
2,51331, Control_c, 0, 64, 25
2,51344, Note_on_c, 0, 74, 0
2,51369, Control_c, 0, 64, 24
2,51369, Note_on_c, 0, 76, 56
2,51388, Control_c, 0, 64, 23
2,51443, Note_on_c, 0, 76, 0
2,51446, Control_c, 0, 64, 22
2,51471, Note_on_c, 0, 77, 64
2,51594, Note_on_c, 0, 77, 0
2,51599, Note_on_c, 0, 59, 43
2,51608, Note_on_c, 0, 79, 61
2,51659, Note_on_c, 0, 59, 0
2,52081, Note_on_c, 0, 67, 39
2,52117, Note_on_c, 0, 67, 0
2,52172, Note_on_c, 0, 77, 52
2,52175, Note_on_c, 0, 79, 0
2,52297, Note_on_c, 0, 76, 59
2,52305, Note_on_c, 0, 77, 0
2,52385, Note_on_c, 0, 74, 60
2,52392, Note_on_c, 0, 76, 0
2,52476, Note_on_c, 0, 74, 0
2,52500, Note_on_c, 0, 64, 43
2,52512, Note_on_c, 0, 72, 59
2,52541, Note_on_c, 0, 64, 0
2,52972, Note_on_c, 0, 57, 45
2,53025, Note_on_c, 0, 57, 0
2,53032, Note_on_c, 0, 72, 0
2,53070, Note_on_c, 0, 76, 52
2,53150, Note_on_c, 0, 76, 0
2,53171, Note_on_c, 0, 77, 58
2,53221, Note_on_c, 0, 77, 0
2,53272, Note_on_c, 0, 79, 64
2,53392, Note_on_c, 0, 79, 0
2,53396, Note_on_c, 0, 81, 61
2,53403, Note_on_c, 0, 53, 49
2,53471, Note_on_c, 0, 53, 0
2,53477, Note_on_c, 0, 81, 0
2,53503, Note_on_c, 0, 82, 65
2,53612, Note_on_c, 0, 81, 68
2,53634, Note_on_c, 0, 82, 0
2,53701, Note_on_c, 0, 79, 75
2,53718, Note_on_c, 0, 81, 0
2,53793, Note_on_c, 0, 79, 0
2,53813, Note_on_c, 0, 62, 57
2,53817, Note_on_c, 0, 77, 67
2,53892, Note_on_c, 0, 62, 0
2,53916, Note_on_c, 0, 76, 74
2,53925, Note_on_c, 0, 77, 0
2,54020, Note_on_c, 0, 74, 72
2,54027, Note_on_c, 0, 76, 0
2,54100, Note_on_c, 0, 74, 0
2,54118, Note_on_c, 0, 72, 75
2,54222, Note_on_c, 0, 71, 76
2,54224, Note_on_c, 0, 72, 0
2,54225, Note_on_c, 0, 56, 62
2,54298, Note_on_c, 0, 56, 0
2,54322, Note_on_c, 0, 71, 0
2,54331, Note_on_c, 0, 72, 80
2,54437, Note_on_c, 0, 71, 73
2,54458, Note_on_c, 0, 72, 0
2,54510, Note_on_c, 0, 71, 0
2,54517, Control_c, 0, 64, 23
2,54533, Note_on_c, 0, 69, 73
2,54536, Control_c, 0, 64, 24
2,54574, Control_c, 0, 64, 25
2,54594, Control_c, 0, 64, 26
2,54613, Control_c, 0, 64, 27
2,54632, Control_c, 0, 64, 27
2,54642, Note_on_c, 0, 68, 79
2,54645, Note_on_c, 0, 69, 0
2,54651, Control_c, 0, 64, 28
2,54652, Note_on_c, 0, 52, 71
2,54732, Note_on_c, 0, 52, 0
2,54738, Note_on_c, 0, 66, 74
2,54756, Note_on_c, 0, 68, 0
2,54824, Note_on_c, 0, 66, 0
2,54854, Note_on_c, 0, 64, 75
2,54907, Note_on_c, 0, 64, 0
2,54951, Note_on_c, 0, 62, 79
2,55043, Note_on_c, 0, 62, 0
2,55054, Control_c, 0, 64, 29
2,55063, Note_on_c, 0, 60, 79
2,55071, Note_on_c, 0, 57, 71
2,55131, Control_c, 0, 64, 29
2,55151, Control_c, 0, 64, 30
2,55166, Note_on_c, 0, 60, 0
2,55170, Control_c, 0, 64, 31
2,55173, Note_on_c, 0, 64, 84
2,55272, Note_on_c, 0, 65, 79
2,55273, Note_on_c, 0, 64, 0
2,55336, Note_on_c, 0, 65, 0
2,55373, Note_on_c, 0, 67, 76
2,55457, Control_c, 0, 64, 30
2,55478, Note_on_c, 0, 72, 88
2,55488, Note_on_c, 0, 67, 0
2,55490, Note_on_c, 0, 69, 83
2,55496, Control_c, 0, 64, 29
2,55516, Control_c, 0, 64, 29
2,55534, Control_c, 0, 64, 28
2,55554, Control_c, 0, 64, 27
2,55573, Control_c, 0, 64, 27
2,55578, Note_on_c, 0, 69, 0
2,55592, Control_c, 0, 64, 26
2,55593, Note_on_c, 0, 67, 74
2,55601, Note_on_c, 0, 72, 0
2,55611, Control_c, 0, 64, 24
2,55631, Control_c, 0, 64, 23
2,55650, Control_c, 0, 64, 21
2,55668, Control_c, 0, 64, 20
2,55680, Note_on_c, 0, 57, 0
2,55688, Control_c, 0, 64, 19
2,55693, Note_on_c, 0, 65, 81
2,55705, Note_on_c, 0, 67, 0
2,55707, Control_c, 0, 64, 18
2,55726, Control_c, 0, 64, 15
2,55745, Control_c, 0, 64, 13
2,55765, Control_c, 0, 64, 11
2,55784, Control_c, 0, 64, 9
2,55788, Note_on_c, 0, 64, 79
2,55793, Note_on_c, 0, 65, 0
2,55823, Control_c, 0, 64, 0
2,55887, Note_on_c, 0, 64, 0
2,55902, Note_on_c, 0, 71, 85
2,55905, Note_on_c, 0, 62, 75
2,55999, Note_on_c, 0, 57, 67
2,56049, Note_on_c, 0, 71, 0
2,56056, Note_on_c, 0, 62, 0
2,56090, Note_on_c, 0, 57, 0
2,56103, Note_on_c, 0, 59, 67
2,56188, Note_on_c, 0, 59, 0
2,56197, Note_on_c, 0, 60, 68
2,56286, Note_on_c, 0, 60, 0
2,56312, Note_on_c, 0, 62, 63
2,56339, Note_on_c, 0, 65, 76
2,56411, Note_on_c, 0, 62, 0
2,56418, Control_c, 0, 64, 11
2,56429, Note_on_c, 0, 60, 61
2,56438, Control_c, 0, 64, 13
2,56457, Control_c, 0, 64, 15
2,56476, Control_c, 0, 64, 17
2,56495, Control_c, 0, 64, 18
2,56506, Note_on_c, 0, 65, 0
2,56514, Note_on_c, 0, 60, 0
2,56517, Note_on_c, 0, 59, 74
2,56534, Control_c, 0, 64, 20
2,56553, Control_c, 0, 64, 21
2,56566, Note_on_c, 0, 59, 0
2,56572, Control_c, 0, 64, 22
2,56592, Control_c, 0, 64, 23
2,56610, Note_on_c, 0, 57, 77
2,56732, Note_on_c, 0, 56, 69
2,56733, Note_on_c, 0, 57, 0
2,56745, Control_c, 0, 64, 24
2,56755, Note_on_c, 0, 59, 89
2,56783, Control_c, 0, 64, 25
2,56803, Control_c, 0, 64, 26
2,56821, Control_c, 0, 64, 27
2,56841, Control_c, 0, 64, 28
2,56846, Note_on_c, 0, 56, 0
2,56860, Control_c, 0, 64, 29
2,56871, Note_on_c, 0, 57, 76
2,56880, Control_c, 0, 64, 31
2,56898, Control_c, 0, 64, 32
2,56918, Control_c, 0, 64, 33
2,56926, Note_on_c, 0, 59, 0
2,56937, Control_c, 0, 64, 34
2,56956, Control_c, 0, 64, 34
2,56975, Control_c, 0, 64, 35
2,56975, Note_on_c, 0, 56, 83
2,56977, Note_on_c, 0, 57, 0
2,56995, Control_c, 0, 64, 35
2,57014, Control_c, 0, 64, 36
2,57068, Note_on_c, 0, 54, 76
2,57091, Note_on_c, 0, 56, 0
2,57154, Note_on_c, 0, 54, 0
2,57166, Note_on_c, 0, 62, 90
2,57193, Note_on_c, 0, 52, 80
2,57296, Note_on_c, 0, 52, 0
2,57297, Note_on_c, 0, 50, 80
2,57353, Note_on_c, 0, 62, 0
2,57384, Note_on_c, 0, 48, 78
2,57406, Note_on_c, 0, 50, 0
2,57486, Note_on_c, 0, 47, 76
2,57515, Note_on_c, 0, 48, 0
2,57532, Control_c, 0, 64, 35
2,57552, Control_c, 0, 64, 34
2,57571, Control_c, 0, 64, 34
2,57589, Control_c, 0, 64, 33
2,57625, Note_on_c, 0, 47, 0
2,57633, Note_on_c, 0, 45, 73
2,57648, Note_on_c, 0, 60, 91
2,57666, Control_c, 0, 64, 34
2,57689, Control_c, 0, 64, 41
2,57708, Control_c, 0, 64, 53
2,57727, Control_c, 0, 64, 60
2,57746, Control_c, 0, 64, 63
2,57766, Control_c, 0, 64, 65
2,57784, Control_c, 0, 64, 69
2,57804, Control_c, 0, 64, 74
2,57823, Control_c, 0, 64, 82
2,57834, Note_on_c, 0, 45, 0
2,57843, Control_c, 0, 64, 90
2,57861, Control_c, 0, 64, 92
2,57873, Note_on_c, 0, 64, 89
2,57892, Note_on_c, 0, 60, 0
2,58034, Control_c, 0, 64, 91
2,58054, Control_c, 0, 64, 88
2,58072, Control_c, 0, 64, 78
2,58092, Control_c, 0, 64, 66
2,58111, Control_c, 0, 64, 34
2,58116, Note_on_c, 0, 69, 98
2,58122, Note_on_c, 0, 57, 69
2,58130, Control_c, 0, 64, 0
2,58140, Note_on_c, 0, 64, 0
2,58217, Note_on_c, 0, 57, 0
2,58219, Note_on_c, 0, 55, 73
2,58312, Note_on_c, 0, 53, 78
2,58324, Note_on_c, 0, 55, 0
2,58414, Note_on_c, 0, 52, 74
2,58429, Note_on_c, 0, 53, 0
2,58542, Note_on_c, 0, 52, 0
2,58550, Note_on_c, 0, 50, 77
2,58572, Note_on_c, 0, 65, 87
2,58576, Note_on_c, 0, 69, 0
2,58789, Note_on_c, 0, 50, 0
2,58792, Note_on_c, 0, 57, 82
2,58812, Note_on_c, 0, 65, 0
2,59024, Note_on_c, 0, 62, 81
2,59032, Note_on_c, 0, 53, 73
2,59054, Note_on_c, 0, 57, 0
2,59115, Note_on_c, 0, 53, 0
2,59132, Note_on_c, 0, 52, 70
2,59223, Note_on_c, 0, 50, 74
2,59227, Note_on_c, 0, 52, 0
2,59243, Note_on_c, 0, 62, 0
2,59325, Note_on_c, 0, 48, 60
2,59350, Note_on_c, 0, 50, 0
2,59425, Note_on_c, 0, 48, 0
2,59449, Note_on_c, 0, 47, 52
2,59473, Note_on_c, 0, 56, 80
2,59546, Note_on_c, 0, 47, 0
2,59574, Note_on_c, 0, 48, 61
2,59613, Note_on_c, 0, 56, 0
2,59694, Note_on_c, 0, 50, 58
2,59696, Note_on_c, 0, 48, 0
2,59965, Note_on_c, 0, 77, 64
2,59985, Note_on_c, 0, 50, 0
2,60044, Note_on_c, 0, 48, 52
2,60131, Note_on_c, 0, 48, 0
2,60153, Note_on_c, 0, 47, 63
2,60169, Note_on_c, 0, 77, 0
2,60247, Note_on_c, 0, 47, 0
2,60248, Note_on_c, 0, 45, 67
2,60356, Note_on_c, 0, 45, 0
2,60381, Note_on_c, 0, 44, 54
2,60400, Note_on_c, 0, 71, 76
2,60512, Note_on_c, 0, 44, 0
2,60513, Note_on_c, 0, 45, 57
2,60576, Note_on_c, 0, 71, 0
2,60604, Note_on_c, 0, 45, 0
2,60638, Note_on_c, 0, 47, 55
2,60887, Note_on_c, 0, 74, 63
2,60971, Note_on_c, 0, 47, 0
2,60997, Note_on_c, 0, 45, 55
2,61018, Note_on_c, 0, 74, 0
2,61086, Note_on_c, 0, 44, 62
2,61101, Note_on_c, 0, 45, 0
2,61189, Note_on_c, 0, 44, 0
2,61193, Note_on_c, 0, 42, 60
2,61324, Note_on_c, 0, 42, 0
2,61338, Note_on_c, 0, 40, 44
2,61350, Note_on_c, 0, 68, 70
2,61515, Note_on_c, 0, 68, 0
2,61813, Note_on_c, 0, 62, 83
2,62005, Note_on_c, 0, 62, 0
2,62045, Note_on_c, 0, 42, 69
2,62074, Note_on_c, 0, 40, 0
2,62144, Note_on_c, 0, 44, 74
2,62167, Note_on_c, 0, 42, 0
2,62263, Note_on_c, 0, 71, 90
2,62270, Note_on_c, 0, 59, 87
2,62279, Note_on_c, 0, 44, 0
2,62287, Note_on_c, 0, 45, 55
2,62402, Note_on_c, 0, 45, 0
2,62409, Note_on_c, 0, 44, 68
2,62415, Note_on_c, 0, 59, 0
2,62450, Note_on_c, 0, 71, 0
2,62469, Note_on_c, 0, 44, 0
2,62488, Note_on_c, 0, 45, 72
2,62573, Note_on_c, 0, 45, 0
2,62574, Note_on_c, 0, 44, 78
2,62636, Note_on_c, 0, 44, 0
2,62644, Note_on_c, 0, 45, 65
2,62703, Note_on_c, 0, 44, 64
2,62705, Note_on_c, 0, 45, 0
2,62735, Note_on_c, 0, 64, 88
2,62781, Note_on_c, 0, 45, 71
2,62785, Note_on_c, 0, 44, 0
2,62873, Note_on_c, 0, 44, 58
2,62888, Note_on_c, 0, 45, 0
2,62890, Note_on_c, 0, 64, 0
2,62944, Control_c, 0, 64, 11
2,62955, Note_on_c, 0, 44, 0
2,62958, Note_on_c, 0, 42, 71
2,62963, Control_c, 0, 64, 18
2,62983, Control_c, 0, 64, 19
2,63001, Control_c, 0, 64, 20
2,63054, Note_on_c, 0, 44, 79
2,63092, Note_on_c, 0, 42, 0
2,63177, Control_c, 0, 64, 23
2,63196, Control_c, 0, 64, 37
2,63197, Note_on_c, 0, 60, 93
2,63201, Note_on_c, 0, 45, 67
2,63215, Control_c, 0, 64, 55
2,63223, Note_on_c, 0, 44, 0
2,63235, Control_c, 0, 64, 62
2,63254, Control_c, 0, 64, 66
2,63273, Control_c, 0, 64, 70
2,63292, Control_c, 0, 64, 80
2,63312, Control_c, 0, 64, 97
2,63325, Note_on_c, 0, 60, 0
2,63331, Control_c, 0, 64, 127
2,63636, Control_c, 0, 64, 83
2,63640, Note_on_c, 0, 76, 85
2,63655, Control_c, 0, 64, 67
2,63675, Control_c, 0, 64, 56
2,63693, Control_c, 0, 64, 37
2,63713, Control_c, 0, 64, 11
2,63732, Control_c, 0, 64, 0
2,63744, Note_on_c, 0, 74, 82
2,63783, Note_on_c, 0, 76, 0
2,63842, Note_on_c, 0, 72, 92
2,63850, Note_on_c, 0, 47, 60
2,63851, Note_on_c, 0, 45, 0
2,63900, Note_on_c, 0, 74, 0
2,63946, Note_on_c, 0, 47, 0
2,63946, Note_on_c, 0, 71, 90
2,63956, Note_on_c, 0, 48, 70
2,63980, Note_on_c, 0, 72, 0
2,64061, Note_on_c, 0, 69, 96
2,64064, Note_on_c, 0, 49, 73
2,64076, Note_on_c, 0, 71, 0
2,64082, Note_on_c, 0, 48, 0
2,64138, Note_on_c, 0, 49, 0
2,64186, Note_on_c, 0, 50, 77
2,64276, Note_on_c, 0, 73, 88
2,64297, Note_on_c, 0, 49, 71
2,64298, Note_on_c, 0, 50, 0
2,64381, Note_on_c, 0, 49, 0
2,64389, Note_on_c, 0, 76, 87
2,64396, Note_on_c, 0, 50, 76
2,64429, Note_on_c, 0, 73, 0
2,64487, Note_on_c, 0, 50, 0
2,64500, Note_on_c, 0, 49, 75
2,64517, Note_on_c, 0, 79, 95
2,64554, Note_on_c, 0, 76, 0
2,64562, Note_on_c, 0, 77, 41
2,64594, Note_on_c, 0, 77, 0
2,64605, Note_on_c, 0, 49, 0
2,64611, Note_on_c, 0, 50, 76
2,64726, Note_on_c, 0, 50, 0
2,64733, Note_on_c, 0, 47, 71
2,64842, Note_on_c, 0, 49, 80
2,64875, Note_on_c, 0, 47, 0
2,64989, Note_on_c, 0, 49, 0
2,64993, Note_on_c, 0, 77, 80
2,65015, Note_on_c, 0, 50, 60
2,65046, Note_on_c, 0, 79, 0
2,65137, Note_on_c, 0, 69, 0
2,65381, Note_on_c, 0, 77, 0
2,65429, Note_on_c, 0, 69, 49
2,65479, Note_on_c, 0, 69, 0
2,65537, Note_on_c, 0, 67, 58
2,65597, Note_on_c, 0, 67, 0
2,65608, Note_on_c, 0, 50, 0
2,65628, Note_on_c, 0, 52, 37
2,65639, Note_on_c, 0, 65, 53
2,65694, Note_on_c, 0, 65, 0
2,65695, Note_on_c, 0, 52, 0
2,65726, Note_on_c, 0, 53, 44
2,65728, Note_on_c, 0, 64, 60
2,65796, Note_on_c, 0, 64, 0
2,65812, Note_on_c, 0, 53, 0
2,65836, Note_on_c, 0, 54, 55
2,65847, Note_on_c, 0, 62, 54
2,65903, Note_on_c, 0, 54, 0
2,65971, Note_on_c, 0, 55, 51
2,66043, Note_on_c, 0, 55, 0
2,66044, Note_on_c, 0, 62, 0
2,66056, Note_on_c, 0, 66, 55
2,66066, Note_on_c, 0, 54, 49
2,66134, Note_on_c, 0, 54, 0
2,66137, Note_on_c, 0, 66, 0
2,66145, Note_on_c, 0, 69, 62
2,66180, Note_on_c, 0, 55, 53
2,66237, Note_on_c, 0, 69, 0
2,66237, Note_on_c, 0, 72, 69
2,66242, Note_on_c, 0, 55, 0
2,66272, Note_on_c, 0, 54, 49
2,66331, Note_on_c, 0, 54, 0
2,66358, Note_on_c, 0, 55, 61
2,66435, Note_on_c, 0, 55, 0
2,66468, Note_on_c, 0, 52, 55
2,66569, Note_on_c, 0, 54, 66
2,66573, Note_on_c, 0, 52, 0
2,66654, Note_on_c, 0, 72, 0
2,66670, Note_on_c, 0, 54, 0
2,66697, Note_on_c, 0, 71, 71
2,66709, Note_on_c, 0, 55, 46
2,66910, Note_on_c, 0, 74, 82
2,66916, Note_on_c, 0, 71, 0
2,67001, Note_on_c, 0, 72, 91
2,67033, Note_on_c, 0, 74, 0
2,67107, Note_on_c, 0, 71, 96
2,67133, Note_on_c, 0, 72, 0
2,67227, Control_c, 0, 64, 11
2,67335, Note_on_c, 0, 72, 93
2,67342, Control_c, 0, 64, 9
2,67343, Note_on_c, 0, 55, 0
2,67351, Note_on_c, 0, 71, 0
2,67357, Note_on_c, 0, 57, 57
2,67362, Control_c, 0, 64, 0
2,67427, Note_on_c, 0, 57, 0
2,67430, Note_on_c, 0, 74, 87
2,67438, Note_on_c, 0, 59, 70
2,67456, Note_on_c, 0, 72, 0
2,67541, Note_on_c, 0, 59, 0
2,67547, Note_on_c, 0, 67, 92
2,67557, Note_on_c, 0, 60, 69
2,67587, Note_on_c, 0, 74, 0
2,67665, Note_on_c, 0, 60, 0
2,67676, Note_on_c, 0, 59, 72
2,67726, Note_on_c, 0, 59, 0
2,67772, Note_on_c, 0, 60, 62
2,67827, Note_on_c, 0, 60, 0
2,67846, Note_on_c, 0, 59, 72
2,67895, Note_on_c, 0, 59, 0
2,67925, Note_on_c, 0, 60, 69
2,67963, Note_on_c, 0, 60, 0
2,67976, Note_on_c, 0, 59, 64
2,68011, Note_on_c, 0, 77, 96
2,68035, Note_on_c, 0, 59, 0
2,68050, Note_on_c, 0, 60, 68
2,68143, Note_on_c, 0, 60, 0
2,68150, Note_on_c, 0, 59, 60
2,68218, Note_on_c, 0, 59, 0
2,68239, Note_on_c, 0, 57, 72
2,68341, Note_on_c, 0, 57, 0
2,68343, Note_on_c, 0, 59, 81
2,68475, Note_on_c, 0, 59, 0
2,68489, Note_on_c, 0, 76, 77
2,68499, Note_on_c, 0, 60, 55
2,68500, Note_on_c, 0, 77, 0
2,68525, Note_on_c, 0, 67, 0
2,68668, Note_on_c, 0, 76, 0
2,68719, Note_on_c, 0, 67, 56
2,68782, Note_on_c, 0, 67, 0
2,68818, Note_on_c, 0, 65, 60
2,68893, Note_on_c, 0, 65, 0
2,68942, Note_on_c, 0, 64, 53
2,69116, Note_on_c, 0, 64, 0
2,69121, Note_on_c, 0, 60, 0
2,69144, Note_on_c, 0, 65, 56
2,69154, Note_on_c, 0, 62, 47
2,69214, Note_on_c, 0, 65, 0
2,69218, Note_on_c, 0, 62, 0
2,69246, Note_on_c, 0, 67, 58
2,69273, Note_on_c, 0, 64, 35
2,69319, Note_on_c, 0, 64, 0
2,69340, Note_on_c, 0, 67, 0
2,69382, Note_on_c, 0, 60, 53
2,69405, Note_on_c, 0, 65, 25
2,69461, Note_on_c, 0, 65, 0
2,69475, Note_on_c, 0, 64, 48
2,69539, Note_on_c, 0, 64, 0
2,69597, Note_on_c, 0, 65, 47
2,69637, Note_on_c, 0, 65, 0
2,69653, Note_on_c, 0, 64, 44
2,69697, Note_on_c, 0, 64, 0
2,69734, Note_on_c, 0, 60, 0
2,69738, Note_on_c, 0, 65, 56
2,69780, Note_on_c, 0, 70, 63
2,69786, Note_on_c, 0, 65, 0
2,69821, Note_on_c, 0, 64, 53
2,69917, Note_on_c, 0, 64, 0
2,69969, Note_on_c, 0, 62, 44
2,70056, Note_on_c, 0, 62, 0
2,70076, Note_on_c, 0, 64, 57
2,70156, Note_on_c, 0, 64, 0
2,70177, Note_on_c, 0, 70, 0
2,70193, Note_on_c, 0, 69, 60
2,70221, Note_on_c, 0, 65, 41
2,70404, Note_on_c, 0, 69, 0
2,70419, Note_on_c, 0, 71, 68
2,70508, Note_on_c, 0, 71, 0
2,70522, Note_on_c, 0, 73, 67
2,70591, Note_on_c, 0, 73, 0
2,70617, Note_on_c, 0, 74, 67
2,70822, Note_on_c, 0, 65, 0
2,70848, Note_on_c, 0, 67, 43
2,70927, Note_on_c, 0, 67, 0
2,70942, Note_on_c, 0, 69, 56
2,71035, Note_on_c, 0, 69, 0
2,71068, Note_on_c, 0, 81, 67
2,71091, Note_on_c, 0, 70, 50
2,71182, Note_on_c, 0, 70, 0
2,71191, Note_on_c, 0, 69, 60
2,71249, Note_on_c, 0, 69, 0
2,71345, Note_on_c, 0, 70, 13
2,71355, Note_on_c, 0, 70, 0
2,71369, Note_on_c, 0, 69, 47
2,71401, Note_on_c, 0, 69, 0
2,71411, Note_on_c, 0, 70, 38
2,71461, Note_on_c, 0, 70, 0
2,71491, Note_on_c, 0, 73, 68
2,71518, Note_on_c, 0, 69, 58
2,71525, Note_on_c, 0, 74, 0
2,71687, Note_on_c, 0, 69, 0
2,71733, Note_on_c, 0, 67, 44
2,71809, Note_on_c, 0, 67, 0
2,71821, Note_on_c, 0, 69, 64
2,71887, Note_on_c, 0, 69, 0
2,71946, Note_on_c, 0, 81, 0
2,71957, Note_on_c, 0, 77, 69
2,71961, Note_on_c, 0, 70, 51
2,71964, Note_on_c, 0, 73, 0
2,71980, Note_on_c, 0, 74, 53
2,72122, Note_on_c, 0, 70, 0
2,72185, Note_on_c, 0, 58, 52
2,72256, Note_on_c, 0, 58, 0
2,72282, Note_on_c, 0, 60, 53
2,72350, Note_on_c, 0, 60, 0
2,72364, Note_on_c, 0, 74, 0
2,72389, Note_on_c, 0, 62, 66
2,72397, Note_on_c, 0, 77, 0
2,72466, Note_on_c, 0, 62, 0
2,72494, Note_on_c, 0, 60, 57
2,72595, Note_on_c, 0, 60, 0
2,72607, Note_on_c, 0, 58, 55
2,72658, Note_on_c, 0, 58, 0
2,72703, Note_on_c, 0, 57, 63
2,72778, Note_on_c, 0, 57, 0
2,72811, Note_on_c, 0, 82, 80
2,72814, Note_on_c, 0, 55, 59
2,72897, Note_on_c, 0, 55, 0
2,72933, Note_on_c, 0, 53, 55
2,73029, Note_on_c, 0, 53, 0
2,73052, Note_on_c, 0, 82, 0
2,73053, Note_on_c, 0, 55, 56
2,73097, Note_on_c, 0, 55, 0
2,73146, Note_on_c, 0, 57, 59
2,73235, Note_on_c, 0, 57, 0
2,73250, Note_on_c, 0, 58, 67
2,73331, Note_on_c, 0, 58, 0
2,73358, Note_on_c, 0, 57, 74
2,73459, Note_on_c, 0, 57, 0
2,73463, Note_on_c, 0, 55, 68
2,73567, Note_on_c, 0, 55, 0
2,73573, Note_on_c, 0, 53, 67
2,73651, Note_on_c, 0, 73, 75
2,73682, Note_on_c, 0, 53, 0
2,73695, Note_on_c, 0, 52, 58
2,73789, Note_on_c, 0, 53, 66
2,73811, Note_on_c, 0, 52, 0
2,73820, Note_on_c, 0, 73, 0
2,73850, Control_c, 0, 64, 9
2,73869, Control_c, 0, 64, 11
2,73881, Note_on_c, 0, 55, 74
2,73888, Note_on_c, 0, 53, 0
2,73889, Control_c, 0, 64, 15
2,73907, Control_c, 0, 64, 17
2,73946, Control_c, 0, 64, 18
2,73984, Control_c, 0, 64, 19
2,74004, Control_c, 0, 64, 20
2,74023, Control_c, 0, 64, 21
2,74042, Control_c, 0, 64, 22
2,74062, Control_c, 0, 64, 23
2,74082, Control_c, 0, 64, 24
2,74122, Note_on_c, 0, 70, 79
2,74177, Control_c, 0, 64, 25
2,74216, Control_c, 0, 64, 26
2,74240, Note_on_c, 0, 55, 0
2,74247, Note_on_c, 0, 53, 66
2,74254, Control_c, 0, 64, 27
2,74274, Control_c, 0, 64, 27
2,74293, Control_c, 0, 64, 29
2,74297, Note_on_c, 0, 70, 0
2,74311, Control_c, 0, 64, 31
2,74331, Control_c, 0, 64, 34
2,74347, Note_on_c, 0, 52, 72
2,74350, Control_c, 0, 64, 35
2,74357, Note_on_c, 0, 53, 0
2,74370, Control_c, 0, 64, 36
2,74388, Control_c, 0, 64, 36
2,74408, Control_c, 0, 64, 37
2,74446, Control_c, 0, 64, 37
2,74450, Note_on_c, 0, 52, 0
2,74453, Note_on_c, 0, 50, 68
2,74571, Note_on_c, 0, 64, 86
2,74580, Note_on_c, 0, 49, 63
2,74580, Note_on_c, 0, 50, 0
2,74600, Control_c, 0, 64, 37
2,74639, Control_c, 0, 64, 36
2,74688, Note_on_c, 0, 49, 0
2,74689, Note_on_c, 0, 50, 66
2,74696, Control_c, 0, 64, 36
2,74773, Control_c, 0, 64, 35
2,74774, Note_on_c, 0, 64, 0
2,74791, Note_on_c, 0, 52, 73
2,74800, Note_on_c, 0, 50, 0
2,74850, Control_c, 0, 64, 35
2,74868, Control_c, 0, 64, 34
2,74888, Control_c, 0, 64, 34
2,74907, Control_c, 0, 64, 33
2,74945, Control_c, 0, 64, 32
2,74965, Control_c, 0, 64, 32
2,74984, Control_c, 0, 64, 31
2,75003, Control_c, 0, 64, 31
2,75042, Control_c, 0, 64, 30
2,75044, Note_on_c, 0, 67, 82
2,75060, Control_c, 0, 64, 29
2,75079, Control_c, 0, 64, 29
2,75098, Control_c, 0, 64, 28
2,75118, Control_c, 0, 64, 27
2,75136, Control_c, 0, 64, 27
2,75144, Note_on_c, 0, 50, 71
2,75156, Control_c, 0, 64, 26
2,75160, Note_on_c, 0, 52, 0
2,75175, Control_c, 0, 64, 25
2,75213, Control_c, 0, 64, 24
2,75232, Control_c, 0, 64, 23
2,75232, Note_on_c, 0, 67, 0
2,75236, Note_on_c, 0, 49, 76
2,75285, Note_on_c, 0, 50, 0
2,75338, Note_on_c, 0, 47, 70
2,75387, Note_on_c, 0, 49, 0
2,75424, Control_c, 0, 64, 22
2,75463, Control_c, 0, 64, 21
2,75490, Note_on_c, 0, 45, 71
2,75505, Note_on_c, 0, 61, 87
2,75506, Note_on_c, 0, 47, 0
2,75598, Control_c, 0, 64, 22
2,75616, Control_c, 0, 64, 23
2,75636, Control_c, 0, 64, 24
2,75636, Note_on_c, 0, 61, 0
2,75655, Control_c, 0, 64, 26
2,75675, Control_c, 0, 64, 27
2,75693, Control_c, 0, 64, 28
2,75712, Control_c, 0, 64, 29
2,75732, Control_c, 0, 64, 31
2,75770, Control_c, 0, 64, 32
2,75904, Control_c, 0, 64, 32
2,75943, Control_c, 0, 64, 33
2,75967, Note_on_c, 0, 79, 89
2,75988, Note_on_c, 0, 76, 71
2,76116, Control_c, 0, 64, 32
2,76117, Note_on_c, 0, 77, 33
2,76151, Note_on_c, 0, 77, 0
2,76157, Note_on_c, 0, 76, 0
2,76173, Control_c, 0, 64, 32
2,76180, Note_on_c, 0, 79, 0
2,76192, Control_c, 0, 64, 30
2,76202, Note_on_c, 0, 47, 59
2,76212, Control_c, 0, 64, 29
2,76220, Note_on_c, 0, 45, 0
2,76231, Control_c, 0, 64, 28
2,76285, Note_on_c, 0, 49, 73
2,76290, Note_on_c, 0, 47, 0
2,76404, Control_c, 0, 64, 27
2,76411, Note_on_c, 0, 49, 0
2,76411, Note_on_c, 0, 50, 59
2,76423, Control_c, 0, 64, 27
2,76436, Note_on_c, 0, 76, 87
2,76442, Control_c, 0, 64, 26
2,76442, Note_on_c, 0, 69, 82
2,76500, Control_c, 0, 64, 25
2,76538, Control_c, 0, 64, 24
2,76538, Note_on_c, 0, 50, 0
2,76554, Note_on_c, 0, 49, 73
2,76561, Note_on_c, 0, 69, 0
2,76591, Note_on_c, 0, 76, 0
2,76615, Control_c, 0, 64, 23
2,76630, Note_on_c, 0, 49, 0
2,76652, Note_on_c, 0, 50, 69
2,76705, Note_on_c, 0, 50, 0
2,76722, Note_on_c, 0, 49, 73
2,76802, Note_on_c, 0, 49, 0
2,76813, Note_on_c, 0, 50, 68
2,76867, Note_on_c, 0, 50, 0
2,76869, Note_on_c, 0, 49, 62
2,76884, Control_c, 0, 64, 22
2,76899, Note_on_c, 0, 81, 91
2,76961, Note_on_c, 0, 50, 66
2,76964, Note_on_c, 0, 49, 0
2,77037, Control_c, 0, 64, 23
2,77045, Note_on_c, 0, 49, 55
2,77050, Note_on_c, 0, 50, 0
2,77065, Note_on_c, 0, 81, 0
2,77108, Note_on_c, 0, 49, 0
2,77121, Note_on_c, 0, 47, 64
2,77171, Control_c, 0, 64, 24
2,77214, Note_on_c, 0, 49, 74
2,77228, Control_c, 0, 64, 25
2,77236, Note_on_c, 0, 47, 0
2,77305, Note_on_c, 0, 49, 0
2,77317, Note_on_c, 0, 50, 71
2,77345, Note_on_c, 0, 77, 84
2,77458, Note_on_c, 0, 52, 72
2,77462, Note_on_c, 0, 50, 0
2,77478, Control_c, 0, 64, 24
2,77497, Control_c, 0, 64, 23
2,77517, Control_c, 0, 64, 21
2,77536, Control_c, 0, 64, 20
2,77555, Control_c, 0, 64, 19
2,77560, Note_on_c, 0, 77, 0
2,77566, Note_on_c, 0, 53, 76
2,77574, Control_c, 0, 64, 18
2,77593, Control_c, 0, 64, 17
2,77602, Note_on_c, 0, 52, 0
2,77689, Control_c, 0, 64, 15
2,77808, Note_on_c, 0, 74, 68
2,77828, Note_on_c, 0, 69, 52
2,77881, Control_c, 0, 64, 17
2,77911, Note_on_c, 0, 53, 0
2,77935, Note_on_c, 0, 74, 0
2,77942, Note_on_c, 0, 52, 49
2,77964, Note_on_c, 0, 69, 0
2,77984, Note_on_c, 0, 52, 0
2,78016, Control_c, 0, 64, 18
2,78031, Note_on_c, 0, 50, 55
2,78035, Control_c, 0, 64, 20
2,78054, Control_c, 0, 64, 22
2,78073, Control_c, 0, 64, 23
2,78092, Control_c, 0, 64, 25
2,78098, Note_on_c, 0, 50, 0
2,78111, Control_c, 0, 64, 26
2,78131, Control_c, 0, 64, 27
2,78134, Note_on_c, 0, 48, 56
2,78169, Control_c, 0, 64, 27
2,78188, Control_c, 0, 64, 28
2,78222, Note_on_c, 0, 48, 0
2,78254, Note_on_c, 0, 47, 55
2,78260, Note_on_c, 0, 62, 56
2,78359, Note_on_c, 0, 47, 0
2,78376, Note_on_c, 0, 48, 57
2,78426, Note_on_c, 0, 62, 0
2,78461, Note_on_c, 0, 48, 0
2,78477, Control_c, 0, 64, 27
2,78505, Note_on_c, 0, 50, 43
2,78515, Control_c, 0, 64, 27
2,78611, Control_c, 0, 64, 26
2,78736, Note_on_c, 0, 65, 55
2,78814, Note_on_c, 0, 50, 0
2,78833, Note_on_c, 0, 48, 47
2,78864, Note_on_c, 0, 65, 0
2,78881, Control_c, 0, 64, 27
2,78921, Note_on_c, 0, 48, 0
2,78938, Control_c, 0, 64, 27
2,78941, Note_on_c, 0, 47, 52
2,78996, Control_c, 0, 64, 28
2,79007, Note_on_c, 0, 47, 0
2,79041, Note_on_c, 0, 45, 52
2,79072, Control_c, 0, 64, 29
2,79149, Control_c, 0, 64, 29
2,79176, Note_on_c, 0, 45, 0
2,79192, Note_on_c, 0, 59, 46
2,79202, Note_on_c, 0, 43, 39
2,79264, Control_c, 0, 64, 30
2,79298, Note_on_c, 0, 59, 0
2,79303, Control_c, 0, 64, 31
2,79341, Control_c, 0, 64, 31
2,79651, Note_on_c, 0, 77, 60
2,79664, Note_on_c, 0, 74, 46
2,79706, Control_c, 0, 64, 32
2,79803, Note_on_c, 0, 74, 0
2,79817, Note_on_c, 0, 77, 0
2,79841, Control_c, 0, 64, 32
2,79904, Note_on_c, 0, 43, 0
2,79910, Note_on_c, 0, 45, 38
2,79918, Control_c, 0, 64, 33
2,79964, Note_on_c, 0, 45, 0
2,79989, Note_on_c, 0, 47, 52
2,79995, Control_c, 0, 64, 34
2,80065, Note_on_c, 0, 47, 0
2,80112, Note_on_c, 0, 48, 45
2,80112, Note_on_c, 0, 74, 53
2,80133, Note_on_c, 0, 67, 33
2,80185, Note_on_c, 0, 48, 0
2,80200, Note_on_c, 0, 67, 0
2,80218, Note_on_c, 0, 47, 47
2,80251, Note_on_c, 0, 74, 0
2,80281, Note_on_c, 0, 47, 0
2,80312, Note_on_c, 0, 48, 59
2,80365, Note_on_c, 0, 48, 0
2,80400, Note_on_c, 0, 47, 60
2,80416, Control_c, 0, 64, 33
2,80445, Note_on_c, 0, 47, 0
2,80471, Note_on_c, 0, 48, 58
2,80516, Note_on_c, 0, 48, 0
2,80543, Note_on_c, 0, 47, 54
2,80551, Control_c, 0, 64, 34
2,80565, Note_on_c, 0, 79, 67
2,80570, Control_c, 0, 64, 34
2,80576, Note_on_c, 0, 47, 0
2,80589, Control_c, 0, 64, 35
2,80609, Control_c, 0, 64, 36
2,80615, Note_on_c, 0, 48, 55
2,80627, Control_c, 0, 64, 37
2,80647, Control_c, 0, 64, 37
2,80656, Note_on_c, 0, 48, 0
2,80666, Control_c, 0, 64, 38
2,80680, Note_on_c, 0, 47, 62
2,80686, Control_c, 0, 64, 39
2,80697, Note_on_c, 0, 79, 0
2,80724, Control_c, 0, 64, 39
2,80743, Control_c, 0, 64, 40
2,80758, Note_on_c, 0, 47, 0
2,80781, Control_c, 0, 64, 40
2,80789, Note_on_c, 0, 45, 52
2,80876, Note_on_c, 0, 45, 0
2,80878, Control_c, 0, 64, 41
2,80894, Note_on_c, 0, 47, 54
2,80977, Note_on_c, 0, 47, 0
2,81012, Control_c, 0, 64, 41
2,81017, Note_on_c, 0, 48, 51
2,81041, Note_on_c, 0, 76, 56
2,81050, Control_c, 0, 64, 42
2,81127, Control_c, 0, 64, 42
2,81184, Control_c, 0, 64, 43
2,81271, Note_on_c, 0, 48, 0
2,81322, Note_on_c, 0, 76, 0
2,81508, Note_on_c, 0, 72, 71
2,81606, Note_on_c, 0, 60, 62
2,81646, Note_on_c, 0, 72, 0
2,81664, Control_c, 0, 64, 43
2,81711, Note_on_c, 0, 60, 0
2,81717, Note_on_c, 0, 62, 67
2,81759, Control_c, 0, 64, 44
2,81808, Note_on_c, 0, 62, 0
2,81811, Note_on_c, 0, 64, 72
2,81929, Note_on_c, 0, 64, 0
2,81964, Note_on_c, 0, 69, 61
2,81969, Note_on_c, 0, 65, 48
2,82086, Control_c, 0, 64, 44
2,82143, Control_c, 0, 64, 45
2,82182, Control_c, 0, 64, 45
2,82192, Note_on_c, 0, 69, 0
2,82202, Control_c, 0, 64, 46
2,82216, Note_on_c, 0, 65, 0
2,82240, Control_c, 0, 64, 46
2,82259, Control_c, 0, 64, 47
2,82416, Note_on_c, 0, 77, 60
2,82521, Note_on_c, 0, 64, 56
2,82546, Control_c, 0, 64, 46
2,82562, Note_on_c, 0, 77, 0
2,82581, Note_on_c, 0, 64, 0
2,82585, Control_c, 0, 64, 46
2,82605, Control_c, 0, 64, 45
2,82643, Control_c, 0, 64, 45
2,82644, Note_on_c, 0, 62, 49
2,82662, Control_c, 0, 64, 44
2,82714, Note_on_c, 0, 62, 0
2,82720, Control_c, 0, 64, 44
2,82746, Note_on_c, 0, 60, 54
2,82759, Control_c, 0, 64, 43
2,82845, Note_on_c, 0, 60, 0
2,82873, Note_on_c, 0, 74, 49
2,82904, Note_on_c, 0, 59, 43
2,82932, Control_c, 0, 64, 43
2,83000, Note_on_c, 0, 74, 0
2,83009, Control_c, 0, 64, 42
2,83027, Control_c, 0, 64, 42
2,83104, Control_c, 0, 64, 41
2,83123, Note_on_c, 0, 59, 0
2,83124, Control_c, 0, 64, 41
2,83143, Control_c, 0, 64, 40
2,83162, Control_c, 0, 64, 39
2,83181, Control_c, 0, 64, 39
2,83220, Control_c, 0, 64, 38
2,83258, Control_c, 0, 64, 38
2,83293, Note_on_c, 0, 71, 57
2,83306, Note_on_c, 0, 62, 51
2,83377, Note_on_c, 0, 71, 0
2,83405, Note_on_c, 0, 62, 0
2,83416, Note_on_c, 0, 47, 42
2,83499, Note_on_c, 0, 47, 0
2,83523, Note_on_c, 0, 48, 49
2,83546, Control_c, 0, 64, 38
2,83566, Control_c, 0, 64, 39
2,83597, Note_on_c, 0, 48, 0
2,83604, Control_c, 0, 64, 39
2,83612, Note_on_c, 0, 50, 61
2,83642, Control_c, 0, 64, 40
2,83660, Control_c, 0, 64, 40
2,83680, Control_c, 0, 64, 41
2,83700, Control_c, 0, 64, 41
2,83705, Note_on_c, 0, 50, 0
2,83719, Control_c, 0, 64, 42
2,83745, Note_on_c, 0, 52, 44
2,83763, Note_on_c, 0, 68, 58
2,83776, Control_c, 0, 64, 43
2,83784, Note_on_c, 0, 59, 53
2,83796, Control_c, 0, 64, 44
2,83815, Control_c, 0, 64, 44
2,83834, Control_c, 0, 64, 45
2,83861, Note_on_c, 0, 59, 0
2,83892, Control_c, 0, 64, 44
2,83904, Note_on_c, 0, 68, 0
2,84084, Control_c, 0, 64, 44
2,84228, Note_on_c, 0, 76, 60
2,84232, Note_on_c, 0, 68, 50
2,84256, Control_c, 0, 64, 44
2,84295, Control_c, 0, 64, 45
2,84314, Control_c, 0, 64, 46
2,84314, Note_on_c, 0, 52, 0
2,84333, Control_c, 0, 64, 46
2,84346, Note_on_c, 0, 50, 49
2,84352, Control_c, 0, 64, 47
2,84372, Control_c, 0, 64, 48
2,84391, Control_c, 0, 64, 48
2,84410, Control_c, 0, 64, 49
2,84429, Control_c, 0, 64, 49
2,84449, Control_c, 0, 64, 50
2,84467, Control_c, 0, 64, 50
2,84470, Note_on_c, 0, 50, 0
2,84472, Note_on_c, 0, 48, 40
2,84506, Control_c, 0, 64, 51
2,84525, Note_on_c, 0, 68, 0
2,84556, Note_on_c, 0, 48, 0
2,84572, Note_on_c, 0, 47, 45
2,84677, Note_on_c, 0, 47, 0
2,84714, Note_on_c, 0, 72, 57
2,84725, Note_on_c, 0, 45, 34
2,84728, Note_on_c, 0, 76, 0
2,84740, Note_on_c, 0, 69, 42
2,84813, Control_c, 0, 64, 50
2,84871, Control_c, 0, 64, 50
2,84890, Control_c, 0, 64, 49
2,84929, Control_c, 0, 64, 49
2,84929, Note_on_c, 0, 45, 0
2,84929, Note_on_c, 0, 47, 43
2,84947, Control_c, 0, 64, 48
2,85006, Control_c, 0, 64, 48
2,85047, Note_on_c, 0, 47, 0
2,85048, Note_on_c, 0, 48, 53
2,85063, Control_c, 0, 64, 47
2,85101, Control_c, 0, 64, 47
2,85137, Note_on_c, 0, 48, 0
2,85143, Note_on_c, 0, 50, 63
2,85159, Control_c, 0, 64, 46
2,85188, Note_on_c, 0, 69, 0
2,85198, Control_c, 0, 64, 46
2,85200, Note_on_c, 0, 50, 0
2,85244, Note_on_c, 0, 52, 58
2,85255, Control_c, 0, 64, 45
2,85274, Control_c, 0, 64, 45
2,85293, Control_c, 0, 64, 44
2,85312, Control_c, 0, 64, 44
2,85332, Control_c, 0, 64, 43
2,85347, Note_on_c, 0, 54, 64
2,85351, Control_c, 0, 64, 43
2,85366, Note_on_c, 0, 52, 0
2,85370, Control_c, 0, 64, 42
2,85389, Control_c, 0, 64, 42
2,85409, Control_c, 0, 64, 41
2,85427, Control_c, 0, 64, 41
2,85429, Note_on_c, 0, 54, 0
2,85441, Note_on_c, 0, 56, 69
2,85466, Control_c, 0, 64, 40
2,85504, Control_c, 0, 64, 40
2,85552, Note_on_c, 0, 56, 0
2,85561, Note_on_c, 0, 57, 66
2,85638, Control_c, 0, 64, 40
2,85643, Note_on_c, 0, 71, 67
2,85653, Note_on_c, 0, 72, 0
2,85677, Control_c, 0, 64, 41
2,85714, Control_c, 0, 64, 41
2,85733, Note_on_c, 0, 71, 0
2,85752, Note_on_c, 0, 69, 77
2,85753, Control_c, 0, 64, 42
2,85811, Control_c, 0, 64, 42
2,85863, Note_on_c, 0, 67, 78
2,85867, Note_on_c, 0, 69, 0
2,85945, Control_c, 0, 64, 42
2,85973, Note_on_c, 0, 65, 73
2,85977, Note_on_c, 0, 67, 0
2,85983, Control_c, 0, 64, 41
2,86003, Control_c, 0, 64, 41
2,86042, Control_c, 0, 64, 40
2,86054, Note_on_c, 0, 65, 0
2,86071, Note_on_c, 0, 64, 77
2,86080, Control_c, 0, 64, 40
2,86099, Control_c, 0, 64, 39
2,86139, Note_on_c, 0, 64, 0
2,86170, Note_on_c, 0, 62, 76
2,86250, Note_on_c, 0, 62, 0
2,86270, Note_on_c, 0, 60, 75
2,86310, Control_c, 0, 64, 40
2,86311, Note_on_c, 0, 60, 0
2,86368, Control_c, 0, 64, 40
2,86378, Note_on_c, 0, 62, 83
2,86501, Note_on_c, 0, 71, 73
2,86581, Note_on_c, 0, 71, 0
2,86601, Note_on_c, 0, 72, 76
2,86700, Note_on_c, 0, 74, 73
2,86701, Note_on_c, 0, 72, 0
2,86746, Note_on_c, 0, 62, 0
2,86756, Note_on_c, 0, 57, 0
2,86768, Note_on_c, 0, 74, 0
2,86776, Note_on_c, 0, 56, 67
2,86781, Note_on_c, 0, 59, 61
2,86799, Note_on_c, 0, 76, 80
2,86848, Control_c, 0, 64, 40
2,86886, Control_c, 0, 64, 39
2,86903, Note_on_c, 0, 78, 77
2,86905, Control_c, 0, 64, 39
2,86905, Note_on_c, 0, 76, 0
2,86970, Note_on_c, 0, 59, 0
2,86980, Note_on_c, 0, 57, 63
2,86986, Note_on_c, 0, 54, 65
2,87002, Note_on_c, 0, 80, 76
2,87015, Note_on_c, 0, 57, 0
2,87021, Note_on_c, 0, 56, 0
2,87024, Note_on_c, 0, 54, 0
2,87034, Note_on_c, 0, 78, 0
2,87100, Note_on_c, 0, 81, 76
2,87129, Note_on_c, 0, 80, 0
2,87201, Note_on_c, 0, 56, 67
2,87212, Note_on_c, 0, 83, 83
2,87215, Note_on_c, 0, 52, 61
2,87225, Note_on_c, 0, 81, 0
2,87289, Control_c, 0, 64, 38
2,87308, Control_c, 0, 64, 37
2,87331, Note_on_c, 0, 81, 76
2,87346, Control_c, 0, 64, 37
2,87363, Note_on_c, 0, 83, 0
2,87364, Note_on_c, 0, 52, 0
2,87372, Note_on_c, 0, 56, 0
2,87385, Control_c, 0, 64, 36
2,87428, Note_on_c, 0, 80, 76
2,87479, Note_on_c, 0, 81, 0
2,87501, Control_c, 0, 64, 36
2,87544, Note_on_c, 0, 78, 76
2,87600, Note_on_c, 0, 80, 0
2,87631, Note_on_c, 0, 50, 76
2,87646, Note_on_c, 0, 76, 76
2,87649, Note_on_c, 0, 78, 0
2,87709, Note_on_c, 0, 76, 0
2,87751, Control_c, 0, 64, 35
2,87755, Note_on_c, 0, 74, 79
2,87780, Note_on_c, 0, 50, 0
2,87789, Control_c, 0, 64, 35
2,87809, Control_c, 0, 64, 34
2,87827, Control_c, 0, 64, 34
2,87850, Note_on_c, 0, 72, 83
2,87866, Control_c, 0, 64, 33
2,87873, Note_on_c, 0, 74, 0
2,87944, Note_on_c, 0, 72, 0
2,87957, Note_on_c, 0, 71, 77
2,88061, Note_on_c, 0, 57, 73
2,88061, Note_on_c, 0, 76, 87
2,88067, Note_on_c, 0, 48, 67
2,88074, Note_on_c, 0, 71, 0
2,88172, Note_on_c, 0, 74, 74
2,88213, Note_on_c, 0, 76, 0
2,88285, Note_on_c, 0, 72, 78
2,88363, Note_on_c, 0, 74, 0
2,88379, Note_on_c, 0, 71, 79
2,88416, Note_on_c, 0, 72, 0
2,88423, Control_c, 0, 64, 32
2,88461, Note_on_c, 0, 57, 0
2,88463, Note_on_c, 0, 48, 0
2,88487, Note_on_c, 0, 71, 0
2,88495, Note_on_c, 0, 69, 86
2,88500, Control_c, 0, 64, 31
2,88519, Control_c, 0, 64, 31
2,88538, Control_c, 0, 64, 29
2,88558, Control_c, 0, 64, 28
2,88568, Note_on_c, 0, 69, 0
2,88576, Control_c, 0, 64, 27
2,88595, Control_c, 0, 64, 26
2,88607, Note_on_c, 0, 67, 66
2,88615, Control_c, 0, 64, 24
2,88628, Note_on_c, 0, 65, 59
2,88634, Control_c, 0, 64, 23
2,88653, Control_c, 0, 64, 21
2,88659, Note_on_c, 0, 65, 0
2,88672, Control_c, 0, 64, 19
2,88692, Control_c, 0, 64, 18
2,88701, Note_on_c, 0, 65, 69
2,88711, Note_on_c, 0, 67, 0
2,88730, Control_c, 0, 64, 17
2,88784, Note_on_c, 0, 65, 0
2,88810, Note_on_c, 0, 64, 77
2,88894, Note_on_c, 0, 53, 79
2,88905, Note_on_c, 0, 69, 94
2,88920, Note_on_c, 0, 64, 0
2,88941, Control_c, 0, 64, 15
2,88961, Control_c, 0, 64, 13
2,88999, Control_c, 0, 64, 11
2,89023, Note_on_c, 0, 67, 73
2,89053, Note_on_c, 0, 69, 0
2,89129, Note_on_c, 0, 65, 72
2,89191, Control_c, 0, 64, 13
2,89192, Note_on_c, 0, 67, 0
2,89210, Control_c, 0, 64, 15
2,89217, Note_on_c, 0, 64, 83
2,89229, Control_c, 0, 64, 17
2,89249, Control_c, 0, 64, 19
2,89255, Note_on_c, 0, 65, 0
2,89267, Control_c, 0, 64, 20
2,89287, Control_c, 0, 64, 21
2,89306, Control_c, 0, 64, 22
2,89326, Note_on_c, 0, 53, 0
2,89330, Note_on_c, 0, 62, 87
2,89334, Note_on_c, 0, 64, 0
2,89364, Control_c, 0, 64, 23
2,89399, Note_on_c, 0, 62, 0
2,89438, Note_on_c, 0, 60, 82
2,89535, Note_on_c, 0, 59, 82
2,89536, Control_c, 0, 64, 22
2,89553, Note_on_c, 0, 60, 0
2,89575, Control_c, 0, 64, 21
2,89623, Note_on_c, 0, 59, 0
2,89634, Note_on_c, 0, 57, 79
2,89652, Control_c, 0, 64, 20
2,89709, Control_c, 0, 64, 19
2,89725, Note_on_c, 0, 57, 0
2,89729, Control_c, 0, 64, 18
2,89744, Note_on_c, 0, 44, 80
2,89747, Control_c, 0, 64, 17
2,89753, Note_on_c, 0, 65, 90
2,89767, Control_c, 0, 64, 15
2,89786, Control_c, 0, 64, 11
2,89806, Control_c, 0, 64, 9
2,89824, Control_c, 0, 64, 0
2,89865, Note_on_c, 0, 64, 76
2,89892, Note_on_c, 0, 65, 0
2,89970, Note_on_c, 0, 62, 72
2,90022, Note_on_c, 0, 64, 0
2,90056, Note_on_c, 0, 60, 75
2,90056, Note_on_c, 0, 62, 0
2,90162, Note_on_c, 0, 59, 84
2,90188, Note_on_c, 0, 60, 0
2,90255, Note_on_c, 0, 59, 0
2,90263, Note_on_c, 0, 57, 72
2,90345, Note_on_c, 0, 57, 0
2,90375, Note_on_c, 0, 56, 72
2,90464, Note_on_c, 0, 54, 75
2,90469, Note_on_c, 0, 56, 0
2,90508, Note_on_c, 0, 44, 0
2,90549, Note_on_c, 0, 54, 0
2,90585, Note_on_c, 0, 62, 76
2,90692, Note_on_c, 0, 60, 76
2,90713, Note_on_c, 0, 62, 0
2,90795, Note_on_c, 0, 59, 78
2,90834, Note_on_c, 0, 60, 0
2,90887, Note_on_c, 0, 59, 0
2,90893, Note_on_c, 0, 57, 78
2,90975, Control_c, 0, 64, 9
2,90993, Control_c, 0, 64, 11
2,91001, Note_on_c, 0, 56, 83
2,91025, Note_on_c, 0, 57, 0
2,91032, Control_c, 0, 64, 13
2,91051, Control_c, 0, 64, 15
2,91070, Control_c, 0, 64, 18
2,91090, Control_c, 0, 64, 20
2,91098, Note_on_c, 0, 54, 83
2,91109, Control_c, 0, 64, 23
2,91128, Control_c, 0, 64, 25
2,91145, Note_on_c, 0, 56, 0
2,91147, Control_c, 0, 64, 26
2,91167, Control_c, 0, 64, 27
2,91186, Control_c, 0, 64, 28
2,91202, Note_on_c, 0, 54, 0
2,91205, Control_c, 0, 64, 29
2,91208, Note_on_c, 0, 52, 79
2,91224, Control_c, 0, 64, 30
2,91244, Control_c, 0, 64, 31
2,91262, Control_c, 0, 64, 31
2,91282, Control_c, 0, 64, 33
2,91301, Control_c, 0, 64, 34
2,91308, Note_on_c, 0, 51, 86
2,91321, Control_c, 0, 64, 36
2,91339, Control_c, 0, 64, 37
2,91345, Note_on_c, 0, 52, 0
2,91359, Control_c, 0, 64, 38
2,91378, Control_c, 0, 64, 39
2,91416, Control_c, 0, 64, 39
2,91425, Note_on_c, 0, 51, 0
2,91456, Note_on_c, 0, 52, 94
2,91473, Control_c, 0, 64, 37
2,91493, Control_c, 0, 64, 33
2,91512, Control_c, 0, 64, 28
2,91531, Control_c, 0, 64, 26
2,91550, Control_c, 0, 64, 20
2,91570, Control_c, 0, 64, 11
2,91589, Control_c, 0, 64, 0
2,91831, Note_on_c, 0, 52, 0
2,91927, Note_on_c, 0, 50, 92
2,92085, Note_on_c, 0, 64, 85
2,92121, Note_on_c, 0, 50, 0
2,92233, Note_on_c, 0, 66, 83
2,92297, Note_on_c, 0, 64, 0
2,92381, Note_on_c, 0, 47, 82
2,92411, Note_on_c, 0, 68, 81
2,92459, Note_on_c, 0, 66, 0
2,92550, Note_on_c, 0, 69, 74
2,92567, Note_on_c, 0, 47, 0
2,92573, Note_on_c, 0, 68, 0
2,92657, Note_on_c, 0, 69, 0
2,92660, Note_on_c, 0, 68, 72
2,92743, Note_on_c, 0, 68, 0
2,92754, Note_on_c, 0, 69, 72
2,92834, Note_on_c, 0, 68, 75
2,92834, Note_on_c, 0, 69, 0
2,92845, Note_on_c, 0, 52, 91
2,92903, Note_on_c, 0, 68, 0
2,92914, Note_on_c, 0, 69, 71
2,92982, Note_on_c, 0, 68, 73
2,92999, Note_on_c, 0, 69, 0
2,93039, Note_on_c, 0, 52, 0
2,93069, Note_on_c, 0, 68, 0
2,93079, Note_on_c, 0, 66, 79
2,93176, Note_on_c, 0, 68, 80
2,93204, Note_on_c, 0, 66, 0
2,93301, Note_on_c, 0, 48, 83
2,93309, Note_on_c, 0, 69, 84
2,93331, Note_on_c, 0, 68, 0
2,93554, Note_on_c, 0, 48, 0
2,93788, Note_on_c, 0, 45, 82
2,93867, Note_on_c, 0, 69, 0
2,93904, Note_on_c, 0, 59, 81
2,93978, Note_on_c, 0, 45, 0
2,94018, Note_on_c, 0, 60, 78
2,94039, Note_on_c, 0, 59, 0
2,94116, Note_on_c, 0, 62, 79
2,94123, Note_on_c, 0, 60, 0
2,94231, Note_on_c, 0, 40, 83
2,94251, Note_on_c, 0, 61, 77
2,94264, Note_on_c, 0, 62, 0
2,94352, Control_c, 0, 64, 11
2,94355, Note_on_c, 0, 61, 0
2,94358, Note_on_c, 0, 62, 71
2,94371, Control_c, 0, 64, 13
2,94391, Control_c, 0, 64, 15
2,94409, Control_c, 0, 64, 17
2,94418, Note_on_c, 0, 40, 0
2,94448, Control_c, 0, 64, 18
2,94456, Note_on_c, 0, 62, 0
2,94464, Note_on_c, 0, 61, 77
2,94543, Note_on_c, 0, 61, 0
2,94553, Note_on_c, 0, 62, 73
2,94643, Note_on_c, 0, 62, 0
2,94650, Note_on_c, 0, 61, 71
2,94677, Note_on_c, 0, 43, 86
2,94727, Note_on_c, 0, 61, 0
2,94733, Note_on_c, 0, 62, 74
2,94828, Note_on_c, 0, 43, 0
2,94834, Note_on_c, 0, 61, 71
2,94839, Note_on_c, 0, 62, 0
2,94909, Control_c, 0, 64, 19
2,94918, Note_on_c, 0, 61, 0
2,94925, Note_on_c, 0, 59, 83
2,95022, Note_on_c, 0, 61, 84
2,95040, Note_on_c, 0, 59, 0
2,95120, Control_c, 0, 64, 20
2,95142, Note_on_c, 0, 41, 74
2,95157, Note_on_c, 0, 62, 84
2,95159, Control_c, 0, 64, 21
2,95163, Note_on_c, 0, 61, 0
2,95197, Control_c, 0, 64, 22
2,95217, Control_c, 0, 64, 23
2,95236, Control_c, 0, 64, 25
2,95258, Control_c, 0, 64, 27
2,95278, Control_c, 0, 64, 29
2,95296, Control_c, 0, 64, 31
2,95304, Note_on_c, 0, 41, 0
2,95308, Note_on_c, 0, 40, 78
2,95315, Control_c, 0, 64, 32
2,95335, Control_c, 0, 64, 34
2,95354, Control_c, 0, 64, 35
2,95360, Note_on_c, 0, 62, 0
2,95373, Control_c, 0, 64, 36
2,95412, Control_c, 0, 64, 36
2,95431, Control_c, 0, 64, 38
2,95432, Note_on_c, 0, 38, 89
2,95450, Control_c, 0, 64, 39
2,95461, Note_on_c, 0, 40, 0
2,95489, Control_c, 0, 64, 40
2,95507, Control_c, 0, 64, 40
2,95527, Control_c, 0, 64, 41
2,95546, Control_c, 0, 64, 41
2,95584, Control_c, 0, 64, 42
2,95642, Control_c, 0, 64, 42
2,95661, Control_c, 0, 64, 43
2,95681, Control_c, 0, 64, 43
2,95695, Note_on_c, 0, 71, 89
2,95700, Control_c, 0, 64, 44
2,95703, Note_on_c, 0, 65, 79
2,95719, Control_c, 0, 64, 44
2,95738, Control_c, 0, 64, 45
2,95834, Control_c, 0, 64, 45
2,95911, Control_c, 0, 64, 44
2,95936, Note_on_c, 0, 71, 0
2,95948, Note_on_c, 0, 65, 0
2,95953, Note_on_c, 0, 40, 79
2,95969, Control_c, 0, 64, 44
2,95973, Note_on_c, 0, 38, 0
2,96007, Control_c, 0, 64, 43
2,96051, Note_on_c, 0, 41, 82
2,96064, Control_c, 0, 64, 44
2,96070, Note_on_c, 0, 40, 0
2,96103, Control_c, 0, 64, 44
2,96174, Note_on_c, 0, 40, 63
2,96178, Control_c, 0, 64, 44
2,96208, Note_on_c, 0, 41, 0
2,96255, Control_c, 0, 64, 43
2,96263, Note_on_c, 0, 64, 83
2,96269, Note_on_c, 0, 56, 81
2,96273, Control_c, 0, 64, 43
2,96334, Control_c, 0, 64, 43
2,96353, Control_c, 0, 64, 44
2,96394, Note_on_c, 0, 40, 0
2,96439, Note_on_c, 0, 41, 64
2,96441, Note_on_c, 0, 56, 0
2,96469, Control_c, 0, 64, 44
2,96485, Note_on_c, 0, 64, 0
2,96487, Control_c, 0, 64, 45
2,96512, Note_on_c, 0, 41, 0
2,96526, Note_on_c, 0, 40, 68
2,96545, Control_c, 0, 64, 46
2,96574, Note_on_c, 0, 40, 0
2,96604, Note_on_c, 0, 41, 78
2,96641, Control_c, 0, 64, 46
2,96650, Note_on_c, 0, 41, 0
2,96660, Note_on_c, 0, 40, 76
2,96661, Control_c, 0, 64, 47
2,96679, Control_c, 0, 64, 48
2,96730, Note_on_c, 0, 41, 74
2,96737, Note_on_c, 0, 40, 0
2,96738, Control_c, 0, 64, 48
2,96790, Note_on_c, 0, 40, 62
2,96815, Control_c, 0, 64, 48
2,96815, Note_on_c, 0, 41, 0
2,96815, Note_on_c, 0, 68, 94
2,96824, Note_on_c, 0, 59, 82
2,96833, Control_c, 0, 64, 47
2,96880, Note_on_c, 0, 41, 42
2,96932, Note_on_c, 0, 40, 0
2,96949, Control_c, 0, 64, 47
2,96987, Control_c, 0, 64, 46
2,97007, Note_on_c, 0, 41, 0
2,97028, Note_on_c, 0, 40, 47
2,97064, Control_c, 0, 64, 47
2,97073, Note_on_c, 0, 38, 78
2,97083, Note_on_c, 0, 40, 0
2,97100, Control_c, 0, 64, 47
2,97119, Control_c, 0, 64, 48
2,97142, Control_c, 0, 64, 48
2,97144, Note_on_c, 0, 59, 0
2,97180, Control_c, 0, 64, 49
2,97219, Control_c, 0, 64, 49
2,97232, Note_on_c, 0, 68, 0
2,97257, Control_c, 0, 64, 50
2,97295, Control_c, 0, 64, 50
2,97386, Note_on_c, 0, 40, 77
2,97446, Note_on_c, 0, 38, 0
2,97629, Control_c, 0, 64, 50
2,97764, Control_c, 0, 64, 49
2,97937, Control_c, 0, 64, 50
2,97962, Note_on_c, 0, 33, 48
2,98033, Control_c, 0, 64, 50
2,98064, Note_on_c, 0, 40, 0
2,98072, Note_on_c, 0, 69, 79
2,98086, Note_on_c, 0, 61, 62
2,101604, Control_c, 0, 64, 50
2,101796, Control_c, 0, 64, 49
2,103066, Note_on_c, 0, 69, 0
2,103359, Note_on_c, 0, 33, 0
2,103376, Note_on_c, 0, 61, 0
2,103620, Control_c, 0, 64, 49
2,103658, Control_c, 0, 64, 48
2,103697, Control_c, 0, 64, 48
2,103715, Control_c, 0, 64, 47
2,103735, Control_c, 0, 64, 47
2,103754, Control_c, 0, 64, 46
2,103774, Control_c, 0, 64, 46
2,103811, Control_c, 0, 64, 45
2,103830, Control_c, 0, 64, 44
2,103849, Control_c, 0, 64, 43
2,103868, Control_c, 0, 64, 42
2,103888, Control_c, 0, 64, 41
2,103907, Control_c, 0, 64, 40
2,103926, Control_c, 0, 64, 39
2,103945, Control_c, 0, 64, 37
2,103964, Control_c, 0, 64, 36
2,103984, Control_c, 0, 64, 34
2,104002, Control_c, 0, 64, 32
2,104022, Control_c, 0, 64, 31
2,104041, Control_c, 0, 64, 29
2,104060, Control_c, 0, 64, 25
2,104079, Control_c, 0, 64, 21
2,104099, Control_c, 0, 64, 15
2,104118, Control_c, 0, 64, 0
2,104119, End_track
0, 0, End_of_file
