0, 0, Header, 1, 2, 480
1, 0, Start_track
1, 0, Tempo, 500000
1, 0, Time_signature, 4, 2, 24, 8
1, 1, End_track
2, 0, Start_track
2, 0, Program_c, 0, 0
2, 0, Control_c, 0, 64, 127
2, 118, Control_c, 0, 64, 109
2, 137, Control_c, 0, 64, 107
2, 157, Control_c, 0, 64, 107
2, 176, Control_c, 0, 64, 104
2, 195, Control_c, 0, 64, 96
2, 214, Control_c, 0, 64, 88
2, 234, Control_c, 0, 64, 81
2, 252, Control_c, 0, 64, 76
2, 272, Control_c, 0, 64, 72
2, 291, Control_c, 0, 64, 67
2, 311, Control_c, 0, 64, 64
2, 329, Control_c, 0, 64, 64
2, 349, Control_c, 0, 64, 63
2, 368, Control_c, 0, 64, 61
2, 388, Control_c, 0, 64, 58
2, 406, Control_c, 0, 64, 56
2, 465, Control_c, 0, 64, 55
2, 484, Control_c, 0, 64, 53
2, 504, Control_c, 0, 64, 52
2, 523, Control_c, 0, 64, 50
2, 542, Control_c, 0, 64, 47
2, 561, Control_c, 0, 64, 41
2, 581, Control_c, 0, 64, 29
2, 599, Control_c, 0, 64, 0
2, 980, Note_on_c, 0, 45, 42
2, 1125, Note_on_c, 0, 72, 58
2, 1243, Note_on_c, 0, 74, 62
2, 1285, Note_on_c, 0, 72, 0
2, 1335, Note_on_c, 0, 76, 68
2, 1362, Note_on_c, 0, 74, 0
2, 1482, Note_on_c, 0, 77, 64
2, 1488, Note_on_c, 0, 57, 52
2, 1535, Note_on_c, 0, 76, 0
2, 1543, Note_on_c, 0, 45, 0
2, 1744, Note_on_c, 0, 72, 64
2, 1873, Note_on_c, 0, 77, 0
2, 1979, Note_on_c, 0, 56, 50
2, 1984, Note_on_c, 0, 71, 61
2, 2104, Note_on_c, 0, 72, 0
2, 2115, Note_on_c, 0, 57, 0
2, 2246, Note_on_c, 0, 75, 68
2, 2304, Note_on_c, 0, 71, 0
2, 2493, Note_on_c, 0, 55, 55
2, 2496, Note_on_c, 0, 76, 62
2, 2579, Note_on_c, 0, 56, 0
2, 2675, Note_on_c, 0, 75, 0
2, 2752, Note_on_c, 0, 70, 65
2, 2864, Note_on_c, 0, 76, 0
2, 2975, Note_on_c, 0, 54, 39
2, 3004, Note_on_c, 0, 69, 57
2, 3068, Note_on_c, 0, 70, 0
2, 3104, Note_on_c, 0, 55, 0
2, 3265, Note_on_c, 0, 73, 59
2, 3307, Note_on_c, 0, 69, 0
2, 3506, Note_on_c, 0, 53, 42
2, 3522, Note_on_c, 0, 74, 49
2, 3568, Note_on_c, 0, 54, 0
2, 3607, Note_on_c, 0, 73, 0
2, 3798, Note_on_c, 0, 68, 53
2, 3945, Note_on_c, 0, 74, 0
2, 4027, Note_on_c, 0, 52, 41
2, 4099, Note_on_c, 0, 53, 0
2, 4275, Note_on_c, 0, 69, 52
2, 4317, Note_on_c, 0, 68, 0
2, 4517, Note_on_c, 0, 50, 46
2, 4667, Note_on_c, 0, 52, 0
2, 4761, Note_on_c, 0, 71, 53
2, 4779, Note_on_c, 0, 69, 0
2, 5022, Note_on_c, 0, 64, 47
2, 5036, Note_on_c, 0, 71, 0
2, 5111, Note_on_c, 0, 50, 0
2, 5153, Note_on_c, 0, 48, 47
2, 5265, Note_on_c, 0, 50, 59
2, 5282, Note_on_c, 0, 48, 0
2, 5356, Note_on_c, 0, 50, 0
2, 5358, Note_on_c, 0, 52, 64
2, 5490, Note_on_c, 0, 53, 47
2, 5496, Note_on_c, 0, 52, 0
2, 5502, Note_on_c, 0, 69, 65
2, 5628, Note_on_c, 0, 64, 0
2, 5753, Note_on_c, 0, 48, 53
2, 5834, Note_on_c, 0, 53, 0
2, 5984, Note_on_c, 0, 47, 49
2, 5997, Note_on_c, 0, 68, 67
2, 6051, Note_on_c, 0, 48, 0
2, 6150, Note_on_c, 0, 69, 0
2, 6236, Note_on_c, 0, 51, 52
2, 6278, Note_on_c, 0, 47, 0
2, 6476, Note_on_c, 0, 52, 52
2, 6482, Note_on_c, 0, 67, 60
2, 6520, Note_on_c, 0, 51, 0
2, 6558, Note_on_c, 0, 68, 0
2, 6740, Note_on_c, 0, 46, 49
2, 6860, Note_on_c, 0, 52, 0
2, 6978, Note_on_c, 0, 45, 44
2, 6981, Note_on_c, 0, 66, 55
2, 7007, Note_on_c, 0, 46, 0
2, 7074, Note_on_c, 0, 67, 0
2, 7237, Note_on_c, 0, 49, 48
2, 7296, Note_on_c, 0, 45, 0
2, 7486, Note_on_c, 0, 50, 42
2, 7498, Note_on_c, 0, 65, 42
2, 7557, Note_on_c, 0, 66, 0
2, 7569, Note_on_c, 0, 49, 0
2, 7742, Note_on_c, 0, 44, 38
2, 7863, Note_on_c, 0, 50, 0
2, 8003, Note_on_c, 0, 64, 46
2, 8196, Note_on_c, 0, 65, 0
2, 8248, Note_on_c, 0, 45, 38
2, 8351, Note_on_c, 0, 44, 0
2, 8516, Note_on_c, 0, 62, 42
2, 8581, Note_on_c, 0, 64, 0
2, 8771, Note_on_c, 0, 47, 37
2, 8816, Note_on_c, 0, 45, 0
2, 9045, Note_on_c, 0, 40, 37
2, 9142, Note_on_c, 0, 62, 0
2, 9152, Note_on_c, 0, 47, 0
2, 9321, Note_on_c, 0, 60, 47
2, 9396, Note_on_c, 0, 60, 0
2, 9419, Note_on_c, 0, 59, 60
2, 9496, Note_on_c, 0, 59, 0
2, 9552, Note_on_c, 0, 60, 47
2, 9556, Note_on_c, 0, 45, 40
2, 9634, Note_on_c, 0, 60, 0
2, 9658, Note_on_c, 0, 40, 0
2, 9837, Note_on_c, 0, 69, 56
2, 10072, Note_on_c, 0, 47, 39
2, 10303, Note_on_c, 0, 45, 0
2, 10323, Note_on_c, 0, 68, 62
2, 10414, Note_on_c, 0, 69, 0
2, 10577, Note_on_c, 0, 49, 47
2, 10590, Note_on_c, 0, 76, 64
2, 10605, Note_on_c, 0, 68, 0
2, 10673, Note_on_c, 0, 47, 0
2, 10882, Note_on_c, 0, 67, 47
2, 10950, Note_on_c, 0, 76, 0
2, 11094, Note_on_c, 0, 50, 51
2, 11096, Note_on_c, 0, 49, 0
2, 11263, Note_on_c, 0, 67, 0
2, 11339, Note_on_c, 0, 65, 42
2, 11436, Note_on_c, 0, 65, 0
2, 11442, Note_on_c, 0, 64, 63
2, 11526, Note_on_c, 0, 64, 0
2, 11539, Note_on_c, 0, 47, 47
2, 11561, Note_on_c, 0, 63, 56
2, 11581, Note_on_c, 0, 50, 0
2, 11691, Note_on_c, 0, 63, 0
2, 11793, Note_on_c, 0, 71, 69
2, 12009, Note_on_c, 0, 49, 61
2, 12116, Note_on_c, 0, 47, 0
2, 12275, Note_on_c, 0, 70, 74
2, 12354, Note_on_c, 0, 71, 0
2, 12526, Note_on_c, 0, 51, 52
2, 12547, Note_on_c, 0, 78, 66
2, 12563, Note_on_c, 0, 70, 0
2, 12585, Note_on_c, 0, 49, 0
2, 12824, Note_on_c, 0, 69, 53
2, 12870, Note_on_c, 0, 78, 0
2, 13043, Note_on_c, 0, 52, 43
2, 13132, Note_on_c, 0, 51, 0
2, 13186, Note_on_c, 0, 69, 0
2, 13202, Note_on_c, 0, 67, 55
2, 13321, Note_on_c, 0, 69, 69
2, 13366, Note_on_c, 0, 67, 0
2, 13402, Note_on_c, 0, 71, 72
2, 13446, Note_on_c, 0, 69, 0
2, 13525, Note_on_c, 0, 52, 0
2, 13531, Note_on_c, 0, 64, 61
2, 13555, Note_on_c, 0, 72, 67
2, 13593, Note_on_c, 0, 71, 0
2, 13811, Note_on_c, 0, 67, 64
2, 13899, Note_on_c, 0, 72, 0
2, 14052, Note_on_c, 0, 63, 60
2, 14061, Note_on_c, 0, 66, 57
2, 14146, Note_on_c, 0, 67, 0
2, 14191, Note_on_c, 0, 64, 0
2, 14315, Note_on_c, 0, 70, 70
2, 14355, Note_on_c, 0, 66, 0
2, 14564, Note_on_c, 0, 62, 54
2, 14569, Note_on_c, 0, 71, 60
2, 14629, Note_on_c, 0, 63, 0
2, 14673, Note_on_c, 0, 70, 0
2, 14805, Note_on_c, 0, 65, 51
2, 14932, Note_on_c, 0, 71, 0
2, 15061, Note_on_c, 0, 61, 45
2, 15065, Note_on_c, 0, 64, 49
2, 15142, Note_on_c, 0, 65, 0
2, 15200, Note_on_c, 0, 62, 0
2, 15320, Note_on_c, 0, 68, 54
2, 15349, Note_on_c, 0, 64, 0
2, 15573, Note_on_c, 0, 69, 51
2, 15577, Note_on_c, 0, 60, 41
2, 15610, Note_on_c, 0, 61, 0
2, 15654, Note_on_c, 0, 68, 0
2, 15874, Note_on_c, 0, 63, 40
2, 15984, Note_on_c, 0, 69, 0
2, 16102, Note_on_c, 0, 59, 43
2, 16214, Note_on_c, 0, 60, 0
2, 16375, Note_on_c, 0, 64, 42
2, 16472, Note_on_c, 0, 63, 0
2, 16599, Note_on_c, 0, 57, 49
2, 16738, Note_on_c, 0, 59, 0
2, 16866, Note_on_c, 0, 66, 50
2, 16871, Note_on_c, 0, 64, 0
2, 17102, Note_on_c, 0, 59, 49
2, 17110, Note_on_c, 0, 66, 0
2, 17184, Note_on_c, 0, 57, 0
2, 17230, Note_on_c, 0, 55, 53
2, 17252, Note_on_c, 0, 59, 0
2, 17331, Note_on_c, 0, 57, 63
2, 17341, Note_on_c, 0, 55, 0
2, 17414, Note_on_c, 0, 57, 0
2, 17415, Note_on_c, 0, 59, 69
2, 17578, Note_on_c, 0, 60, 43
2, 17587, Note_on_c, 0, 76, 60
2, 17589, Note_on_c, 0, 59, 0
2, 17841, Note_on_c, 0, 55, 52
2, 17901, Note_on_c, 0, 60, 0
2, 18061, Note_on_c, 0, 54, 53
2, 18080, Note_on_c, 0, 75, 70
2, 18105, Note_on_c, 0, 55, 0
2, 18209, Note_on_c, 0, 76, 0
2, 18321, Note_on_c, 0, 58, 64
2, 18385, Note_on_c, 0, 54, 0
2, 18553, Note_on_c, 0, 59, 59
2, 18565, Note_on_c, 0, 74, 67
2, 18677, Note_on_c, 0, 75, 0
2, 18776, Note_on_c, 0, 58, 0
2, 18812, Note_on_c, 0, 53, 55
2, 18907, Note_on_c, 0, 59, 0
2, 19059, Note_on_c, 0, 52, 43
2, 19063, Note_on_c, 0, 73, 62
2, 19107, Note_on_c, 0, 53, 0
2, 19194, Note_on_c, 0, 74, 0
2, 19318, Note_on_c, 0, 56, 45
2, 19348, Note_on_c, 0, 52, 0
2, 19543, Note_on_c, 0, 57, 40
2, 19564, Note_on_c, 0, 72, 55
2, 19629, Note_on_c, 0, 56, 0
2, 19636, Note_on_c, 0, 73, 0
2, 19817, Note_on_c, 0, 51, 33
2, 19934, Note_on_c, 0, 57, 0
2, 20079, Note_on_c, 0, 71, 49
2, 20229, Note_on_c, 0, 72, 0
2, 20347, Note_on_c, 0, 52, 42
2, 20425, Note_on_c, 0, 51, 0
2, 20572, Note_on_c, 0, 69, 50
2, 20769, Note_on_c, 0, 71, 0
2, 20833, Note_on_c, 0, 54, 48
2, 20851, Note_on_c, 0, 52, 0
2, 21114, Note_on_c, 0, 47, 42
2, 21203, Note_on_c, 0, 54, 0
2, 21268, Note_on_c, 0, 69, 0
2, 21386, Note_on_c, 0, 67, 39
2, 21471, Note_on_c, 0, 67, 0
2, 21497, Note_on_c, 0, 66, 56
2, 21587, Note_on_c, 0, 66, 0
2, 21596, Note_on_c, 0, 52, 38
2, 21610, Note_on_c, 0, 47, 0
2, 21639, Note_on_c, 0, 67, 42
2, 21732, Note_on_c, 0, 67, 0
2, 21896, Note_on_c, 0, 76, 53
2, 22110, Note_on_c, 0, 54, 49
2, 22211, Note_on_c, 0, 52, 0
2, 22369, Note_on_c, 0, 75, 69
2, 22496, Note_on_c, 0, 76, 0
2, 22623, Note_on_c, 0, 56, 46
2, 22636, Note_on_c, 0, 83, 71
2, 22660, Note_on_c, 0, 54, 0
2, 22670, Note_on_c, 0, 75, 0
2, 22915, Note_on_c, 0, 74, 57
2, 22950, Note_on_c, 0, 56, 0
2, 22961, Note_on_c, 0, 83, 0
2, 23154, Note_on_c, 0, 57, 58
2, 23203, Note_on_c, 0, 57, 0
2, 23398, Note_on_c, 0, 45, 55
2, 23408, Note_on_c, 0, 74, 0
2, 23413, Note_on_c, 0, 72, 56
2, 23471, Note_on_c, 0, 45, 0
2, 23514, Note_on_c, 0, 72, 0
2, 23532, Note_on_c, 0, 71, 53
2, 23628, Note_on_c, 0, 71, 0
2, 23659, Note_on_c, 0, 57, 48
2, 23678, Note_on_c, 0, 72, 52
2, 23938, Note_on_c, 0, 69, 59
2, 23953, Note_on_c, 0, 72, 0
2, 24186, Note_on_c, 0, 71, 61
2, 24425, Note_on_c, 0, 69, 0
2, 24449, Note_on_c, 0, 56, 49
2, 24524, Note_on_c, 0, 57, 0
2, 24676, Note_on_c, 0, 73, 55
2, 24696, Note_on_c, 0, 64, 53
2, 24714, Note_on_c, 0, 56, 0
2, 24790, Note_on_c, 0, 71, 0
2, 24925, Note_on_c, 0, 64, 0
2, 24930, Note_on_c, 0, 55, 50
2, 25186, Note_on_c, 0, 74, 60
2, 25222, Note_on_c, 0, 73, 0
2, 25260, Note_on_c, 0, 74, 0
2, 25421, Note_on_c, 0, 54, 59
2, 25432, Note_on_c, 0, 62, 64
2, 25473, Note_on_c, 0, 62, 0
2, 25478, Note_on_c, 0, 55, 0
2, 25517, Note_on_c, 0, 54, 0
2, 25557, Note_on_c, 0, 52, 42
2, 25677, Note_on_c, 0, 74, 51
2, 25686, Note_on_c, 0, 52, 0
2, 25697, Note_on_c, 0, 54, 52
2, 25920, Note_on_c, 0, 50, 47
2, 25944, Note_on_c, 0, 54, 0
2, 26186, Note_on_c, 0, 52, 47
2, 26272, Note_on_c, 0, 50, 0
2, 26439, Note_on_c, 0, 73, 57
2, 26563, Note_on_c, 0, 74, 0
2, 26680, Note_on_c, 0, 54, 47
2, 26705, Note_on_c, 0, 81, 66
2, 26725, Note_on_c, 0, 73, 0
2, 26739, Note_on_c, 0, 52, 0
2, 26982, Note_on_c, 0, 72, 55
2, 27015, Note_on_c, 0, 54, 0
2, 27039, Note_on_c, 0, 81, 0
2, 27203, Note_on_c, 0, 55, 62
2, 27256, Note_on_c, 0, 55, 0
2, 27444, Note_on_c, 0, 43, 61
2, 27463, Note_on_c, 0, 71, 59
2, 27475, Note_on_c, 0, 72, 0
2, 27508, Note_on_c, 0, 43, 0
2, 27572, Note_on_c, 0, 71, 0
2, 27575, Note_on_c, 0, 69, 58
2, 27685, Note_on_c, 0, 69, 0
2, 27687, Note_on_c, 0, 55, 55
2, 27721, Note_on_c, 0, 71, 52
2, 27970, Note_on_c, 0, 67, 59
2, 27981, Note_on_c, 0, 71, 0
2, 28207, Note_on_c, 0, 69, 66
2, 28315, Note_on_c, 0, 67, 0
2, 28456, Note_on_c, 0, 54, 51
2, 28527, Note_on_c, 0, 55, 0
2, 28697, Note_on_c, 0, 71, 69
2, 28702, Note_on_c, 0, 62, 49
2, 28741, Note_on_c, 0, 54, 0
2, 28868, Note_on_c, 0, 69, 0
2, 28935, Note_on_c, 0, 53, 61
2, 28966, Note_on_c, 0, 62, 0
2, 29194, Note_on_c, 0, 72, 60
2, 29267, Note_on_c, 0, 71, 0
2, 29309, Note_on_c, 0, 53, 0
2, 29324, Note_on_c, 0, 52, 60
2, 29435, Note_on_c, 0, 53, 73
2, 29444, Note_on_c, 0, 52, 0
2, 29540, Note_on_c, 0, 55, 69
2, 29541, Note_on_c, 0, 53, 0
2, 29691, Note_on_c, 0, 57, 53
2, 29716, Note_on_c, 0, 84, 78
2, 29731, Note_on_c, 0, 55, 0
2, 29848, Note_on_c, 0, 72, 0
2, 29970, Note_on_c, 0, 52, 64
2, 30020, Note_on_c, 0, 57, 0
2, 30211, Note_on_c, 0, 83, 80
2, 30216, Note_on_c, 0, 51, 54
2, 30285, Note_on_c, 0, 52, 0
2, 30458, Note_on_c, 0, 54, 65
2, 30465, Note_on_c, 0, 84, 0
2, 30511, Note_on_c, 0, 51, 0
2, 30698, Note_on_c, 0, 55, 59
2, 30714, Note_on_c, 0, 82, 77
2, 30835, Note_on_c, 0, 83, 0
2, 30836, Note_on_c, 0, 54, 0
2, 30949, Note_on_c, 0, 50, 64
2, 31005, Note_on_c, 0, 55, 0
2, 31200, Note_on_c, 0, 49, 49
2, 31201, Note_on_c, 0, 81, 74
2, 31262, Note_on_c, 0, 50, 0
2, 31348, Note_on_c, 0, 82, 0
2, 31456, Note_on_c, 0, 52, 60
2, 31473, Note_on_c, 0, 49, 0
2, 31708, Note_on_c, 0, 80, 70
2, 31714, Note_on_c, 0, 53, 46
2, 31736, Note_on_c, 0, 52, 0
2, 31828, Note_on_c, 0, 81, 0
2, 31950, Note_on_c, 0, 48, 50
2, 32020, Note_on_c, 0, 53, 0
2, 32211, Note_on_c, 0, 79, 63
2, 32422, Note_on_c, 0, 80, 0
2, 32476, Note_on_c, 0, 47, 45
2, 32495, Note_on_c, 0, 48, 0
2, 32706, Note_on_c, 0, 77, 49
2, 32861, Note_on_c, 0, 79, 0
2, 32950, Note_on_c, 0, 47, 0
2, 32969, Note_on_c, 0, 48, 51
2, 33042, Note_on_c, 0, 48, 0
2, 33070, Note_on_c, 0, 50, 48
2, 33188, Note_on_c, 0, 43, 43
2, 33188, Note_on_c, 0, 50, 0
2, 33239, Note_on_c, 0, 77, 0
2, 33337, Note_on_c, 0, 71, 49
2, 33438, Note_on_c, 0, 72, 64
2, 33444, Note_on_c, 0, 71, 0
2, 33538, Note_on_c, 0, 74, 65
2, 33554, Note_on_c, 0, 72, 0
2, 33684, Note_on_c, 0, 55, 57
2, 33685, Note_on_c, 0, 76, 48
2, 33692, Note_on_c, 0, 74, 0
2, 33754, Note_on_c, 0, 43, 0
2, 33961, Note_on_c, 0, 71, 63
2, 34075, Note_on_c, 0, 76, 0
2, 34199, Note_on_c, 0, 54, 57
2, 34204, Note_on_c, 0, 70, 60
2, 34313, Note_on_c, 0, 71, 0
2, 34332, Note_on_c, 0, 55, 0
2, 34466, Note_on_c, 0, 73, 66
2, 34497, Note_on_c, 0, 70, 0
2, 34703, Note_on_c, 0, 53, 58
2, 34715, Note_on_c, 0, 74, 57
2, 34800, Note_on_c, 0, 54, 0
2, 34846, Note_on_c, 0, 73, 0
2, 34966, Note_on_c, 0, 69, 60
2, 35105, Note_on_c, 0, 74, 0
2, 35210, Note_on_c, 0, 52, 50
2, 35222, Note_on_c, 0, 68, 54
2, 35334, Note_on_c, 0, 69, 0
2, 35335, Note_on_c, 0, 53, 0
2, 35477, Note_on_c, 0, 71, 58
2, 35518, Note_on_c, 0, 68, 0
2, 35697, Note_on_c, 0, 51, 41
2, 35719, Note_on_c, 0, 72, 55
2, 35777, Note_on_c, 0, 52, 0
2, 35799, Note_on_c, 0, 71, 0
2, 35992, Note_on_c, 0, 67, 44
2, 36202, Note_on_c, 0, 72, 0
2, 36221, Note_on_c, 0, 50, 37
2, 36259, Note_on_c, 0, 51, 0
2, 36467, Note_on_c, 0, 66, 46
2, 36550, Note_on_c, 0, 67, 0
2, 36721, Note_on_c, 0, 48, 34
2, 36840, Note_on_c, 0, 50, 0
2, 36972, Note_on_c, 0, 66, 0
2, 36990, Note_on_c, 0, 67, 50
2, 37076, Note_on_c, 0, 67, 0
2, 37096, Note_on_c, 0, 69, 52
2, 37201, Note_on_c, 0, 69, 0
2, 37254, Note_on_c, 0, 62, 36
2, 37471, Note_on_c, 0, 48, 0
2, 37486, Note_on_c, 0, 47, 47
2, 37560, Note_on_c, 0, 47, 0
2, 37622, Note_on_c, 0, 45, 30
2, 37683, Note_on_c, 0, 45, 0
2, 37713, Note_on_c, 0, 47, 45
2, 37747, Note_on_c, 0, 67, 46
2, 37771, Note_on_c, 0, 47, 0
2, 37775, Note_on_c, 0, 62, 0
2, 38004, Note_on_c, 0, 55, 48
2, 38254, Note_on_c, 0, 69, 56
2, 38491, Note_on_c, 0, 54, 54
2, 38491, Note_on_c, 0, 55, 0
2, 38747, Note_on_c, 0, 62, 44
2, 38753, Note_on_c, 0, 71, 62
2, 38754, Note_on_c, 0, 54, 0
2, 38829, Note_on_c, 0, 67, 0
2, 38991, Note_on_c, 0, 69, 0
2, 39009, Note_on_c, 0, 53, 52
2, 39018, Note_on_c, 0, 62, 0
2, 39262, Note_on_c, 0, 72, 58
2, 39290, Note_on_c, 0, 71, 0
2, 39505, Note_on_c, 0, 52, 50
2, 39538, Note_on_c, 0, 53, 0
2, 39604, Note_on_c, 0, 72, 0
2, 39614, Note_on_c, 0, 50, 50
2, 39623, Note_on_c, 0, 52, 0
2, 39736, Note_on_c, 0, 69, 57
2, 39750, Note_on_c, 0, 49, 49
2, 39756, Note_on_c, 0, 50, 0
2, 39911, Note_on_c, 0, 49, 0
2, 39994, Note_on_c, 0, 57, 59
2, 40230, Note_on_c, 0, 71, 68
2, 40462, Note_on_c, 0, 56, 60
2, 40486, Note_on_c, 0, 57, 0
2, 40579, Note_on_c, 0, 69, 0
2, 40718, Note_on_c, 0, 64, 53
2, 40723, Note_on_c, 0, 73, 70
2, 40742, Note_on_c, 0, 56, 0
2, 40830, Note_on_c, 0, 71, 0
2, 40958, Note_on_c, 0, 55, 64
2, 40975, Note_on_c, 0, 64, 0
2, 41243, Note_on_c, 0, 74, 63
2, 41352, Note_on_c, 0, 73, 0
2, 41355, Note_on_c, 0, 55, 0
2, 41357, Note_on_c, 0, 54, 60
2, 41468, Note_on_c, 0, 74, 0
2, 41470, Note_on_c, 0, 55, 67
2, 41493, Note_on_c, 0, 54, 0
2, 41565, Note_on_c, 0, 57, 73
2, 41576, Note_on_c, 0, 55, 0
2, 41747, Note_on_c, 0, 58, 56
2, 41757, Note_on_c, 0, 62, 47
2, 41798, Note_on_c, 0, 57, 0
2, 42062, Note_on_c, 0, 53, 58
2, 42112, Note_on_c, 0, 58, 0
2, 42318, Note_on_c, 0, 52, 49
2, 42323, Note_on_c, 0, 61, 56
2, 42383, Note_on_c, 0, 53, 0
2, 42450, Note_on_c, 0, 62, 0
2, 42616, Note_on_c, 0, 56, 65
2, 42691, Note_on_c, 0, 52, 0
2, 42851, Note_on_c, 0, 57, 62
2, 42859, Note_on_c, 0, 60, 53
2, 42930, Note_on_c, 0, 56, 0
2, 42971, Note_on_c, 0, 61, 0
2, 43099, Note_on_c, 0, 51, 53
2, 43185, Note_on_c, 0, 57, 0
2, 43336, Note_on_c, 0, 50, 48
2, 43337, Note_on_c, 0, 59, 55
2, 43366, Note_on_c, 0, 51, 0
2, 43455, Note_on_c, 0, 60, 0
2, 43588, Note_on_c, 0, 54, 49
2, 43671, Note_on_c, 0, 50, 0
2, 43828, Note_on_c, 0, 58, 52
2, 43849, Note_on_c, 0, 55, 50
2, 43901, Note_on_c, 0, 54, 0
2, 43952, Note_on_c, 0, 59, 0
2, 44093, Note_on_c, 0, 49, 48
2, 44179, Note_on_c, 0, 55, 0
2, 44353, Note_on_c, 0, 57, 51
2, 44532, Note_on_c, 0, 58, 0
2, 44600, Note_on_c, 0, 50, 43
2, 44671, Note_on_c, 0, 49, 0
2, 44850, Note_on_c, 0, 55, 44
2, 45015, Note_on_c, 0, 57, 0
2, 45114, Note_on_c, 0, 50, 0
2, 45115, Note_on_c, 0, 52, 37
2, 45375, Note_on_c, 0, 45, 34
2, 45494, Note_on_c, 0, 52, 0
2, 45559, Note_on_c, 0, 55, 0
2, 45643, Note_on_c, 0, 53, 45
2, 45731, Note_on_c, 0, 53, 0
2, 45763, Note_on_c, 0, 52, 45
2, 45835, Note_on_c, 0, 52, 0
2, 45879, Note_on_c, 0, 50, 41
2, 45893, Note_on_c, 0, 53, 44
2, 45981, Note_on_c, 0, 53, 0
2, 46005, Note_on_c, 0, 45, 0
2, 46186, Note_on_c, 0, 62, 47
2, 46429, Note_on_c, 0, 52, 44
2, 46695, Note_on_c, 0, 61, 55
2, 46753, Note_on_c, 0, 62, 0
2, 46766, Note_on_c, 0, 50, 0
2, 46941, Note_on_c, 0, 54, 55
2, 46946, Note_on_c, 0, 69, 58
2, 46966, Note_on_c, 0, 61, 0
2, 47045, Note_on_c, 0, 52, 0
2, 47217, Note_on_c, 0, 69, 0
2, 47235, Note_on_c, 0, 60, 48
2, 47486, Note_on_c, 0, 55, 45
2, 47495, Note_on_c, 0, 54, 0
2, 47700, Note_on_c, 0, 60, 0
2, 47740, Note_on_c, 0, 59, 48
2, 47745, Note_on_c, 0, 55, 0
2, 47851, Note_on_c, 0, 59, 0
2, 47867, Note_on_c, 0, 57, 57
2, 47983, Note_on_c, 0, 57, 0
2, 47987, Note_on_c, 0, 52, 42
2, 48197, Note_on_c, 0, 64, 56
2, 48458, Note_on_c, 0, 54, 54
2, 48614, Note_on_c, 0, 52, 0
2, 48734, Note_on_c, 0, 63, 63
2, 48815, Note_on_c, 0, 64, 0
2, 48972, Note_on_c, 0, 56, 58
2, 48990, Note_on_c, 0, 71, 68
2, 49034, Note_on_c, 0, 63, 0
2, 49047, Note_on_c, 0, 54, 0
2, 49270, Note_on_c, 0, 62, 53
2, 49325, Note_on_c, 0, 71, 0
2, 49478, Note_on_c, 0, 56, 0
2, 49498, Note_on_c, 0, 57, 48
2, 49606, Note_on_c, 0, 57, 0
2, 49620, Note_on_c, 0, 62, 0
2, 49658, Note_on_c, 0, 60, 56
2, 49747, Note_on_c, 0, 45, 52
2, 49768, Note_on_c, 0, 62, 63
2, 49817, Note_on_c, 0, 60, 0
2, 49818, Note_on_c, 0, 45, 0
2, 49855, Note_on_c, 0, 64, 68
2, 49890, Note_on_c, 0, 62, 0
2, 50010, Note_on_c, 0, 65, 58
2, 50011, Note_on_c, 0, 57, 57
2, 50050, Note_on_c, 0, 64, 0
2, 50307, Note_on_c, 0, 60, 59
2, 50398, Note_on_c, 0, 65, 0
2, 50552, Note_on_c, 0, 59, 54
2, 50555, Note_on_c, 0, 56, 52
2, 50674, Note_on_c, 0, 60, 0
2, 50681, Note_on_c, 0, 57, 0
2, 50846, Note_on_c, 0, 63, 58
2, 50929, Note_on_c, 0, 59, 0
2, 51086, Note_on_c, 0, 55, 52
2, 51096, Note_on_c, 0, 64, 49
2, 51136, Note_on_c, 0, 56, 0
2, 51217, Note_on_c, 0, 63, 0
2, 51360, Note_on_c, 0, 58, 55
2, 51427, Note_on_c, 0, 64, 0
2, 51586, Note_on_c, 0, 54, 44
2, 51610, Note_on_c, 0, 57, 46
2, 51684, Note_on_c, 0, 58, 0
2, 51694, Note_on_c, 0, 55, 0
2, 51866, Note_on_c, 0, 61, 54
2, 51933, Note_on_c, 0, 57, 0
2, 52104, Note_on_c, 0, 53, 46
2, 52124, Note_on_c, 0, 62, 49
2, 52172, Note_on_c, 0, 54, 0
2, 52208, Note_on_c, 0, 61, 0
2, 52414, Note_on_c, 0, 56, 45
2, 52515, Note_on_c, 0, 62, 0
2, 52645, Note_on_c, 0, 52, 41
2, 52668, Note_on_c, 0, 53, 0
2, 52915, Note_on_c, 0, 57, 43
2, 52996, Note_on_c, 0, 56, 0
2, 53045, Note_on_c, 0, 52, 0
2, 53158, Note_on_c, 0, 50, 40
2, 53414, Note_on_c, 0, 57, 0
2, 53419, Note_on_c, 0, 59, 50
2, 53691, Note_on_c, 0, 52, 44
2, 53719, Note_on_c, 0, 59, 0
2, 53899, Note_on_c, 0, 52, 0
2, 53949, Note_on_c, 0, 50, 0
2, 53953, Note_on_c, 0, 48, 48
2, 54022, Note_on_c, 0, 48, 0
2, 54046, Note_on_c, 0, 47, 52
2, 54152, Note_on_c, 0, 47, 0
2, 54174, Note_on_c, 0, 48, 43
2, 54215, Note_on_c, 0, 64, 49
2, 54274, Note_on_c, 0, 48, 0
2, 54443, Note_on_c, 0, 52, 42
2, 54691, Note_on_c, 0, 66, 56
2, 54942, Note_on_c, 0, 52, 0
2, 54950, Note_on_c, 0, 51, 49
2, 55120, Note_on_c, 0, 64, 0
2, 55200, Note_on_c, 0, 51, 0
2, 55207, Note_on_c, 0, 59, 47
2, 55207, Note_on_c, 0, 68, 57
2, 55295, Note_on_c, 0, 66, 0
2, 55439, Note_on_c, 0, 59, 0
2, 55450, Note_on_c, 0, 50, 47
2, 55544, Note_on_c, 0, 68, 0
2, 55723, Note_on_c, 0, 69, 60
2, 55775, Note_on_c, 0, 69, 0
2, 55978, Note_on_c, 0, 49, 53
2, 56000, Note_on_c, 0, 57, 59
2, 56025, Note_on_c, 0, 50, 0
2, 56061, Note_on_c, 0, 57, 0
2, 56071, Note_on_c, 0, 49, 0
2, 56106, Note_on_c, 0, 47, 46
2, 56227, Note_on_c, 0, 47, 0
2, 56227, Note_on_c, 0, 49, 53
2, 56249, Note_on_c, 0, 69, 62
2, 56495, Note_on_c, 0, 45, 53
2, 56505, Note_on_c, 0, 49, 0
2, 56746, Note_on_c, 0, 47, 53
2, 56801, Note_on_c, 0, 45, 0
2, 56994, Note_on_c, 0, 68, 61
2, 57098, Note_on_c, 0, 69, 0
2, 57255, Note_on_c, 0, 49, 46
2, 57270, Note_on_c, 0, 76, 62
2, 57286, Note_on_c, 0, 68, 0
2, 57314, Note_on_c, 0, 47, 0
2, 57547, Note_on_c, 0, 76, 0
2, 57550, Note_on_c, 0, 67, 46
2, 57603, Note_on_c, 0, 49, 0
2, 57772, Note_on_c, 0, 50, 49
2, 57847, Note_on_c, 0, 50, 0
2, 58032, Note_on_c, 0, 38, 58
2, 58032, Note_on_c, 0, 67, 0
2, 58049, Note_on_c, 0, 66, 52
2, 58090, Note_on_c, 0, 38, 0
2, 58147, Note_on_c, 0, 66, 0
2, 58173, Note_on_c, 0, 64, 45
2, 58264, Note_on_c, 0, 64, 0
2, 58267, Note_on_c, 0, 50, 43
2, 58305, Note_on_c, 0, 66, 53
2, 58553, Note_on_c, 0, 66, 0
2, 58558, Note_on_c, 0, 62, 58
2, 58794, Note_on_c, 0, 64, 63
2, 59048, Note_on_c, 0, 62, 0
2, 59053, Note_on_c, 0, 49, 56
2, 59094, Note_on_c, 0, 50, 0
2, 59286, Note_on_c, 0, 66, 54
2, 59299, Note_on_c, 0, 57, 48
2, 59309, Note_on_c, 0, 49, 0
2, 59358, Note_on_c, 0, 64, 0
2, 59541, Note_on_c, 0, 48, 48
2, 59555, Note_on_c, 0, 57, 0
2, 59773, Note_on_c, 0, 67, 52
2, 59794, Note_on_c, 0, 66, 0
2, 59858, Note_on_c, 0, 67, 0
2, 60027, Note_on_c, 0, 48, 0
2, 60031, Note_on_c, 0, 55, 56
2, 60032, Note_on_c, 0, 47, 56
2, 60077, Note_on_c, 0, 55, 0
2, 60105, Note_on_c, 0, 47, 0
2, 60142, Note_on_c, 0, 45, 49
2, 60245, Note_on_c, 0, 45, 0
2, 60263, Note_on_c, 0, 47, 53
2, 60274, Note_on_c, 0, 67, 57
2, 60504, Note_on_c, 0, 43, 55
2, 60507, Note_on_c, 0, 47, 0
2, 60760, Note_on_c, 0, 45, 50
2, 60850, Note_on_c, 0, 43, 0
2, 60999, Note_on_c, 0, 66, 51
2, 61098, Note_on_c, 0, 67, 0
2, 61273, Note_on_c, 0, 66, 0
2, 61274, Note_on_c, 0, 74, 57
2, 61277, Note_on_c, 0, 47, 45
2, 61322, Note_on_c, 0, 45, 0
2, 61570, Note_on_c, 0, 65, 46
2, 61689, Note_on_c, 0, 74, 0
2, 61767, Note_on_c, 0, 48, 55
2, 61837, Note_on_c, 0, 47, 0
2, 62020, Note_on_c, 0, 65, 0
2, 62033, Note_on_c, 0, 64, 59
2, 62141, Note_on_c, 0, 64, 0
2, 62150, Note_on_c, 0, 62, 64
2, 62239, Note_on_c, 0, 62, 0
2, 62271, Note_on_c, 0, 64, 61
2, 62365, Note_on_c, 0, 64, 0
2, 62515, Note_on_c, 0, 47, 50
2, 62527, Note_on_c, 0, 48, 0
2, 62542, Note_on_c, 0, 76, 74
2, 62631, Note_on_c, 0, 47, 0
2, 62661, Note_on_c, 0, 45, 55
2, 62762, Note_on_c, 0, 45, 0
2, 62801, Note_on_c, 0, 52, 58
2, 62890, Note_on_c, 0, 52, 0
2, 62912, Note_on_c, 0, 53, 65
2, 63004, Note_on_c, 0, 53, 0
2, 63019, Note_on_c, 0, 55, 61
2, 63059, Note_on_c, 0, 76, 0
2, 63064, Note_on_c, 0, 77, 67
2, 63108, Note_on_c, 0, 55, 0
2, 63136, Note_on_c, 0, 53, 53
2, 63188, Note_on_c, 0, 76, 80
2, 63194, Note_on_c, 0, 53, 0
2, 63214, Note_on_c, 0, 55, 61
2, 63233, Note_on_c, 0, 77, 0
2, 63280, Note_on_c, 0, 55, 0
2, 63306, Note_on_c, 0, 53, 63
2, 63306, Note_on_c, 0, 74, 77
2, 63344, Note_on_c, 0, 76, 0
2, 63362, Note_on_c, 0, 53, 0
2, 63403, Note_on_c, 0, 55, 62
2, 63412, Note_on_c, 0, 72, 78
2, 63437, Note_on_c, 0, 74, 0
2, 63445, Note_on_c, 0, 55, 0
2, 63480, Note_on_c, 0, 53, 61
2, 63498, Note_on_c, 0, 72, 0
2, 63519, Note_on_c, 0, 71, 74
2, 63527, Note_on_c, 0, 53, 0
2, 63541, Note_on_c, 0, 55, 62
2, 63591, Note_on_c, 0, 71, 0
2, 63636, Note_on_c, 0, 69, 57
2, 63646, Note_on_c, 0, 53, 55
2, 63662, Note_on_c, 0, 55, 0
2, 63692, Note_on_c, 0, 69, 0
2, 63692, Note_on_c, 0, 69, 29
2, 63781, Note_on_c, 0, 68, 73
2, 63797, Note_on_c, 0, 52, 40
2, 63823, Note_on_c, 0, 69, 0
2, 63827, Note_on_c, 0, 53, 0
2, 63937, Note_on_c, 0, 64, 69
2, 64049, Note_on_c, 0, 64, 0
2, 64063, Note_on_c, 0, 62, 56
2, 64200, Note_on_c, 0, 60, 61
2, 64202, Note_on_c, 0, 62, 0
2, 64263, Note_on_c, 0, 60, 0
2, 64312, Note_on_c, 0, 59, 52
2, 64397, Note_on_c, 0, 59, 0
2, 64438, Note_on_c, 0, 57, 54
2, 64487, Note_on_c, 0, 52, 0
2, 64541, Note_on_c, 0, 57, 0
2, 64548, Note_on_c, 0, 56, 55
2, 64654, Note_on_c, 0, 56, 0
2, 64678, Note_on_c, 0, 54, 49
2, 64840, Note_on_c, 0, 54, 0
2, 64889, Note_on_c, 0, 52, 40
2, 65301, Note_on_c, 0, 52, 0
2, 65579, Note_on_c, 0, 40, 35
2, 65843, Note_on_c, 0, 68, 0
2, 66148, Note_on_c, 0, 40, 0
2, 66583, Note_on_c, 0, 76, 44
2, 66717, Note_on_c, 0, 60, 40
2, 66802, Note_on_c, 0, 60, 0
2, 66839, Note_on_c, 0, 59, 46
2, 66916, Note_on_c, 0, 59, 0
2, 66947, Note_on_c, 0, 76, 0
2, 66954, Note_on_c, 0, 57, 46
2, 67084, Note_on_c, 0, 57, 0
2, 67100, Note_on_c, 0, 56, 41
2, 67114, Note_on_c, 0, 64, 45
2, 67413, Note_on_c, 0, 61, 39
2, 67454, Note_on_c, 0, 56, 0
2, 67656, Note_on_c, 0, 61, 0
2, 67659, Note_on_c, 0, 62, 38
2, 67659, Note_on_c, 0, 65, 40
2, 67923, Note_on_c, 0, 58, 40
2, 67974, Note_on_c, 0, 62, 0
2, 67992, Note_on_c, 0, 64, 0
2, 68159, Note_on_c, 0, 66, 46
2, 68176, Note_on_c, 0, 57, 36
2, 68193, Note_on_c, 0, 58, 0
2, 68283, Note_on_c, 0, 65, 0
2, 68448, Note_on_c, 0, 63, 45
2, 68557, Note_on_c, 0, 57, 0
2, 68672, Note_on_c, 0, 64, 38
2, 68686, Note_on_c, 0, 67, 49
2, 68765, Note_on_c, 0, 66, 0
2, 68926, Note_on_c, 0, 60, 46
2, 69041, Note_on_c, 0, 64, 0
2, 69083, Note_on_c, 0, 63, 0
2, 69151, Note_on_c, 0, 60, 0
2, 69157, Note_on_c, 0, 59, 37
2, 69167, Note_on_c, 0, 68, 56
2, 69388, Note_on_c, 0, 67, 0
2, 69421, Note_on_c, 0, 65, 43
2, 69485, Note_on_c, 0, 59, 0
2, 69651, Note_on_c, 0, 69, 56
2, 69765, Note_on_c, 0, 68, 0
2, 69892, Note_on_c, 0, 64, 50
2, 70022, Note_on_c, 0, 65, 0
2, 70141, Note_on_c, 0, 69, 0
2, 70149, Note_on_c, 0, 71, 59
2, 70401, Note_on_c, 0, 62, 47
2, 70458, Note_on_c, 0, 64, 0
2, 70656, Note_on_c, 0, 72, 45
2, 70662, Note_on_c, 0, 69, 45
2, 70662, Note_on_c, 0, 71, 0
2, 70725, Note_on_c, 0, 62, 0
2, 70762, Note_on_c, 0, 72, 0
2, 70778, Note_on_c, 0, 77, 54
2, 70877, Note_on_c, 0, 76, 55
2, 70906, Note_on_c, 0, 77, 0
2, 70993, Note_on_c, 0, 74, 52
2, 71016, Note_on_c, 0, 76, 0
2, 71136, Note_on_c, 0, 57, 35
2, 71136, Note_on_c, 0, 73, 44
2, 71137, Note_on_c, 0, 74, 0
2, 71211, Note_on_c, 0, 69, 0
2, 71431, Note_on_c, 0, 78, 54
2, 71451, Note_on_c, 0, 73, 0
2, 71665, Note_on_c, 0, 79, 58
2, 71677, Note_on_c, 0, 58, 37
2, 71743, Note_on_c, 0, 57, 0
2, 71801, Note_on_c, 0, 78, 0
2, 71933, Note_on_c, 0, 75, 54
2, 72005, Note_on_c, 0, 79, 0
2, 72167, Note_on_c, 0, 59, 52
2, 72171, Note_on_c, 0, 74, 41
2, 72212, Note_on_c, 0, 75, 0
2, 72273, Note_on_c, 0, 58, 0
2, 72426, Note_on_c, 0, 80, 63
2, 72496, Note_on_c, 0, 74, 0
2, 72684, Note_on_c, 0, 81, 63
2, 72692, Note_on_c, 0, 60, 47
2, 72752, Note_on_c, 0, 59, 0
2, 72946, Note_on_c, 0, 77, 59
2, 73044, Note_on_c, 0, 80, 0
2, 73059, Note_on_c, 0, 81, 0
2, 73185, Note_on_c, 0, 76, 57
2, 73191, Note_on_c, 0, 61, 51
2, 73242, Note_on_c, 0, 77, 0
2, 73247, Note_on_c, 0, 60, 0
2, 73456, Note_on_c, 0, 82, 75
2, 73522, Note_on_c, 0, 76, 0
2, 73688, Note_on_c, 0, 62, 59
2, 73801, Note_on_c, 0, 61, 0
2, 73944, Note_on_c, 0, 81, 75
2, 74087, Note_on_c, 0, 82, 0
2, 74189, Note_on_c, 0, 64, 62
2, 74266, Note_on_c, 0, 62, 0
2, 74462, Note_on_c, 0, 80, 68
2, 74510, Note_on_c, 0, 81, 0
2, 74724, Note_on_c, 0, 80, 0
2, 74725, Note_on_c, 0, 65, 35
2, 74745, Note_on_c, 0, 64, 0
2, 74747, Note_on_c, 0, 81, 58
2, 74873, Note_on_c, 0, 79, 64
2, 74893, Note_on_c, 0, 81, 0
2, 74964, Note_on_c, 0, 77, 70
2, 74975, Note_on_c, 0, 79, 0
2, 75048, Note_on_c, 0, 77, 0
2, 75069, Note_on_c, 0, 76, 64
2, 75209, Note_on_c, 0, 62, 38
2, 75214, Note_on_c, 0, 76, 0
2, 75214, Note_on_c, 0, 77, 56
2, 75301, Note_on_c, 0, 65, 0
2, 75482, Note_on_c, 0, 70, 54
2, 75595, Note_on_c, 0, 77, 0
2, 75693, Note_on_c, 0, 60, 41
2, 75701, Note_on_c, 0, 69, 52
2, 75710, Note_on_c, 0, 70, 0
2, 75822, Note_on_c, 0, 62, 0
2, 75944, Note_on_c, 0, 76, 59
2, 75998, Note_on_c, 0, 69, 0
2, 76179, Note_on_c, 0, 74, 51
2, 76185, Note_on_c, 0, 59, 47
2, 76240, Note_on_c, 0, 60, 0
2, 76247, Note_on_c, 0, 76, 0
2, 76368, Note_on_c, 0, 74, 0
2, 76493, Note_on_c, 0, 68, 54
2, 76718, Note_on_c, 0, 57, 37
2, 76724, Note_on_c, 0, 59, 0
2, 76871, Note_on_c, 0, 68, 0
2, 76876, Note_on_c, 0, 74, 53
2, 76962, Note_on_c, 0, 72, 62
2, 76992, Note_on_c, 0, 74, 0
2, 77067, Note_on_c, 0, 71, 67
2, 77083, Note_on_c, 0, 72, 0
2, 77165, Note_on_c, 0, 71, 0
2, 77202, Note_on_c, 0, 60, 43
2, 77202, Note_on_c, 0, 69, 49
2, 77245, Note_on_c, 0, 57, 0
2, 77441, Note_on_c, 0, 76, 62
2, 77469, Note_on_c, 0, 69, 0
2, 77671, Note_on_c, 0, 59, 36
2, 77682, Note_on_c, 0, 74, 54
2, 77736, Note_on_c, 0, 76, 0
2, 77757, Note_on_c, 0, 60, 0
2, 77942, Note_on_c, 0, 67, 42
2, 78007, Note_on_c, 0, 74, 0
2, 78154, Note_on_c, 0, 57, 41
2, 78200, Note_on_c, 0, 66, 47
2, 78221, Note_on_c, 0, 59, 0
2, 78296, Note_on_c, 0, 67, 0
2, 78426, Note_on_c, 0, 72, 56
2, 78452, Note_on_c, 0, 66, 0
2, 78619, Note_on_c, 0, 57, 0
2, 78626, Note_on_c, 0, 72, 0
2, 78647, Note_on_c, 0, 55, 46
2, 78672, Note_on_c, 0, 71, 52
2, 78804, Note_on_c, 0, 59, 54
2, 78841, Note_on_c, 0, 55, 0
2, 78874, Note_on_c, 0, 60, 61
2, 78918, Note_on_c, 0, 59, 0
2, 78995, Note_on_c, 0, 62, 67
2, 79015, Note_on_c, 0, 60, 0
2, 79130, Note_on_c, 0, 64, 51
2, 79156, Note_on_c, 0, 62, 0
2, 79158, Note_on_c, 0, 79, 67
2, 79341, Note_on_c, 0, 71, 0
2, 79394, Note_on_c, 0, 58, 54
2, 79451, Note_on_c, 0, 64, 0
2, 79625, Note_on_c, 0, 57, 35
2, 79637, Note_on_c, 0, 77, 59
2, 79685, Note_on_c, 0, 58, 0
2, 79881, Note_on_c, 0, 62, 41
2, 79895, Note_on_c, 0, 57, 0
2, 80002, Note_on_c, 0, 79, 0
2, 80117, Note_on_c, 0, 61, 40
2, 80118, Note_on_c, 0, 76, 61
2, 80174, Note_on_c, 0, 62, 0
2, 80376, Note_on_c, 0, 55, 45
2, 80391, Note_on_c, 0, 61, 0
2, 80461, Note_on_c, 0, 77, 0
2, 80557, Note_on_c, 0, 55, 0
2, 80622, Note_on_c, 0, 74, 56
2, 80734, Note_on_c, 0, 76, 0
2, 80741, Note_on_c, 0, 67, 56
2, 80855, Note_on_c, 0, 65, 61
2, 80865, Note_on_c, 0, 67, 0
2, 80944, Note_on_c, 0, 64, 66
2, 80971, Note_on_c, 0, 65, 0
2, 81082, Note_on_c, 0, 62, 52
2, 81083, Note_on_c, 0, 77, 68
2, 81134, Note_on_c, 0, 74, 0
2, 81136, Note_on_c, 0, 64, 0
2, 81328, Note_on_c, 0, 68, 69
2, 81425, Note_on_c, 0, 62, 0
2, 81586, Note_on_c, 0, 69, 67
2, 81599, Note_on_c, 0, 76, 56
2, 81632, Note_on_c, 0, 68, 0
2, 81791, Note_on_c, 0, 77, 0
2, 81868, Note_on_c, 0, 60, 53
2, 81877, Note_on_c, 0, 69, 0
2, 82095, Note_on_c, 0, 60, 0
2, 82105, Note_on_c, 0, 59, 47
2, 82111, Note_on_c, 0, 74, 55
2, 82288, Note_on_c, 0, 76, 0
2, 82372, Note_on_c, 0, 65, 41
2, 82385, Note_on_c, 0, 59, 0
2, 82596, Note_on_c, 0, 65, 0
2, 82663, Note_on_c, 0, 64, 47
2, 82771, Note_on_c, 0, 64, 0
2, 82792, Note_on_c, 0, 62, 44
2, 82885, Note_on_c, 0, 62, 0
2, 82906, Note_on_c, 0, 60, 48
2, 82997, Note_on_c, 0, 74, 0
2, 83012, Note_on_c, 0, 60, 0
2, 83016, Note_on_c, 0, 59, 56
2, 83133, Note_on_c, 0, 59, 0
2, 83144, Note_on_c, 0, 72, 38
2, 83186, Note_on_c, 0, 57, 44
2, 83394, Note_on_c, 0, 72, 0
2, 83445, Note_on_c, 0, 71, 47
2, 83449, Note_on_c, 0, 56, 50
2, 83451, Note_on_c, 0, 57, 0
2, 83738, Note_on_c, 0, 72, 48
2, 83740, Note_on_c, 0, 57, 44
2, 83760, Note_on_c, 0, 56, 0
2, 83999, Note_on_c, 0, 53, 46
2, 84027, Note_on_c, 0, 57, 0
2, 84048, Note_on_c, 0, 71, 0
2, 84235, Note_on_c, 0, 73, 52
2, 84243, Note_on_c, 0, 52, 38
2, 84260, Note_on_c, 0, 53, 0
2, 84334, Note_on_c, 0, 72, 0
2, 84505, Note_on_c, 0, 58, 48
2, 84560, Note_on_c, 0, 52, 0
2, 84718, Note_on_c, 0, 74, 58
2, 84734, Note_on_c, 0, 59, 57
2, 84842, Note_on_c, 0, 73, 0
2, 84945, Note_on_c, 0, 55, 49
2, 84993, Note_on_c, 0, 58, 0
2, 85002, Note_on_c, 0, 59, 0
2, 85187, Note_on_c, 0, 54, 43
2, 85217, Note_on_c, 0, 75, 64
2, 85218, Note_on_c, 0, 55, 0
2, 85366, Note_on_c, 0, 74, 0
2, 85462, Note_on_c, 0, 60, 57
2, 85468, Note_on_c, 0, 54, 0
2, 85715, Note_on_c, 0, 76, 59
2, 85809, Note_on_c, 0, 75, 0
2, 85964, Note_on_c, 0, 59, 56
2, 86064, Note_on_c, 0, 60, 0
2, 86213, Note_on_c, 0, 78, 63
2, 86371, Note_on_c, 0, 76, 0
2, 86446, Note_on_c, 0, 57, 47
2, 86457, Note_on_c, 0, 59, 0
2, 86686, Note_on_c, 0, 78, 0
2, 86699, Note_on_c, 0, 79, 48
2, 86706, Note_on_c, 0, 64, 40
2, 86735, Note_on_c, 0, 57, 0
2, 86834, Note_on_c, 0, 77, 60
2, 86862, Note_on_c, 0, 79, 0
2, 86935, Note_on_c, 0, 76, 66
2, 86952, Note_on_c, 0, 77, 0
2, 87032, Note_on_c, 0, 76, 0
2, 87055, Note_on_c, 0, 74, 49
2, 87193, Note_on_c, 0, 52, 37
2, 87195, Note_on_c, 0, 74, 0
2, 87202, Note_on_c, 0, 73, 53
2, 87239, Note_on_c, 0, 64, 0
2, 87451, Note_on_c, 0, 80, 68
2, 87497, Note_on_c, 0, 73, 0
2, 87704, Note_on_c, 0, 81, 64
2, 87713, Note_on_c, 0, 53, 47
2, 87855, Note_on_c, 0, 80, 0
2, 87873, Note_on_c, 0, 52, 0
2, 87952, Note_on_c, 0, 75, 69
2, 88036, Note_on_c, 0, 81, 0
2, 88198, Note_on_c, 0, 54, 53
2, 88206, Note_on_c, 0, 74, 61
2, 88251, Note_on_c, 0, 75, 0
2, 88262, Note_on_c, 0, 53, 0
2, 88456, Note_on_c, 0, 82, 76
2, 88535, Note_on_c, 0, 74, 0
2, 88749, Note_on_c, 0, 55, 44
2, 88757, Note_on_c, 0, 83, 63
2, 88762, Note_on_c, 0, 54, 0
2, 88820, Note_on_c, 0, 82, 0
2, 89038, Note_on_c, 0, 77, 70
2, 89086, Note_on_c, 0, 83, 0
2, 89274, Note_on_c, 0, 76, 65
2, 89285, Note_on_c, 0, 56, 58
2, 89300, Note_on_c, 0, 55, 0
2, 89329, Note_on_c, 0, 77, 0
2, 89545, Note_on_c, 0, 74, 58
2, 89564, Note_on_c, 0, 76, 0
2, 89777, Note_on_c, 0, 57, 58
2, 89860, Note_on_c, 0, 74, 0
2, 89882, Note_on_c, 0, 56, 0
2, 90049, Note_on_c, 0, 72, 68
2, 90283, Note_on_c, 0, 59, 66
2, 90362, Note_on_c, 0, 57, 0
2, 90566, Note_on_c, 0, 71, 70
2, 90680, Note_on_c, 0, 72, 0
2, 90819, Note_on_c, 0, 59, 0
2, 90821, Note_on_c, 0, 60, 54
2, 91077, Note_on_c, 0, 69, 66
2, 91095, Note_on_c, 0, 71, 0
2, 91219, Note_on_c, 0, 71, 66
2, 91223, Note_on_c, 0, 69, 0
2, 91321, Note_on_c, 0, 57, 42
2, 91336, Note_on_c, 0, 71, 0
2, 91350, Note_on_c, 0, 72, 53
2, 91363, Note_on_c, 0, 60, 0
2, 91604, Note_on_c, 0, 63, 50
2, 91651, Note_on_c, 0, 72, 0
2, 91824, Note_on_c, 0, 55, 36
2, 91846, Note_on_c, 0, 64, 54
2, 91853, Note_on_c, 0, 63, 0
2, 91915, Note_on_c, 0, 57, 0
2, 92109, Note_on_c, 0, 73, 60
2, 92125, Note_on_c, 0, 64, 0
2, 92345, Note_on_c, 0, 53, 41
2, 92358, Note_on_c, 0, 74, 55
2, 92405, Note_on_c, 0, 55, 0
2, 92475, Note_on_c, 0, 73, 0
2, 92615, Note_on_c, 0, 65, 52
2, 92624, Note_on_c, 0, 74, 0
2, 92792, Note_on_c, 0, 53, 0
2, 92846, Note_on_c, 0, 52, 37
2, 92876, Note_on_c, 0, 67, 48
2, 92968, Note_on_c, 0, 53, 54
2, 92975, Note_on_c, 0, 65, 0
2, 93002, Note_on_c, 0, 52, 0
2, 93072, Note_on_c, 0, 55, 61
2, 93093, Note_on_c, 0, 53, 0
2, 93182, Note_on_c, 0, 57, 67
2, 93186, Note_on_c, 0, 55, 0
2, 93324, Note_on_c, 0, 74, 68
2, 93345, Note_on_c, 0, 58, 52
2, 93371, Note_on_c, 0, 57, 0
2, 93422, Note_on_c, 0, 67, 0
2, 93580, Note_on_c, 0, 53, 64
2, 93608, Note_on_c, 0, 58, 0
2, 93809, Note_on_c, 0, 52, 50
2, 93824, Note_on_c, 0, 53, 0
2, 93827, Note_on_c, 0, 73, 70
2, 93957, Note_on_c, 0, 74, 0
2, 94067, Note_on_c, 0, 57, 58
2, 94128, Note_on_c, 0, 52, 0
2, 94321, Note_on_c, 0, 55, 55
2, 94337, Note_on_c, 0, 70, 61
2, 94378, Note_on_c, 0, 57, 0
2, 94581, Note_on_c, 0, 50, 64
2, 94642, Note_on_c, 0, 73, 0
2, 94685, Note_on_c, 0, 55, 0
2, 94730, Note_on_c, 0, 70, 0
2, 94847, Note_on_c, 0, 49, 57
2, 94894, Note_on_c, 0, 50, 0
2, 94988, Note_on_c, 0, 69, 63
2, 95100, Note_on_c, 0, 69, 0
2, 95102, Note_on_c, 0, 67, 59
2, 95204, Note_on_c, 0, 69, 62
2, 95219, Note_on_c, 0, 67, 0
2, 95330, Note_on_c, 0, 55, 54
2, 95341, Note_on_c, 0, 70, 56
2, 95361, Note_on_c, 0, 69, 0
2, 95435, Note_on_c, 0, 49, 0
2, 95475, Note_on_c, 0, 70, 0
2, 95631, Note_on_c, 0, 61, 49
2, 95870, Note_on_c, 0, 62, 50
2, 95873, Note_on_c, 0, 53, 44
2, 95890, Note_on_c, 0, 61, 0
2, 95927, Note_on_c, 0, 55, 0
2, 96119, Note_on_c, 0, 71, 57
2, 96147, Note_on_c, 0, 62, 0
2, 96350, Note_on_c, 0, 52, 44
2, 96371, Note_on_c, 0, 72, 51
2, 96418, Note_on_c, 0, 53, 0
2, 96435, Note_on_c, 0, 71, 0
2, 96624, Note_on_c, 0, 64, 53
2, 96628, Note_on_c, 0, 72, 0
2, 96845, Note_on_c, 0, 52, 0
2, 96861, Note_on_c, 0, 50, 40
2, 96881, Note_on_c, 0, 66, 48
2, 97016, Note_on_c, 0, 52, 49
2, 97039, Note_on_c, 0, 64, 0
2, 97045, Note_on_c, 0, 50, 0
2, 97112, Note_on_c, 0, 54, 58
2, 97127, Note_on_c, 0, 52, 0
2, 97197, Note_on_c, 0, 54, 0
2, 97223, Note_on_c, 0, 55, 59
2, 97340, Note_on_c, 0, 55, 0
2, 97368, Note_on_c, 0, 57, 43
2, 97383, Note_on_c, 0, 72, 63
2, 97468, Note_on_c, 0, 66, 0
2, 97626, Note_on_c, 0, 51, 46
2, 97656, Note_on_c, 0, 57, 0
2, 97859, Note_on_c, 0, 50, 38
2, 97865, Note_on_c, 0, 51, 0
2, 97899, Note_on_c, 0, 71, 58
2, 98151, Note_on_c, 0, 55, 43
2, 98155, Note_on_c, 0, 50, 0
2, 98177, Note_on_c, 0, 72, 0
2, 98426, Note_on_c, 0, 54, 41
2, 98440, Note_on_c, 0, 68, 60
2, 98450, Note_on_c, 0, 55, 0
2, 98695, Note_on_c, 0, 71, 0
2, 98757, Note_on_c, 0, 48, 47
2, 98992, Note_on_c, 0, 54, 0
2, 99107, Note_on_c, 0, 47, 44
2, 99136, Note_on_c, 0, 68, 0
2, 99184, Note_on_c, 0, 48, 0
2, 99290, Note_on_c, 0, 67, 52
2, 99418, Note_on_c, 0, 69, 66
2, 99438, Note_on_c, 0, 67, 0
2, 99513, Note_on_c, 0, 71, 63
2, 99563, Note_on_c, 0, 69, 0
2, 99657, Note_on_c, 0, 52, 54
2, 99666, Note_on_c, 0, 72, 56
2, 99681, Note_on_c, 0, 71, 0
2, 99755, Note_on_c, 0, 47, 0
2, 99957, Note_on_c, 0, 67, 58
2, 99999, Note_on_c, 0, 72, 0
2, 100193, Note_on_c, 0, 51, 50
2, 100211, Note_on_c, 0, 66, 59
2, 100336, Note_on_c, 0, 52, 0
2, 100355, Note_on_c, 0, 67, 0
2, 100458, Note_on_c, 0, 70, 68
2, 100516, Note_on_c, 0, 66, 0
2, 100704, Note_on_c, 0, 50, 57
2, 100716, Note_on_c, 0, 71, 62
2, 100788, Note_on_c, 0, 51, 0
2, 100809, Note_on_c, 0, 70, 0
2, 100985, Note_on_c, 0, 65, 54
2, 101058, Note_on_c, 0, 71, 0
2, 101230, Note_on_c, 0, 49, 50
2, 101234, Note_on_c, 0, 64, 48
2, 101338, Note_on_c, 0, 65, 0
2, 101385, Note_on_c, 0, 50, 0
2, 101479, Note_on_c, 0, 68, 53
2, 101525, Note_on_c, 0, 64, 0
2, 101746, Note_on_c, 0, 69, 51
2, 101749, Note_on_c, 0, 48, 39
2, 101782, Note_on_c, 0, 49, 0
2, 101802, Note_on_c, 0, 68, 0
2, 102030, Note_on_c, 0, 63, 47
2, 102092, Note_on_c, 0, 69, 0
2, 102276, Note_on_c, 0, 47, 32
2, 102353, Note_on_c, 0, 48, 0
2, 102529, Note_on_c, 0, 64, 49
2, 102549, Note_on_c, 0, 63, 0
2, 102780, Note_on_c, 0, 45, 41
2, 102970, Note_on_c, 0, 47, 0
2, 103061, Note_on_c, 0, 65, 47
2, 103184, Note_on_c, 0, 64, 0
2, 103336, Note_on_c, 0, 59, 46
2, 103413, Note_on_c, 0, 65, 0
2, 103420, Note_on_c, 0, 45, 0
2, 103452, Note_on_c, 0, 48, 52
2, 103589, Note_on_c, 0, 48, 0
2, 103591, Note_on_c, 0, 47, 54
2, 103593, Note_on_c, 0, 59, 0
2, 103673, Note_on_c, 0, 47, 0
2, 103689, Note_on_c, 0, 45, 54
2, 103809, Note_on_c, 0, 44, 42
2, 103809, Note_on_c, 0, 45, 0
2, 103845, Note_on_c, 0, 76, 60
2, 104082, Note_on_c, 0, 49, 55
2, 104155, Note_on_c, 0, 44, 0
2, 104337, Note_on_c, 0, 50, 48
2, 104342, Note_on_c, 0, 77, 60
2, 104386, Note_on_c, 0, 49, 0
2, 104590, Note_on_c, 0, 46, 54
2, 104644, Note_on_c, 0, 50, 0
2, 104802, Note_on_c, 0, 76, 0
2, 104840, Note_on_c, 0, 45, 40
2, 104846, Note_on_c, 0, 78, 68
2, 104870, Note_on_c, 0, 46, 0
2, 104979, Note_on_c, 0, 77, 0
2, 105102, Note_on_c, 0, 51, 52
2, 105201, Note_on_c, 0, 45, 0
2, 105315, Note_on_c, 0, 52, 55
2, 105333, Note_on_c, 0, 79, 74
2, 105410, Note_on_c, 0, 78, 0
2, 105583, Note_on_c, 0, 48, 61
2, 105647, Note_on_c, 0, 52, 0
2, 105675, Note_on_c, 0, 51, 0
2, 105821, Note_on_c, 0, 47, 58
2, 105828, Note_on_c, 0, 80, 77
2, 105868, Note_on_c, 0, 48, 0
2, 105967, Note_on_c, 0, 79, 0
2, 106084, Note_on_c, 0, 53, 74
2, 106142, Note_on_c, 0, 47, 0
2, 106342, Note_on_c, 0, 81, 81
2, 106419, Note_on_c, 0, 80, 0
2, 106593, Note_on_c, 0, 52, 66
2, 106650, Note_on_c, 0, 53, 0
2, 106850, Note_on_c, 0, 83, 79
2, 106931, Note_on_c, 0, 81, 0
2, 107109, Note_on_c, 0, 50, 67
2, 107173, Note_on_c, 0, 52, 0
2, 107348, Note_on_c, 0, 83, 0
2, 107370, Note_on_c, 0, 48, 67
2, 107437, Note_on_c, 0, 50, 0
2, 107652, Note_on_c, 0, 81, 75
2, 107757, Note_on_c, 0, 83, 78
2, 107788, Note_on_c, 0, 81, 0
2, 107895, Note_on_c, 0, 84, 70
2, 107897, Note_on_c, 0, 52, 55
2, 107943, Note_on_c, 0, 83, 0
2, 108079, Note_on_c, 0, 84, 0
2, 108117, Note_on_c, 0, 48, 0
2, 108184, Note_on_c, 0, 76, 71
2, 108433, Note_on_c, 0, 54, 71
2, 108599, Note_on_c, 0, 52, 0
2, 108682, Note_on_c, 0, 75, 78
2, 108826, Note_on_c, 0, 76, 0
2, 108927, Note_on_c, 0, 56, 69
2, 108931, Note_on_c, 0, 83, 76
2, 108982, Note_on_c, 0, 75, 0
2, 108988, Note_on_c, 0, 54, 0
2, 109216, Note_on_c, 0, 74, 61
2, 109269, Note_on_c, 0, 83, 0
2, 109444, Note_on_c, 0, 57, 58
2, 109476, Note_on_c, 0, 56, 0
2, 109529, Note_on_c, 0, 74, 0
2, 109576, Note_on_c, 0, 72, 74
2, 109668, Note_on_c, 0, 74, 74
2, 109712, Note_on_c, 0, 72, 0
2, 109757, Note_on_c, 0, 76, 77
2, 109800, Note_on_c, 0, 74, 0
2, 109873, Note_on_c, 0, 45, 50
2, 109892, Note_on_c, 0, 77, 65
2, 109937, Note_on_c, 0, 57, 0
2, 109939, Note_on_c, 0, 76, 0
2, 110091, Note_on_c, 0, 77, 0
2, 110160, Note_on_c, 0, 69, 57
2, 110383, Note_on_c, 0, 47, 53
2, 110610, Note_on_c, 0, 45, 0
2, 110642, Note_on_c, 0, 68, 63
2, 110787, Note_on_c, 0, 69, 0
2, 110883, Note_on_c, 0, 49, 52
2, 110898, Note_on_c, 0, 76, 57
2, 110934, Note_on_c, 0, 68, 0
2, 110943, Note_on_c, 0, 47, 0
2, 111183, Note_on_c, 0, 76, 0
2, 111193, Note_on_c, 0, 67, 43
2, 111428, Note_on_c, 0, 50, 41
2, 111431, Note_on_c, 0, 49, 0
2, 111541, Note_on_c, 0, 67, 0
2, 111581, Note_on_c, 0, 65, 51
2, 111678, Note_on_c, 0, 65, 0
2, 111690, Note_on_c, 0, 67, 57
2, 111777, Note_on_c, 0, 69, 54
2, 111787, Note_on_c, 0, 67, 0
2, 111911, Note_on_c, 0, 70, 50
2, 111914, Note_on_c, 0, 69, 0
2, 111925, Note_on_c, 0, 38, 60
2, 112064, Note_on_c, 0, 50, 0
2, 112155, Note_on_c, 0, 70, 0
2, 112240, Note_on_c, 0, 62, 43
2, 112481, Note_on_c, 0, 40, 51
2, 112614, Note_on_c, 0, 38, 0
2, 112737, Note_on_c, 0, 61, 49
2, 112875, Note_on_c, 0, 62, 0
2, 112974, Note_on_c, 0, 52, 55
2, 112976, Note_on_c, 0, 69, 55
2, 113007, Note_on_c, 0, 61, 0
2, 113105, Note_on_c, 0, 40, 0
2, 113286, Note_on_c, 0, 60, 44
2, 113288, Note_on_c, 0, 69, 0
2, 113493, Note_on_c, 0, 51, 51
2, 113650, Note_on_c, 0, 52, 0
2, 113761, Note_on_c, 0, 59, 47
2, 113836, Note_on_c, 0, 60, 0
2, 113984, Note_on_c, 0, 50, 45
2, 113996, Note_on_c, 0, 68, 51
2, 113999, Note_on_c, 0, 59, 0
2, 114052, Note_on_c, 0, 51, 0
2, 114273, Note_on_c, 0, 68, 0
2, 114302, Note_on_c, 0, 59, 42
2, 114516, Note_on_c, 0, 49, 43
2, 114651, Note_on_c, 0, 50, 0
2, 114768, Note_on_c, 0, 57, 37
2, 114805, Note_on_c, 0, 59, 0
2, 115006, Note_on_c, 0, 57, 0
2, 115016, Note_on_c, 0, 48, 39
2, 115016, Note_on_c, 0, 65, 43
2, 115106, Note_on_c, 0, 49, 0
2, 115318, Note_on_c, 0, 57, 42
2, 115370, Note_on_c, 0, 65, 0
2, 115550, Note_on_c, 0, 47, 42
2, 115652, Note_on_c, 0, 48, 0
2, 115768, Note_on_c, 0, 47, 0
2, 115787, Note_on_c, 0, 57, 0
2, 115822, Note_on_c, 0, 56, 50
2, 115893, Note_on_c, 0, 56, 0
2, 115932, Note_on_c, 0, 54, 47
2, 116035, Note_on_c, 0, 54, 0
2, 116038, Note_on_c, 0, 47, 44
2, 116039, Note_on_c, 0, 56, 47
2, 116191, Note_on_c, 0, 56, 0
2, 116337, Note_on_c, 0, 62, 39
2, 116561, Note_on_c, 0, 45, 43
2, 116684, Note_on_c, 0, 47, 0
2, 116693, Note_on_c, 0, 60, 54
2, 116702, Note_on_c, 0, 62, 0
2, 116778, Note_on_c, 0, 45, 0
2, 116785, Note_on_c, 0, 60, 0
2, 116788, Note_on_c, 0, 59, 63
2, 116853, Note_on_c, 0, 59, 0
2, 116897, Note_on_c, 0, 57, 44
2, 117002, Note_on_c, 0, 45, 44
2, 117020, Note_on_c, 0, 59, 54
2, 117030, Note_on_c, 0, 57, 0
2, 117140, Note_on_c, 0, 59, 0
2, 117277, Note_on_c, 0, 65, 58
2, 117533, Note_on_c, 0, 44, 50
2, 117606, Note_on_c, 0, 45, 0
2, 117648, Note_on_c, 0, 64, 58
2, 117688, Note_on_c, 0, 65, 0
2, 117765, Note_on_c, 0, 62, 63
2, 117792, Note_on_c, 0, 44, 0
2, 117798, Note_on_c, 0, 64, 0
2, 117860, Note_on_c, 0, 61, 66
2, 117867, Note_on_c, 0, 62, 0
2, 117963, Note_on_c, 0, 61, 0
2, 117986, Note_on_c, 0, 62, 62
2, 117989, Note_on_c, 0, 44, 60
2, 118144, Note_on_c, 0, 62, 0
2, 118257, Note_on_c, 0, 71, 77
2, 118510, Note_on_c, 0, 40, 65
2, 118638, Note_on_c, 0, 69, 68
2, 118651, Note_on_c, 0, 71, 0
2, 118674, Note_on_c, 0, 44, 0
2, 118742, Note_on_c, 0, 40, 0
2, 118748, Note_on_c, 0, 68, 78
2, 118772, Note_on_c, 0, 69, 0
2, 118861, Note_on_c, 0, 66, 70
2, 118862, Note_on_c, 0, 68, 0
2, 118983, Note_on_c, 0, 68, 73
2, 118986, Note_on_c, 0, 40, 71
2, 118998, Note_on_c, 0, 66, 0
2, 119154, Note_on_c, 0, 68, 0
2, 119234, Note_on_c, 0, 40, 0
2, 119317, Note_on_c, 0, 74, 71
2, 119562, Note_on_c, 0, 45, 53
2, 119819, Note_on_c, 0, 72, 64
2, 119821, Note_on_c, 0, 74, 0
2, 119931, Note_on_c, 0, 72, 0
2, 119938, Note_on_c, 0, 71, 62
2, 120039, Note_on_c, 0, 71, 0
2, 120053, Note_on_c, 0, 72, 66
2, 120178, Note_on_c, 0, 50, 54
2, 120214, Note_on_c, 0, 45, 0
2, 120265, Note_on_c, 0, 50, 0
2, 120282, Note_on_c, 0, 52, 60
2, 120287, Note_on_c, 0, 72, 0
2, 120313, Note_on_c, 0, 69, 41
2, 120390, Note_on_c, 0, 52, 0
2, 120407, Note_on_c, 0, 54, 58
2, 120562, Note_on_c, 0, 55, 40
2, 120592, Note_on_c, 0, 70, 59
2, 120597, Note_on_c, 0, 54, 0
2, 120718, Note_on_c, 0, 69, 0
2, 120846, Note_on_c, 0, 51, 44
2, 120892, Note_on_c, 0, 55, 0
2, 121079, Note_on_c, 0, 50, 39
2, 121087, Note_on_c, 0, 51, 0
2, 121090, Note_on_c, 0, 71, 62
2, 121270, Note_on_c, 0, 70, 0
2, 121340, Note_on_c, 0, 56, 53
2, 121371, Note_on_c, 0, 50, 0
2, 121572, Note_on_c, 0, 57, 44
2, 121576, Note_on_c, 0, 72, 62
2, 121623, Note_on_c, 0, 56, 0
2, 121635, Note_on_c, 0, 71, 0
2, 121841, Note_on_c, 0, 53, 55
2, 121898, Note_on_c, 0, 57, 0
2, 122071, Note_on_c, 0, 52, 45
2, 122081, Note_on_c, 0, 73, 68
2, 122127, Note_on_c, 0, 53, 0
2, 122236, Note_on_c, 0, 72, 0
2, 122345, Note_on_c, 0, 58, 60
2, 122431, Note_on_c, 0, 52, 0
2, 122578, Note_on_c, 0, 74, 71
2, 122701, Note_on_c, 0, 73, 0
2, 122840, Note_on_c, 0, 57, 61
2, 122893, Note_on_c, 0, 58, 0
2, 123093, Note_on_c, 0, 76, 74
2, 123233, Note_on_c, 0, 74, 0
2, 123356, Note_on_c, 0, 55, 63
2, 123395, Note_on_c, 0, 57, 0
2, 123589, Note_on_c, 0, 53, 61
2, 123592, Note_on_c, 0, 55, 0
2, 123673, Note_on_c, 0, 76, 0
2, 123695, Note_on_c, 0, 53, 0
2, 123712, Note_on_c, 0, 52, 56
2, 123723, Note_on_c, 0, 73, 67
2, 123818, Note_on_c, 0, 53, 67
2, 123824, Note_on_c, 0, 74, 73
2, 123835, Note_on_c, 0, 52, 0
2, 123858, Note_on_c, 0, 73, 0
2, 123918, Note_on_c, 0, 55, 71
2, 123920, Note_on_c, 0, 53, 0
2, 123927, Note_on_c, 0, 76, 78
2, 123948, Note_on_c, 0, 74, 0
2, 124073, Note_on_c, 0, 57, 56
2, 124082, Note_on_c, 0, 77, 71
2, 124093, Note_on_c, 0, 55, 0
2, 124114, Note_on_c, 0, 76, 0
2, 124372, Note_on_c, 0, 72, 65
2, 124475, Note_on_c, 0, 77, 0
2, 124622, Note_on_c, 0, 56, 56
2, 124622, Note_on_c, 0, 71, 59
2, 124742, Note_on_c, 0, 72, 0
2, 124744, Note_on_c, 0, 57, 0
2, 124887, Note_on_c, 0, 75, 76
2, 124941, Note_on_c, 0, 71, 0
2, 125126, Note_on_c, 0, 55, 58
2, 125130, Note_on_c, 0, 76, 63
2, 125210, Note_on_c, 0, 56, 0
2, 125277, Note_on_c, 0, 75, 0
2, 125410, Note_on_c, 0, 70, 61
2, 125511, Note_on_c, 0, 76, 0
2, 125650, Note_on_c, 0, 54, 50
2, 125665, Note_on_c, 0, 69, 51
2, 125736, Note_on_c, 0, 70, 0
2, 125746, Note_on_c, 0, 55, 0
2, 125912, Note_on_c, 0, 73, 62
2, 125949, Note_on_c, 0, 69, 0
2, 126167, Note_on_c, 0, 53, 50
2, 126176, Note_on_c, 0, 74, 55
2, 126236, Note_on_c, 0, 73, 0
2, 126258, Note_on_c, 0, 54, 0
2, 126479, Note_on_c, 0, 68, 50
2, 126554, Note_on_c, 0, 74, 0
2, 126707, Note_on_c, 0, 52, 42
2, 126737, Note_on_c, 0, 53, 0
2, 126975, Note_on_c, 0, 68, 0
2, 126976, Note_on_c, 0, 69, 53
2, 127208, Note_on_c, 0, 50, 45
2, 127246, Note_on_c, 0, 52, 0
2, 127294, Note_on_c, 0, 69, 0
2, 127485, Note_on_c, 0, 71, 50
2, 127740, Note_on_c, 0, 71, 0
2, 127780, Note_on_c, 0, 64, 47
2, 127895, Note_on_c, 0, 64, 0
2, 128026, Note_on_c, 0, 50, 0
2, 128058, Note_on_c, 0, 48, 44
2, 128079, Note_on_c, 0, 76, 53
2, 128127, Note_on_c, 0, 48, 0
2, 128170, Note_on_c, 0, 47, 45
2, 128256, Note_on_c, 0, 47, 0
2, 128276, Note_on_c, 0, 48, 55
2, 128335, Note_on_c, 0, 48, 0
2, 128427, Note_on_c, 0, 74, 59
2, 128440, Note_on_c, 0, 76, 0
2, 128534, Note_on_c, 0, 45, 62
2, 128539, Note_on_c, 0, 72, 70
2, 128557, Note_on_c, 0, 74, 0
2, 128589, Note_on_c, 0, 45, 0
2, 128669, Note_on_c, 0, 72, 0
2, 128673, Note_on_c, 0, 71, 64
2, 128781, Note_on_c, 0, 52, 52
2, 128808, Note_on_c, 0, 71, 0
2, 128816, Note_on_c, 0, 74, 54
2, 128946, Note_on_c, 0, 72, 59
2, 128952, Note_on_c, 0, 74, 0
2, 129050, Note_on_c, 0, 52, 0
2, 129056, Note_on_c, 0, 72, 0
2, 129064, Note_on_c, 0, 71, 63
2, 129149, Note_on_c, 0, 71, 0
2, 129202, Note_on_c, 0, 69, 55
2, 129300, Note_on_c, 0, 69, 0
2, 129318, Note_on_c, 0, 40, 43
2, 129333, Note_on_c, 0, 72, 52
2, 129467, Note_on_c, 0, 71, 52
2, 129486, Note_on_c, 0, 72, 0
2, 129518, Note_on_c, 0, 40, 0
2, 129602, Note_on_c, 0, 71, 0
2, 129614, Note_on_c, 0, 69, 54
2, 129748, Note_on_c, 0, 69, 0
2, 129776, Note_on_c, 0, 68, 48
2, 129963, Note_on_c, 0, 45, 31
2, 130008, Note_on_c, 0, 68, 0
2, 130032, Note_on_c, 0, 69, 55
2, 130115, Note_on_c, 0, 69, 0
2, 130148, Note_on_c, 0, 68, 63
2, 130202, Note_on_c, 0, 68, 0
2, 130252, Note_on_c, 0, 69, 48
2, 130385, Note_on_c, 0, 47, 49
2, 130463, Note_on_c, 0, 45, 0
2, 130521, Note_on_c, 0, 48, 55
2, 130540, Note_on_c, 0, 47, 0
2, 130628, Note_on_c, 0, 48, 0
2, 130632, Note_on_c, 0, 50, 65
2, 130715, Note_on_c, 0, 50, 0
2, 130756, Note_on_c, 0, 52, 59
2, 130857, Note_on_c, 0, 52, 0
2, 130870, Note_on_c, 0, 54, 58
2, 130946, Note_on_c, 0, 54, 0
2, 130991, Note_on_c, 0, 56, 49
2, 131159, Note_on_c, 0, 56, 0
2, 131200, Note_on_c, 0, 57, 38
2, 131630, Note_on_c, 0, 57, 0
2, 131989, Note_on_c, 0, 45, 36
2, 132949, Note_on_c, 0, 69, 0
2, 132951, Note_on_c, 0, 45, 0
2, 134935, Control_c, 0, 64, 9
2, 134954, Control_c, 0, 64, 29
2, 134973, Control_c, 0, 64, 39
2, 134992, Control_c, 0, 64, 43
2, 135012, Control_c, 0, 64, 46
2, 135030, Control_c, 0, 64, 50
2, 135050, Control_c, 0, 64, 53
2, 135069, Control_c, 0, 64, 56
2, 135089, Control_c, 0, 64, 58
2, 135107, Control_c, 0, 64, 60
2, 135127, Control_c, 0, 64, 61
2, 135146, Control_c, 0, 64, 63
2, 135166, Control_c, 0, 64, 66
2, 135184, Control_c, 0, 64, 70
2, 135204, Control_c, 0, 64, 76
2, 135223, Control_c, 0, 64, 84
2, 135242, Control_c, 0, 64, 95
2, 135254, Note_on_c, 0, 64, 88
2, 135261, Control_c, 0, 64, 127
2, 135535, Note_on_c, 0, 64, 0
2, 135587, Control_c, 0, 64, 77
2, 135607, Control_c, 0, 64, 0
2, 135895, Control_c, 0, 64, 26
2, 135914, Control_c, 0, 64, 47
2, 135933, Control_c, 0, 64, 61
2, 135952, Control_c, 0, 64, 64
2, 135972, Control_c, 0, 64, 68
2, 135975, Note_on_c, 0, 60, 90
2, 135990, Control_c, 0, 64, 75
2, 136010, Control_c, 0, 64, 93
2, 136029, Control_c, 0, 64, 127
2, 136257, Note_on_c, 0, 60, 0
2, 136298, Control_c, 0, 64, 69
2, 136317, Control_c, 0, 64, 0
2, 136606, Control_c, 0, 64, 15
2, 136624, Control_c, 0, 64, 46
2, 136644, Control_c, 0, 64, 56
2, 136663, Control_c, 0, 64, 62
2, 136682, Control_c, 0, 64, 65
2, 136701, Control_c, 0, 64, 68
2, 136705, Note_on_c, 0, 65, 91
2, 136721, Control_c, 0, 64, 74
2, 136740, Control_c, 0, 64, 89
2, 136758, Control_c, 0, 64, 127
2, 136974, Note_on_c, 0, 65, 0
2, 137027, Control_c, 0, 64, 86
2, 137047, Control_c, 0, 64, 0
2, 137430, Control_c, 0, 64, 24
2, 137450, Control_c, 0, 64, 38
2, 137469, Control_c, 0, 64, 45
2, 137487, Note_on_c, 0, 56, 93
2, 137489, Control_c, 0, 64, 52
2, 137507, Control_c, 0, 64, 57
2, 137527, Control_c, 0, 64, 61
2, 137546, Control_c, 0, 64, 63
2, 137566, Control_c, 0, 64, 65
2, 137584, Control_c, 0, 64, 67
2, 137604, Control_c, 0, 64, 71
2, 137623, Control_c, 0, 64, 80
2, 137642, Control_c, 0, 64, 95
2, 137661, Control_c, 0, 64, 127
2, 138447, Control_c, 0, 64, 96
2, 138451, Note_on_c, 0, 56, 0
2, 138465, Control_c, 0, 64, 35
2, 138485, Control_c, 0, 64, 0
2, 139528, Note_on_c, 0, 62, 85
2, 139563, Note_on_c, 0, 62, 0
2, 139871, Note_on_c, 0, 59, 86
2, 139904, Note_on_c, 0, 59, 0
2, 140234, Note_on_c, 0, 64, 85
2, 140270, Note_on_c, 0, 64, 0
2, 140585, Note_on_c, 0, 60, 82
2, 140619, Note_on_c, 0, 60, 0
2, 140934, Note_on_c, 0, 57, 79
2, 140971, Note_on_c, 0, 57, 0
2, 141266, Note_on_c, 0, 69, 84
2, 141270, Note_on_c, 0, 54, 63
2, 141319, Note_on_c, 0, 54, 0
2, 141612, Note_on_c, 0, 69, 0
2, 141633, Note_on_c, 0, 63, 89
2, 141691, Note_on_c, 0, 63, 0
2, 141967, Note_on_c, 0, 52, 62
2, 141980, Note_on_c, 0, 67, 88
2, 142027, Note_on_c, 0, 52, 0
2, 142341, Note_on_c, 0, 67, 0
2, 142351, Note_on_c, 0, 64, 81
2, 142423, Note_on_c, 0, 64, 0
2, 142433, Note_on_c, 0, 62, 68
2, 142502, Note_on_c, 0, 62, 0
2, 142504, Note_on_c, 0, 60, 71
2, 142572, Note_on_c, 0, 59, 72
2, 142588, Note_on_c, 0, 60, 0
2, 142658, Note_on_c, 0, 57, 65
2, 142658, Note_on_c, 0, 72, 96
2, 142668, Note_on_c, 0, 59, 0
2, 142951, Note_on_c, 0, 72, 0
2, 143015, Note_on_c, 0, 57, 0
2, 143019, Note_on_c, 0, 60, 79
2, 143086, Note_on_c, 0, 60, 0
2, 143108, Note_on_c, 0, 59, 75
2, 143155, Note_on_c, 0, 59, 0
2, 143166, Note_on_c, 0, 57, 66
2, 143225, Note_on_c, 0, 57, 0
2, 143251, Note_on_c, 0, 55, 64
2, 143351, Note_on_c, 0, 55, 0
2, 143352, Note_on_c, 0, 63, 90
2, 143360, Note_on_c, 0, 54, 71
2, 143430, Note_on_c, 0, 55, 73
2, 143448, Note_on_c, 0, 54, 0
2, 143509, Note_on_c, 0, 57, 86
2, 143512, Note_on_c, 0, 55, 0
2, 143904, Note_on_c, 0, 57, 0
2, 143918, Note_on_c, 0, 55, 64
2, 143985, Note_on_c, 0, 54, 67
2, 143986, Note_on_c, 0, 55, 0
2, 144032, Note_on_c, 0, 54, 0
2, 144048, Note_on_c, 0, 52, 67
2, 144134, Note_on_c, 0, 52, 0
2, 144141, Note_on_c, 0, 51, 70
2, 144199, Note_on_c, 0, 63, 0
2, 144207, Note_on_c, 0, 51, 0
2, 144210, Note_on_c, 0, 52, 71
2, 144294, Note_on_c, 0, 52, 0
2, 144305, Note_on_c, 0, 54, 74
2, 144629, Note_on_c, 0, 54, 0
2, 144637, Note_on_c, 0, 52, 54
2, 144697, Note_on_c, 0, 51, 67
2, 144703, Note_on_c, 0, 52, 0
2, 144760, Note_on_c, 0, 49, 66
2, 144771, Note_on_c, 0, 51, 0
2, 144834, Note_on_c, 0, 47, 72
2, 144846, Note_on_c, 0, 49, 0
2, 145171, Note_on_c, 0, 69, 86
2, 145209, Note_on_c, 0, 69, 0
2, 145362, Note_on_c, 0, 47, 0
2, 145375, Note_on_c, 0, 49, 55
2, 145445, Note_on_c, 0, 49, 0
2, 145451, Note_on_c, 0, 51, 56
2, 145501, Note_on_c, 0, 51, 0
2, 145522, Note_on_c, 0, 66, 82
2, 145529, Note_on_c, 0, 52, 63
2, 145550, Note_on_c, 0, 66, 0
2, 145569, Note_on_c, 0, 52, 0
2, 145612, Note_on_c, 0, 51, 55
2, 145651, Note_on_c, 0, 51, 0
2, 145668, Note_on_c, 0, 52, 61
2, 145714, Note_on_c, 0, 52, 0
2, 145741, Note_on_c, 0, 51, 62
2, 145783, Note_on_c, 0, 51, 0
2, 145809, Note_on_c, 0, 52, 60
2, 145847, Note_on_c, 0, 52, 0
2, 145862, Note_on_c, 0, 71, 87
2, 145871, Note_on_c, 0, 51, 56
2, 145890, Note_on_c, 0, 71, 0
2, 145899, Note_on_c, 0, 51, 0
2, 145936, Note_on_c, 0, 52, 52
2, 145969, Note_on_c, 0, 52, 0
2, 145982, Note_on_c, 0, 51, 67
2, 146030, Note_on_c, 0, 51, 0
2, 146054, Note_on_c, 0, 49, 69
2, 146112, Note_on_c, 0, 49, 0
2, 146126, Note_on_c, 0, 51, 67
2, 146181, Note_on_c, 0, 51, 0
2, 146214, Note_on_c, 0, 67, 77
2, 146220, Note_on_c, 0, 52, 56
2, 146242, Note_on_c, 0, 67, 0
2, 146341, Note_on_c, 0, 52, 0
2, 146567, Note_on_c, 0, 64, 68
2, 146598, Note_on_c, 0, 64, 0
2, 146665, Note_on_c, 0, 52, 66
2, 146730, Note_on_c, 0, 53, 74
2, 146744, Note_on_c, 0, 52, 0
2, 146773, Note_on_c, 0, 53, 0
2, 146803, Note_on_c, 0, 55, 61
2, 146857, Note_on_c, 0, 55, 0
2, 146884, Note_on_c, 0, 57, 73
2, 146907, Note_on_c, 0, 61, 81
2, 146935, Note_on_c, 0, 61, 0
2, 146994, Note_on_c, 0, 57, 0
2, 147246, Note_on_c, 0, 69, 90
2, 147271, Note_on_c, 0, 69, 0
2, 147365, Note_on_c, 0, 55, 61
2, 147420, Note_on_c, 0, 55, 0
2, 147447, Note_on_c, 0, 53, 52
2, 147484, Note_on_c, 0, 53, 0
2, 147511, Note_on_c, 0, 52, 54
2, 147559, Note_on_c, 0, 52, 0
2, 147600, Note_on_c, 0, 50, 52
2, 147604, Note_on_c, 0, 65, 71
2, 147638, Note_on_c, 0, 65, 0
2, 147669, Note_on_c, 0, 50, 0
2, 147980, Note_on_c, 0, 62, 62
2, 148020, Note_on_c, 0, 62, 0
2, 148073, Note_on_c, 0, 50, 51
2, 148120, Note_on_c, 0, 50, 0
2, 148134, Note_on_c, 0, 52, 60
2, 148179, Note_on_c, 0, 52, 0
2, 148212, Note_on_c, 0, 53, 51
2, 148265, Note_on_c, 0, 53, 0
2, 148303, Note_on_c, 0, 55, 48
2, 148309, Note_on_c, 0, 59, 69
2, 148347, Note_on_c, 0, 59, 0
2, 148404, Note_on_c, 0, 55, 0
2, 148670, Note_on_c, 0, 67, 66
2, 148705, Note_on_c, 0, 67, 0
2, 148775, Note_on_c, 0, 53, 60
2, 148828, Note_on_c, 0, 53, 0
2, 148856, Note_on_c, 0, 52, 48
2, 148891, Note_on_c, 0, 52, 0
2, 148913, Note_on_c, 0, 50, 58
2, 149010, Note_on_c, 0, 50, 0
2, 149034, Note_on_c, 0, 48, 50
2, 149039, Note_on_c, 0, 64, 61
2, 149077, Note_on_c, 0, 64, 0
2, 149416, Note_on_c, 0, 69, 64
2, 149593, Note_on_c, 0, 50, 48
2, 149732, Note_on_c, 0, 48, 0
2, 149758, Note_on_c, 0, 52, 54
2, 149770, Note_on_c, 0, 50, 0
2, 149793, Note_on_c, 0, 76, 84
2, 149868, Note_on_c, 0, 69, 0
2, 149926, Note_on_c, 0, 52, 0
2, 149942, Note_on_c, 0, 53, 56
2, 150060, Note_on_c, 0, 53, 0
2, 150083, Note_on_c, 0, 52, 52
2, 150140, Note_on_c, 0, 52, 0
2, 150156, Note_on_c, 0, 68, 62
2, 150166, Note_on_c, 0, 50, 54
2, 150205, Note_on_c, 0, 68, 0
2, 150331, Note_on_c, 0, 52, 52
2, 150355, Note_on_c, 0, 50, 0
2, 150518, Note_on_c, 0, 52, 0
2, 150532, Note_on_c, 0, 53, 50
2, 150553, Note_on_c, 0, 72, 90
2, 150555, Note_on_c, 0, 57, 48
2, 150563, Note_on_c, 0, 76, 0
2, 150781, Note_on_c, 0, 53, 0
2, 150820, Note_on_c, 0, 57, 0
2, 150925, Note_on_c, 0, 69, 69
2, 151004, Note_on_c, 0, 69, 0
2, 151007, Note_on_c, 0, 67, 59
2, 151039, Note_on_c, 0, 72, 0
2, 151044, Note_on_c, 0, 67, 0
2, 151095, Note_on_c, 0, 65, 59
2, 151153, Note_on_c, 0, 65, 0
2, 151183, Note_on_c, 0, 64, 59
2, 151241, Note_on_c, 0, 64, 0
2, 151270, Note_on_c, 0, 62, 55
2, 151291, Note_on_c, 0, 77, 89
2, 151636, Note_on_c, 0, 77, 0
2, 151649, Note_on_c, 0, 62, 0
2, 151650, Note_on_c, 0, 65, 66
2, 151742, Note_on_c, 0, 65, 0
2, 151745, Note_on_c, 0, 64, 72
2, 151816, Note_on_c, 0, 62, 62
2, 151818, Note_on_c, 0, 64, 0
2, 151871, Note_on_c, 0, 62, 0
2, 151891, Note_on_c, 0, 60, 61
2, 151994, Note_on_c, 0, 60, 0
2, 151995, Note_on_c, 0, 68, 94
2, 152010, Note_on_c, 0, 59, 85
2, 152115, Note_on_c, 0, 59, 0
2, 152120, Note_on_c, 0, 60, 69
2, 152214, Note_on_c, 0, 62, 64
2, 152221, Note_on_c, 0, 60, 0
2, 152326, Note_on_c, 0, 68, 0
2, 152340, Note_on_c, 0, 53, 98
2, 152367, Note_on_c, 0, 53, 0
2, 152448, Note_on_c, 0, 62, 0
2, 152450, Note_on_c, 0, 60, 67
2, 152498, Note_on_c, 0, 60, 0
2, 152539, Note_on_c, 0, 59, 62
2, 152574, Note_on_c, 0, 59, 0
2, 152627, Note_on_c, 0, 57, 60
2, 152690, Note_on_c, 0, 47, 91
2, 152702, Note_on_c, 0, 57, 0
2, 152704, Note_on_c, 0, 56, 72
2, 152723, Note_on_c, 0, 47, 0
2, 152748, Note_on_c, 0, 56, 0
2, 152792, Note_on_c, 0, 57, 70
2, 152906, Note_on_c, 0, 59, 77
2, 152908, Note_on_c, 0, 57, 0
2, 153024, Note_on_c, 0, 50, 94
2, 153055, Note_on_c, 0, 50, 0
2, 153142, Note_on_c, 0, 57, 66
2, 153159, Note_on_c, 0, 59, 0
2, 153212, Note_on_c, 0, 56, 76
2, 153227, Note_on_c, 0, 57, 0
2, 153281, Note_on_c, 0, 54, 78
2, 153315, Note_on_c, 0, 56, 0
2, 153332, Note_on_c, 0, 54, 0
2, 153378, Note_on_c, 0, 44, 86
2, 153383, Note_on_c, 0, 52, 80
2, 153459, Note_on_c, 0, 44, 0
2, 153738, Note_on_c, 0, 47, 69
2, 153739, Note_on_c, 0, 74, 90
2, 153789, Note_on_c, 0, 74, 0
2, 153796, Note_on_c, 0, 47, 0
2, 153894, Note_on_c, 0, 52, 0
2, 153908, Note_on_c, 0, 54, 65
2, 153969, Note_on_c, 0, 54, 0
2, 154001, Note_on_c, 0, 56, 63
2, 154060, Note_on_c, 0, 56, 0
2, 154089, Note_on_c, 0, 52, 66
2, 154098, Note_on_c, 0, 57, 66
2, 154100, Note_on_c, 0, 71, 90
2, 154141, Note_on_c, 0, 71, 0
2, 154153, Note_on_c, 0, 57, 0
2, 154204, Note_on_c, 0, 56, 62
2, 154242, Note_on_c, 0, 56, 0
2, 154273, Note_on_c, 0, 57, 50
2, 154306, Note_on_c, 0, 57, 0
2, 154339, Note_on_c, 0, 56, 57
2, 154371, Note_on_c, 0, 56, 0
2, 154411, Note_on_c, 0, 57, 43
2, 154448, Note_on_c, 0, 76, 93
2, 154474, Note_on_c, 0, 76, 0
2, 154486, Note_on_c, 0, 57, 0
2, 154486, Note_on_c, 0, 57, 36
2, 154531, Note_on_c, 0, 57, 0
2, 154534, Note_on_c, 0, 56, 48
2, 154580, Note_on_c, 0, 52, 0
2, 154586, Note_on_c, 0, 54, 70
2, 154593, Note_on_c, 0, 56, 0
2, 154670, Note_on_c, 0, 56, 84
2, 154674, Note_on_c, 0, 54, 0
2, 154708, Note_on_c, 0, 56, 0
2, 154781, Note_on_c, 0, 72, 89
2, 154792, Note_on_c, 0, 57, 80
2, 154797, Note_on_c, 0, 45, 76
2, 154816, Note_on_c, 0, 72, 0
2, 155048, Note_on_c, 0, 45, 0
2, 155064, Note_on_c, 0, 57, 0
2, 155149, Note_on_c, 0, 69, 84
2, 155177, Note_on_c, 0, 69, 0
2, 155315, Note_on_c, 0, 57, 60
2, 155364, Note_on_c, 0, 59, 77
2, 155368, Note_on_c, 0, 57, 0
2, 155407, Note_on_c, 0, 59, 0
2, 155417, Note_on_c, 0, 60, 71
2, 155476, Note_on_c, 0, 60, 0
2, 155486, Note_on_c, 0, 66, 81
2, 155491, Note_on_c, 0, 62, 80
2, 155512, Note_on_c, 0, 66, 0
2, 155649, Note_on_c, 0, 62, 0
2, 155824, Note_on_c, 0, 54, 66
2, 155826, Note_on_c, 0, 74, 85
2, 155853, Note_on_c, 0, 74, 0
2, 155873, Note_on_c, 0, 54, 0
2, 155933, Note_on_c, 0, 60, 55
2, 155979, Note_on_c, 0, 60, 0
2, 156030, Note_on_c, 0, 59, 47
2, 156067, Note_on_c, 0, 59, 0
2, 156105, Note_on_c, 0, 57, 50
2, 156151, Note_on_c, 0, 57, 0
2, 156178, Note_on_c, 0, 71, 72
2, 156200, Note_on_c, 0, 55, 47
2, 156217, Note_on_c, 0, 71, 0
2, 156270, Note_on_c, 0, 55, 0
2, 156552, Note_on_c, 0, 67, 63
2, 156593, Note_on_c, 0, 67, 0
2, 156676, Note_on_c, 0, 55, 41
2, 156724, Note_on_c, 0, 55, 0
2, 156741, Note_on_c, 0, 57, 45
2, 156779, Note_on_c, 0, 57, 0
2, 156817, Note_on_c, 0, 59, 45
2, 156868, Note_on_c, 0, 59, 0
2, 156892, Note_on_c, 0, 64, 63
2, 156910, Note_on_c, 0, 60, 52
2, 156928, Note_on_c, 0, 64, 0
2, 157009, Note_on_c, 0, 60, 0
2, 157240, Note_on_c, 0, 72, 74
2, 157260, Note_on_c, 0, 52, 50
2, 157279, Note_on_c, 0, 72, 0
2, 157309, Note_on_c, 0, 58, 46
2, 157322, Note_on_c, 0, 52, 0
2, 157342, Note_on_c, 0, 58, 0
2, 157401, Note_on_c, 0, 57, 62
2, 157447, Note_on_c, 0, 57, 0
2, 157485, Note_on_c, 0, 55, 53
2, 157545, Note_on_c, 0, 55, 0
2, 157590, Note_on_c, 0, 53, 45
2, 157611, Note_on_c, 0, 69, 62
2, 157660, Note_on_c, 0, 53, 0
2, 157795, Note_on_c, 0, 69, 0
2, 157829, Note_on_c, 0, 65, 41
2, 157961, Note_on_c, 0, 65, 0
2, 157973, Note_on_c, 0, 55, 52
2, 157986, Note_on_c, 0, 71, 65
2, 158027, Note_on_c, 0, 55, 0
2, 158158, Note_on_c, 0, 71, 0
2, 158161, Note_on_c, 0, 65, 55
2, 158301, Note_on_c, 0, 65, 0
2, 158337, Note_on_c, 0, 72, 66
2, 158339, Note_on_c, 0, 57, 57
2, 158388, Note_on_c, 0, 57, 0
2, 158459, Note_on_c, 0, 64, 55
2, 158536, Note_on_c, 0, 65, 60
2, 158540, Note_on_c, 0, 64, 0
2, 158608, Note_on_c, 0, 65, 0
2, 158616, Note_on_c, 0, 67, 61
2, 158669, Note_on_c, 0, 55, 76
2, 158678, Note_on_c, 0, 67, 0
2, 158683, Note_on_c, 0, 69, 63
2, 158703, Note_on_c, 0, 55, 0
2, 158792, Note_on_c, 0, 67, 55
2, 158817, Note_on_c, 0, 69, 0
2, 158821, Note_on_c, 0, 72, 0
2, 158853, Note_on_c, 0, 65, 61
2, 158863, Note_on_c, 0, 67, 0
2, 158901, Note_on_c, 0, 65, 0
2, 158929, Note_on_c, 0, 64, 58
2, 158975, Note_on_c, 0, 64, 0
2, 159011, Note_on_c, 0, 62, 68
2, 159021, Note_on_c, 0, 53, 58
2, 159095, Note_on_c, 0, 53, 0
2, 159134, Note_on_c, 0, 72, 64
2, 159197, Note_on_c, 0, 72, 0
2, 159197, Note_on_c, 0, 74, 58
2, 159253, Note_on_c, 0, 76, 63
2, 159258, Note_on_c, 0, 74, 0
2, 159336, Note_on_c, 0, 76, 0
2, 159339, Note_on_c, 0, 77, 70
2, 159351, Note_on_c, 0, 50, 65
2, 159405, Note_on_c, 0, 50, 0
2, 159446, Note_on_c, 0, 76, 73
2, 159451, Note_on_c, 0, 77, 0
2, 159510, Note_on_c, 0, 76, 0
2, 159518, Note_on_c, 0, 74, 67
2, 159553, Note_on_c, 0, 74, 0
2, 159577, Note_on_c, 0, 72, 63
2, 159613, Note_on_c, 0, 72, 0
2, 159685, Note_on_c, 0, 55, 72
2, 159685, Note_on_c, 0, 62, 0
2, 159693, Note_on_c, 0, 71, 73
2, 159736, Note_on_c, 0, 55, 0
2, 159831, Note_on_c, 0, 62, 26
2, 159878, Note_on_c, 0, 62, 0
2, 159878, Note_on_c, 0, 64, 58
2, 159939, Note_on_c, 0, 64, 0
2, 159946, Note_on_c, 0, 65, 59
2, 160025, Note_on_c, 0, 67, 62
2, 160029, Note_on_c, 0, 65, 0
2, 160032, Note_on_c, 0, 53, 90
2, 160062, Note_on_c, 0, 53, 0
2, 160123, Note_on_c, 0, 65, 59
2, 160142, Note_on_c, 0, 67, 0
2, 160142, Note_on_c, 0, 71, 0
2, 160201, Note_on_c, 0, 64, 64
2, 160203, Note_on_c, 0, 65, 0
2, 160243, Note_on_c, 0, 64, 0
2, 160274, Note_on_c, 0, 62, 65
2, 160329, Note_on_c, 0, 62, 0
2, 160385, Note_on_c, 0, 52, 92
2, 160391, Note_on_c, 0, 60, 85
2, 160525, Note_on_c, 0, 60, 0
2, 160754, Note_on_c, 0, 55, 62
2, 160774, Note_on_c, 0, 84, 76
2, 160829, Note_on_c, 0, 55, 0
2, 160861, Note_on_c, 0, 52, 0
2, 160870, Note_on_c, 0, 83, 77
2, 160899, Note_on_c, 0, 84, 0
2, 160937, Note_on_c, 0, 81, 82
2, 160983, Note_on_c, 0, 83, 0
2, 161019, Note_on_c, 0, 79, 76
2, 161042, Note_on_c, 0, 81, 0
2, 161095, Note_on_c, 0, 79, 0
2, 161099, Note_on_c, 0, 77, 72
2, 161115, Note_on_c, 0, 57, 83
2, 161126, Note_on_c, 0, 60, 87
2, 161142, Note_on_c, 0, 77, 0
2, 161220, Note_on_c, 0, 60, 0
2, 161489, Note_on_c, 0, 81, 86
2, 161493, Note_on_c, 0, 65, 70
2, 161529, Note_on_c, 0, 65, 0
2, 161547, Note_on_c, 0, 57, 0
2, 161594, Note_on_c, 0, 79, 77
2, 161636, Note_on_c, 0, 81, 0
2, 161673, Note_on_c, 0, 77, 76
2, 161699, Note_on_c, 0, 79, 0
2, 161754, Note_on_c, 0, 76, 77
2, 161773, Note_on_c, 0, 77, 0
2, 161829, Note_on_c, 0, 76, 0
2, 161847, Note_on_c, 0, 47, 94
2, 161848, Note_on_c, 0, 74, 68
2, 161934, Note_on_c, 0, 74, 0
2, 161942, Note_on_c, 0, 76, 82
2, 161991, Note_on_c, 0, 76, 0
2, 162001, Note_on_c, 0, 47, 0
2, 162033, Note_on_c, 0, 77, 77
2, 162212, Note_on_c, 0, 69, 68
2, 162247, Note_on_c, 0, 69, 0
2, 162315, Note_on_c, 0, 77, 0
2, 162316, Note_on_c, 0, 76, 63
2, 162391, Note_on_c, 0, 76, 0
2, 162400, Note_on_c, 0, 74, 63
2, 162470, Note_on_c, 0, 72, 59
2, 162475, Note_on_c, 0, 74, 0
2, 162516, Note_on_c, 0, 72, 0
2, 162546, Note_on_c, 0, 71, 62
2, 162566, Note_on_c, 0, 62, 53
2, 162594, Note_on_c, 0, 62, 0
2, 162598, Note_on_c, 0, 71, 0
2, 162634, Note_on_c, 0, 72, 66
2, 162689, Note_on_c, 0, 72, 0
2, 162727, Note_on_c, 0, 74, 55
2, 162892, Note_on_c, 0, 65, 57
2, 162927, Note_on_c, 0, 65, 0
2, 163000, Note_on_c, 0, 74, 0
2, 163002, Note_on_c, 0, 72, 60
2, 163080, Note_on_c, 0, 71, 61
2, 163080, Note_on_c, 0, 72, 0
2, 163142, Note_on_c, 0, 71, 0
2, 163143, Note_on_c, 0, 69, 65
2, 163206, Note_on_c, 0, 69, 0
2, 163235, Note_on_c, 0, 59, 61
2, 163248, Note_on_c, 0, 67, 47
2, 163272, Note_on_c, 0, 59, 0
2, 163589, Note_on_c, 0, 53, 80
2, 163590, Note_on_c, 0, 62, 70
2, 163625, Note_on_c, 0, 62, 0
2, 163627, Note_on_c, 0, 53, 0
2, 163651, Note_on_c, 0, 67, 0
2, 163818, Note_on_c, 0, 69, 62
2, 163883, Note_on_c, 0, 69, 0
2, 163916, Note_on_c, 0, 71, 56
2, 163958, Note_on_c, 0, 65, 22
2, 163962, Note_on_c, 0, 71, 0
2, 163966, Note_on_c, 0, 50, 90
2, 163976, Note_on_c, 0, 72, 68
2, 164004, Note_on_c, 0, 65, 0
2, 164011, Note_on_c, 0, 50, 0
2, 164027, Note_on_c, 0, 72, 0
2, 164070, Note_on_c, 0, 71, 64
2, 164121, Note_on_c, 0, 71, 0
2, 164158, Note_on_c, 0, 72, 64
2, 164196, Note_on_c, 0, 72, 0
2, 164230, Note_on_c, 0, 71, 63
2, 164269, Note_on_c, 0, 71, 0
2, 164276, Note_on_c, 0, 72, 73
2, 164298, Note_on_c, 0, 55, 82
2, 164300, Note_on_c, 0, 62, 72
2, 164334, Note_on_c, 0, 55, 0
2, 164334, Note_on_c, 0, 62, 0
2, 164366, Note_on_c, 0, 71, 63
2, 164366, Note_on_c, 0, 72, 0
2, 164430, Note_on_c, 0, 71, 0
2, 164455, Note_on_c, 0, 69, 71
2, 164518, Note_on_c, 0, 69, 0
2, 164554, Note_on_c, 0, 71, 64
2, 164618, Note_on_c, 0, 71, 0
2, 164644, Note_on_c, 0, 52, 65
2, 164658, Note_on_c, 0, 72, 56
2, 164661, Note_on_c, 0, 67, 51
2, 164710, Note_on_c, 0, 67, 0
2, 165004, Note_on_c, 0, 60, 68
2, 165044, Note_on_c, 0, 72, 0
2, 165054, Note_on_c, 0, 60, 0
2, 165056, Note_on_c, 0, 52, 0
2, 165194, Note_on_c, 0, 52, 49
2, 165240, Note_on_c, 0, 52, 0
2, 165250, Note_on_c, 0, 54, 65
2, 165299, Note_on_c, 0, 54, 0
2, 165331, Note_on_c, 0, 55, 71
2, 165346, Note_on_c, 0, 57, 79
2, 165386, Note_on_c, 0, 55, 0
2, 165386, Note_on_c, 0, 57, 0
2, 165427, Note_on_c, 0, 54, 58
2, 165465, Note_on_c, 0, 54, 0
2, 165504, Note_on_c, 0, 55, 54
2, 165538, Note_on_c, 0, 55, 0
2, 165554, Note_on_c, 0, 54, 71
2, 165598, Note_on_c, 0, 54, 0
2, 165630, Note_on_c, 0, 55, 65
2, 165661, Note_on_c, 0, 62, 86
2, 165671, Note_on_c, 0, 55, 0
2, 165688, Note_on_c, 0, 62, 0
2, 165715, Note_on_c, 0, 54, 40
2, 165751, Note_on_c, 0, 55, 58
2, 165755, Note_on_c, 0, 54, 0
2, 165788, Note_on_c, 0, 55, 0
2, 165795, Note_on_c, 0, 54, 74
2, 165857, Note_on_c, 0, 54, 0
2, 165873, Note_on_c, 0, 52, 64
2, 165918, Note_on_c, 0, 52, 0
2, 165935, Note_on_c, 0, 54, 62
2, 165970, Note_on_c, 0, 54, 0
2, 166009, Note_on_c, 0, 55, 85
2, 166021, Note_on_c, 0, 59, 73
2, 166058, Note_on_c, 0, 55, 0
2, 166353, Note_on_c, 0, 52, 75
2, 166357, Note_on_c, 0, 59, 0
2, 166379, Note_on_c, 0, 67, 73
2, 166393, Note_on_c, 0, 52, 0
2, 166410, Note_on_c, 0, 67, 0
2, 166610, Note_on_c, 0, 59, 58
2, 166650, Note_on_c, 0, 59, 0
2, 166664, Note_on_c, 0, 61, 68
2, 166716, Note_on_c, 0, 61, 0
2, 166724, Note_on_c, 0, 64, 79
2, 166753, Note_on_c, 0, 62, 68
2, 166754, Note_on_c, 0, 64, 0
2, 166764, Note_on_c, 0, 57, 64
2, 166795, Note_on_c, 0, 62, 0
2, 166846, Note_on_c, 0, 61, 66
2, 166882, Note_on_c, 0, 61, 0
2, 166912, Note_on_c, 0, 62, 66
2, 166954, Note_on_c, 0, 62, 0
2, 166972, Note_on_c, 0, 61, 65
2, 167019, Note_on_c, 0, 61, 0
2, 167049, Note_on_c, 0, 62, 70
2, 167057, Note_on_c, 0, 69, 91
2, 167079, Note_on_c, 0, 69, 0
2, 167081, Note_on_c, 0, 62, 0
2, 167123, Note_on_c, 0, 61, 44
2, 167160, Note_on_c, 0, 61, 0
2, 167177, Note_on_c, 0, 62, 29
2, 167196, Note_on_c, 0, 62, 0
2, 167212, Note_on_c, 0, 61, 70
2, 167231, Note_on_c, 0, 57, 0
2, 167260, Note_on_c, 0, 61, 0
2, 167280, Note_on_c, 0, 59, 66
2, 167328, Note_on_c, 0, 59, 0
2, 167347, Note_on_c, 0, 61, 74
2, 167385, Note_on_c, 0, 61, 0
2, 167399, Note_on_c, 0, 66, 75
2, 167413, Note_on_c, 0, 62, 58
2, 167731, Note_on_c, 0, 50, 88
2, 167758, Note_on_c, 0, 66, 0
2, 167762, Note_on_c, 0, 50, 0
2, 167910, Note_on_c, 0, 62, 0
2, 167942, Note_on_c, 0, 66, 58
2, 168020, Note_on_c, 0, 66, 0
2, 168033, Note_on_c, 0, 68, 51
2, 168082, Note_on_c, 0, 68, 0
2, 168093, Note_on_c, 0, 47, 85
2, 168102, Note_on_c, 0, 69, 66
2, 168128, Note_on_c, 0, 47, 0
2, 168150, Note_on_c, 0, 69, 0
2, 168191, Note_on_c, 0, 68, 69
2, 168241, Note_on_c, 0, 68, 0
2, 168276, Note_on_c, 0, 69, 61
2, 168322, Note_on_c, 0, 69, 0
2, 168355, Note_on_c, 0, 68, 67
2, 168391, Note_on_c, 0, 68, 0
2, 168409, Note_on_c, 0, 69, 68
2, 168431, Note_on_c, 0, 52, 74
2, 168462, Note_on_c, 0, 52, 0
2, 168476, Note_on_c, 0, 69, 0
2, 168481, Note_on_c, 0, 68, 64
2, 168568, Note_on_c, 0, 68, 0
2, 168596, Note_on_c, 0, 66, 56
2, 168685, Note_on_c, 0, 66, 0
2, 168698, Note_on_c, 0, 68, 67
2, 168736, Note_on_c, 0, 68, 0
2, 168781, Note_on_c, 0, 48, 68
2, 168782, Note_on_c, 0, 69, 76
2, 168820, Note_on_c, 0, 48, 0
2, 168982, Note_on_c, 0, 69, 0
2, 168982, Note_on_c, 0, 71, 70
2, 169050, Note_on_c, 0, 71, 0
2, 169053, Note_on_c, 0, 72, 73
2, 169083, Note_on_c, 0, 72, 0
2, 169106, Note_on_c, 0, 45, 82
2, 169132, Note_on_c, 0, 74, 77
2, 169143, Note_on_c, 0, 45, 0
2, 169212, Note_on_c, 0, 74, 0
2, 169214, Note_on_c, 0, 76, 75
2, 169277, Note_on_c, 0, 78, 79
2, 169283, Note_on_c, 0, 76, 0
2, 169362, Note_on_c, 0, 80, 74
2, 169371, Note_on_c, 0, 78, 0
2, 169456, Note_on_c, 0, 42, 80
2, 169463, Note_on_c, 0, 81, 87
2, 169471, Note_on_c, 0, 80, 0
2, 169531, Note_on_c, 0, 42, 0
2, 169702, Note_on_c, 0, 72, 48
2, 169775, Note_on_c, 0, 72, 0
2, 169811, Note_on_c, 0, 51, 80
2, 169850, Note_on_c, 0, 71, 41
2, 169861, Note_on_c, 0, 51, 0
2, 169893, Note_on_c, 0, 71, 0
2, 170004, Note_on_c, 0, 78, 76
2, 170032, Note_on_c, 0, 81, 0
2, 170072, Note_on_c, 0, 78, 0
2, 170172, Note_on_c, 0, 40, 67
2, 170182, Note_on_c, 0, 79, 88
2, 170299, Note_on_c, 0, 40, 0
2, 170393, Note_on_c, 0, 71, 60
2, 170426, Note_on_c, 0, 71, 0
2, 170550, Note_on_c, 0, 76, 65
2, 170598, Note_on_c, 0, 79, 0
2, 170627, Note_on_c, 0, 74, 66
2, 170636, Note_on_c, 0, 76, 0
2, 170659, Note_on_c, 0, 74, 0
2, 170698, Note_on_c, 0, 72, 59
2, 170752, Note_on_c, 0, 72, 0
2, 170770, Note_on_c, 0, 71, 62
2, 170838, Note_on_c, 0, 71, 0
2, 170870, Note_on_c, 0, 69, 58
2, 170890, Note_on_c, 0, 84, 88
2, 171237, Note_on_c, 0, 84, 0
2, 171250, Note_on_c, 0, 69, 0
2, 171259, Note_on_c, 0, 72, 69
2, 171320, Note_on_c, 0, 72, 0
2, 171345, Note_on_c, 0, 71, 68
2, 171418, Note_on_c, 0, 69, 69
2, 171419, Note_on_c, 0, 71, 0
2, 171490, Note_on_c, 0, 67, 59
2, 171493, Note_on_c, 0, 69, 0
2, 171585, Note_on_c, 0, 75, 88
2, 171591, Note_on_c, 0, 67, 0
2, 171594, Note_on_c, 0, 66, 71
2, 171691, Note_on_c, 0, 66, 0
2, 171721, Note_on_c, 0, 67, 60
2, 171791, Note_on_c, 0, 67, 0
2, 171795, Note_on_c, 0, 69, 66
2, 171910, Note_on_c, 0, 60, 95
2, 171918, Note_on_c, 0, 75, 0
2, 171934, Note_on_c, 0, 69, 0
2, 171945, Note_on_c, 0, 60, 0
2, 171962, Note_on_c, 0, 67, 54
2, 172012, Note_on_c, 0, 67, 0
2, 172071, Note_on_c, 0, 66, 67
2, 172132, Note_on_c, 0, 66, 0
2, 172156, Note_on_c, 0, 64, 66
2, 172208, Note_on_c, 0, 64, 0
2, 172247, Note_on_c, 0, 63, 61
2, 172272, Note_on_c, 0, 54, 86
2, 172306, Note_on_c, 0, 63, 0
2, 172307, Note_on_c, 0, 54, 0
2, 172333, Note_on_c, 0, 64, 61
2, 172401, Note_on_c, 0, 64, 0
2, 172432, Note_on_c, 0, 66, 55
2, 172613, Note_on_c, 0, 57, 87
2, 172645, Note_on_c, 0, 57, 0
2, 172694, Note_on_c, 0, 66, 0
2, 172717, Note_on_c, 0, 64, 62
2, 172794, Note_on_c, 0, 63, 58
2, 172817, Note_on_c, 0, 64, 0
2, 172845, Note_on_c, 0, 61, 68
2, 172888, Note_on_c, 0, 63, 0
2, 172930, Note_on_c, 0, 61, 0
2, 172964, Note_on_c, 0, 59, 80
2, 172968, Note_on_c, 0, 51, 55
2, 172984, Note_on_c, 0, 50, 69
2, 173019, Note_on_c, 0, 50, 0
2, 173021, Note_on_c, 0, 51, 0
2, 173310, Note_on_c, 0, 54, 67
2, 173318, Note_on_c, 0, 81, 90
2, 173357, Note_on_c, 0, 54, 0
2, 173358, Note_on_c, 0, 81, 0
2, 173446, Note_on_c, 0, 59, 0
2, 173473, Note_on_c, 0, 61, 60
2, 173533, Note_on_c, 0, 61, 0
2, 173568, Note_on_c, 0, 63, 66
2, 173636, Note_on_c, 0, 63, 0
2, 173669, Note_on_c, 0, 64, 73
2, 173675, Note_on_c, 0, 78, 81
2, 173679, Note_on_c, 0, 59, 68
2, 173717, Note_on_c, 0, 78, 0
2, 173722, Note_on_c, 0, 64, 0
2, 173768, Note_on_c, 0, 63, 66
2, 173806, Note_on_c, 0, 63, 0
2, 173834, Note_on_c, 0, 64, 68
2, 173874, Note_on_c, 0, 64, 0
2, 173890, Note_on_c, 0, 63, 72
2, 173942, Note_on_c, 0, 63, 0
2, 173987, Note_on_c, 0, 64, 56
2, 174013, Note_on_c, 0, 64, 0
2, 174020, Note_on_c, 0, 83, 91
2, 174045, Note_on_c, 0, 63, 46
2, 174046, Note_on_c, 0, 83, 0
2, 174079, Note_on_c, 0, 63, 0
2, 174126, Note_on_c, 0, 61, 58
2, 174183, Note_on_c, 0, 59, 0
2, 174240, Note_on_c, 0, 63, 84
2, 174244, Note_on_c, 0, 61, 0
2, 174304, Note_on_c, 0, 63, 0
2, 174367, Note_on_c, 0, 79, 80
2, 174376, Note_on_c, 0, 64, 80
2, 174377, Note_on_c, 0, 52, 79
2, 174396, Note_on_c, 0, 79, 0
2, 174565, Note_on_c, 0, 64, 0
2, 174600, Note_on_c, 0, 52, 0
2, 174749, Note_on_c, 0, 76, 80
2, 174782, Note_on_c, 0, 76, 0
2, 174887, Note_on_c, 0, 40, 61
2, 174950, Note_on_c, 0, 41, 76
2, 174985, Note_on_c, 0, 40, 0
2, 175002, Note_on_c, 0, 43, 80
2, 175009, Note_on_c, 0, 41, 0
2, 175069, Note_on_c, 0, 73, 74
2, 175072, Note_on_c, 0, 45, 88
2, 175099, Note_on_c, 0, 73, 0
2, 175112, Note_on_c, 0, 43, 0
2, 175344, Note_on_c, 0, 45, 0
2, 175421, Note_on_c, 0, 81, 92
2, 175463, Note_on_c, 0, 81, 0
2, 175561, Note_on_c, 0, 43, 70
2, 175624, Note_on_c, 0, 43, 0
2, 175636, Note_on_c, 0, 41, 72
2, 175699, Note_on_c, 0, 41, 0
2, 175700, Note_on_c, 0, 40, 70
2, 175768, Note_on_c, 0, 38, 89
2, 175781, Note_on_c, 0, 40, 0
2, 175784, Note_on_c, 0, 77, 74
2, 175800, Note_on_c, 0, 38, 0
2, 176062, Note_on_c, 0, 77, 0
2, 176133, Note_on_c, 0, 62, 65
2, 176167, Note_on_c, 0, 62, 0
2, 176268, Note_on_c, 0, 74, 43
2, 176308, Note_on_c, 0, 74, 0
2, 176343, Note_on_c, 0, 76, 43
2, 176373, Note_on_c, 0, 76, 0
2, 176387, Note_on_c, 0, 77, 58
2, 176477, Note_on_c, 0, 77, 0
2, 176478, Note_on_c, 0, 59, 56
2, 176495, Note_on_c, 0, 79, 52
2, 176515, Note_on_c, 0, 59, 0
2, 176826, Note_on_c, 0, 67, 44
2, 176833, Note_on_c, 0, 79, 0
2, 176863, Note_on_c, 0, 67, 0
2, 176928, Note_on_c, 0, 77, 60
2, 176987, Note_on_c, 0, 77, 0
2, 176998, Note_on_c, 0, 76, 61
2, 177052, Note_on_c, 0, 76, 0
2, 177069, Note_on_c, 0, 74, 53
2, 177117, Note_on_c, 0, 74, 0
2, 177169, Note_on_c, 0, 72, 48
2, 177175, Note_on_c, 0, 64, 44
2, 177209, Note_on_c, 0, 64, 0
2, 177483, Note_on_c, 0, 72, 0
2, 177509, Note_on_c, 0, 57, 76
2, 177551, Note_on_c, 0, 57, 0
2, 177637, Note_on_c, 0, 76, 49
2, 177671, Note_on_c, 0, 76, 0
2, 177752, Note_on_c, 0, 77, 55
2, 177825, Note_on_c, 0, 77, 0
2, 177858, Note_on_c, 0, 79, 54
2, 177862, Note_on_c, 0, 53, 74
2, 177913, Note_on_c, 0, 79, 0
2, 177928, Note_on_c, 0, 53, 0
2, 177935, Note_on_c, 0, 81, 63
2, 178000, Note_on_c, 0, 81, 0
2, 178048, Note_on_c, 0, 82, 60
2, 178127, Note_on_c, 0, 82, 0
2, 178128, Note_on_c, 0, 81, 63
2, 178189, Note_on_c, 0, 81, 0
2, 178193, Note_on_c, 0, 79, 64
2, 178214, Note_on_c, 0, 62, 72
2, 178229, Note_on_c, 0, 79, 0
2, 178249, Note_on_c, 0, 62, 0
2, 178264, Note_on_c, 0, 77, 65
2, 178298, Note_on_c, 0, 77, 0
2, 178342, Note_on_c, 0, 76, 62
2, 178409, Note_on_c, 0, 74, 72
2, 178416, Note_on_c, 0, 76, 0
2, 178446, Note_on_c, 0, 74, 0
2, 178474, Note_on_c, 0, 72, 66
2, 178521, Note_on_c, 0, 72, 0
2, 178540, Note_on_c, 0, 56, 70
2, 178563, Note_on_c, 0, 71, 62
2, 178574, Note_on_c, 0, 56, 0
2, 178597, Note_on_c, 0, 71, 0
2, 178632, Note_on_c, 0, 72, 76
2, 178697, Note_on_c, 0, 72, 0
2, 178724, Note_on_c, 0, 71, 70
2, 178773, Note_on_c, 0, 71, 0
2, 178804, Note_on_c, 0, 69, 72
2, 178854, Note_on_c, 0, 52, 85
2, 178861, Note_on_c, 0, 69, 0
2, 178887, Note_on_c, 0, 68, 76
2, 178891, Note_on_c, 0, 52, 0
2, 178967, Note_on_c, 0, 66, 76
2, 178968, Note_on_c, 0, 68, 0
2, 179053, Note_on_c, 0, 64, 64
2, 179054, Note_on_c, 0, 66, 0
2, 179090, Note_on_c, 0, 64, 0
2, 179113, Note_on_c, 0, 62, 68
2, 179155, Note_on_c, 0, 62, 0
2, 179194, Note_on_c, 0, 60, 76
2, 179198, Note_on_c, 0, 57, 75
2, 179330, Note_on_c, 0, 64, 61
2, 179405, Note_on_c, 0, 64, 0
2, 179421, Note_on_c, 0, 65, 63
2, 179506, Note_on_c, 0, 67, 67
2, 179512, Note_on_c, 0, 65, 0
2, 179562, Note_on_c, 0, 69, 81
2, 179571, Note_on_c, 0, 72, 79
2, 179573, Note_on_c, 0, 67, 0
2, 179601, Note_on_c, 0, 60, 0
2, 179656, Note_on_c, 0, 67, 71
2, 179682, Note_on_c, 0, 69, 0
2, 179690, Note_on_c, 0, 72, 0
2, 179722, Note_on_c, 0, 65, 65
2, 179725, Note_on_c, 0, 67, 0
2, 179763, Note_on_c, 0, 65, 0
2, 179778, Note_on_c, 0, 57, 0
2, 179793, Note_on_c, 0, 64, 71
2, 179880, Note_on_c, 0, 64, 0
2, 179903, Note_on_c, 0, 62, 73
2, 179906, Note_on_c, 0, 71, 84
2, 179954, Note_on_c, 0, 62, 0
2, 180027, Note_on_c, 0, 57, 63
2, 180093, Note_on_c, 0, 57, 0
2, 180103, Note_on_c, 0, 59, 66
2, 180156, Note_on_c, 0, 59, 0
2, 180173, Note_on_c, 0, 60, 61
2, 180227, Note_on_c, 0, 60, 0
2, 180257, Note_on_c, 0, 62, 68
2, 180267, Note_on_c, 0, 65, 71
2, 180299, Note_on_c, 0, 65, 0
2, 180332, Note_on_c, 0, 62, 0
2, 180358, Note_on_c, 0, 60, 66
2, 180406, Note_on_c, 0, 60, 0
2, 180423, Note_on_c, 0, 59, 65
2, 180471, Note_on_c, 0, 59, 0
2, 180491, Note_on_c, 0, 57, 70
2, 180589, Note_on_c, 0, 57, 0
2, 180597, Note_on_c, 0, 56, 70
2, 180603, Note_on_c, 0, 59, 92
2, 180633, Control_c, 0, 64, 44
2, 180651, Control_c, 0, 64, 56
2, 180671, Control_c, 0, 64, 62
2, 180690, Control_c, 0, 64, 65
2, 180695, Note_on_c, 0, 56, 0
2, 180709, Control_c, 0, 64, 67
2, 180719, Note_on_c, 0, 57, 72
2, 180728, Control_c, 0, 64, 69
2, 180747, Control_c, 0, 64, 71
2, 180767, Control_c, 0, 64, 76
2, 180778, Note_on_c, 0, 57, 0
2, 180786, Control_c, 0, 64, 81
2, 180790, Note_on_c, 0, 56, 75
2, 180805, Control_c, 0, 64, 87
2, 180824, Control_c, 0, 64, 95
2, 180844, Control_c, 0, 64, 101
2, 180857, Note_on_c, 0, 59, 0
2, 180862, Control_c, 0, 64, 108
2, 180874, Note_on_c, 0, 54, 80
2, 180880, Note_on_c, 0, 56, 0
2, 180882, Control_c, 0, 64, 119
2, 180901, Control_c, 0, 64, 127
2, 180948, Note_on_c, 0, 54, 0
2, 180953, Note_on_c, 0, 62, 70
2, 180955, Control_c, 0, 64, 101
2, 180963, Note_on_c, 0, 52, 79
2, 180974, Control_c, 0, 64, 77
2, 180987, Note_on_c, 0, 62, 0
2, 180994, Control_c, 0, 64, 58
2, 181012, Control_c, 0, 64, 0
2, 181068, Note_on_c, 0, 52, 0
2, 181072, Note_on_c, 0, 50, 77
2, 181153, Note_on_c, 0, 48, 75
2, 181153, Note_on_c, 0, 50, 0
2, 181226, Note_on_c, 0, 47, 69
2, 181235, Note_on_c, 0, 48, 0
2, 181322, Note_on_c, 0, 45, 66
2, 181326, Note_on_c, 0, 47, 0
2, 181328, Note_on_c, 0, 60, 98
2, 181397, Control_c, 0, 64, 35
2, 181416, Control_c, 0, 64, 58
2, 181427, Note_on_c, 0, 71, 0
2, 181435, Control_c, 0, 64, 65
2, 181447, Note_on_c, 0, 45, 0
2, 181454, Control_c, 0, 64, 70
2, 181469, Control_c, 0, 64, 76
2, 181489, Control_c, 0, 64, 84
2, 181507, Control_c, 0, 64, 92
2, 181527, Control_c, 0, 64, 97
2, 181546, Control_c, 0, 64, 101
2, 181566, Control_c, 0, 64, 104
2, 181584, Control_c, 0, 64, 108
2, 181588, Note_on_c, 0, 64, 69
2, 181604, Control_c, 0, 64, 110
2, 181681, Control_c, 0, 64, 107
2, 181700, Control_c, 0, 64, 99
2, 181719, Control_c, 0, 64, 90
2, 181732, Note_on_c, 0, 64, 0
2, 181732, Note_on_c, 0, 69, 79
2, 181738, Control_c, 0, 64, 82
2, 181758, Control_c, 0, 64, 76
2, 181765, Note_on_c, 0, 57, 70
2, 181776, Control_c, 0, 64, 68
2, 181796, Control_c, 0, 64, 61
2, 181815, Control_c, 0, 64, 57
2, 181835, Control_c, 0, 64, 56
2, 181849, Note_on_c, 0, 55, 71
2, 181850, Note_on_c, 0, 57, 0
2, 181853, Control_c, 0, 64, 55
2, 181873, Control_c, 0, 64, 47
2, 181892, Control_c, 0, 64, 27
2, 181912, Note_on_c, 0, 60, 0
2, 181919, Control_c, 0, 64, 18
2, 181923, Note_on_c, 0, 53, 75
2, 181927, Note_on_c, 0, 69, 0
2, 181932, Note_on_c, 0, 55, 0
2, 181938, Control_c, 0, 64, 21
2, 181976, Control_c, 0, 64, 18
2, 181976, Note_on_c, 0, 52, 65
2, 181996, Control_c, 0, 64, 0
2, 182013, Note_on_c, 0, 53, 0
2, 182077, Note_on_c, 0, 50, 70
2, 182085, Note_on_c, 0, 65, 88
2, 182105, Note_on_c, 0, 52, 0
2, 182282, Note_on_c, 0, 57, 60
2, 182450, Note_on_c, 0, 50, 0
2, 182456, Note_on_c, 0, 53, 76
2, 182468, Note_on_c, 0, 62, 61
2, 182507, Note_on_c, 0, 57, 0
2, 182508, Note_on_c, 0, 65, 0
2, 182540, Note_on_c, 0, 52, 78
2, 182544, Note_on_c, 0, 53, 0
2, 182544, Note_on_c, 0, 62, 0
2, 182621, Note_on_c, 0, 50, 67
2, 182628, Note_on_c, 0, 52, 0
2, 182683, Note_on_c, 0, 48, 62
2, 182693, Note_on_c, 0, 50, 0
2, 182773, Note_on_c, 0, 47, 74
2, 182788, Note_on_c, 0, 48, 0
2, 182813, Note_on_c, 0, 56, 98
2, 182856, Control_c, 0, 64, 58
2, 182876, Control_c, 0, 64, 67
2, 182895, Control_c, 0, 64, 80
2, 182895, Note_on_c, 0, 47, 0
2, 182895, Note_on_c, 0, 48, 75
2, 182907, Note_on_c, 0, 56, 0
2, 182914, Control_c, 0, 64, 127
2, 182981, Note_on_c, 0, 48, 0
2, 182991, Note_on_c, 0, 50, 84
2, 183184, Control_c, 0, 64, 92
2, 183195, Note_on_c, 0, 77, 91
2, 183202, Control_c, 0, 64, 11
2, 183222, Control_c, 0, 64, 0
2, 183238, Note_on_c, 0, 77, 0
2, 183294, Note_on_c, 0, 50, 0
2, 183299, Note_on_c, 0, 48, 68
2, 183375, Note_on_c, 0, 47, 72
2, 183381, Note_on_c, 0, 48, 0
2, 183444, Note_on_c, 0, 47, 0
2, 183451, Note_on_c, 0, 45, 69
2, 183549, Note_on_c, 0, 71, 80
2, 183559, Note_on_c, 0, 44, 73
2, 183560, Note_on_c, 0, 45, 0
2, 183578, Note_on_c, 0, 71, 0
2, 183646, Note_on_c, 0, 45, 59
2, 183695, Note_on_c, 0, 44, 0
2, 183728, Note_on_c, 0, 45, 0
2, 183731, Note_on_c, 0, 47, 75
2, 183897, Note_on_c, 0, 74, 80
2, 183958, Note_on_c, 0, 74, 0
2, 184025, Note_on_c, 0, 45, 73
2, 184038, Note_on_c, 0, 47, 0
2, 184092, Note_on_c, 0, 44, 65
2, 184120, Note_on_c, 0, 45, 0
2, 184162, Note_on_c, 0, 42, 67
2, 184187, Note_on_c, 0, 44, 0
2, 184267, Note_on_c, 0, 40, 70
2, 184267, Note_on_c, 0, 68, 69
2, 184277, Note_on_c, 0, 42, 0
2, 184638, Note_on_c, 0, 62, 79
2, 184698, Note_on_c, 0, 62, 0
2, 184784, Note_on_c, 0, 40, 0
2, 184805, Note_on_c, 0, 42, 53
2, 184884, Note_on_c, 0, 42, 0
2, 184901, Note_on_c, 0, 44, 51
2, 184968, Note_on_c, 0, 44, 0
2, 184993, Note_on_c, 0, 45, 60
2, 185004, Note_on_c, 0, 59, 84
2, 185004, Note_on_c, 0, 71, 75
2, 185029, Note_on_c, 0, 68, 0
2, 185052, Note_on_c, 0, 45, 0
2, 185086, Note_on_c, 0, 59, 0
2, 185095, Note_on_c, 0, 44, 57
2, 185136, Note_on_c, 0, 44, 0
2, 185163, Note_on_c, 0, 45, 58
2, 185203, Note_on_c, 0, 45, 0
2, 185258, Note_on_c, 0, 44, 38
2, 185309, Note_on_c, 0, 45, 50
2, 185341, Note_on_c, 0, 44, 0
2, 185347, Note_on_c, 0, 45, 0
2, 185348, Note_on_c, 0, 64, 75
2, 185363, Note_on_c, 0, 44, 27
2, 185381, Note_on_c, 0, 64, 0
2, 185410, Note_on_c, 0, 45, 46
2, 185412, Note_on_c, 0, 44, 0
2, 185447, Note_on_c, 0, 45, 0
2, 185479, Note_on_c, 0, 44, 51
2, 185524, Note_on_c, 0, 44, 0
2, 185551, Note_on_c, 0, 42, 60
2, 185612, Note_on_c, 0, 42, 0
2, 185650, Note_on_c, 0, 44, 40
2, 185694, Note_on_c, 0, 44, 0
2, 185741, Note_on_c, 0, 45, 48
2, 185759, Note_on_c, 0, 60, 45
2, 185776, Note_on_c, 0, 71, 0
2, 185897, Note_on_c, 0, 60, 0
2, 186151, Note_on_c, 0, 76, 57
2, 186213, Note_on_c, 0, 76, 0
2, 186224, Note_on_c, 0, 45, 0
2, 186224, Note_on_c, 0, 74, 55
2, 186296, Note_on_c, 0, 72, 66
2, 186304, Note_on_c, 0, 74, 0
2, 186339, Note_on_c, 0, 47, 36
2, 186376, Note_on_c, 0, 72, 0
2, 186382, Note_on_c, 0, 71, 65
2, 186399, Note_on_c, 0, 47, 0
2, 186426, Note_on_c, 0, 48, 26
2, 186427, Note_on_c, 0, 71, 0
2, 186477, Note_on_c, 0, 49, 49
2, 186479, Note_on_c, 0, 48, 0
2, 186480, Note_on_c, 0, 69, 57
2, 186512, Note_on_c, 0, 49, 0
2, 186537, Note_on_c, 0, 50, 54
2, 186592, Note_on_c, 0, 50, 0
2, 186617, Note_on_c, 0, 49, 63
2, 186657, Note_on_c, 0, 49, 0
2, 186683, Note_on_c, 0, 73, 63
2, 186702, Note_on_c, 0, 50, 60
2, 186744, Note_on_c, 0, 50, 0
2, 186754, Note_on_c, 0, 73, 0
2, 186758, Note_on_c, 0, 49, 65
2, 186764, Note_on_c, 0, 76, 69
2, 186801, Note_on_c, 0, 49, 0
2, 186805, Note_on_c, 0, 76, 0
2, 186838, Note_on_c, 0, 50, 61
2, 186856, Note_on_c, 0, 79, 69
2, 186866, Note_on_c, 0, 50, 0
2, 186902, Note_on_c, 0, 49, 55
2, 186939, Note_on_c, 0, 49, 0
2, 186974, Note_on_c, 0, 50, 37
2, 187003, Note_on_c, 0, 49, 65
2, 187024, Note_on_c, 0, 50, 0
2, 187046, Note_on_c, 0, 49, 0
2, 187074, Note_on_c, 0, 47, 57
2, 187116, Note_on_c, 0, 47, 0
2, 187143, Note_on_c, 0, 49, 62
2, 187194, Note_on_c, 0, 49, 0
2, 187224, Note_on_c, 0, 77, 53
2, 187230, Note_on_c, 0, 50, 50
2, 187248, Note_on_c, 0, 69, 0
2, 187251, Note_on_c, 0, 79, 0
2, 187338, Note_on_c, 0, 77, 0
2, 187584, Note_on_c, 0, 69, 68
2, 187669, Note_on_c, 0, 50, 0
2, 187669, Note_on_c, 0, 67, 68
2, 187704, Note_on_c, 0, 69, 0
2, 187744, Note_on_c, 0, 65, 75
2, 187764, Note_on_c, 0, 52, 51
2, 187780, Note_on_c, 0, 67, 0
2, 187831, Note_on_c, 0, 64, 74
2, 187834, Note_on_c, 0, 53, 61
2, 187843, Note_on_c, 0, 52, 0
2, 187850, Note_on_c, 0, 65, 0
2, 187879, Note_on_c, 0, 53, 0
2, 187890, Note_on_c, 0, 54, 71
2, 187907, Note_on_c, 0, 64, 0
2, 187928, Note_on_c, 0, 62, 70
2, 187936, Note_on_c, 0, 54, 0
2, 187953, Note_on_c, 0, 55, 67
2, 188013, Note_on_c, 0, 55, 0
2, 188058, Note_on_c, 0, 54, 60
2, 188099, Note_on_c, 0, 54, 0
2, 188113, Note_on_c, 0, 66, 65
2, 188121, Note_on_c, 0, 55, 66
2, 188130, Note_on_c, 0, 62, 0
2, 188163, Note_on_c, 0, 55, 0
2, 188185, Note_on_c, 0, 54, 72
2, 188185, Note_on_c, 0, 69, 75
2, 188188, Note_on_c, 0, 66, 0
2, 188230, Note_on_c, 0, 54, 0
2, 188251, Note_on_c, 0, 55, 73
2, 188274, Note_on_c, 0, 69, 0
2, 188275, Note_on_c, 0, 72, 76
2, 188298, Note_on_c, 0, 55, 0
2, 188328, Note_on_c, 0, 54, 60
2, 188364, Note_on_c, 0, 54, 0
2, 188385, Note_on_c, 0, 55, 55
2, 188429, Note_on_c, 0, 55, 0
2, 188436, Note_on_c, 0, 54, 82
2, 188505, Note_on_c, 0, 54, 0
2, 188522, Note_on_c, 0, 52, 69
2, 188573, Note_on_c, 0, 52, 0
2, 188579, Note_on_c, 0, 72, 0
2, 188601, Note_on_c, 0, 54, 49
2, 188638, Note_on_c, 0, 54, 0
2, 188648, Note_on_c, 0, 71, 68
2, 188659, Note_on_c, 0, 55, 69
2, 188686, Note_on_c, 0, 71, 0
2, 188880, Note_on_c, 0, 74, 56
2, 188944, Note_on_c, 0, 74, 0
2, 188957, Note_on_c, 0, 72, 70
2, 189020, Note_on_c, 0, 72, 0
2, 189050, Note_on_c, 0, 71, 65
2, 189150, Note_on_c, 0, 71, 0
2, 189190, Note_on_c, 0, 55, 0
2, 189244, Note_on_c, 0, 57, 51
2, 189245, Note_on_c, 0, 72, 61
2, 189290, Note_on_c, 0, 57, 0
2, 189315, Note_on_c, 0, 72, 0
2, 189318, Note_on_c, 0, 59, 58
2, 189320, Note_on_c, 0, 74, 60
2, 189357, Note_on_c, 0, 59, 0
2, 189395, Note_on_c, 0, 60, 62
2, 189403, Note_on_c, 0, 74, 0
2, 189413, Note_on_c, 0, 67, 57
2, 189448, Note_on_c, 0, 60, 0
2, 189457, Note_on_c, 0, 67, 0
2, 189478, Note_on_c, 0, 59, 65
2, 189521, Note_on_c, 0, 59, 0
2, 189548, Note_on_c, 0, 60, 65
2, 189596, Note_on_c, 0, 60, 0
2, 189619, Note_on_c, 0, 59, 63
2, 189657, Note_on_c, 0, 59, 0
2, 189681, Note_on_c, 0, 60, 62
2, 189721, Note_on_c, 0, 60, 0
2, 189724, Note_on_c, 0, 77, 68
2, 189738, Note_on_c, 0, 59, 74
2, 189759, Note_on_c, 0, 77, 0
2, 189775, Note_on_c, 0, 59, 0
2, 189805, Note_on_c, 0, 60, 59
2, 189840, Note_on_c, 0, 60, 0
2, 189851, Note_on_c, 0, 59, 73
2, 189904, Note_on_c, 0, 59, 0
2, 189919, Note_on_c, 0, 57, 65
2, 189975, Note_on_c, 0, 57, 0
2, 190000, Note_on_c, 0, 59, 72
2, 190047, Note_on_c, 0, 59, 0
2, 190080, Note_on_c, 0, 76, 65
2, 190086, Note_on_c, 0, 60, 65
2, 190175, Note_on_c, 0, 76, 0
2, 190297, Note_on_c, 0, 67, 56
2, 190348, Note_on_c, 0, 67, 0
2, 190370, Note_on_c, 0, 65, 69
2, 190458, Note_on_c, 0, 65, 0
2, 190463, Note_on_c, 0, 64, 78
2, 190636, Note_on_c, 0, 64, 0
2, 190644, Note_on_c, 0, 60, 0
2, 190657, Note_on_c, 0, 62, 67
2, 190673, Note_on_c, 0, 65, 70
2, 190707, Note_on_c, 0, 62, 0
2, 190718, Note_on_c, 0, 64, 65
2, 190727, Note_on_c, 0, 65, 0
2, 190733, Note_on_c, 0, 67, 70
2, 190789, Note_on_c, 0, 64, 0
2, 190791, Note_on_c, 0, 67, 0
2, 190828, Note_on_c, 0, 60, 70
2, 190829, Note_on_c, 0, 65, 67
2, 190889, Note_on_c, 0, 65, 0
2, 190894, Note_on_c, 0, 64, 66
2, 190921, Note_on_c, 0, 60, 0
2, 190948, Note_on_c, 0, 64, 0
2, 190986, Note_on_c, 0, 65, 65
2, 191028, Note_on_c, 0, 65, 0
2, 191049, Note_on_c, 0, 64, 59
2, 191081, Note_on_c, 0, 64, 0
2, 191107, Note_on_c, 0, 65, 59
2, 191142, Note_on_c, 0, 65, 0
2, 191154, Note_on_c, 0, 70, 86
2, 191160, Note_on_c, 0, 64, 76
2, 191190, Note_on_c, 0, 70, 0
2, 191201, Note_on_c, 0, 64, 0
2, 191227, Note_on_c, 0, 65, 74
2, 191285, Note_on_c, 0, 65, 0
2, 191307, Note_on_c, 0, 64, 72
2, 191336, Note_on_c, 0, 62, 70
2, 191339, Note_on_c, 0, 64, 0
2, 191422, Note_on_c, 0, 62, 0
2, 191428, Note_on_c, 0, 64, 69
2, 191513, Note_on_c, 0, 64, 0
2, 191521, Note_on_c, 0, 65, 74
2, 191526, Note_on_c, 0, 69, 74
2, 191754, Note_on_c, 0, 71, 70
2, 191759, Note_on_c, 0, 69, 0
2, 191828, Note_on_c, 0, 71, 0
2, 191829, Note_on_c, 0, 73, 79
2, 191865, Note_on_c, 0, 73, 0
2, 191919, Note_on_c, 0, 74, 81
2, 192052, Note_on_c, 0, 65, 0
2, 192093, Note_on_c, 0, 67, 60
2, 192145, Note_on_c, 0, 67, 0
2, 192167, Note_on_c, 0, 69, 78
2, 192252, Note_on_c, 0, 69, 0
2, 192280, Note_on_c, 0, 70, 76
2, 192286, Note_on_c, 0, 81, 99
2, 192371, Note_on_c, 0, 70, 0
2, 192385, Note_on_c, 0, 69, 66
2, 192427, Note_on_c, 0, 69, 0
2, 192463, Note_on_c, 0, 70, 71
2, 192484, Note_on_c, 0, 74, 0
2, 192517, Note_on_c, 0, 70, 0
2, 192544, Note_on_c, 0, 69, 66
2, 192591, Note_on_c, 0, 69, 0
2, 192624, Note_on_c, 0, 70, 59
2, 192642, Note_on_c, 0, 73, 70
2, 192699, Note_on_c, 0, 70, 0
2, 192699, Note_on_c, 0, 73, 0
2, 192729, Note_on_c, 0, 69, 59
2, 192822, Note_on_c, 0, 67, 77
2, 192827, Note_on_c, 0, 69, 0
2, 192890, Note_on_c, 0, 67, 0
2, 192903, Note_on_c, 0, 69, 83
2, 192973, Control_c, 0, 64, 56
2, 192978, Note_on_c, 0, 81, 0
2, 192985, Note_on_c, 0, 69, 0
2, 192991, Note_on_c, 0, 70, 82
2, 192992, Control_c, 0, 64, 65
2, 192999, Note_on_c, 0, 77, 92
2, 193006, Note_on_c, 0, 74, 75
2, 193010, Control_c, 0, 64, 74
2, 193019, Note_on_c, 0, 70, 0
2, 193030, Control_c, 0, 64, 105
2, 193049, Control_c, 0, 64, 127
2, 193168, Note_on_c, 0, 74, 0
2, 193197, Note_on_c, 0, 77, 0
2, 193217, Note_on_c, 0, 58, 71
2, 193288, Note_on_c, 0, 60, 74
2, 193290, Note_on_c, 0, 58, 0
2, 193298, Control_c, 0, 64, 112
2, 193318, Control_c, 0, 64, 69
2, 193337, Control_c, 0, 64, 0
2, 193346, Note_on_c, 0, 60, 0
2, 193377, Note_on_c, 0, 62, 77
2, 193443, Note_on_c, 0, 62, 0
2, 193447, Note_on_c, 0, 60, 75
2, 193521, Note_on_c, 0, 58, 80
2, 193524, Note_on_c, 0, 60, 0
2, 193572, Note_on_c, 0, 58, 0
2, 193612, Note_on_c, 0, 57, 77
2, 193675, Note_on_c, 0, 57, 0
2, 193703, Note_on_c, 0, 55, 75
2, 193734, Note_on_c, 0, 82, 99
2, 193759, Note_on_c, 0, 55, 0
2, 193789, Note_on_c, 0, 53, 68
2, 193888, Note_on_c, 0, 53, 0
2, 193893, Note_on_c, 0, 55, 73
2, 193965, Note_on_c, 0, 55, 0
2, 193989, Note_on_c, 0, 57, 73
2, 194044, Note_on_c, 0, 82, 0
2, 194063, Note_on_c, 0, 57, 0
2, 194078, Note_on_c, 0, 58, 80
2, 194145, Note_on_c, 0, 58, 0
2, 194177, Note_on_c, 0, 57, 77
2, 194230, Note_on_c, 0, 57, 0
2, 194256, Note_on_c, 0, 55, 71
2, 194324, Note_on_c, 0, 55, 0
2, 194329, Note_on_c, 0, 53, 73
2, 194421, Note_on_c, 0, 53, 0
2, 194439, Note_on_c, 0, 52, 68
2, 194451, Note_on_c, 0, 73, 93
2, 194545, Note_on_c, 0, 53, 74
2, 194550, Note_on_c, 0, 52, 0
2, 194620, Note_on_c, 0, 53, 0
2, 194648, Note_on_c, 0, 55, 78
2, 194824, Note_on_c, 0, 70, 83
2, 194883, Note_on_c, 0, 70, 0
2, 194924, Note_on_c, 0, 53, 72
2, 194926, Note_on_c, 0, 55, 0
2, 195010, Note_on_c, 0, 52, 71
2, 195011, Note_on_c, 0, 53, 0
2, 195081, Note_on_c, 0, 52, 0
2, 195086, Note_on_c, 0, 50, 73
2, 195179, Note_on_c, 0, 73, 0
2, 195180, Note_on_c, 0, 64, 78
2, 195187, Note_on_c, 0, 49, 81
2, 195188, Note_on_c, 0, 50, 0
2, 195223, Note_on_c, 0, 64, 0
2, 195281, Note_on_c, 0, 50, 71
2, 195297, Note_on_c, 0, 49, 0
2, 195358, Note_on_c, 0, 52, 79
2, 195364, Note_on_c, 0, 50, 0
2, 195551, Note_on_c, 0, 67, 82
2, 195617, Note_on_c, 0, 67, 0
2, 195660, Note_on_c, 0, 52, 0
2, 195671, Note_on_c, 0, 50, 71
2, 195734, Note_on_c, 0, 49, 70
2, 195754, Note_on_c, 0, 50, 0
2, 195802, Note_on_c, 0, 47, 70
2, 195815, Note_on_c, 0, 49, 0
2, 195918, Note_on_c, 0, 45, 65
2, 195920, Note_on_c, 0, 47, 0
2, 195923, Note_on_c, 0, 61, 71
2, 195961, Note_on_c, 0, 61, 0
2, 196296, Note_on_c, 0, 79, 82
2, 196312, Note_on_c, 0, 76, 61
2, 196336, Note_on_c, 0, 79, 0
2, 196348, Note_on_c, 0, 76, 0
2, 196479, Note_on_c, 0, 45, 0
2, 196489, Note_on_c, 0, 47, 53
2, 196569, Note_on_c, 0, 47, 0
2, 196579, Note_on_c, 0, 49, 62
2, 196666, Note_on_c, 0, 49, 0
2, 196680, Note_on_c, 0, 69, 66
2, 196681, Note_on_c, 0, 76, 72
2, 196685, Note_on_c, 0, 50, 62
2, 196739, Note_on_c, 0, 76, 0
2, 196745, Note_on_c, 0, 50, 0
2, 196786, Note_on_c, 0, 49, 60
2, 196829, Note_on_c, 0, 49, 0
2, 196855, Note_on_c, 0, 50, 63
2, 196898, Note_on_c, 0, 50, 0
2, 196930, Note_on_c, 0, 49, 65
2, 196984, Note_on_c, 0, 49, 0
2, 197013, Note_on_c, 0, 50, 53
2, 197034, Note_on_c, 0, 81, 85
2, 197079, Note_on_c, 0, 81, 0
2, 197118, Note_on_c, 0, 50, 0
2, 197136, Note_on_c, 0, 49, 74
2, 197230, Note_on_c, 0, 47, 54
2, 197240, Note_on_c, 0, 49, 0
2, 197321, Note_on_c, 0, 47, 0
2, 197326, Note_on_c, 0, 49, 60
2, 197368, Note_on_c, 0, 49, 0
2, 197374, Note_on_c, 0, 69, 0
2, 197376, Note_on_c, 0, 77, 75
2, 197387, Note_on_c, 0, 50, 68
2, 197412, Note_on_c, 0, 77, 0
2, 197421, Note_on_c, 0, 50, 0
2, 197469, Note_on_c, 0, 52, 77
2, 197540, Note_on_c, 0, 52, 0
2, 197569, Note_on_c, 0, 53, 71
2, 197721, Note_on_c, 0, 69, 71
2, 197721, Note_on_c, 0, 74, 66
2, 197756, Note_on_c, 0, 74, 0
2, 197757, Note_on_c, 0, 69, 0
2, 197824, Note_on_c, 0, 53, 0
2, 197832, Note_on_c, 0, 52, 69
2, 197884, Note_on_c, 0, 52, 0
2, 197904, Note_on_c, 0, 50, 64
2, 197946, Note_on_c, 0, 50, 0
2, 197971, Note_on_c, 0, 48, 63
2, 198021, Note_on_c, 0, 48, 0
2, 198074, Note_on_c, 0, 47, 62
2, 198081, Note_on_c, 0, 62, 71
2, 198120, Note_on_c, 0, 62, 0
2, 198131, Note_on_c, 0, 47, 0
2, 198156, Note_on_c, 0, 48, 63
2, 198235, Note_on_c, 0, 48, 0
2, 198274, Note_on_c, 0, 50, 56
2, 198447, Note_on_c, 0, 65, 64
2, 198491, Note_on_c, 0, 65, 0
2, 198558, Note_on_c, 0, 50, 0
2, 198566, Note_on_c, 0, 48, 64
2, 198627, Note_on_c, 0, 48, 0
2, 198642, Note_on_c, 0, 47, 52
2, 198685, Note_on_c, 0, 47, 0
2, 198704, Note_on_c, 0, 45, 53
2, 198786, Note_on_c, 0, 45, 0
2, 198810, Note_on_c, 0, 43, 44
2, 198814, Note_on_c, 0, 59, 61
2, 198868, Note_on_c, 0, 59, 0
2, 199177, Note_on_c, 0, 77, 74
2, 199180, Note_on_c, 0, 74, 69
2, 199220, Note_on_c, 0, 74, 0
2, 199240, Note_on_c, 0, 77, 0
2, 199375, Note_on_c, 0, 45, 52
2, 199397, Note_on_c, 0, 43, 0
2, 199443, Note_on_c, 0, 45, 0
2, 199446, Note_on_c, 0, 47, 68
2, 199525, Note_on_c, 0, 47, 0
2, 199548, Note_on_c, 0, 48, 64
2, 199552, Note_on_c, 0, 67, 66
2, 199556, Note_on_c, 0, 74, 68
2, 199592, Note_on_c, 0, 74, 0
2, 199597, Note_on_c, 0, 48, 0
2, 199637, Note_on_c, 0, 47, 63
2, 199675, Note_on_c, 0, 47, 0
2, 199694, Note_on_c, 0, 48, 65
2, 199741, Note_on_c, 0, 48, 0
2, 199769, Note_on_c, 0, 47, 65
2, 199812, Note_on_c, 0, 47, 0
2, 199836, Note_on_c, 0, 48, 67
2, 199872, Note_on_c, 0, 48, 0
2, 199911, Note_on_c, 0, 79, 89
2, 199923, Note_on_c, 0, 47, 41
2, 199961, Note_on_c, 0, 48, 60
2, 199971, Note_on_c, 0, 47, 0
2, 199972, Note_on_c, 0, 79, 0
2, 199996, Note_on_c, 0, 48, 0
2, 200017, Note_on_c, 0, 47, 62
2, 200053, Note_on_c, 0, 47, 0
2, 200076, Note_on_c, 0, 45, 56
2, 200141, Note_on_c, 0, 45, 0
2, 200177, Note_on_c, 0, 47, 59
2, 200224, Note_on_c, 0, 67, 0
2, 200245, Note_on_c, 0, 47, 0
2, 200292, Note_on_c, 0, 48, 46
2, 200295, Note_on_c, 0, 76, 67
2, 200355, Note_on_c, 0, 76, 0
2, 200501, Note_on_c, 0, 48, 0
2, 200661, Note_on_c, 0, 72, 61
2, 200707, Note_on_c, 0, 72, 0
2, 200790, Note_on_c, 0, 60, 47
2, 200836, Note_on_c, 0, 60, 0
2, 200861, Note_on_c, 0, 62, 50
2, 200896, Note_on_c, 0, 62, 0
2, 200922, Note_on_c, 0, 64, 53
2, 200981, Note_on_c, 0, 64, 0
2, 201019, Note_on_c, 0, 69, 55
2, 201025, Note_on_c, 0, 65, 48
2, 201061, Note_on_c, 0, 69, 0
2, 201135, Note_on_c, 0, 65, 0
2, 201394, Note_on_c, 0, 77, 64
2, 201435, Note_on_c, 0, 77, 0
2, 201496, Note_on_c, 0, 64, 58
2, 201550, Note_on_c, 0, 64, 0
2, 201575, Note_on_c, 0, 62, 51
2, 201631, Note_on_c, 0, 62, 0
2, 201657, Note_on_c, 0, 60, 52
2, 201716, Note_on_c, 0, 60, 0
2, 201750, Note_on_c, 0, 74, 58
2, 201757, Note_on_c, 0, 59, 46
2, 201792, Note_on_c, 0, 74, 0
2, 201869, Note_on_c, 0, 59, 0
2, 202122, Note_on_c, 0, 62, 70
2, 202125, Note_on_c, 0, 71, 74
2, 202178, Note_on_c, 0, 71, 0
2, 202189, Note_on_c, 0, 62, 0
2, 202211, Note_on_c, 0, 47, 75
2, 202298, Note_on_c, 0, 48, 81
2, 202313, Note_on_c, 0, 47, 0
2, 202359, Note_on_c, 0, 50, 82
2, 202373, Note_on_c, 0, 48, 0
2, 202449, Note_on_c, 0, 52, 87
2, 202464, Note_on_c, 0, 59, 78
2, 202464, Note_on_c, 0, 68, 75
2, 202471, Note_on_c, 0, 50, 0
2, 202509, Note_on_c, 0, 59, 0
2, 202526, Note_on_c, 0, 68, 0
2, 202717, Note_on_c, 0, 52, 0
2, 202842, Note_on_c, 0, 76, 83
2, 202843, Note_on_c, 0, 68, 86
2, 202876, Note_on_c, 0, 68, 0
2, 202884, Note_on_c, 0, 76, 0
2, 202957, Note_on_c, 0, 50, 67
2, 203012, Note_on_c, 0, 50, 0
2, 203019, Note_on_c, 0, 48, 71
2, 203091, Note_on_c, 0, 47, 76
2, 203102, Note_on_c, 0, 48, 0
2, 203209, Note_on_c, 0, 45, 60
2, 203234, Note_on_c, 0, 47, 0
2, 203235, Note_on_c, 0, 72, 88
2, 203237, Note_on_c, 0, 69, 79
2, 203465, Note_on_c, 0, 47, 66
2, 203503, Note_on_c, 0, 45, 0
2, 203556, Note_on_c, 0, 48, 72
2, 203569, Note_on_c, 0, 47, 0
2, 203617, Note_on_c, 0, 50, 79
2, 203629, Note_on_c, 0, 48, 0
2, 203669, Note_on_c, 0, 50, 0
2, 203708, Note_on_c, 0, 52, 77
2, 203786, Note_on_c, 0, 52, 0
2, 203802, Note_on_c, 0, 54, 78
2, 203889, Note_on_c, 0, 56, 79
2, 203901, Note_on_c, 0, 54, 0
2, 203906, Note_on_c, 0, 69, 0
2, 203961, Note_on_c, 0, 56, 0
2, 203979, Note_on_c, 0, 57, 80
2, 204103, Note_on_c, 0, 71, 67
2, 204186, Note_on_c, 0, 69, 70
2, 204214, Note_on_c, 0, 71, 0
2, 204257, Note_on_c, 0, 67, 65
2, 204274, Note_on_c, 0, 69, 0
2, 204310, Note_on_c, 0, 67, 0
2, 204337, Note_on_c, 0, 65, 58
2, 204421, Note_on_c, 0, 64, 69
2, 204428, Note_on_c, 0, 65, 0
2, 204490, Note_on_c, 0, 64, 0
2, 204514, Note_on_c, 0, 62, 60
2, 204572, Note_on_c, 0, 72, 0
2, 204578, Note_on_c, 0, 62, 0
2, 204591, Note_on_c, 0, 60, 70
2, 204676, Note_on_c, 0, 60, 0
2, 204682, Note_on_c, 0, 62, 65
2, 204734, Note_on_c, 0, 71, 67
2, 204775, Note_on_c, 0, 62, 0
2, 204815, Note_on_c, 0, 57, 0
2, 204815, Note_on_c, 0, 72, 75
2, 204829, Note_on_c, 0, 71, 0
2, 204877, Note_on_c, 0, 72, 0
2, 204878, Note_on_c, 0, 74, 72
2, 204910, Note_on_c, 0, 74, 0
2, 204968, Note_on_c, 0, 76, 82
2, 204971, Note_on_c, 0, 56, 82
2, 204974, Note_on_c, 0, 59, 80
2, 205006, Note_on_c, 0, 56, 0
2, 205007, Note_on_c, 0, 59, 0
2, 205065, Note_on_c, 0, 78, 80
2, 205069, Note_on_c, 0, 76, 0
2, 205143, Note_on_c, 0, 80, 79
2, 205150, Note_on_c, 0, 78, 0
2, 205161, Note_on_c, 0, 57, 66
2, 205169, Note_on_c, 0, 54, 67
2, 205187, Note_on_c, 0, 57, 0
2, 205206, Note_on_c, 0, 54, 0
2, 205244, Note_on_c, 0, 81, 75
2, 205263, Note_on_c, 0, 80, 0
2, 205336, Note_on_c, 0, 52, 77
2, 205338, Note_on_c, 0, 83, 83
2, 205343, Note_on_c, 0, 56, 75
2, 205352, Note_on_c, 0, 81, 0
2, 205445, Note_on_c, 0, 81, 78
2, 205453, Control_c, 0, 64, 21
2, 205473, Control_c, 0, 64, 50
2, 205475, Note_on_c, 0, 56, 0
2, 205481, Note_on_c, 0, 52, 0
2, 205491, Control_c, 0, 64, 57
2, 205511, Control_c, 0, 64, 60
2, 205530, Control_c, 0, 64, 63
2, 205533, Note_on_c, 0, 83, 0
2, 205534, Note_on_c, 0, 80, 81
2, 205549, Control_c, 0, 64, 66
2, 205552, Note_on_c, 0, 81, 0
2, 205568, Control_c, 0, 64, 71
2, 205588, Control_c, 0, 64, 81
2, 205607, Control_c, 0, 64, 94
2, 205608, Note_on_c, 0, 78, 83
2, 205626, Control_c, 0, 64, 112
2, 205645, Control_c, 0, 64, 127
2, 205649, Note_on_c, 0, 80, 0
2, 205677, Note_on_c, 0, 78, 0
2, 205684, Control_c, 0, 64, 94
2, 205701, Note_on_c, 0, 76, 78
2, 205702, Control_c, 0, 64, 63
2, 205713, Note_on_c, 0, 50, 96
2, 205722, Control_c, 0, 64, 0
2, 205758, Note_on_c, 0, 76, 0
2, 205762, Note_on_c, 0, 50, 0
2, 205799, Note_on_c, 0, 74, 72
2, 205885, Note_on_c, 0, 72, 82
2, 205897, Note_on_c, 0, 74, 0
2, 205940, Note_on_c, 0, 72, 0
2, 205986, Note_on_c, 0, 71, 73
2, 206068, Note_on_c, 0, 48, 94
2, 206074, Note_on_c, 0, 57, 82
2, 206074, Note_on_c, 0, 71, 0
2, 206080, Note_on_c, 0, 76, 75
2, 206167, Control_c, 0, 64, 39
2, 206186, Control_c, 0, 64, 57
2, 206188, Note_on_c, 0, 74, 66
2, 206192, Note_on_c, 0, 76, 0
2, 206206, Control_c, 0, 64, 62
2, 206225, Control_c, 0, 64, 64
2, 206244, Control_c, 0, 64, 66
2, 206263, Control_c, 0, 64, 69
2, 206278, Note_on_c, 0, 72, 79
2, 206283, Control_c, 0, 64, 77
2, 206289, Note_on_c, 0, 74, 0
2, 206301, Control_c, 0, 64, 91
2, 206321, Control_c, 0, 64, 106
2, 206340, Control_c, 0, 64, 127
2, 206367, Note_on_c, 0, 71, 77
2, 206379, Note_on_c, 0, 72, 0
2, 206386, Note_on_c, 0, 57, 0
2, 206415, Note_on_c, 0, 71, 0
2, 206418, Note_on_c, 0, 48, 0
2, 206444, Note_on_c, 0, 69, 72
2, 206508, Note_on_c, 0, 69, 0
2, 206537, Note_on_c, 0, 68, 75
2, 206567, Control_c, 0, 64, 116
2, 206586, Control_c, 0, 64, 111
2, 206605, Control_c, 0, 64, 106
2, 206615, Note_on_c, 0, 66, 77
2, 206624, Control_c, 0, 64, 100
2, 206638, Note_on_c, 0, 68, 0
2, 206644, Control_c, 0, 64, 97
2, 206682, Control_c, 0, 64, 96
2, 206687, Note_on_c, 0, 66, 0
2, 206701, Control_c, 0, 64, 95
2, 206721, Control_c, 0, 64, 92
2, 206726, Note_on_c, 0, 64, 65
2, 206739, Control_c, 0, 64, 90
2, 206759, Control_c, 0, 64, 90
2, 206778, Control_c, 0, 64, 87
2, 206797, Control_c, 0, 64, 78
2, 206810, Note_on_c, 0, 53, 94
2, 206812, Note_on_c, 0, 64, 0
2, 206816, Control_c, 0, 64, 64
2, 206822, Note_on_c, 0, 69, 75
2, 206836, Control_c, 0, 64, 0
2, 206941, Note_on_c, 0, 67, 63
2, 206947, Note_on_c, 0, 69, 0
2, 207028, Note_on_c, 0, 65, 69
2, 207030, Control_c, 0, 64, 39
2, 207037, Note_on_c, 0, 67, 0
2, 207050, Control_c, 0, 64, 52
2, 207068, Control_c, 0, 64, 54
2, 207088, Control_c, 0, 64, 56
2, 207107, Control_c, 0, 64, 58
2, 207110, Note_on_c, 0, 64, 72
2, 207122, Note_on_c, 0, 53, 0
2, 207127, Control_c, 0, 64, 60
2, 207127, Note_on_c, 0, 65, 0
2, 207145, Control_c, 0, 64, 64
2, 207154, Note_on_c, 0, 64, 0
2, 207165, Control_c, 0, 64, 67
2, 207184, Control_c, 0, 64, 73
2, 207194, Note_on_c, 0, 62, 67
2, 207203, Control_c, 0, 64, 80
2, 207222, Control_c, 0, 64, 88
2, 207242, Control_c, 0, 64, 94
2, 207246, Note_on_c, 0, 62, 0
2, 207261, Control_c, 0, 64, 99
2, 207280, Control_c, 0, 64, 102
2, 207282, Note_on_c, 0, 60, 72
2, 207299, Control_c, 0, 64, 104
2, 207319, Control_c, 0, 64, 106
2, 207357, Control_c, 0, 64, 105
2, 207369, Note_on_c, 0, 59, 84
2, 207380, Note_on_c, 0, 60, 0
2, 207415, Control_c, 0, 64, 104
2, 207432, Note_on_c, 0, 59, 0
2, 207434, Control_c, 0, 64, 101
2, 207454, Control_c, 0, 64, 100
2, 207480, Note_on_c, 0, 57, 64
2, 207492, Control_c, 0, 64, 99
2, 207511, Control_c, 0, 64, 97
2, 207531, Control_c, 0, 64, 94
2, 207549, Control_c, 0, 64, 89
2, 207569, Control_c, 0, 64, 80
2, 207571, Note_on_c, 0, 44, 96
2, 207585, Note_on_c, 0, 65, 78
2, 207588, Control_c, 0, 64, 65
2, 207597, Note_on_c, 0, 57, 0
2, 207607, Control_c, 0, 64, 0
2, 207690, Note_on_c, 0, 64, 62
2, 207718, Note_on_c, 0, 65, 0
2, 207773, Note_on_c, 0, 62, 70
2, 207788, Note_on_c, 0, 64, 0
2, 207850, Note_on_c, 0, 60, 75
2, 207866, Note_on_c, 0, 62, 0
2, 207892, Note_on_c, 0, 60, 0
2, 207941, Note_on_c, 0, 59, 69
2, 207986, Note_on_c, 0, 59, 0
2, 208019, Note_on_c, 0, 57, 65
2, 208074, Note_on_c, 0, 57, 0
2, 208086, Note_on_c, 0, 56, 81
2, 208126, Note_on_c, 0, 56, 0
2, 208180, Note_on_c, 0, 54, 69
2, 208220, Note_on_c, 0, 54, 0
2, 208280, Note_on_c, 0, 62, 73
2, 208373, Note_on_c, 0, 44, 0
2, 208374, Note_on_c, 0, 60, 64
2, 208391, Note_on_c, 0, 62, 0
2, 208439, Note_on_c, 0, 59, 78
2, 208448, Note_on_c, 0, 60, 0
2, 208482, Note_on_c, 0, 59, 0
2, 208508, Note_on_c, 0, 57, 68
2, 208565, Note_on_c, 0, 57, 0
2, 208597, Note_on_c, 0, 56, 80
2, 208677, Note_on_c, 0, 54, 80
2, 208700, Note_on_c, 0, 56, 0
2, 208750, Note_on_c, 0, 54, 0
2, 208751, Note_on_c, 0, 52, 74
2, 208829, Note_on_c, 0, 52, 0
2, 208833, Note_on_c, 0, 51, 79
2, 208927, Note_on_c, 0, 51, 0
2, 208936, Note_on_c, 0, 52, 86
2, 209207, Note_on_c, 0, 52, 0
2, 209348, Note_on_c, 0, 50, 59
2, 209398, Note_on_c, 0, 50, 0
2, 209488, Note_on_c, 0, 64, 59
2, 209531, Note_on_c, 0, 64, 0
2, 209575, Note_on_c, 0, 66, 58
2, 209623, Note_on_c, 0, 66, 0
2, 209644, Note_on_c, 0, 68, 46
2, 209689, Note_on_c, 0, 68, 0
2, 209706, Note_on_c, 0, 47, 64
2, 209711, Note_on_c, 0, 69, 62
2, 209739, Note_on_c, 0, 47, 0
2, 209769, Note_on_c, 0, 69, 0
2, 209809, Note_on_c, 0, 68, 67
2, 209856, Note_on_c, 0, 68, 0
2, 209896, Note_on_c, 0, 69, 60
2, 209935, Note_on_c, 0, 69, 0
2, 209969, Note_on_c, 0, 68, 64
2, 210002, Note_on_c, 0, 68, 0
2, 210023, Note_on_c, 0, 69, 64
2, 210053, Note_on_c, 0, 52, 64
2, 210064, Note_on_c, 0, 69, 0
2, 210083, Note_on_c, 0, 68, 71
2, 210091, Note_on_c, 0, 52, 0
2, 210117, Note_on_c, 0, 68, 0
2, 210139, Note_on_c, 0, 69, 52
2, 210169, Note_on_c, 0, 69, 0
2, 210252, Note_on_c, 0, 66, 59
2, 210315, Note_on_c, 0, 66, 0
2, 210317, Note_on_c, 0, 68, 67
2, 210364, Note_on_c, 0, 68, 0
2, 210404, Note_on_c, 0, 48, 65
2, 210416, Note_on_c, 0, 69, 64
2, 210445, Note_on_c, 0, 48, 0
2, 210822, Note_on_c, 0, 45, 87
2, 210864, Note_on_c, 0, 45, 0
2, 210970, Note_on_c, 0, 59, 53
2, 211039, Note_on_c, 0, 59, 0
2, 211050, Note_on_c, 0, 60, 60
2, 211098, Note_on_c, 0, 60, 0
2, 211123, Note_on_c, 0, 62, 63
2, 211200, Note_on_c, 0, 40, 91
2, 211201, Note_on_c, 0, 62, 0
2, 211240, Note_on_c, 0, 61, 55
2, 211251, Note_on_c, 0, 40, 0
2, 211284, Note_on_c, 0, 61, 0
2, 211314, Note_on_c, 0, 62, 56
2, 211352, Note_on_c, 0, 69, 0
2, 211361, Note_on_c, 0, 62, 0
2, 211387, Note_on_c, 0, 61, 68
2, 211447, Note_on_c, 0, 61, 0
2, 211459, Note_on_c, 0, 62, 63
2, 211520, Note_on_c, 0, 62, 0
2, 211550, Note_on_c, 0, 61, 68
2, 211594, Note_on_c, 0, 43, 94
2, 211595, Note_on_c, 0, 61, 0
2, 211628, Note_on_c, 0, 62, 66
2, 211649, Note_on_c, 0, 43, 0
2, 211696, Note_on_c, 0, 61, 73
2, 211698, Note_on_c, 0, 62, 0
2, 211772, Note_on_c, 0, 61, 0
2, 211777, Note_on_c, 0, 59, 72
2, 211861, Note_on_c, 0, 59, 0
2, 211894, Note_on_c, 0, 61, 68
2, 212012, Note_on_c, 0, 62, 70
2, 212014, Note_on_c, 0, 41, 88
2, 212014, Note_on_c, 0, 61, 0
2, 212094, Note_on_c, 0, 62, 0
2, 212144, Note_on_c, 0, 40, 89
2, 212170, Note_on_c, 0, 41, 0
2, 212271, Note_on_c, 0, 38, 90
2, 212309, Note_on_c, 0, 40, 0
2, 212542, Note_on_c, 0, 71, 84
2, 212544, Note_on_c, 0, 65, 77
2, 212636, Control_c, 0, 64, 37
2, 212656, Control_c, 0, 64, 52
2, 212675, Control_c, 0, 64, 56
2, 212694, Control_c, 0, 64, 58
2, 212713, Control_c, 0, 64, 60
2, 212723, Note_on_c, 0, 71, 0
2, 212733, Control_c, 0, 64, 62
2, 212742, Note_on_c, 0, 65, 0
2, 212751, Control_c, 0, 64, 63
2, 212790, Control_c, 0, 64, 64
2, 212807, Note_on_c, 0, 40, 79
2, 212810, Control_c, 0, 64, 64
2, 212816, Note_on_c, 0, 38, 0
2, 212828, Control_c, 0, 64, 65
2, 212867, Control_c, 0, 64, 64
2, 212887, Control_c, 0, 64, 64
2, 212937, Note_on_c, 0, 40, 0
2, 212941, Note_on_c, 0, 41, 75
2, 212944, Control_c, 0, 64, 63
2, 212963, Control_c, 0, 64, 63
2, 212982, Control_c, 0, 64, 61
2, 213002, Control_c, 0, 64, 59
2, 213021, Control_c, 0, 64, 58
2, 213040, Control_c, 0, 64, 55
2, 213049, Note_on_c, 0, 41, 0
2, 213059, Control_c, 0, 64, 46
2, 213071, Note_on_c, 0, 64, 84
2, 213074, Note_on_c, 0, 40, 69
2, 213074, Note_on_c, 0, 56, 84
2, 213079, Control_c, 0, 64, 0
2, 213161, Note_on_c, 0, 40, 0
2, 213184, Note_on_c, 0, 41, 67
2, 213193, Control_c, 0, 64, 17
2, 213213, Control_c, 0, 64, 56
2, 213231, Control_c, 0, 64, 66
2, 213242, Note_on_c, 0, 41, 0
2, 213251, Control_c, 0, 64, 72
2, 213270, Control_c, 0, 64, 85
2, 213283, Note_on_c, 0, 40, 68
2, 213287, Control_c, 0, 64, 111
2, 213289, Note_on_c, 0, 56, 0
2, 213304, Control_c, 0, 64, 127
2, 213311, Note_on_c, 0, 64, 0
2, 213322, Note_on_c, 0, 40, 0
2, 213337, Note_on_c, 0, 41, 74
2, 213400, Note_on_c, 0, 41, 0
2, 213418, Note_on_c, 0, 40, 77
2, 213474, Note_on_c, 0, 40, 0
2, 213497, Note_on_c, 0, 41, 72
2, 213541, Note_on_c, 0, 41, 0
2, 213557, Note_on_c, 0, 40, 78
2, 213615, Note_on_c, 0, 40, 0
2, 213626, Note_on_c, 0, 41, 75
2, 213632, Control_c, 0, 64, 123
2, 213651, Control_c, 0, 64, 110
2, 213671, Control_c, 0, 64, 99
2, 213685, Note_on_c, 0, 41, 0
2, 213690, Control_c, 0, 64, 89
2, 213697, Note_on_c, 0, 40, 79
2, 213709, Control_c, 0, 64, 81
2, 213717, Note_on_c, 0, 68, 94
2, 213728, Control_c, 0, 64, 75
2, 213728, Note_on_c, 0, 59, 81
2, 213747, Note_on_c, 0, 40, 0
2, 213748, Control_c, 0, 64, 70
2, 213766, Control_c, 0, 64, 65
2, 213773, Note_on_c, 0, 41, 74
2, 213786, Control_c, 0, 64, 59
2, 213805, Control_c, 0, 64, 54
2, 213825, Control_c, 0, 64, 49
2, 213838, Note_on_c, 0, 41, 0
2, 213843, Control_c, 0, 64, 36
2, 213849, Note_on_c, 0, 40, 75
2, 213863, Control_c, 0, 64, 0
2, 214033, Note_on_c, 0, 59, 0
2, 214047, Note_on_c, 0, 38, 82
2, 214064, Note_on_c, 0, 68, 0
2, 214085, Note_on_c, 0, 40, 0
2, 214276, Note_on_c, 0, 40, 77
2, 214321, Note_on_c, 0, 38, 0
2, 214678, Note_on_c, 0, 33, 59
2, 214692, Note_on_c, 0, 69, 74
2, 214693, Note_on_c, 0, 61, 70
2, 214728, Note_on_c, 0, 40, 0
2, 216697, Note_on_c, 0, 69, 0
2, 216709, Note_on_c, 0, 61, 0
2, 216714, Note_on_c, 0, 33, 0
2, 216715, End_track
0, 0, End_of_file
