0, 0, Header, 1, 2, 480
1, 0, Start_track
1, 0, Tempo, 500000
1, 0, Time_signature, 4, 2, 24, 8
1, 1, End_track
2, 0, Start_track
2, 0, Program_c, 0, 0
2, 0, Control_c, 0, 64, 127
2, 118, Control_c, 0, 64, 109
2, 137, Control_c, 0, 64, 107
2, 157, Control_c, 0, 64, 107
2, 176, Control_c, 0, 64, 104
2, 195, Control_c, 0, 64, 96
2, 214, Control_c, 0, 64, 88
2, 234, Control_c, 0, 64, 81
2, 252, Control_c, 0, 64, 76
2, 272, Control_c, 0, 64, 72
2, 291, Control_c, 0, 64, 67
2, 311, Control_c, 0, 64, 64
2, 329, Control_c, 0, 64, 64
2, 349, Control_c, 0, 64, 63
2, 368, Control_c, 0, 64, 61
2, 388, Control_c, 0, 64, 58
2, 406, Control_c, 0, 64, 56
2, 465, Control_c, 0, 64, 55
2, 484, Control_c, 0, 64, 53
2, 504, Control_c, 0, 64, 52
2, 523, Control_c, 0, 64, 50
2, 542, Control_c, 0, 64, 47
2, 561, Control_c, 0, 64, 41
2, 581, Control_c, 0, 64, 29
2, 599, Control_c, 0, 64, 0
2, 980, Note_on_c, 0, 45, 42
2, 1125, Note_on_c, 0, 72, 58
2, 1243, Note_on_c, 0, 74, 62
2, 1285, Note_on_c, 0, 72, 0
2, 1335, Note_on_c, 0, 76, 68
2, 1362, Note_on_c, 0, 74, 0
2, 1482, Note_on_c, 0, 77, 64
2, 1488, Note_on_c, 0, 57, 52
2, 1535, Note_on_c, 0, 76, 0
2, 1543, Note_on_c, 0, 45, 0
2, 1744, Note_on_c, 0, 72, 64
2, 1873, Note_on_c, 0, 77, 0
2, 1979, Note_on_c, 0, 56, 50
2, 1984, Note_on_c, 0, 71, 61
2, 2104, Note_on_c, 0, 72, 0
2, 2115, Note_on_c, 0, 57, 0
2, 2246, Note_on_c, 0, 75, 68
2, 2304, Note_on_c, 0, 71, 0
2, 2493, Note_on_c, 0, 55, 55
2, 2496, Note_on_c, 0, 76, 62
2, 2579, Note_on_c, 0, 56, 0
2, 2675, Note_on_c, 0, 75, 0
2, 2752, Note_on_c, 0, 70, 65
2, 2864, Note_on_c, 0, 76, 0
2, 2975, Note_on_c, 0, 54, 39
2, 3004, Note_on_c, 0, 69, 57
2, 3068, Note_on_c, 0, 70, 0
2, 3104, Note_on_c, 0, 55, 0
2, 3265, Note_on_c, 0, 73, 59
2, 3307, Note_on_c, 0, 69, 0
2, 3506, Note_on_c, 0, 53, 42
2, 3522, Note_on_c, 0, 74, 49
2, 3568, Note_on_c, 0, 54, 0
2, 3607, Note_on_c, 0, 73, 0
2, 3798, Note_on_c, 0, 68, 53
2, 3945, Note_on_c, 0, 74, 0
2, 4027, Note_on_c, 0, 52, 41
2, 4099, Note_on_c, 0, 53, 0
2, 4275, Note_on_c, 0, 69, 52
2, 4317, Note_on_c, 0, 68, 0
2, 4517, Note_on_c, 0, 50, 46
2, 4667, Note_on_c, 0, 52, 0
2, 4761, Note_on_c, 0, 71, 53
2, 4779, Note_on_c, 0, 69, 0
2, 5022, Note_on_c, 0, 64, 47
2, 5036, Note_on_c, 0, 71, 0
2, 5111, Note_on_c, 0, 50, 0
2, 5153, Note_on_c, 0, 48, 47
2, 5265, Note_on_c, 0, 50, 59
2, 5282, Note_on_c, 0, 48, 0
2, 5356, Note_on_c, 0, 50, 0
2, 5358, Note_on_c, 0, 52, 64
2, 5490, Note_on_c, 0, 53, 47
2, 5496, Note_on_c, 0, 52, 0
2, 5502, Note_on_c, 0, 69, 65
2, 5628, Note_on_c, 0, 64, 0
2, 5753, Note_on_c, 0, 48, 53
2, 5834, Note_on_c, 0, 53, 0
2, 5984, Note_on_c, 0, 47, 49
2, 5997, Note_on_c, 0, 68, 67
2, 6051, Note_on_c, 0, 48, 0
2, 6150, Note_on_c, 0, 69, 0
2, 6236, Note_on_c, 0, 51, 52
2, 6278, Note_on_c, 0, 47, 0
2, 6476, Note_on_c, 0, 52, 52
2, 6482, Note_on_c, 0, 67, 60
2, 6520, Note_on_c, 0, 51, 0
2, 6558, Note_on_c, 0, 68, 0
2, 6740, Note_on_c, 0, 46, 49
2, 6860, Note_on_c, 0, 52, 0
2, 6978, Note_on_c, 0, 45, 44
2, 6981, Note_on_c, 0, 66, 55
2, 7007, Note_on_c, 0, 46, 0
2, 7074, Note_on_c, 0, 67, 0
2, 7237, Note_on_c, 0, 49, 48
2, 7296, Note_on_c, 0, 45, 0
2, 7486, Note_on_c, 0, 50, 42
2, 7498, Note_on_c, 0, 65, 42
2, 7557, Note_on_c, 0, 66, 0
2, 7569, Note_on_c, 0, 49, 0
2, 7742, Note_on_c, 0, 44, 38
2, 7863, Note_on_c, 0, 50, 0
2, 8003, Note_on_c, 0, 64, 46
2, 8196, Note_on_c, 0, 65, 0
2, 8248, Note_on_c, 0, 45, 38
2, 8351, Note_on_c, 0, 44, 0
2, 8516, Note_on_c, 0, 62, 42
2, 8581, Note_on_c, 0, 64, 0
2, 8771, Note_on_c, 0, 47, 37
2, 8816, Note_on_c, 0, 45, 0
2, 9045, Note_on_c, 0, 40, 37
2, 9142, Note_on_c, 0, 62, 0
2, 9152, Note_on_c, 0, 47, 0
2, 9321, Note_on_c, 0, 60, 47
2, 9396, Note_on_c, 0, 60, 0
2, 9419, Note_on_c, 0, 59, 60
2, 9496, Note_on_c, 0, 59, 0
2, 9552, Note_on_c, 0, 60, 47
2, 9556, Note_on_c, 0, 45, 40
2, 9634, Note_on_c, 0, 60, 0
2, 9658, Note_on_c, 0, 40, 0
2, 9837, Note_on_c, 0, 69, 56
2, 10072, Note_on_c, 0, 47, 39
2, 10303, Note_on_c, 0, 45, 0
2, 10323, Note_on_c, 0, 68, 62
2, 10414, Note_on_c, 0, 69, 0
2, 10577, Note_on_c, 0, 49, 47
2, 10590, Note_on_c, 0, 76, 64
2, 10605, Note_on_c, 0, 68, 0
2, 10673, Note_on_c, 0, 47, 0
2, 10882, Note_on_c, 0, 67, 47
2, 10950, Note_on_c, 0, 76, 0
2, 11094, Note_on_c, 0, 50, 51
2, 11096, Note_on_c, 0, 49, 0
2, 11263, Note_on_c, 0, 67, 0
2, 11339, Note_on_c, 0, 65, 42
2, 11436, Note_on_c, 0, 65, 0
2, 11442, Note_on_c, 0, 64, 63
2, 11526, Note_on_c, 0, 64, 0
2, 11539, Note_on_c, 0, 47, 47
2, 11561, Note_on_c, 0, 63, 56
2, 11581, Note_on_c, 0, 50, 0
2, 11691, Note_on_c, 0, 63, 0
2, 11793, Note_on_c, 0, 71, 69
2, 12009, Note_on_c, 0, 49, 61
2, 12116, Note_on_c, 0, 47, 0
2, 12275, Note_on_c, 0, 70, 74
2, 12354, Note_on_c, 0, 71, 0
2, 12526, Note_on_c, 0, 51, 52
2, 12547, Note_on_c, 0, 78, 66
2, 12563, Note_on_c, 0, 70, 0
2, 12585, Note_on_c, 0, 49, 0
2, 12824, Note_on_c, 0, 69, 53
2, 12870, Note_on_c, 0, 78, 0
2, 13043, Note_on_c, 0, 52, 43
2, 13132, Note_on_c, 0, 51, 0
2, 13186, Note_on_c, 0, 69, 0
2, 13202, Note_on_c, 0, 67, 55
2, 13321, Note_on_c, 0, 69, 69
2, 13366, Note_on_c, 0, 67, 0
2, 13402, Note_on_c, 0, 71, 72
2, 13446, Note_on_c, 0, 69, 0
2, 13525, Note_on_c, 0, 52, 0
2, 13531, Note_on_c, 0, 64, 61
2, 13555, Note_on_c, 0, 72, 67
2, 13593, Note_on_c, 0, 71, 0
2, 13811, Note_on_c, 0, 67, 64
2, 13899, Note_on_c, 0, 72, 0
2, 14052, Note_on_c, 0, 63, 60
2, 14061, Note_on_c, 0, 66, 57
2, 14146, Note_on_c, 0, 67, 0
2, 14191, Note_on_c, 0, 64, 0
2, 14315, Note_on_c, 0, 70, 70
2, 14355, Note_on_c, 0, 66, 0
2, 14564, Note_on_c, 0, 62, 54
2, 14569, Note_on_c, 0, 71, 60
2, 14629, Note_on_c, 0, 63, 0
2, 14673, Note_on_c, 0, 70, 0
2, 14805, Note_on_c, 0, 65, 51
2, 14932, Note_on_c, 0, 71, 0
2, 15061, Note_on_c, 0, 61, 45
2, 15065, Note_on_c, 0, 64, 49
2, 15142, Note_on_c, 0, 65, 0
2, 15200, Note_on_c, 0, 62, 0
2, 15320, Note_on_c, 0, 68, 54
2, 15349, Note_on_c, 0, 64, 0
2, 15573, Note_on_c, 0, 69, 51
2, 15577, Note_on_c, 0, 60, 41
2, 15610, Note_on_c, 0, 61, 0
2, 15654, Note_on_c, 0, 68, 0
2, 15874, Note_on_c, 0, 63, 40
2, 15984, Note_on_c, 0, 69, 0
2, 16102, Note_on_c, 0, 59, 43
2, 16214, Note_on_c, 0, 60, 0
2, 16375, Note_on_c, 0, 64, 42
2, 16472, Note_on_c, 0, 63, 0
2, 16599, Note_on_c, 0, 57, 49
2, 16738, Note_on_c, 0, 59, 0
2, 16866, Note_on_c, 0, 66, 50
2, 16871, Note_on_c, 0, 64, 0
2, 17102, Note_on_c, 0, 59, 49
2, 17110, Note_on_c, 0, 66, 0
2, 17184, Note_on_c, 0, 57, 0
2, 17230, Note_on_c, 0, 55, 53
2, 17252, Note_on_c, 0, 59, 0
2, 17331, Note_on_c, 0, 57, 63
2, 17341, Note_on_c, 0, 55, 0
2, 17414, Note_on_c, 0, 57, 0
2, 17415, Note_on_c, 0, 59, 69
2, 17578, Note_on_c, 0, 60, 43
2, 17587, Note_on_c, 0, 76, 60
2, 17589, Note_on_c, 0, 59, 0
2, 17841, Note_on_c, 0, 55, 52
2, 17901, Note_on_c, 0, 60, 0
2, 18061, Note_on_c, 0, 54, 53
2, 18080, Note_on_c, 0, 75, 70
2, 18105, Note_on_c, 0, 55, 0
2, 18209, Note_on_c, 0, 76, 0
2, 18321, Note_on_c, 0, 58, 64
2, 18385, Note_on_c, 0, 54, 0
2, 18553, Note_on_c, 0, 59, 59
2, 18565, Note_on_c, 0, 74, 67
2, 18677, Note_on_c, 0, 75, 0
2, 18776, Note_on_c, 0, 58, 0
2, 18812, Note_on_c, 0, 53, 55
2, 18907, Note_on_c, 0, 59, 0
2, 19059, Note_on_c, 0, 52, 43
2, 19063, Note_on_c, 0, 73, 62
2, 19107, Note_on_c, 0, 53, 0
2, 19194, Note_on_c, 0, 74, 0
2, 19318, Note_on_c, 0, 56, 45
2, 19348, Note_on_c, 0, 52, 0
2, 19543, Note_on_c, 0, 57, 40
2, 19564, Note_on_c, 0, 72, 55
2, 19629, Note_on_c, 0, 56, 0
2, 19636, Note_on_c, 0, 73, 0
2, 19817, Note_on_c, 0, 51, 33
2, 19934, Note_on_c, 0, 57, 0
2, 20079, Note_on_c, 0, 71, 49
2, 20229, Note_on_c, 0, 72, 0
2, 20347, Note_on_c, 0, 52, 42
2, 20425, Note_on_c, 0, 51, 0
2, 20572, Note_on_c, 0, 69, 50
2, 20769, Note_on_c, 0, 71, 0
2, 20833, Note_on_c, 0, 54, 48
2, 20851, Note_on_c, 0, 52, 0
2, 21114, Note_on_c, 0, 47, 42
2, 21203, Note_on_c, 0, 54, 0
2, 21268, Note_on_c, 0, 69, 0
2, 21386, Note_on_c, 0, 67, 39
2, 21471, Note_on_c, 0, 67, 0
2, 21497, Note_on_c, 0, 66, 56
2, 21587, Note_on_c, 0, 66, 0
2, 21596, Note_on_c, 0, 52, 38
2, 21610, Note_on_c, 0, 47, 0
2, 21639, Note_on_c, 0, 67, 42
2, 21732, Note_on_c, 0, 67, 0
2, 21896, Note_on_c, 0, 76, 53
2, 22110, Note_on_c, 0, 54, 49
2, 22211, Note_on_c, 0, 52, 0
2, 22369, Note_on_c, 0, 75, 69
2, 22496, Note_on_c, 0, 76, 0
2, 22623, Note_on_c, 0, 56, 46
2, 22636, Note_on_c, 0, 83, 71
2, 22660, Note_on_c, 0, 54, 0
2, 22670, Note_on_c, 0, 75, 0
2, 22915, Note_on_c, 0, 74, 57
2, 22950, Note_on_c, 0, 56, 0
2, 22961, Note_on_c, 0, 83, 0
2, 23154, Note_on_c, 0, 57, 58
2, 23203, Note_on_c, 0, 57, 0
2, 23398, Note_on_c, 0, 45, 55
2, 23408, Note_on_c, 0, 74, 0
2, 23413, Note_on_c, 0, 72, 56
2, 23471, Note_on_c, 0, 45, 0
2, 23514, Note_on_c, 0, 72, 0
2, 23532, Note_on_c, 0, 71, 53
2, 23628, Note_on_c, 0, 71, 0
2, 23659, Note_on_c, 0, 57, 48
2, 23678, Note_on_c, 0, 72, 52
2, 23938, Note_on_c, 0, 69, 59
2, 23953, Note_on_c, 0, 72, 0
2, 24186, Note_on_c, 0, 71, 61
2, 24425, Note_on_c, 0, 69, 0
2, 24449, Note_on_c, 0, 56, 49
2, 24524, Note_on_c, 0, 57, 0
2, 24676, Note_on_c, 0, 73, 55
2, 24696, Note_on_c, 0, 64, 53
2, 24714, Note_on_c, 0, 56, 0
2, 24790, Note_on_c, 0, 71, 0
2, 24925, Note_on_c, 0, 64, 0
2, 24930, Note_on_c, 0, 55, 50
2, 25186, Note_on_c, 0, 74, 60
2, 25222, Note_on_c, 0, 73, 0
2, 25260, Note_on_c, 0, 74, 0
2, 25421, Note_on_c, 0, 54, 59
2, 25432, Note_on_c, 0, 62, 64
2, 25473, Note_on_c, 0, 62, 0
2, 25478, Note_on_c, 0, 55, 0
2, 25517, Note_on_c, 0, 54, 0
2, 25557, Note_on_c, 0, 52, 42
2, 25677, Note_on_c, 0, 74, 51
2, 25686, Note_on_c, 0, 52, 0
2, 25697, Note_on_c, 0, 54, 52
2, 25920, Note_on_c, 0, 50, 47
2, 25944, Note_on_c, 0, 54, 0
2, 26186, Note_on_c, 0, 52, 47
2, 26272, Note_on_c, 0, 50, 0
2, 26439, Note_on_c, 0, 73, 57
2, 26563, Note_on_c, 0, 74, 0
2, 26680, Note_on_c, 0, 54, 47
2, 26705, Note_on_c, 0, 81, 66
2, 26725, Note_on_c, 0, 73, 0
2, 26739, Note_on_c, 0, 52, 0
2, 26982, Note_on_c, 0, 72, 55
2, 27015, Note_on_c, 0, 54, 0
2, 27039, Note_on_c, 0, 81, 0
2, 27203, Note_on_c, 0, 55, 62
2, 27256, Note_on_c, 0, 55, 0
2, 27444, Note_on_c, 0, 43, 61
2, 27463, Note_on_c, 0, 71, 59
2, 27475, Note_on_c, 0, 72, 0
2, 27508, Note_on_c, 0, 43, 0
2, 27572, Note_on_c, 0, 71, 0
2, 27575, Note_on_c, 0, 69, 58
2, 27685, Note_on_c, 0, 69, 0
2, 27687, Note_on_c, 0, 55, 55
2, 27721, Note_on_c, 0, 71, 52
2, 27970, Note_on_c, 0, 67, 59
2, 27981, Note_on_c, 0, 71, 0
2, 28207, Note_on_c, 0, 69, 66
2, 28315, Note_on_c, 0, 67, 0
2, 28456, Note_on_c, 0, 54, 51
2, 28527, Note_on_c, 0, 55, 0
2, 28697, Note_on_c, 0, 71, 69
2, 28702, Note_on_c, 0, 62, 49
2, 28741, Note_on_c, 0, 54, 0
2, 28868, Note_on_c, 0, 69, 0
2, 28935, Note_on_c, 0, 53, 61
2, 28966, Note_on_c, 0, 62, 0
2, 29194, Note_on_c, 0, 72, 60
2, 29267, Note_on_c, 0, 71, 0
2, 29309, Note_on_c, 0, 53, 0
2, 29324, Note_on_c, 0, 52, 60
2, 29435, Note_on_c, 0, 53, 73
2, 29444, Note_on_c, 0, 52, 0
2, 29540, Note_on_c, 0, 55, 69
2, 29541, Note_on_c, 0, 53, 0
2, 29691, Note_on_c, 0, 57, 53
2, 29716, Note_on_c, 0, 84, 78
2, 29731, Note_on_c, 0, 55, 0
2, 29848, Note_on_c, 0, 72, 0
2, 29970, Note_on_c, 0, 52, 64
2, 30020, Note_on_c, 0, 57, 0
2, 30211, Note_on_c, 0, 83, 80
2, 30216, Note_on_c, 0, 51, 54
2, 30285, Note_on_c, 0, 52, 0
2, 30458, Note_on_c, 0, 54, 65
2, 30465, Note_on_c, 0, 84, 0
2, 30511, Note_on_c, 0, 51, 0
2, 30698, Note_on_c, 0, 55, 59
2, 30714, Note_on_c, 0, 82, 77
2, 30835, Note_on_c, 0, 83, 0
2, 30836, Note_on_c, 0, 54, 0
2, 30949, Note_on_c, 0, 50, 64
2, 31005, Note_on_c, 0, 55, 0
2, 31200, Note_on_c, 0, 49, 49
2, 31201, Note_on_c, 0, 81, 74
2, 31262, Note_on_c, 0, 50, 0
2, 31348, Note_on_c, 0, 82, 0
2, 31456, Note_on_c, 0, 52, 60
2, 31473, Note_on_c, 0, 49, 0
2, 31708, Note_on_c, 0, 80, 70
2, 31714, Note_on_c, 0, 53, 46
2, 31736, Note_on_c, 0, 52, 0
2, 31828, Note_on_c, 0, 81, 0
2, 31950, Note_on_c, 0, 48, 50
2, 32020, Note_on_c, 0, 53, 0
2, 32211, Note_on_c, 0, 79, 63
2, 32422, Note_on_c, 0, 80, 0
2, 32476, Note_on_c, 0, 47, 45
2, 32495, Note_on_c, 0, 48, 0
2, 32706, Note_on_c, 0, 77, 49
2, 32861, Note_on_c, 0, 79, 0
2, 32950, Note_on_c, 0, 47, 0
2, 32969, Note_on_c, 0, 48, 51
2, 33042, Note_on_c, 0, 48, 0
2, 33070, Note_on_c, 0, 50, 48
2, 33188, Note_on_c, 0, 43, 43
2, 33188, Note_on_c, 0, 50, 0
2, 33239, Note_on_c, 0, 77, 0
2, 33337, Note_on_c, 0, 71, 49
2, 33438, Note_on_c, 0, 72, 64
2, 33444, Note_on_c, 0, 71, 0
2, 33538, Note_on_c, 0, 74, 65
2, 33554, Note_on_c, 0, 72, 0
2, 33684, Note_on_c, 0, 55, 57
2, 33685, Note_on_c, 0, 76, 48
2, 33692, Note_on_c, 0, 74, 0
2, 33754, Note_on_c, 0, 43, 0
2, 33961, Note_on_c, 0, 71, 63
2, 34075, Note_on_c, 0, 76, 0
2, 34199, Note_on_c, 0, 54, 57
2, 34204, Note_on_c, 0, 70, 60
2, 34313, Note_on_c, 0, 71, 0
2, 34332, Note_on_c, 0, 55, 0
2, 34466, Note_on_c, 0, 73, 66
2, 34497, Note_on_c, 0, 70, 0
2, 34703, Note_on_c, 0, 53, 58
2, 34715, Note_on_c, 0, 74, 57
2, 34800, Note_on_c, 0, 54, 0
2, 34846, Note_on_c, 0, 73, 0
2, 34966, Note_on_c, 0, 69, 60
2, 35105, Note_on_c, 0, 74, 0
2, 35210, Note_on_c, 0, 52, 50
2, 35222, Note_on_c, 0, 68, 54
2, 35334, Note_on_c, 0, 69, 0
2, 35335, Note_on_c, 0, 53, 0
2, 35477, Note_on_c, 0, 71, 58
2, 35518, Note_on_c, 0, 68, 0
2, 35697, Note_on_c, 0, 51, 41
2, 35719, Note_on_c, 0, 72, 55
2, 35777, Note_on_c, 0, 52, 0
2, 35799, Note_on_c, 0, 71, 0
2, 35992, Note_on_c, 0, 67, 44
2, 36202, Note_on_c, 0, 72, 0
2, 36221, Note_on_c, 0, 50, 37
2, 36259, Note_on_c, 0, 51, 0
2, 36467, Note_on_c, 0, 66, 46
2, 36550, Note_on_c, 0, 67, 0
2, 36721, Note_on_c, 0, 48, 34
2, 36840, Note_on_c, 0, 50, 0
2, 36972, Note_on_c, 0, 66, 0
2, 36990, Note_on_c, 0, 67, 50
2, 37076, Note_on_c, 0, 67, 0
2, 37096, Note_on_c, 0, 69, 52
2, 37201, Note_on_c, 0, 69, 0
2, 37254, Note_on_c, 0, 62, 36
2, 37471, Note_on_c, 0, 48, 0
2, 37486, Note_on_c, 0, 47, 47
2, 37560, Note_on_c, 0, 47, 0
2, 37622, Note_on_c, 0, 45, 30
2, 37683, Note_on_c, 0, 45, 0
2, 37713, Note_on_c, 0, 47, 45
2, 37747, Note_on_c, 0, 67, 46
2, 37771, Note_on_c, 0, 47, 0
2, 37775, Note_on_c, 0, 62, 0
2, 38004, Note_on_c, 0, 55, 48
2, 38254, Note_on_c, 0, 69, 56
2, 38491, Note_on_c, 0, 54, 54
2, 38491, Note_on_c, 0, 55, 0
2, 38747, Note_on_c, 0, 62, 44
2, 38753, Note_on_c, 0, 71, 62
2, 38754, Note_on_c, 0, 54, 0
2, 38829, Note_on_c, 0, 67, 0
2, 38991, Note_on_c, 0, 69, 0
2, 39009, Note_on_c, 0, 53, 52
2, 39018, Note_on_c, 0, 62, 0
2, 39262, Note_on_c, 0, 72, 58
2, 39290, Note_on_c, 0, 71, 0
2, 39505, Note_on_c, 0, 52, 50
2, 39538, Note_on_c, 0, 53, 0
2, 39604, Note_on_c, 0, 72, 0
2, 39614, Note_on_c, 0, 50, 50
2, 39623, Note_on_c, 0, 52, 0
2, 39736, Note_on_c, 0, 69, 57
2, 39750, Note_on_c, 0, 49, 49
2, 39756, Note_on_c, 0, 50, 0
2, 39911, Note_on_c, 0, 49, 0
2, 39994, Note_on_c, 0, 57, 59
2, 40230, Note_on_c, 0, 71, 68
2, 40462, Note_on_c, 0, 56, 60
2, 40486, Note_on_c, 0, 57, 0
2, 40579, Note_on_c, 0, 69, 0
2, 40718, Note_on_c, 0, 64, 53
2, 40723, Note_on_c, 0, 73, 70
2, 40742, Note_on_c, 0, 56, 0
2, 40830, Note_on_c, 0, 71, 0
2, 40958, Note_on_c, 0, 55, 64
2, 40975, Note_on_c, 0, 64, 0
2, 41243, Note_on_c, 0, 74, 63
2, 41352, Note_on_c, 0, 73, 0
2, 41355, Note_on_c, 0, 55, 0
2, 41357, Note_on_c, 0, 54, 60
2, 41468, Note_on_c, 0, 74, 0
2, 41470, Note_on_c, 0, 55, 67
2, 41493, Note_on_c, 0, 54, 0
2, 41565, Note_on_c, 0, 57, 73
2, 41576, Note_on_c, 0, 55, 0
2, 41747, Note_on_c, 0, 58, 56
2, 41757, Note_on_c, 0, 62, 47
2, 41798, Note_on_c, 0, 57, 0
2, 42062, Note_on_c, 0, 53, 58
2, 42112, Note_on_c, 0, 58, 0
2, 42318, Note_on_c, 0, 52, 49
2, 42323, Note_on_c, 0, 61, 56
2, 42383, Note_on_c, 0, 53, 0
2, 42450, Note_on_c, 0, 62, 0
2, 42616, Note_on_c, 0, 56, 65
2, 42691, Note_on_c, 0, 52, 0
2, 42851, Note_on_c, 0, 57, 62
2, 42859, Note_on_c, 0, 60, 53
2, 42930, Note_on_c, 0, 56, 0
2, 42971, Note_on_c, 0, 61, 0
2, 43099, Note_on_c, 0, 51, 53
2, 43185, Note_on_c, 0, 57, 0
2, 43336, Note_on_c, 0, 50, 48
2, 43337, Note_on_c, 0, 59, 55
2, 43366, Note_on_c, 0, 51, 0
2, 43455, Note_on_c, 0, 60, 0
2, 43588, Note_on_c, 0, 54, 49
2, 43671, Note_on_c, 0, 50, 0
2, 43828, Note_on_c, 0, 58, 52
2, 43849, Note_on_c, 0, 55, 50
2, 43901, Note_on_c, 0, 54, 0
2, 43952, Note_on_c, 0, 59, 0
2, 44093, Note_on_c, 0, 49, 48
2, 44179, Note_on_c, 0, 55, 0
2, 44353, Note_on_c, 0, 57, 51
2, 44532, Note_on_c, 0, 58, 0
2, 44600, Note_on_c, 0, 50, 43
2, 44671, Note_on_c, 0, 49, 0
2, 44850, Note_on_c, 0, 55, 44
2, 45015, Note_on_c, 0, 57, 0
2, 45114, Note_on_c, 0, 50, 0
2, 45115, Note_on_c, 0, 52, 37
2, 45375, Note_on_c, 0, 45, 34
2, 45494, Note_on_c, 0, 52, 0
2, 45559, Note_on_c, 0, 55, 0
2, 45643, Note_on_c, 0, 53, 45
2, 45731, Note_on_c, 0, 53, 0
2, 45763, Note_on_c, 0, 52, 45
2, 45835, Note_on_c, 0, 52, 0
2, 45879, Note_on_c, 0, 50, 41
2, 45893, Note_on_c, 0, 53, 44
2, 45981, Note_on_c, 0, 53, 0
2, 46005, Note_on_c, 0, 45, 0
2, 46186, Note_on_c, 0, 62, 47
2, 46429, Note_on_c, 0, 52, 44
2, 46695, Note_on_c, 0, 61, 55
2, 46753, Note_on_c, 0, 62, 0
2, 46766, Note_on_c, 0, 50, 0
2, 46941, Note_on_c, 0, 54, 55
2, 46946, Note_on_c, 0, 69, 58
2, 46966, Note_on_c, 0, 61, 0
2, 47045, Note_on_c, 0, 52, 0
2, 47217, Note_on_c, 0, 69, 0
2, 47235, Note_on_c, 0, 60, 48
2, 47486, Note_on_c, 0, 55, 45
2, 47495, Note_on_c, 0, 54, 0
2, 47700, Note_on_c, 0, 60, 0
2, 47740, Note_on_c, 0, 59, 48
2, 47745, Note_on_c, 0, 55, 0
2, 47851, Note_on_c, 0, 59, 0
2, 47867, Note_on_c, 0, 57, 57
2, 47983, Note_on_c, 0, 57, 0
2, 47987, Note_on_c, 0, 52, 42
2, 48197, Note_on_c, 0, 64, 56
2, 48458, Note_on_c, 0, 54, 54
2, 48614, Note_on_c, 0, 52, 0
2, 48734, Note_on_c, 0, 63, 63
2, 48815, Note_on_c, 0, 64, 0
2, 48972, Note_on_c, 0, 56, 58
2, 48990, Note_on_c, 0, 71, 68
2, 49034, Note_on_c, 0, 63, 0
2, 49047, Note_on_c, 0, 54, 0
2, 49270, Note_on_c, 0, 62, 53
2, 49325, Note_on_c, 0, 71, 0
2, 49478, Note_on_c, 0, 56, 0
2, 49498, Note_on_c, 0, 57, 48
2, 49606, Note_on_c, 0, 57, 0
2, 49620, Note_on_c, 0, 62, 0
2, 49658, Note_on_c, 0, 60, 56
2, 49747, Note_on_c, 0, 45, 52
2, 49768, Note_on_c, 0, 62, 63
2, 49817, Note_on_c, 0, 60, 0
2, 49818, Note_on_c, 0, 45, 0
2, 49855, Note_on_c, 0, 64, 68
2, 49890, Note_on_c, 0, 62, 0
2, 50010, Note_on_c, 0, 65, 58
2, 50011, Note_on_c, 0, 57, 57
2, 50050, Note_on_c, 0, 64, 0
2, 50307, Note_on_c, 0, 60, 59
2, 50398, Note_on_c, 0, 65, 0
2, 50552, Note_on_c, 0, 59, 54
2, 50555, Note_on_c, 0, 56, 52
2, 50674, Note_on_c, 0, 60, 0
2, 50681, Note_on_c, 0, 57, 0
2, 50846, Note_on_c, 0, 63, 58
2, 50929, Note_on_c, 0, 59, 0
2, 51086, Note_on_c, 0, 55, 52
2, 51096, Note_on_c, 0, 64, 49
2, 51136, Note_on_c, 0, 56, 0
2, 51217, Note_on_c, 0, 63, 0
2, 51360, Note_on_c, 0, 58, 55
2, 51427, Note_on_c, 0, 64, 0
2, 51586, Note_on_c, 0, 54, 44
2, 51610, Note_on_c, 0, 57, 46
2, 51684, Note_on_c, 0, 58, 0
2, 51694, Note_on_c, 0, 55, 0
2, 51866, Note_on_c, 0, 61, 54
2, 51933, Note_on_c, 0, 57, 0
2, 52104, Note_on_c, 0, 53, 46
2, 52124, Note_on_c, 0, 62, 49
2, 52172, Note_on_c, 0, 54, 0
2, 52208, Note_on_c, 0, 61, 0
2, 52414, Note_on_c, 0, 56, 45
2, 52515, Note_on_c, 0, 62, 0
2, 52645, Note_on_c, 0, 52, 41
2, 52668, Note_on_c, 0, 53, 0
2, 52915, Note_on_c, 0, 57, 43
2, 52996, Note_on_c, 0, 56, 0
2, 53045, Note_on_c, 0, 52, 0
2, 53158, Note_on_c, 0, 50, 40
2, 53414, Note_on_c, 0, 57, 0
2, 53419, Note_on_c, 0, 59, 50
2, 53691, Note_on_c, 0, 52, 44
2, 53719, Note_on_c, 0, 59, 0
2, 53899, Note_on_c, 0, 52, 0
2, 53949, Note_on_c, 0, 50, 0
2, 53953, Note_on_c, 0, 48, 48
2, 54022, Note_on_c, 0, 48, 0
2, 54046, Note_on_c, 0, 47, 52
2, 54152, Note_on_c, 0, 47, 0
2, 54174, Note_on_c, 0, 48, 43
2, 54215, Note_on_c, 0, 64, 49
2, 54274, Note_on_c, 0, 48, 0
2, 54443, Note_on_c, 0, 52, 42
2, 54691, Note_on_c, 0, 66, 56
2, 54942, Note_on_c, 0, 52, 0
2, 54950, Note_on_c, 0, 51, 49
2, 55120, Note_on_c, 0, 64, 0
2, 55200, Note_on_c, 0, 51, 0
2, 55207, Note_on_c, 0, 59, 47
2, 55207, Note_on_c, 0, 68, 57
2, 55295, Note_on_c, 0, 66, 0
2, 55439, Note_on_c, 0, 59, 0
2, 55450, Note_on_c, 0, 50, 47
2, 55544, Note_on_c, 0, 68, 0
2, 55723, Note_on_c, 0, 69, 60
2, 55775, Note_on_c, 0, 69, 0
2, 55978, Note_on_c, 0, 49, 53
2, 56000, Note_on_c, 0, 57, 59
2, 56025, Note_on_c, 0, 50, 0
2, 56061, Note_on_c, 0, 57, 0
2, 56071, Note_on_c, 0, 49, 0
2, 56106, Note_on_c, 0, 47, 46
2, 56227, Note_on_c, 0, 47, 0
2, 56227, Note_on_c, 0, 49, 53
2, 56249, Note_on_c, 0, 69, 62
2, 56495, Note_on_c, 0, 45, 53
2, 56505, Note_on_c, 0, 49, 0
2, 56746, Note_on_c, 0, 47, 53
2, 56801, Note_on_c, 0, 45, 0
2, 56994, Note_on_c, 0, 68, 61
2, 57098, Note_on_c, 0, 69, 0
2, 57255, Note_on_c, 0, 49, 46
2, 57270, Note_on_c, 0, 76, 62
2, 57286, Note_on_c, 0, 68, 0
2, 57314, Note_on_c, 0, 47, 0
2, 57547, Note_on_c, 0, 76, 0
2, 57550, Note_on_c, 0, 67, 46
2, 57603, Note_on_c, 0, 49, 0
2, 57772, Note_on_c, 0, 50, 49
2, 57847, Note_on_c, 0, 50, 0
2, 58032, Note_on_c, 0, 38, 58
2, 58032, Note_on_c, 0, 67, 0
2, 58049, Note_on_c, 0, 66, 52
2, 58090, Note_on_c, 0, 38, 0
2, 58147, Note_on_c, 0, 66, 0
2, 58173, Note_on_c, 0, 64, 45
2, 58264, Note_on_c, 0, 64, 0
2, 58267, Note_on_c, 0, 50, 43
2, 58305, Note_on_c, 0, 66, 53
2, 58553, Note_on_c, 0, 66, 0
2, 58558, Note_on_c, 0, 62, 58
2, 58794, Note_on_c, 0, 64, 63
2, 59048, Note_on_c, 0, 62, 0
2, 59053, Note_on_c, 0, 49, 56
2, 59094, Note_on_c, 0, 50, 0
2, 59286, Note_on_c, 0, 66, 54
2, 59299, Note_on_c, 0, 57, 48
2, 59309, Note_on_c, 0, 49, 0
2, 59358, Note_on_c, 0, 64, 0
2, 59541, Note_on_c, 0, 48, 48
2, 59555, Note_on_c, 0, 57, 0
2, 59773, Note_on_c, 0, 67, 52
2, 59794, Note_on_c, 0, 66, 0
2, 59858, Note_on_c, 0, 67, 0
2, 60027, Note_on_c, 0, 48, 0
2, 60031, Note_on_c, 0, 55, 56
2, 60032, Note_on_c, 0, 47, 56
2, 60077, Note_on_c, 0, 55, 0
2, 60105, Note_on_c, 0, 47, 0
2, 60142, Note_on_c, 0, 45, 49
2, 60245, Note_on_c, 0, 45, 0
2, 60263, Note_on_c, 0, 47, 53
2, 60274, Note_on_c, 0, 67, 57
2, 60504, Note_on_c, 0, 43, 55
2, 60507, Note_on_c, 0, 47, 0
2, 60760, Note_on_c, 0, 45, 50
2, 60850, Note_on_c, 0, 43, 0
2, 60999, Note_on_c, 0, 66, 51
2, 61098, Note_on_c, 0, 67, 0
2, 61273, Note_on_c, 0, 66, 0
2, 61274, Note_on_c, 0, 74, 57
2, 61277, Note_on_c, 0, 47, 45
2, 61322, Note_on_c, 0, 45, 0
2, 61570, Note_on_c, 0, 65, 46
2, 61689, Note_on_c, 0, 74, 0
2, 61767, Note_on_c, 0, 48, 55
2, 61837, Note_on_c, 0, 47, 0
2, 62020, Note_on_c, 0, 65, 0
2, 62033, Note_on_c, 0, 64, 59
2, 62141, Note_on_c, 0, 64, 0
2, 62150, Note_on_c, 0, 62, 64
2, 62239, Note_on_c, 0, 62, 0
2, 62271, Note_on_c, 0, 64, 61
2, 62365, Note_on_c, 0, 64, 0
2, 62515, Note_on_c, 0, 47, 50
2, 62527, Note_on_c, 0, 48, 0
2, 62542, Note_on_c, 0, 76, 74
2, 62631, Note_on_c, 0, 47, 0
2, 62661, Note_on_c, 0, 45, 55
2, 62762, Note_on_c, 0, 45, 0
2, 62801, Note_on_c, 0, 52, 58
2, 62890, Note_on_c, 0, 52, 0
2, 62912, Note_on_c, 0, 53, 65
2, 63004, Note_on_c, 0, 53, 0
2, 63019, Note_on_c, 0, 55, 61
2, 63059, Note_on_c, 0, 76, 0
2, 63064, Note_on_c, 0, 77, 67
2, 63108, Note_on_c, 0, 55, 0
2, 63136, Note_on_c, 0, 53, 53
2, 63188, Note_on_c, 0, 76, 80
2, 63194, Note_on_c, 0, 53, 0
2, 63214, Note_on_c, 0, 55, 61
2, 63233, Note_on_c, 0, 77, 0
2, 63280, Note_on_c, 0, 55, 0
2, 63306, Note_on_c, 0, 53, 63
2, 63306, Note_on_c, 0, 74, 77
2, 63344, Note_on_c, 0, 76, 0
2, 63362, Note_on_c, 0, 53, 0
2, 63403, Note_on_c, 0, 55, 62
2, 63412, Note_on_c, 0, 72, 78
2, 63437, Note_on_c, 0, 74, 0
2, 63445, Note_on_c, 0, 55, 0
2, 63480, Note_on_c, 0, 53, 61
2, 63498, Note_on_c, 0, 72, 0
2, 63519, Note_on_c, 0, 71, 74
2, 63527, Note_on_c, 0, 53, 0
2, 63541, Note_on_c, 0, 55, 62
2, 63591, Note_on_c, 0, 71, 0
2, 63636, Note_on_c, 0, 69, 57
2, 63646, Note_on_c, 0, 53, 55
2, 63662, Note_on_c, 0, 55, 0
2, 63692, Note_on_c, 0, 69, 0
2, 63692, Note_on_c, 0, 69, 29
2, 63781, Note_on_c, 0, 68, 73
2, 63797, Note_on_c, 0, 52, 40
2, 63823, Note_on_c, 0, 69, 0
2, 63827, Note_on_c, 0, 53, 0
2, 63937, Note_on_c, 0, 64, 69
2, 64049, Note_on_c, 0, 64, 0
2, 64063, Note_on_c, 0, 62, 56
2, 64200, Note_on_c, 0, 60, 61
2, 64202, Note_on_c, 0, 62, 0
2, 64263, Note_on_c, 0, 60, 0
2, 64312, Note_on_c, 0, 59, 52
2, 64397, Note_on_c, 0, 59, 0
2, 64438, Note_on_c, 0, 57, 54
2, 64487, Note_on_c, 0, 52, 0
2, 64541, Note_on_c, 0, 57, 0
2, 64548, Note_on_c, 0, 56, 55
2, 64654, Note_on_c, 0, 56, 0
2, 64678, Note_on_c, 0, 54, 49
2, 64840, Note_on_c, 0, 54, 0
2, 64889, Note_on_c, 0, 52, 40
2, 65301, Note_on_c, 0, 52, 0
2, 65579, Note_on_c, 0, 40, 35
2, 65843, Note_on_c, 0, 68, 0
2, 66148, Note_on_c, 0, 40, 0
2, 66583, Note_on_c, 0, 76, 44
2, 66717, Note_on_c, 0, 60, 40
2, 66802, Note_on_c, 0, 60, 0
2, 66839, Note_on_c, 0, 59, 46
2, 66916, Note_on_c, 0, 59, 0
2, 66947, Note_on_c, 0, 76, 0
2, 66954, Note_on_c, 0, 57, 46
2, 67084, Note_on_c, 0, 57, 0
2, 67100, Note_on_c, 0, 56, 41
2, 67114, Note_on_c, 0, 64, 45
2, 67413, Note_on_c, 0, 61, 39
2, 67454, Note_on_c, 0, 56, 0
2, 67656, Note_on_c, 0, 61, 0
2, 67659, Note_on_c, 0, 62, 38
2, 67659, Note_on_c, 0, 65, 40
2, 67923, Note_on_c, 0, 58, 40
2, 67974, Note_on_c, 0, 62, 0
2, 67992, Note_on_c, 0, 64, 0
2, 68159, Note_on_c, 0, 66, 46
2, 68176, Note_on_c, 0, 57, 36
2, 68193, Note_on_c, 0, 58, 0
2, 68283, Note_on_c, 0, 65, 0
2, 68448, Note_on_c, 0, 63, 45
2, 68557, Note_on_c, 0, 57, 0
2, 68672, Note_on_c, 0, 64, 38
2, 68686, Note_on_c, 0, 67, 49
2, 68765, Note_on_c, 0, 66, 0
2, 68926, Note_on_c, 0, 60, 46
2, 69041, Note_on_c, 0, 64, 0
2, 69083, Note_on_c, 0, 63, 0
2, 69151, Note_on_c, 0, 60, 0
2, 69157, Note_on_c, 0, 59, 37
2, 69167, Note_on_c, 0, 68, 56
2, 69388, Note_on_c, 0, 67, 0
2, 69421, Note_on_c, 0, 65, 43
2, 69485, Note_on_c, 0, 59, 0
2, 69651, Note_on_c, 0, 69, 56
2, 69765, Note_on_c, 0, 68, 0
2, 69892, Note_on_c, 0, 64, 50
2, 70022, Note_on_c, 0, 65, 0
2, 70141, Note_on_c, 0, 69, 0
2, 70149, Note_on_c, 0, 71, 59
2, 70401, Note_on_c, 0, 62, 47
2, 70458, Note_on_c, 0, 64, 0
2, 70656, Note_on_c, 0, 72, 45
2, 70662, Note_on_c, 0, 69, 45
2, 70662, Note_on_c, 0, 71, 0
2, 70725, Note_on_c, 0, 62, 0
2, 70762, Note_on_c, 0, 72, 0
2, 70778, Note_on_c, 0, 77, 54
2, 70877, Note_on_c, 0, 76, 55
2, 70906, Note_on_c, 0, 77, 0
2, 70993, Note_on_c, 0, 74, 52
2, 71016, Note_on_c, 0, 76, 0
2, 71136, Note_on_c, 0, 57, 35
2, 71136, Note_on_c, 0, 73, 44
2, 71137, Note_on_c, 0, 74, 0
2, 71211, Note_on_c, 0, 69, 0
2, 71431, Note_on_c, 0, 78, 54
2, 71451, Note_on_c, 0, 73, 0
2, 71665, Note_on_c, 0, 79, 58
2, 71677, Note_on_c, 0, 58, 37
2, 71743, Note_on_c, 0, 57, 0
2, 71801, Note_on_c, 0, 78, 0
2, 71933, Note_on_c, 0, 75, 54
2, 72005, Note_on_c, 0, 79, 0
2, 72167, Note_on_c, 0, 59, 52
2, 72171, Note_on_c, 0, 74, 41
2, 72212, Note_on_c, 0, 75, 0
2, 72273, Note_on_c, 0, 58, 0
2, 72426, Note_on_c, 0, 80, 63
2, 72496, Note_on_c, 0, 74, 0
2, 72684, Note_on_c, 0, 81, 63
2, 72692, Note_on_c, 0, 60, 47
2, 72752, Note_on_c, 0, 59, 0
2, 72946, Note_on_c, 0, 77, 59
2, 73044, Note_on_c, 0, 80, 0
2, 73059, Note_on_c, 0, 81, 0
2, 73185, Note_on_c, 0, 76, 57
2, 73191, Note_on_c, 0, 61, 51
2, 73242, Note_on_c, 0, 77, 0
2, 73247, Note_on_c, 0, 60, 0
2, 73456, Note_on_c, 0, 82, 75
2, 73522, Note_on_c, 0, 76, 0
2, 73688, Note_on_c, 0, 62, 59
2, 73801, Note_on_c, 0, 61, 0
2, 73944, Note_on_c, 0, 81, 75
2, 74087, Note_on_c, 0, 82, 0
2, 74189, Note_on_c, 0, 64, 62
2, 74266, Note_on_c, 0, 62, 0
2, 74462, Note_on_c, 0, 80, 68
2, 74510, Note_on_c, 0, 81, 0
2, 74724, Note_on_c, 0, 80, 0
2, 74725, Note_on_c, 0, 65, 35
2, 74745, Note_on_c, 0, 64, 0
2, 74747, Note_on_c, 0, 81, 58
2, 74873, Note_on_c, 0, 79, 64
2, 74893, Note_on_c, 0, 81, 0
2, 74964, Note_on_c, 0, 77, 70
2, 74975, Note_on_c, 0, 79, 0
2, 75048, Note_on_c, 0, 77, 0
2, 75069, Note_on_c, 0, 76, 64
2, 75209, Note_on_c, 0, 62, 38
2, 75214, Note_on_c, 0, 76, 0
2, 75214, Note_on_c, 0, 77, 56
2, 75301, Note_on_c, 0, 65, 0
2, 75482, Note_on_c, 0, 70, 54
2, 75595, Note_on_c, 0, 77, 0
2, 75693, Note_on_c, 0, 60, 41
2, 75701, Note_on_c, 0, 69, 52
2, 75710, Note_on_c, 0, 70, 0
2, 75822, Note_on_c, 0, 62, 0
2, 75944, Note_on_c, 0, 76, 59
2, 75998, Note_on_c, 0, 69, 0
2, 76179, Note_on_c, 0, 74, 51
2, 76185, Note_on_c, 0, 59, 47
2, 76240, Note_on_c, 0, 60, 0
2, 76247, Note_on_c, 0, 76, 0
2, 76368, Note_on_c, 0, 74, 0
2, 76493, Note_on_c, 0, 68, 54
2, 76718, Note_on_c, 0, 57, 37
2, 76724, Note_on_c, 0, 59, 0
2, 76871, Note_on_c, 0, 68, 0
2, 76876, Note_on_c, 0, 74, 53
2, 76962, Note_on_c, 0, 72, 62
2, 76992, Note_on_c, 0, 74, 0
2, 77067, Note_on_c, 0, 71, 67
2, 77083, Note_on_c, 0, 72, 0
2, 77165, Note_on_c, 0, 71, 0
2, 77202, Note_on_c, 0, 60, 43
2, 77202, Note_on_c, 0, 69, 49
2, 77245, Note_on_c, 0, 57, 0
2, 77441, Note_on_c, 0, 76, 62
2, 77469, Note_on_c, 0, 69, 0
2, 77671, Note_on_c, 0, 59, 36
2, 77682, Note_on_c, 0, 74, 54
2, 77736, Note_on_c, 0, 76, 0
2, 77757, Note_on_c, 0, 60, 0
2, 77942, Note_on_c, 0, 67, 42
2, 78007, Note_on_c, 0, 74, 0
2, 78154, Note_on_c, 0, 57, 41
2, 78200, Note_on_c, 0, 66, 47
2, 78221, Note_on_c, 0, 59, 0
2, 78296, Note_on_c, 0, 67, 0
2, 78426, Note_on_c, 0, 72, 56
2, 78452, Note_on_c, 0, 66, 0
2, 78619, Note_on_c, 0, 57, 0
2, 78626, Note_on_c, 0, 72, 0
2, 78647, Note_on_c, 0, 55, 46
2, 78672, Note_on_c, 0, 71, 52
2, 78804, Note_on_c, 0, 59, 54
2, 78841, Note_on_c, 0, 55, 0
2, 78874, Note_on_c, 0, 60, 61
2, 78918, Note_on_c, 0, 59, 0
2, 78995, Note_on_c, 0, 62, 67
2, 79015, Note_on_c, 0, 60, 0
2, 79130, Note_on_c, 0, 64, 51
2, 79156, Note_on_c, 0, 62, 0
2, 79158, Note_on_c, 0, 79, 67
2, 79341, Note_on_c, 0, 71, 0
2, 79394, Note_on_c, 0, 58, 54
2, 79451, Note_on_c, 0, 64, 0
2, 79625, Note_on_c, 0, 57, 35
2, 79637, Note_on_c, 0, 77, 59
2, 79685, Note_on_c, 0, 58, 0
2, 79881, Note_on_c, 0, 62, 41
2, 79895, Note_on_c, 0, 57, 0
2, 80002, Note_on_c, 0, 79, 0
2, 80117, Note_on_c, 0, 61, 40
2, 80118, Note_on_c, 0, 76, 61
2, 80174, Note_on_c, 0, 62, 0
2, 80376, Note_on_c, 0, 55, 45
2, 80391, Note_on_c, 0, 61, 0
2, 80461, Note_on_c, 0, 77, 0
2, 80557, Note_on_c, 0, 55, 0
2, 80622, Note_on_c, 0, 74, 56
2, 80734, Note_on_c, 0, 76, 0
2, 80741, Note_on_c, 0, 67, 56
2, 80855, Note_on_c, 0, 65, 61
2, 80865, Note_on_c, 0, 67, 0
2, 80944, Note_on_c, 0, 64, 66
2, 80971, Note_on_c, 0, 65, 0
2, 81082, Note_on_c, 0, 62, 52
2, 81083, Note_on_c, 0, 77, 68
2, 81134, Note_on_c, 0, 74, 0
2, 81136, Note_on_c, 0, 64, 0
2, 81328, Note_on_c, 0, 68, 69
2, 81425, Note_on_c, 0, 62, 0
2, 81586, Note_on_c, 0, 69, 67
2, 81599, Note_on_c, 0, 76, 56
2, 81632, Note_on_c, 0, 68, 0
2, 81791, Note_on_c, 0, 77, 0
2, 81868, Note_on_c, 0, 60, 53
2, 81877, Note_on_c, 0, 69, 0
2, 82095, Note_on_c, 0, 60, 0
2, 82105, Note_on_c, 0, 59, 47
2, 82111, Note_on_c, 0, 74, 55
2, 82288, Note_on_c, 0, 76, 0
2, 82372, Note_on_c, 0, 65, 41
2, 82385, Note_on_c, 0, 59, 0
2, 82596, Note_on_c, 0, 65, 0
2, 82663, Note_on_c, 0, 64, 47
2, 82771, Note_on_c, 0, 64, 0
2, 82792, Note_on_c, 0, 62, 44
2, 82885, Note_on_c, 0, 62, 0
2, 82906, Note_on_c, 0, 60, 48
2, 82997, Note_on_c, 0, 74, 0
2, 83012, Note_on_c, 0, 60, 0
2, 83016, Note_on_c, 0, 59, 56
2, 83133, Note_on_c, 0, 59, 0
2, 83144, Note_on_c, 0, 72, 38
2, 83186, Note_on_c, 0, 57, 44
2, 83394, Note_on_c, 0, 72, 0
2, 83445, Note_on_c, 0, 71, 47
2, 83449, Note_on_c, 0, 56, 50
2, 83451, Note_on_c, 0, 57, 0
2, 83738, Note_on_c, 0, 72, 48
2, 83740, Note_on_c, 0, 57, 44
2, 83760, Note_on_c, 0, 56, 0
2, 83999, Note_on_c, 0, 53, 46
2, 84027, Note_on_c, 0, 57, 0
2, 84048, Note_on_c, 0, 71, 0
2, 84235, Note_on_c, 0, 73, 52
2, 84243, Note_on_c, 0, 52, 38
2, 84260, Note_on_c, 0, 53, 0
2, 84334, Note_on_c, 0, 72, 0
2, 84505, Note_on_c, 0, 58, 48
2, 84560, Note_on_c, 0, 52, 0
2, 84718, Note_on_c, 0, 74, 58
2, 84734, Note_on_c, 0, 59, 57
2, 84842, Note_on_c, 0, 73, 0
2, 84945, Note_on_c, 0, 55, 49
2, 84993, Note_on_c, 0, 58, 0
2, 85002, Note_on_c, 0, 59, 0
2, 85187, Note_on_c, 0, 54, 43
2, 85217, Note_on_c, 0, 75, 64
2, 85218, Note_on_c, 0, 55, 0
2, 85366, Note_on_c, 0, 74, 0
2, 85462, Note_on_c, 0, 60, 57
2, 85468, Note_on_c, 0, 54, 0
2, 85715, Note_on_c, 0, 76, 59
2, 85809, Note_on_c, 0, 75, 0
2, 85964, Note_on_c, 0, 59, 56
2, 86064, Note_on_c, 0, 60, 0
2, 86213, Note_on_c, 0, 78, 63
2, 86371, Note_on_c, 0, 76, 0
2, 86446, Note_on_c, 0, 57, 47
2, 86457, Note_on_c, 0, 59, 0
2, 86686, Note_on_c, 0, 78, 0
2, 86699, Note_on_c, 0, 79, 48
2, 86706, Note_on_c, 0, 64, 40
2, 86735, Note_on_c, 0, 57, 0
2, 86834, Note_on_c, 0, 77, 60
2, 86862, Note_on_c, 0, 79, 0
2, 86935, Note_on_c, 0, 76, 66
2, 86952, Note_on_c, 0, 77, 0
2, 87032, Note_on_c, 0, 76, 0
2, 87055, Note_on_c, 0, 74, 49
2, 87193, Note_on_c, 0, 52, 37
2, 87195, Note_on_c, 0, 74, 0
2, 87202, Note_on_c, 0, 73, 53
2, 87239, Note_on_c, 0, 64, 0
2, 87451, Note_on_c, 0, 80, 68
2, 87497, Note_on_c, 0, 73, 0
2, 87704, Note_on_c, 0, 81, 64
2, 87713, Note_on_c, 0, 53, 47
2, 87855, Note_on_c, 0, 80, 0
2, 87873, Note_on_c, 0, 52, 0
2, 87952, Note_on_c, 0, 75, 69
2, 88036, Note_on_c, 0, 81, 0
2, 88198, Note_on_c, 0, 54, 53
2, 88206, Note_on_c, 0, 74, 61
2, 88251, Note_on_c, 0, 75, 0
2, 88262, Note_on_c, 0, 53, 0
2, 88456, Note_on_c, 0, 82, 76
2, 88535, Note_on_c, 0, 74, 0
2, 88749, Note_on_c, 0, 55, 44
2, 88757, Note_on_c, 0, 83, 63
2, 88762, Note_on_c, 0, 54, 0
2, 88820, Note_on_c, 0, 82, 0
2, 89038, Note_on_c, 0, 77, 70
2, 89086, Note_on_c, 0, 83, 0
2, 89274, Note_on_c, 0, 76, 65
2, 89285, Note_on_c, 0, 56, 58
2, 89300, Note_on_c, 0, 55, 0
2, 89329, Note_on_c, 0, 77, 0
2, 89545, Note_on_c, 0, 74, 58
2, 89564, Note_on_c, 0, 76, 0
2, 89777, Note_on_c, 0, 57, 58
2, 89860, Note_on_c, 0, 74, 0
2, 89882, Note_on_c, 0, 56, 0
2, 90049, Note_on_c, 0, 72, 68
2, 90283, Note_on_c, 0, 59, 66
2, 90362, Note_on_c, 0, 57, 0
2, 90566, Note_on_c, 0, 71, 70
2, 90680, Note_on_c, 0, 72, 0
2, 90819, Note_on_c, 0, 59, 0
2, 90821, Note_on_c, 0, 60, 54
2, 91077, Note_on_c, 0, 69, 66
2, 91095, Note_on_c, 0, 71, 0
2, 91219, Note_on_c, 0, 71, 66
2, 91223, Note_on_c, 0, 69, 0
2, 91321, Note_on_c, 0, 57, 42
2, 91336, Note_on_c, 0, 71, 0
2, 91350, Note_on_c, 0, 72, 53
2, 91363, Note_on_c, 0, 60, 0
2, 91604, Note_on_c, 0, 63, 50
2, 91651, Note_on_c, 0, 72, 0
2, 91824, Note_on_c, 0, 55, 36
2, 91846, Note_on_c, 0, 64, 54
2, 91853, Note_on_c, 0, 63, 0
2, 91915, Note_on_c, 0, 57, 0
2, 92109, Note_on_c, 0, 73, 60
2, 92125, Note_on_c, 0, 64, 0
2, 92345, Note_on_c, 0, 53, 41
2, 92358, Note_on_c, 0, 74, 55
2, 92405, Note_on_c, 0, 55, 0
2, 92475, Note_on_c, 0, 73, 0
2, 92615, Note_on_c, 0, 65, 52
2, 92624, Note_on_c, 0, 74, 0
2, 92792, Note_on_c, 0, 53, 0
2, 92846, Note_on_c, 0, 52, 37
2, 92876, Note_on_c, 0, 67, 48
2, 92968, Note_on_c, 0, 53, 54
2, 92975, Note_on_c, 0, 65, 0
2, 93002, Note_on_c, 0, 52, 0
2, 93072, Note_on_c, 0, 55, 61
2, 93093, Note_on_c, 0, 53, 0
2, 93182, Note_on_c, 0, 57, 67
2, 93186, Note_on_c, 0, 55, 0
2, 93324, Note_on_c, 0, 74, 68
2, 93345, Note_on_c, 0, 58, 52
2, 93371, Note_on_c, 0, 57, 0
2, 93422, Note_on_c, 0, 67, 0
2, 93580, Note_on_c, 0, 53, 64
2, 93608, Note_on_c, 0, 58, 0
2, 93809, Note_on_c, 0, 52, 50
2, 93824, Note_on_c, 0, 53, 0
2, 93827, Note_on_c, 0, 73, 70
2, 93957, Note_on_c, 0, 74, 0
2, 94067, Note_on_c, 0, 57, 58
2, 94128, Note_on_c, 0, 52, 0
2, 94321, Note_on_c, 0, 55, 55
2, 94337, Note_on_c, 0, 70, 61
2, 94378, Note_on_c, 0, 57, 0
2, 94581, Note_on_c, 0, 50, 64
2, 94642, Note_on_c, 0, 73, 0
2, 94685, Note_on_c, 0, 55, 0
2, 94730, Note_on_c, 0, 70, 0
2, 94847, Note_on_c, 0, 49, 57
2, 94894, Note_on_c, 0, 50, 0
2, 94988, Note_on_c, 0, 69, 63
2, 95100, Note_on_c, 0, 69, 0
2, 95102, Note_on_c, 0, 67, 59
2, 95204, Note_on_c, 0, 69, 62
2, 95219, Note_on_c, 0, 67, 0
2, 95330, Note_on_c, 0, 55, 54
2, 95341, Note_on_c, 0, 70, 56
2, 95361, Note_on_c, 0, 69, 0
2, 95435, Note_on_c, 0, 49, 0
2, 95475, Note_on_c, 0, 70, 0
2, 95631, Note_on_c, 0, 61, 49
2, 95870, Note_on_c, 0, 62, 50
2, 95873, Note_on_c, 0, 53, 44
2, 95890, Note_on_c, 0, 61, 0
2, 95927, Note_on_c, 0, 55, 0
2, 96119, Note_on_c, 0, 71, 57
2, 96147, Note_on_c, 0, 62, 0
2, 96350, Note_on_c, 0, 52, 44
2, 96371, Note_on_c, 0, 72, 51
2, 96418, Note_on_c, 0, 53, 0
2, 96435, Note_on_c, 0, 71, 0
2, 96624, Note_on_c, 0, 64, 53
2, 96628, Note_on_c, 0, 72, 0
2, 96845, Note_on_c, 0, 52, 0
2, 96861, Note_on_c, 0, 50, 40
2, 96881, Note_on_c, 0, 66, 48
2, 97016, Note_on_c, 0, 52, 49
2, 97039, Note_on_c, 0, 64, 0
2, 97045, Note_on_c, 0, 50, 0
2, 97112, Note_on_c, 0, 54, 58
2, 97127, Note_on_c, 0, 52, 0
2, 97197, Note_on_c, 0, 54, 0
2, 97223, Note_on_c, 0, 55, 59
2, 97340, Note_on_c, 0, 55, 0
2, 97368, Note_on_c, 0, 57, 43
2, 97383, Note_on_c, 0, 72, 63
2, 97468, Note_on_c, 0, 66, 0
2, 97626, Note_on_c, 0, 51, 46
2, 97656, Note_on_c, 0, 57, 0
2, 97859, Note_on_c, 0, 50, 38
2, 97865, Note_on_c, 0, 51, 0
2, 97899, Note_on_c, 0, 71, 58
2, 98151, Note_on_c, 0, 55, 43
2, 98155, Note_on_c, 0, 50, 0
2, 98177, Note_on_c, 0, 72, 0
2, 98426, Note_on_c, 0, 54, 41
2, 98440, Note_on_c, 0, 68, 60
2, 98450, Note_on_c, 0, 55, 0
2, 98695, Note_on_c, 0, 71, 0
2, 98757, Note_on_c, 0, 48, 47
2, 98992, Note_on_c, 0, 54, 0
2, 99107, Note_on_c, 0, 47, 44
2, 99136, Note_on_c, 0, 68, 0
2, 99184, Note_on_c, 0, 48, 0
2, 99290, Note_on_c, 0, 67, 52
2, 99418, Note_on_c, 0, 69, 66
2, 99438, Note_on_c, 0, 67, 0
2, 99513, Note_on_c, 0, 71, 63
2, 99563, Note_on_c, 0, 69, 0
2, 99657, Note_on_c, 0, 52, 54
2, 99666, Note_on_c, 0, 72, 56
2, 99681, Note_on_c, 0, 71, 0
2, 99755, Note_on_c, 0, 47, 0
2, 99957, Note_on_c, 0, 67, 58
2, 99999, Note_on_c, 0, 72, 0
2, 100193, Note_on_c, 0, 51, 50
2, 100211, Note_on_c, 0, 66, 59
2, 100336, Note_on_c, 0, 52, 0
2, 100355, Note_on_c, 0, 67, 0
2, 100458, Note_on_c, 0, 70, 68
2, 100516, Note_on_c, 0, 66, 0
2, 100704, Note_on_c, 0, 50, 57
2, 100716, Note_on_c, 0, 71, 62
2, 100788, Note_on_c, 0, 51, 0
2, 100809, Note_on_c, 0, 70, 0
2, 100985, Note_on_c, 0, 65, 54
2, 101058, Note_on_c, 0, 71, 0
2, 101230, Note_on_c, 0, 49, 50
2, 101234, Note_on_c, 0, 64, 48
2, 101338, Note_on_c, 0, 65, 0
2, 101385, Note_on_c, 0, 50, 0
2, 101479, Note_on_c, 0, 68, 53
2, 101525, Note_on_c, 0, 64, 0
2, 101746, Note_on_c, 0, 69, 51
2, 101749, Note_on_c, 0, 48, 39
2, 101782, Note_on_c, 0, 49, 0
2, 101802, Note_on_c, 0, 68, 0
2, 102030, Note_on_c, 0, 63, 47
2, 102092, Note_on_c, 0, 69, 0
2, 102276, Note_on_c, 0, 47, 32
2, 102353, Note_on_c, 0, 48, 0
2, 102529, Note_on_c, 0, 64, 49
2, 102549, Note_on_c, 0, 63, 0
2, 102780, Note_on_c, 0, 45, 41
2, 102970, Note_on_c, 0, 47, 0
2, 103061, Note_on_c, 0, 65, 47
2, 103184, Note_on_c, 0, 64, 0
2, 103336, Note_on_c, 0, 59, 46
2, 103413, Note_on_c, 0, 65, 0
2, 103420, Note_on_c, 0, 45, 0
2, 103452, Note_on_c, 0, 48, 52
2, 103589, Note_on_c, 0, 48, 0
2, 103591, Note_on_c, 0, 47, 54
2, 103593, Note_on_c, 0, 59, 0
2, 103673, Note_on_c, 0, 47, 0
2, 103689, Note_on_c, 0, 45, 54
2, 103809, Note_on_c, 0, 44, 42
2, 103809, Note_on_c, 0, 45, 0
2, 103845, Note_on_c, 0, 76, 60
2, 104082, Note_on_c, 0, 49, 55
2, 104155, Note_on_c, 0, 44, 0
2, 104337, Note_on_c, 0, 50, 48
2, 104342, Note_on_c, 0, 77, 60
2, 104386, Note_on_c, 0, 49, 0
2, 104590, Note_on_c, 0, 46, 54
2, 104644, Note_on_c, 0, 50, 0
2, 104802, Note_on_c, 0, 76, 0
2, 104840, Note_on_c, 0, 45, 40
2, 104846, Note_on_c, 0, 78, 68
2, 104870, Note_on_c, 0, 46, 0
2, 104979, Note_on_c, 0, 77, 0
2, 105102, Note_on_c, 0, 51, 52
2, 105201, Note_on_c, 0, 45, 0
2, 105315, Note_on_c, 0, 52, 55
2, 105333, Note_on_c, 0, 79, 74
2, 105410, Note_on_c, 0, 78, 0
2, 105583, Note_on_c, 0, 48, 61
2, 105647, Note_on_c, 0, 52, 0
2, 105675, Note_on_c, 0, 51, 0
2, 105821, Note_on_c, 0, 47, 58
2, 105828, Note_on_c, 0, 80, 77
2, 105868, Note_on_c, 0, 48, 0
2, 105967, Note_on_c, 0, 79, 0
2, 106084, Note_on_c, 0, 53, 74
2, 106142, Note_on_c, 0, 47, 0
2, 106342, Note_on_c, 0, 81, 81
2, 106419, Note_on_c, 0, 80, 0
2, 106593, Note_on_c, 0, 52, 66
2, 106650, Note_on_c, 0, 53, 0
2, 106850, Note_on_c, 0, 83, 79
2, 106931, Note_on_c, 0, 81, 0
2, 107109, Note_on_c, 0, 50, 67
2, 107173, Note_on_c, 0, 52, 0
2, 107348, Note_on_c, 0, 83, 0
2, 107370, Note_on_c, 0, 48, 67
2, 107437, Note_on_c, 0, 50, 0
2, 107652, Note_on_c, 0, 81, 75
2, 107757, Note_on_c, 0, 83, 78
2, 107788, Note_on_c, 0, 81, 0
2, 107895, Note_on_c, 0, 84, 70
2, 107897, Note_on_c, 0, 52, 55
2, 107943, Note_on_c, 0, 83, 0
2, 108079, Note_on_c, 0, 84, 0
2, 108117, Note_on_c, 0, 48, 0
2, 108184, Note_on_c, 0, 76, 71
2, 108433, Note_on_c, 0, 54, 71
2, 108599, Note_on_c, 0, 52, 0
2, 108682, Note_on_c, 0, 75, 78
2, 108826, Note_on_c, 0, 76, 0
2, 108927, Note_on_c, 0, 56, 69
2, 108931, Note_on_c, 0, 83, 76
2, 108982, Note_on_c, 0, 75, 0
2, 108988, Note_on_c, 0, 54, 0
2, 109216, Note_on_c, 0, 74, 61
2, 109269, Note_on_c, 0, 83, 0
2, 109444, Note_on_c, 0, 57, 58
2, 109476, Note_on_c, 0, 56, 0
2, 109529, Note_on_c, 0, 74, 0
2, 109576, Note_on_c, 0, 72, 74
2, 109668, Note_on_c, 0, 74, 74
2, 109712, Note_on_c, 0, 72, 0
2, 109757, Note_on_c, 0, 76, 77
2, 109800, Note_on_c, 0, 74, 0
2, 109873, Note_on_c, 0, 45, 50
2, 109892, Note_on_c, 0, 77, 65
2, 109937, Note_on_c, 0, 57, 0
2, 109939, Note_on_c, 0, 76, 0
2, 110091, Note_on_c, 0, 77, 0
2, 110160, Note_on_c, 0, 69, 57
2, 110383, Note_on_c, 0, 47, 53
2, 110610, Note_on_c, 0, 45, 0
2, 110642, Note_on_c, 0, 68, 63
2, 110787, Note_on_c, 0, 69, 0
2, 110883, Note_on_c, 0, 49, 52
2, 110898, Note_on_c, 0, 76, 57
2, 110934, Note_on_c, 0, 68, 0
2, 110943, Note_on_c, 0, 47, 0
2, 111183, Note_on_c, 0, 76, 0
2, 111193, Note_on_c, 0, 67, 43
2, 111428, Note_on_c, 0, 50, 41
2, 111431, Note_on_c, 0, 49, 0
2, 111541, Note_on_c, 0, 67, 0
2, 111581, Note_on_c, 0, 65, 51
2, 111678, Note_on_c, 0, 65, 0
2, 111690, Note_on_c, 0, 67, 57
2, 111777, Note_on_c, 0, 69, 54
2, 111787, Note_on_c, 0, 67, 0
2, 111911, Note_on_c, 0, 70, 50
2, 111914, Note_on_c, 0, 69, 0
2, 111925, Note_on_c, 0, 38, 60
2, 112064, Note_on_c, 0, 50, 0
2, 112155, Note_on_c, 0, 70, 0
2, 112240, Note_on_c, 0, 62, 43
2, 112481, Note_on_c, 0, 40, 51
2, 112614, Note_on_c, 0, 38, 0
2, 112737, Note_on_c, 0, 61, 49
2, 112875, Note_on_c, 0, 62, 0
2, 112974, Note_on_c, 0, 52, 55
2, 112976, Note_on_c, 0, 69, 55
2, 113007, Note_on_c, 0, 61, 0
2, 113105, Note_on_c, 0, 40, 0
2, 113286, Note_on_c, 0, 60, 44
2, 113288, Note_on_c, 0, 69, 0
2, 113493, Note_on_c, 0, 51, 51
2, 113650, Note_on_c, 0, 52, 0
2, 113761, Note_on_c, 0, 59, 47
2, 113836, Note_on_c, 0, 60, 0
2, 113984, Note_on_c, 0, 50, 45
2, 113996, Note_on_c, 0, 68, 51
2, 113999, Note_on_c, 0, 59, 0
2, 114052, Note_on_c, 0, 51, 0
2, 114273, Note_on_c, 0, 68, 0
2, 114302, Note_on_c, 0, 59, 42
2, 114516, Note_on_c, 0, 49, 43
2, 114651, Note_on_c, 0, 50, 0
2, 114768, Note_on_c, 0, 57, 37
2, 114805, Note_on_c, 0, 59, 0
2, 115006, Note_on_c, 0, 57, 0
2, 115016, Note_on_c, 0, 48, 39
2, 115016, Note_on_c, 0, 65, 43
2, 115106, Note_on_c, 0, 49, 0
2, 115318, Note_on_c, 0, 57, 42
2, 115370, Note_on_c, 0, 65, 0
2, 115550, Note_on_c, 0, 47, 42
2, 115652, Note_on_c, 0, 48, 0
2, 115768, Note_on_c, 0, 47, 0
2, 115787, Note_on_c, 0, 57, 0
2, 115822, Note_on_c, 0, 56, 50
2, 115893, Note_on_c, 0, 56, 0
2, 115932, Note_on_c, 0, 54, 47
2, 116035, Note_on_c, 0, 54, 0
2, 116038, Note_on_c, 0, 47, 44
2, 116039, Note_on_c, 0, 56, 47
2, 116191, Note_on_c, 0, 56, 0
2, 116337, Note_on_c, 0, 62, 39
2, 116561, Note_on_c, 0, 45, 43
2, 116684, Note_on_c, 0, 47, 0
2, 116693, Note_on_c, 0, 60, 54
2, 116702, Note_on_c, 0, 62, 0
2, 116778, Note_on_c, 0, 45, 0
2, 116785, Note_on_c, 0, 60, 0
2, 116788, Note_on_c, 0, 59, 63
2, 116853, Note_on_c, 0, 59, 0
2, 116897, Note_on_c, 0, 57, 44
2, 117002, Note_on_c, 0, 45, 44
2, 117020, Note_on_c, 0, 59, 54
2, 117030, Note_on_c, 0, 57, 0
2, 117140, Note_on_c, 0, 59, 0
2, 117277, Note_on_c, 0, 65, 58
2, 117533, Note_on_c, 0, 44, 50
2, 117606, Note_on_c, 0, 45, 0
2, 117648, Note_on_c, 0, 64, 58
2, 117688, Note_on_c, 0, 65, 0
2, 117765, Note_on_c, 0, 62, 63
2, 117792, Note_on_c, 0, 44, 0
2, 117798, Note_on_c, 0, 64, 0
2, 117860, Note_on_c, 0, 61, 66
2, 117867, Note_on_c, 0, 62, 0
2, 117963, Note_on_c, 0, 61, 0
2, 117986, Note_on_c, 0, 62, 62
2, 117989, Note_on_c, 0, 44, 60
2, 118144, Note_on_c, 0, 62, 0
2, 118257, Note_on_c, 0, 71, 77
2, 118510, Note_on_c, 0, 40, 65
2, 118638, Note_on_c, 0, 69, 68
2, 118651, Note_on_c, 0, 71, 0
2, 118674, Note_on_c, 0, 44, 0
2, 118742, Note_on_c, 0, 40, 0
2, 118748, Note_on_c, 0, 68, 78
2, 118772, Note_on_c, 0, 69, 0
2, 118861, Note_on_c, 0, 66, 70
2, 118862, Note_on_c, 0, 68, 0
2, 118983, Note_on_c, 0, 68, 73
2, 118986, Note_on_c, 0, 40, 71
2, 118998, Note_on_c, 0, 66, 0
2, 119154, Note_on_c, 0, 68, 0
2, 119234, Note_on_c, 0, 40, 0
2, 119317, Note_on_c, 0, 74, 71
2, 119562, Note_on_c, 0, 45, 53
2, 119819, Note_on_c, 0, 72, 64
2, 119821, Note_on_c, 0, 74, 0
2, 119931, Note_on_c, 0, 72, 0
2, 119938, Note_on_c, 0, 71, 62
2, 120039, Note_on_c, 0, 71, 0
2, 120053, Note_on_c, 0, 72, 66
2, 120178, Note_on_c, 0, 50, 54
2, 120214, Note_on_c, 0, 45, 0
2, 120265, Note_on_c, 0, 50, 0
2, 120282, Note_on_c, 0, 52, 60
2, 120287, Note_on_c, 0, 72, 0
2, 120313, Note_on_c, 0, 69, 41
2, 120390, Note_on_c, 0, 52, 0
2, 120407, Note_on_c, 0, 54, 58
2, 120562, Note_on_c, 0, 55, 40
2, 120592, Note_on_c, 0, 70, 59
2, 120597, Note_on_c, 0, 54, 0
2, 120718, Note_on_c, 0, 69, 0
2, 120846, Note_on_c, 0, 51, 44
2, 120892, Note_on_c, 0, 55, 0
2, 121079, Note_on_c, 0, 50, 39
2, 121087, Note_on_c, 0, 51, 0
2, 121090, Note_on_c, 0, 71, 62
2, 121270, Note_on_c, 0, 70, 0
2, 121340, Note_on_c, 0, 56, 53
2, 121371, Note_on_c, 0, 50, 0
2, 121572, Note_on_c, 0, 57, 44
2, 121576, Note_on_c, 0, 72, 62
2, 121623, Note_on_c, 0, 56, 0
2, 121635, Note_on_c, 0, 71, 0
2, 121841, Note_on_c, 0, 53, 55
2, 121898, Note_on_c, 0, 57, 0
2, 122071, Note_on_c, 0, 52, 45
2, 122081, Note_on_c, 0, 73, 68
2, 122127, Note_on_c, 0, 53, 0
2, 122236, Note_on_c, 0, 72, 0
2, 122345, Note_on_c, 0, 58, 60
2, 122431, Note_on_c, 0, 52, 0
2, 122578, Note_on_c, 0, 74, 71
2, 122701, Note_on_c, 0, 73, 0
2, 122840, Note_on_c, 0, 57, 61
2, 122893, Note_on_c, 0, 58, 0
2, 123093, Note_on_c, 0, 76, 74
2, 123233, Note_on_c, 0, 74, 0
2, 123356, Note_on_c, 0, 55, 63
2, 123395, Note_on_c, 0, 57, 0
2, 123589, Note_on_c, 0, 53, 61
2, 123592, Note_on_c, 0, 55, 0
2, 123673, Note_on_c, 0, 76, 0
2, 123695, Note_on_c, 0, 53, 0
2, 123712, Note_on_c, 0, 52, 56
2, 123723, Note_on_c, 0, 73, 67
2, 123818, Note_on_c, 0, 53, 67
2, 123824, Note_on_c, 0, 74, 73
2, 123835, Note_on_c, 0, 52, 0
2, 123858, Note_on_c, 0, 73, 0
2, 123918, Note_on_c, 0, 55, 71
2, 123920, Note_on_c, 0, 53, 0
2, 123927, Note_on_c, 0, 76, 78
2, 123948, Note_on_c, 0, 74, 0
2, 124073, Note_on_c, 0, 57, 56
2, 124082, Note_on_c, 0, 77, 71
2, 124093, Note_on_c, 0, 55, 0
2, 124114, Note_on_c, 0, 76, 0
2, 124372, Note_on_c, 0, 72, 65
2, 124475, Note_on_c, 0, 77, 0
2, 124622, Note_on_c, 0, 56, 56
2, 124622, Note_on_c, 0, 71, 59
2, 124742, Note_on_c, 0, 72, 0
2, 124744, Note_on_c, 0, 57, 0
2, 124887, Note_on_c, 0, 75, 76
2, 124941, Note_on_c, 0, 71, 0
2, 125126, Note_on_c, 0, 55, 58
2, 125130, Note_on_c, 0, 76, 63
2, 125210, Note_on_c, 0, 56, 0
2, 125277, Note_on_c, 0, 75, 0
2, 125410, Note_on_c, 0, 70, 61
2, 125511, Note_on_c, 0, 76, 0
2, 125650, Note_on_c, 0, 54, 50
2, 125665, Note_on_c, 0, 69, 51
2, 125736, Note_on_c, 0, 70, 0
2, 125746, Note_on_c, 0, 55, 0
2, 125912, Note_on_c, 0, 73, 62
2, 125949, Note_on_c, 0, 69, 0
2, 126167, Note_on_c, 0, 53, 50
2, 126176, Note_on_c, 0, 74, 55
2, 126236, Note_on_c, 0, 73, 0
2, 126258, Note_on_c, 0, 54, 0
2, 126479, Note_on_c, 0, 68, 50
2, 126554, Note_on_c, 0, 74, 0
2, 126707, Note_on_c, 0, 52, 42
2, 126737, Note_on_c, 0, 53, 0
2, 126975, Note_on_c, 0, 68, 0
2, 126976, Note_on_c, 0, 69, 53
2, 127208, Note_on_c, 0, 50, 45
2, 127246, Note_on_c, 0, 52, 0
2, 127294, Note_on_c, 0, 69, 0
2, 127485, Note_on_c, 0, 71, 50
2, 127740, Note_on_c, 0, 71, 0
2, 127780, Note_on_c, 0, 64, 47
2, 127895, Note_on_c, 0, 64, 0
2, 128026, Note_on_c, 0, 50, 0
2, 128058, Note_on_c, 0, 48, 44
2, 128079, Note_on_c, 0, 76, 53
2, 128127, Note_on_c, 0, 48, 0
2, 128170, Note_on_c, 0, 47, 45
2, 128256, Note_on_c, 0, 47, 0
2, 128276, Note_on_c, 0, 48, 55
2, 128335, Note_on_c, 0, 48, 0
2, 128427, Note_on_c, 0, 74, 59
2, 128440, Note_on_c, 0, 76, 0
2, 128534, Note_on_c, 0, 45, 62
2, 128539, Note_on_c, 0, 72, 70
2, 128557, Note_on_c, 0, 74, 0
2, 128589, Note_on_c, 0, 45, 0
2, 128669, Note_on_c, 0, 72, 0
2, 128673, Note_on_c, 0, 71, 64
2, 128781, Note_on_c, 0, 52, 52
2, 128808, Note_on_c, 0, 71, 0
2, 128816, Note_on_c, 0, 74, 54
2, 128946, Note_on_c, 0, 72, 59
2, 128952, Note_on_c, 0, 74, 0
2, 129050, Note_on_c, 0, 52, 0
2, 129056, Note_on_c, 0, 72, 0
2, 129064, Note_on_c, 0, 71, 63
2, 129149, Note_on_c, 0, 71, 0
2, 129202, Note_on_c, 0, 69, 55
2, 129300, Note_on_c, 0, 69, 0
2, 129318, Note_on_c, 0, 40, 43
2, 129333, Note_on_c, 0, 72, 52
2, 129467, Note_on_c, 0, 71, 52
2, 129486, Note_on_c, 0, 72, 0
2, 129518, Note_on_c, 0, 40, 0
2, 129602, Note_on_c, 0, 71, 0
2, 129614, Note_on_c, 0, 69, 54
2, 129748, Note_on_c, 0, 69, 0
2, 129776, Note_on_c, 0, 68, 48
2, 129963, Note_on_c, 0, 45, 31
2, 130008, Note_on_c, 0, 68, 0
2, 130032, Note_on_c, 0, 69, 55
2, 130115, Note_on_c, 0, 69, 0
2, 130148, Note_on_c, 0, 68, 63
2, 130202, Note_on_c, 0, 68, 0
2, 130252, Note_on_c, 0, 69, 48
2, 130385, Note_on_c, 0, 47, 49
2, 130463, Note_on_c, 0, 45, 0
2, 130521, Note_on_c, 0, 48, 55
2, 130540, Note_on_c, 0, 47, 0
2, 130628, Note_on_c, 0, 48, 0
2, 130632, Note_on_c, 0, 50, 65
2, 130715, Note_on_c, 0, 50, 0
2, 130756, Note_on_c, 0, 52, 59
2, 130857, Note_on_c, 0, 52, 0
2, 130870, Note_on_c, 0, 54, 58
2, 130946, Note_on_c, 0, 54, 0
2, 130991, Note_on_c, 0, 56, 49
2, 131159, Note_on_c, 0, 56, 0
2, 131200, Note_on_c, 0, 57, 38
2, 131630, Note_on_c, 0, 57, 0
2, 131989, Note_on_c, 0, 45, 36
2, 132949, Note_on_c, 0, 69, 0
2, 132951, Note_on_c, 0, 45, 0
2, 134935, Control_c, 0, 64, 9
2, 134954, Control_c, 0, 64, 29
2, 134973, Control_c, 0, 64, 39
2, 134992, Control_c, 0, 64, 43
2, 135012, Control_c, 0, 64, 46
2, 135030, Control_c, 0, 64, 50
2, 135050, Control_c, 0, 64, 53
2, 135069, Control_c, 0, 64, 56
2, 135089, Control_c, 0, 64, 58
2, 135107, Control_c, 0, 64, 60
2, 135127, Control_c, 0, 64, 61
2, 135146, Control_c, 0, 64, 63
2, 135166, Control_c, 0, 64, 66
2, 135184, Control_c, 0, 64, 70
2, 135204, Control_c, 0, 64, 76
2, 135223, Control_c, 0, 64, 84
2, 135242, Control_c, 0, 64, 95
2, 135254,End_track
0, 0, End_of_file
