0, 0, Header, 1, 2, 480
1, 0, Start_track
1, 0, Tempo, 500000
1, 0, Time_signature, 4, 2, 24, 8
1, 1, End_track
2,0,Start_track
2,0, Note_on_c, 0, 64, 88
2,7, Control_c, 0, 64, 127
2,281, Note_on_c, 0, 64, 0
2,333, Control_c, 0, 64, 77
2,353, Control_c, 0, 64, 0
2,641, Control_c, 0, 64, 26
2,660, Control_c, 0, 64, 47
2,679, Control_c, 0, 64, 61
2,698, Control_c, 0, 64, 64
2,718, Control_c, 0, 64, 68
2,721, Note_on_c, 0, 60, 90
2,736, Control_c, 0, 64, 75
2,756, Control_c, 0, 64, 93
2,775, Control_c, 0, 64, 127
2,1003, Note_on_c, 0, 60, 0
2,1044, Control_c, 0, 64, 69
2,1063, Control_c, 0, 64, 0
2,1352, Control_c, 0, 64, 15
2,1370, Control_c, 0, 64, 46
2,1390, Control_c, 0, 64, 56
2,1409, Control_c, 0, 64, 62
2,1428, Control_c, 0, 64, 65
2,1447, Control_c, 0, 64, 68
2,1451, Note_on_c, 0, 65, 91
2,1467, Control_c, 0, 64, 74
2,1486, Control_c, 0, 64, 89
2,1504, Control_c, 0, 64, 127
2,1720, Note_on_c, 0, 65, 0
2,1773, Control_c, 0, 64, 86
2,1793, Control_c, 0, 64, 0
2,2176, Control_c, 0, 64, 24
2,2196, Control_c, 0, 64, 38
2,2215, Control_c, 0, 64, 45
2,2233, Note_on_c, 0, 56, 93
2,2235, Control_c, 0, 64, 52
2,2253, Control_c, 0, 64, 57
2,2273, Control_c, 0, 64, 61
2,2292, Control_c, 0, 64, 63
2,2312, Control_c, 0, 64, 65
2,2330, Control_c, 0, 64, 67
2,2350, Control_c, 0, 64, 71
2,2369, Control_c, 0, 64, 80
2,2388, Control_c, 0, 64, 95
2,2407, Control_c, 0, 64, 127
2,3193, Control_c, 0, 64, 96
2,3197, Note_on_c, 0, 56, 0
2,3211, Control_c, 0, 64, 35
2,3231, Control_c, 0, 64, 0
2,4274, Note_on_c, 0, 62, 85
2,4309, Note_on_c, 0, 62, 0
2,4617, Note_on_c, 0, 59, 86
2,4650, Note_on_c, 0, 59, 0
2,4980, Note_on_c, 0, 64, 85
2,5016, Note_on_c, 0, 64, 0
2,5331, Note_on_c, 0, 60, 82
2,5365, Note_on_c, 0, 60, 0
2,5680, Note_on_c, 0, 57, 79
2,5717, Note_on_c, 0, 57, 0
2,6012, Note_on_c, 0, 69, 84
2,6016, Note_on_c, 0, 54, 63
2,6065, Note_on_c, 0, 54, 0
2,6358, Note_on_c, 0, 69, 0
2,6379, Note_on_c, 0, 63, 89
2,6437, Note_on_c, 0, 63, 0
2,6713, Note_on_c, 0, 52, 62
2,6726, Note_on_c, 0, 67, 88
2,6773, Note_on_c, 0, 52, 0
2,7087, Note_on_c, 0, 67, 0
2,7097, Note_on_c, 0, 64, 81
2,7169, Note_on_c, 0, 64, 0
2,7179, Note_on_c, 0, 62, 68
2,7248, Note_on_c, 0, 62, 0
2,7250, Note_on_c, 0, 60, 71
2,7318, Note_on_c, 0, 59, 72
2,7334, Note_on_c, 0, 60, 0
2,7404, Note_on_c, 0, 57, 65
2,7404, Note_on_c, 0, 72, 96
2,7414, Note_on_c, 0, 59, 0
2,7697, Note_on_c, 0, 72, 0
2,7761, Note_on_c, 0, 57, 0
2,7765, Note_on_c, 0, 60, 79
2,7832, Note_on_c, 0, 60, 0
2,7854, Note_on_c, 0, 59, 75
2,7901, Note_on_c, 0, 59, 0
2,7912, Note_on_c, 0, 57, 66
2,7971, Note_on_c, 0, 57, 0
2,7997, Note_on_c, 0, 55, 64
2,8097, Note_on_c, 0, 55, 0
2,8098, Note_on_c, 0, 63, 90
2,8106, Note_on_c, 0, 54, 71
2,8176, Note_on_c, 0, 55, 73
2,8194, Note_on_c, 0, 54, 0
2,8255, Note_on_c, 0, 57, 86
2,8258, Note_on_c, 0, 55, 0
2,8650, Note_on_c, 0, 57, 0
2,8664, Note_on_c, 0, 55, 64
2,8731, Note_on_c, 0, 54, 67
2,8732, Note_on_c, 0, 55, 0
2,8778, Note_on_c, 0, 54, 0
2,8794, Note_on_c, 0, 52, 67
2,8880, Note_on_c, 0, 52, 0
2,8887, Note_on_c, 0, 51, 70
2,8945, Note_on_c, 0, 63, 0
2,8953, Note_on_c, 0, 51, 0
2,8956, Note_on_c, 0, 52, 71
2,9040, Note_on_c, 0, 52, 0
2,9051, Note_on_c, 0, 54, 74
2,9375, Note_on_c, 0, 54, 0
2,9383, Note_on_c, 0, 52, 54
2,9443, Note_on_c, 0, 51, 67
2,9449, Note_on_c, 0, 52, 0
2,9506, Note_on_c, 0, 49, 66
2,9517, Note_on_c, 0, 51, 0
2,9580, Note_on_c, 0, 47, 72
2,9592, Note_on_c, 0, 49, 0
2,9917, Note_on_c, 0, 69, 86
2,9955, Note_on_c, 0, 69, 0
2,10108, Note_on_c, 0, 47, 0
2,10121, Note_on_c, 0, 49, 55
2,10191, Note_on_c, 0, 49, 0
2,10197, Note_on_c, 0, 51, 56
2,10247, Note_on_c, 0, 51, 0
2,10268, Note_on_c, 0, 66, 82
2,10275, Note_on_c, 0, 52, 63
2,10296, Note_on_c, 0, 66, 0
2,10315, Note_on_c, 0, 52, 0
2,10358, Note_on_c, 0, 51, 55
2,10397, Note_on_c, 0, 51, 0
2,10414, Note_on_c, 0, 52, 61
2,10460, Note_on_c, 0, 52, 0
2,10487, Note_on_c, 0, 51, 62
2,10529, Note_on_c, 0, 51, 0
2,10555, Note_on_c, 0, 52, 60
2,10593, Note_on_c, 0, 52, 0
2,10608, Note_on_c, 0, 71, 87
2,10617, Note_on_c, 0, 51, 56
2,10636, Note_on_c, 0, 71, 0
2,10645, Note_on_c, 0, 51, 0
2,10682, Note_on_c, 0, 52, 52
2,10715, Note_on_c, 0, 52, 0
2,10728, Note_on_c, 0, 51, 67
2,10776, Note_on_c, 0, 51, 0
2,10800, Note_on_c, 0, 49, 69
2,10858, Note_on_c, 0, 49, 0
2,10872, Note_on_c, 0, 51, 67
2,10927, Note_on_c, 0, 51, 0
2,10960, Note_on_c, 0, 67, 77
2,10966, Note_on_c, 0, 52, 56
2,10988, Note_on_c, 0, 67, 0
2,11087, Note_on_c, 0, 52, 0
2,11313, Note_on_c, 0, 64, 68
2,11344, Note_on_c, 0, 64, 0
2,11411, Note_on_c, 0, 52, 66
2,11476, Note_on_c, 0, 53, 74
2,11490, Note_on_c, 0, 52, 0
2,11519, Note_on_c, 0, 53, 0
2,11549, Note_on_c, 0, 55, 61
2,11603, Note_on_c, 0, 55, 0
2,11630, Note_on_c, 0, 57, 73
2,11653, Note_on_c, 0, 61, 81
2,11681, Note_on_c, 0, 61, 0
2,11740, Note_on_c, 0, 57, 0
2,11992, Note_on_c, 0, 69, 90
2,12017, Note_on_c, 0, 69, 0
2,12111, Note_on_c, 0, 55, 61
2,12166, Note_on_c, 0, 55, 0
2,12193, Note_on_c, 0, 53, 52
2,12230, Note_on_c, 0, 53, 0
2,12257, Note_on_c, 0, 52, 54
2,12305, Note_on_c, 0, 52, 0
2,12346, Note_on_c, 0, 50, 52
2,12350, Note_on_c, 0, 65, 71
2,12384, Note_on_c, 0, 65, 0
2,12415, Note_on_c, 0, 50, 0
2,12726, Note_on_c, 0, 62, 62
2,12766, Note_on_c, 0, 62, 0
2,12819, Note_on_c, 0, 50, 51
2,12866, Note_on_c, 0, 50, 0
2,12880, Note_on_c, 0, 52, 60
2,12925, Note_on_c, 0, 52, 0
2,12958, Note_on_c, 0, 53, 51
2,13011, Note_on_c, 0, 53, 0
2,13049, Note_on_c, 0, 55, 48
2,13055, Note_on_c, 0, 59, 69
2,13093, Note_on_c, 0, 59, 0
2,13150, Note_on_c, 0, 55, 0
2,13416, Note_on_c, 0, 67, 66
2,13451, Note_on_c, 0, 67, 0
2,13521, Note_on_c, 0, 53, 60
2,13574, Note_on_c, 0, 53, 0
2,13602, Note_on_c, 0, 52, 48
2,13637, Note_on_c, 0, 52, 0
2,13659, Note_on_c, 0, 50, 58
2,13756, Note_on_c, 0, 50, 0
2,13780, Note_on_c, 0, 48, 50
2,13785, Note_on_c, 0, 64, 61
2,13823, Note_on_c, 0, 64, 0
2,14162, Note_on_c, 0, 69, 64
2,14339, Note_on_c, 0, 50, 48
2,14478, Note_on_c, 0, 48, 0
2,14504, Note_on_c, 0, 52, 54
2,14516, Note_on_c, 0, 50, 0
2,14539, Note_on_c, 0, 76, 84
2,14614, Note_on_c, 0, 69, 0
2,14672, Note_on_c, 0, 52, 0
2,14688, Note_on_c, 0, 53, 56
2,14806, Note_on_c, 0, 53, 0
2,14829, Note_on_c, 0, 52, 52
2,14886, Note_on_c, 0, 52, 0
2,14902, Note_on_c, 0, 68, 62
2,14912, Note_on_c, 0, 50, 54
2,14951, Note_on_c, 0, 68, 0
2,15077, Note_on_c, 0, 52, 52
2,15101, Note_on_c, 0, 50, 0
2,15264, Note_on_c, 0, 52, 0
2,15278, Note_on_c, 0, 53, 50
2,15299, Note_on_c, 0, 72, 90
2,15301, Note_on_c, 0, 57, 48
2,15309, Note_on_c, 0, 76, 0
2,15527, Note_on_c, 0, 53, 0
2,15566, Note_on_c, 0, 57, 0
2,15671, Note_on_c, 0, 69, 69
2,15750, Note_on_c, 0, 69, 0
2,15753, Note_on_c, 0, 67, 59
2,15785, Note_on_c, 0, 72, 0
2,15790, Note_on_c, 0, 67, 0
2,15841, Note_on_c, 0, 65, 59
2,15899, Note_on_c, 0, 65, 0
2,15929, Note_on_c, 0, 64, 59
2,15987, Note_on_c, 0, 64, 0
2,16016, Note_on_c, 0, 62, 55
2,16037, Note_on_c, 0, 77, 89
2,16382, Note_on_c, 0, 77, 0
2,16395, Note_on_c, 0, 62, 0
2,16396, Note_on_c, 0, 65, 66
2,16488, Note_on_c, 0, 65, 0
2,16491, Note_on_c, 0, 64, 72
2,16562, Note_on_c, 0, 62, 62
2,16564, Note_on_c, 0, 64, 0
2,16617, Note_on_c, 0, 62, 0
2,16637, Note_on_c, 0, 60, 61
2,16740, Note_on_c, 0, 60, 0
2,16741, Note_on_c, 0, 68, 94
2,16756, Note_on_c, 0, 59, 85
2,16861, Note_on_c, 0, 59, 0
2,16866, Note_on_c, 0, 60, 69
2,16960, Note_on_c, 0, 62, 64
2,16967, Note_on_c, 0, 60, 0
2,17072, Note_on_c, 0, 68, 0
2,17086, Note_on_c, 0, 53, 98
2,17113, Note_on_c, 0, 53, 0
2,17194, Note_on_c, 0, 62, 0
2,17196, Note_on_c, 0, 60, 67
2,17244, Note_on_c, 0, 60, 0
2,17285, Note_on_c, 0, 59, 62
2,17320, Note_on_c, 0, 59, 0
2,17373, Note_on_c, 0, 57, 60
2,17436, Note_on_c, 0, 47, 91
2,17448, Note_on_c, 0, 57, 0
2,17450, Note_on_c, 0, 56, 72
2,17469, Note_on_c, 0, 47, 0
2,17494, Note_on_c, 0, 56, 0
2,17538, Note_on_c, 0, 57, 70
2,17652, Note_on_c, 0, 59, 77
2,17654, Note_on_c, 0, 57, 0
2,17770, Note_on_c, 0, 50, 94
2,17801, Note_on_c, 0, 50, 0
2,17888, Note_on_c, 0, 57, 66
2,17905, Note_on_c, 0, 59, 0
2,17958, Note_on_c, 0, 56, 76
2,17973, Note_on_c, 0, 57, 0
2,18027, Note_on_c, 0, 54, 78
2,18061, Note_on_c, 0, 56, 0
2,18078, Note_on_c, 0, 54, 0
2,18124, Note_on_c, 0, 44, 86
2,18129, Note_on_c, 0, 52, 80
2,18205, Note_on_c, 0, 44, 0
2,18484, Note_on_c, 0, 47, 69
2,18485, Note_on_c, 0, 74, 90
2,18535, Note_on_c, 0, 74, 0
2,18542, Note_on_c, 0, 47, 0
2,18640, Note_on_c, 0, 52, 0
2,18654, Note_on_c, 0, 54, 65
2,18715, Note_on_c, 0, 54, 0
2,18747, Note_on_c, 0, 56, 63
2,18806, Note_on_c, 0, 56, 0
2,18835, Note_on_c, 0, 52, 66
2,18844, Note_on_c, 0, 57, 66
2,18846, Note_on_c, 0, 71, 90
2,18887, Note_on_c, 0, 71, 0
2,18899, Note_on_c, 0, 57, 0
2,18950, Note_on_c, 0, 56, 62
2,18988, Note_on_c, 0, 56, 0
2,19019, Note_on_c, 0, 57, 50
2,19052, Note_on_c, 0, 57, 0
2,19085, Note_on_c, 0, 56, 57
2,19117, Note_on_c, 0, 56, 0
2,19157, Note_on_c, 0, 57, 43
2,19194, Note_on_c, 0, 76, 93
2,19220, Note_on_c, 0, 76, 0
2,19232, Note_on_c, 0, 57, 0
2,19232, Note_on_c, 0, 57, 36
2,19277, Note_on_c, 0, 57, 0
2,19280, Note_on_c, 0, 56, 48
2,19326, Note_on_c, 0, 52, 0
2,19332, Note_on_c, 0, 54, 70
2,19339, Note_on_c, 0, 56, 0
2,19416, Note_on_c, 0, 56, 84
2,19420, Note_on_c, 0, 54, 0
2,19454, Note_on_c, 0, 56, 0
2,19527, Note_on_c, 0, 72, 89
2,19538, Note_on_c, 0, 57, 80
2,19543, Note_on_c, 0, 45, 76
2,19562, Note_on_c, 0, 72, 0
2,19794, Note_on_c, 0, 45, 0
2,19810, Note_on_c, 0, 57, 0
2,19895, Note_on_c, 0, 69, 84
2,19923, Note_on_c, 0, 69, 0
2,20061, Note_on_c, 0, 57, 60
2,20110, Note_on_c, 0, 59, 77
2,20114, Note_on_c, 0, 57, 0
2,20153, Note_on_c, 0, 59, 0
2,20163, Note_on_c, 0, 60, 71
2,20222, Note_on_c, 0, 60, 0
2,20232, Note_on_c, 0, 66, 81
2,20237, Note_on_c, 0, 62, 80
2,20258, Note_on_c, 0, 66, 0
2,20395, Note_on_c, 0, 62, 0
2,20570, Note_on_c, 0, 54, 66
2,20572, Note_on_c, 0, 74, 85
2,20599, Note_on_c, 0, 74, 0
2,20619, Note_on_c, 0, 54, 0
2,20679, Note_on_c, 0, 60, 55
2,20725, Note_on_c, 0, 60, 0
2,20776, Note_on_c, 0, 59, 47
2,20813, Note_on_c, 0, 59, 0
2,20851, Note_on_c, 0, 57, 50
2,20897, Note_on_c, 0, 57, 0
2,20924, Note_on_c, 0, 71, 72
2,20946, Note_on_c, 0, 55, 47
2,20963, Note_on_c, 0, 71, 0
2,21016, Note_on_c, 0, 55, 0
2,21298, Note_on_c, 0, 67, 63
2,21339, Note_on_c, 0, 67, 0
2,21422, Note_on_c, 0, 55, 41
2,21470, Note_on_c, 0, 55, 0
2,21487, Note_on_c, 0, 57, 45
2,21525, Note_on_c, 0, 57, 0
2,21563, Note_on_c, 0, 59, 45
2,21614, Note_on_c, 0, 59, 0
2,21638, Note_on_c, 0, 64, 63
2,21656, Note_on_c, 0, 60, 52
2,21674, Note_on_c, 0, 64, 0
2,21755, Note_on_c, 0, 60, 0
2,21986, Note_on_c, 0, 72, 74
2,22006, Note_on_c, 0, 52, 50
2,22025, Note_on_c, 0, 72, 0
2,22055, Note_on_c, 0, 58, 46
2,22068, Note_on_c, 0, 52, 0
2,22088, Note_on_c, 0, 58, 0
2,22147, Note_on_c, 0, 57, 62
2,22193, Note_on_c, 0, 57, 0
2,22231, Note_on_c, 0, 55, 53
2,22291, Note_on_c, 0, 55, 0
2,22336, Note_on_c, 0, 53, 45
2,22357, Note_on_c, 0, 69, 62
2,22406, Note_on_c, 0, 53, 0
2,22541, Note_on_c, 0, 69, 0
2,22575, Note_on_c, 0, 65, 41
2,22707, Note_on_c, 0, 65, 0
2,22719, Note_on_c, 0, 55, 52
2,22732, Note_on_c, 0, 71, 65
2,22773, Note_on_c, 0, 55, 0
2,22904, Note_on_c, 0, 71, 0
2,22907, Note_on_c, 0, 65, 55
2,23047, Note_on_c, 0, 65, 0
2,23083, Note_on_c, 0, 72, 66
2,23085, Note_on_c, 0, 57, 57
2,23134, Note_on_c, 0, 57, 0
2,23205, Note_on_c, 0, 64, 55
2,23282, Note_on_c, 0, 65, 60
2,23286, Note_on_c, 0, 64, 0
2,23354, Note_on_c, 0, 65, 0
2,23362, Note_on_c, 0, 67, 61
2,23415, Note_on_c, 0, 55, 76
2,23424, Note_on_c, 0, 67, 0
2,23429, Note_on_c, 0, 69, 63
2,23449, Note_on_c, 0, 55, 0
2,23538, Note_on_c, 0, 67, 55
2,23563, Note_on_c, 0, 69, 0
2,23567, Note_on_c, 0, 72, 0
2,23599, Note_on_c, 0, 65, 61
2,23609, Note_on_c, 0, 67, 0
2,23647, Note_on_c, 0, 65, 0
2,23675, Note_on_c, 0, 64, 58
2,23721, Note_on_c, 0, 64, 0
2,23757, Note_on_c, 0, 62, 68
2,23767, Note_on_c, 0, 53, 58
2,23841, Note_on_c, 0, 53, 0
2,23880, Note_on_c, 0, 72, 64
2,23943, Note_on_c, 0, 72, 0
2,23943, Note_on_c, 0, 74, 58
2,23999, Note_on_c, 0, 76, 63
2,24004, Note_on_c, 0, 74, 0
2,24082, Note_on_c, 0, 76, 0
2,24085, Note_on_c, 0, 77, 70
2,24097, Note_on_c, 0, 50, 65
2,24151, Note_on_c, 0, 50, 0
2,24192, Note_on_c, 0, 76, 73
2,24197, Note_on_c, 0, 77, 0
2,24256, Note_on_c, 0, 76, 0
2,24264, Note_on_c, 0, 74, 67
2,24299, Note_on_c, 0, 74, 0
2,24323, Note_on_c, 0, 72, 63
2,24359, Note_on_c, 0, 72, 0
2,24431, Note_on_c, 0, 55, 72
2,24431, Note_on_c, 0, 62, 0
2,24439, Note_on_c, 0, 71, 73
2,24482, Note_on_c, 0, 55, 0
2,24577, Note_on_c, 0, 62, 26
2,24624, Note_on_c, 0, 62, 0
2,24624, Note_on_c, 0, 64, 58
2,24685, Note_on_c, 0, 64, 0
2,24692, Note_on_c, 0, 65, 59
2,24771, Note_on_c, 0, 67, 62
2,24775, Note_on_c, 0, 65, 0
2,24778, Note_on_c, 0, 53, 90
2,24808, Note_on_c, 0, 53, 0
2,24869, Note_on_c, 0, 65, 59
2,24888, Note_on_c, 0, 67, 0
2,24888, Note_on_c, 0, 71, 0
2,24947, Note_on_c, 0, 64, 64
2,24949, Note_on_c, 0, 65, 0
2,24989, Note_on_c, 0, 64, 0
2,25020, Note_on_c, 0, 62, 65
2,25075, Note_on_c, 0, 62, 0
2,25131, Note_on_c, 0, 52, 92
2,25137, Note_on_c, 0, 60, 85
2,25271, Note_on_c, 0, 60, 0
2,25500, Note_on_c, 0, 55, 62
2,25520, Note_on_c, 0, 84, 76
2,25575, Note_on_c, 0, 55, 0
2,25607, Note_on_c, 0, 52, 0
2,25616, Note_on_c, 0, 83, 77
2,25645, Note_on_c, 0, 84, 0
2,25683, Note_on_c, 0, 81, 82
2,25729, Note_on_c, 0, 83, 0
2,25765, Note_on_c, 0, 79, 76
2,25788, Note_on_c, 0, 81, 0
2,25841, Note_on_c, 0, 79, 0
2,25845, Note_on_c, 0, 77, 72
2,25861, Note_on_c, 0, 57, 83
2,25872, Note_on_c, 0, 60, 87
2,25888, Note_on_c, 0, 77, 0
2,25966, Note_on_c, 0, 60, 0
2,26235, Note_on_c, 0, 81, 86
2,26239, Note_on_c, 0, 65, 70
2,26275, Note_on_c, 0, 65, 0
2,26293, Note_on_c, 0, 57, 0
2,26340, Note_on_c, 0, 79, 77
2,26382, Note_on_c, 0, 81, 0
2,26419, Note_on_c, 0, 77, 76
2,26445, Note_on_c, 0, 79, 0
2,26500, Note_on_c, 0, 76, 77
2,26519, Note_on_c, 0, 77, 0
2,26575, Note_on_c, 0, 76, 0
2,26593, Note_on_c, 0, 47, 94
2,26594, Note_on_c, 0, 74, 68
2,26680, Note_on_c, 0, 74, 0
2,26688, Note_on_c, 0, 76, 82
2,26737, Note_on_c, 0, 76, 0
2,26747, Note_on_c, 0, 47, 0
2,26779, Note_on_c, 0, 77, 77
2,26958, Note_on_c, 0, 69, 68
2,26993, Note_on_c, 0, 69, 0
2,27061, Note_on_c, 0, 77, 0
2,27062, Note_on_c, 0, 76, 63
2,27137, Note_on_c, 0, 76, 0
2,27146, Note_on_c, 0, 74, 63
2,27216, Note_on_c, 0, 72, 59
2,27221, Note_on_c, 0, 74, 0
2,27262, Note_on_c, 0, 72, 0
2,27292, Note_on_c, 0, 71, 62
2,27312, Note_on_c, 0, 62, 53
2,27340, Note_on_c, 0, 62, 0
2,27344, Note_on_c, 0, 71, 0
2,27380, Note_on_c, 0, 72, 66
2,27435, Note_on_c, 0, 72, 0
2,27473, Note_on_c, 0, 74, 55
2,27638, Note_on_c, 0, 65, 57
2,27673, Note_on_c, 0, 65, 0
2,27746, Note_on_c, 0, 74, 0
2,27748, Note_on_c, 0, 72, 60
2,27826, Note_on_c, 0, 71, 61
2,27826, Note_on_c, 0, 72, 0
2,27888, Note_on_c, 0, 71, 0
2,27889, Note_on_c, 0, 69, 65
2,27952, Note_on_c, 0, 69, 0
2,27981, Note_on_c, 0, 59, 61
2,27994, Note_on_c, 0, 67, 47
2,28018, Note_on_c, 0, 59, 0
2,28335, Note_on_c, 0, 53, 80
2,28336, Note_on_c, 0, 62, 70
2,28371, Note_on_c, 0, 62, 0
2,28373, Note_on_c, 0, 53, 0
2,28397, Note_on_c, 0, 67, 0
2,28564, Note_on_c, 0, 69, 62
2,28629, Note_on_c, 0, 69, 0
2,28662, Note_on_c, 0, 71, 56
2,28704, Note_on_c, 0, 65, 22
2,28708, Note_on_c, 0, 71, 0
2,28712, Note_on_c, 0, 50, 90
2,28722, Note_on_c, 0, 72, 68
2,28750, Note_on_c, 0, 65, 0
2,28757, Note_on_c, 0, 50, 0
2,28773, Note_on_c, 0, 72, 0
2,28816, Note_on_c, 0, 71, 64
2,28867, Note_on_c, 0, 71, 0
2,28904, Note_on_c, 0, 72, 64
2,28942, Note_on_c, 0, 72, 0
2,28976, Note_on_c, 0, 71, 63
2,29015, Note_on_c, 0, 71, 0
2,29022, Note_on_c, 0, 72, 73
2,29044, Note_on_c, 0, 55, 82
2,29046, Note_on_c, 0, 62, 72
2,29080, Note_on_c, 0, 55, 0
2,29080, Note_on_c, 0, 62, 0
2,29112, Note_on_c, 0, 71, 63
2,29112, Note_on_c, 0, 72, 0
2,29176, Note_on_c, 0, 71, 0
2,29201, Note_on_c, 0, 69, 71
2,29264, Note_on_c, 0, 69, 0
2,29300, Note_on_c, 0, 71, 64
2,29364, Note_on_c, 0, 71, 0
2,29390, Note_on_c, 0, 52, 65
2,29404, Note_on_c, 0, 72, 56
2,29407, Note_on_c, 0, 67, 51
2,29456, Note_on_c, 0, 67, 0
2,29750, Note_on_c, 0, 60, 68
2,29790, Note_on_c, 0, 72, 0
2,29800, Note_on_c, 0, 60, 0
2,29802, Note_on_c, 0, 52, 0
2,29940, Note_on_c, 0, 52, 49
2,29986, Note_on_c, 0, 52, 0
2,29996, Note_on_c, 0, 54, 65
2,30045, Note_on_c, 0, 54, 0
2,30077, Note_on_c, 0, 55, 71
2,30092, Note_on_c, 0, 57, 79
2,30132, Note_on_c, 0, 55, 0
2,30132, Note_on_c, 0, 57, 0
2,30173, Note_on_c, 0, 54, 58
2,30211, Note_on_c, 0, 54, 0
2,30250, Note_on_c, 0, 55, 54
2,30284, Note_on_c, 0, 55, 0
2,30300, Note_on_c, 0, 54, 71
2,30344, Note_on_c, 0, 54, 0
2,30376, Note_on_c, 0, 55, 65
2,30407, Note_on_c, 0, 62, 86
2,30417, Note_on_c, 0, 55, 0
2,30434, Note_on_c, 0, 62, 0
2,30461, Note_on_c, 0, 54, 40
2,30497, Note_on_c, 0, 55, 58
2,30501, Note_on_c, 0, 54, 0
2,30534, Note_on_c, 0, 55, 0
2,30541, Note_on_c, 0, 54, 74
2,30603, Note_on_c, 0, 54, 0
2,30619, Note_on_c, 0, 52, 64
2,30664, Note_on_c, 0, 52, 0
2,30681, Note_on_c, 0, 54, 62
2,30716, Note_on_c, 0, 54, 0
2,30755, Note_on_c, 0, 55, 85
2,30767, Note_on_c, 0, 59, 73
2,30804, Note_on_c, 0, 55, 0
2,31099, Note_on_c, 0, 52, 75
2,31103, Note_on_c, 0, 59, 0
2,31125, Note_on_c, 0, 67, 73
2,31139, Note_on_c, 0, 52, 0
2,31156, Note_on_c, 0, 67, 0
2,31356, Note_on_c, 0, 59, 58
2,31396, Note_on_c, 0, 59, 0
2,31410, Note_on_c, 0, 61, 68
2,31462, Note_on_c, 0, 61, 0
2,31470, Note_on_c, 0, 64, 79
2,31499, Note_on_c, 0, 62, 68
2,31500, Note_on_c, 0, 64, 0
2,31510, Note_on_c, 0, 57, 64
2,31541, Note_on_c, 0, 62, 0
2,31592, Note_on_c, 0, 61, 66
2,31628, Note_on_c, 0, 61, 0
2,31658, Note_on_c, 0, 62, 66
2,31700, Note_on_c, 0, 62, 0
2,31718, Note_on_c, 0, 61, 65
2,31765, Note_on_c, 0, 61, 0
2,31795, Note_on_c, 0, 62, 70
2,31803, Note_on_c, 0, 69, 91
2,31825, Note_on_c, 0, 69, 0
2,31827, Note_on_c, 0, 62, 0
2,31869, Note_on_c, 0, 61, 44
2,31906, Note_on_c, 0, 61, 0
2,31923, Note_on_c, 0, 62, 29
2,31942, Note_on_c, 0, 62, 0
2,31958, Note_on_c, 0, 61, 70
2,31977, Note_on_c, 0, 57, 0
2,32006, Note_on_c, 0, 61, 0
2,32026, Note_on_c, 0, 59, 66
2,32074, Note_on_c, 0, 59, 0
2,32093, Note_on_c, 0, 61, 74
2,32131, Note_on_c, 0, 61, 0
2,32145, Note_on_c, 0, 66, 75
2,32159, Note_on_c, 0, 62, 58
2,32477, Note_on_c, 0, 50, 88
2,32504, Note_on_c, 0, 66, 0
2,32508, Note_on_c, 0, 50, 0
2,32656, Note_on_c, 0, 62, 0
2,32688, Note_on_c, 0, 66, 58
2,32766, Note_on_c, 0, 66, 0
2,32779, Note_on_c, 0, 68, 51
2,32828, Note_on_c, 0, 68, 0
2,32839, Note_on_c, 0, 47, 85
2,32848, Note_on_c, 0, 69, 66
2,32874, Note_on_c, 0, 47, 0
2,32896, Note_on_c, 0, 69, 0
2,32937, Note_on_c, 0, 68, 69
2,32987, Note_on_c, 0, 68, 0
2,33022, Note_on_c, 0, 69, 61
2,33068, Note_on_c, 0, 69, 0
2,33101, Note_on_c, 0, 68, 67
2,33137, Note_on_c, 0, 68, 0
2,33155, Note_on_c, 0, 69, 68
2,33177, Note_on_c, 0, 52, 74
2,33208, Note_on_c, 0, 52, 0
2,33222, Note_on_c, 0, 69, 0
2,33227, Note_on_c, 0, 68, 64
2,33314, Note_on_c, 0, 68, 0
2,33342, Note_on_c, 0, 66, 56
2,33431, Note_on_c, 0, 66, 0
2,33444, Note_on_c, 0, 68, 67
2,33482, Note_on_c, 0, 68, 0
2,33527, Note_on_c, 0, 48, 68
2,33528, Note_on_c, 0, 69, 76
2,33566, Note_on_c, 0, 48, 0
2,33728, Note_on_c, 0, 69, 0
2,33728, Note_on_c, 0, 71, 70
2,33796, Note_on_c, 0, 71, 0
2,33799, Note_on_c, 0, 72, 73
2,33829, Note_on_c, 0, 72, 0
2,33852, Note_on_c, 0, 45, 82
2,33878, Note_on_c, 0, 74, 77
2,33889, Note_on_c, 0, 45, 0
2,33958, Note_on_c, 0, 74, 0
2,33960, Note_on_c, 0, 76, 75
2,34023, Note_on_c, 0, 78, 79
2,34029, Note_on_c, 0, 76, 0
2,34108, Note_on_c, 0, 80, 74
2,34117, Note_on_c, 0, 78, 0
2,34202, Note_on_c, 0, 42, 80
2,34209, Note_on_c, 0, 81, 87
2,34217, Note_on_c, 0, 80, 0
2,34277, Note_on_c, 0, 42, 0
2,34448, Note_on_c, 0, 72, 48
2,34521, Note_on_c, 0, 72, 0
2,34557, Note_on_c, 0, 51, 80
2,34596, Note_on_c, 0, 71, 41
2,34607, Note_on_c, 0, 51, 0
2,34639, Note_on_c, 0, 71, 0
2,34750, Note_on_c, 0, 78, 76
2,34778, Note_on_c, 0, 81, 0
2,34818, Note_on_c, 0, 78, 0
2,34918, Note_on_c, 0, 40, 67
2,34928, Note_on_c, 0, 79, 88
2,35045, Note_on_c, 0, 40, 0
2,35139, Note_on_c, 0, 71, 60
2,35172, Note_on_c, 0, 71, 0
2,35296, Note_on_c, 0, 76, 65
2,35344, Note_on_c, 0, 79, 0
2,35373, Note_on_c, 0, 74, 66
2,35382, Note_on_c, 0, 76, 0
2,35405, Note_on_c, 0, 74, 0
2,35444, Note_on_c, 0, 72, 59
2,35498, Note_on_c, 0, 72, 0
2,35516, Note_on_c, 0, 71, 62
2,35584, Note_on_c, 0, 71, 0
2,35616, Note_on_c, 0, 69, 58
2,35636, Note_on_c, 0, 84, 88
2,35983, Note_on_c, 0, 84, 0
2,35996, Note_on_c, 0, 69, 0
2,36005, Note_on_c, 0, 72, 69
2,36066, Note_on_c, 0, 72, 0
2,36091, Note_on_c, 0, 71, 68
2,36164, Note_on_c, 0, 69, 69
2,36165, Note_on_c, 0, 71, 0
2,36236, Note_on_c, 0, 67, 59
2,36239, Note_on_c, 0, 69, 0
2,36331, Note_on_c, 0, 75, 88
2,36337, Note_on_c, 0, 67, 0
2,36340, Note_on_c, 0, 66, 71
2,36437, Note_on_c, 0, 66, 0
2,36467, Note_on_c, 0, 67, 60
2,36537, Note_on_c, 0, 67, 0
2,36541, Note_on_c, 0, 69, 66
2,36656, Note_on_c, 0, 60, 95
2,36664, Note_on_c, 0, 75, 0
2,36680, Note_on_c, 0, 69, 0
2,36691, Note_on_c, 0, 60, 0
2,36708, Note_on_c, 0, 67, 54
2,36758, Note_on_c, 0, 67, 0
2,36817, Note_on_c, 0, 66, 67
2,36878, Note_on_c, 0, 66, 0
2,36902, Note_on_c, 0, 64, 66
2,36954, Note_on_c, 0, 64, 0
2,36993, Note_on_c, 0, 63, 61
2,37018, Note_on_c, 0, 54, 86
2,37052, Note_on_c, 0, 63, 0
2,37053, Note_on_c, 0, 54, 0
2,37079, Note_on_c, 0, 64, 61
2,37147, Note_on_c, 0, 64, 0
2,37178, Note_on_c, 0, 66, 55
2,37359, Note_on_c, 0, 57, 87
2,37391, Note_on_c, 0, 57, 0
2,37440, Note_on_c, 0, 66, 0
2,37463, Note_on_c, 0, 64, 62
2,37540, Note_on_c, 0, 63, 58
2,37563, Note_on_c, 0, 64, 0
2,37591, Note_on_c, 0, 61, 68
2,37634, Note_on_c, 0, 63, 0
2,37676, Note_on_c, 0, 61, 0
2,37710, Note_on_c, 0, 59, 80
2,37714, Note_on_c, 0, 51, 55
2,37730, Note_on_c, 0, 50, 69
2,37765, Note_on_c, 0, 50, 0
2,37767, Note_on_c, 0, 51, 0
2,38056, Note_on_c, 0, 54, 67
2,38064, Note_on_c, 0, 81, 90
2,38103, Note_on_c, 0, 54, 0
2,38104, Note_on_c, 0, 81, 0
2,38192, Note_on_c, 0, 59, 0
2,38219, Note_on_c, 0, 61, 60
2,38279, Note_on_c, 0, 61, 0
2,38314, Note_on_c, 0, 63, 66
2,38382, Note_on_c, 0, 63, 0
2,38415, Note_on_c, 0, 64, 73
2,38421, Note_on_c, 0, 78, 81
2,38425, Note_on_c, 0, 59, 68
2,38463, Note_on_c, 0, 78, 0
2,38468, Note_on_c, 0, 64, 0
2,38514, Note_on_c, 0, 63, 66
2,38552, Note_on_c, 0, 63, 0
2,38580, Note_on_c, 0, 64, 68
2,38620, Note_on_c, 0, 64, 0
2,38636, Note_on_c, 0, 63, 72
2,38688, Note_on_c, 0, 63, 0
2,38733, Note_on_c, 0, 64, 56
2,38759, Note_on_c, 0, 64, 0
2,38766, Note_on_c, 0, 83, 91
2,38791, Note_on_c, 0, 63, 46
2,38792, Note_on_c, 0, 83, 0
2,38825, Note_on_c, 0, 63, 0
2,38872, Note_on_c, 0, 61, 58
2,38929, Note_on_c, 0, 59, 0
2,38986, Note_on_c, 0, 63, 84
2,38990, Note_on_c, 0, 61, 0
2,39050, Note_on_c, 0, 63, 0
2,39113, Note_on_c, 0, 79, 80
2,39122, Note_on_c, 0, 64, 80
2,39123, Note_on_c, 0, 52, 79
2,39142, Note_on_c, 0, 79, 0
2,39311, Note_on_c, 0, 64, 0
2,39346, Note_on_c, 0, 52, 0
2,39495, Note_on_c, 0, 76, 80
2,39528, Note_on_c, 0, 76, 0
2,39633, Note_on_c, 0, 40, 61
2,39696, Note_on_c, 0, 41, 76
2,39731, Note_on_c, 0, 40, 0
2,39748, Note_on_c, 0, 43, 80
2,39755, Note_on_c, 0, 41, 0
2,39815, Note_on_c, 0, 73, 74
2,39818, Note_on_c, 0, 45, 88
2,39845, Note_on_c, 0, 73, 0
2,39858, Note_on_c, 0, 43, 0
2,40090, Note_on_c, 0, 45, 0
2,40167, Note_on_c, 0, 81, 92
2,40209, Note_on_c, 0, 81, 0
2,40307, Note_on_c, 0, 43, 70
2,40370, Note_on_c, 0, 43, 0
2,40382, Note_on_c, 0, 41, 72
2,40445, Note_on_c, 0, 41, 0
2,40446, Note_on_c, 0, 40, 70
2,40514, Note_on_c, 0, 38, 89
2,40527, Note_on_c, 0, 40, 0
2,40530, Note_on_c, 0, 77, 74
2,40546, Note_on_c, 0, 38, 0
2,40808, Note_on_c, 0, 77, 0
2,40879, Note_on_c, 0, 62, 65
2,40913, Note_on_c, 0, 62, 0
2,41014, Note_on_c, 0, 74, 43
2,41054, Note_on_c, 0, 74, 0
2,41089, Note_on_c, 0, 76, 43
2,41119, Note_on_c, 0, 76, 0
2,41133, Note_on_c, 0, 77, 58
2,41223, Note_on_c, 0, 77, 0
2,41224, Note_on_c, 0, 59, 56
2,41241, Note_on_c, 0, 79, 52
2,41261, Note_on_c, 0, 59, 0
2,41572, Note_on_c, 0, 67, 44
2,41579, Note_on_c, 0, 79, 0
2,41609, Note_on_c, 0, 67, 0
2,41674, Note_on_c, 0, 77, 60
2,41733, Note_on_c, 0, 77, 0
2,41744, Note_on_c, 0, 76, 61
2,41798, Note_on_c, 0, 76, 0
2,41815, Note_on_c, 0, 74, 53
2,41863, Note_on_c, 0, 74, 0
2,41915, Note_on_c, 0, 72, 48
2,41921, Note_on_c, 0, 64, 44
2,41955, Note_on_c, 0, 64, 0
2,42229, Note_on_c, 0, 72, 0
2,42255, Note_on_c, 0, 57, 76
2,42297, Note_on_c, 0, 57, 0
2,42383, Note_on_c, 0, 76, 49
2,42417, Note_on_c, 0, 76, 0
2,42498, Note_on_c, 0, 77, 55
2,42571, Note_on_c, 0, 77, 0
2,42604, Note_on_c, 0, 79, 54
2,42608, Note_on_c, 0, 53, 74
2,42659, Note_on_c, 0, 79, 0
2,42674, Note_on_c, 0, 53, 0
2,42681, Note_on_c, 0, 81, 63
2,42746, Note_on_c, 0, 81, 0
2,42794, Note_on_c, 0, 82, 60
2,42873, Note_on_c, 0, 82, 0
2,42874, Note_on_c, 0, 81, 63
2,42935, Note_on_c, 0, 81, 0
2,42939, Note_on_c, 0, 79, 64
2,42960, Note_on_c, 0, 62, 72
2,42975, Note_on_c, 0, 79, 0
2,42995, Note_on_c, 0, 62, 0
2,43010, Note_on_c, 0, 77, 65
2,43044, Note_on_c, 0, 77, 0
2,43088, Note_on_c, 0, 76, 62
2,43155, Note_on_c, 0, 74, 72
2,43162, Note_on_c, 0, 76, 0
2,43192, Note_on_c, 0, 74, 0
2,43220, Note_on_c, 0, 72, 66
2,43267, Note_on_c, 0, 72, 0
2,43286, Note_on_c, 0, 56, 70
2,43309, Note_on_c, 0, 71, 62
2,43320, Note_on_c, 0, 56, 0
2,43343, Note_on_c, 0, 71, 0
2,43378, Note_on_c, 0, 72, 76
2,43443, Note_on_c, 0, 72, 0
2,43470, Note_on_c, 0, 71, 70
2,43519, Note_on_c, 0, 71, 0
2,43550, Note_on_c, 0, 69, 72
2,43600, Note_on_c, 0, 52, 85
2,43607, Note_on_c, 0, 69, 0
2,43633, Note_on_c, 0, 68, 76
2,43637, Note_on_c, 0, 52, 0
2,43713, Note_on_c, 0, 66, 76
2,43714, Note_on_c, 0, 68, 0
2,43799, Note_on_c, 0, 64, 64
2,43800, Note_on_c, 0, 66, 0
2,43836, Note_on_c, 0, 64, 0
2,43859, Note_on_c, 0, 62, 68
2,43901, Note_on_c, 0, 62, 0
2,43940, Note_on_c, 0, 60, 76
2,43944, Note_on_c, 0, 57, 75
2,44076, Note_on_c, 0, 64, 61
2,44151, Note_on_c, 0, 64, 0
2,44167, Note_on_c, 0, 65, 63
2,44252, Note_on_c, 0, 67, 67
2,44258, Note_on_c, 0, 65, 0
2,44308, Note_on_c, 0, 69, 81
2,44317, Note_on_c, 0, 72, 79
2,44319, Note_on_c, 0, 67, 0
2,44347, Note_on_c, 0, 60, 0
2,44402, Note_on_c, 0, 67, 71
2,44428, Note_on_c, 0, 69, 0
2,44436, Note_on_c, 0, 72, 0
2,44468, Note_on_c, 0, 65, 65
2,44471, Note_on_c, 0, 67, 0
2,44509, Note_on_c, 0, 65, 0
2,44524, Note_on_c, 0, 57, 0
2,44539, Note_on_c, 0, 64, 71
2,44626, Note_on_c, 0, 64, 0
2,44649, Note_on_c, 0, 62, 73
2,44652, Note_on_c, 0, 71, 84
2,44700, Note_on_c, 0, 62, 0
2,44773, Note_on_c, 0, 57, 63
2,44839, Note_on_c, 0, 57, 0
2,44849, Note_on_c, 0, 59, 66
2,44902, Note_on_c, 0, 59, 0
2,44919, Note_on_c, 0, 60, 61
2,44973, Note_on_c, 0, 60, 0
2,45003, Note_on_c, 0, 62, 68
2,45013, Note_on_c, 0, 65, 71
2,45045, Note_on_c, 0, 65, 0
2,45078, Note_on_c, 0, 62, 0
2,45104, Note_on_c, 0, 60, 66
2,45152, Note_on_c, 0, 60, 0
2,45169, Note_on_c, 0, 59, 65
2,45217, Note_on_c, 0, 59, 0
2,45237, Note_on_c, 0, 57, 70
2,45335, Note_on_c, 0, 57, 0
2,45343, Note_on_c, 0, 56, 70
2,45349, Note_on_c, 0, 59, 92
2,45379, Control_c, 0, 64, 44
2,45397, Control_c, 0, 64, 56
2,45417, Control_c, 0, 64, 62
2,45436, Control_c, 0, 64, 65
2,45441, Note_on_c, 0, 56, 0
2,45455, Control_c, 0, 64, 67
2,45465, Note_on_c, 0, 57, 72
2,45474, Control_c, 0, 64, 69
2,45493, Control_c, 0, 64, 71
2,45513, Control_c, 0, 64, 76
2,45524, Note_on_c, 0, 57, 0
2,45532, Control_c, 0, 64, 81
2,45536, Note_on_c, 0, 56, 75
2,45551, Control_c, 0, 64, 87
2,45570, Control_c, 0, 64, 95
2,45590, Control_c, 0, 64, 101
2,45603, Note_on_c, 0, 59, 0
2,45608, Control_c, 0, 64, 108
2,45620, Note_on_c, 0, 54, 80
2,45626, Note_on_c, 0, 56, 0
2,45628, Control_c, 0, 64, 119
2,45647, Control_c, 0, 64, 127
2,45694, Note_on_c, 0, 54, 0
2,45699, Note_on_c, 0, 62, 70
2,45701, Control_c, 0, 64, 101
2,45709, Note_on_c, 0, 52, 79
2,45720, Control_c, 0, 64, 77
2,45733, Note_on_c, 0, 62, 0
2,45740, Control_c, 0, 64, 58
2,45758, Control_c, 0, 64, 0
2,45814, Note_on_c, 0, 52, 0
2,45818, Note_on_c, 0, 50, 77
2,45899, Note_on_c, 0, 48, 75
2,45899, Note_on_c, 0, 50, 0
2,45972, Note_on_c, 0, 47, 69
2,45981, Note_on_c, 0, 48, 0
2,46068, Note_on_c, 0, 45, 66
2,46072, Note_on_c, 0, 47, 0
2,46074, Note_on_c, 0, 60, 98
2,46143, Control_c, 0, 64, 35
2,46162, Control_c, 0, 64, 58
2,46173, Note_on_c, 0, 71, 0
2,46181, Control_c, 0, 64, 65
2,46193, Note_on_c, 0, 45, 0
2,46200, Control_c, 0, 64, 70
2,46215, Control_c, 0, 64, 76
2,46235, Control_c, 0, 64, 84
2,46253, Control_c, 0, 64, 92
2,46273, Control_c, 0, 64, 97
2,46292, Control_c, 0, 64, 101
2,46312, Control_c, 0, 64, 104
2,46330, Control_c, 0, 64, 108
2,46334, Note_on_c, 0, 64, 69
2,46350, Control_c, 0, 64, 110
2,46427, Control_c, 0, 64, 107
2,46446, Control_c, 0, 64, 99
2,46465, Control_c, 0, 64, 90
2,46478, Note_on_c, 0, 64, 0
2,46478, Note_on_c, 0, 69, 79
2,46484, Control_c, 0, 64, 82
2,46504, Control_c, 0, 64, 76
2,46511, Note_on_c, 0, 57, 70
2,46522, Control_c, 0, 64, 68
2,46542, Control_c, 0, 64, 61
2,46561, Control_c, 0, 64, 57
2,46581, Control_c, 0, 64, 56
2,46595, Note_on_c, 0, 55, 71
2,46596, Note_on_c, 0, 57, 0
2,46599, Control_c, 0, 64, 55
2,46619, Control_c, 0, 64, 47
2,46638, Control_c, 0, 64, 27
2,46658, Note_on_c, 0, 60, 0
2,46665, Control_c, 0, 64, 18
2,46669, Note_on_c, 0, 53, 75
2,46673, Note_on_c, 0, 69, 0
2,46678, Note_on_c, 0, 55, 0
2,46684, Control_c, 0, 64, 21
2,46722, Control_c, 0, 64, 18
2,46722, Note_on_c, 0, 52, 65
2,46742, Control_c, 0, 64, 0
2,46759, Note_on_c, 0, 53, 0
2,46823, Note_on_c, 0, 50, 70
2,46831, Note_on_c, 0, 65, 88
2,46851, Note_on_c, 0, 52, 0
2,47028, Note_on_c, 0, 57, 60
2,47196, Note_on_c, 0, 50, 0
2,47202, Note_on_c, 0, 53, 76
2,47214, Note_on_c, 0, 62, 61
2,47253, Note_on_c, 0, 57, 0
2,47254, Note_on_c, 0, 65, 0
2,47286, Note_on_c, 0, 52, 78
2,47290, Note_on_c, 0, 53, 0
2,47290, Note_on_c, 0, 62, 0
2,47367, Note_on_c, 0, 50, 67
2,47374, Note_on_c, 0, 52, 0
2,47429, Note_on_c, 0, 48, 62
2,47439, Note_on_c, 0, 50, 0
2,47519, Note_on_c, 0, 47, 74
2,47534, Note_on_c, 0, 48, 0
2,47559, Note_on_c, 0, 56, 98
2,47602, Control_c, 0, 64, 58
2,47622, Control_c, 0, 64, 67
2,47641, Control_c, 0, 64, 80
2,47641, Note_on_c, 0, 47, 0
2,47641, Note_on_c, 0, 48, 75
2,47653, Note_on_c, 0, 56, 0
2,47660, Control_c, 0, 64, 127
2,47727, Note_on_c, 0, 48, 0
2,47737, Note_on_c, 0, 50, 84
2,47930, Control_c, 0, 64, 92
2,47941, Note_on_c, 0, 77, 91
2,47948, Control_c, 0, 64, 11
2,47968, Control_c, 0, 64, 0
2,47984, Note_on_c, 0, 77, 0
2,48040, Note_on_c, 0, 50, 0
2,48045, Note_on_c, 0, 48, 68
2,48121, Note_on_c, 0, 47, 72
2,48127, Note_on_c, 0, 48, 0
2,48190, Note_on_c, 0, 47, 0
2,48197, Note_on_c, 0, 45, 69
2,48295, Note_on_c, 0, 71, 80
2,48305, Note_on_c, 0, 44, 73
2,48306, Note_on_c, 0, 45, 0
2,48324, Note_on_c, 0, 71, 0
2,48392, Note_on_c, 0, 45, 59
2,48441, Note_on_c, 0, 44, 0
2,48474, Note_on_c, 0, 45, 0
2,48477, Note_on_c, 0, 47, 75
2,48643, Note_on_c, 0, 74, 80
2,48704, Note_on_c, 0, 74, 0
2,48771, Note_on_c, 0, 45, 73
2,48784, Note_on_c, 0, 47, 0
2,48838, Note_on_c, 0, 44, 65
2,48866, Note_on_c, 0, 45, 0
2,48908, Note_on_c, 0, 42, 67
2,48933, Note_on_c, 0, 44, 0
2,49013, Note_on_c, 0, 40, 70
2,49013, Note_on_c, 0, 68, 69
2,49023, Note_on_c, 0, 42, 0
2,49384, Note_on_c, 0, 62, 79
2,49444, Note_on_c, 0, 62, 0
2,49530, Note_on_c, 0, 40, 0
2,49551, Note_on_c, 0, 42, 53
2,49630, Note_on_c, 0, 42, 0
2,49647, Note_on_c, 0, 44, 51
2,49714, Note_on_c, 0, 44, 0
2,49739, Note_on_c, 0, 45, 60
2,49750, Note_on_c, 0, 59, 84
2,49750, Note_on_c, 0, 71, 75
2,49775, Note_on_c, 0, 68, 0
2,49798, Note_on_c, 0, 45, 0
2,49832, Note_on_c, 0, 59, 0
2,49841, Note_on_c, 0, 44, 57
2,49882, Note_on_c, 0, 44, 0
2,49909, Note_on_c, 0, 45, 58
2,49949, Note_on_c, 0, 45, 0
2,50004, Note_on_c, 0, 44, 38
2,50055, Note_on_c, 0, 45, 50
2,50087, Note_on_c, 0, 44, 0
2,50093, Note_on_c, 0, 45, 0
2,50094, Note_on_c, 0, 64, 75
2,50109, Note_on_c, 0, 44, 27
2,50127, Note_on_c, 0, 64, 0
2,50156, Note_on_c, 0, 45, 46
2,50158, Note_on_c, 0, 44, 0
2,50193, Note_on_c, 0, 45, 0
2,50225, Note_on_c, 0, 44, 51
2,50270, Note_on_c, 0, 44, 0
2,50297, Note_on_c, 0, 42, 60
2,50358, Note_on_c, 0, 42, 0
2,50396, Note_on_c, 0, 44, 40
2,50440, Note_on_c, 0, 44, 0
2,50487, Note_on_c, 0, 45, 48
2,50505, Note_on_c, 0, 60, 45
2,50522, Note_on_c, 0, 71, 0
2,50643, Note_on_c, 0, 60, 0
2,50897, Note_on_c, 0, 76, 57
2,50959, Note_on_c, 0, 76, 0
2,50970, Note_on_c, 0, 45, 0
2,50970, Note_on_c, 0, 74, 55
2,51042, Note_on_c, 0, 72, 66
2,51050, Note_on_c, 0, 74, 0
2,51085, Note_on_c, 0, 47, 36
2,51122, Note_on_c, 0, 72, 0
2,51128, Note_on_c, 0, 71, 65
2,51145, Note_on_c, 0, 47, 0
2,51172, Note_on_c, 0, 48, 26
2,51173, Note_on_c, 0, 71, 0
2,51223, Note_on_c, 0, 49, 49
2,51225, Note_on_c, 0, 48, 0
2,51226, Note_on_c, 0, 69, 57
2,51258, Note_on_c, 0, 49, 0
2,51283, Note_on_c, 0, 50, 54
2,51338, Note_on_c, 0, 50, 0
2,51363, Note_on_c, 0, 49, 63
2,51403, Note_on_c, 0, 49, 0
2,51429, Note_on_c, 0, 73, 63
2,51448, Note_on_c, 0, 50, 60
2,51490, Note_on_c, 0, 50, 0
2,51500, Note_on_c, 0, 73, 0
2,51504, Note_on_c, 0, 49, 65
2,51510, Note_on_c, 0, 76, 69
2,51547, Note_on_c, 0, 49, 0
2,51551, Note_on_c, 0, 76, 0
2,51584, Note_on_c, 0, 50, 61
2,51602, Note_on_c, 0, 79, 69
2,51612, Note_on_c, 0, 50, 0
2,51648, Note_on_c, 0, 49, 55
2,51685, Note_on_c, 0, 49, 0
2,51720, Note_on_c, 0, 50, 37
2,51749, Note_on_c, 0, 49, 65
2,51770, Note_on_c, 0, 50, 0
2,51792, Note_on_c, 0, 49, 0
2,51820, Note_on_c, 0, 47, 57
2,51862, Note_on_c, 0, 47, 0
2,51889, Note_on_c, 0, 49, 62
2,51940, Note_on_c, 0, 49, 0
2,51970, Note_on_c, 0, 77, 53
2,51976, Note_on_c, 0, 50, 50
2,51994, Note_on_c, 0, 69, 0
2,51997, Note_on_c, 0, 79, 0
2,52084, Note_on_c, 0, 77, 0
2,52330, Note_on_c, 0, 69, 68
2,52415, Note_on_c, 0, 50, 0
2,52415, Note_on_c, 0, 67, 68
2,52450, Note_on_c, 0, 69, 0
2,52490, Note_on_c, 0, 65, 75
2,52510, Note_on_c, 0, 52, 51
2,52526, Note_on_c, 0, 67, 0
2,52577, Note_on_c, 0, 64, 74
2,52580, Note_on_c, 0, 53, 61
2,52589, Note_on_c, 0, 52, 0
2,52596, Note_on_c, 0, 65, 0
2,52625, Note_on_c, 0, 53, 0
2,52636, Note_on_c, 0, 54, 71
2,52653, Note_on_c, 0, 64, 0
2,52674, Note_on_c, 0, 62, 70
2,52682, Note_on_c, 0, 54, 0
2,52699, Note_on_c, 0, 55, 67
2,52759, Note_on_c, 0, 55, 0
2,52804, Note_on_c, 0, 54, 60
2,52845, Note_on_c, 0, 54, 0
2,52859, Note_on_c, 0, 66, 65
2,52867, Note_on_c, 0, 55, 66
2,52876, Note_on_c, 0, 62, 0
2,52909, Note_on_c, 0, 55, 0
2,52931, Note_on_c, 0, 54, 72
2,52931, Note_on_c, 0, 69, 75
2,52934, Note_on_c, 0, 66, 0
2,52976, Note_on_c, 0, 54, 0
2,52997, Note_on_c, 0, 55, 73
2,53020, Note_on_c, 0, 69, 0
2,53021, Note_on_c, 0, 72, 76
2,53044, Note_on_c, 0, 55, 0
2,53074, Note_on_c, 0, 54, 60
2,53110, Note_on_c, 0, 54, 0
2,53131, Note_on_c, 0, 55, 55
2,53175, Note_on_c, 0, 55, 0
2,53182, Note_on_c, 0, 54, 82
2,53251, Note_on_c, 0, 54, 0
2,53268, Note_on_c, 0, 52, 69
2,53319, Note_on_c, 0, 52, 0
2,53325, Note_on_c, 0, 72, 0
2,53347, Note_on_c, 0, 54, 49
2,53384, Note_on_c, 0, 54, 0
2,53394, Note_on_c, 0, 71, 68
2,53405, Note_on_c, 0, 55, 69
2,53432, Note_on_c, 0, 71, 0
2,53626, Note_on_c, 0, 74, 56
2,53690, Note_on_c, 0, 74, 0
2,53703, Note_on_c, 0, 72, 70
2,53766, Note_on_c, 0, 72, 0
2,53796, Note_on_c, 0, 71, 65
2,53896, Note_on_c, 0, 71, 0
2,53936, Note_on_c, 0, 55, 0
2,53990, Note_on_c, 0, 57, 51
2,53991, Note_on_c, 0, 72, 61
2,54036, Note_on_c, 0, 57, 0
2,54061, Note_on_c, 0, 72, 0
2,54064, Note_on_c, 0, 59, 58
2,54066, Note_on_c, 0, 74, 60
2,54103, Note_on_c, 0, 59, 0
2,54141, Note_on_c, 0, 60, 62
2,54149, Note_on_c, 0, 74, 0
2,54159, Note_on_c, 0, 67, 57
2,54194, Note_on_c, 0, 60, 0
2,54203, Note_on_c, 0, 67, 0
2,54224, Note_on_c, 0, 59, 65
2,54267, Note_on_c, 0, 59, 0
2,54294, Note_on_c, 0, 60, 65
2,54342, Note_on_c, 0, 60, 0
2,54365, Note_on_c, 0, 59, 63
2,54403, Note_on_c, 0, 59, 0
2,54427, Note_on_c, 0, 60, 62
2,54467, Note_on_c, 0, 60, 0
2,54470, Note_on_c, 0, 77, 68
2,54484, Note_on_c, 0, 59, 74
2,54505, Note_on_c, 0, 77, 0
2,54521, Note_on_c, 0, 59, 0
2,54551, Note_on_c, 0, 60, 59
2,54586, Note_on_c, 0, 60, 0
2,54597, Note_on_c, 0, 59, 73
2,54650, Note_on_c, 0, 59, 0
2,54665, Note_on_c, 0, 57, 65
2,54721, Note_on_c, 0, 57, 0
2,54746, Note_on_c, 0, 59, 72
2,54793, Note_on_c, 0, 59, 0
2,54826, Note_on_c, 0, 76, 65
2,54832, Note_on_c, 0, 60, 65
2,54921, Note_on_c, 0, 76, 0
2,55043, Note_on_c, 0, 67, 56
2,55094, Note_on_c, 0, 67, 0
2,55116, Note_on_c, 0, 65, 69
2,55204, Note_on_c, 0, 65, 0
2,55209, Note_on_c, 0, 64, 78
2,55382, Note_on_c, 0, 64, 0
2,55390, Note_on_c, 0, 60, 0
2,55403, Note_on_c, 0, 62, 67
2,55419, Note_on_c, 0, 65, 70
2,55453, Note_on_c, 0, 62, 0
2,55464, Note_on_c, 0, 64, 65
2,55473, Note_on_c, 0, 65, 0
2,55479, Note_on_c, 0, 67, 70
2,55535, Note_on_c, 0, 64, 0
2,55537, Note_on_c, 0, 67, 0
2,55574, Note_on_c, 0, 60, 70
2,55575, Note_on_c, 0, 65, 67
2,55635, Note_on_c, 0, 65, 0
2,55640, Note_on_c, 0, 64, 66
2,55667, Note_on_c, 0, 60, 0
2,55694, Note_on_c, 0, 64, 0
2,55732, Note_on_c, 0, 65, 65
2,55774, Note_on_c, 0, 65, 0
2,55795, Note_on_c, 0, 64, 59
2,55827, Note_on_c, 0, 64, 0
2,55853, Note_on_c, 0, 65, 59
2,55888, Note_on_c, 0, 65, 0
2,55900, Note_on_c, 0, 70, 86
2,55906, Note_on_c, 0, 64, 76
2,55936, Note_on_c, 0, 70, 0
2,55947, Note_on_c, 0, 64, 0
2,55973, Note_on_c, 0, 65, 74
2,56031, Note_on_c, 0, 65, 0
2,56053, Note_on_c, 0, 64, 72
2,56082, Note_on_c, 0, 62, 70
2,56085, Note_on_c, 0, 64, 0
2,56168, Note_on_c, 0, 62, 0
2,56174, Note_on_c, 0, 64, 69
2,56259, Note_on_c, 0, 64, 0
2,56267, Note_on_c, 0, 65, 74
2,56272, Note_on_c, 0, 69, 74
2,56500, Note_on_c, 0, 71, 70
2,56505, Note_on_c, 0, 69, 0
2,56574, Note_on_c, 0, 71, 0
2,56575, Note_on_c, 0, 73, 79
2,56611, Note_on_c, 0, 73, 0
2,56665, Note_on_c, 0, 74, 81
2,56798, Note_on_c, 0, 65, 0
2,56839, Note_on_c, 0, 67, 60
2,56891, Note_on_c, 0, 67, 0
2,56913, Note_on_c, 0, 69, 78
2,56998, Note_on_c, 0, 69, 0
2,57026, Note_on_c, 0, 70, 76
2,57032, Note_on_c, 0, 81, 99
2,57117, Note_on_c, 0, 70, 0
2,57131, Note_on_c, 0, 69, 66
2,57173, Note_on_c, 0, 69, 0
2,57209, Note_on_c, 0, 70, 71
2,57230, Note_on_c, 0, 74, 0
2,57263, Note_on_c, 0, 70, 0
2,57290, Note_on_c, 0, 69, 66
2,57337, Note_on_c, 0, 69, 0
2,57370, Note_on_c, 0, 70, 59
2,57388, Note_on_c, 0, 73, 70
2,57445, Note_on_c, 0, 70, 0
2,57445, Note_on_c, 0, 73, 0
2,57475, Note_on_c, 0, 69, 59
2,57568, Note_on_c, 0, 67, 77
2,57573, Note_on_c, 0, 69, 0
2,57636, Note_on_c, 0, 67, 0
2,57649, Note_on_c, 0, 69, 83
2,57719, Control_c, 0, 64, 56
2,57724, Note_on_c, 0, 81, 0
2,57731, Note_on_c, 0, 69, 0
2,57737, Note_on_c, 0, 70, 82
2,57738, Control_c, 0, 64, 65
2,57745, Note_on_c, 0, 77, 92
2,57752, Note_on_c, 0, 74, 75
2,57756, Control_c, 0, 64, 74
2,57765, Note_on_c, 0, 70, 0
2,57776, Control_c, 0, 64, 105
2,57795, Control_c, 0, 64, 127
2,57914, Note_on_c, 0, 74, 0
2,57943, Note_on_c, 0, 77, 0
2,57963, Note_on_c, 0, 58, 71
2,58034, Note_on_c, 0, 60, 74
2,58036, Note_on_c, 0, 58, 0
2,58044, Control_c, 0, 64, 112
2,58064, Control_c, 0, 64, 69
2,58083, Control_c, 0, 64, 0
2,58092, Note_on_c, 0, 60, 0
2,58123, Note_on_c, 0, 62, 77
2,58189, Note_on_c, 0, 62, 0
2,58193, Note_on_c, 0, 60, 75
2,58267, Note_on_c, 0, 58, 80
2,58270, Note_on_c, 0, 60, 0
2,58318, Note_on_c, 0, 58, 0
2,58358, Note_on_c, 0, 57, 77
2,58421, Note_on_c, 0, 57, 0
2,58449, Note_on_c, 0, 55, 75
2,58480, Note_on_c, 0, 82, 99
2,58505, Note_on_c, 0, 55, 0
2,58535, Note_on_c, 0, 53, 68
2,58634, Note_on_c, 0, 53, 0
2,58639, Note_on_c, 0, 55, 73
2,58711, Note_on_c, 0, 55, 0
2,58735, Note_on_c, 0, 57, 73
2,58790, Note_on_c, 0, 82, 0
2,58809, Note_on_c, 0, 57, 0
2,58824, Note_on_c, 0, 58, 80
2,58891, Note_on_c, 0, 58, 0
2,58923, Note_on_c, 0, 57, 77
2,58976, Note_on_c, 0, 57, 0
2,59002, Note_on_c, 0, 55, 71
2,59070, Note_on_c, 0, 55, 0
2,59075, Note_on_c, 0, 53, 73
2,59167, Note_on_c, 0, 53, 0
2,59185, Note_on_c, 0, 52, 68
2,59197, Note_on_c, 0, 73, 93
2,59291, Note_on_c, 0, 53, 74
2,59296, Note_on_c, 0, 52, 0
2,59366, Note_on_c, 0, 53, 0
2,59394, Note_on_c, 0, 55, 78
2,59570, Note_on_c, 0, 70, 83
2,59629, Note_on_c, 0, 70, 0
2,59670, Note_on_c, 0, 53, 72
2,59672, Note_on_c, 0, 55, 0
2,59756, Note_on_c, 0, 52, 71
2,59757, Note_on_c, 0, 53, 0
2,59827, Note_on_c, 0, 52, 0
2,59832, Note_on_c, 0, 50, 73
2,59925, Note_on_c, 0, 73, 0
2,59926, Note_on_c, 0, 64, 78
2,59933, Note_on_c, 0, 49, 81
2,59934, Note_on_c, 0, 50, 0
2,59969, Note_on_c, 0, 64, 0
2,60027, Note_on_c, 0, 50, 71
2,60043, Note_on_c, 0, 49, 0
2,60104, Note_on_c, 0, 52, 79
2,60110, Note_on_c, 0, 50, 0
2,60297, Note_on_c, 0, 67, 82
2,60363, Note_on_c, 0, 67, 0
2,60406, Note_on_c, 0, 52, 0
2,60417, Note_on_c, 0, 50, 71
2,60480, Note_on_c, 0, 49, 70
2,60500, Note_on_c, 0, 50, 0
2,60548, Note_on_c, 0, 47, 70
2,60561, Note_on_c, 0, 49, 0
2,60664, Note_on_c, 0, 45, 65
2,60666, Note_on_c, 0, 47, 0
2,60669, Note_on_c, 0, 61, 71
2,60707, Note_on_c, 0, 61, 0
2,61042, Note_on_c, 0, 79, 82
2,61058, Note_on_c, 0, 76, 61
2,61082, Note_on_c, 0, 79, 0
2,61094, Note_on_c, 0, 76, 0
2,61225, Note_on_c, 0, 45, 0
2,61235, Note_on_c, 0, 47, 53
2,61315, Note_on_c, 0, 47, 0
2,61325, Note_on_c, 0, 49, 62
2,61412, Note_on_c, 0, 49, 0
2,61426, Note_on_c, 0, 69, 66
2,61427, Note_on_c, 0, 76, 72
2,61431, Note_on_c, 0, 50, 62
2,61485, Note_on_c, 0, 76, 0
2,61491, Note_on_c, 0, 50, 0
2,61532, Note_on_c, 0, 49, 60
2,61575, Note_on_c, 0, 49, 0
2,61601, Note_on_c, 0, 50, 63
2,61644, Note_on_c, 0, 50, 0
2,61676, Note_on_c, 0, 49, 65
2,61730, Note_on_c, 0, 49, 0
2,61759, Note_on_c, 0, 50, 53
2,61780, Note_on_c, 0, 81, 85
2,61825, Note_on_c, 0, 81, 0
2,61864, Note_on_c, 0, 50, 0
2,61882, Note_on_c, 0, 49, 74
2,61976, Note_on_c, 0, 47, 54
2,61986, Note_on_c, 0, 49, 0
2,62067, Note_on_c, 0, 47, 0
2,62072, Note_on_c, 0, 49, 60
2,62114, Note_on_c, 0, 49, 0
2,62120, Note_on_c, 0, 69, 0
2,62122, Note_on_c, 0, 77, 75
2,62133, Note_on_c, 0, 50, 68
2,62158, Note_on_c, 0, 77, 0
2,62167, Note_on_c, 0, 50, 0
2,62215, Note_on_c, 0, 52, 77
2,62286, Note_on_c, 0, 52, 0
2,62315, Note_on_c, 0, 53, 71
2,62467, Note_on_c, 0, 69, 71
2,62467, Note_on_c, 0, 74, 66
2,62502, Note_on_c, 0, 74, 0
2,62503, Note_on_c, 0, 69, 0
2,62570, Note_on_c, 0, 53, 0
2,62578, Note_on_c, 0, 52, 69
2,62630, Note_on_c, 0, 52, 0
2,62650, Note_on_c, 0, 50, 64
2,62692, Note_on_c, 0, 50, 0
2,62717, Note_on_c, 0, 48, 63
2,62767, Note_on_c, 0, 48, 0
2,62820, Note_on_c, 0, 47, 62
2,62827, Note_on_c, 0, 62, 71
2,62866, Note_on_c, 0, 62, 0
2,62877, Note_on_c, 0, 47, 0
2,62902, Note_on_c, 0, 48, 63
2,62981, Note_on_c, 0, 48, 0
2,63020, Note_on_c, 0, 50, 56
2,63193, Note_on_c, 0, 65, 64
2,63237, Note_on_c, 0, 65, 0
2,63304, Note_on_c, 0, 50, 0
2,63312, Note_on_c, 0, 48, 64
2,63373, Note_on_c, 0, 48, 0
2,63388, Note_on_c, 0, 47, 52
2,63431, Note_on_c, 0, 47, 0
2,63450, Note_on_c, 0, 45, 53
2,63532, Note_on_c, 0, 45, 0
2,63556, Note_on_c, 0, 43, 44
2,63560, Note_on_c, 0, 59, 61
2,63614, Note_on_c, 0, 59, 0
2,63923, Note_on_c, 0, 77, 74
2,63926, Note_on_c, 0, 74, 69
2,63966, Note_on_c, 0, 74, 0
2,63986, Note_on_c, 0, 77, 0
2,64121, Note_on_c, 0, 45, 52
2,64143, Note_on_c, 0, 43, 0
2,64189, Note_on_c, 0, 45, 0
2,64192, Note_on_c, 0, 47, 68
2,64271, Note_on_c, 0, 47, 0
2,64294, Note_on_c, 0, 48, 64
2,64298, Note_on_c, 0, 67, 66
2,64302, Note_on_c, 0, 74, 68
2,64338, Note_on_c, 0, 74, 0
2,64343, Note_on_c, 0, 48, 0
2,64383, Note_on_c, 0, 47, 63
2,64421, Note_on_c, 0, 47, 0
2,64440, Note_on_c, 0, 48, 65
2,64487, Note_on_c, 0, 48, 0
2,64515, Note_on_c, 0, 47, 65
2,64558, Note_on_c, 0, 47, 0
2,64582, Note_on_c, 0, 48, 67
2,64618, Note_on_c, 0, 48, 0
2,64657, Note_on_c, 0, 79, 89
2,64669, Note_on_c, 0, 47, 41
2,64707, Note_on_c, 0, 48, 60
2,64717, Note_on_c, 0, 47, 0
2,64718, Note_on_c, 0, 79, 0
2,64742, Note_on_c, 0, 48, 0
2,64763, Note_on_c, 0, 47, 62
2,64799, Note_on_c, 0, 47, 0
2,64822, Note_on_c, 0, 45, 56
2,64887, Note_on_c, 0, 45, 0
2,64923, Note_on_c, 0, 47, 59
2,64970, Note_on_c, 0, 67, 0
2,64991, Note_on_c, 0, 47, 0
2,65038, Note_on_c, 0, 48, 46
2,65041, Note_on_c, 0, 76, 67
2,65101, Note_on_c, 0, 76, 0
2,65247, Note_on_c, 0, 48, 0
2,65407, Note_on_c, 0, 72, 61
2,65453, Note_on_c, 0, 72, 0
2,65536, Note_on_c, 0, 60, 47
2,65582, Note_on_c, 0, 60, 0
2,65607, Note_on_c, 0, 62, 50
2,65642, Note_on_c, 0, 62, 0
2,65668, Note_on_c, 0, 64, 53
2,65727, Note_on_c, 0, 64, 0
2,65765, Note_on_c, 0, 69, 55
2,65771, Note_on_c, 0, 65, 48
2,65807, Note_on_c, 0, 69, 0
2,65881, Note_on_c, 0, 65, 0
2,66140, Note_on_c, 0, 77, 64
2,66181, Note_on_c, 0, 77, 0
2,66242, Note_on_c, 0, 64, 58
2,66296, Note_on_c, 0, 64, 0
2,66321, Note_on_c, 0, 62, 51
2,66377, Note_on_c, 0, 62, 0
2,66403, Note_on_c, 0, 60, 52
2,66462, Note_on_c, 0, 60, 0
2,66496, Note_on_c, 0, 74, 58
2,66503, Note_on_c, 0, 59, 46
2,66538, Note_on_c, 0, 74, 0
2,66615, Note_on_c, 0, 59, 0
2,66868, Note_on_c, 0, 62, 70
2,66871, Note_on_c, 0, 71, 74
2,66924, Note_on_c, 0, 71, 0
2,66935, Note_on_c, 0, 62, 0
2,66957, Note_on_c, 0, 47, 75
2,67044, Note_on_c, 0, 48, 81
2,67059, Note_on_c, 0, 47, 0
2,67105, Note_on_c, 0, 50, 82
2,67119, Note_on_c, 0, 48, 0
2,67195, Note_on_c, 0, 52, 87
2,67210, Note_on_c, 0, 59, 78
2,67210, Note_on_c, 0, 68, 75
2,67217, Note_on_c, 0, 50, 0
2,67255, Note_on_c, 0, 59, 0
2,67272, Note_on_c, 0, 68, 0
2,67463, Note_on_c, 0, 52, 0
2,67588, Note_on_c, 0, 76, 83
2,67589, Note_on_c, 0, 68, 86
2,67622, Note_on_c, 0, 68, 0
2,67630, Note_on_c, 0, 76, 0
2,67703, Note_on_c, 0, 50, 67
2,67758, Note_on_c, 0, 50, 0
2,67765, Note_on_c, 0, 48, 71
2,67837, Note_on_c, 0, 47, 76
2,67848, Note_on_c, 0, 48, 0
2,67955, Note_on_c, 0, 45, 60
2,67980, Note_on_c, 0, 47, 0
2,67981, Note_on_c, 0, 72, 88
2,67983, Note_on_c, 0, 69, 79
2,68211, Note_on_c, 0, 47, 66
2,68249, Note_on_c, 0, 45, 0
2,68302, Note_on_c, 0, 48, 72
2,68315, Note_on_c, 0, 47, 0
2,68363, Note_on_c, 0, 50, 79
2,68375, Note_on_c, 0, 48, 0
2,68415, Note_on_c, 0, 50, 0
2,68454, Note_on_c, 0, 52, 77
2,68532, Note_on_c, 0, 52, 0
2,68548, Note_on_c, 0, 54, 78
2,68635, Note_on_c, 0, 56, 79
2,68647, Note_on_c, 0, 54, 0
2,68652, Note_on_c, 0, 69, 0
2,68707, Note_on_c, 0, 56, 0
2,68725, Note_on_c, 0, 57, 80
2,68849, Note_on_c, 0, 71, 67
2,68932, Note_on_c, 0, 69, 70
2,68960, Note_on_c, 0, 71, 0
2,69003, Note_on_c, 0, 67, 65
2,69020, Note_on_c, 0, 69, 0
2,69056, Note_on_c, 0, 67, 0
2,69083, Note_on_c, 0, 65, 58
2,69167, Note_on_c, 0, 64, 69
2,69174, Note_on_c, 0, 65, 0
2,69236, Note_on_c, 0, 64, 0
2,69260, Note_on_c, 0, 62, 60
2,69318, Note_on_c, 0, 72, 0
2,69324, Note_on_c, 0, 62, 0
2,69337, Note_on_c, 0, 60, 70
2,69422, Note_on_c, 0, 60, 0
2,69428, Note_on_c, 0, 62, 65
2,69480, Note_on_c, 0, 71, 67
2,69521, Note_on_c, 0, 62, 0
2,69561, Note_on_c, 0, 57, 0
2,69561, Note_on_c, 0, 72, 75
2,69575, Note_on_c, 0, 71, 0
2,69623, Note_on_c, 0, 72, 0
2,69624, Note_on_c, 0, 74, 72
2,69656, Note_on_c, 0, 74, 0
2,69714, Note_on_c, 0, 76, 82
2,69717, Note_on_c, 0, 56, 82
2,69720, Note_on_c, 0, 59, 80
2,69752, Note_on_c, 0, 56, 0
2,69753, Note_on_c, 0, 59, 0
2,69811, Note_on_c, 0, 78, 80
2,69815, Note_on_c, 0, 76, 0
2,69889, Note_on_c, 0, 80, 79
2,69896, Note_on_c, 0, 78, 0
2,69907, Note_on_c, 0, 57, 66
2,69915, Note_on_c, 0, 54, 67
2,69933, Note_on_c, 0, 57, 0
2,69952, Note_on_c, 0, 54, 0
2,69990, Note_on_c, 0, 81, 75
2,70009, Note_on_c, 0, 80, 0
2,70082, Note_on_c, 0, 52, 77
2,70084, Note_on_c, 0, 83, 83
2,70089, Note_on_c, 0, 56, 75
2,70098, Note_on_c, 0, 81, 0
2,70191, Note_on_c, 0, 81, 78
2,70199, Control_c, 0, 64, 21
2,70219, Control_c, 0, 64, 50
2,70221, Note_on_c, 0, 56, 0
2,70227, Note_on_c, 0, 52, 0
2,70237, Control_c, 0, 64, 57
2,70257, Control_c, 0, 64, 60
2,70276, Control_c, 0, 64, 63
2,70279, Note_on_c, 0, 83, 0
2,70280, Note_on_c, 0, 80, 81
2,70295, Control_c, 0, 64, 66
2,70298, Note_on_c, 0, 81, 0
2,70314, Control_c, 0, 64, 71
2,70334, Control_c, 0, 64, 81
2,70353, Control_c, 0, 64, 94
2,70354, Note_on_c, 0, 78, 83
2,70372, Control_c, 0, 64, 112
2,70391, Control_c, 0, 64, 127
2,70395, Note_on_c, 0, 80, 0
2,70423, Note_on_c, 0, 78, 0
2,70430, Control_c, 0, 64, 94
2,70447, Note_on_c, 0, 76, 78
2,70448, Control_c, 0, 64, 63
2,70459, Note_on_c, 0, 50, 96
2,70468, Control_c, 0, 64, 0
2,70504, Note_on_c, 0, 76, 0
2,70508, Note_on_c, 0, 50, 0
2,70545, Note_on_c, 0, 74, 72
2,70631, Note_on_c, 0, 72, 82
2,70643, Note_on_c, 0, 74, 0
2,70686, Note_on_c, 0, 72, 0
2,70732, Note_on_c, 0, 71, 73
2,70814, Note_on_c, 0, 48, 94
2,70820, Note_on_c, 0, 57, 82
2,70820, Note_on_c, 0, 71, 0
2,70826, Note_on_c, 0, 76, 75
2,70913, Control_c, 0, 64, 39
2,70932, Control_c, 0, 64, 57
2,70934, Note_on_c, 0, 74, 66
2,70938, Note_on_c, 0, 76, 0
2,70952, Control_c, 0, 64, 62
2,70971, Control_c, 0, 64, 64
2,70990, Control_c, 0, 64, 66
2,71009, Control_c, 0, 64, 69
2,71024, Note_on_c, 0, 72, 79
2,71029, Control_c, 0, 64, 77
2,71035, Note_on_c, 0, 74, 0
2,71047, Control_c, 0, 64, 91
2,71067, Control_c, 0, 64, 106
2,71086, Control_c, 0, 64, 127
2,71113, Note_on_c, 0, 71, 77
2,71125, Note_on_c, 0, 72, 0
2,71132, Note_on_c, 0, 57, 0
2,71161, Note_on_c, 0, 71, 0
2,71164, Note_on_c, 0, 48, 0
2,71190, Note_on_c, 0, 69, 72
2,71254, Note_on_c, 0, 69, 0
2,71283, Note_on_c, 0, 68, 75
2,71313, Control_c, 0, 64, 116
2,71332, Control_c, 0, 64, 111
2,71351, Control_c, 0, 64, 106
2,71361, Note_on_c, 0, 66, 77
2,71370, Control_c, 0, 64, 100
2,71384, Note_on_c, 0, 68, 0
2,71390, Control_c, 0, 64, 97
2,71428, Control_c, 0, 64, 96
2,71433, Note_on_c, 0, 66, 0
2,71447, Control_c, 0, 64, 95
2,71467, Control_c, 0, 64, 92
2,71472, Note_on_c, 0, 64, 65
2,71485, Control_c, 0, 64, 90
2,71505, Control_c, 0, 64, 90
2,71524, Control_c, 0, 64, 87
2,71543, Control_c, 0, 64, 78
2,71556, Note_on_c, 0, 53, 94
2,71558, Note_on_c, 0, 64, 0
2,71562, Control_c, 0, 64, 64
2,71568, Note_on_c, 0, 69, 75
2,71582, Control_c, 0, 64, 0
2,71687, Note_on_c, 0, 67, 63
2,71693, Note_on_c, 0, 69, 0
2,71774, Note_on_c, 0, 65, 69
2,71776, Control_c, 0, 64, 39
2,71783, Note_on_c, 0, 67, 0
2,71796, Control_c, 0, 64, 52
2,71814, Control_c, 0, 64, 54
2,71834, Control_c, 0, 64, 56
2,71853, Control_c, 0, 64, 58
2,71856, Note_on_c, 0, 64, 72
2,71868, Note_on_c, 0, 53, 0
2,71873, Control_c, 0, 64, 60
2,71873, Note_on_c, 0, 65, 0
2,71891, Control_c, 0, 64, 64
2,71900, Note_on_c, 0, 64, 0
2,71911, Control_c, 0, 64, 67
2,71930, Control_c, 0, 64, 73
2,71940, Note_on_c, 0, 62, 67
2,71949, Control_c, 0, 64, 80
2,71968, Control_c, 0, 64, 88
2,71988, Control_c, 0, 64, 94
2,71992, Note_on_c, 0, 62, 0
2,72007, Control_c, 0, 64, 99
2,72026, Control_c, 0, 64, 102
2,72028, Note_on_c, 0, 60, 72
2,72045, Control_c, 0, 64, 104
2,72065, Control_c, 0, 64, 106
2,72103, Control_c, 0, 64, 105
2,72115, Note_on_c, 0, 59, 84
2,72126, Note_on_c, 0, 60, 0
2,72161, Control_c, 0, 64, 104
2,72178, Note_on_c, 0, 59, 0
2,72180, Control_c, 0, 64, 101
2,72200, Control_c, 0, 64, 100
2,72226, Note_on_c, 0, 57, 64
2,72238, Control_c, 0, 64, 99
2,72257, Control_c, 0, 64, 97
2,72277, Control_c, 0, 64, 94
2,72295, Control_c, 0, 64, 89
2,72315, Control_c, 0, 64, 80
2,72317, Note_on_c, 0, 44, 96
2,72331, Note_on_c, 0, 65, 78
2,72334, Control_c, 0, 64, 65
2,72343, Note_on_c, 0, 57, 0
2,72353, Control_c, 0, 64, 0
2,72436, Note_on_c, 0, 64, 62
2,72464, Note_on_c, 0, 65, 0
2,72519, Note_on_c, 0, 62, 70
2,72534, Note_on_c, 0, 64, 0
2,72596, Note_on_c, 0, 60, 75
2,72612, Note_on_c, 0, 62, 0
2,72638, Note_on_c, 0, 60, 0
2,72687, Note_on_c, 0, 59, 69
2,72732, Note_on_c, 0, 59, 0
2,72765, Note_on_c, 0, 57, 65
2,72820, Note_on_c, 0, 57, 0
2,72832, Note_on_c, 0, 56, 81
2,72872, Note_on_c, 0, 56, 0
2,72926, Note_on_c, 0, 54, 69
2,72966, Note_on_c, 0, 54, 0
2,73026, Note_on_c, 0, 62, 73
2,73119, Note_on_c, 0, 44, 0
2,73120, Note_on_c, 0, 60, 64
2,73137, Note_on_c, 0, 62, 0
2,73185, Note_on_c, 0, 59, 78
2,73194, Note_on_c, 0, 60, 0
2,73228, Note_on_c, 0, 59, 0
2,73254, Note_on_c, 0, 57, 68
2,73311, Note_on_c, 0, 57, 0
2,73343, Note_on_c, 0, 56, 80
2,73423, Note_on_c, 0, 54, 80
2,73446, Note_on_c, 0, 56, 0
2,73496, Note_on_c, 0, 54, 0
2,73497, Note_on_c, 0, 52, 74
2,73575, Note_on_c, 0, 52, 0
2,73579, Note_on_c, 0, 51, 79
2,73673, Note_on_c, 0, 51, 0
2,73682, Note_on_c, 0, 52, 86
2,73953, Note_on_c, 0, 52, 0
2,74094, Note_on_c, 0, 50, 59
2,74144, Note_on_c, 0, 50, 0
2,74234, Note_on_c, 0, 64, 59
2,74277, Note_on_c, 0, 64, 0
2,74321, Note_on_c, 0, 66, 58
2,74369, Note_on_c, 0, 66, 0
2,74390, Note_on_c, 0, 68, 46
2,74435, Note_on_c, 0, 68, 0
2,74452, Note_on_c, 0, 47, 64
2,74457, Note_on_c, 0, 69, 62
2,74485, Note_on_c, 0, 47, 0
2,74515, Note_on_c, 0, 69, 0
2,74555, Note_on_c, 0, 68, 67
2,74602, Note_on_c, 0, 68, 0
2,74642, Note_on_c, 0, 69, 60
2,74681, Note_on_c, 0, 69, 0
2,74715, Note_on_c, 0, 68, 64
2,74748, Note_on_c, 0, 68, 0
2,74769, Note_on_c, 0, 69, 64
2,74799, Note_on_c, 0, 52, 64
2,74810, Note_on_c, 0, 69, 0
2,74829, Note_on_c, 0, 68, 71
2,74837, Note_on_c, 0, 52, 0
2,74863, Note_on_c, 0, 68, 0
2,74885, Note_on_c, 0, 69, 52
2,74915, Note_on_c, 0, 69, 0
2,74998, Note_on_c, 0, 66, 59
2,75061, Note_on_c, 0, 66, 0
2,75063, Note_on_c, 0, 68, 67
2,75110, Note_on_c, 0, 68, 0
2,75150, Note_on_c, 0, 48, 65
2,75162, Note_on_c, 0, 69, 64
2,75191, Note_on_c, 0, 48, 0
2,75568, Note_on_c, 0, 45, 87
2,75610, Note_on_c, 0, 45, 0
2,75716, Note_on_c, 0, 59, 53
2,75785, Note_on_c, 0, 59, 0
2,75796, Note_on_c, 0, 60, 60
2,75844, Note_on_c, 0, 60, 0
2,75869, Note_on_c, 0, 62, 63
2,75946, Note_on_c, 0, 40, 91
2,75947, Note_on_c, 0, 62, 0
2,75986, Note_on_c, 0, 61, 55
2,75997, Note_on_c, 0, 40, 0
2,76030, Note_on_c, 0, 61, 0
2,76060, Note_on_c, 0, 62, 56
2,76098, Note_on_c, 0, 69, 0
2,76107, Note_on_c, 0, 62, 0
2,76133, Note_on_c, 0, 61, 68
2,76193, Note_on_c, 0, 61, 0
2,76205, Note_on_c, 0, 62, 63
2,76266, Note_on_c, 0, 62, 0
2,76296, Note_on_c, 0, 61, 68
2,76340, Note_on_c, 0, 43, 94
2,76341, Note_on_c, 0, 61, 0
2,76374, Note_on_c, 0, 62, 66
2,76395, Note_on_c, 0, 43, 0
2,76442, Note_on_c, 0, 61, 73
2,76444, Note_on_c, 0, 62, 0
2,76518, Note_on_c, 0, 61, 0
2,76523, Note_on_c, 0, 59, 72
2,76607, Note_on_c, 0, 59, 0
2,76640, Note_on_c, 0, 61, 68
2,76758, Note_on_c, 0, 62, 70
2,76760, Note_on_c, 0, 41, 88
2,76760, Note_on_c, 0, 61, 0
2,76840, Note_on_c, 0, 62, 0
2,76890, Note_on_c, 0, 40, 89
2,76916, Note_on_c, 0, 41, 0
2,77017, Note_on_c, 0, 38, 90
2,77055, Note_on_c, 0, 40, 0
2,77288, Note_on_c, 0, 71, 84
2,77290, Note_on_c, 0, 65, 77
2,77382, Control_c, 0, 64, 37
2,77402, Control_c, 0, 64, 52
2,77421, Control_c, 0, 64, 56
2,77440, Control_c, 0, 64, 58
2,77459, Control_c, 0, 64, 60
2,77469, Note_on_c, 0, 71, 0
2,77479, Control_c, 0, 64, 62
2,77488, Note_on_c, 0, 65, 0
2,77497, Control_c, 0, 64, 63
2,77536, Control_c, 0, 64, 64
2,77553, Note_on_c, 0, 40, 79
2,77556, Control_c, 0, 64, 64
2,77562, Note_on_c, 0, 38, 0
2,77574, Control_c, 0, 64, 65
2,77613, Control_c, 0, 64, 64
2,77633, Control_c, 0, 64, 64
2,77683, Note_on_c, 0, 40, 0
2,77687, Note_on_c, 0, 41, 75
2,77690, Control_c, 0, 64, 63
2,77709, Control_c, 0, 64, 63
2,77728, Control_c, 0, 64, 61
2,77748, Control_c, 0, 64, 59
2,77767, Control_c, 0, 64, 58
2,77786, Control_c, 0, 64, 55
2,77795, Note_on_c, 0, 41, 0
2,77805, Control_c, 0, 64, 46
2,77817, Note_on_c, 0, 64, 84
2,77820, Note_on_c, 0, 40, 69
2,77820, Note_on_c, 0, 56, 84
2,77825, Control_c, 0, 64, 0
2,77907, Note_on_c, 0, 40, 0
2,77930, Note_on_c, 0, 41, 67
2,77939, Control_c, 0, 64, 17
2,77959, Control_c, 0, 64, 56
2,77977, Control_c, 0, 64, 66
2,77988, Note_on_c, 0, 41, 0
2,77997, Control_c, 0, 64, 72
2,78016, Control_c, 0, 64, 85
2,78029, Note_on_c, 0, 40, 68
2,78033, Control_c, 0, 64, 111
2,78035, Note_on_c, 0, 56, 0
2,78050, Control_c, 0, 64, 127
2,78057, Note_on_c, 0, 64, 0
2,78068, Note_on_c, 0, 40, 0
2,78083, Note_on_c, 0, 41, 74
2,78146, Note_on_c, 0, 41, 0
2,78164, Note_on_c, 0, 40, 77
2,78220, Note_on_c, 0, 40, 0
2,78243, Note_on_c, 0, 41, 72
2,78287, Note_on_c, 0, 41, 0
2,78303, Note_on_c, 0, 40, 78
2,78361, Note_on_c, 0, 40, 0
2,78372, Note_on_c, 0, 41, 75
2,78378, Control_c, 0, 64, 123
2,78397, Control_c, 0, 64, 110
2,78417, Control_c, 0, 64, 99
2,78431, Note_on_c, 0, 41, 0
2,78436, Control_c, 0, 64, 89
2,78443, Note_on_c, 0, 40, 79
2,78455, Control_c, 0, 64, 81
2,78463, Note_on_c, 0, 68, 94
2,78474, Control_c, 0, 64, 75
2,78474, Note_on_c, 0, 59, 81
2,78493, Note_on_c, 0, 40, 0
2,78494, Control_c, 0, 64, 70
2,78512, Control_c, 0, 64, 65
2,78519, Note_on_c, 0, 41, 74
2,78532, Control_c, 0, 64, 59
2,78551, Control_c, 0, 64, 54
2,78571, Control_c, 0, 64, 49
2,78584, Note_on_c, 0, 41, 0
2,78589, Control_c, 0, 64, 36
2,78595, Note_on_c, 0, 40, 75
2,78609, Control_c, 0, 64, 0
2,78779, Note_on_c, 0, 59, 0
2,78793, Note_on_c, 0, 38, 82
2,78810, Note_on_c, 0, 68, 0
2,78831, Note_on_c, 0, 40, 0
2,79022, Note_on_c, 0, 40, 77
2,79067, Note_on_c, 0, 38, 0
2,79424, Note_on_c, 0, 33, 59
2,79438, Note_on_c, 0, 69, 74
2,79439, Note_on_c, 0, 61, 70
2,79474, Note_on_c, 0, 40, 0
2,81443, Note_on_c, 0, 69, 0
2,81455, Note_on_c, 0, 61, 0
2,81460, Note_on_c, 0, 33, 0
2,81461, End_track
0, 0, End_of_file
