0, 0, Header, 1, 2, 480
1, 0, Start_track
1, 0, Tempo, 500000
1, 0, Time_signature, 4, 2, 24, 8
1, 1, End_track
2, 0, Start_track
2, 0, Program_c, 0, 0
2, 0, Control_c, 0, 64, 127
2, 0, Control_c, 0, 67, 0
2, 448, Control_c, 0, 64, 123
2, 468, Control_c, 0, 64, 121
2, 487, Control_c, 0, 64, 118
2, 506, Control_c, 0, 64, 116
2, 525, Control_c, 0, 64, 114
2, 545, Control_c, 0, 64, 113
2, 564, Control_c, 0, 64, 112
2, 583, Control_c, 0, 64, 111
2, 602, Control_c, 0, 64, 110
2, 622, Control_c, 0, 64, 109
2, 640, Control_c, 0, 64, 108
2, 659, Control_c, 0, 64, 107
2, 679, Control_c, 0, 64, 106
2, 698, Control_c, 0, 64, 105
2, 717, Control_c, 0, 64, 104
2, 736, Control_c, 0, 64, 102
2, 764, Control_c, 0, 64, 100
2, 783, Control_c, 0, 64, 98
2, 802, Control_c, 0, 64, 96
2, 822, Control_c, 0, 64, 93
2, 841, Control_c, 0, 64, 89
2, 842, Note_on_c, 0, 45, 42
2, 860, Control_c, 0, 64, 86
2, 879, Control_c, 0, 64, 82
2, 899, Control_c, 0, 64, 79
2, 917, Control_c, 0, 64, 77
2, 937, Control_c, 0, 64, 75
2, 956, Control_c, 0, 64, 74
2, 968, Note_on_c, 0, 72, 54
2, 976, Control_c, 0, 64, 73
2, 994, Control_c, 0, 64, 71
2, 1013, Control_c, 0, 64, 70
2, 1033, Control_c, 0, 64, 69
2, 1052, Control_c, 0, 64, 68
2, 1063, Note_on_c, 0, 74, 57
2, 1071, Control_c, 0, 64, 67
2, 1085, Note_on_c, 0, 72, 0
2, 1090, Control_c, 0, 64, 66
2, 1110, Control_c, 0, 64, 66
2, 1149, Control_c, 0, 64, 65
2, 1153, Note_on_c, 0, 76, 66
2, 1168, Control_c, 0, 64, 65
2, 1171, Note_on_c, 0, 74, 0
2, 1187, Control_c, 0, 64, 64
2, 1206, Control_c, 0, 64, 64
2, 1245, Control_c, 0, 64, 63
2, 1246, Note_on_c, 0, 77, 71
2, 1252, Note_on_c, 0, 57, 50
2, 1264, Note_on_c, 0, 76, 0
2, 1283, Control_c, 0, 64, 63
2, 1303, Control_c, 0, 64, 62
2, 1322, Control_c, 0, 64, 61
2, 1341, Control_c, 0, 64, 60
2, 1360, Control_c, 0, 64, 59
2, 1380, Control_c, 0, 64, 58
2, 1398, Control_c, 0, 64, 56
2, 1418, Control_c, 0, 64, 54
2, 1437, Control_c, 0, 64, 49
2, 1457, Control_c, 0, 64, 40
2, 1475, Control_c, 0, 64, 26
2, 1484, Note_on_c, 0, 72, 73
2, 1495, Control_c, 0, 64, 0
2, 1682, Note_on_c, 0, 56, 55
2, 1705, Note_on_c, 0, 71, 74
2, 1708, Note_on_c, 0, 45, 0
2, 1772, Note_on_c, 0, 72, 0
2, 1897, Note_on_c, 0, 57, 0
2, 1905, Note_on_c, 0, 75, 75
2, 1965, Note_on_c, 0, 77, 0
2, 1988, Note_on_c, 0, 71, 0
2, 2127, Note_on_c, 0, 55, 53
2, 2129, Note_on_c, 0, 76, 70
2, 2171, Note_on_c, 0, 56, 0
2, 2226, Note_on_c, 0, 75, 0
2, 2327, Note_on_c, 0, 70, 75
2, 2536, Note_on_c, 0, 69, 68
2, 2551, Note_on_c, 0, 54, 47
2, 2596, Note_on_c, 0, 70, 0
2, 2703, Note_on_c, 0, 76, 0
2, 2726, Note_on_c, 0, 55, 0
2, 2742, Note_on_c, 0, 73, 64
2, 2906, Note_on_c, 0, 69, 0
2, 2955, Note_on_c, 0, 74, 53
2, 2986, Note_on_c, 0, 53, 38
2, 3067, Note_on_c, 0, 73, 0
2, 3150, Note_on_c, 0, 54, 0
2, 3174, Note_on_c, 0, 68, 62
2, 3310, Note_on_c, 0, 74, 0
2, 3391, Note_on_c, 0, 52, 50
2, 3573, Note_on_c, 0, 53, 0
2, 3607, Note_on_c, 0, 69, 75
2, 3786, Note_on_c, 0, 68, 0
2, 3822, Note_on_c, 0, 50, 59
2, 3960, Note_on_c, 0, 52, 0
2, 4042, Note_on_c, 0, 71, 76
2, 4125, Note_on_c, 0, 69, 0
2, 4319, Note_on_c, 0, 64, 63
2, 4384, Note_on_c, 0, 71, 0
2, 4394, Note_on_c, 0, 48, 54
2, 4395, Note_on_c, 0, 50, 0
2, 4509, Note_on_c, 0, 50, 65
2, 4562, Note_on_c, 0, 48, 0
2, 4595, Note_on_c, 0, 52, 70
2, 4634, Note_on_c, 0, 50, 0
2, 4716, Note_on_c, 0, 69, 72
2, 4717, Note_on_c, 0, 53, 57
2, 4730, Note_on_c, 0, 52, 0
2, 4783, Note_on_c, 0, 64, 0
2, 4928, Note_on_c, 0, 48, 63
2, 5125, Note_on_c, 0, 53, 0
2, 5145, Note_on_c, 0, 47, 58
2, 5161, Note_on_c, 0, 48, 0
2, 5161, Note_on_c, 0, 68, 70
2, 5249, Note_on_c, 0, 69, 0
2, 5364, Note_on_c, 0, 51, 50
2, 5435, Note_on_c, 0, 47, 0
2, 5579, Note_on_c, 0, 67, 55
2, 5583, Note_on_c, 0, 52, 35
2, 5656, Note_on_c, 0, 68, 0
2, 5796, Note_on_c, 0, 46, 51
2, 5948, Note_on_c, 0, 51, 0
2, 6027, Note_on_c, 0, 45, 46
2, 6030, Note_on_c, 0, 46, 0
2, 6031, Note_on_c, 0, 66, 59
2, 6076, Note_on_c, 0, 52, 0
2, 6098, Note_on_c, 0, 67, 0
2, 6239, Control_c, 0, 67, 14
2, 6246, Note_on_c, 0, 49, 53
2, 6258, Control_c, 0, 67, 22
2, 6277, Control_c, 0, 67, 27
2, 6296, Control_c, 0, 67, 32
2, 6316, Control_c, 0, 67, 36
2, 6335, Control_c, 0, 67, 38
2, 6354, Control_c, 0, 67, 43
2, 6373, Control_c, 0, 67, 51
2, 6391, Control_c, 0, 67, 57
2, 6410, Control_c, 0, 67, 61
2, 6429, Control_c, 0, 67, 63
2, 6448, Control_c, 0, 67, 64
2, 6451, Note_on_c, 0, 65, 50
2, 6457, Note_on_c, 0, 50, 42
2, 6468, Control_c, 0, 67, 65
2, 6485, Note_on_c, 0, 45, 0
2, 6486, Control_c, 0, 67, 67
2, 6505, Control_c, 0, 67, 72
2, 6511, Note_on_c, 0, 66, 0
2, 6525, Control_c, 0, 67, 75
2, 6536, Note_on_c, 0, 49, 0
2, 6544, Control_c, 0, 67, 75
2, 6582, Control_c, 0, 67, 73
2, 6602, Control_c, 0, 67, 72
2, 6640, Control_c, 0, 67, 71
2, 6659, Control_c, 0, 67, 71
2, 6677, Note_on_c, 0, 44, 50
2, 6679, Control_c, 0, 67, 70
2, 6697, Control_c, 0, 67, 69
2, 6717, Control_c, 0, 67, 68
2, 6736, Control_c, 0, 67, 67
2, 6739, Note_on_c, 0, 50, 0
2, 6794, Control_c, 0, 67, 66
2, 6813, Control_c, 0, 67, 66
2, 6832, Control_c, 0, 67, 65
2, 6910, Control_c, 0, 67, 64
2, 6920, Note_on_c, 0, 64, 47
2, 6929, Control_c, 0, 67, 64
2, 6949, Control_c, 0, 67, 63
2, 6983, Note_on_c, 0, 65, 0
2, 7024, Control_c, 0, 67, 63
2, 7063, Control_c, 0, 67, 62
2, 7083, Control_c, 0, 67, 62
2, 7101, Control_c, 0, 67, 61
2, 7114, Note_on_c, 0, 45, 46
2, 7130, Note_on_c, 0, 44, 0
2, 7303, Note_on_c, 0, 64, 0
2, 7332, Control_c, 0, 67, 61
2, 7352, Control_c, 0, 67, 60
2, 7355, Note_on_c, 0, 62, 50
2, 7429, Control_c, 0, 67, 60
2, 7561, Note_on_c, 0, 47, 36
2, 7631, Note_on_c, 0, 45, 0
2, 7716, Control_c, 0, 67, 59
2, 7735, Control_c, 0, 67, 59
2, 7755, Control_c, 0, 67, 58
2, 7775, Note_on_c, 0, 40, 46
2, 7793, Control_c, 0, 67, 58
2, 7808, Note_on_c, 0, 47, 0
2, 7812, Control_c, 0, 67, 53
2, 7832, Control_c, 0, 67, 50
2, 7850, Control_c, 0, 67, 48
2, 7870, Control_c, 0, 67, 46
2, 7889, Control_c, 0, 67, 45
2, 7909, Control_c, 0, 67, 44
2, 7927, Control_c, 0, 67, 44
2, 7946, Control_c, 0, 67, 43
2, 7955, Note_on_c, 0, 62, 0
2, 7966, Control_c, 0, 67, 42
2, 7984, Control_c, 0, 67, 41
2, 8004, Control_c, 0, 67, 40
2, 8006, Note_on_c, 0, 60, 56
2, 8023, Control_c, 0, 67, 39
2, 8069, Note_on_c, 0, 60, 0
2, 8101, Note_on_c, 0, 59, 59
2, 8120, Control_c, 0, 67, 39
2, 8158, Control_c, 0, 67, 38
2, 8163, Note_on_c, 0, 59, 0
2, 8177, Control_c, 0, 67, 38
2, 8185, Note_on_c, 0, 45, 43
2, 8193, Note_on_c, 0, 60, 57
2, 8214, Note_on_c, 0, 40, 0
2, 8215, Control_c, 0, 67, 37
2, 8235, Control_c, 0, 67, 37
2, 8254, Control_c, 0, 67, 36
2, 8273, Control_c, 0, 67, 34
2, 8292, Control_c, 0, 67, 33
2, 8312, Control_c, 0, 67, 32
2, 8326, Note_on_c, 0, 60, 0
2, 8330, Control_c, 0, 67, 31
2, 8350, Control_c, 0, 67, 30
2, 8369, Control_c, 0, 67, 30
2, 8389, Control_c, 0, 67, 29
2, 8446, Control_c, 0, 67, 28
2, 8464, Control_c, 0, 67, 28
2, 8484, Control_c, 0, 67, 27
2, 8485, Note_on_c, 0, 69, 61
2, 8503, Control_c, 0, 67, 25
2, 8523, Control_c, 0, 67, 24
2, 8541, Control_c, 0, 67, 22
2, 8561, Control_c, 0, 67, 21
2, 8580, Control_c, 0, 67, 20
2, 8600, Control_c, 0, 67, 19
2, 8618, Control_c, 0, 67, 18
2, 8638, Control_c, 0, 67, 16
2, 8657, Control_c, 0, 67, 15
2, 8676, Control_c, 0, 67, 12
2, 8680, Note_on_c, 0, 47, 48
2, 8695, Control_c, 0, 67, 8
2, 8715, Control_c, 0, 67, 0
2, 8763, Note_on_c, 0, 45, 0
2, 8917, Note_on_c, 0, 68, 75
2, 8936, Note_on_c, 0, 69, 0
2, 9115, Note_on_c, 0, 49, 54
2, 9145, Note_on_c, 0, 76, 62
2, 9153, Note_on_c, 0, 47, 0
2, 9292, Note_on_c, 0, 76, 0
2, 9360, Note_on_c, 0, 68, 0
2, 9375, Note_on_c, 0, 67, 47
2, 9567, Note_on_c, 0, 50, 45
2, 9644, Note_on_c, 0, 49, 0
2, 9708, Note_on_c, 0, 67, 0
2, 9801, Note_on_c, 0, 65, 59
2, 9866, Note_on_c, 0, 65, 0
2, 9896, Note_on_c, 0, 64, 71
2, 9974, Note_on_c, 0, 64, 0
2, 9980, Note_on_c, 0, 63, 69
2, 9992, Note_on_c, 0, 47, 58
2, 10002, Note_on_c, 0, 50, 0
2, 10161, Note_on_c, 0, 63, 0
2, 10222, Note_on_c, 0, 71, 74
2, 10421, Note_on_c, 0, 49, 67
2, 10513, Note_on_c, 0, 47, 0
2, 10622, Note_on_c, 0, 71, 0
2, 10637, Note_on_c, 0, 70, 82
2, 10880, Note_on_c, 0, 78, 73
2, 10887, Note_on_c, 0, 51, 56
2, 11085, Note_on_c, 0, 49, 0
2, 11114, Note_on_c, 0, 69, 65
2, 11177, Note_on_c, 0, 78, 0
2, 11211, Note_on_c, 0, 70, 0
2, 11357, Note_on_c, 0, 52, 59
2, 11411, Note_on_c, 0, 51, 0
2, 11440, Note_on_c, 0, 69, 0
2, 11454, Note_on_c, 0, 67, 67
2, 11565, Note_on_c, 0, 69, 78
2, 11594, Note_on_c, 0, 67, 0
2, 11652, Note_on_c, 0, 71, 76
2, 11676, Note_on_c, 0, 69, 0
2, 11771, Note_on_c, 0, 72, 71
2, 11784, Note_on_c, 0, 64, 69
2, 11792, Note_on_c, 0, 71, 0
2, 12056, Note_on_c, 0, 67, 68
2, 12071, Note_on_c, 0, 52, 0
2, 12281, Note_on_c, 0, 63, 59
2, 12285, Note_on_c, 0, 66, 70
2, 12333, Note_on_c, 0, 67, 0
2, 12479, Note_on_c, 0, 72, 0
2, 12500, Note_on_c, 0, 70, 72
2, 12539, Note_on_c, 0, 64, 0
2, 12669, Note_on_c, 0, 66, 0
2, 12690, Note_on_c, 0, 71, 73
2, 12718, Note_on_c, 0, 62, 56
2, 12741, Note_on_c, 0, 70, 0
2, 12877, Note_on_c, 0, 63, 0
2, 12910, Note_on_c, 0, 65, 71
2, 13123, Note_on_c, 0, 61, 58
2, 13142, Note_on_c, 0, 64, 69
2, 13175, Note_on_c, 0, 65, 0
2, 13292, Note_on_c, 0, 62, 0
2, 13343, Note_on_c, 0, 68, 73
2, 13364, Note_on_c, 0, 71, 0
2, 13443, Note_on_c, 0, 64, 0
2, 13553, Note_on_c, 0, 60, 49
2, 13565, Note_on_c, 0, 69, 68
2, 13606, Note_on_c, 0, 68, 0
2, 13672, Note_on_c, 0, 61, 0
2, 13798, Note_on_c, 0, 63, 62
2, 13869, Note_on_c, 0, 69, 0
2, 13984, Note_on_c, 0, 59, 56
2, 14169, Note_on_c, 0, 60, 0
2, 14203, Note_on_c, 0, 64, 64
2, 14226, Note_on_c, 0, 63, 0
2, 14424, Note_on_c, 0, 57, 57
2, 14466, Note_on_c, 0, 59, 0
2, 14650, Note_on_c, 0, 66, 69
2, 14702, Note_on_c, 0, 64, 0
2, 14801, Control_c, 0, 67, 9
2, 14820, Control_c, 0, 67, 11
2, 14840, Control_c, 0, 67, 13
2, 14855, Note_on_c, 0, 66, 0
2, 14858, Control_c, 0, 67, 15
2, 14865, Note_on_c, 0, 59, 69
2, 14878, Control_c, 0, 67, 17
2, 14897, Control_c, 0, 64, 11
2, 14897, Control_c, 0, 67, 19
2, 14916, Control_c, 0, 64, 51
2, 14916, Control_c, 0, 67, 20
2, 14918, Note_on_c, 0, 57, 0
2, 14935, Control_c, 0, 64, 61
2, 14935, Control_c, 0, 67, 21
2, 14947, Note_on_c, 0, 55, 57
2, 14955, Control_c, 0, 64, 63
2, 14955, Control_c, 0, 67, 22
2, 14974, Control_c, 0, 64, 64
2, 14974, Control_c, 0, 67, 24
2, 14993, Control_c, 0, 67, 26
2, 15012, Control_c, 0, 67, 29
2, 15033, Control_c, 0, 67, 32
2, 15051, Control_c, 0, 64, 64
2, 15051, Control_c, 0, 67, 33
2, 15057, Note_on_c, 0, 57, 72
2, 15063, Note_on_c, 0, 59, 0
2, 15071, Control_c, 0, 67, 34
2, 15072, Note_on_c, 0, 55, 0
2, 15090, Control_c, 0, 64, 64
2, 15128, Control_c, 0, 64, 63
2, 15142, Note_on_c, 0, 57, 0
2, 15143, Note_on_c, 0, 59, 72
2, 15147, Control_c, 0, 64, 63
2, 15147, Control_c, 0, 67, 34
2, 15167, Control_c, 0, 64, 62
2, 15167, Control_c, 0, 67, 35
2, 15185, Control_c, 0, 64, 62
2, 15205, Control_c, 0, 64, 60
2, 15224, Control_c, 0, 64, 56
2, 15224, Control_c, 0, 67, 34
2, 15240, Note_on_c, 0, 59, 0
2, 15244, Control_c, 0, 64, 50
2, 15259, Note_on_c, 0, 60, 57
2, 15262, Control_c, 0, 64, 44
2, 15275, Note_on_c, 0, 76, 74
2, 15282, Control_c, 0, 64, 30
2, 15301, Control_c, 0, 64, 0
2, 15455, Control_c, 0, 67, 34
2, 15487, Note_on_c, 0, 55, 63
2, 15658, Note_on_c, 0, 60, 0
2, 15698, Note_on_c, 0, 75, 69
2, 15704, Control_c, 0, 67, 34
2, 15720, Note_on_c, 0, 54, 54
2, 15741, Note_on_c, 0, 55, 0
2, 15742, Control_c, 0, 67, 35
2, 15819, Control_c, 0, 67, 36
2, 15834, Note_on_c, 0, 76, 0
2, 15839, Control_c, 0, 67, 36
2, 15858, Control_c, 0, 67, 37
2, 15938, Note_on_c, 0, 58, 60
2, 16007, Note_on_c, 0, 54, 0
2, 16049, Control_c, 0, 67, 36
2, 16133, Note_on_c, 0, 74, 60
2, 16145, Note_on_c, 0, 59, 56
2, 16197, Note_on_c, 0, 75, 0
2, 16260, Control_c, 0, 67, 37
2, 16303, Note_on_c, 0, 58, 0
2, 16351, Note_on_c, 0, 53, 55
2, 16356, Control_c, 0, 67, 36
2, 16490, Control_c, 0, 67, 36
2, 16510, Control_c, 0, 67, 35
2, 16529, Control_c, 0, 67, 34
2, 16549, Control_c, 0, 67, 33
2, 16549, Note_on_c, 0, 59, 0
2, 16559, Note_on_c, 0, 53, 0
2, 16567, Control_c, 0, 67, 32
2, 16573, Note_on_c, 0, 52, 48
2, 16575, Note_on_c, 0, 73, 60
2, 16625, Control_c, 0, 67, 32
2, 16649, Note_on_c, 0, 74, 0
2, 16778, Control_c, 0, 67, 31
2, 16788, Note_on_c, 0, 56, 52
2, 16913, Note_on_c, 0, 52, 0
2, 17004, Note_on_c, 0, 57, 43
2, 17015, Note_on_c, 0, 72, 58
2, 17028, Control_c, 0, 67, 31
2, 17055, Note_on_c, 0, 73, 0
2, 17090, Note_on_c, 0, 56, 0
2, 17223, Note_on_c, 0, 51, 47
2, 17258, Control_c, 0, 67, 30
2, 17265, Note_on_c, 0, 57, 0
2, 17278, Control_c, 0, 67, 30
2, 17297, Control_c, 0, 67, 29
2, 17335, Control_c, 0, 67, 29
2, 17432, Control_c, 0, 67, 28
2, 17452, Note_on_c, 0, 71, 53
2, 17467, Note_on_c, 0, 72, 0
2, 17567, Control_c, 0, 67, 28
2, 17685, Note_on_c, 0, 52, 41
2, 17720, Control_c, 0, 67, 27
2, 17739, Note_on_c, 0, 51, 0
2, 17795, Note_on_c, 0, 71, 0
2, 17797, Control_c, 0, 67, 27
2, 17836, Control_c, 0, 67, 26
2, 17874, Control_c, 0, 67, 26
2, 17903, Note_on_c, 0, 69, 51
2, 17913, Control_c, 0, 67, 25
2, 17970, Control_c, 0, 67, 25
2, 17990, Control_c, 0, 67, 24
2, 18008, Control_c, 0, 67, 24
2, 18065, Control_c, 0, 67, 23
2, 18085, Control_c, 0, 67, 23
2, 18100, Note_on_c, 0, 54, 47
2, 18104, Control_c, 0, 67, 22
2, 18124, Control_c, 0, 67, 22
2, 18162, Control_c, 0, 67, 21
2, 18162, Note_on_c, 0, 52, 0
2, 18181, Control_c, 0, 67, 20
2, 18219, Control_c, 0, 67, 19
2, 18239, Control_c, 0, 67, 17
2, 18258, Control_c, 0, 67, 15
2, 18277, Control_c, 0, 67, 13
2, 18296, Control_c, 0, 67, 11
2, 18316, Control_c, 0, 67, 9
2, 18322, Note_on_c, 0, 54, 0
2, 18334, Note_on_c, 0, 47, 48
2, 18335, Control_c, 0, 67, 0
2, 18542, Note_on_c, 0, 69, 0
2, 18575, Note_on_c, 0, 67, 52
2, 18653, Note_on_c, 0, 67, 0
2, 18673, Note_on_c, 0, 66, 63
2, 18752, Note_on_c, 0, 66, 0
2, 18758, Note_on_c, 0, 52, 51
2, 18772, Note_on_c, 0, 67, 58
2, 18785, Note_on_c, 0, 47, 0
2, 18859, Note_on_c, 0, 67, 0
2, 19055, Note_on_c, 0, 76, 60
2, 19274, Note_on_c, 0, 54, 56
2, 19342, Note_on_c, 0, 52, 0
2, 19477, Note_on_c, 0, 75, 77
2, 19511, Note_on_c, 0, 76, 0
2, 19688, Note_on_c, 0, 83, 72
2, 19691, Note_on_c, 0, 56, 56
2, 19728, Note_on_c, 0, 54, 0
2, 19824, Note_on_c, 0, 83, 0
2, 19883, Note_on_c, 0, 75, 0
2, 19912, Note_on_c, 0, 74, 62
2, 20101, Note_on_c, 0, 56, 0
2, 20126, Note_on_c, 0, 57, 60
2, 20178, Note_on_c, 0, 57, 0
2, 20290, Note_on_c, 0, 74, 0
2, 20343, Note_on_c, 0, 72, 56
2, 20345, Note_on_c, 0, 45, 59
2, 20385, Note_on_c, 0, 45, 0
2, 20424, Note_on_c, 0, 72, 0
2, 20436, Note_on_c, 0, 71, 66
2, 20511, Note_on_c, 0, 71, 0
2, 20546, Note_on_c, 0, 57, 61
2, 20548, Note_on_c, 0, 72, 59
2, 20788, Note_on_c, 0, 69, 64
2, 21006, Note_on_c, 0, 71, 73
2, 21037, Note_on_c, 0, 72, 0
2, 21169, Note_on_c, 0, 69, 0
2, 21230, Note_on_c, 0, 56, 72
2, 21265, Note_on_c, 0, 57, 0
2, 21457, Note_on_c, 0, 73, 76
2, 21464, Note_on_c, 0, 64, 59
2, 21605, Note_on_c, 0, 71, 0
2, 21618, Note_on_c, 0, 56, 0
2, 21662, Note_on_c, 0, 55, 68
2, 21755, Note_on_c, 0, 64, 0
2, 21889, Note_on_c, 0, 74, 72
2, 21925, Note_on_c, 0, 73, 0
2, 21960, Note_on_c, 0, 74, 0
2, 22097, Note_on_c, 0, 54, 55
2, 22119, Note_on_c, 0, 62, 72
2, 22134, Note_on_c, 0, 55, 0
2, 22191, Note_on_c, 0, 54, 0
2, 22192, Note_on_c, 0, 62, 0
2, 22220, Note_on_c, 0, 52, 54
2, 22336, Note_on_c, 0, 52, 0
2, 22344, Note_on_c, 0, 74, 74
2, 22349, Note_on_c, 0, 54, 61
2, 22568, Note_on_c, 0, 50, 59
2, 22587, Note_on_c, 0, 54, 0
2, 22789, Note_on_c, 0, 52, 68
2, 22831, Note_on_c, 0, 50, 0
2, 23033, Note_on_c, 0, 73, 75
2, 23060, Note_on_c, 0, 74, 0
2, 23251, Note_on_c, 0, 54, 59
2, 23266, Note_on_c, 0, 81, 67
2, 23282, Note_on_c, 0, 52, 0
2, 23483, Note_on_c, 0, 72, 68
2, 23519, Note_on_c, 0, 81, 0
2, 23574, Note_on_c, 0, 73, 0
2, 23651, Note_on_c, 0, 54, 0
2, 23687, Note_on_c, 0, 55, 57
2, 23754, Note_on_c, 0, 55, 0
2, 23889, Note_on_c, 0, 72, 0
2, 23917, Note_on_c, 0, 43, 54
2, 23934, Note_on_c, 0, 71, 56
2, 23969, Note_on_c, 0, 43, 0
2, 24004, Note_on_c, 0, 71, 0
2, 24041, Note_on_c, 0, 69, 58
2, 24104, Note_on_c, 0, 69, 0
2, 24127, Note_on_c, 0, 55, 54
2, 24140, Note_on_c, 0, 71, 56
2, 24355, Note_on_c, 0, 67, 52
2, 24382, Note_on_c, 0, 71, 0
2, 24577, Note_on_c, 0, 69, 67
2, 24606, Note_on_c, 0, 67, 0
2, 24799, Note_on_c, 0, 54, 58
2, 24838, Note_on_c, 0, 55, 0
2, 25015, Note_on_c, 0, 62, 49
2, 25022, Note_on_c, 0, 71, 63
2, 25025, Note_on_c, 0, 69, 0
2, 25224, Note_on_c, 0, 54, 0
2, 25260, Note_on_c, 0, 53, 60
2, 25408, Note_on_c, 0, 62, 0
2, 25533, Note_on_c, 0, 71, 0
2, 25552, Note_on_c, 0, 72, 57
2, 25603, Note_on_c, 0, 53, 0
2, 25630, Note_on_c, 0, 52, 50
2, 25651, Control_c, 0, 64, 41
2, 25670, Control_c, 0, 64, 57
2, 25689, Control_c, 0, 64, 59
2, 25735, Note_on_c, 0, 52, 0
2, 25752, Note_on_c, 0, 53, 61
2, 25785, Control_c, 0, 64, 59
2, 25814, Note_on_c, 0, 53, 0
2, 25843, Control_c, 0, 64, 59
2, 25843, Note_on_c, 0, 55, 55
2, 25862, Control_c, 0, 64, 58
2, 25881, Control_c, 0, 64, 58
2, 25939, Note_on_c, 0, 55, 0
2, 25988, Note_on_c, 0, 57, 45
2, 26003, Note_on_c, 0, 84, 62
2, 26016, Control_c, 0, 64, 57
2, 26126, Note_on_c, 0, 72, 0
2, 26170, Control_c, 0, 64, 58
2, 26239, Note_on_c, 0, 52, 46
2, 26304, Control_c, 0, 64, 58
2, 26318, Note_on_c, 0, 57, 0
2, 26343, Control_c, 0, 64, 59
2, 26463, Note_on_c, 0, 51, 46
2, 26476, Note_on_c, 0, 52, 0
2, 26476, Note_on_c, 0, 83, 68
2, 26515, Control_c, 0, 64, 59
2, 26611, Control_c, 0, 64, 60
2, 26649, Control_c, 0, 64, 60
2, 26668, Control_c, 0, 64, 61
2, 26676, Note_on_c, 0, 84, 0
2, 26688, Control_c, 0, 64, 61
2, 26696, Note_on_c, 0, 54, 68
2, 26707, Control_c, 0, 64, 62
2, 26745, Control_c, 0, 64, 62
2, 26746, Note_on_c, 0, 51, 0
2, 26765, Control_c, 0, 64, 63
2, 26901, Note_on_c, 0, 55, 54
2, 26904, Note_on_c, 0, 82, 78
2, 27014, Control_c, 0, 64, 62
2, 27024, Note_on_c, 0, 83, 0
2, 27084, Note_on_c, 0, 55, 0
2, 27118, Note_on_c, 0, 50, 62
2, 27129, Control_c, 0, 64, 62
2, 27168, Control_c, 0, 64, 61
2, 27204, Note_on_c, 0, 54, 0
2, 27263, Control_c, 0, 64, 61
2, 27302, Control_c, 0, 64, 60
2, 27321, Control_c, 0, 64, 60
2, 27338, Note_on_c, 0, 49, 62
2, 27339, Note_on_c, 0, 81, 83
2, 27340, Control_c, 0, 64, 59
2, 27370, Note_on_c, 0, 50, 0
2, 27379, Control_c, 0, 64, 59
2, 27392, Note_on_c, 0, 82, 0
2, 27417, Control_c, 0, 64, 58
2, 27436, Control_c, 0, 64, 58
2, 27456, Control_c, 0, 64, 57
2, 27474, Control_c, 0, 64, 57
2, 27494, Control_c, 0, 64, 56
2, 27513, Control_c, 0, 64, 56
2, 27533, Control_c, 0, 64, 55
2, 27570, Note_on_c, 0, 52, 64
2, 27571, Control_c, 0, 64, 54
2, 27590, Control_c, 0, 64, 53
2, 27609, Control_c, 0, 64, 52
2, 27628, Control_c, 0, 64, 52
2, 27667, Control_c, 0, 64, 51
2, 27705, Control_c, 0, 64, 51
2, 27716, Note_on_c, 0, 49, 0
2, 27781, Note_on_c, 0, 53, 65
2, 27782, Control_c, 0, 64, 50
2, 27787, Note_on_c, 0, 80, 78
2, 27820, Control_c, 0, 64, 50
2, 27839, Control_c, 0, 64, 49
2, 27859, Control_c, 0, 64, 49
2, 27916, Control_c, 0, 64, 48
2, 27993, Control_c, 0, 64, 48
2, 28001, Note_on_c, 0, 48, 68
2, 28004, Note_on_c, 0, 81, 0
2, 28008, Note_on_c, 0, 52, 0
2, 28031, Control_c, 0, 64, 47
2, 28051, Control_c, 0, 64, 46
2, 28070, Control_c, 0, 64, 45
2, 28089, Control_c, 0, 64, 45
2, 28103, Note_on_c, 0, 53, 0
2, 28108, Control_c, 0, 64, 44
2, 28166, Control_c, 0, 64, 44
2, 28185, Control_c, 0, 64, 43
2, 28205, Control_c, 0, 64, 41
2, 28223, Control_c, 0, 64, 40
2, 28243, Control_c, 0, 64, 39
2, 28262, Control_c, 0, 64, 38
2, 28270, Note_on_c, 0, 79, 80
2, 28281, Control_c, 0, 64, 38
2, 28300, Control_c, 0, 64, 36
2, 28319, Control_c, 0, 64, 35
2, 28339, Control_c, 0, 64, 33
2, 28357, Control_c, 0, 64, 31
2, 28364, Note_on_c, 0, 80, 0
2, 28377, Control_c, 0, 64, 27
2, 28396, Control_c, 0, 64, 21
2, 28416, Control_c, 0, 64, 0
2, 28458, Note_on_c, 0, 47, 61
2, 28500, Note_on_c, 0, 48, 0
2, 28709, Note_on_c, 0, 77, 77
2, 28736, Note_on_c, 0, 79, 0
2, 28913, Note_on_c, 0, 48, 60
2, 28955, Note_on_c, 0, 47, 0
2, 29035, Note_on_c, 0, 50, 68
2, 29052, Note_on_c, 0, 48, 0
2, 29146, Note_on_c, 0, 43, 66
2, 29163, Note_on_c, 0, 50, 0
2, 29287, Note_on_c, 0, 71, 68
2, 29318, Note_on_c, 0, 77, 0
2, 29386, Note_on_c, 0, 72, 72
2, 29439, Note_on_c, 0, 71, 0
2, 29491, Note_on_c, 0, 74, 68
2, 29511, Note_on_c, 0, 72, 0
2, 29603, Note_on_c, 0, 55, 65
2, 29605, Note_on_c, 0, 76, 69
2, 29613, Note_on_c, 0, 74, 0
2, 29889, Note_on_c, 0, 71, 72
2, 30102, Note_on_c, 0, 43, 0
2, 30116, Note_on_c, 0, 70, 68
2, 30120, Note_on_c, 0, 54, 64
2, 30149, Note_on_c, 0, 71, 0
2, 30298, Note_on_c, 0, 55, 0
2, 30336, Note_on_c, 0, 76, 0
2, 30341, Note_on_c, 0, 73, 69
2, 30555, Note_on_c, 0, 53, 53
2, 30558, Note_on_c, 0, 74, 65
2, 30593, Note_on_c, 0, 70, 0
2, 30605, Note_on_c, 0, 73, 0
2, 30655, Note_on_c, 0, 54, 0
2, 30780, Note_on_c, 0, 69, 68
2, 30934, Note_on_c, 0, 74, 0
2, 30985, Note_on_c, 0, 52, 54
2, 30997, Note_on_c, 0, 68, 68
2, 31030, Note_on_c, 0, 69, 0
2, 31211, Note_on_c, 0, 71, 65
2, 31242, Note_on_c, 0, 68, 0
2, 31289, Note_on_c, 0, 53, 0
2, 31411, Note_on_c, 0, 52, 0
2, 31418, Note_on_c, 0, 51, 44
2, 31422, Note_on_c, 0, 71, 0
2, 31431, Note_on_c, 0, 72, 61
2, 31662, Note_on_c, 0, 67, 48
2, 31739, Note_on_c, 0, 72, 0
2, 31874, Note_on_c, 0, 50, 49
2, 31879, Note_on_c, 0, 51, 0
2, 32099, Note_on_c, 0, 66, 53
2, 32176, Note_on_c, 0, 67, 0
2, 32280, Note_on_c, 0, 50, 0
2, 32300, Note_on_c, 0, 48, 40
2, 32510, Note_on_c, 0, 66, 0
2, 32530, Note_on_c, 0, 67, 42
2, 32599, Note_on_c, 0, 67, 0
2, 32623, Note_on_c, 0, 69, 51
2, 32716, Note_on_c, 0, 69, 0
2, 32740, Note_on_c, 0, 62, 48
2, 32970, Note_on_c, 0, 47, 46
2, 33010, Note_on_c, 0, 48, 0
2, 33030, Note_on_c, 0, 47, 0
2, 33061, Note_on_c, 0, 45, 48
2, 33144, Note_on_c, 0, 45, 0
2, 33154, Note_on_c, 0, 67, 50
2, 33161, Note_on_c, 0, 47, 55
2, 33220, Note_on_c, 0, 47, 0
2, 33308, Note_on_c, 0, 62, 0
2, 33396, Note_on_c, 0, 55, 50
2, 33640, Note_on_c, 0, 69, 65
2, 33663, Note_on_c, 0, 67, 0
2, 33842, Note_on_c, 0, 54, 68
2, 33847, Note_on_c, 0, 55, 0
2, 34072, Note_on_c, 0, 71, 72
2, 34080, Note_on_c, 0, 62, 58
2, 34199, Note_on_c, 0, 69, 0
2, 34269, Note_on_c, 0, 54, 0
2, 34288, Note_on_c, 0, 53, 66
2, 34373, Note_on_c, 0, 62, 0
2, 34499, Note_on_c, 0, 71, 0
2, 34510, Note_on_c, 0, 72, 66
2, 34736, Note_on_c, 0, 52, 50
2, 34748, Note_on_c, 0, 53, 0
2, 34795, Note_on_c, 0, 52, 0
2, 34812, Note_on_c, 0, 50, 58
2, 34925, Note_on_c, 0, 49, 75
2, 34928, Note_on_c, 0, 69, 70
2, 34933, Note_on_c, 0, 72, 0
2, 34946, Note_on_c, 0, 50, 0
2, 35012, Note_on_c, 0, 49, 0
2, 35160, Note_on_c, 0, 57, 72
2, 35371, Note_on_c, 0, 71, 78
2, 35510, Note_on_c, 0, 69, 0
2, 35588, Note_on_c, 0, 56, 74
2, 35631, Note_on_c, 0, 57, 0
2, 35810, Note_on_c, 0, 73, 76
2, 35814, Note_on_c, 0, 64, 63
2, 35975, Note_on_c, 0, 71, 0
2, 36011, Note_on_c, 0, 56, 0
2, 36042, Note_on_c, 0, 55, 69
2, 36167, Note_on_c, 0, 64, 0
2, 36313, Note_on_c, 0, 74, 67
2, 36350, Note_on_c, 0, 73, 0
2, 36394, Note_on_c, 0, 55, 0
2, 36397, Note_on_c, 0, 54, 59
2, 36502, Note_on_c, 0, 54, 0
2, 36502, Note_on_c, 0, 55, 69
2, 36598, Note_on_c, 0, 57, 69
2, 36606, Note_on_c, 0, 55, 0
2, 36711, Note_on_c, 0, 58, 58
2, 36717, Note_on_c, 0, 62, 70
2, 36765, Note_on_c, 0, 74, 0
2, 36938, Note_on_c, 0, 57, 0
2, 36941, Note_on_c, 0, 53, 67
2, 37013, Note_on_c, 0, 58, 0
2, 37162, Note_on_c, 0, 52, 53
2, 37175, Note_on_c, 0, 61, 68
2, 37178, Note_on_c, 0, 53, 0
2, 37287, Note_on_c, 0, 62, 0
2, 37385, Note_on_c, 0, 56, 57
2, 37416, Control_c, 0, 67, 12
2, 37436, Control_c, 0, 67, 18
2, 37438, Note_on_c, 0, 52, 0
2, 37455, Control_c, 0, 67, 24
2, 37475, Control_c, 0, 67, 28
2, 37493, Control_c, 0, 67, 32
2, 37513, Control_c, 0, 67, 34
2, 37532, Control_c, 0, 67, 37
2, 37550, Control_c, 0, 67, 40
2, 37570, Control_c, 0, 67, 42
2, 37589, Control_c, 0, 67, 44
2, 37592, Note_on_c, 0, 57, 49
2, 37601, Note_on_c, 0, 60, 57
2, 37610, Control_c, 0, 67, 44
2, 37646, Note_on_c, 0, 61, 0
2, 37667, Control_c, 0, 67, 45
2, 37686, Control_c, 0, 67, 45
2, 37725, Control_c, 0, 67, 46
2, 37754, Note_on_c, 0, 56, 0
2, 37782, Control_c, 0, 67, 47
2, 37802, Control_c, 0, 67, 48
2, 37812, Note_on_c, 0, 51, 50
2, 37820, Control_c, 0, 67, 51
2, 37840, Control_c, 0, 67, 55
2, 37859, Control_c, 0, 67, 59
2, 37879, Control_c, 0, 67, 62
2, 37897, Control_c, 0, 67, 65
2, 37917, Control_c, 0, 67, 67
2, 37931, Note_on_c, 0, 57, 0
2, 37936, Control_c, 0, 67, 69
2, 37956, Control_c, 0, 67, 70
2, 38025, Note_on_c, 0, 50, 47
2, 38030, Note_on_c, 0, 51, 0
2, 38045, Note_on_c, 0, 60, 0
2, 38052, Note_on_c, 0, 59, 57
2, 38184, Control_c, 0, 67, 69
2, 38204, Control_c, 0, 67, 69
2, 38223, Control_c, 0, 67, 68
2, 38243, Note_on_c, 0, 54, 49
2, 38340, Note_on_c, 0, 50, 0
2, 38358, Control_c, 0, 67, 69
2, 38376, Control_c, 0, 67, 69
2, 38396, Control_c, 0, 67, 70
2, 38442, Note_on_c, 0, 55, 42
2, 38455, Note_on_c, 0, 58, 51
2, 38484, Note_on_c, 0, 59, 0
2, 38535, Note_on_c, 0, 54, 0
2, 38645, Control_c, 0, 67, 69
2, 38664, Control_c, 0, 67, 69
2, 38674, Note_on_c, 0, 49, 49
2, 38684, Control_c, 0, 67, 68
2, 38704, Note_on_c, 0, 55, 0
2, 38818, Control_c, 0, 67, 69
2, 38890, Note_on_c, 0, 58, 0
2, 38909, Note_on_c, 0, 57, 46
2, 39067, Control_c, 0, 67, 68
2, 39120, Note_on_c, 0, 49, 0
2, 39145, Note_on_c, 0, 50, 40
2, 39270, Note_on_c, 0, 57, 0
2, 39387, Note_on_c, 0, 55, 47
2, 39395, Control_c, 0, 67, 68
2, 39413, Control_c, 0, 67, 67
2, 39452, Control_c, 0, 67, 67
2, 39590, Note_on_c, 0, 52, 42
2, 39650, Note_on_c, 0, 50, 0
2, 39759, Control_c, 0, 67, 66
2, 39798, Control_c, 0, 67, 66
2, 39816, Control_c, 0, 67, 65
2, 39818, Note_on_c, 0, 52, 0
2, 39828, Note_on_c, 0, 45, 44
2, 40017, Note_on_c, 0, 55, 0
2, 40027, Control_c, 0, 67, 65
2, 40055, Note_on_c, 0, 53, 45
2, 40104, Control_c, 0, 67, 64
2, 40112, Note_on_c, 0, 53, 0
2, 40124, Control_c, 0, 67, 64
2, 40141, Note_on_c, 0, 52, 52
2, 40143, Control_c, 0, 67, 63
2, 40181, Control_c, 0, 67, 63
2, 40201, Control_c, 0, 67, 62
2, 40212, Note_on_c, 0, 52, 0
2, 40239, Control_c, 0, 67, 62
2, 40240, Note_on_c, 0, 50, 47
2, 40250, Note_on_c, 0, 53, 52
2, 40296, Control_c, 0, 67, 61
2, 40299, Note_on_c, 0, 45, 0
2, 40405, Note_on_c, 0, 53, 0
2, 40450, Control_c, 0, 67, 61
2, 40469, Control_c, 0, 67, 60
2, 40500, Note_on_c, 0, 62, 52
2, 40507, Control_c, 0, 67, 60
2, 40527, Control_c, 0, 67, 59
2, 40546, Control_c, 0, 67, 59
2, 40565, Control_c, 0, 67, 58
2, 40708, Note_on_c, 0, 50, 0
2, 40711, Note_on_c, 0, 52, 45
2, 40719, Control_c, 0, 67, 58
2, 40935, Note_on_c, 0, 62, 0
2, 40940, Note_on_c, 0, 61, 66
2, 41007, Control_c, 0, 67, 59
2, 41084, Control_c, 0, 67, 59
2, 41103, Control_c, 0, 67, 60
2, 41122, Control_c, 0, 67, 60
2, 41141, Control_c, 0, 67, 61
2, 41158, Note_on_c, 0, 69, 62
2, 41160, Note_on_c, 0, 54, 51
2, 41161, Control_c, 0, 67, 61
2, 41180, Control_c, 0, 67, 62
2, 41217, Note_on_c, 0, 52, 0
2, 41303, Note_on_c, 0, 69, 0
2, 41349, Note_on_c, 0, 61, 0
2, 41373, Note_on_c, 0, 60, 56
2, 41390, Control_c, 0, 67, 62
2, 41410, Control_c, 0, 67, 63
2, 41429, Control_c, 0, 67, 64
2, 41449, Control_c, 0, 67, 65
2, 41487, Control_c, 0, 67, 65
2, 41583, Note_on_c, 0, 55, 49
2, 41591, Note_on_c, 0, 54, 0
2, 41621, Control_c, 0, 67, 65
2, 41679, Control_c, 0, 67, 64
2, 41718, Control_c, 0, 67, 64
2, 41750, Note_on_c, 0, 60, 0
2, 41756, Control_c, 0, 67, 63
2, 41840, Note_on_c, 0, 59, 53
2, 41898, Note_on_c, 0, 59, 0
2, 41910, Control_c, 0, 67, 63
2, 41929, Note_on_c, 0, 57, 61
2, 41930, Control_c, 0, 67, 62
2, 41948, Control_c, 0, 67, 62
2, 41968, Control_c, 0, 67, 61
2, 41990, Note_on_c, 0, 57, 0
2, 42005, Note_on_c, 0, 56, 71
2, 42016, Note_on_c, 0, 52, 65
2, 42066, Note_on_c, 0, 55, 0
2, 42102, Control_c, 0, 67, 61
2, 42140, Control_c, 0, 67, 60
2, 42179, Control_c, 0, 67, 60
2, 42196, Note_on_c, 0, 56, 0
2, 42217, Control_c, 0, 67, 59
2, 42237, Control_c, 0, 67, 59
2, 42253, Note_on_c, 0, 64, 74
2, 42256, Control_c, 0, 67, 58
2, 42294, Control_c, 0, 67, 57
2, 42314, Control_c, 0, 67, 57
2, 42333, Control_c, 0, 67, 56
2, 42390, Control_c, 0, 67, 56
2, 42411, Control_c, 0, 67, 55
2, 42430, Control_c, 0, 67, 55
2, 42470, Note_on_c, 0, 54, 66
2, 42527, Control_c, 0, 67, 54
2, 42565, Control_c, 0, 67, 54
2, 42589, Note_on_c, 0, 52, 0
2, 42604, Control_c, 0, 67, 53
2, 42698, Note_on_c, 0, 63, 77
2, 42719, Control_c, 0, 67, 53
2, 42722, Note_on_c, 0, 64, 0
2, 42738, Control_c, 0, 67, 52
2, 42757, Control_c, 0, 67, 51
2, 42776, Control_c, 0, 67, 51
2, 42796, Control_c, 0, 67, 50
2, 42815, Control_c, 0, 67, 50
2, 42833, Control_c, 0, 67, 49
2, 42869, Control_c, 0, 67, 48
2, 42889, Control_c, 0, 67, 46
2, 42905, Note_on_c, 0, 56, 72
2, 42907, Control_c, 0, 67, 45
2, 42912, Note_on_c, 0, 71, 73
2, 42927, Control_c, 0, 67, 43
2, 42946, Control_c, 0, 67, 40
2, 42965, Control_c, 0, 67, 38
2, 42984, Control_c, 0, 67, 37
2, 42985, Note_on_c, 0, 54, 0
2, 43004, Control_c, 0, 67, 36
2, 43061, Control_c, 0, 67, 35
2, 43100, Control_c, 0, 67, 35
2, 43125, Note_on_c, 0, 62, 68
2, 43151, Note_on_c, 0, 71, 0
2, 43160, Control_c, 0, 67, 34
2, 43196, Note_on_c, 0, 63, 0
2, 43198, Control_c, 0, 67, 34
2, 43311, Note_on_c, 0, 56, 0
2, 43321, Note_on_c, 0, 57, 69
2, 43390, Control_c, 0, 67, 34
2, 43409, Note_on_c, 0, 62, 0
2, 43432, Note_on_c, 0, 60, 66
2, 43484, Note_on_c, 0, 57, 0
2, 43533, Note_on_c, 0, 60, 0
2, 43542, Note_on_c, 0, 62, 70
2, 43550, Note_on_c, 0, 45, 64
2, 43583, Control_c, 0, 67, 35
2, 43601, Control_c, 0, 67, 35
2, 43640, Control_c, 0, 67, 36
2, 43643, Note_on_c, 0, 62, 0
2, 43643, Note_on_c, 0, 64, 72
2, 43778, Note_on_c, 0, 64, 0
2, 43781, Note_on_c, 0, 65, 68
2, 43785, Note_on_c, 0, 57, 63
2, 43870, Control_c, 0, 67, 36
2, 43928, Control_c, 0, 67, 37
2, 43955, Note_on_c, 0, 45, 0
2, 44043, Control_c, 0, 67, 37
2, 44063, Note_on_c, 0, 60, 69
2, 44273, Control_c, 0, 67, 38
2, 44289, Note_on_c, 0, 56, 57
2, 44297, Note_on_c, 0, 59, 70
2, 44312, Control_c, 0, 67, 38
2, 44344, Note_on_c, 0, 60, 0
2, 44389, Control_c, 0, 67, 39
2, 44452, Note_on_c, 0, 57, 0
2, 44466, Control_c, 0, 67, 39
2, 44513, Note_on_c, 0, 63, 71
2, 44559, Note_on_c, 0, 65, 0
2, 44561, Control_c, 0, 67, 40
2, 44595, Note_on_c, 0, 59, 0
2, 44600, Control_c, 0, 67, 40
2, 44731, Note_on_c, 0, 55, 49
2, 44750, Note_on_c, 0, 64, 65
2, 44792, Control_c, 0, 67, 40
2, 44804, Note_on_c, 0, 63, 0
2, 44817, Note_on_c, 0, 56, 0
2, 44830, Control_c, 0, 67, 39
2, 44952, Note_on_c, 0, 58, 66
2, 45168, Note_on_c, 0, 58, 0
2, 45170, Note_on_c, 0, 54, 47
2, 45175, Note_on_c, 0, 57, 53
2, 45225, Note_on_c, 0, 55, 0
2, 45290, Note_on_c, 0, 64, 0
2, 45384, Note_on_c, 0, 61, 59
2, 45531, Note_on_c, 0, 57, 0
2, 45621, Note_on_c, 0, 62, 54
2, 45623, Note_on_c, 0, 53, 38
2, 45648, Note_on_c, 0, 61, 0
2, 45671, Note_on_c, 0, 54, 0
2, 45823, Note_on_c, 0, 56, 54
2, 45824, Note_on_c, 0, 62, 0
2, 46048, Note_on_c, 0, 52, 45
2, 46101, Note_on_c, 0, 53, 0
2, 46278, Note_on_c, 0, 57, 54
2, 46310, Note_on_c, 0, 56, 0
2, 46443, Control_c, 0, 67, 39
2, 46493, Note_on_c, 0, 50, 44
2, 46546, Note_on_c, 0, 52, 0
2, 46732, Note_on_c, 0, 57, 0
2, 46752, Note_on_c, 0, 59, 51
2, 46789, Control_c, 0, 67, 38
2, 46898, Note_on_c, 0, 59, 0
2, 46973, Note_on_c, 0, 52, 42
2, 47160, Note_on_c, 0, 52, 0
2, 47202, Note_on_c, 0, 48, 49
2, 47228, Note_on_c, 0, 50, 0
2, 47277, Note_on_c, 0, 48, 0
2, 47305, Note_on_c, 0, 47, 52
2, 47390, Note_on_c, 0, 48, 51
2, 47405, Note_on_c, 0, 47, 0
2, 47411, Note_on_c, 0, 64, 56
2, 47455, Note_on_c, 0, 48, 0
2, 47595, Control_c, 0, 67, 38
2, 47637, Note_on_c, 0, 52, 56
2, 47671, Control_c, 0, 67, 37
2, 47709, Control_c, 0, 67, 37
2, 47748, Control_c, 0, 67, 36
2, 47843, Control_c, 0, 67, 36
2, 47865, Note_on_c, 0, 66, 66
2, 48018, Note_on_c, 0, 64, 0
2, 48071, Note_on_c, 0, 51, 65
2, 48136, Note_on_c, 0, 52, 0
2, 48309, Note_on_c, 0, 68, 71
2, 48317, Note_on_c, 0, 59, 63
2, 48387, Note_on_c, 0, 66, 0
2, 48420, Control_c, 0, 67, 35
2, 48439, Control_c, 0, 67, 34
2, 48458, Control_c, 0, 67, 34
2, 48477, Control_c, 0, 67, 32
2, 48480, Note_on_c, 0, 51, 0
2, 48497, Control_c, 0, 67, 31
2, 48516, Control_c, 0, 67, 27
2, 48523, Note_on_c, 0, 50, 60
2, 48535, Control_c, 0, 67, 21
2, 48554, Control_c, 0, 67, 16
2, 48574, Control_c, 0, 67, 12
2, 48593, Control_c, 0, 67, 9
2, 48609, Note_on_c, 0, 59, 0
2, 48612, Control_c, 0, 67, 0
2, 48742, Note_on_c, 0, 69, 72
2, 48760, Note_on_c, 0, 68, 0
2, 48784, Note_on_c, 0, 69, 0
2, 48974, Note_on_c, 0, 57, 67
2, 48981, Note_on_c, 0, 49, 56
2, 49023, Note_on_c, 0, 50, 0
2, 49034, Note_on_c, 0, 57, 0
2, 49070, Note_on_c, 0, 49, 0
2, 49083, Note_on_c, 0, 47, 64
2, 49190, Note_on_c, 0, 49, 62
2, 49193, Note_on_c, 0, 69, 79
2, 49209, Note_on_c, 0, 47, 0
2, 49432, Note_on_c, 0, 45, 64
2, 49483, Note_on_c, 0, 49, 0
2, 49661, Note_on_c, 0, 47, 70
2, 49717, Note_on_c, 0, 45, 0
2, 49871, Note_on_c, 0, 68, 81
2, 49903, Note_on_c, 0, 69, 0
2, 50080, Note_on_c, 0, 49, 68
2, 50091, Note_on_c, 0, 76, 70
2, 50139, Note_on_c, 0, 47, 0
2, 50328, Note_on_c, 0, 67, 64
2, 50364, Note_on_c, 0, 76, 0
2, 50402, Note_on_c, 0, 68, 0
2, 50512, Note_on_c, 0, 49, 0
2, 50541, Note_on_c, 0, 50, 65
2, 50636, Note_on_c, 0, 50, 0
2, 50750, Note_on_c, 0, 67, 0
2, 50772, Note_on_c, 0, 38, 62
2, 50786, Note_on_c, 0, 66, 57
2, 50813, Note_on_c, 0, 38, 0
2, 50851, Note_on_c, 0, 66, 0
2, 50887, Note_on_c, 0, 64, 57
2, 50962, Note_on_c, 0, 50, 57
2, 50972, Note_on_c, 0, 64, 0
2, 50997, Note_on_c, 0, 66, 59
2, 51189, Note_on_c, 0, 62, 64
2, 51428, Note_on_c, 0, 64, 69
2, 51591, Note_on_c, 0, 62, 0
2, 51593, Note_on_c, 0, 66, 0
2, 51642, Note_on_c, 0, 49, 72
2, 51688, Note_on_c, 0, 50, 0
2, 51866, Note_on_c, 0, 57, 55
2, 51871, Note_on_c, 0, 66, 73
2, 52035, Note_on_c, 0, 64, 0
2, 52103, Note_on_c, 0, 49, 0
2, 52109, Note_on_c, 0, 48, 68
2, 52257, Note_on_c, 0, 57, 0
2, 52325, Note_on_c, 0, 67, 66
2, 52361, Note_on_c, 0, 66, 0
2, 52400, Note_on_c, 0, 67, 0
2, 52558, Note_on_c, 0, 55, 73
2, 52563, Note_on_c, 0, 47, 63
2, 52587, Note_on_c, 0, 48, 0
2, 52618, Note_on_c, 0, 55, 0
2, 52655, Note_on_c, 0, 45, 65
2, 52668, Note_on_c, 0, 47, 0
2, 52773, Note_on_c, 0, 47, 65
2, 52784, Note_on_c, 0, 67, 76
2, 52798, Note_on_c, 0, 45, 0
2, 53014, Note_on_c, 0, 43, 67
2, 53056, Note_on_c, 0, 47, 0
2, 53243, Note_on_c, 0, 45, 68
2, 53363, Note_on_c, 0, 43, 0
2, 53468, Note_on_c, 0, 66, 77
2, 53481, Note_on_c, 0, 67, 0
2, 53706, Note_on_c, 0, 74, 75
2, 53723, Note_on_c, 0, 47, 68
2, 53793, Note_on_c, 0, 45, 0
2, 53972, Note_on_c, 0, 65, 77
2, 54093, Note_on_c, 0, 74, 0
2, 54103, Note_on_c, 0, 66, 0
2, 54237, Note_on_c, 0, 48, 73
2, 54349, Note_on_c, 0, 47, 0
2, 54455, Note_on_c, 0, 65, 0
2, 54462, Note_on_c, 0, 64, 74
2, 54551, Note_on_c, 0, 64, 0
2, 54555, Note_on_c, 0, 62, 81
2, 54653, Note_on_c, 0, 62, 0
2, 54661, Note_on_c, 0, 64, 86
2, 54928, Note_on_c, 0, 47, 58
2, 54947, Note_on_c, 0, 76, 81
2, 55004, Control_c, 0, 64, 25
2, 55011, Note_on_c, 0, 48, 0
2, 55024, Control_c, 0, 64, 45
2, 55043, Control_c, 0, 64, 52
2, 55062, Control_c, 0, 64, 55
2, 55070, Note_on_c, 0, 47, 0
2, 55073, Note_on_c, 0, 45, 61
2, 55081, Control_c, 0, 64, 56
2, 55104, Note_on_c, 0, 64, 0
2, 55119, Control_c, 0, 64, 56
2, 55158, Control_c, 0, 64, 55
2, 55211, Note_on_c, 0, 52, 69
2, 55226, Note_on_c, 0, 45, 0
2, 55235, Control_c, 0, 64, 55
2, 55254, Control_c, 0, 64, 54
2, 55273, Control_c, 0, 64, 53
2, 55293, Control_c, 0, 64, 51
2, 55312, Control_c, 0, 64, 50
2, 55331, Control_c, 0, 64, 50
2, 55335, Note_on_c, 0, 53, 64
2, 55350, Control_c, 0, 64, 48
2, 55359, Note_on_c, 0, 52, 0
2, 55370, Control_c, 0, 64, 46
2, 55388, Control_c, 0, 64, 42
2, 55408, Control_c, 0, 64, 36
2, 55421, Note_on_c, 0, 53, 0
2, 55427, Control_c, 0, 64, 31
2, 55443, Note_on_c, 0, 55, 55
2, 55446, Control_c, 0, 64, 26
2, 55457, Note_on_c, 0, 77, 76
2, 55465, Control_c, 0, 64, 18
2, 55476, Note_on_c, 0, 76, 0
2, 55484, Control_c, 0, 64, 0
2, 55525, Note_on_c, 0, 55, 0
2, 55546, Note_on_c, 0, 53, 50
2, 55582, Note_on_c, 0, 76, 80
2, 55608, Note_on_c, 0, 53, 0
2, 55629, Note_on_c, 0, 77, 0
2, 55633, Note_on_c, 0, 55, 59
2, 55681, Note_on_c, 0, 74, 76
2, 55701, Note_on_c, 0, 55, 0
2, 55719, Note_on_c, 0, 53, 63
2, 55724, Note_on_c, 0, 76, 0
2, 55781, Note_on_c, 0, 53, 0
2, 55788, Note_on_c, 0, 72, 81
2, 55809, Note_on_c, 0, 74, 0
2, 55812, Note_on_c, 0, 55, 61
2, 55857, Note_on_c, 0, 55, 0
2, 55875, Note_on_c, 0, 53, 52
2, 55886, Note_on_c, 0, 72, 0
2, 55898, Note_on_c, 0, 71, 81
2, 55920, Note_on_c, 0, 53, 0
2, 55954, Note_on_c, 0, 55, 60
2, 55973, Note_on_c, 0, 71, 0
2, 56004, Note_on_c, 0, 55, 0
2, 56015, Note_on_c, 0, 69, 74
2, 56025, Note_on_c, 0, 53, 60
2, 56113, Note_on_c, 0, 53, 0
2, 56134, Note_on_c, 0, 52, 57
2, 56147, Note_on_c, 0, 68, 73
2, 56160, Note_on_c, 0, 69, 0
2, 56214, Control_c, 0, 67, 8
2, 56233, Control_c, 0, 67, 12
2, 56253, Control_c, 0, 67, 15
2, 56263, Note_on_c, 0, 64, 61
2, 56272, Control_c, 0, 67, 17
2, 56291, Control_c, 0, 67, 19
2, 56310, Control_c, 0, 67, 20
2, 56368, Control_c, 0, 67, 21
2, 56390, Note_on_c, 0, 62, 56
2, 56394, Note_on_c, 0, 64, 0
2, 56483, Control_c, 0, 67, 22
2, 56492, Note_on_c, 0, 62, 0
2, 56500, Note_on_c, 0, 60, 54
2, 56521, Control_c, 0, 67, 23
2, 56541, Control_c, 0, 67, 25
2, 56559, Control_c, 0, 67, 29
2, 56572, Note_on_c, 0, 52, 0
2, 56579, Control_c, 0, 67, 32
2, 56593, Note_on_c, 0, 60, 0
2, 56598, Control_c, 0, 67, 34
2, 56618, Note_on_c, 0, 59, 62
2, 56729, Note_on_c, 0, 59, 0
2, 56738, Note_on_c, 0, 57, 59
2, 56829, Note_on_c, 0, 57, 0
2, 56831, Note_on_c, 0, 56, 61
2, 56924, Control_c, 0, 67, 33
2, 56954, Note_on_c, 0, 56, 0
2, 56966, Note_on_c, 0, 54, 46
2, 57089, Note_on_c, 0, 54, 0
2, 57142, Note_on_c, 0, 52, 45
2, 57174, Control_c, 0, 67, 33
2, 57308, Control_c, 0, 67, 33
2, 57347, Control_c, 0, 64, 37
2, 57366, Control_c, 0, 64, 53
2, 57385, Control_c, 0, 64, 59
2, 57404, Control_c, 0, 64, 61
2, 57424, Control_c, 0, 64, 62
2, 57443, Control_c, 0, 64, 63
2, 57462, Control_c, 0, 64, 64
2, 57462, Control_c, 0, 67, 34
2, 57481, Control_c, 0, 64, 64
2, 57501, Control_c, 0, 64, 65
2, 57519, Control_c, 0, 64, 65
2, 57539, Control_c, 0, 64, 66
2, 57654, Control_c, 0, 64, 65
2, 57673, Control_c, 0, 64, 64
2, 57693, Control_c, 0, 64, 64
2, 57697, Note_on_c, 0, 52, 0
2, 57712, Control_c, 0, 64, 63
2, 57731, Control_c, 0, 64, 62
2, 57750, Control_c, 0, 64, 62
2, 57771, Control_c, 0, 64, 61
2, 57789, Control_c, 0, 64, 59
2, 57809, Control_c, 0, 64, 58
2, 57828, Control_c, 0, 64, 55
2, 57847, Control_c, 0, 64, 53
2, 57866, Control_c, 0, 64, 49
2, 57885, Control_c, 0, 64, 44
2, 57905, Control_c, 0, 64, 35
2, 57908, Note_on_c, 0, 40, 34
2, 57923, Control_c, 0, 64, 22
2, 57943, Control_c, 0, 64, 0
2, 58058, Control_c, 0, 64, 27
2, 58077, Control_c, 0, 64, 47
2, 58097, Control_c, 0, 64, 58
2, 58116, Control_c, 0, 64, 62
2, 58135, Control_c, 0, 64, 64
2, 58154, Control_c, 0, 64, 64
2, 58174, Control_c, 0, 64, 65
2, 58193, Control_c, 0, 64, 66
2, 58212, Control_c, 0, 64, 67
2, 58230, Control_c, 0, 64, 69
2, 58250, Control_c, 0, 64, 72
2, 58266, Note_on_c, 0, 40, 0
2, 58268, Control_c, 0, 64, 75
2, 58287, Control_c, 0, 64, 76
2, 58307, Control_c, 0, 64, 76
2, 58374, Note_on_c, 0, 68, 0
2, 58381, Control_c, 0, 64, 76
2, 58458, Control_c, 0, 64, 75
2, 58496, Control_c, 0, 64, 75
2, 58515, Control_c, 0, 64, 74
2, 58535, Control_c, 0, 64, 73
2, 58553, Control_c, 0, 64, 73
2, 58573, Control_c, 0, 64, 72
2, 58592, Control_c, 0, 64, 71
2, 58611, Control_c, 0, 64, 70
2, 58611, Control_c, 0, 67, 33
2, 58630, Control_c, 0, 64, 69
2, 58630, Control_c, 0, 67, 33
2, 58650, Control_c, 0, 64, 68
2, 58669, Control_c, 0, 67, 32
2, 58728, Control_c, 0, 67, 32
2, 58766, Control_c, 0, 64, 67
2, 58766, Control_c, 0, 67, 31
2, 58785, Control_c, 0, 64, 67
2, 58805, Control_c, 0, 64, 66
2, 58805, Control_c, 0, 67, 31
2, 58823, Control_c, 0, 64, 66
2, 58823, Control_c, 0, 67, 30
2, 58881, Control_c, 0, 67, 30
2, 58920, Control_c, 0, 67, 29
2, 58996, Control_c, 0, 64, 65
2, 58996, Control_c, 0, 67, 29
2, 59034, Control_c, 0, 64, 64
2, 59050, Note_on_c, 0, 76, 53
2, 59054, Control_c, 0, 64, 63
2, 59073, Control_c, 0, 64, 62
2, 59092, Control_c, 0, 64, 61
2, 59111, Control_c, 0, 64, 61
2, 59131, Control_c, 0, 64, 60
2, 59131, Control_c, 0, 67, 28
2, 59150, Control_c, 0, 64, 59
2, 59164, Note_on_c, 0, 60, 36
2, 59169, Control_c, 0, 64, 59
2, 59187, Control_c, 0, 64, 58
2, 59207, Control_c, 0, 64, 58
2, 59225, Control_c, 0, 64, 57
2, 59234, Note_on_c, 0, 60, 0
2, 59264, Control_c, 0, 64, 57
2, 59279, Note_on_c, 0, 59, 47
2, 59284, Control_c, 0, 64, 56
2, 59302, Control_c, 0, 64, 55
2, 59341, Control_c, 0, 64, 54
2, 59350, Note_on_c, 0, 59, 0
2, 59361, Control_c, 0, 64, 54
2, 59379, Control_c, 0, 64, 53
2, 59387, Note_on_c, 0, 57, 44
2, 59399, Control_c, 0, 64, 52
2, 59418, Control_c, 0, 64, 52
2, 59418, Control_c, 0, 67, 28
2, 59436, Control_c, 0, 64, 51
2, 59456, Control_c, 0, 64, 50
2, 59457, Note_on_c, 0, 57, 0
2, 59470, Note_on_c, 0, 56, 50
2, 59475, Control_c, 0, 64, 49
2, 59495, Control_c, 0, 64, 48
2, 59503, Note_on_c, 0, 64, 48
2, 59505, Note_on_c, 0, 76, 0
2, 59513, Control_c, 0, 64, 47
2, 59513, Control_c, 0, 67, 27
2, 59533, Control_c, 0, 64, 46
2, 59552, Control_c, 0, 64, 45
2, 59571, Control_c, 0, 64, 43
2, 59590, Control_c, 0, 64, 42
2, 59610, Control_c, 0, 64, 41
2, 59667, Control_c, 0, 64, 41
2, 59706, Control_c, 0, 64, 40
2, 59726, Control_c, 0, 64, 39
2, 59727, Note_on_c, 0, 61, 47
2, 59745, Control_c, 0, 64, 38
2, 59750, Note_on_c, 0, 56, 0
2, 59765, Control_c, 0, 64, 37
2, 59783, Control_c, 0, 64, 37
2, 59803, Control_c, 0, 64, 36
2, 59860, Control_c, 0, 64, 36
2, 59935, Note_on_c, 0, 62, 39
2, 59950, Note_on_c, 0, 65, 50
2, 59992, Note_on_c, 0, 61, 0
2, 60004, Note_on_c, 0, 64, 0
2, 60033, Control_c, 0, 67, 27
2, 60110, Control_c, 0, 67, 26
2, 60168, Control_c, 0, 67, 26
2, 60182, Note_on_c, 0, 58, 48
2, 60263, Control_c, 0, 64, 35
2, 60279, Note_on_c, 0, 62, 0
2, 60283, Control_c, 0, 67, 25
2, 60320, Note_on_c, 0, 58, 0
2, 60379, Note_on_c, 0, 57, 42
2, 60393, Note_on_c, 0, 66, 62
2, 60513, Control_c, 0, 64, 36
2, 60532, Control_c, 0, 67, 25
2, 60545, Note_on_c, 0, 65, 0
2, 60551, Control_c, 0, 67, 24
2, 60571, Control_c, 0, 67, 24
2, 60605, Note_on_c, 0, 63, 59
2, 60672, Note_on_c, 0, 57, 0
2, 60783, Control_c, 0, 67, 23
2, 60802, Control_c, 0, 64, 36
2, 60830, Note_on_c, 0, 64, 55
2, 60844, Note_on_c, 0, 67, 63
2, 60860, Control_c, 0, 64, 37
2, 60879, Control_c, 0, 64, 37
2, 60879, Control_c, 0, 67, 23
2, 60898, Control_c, 0, 64, 38
2, 60918, Control_c, 0, 64, 38
2, 60924, Note_on_c, 0, 66, 0
2, 60936, Control_c, 0, 67, 22
2, 60955, Control_c, 0, 64, 39
2, 60994, Control_c, 0, 64, 39
2, 61013, Control_c, 0, 64, 40
2, 61050, Note_on_c, 0, 60, 58
2, 61055, Note_on_c, 0, 63, 0
2, 61070, Control_c, 0, 67, 22
2, 61153, Note_on_c, 0, 64, 0
2, 61242, Control_c, 0, 64, 40
2, 61281, Note_on_c, 0, 59, 62
2, 61288, Note_on_c, 0, 68, 71
2, 61299, Note_on_c, 0, 60, 0
2, 61395, Control_c, 0, 64, 41
2, 61445, Note_on_c, 0, 67, 0
2, 61491, Control_c, 0, 64, 41
2, 61497, Note_on_c, 0, 65, 61
2, 61568, Control_c, 0, 64, 42
2, 61586, Note_on_c, 0, 59, 0
2, 61645, Control_c, 0, 64, 42
2, 61645, Control_c, 0, 67, 21
2, 61684, Control_c, 0, 64, 43
2, 61684, Control_c, 0, 67, 21
2, 61733, Note_on_c, 0, 69, 74
2, 61818, Note_on_c, 0, 68, 0
2, 61836, Control_c, 0, 64, 43
2, 61875, Control_c, 0, 64, 44
2, 61949, Note_on_c, 0, 64, 68
2, 61993, Control_c, 0, 64, 44
2, 61999, Note_on_c, 0, 65, 0
2, 62032, Control_c, 0, 64, 45
2, 62051, Control_c, 0, 64, 45
2, 62051, Control_c, 0, 67, 20
2, 62108, Control_c, 0, 64, 46
2, 62127, Control_c, 0, 67, 21
2, 62147, Control_c, 0, 67, 22
2, 62187, Note_on_c, 0, 71, 72
2, 62228, Note_on_c, 0, 69, 0
2, 62281, Control_c, 0, 64, 46
2, 62301, Control_c, 0, 64, 47
2, 62319, Control_c, 0, 64, 48
2, 62339, Control_c, 0, 64, 50
2, 62358, Control_c, 0, 64, 52
2, 62378, Control_c, 0, 64, 55
2, 62387, Note_on_c, 0, 62, 64
2, 62396, Control_c, 0, 64, 56
2, 62416, Control_c, 0, 64, 58
2, 62432, Note_on_c, 0, 64, 0
2, 62435, Control_c, 0, 64, 59
2, 62454, Control_c, 0, 64, 60
2, 62473, Control_c, 0, 64, 60
2, 62493, Control_c, 0, 64, 61
2, 62588, Control_c, 0, 64, 60
2, 62607, Control_c, 0, 64, 60
2, 62627, Control_c, 0, 64, 59
2, 62646, Control_c, 0, 64, 58
2, 62657, Note_on_c, 0, 69, 46
2, 62665, Control_c, 0, 64, 57
2, 62684, Control_c, 0, 64, 56
2, 62686, Note_on_c, 0, 72, 57
2, 62704, Control_c, 0, 64, 56
2, 62722, Note_on_c, 0, 62, 0
2, 62723, Control_c, 0, 64, 55
2, 62736, Note_on_c, 0, 71, 0
2, 62761, Control_c, 0, 64, 54
2, 62767, Note_on_c, 0, 72, 0
2, 62781, Control_c, 0, 64, 53
2, 62793, Note_on_c, 0, 77, 63
2, 62799, Control_c, 0, 64, 53
2, 62881, Note_on_c, 0, 76, 67
2, 62915, Control_c, 0, 67, 21
2, 62940, Note_on_c, 0, 77, 0
2, 62953, Control_c, 0, 67, 21
2, 62968, Note_on_c, 0, 74, 62
2, 63022, Note_on_c, 0, 76, 0
2, 63046, Control_c, 0, 64, 52
2, 63046, Control_c, 0, 67, 20
2, 63074, Note_on_c, 0, 57, 52
2, 63074, Note_on_c, 0, 73, 66
2, 63087, Note_on_c, 0, 74, 0
2, 63181, Control_c, 0, 67, 20
2, 63200, Control_c, 0, 67, 19
2, 63238, Control_c, 0, 67, 19
2, 63258, Control_c, 0, 67, 18
2, 63315, Control_c, 0, 67, 18
2, 63318, Note_on_c, 0, 78, 75
2, 63335, Control_c, 0, 67, 17
2, 63353, Control_c, 0, 67, 16
2, 63373, Control_c, 0, 67, 15
2, 63392, Control_c, 0, 67, 13
2, 63412, Control_c, 0, 67, 11
2, 63430, Control_c, 0, 67, 10
2, 63450, Control_c, 0, 67, 8
2, 63469, Control_c, 0, 67, 0
2, 63503, Note_on_c, 0, 73, 0
2, 63520, Note_on_c, 0, 58, 60
2, 63544, Note_on_c, 0, 79, 74
2, 63625, Note_on_c, 0, 57, 0
2, 63763, Note_on_c, 0, 75, 77
2, 63781, Note_on_c, 0, 78, 0
2, 63807, Note_on_c, 0, 79, 0
2, 63830, Note_on_c, 0, 69, 0
2, 63856, Control_c, 0, 64, 53
2, 63977, Note_on_c, 0, 74, 78
2, 63978, Note_on_c, 0, 59, 69
2, 64059, Note_on_c, 0, 75, 0
2, 64183, Note_on_c, 0, 80, 85
2, 64392, Note_on_c, 0, 60, 66
2, 64406, Note_on_c, 0, 81, 80
2, 64446, Control_c, 0, 64, 52
2, 64465, Control_c, 0, 64, 52
2, 64491, Control_c, 0, 64, 51
2, 64509, Control_c, 0, 64, 49
2, 64512, Note_on_c, 0, 58, 0
2, 64518, Note_on_c, 0, 80, 0
2, 64528, Control_c, 0, 64, 46
2, 64539, Note_on_c, 0, 59, 0
2, 64548, Control_c, 0, 64, 41
2, 64567, Control_c, 0, 64, 36
2, 64586, Control_c, 0, 64, 30
2, 64605, Control_c, 0, 64, 19
2, 64625, Control_c, 0, 64, 0
2, 64637, Note_on_c, 0, 77, 85
2, 64668, Note_on_c, 0, 74, 0
2, 64699, Note_on_c, 0, 81, 0
2, 64827, Note_on_c, 0, 61, 66
2, 64859, Note_on_c, 0, 76, 78
2, 64927, Note_on_c, 0, 77, 0
2, 65013, Note_on_c, 0, 60, 0
2, 65084, Note_on_c, 0, 82, 77
2, 65214, Note_on_c, 0, 76, 0
2, 65303, Note_on_c, 0, 62, 54
2, 65381, Note_on_c, 0, 61, 0
2, 65527, Note_on_c, 0, 81, 77
2, 65582, Note_on_c, 0, 82, 0
2, 65734, Note_on_c, 0, 64, 69
2, 65748, Note_on_c, 0, 62, 0
2, 65979, Note_on_c, 0, 79, 78
2, 66004, Note_on_c, 0, 81, 0
2, 66217, Note_on_c, 0, 65, 43
2, 66239, Note_on_c, 0, 79, 0
2, 66251, Note_on_c, 0, 81, 65
2, 66339, Note_on_c, 0, 64, 0
2, 66362, Note_on_c, 0, 79, 77
2, 66416, Note_on_c, 0, 81, 0
2, 66437, Note_on_c, 0, 77, 75
2, 66490, Note_on_c, 0, 79, 0
2, 66526, Note_on_c, 0, 76, 80
2, 66548, Note_on_c, 0, 77, 0
2, 66638, Note_on_c, 0, 62, 52
2, 66638, Note_on_c, 0, 76, 0
2, 66645, Note_on_c, 0, 77, 80
2, 66865, Note_on_c, 0, 70, 79
2, 66955, Note_on_c, 0, 77, 0
2, 67036, Note_on_c, 0, 65, 0
2, 67083, Note_on_c, 0, 60, 53
2, 67100, Note_on_c, 0, 69, 71
2, 67194, Note_on_c, 0, 70, 0
2, 67228, Note_on_c, 0, 62, 0
2, 67301, Note_on_c, 0, 76, 68
2, 67358, Note_on_c, 0, 69, 0
2, 67524, Note_on_c, 0, 59, 58
2, 67541, Note_on_c, 0, 74, 60
2, 67547, Note_on_c, 0, 60, 0
2, 67628, Note_on_c, 0, 76, 0
2, 67748, Note_on_c, 0, 68, 61
2, 67748, Note_on_c, 0, 74, 0
2, 67960, Note_on_c, 0, 59, 0
2, 67968, Note_on_c, 0, 57, 50
2, 68083, Note_on_c, 0, 68, 0
2, 68098, Note_on_c, 0, 74, 56
2, 68192, Note_on_c, 0, 72, 57
2, 68202, Note_on_c, 0, 74, 0
2, 68278, Note_on_c, 0, 71, 56
2, 68282, Note_on_c, 0, 72, 0
2, 68351, Note_on_c, 0, 71, 0
2, 68383, Note_on_c, 0, 69, 61
2, 68411, Note_on_c, 0, 60, 41
2, 68563, Note_on_c, 0, 57, 0
2, 68615, Note_on_c, 0, 69, 0
2, 68619, Note_on_c, 0, 76, 61
2, 68832, Note_on_c, 0, 74, 54
2, 68840, Note_on_c, 0, 59, 49
2, 68848, Note_on_c, 0, 60, 0
2, 68881, Note_on_c, 0, 76, 0
2, 69016, Note_on_c, 0, 74, 0
2, 69032, Note_on_c, 0, 67, 50
2, 69263, Note_on_c, 0, 66, 55
2, 69273, Note_on_c, 0, 57, 50
2, 69324, Note_on_c, 0, 67, 0
2, 69412, Note_on_c, 0, 59, 0
2, 69488, Note_on_c, 0, 66, 0
2, 69489, Note_on_c, 0, 72, 66
2, 69682, Note_on_c, 0, 57, 0
2, 69700, Note_on_c, 0, 55, 51
2, 69710, Note_on_c, 0, 71, 67
2, 69758, Note_on_c, 0, 72, 0
2, 69842, Note_on_c, 0, 59, 70
2, 69895, Note_on_c, 0, 55, 0
2, 69939, Note_on_c, 0, 60, 70
2, 69983, Note_on_c, 0, 59, 0
2, 70014, Note_on_c, 0, 62, 72
2, 70021, Note_on_c, 0, 60, 0
2, 70105, Note_on_c, 0, 62, 0
2, 70114, Note_on_c, 0, 64, 68
2, 70163, Note_on_c, 0, 79, 78
2, 70336, Note_on_c, 0, 71, 0
2, 70351, Note_on_c, 0, 58, 62
2, 70476, Note_on_c, 0, 64, 0
2, 70582, Note_on_c, 0, 57, 60
2, 70586, Note_on_c, 0, 77, 72
2, 70606, Note_on_c, 0, 58, 0
2, 70747, Note_on_c, 0, 79, 0
2, 70803, Note_on_c, 0, 62, 61
2, 70974, Note_on_c, 0, 57, 0
2, 71025, Note_on_c, 0, 76, 68
2, 71049, Note_on_c, 0, 61, 53
2, 71101, Note_on_c, 0, 62, 0
2, 71103, Note_on_c, 0, 77, 0
2, 71243, Note_on_c, 0, 55, 57
2, 71293, Note_on_c, 0, 61, 0
2, 71499, Note_on_c, 0, 74, 59
2, 71535, Note_on_c, 0, 55, 0
2, 71556, Note_on_c, 0, 76, 0
2, 71598, Note_on_c, 0, 67, 55
2, 71699, Note_on_c, 0, 67, 0
2, 71724, Note_on_c, 0, 65, 55
2, 71789, Note_on_c, 0, 65, 0
2, 71803, Note_on_c, 0, 64, 58
2, 71888, Note_on_c, 0, 64, 0
2, 71916, Note_on_c, 0, 62, 45
2, 71934, Note_on_c, 0, 74, 0
2, 71951, Note_on_c, 0, 77, 38
2, 72133, Note_on_c, 0, 68, 58
2, 72294, Note_on_c, 0, 62, 0
2, 72317, Note_on_c, 0, 68, 0
2, 72340, Note_on_c, 0, 76, 56
2, 72360, Note_on_c, 0, 69, 51
2, 72457, Note_on_c, 0, 77, 0
2, 72576, Note_on_c, 0, 60, 38
2, 72697, Note_on_c, 0, 69, 0
2, 72786, Note_on_c, 0, 60, 0
2, 72824, Note_on_c, 0, 59, 41
2, 72831, Note_on_c, 0, 76, 0
2, 72836, Note_on_c, 0, 74, 41
2, 73076, Note_on_c, 0, 65, 32
2, 73186, Control_c, 0, 64, 24
2, 73205, Control_c, 0, 64, 56
2, 73220, Note_on_c, 0, 59, 0
2, 73224, Control_c, 0, 64, 61
2, 73243, Control_c, 0, 64, 62
2, 73282, Control_c, 0, 64, 63
2, 73350, Note_on_c, 0, 64, 37
2, 73378, Note_on_c, 0, 65, 0
2, 73417, Control_c, 0, 64, 63
2, 73474, Control_c, 0, 64, 63
2, 73479, Note_on_c, 0, 62, 51
2, 73483, Note_on_c, 0, 64, 0
2, 73494, Control_c, 0, 64, 62
2, 73512, Control_c, 0, 64, 60
2, 73532, Control_c, 0, 64, 58
2, 73539, Note_on_c, 0, 62, 0
2, 73551, Control_c, 0, 64, 56
2, 73569, Control_c, 0, 64, 55
2, 73589, Control_c, 0, 64, 54
2, 73604, Note_on_c, 0, 60, 48
2, 73608, Control_c, 0, 64, 53
2, 73628, Control_c, 0, 64, 51
2, 73646, Control_c, 0, 64, 49
2, 73657, Note_on_c, 0, 60, 0
2, 73666, Control_c, 0, 64, 47
2, 73685, Control_c, 0, 64, 47
2, 73713, Note_on_c, 0, 59, 50
2, 73723, Control_c, 0, 64, 46
2, 73743, Control_c, 0, 64, 45
2, 73762, Control_c, 0, 64, 43
2, 73781, Control_c, 0, 64, 41
2, 73781, Note_on_c, 0, 74, 0
2, 73785, Note_on_c, 0, 59, 0
2, 73799, Note_on_c, 0, 72, 53
2, 73800, Control_c, 0, 64, 40
2, 73815, Note_on_c, 0, 57, 44
2, 73877, Control_c, 0, 64, 41
2, 73915, Control_c, 0, 64, 42
2, 73935, Control_c, 0, 64, 43
2, 73954, Control_c, 0, 64, 44
2, 73974, Control_c, 0, 64, 45
2, 73992, Control_c, 0, 64, 46
2, 74009, Note_on_c, 0, 57, 0
2, 74012, Control_c, 0, 64, 49
2, 74023, Note_on_c, 0, 56, 51
2, 74031, Control_c, 0, 64, 51
2, 74037, Note_on_c, 0, 72, 0
2, 74044, Note_on_c, 0, 71, 49
2, 74049, Control_c, 0, 64, 54
2, 74069, Control_c, 0, 64, 56
2, 74088, Control_c, 0, 64, 57
2, 74108, Control_c, 0, 64, 58
2, 74126, Control_c, 0, 64, 59
2, 74146, Control_c, 0, 64, 60
2, 74165, Control_c, 0, 64, 60
2, 74223, Control_c, 0, 64, 60
2, 74228, Note_on_c, 0, 56, 0
2, 74242, Control_c, 0, 64, 59
2, 74247, Note_on_c, 0, 71, 0
2, 74261, Control_c, 0, 64, 58
2, 74268, Note_on_c, 0, 57, 46
2, 74277, Note_on_c, 0, 72, 54
2, 74338, Control_c, 0, 64, 58
2, 74357, Control_c, 0, 64, 59
2, 74377, Control_c, 0, 64, 60
2, 74395, Control_c, 0, 64, 60
2, 74415, Control_c, 0, 64, 61
2, 74434, Control_c, 0, 64, 61
2, 74454, Control_c, 0, 64, 62
2, 74472, Control_c, 0, 64, 63
2, 74475, Note_on_c, 0, 53, 56
2, 74492, Control_c, 0, 64, 63
2, 74529, Control_c, 0, 64, 64
2, 74548, Note_on_c, 0, 57, 0
2, 74643, Control_c, 0, 64, 63
2, 74660, Note_on_c, 0, 53, 0
2, 74663, Control_c, 0, 64, 61
2, 74681, Control_c, 0, 64, 57
2, 74688, Note_on_c, 0, 52, 51
2, 74701, Control_c, 0, 64, 51
2, 74706, Note_on_c, 0, 73, 65
2, 74720, Control_c, 0, 64, 46
2, 74739, Control_c, 0, 64, 43
2, 74778, Control_c, 0, 64, 44
2, 74797, Control_c, 0, 64, 46
2, 74806, Note_on_c, 0, 72, 0
2, 74816, Control_c, 0, 64, 48
2, 74835, Control_c, 0, 64, 52
2, 74855, Control_c, 0, 64, 56
2, 74873, Control_c, 0, 64, 59
2, 74893, Control_c, 0, 64, 61
2, 74912, Control_c, 0, 64, 63
2, 74918, Note_on_c, 0, 58, 57
2, 74932, Control_c, 0, 64, 63
2, 74950, Control_c, 0, 64, 64
2, 74969, Control_c, 0, 64, 64
2, 74989, Control_c, 0, 64, 65
2, 75027, Control_c, 0, 64, 65
2, 75048, Control_c, 0, 64, 66
2, 75106, Control_c, 0, 64, 65
2, 75125, Control_c, 0, 64, 64
2, 75144, Control_c, 0, 64, 63
2, 75154, Note_on_c, 0, 59, 59
2, 75155, Note_on_c, 0, 74, 70
2, 75163, Control_c, 0, 64, 61
2, 75183, Control_c, 0, 64, 59
2, 75202, Control_c, 0, 64, 56
2, 75221, Control_c, 0, 64, 55
2, 75233, Note_on_c, 0, 73, 0
2, 75240, Control_c, 0, 64, 54
2, 75260, Control_c, 0, 64, 54
2, 75278, Control_c, 0, 64, 52
2, 75298, Control_c, 0, 64, 50
2, 75317, Control_c, 0, 64, 44
2, 75337, Control_c, 0, 64, 36
2, 75346, Note_on_c, 0, 52, 0
2, 75355, Control_c, 0, 64, 26
2, 75361, Note_on_c, 0, 55, 64
2, 75361, Note_on_c, 0, 58, 0
2, 75375, Control_c, 0, 64, 0
2, 75380, Note_on_c, 0, 59, 0
2, 75561, Note_on_c, 0, 54, 67
2, 75562, Note_on_c, 0, 75, 77
2, 75580, Note_on_c, 0, 55, 0
2, 75684, Note_on_c, 0, 74, 0
2, 75808, Note_on_c, 0, 60, 67
2, 76000, Note_on_c, 0, 54, 0
2, 76028, Note_on_c, 0, 76, 75
2, 76117, Note_on_c, 0, 75, 0
2, 76242, Note_on_c, 0, 59, 68
2, 76320, Note_on_c, 0, 60, 0
2, 76464, Note_on_c, 0, 78, 74
2, 76567, Note_on_c, 0, 76, 0
2, 76681, Note_on_c, 0, 57, 62
2, 76690, Note_on_c, 0, 59, 0
2, 76917, Note_on_c, 0, 57, 0
2, 76927, Note_on_c, 0, 78, 0
2, 76928, Note_on_c, 0, 64, 49
2, 76941, Note_on_c, 0, 79, 61
2, 77033, Note_on_c, 0, 77, 58
2, 77049, Note_on_c, 0, 79, 0
2, 77115, Note_on_c, 0, 76, 64
2, 77115, Note_on_c, 0, 77, 0
2, 77196, Note_on_c, 0, 76, 0
2, 77218, Note_on_c, 0, 74, 63
2, 77320, Note_on_c, 0, 74, 0
2, 77332, Note_on_c, 0, 73, 59
2, 77374, Note_on_c, 0, 52, 43
2, 77568, Note_on_c, 0, 80, 71
2, 77648, Note_on_c, 0, 73, 0
2, 77806, Note_on_c, 0, 81, 72
2, 77807, Note_on_c, 0, 53, 58
2, 78010, Note_on_c, 0, 52, 0
2, 78024, Note_on_c, 0, 75, 77
2, 78089, Note_on_c, 0, 80, 0
2, 78099, Note_on_c, 0, 81, 0
2, 78235, Note_on_c, 0, 74, 75
2, 78253, Note_on_c, 0, 54, 68
2, 78267, Note_on_c, 0, 64, 0
2, 78327, Note_on_c, 0, 75, 0
2, 78382, Note_on_c, 0, 53, 0
2, 78464, Note_on_c, 0, 82, 82
2, 78678, Note_on_c, 0, 55, 63
2, 78701, Note_on_c, 0, 83, 77
2, 78763, Note_on_c, 0, 74, 0
2, 78773, Note_on_c, 0, 54, 0
2, 78867, Note_on_c, 0, 82, 0
2, 78919, Note_on_c, 0, 77, 79
2, 78974, Note_on_c, 0, 83, 0
2, 79130, Note_on_c, 0, 76, 81
2, 79138, Note_on_c, 0, 56, 62
2, 79145, Note_on_c, 0, 77, 0
2, 79270, Note_on_c, 0, 55, 0
2, 79352, Note_on_c, 0, 74, 73
2, 79406, Note_on_c, 0, 76, 0
2, 79565, Note_on_c, 0, 57, 66
2, 79607, Note_on_c, 0, 56, 0
2, 79798, Note_on_c, 0, 72, 67
2, 79841, Note_on_c, 0, 74, 0
2, 79988, Note_on_c, 0, 57, 0
2, 80017, Note_on_c, 0, 59, 57
2, 80247, Note_on_c, 0, 71, 61
2, 80249, Note_on_c, 0, 72, 0
2, 80468, Note_on_c, 0, 60, 48
2, 80479, Note_on_c, 0, 59, 0
2, 80651, Note_on_c, 0, 71, 0
2, 80689, Note_on_c, 0, 69, 58
2, 80795, Note_on_c, 0, 69, 0
2, 80801, Note_on_c, 0, 71, 64
2, 80877, Note_on_c, 0, 71, 0
2, 80888, Note_on_c, 0, 72, 62
2, 80899, Note_on_c, 0, 57, 48
2, 81128, Note_on_c, 0, 63, 68
2, 81249, Note_on_c, 0, 72, 0
2, 81347, Note_on_c, 0, 64, 74
2, 81359, Note_on_c, 0, 55, 60
2, 81380, Note_on_c, 0, 63, 0
2, 81483, Note_on_c, 0, 60, 0
2, 81537, Note_on_c, 0, 57, 0
2, 81573, Note_on_c, 0, 73, 71
2, 81780, Note_on_c, 0, 74, 69
2, 81789, Note_on_c, 0, 53, 63
2, 81831, Note_on_c, 0, 55, 0
2, 81877, Note_on_c, 0, 73, 0
2, 82023, Note_on_c, 0, 65, 72
2, 82040, Note_on_c, 0, 64, 0
2, 82100, Note_on_c, 0, 74, 0
2, 82224, Note_on_c, 0, 53, 0
2, 82228, Note_on_c, 0, 52, 51
2, 82278, Note_on_c, 0, 67, 58
2, 82348, Note_on_c, 0, 65, 0
2, 82382, Note_on_c, 0, 53, 55
2, 82424, Note_on_c, 0, 52, 0
2, 82470, Note_on_c, 0, 55, 53
2, 82483, Note_on_c, 0, 53, 0
2, 82564, Note_on_c, 0, 55, 0
2, 82566, Note_on_c, 0, 57, 62
2, 82673, Note_on_c, 0, 74, 60
2, 82676, Note_on_c, 0, 58, 52
2, 82690, Note_on_c, 0, 57, 0
2, 82753, Note_on_c, 0, 67, 0
2, 82912, Note_on_c, 0, 53, 54
2, 82981, Note_on_c, 0, 58, 0
2, 83116, Note_on_c, 0, 73, 61
2, 83121, Note_on_c, 0, 53, 0
2, 83123, Note_on_c, 0, 52, 50
2, 83153, Note_on_c, 0, 74, 0
2, 83334, Note_on_c, 0, 57, 51
2, 83467, Note_on_c, 0, 52, 0
2, 83575, Note_on_c, 0, 55, 43
2, 83576, Note_on_c, 0, 70, 49
2, 83580, Note_on_c, 0, 57, 0
2, 83643, Note_on_c, 0, 73, 0
2, 83777, Note_on_c, 0, 55, 0
2, 83797, Note_on_c, 0, 50, 44
2, 84009, Note_on_c, 0, 50, 0
2, 84024, Note_on_c, 0, 49, 40
2, 84120, Note_on_c, 0, 70, 0
2, 84153, Note_on_c, 0, 69, 49
2, 84207, Note_on_c, 0, 69, 0
2, 84260, Note_on_c, 0, 67, 46
2, 84309, Note_on_c, 0, 67, 0
2, 84322, Note_on_c, 0, 69, 62
2, 84445, Note_on_c, 0, 69, 0
2, 84454, Note_on_c, 0, 70, 67
2, 84459, Note_on_c, 0, 55, 41
2, 84667, Note_on_c, 0, 61, 70
2, 84767, Note_on_c, 0, 70, 0
2, 84886, Note_on_c, 0, 55, 0
2, 84887, Note_on_c, 0, 61, 0
2, 84894, Note_on_c, 0, 62, 60
2, 84896, Note_on_c, 0, 53, 49
2, 85014, Note_on_c, 0, 49, 0
2, 85102, Note_on_c, 0, 71, 64
2, 85201, Note_on_c, 0, 62, 0
2, 85313, Note_on_c, 0, 71, 0
2, 85327, Note_on_c, 0, 52, 43
2, 85335, Note_on_c, 0, 72, 55
2, 85348, Note_on_c, 0, 53, 0
2, 85559, Note_on_c, 0, 64, 53
2, 85713, Note_on_c, 0, 72, 0
2, 85722, Note_on_c, 0, 52, 0
2, 85760, Note_on_c, 0, 64, 0
2, 85770, Note_on_c, 0, 50, 45
2, 85785, Note_on_c, 0, 66, 45
2, 85881, Note_on_c, 0, 50, 0
2, 85890, Note_on_c, 0, 52, 54
2, 85974, Note_on_c, 0, 54, 57
2, 85982, Note_on_c, 0, 52, 0
2, 86055, Note_on_c, 0, 54, 0
2, 86077, Note_on_c, 0, 55, 54
2, 86146, Note_on_c, 0, 55, 0
2, 86179, Note_on_c, 0, 66, 0
2, 86181, Note_on_c, 0, 72, 57
2, 86196, Note_on_c, 0, 57, 39
2, 86425, Note_on_c, 0, 51, 43
2, 86466, Note_on_c, 0, 57, 0
2, 86626, Note_on_c, 0, 51, 0
2, 86645, Note_on_c, 0, 50, 41
2, 86656, Note_on_c, 0, 72, 0
2, 86669, Note_on_c, 0, 71, 47
2, 86876, Note_on_c, 0, 55, 38
2, 87089, Note_on_c, 0, 50, 0
2, 87113, Note_on_c, 0, 71, 0
2, 87131, Note_on_c, 0, 69, 43
2, 87149, Note_on_c, 0, 54, 27
2, 87155, Note_on_c, 0, 55, 0
2, 87376, Note_on_c, 0, 48, 40
2, 87456, Note_on_c, 0, 54, 0
2, 87655, Note_on_c, 0, 47, 40
2, 87707, Note_on_c, 0, 48, 0
2, 87742, Note_on_c, 0, 69, 0
2, 87789, Note_on_c, 0, 67, 42
2, 87902, Note_on_c, 0, 67, 0
2, 87909, Note_on_c, 0, 69, 47
2, 87967, Note_on_c, 0, 69, 0
2, 88002, Note_on_c, 0, 71, 49
2, 88076, Note_on_c, 0, 71, 0
2, 88092, Note_on_c, 0, 52, 38
2, 88114, Note_on_c, 0, 72, 52
2, 88375, Note_on_c, 0, 67, 46
2, 88582, Note_on_c, 0, 51, 43
2, 88592, Note_on_c, 0, 47, 0
2, 88597, Note_on_c, 0, 66, 56
2, 88642, Note_on_c, 0, 67, 0
2, 88726, Note_on_c, 0, 52, 0
2, 88752, Note_on_c, 0, 72, 0
2, 88821, Note_on_c, 0, 70, 64
2, 89020, Note_on_c, 0, 50, 53
2, 89028, Note_on_c, 0, 71, 67
2, 89074, Note_on_c, 0, 66, 0
2, 89149, Note_on_c, 0, 70, 0
2, 89218, Note_on_c, 0, 51, 0
2, 89249, Note_on_c, 0, 65, 61
2, 89461, Note_on_c, 0, 49, 60
2, 89478, Note_on_c, 0, 64, 64
2, 89550, Note_on_c, 0, 65, 0
2, 89645, Note_on_c, 0, 50, 0
2, 89688, Note_on_c, 0, 68, 71
2, 89698, Note_on_c, 0, 71, 0
2, 89843, Note_on_c, 0, 64, 0
2, 89900, Note_on_c, 0, 48, 58
2, 89919, Note_on_c, 0, 69, 68
2, 89979, Note_on_c, 0, 68, 0
2, 90059, Note_on_c, 0, 49, 0
2, 90143, Note_on_c, 0, 63, 70
2, 90340, Note_on_c, 0, 47, 62
2, 90464, Note_on_c, 0, 48, 0
2, 90488, Note_on_c, 0, 69, 0
2, 90562, Note_on_c, 0, 64, 72
2, 90656, Note_on_c, 0, 63, 0
2, 90775, Note_on_c, 0, 45, 64
2, 90810, Note_on_c, 0, 47, 0
2, 91011, Note_on_c, 0, 66, 71
2, 91072, Note_on_c, 0, 64, 0
2, 91240, Note_on_c, 0, 66, 0
2, 91269, Note_on_c, 0, 59, 70
2, 91310, Control_c, 0, 64, 52
2, 91328, Control_c, 0, 64, 62
2, 91348, Control_c, 0, 64, 64
2, 91348, Note_on_c, 0, 48, 48
2, 91367, Control_c, 0, 64, 64
2, 91387, Control_c, 0, 64, 65
2, 91405, Control_c, 0, 64, 66
2, 91407, Note_on_c, 0, 45, 0
2, 91425, Control_c, 0, 64, 66
2, 91444, Control_c, 0, 64, 67
2, 91458, Note_on_c, 0, 59, 0
2, 91460, Note_on_c, 0, 48, 0
2, 91464, Control_c, 0, 64, 68
2, 91466, Note_on_c, 0, 47, 63
2, 91482, Control_c, 0, 64, 68
2, 91502, Control_c, 0, 64, 69
2, 91578, Note_on_c, 0, 45, 59
2, 91579, Control_c, 0, 64, 68
2, 91592, Note_on_c, 0, 47, 0
2, 91598, Control_c, 0, 64, 68
2, 91617, Control_c, 0, 64, 66
2, 91636, Control_c, 0, 64, 63
2, 91656, Control_c, 0, 64, 59
2, 91671, Note_on_c, 0, 45, 0
2, 91674, Control_c, 0, 64, 54
2, 91677, Note_on_c, 0, 44, 52
2, 91690, Note_on_c, 0, 77, 53
2, 91693, Control_c, 0, 64, 51
2, 91695, Note_on_c, 0, 76, 56
2, 91713, Control_c, 0, 64, 49
2, 91732, Control_c, 0, 64, 48
2, 91751, Control_c, 0, 64, 47
2, 91770, Control_c, 0, 64, 45
2, 91790, Control_c, 0, 64, 44
2, 91827, Control_c, 0, 64, 45
2, 91845, Note_on_c, 0, 77, 0
2, 91846, Control_c, 0, 64, 45
2, 91895, Note_on_c, 0, 49, 68
2, 91904, Control_c, 0, 64, 45
2, 91923, Control_c, 0, 64, 44
2, 91943, Control_c, 0, 64, 44
2, 91961, Control_c, 0, 64, 42
2, 91981, Control_c, 0, 64, 41
2, 92064, Note_on_c, 0, 44, 0
2, 92109, Note_on_c, 0, 50, 58
2, 92122, Note_on_c, 0, 77, 76
2, 92135, Control_c, 0, 64, 40
2, 92148, Note_on_c, 0, 76, 0
2, 92269, Control_c, 0, 64, 39
2, 92342, Note_on_c, 0, 46, 68
2, 92347, Control_c, 0, 64, 39
2, 92379, Note_on_c, 0, 49, 0
2, 92462, Note_on_c, 0, 50, 0
2, 92539, Control_c, 0, 64, 38
2, 92558, Control_c, 0, 64, 38
2, 92561, Note_on_c, 0, 45, 58
2, 92577, Control_c, 0, 64, 37
2, 92581, Note_on_c, 0, 78, 81
2, 92604, Note_on_c, 0, 46, 0
2, 92634, Control_c, 0, 64, 36
2, 92692, Control_c, 0, 64, 36
2, 92724, Note_on_c, 0, 77, 0
2, 92730, Control_c, 0, 64, 35
2, 92750, Control_c, 0, 64, 34
2, 92768, Control_c, 0, 64, 33
2, 92781, Note_on_c, 0, 51, 75
2, 92789, Control_c, 0, 64, 32
2, 92808, Control_c, 0, 64, 31
2, 92828, Control_c, 0, 64, 31
2, 92860, Note_on_c, 0, 45, 0
2, 92866, Control_c, 0, 64, 30
2, 92885, Control_c, 0, 64, 29
2, 92904, Control_c, 0, 64, 28
2, 92923, Control_c, 0, 64, 25
2, 92943, Control_c, 0, 64, 19
2, 92962, Control_c, 0, 64, 0
2, 93012, Note_on_c, 0, 52, 70
2, 93032, Note_on_c, 0, 79, 84
2, 93127, Note_on_c, 0, 78, 0
2, 93237, Note_on_c, 0, 48, 78
2, 93292, Note_on_c, 0, 52, 0
2, 93295, Note_on_c, 0, 51, 0
2, 93464, Note_on_c, 0, 47, 65
2, 93467, Note_on_c, 0, 80, 88
2, 93493, Note_on_c, 0, 48, 0
2, 93571, Note_on_c, 0, 79, 0
2, 93694, Note_on_c, 0, 53, 72
2, 93800, Note_on_c, 0, 47, 0
2, 93939, Note_on_c, 0, 81, 87
2, 94030, Note_on_c, 0, 80, 0
2, 94159, Note_on_c, 0, 52, 66
2, 94208, Note_on_c, 0, 53, 0
2, 94417, Note_on_c, 0, 83, 89
2, 94486, Note_on_c, 0, 81, 0
2, 94665, Note_on_c, 0, 50, 69
2, 94734, Note_on_c, 0, 52, 0
2, 94985, Note_on_c, 0, 48, 66
2, 95033, Note_on_c, 0, 50, 0
2, 95228, Note_on_c, 0, 83, 0
2, 95241, Note_on_c, 0, 81, 79
2, 95338, Note_on_c, 0, 83, 82
2, 95369, Note_on_c, 0, 81, 0
2, 95439, Note_on_c, 0, 84, 76
2, 95444, Note_on_c, 0, 52, 65
2, 95481, Note_on_c, 0, 83, 0
2, 95503, Note_on_c, 0, 48, 0
2, 95757, Note_on_c, 0, 76, 80
2, 96008, Note_on_c, 0, 54, 73
2, 96181, Note_on_c, 0, 52, 0
2, 96219, Note_on_c, 0, 84, 0
2, 96235, Note_on_c, 0, 75, 83
2, 96354, Note_on_c, 0, 76, 0
2, 96458, Note_on_c, 0, 56, 67
2, 96459, Note_on_c, 0, 83, 73
2, 96558, Note_on_c, 0, 54, 0
2, 96696, Note_on_c, 0, 74, 70
2, 96802, Note_on_c, 0, 83, 0
2, 96857, Note_on_c, 0, 75, 0
2, 96911, Note_on_c, 0, 57, 67
2, 96965, Note_on_c, 0, 56, 0
2, 97027, Note_on_c, 0, 72, 77
2, 97037, Note_on_c, 0, 74, 0
2, 97132, Note_on_c, 0, 74, 70
2, 97163, Note_on_c, 0, 72, 0
2, 97223, Note_on_c, 0, 76, 76
2, 97260, Note_on_c, 0, 74, 0
2, 97329, Note_on_c, 0, 45, 60
2, 97329, Note_on_c, 0, 77, 72
2, 97350, Note_on_c, 0, 76, 0
2, 97604, Note_on_c, 0, 69, 78
2, 97826, Note_on_c, 0, 47, 67
2, 97955, Note_on_c, 0, 45, 0
2, 98033, Note_on_c, 0, 68, 79
2, 98068, Note_on_c, 0, 77, 0
2, 98109, Note_on_c, 0, 57, 0
2, 98149, Note_on_c, 0, 69, 0
2, 98263, Note_on_c, 0, 49, 57
2, 98289, Note_on_c, 0, 76, 63
2, 98340, Note_on_c, 0, 47, 0
2, 98501, Note_on_c, 0, 76, 0
2, 98513, Note_on_c, 0, 67, 57
2, 98557, Note_on_c, 0, 68, 0
2, 98708, Note_on_c, 0, 49, 0
2, 98724, Note_on_c, 0, 50, 29
2, 98792, Note_on_c, 0, 67, 0
2, 98825, Note_on_c, 0, 65, 59
2, 98911, Note_on_c, 0, 65, 0
2, 98933, Note_on_c, 0, 67, 59
2, 99031, Note_on_c, 0, 69, 66
2, 99092, Note_on_c, 0, 67, 0
2, 99135, Note_on_c, 0, 38, 54
2, 99157, Note_on_c, 0, 70, 68
2, 99173, Note_on_c, 0, 69, 0
2, 99399, Note_on_c, 0, 62, 57
2, 99602, Note_on_c, 0, 40, 65
2, 99659, Note_on_c, 0, 50, 0
2, 99667, Note_on_c, 0, 38, 0
2, 99823, Note_on_c, 0, 61, 72
2, 99838, Note_on_c, 0, 70, 0
2, 100062, Note_on_c, 0, 52, 65
2, 100068, Note_on_c, 0, 69, 66
2, 100087, Note_on_c, 0, 62, 0
2, 100102, Note_on_c, 0, 40, 0
2, 100304, Note_on_c, 0, 60, 65
2, 100350, Note_on_c, 0, 69, 0
2, 100382, Note_on_c, 0, 61, 0
2, 100499, Note_on_c, 0, 51, 52
2, 100553, Note_on_c, 0, 52, 0
2, 100751, Note_on_c, 0, 59, 64
2, 100758, Note_on_c, 0, 60, 0
2, 100971, Note_on_c, 0, 50, 45
2, 101000, Note_on_c, 0, 68, 54
2, 101039, Note_on_c, 0, 59, 0
2, 101057, Note_on_c, 0, 51, 0
2, 101184, Note_on_c, 0, 68, 0
2, 101212, Note_on_c, 0, 59, 56
2, 101439, Note_on_c, 0, 49, 42
2, 101543, Note_on_c, 0, 50, 0
2, 101660, Note_on_c, 0, 57, 49
2, 101886, Note_on_c, 0, 57, 0
2, 101888, Note_on_c, 0, 48, 28
2, 101898, Note_on_c, 0, 65, 41
2, 101996, Note_on_c, 0, 49, 0
2, 102083, Note_on_c, 0, 59, 0
2, 102114, Note_on_c, 0, 65, 0
2, 102152, Note_on_c, 0, 57, 36
2, 102381, Note_on_c, 0, 47, 42
2, 102441, Note_on_c, 0, 48, 0
2, 102547, Note_on_c, 0, 47, 0
2, 102568, Note_on_c, 0, 57, 0
2, 102611, Note_on_c, 0, 56, 48
2, 102684, Note_on_c, 0, 56, 0
2, 102721, Note_on_c, 0, 54, 53
2, 102794, Note_on_c, 0, 54, 0
2, 102835, Note_on_c, 0, 56, 45
2, 102843, Note_on_c, 0, 47, 42
2, 103087, Note_on_c, 0, 56, 0
2, 103113, Note_on_c, 0, 62, 47
2, 103329, Note_on_c, 0, 45, 47
2, 103367, Note_on_c, 0, 47, 0
2, 103410, Note_on_c, 0, 62, 0
2, 103432, Note_on_c, 0, 60, 52
2, 103495, Note_on_c, 0, 45, 0
2, 103517, Note_on_c, 0, 60, 0
2, 103534, Note_on_c, 0, 59, 61
2, 103598, Note_on_c, 0, 59, 0
2, 103634, Note_on_c, 0, 57, 64
2, 103706, Note_on_c, 0, 57, 0
2, 103713, Note_on_c, 0, 45, 59
2, 103734, Note_on_c, 0, 59, 63
2, 103919, Note_on_c, 0, 59, 0
2, 104015, Note_on_c, 0, 65, 68
2, 104228, Note_on_c, 0, 44, 65
2, 104331, Note_on_c, 0, 65, 0
2, 104348, Note_on_c, 0, 45, 0
2, 104354, Note_on_c, 0, 64, 69
2, 104455, Note_on_c, 0, 64, 0
2, 104457, Note_on_c, 0, 62, 75
2, 104527, Note_on_c, 0, 44, 0
2, 104551, Note_on_c, 0, 61, 73
2, 104556, Note_on_c, 0, 62, 0
2, 104643, Note_on_c, 0, 62, 75
2, 104649, Note_on_c, 0, 61, 0
2, 104651, Note_on_c, 0, 44, 73
2, 104824, Note_on_c, 0, 62, 0
2, 104933, Note_on_c, 0, 71, 80
2, 105154, Note_on_c, 0, 40, 70
2, 105240, Note_on_c, 0, 44, 0
2, 105264, Note_on_c, 0, 69, 77
2, 105268, Note_on_c, 0, 71, 0
2, 105360, Note_on_c, 0, 68, 79
2, 105375, Note_on_c, 0, 69, 0
2, 105451, Note_on_c, 0, 68, 0
2, 105460, Note_on_c, 0, 66, 84
2, 105464, Note_on_c, 0, 40, 0
2, 105573, Note_on_c, 0, 68, 81
2, 105577, Note_on_c, 0, 40, 65
2, 105593, Note_on_c, 0, 66, 0
2, 105858, Note_on_c, 0, 68, 0
2, 105905, Note_on_c, 0, 74, 73
2, 106143, Note_on_c, 0, 45, 60
2, 106215, Note_on_c, 0, 40, 0
2, 106416, Note_on_c, 0, 72, 64
2, 106474, Note_on_c, 0, 74, 0
2, 106501, Note_on_c, 0, 72, 0
2, 106504, Note_on_c, 0, 71, 71
2, 106600, Note_on_c, 0, 71, 0
2, 106609, Note_on_c, 0, 72, 64
2, 106711, Note_on_c, 0, 45, 0
2, 106716, Note_on_c, 0, 50, 60
2, 106821, Note_on_c, 0, 50, 0
2, 106831, Note_on_c, 0, 52, 60
2, 106835, Note_on_c, 0, 69, 59
2, 106854, Note_on_c, 0, 72, 0
2, 106934, Note_on_c, 0, 52, 0
2, 106937, Note_on_c, 0, 54, 62
2, 107030, Note_on_c, 0, 69, 0
2, 107034, Note_on_c, 0, 54, 0
2, 107034, Note_on_c, 0, 70, 66
2, 107052, Note_on_c, 0, 55, 55
2, 107264, Note_on_c, 0, 51, 63
2, 107356, Note_on_c, 0, 55, 0
2, 107472, Note_on_c, 0, 50, 60
2, 107502, Note_on_c, 0, 71, 70
2, 107571, Note_on_c, 0, 51, 0
2, 107576, Note_on_c, 0, 70, 0
2, 107712, Note_on_c, 0, 56, 70
2, 107862, Note_on_c, 0, 50, 0
2, 107942, Note_on_c, 0, 57, 61
2, 107945, Note_on_c, 0, 72, 77
2, 108018, Note_on_c, 0, 71, 0
2, 108160, Note_on_c, 0, 53, 72
2, 108208, Note_on_c, 0, 56, 0
2, 108290, Note_on_c, 0, 57, 0
2, 108392, Note_on_c, 0, 52, 66
2, 108413, Note_on_c, 0, 53, 0
2, 108416, Note_on_c, 0, 73, 81
2, 108559, Note_on_c, 0, 72, 0
2, 108628, Note_on_c, 0, 58, 72
2, 108814, Note_on_c, 0, 52, 0
2, 108833, Note_on_c, 0, 74, 76
2, 108898, Note_on_c, 0, 73, 0
2, 109070, Note_on_c, 0, 57, 74
2, 109143, Note_on_c, 0, 58, 0
2, 109327, Note_on_c, 0, 76, 82
2, 109428, Note_on_c, 0, 74, 0
2, 109562, Note_on_c, 0, 55, 72
2, 109671, Note_on_c, 0, 57, 0
2, 109831, Note_on_c, 0, 53, 71
2, 109874, Note_on_c, 0, 55, 0
2, 109956, Note_on_c, 0, 73, 70
2, 109970, Note_on_c, 0, 76, 0
2, 109983, Note_on_c, 0, 53, 0
2, 109986, Note_on_c, 0, 52, 70
2, 110081, Note_on_c, 0, 53, 74
2, 110087, Note_on_c, 0, 74, 76
2, 110099, Note_on_c, 0, 52, 0
2, 110117, Note_on_c, 0, 73, 0
2, 110175, Note_on_c, 0, 53, 0
2, 110181, Note_on_c, 0, 55, 76
2, 110195, Note_on_c, 0, 76, 78
2, 110204, Note_on_c, 0, 74, 0
2, 110301, Note_on_c, 0, 57, 75
2, 110314, Note_on_c, 0, 55, 0
2, 110320, Note_on_c, 0, 77, 78
2, 110349, Note_on_c, 0, 76, 0
2, 110591, Note_on_c, 0, 72, 77
2, 110828, Note_on_c, 0, 56, 62
2, 110836, Note_on_c, 0, 71, 77
2, 110870, Note_on_c, 0, 72, 0
2, 110986, Note_on_c, 0, 57, 0
2, 111043, Note_on_c, 0, 75, 83
2, 111069, Note_on_c, 0, 77, 0
2, 111103, Note_on_c, 0, 71, 0
2, 111272, Note_on_c, 0, 76, 73
2, 111274, Note_on_c, 0, 55, 63
2, 111347, Note_on_c, 0, 75, 0
2, 111483, Note_on_c, 0, 56, 0
2, 111488, Note_on_c, 0, 70, 77
2, 111723, Note_on_c, 0, 54, 58
2, 111723, Note_on_c, 0, 69, 74
2, 111777, Note_on_c, 0, 70, 0
2, 111866, Note_on_c, 0, 55, 0
2, 111924, Note_on_c, 0, 76, 0
2, 111931, Note_on_c, 0, 73, 72
2, 112006, Note_on_c, 0, 69, 0
2, 112174, Note_on_c, 0, 53, 52
2, 112179, Note_on_c, 0, 74, 66
2, 112238, Note_on_c, 0, 73, 0
2, 112303, Note_on_c, 0, 54, 0
2, 112402, Note_on_c, 0, 68, 68
2, 112521, Note_on_c, 0, 74, 0
2, 112622, Note_on_c, 0, 52, 62
2, 112801, Note_on_c, 0, 53, 0
2, 112850, Note_on_c, 0, 69, 76
2, 112912, Note_on_c, 0, 68, 0
2, 113093, Note_on_c, 0, 50, 62
2, 113177, Note_on_c, 0, 52, 0
2, 113308, Note_on_c, 0, 71, 80
2, 113380, Note_on_c, 0, 69, 0
2, 113569, Note_on_c, 0, 71, 0
2, 113572, Note_on_c, 0, 64, 78
2, 113868, Note_on_c, 0, 48, 55
2, 113889, Note_on_c, 0, 76, 77
2, 113926, Note_on_c, 0, 50, 0
2, 113994, Note_on_c, 0, 48, 0
2, 113996, Note_on_c, 0, 47, 71
2, 114029, Note_on_c, 0, 64, 0
2, 114099, Note_on_c, 0, 48, 75
2, 114109, Note_on_c, 0, 47, 0
2, 114245, Note_on_c, 0, 74, 74
2, 114325, Note_on_c, 0, 76, 0
2, 114370, Note_on_c, 0, 45, 65
2, 114372, Note_on_c, 0, 72, 81
2, 114377, Note_on_c, 0, 48, 0
2, 114404, Note_on_c, 0, 74, 0
2, 114495, Note_on_c, 0, 71, 81
2, 114502, Note_on_c, 0, 72, 0
2, 114657, Note_on_c, 0, 52, 65
2, 114664, Note_on_c, 0, 74, 74
2, 114675, Note_on_c, 0, 71, 0
2, 114759, Note_on_c, 0, 45, 0
2, 114810, Note_on_c, 0, 72, 78
2, 114853, Note_on_c, 0, 74, 0
2, 114920, Note_on_c, 0, 71, 76
2, 114971, Note_on_c, 0, 72, 0
2, 115020, Note_on_c, 0, 71, 0
2, 115036, Note_on_c, 0, 69, 73
2, 115155, Note_on_c, 0, 69, 0
2, 115172, Note_on_c, 0, 72, 70
2, 115180, Note_on_c, 0, 40, 54
2, 115223, Note_on_c, 0, 52, 0
2, 115305, Note_on_c, 0, 71, 73
2, 115326, Note_on_c, 0, 72, 0
2, 115433, Note_on_c, 0, 69, 79
2, 115452, Note_on_c, 0, 71, 0
2, 115584, Note_on_c, 0, 68, 73
2, 115589, Note_on_c, 0, 69, 0
2, 115715, Note_on_c, 0, 40, 0
2, 115766, Note_on_c, 0, 45, 46
2, 115818, Note_on_c, 0, 68, 0
2, 115834, Note_on_c, 0, 69, 64
2, 115920, Control_c, 0, 64, 17
2, 115940, Control_c, 0, 64, 36
2, 115958, Control_c, 0, 64, 47
2, 115978, Control_c, 0, 64, 53
2, 115997, Control_c, 0, 64, 58
2, 116016, Control_c, 0, 64, 61
2, 116019, Note_on_c, 0, 69, 0
2, 116030, Note_on_c, 0, 68, 62
2, 116035, Control_c, 0, 64, 62
2, 116055, Control_c, 0, 64, 63
2, 116074, Control_c, 0, 64, 63
2, 116093, Control_c, 0, 64, 64
2, 116107, Note_on_c, 0, 68, 0
2, 116112, Control_c, 0, 64, 64
2, 116132, Control_c, 0, 64, 65
2, 116141, Note_on_c, 0, 69, 67
2, 116151, Control_c, 0, 64, 64
2, 116200, Note_on_c, 0, 45, 0
2, 116203, Note_on_c, 0, 47, 58
2, 116203, Note_on_c, 0, 69, 0
2, 116209, Control_c, 0, 64, 64
2, 116227, Control_c, 0, 64, 63
2, 116229, Note_on_c, 0, 68, 68
2, 116246, Control_c, 0, 64, 62
2, 116266, Control_c, 0, 64, 61
2, 116266, Note_on_c, 0, 68, 0
2, 116285, Control_c, 0, 64, 58
2, 116297, Note_on_c, 0, 47, 0
2, 116304, Control_c, 0, 64, 54
2, 116305, Note_on_c, 0, 69, 67
2, 116309, Note_on_c, 0, 48, 61
2, 116324, Control_c, 0, 64, 49
2, 116344, Control_c, 0, 64, 44
2, 116362, Control_c, 0, 64, 36
2, 116371, Note_on_c, 0, 69, 0
2, 116379, Note_on_c, 0, 68, 71
2, 116382, Control_c, 0, 64, 27
2, 116392, Note_on_c, 0, 48, 0
2, 116401, Control_c, 0, 64, 0
2, 116401, Note_on_c, 0, 50, 66
2, 116426, Note_on_c, 0, 68, 0
2, 116462, Note_on_c, 0, 69, 67
2, 116468, Note_on_c, 0, 50, 0
2, 116511, Note_on_c, 0, 52, 60
2, 116529, Note_on_c, 0, 69, 0
2, 116551, Note_on_c, 0, 68, 68
2, 116588, Note_on_c, 0, 68, 0
2, 116622, Note_on_c, 0, 52, 0
2, 116626, Note_on_c, 0, 69, 65
2, 116631, Note_on_c, 0, 54, 60
2, 116682, Note_on_c, 0, 69, 0
2, 116692, Note_on_c, 0, 68, 60
2, 116742, Note_on_c, 0, 68, 0
2, 116758, Note_on_c, 0, 54, 0
2, 116767, Note_on_c, 0, 56, 55
2, 116787, Note_on_c, 0, 69, 57
2, 116837, Note_on_c, 0, 69, 0
2, 116871, Note_on_c, 0, 68, 56
2, 116885, Note_on_c, 0, 56, 0
2, 116902, Note_on_c, 0, 68, 0
2, 116940, Note_on_c, 0, 57, 41
2, 116950, Note_on_c, 0, 69, 53
2, 116984, Note_on_c, 0, 69, 0
2, 116999, Note_on_c, 0, 68, 68
2, 117033, Note_on_c, 0, 68, 0
2, 117091, Note_on_c, 0, 69, 60
2, 117496, Control_c, 0, 64, 31
2, 117515, Control_c, 0, 64, 48
2, 117534, Control_c, 0, 64, 55
2, 117553, Control_c, 0, 64, 59
2, 117573, Control_c, 0, 64, 61
2, 117591, Control_c, 0, 64, 62
2, 117611, Control_c, 0, 64, 62
2, 117630, Control_c, 0, 64, 63
2, 117650, Control_c, 0, 64, 64
2, 117758, Note_on_c, 0, 57, 0
2, 117762, Control_c, 0, 64, 63
2, 117801, Control_c, 0, 64, 63
2, 117820, Control_c, 0, 64, 62
2, 117839, Control_c, 0, 64, 61
2, 117859, Control_c, 0, 64, 60
2, 117877, Control_c, 0, 64, 59
2, 117897, Control_c, 0, 64, 58
2, 117916, Control_c, 0, 64, 57
2, 117936, Control_c, 0, 64, 57
2, 118012, Control_c, 0, 64, 56
2, 118031, Control_c, 0, 64, 56
2, 118065, Note_on_c, 0, 45, 32
2, 118070, Control_c, 0, 64, 55
2, 118146, Control_c, 0, 64, 55
2, 118223, Control_c, 0, 64, 55
2, 118263, Control_c, 0, 64, 56
2, 118301, Control_c, 0, 64, 56
2, 118340, Control_c, 0, 64, 57
2, 118378, Control_c, 0, 64, 57
2, 118397, Control_c, 0, 64, 58
2, 118416, Control_c, 0, 64, 58
2, 118435, Control_c, 0, 64, 59
2, 118455, Control_c, 0, 64, 60
2, 118474, Control_c, 0, 64, 61
2, 118493, Control_c, 0, 64, 62
2, 118512, Control_c, 0, 64, 63
2, 118532, Control_c, 0, 64, 64
2, 118551, Control_c, 0, 64, 65
2, 118570, Control_c, 0, 64, 67
2, 118589, Control_c, 0, 64, 69
2, 118609, Control_c, 0, 64, 72
2, 118627, Control_c, 0, 64, 76
2, 118646, Control_c, 0, 64, 78
2, 118666, Control_c, 0, 64, 79
2, 118685, Control_c, 0, 64, 80
2, 118745, Note_on_c, 0, 45, 0
2, 118761, Control_c, 0, 64, 80
2, 118775, Note_on_c, 0, 69, 0
2, 118819, Control_c, 0, 64, 81
2, 118953, Control_c, 0, 64, 80
2, 118972, Control_c, 0, 64, 79
2, 118991, Control_c, 0, 64, 78
2, 119011, Control_c, 0, 64, 77
2, 119030, Control_c, 0, 64, 76
2, 119049, Control_c, 0, 64, 75
2, 119125, Control_c, 0, 64, 74
2, 119145, Control_c, 0, 64, 74
2, 119164, Control_c, 0, 64, 72
2, 119183, Control_c, 0, 64, 71
2, 119260, Control_c, 0, 64, 71
2, 119279, Control_c, 0, 64, 70
2, 119299, Control_c, 0, 64, 68
2, 119317, Control_c, 0, 64, 65
2, 119337, Control_c, 0, 64, 64
2, 119356, Control_c, 0, 64, 63
2, 119394, Control_c, 0, 64, 62
2, 119414, Control_c, 0, 64, 62
2, 119433, Control_c, 0, 64, 61
2, 119452, Control_c, 0, 64, 60
2, 119471, Control_c, 0, 64, 60
2, 119491, Control_c, 0, 64, 59
2, 119529, Control_c, 0, 64, 58
2, 119548, Control_c, 0, 64, 58
2, 119567, Control_c, 0, 64, 57
2, 119605, Control_c, 0, 64, 57
2, 119644, Control_c, 0, 64, 56
2, 119683, Control_c, 0, 64, 56
2, 120067, Control_c, 0, 64, 56
2, 120183, Control_c, 0, 64, 57
2, 120278, Control_c, 0, 64, 57
2, 120471, Control_c, 0, 64, 58
2, 120623, Control_c, 0, 64, 58
2, 121142, Control_c, 0, 64, 59
2, 121219, Control_c, 0, 64, 59
2, 121237, Control_c, 0, 64, 60
2, 121257, Control_c, 0, 64, 60
2, 121852, Control_c, 0, 64, 60
2, 121871, Control_c, 0, 64, 56
2, 121891, Control_c, 0, 64, 44
2, 121910, Control_c, 0, 64, 0
2, 122576, Note_on_c, 0, 64, 81
2, 123279, Note_on_c, 0, 64, 0
2, 123372, Note_on_c, 0, 60, 90
2, 124131, Note_on_c, 0, 60, 0
2, 124223, Note_on_c, 0, 65, 88
2, 125024, Note_on_c, 0, 65, 0
2, 125106, Note_on_c, 0, 56, 91
2, 126006, Note_on_c, 0, 56, 0
2, 127253, Note_on_c, 0, 62, 57
2, 127293, Note_on_c, 0, 62, 0
2, 127670, Note_on_c, 0, 59, 61
2, 127705, Note_on_c, 0, 59, 0
2, 128053, Note_on_c, 0, 64, 62
2, 128089, Note_on_c, 0, 64, 0
2, 128459, Note_on_c, 0, 60, 61
2, 128495, Note_on_c, 0, 60, 0
2, 128848, Note_on_c, 0, 57, 67
2, 128886, Note_on_c, 0, 57, 0
2, 129235, Note_on_c, 0, 69, 88
2, 129236, Note_on_c, 0, 54, 64
2, 129278, Note_on_c, 0, 54, 0
2, 129623, Note_on_c, 0, 63, 74
2, 129671, Note_on_c, 0, 63, 0
2, 129952, Note_on_c, 0, 69, 0
2, 130004, Note_on_c, 0, 52, 55
2, 130027, Note_on_c, 0, 67, 83
2, 130053, Note_on_c, 0, 52, 0
2, 130431, Note_on_c, 0, 64, 67
2, 130510, Note_on_c, 0, 64, 0
2, 130532, Note_on_c, 0, 62, 68
2, 130600, Note_on_c, 0, 60, 70
2, 130603, Note_on_c, 0, 62, 0
2, 130656, Note_on_c, 0, 60, 0
2, 130695, Note_on_c, 0, 59, 79
2, 130709, Note_on_c, 0, 67, 0
2, 130772, Note_on_c, 0, 72, 96
2, 130776, Note_on_c, 0, 57, 77
2, 130787, Note_on_c, 0, 59, 0
2, 130823, Note_on_c, 0, 57, 0
2, 131163, Note_on_c, 0, 60, 72
2, 131217, Note_on_c, 0, 60, 0
2, 131261, Note_on_c, 0, 59, 76
2, 131343, Note_on_c, 0, 57, 78
2, 131348, Note_on_c, 0, 59, 0
2, 131411, Note_on_c, 0, 57, 0
2, 131451, Note_on_c, 0, 55, 69
2, 131452, Note_on_c, 0, 72, 0
2, 131504, Note_on_c, 0, 55, 0
2, 131511, Note_on_c, 0, 63, 93
2, 131517, Note_on_c, 0, 54, 72
2, 131603, Note_on_c, 0, 54, 0
2, 131609, Note_on_c, 0, 55, 76
2, 131684, Note_on_c, 0, 55, 0
2, 131700, Note_on_c, 0, 57, 71
2, 132041, Note_on_c, 0, 57, 0
2, 132044, Note_on_c, 0, 55, 64
2, 132124, Note_on_c, 0, 55, 0
2, 132137, Note_on_c, 0, 54, 61
2, 132182, Note_on_c, 0, 54, 0
2, 132213, Note_on_c, 0, 52, 71
2, 132262, Note_on_c, 0, 63, 0
2, 132269, Note_on_c, 0, 52, 0
2, 132301, Note_on_c, 0, 51, 66
2, 132369, Note_on_c, 0, 51, 0
2, 132403, Note_on_c, 0, 52, 61
2, 132452, Note_on_c, 0, 52, 0
2, 132471, Note_on_c, 0, 54, 66
2, 132770, Note_on_c, 0, 54, 0
2, 132819, Note_on_c, 0, 52, 54
2, 132869, Note_on_c, 0, 52, 0
2, 132906, Note_on_c, 0, 51, 60
2, 132963, Note_on_c, 0, 51, 0
2, 132981, Note_on_c, 0, 49, 58
2, 133032, Note_on_c, 0, 49, 0
2, 133074, Note_on_c, 0, 47, 60
2, 133437, Note_on_c, 0, 69, 74
2, 133470, Note_on_c, 0, 69, 0
2, 133633, Note_on_c, 0, 47, 0
2, 133642, Note_on_c, 0, 49, 53
2, 133682, Note_on_c, 0, 49, 0
2, 133723, Note_on_c, 0, 51, 59
2, 133791, Note_on_c, 0, 51, 0
2, 133817, Note_on_c, 0, 66, 70
2, 133826, Note_on_c, 0, 52, 56
2, 133853, Note_on_c, 0, 66, 0
2, 133886, Note_on_c, 0, 52, 0
2, 133911, Note_on_c, 0, 51, 55
2, 133979, Note_on_c, 0, 51, 0
2, 134014, Note_on_c, 0, 52, 58
2, 134072, Note_on_c, 0, 52, 0
2, 134113, Note_on_c, 0, 51, 52
2, 134165, Note_on_c, 0, 51, 0
2, 134174, Note_on_c, 0, 71, 73
2, 134202, Note_on_c, 0, 52, 52
2, 134210, Note_on_c, 0, 71, 0
2, 134246, Note_on_c, 0, 52, 0
2, 134268, Note_on_c, 0, 51, 61
2, 134323, Note_on_c, 0, 51, 0
2, 134358, Note_on_c, 0, 49, 63
2, 134420, Note_on_c, 0, 49, 0
2, 134441, Note_on_c, 0, 51, 60
2, 134494, Note_on_c, 0, 51, 0
2, 134537, Note_on_c, 0, 67, 70
2, 134539, Note_on_c, 0, 52, 58
2, 134577, Note_on_c, 0, 67, 0
2, 134595, Note_on_c, 0, 52, 0
2, 134943, Note_on_c, 0, 64, 66
2, 134975, Note_on_c, 0, 64, 0
2, 135018, Note_on_c, 0, 52, 58
2, 135114, Note_on_c, 0, 53, 71
2, 135119, Note_on_c, 0, 52, 0
2, 135174, Note_on_c, 0, 53, 0
2, 135194, Note_on_c, 0, 55, 73
2, 135280, Note_on_c, 0, 55, 0
2, 135292, Note_on_c, 0, 57, 73
2, 135303, Note_on_c, 0, 61, 72
2, 135339, Note_on_c, 0, 57, 0
2, 135355, Note_on_c, 0, 61, 0
2, 135704, Note_on_c, 0, 69, 69
2, 135751, Note_on_c, 0, 69, 0
2, 135795, Note_on_c, 0, 55, 50
2, 135849, Note_on_c, 0, 55, 0
2, 135882, Note_on_c, 0, 53, 56
2, 135945, Note_on_c, 0, 53, 0
2, 135966, Note_on_c, 0, 52, 56
2, 136012, Note_on_c, 0, 52, 0
2, 136040, Note_on_c, 0, 50, 55
2, 136066, Note_on_c, 0, 65, 60
2, 136109, Note_on_c, 0, 65, 0
2, 136176, Note_on_c, 0, 50, 0
2, 136461, Note_on_c, 0, 62, 59
2, 136500, Note_on_c, 0, 62, 0
2, 136537, Note_on_c, 0, 50, 50
2, 136612, Note_on_c, 0, 50, 0
2, 136626, Note_on_c, 0, 52, 53
2, 136676, Note_on_c, 0, 52, 0
2, 136715, Note_on_c, 0, 53, 55
2, 136763, Note_on_c, 0, 53, 0
2, 136809, Note_on_c, 0, 59, 60
2, 136821, Note_on_c, 0, 55, 45
2, 136861, Note_on_c, 0, 59, 0
2, 136932, Note_on_c, 0, 55, 0
2, 137229, Note_on_c, 0, 67, 48
2, 137285, Note_on_c, 0, 67, 0
2, 137286, Note_on_c, 0, 53, 46
2, 137340, Note_on_c, 0, 53, 0
2, 137390, Note_on_c, 0, 52, 53
2, 137453, Note_on_c, 0, 52, 0
2, 137480, Note_on_c, 0, 50, 47
2, 137529, Note_on_c, 0, 50, 0
2, 137554, Note_on_c, 0, 48, 47
2, 137594, Note_on_c, 0, 64, 59
2, 137981, Note_on_c, 0, 69, 60
2, 138030, Note_on_c, 0, 64, 0
2, 138154, Note_on_c, 0, 50, 57
2, 138168, Note_on_c, 0, 48, 0
2, 138319, Note_on_c, 0, 50, 0
2, 138324, Note_on_c, 0, 52, 60
2, 138335, Note_on_c, 0, 76, 83
2, 138490, Note_on_c, 0, 52, 0
2, 138527, Note_on_c, 0, 53, 53
2, 138582, Note_on_c, 0, 53, 0
2, 138595, Note_on_c, 0, 52, 56
2, 138671, Note_on_c, 0, 52, 0
2, 138688, Note_on_c, 0, 50, 65
2, 138709, Note_on_c, 0, 68, 62
2, 138792, Note_on_c, 0, 69, 0
2, 138899, Note_on_c, 0, 52, 72
2, 138901, Note_on_c, 0, 50, 0
2, 139020, Note_on_c, 0, 76, 0
2, 139067, Note_on_c, 0, 52, 0
2, 139093, Note_on_c, 0, 53, 65
2, 139099, Note_on_c, 0, 72, 90
2, 139107, Note_on_c, 0, 68, 0
2, 139367, Note_on_c, 0, 53, 0
2, 139403, Control_c, 0, 64, 11
2, 139421, Control_c, 0, 64, 50
2, 139441, Control_c, 0, 64, 56
2, 139498, Control_c, 0, 64, 56
2, 139504, Note_on_c, 0, 69, 68
2, 139518, Control_c, 0, 64, 56
2, 139537, Control_c, 0, 64, 55
2, 139556, Control_c, 0, 64, 55
2, 139575, Control_c, 0, 64, 54
2, 139585, Note_on_c, 0, 69, 0
2, 139595, Control_c, 0, 64, 53
2, 139597, Note_on_c, 0, 72, 0
2, 139605, Note_on_c, 0, 67, 67
2, 139614, Control_c, 0, 64, 52
2, 139633, Control_c, 0, 64, 51
2, 139637, Note_on_c, 0, 67, 0
2, 139652, Control_c, 0, 64, 49
2, 139672, Control_c, 0, 64, 48
2, 139690, Control_c, 0, 64, 47
2, 139691, Note_on_c, 0, 65, 70
2, 139749, Control_c, 0, 64, 46
2, 139754, Note_on_c, 0, 65, 0
2, 139767, Control_c, 0, 64, 44
2, 139784, Note_on_c, 0, 64, 70
2, 139787, Control_c, 0, 64, 37
2, 139806, Control_c, 0, 64, 0
2, 139856, Note_on_c, 0, 62, 75
2, 139857, Note_on_c, 0, 64, 0
2, 139860, Note_on_c, 0, 77, 92
2, 139905, Note_on_c, 0, 62, 0
2, 140262, Control_c, 0, 64, 9
2, 140262, Note_on_c, 0, 65, 67
2, 140282, Control_c, 0, 64, 60
2, 140306, Note_on_c, 0, 77, 0
2, 140320, Control_c, 0, 64, 59
2, 140334, Note_on_c, 0, 65, 0
2, 140356, Note_on_c, 0, 64, 74
2, 140363, Control_c, 0, 64, 61
2, 140381, Control_c, 0, 64, 62
2, 140401, Control_c, 0, 64, 64
2, 140420, Control_c, 0, 64, 64
2, 140429, Note_on_c, 0, 62, 72
2, 140439, Control_c, 0, 64, 64
2, 140446, Note_on_c, 0, 64, 0
2, 140458, Control_c, 0, 64, 63
2, 140478, Control_c, 0, 64, 63
2, 140497, Control_c, 0, 64, 62
2, 140509, Note_on_c, 0, 60, 79
2, 140516, Control_c, 0, 64, 59
2, 140535, Control_c, 0, 64, 51
2, 140538, Note_on_c, 0, 60, 0
2, 140555, Control_c, 0, 64, 0
2, 140587, Note_on_c, 0, 68, 89
2, 140599, Note_on_c, 0, 62, 0
2, 140601, Note_on_c, 0, 59, 88
2, 140667, Note_on_c, 0, 60, 46
2, 140698, Note_on_c, 0, 59, 0
2, 140778, Note_on_c, 0, 60, 0
2, 140778, Note_on_c, 0, 62, 64
2, 140980, Note_on_c, 0, 53, 68
2, 141016, Note_on_c, 0, 53, 0
2, 141058, Note_on_c, 0, 68, 0
2, 141087, Note_on_c, 0, 60, 64
2, 141088, Note_on_c, 0, 62, 0
2, 141143, Note_on_c, 0, 60, 0
2, 141182, Note_on_c, 0, 59, 66
2, 141218, Note_on_c, 0, 59, 0
2, 141262, Note_on_c, 0, 57, 63
2, 141315, Note_on_c, 0, 57, 0
2, 141327, Note_on_c, 0, 47, 64
2, 141345, Note_on_c, 0, 56, 71
2, 141366, Note_on_c, 0, 47, 0
2, 141396, Note_on_c, 0, 56, 0
2, 141425, Note_on_c, 0, 57, 63
2, 141478, Note_on_c, 0, 57, 0
2, 141514, Note_on_c, 0, 59, 61
2, 141702, Note_on_c, 0, 50, 50
2, 141734, Note_on_c, 0, 50, 0
2, 141795, Note_on_c, 0, 57, 59
2, 141820, Note_on_c, 0, 59, 0
2, 141870, Note_on_c, 0, 57, 0
2, 141883, Note_on_c, 0, 56, 57
2, 141948, Note_on_c, 0, 56, 0
2, 141954, Note_on_c, 0, 54, 68
2, 141993, Note_on_c, 0, 54, 0
2, 142056, Note_on_c, 0, 52, 62
2, 142062, Note_on_c, 0, 44, 59
2, 142112, Note_on_c, 0, 44, 0
2, 142417, Note_on_c, 0, 74, 81
2, 142419, Note_on_c, 0, 47, 58
2, 142445, Note_on_c, 0, 74, 0
2, 142474, Note_on_c, 0, 47, 0
2, 142598, Note_on_c, 0, 52, 0
2, 142611, Note_on_c, 0, 54, 59
2, 142675, Note_on_c, 0, 54, 0
2, 142685, Note_on_c, 0, 56, 67
2, 142744, Note_on_c, 0, 52, 62
2, 142759, Note_on_c, 0, 56, 0
2, 142772, Note_on_c, 0, 71, 87
2, 142789, Note_on_c, 0, 57, 69
2, 142823, Note_on_c, 0, 71, 0
2, 142868, Note_on_c, 0, 57, 0
2, 142899, Note_on_c, 0, 56, 62
2, 142945, Note_on_c, 0, 56, 0
2, 142975, Note_on_c, 0, 57, 63
2, 143027, Note_on_c, 0, 57, 0
2, 143058, Note_on_c, 0, 56, 61
2, 143117, Note_on_c, 0, 56, 0
2, 143140, Note_on_c, 0, 76, 87
2, 143149, Note_on_c, 0, 57, 71
2, 143199, Note_on_c, 0, 52, 0
2, 143199, Note_on_c, 0, 76, 0
2, 143202, Note_on_c, 0, 57, 0
2, 143263, Note_on_c, 0, 56, 45
2, 143298, Note_on_c, 0, 56, 0
2, 143325, Note_on_c, 0, 54, 61
2, 143379, Note_on_c, 0, 54, 0
2, 143391, Note_on_c, 0, 56, 71
2, 143435, Note_on_c, 0, 56, 0
2, 143491, Note_on_c, 0, 72, 80
2, 143501, Note_on_c, 0, 57, 58
2, 143512, Note_on_c, 0, 45, 59
2, 143553, Note_on_c, 0, 72, 0
2, 143571, Note_on_c, 0, 45, 0
2, 143582, Note_on_c, 0, 57, 0
2, 143875, Note_on_c, 0, 69, 82
2, 143928, Note_on_c, 0, 69, 0
2, 143987, Note_on_c, 0, 57, 66
2, 144071, Note_on_c, 0, 57, 0
2, 144078, Note_on_c, 0, 59, 72
2, 144125, Note_on_c, 0, 59, 0
2, 144152, Note_on_c, 0, 60, 71
2, 144220, Note_on_c, 0, 60, 0
2, 144238, Note_on_c, 0, 66, 71
2, 144239, Note_on_c, 0, 62, 70
2, 144284, Note_on_c, 0, 62, 0
2, 144303, Note_on_c, 0, 66, 0
2, 144629, Note_on_c, 0, 54, 51
2, 144634, Note_on_c, 0, 74, 66
2, 144707, Note_on_c, 0, 74, 0
2, 144724, Note_on_c, 0, 54, 0
2, 144727, Note_on_c, 0, 60, 56
2, 144791, Note_on_c, 0, 60, 0
2, 144822, Note_on_c, 0, 59, 55
2, 144891, Note_on_c, 0, 59, 0
2, 144921, Note_on_c, 0, 57, 52
2, 144971, Note_on_c, 0, 57, 0
2, 144994, Note_on_c, 0, 71, 62
2, 144998, Note_on_c, 0, 55, 46
2, 145057, Note_on_c, 0, 71, 0
2, 145111, Note_on_c, 0, 55, 0
2, 145382, Note_on_c, 0, 67, 59
2, 145442, Note_on_c, 0, 67, 0
2, 145472, Note_on_c, 0, 55, 52
2, 145557, Note_on_c, 0, 55, 0
2, 145583, Note_on_c, 0, 57, 52
2, 145637, Note_on_c, 0, 57, 0
2, 145657, Note_on_c, 0, 59, 57
2, 145712, Note_on_c, 0, 59, 0
2, 145746, Note_on_c, 0, 64, 58
2, 145755, Note_on_c, 0, 60, 51
2, 145822, Note_on_c, 0, 64, 0
2, 145910, Note_on_c, 0, 60, 0
2, 146126, Note_on_c, 0, 52, 36
2, 146135, Note_on_c, 0, 72, 59
2, 146212, Note_on_c, 0, 58, 43
2, 146214, Note_on_c, 0, 72, 0
2, 146271, Note_on_c, 0, 58, 0
2, 146310, Note_on_c, 0, 57, 50
2, 146366, Note_on_c, 0, 57, 0
2, 146367, Note_on_c, 0, 52, 0
2, 146407, Note_on_c, 0, 55, 52
2, 146474, Note_on_c, 0, 55, 0
2, 146506, Note_on_c, 0, 53, 44
2, 146507, Note_on_c, 0, 69, 51
2, 146695, Control_c, 0, 64, 32
2, 146714, Control_c, 0, 64, 47
2, 146719, Note_on_c, 0, 65, 27
2, 146734, Control_c, 0, 64, 53
2, 146752, Control_c, 0, 64, 55
2, 146771, Control_c, 0, 64, 56
2, 146791, Control_c, 0, 64, 57
2, 146870, Note_on_c, 0, 65, 0
2, 146885, Note_on_c, 0, 55, 54
2, 146886, Control_c, 0, 64, 55
2, 146895, Note_on_c, 0, 71, 68
2, 146906, Control_c, 0, 64, 53
2, 146925, Control_c, 0, 64, 52
2, 146931, Note_on_c, 0, 53, 0
2, 146945, Control_c, 0, 64, 53
2, 146963, Control_c, 0, 64, 54
2, 146983, Control_c, 0, 64, 55
2, 147002, Control_c, 0, 64, 57
2, 147006, Note_on_c, 0, 69, 0
2, 147022, Control_c, 0, 64, 58
2, 147040, Control_c, 0, 64, 59
2, 147060, Control_c, 0, 64, 59
2, 147079, Control_c, 0, 64, 60
2, 147094, Note_on_c, 0, 65, 29
2, 147098, Control_c, 0, 64, 60
2, 147214, Control_c, 0, 64, 60
2, 147232, Control_c, 0, 64, 59
2, 147240, Note_on_c, 0, 65, 0
2, 147251, Control_c, 0, 64, 58
2, 147289, Note_on_c, 0, 72, 66
2, 147290, Control_c, 0, 64, 58
2, 147291, Note_on_c, 0, 57, 45
2, 147317, Note_on_c, 0, 55, 0
2, 147320, Note_on_c, 0, 71, 0
2, 147328, Control_c, 0, 64, 57
2, 147386, Control_c, 0, 64, 57
2, 147394, Note_on_c, 0, 64, 59
2, 147467, Note_on_c, 0, 64, 0
2, 147482, Control_c, 0, 64, 56
2, 147486, Note_on_c, 0, 65, 52
2, 147546, Note_on_c, 0, 67, 59
2, 147548, Note_on_c, 0, 65, 0
2, 147597, Control_c, 0, 64, 56
2, 147608, Note_on_c, 0, 67, 0
2, 147617, Control_c, 0, 64, 55
2, 147636, Control_c, 0, 64, 52
2, 147645, Note_on_c, 0, 69, 65
2, 147655, Control_c, 0, 64, 46
2, 147655, Note_on_c, 0, 57, 0
2, 147657, Note_on_c, 0, 55, 57
2, 147674, Control_c, 0, 64, 33
2, 147693, Control_c, 0, 64, 0
2, 147742, Note_on_c, 0, 67, 50
2, 147755, Note_on_c, 0, 69, 0
2, 147766, Note_on_c, 0, 55, 0
2, 147791, Note_on_c, 0, 67, 0
2, 147801, Note_on_c, 0, 65, 64
2, 147835, Note_on_c, 0, 72, 0
2, 147866, Note_on_c, 0, 65, 0
2, 147889, Note_on_c, 0, 64, 75
2, 147927, Note_on_c, 0, 64, 0
2, 147943, Control_c, 0, 64, 29
2, 147962, Control_c, 0, 64, 44
2, 147966, Note_on_c, 0, 62, 75
2, 147982, Control_c, 0, 64, 49
2, 147991, Note_on_c, 0, 53, 58
2, 148003, Control_c, 0, 64, 49
2, 148055, Note_on_c, 0, 53, 0
2, 148061, Control_c, 0, 64, 49
2, 148080, Control_c, 0, 64, 47
2, 148100, Control_c, 0, 64, 41
2, 148106, Note_on_c, 0, 72, 70
2, 148118, Control_c, 0, 64, 31
2, 148138, Control_c, 0, 64, 20
2, 148157, Control_c, 0, 64, 0
2, 148171, Note_on_c, 0, 74, 68
2, 148182, Note_on_c, 0, 72, 0
2, 148258, Note_on_c, 0, 76, 77
2, 148265, Note_on_c, 0, 74, 0
2, 148339, Note_on_c, 0, 50, 62
2, 148341, Note_on_c, 0, 76, 0
2, 148348, Note_on_c, 0, 77, 76
2, 148425, Note_on_c, 0, 76, 78
2, 148461, Note_on_c, 0, 77, 0
2, 148499, Note_on_c, 0, 74, 73
2, 148539, Note_on_c, 0, 76, 0
2, 148578, Note_on_c, 0, 74, 0
2, 148584, Note_on_c, 0, 72, 77
2, 148613, Note_on_c, 0, 72, 0
2, 148668, Note_on_c, 0, 55, 70
2, 148688, Note_on_c, 0, 72, 61
2, 148698, Note_on_c, 0, 71, 76
2, 148712, Note_on_c, 0, 62, 0
2, 148728, Note_on_c, 0, 72, 0
2, 148731, Control_c, 0, 64, 31
2, 148751, Control_c, 0, 64, 51
2, 148770, Control_c, 0, 64, 55
2, 148790, Control_c, 0, 64, 55
2, 148793, Note_on_c, 0, 62, 57
2, 148828, Control_c, 0, 64, 56
2, 148847, Control_c, 0, 64, 56
2, 148864, Note_on_c, 0, 64, 72
2, 148879, Note_on_c, 0, 62, 0
2, 148919, Note_on_c, 0, 50, 0
2, 148924, Control_c, 0, 64, 57
2, 148970, Note_on_c, 0, 64, 0
2, 148976, Note_on_c, 0, 65, 70
2, 148983, Control_c, 0, 64, 55
2, 149000, Note_on_c, 0, 55, 0
2, 149001, Control_c, 0, 64, 39
2, 149021, Control_c, 0, 64, 0
2, 149039, Note_on_c, 0, 53, 75
2, 149047, Note_on_c, 0, 65, 0
2, 149059, Note_on_c, 0, 67, 67
2, 149075, Note_on_c, 0, 53, 0
2, 149149, Note_on_c, 0, 65, 73
2, 149183, Note_on_c, 0, 67, 0
2, 149220, Note_on_c, 0, 65, 0
2, 149225, Note_on_c, 0, 64, 81
2, 149290, Note_on_c, 0, 64, 0
2, 149324, Note_on_c, 0, 62, 82
2, 149395, Note_on_c, 0, 52, 86
2, 149397, Note_on_c, 0, 62, 0
2, 149405, Note_on_c, 0, 60, 79
2, 149419, Note_on_c, 0, 71, 0
2, 149472, Note_on_c, 0, 60, 0
2, 149770, Note_on_c, 0, 55, 62
2, 149793, Note_on_c, 0, 84, 75
2, 149809, Note_on_c, 0, 55, 0
2, 149811, Note_on_c, 0, 52, 0
2, 149879, Note_on_c, 0, 83, 78
2, 149914, Note_on_c, 0, 84, 0
2, 149958, Note_on_c, 0, 81, 75
2, 149979, Note_on_c, 0, 83, 0
2, 150041, Note_on_c, 0, 81, 0
2, 150043, Note_on_c, 0, 79, 86
2, 150125, Note_on_c, 0, 79, 0
2, 150131, Note_on_c, 0, 57, 86
2, 150138, Note_on_c, 0, 77, 86
2, 150145, Note_on_c, 0, 60, 85
2, 150169, Note_on_c, 0, 77, 0
2, 150246, Note_on_c, 0, 60, 0
2, 150499, Control_c, 0, 64, 36
2, 150512, Note_on_c, 0, 65, 62
2, 150519, Control_c, 0, 64, 46
2, 150530, Note_on_c, 0, 81, 74
2, 150537, Control_c, 0, 64, 0
2, 150570, Note_on_c, 0, 65, 0
2, 150598, Note_on_c, 0, 57, 0
2, 150610, Note_on_c, 0, 79, 82
2, 150652, Note_on_c, 0, 81, 0
2, 150684, Note_on_c, 0, 77, 77
2, 150729, Note_on_c, 0, 79, 0
2, 150771, Note_on_c, 0, 76, 75
2, 150795, Note_on_c, 0, 77, 0
2, 150853, Note_on_c, 0, 76, 0
2, 150859, Note_on_c, 0, 74, 78
2, 150866, Note_on_c, 0, 47, 87
2, 150924, Note_on_c, 0, 74, 0
2, 150940, Control_c, 0, 64, 56
2, 150954, Note_on_c, 0, 76, 81
2, 150960, Control_c, 0, 64, 67
2, 150979, Control_c, 0, 64, 73
2, 150999, Control_c, 0, 64, 78
2, 151017, Control_c, 0, 64, 81
2, 151025, Note_on_c, 0, 47, 0
2, 151037, Control_c, 0, 64, 83
2, 151037, Note_on_c, 0, 76, 0
2, 151042, Note_on_c, 0, 77, 80
2, 151056, Control_c, 0, 64, 83
2, 151133, Control_c, 0, 64, 83
2, 151152, Control_c, 0, 64, 82
2, 151171, Control_c, 0, 64, 81
2, 151191, Control_c, 0, 64, 80
2, 151209, Control_c, 0, 64, 74
2, 151229, Control_c, 0, 64, 62
2, 151248, Control_c, 0, 64, 0
2, 151263, Note_on_c, 0, 69, 72
2, 151299, Note_on_c, 0, 69, 0
2, 151353, Note_on_c, 0, 76, 65
2, 151357, Note_on_c, 0, 77, 0
2, 151430, Note_on_c, 0, 76, 0
2, 151439, Note_on_c, 0, 74, 58
2, 151515, Note_on_c, 0, 74, 0
2, 151523, Note_on_c, 0, 72, 62
2, 151572, Note_on_c, 0, 72, 0
2, 151601, Note_on_c, 0, 62, 46
2, 151607, Note_on_c, 0, 71, 61
2, 151634, Note_on_c, 0, 62, 0
2, 151644, Note_on_c, 0, 71, 0
2, 151697, Note_on_c, 0, 72, 62
2, 151743, Note_on_c, 0, 72, 0
2, 151784, Note_on_c, 0, 74, 56
2, 151978, Note_on_c, 0, 65, 54
2, 152016, Note_on_c, 0, 65, 0
2, 152051, Note_on_c, 0, 74, 0
2, 152072, Note_on_c, 0, 72, 62
2, 152133, Note_on_c, 0, 72, 0
2, 152152, Note_on_c, 0, 71, 59
2, 152199, Note_on_c, 0, 71, 0
2, 152245, Note_on_c, 0, 69, 66
2, 152289, Note_on_c, 0, 69, 0
2, 152315, Note_on_c, 0, 59, 70
2, 152350, Note_on_c, 0, 59, 0
2, 152354, Note_on_c, 0, 67, 56
2, 152694, Note_on_c, 0, 62, 60
2, 152696, Note_on_c, 0, 53, 65
2, 152737, Note_on_c, 0, 62, 0
2, 152747, Note_on_c, 0, 53, 0
2, 152874, Note_on_c, 0, 67, 0
2, 152902, Note_on_c, 0, 69, 52
2, 152972, Note_on_c, 0, 71, 61
2, 152979, Note_on_c, 0, 69, 0
2, 153040, Note_on_c, 0, 71, 0
2, 153058, Note_on_c, 0, 50, 62
2, 153073, Note_on_c, 0, 65, 59
2, 153073, Note_on_c, 0, 72, 68
2, 153112, Note_on_c, 0, 50, 0
2, 153144, Note_on_c, 0, 72, 0
2, 153175, Note_on_c, 0, 71, 62
2, 153219, Note_on_c, 0, 71, 0
2, 153261, Note_on_c, 0, 72, 58
2, 153308, Note_on_c, 0, 72, 0
2, 153310, Note_on_c, 0, 65, 0
2, 153318, Note_on_c, 0, 71, 63
2, 153362, Note_on_c, 0, 71, 0
2, 153399, Note_on_c, 0, 72, 69
2, 153406, Note_on_c, 0, 55, 53
2, 153416, Note_on_c, 0, 62, 39
2, 153450, Note_on_c, 0, 55, 0
2, 153453, Note_on_c, 0, 62, 0
2, 153468, Note_on_c, 0, 72, 0
2, 153497, Note_on_c, 0, 71, 57
2, 153550, Note_on_c, 0, 71, 0
2, 153580, Note_on_c, 0, 69, 60
2, 153634, Note_on_c, 0, 69, 0
2, 153675, Note_on_c, 0, 71, 57
2, 153727, Note_on_c, 0, 71, 0
2, 153758, Note_on_c, 0, 52, 57
2, 153759, Note_on_c, 0, 72, 65
2, 153763, Note_on_c, 0, 67, 61
2, 153804, Note_on_c, 0, 67, 0
2, 154141, Note_on_c, 0, 60, 63
2, 154163, Note_on_c, 0, 52, 0
2, 154179, Note_on_c, 0, 60, 0
2, 154322, Note_on_c, 0, 52, 57
2, 154389, Note_on_c, 0, 52, 0
2, 154418, Note_on_c, 0, 54, 58
2, 154418, Note_on_c, 0, 72, 0
2, 154474, Note_on_c, 0, 54, 0
2, 154498, Note_on_c, 0, 55, 68
2, 154510, Note_on_c, 0, 57, 64
2, 154550, Note_on_c, 0, 57, 0
2, 154560, Note_on_c, 0, 55, 0
2, 154598, Note_on_c, 0, 54, 62
2, 154641, Note_on_c, 0, 54, 0
2, 154670, Note_on_c, 0, 55, 69
2, 154719, Note_on_c, 0, 55, 0
2, 154752, Note_on_c, 0, 54, 58
2, 154800, Note_on_c, 0, 54, 0
2, 154824, Note_on_c, 0, 62, 64
2, 154829, Note_on_c, 0, 55, 62
2, 154860, Note_on_c, 0, 62, 0
2, 154883, Note_on_c, 0, 55, 0
2, 154918, Note_on_c, 0, 54, 59
2, 154979, Note_on_c, 0, 54, 0
2, 155009, Note_on_c, 0, 52, 64
2, 155083, Note_on_c, 0, 52, 0
2, 155111, Note_on_c, 0, 54, 50
2, 155165, Note_on_c, 0, 54, 0
2, 155173, Note_on_c, 0, 55, 70
2, 155189, Note_on_c, 0, 59, 68
2, 155215, Note_on_c, 0, 55, 0
2, 155531, Note_on_c, 0, 59, 0
2, 155538, Note_on_c, 0, 52, 71
2, 155550, Note_on_c, 0, 67, 63
2, 155571, Note_on_c, 0, 52, 0
2, 155721, Note_on_c, 0, 59, 45
2, 155767, Note_on_c, 0, 59, 0
2, 155777, Note_on_c, 0, 67, 0
2, 155818, Note_on_c, 0, 61, 60
2, 155871, Note_on_c, 0, 61, 0
2, 155905, Note_on_c, 0, 57, 72
2, 155907, Note_on_c, 0, 64, 64
2, 155928, Note_on_c, 0, 62, 66
2, 155983, Note_on_c, 0, 62, 0
2, 156014, Note_on_c, 0, 61, 62
2, 156062, Note_on_c, 0, 61, 0
2, 156121, Note_on_c, 0, 62, 54
2, 156170, Note_on_c, 0, 62, 0
2, 156191, Note_on_c, 0, 61, 62
2, 156224, Note_on_c, 0, 64, 0
2, 156264, Note_on_c, 0, 61, 0
2, 156269, Note_on_c, 0, 69, 75
2, 156283, Note_on_c, 0, 62, 62
2, 156342, Note_on_c, 0, 62, 0
2, 156389, Note_on_c, 0, 61, 70
2, 156430, Note_on_c, 0, 61, 0
2, 156475, Note_on_c, 0, 59, 68
2, 156530, Note_on_c, 0, 59, 0
2, 156550, Note_on_c, 0, 61, 71
2, 156581, Note_on_c, 0, 69, 0
2, 156620, Note_on_c, 0, 57, 0
2, 156624, Note_on_c, 0, 66, 82
2, 156636, Note_on_c, 0, 61, 0
2, 156651, Note_on_c, 0, 62, 67
2, 157011, Note_on_c, 0, 50, 83
2, 157045, Note_on_c, 0, 66, 0
2, 157047, Note_on_c, 0, 50, 0
2, 157218, Note_on_c, 0, 66, 66
2, 157291, Note_on_c, 0, 68, 74
2, 157337, Note_on_c, 0, 66, 0
2, 157374, Note_on_c, 0, 47, 78
2, 157374, Note_on_c, 0, 68, 0
2, 157382, Note_on_c, 0, 69, 84
2, 157412, Note_on_c, 0, 47, 0
2, 157477, Note_on_c, 0, 69, 0
2, 157482, Note_on_c, 0, 68, 77
2, 157524, Note_on_c, 0, 68, 0
2, 157567, Note_on_c, 0, 69, 76
2, 157605, Note_on_c, 0, 62, 0
2, 157635, Note_on_c, 0, 69, 0
2, 157644, Note_on_c, 0, 68, 80
2, 157734, Note_on_c, 0, 52, 79
2, 157767, Note_on_c, 0, 52, 0
2, 157799, Note_on_c, 0, 68, 0
2, 157799, Note_on_c, 0, 69, 70
2, 157840, Note_on_c, 0, 69, 0
2, 157881, Note_on_c, 0, 66, 41
2, 157941, Note_on_c, 0, 68, 49
2, 158008, Note_on_c, 0, 68, 0
2, 158048, Note_on_c, 0, 66, 0
2, 158064, Note_on_c, 0, 69, 78
2, 158068, Note_on_c, 0, 48, 83
2, 158263, Note_on_c, 0, 69, 0
2, 158295, Note_on_c, 0, 71, 76
2, 158366, Note_on_c, 0, 72, 82
2, 158381, Note_on_c, 0, 71, 0
2, 158409, Note_on_c, 0, 72, 0
2, 158420, Note_on_c, 0, 48, 0
2, 158424, Note_on_c, 0, 45, 69
2, 158457, Note_on_c, 0, 74, 89
2, 158461, Note_on_c, 0, 45, 0
2, 158551, Note_on_c, 0, 76, 87
2, 158553, Note_on_c, 0, 74, 0
2, 158622, Note_on_c, 0, 78, 80
2, 158655, Note_on_c, 0, 76, 0
2, 158700, Note_on_c, 0, 80, 83
2, 158724, Note_on_c, 0, 78, 0
2, 158757, Note_on_c, 0, 42, 86
2, 158772, Note_on_c, 0, 81, 97
2, 158805, Note_on_c, 0, 80, 0
2, 158890, Control_c, 0, 64, 32
2, 158910, Control_c, 0, 64, 45
2, 158929, Control_c, 0, 64, 46
2, 158967, Control_c, 0, 64, 47
2, 158973, Note_on_c, 0, 72, 71
2, 158986, Control_c, 0, 64, 49
2, 159006, Control_c, 0, 64, 53
2, 159022, Control_c, 0, 64, 50
2, 159041, Control_c, 0, 64, 0
2, 159050, Note_on_c, 0, 72, 0
2, 159112, Note_on_c, 0, 42, 0
2, 159131, Note_on_c, 0, 71, 77
2, 159154, Note_on_c, 0, 51, 61
2, 159165, Note_on_c, 0, 71, 0
2, 159181, Note_on_c, 0, 51, 0
2, 159301, Note_on_c, 0, 78, 78
2, 159322, Note_on_c, 0, 81, 0
2, 159442, Note_on_c, 0, 78, 0
2, 159478, Note_on_c, 0, 40, 82
2, 159486, Note_on_c, 0, 79, 97
2, 159502, Control_c, 0, 64, 57
2, 159521, Control_c, 0, 64, 66
2, 159541, Control_c, 0, 64, 68
2, 159561, Control_c, 0, 64, 69
2, 159573, Note_on_c, 0, 40, 0
2, 159579, Control_c, 0, 64, 70
2, 159599, Control_c, 0, 64, 71
2, 159618, Control_c, 0, 64, 73
2, 159638, Control_c, 0, 64, 75
2, 159656, Control_c, 0, 64, 77
2, 159676, Control_c, 0, 64, 78
2, 159680, Note_on_c, 0, 71, 74
2, 159724, Note_on_c, 0, 71, 0
2, 159733, Control_c, 0, 64, 77
2, 159753, Control_c, 0, 64, 76
2, 159772, Control_c, 0, 64, 75
2, 159791, Control_c, 0, 64, 74
2, 159810, Control_c, 0, 64, 74
2, 159830, Control_c, 0, 64, 70
2, 159849, Control_c, 0, 64, 57
2, 159868, Control_c, 0, 64, 0
2, 159886, Note_on_c, 0, 76, 76
2, 159890, Note_on_c, 0, 79, 0
2, 159953, Note_on_c, 0, 76, 0
2, 159961, Note_on_c, 0, 74, 80
2, 159986, Note_on_c, 0, 74, 0
2, 160058, Note_on_c, 0, 72, 75
2, 160130, Note_on_c, 0, 72, 0
2, 160145, Note_on_c, 0, 71, 73
2, 160225, Note_on_c, 0, 84, 97
2, 160229, Note_on_c, 0, 69, 81
2, 160232, Note_on_c, 0, 71, 0
2, 160256, Note_on_c, 0, 69, 0
2, 160614, Note_on_c, 0, 72, 74
2, 160656, Note_on_c, 0, 84, 0
2, 160692, Note_on_c, 0, 72, 0
2, 160720, Note_on_c, 0, 71, 75
2, 160806, Note_on_c, 0, 71, 0
2, 160808, Note_on_c, 0, 69, 74
2, 160872, Note_on_c, 0, 67, 77
2, 160881, Note_on_c, 0, 69, 0
2, 160903, Note_on_c, 0, 67, 0
2, 160945, Note_on_c, 0, 75, 84
2, 160954, Note_on_c, 0, 66, 85
2, 161038, Note_on_c, 0, 66, 0
2, 161040, Note_on_c, 0, 67, 77
2, 161129, Note_on_c, 0, 67, 0
2, 161133, Note_on_c, 0, 69, 74
2, 161315, Note_on_c, 0, 60, 65
2, 161351, Note_on_c, 0, 60, 0
2, 161375, Note_on_c, 0, 75, 0
2, 161409, Note_on_c, 0, 69, 0
2, 161437, Note_on_c, 0, 67, 53
2, 161481, Note_on_c, 0, 67, 0
2, 161513, Note_on_c, 0, 66, 60
2, 161545, Note_on_c, 0, 66, 0
2, 161613, Note_on_c, 0, 64, 39
2, 161653, Note_on_c, 0, 64, 0
2, 161685, Note_on_c, 0, 63, 57
2, 161690, Note_on_c, 0, 54, 55
2, 161726, Note_on_c, 0, 54, 0
2, 161743, Note_on_c, 0, 63, 0
2, 161764, Note_on_c, 0, 64, 60
2, 161821, Note_on_c, 0, 64, 0
2, 161858, Note_on_c, 0, 66, 63
2, 162055, Note_on_c, 0, 57, 56
2, 162095, Note_on_c, 0, 57, 0
2, 162130, Note_on_c, 0, 66, 0
2, 162162, Note_on_c, 0, 64, 51
2, 162214, Note_on_c, 0, 64, 0
2, 162229, Note_on_c, 0, 63, 57
2, 162289, Note_on_c, 0, 63, 0
2, 162310, Note_on_c, 0, 61, 63
2, 162346, Note_on_c, 0, 61, 0
2, 162404, Note_on_c, 0, 59, 70
2, 162410, Note_on_c, 0, 51, 62
2, 162446, Note_on_c, 0, 51, 0
2, 162774, Note_on_c, 0, 54, 63
2, 162775, Note_on_c, 0, 81, 83
2, 162808, Note_on_c, 0, 81, 0
2, 162829, Note_on_c, 0, 54, 0
2, 162950, Note_on_c, 0, 59, 0
2, 162969, Note_on_c, 0, 61, 57
2, 163057, Note_on_c, 0, 61, 0
2, 163058, Note_on_c, 0, 63, 67
2, 163103, Note_on_c, 0, 59, 59
2, 163120, Note_on_c, 0, 78, 80
2, 163125, Note_on_c, 0, 63, 0
2, 163152, Note_on_c, 0, 64, 68
2, 163179, Note_on_c, 0, 78, 0
2, 163217, Note_on_c, 0, 64, 0
2, 163254, Note_on_c, 0, 63, 62
2, 163300, Note_on_c, 0, 63, 0
2, 163346, Note_on_c, 0, 64, 59
2, 163387, Note_on_c, 0, 64, 0
2, 163404, Note_on_c, 0, 63, 66
2, 163460, Note_on_c, 0, 63, 0
2, 163487, Note_on_c, 0, 64, 64
2, 163499, Note_on_c, 0, 83, 88
2, 163543, Note_on_c, 0, 59, 0
2, 163545, Note_on_c, 0, 64, 0
2, 163553, Note_on_c, 0, 83, 0
2, 163591, Note_on_c, 0, 63, 63
2, 163642, Note_on_c, 0, 63, 0
2, 163675, Note_on_c, 0, 61, 69
2, 163737, Note_on_c, 0, 61, 0
2, 163764, Note_on_c, 0, 63, 73
2, 163805, Note_on_c, 0, 63, 0
2, 163835, Note_on_c, 0, 64, 67
2, 163845, Note_on_c, 0, 79, 88
2, 163851, Note_on_c, 0, 52, 69
2, 163906, Note_on_c, 0, 64, 0
2, 163911, Note_on_c, 0, 79, 0
2, 163925, Note_on_c, 0, 52, 0
2, 164244, Note_on_c, 0, 76, 84
2, 164300, Note_on_c, 0, 76, 0
2, 164340, Note_on_c, 0, 40, 79
2, 164432, Note_on_c, 0, 41, 78
2, 164439, Note_on_c, 0, 40, 0
2, 164488, Note_on_c, 0, 41, 0
2, 164509, Note_on_c, 0, 43, 83
2, 164591, Note_on_c, 0, 45, 88
2, 164597, Note_on_c, 0, 43, 0
2, 164597, Note_on_c, 0, 73, 87
2, 164650, Note_on_c, 0, 45, 0
2, 164679, Note_on_c, 0, 73, 0
2, 164994, Note_on_c, 0, 81, 94
2, 165057, Note_on_c, 0, 81, 0
2, 165094, Note_on_c, 0, 43, 74
2, 165154, Note_on_c, 0, 43, 0
2, 165185, Note_on_c, 0, 41, 76
2, 165269, Note_on_c, 0, 40, 74
2, 165270, Note_on_c, 0, 41, 0
2, 165340, Control_c, 0, 64, 37
2, 165347, Note_on_c, 0, 38, 81
2, 165354, Note_on_c, 0, 40, 0
2, 165357, Note_on_c, 0, 77, 79
2, 165360, Control_c, 0, 64, 62
2, 165379, Control_c, 0, 64, 68
2, 165399, Control_c, 0, 64, 74
2, 165402, Note_on_c, 0, 38, 0
2, 165417, Control_c, 0, 64, 79
2, 165437, Control_c, 0, 64, 79
2, 165456, Control_c, 0, 64, 79
2, 165470, Note_on_c, 0, 77, 0
2, 165475, Control_c, 0, 64, 78
2, 165494, Control_c, 0, 64, 76
2, 165514, Control_c, 0, 64, 74
2, 165533, Control_c, 0, 64, 71
2, 165552, Control_c, 0, 64, 68
2, 165571, Control_c, 0, 64, 65
2, 165591, Control_c, 0, 64, 63
2, 165609, Control_c, 0, 64, 60
2, 165629, Control_c, 0, 64, 56
2, 165648, Control_c, 0, 64, 46
2, 165667, Control_c, 0, 64, 25
2, 165686, Control_c, 0, 64, 0
2, 165753, Note_on_c, 0, 62, 58
2, 165792, Note_on_c, 0, 62, 0
2, 165835, Note_on_c, 0, 74, 47
2, 165884, Note_on_c, 0, 74, 0
2, 165917, Note_on_c, 0, 76, 56
2, 165970, Note_on_c, 0, 76, 0
2, 165993, Note_on_c, 0, 77, 58
2, 166077, Note_on_c, 0, 77, 0
2, 166097, Note_on_c, 0, 79, 63
2, 166104, Note_on_c, 0, 59, 59
2, 166150, Note_on_c, 0, 59, 0
2, 166202, Note_on_c, 0, 79, 0
2, 166480, Note_on_c, 0, 67, 51
2, 166526, Note_on_c, 0, 67, 0
2, 166589, Note_on_c, 0, 77, 55
2, 166645, Note_on_c, 0, 77, 0
2, 166683, Note_on_c, 0, 76, 54
2, 166724, Note_on_c, 0, 76, 0
2, 166765, Note_on_c, 0, 74, 54
2, 166807, Note_on_c, 0, 74, 0
2, 166836, Note_on_c, 0, 64, 51
2, 166856, Note_on_c, 0, 72, 48
2, 166877, Note_on_c, 0, 64, 0
2, 166987, Note_on_c, 0, 72, 0
2, 167227, Note_on_c, 0, 57, 46
2, 167261, Note_on_c, 0, 57, 0
2, 167408, Note_on_c, 0, 77, 56
2, 167465, Note_on_c, 0, 77, 0
2, 167507, Note_on_c, 0, 79, 64
2, 167566, Note_on_c, 0, 79, 0
2, 167577, Note_on_c, 0, 53, 58
2, 167578, Note_on_c, 0, 81, 61
2, 167622, Note_on_c, 0, 53, 0
2, 167625, Note_on_c, 0, 81, 0
2, 167666, Note_on_c, 0, 82, 66
2, 167746, Note_on_c, 0, 82, 0
2, 167754, Note_on_c, 0, 81, 64
2, 167801, Note_on_c, 0, 81, 0
2, 167828, Note_on_c, 0, 79, 69
2, 167879, Note_on_c, 0, 79, 0
2, 167908, Note_on_c, 0, 77, 72
2, 167923, Note_on_c, 0, 62, 57
2, 167953, Note_on_c, 0, 77, 0
2, 167972, Note_on_c, 0, 62, 0
2, 167994, Note_on_c, 0, 76, 69
2, 168075, Note_on_c, 0, 76, 0
2, 168084, Note_on_c, 0, 74, 69
2, 168132, Note_on_c, 0, 74, 0
2, 168167, Note_on_c, 0, 72, 77
2, 168219, Note_on_c, 0, 72, 0
2, 168255, Note_on_c, 0, 56, 69
2, 168268, Note_on_c, 0, 71, 80
2, 168294, Note_on_c, 0, 56, 0
2, 168334, Note_on_c, 0, 71, 0
2, 168363, Note_on_c, 0, 72, 76
2, 168447, Note_on_c, 0, 71, 79
2, 168464, Note_on_c, 0, 72, 0
2, 168505, Note_on_c, 0, 71, 0
2, 168543, Note_on_c, 0, 69, 74
2, 168605, Note_on_c, 0, 52, 66
2, 168614, Note_on_c, 0, 69, 0
2, 168626, Note_on_c, 0, 68, 82
2, 168647, Note_on_c, 0, 52, 0
2, 168711, Note_on_c, 0, 66, 72
2, 168736, Note_on_c, 0, 68, 0
2, 168738, Control_c, 0, 64, 11
2, 168758, Control_c, 0, 64, 13
2, 168790, Note_on_c, 0, 64, 74
2, 168818, Note_on_c, 0, 66, 0
2, 168866, Note_on_c, 0, 62, 74
2, 168880, Note_on_c, 0, 64, 0
2, 168943, Note_on_c, 0, 62, 0
2, 168948, Note_on_c, 0, 57, 70
2, 168950, Note_on_c, 0, 60, 73
2, 168969, Control_c, 0, 64, 15
2, 169044, Note_on_c, 0, 64, 71
2, 169090, Note_on_c, 0, 64, 0
2, 169122, Control_c, 0, 64, 17
2, 169135, Note_on_c, 0, 65, 70
2, 169141, Control_c, 0, 64, 18
2, 169161, Control_c, 0, 64, 20
2, 169179, Control_c, 0, 64, 23
2, 169199, Control_c, 0, 64, 26
2, 169218, Control_c, 0, 64, 28
2, 169222, Note_on_c, 0, 65, 0
2, 169224, Note_on_c, 0, 67, 66
2, 169238, Control_c, 0, 64, 30
2, 169256, Control_c, 0, 64, 34
2, 169276, Control_c, 0, 64, 38
2, 169286, Note_on_c, 0, 67, 0
2, 169288, Note_on_c, 0, 69, 79
2, 169295, Control_c, 0, 64, 42
2, 169306, Note_on_c, 0, 72, 88
2, 169315, Control_c, 0, 64, 44
2, 169333, Control_c, 0, 64, 46
2, 169353, Control_c, 0, 64, 47
2, 169372, Control_c, 0, 64, 48
2, 169383, Note_on_c, 0, 60, 0
2, 169385, Note_on_c, 0, 69, 0
2, 169394, Note_on_c, 0, 57, 0
2, 169401, Note_on_c, 0, 67, 78
2, 169467, Note_on_c, 0, 67, 0
2, 169484, Note_on_c, 0, 65, 71
2, 169492, Note_on_c, 0, 72, 0
2, 169506, Control_c, 0, 64, 48
2, 169544, Control_c, 0, 64, 47
2, 169563, Note_on_c, 0, 65, 0
2, 169564, Control_c, 0, 64, 47
2, 169575, Note_on_c, 0, 64, 74
2, 169598, Control_c, 0, 64, 46
2, 169670, Note_on_c, 0, 64, 0
2, 169671, Note_on_c, 0, 71, 83
2, 169677, Note_on_c, 0, 62, 64
2, 169713, Control_c, 0, 64, 46
2, 169732, Control_c, 0, 64, 45
2, 169751, Control_c, 0, 64, 44
2, 169764, Note_on_c, 0, 57, 52
2, 169770, Control_c, 0, 64, 42
2, 169790, Control_c, 0, 64, 40
2, 169809, Control_c, 0, 64, 37
2, 169827, Control_c, 0, 64, 36
2, 169847, Control_c, 0, 64, 34
2, 169849, Note_on_c, 0, 57, 0
2, 169854, Note_on_c, 0, 59, 71
2, 169866, Control_c, 0, 64, 31
2, 169885, Control_c, 0, 64, 27
2, 169897, Note_on_c, 0, 62, 0
2, 169904, Control_c, 0, 64, 23
2, 169924, Control_c, 0, 64, 19
2, 169937, Note_on_c, 0, 60, 67
2, 169940, Note_on_c, 0, 59, 0
2, 169943, Control_c, 0, 64, 17
2, 169981, Control_c, 0, 64, 15
2, 169988, Note_on_c, 0, 60, 0
2, 170021, Note_on_c, 0, 62, 73
2, 170064, Note_on_c, 0, 65, 72
2, 170078, Control_c, 0, 64, 13
2, 170098, Note_on_c, 0, 62, 0
2, 170102, Control_c, 0, 64, 0
2, 170124, Note_on_c, 0, 60, 67
2, 170135, Note_on_c, 0, 65, 0
2, 170193, Note_on_c, 0, 59, 78
2, 170193, Note_on_c, 0, 60, 0
2, 170243, Note_on_c, 0, 59, 0
2, 170296, Note_on_c, 0, 57, 77
2, 170379, Note_on_c, 0, 57, 0
2, 170387, Note_on_c, 0, 59, 75
2, 170396, Note_on_c, 0, 56, 73
2, 170424, Note_on_c, 0, 59, 0
2, 170455, Note_on_c, 0, 56, 0
2, 170495, Note_on_c, 0, 57, 64
2, 170539, Note_on_c, 0, 57, 0
2, 170551, Note_on_c, 0, 56, 76
2, 170652, Note_on_c, 0, 54, 74
2, 170655, Note_on_c, 0, 56, 0
2, 170737, Note_on_c, 0, 54, 0
2, 170740, Note_on_c, 0, 62, 77
2, 170755, Note_on_c, 0, 52, 78
2, 170782, Note_on_c, 0, 62, 0
2, 170825, Note_on_c, 0, 52, 0
2, 170867, Note_on_c, 0, 50, 76
2, 170937, Note_on_c, 0, 48, 73
2, 170966, Note_on_c, 0, 50, 0
2, 171037, Note_on_c, 0, 47, 70
2, 171074, Note_on_c, 0, 48, 0
2, 171144, Note_on_c, 0, 45, 73
2, 171145, Note_on_c, 0, 60, 91
2, 171173, Note_on_c, 0, 47, 0
2, 171323, Note_on_c, 0, 45, 0
2, 171369, Control_c, 0, 64, 28
2, 171385, Note_on_c, 0, 64, 66
2, 171388, Control_c, 0, 64, 39
2, 171401, Note_on_c, 0, 71, 0
2, 171408, Control_c, 0, 64, 46
2, 171427, Control_c, 0, 64, 51
2, 171446, Control_c, 0, 64, 54
2, 171465, Control_c, 0, 64, 52
2, 171485, Control_c, 0, 64, 28
2, 171502, Control_c, 0, 64, 0
2, 171547, Note_on_c, 0, 64, 0
2, 171553, Note_on_c, 0, 69, 69
2, 171572, Note_on_c, 0, 57, 69
2, 171587, Note_on_c, 0, 69, 0
2, 171651, Note_on_c, 0, 57, 0
2, 171680, Note_on_c, 0, 55, 75
2, 171759, Note_on_c, 0, 53, 68
2, 171766, Note_on_c, 0, 55, 0
2, 171809, Note_on_c, 0, 52, 66
2, 171827, Note_on_c, 0, 53, 0
2, 171900, Note_on_c, 0, 50, 80
2, 171911, Note_on_c, 0, 65, 89
2, 171944, Note_on_c, 0, 52, 0
2, 171949, Note_on_c, 0, 60, 0
2, 172000, Control_c, 0, 64, 35
2, 172021, Control_c, 0, 64, 53
2, 172041, Control_c, 0, 64, 56
2, 172067, Note_on_c, 0, 50, 0
2, 172079, Control_c, 0, 64, 51
2, 172098, Control_c, 0, 64, 29
2, 172113, Note_on_c, 0, 57, 73
2, 172118, Control_c, 0, 64, 0
2, 172166, Note_on_c, 0, 57, 0
2, 172295, Note_on_c, 0, 53, 65
2, 172311, Note_on_c, 0, 62, 74
2, 172358, Note_on_c, 0, 53, 0
2, 172360, Note_on_c, 0, 62, 0
2, 172389, Note_on_c, 0, 52, 76
2, 172478, Note_on_c, 0, 50, 71
2, 172487, Note_on_c, 0, 52, 0
2, 172548, Note_on_c, 0, 48, 63
2, 172567, Note_on_c, 0, 50, 0
2, 172593, Note_on_c, 0, 65, 0
2, 172608, Note_on_c, 0, 47, 73
2, 172620, Note_on_c, 0, 48, 0
2, 172633, Note_on_c, 0, 56, 92
2, 172688, Note_on_c, 0, 58, 36
2, 172693, Control_c, 0, 64, 56
2, 172713, Control_c, 0, 64, 65
2, 172718, Note_on_c, 0, 47, 0
2, 172726, Note_on_c, 0, 48, 70
2, 172732, Control_c, 0, 64, 66
2, 172733, Note_on_c, 0, 58, 0
2, 172751, Control_c, 0, 64, 67
2, 172770, Control_c, 0, 64, 68
2, 172789, Control_c, 0, 64, 69
2, 172796, Note_on_c, 0, 48, 0
2, 172806, Note_on_c, 0, 50, 75
2, 172809, Control_c, 0, 64, 70
2, 172827, Control_c, 0, 64, 72
2, 172847, Control_c, 0, 64, 73
2, 172891, Note_on_c, 0, 56, 0
2, 172943, Control_c, 0, 64, 70
2, 172962, Control_c, 0, 64, 64
2, 172980, Control_c, 0, 64, 15
2, 173000, Control_c, 0, 64, 0
2, 173025, Note_on_c, 0, 77, 79
2, 173060, Note_on_c, 0, 77, 0
2, 173067, Note_on_c, 0, 50, 0
2, 173087, Note_on_c, 0, 48, 52
2, 173183, Note_on_c, 0, 48, 0
2, 173184, Note_on_c, 0, 47, 54
2, 173235, Note_on_c, 0, 47, 0
2, 173258, Note_on_c, 0, 45, 55
2, 173321, Note_on_c, 0, 45, 0
2, 173358, Note_on_c, 0, 44, 60
2, 173371, Note_on_c, 0, 71, 70
2, 173409, Note_on_c, 0, 71, 0
2, 173415, Note_on_c, 0, 44, 0
2, 173440, Note_on_c, 0, 45, 55
2, 173497, Note_on_c, 0, 45, 0
2, 173539, Note_on_c, 0, 47, 51
2, 173759, Note_on_c, 0, 74, 59
2, 173800, Note_on_c, 0, 74, 0
2, 173819, Note_on_c, 0, 47, 0
2, 173845, Note_on_c, 0, 45, 54
2, 173918, Note_on_c, 0, 44, 58
2, 173918, Note_on_c, 0, 45, 0
2, 173979, Note_on_c, 0, 42, 55
2, 174010, Note_on_c, 0, 44, 0
2, 174093, Note_on_c, 0, 42, 0
2, 174101, Note_on_c, 0, 40, 51
2, 174116, Note_on_c, 0, 68, 63
2, 174494, Note_on_c, 0, 62, 66
2, 174545, Note_on_c, 0, 62, 0
2, 174686, Note_on_c, 0, 42, 49
2, 174715, Note_on_c, 0, 40, 0
2, 174771, Note_on_c, 0, 42, 0
2, 174784, Note_on_c, 0, 44, 52
2, 174853, Note_on_c, 0, 44, 0
2, 174880, Note_on_c, 0, 71, 67
2, 174888, Note_on_c, 0, 59, 52
2, 174889, Note_on_c, 0, 45, 46
2, 174909, Note_on_c, 0, 68, 0
2, 174960, Note_on_c, 0, 45, 0
2, 174991, Note_on_c, 0, 44, 53
2, 175044, Note_on_c, 0, 44, 0
2, 175083, Note_on_c, 0, 45, 51
2, 175129, Note_on_c, 0, 45, 0
2, 175161, Note_on_c, 0, 44, 57
2, 175209, Note_on_c, 0, 44, 0
2, 175247, Note_on_c, 0, 45, 53
2, 175261, Note_on_c, 0, 64, 50
2, 175266, Note_on_c, 0, 59, 0
2, 175299, Note_on_c, 0, 45, 0
2, 175325, Note_on_c, 0, 44, 56
2, 175343, Note_on_c, 0, 64, 0
2, 175388, Note_on_c, 0, 44, 0
2, 175423, Note_on_c, 0, 42, 52
2, 175487, Note_on_c, 0, 42, 0
2, 175523, Note_on_c, 0, 44, 50
2, 175586, Note_on_c, 0, 44, 0
2, 175591, Note_on_c, 0, 71, 0
2, 175635, Note_on_c, 0, 60, 52
2, 175643, Note_on_c, 0, 45, 38
2, 175692, Control_c, 0, 64, 34
2, 175712, Control_c, 0, 64, 55
2, 175731, Control_c, 0, 64, 61
2, 175749, Control_c, 0, 64, 63
2, 175769, Control_c, 0, 64, 64
2, 175788, Control_c, 0, 64, 64
2, 175808, Control_c, 0, 64, 65
2, 175826, Control_c, 0, 64, 66
2, 175841, Note_on_c, 0, 60, 0
2, 175846, Control_c, 0, 64, 66
2, 175861, Control_c, 0, 64, 67
2, 176022, Note_on_c, 0, 76, 52
2, 176092, Control_c, 0, 64, 66
2, 176111, Control_c, 0, 64, 66
2, 176117, Note_on_c, 0, 76, 0
2, 176124, Note_on_c, 0, 74, 53
2, 176130, Control_c, 0, 64, 65
2, 176149, Control_c, 0, 64, 65
2, 176169, Control_c, 0, 64, 64
2, 176169, Note_on_c, 0, 45, 0
2, 176187, Control_c, 0, 64, 64
2, 176198, Note_on_c, 0, 72, 56
2, 176198, Note_on_c, 0, 74, 0
2, 176199, Note_on_c, 0, 47, 34
2, 176207, Control_c, 0, 64, 63
2, 176226, Control_c, 0, 64, 62
2, 176245, Control_c, 0, 64, 61
2, 176258, Note_on_c, 0, 72, 0
2, 176262, Note_on_c, 0, 47, 0
2, 176264, Control_c, 0, 64, 60
2, 176277, Note_on_c, 0, 71, 63
2, 176284, Control_c, 0, 64, 60
2, 176290, Note_on_c, 0, 48, 44
2, 176303, Control_c, 0, 64, 59
2, 176321, Control_c, 0, 64, 58
2, 176333, Note_on_c, 0, 71, 0
2, 176338, Note_on_c, 0, 48, 0
2, 176340, Control_c, 0, 64, 57
2, 176360, Control_c, 0, 64, 55
2, 176367, Note_on_c, 0, 69, 68
2, 176368, Note_on_c, 0, 50, 62
2, 176379, Control_c, 0, 64, 54
2, 176398, Control_c, 0, 64, 53
2, 176417, Control_c, 0, 64, 52
2, 176435, Note_on_c, 0, 50, 0
2, 176437, Control_c, 0, 64, 51
2, 176455, Control_c, 0, 64, 50
2, 176467, Note_on_c, 0, 49, 59
2, 176475, Control_c, 0, 64, 48
2, 176494, Control_c, 0, 64, 47
2, 176514, Control_c, 0, 64, 47
2, 176527, Note_on_c, 0, 49, 0
2, 176532, Control_c, 0, 64, 46
2, 176552, Control_c, 0, 64, 46
2, 176559, Note_on_c, 0, 50, 56
2, 176564, Note_on_c, 0, 73, 70
2, 176571, Control_c, 0, 64, 45
2, 176589, Control_c, 0, 64, 45
2, 176605, Note_on_c, 0, 50, 0
2, 176609, Control_c, 0, 64, 44
2, 176632, Note_on_c, 0, 69, 0
2, 176635, Note_on_c, 0, 49, 66
2, 176649, Note_on_c, 0, 76, 74
2, 176685, Note_on_c, 0, 49, 0
2, 176699, Note_on_c, 0, 73, 0
2, 176705, Control_c, 0, 64, 44
2, 176714, Note_on_c, 0, 50, 59
2, 176725, Control_c, 0, 64, 43
2, 176737, Note_on_c, 0, 79, 80
2, 176743, Control_c, 0, 64, 42
2, 176763, Control_c, 0, 64, 41
2, 176772, Note_on_c, 0, 76, 0
2, 176774, Note_on_c, 0, 50, 0
2, 176801, Control_c, 0, 64, 40
2, 176801, Note_on_c, 0, 49, 62
2, 176821, Control_c, 0, 64, 40
2, 176841, Control_c, 0, 64, 39
2, 176859, Control_c, 0, 64, 38
2, 176879, Control_c, 0, 64, 37
2, 176885, Note_on_c, 0, 49, 0
2, 176898, Control_c, 0, 64, 37
2, 176918, Control_c, 0, 64, 36
2, 176922, Note_on_c, 0, 47, 48
2, 176936, Control_c, 0, 64, 34
2, 176956, Control_c, 0, 64, 20
2, 176975, Control_c, 0, 64, 0
2, 176982, Note_on_c, 0, 47, 0
2, 177021, Note_on_c, 0, 49, 49
2, 177073, Note_on_c, 0, 49, 0
2, 177126, Note_on_c, 0, 50, 44
2, 177129, Note_on_c, 0, 79, 0
2, 177131, Note_on_c, 0, 77, 54
2, 177205, Control_c, 0, 64, 49
2, 177224, Control_c, 0, 64, 63
2, 177244, Control_c, 0, 64, 65
2, 177260, Control_c, 0, 64, 66
2, 177280, Control_c, 0, 64, 67
2, 177298, Control_c, 0, 64, 68
2, 177308, Note_on_c, 0, 77, 0
2, 177318, Control_c, 0, 64, 70
2, 177337, Control_c, 0, 64, 72
2, 177356, Control_c, 0, 64, 73
2, 177414, Control_c, 0, 64, 72
2, 177452, Control_c, 0, 64, 72
2, 177472, Control_c, 0, 64, 71
2, 177490, Control_c, 0, 64, 70
2, 177509, Control_c, 0, 64, 68
2, 177529, Control_c, 0, 64, 65
2, 177548, Control_c, 0, 64, 63
2, 177553, Note_on_c, 0, 69, 49
2, 177567, Control_c, 0, 64, 62
2, 177586, Control_c, 0, 64, 62
2, 177606, Control_c, 0, 64, 61
2, 177622, Note_on_c, 0, 69, 0
2, 177624, Control_c, 0, 64, 60
2, 177635, Note_on_c, 0, 67, 50
2, 177644, Control_c, 0, 64, 59
2, 177654, Note_on_c, 0, 50, 0
2, 177663, Control_c, 0, 64, 59
2, 177683, Control_c, 0, 64, 58
2, 177701, Control_c, 0, 64, 58
2, 177709, Note_on_c, 0, 67, 0
2, 177718, Note_on_c, 0, 65, 49
2, 177721, Control_c, 0, 64, 57
2, 177722, Note_on_c, 0, 52, 44
2, 177740, Control_c, 0, 64, 56
2, 177760, Control_c, 0, 64, 55
2, 177780, Control_c, 0, 64, 54
2, 177787, Note_on_c, 0, 65, 0
2, 177797, Note_on_c, 0, 64, 62
2, 177800, Control_c, 0, 64, 53
2, 177819, Control_c, 0, 64, 52
2, 177827, Note_on_c, 0, 52, 0
2, 177835, Note_on_c, 0, 53, 49
2, 177838, Control_c, 0, 64, 51
2, 177854, Note_on_c, 0, 64, 0
2, 177857, Control_c, 0, 64, 51
2, 177877, Control_c, 0, 64, 50
2, 177886, Note_on_c, 0, 53, 0
2, 177895, Control_c, 0, 64, 49
2, 177913, Note_on_c, 0, 62, 55
2, 177915, Control_c, 0, 64, 49
2, 177925, Note_on_c, 0, 55, 60
2, 177934, Control_c, 0, 64, 48
2, 177954, Control_c, 0, 64, 47
2, 177972, Control_c, 0, 64, 45
2, 177992, Control_c, 0, 64, 42
2, 177997, Note_on_c, 0, 55, 0
2, 178011, Control_c, 0, 64, 40
2, 178029, Control_c, 0, 64, 40
2, 178032, Note_on_c, 0, 54, 55
2, 178089, Note_on_c, 0, 54, 0
2, 178094, Note_on_c, 0, 62, 0
2, 178107, Note_on_c, 0, 66, 54
2, 178134, Note_on_c, 0, 55, 46
2, 178168, Note_on_c, 0, 66, 0
2, 178169, Note_on_c, 0, 55, 0
2, 178184, Note_on_c, 0, 69, 65
2, 178200, Note_on_c, 0, 54, 57
2, 178242, Note_on_c, 0, 54, 0
2, 178269, Note_on_c, 0, 55, 61
2, 178269, Note_on_c, 0, 69, 0
2, 178285, Note_on_c, 0, 72, 64
2, 178316, Note_on_c, 0, 55, 0
2, 178349, Note_on_c, 0, 54, 61
2, 178413, Control_c, 0, 64, 39
2, 178420, Note_on_c, 0, 54, 0
2, 178433, Control_c, 0, 64, 38
2, 178451, Control_c, 0, 64, 37
2, 178451, Note_on_c, 0, 52, 59
2, 178490, Control_c, 0, 64, 36
2, 178515, Note_on_c, 0, 52, 0
2, 178546, Note_on_c, 0, 54, 58
2, 178567, Control_c, 0, 64, 36
2, 178592, Note_on_c, 0, 72, 0
2, 178599, Note_on_c, 0, 54, 0
2, 178640, Note_on_c, 0, 55, 50
2, 178643, Note_on_c, 0, 71, 54
2, 178701, Control_c, 0, 64, 36
2, 178720, Control_c, 0, 64, 37
2, 178740, Control_c, 0, 64, 38
2, 178760, Control_c, 0, 64, 39
2, 178779, Control_c, 0, 64, 40
2, 178798, Control_c, 0, 64, 41
2, 178837, Control_c, 0, 64, 41
2, 178873, Note_on_c, 0, 74, 64
2, 178882, Note_on_c, 0, 71, 0
2, 178894, Control_c, 0, 64, 42
2, 178932, Control_c, 0, 64, 42
2, 178938, Note_on_c, 0, 72, 72
2, 178952, Control_c, 0, 64, 43
2, 178965, Note_on_c, 0, 74, 0
2, 178971, Control_c, 0, 64, 43
2, 178989, Control_c, 0, 64, 44
2, 179009, Control_c, 0, 64, 44
2, 179019, Note_on_c, 0, 71, 82
2, 179027, Note_on_c, 0, 72, 0
2, 179066, Control_c, 0, 64, 45
2, 179143, Control_c, 0, 64, 46
2, 179207, Note_on_c, 0, 55, 0
2, 179207, Note_on_c, 0, 72, 72
2, 179227, Note_on_c, 0, 57, 55
2, 179248, Note_on_c, 0, 71, 0
2, 179284, Note_on_c, 0, 57, 0
2, 179287, Note_on_c, 0, 74, 80
2, 179300, Note_on_c, 0, 72, 0
2, 179326, Note_on_c, 0, 59, 52
2, 179362, Note_on_c, 0, 59, 0
2, 179378, Note_on_c, 0, 74, 0
2, 179382, Note_on_c, 0, 67, 70
2, 179385, Note_on_c, 0, 60, 60
2, 179394, Control_c, 0, 64, 46
2, 179442, Note_on_c, 0, 60, 0
2, 179459, Note_on_c, 0, 59, 71
2, 179518, Note_on_c, 0, 59, 0
2, 179561, Note_on_c, 0, 60, 56
2, 179606, Note_on_c, 0, 60, 0
2, 179623, Note_on_c, 0, 59, 62
2, 179677, Note_on_c, 0, 59, 0
2, 179702, Control_c, 0, 64, 47
2, 179714, Note_on_c, 0, 60, 56
2, 179722, Control_c, 0, 64, 49
2, 179740, Control_c, 0, 64, 50
2, 179744, Note_on_c, 0, 77, 82
2, 179760, Control_c, 0, 64, 52
2, 179770, Note_on_c, 0, 60, 0
2, 179779, Control_c, 0, 64, 54
2, 179797, Note_on_c, 0, 59, 67
2, 179799, Control_c, 0, 64, 55
2, 179809, Note_on_c, 0, 67, 0
2, 179817, Control_c, 0, 64, 56
2, 179837, Control_c, 0, 64, 57
2, 179856, Control_c, 0, 64, 57
2, 179870, Note_on_c, 0, 59, 0
2, 179893, Note_on_c, 0, 57, 71
2, 179914, Control_c, 0, 64, 57
2, 179933, Control_c, 0, 64, 53
2, 179952, Control_c, 0, 64, 34
2, 179971, Control_c, 0, 64, 0
2, 179979, Note_on_c, 0, 57, 0
2, 179996, Note_on_c, 0, 59, 67
2, 180055, Note_on_c, 0, 59, 0
2, 180099, Note_on_c, 0, 60, 58
2, 180133, Note_on_c, 0, 76, 75
2, 180144, Control_c, 0, 64, 61
2, 180160, Note_on_c, 0, 77, 0
2, 180163, Control_c, 0, 64, 66
2, 180182, Control_c, 0, 64, 67
2, 180202, Control_c, 0, 64, 68
2, 180220, Control_c, 0, 64, 70
2, 180236, Note_on_c, 0, 76, 0
2, 180240, Control_c, 0, 64, 73
2, 180259, Control_c, 0, 64, 77
2, 180279, Control_c, 0, 64, 79
2, 180297, Control_c, 0, 64, 80
2, 180317, Control_c, 0, 64, 79
2, 180355, Control_c, 0, 64, 79
2, 180357, Note_on_c, 0, 67, 74
2, 180374, Control_c, 0, 64, 78
2, 180394, Control_c, 0, 64, 76
2, 180402, Note_on_c, 0, 67, 0
2, 180413, Control_c, 0, 64, 70
2, 180427, Note_on_c, 0, 65, 78
2, 180432, Control_c, 0, 64, 63
2, 180451, Control_c, 0, 64, 44
2, 180470, Control_c, 0, 64, 0
2, 180514, Note_on_c, 0, 64, 77
2, 180515, Note_on_c, 0, 65, 0
2, 180685, Note_on_c, 0, 64, 0
2, 180706, Note_on_c, 0, 60, 0
2, 180712, Note_on_c, 0, 65, 70
2, 180713, Note_on_c, 0, 62, 57
2, 180772, Note_on_c, 0, 62, 0
2, 180787, Note_on_c, 0, 67, 74
2, 180792, Note_on_c, 0, 65, 0
2, 180807, Note_on_c, 0, 64, 62
2, 180845, Note_on_c, 0, 64, 0
2, 180876, Note_on_c, 0, 65, 62
2, 180890, Note_on_c, 0, 60, 67
2, 180979, Note_on_c, 0, 64, 51
2, 180998, Note_on_c, 0, 65, 0
2, 181096, Note_on_c, 0, 64, 0
2, 181124, Note_on_c, 0, 65, 53
2, 181160, Note_on_c, 0, 65, 0
2, 181175, Note_on_c, 0, 64, 62
2, 181187, Note_on_c, 0, 60, 0
2, 181240, Note_on_c, 0, 64, 0
2, 181252, Note_on_c, 0, 70, 75
2, 181256, Note_on_c, 0, 65, 69
2, 181282, Note_on_c, 0, 67, 0
2, 181301, Note_on_c, 0, 65, 0
2, 181351, Note_on_c, 0, 64, 72
2, 181413, Note_on_c, 0, 64, 0
2, 181433, Note_on_c, 0, 62, 70
2, 181511, Note_on_c, 0, 62, 0
2, 181519, Note_on_c, 0, 64, 76
2, 181539, Note_on_c, 0, 70, 0
2, 181579, Note_on_c, 0, 64, 0
2, 181584, Note_on_c, 0, 69, 77
2, 181595, Note_on_c, 0, 65, 81
2, 181800, Note_on_c, 0, 69, 0
2, 181803, Note_on_c, 0, 71, 79
2, 181867, Note_on_c, 0, 71, 0
2, 181876, Note_on_c, 0, 73, 81
2, 181906, Note_on_c, 0, 73, 0
2, 181952, Note_on_c, 0, 74, 86
2, 182136, Note_on_c, 0, 65, 0
2, 182142, Note_on_c, 0, 67, 64
2, 182229, Note_on_c, 0, 69, 77
2, 182232, Note_on_c, 0, 67, 0
2, 182294, Note_on_c, 0, 69, 0
2, 182315, Note_on_c, 0, 71, 71
2, 182317, Note_on_c, 0, 81, 104
2, 182389, Note_on_c, 0, 71, 0
2, 182405, Note_on_c, 0, 69, 71
2, 182454, Note_on_c, 0, 69, 0
2, 182496, Note_on_c, 0, 71, 64
2, 182545, Note_on_c, 0, 71, 0
2, 182573, Note_on_c, 0, 69, 65
2, 182631, Note_on_c, 0, 69, 0
2, 182653, Note_on_c, 0, 73, 73
2, 182667, Note_on_c, 0, 71, 72
2, 182671, Note_on_c, 0, 74, 0
2, 182720, Note_on_c, 0, 71, 0
2, 182756, Note_on_c, 0, 69, 74
2, 182837, Note_on_c, 0, 69, 0
2, 182855, Note_on_c, 0, 67, 68
2, 182951, Note_on_c, 0, 69, 82
2, 182974, Note_on_c, 0, 67, 0
2, 182982, Note_on_c, 0, 81, 0
2, 182994, Note_on_c, 0, 73, 0
2, 183023, Note_on_c, 0, 69, 0
2, 183024, Note_on_c, 0, 77, 92
2, 183038, Note_on_c, 0, 74, 77
2, 183039, Note_on_c, 0, 70, 70
2, 183057, Control_c, 0, 64, 53
2, 183077, Control_c, 0, 64, 64
2, 183086, Note_on_c, 0, 70, 0
2, 183096, Control_c, 0, 64, 63
2, 183115, Control_c, 0, 64, 62
2, 183134, Control_c, 0, 64, 62
2, 183154, Control_c, 0, 64, 62
2, 183172, Control_c, 0, 64, 63
2, 183192, Control_c, 0, 64, 63
2, 183266, Note_on_c, 0, 58, 49
2, 183269, Control_c, 0, 64, 60
2, 183288, Control_c, 0, 64, 37
2, 183307, Control_c, 0, 64, 0
2, 183335, Note_on_c, 0, 77, 0
2, 183347, Note_on_c, 0, 60, 68
2, 183358, Note_on_c, 0, 58, 0
2, 183384, Control_c, 0, 64, 30
2, 183403, Control_c, 0, 64, 54
2, 183423, Control_c, 0, 64, 60
2, 183430, Note_on_c, 0, 60, 0
2, 183431, Note_on_c, 0, 62, 72
2, 183442, Control_c, 0, 64, 62
2, 183461, Control_c, 0, 64, 62
2, 183499, Control_c, 0, 64, 63
2, 183514, Note_on_c, 0, 62, 0
2, 183523, Note_on_c, 0, 60, 74
2, 183539, Control_c, 0, 64, 63
2, 183606, Note_on_c, 0, 58, 72
2, 183610, Note_on_c, 0, 60, 0
2, 183654, Control_c, 0, 64, 63
2, 183674, Control_c, 0, 64, 61
2, 183676, Note_on_c, 0, 58, 0
2, 183692, Note_on_c, 0, 57, 80
2, 183693, Control_c, 0, 64, 46
2, 183712, Control_c, 0, 64, 0
2, 183750, Note_on_c, 0, 82, 101
2, 183765, Note_on_c, 0, 57, 0
2, 183800, Note_on_c, 0, 55, 73
2, 183816, Note_on_c, 0, 74, 0
2, 183851, Note_on_c, 0, 55, 0
2, 183864, Note_on_c, 0, 53, 72
2, 183956, Note_on_c, 0, 53, 0
2, 183970, Note_on_c, 0, 55, 73
2, 184003, Note_on_c, 0, 55, 0
2, 184046, Note_on_c, 0, 57, 73
2, 184108, Note_on_c, 0, 57, 0
2, 184134, Note_on_c, 0, 58, 76
2, 184187, Note_on_c, 0, 58, 0
2, 184216, Note_on_c, 0, 57, 79
2, 184219, Note_on_c, 0, 82, 0
2, 184255, Note_on_c, 0, 57, 0
2, 184306, Note_on_c, 0, 55, 72
2, 184388, Note_on_c, 0, 53, 73
2, 184397, Note_on_c, 0, 55, 0
2, 184462, Note_on_c, 0, 52, 71
2, 184465, Note_on_c, 0, 53, 0
2, 184504, Note_on_c, 0, 73, 93
2, 184548, Note_on_c, 0, 53, 75
2, 184557, Note_on_c, 0, 52, 0
2, 184621, Note_on_c, 0, 53, 0
2, 184638, Note_on_c, 0, 55, 69
2, 184899, Note_on_c, 0, 70, 74
2, 184944, Note_on_c, 0, 70, 0
2, 184972, Note_on_c, 0, 55, 0
2, 184997, Note_on_c, 0, 53, 58
2, 185064, Note_on_c, 0, 53, 0
2, 185078, Note_on_c, 0, 52, 55
2, 185139, Note_on_c, 0, 52, 0
2, 185161, Note_on_c, 0, 50, 61
2, 185241, Note_on_c, 0, 50, 0
2, 185264, Note_on_c, 0, 64, 64
2, 185265, Note_on_c, 0, 49, 66
2, 185298, Note_on_c, 0, 64, 0
2, 185306, Note_on_c, 0, 73, 0
2, 185316, Note_on_c, 0, 49, 0
2, 185357, Note_on_c, 0, 50, 59
2, 185407, Note_on_c, 0, 50, 0
2, 185442, Note_on_c, 0, 52, 53
2, 185622, Note_on_c, 0, 67, 64
2, 185664, Note_on_c, 0, 67, 0
2, 185710, Note_on_c, 0, 52, 0
2, 185726, Note_on_c, 0, 50, 56
2, 185785, Note_on_c, 0, 49, 63
2, 185794, Note_on_c, 0, 50, 0
2, 185861, Note_on_c, 0, 49, 0
2, 185875, Note_on_c, 0, 47, 54
2, 185960, Note_on_c, 0, 47, 0
2, 185984, Note_on_c, 0, 61, 69
2, 185987, Note_on_c, 0, 45, 51
2, 185998, Control_c, 0, 64, 31
2, 186017, Control_c, 0, 64, 59
2, 186027, Note_on_c, 0, 61, 0
2, 186037, Control_c, 0, 64, 61
2, 186055, Control_c, 0, 64, 63
2, 186094, Control_c, 0, 64, 63
2, 186114, Control_c, 0, 64, 64
2, 186132, Control_c, 0, 64, 65
2, 186151, Control_c, 0, 64, 65
2, 186228, Control_c, 0, 64, 65
2, 186286, Control_c, 0, 64, 64
2, 186305, Control_c, 0, 64, 59
2, 186325, Control_c, 0, 64, 11
2, 186343, Control_c, 0, 64, 0
2, 186369, Note_on_c, 0, 79, 75
2, 186373, Note_on_c, 0, 76, 67
2, 186405, Note_on_c, 0, 79, 0
2, 186406, Note_on_c, 0, 76, 0
2, 186515, Note_on_c, 0, 45, 0
2, 186534, Note_on_c, 0, 47, 53
2, 186598, Note_on_c, 0, 47, 0
2, 186626, Note_on_c, 0, 49, 60
2, 186683, Note_on_c, 0, 49, 0
2, 186714, Note_on_c, 0, 50, 58
2, 186741, Note_on_c, 0, 76, 75
2, 186747, Note_on_c, 0, 69, 70
2, 186782, Note_on_c, 0, 50, 0
2, 186790, Note_on_c, 0, 76, 0
2, 186799, Note_on_c, 0, 49, 65
2, 186819, Note_on_c, 0, 69, 0
2, 186868, Note_on_c, 0, 49, 0
2, 186903, Note_on_c, 0, 69, 54
2, 186904, Note_on_c, 0, 50, 62
2, 186982, Note_on_c, 0, 50, 0
2, 187020, Note_on_c, 0, 49, 62
2, 187073, Note_on_c, 0, 49, 0
2, 187098, Note_on_c, 0, 81, 78
2, 187114, Note_on_c, 0, 50, 61
2, 187128, Note_on_c, 0, 81, 0
2, 187173, Note_on_c, 0, 50, 0
2, 187198, Note_on_c, 0, 49, 66
2, 187283, Note_on_c, 0, 49, 0
2, 187299, Note_on_c, 0, 47, 63
2, 187381, Note_on_c, 0, 49, 68
2, 187391, Note_on_c, 0, 47, 0
2, 187447, Note_on_c, 0, 49, 0
2, 187458, Note_on_c, 0, 77, 74
2, 187476, Note_on_c, 0, 50, 57
2, 187508, Note_on_c, 0, 50, 0
2, 187550, Note_on_c, 0, 52, 70
2, 187629, Note_on_c, 0, 52, 0
2, 187642, Note_on_c, 0, 69, 0
2, 187649, Note_on_c, 0, 53, 74
2, 187684, Note_on_c, 0, 77, 0
2, 187856, Note_on_c, 0, 74, 63
2, 187869, Note_on_c, 0, 69, 45
2, 187899, Note_on_c, 0, 74, 0
2, 187911, Note_on_c, 0, 69, 0
2, 187915, Note_on_c, 0, 53, 0
2, 187935, Note_on_c, 0, 52, 56
2, 188012, Note_on_c, 0, 50, 62
2, 188019, Note_on_c, 0, 52, 0
2, 188109, Note_on_c, 0, 48, 44
2, 188109, Note_on_c, 0, 50, 0
2, 188165, Note_on_c, 0, 48, 0
2, 188173, Note_on_c, 0, 47, 57
2, 188215, Note_on_c, 0, 62, 53
2, 188256, Note_on_c, 0, 47, 0
2, 188267, Note_on_c, 0, 62, 0
2, 188280, Note_on_c, 0, 48, 61
2, 188336, Note_on_c, 0, 48, 0
2, 188377, Note_on_c, 0, 50, 56
2, 188588, Note_on_c, 0, 65, 61
2, 188635, Note_on_c, 0, 65, 0
2, 188645, Note_on_c, 0, 50, 0
2, 188666, Note_on_c, 0, 48, 45
2, 188750, Note_on_c, 0, 48, 0
2, 188764, Note_on_c, 0, 47, 55
2, 188829, Note_on_c, 0, 47, 0
2, 188837, Note_on_c, 0, 45, 50
2, 188910, Note_on_c, 0, 45, 0
2, 188939, Note_on_c, 0, 59, 56
2, 188942, Note_on_c, 0, 43, 50
2, 189009, Note_on_c, 0, 59, 0
2, 189012, Control_c, 0, 64, 46
2, 189031, Control_c, 0, 64, 57
2, 189051, Control_c, 0, 64, 59
2, 189069, Control_c, 0, 64, 61
2, 189089, Control_c, 0, 64, 62
2, 189108, Control_c, 0, 64, 63
2, 189128, Control_c, 0, 64, 64
2, 189185, Control_c, 0, 64, 64
2, 189223, Control_c, 0, 64, 64
2, 189262, Control_c, 0, 64, 63
2, 189281, Control_c, 0, 64, 60
2, 189300, Control_c, 0, 64, 54
2, 189320, Control_c, 0, 64, 40
2, 189329, Note_on_c, 0, 74, 53
2, 189339, Control_c, 0, 64, 0
2, 189344, Note_on_c, 0, 77, 58
2, 189369, Note_on_c, 0, 74, 0
2, 189385, Note_on_c, 0, 77, 0
2, 189504, Note_on_c, 0, 43, 0
2, 189515, Note_on_c, 0, 45, 52
2, 189584, Note_on_c, 0, 45, 0
2, 189616, Note_on_c, 0, 47, 53
2, 189669, Note_on_c, 0, 47, 0
2, 189696, Note_on_c, 0, 67, 54
2, 189699, Note_on_c, 0, 48, 51
2, 189701, Note_on_c, 0, 74, 57
2, 189744, Note_on_c, 0, 74, 0
2, 189755, Note_on_c, 0, 48, 0
2, 189786, Note_on_c, 0, 47, 57
2, 189815, Note_on_c, 0, 67, 0
2, 189832, Note_on_c, 0, 47, 0
2, 189867, Note_on_c, 0, 67, 6
2, 189880, Note_on_c, 0, 48, 46
2, 189922, Note_on_c, 0, 48, 0
2, 189941, Note_on_c, 0, 47, 59
2, 190007, Note_on_c, 0, 47, 0
2, 190048, Note_on_c, 0, 48, 50
2, 190060, Note_on_c, 0, 79, 69
2, 190100, Note_on_c, 0, 79, 0
2, 190104, Note_on_c, 0, 48, 0
2, 190146, Note_on_c, 0, 47, 55
2, 190196, Note_on_c, 0, 47, 0
2, 190250, Note_on_c, 0, 45, 43
2, 190307, Note_on_c, 0, 45, 0
2, 190322, Note_on_c, 0, 47, 52
2, 190387, Note_on_c, 0, 47, 0
2, 190419, Note_on_c, 0, 76, 65
2, 190435, Note_on_c, 0, 48, 48
2, 190495, Note_on_c, 0, 67, 0
2, 190495, Note_on_c, 0, 76, 0
2, 190511, Note_on_c, 0, 48, 0
2, 190816, Note_on_c, 0, 72, 65
2, 190860, Note_on_c, 0, 72, 0
2, 190933, Note_on_c, 0, 60, 54
2, 190984, Note_on_c, 0, 60, 0
2, 191053, Note_on_c, 0, 62, 27
2, 191077, Note_on_c, 0, 64, 64
2, 191099, Note_on_c, 0, 62, 0
2, 191125, Note_on_c, 0, 64, 0
2, 191156, Note_on_c, 0, 69, 66
2, 191171, Note_on_c, 0, 65, 52
2, 191213, Note_on_c, 0, 69, 0
2, 191275, Note_on_c, 0, 65, 0
2, 191558, Note_on_c, 0, 77, 70
2, 191606, Note_on_c, 0, 77, 0
2, 191647, Note_on_c, 0, 64, 52
2, 191690, Note_on_c, 0, 64, 0
2, 191729, Note_on_c, 0, 62, 63
2, 191799, Note_on_c, 0, 62, 0
2, 191811, Note_on_c, 0, 60, 69
2, 191871, Note_on_c, 0, 60, 0
2, 191898, Note_on_c, 0, 59, 70
2, 191907, Note_on_c, 0, 74, 73
2, 191984, Note_on_c, 0, 74, 0
2, 191998, Note_on_c, 0, 59, 0
2, 192293, Note_on_c, 0, 71, 82
2, 192296, Note_on_c, 0, 62, 75
2, 192339, Note_on_c, 0, 62, 0
2, 192355, Note_on_c, 0, 71, 0
2, 192384, Note_on_c, 0, 47, 78
2, 192476, Note_on_c, 0, 48, 81
2, 192479, Note_on_c, 0, 47, 0
2, 192538, Note_on_c, 0, 48, 0
2, 192555, Note_on_c, 0, 50, 81
2, 192612, Note_on_c, 0, 50, 0
2, 192628, Note_on_c, 0, 52, 85
2, 192634, Note_on_c, 0, 68, 88
2, 192637, Note_on_c, 0, 59, 82
2, 192701, Note_on_c, 0, 59, 0
2, 192718, Control_c, 0, 64, 22
2, 192737, Control_c, 0, 64, 44
2, 192739, Note_on_c, 0, 68, 0
2, 192751, Note_on_c, 0, 52, 0
2, 192757, Control_c, 0, 64, 0
2, 193019, Note_on_c, 0, 76, 81
2, 193028, Note_on_c, 0, 68, 87
2, 193127, Note_on_c, 0, 50, 78
2, 193135, Note_on_c, 0, 68, 0
2, 193137, Note_on_c, 0, 76, 0
2, 193212, Note_on_c, 0, 50, 0
2, 193219, Note_on_c, 0, 48, 77
2, 193291, Note_on_c, 0, 47, 77
2, 193316, Note_on_c, 0, 48, 0
2, 193408, Note_on_c, 0, 45, 70
2, 193411, Note_on_c, 0, 72, 78
2, 193420, Note_on_c, 0, 47, 0
2, 193420, Note_on_c, 0, 69, 78
2, 193631, Note_on_c, 0, 47, 64
2, 193675, Note_on_c, 0, 45, 0
2, 193731, Note_on_c, 0, 48, 64
2, 193746, Note_on_c, 0, 47, 0
2, 193779, Note_on_c, 0, 48, 0
2, 193780, Note_on_c, 0, 50, 74
2, 193821, Note_on_c, 0, 50, 0
2, 193852, Note_on_c, 0, 52, 79
2, 193890, Note_on_c, 0, 69, 0
2, 193941, Note_on_c, 0, 52, 0
2, 193951, Note_on_c, 0, 54, 75
2, 194045, Note_on_c, 0, 56, 78
2, 194078, Note_on_c, 0, 54, 0
2, 194129, Note_on_c, 0, 56, 0
2, 194130, Note_on_c, 0, 57, 78
2, 194158, Control_c, 0, 64, 11
2, 194177, Control_c, 0, 64, 15
2, 194197, Control_c, 0, 64, 18
2, 194223, Note_on_c, 0, 71, 71
2, 194273, Control_c, 0, 64, 19
2, 194292, Control_c, 0, 64, 20
2, 194300, Note_on_c, 0, 69, 76
2, 194311, Control_c, 0, 64, 23
2, 194331, Control_c, 0, 64, 29
2, 194349, Control_c, 0, 64, 32
2, 194350, Note_on_c, 0, 71, 0
2, 194369, Control_c, 0, 64, 35
2, 194370, Note_on_c, 0, 67, 75
2, 194388, Control_c, 0, 64, 36
2, 194393, Note_on_c, 0, 69, 0
2, 194408, Control_c, 0, 64, 38
2, 194426, Control_c, 0, 64, 39
2, 194446, Control_c, 0, 64, 40
2, 194455, Note_on_c, 0, 67, 0
2, 194465, Control_c, 0, 64, 41
2, 194469, Note_on_c, 0, 65, 73
2, 194485, Control_c, 0, 64, 42
2, 194503, Control_c, 0, 64, 42
2, 194561, Note_on_c, 0, 64, 74
2, 194561, Note_on_c, 0, 65, 0
2, 194578, Control_c, 0, 64, 42
2, 194642, Note_on_c, 0, 62, 79
2, 194647, Note_on_c, 0, 64, 0
2, 194655, Control_c, 0, 64, 43
2, 194675, Control_c, 0, 64, 44
2, 194678, Note_on_c, 0, 57, 0
2, 194694, Control_c, 0, 64, 46
2, 194702, Note_on_c, 0, 72, 0
2, 194712, Control_c, 0, 64, 50
2, 194717, Note_on_c, 0, 62, 0
2, 194721, Note_on_c, 0, 60, 80
2, 194732, Control_c, 0, 64, 53
2, 194751, Control_c, 0, 64, 55
2, 194765, Note_on_c, 0, 60, 0
2, 194770, Control_c, 0, 64, 49
2, 194789, Control_c, 0, 64, 0
2, 194800, Note_on_c, 0, 62, 90
2, 194904, Note_on_c, 0, 71, 78
2, 194987, Note_on_c, 0, 71, 0
2, 194999, Note_on_c, 0, 72, 79
2, 195066, Note_on_c, 0, 62, 0
2, 195080, Note_on_c, 0, 74, 77
2, 195081, Control_c, 0, 64, 15
2, 195099, Control_c, 0, 64, 0
2, 195116, Note_on_c, 0, 72, 0
2, 195153, Note_on_c, 0, 74, 0
2, 195162, Note_on_c, 0, 56, 81
2, 195175, Note_on_c, 0, 59, 79
2, 195175, Note_on_c, 0, 76, 95
2, 195207, Note_on_c, 0, 59, 0
2, 195230, Note_on_c, 0, 56, 0
2, 195273, Note_on_c, 0, 78, 83
2, 195289, Note_on_c, 0, 76, 0
2, 195352, Note_on_c, 0, 57, 78
2, 195360, Note_on_c, 0, 80, 78
2, 195364, Note_on_c, 0, 54, 67
2, 195393, Note_on_c, 0, 78, 0
2, 195431, Note_on_c, 0, 57, 0
2, 195447, Note_on_c, 0, 54, 0
2, 195456, Note_on_c, 0, 81, 78
2, 195459, Note_on_c, 0, 80, 0
2, 195541, Note_on_c, 0, 52, 80
2, 195542, Note_on_c, 0, 56, 89
2, 195544, Note_on_c, 0, 83, 82
2, 195545, Note_on_c, 0, 81, 0
2, 195653, Note_on_c, 0, 81, 83
2, 195705, Note_on_c, 0, 52, 0
2, 195732, Note_on_c, 0, 80, 81
2, 195744, Note_on_c, 0, 83, 0
2, 195756, Note_on_c, 0, 81, 0
2, 195811, Note_on_c, 0, 78, 79
2, 195860, Note_on_c, 0, 80, 0
2, 195886, Control_c, 0, 64, 26
2, 195904, Note_on_c, 0, 76, 83
2, 195905, Control_c, 0, 64, 0
2, 195909, Note_on_c, 0, 50, 80
2, 195915, Note_on_c, 0, 78, 0
2, 195959, Note_on_c, 0, 50, 0
2, 195960, Note_on_c, 0, 76, 0
2, 195998, Note_on_c, 0, 74, 82
2, 196090, Note_on_c, 0, 74, 0
2, 196091, Note_on_c, 0, 72, 84
2, 196195, Note_on_c, 0, 71, 81
2, 196199, Note_on_c, 0, 72, 0
2, 196282, Note_on_c, 0, 48, 85
2, 196282, Note_on_c, 0, 57, 84
2, 196307, Note_on_c, 0, 56, 0
2, 196322, Note_on_c, 0, 76, 79
2, 196323, Note_on_c, 0, 71, 0
2, 196437, Note_on_c, 0, 74, 75
2, 196468, Note_on_c, 0, 76, 0
2, 196520, Control_c, 0, 64, 26
2, 196529, Note_on_c, 0, 72, 78
2, 196539, Control_c, 0, 64, 43
2, 196558, Control_c, 0, 64, 46
2, 196559, Note_on_c, 0, 74, 0
2, 196577, Control_c, 0, 64, 47
2, 196607, Note_on_c, 0, 71, 80
2, 196622, Note_on_c, 0, 72, 0
2, 196654, Control_c, 0, 64, 47
2, 196678, Note_on_c, 0, 71, 0
2, 196683, Note_on_c, 0, 69, 83
2, 196735, Note_on_c, 0, 69, 0
2, 196749, Control_c, 0, 64, 47
2, 196774, Note_on_c, 0, 67, 78
2, 196826, Control_c, 0, 64, 47
2, 196841, Note_on_c, 0, 57, 0
2, 196846, Control_c, 0, 64, 49
2, 196855, Note_on_c, 0, 67, 0
2, 196856, Note_on_c, 0, 65, 78
2, 196865, Control_c, 0, 64, 52
2, 196885, Control_c, 0, 64, 56
2, 196903, Control_c, 0, 64, 58
2, 196923, Control_c, 0, 64, 55
2, 196924, Note_on_c, 0, 48, 0
2, 196933, Note_on_c, 0, 65, 0
2, 196942, Control_c, 0, 64, 33
2, 196943, Note_on_c, 0, 64, 77
2, 196961, Control_c, 0, 64, 0
2, 196983, Note_on_c, 0, 64, 0
2, 196991, Note_on_c, 0, 53, 90
2, 197028, Note_on_c, 0, 69, 88
2, 197124, Note_on_c, 0, 67, 74
2, 197146, Note_on_c, 0, 69, 0
2, 197203, Note_on_c, 0, 65, 72
2, 197217, Note_on_c, 0, 67, 0
2, 197281, Note_on_c, 0, 64, 77
2, 197285, Note_on_c, 0, 65, 0
2, 197363, Note_on_c, 0, 62, 81
2, 197365, Note_on_c, 0, 64, 0
2, 197418, Note_on_c, 0, 62, 0
2, 197457, Note_on_c, 0, 60, 85
2, 197526, Note_on_c, 0, 60, 0
2, 197544, Note_on_c, 0, 59, 86
2, 197629, Note_on_c, 0, 59, 0
2, 197636, Note_on_c, 0, 57, 78
2, 197646, Note_on_c, 0, 53, 0
2, 197762, Note_on_c, 0, 57, 0
2, 197764, Note_on_c, 0, 44, 89
2, 197789, Note_on_c, 0, 65, 80
2, 197904, Note_on_c, 0, 64, 75
2, 197945, Note_on_c, 0, 65, 0
2, 197988, Note_on_c, 0, 62, 72
2, 198038, Note_on_c, 0, 64, 0
2, 198074, Note_on_c, 0, 60, 69
2, 198111, Note_on_c, 0, 62, 0
2, 198148, Note_on_c, 0, 60, 0
2, 198157, Note_on_c, 0, 59, 77
2, 198191, Note_on_c, 0, 59, 0
2, 198244, Note_on_c, 0, 57, 80
2, 198310, Note_on_c, 0, 57, 0
2, 198324, Note_on_c, 0, 56, 80
2, 198401, Note_on_c, 0, 56, 0
2, 198415, Note_on_c, 0, 54, 78
2, 198465, Note_on_c, 0, 54, 0
2, 198508, Note_on_c, 0, 62, 75
2, 198516, Note_on_c, 0, 44, 0
2, 198597, Note_on_c, 0, 60, 71
2, 198622, Note_on_c, 0, 62, 0
2, 198667, Note_on_c, 0, 59, 74
2, 198685, Note_on_c, 0, 60, 0
2, 198733, Note_on_c, 0, 59, 0
2, 198759, Note_on_c, 0, 57, 71
2, 198833, Note_on_c, 0, 57, 0
2, 198841, Note_on_c, 0, 56, 72
2, 198921, Note_on_c, 0, 54, 70
2, 198927, Note_on_c, 0, 56, 0
2, 198980, Note_on_c, 0, 54, 0
2, 198998, Note_on_c, 0, 52, 79
2, 199082, Note_on_c, 0, 52, 0
2, 199088, Note_on_c, 0, 51, 77
2, 199120, Note_on_c, 0, 51, 0
2, 199170, Note_on_c, 0, 52, 81
2, 199406, Note_on_c, 0, 52, 0
2, 199542, Note_on_c, 0, 50, 89
2, 199584, Note_on_c, 0, 50, 0
2, 199629, Note_on_c, 0, 64, 69
2, 199694, Note_on_c, 0, 64, 0
2, 199704, Note_on_c, 0, 66, 72
2, 199791, Note_on_c, 0, 68, 77
2, 199838, Note_on_c, 0, 66, 0
2, 199890, Note_on_c, 0, 68, 0
2, 199898, Note_on_c, 0, 47, 89
2, 199898, Note_on_c, 0, 69, 86
2, 199963, Note_on_c, 0, 47, 0
2, 199990, Note_on_c, 0, 69, 0
2, 200005, Note_on_c, 0, 68, 75
2, 200041, Note_on_c, 0, 68, 0
2, 200079, Note_on_c, 0, 69, 76
2, 200147, Note_on_c, 0, 69, 0
2, 200153, Note_on_c, 0, 68, 77
2, 200200, Note_on_c, 0, 68, 0
2, 200233, Note_on_c, 0, 69, 72
2, 200270, Note_on_c, 0, 52, 88
2, 200303, Note_on_c, 0, 68, 73
2, 200318, Note_on_c, 0, 52, 0
2, 200342, Note_on_c, 0, 68, 0
2, 200365, Note_on_c, 0, 69, 0
2, 200410, Note_on_c, 0, 66, 67
2, 200532, Note_on_c, 0, 68, 72
2, 200574, Note_on_c, 0, 66, 0
2, 200631, Note_on_c, 0, 48, 79
2, 200638, Note_on_c, 0, 69, 90
2, 200655, Note_on_c, 0, 68, 0
2, 200859, Control_c, 0, 64, 53
2, 200878, Control_c, 0, 64, 58
2, 200935, Control_c, 0, 64, 59
2, 200940, Note_on_c, 0, 48, 0
2, 200954, Control_c, 0, 64, 60
2, 200974, Control_c, 0, 64, 61
2, 200993, Control_c, 0, 64, 58
2, 201012, Control_c, 0, 64, 41
2, 201031, Control_c, 0, 64, 0
2, 201055, Note_on_c, 0, 45, 79
2, 201128, Control_c, 0, 64, 44
2, 201146, Control_c, 0, 64, 59
2, 201158, Note_on_c, 0, 59, 77
2, 201166, Control_c, 0, 64, 63
2, 201185, Control_c, 0, 64, 64
2, 201216, Note_on_c, 0, 45, 0
2, 201243, Control_c, 0, 64, 64
2, 201256, Note_on_c, 0, 60, 78
2, 201261, Control_c, 0, 64, 65
2, 201318, Note_on_c, 0, 59, 0
2, 201338, Control_c, 0, 64, 65
2, 201347, Note_on_c, 0, 62, 69
2, 201354, Note_on_c, 0, 60, 0
2, 201376, Control_c, 0, 64, 66
2, 201382, Note_on_c, 0, 62, 0
2, 201396, Control_c, 0, 64, 65
2, 201415, Control_c, 0, 64, 60
2, 201433, Control_c, 0, 64, 43
2, 201441, Note_on_c, 0, 40, 84
2, 201453, Control_c, 0, 64, 0
2, 201454, Note_on_c, 0, 62, 80
2, 201545, Note_on_c, 0, 62, 0
2, 201567, Note_on_c, 0, 61, 69
2, 201568, Control_c, 0, 64, 42
2, 201587, Control_c, 0, 64, 57
2, 201607, Control_c, 0, 64, 62
2, 201616, Note_on_c, 0, 61, 0
2, 201625, Control_c, 0, 64, 64
2, 201640, Note_on_c, 0, 62, 67
2, 201645, Control_c, 0, 64, 65
2, 201664, Control_c, 0, 64, 66
2, 201684, Control_c, 0, 64, 65
2, 201702, Control_c, 0, 64, 64
2, 201711, Note_on_c, 0, 62, 0
2, 201714, Note_on_c, 0, 40, 0
2, 201722, Control_c, 0, 64, 58
2, 201731, Note_on_c, 0, 61, 69
2, 201741, Control_c, 0, 64, 47
2, 201766, Control_c, 0, 64, 37
2, 201772, Note_on_c, 0, 61, 0
2, 201785, Control_c, 0, 64, 36
2, 201798, Note_on_c, 0, 62, 54
2, 201841, Note_on_c, 0, 62, 0
2, 201843, Note_on_c, 0, 43, 78
2, 201845, Note_on_c, 0, 61, 71
2, 201881, Control_c, 0, 64, 35
2, 201891, Note_on_c, 0, 61, 0
2, 201900, Control_c, 0, 64, 34
2, 201905, Note_on_c, 0, 62, 76
2, 201986, Note_on_c, 0, 61, 82
2, 201988, Note_on_c, 0, 62, 0
2, 202037, Note_on_c, 0, 69, 0
2, 202054, Control_c, 0, 64, 34
2, 202059, Note_on_c, 0, 61, 0
2, 202060, Note_on_c, 0, 59, 77
2, 202073, Control_c, 0, 64, 36
2, 202092, Control_c, 0, 64, 39
2, 202111, Control_c, 0, 64, 40
2, 202131, Control_c, 0, 64, 41
2, 202149, Control_c, 0, 64, 37
2, 202149, Note_on_c, 0, 59, 0
2, 202156, Note_on_c, 0, 61, 82
2, 202169, Control_c, 0, 64, 0
2, 202229, Note_on_c, 0, 61, 0
2, 202238, Note_on_c, 0, 43, 0
2, 202262, Note_on_c, 0, 62, 83
2, 202263, Note_on_c, 0, 41, 73
2, 202381, Note_on_c, 0, 40, 79
2, 202394, Note_on_c, 0, 41, 0
2, 202495, Note_on_c, 0, 38, 89
2, 202509, Note_on_c, 0, 40, 0
2, 202730, Note_on_c, 0, 71, 86
2, 202735, Note_on_c, 0, 65, 78
2, 202761, Note_on_c, 0, 62, 0
2, 202817, Control_c, 0, 64, 50
2, 202837, Control_c, 0, 64, 61
2, 202855, Control_c, 0, 64, 63
2, 202874, Control_c, 0, 64, 64
2, 202894, Control_c, 0, 64, 64
2, 202913, Control_c, 0, 64, 65
2, 202932, Control_c, 0, 64, 67
2, 202951, Control_c, 0, 64, 69
2, 202966, Note_on_c, 0, 65, 0
2, 202971, Control_c, 0, 64, 70
2, 202979, Note_on_c, 0, 40, 72
2, 202989, Control_c, 0, 64, 71
2, 202994, Note_on_c, 0, 38, 0
2, 203048, Control_c, 0, 64, 72
2, 203066, Control_c, 0, 64, 73
2, 203071, Note_on_c, 0, 41, 84
2, 203086, Control_c, 0, 64, 76
2, 203087, Note_on_c, 0, 40, 0
2, 203105, Control_c, 0, 64, 77
2, 203125, Control_c, 0, 64, 78
2, 203143, Control_c, 0, 64, 76
2, 203163, Control_c, 0, 64, 70
2, 203182, Control_c, 0, 64, 59
2, 203191, Note_on_c, 0, 64, 80
2, 203200, Control_c, 0, 64, 38
2, 203200, Note_on_c, 0, 38, 82
2, 203202, Note_on_c, 0, 56, 81
2, 203203, Note_on_c, 0, 41, 0
2, 203214, Note_on_c, 0, 71, 0
2, 203219, Control_c, 0, 64, 0
2, 203353, Control_c, 0, 64, 9
2, 203373, Control_c, 0, 64, 39
2, 203382, Note_on_c, 0, 38, 0
2, 203385, Note_on_c, 0, 40, 67
2, 203392, Control_c, 0, 64, 52
2, 203411, Control_c, 0, 64, 56
2, 203430, Control_c, 0, 64, 57
2, 203443, Note_on_c, 0, 40, 0
2, 203448, Note_on_c, 0, 56, 0
2, 203450, Control_c, 0, 64, 58
2, 203455, Note_on_c, 0, 41, 71
2, 203469, Control_c, 0, 64, 59
2, 203488, Control_c, 0, 64, 60
2, 203507, Control_c, 0, 64, 61
2, 203517, Note_on_c, 0, 41, 0
2, 203538, Note_on_c, 0, 40, 75
2, 203602, Note_on_c, 0, 40, 0
2, 203604, Control_c, 0, 64, 61
2, 203617, Note_on_c, 0, 41, 75
2, 203683, Note_on_c, 0, 41, 0
2, 203702, Note_on_c, 0, 40, 71
2, 203718, Control_c, 0, 64, 61
2, 203753, Note_on_c, 0, 40, 0
2, 203755, Control_c, 0, 64, 62
2, 203762, Note_on_c, 0, 41, 73
2, 203774, Note_on_c, 0, 68, 89
2, 203775, Control_c, 0, 64, 62
2, 203778, Note_on_c, 0, 59, 74
2, 203814, Control_c, 0, 64, 63
2, 203825, Note_on_c, 0, 41, 0
2, 203833, Note_on_c, 0, 40, 75
2, 203862, Note_on_c, 0, 64, 0
2, 203890, Note_on_c, 0, 40, 0
2, 203906, Note_on_c, 0, 41, 62
2, 203909, Control_c, 0, 64, 63
2, 203986, Note_on_c, 0, 41, 0
2, 203993, Note_on_c, 0, 40, 82
2, 204025, Control_c, 0, 64, 63
2, 204083, Control_c, 0, 64, 62
2, 204101, Control_c, 0, 64, 62
2, 204102, Note_on_c, 0, 38, 93
2, 204125, Note_on_c, 0, 40, 0
2, 204136, Control_c, 0, 64, 61
2, 204175, Control_c, 0, 64, 61
2, 204232, Control_c, 0, 64, 60
2, 204270, Control_c, 0, 64, 60
2, 204295, Note_on_c, 0, 40, 85
2, 204319, Note_on_c, 0, 59, 0
2, 204325, Note_on_c, 0, 38, 0
2, 204347, Control_c, 0, 64, 59
2, 204367, Control_c, 0, 64, 59
2, 204385, Control_c, 0, 64, 58
2, 204405, Control_c, 0, 64, 58
2, 204424, Control_c, 0, 64, 57
2, 204444, Control_c, 0, 64, 57
2, 204462, Control_c, 0, 64, 56
2, 204501, Control_c, 0, 64, 56
2, 204520, Control_c, 0, 64, 55
2, 204522, Note_on_c, 0, 40, 0
2, 204527, Note_on_c, 0, 33, 76
2, 204539, Control_c, 0, 64, 54
2, 204559, Control_c, 0, 64, 52
2, 204578, Control_c, 0, 64, 51
2, 204579, Note_on_c, 0, 68, 0
2, 204597, Control_c, 0, 64, 49
2, 204616, Control_c, 0, 64, 47
2, 204633, Control_c, 0, 64, 45
2, 204656, Control_c, 0, 64, 44
2, 204676, Control_c, 0, 64, 44
2, 204695, Control_c, 0, 64, 42
2, 204714, Control_c, 0, 64, 39
2, 204733, Control_c, 0, 64, 35
2, 204751, Note_on_c, 0, 45, 81
2, 204753, Control_c, 0, 64, 30
2, 204772, Control_c, 0, 64, 27
2, 204791, Control_c, 0, 64, 25
2, 204810, Control_c, 0, 64, 23
2, 204830, Control_c, 0, 64, 19
2, 204848, Control_c, 0, 64, 15
2, 204868, Control_c, 0, 64, 13
2, 204872, Note_on_c, 0, 61, 73
2, 204887, Control_c, 0, 64, 9
2, 204907, Control_c, 0, 64, 0
2, 204961, Note_on_c, 0, 64, 72
2, 205043, Note_on_c, 0, 69, 75
2, 205129, Note_on_c, 0, 68, 80
2, 205138, Note_on_c, 0, 69, 0
2, 205207, Note_on_c, 0, 69, 91
2, 205227, Note_on_c, 0, 68, 0
2, 206589, Control_c, 0, 64, 38
2, 206609, Control_c, 0, 64, 51
2, 206627, Control_c, 0, 64, 58
2, 206647, Control_c, 0, 64, 62
2, 206666, Control_c, 0, 64, 64
2, 206686, Control_c, 0, 64, 67
2, 206704, Control_c, 0, 64, 70
2, 206724, Control_c, 0, 64, 74
2, 206743, Control_c, 0, 64, 77
2, 206761, Control_c, 0, 64, 80
2, 206781, Control_c, 0, 64, 84
2, 206800, Control_c, 0, 64, 90
2, 206820, Control_c, 0, 64, 95
2, 206838, Control_c, 0, 64, 99
2, 206858, Control_c, 0, 64, 104
2, 206877, Control_c, 0, 64, 127
2, 206963, Note_on_c, 0, 33, 0
2, 206972, Note_on_c, 0, 69, 0
2, 206998, Note_on_c, 0, 45, 0
2, 207000, Note_on_c, 0, 61, 0
2, 207017, Note_on_c, 0, 64, 0
2, 207107, Control_c, 0, 64, 116
2, 207127, Control_c, 0, 64, 98
2, 207146, Control_c, 0, 64, 89
2, 207166, Control_c, 0, 64, 79
2, 207184, Control_c, 0, 64, 73
2, 207204, Control_c, 0, 64, 69
2, 207220, Control_c, 0, 64, 67
2, 207239, Control_c, 0, 64, 67
2, 207258, Control_c, 0, 64, 66
2, 207278, Control_c, 0, 64, 64
2, 207297, Control_c, 0, 64, 63
2, 207316, Control_c, 0, 64, 61
2, 207332, Control_c, 0, 64, 60
2, 207352, Control_c, 0, 64, 60
2, 207371, Control_c, 0, 64, 59
2, 207390, Control_c, 0, 64, 59
2, 207409, Control_c, 0, 64, 58
2, 207429, Control_c, 0, 64, 55
2, 207447, Control_c, 0, 64, 54
2, 207467, Control_c, 0, 64, 53
2, 207506, Control_c, 0, 64, 53
2, 207602, Control_c, 0, 64, 53
2, 207641, Control_c, 0, 64, 54
2, 207833, Control_c, 0, 64, 53
2, 208139, Control_c, 0, 64, 54
2, 208178, Control_c, 0, 64, 54
2, 208236, Control_c, 0, 64, 55
2, 208237, End_track
0, 0, End_of_file
