0, 0, Header, 1, 2, 480
1, 0, Start_track
1, 0, Tempo, 500000
1, 0, Time_signature, 4, 2, 24, 8
1, 1, End_track
2, 0, Start_track
2, 0, Program_c, 0, 0
2, 0, Control_c, 0, 64, 127
2, 0, Control_c, 0, 67, 0
2, 448, Control_c, 0, 64, 123
2, 468, Control_c, 0, 64, 121
2, 487, Control_c, 0, 64, 118
2, 506, Control_c, 0, 64, 116
2, 525, Control_c, 0, 64, 114
2, 545, Control_c, 0, 64, 113
2, 564, Control_c, 0, 64, 112
2, 583, Control_c, 0, 64, 111
2, 602, Control_c, 0, 64, 110
2, 622, Control_c, 0, 64, 109
2, 640, Control_c, 0, 64, 108
2, 659, Control_c, 0, 64, 107
2, 679, Control_c, 0, 64, 106
2, 698, Control_c, 0, 64, 105
2, 717, Control_c, 0, 64, 104
2, 736, Control_c, 0, 64, 102
2, 764, Control_c, 0, 64, 100
2, 783, Control_c, 0, 64, 98
2, 802, Control_c, 0, 64, 96
2, 822, Control_c, 0, 64, 93
2, 841, Control_c, 0, 64, 89
2, 842, Note_on_c, 0, 45, 42
2, 860, Control_c, 0, 64, 86
2, 879, Control_c, 0, 64, 82
2, 899, Control_c, 0, 64, 79
2, 917, Control_c, 0, 64, 77
2, 937, Control_c, 0, 64, 75
2, 956, Control_c, 0, 64, 74
2, 968, Note_on_c, 0, 72, 54
2, 976, Control_c, 0, 64, 73
2, 994, Control_c, 0, 64, 71
2, 1013, Control_c, 0, 64, 70
2, 1033, Control_c, 0, 64, 69
2, 1052, Control_c, 0, 64, 68
2, 1063, Note_on_c, 0, 74, 57
2, 1071, Control_c, 0, 64, 67
2, 1085, Note_on_c, 0, 72, 0
2, 1090, Control_c, 0, 64, 66
2, 1110, Control_c, 0, 64, 66
2, 1149, Control_c, 0, 64, 65
2, 1153, Note_on_c, 0, 76, 66
2, 1168, Control_c, 0, 64, 65
2, 1171, Note_on_c, 0, 74, 0
2, 1187, Control_c, 0, 64, 64
2, 1206, Control_c, 0, 64, 64
2, 1245, Control_c, 0, 64, 63
2, 1246, Note_on_c, 0, 77, 71
2, 1252, Note_on_c, 0, 57, 50
2, 1264, Note_on_c, 0, 76, 0
2, 1283, Control_c, 0, 64, 63
2, 1303, Control_c, 0, 64, 62
2, 1322, Control_c, 0, 64, 61
2, 1341, Control_c, 0, 64, 60
2, 1360, Control_c, 0, 64, 59
2, 1380, Control_c, 0, 64, 58
2, 1398, Control_c, 0, 64, 56
2, 1418, Control_c, 0, 64, 54
2, 1437, Control_c, 0, 64, 49
2, 1457, Control_c, 0, 64, 40
2, 1475, Control_c, 0, 64, 26
2, 1484, Note_on_c, 0, 72, 73
2, 1495, Control_c, 0, 64, 0
2, 1682, Note_on_c, 0, 56, 55
2, 1705, Note_on_c, 0, 71, 74
2, 1708, Note_on_c, 0, 45, 0
2, 1772, Note_on_c, 0, 72, 0
2, 1897, Note_on_c, 0, 57, 0
2, 1905, Note_on_c, 0, 75, 75
2, 1965, Note_on_c, 0, 77, 0
2, 1988, Note_on_c, 0, 71, 0
2, 2127, Note_on_c, 0, 55, 53
2, 2129, Note_on_c, 0, 76, 70
2, 2171, Note_on_c, 0, 56, 0
2, 2226, Note_on_c, 0, 75, 0
2, 2327, Note_on_c, 0, 70, 75
2, 2536, Note_on_c, 0, 69, 68
2, 2551, Note_on_c, 0, 54, 47
2, 2596, Note_on_c, 0, 70, 0
2, 2703, Note_on_c, 0, 76, 0
2, 2726, Note_on_c, 0, 55, 0
2, 2742, Note_on_c, 0, 73, 64
2, 2906, Note_on_c, 0, 69, 0
2, 2955, Note_on_c, 0, 74, 53
2, 2986, Note_on_c, 0, 53, 38
2, 3067, Note_on_c, 0, 73, 0
2, 3150, Note_on_c, 0, 54, 0
2, 3174, Note_on_c, 0, 68, 62
2, 3310, Note_on_c, 0, 74, 0
2, 3391, Note_on_c, 0, 52, 50
2, 3573, Note_on_c, 0, 53, 0
2, 3607, Note_on_c, 0, 69, 75
2, 3786, Note_on_c, 0, 68, 0
2, 3822, Note_on_c, 0, 50, 59
2, 3960, Note_on_c, 0, 52, 0
2, 4042, Note_on_c, 0, 71, 76
2, 4125, Note_on_c, 0, 69, 0
2, 4319, Note_on_c, 0, 64, 63
2, 4384, Note_on_c, 0, 71, 0
2, 4394, Note_on_c, 0, 48, 54
2, 4395, Note_on_c, 0, 50, 0
2, 4509, Note_on_c, 0, 50, 65
2, 4562, Note_on_c, 0, 48, 0
2, 4595, Note_on_c, 0, 52, 70
2, 4634, Note_on_c, 0, 50, 0
2, 4716, Note_on_c, 0, 69, 72
2, 4717, Note_on_c, 0, 53, 57
2, 4730, Note_on_c, 0, 52, 0
2, 4783, Note_on_c, 0, 64, 0
2, 4928, Note_on_c, 0, 48, 63
2, 5125, Note_on_c, 0, 53, 0
2, 5145, Note_on_c, 0, 47, 58
2, 5161, Note_on_c, 0, 48, 0
2, 5161, Note_on_c, 0, 68, 70
2, 5249, Note_on_c, 0, 69, 0
2, 5364, Note_on_c, 0, 51, 50
2, 5435, Note_on_c, 0, 47, 0
2, 5579, Note_on_c, 0, 67, 55
2, 5583, Note_on_c, 0, 52, 35
2, 5656, Note_on_c, 0, 68, 0
2, 5796, Note_on_c, 0, 46, 51
2, 5948, Note_on_c, 0, 51, 0
2, 6027, Note_on_c, 0, 45, 46
2, 6030, Note_on_c, 0, 46, 0
2, 6031, Note_on_c, 0, 66, 59
2, 6076, Note_on_c, 0, 52, 0
2, 6098, Note_on_c, 0, 67, 0
2, 6239, Control_c, 0, 67, 14
2, 6246, Note_on_c, 0, 49, 53
2, 6258, Control_c, 0, 67, 22
2, 6277, Control_c, 0, 67, 27
2, 6296, Control_c, 0, 67, 32
2, 6316, Control_c, 0, 67, 36
2, 6335, Control_c, 0, 67, 38
2, 6354, Control_c, 0, 67, 43
2, 6373, Control_c, 0, 67, 51
2, 6391, Control_c, 0, 67, 57
2, 6410, Control_c, 0, 67, 61
2, 6429, Control_c, 0, 67, 63
2, 6448, Control_c, 0, 67, 64
2, 6451, Note_on_c, 0, 65, 50
2, 6457, Note_on_c, 0, 50, 42
2, 6468, Control_c, 0, 67, 65
2, 6485, Note_on_c, 0, 45, 0
2, 6486, Control_c, 0, 67, 67
2, 6505, Control_c, 0, 67, 72
2, 6511, Note_on_c, 0, 66, 0
2, 6525, Control_c, 0, 67, 75
2, 6536, Note_on_c, 0, 49, 0
2, 6544, Control_c, 0, 67, 75
2, 6582, Control_c, 0, 67, 73
2, 6602, Control_c, 0, 67, 72
2, 6640, Control_c, 0, 67, 71
2, 6659, Control_c, 0, 67, 71
2, 6677, Note_on_c, 0, 44, 50
2, 6679, Control_c, 0, 67, 70
2, 6697, Control_c, 0, 67, 69
2, 6717, Control_c, 0, 67, 68
2, 6736, Control_c, 0, 67, 67
2, 6739, Note_on_c, 0, 50, 0
2, 6794, Control_c, 0, 67, 66
2, 6813, Control_c, 0, 67, 66
2, 6832, Control_c, 0, 67, 65
2, 6910, Control_c, 0, 67, 64
2, 6920, Note_on_c, 0, 64, 47
2, 6929, Control_c, 0, 67, 64
2, 6949, Control_c, 0, 67, 63
2, 6983, Note_on_c, 0, 65, 0
2, 7024, Control_c, 0, 67, 63
2, 7063, Control_c, 0, 67, 62
2, 7083, Control_c, 0, 67, 62
2, 7101, Control_c, 0, 67, 61
2, 7114, Note_on_c, 0, 45, 46
2, 7130, Note_on_c, 0, 44, 0
2, 7303, Note_on_c, 0, 64, 0
2, 7332, Control_c, 0, 67, 61
2, 7352, Control_c, 0, 67, 60
2, 7355, Note_on_c, 0, 62, 50
2, 7429, Control_c, 0, 67, 60
2, 7561, Note_on_c, 0, 47, 36
2, 7631, Note_on_c, 0, 45, 0
2, 7716, Control_c, 0, 67, 59
2, 7735, Control_c, 0, 67, 59
2, 7755, Control_c, 0, 67, 58
2, 7775, Note_on_c, 0, 40, 46
2, 7793, Control_c, 0, 67, 58
2, 7808, Note_on_c, 0, 47, 0
2, 7812, Control_c, 0, 67, 53
2, 7832, Control_c, 0, 67, 50
2, 7850, Control_c, 0, 67, 48
2, 7870, Control_c, 0, 67, 46
2, 7889, Control_c, 0, 67, 45
2, 7909, Control_c, 0, 67, 44
2, 7927, Control_c, 0, 67, 44
2, 7946, Control_c, 0, 67, 43
2, 7955, Note_on_c, 0, 62, 0
2, 7966, Control_c, 0, 67, 42
2, 7984, Control_c, 0, 67, 41
2, 8004, Control_c, 0, 67, 40
2, 8006, Note_on_c, 0, 60, 56
2, 8023, Control_c, 0, 67, 39
2, 8069, Note_on_c, 0, 60, 0
2, 8101, Note_on_c, 0, 59, 59
2, 8120, Control_c, 0, 67, 39
2, 8158, Control_c, 0, 67, 38
2, 8163, Note_on_c, 0, 59, 0
2, 8177, Control_c, 0, 67, 38
2, 8185, Note_on_c, 0, 45, 43
2, 8193, Note_on_c, 0, 60, 57
2, 8214, Note_on_c, 0, 40, 0
2, 8215, Control_c, 0, 67, 37
2, 8235, Control_c, 0, 67, 37
2, 8254, Control_c, 0, 67, 36
2, 8273, Control_c, 0, 67, 34
2, 8292, Control_c, 0, 67, 33
2, 8312, Control_c, 0, 67, 32
2, 8326, Note_on_c, 0, 60, 0
2, 8330, Control_c, 0, 67, 31
2, 8350, Control_c, 0, 67, 30
2, 8369, Control_c, 0, 67, 30
2, 8389, Control_c, 0, 67, 29
2, 8446, Control_c, 0, 67, 28
2, 8464, Control_c, 0, 67, 28
2, 8484, Control_c, 0, 67, 27
2, 8485, Note_on_c, 0, 69, 61
2, 8503, Control_c, 0, 67, 25
2, 8523, Control_c, 0, 67, 24
2, 8541, Control_c, 0, 67, 22
2, 8561, Control_c, 0, 67, 21
2, 8580, Control_c, 0, 67, 20
2, 8600, Control_c, 0, 67, 19
2, 8618, Control_c, 0, 67, 18
2, 8638, Control_c, 0, 67, 16
2, 8657, Control_c, 0, 67, 15
2, 8676, Control_c, 0, 67, 12
2, 8680, Note_on_c, 0, 47, 48
2, 8695, Control_c, 0, 67, 8
2, 8715, Control_c, 0, 67, 0
2, 8763, Note_on_c, 0, 45, 0
2, 8917, Note_on_c, 0, 68, 75
2, 8936, Note_on_c, 0, 69, 0
2, 9115, Note_on_c, 0, 49, 54
2, 9145, Note_on_c, 0, 76, 62
2, 9153, Note_on_c, 0, 47, 0
2, 9292, Note_on_c, 0, 76, 0
2, 9360, Note_on_c, 0, 68, 0
2, 9375, Note_on_c, 0, 67, 47
2, 9567, Note_on_c, 0, 50, 45
2, 9644, Note_on_c, 0, 49, 0
2, 9708, Note_on_c, 0, 67, 0
2, 9801, Note_on_c, 0, 65, 59
2, 9866, Note_on_c, 0, 65, 0
2, 9896, Note_on_c, 0, 64, 71
2, 9974, Note_on_c, 0, 64, 0
2, 9980, Note_on_c, 0, 63, 69
2, 9992, Note_on_c, 0, 47, 58
2, 10002, Note_on_c, 0, 50, 0
2, 10161, Note_on_c, 0, 63, 0
2, 10222, Note_on_c, 0, 71, 74
2, 10421, Note_on_c, 0, 49, 67
2, 10513, Note_on_c, 0, 47, 0
2, 10622, Note_on_c, 0, 71, 0
2, 10637, Note_on_c, 0, 70, 82
2, 10880, Note_on_c, 0, 78, 73
2, 10887, Note_on_c, 0, 51, 56
2, 11085, Note_on_c, 0, 49, 0
2, 11114, Note_on_c, 0, 69, 65
2, 11177, Note_on_c, 0, 78, 0
2, 11211, Note_on_c, 0, 70, 0
2, 11357, Note_on_c, 0, 52, 59
2, 11411, Note_on_c, 0, 51, 0
2, 11440, Note_on_c, 0, 69, 0
2, 11454, Note_on_c, 0, 67, 67
2, 11565, Note_on_c, 0, 69, 78
2, 11594, Note_on_c, 0, 67, 0
2, 11652, Note_on_c, 0, 71, 76
2, 11676, Note_on_c, 0, 69, 0
2, 11771, Note_on_c, 0, 72, 71
2, 11784, Note_on_c, 0, 64, 69
2, 11792, Note_on_c, 0, 71, 0
2, 12056, Note_on_c, 0, 67, 68
2, 12071, Note_on_c, 0, 52, 0
2, 12281, Note_on_c, 0, 63, 59
2, 12285, Note_on_c, 0, 66, 70
2, 12333, Note_on_c, 0, 67, 0
2, 12479, Note_on_c, 0, 72, 0
2, 12500, Note_on_c, 0, 70, 72
2, 12539, Note_on_c, 0, 64, 0
2, 12669, Note_on_c, 0, 66, 0
2, 12690, Note_on_c, 0, 71, 73
2, 12718, Note_on_c, 0, 62, 56
2, 12741, Note_on_c, 0, 70, 0
2, 12877, Note_on_c, 0, 63, 0
2, 12910, Note_on_c, 0, 65, 71
2, 13123, Note_on_c, 0, 61, 58
2, 13142, Note_on_c, 0, 64, 69
2, 13175, Note_on_c, 0, 65, 0
2, 13292, Note_on_c, 0, 62, 0
2, 13343, Note_on_c, 0, 68, 73
2, 13364, Note_on_c, 0, 71, 0
2, 13443, Note_on_c, 0, 64, 0
2, 13553, Note_on_c, 0, 60, 49
2, 13565, Note_on_c, 0, 69, 68
2, 13606, Note_on_c, 0, 68, 0
2, 13672, Note_on_c, 0, 61, 0
2, 13798, Note_on_c, 0, 63, 62
2, 13869, Note_on_c, 0, 69, 0
2, 13984, Note_on_c, 0, 59, 56
2, 14169, Note_on_c, 0, 60, 0
2, 14203, Note_on_c, 0, 64, 64
2, 14226, Note_on_c, 0, 63, 0
2, 14424, Note_on_c, 0, 57, 57
2, 14466, Note_on_c, 0, 59, 0
2, 14650, Note_on_c, 0, 66, 69
2, 14702, Note_on_c, 0, 64, 0
2, 14801, Control_c, 0, 67, 9
2, 14820, Control_c, 0, 67, 11
2, 14840, Control_c, 0, 67, 13
2, 14855, Note_on_c, 0, 66, 0
2, 14858, Control_c, 0, 67, 15
2, 14865, Note_on_c, 0, 59, 69
2, 14878, Control_c, 0, 67, 17
2, 14897, Control_c, 0, 64, 11
2, 14897, Control_c, 0, 67, 19
2, 14916, Control_c, 0, 64, 51
2, 14916, Control_c, 0, 67, 20
2, 14918, Note_on_c, 0, 57, 0
2, 14935, Control_c, 0, 64, 61
2, 14935, Control_c, 0, 67, 21
2, 14947, Note_on_c, 0, 55, 57
2, 14955, Control_c, 0, 64, 63
2, 14955, Control_c, 0, 67, 22
2, 14974, Control_c, 0, 64, 64
2, 14974, Control_c, 0, 67, 24
2, 14993, Control_c, 0, 67, 26
2, 15012, Control_c, 0, 67, 29
2, 15033, Control_c, 0, 67, 32
2, 15051, Control_c, 0, 64, 64
2, 15051, Control_c, 0, 67, 33
2, 15057, Note_on_c, 0, 57, 72
2, 15063, Note_on_c, 0, 59, 0
2, 15071, Control_c, 0, 67, 34
2, 15072, Note_on_c, 0, 55, 0
2, 15090, Control_c, 0, 64, 64
2, 15128, Control_c, 0, 64, 63
2, 15142, Note_on_c, 0, 57, 0
2, 15143, Note_on_c, 0, 59, 72
2, 15147, Control_c, 0, 64, 63
2, 15147, Control_c, 0, 67, 34
2, 15167, Control_c, 0, 64, 62
2, 15167, Control_c, 0, 67, 35
2, 15185, Control_c, 0, 64, 62
2, 15205, Control_c, 0, 64, 60
2, 15224, Control_c, 0, 64, 56
2, 15224, Control_c, 0, 67, 34
2, 15240, Note_on_c, 0, 59, 0
2, 15244, Control_c, 0, 64, 50
2, 15259, Note_on_c, 0, 60, 57
2, 15262, Control_c, 0, 64, 44
2, 15275, Note_on_c, 0, 76, 74
2, 15282, Control_c, 0, 64, 30
2, 15301, Control_c, 0, 64, 0
2, 15455, Control_c, 0, 67, 34
2, 15487, Note_on_c, 0, 55, 63
2, 15658, Note_on_c, 0, 60, 0
2, 15698, Note_on_c, 0, 75, 69
2, 15704, Control_c, 0, 67, 34
2, 15720, Note_on_c, 0, 54, 54
2, 15741, Note_on_c, 0, 55, 0
2, 15742, Control_c, 0, 67, 35
2, 15819, Control_c, 0, 67, 36
2, 15834, Note_on_c, 0, 76, 0
2, 15839, Control_c, 0, 67, 36
2, 15858, Control_c, 0, 67, 37
2, 15938, Note_on_c, 0, 58, 60
2, 16007, Note_on_c, 0, 54, 0
2, 16049, Control_c, 0, 67, 36
2, 16133, Note_on_c, 0, 74, 60
2, 16145, Note_on_c, 0, 59, 56
2, 16197, Note_on_c, 0, 75, 0
2, 16260, Control_c, 0, 67, 37
2, 16303, Note_on_c, 0, 58, 0
2, 16351, Note_on_c, 0, 53, 55
2, 16356, Control_c, 0, 67, 36
2, 16490, Control_c, 0, 67, 36
2, 16510, Control_c, 0, 67, 35
2, 16529, Control_c, 0, 67, 34
2, 16549, Control_c, 0, 67, 33
2, 16549, Note_on_c, 0, 59, 0
2, 16559, Note_on_c, 0, 53, 0
2, 16567, Control_c, 0, 67, 32
2, 16573, Note_on_c, 0, 52, 48
2, 16575, Note_on_c, 0, 73, 60
2, 16625, Control_c, 0, 67, 32
2, 16649, Note_on_c, 0, 74, 0
2, 16778, Control_c, 0, 67, 31
2, 16788, Note_on_c, 0, 56, 52
2, 16913, Note_on_c, 0, 52, 0
2, 17004, Note_on_c, 0, 57, 43
2, 17015, Note_on_c, 0, 72, 58
2, 17028, Control_c, 0, 67, 31
2, 17055, Note_on_c, 0, 73, 0
2, 17090, Note_on_c, 0, 56, 0
2, 17223, Note_on_c, 0, 51, 47
2, 17258, Control_c, 0, 67, 30
2, 17265, Note_on_c, 0, 57, 0
2, 17278, Control_c, 0, 67, 30
2, 17297, Control_c, 0, 67, 29
2, 17335, Control_c, 0, 67, 29
2, 17432, Control_c, 0, 67, 28
2, 17452, Note_on_c, 0, 71, 53
2, 17467, Note_on_c, 0, 72, 0
2, 17567, Control_c, 0, 67, 28
2, 17685, Note_on_c, 0, 52, 41
2, 17720, Control_c, 0, 67, 27
2, 17739, Note_on_c, 0, 51, 0
2, 17795, Note_on_c, 0, 71, 0
2, 17797, Control_c, 0, 67, 27
2, 17836, Control_c, 0, 67, 26
2, 17874, Control_c, 0, 67, 26
2, 17903, Note_on_c, 0, 69, 51
2, 17913, Control_c, 0, 67, 25
2, 17970, Control_c, 0, 67, 25
2, 17990, Control_c, 0, 67, 24
2, 18008, Control_c, 0, 67, 24
2, 18065, Control_c, 0, 67, 23
2, 18085, Control_c, 0, 67, 23
2, 18100, Note_on_c, 0, 54, 47
2, 18104, Control_c, 0, 67, 22
2, 18124, Control_c, 0, 67, 22
2, 18162, Control_c, 0, 67, 21
2, 18162, Note_on_c, 0, 52, 0
2, 18181, Control_c, 0, 67, 20
2, 18219, Control_c, 0, 67, 19
2, 18239, Control_c, 0, 67, 17
2, 18258, Control_c, 0, 67, 15
2, 18277, Control_c, 0, 67, 13
2, 18296, Control_c, 0, 67, 11
2, 18316, Control_c, 0, 67, 9
2, 18322, Note_on_c, 0, 54, 0
2, 18334, Note_on_c, 0, 47, 48
2, 18335, Control_c, 0, 67, 0
2, 18542, Note_on_c, 0, 69, 0
2, 18575, Note_on_c, 0, 67, 52
2, 18653, Note_on_c, 0, 67, 0
2, 18673, Note_on_c, 0, 66, 63
2, 18752, Note_on_c, 0, 66, 0
2, 18758, Note_on_c, 0, 52, 51
2, 18772, Note_on_c, 0, 67, 58
2, 18785, Note_on_c, 0, 47, 0
2, 18859, Note_on_c, 0, 67, 0
2, 19055, Note_on_c, 0, 76, 60
2, 19274, Note_on_c, 0, 54, 56
2, 19342, Note_on_c, 0, 52, 0
2, 19477, Note_on_c, 0, 75, 77
2, 19511, Note_on_c, 0, 76, 0
2, 19688, Note_on_c, 0, 83, 72
2, 19691, Note_on_c, 0, 56, 56
2, 19728, Note_on_c, 0, 54, 0
2, 19824, Note_on_c, 0, 83, 0
2, 19883, Note_on_c, 0, 75, 0
2, 19912, Note_on_c, 0, 74, 62
2, 20101, Note_on_c, 0, 56, 0
2, 20126, Note_on_c, 0, 57, 60
2, 20178, Note_on_c, 0, 57, 0
2, 20290, Note_on_c, 0, 74, 0
2, 20343, Note_on_c, 0, 72, 56
2, 20345, Note_on_c, 0, 45, 59
2, 20385, Note_on_c, 0, 45, 0
2, 20424, Note_on_c, 0, 72, 0
2, 20436, Note_on_c, 0, 71, 66
2, 20511, Note_on_c, 0, 71, 0
2, 20546, Note_on_c, 0, 57, 61
2, 20548, Note_on_c, 0, 72, 59
2, 20788, Note_on_c, 0, 69, 64
2, 21006, Note_on_c, 0, 71, 73
2, 21037, Note_on_c, 0, 72, 0
2, 21169, Note_on_c, 0, 69, 0
2, 21230, Note_on_c, 0, 56, 72
2, 21265, Note_on_c, 0, 57, 0
2, 21457, Note_on_c, 0, 73, 76
2, 21464, Note_on_c, 0, 64, 59
2, 21605, Note_on_c, 0, 71, 0
2, 21618, Note_on_c, 0, 56, 0
2, 21662, Note_on_c, 0, 55, 68
2, 21755, Note_on_c, 0, 64, 0
2, 21889, Note_on_c, 0, 74, 72
2, 21925, Note_on_c, 0, 73, 0
2, 21960, Note_on_c, 0, 74, 0
2, 22097, Note_on_c, 0, 54, 55
2, 22119, Note_on_c, 0, 62, 72
2, 22134, Note_on_c, 0, 55, 0
2, 22191, Note_on_c, 0, 54, 0
2, 22192, Note_on_c, 0, 62, 0
2, 22220, Note_on_c, 0, 52, 54
2, 22336, Note_on_c, 0, 52, 0
2, 22344, Note_on_c, 0, 74, 74
2, 22349, Note_on_c, 0, 54, 61
2, 22568, Note_on_c, 0, 50, 59
2, 22587, Note_on_c, 0, 54, 0
2, 22789, Note_on_c, 0, 52, 68
2, 22831, Note_on_c, 0, 50, 0
2, 23033, Note_on_c, 0, 73, 75
2, 23060, Note_on_c, 0, 74, 0
2, 23251, Note_on_c, 0, 54, 59
2, 23266, Note_on_c, 0, 81, 67
2, 23282, Note_on_c, 0, 52, 0
2, 23483, Note_on_c, 0, 72, 68
2, 23519, Note_on_c, 0, 81, 0
2, 23574, Note_on_c, 0, 73, 0
2, 23651, Note_on_c, 0, 54, 0
2, 23687, Note_on_c, 0, 55, 57
2, 23754, Note_on_c, 0, 55, 0
2, 23889, Note_on_c, 0, 72, 0
2, 23917, Note_on_c, 0, 43, 54
2, 23934, Note_on_c, 0, 71, 56
2, 23969, Note_on_c, 0, 43, 0
2, 24004, Note_on_c, 0, 71, 0
2, 24041, Note_on_c, 0, 69, 58
2, 24104, Note_on_c, 0, 69, 0
2, 24127, Note_on_c, 0, 55, 54
2, 24140, Note_on_c, 0, 71, 56
2, 24355, Note_on_c, 0, 67, 52
2, 24382, Note_on_c, 0, 71, 0
2, 24577, Note_on_c, 0, 69, 67
2, 24606, Note_on_c, 0, 67, 0
2, 24799, Note_on_c, 0, 54, 58
2, 24838, Note_on_c, 0, 55, 0
2, 25015, Note_on_c, 0, 62, 49
2, 25022, Note_on_c, 0, 71, 63
2, 25025, Note_on_c, 0, 69, 0
2, 25224, Note_on_c, 0, 54, 0
2, 25260, Note_on_c, 0, 53, 60
2, 25408, Note_on_c, 0, 62, 0
2, 25533, Note_on_c, 0, 71, 0
2, 25552, Note_on_c, 0, 72, 57
2, 25603, Note_on_c, 0, 53, 0
2, 25630, Note_on_c, 0, 52, 50
2, 25651, Control_c, 0, 64, 41
2, 25670, Control_c, 0, 64, 57
2, 25689, Control_c, 0, 64, 59
2, 25735, Note_on_c, 0, 52, 0
2, 25752, Note_on_c, 0, 53, 61
2, 25785, Control_c, 0, 64, 59
2, 25814, Note_on_c, 0, 53, 0
2, 25843, Control_c, 0, 64, 59
2, 25843, Note_on_c, 0, 55, 55
2, 25862, Control_c, 0, 64, 58
2, 25881, Control_c, 0, 64, 58
2, 25939, Note_on_c, 0, 55, 0
2, 25988, Note_on_c, 0, 57, 45
2, 26003, Note_on_c, 0, 84, 62
2, 26016, Control_c, 0, 64, 57
2, 26126, Note_on_c, 0, 72, 0
2, 26170, Control_c, 0, 64, 58
2, 26239, Note_on_c, 0, 52, 46
2, 26304, Control_c, 0, 64, 58
2, 26318, Note_on_c, 0, 57, 0
2, 26343, Control_c, 0, 64, 59
2, 26463, Note_on_c, 0, 51, 46
2, 26476, Note_on_c, 0, 52, 0
2, 26476, Note_on_c, 0, 83, 68
2, 26515, Control_c, 0, 64, 59
2, 26611, Control_c, 0, 64, 60
2, 26649, Control_c, 0, 64, 60
2, 26668, Control_c, 0, 64, 61
2, 26676, Note_on_c, 0, 84, 0
2, 26688, Control_c, 0, 64, 61
2, 26696, Note_on_c, 0, 54, 68
2, 26707, Control_c, 0, 64, 62
2, 26745, Control_c, 0, 64, 62
2, 26746, Note_on_c, 0, 51, 0
2, 26765, Control_c, 0, 64, 63
2, 26901, Note_on_c, 0, 55, 54
2, 26904, Note_on_c, 0, 82, 78
2, 27014, Control_c, 0, 64, 62
2, 27024, Note_on_c, 0, 83, 0
2, 27084, Note_on_c, 0, 55, 0
2, 27118, Note_on_c, 0, 50, 62
2, 27129, Control_c, 0, 64, 62
2, 27168, Control_c, 0, 64, 61
2, 27204, Note_on_c, 0, 54, 0
2, 27263, Control_c, 0, 64, 61
2, 27302, Control_c, 0, 64, 60
2, 27321, Control_c, 0, 64, 60
2, 27338, Note_on_c, 0, 49, 62
2, 27339, Note_on_c, 0, 81, 83
2, 27340, Control_c, 0, 64, 59
2, 27370, Note_on_c, 0, 50, 0
2, 27379, Control_c, 0, 64, 59
2, 27392, Note_on_c, 0, 82, 0
2, 27417, Control_c, 0, 64, 58
2, 27436, Control_c, 0, 64, 58
2, 27456, Control_c, 0, 64, 57
2, 27474, Control_c, 0, 64, 57
2, 27494, Control_c, 0, 64, 56
2, 27513, Control_c, 0, 64, 56
2, 27533, Control_c, 0, 64, 55
2, 27570, Note_on_c, 0, 52, 64
2, 27571, Control_c, 0, 64, 54
2, 27590, Control_c, 0, 64, 53
2, 27609, Control_c, 0, 64, 52
2, 27628, Control_c, 0, 64, 52
2, 27667, Control_c, 0, 64, 51
2, 27705, Control_c, 0, 64, 51
2, 27716, Note_on_c, 0, 49, 0
2, 27781, Note_on_c, 0, 53, 65
2, 27782, Control_c, 0, 64, 50
2, 27787, Note_on_c, 0, 80, 78
2, 27820, Control_c, 0, 64, 50
2, 27839, Control_c, 0, 64, 49
2, 27859, Control_c, 0, 64, 49
2, 27916, Control_c, 0, 64, 48
2, 27993, Control_c, 0, 64, 48
2, 28001, Note_on_c, 0, 48, 68
2, 28004, Note_on_c, 0, 81, 0
2, 28008, Note_on_c, 0, 52, 0
2, 28031, Control_c, 0, 64, 47
2, 28051, Control_c, 0, 64, 46
2, 28070, Control_c, 0, 64, 45
2, 28089, Control_c, 0, 64, 45
2, 28103, Note_on_c, 0, 53, 0
2, 28108, Control_c, 0, 64, 44
2, 28166, Control_c, 0, 64, 44
2, 28185, Control_c, 0, 64, 43
2, 28205, Control_c, 0, 64, 41
2, 28223, Control_c, 0, 64, 40
2, 28243, Control_c, 0, 64, 39
2, 28262, Control_c, 0, 64, 38
2, 28270, Note_on_c, 0, 79, 80
2, 28281, Control_c, 0, 64, 38
2, 28300, Control_c, 0, 64, 36
2, 28319, Control_c, 0, 64, 35
2, 28339, Control_c, 0, 64, 33
2, 28357, Control_c, 0, 64, 31
2, 28364, Note_on_c, 0, 80, 0
2, 28377, Control_c, 0, 64, 27
2, 28396, Control_c, 0, 64, 21
2, 28416, Control_c, 0, 64, 0
2, 28458, Note_on_c, 0, 47, 61
2, 28500, Note_on_c, 0, 48, 0
2, 28709, Note_on_c, 0, 77, 77
2, 28736, Note_on_c, 0, 79, 0
2, 28913, Note_on_c, 0, 48, 60
2, 28955, Note_on_c, 0, 47, 0
2, 29035, Note_on_c, 0, 50, 68
2, 29052, Note_on_c, 0, 48, 0
2, 29146, Note_on_c, 0, 43, 66
2, 29163, Note_on_c, 0, 50, 0
2, 29287, Note_on_c, 0, 71, 68
2, 29318, Note_on_c, 0, 77, 0
2, 29386, Note_on_c, 0, 72, 72
2, 29439, Note_on_c, 0, 71, 0
2, 29491, Note_on_c, 0, 74, 68
2, 29511, Note_on_c, 0, 72, 0
2, 29603, Note_on_c, 0, 55, 65
2, 29605, Note_on_c, 0, 76, 69
2, 29613, Note_on_c, 0, 74, 0
2, 29889, Note_on_c, 0, 71, 72
2, 30102, Note_on_c, 0, 43, 0
2, 30116, Note_on_c, 0, 70, 68
2, 30120, Note_on_c, 0, 54, 64
2, 30149, Note_on_c, 0, 71, 0
2, 30298, Note_on_c, 0, 55, 0
2, 30336, Note_on_c, 0, 76, 0
2, 30341, Note_on_c, 0, 73, 69
2, 30555, Note_on_c, 0, 53, 53
2, 30558, Note_on_c, 0, 74, 65
2, 30593, Note_on_c, 0, 70, 0
2, 30605, Note_on_c, 0, 73, 0
2, 30655, Note_on_c, 0, 54, 0
2, 30780, Note_on_c, 0, 69, 68
2, 30934, Note_on_c, 0, 74, 0
2, 30985, Note_on_c, 0, 52, 54
2, 30997, Note_on_c, 0, 68, 68
2, 31030, Note_on_c, 0, 69, 0
2, 31211, Note_on_c, 0, 71, 65
2, 31242, Note_on_c, 0, 68, 0
2, 31289, Note_on_c, 0, 53, 0
2, 31411, Note_on_c, 0, 52, 0
2, 31418, Note_on_c, 0, 51, 44
2, 31422, Note_on_c, 0, 71, 0
2, 31431, Note_on_c, 0, 72, 61
2, 31662, Note_on_c, 0, 67, 48
2, 31739, Note_on_c, 0, 72, 0
2, 31874, Note_on_c, 0, 50, 49
2, 31879, Note_on_c, 0, 51, 0
2, 32099, Note_on_c, 0, 66, 53
2, 32176, Note_on_c, 0, 67, 0
2, 32280, Note_on_c, 0, 50, 0
2, 32300, Note_on_c, 0, 48, 40
2, 32510, Note_on_c, 0, 66, 0
2, 32530, Note_on_c, 0, 67, 42
2, 32599, Note_on_c, 0, 67, 0
2, 32623, Note_on_c, 0, 69, 51
2, 32716, Note_on_c, 0, 69, 0
2, 32740, Note_on_c, 0, 62, 48
2, 32970, Note_on_c, 0, 47, 46
2, 33010, Note_on_c, 0, 48, 0
2, 33030, Note_on_c, 0, 47, 0
2, 33061, Note_on_c, 0, 45, 48
2, 33144, Note_on_c, 0, 45, 0
2, 33154, Note_on_c, 0, 67, 50
2, 33161, Note_on_c, 0, 47, 55
2, 33220, Note_on_c, 0, 47, 0
2, 33308, Note_on_c, 0, 62, 0
2, 33396, Note_on_c, 0, 55, 50
2, 33640, Note_on_c, 0, 69, 65
2, 33663, Note_on_c, 0, 67, 0
2, 33842, Note_on_c, 0, 54, 68
2, 33847, Note_on_c, 0, 55, 0
2, 34072, Note_on_c, 0, 71, 72
2, 34080, Note_on_c, 0, 62, 58
2, 34199, Note_on_c, 0, 69, 0
2, 34269, Note_on_c, 0, 54, 0
2, 34288, Note_on_c, 0, 53, 66
2, 34373, Note_on_c, 0, 62, 0
2, 34499, Note_on_c, 0, 71, 0
2, 34510, Note_on_c, 0, 72, 66
2, 34736, Note_on_c, 0, 52, 50
2, 34748, Note_on_c, 0, 53, 0
2, 34795, Note_on_c, 0, 52, 0
2, 34812, Note_on_c, 0, 50, 58
2, 34925, Note_on_c, 0, 49, 75
2, 34928, Note_on_c, 0, 69, 70
2, 34933, Note_on_c, 0, 72, 0
2, 34946, Note_on_c, 0, 50, 0
2, 35012, Note_on_c, 0, 49, 0
2, 35160, Note_on_c, 0, 57, 72
2, 35371, Note_on_c, 0, 71, 78
2, 35510, Note_on_c, 0, 69, 0
2, 35588, Note_on_c, 0, 56, 74
2, 35631, Note_on_c, 0, 57, 0
2, 35810, Note_on_c, 0, 73, 76
2, 35814, Note_on_c, 0, 64, 63
2, 35975, Note_on_c, 0, 71, 0
2, 36011, Note_on_c, 0, 56, 0
2, 36042, Note_on_c, 0, 55, 69
2, 36167, Note_on_c, 0, 64, 0
2, 36313, Note_on_c, 0, 74, 67
2, 36350, Note_on_c, 0, 73, 0
2, 36394, Note_on_c, 0, 55, 0
2, 36397, Note_on_c, 0, 54, 59
2, 36502, Note_on_c, 0, 54, 0
2, 36502, Note_on_c, 0, 55, 69
2, 36598, Note_on_c, 0, 57, 69
2, 36606, Note_on_c, 0, 55, 0
2, 36711, Note_on_c, 0, 58, 58
2, 36717, Note_on_c, 0, 62, 70
2, 36765, Note_on_c, 0, 74, 0
2, 36938, Note_on_c, 0, 57, 0
2, 36941, Note_on_c, 0, 53, 67
2, 37013, Note_on_c, 0, 58, 0
2, 37162, Note_on_c, 0, 52, 53
2, 37175, Note_on_c, 0, 61, 68
2, 37178, Note_on_c, 0, 53, 0
2, 37287, Note_on_c, 0, 62, 0
2, 37385, Note_on_c, 0, 56, 57
2, 37416, Control_c, 0, 67, 12
2, 37436, Control_c, 0, 67, 18
2, 37438, Note_on_c, 0, 52, 0
2, 37455, Control_c, 0, 67, 24
2, 37475, Control_c, 0, 67, 28
2, 37493, Control_c, 0, 67, 32
2, 37513, Control_c, 0, 67, 34
2, 37532, Control_c, 0, 67, 37
2, 37550, Control_c, 0, 67, 40
2, 37570, Control_c, 0, 67, 42
2, 37589, Control_c, 0, 67, 44
2, 37592, Note_on_c, 0, 57, 49
2, 37601, Note_on_c, 0, 60, 57
2, 37610, Control_c, 0, 67, 44
2, 37646, Note_on_c, 0, 61, 0
2, 37667, Control_c, 0, 67, 45
2, 37686, Control_c, 0, 67, 45
2, 37725, Control_c, 0, 67, 46
2, 37754, Note_on_c, 0, 56, 0
2, 37782, Control_c, 0, 67, 47
2, 37802, Control_c, 0, 67, 48
2, 37812, Note_on_c, 0, 51, 50
2, 37820, Control_c, 0, 67, 51
2, 37840, Control_c, 0, 67, 55
2, 37859, Control_c, 0, 67, 59
2, 37879, Control_c, 0, 67, 62
2, 37897, Control_c, 0, 67, 65
2, 37917, Control_c, 0, 67, 67
2, 37931, Note_on_c, 0, 57, 0
2, 37936, Control_c, 0, 67, 69
2, 37956, Control_c, 0, 67, 70
2, 38025, Note_on_c, 0, 50, 47
2, 38030, Note_on_c, 0, 51, 0
2, 38045, Note_on_c, 0, 60, 0
2, 38052, Note_on_c, 0, 59, 57
2, 38184, Control_c, 0, 67, 69
2, 38204, Control_c, 0, 67, 69
2, 38223, Control_c, 0, 67, 68
2, 38243, Note_on_c, 0, 54, 49
2, 38340, Note_on_c, 0, 50, 0
2, 38358, Control_c, 0, 67, 69
2, 38376, Control_c, 0, 67, 69
2, 38396, Control_c, 0, 67, 70
2, 38442, Note_on_c, 0, 55, 42
2, 38455, Note_on_c, 0, 58, 51
2, 38484, Note_on_c, 0, 59, 0
2, 38535, Note_on_c, 0, 54, 0
2, 38645, Control_c, 0, 67, 69
2, 38664, Control_c, 0, 67, 69
2, 38674, Note_on_c, 0, 49, 49
2, 38684, Control_c, 0, 67, 68
2, 38704, Note_on_c, 0, 55, 0
2, 38818, Control_c, 0, 67, 69
2, 38890, Note_on_c, 0, 58, 0
2, 38909, Note_on_c, 0, 57, 46
2, 39067, Control_c, 0, 67, 68
2, 39120, Note_on_c, 0, 49, 0
2, 39145, Note_on_c, 0, 50, 40
2, 39270, Note_on_c, 0, 57, 0
2, 39387, Note_on_c, 0, 55, 47
2, 39395, Control_c, 0, 67, 68
2, 39413, Control_c, 0, 67, 67
2, 39452, Control_c, 0, 67, 67
2, 39590, Note_on_c, 0, 52, 42
2, 39650, Note_on_c, 0, 50, 0
2, 39759, Control_c, 0, 67, 66
2, 39798, Control_c, 0, 67, 66
2, 39816, Control_c, 0, 67, 65
2, 39818, Note_on_c, 0, 52, 0
2, 39828, Note_on_c, 0, 45, 44
2, 40017, Note_on_c, 0, 55, 0
2, 40027, Control_c, 0, 67, 65
2, 40055, Note_on_c, 0, 53, 45
2, 40104, Control_c, 0, 67, 64
2, 40112, Note_on_c, 0, 53, 0
2, 40124, Control_c, 0, 67, 64
2, 40141, Note_on_c, 0, 52, 52
2, 40143, Control_c, 0, 67, 63
2, 40181, Control_c, 0, 67, 63
2, 40201, Control_c, 0, 67, 62
2, 40212, Note_on_c, 0, 52, 0
2, 40239, Control_c, 0, 67, 62
2, 40240, Note_on_c, 0, 50, 47
2, 40250, Note_on_c, 0, 53, 52
2, 40296, Control_c, 0, 67, 61
2, 40299, Note_on_c, 0, 45, 0
2, 40405, Note_on_c, 0, 53, 0
2, 40450, Control_c, 0, 67, 61
2, 40469, Control_c, 0, 67, 60
2, 40500, Note_on_c, 0, 62, 52
2, 40507, Control_c, 0, 67, 60
2, 40527, Control_c, 0, 67, 59
2, 40546, Control_c, 0, 67, 59
2, 40565, Control_c, 0, 67, 58
2, 40708, Note_on_c, 0, 50, 0
2, 40711, Note_on_c, 0, 52, 45
2, 40719, Control_c, 0, 67, 58
2, 40935, Note_on_c, 0, 62, 0
2, 40940, Note_on_c, 0, 61, 66
2, 41007, Control_c, 0, 67, 59
2, 41084, Control_c, 0, 67, 59
2, 41103, Control_c, 0, 67, 60
2, 41122, Control_c, 0, 67, 60
2, 41141, Control_c, 0, 67, 61
2, 41158, Note_on_c, 0, 69, 62
2, 41160, Note_on_c, 0, 54, 51
2, 41161, Control_c, 0, 67, 61
2, 41180, Control_c, 0, 67, 62
2, 41217, Note_on_c, 0, 52, 0
2, 41303, Note_on_c, 0, 69, 0
2, 41349, Note_on_c, 0, 61, 0
2, 41373, Note_on_c, 0, 60, 56
2, 41390, Control_c, 0, 67, 62
2, 41410, Control_c, 0, 67, 63
2, 41429, Control_c, 0, 67, 64
2, 41449, Control_c, 0, 67, 65
2, 41487, Control_c, 0, 67, 65
2, 41583, Note_on_c, 0, 55, 49
2, 41591, Note_on_c, 0, 54, 0
2, 41621, Control_c, 0, 67, 65
2, 41679, Control_c, 0, 67, 64
2, 41718, Control_c, 0, 67, 64
2, 41750, Note_on_c, 0, 60, 0
2, 41756, Control_c, 0, 67, 63
2, 41840, Note_on_c, 0, 59, 53
2, 41898, Note_on_c, 0, 59, 0
2, 41910, Control_c, 0, 67, 63
2, 41929, Note_on_c, 0, 57, 61
2, 41930, Control_c, 0, 67, 62
2, 41948, Control_c, 0, 67, 62
2, 41968, Control_c, 0, 67, 61
2, 41990, Note_on_c, 0, 57, 0
2, 42005, Note_on_c, 0, 56, 71
2, 42016, Note_on_c, 0, 52, 65
2, 42066, Note_on_c, 0, 55, 0
2, 42102, Control_c, 0, 67, 61
2, 42140, Control_c, 0, 67, 60
2, 42179, Control_c, 0, 67, 60
2, 42196, Note_on_c, 0, 56, 0
2, 42217, Control_c, 0, 67, 59
2, 42237, Control_c, 0, 67, 59
2, 42253, Note_on_c, 0, 64, 74
2, 42256, Control_c, 0, 67, 58
2, 42294, Control_c, 0, 67, 57
2, 42314, Control_c, 0, 67, 57
2, 42333, Control_c, 0, 67, 56
2, 42390, Control_c, 0, 67, 56
2, 42411, Control_c, 0, 67, 55
2, 42430, Control_c, 0, 67, 55
2, 42470, Note_on_c, 0, 54, 66
2, 42527, Control_c, 0, 67, 54
2, 42565, Control_c, 0, 67, 54
2, 42589, Note_on_c, 0, 52, 0
2, 42604, Control_c, 0, 67, 53
2, 42698, Note_on_c, 0, 63, 77
2, 42719, Control_c, 0, 67, 53
2, 42722, Note_on_c, 0, 64, 0
2, 42738, Control_c, 0, 67, 52
2, 42757, Control_c, 0, 67, 51
2, 42776, Control_c, 0, 67, 51
2, 42796, Control_c, 0, 67, 50
2, 42815, Control_c, 0, 67, 50
2, 42833, Control_c, 0, 67, 49
2, 42869, Control_c, 0, 67, 48
2, 42889, Control_c, 0, 67, 46
2, 42905, Note_on_c, 0, 56, 72
2, 42907, Control_c, 0, 67, 45
2, 42912, Note_on_c, 0, 71, 73
2, 42927, Control_c, 0, 67, 43
2, 42946, Control_c, 0, 67, 40
2, 42965, Control_c, 0, 67, 38
2, 42984, Control_c, 0, 67, 37
2, 42985, Note_on_c, 0, 54, 0
2, 43004, Control_c, 0, 67, 36
2, 43061, Control_c, 0, 67, 35
2, 43100, Control_c, 0, 67, 35
2, 43125, Note_on_c, 0, 62, 68
2, 43151, Note_on_c, 0, 71, 0
2, 43160, Control_c, 0, 67, 34
2, 43196, Note_on_c, 0, 63, 0
2, 43198, Control_c, 0, 67, 34
2, 43311, Note_on_c, 0, 56, 0
2, 43321, Note_on_c, 0, 57, 69
2, 43390, Control_c, 0, 67, 34
2, 43409, Note_on_c, 0, 62, 0
2, 43432, Note_on_c, 0, 60, 66
2, 43484, Note_on_c, 0, 57, 0
2, 43533, Note_on_c, 0, 60, 0
2, 43542, Note_on_c, 0, 62, 70
2, 43550, Note_on_c, 0, 45, 64
2, 43583, Control_c, 0, 67, 35
2, 43601, Control_c, 0, 67, 35
2, 43640, Control_c, 0, 67, 36
2, 43643, Note_on_c, 0, 62, 0
2, 43643, Note_on_c, 0, 64, 72
2, 43778, Note_on_c, 0, 64, 0
2, 43781, Note_on_c, 0, 65, 68
2, 43785, Note_on_c, 0, 57, 63
2, 43870, Control_c, 0, 67, 36
2, 43928, Control_c, 0, 67, 37
2, 43955, Note_on_c, 0, 45, 0
2, 44043, Control_c, 0, 67, 37
2, 44063, Note_on_c, 0, 60, 69
2, 44273, Control_c, 0, 67, 38
2, 44289, Note_on_c, 0, 56, 57
2, 44297, Note_on_c, 0, 59, 70
2, 44312, Control_c, 0, 67, 38
2, 44344, Note_on_c, 0, 60, 0
2, 44389, Control_c, 0, 67, 39
2, 44452, Note_on_c, 0, 57, 0
2, 44466, Control_c, 0, 67, 39
2, 44513, Note_on_c, 0, 63, 71
2, 44559, Note_on_c, 0, 65, 0
2, 44561, Control_c, 0, 67, 40
2, 44595, Note_on_c, 0, 59, 0
2, 44600, Control_c, 0, 67, 40
2, 44731, Note_on_c, 0, 55, 49
2, 44750, Note_on_c, 0, 64, 65
2, 44792, Control_c, 0, 67, 40
2, 44804, Note_on_c, 0, 63, 0
2, 44817, Note_on_c, 0, 56, 0
2, 44830, Control_c, 0, 67, 39
2, 44952, Note_on_c, 0, 58, 66
2, 45168, Note_on_c, 0, 58, 0
2, 45170, Note_on_c, 0, 54, 47
2, 45175, Note_on_c, 0, 57, 53
2, 45225, Note_on_c, 0, 55, 0
2, 45290, Note_on_c, 0, 64, 0
2, 45384, Note_on_c, 0, 61, 59
2, 45531, Note_on_c, 0, 57, 0
2, 45621, Note_on_c, 0, 62, 54
2, 45623, Note_on_c, 0, 53, 38
2, 45648, Note_on_c, 0, 61, 0
2, 45671, Note_on_c, 0, 54, 0
2, 45823, Note_on_c, 0, 56, 54
2, 45824, Note_on_c, 0, 62, 0
2, 46048, Note_on_c, 0, 52, 45
2, 46101, Note_on_c, 0, 53, 0
2, 46278, Note_on_c, 0, 57, 54
2, 46310, Note_on_c, 0, 56, 0
2, 46443, Control_c, 0, 67, 39
2, 46493, Note_on_c, 0, 50, 44
2, 46546, Note_on_c, 0, 52, 0
2, 46732, Note_on_c, 0, 57, 0
2, 46752, Note_on_c, 0, 59, 51
2, 46789, Control_c, 0, 67, 38
2, 46898, Note_on_c, 0, 59, 0
2, 46973, Note_on_c, 0, 52, 42
2, 47160, Note_on_c, 0, 52, 0
2, 47202, Note_on_c, 0, 48, 49
2, 47228, Note_on_c, 0, 50, 0
2, 47277, Note_on_c, 0, 48, 0
2, 47305, Note_on_c, 0, 47, 52
2, 47390, Note_on_c, 0, 48, 51
2, 47405, Note_on_c, 0, 47, 0
2, 47411, Note_on_c, 0, 64, 56
2, 47455, Note_on_c, 0, 48, 0
2, 47595, Control_c, 0, 67, 38
2, 47637, Note_on_c, 0, 52, 56
2, 47671, Control_c, 0, 67, 37
2, 47709, Control_c, 0, 67, 37
2, 47748, Control_c, 0, 67, 36
2, 47843, Control_c, 0, 67, 36
2, 47865, Note_on_c, 0, 66, 66
2, 48018, Note_on_c, 0, 64, 0
2, 48071, Note_on_c, 0, 51, 65
2, 48136, Note_on_c, 0, 52, 0
2, 48309, Note_on_c, 0, 68, 71
2, 48317, Note_on_c, 0, 59, 63
2, 48387, Note_on_c, 0, 66, 0
2, 48420, Control_c, 0, 67, 35
2, 48439, Control_c, 0, 67, 34
2, 48458, Control_c, 0, 67, 34
2, 48477, Control_c, 0, 67, 32
2, 48480, Note_on_c, 0, 51, 0
2, 48497, Control_c, 0, 67, 31
2, 48516, Control_c, 0, 67, 27
2, 48523, Note_on_c, 0, 50, 60
2, 48535, Control_c, 0, 67, 21
2, 48554, Control_c, 0, 67, 16
2, 48574, Control_c, 0, 67, 12
2, 48593, Control_c, 0, 67, 9
2, 48609, Note_on_c, 0, 59, 0
2, 48612, Control_c, 0, 67, 0
2, 48742, Note_on_c, 0, 69, 72
2, 48760, Note_on_c, 0, 68, 0
2, 48784, Note_on_c, 0, 69, 0
2, 48974, Note_on_c, 0, 57, 67
2, 48981, Note_on_c, 0, 49, 56
2, 49023, Note_on_c, 0, 50, 0
2, 49034, Note_on_c, 0, 57, 0
2, 49070, Note_on_c, 0, 49, 0
2, 49083, Note_on_c, 0, 47, 64
2, 49190, Note_on_c, 0, 49, 62
2, 49193, Note_on_c, 0, 69, 79
2, 49209, Note_on_c, 0, 47, 0
2, 49432, Note_on_c, 0, 45, 64
2, 49483, Note_on_c, 0, 49, 0
2, 49661, Note_on_c, 0, 47, 70
2, 49717, Note_on_c, 0, 45, 0
2, 49871, Note_on_c, 0, 68, 81
2, 49903, Note_on_c, 0, 69, 0
2, 50080, Note_on_c, 0, 49, 68
2, 50091, Note_on_c, 0, 76, 70
2, 50139, Note_on_c, 0, 47, 0
2, 50328, Note_on_c, 0, 67, 64
2, 50364, Note_on_c, 0, 76, 0
2, 50402, Note_on_c, 0, 68, 0
2, 50512, Note_on_c, 0, 49, 0
2, 50541, Note_on_c, 0, 50, 65
2, 50636, Note_on_c, 0, 50, 0
2, 50750, Note_on_c, 0, 67, 0
2, 50772, Note_on_c, 0, 38, 62
2, 50786, Note_on_c, 0, 66, 57
2, 50813, Note_on_c, 0, 38, 0
2, 50851, Note_on_c, 0, 66, 0
2, 50887, Note_on_c, 0, 64, 57
2, 50962, Note_on_c, 0, 50, 57
2, 50972, Note_on_c, 0, 64, 0
2, 50997, Note_on_c, 0, 66, 59
2, 51189, Note_on_c, 0, 62, 64
2, 51428, Note_on_c, 0, 64, 69
2, 51591, Note_on_c, 0, 62, 0
2, 51593, Note_on_c, 0, 66, 0
2, 51642, Note_on_c, 0, 49, 72
2, 51688, Note_on_c, 0, 50, 0
2, 51866, Note_on_c, 0, 57, 55
2, 51871, Note_on_c, 0, 66, 73
2, 52035, Note_on_c, 0, 64, 0
2, 52103, Note_on_c, 0, 49, 0
2, 52109, Note_on_c, 0, 48, 68
2, 52257, Note_on_c, 0, 57, 0
2, 52325, Note_on_c, 0, 67, 66
2, 52361, Note_on_c, 0, 66, 0
2, 52400, Note_on_c, 0, 67, 0
2, 52558, Note_on_c, 0, 55, 73
2, 52563, Note_on_c, 0, 47, 63
2, 52587, Note_on_c, 0, 48, 0
2, 52618, Note_on_c, 0, 55, 0
2, 52655, Note_on_c, 0, 45, 65
2, 52668, Note_on_c, 0, 47, 0
2, 52773, Note_on_c, 0, 47, 65
2, 52784, Note_on_c, 0, 67, 76
2, 52798, Note_on_c, 0, 45, 0
2, 53014, Note_on_c, 0, 43, 67
2, 53056, Note_on_c, 0, 47, 0
2, 53243, Note_on_c, 0, 45, 68
2, 53363, Note_on_c, 0, 43, 0
2, 53468, Note_on_c, 0, 66, 77
2, 53481, Note_on_c, 0, 67, 0
2, 53706, Note_on_c, 0, 74, 75
2, 53723, Note_on_c, 0, 47, 68
2, 53793, Note_on_c, 0, 45, 0
2, 53972, Note_on_c, 0, 65, 77
2, 54093, Note_on_c, 0, 74, 0
2, 54103, Note_on_c, 0, 66, 0
2, 54237, Note_on_c, 0, 48, 73
2, 54349, Note_on_c, 0, 47, 0
2, 54455, Note_on_c, 0, 65, 0
2, 54462, Note_on_c, 0, 64, 74
2, 54551, Note_on_c, 0, 64, 0
2, 54555, Note_on_c, 0, 62, 81
2, 54653, Note_on_c, 0, 62, 0
2, 54661, Note_on_c, 0, 64, 86
2, 54928, Note_on_c, 0, 47, 58
2, 54947, Note_on_c, 0, 76, 81
2, 55004, Control_c, 0, 64, 25
2, 55011, Note_on_c, 0, 48, 0
2, 55024, Control_c, 0, 64, 45
2, 55043, Control_c, 0, 64, 52
2, 55062, Control_c, 0, 64, 55
2, 55070, Note_on_c, 0, 47, 0
2, 55073, Note_on_c, 0, 45, 61
2, 55081, Control_c, 0, 64, 56
2, 55104, Note_on_c, 0, 64, 0
2, 55119, Control_c, 0, 64, 56
2, 55158, Control_c, 0, 64, 55
2, 55211, Note_on_c, 0, 52, 69
2, 55226, Note_on_c, 0, 45, 0
2, 55235, Control_c, 0, 64, 55
2, 55254, Control_c, 0, 64, 54
2, 55273, Control_c, 0, 64, 53
2, 55293, Control_c, 0, 64, 51
2, 55312, Control_c, 0, 64, 50
2, 55331, Control_c, 0, 64, 50
2, 55335, Note_on_c, 0, 53, 64
2, 55350, Control_c, 0, 64, 48
2, 55359, Note_on_c, 0, 52, 0
2, 55370, Control_c, 0, 64, 46
2, 55388, Control_c, 0, 64, 42
2, 55408, Control_c, 0, 64, 36
2, 55421, Note_on_c, 0, 53, 0
2, 55427, Control_c, 0, 64, 31
2, 55443, Note_on_c, 0, 55, 55
2, 55446, Control_c, 0, 64, 26
2, 55457, Note_on_c, 0, 77, 76
2, 55465, Control_c, 0, 64, 18
2, 55476, Note_on_c, 0, 76, 0
2, 55484, Control_c, 0, 64, 0
2, 55525, Note_on_c, 0, 55, 0
2, 55546, Note_on_c, 0, 53, 50
2, 55582, Note_on_c, 0, 76, 80
2, 55608, Note_on_c, 0, 53, 0
2, 55629, Note_on_c, 0, 77, 0
2, 55633, Note_on_c, 0, 55, 59
2, 55681, Note_on_c, 0, 74, 76
2, 55701, Note_on_c, 0, 55, 0
2, 55719, Note_on_c, 0, 53, 63
2, 55724, Note_on_c, 0, 76, 0
2, 55781, Note_on_c, 0, 53, 0
2, 55788, Note_on_c, 0, 72, 81
2, 55809, Note_on_c, 0, 74, 0
2, 55812, Note_on_c, 0, 55, 61
2, 55857, Note_on_c, 0, 55, 0
2, 55875, Note_on_c, 0, 53, 52
2, 55886, Note_on_c, 0, 72, 0
2, 55898, Note_on_c, 0, 71, 81
2, 55920, Note_on_c, 0, 53, 0
2, 55954, Note_on_c, 0, 55, 60
2, 55973, Note_on_c, 0, 71, 0
2, 56004, Note_on_c, 0, 55, 0
2, 56015, Note_on_c, 0, 69, 74
2, 56025, Note_on_c, 0, 53, 60
2, 56113, Note_on_c, 0, 53, 0
2, 56134, Note_on_c, 0, 52, 57
2, 56147, Note_on_c, 0, 68, 73
2, 56160, Note_on_c, 0, 69, 0
2, 56214, Control_c, 0, 67, 8
2, 56233, Control_c, 0, 67, 12
2, 56253, Control_c, 0, 67, 15
2, 56263, Note_on_c, 0, 64, 61
2, 56272, Control_c, 0, 67, 17
2, 56291, Control_c, 0, 67, 19
2, 56310, Control_c, 0, 67, 20
2, 56368, Control_c, 0, 67, 21
2, 56390, Note_on_c, 0, 62, 56
2, 56394, Note_on_c, 0, 64, 0
2, 56483, Control_c, 0, 67, 22
2, 56492, Note_on_c, 0, 62, 0
2, 56500, Note_on_c, 0, 60, 54
2, 56521, Control_c, 0, 67, 23
2, 56541, Control_c, 0, 67, 25
2, 56559, Control_c, 0, 67, 29
2, 56572, Note_on_c, 0, 52, 0
2, 56579, Control_c, 0, 67, 32
2, 56593, Note_on_c, 0, 60, 0
2, 56598, Control_c, 0, 67, 34
2, 56618, Note_on_c, 0, 59, 62
2, 56729, Note_on_c, 0, 59, 0
2, 56738, Note_on_c, 0, 57, 59
2, 56829, Note_on_c, 0, 57, 0
2, 56831, Note_on_c, 0, 56, 61
2, 56924, Control_c, 0, 67, 33
2, 56954, Note_on_c, 0, 56, 0
2, 56966, Note_on_c, 0, 54, 46
2, 57089, Note_on_c, 0, 54, 0
2, 57142, Note_on_c, 0, 52, 45
2, 57174, Control_c, 0, 67, 33
2, 57308, Control_c, 0, 67, 33
2, 57347, Control_c, 0, 64, 37
2, 57366, Control_c, 0, 64, 53
2, 57385, Control_c, 0, 64, 59
2, 57404, Control_c, 0, 64, 61
2, 57424, Control_c, 0, 64, 62
2, 57443, Control_c, 0, 64, 63
2, 57462, Control_c, 0, 64, 64
2, 57462, Control_c, 0, 67, 34
2, 57481, Control_c, 0, 64, 64
2, 57501, Control_c, 0, 64, 65
2, 57519, Control_c, 0, 64, 65
2, 57539, Control_c, 0, 64, 66
2, 57654, Control_c, 0, 64, 65
2, 57673, Control_c, 0, 64, 64
2, 57693, Control_c, 0, 64, 64
2, 57697, Note_on_c, 0, 52, 0
2, 57712, Control_c, 0, 64, 63
2, 57731, Control_c, 0, 64, 62
2, 57750, Control_c, 0, 64, 62
2, 57771, Control_c, 0, 64, 61
2, 57789, Control_c, 0, 64, 59
2, 57809, Control_c, 0, 64, 58
2, 57828, Control_c, 0, 64, 55
2, 57847, Control_c, 0, 64, 53
2, 57866, Control_c, 0, 64, 49
2, 57885, Control_c, 0, 64, 44
2, 57905, Control_c, 0, 64, 35
2, 57908, Note_on_c, 0, 40, 34
2, 57923, Control_c, 0, 64, 22
2, 57943, Control_c, 0, 64, 0
2, 58058, Control_c, 0, 64, 27
2, 58077, Control_c, 0, 64, 47
2, 58097, Control_c, 0, 64, 58
2, 58116, Control_c, 0, 64, 62
2, 58135, Control_c, 0, 64, 64
2, 58154, Control_c, 0, 64, 64
2, 58174, Control_c, 0, 64, 65
2, 58193, Control_c, 0, 64, 66
2, 58212, Control_c, 0, 64, 67
2, 58230, Control_c, 0, 64, 69
2, 58250, Control_c, 0, 64, 72
2, 58266, Note_on_c, 0, 40, 0
2, 58268, Control_c, 0, 64, 75
2, 58287, Control_c, 0, 64, 76
2, 58307, Control_c, 0, 64, 76
2, 58374, Note_on_c, 0, 68, 0
2, 58381, Control_c, 0, 64, 76
2, 58458, Control_c, 0, 64, 75
2, 58496, Control_c, 0, 64, 75
2, 58515, Control_c, 0, 64, 74
2, 58535, Control_c, 0, 64, 73
2, 58553, Control_c, 0, 64, 73
2, 58573, Control_c, 0, 64, 72
2, 58592, Control_c, 0, 64, 71
2, 58611, Control_c, 0, 64, 70
2, 58611, Control_c, 0, 67, 33
2, 58630, Control_c, 0, 64, 69
2, 58630, Control_c, 0, 67, 33
2, 58650, Control_c, 0, 64, 68
2, 58669, Control_c, 0, 67, 32
2, 58728, Control_c, 0, 67, 32
2, 58766, Control_c, 0, 64, 67
2, 58766, Control_c, 0, 67, 31
2, 58785, Control_c, 0, 64, 67
2, 58805, Control_c, 0, 64, 66
2, 58805, Control_c, 0, 67, 31
2, 58823, Control_c, 0, 64, 66
2, 58823, Control_c, 0, 67, 30
2, 58881, Control_c, 0, 67, 30
2, 58920, Control_c, 0, 67, 29
2, 58996, Control_c, 0, 64, 65
2, 58996, Control_c, 0, 67, 29
2, 59034, Control_c, 0, 64, 64
2, 59050, Note_on_c, 0, 76, 53
2, 59054, Control_c, 0, 64, 63
2, 59073, Control_c, 0, 64, 62
2, 59092, Control_c, 0, 64, 61
2, 59111, Control_c, 0, 64, 61
2, 59131, Control_c, 0, 64, 60
2, 59131, Control_c, 0, 67, 28
2, 59150, Control_c, 0, 64, 59
2, 59164, Note_on_c, 0, 60, 36
2, 59169, Control_c, 0, 64, 59
2, 59187, Control_c, 0, 64, 58
2, 59207, Control_c, 0, 64, 58
2, 59225, Control_c, 0, 64, 57
2, 59234, Note_on_c, 0, 60, 0
2, 59264, Control_c, 0, 64, 57
2, 59279, Note_on_c, 0, 59, 47
2, 59284, Control_c, 0, 64, 56
2, 59302, Control_c, 0, 64, 55
2, 59341, Control_c, 0, 64, 54
2, 59350, Note_on_c, 0, 59, 0
2, 59361, Control_c, 0, 64, 54
2, 59379, Control_c, 0, 64, 53
2, 59387, Note_on_c, 0, 57, 44
2, 59399, Control_c, 0, 64, 52
2, 59418, Control_c, 0, 64, 52
2, 59418, Control_c, 0, 67, 28
2, 59436, Control_c, 0, 64, 51
2, 59456, Control_c, 0, 64, 50
2, 59457, Note_on_c, 0, 57, 0
2, 59470, Note_on_c, 0, 56, 50
2, 59475, Control_c, 0, 64, 49
2, 59495, Control_c, 0, 64, 48
2, 59503, Note_on_c, 0, 64, 48
2, 59505, Note_on_c, 0, 76, 0
2, 59513, Control_c, 0, 64, 47
2, 59513, Control_c, 0, 67, 27
2, 59533, Control_c, 0, 64, 46
2, 59552, Control_c, 0, 64, 45
2, 59571, Control_c, 0, 64, 43
2, 59590, Control_c, 0, 64, 42
2, 59610, Control_c, 0, 64, 41
2, 59667, Control_c, 0, 64, 41
2, 59706, Control_c, 0, 64, 40
2, 59726, Control_c, 0, 64, 39
2, 59727, Note_on_c, 0, 61, 47
2, 59745, Control_c, 0, 64, 38
2, 59750, Note_on_c, 0, 56, 0
2, 59765, Control_c, 0, 64, 37
2, 59783, Control_c, 0, 64, 37
2, 59803, Control_c, 0, 64, 36
2, 59860, Control_c, 0, 64, 36
2, 59935, Note_on_c, 0, 62, 39
2, 59950, Note_on_c, 0, 65, 50
2, 59992, Note_on_c, 0, 61, 0
2, 60004, Note_on_c, 0, 64, 0
2, 60033, Control_c, 0, 67, 27
2, 60110, Control_c, 0, 67, 26
2, 60168, Control_c, 0, 67, 26
2, 60182, Note_on_c, 0, 58, 48
2, 60263, Control_c, 0, 64, 35
2, 60279, Note_on_c, 0, 62, 0
2, 60283, Control_c, 0, 67, 25
2, 60320, Note_on_c, 0, 58, 0
2, 60379, Note_on_c, 0, 57, 42
2, 60393, Note_on_c, 0, 66, 62
2, 60513, Control_c, 0, 64, 36
2, 60532, Control_c, 0, 67, 25
2, 60545, Note_on_c, 0, 65, 0
2, 60551, Control_c, 0, 67, 24
2, 60571, Control_c, 0, 67, 24
2, 60605, Note_on_c, 0, 63, 59
2, 60672, Note_on_c, 0, 57, 0
2, 60783, Control_c, 0, 67, 23
2, 60802, Control_c, 0, 64, 36
2, 60830, Note_on_c, 0, 64, 55
2, 60844, Note_on_c, 0, 67, 63
2, 60860, Control_c, 0, 64, 37
2, 60879, Control_c, 0, 64, 37
2, 60879, Control_c, 0, 67, 23
2, 60898, Control_c, 0, 64, 38
2, 60918, Control_c, 0, 64, 38
2, 60924, Note_on_c, 0, 66, 0
2, 60936, Control_c, 0, 67, 22
2, 60955, Control_c, 0, 64, 39
2, 60994, Control_c, 0, 64, 39
2, 61013, Control_c, 0, 64, 40
2, 61050, Note_on_c, 0, 60, 58
2, 61055, Note_on_c, 0, 63, 0
2, 61070, Control_c, 0, 67, 22
2, 61153, Note_on_c, 0, 64, 0
2, 61242, Control_c, 0, 64, 40
2, 61281, Note_on_c, 0, 59, 62
2, 61288, Note_on_c, 0, 68, 71
2, 61299, Note_on_c, 0, 60, 0
2, 61395, Control_c, 0, 64, 41
2, 61445, Note_on_c, 0, 67, 0
2, 61491, Control_c, 0, 64, 41
2, 61497, Note_on_c, 0, 65, 61
2, 61568, Control_c, 0, 64, 42
2, 61586, Note_on_c, 0, 59, 0
2, 61645, Control_c, 0, 64, 42
2, 61645, Control_c, 0, 67, 21
2, 61684, Control_c, 0, 64, 43
2, 61684, Control_c, 0, 67, 21
2, 61733, Note_on_c, 0, 69, 74
2, 61818, Note_on_c, 0, 68, 0
2, 61836, Control_c, 0, 64, 43
2, 61875, Control_c, 0, 64, 44
2, 61949, Note_on_c, 0, 64, 68
2, 61993, Control_c, 0, 64, 44
2, 61999, Note_on_c, 0, 65, 0
2, 62032, Control_c, 0, 64, 45
2, 62051, Control_c, 0, 64, 45
2, 62051, Control_c, 0, 67, 20
2, 62108, Control_c, 0, 64, 46
2, 62127, Control_c, 0, 67, 21
2, 62147, Control_c, 0, 67, 22
2, 62187, Note_on_c, 0, 71, 72
2, 62228, Note_on_c, 0, 69, 0
2, 62281, Control_c, 0, 64, 46
2, 62301, Control_c, 0, 64, 47
2, 62319, Control_c, 0, 64, 48
2, 62339, Control_c, 0, 64, 50
2, 62358, Control_c, 0, 64, 52
2, 62378, Control_c, 0, 64, 55
2, 62387, Note_on_c, 0, 62, 64
2, 62396, Control_c, 0, 64, 56
2, 62416, Control_c, 0, 64, 58
2, 62432, Note_on_c, 0, 64, 0
2, 62435, Control_c, 0, 64, 59
2, 62454, Control_c, 0, 64, 60
2, 62473, Control_c, 0, 64, 60
2, 62493, Control_c, 0, 64, 61
2, 62588, Control_c, 0, 64, 60
2, 62607, Control_c, 0, 64, 60
2, 62627, Control_c, 0, 64, 59
2, 62646, Control_c, 0, 64, 58
2, 62657, Note_on_c, 0, 69, 46
2, 62665, Control_c, 0, 64, 57
2, 62684, Control_c, 0, 64, 56
2, 62686, Note_on_c, 0, 72, 57
2, 62704, Control_c, 0, 64, 56
2, 62722, Note_on_c, 0, 62, 0
2, 62723, Control_c, 0, 64, 55
2, 62736, Note_on_c, 0, 71, 0
2, 62761, Control_c, 0, 64, 54
2, 62767, Note_on_c, 0, 72, 0
2, 62781, Control_c, 0, 64, 53
2, 62793, Note_on_c, 0, 77, 63
2, 62799, Control_c, 0, 64, 53
2, 62881, Note_on_c, 0, 76, 67
2, 62915, Control_c, 0, 67, 21
2, 62940, Note_on_c, 0, 77, 0
2, 62953, Control_c, 0, 67, 21
2, 62968, Note_on_c, 0, 74, 62
2, 63022, Note_on_c, 0, 76, 0
2, 63046, Control_c, 0, 64, 52
2, 63046, Control_c, 0, 67, 20
2, 63074, Note_on_c, 0, 57, 52
2, 63074, Note_on_c, 0, 73, 66
2, 63087, Note_on_c, 0, 74, 0
2, 63181, Control_c, 0, 67, 20
2, 63200, Control_c, 0, 67, 19
2, 63238, Control_c, 0, 67, 19
2, 63258, Control_c, 0, 67, 18
2, 63315, Control_c, 0, 67, 18
2, 63318, Note_on_c, 0, 78, 75
2, 63335, Control_c, 0, 67, 17
2, 63353, Control_c, 0, 67, 16
2, 63373, Control_c, 0, 67, 15
2, 63392, Control_c, 0, 67, 13
2, 63412, Control_c, 0, 67, 11
2, 63430, Control_c, 0, 67, 10
2, 63450, Control_c, 0, 67, 8
2, 63469, Control_c, 0, 67, 0
2, 63503, Note_on_c, 0, 73, 0
2, 63520, Note_on_c, 0, 58, 60
2, 63544, Note_on_c, 0, 79, 74
2, 63625, Note_on_c, 0, 57, 0
2, 63763, Note_on_c, 0, 75, 77
2, 63781, Note_on_c, 0, 78, 0
2, 63807, Note_on_c, 0, 79, 0
2, 63830, Note_on_c, 0, 69, 0
2, 63856, Control_c, 0, 64, 53
2, 63977, Note_on_c, 0, 74, 78
2, 63978, Note_on_c, 0, 59, 69
2, 64059, Note_on_c, 0, 75, 0
2, 64183, Note_on_c, 0, 80, 85
2, 64392, Note_on_c, 0, 60, 66
2, 64406, Note_on_c, 0, 81, 80
2, 64446, Control_c, 0, 64, 52
2, 64465, Control_c, 0, 64, 52
2, 64491, Control_c, 0, 64, 51
2, 64509, Control_c, 0, 64, 49
2, 64512, Note_on_c, 0, 58, 0
2, 64518, Note_on_c, 0, 80, 0
2, 64528, Control_c, 0, 64, 46
2, 64539, Note_on_c, 0, 59, 0
2, 64548, Control_c, 0, 64, 41
2, 64567, Control_c, 0, 64, 36
2, 64586, Control_c, 0, 64, 30
2, 64605, Control_c, 0, 64, 19
2, 64625, Control_c, 0, 64, 0
2, 64637, Note_on_c, 0, 77, 85
2, 64668, Note_on_c, 0, 74, 0
2, 64699, Note_on_c, 0, 81, 0
2, 64827, Note_on_c, 0, 61, 66
2, 64859, Note_on_c, 0, 76, 78
2, 64927, Note_on_c, 0, 77, 0
2, 65013, Note_on_c, 0, 60, 0
2, 65084, Note_on_c, 0, 82, 77
2, 65214, Note_on_c, 0, 76, 0
2, 65303, Note_on_c, 0, 62, 54
2, 65381, Note_on_c, 0, 61, 0
2, 65527, Note_on_c, 0, 81, 77
2, 65582, Note_on_c, 0, 82, 0
2, 65734, Note_on_c, 0, 64, 69
2, 65748, Note_on_c, 0, 62, 0
2, 65979, Note_on_c, 0, 79, 78
2, 66004, Note_on_c, 0, 81, 0
2, 66217, Note_on_c, 0, 65, 43
2, 66239, Note_on_c, 0, 79, 0
2, 66251, Note_on_c, 0, 81, 65
2, 66339, Note_on_c, 0, 64, 0
2, 66362, Note_on_c, 0, 79, 77
2, 66416, Note_on_c, 0, 81, 0
2, 66437, Note_on_c, 0, 77, 75
2, 66490, Note_on_c, 0, 79, 0
2, 66526, Note_on_c, 0, 76, 80
2, 66548, Note_on_c, 0, 77, 0
2, 66638, Note_on_c, 0, 62, 52
2, 66638, Note_on_c, 0, 76, 0
2, 66645, Note_on_c, 0, 77, 80
2, 66865, Note_on_c, 0, 70, 79
2, 66955, Note_on_c, 0, 77, 0
2, 67036, Note_on_c, 0, 65, 0
2, 67083, Note_on_c, 0, 60, 53
2, 67100, Note_on_c, 0, 69, 71
2, 67194, Note_on_c, 0, 70, 0
2, 67228, Note_on_c, 0, 62, 0
2, 67301, Note_on_c, 0, 76, 68
2, 67358, Note_on_c, 0, 69, 0
2, 67524, Note_on_c, 0, 59, 58
2, 67541, Note_on_c, 0, 74, 60
2, 67547, Note_on_c, 0, 60, 0
2, 67628, Note_on_c, 0, 76, 0
2, 67748, Note_on_c, 0, 68, 61
2, 67748, Note_on_c, 0, 74, 0
2, 67960, Note_on_c, 0, 59, 0
2, 67968, Note_on_c, 0, 57, 50
2, 68083, Note_on_c, 0, 68, 0
2, 68098, Note_on_c, 0, 74, 56
2, 68192, Note_on_c, 0, 72, 57
2, 68202, Note_on_c, 0, 74, 0
2, 68278, Note_on_c, 0, 71, 56
2, 68282, Note_on_c, 0, 72, 0
2, 68351, Note_on_c, 0, 71, 0
2, 68383, Note_on_c, 0, 69, 61
2, 68411, Note_on_c, 0, 60, 41
2, 68563, Note_on_c, 0, 57, 0
2, 68615, Note_on_c, 0, 69, 0
2, 68619, Note_on_c, 0, 76, 61
2, 68832, Note_on_c, 0, 74, 54
2, 68840, Note_on_c, 0, 59, 49
2, 68848, Note_on_c, 0, 60, 0
2, 68881, Note_on_c, 0, 76, 0
2, 69016, Note_on_c, 0, 74, 0
2, 69032, Note_on_c, 0, 67, 50
2, 69263, Note_on_c, 0, 66, 55
2, 69273, Note_on_c, 0, 57, 50
2, 69324, Note_on_c, 0, 67, 0
2, 69412, Note_on_c, 0, 59, 0
2, 69488, Note_on_c, 0, 66, 0
2, 69489, Note_on_c, 0, 72, 66
2, 69682, Note_on_c, 0, 57, 0
2, 69700, Note_on_c, 0, 55, 51
2, 69710, Note_on_c, 0, 71, 67
2, 69758, Note_on_c, 0, 72, 0
2, 69842, Note_on_c, 0, 59, 70
2, 69895, Note_on_c, 0, 55, 0
2, 69939, Note_on_c, 0, 60, 70
2, 69983, Note_on_c, 0, 59, 0
2, 70014, Note_on_c, 0, 62, 72
2, 70021, Note_on_c, 0, 60, 0
2, 70105, Note_on_c, 0, 62, 0
2, 70114, Note_on_c, 0, 64, 68
2, 70163, Note_on_c, 0, 79, 78
2, 70336, Note_on_c, 0, 71, 0
2, 70351, Note_on_c, 0, 58, 62
2, 70476, Note_on_c, 0, 64, 0
2, 70582, Note_on_c, 0, 57, 60
2, 70586, Note_on_c, 0, 77, 72
2, 70606, Note_on_c, 0, 58, 0
2, 70747, Note_on_c, 0, 79, 0
2, 70803, Note_on_c, 0, 62, 61
2, 70974, Note_on_c, 0, 57, 0
2, 71025, Note_on_c, 0, 76, 68
2, 71049, Note_on_c, 0, 61, 53
2, 71101, Note_on_c, 0, 62, 0
2, 71103, Note_on_c, 0, 77, 0
2, 71243, Note_on_c, 0, 55, 57
2, 71293, Note_on_c, 0, 61, 0
2, 71499, Note_on_c, 0, 74, 59
2, 71535, Note_on_c, 0, 55, 0
2, 71556, Note_on_c, 0, 76, 0
2, 71598, Note_on_c, 0, 67, 55
2, 71699, Note_on_c, 0, 67, 0
2, 71724, Note_on_c, 0, 65, 55
2, 71789, Note_on_c, 0, 65, 0
2, 71803, Note_on_c, 0, 64, 58
2, 71888, Note_on_c, 0, 64, 0
2, 71916, Note_on_c, 0, 62, 45
2, 71934, Note_on_c, 0, 74, 0
2, 71951, Note_on_c, 0, 77, 38
2, 72133, Note_on_c, 0, 68, 58
2, 72294, Note_on_c, 0, 62, 0
2, 72317, Note_on_c, 0, 68, 0
2, 72340, Note_on_c, 0, 76, 56
2, 72360, Note_on_c, 0, 69, 51
2, 72457, Note_on_c, 0, 77, 0
2, 72576, Note_on_c, 0, 60, 38
2, 72697, Note_on_c, 0, 69, 0
2, 72786, Note_on_c, 0, 60, 0
2, 72824, Note_on_c, 0, 59, 41
2, 72831, Note_on_c, 0, 76, 0
2, 72836, Note_on_c, 0, 74, 41
2, 73076, Note_on_c, 0, 65, 32
2, 73186, Control_c, 0, 64, 24
2, 73205, Control_c, 0, 64, 56
2, 73220, Note_on_c, 0, 59, 0
2, 73224, Control_c, 0, 64, 61
2, 73243, Control_c, 0, 64, 62
2, 73282, Control_c, 0, 64, 63
2, 73350, Note_on_c, 0, 64, 37
2, 73378, Note_on_c, 0, 65, 0
2, 73417, Control_c, 0, 64, 63
2, 73474, Control_c, 0, 64, 63
2, 73479, Note_on_c, 0, 62, 51
2, 73483, Note_on_c, 0, 64, 0
2, 73494, Control_c, 0, 64, 62
2, 73512, Control_c, 0, 64, 60
2, 73532, Control_c, 0, 64, 58
2, 73539, Note_on_c, 0, 62, 0
2, 73551, Control_c, 0, 64, 56
2, 73569, Control_c, 0, 64, 55
2, 73589, Control_c, 0, 64, 54
2, 73604, Note_on_c, 0, 60, 48
2, 73608, Control_c, 0, 64, 53
2, 73628, Control_c, 0, 64, 51
2, 73646, Control_c, 0, 64, 49
2, 73657, Note_on_c, 0, 60, 0
2, 73666, Control_c, 0, 64, 47
2, 73685, Control_c, 0, 64, 47
2, 73713, Note_on_c, 0, 59, 50
2, 73723, Control_c, 0, 64, 46
2, 73743, Control_c, 0, 64, 45
2, 73762, Control_c, 0, 64, 43
2, 73781, Control_c, 0, 64, 41
2, 73781, Note_on_c, 0, 74, 0
2, 73785, Note_on_c, 0, 59, 0
2, 73799, Note_on_c, 0, 72, 53
2, 73800, Control_c, 0, 64, 40
2, 73815, Note_on_c, 0, 57, 44
2, 73877, Control_c, 0, 64, 41
2, 73915, Control_c, 0, 64, 42
2, 73935, Control_c, 0, 64, 43
2, 73954, Control_c, 0, 64, 44
2, 73974, Control_c, 0, 64, 45
2, 73992, Control_c, 0, 64, 46
2, 74009, Note_on_c, 0, 57, 0
2, 74012, Control_c, 0, 64, 49
2, 74023, Note_on_c, 0, 56, 51
2, 74031, Control_c, 0, 64, 51
2, 74037, Note_on_c, 0, 72, 0
2, 74044, Note_on_c, 0, 71, 49
2, 74049, Control_c, 0, 64, 54
2, 74069, Control_c, 0, 64, 56
2, 74088, Control_c, 0, 64, 57
2, 74108, Control_c, 0, 64, 58
2, 74126, Control_c, 0, 64, 59
2, 74146, Control_c, 0, 64, 60
2, 74165, Control_c, 0, 64, 60
2, 74223, Control_c, 0, 64, 60
2, 74228, Note_on_c, 0, 56, 0
2, 74242, Control_c, 0, 64, 59
2, 74247, Note_on_c, 0, 71, 0
2, 74261, Control_c, 0, 64, 58
2, 74268, Note_on_c, 0, 57, 46
2, 74277, Note_on_c, 0, 72, 54
2, 74338, Control_c, 0, 64, 58
2, 74357, Control_c, 0, 64, 59
2, 74377, Control_c, 0, 64, 60
2, 74395, Control_c, 0, 64, 60
2, 74415, Control_c, 0, 64, 61
2, 74434, Control_c, 0, 64, 61
2, 74454, Control_c, 0, 64, 62
2, 74472, Control_c, 0, 64, 63
2, 74475, Note_on_c, 0, 53, 56
2, 74492, Control_c, 0, 64, 63
2, 74529, Control_c, 0, 64, 64
2, 74548, Note_on_c, 0, 57, 0
2, 74643, Control_c, 0, 64, 63
2, 74660, Note_on_c, 0, 53, 0
2, 74663, Control_c, 0, 64, 61
2, 74681, Control_c, 0, 64, 57
2, 74688, Note_on_c, 0, 52, 51
2, 74701, Control_c, 0, 64, 51
2, 74706, Note_on_c, 0, 73, 65
2, 74720, Control_c, 0, 64, 46
2, 74739, Control_c, 0, 64, 43
2, 74778, Control_c, 0, 64, 44
2, 74797, Control_c, 0, 64, 46
2, 74806, Note_on_c, 0, 72, 0
2, 74816, Control_c, 0, 64, 48
2, 74835, Control_c, 0, 64, 52
2, 74855, Control_c, 0, 64, 56
2, 74873, Control_c, 0, 64, 59
2, 74893, Control_c, 0, 64, 61
2, 74912, Control_c, 0, 64, 63
2, 74918, Note_on_c, 0, 58, 57
2, 74932, Control_c, 0, 64, 63
2, 74950, Control_c, 0, 64, 64
2, 74969, Control_c, 0, 64, 64
2, 74989, Control_c, 0, 64, 65
2, 75027, Control_c, 0, 64, 65
2, 75048, Control_c, 0, 64, 66
2, 75106, Control_c, 0, 64, 65
2, 75125, Control_c, 0, 64, 64
2, 75144, Control_c, 0, 64, 63
2, 75154, Note_on_c, 0, 59, 59
2, 75155, Note_on_c, 0, 74, 70
2, 75163, Control_c, 0, 64, 61
2, 75183, Control_c, 0, 64, 59
2, 75202, Control_c, 0, 64, 56
2, 75221, Control_c, 0, 64, 55
2, 75233, Note_on_c, 0, 73, 0
2, 75240, Control_c, 0, 64, 54
2, 75260, Control_c, 0, 64, 54
2, 75278, Control_c, 0, 64, 52
2, 75298, Control_c, 0, 64, 50
2, 75317, Control_c, 0, 64, 44
2, 75337, Control_c, 0, 64, 36
2, 75346, Note_on_c, 0, 52, 0
2, 75355, Control_c, 0, 64, 26
2, 75361, Note_on_c, 0, 55, 64
2, 75361, Note_on_c, 0, 58, 0
2, 75375, Control_c, 0, 64, 0
2, 75380, Note_on_c, 0, 59, 0
2, 75561, Note_on_c, 0, 54, 67
2, 75562, Note_on_c, 0, 75, 77
2, 75580, Note_on_c, 0, 55, 0
2, 75684, Note_on_c, 0, 74, 0
2, 75808, Note_on_c, 0, 60, 67
2, 76000, Note_on_c, 0, 54, 0
2, 76028, Note_on_c, 0, 76, 75
2, 76117, Note_on_c, 0, 75, 0
2, 76242, Note_on_c, 0, 59, 68
2, 76320, Note_on_c, 0, 60, 0
2, 76464, Note_on_c, 0, 78, 74
2, 76567, Note_on_c, 0, 76, 0
2, 76681, Note_on_c, 0, 57, 62
2, 76690, Note_on_c, 0, 59, 0
2, 76917, Note_on_c, 0, 57, 0
2, 76927, Note_on_c, 0, 78, 0
2, 76928, Note_on_c, 0, 64, 49
2, 76941, Note_on_c, 0, 79, 61
2, 77033, Note_on_c, 0, 77, 58
2, 77049, Note_on_c, 0, 79, 0
2, 77115, Note_on_c, 0, 76, 64
2, 77115, Note_on_c, 0, 77, 0
2, 77196, Note_on_c, 0, 76, 0
2, 77218, Note_on_c, 0, 74, 63
2, 77320, Note_on_c, 0, 74, 0
2, 77332, Note_on_c, 0, 73, 59
2, 77374, Note_on_c, 0, 52, 43
2, 77568, Note_on_c, 0, 80, 71
2, 77648, Note_on_c, 0, 73, 0
2, 77806, Note_on_c, 0, 81, 72
2, 77807, Note_on_c, 0, 53, 58
2, 78010, Note_on_c, 0, 52, 0
2, 78024, Note_on_c, 0, 75, 77
2, 78089, Note_on_c, 0, 80, 0
2, 78099, Note_on_c, 0, 81, 0
2, 78235, Note_on_c, 0, 74, 75
2, 78253, Note_on_c, 0, 54, 68
2, 78267, Note_on_c, 0, 64, 0
2, 78327, Note_on_c, 0, 75, 0
2, 78382, Note_on_c, 0, 53, 0
2, 78464, Note_on_c, 0, 82, 82
2, 78678, Note_on_c, 0, 55, 63
2, 78701, Note_on_c, 0, 83, 77
2, 78763, Note_on_c, 0, 74, 0
2, 78773, Note_on_c, 0, 54, 0
2, 78867, Note_on_c, 0, 82, 0
2, 78919, Note_on_c, 0, 77, 79
2, 78974, Note_on_c, 0, 83, 0
2, 79130, Note_on_c, 0, 76, 81
2, 79138, Note_on_c, 0, 56, 62
2, 79145, Note_on_c, 0, 77, 0
2, 79270, Note_on_c, 0, 55, 0
2, 79352, Note_on_c, 0, 74, 73
2, 79406, Note_on_c, 0, 76, 0
2, 79565, Note_on_c, 0, 57, 66
2, 79607, Note_on_c, 0, 56, 0
2, 79798, Note_on_c, 0, 72, 67
2, 79841, Note_on_c, 0, 74, 0
2, 79988, Note_on_c, 0, 57, 0
2, 80017, Note_on_c, 0, 59, 57
2, 80247, Note_on_c, 0, 71, 61
2, 80249, Note_on_c, 0, 72, 0
2, 80468, Note_on_c, 0, 60, 48
2, 80479, Note_on_c, 0, 59, 0
2, 80651, Note_on_c, 0, 71, 0
2, 80689, Note_on_c, 0, 69, 58
2, 80795, Note_on_c, 0, 69, 0
2, 80801, Note_on_c, 0, 71, 64
2, 80877, Note_on_c, 0, 71, 0
2, 80888, Note_on_c, 0, 72, 62
2, 80899, Note_on_c, 0, 57, 48
2, 81128, Note_on_c, 0, 63, 68
2, 81249, Note_on_c, 0, 72, 0
2, 81347, Note_on_c, 0, 64, 74
2, 81359, Note_on_c, 0, 55, 60
2, 81380, Note_on_c, 0, 63, 0
2, 81483, Note_on_c, 0, 60, 0
2, 81537, Note_on_c, 0, 57, 0
2, 81573, Note_on_c, 0, 73, 71
2, 81780, Note_on_c, 0, 74, 69
2, 81789, Note_on_c, 0, 53, 63
2, 81831, Note_on_c, 0, 55, 0
2, 81877, Note_on_c, 0, 73, 0
2, 82023, Note_on_c, 0, 65, 72
2, 82040, Note_on_c, 0, 64, 0
2, 82100, Note_on_c, 0, 74, 0
2, 82224, Note_on_c, 0, 53, 0
2, 82228, Note_on_c, 0, 52, 51
2, 82278, Note_on_c, 0, 67, 58
2, 82348, Note_on_c, 0, 65, 0
2, 82382, Note_on_c, 0, 53, 55
2, 82424, Note_on_c, 0, 52, 0
2, 82470, Note_on_c, 0, 55, 53
2, 82483, Note_on_c, 0, 53, 0
2, 82564, Note_on_c, 0, 55, 0
2, 82566, Note_on_c, 0, 57, 62
2, 82673, Note_on_c, 0, 74, 60
2, 82676, Note_on_c, 0, 58, 52
2, 82690, Note_on_c, 0, 57, 0
2, 82753, Note_on_c, 0, 67, 0
2, 82912, Note_on_c, 0, 53, 54
2, 82981, Note_on_c, 0, 58, 0
2, 83116, Note_on_c, 0, 73, 61
2, 83121, Note_on_c, 0, 53, 0
2, 83123, Note_on_c, 0, 52, 50
2, 83153, Note_on_c, 0, 74, 0
2, 83334, Note_on_c, 0, 57, 51
2, 83467, Note_on_c, 0, 52, 0
2, 83575, Note_on_c, 0, 55, 43
2, 83576, Note_on_c, 0, 70, 49
2, 83580, Note_on_c, 0, 57, 0
2, 83643, Note_on_c, 0, 73, 0
2, 83777, Note_on_c, 0, 55, 0
2, 83797, Note_on_c, 0, 50, 44
2, 84009, Note_on_c, 0, 50, 0
2, 84024, Note_on_c, 0, 49, 40
2, 84120, Note_on_c, 0, 70, 0
2, 84153, Note_on_c, 0, 69, 49
2, 84207, Note_on_c, 0, 69, 0
2, 84260, Note_on_c, 0, 67, 46
2, 84309, Note_on_c, 0, 67, 0
2, 84322, Note_on_c, 0, 69, 62
2, 84445, Note_on_c, 0, 69, 0
2, 84454, Note_on_c, 0, 70, 67
2, 84459, Note_on_c, 0, 55, 41
2, 84667, Note_on_c, 0, 61, 70
2, 84767, Note_on_c, 0, 70, 0
2, 84886, Note_on_c, 0, 55, 0
2, 84887, Note_on_c, 0, 61, 0
2, 84894, Note_on_c, 0, 62, 60
2, 84896, Note_on_c, 0, 53, 49
2, 85014, Note_on_c, 0, 49, 0
2, 85102, Note_on_c, 0, 71, 64
2, 85201, Note_on_c, 0, 62, 0
2, 85313, Note_on_c, 0, 71, 0
2, 85327, Note_on_c, 0, 52, 43
2, 85335, Note_on_c, 0, 72, 55
2, 85348, Note_on_c, 0, 53, 0
2, 85559, Note_on_c, 0, 64, 53
2, 85713, Note_on_c, 0, 72, 0
2, 85722, Note_on_c, 0, 52, 0
2, 85760, Note_on_c, 0, 64, 0
2, 85770, Note_on_c, 0, 50, 45
2, 85785, Note_on_c, 0, 66, 45
2, 85881, Note_on_c, 0, 50, 0
2, 85890, Note_on_c, 0, 52, 54
2, 85974, Note_on_c, 0, 54, 57
2, 85982, Note_on_c, 0, 52, 0
2, 86055, Note_on_c, 0, 54, 0
2, 86077, Note_on_c, 0, 55, 54
2, 86146, Note_on_c, 0, 55, 0
2, 86179, Note_on_c, 0, 66, 0
2, 86181, Note_on_c, 0, 72, 57
2, 86196, Note_on_c, 0, 57, 39
2, 86425, Note_on_c, 0, 51, 43
2, 86466, Note_on_c, 0, 57, 0
2, 86626, Note_on_c, 0, 51, 0
2, 86645, Note_on_c, 0, 50, 41
2, 86656, Note_on_c, 0, 72, 0
2, 86669, Note_on_c, 0, 71, 47
2, 86876, Note_on_c, 0, 55, 38
2, 87089, Note_on_c, 0, 50, 0
2, 87113, Note_on_c, 0, 71, 0
2, 87131, Note_on_c, 0, 69, 43
2, 87149, Note_on_c, 0, 54, 27
2, 87155, Note_on_c, 0, 55, 0
2, 87376, Note_on_c, 0, 48, 40
2, 87456, Note_on_c, 0, 54, 0
2, 87655, Note_on_c, 0, 47, 40
2, 87707, Note_on_c, 0, 48, 0
2, 87742, Note_on_c, 0, 69, 0
2, 87789, Note_on_c, 0, 67, 42
2, 87902, Note_on_c, 0, 67, 0
2, 87909, Note_on_c, 0, 69, 47
2, 87967, Note_on_c, 0, 69, 0
2, 88002, Note_on_c, 0, 71, 49
2, 88076, Note_on_c, 0, 71, 0
2, 88092, Note_on_c, 0, 52, 38
2, 88114, Note_on_c, 0, 72, 52
2, 88375, Note_on_c, 0, 67, 46
2, 88582, Note_on_c, 0, 51, 43
2, 88592, Note_on_c, 0, 47, 0
2, 88597, Note_on_c, 0, 66, 56
2, 88642, Note_on_c, 0, 67, 0
2, 88726, Note_on_c, 0, 52, 0
2, 88752, Note_on_c, 0, 72, 0
2, 88821, Note_on_c, 0, 70, 64
2, 89020, Note_on_c, 0, 50, 53
2, 89028, Note_on_c, 0, 71, 67
2, 89074, Note_on_c, 0, 66, 0
2, 89149, Note_on_c, 0, 70, 0
2, 89218, Note_on_c, 0, 51, 0
2, 89249, Note_on_c, 0, 65, 61
2, 89461, Note_on_c, 0, 49, 60
2, 89478, Note_on_c, 0, 64, 64
2, 89550, Note_on_c, 0, 65, 0
2, 89645, Note_on_c, 0, 50, 0
2, 89688, Note_on_c, 0, 68, 71
2, 89698, Note_on_c, 0, 71, 0
2, 89843, Note_on_c, 0, 64, 0
2, 89900, Note_on_c, 0, 48, 58
2, 89919, Note_on_c, 0, 69, 68
2, 89979, Note_on_c, 0, 68, 0
2, 90059, Note_on_c, 0, 49, 0
2, 90143, Note_on_c, 0, 63, 70
2, 90340, Note_on_c, 0, 47, 62
2, 90464, Note_on_c, 0, 48, 0
2, 90488, Note_on_c, 0, 69, 0
2, 90562, Note_on_c, 0, 64, 72
2, 90656, Note_on_c, 0, 63, 0
2, 90775, Note_on_c, 0, 45, 64
2, 90810, Note_on_c, 0, 47, 0
2, 91011, Note_on_c, 0, 66, 71
2, 91072, Note_on_c, 0, 64, 0
2, 91240, Note_on_c, 0, 66, 0
2, 91269, Note_on_c, 0, 59, 70
2, 91310, Control_c, 0, 64, 52
2, 91328, Control_c, 0, 64, 62
2, 91348, Control_c, 0, 64, 64
2, 91348, Note_on_c, 0, 48, 48
2, 91367, Control_c, 0, 64, 64
2, 91387, Control_c, 0, 64, 65
2, 91405, Control_c, 0, 64, 66
2, 91407, Note_on_c, 0, 45, 0
2, 91425, Control_c, 0, 64, 66
2, 91444, Control_c, 0, 64, 67
2, 91458, Note_on_c, 0, 59, 0
2, 91460, Note_on_c, 0, 48, 0
2, 91464, Control_c, 0, 64, 68
2, 91466, Note_on_c, 0, 47, 63
2, 91482, Control_c, 0, 64, 68
2, 91502, Control_c, 0, 64, 69
2, 91578, Note_on_c, 0, 45, 59
2, 91579, Control_c, 0, 64, 68
2, 91592, Note_on_c, 0, 47, 0
2, 91598, Control_c, 0, 64, 68
2, 91617, Control_c, 0, 64, 66
2, 91636, Control_c, 0, 64, 63
2, 91656, Control_c, 0, 64, 59
2, 91671, Note_on_c, 0, 45, 0
2, 91674, Control_c, 0, 64, 54
2, 91677, Note_on_c, 0, 44, 52
2, 91690, Note_on_c, 0, 77, 53
2, 91693, Control_c, 0, 64, 51
2, 91695, Note_on_c, 0, 76, 56
2, 91713, Control_c, 0, 64, 49
2, 91732, Control_c, 0, 64, 48
2, 91751, Control_c, 0, 64, 47
2, 91770, Control_c, 0, 64, 45
2, 91790, Control_c, 0, 64, 44
2, 91827, Control_c, 0, 64, 45
2, 91845, Note_on_c, 0, 77, 0
2, 91846, Control_c, 0, 64, 45
2, 91895, Note_on_c, 0, 49, 68
2, 91904, Control_c, 0, 64, 45
2, 91923, Control_c, 0, 64, 44
2, 91943, Control_c, 0, 64, 44
2, 91961, Control_c, 0, 64, 42
2, 91981, Control_c, 0, 64, 41
2, 92064, Note_on_c, 0, 44, 0
2, 92109, Note_on_c, 0, 50, 58
2, 92122, Note_on_c, 0, 77, 76
2, 92135, Control_c, 0, 64, 40
2, 92148, Note_on_c, 0, 76, 0
2, 92269, Control_c, 0, 64, 39
2, 92342, Note_on_c, 0, 46, 68
2, 92347, Control_c, 0, 64, 39
2, 92379, Note_on_c, 0, 49, 0
2, 92462, Note_on_c, 0, 50, 0
2, 92539, Control_c, 0, 64, 38
2, 92558, Control_c, 0, 64, 38
2, 92561, Note_on_c, 0, 45, 58
2, 92577, Control_c, 0, 64, 37
2, 92581, Note_on_c, 0, 78, 81
2, 92604, Note_on_c, 0, 46, 0
2, 92634, Control_c, 0, 64, 36
2, 92692, Control_c, 0, 64, 36
2, 92724, Note_on_c, 0, 77, 0
2, 92730, Control_c, 0, 64, 35
2, 92750, Control_c, 0, 64, 34
2, 92768, Control_c, 0, 64, 33
2, 92781, Note_on_c, 0, 51, 75
2, 92789, Control_c, 0, 64, 32
2, 92808, Control_c, 0, 64, 31
2, 92828, Control_c, 0, 64, 31
2, 92860, Note_on_c, 0, 45, 0
2, 92866, Control_c, 0, 64, 30
2, 92885, Control_c, 0, 64, 29
2, 92904, Control_c, 0, 64, 28
2, 92923, Control_c, 0, 64, 25
2, 92943, Control_c, 0, 64, 19
2, 92962, Control_c, 0, 64, 0
2, 93012, Note_on_c, 0, 52, 70
2, 93032, Note_on_c, 0, 79, 84
2, 93127, Note_on_c, 0, 78, 0
2, 93237, Note_on_c, 0, 48, 78
2, 93292, Note_on_c, 0, 52, 0
2, 93295, Note_on_c, 0, 51, 0
2, 93464, Note_on_c, 0, 47, 65
2, 93467, Note_on_c, 0, 80, 88
2, 93493, Note_on_c, 0, 48, 0
2, 93571, Note_on_c, 0, 79, 0
2, 93694, Note_on_c, 0, 53, 72
2, 93800, Note_on_c, 0, 47, 0
2, 93939, Note_on_c, 0, 81, 87
2, 94030, Note_on_c, 0, 80, 0
2, 94159, Note_on_c, 0, 52, 66
2, 94208, Note_on_c, 0, 53, 0
2, 94417, Note_on_c, 0, 83, 89
2, 94486, Note_on_c, 0, 81, 0
2, 94665, Note_on_c, 0, 50, 69
2, 94734, Note_on_c, 0, 52, 0
2, 94985, Note_on_c, 0, 48, 66
2, 95033, Note_on_c, 0, 50, 0
2, 95228, Note_on_c, 0, 83, 0
2, 95241, Note_on_c, 0, 81, 79
2, 95338, Note_on_c, 0, 83, 82
2, 95369, Note_on_c, 0, 81, 0
2, 95439, Note_on_c, 0, 84, 76
2, 95444, Note_on_c, 0, 52, 65
2, 95481, Note_on_c, 0, 83, 0
2, 95503, Note_on_c, 0, 48, 0
2, 95757, Note_on_c, 0, 76, 80
2, 96008, Note_on_c, 0, 54, 73
2, 96181, Note_on_c, 0, 52, 0
2, 96219, Note_on_c, 0, 84, 0
2, 96235, Note_on_c, 0, 75, 83
2, 96354, Note_on_c, 0, 76, 0
2, 96458, Note_on_c, 0, 56, 67
2, 96459, Note_on_c, 0, 83, 73
2, 96558, Note_on_c, 0, 54, 0
2, 96696, Note_on_c, 0, 74, 70
2, 96802, Note_on_c, 0, 83, 0
2, 96857, Note_on_c, 0, 75, 0
2, 96911, Note_on_c, 0, 57, 67
2, 96965, Note_on_c, 0, 56, 0
2, 97027, Note_on_c, 0, 72, 77
2, 97037, Note_on_c, 0, 74, 0
2, 97132, Note_on_c, 0, 74, 70
2, 97163, Note_on_c, 0, 72, 0
2, 97223, Note_on_c, 0, 76, 76
2, 97260, Note_on_c, 0, 74, 0
2, 97329, Note_on_c, 0, 45, 60
2, 97329, Note_on_c, 0, 77, 72
2, 97350, Note_on_c, 0, 76, 0
2, 97604, Note_on_c, 0, 69, 78
2, 97826, Note_on_c, 0, 47, 67
2, 97955, Note_on_c, 0, 45, 0
2, 98033, Note_on_c, 0, 68, 79
2, 98068, Note_on_c, 0, 77, 0
2, 98109, Note_on_c, 0, 57, 0
2, 98149, Note_on_c, 0, 69, 0
2, 98263, Note_on_c, 0, 49, 57
2, 98289, Note_on_c, 0, 76, 63
2, 98340, Note_on_c, 0, 47, 0
2, 98501, Note_on_c, 0, 76, 0
2, 98513, Note_on_c, 0, 67, 57
2, 98557, Note_on_c, 0, 68, 0
2, 98708, Note_on_c, 0, 49, 0
2, 98724, Note_on_c, 0, 50, 29
2, 98792, Note_on_c, 0, 67, 0
2, 98825, Note_on_c, 0, 65, 59
2, 98911, Note_on_c, 0, 65, 0
2, 98933, Note_on_c, 0, 67, 59
2, 99031, Note_on_c, 0, 69, 66
2, 99092, Note_on_c, 0, 67, 0
2, 99135, Note_on_c, 0, 38, 54
2, 99157, Note_on_c, 0, 70, 68
2, 99173, Note_on_c, 0, 69, 0
2, 99399, Note_on_c, 0, 62, 57
2, 99602, Note_on_c, 0, 40, 65
2, 99659, Note_on_c, 0, 50, 0
2, 99667, Note_on_c, 0, 38, 0
2, 99823, Note_on_c, 0, 61, 72
2, 99838, Note_on_c, 0, 70, 0
2, 100062, Note_on_c, 0, 52, 65
2, 100068, Note_on_c, 0, 69, 66
2, 100087, Note_on_c, 0, 62, 0
2, 100102, Note_on_c, 0, 40, 0
2, 100304, Note_on_c, 0, 60, 65
2, 100350, Note_on_c, 0, 69, 0
2, 100382, Note_on_c, 0, 61, 0
2, 100499, Note_on_c, 0, 51, 52
2, 100553, Note_on_c, 0, 52, 0
2, 100751, Note_on_c, 0, 59, 64
2, 100758, Note_on_c, 0, 60, 0
2, 100971, Note_on_c, 0, 50, 45
2, 101000, Note_on_c, 0, 68, 54
2, 101039, Note_on_c, 0, 59, 0
2, 101057, Note_on_c, 0, 51, 0
2, 101184, Note_on_c, 0, 68, 0
2, 101212, Note_on_c, 0, 59, 56
2, 101439, Note_on_c, 0, 49, 42
2, 101543, Note_on_c, 0, 50, 0
2, 101660, Note_on_c, 0, 57, 49
2, 101886, Note_on_c, 0, 57, 0
2, 101888, Note_on_c, 0, 48, 28
2, 101898, Note_on_c, 0, 65, 41
2, 101996, Note_on_c, 0, 49, 0
2, 102083, Note_on_c, 0, 59, 0
2, 102114, Note_on_c, 0, 65, 0
2, 102152, Note_on_c, 0, 57, 36
2, 102381, Note_on_c, 0, 47, 42
2, 102441, Note_on_c, 0, 48, 0
2, 102547, Note_on_c, 0, 47, 0
2, 102568, Note_on_c, 0, 57, 0
2, 102611, Note_on_c, 0, 56, 48
2, 102684, Note_on_c, 0, 56, 0
2, 102721, Note_on_c, 0, 54, 53
2, 102794, Note_on_c, 0, 54, 0
2, 102835, Note_on_c, 0, 56, 45
2, 102843, Note_on_c, 0, 47, 42
2, 103087, Note_on_c, 0, 56, 0
2, 103113, Note_on_c, 0, 62, 47
2, 103329, Note_on_c, 0, 45, 47
2, 103367, Note_on_c, 0, 47, 0
2, 103410, Note_on_c, 0, 62, 0
2, 103432, Note_on_c, 0, 60, 52
2, 103495, Note_on_c, 0, 45, 0
2, 103517, Note_on_c, 0, 60, 0
2, 103534, Note_on_c, 0, 59, 61
2, 103598, Note_on_c, 0, 59, 0
2, 103634, Note_on_c, 0, 57, 64
2, 103706, Note_on_c, 0, 57, 0
2, 103713, Note_on_c, 0, 45, 59
2, 103734, Note_on_c, 0, 59, 63
2, 103919, Note_on_c, 0, 59, 0
2, 104015, Note_on_c, 0, 65, 68
2, 104228, Note_on_c, 0, 44, 65
2, 104331, Note_on_c, 0, 65, 0
2, 104348, Note_on_c, 0, 45, 0
2, 104354, Note_on_c, 0, 64, 69
2, 104455, Note_on_c, 0, 64, 0
2, 104457, Note_on_c, 0, 62, 75
2, 104527, Note_on_c, 0, 44, 0
2, 104551, Note_on_c, 0, 61, 73
2, 104556, Note_on_c, 0, 62, 0
2, 104643, Note_on_c, 0, 62, 75
2, 104649, Note_on_c, 0, 61, 0
2, 104651, Note_on_c, 0, 44, 73
2, 104824, Note_on_c, 0, 62, 0
2, 104933, Note_on_c, 0, 71, 80
2, 105154, Note_on_c, 0, 40, 70
2, 105240, Note_on_c, 0, 44, 0
2, 105264, Note_on_c, 0, 69, 77
2, 105268, Note_on_c, 0, 71, 0
2, 105360, Note_on_c, 0, 68, 79
2, 105375, Note_on_c, 0, 69, 0
2, 105451, Note_on_c, 0, 68, 0
2, 105460, Note_on_c, 0, 66, 84
2, 105464, Note_on_c, 0, 40, 0
2, 105573, Note_on_c, 0, 68, 81
2, 105577, Note_on_c, 0, 40, 65
2, 105593, Note_on_c, 0, 66, 0
2, 105858, Note_on_c, 0, 68, 0
2, 105905, Note_on_c, 0, 74, 73
2, 106143, Note_on_c, 0, 45, 60
2, 106215, Note_on_c, 0, 40, 0
2, 106416, Note_on_c, 0, 72, 64
2, 106474, Note_on_c, 0, 74, 0
2, 106501, Note_on_c, 0, 72, 0
2, 106504, Note_on_c, 0, 71, 71
2, 106600, Note_on_c, 0, 71, 0
2, 106609, Note_on_c, 0, 72, 64
2, 106711, Note_on_c, 0, 45, 0
2, 106716, Note_on_c, 0, 50, 60
2, 106821, Note_on_c, 0, 50, 0
2, 106831, Note_on_c, 0, 52, 60
2, 106835, Note_on_c, 0, 69, 59
2, 106854, Note_on_c, 0, 72, 0
2, 106934, Note_on_c, 0, 52, 0
2, 106937, Note_on_c, 0, 54, 62
2, 107030, Note_on_c, 0, 69, 0
2, 107034, Note_on_c, 0, 54, 0
2, 107034, Note_on_c, 0, 70, 66
2, 107052, Note_on_c, 0, 55, 55
2, 107264, Note_on_c, 0, 51, 63
2, 107356, Note_on_c, 0, 55, 0
2, 107472, Note_on_c, 0, 50, 60
2, 107502, Note_on_c, 0, 71, 70
2, 107571, Note_on_c, 0, 51, 0
2, 107576, Note_on_c, 0, 70, 0
2, 107712, Note_on_c, 0, 56, 70
2, 107862, Note_on_c, 0, 50, 0
2, 107942, Note_on_c, 0, 57, 61
2, 107945, Note_on_c, 0, 72, 77
2, 108018, Note_on_c, 0, 71, 0
2, 108160, Note_on_c, 0, 53, 72
2, 108208, Note_on_c, 0, 56, 0
2, 108290, Note_on_c, 0, 57, 0
2, 108392, Note_on_c, 0, 52, 66
2, 108413, Note_on_c, 0, 53, 0
2, 108416, Note_on_c, 0, 73, 81
2, 108559, Note_on_c, 0, 72, 0
2, 108628, Note_on_c, 0, 58, 72
2, 108814, Note_on_c, 0, 52, 0
2, 108833, Note_on_c, 0, 74, 76
2, 108898, Note_on_c, 0, 73, 0
2, 109070, Note_on_c, 0, 57, 74
2, 109143, Note_on_c, 0, 58, 0
2, 109327, Note_on_c, 0, 76, 82
2, 109428, Note_on_c, 0, 74, 0
2, 109562, Note_on_c, 0, 55, 72
2, 109671, Note_on_c, 0, 57, 0
2, 109831, Note_on_c, 0, 53, 71
2, 109874, Note_on_c, 0, 55, 0
2, 109956, Note_on_c, 0, 73, 70
2, 109970, Note_on_c, 0, 76, 0
2, 109983, Note_on_c, 0, 53, 0
2, 109986, Note_on_c, 0, 52, 70
2, 110081, Note_on_c, 0, 53, 74
2, 110087, Note_on_c, 0, 74, 76
2, 110099, Note_on_c, 0, 52, 0
2, 110117, Note_on_c, 0, 73, 0
2, 110175, Note_on_c, 0, 53, 0
2, 110181, Note_on_c, 0, 55, 76
2, 110195, Note_on_c, 0, 76, 78
2, 110204, Note_on_c, 0, 74, 0
2, 110301, Note_on_c, 0, 57, 75
2, 110314, Note_on_c, 0, 55, 0
2, 110320, Note_on_c, 0, 77, 78
2, 110349, Note_on_c, 0, 76, 0
2, 110591, Note_on_c, 0, 72, 77
2, 110828, Note_on_c, 0, 56, 62
2, 110836, Note_on_c, 0, 71, 77
2, 110870, Note_on_c, 0, 72, 0
2, 110986, Note_on_c, 0, 57, 0
2, 111043, Note_on_c, 0, 75, 83
2, 111069, Note_on_c, 0, 77, 0
2, 111103, Note_on_c, 0, 71, 0
2, 111272, Note_on_c, 0, 76, 73
2, 111274, Note_on_c, 0, 55, 63
2, 111347, Note_on_c, 0, 75, 0
2, 111483, Note_on_c, 0, 56, 0
2, 111488, Note_on_c, 0, 70, 77
2, 111723, Note_on_c, 0, 54, 58
2, 111723, Note_on_c, 0, 69, 74
2, 111777, Note_on_c, 0, 70, 0
2, 111866, Note_on_c, 0, 55, 0
2, 111924, Note_on_c, 0, 76, 0
2, 111931, Note_on_c, 0, 73, 72
2, 112006, Note_on_c, 0, 69, 0
2, 112174, Note_on_c, 0, 53, 52
2, 112179, Note_on_c, 0, 74, 66
2, 112238, Note_on_c, 0, 73, 0
2, 112303, Note_on_c, 0, 54, 0
2, 112402, Note_on_c, 0, 68, 68
2, 112521, Note_on_c, 0, 74, 0
2, 112622, Note_on_c, 0, 52, 62
2, 112801, Note_on_c, 0, 53, 0
2, 112850, Note_on_c, 0, 69, 76
2, 112912, Note_on_c, 0, 68, 0
2, 113093, Note_on_c, 0, 50, 62
2, 113177, Note_on_c, 0, 52, 0
2, 113308, Note_on_c, 0, 71, 80
2, 113380, Note_on_c, 0, 69, 0
2, 113569, Note_on_c, 0, 71, 0
2, 113572, Note_on_c, 0, 64, 78
2, 113868, Note_on_c, 0, 48, 55
2, 113889, Note_on_c, 0, 76, 77
2, 113926, Note_on_c, 0, 50, 0
2, 113994, Note_on_c, 0, 48, 0
2, 113996, Note_on_c, 0, 47, 71
2, 114029, Note_on_c, 0, 64, 0
2, 114099, Note_on_c, 0, 48, 75
2, 114109, Note_on_c, 0, 47, 0
2, 114245, Note_on_c, 0, 74, 74
2, 114325, Note_on_c, 0, 76, 0
2, 114370, Note_on_c, 0, 45, 65
2, 114372, Note_on_c, 0, 72, 81
2, 114377, Note_on_c, 0, 48, 0
2, 114404, Note_on_c, 0, 74, 0
2, 114495, Note_on_c, 0, 71, 81
2, 114502, Note_on_c, 0, 72, 0
2, 114657, Note_on_c, 0, 52, 65
2, 114664, Note_on_c, 0, 74, 74
2, 114675, Note_on_c, 0, 71, 0
2, 114759, Note_on_c, 0, 45, 0
2, 114810, Note_on_c, 0, 72, 78
2, 114853, Note_on_c, 0, 74, 0
2, 114920, Note_on_c, 0, 71, 76
2, 114971, Note_on_c, 0, 72, 0
2, 115020, Note_on_c, 0, 71, 0
2, 115036, Note_on_c, 0, 69, 73
2, 115155, Note_on_c, 0, 69, 0
2, 115172, Note_on_c, 0, 72, 70
2, 115180, Note_on_c, 0, 40, 54
2, 115223, Note_on_c, 0, 52, 0
2, 115305, Note_on_c, 0, 71, 73
2, 115326, Note_on_c, 0, 72, 0
2, 115433, Note_on_c, 0, 69, 79
2, 115452, Note_on_c, 0, 71, 0
2, 115584, Note_on_c, 0, 68, 73
2, 115589, Note_on_c, 0, 69, 0
2, 115715, Note_on_c, 0, 40, 0
2, 115766, Note_on_c, 0, 45, 46
2, 115818, Note_on_c, 0, 68, 0
2, 115834, Note_on_c, 0, 69, 64
2, 115920, Control_c, 0, 64, 17
2, 115940, Control_c, 0, 64, 36
2, 115958, Control_c, 0, 64, 47
2, 115978, Control_c, 0, 64, 53
2, 115997, Control_c, 0, 64, 58
2, 116016, Control_c, 0, 64, 61
2, 116019, Note_on_c, 0, 69, 0
2, 116030, Note_on_c, 0, 68, 62
2, 116035, Control_c, 0, 64, 62
2, 116055, Control_c, 0, 64, 63
2, 116074, Control_c, 0, 64, 63
2, 116093, Control_c, 0, 64, 64
2, 116107, Note_on_c, 0, 68, 0
2, 116112, Control_c, 0, 64, 64
2, 116132, Control_c, 0, 64, 65
2, 116141, Note_on_c, 0, 69, 67
2, 116151, Control_c, 0, 64, 64
2, 116200, Note_on_c, 0, 45, 0
2, 116203, Note_on_c, 0, 47, 58
2, 116203, Note_on_c, 0, 69, 0
2, 116209, Control_c, 0, 64, 64
2, 116227, Control_c, 0, 64, 63
2, 116229, Note_on_c, 0, 68, 68
2, 116246, Control_c, 0, 64, 62
2, 116266, Control_c, 0, 64, 61
2, 116266, Note_on_c, 0, 68, 0
2, 116285, Control_c, 0, 64, 58
2, 116297, Note_on_c, 0, 47, 0
2, 116304, Control_c, 0, 64, 54
2, 116305, Note_on_c, 0, 69, 67
2, 116309, Note_on_c, 0, 48, 61
2, 116324, Control_c, 0, 64, 49
2, 116344, Control_c, 0, 64, 44
2, 116362, Control_c, 0, 64, 36
2, 116371, Note_on_c, 0, 69, 0
2, 116379, Note_on_c, 0, 68, 71
2, 116382, Control_c, 0, 64, 27
2, 116392, Note_on_c, 0, 48, 0
2, 116401, Control_c, 0, 64, 0
2, 116401, Note_on_c, 0, 50, 66
2, 116426, Note_on_c, 0, 68, 0
2, 116462, Note_on_c, 0, 69, 67
2, 116468, Note_on_c, 0, 50, 0
2, 116511, Note_on_c, 0, 52, 60
2, 116529, Note_on_c, 0, 69, 0
2, 116551, Note_on_c, 0, 68, 68
2, 116588, Note_on_c, 0, 68, 0
2, 116622, Note_on_c, 0, 52, 0
2, 116626, Note_on_c, 0, 69, 65
2, 116631, Note_on_c, 0, 54, 60
2, 116682, Note_on_c, 0, 69, 0
2, 116692, Note_on_c, 0, 68, 60
2, 116742, Note_on_c, 0, 68, 0
2, 116758, Note_on_c, 0, 54, 0
2, 116767, Note_on_c, 0, 56, 55
2, 116787, Note_on_c, 0, 69, 57
2, 116837, Note_on_c, 0, 69, 0
2, 116871, Note_on_c, 0, 68, 56
2, 116885, Note_on_c, 0, 56, 0
2, 116902, Note_on_c, 0, 68, 0
2, 116940, Note_on_c, 0, 57, 41
2, 116950, Note_on_c, 0, 69, 53
2, 116984, Note_on_c, 0, 69, 0
2, 116999, Note_on_c, 0, 68, 68
2, 117033, Note_on_c, 0, 68, 0
2, 117091, Note_on_c, 0, 69, 60
2, 117496, Control_c, 0, 64, 31
2, 117515, Control_c, 0, 64, 48
2, 117534, Control_c, 0, 64, 55
2, 117553, Control_c, 0, 64, 59
2, 117573, Control_c, 0, 64, 61
2, 117591, Control_c, 0, 64, 62
2, 117611, Control_c, 0, 64, 62
2, 117630, Control_c, 0, 64, 63
2, 117650, Control_c, 0, 64, 64
2, 117758, Note_on_c, 0, 57, 0
2, 117762, Control_c, 0, 64, 63
2, 117801, Control_c, 0, 64, 63
2, 117820, Control_c, 0, 64, 62
2, 117839, Control_c, 0, 64, 61
2, 117859, Control_c, 0, 64, 60
2, 117877, Control_c, 0, 64, 59
2, 117897, Control_c, 0, 64, 58
2, 117916, Control_c, 0, 64, 57
2, 117936, Control_c, 0, 64, 57
2, 118012, Control_c, 0, 64, 56
2, 118031, Control_c, 0, 64, 56
2, 118065, Note_on_c, 0, 45, 32
2, 118070, Control_c, 0, 64, 55
2, 118146, Control_c, 0, 64, 55
2, 118223, Control_c, 0, 64, 55
2, 118263, Control_c, 0, 64, 56
2, 118301, Control_c, 0, 64, 56
2, 118340, Control_c, 0, 64, 57
2, 118378, Control_c, 0, 64, 57
2, 118397, Control_c, 0, 64, 58
2, 118416, Control_c, 0, 64, 58
2, 118435, Control_c, 0, 64, 59
2, 118455, Control_c, 0, 64, 60
2, 118474, Control_c, 0, 64, 61
2, 118493, Control_c, 0, 64, 62
2, 118512, Control_c, 0, 64, 63
2, 118532, Control_c, 0, 64, 64
2, 118551, Control_c, 0, 64, 65
2, 118570, Control_c, 0, 64, 67
2, 118589, Control_c, 0, 64, 69
2, 118609, Control_c, 0, 64, 72
2, 118627, Control_c, 0, 64, 76
2, 118646, Control_c, 0, 64, 78
2, 118666, Control_c, 0, 64, 79
2, 118685, Control_c, 0, 64, 80
2, 118745, Note_on_c, 0, 45, 0
2, 118761, Control_c, 0, 64, 80
2, 118775, Note_on_c, 0, 69, 0
2, 118819, Control_c, 0, 64, 81
2, 118953, Control_c, 0, 64, 80
2, 118972, Control_c, 0, 64, 79
2, 118991, Control_c, 0, 64, 78
2, 119011, Control_c, 0, 64, 77
2, 119030, Control_c, 0, 64, 76
2, 119049, Control_c, 0, 64, 75
2, 119125, Control_c, 0, 64, 74
2, 119145, Control_c, 0, 64, 74
2, 119164, Control_c, 0, 64, 72
2, 119183, Control_c, 0, 64, 71
2, 119260, Control_c, 0, 64, 71
2, 119279, Control_c, 0, 64, 70
2, 119299, Control_c, 0, 64, 68
2, 119317, Control_c, 0, 64, 65
2, 119337, Control_c, 0, 64, 64
2, 119356, Control_c, 0, 64, 63
2, 119394, Control_c, 0, 64, 62
2, 119414, Control_c, 0, 64, 62
2, 119433, Control_c, 0, 64, 61
2, 119452, Control_c, 0, 64, 60
2, 119471, Control_c, 0, 64, 60
2, 119491, Control_c, 0, 64, 59
2, 119529, Control_c, 0, 64, 58
2, 119548, Control_c, 0, 64, 58
2, 119567, Control_c, 0, 64, 57
2, 119605, Control_c, 0, 64, 57
2, 119644, Control_c, 0, 64, 56
2, 119683, Control_c, 0, 64, 56
2, 120067, Control_c, 0, 64, 56
2, 120183, Control_c, 0, 64, 57
2, 120278, Control_c, 0, 64, 57
2, 120471, Control_c, 0, 64, 58
2, 120623, Control_c, 0, 64, 58
2, 121142, Control_c, 0, 64, 59
2, 121219, Control_c, 0, 64, 59
2, 121237, Control_c, 0, 64, 60
2, 121257, Control_c, 0, 64, 60
2, 121852, Control_c, 0, 64, 60
2, 121871, Control_c, 0, 64, 56
2, 121891, Control_c, 0, 64, 44
2, 121910, Control_c, 0, 64, 0
2, 122576,End_track
0, 0, End_of_file
