0, 0, Header, 1, 2, 480
1, 0, Start_track
1, 0, Tempo, 500000
1, 0, Time_signature, 4, 2, 24, 8
1, 1, End_track
2,0,Start_track
2,0, Note_on_c, 0, 64, 81
2,703, Note_on_c, 0, 64, 0
2,796, Note_on_c, 0, 60, 90
2,1555, Note_on_c, 0, 60, 0
2,1647, Note_on_c, 0, 65, 88
2,2448, Note_on_c, 0, 65, 0
2,2530, Note_on_c, 0, 56, 91
2,3430, Note_on_c, 0, 56, 0
2,4677, Note_on_c, 0, 62, 57
2,4717, Note_on_c, 0, 62, 0
2,5094, Note_on_c, 0, 59, 61
2,5129, Note_on_c, 0, 59, 0
2,5477, Note_on_c, 0, 64, 62
2,5513, Note_on_c, 0, 64, 0
2,5883, Note_on_c, 0, 60, 61
2,5919, Note_on_c, 0, 60, 0
2,6272, Note_on_c, 0, 57, 67
2,6310, Note_on_c, 0, 57, 0
2,6659, Note_on_c, 0, 69, 88
2,6660, Note_on_c, 0, 54, 64
2,6702, Note_on_c, 0, 54, 0
2,7047, Note_on_c, 0, 63, 74
2,7095, Note_on_c, 0, 63, 0
2,7376, Note_on_c, 0, 69, 0
2,7428, Note_on_c, 0, 52, 55
2,7451, Note_on_c, 0, 67, 83
2,7477, Note_on_c, 0, 52, 0
2,7855, Note_on_c, 0, 64, 67
2,7934, Note_on_c, 0, 64, 0
2,7956, Note_on_c, 0, 62, 68
2,8024, Note_on_c, 0, 60, 70
2,8027, Note_on_c, 0, 62, 0
2,8080, Note_on_c, 0, 60, 0
2,8119, Note_on_c, 0, 59, 79
2,8133, Note_on_c, 0, 67, 0
2,8196, Note_on_c, 0, 72, 96
2,8200, Note_on_c, 0, 57, 77
2,8211, Note_on_c, 0, 59, 0
2,8247, Note_on_c, 0, 57, 0
2,8587, Note_on_c, 0, 60, 72
2,8641, Note_on_c, 0, 60, 0
2,8685, Note_on_c, 0, 59, 76
2,8767, Note_on_c, 0, 57, 78
2,8772, Note_on_c, 0, 59, 0
2,8835, Note_on_c, 0, 57, 0
2,8875, Note_on_c, 0, 55, 69
2,8876, Note_on_c, 0, 72, 0
2,8928, Note_on_c, 0, 55, 0
2,8935, Note_on_c, 0, 63, 93
2,8941, Note_on_c, 0, 54, 72
2,9027, Note_on_c, 0, 54, 0
2,9033, Note_on_c, 0, 55, 76
2,9108, Note_on_c, 0, 55, 0
2,9124, Note_on_c, 0, 57, 71
2,9465, Note_on_c, 0, 57, 0
2,9468, Note_on_c, 0, 55, 64
2,9548, Note_on_c, 0, 55, 0
2,9561, Note_on_c, 0, 54, 61
2,9606, Note_on_c, 0, 54, 0
2,9637, Note_on_c, 0, 52, 71
2,9686, Note_on_c, 0, 63, 0
2,9693, Note_on_c, 0, 52, 0
2,9725, Note_on_c, 0, 51, 66
2,9793, Note_on_c, 0, 51, 0
2,9827, Note_on_c, 0, 52, 61
2,9876, Note_on_c, 0, 52, 0
2,9895, Note_on_c, 0, 54, 66
2,10194, Note_on_c, 0, 54, 0
2,10243, Note_on_c, 0, 52, 54
2,10293, Note_on_c, 0, 52, 0
2,10330, Note_on_c, 0, 51, 60
2,10387, Note_on_c, 0, 51, 0
2,10405, Note_on_c, 0, 49, 58
2,10456, Note_on_c, 0, 49, 0
2,10498, Note_on_c, 0, 47, 60
2,10861, Note_on_c, 0, 69, 74
2,10894, Note_on_c, 0, 69, 0
2,11057, Note_on_c, 0, 47, 0
2,11066, Note_on_c, 0, 49, 53
2,11106, Note_on_c, 0, 49, 0
2,11147, Note_on_c, 0, 51, 59
2,11215, Note_on_c, 0, 51, 0
2,11241, Note_on_c, 0, 66, 70
2,11250, Note_on_c, 0, 52, 56
2,11277, Note_on_c, 0, 66, 0
2,11310, Note_on_c, 0, 52, 0
2,11335, Note_on_c, 0, 51, 55
2,11403, Note_on_c, 0, 51, 0
2,11438, Note_on_c, 0, 52, 58
2,11496, Note_on_c, 0, 52, 0
2,11537, Note_on_c, 0, 51, 52
2,11589, Note_on_c, 0, 51, 0
2,11598, Note_on_c, 0, 71, 73
2,11626, Note_on_c, 0, 52, 52
2,11634, Note_on_c, 0, 71, 0
2,11670, Note_on_c, 0, 52, 0
2,11692, Note_on_c, 0, 51, 61
2,11747, Note_on_c, 0, 51, 0
2,11782, Note_on_c, 0, 49, 63
2,11844, Note_on_c, 0, 49, 0
2,11865, Note_on_c, 0, 51, 60
2,11918, Note_on_c, 0, 51, 0
2,11961, Note_on_c, 0, 67, 70
2,11963, Note_on_c, 0, 52, 58
2,12001, Note_on_c, 0, 67, 0
2,12019, Note_on_c, 0, 52, 0
2,12367, Note_on_c, 0, 64, 66
2,12399, Note_on_c, 0, 64, 0
2,12442, Note_on_c, 0, 52, 58
2,12538, Note_on_c, 0, 53, 71
2,12543, Note_on_c, 0, 52, 0
2,12598, Note_on_c, 0, 53, 0
2,12618, Note_on_c, 0, 55, 73
2,12704, Note_on_c, 0, 55, 0
2,12716, Note_on_c, 0, 57, 73
2,12727, Note_on_c, 0, 61, 72
2,12763, Note_on_c, 0, 57, 0
2,12779, Note_on_c, 0, 61, 0
2,13128, Note_on_c, 0, 69, 69
2,13175, Note_on_c, 0, 69, 0
2,13219, Note_on_c, 0, 55, 50
2,13273, Note_on_c, 0, 55, 0
2,13306, Note_on_c, 0, 53, 56
2,13369, Note_on_c, 0, 53, 0
2,13390, Note_on_c, 0, 52, 56
2,13436, Note_on_c, 0, 52, 0
2,13464, Note_on_c, 0, 50, 55
2,13490, Note_on_c, 0, 65, 60
2,13533, Note_on_c, 0, 65, 0
2,13600, Note_on_c, 0, 50, 0
2,13885, Note_on_c, 0, 62, 59
2,13924, Note_on_c, 0, 62, 0
2,13961, Note_on_c, 0, 50, 50
2,14036, Note_on_c, 0, 50, 0
2,14050, Note_on_c, 0, 52, 53
2,14100, Note_on_c, 0, 52, 0
2,14139, Note_on_c, 0, 53, 55
2,14187, Note_on_c, 0, 53, 0
2,14233, Note_on_c, 0, 59, 60
2,14245, Note_on_c, 0, 55, 45
2,14285, Note_on_c, 0, 59, 0
2,14356, Note_on_c, 0, 55, 0
2,14653, Note_on_c, 0, 67, 48
2,14709, Note_on_c, 0, 67, 0
2,14710, Note_on_c, 0, 53, 46
2,14764, Note_on_c, 0, 53, 0
2,14814, Note_on_c, 0, 52, 53
2,14877, Note_on_c, 0, 52, 0
2,14904, Note_on_c, 0, 50, 47
2,14953, Note_on_c, 0, 50, 0
2,14978, Note_on_c, 0, 48, 47
2,15018, Note_on_c, 0, 64, 59
2,15405, Note_on_c, 0, 69, 60
2,15454, Note_on_c, 0, 64, 0
2,15578, Note_on_c, 0, 50, 57
2,15592, Note_on_c, 0, 48, 0
2,15743, Note_on_c, 0, 50, 0
2,15748, Note_on_c, 0, 52, 60
2,15759, Note_on_c, 0, 76, 83
2,15914, Note_on_c, 0, 52, 0
2,15951, Note_on_c, 0, 53, 53
2,16006, Note_on_c, 0, 53, 0
2,16019, Note_on_c, 0, 52, 56
2,16095, Note_on_c, 0, 52, 0
2,16112, Note_on_c, 0, 50, 65
2,16133, Note_on_c, 0, 68, 62
2,16216, Note_on_c, 0, 69, 0
2,16323, Note_on_c, 0, 52, 72
2,16325, Note_on_c, 0, 50, 0
2,16444, Note_on_c, 0, 76, 0
2,16491, Note_on_c, 0, 52, 0
2,16517, Note_on_c, 0, 53, 65
2,16523, Note_on_c, 0, 72, 90
2,16531, Note_on_c, 0, 68, 0
2,16791, Note_on_c, 0, 53, 0
2,16827, Control_c, 0, 64, 11
2,16845, Control_c, 0, 64, 50
2,16865, Control_c, 0, 64, 56
2,16922, Control_c, 0, 64, 56
2,16928, Note_on_c, 0, 69, 68
2,16942, Control_c, 0, 64, 56
2,16961, Control_c, 0, 64, 55
2,16980, Control_c, 0, 64, 55
2,16999, Control_c, 0, 64, 54
2,17009, Note_on_c, 0, 69, 0
2,17019, Control_c, 0, 64, 53
2,17021, Note_on_c, 0, 72, 0
2,17029, Note_on_c, 0, 67, 67
2,17038, Control_c, 0, 64, 52
2,17057, Control_c, 0, 64, 51
2,17061, Note_on_c, 0, 67, 0
2,17076, Control_c, 0, 64, 49
2,17096, Control_c, 0, 64, 48
2,17114, Control_c, 0, 64, 47
2,17115, Note_on_c, 0, 65, 70
2,17173, Control_c, 0, 64, 46
2,17178, Note_on_c, 0, 65, 0
2,17191, Control_c, 0, 64, 44
2,17208, Note_on_c, 0, 64, 70
2,17211, Control_c, 0, 64, 37
2,17230, Control_c, 0, 64, 0
2,17280, Note_on_c, 0, 62, 75
2,17281, Note_on_c, 0, 64, 0
2,17284, Note_on_c, 0, 77, 92
2,17329, Note_on_c, 0, 62, 0
2,17686, Control_c, 0, 64, 9
2,17686, Note_on_c, 0, 65, 67
2,17706, Control_c, 0, 64, 60
2,17730, Note_on_c, 0, 77, 0
2,17744, Control_c, 0, 64, 59
2,17758, Note_on_c, 0, 65, 0
2,17780, Note_on_c, 0, 64, 74
2,17787, Control_c, 0, 64, 61
2,17805, Control_c, 0, 64, 62
2,17825, Control_c, 0, 64, 64
2,17844, Control_c, 0, 64, 64
2,17853, Note_on_c, 0, 62, 72
2,17863, Control_c, 0, 64, 64
2,17870, Note_on_c, 0, 64, 0
2,17882, Control_c, 0, 64, 63
2,17902, Control_c, 0, 64, 63
2,17921, Control_c, 0, 64, 62
2,17933, Note_on_c, 0, 60, 79
2,17940, Control_c, 0, 64, 59
2,17959, Control_c, 0, 64, 51
2,17962, Note_on_c, 0, 60, 0
2,17979, Control_c, 0, 64, 0
2,18011, Note_on_c, 0, 68, 89
2,18023, Note_on_c, 0, 62, 0
2,18025, Note_on_c, 0, 59, 88
2,18091, Note_on_c, 0, 60, 46
2,18122, Note_on_c, 0, 59, 0
2,18202, Note_on_c, 0, 60, 0
2,18202, Note_on_c, 0, 62, 64
2,18404, Note_on_c, 0, 53, 68
2,18440, Note_on_c, 0, 53, 0
2,18482, Note_on_c, 0, 68, 0
2,18511, Note_on_c, 0, 60, 64
2,18512, Note_on_c, 0, 62, 0
2,18567, Note_on_c, 0, 60, 0
2,18606, Note_on_c, 0, 59, 66
2,18642, Note_on_c, 0, 59, 0
2,18686, Note_on_c, 0, 57, 63
2,18739, Note_on_c, 0, 57, 0
2,18751, Note_on_c, 0, 47, 64
2,18769, Note_on_c, 0, 56, 71
2,18790, Note_on_c, 0, 47, 0
2,18820, Note_on_c, 0, 56, 0
2,18849, Note_on_c, 0, 57, 63
2,18902, Note_on_c, 0, 57, 0
2,18938, Note_on_c, 0, 59, 61
2,19126, Note_on_c, 0, 50, 50
2,19158, Note_on_c, 0, 50, 0
2,19219, Note_on_c, 0, 57, 59
2,19244, Note_on_c, 0, 59, 0
2,19294, Note_on_c, 0, 57, 0
2,19307, Note_on_c, 0, 56, 57
2,19372, Note_on_c, 0, 56, 0
2,19378, Note_on_c, 0, 54, 68
2,19417, Note_on_c, 0, 54, 0
2,19480, Note_on_c, 0, 52, 62
2,19486, Note_on_c, 0, 44, 59
2,19536, Note_on_c, 0, 44, 0
2,19841, Note_on_c, 0, 74, 81
2,19843, Note_on_c, 0, 47, 58
2,19869, Note_on_c, 0, 74, 0
2,19898, Note_on_c, 0, 47, 0
2,20022, Note_on_c, 0, 52, 0
2,20035, Note_on_c, 0, 54, 59
2,20099, Note_on_c, 0, 54, 0
2,20109, Note_on_c, 0, 56, 67
2,20168, Note_on_c, 0, 52, 62
2,20183, Note_on_c, 0, 56, 0
2,20196, Note_on_c, 0, 71, 87
2,20213, Note_on_c, 0, 57, 69
2,20247, Note_on_c, 0, 71, 0
2,20292, Note_on_c, 0, 57, 0
2,20323, Note_on_c, 0, 56, 62
2,20369, Note_on_c, 0, 56, 0
2,20399, Note_on_c, 0, 57, 63
2,20451, Note_on_c, 0, 57, 0
2,20482, Note_on_c, 0, 56, 61
2,20541, Note_on_c, 0, 56, 0
2,20564, Note_on_c, 0, 76, 87
2,20573, Note_on_c, 0, 57, 71
2,20623, Note_on_c, 0, 52, 0
2,20623, Note_on_c, 0, 76, 0
2,20626, Note_on_c, 0, 57, 0
2,20687, Note_on_c, 0, 56, 45
2,20722, Note_on_c, 0, 56, 0
2,20749, Note_on_c, 0, 54, 61
2,20803, Note_on_c, 0, 54, 0
2,20815, Note_on_c, 0, 56, 71
2,20859, Note_on_c, 0, 56, 0
2,20915, Note_on_c, 0, 72, 80
2,20925, Note_on_c, 0, 57, 58
2,20936, Note_on_c, 0, 45, 59
2,20977, Note_on_c, 0, 72, 0
2,20995, Note_on_c, 0, 45, 0
2,21006, Note_on_c, 0, 57, 0
2,21299, Note_on_c, 0, 69, 82
2,21352, Note_on_c, 0, 69, 0
2,21411, Note_on_c, 0, 57, 66
2,21495, Note_on_c, 0, 57, 0
2,21502, Note_on_c, 0, 59, 72
2,21549, Note_on_c, 0, 59, 0
2,21576, Note_on_c, 0, 60, 71
2,21644, Note_on_c, 0, 60, 0
2,21662, Note_on_c, 0, 66, 71
2,21663, Note_on_c, 0, 62, 70
2,21708, Note_on_c, 0, 62, 0
2,21727, Note_on_c, 0, 66, 0
2,22053, Note_on_c, 0, 54, 51
2,22058, Note_on_c, 0, 74, 66
2,22131, Note_on_c, 0, 74, 0
2,22148, Note_on_c, 0, 54, 0
2,22151, Note_on_c, 0, 60, 56
2,22215, Note_on_c, 0, 60, 0
2,22246, Note_on_c, 0, 59, 55
2,22315, Note_on_c, 0, 59, 0
2,22345, Note_on_c, 0, 57, 52
2,22395, Note_on_c, 0, 57, 0
2,22418, Note_on_c, 0, 71, 62
2,22422, Note_on_c, 0, 55, 46
2,22481, Note_on_c, 0, 71, 0
2,22535, Note_on_c, 0, 55, 0
2,22806, Note_on_c, 0, 67, 59
2,22866, Note_on_c, 0, 67, 0
2,22896, Note_on_c, 0, 55, 52
2,22981, Note_on_c, 0, 55, 0
2,23007, Note_on_c, 0, 57, 52
2,23061, Note_on_c, 0, 57, 0
2,23081, Note_on_c, 0, 59, 57
2,23136, Note_on_c, 0, 59, 0
2,23170, Note_on_c, 0, 64, 58
2,23179, Note_on_c, 0, 60, 51
2,23246, Note_on_c, 0, 64, 0
2,23334, Note_on_c, 0, 60, 0
2,23550, Note_on_c, 0, 52, 36
2,23559, Note_on_c, 0, 72, 59
2,23636, Note_on_c, 0, 58, 43
2,23638, Note_on_c, 0, 72, 0
2,23695, Note_on_c, 0, 58, 0
2,23734, Note_on_c, 0, 57, 50
2,23790, Note_on_c, 0, 57, 0
2,23791, Note_on_c, 0, 52, 0
2,23831, Note_on_c, 0, 55, 52
2,23898, Note_on_c, 0, 55, 0
2,23930, Note_on_c, 0, 53, 44
2,23931, Note_on_c, 0, 69, 51
2,24119, Control_c, 0, 64, 32
2,24138, Control_c, 0, 64, 47
2,24143, Note_on_c, 0, 65, 27
2,24158, Control_c, 0, 64, 53
2,24176, Control_c, 0, 64, 55
2,24195, Control_c, 0, 64, 56
2,24215, Control_c, 0, 64, 57
2,24294, Note_on_c, 0, 65, 0
2,24309, Note_on_c, 0, 55, 54
2,24310, Control_c, 0, 64, 55
2,24319, Note_on_c, 0, 71, 68
2,24330, Control_c, 0, 64, 53
2,24349, Control_c, 0, 64, 52
2,24355, Note_on_c, 0, 53, 0
2,24369, Control_c, 0, 64, 53
2,24387, Control_c, 0, 64, 54
2,24407, Control_c, 0, 64, 55
2,24426, Control_c, 0, 64, 57
2,24430, Note_on_c, 0, 69, 0
2,24446, Control_c, 0, 64, 58
2,24464, Control_c, 0, 64, 59
2,24484, Control_c, 0, 64, 59
2,24503, Control_c, 0, 64, 60
2,24518, Note_on_c, 0, 65, 29
2,24522, Control_c, 0, 64, 60
2,24638, Control_c, 0, 64, 60
2,24656, Control_c, 0, 64, 59
2,24664, Note_on_c, 0, 65, 0
2,24675, Control_c, 0, 64, 58
2,24713, Note_on_c, 0, 72, 66
2,24714, Control_c, 0, 64, 58
2,24715, Note_on_c, 0, 57, 45
2,24741, Note_on_c, 0, 55, 0
2,24744, Note_on_c, 0, 71, 0
2,24752, Control_c, 0, 64, 57
2,24810, Control_c, 0, 64, 57
2,24818, Note_on_c, 0, 64, 59
2,24891, Note_on_c, 0, 64, 0
2,24906, Control_c, 0, 64, 56
2,24910, Note_on_c, 0, 65, 52
2,24970, Note_on_c, 0, 67, 59
2,24972, Note_on_c, 0, 65, 0
2,25021, Control_c, 0, 64, 56
2,25032, Note_on_c, 0, 67, 0
2,25041, Control_c, 0, 64, 55
2,25060, Control_c, 0, 64, 52
2,25069, Note_on_c, 0, 69, 65
2,25079, Control_c, 0, 64, 46
2,25079, Note_on_c, 0, 57, 0
2,25081, Note_on_c, 0, 55, 57
2,25098, Control_c, 0, 64, 33
2,25117, Control_c, 0, 64, 0
2,25166, Note_on_c, 0, 67, 50
2,25179, Note_on_c, 0, 69, 0
2,25190, Note_on_c, 0, 55, 0
2,25215, Note_on_c, 0, 67, 0
2,25225, Note_on_c, 0, 65, 64
2,25259, Note_on_c, 0, 72, 0
2,25290, Note_on_c, 0, 65, 0
2,25313, Note_on_c, 0, 64, 75
2,25351, Note_on_c, 0, 64, 0
2,25367, Control_c, 0, 64, 29
2,25386, Control_c, 0, 64, 44
2,25390, Note_on_c, 0, 62, 75
2,25406, Control_c, 0, 64, 49
2,25415, Note_on_c, 0, 53, 58
2,25427, Control_c, 0, 64, 49
2,25479, Note_on_c, 0, 53, 0
2,25485, Control_c, 0, 64, 49
2,25504, Control_c, 0, 64, 47
2,25524, Control_c, 0, 64, 41
2,25530, Note_on_c, 0, 72, 70
2,25542, Control_c, 0, 64, 31
2,25562, Control_c, 0, 64, 20
2,25581, Control_c, 0, 64, 0
2,25595, Note_on_c, 0, 74, 68
2,25606, Note_on_c, 0, 72, 0
2,25682, Note_on_c, 0, 76, 77
2,25689, Note_on_c, 0, 74, 0
2,25763, Note_on_c, 0, 50, 62
2,25765, Note_on_c, 0, 76, 0
2,25772, Note_on_c, 0, 77, 76
2,25849, Note_on_c, 0, 76, 78
2,25885, Note_on_c, 0, 77, 0
2,25923, Note_on_c, 0, 74, 73
2,25963, Note_on_c, 0, 76, 0
2,26002, Note_on_c, 0, 74, 0
2,26008, Note_on_c, 0, 72, 77
2,26037, Note_on_c, 0, 72, 0
2,26092, Note_on_c, 0, 55, 70
2,26112, Note_on_c, 0, 72, 61
2,26122, Note_on_c, 0, 71, 76
2,26136, Note_on_c, 0, 62, 0
2,26152, Note_on_c, 0, 72, 0
2,26155, Control_c, 0, 64, 31
2,26175, Control_c, 0, 64, 51
2,26194, Control_c, 0, 64, 55
2,26214, Control_c, 0, 64, 55
2,26217, Note_on_c, 0, 62, 57
2,26252, Control_c, 0, 64, 56
2,26271, Control_c, 0, 64, 56
2,26288, Note_on_c, 0, 64, 72
2,26303, Note_on_c, 0, 62, 0
2,26343, Note_on_c, 0, 50, 0
2,26348, Control_c, 0, 64, 57
2,26394, Note_on_c, 0, 64, 0
2,26400, Note_on_c, 0, 65, 70
2,26407, Control_c, 0, 64, 55
2,26424, Note_on_c, 0, 55, 0
2,26425, Control_c, 0, 64, 39
2,26445, Control_c, 0, 64, 0
2,26463, Note_on_c, 0, 53, 75
2,26471, Note_on_c, 0, 65, 0
2,26483, Note_on_c, 0, 67, 67
2,26499, Note_on_c, 0, 53, 0
2,26573, Note_on_c, 0, 65, 73
2,26607, Note_on_c, 0, 67, 0
2,26644, Note_on_c, 0, 65, 0
2,26649, Note_on_c, 0, 64, 81
2,26714, Note_on_c, 0, 64, 0
2,26748, Note_on_c, 0, 62, 82
2,26819, Note_on_c, 0, 52, 86
2,26821, Note_on_c, 0, 62, 0
2,26829, Note_on_c, 0, 60, 79
2,26843, Note_on_c, 0, 71, 0
2,26896, Note_on_c, 0, 60, 0
2,27194, Note_on_c, 0, 55, 62
2,27217, Note_on_c, 0, 84, 75
2,27233, Note_on_c, 0, 55, 0
2,27235, Note_on_c, 0, 52, 0
2,27303, Note_on_c, 0, 83, 78
2,27338, Note_on_c, 0, 84, 0
2,27382, Note_on_c, 0, 81, 75
2,27403, Note_on_c, 0, 83, 0
2,27465, Note_on_c, 0, 81, 0
2,27467, Note_on_c, 0, 79, 86
2,27549, Note_on_c, 0, 79, 0
2,27555, Note_on_c, 0, 57, 86
2,27562, Note_on_c, 0, 77, 86
2,27569, Note_on_c, 0, 60, 85
2,27593, Note_on_c, 0, 77, 0
2,27670, Note_on_c, 0, 60, 0
2,27923, Control_c, 0, 64, 36
2,27936, Note_on_c, 0, 65, 62
2,27943, Control_c, 0, 64, 46
2,27954, Note_on_c, 0, 81, 74
2,27961, Control_c, 0, 64, 0
2,27994, Note_on_c, 0, 65, 0
2,28022, Note_on_c, 0, 57, 0
2,28034, Note_on_c, 0, 79, 82
2,28076, Note_on_c, 0, 81, 0
2,28108, Note_on_c, 0, 77, 77
2,28153, Note_on_c, 0, 79, 0
2,28195, Note_on_c, 0, 76, 75
2,28219, Note_on_c, 0, 77, 0
2,28277, Note_on_c, 0, 76, 0
2,28283, Note_on_c, 0, 74, 78
2,28290, Note_on_c, 0, 47, 87
2,28348, Note_on_c, 0, 74, 0
2,28364, Control_c, 0, 64, 56
2,28378, Note_on_c, 0, 76, 81
2,28384, Control_c, 0, 64, 67
2,28403, Control_c, 0, 64, 73
2,28423, Control_c, 0, 64, 78
2,28441, Control_c, 0, 64, 81
2,28449, Note_on_c, 0, 47, 0
2,28461, Control_c, 0, 64, 83
2,28461, Note_on_c, 0, 76, 0
2,28466, Note_on_c, 0, 77, 80
2,28480, Control_c, 0, 64, 83
2,28557, Control_c, 0, 64, 83
2,28576, Control_c, 0, 64, 82
2,28595, Control_c, 0, 64, 81
2,28615, Control_c, 0, 64, 80
2,28633, Control_c, 0, 64, 74
2,28653, Control_c, 0, 64, 62
2,28672, Control_c, 0, 64, 0
2,28687, Note_on_c, 0, 69, 72
2,28723, Note_on_c, 0, 69, 0
2,28777, Note_on_c, 0, 76, 65
2,28781, Note_on_c, 0, 77, 0
2,28854, Note_on_c, 0, 76, 0
2,28863, Note_on_c, 0, 74, 58
2,28939, Note_on_c, 0, 74, 0
2,28947, Note_on_c, 0, 72, 62
2,28996, Note_on_c, 0, 72, 0
2,29025, Note_on_c, 0, 62, 46
2,29031, Note_on_c, 0, 71, 61
2,29058, Note_on_c, 0, 62, 0
2,29068, Note_on_c, 0, 71, 0
2,29121, Note_on_c, 0, 72, 62
2,29167, Note_on_c, 0, 72, 0
2,29208, Note_on_c, 0, 74, 56
2,29402, Note_on_c, 0, 65, 54
2,29440, Note_on_c, 0, 65, 0
2,29475, Note_on_c, 0, 74, 0
2,29496, Note_on_c, 0, 72, 62
2,29557, Note_on_c, 0, 72, 0
2,29576, Note_on_c, 0, 71, 59
2,29623, Note_on_c, 0, 71, 0
2,29669, Note_on_c, 0, 69, 66
2,29713, Note_on_c, 0, 69, 0
2,29739, Note_on_c, 0, 59, 70
2,29774, Note_on_c, 0, 59, 0
2,29778, Note_on_c, 0, 67, 56
2,30118, Note_on_c, 0, 62, 60
2,30120, Note_on_c, 0, 53, 65
2,30161, Note_on_c, 0, 62, 0
2,30171, Note_on_c, 0, 53, 0
2,30298, Note_on_c, 0, 67, 0
2,30326, Note_on_c, 0, 69, 52
2,30396, Note_on_c, 0, 71, 61
2,30403, Note_on_c, 0, 69, 0
2,30464, Note_on_c, 0, 71, 0
2,30482, Note_on_c, 0, 50, 62
2,30497, Note_on_c, 0, 65, 59
2,30497, Note_on_c, 0, 72, 68
2,30536, Note_on_c, 0, 50, 0
2,30568, Note_on_c, 0, 72, 0
2,30599, Note_on_c, 0, 71, 62
2,30643, Note_on_c, 0, 71, 0
2,30685, Note_on_c, 0, 72, 58
2,30732, Note_on_c, 0, 72, 0
2,30734, Note_on_c, 0, 65, 0
2,30742, Note_on_c, 0, 71, 63
2,30786, Note_on_c, 0, 71, 0
2,30823, Note_on_c, 0, 72, 69
2,30830, Note_on_c, 0, 55, 53
2,30840, Note_on_c, 0, 62, 39
2,30874, Note_on_c, 0, 55, 0
2,30877, Note_on_c, 0, 62, 0
2,30892, Note_on_c, 0, 72, 0
2,30921, Note_on_c, 0, 71, 57
2,30974, Note_on_c, 0, 71, 0
2,31004, Note_on_c, 0, 69, 60
2,31058, Note_on_c, 0, 69, 0
2,31099, Note_on_c, 0, 71, 57
2,31151, Note_on_c, 0, 71, 0
2,31182, Note_on_c, 0, 52, 57
2,31183, Note_on_c, 0, 72, 65
2,31187, Note_on_c, 0, 67, 61
2,31228, Note_on_c, 0, 67, 0
2,31565, Note_on_c, 0, 60, 63
2,31587, Note_on_c, 0, 52, 0
2,31603, Note_on_c, 0, 60, 0
2,31746, Note_on_c, 0, 52, 57
2,31813, Note_on_c, 0, 52, 0
2,31842, Note_on_c, 0, 54, 58
2,31842, Note_on_c, 0, 72, 0
2,31898, Note_on_c, 0, 54, 0
2,31922, Note_on_c, 0, 55, 68
2,31934, Note_on_c, 0, 57, 64
2,31974, Note_on_c, 0, 57, 0
2,31984, Note_on_c, 0, 55, 0
2,32022, Note_on_c, 0, 54, 62
2,32065, Note_on_c, 0, 54, 0
2,32094, Note_on_c, 0, 55, 69
2,32143, Note_on_c, 0, 55, 0
2,32176, Note_on_c, 0, 54, 58
2,32224, Note_on_c, 0, 54, 0
2,32248, Note_on_c, 0, 62, 64
2,32253, Note_on_c, 0, 55, 62
2,32284, Note_on_c, 0, 62, 0
2,32307, Note_on_c, 0, 55, 0
2,32342, Note_on_c, 0, 54, 59
2,32403, Note_on_c, 0, 54, 0
2,32433, Note_on_c, 0, 52, 64
2,32507, Note_on_c, 0, 52, 0
2,32535, Note_on_c, 0, 54, 50
2,32589, Note_on_c, 0, 54, 0
2,32597, Note_on_c, 0, 55, 70
2,32613, Note_on_c, 0, 59, 68
2,32639, Note_on_c, 0, 55, 0
2,32955, Note_on_c, 0, 59, 0
2,32962, Note_on_c, 0, 52, 71
2,32974, Note_on_c, 0, 67, 63
2,32995, Note_on_c, 0, 52, 0
2,33145, Note_on_c, 0, 59, 45
2,33191, Note_on_c, 0, 59, 0
2,33201, Note_on_c, 0, 67, 0
2,33242, Note_on_c, 0, 61, 60
2,33295, Note_on_c, 0, 61, 0
2,33329, Note_on_c, 0, 57, 72
2,33331, Note_on_c, 0, 64, 64
2,33352, Note_on_c, 0, 62, 66
2,33407, Note_on_c, 0, 62, 0
2,33438, Note_on_c, 0, 61, 62
2,33486, Note_on_c, 0, 61, 0
2,33545, Note_on_c, 0, 62, 54
2,33594, Note_on_c, 0, 62, 0
2,33615, Note_on_c, 0, 61, 62
2,33648, Note_on_c, 0, 64, 0
2,33688, Note_on_c, 0, 61, 0
2,33693, Note_on_c, 0, 69, 75
2,33707, Note_on_c, 0, 62, 62
2,33766, Note_on_c, 0, 62, 0
2,33813, Note_on_c, 0, 61, 70
2,33854, Note_on_c, 0, 61, 0
2,33899, Note_on_c, 0, 59, 68
2,33954, Note_on_c, 0, 59, 0
2,33974, Note_on_c, 0, 61, 71
2,34005, Note_on_c, 0, 69, 0
2,34044, Note_on_c, 0, 57, 0
2,34048, Note_on_c, 0, 66, 82
2,34060, Note_on_c, 0, 61, 0
2,34075, Note_on_c, 0, 62, 67
2,34435, Note_on_c, 0, 50, 83
2,34469, Note_on_c, 0, 66, 0
2,34471, Note_on_c, 0, 50, 0
2,34642, Note_on_c, 0, 66, 66
2,34715, Note_on_c, 0, 68, 74
2,34761, Note_on_c, 0, 66, 0
2,34798, Note_on_c, 0, 47, 78
2,34798, Note_on_c, 0, 68, 0
2,34806, Note_on_c, 0, 69, 84
2,34836, Note_on_c, 0, 47, 0
2,34901, Note_on_c, 0, 69, 0
2,34906, Note_on_c, 0, 68, 77
2,34948, Note_on_c, 0, 68, 0
2,34991, Note_on_c, 0, 69, 76
2,35029, Note_on_c, 0, 62, 0
2,35059, Note_on_c, 0, 69, 0
2,35068, Note_on_c, 0, 68, 80
2,35158, Note_on_c, 0, 52, 79
2,35191, Note_on_c, 0, 52, 0
2,35223, Note_on_c, 0, 68, 0
2,35223, Note_on_c, 0, 69, 70
2,35264, Note_on_c, 0, 69, 0
2,35305, Note_on_c, 0, 66, 41
2,35365, Note_on_c, 0, 68, 49
2,35432, Note_on_c, 0, 68, 0
2,35472, Note_on_c, 0, 66, 0
2,35488, Note_on_c, 0, 69, 78
2,35492, Note_on_c, 0, 48, 83
2,35687, Note_on_c, 0, 69, 0
2,35719, Note_on_c, 0, 71, 76
2,35790, Note_on_c, 0, 72, 82
2,35805, Note_on_c, 0, 71, 0
2,35833, Note_on_c, 0, 72, 0
2,35844, Note_on_c, 0, 48, 0
2,35848, Note_on_c, 0, 45, 69
2,35881, Note_on_c, 0, 74, 89
2,35885, Note_on_c, 0, 45, 0
2,35975, Note_on_c, 0, 76, 87
2,35977, Note_on_c, 0, 74, 0
2,36046, Note_on_c, 0, 78, 80
2,36079, Note_on_c, 0, 76, 0
2,36124, Note_on_c, 0, 80, 83
2,36148, Note_on_c, 0, 78, 0
2,36181, Note_on_c, 0, 42, 86
2,36196, Note_on_c, 0, 81, 97
2,36229, Note_on_c, 0, 80, 0
2,36314, Control_c, 0, 64, 32
2,36334, Control_c, 0, 64, 45
2,36353, Control_c, 0, 64, 46
2,36391, Control_c, 0, 64, 47
2,36397, Note_on_c, 0, 72, 71
2,36410, Control_c, 0, 64, 49
2,36430, Control_c, 0, 64, 53
2,36446, Control_c, 0, 64, 50
2,36465, Control_c, 0, 64, 0
2,36474, Note_on_c, 0, 72, 0
2,36536, Note_on_c, 0, 42, 0
2,36555, Note_on_c, 0, 71, 77
2,36578, Note_on_c, 0, 51, 61
2,36589, Note_on_c, 0, 71, 0
2,36605, Note_on_c, 0, 51, 0
2,36725, Note_on_c, 0, 78, 78
2,36746, Note_on_c, 0, 81, 0
2,36866, Note_on_c, 0, 78, 0
2,36902, Note_on_c, 0, 40, 82
2,36910, Note_on_c, 0, 79, 97
2,36926, Control_c, 0, 64, 57
2,36945, Control_c, 0, 64, 66
2,36965, Control_c, 0, 64, 68
2,36985, Control_c, 0, 64, 69
2,36997, Note_on_c, 0, 40, 0
2,37003, Control_c, 0, 64, 70
2,37023, Control_c, 0, 64, 71
2,37042, Control_c, 0, 64, 73
2,37062, Control_c, 0, 64, 75
2,37080, Control_c, 0, 64, 77
2,37100, Control_c, 0, 64, 78
2,37104, Note_on_c, 0, 71, 74
2,37148, Note_on_c, 0, 71, 0
2,37157, Control_c, 0, 64, 77
2,37177, Control_c, 0, 64, 76
2,37196, Control_c, 0, 64, 75
2,37215, Control_c, 0, 64, 74
2,37234, Control_c, 0, 64, 74
2,37254, Control_c, 0, 64, 70
2,37273, Control_c, 0, 64, 57
2,37292, Control_c, 0, 64, 0
2,37310, Note_on_c, 0, 76, 76
2,37314, Note_on_c, 0, 79, 0
2,37377, Note_on_c, 0, 76, 0
2,37385, Note_on_c, 0, 74, 80
2,37410, Note_on_c, 0, 74, 0
2,37482, Note_on_c, 0, 72, 75
2,37554, Note_on_c, 0, 72, 0
2,37569, Note_on_c, 0, 71, 73
2,37649, Note_on_c, 0, 84, 97
2,37653, Note_on_c, 0, 69, 81
2,37656, Note_on_c, 0, 71, 0
2,37680, Note_on_c, 0, 69, 0
2,38038, Note_on_c, 0, 72, 74
2,38080, Note_on_c, 0, 84, 0
2,38116, Note_on_c, 0, 72, 0
2,38144, Note_on_c, 0, 71, 75
2,38230, Note_on_c, 0, 71, 0
2,38232, Note_on_c, 0, 69, 74
2,38296, Note_on_c, 0, 67, 77
2,38305, Note_on_c, 0, 69, 0
2,38327, Note_on_c, 0, 67, 0
2,38369, Note_on_c, 0, 75, 84
2,38378, Note_on_c, 0, 66, 85
2,38462, Note_on_c, 0, 66, 0
2,38464, Note_on_c, 0, 67, 77
2,38553, Note_on_c, 0, 67, 0
2,38557, Note_on_c, 0, 69, 74
2,38739, Note_on_c, 0, 60, 65
2,38775, Note_on_c, 0, 60, 0
2,38799, Note_on_c, 0, 75, 0
2,38833, Note_on_c, 0, 69, 0
2,38861, Note_on_c, 0, 67, 53
2,38905, Note_on_c, 0, 67, 0
2,38937, Note_on_c, 0, 66, 60
2,38969, Note_on_c, 0, 66, 0
2,39037, Note_on_c, 0, 64, 39
2,39077, Note_on_c, 0, 64, 0
2,39109, Note_on_c, 0, 63, 57
2,39114, Note_on_c, 0, 54, 55
2,39150, Note_on_c, 0, 54, 0
2,39167, Note_on_c, 0, 63, 0
2,39188, Note_on_c, 0, 64, 60
2,39245, Note_on_c, 0, 64, 0
2,39282, Note_on_c, 0, 66, 63
2,39479, Note_on_c, 0, 57, 56
2,39519, Note_on_c, 0, 57, 0
2,39554, Note_on_c, 0, 66, 0
2,39586, Note_on_c, 0, 64, 51
2,39638, Note_on_c, 0, 64, 0
2,39653, Note_on_c, 0, 63, 57
2,39713, Note_on_c, 0, 63, 0
2,39734, Note_on_c, 0, 61, 63
2,39770, Note_on_c, 0, 61, 0
2,39828, Note_on_c, 0, 59, 70
2,39834, Note_on_c, 0, 51, 62
2,39870, Note_on_c, 0, 51, 0
2,40198, Note_on_c, 0, 54, 63
2,40199, Note_on_c, 0, 81, 83
2,40232, Note_on_c, 0, 81, 0
2,40253, Note_on_c, 0, 54, 0
2,40374, Note_on_c, 0, 59, 0
2,40393, Note_on_c, 0, 61, 57
2,40481, Note_on_c, 0, 61, 0
2,40482, Note_on_c, 0, 63, 67
2,40527, Note_on_c, 0, 59, 59
2,40544, Note_on_c, 0, 78, 80
2,40549, Note_on_c, 0, 63, 0
2,40576, Note_on_c, 0, 64, 68
2,40603, Note_on_c, 0, 78, 0
2,40641, Note_on_c, 0, 64, 0
2,40678, Note_on_c, 0, 63, 62
2,40724, Note_on_c, 0, 63, 0
2,40770, Note_on_c, 0, 64, 59
2,40811, Note_on_c, 0, 64, 0
2,40828, Note_on_c, 0, 63, 66
2,40884, Note_on_c, 0, 63, 0
2,40911, Note_on_c, 0, 64, 64
2,40923, Note_on_c, 0, 83, 88
2,40967, Note_on_c, 0, 59, 0
2,40969, Note_on_c, 0, 64, 0
2,40977, Note_on_c, 0, 83, 0
2,41015, Note_on_c, 0, 63, 63
2,41066, Note_on_c, 0, 63, 0
2,41099, Note_on_c, 0, 61, 69
2,41161, Note_on_c, 0, 61, 0
2,41188, Note_on_c, 0, 63, 73
2,41229, Note_on_c, 0, 63, 0
2,41259, Note_on_c, 0, 64, 67
2,41269, Note_on_c, 0, 79, 88
2,41275, Note_on_c, 0, 52, 69
2,41330, Note_on_c, 0, 64, 0
2,41335, Note_on_c, 0, 79, 0
2,41349, Note_on_c, 0, 52, 0
2,41668, Note_on_c, 0, 76, 84
2,41724, Note_on_c, 0, 76, 0
2,41764, Note_on_c, 0, 40, 79
2,41856, Note_on_c, 0, 41, 78
2,41863, Note_on_c, 0, 40, 0
2,41912, Note_on_c, 0, 41, 0
2,41933, Note_on_c, 0, 43, 83
2,42015, Note_on_c, 0, 45, 88
2,42021, Note_on_c, 0, 43, 0
2,42021, Note_on_c, 0, 73, 87
2,42074, Note_on_c, 0, 45, 0
2,42103, Note_on_c, 0, 73, 0
2,42418, Note_on_c, 0, 81, 94
2,42481, Note_on_c, 0, 81, 0
2,42518, Note_on_c, 0, 43, 74
2,42578, Note_on_c, 0, 43, 0
2,42609, Note_on_c, 0, 41, 76
2,42693, Note_on_c, 0, 40, 74
2,42694, Note_on_c, 0, 41, 0
2,42764, Control_c, 0, 64, 37
2,42771, Note_on_c, 0, 38, 81
2,42778, Note_on_c, 0, 40, 0
2,42781, Note_on_c, 0, 77, 79
2,42784, Control_c, 0, 64, 62
2,42803, Control_c, 0, 64, 68
2,42823, Control_c, 0, 64, 74
2,42826, Note_on_c, 0, 38, 0
2,42841, Control_c, 0, 64, 79
2,42861, Control_c, 0, 64, 79
2,42880, Control_c, 0, 64, 79
2,42894, Note_on_c, 0, 77, 0
2,42899, Control_c, 0, 64, 78
2,42918, Control_c, 0, 64, 76
2,42938, Control_c, 0, 64, 74
2,42957, Control_c, 0, 64, 71
2,42976, Control_c, 0, 64, 68
2,42995, Control_c, 0, 64, 65
2,43015, Control_c, 0, 64, 63
2,43033, Control_c, 0, 64, 60
2,43053, Control_c, 0, 64, 56
2,43072, Control_c, 0, 64, 46
2,43091, Control_c, 0, 64, 25
2,43110, Control_c, 0, 64, 0
2,43177, Note_on_c, 0, 62, 58
2,43216, Note_on_c, 0, 62, 0
2,43259, Note_on_c, 0, 74, 47
2,43308, Note_on_c, 0, 74, 0
2,43341, Note_on_c, 0, 76, 56
2,43394, Note_on_c, 0, 76, 0
2,43417, Note_on_c, 0, 77, 58
2,43501, Note_on_c, 0, 77, 0
2,43521, Note_on_c, 0, 79, 63
2,43528, Note_on_c, 0, 59, 59
2,43574, Note_on_c, 0, 59, 0
2,43626, Note_on_c, 0, 79, 0
2,43904, Note_on_c, 0, 67, 51
2,43950, Note_on_c, 0, 67, 0
2,44013, Note_on_c, 0, 77, 55
2,44069, Note_on_c, 0, 77, 0
2,44107, Note_on_c, 0, 76, 54
2,44148, Note_on_c, 0, 76, 0
2,44189, Note_on_c, 0, 74, 54
2,44231, Note_on_c, 0, 74, 0
2,44260, Note_on_c, 0, 64, 51
2,44280, Note_on_c, 0, 72, 48
2,44301, Note_on_c, 0, 64, 0
2,44411, Note_on_c, 0, 72, 0
2,44651, Note_on_c, 0, 57, 46
2,44685, Note_on_c, 0, 57, 0
2,44832, Note_on_c, 0, 77, 56
2,44889, Note_on_c, 0, 77, 0
2,44931, Note_on_c, 0, 79, 64
2,44990, Note_on_c, 0, 79, 0
2,45001, Note_on_c, 0, 53, 58
2,45002, Note_on_c, 0, 81, 61
2,45046, Note_on_c, 0, 53, 0
2,45049, Note_on_c, 0, 81, 0
2,45090, Note_on_c, 0, 82, 66
2,45170, Note_on_c, 0, 82, 0
2,45178, Note_on_c, 0, 81, 64
2,45225, Note_on_c, 0, 81, 0
2,45252, Note_on_c, 0, 79, 69
2,45303, Note_on_c, 0, 79, 0
2,45332, Note_on_c, 0, 77, 72
2,45347, Note_on_c, 0, 62, 57
2,45377, Note_on_c, 0, 77, 0
2,45396, Note_on_c, 0, 62, 0
2,45418, Note_on_c, 0, 76, 69
2,45499, Note_on_c, 0, 76, 0
2,45508, Note_on_c, 0, 74, 69
2,45556, Note_on_c, 0, 74, 0
2,45591, Note_on_c, 0, 72, 77
2,45643, Note_on_c, 0, 72, 0
2,45679, Note_on_c, 0, 56, 69
2,45692, Note_on_c, 0, 71, 80
2,45718, Note_on_c, 0, 56, 0
2,45758, Note_on_c, 0, 71, 0
2,45787, Note_on_c, 0, 72, 76
2,45871, Note_on_c, 0, 71, 79
2,45888, Note_on_c, 0, 72, 0
2,45929, Note_on_c, 0, 71, 0
2,45967, Note_on_c, 0, 69, 74
2,46029, Note_on_c, 0, 52, 66
2,46038, Note_on_c, 0, 69, 0
2,46050, Note_on_c, 0, 68, 82
2,46071, Note_on_c, 0, 52, 0
2,46135, Note_on_c, 0, 66, 72
2,46160, Note_on_c, 0, 68, 0
2,46162, Control_c, 0, 64, 11
2,46182, Control_c, 0, 64, 13
2,46214, Note_on_c, 0, 64, 74
2,46242, Note_on_c, 0, 66, 0
2,46290, Note_on_c, 0, 62, 74
2,46304, Note_on_c, 0, 64, 0
2,46367, Note_on_c, 0, 62, 0
2,46372, Note_on_c, 0, 57, 70
2,46374, Note_on_c, 0, 60, 73
2,46393, Control_c, 0, 64, 15
2,46468, Note_on_c, 0, 64, 71
2,46514, Note_on_c, 0, 64, 0
2,46546, Control_c, 0, 64, 17
2,46559, Note_on_c, 0, 65, 70
2,46565, Control_c, 0, 64, 18
2,46585, Control_c, 0, 64, 20
2,46603, Control_c, 0, 64, 23
2,46623, Control_c, 0, 64, 26
2,46642, Control_c, 0, 64, 28
2,46646, Note_on_c, 0, 65, 0
2,46648, Note_on_c, 0, 67, 66
2,46662, Control_c, 0, 64, 30
2,46680, Control_c, 0, 64, 34
2,46700, Control_c, 0, 64, 38
2,46710, Note_on_c, 0, 67, 0
2,46712, Note_on_c, 0, 69, 79
2,46719, Control_c, 0, 64, 42
2,46730, Note_on_c, 0, 72, 88
2,46739, Control_c, 0, 64, 44
2,46757, Control_c, 0, 64, 46
2,46777, Control_c, 0, 64, 47
2,46796, Control_c, 0, 64, 48
2,46807, Note_on_c, 0, 60, 0
2,46809, Note_on_c, 0, 69, 0
2,46818, Note_on_c, 0, 57, 0
2,46825, Note_on_c, 0, 67, 78
2,46891, Note_on_c, 0, 67, 0
2,46908, Note_on_c, 0, 65, 71
2,46916, Note_on_c, 0, 72, 0
2,46930, Control_c, 0, 64, 48
2,46968, Control_c, 0, 64, 47
2,46987, Note_on_c, 0, 65, 0
2,46988, Control_c, 0, 64, 47
2,46999, Note_on_c, 0, 64, 74
2,47022, Control_c, 0, 64, 46
2,47094, Note_on_c, 0, 64, 0
2,47095, Note_on_c, 0, 71, 83
2,47101, Note_on_c, 0, 62, 64
2,47137, Control_c, 0, 64, 46
2,47156, Control_c, 0, 64, 45
2,47175, Control_c, 0, 64, 44
2,47188, Note_on_c, 0, 57, 52
2,47194, Control_c, 0, 64, 42
2,47214, Control_c, 0, 64, 40
2,47233, Control_c, 0, 64, 37
2,47251, Control_c, 0, 64, 36
2,47271, Control_c, 0, 64, 34
2,47273, Note_on_c, 0, 57, 0
2,47278, Note_on_c, 0, 59, 71
2,47290, Control_c, 0, 64, 31
2,47309, Control_c, 0, 64, 27
2,47321, Note_on_c, 0, 62, 0
2,47328, Control_c, 0, 64, 23
2,47348, Control_c, 0, 64, 19
2,47361, Note_on_c, 0, 60, 67
2,47364, Note_on_c, 0, 59, 0
2,47367, Control_c, 0, 64, 17
2,47405, Control_c, 0, 64, 15
2,47412, Note_on_c, 0, 60, 0
2,47445, Note_on_c, 0, 62, 73
2,47488, Note_on_c, 0, 65, 72
2,47502, Control_c, 0, 64, 13
2,47522, Note_on_c, 0, 62, 0
2,47526, Control_c, 0, 64, 0
2,47548, Note_on_c, 0, 60, 67
2,47559, Note_on_c, 0, 65, 0
2,47617, Note_on_c, 0, 59, 78
2,47617, Note_on_c, 0, 60, 0
2,47667, Note_on_c, 0, 59, 0
2,47720, Note_on_c, 0, 57, 77
2,47803, Note_on_c, 0, 57, 0
2,47811, Note_on_c, 0, 59, 75
2,47820, Note_on_c, 0, 56, 73
2,47848, Note_on_c, 0, 59, 0
2,47879, Note_on_c, 0, 56, 0
2,47919, Note_on_c, 0, 57, 64
2,47963, Note_on_c, 0, 57, 0
2,47975, Note_on_c, 0, 56, 76
2,48076, Note_on_c, 0, 54, 74
2,48079, Note_on_c, 0, 56, 0
2,48161, Note_on_c, 0, 54, 0
2,48164, Note_on_c, 0, 62, 77
2,48179, Note_on_c, 0, 52, 78
2,48206, Note_on_c, 0, 62, 0
2,48249, Note_on_c, 0, 52, 0
2,48291, Note_on_c, 0, 50, 76
2,48361, Note_on_c, 0, 48, 73
2,48390, Note_on_c, 0, 50, 0
2,48461, Note_on_c, 0, 47, 70
2,48498, Note_on_c, 0, 48, 0
2,48568, Note_on_c, 0, 45, 73
2,48569, Note_on_c, 0, 60, 91
2,48597, Note_on_c, 0, 47, 0
2,48747, Note_on_c, 0, 45, 0
2,48793, Control_c, 0, 64, 28
2,48809, Note_on_c, 0, 64, 66
2,48812, Control_c, 0, 64, 39
2,48825, Note_on_c, 0, 71, 0
2,48832, Control_c, 0, 64, 46
2,48851, Control_c, 0, 64, 51
2,48870, Control_c, 0, 64, 54
2,48889, Control_c, 0, 64, 52
2,48909, Control_c, 0, 64, 28
2,48926, Control_c, 0, 64, 0
2,48971, Note_on_c, 0, 64, 0
2,48977, Note_on_c, 0, 69, 69
2,48996, Note_on_c, 0, 57, 69
2,49011, Note_on_c, 0, 69, 0
2,49075, Note_on_c, 0, 57, 0
2,49104, Note_on_c, 0, 55, 75
2,49183, Note_on_c, 0, 53, 68
2,49190, Note_on_c, 0, 55, 0
2,49233, Note_on_c, 0, 52, 66
2,49251, Note_on_c, 0, 53, 0
2,49324, Note_on_c, 0, 50, 80
2,49335, Note_on_c, 0, 65, 89
2,49368, Note_on_c, 0, 52, 0
2,49373, Note_on_c, 0, 60, 0
2,49424, Control_c, 0, 64, 35
2,49445, Control_c, 0, 64, 53
2,49465, Control_c, 0, 64, 56
2,49491, Note_on_c, 0, 50, 0
2,49503, Control_c, 0, 64, 51
2,49522, Control_c, 0, 64, 29
2,49537, Note_on_c, 0, 57, 73
2,49542, Control_c, 0, 64, 0
2,49590, Note_on_c, 0, 57, 0
2,49719, Note_on_c, 0, 53, 65
2,49735, Note_on_c, 0, 62, 74
2,49782, Note_on_c, 0, 53, 0
2,49784, Note_on_c, 0, 62, 0
2,49813, Note_on_c, 0, 52, 76
2,49902, Note_on_c, 0, 50, 71
2,49911, Note_on_c, 0, 52, 0
2,49972, Note_on_c, 0, 48, 63
2,49991, Note_on_c, 0, 50, 0
2,50017, Note_on_c, 0, 65, 0
2,50032, Note_on_c, 0, 47, 73
2,50044, Note_on_c, 0, 48, 0
2,50057, Note_on_c, 0, 56, 92
2,50112, Note_on_c, 0, 58, 36
2,50117, Control_c, 0, 64, 56
2,50137, Control_c, 0, 64, 65
2,50142, Note_on_c, 0, 47, 0
2,50150, Note_on_c, 0, 48, 70
2,50156, Control_c, 0, 64, 66
2,50157, Note_on_c, 0, 58, 0
2,50175, Control_c, 0, 64, 67
2,50194, Control_c, 0, 64, 68
2,50213, Control_c, 0, 64, 69
2,50220, Note_on_c, 0, 48, 0
2,50230, Note_on_c, 0, 50, 75
2,50233, Control_c, 0, 64, 70
2,50251, Control_c, 0, 64, 72
2,50271, Control_c, 0, 64, 73
2,50315, Note_on_c, 0, 56, 0
2,50367, Control_c, 0, 64, 70
2,50386, Control_c, 0, 64, 64
2,50404, Control_c, 0, 64, 15
2,50424, Control_c, 0, 64, 0
2,50449, Note_on_c, 0, 77, 79
2,50484, Note_on_c, 0, 77, 0
2,50491, Note_on_c, 0, 50, 0
2,50511, Note_on_c, 0, 48, 52
2,50607, Note_on_c, 0, 48, 0
2,50608, Note_on_c, 0, 47, 54
2,50659, Note_on_c, 0, 47, 0
2,50682, Note_on_c, 0, 45, 55
2,50745, Note_on_c, 0, 45, 0
2,50782, Note_on_c, 0, 44, 60
2,50795, Note_on_c, 0, 71, 70
2,50833, Note_on_c, 0, 71, 0
2,50839, Note_on_c, 0, 44, 0
2,50864, Note_on_c, 0, 45, 55
2,50921, Note_on_c, 0, 45, 0
2,50963, Note_on_c, 0, 47, 51
2,51183, Note_on_c, 0, 74, 59
2,51224, Note_on_c, 0, 74, 0
2,51243, Note_on_c, 0, 47, 0
2,51269, Note_on_c, 0, 45, 54
2,51342, Note_on_c, 0, 44, 58
2,51342, Note_on_c, 0, 45, 0
2,51403, Note_on_c, 0, 42, 55
2,51434, Note_on_c, 0, 44, 0
2,51517, Note_on_c, 0, 42, 0
2,51525, Note_on_c, 0, 40, 51
2,51540, Note_on_c, 0, 68, 63
2,51918, Note_on_c, 0, 62, 66
2,51969, Note_on_c, 0, 62, 0
2,52110, Note_on_c, 0, 42, 49
2,52139, Note_on_c, 0, 40, 0
2,52195, Note_on_c, 0, 42, 0
2,52208, Note_on_c, 0, 44, 52
2,52277, Note_on_c, 0, 44, 0
2,52304, Note_on_c, 0, 71, 67
2,52312, Note_on_c, 0, 59, 52
2,52313, Note_on_c, 0, 45, 46
2,52333, Note_on_c, 0, 68, 0
2,52384, Note_on_c, 0, 45, 0
2,52415, Note_on_c, 0, 44, 53
2,52468, Note_on_c, 0, 44, 0
2,52507, Note_on_c, 0, 45, 51
2,52553, Note_on_c, 0, 45, 0
2,52585, Note_on_c, 0, 44, 57
2,52633, Note_on_c, 0, 44, 0
2,52671, Note_on_c, 0, 45, 53
2,52685, Note_on_c, 0, 64, 50
2,52690, Note_on_c, 0, 59, 0
2,52723, Note_on_c, 0, 45, 0
2,52749, Note_on_c, 0, 44, 56
2,52767, Note_on_c, 0, 64, 0
2,52812, Note_on_c, 0, 44, 0
2,52847, Note_on_c, 0, 42, 52
2,52911, Note_on_c, 0, 42, 0
2,52947, Note_on_c, 0, 44, 50
2,53010, Note_on_c, 0, 44, 0
2,53015, Note_on_c, 0, 71, 0
2,53059, Note_on_c, 0, 60, 52
2,53067, Note_on_c, 0, 45, 38
2,53116, Control_c, 0, 64, 34
2,53136, Control_c, 0, 64, 55
2,53155, Control_c, 0, 64, 61
2,53173, Control_c, 0, 64, 63
2,53193, Control_c, 0, 64, 64
2,53212, Control_c, 0, 64, 64
2,53232, Control_c, 0, 64, 65
2,53250, Control_c, 0, 64, 66
2,53265, Note_on_c, 0, 60, 0
2,53270, Control_c, 0, 64, 66
2,53285, Control_c, 0, 64, 67
2,53446, Note_on_c, 0, 76, 52
2,53516, Control_c, 0, 64, 66
2,53535, Control_c, 0, 64, 66
2,53541, Note_on_c, 0, 76, 0
2,53548, Note_on_c, 0, 74, 53
2,53554, Control_c, 0, 64, 65
2,53573, Control_c, 0, 64, 65
2,53593, Control_c, 0, 64, 64
2,53593, Note_on_c, 0, 45, 0
2,53611, Control_c, 0, 64, 64
2,53622, Note_on_c, 0, 72, 56
2,53622, Note_on_c, 0, 74, 0
2,53623, Note_on_c, 0, 47, 34
2,53631, Control_c, 0, 64, 63
2,53650, Control_c, 0, 64, 62
2,53669, Control_c, 0, 64, 61
2,53682, Note_on_c, 0, 72, 0
2,53686, Note_on_c, 0, 47, 0
2,53688, Control_c, 0, 64, 60
2,53701, Note_on_c, 0, 71, 63
2,53708, Control_c, 0, 64, 60
2,53714, Note_on_c, 0, 48, 44
2,53727, Control_c, 0, 64, 59
2,53745, Control_c, 0, 64, 58
2,53757, Note_on_c, 0, 71, 0
2,53762, Note_on_c, 0, 48, 0
2,53764, Control_c, 0, 64, 57
2,53784, Control_c, 0, 64, 55
2,53791, Note_on_c, 0, 69, 68
2,53792, Note_on_c, 0, 50, 62
2,53803, Control_c, 0, 64, 54
2,53822, Control_c, 0, 64, 53
2,53841, Control_c, 0, 64, 52
2,53859, Note_on_c, 0, 50, 0
2,53861, Control_c, 0, 64, 51
2,53879, Control_c, 0, 64, 50
2,53891, Note_on_c, 0, 49, 59
2,53899, Control_c, 0, 64, 48
2,53918, Control_c, 0, 64, 47
2,53938, Control_c, 0, 64, 47
2,53951, Note_on_c, 0, 49, 0
2,53956, Control_c, 0, 64, 46
2,53976, Control_c, 0, 64, 46
2,53983, Note_on_c, 0, 50, 56
2,53988, Note_on_c, 0, 73, 70
2,53995, Control_c, 0, 64, 45
2,54013, Control_c, 0, 64, 45
2,54029, Note_on_c, 0, 50, 0
2,54033, Control_c, 0, 64, 44
2,54056, Note_on_c, 0, 69, 0
2,54059, Note_on_c, 0, 49, 66
2,54073, Note_on_c, 0, 76, 74
2,54109, Note_on_c, 0, 49, 0
2,54123, Note_on_c, 0, 73, 0
2,54129, Control_c, 0, 64, 44
2,54138, Note_on_c, 0, 50, 59
2,54149, Control_c, 0, 64, 43
2,54161, Note_on_c, 0, 79, 80
2,54167, Control_c, 0, 64, 42
2,54187, Control_c, 0, 64, 41
2,54196, Note_on_c, 0, 76, 0
2,54198, Note_on_c, 0, 50, 0
2,54225, Control_c, 0, 64, 40
2,54225, Note_on_c, 0, 49, 62
2,54245, Control_c, 0, 64, 40
2,54265, Control_c, 0, 64, 39
2,54283, Control_c, 0, 64, 38
2,54303, Control_c, 0, 64, 37
2,54309, Note_on_c, 0, 49, 0
2,54322, Control_c, 0, 64, 37
2,54342, Control_c, 0, 64, 36
2,54346, Note_on_c, 0, 47, 48
2,54360, Control_c, 0, 64, 34
2,54380, Control_c, 0, 64, 20
2,54399, Control_c, 0, 64, 0
2,54406, Note_on_c, 0, 47, 0
2,54445, Note_on_c, 0, 49, 49
2,54497, Note_on_c, 0, 49, 0
2,54550, Note_on_c, 0, 50, 44
2,54553, Note_on_c, 0, 79, 0
2,54555, Note_on_c, 0, 77, 54
2,54629, Control_c, 0, 64, 49
2,54648, Control_c, 0, 64, 63
2,54668, Control_c, 0, 64, 65
2,54684, Control_c, 0, 64, 66
2,54704, Control_c, 0, 64, 67
2,54722, Control_c, 0, 64, 68
2,54732, Note_on_c, 0, 77, 0
2,54742, Control_c, 0, 64, 70
2,54761, Control_c, 0, 64, 72
2,54780, Control_c, 0, 64, 73
2,54838, Control_c, 0, 64, 72
2,54876, Control_c, 0, 64, 72
2,54896, Control_c, 0, 64, 71
2,54914, Control_c, 0, 64, 70
2,54933, Control_c, 0, 64, 68
2,54953, Control_c, 0, 64, 65
2,54972, Control_c, 0, 64, 63
2,54977, Note_on_c, 0, 69, 49
2,54991, Control_c, 0, 64, 62
2,55010, Control_c, 0, 64, 62
2,55030, Control_c, 0, 64, 61
2,55046, Note_on_c, 0, 69, 0
2,55048, Control_c, 0, 64, 60
2,55059, Note_on_c, 0, 67, 50
2,55068, Control_c, 0, 64, 59
2,55078, Note_on_c, 0, 50, 0
2,55087, Control_c, 0, 64, 59
2,55107, Control_c, 0, 64, 58
2,55125, Control_c, 0, 64, 58
2,55133, Note_on_c, 0, 67, 0
2,55142, Note_on_c, 0, 65, 49
2,55145, Control_c, 0, 64, 57
2,55146, Note_on_c, 0, 52, 44
2,55164, Control_c, 0, 64, 56
2,55184, Control_c, 0, 64, 55
2,55204, Control_c, 0, 64, 54
2,55211, Note_on_c, 0, 65, 0
2,55221, Note_on_c, 0, 64, 62
2,55224, Control_c, 0, 64, 53
2,55243, Control_c, 0, 64, 52
2,55251, Note_on_c, 0, 52, 0
2,55259, Note_on_c, 0, 53, 49
2,55262, Control_c, 0, 64, 51
2,55278, Note_on_c, 0, 64, 0
2,55281, Control_c, 0, 64, 51
2,55301, Control_c, 0, 64, 50
2,55310, Note_on_c, 0, 53, 0
2,55319, Control_c, 0, 64, 49
2,55337, Note_on_c, 0, 62, 55
2,55339, Control_c, 0, 64, 49
2,55349, Note_on_c, 0, 55, 60
2,55358, Control_c, 0, 64, 48
2,55378, Control_c, 0, 64, 47
2,55396, Control_c, 0, 64, 45
2,55416, Control_c, 0, 64, 42
2,55421, Note_on_c, 0, 55, 0
2,55435, Control_c, 0, 64, 40
2,55453, Control_c, 0, 64, 40
2,55456, Note_on_c, 0, 54, 55
2,55513, Note_on_c, 0, 54, 0
2,55518, Note_on_c, 0, 62, 0
2,55531, Note_on_c, 0, 66, 54
2,55558, Note_on_c, 0, 55, 46
2,55592, Note_on_c, 0, 66, 0
2,55593, Note_on_c, 0, 55, 0
2,55608, Note_on_c, 0, 69, 65
2,55624, Note_on_c, 0, 54, 57
2,55666, Note_on_c, 0, 54, 0
2,55693, Note_on_c, 0, 55, 61
2,55693, Note_on_c, 0, 69, 0
2,55709, Note_on_c, 0, 72, 64
2,55740, Note_on_c, 0, 55, 0
2,55773, Note_on_c, 0, 54, 61
2,55837, Control_c, 0, 64, 39
2,55844, Note_on_c, 0, 54, 0
2,55857, Control_c, 0, 64, 38
2,55875, Control_c, 0, 64, 37
2,55875, Note_on_c, 0, 52, 59
2,55914, Control_c, 0, 64, 36
2,55939, Note_on_c, 0, 52, 0
2,55970, Note_on_c, 0, 54, 58
2,55991, Control_c, 0, 64, 36
2,56016, Note_on_c, 0, 72, 0
2,56023, Note_on_c, 0, 54, 0
2,56064, Note_on_c, 0, 55, 50
2,56067, Note_on_c, 0, 71, 54
2,56125, Control_c, 0, 64, 36
2,56144, Control_c, 0, 64, 37
2,56164, Control_c, 0, 64, 38
2,56184, Control_c, 0, 64, 39
2,56203, Control_c, 0, 64, 40
2,56222, Control_c, 0, 64, 41
2,56261, Control_c, 0, 64, 41
2,56297, Note_on_c, 0, 74, 64
2,56306, Note_on_c, 0, 71, 0
2,56318, Control_c, 0, 64, 42
2,56356, Control_c, 0, 64, 42
2,56362, Note_on_c, 0, 72, 72
2,56376, Control_c, 0, 64, 43
2,56389, Note_on_c, 0, 74, 0
2,56395, Control_c, 0, 64, 43
2,56413, Control_c, 0, 64, 44
2,56433, Control_c, 0, 64, 44
2,56443, Note_on_c, 0, 71, 82
2,56451, Note_on_c, 0, 72, 0
2,56490, Control_c, 0, 64, 45
2,56567, Control_c, 0, 64, 46
2,56631, Note_on_c, 0, 55, 0
2,56631, Note_on_c, 0, 72, 72
2,56651, Note_on_c, 0, 57, 55
2,56672, Note_on_c, 0, 71, 0
2,56708, Note_on_c, 0, 57, 0
2,56711, Note_on_c, 0, 74, 80
2,56724, Note_on_c, 0, 72, 0
2,56750, Note_on_c, 0, 59, 52
2,56786, Note_on_c, 0, 59, 0
2,56802, Note_on_c, 0, 74, 0
2,56806, Note_on_c, 0, 67, 70
2,56809, Note_on_c, 0, 60, 60
2,56818, Control_c, 0, 64, 46
2,56866, Note_on_c, 0, 60, 0
2,56883, Note_on_c, 0, 59, 71
2,56942, Note_on_c, 0, 59, 0
2,56985, Note_on_c, 0, 60, 56
2,57030, Note_on_c, 0, 60, 0
2,57047, Note_on_c, 0, 59, 62
2,57101, Note_on_c, 0, 59, 0
2,57126, Control_c, 0, 64, 47
2,57138, Note_on_c, 0, 60, 56
2,57146, Control_c, 0, 64, 49
2,57164, Control_c, 0, 64, 50
2,57168, Note_on_c, 0, 77, 82
2,57184, Control_c, 0, 64, 52
2,57194, Note_on_c, 0, 60, 0
2,57203, Control_c, 0, 64, 54
2,57221, Note_on_c, 0, 59, 67
2,57223, Control_c, 0, 64, 55
2,57233, Note_on_c, 0, 67, 0
2,57241, Control_c, 0, 64, 56
2,57261, Control_c, 0, 64, 57
2,57280, Control_c, 0, 64, 57
2,57294, Note_on_c, 0, 59, 0
2,57317, Note_on_c, 0, 57, 71
2,57338, Control_c, 0, 64, 57
2,57357, Control_c, 0, 64, 53
2,57376, Control_c, 0, 64, 34
2,57395, Control_c, 0, 64, 0
2,57403, Note_on_c, 0, 57, 0
2,57420, Note_on_c, 0, 59, 67
2,57479, Note_on_c, 0, 59, 0
2,57523, Note_on_c, 0, 60, 58
2,57557, Note_on_c, 0, 76, 75
2,57568, Control_c, 0, 64, 61
2,57584, Note_on_c, 0, 77, 0
2,57587, Control_c, 0, 64, 66
2,57606, Control_c, 0, 64, 67
2,57626, Control_c, 0, 64, 68
2,57644, Control_c, 0, 64, 70
2,57660, Note_on_c, 0, 76, 0
2,57664, Control_c, 0, 64, 73
2,57683, Control_c, 0, 64, 77
2,57703, Control_c, 0, 64, 79
2,57721, Control_c, 0, 64, 80
2,57741, Control_c, 0, 64, 79
2,57779, Control_c, 0, 64, 79
2,57781, Note_on_c, 0, 67, 74
2,57798, Control_c, 0, 64, 78
2,57818, Control_c, 0, 64, 76
2,57826, Note_on_c, 0, 67, 0
2,57837, Control_c, 0, 64, 70
2,57851, Note_on_c, 0, 65, 78
2,57856, Control_c, 0, 64, 63
2,57875, Control_c, 0, 64, 44
2,57894, Control_c, 0, 64, 0
2,57938, Note_on_c, 0, 64, 77
2,57939, Note_on_c, 0, 65, 0
2,58109, Note_on_c, 0, 64, 0
2,58130, Note_on_c, 0, 60, 0
2,58136, Note_on_c, 0, 65, 70
2,58137, Note_on_c, 0, 62, 57
2,58196, Note_on_c, 0, 62, 0
2,58211, Note_on_c, 0, 67, 74
2,58216, Note_on_c, 0, 65, 0
2,58231, Note_on_c, 0, 64, 62
2,58269, Note_on_c, 0, 64, 0
2,58300, Note_on_c, 0, 65, 62
2,58314, Note_on_c, 0, 60, 67
2,58403, Note_on_c, 0, 64, 51
2,58422, Note_on_c, 0, 65, 0
2,58520, Note_on_c, 0, 64, 0
2,58548, Note_on_c, 0, 65, 53
2,58584, Note_on_c, 0, 65, 0
2,58599, Note_on_c, 0, 64, 62
2,58611, Note_on_c, 0, 60, 0
2,58664, Note_on_c, 0, 64, 0
2,58676, Note_on_c, 0, 70, 75
2,58680, Note_on_c, 0, 65, 69
2,58706, Note_on_c, 0, 67, 0
2,58725, Note_on_c, 0, 65, 0
2,58775, Note_on_c, 0, 64, 72
2,58837, Note_on_c, 0, 64, 0
2,58857, Note_on_c, 0, 62, 70
2,58935, Note_on_c, 0, 62, 0
2,58943, Note_on_c, 0, 64, 76
2,58963, Note_on_c, 0, 70, 0
2,59003, Note_on_c, 0, 64, 0
2,59008, Note_on_c, 0, 69, 77
2,59019, Note_on_c, 0, 65, 81
2,59224, Note_on_c, 0, 69, 0
2,59227, Note_on_c, 0, 71, 79
2,59291, Note_on_c, 0, 71, 0
2,59300, Note_on_c, 0, 73, 81
2,59330, Note_on_c, 0, 73, 0
2,59376, Note_on_c, 0, 74, 86
2,59560, Note_on_c, 0, 65, 0
2,59566, Note_on_c, 0, 67, 64
2,59653, Note_on_c, 0, 69, 77
2,59656, Note_on_c, 0, 67, 0
2,59718, Note_on_c, 0, 69, 0
2,59739, Note_on_c, 0, 71, 71
2,59741, Note_on_c, 0, 81, 104
2,59813, Note_on_c, 0, 71, 0
2,59829, Note_on_c, 0, 69, 71
2,59878, Note_on_c, 0, 69, 0
2,59920, Note_on_c, 0, 71, 64
2,59969, Note_on_c, 0, 71, 0
2,59997, Note_on_c, 0, 69, 65
2,60055, Note_on_c, 0, 69, 0
2,60077, Note_on_c, 0, 73, 73
2,60091, Note_on_c, 0, 71, 72
2,60095, Note_on_c, 0, 74, 0
2,60144, Note_on_c, 0, 71, 0
2,60180, Note_on_c, 0, 69, 74
2,60261, Note_on_c, 0, 69, 0
2,60279, Note_on_c, 0, 67, 68
2,60375, Note_on_c, 0, 69, 82
2,60398, Note_on_c, 0, 67, 0
2,60406, Note_on_c, 0, 81, 0
2,60418, Note_on_c, 0, 73, 0
2,60447, Note_on_c, 0, 69, 0
2,60448, Note_on_c, 0, 77, 92
2,60462, Note_on_c, 0, 74, 77
2,60463, Note_on_c, 0, 70, 70
2,60481, Control_c, 0, 64, 53
2,60501, Control_c, 0, 64, 64
2,60510, Note_on_c, 0, 70, 0
2,60520, Control_c, 0, 64, 63
2,60539, Control_c, 0, 64, 62
2,60558, Control_c, 0, 64, 62
2,60578, Control_c, 0, 64, 62
2,60596, Control_c, 0, 64, 63
2,60616, Control_c, 0, 64, 63
2,60690, Note_on_c, 0, 58, 49
2,60693, Control_c, 0, 64, 60
2,60712, Control_c, 0, 64, 37
2,60731, Control_c, 0, 64, 0
2,60759, Note_on_c, 0, 77, 0
2,60771, Note_on_c, 0, 60, 68
2,60782, Note_on_c, 0, 58, 0
2,60808, Control_c, 0, 64, 30
2,60827, Control_c, 0, 64, 54
2,60847, Control_c, 0, 64, 60
2,60854, Note_on_c, 0, 60, 0
2,60855, Note_on_c, 0, 62, 72
2,60866, Control_c, 0, 64, 62
2,60885, Control_c, 0, 64, 62
2,60923, Control_c, 0, 64, 63
2,60938, Note_on_c, 0, 62, 0
2,60947, Note_on_c, 0, 60, 74
2,60963, Control_c, 0, 64, 63
2,61030, Note_on_c, 0, 58, 72
2,61034, Note_on_c, 0, 60, 0
2,61078, Control_c, 0, 64, 63
2,61098, Control_c, 0, 64, 61
2,61100, Note_on_c, 0, 58, 0
2,61116, Note_on_c, 0, 57, 80
2,61117, Control_c, 0, 64, 46
2,61136, Control_c, 0, 64, 0
2,61174, Note_on_c, 0, 82, 101
2,61189, Note_on_c, 0, 57, 0
2,61224, Note_on_c, 0, 55, 73
2,61240, Note_on_c, 0, 74, 0
2,61275, Note_on_c, 0, 55, 0
2,61288, Note_on_c, 0, 53, 72
2,61380, Note_on_c, 0, 53, 0
2,61394, Note_on_c, 0, 55, 73
2,61427, Note_on_c, 0, 55, 0
2,61470, Note_on_c, 0, 57, 73
2,61532, Note_on_c, 0, 57, 0
2,61558, Note_on_c, 0, 58, 76
2,61611, Note_on_c, 0, 58, 0
2,61640, Note_on_c, 0, 57, 79
2,61643, Note_on_c, 0, 82, 0
2,61679, Note_on_c, 0, 57, 0
2,61730, Note_on_c, 0, 55, 72
2,61812, Note_on_c, 0, 53, 73
2,61821, Note_on_c, 0, 55, 0
2,61886, Note_on_c, 0, 52, 71
2,61889, Note_on_c, 0, 53, 0
2,61928, Note_on_c, 0, 73, 93
2,61972, Note_on_c, 0, 53, 75
2,61981, Note_on_c, 0, 52, 0
2,62045, Note_on_c, 0, 53, 0
2,62062, Note_on_c, 0, 55, 69
2,62323, Note_on_c, 0, 70, 74
2,62368, Note_on_c, 0, 70, 0
2,62396, Note_on_c, 0, 55, 0
2,62421, Note_on_c, 0, 53, 58
2,62488, Note_on_c, 0, 53, 0
2,62502, Note_on_c, 0, 52, 55
2,62563, Note_on_c, 0, 52, 0
2,62585, Note_on_c, 0, 50, 61
2,62665, Note_on_c, 0, 50, 0
2,62688, Note_on_c, 0, 64, 64
2,62689, Note_on_c, 0, 49, 66
2,62722, Note_on_c, 0, 64, 0
2,62730, Note_on_c, 0, 73, 0
2,62740, Note_on_c, 0, 49, 0
2,62781, Note_on_c, 0, 50, 59
2,62831, Note_on_c, 0, 50, 0
2,62866, Note_on_c, 0, 52, 53
2,63046, Note_on_c, 0, 67, 64
2,63088, Note_on_c, 0, 67, 0
2,63134, Note_on_c, 0, 52, 0
2,63150, Note_on_c, 0, 50, 56
2,63209, Note_on_c, 0, 49, 63
2,63218, Note_on_c, 0, 50, 0
2,63285, Note_on_c, 0, 49, 0
2,63299, Note_on_c, 0, 47, 54
2,63384, Note_on_c, 0, 47, 0
2,63408, Note_on_c, 0, 61, 69
2,63411, Note_on_c, 0, 45, 51
2,63422, Control_c, 0, 64, 31
2,63441, Control_c, 0, 64, 59
2,63451, Note_on_c, 0, 61, 0
2,63461, Control_c, 0, 64, 61
2,63479, Control_c, 0, 64, 63
2,63518, Control_c, 0, 64, 63
2,63538, Control_c, 0, 64, 64
2,63556, Control_c, 0, 64, 65
2,63575, Control_c, 0, 64, 65
2,63652, Control_c, 0, 64, 65
2,63710, Control_c, 0, 64, 64
2,63729, Control_c, 0, 64, 59
2,63749, Control_c, 0, 64, 11
2,63767, Control_c, 0, 64, 0
2,63793, Note_on_c, 0, 79, 75
2,63797, Note_on_c, 0, 76, 67
2,63829, Note_on_c, 0, 79, 0
2,63830, Note_on_c, 0, 76, 0
2,63939, Note_on_c, 0, 45, 0
2,63958, Note_on_c, 0, 47, 53
2,64022, Note_on_c, 0, 47, 0
2,64050, Note_on_c, 0, 49, 60
2,64107, Note_on_c, 0, 49, 0
2,64138, Note_on_c, 0, 50, 58
2,64165, Note_on_c, 0, 76, 75
2,64171, Note_on_c, 0, 69, 70
2,64206, Note_on_c, 0, 50, 0
2,64214, Note_on_c, 0, 76, 0
2,64223, Note_on_c, 0, 49, 65
2,64243, Note_on_c, 0, 69, 0
2,64292, Note_on_c, 0, 49, 0
2,64327, Note_on_c, 0, 69, 54
2,64328, Note_on_c, 0, 50, 62
2,64406, Note_on_c, 0, 50, 0
2,64444, Note_on_c, 0, 49, 62
2,64497, Note_on_c, 0, 49, 0
2,64522, Note_on_c, 0, 81, 78
2,64538, Note_on_c, 0, 50, 61
2,64552, Note_on_c, 0, 81, 0
2,64597, Note_on_c, 0, 50, 0
2,64622, Note_on_c, 0, 49, 66
2,64707, Note_on_c, 0, 49, 0
2,64723, Note_on_c, 0, 47, 63
2,64805, Note_on_c, 0, 49, 68
2,64815, Note_on_c, 0, 47, 0
2,64871, Note_on_c, 0, 49, 0
2,64882, Note_on_c, 0, 77, 74
2,64900, Note_on_c, 0, 50, 57
2,64932, Note_on_c, 0, 50, 0
2,64974, Note_on_c, 0, 52, 70
2,65053, Note_on_c, 0, 52, 0
2,65066, Note_on_c, 0, 69, 0
2,65073, Note_on_c, 0, 53, 74
2,65108, Note_on_c, 0, 77, 0
2,65280, Note_on_c, 0, 74, 63
2,65293, Note_on_c, 0, 69, 45
2,65323, Note_on_c, 0, 74, 0
2,65335, Note_on_c, 0, 69, 0
2,65339, Note_on_c, 0, 53, 0
2,65359, Note_on_c, 0, 52, 56
2,65436, Note_on_c, 0, 50, 62
2,65443, Note_on_c, 0, 52, 0
2,65533, Note_on_c, 0, 48, 44
2,65533, Note_on_c, 0, 50, 0
2,65589, Note_on_c, 0, 48, 0
2,65597, Note_on_c, 0, 47, 57
2,65639, Note_on_c, 0, 62, 53
2,65680, Note_on_c, 0, 47, 0
2,65691, Note_on_c, 0, 62, 0
2,65704, Note_on_c, 0, 48, 61
2,65760, Note_on_c, 0, 48, 0
2,65801, Note_on_c, 0, 50, 56
2,66012, Note_on_c, 0, 65, 61
2,66059, Note_on_c, 0, 65, 0
2,66069, Note_on_c, 0, 50, 0
2,66090, Note_on_c, 0, 48, 45
2,66174, Note_on_c, 0, 48, 0
2,66188, Note_on_c, 0, 47, 55
2,66253, Note_on_c, 0, 47, 0
2,66261, Note_on_c, 0, 45, 50
2,66334, Note_on_c, 0, 45, 0
2,66363, Note_on_c, 0, 59, 56
2,66366, Note_on_c, 0, 43, 50
2,66433, Note_on_c, 0, 59, 0
2,66436, Control_c, 0, 64, 46
2,66455, Control_c, 0, 64, 57
2,66475, Control_c, 0, 64, 59
2,66493, Control_c, 0, 64, 61
2,66513, Control_c, 0, 64, 62
2,66532, Control_c, 0, 64, 63
2,66552, Control_c, 0, 64, 64
2,66609, Control_c, 0, 64, 64
2,66647, Control_c, 0, 64, 64
2,66686, Control_c, 0, 64, 63
2,66705, Control_c, 0, 64, 60
2,66724, Control_c, 0, 64, 54
2,66744, Control_c, 0, 64, 40
2,66753, Note_on_c, 0, 74, 53
2,66763, Control_c, 0, 64, 0
2,66768, Note_on_c, 0, 77, 58
2,66793, Note_on_c, 0, 74, 0
2,66809, Note_on_c, 0, 77, 0
2,66928, Note_on_c, 0, 43, 0
2,66939, Note_on_c, 0, 45, 52
2,67008, Note_on_c, 0, 45, 0
2,67040, Note_on_c, 0, 47, 53
2,67093, Note_on_c, 0, 47, 0
2,67120, Note_on_c, 0, 67, 54
2,67123, Note_on_c, 0, 48, 51
2,67125, Note_on_c, 0, 74, 57
2,67168, Note_on_c, 0, 74, 0
2,67179, Note_on_c, 0, 48, 0
2,67210, Note_on_c, 0, 47, 57
2,67239, Note_on_c, 0, 67, 0
2,67256, Note_on_c, 0, 47, 0
2,67291, Note_on_c, 0, 67, 6
2,67304, Note_on_c, 0, 48, 46
2,67346, Note_on_c, 0, 48, 0
2,67365, Note_on_c, 0, 47, 59
2,67431, Note_on_c, 0, 47, 0
2,67472, Note_on_c, 0, 48, 50
2,67484, Note_on_c, 0, 79, 69
2,67524, Note_on_c, 0, 79, 0
2,67528, Note_on_c, 0, 48, 0
2,67570, Note_on_c, 0, 47, 55
2,67620, Note_on_c, 0, 47, 0
2,67674, Note_on_c, 0, 45, 43
2,67731, Note_on_c, 0, 45, 0
2,67746, Note_on_c, 0, 47, 52
2,67811, Note_on_c, 0, 47, 0
2,67843, Note_on_c, 0, 76, 65
2,67859, Note_on_c, 0, 48, 48
2,67919, Note_on_c, 0, 67, 0
2,67919, Note_on_c, 0, 76, 0
2,67935, Note_on_c, 0, 48, 0
2,68240, Note_on_c, 0, 72, 65
2,68284, Note_on_c, 0, 72, 0
2,68357, Note_on_c, 0, 60, 54
2,68408, Note_on_c, 0, 60, 0
2,68477, Note_on_c, 0, 62, 27
2,68501, Note_on_c, 0, 64, 64
2,68523, Note_on_c, 0, 62, 0
2,68549, Note_on_c, 0, 64, 0
2,68580, Note_on_c, 0, 69, 66
2,68595, Note_on_c, 0, 65, 52
2,68637, Note_on_c, 0, 69, 0
2,68699, Note_on_c, 0, 65, 0
2,68982, Note_on_c, 0, 77, 70
2,69030, Note_on_c, 0, 77, 0
2,69071, Note_on_c, 0, 64, 52
2,69114, Note_on_c, 0, 64, 0
2,69153, Note_on_c, 0, 62, 63
2,69223, Note_on_c, 0, 62, 0
2,69235, Note_on_c, 0, 60, 69
2,69295, Note_on_c, 0, 60, 0
2,69322, Note_on_c, 0, 59, 70
2,69331, Note_on_c, 0, 74, 73
2,69408, Note_on_c, 0, 74, 0
2,69422, Note_on_c, 0, 59, 0
2,69717, Note_on_c, 0, 71, 82
2,69720, Note_on_c, 0, 62, 75
2,69763, Note_on_c, 0, 62, 0
2,69779, Note_on_c, 0, 71, 0
2,69808, Note_on_c, 0, 47, 78
2,69900, Note_on_c, 0, 48, 81
2,69903, Note_on_c, 0, 47, 0
2,69962, Note_on_c, 0, 48, 0
2,69979, Note_on_c, 0, 50, 81
2,70036, Note_on_c, 0, 50, 0
2,70052, Note_on_c, 0, 52, 85
2,70058, Note_on_c, 0, 68, 88
2,70061, Note_on_c, 0, 59, 82
2,70125, Note_on_c, 0, 59, 0
2,70142, Control_c, 0, 64, 22
2,70161, Control_c, 0, 64, 44
2,70163, Note_on_c, 0, 68, 0
2,70175, Note_on_c, 0, 52, 0
2,70181, Control_c, 0, 64, 0
2,70443, Note_on_c, 0, 76, 81
2,70452, Note_on_c, 0, 68, 87
2,70551, Note_on_c, 0, 50, 78
2,70559, Note_on_c, 0, 68, 0
2,70561, Note_on_c, 0, 76, 0
2,70636, Note_on_c, 0, 50, 0
2,70643, Note_on_c, 0, 48, 77
2,70715, Note_on_c, 0, 47, 77
2,70740, Note_on_c, 0, 48, 0
2,70832, Note_on_c, 0, 45, 70
2,70835, Note_on_c, 0, 72, 78
2,70844, Note_on_c, 0, 47, 0
2,70844, Note_on_c, 0, 69, 78
2,71055, Note_on_c, 0, 47, 64
2,71099, Note_on_c, 0, 45, 0
2,71155, Note_on_c, 0, 48, 64
2,71170, Note_on_c, 0, 47, 0
2,71203, Note_on_c, 0, 48, 0
2,71204, Note_on_c, 0, 50, 74
2,71245, Note_on_c, 0, 50, 0
2,71276, Note_on_c, 0, 52, 79
2,71314, Note_on_c, 0, 69, 0
2,71365, Note_on_c, 0, 52, 0
2,71375, Note_on_c, 0, 54, 75
2,71469, Note_on_c, 0, 56, 78
2,71502, Note_on_c, 0, 54, 0
2,71553, Note_on_c, 0, 56, 0
2,71554, Note_on_c, 0, 57, 78
2,71582, Control_c, 0, 64, 11
2,71601, Control_c, 0, 64, 15
2,71621, Control_c, 0, 64, 18
2,71647, Note_on_c, 0, 71, 71
2,71697, Control_c, 0, 64, 19
2,71716, Control_c, 0, 64, 20
2,71724, Note_on_c, 0, 69, 76
2,71735, Control_c, 0, 64, 23
2,71755, Control_c, 0, 64, 29
2,71773, Control_c, 0, 64, 32
2,71774, Note_on_c, 0, 71, 0
2,71793, Control_c, 0, 64, 35
2,71794, Note_on_c, 0, 67, 75
2,71812, Control_c, 0, 64, 36
2,71817, Note_on_c, 0, 69, 0
2,71832, Control_c, 0, 64, 38
2,71850, Control_c, 0, 64, 39
2,71870, Control_c, 0, 64, 40
2,71879, Note_on_c, 0, 67, 0
2,71889, Control_c, 0, 64, 41
2,71893, Note_on_c, 0, 65, 73
2,71909, Control_c, 0, 64, 42
2,71927, Control_c, 0, 64, 42
2,71985, Note_on_c, 0, 64, 74
2,71985, Note_on_c, 0, 65, 0
2,72002, Control_c, 0, 64, 42
2,72066, Note_on_c, 0, 62, 79
2,72071, Note_on_c, 0, 64, 0
2,72079, Control_c, 0, 64, 43
2,72099, Control_c, 0, 64, 44
2,72102, Note_on_c, 0, 57, 0
2,72118, Control_c, 0, 64, 46
2,72126, Note_on_c, 0, 72, 0
2,72136, Control_c, 0, 64, 50
2,72141, Note_on_c, 0, 62, 0
2,72145, Note_on_c, 0, 60, 80
2,72156, Control_c, 0, 64, 53
2,72175, Control_c, 0, 64, 55
2,72189, Note_on_c, 0, 60, 0
2,72194, Control_c, 0, 64, 49
2,72213, Control_c, 0, 64, 0
2,72224, Note_on_c, 0, 62, 90
2,72328, Note_on_c, 0, 71, 78
2,72411, Note_on_c, 0, 71, 0
2,72423, Note_on_c, 0, 72, 79
2,72490, Note_on_c, 0, 62, 0
2,72504, Note_on_c, 0, 74, 77
2,72505, Control_c, 0, 64, 15
2,72523, Control_c, 0, 64, 0
2,72540, Note_on_c, 0, 72, 0
2,72577, Note_on_c, 0, 74, 0
2,72586, Note_on_c, 0, 56, 81
2,72599, Note_on_c, 0, 59, 79
2,72599, Note_on_c, 0, 76, 95
2,72631, Note_on_c, 0, 59, 0
2,72654, Note_on_c, 0, 56, 0
2,72697, Note_on_c, 0, 78, 83
2,72713, Note_on_c, 0, 76, 0
2,72776, Note_on_c, 0, 57, 78
2,72784, Note_on_c, 0, 80, 78
2,72788, Note_on_c, 0, 54, 67
2,72817, Note_on_c, 0, 78, 0
2,72855, Note_on_c, 0, 57, 0
2,72871, Note_on_c, 0, 54, 0
2,72880, Note_on_c, 0, 81, 78
2,72883, Note_on_c, 0, 80, 0
2,72965, Note_on_c, 0, 52, 80
2,72966, Note_on_c, 0, 56, 89
2,72968, Note_on_c, 0, 83, 82
2,72969, Note_on_c, 0, 81, 0
2,73077, Note_on_c, 0, 81, 83
2,73129, Note_on_c, 0, 52, 0
2,73156, Note_on_c, 0, 80, 81
2,73168, Note_on_c, 0, 83, 0
2,73180, Note_on_c, 0, 81, 0
2,73235, Note_on_c, 0, 78, 79
2,73284, Note_on_c, 0, 80, 0
2,73310, Control_c, 0, 64, 26
2,73328, Note_on_c, 0, 76, 83
2,73329, Control_c, 0, 64, 0
2,73333, Note_on_c, 0, 50, 80
2,73339, Note_on_c, 0, 78, 0
2,73383, Note_on_c, 0, 50, 0
2,73384, Note_on_c, 0, 76, 0
2,73422, Note_on_c, 0, 74, 82
2,73514, Note_on_c, 0, 74, 0
2,73515, Note_on_c, 0, 72, 84
2,73619, Note_on_c, 0, 71, 81
2,73623, Note_on_c, 0, 72, 0
2,73706, Note_on_c, 0, 48, 85
2,73706, Note_on_c, 0, 57, 84
2,73731, Note_on_c, 0, 56, 0
2,73746, Note_on_c, 0, 76, 79
2,73747, Note_on_c, 0, 71, 0
2,73861, Note_on_c, 0, 74, 75
2,73892, Note_on_c, 0, 76, 0
2,73944, Control_c, 0, 64, 26
2,73953, Note_on_c, 0, 72, 78
2,73963, Control_c, 0, 64, 43
2,73982, Control_c, 0, 64, 46
2,73983, Note_on_c, 0, 74, 0
2,74001, Control_c, 0, 64, 47
2,74031, Note_on_c, 0, 71, 80
2,74046, Note_on_c, 0, 72, 0
2,74078, Control_c, 0, 64, 47
2,74102, Note_on_c, 0, 71, 0
2,74107, Note_on_c, 0, 69, 83
2,74159, Note_on_c, 0, 69, 0
2,74173, Control_c, 0, 64, 47
2,74198, Note_on_c, 0, 67, 78
2,74250, Control_c, 0, 64, 47
2,74265, Note_on_c, 0, 57, 0
2,74270, Control_c, 0, 64, 49
2,74279, Note_on_c, 0, 67, 0
2,74280, Note_on_c, 0, 65, 78
2,74289, Control_c, 0, 64, 52
2,74309, Control_c, 0, 64, 56
2,74327, Control_c, 0, 64, 58
2,74347, Control_c, 0, 64, 55
2,74348, Note_on_c, 0, 48, 0
2,74357, Note_on_c, 0, 65, 0
2,74366, Control_c, 0, 64, 33
2,74367, Note_on_c, 0, 64, 77
2,74385, Control_c, 0, 64, 0
2,74407, Note_on_c, 0, 64, 0
2,74415, Note_on_c, 0, 53, 90
2,74452, Note_on_c, 0, 69, 88
2,74548, Note_on_c, 0, 67, 74
2,74570, Note_on_c, 0, 69, 0
2,74627, Note_on_c, 0, 65, 72
2,74641, Note_on_c, 0, 67, 0
2,74705, Note_on_c, 0, 64, 77
2,74709, Note_on_c, 0, 65, 0
2,74787, Note_on_c, 0, 62, 81
2,74789, Note_on_c, 0, 64, 0
2,74842, Note_on_c, 0, 62, 0
2,74881, Note_on_c, 0, 60, 85
2,74950, Note_on_c, 0, 60, 0
2,74968, Note_on_c, 0, 59, 86
2,75053, Note_on_c, 0, 59, 0
2,75060, Note_on_c, 0, 57, 78
2,75070, Note_on_c, 0, 53, 0
2,75186, Note_on_c, 0, 57, 0
2,75188, Note_on_c, 0, 44, 89
2,75213, Note_on_c, 0, 65, 80
2,75328, Note_on_c, 0, 64, 75
2,75369, Note_on_c, 0, 65, 0
2,75412, Note_on_c, 0, 62, 72
2,75462, Note_on_c, 0, 64, 0
2,75498, Note_on_c, 0, 60, 69
2,75535, Note_on_c, 0, 62, 0
2,75572, Note_on_c, 0, 60, 0
2,75581, Note_on_c, 0, 59, 77
2,75615, Note_on_c, 0, 59, 0
2,75668, Note_on_c, 0, 57, 80
2,75734, Note_on_c, 0, 57, 0
2,75748, Note_on_c, 0, 56, 80
2,75825, Note_on_c, 0, 56, 0
2,75839, Note_on_c, 0, 54, 78
2,75889, Note_on_c, 0, 54, 0
2,75932, Note_on_c, 0, 62, 75
2,75940, Note_on_c, 0, 44, 0
2,76021, Note_on_c, 0, 60, 71
2,76046, Note_on_c, 0, 62, 0
2,76091, Note_on_c, 0, 59, 74
2,76109, Note_on_c, 0, 60, 0
2,76157, Note_on_c, 0, 59, 0
2,76183, Note_on_c, 0, 57, 71
2,76257, Note_on_c, 0, 57, 0
2,76265, Note_on_c, 0, 56, 72
2,76345, Note_on_c, 0, 54, 70
2,76351, Note_on_c, 0, 56, 0
2,76404, Note_on_c, 0, 54, 0
2,76422, Note_on_c, 0, 52, 79
2,76506, Note_on_c, 0, 52, 0
2,76512, Note_on_c, 0, 51, 77
2,76544, Note_on_c, 0, 51, 0
2,76594, Note_on_c, 0, 52, 81
2,76830, Note_on_c, 0, 52, 0
2,76966, Note_on_c, 0, 50, 89
2,77008, Note_on_c, 0, 50, 0
2,77053, Note_on_c, 0, 64, 69
2,77118, Note_on_c, 0, 64, 0
2,77128, Note_on_c, 0, 66, 72
2,77215, Note_on_c, 0, 68, 77
2,77262, Note_on_c, 0, 66, 0
2,77314, Note_on_c, 0, 68, 0
2,77322, Note_on_c, 0, 47, 89
2,77322, Note_on_c, 0, 69, 86
2,77387, Note_on_c, 0, 47, 0
2,77414, Note_on_c, 0, 69, 0
2,77429, Note_on_c, 0, 68, 75
2,77465, Note_on_c, 0, 68, 0
2,77503, Note_on_c, 0, 69, 76
2,77571, Note_on_c, 0, 69, 0
2,77577, Note_on_c, 0, 68, 77
2,77624, Note_on_c, 0, 68, 0
2,77657, Note_on_c, 0, 69, 72
2,77694, Note_on_c, 0, 52, 88
2,77727, Note_on_c, 0, 68, 73
2,77742, Note_on_c, 0, 52, 0
2,77766, Note_on_c, 0, 68, 0
2,77789, Note_on_c, 0, 69, 0
2,77834, Note_on_c, 0, 66, 67
2,77956, Note_on_c, 0, 68, 72
2,77998, Note_on_c, 0, 66, 0
2,78055, Note_on_c, 0, 48, 79
2,78062, Note_on_c, 0, 69, 90
2,78079, Note_on_c, 0, 68, 0
2,78283, Control_c, 0, 64, 53
2,78302, Control_c, 0, 64, 58
2,78359, Control_c, 0, 64, 59
2,78364, Note_on_c, 0, 48, 0
2,78378, Control_c, 0, 64, 60
2,78398, Control_c, 0, 64, 61
2,78417, Control_c, 0, 64, 58
2,78436, Control_c, 0, 64, 41
2,78455, Control_c, 0, 64, 0
2,78479, Note_on_c, 0, 45, 79
2,78552, Control_c, 0, 64, 44
2,78570, Control_c, 0, 64, 59
2,78582, Note_on_c, 0, 59, 77
2,78590, Control_c, 0, 64, 63
2,78609, Control_c, 0, 64, 64
2,78640, Note_on_c, 0, 45, 0
2,78667, Control_c, 0, 64, 64
2,78680, Note_on_c, 0, 60, 78
2,78685, Control_c, 0, 64, 65
2,78742, Note_on_c, 0, 59, 0
2,78762, Control_c, 0, 64, 65
2,78771, Note_on_c, 0, 62, 69
2,78778, Note_on_c, 0, 60, 0
2,78800, Control_c, 0, 64, 66
2,78806, Note_on_c, 0, 62, 0
2,78820, Control_c, 0, 64, 65
2,78839, Control_c, 0, 64, 60
2,78857, Control_c, 0, 64, 43
2,78865, Note_on_c, 0, 40, 84
2,78877, Control_c, 0, 64, 0
2,78878, Note_on_c, 0, 62, 80
2,78969, Note_on_c, 0, 62, 0
2,78991, Note_on_c, 0, 61, 69
2,78992, Control_c, 0, 64, 42
2,79011, Control_c, 0, 64, 57
2,79031, Control_c, 0, 64, 62
2,79040, Note_on_c, 0, 61, 0
2,79049, Control_c, 0, 64, 64
2,79064, Note_on_c, 0, 62, 67
2,79069, Control_c, 0, 64, 65
2,79088, Control_c, 0, 64, 66
2,79108, Control_c, 0, 64, 65
2,79126, Control_c, 0, 64, 64
2,79135, Note_on_c, 0, 62, 0
2,79138, Note_on_c, 0, 40, 0
2,79146, Control_c, 0, 64, 58
2,79155, Note_on_c, 0, 61, 69
2,79165, Control_c, 0, 64, 47
2,79190, Control_c, 0, 64, 37
2,79196, Note_on_c, 0, 61, 0
2,79209, Control_c, 0, 64, 36
2,79222, Note_on_c, 0, 62, 54
2,79265, Note_on_c, 0, 62, 0
2,79267, Note_on_c, 0, 43, 78
2,79269, Note_on_c, 0, 61, 71
2,79305, Control_c, 0, 64, 35
2,79315, Note_on_c, 0, 61, 0
2,79324, Control_c, 0, 64, 34
2,79329, Note_on_c, 0, 62, 76
2,79410, Note_on_c, 0, 61, 82
2,79412, Note_on_c, 0, 62, 0
2,79461, Note_on_c, 0, 69, 0
2,79478, Control_c, 0, 64, 34
2,79483, Note_on_c, 0, 61, 0
2,79484, Note_on_c, 0, 59, 77
2,79497, Control_c, 0, 64, 36
2,79516, Control_c, 0, 64, 39
2,79535, Control_c, 0, 64, 40
2,79555, Control_c, 0, 64, 41
2,79573, Control_c, 0, 64, 37
2,79573, Note_on_c, 0, 59, 0
2,79580, Note_on_c, 0, 61, 82
2,79593, Control_c, 0, 64, 0
2,79653, Note_on_c, 0, 61, 0
2,79662, Note_on_c, 0, 43, 0
2,79686, Note_on_c, 0, 62, 83
2,79687, Note_on_c, 0, 41, 73
2,79805, Note_on_c, 0, 40, 79
2,79818, Note_on_c, 0, 41, 0
2,79919, Note_on_c, 0, 38, 89
2,79933, Note_on_c, 0, 40, 0
2,80154, Note_on_c, 0, 71, 86
2,80159, Note_on_c, 0, 65, 78
2,80185, Note_on_c, 0, 62, 0
2,80241, Control_c, 0, 64, 50
2,80261, Control_c, 0, 64, 61
2,80279, Control_c, 0, 64, 63
2,80298, Control_c, 0, 64, 64
2,80318, Control_c, 0, 64, 64
2,80337, Control_c, 0, 64, 65
2,80356, Control_c, 0, 64, 67
2,80375, Control_c, 0, 64, 69
2,80390, Note_on_c, 0, 65, 0
2,80395, Control_c, 0, 64, 70
2,80403, Note_on_c, 0, 40, 72
2,80413, Control_c, 0, 64, 71
2,80418, Note_on_c, 0, 38, 0
2,80472, Control_c, 0, 64, 72
2,80490, Control_c, 0, 64, 73
2,80495, Note_on_c, 0, 41, 84
2,80510, Control_c, 0, 64, 76
2,80511, Note_on_c, 0, 40, 0
2,80529, Control_c, 0, 64, 77
2,80549, Control_c, 0, 64, 78
2,80567, Control_c, 0, 64, 76
2,80587, Control_c, 0, 64, 70
2,80606, Control_c, 0, 64, 59
2,80615, Note_on_c, 0, 64, 80
2,80624, Control_c, 0, 64, 38
2,80624, Note_on_c, 0, 38, 82
2,80626, Note_on_c, 0, 56, 81
2,80627, Note_on_c, 0, 41, 0
2,80638, Note_on_c, 0, 71, 0
2,80643, Control_c, 0, 64, 0
2,80777, Control_c, 0, 64, 9
2,80797, Control_c, 0, 64, 39
2,80806, Note_on_c, 0, 38, 0
2,80809, Note_on_c, 0, 40, 67
2,80816, Control_c, 0, 64, 52
2,80835, Control_c, 0, 64, 56
2,80854, Control_c, 0, 64, 57
2,80867, Note_on_c, 0, 40, 0
2,80872, Note_on_c, 0, 56, 0
2,80874, Control_c, 0, 64, 58
2,80879, Note_on_c, 0, 41, 71
2,80893, Control_c, 0, 64, 59
2,80912, Control_c, 0, 64, 60
2,80931, Control_c, 0, 64, 61
2,80941, Note_on_c, 0, 41, 0
2,80962, Note_on_c, 0, 40, 75
2,81026, Note_on_c, 0, 40, 0
2,81028, Control_c, 0, 64, 61
2,81041, Note_on_c, 0, 41, 75
2,81107, Note_on_c, 0, 41, 0
2,81126, Note_on_c, 0, 40, 71
2,81142, Control_c, 0, 64, 61
2,81177, Note_on_c, 0, 40, 0
2,81179, Control_c, 0, 64, 62
2,81186, Note_on_c, 0, 41, 73
2,81198, Note_on_c, 0, 68, 89
2,81199, Control_c, 0, 64, 62
2,81202, Note_on_c, 0, 59, 74
2,81238, Control_c, 0, 64, 63
2,81249, Note_on_c, 0, 41, 0
2,81257, Note_on_c, 0, 40, 75
2,81286, Note_on_c, 0, 64, 0
2,81314, Note_on_c, 0, 40, 0
2,81330, Note_on_c, 0, 41, 62
2,81333, Control_c, 0, 64, 63
2,81410, Note_on_c, 0, 41, 0
2,81417, Note_on_c, 0, 40, 82
2,81449, Control_c, 0, 64, 63
2,81507, Control_c, 0, 64, 62
2,81525, Control_c, 0, 64, 62
2,81526, Note_on_c, 0, 38, 93
2,81549, Note_on_c, 0, 40, 0
2,81560, Control_c, 0, 64, 61
2,81599, Control_c, 0, 64, 61
2,81656, Control_c, 0, 64, 60
2,81694, Control_c, 0, 64, 60
2,81719, Note_on_c, 0, 40, 85
2,81743, Note_on_c, 0, 59, 0
2,81749, Note_on_c, 0, 38, 0
2,81771, Control_c, 0, 64, 59
2,81791, Control_c, 0, 64, 59
2,81809, Control_c, 0, 64, 58
2,81829, Control_c, 0, 64, 58
2,81848, Control_c, 0, 64, 57
2,81868, Control_c, 0, 64, 57
2,81886, Control_c, 0, 64, 56
2,81925, Control_c, 0, 64, 56
2,81944, Control_c, 0, 64, 55
2,81946, Note_on_c, 0, 40, 0
2,81951, Note_on_c, 0, 33, 76
2,81963, Control_c, 0, 64, 54
2,81983, Control_c, 0, 64, 52
2,82002, Control_c, 0, 64, 51
2,82003, Note_on_c, 0, 68, 0
2,82021, Control_c, 0, 64, 49
2,82040, Control_c, 0, 64, 47
2,82057, Control_c, 0, 64, 45
2,82080, Control_c, 0, 64, 44
2,82100, Control_c, 0, 64, 44
2,82119, Control_c, 0, 64, 42
2,82138, Control_c, 0, 64, 39
2,82157, Control_c, 0, 64, 35
2,82175, Note_on_c, 0, 45, 81
2,82177, Control_c, 0, 64, 30
2,82196, Control_c, 0, 64, 27
2,82215, Control_c, 0, 64, 25
2,82234, Control_c, 0, 64, 23
2,82254, Control_c, 0, 64, 19
2,82272, Control_c, 0, 64, 15
2,82292, Control_c, 0, 64, 13
2,82296, Note_on_c, 0, 61, 73
2,82311, Control_c, 0, 64, 9
2,82331, Control_c, 0, 64, 0
2,82385, Note_on_c, 0, 64, 72
2,82467, Note_on_c, 0, 69, 75
2,82553, Note_on_c, 0, 68, 80
2,82562, Note_on_c, 0, 69, 0
2,82631, Note_on_c, 0, 69, 91
2,82651, Note_on_c, 0, 68, 0
2,84013, Control_c, 0, 64, 38
2,84033, Control_c, 0, 64, 51
2,84051, Control_c, 0, 64, 58
2,84071, Control_c, 0, 64, 62
2,84090, Control_c, 0, 64, 64
2,84110, Control_c, 0, 64, 67
2,84128, Control_c, 0, 64, 70
2,84148, Control_c, 0, 64, 74
2,84167, Control_c, 0, 64, 77
2,84185, Control_c, 0, 64, 80
2,84205, Control_c, 0, 64, 84
2,84224, Control_c, 0, 64, 90
2,84244, Control_c, 0, 64, 95
2,84262, Control_c, 0, 64, 99
2,84282, Control_c, 0, 64, 104
2,84301, Control_c, 0, 64, 127
2,84387, Note_on_c, 0, 33, 0
2,84396, Note_on_c, 0, 69, 0
2,84422, Note_on_c, 0, 45, 0
2,84424, Note_on_c, 0, 61, 0
2,84441, Note_on_c, 0, 64, 0
2,84531, Control_c, 0, 64, 116
2,84551, Control_c, 0, 64, 98
2,84570, Control_c, 0, 64, 89
2,84590, Control_c, 0, 64, 79
2,84608, Control_c, 0, 64, 73
2,84628, Control_c, 0, 64, 69
2,84644, Control_c, 0, 64, 67
2,84663, Control_c, 0, 64, 67
2,84682, Control_c, 0, 64, 66
2,84702, Control_c, 0, 64, 64
2,84721, Control_c, 0, 64, 63
2,84740, Control_c, 0, 64, 61
2,84756, Control_c, 0, 64, 60
2,84776, Control_c, 0, 64, 60
2,84795, Control_c, 0, 64, 59
2,84814, Control_c, 0, 64, 59
2,84833, Control_c, 0, 64, 58
2,84853, Control_c, 0, 64, 55
2,84871, Control_c, 0, 64, 54
2,84891, Control_c, 0, 64, 53
2,84930, Control_c, 0, 64, 53
2,85026, Control_c, 0, 64, 53
2,85065, Control_c, 0, 64, 54
2,85257, Control_c, 0, 64, 53
2,85563, Control_c, 0, 64, 54
2,85602, Control_c, 0, 64, 54
2,85660, Control_c, 0, 64, 55
2,85661, End_track
0, 0, End_of_file
