0, 0, Header, 1, 2, 384
1, 0, Start_track
1, 0, Tempo, 500000
1, 0, Time_signature, 4, 2, 24, 8
1, 1, End_track
2,0,Start_track
2,0, Note_on_c, 0, 56, 49
2,13, Control_c, 0, 64, 49
2,103, Control_c, 0, 64, 49
2,165, Control_c, 0, 64, 50
2,210, Control_c, 0, 64, 50
2,240, Control_c, 0, 64, 51
2,240, Control_c, 0, 67, 8
2,301, Control_c, 0, 64, 51
2,347, Control_c, 0, 64, 52
2,423, Control_c, 0, 67, 0
2,493, Note_on_c, 0, 63, 60
2,765, Note_on_c, 0, 56, 0
2,963, Control_c, 0, 64, 51
2,993, Control_c, 0, 64, 51
2,993, Note_on_c, 0, 60, 65
2,1130, Control_c, 0, 64, 50
2,1192, Control_c, 0, 64, 51
2,1259, Note_on_c, 0, 63, 0
2,1465, Note_on_c, 0, 56, 53
2,1548, Control_c, 0, 64, 50
2,1668, Note_on_c, 0, 60, 0
2,1686, Control_c, 0, 64, 50
2,1852, Control_c, 0, 64, 49
2,1928, Control_c, 0, 64, 49
2,1950, Note_on_c, 0, 65, 66
2,1959, Control_c, 0, 64, 48
2,2004, Control_c, 0, 64, 48
2,2118, Note_on_c, 0, 56, 0
2,2423, Control_c, 0, 64, 47
2,2446, Note_on_c, 0, 61, 63
2,2499, Control_c, 0, 64, 47
2,2545, Control_c, 0, 64, 46
2,2656, Note_on_c, 0, 65, 0
2,2742, Control_c, 0, 64, 46
2,2933, Control_c, 0, 64, 45
2,2986, Note_on_c, 0, 63, 51
2,3076, Note_on_c, 0, 61, 0
2,3495, Control_c, 0, 64, 46
2,3762, Control_c, 0, 64, 46
2,3793, Control_c, 0, 64, 47
2,3808, Control_c, 0, 64, 47
2,3838, Control_c, 0, 64, 48
2,3853, Control_c, 0, 64, 48
2,3868, Control_c, 0, 64, 49
2,3883, Control_c, 0, 64, 49
2,3898, Control_c, 0, 64, 50
2,3929, Control_c, 0, 64, 50
2,3944, Control_c, 0, 64, 51
2,3966, Note_on_c, 0, 51, 39
2,4020, Control_c, 0, 64, 51
2,4186, Note_on_c, 0, 61, 50
2,4339, Control_c, 0, 64, 51
2,4379, Note_on_c, 0, 63, 0
2,4408, Note_on_c, 0, 56, 67
2,4437, Note_on_c, 0, 60, 42
2,4438, Control_c, 0, 64, 50
2,4468, Control_c, 0, 64, 50
2,4481, Note_on_c, 0, 61, 0
2,4615, Note_on_c, 0, 51, 0
2,4624, Note_on_c, 0, 61, 50
2,4640, Note_on_c, 0, 60, 0
2,4833, Note_on_c, 0, 55, 67
2,4834, Control_c, 0, 64, 49
2,4854, Note_on_c, 0, 63, 53
2,4865, Note_on_c, 0, 61, 0
2,4894, Control_c, 0, 64, 49
2,4902, Note_on_c, 0, 56, 0
2,4939, Control_c, 0, 64, 48
2,5051, Note_on_c, 0, 63, 0
2,5062, Note_on_c, 0, 65, 61
2,5256, Note_on_c, 0, 51, 50
2,5285, Note_on_c, 0, 67, 68
2,5302, Note_on_c, 0, 65, 0
2,5319, Note_on_c, 0, 55, 0
2,5490, Note_on_c, 0, 63, 67
2,5494, Note_on_c, 0, 67, 0
2,5665, Control_c, 0, 64, 48
2,5680, Control_c, 0, 64, 47
2,5692, Note_on_c, 0, 60, 62
2,5694, Note_on_c, 0, 68, 73
2,5756, Control_c, 0, 64, 47
2,5771, Control_c, 0, 64, 46
2,5822, Note_on_c, 0, 63, 0
2,5907, Note_on_c, 0, 70, 70
2,5923, Control_c, 0, 64, 46
2,5965, Note_on_c, 0, 68, 0
2,5992, Control_c, 0, 64, 46
2,6110, Note_on_c, 0, 72, 73
2,6118, Note_on_c, 0, 56, 58
2,6130, Control_c, 0, 64, 46
2,6158, Note_on_c, 0, 70, 0
2,6173, Note_on_c, 0, 60, 0
2,6175, Control_c, 0, 64, 45
2,6251, Control_c, 0, 64, 45
2,6276, Note_on_c, 0, 51, 0
2,6312, Control_c, 0, 64, 44
2,6312, Note_on_c, 0, 70, 76
2,6342, Control_c, 0, 64, 44
2,6434, Control_c, 0, 64, 43
2,6503, Note_on_c, 0, 68, 75
2,6508, Note_on_c, 0, 58, 47
2,6510, Control_c, 0, 64, 43
2,6540, Control_c, 0, 64, 42
2,6565, Note_on_c, 0, 56, 0
2,6568, Control_c, 0, 64, 42
2,6602, Note_on_c, 0, 72, 0
2,6614, Control_c, 0, 64, 41
2,6629, Control_c, 0, 64, 41
2,6644, Control_c, 0, 64, 40
2,6659, Control_c, 0, 64, 39
2,6675, Control_c, 0, 64, 38
2,6690, Control_c, 0, 64, 38
2,6713, Control_c, 0, 64, 36
2,6722, Note_on_c, 0, 67, 74
2,6728, Control_c, 0, 64, 35
2,6743, Control_c, 0, 64, 33
2,6749, Note_on_c, 0, 70, 0
2,6758, Control_c, 0, 64, 32
2,6773, Control_c, 0, 64, 29
2,6789, Control_c, 0, 64, 27
2,6804, Control_c, 0, 64, 24
2,6807, Note_on_c, 0, 68, 0
2,6819, Control_c, 0, 64, 21
2,6834, Control_c, 0, 64, 18
2,6849, Control_c, 0, 64, 10
2,6865, Control_c, 0, 64, 0
2,6909, Note_on_c, 0, 51, 43
2,6917, Note_on_c, 0, 65, 75
2,6948, Note_on_c, 0, 58, 0
2,6973, Note_on_c, 0, 67, 0
2,7107, Note_on_c, 0, 68, 69
2,7191, Note_on_c, 0, 65, 0
2,7357, Note_on_c, 0, 67, 60
2,7363, Note_on_c, 0, 58, 39
2,7398, Note_on_c, 0, 68, 0
2,7475, Note_on_c, 0, 51, 0
2,7812, Note_on_c, 0, 55, 45
2,7919, Note_on_c, 0, 58, 0
2,8262, Note_on_c, 0, 56, 49
2,8335, Note_on_c, 0, 55, 0
2,8701, Note_on_c, 0, 56, 0
2,8717, Note_on_c, 0, 51, 35
2,8873, Control_c, 0, 67, 8
2,8934, Control_c, 0, 67, 8
2,8964, Control_c, 0, 67, 9
2,8979, Control_c, 0, 67, 10
2,8995, Control_c, 0, 67, 12
2,9016, Control_c, 0, 67, 12
2,9032, Control_c, 0, 67, 13
2,9047, Control_c, 0, 67, 13
2,9062, Control_c, 0, 67, 14
2,9138, Control_c, 0, 67, 13
2,9168, Note_on_c, 0, 65, 61
2,9169, Control_c, 0, 67, 13
2,9177, Note_on_c, 0, 56, 37
2,9197, Note_on_c, 0, 67, 0
2,9230, Control_c, 0, 67, 12
2,9245, Control_c, 0, 67, 12
2,9290, Control_c, 0, 67, 11
2,9336, Control_c, 0, 67, 11
2,9381, Control_c, 0, 67, 10
2,9382, Note_on_c, 0, 51, 0
2,9534, Control_c, 0, 67, 10
2,9646, Note_on_c, 0, 53, 44
2,9659, Control_c, 0, 67, 9
2,9802, Control_c, 0, 67, 9
2,9863, Control_c, 0, 67, 8
2,10000, Control_c, 0, 67, 8
2,10076, Control_c, 0, 67, 0
2,10083, Note_on_c, 0, 55, 46
2,10089, Note_on_c, 0, 53, 0
2,10116, Note_on_c, 0, 56, 0
2,10289, Note_on_c, 0, 63, 56
2,10312, Note_on_c, 0, 65, 0
2,10502, Note_on_c, 0, 62, 68
2,10582, Note_on_c, 0, 63, 0
2,10703, Note_on_c, 0, 65, 63
2,10744, Note_on_c, 0, 62, 0
2,10929, Note_on_c, 0, 63, 59
2,10957, Note_on_c, 0, 65, 0
2,11110, Note_on_c, 0, 48, 51
2,11269, Note_on_c, 0, 55, 0
2,11347, Note_on_c, 0, 49, 61
2,11471, Note_on_c, 0, 48, 0
2,11549, Note_on_c, 0, 51, 65
2,11753, Note_on_c, 0, 49, 0
2,11755, Note_on_c, 0, 53, 69
2,11837, Note_on_c, 0, 51, 0
2,11948, Note_on_c, 0, 53, 0
2,11963, Note_on_c, 0, 55, 56
2,12163, Note_on_c, 0, 61, 53
2,12171, Note_on_c, 0, 56, 48
2,12173, Note_on_c, 0, 55, 0
2,12190, Note_on_c, 0, 63, 0
2,12324, Note_on_c, 0, 56, 0
2,12350, Note_on_c, 0, 53, 49
2,12356, Note_on_c, 0, 60, 53
2,12403, Note_on_c, 0, 61, 0
2,12550, Note_on_c, 0, 60, 0
2,12555, Note_on_c, 0, 58, 42
2,12556, Note_on_c, 0, 61, 60
2,12740, Note_on_c, 0, 58, 0
2,12758, Note_on_c, 0, 65, 67
2,12769, Note_on_c, 0, 60, 48
2,12770, Note_on_c, 0, 61, 0
2,12925, Note_on_c, 0, 60, 0
2,12954, Note_on_c, 0, 70, 72
2,12967, Note_on_c, 0, 61, 49
2,12985, Note_on_c, 0, 65, 0
2,13128, Note_on_c, 0, 61, 0
2,13151, Note_on_c, 0, 68, 75
2,13154, Note_on_c, 0, 60, 51
2,13345, Note_on_c, 0, 60, 0
2,13350, Note_on_c, 0, 67, 76
2,13351, Note_on_c, 0, 58, 53
2,13391, Note_on_c, 0, 70, 0
2,13425, Note_on_c, 0, 68, 0
2,13465, Note_on_c, 0, 53, 0
2,13519, Note_on_c, 0, 58, 0
2,13536, Note_on_c, 0, 56, 54
2,13545, Note_on_c, 0, 65, 78
2,13709, Note_on_c, 0, 56, 0
2,13742, Note_on_c, 0, 55, 47
2,13752, Note_on_c, 0, 63, 76
2,13764, Note_on_c, 0, 65, 0
2,13775, Note_on_c, 0, 67, 0
2,13914, Note_on_c, 0, 63, 0
2,13927, Note_on_c, 0, 58, 53
2,13934, Note_on_c, 0, 61, 66
2,14097, Note_on_c, 0, 58, 0
2,14118, Note_on_c, 0, 55, 0
2,14158, Note_on_c, 0, 60, 47
2,14158, Note_on_c, 0, 68, 72
2,14160, Note_on_c, 0, 56, 47
2,14247, Note_on_c, 0, 61, 0
2,14266, Control_c, 0, 64, 10
2,14281, Control_c, 0, 64, 18
2,14296, Control_c, 0, 64, 21
2,14312, Control_c, 0, 64, 22
2,14349, Note_on_c, 0, 58, 58
2,14408, Note_on_c, 0, 60, 0
2,14411, Control_c, 0, 64, 24
2,14427, Control_c, 0, 64, 27
2,14441, Control_c, 0, 64, 32
2,14456, Control_c, 0, 64, 35
2,14472, Control_c, 0, 64, 37
2,14486, Control_c, 0, 64, 39
2,14502, Control_c, 0, 64, 40
2,14517, Control_c, 0, 64, 40
2,14532, Control_c, 0, 64, 41
2,14548, Control_c, 0, 64, 41
2,14563, Note_on_c, 0, 60, 52
2,14570, Note_on_c, 0, 75, 82
2,14577, Control_c, 0, 64, 42
2,14577, Note_on_c, 0, 58, 0
2,14608, Control_c, 0, 64, 43
2,14624, Control_c, 0, 64, 44
2,14639, Control_c, 0, 64, 46
2,14653, Control_c, 0, 64, 47
2,14669, Control_c, 0, 64, 48
2,14684, Control_c, 0, 64, 50
2,14700, Control_c, 0, 64, 52
2,14715, Control_c, 0, 64, 54
2,14730, Control_c, 0, 64, 56
2,14746, Control_c, 0, 64, 58
2,14758, Note_on_c, 0, 60, 0
2,14761, Control_c, 0, 64, 59
2,14762, Note_on_c, 0, 61, 68
2,14775, Control_c, 0, 64, 61
2,14791, Control_c, 0, 64, 61
2,14822, Control_c, 0, 64, 62
2,14862, Note_on_c, 0, 61, 0
2,14914, Note_on_c, 0, 68, 0
2,14965, Note_on_c, 0, 72, 80
2,14969, Note_on_c, 0, 63, 63
2,14972, Control_c, 0, 64, 62
2,15003, Control_c, 0, 64, 63
2,15019, Control_c, 0, 64, 63
2,15171, Note_on_c, 0, 44, 69
2,15253, Note_on_c, 0, 63, 0
2,15321, Note_on_c, 0, 75, 0
2,15346, Control_c, 0, 64, 63
2,15361, Control_c, 0, 64, 62
2,15370, Note_on_c, 0, 46, 64
2,15388, Note_on_c, 0, 68, 84
2,15434, Note_on_c, 0, 72, 0
2,15483, Control_c, 0, 64, 63
2,15513, Control_c, 0, 64, 63
2,15522, Note_on_c, 0, 44, 0
2,15558, Note_on_c, 0, 48, 61
2,15613, Note_on_c, 0, 46, 0
2,15645, Note_on_c, 0, 48, 0
2,15666, Control_c, 0, 64, 63
2,15695, Control_c, 0, 64, 62
2,15711, Control_c, 0, 64, 62
2,15726, Control_c, 0, 64, 59
2,15741, Control_c, 0, 64, 51
2,15756, Control_c, 0, 64, 26
2,15772, Control_c, 0, 64, 0
2,15788, Note_on_c, 0, 49, 58
2,15792, Note_on_c, 0, 77, 87
2,15947, Control_c, 0, 64, 39
2,15958, Note_on_c, 0, 68, 0
2,15963, Control_c, 0, 64, 52
2,15974, Note_on_c, 0, 51, 56
2,15977, Control_c, 0, 64, 57
2,15993, Control_c, 0, 64, 59
2,16008, Control_c, 0, 64, 60
2,16024, Control_c, 0, 64, 60
2,16084, Control_c, 0, 64, 60
2,16146, Control_c, 0, 64, 60
2,16205, Note_on_c, 0, 73, 86
2,16206, Control_c, 0, 64, 61
2,16206, Note_on_c, 0, 53, 62
2,16222, Control_c, 0, 64, 61
2,16237, Note_on_c, 0, 51, 0
2,16243, Note_on_c, 0, 74, 37
2,16250, Note_on_c, 0, 77, 0
2,16252, Control_c, 0, 64, 62
2,16267, Control_c, 0, 64, 62
2,16271, Note_on_c, 0, 74, 0
2,16277, Note_on_c, 0, 49, 0
2,16297, Control_c, 0, 64, 63
2,16373, Control_c, 0, 64, 63
2,16380, Note_on_c, 0, 51, 58
2,16403, Control_c, 0, 64, 63
2,16456, Note_on_c, 0, 53, 0
2,16464, Control_c, 0, 64, 62
2,16494, Control_c, 0, 64, 62
2,16510, Control_c, 0, 64, 61
2,16511, Note_on_c, 0, 56, 0
2,16525, Control_c, 0, 64, 58
2,16541, Control_c, 0, 64, 46
2,16555, Control_c, 0, 64, 0
2,16613, Note_on_c, 0, 75, 74
2,16614, Note_on_c, 0, 49, 49
2,16626, Note_on_c, 0, 55, 43
2,16649, Note_on_c, 0, 73, 0
2,16677, Control_c, 0, 64, 34
2,16681, Note_on_c, 0, 51, 0
2,16700, Control_c, 0, 64, 46
2,16715, Control_c, 0, 64, 49
2,16720, Note_on_c, 0, 49, 0
2,16729, Control_c, 0, 64, 53
2,16745, Control_c, 0, 64, 57
2,16760, Control_c, 0, 64, 59
2,16776, Control_c, 0, 64, 60
2,16792, Control_c, 0, 64, 60
2,16813, Note_on_c, 0, 48, 48
2,16822, Control_c, 0, 64, 61
2,16852, Control_c, 0, 64, 61
2,16868, Control_c, 0, 64, 62
2,16883, Control_c, 0, 64, 62
2,16897, Control_c, 0, 64, 63
2,16913, Control_c, 0, 64, 64
2,16944, Control_c, 0, 64, 64
2,16959, Control_c, 0, 64, 65
2,17005, Control_c, 0, 64, 65
2,17014, Note_on_c, 0, 46, 53
2,17026, Note_on_c, 0, 48, 0
2,17075, Note_on_c, 0, 55, 0
2,17111, Control_c, 0, 64, 65
2,17156, Control_c, 0, 64, 64
2,17215, Note_on_c, 0, 49, 50
2,17232, Control_c, 0, 64, 64
2,17240, Note_on_c, 0, 46, 0
2,17399, Control_c, 0, 64, 62
2,17411, Note_on_c, 0, 49, 0
2,17414, Control_c, 0, 64, 51
2,17429, Control_c, 0, 64, 19
2,17437, Note_on_c, 0, 48, 48
2,17442, Note_on_c, 0, 63, 60
2,17444, Control_c, 0, 64, 0
2,17448, Note_on_c, 0, 56, 38
2,17512, Control_c, 0, 64, 22
2,17527, Control_c, 0, 64, 44
2,17543, Control_c, 0, 64, 52
2,17558, Control_c, 0, 64, 56
2,17573, Control_c, 0, 64, 58
2,17589, Control_c, 0, 64, 60
2,17604, Control_c, 0, 64, 61
2,17620, Control_c, 0, 64, 62
2,17635, Control_c, 0, 64, 62
2,17660, Note_on_c, 0, 58, 65
2,17695, Control_c, 0, 64, 63
2,17726, Note_on_c, 0, 56, 0
2,17762, Note_on_c, 0, 48, 0
2,17859, Note_on_c, 0, 60, 79
2,17861, Note_on_c, 0, 68, 76
2,17950, Note_on_c, 0, 63, 0
2,17988, Note_on_c, 0, 58, 0
2,18014, Control_c, 0, 64, 62
2,18069, Note_on_c, 0, 50, 67
2,18075, Control_c, 0, 64, 62
2,18166, Control_c, 0, 64, 61
2,18197, Control_c, 0, 64, 59
2,18212, Control_c, 0, 64, 47
2,18235, Control_c, 0, 64, 0
2,18266, Note_on_c, 0, 60, 0
2,18274, Note_on_c, 0, 51, 63
2,18279, Note_on_c, 0, 67, 77
2,18345, Note_on_c, 0, 68, 0
2,18364, Note_on_c, 0, 50, 0
2,18414, Control_c, 0, 64, 27
2,18428, Control_c, 0, 64, 48
2,18444, Control_c, 0, 64, 56
2,18459, Control_c, 0, 64, 59
2,18475, Control_c, 0, 64, 61
2,18488, Note_on_c, 0, 53, 74
2,18490, Control_c, 0, 64, 63
2,18504, Control_c, 0, 64, 64
2,18520, Control_c, 0, 64, 64
2,18535, Control_c, 0, 64, 65
2,18590, Note_on_c, 0, 51, 0
2,18685, Note_on_c, 0, 55, 78
2,18687, Note_on_c, 0, 67, 0
2,18690, Note_on_c, 0, 63, 79
2,18703, Control_c, 0, 64, 65
2,18718, Control_c, 0, 64, 66
2,18733, Control_c, 0, 64, 66
2,18738, Note_on_c, 0, 53, 0
2,18763, Control_c, 0, 64, 67
2,18825, Note_on_c, 0, 63, 0
2,18840, Control_c, 0, 64, 67
2,18866, Note_on_c, 0, 58, 78
2,18871, Note_on_c, 0, 55, 0
2,18886, Control_c, 0, 64, 68
2,19021, Note_on_c, 0, 75, 0
2,19045, Control_c, 0, 64, 67
2,19060, Control_c, 0, 64, 65
2,19076, Control_c, 0, 64, 60
2,19091, Control_c, 0, 64, 36
2,19096, Note_on_c, 0, 56, 58
2,19106, Control_c, 0, 64, 0
2,19116, Note_on_c, 0, 72, 72
2,19117, Note_on_c, 0, 80, 89
2,19181, Control_c, 0, 64, 46
2,19197, Control_c, 0, 64, 56
2,19212, Control_c, 0, 64, 58
2,19228, Control_c, 0, 64, 60
2,19244, Control_c, 0, 64, 61
2,19259, Control_c, 0, 64, 63
2,19274, Control_c, 0, 64, 63
2,19289, Control_c, 0, 64, 64
2,19304, Control_c, 0, 64, 65
2,19304, Note_on_c, 0, 55, 59
2,19318, Note_on_c, 0, 58, 0
2,19320, Control_c, 0, 64, 66
2,19335, Control_c, 0, 64, 66
2,19340, Note_on_c, 0, 56, 0
2,19349, Control_c, 0, 64, 67
2,19365, Control_c, 0, 64, 68
2,19380, Control_c, 0, 64, 69
2,19396, Control_c, 0, 64, 70
2,19471, Control_c, 0, 64, 68
2,19486, Control_c, 0, 64, 63
2,19501, Control_c, 0, 64, 51
2,19517, Control_c, 0, 64, 30
2,19532, Control_c, 0, 64, 0
2,19532, Note_on_c, 0, 68, 87
2,19536, Note_on_c, 0, 60, 65
2,19541, Note_on_c, 0, 53, 61
2,19547, Control_c, 0, 64, 13
2,19563, Control_c, 0, 64, 35
2,19578, Control_c, 0, 64, 51
2,19589, Note_on_c, 0, 55, 0
2,19593, Control_c, 0, 64, 59
2,19606, Control_c, 0, 64, 61
2,19621, Control_c, 0, 64, 63
2,19637, Control_c, 0, 64, 64
2,19652, Control_c, 0, 64, 64
2,19667, Control_c, 0, 64, 65
2,19682, Control_c, 0, 64, 66
2,19683, Note_on_c, 0, 72, 0
2,19686, Note_on_c, 0, 60, 0
2,19697, Control_c, 0, 64, 66
2,19707, Note_on_c, 0, 51, 61
2,19707, Note_on_c, 0, 53, 0
2,19713, Control_c, 0, 64, 67
2,19745, Note_on_c, 0, 51, 0
2,19766, Control_c, 0, 64, 67
2,19857, Control_c, 0, 64, 68
2,19881, Note_on_c, 0, 80, 0
2,19948, Control_c, 0, 64, 67
2,19963, Control_c, 0, 64, 66
2,19964, Note_on_c, 0, 53, 48
2,19964, Note_on_c, 0, 70, 61
2,19967, Note_on_c, 0, 80, 87
2,19978, Control_c, 0, 64, 60
2,19981, Note_on_c, 0, 50, 49
2,19994, Control_c, 0, 64, 32
2,20009, Control_c, 0, 64, 0
2,20073, Note_on_c, 0, 68, 0
2,20086, Control_c, 0, 64, 19
2,20101, Control_c, 0, 64, 44
2,20116, Control_c, 0, 64, 49
2,20131, Control_c, 0, 64, 53
2,20146, Control_c, 0, 64, 56
2,20162, Control_c, 0, 64, 58
2,20172, Note_on_c, 0, 46, 60
2,20177, Control_c, 0, 64, 60
2,20193, Control_c, 0, 64, 61
2,20208, Control_c, 0, 64, 62
2,20211, Note_on_c, 0, 50, 0
2,20222, Control_c, 0, 64, 63
2,20238, Control_c, 0, 64, 63
2,20241, Note_on_c, 0, 53, 0
2,20253, Control_c, 0, 64, 64
2,20268, Control_c, 0, 64, 64
2,20284, Control_c, 0, 64, 65
2,20395, Note_on_c, 0, 48, 60
2,20420, Control_c, 0, 64, 64
2,20538, Note_on_c, 0, 46, 0
2,20575, Note_on_c, 0, 50, 60
2,20589, Note_on_c, 0, 48, 0
2,20621, Note_on_c, 0, 50, 0
2,20694, Note_on_c, 0, 80, 0
2,20762, Control_c, 0, 64, 64
2,20777, Control_c, 0, 64, 61
2,20791, Control_c, 0, 64, 48
2,20805, Note_on_c, 0, 51, 53
2,20807, Control_c, 0, 64, 0
2,20808, Note_on_c, 0, 79, 73
2,20898, Note_on_c, 0, 70, 0
2,20901, Control_c, 0, 64, 35
2,20917, Control_c, 0, 64, 53
2,20932, Control_c, 0, 64, 57
2,20948, Control_c, 0, 64, 59
2,20962, Control_c, 0, 64, 61
2,20977, Control_c, 0, 64, 62
2,20993, Control_c, 0, 64, 62
2,21008, Control_c, 0, 64, 63
2,21023, Control_c, 0, 64, 63
2,21023, Note_on_c, 0, 63, 49
2,21069, Control_c, 0, 64, 64
2,21109, Note_on_c, 0, 79, 0
2,21115, Control_c, 0, 64, 65
2,21160, Control_c, 0, 64, 65
2,21215, Note_on_c, 0, 65, 60
2,21282, Control_c, 0, 64, 65
2,21308, Note_on_c, 0, 65, 0
2,21380, Control_c, 0, 64, 64
2,21394, Note_on_c, 0, 63, 0
2,21422, Note_on_c, 0, 67, 58
2,21501, Control_c, 0, 64, 64
2,21580, Control_c, 0, 64, 63
2,21610, Control_c, 0, 64, 62
2,21629, Note_on_c, 0, 77, 70
2,21634, Note_on_c, 0, 68, 53
2,21640, Control_c, 0, 64, 62
2,21671, Control_c, 0, 64, 61
2,21687, Control_c, 0, 64, 61
2,21690, Note_on_c, 0, 67, 0
2,21718, Control_c, 0, 64, 60
2,21732, Control_c, 0, 64, 60
2,21763, Control_c, 0, 64, 59
2,21779, Control_c, 0, 64, 57
2,21794, Control_c, 0, 64, 57
2,21832, Note_on_c, 0, 70, 56
2,21839, Control_c, 0, 64, 57
2,21850, Note_on_c, 0, 68, 0
2,21869, Control_c, 0, 64, 58
2,21946, Control_c, 0, 64, 57
2,21961, Control_c, 0, 64, 54
2,21976, Control_c, 0, 64, 48
2,21991, Control_c, 0, 64, 41
2,22006, Control_c, 0, 64, 38
2,22022, Control_c, 0, 64, 38
2,22031, Note_on_c, 0, 56, 67
2,22037, Control_c, 0, 64, 41
2,22052, Control_c, 0, 64, 46
2,22053, Note_on_c, 0, 72, 58
2,22074, Control_c, 0, 64, 52
2,22081, Note_on_c, 0, 70, 0
2,22089, Control_c, 0, 64, 56
2,22105, Control_c, 0, 64, 58
2,22120, Control_c, 0, 64, 59
2,22135, Control_c, 0, 64, 60
2,22135, Note_on_c, 0, 51, 0
2,22150, Control_c, 0, 64, 61
2,22211, Control_c, 0, 64, 61
2,22243, Note_on_c, 0, 70, 52
2,22247, Note_on_c, 0, 72, 0
2,22318, Control_c, 0, 64, 62
2,22394, Control_c, 0, 64, 61
2,22409, Control_c, 0, 64, 59
2,22424, Control_c, 0, 64, 50
2,22439, Control_c, 0, 64, 24
2,22439, Note_on_c, 0, 50, 65
2,22453, Note_on_c, 0, 68, 62
2,22454, Control_c, 0, 64, 0
2,22468, Note_on_c, 0, 56, 0
2,22493, Note_on_c, 0, 70, 0
2,22516, Control_c, 0, 64, 32
2,22531, Control_c, 0, 64, 51
2,22547, Control_c, 0, 64, 56
2,22562, Control_c, 0, 64, 58
2,22576, Control_c, 0, 64, 59
2,22592, Control_c, 0, 64, 60
2,22607, Control_c, 0, 64, 61
2,22623, Control_c, 0, 64, 62
2,22649, Note_on_c, 0, 67, 60
2,22652, Control_c, 0, 64, 62
2,22663, Note_on_c, 0, 68, 0
2,22745, Note_on_c, 0, 67, 0
2,22775, Control_c, 0, 64, 63
2,22859, Control_c, 0, 64, 62
2,22867, Note_on_c, 0, 58, 60
2,22869, Note_on_c, 0, 65, 59
2,22893, Note_on_c, 0, 50, 0
2,23010, Control_c, 0, 64, 62
2,23044, Note_on_c, 0, 65, 0
2,23059, Note_on_c, 0, 68, 59
2,23162, Control_c, 0, 64, 61
2,23177, Control_c, 0, 64, 61
2,23193, Control_c, 0, 64, 60
2,23208, Control_c, 0, 64, 57
2,23224, Control_c, 0, 64, 50
2,23233, Note_on_c, 0, 68, 0
2,23239, Control_c, 0, 64, 29
2,23253, Control_c, 0, 64, 0
2,23261, Note_on_c, 0, 51, 48
2,23269, Note_on_c, 0, 67, 51
2,23318, Note_on_c, 0, 58, 0
2,23376, Control_c, 0, 64, 30
2,23392, Control_c, 0, 64, 40
2,23407, Control_c, 0, 64, 46
2,23422, Control_c, 0, 64, 50
2,23437, Control_c, 0, 64, 54
2,23451, Control_c, 0, 64, 56
2,23467, Control_c, 0, 64, 57
2,23482, Control_c, 0, 64, 58
2,23482, Note_on_c, 0, 70, 53
2,23496, Control_c, 0, 64, 59
2,23512, Control_c, 0, 64, 59
2,23527, Control_c, 0, 64, 60
2,23572, Control_c, 0, 64, 60
2,23579, Note_on_c, 0, 77, 0
2,23588, Control_c, 0, 64, 60
2,23611, Control_c, 0, 64, 59
2,23627, Control_c, 0, 64, 59
2,23656, Control_c, 0, 64, 58
2,23682, Note_on_c, 0, 72, 75
2,23745, Note_on_c, 0, 70, 0
2,23872, Note_on_c, 0, 74, 76
2,23900, Control_c, 0, 64, 59
2,23942, Note_on_c, 0, 72, 0
2,24059, Note_on_c, 0, 51, 0
2,24078, Note_on_c, 0, 75, 75
2,24107, Note_on_c, 0, 74, 0
2,24144, Control_c, 0, 64, 59
2,24250, Control_c, 0, 64, 60
2,24269, Note_on_c, 0, 51, 55
2,24295, Control_c, 0, 64, 59
2,24311, Control_c, 0, 64, 55
2,24325, Control_c, 0, 64, 46
2,24341, Control_c, 0, 64, 37
2,24356, Control_c, 0, 64, 36
2,24380, Control_c, 0, 64, 39
2,24394, Control_c, 0, 64, 44
2,24409, Control_c, 0, 64, 49
2,24425, Control_c, 0, 64, 54
2,24430, Note_on_c, 0, 67, 0
2,24440, Control_c, 0, 64, 57
2,24455, Control_c, 0, 64, 59
2,24469, Control_c, 0, 64, 61
2,24483, Control_c, 0, 64, 62
2,24491, Note_on_c, 0, 53, 56
2,24498, Control_c, 0, 64, 62
2,24514, Control_c, 0, 64, 63
2,24543, Control_c, 0, 64, 64
2,24569, Note_on_c, 0, 51, 0
2,24619, Control_c, 0, 64, 64
2,24681, Note_on_c, 0, 55, 67
2,24701, Note_on_c, 0, 53, 0
2,24735, Note_on_c, 0, 55, 0
2,24833, Control_c, 0, 64, 64
2,24847, Control_c, 0, 64, 62
2,24862, Control_c, 0, 64, 55
2,24873, Note_on_c, 0, 56, 64
2,24877, Note_on_c, 0, 65, 62
2,24878, Control_c, 0, 64, 41
2,24893, Control_c, 0, 64, 34
2,24909, Control_c, 0, 64, 35
2,24923, Control_c, 0, 64, 40
2,24938, Control_c, 0, 64, 47
2,24955, Control_c, 0, 64, 54
2,24970, Control_c, 0, 64, 59
2,24986, Control_c, 0, 64, 61
2,25001, Control_c, 0, 64, 61
2,25016, Control_c, 0, 64, 62
2,25031, Control_c, 0, 64, 62
2,25061, Control_c, 0, 64, 63
2,25077, Control_c, 0, 64, 63
2,25084, Note_on_c, 0, 58, 48
2,25091, Note_on_c, 0, 56, 0
2,25107, Control_c, 0, 64, 64
2,25175, Control_c, 0, 64, 64
2,25220, Control_c, 0, 64, 65
2,25277, Note_on_c, 0, 58, 0
2,25282, Control_c, 0, 64, 65
2,25303, Note_on_c, 0, 80, 79
2,25315, Note_on_c, 0, 60, 46
2,25330, Note_on_c, 0, 75, 0
2,25358, Control_c, 0, 64, 66
2,25403, Control_c, 0, 64, 66
2,25499, Note_on_c, 0, 58, 50
2,25509, Control_c, 0, 64, 67
2,25520, Note_on_c, 0, 60, 0
2,25569, Control_c, 0, 64, 67
2,25676, Control_c, 0, 64, 67
2,25691, Control_c, 0, 64, 65
2,25700, Note_on_c, 0, 56, 48
2,25706, Note_on_c, 0, 73, 80
2,25707, Control_c, 0, 64, 61
2,25722, Control_c, 0, 64, 54
2,25727, Note_on_c, 0, 80, 0
2,25753, Control_c, 0, 64, 56
2,25768, Control_c, 0, 64, 59
2,25784, Control_c, 0, 64, 62
2,25799, Control_c, 0, 64, 63
2,25814, Control_c, 0, 64, 64
2,25830, Control_c, 0, 64, 65
2,25845, Control_c, 0, 64, 66
2,25856, Note_on_c, 0, 58, 0
2,25860, Control_c, 0, 64, 66
2,25890, Control_c, 0, 64, 67
2,25942, Control_c, 0, 64, 67
2,25942, Note_on_c, 0, 55, 40
2,25959, Note_on_c, 0, 56, 0
2,25989, Note_on_c, 0, 65, 0
2,26017, Control_c, 0, 64, 68
2,26093, Control_c, 0, 64, 68
2,26120, Note_on_c, 0, 82, 78
2,26124, Note_on_c, 0, 53, 48
2,26124, Note_on_c, 0, 55, 0
2,26139, Control_c, 0, 64, 69
2,26154, Control_c, 0, 64, 70
2,26169, Control_c, 0, 64, 70
2,26183, Note_on_c, 0, 82, 0
2,26264, Note_on_c, 0, 73, 0
2,26340, Note_on_c, 0, 56, 48
2,26355, Note_on_c, 0, 53, 0
2,26533, Note_on_c, 0, 55, 46
2,26534, Control_c, 0, 64, 70
2,26542, Note_on_c, 0, 73, 70
2,26548, Control_c, 0, 64, 67
2,26564, Control_c, 0, 64, 62
2,26566, Note_on_c, 0, 56, 0
2,26579, Control_c, 0, 64, 55
2,26596, Control_c, 0, 64, 50
2,26611, Control_c, 0, 64, 51
2,26626, Control_c, 0, 64, 54
2,26641, Control_c, 0, 64, 57
2,26656, Control_c, 0, 64, 60
2,26680, Control_c, 0, 64, 62
2,26695, Control_c, 0, 64, 63
2,26710, Control_c, 0, 64, 63
2,26725, Control_c, 0, 64, 64
2,26756, Control_c, 0, 67, 8
2,26766, Note_on_c, 0, 63, 44
2,26771, Control_c, 0, 67, 9
2,26785, Control_c, 0, 67, 10
2,26801, Control_c, 0, 67, 11
2,26816, Control_c, 0, 64, 63
2,26816, Control_c, 0, 67, 12
2,26831, Control_c, 0, 67, 13
2,26846, Control_c, 0, 64, 62
2,26846, Control_c, 0, 67, 13
2,26861, Control_c, 0, 64, 61
2,26861, Control_c, 0, 67, 15
2,26877, Control_c, 0, 64, 60
2,26877, Control_c, 0, 67, 16
2,26892, Control_c, 0, 64, 59
2,26892, Control_c, 0, 67, 19
2,26907, Control_c, 0, 64, 58
2,26907, Control_c, 0, 67, 21
2,26909, Note_on_c, 0, 55, 0
2,26923, Control_c, 0, 64, 56
2,26923, Control_c, 0, 67, 23
2,26937, Control_c, 0, 64, 52
2,26937, Control_c, 0, 67, 26
2,26953, Control_c, 0, 64, 50
2,26953, Control_c, 0, 67, 29
2,26956, Note_on_c, 0, 65, 51
2,26965, Note_on_c, 0, 63, 0
2,26968, Control_c, 0, 67, 32
2,26970, Note_on_c, 0, 51, 38
2,26982, Control_c, 0, 64, 51
2,26982, Control_c, 0, 67, 34
2,26998, Control_c, 0, 64, 54
2,26998, Control_c, 0, 67, 36
2,27013, Control_c, 0, 64, 56
2,27013, Control_c, 0, 67, 37
2,27028, Control_c, 0, 64, 60
2,27028, Control_c, 0, 67, 38
2,27044, Control_c, 0, 64, 62
2,27044, Control_c, 0, 67, 39
2,27059, Control_c, 0, 64, 63
2,27059, Control_c, 0, 67, 40
2,27077, Control_c, 0, 64, 64
2,27092, Control_c, 0, 64, 64
2,27092, Control_c, 0, 67, 41
2,27108, Control_c, 0, 64, 65
2,27122, Control_c, 0, 64, 65
2,27137, Control_c, 0, 64, 66
2,27143, Note_on_c, 0, 67, 47
2,27153, Control_c, 0, 67, 42
2,27168, Control_c, 0, 64, 66
2,27168, Control_c, 0, 67, 43
2,27182, Control_c, 0, 67, 45
2,27198, Control_c, 0, 64, 67
2,27198, Control_c, 0, 67, 47
2,27213, Control_c, 0, 67, 49
2,27227, Note_on_c, 0, 51, 0
2,27229, Control_c, 0, 67, 50
2,27244, Control_c, 0, 67, 50
2,27245, Note_on_c, 0, 73, 0
2,27258, Control_c, 0, 67, 51
2,27289, Control_c, 0, 64, 66
2,27304, Control_c, 0, 67, 51
2,27313, Note_on_c, 0, 65, 0
2,27334, Control_c, 0, 64, 66
2,27354, Note_on_c, 0, 67, 0
2,27359, Note_on_c, 0, 68, 51
2,27360, Note_on_c, 0, 72, 64
2,27380, Control_c, 0, 64, 65
2,27411, Control_c, 0, 64, 65
2,27427, Control_c, 0, 64, 64
2,27449, Control_c, 0, 64, 63
2,27449, Control_c, 0, 67, 51
2,27464, Control_c, 0, 64, 63
2,27495, Control_c, 0, 64, 62
2,27511, Control_c, 0, 64, 62
2,27526, Control_c, 0, 67, 50
2,27541, Control_c, 0, 64, 61
2,27557, Control_c, 0, 64, 60
2,27557, Control_c, 0, 67, 50
2,27571, Control_c, 0, 64, 59
2,27578, Note_on_c, 0, 44, 39
2,27599, Note_on_c, 0, 45, 44
2,27616, Control_c, 0, 67, 49
2,27634, Note_on_c, 0, 45, 0
2,27647, Control_c, 0, 64, 59
2,27647, Control_c, 0, 67, 49
2,27692, Control_c, 0, 67, 48
2,27708, Control_c, 0, 67, 48
2,27744, Note_on_c, 0, 46, 64
2,27814, Control_c, 0, 64, 58
2,27829, Control_c, 0, 67, 47
2,27832, Note_on_c, 0, 44, 0
2,27951, Note_on_c, 0, 46, 0
2,27964, Note_on_c, 0, 48, 64
2,28027, Control_c, 0, 64, 59
2,28056, Control_c, 0, 64, 58
2,28087, Control_c, 0, 67, 47
2,28117, Control_c, 0, 67, 46
2,28132, Control_c, 0, 64, 58
2,28151, Note_on_c, 0, 68, 0
2,28153, Note_on_c, 0, 49, 63
2,28165, Note_on_c, 0, 70, 58
2,28179, Note_on_c, 0, 48, 0
2,28262, Control_c, 0, 64, 57
2,28297, Note_on_c, 0, 72, 0
2,28338, Control_c, 0, 67, 47
2,28364, Note_on_c, 0, 51, 70
2,28384, Control_c, 0, 67, 47
2,28399, Control_c, 0, 64, 57
2,28445, Control_c, 0, 64, 56
2,28475, Control_c, 0, 64, 56
2,28475, Control_c, 0, 67, 48
2,28490, Control_c, 0, 64, 55
2,28494, Note_on_c, 0, 49, 0
2,28506, Control_c, 0, 64, 55
2,28521, Control_c, 0, 64, 54
2,28536, Control_c, 0, 64, 54
2,28566, Control_c, 0, 64, 53
2,28579, Note_on_c, 0, 53, 73
2,28581, Control_c, 0, 64, 52
2,28611, Control_c, 0, 64, 52
2,28616, Note_on_c, 0, 51, 0
2,28642, Control_c, 0, 64, 51
2,28673, Control_c, 0, 64, 51
2,28703, Control_c, 0, 64, 50
2,28718, Control_c, 0, 64, 50
2,28733, Control_c, 0, 64, 49
2,28749, Control_c, 0, 64, 49
2,28764, Control_c, 0, 64, 48
2,28764, Control_c, 0, 67, 48
2,28779, Control_c, 0, 64, 47
2,28784, Note_on_c, 0, 53, 0
2,28788, Note_on_c, 0, 51, 58
2,28794, Control_c, 0, 64, 46
2,28809, Control_c, 0, 64, 44
2,28809, Control_c, 0, 67, 49
2,28826, Control_c, 0, 64, 44
2,28841, Control_c, 0, 64, 42
2,28856, Control_c, 0, 64, 41
2,28871, Control_c, 0, 64, 39
2,28886, Control_c, 0, 64, 36
2,28901, Control_c, 0, 64, 32
2,28917, Control_c, 0, 64, 29
2,28932, Control_c, 0, 64, 26
2,28947, Control_c, 0, 64, 22
2,28962, Control_c, 0, 64, 19
2,28962, Control_c, 0, 67, 49
2,28982, Note_on_c, 0, 51, 0
2,28984, Control_c, 0, 64, 16
2,28984, Control_c, 0, 67, 50
2,28993, Note_on_c, 0, 67, 49
2,28995, Note_on_c, 0, 49, 57
2,29000, Control_c, 0, 64, 10
2,29015, Control_c, 0, 64, 0
2,29045, Control_c, 0, 67, 50
2,29077, Control_c, 0, 67, 51
2,29137, Control_c, 0, 67, 51
2,29168, Control_c, 0, 64, 10
2,29168, Control_c, 0, 67, 52
2,29183, Control_c, 0, 64, 13
2,29183, Control_c, 0, 67, 52
2,29198, Control_c, 0, 64, 16
2,29199, Note_on_c, 0, 49, 0
2,29212, Note_on_c, 0, 48, 54
2,29213, Control_c, 0, 64, 18
2,29213, Control_c, 0, 67, 53
2,29229, Control_c, 0, 64, 19
2,29229, Control_c, 0, 67, 56
2,29244, Control_c, 0, 67, 64
2,29259, Control_c, 0, 64, 21
2,29259, Control_c, 0, 67, 72
2,29275, Control_c, 0, 67, 76
2,29290, Control_c, 0, 64, 22
2,29290, Control_c, 0, 67, 80
2,29306, Control_c, 0, 64, 24
2,29306, Control_c, 0, 67, 83
2,29320, Control_c, 0, 67, 85
2,29335, Control_c, 0, 67, 86
2,29351, Control_c, 0, 64, 25
2,29351, Control_c, 0, 67, 87
2,29407, Note_on_c, 0, 48, 0
2,29415, Note_on_c, 0, 46, 52
2,29441, Control_c, 0, 64, 26
2,29517, Control_c, 0, 64, 27
2,29548, Control_c, 0, 67, 87
2,29602, Note_on_c, 0, 46, 0
2,29619, Note_on_c, 0, 49, 45
2,29715, Control_c, 0, 64, 26
2,29753, Control_c, 0, 64, 24
2,29767, Control_c, 0, 64, 22
2,29782, Control_c, 0, 64, 19
2,29798, Control_c, 0, 64, 16
2,29813, Control_c, 0, 64, 0
2,29844, Control_c, 0, 67, 87
2,29852, Note_on_c, 0, 67, 0
2,29853, Note_on_c, 0, 49, 0
2,29859, Note_on_c, 0, 48, 48
2,29870, Note_on_c, 0, 68, 54
2,29936, Control_c, 0, 67, 86
2,29942, Note_on_c, 0, 70, 0
2,29951, Control_c, 0, 67, 86
2,29981, Control_c, 0, 64, 21
2,29981, Control_c, 0, 67, 85
2,29997, Control_c, 0, 64, 42
2,29997, Control_c, 0, 67, 85
2,30012, Control_c, 0, 64, 49
2,30027, Control_c, 0, 64, 54
2,30027, Control_c, 0, 67, 84
2,30042, Control_c, 0, 64, 57
2,30042, Control_c, 0, 67, 84
2,30057, Control_c, 0, 64, 61
2,30073, Control_c, 0, 64, 63
2,30073, Control_c, 0, 67, 83
2,30088, Control_c, 0, 64, 64
2,30088, Control_c, 0, 67, 83
2,30103, Control_c, 0, 64, 65
2,30103, Control_c, 0, 67, 82
2,30119, Control_c, 0, 64, 65
2,30119, Control_c, 0, 67, 82
2,30134, Control_c, 0, 64, 66
2,30150, Control_c, 0, 64, 66
2,30150, Control_c, 0, 67, 81
2,30164, Control_c, 0, 64, 67
2,30179, Control_c, 0, 67, 81
2,30195, Control_c, 0, 67, 80
2,30209, Control_c, 0, 67, 80
2,30224, Control_c, 0, 64, 67
2,30240, Control_c, 0, 67, 79
2,30271, Control_c, 0, 64, 68
2,30271, Control_c, 0, 67, 78
2,30285, Control_c, 0, 64, 68
2,30285, Control_c, 0, 67, 77
2,30290, Note_on_c, 0, 67, 47
2,30300, Control_c, 0, 64, 69
2,30300, Control_c, 0, 67, 77
2,30316, Control_c, 0, 64, 70
2,30316, Control_c, 0, 67, 76
2,30331, Control_c, 0, 64, 70
2,30347, Control_c, 0, 64, 71
2,30347, Control_c, 0, 67, 75
2,30376, Control_c, 0, 64, 71
2,30376, Control_c, 0, 67, 74
2,30392, Control_c, 0, 67, 73
2,30406, Control_c, 0, 67, 69
2,30421, Control_c, 0, 67, 66
2,30431, Note_on_c, 0, 67, 0
2,30437, Control_c, 0, 64, 72
2,30437, Control_c, 0, 67, 64
2,30452, Control_c, 0, 67, 63
2,30468, Control_c, 0, 67, 61
2,30480, Note_on_c, 0, 65, 51
2,30482, Control_c, 0, 67, 55
2,30497, Control_c, 0, 67, 48
2,30521, Control_c, 0, 67, 41
2,30536, Control_c, 0, 67, 33
2,30552, Control_c, 0, 67, 27
2,30566, Control_c, 0, 67, 20
2,30581, Control_c, 0, 67, 11
2,30597, Control_c, 0, 67, 0
2,30611, Control_c, 0, 64, 71
2,30627, Control_c, 0, 64, 71
2,30642, Control_c, 0, 64, 70
2,30657, Control_c, 0, 64, 70
2,30673, Control_c, 0, 64, 69
2,30691, Note_on_c, 0, 56, 65
2,30699, Note_on_c, 0, 65, 0
2,30718, Note_on_c, 0, 63, 48
2,30734, Control_c, 0, 64, 70
2,30746, Note_on_c, 0, 48, 0
2,30765, Control_c, 0, 64, 70
2,30810, Control_c, 0, 64, 71
2,30862, Note_on_c, 0, 63, 0
2,30883, Note_on_c, 0, 56, 0
2,30902, Note_on_c, 0, 61, 53
2,30903, Note_on_c, 0, 49, 59
2,30932, Note_on_c, 0, 49, 0
2,30940, Note_on_c, 0, 61, 0
2,31108, Note_on_c, 0, 63, 89
2,31118, Note_on_c, 0, 51, 74
2,31196, Note_on_c, 0, 63, 0
2,31199, Note_on_c, 0, 51, 0
2,31306, Note_on_c, 0, 48, 63
2,31337, Note_on_c, 0, 61, 49
2,31381, Note_on_c, 0, 61, 0
2,31538, Note_on_c, 0, 48, 0
2,31547, Note_on_c, 0, 68, 0
2,31549, Note_on_c, 0, 60, 89
2,31562, Note_on_c, 0, 53, 65
2,31563, Control_c, 0, 64, 69
2,31573, Note_on_c, 0, 63, 54
2,31578, Control_c, 0, 64, 64
2,31594, Control_c, 0, 64, 56
2,31609, Control_c, 0, 64, 42
2,31624, Control_c, 0, 64, 38
2,31639, Control_c, 0, 64, 43
2,31654, Control_c, 0, 64, 51
2,31670, Control_c, 0, 64, 56
2,31685, Control_c, 0, 64, 59
2,31699, Control_c, 0, 64, 60
2,31715, Control_c, 0, 64, 61
2,31730, Note_on_c, 0, 68, 52
2,31746, Control_c, 0, 64, 61
2,31834, Note_on_c, 0, 63, 0
2,31868, Control_c, 0, 64, 61
2,31954, Note_on_c, 0, 56, 80
2,31957, Control_c, 0, 64, 61
2,31966, Note_on_c, 0, 70, 57
2,32005, Note_on_c, 0, 68, 0
2,32017, Control_c, 0, 64, 62
2,32071, Control_c, 0, 64, 62
2,32119, Note_on_c, 0, 60, 0
2,32162, Control_c, 0, 64, 62
2,32177, Note_on_c, 0, 72, 72
2,32234, Note_on_c, 0, 70, 0
2,32237, Control_c, 0, 64, 61
2,32252, Control_c, 0, 64, 61
2,32268, Control_c, 0, 64, 60
2,32283, Control_c, 0, 64, 59
2,32298, Control_c, 0, 64, 58
2,32314, Control_c, 0, 64, 56
2,32329, Control_c, 0, 64, 52
2,32344, Control_c, 0, 64, 46
2,32360, Control_c, 0, 64, 41
2,32384, Note_on_c, 0, 73, 83
2,32389, Note_on_c, 0, 65, 63
2,32391, Control_c, 0, 64, 43
2,32405, Control_c, 0, 64, 45
2,32420, Control_c, 0, 64, 48
2,32436, Control_c, 0, 64, 53
2,32445, Note_on_c, 0, 72, 0
2,32451, Control_c, 0, 64, 56
2,32467, Control_c, 0, 64, 58
2,32482, Control_c, 0, 64, 59
2,32497, Control_c, 0, 64, 60
2,32513, Control_c, 0, 64, 61
2,32527, Control_c, 0, 64, 61
2,32542, Control_c, 0, 64, 62
2,32558, Control_c, 0, 64, 62
2,32564, Note_on_c, 0, 56, 0
2,32572, Note_on_c, 0, 53, 0
2,32577, Note_on_c, 0, 51, 63
2,32603, Control_c, 0, 64, 63
2,32649, Control_c, 0, 64, 63
2,32680, Control_c, 0, 64, 63
2,32695, Control_c, 0, 64, 62
2,32711, Control_c, 0, 64, 61
2,32726, Control_c, 0, 64, 56
2,32740, Control_c, 0, 64, 52
2,32756, Control_c, 0, 64, 53
2,32771, Control_c, 0, 64, 54
2,32787, Control_c, 0, 64, 57
2,32791, Note_on_c, 0, 53, 43
2,32792, Note_on_c, 0, 61, 86
2,32802, Control_c, 0, 64, 59
2,32806, Note_on_c, 0, 56, 68
2,32824, Control_c, 0, 64, 61
2,32840, Control_c, 0, 64, 62
2,32843, Note_on_c, 0, 51, 0
2,32855, Control_c, 0, 64, 63
2,32870, Control_c, 0, 64, 64
2,32900, Control_c, 0, 64, 64
2,32902, Note_on_c, 0, 65, 0
2,32916, Control_c, 0, 64, 65
2,32931, Control_c, 0, 64, 65
2,32946, Control_c, 0, 64, 66
2,32994, Note_on_c, 0, 49, 71
2,33005, Note_on_c, 0, 53, 0
2,33007, Control_c, 0, 64, 66
2,33011, Note_on_c, 0, 61, 0
2,33047, Note_on_c, 0, 56, 0
2,33052, Control_c, 0, 64, 67
2,33070, Note_on_c, 0, 49, 0
2,33143, Control_c, 0, 64, 67
2,33205, Control_c, 0, 64, 67
2,33219, Note_on_c, 0, 63, 84
2,33220, Control_c, 0, 64, 66
2,33228, Note_on_c, 0, 56, 71
2,33236, Control_c, 0, 64, 65
2,33250, Control_c, 0, 64, 62
2,33266, Control_c, 0, 64, 54
2,33281, Control_c, 0, 64, 42
2,33296, Control_c, 0, 64, 21
2,33311, Control_c, 0, 64, 0
2,33387, Control_c, 0, 64, 18
2,33402, Control_c, 0, 64, 28
2,33405, Note_on_c, 0, 70, 57
2,33414, Note_on_c, 0, 56, 0
2,33415, Note_on_c, 0, 73, 0
2,33416, Note_on_c, 0, 55, 49
2,33417, Control_c, 0, 64, 31
2,33448, Control_c, 0, 64, 32
2,33494, Control_c, 0, 64, 31
2,33509, Control_c, 0, 64, 29
2,33524, Control_c, 0, 64, 28
2,33539, Control_c, 0, 64, 26
2,33555, Control_c, 0, 64, 25
2,33607, Control_c, 0, 64, 28
2,33622, Control_c, 0, 64, 33
2,33622, Note_on_c, 0, 55, 0
2,33622, Note_on_c, 0, 56, 54
2,33638, Control_c, 0, 64, 40
2,33647, Note_on_c, 0, 72, 62
2,33653, Control_c, 0, 64, 48
2,33653, Note_on_c, 0, 70, 0
2,33669, Control_c, 0, 64, 54
2,33683, Control_c, 0, 64, 59
2,33698, Control_c, 0, 64, 61
2,33714, Control_c, 0, 64, 62
2,33729, Control_c, 0, 64, 63
2,33744, Control_c, 0, 64, 64
2,33760, Control_c, 0, 64, 64
2,33775, Control_c, 0, 64, 65
2,33790, Control_c, 0, 64, 66
2,33820, Control_c, 0, 64, 66
2,33838, Note_on_c, 0, 58, 45
2,33839, Note_on_c, 0, 75, 68
2,33843, Note_on_c, 0, 72, 0
2,33866, Control_c, 0, 64, 67
2,33887, Note_on_c, 0, 58, 0
2,33888, Note_on_c, 0, 75, 0
2,33973, Control_c, 0, 64, 66
2,34004, Control_c, 0, 64, 66
2,34008, Note_on_c, 0, 56, 0
2,34018, Control_c, 0, 64, 65
2,34034, Control_c, 0, 64, 65
2,34038, Note_on_c, 0, 80, 68
2,34048, Note_on_c, 0, 60, 45
2,34049, Control_c, 0, 64, 64
2,34094, Control_c, 0, 64, 64
2,34110, Control_c, 0, 64, 63
2,34140, Control_c, 0, 64, 63
2,34155, Control_c, 0, 64, 62
2,34170, Control_c, 0, 64, 62
2,34186, Control_c, 0, 64, 61
2,34200, Control_c, 0, 64, 61
2,34215, Control_c, 0, 64, 60
2,34231, Control_c, 0, 64, 59
2,34233, Note_on_c, 0, 79, 76
2,34246, Control_c, 0, 64, 58
2,34261, Control_c, 0, 64, 57
2,34292, Control_c, 0, 64, 56
2,34306, Note_on_c, 0, 80, 0
2,34337, Control_c, 0, 64, 56
2,34359, Control_c, 0, 64, 55
2,34374, Control_c, 0, 64, 54
2,34430, Note_on_c, 0, 55, 45
2,34430, Note_on_c, 0, 80, 79
2,34451, Control_c, 0, 64, 54
2,34467, Control_c, 0, 64, 53
2,34481, Control_c, 0, 64, 52
2,34496, Control_c, 0, 64, 51
2,34501, Note_on_c, 0, 79, 0
2,34512, Control_c, 0, 64, 51
2,34527, Control_c, 0, 64, 50
2,34542, Control_c, 0, 64, 50
2,34557, Control_c, 0, 64, 49
2,34572, Control_c, 0, 64, 48
2,34588, Control_c, 0, 64, 47
2,34603, Control_c, 0, 64, 46
2,34618, Control_c, 0, 64, 45
2,34622, Note_on_c, 0, 82, 66
2,34633, Control_c, 0, 64, 45
2,34648, Control_c, 0, 64, 44
2,34661, Note_on_c, 0, 80, 0
2,34663, Control_c, 0, 64, 43
2,34679, Control_c, 0, 64, 42
2,34693, Control_c, 0, 64, 40
2,34709, Control_c, 0, 64, 39
2,34724, Control_c, 0, 64, 38
2,34739, Control_c, 0, 64, 36
2,34755, Control_c, 0, 64, 36
2,34767, Note_on_c, 0, 55, 0
2,34769, Control_c, 0, 64, 35
2,34785, Control_c, 0, 64, 34
2,34801, Control_c, 0, 64, 32
2,34816, Control_c, 0, 64, 32
2,34830, Note_on_c, 0, 56, 37
2,34830, Note_on_c, 0, 84, 54
2,34843, Note_on_c, 0, 82, 0
2,34847, Control_c, 0, 64, 32
2,34892, Control_c, 0, 64, 33
2,34904, Note_on_c, 0, 60, 0
2,34923, Control_c, 0, 64, 34
2,34937, Control_c, 0, 64, 35
2,34953, Control_c, 0, 64, 37
2,34968, Control_c, 0, 64, 38
2,34983, Control_c, 0, 64, 40
2,34998, Control_c, 0, 64, 42
2,35013, Control_c, 0, 64, 45
2,35029, Control_c, 0, 64, 47
2,35032, Note_on_c, 0, 82, 53
2,35044, Control_c, 0, 64, 49
2,35059, Control_c, 0, 64, 50
2,35075, Control_c, 0, 64, 51
2,35090, Control_c, 0, 64, 51
2,35142, Control_c, 0, 64, 52
2,35189, Control_c, 0, 64, 52
2,35222, Note_on_c, 0, 84, 0
2,35235, Note_on_c, 0, 80, 52
2,35236, Note_on_c, 0, 53, 33
2,35356, Note_on_c, 0, 56, 0
2,35359, Note_on_c, 0, 63, 0
2,35387, Control_c, 0, 64, 53
2,35430, Note_on_c, 0, 82, 0
2,35436, Note_on_c, 0, 79, 51
2,35459, Note_on_c, 0, 80, 0
2,35492, Control_c, 0, 64, 52
2,35568, Control_c, 0, 64, 52
2,35599, Control_c, 0, 64, 51
2,35621, Note_on_c, 0, 79, 0
2,35642, Note_on_c, 0, 77, 46
2,35645, Control_c, 0, 64, 51
2,35649, Note_on_c, 0, 61, 41
2,35650, Note_on_c, 0, 58, 31
2,35652, Note_on_c, 0, 53, 0
2,35691, Control_c, 0, 64, 50
2,35691, Control_c, 0, 67, 8
2,35705, Control_c, 0, 67, 11
2,35721, Control_c, 0, 67, 14
2,35737, Control_c, 0, 64, 50
2,35737, Control_c, 0, 67, 18
2,35753, Control_c, 0, 67, 22
2,35767, Control_c, 0, 64, 49
2,35767, Control_c, 0, 67, 27
2,35782, Control_c, 0, 67, 32
2,35798, Control_c, 0, 64, 49
2,35798, Control_c, 0, 67, 37
2,35813, Control_c, 0, 67, 42
2,35829, Control_c, 0, 67, 46
2,35843, Control_c, 0, 67, 51
2,35853, Note_on_c, 0, 79, 48
2,35858, Control_c, 0, 67, 55
2,35874, Control_c, 0, 67, 59
2,35897, Control_c, 0, 67, 64
2,35913, Control_c, 0, 67, 67
2,35927, Control_c, 0, 67, 71
2,35942, Control_c, 0, 67, 75
2,35955, Note_on_c, 0, 77, 0
2,35958, Control_c, 0, 67, 79
2,35972, Control_c, 0, 67, 84
2,35988, Control_c, 0, 67, 87
2,36003, Control_c, 0, 67, 92
2,36018, Control_c, 0, 67, 96
2,36034, Control_c, 0, 67, 101
2,36048, Control_c, 0, 67, 105
2,36056, Note_on_c, 0, 80, 55
2,36058, Note_on_c, 0, 53, 20
2,36063, Control_c, 0, 64, 48
2,36063, Control_c, 0, 67, 109
2,36079, Control_c, 0, 67, 113
2,36081, Note_on_c, 0, 79, 0
2,36094, Control_c, 0, 67, 116
2,36110, Control_c, 0, 67, 119
2,36124, Control_c, 0, 67, 122
2,36139, Control_c, 0, 67, 125
2,36155, Control_c, 0, 67, 127
2,36259, Note_on_c, 0, 84, 56
2,36269, Note_on_c, 0, 80, 0
2,36374, Note_on_c, 0, 53, 0
2,36433, Note_on_c, 0, 55, 37
2,36460, Note_on_c, 0, 82, 49
2,36523, Note_on_c, 0, 58, 0
2,36661, Note_on_c, 0, 80, 54
2,36695, Control_c, 0, 64, 49
2,36750, Note_on_c, 0, 82, 0
2,36825, Note_on_c, 0, 55, 0
2,36850, Note_on_c, 0, 51, 38
2,36863, Note_on_c, 0, 79, 50
2,36886, Note_on_c, 0, 80, 0
2,36892, Control_c, 0, 64, 49
2,37029, Note_on_c, 0, 84, 0
2,37032, Note_on_c, 0, 79, 0
2,37059, Control_c, 0, 64, 50
2,37062, Note_on_c, 0, 77, 54
2,37196, Note_on_c, 0, 61, 0
2,37262, Note_on_c, 0, 56, 34
2,37270, Note_on_c, 0, 75, 50
2,37273, Note_on_c, 0, 51, 0
2,37275, Note_on_c, 0, 60, 37
2,37313, Note_on_c, 0, 77, 0
2,37448, Control_c, 0, 64, 50
2,37494, Note_on_c, 0, 77, 58
2,37497, Note_on_c, 0, 75, 0
2,37685, Note_on_c, 0, 51, 38
2,37710, Note_on_c, 0, 79, 55
2,37812, Note_on_c, 0, 77, 0
2,37828, Control_c, 0, 64, 51
2,37893, Note_on_c, 0, 82, 55
2,37942, Note_on_c, 0, 79, 0
2,38089, Note_on_c, 0, 51, 0
2,38095, Note_on_c, 0, 53, 39
2,38104, Note_on_c, 0, 80, 58
2,38132, Control_c, 0, 64, 51
2,38177, Control_c, 0, 64, 52
2,38215, Control_c, 0, 64, 52
2,38217, Note_on_c, 0, 56, 0
2,38231, Control_c, 0, 64, 53
2,38246, Control_c, 0, 64, 53
2,38261, Control_c, 0, 64, 54
2,38277, Control_c, 0, 64, 54
2,38291, Control_c, 0, 64, 55
2,38307, Control_c, 0, 64, 56
2,38313, Note_on_c, 0, 79, 61
2,38322, Control_c, 0, 64, 57
2,38337, Control_c, 0, 64, 57
2,38338, Note_on_c, 0, 82, 0
2,38344, Note_on_c, 0, 80, 0
2,38353, Control_c, 0, 64, 58
2,38382, Control_c, 0, 64, 58
2,38413, Control_c, 0, 64, 59
2,38475, Control_c, 0, 64, 59
2,38490, Note_on_c, 0, 60, 0
2,38507, Note_on_c, 0, 79, 0
2,38514, Note_on_c, 0, 50, 33
2,38520, Control_c, 0, 64, 60
2,38531, Note_on_c, 0, 77, 60
2,38603, Note_on_c, 0, 53, 0
2,38611, Control_c, 0, 64, 60
2,38687, Control_c, 0, 64, 60
2,38721, Note_on_c, 0, 75, 57
2,38727, Note_on_c, 0, 77, 0
2,38885, Control_c, 0, 64, 59
2,38887, Note_on_c, 0, 50, 0
2,38916, Control_c, 0, 64, 58
2,38924, Note_on_c, 0, 58, 45
2,38928, Note_on_c, 0, 74, 55
2,38930, Control_c, 0, 64, 56
2,38930, Note_on_c, 0, 55, 41
2,38939, Note_on_c, 0, 75, 0
2,38945, Control_c, 0, 64, 50
2,38969, Control_c, 0, 64, 35
2,38984, Control_c, 0, 64, 0
2,39075, Control_c, 0, 64, 19
2,39090, Control_c, 0, 64, 32
2,39105, Control_c, 0, 64, 38
2,39121, Control_c, 0, 64, 42
2,39121, Note_on_c, 0, 75, 49
2,39135, Control_c, 0, 64, 44
2,39151, Control_c, 0, 64, 46
2,39164, Note_on_c, 0, 74, 0
2,39166, Control_c, 0, 64, 49
2,39181, Control_c, 0, 64, 51
2,39197, Control_c, 0, 64, 53
2,39211, Control_c, 0, 64, 54
2,39227, Control_c, 0, 64, 56
2,39242, Control_c, 0, 64, 57
2,39257, Control_c, 0, 64, 58
2,39273, Control_c, 0, 64, 59
2,39287, Control_c, 0, 64, 59
2,39302, Control_c, 0, 64, 60
2,39333, Control_c, 0, 64, 60
2,39341, Note_on_c, 0, 50, 31
2,39349, Control_c, 0, 64, 61
2,39351, Note_on_c, 0, 77, 54
2,39364, Control_c, 0, 64, 61
2,39379, Control_c, 0, 64, 62
2,39379, Note_on_c, 0, 75, 0
2,39409, Control_c, 0, 64, 62
2,39440, Control_c, 0, 64, 63
2,39470, Control_c, 0, 64, 63
2,39516, Control_c, 0, 64, 64
2,39541, Note_on_c, 0, 80, 59
2,39576, Control_c, 0, 64, 65
2,39592, Control_c, 0, 64, 65
2,39599, Note_on_c, 0, 77, 0
2,39682, Control_c, 0, 64, 65
2,39698, Control_c, 0, 64, 64
2,39714, Control_c, 0, 64, 61
2,39737, Control_c, 0, 64, 54
2,39745, Note_on_c, 0, 50, 0
2,39753, Control_c, 0, 64, 44
2,39764, Note_on_c, 0, 79, 61
2,39767, Control_c, 0, 64, 40
2,39773, Note_on_c, 0, 52, 37
2,39782, Control_c, 0, 64, 42
2,39798, Control_c, 0, 64, 46
2,39813, Control_c, 0, 64, 52
2,39819, Note_on_c, 0, 80, 0
2,39829, Control_c, 0, 64, 57
2,39843, Control_c, 0, 64, 60
2,39858, Control_c, 0, 64, 61
2,39874, Control_c, 0, 64, 63
2,39889, Control_c, 0, 64, 63
2,39896, Note_on_c, 0, 55, 0
2,39904, Control_c, 0, 64, 64
2,39919, Control_c, 0, 64, 64
2,39934, Control_c, 0, 64, 65
2,39950, Control_c, 0, 64, 65
2,39950, Control_c, 0, 67, 127
2,39954, Note_on_c, 0, 77, 67
2,39965, Control_c, 0, 64, 66
2,39965, Control_c, 0, 67, 124
2,39980, Control_c, 0, 64, 66
2,39980, Control_c, 0, 67, 122
2,39995, Control_c, 0, 64, 67
2,39995, Control_c, 0, 67, 119
2,40010, Control_c, 0, 64, 68
2,40010, Control_c, 0, 67, 117
2,40025, Control_c, 0, 64, 69
2,40025, Control_c, 0, 67, 114
2,40040, Control_c, 0, 64, 70
2,40040, Control_c, 0, 67, 112
2,40044, Note_on_c, 0, 79, 0
2,40055, Control_c, 0, 64, 71
2,40055, Control_c, 0, 67, 109
2,40071, Control_c, 0, 67, 107
2,40086, Control_c, 0, 64, 72
2,40086, Control_c, 0, 67, 105
2,40101, Control_c, 0, 64, 72
2,40101, Control_c, 0, 67, 103
2,40116, Control_c, 0, 67, 100
2,40131, Control_c, 0, 67, 96
2,40147, Control_c, 0, 67, 93
2,40156, Note_on_c, 0, 48, 39
2,40162, Control_c, 0, 67, 90
2,40165, Note_on_c, 0, 58, 0
2,40177, Control_c, 0, 64, 73
2,40177, Control_c, 0, 67, 87
2,40180, Note_on_c, 0, 76, 68
2,40193, Control_c, 0, 67, 82
2,40204, Note_on_c, 0, 52, 0
2,40208, Control_c, 0, 67, 78
2,40223, Control_c, 0, 67, 74
2,40230, Note_on_c, 0, 77, 0
2,40238, Control_c, 0, 67, 70
2,40253, Control_c, 0, 67, 67
2,40269, Control_c, 0, 67, 64
2,40284, Control_c, 0, 67, 61
2,40299, Control_c, 0, 67, 59
2,40314, Control_c, 0, 67, 58
2,40329, Control_c, 0, 67, 57
2,40344, Control_c, 0, 67, 56
2,40375, Note_on_c, 0, 79, 71
2,40380, Note_on_c, 0, 76, 0
2,40427, Note_on_c, 0, 79, 0
2,40535, Control_c, 0, 64, 72
2,40548, Note_on_c, 0, 48, 0
2,40551, Control_c, 0, 64, 69
2,40565, Control_c, 0, 64, 64
2,40565, Control_c, 0, 67, 56
2,40580, Control_c, 0, 64, 56
2,40584, Note_on_c, 0, 56, 42
2,40593, Note_on_c, 0, 50, 46
2,40593, Note_on_c, 0, 77, 76
2,40596, Control_c, 0, 64, 55
2,40596, Note_on_c, 0, 65, 74
2,40611, Control_c, 0, 64, 58
2,40627, Control_c, 0, 64, 60
2,40640, Control_c, 0, 64, 63
2,40655, Control_c, 0, 64, 64
2,40655, Control_c, 0, 67, 56
2,40670, Control_c, 0, 64, 66
2,40685, Control_c, 0, 64, 67
2,40700, Control_c, 0, 64, 67
2,40700, Control_c, 0, 67, 55
2,40716, Control_c, 0, 64, 68
2,40716, Control_c, 0, 67, 55
2,40746, Control_c, 0, 64, 69
2,40761, Control_c, 0, 64, 69
2,40762, Note_on_c, 0, 77, 0
2,40774, Note_on_c, 0, 76, 65
2,40776, Control_c, 0, 64, 70
2,40791, Control_c, 0, 67, 54
2,40798, Note_on_c, 0, 65, 0
2,40807, Control_c, 0, 64, 70
2,40822, Control_c, 0, 64, 71
2,40822, Control_c, 0, 67, 53
2,40837, Control_c, 0, 67, 50
2,40852, Control_c, 0, 67, 48
2,40867, Control_c, 0, 64, 71
2,40867, Control_c, 0, 67, 46
2,40882, Control_c, 0, 67, 45
2,40897, Control_c, 0, 67, 44
2,40899, Note_on_c, 0, 76, 0
2,40912, Control_c, 0, 67, 44
2,40928, Control_c, 0, 67, 43
2,40943, Control_c, 0, 67, 43
2,40958, Control_c, 0, 64, 70
2,40958, Control_c, 0, 67, 42
2,40973, Control_c, 0, 64, 65
2,40973, Control_c, 0, 67, 41
2,40973, Note_on_c, 0, 56, 0
2,40988, Control_c, 0, 64, 60
2,40988, Control_c, 0, 67, 40
2,40995, Note_on_c, 0, 72, 85
2,40998, Note_on_c, 0, 52, 48
2,41004, Control_c, 0, 64, 58
2,41004, Control_c, 0, 67, 39
2,41007, Note_on_c, 0, 55, 48
2,41009, Note_on_c, 0, 77, 78
2,41014, Note_on_c, 0, 50, 0
2,41019, Control_c, 0, 64, 61
2,41019, Control_c, 0, 67, 37
2,41035, Control_c, 0, 64, 63
2,41035, Control_c, 0, 67, 36
2,41049, Control_c, 0, 64, 64
2,41049, Control_c, 0, 67, 33
2,41064, Control_c, 0, 64, 66
2,41064, Control_c, 0, 67, 30
2,41080, Control_c, 0, 64, 67
2,41080, Control_c, 0, 67, 25
2,41095, Control_c, 0, 64, 68
2,41095, Control_c, 0, 67, 19
2,41110, Control_c, 0, 64, 69
2,41110, Control_c, 0, 67, 11
2,41126, Control_c, 0, 64, 70
2,41126, Control_c, 0, 67, 0
2,41141, Control_c, 0, 64, 70
2,41186, Control_c, 0, 64, 71
2,41189, Note_on_c, 0, 79, 73
2,41192, Note_on_c, 0, 52, 0
2,41225, Note_on_c, 0, 77, 0
2,41231, Control_c, 0, 64, 71
2,41324, Note_on_c, 0, 72, 0
2,41404, Note_on_c, 0, 79, 0
2,41407, Control_c, 0, 64, 71
2,41416, Note_on_c, 0, 68, 83
2,41417, Note_on_c, 0, 72, 83
2,41419, Note_on_c, 0, 53, 57
2,41422, Control_c, 0, 64, 68
2,41438, Control_c, 0, 64, 64
2,41453, Control_c, 0, 64, 54
2,41468, Control_c, 0, 64, 52
2,41484, Control_c, 0, 64, 57
2,41499, Control_c, 0, 64, 61
2,41515, Control_c, 0, 64, 64
2,41529, Control_c, 0, 64, 65
2,41544, Control_c, 0, 64, 66
2,41560, Control_c, 0, 64, 67
2,41575, Control_c, 0, 64, 68
2,41583, Note_on_c, 0, 55, 0
2,41590, Control_c, 0, 64, 68
2,41605, Control_c, 0, 64, 69
2,41612, Note_on_c, 0, 53, 0
2,41619, Note_on_c, 0, 68, 0
2,41626, Note_on_c, 0, 58, 57
2,41636, Control_c, 0, 64, 69
2,41666, Control_c, 0, 64, 70
2,41757, Control_c, 0, 64, 70
2,41826, Note_on_c, 0, 77, 94
2,41836, Note_on_c, 0, 65, 78
2,41838, Note_on_c, 0, 56, 50
2,41865, Note_on_c, 0, 72, 0
2,41908, Control_c, 0, 64, 71
2,41927, Note_on_c, 0, 58, 0
2,42015, Note_on_c, 0, 65, 0
2,42038, Note_on_c, 0, 55, 53
2,42068, Note_on_c, 0, 56, 0
2,42074, Note_on_c, 0, 55, 0
2,42114, Control_c, 0, 64, 71
2,42206, Control_c, 0, 64, 71
2,42221, Control_c, 0, 64, 69
2,42236, Control_c, 0, 64, 63
2,42251, Control_c, 0, 64, 46
2,42251, Note_on_c, 0, 46, 58
2,42256, Note_on_c, 0, 73, 86
2,42266, Control_c, 0, 64, 25
2,42274, Note_on_c, 0, 53, 42
2,42282, Control_c, 0, 64, 28
2,42295, Note_on_c, 0, 76, 32
2,42297, Control_c, 0, 64, 39
2,42305, Note_on_c, 0, 77, 0
2,42312, Control_c, 0, 64, 51
2,42327, Control_c, 0, 64, 58
2,42332, Note_on_c, 0, 76, 0
2,42342, Control_c, 0, 64, 62
2,42358, Control_c, 0, 64, 63
2,42373, Control_c, 0, 64, 64
2,42388, Control_c, 0, 64, 65
2,42404, Control_c, 0, 64, 65
2,42419, Control_c, 0, 64, 66
2,42449, Control_c, 0, 64, 66
2,42454, Note_on_c, 0, 53, 0
2,42464, Control_c, 0, 64, 67
2,42468, Note_on_c, 0, 52, 44
2,42480, Control_c, 0, 64, 67
2,42494, Control_c, 0, 64, 68
2,42585, Control_c, 0, 64, 68
2,42648, Note_on_c, 0, 70, 88
2,42656, Note_on_c, 0, 79, 76
2,42676, Note_on_c, 0, 53, 50
2,42682, Note_on_c, 0, 46, 0
2,42682, Note_on_c, 0, 52, 0
2,42706, Control_c, 0, 64, 69
2,42729, Note_on_c, 0, 73, 0
2,42806, Control_c, 0, 64, 69
2,42848, Note_on_c, 0, 53, 0
2,42852, Note_on_c, 0, 76, 54
2,42863, Note_on_c, 0, 55, 51
2,42887, Note_on_c, 0, 70, 0
2,42898, Note_on_c, 0, 55, 0
2,42927, Control_c, 0, 64, 70
2,42963, Note_on_c, 0, 79, 0
2,43017, Note_on_c, 0, 76, 0
2,43050, Control_c, 0, 64, 69
2,43065, Control_c, 0, 64, 66
2,43067, Note_on_c, 0, 56, 55
2,43076, Note_on_c, 0, 72, 74
2,43078, Note_on_c, 0, 77, 77
2,43080, Control_c, 0, 64, 58
2,43094, Note_on_c, 0, 53, 45
2,43095, Control_c, 0, 64, 36
2,43110, Control_c, 0, 64, 27
2,43126, Control_c, 0, 64, 38
2,43140, Control_c, 0, 64, 50
2,43156, Control_c, 0, 64, 59
2,43171, Control_c, 0, 64, 63
2,43186, Control_c, 0, 64, 64
2,43202, Control_c, 0, 64, 64
2,43217, Control_c, 0, 64, 65
2,43232, Control_c, 0, 64, 65
2,43242, Note_on_c, 0, 56, 0
2,43248, Control_c, 0, 64, 66
2,43253, Note_on_c, 0, 76, 72
2,43261, Note_on_c, 0, 58, 55
2,43278, Control_c, 0, 64, 66
2,43293, Control_c, 0, 64, 67
2,43315, Note_on_c, 0, 77, 0
2,43369, Control_c, 0, 64, 66
2,43384, Control_c, 0, 64, 66
2,43400, Control_c, 0, 64, 65
2,43432, Note_on_c, 0, 58, 0
2,43442, Note_on_c, 0, 56, 56
2,43455, Note_on_c, 0, 77, 86
2,43459, Control_c, 0, 64, 66
2,43505, Control_c, 0, 64, 66
2,43521, Note_on_c, 0, 76, 0
2,43554, Note_on_c, 0, 53, 0
2,43589, Control_c, 0, 64, 67
2,43623, Note_on_c, 0, 56, 0
2,43637, Note_on_c, 0, 79, 89
2,43649, Note_on_c, 0, 55, 59
2,43664, Note_on_c, 0, 77, 0
2,43736, Note_on_c, 0, 79, 0
2,43803, Control_c, 0, 64, 66
2,43803, Note_on_c, 0, 55, 0
2,43818, Control_c, 0, 64, 66
2,43827, Note_on_c, 0, 72, 0
2,43834, Control_c, 0, 64, 64
2,43848, Control_c, 0, 64, 61
2,43850, Note_on_c, 0, 53, 51
2,43853, Note_on_c, 0, 77, 54
2,43853, Note_on_c, 0, 80, 78
2,43863, Control_c, 0, 64, 58
2,43879, Control_c, 0, 64, 54
2,43894, Control_c, 0, 64, 52
2,43909, Control_c, 0, 64, 51
2,43924, Control_c, 0, 64, 51
2,43939, Control_c, 0, 64, 51
2,43955, Control_c, 0, 64, 52
2,43969, Control_c, 0, 64, 54
2,43984, Control_c, 0, 64, 56
2,44000, Control_c, 0, 64, 57
2,44015, Control_c, 0, 64, 59
2,44030, Control_c, 0, 64, 59
2,44046, Control_c, 0, 64, 60
2,44068, Note_on_c, 0, 41, 64
2,44091, Control_c, 0, 64, 60
2,44168, Control_c, 0, 64, 60
2,44174, Note_on_c, 0, 53, 0
2,44213, Control_c, 0, 64, 59
2,44242, Note_on_c, 0, 72, 65
2,44244, Control_c, 0, 64, 59
2,44252, Note_on_c, 0, 43, 66
2,44274, Control_c, 0, 64, 58
2,44289, Control_c, 0, 64, 58
2,44319, Control_c, 0, 64, 57
2,44322, Note_on_c, 0, 41, 0
2,44436, Note_on_c, 0, 44, 73
2,44520, Note_on_c, 0, 43, 0
2,44647, Control_c, 0, 64, 58
2,44652, Note_on_c, 0, 46, 83
2,44653, Note_on_c, 0, 73, 66
2,44660, Note_on_c, 0, 72, 0
2,44692, Control_c, 0, 64, 58
2,44695, Note_on_c, 0, 44, 0
2,44834, Note_on_c, 0, 44, 69
2,44882, Note_on_c, 0, 46, 0
2,44948, Control_c, 0, 64, 58
2,44961, Note_on_c, 0, 77, 0
2,45017, Note_on_c, 0, 44, 0
2,45035, Note_on_c, 0, 43, 55
2,45042, Note_on_c, 0, 70, 66
2,45055, Control_c, 0, 64, 57
2,45086, Control_c, 0, 64, 57
2,45108, Control_c, 0, 64, 56
2,45184, Control_c, 0, 67, 8
2,45200, Control_c, 0, 67, 10
2,45215, Control_c, 0, 67, 15
2,45229, Control_c, 0, 67, 20
2,45244, Note_on_c, 0, 41, 50
2,45245, Control_c, 0, 67, 25
2,45260, Control_c, 0, 64, 56
2,45260, Control_c, 0, 67, 29
2,45262, Note_on_c, 0, 43, 0
2,45276, Control_c, 0, 67, 33
2,45285, Note_on_c, 0, 80, 0
2,45290, Control_c, 0, 67, 36
2,45305, Control_c, 0, 67, 38
2,45321, Control_c, 0, 67, 40
2,45336, Control_c, 0, 64, 55
2,45336, Control_c, 0, 67, 42
2,45351, Control_c, 0, 64, 55
2,45351, Control_c, 0, 67, 44
2,45366, Control_c, 0, 64, 54
2,45366, Control_c, 0, 67, 46
2,45381, Control_c, 0, 64, 54
2,45381, Control_c, 0, 67, 49
2,45397, Control_c, 0, 64, 53
2,45397, Control_c, 0, 67, 51
2,45412, Control_c, 0, 67, 54
2,45427, Control_c, 0, 64, 53
2,45427, Control_c, 0, 67, 57
2,45427, Note_on_c, 0, 41, 0
2,45444, Control_c, 0, 67, 60
2,45446, Note_on_c, 0, 39, 49
2,45447, Note_on_c, 0, 79, 68
2,45455, Note_on_c, 0, 75, 55
2,45458, Control_c, 0, 64, 52
2,45458, Control_c, 0, 67, 64
2,45470, Note_on_c, 0, 70, 0
2,45474, Control_c, 0, 67, 67
2,45485, Note_on_c, 0, 73, 0
2,45489, Control_c, 0, 67, 71
2,45504, Control_c, 0, 64, 52
2,45504, Control_c, 0, 67, 74
2,45520, Control_c, 0, 67, 79
2,45534, Control_c, 0, 64, 51
2,45534, Control_c, 0, 67, 83
2,45549, Control_c, 0, 67, 87
2,45565, Control_c, 0, 67, 90
2,45580, Control_c, 0, 67, 93
2,45596, Control_c, 0, 67, 96
2,45611, Control_c, 0, 67, 99
2,45626, Control_c, 0, 67, 102
2,45642, Control_c, 0, 64, 51
2,45642, Control_c, 0, 67, 104
2,45642, Note_on_c, 0, 41, 48
2,45657, Control_c, 0, 67, 106
2,45665, Note_on_c, 0, 39, 0
2,45671, Control_c, 0, 67, 108
2,45687, Control_c, 0, 67, 109
2,45702, Control_c, 0, 67, 109
2,45718, Control_c, 0, 67, 110
2,45733, Control_c, 0, 67, 111
2,45748, Control_c, 0, 67, 113
2,45764, Control_c, 0, 67, 115
2,45779, Control_c, 0, 67, 116
2,45794, Control_c, 0, 67, 118
2,45809, Control_c, 0, 67, 121
2,45811, Note_on_c, 0, 41, 0
2,45824, Control_c, 0, 67, 124
2,45837, Note_on_c, 0, 70, 59
2,45840, Control_c, 0, 67, 127
2,45840, Note_on_c, 0, 43, 46
2,45984, Control_c, 0, 64, 51
2,46043, Note_on_c, 0, 46, 53
2,46125, Note_on_c, 0, 43, 0
2,46207, Note_on_c, 0, 46, 0
2,46235, Note_on_c, 0, 44, 47
2,46242, Control_c, 0, 64, 52
2,46244, Note_on_c, 0, 72, 61
2,46256, Note_on_c, 0, 70, 0
2,46379, Control_c, 0, 64, 52
2,46399, Note_on_c, 0, 44, 0
2,46434, Note_on_c, 0, 43, 54
2,46440, Control_c, 0, 64, 53
2,46516, Control_c, 0, 64, 53
2,46597, Note_on_c, 0, 43, 0
2,46643, Note_on_c, 0, 68, 56
2,46645, Control_c, 0, 64, 54
2,46650, Note_on_c, 0, 41, 39
2,46681, Note_on_c, 0, 72, 0
2,46808, Note_on_c, 0, 79, 0
2,46830, Note_on_c, 0, 39, 48
2,46849, Note_on_c, 0, 41, 0
2,47017, Note_on_c, 0, 39, 0
2,47054, Note_on_c, 0, 77, 64
2,47055, Note_on_c, 0, 37, 39
2,47060, Note_on_c, 0, 73, 51
2,47121, Note_on_c, 0, 68, 0
2,47142, Note_on_c, 0, 75, 0
2,47243, Note_on_c, 0, 39, 49
2,47254, Control_c, 0, 64, 54
2,47284, Control_c, 0, 64, 55
2,47299, Control_c, 0, 64, 55
2,47315, Control_c, 0, 64, 56
2,47330, Control_c, 0, 64, 56
2,47344, Note_on_c, 0, 37, 0
2,47345, Control_c, 0, 64, 57
2,47360, Control_c, 0, 64, 57
2,47375, Control_c, 0, 64, 58
2,47413, Control_c, 0, 64, 58
2,47428, Control_c, 0, 64, 59
2,47434, Note_on_c, 0, 39, 0
2,47459, Control_c, 0, 64, 59
2,47461, Note_on_c, 0, 41, 46
2,47484, Note_on_c, 0, 68, 56
2,47489, Control_c, 0, 64, 60
2,47504, Control_c, 0, 64, 60
2,47506, Note_on_c, 0, 73, 0
2,47535, Control_c, 0, 64, 61
2,47550, Control_c, 0, 64, 61
2,47565, Control_c, 0, 64, 62
2,47596, Control_c, 0, 64, 62
2,47618, Note_on_c, 0, 41, 0
2,47641, Control_c, 0, 64, 63
2,47656, Control_c, 0, 64, 63
2,47659, Note_on_c, 0, 44, 46
2,47702, Control_c, 0, 64, 64
2,47794, Control_c, 0, 64, 63
2,47809, Control_c, 0, 64, 62
2,47823, Control_c, 0, 64, 59
2,47839, Control_c, 0, 64, 59
2,47855, Note_on_c, 0, 43, 46
2,47869, Control_c, 0, 64, 59
2,47869, Note_on_c, 0, 70, 51
2,47885, Control_c, 0, 64, 60
2,47901, Control_c, 0, 64, 61
2,47916, Control_c, 0, 64, 62
2,47931, Control_c, 0, 64, 63
2,47933, Note_on_c, 0, 44, 0
2,47946, Control_c, 0, 64, 64
2,47946, Note_on_c, 0, 77, 0
2,47977, Control_c, 0, 64, 64
2,48003, Note_on_c, 0, 68, 0
2,48022, Control_c, 0, 64, 65
2,48052, Control_c, 0, 64, 65
2,48067, Control_c, 0, 64, 66
2,48075, Note_on_c, 0, 72, 65
2,48115, Note_on_c, 0, 70, 0
2,48243, Control_c, 0, 64, 66
2,48249, Note_on_c, 0, 46, 46
2,48255, Note_on_c, 0, 73, 74
2,48301, Note_on_c, 0, 72, 0
2,48303, Control_c, 0, 64, 67
2,48303, Control_c, 0, 67, 126
2,48319, Control_c, 0, 67, 122
2,48333, Control_c, 0, 67, 118
2,48348, Control_c, 0, 67, 113
2,48364, Control_c, 0, 64, 67
2,48364, Control_c, 0, 67, 107
2,48378, Control_c, 0, 67, 100
2,48394, Control_c, 0, 67, 95
2,48409, Control_c, 0, 67, 91
2,48424, Control_c, 0, 67, 88
2,48439, Note_on_c, 0, 43, 0
2,48440, Control_c, 0, 67, 85
2,48443, Note_on_c, 0, 72, 68
2,48454, Control_c, 0, 67, 81
2,48469, Control_c, 0, 64, 68
2,48469, Control_c, 0, 67, 77
2,48470, Note_on_c, 0, 73, 0
2,48485, Control_c, 0, 67, 73
2,48500, Control_c, 0, 67, 68
2,48516, Control_c, 0, 67, 64
2,48531, Control_c, 0, 67, 60
2,48546, Control_c, 0, 67, 57
2,48561, Control_c, 0, 67, 53
2,48576, Control_c, 0, 67, 49
2,48591, Control_c, 0, 67, 45
2,48607, Control_c, 0, 64, 67
2,48607, Control_c, 0, 67, 43
2,48622, Control_c, 0, 64, 66
2,48622, Control_c, 0, 67, 41
2,48638, Control_c, 0, 64, 64
2,48638, Control_c, 0, 67, 39
2,48653, Control_c, 0, 64, 61
2,48653, Control_c, 0, 67, 36
2,48653, Note_on_c, 0, 76, 70
2,48657, Note_on_c, 0, 48, 38
2,48665, Note_on_c, 0, 70, 56
2,48667, Control_c, 0, 64, 58
2,48667, Control_c, 0, 67, 33
2,48683, Control_c, 0, 67, 28
2,48698, Control_c, 0, 64, 59
2,48698, Control_c, 0, 67, 21
2,48715, Control_c, 0, 64, 60
2,48715, Control_c, 0, 67, 13
2,48726, Note_on_c, 0, 46, 0
2,48729, Control_c, 0, 64, 61
2,48729, Control_c, 0, 67, 0
2,48744, Control_c, 0, 64, 63
2,48760, Control_c, 0, 64, 64
2,48775, Control_c, 0, 64, 64
2,48790, Control_c, 0, 64, 65
2,48805, Control_c, 0, 64, 65
2,48820, Control_c, 0, 64, 66
2,48844, Note_on_c, 0, 68, 64
2,48851, Control_c, 0, 64, 66
2,48855, Note_on_c, 0, 70, 0
2,48866, Control_c, 0, 64, 67
2,48896, Control_c, 0, 64, 67
2,48927, Control_c, 0, 64, 68
2,48965, Control_c, 0, 64, 68
2,49007, Note_on_c, 0, 68, 0
2,49021, Note_on_c, 0, 36, 47
2,49025, Control_c, 0, 64, 69
2,49056, Control_c, 0, 64, 69
2,49064, Note_on_c, 0, 67, 68
2,49125, Note_on_c, 0, 72, 0
2,49137, Note_on_c, 0, 36, 0
2,49147, Control_c, 0, 64, 70
2,49230, Note_on_c, 0, 76, 0
2,49237, Note_on_c, 0, 70, 70
2,49268, Control_c, 0, 64, 69
2,49298, Note_on_c, 0, 67, 0
2,49314, Control_c, 0, 64, 69
2,49329, Control_c, 0, 64, 68
2,49344, Control_c, 0, 64, 68
2,49360, Control_c, 0, 64, 67
2,49374, Control_c, 0, 64, 65
2,49389, Control_c, 0, 64, 63
2,49405, Control_c, 0, 64, 61
2,49409, Note_on_c, 0, 70, 0
2,49417, Note_on_c, 0, 41, 53
2,49420, Control_c, 0, 64, 59
2,49435, Note_on_c, 0, 48, 0
2,49436, Control_c, 0, 64, 56
2,49451, Control_c, 0, 64, 53
2,49454, Note_on_c, 0, 77, 72
2,49465, Note_on_c, 0, 68, 58
2,49466, Control_c, 0, 64, 50
2,49482, Control_c, 0, 64, 49
2,49527, Control_c, 0, 64, 50
2,49558, Control_c, 0, 64, 50
2,49573, Control_c, 0, 64, 51
2,49588, Control_c, 0, 64, 51
2,49619, Control_c, 0, 64, 52
2,49623, Note_on_c, 0, 48, 70
2,49649, Control_c, 0, 64, 51
2,49680, Control_c, 0, 64, 51
2,49683, Note_on_c, 0, 41, 0
2,49733, Control_c, 0, 64, 50
2,49747, Control_c, 0, 64, 50
2,49763, Control_c, 0, 64, 49
2,49778, Control_c, 0, 64, 48
2,49809, Control_c, 0, 64, 47
2,49840, Note_on_c, 0, 50, 73
2,49845, Note_on_c, 0, 68, 0
2,49869, Control_c, 0, 64, 47
2,49885, Control_c, 0, 64, 46
2,49895, Note_on_c, 0, 48, 0
2,49976, Control_c, 0, 64, 46
2,49991, Control_c, 0, 64, 45
2,50007, Control_c, 0, 64, 45
2,50029, Note_on_c, 0, 52, 80
2,50037, Control_c, 0, 64, 44
2,50066, Control_c, 0, 64, 44
2,50082, Control_c, 0, 64, 43
2,50085, Note_on_c, 0, 50, 0
2,50097, Control_c, 0, 64, 42
2,50112, Control_c, 0, 64, 41
2,50128, Control_c, 0, 64, 39
2,50142, Control_c, 0, 64, 36
2,50158, Control_c, 0, 64, 34
2,50173, Control_c, 0, 64, 33
2,50188, Control_c, 0, 64, 32
2,50203, Control_c, 0, 64, 32
2,50218, Control_c, 0, 64, 31
2,50249, Control_c, 0, 64, 30
2,50260, Note_on_c, 0, 53, 75
2,50280, Control_c, 0, 64, 29
2,50286, Note_on_c, 0, 52, 0
2,50310, Control_c, 0, 64, 28
2,50417, Control_c, 0, 64, 29
2,50432, Control_c, 0, 64, 30
2,50448, Control_c, 0, 64, 31
2,50486, Control_c, 0, 64, 32
2,50487, Note_on_c, 0, 75, 46
2,50501, Control_c, 0, 64, 32
2,50516, Control_c, 0, 64, 33
2,50531, Control_c, 0, 64, 34
2,50546, Control_c, 0, 64, 34
2,50562, Control_c, 0, 64, 35
2,50591, Control_c, 0, 64, 36
2,50652, Control_c, 0, 64, 36
2,50689, Note_on_c, 0, 73, 64
2,50714, Control_c, 0, 64, 37
2,50743, Note_on_c, 0, 77, 0
2,50744, Control_c, 0, 64, 38
2,50772, Note_on_c, 0, 75, 0
2,50775, Control_c, 0, 64, 38
2,50881, Control_c, 0, 64, 38
2,50883, Note_on_c, 0, 72, 70
2,50916, Note_on_c, 0, 73, 0
2,50926, Control_c, 0, 64, 37
2,50972, Control_c, 0, 64, 36
2,51032, Control_c, 0, 64, 36
2,51062, Control_c, 0, 64, 35
2,51072, Note_on_c, 0, 70, 69
2,51108, Control_c, 0, 64, 34
2,51123, Note_on_c, 0, 72, 0
2,51154, Control_c, 0, 64, 35
2,51272, Note_on_c, 0, 68, 72
2,51394, Note_on_c, 0, 70, 0
2,51470, Note_on_c, 0, 58, 77
2,51471, Note_on_c, 0, 67, 57
2,51492, Note_on_c, 0, 68, 0
2,51496, Control_c, 0, 64, 34
2,51515, Note_on_c, 0, 53, 0
2,51677, Note_on_c, 0, 68, 63
2,51680, Control_c, 0, 64, 35
2,51695, Note_on_c, 0, 67, 0
2,51725, Control_c, 0, 64, 36
2,51865, Note_on_c, 0, 52, 75
2,51877, Control_c, 0, 64, 35
2,51881, Note_on_c, 0, 70, 57
2,51883, Note_on_c, 0, 58, 0
2,51900, Note_on_c, 0, 68, 0
2,51922, Control_c, 0, 64, 34
2,51967, Control_c, 0, 64, 35
2,52022, Control_c, 0, 67, 8
2,52038, Control_c, 0, 67, 9
2,52053, Control_c, 0, 67, 10
2,52067, Control_c, 0, 67, 13
2,52083, Control_c, 0, 67, 14
2,52098, Control_c, 0, 67, 16
2,52108, Note_on_c, 0, 73, 57
2,52114, Control_c, 0, 67, 17
2,52128, Control_c, 0, 67, 17
2,52139, Note_on_c, 0, 70, 0
2,52159, Control_c, 0, 67, 18
2,52174, Control_c, 0, 67, 18
2,52219, Control_c, 0, 64, 36
2,52265, Control_c, 0, 67, 19
2,52285, Note_on_c, 0, 60, 72
2,52295, Control_c, 0, 67, 19
2,52310, Control_c, 0, 67, 21
2,52310, Note_on_c, 0, 72, 55
2,52325, Control_c, 0, 67, 24
2,52337, Note_on_c, 0, 73, 0
2,52340, Control_c, 0, 67, 27
2,52342, Note_on_c, 0, 52, 0
2,52356, Control_c, 0, 67, 30
2,52371, Control_c, 0, 64, 36
2,52371, Control_c, 0, 67, 32
2,52386, Control_c, 0, 67, 33
2,52402, Control_c, 0, 67, 34
2,52416, Control_c, 0, 67, 35
2,52447, Control_c, 0, 67, 36
2,52462, Control_c, 0, 67, 36
2,52478, Control_c, 0, 67, 37
2,52493, Control_c, 0, 64, 37
2,52496, Note_on_c, 0, 72, 0
2,52503, Note_on_c, 0, 70, 51
2,52508, Control_c, 0, 67, 38
2,52523, Control_c, 0, 67, 39
2,52538, Control_c, 0, 67, 40
2,52554, Control_c, 0, 67, 41
2,52569, Control_c, 0, 67, 43
2,52584, Control_c, 0, 67, 44
2,52599, Control_c, 0, 67, 46
2,52614, Control_c, 0, 67, 46
2,52630, Control_c, 0, 67, 47
2,52646, Control_c, 0, 64, 36
2,52646, Control_c, 0, 67, 47
2,52660, Control_c, 0, 67, 49
2,52664, Note_on_c, 0, 70, 0
2,52676, Control_c, 0, 67, 50
2,52689, Note_on_c, 0, 51, 50
2,52691, Control_c, 0, 67, 51
2,52701, Note_on_c, 0, 69, 54
2,52706, Control_c, 0, 67, 52
2,52720, Note_on_c, 0, 60, 0
2,52722, Control_c, 0, 67, 54
2,52736, Control_c, 0, 67, 55
2,52751, Control_c, 0, 67, 57
2,52767, Control_c, 0, 64, 36
2,52767, Control_c, 0, 67, 59
2,52789, Control_c, 0, 67, 61
2,52805, Control_c, 0, 67, 62
2,52821, Control_c, 0, 67, 63
2,52836, Control_c, 0, 67, 63
2,52851, Control_c, 0, 64, 35
2,52851, Control_c, 0, 67, 64
2,52866, Control_c, 0, 67, 65
2,52882, Control_c, 0, 67, 67
2,52897, Control_c, 0, 67, 68
2,52907, Note_on_c, 0, 72, 47
2,52911, Control_c, 0, 67, 69
2,52927, Control_c, 0, 67, 70
2,52942, Control_c, 0, 67, 71
2,52958, Control_c, 0, 67, 73
2,52973, Control_c, 0, 67, 74
2,52988, Control_c, 0, 67, 75
2,53004, Control_c, 0, 67, 76
2,53019, Control_c, 0, 64, 34
2,53019, Control_c, 0, 67, 77
2,53035, Control_c, 0, 67, 78
2,53049, Control_c, 0, 67, 79
2,53064, Control_c, 0, 64, 34
2,53064, Control_c, 0, 67, 80
2,53080, Control_c, 0, 67, 81
2,53094, Control_c, 0, 67, 82
2,53109, Control_c, 0, 64, 33
2,53109, Control_c, 0, 67, 83
2,53114, Note_on_c, 0, 57, 53
2,53114, Note_on_c, 0, 72, 0
2,53114, Note_on_c, 0, 73, 51
2,53118, Note_on_c, 0, 69, 0
2,53125, Control_c, 0, 67, 84
2,53156, Control_c, 0, 64, 32
2,53156, Control_c, 0, 67, 84
2,53170, Control_c, 0, 67, 85
2,53174, Note_on_c, 0, 51, 0
2,53185, Control_c, 0, 67, 86
2,53201, Control_c, 0, 67, 87
2,53216, Control_c, 0, 67, 89
2,53231, Control_c, 0, 67, 90
2,53246, Control_c, 0, 67, 91
2,53261, Control_c, 0, 67, 92
2,53277, Control_c, 0, 67, 93
2,53291, Control_c, 0, 67, 94
2,53306, Control_c, 0, 67, 94
2,53322, Control_c, 0, 67, 95
2,53337, Control_c, 0, 67, 96
2,53337, Note_on_c, 0, 75, 44
2,53352, Control_c, 0, 64, 33
2,53367, Control_c, 0, 67, 97
2,53373, Note_on_c, 0, 73, 0
2,53428, Control_c, 0, 64, 34
2,53443, Control_c, 0, 64, 34
2,53474, Control_c, 0, 64, 35
2,53489, Control_c, 0, 64, 36
2,53503, Control_c, 0, 64, 38
2,53503, Control_c, 0, 67, 96
2,53505, Note_on_c, 0, 75, 0
2,53519, Control_c, 0, 64, 40
2,53522, Note_on_c, 0, 57, 0
2,53532, Note_on_c, 0, 77, 50
2,53534, Control_c, 0, 64, 45
2,53537, Note_on_c, 0, 58, 54
2,53538, Note_on_c, 0, 49, 47
2,53557, Control_c, 0, 64, 50
2,53572, Control_c, 0, 64, 54
2,53572, Control_c, 0, 67, 96
2,53587, Control_c, 0, 64, 56
2,53587, Control_c, 0, 67, 95
2,53603, Control_c, 0, 64, 58
2,53603, Control_c, 0, 67, 95
2,53618, Control_c, 0, 64, 60
2,53618, Control_c, 0, 67, 94
2,53634, Control_c, 0, 64, 62
2,53649, Control_c, 0, 64, 63
2,53649, Control_c, 0, 67, 94
2,53664, Control_c, 0, 64, 64
2,53680, Control_c, 0, 64, 64
2,53680, Control_c, 0, 67, 93
2,53694, Control_c, 0, 64, 65
2,53694, Control_c, 0, 67, 92
2,53709, Control_c, 0, 64, 65
2,53709, Control_c, 0, 67, 92
2,53725, Control_c, 0, 64, 67
2,53725, Control_c, 0, 67, 91
2,53740, Control_c, 0, 64, 68
2,53740, Control_c, 0, 67, 91
2,53755, Note_on_c, 0, 75, 46
2,53756, Control_c, 0, 67, 90
2,53771, Control_c, 0, 64, 69
2,53771, Control_c, 0, 67, 90
2,53786, Control_c, 0, 67, 89
2,53802, Control_c, 0, 64, 69
2,53802, Control_c, 0, 67, 88
2,53816, Control_c, 0, 67, 88
2,53831, Control_c, 0, 64, 70
2,53831, Control_c, 0, 67, 87
2,53854, Note_on_c, 0, 77, 0
2,53862, Control_c, 0, 64, 70
2,53862, Control_c, 0, 67, 86
2,53878, Control_c, 0, 67, 85
2,53892, Control_c, 0, 64, 71
2,53892, Control_c, 0, 67, 84
2,53907, Control_c, 0, 67, 84
2,53923, Control_c, 0, 64, 71
2,53923, Control_c, 0, 67, 81
2,53937, Control_c, 0, 64, 72
2,53937, Control_c, 0, 67, 79
2,53952, Control_c, 0, 67, 75
2,53961, Note_on_c, 0, 65, 75
2,53968, Control_c, 0, 64, 72
2,53968, Control_c, 0, 67, 70
2,53983, Control_c, 0, 64, 73
2,53983, Control_c, 0, 67, 65
2,53988, Note_on_c, 0, 73, 59
2,53999, Control_c, 0, 64, 73
2,53999, Control_c, 0, 67, 59
2,54011, Note_on_c, 0, 49, 0
2,54013, Control_c, 0, 67, 53
2,54028, Control_c, 0, 67, 45
2,54044, Control_c, 0, 67, 39
2,54059, Control_c, 0, 64, 74
2,54059, Control_c, 0, 67, 34
2,54075, Control_c, 0, 67, 29
2,54089, Control_c, 0, 67, 23
2,54104, Control_c, 0, 67, 19
2,54120, Control_c, 0, 67, 16
2,54132, Note_on_c, 0, 65, 0
2,54135, Control_c, 0, 67, 12
2,54150, Control_c, 0, 67, 10
2,54165, Control_c, 0, 67, 8
2,54167, Note_on_c, 0, 72, 61
2,54180, Control_c, 0, 67, 0
2,54186, Note_on_c, 0, 75, 0
2,54214, Note_on_c, 0, 73, 0
2,54370, Control_c, 0, 64, 72
2,54371, Note_on_c, 0, 61, 81
2,54374, Note_on_c, 0, 58, 0
2,54377, Note_on_c, 0, 70, 67
2,54385, Control_c, 0, 64, 69
2,54387, Note_on_c, 0, 54, 62
2,54401, Control_c, 0, 64, 64
2,54416, Control_c, 0, 64, 56
2,54422, Note_on_c, 0, 72, 0
2,54447, Control_c, 0, 64, 58
2,54462, Control_c, 0, 64, 60
2,54478, Control_c, 0, 64, 62
2,54493, Control_c, 0, 64, 64
2,54508, Control_c, 0, 64, 65
2,54523, Control_c, 0, 64, 65
2,54538, Control_c, 0, 64, 66
2,54554, Control_c, 0, 64, 67
2,54563, Note_on_c, 0, 73, 53
2,54584, Control_c, 0, 64, 67
2,54769, Note_on_c, 0, 78, 65
2,54774, Note_on_c, 0, 58, 71
2,54797, Control_c, 0, 64, 68
2,54872, Control_c, 0, 64, 68
2,54883, Note_on_c, 0, 78, 0
2,54891, Note_on_c, 0, 70, 0
2,54918, Note_on_c, 0, 61, 0
2,54933, Control_c, 0, 64, 69
2,54975, Note_on_c, 0, 77, 68
2,55040, Control_c, 0, 64, 68
2,55048, Note_on_c, 0, 73, 0
2,55055, Control_c, 0, 64, 68
2,55070, Control_c, 0, 64, 66
2,55093, Control_c, 0, 64, 63
2,55108, Control_c, 0, 64, 61
2,55123, Control_c, 0, 64, 62
2,55138, Control_c, 0, 64, 62
2,55154, Control_c, 0, 64, 63
2,55169, Control_c, 0, 64, 64
2,55184, Control_c, 0, 64, 65
2,55185, Note_on_c, 0, 66, 74
2,55195, Note_on_c, 0, 75, 65
2,55199, Control_c, 0, 64, 66
2,55214, Control_c, 0, 64, 66
2,55229, Control_c, 0, 64, 67
2,55260, Control_c, 0, 64, 67
2,55261, Note_on_c, 0, 58, 0
2,55291, Control_c, 0, 64, 68
2,55293, Note_on_c, 0, 77, 0
2,55342, Note_on_c, 0, 54, 0
2,55375, Note_on_c, 0, 73, 72
2,55398, Control_c, 0, 64, 68
2,55431, Note_on_c, 0, 75, 0
2,55443, Note_on_c, 0, 66, 0
2,55470, Note_on_c, 0, 73, 0
2,55535, Control_c, 0, 64, 68
2,55568, Note_on_c, 0, 54, 50
2,55574, Note_on_c, 0, 72, 85
2,55577, Note_on_c, 0, 63, 80
2,55641, Control_c, 0, 64, 67
2,55671, Control_c, 0, 64, 67
2,55702, Control_c, 0, 64, 66
2,55718, Control_c, 0, 64, 66
2,55733, Control_c, 0, 64, 65
2,55747, Control_c, 0, 64, 65
2,55759, Note_on_c, 0, 54, 0
2,55760, Note_on_c, 0, 70, 76
2,55763, Control_c, 0, 64, 64
2,55771, Note_on_c, 0, 53, 53
2,55778, Control_c, 0, 64, 63
2,55794, Control_c, 0, 64, 62
2,55809, Control_c, 0, 64, 61
2,55823, Control_c, 0, 64, 59
2,55839, Control_c, 0, 64, 58
2,55862, Control_c, 0, 64, 56
2,55878, Control_c, 0, 64, 54
2,55893, Control_c, 0, 64, 46
2,55907, Control_c, 0, 64, 33
2,55923, Control_c, 0, 64, 0
2,55968, Note_on_c, 0, 53, 0
2,55985, Note_on_c, 0, 51, 47
2,55997, Note_on_c, 0, 69, 73
2,56004, Note_on_c, 0, 65, 64
2,56028, Note_on_c, 0, 72, 0
2,56060, Note_on_c, 0, 70, 0
2,56070, Note_on_c, 0, 63, 0
2,56199, Note_on_c, 0, 54, 58
2,56202, Note_on_c, 0, 51, 0
2,56212, Control_c, 0, 64, 30
2,56227, Control_c, 0, 64, 45
2,56243, Control_c, 0, 64, 52
2,56258, Control_c, 0, 64, 56
2,56272, Control_c, 0, 64, 60
2,56288, Control_c, 0, 64, 62
2,56303, Control_c, 0, 64, 64
2,56319, Control_c, 0, 64, 65
2,56334, Control_c, 0, 64, 66
2,56348, Control_c, 0, 64, 67
2,56364, Control_c, 0, 64, 68
2,56379, Control_c, 0, 64, 70
2,56395, Control_c, 0, 64, 71
2,56396, Note_on_c, 0, 54, 0
2,56403, Note_on_c, 0, 53, 69
2,56409, Control_c, 0, 64, 72
2,56424, Control_c, 0, 64, 73
2,56440, Control_c, 0, 64, 74
2,56455, Control_c, 0, 64, 75
2,56470, Control_c, 0, 64, 75
2,56486, Control_c, 0, 64, 76
2,56505, Note_on_c, 0, 69, 0
2,56547, Note_on_c, 0, 65, 0
2,56554, Note_on_c, 0, 53, 0
2,56589, Note_on_c, 0, 51, 64
2,56716, Note_on_c, 0, 51, 0
2,56798, Control_c, 0, 64, 75
2,56807, Note_on_c, 0, 65, 80
2,56810, Note_on_c, 0, 70, 78
2,56812, Control_c, 0, 64, 72
2,56819, Note_on_c, 0, 49, 59
2,56822, Note_on_c, 0, 58, 60
2,56827, Control_c, 0, 64, 67
2,56843, Control_c, 0, 64, 56
2,56858, Control_c, 0, 64, 24
2,56874, Control_c, 0, 64, 18
2,56888, Control_c, 0, 64, 36
2,56904, Control_c, 0, 64, 49
2,56920, Control_c, 0, 64, 57
2,56935, Control_c, 0, 64, 60
2,56950, Control_c, 0, 64, 61
2,56966, Control_c, 0, 64, 62
2,56980, Control_c, 0, 64, 63
2,56996, Control_c, 0, 64, 64
2,57009, Note_on_c, 0, 72, 65
2,57011, Control_c, 0, 64, 65
2,57017, Note_on_c, 0, 48, 48
2,57026, Control_c, 0, 64, 65
2,57038, Note_on_c, 0, 49, 0
2,57041, Control_c, 0, 64, 66
2,57056, Control_c, 0, 64, 66
2,57060, Note_on_c, 0, 70, 0
2,57087, Control_c, 0, 64, 67
2,57117, Control_c, 0, 64, 67
2,57147, Control_c, 0, 64, 68
2,57179, Note_on_c, 0, 48, 0
2,57189, Note_on_c, 0, 72, 0
2,57192, Control_c, 0, 64, 68
2,57219, Note_on_c, 0, 46, 58
2,57223, Control_c, 0, 64, 68
2,57229, Note_on_c, 0, 70, 71
2,57236, Note_on_c, 0, 73, 75
2,57237, Control_c, 0, 64, 67
2,57252, Control_c, 0, 64, 64
2,57267, Control_c, 0, 64, 57
2,57283, Control_c, 0, 64, 44
2,57287, Note_on_c, 0, 58, 0
2,57298, Control_c, 0, 64, 36
2,57312, Control_c, 0, 64, 40
2,57328, Control_c, 0, 64, 47
2,57343, Control_c, 0, 64, 56
2,57358, Control_c, 0, 64, 60
2,57373, Control_c, 0, 64, 62
2,57397, Control_c, 0, 64, 63
2,57409, Note_on_c, 0, 65, 0
2,57412, Control_c, 0, 64, 63
2,57424, Note_on_c, 0, 49, 53
2,57427, Control_c, 0, 64, 64
2,57442, Control_c, 0, 64, 65
2,57457, Control_c, 0, 64, 66
2,57472, Control_c, 0, 64, 66
2,57488, Control_c, 0, 64, 67
2,57503, Control_c, 0, 64, 67
2,57518, Control_c, 0, 64, 68
2,57526, Note_on_c, 0, 46, 0
2,57548, Control_c, 0, 64, 68
2,57578, Control_c, 0, 64, 69
2,57594, Control_c, 0, 64, 69
2,57624, Control_c, 0, 64, 69
2,57640, Control_c, 0, 64, 66
2,57644, Note_on_c, 0, 66, 87
2,57645, Note_on_c, 0, 51, 49
2,57654, Control_c, 0, 64, 60
2,57669, Control_c, 0, 64, 45
2,57685, Control_c, 0, 64, 38
2,57693, Note_on_c, 0, 49, 0
2,57700, Control_c, 0, 64, 46
2,57716, Control_c, 0, 64, 55
2,57732, Control_c, 0, 64, 61
2,57746, Control_c, 0, 64, 64
2,57762, Control_c, 0, 64, 65
2,57777, Control_c, 0, 64, 66
2,57792, Control_c, 0, 64, 67
2,57804, Note_on_c, 0, 70, 0
2,57808, Control_c, 0, 64, 67
2,57820, Note_on_c, 0, 51, 0
2,57822, Control_c, 0, 64, 68
2,57838, Control_c, 0, 64, 69
2,57853, Control_c, 0, 64, 70
2,57854, Note_on_c, 0, 53, 53
2,57868, Control_c, 0, 64, 71
2,57883, Control_c, 0, 64, 71
2,57899, Note_on_c, 0, 66, 0
2,57914, Control_c, 0, 64, 72
2,57960, Control_c, 0, 64, 72
2,57998, Note_on_c, 0, 73, 0
2,58042, Note_on_c, 0, 53, 0
2,58047, Note_on_c, 0, 54, 57
2,58049, Note_on_c, 0, 63, 84
2,58057, Note_on_c, 0, 72, 72
2,58237, Note_on_c, 0, 51, 62
2,58246, Note_on_c, 0, 73, 71
2,58249, Note_on_c, 0, 54, 0
2,58278, Note_on_c, 0, 51, 0
2,58283, Note_on_c, 0, 72, 0
2,58321, Note_on_c, 0, 63, 0
2,58379, Note_on_c, 0, 73, 0
2,58408, Control_c, 0, 64, 71
2,58422, Control_c, 0, 64, 68
2,58438, Control_c, 0, 64, 58
2,58453, Control_c, 0, 64, 19
2,58454, Note_on_c, 0, 72, 77
2,58460, Note_on_c, 0, 75, 83
2,58462, Note_on_c, 0, 53, 52
2,58465, Note_on_c, 0, 57, 52
2,58468, Control_c, 0, 64, 0
2,58498, Control_c, 0, 64, 26
2,58514, Control_c, 0, 64, 47
2,58529, Control_c, 0, 64, 57
2,58545, Control_c, 0, 64, 60
2,58561, Control_c, 0, 64, 62
2,58576, Control_c, 0, 64, 63
2,58590, Control_c, 0, 64, 64
2,58606, Control_c, 0, 64, 64
2,58621, Control_c, 0, 64, 65
2,58637, Control_c, 0, 64, 66
2,58651, Control_c, 0, 64, 67
2,58662, Note_on_c, 0, 58, 48
2,58666, Control_c, 0, 64, 68
2,58682, Control_c, 0, 64, 69
2,58697, Control_c, 0, 64, 70
2,58702, Note_on_c, 0, 57, 0
2,58727, Control_c, 0, 64, 71
2,58742, Control_c, 0, 64, 71
2,58758, Control_c, 0, 64, 72
2,58773, Control_c, 0, 64, 72
2,58788, Control_c, 0, 64, 73
2,58834, Control_c, 0, 64, 73
2,58855, Note_on_c, 0, 58, 0
2,58871, Note_on_c, 0, 60, 50
2,58877, Note_on_c, 0, 69, 89
2,59000, Note_on_c, 0, 75, 0
2,59045, Note_on_c, 0, 57, 56
2,59048, Note_on_c, 0, 69, 0
2,59057, Note_on_c, 0, 60, 0
2,59071, Note_on_c, 0, 53, 0
2,59078, Note_on_c, 0, 57, 0
2,59096, Note_on_c, 0, 72, 0
2,59266, Control_c, 0, 64, 73
2,59278, Note_on_c, 0, 70, 87
2,59282, Control_c, 0, 64, 71
2,59292, Note_on_c, 0, 46, 55
2,59297, Control_c, 0, 64, 67
2,59297, Control_c, 0, 67, 8
2,59304, Note_on_c, 0, 53, 37
2,59312, Control_c, 0, 64, 53
2,59312, Control_c, 0, 67, 10
2,59328, Control_c, 0, 64, 0
2,59328, Control_c, 0, 67, 15
2,59342, Control_c, 0, 67, 21
2,59358, Control_c, 0, 67, 28
2,59374, Control_c, 0, 67, 35
2,59389, Control_c, 0, 67, 42
2,59405, Control_c, 0, 64, 19
2,59405, Control_c, 0, 67, 49
2,59420, Control_c, 0, 64, 43
2,59420, Control_c, 0, 67, 58
2,59435, Control_c, 0, 64, 49
2,59435, Control_c, 0, 67, 67
2,59450, Control_c, 0, 64, 52
2,59450, Control_c, 0, 67, 77
2,59465, Control_c, 0, 64, 55
2,59465, Control_c, 0, 67, 85
2,59479, Note_on_c, 0, 72, 60
2,59481, Control_c, 0, 64, 56
2,59481, Control_c, 0, 67, 91
2,59495, Control_c, 0, 64, 57
2,59495, Control_c, 0, 67, 95
2,59510, Control_c, 0, 64, 58
2,59510, Control_c, 0, 67, 99
2,59526, Control_c, 0, 64, 58
2,59526, Control_c, 0, 67, 104
2,59542, Control_c, 0, 64, 59
2,59542, Control_c, 0, 67, 109
2,59558, Control_c, 0, 64, 59
2,59558, Control_c, 0, 67, 114
2,59572, Control_c, 0, 64, 61
2,59572, Control_c, 0, 67, 119
2,59587, Control_c, 0, 64, 63
2,59587, Control_c, 0, 67, 125
2,59594, Note_on_c, 0, 46, 0
2,59603, Control_c, 0, 64, 64
2,59603, Control_c, 0, 67, 127
2,59618, Control_c, 0, 64, 64
2,59631, Note_on_c, 0, 53, 0
2,59634, Control_c, 0, 64, 65
2,59648, Control_c, 0, 64, 66
2,59660, Note_on_c, 0, 73, 62
2,59663, Control_c, 0, 64, 67
2,59674, Note_on_c, 0, 58, 39
2,59679, Control_c, 0, 64, 68
2,59701, Control_c, 0, 64, 69
2,59716, Note_on_c, 0, 58, 0
2,59717, Control_c, 0, 64, 70
2,59732, Control_c, 0, 64, 70
2,59763, Control_c, 0, 64, 71
2,59774, Note_on_c, 0, 70, 0
2,59792, Control_c, 0, 64, 71
2,59855, Note_on_c, 0, 73, 0
2,59856, Note_on_c, 0, 60, 45
2,59856, Note_on_c, 0, 72, 0
2,59856, Note_on_c, 0, 77, 66
2,59868, Control_c, 0, 64, 72
2,59893, Note_on_c, 0, 60, 0
2,59937, Note_on_c, 0, 77, 0
2,60020, Control_c, 0, 64, 71
2,60066, Control_c, 0, 64, 71
2,60087, Note_on_c, 0, 61, 45
2,60090, Note_on_c, 0, 82, 64
2,60096, Control_c, 0, 64, 69
2,60111, Control_c, 0, 64, 67
2,60127, Control_c, 0, 64, 63
2,60142, Control_c, 0, 64, 58
2,60158, Control_c, 0, 64, 51
2,60173, Control_c, 0, 64, 46
2,60188, Control_c, 0, 64, 39
2,60204, Control_c, 0, 64, 34
2,60235, Control_c, 0, 64, 36
2,60249, Control_c, 0, 64, 41
2,60264, Control_c, 0, 64, 47
2,60280, Control_c, 0, 64, 50
2,60280, Note_on_c, 0, 65, 44
2,60295, Control_c, 0, 64, 51
2,60355, Control_c, 0, 64, 52
2,60370, Control_c, 0, 64, 52
2,60401, Control_c, 0, 64, 53
2,60430, Control_c, 0, 64, 53
2,60446, Control_c, 0, 64, 54
2,60468, Control_c, 0, 64, 56
2,60484, Control_c, 0, 64, 58
2,60492, Note_on_c, 0, 65, 0
2,60499, Control_c, 0, 64, 59
2,60500, Note_on_c, 0, 77, 68
2,60503, Note_on_c, 0, 66, 43
2,60515, Control_c, 0, 64, 61
2,60530, Control_c, 0, 64, 62
2,60544, Control_c, 0, 64, 63
2,60560, Control_c, 0, 64, 64
2,60575, Control_c, 0, 64, 64
2,60590, Control_c, 0, 64, 65
2,60606, Control_c, 0, 64, 66
2,60656, Note_on_c, 0, 66, 0
2,60671, Note_on_c, 0, 68, 42
2,60722, Note_on_c, 0, 68, 0
2,60909, Note_on_c, 0, 70, 38
2,60916, Note_on_c, 0, 78, 74
2,60963, Note_on_c, 0, 77, 0
2,61032, Control_c, 0, 64, 65
2,61102, Note_on_c, 0, 70, 0
2,61109, Note_on_c, 0, 68, 45
2,61138, Control_c, 0, 64, 66
2,61277, Note_on_c, 0, 68, 0
2,61308, Note_on_c, 0, 66, 43
2,61309, Note_on_c, 0, 61, 0
2,61325, Note_on_c, 0, 75, 67
2,61329, Note_on_c, 0, 82, 0
2,61465, Note_on_c, 0, 66, 0
2,61505, Note_on_c, 0, 65, 37
2,61590, Note_on_c, 0, 78, 0
2,61678, Control_c, 0, 64, 65
2,61707, Control_c, 0, 64, 65
2,61712, Note_on_c, 0, 65, 0
2,61722, Note_on_c, 0, 60, 28
2,61723, Control_c, 0, 64, 64
2,61737, Note_on_c, 0, 63, 32
2,61738, Control_c, 0, 64, 60
2,61751, Note_on_c, 0, 80, 65
2,61753, Control_c, 0, 64, 52
2,61769, Control_c, 0, 64, 26
2,61784, Control_c, 0, 64, 0
2,61810, Note_on_c, 0, 75, 0
2,61860, Control_c, 0, 64, 44
2,61876, Control_c, 0, 64, 51
2,61891, Control_c, 0, 64, 55
2,61906, Control_c, 0, 64, 57
2,61922, Control_c, 0, 64, 59
2,61937, Control_c, 0, 64, 60
2,61951, Control_c, 0, 64, 61
2,61957, Note_on_c, 0, 65, 37
2,61964, Note_on_c, 0, 63, 0
2,61967, Control_c, 0, 64, 63
2,61982, Control_c, 0, 64, 64
2,62005, Control_c, 0, 64, 65
2,62035, Control_c, 0, 64, 65
2,62050, Control_c, 0, 64, 66
2,62081, Control_c, 0, 64, 66
2,62105, Note_on_c, 0, 65, 0
2,62157, Control_c, 0, 64, 67
2,62159, Note_on_c, 0, 66, 40
2,62161, Note_on_c, 0, 75, 57
2,62308, Control_c, 0, 64, 66
2,62331, Note_on_c, 0, 66, 0
2,62343, Note_on_c, 0, 70, 44
2,62478, Note_on_c, 0, 80, 0
2,62542, Note_on_c, 0, 70, 0
2,62559, Note_on_c, 0, 68, 42
2,62574, Note_on_c, 0, 77, 64
2,62613, Control_c, 0, 64, 67
2,62661, Note_on_c, 0, 75, 0
2,62717, Note_on_c, 0, 68, 0
2,62745, Note_on_c, 0, 66, 46
2,62813, Note_on_c, 0, 60, 0
2,62880, Control_c, 0, 64, 67
2,62906, Note_on_c, 0, 66, 0
2,62950, Note_on_c, 0, 65, 40
2,62953, Note_on_c, 0, 73, 75
2,62971, Control_c, 0, 64, 67
2,63033, Note_on_c, 0, 77, 0
2,63128, Note_on_c, 0, 77, 72
2,63144, Note_on_c, 0, 65, 0
2,63145, Note_on_c, 0, 63, 41
2,63184, Control_c, 0, 64, 66
2,63245, Note_on_c, 0, 73, 0
2,63305, Control_c, 0, 64, 66
2,63312, Note_on_c, 0, 63, 0
2,63335, Control_c, 0, 64, 65
2,63335, Note_on_c, 0, 58, 35
2,63350, Control_c, 0, 64, 63
2,63350, Note_on_c, 0, 78, 63
2,63351, Note_on_c, 0, 61, 35
2,63366, Control_c, 0, 64, 59
2,63381, Control_c, 0, 64, 49
2,63395, Note_on_c, 0, 77, 0
2,63397, Control_c, 0, 64, 13
2,63411, Control_c, 0, 64, 0
2,63489, Control_c, 0, 64, 22
2,63503, Control_c, 0, 64, 47
2,63519, Control_c, 0, 64, 53
2,63542, Control_c, 0, 64, 56
2,63558, Control_c, 0, 64, 60
2,63572, Control_c, 0, 64, 63
2,63574, Note_on_c, 0, 63, 33
2,63587, Control_c, 0, 64, 64
2,63618, Control_c, 0, 64, 64
2,63619, Note_on_c, 0, 61, 0
2,63633, Control_c, 0, 64, 65
2,63648, Control_c, 0, 64, 65
2,63694, Control_c, 0, 64, 66
2,63732, Note_on_c, 0, 63, 0
2,63755, Control_c, 0, 64, 65
2,63757, Note_on_c, 0, 73, 60
2,63771, Note_on_c, 0, 65, 36
2,63945, Note_on_c, 0, 68, 48
2,63972, Note_on_c, 0, 65, 0
2,63998, Control_c, 0, 64, 66
2,64089, Control_c, 0, 67, 126
2,64103, Control_c, 0, 67, 122
2,64119, Control_c, 0, 64, 66
2,64119, Control_c, 0, 67, 118
2,64121, Note_on_c, 0, 68, 0
2,64134, Control_c, 0, 67, 115
2,64148, Control_c, 0, 67, 111
2,64151, Note_on_c, 0, 66, 38
2,64159, Note_on_c, 0, 75, 68
2,64164, Control_c, 0, 64, 67
2,64164, Control_c, 0, 67, 108
2,64178, Control_c, 0, 67, 104
2,64193, Control_c, 0, 67, 99
2,64209, Control_c, 0, 64, 67
2,64209, Control_c, 0, 67, 95
2,64224, Control_c, 0, 67, 91
2,64227, Note_on_c, 0, 73, 0
2,64240, Control_c, 0, 67, 87
2,64254, Control_c, 0, 67, 84
2,64270, Control_c, 0, 67, 81
2,64286, Control_c, 0, 67, 78
2,64309, Control_c, 0, 67, 75
2,64325, Control_c, 0, 67, 73
2,64333, Note_on_c, 0, 66, 0
2,64340, Control_c, 0, 67, 71
2,64355, Control_c, 0, 67, 69
2,64364, Note_on_c, 0, 58, 0
2,64364, Note_on_c, 0, 65, 42
2,64370, Control_c, 0, 67, 67
2,64385, Control_c, 0, 67, 65
2,64401, Control_c, 0, 67, 64
2,64415, Control_c, 0, 67, 63
2,64430, Control_c, 0, 67, 62
2,64446, Control_c, 0, 67, 62
2,64461, Control_c, 0, 67, 61
2,64477, Control_c, 0, 67, 60
2,64506, Control_c, 0, 64, 67
2,64522, Control_c, 0, 67, 60
2,64567, Note_on_c, 0, 63, 47
2,64567, Note_on_c, 0, 72, 67
2,64627, Control_c, 0, 67, 59
2,64659, Note_on_c, 0, 78, 0
2,64716, Note_on_c, 0, 63, 0
2,64733, Note_on_c, 0, 65, 0
2,64748, Note_on_c, 0, 61, 47
2,64768, Note_on_c, 0, 75, 0
2,64899, Note_on_c, 0, 61, 0
2,64932, Control_c, 0, 64, 66
2,64962, Control_c, 0, 64, 66
2,64964, Note_on_c, 0, 60, 34
2,64965, Note_on_c, 0, 57, 36
2,64977, Control_c, 0, 64, 64
2,64980, Note_on_c, 0, 77, 68
2,64992, Control_c, 0, 64, 57
2,65008, Control_c, 0, 64, 37
2,65022, Control_c, 0, 64, 13
2,65038, Control_c, 0, 64, 18
2,65053, Control_c, 0, 64, 32
2,65055, Note_on_c, 0, 72, 0
2,65077, Control_c, 0, 64, 46
2,65092, Control_c, 0, 64, 56
2,65107, Control_c, 0, 64, 60
2,65113, Note_on_c, 0, 60, 0
2,65123, Control_c, 0, 64, 62
2,65138, Control_c, 0, 64, 63
2,65153, Control_c, 0, 64, 64
2,65153, Control_c, 0, 67, 59
2,65153, Note_on_c, 0, 61, 43
2,65169, Control_c, 0, 64, 65
2,65169, Control_c, 0, 67, 58
2,65183, Control_c, 0, 64, 65
2,65199, Control_c, 0, 64, 66
2,65214, Control_c, 0, 64, 66
2,65229, Control_c, 0, 64, 67
2,65245, Control_c, 0, 64, 68
2,65259, Control_c, 0, 64, 69
2,65275, Control_c, 0, 64, 70
2,65290, Control_c, 0, 64, 70
2,65320, Note_on_c, 0, 61, 0
2,65335, Control_c, 0, 64, 71
2,65340, Note_on_c, 0, 63, 37
2,65376, Note_on_c, 0, 72, 61
2,65381, Note_on_c, 0, 77, 0
2,65496, Note_on_c, 0, 72, 0
2,65524, Note_on_c, 0, 66, 63
2,65615, Note_on_c, 0, 66, 0
2,65670, Note_on_c, 0, 63, 0
2,65731, Control_c, 0, 64, 70
2,65734, Note_on_c, 0, 58, 42
2,65746, Control_c, 0, 64, 68
2,65747, Note_on_c, 0, 73, 66
2,65762, Control_c, 0, 64, 64
2,65768, Note_on_c, 0, 65, 43
2,65777, Control_c, 0, 64, 53
2,65777, Control_c, 0, 67, 59
2,65791, Control_c, 0, 64, 0
2,65799, Note_on_c, 0, 57, 0
2,65822, Control_c, 0, 67, 58
2,65860, Control_c, 0, 64, 34
2,65875, Control_c, 0, 64, 50
2,65890, Control_c, 0, 64, 56
2,65905, Control_c, 0, 64, 59
2,65922, Control_c, 0, 64, 61
2,65937, Control_c, 0, 64, 62
2,65952, Control_c, 0, 64, 63
2,65952, Control_c, 0, 67, 58
2,65962, Note_on_c, 0, 63, 54
2,65967, Control_c, 0, 64, 63
2,65967, Control_c, 0, 67, 57
2,65982, Control_c, 0, 64, 64
2,65982, Control_c, 0, 67, 54
2,65998, Control_c, 0, 67, 47
2,66013, Control_c, 0, 64, 64
2,66013, Control_c, 0, 67, 38
2,66027, Control_c, 0, 67, 29
2,66043, Control_c, 0, 67, 17
2,66058, Control_c, 0, 64, 65
2,66058, Control_c, 0, 67, 0
2,66070, Note_on_c, 0, 65, 0
2,66135, Control_c, 0, 64, 65
2,66144, Note_on_c, 0, 61, 66
2,66157, Note_on_c, 0, 63, 0
2,66260, Note_on_c, 0, 58, 0
2,66301, Control_c, 0, 64, 65
2,66312, Note_on_c, 0, 61, 0
2,66319, Note_on_c, 0, 60, 61
2,66453, Control_c, 0, 64, 64
2,66484, Control_c, 0, 64, 64
2,66498, Control_c, 0, 64, 63
2,66513, Control_c, 0, 64, 62
2,66529, Control_c, 0, 64, 55
2,66538, Note_on_c, 0, 58, 50
2,66544, Control_c, 0, 64, 33
2,66551, Note_on_c, 0, 65, 77
2,66560, Control_c, 0, 64, 0
2,66704, Control_c, 0, 64, 25
2,66719, Control_c, 0, 64, 42
2,66735, Control_c, 0, 64, 48
2,66750, Control_c, 0, 64, 52
2,66758, Note_on_c, 0, 56, 54
2,66765, Note_on_c, 0, 58, 0
2,66766, Control_c, 0, 64, 55
2,66781, Control_c, 0, 64, 58
2,66797, Control_c, 0, 64, 59
2,66811, Control_c, 0, 64, 61
2,66826, Control_c, 0, 64, 61
2,66842, Control_c, 0, 64, 62
2,66857, Control_c, 0, 64, 62
2,66871, Control_c, 0, 64, 63
2,66908, Note_on_c, 0, 60, 0
2,66964, Control_c, 0, 64, 64
2,66972, Note_on_c, 0, 56, 0
2,66991, Note_on_c, 0, 70, 87
2,66993, Note_on_c, 0, 55, 51
2,67009, Control_c, 0, 64, 64
2,67069, Control_c, 0, 64, 65
2,67085, Control_c, 0, 64, 65
2,67131, Control_c, 0, 64, 66
2,67143, Note_on_c, 0, 55, 0
2,67145, Control_c, 0, 64, 66
2,67173, Note_on_c, 0, 53, 54
2,67191, Control_c, 0, 64, 67
2,67252, Control_c, 0, 64, 67
2,67328, Control_c, 0, 64, 67
2,67342, Control_c, 0, 64, 66
2,67358, Control_c, 0, 64, 63
2,67360, Note_on_c, 0, 53, 0
2,67381, Control_c, 0, 64, 55
2,67388, Note_on_c, 0, 67, 84
2,67393, Note_on_c, 0, 51, 51
2,67397, Control_c, 0, 64, 26
2,67411, Control_c, 0, 64, 0
2,67428, Note_on_c, 0, 65, 0
2,67457, Control_c, 0, 64, 37
2,67472, Control_c, 0, 64, 53
2,67487, Control_c, 0, 64, 58
2,67502, Control_c, 0, 64, 60
2,67518, Control_c, 0, 64, 61
2,67533, Control_c, 0, 64, 63
2,67548, Control_c, 0, 64, 63
2,67565, Control_c, 0, 64, 64
2,67574, Note_on_c, 0, 61, 61
2,67579, Control_c, 0, 64, 64
2,67595, Control_c, 0, 64, 65
2,67640, Control_c, 0, 64, 65
2,67701, Control_c, 0, 64, 65
2,67719, Note_on_c, 0, 51, 0
2,67738, Note_on_c, 0, 61, 0
2,67777, Control_c, 0, 64, 64
2,67783, Note_on_c, 0, 60, 57
2,67783, Note_on_c, 0, 63, 80
2,67841, Note_on_c, 0, 73, 0
2,67929, Control_c, 0, 64, 65
2,67932, Note_on_c, 0, 67, 0
2,67964, Note_on_c, 0, 58, 62
2,67969, Note_on_c, 0, 70, 0
2,68005, Control_c, 0, 64, 65
2,68035, Control_c, 0, 64, 66
2,68149, Control_c, 0, 64, 65
2,68165, Control_c, 0, 64, 64
2,68174, Note_on_c, 0, 58, 0
2,68180, Control_c, 0, 64, 56
2,68181, Note_on_c, 0, 56, 59
2,68189, Note_on_c, 0, 72, 84
2,68195, Control_c, 0, 64, 0
2,68255, Control_c, 0, 64, 32
2,68270, Control_c, 0, 64, 57
2,68286, Control_c, 0, 64, 63
2,68292, Note_on_c, 0, 63, 0
2,68301, Control_c, 0, 64, 63
2,68362, Control_c, 0, 64, 64
2,68383, Note_on_c, 0, 56, 0
2,68395, Note_on_c, 0, 55, 52
2,68423, Control_c, 0, 64, 64
2,68433, Note_on_c, 0, 72, 0
2,68454, Control_c, 0, 64, 65
2,68507, Note_on_c, 0, 60, 0
2,68570, Note_on_c, 0, 55, 0
2,68599, Note_on_c, 0, 53, 52
2,68599, Note_on_c, 0, 77, 87
2,68608, Note_on_c, 0, 68, 69
2,68761, Note_on_c, 0, 77, 0
2,68770, Note_on_c, 0, 53, 0
2,68802, Control_c, 0, 64, 65
2,68804, Note_on_c, 0, 55, 56
2,68947, Control_c, 0, 64, 66
2,68977, Control_c, 0, 64, 65
2,68992, Control_c, 0, 64, 65
2,69002, Note_on_c, 0, 56, 52
2,69008, Control_c, 0, 64, 62
2,69008, Note_on_c, 0, 74, 86
2,69018, Note_on_c, 0, 65, 64
2,69022, Control_c, 0, 64, 56
2,69038, Control_c, 0, 64, 48
2,69053, Control_c, 0, 64, 49
2,69068, Control_c, 0, 64, 52
2,69069, Note_on_c, 0, 68, 0
2,69084, Control_c, 0, 64, 57
2,69098, Control_c, 0, 64, 60
2,69098, Note_on_c, 0, 55, 0
2,69113, Control_c, 0, 64, 61
2,69129, Control_c, 0, 64, 62
2,69174, Control_c, 0, 64, 62
2,69196, Note_on_c, 0, 60, 62
2,69200, Note_on_c, 0, 56, 0
2,69206, Control_c, 0, 64, 63
2,69229, Note_on_c, 0, 65, 0
2,69297, Control_c, 0, 64, 62
2,69400, Note_on_c, 0, 70, 83
2,69403, Control_c, 0, 64, 62
2,69404, Note_on_c, 0, 58, 63
2,69406, Note_on_c, 0, 60, 0
2,69409, Note_on_c, 0, 62, 63
2,69449, Note_on_c, 0, 74, 0
2,69464, Control_c, 0, 64, 61
2,69495, Note_on_c, 0, 62, 0
2,69540, Control_c, 0, 64, 61
2,69556, Control_c, 0, 64, 60
2,69571, Control_c, 0, 64, 60
2,69571, Note_on_c, 0, 56, 63
2,69586, Control_c, 0, 64, 59
2,69598, Note_on_c, 0, 58, 0
2,69602, Control_c, 0, 64, 58
2,69617, Control_c, 0, 64, 58
2,69632, Control_c, 0, 64, 57
2,69662, Control_c, 0, 64, 56
2,69685, Control_c, 0, 64, 53
2,69700, Control_c, 0, 64, 48
2,69716, Control_c, 0, 64, 43
2,69730, Control_c, 0, 64, 37
2,69745, Control_c, 0, 64, 33
2,69761, Control_c, 0, 64, 32
2,69776, Control_c, 0, 64, 29
2,69779, Note_on_c, 0, 55, 71
2,69785, Note_on_c, 0, 56, 0
2,69791, Control_c, 0, 64, 22
2,69798, Note_on_c, 0, 75, 78
2,69807, Control_c, 0, 64, 16
2,69822, Control_c, 0, 64, 10
2,69841, Note_on_c, 0, 70, 0
2,69898, Control_c, 0, 64, 0
2,69959, Control_c, 0, 64, 13
2,69988, Note_on_c, 0, 53, 76
2,70051, Control_c, 0, 64, 16
2,70063, Note_on_c, 0, 55, 0
2,70066, Control_c, 0, 64, 18
2,70111, Control_c, 0, 64, 13
2,70127, Control_c, 0, 64, 10
2,70142, Control_c, 0, 64, 0
2,70198, Note_on_c, 0, 51, 71
2,70222, Note_on_c, 0, 67, 47
2,70242, Note_on_c, 0, 53, 0
2,70383, Note_on_c, 0, 49, 71
2,70401, Note_on_c, 0, 51, 0
2,70592, Note_on_c, 0, 48, 61
2,70610, Note_on_c, 0, 68, 59
2,70619, Note_on_c, 0, 49, 0
2,70675, Note_on_c, 0, 67, 0
2,70786, Control_c, 0, 67, 8
2,70802, Control_c, 0, 67, 10
2,70816, Note_on_c, 0, 70, 53
2,70817, Control_c, 0, 67, 13
2,70821, Note_on_c, 0, 68, 0
2,70833, Control_c, 0, 67, 16
2,70849, Control_c, 0, 67, 20
2,70864, Control_c, 0, 67, 24
2,70880, Control_c, 0, 67, 29
2,70880, Note_on_c, 0, 75, 0
2,70894, Control_c, 0, 67, 35
2,70909, Control_c, 0, 64, 10
2,70909, Control_c, 0, 67, 42
2,70925, Control_c, 0, 67, 50
2,70939, Control_c, 0, 67, 57
2,70955, Control_c, 0, 67, 64
2,70970, Control_c, 0, 67, 70
2,70985, Control_c, 0, 67, 76
2,71001, Control_c, 0, 67, 82
2,71015, Control_c, 0, 67, 87
2,71024, Note_on_c, 0, 72, 62
2,71028, Note_on_c, 0, 56, 46
2,71029, Note_on_c, 0, 70, 0
2,71030, Control_c, 0, 67, 91
2,71046, Control_c, 0, 67, 97
2,71060, Control_c, 0, 64, 0
2,71060, Control_c, 0, 67, 101
2,71060, Note_on_c, 0, 48, 0
2,71076, Control_c, 0, 67, 104
2,71091, Control_c, 0, 67, 106
2,71106, Control_c, 0, 67, 108
2,71122, Control_c, 0, 67, 110
2,71136, Control_c, 0, 67, 112
2,71151, Control_c, 0, 67, 116
2,71167, Control_c, 0, 67, 119
2,71182, Control_c, 0, 67, 124
2,71198, Control_c, 0, 67, 127
2,71215, Note_on_c, 0, 70, 55
2,71247, Note_on_c, 0, 72, 0
2,71413, Note_on_c, 0, 56, 0
2,71415, Note_on_c, 0, 70, 0
2,71416, Note_on_c, 0, 74, 59
2,71424, Note_on_c, 0, 58, 40
2,71427, Note_on_c, 0, 68, 48
2,71508, Control_c, 0, 64, 22
2,71524, Control_c, 0, 64, 38
2,71539, Control_c, 0, 64, 46
2,71553, Control_c, 0, 64, 50
2,71569, Control_c, 0, 64, 54
2,71584, Control_c, 0, 64, 58
2,71600, Control_c, 0, 64, 60
2,71615, Control_c, 0, 64, 61
2,71616, Note_on_c, 0, 67, 54
2,71629, Control_c, 0, 64, 62
2,71641, Note_on_c, 0, 68, 0
2,71646, Control_c, 0, 64, 63
2,71661, Control_c, 0, 64, 64
2,71677, Control_c, 0, 64, 65
2,71680, Note_on_c, 0, 67, 0
2,71692, Control_c, 0, 64, 66
2,71707, Control_c, 0, 64, 67
2,71722, Control_c, 0, 64, 68
2,71737, Control_c, 0, 64, 69
2,71752, Control_c, 0, 64, 70
2,71768, Control_c, 0, 64, 71
2,71782, Control_c, 0, 64, 71
2,71797, Note_on_c, 0, 65, 56
2,71798, Control_c, 0, 64, 72
2,71813, Control_c, 0, 64, 72
2,71815, Note_on_c, 0, 46, 45
2,71934, Control_c, 0, 64, 72
2,71949, Control_c, 0, 64, 71
2,71985, Note_on_c, 0, 74, 0
2,71987, Control_c, 0, 64, 71
2,71989, Note_on_c, 0, 65, 0
2,71999, Note_on_c, 0, 68, 55
2,72018, Control_c, 0, 64, 70
2,72022, Note_on_c, 0, 58, 0
2,72033, Control_c, 0, 64, 70
2,72049, Control_c, 0, 64, 69
2,72063, Control_c, 0, 64, 69
2,72079, Control_c, 0, 64, 68
2,72094, Control_c, 0, 64, 68
2,72108, Control_c, 0, 64, 67
2,72124, Control_c, 0, 64, 67
2,72139, Control_c, 0, 64, 66
2,72155, Control_c, 0, 64, 65
2,72170, Control_c, 0, 64, 64
2,72185, Control_c, 0, 64, 63
2,72200, Note_on_c, 0, 68, 0
2,72201, Control_c, 0, 64, 61
2,72216, Control_c, 0, 64, 59
2,72228, Note_on_c, 0, 51, 38
2,72231, Control_c, 0, 64, 56
2,72233, Note_on_c, 0, 75, 50
2,72241, Note_on_c, 0, 67, 35
2,72247, Control_c, 0, 64, 53
2,72261, Control_c, 0, 64, 48
2,72277, Control_c, 0, 64, 39
2,72292, Control_c, 0, 64, 27
2,72296, Note_on_c, 0, 46, 0
2,72307, Control_c, 0, 64, 10
2,72322, Control_c, 0, 64, 0
2,72419, Note_on_c, 0, 68, 51
2,72435, Note_on_c, 0, 67, 0
2,72632, Note_on_c, 0, 70, 52
2,72663, Note_on_c, 0, 68, 0
2,72825, Note_on_c, 0, 67, 57
2,72855, Note_on_c, 0, 70, 0
2,72955, Control_c, 0, 64, 16
2,72969, Control_c, 0, 64, 24
2,72984, Control_c, 0, 64, 28
2,73000, Control_c, 0, 64, 30
2,73015, Control_c, 0, 64, 32
2,73029, Control_c, 0, 64, 34
2,73041, Note_on_c, 0, 63, 47
2,73045, Control_c, 0, 64, 36
2,73060, Control_c, 0, 64, 37
2,73090, Control_c, 0, 64, 38
2,73105, Control_c, 0, 64, 38
2,73136, Control_c, 0, 64, 39
2,73200, Note_on_c, 0, 53, 56
2,73320, Control_c, 0, 64, 38
2,73350, Note_on_c, 0, 67, 0
2,73389, Note_on_c, 0, 51, 0
2,73395, Note_on_c, 0, 53, 0
2,73396, Control_c, 0, 64, 38
2,73405, Note_on_c, 0, 55, 64
2,73414, Note_on_c, 0, 70, 55
2,73426, Control_c, 0, 64, 37
2,73471, Control_c, 0, 64, 36
2,73502, Control_c, 0, 64, 36
2,73555, Control_c, 0, 64, 35
2,73570, Control_c, 0, 64, 34
2,73608, Note_on_c, 0, 56, 73
2,73631, Control_c, 0, 64, 34
2,73653, Note_on_c, 0, 55, 0
2,73662, Control_c, 0, 64, 33
2,73677, Control_c, 0, 64, 32
2,73705, Note_on_c, 0, 63, 0
2,73783, Control_c, 0, 64, 32
2,73800, Note_on_c, 0, 58, 76
2,73809, Note_on_c, 0, 67, 61
2,73869, Note_on_c, 0, 56, 0
2,73934, Control_c, 0, 64, 33
2,73949, Control_c, 0, 64, 34
2,73965, Control_c, 0, 64, 35
2,73980, Control_c, 0, 64, 36
2,73996, Control_c, 0, 64, 37
2,73998, Note_on_c, 0, 60, 79
2,74004, Note_on_c, 0, 58, 0
2,74011, Control_c, 0, 64, 38
2,74025, Control_c, 0, 64, 38
2,74041, Control_c, 0, 64, 39
2,74056, Control_c, 0, 64, 39
2,74087, Control_c, 0, 64, 40
2,74102, Control_c, 0, 67, 125
2,74118, Control_c, 0, 67, 123
2,74133, Control_c, 0, 67, 121
2,74148, Control_c, 0, 67, 119
2,74164, Control_c, 0, 67, 116
2,74178, Control_c, 0, 67, 115
2,74181, Note_on_c, 0, 75, 0
2,74193, Control_c, 0, 67, 113
2,74197, Note_on_c, 0, 61, 73
2,74203, Note_on_c, 0, 63, 70
2,74209, Control_c, 0, 67, 112
2,74224, Control_c, 0, 64, 39
2,74224, Control_c, 0, 67, 109
2,74224, Note_on_c, 0, 60, 0
2,74240, Control_c, 0, 67, 106
2,74255, Control_c, 0, 67, 102
2,74270, Control_c, 0, 64, 39
2,74270, Control_c, 0, 67, 98
2,74293, Control_c, 0, 67, 94
2,74308, Control_c, 0, 67, 90
2,74323, Control_c, 0, 67, 87
2,74338, Control_c, 0, 67, 85
2,74353, Control_c, 0, 67, 83
2,74368, Control_c, 0, 67, 80
2,74383, Control_c, 0, 64, 38
2,74383, Control_c, 0, 67, 77
2,74383, Note_on_c, 0, 60, 66
2,74399, Control_c, 0, 67, 76
2,74399, Note_on_c, 0, 61, 0
2,74414, Control_c, 0, 64, 38
2,74414, Control_c, 0, 67, 75
2,74429, Control_c, 0, 64, 37
2,74429, Control_c, 0, 67, 74
2,74461, Note_on_c, 0, 70, 0
2,74476, Control_c, 0, 64, 36
2,74505, Control_c, 0, 64, 36
2,74521, Control_c, 0, 64, 35
2,74521, Control_c, 0, 67, 75
2,74536, Control_c, 0, 64, 34
2,74536, Control_c, 0, 67, 75
2,74551, Control_c, 0, 64, 34
2,74566, Control_c, 0, 64, 32
2,74581, Control_c, 0, 64, 32
2,74581, Control_c, 0, 67, 76
2,74588, Note_on_c, 0, 58, 55
2,74597, Control_c, 0, 64, 30
2,74597, Control_c, 0, 67, 76
2,74607, Note_on_c, 0, 73, 76
2,74612, Control_c, 0, 64, 29
2,74612, Control_c, 0, 67, 77
2,74627, Note_on_c, 0, 60, 0
2,74642, Control_c, 0, 67, 77
2,74657, Control_c, 0, 64, 28
2,74657, Control_c, 0, 67, 78
2,74688, Control_c, 0, 67, 79
2,74690, Note_on_c, 0, 67, 0
2,74719, Control_c, 0, 67, 80
2,74748, Control_c, 0, 67, 80
2,74767, Note_on_c, 0, 58, 0
2,74778, Control_c, 0, 67, 81
2,74790, Note_on_c, 0, 56, 51
2,74793, Control_c, 0, 64, 29
2,74793, Control_c, 0, 67, 81
2,74809, Control_c, 0, 64, 30
2,74809, Control_c, 0, 67, 82
2,74824, Control_c, 0, 64, 31
2,74840, Control_c, 0, 64, 32
2,74854, Control_c, 0, 64, 32
2,74854, Control_c, 0, 67, 83
2,74869, Control_c, 0, 67, 83
2,74885, Control_c, 0, 64, 33
2,74885, Control_c, 0, 67, 84
2,74899, Control_c, 0, 67, 84
2,74915, Control_c, 0, 67, 85
2,74931, Control_c, 0, 67, 86
2,74949, Note_on_c, 0, 56, 0
2,74962, Control_c, 0, 67, 87
2,74985, Note_on_c, 0, 55, 43
2,74991, Control_c, 0, 67, 87
2,75000, Note_on_c, 0, 70, 67
2,75007, Control_c, 0, 67, 88
2,75022, Control_c, 0, 67, 89
2,75038, Control_c, 0, 67, 91
2,75060, Control_c, 0, 64, 32
2,75060, Control_c, 0, 67, 93
2,75076, Control_c, 0, 67, 94
2,75090, Control_c, 0, 64, 32
2,75090, Control_c, 0, 67, 96
2,75105, Control_c, 0, 67, 98
2,75121, Control_c, 0, 67, 100
2,75136, Control_c, 0, 67, 101
2,75141, Note_on_c, 0, 55, 0
2,75151, Control_c, 0, 67, 104
2,75166, Control_c, 0, 67, 106
2,75178, Note_on_c, 0, 58, 51
2,75181, Control_c, 0, 67, 109
2,75197, Control_c, 0, 67, 112
2,75212, Control_c, 0, 64, 31
2,75212, Control_c, 0, 67, 115
2,75218, Note_on_c, 0, 63, 0
2,75227, Control_c, 0, 67, 118
2,75243, Control_c, 0, 67, 121
2,75258, Control_c, 0, 67, 124
2,75273, Control_c, 0, 67, 126
2,75288, Control_c, 0, 64, 32
2,75288, Control_c, 0, 67, 127
2,75349, Note_on_c, 0, 58, 0
2,75364, Control_c, 0, 64, 31
2,75379, Control_c, 0, 64, 28
2,75392, Note_on_c, 0, 56, 45
2,75395, Control_c, 0, 64, 0
2,75405, Note_on_c, 0, 72, 57
2,75414, Note_on_c, 0, 73, 0
2,75424, Note_on_c, 0, 70, 0
2,75545, Control_c, 0, 64, 34
2,75561, Control_c, 0, 64, 42
2,75576, Control_c, 0, 64, 47
2,75588, Note_on_c, 0, 51, 46
2,75591, Control_c, 0, 64, 52
2,75604, Note_on_c, 0, 56, 0
2,75607, Control_c, 0, 64, 55
2,75621, Control_c, 0, 64, 57
2,75637, Control_c, 0, 64, 59
2,75652, Control_c, 0, 64, 60
2,75668, Control_c, 0, 64, 61
2,75684, Control_c, 0, 64, 62
2,75713, Control_c, 0, 64, 62
2,75776, Control_c, 0, 64, 63
2,75778, Note_on_c, 0, 53, 54
2,75796, Note_on_c, 0, 51, 0
2,75859, Control_c, 0, 64, 62
2,75950, Control_c, 0, 64, 62
2,75959, Note_on_c, 0, 53, 0
2,75973, Note_on_c, 0, 55, 59
2,76056, Control_c, 0, 64, 61
2,76071, Control_c, 0, 64, 61
2,76087, Control_c, 0, 64, 60
2,76102, Control_c, 0, 64, 59
2,76118, Control_c, 0, 64, 55
2,76132, Control_c, 0, 64, 46
2,76147, Control_c, 0, 64, 28
2,76156, Note_on_c, 0, 55, 0
2,76163, Control_c, 0, 64, 0
2,76176, Note_on_c, 0, 56, 48
2,76193, Note_on_c, 0, 68, 68
2,76238, Note_on_c, 0, 72, 0
2,76254, Control_c, 0, 64, 21
2,76269, Control_c, 0, 64, 37
2,76285, Control_c, 0, 64, 46
2,76300, Control_c, 0, 64, 51
2,76316, Control_c, 0, 64, 54
2,76330, Control_c, 0, 64, 56
2,76345, Control_c, 0, 64, 57
2,76361, Control_c, 0, 64, 58
2,76376, Control_c, 0, 64, 59
2,76381, Note_on_c, 0, 58, 55
2,76390, Control_c, 0, 64, 60
2,76397, Note_on_c, 0, 56, 0
2,76406, Control_c, 0, 64, 61
2,76437, Control_c, 0, 67, 125
2,76452, Control_c, 0, 67, 121
2,76466, Control_c, 0, 67, 117
2,76482, Control_c, 0, 67, 113
2,76497, Control_c, 0, 67, 108
2,76512, Control_c, 0, 67, 103
2,76528, Control_c, 0, 67, 101
2,76542, Control_c, 0, 67, 98
2,76548, Note_on_c, 0, 58, 0
2,76558, Control_c, 0, 67, 95
2,76574, Control_c, 0, 67, 93
2,76579, Note_on_c, 0, 60, 49
2,76597, Control_c, 0, 67, 89
2,76609, Note_on_c, 0, 75, 80
2,76612, Control_c, 0, 67, 85
2,76627, Control_c, 0, 67, 81
2,76643, Control_c, 0, 67, 75
2,76658, Control_c, 0, 64, 60
2,76658, Control_c, 0, 67, 69
2,76673, Control_c, 0, 67, 64
2,76689, Control_c, 0, 67, 61
2,76703, Control_c, 0, 67, 59
2,76719, Control_c, 0, 64, 60
2,76719, Control_c, 0, 67, 57
2,76734, Control_c, 0, 67, 55
2,76749, Control_c, 0, 67, 52
2,76765, Control_c, 0, 67, 49
2,76779, Control_c, 0, 67, 46
2,76791, Note_on_c, 0, 61, 63
2,76795, Control_c, 0, 67, 44
2,76802, Note_on_c, 0, 60, 0
2,76810, Control_c, 0, 67, 41
2,76824, Control_c, 0, 64, 59
2,76824, Control_c, 0, 67, 39
2,76840, Control_c, 0, 67, 35
2,76855, Control_c, 0, 64, 59
2,76855, Control_c, 0, 67, 31
2,76870, Control_c, 0, 64, 58
2,76870, Control_c, 0, 67, 26
2,76886, Control_c, 0, 64, 58
2,76886, Control_c, 0, 67, 22
2,76900, Control_c, 0, 64, 57
2,76900, Control_c, 0, 67, 18
2,76916, Control_c, 0, 64, 57
2,76916, Control_c, 0, 67, 14
2,76922, Note_on_c, 0, 68, 0
2,76931, Control_c, 0, 64, 56
2,76931, Control_c, 0, 67, 10
2,76946, Control_c, 0, 64, 56
2,76946, Control_c, 0, 67, 8
2,76962, Control_c, 0, 64, 55
2,76962, Control_c, 0, 67, 0
2,76976, Control_c, 0, 64, 55
2,76982, Note_on_c, 0, 63, 74
2,76990, Note_on_c, 0, 72, 79
2,76991, Control_c, 0, 64, 54
2,77067, Note_on_c, 0, 61, 0
2,77144, Control_c, 0, 64, 54
2,77170, Note_on_c, 0, 65, 74
2,77174, Control_c, 0, 64, 53
2,77220, Control_c, 0, 64, 53
2,77229, Note_on_c, 0, 63, 0
2,77250, Control_c, 0, 64, 52
2,77265, Control_c, 0, 64, 52
2,77296, Control_c, 0, 64, 51
2,77339, Control_c, 0, 64, 51
2,77378, Note_on_c, 0, 66, 69
2,77386, Note_on_c, 0, 68, 81
2,77393, Control_c, 0, 64, 50
2,77398, Note_on_c, 0, 65, 0
2,77423, Control_c, 0, 67, 8
2,77438, Control_c, 0, 67, 8
2,77454, Control_c, 0, 67, 9
2,77469, Control_c, 0, 67, 9
2,77485, Control_c, 0, 67, 10
2,77500, Control_c, 0, 67, 10
2,77515, Control_c, 0, 64, 50
2,77515, Control_c, 0, 67, 11
2,77531, Control_c, 0, 67, 12
2,77545, Control_c, 0, 64, 49
2,77545, Control_c, 0, 67, 13
2,77553, Note_on_c, 0, 66, 0
2,77560, Control_c, 0, 64, 48
2,77560, Control_c, 0, 67, 14
2,77565, Note_on_c, 0, 65, 56
2,77576, Control_c, 0, 67, 14
2,77579, Note_on_c, 0, 75, 0
2,77591, Control_c, 0, 67, 15
2,77607, Control_c, 0, 67, 16
2,77621, Control_c, 0, 67, 19
2,77636, Control_c, 0, 67, 22
2,77652, Control_c, 0, 67, 24
2,77666, Control_c, 0, 67, 26
2,77682, Control_c, 0, 64, 48
2,77682, Control_c, 0, 67, 29
2,77684, Note_on_c, 0, 72, 0
2,77697, Control_c, 0, 64, 47
2,77697, Control_c, 0, 67, 33
2,77712, Control_c, 0, 64, 47
2,77712, Control_c, 0, 67, 36
2,77728, Control_c, 0, 64, 46
2,77728, Control_c, 0, 67, 40
2,77742, Control_c, 0, 67, 44
2,77757, Control_c, 0, 67, 48
2,77769, Note_on_c, 0, 63, 52
2,77771, Note_on_c, 0, 65, 0
2,77771, Note_on_c, 0, 78, 83
2,77773, Control_c, 0, 67, 51
2,77788, Control_c, 0, 67, 55
2,77804, Control_c, 0, 67, 58
2,77818, Control_c, 0, 64, 47
2,77818, Control_c, 0, 67, 60
2,77833, Control_c, 0, 64, 47
2,77833, Control_c, 0, 67, 63
2,77849, Control_c, 0, 64, 48
2,77849, Control_c, 0, 67, 65
2,77863, Control_c, 0, 64, 49
2,77863, Control_c, 0, 67, 67
2,77878, Control_c, 0, 64, 50
2,77878, Control_c, 0, 67, 70
2,77894, Control_c, 0, 64, 51
2,77894, Control_c, 0, 67, 72
2,77909, Control_c, 0, 64, 52
2,77909, Control_c, 0, 67, 75
2,77925, Control_c, 0, 64, 52
2,77925, Control_c, 0, 67, 77
2,77940, Control_c, 0, 64, 53
2,77940, Control_c, 0, 67, 80
2,77951, Note_on_c, 0, 63, 0
2,77955, Control_c, 0, 64, 53
2,77955, Control_c, 0, 67, 82
2,77967, Note_on_c, 0, 61, 51
2,77971, Control_c, 0, 67, 84
2,77986, Control_c, 0, 67, 86
2,78000, Control_c, 0, 67, 88
2,78016, Control_c, 0, 67, 89
2,78031, Control_c, 0, 64, 54
2,78031, Control_c, 0, 67, 91
2,78047, Control_c, 0, 67, 92
2,78062, Control_c, 0, 67, 94
2,78076, Control_c, 0, 67, 94
2,78092, Control_c, 0, 67, 95
2,78107, Control_c, 0, 67, 96
2,78130, Control_c, 0, 67, 96
2,78145, Control_c, 0, 67, 97
2,78160, Control_c, 0, 67, 99
2,78162, Note_on_c, 0, 61, 0
2,78175, Control_c, 0, 67, 101
2,78175, Note_on_c, 0, 75, 72
2,78180, Note_on_c, 0, 60, 48
2,78181, Note_on_c, 0, 72, 53
2,78190, Control_c, 0, 67, 103
2,78207, Control_c, 0, 67, 105
2,78222, Control_c, 0, 67, 106
2,78236, Control_c, 0, 67, 107
2,78252, Control_c, 0, 67, 107
2,78267, Control_c, 0, 67, 108
2,78269, Note_on_c, 0, 78, 0
2,78298, Control_c, 0, 67, 108
2,78313, Control_c, 0, 64, 53
2,78313, Control_c, 0, 67, 109
2,78329, Control_c, 0, 67, 109
2,78352, Note_on_c, 0, 60, 0
2,78358, Control_c, 0, 67, 110
2,78370, Note_on_c, 0, 63, 45
2,78374, Control_c, 0, 67, 110
2,78450, Control_c, 0, 64, 54
2,78510, Control_c, 0, 64, 53
2,78526, Control_c, 0, 64, 52
2,78534, Note_on_c, 0, 63, 0
2,78541, Control_c, 0, 64, 44
2,78556, Control_c, 0, 64, 0
2,78562, Note_on_c, 0, 61, 49
2,78572, Note_on_c, 0, 77, 66
2,78614, Note_on_c, 0, 75, 0
2,78625, Note_on_c, 0, 72, 0
2,78708, Control_c, 0, 64, 25
2,78723, Control_c, 0, 64, 34
2,78723, Control_c, 0, 67, 110
2,78734, Note_on_c, 0, 68, 0
2,78738, Control_c, 0, 64, 42
2,78753, Control_c, 0, 64, 47
2,78755, Note_on_c, 0, 61, 0
2,78762, Note_on_c, 0, 63, 40
2,78769, Control_c, 0, 64, 52
2,78784, Control_c, 0, 64, 55
2,78799, Control_c, 0, 64, 56
2,78815, Control_c, 0, 64, 58
2,78829, Control_c, 0, 64, 59
2,78829, Control_c, 0, 67, 109
2,78845, Control_c, 0, 64, 60
2,78860, Control_c, 0, 64, 61
2,78875, Control_c, 0, 64, 61
2,78898, Control_c, 0, 64, 62
2,78913, Control_c, 0, 64, 63
2,78913, Control_c, 0, 67, 109
2,78928, Control_c, 0, 64, 63
2,78943, Control_c, 0, 64, 64
2,78958, Control_c, 0, 64, 65
2,78971, Note_on_c, 0, 63, 0
2,78974, Control_c, 0, 64, 65
2,78978, Note_on_c, 0, 65, 38
2,78985, Note_on_c, 0, 68, 47
2,78989, Control_c, 0, 64, 66
2,78989, Control_c, 0, 67, 108
2,79004, Control_c, 0, 64, 66
2,79020, Control_c, 0, 64, 67
2,79035, Control_c, 0, 64, 68
2,79066, Control_c, 0, 64, 68
2,79142, Control_c, 0, 67, 108
2,79144, Note_on_c, 0, 65, 0
2,79162, Note_on_c, 0, 63, 42
2,79172, Control_c, 0, 64, 69
2,79249, Control_c, 0, 67, 107
2,79267, Note_on_c, 0, 77, 0
2,79278, Control_c, 0, 67, 107
2,79326, Note_on_c, 0, 68, 0
2,79340, Control_c, 0, 64, 68
2,79345, Note_on_c, 0, 63, 0
2,79354, Control_c, 0, 64, 67
2,79370, Control_c, 0, 64, 64
2,79371, Note_on_c, 0, 61, 44
2,79383, Note_on_c, 0, 70, 54
2,79383, Note_on_c, 0, 77, 71
2,79385, Control_c, 0, 64, 58
2,79400, Control_c, 0, 64, 44
2,79430, Control_c, 0, 64, 49
2,79446, Control_c, 0, 64, 54
2,79461, Control_c, 0, 64, 59
2,79475, Control_c, 0, 64, 62
2,79491, Control_c, 0, 64, 63
2,79506, Control_c, 0, 64, 64
2,79522, Control_c, 0, 64, 64
2,79537, Control_c, 0, 64, 65
2,79540, Note_on_c, 0, 61, 0
2,79552, Control_c, 0, 64, 65
2,79567, Control_c, 0, 64, 66
2,79570, Note_on_c, 0, 60, 45
2,79597, Control_c, 0, 64, 66
2,79607, Note_on_c, 0, 77, 0
2,79643, Control_c, 0, 64, 67
2,79666, Control_c, 0, 67, 106
2,79696, Control_c, 0, 67, 106
2,79723, Note_on_c, 0, 60, 0
2,79776, Note_on_c, 0, 58, 46
2,79776, Note_on_c, 0, 70, 0
2,79782, Note_on_c, 0, 79, 71
2,79795, Note_on_c, 0, 73, 52
2,79830, Control_c, 0, 67, 105
2,79971, Note_on_c, 0, 61, 41
2,79998, Note_on_c, 0, 58, 0
2,80075, Control_c, 0, 67, 105
2,80120, Control_c, 0, 64, 66
2,80136, Control_c, 0, 64, 66
2,80145, Note_on_c, 0, 61, 0
2,80151, Control_c, 0, 64, 64
2,80166, Control_c, 0, 64, 60
2,80166, Note_on_c, 0, 60, 41
2,80182, Control_c, 0, 64, 44
2,80184, Note_on_c, 0, 75, 64
2,80196, Control_c, 0, 64, 0
2,80233, Note_on_c, 0, 73, 0
2,80303, Control_c, 0, 64, 32
2,80317, Control_c, 0, 64, 44
2,80333, Control_c, 0, 64, 49
2,80348, Control_c, 0, 64, 52
2,80350, Note_on_c, 0, 79, 0
2,80362, Note_on_c, 0, 61, 37
2,80363, Control_c, 0, 64, 55
2,80379, Control_c, 0, 64, 58
2,80384, Note_on_c, 0, 60, 0
2,80394, Control_c, 0, 64, 60
2,80409, Control_c, 0, 64, 61
2,80432, Control_c, 0, 64, 62
2,80447, Control_c, 0, 64, 63
2,80462, Control_c, 0, 64, 64
2,80477, Control_c, 0, 64, 65
2,80477, Control_c, 0, 67, 104
2,80508, Control_c, 0, 64, 65
2,80523, Control_c, 0, 64, 66
2,80562, Note_on_c, 0, 61, 0
2,80591, Note_on_c, 0, 63, 42
2,80598, Note_on_c, 0, 67, 46
2,80629, Control_c, 0, 64, 66
2,80629, Control_c, 0, 67, 104
2,80686, Note_on_c, 0, 67, 0
2,80737, Control_c, 0, 67, 103
2,80745, Note_on_c, 0, 61, 32
2,80755, Note_on_c, 0, 63, 0
2,80803, Note_on_c, 0, 75, 0
2,80934, Control_c, 0, 64, 66
2,80939, Note_on_c, 0, 61, 0
2,80949, Control_c, 0, 64, 65
2,80964, Control_c, 0, 64, 64
2,80971, Note_on_c, 0, 60, 39
2,80972, Note_on_c, 0, 75, 57
2,80980, Control_c, 0, 64, 60
2,80983, Note_on_c, 0, 69, 40
2,80995, Control_c, 0, 64, 50
2,81011, Control_c, 0, 64, 44
2,81026, Control_c, 0, 64, 47
2,81040, Control_c, 0, 64, 51
2,81056, Control_c, 0, 64, 56
2,81071, Control_c, 0, 64, 59
2,81085, Control_c, 0, 64, 61
2,81101, Control_c, 0, 64, 62
2,81116, Control_c, 0, 64, 63
2,81132, Control_c, 0, 64, 64
2,81132, Control_c, 0, 67, 103
2,81135, Note_on_c, 0, 60, 0
2,81152, Note_on_c, 0, 58, 41
2,81161, Control_c, 0, 64, 64
2,81161, Control_c, 0, 67, 102
2,81200, Control_c, 0, 64, 65
2,81276, Control_c, 0, 67, 102
2,81292, Control_c, 0, 67, 101
2,81363, Note_on_c, 0, 69, 0
2,81364, Note_on_c, 0, 58, 0
2,81364, Note_on_c, 0, 75, 0
2,81366, Note_on_c, 0, 77, 63
2,81367, Control_c, 0, 67, 101
2,81378, Note_on_c, 0, 57, 34
2,81383, Note_on_c, 0, 72, 46
2,81397, Control_c, 0, 67, 100
2,81413, Control_c, 0, 67, 100
2,81443, Control_c, 0, 67, 99
2,81458, Control_c, 0, 64, 64
2,81505, Control_c, 0, 67, 100
2,81506, Note_on_c, 0, 57, 0
2,81535, Control_c, 0, 64, 64
2,81560, Note_on_c, 0, 60, 38
2,81626, Control_c, 0, 64, 63
2,81702, Control_c, 0, 64, 63
2,81717, Control_c, 0, 64, 61
2,81732, Control_c, 0, 64, 54
2,81747, Control_c, 0, 64, 40
2,81750, Note_on_c, 0, 60, 0
2,81762, Control_c, 0, 64, 19
2,81772, Note_on_c, 0, 58, 43
2,81778, Control_c, 0, 64, 0
2,81778, Control_c, 0, 67, 99
2,81778, Note_on_c, 0, 72, 0
2,81787, Note_on_c, 0, 73, 57
2,81793, Control_c, 0, 64, 22
2,81809, Control_c, 0, 64, 37
2,81809, Control_c, 0, 67, 99
2,81824, Control_c, 0, 64, 49
2,81839, Control_c, 0, 64, 56
2,81839, Control_c, 0, 67, 98
2,81855, Control_c, 0, 64, 59
2,81855, Control_c, 0, 67, 98
2,81869, Control_c, 0, 64, 60
2,81869, Control_c, 0, 67, 97
2,81884, Control_c, 0, 64, 62
2,81884, Control_c, 0, 67, 97
2,81900, Control_c, 0, 64, 63
2,81900, Control_c, 0, 67, 96
2,81915, Control_c, 0, 64, 63
2,81915, Control_c, 0, 67, 93
2,81930, Control_c, 0, 64, 64
2,81930, Control_c, 0, 67, 89
2,81945, Control_c, 0, 64, 64
2,81945, Control_c, 0, 67, 87
2,81967, Control_c, 0, 67, 84
2,81980, Note_on_c, 0, 58, 0
2,81983, Control_c, 0, 67, 82
2,81998, Control_c, 0, 64, 65
2,81998, Control_c, 0, 67, 80
2,82004, Note_on_c, 0, 60, 35
2,82014, Control_c, 0, 67, 76
2,82028, Control_c, 0, 64, 65
2,82028, Control_c, 0, 67, 72
2,82043, Control_c, 0, 64, 66
2,82043, Control_c, 0, 67, 67
2,82059, Control_c, 0, 67, 61
2,82074, Control_c, 0, 67, 55
2,82090, Control_c, 0, 64, 66
2,82090, Control_c, 0, 67, 47
2,82097, Note_on_c, 0, 77, 0
2,82105, Control_c, 0, 64, 67
2,82105, Control_c, 0, 67, 39
2,82120, Control_c, 0, 64, 67
2,82120, Control_c, 0, 67, 29
2,82136, Control_c, 0, 67, 19
2,82143, Note_on_c, 0, 60, 0
2,82150, Control_c, 0, 64, 68
2,82150, Control_c, 0, 67, 8
2,82165, Control_c, 0, 64, 68
2,82165, Control_c, 0, 67, 0
2,82179, Note_on_c, 0, 65, 54
2,82181, Control_c, 0, 64, 69
2,82186, Note_on_c, 0, 61, 43
2,82196, Control_c, 0, 64, 70
2,82212, Control_c, 0, 64, 71
2,82226, Control_c, 0, 64, 72
2,82241, Control_c, 0, 64, 73
2,82275, Note_on_c, 0, 65, 0
2,82300, Note_on_c, 0, 73, 0
2,82318, Note_on_c, 0, 61, 0
2,82365, Note_on_c, 0, 60, 40
2,82562, Note_on_c, 0, 60, 0
2,82567, Note_on_c, 0, 73, 76
2,82573, Note_on_c, 0, 58, 49
2,82576, Note_on_c, 0, 70, 64
2,82577, Control_c, 0, 64, 71
2,82592, Control_c, 0, 64, 67
2,82607, Control_c, 0, 64, 61
2,82623, Control_c, 0, 64, 48
2,82638, Control_c, 0, 64, 47
2,82653, Control_c, 0, 64, 51
2,82668, Control_c, 0, 64, 57
2,82683, Control_c, 0, 64, 61
2,82698, Control_c, 0, 64, 63
2,82713, Control_c, 0, 64, 64
2,82737, Control_c, 0, 64, 65
2,82752, Control_c, 0, 64, 66
2,82755, Note_on_c, 0, 58, 0
2,82767, Control_c, 0, 64, 67
2,82777, Note_on_c, 0, 56, 48
2,82782, Control_c, 0, 64, 67
2,82797, Control_c, 0, 64, 68
2,82813, Control_c, 0, 64, 68
2,82828, Control_c, 0, 64, 69
2,82843, Control_c, 0, 64, 70
2,82858, Control_c, 0, 64, 70
2,82891, Note_on_c, 0, 70, 0
2,82918, Control_c, 0, 64, 71
2,82940, Note_on_c, 0, 56, 0
2,82987, Note_on_c, 0, 55, 47
2,82997, Note_on_c, 0, 82, 85
2,83102, Control_c, 0, 64, 71
2,83133, Control_c, 0, 64, 72
2,83151, Note_on_c, 0, 82, 0
2,83190, Note_on_c, 0, 58, 46
2,83363, Note_on_c, 0, 55, 0
2,83374, Control_c, 0, 64, 71
2,83385, Note_on_c, 0, 72, 85
2,83389, Control_c, 0, 64, 69
2,83395, Note_on_c, 0, 56, 57
2,83401, Note_on_c, 0, 58, 0
2,83404, Control_c, 0, 64, 64
2,83420, Control_c, 0, 64, 58
2,83435, Control_c, 0, 64, 54
2,83451, Control_c, 0, 64, 57
2,83465, Control_c, 0, 64, 59
2,83469, Note_on_c, 0, 73, 0
2,83480, Control_c, 0, 64, 62
2,83503, Control_c, 0, 64, 63
2,83518, Control_c, 0, 64, 64
2,83534, Control_c, 0, 64, 65
2,83548, Control_c, 0, 64, 66
2,83563, Control_c, 0, 64, 66
2,83579, Control_c, 0, 64, 67
2,83586, Note_on_c, 0, 56, 0
2,83594, Control_c, 0, 64, 67
2,83609, Note_on_c, 0, 55, 56
2,83610, Control_c, 0, 64, 68
2,83624, Control_c, 0, 64, 68
2,83639, Control_c, 0, 64, 69
2,83765, Note_on_c, 0, 73, 79
2,83773, Note_on_c, 0, 55, 0
2,83786, Note_on_c, 0, 53, 60
2,83801, Note_on_c, 0, 72, 0
2,83853, Control_c, 0, 64, 69
2,83951, Note_on_c, 0, 70, 86
2,83958, Note_on_c, 0, 51, 63
2,83961, Note_on_c, 0, 53, 0
2,84005, Control_c, 0, 64, 70
2,84036, Control_c, 0, 64, 70
2,84038, Note_on_c, 0, 73, 0
2,84061, Note_on_c, 0, 70, 0
2,84066, Control_c, 0, 64, 71
2,84142, Control_c, 0, 64, 70
2,84156, Note_on_c, 0, 49, 60
2,84157, Control_c, 0, 64, 68
2,84173, Control_c, 0, 64, 63
2,84173, Note_on_c, 0, 72, 81
2,84181, Note_on_c, 0, 68, 69
2,84186, Note_on_c, 0, 51, 0
2,84187, Control_c, 0, 64, 49
2,84202, Control_c, 0, 64, 0
2,84249, Control_c, 0, 64, 32
2,84271, Control_c, 0, 64, 48
2,84286, Control_c, 0, 64, 56
2,84302, Control_c, 0, 64, 58
2,84317, Control_c, 0, 64, 60
2,84332, Control_c, 0, 64, 61
2,84347, Control_c, 0, 64, 63
2,84348, Note_on_c, 0, 53, 63
2,84362, Control_c, 0, 64, 63
2,84378, Control_c, 0, 64, 64
2,84402, Note_on_c, 0, 49, 0
2,84407, Control_c, 0, 64, 64
2,84438, Control_c, 0, 64, 65
2,84499, Control_c, 0, 64, 65
2,84545, Control_c, 0, 64, 66
2,84548, Note_on_c, 0, 80, 93
2,84576, Control_c, 0, 64, 66
2,84624, Note_on_c, 0, 72, 0
2,84639, Note_on_c, 0, 80, 0
2,84652, Control_c, 0, 64, 67
2,84681, Control_c, 0, 64, 67
2,84704, Note_on_c, 0, 51, 21
2,84712, Control_c, 0, 64, 68
2,84726, Control_c, 0, 64, 68
2,84742, Control_c, 0, 64, 69
2,84746, Note_on_c, 0, 51, 0
2,84774, Control_c, 0, 64, 69
2,84880, Control_c, 0, 64, 68
2,84896, Control_c, 0, 64, 64
2,84910, Control_c, 0, 64, 54
2,84916, Note_on_c, 0, 70, 76
2,84920, Note_on_c, 0, 51, 68
2,84925, Control_c, 0, 64, 46
2,84941, Control_c, 0, 64, 49
2,84955, Control_c, 0, 64, 51
2,84966, Note_on_c, 0, 53, 0
2,84971, Control_c, 0, 64, 55
2,84986, Control_c, 0, 64, 57
2,84996, Note_on_c, 0, 68, 0
2,85001, Control_c, 0, 64, 59
2,85017, Control_c, 0, 64, 60
2,85039, Control_c, 0, 64, 61
2,85055, Control_c, 0, 64, 62
2,85070, Control_c, 0, 64, 62
2,85085, Control_c, 0, 64, 63
2,85107, Note_on_c, 0, 49, 61
2,85114, Note_on_c, 0, 51, 0
2,85115, Control_c, 0, 64, 63
2,85120, Note_on_c, 0, 67, 86
2,85131, Control_c, 0, 64, 64
2,85161, Control_c, 0, 64, 64
2,85222, Control_c, 0, 64, 65
2,85251, Note_on_c, 0, 49, 0
2,85252, Control_c, 0, 64, 65
2,85256, Note_on_c, 0, 70, 0
2,85280, Note_on_c, 0, 48, 73
2,85305, Note_on_c, 0, 68, 79
2,85450, Note_on_c, 0, 67, 0
2,85459, Note_on_c, 0, 46, 80
2,85475, Note_on_c, 0, 70, 77
2,85514, Note_on_c, 0, 48, 0
2,85527, Note_on_c, 0, 68, 0
2,85570, Note_on_c, 0, 70, 0
2,85633, Control_c, 0, 64, 64
2,85647, Control_c, 0, 64, 63
2,85663, Control_c, 0, 64, 60
2,85668, Note_on_c, 0, 44, 81
2,85677, Control_c, 0, 64, 56
2,85693, Control_c, 0, 64, 54
2,85701, Note_on_c, 0, 72, 65
2,85708, Control_c, 0, 64, 53
2,85715, Note_on_c, 0, 46, 0
2,85753, Control_c, 0, 64, 53
2,85806, Control_c, 0, 64, 53
2,85822, Control_c, 0, 64, 54
2,85865, Note_on_c, 0, 75, 72
2,85989, Control_c, 0, 64, 53
2,86003, Control_c, 0, 64, 53
2,86053, Note_on_c, 0, 51, 87
2,86061, Note_on_c, 0, 77, 79
2,86065, Control_c, 0, 64, 52
2,86079, Control_c, 0, 64, 52
2,86095, Control_c, 0, 64, 51
2,86110, Control_c, 0, 64, 51
2,86116, Note_on_c, 0, 75, 0
2,86125, Control_c, 0, 64, 50
2,86172, Control_c, 0, 64, 50
2,86178, Note_on_c, 0, 44, 0
2,86235, Note_on_c, 0, 79, 80
2,86348, Note_on_c, 0, 77, 0
2,86416, Control_c, 0, 64, 49
2,86431, Control_c, 0, 64, 48
2,86441, Note_on_c, 0, 48, 83
2,86443, Note_on_c, 0, 80, 83
2,86446, Control_c, 0, 64, 47
2,86477, Control_c, 0, 64, 47
2,86482, Note_on_c, 0, 79, 0
2,86493, Control_c, 0, 64, 46
2,86498, Note_on_c, 0, 51, 0
2,86507, Control_c, 0, 64, 45
2,86621, Control_c, 0, 64, 46
2,86625, Note_on_c, 0, 72, 0
2,86632, Note_on_c, 0, 73, 59
2,86727, Control_c, 0, 64, 46
2,86803, Control_c, 0, 64, 47
2,86819, Control_c, 0, 64, 47
2,86834, Control_c, 0, 64, 48
2,86840, Note_on_c, 0, 73, 0
2,86845, Note_on_c, 0, 44, 75
2,86845, Note_on_c, 0, 75, 62
2,86850, Control_c, 0, 64, 49
2,86853, Note_on_c, 0, 48, 0
2,86865, Control_c, 0, 64, 49
2,86880, Control_c, 0, 64, 50
2,86972, Control_c, 0, 64, 50
2,86986, Control_c, 0, 64, 51
2,87017, Control_c, 0, 64, 51
2,87029, Note_on_c, 0, 72, 56
2,87047, Control_c, 0, 64, 51
2,87077, Control_c, 0, 64, 50
2,87093, Control_c, 0, 64, 50
2,87123, Control_c, 0, 64, 49
2,87131, Note_on_c, 0, 75, 0
2,87138, Control_c, 0, 64, 49
2,87153, Control_c, 0, 64, 48
2,87169, Control_c, 0, 64, 47
2,87183, Control_c, 0, 64, 46
2,87216, Control_c, 0, 64, 46
2,87230, Control_c, 0, 64, 45
2,87245, Control_c, 0, 64, 45
2,87249, Note_on_c, 0, 53, 80
2,87270, Note_on_c, 0, 73, 52
2,87276, Control_c, 0, 64, 44
2,87306, Control_c, 0, 64, 45
2,87371, Note_on_c, 0, 72, 0
2,87375, Control_c, 0, 64, 45
2,87375, Control_c, 0, 67, 8
2,87379, Note_on_c, 0, 80, 0
2,87390, Control_c, 0, 64, 46
2,87390, Control_c, 0, 67, 9
2,87405, Control_c, 0, 64, 46
2,87405, Control_c, 0, 67, 11
2,87420, Control_c, 0, 64, 47
2,87420, Control_c, 0, 67, 14
2,87435, Control_c, 0, 64, 48
2,87435, Control_c, 0, 67, 17
2,87451, Control_c, 0, 64, 49
2,87451, Control_c, 0, 67, 22
2,87464, Note_on_c, 0, 79, 49
2,87466, Control_c, 0, 64, 51
2,87466, Control_c, 0, 67, 27
2,87481, Control_c, 0, 64, 52
2,87481, Control_c, 0, 67, 33
2,87496, Control_c, 0, 64, 53
2,87496, Control_c, 0, 67, 38
2,87511, Control_c, 0, 64, 54
2,87511, Control_c, 0, 67, 44
2,87525, Note_on_c, 0, 73, 0
2,87526, Control_c, 0, 67, 50
2,87542, Control_c, 0, 67, 56
2,87557, Control_c, 0, 67, 62
2,87572, Control_c, 0, 67, 66
2,87587, Control_c, 0, 64, 53
2,87587, Control_c, 0, 67, 71
2,87602, Control_c, 0, 67, 75
2,87618, Control_c, 0, 67, 78
2,87632, Control_c, 0, 67, 81
2,87647, Control_c, 0, 67, 84
2,87650, Note_on_c, 0, 53, 0
2,87654, Note_on_c, 0, 49, 65
2,87663, Control_c, 0, 67, 87
2,87678, Control_c, 0, 67, 89
2,87683, Note_on_c, 0, 77, 57
2,87694, Control_c, 0, 67, 92
2,87709, Control_c, 0, 67, 94
2,87709, Note_on_c, 0, 44, 0
2,87715, Note_on_c, 0, 79, 0
2,87724, Control_c, 0, 64, 53
2,87724, Control_c, 0, 67, 95
2,87740, Control_c, 0, 67, 95
2,87785, Control_c, 0, 64, 52
2,87857, Note_on_c, 0, 80, 59
2,87896, Note_on_c, 0, 77, 0
2,87952, Control_c, 0, 64, 51
2,87967, Control_c, 0, 64, 49
2,87982, Control_c, 0, 64, 43
2,87997, Control_c, 0, 64, 21
2,87997, Control_c, 0, 67, 96
2,88013, Control_c, 0, 64, 0
2,88025, Note_on_c, 0, 80, 0
2,88029, Control_c, 0, 67, 96
2,88059, Control_c, 0, 67, 97
2,88059, Note_on_c, 0, 51, 47
2,88070, Note_on_c, 0, 73, 44
2,88071, Note_on_c, 0, 79, 57
2,88074, Control_c, 0, 67, 97
2,88090, Control_c, 0, 67, 99
2,88112, Control_c, 0, 67, 103
2,88127, Control_c, 0, 67, 105
2,88143, Control_c, 0, 67, 107
2,88145, Note_on_c, 0, 49, 0
2,88158, Control_c, 0, 67, 110
2,88174, Control_c, 0, 64, 37
2,88174, Control_c, 0, 67, 113
2,88189, Control_c, 0, 64, 46
2,88189, Control_c, 0, 67, 116
2,88204, Control_c, 0, 64, 51
2,88204, Control_c, 0, 67, 119
2,88219, Control_c, 0, 64, 54
2,88219, Control_c, 0, 67, 122
2,88234, Control_c, 0, 64, 56
2,88234, Control_c, 0, 67, 124
2,88250, Control_c, 0, 64, 58
2,88250, Control_c, 0, 67, 126
2,88258, Note_on_c, 0, 73, 0
2,88264, Control_c, 0, 64, 60
2,88264, Control_c, 0, 67, 127
2,88266, Note_on_c, 0, 72, 51
2,88279, Control_c, 0, 64, 61
2,88295, Control_c, 0, 64, 61
2,88310, Control_c, 0, 64, 62
2,88325, Control_c, 0, 64, 63
2,88340, Control_c, 0, 64, 64
2,88371, Control_c, 0, 64, 64
2,88386, Control_c, 0, 64, 65
2,88401, Control_c, 0, 64, 65
2,88431, Control_c, 0, 64, 66
2,88458, Note_on_c, 0, 70, 58
2,88476, Control_c, 0, 64, 66
2,88543, Note_on_c, 0, 72, 0
2,88598, Note_on_c, 0, 51, 0
2,88655, Note_on_c, 0, 73, 59
2,88657, Note_on_c, 0, 70, 0
2,88674, Control_c, 0, 64, 67
2,88765, Control_c, 0, 64, 66
2,88795, Control_c, 0, 64, 66
2,88811, Control_c, 0, 64, 64
2,88826, Control_c, 0, 64, 58
2,88831, Note_on_c, 0, 72, 65
2,88835, Note_on_c, 0, 55, 48
2,88842, Control_c, 0, 64, 32
2,88842, Note_on_c, 0, 73, 0
2,88853, Note_on_c, 0, 52, 46
2,88858, Control_c, 0, 64, 0
2,88880, Control_c, 0, 67, 127
2,88896, Control_c, 0, 67, 126
2,88910, Control_c, 0, 67, 126
2,88925, Control_c, 0, 64, 39
2,88925, Control_c, 0, 67, 125
2,88941, Control_c, 0, 64, 51
2,88941, Control_c, 0, 67, 124
2,88956, Control_c, 0, 64, 57
2,88956, Control_c, 0, 67, 124
2,88972, Control_c, 0, 64, 60
2,88972, Control_c, 0, 67, 123
2,88987, Control_c, 0, 64, 61
2,88987, Control_c, 0, 67, 122
2,89002, Control_c, 0, 64, 62
2,89002, Control_c, 0, 67, 121
2,89018, Control_c, 0, 64, 63
2,89018, Control_c, 0, 67, 119
2,89024, Note_on_c, 0, 58, 46
2,89026, Note_on_c, 0, 55, 0
2,89033, Control_c, 0, 64, 63
2,89033, Control_c, 0, 67, 117
2,89049, Control_c, 0, 67, 114
2,89063, Control_c, 0, 64, 64
2,89063, Control_c, 0, 67, 112
2,89078, Control_c, 0, 67, 108
2,89094, Control_c, 0, 67, 105
2,89108, Control_c, 0, 67, 100
2,89123, Control_c, 0, 67, 94
2,89139, Control_c, 0, 67, 87
2,89141, Note_on_c, 0, 79, 0
2,89143, Note_on_c, 0, 52, 0
2,89154, Control_c, 0, 67, 80
2,89170, Control_c, 0, 67, 73
2,89184, Control_c, 0, 67, 64
2,89199, Control_c, 0, 67, 55
2,89215, Control_c, 0, 67, 44
2,89217, Note_on_c, 0, 58, 0
2,89230, Control_c, 0, 67, 34
2,89231, Note_on_c, 0, 60, 77
2,89238, Note_on_c, 0, 56, 60
2,89245, Control_c, 0, 67, 24
2,89260, Control_c, 0, 67, 15
2,89275, Control_c, 0, 67, 0
2,89306, Control_c, 0, 64, 64
2,89381, Control_c, 0, 64, 65
2,89437, Note_on_c, 0, 55, 62
2,89454, Note_on_c, 0, 56, 0
2,89473, Control_c, 0, 64, 65
2,89535, Control_c, 0, 64, 66
2,89626, Control_c, 0, 64, 65
2,89647, Control_c, 0, 64, 62
2,89663, Control_c, 0, 64, 55
2,89665, Note_on_c, 0, 56, 83
2,89679, Control_c, 0, 64, 41
2,89695, Control_c, 0, 64, 30
2,89710, Control_c, 0, 64, 33
2,89725, Control_c, 0, 64, 40
2,89741, Control_c, 0, 64, 49
2,89746, Note_on_c, 0, 55, 0
2,89755, Control_c, 0, 64, 54
2,89771, Control_c, 0, 64, 57
2,89786, Control_c, 0, 64, 59
2,89801, Control_c, 0, 64, 60
2,89817, Control_c, 0, 64, 61
2,89831, Control_c, 0, 64, 62
2,89846, Control_c, 0, 64, 62
2,89862, Control_c, 0, 64, 63
2,89863, Note_on_c, 0, 70, 61
2,89873, Note_on_c, 0, 72, 0
2,89876, Control_c, 0, 64, 64
2,89892, Control_c, 0, 64, 64
2,89907, Control_c, 0, 64, 65
2,89938, Control_c, 0, 64, 65
2,89969, Control_c, 0, 64, 66
2,89999, Control_c, 0, 64, 66
2,90044, Control_c, 0, 64, 66
2,90060, Control_c, 0, 64, 65
2,90074, Note_on_c, 0, 53, 85
2,90075, Control_c, 0, 64, 62
2,90090, Control_c, 0, 64, 59
2,90095, Note_on_c, 0, 68, 60
2,90105, Control_c, 0, 64, 58
2,90120, Control_c, 0, 64, 59
2,90120, Note_on_c, 0, 70, 0
2,90130, Note_on_c, 0, 56, 0
2,90136, Control_c, 0, 64, 60
2,90151, Control_c, 0, 64, 60
2,90155, Note_on_c, 0, 60, 0
2,90181, Control_c, 0, 64, 61
2,90196, Control_c, 0, 64, 62
2,90212, Control_c, 0, 64, 62
2,90284, Note_on_c, 0, 67, 56
2,90286, Control_c, 0, 64, 63
2,90317, Control_c, 0, 64, 63
2,90339, Note_on_c, 0, 68, 0
2,90393, Control_c, 0, 64, 64
2,90431, Control_c, 0, 64, 64
2,90461, Control_c, 0, 64, 64
2,90493, Control_c, 0, 64, 63
2,90508, Control_c, 0, 64, 59
2,90509, Note_on_c, 0, 62, 88
2,90522, Control_c, 0, 64, 44
2,90527, Note_on_c, 0, 68, 53
2,90538, Control_c, 0, 64, 0
2,90569, Control_c, 0, 64, 10
2,90584, Control_c, 0, 64, 32
2,90598, Control_c, 0, 64, 45
2,90614, Control_c, 0, 64, 54
2,90629, Control_c, 0, 64, 58
2,90644, Control_c, 0, 64, 59
2,90660, Control_c, 0, 64, 61
2,90674, Control_c, 0, 64, 61
2,90690, Control_c, 0, 64, 62
2,90705, Control_c, 0, 64, 63
2,90712, Note_on_c, 0, 72, 57
2,90714, Note_on_c, 0, 68, 0
2,90720, Control_c, 0, 64, 64
2,90751, Control_c, 0, 64, 64
2,90796, Control_c, 0, 64, 65
2,90842, Control_c, 0, 64, 65
2,90887, Control_c, 0, 64, 66
2,90913, Note_on_c, 0, 59, 82
2,90922, Note_on_c, 0, 77, 62
2,90933, Control_c, 0, 64, 66
2,90945, Note_on_c, 0, 72, 0
2,90979, Control_c, 0, 64, 67
2,91008, Control_c, 0, 64, 67
2,91054, Control_c, 0, 64, 68
2,91069, Note_on_c, 0, 67, 0
2,91074, Note_on_c, 0, 62, 0
2,91080, Note_on_c, 0, 53, 0
2,91084, Control_c, 0, 64, 68
2,91121, Note_on_c, 0, 68, 48
2,91131, Control_c, 0, 64, 69
2,91151, Note_on_c, 0, 59, 0
2,91160, Control_c, 0, 64, 69
2,91274, Control_c, 0, 64, 68
2,91290, Control_c, 0, 64, 64
2,91305, Control_c, 0, 64, 53
2,91321, Control_c, 0, 64, 39
2,91321, Note_on_c, 0, 60, 86
2,91322, Note_on_c, 0, 67, 67
2,91327, Note_on_c, 0, 68, 0
2,91328, Note_on_c, 0, 48, 80
2,91337, Control_c, 0, 64, 40
2,91352, Control_c, 0, 64, 45
2,91366, Control_c, 0, 64, 51
2,91382, Control_c, 0, 64, 56
2,91397, Control_c, 0, 64, 59
2,91413, Control_c, 0, 64, 61
2,91428, Control_c, 0, 64, 62
2,91442, Control_c, 0, 64, 62
2,91458, Control_c, 0, 64, 63
2,91473, Control_c, 0, 64, 63
2,91504, Control_c, 0, 64, 64
2,91505, Note_on_c, 0, 51, 56
2,91526, Note_on_c, 0, 75, 57
2,91534, Control_c, 0, 64, 64
2,91552, Note_on_c, 0, 60, 0
2,91580, Control_c, 0, 64, 65
2,91625, Control_c, 0, 64, 65
2,91640, Control_c, 0, 64, 66
2,91671, Control_c, 0, 64, 66
2,91685, Control_c, 0, 64, 67
2,91701, Control_c, 0, 64, 67
2,91701, Note_on_c, 0, 53, 57
2,91715, Note_on_c, 0, 51, 0
2,91716, Control_c, 0, 64, 68
2,91716, Note_on_c, 0, 74, 62
2,91738, Note_on_c, 0, 77, 0
2,91739, Note_on_c, 0, 75, 0
2,91747, Control_c, 0, 64, 68
2,91777, Control_c, 0, 64, 69
2,91807, Control_c, 0, 64, 69
2,91853, Control_c, 0, 64, 70
2,91876, Note_on_c, 0, 53, 0
2,91903, Note_on_c, 0, 77, 82
2,91912, Note_on_c, 0, 55, 56
2,91912, Note_on_c, 0, 74, 0
2,91913, Control_c, 0, 64, 70
2,91928, Control_c, 0, 64, 71
2,91930, Note_on_c, 0, 67, 0
2,91937, Note_on_c, 0, 77, 0
2,91967, Control_c, 0, 64, 71
2,92043, Control_c, 0, 64, 72
2,92088, Control_c, 0, 64, 71
2,92103, Control_c, 0, 64, 67
2,92115, Note_on_c, 0, 56, 63
2,92118, Control_c, 0, 64, 60
2,92120, Note_on_c, 0, 75, 80
2,92123, Note_on_c, 0, 55, 0
2,92130, Note_on_c, 0, 63, 70
2,92136, Control_c, 0, 64, 40
2,92150, Control_c, 0, 64, 30
2,92165, Control_c, 0, 64, 35
2,92181, Control_c, 0, 64, 44
2,92196, Control_c, 0, 64, 56
2,92211, Control_c, 0, 64, 61
2,92226, Control_c, 0, 64, 63
2,92241, Control_c, 0, 64, 64
2,92257, Control_c, 0, 64, 65
2,92272, Control_c, 0, 64, 66
2,92286, Control_c, 0, 64, 66
2,92302, Control_c, 0, 64, 67
2,92312, Note_on_c, 0, 58, 54
2,92317, Control_c, 0, 64, 68
2,92332, Control_c, 0, 64, 68
2,92344, Note_on_c, 0, 48, 0
2,92347, Control_c, 0, 64, 69
2,92362, Control_c, 0, 64, 69
2,92378, Control_c, 0, 64, 70
2,92393, Control_c, 0, 64, 70
2,92447, Note_on_c, 0, 75, 0
2,92515, Note_on_c, 0, 60, 53
2,92517, Note_on_c, 0, 58, 0
2,92522, Note_on_c, 0, 68, 89
2,92563, Note_on_c, 0, 56, 0
2,92577, Control_c, 0, 64, 70
2,92645, Note_on_c, 0, 60, 0
2,92680, Note_on_c, 0, 58, 57
2,92742, Note_on_c, 0, 58, 0
2,92753, Note_on_c, 0, 63, 0
2,92873, Control_c, 0, 64, 69
2,92888, Control_c, 0, 64, 68
2,92903, Control_c, 0, 64, 65
2,92918, Control_c, 0, 64, 59
2,92931, Note_on_c, 0, 65, 84
2,92934, Control_c, 0, 64, 47
2,92937, Note_on_c, 0, 49, 49
2,92942, Note_on_c, 0, 56, 49
2,92949, Control_c, 0, 64, 32
2,92964, Control_c, 0, 64, 16
2,92980, Control_c, 0, 64, 13
2,92995, Control_c, 0, 64, 27
2,93011, Control_c, 0, 64, 38
2,93026, Control_c, 0, 64, 46
2,93041, Control_c, 0, 64, 52
2,93056, Control_c, 0, 64, 56
2,93071, Control_c, 0, 64, 59
2,93086, Control_c, 0, 64, 60
2,93102, Control_c, 0, 64, 62
2,93102, Control_c, 0, 67, 8
2,93117, Control_c, 0, 64, 63
2,93117, Control_c, 0, 67, 10
2,93130, Note_on_c, 0, 55, 41
2,93132, Control_c, 0, 64, 63
2,93132, Control_c, 0, 67, 12
2,93147, Control_c, 0, 64, 64
2,93147, Control_c, 0, 67, 14
2,93162, Control_c, 0, 64, 64
2,93162, Control_c, 0, 67, 14
2,93177, Control_c, 0, 64, 65
2,93177, Control_c, 0, 67, 15
2,93207, Control_c, 0, 64, 65
2,93223, Control_c, 0, 67, 15
2,93253, Control_c, 0, 64, 66
2,93253, Control_c, 0, 67, 16
2,93264, Note_on_c, 0, 56, 0
2,93268, Control_c, 0, 67, 19
2,93283, Control_c, 0, 67, 22
2,93299, Control_c, 0, 64, 66
2,93299, Control_c, 0, 67, 26
2,93314, Control_c, 0, 67, 30
2,93328, Control_c, 0, 67, 34
2,93332, Note_on_c, 0, 55, 0
2,93334, Note_on_c, 0, 61, 87
2,93335, Note_on_c, 0, 53, 44
2,93344, Control_c, 0, 67, 38
2,93359, Control_c, 0, 64, 67
2,93359, Control_c, 0, 67, 42
2,93375, Control_c, 0, 67, 44
2,93389, Control_c, 0, 67, 47
2,93404, Control_c, 0, 67, 50
2,93420, Control_c, 0, 67, 52
2,93435, Control_c, 0, 67, 54
2,93451, Control_c, 0, 67, 55
2,93454, Note_on_c, 0, 68, 0
2,93466, Control_c, 0, 67, 58
2,93467, Note_on_c, 0, 65, 0
2,93488, Control_c, 0, 67, 60
2,93504, Control_c, 0, 67, 64
2,93518, Control_c, 0, 67, 66
2,93534, Control_c, 0, 67, 70
2,93544, Note_on_c, 0, 55, 45
2,93549, Control_c, 0, 64, 66
2,93549, Control_c, 0, 67, 72
2,93564, Control_c, 0, 67, 74
2,93576, Note_on_c, 0, 53, 0
2,93580, Control_c, 0, 67, 76
2,93594, Control_c, 0, 64, 67
2,93594, Control_c, 0, 67, 77
2,93610, Control_c, 0, 67, 78
2,93625, Control_c, 0, 67, 79
2,93656, Control_c, 0, 67, 79
2,93686, Control_c, 0, 64, 66
2,93702, Control_c, 0, 64, 66
2,93716, Control_c, 0, 64, 65
2,93716, Control_c, 0, 67, 80
2,93732, Control_c, 0, 64, 60
2,93747, Control_c, 0, 64, 45
2,93747, Control_c, 0, 67, 80
2,93750, Note_on_c, 0, 55, 0
2,93750, Note_on_c, 0, 56, 49
2,93752, Note_on_c, 0, 70, 81
2,93757, Note_on_c, 0, 73, 76
2,93762, Control_c, 0, 64, 0
2,93762, Control_c, 0, 67, 81
2,93778, Control_c, 0, 67, 83
2,93793, Control_c, 0, 67, 85
2,93808, Control_c, 0, 67, 87
2,93824, Control_c, 0, 64, 32
2,93824, Control_c, 0, 67, 89
2,93839, Control_c, 0, 64, 49
2,93839, Control_c, 0, 67, 90
2,93855, Control_c, 0, 64, 57
2,93855, Control_c, 0, 67, 91
2,93869, Control_c, 0, 64, 60
2,93869, Control_c, 0, 67, 92
2,93884, Control_c, 0, 64, 62
2,93884, Control_c, 0, 67, 93
2,93900, Control_c, 0, 64, 63
2,93900, Control_c, 0, 67, 94
2,93915, Control_c, 0, 64, 64
2,93915, Control_c, 0, 67, 95
2,93931, Control_c, 0, 64, 64
2,93931, Control_c, 0, 67, 97
2,93940, Note_on_c, 0, 55, 43
2,93945, Control_c, 0, 64, 65
2,93945, Control_c, 0, 67, 100
2,93960, Control_c, 0, 64, 66
2,93960, Control_c, 0, 67, 102
2,93971, Note_on_c, 0, 61, 0
2,93976, Control_c, 0, 64, 66
2,93976, Control_c, 0, 67, 106
2,93991, Control_c, 0, 64, 67
2,93991, Control_c, 0, 67, 109
2,94006, Control_c, 0, 64, 68
2,94006, Control_c, 0, 67, 111
2,94021, Control_c, 0, 64, 69
2,94021, Control_c, 0, 67, 114
2,94036, Control_c, 0, 64, 69
2,94036, Control_c, 0, 67, 116
2,94052, Control_c, 0, 64, 71
2,94052, Control_c, 0, 67, 119
2,94067, Control_c, 0, 64, 72
2,94067, Control_c, 0, 67, 122
2,94082, Control_c, 0, 64, 72
2,94082, Control_c, 0, 67, 125
2,94093, Note_on_c, 0, 56, 0
2,94097, Control_c, 0, 67, 127
2,94112, Control_c, 0, 67, 127
2,94156, Note_on_c, 0, 67, 88
2,94179, Note_on_c, 0, 53, 50
2,94210, Note_on_c, 0, 55, 0
2,94256, Note_on_c, 0, 49, 0
2,94308, Note_on_c, 0, 53, 0
2,94326, Note_on_c, 0, 51, 56
2,94387, Note_on_c, 0, 51, 0
2,94395, Note_on_c, 0, 67, 0
2,94517, Note_on_c, 0, 73, 0
2,94530, Control_c, 0, 64, 72
2,94545, Control_c, 0, 64, 69
2,94557, Note_on_c, 0, 68, 93
2,94560, Control_c, 0, 64, 64
2,94572, Note_on_c, 0, 70, 0
2,94576, Control_c, 0, 64, 48
2,94578, Note_on_c, 0, 44, 51
2,94584, Note_on_c, 0, 53, 46
2,94591, Control_c, 0, 64, 0
2,94667, Control_c, 0, 64, 35
2,94682, Control_c, 0, 64, 46
2,94698, Control_c, 0, 64, 51
2,94713, Control_c, 0, 64, 54
2,94728, Control_c, 0, 64, 56
2,94737, Note_on_c, 0, 53, 0
2,94744, Control_c, 0, 64, 57
2,94759, Control_c, 0, 64, 58
2,94761, Note_on_c, 0, 72, 58
2,94762, Note_on_c, 0, 51, 42
2,94775, Control_c, 0, 64, 59
2,94804, Control_c, 0, 64, 59
2,94820, Control_c, 0, 64, 60
2,94879, Note_on_c, 0, 51, 0
2,94911, Control_c, 0, 64, 60
2,94926, Control_c, 0, 64, 61
2,94948, Note_on_c, 0, 49, 40
2,94962, Note_on_c, 0, 70, 60
2,94997, Note_on_c, 0, 72, 0
2,95040, Control_c, 0, 64, 61
2,95071, Control_c, 0, 64, 62
2,95142, Note_on_c, 0, 73, 63
2,95144, Note_on_c, 0, 49, 0
2,95145, Note_on_c, 0, 70, 0
2,95146, Control_c, 0, 64, 62
2,95158, Note_on_c, 0, 53, 33
2,95177, Control_c, 0, 64, 62
2,95192, Control_c, 0, 64, 61
2,95206, Control_c, 0, 64, 59
2,95222, Control_c, 0, 64, 50
2,95237, Control_c, 0, 64, 22
2,95255, Control_c, 0, 64, 0
2,95300, Control_c, 0, 64, 24
2,95315, Control_c, 0, 64, 40
2,95330, Control_c, 0, 64, 50
2,95330, Note_on_c, 0, 73, 0
2,95335, Note_on_c, 0, 44, 0
2,95345, Control_c, 0, 64, 55
2,95348, Note_on_c, 0, 72, 66
2,95353, Note_on_c, 0, 51, 48
2,95360, Control_c, 0, 64, 57
2,95376, Control_c, 0, 64, 59
2,95381, Note_on_c, 0, 53, 0
2,95391, Control_c, 0, 64, 59
2,95408, Control_c, 0, 64, 60
2,95423, Control_c, 0, 64, 60
2,95473, Note_on_c, 0, 51, 0
2,95539, Note_on_c, 0, 41, 59
2,95575, Control_c, 0, 64, 60
2,95650, Control_c, 0, 64, 59
2,95665, Control_c, 0, 64, 58
2,95680, Control_c, 0, 64, 57
2,95696, Control_c, 0, 64, 56
2,95710, Control_c, 0, 64, 54
2,95721, Note_on_c, 0, 77, 70
2,95726, Control_c, 0, 64, 53
2,95726, Note_on_c, 0, 43, 66
2,95741, Control_c, 0, 64, 53
2,95756, Control_c, 0, 64, 52
2,95761, Note_on_c, 0, 72, 0
2,95765, Note_on_c, 0, 41, 0
2,95772, Control_c, 0, 64, 51
2,95810, Control_c, 0, 64, 51
2,95840, Control_c, 0, 64, 51
2,95912, Note_on_c, 0, 44, 71
2,95999, Note_on_c, 0, 43, 0
2,96037, Control_c, 0, 64, 51
2,96106, Note_on_c, 0, 46, 74
2,96119, Note_on_c, 0, 73, 63
2,96143, Control_c, 0, 64, 51
2,96148, Note_on_c, 0, 68, 0
2,96158, Control_c, 0, 64, 52
2,96169, Note_on_c, 0, 44, 0
2,96189, Control_c, 0, 64, 52
2,96220, Control_c, 0, 64, 53
2,96235, Control_c, 0, 64, 54
2,96251, Control_c, 0, 64, 54
2,96266, Control_c, 0, 64, 55
2,96280, Control_c, 0, 64, 55
2,96291, Note_on_c, 0, 46, 0
2,96299, Note_on_c, 0, 48, 65
2,96327, Control_c, 0, 64, 56
2,96478, Control_c, 0, 64, 56
2,96508, Note_on_c, 0, 48, 0
2,96511, Note_on_c, 0, 49, 58
2,96512, Note_on_c, 0, 70, 62
2,96513, Note_on_c, 0, 77, 0
2,96608, Control_c, 0, 64, 57
2,96713, Note_on_c, 0, 49, 0
2,96714, Control_c, 0, 64, 57
2,96715, Note_on_c, 0, 51, 50
2,96775, Control_c, 0, 64, 58
2,96820, Control_c, 0, 64, 58
2,96851, Control_c, 0, 64, 58
2,96866, Control_c, 0, 64, 56
2,96881, Control_c, 0, 64, 50
2,96896, Control_c, 0, 64, 13
2,96905, Note_on_c, 0, 51, 0
2,96911, Control_c, 0, 64, 0
2,96919, Note_on_c, 0, 49, 42
2,96926, Note_on_c, 0, 78, 70
2,96938, Note_on_c, 0, 73, 0
2,97018, Control_c, 0, 64, 30
2,97033, Control_c, 0, 64, 42
2,97049, Control_c, 0, 64, 49
2,97064, Control_c, 0, 64, 53
2,97076, Note_on_c, 0, 49, 0
2,97079, Control_c, 0, 64, 56
2,97095, Control_c, 0, 64, 57
2,97110, Control_c, 0, 64, 59
2,97110, Note_on_c, 0, 48, 44
2,97125, Control_c, 0, 64, 60
2,97140, Control_c, 0, 64, 61
2,97155, Control_c, 0, 64, 62
2,97171, Control_c, 0, 64, 62
2,97186, Control_c, 0, 64, 63
2,97231, Control_c, 0, 64, 63
2,97277, Control_c, 0, 64, 64
2,97285, Note_on_c, 0, 48, 0
2,97305, Note_on_c, 0, 46, 46
2,97328, Note_on_c, 0, 72, 46
2,97328, Note_on_c, 0, 75, 61
2,97345, Control_c, 0, 64, 64
2,97360, Control_c, 0, 64, 65
2,97385, Note_on_c, 0, 78, 0
2,97406, Control_c, 0, 64, 65
2,97436, Control_c, 0, 64, 66
2,97492, Note_on_c, 0, 46, 0
2,97496, Note_on_c, 0, 44, 46
2,97619, Control_c, 0, 64, 65
2,97650, Control_c, 0, 64, 65
2,97664, Control_c, 0, 64, 63
2,97669, Note_on_c, 0, 72, 0
2,97679, Control_c, 0, 64, 54
2,97695, Control_c, 0, 64, 32
2,97710, Control_c, 0, 64, 0
2,97715, Note_on_c, 0, 44, 0
2,97721, Note_on_c, 0, 77, 65
2,97725, Note_on_c, 0, 49, 42
2,97751, Note_on_c, 0, 75, 0
2,97785, Control_c, 0, 64, 33
2,97800, Control_c, 0, 64, 47
2,97816, Control_c, 0, 64, 53
2,97831, Control_c, 0, 64, 57
2,97847, Control_c, 0, 64, 59
2,97863, Control_c, 0, 64, 61
2,97878, Control_c, 0, 64, 62
2,97893, Control_c, 0, 64, 63
2,97908, Control_c, 0, 64, 64
2,97919, Note_on_c, 0, 49, 0
2,97924, Control_c, 0, 64, 64
2,97927, Note_on_c, 0, 48, 40
2,97939, Control_c, 0, 64, 65
2,97969, Control_c, 0, 64, 65
2,97982, Control_c, 0, 64, 66
2,97997, Control_c, 0, 64, 66
2,98028, Control_c, 0, 64, 67
2,98058, Control_c, 0, 64, 67
2,98073, Control_c, 0, 67, 120
2,98096, Control_c, 0, 64, 68
2,98096, Control_c, 0, 67, 112
2,98097, Note_on_c, 0, 48, 0
2,98107, Note_on_c, 0, 49, 40
2,98111, Control_c, 0, 67, 104
2,98122, Note_on_c, 0, 73, 52
2,98126, Control_c, 0, 67, 98
2,98142, Control_c, 0, 67, 90
2,98155, Note_on_c, 0, 77, 0
2,98157, Control_c, 0, 64, 68
2,98157, Control_c, 0, 67, 82
2,98172, Control_c, 0, 67, 75
2,98187, Control_c, 0, 67, 67
2,98202, Control_c, 0, 67, 60
2,98218, Control_c, 0, 64, 69
2,98218, Control_c, 0, 67, 52
2,98233, Control_c, 0, 67, 44
2,98247, Control_c, 0, 67, 35
2,98261, Note_on_c, 0, 49, 0
2,98263, Control_c, 0, 67, 28
2,98278, Control_c, 0, 67, 22
2,98294, Control_c, 0, 67, 15
2,98295, Note_on_c, 0, 53, 41
2,98309, Control_c, 0, 67, 8
2,98324, Control_c, 0, 67, 0
2,98340, Control_c, 0, 64, 69
2,98492, Control_c, 0, 64, 69
2,98500, Note_on_c, 0, 51, 46
2,98506, Control_c, 0, 64, 67
2,98510, Note_on_c, 0, 80, 76
2,98519, Control_c, 0, 64, 64
2,98534, Control_c, 0, 64, 56
2,98546, Note_on_c, 0, 53, 0
2,98550, Control_c, 0, 64, 44
2,98565, Control_c, 0, 64, 46
2,98580, Control_c, 0, 64, 50
2,98595, Control_c, 0, 64, 55
2,98606, Note_on_c, 0, 73, 0
2,98610, Control_c, 0, 64, 60
2,98625, Control_c, 0, 64, 62
2,98640, Control_c, 0, 64, 63
2,98655, Control_c, 0, 64, 64
2,98671, Control_c, 0, 64, 64
2,98687, Control_c, 0, 64, 65
2,98699, Note_on_c, 0, 51, 0
2,98703, Control_c, 0, 64, 65
2,98707, Note_on_c, 0, 50, 46
2,98718, Control_c, 0, 64, 66
2,98732, Control_c, 0, 64, 66
2,98748, Control_c, 0, 64, 67
2,98763, Control_c, 0, 64, 67
2,98779, Control_c, 0, 64, 68
2,98886, Note_on_c, 0, 50, 0
2,98902, Note_on_c, 0, 77, 82
2,98905, Note_on_c, 0, 74, 74
2,98916, Note_on_c, 0, 48, 50
2,99001, Note_on_c, 0, 80, 0
2,99095, Note_on_c, 0, 46, 55
2,99122, Note_on_c, 0, 48, 0
2,99141, Note_on_c, 0, 70, 0
2,99181, Control_c, 0, 64, 68
2,99242, Control_c, 0, 64, 68
2,99258, Control_c, 0, 64, 67
2,99272, Control_c, 0, 64, 65
2,99287, Control_c, 0, 64, 59
2,99299, Note_on_c, 0, 51, 45
2,99303, Control_c, 0, 64, 40
2,99303, Note_on_c, 0, 79, 78
2,99318, Control_c, 0, 64, 0
2,99322, Note_on_c, 0, 46, 0
2,99331, Note_on_c, 0, 70, 51
2,99348, Note_on_c, 0, 74, 0
2,99394, Control_c, 0, 64, 45
2,99399, Note_on_c, 0, 77, 0
2,99409, Control_c, 0, 64, 56
2,99424, Control_c, 0, 64, 59
2,99439, Control_c, 0, 64, 61
2,99454, Control_c, 0, 64, 62
2,99470, Control_c, 0, 64, 63
2,99485, Control_c, 0, 64, 64
2,99497, Note_on_c, 0, 51, 0
2,99502, Control_c, 0, 64, 64
2,99511, Note_on_c, 0, 50, 45
2,99517, Control_c, 0, 64, 65
2,99532, Control_c, 0, 64, 65
2,99548, Control_c, 0, 64, 66
2,99563, Control_c, 0, 64, 66
2,99578, Control_c, 0, 64, 67
2,99593, Control_c, 0, 64, 68
2,99608, Control_c, 0, 64, 69
2,99631, Control_c, 0, 64, 69
2,99676, Control_c, 0, 64, 70
2,99713, Note_on_c, 0, 50, 0
2,99716, Note_on_c, 0, 75, 82
2,99721, Note_on_c, 0, 51, 48
2,99805, Note_on_c, 0, 79, 0
2,99844, Note_on_c, 0, 70, 0
2,99881, Note_on_c, 0, 51, 0
2,99910, Note_on_c, 0, 55, 44
2,100071, Control_c, 0, 64, 69
2,100086, Control_c, 0, 64, 66
2,100102, Control_c, 0, 64, 60
2,100110, Note_on_c, 0, 82, 89
2,100116, Control_c, 0, 64, 25
2,100116, Note_on_c, 0, 53, 44
2,100131, Control_c, 0, 64, 0
2,100193, Control_c, 0, 64, 43
2,100208, Control_c, 0, 64, 57
2,100224, Control_c, 0, 64, 61
2,100238, Control_c, 0, 64, 62
2,100253, Control_c, 0, 64, 64
2,100269, Control_c, 0, 64, 64
2,100284, Control_c, 0, 64, 65
2,100300, Control_c, 0, 64, 65
2,100305, Note_on_c, 0, 53, 0
2,100315, Control_c, 0, 64, 66
2,100318, Note_on_c, 0, 52, 50
2,100335, Note_on_c, 0, 75, 0
2,100346, Control_c, 0, 64, 66
2,100361, Control_c, 0, 64, 67
2,100420, Note_on_c, 0, 55, 0
2,100485, Note_on_c, 0, 82, 0
2,100492, Note_on_c, 0, 52, 0
2,100502, Note_on_c, 0, 79, 82
2,100507, Note_on_c, 0, 76, 71
2,100508, Note_on_c, 0, 72, 67
2,100514, Note_on_c, 0, 50, 51
2,100661, Note_on_c, 0, 50, 0
2,100680, Note_on_c, 0, 76, 0
2,100687, Note_on_c, 0, 48, 51
2,100844, Note_on_c, 0, 79, 0
2,100870, Control_c, 0, 64, 66
2,100884, Control_c, 0, 64, 65
2,100900, Control_c, 0, 64, 62
2,100912, Note_on_c, 0, 53, 41
2,100914, Note_on_c, 0, 80, 86
2,100915, Control_c, 0, 64, 42
2,100918, Note_on_c, 0, 77, 68
2,100930, Control_c, 0, 64, 0
2,100962, Note_on_c, 0, 72, 0
2,101022, Control_c, 0, 64, 47
2,101036, Control_c, 0, 64, 56
2,101051, Control_c, 0, 64, 58
2,101067, Control_c, 0, 64, 60
2,101076, Note_on_c, 0, 53, 0
2,101081, Control_c, 0, 64, 61
2,101097, Control_c, 0, 64, 62
2,101097, Note_on_c, 0, 48, 0
2,101109, Note_on_c, 0, 55, 49
2,101112, Control_c, 0, 64, 63
2,101144, Control_c, 0, 64, 64
2,101182, Control_c, 0, 64, 64
2,101211, Control_c, 0, 64, 65
2,101318, Note_on_c, 0, 56, 50
2,101334, Note_on_c, 0, 72, 84
2,101365, Note_on_c, 0, 55, 0
2,101380, Control_c, 0, 64, 64
2,101455, Control_c, 0, 64, 65
2,101492, Note_on_c, 0, 53, 53
2,101493, Note_on_c, 0, 56, 0
2,101546, Control_c, 0, 64, 65
2,101606, Control_c, 0, 64, 66
2,101668, Control_c, 0, 64, 65
2,101698, Control_c, 0, 64, 63
2,101713, Control_c, 0, 64, 54
2,101721, Note_on_c, 0, 73, 82
2,101727, Control_c, 0, 64, 26
2,101727, Note_on_c, 0, 58, 55
2,101743, Control_c, 0, 64, 0
2,101756, Note_on_c, 0, 72, 0
2,101804, Control_c, 0, 64, 45
2,101820, Control_c, 0, 64, 55
2,101835, Control_c, 0, 64, 59
2,101850, Control_c, 0, 64, 60
2,101866, Control_c, 0, 64, 62
2,101880, Control_c, 0, 64, 62
2,101895, Control_c, 0, 64, 63
2,101901, Note_on_c, 0, 58, 0
2,101911, Control_c, 0, 64, 63
2,101912, Note_on_c, 0, 56, 50
2,101932, Note_on_c, 0, 53, 0
2,101948, Control_c, 0, 64, 64
2,101995, Control_c, 0, 64, 64
2,102026, Control_c, 0, 64, 64
2,102042, Note_on_c, 0, 77, 0
2,102071, Control_c, 0, 64, 63
2,102091, Note_on_c, 0, 80, 0
2,102098, Note_on_c, 0, 56, 0
2,102124, Note_on_c, 0, 55, 50
2,102128, Note_on_c, 0, 70, 79
2,102178, Control_c, 0, 64, 63
2,102238, Control_c, 0, 64, 63
2,102281, Note_on_c, 0, 55, 0
2,102303, Note_on_c, 0, 53, 54
2,102345, Control_c, 0, 64, 64
2,102354, Note_on_c, 0, 70, 0
2,102481, Control_c, 0, 64, 63
2,102497, Control_c, 0, 64, 62
2,102512, Control_c, 0, 64, 54
2,102517, Note_on_c, 0, 51, 49
2,102520, Note_on_c, 0, 53, 0
2,102526, Control_c, 0, 64, 25
2,102534, Note_on_c, 0, 67, 80
2,102543, Control_c, 0, 64, 0
2,102588, Control_c, 0, 64, 13
2,102603, Control_c, 0, 64, 46
2,102619, Control_c, 0, 64, 56
2,102634, Control_c, 0, 64, 60
2,102648, Control_c, 0, 64, 62
2,102664, Control_c, 0, 64, 63
2,102679, Control_c, 0, 64, 64
2,102702, Control_c, 0, 64, 64
2,102731, Note_on_c, 0, 51, 0
2,102732, Control_c, 0, 64, 65
2,102743, Note_on_c, 0, 49, 52
2,102763, Control_c, 0, 64, 65
2,102785, Note_on_c, 0, 73, 0
2,102795, Control_c, 0, 64, 66
2,102901, Control_c, 0, 64, 65
2,102919, Note_on_c, 0, 49, 0
2,102945, Note_on_c, 0, 48, 57
2,102955, Note_on_c, 0, 75, 85
2,102977, Control_c, 0, 64, 65
2,103125, Note_on_c, 0, 46, 61
2,103158, Control_c, 0, 64, 65
2,103194, Note_on_c, 0, 48, 0
2,103295, Control_c, 0, 64, 64
2,103311, Control_c, 0, 64, 62
2,103311, Note_on_c, 0, 75, 0
2,103326, Control_c, 0, 64, 47
2,103341, Control_c, 0, 64, 0
2,103345, Note_on_c, 0, 72, 88
2,103360, Note_on_c, 0, 44, 57
2,103370, Note_on_c, 0, 46, 0
2,103402, Control_c, 0, 64, 27
2,103417, Control_c, 0, 64, 52
2,103432, Control_c, 0, 64, 59
2,103447, Control_c, 0, 64, 61
2,103470, Control_c, 0, 64, 63
2,103485, Control_c, 0, 64, 64
2,103485, Note_on_c, 0, 67, 0
2,103516, Control_c, 0, 64, 64
2,103531, Control_c, 0, 64, 65
2,103546, Control_c, 0, 64, 65
2,103561, Control_c, 0, 64, 66
2,103561, Note_on_c, 0, 46, 54
2,103577, Control_c, 0, 64, 67
2,103577, Note_on_c, 0, 44, 0
2,103593, Control_c, 0, 64, 68
2,103608, Control_c, 0, 64, 68
2,103624, Control_c, 0, 64, 69
2,103653, Control_c, 0, 64, 69
2,103669, Control_c, 0, 64, 70
2,103700, Control_c, 0, 64, 70
2,103726, Note_on_c, 0, 46, 0
2,103745, Control_c, 0, 64, 71
2,103758, Note_on_c, 0, 48, 58
2,103758, Note_on_c, 0, 77, 90
2,103761, Note_on_c, 0, 68, 76
2,103766, Note_on_c, 0, 72, 0
2,103770, Note_on_c, 0, 65, 69
2,103842, Note_on_c, 0, 68, 0
2,103846, Note_on_c, 0, 77, 0
2,103868, Control_c, 0, 64, 71
2,103957, Note_on_c, 0, 49, 68
2,103968, Note_on_c, 0, 65, 0
2,104001, Note_on_c, 0, 48, 0
2,104142, Control_c, 0, 64, 69
2,104157, Control_c, 0, 64, 62
2,104170, Note_on_c, 0, 72, 87
2,104172, Note_on_c, 0, 68, 64
2,104173, Control_c, 0, 64, 36
2,104179, Note_on_c, 0, 51, 66
2,104185, Note_on_c, 0, 63, 81
2,104187, Control_c, 0, 64, 0
2,104220, Note_on_c, 0, 49, 0
2,104285, Control_c, 0, 64, 32
2,104301, Control_c, 0, 64, 46
2,104316, Control_c, 0, 64, 51
2,104332, Control_c, 0, 64, 55
2,104347, Control_c, 0, 64, 58
2,104362, Control_c, 0, 64, 60
2,104378, Control_c, 0, 64, 62
2,104392, Control_c, 0, 64, 63
2,104407, Control_c, 0, 64, 64
2,104413, Note_on_c, 0, 49, 66
2,104438, Control_c, 0, 64, 64
2,104439, Note_on_c, 0, 51, 0
2,104484, Control_c, 0, 64, 65
2,104600, Note_on_c, 0, 48, 80
2,104614, Note_on_c, 0, 49, 0
2,104636, Control_c, 0, 64, 64
2,104726, Note_on_c, 0, 68, 0
2,104790, Note_on_c, 0, 49, 85
2,104799, Note_on_c, 0, 63, 0
2,104845, Note_on_c, 0, 48, 0
2,104954, Control_c, 0, 64, 63
2,104970, Control_c, 0, 64, 59
2,104985, Control_c, 0, 64, 44
2,105007, Control_c, 0, 64, 0
2,105020, Note_on_c, 0, 51, 80
2,105027, Note_on_c, 0, 70, 90
2,105038, Note_on_c, 0, 61, 74
2,105064, Note_on_c, 0, 49, 0
2,105079, Note_on_c, 0, 72, 0
2,105210, Control_c, 0, 64, 36
2,105225, Control_c, 0, 64, 47
2,105241, Control_c, 0, 64, 51
2,105256, Control_c, 0, 64, 53
2,105271, Control_c, 0, 64, 54
2,105287, Control_c, 0, 64, 56
2,105302, Control_c, 0, 64, 57
2,105318, Control_c, 0, 64, 58
2,105333, Control_c, 0, 64, 58
2,105347, Control_c, 0, 64, 59
2,105363, Control_c, 0, 64, 60
2,105378, Control_c, 0, 64, 60
2,105393, Control_c, 0, 64, 61
2,105439, Control_c, 0, 64, 60
2,105454, Control_c, 0, 64, 55
2,105468, Control_c, 0, 64, 34
2,105481, Control_c, 0, 64, 0
2,105495, Note_on_c, 0, 39, 74
2,105504, Note_on_c, 0, 67, 81
2,105603, Control_c, 0, 64, 39
2,105618, Control_c, 0, 64, 46
2,105633, Control_c, 0, 64, 50
2,105649, Control_c, 0, 64, 53
2,105664, Control_c, 0, 64, 57
2,105679, Control_c, 0, 64, 59
2,105695, Control_c, 0, 64, 60
2,105707, Note_on_c, 0, 51, 0
2,105710, Control_c, 0, 64, 61
2,105725, Control_c, 0, 64, 61
2,105740, Control_c, 0, 64, 62
2,105748, Note_on_c, 0, 67, 0
2,105755, Control_c, 0, 64, 63
2,105778, Control_c, 0, 64, 63
2,105869, Control_c, 0, 64, 64
2,105884, Control_c, 0, 64, 64
2,105914, Control_c, 0, 64, 65
2,105945, Control_c, 0, 64, 65
2,105945, Note_on_c, 0, 61, 0
2,105952, Note_on_c, 0, 39, 0
2,105982, Note_on_c, 0, 41, 67
2,105991, Control_c, 0, 64, 65
2,106013, Note_on_c, 0, 65, 83
2,106020, Note_on_c, 0, 60, 78
2,106021, Control_c, 0, 64, 64
2,106036, Control_c, 0, 64, 56
2,106052, Control_c, 0, 64, 0
2,106189, Control_c, 0, 64, 41
2,106189, Control_c, 0, 67, 8
2,106205, Control_c, 0, 64, 50
2,106205, Control_c, 0, 67, 11
2,106220, Control_c, 0, 64, 54
2,106220, Control_c, 0, 67, 14
2,106234, Control_c, 0, 64, 56
2,106234, Control_c, 0, 67, 18
2,106250, Control_c, 0, 64, 59
2,106250, Control_c, 0, 67, 21
2,106265, Control_c, 0, 64, 61
2,106265, Control_c, 0, 67, 24
2,106280, Control_c, 0, 64, 62
2,106280, Control_c, 0, 67, 27
2,106296, Control_c, 0, 64, 63
2,106296, Control_c, 0, 67, 29
2,106310, Control_c, 0, 67, 31
2,106326, Control_c, 0, 67, 32
2,106341, Control_c, 0, 64, 64
2,106341, Control_c, 0, 67, 33
2,106356, Control_c, 0, 67, 34
2,106372, Control_c, 0, 64, 64
2,106372, Control_c, 0, 67, 36
2,106386, Note_on_c, 0, 65, 0
2,106387, Control_c, 0, 67, 37
2,106403, Control_c, 0, 67, 37
2,106418, Control_c, 0, 67, 38
2,106474, Note_on_c, 0, 68, 86
2,106478, Control_c, 0, 67, 38
2,106563, Control_c, 0, 64, 65
2,106563, Control_c, 0, 67, 38
2,106570, Note_on_c, 0, 60, 0
2,106593, Control_c, 0, 64, 64
2,106593, Control_c, 0, 67, 37
2,106621, Note_on_c, 0, 41, 0
2,106623, Control_c, 0, 64, 64
2,106653, Control_c, 0, 64, 63
2,106653, Control_c, 0, 67, 37
2,106663, Note_on_c, 0, 67, 88
2,106666, Note_on_c, 0, 70, 0
2,106684, Control_c, 0, 64, 63
2,106699, Control_c, 0, 64, 62
2,106714, Control_c, 0, 64, 61
2,106729, Control_c, 0, 64, 60
2,106734, Note_on_c, 0, 68, 0
2,106744, Control_c, 0, 64, 59
2,106759, Control_c, 0, 64, 56
2,106774, Control_c, 0, 64, 52
2,106774, Control_c, 0, 67, 36
2,106789, Control_c, 0, 64, 49
2,106805, Control_c, 0, 64, 51
2,106820, Control_c, 0, 64, 54
2,106835, Control_c, 0, 64, 57
2,106835, Control_c, 0, 67, 36
2,106850, Control_c, 0, 64, 60
2,106862, Note_on_c, 0, 68, 90
2,106865, Control_c, 0, 64, 62
2,106865, Control_c, 0, 67, 35
2,106881, Control_c, 0, 64, 63
2,106881, Control_c, 0, 67, 35
2,106897, Control_c, 0, 64, 64
2,106897, Control_c, 0, 67, 34
2,106912, Control_c, 0, 64, 64
2,106912, Control_c, 0, 67, 33
2,106928, Control_c, 0, 67, 32
2,106943, Control_c, 0, 64, 65
2,106943, Control_c, 0, 67, 31
2,106954, Note_on_c, 0, 67, 0
2,106957, Control_c, 0, 67, 30
2,106973, Control_c, 0, 67, 30
2,106988, Control_c, 0, 64, 65
2,106988, Control_c, 0, 67, 29
2,107004, Control_c, 0, 67, 29
2,107019, Control_c, 0, 67, 28
2,107033, Control_c, 0, 67, 28
2,107051, Note_on_c, 0, 39, 72
2,107064, Control_c, 0, 67, 27
2,107075, Note_on_c, 0, 68, 0
2,107079, Control_c, 0, 67, 27
2,107095, Control_c, 0, 64, 66
2,107141, Control_c, 0, 67, 26
2,107171, Control_c, 0, 67, 26
2,107201, Control_c, 0, 67, 25
2,107262, Control_c, 0, 64, 65
2,107272, Note_on_c, 0, 70, 80
2,107273, Note_on_c, 0, 41, 71
2,107275, Note_on_c, 0, 75, 86
2,107276, Note_on_c, 0, 63, 80
2,107277, Control_c, 0, 64, 64
2,107292, Control_c, 0, 64, 58
2,107292, Control_c, 0, 67, 24
2,107314, Control_c, 0, 64, 26
2,107330, Control_c, 0, 64, 0
2,107330, Control_c, 0, 67, 23
2,107342, Note_on_c, 0, 39, 0
2,107376, Control_c, 0, 67, 23
2,107391, Control_c, 0, 64, 28
2,107391, Control_c, 0, 67, 22
2,107407, Control_c, 0, 64, 52
2,107421, Control_c, 0, 64, 57
2,107436, Control_c, 0, 64, 59
2,107436, Control_c, 0, 67, 22
2,107452, Control_c, 0, 64, 61
2,107453, Note_on_c, 0, 41, 0
2,107460, Note_on_c, 0, 43, 76
2,107467, Control_c, 0, 64, 62
2,107483, Control_c, 0, 64, 63
2,107497, Control_c, 0, 64, 64
2,107497, Control_c, 0, 67, 21
2,107528, Control_c, 0, 64, 65
2,107543, Control_c, 0, 64, 65
2,107558, Control_c, 0, 67, 21
2,107559, Note_on_c, 0, 70, 0
2,107573, Control_c, 0, 64, 66
2,107588, Control_c, 0, 67, 20
2,107604, Control_c, 0, 67, 20
2,107618, Control_c, 0, 67, 18
2,107633, Control_c, 0, 64, 65
2,107633, Control_c, 0, 67, 16
2,107649, Control_c, 0, 64, 64
2,107649, Control_c, 0, 67, 15
2,107664, Control_c, 0, 64, 60
2,107664, Control_c, 0, 67, 14
2,107672, Note_on_c, 0, 44, 84
2,107674, Note_on_c, 0, 72, 79
2,107679, Control_c, 0, 64, 38
2,107679, Control_c, 0, 67, 13
2,107696, Control_c, 0, 64, 0
2,107696, Control_c, 0, 67, 10
2,107696, Note_on_c, 0, 43, 0
2,107711, Control_c, 0, 67, 0
2,107787, Control_c, 0, 64, 41
2,107801, Control_c, 0, 64, 53
2,107817, Control_c, 0, 64, 58
2,107832, Control_c, 0, 64, 61
2,107847, Control_c, 0, 64, 62
2,107862, Control_c, 0, 64, 63
2,107868, Note_on_c, 0, 46, 85
2,107868, Note_on_c, 0, 63, 0
2,107877, Control_c, 0, 64, 63
2,107893, Control_c, 0, 64, 64
2,107908, Control_c, 0, 64, 64
2,107924, Control_c, 0, 64, 65
2,107939, Control_c, 0, 64, 65
2,107948, Note_on_c, 0, 44, 0
2,108034, Note_on_c, 0, 75, 0
2,108058, Control_c, 0, 64, 65
2,108064, Note_on_c, 0, 48, 80
2,108081, Note_on_c, 0, 46, 0
2,108087, Note_on_c, 0, 68, 95
2,108127, Note_on_c, 0, 72, 0
2,108248, Control_c, 0, 64, 65
2,108267, Note_on_c, 0, 51, 80
2,108315, Note_on_c, 0, 48, 0
2,108415, Control_c, 0, 64, 65
2,108430, Control_c, 0, 64, 64
2,108445, Control_c, 0, 64, 57
2,108460, Control_c, 0, 64, 22
2,108475, Control_c, 0, 64, 0
2,108475, Note_on_c, 0, 49, 66
2,108477, Note_on_c, 0, 77, 94
2,108510, Note_on_c, 0, 51, 0
2,108567, Control_c, 0, 64, 35
2,108583, Control_c, 0, 64, 50
2,108598, Control_c, 0, 64, 54
2,108599, Note_on_c, 0, 68, 0
2,108614, Control_c, 0, 64, 57
2,108629, Control_c, 0, 64, 59
2,108643, Control_c, 0, 64, 60
2,108659, Control_c, 0, 64, 61
2,108674, Control_c, 0, 64, 62
2,108681, Note_on_c, 0, 49, 0
2,108683, Note_on_c, 0, 48, 60
2,108687, Control_c, 0, 64, 63
2,108703, Control_c, 0, 64, 63
2,108718, Control_c, 0, 64, 64
2,108749, Control_c, 0, 64, 64
2,108763, Control_c, 0, 64, 65
2,108794, Control_c, 0, 64, 65
2,108863, Control_c, 0, 64, 64
2,108878, Control_c, 0, 64, 60
2,108894, Control_c, 0, 64, 45
2,108897, Note_on_c, 0, 73, 88
2,108900, Note_on_c, 0, 65, 78
2,108905, Note_on_c, 0, 70, 78
2,108908, Control_c, 0, 64, 0
2,108908, Note_on_c, 0, 46, 63
2,108909, Note_on_c, 0, 48, 0
2,108939, Note_on_c, 0, 77, 0
2,108970, Control_c, 0, 64, 43
2,108984, Control_c, 0, 64, 53
2,108999, Control_c, 0, 64, 57
2,109015, Control_c, 0, 64, 59
2,109030, Control_c, 0, 64, 61
2,109045, Control_c, 0, 64, 62
2,109060, Control_c, 0, 64, 62
2,109091, Control_c, 0, 64, 63
2,109105, Control_c, 0, 64, 63
2,109110, Note_on_c, 0, 44, 55
2,109127, Note_on_c, 0, 46, 0
2,109136, Control_c, 0, 64, 64
2,109166, Control_c, 0, 64, 64
2,109257, Control_c, 0, 64, 63
2,109272, Control_c, 0, 64, 58
2,109287, Control_c, 0, 64, 26
2,109296, Note_on_c, 0, 44, 0
2,109303, Control_c, 0, 64, 0
2,109317, Note_on_c, 0, 43, 56
2,109324, Note_on_c, 0, 75, 88
2,109341, Note_on_c, 0, 70, 0
2,109344, Note_on_c, 0, 73, 0
2,109395, Control_c, 0, 64, 41
2,109410, Control_c, 0, 64, 52
2,109425, Control_c, 0, 64, 55
2,109440, Control_c, 0, 64, 57
2,109457, Control_c, 0, 64, 59
2,109472, Control_c, 0, 64, 61
2,109486, Control_c, 0, 64, 63
2,109502, Control_c, 0, 64, 63
2,109517, Control_c, 0, 64, 64
2,109530, Note_on_c, 0, 41, 55
2,109533, Control_c, 0, 64, 64
2,109548, Control_c, 0, 64, 65
2,109562, Control_c, 0, 64, 65
2,109565, Note_on_c, 0, 43, 0
2,109578, Control_c, 0, 64, 66
2,109593, Control_c, 0, 64, 66
2,109616, Control_c, 0, 64, 67
2,109631, Control_c, 0, 64, 67
2,109646, Control_c, 0, 64, 68
2,109662, Control_c, 0, 67, 8
2,109677, Control_c, 0, 67, 9
2,109692, Control_c, 0, 64, 67
2,109692, Control_c, 0, 67, 10
2,109707, Control_c, 0, 64, 64
2,109707, Control_c, 0, 67, 12
2,109722, Control_c, 0, 64, 52
2,109722, Control_c, 0, 67, 14
2,109737, Control_c, 0, 64, 0
2,109737, Control_c, 0, 67, 16
2,109752, Control_c, 0, 67, 18
2,109758, Note_on_c, 0, 67, 77
2,109762, Note_on_c, 0, 39, 53
2,109767, Control_c, 0, 67, 22
2,109768, Note_on_c, 0, 41, 0
2,109783, Control_c, 0, 67, 26
2,109798, Control_c, 0, 67, 30
2,109813, Note_on_c, 0, 65, 0
2,109814, Control_c, 0, 64, 52
2,109814, Control_c, 0, 67, 35
2,109829, Control_c, 0, 64, 60
2,109829, Control_c, 0, 67, 39
2,109844, Control_c, 0, 64, 62
2,109844, Control_c, 0, 67, 42
2,109844, Note_on_c, 0, 75, 0
2,109860, Control_c, 0, 64, 63
2,109860, Control_c, 0, 67, 44
2,109874, Control_c, 0, 64, 64
2,109874, Control_c, 0, 67, 46
2,109890, Control_c, 0, 64, 64
2,109890, Control_c, 0, 67, 48
2,109905, Control_c, 0, 64, 65
2,109905, Control_c, 0, 67, 50
2,109920, Control_c, 0, 64, 66
2,109920, Control_c, 0, 67, 52
2,109936, Control_c, 0, 64, 67
2,109936, Control_c, 0, 67, 55
2,109942, Note_on_c, 0, 39, 0
2,109950, Control_c, 0, 64, 67
2,109950, Control_c, 0, 67, 58
2,109960, Note_on_c, 0, 37, 50
2,109965, Control_c, 0, 64, 68
2,109965, Control_c, 0, 67, 61
2,109981, Control_c, 0, 64, 69
2,109981, Control_c, 0, 67, 64
2,109993, Note_on_c, 0, 67, 0
2,109996, Control_c, 0, 64, 69
2,109996, Control_c, 0, 67, 65
2,110012, Control_c, 0, 67, 66
2,110026, Control_c, 0, 67, 67
2,110041, Control_c, 0, 64, 70
2,110041, Control_c, 0, 67, 68
2,110057, Control_c, 0, 67, 70
2,110071, Control_c, 0, 64, 70
2,110071, Control_c, 0, 67, 73
2,110086, Control_c, 0, 67, 76
2,110102, Control_c, 0, 67, 78
2,110117, Control_c, 0, 67, 79
2,110175, Note_on_c, 0, 37, 0
2,110179, Control_c, 0, 64, 69
2,110179, Control_c, 0, 67, 80
2,110194, Control_c, 0, 64, 65
2,110194, Control_c, 0, 67, 80
2,110204, Note_on_c, 0, 36, 50
2,110207, Note_on_c, 0, 68, 81
2,110210, Control_c, 0, 64, 54
2,110210, Control_c, 0, 67, 81
2,110225, Control_c, 0, 64, 13
2,110225, Control_c, 0, 67, 83
2,110240, Control_c, 0, 64, 0
2,110240, Control_c, 0, 67, 84
2,110285, Control_c, 0, 64, 13
2,110300, Control_c, 0, 64, 42
2,110315, Control_c, 0, 64, 51
2,110331, Control_c, 0, 64, 55
2,110346, Control_c, 0, 64, 58
2,110361, Control_c, 0, 64, 60
2,110384, Control_c, 0, 64, 61
2,110399, Control_c, 0, 64, 62
2,110415, Control_c, 0, 64, 62
2,110430, Control_c, 0, 64, 63
2,110430, Control_c, 0, 67, 83
2,110434, Note_on_c, 0, 39, 45
2,110445, Control_c, 0, 64, 63
2,110460, Control_c, 0, 64, 64
2,110491, Control_c, 0, 64, 64
2,110491, Control_c, 0, 67, 84
2,110500, Note_on_c, 0, 36, 0
2,110536, Control_c, 0, 64, 65
2,110596, Control_c, 0, 67, 84
2,110612, Control_c, 0, 64, 64
2,110612, Control_c, 0, 67, 85
2,110627, Control_c, 0, 67, 85
2,110642, Control_c, 0, 64, 63
2,110642, Control_c, 0, 67, 86
2,110658, Control_c, 0, 64, 57
2,110673, Control_c, 0, 64, 34
2,110673, Control_c, 0, 67, 88
2,110674, Note_on_c, 0, 39, 0
2,110682, Note_on_c, 0, 37, 45
2,110687, Control_c, 0, 64, 0
2,110687, Control_c, 0, 67, 91
2,110687, Note_on_c, 0, 58, 61
2,110687, Note_on_c, 0, 65, 71
2,110703, Control_c, 0, 67, 94
2,110718, Control_c, 0, 67, 97
2,110734, Control_c, 0, 67, 101
2,110749, Control_c, 0, 67, 105
2,110764, Control_c, 0, 67, 109
2,110780, Control_c, 0, 64, 27
2,110780, Control_c, 0, 67, 113
2,110794, Control_c, 0, 64, 48
2,110794, Control_c, 0, 67, 117
2,110810, Control_c, 0, 64, 53
2,110810, Control_c, 0, 67, 121
2,110825, Control_c, 0, 64, 57
2,110825, Control_c, 0, 67, 123
2,110840, Control_c, 0, 64, 60
2,110840, Control_c, 0, 67, 126
2,110856, Control_c, 0, 64, 62
2,110856, Control_c, 0, 67, 127
2,110870, Control_c, 0, 64, 63
2,110885, Control_c, 0, 64, 64
2,110901, Control_c, 0, 64, 65
2,110915, Control_c, 0, 64, 67
2,110931, Control_c, 0, 64, 68
2,110946, Control_c, 0, 64, 69
2,110946, Note_on_c, 0, 41, 52
2,110961, Control_c, 0, 64, 70
2,110972, Note_on_c, 0, 58, 0
2,110978, Control_c, 0, 64, 71
2,110983, Note_on_c, 0, 37, 0
2,110993, Control_c, 0, 64, 72
2,111008, Control_c, 0, 64, 72
2,111021, Note_on_c, 0, 41, 0
2,111023, Control_c, 0, 64, 73
2,111243, Control_c, 0, 64, 72
2,111259, Control_c, 0, 64, 71
2,111264, Note_on_c, 0, 39, 44
2,111274, Control_c, 0, 64, 69
2,111290, Control_c, 0, 64, 65
2,111298, Note_on_c, 0, 58, 74
2,111304, Control_c, 0, 64, 58
2,111319, Control_c, 0, 64, 31
2,111335, Control_c, 0, 64, 0
2,111367, Note_on_c, 0, 65, 0
2,111568, Note_on_c, 0, 60, 66
2,111619, Control_c, 0, 64, 18
2,111634, Control_c, 0, 64, 30
2,111649, Control_c, 0, 64, 39
2,111665, Control_c, 0, 64, 45
2,111678, Note_on_c, 0, 58, 0
2,111679, Control_c, 0, 64, 49
2,111694, Control_c, 0, 64, 52
2,111710, Control_c, 0, 64, 55
2,111725, Control_c, 0, 64, 57
2,111740, Control_c, 0, 64, 58
2,111754, Control_c, 0, 64, 59
2,111769, Control_c, 0, 64, 60
2,111786, Control_c, 0, 64, 61
2,111793, Note_on_c, 0, 61, 76
2,111801, Control_c, 0, 64, 61
2,111832, Control_c, 0, 64, 62
2,111877, Note_on_c, 0, 60, 0
2,111946, Note_on_c, 0, 68, 0
2,111961, Control_c, 0, 64, 62
2,111991, Control_c, 0, 64, 63
2,112037, Control_c, 0, 64, 63
2,112052, Control_c, 0, 67, 125
2,112056, Note_on_c, 0, 65, 81
2,112067, Control_c, 0, 67, 120
2,112082, Control_c, 0, 64, 64
2,112082, Control_c, 0, 67, 115
2,112097, Control_c, 0, 67, 109
2,112108, Note_on_c, 0, 61, 0
2,112113, Control_c, 0, 67, 102
2,112127, Control_c, 0, 64, 64
2,112127, Control_c, 0, 67, 94
2,112142, Control_c, 0, 67, 81
2,112158, Control_c, 0, 67, 68
2,112173, Control_c, 0, 67, 55
2,112189, Control_c, 0, 64, 65
2,112189, Control_c, 0, 67, 44
2,112203, Control_c, 0, 67, 37
2,112218, Control_c, 0, 67, 32
2,112234, Control_c, 0, 67, 29
2,112249, Control_c, 0, 67, 25
2,112265, Control_c, 0, 67, 22
2,112279, Control_c, 0, 67, 18
2,112294, Control_c, 0, 67, 15
2,112310, Control_c, 0, 67, 12
2,112325, Control_c, 0, 64, 64
2,112325, Control_c, 0, 67, 9
2,112340, Control_c, 0, 67, 8
2,112356, Control_c, 0, 64, 63
2,112356, Control_c, 0, 67, 8
2,112362, Note_on_c, 0, 51, 42
2,112371, Control_c, 0, 64, 62
2,112371, Control_c, 0, 67, 0
2,112380, Note_on_c, 0, 67, 83
2,112387, Control_c, 0, 64, 58
2,112389, Note_on_c, 0, 63, 68
2,112401, Control_c, 0, 64, 45
2,112412, Note_on_c, 0, 65, 0
2,112416, Control_c, 0, 64, 0
2,112462, Control_c, 0, 67, 8
2,112477, Control_c, 0, 67, 8
2,112492, Control_c, 0, 67, 9
2,112508, Control_c, 0, 67, 10
2,112522, Control_c, 0, 67, 10
2,112537, Control_c, 0, 67, 11
2,112546, Note_on_c, 0, 39, 0
2,112553, Control_c, 0, 67, 11
2,112568, Control_c, 0, 67, 12
2,112584, Control_c, 0, 67, 13
2,112600, Control_c, 0, 67, 13
2,112615, Control_c, 0, 67, 14
2,112630, Control_c, 0, 67, 15
2,112645, Control_c, 0, 67, 15
2,112660, Control_c, 0, 67, 16
2,112683, Control_c, 0, 67, 17
2,112698, Control_c, 0, 67, 18
2,112714, Control_c, 0, 67, 19
2,112729, Control_c, 0, 67, 19
2,112745, Control_c, 0, 67, 20
2,112759, Control_c, 0, 67, 21
2,112774, Control_c, 0, 67, 23
2,112781, Note_on_c, 0, 61, 67
2,112790, Control_c, 0, 67, 25
2,112805, Control_c, 0, 67, 26
2,112820, Control_c, 0, 67, 27
2,112835, Control_c, 0, 67, 28
2,112835, Note_on_c, 0, 63, 0
2,112850, Control_c, 0, 67, 29
2,112866, Control_c, 0, 67, 30
2,112881, Control_c, 0, 67, 32
2,112896, Control_c, 0, 67, 33
2,112911, Control_c, 0, 67, 35
2,112926, Control_c, 0, 67, 37
2,112941, Control_c, 0, 67, 38
2,112957, Control_c, 0, 67, 39
2,112971, Control_c, 0, 67, 40
2,112987, Control_c, 0, 67, 42
2,113002, Control_c, 0, 67, 44
2,113017, Control_c, 0, 67, 46
2,113033, Control_c, 0, 67, 49
2,113047, Control_c, 0, 67, 51
2,113062, Control_c, 0, 67, 52
2,113078, Control_c, 0, 67, 54
2,113093, Control_c, 0, 67, 54
2,113109, Control_c, 0, 67, 55
2,113123, Control_c, 0, 67, 57
2,113128, Note_on_c, 0, 60, 65
2,113138, Control_c, 0, 67, 59
2,113154, Control_c, 0, 67, 61
2,113168, Note_on_c, 0, 61, 0
2,113169, Control_c, 0, 67, 64
2,113185, Control_c, 0, 67, 65
2,113200, Control_c, 0, 67, 67
2,113215, Control_c, 0, 67, 68
2,113231, Control_c, 0, 67, 70
2,113245, Control_c, 0, 67, 71
2,113260, Control_c, 0, 67, 72
2,113276, Control_c, 0, 67, 73
2,113291, Control_c, 0, 67, 74
2,113307, Control_c, 0, 67, 77
2,113322, Control_c, 0, 67, 79
2,113337, Control_c, 0, 67, 81
2,113353, Control_c, 0, 67, 83
2,113367, Control_c, 0, 67, 84
2,113382, Control_c, 0, 67, 86
2,113398, Control_c, 0, 67, 87
2,113413, Control_c, 0, 67, 89
2,113429, Control_c, 0, 67, 90
2,113452, Control_c, 0, 67, 91
2,113468, Control_c, 0, 67, 92
2,113497, Control_c, 0, 67, 92
2,113513, Control_c, 0, 67, 93
2,113521, Note_on_c, 0, 61, 62
2,113532, Note_on_c, 0, 60, 0
2,113558, Control_c, 0, 67, 94
2,113589, Control_c, 0, 67, 94
2,113603, Control_c, 0, 67, 95
2,113618, Control_c, 0, 67, 97
2,113634, Control_c, 0, 67, 99
2,113649, Control_c, 0, 67, 100
2,113665, Control_c, 0, 67, 102
2,113680, Control_c, 0, 67, 104
2,113695, Control_c, 0, 67, 107
2,113711, Control_c, 0, 67, 110
2,113725, Control_c, 0, 67, 112
2,113740, Control_c, 0, 64, 31
2,113740, Control_c, 0, 67, 114
2,113756, Control_c, 0, 64, 49
2,113756, Control_c, 0, 67, 116
2,113771, Control_c, 0, 64, 54
2,113771, Control_c, 0, 67, 118
2,113787, Control_c, 0, 64, 57
2,113787, Control_c, 0, 67, 121
2,113802, Control_c, 0, 64, 61
2,113802, Control_c, 0, 67, 124
2,113816, Control_c, 0, 64, 63
2,113816, Control_c, 0, 67, 127
2,113832, Control_c, 0, 64, 65
2,113847, Control_c, 0, 64, 66
2,113862, Control_c, 0, 64, 68
2,113878, Control_c, 0, 64, 70
2,113892, Control_c, 0, 64, 72
2,113908, Control_c, 0, 64, 74
2,113923, Control_c, 0, 64, 75
2,113938, Control_c, 0, 64, 77
2,113942, Note_on_c, 0, 67, 0
2,113948, Note_on_c, 0, 51, 0
2,113954, Control_c, 0, 64, 78
2,113968, Control_c, 0, 64, 79
2,113984, Control_c, 0, 64, 79
2,113999, Control_c, 0, 64, 80
2,114275, Note_on_c, 0, 68, 72
2,114286, Note_on_c, 0, 44, 37
2,114289, Note_on_c, 0, 60, 53
2,114293, Note_on_c, 0, 51, 31
2,114294, Control_c, 0, 64, 79
2,114309, Control_c, 0, 64, 77
2,114323, Note_on_c, 0, 61, 0
2,114324, Control_c, 0, 64, 73
2,114339, Control_c, 0, 64, 67
2,114355, Control_c, 0, 64, 46
2,114369, Control_c, 0, 64, 0
2,115772, Control_c, 0, 64, 37
2,115785, Control_c, 0, 64, 50
2,115800, Control_c, 0, 64, 55
2,115816, Control_c, 0, 64, 59
2,115831, Control_c, 0, 64, 60
2,115848, Control_c, 0, 64, 62
2,115863, Control_c, 0, 64, 63
2,115878, Control_c, 0, 64, 64
2,115893, Control_c, 0, 64, 64
2,115908, Control_c, 0, 64, 65
2,115924, Control_c, 0, 64, 66
2,115939, Control_c, 0, 64, 66
2,115954, Control_c, 0, 64, 67
2,115969, Control_c, 0, 64, 67
2,115984, Control_c, 0, 64, 68
2,115999, Control_c, 0, 64, 68
2,115999, Control_c, 0, 67, 126
2,116014, Control_c, 0, 64, 69
2,116014, Control_c, 0, 67, 123
2,116029, Control_c, 0, 67, 119
2,116045, Control_c, 0, 64, 69
2,116045, Control_c, 0, 67, 115
2,116060, Control_c, 0, 64, 70
2,116060, Control_c, 0, 67, 111
2,116075, Control_c, 0, 64, 70
2,116075, Control_c, 0, 67, 106
2,116090, Control_c, 0, 64, 71
2,116090, Control_c, 0, 67, 102
2,116105, Control_c, 0, 67, 97
2,116120, Control_c, 0, 64, 71
2,116120, Control_c, 0, 67, 93
2,116136, Control_c, 0, 67, 89
2,116151, Control_c, 0, 64, 72
2,116151, Control_c, 0, 67, 85
2,116167, Control_c, 0, 64, 72
2,116167, Control_c, 0, 67, 81
2,116182, Control_c, 0, 67, 78
2,116197, Control_c, 0, 64, 73
2,116197, Control_c, 0, 67, 73
2,116211, Control_c, 0, 64, 73
2,116211, Control_c, 0, 67, 69
2,116225, Control_c, 0, 67, 65
2,116240, Control_c, 0, 64, 74
2,116240, Control_c, 0, 67, 62
2,116256, Control_c, 0, 64, 74
2,116256, Control_c, 0, 67, 60
2,116271, Control_c, 0, 64, 75
2,116271, Control_c, 0, 67, 58
2,116285, Control_c, 0, 64, 75
2,116285, Control_c, 0, 67, 56
2,116301, Control_c, 0, 67, 54
2,116317, Control_c, 0, 64, 76
2,116317, Control_c, 0, 67, 51
2,116333, Control_c, 0, 64, 77
2,116333, Control_c, 0, 67, 48
2,116347, Control_c, 0, 67, 46
2,116362, Control_c, 0, 64, 77
2,116362, Control_c, 0, 67, 44
2,116378, Control_c, 0, 67, 41
2,116380, Note_on_c, 0, 51, 0
2,116389, Note_on_c, 0, 44, 0
2,116393, Control_c, 0, 67, 39
2,116408, Control_c, 0, 67, 37
2,116423, Control_c, 0, 67, 35
2,116438, Control_c, 0, 67, 33
2,116454, Control_c, 0, 67, 32
2,116476, Control_c, 0, 67, 30
2,116492, Control_c, 0, 67, 29
2,116507, Control_c, 0, 67, 28
2,116522, Control_c, 0, 67, 27
2,116538, Control_c, 0, 67, 26
2,116552, Control_c, 0, 67, 25
2,116567, Control_c, 0, 67, 24
2,116583, Control_c, 0, 67, 23
2,116589, Note_on_c, 0, 60, 0
2,116598, Control_c, 0, 67, 23
2,116614, Control_c, 0, 67, 22
2,116626, Note_on_c, 0, 68, 0
2,116628, Control_c, 0, 67, 22
2,116660, Control_c, 0, 67, 21
2,116675, Control_c, 0, 67, 21
2,116782, Control_c, 0, 64, 77
2,116797, Control_c, 0, 67, 20
2,116857, Control_c, 0, 64, 76
2,117039, Control_c, 0, 67, 20
2,117055, Control_c, 0, 64, 76
2,117365, Control_c, 0, 64, 75
2,117488, Control_c, 0, 64, 75
2,117611, Control_c, 0, 64, 74
2,117716, Control_c, 0, 64, 74
2,117823, Control_c, 0, 64, 73
2,117899, Control_c, 0, 64, 73
2,117944, Control_c, 0, 64, 72
2,117975, Control_c, 0, 64, 72
2,118013, Control_c, 0, 64, 71
2,118058, Control_c, 0, 64, 71
2,118104, Control_c, 0, 64, 70
2,118149, Control_c, 0, 64, 70
2,118194, Control_c, 0, 64, 69
2,118225, Control_c, 0, 64, 69
2,118240, Control_c, 0, 64, 68
2,118256, Control_c, 0, 64, 68
2,118286, Control_c, 0, 64, 67
2,118317, Control_c, 0, 64, 67
2,118333, Control_c, 0, 64, 66
2,118347, Control_c, 0, 64, 66
2,118362, Control_c, 0, 64, 65
2,118378, Control_c, 0, 64, 65
2,118393, Control_c, 0, 64, 64
2,118408, Control_c, 0, 64, 64
2,118439, Control_c, 0, 64, 63
2,118455, Control_c, 0, 64, 62
2,118469, Control_c, 0, 64, 60
2,118484, Control_c, 0, 64, 59
2,118500, Control_c, 0, 64, 59
2,118515, Control_c, 0, 64, 58
2,118531, Control_c, 0, 64, 56
2,118545, Control_c, 0, 64, 54
2,118560, Control_c, 0, 64, 51
2,118576, Control_c, 0, 64, 46
2,118591, Control_c, 0, 64, 43
2,118605, Control_c, 0, 64, 38
2,118621, Control_c, 0, 64, 30
2,118636, Control_c, 0, 64, 24
2,118652, Control_c, 0, 64, 13
2,118667, Control_c, 0, 64, 0
2,118668, End_track
0, 0, End_of_file
