0, 0, Header, 1, 2, 384
1, 0, Start_track
1, 0, Tempo, 500000
1, 0, Time_signature, 4, 2, 24, 8
1, 1, End_track
2, 0, Start_track
2, 0, Title_t," ""Song04-07.MID"""
2, 0, Program_c, 0, 0
2, 0, Control_c, 0, 64, 0
2, 802, Control_c, 0, 64, 56
2, 818, Control_c, 0, 64, 63
2, 833, Control_c, 0, 64, 66
2, 835, Note_on_c, 0, 56, 67
2, 835, Note_on_c, 0, 63, 90
2, 837, Note_on_c, 0, 60, 67
2, 848, Control_c, 0, 64, 69
2, 864, Control_c, 0, 64, 71
2, 878, Control_c, 0, 64, 73
2, 894, Control_c, 0, 64, 75
2, 909, Control_c, 0, 64, 76
2, 924, Control_c, 0, 64, 78
2, 940, Control_c, 0, 64, 80
2, 954, Control_c, 0, 64, 81
2, 969, Control_c, 0, 64, 82
2, 991, Note_on_c, 0, 60, 0
2, 998, Note_on_c, 0, 56, 0
2, 998, Note_on_c, 0, 63, 0
2, 999, Control_c, 0, 64, 82
2, 1062, Control_c, 0, 64, 83
2, 1106, Note_on_c, 0, 68, 81
2, 1194, Note_on_c, 0, 67, 89
2, 1206, Control_c, 0, 64, 82
2, 1217, Note_on_c, 0, 68, 0
2, 1222, Control_c, 0, 64, 78
2, 1236, Control_c, 0, 64, 69
2, 1251, Control_c, 0, 64, 39
2, 1267, Control_c, 0, 64, 0
2, 1293, Note_on_c, 0, 67, 0
2, 1294, Note_on_c, 0, 68, 72
2, 1317, Note_on_c, 0, 68, 0
2, 1520, Note_on_c, 0, 72, 72
2, 1565, Note_on_c, 0, 72, 0
2, 1742, Note_on_c, 0, 63, 74
2, 1831, Note_on_c, 0, 63, 0
2, 1958, Note_on_c, 0, 68, 80
2, 1986, Note_on_c, 0, 68, 0
2, 2191, Note_on_c, 0, 63, 93
2, 2192, Note_on_c, 0, 55, 77
2, 2195, Note_on_c, 0, 58, 74
2, 2277, Control_c, 0, 64, 30
2, 2293, Control_c, 0, 64, 44
2, 2308, Control_c, 0, 64, 49
2, 2323, Control_c, 0, 64, 52
2, 2339, Control_c, 0, 64, 53
2, 2354, Control_c, 0, 64, 54
2, 2399, Control_c, 0, 64, 53
2, 2411, Note_on_c, 0, 55, 0
2, 2415, Control_c, 0, 64, 52
2, 2423, Note_on_c, 0, 63, 0
2, 2427, Note_on_c, 0, 70, 82
2, 2430, Control_c, 0, 64, 50
2, 2440, Note_on_c, 0, 58, 0
2, 2445, Control_c, 0, 64, 46
2, 2461, Control_c, 0, 64, 39
2, 2476, Control_c, 0, 64, 19
2, 2491, Control_c, 0, 64, 0
2, 2509, Note_on_c, 0, 68, 90
2, 2524, Note_on_c, 0, 70, 0
2, 2595, Note_on_c, 0, 70, 85
2, 2602, Note_on_c, 0, 68, 0
2, 2657, Note_on_c, 0, 70, 0
2, 2825, Note_on_c, 0, 73, 78
2, 2862, Note_on_c, 0, 73, 0
2, 3023, Note_on_c, 0, 63, 65
2, 3055, Note_on_c, 0, 63, 0
2, 3214, Control_c, 0, 67, 8
2, 3229, Control_c, 0, 67, 9
2, 3239, Note_on_c, 0, 70, 70
2, 3244, Control_c, 0, 67, 10
2, 3258, Control_c, 0, 67, 12
2, 3273, Control_c, 0, 67, 13
2, 3281, Note_on_c, 0, 70, 0
2, 3304, Control_c, 0, 67, 13
2, 3395, Control_c, 0, 64, 47
2, 3395, Control_c, 0, 67, 13
2, 3418, Control_c, 0, 64, 60
2, 3433, Control_c, 0, 64, 63
2, 3448, Control_c, 0, 64, 66
2, 3458, Note_on_c, 0, 72, 75
2, 3463, Control_c, 0, 64, 68
2, 3478, Control_c, 0, 64, 70
2, 3485, Note_on_c, 0, 72, 0
2, 3495, Control_c, 0, 64, 73
2, 3495, Control_c, 0, 67, 12
2, 3509, Control_c, 0, 64, 75
2, 3524, Control_c, 0, 64, 76
2, 3540, Control_c, 0, 64, 77
2, 3540, Control_c, 0, 67, 12
2, 3555, Control_c, 0, 64, 78
2, 3570, Control_c, 0, 64, 78
2, 3678, Note_on_c, 0, 56, 71
2, 3750, Note_on_c, 0, 56, 0
2, 3752, Note_on_c, 0, 55, 66
2, 3783, Control_c, 0, 64, 78
2, 3798, Control_c, 0, 64, 77
2, 3813, Control_c, 0, 64, 75
2, 3813, Control_c, 0, 67, 11
2, 3828, Control_c, 0, 64, 73
2, 3843, Control_c, 0, 64, 68
2, 3850, Note_on_c, 0, 55, 0
2, 3859, Control_c, 0, 64, 63
2, 3859, Note_on_c, 0, 75, 58
2, 3861, Note_on_c, 0, 56, 67
2, 3862, Note_on_c, 0, 80, 93
2, 3866, Note_on_c, 0, 72, 75
2, 3874, Control_c, 0, 64, 48
2, 3874, Control_c, 0, 67, 11
2, 3888, Control_c, 0, 64, 0
2, 3888, Note_on_c, 0, 56, 0
2, 3950, Control_c, 0, 67, 10
2, 4093, Note_on_c, 0, 60, 59
2, 4111, Note_on_c, 0, 75, 0
2, 4121, Note_on_c, 0, 60, 0
2, 4277, Control_c, 0, 67, 11
2, 4294, Note_on_c, 0, 72, 0
2, 4309, Control_c, 0, 67, 11
2, 4313, Note_on_c, 0, 51, 65
2, 4350, Note_on_c, 0, 51, 0
2, 4490, Control_c, 0, 67, 11
2, 4500, Note_on_c, 0, 75, 77
2, 4504, Note_on_c, 0, 56, 64
2, 4506, Note_on_c, 0, 72, 67
2, 4509, Note_on_c, 0, 80, 0
2, 4527, Note_on_c, 0, 72, 0
2, 4530, Note_on_c, 0, 56, 0
2, 4530, Note_on_c, 0, 75, 0
2, 4628, Control_c, 0, 67, 10
2, 4658, Control_c, 0, 67, 10
2, 4688, Control_c, 0, 67, 9
2, 4704, Control_c, 0, 64, 16
2, 4719, Control_c, 0, 64, 61
2, 4719, Control_c, 0, 67, 10
2, 4723, Note_on_c, 0, 73, 82
2, 4724, Note_on_c, 0, 70, 82
2, 4734, Control_c, 0, 64, 65
2, 4747, Note_on_c, 0, 70, 0
2, 4749, Control_c, 0, 64, 67
2, 4749, Control_c, 0, 67, 10
2, 4759, Note_on_c, 0, 73, 0
2, 4764, Control_c, 0, 64, 69
2, 4780, Control_c, 0, 64, 70
2, 4795, Control_c, 0, 64, 71
2, 4809, Control_c, 0, 64, 72
2, 4825, Control_c, 0, 64, 73
2, 4901, Control_c, 0, 64, 73
2, 4931, Control_c, 0, 67, 10
2, 4966, Note_on_c, 0, 58, 75
2, 5016, Control_c, 0, 67, 9
2, 5038, Note_on_c, 0, 56, 76
2, 5040, Note_on_c, 0, 58, 0
2, 5045, Control_c, 0, 67, 9
2, 5061, Control_c, 0, 64, 73
2, 5061, Control_c, 0, 67, 8
2, 5075, Control_c, 0, 64, 72
2, 5090, Control_c, 0, 64, 71
2, 5106, Control_c, 0, 64, 69
2, 5122, Control_c, 0, 64, 66
2, 5122, Control_c, 0, 67, 8
2, 5138, Control_c, 0, 64, 63
2, 5139, Note_on_c, 0, 56, 0
2, 5149, Note_on_c, 0, 58, 76
2, 5155, Control_c, 0, 64, 57
2, 5159, Note_on_c, 0, 79, 94
2, 5170, Control_c, 0, 64, 50
2, 5170, Control_c, 0, 67, 0
2, 5181, Note_on_c, 0, 58, 0
2, 5185, Control_c, 0, 64, 38
2, 5200, Control_c, 0, 64, 0
2, 5247, Control_c, 0, 67, 8
2, 5352, Control_c, 0, 67, 8
2, 5392, Note_on_c, 0, 61, 70
2, 5429, Note_on_c, 0, 61, 0
2, 5567, Control_c, 0, 67, 8
2, 5582, Note_on_c, 0, 51, 67
2, 5631, Note_on_c, 0, 51, 0
2, 5642, Control_c, 0, 67, 8
2, 5673, Note_on_c, 0, 79, 0
2, 5791, Note_on_c, 0, 79, 77
2, 5797, Note_on_c, 0, 58, 66
2, 5803, Note_on_c, 0, 70, 65
2, 5821, Note_on_c, 0, 79, 0
2, 5823, Note_on_c, 0, 73, 33
2, 5825, Note_on_c, 0, 70, 0
2, 5826, Note_on_c, 0, 58, 0
2, 5857, Note_on_c, 0, 73, 0
2, 5970, Control_c, 0, 67, 8
2, 6023, Note_on_c, 0, 80, 93
2, 6026, Note_on_c, 0, 68, 84
2, 6030, Control_c, 0, 64, 61
2, 6030, Control_c, 0, 67, 8
2, 6034, Note_on_c, 0, 75, 71
2, 6046, Control_c, 0, 64, 75
2, 6052, Note_on_c, 0, 68, 0
2, 6061, Control_c, 0, 64, 83
2, 6066, Note_on_c, 0, 75, 0
2, 6068, Note_on_c, 0, 80, 0
2, 6076, Control_c, 0, 64, 91
2, 6092, Control_c, 0, 64, 93
2, 6106, Control_c, 0, 64, 94
2, 6121, Control_c, 0, 64, 95
2, 6137, Control_c, 0, 64, 95
2, 6137, Control_c, 0, 67, 8
2, 6242, Control_c, 0, 64, 95
2, 6258, Control_c, 0, 67, 0
2, 6262, Note_on_c, 0, 60, 72
2, 6339, Note_on_c, 0, 58, 71
2, 6342, Note_on_c, 0, 60, 0
2, 6380, Control_c, 0, 64, 94
2, 6394, Control_c, 0, 64, 93
2, 6410, Control_c, 0, 64, 92
2, 6425, Control_c, 0, 64, 90
2, 6426, Note_on_c, 0, 58, 0
2, 6434, Note_on_c, 0, 75, 97
2, 6440, Control_c, 0, 64, 87
2, 6447, Note_on_c, 0, 60, 64
2, 6456, Control_c, 0, 64, 84
2, 6456, Control_c, 0, 67, 8
2, 6471, Control_c, 0, 64, 80
2, 6471, Control_c, 0, 67, 0
2, 6487, Note_on_c, 0, 60, 0
2, 6493, Control_c, 0, 64, 75
2, 6508, Control_c, 0, 64, 70
2, 6523, Control_c, 0, 64, 62
2, 6539, Control_c, 0, 64, 22
2, 6554, Control_c, 0, 64, 0
2, 6682, Note_on_c, 0, 63, 63
2, 6721, Note_on_c, 0, 63, 0
2, 6768, Control_c, 0, 67, 8
2, 6829, Control_c, 0, 67, 0
2, 6896, Note_on_c, 0, 56, 58
2, 6939, Note_on_c, 0, 56, 0
2, 6997, Note_on_c, 0, 75, 0
2, 7086, Note_on_c, 0, 60, 51
2, 7086, Note_on_c, 0, 75, 72
2, 7091, Note_on_c, 0, 70, 55
2, 7110, Note_on_c, 0, 60, 0
2, 7110, Note_on_c, 0, 70, 0
2, 7122, Note_on_c, 0, 75, 0
2, 7261, Control_c, 0, 67, 8
2, 7306, Control_c, 0, 64, 60
2, 7312, Note_on_c, 0, 53, 58
2, 7321, Control_c, 0, 64, 64
2, 7321, Control_c, 0, 67, 8
2, 7321, Note_on_c, 0, 75, 67
2, 7324, Note_on_c, 0, 68, 55
2, 7337, Control_c, 0, 64, 65
2, 7351, Control_c, 0, 64, 69
2, 7367, Control_c, 0, 64, 72
2, 7370, Note_on_c, 0, 68, 0
2, 7382, Control_c, 0, 64, 75
2, 7397, Control_c, 0, 64, 76
2, 7401, Note_on_c, 0, 75, 0
2, 7404, Note_on_c, 0, 53, 0
2, 7413, Control_c, 0, 64, 77
2, 7519, Control_c, 0, 67, 8
2, 7559, Note_on_c, 0, 80, 71
2, 7564, Control_c, 0, 64, 76
2, 7564, Control_c, 0, 67, 0
2, 7596, Control_c, 0, 64, 76
2, 7612, Control_c, 0, 64, 74
2, 7627, Control_c, 0, 64, 73
2, 7640, Note_on_c, 0, 79, 71
2, 7641, Control_c, 0, 64, 70
2, 7648, Note_on_c, 0, 80, 0
2, 7657, Control_c, 0, 64, 67
2, 7672, Control_c, 0, 64, 63
2, 7688, Control_c, 0, 64, 56
2, 7703, Control_c, 0, 64, 42
2, 7713, Note_on_c, 0, 65, 70
2, 7717, Control_c, 0, 64, 0
2, 7734, Note_on_c, 0, 79, 0
2, 7740, Note_on_c, 0, 80, 76
2, 7899, Note_on_c, 0, 80, 0
2, 7939, Note_on_c, 0, 65, 0
2, 7943, Note_on_c, 0, 77, 74
2, 7986, Note_on_c, 0, 77, 0
2, 8171, Note_on_c, 0, 72, 70
2, 8207, Note_on_c, 0, 72, 0
2, 8374, Note_on_c, 0, 75, 68
2, 8403, Note_on_c, 0, 75, 0
2, 8593, Note_on_c, 0, 73, 76
2, 8599, Note_on_c, 0, 70, 67
2, 8843, Note_on_c, 0, 58, 68
2, 8917, Note_on_c, 0, 58, 0
2, 8920, Note_on_c, 0, 56, 76
2, 8998, Note_on_c, 0, 70, 0
2, 9021, Note_on_c, 0, 58, 78
2, 9022, Note_on_c, 0, 56, 0
2, 9027, Note_on_c, 0, 80, 83
2, 9035, Note_on_c, 0, 73, 0
2, 9070, Note_on_c, 0, 58, 0
2, 9256, Note_on_c, 0, 61, 75
2, 9299, Note_on_c, 0, 61, 0
2, 9458, Note_on_c, 0, 55, 66
2, 9510, Note_on_c, 0, 55, 0
2, 9595, Control_c, 0, 67, 8
2, 9657, Control_c, 0, 67, 8
2, 9664, Note_on_c, 0, 68, 71
2, 9666, Note_on_c, 0, 58, 68
2, 9672, Note_on_c, 0, 73, 65
2, 9683, Note_on_c, 0, 80, 0
2, 9688, Control_c, 0, 67, 9
2, 9692, Note_on_c, 0, 68, 0
2, 9695, Note_on_c, 0, 58, 0
2, 9703, Control_c, 0, 67, 9
2, 9704, Note_on_c, 0, 73, 0
2, 9733, Control_c, 0, 67, 10
2, 9748, Control_c, 0, 67, 10
2, 9869, Control_c, 0, 67, 11
2, 9884, Control_c, 0, 64, 37
2, 9884, Control_c, 0, 67, 11
2, 9888, Note_on_c, 0, 51, 79
2, 9900, Control_c, 0, 64, 53
2, 9900, Control_c, 0, 67, 12
2, 9901, Note_on_c, 0, 67, 63
2, 9902, Note_on_c, 0, 73, 70
2, 9914, Control_c, 0, 64, 61
2, 9914, Note_on_c, 0, 51, 0
2, 9919, Note_on_c, 0, 67, 0
2, 9930, Control_c, 0, 64, 65
2, 9935, Note_on_c, 0, 73, 0
2, 9945, Control_c, 0, 64, 67
2, 9960, Control_c, 0, 64, 69
2, 9976, Control_c, 0, 64, 70
2, 9976, Control_c, 0, 67, 12
2, 9990, Control_c, 0, 64, 72
2, 9990, Control_c, 0, 67, 13
2, 10006, Control_c, 0, 64, 73
2, 10021, Control_c, 0, 64, 75
2, 10021, Control_c, 0, 67, 13
2, 10037, Control_c, 0, 64, 76
2, 10053, Control_c, 0, 64, 77
2, 10068, Control_c, 0, 64, 78
2, 10098, Control_c, 0, 67, 13
2, 10131, Note_on_c, 0, 82, 76
2, 10189, Control_c, 0, 64, 77
2, 10201, Note_on_c, 0, 82, 0
2, 10204, Control_c, 0, 64, 77
2, 10204, Note_on_c, 0, 80, 82
2, 10220, Control_c, 0, 64, 75
2, 10234, Control_c, 0, 64, 73
2, 10250, Control_c, 0, 64, 70
2, 10265, Control_c, 0, 64, 65
2, 10280, Control_c, 0, 64, 57
2, 10296, Control_c, 0, 64, 39
2, 10303, Note_on_c, 0, 63, 93
2, 10303, Note_on_c, 0, 82, 85
2, 10310, Note_on_c, 0, 80, 0
2, 10311, Control_c, 0, 64, 0
2, 10477, Note_on_c, 0, 82, 0
2, 10486, Control_c, 0, 67, 13
2, 10516, Control_c, 0, 67, 14
2, 10544, Note_on_c, 0, 79, 78
2, 10561, Control_c, 0, 67, 14
2, 10583, Note_on_c, 0, 79, 0
2, 10589, Note_on_c, 0, 63, 0
2, 10608, Control_c, 0, 67, 14
2, 10699, Control_c, 0, 67, 13
2, 10713, Control_c, 0, 67, 13
2, 10748, Note_on_c, 0, 73, 71
2, 10783, Note_on_c, 0, 73, 0
2, 10789, Control_c, 0, 67, 12
2, 10866, Control_c, 0, 67, 12
2, 10935, Note_on_c, 0, 82, 78
2, 10946, Note_on_c, 0, 73, 63
2, 10947, Note_on_c, 0, 67, 52
2, 10956, Control_c, 0, 67, 12
2, 10969, Note_on_c, 0, 73, 0
2, 10971, Note_on_c, 0, 67, 0
2, 10971, Note_on_c, 0, 82, 0
2, 11032, Control_c, 0, 67, 13
2, 11182, Note_on_c, 0, 72, 72
2, 11185, Note_on_c, 0, 68, 58
2, 11345, Control_c, 0, 67, 12
2, 11375, Control_c, 0, 67, 12
2, 11419, Note_on_c, 0, 56, 68
2, 11466, Control_c, 0, 67, 11
2, 11473, Note_on_c, 0, 72, 0
2, 11491, Note_on_c, 0, 56, 0
2, 11494, Note_on_c, 0, 68, 0
2, 11501, Note_on_c, 0, 55, 66
2, 11527, Control_c, 0, 67, 11
2, 11592, Note_on_c, 0, 56, 82
2, 11598, Note_on_c, 0, 55, 0
2, 11626, Note_on_c, 0, 56, 0
2, 11648, Control_c, 0, 67, 11
2, 11720, Note_on_c, 0, 75, 59
2, 11785, Control_c, 0, 67, 11
2, 11798, Note_on_c, 0, 75, 0
2, 11803, Note_on_c, 0, 60, 61
2, 11816, Control_c, 0, 67, 10
2, 11824, Note_on_c, 0, 77, 60
2, 11825, Note_on_c, 0, 60, 0
2, 11917, Note_on_c, 0, 79, 67
2, 11942, Note_on_c, 0, 77, 0
2, 11984, Note_on_c, 0, 79, 0
2, 11990, Control_c, 0, 67, 11
2, 12009, Note_on_c, 0, 53, 58
2, 12012, Note_on_c, 0, 80, 73
2, 12021, Control_c, 0, 67, 11
2, 12048, Note_on_c, 0, 53, 0
2, 12116, Note_on_c, 0, 77, 63
2, 12120, Note_on_c, 0, 80, 0
2, 12188, Control_c, 0, 67, 12
2, 12209, Note_on_c, 0, 56, 55
2, 12213, Note_on_c, 0, 77, 0
2, 12216, Note_on_c, 0, 74, 60
2, 12239, Note_on_c, 0, 56, 0
2, 12306, Note_on_c, 0, 77, 61
2, 12311, Note_on_c, 0, 74, 0
2, 12355, Control_c, 0, 67, 11
2, 12388, Note_on_c, 0, 77, 0
2, 12406, Note_on_c, 0, 50, 57
2, 12416, Control_c, 0, 64, 45
2, 12416, Control_c, 0, 67, 12
2, 12418, Note_on_c, 0, 70, 73
2, 12431, Control_c, 0, 64, 0
2, 12431, Control_c, 0, 67, 12
2, 12436, Note_on_c, 0, 50, 0
2, 12461, Control_c, 0, 67, 12
2, 12524, Control_c, 0, 67, 11
2, 12637, Control_c, 0, 67, 11
2, 12643, Note_on_c, 0, 55, 72
2, 12653, Control_c, 0, 67, 10
2, 12730, Note_on_c, 0, 53, 74
2, 12733, Note_on_c, 0, 55, 0
2, 12757, Note_on_c, 0, 70, 0
2, 12759, Control_c, 0, 67, 10
2, 12775, Control_c, 0, 67, 9
2, 12830, Note_on_c, 0, 53, 0
2, 12832, Note_on_c, 0, 55, 82
2, 12866, Control_c, 0, 67, 10
2, 12882, Note_on_c, 0, 55, 0
2, 12938, Note_on_c, 0, 74, 61
2, 12972, Control_c, 0, 67, 10
2, 13001, Note_on_c, 0, 74, 0
2, 13035, Note_on_c, 0, 75, 66
2, 13036, Note_on_c, 0, 58, 55
2, 13063, Note_on_c, 0, 58, 0
2, 13103, Note_on_c, 0, 75, 0
2, 13122, Note_on_c, 0, 77, 69
2, 13225, Note_on_c, 0, 51, 53
2, 13231, Note_on_c, 0, 77, 0
2, 13237, Note_on_c, 0, 79, 64
2, 13260, Note_on_c, 0, 51, 0
2, 13327, Note_on_c, 0, 75, 63
2, 13347, Note_on_c, 0, 79, 0
2, 13431, Note_on_c, 0, 75, 0
2, 13436, Note_on_c, 0, 55, 52
2, 13437, Note_on_c, 0, 72, 67
2, 13481, Note_on_c, 0, 55, 0
2, 13525, Note_on_c, 0, 72, 0
2, 13537, Note_on_c, 0, 75, 63
2, 13568, Note_on_c, 0, 75, 0
2, 13631, Note_on_c, 0, 48, 58
2, 13634, Control_c, 0, 67, 11
2, 13643, Note_on_c, 0, 68, 77
2, 13664, Control_c, 0, 67, 11
2, 13671, Note_on_c, 0, 48, 0
2, 13710, Control_c, 0, 67, 11
2, 13736, Note_on_c, 0, 70, 68
2, 13745, Note_on_c, 0, 68, 0
2, 13786, Control_c, 0, 67, 11
2, 13802, Note_on_c, 0, 70, 0
2, 13833, Note_on_c, 0, 53, 65
2, 13836, Note_on_c, 0, 67, 71
2, 13921, Note_on_c, 0, 53, 0
2, 13922, Note_on_c, 0, 67, 0
2, 13930, Note_on_c, 0, 70, 72
2, 13931, Note_on_c, 0, 51, 67
2, 13952, Control_c, 0, 67, 11
2, 13984, Note_on_c, 0, 70, 0
2, 13999, Note_on_c, 0, 51, 0
2, 14035, Note_on_c, 0, 53, 79
2, 14038, Note_on_c, 0, 68, 74
2, 14077, Note_on_c, 0, 53, 0
2, 14110, Note_on_c, 0, 68, 0
2, 14146, Note_on_c, 0, 72, 65
2, 14221, Note_on_c, 0, 72, 0
2, 14244, Note_on_c, 0, 74, 64
2, 14248, Note_on_c, 0, 56, 53
2, 14273, Note_on_c, 0, 56, 0
2, 14334, Note_on_c, 0, 75, 67
2, 14349, Note_on_c, 0, 74, 0
2, 14372, Control_c, 0, 67, 10
2, 14441, Note_on_c, 0, 50, 58
2, 14448, Note_on_c, 0, 77, 63
2, 14459, Note_on_c, 0, 75, 0
2, 14478, Note_on_c, 0, 50, 0
2, 14543, Note_on_c, 0, 74, 68
2, 14563, Note_on_c, 0, 77, 0
2, 14603, Note_on_c, 0, 74, 0
2, 14641, Note_on_c, 0, 53, 65
2, 14650, Note_on_c, 0, 70, 68
2, 14660, Control_c, 0, 67, 10
2, 14676, Note_on_c, 0, 53, 0
2, 14736, Control_c, 0, 67, 9
2, 14738, Note_on_c, 0, 70, 0
2, 14747, Note_on_c, 0, 74, 65
2, 14800, Note_on_c, 0, 74, 0
2, 14827, Control_c, 0, 67, 9
2, 14840, Note_on_c, 0, 46, 64
2, 14850, Note_on_c, 0, 67, 69
2, 14873, Control_c, 0, 67, 8
2, 14893, Note_on_c, 0, 46, 0
2, 14949, Note_on_c, 0, 68, 70
2, 14950, Note_on_c, 0, 67, 0
2, 15015, Note_on_c, 0, 68, 0
2, 15043, Note_on_c, 0, 51, 74
2, 15047, Note_on_c, 0, 65, 76
2, 15099, Note_on_c, 0, 51, 0
2, 15132, Note_on_c, 0, 50, 66
2, 15134, Note_on_c, 0, 65, 0
2, 15134, Note_on_c, 0, 68, 78
2, 15197, Note_on_c, 0, 68, 0
2, 15215, Note_on_c, 0, 51, 77
2, 15221, Note_on_c, 0, 50, 0
2, 15230, Control_c, 0, 67, 9
2, 15239, Note_on_c, 0, 67, 78
2, 15251, Note_on_c, 0, 51, 0
2, 15307, Control_c, 0, 67, 9
2, 15331, Note_on_c, 0, 70, 72
2, 15345, Note_on_c, 0, 67, 0
2, 15427, Note_on_c, 0, 70, 0
2, 15431, Note_on_c, 0, 72, 69
2, 15438, Note_on_c, 0, 55, 55
2, 15461, Note_on_c, 0, 55, 0
2, 15510, Note_on_c, 0, 74, 67
2, 15519, Control_c, 0, 67, 10
2, 15549, Note_on_c, 0, 72, 0
2, 15580, Control_c, 0, 67, 10
2, 15600, Note_on_c, 0, 74, 0
2, 15616, Note_on_c, 0, 75, 71
2, 15626, Note_on_c, 0, 48, 58
2, 15673, Note_on_c, 0, 48, 0
2, 15725, Note_on_c, 0, 72, 60
2, 15739, Note_on_c, 0, 75, 0
2, 15815, Note_on_c, 0, 72, 0
2, 15823, Note_on_c, 0, 68, 66
2, 15836, Note_on_c, 0, 51, 49
2, 15871, Note_on_c, 0, 51, 0
2, 15903, Note_on_c, 0, 68, 0
2, 15921, Note_on_c, 0, 72, 65
2, 15990, Note_on_c, 0, 72, 0
2, 16031, Note_on_c, 0, 44, 64
2, 16031, Note_on_c, 0, 65, 74
2, 16075, Note_on_c, 0, 44, 0
2, 16095, Note_on_c, 0, 65, 0
2, 16139, Note_on_c, 0, 75, 66
2, 16223, Note_on_c, 0, 75, 0
2, 16228, Note_on_c, 0, 53, 63
2, 16234, Note_on_c, 0, 74, 65
2, 16312, Note_on_c, 0, 53, 0
2, 16331, Note_on_c, 0, 51, 63
2, 16331, Note_on_c, 0, 75, 73
2, 16336, Note_on_c, 0, 74, 0
2, 16347, Control_c, 0, 67, 10
2, 16415, Note_on_c, 0, 75, 0
2, 16425, Note_on_c, 0, 51, 0
2, 16426, Note_on_c, 0, 68, 92
2, 16429, Note_on_c, 0, 53, 75
2, 16480, Note_on_c, 0, 53, 0
2, 16501, Note_on_c, 0, 68, 0
2, 16537, Note_on_c, 0, 75, 67
2, 16613, Note_on_c, 0, 75, 0
2, 16641, Note_on_c, 0, 74, 63
2, 16650, Note_on_c, 0, 56, 65
2, 16675, Control_c, 0, 67, 9
2, 16685, Note_on_c, 0, 56, 0
2, 16729, Note_on_c, 0, 74, 0
2, 16731, Note_on_c, 0, 75, 70
2, 16814, Note_on_c, 0, 75, 0
2, 16842, Note_on_c, 0, 65, 75
2, 16848, Note_on_c, 0, 50, 59
2, 16892, Note_on_c, 0, 50, 0
2, 16914, Note_on_c, 0, 65, 0
2, 16948, Note_on_c, 0, 75, 61
2, 17010, Note_on_c, 0, 75, 0
2, 17050, Note_on_c, 0, 53, 63
2, 17056, Note_on_c, 0, 74, 59
2, 17092, Note_on_c, 0, 53, 0
2, 17141, Note_on_c, 0, 75, 67
2, 17144, Note_on_c, 0, 74, 0
2, 17243, Note_on_c, 0, 75, 0
2, 17261, Note_on_c, 0, 46, 63
2, 17263, Note_on_c, 0, 67, 77
2, 17309, Note_on_c, 0, 46, 0
2, 17342, Note_on_c, 0, 67, 0
2, 17367, Note_on_c, 0, 75, 66
2, 17440, Note_on_c, 0, 75, 0
2, 17472, Note_on_c, 0, 74, 69
2, 17477, Note_on_c, 0, 55, 66
2, 17551, Note_on_c, 0, 55, 0
2, 17560, Note_on_c, 0, 75, 79
2, 17562, Note_on_c, 0, 53, 68
2, 17574, Note_on_c, 0, 74, 0
2, 17652, Note_on_c, 0, 75, 0
2, 17653, Note_on_c, 0, 53, 0
2, 17655, Note_on_c, 0, 70, 90
2, 17659, Note_on_c, 0, 55, 75
2, 17701, Note_on_c, 0, 55, 0
2, 17714, Note_on_c, 0, 70, 0
2, 17750, Note_on_c, 0, 75, 69
2, 17821, Note_on_c, 0, 75, 0
2, 17860, Note_on_c, 0, 74, 63
2, 17866, Note_on_c, 0, 58, 62
2, 17891, Note_on_c, 0, 58, 0
2, 17947, Note_on_c, 0, 75, 68
2, 17959, Note_on_c, 0, 74, 0
2, 18025, Note_on_c, 0, 75, 0
2, 18027, Control_c, 0, 67, 9
2, 18057, Note_on_c, 0, 67, 75
2, 18063, Note_on_c, 0, 51, 49
2, 18113, Note_on_c, 0, 51, 0
2, 18128, Note_on_c, 0, 67, 0
2, 18160, Note_on_c, 0, 75, 64
2, 18236, Note_on_c, 0, 75, 0
2, 18265, Note_on_c, 0, 55, 52
2, 18269, Note_on_c, 0, 74, 63
2, 18311, Note_on_c, 0, 55, 0
2, 18343, Note_on_c, 0, 74, 0
2, 18360, Note_on_c, 0, 75, 69
2, 18431, Note_on_c, 0, 75, 0
2, 18452, Note_on_c, 0, 48, 61
2, 18453, Note_on_c, 0, 68, 84
2, 18481, Note_on_c, 0, 48, 0
2, 18483, Control_c, 0, 67, 9
2, 18524, Note_on_c, 0, 68, 0
2, 18551, Note_on_c, 0, 75, 72
2, 18624, Note_on_c, 0, 75, 0
2, 18655, Note_on_c, 0, 74, 63
2, 18668, Note_on_c, 0, 56, 71
2, 18712, Control_c, 0, 67, 9
2, 18721, Note_on_c, 0, 56, 0
2, 18744, Note_on_c, 0, 55, 62
2, 18744, Note_on_c, 0, 75, 72
2, 18780, Note_on_c, 0, 74, 0
2, 18844, Note_on_c, 0, 75, 0
2, 18847, Note_on_c, 0, 72, 79
2, 18848, Note_on_c, 0, 56, 83
2, 18851, Note_on_c, 0, 55, 0
2, 18875, Note_on_c, 0, 56, 0
2, 18911, Note_on_c, 0, 72, 0
2, 18917, Control_c, 0, 67, 9
2, 18951, Note_on_c, 0, 75, 74
2, 19034, Note_on_c, 0, 75, 0
2, 19061, Note_on_c, 0, 70, 70
2, 19069, Note_on_c, 0, 60, 52
2, 19090, Note_on_c, 0, 60, 0
2, 19122, Note_on_c, 0, 70, 0
2, 19163, Note_on_c, 0, 75, 67
2, 19204, Note_on_c, 0, 75, 0
2, 19254, Note_on_c, 0, 53, 55
2, 19259, Note_on_c, 0, 68, 69
2, 19295, Note_on_c, 0, 53, 0
2, 19297, Note_on_c, 0, 68, 0
2, 19350, Note_on_c, 0, 75, 68
2, 19412, Note_on_c, 0, 75, 0
2, 19449, Note_on_c, 0, 56, 57
2, 19450, Control_c, 0, 67, 9
2, 19458, Note_on_c, 0, 67, 66
2, 19483, Note_on_c, 0, 56, 0
2, 19496, Control_c, 0, 67, 8
2, 19512, Note_on_c, 0, 67, 0
2, 19552, Note_on_c, 0, 75, 64
2, 19633, Note_on_c, 0, 75, 0
2, 19664, Note_on_c, 0, 50, 54
2, 19664, Note_on_c, 0, 65, 65
2, 19670, Control_c, 0, 67, 8
2, 19708, Note_on_c, 0, 50, 0
2, 19728, Note_on_c, 0, 65, 0
2, 19768, Note_on_c, 0, 75, 64
2, 19825, Note_on_c, 0, 75, 0
2, 19847, Note_on_c, 0, 53, 52
2, 19861, Note_on_c, 0, 67, 68
2, 19904, Note_on_c, 0, 53, 0
2, 19930, Note_on_c, 0, 67, 0
2, 19955, Note_on_c, 0, 75, 68
2, 20005, Note_on_c, 0, 75, 0
2, 20049, Note_on_c, 0, 68, 78
2, 20058, Note_on_c, 0, 46, 65
2, 20103, Note_on_c, 0, 46, 0
2, 20134, Note_on_c, 0, 68, 0
2, 20152, Note_on_c, 0, 74, 65
2, 20233, Note_on_c, 0, 75, 70
2, 20240, Note_on_c, 0, 50, 65
2, 20243, Note_on_c, 0, 74, 0
2, 20280, Note_on_c, 0, 50, 0
2, 20342, Note_on_c, 0, 75, 0
2, 20346, Note_on_c, 0, 77, 71
2, 20394, Note_on_c, 0, 77, 0
2, 20442, Note_on_c, 0, 51, 72
2, 20451, Note_on_c, 0, 67, 66
2, 20487, Note_on_c, 0, 51, 0
2, 20531, Note_on_c, 0, 70, 67
2, 20541, Note_on_c, 0, 67, 0
2, 20581, Note_on_c, 0, 70, 0
2, 20633, Note_on_c, 0, 48, 68
2, 20638, Note_on_c, 0, 68, 72
2, 20659, Note_on_c, 0, 48, 0
2, 20715, Note_on_c, 0, 68, 0
2, 20727, Note_on_c, 0, 72, 68
2, 20767, Note_on_c, 0, 72, 0
2, 20828, Note_on_c, 0, 70, 73
2, 20834, Note_on_c, 0, 43, 86
2, 20874, Note_on_c, 0, 43, 0
2, 20921, Note_on_c, 0, 75, 69
2, 20925, Note_on_c, 0, 70, 0
2, 21009, Note_on_c, 0, 75, 0
2, 21036, Note_on_c, 0, 41, 86
2, 21038, Note_on_c, 0, 74, 61
2, 21084, Note_on_c, 0, 41, 0
2, 21105, Note_on_c, 0, 74, 0
2, 21138, Note_on_c, 0, 72, 70
2, 21242, Note_on_c, 0, 72, 0
2, 21244, Note_on_c, 0, 43, 88
2, 21254, Note_on_c, 0, 70, 69
2, 21281, Note_on_c, 0, 43, 0
2, 21343, Note_on_c, 0, 70, 0
2, 21348, Note_on_c, 0, 68, 73
2, 21439, Note_on_c, 0, 44, 94
2, 21457, Note_on_c, 0, 70, 70
2, 21473, Note_on_c, 0, 68, 0
2, 21487, Note_on_c, 0, 44, 0
2, 21527, Control_c, 0, 67, 0
2, 21530, Note_on_c, 0, 70, 0
2, 21533, Note_on_c, 0, 72, 58
2, 21565, Note_on_c, 0, 72, 0
2, 21667, Note_on_c, 0, 65, 68
2, 21671, Note_on_c, 0, 46, 88
2, 21681, Note_on_c, 0, 62, 50
2, 21709, Note_on_c, 0, 65, 0
2, 21715, Note_on_c, 0, 67, 76
2, 21749, Note_on_c, 0, 65, 60
2, 21783, Note_on_c, 0, 67, 0
2, 21998, Note_on_c, 0, 46, 0
2, 22025, Note_on_c, 0, 63, 70
2, 22037, Note_on_c, 0, 65, 0
2, 22052, Note_on_c, 0, 62, 0
2, 22055, Note_on_c, 0, 63, 0
2, 22102, Note_on_c, 0, 63, 89
2, 22110, Control_c, 0, 64, 13
2, 22125, Control_c, 0, 64, 51
2, 22141, Control_c, 0, 64, 63
2, 22155, Control_c, 0, 64, 65
2, 22163, Note_on_c, 0, 63, 0
2, 22171, Control_c, 0, 64, 67
2, 22186, Control_c, 0, 64, 69
2, 22201, Control_c, 0, 64, 71
2, 22217, Control_c, 0, 64, 73
2, 22232, Control_c, 0, 64, 74
2, 22327, Note_on_c, 0, 51, 72
2, 22370, Control_c, 0, 64, 73
2, 22394, Note_on_c, 0, 51, 0
2, 22399, Control_c, 0, 64, 73
2, 22404, Note_on_c, 0, 50, 63
2, 22430, Control_c, 0, 64, 72
2, 22445, Control_c, 0, 64, 71
2, 22461, Control_c, 0, 64, 70
2, 22476, Control_c, 0, 64, 68
2, 22492, Control_c, 0, 64, 65
2, 22503, Note_on_c, 0, 50, 0
2, 22507, Control_c, 0, 64, 63
2, 22515, Note_on_c, 0, 70, 73
2, 22517, Note_on_c, 0, 75, 89
2, 22518, Note_on_c, 0, 67, 79
2, 22522, Control_c, 0, 64, 60
2, 22523, Note_on_c, 0, 51, 64
2, 22538, Control_c, 0, 64, 56
2, 22553, Control_c, 0, 64, 51
2, 22568, Control_c, 0, 64, 43
2, 22583, Control_c, 0, 64, 32
2, 22597, Note_on_c, 0, 51, 0
2, 22598, Control_c, 0, 64, 0
2, 22751, Note_on_c, 0, 55, 54
2, 22797, Note_on_c, 0, 55, 0
2, 22812, Note_on_c, 0, 70, 0
2, 22959, Note_on_c, 0, 46, 65
2, 22999, Note_on_c, 0, 46, 0
2, 23036, Note_on_c, 0, 67, 0
2, 23162, Note_on_c, 0, 70, 75
2, 23169, Note_on_c, 0, 51, 42
2, 23171, Note_on_c, 0, 67, 62
2, 23175, Note_on_c, 0, 75, 0
2, 23192, Note_on_c, 0, 67, 0
2, 23192, Note_on_c, 0, 70, 0
2, 23198, Note_on_c, 0, 51, 0
2, 23363, Control_c, 0, 64, 39
2, 23384, Note_on_c, 0, 68, 89
2, 23385, Note_on_c, 0, 65, 82
2, 23387, Control_c, 0, 64, 52
2, 23402, Control_c, 0, 64, 57
2, 23418, Control_c, 0, 64, 61
2, 23425, Note_on_c, 0, 65, 0
2, 23432, Control_c, 0, 64, 64
2, 23447, Control_c, 0, 64, 66
2, 23455, Note_on_c, 0, 68, 0
2, 23463, Control_c, 0, 64, 67
2, 23477, Control_c, 0, 64, 68
2, 23492, Control_c, 0, 64, 69
2, 23508, Control_c, 0, 64, 70
2, 23523, Control_c, 0, 64, 71
2, 23539, Control_c, 0, 64, 71
2, 23554, Control_c, 0, 64, 72
2, 23568, Control_c, 0, 64, 72
2, 23624, Note_on_c, 0, 53, 77
2, 23708, Note_on_c, 0, 53, 0
2, 23709, Note_on_c, 0, 51, 71
2, 23737, Control_c, 0, 64, 71
2, 23752, Control_c, 0, 64, 70
2, 23766, Control_c, 0, 64, 68
2, 23782, Control_c, 0, 64, 66
2, 23794, Note_on_c, 0, 74, 94
2, 23795, Note_on_c, 0, 51, 0
2, 23797, Control_c, 0, 64, 63
2, 23804, Note_on_c, 0, 53, 69
2, 23811, Control_c, 0, 64, 60
2, 23827, Control_c, 0, 64, 57
2, 23842, Control_c, 0, 64, 52
2, 23844, Note_on_c, 0, 53, 0
2, 23858, Control_c, 0, 64, 46
2, 23873, Control_c, 0, 64, 37
2, 23887, Control_c, 0, 64, 22
2, 23903, Control_c, 0, 64, 0
2, 24031, Note_on_c, 0, 56, 66
2, 24068, Note_on_c, 0, 56, 0
2, 24242, Note_on_c, 0, 46, 70
2, 24286, Note_on_c, 0, 46, 0
2, 24325, Note_on_c, 0, 74, 0
2, 24337, Control_c, 0, 67, 8
2, 24438, Note_on_c, 0, 74, 81
2, 24440, Note_on_c, 0, 53, 60
2, 24450, Note_on_c, 0, 65, 63
2, 24457, Note_on_c, 0, 68, 47
2, 24470, Note_on_c, 0, 53, 0
2, 24474, Note_on_c, 0, 65, 0
2, 24477, Note_on_c, 0, 74, 0
2, 24483, Note_on_c, 0, 68, 0
2, 24596, Control_c, 0, 67, 8
2, 24656, Control_c, 0, 67, 9
2, 24667, Note_on_c, 0, 55, 67
2, 24667, Note_on_c, 0, 70, 84
2, 24669, Note_on_c, 0, 63, 88
2, 24669, Note_on_c, 0, 75, 89
2, 24671, Control_c, 0, 67, 9
2, 24686, Control_c, 0, 64, 72
2, 24686, Control_c, 0, 67, 10
2, 24702, Control_c, 0, 64, 75
2, 24702, Control_c, 0, 67, 11
2, 24706, Note_on_c, 0, 55, 0
2, 24717, Control_c, 0, 64, 78
2, 24717, Control_c, 0, 67, 12
2, 24731, Control_c, 0, 64, 79
2, 24736, Note_on_c, 0, 70, 0
2, 24743, Note_on_c, 0, 75, 0
2, 24747, Control_c, 0, 64, 79
2, 24762, Control_c, 0, 64, 80
2, 24825, Control_c, 0, 64, 79
2, 24825, Control_c, 0, 67, 12
2, 24828, Note_on_c, 0, 63, 0
2, 24839, Control_c, 0, 67, 13
2, 24855, Control_c, 0, 64, 78
2, 24855, Control_c, 0, 67, 14
2, 24870, Control_c, 0, 64, 77
2, 24870, Control_c, 0, 67, 15
2, 24884, Control_c, 0, 64, 74
2, 24900, Control_c, 0, 64, 70
2, 24900, Control_c, 0, 67, 15
2, 24902, Note_on_c, 0, 63, 68
2, 24923, Control_c, 0, 64, 66
2, 24923, Control_c, 0, 67, 16
2, 24939, Control_c, 0, 64, 62
2, 24939, Control_c, 0, 67, 19
2, 24954, Control_c, 0, 64, 57
2, 24954, Control_c, 0, 67, 22
2, 24965, Note_on_c, 0, 63, 0
2, 24968, Control_c, 0, 64, 51
2, 24968, Control_c, 0, 67, 25
2, 24984, Control_c, 0, 64, 33
2, 24984, Control_c, 0, 67, 28
2, 24993, Note_on_c, 0, 62, 73
2, 24999, Control_c, 0, 64, 0
2, 24999, Control_c, 0, 67, 31
2, 25015, Control_c, 0, 67, 34
2, 25030, Control_c, 0, 67, 36
2, 25034, Note_on_c, 0, 62, 0
2, 25044, Control_c, 0, 67, 37
2, 25075, Control_c, 0, 67, 38
2, 25088, Note_on_c, 0, 63, 72
2, 25089, Control_c, 0, 67, 40
2, 25105, Control_c, 0, 67, 44
2, 25120, Control_c, 0, 67, 49
2, 25121, Note_on_c, 0, 63, 0
2, 25136, Control_c, 0, 67, 52
2, 25151, Control_c, 0, 67, 55
2, 25165, Control_c, 0, 67, 57
2, 25181, Control_c, 0, 67, 57
2, 25196, Control_c, 0, 67, 58
2, 25211, Control_c, 0, 67, 59
2, 25227, Control_c, 0, 67, 62
2, 25241, Control_c, 0, 67, 66
2, 25257, Control_c, 0, 67, 69
2, 25272, Control_c, 0, 67, 72
2, 25287, Control_c, 0, 67, 74
2, 25292, Note_on_c, 0, 51, 59
2, 25294, Note_on_c, 0, 67, 66
2, 25302, Control_c, 0, 67, 77
2, 25317, Control_c, 0, 67, 79
2, 25332, Control_c, 0, 67, 85
2, 25348, Control_c, 0, 67, 93
2, 25362, Note_on_c, 0, 67, 0
2, 25363, Control_c, 0, 67, 100
2, 25379, Control_c, 0, 67, 106
2, 25393, Note_on_c, 0, 53, 59
2, 25394, Control_c, 0, 67, 109
2, 25409, Control_c, 0, 67, 112
2, 25425, Control_c, 0, 67, 113
2, 25434, Note_on_c, 0, 51, 0
2, 25439, Control_c, 0, 67, 114
2, 25455, Control_c, 0, 67, 114
2, 25470, Control_c, 0, 67, 115
2, 25485, Control_c, 0, 67, 116
2, 25488, Note_on_c, 0, 58, 66
2, 25495, Note_on_c, 0, 53, 0
2, 25495, Note_on_c, 0, 55, 65
2, 25500, Control_c, 0, 67, 118
2, 25515, Control_c, 0, 67, 121
2, 25526, Note_on_c, 0, 58, 0
2, 25531, Control_c, 0, 67, 123
2, 25547, Control_c, 0, 67, 126
2, 25562, Control_c, 0, 67, 127
2, 25586, Note_on_c, 0, 55, 0
2, 25592, Note_on_c, 0, 53, 59
2, 25681, Note_on_c, 0, 53, 0
2, 25700, Note_on_c, 0, 63, 68
2, 25703, Note_on_c, 0, 55, 68
2, 25743, Note_on_c, 0, 63, 0
2, 25766, Note_on_c, 0, 55, 0
2, 25784, Note_on_c, 0, 51, 60
2, 25887, Note_on_c, 0, 51, 0
2, 25915, Note_on_c, 0, 58, 74
2, 26116, Note_on_c, 0, 58, 0
2, 26119, Note_on_c, 0, 46, 63
2, 26139, Note_on_c, 0, 65, 61
2, 26161, Note_on_c, 0, 46, 0
2, 26221, Note_on_c, 0, 63, 68
2, 26226, Note_on_c, 0, 65, 0
2, 26317, Note_on_c, 0, 63, 0
2, 26325, Note_on_c, 0, 65, 67
2, 26357, Note_on_c, 0, 65, 0
2, 26540, Note_on_c, 0, 68, 70
2, 26549, Note_on_c, 0, 46, 63
2, 26578, Note_on_c, 0, 68, 0
2, 26647, Note_on_c, 0, 48, 59
2, 26666, Note_on_c, 0, 46, 0
2, 26734, Note_on_c, 0, 48, 0
2, 26745, Note_on_c, 0, 50, 68
2, 26745, Note_on_c, 0, 58, 56
2, 26797, Note_on_c, 0, 58, 0
2, 26834, Note_on_c, 0, 50, 0
2, 26848, Note_on_c, 0, 48, 61
2, 26944, Note_on_c, 0, 48, 0
2, 26961, Note_on_c, 0, 50, 60
2, 26965, Note_on_c, 0, 65, 77
2, 26991, Note_on_c, 0, 65, 0
2, 27035, Note_on_c, 0, 50, 0
2, 27047, Note_on_c, 0, 46, 60
2, 27140, Note_on_c, 0, 46, 0
2, 27177, Note_on_c, 0, 51, 77
2, 27186, Note_on_c, 0, 67, 98
2, 27203, Control_c, 0, 64, 67
2, 27226, Control_c, 0, 64, 67
2, 27242, Control_c, 0, 64, 68
2, 27303, Control_c, 0, 64, 67
2, 27318, Control_c, 0, 64, 66
2, 27334, Control_c, 0, 64, 64
2, 27348, Control_c, 0, 64, 63
2, 27379, Control_c, 0, 64, 63
2, 27387, Note_on_c, 0, 51, 0
2, 27394, Control_c, 0, 64, 62
2, 27407, Note_on_c, 0, 39, 62
2, 27409, Control_c, 0, 64, 61
2, 27418, Note_on_c, 0, 70, 83
2, 27424, Control_c, 0, 64, 58
2, 27432, Note_on_c, 0, 39, 0
2, 27436, Note_on_c, 0, 67, 0
2, 27439, Control_c, 0, 64, 54
2, 27455, Control_c, 0, 64, 50
2, 27470, Control_c, 0, 64, 48
2, 27485, Control_c, 0, 64, 46
2, 27498, Note_on_c, 0, 70, 0
2, 27501, Control_c, 0, 64, 42
2, 27501, Note_on_c, 0, 68, 83
2, 27516, Control_c, 0, 64, 36
2, 27530, Control_c, 0, 64, 25
2, 27546, Control_c, 0, 64, 0
2, 27592, Note_on_c, 0, 70, 82
2, 27595, Note_on_c, 0, 68, 0
2, 27622, Note_on_c, 0, 70, 0
2, 27812, Note_on_c, 0, 75, 75
2, 27816, Note_on_c, 0, 61, 55
2, 27846, Note_on_c, 0, 75, 0
2, 27866, Note_on_c, 0, 61, 0
2, 27918, Note_on_c, 0, 60, 57
2, 28001, Note_on_c, 0, 60, 0
2, 28032, Note_on_c, 0, 67, 67
2, 28035, Note_on_c, 0, 58, 66
2, 28079, Note_on_c, 0, 67, 0
2, 28081, Note_on_c, 0, 58, 0
2, 28135, Note_on_c, 0, 60, 56
2, 28206, Note_on_c, 0, 60, 0
2, 28229, Note_on_c, 0, 56, 64
2, 28236, Note_on_c, 0, 70, 69
2, 28267, Note_on_c, 0, 70, 0
2, 28302, Note_on_c, 0, 56, 0
2, 28336, Note_on_c, 0, 58, 62
2, 28445, Note_on_c, 0, 58, 0
2, 28459, Note_on_c, 0, 63, 88
2, 28464, Note_on_c, 0, 55, 60
2, 28527, Note_on_c, 0, 55, 0
2, 28570, Note_on_c, 0, 56, 58
2, 28629, Note_on_c, 0, 63, 0
2, 28656, Note_on_c, 0, 56, 0
2, 28680, Note_on_c, 0, 67, 74
2, 28683, Note_on_c, 0, 53, 60
2, 28726, Note_on_c, 0, 53, 0
2, 28772, Note_on_c, 0, 65, 79
2, 28785, Note_on_c, 0, 67, 0
2, 28786, Note_on_c, 0, 55, 58
2, 28858, Note_on_c, 0, 55, 0
2, 28858, Note_on_c, 0, 65, 0
2, 28877, Note_on_c, 0, 67, 79
2, 28885, Note_on_c, 0, 51, 67
2, 28913, Note_on_c, 0, 67, 0
2, 28928, Note_on_c, 0, 51, 0
2, 28982, Note_on_c, 0, 53, 56
2, 29062, Note_on_c, 0, 53, 0
2, 29080, Note_on_c, 0, 70, 78
2, 29082, Note_on_c, 0, 49, 61
2, 29118, Note_on_c, 0, 70, 0
2, 29136, Note_on_c, 0, 49, 0
2, 29180, Note_on_c, 0, 51, 55
2, 29237, Note_on_c, 0, 51, 0
2, 29288, Note_on_c, 0, 63, 77
2, 29291, Note_on_c, 0, 48, 60
2, 29328, Note_on_c, 0, 63, 0
2, 29356, Note_on_c, 0, 48, 0
2, 29408, Note_on_c, 0, 49, 51
2, 29487, Note_on_c, 0, 49, 0
2, 29490, Note_on_c, 0, 67, 69
2, 29510, Note_on_c, 0, 46, 63
2, 29536, Note_on_c, 0, 67, 0
2, 29556, Note_on_c, 0, 46, 0
2, 29599, Note_on_c, 0, 48, 59
2, 29686, Note_on_c, 0, 48, 0
2, 29697, Note_on_c, 0, 44, 81
2, 29699, Control_c, 0, 64, 43
2, 29714, Control_c, 0, 64, 66
2, 29716, Note_on_c, 0, 60, 69
2, 29723, Note_on_c, 0, 44, 0
2, 29729, Control_c, 0, 64, 65
2, 29745, Control_c, 0, 64, 66
2, 29759, Control_c, 0, 64, 68
2, 29775, Control_c, 0, 64, 69
2, 29790, Control_c, 0, 64, 69
2, 29820, Control_c, 0, 64, 68
2, 29835, Control_c, 0, 64, 68
2, 29862, Note_on_c, 0, 60, 0
2, 29880, Control_c, 0, 64, 67
2, 29896, Control_c, 0, 64, 66
2, 29911, Control_c, 0, 64, 65
2, 29926, Control_c, 0, 64, 64
2, 29937, Note_on_c, 0, 63, 73
2, 29942, Control_c, 0, 64, 63
2, 29956, Control_c, 0, 64, 62
2, 29971, Control_c, 0, 64, 61
2, 29987, Control_c, 0, 64, 59
2, 30001, Control_c, 0, 64, 57
2, 30017, Control_c, 0, 64, 54
2, 30023, Note_on_c, 0, 61, 79
2, 30028, Note_on_c, 0, 63, 0
2, 30032, Control_c, 0, 64, 51
2, 30047, Control_c, 0, 64, 46
2, 30063, Control_c, 0, 64, 43
2, 30078, Control_c, 0, 64, 40
2, 30092, Control_c, 0, 64, 35
2, 30108, Control_c, 0, 64, 28
2, 30123, Control_c, 0, 64, 19
2, 30129, Note_on_c, 0, 63, 80
2, 30134, Note_on_c, 0, 61, 0
2, 30139, Control_c, 0, 64, 0
2, 30160, Note_on_c, 0, 63, 0
2, 30355, Note_on_c, 0, 78, 65
2, 30362, Note_on_c, 0, 68, 40
2, 30391, Note_on_c, 0, 68, 0
2, 30417, Note_on_c, 0, 78, 0
2, 30457, Note_on_c, 0, 77, 64
2, 30514, Note_on_c, 0, 77, 0
2, 30541, Note_on_c, 0, 60, 49
2, 30561, Note_on_c, 0, 75, 60
2, 30603, Control_c, 0, 67, 124
2, 30609, Note_on_c, 0, 60, 0
2, 30619, Control_c, 0, 67, 121
2, 30634, Control_c, 0, 67, 116
2, 30640, Note_on_c, 0, 75, 0
2, 30648, Control_c, 0, 67, 111
2, 30651, Note_on_c, 0, 77, 65
2, 30664, Control_c, 0, 67, 107
2, 30679, Control_c, 0, 67, 104
2, 30694, Note_on_c, 0, 77, 0
2, 30695, Control_c, 0, 67, 101
2, 30710, Control_c, 0, 67, 97
2, 30724, Control_c, 0, 67, 93
2, 30740, Control_c, 0, 67, 87
2, 30741, Note_on_c, 0, 63, 60
2, 30753, Note_on_c, 0, 73, 68
2, 30755, Control_c, 0, 67, 83
2, 30768, Note_on_c, 0, 63, 0
2, 30770, Control_c, 0, 67, 79
2, 30786, Control_c, 0, 67, 74
2, 30800, Control_c, 0, 67, 71
2, 30816, Control_c, 0, 67, 69
2, 30831, Control_c, 0, 67, 67
2, 30843, Note_on_c, 0, 75, 65
2, 30845, Control_c, 0, 67, 65
2, 30851, Note_on_c, 0, 73, 0
2, 30861, Control_c, 0, 67, 63
2, 30876, Control_c, 0, 67, 61
2, 30891, Control_c, 0, 67, 59
2, 30907, Control_c, 0, 67, 58
2, 30908, Note_on_c, 0, 75, 0
2, 30921, Control_c, 0, 67, 57
2, 30937, Control_c, 0, 67, 56
2, 30943, Note_on_c, 0, 56, 62
2, 30945, Note_on_c, 0, 72, 67
2, 30952, Control_c, 0, 67, 55
2, 30967, Control_c, 0, 67, 54
2, 30971, Note_on_c, 0, 56, 0
2, 30983, Control_c, 0, 67, 53
2, 30998, Control_c, 0, 67, 53
2, 31014, Control_c, 0, 67, 52
2, 31029, Control_c, 0, 67, 51
2, 31043, Control_c, 0, 67, 51
2, 31043, Note_on_c, 0, 73, 67
2, 31047, Note_on_c, 0, 72, 0
2, 31066, Control_c, 0, 67, 50
2, 31081, Control_c, 0, 67, 47
2, 31097, Control_c, 0, 67, 44
2, 31112, Control_c, 0, 67, 39
2, 31127, Control_c, 0, 67, 34
2, 31142, Control_c, 0, 67, 29
2, 31151, Note_on_c, 0, 60, 76
2, 31157, Control_c, 0, 67, 23
2, 31160, Note_on_c, 0, 70, 71
2, 31160, Note_on_c, 0, 73, 0
2, 31172, Control_c, 0, 67, 17
2, 31188, Control_c, 0, 67, 9
2, 31202, Control_c, 0, 67, 0
2, 31247, Note_on_c, 0, 58, 78
2, 31260, Note_on_c, 0, 60, 0
2, 31261, Note_on_c, 0, 72, 71
2, 31262, Note_on_c, 0, 70, 0
2, 31312, Note_on_c, 0, 72, 0
2, 31327, Note_on_c, 0, 58, 0
2, 31363, Note_on_c, 0, 60, 83
2, 31363, Note_on_c, 0, 68, 81
2, 31414, Note_on_c, 0, 60, 0
2, 31434, Note_on_c, 0, 68, 0
2, 31464, Note_on_c, 0, 70, 71
2, 31515, Note_on_c, 0, 70, 0
2, 31561, Note_on_c, 0, 63, 77
2, 31566, Note_on_c, 0, 66, 76
2, 31600, Note_on_c, 0, 63, 0
2, 31632, Note_on_c, 0, 66, 0
2, 31680, Note_on_c, 0, 68, 66
2, 31749, Note_on_c, 0, 68, 0
2, 31765, Note_on_c, 0, 56, 64
2, 31775, Note_on_c, 0, 65, 70
2, 31801, Note_on_c, 0, 56, 0
2, 31875, Note_on_c, 0, 66, 67
2, 31887, Note_on_c, 0, 65, 0
2, 31942, Note_on_c, 0, 66, 0
2, 31977, Note_on_c, 0, 63, 70
2, 31989, Note_on_c, 0, 60, 67
2, 32019, Note_on_c, 0, 60, 0
2, 32052, Note_on_c, 0, 63, 0
2, 32074, Note_on_c, 0, 65, 66
2, 32142, Note_on_c, 0, 65, 0
2, 32191, Note_on_c, 0, 53, 81
2, 32198, Note_on_c, 0, 61, 68
2, 32287, Note_on_c, 0, 61, 0
2, 32444, Note_on_c, 0, 73, 65
2, 32489, Note_on_c, 0, 73, 0
2, 32525, Note_on_c, 0, 72, 75
2, 32634, Note_on_c, 0, 73, 77
2, 32642, Note_on_c, 0, 72, 0
2, 32677, Note_on_c, 0, 73, 0
2, 32731, Note_on_c, 0, 56, 71
2, 32754, Note_on_c, 0, 53, 0
2, 32841, Note_on_c, 0, 58, 75
2, 32866, Note_on_c, 0, 77, 65
2, 32877, Note_on_c, 0, 56, 0
2, 32924, Note_on_c, 0, 77, 0
2, 32940, Note_on_c, 0, 60, 79
2, 32955, Note_on_c, 0, 58, 0
2, 33022, Note_on_c, 0, 60, 0
2, 33036, Note_on_c, 0, 61, 83
2, 33049, Note_on_c, 0, 70, 69
2, 33116, Note_on_c, 0, 70, 0
2, 33140, Note_on_c, 0, 58, 62
2, 33153, Note_on_c, 0, 61, 0
2, 33230, Note_on_c, 0, 58, 0
2, 33251, Note_on_c, 0, 55, 57
2, 33251, Note_on_c, 0, 73, 69
2, 33282, Note_on_c, 0, 73, 0
2, 33347, Note_on_c, 0, 55, 0
2, 33361, Note_on_c, 0, 58, 69
2, 33439, Note_on_c, 0, 58, 0
2, 33480, Note_on_c, 0, 51, 77
2, 33486, Note_on_c, 0, 67, 76
2, 33630, Note_on_c, 0, 67, 0
2, 33716, Note_on_c, 0, 72, 65
2, 33753, Note_on_c, 0, 72, 0
2, 33804, Note_on_c, 0, 70, 77
2, 33867, Note_on_c, 0, 70, 0
2, 33905, Note_on_c, 0, 72, 75
2, 33941, Note_on_c, 0, 72, 0
2, 33969, Note_on_c, 0, 51, 0
2, 34005, Note_on_c, 0, 55, 56
2, 34107, Note_on_c, 0, 56, 69
2, 34129, Note_on_c, 0, 55, 0
2, 34132, Note_on_c, 0, 75, 71
2, 34178, Note_on_c, 0, 75, 0
2, 34228, Note_on_c, 0, 58, 64
2, 34235, Note_on_c, 0, 56, 0
2, 34304, Note_on_c, 0, 58, 0
2, 34321, Note_on_c, 0, 60, 58
2, 34331, Note_on_c, 0, 68, 60
2, 34371, Note_on_c, 0, 68, 0
2, 34422, Note_on_c, 0, 60, 0
2, 34431, Note_on_c, 0, 56, 60
2, 34523, Note_on_c, 0, 56, 0
2, 34542, Note_on_c, 0, 53, 57
2, 34559, Note_on_c, 0, 72, 67
2, 34596, Note_on_c, 0, 72, 0
2, 34627, Note_on_c, 0, 53, 0
2, 34657, Note_on_c, 0, 56, 64
2, 34764, Note_on_c, 0, 56, 0
2, 34767, Note_on_c, 0, 65, 66
2, 34781, Note_on_c, 0, 49, 61
2, 34875, Note_on_c, 0, 49, 0
2, 34882, Note_on_c, 0, 51, 58
2, 34976, Note_on_c, 0, 70, 65
2, 34983, Note_on_c, 0, 51, 0
2, 34989, Note_on_c, 0, 48, 68
2, 35008, Note_on_c, 0, 65, 0
2, 35072, Note_on_c, 0, 68, 73
2, 35076, Note_on_c, 0, 48, 0
2, 35080, Note_on_c, 0, 51, 61
2, 35095, Note_on_c, 0, 70, 0
2, 35165, Note_on_c, 0, 49, 68
2, 35165, Note_on_c, 0, 51, 0
2, 35174, Note_on_c, 0, 70, 80
2, 35177, Note_on_c, 0, 68, 0
2, 35236, Note_on_c, 0, 70, 0
2, 35262, Note_on_c, 0, 49, 0
2, 35270, Note_on_c, 0, 53, 60
2, 35359, Note_on_c, 0, 53, 0
2, 35378, Note_on_c, 0, 73, 77
2, 35392, Note_on_c, 0, 55, 56
2, 35430, Note_on_c, 0, 73, 0
2, 35464, Note_on_c, 0, 55, 0
2, 35488, Note_on_c, 0, 56, 62
2, 35570, Note_on_c, 0, 56, 0
2, 35589, Note_on_c, 0, 58, 73
2, 35594, Note_on_c, 0, 67, 73
2, 35668, Note_on_c, 0, 67, 0
2, 35688, Note_on_c, 0, 58, 0
2, 35701, Note_on_c, 0, 55, 60
2, 35785, Note_on_c, 0, 55, 0
2, 35805, Note_on_c, 0, 51, 56
2, 35811, Note_on_c, 0, 70, 72
2, 35870, Note_on_c, 0, 70, 0
2, 35871, Control_c, 0, 67, 8
2, 35878, Note_on_c, 0, 51, 0
2, 35886, Control_c, 0, 67, 9
2, 35898, Note_on_c, 0, 55, 63
2, 35901, Control_c, 0, 67, 11
2, 35916, Control_c, 0, 67, 13
2, 35931, Control_c, 0, 67, 16
2, 35947, Control_c, 0, 67, 22
2, 35962, Control_c, 0, 67, 30
2, 35969, Note_on_c, 0, 55, 0
2, 35976, Control_c, 0, 67, 37
2, 35992, Control_c, 0, 67, 44
2, 36007, Control_c, 0, 67, 50
2, 36016, Note_on_c, 0, 48, 69
2, 36023, Control_c, 0, 67, 56
2, 36028, Note_on_c, 0, 63, 80
2, 36038, Control_c, 0, 67, 61
2, 36052, Control_c, 0, 67, 68
2, 36068, Control_c, 0, 67, 74
2, 36083, Control_c, 0, 67, 80
2, 36098, Control_c, 0, 67, 85
2, 36114, Control_c, 0, 67, 89
2, 36123, Note_on_c, 0, 48, 0
2, 36129, Control_c, 0, 67, 92
2, 36137, Note_on_c, 0, 49, 60
2, 36145, Control_c, 0, 67, 94
2, 36160, Control_c, 0, 67, 96
2, 36174, Control_c, 0, 67, 96
2, 36190, Control_c, 0, 67, 97
2, 36196, Note_on_c, 0, 63, 0
2, 36211, Note_on_c, 0, 49, 0
2, 36221, Control_c, 0, 67, 97
2, 36248, Note_on_c, 0, 46, 75
2, 36251, Control_c, 0, 67, 98
2, 36252, Note_on_c, 0, 68, 71
2, 36267, Control_c, 0, 67, 98
2, 36282, Control_c, 0, 67, 99
2, 36297, Control_c, 0, 67, 100
2, 36313, Control_c, 0, 67, 100
2, 36333, Note_on_c, 0, 67, 77
2, 36337, Note_on_c, 0, 46, 0
2, 36338, Note_on_c, 0, 68, 0
2, 36346, Note_on_c, 0, 49, 61
2, 36389, Control_c, 0, 67, 100
2, 36407, Note_on_c, 0, 49, 0
2, 36436, Note_on_c, 0, 68, 78
2, 36441, Control_c, 0, 67, 99
2, 36442, Note_on_c, 0, 67, 0
2, 36453, Note_on_c, 0, 48, 67
2, 36472, Control_c, 0, 67, 99
2, 36481, Note_on_c, 0, 68, 0
2, 36548, Note_on_c, 0, 48, 0
2, 36550, Note_on_c, 0, 51, 57
2, 36645, Note_on_c, 0, 51, 0
2, 36645, Note_on_c, 0, 53, 62
2, 36653, Note_on_c, 0, 72, 67
2, 36698, Note_on_c, 0, 72, 0
2, 36719, Note_on_c, 0, 53, 0
2, 36750, Note_on_c, 0, 55, 56
2, 36775, Control_c, 0, 67, 99
2, 36821, Control_c, 0, 67, 100
2, 36833, Note_on_c, 0, 55, 0
2, 36844, Note_on_c, 0, 56, 63
2, 36855, Note_on_c, 0, 65, 66
2, 36896, Control_c, 0, 67, 100
2, 36904, Note_on_c, 0, 65, 0
2, 36923, Note_on_c, 0, 56, 0
2, 36927, Control_c, 0, 67, 101
2, 36958, Note_on_c, 0, 53, 47
2, 36972, Control_c, 0, 67, 101
2, 37034, Control_c, 0, 67, 102
2, 37037, Note_on_c, 0, 53, 0
2, 37048, Control_c, 0, 67, 103
2, 37062, Note_on_c, 0, 49, 53
2, 37065, Control_c, 0, 67, 108
2, 37072, Note_on_c, 0, 68, 67
2, 37080, Control_c, 0, 67, 113
2, 37095, Control_c, 0, 67, 116
2, 37111, Control_c, 0, 67, 118
2, 37125, Control_c, 0, 67, 120
2, 37141, Control_c, 0, 67, 121
2, 37144, Note_on_c, 0, 49, 0
2, 37145, Note_on_c, 0, 68, 0
2, 37156, Control_c, 0, 67, 124
2, 37170, Control_c, 0, 67, 127
2, 37171, Note_on_c, 0, 53, 50
2, 37186, Control_c, 0, 67, 127
2, 37267, Note_on_c, 0, 53, 0
2, 37305, Note_on_c, 0, 61, 67
2, 37315, Note_on_c, 0, 46, 57
2, 37379, Note_on_c, 0, 46, 0
2, 37401, Note_on_c, 0, 56, 49
2, 37487, Note_on_c, 0, 56, 0
2, 37502, Note_on_c, 0, 61, 0
2, 37523, Note_on_c, 0, 55, 45
2, 37526, Note_on_c, 0, 70, 55
2, 37579, Note_on_c, 0, 55, 0
2, 37608, Note_on_c, 0, 70, 0
2, 37613, Note_on_c, 0, 68, 68
2, 37621, Note_on_c, 0, 56, 42
2, 37656, Note_on_c, 0, 56, 0
2, 37702, Note_on_c, 0, 49, 55
2, 37710, Note_on_c, 0, 68, 0
2, 37714, Note_on_c, 0, 70, 74
2, 37753, Note_on_c, 0, 70, 0
2, 37761, Note_on_c, 0, 49, 0
2, 37789, Note_on_c, 0, 56, 40
2, 37894, Note_on_c, 0, 56, 0
2, 37927, Note_on_c, 0, 73, 75
2, 37931, Note_on_c, 0, 55, 44
2, 37975, Note_on_c, 0, 73, 0
2, 38016, Note_on_c, 0, 55, 0
2, 38037, Note_on_c, 0, 56, 48
2, 38103, Note_on_c, 0, 56, 0
2, 38146, Note_on_c, 0, 46, 55
2, 38147, Note_on_c, 0, 67, 75
2, 38196, Note_on_c, 0, 67, 0
2, 38205, Note_on_c, 0, 46, 0
2, 38240, Note_on_c, 0, 56, 46
2, 38296, Note_on_c, 0, 56, 0
2, 38349, Note_on_c, 0, 55, 46
2, 38357, Note_on_c, 0, 70, 72
2, 38389, Note_on_c, 0, 70, 0
2, 38427, Note_on_c, 0, 55, 0
2, 38440, Note_on_c, 0, 56, 40
2, 38530, Note_on_c, 0, 56, 0
2, 38565, Note_on_c, 0, 48, 50
2, 38583, Note_on_c, 0, 63, 80
2, 38599, Control_c, 0, 64, 63
2, 38614, Control_c, 0, 64, 57
2, 38638, Note_on_c, 0, 48, 0
2, 38661, Control_c, 0, 64, 55
2, 38662, Note_on_c, 0, 56, 50
2, 38676, Control_c, 0, 64, 54
2, 38771, Note_on_c, 0, 56, 0
2, 38782, Note_on_c, 0, 63, 0
2, 38815, Note_on_c, 0, 55, 40
2, 38816, Note_on_c, 0, 72, 58
2, 38879, Note_on_c, 0, 55, 0
2, 38892, Note_on_c, 0, 70, 76
2, 38906, Note_on_c, 0, 56, 56
2, 38906, Note_on_c, 0, 72, 0
2, 38912, Control_c, 0, 64, 49
2, 38927, Control_c, 0, 64, 32
2, 38942, Control_c, 0, 64, 0
2, 38952, Note_on_c, 0, 56, 0
2, 38985, Note_on_c, 0, 70, 0
2, 38988, Note_on_c, 0, 51, 58
2, 38990, Note_on_c, 0, 72, 76
2, 39028, Note_on_c, 0, 72, 0
2, 39040, Note_on_c, 0, 51, 0
2, 39085, Note_on_c, 0, 56, 53
2, 39125, Control_c, 0, 67, 125
2, 39141, Control_c, 0, 67, 122
2, 39155, Control_c, 0, 67, 118
2, 39170, Control_c, 0, 67, 115
2, 39177, Note_on_c, 0, 56, 0
2, 39186, Control_c, 0, 67, 111
2, 39200, Control_c, 0, 67, 106
2, 39207, Note_on_c, 0, 75, 82
2, 39213, Note_on_c, 0, 55, 53
2, 39215, Control_c, 0, 67, 99
2, 39231, Control_c, 0, 67, 89
2, 39246, Control_c, 0, 67, 81
2, 39256, Note_on_c, 0, 75, 0
2, 39262, Control_c, 0, 67, 71
2, 39276, Control_c, 0, 67, 59
2, 39287, Note_on_c, 0, 55, 0
2, 39291, Control_c, 0, 67, 46
2, 39302, Note_on_c, 0, 56, 51
2, 39307, Control_c, 0, 67, 31
2, 39322, Control_c, 0, 67, 16
2, 39337, Control_c, 0, 67, 0
2, 39378, Note_on_c, 0, 56, 0
2, 39403, Note_on_c, 0, 48, 58
2, 39408, Note_on_c, 0, 68, 84
2, 39455, Note_on_c, 0, 68, 0
2, 39477, Note_on_c, 0, 48, 0
2, 39513, Note_on_c, 0, 56, 55
2, 39601, Note_on_c, 0, 56, 0
2, 39634, Note_on_c, 0, 55, 55
2, 39638, Note_on_c, 0, 72, 83
2, 39679, Note_on_c, 0, 72, 0
2, 39705, Note_on_c, 0, 55, 0
2, 39727, Note_on_c, 0, 56, 58
2, 39818, Note_on_c, 0, 56, 0
2, 39849, Note_on_c, 0, 49, 69
2, 39852, Note_on_c, 0, 65, 93
2, 39926, Note_on_c, 0, 49, 0
2, 39944, Note_on_c, 0, 56, 60
2, 40027, Note_on_c, 0, 56, 0
2, 40065, Note_on_c, 0, 55, 44
2, 40085, Note_on_c, 0, 73, 61
2, 40112, Note_on_c, 0, 65, 0
2, 40144, Note_on_c, 0, 55, 0
2, 40159, Note_on_c, 0, 56, 50
2, 40163, Note_on_c, 0, 72, 73
2, 40163, Note_on_c, 0, 73, 0
2, 40216, Note_on_c, 0, 56, 0
2, 40250, Note_on_c, 0, 53, 51
2, 40262, Note_on_c, 0, 73, 82
2, 40273, Note_on_c, 0, 72, 0
2, 40315, Note_on_c, 0, 53, 0
2, 40318, Note_on_c, 0, 73, 0
2, 40352, Note_on_c, 0, 56, 50
2, 40458, Note_on_c, 0, 56, 0
2, 40473, Note_on_c, 0, 77, 83
2, 40477, Note_on_c, 0, 51, 61
2, 40516, Note_on_c, 0, 77, 0
2, 40530, Note_on_c, 0, 51, 0
2, 40569, Note_on_c, 0, 56, 60
2, 40653, Note_on_c, 0, 56, 0
2, 40681, Note_on_c, 0, 49, 57
2, 40683, Note_on_c, 0, 70, 84
2, 40723, Note_on_c, 0, 70, 0
2, 40737, Note_on_c, 0, 49, 0
2, 40770, Note_on_c, 0, 56, 54
2, 40826, Note_on_c, 0, 56, 0
2, 40871, Note_on_c, 0, 48, 53
2, 40888, Note_on_c, 0, 73, 84
2, 40926, Note_on_c, 0, 48, 0
2, 40938, Note_on_c, 0, 73, 0
2, 40956, Note_on_c, 0, 56, 53
2, 41069, Note_on_c, 0, 56, 0
2, 41075, Note_on_c, 0, 46, 60
2, 41096, Note_on_c, 0, 67, 81
2, 41143, Note_on_c, 0, 67, 0
2, 41163, Note_on_c, 0, 46, 0
2, 41184, Note_on_c, 0, 49, 52
2, 41290, Note_on_c, 0, 70, 81
2, 41297, Note_on_c, 0, 49, 0
2, 41307, Note_on_c, 0, 48, 59
2, 41339, Note_on_c, 0, 70, 0
2, 41390, Note_on_c, 0, 48, 0
2, 41403, Note_on_c, 0, 51, 59
2, 41485, Note_on_c, 0, 51, 0
2, 41491, Note_on_c, 0, 49, 62
2, 41506, Note_on_c, 0, 63, 82
2, 41551, Note_on_c, 0, 63, 0
2, 41556, Note_on_c, 0, 49, 0
2, 41578, Note_on_c, 0, 53, 50
2, 41676, Note_on_c, 0, 53, 0
2, 41698, Note_on_c, 0, 51, 59
2, 41712, Note_on_c, 0, 67, 77
2, 41749, Note_on_c, 0, 67, 0
2, 41776, Note_on_c, 0, 51, 0
2, 41794, Note_on_c, 0, 49, 58
2, 41898, Note_on_c, 0, 49, 0
2, 41925, Note_on_c, 0, 68, 93
2, 41931, Note_on_c, 0, 48, 61
2, 42020, Note_on_c, 0, 48, 0
2, 42033, Note_on_c, 0, 51, 57
2, 42106, Note_on_c, 0, 51, 0
2, 42127, Note_on_c, 0, 49, 60
2, 42178, Note_on_c, 0, 49, 0
2, 42214, Note_on_c, 0, 53, 63
2, 42283, Note_on_c, 0, 53, 0
2, 42320, Note_on_c, 0, 51, 69
2, 42348, Note_on_c, 0, 51, 0
2, 42405, Note_on_c, 0, 68, 0
2, 42422, Note_on_c, 0, 67, 61
2, 42519, Note_on_c, 0, 67, 0
2, 42522, Note_on_c, 0, 68, 68
2, 42525, Note_on_c, 0, 53, 54
2, 42550, Note_on_c, 0, 53, 0
2, 42613, Note_on_c, 0, 68, 0
2, 42620, Note_on_c, 0, 70, 68
2, 42635, Note_on_c, 0, 49, 61
2, 42673, Note_on_c, 0, 49, 0
2, 42685, Note_on_c, 0, 70, 0
2, 42735, Note_on_c, 0, 72, 68
2, 42753, Note_on_c, 0, 51, 50
2, 42756, Note_on_c, 0, 67, 35
2, 42779, Note_on_c, 0, 51, 0
2, 42795, Note_on_c, 0, 72, 0
2, 42809, Note_on_c, 0, 70, 70
2, 42843, Note_on_c, 0, 67, 0
2, 42850, Note_on_c, 0, 70, 0
2, 42880, Note_on_c, 0, 72, 62
2, 42926, Note_on_c, 0, 72, 0
2, 42928, Note_on_c, 0, 49, 59
2, 42952, Note_on_c, 0, 49, 0
2, 42952, Note_on_c, 0, 70, 56
2, 42972, Note_on_c, 0, 70, 0
2, 42985, Note_on_c, 0, 72, 56
2, 43030, Note_on_c, 0, 72, 0
2, 43039, Note_on_c, 0, 70, 76
2, 43071, Note_on_c, 0, 70, 0
2, 43090, Note_on_c, 0, 72, 61
2, 43115, Note_on_c, 0, 51, 53
2, 43151, Note_on_c, 0, 70, 71
2, 43152, Note_on_c, 0, 51, 0
2, 43160, Note_on_c, 0, 72, 0
2, 43372, Note_on_c, 0, 39, 42
2, 43420, Note_on_c, 0, 39, 0
2, 43481, Note_on_c, 0, 70, 0
2, 43488, Note_on_c, 0, 68, 63
2, 43533, Note_on_c, 0, 68, 0
2, 43579, Note_on_c, 0, 68, 62
2, 43598, Note_on_c, 0, 44, 51
2, 43856, Note_on_c, 0, 75, 60
2, 43921, Note_on_c, 0, 68, 0
2, 43942, Note_on_c, 0, 73, 65
2, 43947, Note_on_c, 0, 75, 0
2, 43983, Note_on_c, 0, 44, 0
2, 44013, Note_on_c, 0, 75, 57
2, 44022, Note_on_c, 0, 73, 0
2, 44026, Note_on_c, 0, 56, 47
2, 44064, Note_on_c, 0, 75, 0
2, 44258, Note_on_c, 0, 72, 69
2, 44300, Note_on_c, 0, 72, 0
2, 44476, Note_on_c, 0, 67, 64
2, 44518, Note_on_c, 0, 67, 0
2, 44676, Note_on_c, 0, 70, 71
2, 44705, Note_on_c, 0, 70, 0
2, 44723, Note_on_c, 0, 56, 0
2, 44848, Note_on_c, 0, 68, 58
2, 44851, Note_on_c, 0, 65, 37
2, 44897, Note_on_c, 0, 68, 0
2, 44898, Note_on_c, 0, 67, 71
2, 44919, Note_on_c, 0, 65, 0
2, 44940, Note_on_c, 0, 68, 66
2, 44953, Note_on_c, 0, 67, 0
2, 45160, Note_on_c, 0, 53, 60
2, 45230, Note_on_c, 0, 53, 0
2, 45234, Note_on_c, 0, 51, 62
2, 45318, Note_on_c, 0, 51, 0
2, 45336, Note_on_c, 0, 75, 86
2, 45337, Note_on_c, 0, 53, 66
2, 45361, Note_on_c, 0, 68, 0
2, 45374, Note_on_c, 0, 53, 0
2, 45579, Note_on_c, 0, 56, 64
2, 45615, Note_on_c, 0, 56, 0
2, 45799, Note_on_c, 0, 49, 65
2, 45840, Note_on_c, 0, 49, 0
2, 45894, Note_on_c, 0, 66, 66
2, 45924, Note_on_c, 0, 75, 0
2, 45973, Note_on_c, 0, 66, 0
2, 45989, Note_on_c, 0, 53, 57
2, 45994, Note_on_c, 0, 65, 64
2, 46023, Note_on_c, 0, 53, 0
2, 46082, Note_on_c, 0, 65, 0
2, 46089, Note_on_c, 0, 63, 64
2, 46191, Note_on_c, 0, 63, 0
2, 46225, Note_on_c, 0, 61, 75
2, 46228, Note_on_c, 0, 46, 73
2, 46432, Note_on_c, 0, 61, 0
2, 46486, Note_on_c, 0, 73, 68
2, 46564, Note_on_c, 0, 72, 78
2, 46564, Note_on_c, 0, 73, 0
2, 46664, Note_on_c, 0, 46, 0
2, 46666, Note_on_c, 0, 56, 87
2, 46677, Note_on_c, 0, 73, 76
2, 46680, Note_on_c, 0, 72, 0
2, 46844, Note_on_c, 0, 73, 0
2, 46899, Note_on_c, 0, 70, 71
2, 46937, Note_on_c, 0, 70, 0
2, 47127, Note_on_c, 0, 65, 66
2, 47160, Note_on_c, 0, 65, 0
2, 47266, Note_on_c, 0, 56, 0
2, 47334, Note_on_c, 0, 68, 70
2, 47383, Note_on_c, 0, 68, 0
2, 47487, Note_on_c, 0, 67, 66
2, 47521, Note_on_c, 0, 67, 0
2, 47532, Note_on_c, 0, 68, 65
2, 47572, Note_on_c, 0, 67, 71
2, 47588, Note_on_c, 0, 68, 0
2, 47776, Note_on_c, 0, 51, 65
2, 47842, Note_on_c, 0, 51, 0
2, 47859, Note_on_c, 0, 49, 62
2, 47922, Control_c, 0, 67, 8
2, 47958, Note_on_c, 0, 51, 75
2, 47961, Control_c, 0, 67, 8
2, 47964, Note_on_c, 0, 49, 0
2, 47966, Note_on_c, 0, 73, 79
2, 47971, Note_on_c, 0, 67, 0
2, 47975, Control_c, 0, 67, 10
2, 47991, Control_c, 0, 67, 11
2, 47995, Note_on_c, 0, 51, 0
2, 48006, Control_c, 0, 67, 11
2, 48037, Control_c, 0, 67, 12
2, 48051, Control_c, 0, 67, 12
2, 48067, Control_c, 0, 67, 13
2, 48097, Control_c, 0, 67, 13
2, 48113, Control_c, 0, 67, 14
2, 48158, Control_c, 0, 67, 15
2, 48173, Control_c, 0, 67, 16
2, 48188, Control_c, 0, 67, 16
2, 48197, Note_on_c, 0, 55, 56
2, 48203, Control_c, 0, 67, 17
2, 48218, Control_c, 0, 67, 18
2, 48224, Note_on_c, 0, 55, 0
2, 48234, Control_c, 0, 67, 19
2, 48249, Control_c, 0, 67, 20
2, 48264, Control_c, 0, 67, 21
2, 48279, Control_c, 0, 67, 22
2, 48294, Control_c, 0, 67, 22
2, 48310, Control_c, 0, 67, 23
2, 48325, Control_c, 0, 67, 24
2, 48339, Control_c, 0, 67, 25
2, 48355, Control_c, 0, 67, 30
2, 48370, Control_c, 0, 67, 35
2, 48386, Control_c, 0, 67, 40
2, 48401, Control_c, 0, 67, 45
2, 48410, Note_on_c, 0, 48, 55
2, 48416, Control_c, 0, 67, 51
2, 48432, Control_c, 0, 67, 55
2, 48447, Control_c, 0, 67, 58
2, 48462, Control_c, 0, 67, 60
2, 48466, Note_on_c, 0, 48, 0
2, 48477, Control_c, 0, 67, 62
2, 48483, Note_on_c, 0, 73, 0
2, 48492, Control_c, 0, 67, 64
2, 48508, Control_c, 0, 67, 66
2, 48513, Note_on_c, 0, 65, 54
2, 48523, Control_c, 0, 67, 69
2, 48538, Control_c, 0, 67, 72
2, 48554, Control_c, 0, 67, 74
2, 48569, Control_c, 0, 67, 75
2, 48585, Control_c, 0, 67, 76
2, 48589, Note_on_c, 0, 65, 0
2, 48600, Control_c, 0, 67, 77
2, 48603, Note_on_c, 0, 63, 62
2, 48614, Control_c, 0, 67, 79
2, 48619, Note_on_c, 0, 51, 30
2, 48630, Control_c, 0, 67, 81
2, 48645, Control_c, 0, 67, 83
2, 48660, Control_c, 0, 67, 84
2, 48660, Note_on_c, 0, 51, 0
2, 48676, Control_c, 0, 67, 85
2, 48687, Note_on_c, 0, 63, 0
2, 48690, Control_c, 0, 67, 85
2, 48694, Note_on_c, 0, 61, 64
2, 48706, Control_c, 0, 67, 87
2, 48728, Control_c, 0, 67, 88
2, 48744, Control_c, 0, 67, 90
2, 48759, Control_c, 0, 67, 92
2, 48765, Note_on_c, 0, 61, 0
2, 48774, Control_c, 0, 67, 96
2, 48790, Control_c, 0, 67, 102
2, 48805, Control_c, 0, 67, 108
2, 48810, Note_on_c, 0, 60, 57
2, 48816, Note_on_c, 0, 44, 56
2, 48819, Control_c, 0, 67, 114
2, 48835, Control_c, 0, 67, 119
2, 48850, Control_c, 0, 67, 121
2, 48850, Note_on_c, 0, 60, 0
2, 48855, Note_on_c, 0, 44, 0
2, 48866, Control_c, 0, 67, 123
2, 48906, Note_on_c, 0, 72, 53
2, 48909, Note_on_c, 0, 56, 45
2, 48963, Note_on_c, 0, 56, 0
2, 48964, Note_on_c, 0, 72, 0
2, 49012, Note_on_c, 0, 70, 55
2, 49092, Note_on_c, 0, 56, 39
2, 49092, Note_on_c, 0, 70, 0
2, 49100, Note_on_c, 0, 72, 58
2, 49159, Note_on_c, 0, 56, 0
2, 49162, Note_on_c, 0, 72, 0
2, 49201, Note_on_c, 0, 53, 47
2, 49202, Note_on_c, 0, 68, 64
2, 49247, Note_on_c, 0, 53, 0
2, 49262, Note_on_c, 0, 68, 0
2, 49288, Note_on_c, 0, 56, 47
2, 49290, Note_on_c, 0, 72, 66
2, 49359, Note_on_c, 0, 72, 0
2, 49370, Note_on_c, 0, 56, 0
2, 49399, Note_on_c, 0, 51, 56
2, 49400, Note_on_c, 0, 67, 67
2, 49413, Control_c, 0, 67, 122
2, 49443, Note_on_c, 0, 51, 0
2, 49456, Control_c, 0, 67, 122
2, 49465, Note_on_c, 0, 67, 0
2, 49490, Note_on_c, 0, 72, 66
2, 49499, Note_on_c, 0, 56, 55
2, 49550, Note_on_c, 0, 56, 0
2, 49566, Note_on_c, 0, 72, 0
2, 49571, Control_c, 0, 67, 121
2, 49591, Note_on_c, 0, 49, 62
2, 49595, Note_on_c, 0, 65, 75
2, 49602, Control_c, 0, 64, 36
2, 49602, Control_c, 0, 67, 120
2, 49616, Control_c, 0, 64, 0
2, 49616, Control_c, 0, 67, 121
2, 49638, Note_on_c, 0, 49, 0
2, 49663, Note_on_c, 0, 65, 0
2, 49674, Note_on_c, 0, 56, 48
2, 49702, Note_on_c, 0, 72, 64
2, 49723, Control_c, 0, 67, 120
2, 49737, Note_on_c, 0, 56, 0
2, 49776, Note_on_c, 0, 72, 0
2, 49782, Note_on_c, 0, 48, 55
2, 49796, Note_on_c, 0, 63, 85
2, 49835, Note_on_c, 0, 48, 0
2, 49860, Control_c, 0, 67, 120
2, 49864, Note_on_c, 0, 56, 62
2, 49875, Control_c, 0, 67, 121
2, 49881, Note_on_c, 0, 63, 0
2, 49890, Control_c, 0, 67, 122
2, 49890, Note_on_c, 0, 72, 73
2, 49905, Control_c, 0, 67, 122
2, 49921, Control_c, 0, 67, 123
2, 49936, Control_c, 0, 67, 124
2, 49951, Control_c, 0, 67, 124
2, 49958, Note_on_c, 0, 56, 0
2, 49966, Control_c, 0, 67, 125
2, 49979, Note_on_c, 0, 72, 0
2, 49981, Control_c, 0, 67, 127
2, 50000, Note_on_c, 0, 61, 93
2, 50004, Note_on_c, 0, 46, 71
2, 50069, Note_on_c, 0, 46, 0
2, 50090, Note_on_c, 0, 61, 0
2, 50098, Note_on_c, 0, 58, 61
2, 50104, Note_on_c, 0, 73, 73
2, 50149, Note_on_c, 0, 58, 0
2, 50191, Note_on_c, 0, 73, 0
2, 50209, Note_on_c, 0, 72, 70
2, 50215, Note_on_c, 0, 56, 49
2, 50267, Note_on_c, 0, 56, 0
2, 50291, Note_on_c, 0, 58, 60
2, 50315, Note_on_c, 0, 72, 0
2, 50319, Note_on_c, 0, 73, 65
2, 50366, Note_on_c, 0, 73, 0
2, 50387, Note_on_c, 0, 58, 0
2, 50419, Note_on_c, 0, 55, 47
2, 50421, Note_on_c, 0, 70, 63
2, 50465, Note_on_c, 0, 55, 0
2, 50504, Note_on_c, 0, 58, 47
2, 50506, Note_on_c, 0, 70, 0
2, 50515, Note_on_c, 0, 73, 65
2, 50563, Note_on_c, 0, 73, 0
2, 50586, Note_on_c, 0, 58, 0
2, 50619, Note_on_c, 0, 68, 68
2, 50621, Note_on_c, 0, 53, 53
2, 50664, Note_on_c, 0, 53, 0
2, 50705, Note_on_c, 0, 58, 55
2, 50714, Note_on_c, 0, 68, 0
2, 50717, Note_on_c, 0, 73, 64
2, 50768, Note_on_c, 0, 58, 0
2, 50799, Note_on_c, 0, 73, 0
2, 50811, Note_on_c, 0, 51, 57
2, 50816, Note_on_c, 0, 67, 75
2, 50855, Note_on_c, 0, 51, 0
2, 50897, Note_on_c, 0, 67, 0
2, 50898, Note_on_c, 0, 58, 53
2, 50930, Note_on_c, 0, 73, 68
2, 50949, Note_on_c, 0, 58, 0
2, 50993, Note_on_c, 0, 73, 0
2, 51014, Note_on_c, 0, 49, 42
2, 51036, Note_on_c, 0, 65, 70
2, 51061, Note_on_c, 0, 49, 0
2, 51104, Note_on_c, 0, 58, 50
2, 51104, Note_on_c, 0, 65, 0
2, 51126, Note_on_c, 0, 73, 64
2, 51178, Note_on_c, 0, 58, 0
2, 51240, Note_on_c, 0, 63, 72
2, 51243, Note_on_c, 0, 48, 63
2, 51272, Note_on_c, 0, 73, 0
2, 51352, Note_on_c, 0, 63, 0
2, 51389, Note_on_c, 0, 48, 0
2, 51457, Note_on_c, 0, 60, 52
2, 51466, Note_on_c, 0, 68, 60
2, 51487, Control_c, 0, 67, 126
2, 51493, Note_on_c, 0, 60, 0
2, 51498, Note_on_c, 0, 68, 0
2, 51502, Control_c, 0, 67, 122
2, 51511, Note_on_c, 0, 70, 60
2, 51518, Control_c, 0, 67, 118
2, 51532, Control_c, 0, 67, 113
2, 51542, Note_on_c, 0, 70, 0
2, 51547, Control_c, 0, 67, 108
2, 51553, Note_on_c, 0, 68, 80
2, 51563, Control_c, 0, 67, 101
2, 51578, Control_c, 0, 67, 94
2, 51594, Control_c, 0, 67, 87
2, 51600, Note_on_c, 0, 67, 79
2, 51608, Control_c, 0, 67, 81
2, 51610, Note_on_c, 0, 68, 0
2, 51623, Control_c, 0, 67, 75
2, 51638, Control_c, 0, 67, 70
2, 51653, Control_c, 0, 67, 63
2, 51656, Note_on_c, 0, 68, 76
2, 51661, Note_on_c, 0, 67, 0
2, 51669, Control_c, 0, 67, 57
2, 51683, Control_c, 0, 67, 50
2, 51698, Control_c, 0, 67, 43
2, 51714, Control_c, 0, 67, 37
2, 51717, Note_on_c, 0, 68, 0
2, 51729, Control_c, 0, 67, 31
2, 51744, Control_c, 0, 67, 25
2, 51759, Control_c, 0, 67, 18
2, 51774, Control_c, 0, 67, 10
2, 51798, Control_c, 0, 67, 0
2, 51869, Note_on_c, 0, 53, 57
2, 51884, Note_on_c, 0, 72, 67
2, 51924, Note_on_c, 0, 72, 0
2, 51950, Note_on_c, 0, 53, 0
2, 51966, Note_on_c, 0, 55, 58
2, 52067, Note_on_c, 0, 55, 0
2, 52071, Note_on_c, 0, 65, 73
2, 52074, Note_on_c, 0, 56, 65
2, 52115, Note_on_c, 0, 65, 0
2, 52160, Note_on_c, 0, 56, 0
2, 52186, Note_on_c, 0, 55, 51
2, 52245, Note_on_c, 0, 55, 0
2, 52276, Note_on_c, 0, 56, 60
2, 52286, Note_on_c, 0, 68, 72
2, 52341, Note_on_c, 0, 56, 0
2, 52352, Note_on_c, 0, 68, 0
2, 52368, Note_on_c, 0, 53, 48
2, 52465, Note_on_c, 0, 53, 0
2, 52498, Note_on_c, 0, 73, 76
2, 52500, Note_on_c, 0, 58, 72
2, 52597, Note_on_c, 0, 73, 0
2, 52726, Note_on_c, 0, 58, 0
2, 52730, Note_on_c, 0, 46, 56
2, 52739, Note_on_c, 0, 67, 62
2, 52780, Note_on_c, 0, 46, 0
2, 52786, Note_on_c, 0, 67, 0
2, 52797, Note_on_c, 0, 68, 69
2, 52829, Note_on_c, 0, 68, 0
2, 52841, Note_on_c, 0, 67, 64
2, 52884, Note_on_c, 0, 67, 0
2, 52893, Note_on_c, 0, 65, 72
2, 52942, Note_on_c, 0, 67, 73
2, 52943, Note_on_c, 0, 65, 0
2, 52992, Note_on_c, 0, 67, 0
2, 53137, Note_on_c, 0, 51, 55
2, 53150, Note_on_c, 0, 70, 75
2, 53194, Note_on_c, 0, 70, 0
2, 53249, Note_on_c, 0, 53, 57
2, 53254, Note_on_c, 0, 51, 0
2, 53362, Note_on_c, 0, 63, 77
2, 53367, Note_on_c, 0, 53, 0
2, 53370, Note_on_c, 0, 55, 59
2, 53415, Note_on_c, 0, 63, 0
2, 53474, Note_on_c, 0, 55, 0
2, 53483, Note_on_c, 0, 53, 62
2, 53564, Note_on_c, 0, 53, 0
2, 53565, Note_on_c, 0, 67, 82
2, 53581, Note_on_c, 0, 55, 66
2, 53608, Note_on_c, 0, 67, 0
2, 53649, Note_on_c, 0, 55, 0
2, 53678, Note_on_c, 0, 51, 52
2, 53737, Note_on_c, 0, 51, 0
2, 53789, Note_on_c, 0, 56, 55
2, 53791, Note_on_c, 0, 72, 91
2, 53837, Control_c, 0, 64, 26
2, 53852, Control_c, 0, 64, 41
2, 53867, Control_c, 0, 64, 48
2, 53882, Control_c, 0, 64, 52
2, 53897, Control_c, 0, 64, 56
2, 53915, Control_c, 0, 64, 59
2, 53930, Control_c, 0, 64, 63
2, 53945, Control_c, 0, 64, 65
2, 53960, Control_c, 0, 64, 66
2, 53975, Control_c, 0, 64, 67
2, 53991, Control_c, 0, 64, 69
2, 54006, Control_c, 0, 64, 71
2, 54020, Control_c, 0, 64, 73
2, 54036, Control_c, 0, 64, 74
2, 54042, Note_on_c, 0, 72, 0
2, 54045, Note_on_c, 0, 68, 85
2, 54047, Note_on_c, 0, 49, 66
2, 54051, Control_c, 0, 64, 76
2, 54058, Note_on_c, 0, 65, 71
2, 54060, Note_on_c, 0, 61, 79
2, 54067, Control_c, 0, 64, 77
2, 54073, Note_on_c, 0, 56, 0
2, 54079, Note_on_c, 0, 49, 0
2, 54082, Control_c, 0, 64, 77
2, 54086, Note_on_c, 0, 65, 0
2, 54104, Note_on_c, 0, 61, 0
2, 54105, Control_c, 0, 64, 78
2, 54121, Note_on_c, 0, 68, 0
2, 54135, Control_c, 0, 64, 78
2, 54180, Control_c, 0, 64, 79
2, 54196, Control_c, 0, 64, 79
2, 54226, Control_c, 0, 64, 80
2, 54333, Control_c, 0, 64, 78
2, 54334, Note_on_c, 0, 68, 94
2, 54342, Note_on_c, 0, 63, 71
2, 54343, Note_on_c, 0, 58, 72
2, 54349, Control_c, 0, 64, 73
2, 54359, Note_on_c, 0, 51, 53
2, 54364, Control_c, 0, 64, 63
2, 54378, Control_c, 0, 64, 0
2, 54485, Control_c, 0, 64, 38
2, 54500, Control_c, 0, 64, 48
2, 54516, Control_c, 0, 64, 56
2, 54531, Control_c, 0, 64, 60
2, 54547, Control_c, 0, 64, 62
2, 54562, Control_c, 0, 64, 64
2, 54576, Control_c, 0, 64, 65
2, 54592, Control_c, 0, 64, 66
2, 54607, Control_c, 0, 64, 67
2, 54614, Note_on_c, 0, 51, 0
2, 54623, Control_c, 0, 64, 68
2, 54632, Note_on_c, 0, 49, 53
2, 54638, Control_c, 0, 64, 70
2, 54652, Control_c, 0, 64, 71
2, 54668, Control_c, 0, 64, 73
2, 54683, Control_c, 0, 64, 74
2, 54698, Control_c, 0, 64, 75
2, 54712, Control_c, 0, 64, 75
2, 54727, Control_c, 0, 64, 76
2, 54757, Control_c, 0, 64, 76
2, 54788, Control_c, 0, 64, 77
2, 54884, Note_on_c, 0, 68, 0
2, 54910, Note_on_c, 0, 63, 0
2, 54917, Note_on_c, 0, 58, 0
2, 54931, Control_c, 0, 64, 75
2, 54934, Note_on_c, 0, 49, 0
2, 54944, Note_on_c, 0, 67, 94
2, 54947, Control_c, 0, 64, 69
2, 54947, Note_on_c, 0, 51, 62
2, 54962, Control_c, 0, 64, 57
2, 54977, Control_c, 0, 64, 0
2, 55039, Control_c, 0, 64, 44
2, 55053, Control_c, 0, 64, 58
2, 55069, Control_c, 0, 64, 62
2, 55084, Control_c, 0, 64, 64
2, 55099, Control_c, 0, 64, 65
2, 55115, Control_c, 0, 64, 66
2, 55130, Control_c, 0, 64, 67
2, 55146, Control_c, 0, 64, 68
2, 55161, Control_c, 0, 64, 70
2, 55176, Control_c, 0, 64, 70
2, 55192, Control_c, 0, 64, 71
2, 55207, Control_c, 0, 64, 72
2, 55222, Control_c, 0, 64, 72
2, 55237, Control_c, 0, 64, 73
2, 55252, Control_c, 0, 64, 73
2, 55268, Control_c, 0, 64, 74
2, 55275, Note_on_c, 0, 67, 0
2, 55283, Control_c, 0, 64, 74
2, 55297, Control_c, 0, 64, 75
2, 55313, Control_c, 0, 64, 75
2, 55328, Control_c, 0, 64, 76
2, 55344, Note_on_c, 0, 39, 54
2, 55389, Control_c, 0, 64, 76
2, 55440, Note_on_c, 0, 51, 0
2, 55615, Note_on_c, 0, 39, 0
2, 55802, Control_c, 0, 64, 76
2, 55925, Control_c, 0, 64, 75
2, 55954, Control_c, 0, 64, 75
2, 55958, Note_on_c, 0, 63, 64
2, 55960, Note_on_c, 0, 68, 79
2, 55964, Note_on_c, 0, 44, 40
2, 55970, Control_c, 0, 64, 74
2, 55970, Note_on_c, 0, 60, 52
2, 55985, Control_c, 0, 64, 72
2, 56001, Control_c, 0, 64, 68
2, 56015, Control_c, 0, 64, 60
2, 56030, Control_c, 0, 64, 0
2, 57149, Control_c, 0, 64, 33
2, 57171, Control_c, 0, 64, 50
2, 57186, Control_c, 0, 64, 55
2, 57202, Control_c, 0, 64, 60
2, 57217, Control_c, 0, 64, 63
2, 57232, Control_c, 0, 64, 65
2, 57248, Control_c, 0, 64, 67
2, 57263, Control_c, 0, 64, 69
2, 57279, Control_c, 0, 64, 71
2, 57293, Control_c, 0, 64, 73
2, 57308, Control_c, 0, 64, 75
2, 57324, Control_c, 0, 64, 78
2, 57339, Control_c, 0, 64, 79
2, 57354, Control_c, 0, 64, 81
2, 57369, Control_c, 0, 64, 82
2, 57384, Control_c, 0, 64, 83
2, 57400, Control_c, 0, 64, 84
2, 57415, Control_c, 0, 64, 85
2, 57430, Control_c, 0, 64, 86
2, 57445, Control_c, 0, 64, 87
2, 57460, Control_c, 0, 64, 88
2, 57476, Control_c, 0, 64, 88
2, 57506, Control_c, 0, 64, 89
2, 57536, Control_c, 0, 64, 89
2, 57583, Control_c, 0, 64, 90
2, 57659, Control_c, 0, 64, 90
2, 57680, Note_on_c, 0, 44, 0
2, 57703, Note_on_c, 0, 63, 0
2, 57714, Note_on_c, 0, 60, 0
2, 57752, Note_on_c, 0, 68, 0
2, 58213, Control_c, 0, 64, 90
2, 58442, Control_c, 0, 64, 89
2, 58563, Control_c, 0, 64, 89
2, 58623, Control_c, 0, 64, 88
2, 58669, Control_c, 0, 64, 88
2, 58685, Control_c, 0, 64, 87
2, 58707, Control_c, 0, 64, 87
2, 58722, Control_c, 0, 64, 86
2, 58737, Control_c, 0, 64, 85
2, 58752, Control_c, 0, 64, 85
2, 58768, Control_c, 0, 64, 84
2, 58782, Control_c, 0, 64, 83
2, 58798, Control_c, 0, 64, 82
2, 58813, Control_c, 0, 64, 81
2, 58828, Control_c, 0, 64, 80
2, 58844, Control_c, 0, 64, 79
2, 58859, Control_c, 0, 64, 79
2, 58874, Control_c, 0, 64, 78
2, 58890, Control_c, 0, 64, 78
2, 58904, Control_c, 0, 64, 77
2, 58920, Control_c, 0, 64, 76
2, 58935, Control_c, 0, 64, 74
2, 58950, Control_c, 0, 64, 72
2, 58966, Control_c, 0, 64, 70
2, 58980, Control_c, 0, 64, 68
2, 58996, Control_c, 0, 64, 66
2, 59011, Control_c, 0, 64, 65
2, 59026, Control_c, 0, 64, 63
2, 59042, Control_c, 0, 64, 62
2, 59056, Control_c, 0, 64, 60
2, 59071, Control_c, 0, 64, 59
2, 59087, Control_c, 0, 64, 58
2, 59102, Control_c, 0, 64, 57
2, 59118, Control_c, 0, 64, 56
2, 59132, Control_c, 0, 64, 55
2, 59147, Control_c, 0, 64, 53
2, 59163, Control_c, 0, 64, 52
2, 59178, Control_c, 0, 64, 50
2, 59194, Control_c, 0, 64, 48
2, 59209, Control_c, 0, 64, 47
2, 59224, Control_c, 0, 64, 46
2, 59255, Control_c, 0, 64, 46
2, 59270, Control_c, 0, 64, 45
2, 59285, Control_c, 0, 64, 44
2, 59300, Control_c, 0, 64, 44
2, 59317, Control_c, 0, 64, 43
2, 59347, Control_c, 0, 64, 44
2, 59362, Control_c, 0, 64, 44
2, 59438, Control_c, 0, 64, 45
2, 59453, Control_c, 0, 64, 45
2, 59477, Control_c, 0, 64, 46
2, 59491, Control_c, 0, 64, 46
2, 59567, Control_c, 0, 64, 47
2, 59598, Control_c, 0, 64, 47
2, 60191, Control_c, 0, 67, 8
2, 60305, Control_c, 0, 64, 48
2, 60350, Control_c, 0, 64, 48
2, 60381, Control_c, 0, 67, 0
2, 60444,End_track
0, 0, End_of_file
