0, 0, Header, 1, 2, 384
1, 0, Start_track
1, 0, Tempo, 500000
1, 0, Time_signature, 4, 2, 24, 8
1, 1, End_track
2, 0, Start_track
2, 0, Title_t, "Song04-07.MID"
2, 0, Program_c, 0, 0
2, 0, Control_c, 0, 64, 0
2, 802, Control_c, 0, 64, 56
2, 818, Control_c, 0, 64, 63
2, 833, Control_c, 0, 64, 66
2, 835, Note_on_c, 0, 56, 67
2, 835, Note_on_c, 0, 63, 90
2, 837, Note_on_c, 0, 60, 67
2, 848, Control_c, 0, 64, 69
2, 864, Control_c, 0, 64, 71
2, 878, Control_c, 0, 64, 73
2, 894, Control_c, 0, 64, 75
2, 909, Control_c, 0, 64, 76
2, 924, Control_c, 0, 64, 78
2, 940, Control_c, 0, 64, 80
2, 954, Control_c, 0, 64, 81
2, 969, Control_c, 0, 64, 82
2, 991, Note_on_c, 0, 60, 0
2, 998, Note_on_c, 0, 56, 0
2, 998, Note_on_c, 0, 63, 0
2, 999, Control_c, 0, 64, 82
2, 1062, Control_c, 0, 64, 83
2, 1106, Note_on_c, 0, 68, 81
2, 1194, Note_on_c, 0, 67, 89
2, 1206, Control_c, 0, 64, 82
2, 1217, Note_on_c, 0, 68, 0
2, 1222, Control_c, 0, 64, 78
2, 1236, Control_c, 0, 64, 69
2, 1251, Control_c, 0, 64, 39
2, 1267, Control_c, 0, 64, 0
2, 1293, Note_on_c, 0, 67, 0
2, 1294, Note_on_c, 0, 68, 72
2, 1317, Note_on_c, 0, 68, 0
2, 1520, Note_on_c, 0, 72, 72
2, 1565, Note_on_c, 0, 72, 0
2, 1742, Note_on_c, 0, 63, 74
2, 1831, Note_on_c, 0, 63, 0
2, 1958, Note_on_c, 0, 68, 80
2, 1986, Note_on_c, 0, 68, 0
2, 2191, Note_on_c, 0, 63, 93
2, 2192, Note_on_c, 0, 55, 77
2, 2195, Note_on_c, 0, 58, 74
2, 2277, Control_c, 0, 64, 30
2, 2293, Control_c, 0, 64, 44
2, 2308, Control_c, 0, 64, 49
2, 2323, Control_c, 0, 64, 52
2, 2339, Control_c, 0, 64, 53
2, 2354, Control_c, 0, 64, 54
2, 2399, Control_c, 0, 64, 53
2, 2411, Note_on_c, 0, 55, 0
2, 2415, Control_c, 0, 64, 52
2, 2423, Note_on_c, 0, 63, 0
2, 2427, Note_on_c, 0, 70, 82
2, 2430, Control_c, 0, 64, 50
2, 2440, Note_on_c, 0, 58, 0
2, 2445, Control_c, 0, 64, 46
2, 2461, Control_c, 0, 64, 39
2, 2476, Control_c, 0, 64, 19
2, 2491, Control_c, 0, 64, 0
2, 2509, Note_on_c, 0, 68, 90
2, 2524, Note_on_c, 0, 70, 0
2, 2595, Note_on_c, 0, 70, 85
2, 2602, Note_on_c, 0, 68, 0
2, 2657, Note_on_c, 0, 70, 0
2, 2825, Note_on_c, 0, 73, 78
2, 2862, Note_on_c, 0, 73, 0
2, 3023, Note_on_c, 0, 63, 65
2, 3055, Note_on_c, 0, 63, 0
2, 3214, Control_c, 0, 67, 8
2, 3229, Control_c, 0, 67, 9
2, 3239, Note_on_c, 0, 70, 70
2, 3244, Control_c, 0, 67, 10
2, 3258, Control_c, 0, 67, 12
2, 3273, Control_c, 0, 67, 13
2, 3281, Note_on_c, 0, 70, 0
2, 3304, Control_c, 0, 67, 13
2, 3395, Control_c, 0, 64, 47
2, 3395, Control_c, 0, 67, 13
2, 3418, Control_c, 0, 64, 60
2, 3433, Control_c, 0, 64, 63
2, 3448, Control_c, 0, 64, 66
2, 3458, Note_on_c, 0, 72, 75
2, 3463, Control_c, 0, 64, 68
2, 3478, Control_c, 0, 64, 70
2, 3485, Note_on_c, 0, 72, 0
2, 3495, Control_c, 0, 64, 73
2, 3495, Control_c, 0, 67, 12
2, 3509, Control_c, 0, 64, 75
2, 3524, Control_c, 0, 64, 76
2, 3540, Control_c, 0, 64, 77
2, 3540, Control_c, 0, 67, 12
2, 3555, Control_c, 0, 64, 78
2, 3570, Control_c, 0, 64, 78
2, 3678, Note_on_c, 0, 56, 71
2, 3750, Note_on_c, 0, 56, 0
2, 3752, Note_on_c, 0, 55, 66
2, 3783, Control_c, 0, 64, 78
2, 3798, Control_c, 0, 64, 77
2, 3813, Control_c, 0, 64, 75
2, 3813, Control_c, 0, 67, 11
2, 3828, Control_c, 0, 64, 73
2, 3843, Control_c, 0, 64, 68
2, 3850, Note_on_c, 0, 55, 0
2, 3859, Control_c, 0, 64, 63
2, 3859, Note_on_c, 0, 75, 58
2, 3861, Note_on_c, 0, 56, 67
2, 3862, Note_on_c, 0, 80, 93
2, 3866, Note_on_c, 0, 72, 75
2, 3874, Control_c, 0, 64, 48
2, 3874, Control_c, 0, 67, 11
2, 3888, Control_c, 0, 64, 0
2, 3888, Note_on_c, 0, 56, 0
2, 3950, Control_c, 0, 67, 10
2, 4093, Note_on_c, 0, 60, 59
2, 4111, Note_on_c, 0, 75, 0
2, 4121, Note_on_c, 0, 60, 0
2, 4277, Control_c, 0, 67, 11
2, 4294, Note_on_c, 0, 72, 0
2, 4309, Control_c, 0, 67, 11
2, 4313, Note_on_c, 0, 51, 65
2, 4350, Note_on_c, 0, 51, 0
2, 4490, Control_c, 0, 67, 11
2, 4500, Note_on_c, 0, 75, 77
2, 4504, Note_on_c, 0, 56, 64
2, 4506, Note_on_c, 0, 72, 67
2, 4509, Note_on_c, 0, 80, 0
2, 4527, Note_on_c, 0, 72, 0
2, 4530, Note_on_c, 0, 56, 0
2, 4530, Note_on_c, 0, 75, 0
2, 4628, Control_c, 0, 67, 10
2, 4658, Control_c, 0, 67, 10
2, 4688, Control_c, 0, 67, 9
2, 4704, Control_c, 0, 64, 16
2, 4719, Control_c, 0, 64, 61
2, 4719, Control_c, 0, 67, 10
2, 4723, Note_on_c, 0, 73, 82
2, 4724, Note_on_c, 0, 70, 82
2, 4734, Control_c, 0, 64, 65
2, 4747, Note_on_c, 0, 70, 0
2, 4749, Control_c, 0, 64, 67
2, 4749, Control_c, 0, 67, 10
2, 4759, Note_on_c, 0, 73, 0
2, 4764, Control_c, 0, 64, 69
2, 4780, Control_c, 0, 64, 70
2, 4795, Control_c, 0, 64, 71
2, 4809, Control_c, 0, 64, 72
2, 4825, Control_c, 0, 64, 73
2, 4901, Control_c, 0, 64, 73
2, 4931, Control_c, 0, 67, 10
2, 4966, Note_on_c, 0, 58, 75
2, 5016, Control_c, 0, 67, 9
2, 5038, Note_on_c, 0, 56, 76
2, 5040, Note_on_c, 0, 58, 0
2, 5045, Control_c, 0, 67, 9
2, 5061, Control_c, 0, 64, 73
2, 5061, Control_c, 0, 67, 8
2, 5075, Control_c, 0, 64, 72
2, 5090, Control_c, 0, 64, 71
2, 5106, Control_c, 0, 64, 69
2, 5122, Control_c, 0, 64, 66
2, 5122, Control_c, 0, 67, 8
2, 5138, Control_c, 0, 64, 63
2, 5139, Note_on_c, 0, 56, 0
2, 5149, Note_on_c, 0, 58, 76
2, 5155, Control_c, 0, 64, 57
2, 5159, Note_on_c, 0, 79, 94
2, 5170, Control_c, 0, 64, 50
2, 5170, Control_c, 0, 67, 0
2, 5181, Note_on_c, 0, 58, 0
2, 5185, Control_c, 0, 64, 38
2, 5200, Control_c, 0, 64, 0
2, 5247, Control_c, 0, 67, 8
2, 5352, Control_c, 0, 67, 8
2, 5392, Note_on_c, 0, 61, 70
2, 5429, Note_on_c, 0, 61, 0
2, 5567, Control_c, 0, 67, 8
2, 5582, Note_on_c, 0, 51, 67
2, 5631, Note_on_c, 0, 51, 0
2, 5642, Control_c, 0, 67, 8
2, 5673, Note_on_c, 0, 79, 0
2, 5791, Note_on_c, 0, 79, 77
2, 5797, Note_on_c, 0, 58, 66
2, 5803, Note_on_c, 0, 70, 65
2, 5821, Note_on_c, 0, 79, 0
2, 5823, Note_on_c, 0, 73, 33
2, 5825, Note_on_c, 0, 70, 0
2, 5826, Note_on_c, 0, 58, 0
2, 5857, Note_on_c, 0, 73, 0
2, 5970, Control_c, 0, 67, 8
2, 6023, Note_on_c, 0, 80, 93
2, 6026, Note_on_c, 0, 68, 84
2, 6030, Control_c, 0, 64, 61
2, 6030, Control_c, 0, 67, 8
2, 6034, Note_on_c, 0, 75, 71
2, 6046, Control_c, 0, 64, 75
2, 6052, Note_on_c, 0, 68, 0
2, 6061, Control_c, 0, 64, 83
2, 6066, Note_on_c, 0, 75, 0
2, 6068, Note_on_c, 0, 80, 0
2, 6076, Control_c, 0, 64, 91
2, 6092, Control_c, 0, 64, 93
2, 6106, Control_c, 0, 64, 94
2, 6121, Control_c, 0, 64, 95
2, 6137, Control_c, 0, 64, 95
2, 6137, Control_c, 0, 67, 8
2, 6242, Control_c, 0, 64, 95
2, 6258, Control_c, 0, 67, 0
2, 6262, Note_on_c, 0, 60, 72
2, 6339, Note_on_c, 0, 58, 71
2, 6342, Note_on_c, 0, 60, 0
2, 6380, Control_c, 0, 64, 94
2, 6394, Control_c, 0, 64, 93
2, 6410, Control_c, 0, 64, 92
2, 6425, Control_c, 0, 64, 90
2, 6426, Note_on_c, 0, 58, 0
2, 6434, Note_on_c, 0, 75, 97
2, 6440, Control_c, 0, 64, 87
2, 6447, Note_on_c, 0, 60, 64
2, 6456, Control_c, 0, 64, 84
2, 6456, Control_c, 0, 67, 8
2, 6471, Control_c, 0, 64, 80
2, 6471, Control_c, 0, 67, 0
2, 6487, Note_on_c, 0, 60, 0
2, 6493, Control_c, 0, 64, 75
2, 6508, Control_c, 0, 64, 70
2, 6523, Control_c, 0, 64, 62
2, 6539, Control_c, 0, 64, 22
2, 6554, Control_c, 0, 64, 0
2, 6682, Note_on_c, 0, 63, 63
2, 6721, Note_on_c, 0, 63, 0
2, 6768, Control_c, 0, 67, 8
2, 6829, Control_c, 0, 67, 0
2, 6896, Note_on_c, 0, 56, 58
2, 6939, Note_on_c, 0, 56, 0
2, 6997, Note_on_c, 0, 75, 0
2, 7086, Note_on_c, 0, 60, 51
2, 7086, Note_on_c, 0, 75, 72
2, 7091, Note_on_c, 0, 70, 55
2, 7110, Note_on_c, 0, 60, 0
2, 7110, Note_on_c, 0, 70, 0
2, 7122, Note_on_c, 0, 75, 0
2, 7261, Control_c, 0, 67, 8
2, 7306, Control_c, 0, 64, 60
2, 7312, Note_on_c, 0, 53, 58
2, 7321, Control_c, 0, 64, 64
2, 7321, Control_c, 0, 67, 8
2, 7321, Note_on_c, 0, 75, 67
2, 7324, Note_on_c, 0, 68, 55
2, 7337, Control_c, 0, 64, 65
2, 7351, Control_c, 0, 64, 69
2, 7367, Control_c, 0, 64, 72
2, 7370, Note_on_c, 0, 68, 0
2, 7382, Control_c, 0, 64, 75
2, 7397, Control_c, 0, 64, 76
2, 7401, Note_on_c, 0, 75, 0
2, 7404, Note_on_c, 0, 53, 0
2, 7413, Control_c, 0, 64, 77
2, 7519, Control_c, 0, 67, 8
2, 7559, Note_on_c, 0, 80, 71
2, 7564, Control_c, 0, 64, 76
2, 7564, Control_c, 0, 67, 0
2, 7596, Control_c, 0, 64, 76
2, 7612, Control_c, 0, 64, 74
2, 7627, Control_c, 0, 64, 73
2, 7640, Note_on_c, 0, 79, 71
2, 7641, Control_c, 0, 64, 70
2, 7648, Note_on_c, 0, 80, 0
2, 7657, Control_c, 0, 64, 67
2, 7672, Control_c, 0, 64, 63
2, 7688, Control_c, 0, 64, 56
2, 7703, Control_c, 0, 64, 42
2, 7713, Note_on_c, 0, 65, 70
2, 7717, Control_c, 0, 64, 0
2, 7734, Note_on_c, 0, 79, 0
2, 7740, Note_on_c, 0, 80, 76
2, 7899, Note_on_c, 0, 80, 0
2, 7939, Note_on_c, 0, 65, 0
2, 7943, Note_on_c, 0, 77, 74
2, 7986, Note_on_c, 0, 77, 0
2, 8171, Note_on_c, 0, 72, 70
2, 8207, Note_on_c, 0, 72, 0
2, 8374, Note_on_c, 0, 75, 68
2, 8403, Note_on_c, 0, 75, 0
2, 8593, Note_on_c, 0, 73, 76
2, 8599, Note_on_c, 0, 70, 67
2, 8843, Note_on_c, 0, 58, 68
2, 8917, Note_on_c, 0, 58, 0
2, 8920, Note_on_c, 0, 56, 76
2, 8998, Note_on_c, 0, 70, 0
2, 9021, Note_on_c, 0, 58, 78
2, 9022, Note_on_c, 0, 56, 0
2, 9027, Note_on_c, 0, 80, 83
2, 9035, Note_on_c, 0, 73, 0
2, 9070, Note_on_c, 0, 58, 0
2, 9256, Note_on_c, 0, 61, 75
2, 9299, Note_on_c, 0, 61, 0
2, 9458, Note_on_c, 0, 55, 66
2, 9510, Note_on_c, 0, 55, 0
2, 9595, Control_c, 0, 67, 8
2, 9657, Control_c, 0, 67, 8
2, 9664, Note_on_c, 0, 68, 71
2, 9666, Note_on_c, 0, 58, 68
2, 9672, Note_on_c, 0, 73, 65
2, 9683, Note_on_c, 0, 80, 0
2, 9688, Control_c, 0, 67, 9
2, 9692, Note_on_c, 0, 68, 0
2, 9695, Note_on_c, 0, 58, 0
2, 9703, Control_c, 0, 67, 9
2, 9704, Note_on_c, 0, 73, 0
2, 9733, Control_c, 0, 67, 10
2, 9748, Control_c, 0, 67, 10
2, 9869, Control_c, 0, 67, 11
2, 9884, Control_c, 0, 64, 37
2, 9884, Control_c, 0, 67, 11
2, 9888, Note_on_c, 0, 51, 79
2, 9900, Control_c, 0, 64, 53
2, 9900, Control_c, 0, 67, 12
2, 9901, Note_on_c, 0, 67, 63
2, 9902, Note_on_c, 0, 73, 70
2, 9914, Control_c, 0, 64, 61
2, 9914, Note_on_c, 0, 51, 0
2, 9919, Note_on_c, 0, 67, 0
2, 9930, Control_c, 0, 64, 65
2, 9935, Note_on_c, 0, 73, 0
2, 9945, Control_c, 0, 64, 67
2, 9960, Control_c, 0, 64, 69
2, 9976, Control_c, 0, 64, 70
2, 9976, Control_c, 0, 67, 12
2, 9990, Control_c, 0, 64, 72
2, 9990, Control_c, 0, 67, 13
2, 10006, Control_c, 0, 64, 73
2, 10021, Control_c, 0, 64, 75
2, 10021, Control_c, 0, 67, 13
2, 10037, Control_c, 0, 64, 76
2, 10053, Control_c, 0, 64, 77
2, 10068, Control_c, 0, 64, 78
2, 10098, Control_c, 0, 67, 13
2, 10131, Note_on_c, 0, 82, 76
2, 10189, Control_c, 0, 64, 77
2, 10201, Note_on_c, 0, 82, 0
2, 10204, Control_c, 0, 64, 77
2, 10204, Note_on_c, 0, 80, 82
2, 10220, Control_c, 0, 64, 75
2, 10234, Control_c, 0, 64, 73
2, 10250, Control_c, 0, 64, 70
2, 10265, Control_c, 0, 64, 65
2, 10280, Control_c, 0, 64, 57
2, 10296, Control_c, 0, 64, 39
2, 10303, Note_on_c, 0, 63, 93
2, 10303, Note_on_c, 0, 82, 85
2, 10310, Note_on_c, 0, 80, 0
2, 10311, Control_c, 0, 64, 0
2, 10477, Note_on_c, 0, 82, 0
2, 10486, Control_c, 0, 67, 13
2, 10516, Control_c, 0, 67, 14
2, 10544, Note_on_c, 0, 79, 78
2, 10561, Control_c, 0, 67, 14
2, 10583, Note_on_c, 0, 79, 0
2, 10589, Note_on_c, 0, 63, 0
2, 10608, Control_c, 0, 67, 14
2, 10699, Control_c, 0, 67, 13
2, 10713, Control_c, 0, 67, 13
2, 10748, Note_on_c, 0, 73, 71
2, 10783, Note_on_c, 0, 73, 0
2, 10789, Control_c, 0, 67, 12
2, 10866, Control_c, 0, 67, 12
2, 10935, Note_on_c, 0, 82, 78
2, 10946, Note_on_c, 0, 73, 63
2, 10947, Note_on_c, 0, 67, 52
2, 10956, Control_c, 0, 67, 12
2, 10969, Note_on_c, 0, 73, 0
2, 10971, Note_on_c, 0, 67, 0
2, 10971, Note_on_c, 0, 82, 0
2, 11032, Control_c, 0, 67, 13
2, 11182, Note_on_c, 0, 72, 72
2, 11185, Note_on_c, 0, 68, 58
2, 11345, Control_c, 0, 67, 12
2, 11375, Control_c, 0, 67, 12
2, 11419, Note_on_c, 0, 56, 68
2, 11466, Control_c, 0, 67, 11
2, 11473, Note_on_c, 0, 72, 0
2, 11491, Note_on_c, 0, 56, 0
2, 11494, Note_on_c, 0, 68, 0
2, 11501, Note_on_c, 0, 55, 66
2, 11527, Control_c, 0, 67, 11
2, 11592, Note_on_c, 0, 56, 82
2, 11598, Note_on_c, 0, 55, 0
2, 11626, Note_on_c, 0, 56, 0
2, 11648, Control_c, 0, 67, 11
2, 11720, Note_on_c, 0, 75, 59
2, 11785, Control_c, 0, 67, 11
2, 11798, Note_on_c, 0, 75, 0
2, 11803, Note_on_c, 0, 60, 61
2, 11816, Control_c, 0, 67, 10
2, 11824, Note_on_c, 0, 77, 60
2, 11825, Note_on_c, 0, 60, 0
2, 11917, Note_on_c, 0, 79, 67
2, 11942, Note_on_c, 0, 77, 0
2, 11984, Note_on_c, 0, 79, 0
2, 11990, Control_c, 0, 67, 11
2, 12009, Note_on_c, 0, 53, 58
2, 12012, Note_on_c, 0, 80, 73
2, 12021, Control_c, 0, 67, 11
2, 12048, Note_on_c, 0, 53, 0
2, 12116, Note_on_c, 0, 77, 63
2, 12120, Note_on_c, 0, 80, 0
2, 12188, Control_c, 0, 67, 12
2, 12209, Note_on_c, 0, 56, 55
2, 12213, Note_on_c, 0, 77, 0
2, 12216, Note_on_c, 0, 74, 60
2, 12239, Note_on_c, 0, 56, 0
2, 12306, Note_on_c, 0, 77, 61
2, 12311, Note_on_c, 0, 74, 0
2, 12355, Control_c, 0, 67, 11
2, 12388, Note_on_c, 0, 77, 0
2, 12406, Note_on_c, 0, 50, 57
2, 12416, Control_c, 0, 64, 45
2, 12416, Control_c, 0, 67, 12
2, 12418, Note_on_c, 0, 70, 73
2, 12431, Control_c, 0, 64, 0
2, 12431, Control_c, 0, 67, 12
2, 12436, Note_on_c, 0, 50, 0
2, 12461, Control_c, 0, 67, 12
2, 12524, Control_c, 0, 67, 11
2, 12637, Control_c, 0, 67, 11
2, 12643, Note_on_c, 0, 55, 72
2, 12653, Control_c, 0, 67, 10
2, 12730, Note_on_c, 0, 53, 74
2, 12733, Note_on_c, 0, 55, 0
2, 12757, Note_on_c, 0, 70, 0
2, 12759, Control_c, 0, 67, 10
2, 12775, Control_c, 0, 67, 9
2, 12830, Note_on_c, 0, 53, 0
2, 12832, Note_on_c, 0, 55, 82
2, 12866, Control_c, 0, 67, 10
2, 12882, Note_on_c, 0, 55, 0
2, 12938, Note_on_c, 0, 74, 61
2, 12972, Control_c, 0, 67, 10
2, 13001, Note_on_c, 0, 74, 0
2, 13035, Note_on_c, 0, 75, 66
2, 13036, Note_on_c, 0, 58, 55
2, 13063, Note_on_c, 0, 58, 0
2, 13103, Note_on_c, 0, 75, 0
2, 13122, Note_on_c, 0, 77, 69
2, 13225, Note_on_c, 0, 51, 53
2, 13231, Note_on_c, 0, 77, 0
2, 13237, Note_on_c, 0, 79, 64
2, 13260, Note_on_c, 0, 51, 0
2, 13327, Note_on_c, 0, 75, 63
2, 13347, Note_on_c, 0, 79, 0
2, 13431, Note_on_c, 0, 75, 0
2, 13436, Note_on_c, 0, 55, 52
2, 13437, Note_on_c, 0, 72, 67
2, 13481, Note_on_c, 0, 55, 0
2, 13525, Note_on_c, 0, 72, 0
2, 13537, Note_on_c, 0, 75, 63
2, 13568, Note_on_c, 0, 75, 0
2, 13631, Note_on_c, 0, 48, 58
2, 13634, Control_c, 0, 67, 11
2, 13643, Note_on_c, 0, 68, 77
2, 13664, Control_c, 0, 67, 11
2, 13671, Note_on_c, 0, 48, 0
2, 13710, Control_c, 0, 67, 11
2, 13736, Note_on_c, 0, 70, 68
2, 13745, Note_on_c, 0, 68, 0
2, 13786, Control_c, 0, 67, 11
2, 13802, Note_on_c, 0, 70, 0
2, 13833, Note_on_c, 0, 53, 65
2, 13836, Note_on_c, 0, 67, 71
2, 13921, Note_on_c, 0, 53, 0
2, 13922, Note_on_c, 0, 67, 0
2, 13930, Note_on_c, 0, 70, 72
2, 13931, Note_on_c, 0, 51, 67
2, 13952, Control_c, 0, 67, 11
2, 13984, Note_on_c, 0, 70, 0
2, 13999, Note_on_c, 0, 51, 0
2, 14035, Note_on_c, 0, 53, 79
2, 14038, Note_on_c, 0, 68, 74
2, 14077, Note_on_c, 0, 53, 0
2, 14110, Note_on_c, 0, 68, 0
2, 14146, Note_on_c, 0, 72, 65
2, 14221, Note_on_c, 0, 72, 0
2, 14244, Note_on_c, 0, 74, 64
2, 14248, Note_on_c, 0, 56, 53
2, 14273, Note_on_c, 0, 56, 0
2, 14334, Note_on_c, 0, 75, 67
2, 14349, Note_on_c, 0, 74, 0
2, 14372, Control_c, 0, 67, 10
2, 14441, Note_on_c, 0, 50, 58
2, 14448, Note_on_c, 0, 77, 63
2, 14459, Note_on_c, 0, 75, 0
2, 14478, Note_on_c, 0, 50, 0
2, 14543, Note_on_c, 0, 74, 68
2, 14563, Note_on_c, 0, 77, 0
2, 14603, Note_on_c, 0, 74, 0
2, 14641, Note_on_c, 0, 53, 65
2, 14650, Note_on_c, 0, 70, 68
2, 14660, Control_c, 0, 67, 10
2, 14676, Note_on_c, 0, 53, 0
2, 14736, Control_c, 0, 67, 9
2, 14738, Note_on_c, 0, 70, 0
2, 14747, Note_on_c, 0, 74, 65
2, 14800, Note_on_c, 0, 74, 0
2, 14827, Control_c, 0, 67, 9
2, 14840, Note_on_c, 0, 46, 64
2, 14850, Note_on_c, 0, 67, 69
2, 14873, Control_c, 0, 67, 8
2, 14893, Note_on_c, 0, 46, 0
2, 14949, Note_on_c, 0, 68, 70
2, 14950, Note_on_c, 0, 67, 0
2, 15015, Note_on_c, 0, 68, 0
2, 15043, Note_on_c, 0, 51, 74
2, 15047, Note_on_c, 0, 65, 76
2, 15099, Note_on_c, 0, 51, 0
2, 15132, Note_on_c, 0, 50, 66
2, 15134, Note_on_c, 0, 65, 0
2, 15134, Note_on_c, 0, 68, 78
2, 15197, Note_on_c, 0, 68, 0
2, 15215, Note_on_c, 0, 51, 77
2, 15221, Note_on_c, 0, 50, 0
2, 15230, Control_c, 0, 67, 9
2, 15239, Note_on_c, 0, 67, 78
2, 15251, Note_on_c, 0, 51, 0
2, 15307, Control_c, 0, 67, 9
2, 15331, Note_on_c, 0, 70, 72
2, 15345, Note_on_c, 0, 67, 0
2, 15427, Note_on_c, 0, 70, 0
2, 15431, Note_on_c, 0, 72, 69
2, 15438, Note_on_c, 0, 55, 55
2, 15461, Note_on_c, 0, 55, 0
2, 15510, Note_on_c, 0, 74, 67
2, 15519, Control_c, 0, 67, 10
2, 15549, Note_on_c, 0, 72, 0
2, 15580, Control_c, 0, 67, 10
2, 15600, Note_on_c, 0, 74, 0
2, 15616, Note_on_c, 0, 75, 71
2, 15626, Note_on_c, 0, 48, 58
2, 15673, Note_on_c, 0, 48, 0
2, 15725, Note_on_c, 0, 72, 60
2, 15739, Note_on_c, 0, 75, 0
2, 15815, Note_on_c, 0, 72, 0
2, 15823, Note_on_c, 0, 68, 66
2, 15836, Note_on_c, 0, 51, 49
2, 15871, Note_on_c, 0, 51, 0
2, 15903, Note_on_c, 0, 68, 0
2, 15921, Note_on_c, 0, 72, 65
2, 15990, Note_on_c, 0, 72, 0
2, 16031, Note_on_c, 0, 44, 64
2, 16031, Note_on_c, 0, 65, 74
2, 16075, Note_on_c, 0, 44, 0
2, 16095, Note_on_c, 0, 65, 0
2, 16139, Note_on_c, 0, 75, 66
2, 16223, Note_on_c, 0, 75, 0
2, 16228, Note_on_c, 0, 53, 63
2, 16234, Note_on_c, 0, 74, 65
2, 16312, Note_on_c, 0, 53, 0
2, 16331, Note_on_c, 0, 51, 63
2, 16331, Note_on_c, 0, 75, 73
2, 16336, Note_on_c, 0, 74, 0
2, 16347, Control_c, 0, 67, 10
2, 16415, Note_on_c, 0, 75, 0
2, 16425, Note_on_c, 0, 51, 0
2, 16426, Note_on_c, 0, 68, 92
2, 16429, Note_on_c, 0, 53, 75
2, 16480, Note_on_c, 0, 53, 0
2, 16501, Note_on_c, 0, 68, 0
2, 16537, Note_on_c, 0, 75, 67
2, 16613, Note_on_c, 0, 75, 0
2, 16641, Note_on_c, 0, 74, 63
2, 16650, Note_on_c, 0, 56, 65
2, 16675, Control_c, 0, 67, 9
2, 16685, Note_on_c, 0, 56, 0
2, 16729, Note_on_c, 0, 74, 0
2, 16731, Note_on_c, 0, 75, 70
2, 16814, Note_on_c, 0, 75, 0
2, 16842, Note_on_c, 0, 65, 75
2, 16848, Note_on_c, 0, 50, 59
2, 16892, Note_on_c, 0, 50, 0
2, 16914, Note_on_c, 0, 65, 0
2, 16948, Note_on_c, 0, 75, 61
2, 17010, Note_on_c, 0, 75, 0
2, 17050, Note_on_c, 0, 53, 63
2, 17056, Note_on_c, 0, 74, 59
2, 17092, Note_on_c, 0, 53, 0
2, 17141, Note_on_c, 0, 75, 67
2, 17144, Note_on_c, 0, 74, 0
2, 17243, Note_on_c, 0, 75, 0
2, 17261, Note_on_c, 0, 46, 63
2, 17263, Note_on_c, 0, 67, 77
2, 17309, Note_on_c, 0, 46, 0
2, 17342, Note_on_c, 0, 67, 0
2, 17367, Note_on_c, 0, 75, 66
2, 17440, Note_on_c, 0, 75, 0
2, 17472, Note_on_c, 0, 74, 69
2, 17477, Note_on_c, 0, 55, 66
2, 17551, Note_on_c, 0, 55, 0
2, 17560, Note_on_c, 0, 75, 79
2, 17562, Note_on_c, 0, 53, 68
2, 17574, Note_on_c, 0, 74, 0
2, 17652, Note_on_c, 0, 75, 0
2, 17653, Note_on_c, 0, 53, 0
2, 17655, Note_on_c, 0, 70, 90
2, 17659, Note_on_c, 0, 55, 75
2, 17701, Note_on_c, 0, 55, 0
2, 17714, Note_on_c, 0, 70, 0
2, 17750, Note_on_c, 0, 75, 69
2, 17821, Note_on_c, 0, 75, 0
2, 17860, Note_on_c, 0, 74, 63
2, 17866, Note_on_c, 0, 58, 62
2, 17891, Note_on_c, 0, 58, 0
2, 17947, Note_on_c, 0, 75, 68
2, 17959, Note_on_c, 0, 74, 0
2, 18025, Note_on_c, 0, 75, 0
2, 18027, Control_c, 0, 67, 9
2, 18057, Note_on_c, 0, 67, 75
2, 18063, Note_on_c, 0, 51, 49
2, 18113, Note_on_c, 0, 51, 0
2, 18128, Note_on_c, 0, 67, 0
2, 18160, Note_on_c, 0, 75, 64
2, 18236, Note_on_c, 0, 75, 0
2, 18265, Note_on_c, 0, 55, 52
2, 18269, Note_on_c, 0, 74, 63
2, 18311, Note_on_c, 0, 55, 0
2, 18343, Note_on_c, 0, 74, 0
2, 18360, Note_on_c, 0, 75, 69
2, 18431, Note_on_c, 0, 75, 0
2, 18452, Note_on_c, 0, 48, 61
2, 18453, Note_on_c, 0, 68, 84
2, 18481, Note_on_c, 0, 48, 0
2, 18483, Control_c, 0, 67, 9
2, 18524, Note_on_c, 0, 68, 0
2, 18551, Note_on_c, 0, 75, 72
2, 18624, Note_on_c, 0, 75, 0
2, 18655, Note_on_c, 0, 74, 63
2, 18668, Note_on_c, 0, 56, 71
2, 18712, Control_c, 0, 67, 9
2, 18721, Note_on_c, 0, 56, 0
2, 18744, Note_on_c, 0, 55, 62
2, 18744, Note_on_c, 0, 75, 72
2, 18780, Note_on_c, 0, 74, 0
2, 18844, Note_on_c, 0, 75, 0
2, 18847, Note_on_c, 0, 72, 79
2, 18848, Note_on_c, 0, 56, 83
2, 18851, Note_on_c, 0, 55, 0
2, 18875, Note_on_c, 0, 56, 0
2, 18911, Note_on_c, 0, 72, 0
2, 18917, Control_c, 0, 67, 9
2, 18951, Note_on_c, 0, 75, 74
2, 19034, Note_on_c, 0, 75, 0
2, 19061, Note_on_c, 0, 70, 70
2, 19069, Note_on_c, 0, 60, 52
2, 19090, Note_on_c, 0, 60, 0
2, 19122, Note_on_c, 0, 70, 0
2, 19163, Note_on_c, 0, 75, 67
2, 19204, Note_on_c, 0, 75, 0
2, 19254, Note_on_c, 0, 53, 55
2, 19259, Note_on_c, 0, 68, 69
2, 19295, Note_on_c, 0, 53, 0
2, 19297, Note_on_c, 0, 68, 0
2, 19350, Note_on_c, 0, 75, 68
2, 19412, Note_on_c, 0, 75, 0
2, 19449, Note_on_c, 0, 56, 57
2, 19450, Control_c, 0, 67, 9
2, 19458, Note_on_c, 0, 67, 66
2, 19483, Note_on_c, 0, 56, 0
2, 19496, Control_c, 0, 67, 8
2, 19512, Note_on_c, 0, 67, 0
2, 19552, Note_on_c, 0, 75, 64
2, 19633, Note_on_c, 0, 75, 0
2, 19664, Note_on_c, 0, 50, 54
2, 19664, Note_on_c, 0, 65, 65
2, 19670, Control_c, 0, 67, 8
2, 19708, Note_on_c, 0, 50, 0
2, 19728, Note_on_c, 0, 65, 0
2, 19768, Note_on_c, 0, 75, 64
2, 19825, Note_on_c, 0, 75, 0
2, 19847, Note_on_c, 0, 53, 52
2, 19861, Note_on_c, 0, 67, 68
2, 19904, Note_on_c, 0, 53, 0
2, 19930, Note_on_c, 0, 67, 0
2, 19955, Note_on_c, 0, 75, 68
2, 20005, Note_on_c, 0, 75, 0
2, 20049, Note_on_c, 0, 68, 78
2, 20058, Note_on_c, 0, 46, 65
2, 20103, Note_on_c, 0, 46, 0
2, 20134, Note_on_c, 0, 68, 0
2, 20152, Note_on_c, 0, 74, 65
2, 20233, Note_on_c, 0, 75, 70
2, 20240, Note_on_c, 0, 50, 65
2, 20243, Note_on_c, 0, 74, 0
2, 20280, Note_on_c, 0, 50, 0
2, 20342, Note_on_c, 0, 75, 0
2, 20346, Note_on_c, 0, 77, 71
2, 20394, Note_on_c, 0, 77, 0
2, 20442, Note_on_c, 0, 51, 72
2, 20451, Note_on_c, 0, 67, 66
2, 20487, Note_on_c, 0, 51, 0
2, 20531, Note_on_c, 0, 70, 67
2, 20541, Note_on_c, 0, 67, 0
2, 20581, Note_on_c, 0, 70, 0
2, 20633, Note_on_c, 0, 48, 68
2, 20638, Note_on_c, 0, 68, 72
2, 20659, Note_on_c, 0, 48, 0
2, 20715, Note_on_c, 0, 68, 0
2, 20727, Note_on_c, 0, 72, 68
2, 20767, Note_on_c, 0, 72, 0
2, 20828, Note_on_c, 0, 70, 73
2, 20834, Note_on_c, 0, 43, 86
2, 20874, Note_on_c, 0, 43, 0
2, 20921, Note_on_c, 0, 75, 69
2, 20925, Note_on_c, 0, 70, 0
2, 21009, Note_on_c, 0, 75, 0
2, 21036, Note_on_c, 0, 41, 86
2, 21038, Note_on_c, 0, 74, 61
2, 21084, Note_on_c, 0, 41, 0
2, 21105, Note_on_c, 0, 74, 0
2, 21138, Note_on_c, 0, 72, 70
2, 21242, Note_on_c, 0, 72, 0
2, 21244, Note_on_c, 0, 43, 88
2, 21254, Note_on_c, 0, 70, 69
2, 21281, Note_on_c, 0, 43, 0
2, 21343, Note_on_c, 0, 70, 0
2, 21348, Note_on_c, 0, 68, 73
2, 21439, Note_on_c, 0, 44, 94
2, 21457, Note_on_c, 0, 70, 70
2, 21473, Note_on_c, 0, 68, 0
2, 21487, Note_on_c, 0, 44, 0
2, 21527, Control_c, 0, 67, 0
2, 21530, Note_on_c, 0, 70, 0
2, 21533, Note_on_c, 0, 72, 58
2, 21565, Note_on_c, 0, 72, 0
2, 21667, Note_on_c, 0, 65, 68
2, 21671, Note_on_c, 0, 46, 88
2, 21681, Note_on_c, 0, 62, 50
2, 21709, Note_on_c, 0, 65, 0
2, 21715, Note_on_c, 0, 67, 76
2, 21749, Note_on_c, 0, 65, 60
2, 21783, Note_on_c, 0, 67, 0
2, 21998, Note_on_c, 0, 46, 0
2, 22025, Note_on_c, 0, 63, 70
2, 22037, Note_on_c, 0, 65, 0
2, 22052, Note_on_c, 0, 62, 0
2, 22055, Note_on_c, 0, 63, 0
2, 22102, Note_on_c, 0, 63, 89
2, 22110, Control_c, 0, 64, 13
2, 22125, Control_c, 0, 64, 51
2, 22141, Control_c, 0, 64, 63
2, 22155, Control_c, 0, 64, 65
2, 22163, Note_on_c, 0, 63, 0
2, 22171, Control_c, 0, 64, 67
2, 22186, Control_c, 0, 64, 69
2, 22201, Control_c, 0, 64, 71
2, 22217, Control_c, 0, 64, 73
2, 22232, Control_c, 0, 64, 74
2, 22327, Note_on_c, 0, 51, 72
2, 22370, Control_c, 0, 64, 73
2, 22394, Note_on_c, 0, 51, 0
2, 22399, Control_c, 0, 64, 73
2, 22404, Note_on_c, 0, 50, 63
2, 22430, Control_c, 0, 64, 72
2, 22445, Control_c, 0, 64, 71
2, 22461, Control_c, 0, 64, 70
2, 22476, Control_c, 0, 64, 68
2, 22492, Control_c, 0, 64, 65
2, 22503, Note_on_c, 0, 50, 0
2, 22507, Control_c, 0, 64, 63
2, 22515, Note_on_c, 0, 70, 73
2, 22517, Note_on_c, 0, 75, 89
2, 22518, Note_on_c, 0, 67, 79
2, 22522, Control_c, 0, 64, 60
2, 22523, Note_on_c, 0, 51, 64
2, 22538, Control_c, 0, 64, 56
2, 22553, Control_c, 0, 64, 51
2, 22568, Control_c, 0, 64, 43
2, 22583, Control_c, 0, 64, 32
2, 22597, Note_on_c, 0, 51, 0
2, 22598, Control_c, 0, 64, 0
2, 22751, Note_on_c, 0, 55, 54
2, 22797, Note_on_c, 0, 55, 0
2, 22812, Note_on_c, 0, 70, 0
2, 22959, Note_on_c, 0, 46, 65
2, 22999, Note_on_c, 0, 46, 0
2, 23036, Note_on_c, 0, 67, 0
2, 23162, Note_on_c, 0, 70, 75
2, 23169, Note_on_c, 0, 51, 42
2, 23171, Note_on_c, 0, 67, 62
2, 23175, Note_on_c, 0, 75, 0
2, 23192, Note_on_c, 0, 67, 0
2, 23192, Note_on_c, 0, 70, 0
2, 23198, Note_on_c, 0, 51, 0
2, 23363, Control_c, 0, 64, 39
2, 23384, Note_on_c, 0, 68, 89
2, 23385, Note_on_c, 0, 65, 82
2, 23387, Control_c, 0, 64, 52
2, 23402, Control_c, 0, 64, 57
2, 23418, Control_c, 0, 64, 61
2, 23425, Note_on_c, 0, 65, 0
2, 23432, Control_c, 0, 64, 64
2, 23447, Control_c, 0, 64, 66
2, 23455, Note_on_c, 0, 68, 0
2, 23463, Control_c, 0, 64, 67
2, 23477, Control_c, 0, 64, 68
2, 23492, Control_c, 0, 64, 69
2, 23508, Control_c, 0, 64, 70
2, 23523, Control_c, 0, 64, 71
2, 23539, Control_c, 0, 64, 71
2, 23554, Control_c, 0, 64, 72
2, 23568, Control_c, 0, 64, 72
2, 23624, Note_on_c, 0, 53, 77
2, 23708, Note_on_c, 0, 53, 0
2, 23709, Note_on_c, 0, 51, 71
2, 23737, Control_c, 0, 64, 71
2, 23752, Control_c, 0, 64, 70
2, 23766, Control_c, 0, 64, 68
2, 23782, Control_c, 0, 64, 66
2, 23794, Note_on_c, 0, 74, 94
2, 23795, Note_on_c, 0, 51, 0
2, 23797, Control_c, 0, 64, 63
2, 23804, Note_on_c, 0, 53, 69
2, 23811, Control_c, 0, 64, 60
2, 23827, Control_c, 0, 64, 57
2, 23842, Control_c, 0, 64, 52
2, 23844, Note_on_c, 0, 53, 0
2, 23858, Control_c, 0, 64, 46
2, 23873, Control_c, 0, 64, 37
2, 23887, Control_c, 0, 64, 22
2, 23903, Control_c, 0, 64, 0
2, 24031, Note_on_c, 0, 56, 66
2, 24068, Note_on_c, 0, 56, 0
2, 24242, Note_on_c, 0, 46, 70
2, 24286, Note_on_c, 0, 46, 0
2, 24325, Note_on_c, 0, 74, 0
2, 24337, Control_c, 0, 67, 8
2, 24438, Note_on_c, 0, 74, 81
2, 24440, Note_on_c, 0, 53, 60
2, 24450, Note_on_c, 0, 65, 63
2, 24457, Note_on_c, 0, 68, 47
2, 24470, Note_on_c, 0, 53, 0
2, 24474, Note_on_c, 0, 65, 0
2, 24477, Note_on_c, 0, 74, 0
2, 24483, Note_on_c, 0, 68, 0
2, 24596, Control_c, 0, 67, 8
2, 24656, Control_c, 0, 67, 9
2, 24667, Note_on_c, 0, 55, 67
2, 24667, Note_on_c, 0, 70, 84
2, 24669, Note_on_c, 0, 63, 88
2, 24669, Note_on_c, 0, 75, 89
2, 24671, Control_c, 0, 67, 9
2, 24686, Control_c, 0, 64, 72
2, 24686, Control_c, 0, 67, 10
2, 24702, Control_c, 0, 64, 75
2, 24702, Control_c, 0, 67, 11
2, 24706, Note_on_c, 0, 55, 0
2, 24717, Control_c, 0, 64, 78
2, 24717, Control_c, 0, 67, 12
2, 24731, Control_c, 0, 64, 79
2, 24736, Note_on_c, 0, 70, 0
2, 24743, Note_on_c, 0, 75, 0
2, 24747, Control_c, 0, 64, 79
2, 24762, Control_c, 0, 64, 80
2, 24825, Control_c, 0, 64, 79
2, 24825, Control_c, 0, 67, 12
2, 24828, Note_on_c, 0, 63, 0
2, 24839, Control_c, 0, 67, 13
2, 24855, Control_c, 0, 64, 78
2, 24855, Control_c, 0, 67, 14
2, 24870, Control_c, 0, 64, 77
2, 24870, Control_c, 0, 67, 15
2, 24884, Control_c, 0, 64, 74
2, 24900, Control_c, 0, 64, 70
2, 24900, Control_c, 0, 67, 15
2, 24902, Note_on_c, 0, 63, 68
2, 24923, Control_c, 0, 64, 66
2, 24923, Control_c, 0, 67, 16
2, 24939, Control_c, 0, 64, 62
2, 24939, Control_c, 0, 67, 19
2, 24954, Control_c, 0, 64, 57
2, 24954, Control_c, 0, 67, 22
2, 24965, Note_on_c, 0, 63, 0
2, 24968, Control_c, 0, 64, 51
2, 24968, Control_c, 0, 67, 25
2, 24984, Control_c, 0, 64, 33
2, 24984, Control_c, 0, 67, 28
2, 24993, Note_on_c, 0, 62, 73
2, 24999, Control_c, 0, 64, 0
2, 24999, Control_c, 0, 67, 31
2, 25015, Control_c, 0, 67, 34
2, 25030, Control_c, 0, 67, 36
2, 25034, Note_on_c, 0, 62, 0
2, 25044, Control_c, 0, 67, 37
2, 25075, Control_c, 0, 67, 38
2, 25088, Note_on_c, 0, 63, 72
2, 25089, Control_c, 0, 67, 40
2, 25105, Control_c, 0, 67, 44
2, 25120, Control_c, 0, 67, 49
2, 25121, Note_on_c, 0, 63, 0
2, 25136, Control_c, 0, 67, 52
2, 25151, Control_c, 0, 67, 55
2, 25165, Control_c, 0, 67, 57
2, 25181, Control_c, 0, 67, 57
2, 25196, Control_c, 0, 67, 58
2, 25211, Control_c, 0, 67, 59
2, 25227, Control_c, 0, 67, 62
2, 25241, Control_c, 0, 67, 66
2, 25257, Control_c, 0, 67, 69
2, 25272, Control_c, 0, 67, 72
2, 25287, Control_c, 0, 67, 74
2, 25292, Note_on_c, 0, 51, 59
2, 25294, Note_on_c, 0, 67, 66
2, 25302, Control_c, 0, 67, 77
2, 25317, Control_c, 0, 67, 79
2, 25332, Control_c, 0, 67, 85
2, 25348, Control_c, 0, 67, 93
2, 25362, Note_on_c, 0, 67, 0
2, 25363, Control_c, 0, 67, 100
2, 25379, Control_c, 0, 67, 106
2, 25393, Note_on_c, 0, 53, 59
2, 25394, Control_c, 0, 67, 109
2, 25409, Control_c, 0, 67, 112
2, 25425, Control_c, 0, 67, 113
2, 25434, Note_on_c, 0, 51, 0
2, 25439, Control_c, 0, 67, 114
2, 25455, Control_c, 0, 67, 114
2, 25470, Control_c, 0, 67, 115
2, 25485, Control_c, 0, 67, 116
2, 25488, Note_on_c, 0, 58, 66
2, 25495, Note_on_c, 0, 53, 0
2, 25495, Note_on_c, 0, 55, 65
2, 25500, Control_c, 0, 67, 118
2, 25515, Control_c, 0, 67, 121
2, 25526, Note_on_c, 0, 58, 0
2, 25531, Control_c, 0, 67, 123
2, 25547, Control_c, 0, 67, 126
2, 25562, Control_c, 0, 67, 127
2, 25586, Note_on_c, 0, 55, 0
2, 25592, Note_on_c, 0, 53, 59
2, 25681, Note_on_c, 0, 53, 0
2, 25700, Note_on_c, 0, 63, 68
2, 25703, Note_on_c, 0, 55, 68
2, 25743, Note_on_c, 0, 63, 0
2, 25766, Note_on_c, 0, 55, 0
2, 25784, Note_on_c, 0, 51, 60
2, 25887, Note_on_c, 0, 51, 0
2, 25915, Note_on_c, 0, 58, 74
2, 26116, Note_on_c, 0, 58, 0
2, 26119, Note_on_c, 0, 46, 63
2, 26139, Note_on_c, 0, 65, 61
2, 26161, Note_on_c, 0, 46, 0
2, 26221, Note_on_c, 0, 63, 68
2, 26226, Note_on_c, 0, 65, 0
2, 26317, Note_on_c, 0, 63, 0
2, 26325, Note_on_c, 0, 65, 67
2, 26357, Note_on_c, 0, 65, 0
2, 26540, Note_on_c, 0, 68, 70
2, 26549, Note_on_c, 0, 46, 63
2, 26578, Note_on_c, 0, 68, 0
2, 26647, Note_on_c, 0, 48, 59
2, 26666, Note_on_c, 0, 46, 0
2, 26734, Note_on_c, 0, 48, 0
2, 26745, Note_on_c, 0, 50, 68
2, 26745, Note_on_c, 0, 58, 56
2, 26797, Note_on_c, 0, 58, 0
2, 26834, Note_on_c, 0, 50, 0
2, 26848, Note_on_c, 0, 48, 61
2, 26944, Note_on_c, 0, 48, 0
2, 26961, Note_on_c, 0, 50, 60
2, 26965, Note_on_c, 0, 65, 77
2, 26991, Note_on_c, 0, 65, 0
2, 27035, Note_on_c, 0, 50, 0
2, 27047, Note_on_c, 0, 46, 60
2, 27140, Note_on_c, 0, 46, 0
2, 27177, Note_on_c, 0, 51, 77
2, 27186, Note_on_c, 0, 67, 98
2, 27203, Control_c, 0, 64, 67
2, 27226, Control_c, 0, 64, 67
2, 27242, Control_c, 0, 64, 68
2, 27303, Control_c, 0, 64, 67
2, 27318, Control_c, 0, 64, 66
2, 27334, Control_c, 0, 64, 64
2, 27348, Control_c, 0, 64, 63
2, 27379, Control_c, 0, 64, 63
2, 27387, Note_on_c, 0, 51, 0
2, 27394, Control_c, 0, 64, 62
2, 27407, Note_on_c, 0, 39, 62
2, 27409, Control_c, 0, 64, 61
2, 27418, Note_on_c, 0, 70, 83
2, 27424, Control_c, 0, 64, 58
2, 27432, Note_on_c, 0, 39, 0
2, 27436, Note_on_c, 0, 67, 0
2, 27439, Control_c, 0, 64, 54
2, 27455, Control_c, 0, 64, 50
2, 27470, Control_c, 0, 64, 48
2, 27485, Control_c, 0, 64, 46
2, 27498, Note_on_c, 0, 70, 0
2, 27501, Control_c, 0, 64, 42
2, 27501, Note_on_c, 0, 68, 83
2, 27516, Control_c, 0, 64, 36
2, 27530, Control_c, 0, 64, 25
2, 27546, Control_c, 0, 64, 0
2, 27592, Note_on_c, 0, 70, 82
2, 27595, Note_on_c, 0, 68, 0
2, 27622, Note_on_c, 0, 70, 0
2, 27812, Note_on_c, 0, 75, 75
2, 27816, Note_on_c, 0, 61, 55
2, 27846, Note_on_c, 0, 75, 0
2, 27866, Note_on_c, 0, 61, 0
2, 27918, Note_on_c, 0, 60, 57
2, 28001, Note_on_c, 0, 60, 0
2, 28032, Note_on_c, 0, 67, 67
2, 28035, Note_on_c, 0, 58, 66
2, 28079, Note_on_c, 0, 67, 0
2, 28081, Note_on_c, 0, 58, 0
2, 28135, Note_on_c, 0, 60, 56
2, 28206, Note_on_c, 0, 60, 0
2, 28229, Note_on_c, 0, 56, 64
2, 28236, Note_on_c, 0, 70, 69
2, 28267, Note_on_c, 0, 70, 0
2, 28302, Note_on_c, 0, 56, 0
2, 28336, Note_on_c, 0, 58, 62
2, 28445, Note_on_c, 0, 58, 0
2, 28459, Note_on_c, 0, 63, 88
2, 28464, Note_on_c, 0, 55, 60
2, 28527, Note_on_c, 0, 55, 0
2, 28570, Note_on_c, 0, 56, 58
2, 28629, Note_on_c, 0, 63, 0
2, 28656, Note_on_c, 0, 56, 0
2, 28680, Note_on_c, 0, 67, 74
2, 28683, Note_on_c, 0, 53, 60
2, 28726, Note_on_c, 0, 53, 0
2, 28772, Note_on_c, 0, 65, 79
2, 28785, Note_on_c, 0, 67, 0
2, 28786, Note_on_c, 0, 55, 58
2, 28858, Note_on_c, 0, 55, 0
2, 28858, Note_on_c, 0, 65, 0
2, 28877, Note_on_c, 0, 67, 79
2, 28885, Note_on_c, 0, 51, 67
2, 28913, Note_on_c, 0, 67, 0
2, 28928, Note_on_c, 0, 51, 0
2, 28982, Note_on_c, 0, 53, 56
2, 29062, Note_on_c, 0, 53, 0
2, 29080, Note_on_c, 0, 70, 78
2, 29082, Note_on_c, 0, 49, 61
2, 29118, Note_on_c, 0, 70, 0
2, 29136, Note_on_c, 0, 49, 0
2, 29180, Note_on_c, 0, 51, 55
2, 29237, Note_on_c, 0, 51, 0
2, 29288, Note_on_c, 0, 63, 77
2, 29291, Note_on_c, 0, 48, 60
2, 29328, Note_on_c, 0, 63, 0
2, 29356, Note_on_c, 0, 48, 0
2, 29408, Note_on_c, 0, 49, 51
2, 29487, Note_on_c, 0, 49, 0
2, 29490, Note_on_c, 0, 67, 69
2, 29510, Note_on_c, 0, 46, 63
2, 29536, Note_on_c, 0, 67, 0
2, 29556, Note_on_c, 0, 46, 0
2, 29599, Note_on_c, 0, 48, 59
2, 29686, Note_on_c, 0, 48, 0
2, 29697, Note_on_c, 0, 44, 81
2, 29699, Control_c, 0, 64, 43
2, 29714, Control_c, 0, 64, 66
2, 29716, Note_on_c, 0, 60, 69
2, 29723, Note_on_c, 0, 44, 0
2, 29729, Control_c, 0, 64, 65
2, 29745, Control_c, 0, 64, 66
2, 29759, Control_c, 0, 64, 68
2, 29775, Control_c, 0, 64, 69
2, 29790, Control_c, 0, 64, 69
2, 29820, Control_c, 0, 64, 68
2, 29835, Control_c, 0, 64, 68
2, 29862, Note_on_c, 0, 60, 0
2, 29880, Control_c, 0, 64, 67
2, 29896, Control_c, 0, 64, 66
2, 29911, Control_c, 0, 64, 65
2, 29926, Control_c, 0, 64, 64
2, 29937, Note_on_c, 0, 63, 73
2, 29942, Control_c, 0, 64, 63
2, 29956, Control_c, 0, 64, 62
2, 29971, Control_c, 0, 64, 61
2, 29987, Control_c, 0, 64, 59
2, 30001, Control_c, 0, 64, 57
2, 30017, Control_c, 0, 64, 54
2, 30023, Note_on_c, 0, 61, 79
2, 30028, Note_on_c, 0, 63, 0
2, 30032, Control_c, 0, 64, 51
2, 30047, Control_c, 0, 64, 46
2, 30063, Control_c, 0, 64, 43
2, 30078, Control_c, 0, 64, 40
2, 30092, Control_c, 0, 64, 35
2, 30108, Control_c, 0, 64, 28
2, 30123, Control_c, 0, 64, 19
2, 30129, Note_on_c, 0, 63, 80
2, 30134, Note_on_c, 0, 61, 0
2, 30139, Control_c, 0, 64, 0
2, 30160, Note_on_c, 0, 63, 0
2, 30355, Note_on_c, 0, 78, 65
2, 30362, Note_on_c, 0, 68, 40
2, 30391, Note_on_c, 0, 68, 0
2, 30417, Note_on_c, 0, 78, 0
2, 30457, Note_on_c, 0, 77, 64
2, 30514, Note_on_c, 0, 77, 0
2, 30541, Note_on_c, 0, 60, 49
2, 30561, Note_on_c, 0, 75, 60
2, 30603, Control_c, 0, 67, 124
2, 30609, Note_on_c, 0, 60, 0
2, 30619, Control_c, 0, 67, 121
2, 30634, Control_c, 0, 67, 116
2, 30640, Note_on_c, 0, 75, 0
2, 30648, Control_c, 0, 67, 111
2, 30651, Note_on_c, 0, 77, 65
2, 30664, Control_c, 0, 67, 107
2, 30679, Control_c, 0, 67, 104
2, 30694, Note_on_c, 0, 77, 0
2, 30695, Control_c, 0, 67, 101
2, 30710, Control_c, 0, 67, 97
2, 30724, Control_c, 0, 67, 93
2, 30740, Control_c, 0, 67, 87
2, 30741, Note_on_c, 0, 63, 60
2, 30753, Note_on_c, 0, 73, 68
2, 30755, Control_c, 0, 67, 83
2, 30768, Note_on_c, 0, 63, 0
2, 30770, Control_c, 0, 67, 79
2, 30786, Control_c, 0, 67, 74
2, 30800, Control_c, 0, 67, 71
2, 30816, Control_c, 0, 67, 69
2, 30831, Control_c, 0, 67, 67
2, 30843, Note_on_c, 0, 75, 65
2, 30845, Control_c, 0, 67, 65
2, 30851, Note_on_c, 0, 73, 0
2, 30861, Control_c, 0, 67, 63
2, 30876, Control_c, 0, 67, 61
2, 30891, Control_c, 0, 67, 59
2, 30907, Control_c, 0, 67, 58
2, 30908, Note_on_c, 0, 75, 0
2, 30921, Control_c, 0, 67, 57
2, 30937, Control_c, 0, 67, 56
2, 30943, Note_on_c, 0, 56, 62
2, 30945, Note_on_c, 0, 72, 67
2, 30952, Control_c, 0, 67, 55
2, 30967, Control_c, 0, 67, 54
2, 30971, Note_on_c, 0, 56, 0
2, 30983, Control_c, 0, 67, 53
2, 30998, Control_c, 0, 67, 53
2, 31014, Control_c, 0, 67, 52
2, 31029, Control_c, 0, 67, 51
2, 31043, Control_c, 0, 67, 51
2, 31043, Note_on_c, 0, 73, 67
2, 31047, Note_on_c, 0, 72, 0
2, 31066, Control_c, 0, 67, 50
2, 31081, Control_c, 0, 67, 47
2, 31097, Control_c, 0, 67, 44
2, 31112, Control_c, 0, 67, 39
2, 31127, Control_c, 0, 67, 34
2, 31142, Control_c, 0, 67, 29
2, 31151, Note_on_c, 0, 60, 76
2, 31157, Control_c, 0, 67, 23
2, 31160, Note_on_c, 0, 70, 71
2, 31160, Note_on_c, 0, 73, 0
2, 31172, Control_c, 0, 67, 17
2, 31188, Control_c, 0, 67, 9
2, 31202, Control_c, 0, 67, 0
2, 31247, Note_on_c, 0, 58, 78
2, 31260, Note_on_c, 0, 60, 0
2, 31261, Note_on_c, 0, 72, 71
2, 31262, Note_on_c, 0, 70, 0
2, 31312, Note_on_c, 0, 72, 0
2, 31327, Note_on_c, 0, 58, 0
2, 31363, Note_on_c, 0, 60, 83
2, 31363, Note_on_c, 0, 68, 81
2, 31414, Note_on_c, 0, 60, 0
2, 31434, Note_on_c, 0, 68, 0
2, 31464, Note_on_c, 0, 70, 71
2, 31515, Note_on_c, 0, 70, 0
2, 31561, Note_on_c, 0, 63, 77
2, 31566, Note_on_c, 0, 66, 76
2, 31600, Note_on_c, 0, 63, 0
2, 31632, Note_on_c, 0, 66, 0
2, 31680, Note_on_c, 0, 68, 66
2, 31749, Note_on_c, 0, 68, 0
2, 31765, Note_on_c, 0, 56, 64
2, 31775, Note_on_c, 0, 65, 70
2, 31801, Note_on_c, 0, 56, 0
2, 31875, Note_on_c, 0, 66, 67
2, 31887, Note_on_c, 0, 65, 0
2, 31942, Note_on_c, 0, 66, 0
2, 31977, Note_on_c, 0, 63, 70
2, 31989, Note_on_c, 0, 60, 67
2, 32019, Note_on_c, 0, 60, 0
2, 32052, Note_on_c, 0, 63, 0
2, 32074, Note_on_c, 0, 65, 66
2, 32142, Note_on_c, 0, 65, 0
2, 32191, Note_on_c, 0, 53, 81
2, 32198, Note_on_c, 0, 61, 68
2, 32287, Note_on_c, 0, 61, 0
2, 32444, Note_on_c, 0, 73, 65
2, 32489, Note_on_c, 0, 73, 0
2, 32525, Note_on_c, 0, 72, 75
2, 32634, Note_on_c, 0, 73, 77
2, 32642, Note_on_c, 0, 72, 0
2, 32677, Note_on_c, 0, 73, 0
2, 32731, Note_on_c, 0, 56, 71
2, 32754, Note_on_c, 0, 53, 0
2, 32841, Note_on_c, 0, 58, 75
2, 32866, Note_on_c, 0, 77, 65
2, 32877, Note_on_c, 0, 56, 0
2, 32924, Note_on_c, 0, 77, 0
2, 32940, Note_on_c, 0, 60, 79
2, 32955, Note_on_c, 0, 58, 0
2, 33022, Note_on_c, 0, 60, 0
2, 33036, Note_on_c, 0, 61, 83
2, 33049, Note_on_c, 0, 70, 69
2, 33116, Note_on_c, 0, 70, 0
2, 33140, Note_on_c, 0, 58, 62
2, 33153, Note_on_c, 0, 61, 0
2, 33230, Note_on_c, 0, 58, 0
2, 33251, Note_on_c, 0, 55, 57
2, 33251, Note_on_c, 0, 73, 69
2, 33282, Note_on_c, 0, 73, 0
2, 33347, Note_on_c, 0, 55, 0
2, 33361, Note_on_c, 0, 58, 69
2, 33439, Note_on_c, 0, 58, 0
2, 33480, Note_on_c, 0, 51, 77
2, 33486, Note_on_c, 0, 67, 76
2, 33630, Note_on_c, 0, 67, 0
2, 33716, Note_on_c, 0, 72, 65
2, 33753, Note_on_c, 0, 72, 0
2, 33804, Note_on_c, 0, 70, 77
2, 33867, Note_on_c, 0, 70, 0
2, 33905, Note_on_c, 0, 72, 75
2, 33941, Note_on_c, 0, 72, 0
2, 33969, Note_on_c, 0, 51, 0
2, 34005, Note_on_c, 0, 55, 56
2, 34107, Note_on_c, 0, 56, 69
2, 34129, Note_on_c, 0, 55, 0
2, 34132, Note_on_c, 0, 75, 71
2, 34178, Note_on_c, 0, 75, 0
2, 34228, Note_on_c, 0, 58, 64
2, 34235, Note_on_c, 0, 56, 0
2, 34304, Note_on_c, 0, 58, 0
2, 34321, Note_on_c, 0, 60, 58
2, 34331, Note_on_c, 0, 68, 60
2, 34371, Note_on_c, 0, 68, 0
2, 34422, Note_on_c, 0, 60, 0
2, 34431, Note_on_c, 0, 56, 60
2, 34523, Note_on_c, 0, 56, 0
2, 34542, Note_on_c, 0, 53, 57
2, 34559, Note_on_c, 0, 72, 67
2, 34596, Note_on_c, 0, 72, 0
2, 34627, Note_on_c, 0, 53, 0
2, 34657, Note_on_c, 0, 56, 64
2, 34764, Note_on_c, 0, 56, 0
2, 34767, Note_on_c, 0, 65, 66
2, 34781, Note_on_c, 0, 49, 61
2, 34875, Note_on_c, 0, 49, 0
2, 34882, Note_on_c, 0, 51, 58
2, 34976, Note_on_c, 0, 70, 65
2, 34983, Note_on_c, 0, 51, 0
2, 34989, Note_on_c, 0, 48, 68
2, 35008, Note_on_c, 0, 65, 0
2, 35072, Note_on_c, 0, 68, 73
2, 35076, Note_on_c, 0, 48, 0
2, 35080, Note_on_c, 0, 51, 61
2, 35095, Note_on_c, 0, 70, 0
2, 35165, Note_on_c, 0, 49, 68
2, 35165, Note_on_c, 0, 51, 0
2, 35174, Note_on_c, 0, 70, 80
2, 35177, Note_on_c, 0, 68, 0
2, 35236, Note_on_c, 0, 70, 0
2, 35262, Note_on_c, 0, 49, 0
2, 35270, Note_on_c, 0, 53, 60
2, 35359, Note_on_c, 0, 53, 0
2, 35378, Note_on_c, 0, 73, 77
2, 35392, Note_on_c, 0, 55, 56
2, 35430, Note_on_c, 0, 73, 0
2, 35464, Note_on_c, 0, 55, 0
2, 35488, Note_on_c, 0, 56, 62
2, 35570, Note_on_c, 0, 56, 0
2, 35589, Note_on_c, 0, 58, 73
2, 35594, Note_on_c, 0, 67, 73
2, 35668, Note_on_c, 0, 67, 0
2, 35688, Note_on_c, 0, 58, 0
2, 35701, Note_on_c, 0, 55, 60
2, 35785, Note_on_c, 0, 55, 0
2, 35805, Note_on_c, 0, 51, 56
2, 35811, Note_on_c, 0, 70, 72
2, 35870, Note_on_c, 0, 70, 0
2, 35871, Control_c, 0, 67, 8
2, 35878, Note_on_c, 0, 51, 0
2, 35886, Control_c, 0, 67, 9
2, 35898, Note_on_c, 0, 55, 63
2, 35901, Control_c, 0, 67, 11
2, 35916, Control_c, 0, 67, 13
2, 35931, Control_c, 0, 67, 16
2, 35947, Control_c, 0, 67, 22
2, 35962, Control_c, 0, 67, 30
2, 35969, Note_on_c, 0, 55, 0
2, 35976, Control_c, 0, 67, 37
2, 35992, Control_c, 0, 67, 44
2, 36007, Control_c, 0, 67, 50
2, 36016, Note_on_c, 0, 48, 69
2, 36023, Control_c, 0, 67, 56
2, 36028, Note_on_c, 0, 63, 80
2, 36038, Control_c, 0, 67, 61
2, 36052, Control_c, 0, 67, 68
2, 36068, Control_c, 0, 67, 74
2, 36083, Control_c, 0, 67, 80
2, 36098, Control_c, 0, 67, 85
2, 36114, Control_c, 0, 67, 89
2, 36123, Note_on_c, 0, 48, 0
2, 36129, Control_c, 0, 67, 92
2, 36137, Note_on_c, 0, 49, 60
2, 36145, Control_c, 0, 67, 94
2, 36160, Control_c, 0, 67, 96
2, 36174, Control_c, 0, 67, 96
2, 36190, Control_c, 0, 67, 97
2, 36196, Note_on_c, 0, 63, 0
2, 36211, Note_on_c, 0, 49, 0
2, 36221, Control_c, 0, 67, 97
2, 36248, Note_on_c, 0, 46, 75
2, 36251, Control_c, 0, 67, 98
2, 36252, Note_on_c, 0, 68, 71
2, 36267, Control_c, 0, 67, 98
2, 36282, Control_c, 0, 67, 99
2, 36297, Control_c, 0, 67, 100
2, 36313, Control_c, 0, 67, 100
2, 36333, Note_on_c, 0, 67, 77
2, 36337, Note_on_c, 0, 46, 0
2, 36338, Note_on_c, 0, 68, 0
2, 36346, Note_on_c, 0, 49, 61
2, 36389, Control_c, 0, 67, 100
2, 36407, Note_on_c, 0, 49, 0
2, 36436, Note_on_c, 0, 68, 78
2, 36441, Control_c, 0, 67, 99
2, 36442, Note_on_c, 0, 67, 0
2, 36453, Note_on_c, 0, 48, 67
2, 36472, Control_c, 0, 67, 99
2, 36481, Note_on_c, 0, 68, 0
2, 36548, Note_on_c, 0, 48, 0
2, 36550, Note_on_c, 0, 51, 57
2, 36645, Note_on_c, 0, 51, 0
2, 36645, Note_on_c, 0, 53, 62
2, 36653, Note_on_c, 0, 72, 67
2, 36698, Note_on_c, 0, 72, 0
2, 36719, Note_on_c, 0, 53, 0
2, 36750, Note_on_c, 0, 55, 56
2, 36775, Control_c, 0, 67, 99
2, 36821, Control_c, 0, 67, 100
2, 36833, Note_on_c, 0, 55, 0
2, 36844, Note_on_c, 0, 56, 63
2, 36855, Note_on_c, 0, 65, 66
2, 36896, Control_c, 0, 67, 100
2, 36904, Note_on_c, 0, 65, 0
2, 36923, Note_on_c, 0, 56, 0
2, 36927, Control_c, 0, 67, 101
2, 36958, Note_on_c, 0, 53, 47
2, 36972, Control_c, 0, 67, 101
2, 37034, Control_c, 0, 67, 102
2, 37037, Note_on_c, 0, 53, 0
2, 37048, Control_c, 0, 67, 103
2, 37062, Note_on_c, 0, 49, 53
2, 37065, Control_c, 0, 67, 108
2, 37072, Note_on_c, 0, 68, 67
2, 37080, Control_c, 0, 67, 113
2, 37095, Control_c, 0, 67, 116
2, 37111, Control_c, 0, 67, 118
2, 37125, Control_c, 0, 67, 120
2, 37141, Control_c, 0, 67, 121
2, 37144, Note_on_c, 0, 49, 0
2, 37145, Note_on_c, 0, 68, 0
2, 37156, Control_c, 0, 67, 124
2, 37170, Control_c, 0, 67, 127
2, 37171, Note_on_c, 0, 53, 50
2, 37186, Control_c, 0, 67, 127
2, 37267, Note_on_c, 0, 53, 0
2, 37305, Note_on_c, 0, 61, 67
2, 37315, Note_on_c, 0, 46, 57
2, 37379, Note_on_c, 0, 46, 0
2, 37401, Note_on_c, 0, 56, 49
2, 37487, Note_on_c, 0, 56, 0
2, 37502, Note_on_c, 0, 61, 0
2, 37523, Note_on_c, 0, 55, 45
2, 37526, Note_on_c, 0, 70, 55
2, 37579, Note_on_c, 0, 55, 0
2, 37608, Note_on_c, 0, 70, 0
2, 37613, Note_on_c, 0, 68, 68
2, 37621, Note_on_c, 0, 56, 42
2, 37656, Note_on_c, 0, 56, 0
2, 37702, Note_on_c, 0, 49, 55
2, 37710, Note_on_c, 0, 68, 0
2, 37714, Note_on_c, 0, 70, 74
2, 37753, Note_on_c, 0, 70, 0
2, 37761, Note_on_c, 0, 49, 0
2, 37789, Note_on_c, 0, 56, 40
2, 37894, Note_on_c, 0, 56, 0
2, 37927, Note_on_c, 0, 73, 75
2, 37931, Note_on_c, 0, 55, 44
2, 37975, Note_on_c, 0, 73, 0
2, 38016, Note_on_c, 0, 55, 0
2, 38037, Note_on_c, 0, 56, 48
2, 38103, Note_on_c, 0, 56, 0
2, 38146, Note_on_c, 0, 46, 55
2, 38147, Note_on_c, 0, 67, 75
2, 38196, Note_on_c, 0, 67, 0
2, 38205, Note_on_c, 0, 46, 0
2, 38240, Note_on_c, 0, 56, 46
2, 38296, Note_on_c, 0, 56, 0
2, 38349, Note_on_c, 0, 55, 46
2, 38357, Note_on_c, 0, 70, 72
2, 38389, Note_on_c, 0, 70, 0
2, 38427, Note_on_c, 0, 55, 0
2, 38440, Note_on_c, 0, 56, 40
2, 38530, Note_on_c, 0, 56, 0
2, 38565, Note_on_c, 0, 48, 50
2, 38583, Note_on_c, 0, 63, 80
2, 38599, Control_c, 0, 64, 63
2, 38614, Control_c, 0, 64, 57
2, 38638, Note_on_c, 0, 48, 0
2, 38661, Control_c, 0, 64, 55
2, 38662, Note_on_c, 0, 56, 50
2, 38676, Control_c, 0, 64, 54
2, 38771, Note_on_c, 0, 56, 0
2, 38782, Note_on_c, 0, 63, 0
2, 38815, Note_on_c, 0, 55, 40
2, 38816, Note_on_c, 0, 72, 58
2, 38879, Note_on_c, 0, 55, 0
2, 38892, Note_on_c, 0, 70, 76
2, 38906, Note_on_c, 0, 56, 56
2, 38906, Note_on_c, 0, 72, 0
2, 38912, Control_c, 0, 64, 49
2, 38927, Control_c, 0, 64, 32
2, 38942, Control_c, 0, 64, 0
2, 38952, Note_on_c, 0, 56, 0
2, 38985, Note_on_c, 0, 70, 0
2, 38988, Note_on_c, 0, 51, 58
2, 38990, Note_on_c, 0, 72, 76
2, 39028, Note_on_c, 0, 72, 0
2, 39040, Note_on_c, 0, 51, 0
2, 39085, Note_on_c, 0, 56, 53
2, 39125, Control_c, 0, 67, 125
2, 39141, Control_c, 0, 67, 122
2, 39155, Control_c, 0, 67, 118
2, 39170, Control_c, 0, 67, 115
2, 39177, Note_on_c, 0, 56, 0
2, 39186, Control_c, 0, 67, 111
2, 39200, Control_c, 0, 67, 106
2, 39207, Note_on_c, 0, 75, 82
2, 39213, Note_on_c, 0, 55, 53
2, 39215, Control_c, 0, 67, 99
2, 39231, Control_c, 0, 67, 89
2, 39246, Control_c, 0, 67, 81
2, 39256, Note_on_c, 0, 75, 0
2, 39262, Control_c, 0, 67, 71
2, 39276, Control_c, 0, 67, 59
2, 39287, Note_on_c, 0, 55, 0
2, 39291, Control_c, 0, 67, 46
2, 39302, Note_on_c, 0, 56, 51
2, 39307, Control_c, 0, 67, 31
2, 39322, Control_c, 0, 67, 16
2, 39337, Control_c, 0, 67, 0
2, 39378, Note_on_c, 0, 56, 0
2, 39403, Note_on_c, 0, 48, 58
2, 39408, Note_on_c, 0, 68, 84
2, 39455, Note_on_c, 0, 68, 0
2, 39477, Note_on_c, 0, 48, 0
2, 39513, Note_on_c, 0, 56, 55
2, 39601, Note_on_c, 0, 56, 0
2, 39634, Note_on_c, 0, 55, 55
2, 39638, Note_on_c, 0, 72, 83
2, 39679, Note_on_c, 0, 72, 0
2, 39705, Note_on_c, 0, 55, 0
2, 39727, Note_on_c, 0, 56, 58
2, 39818, Note_on_c, 0, 56, 0
2, 39849, Note_on_c, 0, 49, 69
2, 39852, Note_on_c, 0, 65, 93
2, 39926, Note_on_c, 0, 49, 0
2, 39944, Note_on_c, 0, 56, 60
2, 40027, Note_on_c, 0, 56, 0
2, 40065, Note_on_c, 0, 55, 44
2, 40085, Note_on_c, 0, 73, 61
2, 40112, Note_on_c, 0, 65, 0
2, 40144, Note_on_c, 0, 55, 0
2, 40159, Note_on_c, 0, 56, 50
2, 40163, Note_on_c, 0, 72, 73
2, 40163, Note_on_c, 0, 73, 0
2, 40216, Note_on_c, 0, 56, 0
2, 40250, Note_on_c, 0, 53, 51
2, 40262, Note_on_c, 0, 73, 82
2, 40273, Note_on_c, 0, 72, 0
2, 40315, Note_on_c, 0, 53, 0
2, 40318, Note_on_c, 0, 73, 0
2, 40352, Note_on_c, 0, 56, 50
2, 40458, Note_on_c, 0, 56, 0
2, 40473, Note_on_c, 0, 77, 83
2, 40477, Note_on_c, 0, 51, 61
2, 40516, Note_on_c, 0, 77, 0
2, 40530, Note_on_c, 0, 51, 0
2, 40569, Note_on_c, 0, 56, 60
2, 40653, Note_on_c, 0, 56, 0
2, 40681, Note_on_c, 0, 49, 57
2, 40683, Note_on_c, 0, 70, 84
2, 40723, Note_on_c, 0, 70, 0
2, 40737, Note_on_c, 0, 49, 0
2, 40770, Note_on_c, 0, 56, 54
2, 40826, Note_on_c, 0, 56, 0
2, 40871, Note_on_c, 0, 48, 53
2, 40888, Note_on_c, 0, 73, 84
2, 40926, Note_on_c, 0, 48, 0
2, 40938, Note_on_c, 0, 73, 0
2, 40956, Note_on_c, 0, 56, 53
2, 41069, Note_on_c, 0, 56, 0
2, 41075, Note_on_c, 0, 46, 60
2, 41096, Note_on_c, 0, 67, 81
2, 41143, Note_on_c, 0, 67, 0
2, 41163, Note_on_c, 0, 46, 0
2, 41184, Note_on_c, 0, 49, 52
2, 41290, Note_on_c, 0, 70, 81
2, 41297, Note_on_c, 0, 49, 0
2, 41307, Note_on_c, 0, 48, 59
2, 41339, Note_on_c, 0, 70, 0
2, 41390, Note_on_c, 0, 48, 0
2, 41403, Note_on_c, 0, 51, 59
2, 41485, Note_on_c, 0, 51, 0
2, 41491, Note_on_c, 0, 49, 62
2, 41506, Note_on_c, 0, 63, 82
2, 41551, Note_on_c, 0, 63, 0
2, 41556, Note_on_c, 0, 49, 0
2, 41578, Note_on_c, 0, 53, 50
2, 41676, Note_on_c, 0, 53, 0
2, 41698, Note_on_c, 0, 51, 59
2, 41712, Note_on_c, 0, 67, 77
2, 41749, Note_on_c, 0, 67, 0
2, 41776, Note_on_c, 0, 51, 0
2, 41794, Note_on_c, 0, 49, 58
2, 41898, Note_on_c, 0, 49, 0
2, 41925, Note_on_c, 0, 68, 93
2, 41931, Note_on_c, 0, 48, 61
2, 42020, Note_on_c, 0, 48, 0
2, 42033, Note_on_c, 0, 51, 57
2, 42106, Note_on_c, 0, 51, 0
2, 42127, Note_on_c, 0, 49, 60
2, 42178, Note_on_c, 0, 49, 0
2, 42214, Note_on_c, 0, 53, 63
2, 42283, Note_on_c, 0, 53, 0
2, 42320, Note_on_c, 0, 51, 69
2, 42348, Note_on_c, 0, 51, 0
2, 42405, Note_on_c, 0, 68, 0
2, 42422, Note_on_c, 0, 67, 61
2, 42519, Note_on_c, 0, 67, 0
2, 42522, Note_on_c, 0, 68, 68
2, 42525, Note_on_c, 0, 53, 54
2, 42550, Note_on_c, 0, 53, 0
2, 42613, Note_on_c, 0, 68, 0
2, 42620, Note_on_c, 0, 70, 68
2, 42635, Note_on_c, 0, 49, 61
2, 42673, Note_on_c, 0, 49, 0
2, 42685, Note_on_c, 0, 70, 0
2, 42735, Note_on_c, 0, 72, 68
2, 42753, Note_on_c, 0, 51, 50
2, 42756, Note_on_c, 0, 67, 35
2, 42779, Note_on_c, 0, 51, 0
2, 42795, Note_on_c, 0, 72, 0
2, 42809, Note_on_c, 0, 70, 70
2, 42843, Note_on_c, 0, 67, 0
2, 42850, Note_on_c, 0, 70, 0
2, 42880, Note_on_c, 0, 72, 62
2, 42926, Note_on_c, 0, 72, 0
2, 42928, Note_on_c, 0, 49, 59
2, 42952, Note_on_c, 0, 49, 0
2, 42952, Note_on_c, 0, 70, 56
2, 42972, Note_on_c, 0, 70, 0
2, 42985, Note_on_c, 0, 72, 56
2, 43030, Note_on_c, 0, 72, 0
2, 43039, Note_on_c, 0, 70, 76
2, 43071, Note_on_c, 0, 70, 0
2, 43090, Note_on_c, 0, 72, 61
2, 43115, Note_on_c, 0, 51, 53
2, 43151, Note_on_c, 0, 70, 71
2, 43152, Note_on_c, 0, 51, 0
2, 43160, Note_on_c, 0, 72, 0
2, 43372, Note_on_c, 0, 39, 42
2, 43420, Note_on_c, 0, 39, 0
2, 43481, Note_on_c, 0, 70, 0
2, 43488, Note_on_c, 0, 68, 63
2, 43533, Note_on_c, 0, 68, 0
2, 43579, Note_on_c, 0, 68, 62
2, 43598, Note_on_c, 0, 44, 51
2, 43856, Note_on_c, 0, 75, 60
2, 43921, Note_on_c, 0, 68, 0
2, 43942, Note_on_c, 0, 73, 65
2, 43947, Note_on_c, 0, 75, 0
2, 43983, Note_on_c, 0, 44, 0
2, 44013, Note_on_c, 0, 75, 57
2, 44022, Note_on_c, 0, 73, 0
2, 44026, Note_on_c, 0, 56, 47
2, 44064, Note_on_c, 0, 75, 0
2, 44258, Note_on_c, 0, 72, 69
2, 44300, Note_on_c, 0, 72, 0
2, 44476, Note_on_c, 0, 67, 64
2, 44518, Note_on_c, 0, 67, 0
2, 44676, Note_on_c, 0, 70, 71
2, 44705, Note_on_c, 0, 70, 0
2, 44723, Note_on_c, 0, 56, 0
2, 44848, Note_on_c, 0, 68, 58
2, 44851, Note_on_c, 0, 65, 37
2, 44897, Note_on_c, 0, 68, 0
2, 44898, Note_on_c, 0, 67, 71
2, 44919, Note_on_c, 0, 65, 0
2, 44940, Note_on_c, 0, 68, 66
2, 44953, Note_on_c, 0, 67, 0
2, 45160, Note_on_c, 0, 53, 60
2, 45230, Note_on_c, 0, 53, 0
2, 45234, Note_on_c, 0, 51, 62
2, 45318, Note_on_c, 0, 51, 0
2, 45336, Note_on_c, 0, 75, 86
2, 45337, Note_on_c, 0, 53, 66
2, 45361, Note_on_c, 0, 68, 0
2, 45374, Note_on_c, 0, 53, 0
2, 45579, Note_on_c, 0, 56, 64
2, 45615, Note_on_c, 0, 56, 0
2, 45799, Note_on_c, 0, 49, 65
2, 45840, Note_on_c, 0, 49, 0
2, 45894, Note_on_c, 0, 66, 66
2, 45924, Note_on_c, 0, 75, 0
2, 45973, Note_on_c, 0, 66, 0
2, 45989, Note_on_c, 0, 53, 57
2, 45994, Note_on_c, 0, 65, 64
2, 46023, Note_on_c, 0, 53, 0
2, 46082, Note_on_c, 0, 65, 0
2, 46089, Note_on_c, 0, 63, 64
2, 46191, Note_on_c, 0, 63, 0
2, 46225, Note_on_c, 0, 61, 75
2, 46228, Note_on_c, 0, 46, 73
2, 46432, Note_on_c, 0, 61, 0
2, 46486, Note_on_c, 0, 73, 68
2, 46564, Note_on_c, 0, 72, 78
2, 46564, Note_on_c, 0, 73, 0
2, 46664, Note_on_c, 0, 46, 0
2, 46666, Note_on_c, 0, 56, 87
2, 46677, Note_on_c, 0, 73, 76
2, 46680, Note_on_c, 0, 72, 0
2, 46844, Note_on_c, 0, 73, 0
2, 46899, Note_on_c, 0, 70, 71
2, 46937, Note_on_c, 0, 70, 0
2, 47127, Note_on_c, 0, 65, 66
2, 47160, Note_on_c, 0, 65, 0
2, 47266, Note_on_c, 0, 56, 0
2, 47334, Note_on_c, 0, 68, 70
2, 47383, Note_on_c, 0, 68, 0
2, 47487, Note_on_c, 0, 67, 66
2, 47521, Note_on_c, 0, 67, 0
2, 47532, Note_on_c, 0, 68, 65
2, 47572, Note_on_c, 0, 67, 71
2, 47588, Note_on_c, 0, 68, 0
2, 47776, Note_on_c, 0, 51, 65
2, 47842, Note_on_c, 0, 51, 0
2, 47859, Note_on_c, 0, 49, 62
2, 47922, Control_c, 0, 67, 8
2, 47958, Note_on_c, 0, 51, 75
2, 47961, Control_c, 0, 67, 8
2, 47964, Note_on_c, 0, 49, 0
2, 47966, Note_on_c, 0, 73, 79
2, 47971, Note_on_c, 0, 67, 0
2, 47975, Control_c, 0, 67, 10
2, 47991, Control_c, 0, 67, 11
2, 47995, Note_on_c, 0, 51, 0
2, 48006, Control_c, 0, 67, 11
2, 48037, Control_c, 0, 67, 12
2, 48051, Control_c, 0, 67, 12
2, 48067, Control_c, 0, 67, 13
2, 48097, Control_c, 0, 67, 13
2, 48113, Control_c, 0, 67, 14
2, 48158, Control_c, 0, 67, 15
2, 48173, Control_c, 0, 67, 16
2, 48188, Control_c, 0, 67, 16
2, 48197, Note_on_c, 0, 55, 56
2, 48203, Control_c, 0, 67, 17
2, 48218, Control_c, 0, 67, 18
2, 48224, Note_on_c, 0, 55, 0
2, 48234, Control_c, 0, 67, 19
2, 48249, Control_c, 0, 67, 20
2, 48264, Control_c, 0, 67, 21
2, 48279, Control_c, 0, 67, 22
2, 48294, Control_c, 0, 67, 22
2, 48310, Control_c, 0, 67, 23
2, 48325, Control_c, 0, 67, 24
2, 48339, Control_c, 0, 67, 25
2, 48355, Control_c, 0, 67, 30
2, 48370, Control_c, 0, 67, 35
2, 48386, Control_c, 0, 67, 40
2, 48401, Control_c, 0, 67, 45
2, 48410, Note_on_c, 0, 48, 55
2, 48416, Control_c, 0, 67, 51
2, 48432, Control_c, 0, 67, 55
2, 48447, Control_c, 0, 67, 58
2, 48462, Control_c, 0, 67, 60
2, 48466, Note_on_c, 0, 48, 0
2, 48477, Control_c, 0, 67, 62
2, 48483, Note_on_c, 0, 73, 0
2, 48492, Control_c, 0, 67, 64
2, 48508, Control_c, 0, 67, 66
2, 48513, Note_on_c, 0, 65, 54
2, 48523, Control_c, 0, 67, 69
2, 48538, Control_c, 0, 67, 72
2, 48554, Control_c, 0, 67, 74
2, 48569, Control_c, 0, 67, 75
2, 48585, Control_c, 0, 67, 76
2, 48589, Note_on_c, 0, 65, 0
2, 48600, Control_c, 0, 67, 77
2, 48603, Note_on_c, 0, 63, 62
2, 48614, Control_c, 0, 67, 79
2, 48619, Note_on_c, 0, 51, 30
2, 48630, Control_c, 0, 67, 81
2, 48645, Control_c, 0, 67, 83
2, 48660, Control_c, 0, 67, 84
2, 48660, Note_on_c, 0, 51, 0
2, 48676, Control_c, 0, 67, 85
2, 48687, Note_on_c, 0, 63, 0
2, 48690, Control_c, 0, 67, 85
2, 48694, Note_on_c, 0, 61, 64
2, 48706, Control_c, 0, 67, 87
2, 48728, Control_c, 0, 67, 88
2, 48744, Control_c, 0, 67, 90
2, 48759, Control_c, 0, 67, 92
2, 48765, Note_on_c, 0, 61, 0
2, 48774, Control_c, 0, 67, 96
2, 48790, Control_c, 0, 67, 102
2, 48805, Control_c, 0, 67, 108
2, 48810, Note_on_c, 0, 60, 57
2, 48816, Note_on_c, 0, 44, 56
2, 48819, Control_c, 0, 67, 114
2, 48835, Control_c, 0, 67, 119
2, 48850, Control_c, 0, 67, 121
2, 48850, Note_on_c, 0, 60, 0
2, 48855, Note_on_c, 0, 44, 0
2, 48866, Control_c, 0, 67, 123
2, 48906, Note_on_c, 0, 72, 53
2, 48909, Note_on_c, 0, 56, 45
2, 48963, Note_on_c, 0, 56, 0
2, 48964, Note_on_c, 0, 72, 0
2, 49012, Note_on_c, 0, 70, 55
2, 49092, Note_on_c, 0, 56, 39
2, 49092, Note_on_c, 0, 70, 0
2, 49100, Note_on_c, 0, 72, 58
2, 49159, Note_on_c, 0, 56, 0
2, 49162, Note_on_c, 0, 72, 0
2, 49201, Note_on_c, 0, 53, 47
2, 49202, Note_on_c, 0, 68, 64
2, 49247, Note_on_c, 0, 53, 0
2, 49262, Note_on_c, 0, 68, 0
2, 49288, Note_on_c, 0, 56, 47
2, 49290, Note_on_c, 0, 72, 66
2, 49359, Note_on_c, 0, 72, 0
2, 49370, Note_on_c, 0, 56, 0
2, 49399, Note_on_c, 0, 51, 56
2, 49400, Note_on_c, 0, 67, 67
2, 49413, Control_c, 0, 67, 122
2, 49443, Note_on_c, 0, 51, 0
2, 49456, Control_c, 0, 67, 122
2, 49465, Note_on_c, 0, 67, 0
2, 49490, Note_on_c, 0, 72, 66
2, 49499, Note_on_c, 0, 56, 55
2, 49550, Note_on_c, 0, 56, 0
2, 49566, Note_on_c, 0, 72, 0
2, 49571, Control_c, 0, 67, 121
2, 49591, Note_on_c, 0, 49, 62
2, 49595, Note_on_c, 0, 65, 75
2, 49602, Control_c, 0, 64, 36
2, 49602, Control_c, 0, 67, 120
2, 49616, Control_c, 0, 64, 0
2, 49616, Control_c, 0, 67, 121
2, 49638, Note_on_c, 0, 49, 0
2, 49663, Note_on_c, 0, 65, 0
2, 49674, Note_on_c, 0, 56, 48
2, 49702, Note_on_c, 0, 72, 64
2, 49723, Control_c, 0, 67, 120
2, 49737, Note_on_c, 0, 56, 0
2, 49776, Note_on_c, 0, 72, 0
2, 49782, Note_on_c, 0, 48, 55
2, 49796, Note_on_c, 0, 63, 85
2, 49835, Note_on_c, 0, 48, 0
2, 49860, Control_c, 0, 67, 120
2, 49864, Note_on_c, 0, 56, 62
2, 49875, Control_c, 0, 67, 121
2, 49881, Note_on_c, 0, 63, 0
2, 49890, Control_c, 0, 67, 122
2, 49890, Note_on_c, 0, 72, 73
2, 49905, Control_c, 0, 67, 122
2, 49921, Control_c, 0, 67, 123
2, 49936, Control_c, 0, 67, 124
2, 49951, Control_c, 0, 67, 124
2, 49958, Note_on_c, 0, 56, 0
2, 49966, Control_c, 0, 67, 125
2, 49979, Note_on_c, 0, 72, 0
2, 49981, Control_c, 0, 67, 127
2, 50000, Note_on_c, 0, 61, 93
2, 50004, Note_on_c, 0, 46, 71
2, 50069, Note_on_c, 0, 46, 0
2, 50090, Note_on_c, 0, 61, 0
2, 50098, Note_on_c, 0, 58, 61
2, 50104, Note_on_c, 0, 73, 73
2, 50149, Note_on_c, 0, 58, 0
2, 50191, Note_on_c, 0, 73, 0
2, 50209, Note_on_c, 0, 72, 70
2, 50215, Note_on_c, 0, 56, 49
2, 50267, Note_on_c, 0, 56, 0
2, 50291, Note_on_c, 0, 58, 60
2, 50315, Note_on_c, 0, 72, 0
2, 50319, Note_on_c, 0, 73, 65
2, 50366, Note_on_c, 0, 73, 0
2, 50387, Note_on_c, 0, 58, 0
2, 50419, Note_on_c, 0, 55, 47
2, 50421, Note_on_c, 0, 70, 63
2, 50465, Note_on_c, 0, 55, 0
2, 50504, Note_on_c, 0, 58, 47
2, 50506, Note_on_c, 0, 70, 0
2, 50515, Note_on_c, 0, 73, 65
2, 50563, Note_on_c, 0, 73, 0
2, 50586, Note_on_c, 0, 58, 0
2, 50619, Note_on_c, 0, 68, 68
2, 50621, Note_on_c, 0, 53, 53
2, 50664, Note_on_c, 0, 53, 0
2, 50705, Note_on_c, 0, 58, 55
2, 50714, Note_on_c, 0, 68, 0
2, 50717, Note_on_c, 0, 73, 64
2, 50768, Note_on_c, 0, 58, 0
2, 50799, Note_on_c, 0, 73, 0
2, 50811, Note_on_c, 0, 51, 57
2, 50816, Note_on_c, 0, 67, 75
2, 50855, Note_on_c, 0, 51, 0
2, 50897, Note_on_c, 0, 67, 0
2, 50898, Note_on_c, 0, 58, 53
2, 50930, Note_on_c, 0, 73, 68
2, 50949, Note_on_c, 0, 58, 0
2, 50993, Note_on_c, 0, 73, 0
2, 51014, Note_on_c, 0, 49, 42
2, 51036, Note_on_c, 0, 65, 70
2, 51061, Note_on_c, 0, 49, 0
2, 51104, Note_on_c, 0, 58, 50
2, 51104, Note_on_c, 0, 65, 0
2, 51126, Note_on_c, 0, 73, 64
2, 51178, Note_on_c, 0, 58, 0
2, 51240, Note_on_c, 0, 63, 72
2, 51243, Note_on_c, 0, 48, 63
2, 51272, Note_on_c, 0, 73, 0
2, 51352, Note_on_c, 0, 63, 0
2, 51389, Note_on_c, 0, 48, 0
2, 51457, Note_on_c, 0, 60, 52
2, 51466, Note_on_c, 0, 68, 60
2, 51487, Control_c, 0, 67, 126
2, 51493, Note_on_c, 0, 60, 0
2, 51498, Note_on_c, 0, 68, 0
2, 51502, Control_c, 0, 67, 122
2, 51511, Note_on_c, 0, 70, 60
2, 51518, Control_c, 0, 67, 118
2, 51532, Control_c, 0, 67, 113
2, 51542, Note_on_c, 0, 70, 0
2, 51547, Control_c, 0, 67, 108
2, 51553, Note_on_c, 0, 68, 80
2, 51563, Control_c, 0, 67, 101
2, 51578, Control_c, 0, 67, 94
2, 51594, Control_c, 0, 67, 87
2, 51600, Note_on_c, 0, 67, 79
2, 51608, Control_c, 0, 67, 81
2, 51610, Note_on_c, 0, 68, 0
2, 51623, Control_c, 0, 67, 75
2, 51638, Control_c, 0, 67, 70
2, 51653, Control_c, 0, 67, 63
2, 51656, Note_on_c, 0, 68, 76
2, 51661, Note_on_c, 0, 67, 0
2, 51669, Control_c, 0, 67, 57
2, 51683, Control_c, 0, 67, 50
2, 51698, Control_c, 0, 67, 43
2, 51714, Control_c, 0, 67, 37
2, 51717, Note_on_c, 0, 68, 0
2, 51729, Control_c, 0, 67, 31
2, 51744, Control_c, 0, 67, 25
2, 51759, Control_c, 0, 67, 18
2, 51774, Control_c, 0, 67, 10
2, 51798, Control_c, 0, 67, 0
2, 51869, Note_on_c, 0, 53, 57
2, 51884, Note_on_c, 0, 72, 67
2, 51924, Note_on_c, 0, 72, 0
2, 51950, Note_on_c, 0, 53, 0
2, 51966, Note_on_c, 0, 55, 58
2, 52067, Note_on_c, 0, 55, 0
2, 52071, Note_on_c, 0, 65, 73
2, 52074, Note_on_c, 0, 56, 65
2, 52115, Note_on_c, 0, 65, 0
2, 52160, Note_on_c, 0, 56, 0
2, 52186, Note_on_c, 0, 55, 51
2, 52245, Note_on_c, 0, 55, 0
2, 52276, Note_on_c, 0, 56, 60
2, 52286, Note_on_c, 0, 68, 72
2, 52341, Note_on_c, 0, 56, 0
2, 52352, Note_on_c, 0, 68, 0
2, 52368, Note_on_c, 0, 53, 48
2, 52465, Note_on_c, 0, 53, 0
2, 52498, Note_on_c, 0, 73, 76
2, 52500, Note_on_c, 0, 58, 72
2, 52597, Note_on_c, 0, 73, 0
2, 52726, Note_on_c, 0, 58, 0
2, 52730, Note_on_c, 0, 46, 56
2, 52739, Note_on_c, 0, 67, 62
2, 52780, Note_on_c, 0, 46, 0
2, 52786, Note_on_c, 0, 67, 0
2, 52797, Note_on_c, 0, 68, 69
2, 52829, Note_on_c, 0, 68, 0
2, 52841, Note_on_c, 0, 67, 64
2, 52884, Note_on_c, 0, 67, 0
2, 52893, Note_on_c, 0, 65, 72
2, 52942, Note_on_c, 0, 67, 73
2, 52943, Note_on_c, 0, 65, 0
2, 52992, Note_on_c, 0, 67, 0
2, 53137, Note_on_c, 0, 51, 55
2, 53150, Note_on_c, 0, 70, 75
2, 53194, Note_on_c, 0, 70, 0
2, 53249, Note_on_c, 0, 53, 57
2, 53254, Note_on_c, 0, 51, 0
2, 53362, Note_on_c, 0, 63, 77
2, 53367, Note_on_c, 0, 53, 0
2, 53370, Note_on_c, 0, 55, 59
2, 53415, Note_on_c, 0, 63, 0
2, 53474, Note_on_c, 0, 55, 0
2, 53483, Note_on_c, 0, 53, 62
2, 53564, Note_on_c, 0, 53, 0
2, 53565, Note_on_c, 0, 67, 82
2, 53581, Note_on_c, 0, 55, 66
2, 53608, Note_on_c, 0, 67, 0
2, 53649, Note_on_c, 0, 55, 0
2, 53678, Note_on_c, 0, 51, 52
2, 53737, Note_on_c, 0, 51, 0
2, 53789, Note_on_c, 0, 56, 55
2, 53791, Note_on_c, 0, 72, 91
2, 53837, Control_c, 0, 64, 26
2, 53852, Control_c, 0, 64, 41
2, 53867, Control_c, 0, 64, 48
2, 53882, Control_c, 0, 64, 52
2, 53897, Control_c, 0, 64, 56
2, 53915, Control_c, 0, 64, 59
2, 53930, Control_c, 0, 64, 63
2, 53945, Control_c, 0, 64, 65
2, 53960, Control_c, 0, 64, 66
2, 53975, Control_c, 0, 64, 67
2, 53991, Control_c, 0, 64, 69
2, 54006, Control_c, 0, 64, 71
2, 54020, Control_c, 0, 64, 73
2, 54036, Control_c, 0, 64, 74
2, 54042, Note_on_c, 0, 72, 0
2, 54045, Note_on_c, 0, 68, 85
2, 54047, Note_on_c, 0, 49, 66
2, 54051, Control_c, 0, 64, 76
2, 54058, Note_on_c, 0, 65, 71
2, 54060, Note_on_c, 0, 61, 79
2, 54067, Control_c, 0, 64, 77
2, 54073, Note_on_c, 0, 56, 0
2, 54079, Note_on_c, 0, 49, 0
2, 54082, Control_c, 0, 64, 77
2, 54086, Note_on_c, 0, 65, 0
2, 54104, Note_on_c, 0, 61, 0
2, 54105, Control_c, 0, 64, 78
2, 54121, Note_on_c, 0, 68, 0
2, 54135, Control_c, 0, 64, 78
2, 54180, Control_c, 0, 64, 79
2, 54196, Control_c, 0, 64, 79
2, 54226, Control_c, 0, 64, 80
2, 54333, Control_c, 0, 64, 78
2, 54334, Note_on_c, 0, 68, 94
2, 54342, Note_on_c, 0, 63, 71
2, 54343, Note_on_c, 0, 58, 72
2, 54349, Control_c, 0, 64, 73
2, 54359, Note_on_c, 0, 51, 53
2, 54364, Control_c, 0, 64, 63
2, 54378, Control_c, 0, 64, 0
2, 54485, Control_c, 0, 64, 38
2, 54500, Control_c, 0, 64, 48
2, 54516, Control_c, 0, 64, 56
2, 54531, Control_c, 0, 64, 60
2, 54547, Control_c, 0, 64, 62
2, 54562, Control_c, 0, 64, 64
2, 54576, Control_c, 0, 64, 65
2, 54592, Control_c, 0, 64, 66
2, 54607, Control_c, 0, 64, 67
2, 54614, Note_on_c, 0, 51, 0
2, 54623, Control_c, 0, 64, 68
2, 54632, Note_on_c, 0, 49, 53
2, 54638, Control_c, 0, 64, 70
2, 54652, Control_c, 0, 64, 71
2, 54668, Control_c, 0, 64, 73
2, 54683, Control_c, 0, 64, 74
2, 54698, Control_c, 0, 64, 75
2, 54712, Control_c, 0, 64, 75
2, 54727, Control_c, 0, 64, 76
2, 54757, Control_c, 0, 64, 76
2, 54788, Control_c, 0, 64, 77
2, 54884, Note_on_c, 0, 68, 0
2, 54910, Note_on_c, 0, 63, 0
2, 54917, Note_on_c, 0, 58, 0
2, 54931, Control_c, 0, 64, 75
2, 54934, Note_on_c, 0, 49, 0
2, 54944, Note_on_c, 0, 67, 94
2, 54947, Control_c, 0, 64, 69
2, 54947, Note_on_c, 0, 51, 62
2, 54962, Control_c, 0, 64, 57
2, 54977, Control_c, 0, 64, 0
2, 55039, Control_c, 0, 64, 44
2, 55053, Control_c, 0, 64, 58
2, 55069, Control_c, 0, 64, 62
2, 55084, Control_c, 0, 64, 64
2, 55099, Control_c, 0, 64, 65
2, 55115, Control_c, 0, 64, 66
2, 55130, Control_c, 0, 64, 67
2, 55146, Control_c, 0, 64, 68
2, 55161, Control_c, 0, 64, 70
2, 55176, Control_c, 0, 64, 70
2, 55192, Control_c, 0, 64, 71
2, 55207, Control_c, 0, 64, 72
2, 55222, Control_c, 0, 64, 72
2, 55237, Control_c, 0, 64, 73
2, 55252, Control_c, 0, 64, 73
2, 55268, Control_c, 0, 64, 74
2, 55275, Note_on_c, 0, 67, 0
2, 55283, Control_c, 0, 64, 74
2, 55297, Control_c, 0, 64, 75
2, 55313, Control_c, 0, 64, 75
2, 55328, Control_c, 0, 64, 76
2, 55344, Note_on_c, 0, 39, 54
2, 55389, Control_c, 0, 64, 76
2, 55440, Note_on_c, 0, 51, 0
2, 55615, Note_on_c, 0, 39, 0
2, 55802, Control_c, 0, 64, 76
2, 55925, Control_c, 0, 64, 75
2, 55954, Control_c, 0, 64, 75
2, 55958, Note_on_c, 0, 63, 64
2, 55960, Note_on_c, 0, 68, 79
2, 55964, Note_on_c, 0, 44, 40
2, 55970, Control_c, 0, 64, 74
2, 55970, Note_on_c, 0, 60, 52
2, 55985, Control_c, 0, 64, 72
2, 56001, Control_c, 0, 64, 68
2, 56015, Control_c, 0, 64, 60
2, 56030, Control_c, 0, 64, 0
2, 57149, Control_c, 0, 64, 33
2, 57171, Control_c, 0, 64, 50
2, 57186, Control_c, 0, 64, 55
2, 57202, Control_c, 0, 64, 60
2, 57217, Control_c, 0, 64, 63
2, 57232, Control_c, 0, 64, 65
2, 57248, Control_c, 0, 64, 67
2, 57263, Control_c, 0, 64, 69
2, 57279, Control_c, 0, 64, 71
2, 57293, Control_c, 0, 64, 73
2, 57308, Control_c, 0, 64, 75
2, 57324, Control_c, 0, 64, 78
2, 57339, Control_c, 0, 64, 79
2, 57354, Control_c, 0, 64, 81
2, 57369, Control_c, 0, 64, 82
2, 57384, Control_c, 0, 64, 83
2, 57400, Control_c, 0, 64, 84
2, 57415, Control_c, 0, 64, 85
2, 57430, Control_c, 0, 64, 86
2, 57445, Control_c, 0, 64, 87
2, 57460, Control_c, 0, 64, 88
2, 57476, Control_c, 0, 64, 88
2, 57506, Control_c, 0, 64, 89
2, 57536, Control_c, 0, 64, 89
2, 57583, Control_c, 0, 64, 90
2, 57659, Control_c, 0, 64, 90
2, 57680, Note_on_c, 0, 44, 0
2, 57703, Note_on_c, 0, 63, 0
2, 57714, Note_on_c, 0, 60, 0
2, 57752, Note_on_c, 0, 68, 0
2, 58213, Control_c, 0, 64, 90
2, 58442, Control_c, 0, 64, 89
2, 58563, Control_c, 0, 64, 89
2, 58623, Control_c, 0, 64, 88
2, 58669, Control_c, 0, 64, 88
2, 58685, Control_c, 0, 64, 87
2, 58707, Control_c, 0, 64, 87
2, 58722, Control_c, 0, 64, 86
2, 58737, Control_c, 0, 64, 85
2, 58752, Control_c, 0, 64, 85
2, 58768, Control_c, 0, 64, 84
2, 58782, Control_c, 0, 64, 83
2, 58798, Control_c, 0, 64, 82
2, 58813, Control_c, 0, 64, 81
2, 58828, Control_c, 0, 64, 80
2, 58844, Control_c, 0, 64, 79
2, 58859, Control_c, 0, 64, 79
2, 58874, Control_c, 0, 64, 78
2, 58890, Control_c, 0, 64, 78
2, 58904, Control_c, 0, 64, 77
2, 58920, Control_c, 0, 64, 76
2, 58935, Control_c, 0, 64, 74
2, 58950, Control_c, 0, 64, 72
2, 58966, Control_c, 0, 64, 70
2, 58980, Control_c, 0, 64, 68
2, 58996, Control_c, 0, 64, 66
2, 59011, Control_c, 0, 64, 65
2, 59026, Control_c, 0, 64, 63
2, 59042, Control_c, 0, 64, 62
2, 59056, Control_c, 0, 64, 60
2, 59071, Control_c, 0, 64, 59
2, 59087, Control_c, 0, 64, 58
2, 59102, Control_c, 0, 64, 57
2, 59118, Control_c, 0, 64, 56
2, 59132, Control_c, 0, 64, 55
2, 59147, Control_c, 0, 64, 53
2, 59163, Control_c, 0, 64, 52
2, 59178, Control_c, 0, 64, 50
2, 59194, Control_c, 0, 64, 48
2, 59209, Control_c, 0, 64, 47
2, 59224, Control_c, 0, 64, 46
2, 59255, Control_c, 0, 64, 46
2, 59270, Control_c, 0, 64, 45
2, 59285, Control_c, 0, 64, 44
2, 59300, Control_c, 0, 64, 44
2, 59317, Control_c, 0, 64, 43
2, 59347, Control_c, 0, 64, 44
2, 59362, Control_c, 0, 64, 44
2, 59438, Control_c, 0, 64, 45
2, 59453, Control_c, 0, 64, 45
2, 59477, Control_c, 0, 64, 46
2, 59491, Control_c, 0, 64, 46
2, 59567, Control_c, 0, 64, 47
2, 59598, Control_c, 0, 64, 47
2, 60191, Control_c, 0, 67, 8
2, 60305, Control_c, 0, 64, 48
2, 60350, Control_c, 0, 64, 48
2, 60381, Control_c, 0, 67, 0
2, 60444, Note_on_c, 0, 56, 49
2, 60457, Control_c, 0, 64, 49
2, 60547, Control_c, 0, 64, 49
2, 60609, Control_c, 0, 64, 50
2, 60654, Control_c, 0, 64, 50
2, 60684, Control_c, 0, 64, 51
2, 60684, Control_c, 0, 67, 8
2, 60745, Control_c, 0, 64, 51
2, 60791, Control_c, 0, 64, 52
2, 60867, Control_c, 0, 67, 0
2, 60937, Note_on_c, 0, 63, 60
2, 61209, Note_on_c, 0, 56, 0
2, 61407, Control_c, 0, 64, 51
2, 61437, Control_c, 0, 64, 51
2, 61437, Note_on_c, 0, 60, 65
2, 61574, Control_c, 0, 64, 50
2, 61636, Control_c, 0, 64, 51
2, 61703, Note_on_c, 0, 63, 0
2, 61909, Note_on_c, 0, 56, 53
2, 61992, Control_c, 0, 64, 50
2, 62112, Note_on_c, 0, 60, 0
2, 62130, Control_c, 0, 64, 50
2, 62296, Control_c, 0, 64, 49
2, 62372, Control_c, 0, 64, 49
2, 62394, Note_on_c, 0, 65, 66
2, 62403, Control_c, 0, 64, 48
2, 62448, Control_c, 0, 64, 48
2, 62562, Note_on_c, 0, 56, 0
2, 62867, Control_c, 0, 64, 47
2, 62890, Note_on_c, 0, 61, 63
2, 62943, Control_c, 0, 64, 47
2, 62989, Control_c, 0, 64, 46
2, 63100, Note_on_c, 0, 65, 0
2, 63186, Control_c, 0, 64, 46
2, 63377, Control_c, 0, 64, 45
2, 63430, Note_on_c, 0, 63, 51
2, 63520, Note_on_c, 0, 61, 0
2, 63939, Control_c, 0, 64, 46
2, 64206, Control_c, 0, 64, 46
2, 64237, Control_c, 0, 64, 47
2, 64252, Control_c, 0, 64, 47
2, 64282, Control_c, 0, 64, 48
2, 64297, Control_c, 0, 64, 48
2, 64312, Control_c, 0, 64, 49
2, 64327, Control_c, 0, 64, 49
2, 64342, Control_c, 0, 64, 50
2, 64373, Control_c, 0, 64, 50
2, 64388, Control_c, 0, 64, 51
2, 64410, Note_on_c, 0, 51, 39
2, 64464, Control_c, 0, 64, 51
2, 64630, Note_on_c, 0, 61, 50
2, 64783, Control_c, 0, 64, 51
2, 64823, Note_on_c, 0, 63, 0
2, 64852, Note_on_c, 0, 56, 67
2, 64881, Note_on_c, 0, 60, 42
2, 64882, Control_c, 0, 64, 50
2, 64912, Control_c, 0, 64, 50
2, 64925, Note_on_c, 0, 61, 0
2, 65059, Note_on_c, 0, 51, 0
2, 65068, Note_on_c, 0, 61, 50
2, 65084, Note_on_c, 0, 60, 0
2, 65277, Note_on_c, 0, 55, 67
2, 65278, Control_c, 0, 64, 49
2, 65298, Note_on_c, 0, 63, 53
2, 65309, Note_on_c, 0, 61, 0
2, 65338, Control_c, 0, 64, 49
2, 65346, Note_on_c, 0, 56, 0
2, 65383, Control_c, 0, 64, 48
2, 65495, Note_on_c, 0, 63, 0
2, 65506, Note_on_c, 0, 65, 61
2, 65700, Note_on_c, 0, 51, 50
2, 65729, Note_on_c, 0, 67, 68
2, 65746, Note_on_c, 0, 65, 0
2, 65763, Note_on_c, 0, 55, 0
2, 65934, Note_on_c, 0, 63, 67
2, 65938, Note_on_c, 0, 67, 0
2, 66109, Control_c, 0, 64, 48
2, 66124, Control_c, 0, 64, 47
2, 66136, Note_on_c, 0, 60, 62
2, 66138, Note_on_c, 0, 68, 73
2, 66200, Control_c, 0, 64, 47
2, 66215, Control_c, 0, 64, 46
2, 66266, Note_on_c, 0, 63, 0
2, 66351, Note_on_c, 0, 70, 70
2, 66367, Control_c, 0, 64, 46
2, 66409, Note_on_c, 0, 68, 0
2, 66436, Control_c, 0, 64, 46
2, 66554, Note_on_c, 0, 72, 73
2, 66562, Note_on_c, 0, 56, 58
2, 66574, Control_c, 0, 64, 46
2, 66602, Note_on_c, 0, 70, 0
2, 66617, Note_on_c, 0, 60, 0
2, 66619, Control_c, 0, 64, 45
2, 66695, Control_c, 0, 64, 45
2, 66720, Note_on_c, 0, 51, 0
2, 66756, Control_c, 0, 64, 44
2, 66756, Note_on_c, 0, 70, 76
2, 66786, Control_c, 0, 64, 44
2, 66878, Control_c, 0, 64, 43
2, 66947, Note_on_c, 0, 68, 75
2, 66952, Note_on_c, 0, 58, 47
2, 66954, Control_c, 0, 64, 43
2, 66984, Control_c, 0, 64, 42
2, 67009, Note_on_c, 0, 56, 0
2, 67012, Control_c, 0, 64, 42
2, 67046, Note_on_c, 0, 72, 0
2, 67058, Control_c, 0, 64, 41
2, 67073, Control_c, 0, 64, 41
2, 67088, Control_c, 0, 64, 40
2, 67103, Control_c, 0, 64, 39
2, 67119, Control_c, 0, 64, 38
2, 67134, Control_c, 0, 64, 38
2, 67157, Control_c, 0, 64, 36
2, 67166, Note_on_c, 0, 67, 74
2, 67172, Control_c, 0, 64, 35
2, 67187, Control_c, 0, 64, 33
2, 67193, Note_on_c, 0, 70, 0
2, 67202, Control_c, 0, 64, 32
2, 67217, Control_c, 0, 64, 29
2, 67233, Control_c, 0, 64, 27
2, 67248, Control_c, 0, 64, 24
2, 67251, Note_on_c, 0, 68, 0
2, 67263, Control_c, 0, 64, 21
2, 67278, Control_c, 0, 64, 18
2, 67293, Control_c, 0, 64, 10
2, 67309, Control_c, 0, 64, 0
2, 67353, Note_on_c, 0, 51, 43
2, 67361, Note_on_c, 0, 65, 75
2, 67392, Note_on_c, 0, 58, 0
2, 67417, Note_on_c, 0, 67, 0
2, 67551, Note_on_c, 0, 68, 69
2, 67635, Note_on_c, 0, 65, 0
2, 67801, Note_on_c, 0, 67, 60
2, 67807, Note_on_c, 0, 58, 39
2, 67842, Note_on_c, 0, 68, 0
2, 67919, Note_on_c, 0, 51, 0
2, 68256, Note_on_c, 0, 55, 45
2, 68363, Note_on_c, 0, 58, 0
2, 68706, Note_on_c, 0, 56, 49
2, 68779, Note_on_c, 0, 55, 0
2, 69145, Note_on_c, 0, 56, 0
2, 69161, Note_on_c, 0, 51, 35
2, 69317, Control_c, 0, 67, 8
2, 69378, Control_c, 0, 67, 8
2, 69408, Control_c, 0, 67, 9
2, 69423, Control_c, 0, 67, 10
2, 69439, Control_c, 0, 67, 12
2, 69460, Control_c, 0, 67, 12
2, 69476, Control_c, 0, 67, 13
2, 69491, Control_c, 0, 67, 13
2, 69506, Control_c, 0, 67, 14
2, 69582, Control_c, 0, 67, 13
2, 69612, Note_on_c, 0, 65, 61
2, 69613, Control_c, 0, 67, 13
2, 69621, Note_on_c, 0, 56, 37
2, 69641, Note_on_c, 0, 67, 0
2, 69674, Control_c, 0, 67, 12
2, 69689, Control_c, 0, 67, 12
2, 69734, Control_c, 0, 67, 11
2, 69780, Control_c, 0, 67, 11
2, 69825, Control_c, 0, 67, 10
2, 69826, Note_on_c, 0, 51, 0
2, 69978, Control_c, 0, 67, 10
2, 70090, Note_on_c, 0, 53, 44
2, 70103, Control_c, 0, 67, 9
2, 70246, Control_c, 0, 67, 9
2, 70307, Control_c, 0, 67, 8
2, 70444, Control_c, 0, 67, 8
2, 70520, Control_c, 0, 67, 0
2, 70527, Note_on_c, 0, 55, 46
2, 70533, Note_on_c, 0, 53, 0
2, 70560, Note_on_c, 0, 56, 0
2, 70733, Note_on_c, 0, 63, 56
2, 70756, Note_on_c, 0, 65, 0
2, 70946, Note_on_c, 0, 62, 68
2, 71026, Note_on_c, 0, 63, 0
2, 71147, Note_on_c, 0, 65, 63
2, 71188, Note_on_c, 0, 62, 0
2, 71373, Note_on_c, 0, 63, 59
2, 71401, Note_on_c, 0, 65, 0
2, 71554, Note_on_c, 0, 48, 51
2, 71713, Note_on_c, 0, 55, 0
2, 71791, Note_on_c, 0, 49, 61
2, 71915, Note_on_c, 0, 48, 0
2, 71993, Note_on_c, 0, 51, 65
2, 72197, Note_on_c, 0, 49, 0
2, 72199, Note_on_c, 0, 53, 69
2, 72281, Note_on_c, 0, 51, 0
2, 72392, Note_on_c, 0, 53, 0
2, 72407, Note_on_c, 0, 55, 56
2, 72607, Note_on_c, 0, 61, 53
2, 72615, Note_on_c, 0, 56, 48
2, 72617, Note_on_c, 0, 55, 0
2, 72634, Note_on_c, 0, 63, 0
2, 72768, Note_on_c, 0, 56, 0
2, 72794, Note_on_c, 0, 53, 49
2, 72800, Note_on_c, 0, 60, 53
2, 72847, Note_on_c, 0, 61, 0
2, 72994, Note_on_c, 0, 60, 0
2, 72999, Note_on_c, 0, 58, 42
2, 73000, Note_on_c, 0, 61, 60
2, 73184, Note_on_c, 0, 58, 0
2, 73202, Note_on_c, 0, 65, 67
2, 73213, Note_on_c, 0, 60, 48
2, 73214, Note_on_c, 0, 61, 0
2, 73369, Note_on_c, 0, 60, 0
2, 73398, Note_on_c, 0, 70, 72
2, 73411, Note_on_c, 0, 61, 49
2, 73429, Note_on_c, 0, 65, 0
2, 73572, Note_on_c, 0, 61, 0
2, 73595, Note_on_c, 0, 68, 75
2, 73598, Note_on_c, 0, 60, 51
2, 73789, Note_on_c, 0, 60, 0
2, 73794, Note_on_c, 0, 67, 76
2, 73795, Note_on_c, 0, 58, 53
2, 73835, Note_on_c, 0, 70, 0
2, 73869, Note_on_c, 0, 68, 0
2, 73909, Note_on_c, 0, 53, 0
2, 73963, Note_on_c, 0, 58, 0
2, 73980, Note_on_c, 0, 56, 54
2, 73989, Note_on_c, 0, 65, 78
2, 74153, Note_on_c, 0, 56, 0
2, 74186, Note_on_c, 0, 55, 47
2, 74196, Note_on_c, 0, 63, 76
2, 74208, Note_on_c, 0, 65, 0
2, 74219, Note_on_c, 0, 67, 0
2, 74358, Note_on_c, 0, 63, 0
2, 74371, Note_on_c, 0, 58, 53
2, 74378, Note_on_c, 0, 61, 66
2, 74541, Note_on_c, 0, 58, 0
2, 74562, Note_on_c, 0, 55, 0
2, 74602, Note_on_c, 0, 60, 47
2, 74602, Note_on_c, 0, 68, 72
2, 74604, Note_on_c, 0, 56, 47
2, 74691, Note_on_c, 0, 61, 0
2, 74710, Control_c, 0, 64, 10
2, 74725, Control_c, 0, 64, 18
2, 74740, Control_c, 0, 64, 21
2, 74756, Control_c, 0, 64, 22
2, 74793, Note_on_c, 0, 58, 58
2, 74852, Note_on_c, 0, 60, 0
2, 74855, Control_c, 0, 64, 24
2, 74871, Control_c, 0, 64, 27
2, 74885, Control_c, 0, 64, 32
2, 74900, Control_c, 0, 64, 35
2, 74916, Control_c, 0, 64, 37
2, 74930, Control_c, 0, 64, 39
2, 74946, Control_c, 0, 64, 40
2, 74961, Control_c, 0, 64, 40
2, 74976, Control_c, 0, 64, 41
2, 74992, Control_c, 0, 64, 41
2, 75007, Note_on_c, 0, 60, 52
2, 75014, Note_on_c, 0, 75, 82
2, 75021, Control_c, 0, 64, 42
2, 75021, Note_on_c, 0, 58, 0
2, 75052, Control_c, 0, 64, 43
2, 75068, Control_c, 0, 64, 44
2, 75083, Control_c, 0, 64, 46
2, 75097, Control_c, 0, 64, 47
2, 75113, Control_c, 0, 64, 48
2, 75128, Control_c, 0, 64, 50
2, 75144, Control_c, 0, 64, 52
2, 75159, Control_c, 0, 64, 54
2, 75174, Control_c, 0, 64, 56
2, 75190, Control_c, 0, 64, 58
2, 75202, Note_on_c, 0, 60, 0
2, 75205, Control_c, 0, 64, 59
2, 75206, Note_on_c, 0, 61, 68
2, 75219, Control_c, 0, 64, 61
2, 75235, Control_c, 0, 64, 61
2, 75266, Control_c, 0, 64, 62
2, 75306, Note_on_c, 0, 61, 0
2, 75358, Note_on_c, 0, 68, 0
2, 75409, Note_on_c, 0, 72, 80
2, 75413, Note_on_c, 0, 63, 63
2, 75416, Control_c, 0, 64, 62
2, 75447, Control_c, 0, 64, 63
2, 75463, Control_c, 0, 64, 63
2, 75615, Note_on_c, 0, 44, 69
2, 75697, Note_on_c, 0, 63, 0
2, 75765, Note_on_c, 0, 75, 0
2, 75790, Control_c, 0, 64, 63
2, 75805, Control_c, 0, 64, 62
2, 75814, Note_on_c, 0, 46, 64
2, 75832, Note_on_c, 0, 68, 84
2, 75878, Note_on_c, 0, 72, 0
2, 75927, Control_c, 0, 64, 63
2, 75957, Control_c, 0, 64, 63
2, 75966, Note_on_c, 0, 44, 0
2, 76002, Note_on_c, 0, 48, 61
2, 76057, Note_on_c, 0, 46, 0
2, 76089, Note_on_c, 0, 48, 0
2, 76110, Control_c, 0, 64, 63
2, 76139, Control_c, 0, 64, 62
2, 76155, Control_c, 0, 64, 62
2, 76170, Control_c, 0, 64, 59
2, 76185, Control_c, 0, 64, 51
2, 76200, Control_c, 0, 64, 26
2, 76216, Control_c, 0, 64, 0
2, 76232, Note_on_c, 0, 49, 58
2, 76236, Note_on_c, 0, 77, 87
2, 76391, Control_c, 0, 64, 39
2, 76402, Note_on_c, 0, 68, 0
2, 76407, Control_c, 0, 64, 52
2, 76418, Note_on_c, 0, 51, 56
2, 76421, Control_c, 0, 64, 57
2, 76437, Control_c, 0, 64, 59
2, 76452, Control_c, 0, 64, 60
2, 76468, Control_c, 0, 64, 60
2, 76528, Control_c, 0, 64, 60
2, 76590, Control_c, 0, 64, 60
2, 76649, Note_on_c, 0, 73, 86
2, 76650, Control_c, 0, 64, 61
2, 76650, Note_on_c, 0, 53, 62
2, 76666, Control_c, 0, 64, 61
2, 76681, Note_on_c, 0, 51, 0
2, 76687, Note_on_c, 0, 74, 37
2, 76694, Note_on_c, 0, 77, 0
2, 76696, Control_c, 0, 64, 62
2, 76711, Control_c, 0, 64, 62
2, 76715, Note_on_c, 0, 74, 0
2, 76721, Note_on_c, 0, 49, 0
2, 76741, Control_c, 0, 64, 63
2, 76817, Control_c, 0, 64, 63
2, 76824, Note_on_c, 0, 51, 58
2, 76847, Control_c, 0, 64, 63
2, 76900, Note_on_c, 0, 53, 0
2, 76908, Control_c, 0, 64, 62
2, 76938, Control_c, 0, 64, 62
2, 76954, Control_c, 0, 64, 61
2, 76955, Note_on_c, 0, 56, 0
2, 76969, Control_c, 0, 64, 58
2, 76985, Control_c, 0, 64, 46
2, 76999, Control_c, 0, 64, 0
2, 77057, Note_on_c, 0, 75, 74
2, 77058, Note_on_c, 0, 49, 49
2, 77070, Note_on_c, 0, 55, 43
2, 77093, Note_on_c, 0, 73, 0
2, 77121, Control_c, 0, 64, 34
2, 77125, Note_on_c, 0, 51, 0
2, 77144, Control_c, 0, 64, 46
2, 77159, Control_c, 0, 64, 49
2, 77164, Note_on_c, 0, 49, 0
2, 77173, Control_c, 0, 64, 53
2, 77189, Control_c, 0, 64, 57
2, 77204, Control_c, 0, 64, 59
2, 77220, Control_c, 0, 64, 60
2, 77236, Control_c, 0, 64, 60
2, 77257, Note_on_c, 0, 48, 48
2, 77266, Control_c, 0, 64, 61
2, 77296, Control_c, 0, 64, 61
2, 77312, Control_c, 0, 64, 62
2, 77327, Control_c, 0, 64, 62
2, 77341, Control_c, 0, 64, 63
2, 77357, Control_c, 0, 64, 64
2, 77388, Control_c, 0, 64, 64
2, 77403, Control_c, 0, 64, 65
2, 77449, Control_c, 0, 64, 65
2, 77458, Note_on_c, 0, 46, 53
2, 77470, Note_on_c, 0, 48, 0
2, 77519, Note_on_c, 0, 55, 0
2, 77555, Control_c, 0, 64, 65
2, 77600, Control_c, 0, 64, 64
2, 77659, Note_on_c, 0, 49, 50
2, 77676, Control_c, 0, 64, 64
2, 77684, Note_on_c, 0, 46, 0
2, 77843, Control_c, 0, 64, 62
2, 77855, Note_on_c, 0, 49, 0
2, 77858, Control_c, 0, 64, 51
2, 77873, Control_c, 0, 64, 19
2, 77881, Note_on_c, 0, 48, 48
2, 77886, Note_on_c, 0, 63, 60
2, 77888, Control_c, 0, 64, 0
2, 77892, Note_on_c, 0, 56, 38
2, 77956, Control_c, 0, 64, 22
2, 77971, Control_c, 0, 64, 44
2, 77987, Control_c, 0, 64, 52
2, 78002, Control_c, 0, 64, 56
2, 78017, Control_c, 0, 64, 58
2, 78033, Control_c, 0, 64, 60
2, 78048, Control_c, 0, 64, 61
2, 78064, Control_c, 0, 64, 62
2, 78079, Control_c, 0, 64, 62
2, 78104, Note_on_c, 0, 58, 65
2, 78139, Control_c, 0, 64, 63
2, 78170, Note_on_c, 0, 56, 0
2, 78206, Note_on_c, 0, 48, 0
2, 78303, Note_on_c, 0, 60, 79
2, 78305, Note_on_c, 0, 68, 76
2, 78394, Note_on_c, 0, 63, 0
2, 78432, Note_on_c, 0, 58, 0
2, 78458, Control_c, 0, 64, 62
2, 78513, Note_on_c, 0, 50, 67
2, 78519, Control_c, 0, 64, 62
2, 78610, Control_c, 0, 64, 61
2, 78641, Control_c, 0, 64, 59
2, 78656, Control_c, 0, 64, 47
2, 78679, Control_c, 0, 64, 0
2, 78710, Note_on_c, 0, 60, 0
2, 78718, Note_on_c, 0, 51, 63
2, 78723, Note_on_c, 0, 67, 77
2, 78789, Note_on_c, 0, 68, 0
2, 78808, Note_on_c, 0, 50, 0
2, 78858, Control_c, 0, 64, 27
2, 78872, Control_c, 0, 64, 48
2, 78888, Control_c, 0, 64, 56
2, 78903, Control_c, 0, 64, 59
2, 78919, Control_c, 0, 64, 61
2, 78932, Note_on_c, 0, 53, 74
2, 78934, Control_c, 0, 64, 63
2, 78948, Control_c, 0, 64, 64
2, 78964, Control_c, 0, 64, 64
2, 78979, Control_c, 0, 64, 65
2, 79034, Note_on_c, 0, 51, 0
2, 79129, Note_on_c, 0, 55, 78
2, 79131, Note_on_c, 0, 67, 0
2, 79134, Note_on_c, 0, 63, 79
2, 79147, Control_c, 0, 64, 65
2, 79162, Control_c, 0, 64, 66
2, 79177, Control_c, 0, 64, 66
2, 79182, Note_on_c, 0, 53, 0
2, 79207, Control_c, 0, 64, 67
2, 79269, Note_on_c, 0, 63, 0
2, 79284, Control_c, 0, 64, 67
2, 79310, Note_on_c, 0, 58, 78
2, 79315, Note_on_c, 0, 55, 0
2, 79330, Control_c, 0, 64, 68
2, 79465, Note_on_c, 0, 75, 0
2, 79489, Control_c, 0, 64, 67
2, 79504, Control_c, 0, 64, 65
2, 79520, Control_c, 0, 64, 60
2, 79535, Control_c, 0, 64, 36
2, 79540, Note_on_c, 0, 56, 58
2, 79550, Control_c, 0, 64, 0
2, 79560, Note_on_c, 0, 72, 72
2, 79561, Note_on_c, 0, 80, 89
2, 79625, Control_c, 0, 64, 46
2, 79641, Control_c, 0, 64, 56
2, 79656, Control_c, 0, 64, 58
2, 79672, Control_c, 0, 64, 60
2, 79688, Control_c, 0, 64, 61
2, 79703, Control_c, 0, 64, 63
2, 79718, Control_c, 0, 64, 63
2, 79733, Control_c, 0, 64, 64
2, 79748, Control_c, 0, 64, 65
2, 79748, Note_on_c, 0, 55, 59
2, 79762, Note_on_c, 0, 58, 0
2, 79764, Control_c, 0, 64, 66
2, 79779, Control_c, 0, 64, 66
2, 79784, Note_on_c, 0, 56, 0
2, 79793, Control_c, 0, 64, 67
2, 79809, Control_c, 0, 64, 68
2, 79824, Control_c, 0, 64, 69
2, 79840, Control_c, 0, 64, 70
2, 79915, Control_c, 0, 64, 68
2, 79930, Control_c, 0, 64, 63
2, 79945, Control_c, 0, 64, 51
2, 79961, Control_c, 0, 64, 30
2, 79976, Control_c, 0, 64, 0
2, 79976, Note_on_c, 0, 68, 87
2, 79980, Note_on_c, 0, 60, 65
2, 79985, Note_on_c, 0, 53, 61
2, 79991, Control_c, 0, 64, 13
2, 80007, Control_c, 0, 64, 35
2, 80022, Control_c, 0, 64, 51
2, 80033, Note_on_c, 0, 55, 0
2, 80037, Control_c, 0, 64, 59
2, 80050, Control_c, 0, 64, 61
2, 80065, Control_c, 0, 64, 63
2, 80081, Control_c, 0, 64, 64
2, 80096, Control_c, 0, 64, 64
2, 80111, Control_c, 0, 64, 65
2, 80126, Control_c, 0, 64, 66
2, 80127, Note_on_c, 0, 72, 0
2, 80130, Note_on_c, 0, 60, 0
2, 80141, Control_c, 0, 64, 66
2, 80151, Note_on_c, 0, 51, 61
2, 80151, Note_on_c, 0, 53, 0
2, 80157, Control_c, 0, 64, 67
2, 80189, Note_on_c, 0, 51, 0
2, 80210, Control_c, 0, 64, 67
2, 80301, Control_c, 0, 64, 68
2, 80325, Note_on_c, 0, 80, 0
2, 80392, Control_c, 0, 64, 67
2, 80407, Control_c, 0, 64, 66
2, 80408, Note_on_c, 0, 53, 48
2, 80408, Note_on_c, 0, 70, 61
2, 80411, Note_on_c, 0, 80, 87
2, 80422, Control_c, 0, 64, 60
2, 80425, Note_on_c, 0, 50, 49
2, 80438, Control_c, 0, 64, 32
2, 80453, Control_c, 0, 64, 0
2, 80517, Note_on_c, 0, 68, 0
2, 80530, Control_c, 0, 64, 19
2, 80545, Control_c, 0, 64, 44
2, 80560, Control_c, 0, 64, 49
2, 80575, Control_c, 0, 64, 53
2, 80590, Control_c, 0, 64, 56
2, 80606, Control_c, 0, 64, 58
2, 80616, Note_on_c, 0, 46, 60
2, 80621, Control_c, 0, 64, 60
2, 80637, Control_c, 0, 64, 61
2, 80652, Control_c, 0, 64, 62
2, 80655, Note_on_c, 0, 50, 0
2, 80666, Control_c, 0, 64, 63
2, 80682, Control_c, 0, 64, 63
2, 80685, Note_on_c, 0, 53, 0
2, 80697, Control_c, 0, 64, 64
2, 80712, Control_c, 0, 64, 64
2, 80728, Control_c, 0, 64, 65
2, 80839, Note_on_c, 0, 48, 60
2, 80864, Control_c, 0, 64, 64
2, 80982, Note_on_c, 0, 46, 0
2, 81019, Note_on_c, 0, 50, 60
2, 81033, Note_on_c, 0, 48, 0
2, 81065, Note_on_c, 0, 50, 0
2, 81138, Note_on_c, 0, 80, 0
2, 81206, Control_c, 0, 64, 64
2, 81221, Control_c, 0, 64, 61
2, 81235, Control_c, 0, 64, 48
2, 81249, Note_on_c, 0, 51, 53
2, 81251, Control_c, 0, 64, 0
2, 81252, Note_on_c, 0, 79, 73
2, 81342, Note_on_c, 0, 70, 0
2, 81345, Control_c, 0, 64, 35
2, 81361, Control_c, 0, 64, 53
2, 81376, Control_c, 0, 64, 57
2, 81392, Control_c, 0, 64, 59
2, 81406, Control_c, 0, 64, 61
2, 81421, Control_c, 0, 64, 62
2, 81437, Control_c, 0, 64, 62
2, 81452, Control_c, 0, 64, 63
2, 81467, Control_c, 0, 64, 63
2, 81467, Note_on_c, 0, 63, 49
2, 81513, Control_c, 0, 64, 64
2, 81553, Note_on_c, 0, 79, 0
2, 81559, Control_c, 0, 64, 65
2, 81604, Control_c, 0, 64, 65
2, 81659, Note_on_c, 0, 65, 60
2, 81726, Control_c, 0, 64, 65
2, 81752, Note_on_c, 0, 65, 0
2, 81824, Control_c, 0, 64, 64
2, 81838, Note_on_c, 0, 63, 0
2, 81866, Note_on_c, 0, 67, 58
2, 81945, Control_c, 0, 64, 64
2, 82024, Control_c, 0, 64, 63
2, 82054, Control_c, 0, 64, 62
2, 82073, Note_on_c, 0, 77, 70
2, 82078, Note_on_c, 0, 68, 53
2, 82084, Control_c, 0, 64, 62
2, 82115, Control_c, 0, 64, 61
2, 82131, Control_c, 0, 64, 61
2, 82134, Note_on_c, 0, 67, 0
2, 82162, Control_c, 0, 64, 60
2, 82176, Control_c, 0, 64, 60
2, 82207, Control_c, 0, 64, 59
2, 82223, Control_c, 0, 64, 57
2, 82238, Control_c, 0, 64, 57
2, 82276, Note_on_c, 0, 70, 56
2, 82283, Control_c, 0, 64, 57
2, 82294, Note_on_c, 0, 68, 0
2, 82313, Control_c, 0, 64, 58
2, 82390, Control_c, 0, 64, 57
2, 82405, Control_c, 0, 64, 54
2, 82420, Control_c, 0, 64, 48
2, 82435, Control_c, 0, 64, 41
2, 82450, Control_c, 0, 64, 38
2, 82466, Control_c, 0, 64, 38
2, 82475, Note_on_c, 0, 56, 67
2, 82481, Control_c, 0, 64, 41
2, 82496, Control_c, 0, 64, 46
2, 82497, Note_on_c, 0, 72, 58
2, 82518, Control_c, 0, 64, 52
2, 82525, Note_on_c, 0, 70, 0
2, 82533, Control_c, 0, 64, 56
2, 82549, Control_c, 0, 64, 58
2, 82564, Control_c, 0, 64, 59
2, 82579, Control_c, 0, 64, 60
2, 82579, Note_on_c, 0, 51, 0
2, 82594, Control_c, 0, 64, 61
2, 82655, Control_c, 0, 64, 61
2, 82687, Note_on_c, 0, 70, 52
2, 82691, Note_on_c, 0, 72, 0
2, 82762, Control_c, 0, 64, 62
2, 82838, Control_c, 0, 64, 61
2, 82853, Control_c, 0, 64, 59
2, 82868, Control_c, 0, 64, 50
2, 82883, Control_c, 0, 64, 24
2, 82883, Note_on_c, 0, 50, 65
2, 82897, Note_on_c, 0, 68, 62
2, 82898, Control_c, 0, 64, 0
2, 82912, Note_on_c, 0, 56, 0
2, 82937, Note_on_c, 0, 70, 0
2, 82960, Control_c, 0, 64, 32
2, 82975, Control_c, 0, 64, 51
2, 82991, Control_c, 0, 64, 56
2, 83006, Control_c, 0, 64, 58
2, 83020, Control_c, 0, 64, 59
2, 83036, Control_c, 0, 64, 60
2, 83051, Control_c, 0, 64, 61
2, 83067, Control_c, 0, 64, 62
2, 83093, Note_on_c, 0, 67, 60
2, 83096, Control_c, 0, 64, 62
2, 83107, Note_on_c, 0, 68, 0
2, 83189, Note_on_c, 0, 67, 0
2, 83219, Control_c, 0, 64, 63
2, 83303, Control_c, 0, 64, 62
2, 83311, Note_on_c, 0, 58, 60
2, 83313, Note_on_c, 0, 65, 59
2, 83337, Note_on_c, 0, 50, 0
2, 83454, Control_c, 0, 64, 62
2, 83488, Note_on_c, 0, 65, 0
2, 83503, Note_on_c, 0, 68, 59
2, 83606, Control_c, 0, 64, 61
2, 83621, Control_c, 0, 64, 61
2, 83637, Control_c, 0, 64, 60
2, 83652, Control_c, 0, 64, 57
2, 83668, Control_c, 0, 64, 50
2, 83677, Note_on_c, 0, 68, 0
2, 83683, Control_c, 0, 64, 29
2, 83697, Control_c, 0, 64, 0
2, 83705, Note_on_c, 0, 51, 48
2, 83713, Note_on_c, 0, 67, 51
2, 83762, Note_on_c, 0, 58, 0
2, 83820, Control_c, 0, 64, 30
2, 83836, Control_c, 0, 64, 40
2, 83851, Control_c, 0, 64, 46
2, 83866, Control_c, 0, 64, 50
2, 83881, Control_c, 0, 64, 54
2, 83895, Control_c, 0, 64, 56
2, 83911, Control_c, 0, 64, 57
2, 83926, Control_c, 0, 64, 58
2, 83926, Note_on_c, 0, 70, 53
2, 83940, Control_c, 0, 64, 59
2, 83956, Control_c, 0, 64, 59
2, 83971, Control_c, 0, 64, 60
2, 84016, Control_c, 0, 64, 60
2, 84023, Note_on_c, 0, 77, 0
2, 84032, Control_c, 0, 64, 60
2, 84055, Control_c, 0, 64, 59
2, 84071, Control_c, 0, 64, 59
2, 84100, Control_c, 0, 64, 58
2, 84126, Note_on_c, 0, 72, 75
2, 84189, Note_on_c, 0, 70, 0
2, 84316, Note_on_c, 0, 74, 76
2, 84344, Control_c, 0, 64, 59
2, 84386, Note_on_c, 0, 72, 0
2, 84503, Note_on_c, 0, 51, 0
2, 84522, Note_on_c, 0, 75, 75
2, 84551, Note_on_c, 0, 74, 0
2, 84588, Control_c, 0, 64, 59
2, 84694, Control_c, 0, 64, 60
2, 84713, Note_on_c, 0, 51, 55
2, 84739, Control_c, 0, 64, 59
2, 84755, Control_c, 0, 64, 55
2, 84769, Control_c, 0, 64, 46
2, 84785, Control_c, 0, 64, 37
2, 84800, Control_c, 0, 64, 36
2, 84824, Control_c, 0, 64, 39
2, 84838, Control_c, 0, 64, 44
2, 84853, Control_c, 0, 64, 49
2, 84869, Control_c, 0, 64, 54
2, 84874, Note_on_c, 0, 67, 0
2, 84884, Control_c, 0, 64, 57
2, 84899, Control_c, 0, 64, 59
2, 84913, Control_c, 0, 64, 61
2, 84927, Control_c, 0, 64, 62
2, 84935, Note_on_c, 0, 53, 56
2, 84942, Control_c, 0, 64, 62
2, 84958, Control_c, 0, 64, 63
2, 84987, Control_c, 0, 64, 64
2, 85013, Note_on_c, 0, 51, 0
2, 85063, Control_c, 0, 64, 64
2, 85125, Note_on_c, 0, 55, 67
2, 85145, Note_on_c, 0, 53, 0
2, 85179, Note_on_c, 0, 55, 0
2, 85277, Control_c, 0, 64, 64
2, 85291, Control_c, 0, 64, 62
2, 85306, Control_c, 0, 64, 55
2, 85317, Note_on_c, 0, 56, 64
2, 85321, Note_on_c, 0, 65, 62
2, 85322, Control_c, 0, 64, 41
2, 85337, Control_c, 0, 64, 34
2, 85353, Control_c, 0, 64, 35
2, 85367, Control_c, 0, 64, 40
2, 85382, Control_c, 0, 64, 47
2, 85399, Control_c, 0, 64, 54
2, 85414, Control_c, 0, 64, 59
2, 85430, Control_c, 0, 64, 61
2, 85445, Control_c, 0, 64, 61
2, 85460, Control_c, 0, 64, 62
2, 85475, Control_c, 0, 64, 62
2, 85505, Control_c, 0, 64, 63
2, 85521, Control_c, 0, 64, 63
2, 85528, Note_on_c, 0, 58, 48
2, 85535, Note_on_c, 0, 56, 0
2, 85551, Control_c, 0, 64, 64
2, 85619, Control_c, 0, 64, 64
2, 85664, Control_c, 0, 64, 65
2, 85721, Note_on_c, 0, 58, 0
2, 85726, Control_c, 0, 64, 65
2, 85747, Note_on_c, 0, 80, 79
2, 85759, Note_on_c, 0, 60, 46
2, 85774, Note_on_c, 0, 75, 0
2, 85802, Control_c, 0, 64, 66
2, 85847, Control_c, 0, 64, 66
2, 85943, Note_on_c, 0, 58, 50
2, 85953, Control_c, 0, 64, 67
2, 85964, Note_on_c, 0, 60, 0
2, 86013, Control_c, 0, 64, 67
2, 86120, Control_c, 0, 64, 67
2, 86135, Control_c, 0, 64, 65
2, 86144, Note_on_c, 0, 56, 48
2, 86150, Note_on_c, 0, 73, 80
2, 86151, Control_c, 0, 64, 61
2, 86166, Control_c, 0, 64, 54
2, 86171, Note_on_c, 0, 80, 0
2, 86197, Control_c, 0, 64, 56
2, 86212, Control_c, 0, 64, 59
2, 86228, Control_c, 0, 64, 62
2, 86243, Control_c, 0, 64, 63
2, 86258, Control_c, 0, 64, 64
2, 86274, Control_c, 0, 64, 65
2, 86289, Control_c, 0, 64, 66
2, 86300, Note_on_c, 0, 58, 0
2, 86304, Control_c, 0, 64, 66
2, 86334, Control_c, 0, 64, 67
2, 86386, Control_c, 0, 64, 67
2, 86386, Note_on_c, 0, 55, 40
2, 86403, Note_on_c, 0, 56, 0
2, 86433, Note_on_c, 0, 65, 0
2, 86461, Control_c, 0, 64, 68
2, 86537, Control_c, 0, 64, 68
2, 86564, Note_on_c, 0, 82, 78
2, 86568, Note_on_c, 0, 53, 48
2, 86568, Note_on_c, 0, 55, 0
2, 86583, Control_c, 0, 64, 69
2, 86598, Control_c, 0, 64, 70
2, 86613, Control_c, 0, 64, 70
2, 86627, Note_on_c, 0, 82, 0
2, 86708, Note_on_c, 0, 73, 0
2, 86784, Note_on_c, 0, 56, 48
2, 86799, Note_on_c, 0, 53, 0
2, 86977, Note_on_c, 0, 55, 46
2, 86978, Control_c, 0, 64, 70
2, 86986, Note_on_c, 0, 73, 70
2, 86992, Control_c, 0, 64, 67
2, 87008, Control_c, 0, 64, 62
2, 87010, Note_on_c, 0, 56, 0
2, 87023, Control_c, 0, 64, 55
2, 87040, Control_c, 0, 64, 50
2, 87055, Control_c, 0, 64, 51
2, 87070, Control_c, 0, 64, 54
2, 87085, Control_c, 0, 64, 57
2, 87100, Control_c, 0, 64, 60
2, 87124, Control_c, 0, 64, 62
2, 87139, Control_c, 0, 64, 63
2, 87154, Control_c, 0, 64, 63
2, 87169, Control_c, 0, 64, 64
2, 87200, Control_c, 0, 67, 8
2, 87210, Note_on_c, 0, 63, 44
2, 87215, Control_c, 0, 67, 9
2, 87229, Control_c, 0, 67, 10
2, 87245, Control_c, 0, 67, 11
2, 87260, Control_c, 0, 64, 63
2, 87260, Control_c, 0, 67, 12
2, 87275, Control_c, 0, 67, 13
2, 87290, Control_c, 0, 64, 62
2, 87290, Control_c, 0, 67, 13
2, 87305, Control_c, 0, 64, 61
2, 87305, Control_c, 0, 67, 15
2, 87321, Control_c, 0, 64, 60
2, 87321, Control_c, 0, 67, 16
2, 87336, Control_c, 0, 64, 59
2, 87336, Control_c, 0, 67, 19
2, 87351, Control_c, 0, 64, 58
2, 87351, Control_c, 0, 67, 21
2, 87353, Note_on_c, 0, 55, 0
2, 87367, Control_c, 0, 64, 56
2, 87367, Control_c, 0, 67, 23
2, 87381, Control_c, 0, 64, 52
2, 87381, Control_c, 0, 67, 26
2, 87397, Control_c, 0, 64, 50
2, 87397, Control_c, 0, 67, 29
2, 87400, Note_on_c, 0, 65, 51
2, 87409, Note_on_c, 0, 63, 0
2, 87412, Control_c, 0, 67, 32
2, 87414, Note_on_c, 0, 51, 38
2, 87426, Control_c, 0, 64, 51
2, 87426, Control_c, 0, 67, 34
2, 87442, Control_c, 0, 64, 54
2, 87442, Control_c, 0, 67, 36
2, 87457, Control_c, 0, 64, 56
2, 87457, Control_c, 0, 67, 37
2, 87472, Control_c, 0, 64, 60
2, 87472, Control_c, 0, 67, 38
2, 87488, Control_c, 0, 64, 62
2, 87488, Control_c, 0, 67, 39
2, 87503, Control_c, 0, 64, 63
2, 87503, Control_c, 0, 67, 40
2, 87521, Control_c, 0, 64, 64
2, 87536, Control_c, 0, 64, 64
2, 87536, Control_c, 0, 67, 41
2, 87552, Control_c, 0, 64, 65
2, 87566, Control_c, 0, 64, 65
2, 87581, Control_c, 0, 64, 66
2, 87587, Note_on_c, 0, 67, 47
2, 87597, Control_c, 0, 67, 42
2, 87612, Control_c, 0, 64, 66
2, 87612, Control_c, 0, 67, 43
2, 87626, Control_c, 0, 67, 45
2, 87642, Control_c, 0, 64, 67
2, 87642, Control_c, 0, 67, 47
2, 87657, Control_c, 0, 67, 49
2, 87671, Note_on_c, 0, 51, 0
2, 87673, Control_c, 0, 67, 50
2, 87688, Control_c, 0, 67, 50
2, 87689, Note_on_c, 0, 73, 0
2, 87702, Control_c, 0, 67, 51
2, 87733, Control_c, 0, 64, 66
2, 87748, Control_c, 0, 67, 51
2, 87757, Note_on_c, 0, 65, 0
2, 87778, Control_c, 0, 64, 66
2, 87798, Note_on_c, 0, 67, 0
2, 87803, Note_on_c, 0, 68, 51
2, 87804, Note_on_c, 0, 72, 64
2, 87824, Control_c, 0, 64, 65
2, 87855, Control_c, 0, 64, 65
2, 87871, Control_c, 0, 64, 64
2, 87893, Control_c, 0, 64, 63
2, 87893, Control_c, 0, 67, 51
2, 87908, Control_c, 0, 64, 63
2, 87939, Control_c, 0, 64, 62
2, 87955, Control_c, 0, 64, 62
2, 87970, Control_c, 0, 67, 50
2, 87985, Control_c, 0, 64, 61
2, 88001, Control_c, 0, 64, 60
2, 88001, Control_c, 0, 67, 50
2, 88015, Control_c, 0, 64, 59
2, 88022, Note_on_c, 0, 44, 39
2, 88043, Note_on_c, 0, 45, 44
2, 88060, Control_c, 0, 67, 49
2, 88078, Note_on_c, 0, 45, 0
2, 88091, Control_c, 0, 64, 59
2, 88091, Control_c, 0, 67, 49
2, 88136, Control_c, 0, 67, 48
2, 88152, Control_c, 0, 67, 48
2, 88188, Note_on_c, 0, 46, 64
2, 88258, Control_c, 0, 64, 58
2, 88273, Control_c, 0, 67, 47
2, 88276, Note_on_c, 0, 44, 0
2, 88395, Note_on_c, 0, 46, 0
2, 88408, Note_on_c, 0, 48, 64
2, 88471, Control_c, 0, 64, 59
2, 88500, Control_c, 0, 64, 58
2, 88531, Control_c, 0, 67, 47
2, 88561, Control_c, 0, 67, 46
2, 88576, Control_c, 0, 64, 58
2, 88595, Note_on_c, 0, 68, 0
2, 88597, Note_on_c, 0, 49, 63
2, 88609, Note_on_c, 0, 70, 58
2, 88623, Note_on_c, 0, 48, 0
2, 88706, Control_c, 0, 64, 57
2, 88741, Note_on_c, 0, 72, 0
2, 88782, Control_c, 0, 67, 47
2, 88808, Note_on_c, 0, 51, 70
2, 88828, Control_c, 0, 67, 47
2, 88843, Control_c, 0, 64, 57
2, 88889, Control_c, 0, 64, 56
2, 88919, Control_c, 0, 64, 56
2, 88919, Control_c, 0, 67, 48
2, 88934, Control_c, 0, 64, 55
2, 88938, Note_on_c, 0, 49, 0
2, 88950, Control_c, 0, 64, 55
2, 88965, Control_c, 0, 64, 54
2, 88980, Control_c, 0, 64, 54
2, 89010, Control_c, 0, 64, 53
2, 89023, Note_on_c, 0, 53, 73
2, 89025, Control_c, 0, 64, 52
2, 89055, Control_c, 0, 64, 52
2, 89060, Note_on_c, 0, 51, 0
2, 89086, Control_c, 0, 64, 51
2, 89117, Control_c, 0, 64, 51
2, 89147, Control_c, 0, 64, 50
2, 89162, Control_c, 0, 64, 50
2, 89177, Control_c, 0, 64, 49
2, 89193, Control_c, 0, 64, 49
2, 89208, Control_c, 0, 64, 48
2, 89208, Control_c, 0, 67, 48
2, 89223, Control_c, 0, 64, 47
2, 89228, Note_on_c, 0, 53, 0
2, 89232, Note_on_c, 0, 51, 58
2, 89238, Control_c, 0, 64, 46
2, 89253, Control_c, 0, 64, 44
2, 89253, Control_c, 0, 67, 49
2, 89270, Control_c, 0, 64, 44
2, 89285, Control_c, 0, 64, 42
2, 89300, Control_c, 0, 64, 41
2, 89315, Control_c, 0, 64, 39
2, 89330, Control_c, 0, 64, 36
2, 89345, Control_c, 0, 64, 32
2, 89361, Control_c, 0, 64, 29
2, 89376, Control_c, 0, 64, 26
2, 89391, Control_c, 0, 64, 22
2, 89406, Control_c, 0, 64, 19
2, 89406, Control_c, 0, 67, 49
2, 89426, Note_on_c, 0, 51, 0
2, 89428, Control_c, 0, 64, 16
2, 89428, Control_c, 0, 67, 50
2, 89437, Note_on_c, 0, 67, 49
2, 89439, Note_on_c, 0, 49, 57
2, 89444, Control_c, 0, 64, 10
2, 89459, Control_c, 0, 64, 0
2, 89489, Control_c, 0, 67, 50
2, 89521, Control_c, 0, 67, 51
2, 89581, Control_c, 0, 67, 51
2, 89612, Control_c, 0, 64, 10
2, 89612, Control_c, 0, 67, 52
2, 89627, Control_c, 0, 64, 13
2, 89627, Control_c, 0, 67, 52
2, 89642, Control_c, 0, 64, 16
2, 89643, Note_on_c, 0, 49, 0
2, 89656, Note_on_c, 0, 48, 54
2, 89657, Control_c, 0, 64, 18
2, 89657, Control_c, 0, 67, 53
2, 89673, Control_c, 0, 64, 19
2, 89673, Control_c, 0, 67, 56
2, 89688, Control_c, 0, 67, 64
2, 89703, Control_c, 0, 64, 21
2, 89703, Control_c, 0, 67, 72
2, 89719, Control_c, 0, 67, 76
2, 89734, Control_c, 0, 64, 22
2, 89734, Control_c, 0, 67, 80
2, 89750, Control_c, 0, 64, 24
2, 89750, Control_c, 0, 67, 83
2, 89764, Control_c, 0, 67, 85
2, 89779, Control_c, 0, 67, 86
2, 89795, Control_c, 0, 64, 25
2, 89795, Control_c, 0, 67, 87
2, 89851, Note_on_c, 0, 48, 0
2, 89859, Note_on_c, 0, 46, 52
2, 89885, Control_c, 0, 64, 26
2, 89961, Control_c, 0, 64, 27
2, 89992, Control_c, 0, 67, 87
2, 90046, Note_on_c, 0, 46, 0
2, 90063, Note_on_c, 0, 49, 45
2, 90159, Control_c, 0, 64, 26
2, 90197, Control_c, 0, 64, 24
2, 90211, Control_c, 0, 64, 22
2, 90226, Control_c, 0, 64, 19
2, 90242, Control_c, 0, 64, 16
2, 90257, Control_c, 0, 64, 0
2, 90288, Control_c, 0, 67, 87
2, 90296, Note_on_c, 0, 67, 0
2, 90297, Note_on_c, 0, 49, 0
2, 90303, Note_on_c, 0, 48, 48
2, 90314, Note_on_c, 0, 68, 54
2, 90380, Control_c, 0, 67, 86
2, 90386, Note_on_c, 0, 70, 0
2, 90395, Control_c, 0, 67, 86
2, 90425, Control_c, 0, 64, 21
2, 90425, Control_c, 0, 67, 85
2, 90441, Control_c, 0, 64, 42
2, 90441, Control_c, 0, 67, 85
2, 90456, Control_c, 0, 64, 49
2, 90471, Control_c, 0, 64, 54
2, 90471, Control_c, 0, 67, 84
2, 90486, Control_c, 0, 64, 57
2, 90486, Control_c, 0, 67, 84
2, 90501, Control_c, 0, 64, 61
2, 90517, Control_c, 0, 64, 63
2, 90517, Control_c, 0, 67, 83
2, 90532, Control_c, 0, 64, 64
2, 90532, Control_c, 0, 67, 83
2, 90547, Control_c, 0, 64, 65
2, 90547, Control_c, 0, 67, 82
2, 90563, Control_c, 0, 64, 65
2, 90563, Control_c, 0, 67, 82
2, 90578, Control_c, 0, 64, 66
2, 90594, Control_c, 0, 64, 66
2, 90594, Control_c, 0, 67, 81
2, 90608, Control_c, 0, 64, 67
2, 90623, Control_c, 0, 67, 81
2, 90639, Control_c, 0, 67, 80
2, 90653, Control_c, 0, 67, 80
2, 90668, Control_c, 0, 64, 67
2, 90684, Control_c, 0, 67, 79
2, 90715, Control_c, 0, 64, 68
2, 90715, Control_c, 0, 67, 78
2, 90729, Control_c, 0, 64, 68
2, 90729, Control_c, 0, 67, 77
2, 90734, Note_on_c, 0, 67, 47
2, 90744, Control_c, 0, 64, 69
2, 90744, Control_c, 0, 67, 77
2, 90760, Control_c, 0, 64, 70
2, 90760, Control_c, 0, 67, 76
2, 90775, Control_c, 0, 64, 70
2, 90791, Control_c, 0, 64, 71
2, 90791, Control_c, 0, 67, 75
2, 90820, Control_c, 0, 64, 71
2, 90820, Control_c, 0, 67, 74
2, 90836, Control_c, 0, 67, 73
2, 90850, Control_c, 0, 67, 69
2, 90865, Control_c, 0, 67, 66
2, 90875, Note_on_c, 0, 67, 0
2, 90881, Control_c, 0, 64, 72
2, 90881, Control_c, 0, 67, 64
2, 90896, Control_c, 0, 67, 63
2, 90912, Control_c, 0, 67, 61
2, 90924, Note_on_c, 0, 65, 51
2, 90926, Control_c, 0, 67, 55
2, 90941, Control_c, 0, 67, 48
2, 90965, Control_c, 0, 67, 41
2, 90980, Control_c, 0, 67, 33
2, 90996, Control_c, 0, 67, 27
2, 91010, Control_c, 0, 67, 20
2, 91025, Control_c, 0, 67, 11
2, 91041, Control_c, 0, 67, 0
2, 91055, Control_c, 0, 64, 71
2, 91071, Control_c, 0, 64, 71
2, 91086, Control_c, 0, 64, 70
2, 91101, Control_c, 0, 64, 70
2, 91117, Control_c, 0, 64, 69
2, 91135, Note_on_c, 0, 56, 65
2, 91143, Note_on_c, 0, 65, 0
2, 91162, Note_on_c, 0, 63, 48
2, 91178, Control_c, 0, 64, 70
2, 91190, Note_on_c, 0, 48, 0
2, 91209, Control_c, 0, 64, 70
2, 91254, Control_c, 0, 64, 71
2, 91306, Note_on_c, 0, 63, 0
2, 91327, Note_on_c, 0, 56, 0
2, 91346, Note_on_c, 0, 61, 53
2, 91347, Note_on_c, 0, 49, 59
2, 91376, Note_on_c, 0, 49, 0
2, 91384, Note_on_c, 0, 61, 0
2, 91552, Note_on_c, 0, 63, 89
2, 91562, Note_on_c, 0, 51, 74
2, 91640, Note_on_c, 0, 63, 0
2, 91643, Note_on_c, 0, 51, 0
2, 91750, Note_on_c, 0, 48, 63
2, 91781, Note_on_c, 0, 61, 49
2, 91825, Note_on_c, 0, 61, 0
2, 91982, Note_on_c, 0, 48, 0
2, 91991, Note_on_c, 0, 68, 0
2, 91993, Note_on_c, 0, 60, 89
2, 92006, Note_on_c, 0, 53, 65
2, 92007, Control_c, 0, 64, 69
2, 92017, Note_on_c, 0, 63, 54
2, 92022, Control_c, 0, 64, 64
2, 92038, Control_c, 0, 64, 56
2, 92053, Control_c, 0, 64, 42
2, 92068, Control_c, 0, 64, 38
2, 92083, Control_c, 0, 64, 43
2, 92098, Control_c, 0, 64, 51
2, 92114, Control_c, 0, 64, 56
2, 92129, Control_c, 0, 64, 59
2, 92143, Control_c, 0, 64, 60
2, 92159, Control_c, 0, 64, 61
2, 92174, Note_on_c, 0, 68, 52
2, 92190, Control_c, 0, 64, 61
2, 92278, Note_on_c, 0, 63, 0
2, 92312, Control_c, 0, 64, 61
2, 92398, Note_on_c, 0, 56, 80
2, 92401, Control_c, 0, 64, 61
2, 92410, Note_on_c, 0, 70, 57
2, 92449, Note_on_c, 0, 68, 0
2, 92461, Control_c, 0, 64, 62
2, 92515, Control_c, 0, 64, 62
2, 92563, Note_on_c, 0, 60, 0
2, 92606, Control_c, 0, 64, 62
2, 92621, Note_on_c, 0, 72, 72
2, 92678, Note_on_c, 0, 70, 0
2, 92681, Control_c, 0, 64, 61
2, 92696, Control_c, 0, 64, 61
2, 92712, Control_c, 0, 64, 60
2, 92727, Control_c, 0, 64, 59
2, 92742, Control_c, 0, 64, 58
2, 92758, Control_c, 0, 64, 56
2, 92773, Control_c, 0, 64, 52
2, 92788, Control_c, 0, 64, 46
2, 92804, Control_c, 0, 64, 41
2, 92828, Note_on_c, 0, 73, 83
2, 92833, Note_on_c, 0, 65, 63
2, 92835, Control_c, 0, 64, 43
2, 92849, Control_c, 0, 64, 45
2, 92864, Control_c, 0, 64, 48
2, 92880, Control_c, 0, 64, 53
2, 92889, Note_on_c, 0, 72, 0
2, 92895, Control_c, 0, 64, 56
2, 92911, Control_c, 0, 64, 58
2, 92926, Control_c, 0, 64, 59
2, 92941, Control_c, 0, 64, 60
2, 92957, Control_c, 0, 64, 61
2, 92971, Control_c, 0, 64, 61
2, 92986, Control_c, 0, 64, 62
2, 93002, Control_c, 0, 64, 62
2, 93008, Note_on_c, 0, 56, 0
2, 93016, Note_on_c, 0, 53, 0
2, 93021, Note_on_c, 0, 51, 63
2, 93047, Control_c, 0, 64, 63
2, 93093, Control_c, 0, 64, 63
2, 93124, Control_c, 0, 64, 63
2, 93139, Control_c, 0, 64, 62
2, 93155, Control_c, 0, 64, 61
2, 93170, Control_c, 0, 64, 56
2, 93184, Control_c, 0, 64, 52
2, 93200, Control_c, 0, 64, 53
2, 93215, Control_c, 0, 64, 54
2, 93231, Control_c, 0, 64, 57
2, 93235, Note_on_c, 0, 53, 43
2, 93236, Note_on_c, 0, 61, 86
2, 93246, Control_c, 0, 64, 59
2, 93250, Note_on_c, 0, 56, 68
2, 93268, Control_c, 0, 64, 61
2, 93284, Control_c, 0, 64, 62
2, 93287, Note_on_c, 0, 51, 0
2, 93299, Control_c, 0, 64, 63
2, 93314, Control_c, 0, 64, 64
2, 93344, Control_c, 0, 64, 64
2, 93346, Note_on_c, 0, 65, 0
2, 93360, Control_c, 0, 64, 65
2, 93375, Control_c, 0, 64, 65
2, 93390, Control_c, 0, 64, 66
2, 93438, Note_on_c, 0, 49, 71
2, 93449, Note_on_c, 0, 53, 0
2, 93451, Control_c, 0, 64, 66
2, 93455, Note_on_c, 0, 61, 0
2, 93491, Note_on_c, 0, 56, 0
2, 93496, Control_c, 0, 64, 67
2, 93514, Note_on_c, 0, 49, 0
2, 93587, Control_c, 0, 64, 67
2, 93649, Control_c, 0, 64, 67
2, 93663, Note_on_c, 0, 63, 84
2, 93664, Control_c, 0, 64, 66
2, 93672, Note_on_c, 0, 56, 71
2, 93680, Control_c, 0, 64, 65
2, 93694, Control_c, 0, 64, 62
2, 93710, Control_c, 0, 64, 54
2, 93725, Control_c, 0, 64, 42
2, 93740, Control_c, 0, 64, 21
2, 93755, Control_c, 0, 64, 0
2, 93831, Control_c, 0, 64, 18
2, 93846, Control_c, 0, 64, 28
2, 93849, Note_on_c, 0, 70, 57
2, 93858, Note_on_c, 0, 56, 0
2, 93859, Note_on_c, 0, 73, 0
2, 93860, Note_on_c, 0, 55, 49
2, 93861, Control_c, 0, 64, 31
2, 93892, Control_c, 0, 64, 32
2, 93938, Control_c, 0, 64, 31
2, 93953, Control_c, 0, 64, 29
2, 93968, Control_c, 0, 64, 28
2, 93983, Control_c, 0, 64, 26
2, 93999, Control_c, 0, 64, 25
2, 94051, Control_c, 0, 64, 28
2, 94066, Control_c, 0, 64, 33
2, 94066, Note_on_c, 0, 55, 0
2, 94066, Note_on_c, 0, 56, 54
2, 94082, Control_c, 0, 64, 40
2, 94091, Note_on_c, 0, 72, 62
2, 94097, Control_c, 0, 64, 48
2, 94097, Note_on_c, 0, 70, 0
2, 94113, Control_c, 0, 64, 54
2, 94127, Control_c, 0, 64, 59
2, 94142, Control_c, 0, 64, 61
2, 94158, Control_c, 0, 64, 62
2, 94173, Control_c, 0, 64, 63
2, 94188, Control_c, 0, 64, 64
2, 94204, Control_c, 0, 64, 64
2, 94219, Control_c, 0, 64, 65
2, 94234, Control_c, 0, 64, 66
2, 94264, Control_c, 0, 64, 66
2, 94282, Note_on_c, 0, 58, 45
2, 94283, Note_on_c, 0, 75, 68
2, 94287, Note_on_c, 0, 72, 0
2, 94310, Control_c, 0, 64, 67
2, 94331, Note_on_c, 0, 58, 0
2, 94332, Note_on_c, 0, 75, 0
2, 94417, Control_c, 0, 64, 66
2, 94448, Control_c, 0, 64, 66
2, 94452, Note_on_c, 0, 56, 0
2, 94462, Control_c, 0, 64, 65
2, 94478, Control_c, 0, 64, 65
2, 94482, Note_on_c, 0, 80, 68
2, 94492, Note_on_c, 0, 60, 45
2, 94493, Control_c, 0, 64, 64
2, 94538, Control_c, 0, 64, 64
2, 94554, Control_c, 0, 64, 63
2, 94584, Control_c, 0, 64, 63
2, 94599, Control_c, 0, 64, 62
2, 94614, Control_c, 0, 64, 62
2, 94630, Control_c, 0, 64, 61
2, 94644, Control_c, 0, 64, 61
2, 94659, Control_c, 0, 64, 60
2, 94675, Control_c, 0, 64, 59
2, 94677, Note_on_c, 0, 79, 76
2, 94690, Control_c, 0, 64, 58
2, 94705, Control_c, 0, 64, 57
2, 94736, Control_c, 0, 64, 56
2, 94750, Note_on_c, 0, 80, 0
2, 94781, Control_c, 0, 64, 56
2, 94803, Control_c, 0, 64, 55
2, 94818, Control_c, 0, 64, 54
2, 94874, Note_on_c, 0, 55, 45
2, 94874, Note_on_c, 0, 80, 79
2, 94895, Control_c, 0, 64, 54
2, 94911, Control_c, 0, 64, 53
2, 94925, Control_c, 0, 64, 52
2, 94940, Control_c, 0, 64, 51
2, 94945, Note_on_c, 0, 79, 0
2, 94956, Control_c, 0, 64, 51
2, 94971, Control_c, 0, 64, 50
2, 94986, Control_c, 0, 64, 50
2, 95001, Control_c, 0, 64, 49
2, 95016, Control_c, 0, 64, 48
2, 95032, Control_c, 0, 64, 47
2, 95047, Control_c, 0, 64, 46
2, 95062, Control_c, 0, 64, 45
2, 95066, Note_on_c, 0, 82, 66
2, 95077, Control_c, 0, 64, 45
2, 95092, Control_c, 0, 64, 44
2, 95105, Note_on_c, 0, 80, 0
2, 95107, Control_c, 0, 64, 43
2, 95123, Control_c, 0, 64, 42
2, 95137, Control_c, 0, 64, 40
2, 95153, Control_c, 0, 64, 39
2, 95168, Control_c, 0, 64, 38
2, 95183, Control_c, 0, 64, 36
2, 95199, Control_c, 0, 64, 36
2, 95211, Note_on_c, 0, 55, 0
2, 95213, Control_c, 0, 64, 35
2, 95229, Control_c, 0, 64, 34
2, 95245, Control_c, 0, 64, 32
2, 95260, Control_c, 0, 64, 32
2, 95274, Note_on_c, 0, 56, 37
2, 95274, Note_on_c, 0, 84, 54
2, 95287, Note_on_c, 0, 82, 0
2, 95291, Control_c, 0, 64, 32
2, 95336, Control_c, 0, 64, 33
2, 95348, Note_on_c, 0, 60, 0
2, 95367, Control_c, 0, 64, 34
2, 95381, Control_c, 0, 64, 35
2, 95397, Control_c, 0, 64, 37
2, 95412, Control_c, 0, 64, 38
2, 95427, Control_c, 0, 64, 40
2, 95442, Control_c, 0, 64, 42
2, 95457, Control_c, 0, 64, 45
2, 95473, Control_c, 0, 64, 47
2, 95476, Note_on_c, 0, 82, 53
2, 95488, Control_c, 0, 64, 49
2, 95503, Control_c, 0, 64, 50
2, 95519, Control_c, 0, 64, 51
2, 95534, Control_c, 0, 64, 51
2, 95586, Control_c, 0, 64, 52
2, 95633, Control_c, 0, 64, 52
2, 95666, Note_on_c, 0, 84, 0
2, 95679, Note_on_c, 0, 80, 52
2, 95680, Note_on_c, 0, 53, 33
2, 95800, Note_on_c, 0, 56, 0
2, 95803, Note_on_c, 0, 63, 0
2, 95831, Control_c, 0, 64, 53
2, 95874, Note_on_c, 0, 82, 0
2, 95880, Note_on_c, 0, 79, 51
2, 95903, Note_on_c, 0, 80, 0
2, 95936, Control_c, 0, 64, 52
2, 96012, Control_c, 0, 64, 52
2, 96043, Control_c, 0, 64, 51
2, 96065, Note_on_c, 0, 79, 0
2, 96086, Note_on_c, 0, 77, 46
2, 96089, Control_c, 0, 64, 51
2, 96093, Note_on_c, 0, 61, 41
2, 96094, Note_on_c, 0, 58, 31
2, 96096, Note_on_c, 0, 53, 0
2, 96135, Control_c, 0, 64, 50
2, 96135, Control_c, 0, 67, 8
2, 96149, Control_c, 0, 67, 11
2, 96165, Control_c, 0, 67, 14
2, 96181, Control_c, 0, 64, 50
2, 96181, Control_c, 0, 67, 18
2, 96197, Control_c, 0, 67, 22
2, 96211, Control_c, 0, 64, 49
2, 96211, Control_c, 0, 67, 27
2, 96226, Control_c, 0, 67, 32
2, 96242, Control_c, 0, 64, 49
2, 96242, Control_c, 0, 67, 37
2, 96257, Control_c, 0, 67, 42
2, 96273, Control_c, 0, 67, 46
2, 96287, Control_c, 0, 67, 51
2, 96297, Note_on_c, 0, 79, 48
2, 96302, Control_c, 0, 67, 55
2, 96318, Control_c, 0, 67, 59
2, 96341, Control_c, 0, 67, 64
2, 96357, Control_c, 0, 67, 67
2, 96371, Control_c, 0, 67, 71
2, 96386, Control_c, 0, 67, 75
2, 96399, Note_on_c, 0, 77, 0
2, 96402, Control_c, 0, 67, 79
2, 96416, Control_c, 0, 67, 84
2, 96432, Control_c, 0, 67, 87
2, 96447, Control_c, 0, 67, 92
2, 96462, Control_c, 0, 67, 96
2, 96478, Control_c, 0, 67, 101
2, 96492, Control_c, 0, 67, 105
2, 96500, Note_on_c, 0, 80, 55
2, 96502, Note_on_c, 0, 53, 20
2, 96507, Control_c, 0, 64, 48
2, 96507, Control_c, 0, 67, 109
2, 96523, Control_c, 0, 67, 113
2, 96525, Note_on_c, 0, 79, 0
2, 96538, Control_c, 0, 67, 116
2, 96554, Control_c, 0, 67, 119
2, 96568, Control_c, 0, 67, 122
2, 96583, Control_c, 0, 67, 125
2, 96599, Control_c, 0, 67, 127
2, 96703, Note_on_c, 0, 84, 56
2, 96713, Note_on_c, 0, 80, 0
2, 96818, Note_on_c, 0, 53, 0
2, 96877, Note_on_c, 0, 55, 37
2, 96904, Note_on_c, 0, 82, 49
2, 96967, Note_on_c, 0, 58, 0
2, 97105, Note_on_c, 0, 80, 54
2, 97139, Control_c, 0, 64, 49
2, 97194, Note_on_c, 0, 82, 0
2, 97269, Note_on_c, 0, 55, 0
2, 97294, Note_on_c, 0, 51, 38
2, 97307, Note_on_c, 0, 79, 50
2, 97330, Note_on_c, 0, 80, 0
2, 97336, Control_c, 0, 64, 49
2, 97473, Note_on_c, 0, 84, 0
2, 97476, Note_on_c, 0, 79, 0
2, 97503, Control_c, 0, 64, 50
2, 97506, Note_on_c, 0, 77, 54
2, 97640, Note_on_c, 0, 61, 0
2, 97706, Note_on_c, 0, 56, 34
2, 97714, Note_on_c, 0, 75, 50
2, 97717, Note_on_c, 0, 51, 0
2, 97719, Note_on_c, 0, 60, 37
2, 97757, Note_on_c, 0, 77, 0
2, 97892, Control_c, 0, 64, 50
2, 97938, Note_on_c, 0, 77, 58
2, 97941, Note_on_c, 0, 75, 0
2, 98129, Note_on_c, 0, 51, 38
2, 98154, Note_on_c, 0, 79, 55
2, 98256, Note_on_c, 0, 77, 0
2, 98272, Control_c, 0, 64, 51
2, 98337, Note_on_c, 0, 82, 55
2, 98386, Note_on_c, 0, 79, 0
2, 98533, Note_on_c, 0, 51, 0
2, 98539, Note_on_c, 0, 53, 39
2, 98548, Note_on_c, 0, 80, 58
2, 98576, Control_c, 0, 64, 51
2, 98621, Control_c, 0, 64, 52
2, 98659, Control_c, 0, 64, 52
2, 98661, Note_on_c, 0, 56, 0
2, 98675, Control_c, 0, 64, 53
2, 98690, Control_c, 0, 64, 53
2, 98705, Control_c, 0, 64, 54
2, 98721, Control_c, 0, 64, 54
2, 98735, Control_c, 0, 64, 55
2, 98751, Control_c, 0, 64, 56
2, 98757, Note_on_c, 0, 79, 61
2, 98766, Control_c, 0, 64, 57
2, 98781, Control_c, 0, 64, 57
2, 98782, Note_on_c, 0, 82, 0
2, 98788, Note_on_c, 0, 80, 0
2, 98797, Control_c, 0, 64, 58
2, 98826, Control_c, 0, 64, 58
2, 98857, Control_c, 0, 64, 59
2, 98919, Control_c, 0, 64, 59
2, 98934, Note_on_c, 0, 60, 0
2, 98951, Note_on_c, 0, 79, 0
2, 98958, Note_on_c, 0, 50, 33
2, 98964, Control_c, 0, 64, 60
2, 98975, Note_on_c, 0, 77, 60
2, 99047, Note_on_c, 0, 53, 0
2, 99055, Control_c, 0, 64, 60
2, 99131, Control_c, 0, 64, 60
2, 99165, Note_on_c, 0, 75, 57
2, 99171, Note_on_c, 0, 77, 0
2, 99329, Control_c, 0, 64, 59
2, 99331, Note_on_c, 0, 50, 0
2, 99360, Control_c, 0, 64, 58
2, 99368, Note_on_c, 0, 58, 45
2, 99372, Note_on_c, 0, 74, 55
2, 99374, Control_c, 0, 64, 56
2, 99374, Note_on_c, 0, 55, 41
2, 99383, Note_on_c, 0, 75, 0
2, 99389, Control_c, 0, 64, 50
2, 99413, Control_c, 0, 64, 35
2, 99428, Control_c, 0, 64, 0
2, 99519, Control_c, 0, 64, 19
2, 99534, Control_c, 0, 64, 32
2, 99549, Control_c, 0, 64, 38
2, 99565, Control_c, 0, 64, 42
2, 99565, Note_on_c, 0, 75, 49
2, 99579, Control_c, 0, 64, 44
2, 99595, Control_c, 0, 64, 46
2, 99608, Note_on_c, 0, 74, 0
2, 99610, Control_c, 0, 64, 49
2, 99625, Control_c, 0, 64, 51
2, 99641, Control_c, 0, 64, 53
2, 99655, Control_c, 0, 64, 54
2, 99671, Control_c, 0, 64, 56
2, 99686, Control_c, 0, 64, 57
2, 99701, Control_c, 0, 64, 58
2, 99717, Control_c, 0, 64, 59
2, 99731, Control_c, 0, 64, 59
2, 99746, Control_c, 0, 64, 60
2, 99777, Control_c, 0, 64, 60
2, 99785, Note_on_c, 0, 50, 31
2, 99793, Control_c, 0, 64, 61
2, 99795, Note_on_c, 0, 77, 54
2, 99808, Control_c, 0, 64, 61
2, 99823, Control_c, 0, 64, 62
2, 99823, Note_on_c, 0, 75, 0
2, 99853, Control_c, 0, 64, 62
2, 99884, Control_c, 0, 64, 63
2, 99914, Control_c, 0, 64, 63
2, 99960, Control_c, 0, 64, 64
2, 99985, Note_on_c, 0, 80, 59
2, 100020, Control_c, 0, 64, 65
2, 100036, Control_c, 0, 64, 65
2, 100043, Note_on_c, 0, 77, 0
2, 100126, Control_c, 0, 64, 65
2, 100142, Control_c, 0, 64, 64
2, 100158, Control_c, 0, 64, 61
2, 100181, Control_c, 0, 64, 54
2, 100189, Note_on_c, 0, 50, 0
2, 100197, Control_c, 0, 64, 44
2, 100208, Note_on_c, 0, 79, 61
2, 100211, Control_c, 0, 64, 40
2, 100217, Note_on_c, 0, 52, 37
2, 100226, Control_c, 0, 64, 42
2, 100242, Control_c, 0, 64, 46
2, 100257, Control_c, 0, 64, 52
2, 100263, Note_on_c, 0, 80, 0
2, 100273, Control_c, 0, 64, 57
2, 100287, Control_c, 0, 64, 60
2, 100302, Control_c, 0, 64, 61
2, 100318, Control_c, 0, 64, 63
2, 100333, Control_c, 0, 64, 63
2, 100340, Note_on_c, 0, 55, 0
2, 100348, Control_c, 0, 64, 64
2, 100363, Control_c, 0, 64, 64
2, 100378, Control_c, 0, 64, 65
2, 100394, Control_c, 0, 64, 65
2, 100394, Control_c, 0, 67, 127
2, 100398, Note_on_c, 0, 77, 67
2, 100409, Control_c, 0, 64, 66
2, 100409, Control_c, 0, 67, 124
2, 100424, Control_c, 0, 64, 66
2, 100424, Control_c, 0, 67, 122
2, 100439, Control_c, 0, 64, 67
2, 100439, Control_c, 0, 67, 119
2, 100454, Control_c, 0, 64, 68
2, 100454, Control_c, 0, 67, 117
2, 100469, Control_c, 0, 64, 69
2, 100469, Control_c, 0, 67, 114
2, 100484, Control_c, 0, 64, 70
2, 100484, Control_c, 0, 67, 112
2, 100488, Note_on_c, 0, 79, 0
2, 100499, Control_c, 0, 64, 71
2, 100499, Control_c, 0, 67, 109
2, 100515, Control_c, 0, 67, 107
2, 100530, Control_c, 0, 64, 72
2, 100530, Control_c, 0, 67, 105
2, 100545, Control_c, 0, 64, 72
2, 100545, Control_c, 0, 67, 103
2, 100560, Control_c, 0, 67, 100
2, 100575, Control_c, 0, 67, 96
2, 100591, Control_c, 0, 67, 93
2, 100600, Note_on_c, 0, 48, 39
2, 100606, Control_c, 0, 67, 90
2, 100609, Note_on_c, 0, 58, 0
2, 100621, Control_c, 0, 64, 73
2, 100621, Control_c, 0, 67, 87
2, 100624, Note_on_c, 0, 76, 68
2, 100637, Control_c, 0, 67, 82
2, 100648, Note_on_c, 0, 52, 0
2, 100652, Control_c, 0, 67, 78
2, 100667, Control_c, 0, 67, 74
2, 100674, Note_on_c, 0, 77, 0
2, 100682, Control_c, 0, 67, 70
2, 100697, Control_c, 0, 67, 67
2, 100713, Control_c, 0, 67, 64
2, 100728, Control_c, 0, 67, 61
2, 100743, Control_c, 0, 67, 59
2, 100758, Control_c, 0, 67, 58
2, 100773, Control_c, 0, 67, 57
2, 100788, Control_c, 0, 67, 56
2, 100819, Note_on_c, 0, 79, 71
2, 100824, Note_on_c, 0, 76, 0
2, 100871, Note_on_c, 0, 79, 0
2, 100979, Control_c, 0, 64, 72
2, 100992, Note_on_c, 0, 48, 0
2, 100995, Control_c, 0, 64, 69
2, 101009, Control_c, 0, 64, 64
2, 101009, Control_c, 0, 67, 56
2, 101024, Control_c, 0, 64, 56
2, 101028, Note_on_c, 0, 56, 42
2, 101037, Note_on_c, 0, 50, 46
2, 101037, Note_on_c, 0, 77, 76
2, 101040, Control_c, 0, 64, 55
2, 101040, Note_on_c, 0, 65, 74
2, 101055, Control_c, 0, 64, 58
2, 101071, Control_c, 0, 64, 60
2, 101084, Control_c, 0, 64, 63
2, 101099, Control_c, 0, 64, 64
2, 101099, Control_c, 0, 67, 56
2, 101114, Control_c, 0, 64, 66
2, 101129, Control_c, 0, 64, 67
2, 101144, Control_c, 0, 64, 67
2, 101144, Control_c, 0, 67, 55
2, 101160, Control_c, 0, 64, 68
2, 101160, Control_c, 0, 67, 55
2, 101190, Control_c, 0, 64, 69
2, 101205, Control_c, 0, 64, 69
2, 101206, Note_on_c, 0, 77, 0
2, 101218, Note_on_c, 0, 76, 65
2, 101220, Control_c, 0, 64, 70
2, 101235, Control_c, 0, 67, 54
2, 101242, Note_on_c, 0, 65, 0
2, 101251, Control_c, 0, 64, 70
2, 101266, Control_c, 0, 64, 71
2, 101266, Control_c, 0, 67, 53
2, 101281, Control_c, 0, 67, 50
2, 101296, Control_c, 0, 67, 48
2, 101311, Control_c, 0, 64, 71
2, 101311, Control_c, 0, 67, 46
2, 101326, Control_c, 0, 67, 45
2, 101341, Control_c, 0, 67, 44
2, 101343, Note_on_c, 0, 76, 0
2, 101356, Control_c, 0, 67, 44
2, 101372, Control_c, 0, 67, 43
2, 101387, Control_c, 0, 67, 43
2, 101402, Control_c, 0, 64, 70
2, 101402, Control_c, 0, 67, 42
2, 101417, Control_c, 0, 64, 65
2, 101417, Control_c, 0, 67, 41
2, 101417, Note_on_c, 0, 56, 0
2, 101432, Control_c, 0, 64, 60
2, 101432, Control_c, 0, 67, 40
2, 101439, Note_on_c, 0, 72, 85
2, 101442, Note_on_c, 0, 52, 48
2, 101448, Control_c, 0, 64, 58
2, 101448, Control_c, 0, 67, 39
2, 101451, Note_on_c, 0, 55, 48
2, 101453, Note_on_c, 0, 77, 78
2, 101458, Note_on_c, 0, 50, 0
2, 101463, Control_c, 0, 64, 61
2, 101463, Control_c, 0, 67, 37
2, 101479, Control_c, 0, 64, 63
2, 101479, Control_c, 0, 67, 36
2, 101493, Control_c, 0, 64, 64
2, 101493, Control_c, 0, 67, 33
2, 101508, Control_c, 0, 64, 66
2, 101508, Control_c, 0, 67, 30
2, 101524, Control_c, 0, 64, 67
2, 101524, Control_c, 0, 67, 25
2, 101539, Control_c, 0, 64, 68
2, 101539, Control_c, 0, 67, 19
2, 101554, Control_c, 0, 64, 69
2, 101554, Control_c, 0, 67, 11
2, 101570, Control_c, 0, 64, 70
2, 101570, Control_c, 0, 67, 0
2, 101585, Control_c, 0, 64, 70
2, 101630, Control_c, 0, 64, 71
2, 101633, Note_on_c, 0, 79, 73
2, 101636, Note_on_c, 0, 52, 0
2, 101669, Note_on_c, 0, 77, 0
2, 101675, Control_c, 0, 64, 71
2, 101768, Note_on_c, 0, 72, 0
2, 101848, Note_on_c, 0, 79, 0
2, 101851, Control_c, 0, 64, 71
2, 101860, Note_on_c, 0, 68, 83
2, 101861, Note_on_c, 0, 72, 83
2, 101863, Note_on_c, 0, 53, 57
2, 101866, Control_c, 0, 64, 68
2, 101882, Control_c, 0, 64, 64
2, 101897, Control_c, 0, 64, 54
2, 101912, Control_c, 0, 64, 52
2, 101928, Control_c, 0, 64, 57
2, 101943, Control_c, 0, 64, 61
2, 101959, Control_c, 0, 64, 64
2, 101973, Control_c, 0, 64, 65
2, 101988, Control_c, 0, 64, 66
2, 102004, Control_c, 0, 64, 67
2, 102019, Control_c, 0, 64, 68
2, 102027, Note_on_c, 0, 55, 0
2, 102034, Control_c, 0, 64, 68
2, 102049, Control_c, 0, 64, 69
2, 102056, Note_on_c, 0, 53, 0
2, 102063, Note_on_c, 0, 68, 0
2, 102070, Note_on_c, 0, 58, 57
2, 102080, Control_c, 0, 64, 69
2, 102110, Control_c, 0, 64, 70
2, 102201, Control_c, 0, 64, 70
2, 102270, Note_on_c, 0, 77, 94
2, 102280, Note_on_c, 0, 65, 78
2, 102282, Note_on_c, 0, 56, 50
2, 102309, Note_on_c, 0, 72, 0
2, 102352, Control_c, 0, 64, 71
2, 102371, Note_on_c, 0, 58, 0
2, 102459, Note_on_c, 0, 65, 0
2, 102482, Note_on_c, 0, 55, 53
2, 102512, Note_on_c, 0, 56, 0
2, 102518, Note_on_c, 0, 55, 0
2, 102558, Control_c, 0, 64, 71
2, 102650, Control_c, 0, 64, 71
2, 102665, Control_c, 0, 64, 69
2, 102680, Control_c, 0, 64, 63
2, 102695, Control_c, 0, 64, 46
2, 102695, Note_on_c, 0, 46, 58
2, 102700, Note_on_c, 0, 73, 86
2, 102710, Control_c, 0, 64, 25
2, 102718, Note_on_c, 0, 53, 42
2, 102726, Control_c, 0, 64, 28
2, 102739, Note_on_c, 0, 76, 32
2, 102741, Control_c, 0, 64, 39
2, 102749, Note_on_c, 0, 77, 0
2, 102756, Control_c, 0, 64, 51
2, 102771, Control_c, 0, 64, 58
2, 102776, Note_on_c, 0, 76, 0
2, 102786, Control_c, 0, 64, 62
2, 102802, Control_c, 0, 64, 63
2, 102817, Control_c, 0, 64, 64
2, 102832, Control_c, 0, 64, 65
2, 102848, Control_c, 0, 64, 65
2, 102863, Control_c, 0, 64, 66
2, 102893, Control_c, 0, 64, 66
2, 102898, Note_on_c, 0, 53, 0
2, 102908, Control_c, 0, 64, 67
2, 102912, Note_on_c, 0, 52, 44
2, 102924, Control_c, 0, 64, 67
2, 102938, Control_c, 0, 64, 68
2, 103029, Control_c, 0, 64, 68
2, 103092, Note_on_c, 0, 70, 88
2, 103100, Note_on_c, 0, 79, 76
2, 103120, Note_on_c, 0, 53, 50
2, 103126, Note_on_c, 0, 46, 0
2, 103126, Note_on_c, 0, 52, 0
2, 103150, Control_c, 0, 64, 69
2, 103173, Note_on_c, 0, 73, 0
2, 103250, Control_c, 0, 64, 69
2, 103292, Note_on_c, 0, 53, 0
2, 103296, Note_on_c, 0, 76, 54
2, 103307, Note_on_c, 0, 55, 51
2, 103331, Note_on_c, 0, 70, 0
2, 103342, Note_on_c, 0, 55, 0
2, 103371, Control_c, 0, 64, 70
2, 103407, Note_on_c, 0, 79, 0
2, 103461, Note_on_c, 0, 76, 0
2, 103494, Control_c, 0, 64, 69
2, 103509, Control_c, 0, 64, 66
2, 103511, Note_on_c, 0, 56, 55
2, 103520, Note_on_c, 0, 72, 74
2, 103522, Note_on_c, 0, 77, 77
2, 103524, Control_c, 0, 64, 58
2, 103538, Note_on_c, 0, 53, 45
2, 103539, Control_c, 0, 64, 36
2, 103554, Control_c, 0, 64, 27
2, 103570, Control_c, 0, 64, 38
2, 103584, Control_c, 0, 64, 50
2, 103600, Control_c, 0, 64, 59
2, 103615, Control_c, 0, 64, 63
2, 103630, Control_c, 0, 64, 64
2, 103646, Control_c, 0, 64, 64
2, 103661, Control_c, 0, 64, 65
2, 103676, Control_c, 0, 64, 65
2, 103686, Note_on_c, 0, 56, 0
2, 103692, Control_c, 0, 64, 66
2, 103697, Note_on_c, 0, 76, 72
2, 103705, Note_on_c, 0, 58, 55
2, 103722, Control_c, 0, 64, 66
2, 103737, Control_c, 0, 64, 67
2, 103759, Note_on_c, 0, 77, 0
2, 103813, Control_c, 0, 64, 66
2, 103828, Control_c, 0, 64, 66
2, 103844, Control_c, 0, 64, 65
2, 103876, Note_on_c, 0, 58, 0
2, 103886, Note_on_c, 0, 56, 56
2, 103899, Note_on_c, 0, 77, 86
2, 103903, Control_c, 0, 64, 66
2, 103949, Control_c, 0, 64, 66
2, 103965, Note_on_c, 0, 76, 0
2, 103998, Note_on_c, 0, 53, 0
2, 104033, Control_c, 0, 64, 67
2, 104067, Note_on_c, 0, 56, 0
2, 104081, Note_on_c, 0, 79, 89
2, 104093, Note_on_c, 0, 55, 59
2, 104108, Note_on_c, 0, 77, 0
2, 104180, Note_on_c, 0, 79, 0
2, 104247, Control_c, 0, 64, 66
2, 104247, Note_on_c, 0, 55, 0
2, 104262, Control_c, 0, 64, 66
2, 104271, Note_on_c, 0, 72, 0
2, 104278, Control_c, 0, 64, 64
2, 104292, Control_c, 0, 64, 61
2, 104294, Note_on_c, 0, 53, 51
2, 104297, Note_on_c, 0, 77, 54
2, 104297, Note_on_c, 0, 80, 78
2, 104307, Control_c, 0, 64, 58
2, 104323, Control_c, 0, 64, 54
2, 104338, Control_c, 0, 64, 52
2, 104353, Control_c, 0, 64, 51
2, 104368, Control_c, 0, 64, 51
2, 104383, Control_c, 0, 64, 51
2, 104399, Control_c, 0, 64, 52
2, 104413, Control_c, 0, 64, 54
2, 104428, Control_c, 0, 64, 56
2, 104444, Control_c, 0, 64, 57
2, 104459, Control_c, 0, 64, 59
2, 104474, Control_c, 0, 64, 59
2, 104490, Control_c, 0, 64, 60
2, 104512, Note_on_c, 0, 41, 64
2, 104535, Control_c, 0, 64, 60
2, 104612, Control_c, 0, 64, 60
2, 104618, Note_on_c, 0, 53, 0
2, 104657, Control_c, 0, 64, 59
2, 104686, Note_on_c, 0, 72, 65
2, 104688, Control_c, 0, 64, 59
2, 104696, Note_on_c, 0, 43, 66
2, 104718, Control_c, 0, 64, 58
2, 104733, Control_c, 0, 64, 58
2, 104763, Control_c, 0, 64, 57
2, 104766, Note_on_c, 0, 41, 0
2, 104880, Note_on_c, 0, 44, 73
2, 104964, Note_on_c, 0, 43, 0
2, 105091, Control_c, 0, 64, 58
2, 105096, Note_on_c, 0, 46, 83
2, 105097, Note_on_c, 0, 73, 66
2, 105104, Note_on_c, 0, 72, 0
2, 105136, Control_c, 0, 64, 58
2, 105139, Note_on_c, 0, 44, 0
2, 105278, Note_on_c, 0, 44, 69
2, 105326, Note_on_c, 0, 46, 0
2, 105392, Control_c, 0, 64, 58
2, 105405, Note_on_c, 0, 77, 0
2, 105461, Note_on_c, 0, 44, 0
2, 105479, Note_on_c, 0, 43, 55
2, 105486, Note_on_c, 0, 70, 66
2, 105499, Control_c, 0, 64, 57
2, 105530, Control_c, 0, 64, 57
2, 105552, Control_c, 0, 64, 56
2, 105628, Control_c, 0, 67, 8
2, 105644, Control_c, 0, 67, 10
2, 105659, Control_c, 0, 67, 15
2, 105673, Control_c, 0, 67, 20
2, 105688, Note_on_c, 0, 41, 50
2, 105689, Control_c, 0, 67, 25
2, 105704, Control_c, 0, 64, 56
2, 105704, Control_c, 0, 67, 29
2, 105706, Note_on_c, 0, 43, 0
2, 105720, Control_c, 0, 67, 33
2, 105729, Note_on_c, 0, 80, 0
2, 105734, Control_c, 0, 67, 36
2, 105749, Control_c, 0, 67, 38
2, 105765, Control_c, 0, 67, 40
2, 105780, Control_c, 0, 64, 55
2, 105780, Control_c, 0, 67, 42
2, 105795, Control_c, 0, 64, 55
2, 105795, Control_c, 0, 67, 44
2, 105810, Control_c, 0, 64, 54
2, 105810, Control_c, 0, 67, 46
2, 105825, Control_c, 0, 64, 54
2, 105825, Control_c, 0, 67, 49
2, 105841, Control_c, 0, 64, 53
2, 105841, Control_c, 0, 67, 51
2, 105856, Control_c, 0, 67, 54
2, 105871, Control_c, 0, 64, 53
2, 105871, Control_c, 0, 67, 57
2, 105871, Note_on_c, 0, 41, 0
2, 105888, Control_c, 0, 67, 60
2, 105890, Note_on_c, 0, 39, 49
2, 105891, Note_on_c, 0, 79, 68
2, 105899, Note_on_c, 0, 75, 55
2, 105902, Control_c, 0, 64, 52
2, 105902, Control_c, 0, 67, 64
2, 105914, Note_on_c, 0, 70, 0
2, 105918, Control_c, 0, 67, 67
2, 105929, Note_on_c, 0, 73, 0
2, 105933, Control_c, 0, 67, 71
2, 105948, Control_c, 0, 64, 52
2, 105948, Control_c, 0, 67, 74
2, 105964, Control_c, 0, 67, 79
2, 105978, Control_c, 0, 64, 51
2, 105978, Control_c, 0, 67, 83
2, 105993, Control_c, 0, 67, 87
2, 106009, Control_c, 0, 67, 90
2, 106024, Control_c, 0, 67, 93
2, 106040, Control_c, 0, 67, 96
2, 106055, Control_c, 0, 67, 99
2, 106070, Control_c, 0, 67, 102
2, 106086, Control_c, 0, 64, 51
2, 106086, Control_c, 0, 67, 104
2, 106086, Note_on_c, 0, 41, 48
2, 106101, Control_c, 0, 67, 106
2, 106109, Note_on_c, 0, 39, 0
2, 106115, Control_c, 0, 67, 108
2, 106131, Control_c, 0, 67, 109
2, 106146, Control_c, 0, 67, 109
2, 106162, Control_c, 0, 67, 110
2, 106177, Control_c, 0, 67, 111
2, 106192, Control_c, 0, 67, 113
2, 106208, Control_c, 0, 67, 115
2, 106223, Control_c, 0, 67, 116
2, 106238, Control_c, 0, 67, 118
2, 106253, Control_c, 0, 67, 121
2, 106255, Note_on_c, 0, 41, 0
2, 106268, Control_c, 0, 67, 124
2, 106281, Note_on_c, 0, 70, 59
2, 106284, Control_c, 0, 67, 127
2, 106284, Note_on_c, 0, 43, 46
2, 106428, Control_c, 0, 64, 51
2, 106487, Note_on_c, 0, 46, 53
2, 106569, Note_on_c, 0, 43, 0
2, 106651, Note_on_c, 0, 46, 0
2, 106679, Note_on_c, 0, 44, 47
2, 106686, Control_c, 0, 64, 52
2, 106688, Note_on_c, 0, 72, 61
2, 106700, Note_on_c, 0, 70, 0
2, 106823, Control_c, 0, 64, 52
2, 106843, Note_on_c, 0, 44, 0
2, 106878, Note_on_c, 0, 43, 54
2, 106884, Control_c, 0, 64, 53
2, 106960, Control_c, 0, 64, 53
2, 107041, Note_on_c, 0, 43, 0
2, 107087, Note_on_c, 0, 68, 56
2, 107089, Control_c, 0, 64, 54
2, 107094, Note_on_c, 0, 41, 39
2, 107125, Note_on_c, 0, 72, 0
2, 107252, Note_on_c, 0, 79, 0
2, 107274, Note_on_c, 0, 39, 48
2, 107293, Note_on_c, 0, 41, 0
2, 107461, Note_on_c, 0, 39, 0
2, 107498, Note_on_c, 0, 77, 64
2, 107499, Note_on_c, 0, 37, 39
2, 107504, Note_on_c, 0, 73, 51
2, 107565, Note_on_c, 0, 68, 0
2, 107586, Note_on_c, 0, 75, 0
2, 107687, Note_on_c, 0, 39, 49
2, 107698, Control_c, 0, 64, 54
2, 107728, Control_c, 0, 64, 55
2, 107743, Control_c, 0, 64, 55
2, 107759, Control_c, 0, 64, 56
2, 107774, Control_c, 0, 64, 56
2, 107788, Note_on_c, 0, 37, 0
2, 107789, Control_c, 0, 64, 57
2, 107804, Control_c, 0, 64, 57
2, 107819, Control_c, 0, 64, 58
2, 107857, Control_c, 0, 64, 58
2, 107872, Control_c, 0, 64, 59
2, 107878, Note_on_c, 0, 39, 0
2, 107903, Control_c, 0, 64, 59
2, 107905, Note_on_c, 0, 41, 46
2, 107928, Note_on_c, 0, 68, 56
2, 107933, Control_c, 0, 64, 60
2, 107948, Control_c, 0, 64, 60
2, 107950, Note_on_c, 0, 73, 0
2, 107979, Control_c, 0, 64, 61
2, 107994, Control_c, 0, 64, 61
2, 108009, Control_c, 0, 64, 62
2, 108040, Control_c, 0, 64, 62
2, 108062, Note_on_c, 0, 41, 0
2, 108085, Control_c, 0, 64, 63
2, 108100, Control_c, 0, 64, 63
2, 108103, Note_on_c, 0, 44, 46
2, 108146, Control_c, 0, 64, 64
2, 108238, Control_c, 0, 64, 63
2, 108253, Control_c, 0, 64, 62
2, 108267, Control_c, 0, 64, 59
2, 108283, Control_c, 0, 64, 59
2, 108299, Note_on_c, 0, 43, 46
2, 108313, Control_c, 0, 64, 59
2, 108313, Note_on_c, 0, 70, 51
2, 108329, Control_c, 0, 64, 60
2, 108345, Control_c, 0, 64, 61
2, 108360, Control_c, 0, 64, 62
2, 108375, Control_c, 0, 64, 63
2, 108377, Note_on_c, 0, 44, 0
2, 108390, Control_c, 0, 64, 64
2, 108390, Note_on_c, 0, 77, 0
2, 108421, Control_c, 0, 64, 64
2, 108447, Note_on_c, 0, 68, 0
2, 108466, Control_c, 0, 64, 65
2, 108496, Control_c, 0, 64, 65
2, 108511, Control_c, 0, 64, 66
2, 108519, Note_on_c, 0, 72, 65
2, 108559, Note_on_c, 0, 70, 0
2, 108687, Control_c, 0, 64, 66
2, 108693, Note_on_c, 0, 46, 46
2, 108699, Note_on_c, 0, 73, 74
2, 108745, Note_on_c, 0, 72, 0
2, 108747, Control_c, 0, 64, 67
2, 108747, Control_c, 0, 67, 126
2, 108763, Control_c, 0, 67, 122
2, 108777, Control_c, 0, 67, 118
2, 108792, Control_c, 0, 67, 113
2, 108808, Control_c, 0, 64, 67
2, 108808, Control_c, 0, 67, 107
2, 108822, Control_c, 0, 67, 100
2, 108838, Control_c, 0, 67, 95
2, 108853, Control_c, 0, 67, 91
2, 108868, Control_c, 0, 67, 88
2, 108883, Note_on_c, 0, 43, 0
2, 108884, Control_c, 0, 67, 85
2, 108887, Note_on_c, 0, 72, 68
2, 108898, Control_c, 0, 67, 81
2, 108913, Control_c, 0, 64, 68
2, 108913, Control_c, 0, 67, 77
2, 108914, Note_on_c, 0, 73, 0
2, 108929, Control_c, 0, 67, 73
2, 108944, Control_c, 0, 67, 68
2, 108960, Control_c, 0, 67, 64
2, 108975, Control_c, 0, 67, 60
2, 108990, Control_c, 0, 67, 57
2, 109005, Control_c, 0, 67, 53
2, 109020, Control_c, 0, 67, 49
2, 109035, Control_c, 0, 67, 45
2, 109051, Control_c, 0, 64, 67
2, 109051, Control_c, 0, 67, 43
2, 109066, Control_c, 0, 64, 66
2, 109066, Control_c, 0, 67, 41
2, 109082, Control_c, 0, 64, 64
2, 109082, Control_c, 0, 67, 39
2, 109097, Control_c, 0, 64, 61
2, 109097, Control_c, 0, 67, 36
2, 109097, Note_on_c, 0, 76, 70
2, 109101, Note_on_c, 0, 48, 38
2, 109109, Note_on_c, 0, 70, 56
2, 109111, Control_c, 0, 64, 58
2, 109111, Control_c, 0, 67, 33
2, 109127, Control_c, 0, 67, 28
2, 109142, Control_c, 0, 64, 59
2, 109142, Control_c, 0, 67, 21
2, 109159, Control_c, 0, 64, 60
2, 109159, Control_c, 0, 67, 13
2, 109170, Note_on_c, 0, 46, 0
2, 109173, Control_c, 0, 64, 61
2, 109173, Control_c, 0, 67, 0
2, 109188, Control_c, 0, 64, 63
2, 109204, Control_c, 0, 64, 64
2, 109219, Control_c, 0, 64, 64
2, 109234, Control_c, 0, 64, 65
2, 109249, Control_c, 0, 64, 65
2, 109264, Control_c, 0, 64, 66
2, 109288, Note_on_c, 0, 68, 64
2, 109295, Control_c, 0, 64, 66
2, 109299, Note_on_c, 0, 70, 0
2, 109310, Control_c, 0, 64, 67
2, 109340, Control_c, 0, 64, 67
2, 109371, Control_c, 0, 64, 68
2, 109409, Control_c, 0, 64, 68
2, 109451, Note_on_c, 0, 68, 0
2, 109465, Note_on_c, 0, 36, 47
2, 109469, Control_c, 0, 64, 69
2, 109500, Control_c, 0, 64, 69
2, 109508, Note_on_c, 0, 67, 68
2, 109569, Note_on_c, 0, 72, 0
2, 109581, Note_on_c, 0, 36, 0
2, 109591, Control_c, 0, 64, 70
2, 109674, Note_on_c, 0, 76, 0
2, 109681, Note_on_c, 0, 70, 70
2, 109712, Control_c, 0, 64, 69
2, 109742, Note_on_c, 0, 67, 0
2, 109758, Control_c, 0, 64, 69
2, 109773, Control_c, 0, 64, 68
2, 109788, Control_c, 0, 64, 68
2, 109804, Control_c, 0, 64, 67
2, 109818, Control_c, 0, 64, 65
2, 109833, Control_c, 0, 64, 63
2, 109849, Control_c, 0, 64, 61
2, 109853, Note_on_c, 0, 70, 0
2, 109861, Note_on_c, 0, 41, 53
2, 109864, Control_c, 0, 64, 59
2, 109879, Note_on_c, 0, 48, 0
2, 109880, Control_c, 0, 64, 56
2, 109895, Control_c, 0, 64, 53
2, 109898, Note_on_c, 0, 77, 72
2, 109909, Note_on_c, 0, 68, 58
2, 109910, Control_c, 0, 64, 50
2, 109926, Control_c, 0, 64, 49
2, 109971, Control_c, 0, 64, 50
2, 110002, Control_c, 0, 64, 50
2, 110017, Control_c, 0, 64, 51
2, 110032, Control_c, 0, 64, 51
2, 110063, Control_c, 0, 64, 52
2, 110067, Note_on_c, 0, 48, 70
2, 110093, Control_c, 0, 64, 51
2, 110124, Control_c, 0, 64, 51
2, 110127, Note_on_c, 0, 41, 0
2, 110177, Control_c, 0, 64, 50
2, 110191, Control_c, 0, 64, 50
2, 110207, Control_c, 0, 64, 49
2, 110222, Control_c, 0, 64, 48
2, 110253, Control_c, 0, 64, 47
2, 110284, Note_on_c, 0, 50, 73
2, 110289, Note_on_c, 0, 68, 0
2, 110313, Control_c, 0, 64, 47
2, 110329, Control_c, 0, 64, 46
2, 110339, Note_on_c, 0, 48, 0
2, 110420, Control_c, 0, 64, 46
2, 110435, Control_c, 0, 64, 45
2, 110451, Control_c, 0, 64, 45
2, 110473, Note_on_c, 0, 52, 80
2, 110481, Control_c, 0, 64, 44
2, 110510, Control_c, 0, 64, 44
2, 110526, Control_c, 0, 64, 43
2, 110529, Note_on_c, 0, 50, 0
2, 110541, Control_c, 0, 64, 42
2, 110556, Control_c, 0, 64, 41
2, 110572, Control_c, 0, 64, 39
2, 110586, Control_c, 0, 64, 36
2, 110602, Control_c, 0, 64, 34
2, 110617, Control_c, 0, 64, 33
2, 110632, Control_c, 0, 64, 32
2, 110647, Control_c, 0, 64, 32
2, 110662, Control_c, 0, 64, 31
2, 110693, Control_c, 0, 64, 30
2, 110704, Note_on_c, 0, 53, 75
2, 110724, Control_c, 0, 64, 29
2, 110730, Note_on_c, 0, 52, 0
2, 110754, Control_c, 0, 64, 28
2, 110861, Control_c, 0, 64, 29
2, 110876, Control_c, 0, 64, 30
2, 110892, Control_c, 0, 64, 31
2, 110930, Control_c, 0, 64, 32
2, 110931, Note_on_c, 0, 75, 46
2, 110945, Control_c, 0, 64, 32
2, 110960, Control_c, 0, 64, 33
2, 110975, Control_c, 0, 64, 34
2, 110990, Control_c, 0, 64, 34
2, 111006, Control_c, 0, 64, 35
2, 111035, Control_c, 0, 64, 36
2, 111096, Control_c, 0, 64, 36
2, 111133, Note_on_c, 0, 73, 64
2, 111158, Control_c, 0, 64, 37
2, 111187, Note_on_c, 0, 77, 0
2, 111188, Control_c, 0, 64, 38
2, 111216, Note_on_c, 0, 75, 0
2, 111219, Control_c, 0, 64, 38
2, 111325, Control_c, 0, 64, 38
2, 111327, Note_on_c, 0, 72, 70
2, 111360, Note_on_c, 0, 73, 0
2, 111370, Control_c, 0, 64, 37
2, 111416, Control_c, 0, 64, 36
2, 111476, Control_c, 0, 64, 36
2, 111506, Control_c, 0, 64, 35
2, 111516, Note_on_c, 0, 70, 69
2, 111552, Control_c, 0, 64, 34
2, 111567, Note_on_c, 0, 72, 0
2, 111598, Control_c, 0, 64, 35
2, 111716, Note_on_c, 0, 68, 72
2, 111838, Note_on_c, 0, 70, 0
2, 111914, Note_on_c, 0, 58, 77
2, 111915, Note_on_c, 0, 67, 57
2, 111936, Note_on_c, 0, 68, 0
2, 111940, Control_c, 0, 64, 34
2, 111959, Note_on_c, 0, 53, 0
2, 112121, Note_on_c, 0, 68, 63
2, 112124, Control_c, 0, 64, 35
2, 112139, Note_on_c, 0, 67, 0
2, 112169, Control_c, 0, 64, 36
2, 112309, Note_on_c, 0, 52, 75
2, 112321, Control_c, 0, 64, 35
2, 112325, Note_on_c, 0, 70, 57
2, 112327, Note_on_c, 0, 58, 0
2, 112344, Note_on_c, 0, 68, 0
2, 112366, Control_c, 0, 64, 34
2, 112411, Control_c, 0, 64, 35
2, 112466, Control_c, 0, 67, 8
2, 112482, Control_c, 0, 67, 9
2, 112497, Control_c, 0, 67, 10
2, 112511, Control_c, 0, 67, 13
2, 112527, Control_c, 0, 67, 14
2, 112542, Control_c, 0, 67, 16
2, 112552, Note_on_c, 0, 73, 57
2, 112558, Control_c, 0, 67, 17
2, 112572, Control_c, 0, 67, 17
2, 112583, Note_on_c, 0, 70, 0
2, 112603, Control_c, 0, 67, 18
2, 112618, Control_c, 0, 67, 18
2, 112663, Control_c, 0, 64, 36
2, 112709, Control_c, 0, 67, 19
2, 112729, Note_on_c, 0, 60, 72
2, 112739, Control_c, 0, 67, 19
2, 112754, Control_c, 0, 67, 21
2, 112754, Note_on_c, 0, 72, 55
2, 112769, Control_c, 0, 67, 24
2, 112781, Note_on_c, 0, 73, 0
2, 112784, Control_c, 0, 67, 27
2, 112786, Note_on_c, 0, 52, 0
2, 112800, Control_c, 0, 67, 30
2, 112815, Control_c, 0, 64, 36
2, 112815, Control_c, 0, 67, 32
2, 112830, Control_c, 0, 67, 33
2, 112846, Control_c, 0, 67, 34
2, 112860, Control_c, 0, 67, 35
2, 112891, Control_c, 0, 67, 36
2, 112906, Control_c, 0, 67, 36
2, 112922, Control_c, 0, 67, 37
2, 112937, Control_c, 0, 64, 37
2, 112940, Note_on_c, 0, 72, 0
2, 112947, Note_on_c, 0, 70, 51
2, 112952, Control_c, 0, 67, 38
2, 112967, Control_c, 0, 67, 39
2, 112982, Control_c, 0, 67, 40
2, 112998, Control_c, 0, 67, 41
2, 113013, Control_c, 0, 67, 43
2, 113028, Control_c, 0, 67, 44
2, 113043, Control_c, 0, 67, 46
2, 113058, Control_c, 0, 67, 46
2, 113074, Control_c, 0, 67, 47
2, 113090, Control_c, 0, 64, 36
2, 113090, Control_c, 0, 67, 47
2, 113104, Control_c, 0, 67, 49
2, 113108, Note_on_c, 0, 70, 0
2, 113120, Control_c, 0, 67, 50
2, 113133, Note_on_c, 0, 51, 50
2, 113135, Control_c, 0, 67, 51
2, 113145, Note_on_c, 0, 69, 54
2, 113150, Control_c, 0, 67, 52
2, 113164, Note_on_c, 0, 60, 0
2, 113166, Control_c, 0, 67, 54
2, 113180, Control_c, 0, 67, 55
2, 113195, Control_c, 0, 67, 57
2, 113211, Control_c, 0, 64, 36
2, 113211, Control_c, 0, 67, 59
2, 113233, Control_c, 0, 67, 61
2, 113249, Control_c, 0, 67, 62
2, 113265, Control_c, 0, 67, 63
2, 113280, Control_c, 0, 67, 63
2, 113295, Control_c, 0, 64, 35
2, 113295, Control_c, 0, 67, 64
2, 113310, Control_c, 0, 67, 65
2, 113326, Control_c, 0, 67, 67
2, 113341, Control_c, 0, 67, 68
2, 113351, Note_on_c, 0, 72, 47
2, 113355, Control_c, 0, 67, 69
2, 113371, Control_c, 0, 67, 70
2, 113386, Control_c, 0, 67, 71
2, 113402, Control_c, 0, 67, 73
2, 113417, Control_c, 0, 67, 74
2, 113432, Control_c, 0, 67, 75
2, 113448, Control_c, 0, 67, 76
2, 113463, Control_c, 0, 64, 34
2, 113463, Control_c, 0, 67, 77
2, 113479, Control_c, 0, 67, 78
2, 113493, Control_c, 0, 67, 79
2, 113508, Control_c, 0, 64, 34
2, 113508, Control_c, 0, 67, 80
2, 113524, Control_c, 0, 67, 81
2, 113538, Control_c, 0, 67, 82
2, 113553, Control_c, 0, 64, 33
2, 113553, Control_c, 0, 67, 83
2, 113558, Note_on_c, 0, 57, 53
2, 113558, Note_on_c, 0, 72, 0
2, 113558, Note_on_c, 0, 73, 51
2, 113562, Note_on_c, 0, 69, 0
2, 113569, Control_c, 0, 67, 84
2, 113600, Control_c, 0, 64, 32
2, 113600, Control_c, 0, 67, 84
2, 113614, Control_c, 0, 67, 85
2, 113618, Note_on_c, 0, 51, 0
2, 113629, Control_c, 0, 67, 86
2, 113645, Control_c, 0, 67, 87
2, 113660, Control_c, 0, 67, 89
2, 113675, Control_c, 0, 67, 90
2, 113690, Control_c, 0, 67, 91
2, 113705, Control_c, 0, 67, 92
2, 113721, Control_c, 0, 67, 93
2, 113735, Control_c, 0, 67, 94
2, 113750, Control_c, 0, 67, 94
2, 113766, Control_c, 0, 67, 95
2, 113781, Control_c, 0, 67, 96
2, 113781, Note_on_c, 0, 75, 44
2, 113796, Control_c, 0, 64, 33
2, 113811, Control_c, 0, 67, 97
2, 113817, Note_on_c, 0, 73, 0
2, 113872, Control_c, 0, 64, 34
2, 113887, Control_c, 0, 64, 34
2, 113918, Control_c, 0, 64, 35
2, 113933, Control_c, 0, 64, 36
2, 113947, Control_c, 0, 64, 38
2, 113947, Control_c, 0, 67, 96
2, 113949, Note_on_c, 0, 75, 0
2, 113963, Control_c, 0, 64, 40
2, 113966, Note_on_c, 0, 57, 0
2, 113976, Note_on_c, 0, 77, 50
2, 113978, Control_c, 0, 64, 45
2, 113981, Note_on_c, 0, 58, 54
2, 113982, Note_on_c, 0, 49, 47
2, 114001, Control_c, 0, 64, 50
2, 114016, Control_c, 0, 64, 54
2, 114016, Control_c, 0, 67, 96
2, 114031, Control_c, 0, 64, 56
2, 114031, Control_c, 0, 67, 95
2, 114047, Control_c, 0, 64, 58
2, 114047, Control_c, 0, 67, 95
2, 114062, Control_c, 0, 64, 60
2, 114062, Control_c, 0, 67, 94
2, 114078, Control_c, 0, 64, 62
2, 114093, Control_c, 0, 64, 63
2, 114093, Control_c, 0, 67, 94
2, 114108, Control_c, 0, 64, 64
2, 114124, Control_c, 0, 64, 64
2, 114124, Control_c, 0, 67, 93
2, 114138, Control_c, 0, 64, 65
2, 114138, Control_c, 0, 67, 92
2, 114153, Control_c, 0, 64, 65
2, 114153, Control_c, 0, 67, 92
2, 114169, Control_c, 0, 64, 67
2, 114169, Control_c, 0, 67, 91
2, 114184, Control_c, 0, 64, 68
2, 114184, Control_c, 0, 67, 91
2, 114199, Note_on_c, 0, 75, 46
2, 114200, Control_c, 0, 67, 90
2, 114215, Control_c, 0, 64, 69
2, 114215, Control_c, 0, 67, 90
2, 114230, Control_c, 0, 67, 89
2, 114246, Control_c, 0, 64, 69
2, 114246, Control_c, 0, 67, 88
2, 114260, Control_c, 0, 67, 88
2, 114275, Control_c, 0, 64, 70
2, 114275, Control_c, 0, 67, 87
2, 114298, Note_on_c, 0, 77, 0
2, 114306, Control_c, 0, 64, 70
2, 114306, Control_c, 0, 67, 86
2, 114322, Control_c, 0, 67, 85
2, 114336, Control_c, 0, 64, 71
2, 114336, Control_c, 0, 67, 84
2, 114351, Control_c, 0, 67, 84
2, 114367, Control_c, 0, 64, 71
2, 114367, Control_c, 0, 67, 81
2, 114381, Control_c, 0, 64, 72
2, 114381, Control_c, 0, 67, 79
2, 114396, Control_c, 0, 67, 75
2, 114405, Note_on_c, 0, 65, 75
2, 114412, Control_c, 0, 64, 72
2, 114412, Control_c, 0, 67, 70
2, 114427, Control_c, 0, 64, 73
2, 114427, Control_c, 0, 67, 65
2, 114432, Note_on_c, 0, 73, 59
2, 114443, Control_c, 0, 64, 73
2, 114443, Control_c, 0, 67, 59
2, 114455, Note_on_c, 0, 49, 0
2, 114457, Control_c, 0, 67, 53
2, 114472, Control_c, 0, 67, 45
2, 114488, Control_c, 0, 67, 39
2, 114503, Control_c, 0, 64, 74
2, 114503, Control_c, 0, 67, 34
2, 114519, Control_c, 0, 67, 29
2, 114533, Control_c, 0, 67, 23
2, 114548, Control_c, 0, 67, 19
2, 114564, Control_c, 0, 67, 16
2, 114576, Note_on_c, 0, 65, 0
2, 114579, Control_c, 0, 67, 12
2, 114594, Control_c, 0, 67, 10
2, 114609, Control_c, 0, 67, 8
2, 114611, Note_on_c, 0, 72, 61
2, 114624, Control_c, 0, 67, 0
2, 114630, Note_on_c, 0, 75, 0
2, 114658, Note_on_c, 0, 73, 0
2, 114814, Control_c, 0, 64, 72
2, 114815, Note_on_c, 0, 61, 81
2, 114818, Note_on_c, 0, 58, 0
2, 114821, Note_on_c, 0, 70, 67
2, 114829, Control_c, 0, 64, 69
2, 114831, Note_on_c, 0, 54, 62
2, 114845, Control_c, 0, 64, 64
2, 114860, Control_c, 0, 64, 56
2, 114866, Note_on_c, 0, 72, 0
2, 114891, Control_c, 0, 64, 58
2, 114906, Control_c, 0, 64, 60
2, 114922, Control_c, 0, 64, 62
2, 114937, Control_c, 0, 64, 64
2, 114952, Control_c, 0, 64, 65
2, 114967, Control_c, 0, 64, 65
2, 114982, Control_c, 0, 64, 66
2, 114998, Control_c, 0, 64, 67
2, 115007, Note_on_c, 0, 73, 53
2, 115028, Control_c, 0, 64, 67
2, 115213, Note_on_c, 0, 78, 65
2, 115218, Note_on_c, 0, 58, 71
2, 115241, Control_c, 0, 64, 68
2, 115316, Control_c, 0, 64, 68
2, 115327, Note_on_c, 0, 78, 0
2, 115335, Note_on_c, 0, 70, 0
2, 115362, Note_on_c, 0, 61, 0
2, 115377, Control_c, 0, 64, 69
2, 115419, Note_on_c, 0, 77, 68
2, 115484, Control_c, 0, 64, 68
2, 115492, Note_on_c, 0, 73, 0
2, 115499, Control_c, 0, 64, 68
2, 115514, Control_c, 0, 64, 66
2, 115537, Control_c, 0, 64, 63
2, 115552, Control_c, 0, 64, 61
2, 115567, Control_c, 0, 64, 62
2, 115582, Control_c, 0, 64, 62
2, 115598, Control_c, 0, 64, 63
2, 115613, Control_c, 0, 64, 64
2, 115628, Control_c, 0, 64, 65
2, 115629, Note_on_c, 0, 66, 74
2, 115639, Note_on_c, 0, 75, 65
2, 115643, Control_c, 0, 64, 66
2, 115658, Control_c, 0, 64, 66
2, 115673, Control_c, 0, 64, 67
2, 115704, Control_c, 0, 64, 67
2, 115705, Note_on_c, 0, 58, 0
2, 115735, Control_c, 0, 64, 68
2, 115737, Note_on_c, 0, 77, 0
2, 115786, Note_on_c, 0, 54, 0
2, 115819, Note_on_c, 0, 73, 72
2, 115842, Control_c, 0, 64, 68
2, 115875, Note_on_c, 0, 75, 0
2, 115887, Note_on_c, 0, 66, 0
2, 115914, Note_on_c, 0, 73, 0
2, 115979, Control_c, 0, 64, 68
2, 116012, Note_on_c, 0, 54, 50
2, 116018, Note_on_c, 0, 72, 85
2, 116021, Note_on_c, 0, 63, 80
2, 116085, Control_c, 0, 64, 67
2, 116115, Control_c, 0, 64, 67
2, 116146, Control_c, 0, 64, 66
2, 116162, Control_c, 0, 64, 66
2, 116177, Control_c, 0, 64, 65
2, 116191, Control_c, 0, 64, 65
2, 116203, Note_on_c, 0, 54, 0
2, 116204, Note_on_c, 0, 70, 76
2, 116207, Control_c, 0, 64, 64
2, 116215, Note_on_c, 0, 53, 53
2, 116222, Control_c, 0, 64, 63
2, 116238, Control_c, 0, 64, 62
2, 116253, Control_c, 0, 64, 61
2, 116267, Control_c, 0, 64, 59
2, 116283, Control_c, 0, 64, 58
2, 116306, Control_c, 0, 64, 56
2, 116322, Control_c, 0, 64, 54
2, 116337, Control_c, 0, 64, 46
2, 116351, Control_c, 0, 64, 33
2, 116367, Control_c, 0, 64, 0
2, 116412, Note_on_c, 0, 53, 0
2, 116429, Note_on_c, 0, 51, 47
2, 116441, Note_on_c, 0, 69, 73
2, 116448, Note_on_c, 0, 65, 64
2, 116472, Note_on_c, 0, 72, 0
2, 116504, Note_on_c, 0, 70, 0
2, 116514, Note_on_c, 0, 63, 0
2, 116643, Note_on_c, 0, 54, 58
2, 116646, Note_on_c, 0, 51, 0
2, 116656, Control_c, 0, 64, 30
2, 116671, Control_c, 0, 64, 45
2, 116687, Control_c, 0, 64, 52
2, 116702, Control_c, 0, 64, 56
2, 116716, Control_c, 0, 64, 60
2, 116732, Control_c, 0, 64, 62
2, 116747, Control_c, 0, 64, 64
2, 116763, Control_c, 0, 64, 65
2, 116778, Control_c, 0, 64, 66
2, 116792, Control_c, 0, 64, 67
2, 116808, Control_c, 0, 64, 68
2, 116823, Control_c, 0, 64, 70
2, 116839, Control_c, 0, 64, 71
2, 116840, Note_on_c, 0, 54, 0
2, 116847, Note_on_c, 0, 53, 69
2, 116853, Control_c, 0, 64, 72
2, 116868, Control_c, 0, 64, 73
2, 116884, Control_c, 0, 64, 74
2, 116899, Control_c, 0, 64, 75
2, 116914, Control_c, 0, 64, 75
2, 116930, Control_c, 0, 64, 76
2, 116949, Note_on_c, 0, 69, 0
2, 116991, Note_on_c, 0, 65, 0
2, 116998, Note_on_c, 0, 53, 0
2, 117033, Note_on_c, 0, 51, 64
2, 117160, Note_on_c, 0, 51, 0
2, 117242, Control_c, 0, 64, 75
2, 117251, Note_on_c, 0, 65, 80
2, 117254, Note_on_c, 0, 70, 78
2, 117256, Control_c, 0, 64, 72
2, 117263, Note_on_c, 0, 49, 59
2, 117266, Note_on_c, 0, 58, 60
2, 117271, Control_c, 0, 64, 67
2, 117287, Control_c, 0, 64, 56
2, 117302, Control_c, 0, 64, 24
2, 117318, Control_c, 0, 64, 18
2, 117332, Control_c, 0, 64, 36
2, 117348, Control_c, 0, 64, 49
2, 117364, Control_c, 0, 64, 57
2, 117379, Control_c, 0, 64, 60
2, 117394, Control_c, 0, 64, 61
2, 117410, Control_c, 0, 64, 62
2, 117424, Control_c, 0, 64, 63
2, 117440, Control_c, 0, 64, 64
2, 117453, Note_on_c, 0, 72, 65
2, 117455, Control_c, 0, 64, 65
2, 117461, Note_on_c, 0, 48, 48
2, 117470, Control_c, 0, 64, 65
2, 117482, Note_on_c, 0, 49, 0
2, 117485, Control_c, 0, 64, 66
2, 117500, Control_c, 0, 64, 66
2, 117504, Note_on_c, 0, 70, 0
2, 117531, Control_c, 0, 64, 67
2, 117561, Control_c, 0, 64, 67
2, 117591, Control_c, 0, 64, 68
2, 117623, Note_on_c, 0, 48, 0
2, 117633, Note_on_c, 0, 72, 0
2, 117636, Control_c, 0, 64, 68
2, 117663, Note_on_c, 0, 46, 58
2, 117667, Control_c, 0, 64, 68
2, 117673, Note_on_c, 0, 70, 71
2, 117680, Note_on_c, 0, 73, 75
2, 117681, Control_c, 0, 64, 67
2, 117696, Control_c, 0, 64, 64
2, 117711, Control_c, 0, 64, 57
2, 117727, Control_c, 0, 64, 44
2, 117731, Note_on_c, 0, 58, 0
2, 117742, Control_c, 0, 64, 36
2, 117756, Control_c, 0, 64, 40
2, 117772, Control_c, 0, 64, 47
2, 117787, Control_c, 0, 64, 56
2, 117802, Control_c, 0, 64, 60
2, 117817, Control_c, 0, 64, 62
2, 117841, Control_c, 0, 64, 63
2, 117853, Note_on_c, 0, 65, 0
2, 117856, Control_c, 0, 64, 63
2, 117868, Note_on_c, 0, 49, 53
2, 117871, Control_c, 0, 64, 64
2, 117886, Control_c, 0, 64, 65
2, 117901, Control_c, 0, 64, 66
2, 117916, Control_c, 0, 64, 66
2, 117932, Control_c, 0, 64, 67
2, 117947, Control_c, 0, 64, 67
2, 117962, Control_c, 0, 64, 68
2, 117970, Note_on_c, 0, 46, 0
2, 117992, Control_c, 0, 64, 68
2, 118022, Control_c, 0, 64, 69
2, 118038, Control_c, 0, 64, 69
2, 118068, Control_c, 0, 64, 69
2, 118084, Control_c, 0, 64, 66
2, 118088, Note_on_c, 0, 66, 87
2, 118089, Note_on_c, 0, 51, 49
2, 118098, Control_c, 0, 64, 60
2, 118113, Control_c, 0, 64, 45
2, 118129, Control_c, 0, 64, 38
2, 118137, Note_on_c, 0, 49, 0
2, 118144, Control_c, 0, 64, 46
2, 118160, Control_c, 0, 64, 55
2, 118176, Control_c, 0, 64, 61
2, 118190, Control_c, 0, 64, 64
2, 118206, Control_c, 0, 64, 65
2, 118221, Control_c, 0, 64, 66
2, 118236, Control_c, 0, 64, 67
2, 118248, Note_on_c, 0, 70, 0
2, 118252, Control_c, 0, 64, 67
2, 118264, Note_on_c, 0, 51, 0
2, 118266, Control_c, 0, 64, 68
2, 118282, Control_c, 0, 64, 69
2, 118297, Control_c, 0, 64, 70
2, 118298, Note_on_c, 0, 53, 53
2, 118312, Control_c, 0, 64, 71
2, 118327, Control_c, 0, 64, 71
2, 118343, Note_on_c, 0, 66, 0
2, 118358, Control_c, 0, 64, 72
2, 118404, Control_c, 0, 64, 72
2, 118442, Note_on_c, 0, 73, 0
2, 118486, Note_on_c, 0, 53, 0
2, 118491, Note_on_c, 0, 54, 57
2, 118493, Note_on_c, 0, 63, 84
2, 118501, Note_on_c, 0, 72, 72
2, 118681, Note_on_c, 0, 51, 62
2, 118690, Note_on_c, 0, 73, 71
2, 118693, Note_on_c, 0, 54, 0
2, 118722, Note_on_c, 0, 51, 0
2, 118727, Note_on_c, 0, 72, 0
2, 118765, Note_on_c, 0, 63, 0
2, 118823, Note_on_c, 0, 73, 0
2, 118852, Control_c, 0, 64, 71
2, 118866, Control_c, 0, 64, 68
2, 118882, Control_c, 0, 64, 58
2, 118897, Control_c, 0, 64, 19
2, 118898, Note_on_c, 0, 72, 77
2, 118904, Note_on_c, 0, 75, 83
2, 118906, Note_on_c, 0, 53, 52
2, 118909, Note_on_c, 0, 57, 52
2, 118912, Control_c, 0, 64, 0
2, 118942, Control_c, 0, 64, 26
2, 118958, Control_c, 0, 64, 47
2, 118973, Control_c, 0, 64, 57
2, 118989, Control_c, 0, 64, 60
2, 119005, Control_c, 0, 64, 62
2, 119020, Control_c, 0, 64, 63
2, 119034, Control_c, 0, 64, 64
2, 119050, Control_c, 0, 64, 64
2, 119065, Control_c, 0, 64, 65
2, 119081, Control_c, 0, 64, 66
2, 119095, Control_c, 0, 64, 67
2, 119106, Note_on_c, 0, 58, 48
2, 119110, Control_c, 0, 64, 68
2, 119126, Control_c, 0, 64, 69
2, 119141, Control_c, 0, 64, 70
2, 119146, Note_on_c, 0, 57, 0
2, 119171, Control_c, 0, 64, 71
2, 119186, Control_c, 0, 64, 71
2, 119202, Control_c, 0, 64, 72
2, 119217, Control_c, 0, 64, 72
2, 119232, Control_c, 0, 64, 73
2, 119278, Control_c, 0, 64, 73
2, 119299, Note_on_c, 0, 58, 0
2, 119315, Note_on_c, 0, 60, 50
2, 119321, Note_on_c, 0, 69, 89
2, 119444, Note_on_c, 0, 75, 0
2, 119489, Note_on_c, 0, 57, 56
2, 119492, Note_on_c, 0, 69, 0
2, 119501, Note_on_c, 0, 60, 0
2, 119515, Note_on_c, 0, 53, 0
2, 119522, Note_on_c, 0, 57, 0
2, 119540, Note_on_c, 0, 72, 0
2, 119710, Control_c, 0, 64, 73
2, 119722, Note_on_c, 0, 70, 87
2, 119726, Control_c, 0, 64, 71
2, 119736, Note_on_c, 0, 46, 55
2, 119741, Control_c, 0, 64, 67
2, 119741, Control_c, 0, 67, 8
2, 119748, Note_on_c, 0, 53, 37
2, 119756, Control_c, 0, 64, 53
2, 119756, Control_c, 0, 67, 10
2, 119772, Control_c, 0, 64, 0
2, 119772, Control_c, 0, 67, 15
2, 119786, Control_c, 0, 67, 21
2, 119802, Control_c, 0, 67, 28
2, 119818, Control_c, 0, 67, 35
2, 119833, Control_c, 0, 67, 42
2, 119849, Control_c, 0, 64, 19
2, 119849, Control_c, 0, 67, 49
2, 119864, Control_c, 0, 64, 43
2, 119864, Control_c, 0, 67, 58
2, 119879, Control_c, 0, 64, 49
2, 119879, Control_c, 0, 67, 67
2, 119894, Control_c, 0, 64, 52
2, 119894, Control_c, 0, 67, 77
2, 119909, Control_c, 0, 64, 55
2, 119909, Control_c, 0, 67, 85
2, 119923, Note_on_c, 0, 72, 60
2, 119925, Control_c, 0, 64, 56
2, 119925, Control_c, 0, 67, 91
2, 119939, Control_c, 0, 64, 57
2, 119939, Control_c, 0, 67, 95
2, 119954, Control_c, 0, 64, 58
2, 119954, Control_c, 0, 67, 99
2, 119970, Control_c, 0, 64, 58
2, 119970, Control_c, 0, 67, 104
2, 119986, Control_c, 0, 64, 59
2, 119986, Control_c, 0, 67, 109
2, 120002, Control_c, 0, 64, 59
2, 120002, Control_c, 0, 67, 114
2, 120016, Control_c, 0, 64, 61
2, 120016, Control_c, 0, 67, 119
2, 120031, Control_c, 0, 64, 63
2, 120031, Control_c, 0, 67, 125
2, 120038, Note_on_c, 0, 46, 0
2, 120047, Control_c, 0, 64, 64
2, 120047, Control_c, 0, 67, 127
2, 120062, Control_c, 0, 64, 64
2, 120075, Note_on_c, 0, 53, 0
2, 120078, Control_c, 0, 64, 65
2, 120092, Control_c, 0, 64, 66
2, 120104, Note_on_c, 0, 73, 62
2, 120107, Control_c, 0, 64, 67
2, 120118, Note_on_c, 0, 58, 39
2, 120123, Control_c, 0, 64, 68
2, 120145, Control_c, 0, 64, 69
2, 120160, Note_on_c, 0, 58, 0
2, 120161, Control_c, 0, 64, 70
2, 120176, Control_c, 0, 64, 70
2, 120207, Control_c, 0, 64, 71
2, 120218, Note_on_c, 0, 70, 0
2, 120236, Control_c, 0, 64, 71
2, 120299, Note_on_c, 0, 73, 0
2, 120300, Note_on_c, 0, 60, 45
2, 120300, Note_on_c, 0, 72, 0
2, 120300, Note_on_c, 0, 77, 66
2, 120312, Control_c, 0, 64, 72
2, 120337, Note_on_c, 0, 60, 0
2, 120381, Note_on_c, 0, 77, 0
2, 120464, Control_c, 0, 64, 71
2, 120510, Control_c, 0, 64, 71
2, 120531, Note_on_c, 0, 61, 45
2, 120534, Note_on_c, 0, 82, 64
2, 120540, Control_c, 0, 64, 69
2, 120555, Control_c, 0, 64, 67
2, 120571, Control_c, 0, 64, 63
2, 120586, Control_c, 0, 64, 58
2, 120602, Control_c, 0, 64, 51
2, 120617, Control_c, 0, 64, 46
2, 120632, Control_c, 0, 64, 39
2, 120648, Control_c, 0, 64, 34
2, 120679, Control_c, 0, 64, 36
2, 120693, Control_c, 0, 64, 41
2, 120708, Control_c, 0, 64, 47
2, 120724, Control_c, 0, 64, 50
2, 120724, Note_on_c, 0, 65, 44
2, 120739, Control_c, 0, 64, 51
2, 120799, Control_c, 0, 64, 52
2, 120814, Control_c, 0, 64, 52
2, 120845, Control_c, 0, 64, 53
2, 120874, Control_c, 0, 64, 53
2, 120890, Control_c, 0, 64, 54
2, 120912, Control_c, 0, 64, 56
2, 120928, Control_c, 0, 64, 58
2, 120936, Note_on_c, 0, 65, 0
2, 120943, Control_c, 0, 64, 59
2, 120944, Note_on_c, 0, 77, 68
2, 120947, Note_on_c, 0, 66, 43
2, 120959, Control_c, 0, 64, 61
2, 120974, Control_c, 0, 64, 62
2, 120988, Control_c, 0, 64, 63
2, 121004, Control_c, 0, 64, 64
2, 121019, Control_c, 0, 64, 64
2, 121034, Control_c, 0, 64, 65
2, 121050, Control_c, 0, 64, 66
2, 121100, Note_on_c, 0, 66, 0
2, 121115, Note_on_c, 0, 68, 42
2, 121166, Note_on_c, 0, 68, 0
2, 121353, Note_on_c, 0, 70, 38
2, 121360, Note_on_c, 0, 78, 74
2, 121407, Note_on_c, 0, 77, 0
2, 121476, Control_c, 0, 64, 65
2, 121546, Note_on_c, 0, 70, 0
2, 121553, Note_on_c, 0, 68, 45
2, 121582, Control_c, 0, 64, 66
2, 121721, Note_on_c, 0, 68, 0
2, 121752, Note_on_c, 0, 66, 43
2, 121753, Note_on_c, 0, 61, 0
2, 121769, Note_on_c, 0, 75, 67
2, 121773, Note_on_c, 0, 82, 0
2, 121909, Note_on_c, 0, 66, 0
2, 121949, Note_on_c, 0, 65, 37
2, 122034, Note_on_c, 0, 78, 0
2, 122122, Control_c, 0, 64, 65
2, 122151, Control_c, 0, 64, 65
2, 122156, Note_on_c, 0, 65, 0
2, 122166, Note_on_c, 0, 60, 28
2, 122167, Control_c, 0, 64, 64
2, 122181, Note_on_c, 0, 63, 32
2, 122182, Control_c, 0, 64, 60
2, 122195, Note_on_c, 0, 80, 65
2, 122197, Control_c, 0, 64, 52
2, 122213, Control_c, 0, 64, 26
2, 122228, Control_c, 0, 64, 0
2, 122254, Note_on_c, 0, 75, 0
2, 122304, Control_c, 0, 64, 44
2, 122320, Control_c, 0, 64, 51
2, 122335, Control_c, 0, 64, 55
2, 122350, Control_c, 0, 64, 57
2, 122366, Control_c, 0, 64, 59
2, 122381, Control_c, 0, 64, 60
2, 122395, Control_c, 0, 64, 61
2, 122401, Note_on_c, 0, 65, 37
2, 122408, Note_on_c, 0, 63, 0
2, 122411, Control_c, 0, 64, 63
2, 122426, Control_c, 0, 64, 64
2, 122449, Control_c, 0, 64, 65
2, 122479, Control_c, 0, 64, 65
2, 122494, Control_c, 0, 64, 66
2, 122525, Control_c, 0, 64, 66
2, 122549, Note_on_c, 0, 65, 0
2, 122601, Control_c, 0, 64, 67
2, 122603, Note_on_c, 0, 66, 40
2, 122605, Note_on_c, 0, 75, 57
2, 122752, Control_c, 0, 64, 66
2, 122775, Note_on_c, 0, 66, 0
2, 122787, Note_on_c, 0, 70, 44
2, 122922, Note_on_c, 0, 80, 0
2, 122986, Note_on_c, 0, 70, 0
2, 123003, Note_on_c, 0, 68, 42
2, 123018, Note_on_c, 0, 77, 64
2, 123057, Control_c, 0, 64, 67
2, 123105, Note_on_c, 0, 75, 0
2, 123161, Note_on_c, 0, 68, 0
2, 123189, Note_on_c, 0, 66, 46
2, 123257, Note_on_c, 0, 60, 0
2, 123324, Control_c, 0, 64, 67
2, 123350, Note_on_c, 0, 66, 0
2, 123394, Note_on_c, 0, 65, 40
2, 123397, Note_on_c, 0, 73, 75
2, 123415, Control_c, 0, 64, 67
2, 123477, Note_on_c, 0, 77, 0
2, 123572, Note_on_c, 0, 77, 72
2, 123588, Note_on_c, 0, 65, 0
2, 123589, Note_on_c, 0, 63, 41
2, 123628, Control_c, 0, 64, 66
2, 123689, Note_on_c, 0, 73, 0
2, 123749, Control_c, 0, 64, 66
2, 123756, Note_on_c, 0, 63, 0
2, 123779, Control_c, 0, 64, 65
2, 123779, Note_on_c, 0, 58, 35
2, 123794, Control_c, 0, 64, 63
2, 123794, Note_on_c, 0, 78, 63
2, 123795, Note_on_c, 0, 61, 35
2, 123810, Control_c, 0, 64, 59
2, 123825, Control_c, 0, 64, 49
2, 123839, Note_on_c, 0, 77, 0
2, 123841, Control_c, 0, 64, 13
2, 123855, Control_c, 0, 64, 0
2, 123933, Control_c, 0, 64, 22
2, 123947, Control_c, 0, 64, 47
2, 123963, Control_c, 0, 64, 53
2, 123986, Control_c, 0, 64, 56
2, 124002, Control_c, 0, 64, 60
2, 124016, Control_c, 0, 64, 63
2, 124018, Note_on_c, 0, 63, 33
2, 124031, Control_c, 0, 64, 64
2, 124062, Control_c, 0, 64, 64
2, 124063, Note_on_c, 0, 61, 0
2, 124077, Control_c, 0, 64, 65
2, 124092, Control_c, 0, 64, 65
2, 124138, Control_c, 0, 64, 66
2, 124176, Note_on_c, 0, 63, 0
2, 124199, Control_c, 0, 64, 65
2, 124201, Note_on_c, 0, 73, 60
2, 124215, Note_on_c, 0, 65, 36
2, 124389, Note_on_c, 0, 68, 48
2, 124416, Note_on_c, 0, 65, 0
2, 124442, Control_c, 0, 64, 66
2, 124533, Control_c, 0, 67, 126
2, 124547, Control_c, 0, 67, 122
2, 124563, Control_c, 0, 64, 66
2, 124563, Control_c, 0, 67, 118
2, 124565, Note_on_c, 0, 68, 0
2, 124578, Control_c, 0, 67, 115
2, 124592, Control_c, 0, 67, 111
2, 124595, Note_on_c, 0, 66, 38
2, 124603, Note_on_c, 0, 75, 68
2, 124608, Control_c, 0, 64, 67
2, 124608, Control_c, 0, 67, 108
2, 124622, Control_c, 0, 67, 104
2, 124637, Control_c, 0, 67, 99
2, 124653, Control_c, 0, 64, 67
2, 124653, Control_c, 0, 67, 95
2, 124668, Control_c, 0, 67, 91
2, 124671, Note_on_c, 0, 73, 0
2, 124684, Control_c, 0, 67, 87
2, 124698, Control_c, 0, 67, 84
2, 124714, Control_c, 0, 67, 81
2, 124730, Control_c, 0, 67, 78
2, 124753, Control_c, 0, 67, 75
2, 124769, Control_c, 0, 67, 73
2, 124777, Note_on_c, 0, 66, 0
2, 124784, Control_c, 0, 67, 71
2, 124799, Control_c, 0, 67, 69
2, 124808, Note_on_c, 0, 58, 0
2, 124808, Note_on_c, 0, 65, 42
2, 124814, Control_c, 0, 67, 67
2, 124829, Control_c, 0, 67, 65
2, 124845, Control_c, 0, 67, 64
2, 124859, Control_c, 0, 67, 63
2, 124874, Control_c, 0, 67, 62
2, 124890, Control_c, 0, 67, 62
2, 124905, Control_c, 0, 67, 61
2, 124921, Control_c, 0, 67, 60
2, 124950, Control_c, 0, 64, 67
2, 124966, Control_c, 0, 67, 60
2, 125011, Note_on_c, 0, 63, 47
2, 125011, Note_on_c, 0, 72, 67
2, 125071, Control_c, 0, 67, 59
2, 125103, Note_on_c, 0, 78, 0
2, 125160, Note_on_c, 0, 63, 0
2, 125177, Note_on_c, 0, 65, 0
2, 125192, Note_on_c, 0, 61, 47
2, 125212, Note_on_c, 0, 75, 0
2, 125343, Note_on_c, 0, 61, 0
2, 125376, Control_c, 0, 64, 66
2, 125406, Control_c, 0, 64, 66
2, 125408, Note_on_c, 0, 60, 34
2, 125409, Note_on_c, 0, 57, 36
2, 125421, Control_c, 0, 64, 64
2, 125424, Note_on_c, 0, 77, 68
2, 125436, Control_c, 0, 64, 57
2, 125452, Control_c, 0, 64, 37
2, 125466, Control_c, 0, 64, 13
2, 125482, Control_c, 0, 64, 18
2, 125497, Control_c, 0, 64, 32
2, 125499, Note_on_c, 0, 72, 0
2, 125521, Control_c, 0, 64, 46
2, 125536, Control_c, 0, 64, 56
2, 125551, Control_c, 0, 64, 60
2, 125557, Note_on_c, 0, 60, 0
2, 125567, Control_c, 0, 64, 62
2, 125582, Control_c, 0, 64, 63
2, 125597, Control_c, 0, 64, 64
2, 125597, Control_c, 0, 67, 59
2, 125597, Note_on_c, 0, 61, 43
2, 125613, Control_c, 0, 64, 65
2, 125613, Control_c, 0, 67, 58
2, 125627, Control_c, 0, 64, 65
2, 125643, Control_c, 0, 64, 66
2, 125658, Control_c, 0, 64, 66
2, 125673, Control_c, 0, 64, 67
2, 125689, Control_c, 0, 64, 68
2, 125703, Control_c, 0, 64, 69
2, 125719, Control_c, 0, 64, 70
2, 125734, Control_c, 0, 64, 70
2, 125764, Note_on_c, 0, 61, 0
2, 125779, Control_c, 0, 64, 71
2, 125784, Note_on_c, 0, 63, 37
2, 125820, Note_on_c, 0, 72, 61
2, 125825, Note_on_c, 0, 77, 0
2, 125940, Note_on_c, 0, 72, 0
2, 125968, Note_on_c, 0, 66, 63
2, 126059, Note_on_c, 0, 66, 0
2, 126114, Note_on_c, 0, 63, 0
2, 126175, Control_c, 0, 64, 70
2, 126178, Note_on_c, 0, 58, 42
2, 126190, Control_c, 0, 64, 68
2, 126191, Note_on_c, 0, 73, 66
2, 126206, Control_c, 0, 64, 64
2, 126212, Note_on_c, 0, 65, 43
2, 126221, Control_c, 0, 64, 53
2, 126221, Control_c, 0, 67, 59
2, 126235, Control_c, 0, 64, 0
2, 126243, Note_on_c, 0, 57, 0
2, 126266, Control_c, 0, 67, 58
2, 126304, Control_c, 0, 64, 34
2, 126319, Control_c, 0, 64, 50
2, 126334, Control_c, 0, 64, 56
2, 126349, Control_c, 0, 64, 59
2, 126366, Control_c, 0, 64, 61
2, 126381, Control_c, 0, 64, 62
2, 126396, Control_c, 0, 64, 63
2, 126396, Control_c, 0, 67, 58
2, 126406, Note_on_c, 0, 63, 54
2, 126411, Control_c, 0, 64, 63
2, 126411, Control_c, 0, 67, 57
2, 126426, Control_c, 0, 64, 64
2, 126426, Control_c, 0, 67, 54
2, 126442, Control_c, 0, 67, 47
2, 126457, Control_c, 0, 64, 64
2, 126457, Control_c, 0, 67, 38
2, 126471, Control_c, 0, 67, 29
2, 126487, Control_c, 0, 67, 17
2, 126502, Control_c, 0, 64, 65
2, 126502, Control_c, 0, 67, 0
2, 126514, Note_on_c, 0, 65, 0
2, 126579, Control_c, 0, 64, 65
2, 126588, Note_on_c, 0, 61, 66
2, 126601, Note_on_c, 0, 63, 0
2, 126704, Note_on_c, 0, 58, 0
2, 126745, Control_c, 0, 64, 65
2, 126756, Note_on_c, 0, 61, 0
2, 126763, Note_on_c, 0, 60, 61
2, 126897, Control_c, 0, 64, 64
2, 126928, Control_c, 0, 64, 64
2, 126942, Control_c, 0, 64, 63
2, 126957, Control_c, 0, 64, 62
2, 126973, Control_c, 0, 64, 55
2, 126982, Note_on_c, 0, 58, 50
2, 126988, Control_c, 0, 64, 33
2, 126995, Note_on_c, 0, 65, 77
2, 127004, Control_c, 0, 64, 0
2, 127148, Control_c, 0, 64, 25
2, 127163, Control_c, 0, 64, 42
2, 127179, Control_c, 0, 64, 48
2, 127194, Control_c, 0, 64, 52
2, 127202, Note_on_c, 0, 56, 54
2, 127209, Note_on_c, 0, 58, 0
2, 127210, Control_c, 0, 64, 55
2, 127225, Control_c, 0, 64, 58
2, 127241, Control_c, 0, 64, 59
2, 127255, Control_c, 0, 64, 61
2, 127270, Control_c, 0, 64, 61
2, 127286, Control_c, 0, 64, 62
2, 127301, Control_c, 0, 64, 62
2, 127315, Control_c, 0, 64, 63
2, 127352, Note_on_c, 0, 60, 0
2, 127408, Control_c, 0, 64, 64
2, 127416, Note_on_c, 0, 56, 0
2, 127435, Note_on_c, 0, 70, 87
2, 127437, Note_on_c, 0, 55, 51
2, 127453, Control_c, 0, 64, 64
2, 127513, Control_c, 0, 64, 65
2, 127529, Control_c, 0, 64, 65
2, 127575, Control_c, 0, 64, 66
2, 127587, Note_on_c, 0, 55, 0
2, 127589, Control_c, 0, 64, 66
2, 127617, Note_on_c, 0, 53, 54
2, 127635, Control_c, 0, 64, 67
2, 127696, Control_c, 0, 64, 67
2, 127772, Control_c, 0, 64, 67
2, 127786, Control_c, 0, 64, 66
2, 127802, Control_c, 0, 64, 63
2, 127804, Note_on_c, 0, 53, 0
2, 127825, Control_c, 0, 64, 55
2, 127832, Note_on_c, 0, 67, 84
2, 127837, Note_on_c, 0, 51, 51
2, 127841, Control_c, 0, 64, 26
2, 127855, Control_c, 0, 64, 0
2, 127872, Note_on_c, 0, 65, 0
2, 127901, Control_c, 0, 64, 37
2, 127916, Control_c, 0, 64, 53
2, 127931, Control_c, 0, 64, 58
2, 127946, Control_c, 0, 64, 60
2, 127962, Control_c, 0, 64, 61
2, 127977, Control_c, 0, 64, 63
2, 127992, Control_c, 0, 64, 63
2, 128009, Control_c, 0, 64, 64
2, 128018, Note_on_c, 0, 61, 61
2, 128023, Control_c, 0, 64, 64
2, 128039, Control_c, 0, 64, 65
2, 128084, Control_c, 0, 64, 65
2, 128145, Control_c, 0, 64, 65
2, 128163, Note_on_c, 0, 51, 0
2, 128182, Note_on_c, 0, 61, 0
2, 128221, Control_c, 0, 64, 64
2, 128227, Note_on_c, 0, 60, 57
2, 128227, Note_on_c, 0, 63, 80
2, 128285, Note_on_c, 0, 73, 0
2, 128373, Control_c, 0, 64, 65
2, 128376, Note_on_c, 0, 67, 0
2, 128408, Note_on_c, 0, 58, 62
2, 128413, Note_on_c, 0, 70, 0
2, 128449, Control_c, 0, 64, 65
2, 128479, Control_c, 0, 64, 66
2, 128593, Control_c, 0, 64, 65
2, 128609, Control_c, 0, 64, 64
2, 128618, Note_on_c, 0, 58, 0
2, 128624, Control_c, 0, 64, 56
2, 128625, Note_on_c, 0, 56, 59
2, 128633, Note_on_c, 0, 72, 84
2, 128639, Control_c, 0, 64, 0
2, 128699, Control_c, 0, 64, 32
2, 128714, Control_c, 0, 64, 57
2, 128730, Control_c, 0, 64, 63
2, 128736, Note_on_c, 0, 63, 0
2, 128745, Control_c, 0, 64, 63
2, 128806, Control_c, 0, 64, 64
2, 128827, Note_on_c, 0, 56, 0
2, 128839, Note_on_c, 0, 55, 52
2, 128867, Control_c, 0, 64, 64
2, 128877, Note_on_c, 0, 72, 0
2, 128898, Control_c, 0, 64, 65
2, 128951, Note_on_c, 0, 60, 0
2, 129014, Note_on_c, 0, 55, 0
2, 129043, Note_on_c, 0, 53, 52
2, 129043, Note_on_c, 0, 77, 87
2, 129052, Note_on_c, 0, 68, 69
2, 129205, Note_on_c, 0, 77, 0
2, 129214, Note_on_c, 0, 53, 0
2, 129246, Control_c, 0, 64, 65
2, 129248, Note_on_c, 0, 55, 56
2, 129391, Control_c, 0, 64, 66
2, 129421, Control_c, 0, 64, 65
2, 129436, Control_c, 0, 64, 65
2, 129446, Note_on_c, 0, 56, 52
2, 129452, Control_c, 0, 64, 62
2, 129452, Note_on_c, 0, 74, 86
2, 129462, Note_on_c, 0, 65, 64
2, 129466, Control_c, 0, 64, 56
2, 129482, Control_c, 0, 64, 48
2, 129497, Control_c, 0, 64, 49
2, 129512, Control_c, 0, 64, 52
2, 129513, Note_on_c, 0, 68, 0
2, 129528, Control_c, 0, 64, 57
2, 129542, Control_c, 0, 64, 60
2, 129542, Note_on_c, 0, 55, 0
2, 129557, Control_c, 0, 64, 61
2, 129573, Control_c, 0, 64, 62
2, 129618, Control_c, 0, 64, 62
2, 129640, Note_on_c, 0, 60, 62
2, 129644, Note_on_c, 0, 56, 0
2, 129650, Control_c, 0, 64, 63
2, 129673, Note_on_c, 0, 65, 0
2, 129741, Control_c, 0, 64, 62
2, 129844, Note_on_c, 0, 70, 83
2, 129847, Control_c, 0, 64, 62
2, 129848, Note_on_c, 0, 58, 63
2, 129850, Note_on_c, 0, 60, 0
2, 129853, Note_on_c, 0, 62, 63
2, 129893, Note_on_c, 0, 74, 0
2, 129908, Control_c, 0, 64, 61
2, 129939, Note_on_c, 0, 62, 0
2, 129984, Control_c, 0, 64, 61
2, 130000, Control_c, 0, 64, 60
2, 130015, Control_c, 0, 64, 60
2, 130015, Note_on_c, 0, 56, 63
2, 130030, Control_c, 0, 64, 59
2, 130042, Note_on_c, 0, 58, 0
2, 130046, Control_c, 0, 64, 58
2, 130061, Control_c, 0, 64, 58
2, 130076, Control_c, 0, 64, 57
2, 130106, Control_c, 0, 64, 56
2, 130129, Control_c, 0, 64, 53
2, 130144, Control_c, 0, 64, 48
2, 130160, Control_c, 0, 64, 43
2, 130174, Control_c, 0, 64, 37
2, 130189, Control_c, 0, 64, 33
2, 130205, Control_c, 0, 64, 32
2, 130220, Control_c, 0, 64, 29
2, 130223, Note_on_c, 0, 55, 71
2, 130229, Note_on_c, 0, 56, 0
2, 130235, Control_c, 0, 64, 22
2, 130242, Note_on_c, 0, 75, 78
2, 130251, Control_c, 0, 64, 16
2, 130266, Control_c, 0, 64, 10
2, 130285, Note_on_c, 0, 70, 0
2, 130342, Control_c, 0, 64, 0
2, 130403, Control_c, 0, 64, 13
2, 130432, Note_on_c, 0, 53, 76
2, 130495, Control_c, 0, 64, 16
2, 130507, Note_on_c, 0, 55, 0
2, 130510, Control_c, 0, 64, 18
2, 130555, Control_c, 0, 64, 13
2, 130571, Control_c, 0, 64, 10
2, 130586, Control_c, 0, 64, 0
2, 130642, Note_on_c, 0, 51, 71
2, 130666, Note_on_c, 0, 67, 47
2, 130686, Note_on_c, 0, 53, 0
2, 130827, Note_on_c, 0, 49, 71
2, 130845, Note_on_c, 0, 51, 0
2, 131036, Note_on_c, 0, 48, 61
2, 131054, Note_on_c, 0, 68, 59
2, 131063, Note_on_c, 0, 49, 0
2, 131119, Note_on_c, 0, 67, 0
2, 131230, Control_c, 0, 67, 8
2, 131246, Control_c, 0, 67, 10
2, 131260, Note_on_c, 0, 70, 53
2, 131261, Control_c, 0, 67, 13
2, 131265, Note_on_c, 0, 68, 0
2, 131277, Control_c, 0, 67, 16
2, 131293, Control_c, 0, 67, 20
2, 131308, Control_c, 0, 67, 24
2, 131324, Control_c, 0, 67, 29
2, 131324, Note_on_c, 0, 75, 0
2, 131338, Control_c, 0, 67, 35
2, 131353, Control_c, 0, 64, 10
2, 131353, Control_c, 0, 67, 42
2, 131369, Control_c, 0, 67, 50
2, 131383, Control_c, 0, 67, 57
2, 131399, Control_c, 0, 67, 64
2, 131414, Control_c, 0, 67, 70
2, 131429, Control_c, 0, 67, 76
2, 131445, Control_c, 0, 67, 82
2, 131459, Control_c, 0, 67, 87
2, 131468, Note_on_c, 0, 72, 62
2, 131472, Note_on_c, 0, 56, 46
2, 131473, Note_on_c, 0, 70, 0
2, 131474, Control_c, 0, 67, 91
2, 131490, Control_c, 0, 67, 97
2, 131504, Control_c, 0, 64, 0
2, 131504, Control_c, 0, 67, 101
2, 131504, Note_on_c, 0, 48, 0
2, 131520, Control_c, 0, 67, 104
2, 131535, Control_c, 0, 67, 106
2, 131550, Control_c, 0, 67, 108
2, 131566, Control_c, 0, 67, 110
2, 131580, Control_c, 0, 67, 112
2, 131595, Control_c, 0, 67, 116
2, 131611, Control_c, 0, 67, 119
2, 131626, Control_c, 0, 67, 124
2, 131642, Control_c, 0, 67, 127
2, 131659, Note_on_c, 0, 70, 55
2, 131691, Note_on_c, 0, 72, 0
2, 131857, Note_on_c, 0, 56, 0
2, 131859, Note_on_c, 0, 70, 0
2, 131860, Note_on_c, 0, 74, 59
2, 131868, Note_on_c, 0, 58, 40
2, 131871, Note_on_c, 0, 68, 48
2, 131952, Control_c, 0, 64, 22
2, 131968, Control_c, 0, 64, 38
2, 131983, Control_c, 0, 64, 46
2, 131997, Control_c, 0, 64, 50
2, 132013, Control_c, 0, 64, 54
2, 132028, Control_c, 0, 64, 58
2, 132044, Control_c, 0, 64, 60
2, 132059, Control_c, 0, 64, 61
2, 132060, Note_on_c, 0, 67, 54
2, 132073, Control_c, 0, 64, 62
2, 132085, Note_on_c, 0, 68, 0
2, 132090, Control_c, 0, 64, 63
2, 132105, Control_c, 0, 64, 64
2, 132121, Control_c, 0, 64, 65
2, 132124, Note_on_c, 0, 67, 0
2, 132136, Control_c, 0, 64, 66
2, 132151, Control_c, 0, 64, 67
2, 132166, Control_c, 0, 64, 68
2, 132181, Control_c, 0, 64, 69
2, 132196, Control_c, 0, 64, 70
2, 132212, Control_c, 0, 64, 71
2, 132226, Control_c, 0, 64, 71
2, 132241, Note_on_c, 0, 65, 56
2, 132242, Control_c, 0, 64, 72
2, 132257, Control_c, 0, 64, 72
2, 132259, Note_on_c, 0, 46, 45
2, 132378, Control_c, 0, 64, 72
2, 132393, Control_c, 0, 64, 71
2, 132429, Note_on_c, 0, 74, 0
2, 132431, Control_c, 0, 64, 71
2, 132433, Note_on_c, 0, 65, 0
2, 132443, Note_on_c, 0, 68, 55
2, 132462, Control_c, 0, 64, 70
2, 132466, Note_on_c, 0, 58, 0
2, 132477, Control_c, 0, 64, 70
2, 132493, Control_c, 0, 64, 69
2, 132507, Control_c, 0, 64, 69
2, 132523, Control_c, 0, 64, 68
2, 132538, Control_c, 0, 64, 68
2, 132552, Control_c, 0, 64, 67
2, 132568, Control_c, 0, 64, 67
2, 132583, Control_c, 0, 64, 66
2, 132599, Control_c, 0, 64, 65
2, 132614, Control_c, 0, 64, 64
2, 132629, Control_c, 0, 64, 63
2, 132644, Note_on_c, 0, 68, 0
2, 132645, Control_c, 0, 64, 61
2, 132660, Control_c, 0, 64, 59
2, 132672, Note_on_c, 0, 51, 38
2, 132675, Control_c, 0, 64, 56
2, 132677, Note_on_c, 0, 75, 50
2, 132685, Note_on_c, 0, 67, 35
2, 132691, Control_c, 0, 64, 53
2, 132705, Control_c, 0, 64, 48
2, 132721, Control_c, 0, 64, 39
2, 132736, Control_c, 0, 64, 27
2, 132740, Note_on_c, 0, 46, 0
2, 132751, Control_c, 0, 64, 10
2, 132766, Control_c, 0, 64, 0
2, 132863, Note_on_c, 0, 68, 51
2, 132879, Note_on_c, 0, 67, 0
2, 133076, Note_on_c, 0, 70, 52
2, 133107, Note_on_c, 0, 68, 0
2, 133269, Note_on_c, 0, 67, 57
2, 133299, Note_on_c, 0, 70, 0
2, 133399, Control_c, 0, 64, 16
2, 133413, Control_c, 0, 64, 24
2, 133428, Control_c, 0, 64, 28
2, 133444, Control_c, 0, 64, 30
2, 133459, Control_c, 0, 64, 32
2, 133473, Control_c, 0, 64, 34
2, 133485, Note_on_c, 0, 63, 47
2, 133489, Control_c, 0, 64, 36
2, 133504, Control_c, 0, 64, 37
2, 133534, Control_c, 0, 64, 38
2, 133549, Control_c, 0, 64, 38
2, 133580, Control_c, 0, 64, 39
2, 133644, Note_on_c, 0, 53, 56
2, 133764, Control_c, 0, 64, 38
2, 133794, Note_on_c, 0, 67, 0
2, 133833, Note_on_c, 0, 51, 0
2, 133839, Note_on_c, 0, 53, 0
2, 133840, Control_c, 0, 64, 38
2, 133849, Note_on_c, 0, 55, 64
2, 133858, Note_on_c, 0, 70, 55
2, 133870, Control_c, 0, 64, 37
2, 133915, Control_c, 0, 64, 36
2, 133946, Control_c, 0, 64, 36
2, 133999, Control_c, 0, 64, 35
2, 134014, Control_c, 0, 64, 34
2, 134052, Note_on_c, 0, 56, 73
2, 134075, Control_c, 0, 64, 34
2, 134097, Note_on_c, 0, 55, 0
2, 134106, Control_c, 0, 64, 33
2, 134121, Control_c, 0, 64, 32
2, 134149, Note_on_c, 0, 63, 0
2, 134227, Control_c, 0, 64, 32
2, 134244, Note_on_c, 0, 58, 76
2, 134253, Note_on_c, 0, 67, 61
2, 134313, Note_on_c, 0, 56, 0
2, 134378, Control_c, 0, 64, 33
2, 134393, Control_c, 0, 64, 34
2, 134409, Control_c, 0, 64, 35
2, 134424, Control_c, 0, 64, 36
2, 134440, Control_c, 0, 64, 37
2, 134442, Note_on_c, 0, 60, 79
2, 134448, Note_on_c, 0, 58, 0
2, 134455, Control_c, 0, 64, 38
2, 134469, Control_c, 0, 64, 38
2, 134485, Control_c, 0, 64, 39
2, 134500, Control_c, 0, 64, 39
2, 134531, Control_c, 0, 64, 40
2, 134546, Control_c, 0, 67, 125
2, 134562, Control_c, 0, 67, 123
2, 134577, Control_c, 0, 67, 121
2, 134592, Control_c, 0, 67, 119
2, 134608, Control_c, 0, 67, 116
2, 134622, Control_c, 0, 67, 115
2, 134625, Note_on_c, 0, 75, 0
2, 134637, Control_c, 0, 67, 113
2, 134641, Note_on_c, 0, 61, 73
2, 134647, Note_on_c, 0, 63, 70
2, 134653, Control_c, 0, 67, 112
2, 134668, Control_c, 0, 64, 39
2, 134668, Control_c, 0, 67, 109
2, 134668, Note_on_c, 0, 60, 0
2, 134684, Control_c, 0, 67, 106
2, 134699, Control_c, 0, 67, 102
2, 134714, Control_c, 0, 64, 39
2, 134714, Control_c, 0, 67, 98
2, 134737, Control_c, 0, 67, 94
2, 134752, Control_c, 0, 67, 90
2, 134767, Control_c, 0, 67, 87
2, 134782, Control_c, 0, 67, 85
2, 134797, Control_c, 0, 67, 83
2, 134812, Control_c, 0, 67, 80
2, 134827, Control_c, 0, 64, 38
2, 134827, Control_c, 0, 67, 77
2, 134827, Note_on_c, 0, 60, 66
2, 134843, Control_c, 0, 67, 76
2, 134843, Note_on_c, 0, 61, 0
2, 134858, Control_c, 0, 64, 38
2, 134858, Control_c, 0, 67, 75
2, 134873, Control_c, 0, 64, 37
2, 134873, Control_c, 0, 67, 74
2, 134905, Note_on_c, 0, 70, 0
2, 134920, Control_c, 0, 64, 36
2, 134949, Control_c, 0, 64, 36
2, 134965, Control_c, 0, 64, 35
2, 134965, Control_c, 0, 67, 75
2, 134980, Control_c, 0, 64, 34
2, 134980, Control_c, 0, 67, 75
2, 134995, Control_c, 0, 64, 34
2, 135010, Control_c, 0, 64, 32
2, 135025, Control_c, 0, 64, 32
2, 135025, Control_c, 0, 67, 76
2, 135032, Note_on_c, 0, 58, 55
2, 135041, Control_c, 0, 64, 30
2, 135041, Control_c, 0, 67, 76
2, 135051, Note_on_c, 0, 73, 76
2, 135056, Control_c, 0, 64, 29
2, 135056, Control_c, 0, 67, 77
2, 135071, Note_on_c, 0, 60, 0
2, 135086, Control_c, 0, 67, 77
2, 135101, Control_c, 0, 64, 28
2, 135101, Control_c, 0, 67, 78
2, 135132, Control_c, 0, 67, 79
2, 135134, Note_on_c, 0, 67, 0
2, 135163, Control_c, 0, 67, 80
2, 135192, Control_c, 0, 67, 80
2, 135211, Note_on_c, 0, 58, 0
2, 135222, Control_c, 0, 67, 81
2, 135234, Note_on_c, 0, 56, 51
2, 135237, Control_c, 0, 64, 29
2, 135237, Control_c, 0, 67, 81
2, 135253, Control_c, 0, 64, 30
2, 135253, Control_c, 0, 67, 82
2, 135268, Control_c, 0, 64, 31
2, 135284, Control_c, 0, 64, 32
2, 135298, Control_c, 0, 64, 32
2, 135298, Control_c, 0, 67, 83
2, 135313, Control_c, 0, 67, 83
2, 135329, Control_c, 0, 64, 33
2, 135329, Control_c, 0, 67, 84
2, 135343, Control_c, 0, 67, 84
2, 135359, Control_c, 0, 67, 85
2, 135375, Control_c, 0, 67, 86
2, 135393, Note_on_c, 0, 56, 0
2, 135406, Control_c, 0, 67, 87
2, 135429, Note_on_c, 0, 55, 43
2, 135435, Control_c, 0, 67, 87
2, 135444, Note_on_c, 0, 70, 67
2, 135451, Control_c, 0, 67, 88
2, 135466, Control_c, 0, 67, 89
2, 135482, Control_c, 0, 67, 91
2, 135504, Control_c, 0, 64, 32
2, 135504, Control_c, 0, 67, 93
2, 135520, Control_c, 0, 67, 94
2, 135534, Control_c, 0, 64, 32
2, 135534, Control_c, 0, 67, 96
2, 135549, Control_c, 0, 67, 98
2, 135565, Control_c, 0, 67, 100
2, 135580, Control_c, 0, 67, 101
2, 135585, Note_on_c, 0, 55, 0
2, 135595, Control_c, 0, 67, 104
2, 135610, Control_c, 0, 67, 106
2, 135622, Note_on_c, 0, 58, 51
2, 135625, Control_c, 0, 67, 109
2, 135641, Control_c, 0, 67, 112
2, 135656, Control_c, 0, 64, 31
2, 135656, Control_c, 0, 67, 115
2, 135662, Note_on_c, 0, 63, 0
2, 135671, Control_c, 0, 67, 118
2, 135687, Control_c, 0, 67, 121
2, 135702, Control_c, 0, 67, 124
2, 135717, Control_c, 0, 67, 126
2, 135732, Control_c, 0, 64, 32
2, 135732, Control_c, 0, 67, 127
2, 135793, Note_on_c, 0, 58, 0
2, 135808, Control_c, 0, 64, 31
2, 135823, Control_c, 0, 64, 28
2, 135836, Note_on_c, 0, 56, 45
2, 135839, Control_c, 0, 64, 0
2, 135849, Note_on_c, 0, 72, 57
2, 135858, Note_on_c, 0, 73, 0
2, 135868, Note_on_c, 0, 70, 0
2, 135989, Control_c, 0, 64, 34
2, 136005, Control_c, 0, 64, 42
2, 136020, Control_c, 0, 64, 47
2, 136032, Note_on_c, 0, 51, 46
2, 136035, Control_c, 0, 64, 52
2, 136048, Note_on_c, 0, 56, 0
2, 136051, Control_c, 0, 64, 55
2, 136065, Control_c, 0, 64, 57
2, 136081, Control_c, 0, 64, 59
2, 136096, Control_c, 0, 64, 60
2, 136112, Control_c, 0, 64, 61
2, 136128, Control_c, 0, 64, 62
2, 136157, Control_c, 0, 64, 62
2, 136220, Control_c, 0, 64, 63
2, 136222, Note_on_c, 0, 53, 54
2, 136240, Note_on_c, 0, 51, 0
2, 136303, Control_c, 0, 64, 62
2, 136394, Control_c, 0, 64, 62
2, 136403, Note_on_c, 0, 53, 0
2, 136417, Note_on_c, 0, 55, 59
2, 136500, Control_c, 0, 64, 61
2, 136515, Control_c, 0, 64, 61
2, 136531, Control_c, 0, 64, 60
2, 136546, Control_c, 0, 64, 59
2, 136562, Control_c, 0, 64, 55
2, 136576, Control_c, 0, 64, 46
2, 136591, Control_c, 0, 64, 28
2, 136600, Note_on_c, 0, 55, 0
2, 136607, Control_c, 0, 64, 0
2, 136620, Note_on_c, 0, 56, 48
2, 136637, Note_on_c, 0, 68, 68
2, 136682, Note_on_c, 0, 72, 0
2, 136698, Control_c, 0, 64, 21
2, 136713, Control_c, 0, 64, 37
2, 136729, Control_c, 0, 64, 46
2, 136744, Control_c, 0, 64, 51
2, 136760, Control_c, 0, 64, 54
2, 136774, Control_c, 0, 64, 56
2, 136789, Control_c, 0, 64, 57
2, 136805, Control_c, 0, 64, 58
2, 136820, Control_c, 0, 64, 59
2, 136825, Note_on_c, 0, 58, 55
2, 136834, Control_c, 0, 64, 60
2, 136841, Note_on_c, 0, 56, 0
2, 136850, Control_c, 0, 64, 61
2, 136881, Control_c, 0, 67, 125
2, 136896, Control_c, 0, 67, 121
2, 136910, Control_c, 0, 67, 117
2, 136926, Control_c, 0, 67, 113
2, 136941, Control_c, 0, 67, 108
2, 136956, Control_c, 0, 67, 103
2, 136972, Control_c, 0, 67, 101
2, 136986, Control_c, 0, 67, 98
2, 136992, Note_on_c, 0, 58, 0
2, 137002, Control_c, 0, 67, 95
2, 137018, Control_c, 0, 67, 93
2, 137023, Note_on_c, 0, 60, 49
2, 137041, Control_c, 0, 67, 89
2, 137053, Note_on_c, 0, 75, 80
2, 137056, Control_c, 0, 67, 85
2, 137071, Control_c, 0, 67, 81
2, 137087, Control_c, 0, 67, 75
2, 137102, Control_c, 0, 64, 60
2, 137102, Control_c, 0, 67, 69
2, 137117, Control_c, 0, 67, 64
2, 137133, Control_c, 0, 67, 61
2, 137147, Control_c, 0, 67, 59
2, 137163, Control_c, 0, 64, 60
2, 137163, Control_c, 0, 67, 57
2, 137178, Control_c, 0, 67, 55
2, 137193, Control_c, 0, 67, 52
2, 137209, Control_c, 0, 67, 49
2, 137223, Control_c, 0, 67, 46
2, 137235, Note_on_c, 0, 61, 63
2, 137239, Control_c, 0, 67, 44
2, 137246, Note_on_c, 0, 60, 0
2, 137254, Control_c, 0, 67, 41
2, 137268, Control_c, 0, 64, 59
2, 137268, Control_c, 0, 67, 39
2, 137284, Control_c, 0, 67, 35
2, 137299, Control_c, 0, 64, 59
2, 137299, Control_c, 0, 67, 31
2, 137314, Control_c, 0, 64, 58
2, 137314, Control_c, 0, 67, 26
2, 137330, Control_c, 0, 64, 58
2, 137330, Control_c, 0, 67, 22
2, 137344, Control_c, 0, 64, 57
2, 137344, Control_c, 0, 67, 18
2, 137360, Control_c, 0, 64, 57
2, 137360, Control_c, 0, 67, 14
2, 137366, Note_on_c, 0, 68, 0
2, 137375, Control_c, 0, 64, 56
2, 137375, Control_c, 0, 67, 10
2, 137390, Control_c, 0, 64, 56
2, 137390, Control_c, 0, 67, 8
2, 137406, Control_c, 0, 64, 55
2, 137406, Control_c, 0, 67, 0
2, 137420, Control_c, 0, 64, 55
2, 137426, Note_on_c, 0, 63, 74
2, 137434, Note_on_c, 0, 72, 79
2, 137435, Control_c, 0, 64, 54
2, 137511, Note_on_c, 0, 61, 0
2, 137588, Control_c, 0, 64, 54
2, 137614, Note_on_c, 0, 65, 74
2, 137618, Control_c, 0, 64, 53
2, 137664, Control_c, 0, 64, 53
2, 137673, Note_on_c, 0, 63, 0
2, 137694, Control_c, 0, 64, 52
2, 137709, Control_c, 0, 64, 52
2, 137740, Control_c, 0, 64, 51
2, 137783, Control_c, 0, 64, 51
2, 137822, Note_on_c, 0, 66, 69
2, 137830, Note_on_c, 0, 68, 81
2, 137837, Control_c, 0, 64, 50
2, 137842, Note_on_c, 0, 65, 0
2, 137867, Control_c, 0, 67, 8
2, 137882, Control_c, 0, 67, 8
2, 137898, Control_c, 0, 67, 9
2, 137913, Control_c, 0, 67, 9
2, 137929, Control_c, 0, 67, 10
2, 137944, Control_c, 0, 67, 10
2, 137959, Control_c, 0, 64, 50
2, 137959, Control_c, 0, 67, 11
2, 137975, Control_c, 0, 67, 12
2, 137989, Control_c, 0, 64, 49
2, 137989, Control_c, 0, 67, 13
2, 137997, Note_on_c, 0, 66, 0
2, 138004, Control_c, 0, 64, 48
2, 138004, Control_c, 0, 67, 14
2, 138009, Note_on_c, 0, 65, 56
2, 138020, Control_c, 0, 67, 14
2, 138023, Note_on_c, 0, 75, 0
2, 138035, Control_c, 0, 67, 15
2, 138051, Control_c, 0, 67, 16
2, 138065, Control_c, 0, 67, 19
2, 138080, Control_c, 0, 67, 22
2, 138096, Control_c, 0, 67, 24
2, 138110, Control_c, 0, 67, 26
2, 138126, Control_c, 0, 64, 48
2, 138126, Control_c, 0, 67, 29
2, 138128, Note_on_c, 0, 72, 0
2, 138141, Control_c, 0, 64, 47
2, 138141, Control_c, 0, 67, 33
2, 138156, Control_c, 0, 64, 47
2, 138156, Control_c, 0, 67, 36
2, 138172, Control_c, 0, 64, 46
2, 138172, Control_c, 0, 67, 40
2, 138186, Control_c, 0, 67, 44
2, 138201, Control_c, 0, 67, 48
2, 138213, Note_on_c, 0, 63, 52
2, 138215, Note_on_c, 0, 65, 0
2, 138215, Note_on_c, 0, 78, 83
2, 138217, Control_c, 0, 67, 51
2, 138232, Control_c, 0, 67, 55
2, 138248, Control_c, 0, 67, 58
2, 138262, Control_c, 0, 64, 47
2, 138262, Control_c, 0, 67, 60
2, 138277, Control_c, 0, 64, 47
2, 138277, Control_c, 0, 67, 63
2, 138293, Control_c, 0, 64, 48
2, 138293, Control_c, 0, 67, 65
2, 138307, Control_c, 0, 64, 49
2, 138307, Control_c, 0, 67, 67
2, 138322, Control_c, 0, 64, 50
2, 138322, Control_c, 0, 67, 70
2, 138338, Control_c, 0, 64, 51
2, 138338, Control_c, 0, 67, 72
2, 138353, Control_c, 0, 64, 52
2, 138353, Control_c, 0, 67, 75
2, 138369, Control_c, 0, 64, 52
2, 138369, Control_c, 0, 67, 77
2, 138384, Control_c, 0, 64, 53
2, 138384, Control_c, 0, 67, 80
2, 138395, Note_on_c, 0, 63, 0
2, 138399, Control_c, 0, 64, 53
2, 138399, Control_c, 0, 67, 82
2, 138411, Note_on_c, 0, 61, 51
2, 138415, Control_c, 0, 67, 84
2, 138430, Control_c, 0, 67, 86
2, 138444, Control_c, 0, 67, 88
2, 138460, Control_c, 0, 67, 89
2, 138475, Control_c, 0, 64, 54
2, 138475, Control_c, 0, 67, 91
2, 138491, Control_c, 0, 67, 92
2, 138506, Control_c, 0, 67, 94
2, 138520, Control_c, 0, 67, 94
2, 138536, Control_c, 0, 67, 95
2, 138551, Control_c, 0, 67, 96
2, 138574, Control_c, 0, 67, 96
2, 138589, Control_c, 0, 67, 97
2, 138604, Control_c, 0, 67, 99
2, 138606, Note_on_c, 0, 61, 0
2, 138619, Control_c, 0, 67, 101
2, 138619, Note_on_c, 0, 75, 72
2, 138624, Note_on_c, 0, 60, 48
2, 138625, Note_on_c, 0, 72, 53
2, 138634, Control_c, 0, 67, 103
2, 138651, Control_c, 0, 67, 105
2, 138666, Control_c, 0, 67, 106
2, 138680, Control_c, 0, 67, 107
2, 138696, Control_c, 0, 67, 107
2, 138711, Control_c, 0, 67, 108
2, 138713, Note_on_c, 0, 78, 0
2, 138742, Control_c, 0, 67, 108
2, 138757, Control_c, 0, 64, 53
2, 138757, Control_c, 0, 67, 109
2, 138773, Control_c, 0, 67, 109
2, 138796, Note_on_c, 0, 60, 0
2, 138802, Control_c, 0, 67, 110
2, 138814, Note_on_c, 0, 63, 45
2, 138818, Control_c, 0, 67, 110
2, 138894, Control_c, 0, 64, 54
2, 138954, Control_c, 0, 64, 53
2, 138970, Control_c, 0, 64, 52
2, 138978, Note_on_c, 0, 63, 0
2, 138985, Control_c, 0, 64, 44
2, 139000, Control_c, 0, 64, 0
2, 139006, Note_on_c, 0, 61, 49
2, 139016, Note_on_c, 0, 77, 66
2, 139058, Note_on_c, 0, 75, 0
2, 139069, Note_on_c, 0, 72, 0
2, 139152, Control_c, 0, 64, 25
2, 139167, Control_c, 0, 64, 34
2, 139167, Control_c, 0, 67, 110
2, 139178, Note_on_c, 0, 68, 0
2, 139182, Control_c, 0, 64, 42
2, 139197, Control_c, 0, 64, 47
2, 139199, Note_on_c, 0, 61, 0
2, 139206, Note_on_c, 0, 63, 40
2, 139213, Control_c, 0, 64, 52
2, 139228, Control_c, 0, 64, 55
2, 139243, Control_c, 0, 64, 56
2, 139259, Control_c, 0, 64, 58
2, 139273, Control_c, 0, 64, 59
2, 139273, Control_c, 0, 67, 109
2, 139289, Control_c, 0, 64, 60
2, 139304, Control_c, 0, 64, 61
2, 139319, Control_c, 0, 64, 61
2, 139342, Control_c, 0, 64, 62
2, 139357, Control_c, 0, 64, 63
2, 139357, Control_c, 0, 67, 109
2, 139372, Control_c, 0, 64, 63
2, 139387, Control_c, 0, 64, 64
2, 139402, Control_c, 0, 64, 65
2, 139415, Note_on_c, 0, 63, 0
2, 139418, Control_c, 0, 64, 65
2, 139422, Note_on_c, 0, 65, 38
2, 139429, Note_on_c, 0, 68, 47
2, 139433, Control_c, 0, 64, 66
2, 139433, Control_c, 0, 67, 108
2, 139448, Control_c, 0, 64, 66
2, 139464, Control_c, 0, 64, 67
2, 139479, Control_c, 0, 64, 68
2, 139510, Control_c, 0, 64, 68
2, 139586, Control_c, 0, 67, 108
2, 139588, Note_on_c, 0, 65, 0
2, 139606, Note_on_c, 0, 63, 42
2, 139616, Control_c, 0, 64, 69
2, 139693, Control_c, 0, 67, 107
2, 139711, Note_on_c, 0, 77, 0
2, 139722, Control_c, 0, 67, 107
2, 139770, Note_on_c, 0, 68, 0
2, 139784, Control_c, 0, 64, 68
2, 139789, Note_on_c, 0, 63, 0
2, 139798, Control_c, 0, 64, 67
2, 139814, Control_c, 0, 64, 64
2, 139815, Note_on_c, 0, 61, 44
2, 139827, Note_on_c, 0, 70, 54
2, 139827, Note_on_c, 0, 77, 71
2, 139829, Control_c, 0, 64, 58
2, 139844, Control_c, 0, 64, 44
2, 139874, Control_c, 0, 64, 49
2, 139890, Control_c, 0, 64, 54
2, 139905, Control_c, 0, 64, 59
2, 139919, Control_c, 0, 64, 62
2, 139935, Control_c, 0, 64, 63
2, 139950, Control_c, 0, 64, 64
2, 139966, Control_c, 0, 64, 64
2, 139981, Control_c, 0, 64, 65
2, 139984, Note_on_c, 0, 61, 0
2, 139996, Control_c, 0, 64, 65
2, 140011, Control_c, 0, 64, 66
2, 140014, Note_on_c, 0, 60, 45
2, 140041, Control_c, 0, 64, 66
2, 140051, Note_on_c, 0, 77, 0
2, 140087, Control_c, 0, 64, 67
2, 140110, Control_c, 0, 67, 106
2, 140140, Control_c, 0, 67, 106
2, 140167, Note_on_c, 0, 60, 0
2, 140220, Note_on_c, 0, 58, 46
2, 140220, Note_on_c, 0, 70, 0
2, 140226, Note_on_c, 0, 79, 71
2, 140239, Note_on_c, 0, 73, 52
2, 140274, Control_c, 0, 67, 105
2, 140415, Note_on_c, 0, 61, 41
2, 140442, Note_on_c, 0, 58, 0
2, 140519, Control_c, 0, 67, 105
2, 140564, Control_c, 0, 64, 66
2, 140580, Control_c, 0, 64, 66
2, 140589, Note_on_c, 0, 61, 0
2, 140595, Control_c, 0, 64, 64
2, 140610, Control_c, 0, 64, 60
2, 140610, Note_on_c, 0, 60, 41
2, 140626, Control_c, 0, 64, 44
2, 140628, Note_on_c, 0, 75, 64
2, 140640, Control_c, 0, 64, 0
2, 140677, Note_on_c, 0, 73, 0
2, 140747, Control_c, 0, 64, 32
2, 140761, Control_c, 0, 64, 44
2, 140777, Control_c, 0, 64, 49
2, 140792, Control_c, 0, 64, 52
2, 140794, Note_on_c, 0, 79, 0
2, 140806, Note_on_c, 0, 61, 37
2, 140807, Control_c, 0, 64, 55
2, 140823, Control_c, 0, 64, 58
2, 140828, Note_on_c, 0, 60, 0
2, 140838, Control_c, 0, 64, 60
2, 140853, Control_c, 0, 64, 61
2, 140876, Control_c, 0, 64, 62
2, 140891, Control_c, 0, 64, 63
2, 140906, Control_c, 0, 64, 64
2, 140921, Control_c, 0, 64, 65
2, 140921, Control_c, 0, 67, 104
2, 140952, Control_c, 0, 64, 65
2, 140967, Control_c, 0, 64, 66
2, 141006, Note_on_c, 0, 61, 0
2, 141035, Note_on_c, 0, 63, 42
2, 141042, Note_on_c, 0, 67, 46
2, 141073, Control_c, 0, 64, 66
2, 141073, Control_c, 0, 67, 104
2, 141130, Note_on_c, 0, 67, 0
2, 141181, Control_c, 0, 67, 103
2, 141189, Note_on_c, 0, 61, 32
2, 141199, Note_on_c, 0, 63, 0
2, 141247, Note_on_c, 0, 75, 0
2, 141378, Control_c, 0, 64, 66
2, 141383, Note_on_c, 0, 61, 0
2, 141393, Control_c, 0, 64, 65
2, 141408, Control_c, 0, 64, 64
2, 141415, Note_on_c, 0, 60, 39
2, 141416, Note_on_c, 0, 75, 57
2, 141424, Control_c, 0, 64, 60
2, 141427, Note_on_c, 0, 69, 40
2, 141439, Control_c, 0, 64, 50
2, 141455, Control_c, 0, 64, 44
2, 141470, Control_c, 0, 64, 47
2, 141484, Control_c, 0, 64, 51
2, 141500, Control_c, 0, 64, 56
2, 141515, Control_c, 0, 64, 59
2, 141529, Control_c, 0, 64, 61
2, 141545, Control_c, 0, 64, 62
2, 141560, Control_c, 0, 64, 63
2, 141576, Control_c, 0, 64, 64
2, 141576, Control_c, 0, 67, 103
2, 141579, Note_on_c, 0, 60, 0
2, 141596, Note_on_c, 0, 58, 41
2, 141605, Control_c, 0, 64, 64
2, 141605, Control_c, 0, 67, 102
2, 141644, Control_c, 0, 64, 65
2, 141720, Control_c, 0, 67, 102
2, 141736, Control_c, 0, 67, 101
2, 141807, Note_on_c, 0, 69, 0
2, 141808, Note_on_c, 0, 58, 0
2, 141808, Note_on_c, 0, 75, 0
2, 141810, Note_on_c, 0, 77, 63
2, 141811, Control_c, 0, 67, 101
2, 141822, Note_on_c, 0, 57, 34
2, 141827, Note_on_c, 0, 72, 46
2, 141841, Control_c, 0, 67, 100
2, 141857, Control_c, 0, 67, 100
2, 141887, Control_c, 0, 67, 99
2, 141902, Control_c, 0, 64, 64
2, 141949, Control_c, 0, 67, 100
2, 141950, Note_on_c, 0, 57, 0
2, 141979, Control_c, 0, 64, 64
2, 142004, Note_on_c, 0, 60, 38
2, 142070, Control_c, 0, 64, 63
2, 142146, Control_c, 0, 64, 63
2, 142161, Control_c, 0, 64, 61
2, 142176, Control_c, 0, 64, 54
2, 142191, Control_c, 0, 64, 40
2, 142194, Note_on_c, 0, 60, 0
2, 142206, Control_c, 0, 64, 19
2, 142216, Note_on_c, 0, 58, 43
2, 142222, Control_c, 0, 64, 0
2, 142222, Control_c, 0, 67, 99
2, 142222, Note_on_c, 0, 72, 0
2, 142231, Note_on_c, 0, 73, 57
2, 142237, Control_c, 0, 64, 22
2, 142253, Control_c, 0, 64, 37
2, 142253, Control_c, 0, 67, 99
2, 142268, Control_c, 0, 64, 49
2, 142283, Control_c, 0, 64, 56
2, 142283, Control_c, 0, 67, 98
2, 142299, Control_c, 0, 64, 59
2, 142299, Control_c, 0, 67, 98
2, 142313, Control_c, 0, 64, 60
2, 142313, Control_c, 0, 67, 97
2, 142328, Control_c, 0, 64, 62
2, 142328, Control_c, 0, 67, 97
2, 142344, Control_c, 0, 64, 63
2, 142344, Control_c, 0, 67, 96
2, 142359, Control_c, 0, 64, 63
2, 142359, Control_c, 0, 67, 93
2, 142374, Control_c, 0, 64, 64
2, 142374, Control_c, 0, 67, 89
2, 142389, Control_c, 0, 64, 64
2, 142389, Control_c, 0, 67, 87
2, 142411, Control_c, 0, 67, 84
2, 142424, Note_on_c, 0, 58, 0
2, 142427, Control_c, 0, 67, 82
2, 142442, Control_c, 0, 64, 65
2, 142442, Control_c, 0, 67, 80
2, 142448, Note_on_c, 0, 60, 35
2, 142458, Control_c, 0, 67, 76
2, 142472, Control_c, 0, 64, 65
2, 142472, Control_c, 0, 67, 72
2, 142487, Control_c, 0, 64, 66
2, 142487, Control_c, 0, 67, 67
2, 142503, Control_c, 0, 67, 61
2, 142518, Control_c, 0, 67, 55
2, 142534, Control_c, 0, 64, 66
2, 142534, Control_c, 0, 67, 47
2, 142541, Note_on_c, 0, 77, 0
2, 142549, Control_c, 0, 64, 67
2, 142549, Control_c, 0, 67, 39
2, 142564, Control_c, 0, 64, 67
2, 142564, Control_c, 0, 67, 29
2, 142580, Control_c, 0, 67, 19
2, 142587, Note_on_c, 0, 60, 0
2, 142594, Control_c, 0, 64, 68
2, 142594, Control_c, 0, 67, 8
2, 142609, Control_c, 0, 64, 68
2, 142609, Control_c, 0, 67, 0
2, 142623, Note_on_c, 0, 65, 54
2, 142625, Control_c, 0, 64, 69
2, 142630, Note_on_c, 0, 61, 43
2, 142640, Control_c, 0, 64, 70
2, 142656, Control_c, 0, 64, 71
2, 142670, Control_c, 0, 64, 72
2, 142685, Control_c, 0, 64, 73
2, 142719, Note_on_c, 0, 65, 0
2, 142744, Note_on_c, 0, 73, 0
2, 142762, Note_on_c, 0, 61, 0
2, 142809, Note_on_c, 0, 60, 40
2, 143006, Note_on_c, 0, 60, 0
2, 143011, Note_on_c, 0, 73, 76
2, 143017, Note_on_c, 0, 58, 49
2, 143020, Note_on_c, 0, 70, 64
2, 143021, Control_c, 0, 64, 71
2, 143036, Control_c, 0, 64, 67
2, 143051, Control_c, 0, 64, 61
2, 143067, Control_c, 0, 64, 48
2, 143082, Control_c, 0, 64, 47
2, 143097, Control_c, 0, 64, 51
2, 143112, Control_c, 0, 64, 57
2, 143127, Control_c, 0, 64, 61
2, 143142, Control_c, 0, 64, 63
2, 143157, Control_c, 0, 64, 64
2, 143181, Control_c, 0, 64, 65
2, 143196, Control_c, 0, 64, 66
2, 143199, Note_on_c, 0, 58, 0
2, 143211, Control_c, 0, 64, 67
2, 143221, Note_on_c, 0, 56, 48
2, 143226, Control_c, 0, 64, 67
2, 143241, Control_c, 0, 64, 68
2, 143257, Control_c, 0, 64, 68
2, 143272, Control_c, 0, 64, 69
2, 143287, Control_c, 0, 64, 70
2, 143302, Control_c, 0, 64, 70
2, 143335, Note_on_c, 0, 70, 0
2, 143362, Control_c, 0, 64, 71
2, 143384, Note_on_c, 0, 56, 0
2, 143431, Note_on_c, 0, 55, 47
2, 143441, Note_on_c, 0, 82, 85
2, 143546, Control_c, 0, 64, 71
2, 143577, Control_c, 0, 64, 72
2, 143595, Note_on_c, 0, 82, 0
2, 143634, Note_on_c, 0, 58, 46
2, 143807, Note_on_c, 0, 55, 0
2, 143818, Control_c, 0, 64, 71
2, 143829, Note_on_c, 0, 72, 85
2, 143833, Control_c, 0, 64, 69
2, 143839, Note_on_c, 0, 56, 57
2, 143845, Note_on_c, 0, 58, 0
2, 143848, Control_c, 0, 64, 64
2, 143864, Control_c, 0, 64, 58
2, 143879, Control_c, 0, 64, 54
2, 143895, Control_c, 0, 64, 57
2, 143909, Control_c, 0, 64, 59
2, 143913, Note_on_c, 0, 73, 0
2, 143924, Control_c, 0, 64, 62
2, 143947, Control_c, 0, 64, 63
2, 143962, Control_c, 0, 64, 64
2, 143978, Control_c, 0, 64, 65
2, 143992, Control_c, 0, 64, 66
2, 144007, Control_c, 0, 64, 66
2, 144023, Control_c, 0, 64, 67
2, 144030, Note_on_c, 0, 56, 0
2, 144038, Control_c, 0, 64, 67
2, 144053, Note_on_c, 0, 55, 56
2, 144054, Control_c, 0, 64, 68
2, 144068, Control_c, 0, 64, 68
2, 144083, Control_c, 0, 64, 69
2, 144209, Note_on_c, 0, 73, 79
2, 144217, Note_on_c, 0, 55, 0
2, 144230, Note_on_c, 0, 53, 60
2, 144245, Note_on_c, 0, 72, 0
2, 144297, Control_c, 0, 64, 69
2, 144395, Note_on_c, 0, 70, 86
2, 144402, Note_on_c, 0, 51, 63
2, 144405, Note_on_c, 0, 53, 0
2, 144449, Control_c, 0, 64, 70
2, 144480, Control_c, 0, 64, 70
2, 144482, Note_on_c, 0, 73, 0
2, 144505, Note_on_c, 0, 70, 0
2, 144510, Control_c, 0, 64, 71
2, 144586, Control_c, 0, 64, 70
2, 144600, Note_on_c, 0, 49, 60
2, 144601, Control_c, 0, 64, 68
2, 144617, Control_c, 0, 64, 63
2, 144617, Note_on_c, 0, 72, 81
2, 144625, Note_on_c, 0, 68, 69
2, 144630, Note_on_c, 0, 51, 0
2, 144631, Control_c, 0, 64, 49
2, 144646, Control_c, 0, 64, 0
2, 144693, Control_c, 0, 64, 32
2, 144715, Control_c, 0, 64, 48
2, 144730, Control_c, 0, 64, 56
2, 144746, Control_c, 0, 64, 58
2, 144761, Control_c, 0, 64, 60
2, 144776, Control_c, 0, 64, 61
2, 144791, Control_c, 0, 64, 63
2, 144792, Note_on_c, 0, 53, 63
2, 144806, Control_c, 0, 64, 63
2, 144822, Control_c, 0, 64, 64
2, 144846, Note_on_c, 0, 49, 0
2, 144851, Control_c, 0, 64, 64
2, 144882, Control_c, 0, 64, 65
2, 144943, Control_c, 0, 64, 65
2, 144989, Control_c, 0, 64, 66
2, 144992, Note_on_c, 0, 80, 93
2, 145020, Control_c, 0, 64, 66
2, 145068, Note_on_c, 0, 72, 0
2, 145083, Note_on_c, 0, 80, 0
2, 145096, Control_c, 0, 64, 67
2, 145125, Control_c, 0, 64, 67
2, 145148, Note_on_c, 0, 51, 21
2, 145156, Control_c, 0, 64, 68
2, 145170, Control_c, 0, 64, 68
2, 145186, Control_c, 0, 64, 69
2, 145190, Note_on_c, 0, 51, 0
2, 145218, Control_c, 0, 64, 69
2, 145324, Control_c, 0, 64, 68
2, 145340, Control_c, 0, 64, 64
2, 145354, Control_c, 0, 64, 54
2, 145360, Note_on_c, 0, 70, 76
2, 145364, Note_on_c, 0, 51, 68
2, 145369, Control_c, 0, 64, 46
2, 145385, Control_c, 0, 64, 49
2, 145399, Control_c, 0, 64, 51
2, 145410, Note_on_c, 0, 53, 0
2, 145415, Control_c, 0, 64, 55
2, 145430, Control_c, 0, 64, 57
2, 145440, Note_on_c, 0, 68, 0
2, 145445, Control_c, 0, 64, 59
2, 145461, Control_c, 0, 64, 60
2, 145483, Control_c, 0, 64, 61
2, 145499, Control_c, 0, 64, 62
2, 145514, Control_c, 0, 64, 62
2, 145529, Control_c, 0, 64, 63
2, 145551, Note_on_c, 0, 49, 61
2, 145558, Note_on_c, 0, 51, 0
2, 145559, Control_c, 0, 64, 63
2, 145564, Note_on_c, 0, 67, 86
2, 145575, Control_c, 0, 64, 64
2, 145605, Control_c, 0, 64, 64
2, 145666, Control_c, 0, 64, 65
2, 145695, Note_on_c, 0, 49, 0
2, 145696, Control_c, 0, 64, 65
2, 145700, Note_on_c, 0, 70, 0
2, 145724, Note_on_c, 0, 48, 73
2, 145749, Note_on_c, 0, 68, 79
2, 145894, Note_on_c, 0, 67, 0
2, 145903, Note_on_c, 0, 46, 80
2, 145919, Note_on_c, 0, 70, 77
2, 145958, Note_on_c, 0, 48, 0
2, 145971, Note_on_c, 0, 68, 0
2, 146014, Note_on_c, 0, 70, 0
2, 146077, Control_c, 0, 64, 64
2, 146091, Control_c, 0, 64, 63
2, 146107, Control_c, 0, 64, 60
2, 146112, Note_on_c, 0, 44, 81
2, 146121, Control_c, 0, 64, 56
2, 146137, Control_c, 0, 64, 54
2, 146145, Note_on_c, 0, 72, 65
2, 146152, Control_c, 0, 64, 53
2, 146159, Note_on_c, 0, 46, 0
2, 146197, Control_c, 0, 64, 53
2, 146250, Control_c, 0, 64, 53
2, 146266, Control_c, 0, 64, 54
2, 146309, Note_on_c, 0, 75, 72
2, 146433, Control_c, 0, 64, 53
2, 146447, Control_c, 0, 64, 53
2, 146497, Note_on_c, 0, 51, 87
2, 146505, Note_on_c, 0, 77, 79
2, 146509, Control_c, 0, 64, 52
2, 146523, Control_c, 0, 64, 52
2, 146539, Control_c, 0, 64, 51
2, 146554, Control_c, 0, 64, 51
2, 146560, Note_on_c, 0, 75, 0
2, 146569, Control_c, 0, 64, 50
2, 146616, Control_c, 0, 64, 50
2, 146622, Note_on_c, 0, 44, 0
2, 146679, Note_on_c, 0, 79, 80
2, 146792, Note_on_c, 0, 77, 0
2, 146860, Control_c, 0, 64, 49
2, 146875, Control_c, 0, 64, 48
2, 146885, Note_on_c, 0, 48, 83
2, 146887, Note_on_c, 0, 80, 83
2, 146890, Control_c, 0, 64, 47
2, 146921, Control_c, 0, 64, 47
2, 146926, Note_on_c, 0, 79, 0
2, 146937, Control_c, 0, 64, 46
2, 146942, Note_on_c, 0, 51, 0
2, 146951, Control_c, 0, 64, 45
2, 147065, Control_c, 0, 64, 46
2, 147069, Note_on_c, 0, 72, 0
2, 147076, Note_on_c, 0, 73, 59
2, 147171, Control_c, 0, 64, 46
2, 147247, Control_c, 0, 64, 47
2, 147263, Control_c, 0, 64, 47
2, 147278, Control_c, 0, 64, 48
2, 147284, Note_on_c, 0, 73, 0
2, 147289, Note_on_c, 0, 44, 75
2, 147289, Note_on_c, 0, 75, 62
2, 147294, Control_c, 0, 64, 49
2, 147297, Note_on_c, 0, 48, 0
2, 147309, Control_c, 0, 64, 49
2, 147324, Control_c, 0, 64, 50
2, 147416, Control_c, 0, 64, 50
2, 147430, Control_c, 0, 64, 51
2, 147461, Control_c, 0, 64, 51
2, 147473, Note_on_c, 0, 72, 56
2, 147491, Control_c, 0, 64, 51
2, 147521, Control_c, 0, 64, 50
2, 147537, Control_c, 0, 64, 50
2, 147567, Control_c, 0, 64, 49
2, 147575, Note_on_c, 0, 75, 0
2, 147582, Control_c, 0, 64, 49
2, 147597, Control_c, 0, 64, 48
2, 147613, Control_c, 0, 64, 47
2, 147627, Control_c, 0, 64, 46
2, 147660, Control_c, 0, 64, 46
2, 147674, Control_c, 0, 64, 45
2, 147689, Control_c, 0, 64, 45
2, 147693, Note_on_c, 0, 53, 80
2, 147714, Note_on_c, 0, 73, 52
2, 147720, Control_c, 0, 64, 44
2, 147750, Control_c, 0, 64, 45
2, 147815, Note_on_c, 0, 72, 0
2, 147819, Control_c, 0, 64, 45
2, 147819, Control_c, 0, 67, 8
2, 147823, Note_on_c, 0, 80, 0
2, 147834, Control_c, 0, 64, 46
2, 147834, Control_c, 0, 67, 9
2, 147849, Control_c, 0, 64, 46
2, 147849, Control_c, 0, 67, 11
2, 147864, Control_c, 0, 64, 47
2, 147864, Control_c, 0, 67, 14
2, 147879, Control_c, 0, 64, 48
2, 147879, Control_c, 0, 67, 17
2, 147895, Control_c, 0, 64, 49
2, 147895, Control_c, 0, 67, 22
2, 147908, Note_on_c, 0, 79, 49
2, 147910, Control_c, 0, 64, 51
2, 147910, Control_c, 0, 67, 27
2, 147925, Control_c, 0, 64, 52
2, 147925, Control_c, 0, 67, 33
2, 147940, Control_c, 0, 64, 53
2, 147940, Control_c, 0, 67, 38
2, 147955, Control_c, 0, 64, 54
2, 147955, Control_c, 0, 67, 44
2, 147969, Note_on_c, 0, 73, 0
2, 147970, Control_c, 0, 67, 50
2, 147986, Control_c, 0, 67, 56
2, 148001, Control_c, 0, 67, 62
2, 148016, Control_c, 0, 67, 66
2, 148031, Control_c, 0, 64, 53
2, 148031, Control_c, 0, 67, 71
2, 148046, Control_c, 0, 67, 75
2, 148062, Control_c, 0, 67, 78
2, 148076, Control_c, 0, 67, 81
2, 148091, Control_c, 0, 67, 84
2, 148094, Note_on_c, 0, 53, 0
2, 148098, Note_on_c, 0, 49, 65
2, 148107, Control_c, 0, 67, 87
2, 148122, Control_c, 0, 67, 89
2, 148127, Note_on_c, 0, 77, 57
2, 148138, Control_c, 0, 67, 92
2, 148153, Control_c, 0, 67, 94
2, 148153, Note_on_c, 0, 44, 0
2, 148159, Note_on_c, 0, 79, 0
2, 148168, Control_c, 0, 64, 53
2, 148168, Control_c, 0, 67, 95
2, 148184, Control_c, 0, 67, 95
2, 148229, Control_c, 0, 64, 52
2, 148301, Note_on_c, 0, 80, 59
2, 148340, Note_on_c, 0, 77, 0
2, 148396, Control_c, 0, 64, 51
2, 148411, Control_c, 0, 64, 49
2, 148426, Control_c, 0, 64, 43
2, 148441, Control_c, 0, 64, 21
2, 148441, Control_c, 0, 67, 96
2, 148457, Control_c, 0, 64, 0
2, 148469, Note_on_c, 0, 80, 0
2, 148473, Control_c, 0, 67, 96
2, 148503, Control_c, 0, 67, 97
2, 148503, Note_on_c, 0, 51, 47
2, 148514, Note_on_c, 0, 73, 44
2, 148515, Note_on_c, 0, 79, 57
2, 148518, Control_c, 0, 67, 97
2, 148534, Control_c, 0, 67, 99
2, 148556, Control_c, 0, 67, 103
2, 148571, Control_c, 0, 67, 105
2, 148587, Control_c, 0, 67, 107
2, 148589, Note_on_c, 0, 49, 0
2, 148602, Control_c, 0, 67, 110
2, 148618, Control_c, 0, 64, 37
2, 148618, Control_c, 0, 67, 113
2, 148633, Control_c, 0, 64, 46
2, 148633, Control_c, 0, 67, 116
2, 148648, Control_c, 0, 64, 51
2, 148648, Control_c, 0, 67, 119
2, 148663, Control_c, 0, 64, 54
2, 148663, Control_c, 0, 67, 122
2, 148678, Control_c, 0, 64, 56
2, 148678, Control_c, 0, 67, 124
2, 148694, Control_c, 0, 64, 58
2, 148694, Control_c, 0, 67, 126
2, 148702, Note_on_c, 0, 73, 0
2, 148708, Control_c, 0, 64, 60
2, 148708, Control_c, 0, 67, 127
2, 148710, Note_on_c, 0, 72, 51
2, 148723, Control_c, 0, 64, 61
2, 148739, Control_c, 0, 64, 61
2, 148754, Control_c, 0, 64, 62
2, 148769, Control_c, 0, 64, 63
2, 148784, Control_c, 0, 64, 64
2, 148815, Control_c, 0, 64, 64
2, 148830, Control_c, 0, 64, 65
2, 148845, Control_c, 0, 64, 65
2, 148875, Control_c, 0, 64, 66
2, 148902, Note_on_c, 0, 70, 58
2, 148920, Control_c, 0, 64, 66
2, 148987, Note_on_c, 0, 72, 0
2, 149042, Note_on_c, 0, 51, 0
2, 149099, Note_on_c, 0, 73, 59
2, 149101, Note_on_c, 0, 70, 0
2, 149118, Control_c, 0, 64, 67
2, 149209, Control_c, 0, 64, 66
2, 149239, Control_c, 0, 64, 66
2, 149255, Control_c, 0, 64, 64
2, 149270, Control_c, 0, 64, 58
2, 149275, Note_on_c, 0, 72, 65
2, 149279, Note_on_c, 0, 55, 48
2, 149286, Control_c, 0, 64, 32
2, 149286, Note_on_c, 0, 73, 0
2, 149297, Note_on_c, 0, 52, 46
2, 149302, Control_c, 0, 64, 0
2, 149324, Control_c, 0, 67, 127
2, 149340, Control_c, 0, 67, 126
2, 149354, Control_c, 0, 67, 126
2, 149369, Control_c, 0, 64, 39
2, 149369, Control_c, 0, 67, 125
2, 149385, Control_c, 0, 64, 51
2, 149385, Control_c, 0, 67, 124
2, 149400, Control_c, 0, 64, 57
2, 149400, Control_c, 0, 67, 124
2, 149416, Control_c, 0, 64, 60
2, 149416, Control_c, 0, 67, 123
2, 149431, Control_c, 0, 64, 61
2, 149431, Control_c, 0, 67, 122
2, 149446, Control_c, 0, 64, 62
2, 149446, Control_c, 0, 67, 121
2, 149462, Control_c, 0, 64, 63
2, 149462, Control_c, 0, 67, 119
2, 149468, Note_on_c, 0, 58, 46
2, 149470, Note_on_c, 0, 55, 0
2, 149477, Control_c, 0, 64, 63
2, 149477, Control_c, 0, 67, 117
2, 149493, Control_c, 0, 67, 114
2, 149507, Control_c, 0, 64, 64
2, 149507, Control_c, 0, 67, 112
2, 149522, Control_c, 0, 67, 108
2, 149538, Control_c, 0, 67, 105
2, 149552, Control_c, 0, 67, 100
2, 149567, Control_c, 0, 67, 94
2, 149583, Control_c, 0, 67, 87
2, 149585, Note_on_c, 0, 79, 0
2, 149587, Note_on_c, 0, 52, 0
2, 149598, Control_c, 0, 67, 80
2, 149614, Control_c, 0, 67, 73
2, 149628, Control_c, 0, 67, 64
2, 149643, Control_c, 0, 67, 55
2, 149659, Control_c, 0, 67, 44
2, 149661, Note_on_c, 0, 58, 0
2, 149674, Control_c, 0, 67, 34
2, 149675, Note_on_c, 0, 60, 77
2, 149682, Note_on_c, 0, 56, 60
2, 149689, Control_c, 0, 67, 24
2, 149704, Control_c, 0, 67, 15
2, 149719, Control_c, 0, 67, 0
2, 149750, Control_c, 0, 64, 64
2, 149825, Control_c, 0, 64, 65
2, 149881, Note_on_c, 0, 55, 62
2, 149898, Note_on_c, 0, 56, 0
2, 149917, Control_c, 0, 64, 65
2, 149979, Control_c, 0, 64, 66
2, 150070, Control_c, 0, 64, 65
2, 150091, Control_c, 0, 64, 62
2, 150107, Control_c, 0, 64, 55
2, 150109, Note_on_c, 0, 56, 83
2, 150123, Control_c, 0, 64, 41
2, 150139, Control_c, 0, 64, 30
2, 150154, Control_c, 0, 64, 33
2, 150169, Control_c, 0, 64, 40
2, 150185, Control_c, 0, 64, 49
2, 150190, Note_on_c, 0, 55, 0
2, 150199, Control_c, 0, 64, 54
2, 150215, Control_c, 0, 64, 57
2, 150230, Control_c, 0, 64, 59
2, 150245, Control_c, 0, 64, 60
2, 150261, Control_c, 0, 64, 61
2, 150275, Control_c, 0, 64, 62
2, 150290, Control_c, 0, 64, 62
2, 150306, Control_c, 0, 64, 63
2, 150307, Note_on_c, 0, 70, 61
2, 150317, Note_on_c, 0, 72, 0
2, 150320, Control_c, 0, 64, 64
2, 150336, Control_c, 0, 64, 64
2, 150351, Control_c, 0, 64, 65
2, 150382, Control_c, 0, 64, 65
2, 150413, Control_c, 0, 64, 66
2, 150443, Control_c, 0, 64, 66
2, 150488, Control_c, 0, 64, 66
2, 150504, Control_c, 0, 64, 65
2, 150518, Note_on_c, 0, 53, 85
2, 150519, Control_c, 0, 64, 62
2, 150534, Control_c, 0, 64, 59
2, 150539, Note_on_c, 0, 68, 60
2, 150549, Control_c, 0, 64, 58
2, 150564, Control_c, 0, 64, 59
2, 150564, Note_on_c, 0, 70, 0
2, 150574, Note_on_c, 0, 56, 0
2, 150580, Control_c, 0, 64, 60
2, 150595, Control_c, 0, 64, 60
2, 150599, Note_on_c, 0, 60, 0
2, 150625, Control_c, 0, 64, 61
2, 150640, Control_c, 0, 64, 62
2, 150656, Control_c, 0, 64, 62
2, 150728, Note_on_c, 0, 67, 56
2, 150730, Control_c, 0, 64, 63
2, 150761, Control_c, 0, 64, 63
2, 150783, Note_on_c, 0, 68, 0
2, 150837, Control_c, 0, 64, 64
2, 150875, Control_c, 0, 64, 64
2, 150905, Control_c, 0, 64, 64
2, 150937, Control_c, 0, 64, 63
2, 150952, Control_c, 0, 64, 59
2, 150953, Note_on_c, 0, 62, 88
2, 150966, Control_c, 0, 64, 44
2, 150971, Note_on_c, 0, 68, 53
2, 150982, Control_c, 0, 64, 0
2, 151013, Control_c, 0, 64, 10
2, 151028, Control_c, 0, 64, 32
2, 151042, Control_c, 0, 64, 45
2, 151058, Control_c, 0, 64, 54
2, 151073, Control_c, 0, 64, 58
2, 151088, Control_c, 0, 64, 59
2, 151104, Control_c, 0, 64, 61
2, 151118, Control_c, 0, 64, 61
2, 151134, Control_c, 0, 64, 62
2, 151149, Control_c, 0, 64, 63
2, 151156, Note_on_c, 0, 72, 57
2, 151158, Note_on_c, 0, 68, 0
2, 151164, Control_c, 0, 64, 64
2, 151195, Control_c, 0, 64, 64
2, 151240, Control_c, 0, 64, 65
2, 151286, Control_c, 0, 64, 65
2, 151331, Control_c, 0, 64, 66
2, 151357, Note_on_c, 0, 59, 82
2, 151366, Note_on_c, 0, 77, 62
2, 151377, Control_c, 0, 64, 66
2, 151389, Note_on_c, 0, 72, 0
2, 151423, Control_c, 0, 64, 67
2, 151452, Control_c, 0, 64, 67
2, 151498, Control_c, 0, 64, 68
2, 151513, Note_on_c, 0, 67, 0
2, 151518, Note_on_c, 0, 62, 0
2, 151524, Note_on_c, 0, 53, 0
2, 151528, Control_c, 0, 64, 68
2, 151565, Note_on_c, 0, 68, 48
2, 151575, Control_c, 0, 64, 69
2, 151595, Note_on_c, 0, 59, 0
2, 151604, Control_c, 0, 64, 69
2, 151718, Control_c, 0, 64, 68
2, 151734, Control_c, 0, 64, 64
2, 151749, Control_c, 0, 64, 53
2, 151765, Control_c, 0, 64, 39
2, 151765, Note_on_c, 0, 60, 86
2, 151766, Note_on_c, 0, 67, 67
2, 151771, Note_on_c, 0, 68, 0
2, 151772, Note_on_c, 0, 48, 80
2, 151781, Control_c, 0, 64, 40
2, 151796, Control_c, 0, 64, 45
2, 151810, Control_c, 0, 64, 51
2, 151826, Control_c, 0, 64, 56
2, 151841, Control_c, 0, 64, 59
2, 151857, Control_c, 0, 64, 61
2, 151872, Control_c, 0, 64, 62
2, 151886, Control_c, 0, 64, 62
2, 151902, Control_c, 0, 64, 63
2, 151917, Control_c, 0, 64, 63
2, 151948, Control_c, 0, 64, 64
2, 151949, Note_on_c, 0, 51, 56
2, 151970, Note_on_c, 0, 75, 57
2, 151978, Control_c, 0, 64, 64
2, 151996, Note_on_c, 0, 60, 0
2, 152024, Control_c, 0, 64, 65
2, 152069, Control_c, 0, 64, 65
2, 152084, Control_c, 0, 64, 66
2, 152115, Control_c, 0, 64, 66
2, 152129, Control_c, 0, 64, 67
2, 152145, Control_c, 0, 64, 67
2, 152145, Note_on_c, 0, 53, 57
2, 152159, Note_on_c, 0, 51, 0
2, 152160, Control_c, 0, 64, 68
2, 152160, Note_on_c, 0, 74, 62
2, 152182, Note_on_c, 0, 77, 0
2, 152183, Note_on_c, 0, 75, 0
2, 152191, Control_c, 0, 64, 68
2, 152221, Control_c, 0, 64, 69
2, 152251, Control_c, 0, 64, 69
2, 152297, Control_c, 0, 64, 70
2, 152320, Note_on_c, 0, 53, 0
2, 152347, Note_on_c, 0, 77, 82
2, 152356, Note_on_c, 0, 55, 56
2, 152356, Note_on_c, 0, 74, 0
2, 152357, Control_c, 0, 64, 70
2, 152372, Control_c, 0, 64, 71
2, 152374, Note_on_c, 0, 67, 0
2, 152381, Note_on_c, 0, 77, 0
2, 152411, Control_c, 0, 64, 71
2, 152487, Control_c, 0, 64, 72
2, 152532, Control_c, 0, 64, 71
2, 152547, Control_c, 0, 64, 67
2, 152559, Note_on_c, 0, 56, 63
2, 152562, Control_c, 0, 64, 60
2, 152564, Note_on_c, 0, 75, 80
2, 152567, Note_on_c, 0, 55, 0
2, 152574, Note_on_c, 0, 63, 70
2, 152580, Control_c, 0, 64, 40
2, 152594, Control_c, 0, 64, 30
2, 152609, Control_c, 0, 64, 35
2, 152625, Control_c, 0, 64, 44
2, 152640, Control_c, 0, 64, 56
2, 152655, Control_c, 0, 64, 61
2, 152670, Control_c, 0, 64, 63
2, 152685, Control_c, 0, 64, 64
2, 152701, Control_c, 0, 64, 65
2, 152716, Control_c, 0, 64, 66
2, 152730, Control_c, 0, 64, 66
2, 152746, Control_c, 0, 64, 67
2, 152756, Note_on_c, 0, 58, 54
2, 152761, Control_c, 0, 64, 68
2, 152776, Control_c, 0, 64, 68
2, 152788, Note_on_c, 0, 48, 0
2, 152791, Control_c, 0, 64, 69
2, 152806, Control_c, 0, 64, 69
2, 152822, Control_c, 0, 64, 70
2, 152837, Control_c, 0, 64, 70
2, 152891, Note_on_c, 0, 75, 0
2, 152959, Note_on_c, 0, 60, 53
2, 152961, Note_on_c, 0, 58, 0
2, 152966, Note_on_c, 0, 68, 89
2, 153007, Note_on_c, 0, 56, 0
2, 153021, Control_c, 0, 64, 70
2, 153089, Note_on_c, 0, 60, 0
2, 153124, Note_on_c, 0, 58, 57
2, 153186, Note_on_c, 0, 58, 0
2, 153197, Note_on_c, 0, 63, 0
2, 153317, Control_c, 0, 64, 69
2, 153332, Control_c, 0, 64, 68
2, 153347, Control_c, 0, 64, 65
2, 153362, Control_c, 0, 64, 59
2, 153375, Note_on_c, 0, 65, 84
2, 153378, Control_c, 0, 64, 47
2, 153381, Note_on_c, 0, 49, 49
2, 153386, Note_on_c, 0, 56, 49
2, 153393, Control_c, 0, 64, 32
2, 153408, Control_c, 0, 64, 16
2, 153424, Control_c, 0, 64, 13
2, 153439, Control_c, 0, 64, 27
2, 153455, Control_c, 0, 64, 38
2, 153470, Control_c, 0, 64, 46
2, 153485, Control_c, 0, 64, 52
2, 153500, Control_c, 0, 64, 56
2, 153515, Control_c, 0, 64, 59
2, 153530, Control_c, 0, 64, 60
2, 153546, Control_c, 0, 64, 62
2, 153546, Control_c, 0, 67, 8
2, 153561, Control_c, 0, 64, 63
2, 153561, Control_c, 0, 67, 10
2, 153574, Note_on_c, 0, 55, 41
2, 153576, Control_c, 0, 64, 63
2, 153576, Control_c, 0, 67, 12
2, 153591, Control_c, 0, 64, 64
2, 153591, Control_c, 0, 67, 14
2, 153606, Control_c, 0, 64, 64
2, 153606, Control_c, 0, 67, 14
2, 153621, Control_c, 0, 64, 65
2, 153621, Control_c, 0, 67, 15
2, 153651, Control_c, 0, 64, 65
2, 153667, Control_c, 0, 67, 15
2, 153697, Control_c, 0, 64, 66
2, 153697, Control_c, 0, 67, 16
2, 153708, Note_on_c, 0, 56, 0
2, 153712, Control_c, 0, 67, 19
2, 153727, Control_c, 0, 67, 22
2, 153743, Control_c, 0, 64, 66
2, 153743, Control_c, 0, 67, 26
2, 153758, Control_c, 0, 67, 30
2, 153772, Control_c, 0, 67, 34
2, 153776, Note_on_c, 0, 55, 0
2, 153778, Note_on_c, 0, 61, 87
2, 153779, Note_on_c, 0, 53, 44
2, 153788, Control_c, 0, 67, 38
2, 153803, Control_c, 0, 64, 67
2, 153803, Control_c, 0, 67, 42
2, 153819, Control_c, 0, 67, 44
2, 153833, Control_c, 0, 67, 47
2, 153848, Control_c, 0, 67, 50
2, 153864, Control_c, 0, 67, 52
2, 153879, Control_c, 0, 67, 54
2, 153895, Control_c, 0, 67, 55
2, 153898, Note_on_c, 0, 68, 0
2, 153910, Control_c, 0, 67, 58
2, 153911, Note_on_c, 0, 65, 0
2, 153932, Control_c, 0, 67, 60
2, 153948, Control_c, 0, 67, 64
2, 153962, Control_c, 0, 67, 66
2, 153978, Control_c, 0, 67, 70
2, 153988, Note_on_c, 0, 55, 45
2, 153993, Control_c, 0, 64, 66
2, 153993, Control_c, 0, 67, 72
2, 154008, Control_c, 0, 67, 74
2, 154020, Note_on_c, 0, 53, 0
2, 154024, Control_c, 0, 67, 76
2, 154038, Control_c, 0, 64, 67
2, 154038, Control_c, 0, 67, 77
2, 154054, Control_c, 0, 67, 78
2, 154069, Control_c, 0, 67, 79
2, 154100, Control_c, 0, 67, 79
2, 154130, Control_c, 0, 64, 66
2, 154146, Control_c, 0, 64, 66
2, 154160, Control_c, 0, 64, 65
2, 154160, Control_c, 0, 67, 80
2, 154176, Control_c, 0, 64, 60
2, 154191, Control_c, 0, 64, 45
2, 154191, Control_c, 0, 67, 80
2, 154194, Note_on_c, 0, 55, 0
2, 154194, Note_on_c, 0, 56, 49
2, 154196, Note_on_c, 0, 70, 81
2, 154201, Note_on_c, 0, 73, 76
2, 154206, Control_c, 0, 64, 0
2, 154206, Control_c, 0, 67, 81
2, 154222, Control_c, 0, 67, 83
2, 154237, Control_c, 0, 67, 85
2, 154252, Control_c, 0, 67, 87
2, 154268, Control_c, 0, 64, 32
2, 154268, Control_c, 0, 67, 89
2, 154283, Control_c, 0, 64, 49
2, 154283, Control_c, 0, 67, 90
2, 154299, Control_c, 0, 64, 57
2, 154299, Control_c, 0, 67, 91
2, 154313, Control_c, 0, 64, 60
2, 154313, Control_c, 0, 67, 92
2, 154328, Control_c, 0, 64, 62
2, 154328, Control_c, 0, 67, 93
2, 154344, Control_c, 0, 64, 63
2, 154344, Control_c, 0, 67, 94
2, 154359, Control_c, 0, 64, 64
2, 154359, Control_c, 0, 67, 95
2, 154375, Control_c, 0, 64, 64
2, 154375, Control_c, 0, 67, 97
2, 154384, Note_on_c, 0, 55, 43
2, 154389, Control_c, 0, 64, 65
2, 154389, Control_c, 0, 67, 100
2, 154404, Control_c, 0, 64, 66
2, 154404, Control_c, 0, 67, 102
2, 154415, Note_on_c, 0, 61, 0
2, 154420, Control_c, 0, 64, 66
2, 154420, Control_c, 0, 67, 106
2, 154435, Control_c, 0, 64, 67
2, 154435, Control_c, 0, 67, 109
2, 154450, Control_c, 0, 64, 68
2, 154450, Control_c, 0, 67, 111
2, 154465, Control_c, 0, 64, 69
2, 154465, Control_c, 0, 67, 114
2, 154480, Control_c, 0, 64, 69
2, 154480, Control_c, 0, 67, 116
2, 154496, Control_c, 0, 64, 71
2, 154496, Control_c, 0, 67, 119
2, 154511, Control_c, 0, 64, 72
2, 154511, Control_c, 0, 67, 122
2, 154526, Control_c, 0, 64, 72
2, 154526, Control_c, 0, 67, 125
2, 154537, Note_on_c, 0, 56, 0
2, 154541, Control_c, 0, 67, 127
2, 154556, Control_c, 0, 67, 127
2, 154600, Note_on_c, 0, 67, 88
2, 154623, Note_on_c, 0, 53, 50
2, 154654, Note_on_c, 0, 55, 0
2, 154700, Note_on_c, 0, 49, 0
2, 154752, Note_on_c, 0, 53, 0
2, 154770, Note_on_c, 0, 51, 56
2, 154831, Note_on_c, 0, 51, 0
2, 154839, Note_on_c, 0, 67, 0
2, 154961, Note_on_c, 0, 73, 0
2, 154974, Control_c, 0, 64, 72
2, 154989, Control_c, 0, 64, 69
2, 155001, Note_on_c, 0, 68, 93
2, 155004, Control_c, 0, 64, 64
2, 155016, Note_on_c, 0, 70, 0
2, 155020, Control_c, 0, 64, 48
2, 155022, Note_on_c, 0, 44, 51
2, 155028, Note_on_c, 0, 53, 46
2, 155035, Control_c, 0, 64, 0
2, 155111, Control_c, 0, 64, 35
2, 155126, Control_c, 0, 64, 46
2, 155142, Control_c, 0, 64, 51
2, 155157, Control_c, 0, 64, 54
2, 155172, Control_c, 0, 64, 56
2, 155181, Note_on_c, 0, 53, 0
2, 155188, Control_c, 0, 64, 57
2, 155203, Control_c, 0, 64, 58
2, 155205, Note_on_c, 0, 72, 58
2, 155206, Note_on_c, 0, 51, 42
2, 155219, Control_c, 0, 64, 59
2, 155248, Control_c, 0, 64, 59
2, 155264, Control_c, 0, 64, 60
2, 155323, Note_on_c, 0, 51, 0
2, 155355, Control_c, 0, 64, 60
2, 155370, Control_c, 0, 64, 61
2, 155392, Note_on_c, 0, 49, 40
2, 155406, Note_on_c, 0, 70, 60
2, 155441, Note_on_c, 0, 72, 0
2, 155484, Control_c, 0, 64, 61
2, 155515, Control_c, 0, 64, 62
2, 155586, Note_on_c, 0, 73, 63
2, 155588, Note_on_c, 0, 49, 0
2, 155589, Note_on_c, 0, 70, 0
2, 155590, Control_c, 0, 64, 62
2, 155602, Note_on_c, 0, 53, 33
2, 155621, Control_c, 0, 64, 62
2, 155636, Control_c, 0, 64, 61
2, 155650, Control_c, 0, 64, 59
2, 155666, Control_c, 0, 64, 50
2, 155681, Control_c, 0, 64, 22
2, 155699, Control_c, 0, 64, 0
2, 155744, Control_c, 0, 64, 24
2, 155759, Control_c, 0, 64, 40
2, 155774, Control_c, 0, 64, 50
2, 155774, Note_on_c, 0, 73, 0
2, 155779, Note_on_c, 0, 44, 0
2, 155789, Control_c, 0, 64, 55
2, 155792, Note_on_c, 0, 72, 66
2, 155797, Note_on_c, 0, 51, 48
2, 155804, Control_c, 0, 64, 57
2, 155820, Control_c, 0, 64, 59
2, 155825, Note_on_c, 0, 53, 0
2, 155835, Control_c, 0, 64, 59
2, 155852, Control_c, 0, 64, 60
2, 155867, Control_c, 0, 64, 60
2, 155917, Note_on_c, 0, 51, 0
2, 155983, Note_on_c, 0, 41, 59
2, 156019, Control_c, 0, 64, 60
2, 156094, Control_c, 0, 64, 59
2, 156109, Control_c, 0, 64, 58
2, 156124, Control_c, 0, 64, 57
2, 156140, Control_c, 0, 64, 56
2, 156154, Control_c, 0, 64, 54
2, 156165, Note_on_c, 0, 77, 70
2, 156170, Control_c, 0, 64, 53
2, 156170, Note_on_c, 0, 43, 66
2, 156185, Control_c, 0, 64, 53
2, 156200, Control_c, 0, 64, 52
2, 156205, Note_on_c, 0, 72, 0
2, 156209, Note_on_c, 0, 41, 0
2, 156216, Control_c, 0, 64, 51
2, 156254, Control_c, 0, 64, 51
2, 156284, Control_c, 0, 64, 51
2, 156356, Note_on_c, 0, 44, 71
2, 156443, Note_on_c, 0, 43, 0
2, 156481, Control_c, 0, 64, 51
2, 156550, Note_on_c, 0, 46, 74
2, 156563, Note_on_c, 0, 73, 63
2, 156587, Control_c, 0, 64, 51
2, 156592, Note_on_c, 0, 68, 0
2, 156602, Control_c, 0, 64, 52
2, 156613, Note_on_c, 0, 44, 0
2, 156633, Control_c, 0, 64, 52
2, 156664, Control_c, 0, 64, 53
2, 156679, Control_c, 0, 64, 54
2, 156695, Control_c, 0, 64, 54
2, 156710, Control_c, 0, 64, 55
2, 156724, Control_c, 0, 64, 55
2, 156735, Note_on_c, 0, 46, 0
2, 156743, Note_on_c, 0, 48, 65
2, 156771, Control_c, 0, 64, 56
2, 156922, Control_c, 0, 64, 56
2, 156952, Note_on_c, 0, 48, 0
2, 156955, Note_on_c, 0, 49, 58
2, 156956, Note_on_c, 0, 70, 62
2, 156957, Note_on_c, 0, 77, 0
2, 157052, Control_c, 0, 64, 57
2, 157157, Note_on_c, 0, 49, 0
2, 157158, Control_c, 0, 64, 57
2, 157159, Note_on_c, 0, 51, 50
2, 157219, Control_c, 0, 64, 58
2, 157264, Control_c, 0, 64, 58
2, 157295, Control_c, 0, 64, 58
2, 157310, Control_c, 0, 64, 56
2, 157325, Control_c, 0, 64, 50
2, 157340, Control_c, 0, 64, 13
2, 157349, Note_on_c, 0, 51, 0
2, 157355, Control_c, 0, 64, 0
2, 157363, Note_on_c, 0, 49, 42
2, 157370, Note_on_c, 0, 78, 70
2, 157382, Note_on_c, 0, 73, 0
2, 157462, Control_c, 0, 64, 30
2, 157477, Control_c, 0, 64, 42
2, 157493, Control_c, 0, 64, 49
2, 157508, Control_c, 0, 64, 53
2, 157520, Note_on_c, 0, 49, 0
2, 157523, Control_c, 0, 64, 56
2, 157539, Control_c, 0, 64, 57
2, 157554, Control_c, 0, 64, 59
2, 157554, Note_on_c, 0, 48, 44
2, 157569, Control_c, 0, 64, 60
2, 157584, Control_c, 0, 64, 61
2, 157599, Control_c, 0, 64, 62
2, 157615, Control_c, 0, 64, 62
2, 157630, Control_c, 0, 64, 63
2, 157675, Control_c, 0, 64, 63
2, 157721, Control_c, 0, 64, 64
2, 157729, Note_on_c, 0, 48, 0
2, 157749, Note_on_c, 0, 46, 46
2, 157772, Note_on_c, 0, 72, 46
2, 157772, Note_on_c, 0, 75, 61
2, 157789, Control_c, 0, 64, 64
2, 157804, Control_c, 0, 64, 65
2, 157829, Note_on_c, 0, 78, 0
2, 157850, Control_c, 0, 64, 65
2, 157880, Control_c, 0, 64, 66
2, 157936, Note_on_c, 0, 46, 0
2, 157940, Note_on_c, 0, 44, 46
2, 158063, Control_c, 0, 64, 65
2, 158094, Control_c, 0, 64, 65
2, 158108, Control_c, 0, 64, 63
2, 158113, Note_on_c, 0, 72, 0
2, 158123, Control_c, 0, 64, 54
2, 158139, Control_c, 0, 64, 32
2, 158154, Control_c, 0, 64, 0
2, 158159, Note_on_c, 0, 44, 0
2, 158165, Note_on_c, 0, 77, 65
2, 158169, Note_on_c, 0, 49, 42
2, 158195, Note_on_c, 0, 75, 0
2, 158229, Control_c, 0, 64, 33
2, 158244, Control_c, 0, 64, 47
2, 158260, Control_c, 0, 64, 53
2, 158275, Control_c, 0, 64, 57
2, 158291, Control_c, 0, 64, 59
2, 158307, Control_c, 0, 64, 61
2, 158322, Control_c, 0, 64, 62
2, 158337, Control_c, 0, 64, 63
2, 158352, Control_c, 0, 64, 64
2, 158363, Note_on_c, 0, 49, 0
2, 158368, Control_c, 0, 64, 64
2, 158371, Note_on_c, 0, 48, 40
2, 158383, Control_c, 0, 64, 65
2, 158413, Control_c, 0, 64, 65
2, 158426, Control_c, 0, 64, 66
2, 158441, Control_c, 0, 64, 66
2, 158472, Control_c, 0, 64, 67
2, 158502, Control_c, 0, 64, 67
2, 158517, Control_c, 0, 67, 120
2, 158540, Control_c, 0, 64, 68
2, 158540, Control_c, 0, 67, 112
2, 158541, Note_on_c, 0, 48, 0
2, 158551, Note_on_c, 0, 49, 40
2, 158555, Control_c, 0, 67, 104
2, 158566, Note_on_c, 0, 73, 52
2, 158570, Control_c, 0, 67, 98
2, 158586, Control_c, 0, 67, 90
2, 158599, Note_on_c, 0, 77, 0
2, 158601, Control_c, 0, 64, 68
2, 158601, Control_c, 0, 67, 82
2, 158616, Control_c, 0, 67, 75
2, 158631, Control_c, 0, 67, 67
2, 158646, Control_c, 0, 67, 60
2, 158662, Control_c, 0, 64, 69
2, 158662, Control_c, 0, 67, 52
2, 158677, Control_c, 0, 67, 44
2, 158691, Control_c, 0, 67, 35
2, 158705, Note_on_c, 0, 49, 0
2, 158707, Control_c, 0, 67, 28
2, 158722, Control_c, 0, 67, 22
2, 158738, Control_c, 0, 67, 15
2, 158739, Note_on_c, 0, 53, 41
2, 158753, Control_c, 0, 67, 8
2, 158768, Control_c, 0, 67, 0
2, 158784, Control_c, 0, 64, 69
2, 158936, Control_c, 0, 64, 69
2, 158944, Note_on_c, 0, 51, 46
2, 158950, Control_c, 0, 64, 67
2, 158954, Note_on_c, 0, 80, 76
2, 158963, Control_c, 0, 64, 64
2, 158978, Control_c, 0, 64, 56
2, 158990, Note_on_c, 0, 53, 0
2, 158994, Control_c, 0, 64, 44
2, 159009, Control_c, 0, 64, 46
2, 159024, Control_c, 0, 64, 50
2, 159039, Control_c, 0, 64, 55
2, 159050, Note_on_c, 0, 73, 0
2, 159054, Control_c, 0, 64, 60
2, 159069, Control_c, 0, 64, 62
2, 159084, Control_c, 0, 64, 63
2, 159099, Control_c, 0, 64, 64
2, 159115, Control_c, 0, 64, 64
2, 159131, Control_c, 0, 64, 65
2, 159143, Note_on_c, 0, 51, 0
2, 159147, Control_c, 0, 64, 65
2, 159151, Note_on_c, 0, 50, 46
2, 159162, Control_c, 0, 64, 66
2, 159176, Control_c, 0, 64, 66
2, 159192, Control_c, 0, 64, 67
2, 159207, Control_c, 0, 64, 67
2, 159223, Control_c, 0, 64, 68
2, 159330, Note_on_c, 0, 50, 0
2, 159346, Note_on_c, 0, 77, 82
2, 159349, Note_on_c, 0, 74, 74
2, 159360, Note_on_c, 0, 48, 50
2, 159445, Note_on_c, 0, 80, 0
2, 159539, Note_on_c, 0, 46, 55
2, 159566, Note_on_c, 0, 48, 0
2, 159585, Note_on_c, 0, 70, 0
2, 159625, Control_c, 0, 64, 68
2, 159686, Control_c, 0, 64, 68
2, 159702, Control_c, 0, 64, 67
2, 159716, Control_c, 0, 64, 65
2, 159731, Control_c, 0, 64, 59
2, 159743, Note_on_c, 0, 51, 45
2, 159747, Control_c, 0, 64, 40
2, 159747, Note_on_c, 0, 79, 78
2, 159762, Control_c, 0, 64, 0
2, 159766, Note_on_c, 0, 46, 0
2, 159775, Note_on_c, 0, 70, 51
2, 159792, Note_on_c, 0, 74, 0
2, 159838, Control_c, 0, 64, 45
2, 159843, Note_on_c, 0, 77, 0
2, 159853, Control_c, 0, 64, 56
2, 159868, Control_c, 0, 64, 59
2, 159883, Control_c, 0, 64, 61
2, 159898, Control_c, 0, 64, 62
2, 159914, Control_c, 0, 64, 63
2, 159929, Control_c, 0, 64, 64
2, 159941, Note_on_c, 0, 51, 0
2, 159946, Control_c, 0, 64, 64
2, 159955, Note_on_c, 0, 50, 45
2, 159961, Control_c, 0, 64, 65
2, 159976, Control_c, 0, 64, 65
2, 159992, Control_c, 0, 64, 66
2, 160007, Control_c, 0, 64, 66
2, 160022, Control_c, 0, 64, 67
2, 160037, Control_c, 0, 64, 68
2, 160052, Control_c, 0, 64, 69
2, 160075, Control_c, 0, 64, 69
2, 160120, Control_c, 0, 64, 70
2, 160157, Note_on_c, 0, 50, 0
2, 160160, Note_on_c, 0, 75, 82
2, 160165, Note_on_c, 0, 51, 48
2, 160249, Note_on_c, 0, 79, 0
2, 160288, Note_on_c, 0, 70, 0
2, 160325, Note_on_c, 0, 51, 0
2, 160354, Note_on_c, 0, 55, 44
2, 160515, Control_c, 0, 64, 69
2, 160530, Control_c, 0, 64, 66
2, 160546, Control_c, 0, 64, 60
2, 160554, Note_on_c, 0, 82, 89
2, 160560, Control_c, 0, 64, 25
2, 160560, Note_on_c, 0, 53, 44
2, 160575, Control_c, 0, 64, 0
2, 160637, Control_c, 0, 64, 43
2, 160652, Control_c, 0, 64, 57
2, 160668, Control_c, 0, 64, 61
2, 160682, Control_c, 0, 64, 62
2, 160697, Control_c, 0, 64, 64
2, 160713, Control_c, 0, 64, 64
2, 160728, Control_c, 0, 64, 65
2, 160744, Control_c, 0, 64, 65
2, 160749, Note_on_c, 0, 53, 0
2, 160759, Control_c, 0, 64, 66
2, 160762, Note_on_c, 0, 52, 50
2, 160779, Note_on_c, 0, 75, 0
2, 160790, Control_c, 0, 64, 66
2, 160805, Control_c, 0, 64, 67
2, 160864, Note_on_c, 0, 55, 0
2, 160929, Note_on_c, 0, 82, 0
2, 160936, Note_on_c, 0, 52, 0
2, 160946, Note_on_c, 0, 79, 82
2, 160951, Note_on_c, 0, 76, 71
2, 160952, Note_on_c, 0, 72, 67
2, 160958, Note_on_c, 0, 50, 51
2, 161105, Note_on_c, 0, 50, 0
2, 161124, Note_on_c, 0, 76, 0
2, 161131, Note_on_c, 0, 48, 51
2, 161288, Note_on_c, 0, 79, 0
2, 161314, Control_c, 0, 64, 66
2, 161328, Control_c, 0, 64, 65
2, 161344, Control_c, 0, 64, 62
2, 161356, Note_on_c, 0, 53, 41
2, 161358, Note_on_c, 0, 80, 86
2, 161359, Control_c, 0, 64, 42
2, 161362, Note_on_c, 0, 77, 68
2, 161374, Control_c, 0, 64, 0
2, 161406, Note_on_c, 0, 72, 0
2, 161466, Control_c, 0, 64, 47
2, 161480, Control_c, 0, 64, 56
2, 161495, Control_c, 0, 64, 58
2, 161511, Control_c, 0, 64, 60
2, 161520, Note_on_c, 0, 53, 0
2, 161525, Control_c, 0, 64, 61
2, 161541, Control_c, 0, 64, 62
2, 161541, Note_on_c, 0, 48, 0
2, 161553, Note_on_c, 0, 55, 49
2, 161556, Control_c, 0, 64, 63
2, 161588, Control_c, 0, 64, 64
2, 161626, Control_c, 0, 64, 64
2, 161655, Control_c, 0, 64, 65
2, 161762, Note_on_c, 0, 56, 50
2, 161778, Note_on_c, 0, 72, 84
2, 161809, Note_on_c, 0, 55, 0
2, 161824, Control_c, 0, 64, 64
2, 161899, Control_c, 0, 64, 65
2, 161936, Note_on_c, 0, 53, 53
2, 161937, Note_on_c, 0, 56, 0
2, 161990, Control_c, 0, 64, 65
2, 162050, Control_c, 0, 64, 66
2, 162112, Control_c, 0, 64, 65
2, 162142, Control_c, 0, 64, 63
2, 162157, Control_c, 0, 64, 54
2, 162165, Note_on_c, 0, 73, 82
2, 162171, Control_c, 0, 64, 26
2, 162171, Note_on_c, 0, 58, 55
2, 162187, Control_c, 0, 64, 0
2, 162200, Note_on_c, 0, 72, 0
2, 162248, Control_c, 0, 64, 45
2, 162264, Control_c, 0, 64, 55
2, 162279, Control_c, 0, 64, 59
2, 162294, Control_c, 0, 64, 60
2, 162310, Control_c, 0, 64, 62
2, 162324, Control_c, 0, 64, 62
2, 162339, Control_c, 0, 64, 63
2, 162345, Note_on_c, 0, 58, 0
2, 162355, Control_c, 0, 64, 63
2, 162356, Note_on_c, 0, 56, 50
2, 162376, Note_on_c, 0, 53, 0
2, 162392, Control_c, 0, 64, 64
2, 162439, Control_c, 0, 64, 64
2, 162470, Control_c, 0, 64, 64
2, 162486, Note_on_c, 0, 77, 0
2, 162515, Control_c, 0, 64, 63
2, 162535, Note_on_c, 0, 80, 0
2, 162542, Note_on_c, 0, 56, 0
2, 162568, Note_on_c, 0, 55, 50
2, 162572, Note_on_c, 0, 70, 79
2, 162622, Control_c, 0, 64, 63
2, 162682, Control_c, 0, 64, 63
2, 162725, Note_on_c, 0, 55, 0
2, 162747, Note_on_c, 0, 53, 54
2, 162789, Control_c, 0, 64, 64
2, 162798, Note_on_c, 0, 70, 0
2, 162925, Control_c, 0, 64, 63
2, 162941, Control_c, 0, 64, 62
2, 162956, Control_c, 0, 64, 54
2, 162961, Note_on_c, 0, 51, 49
2, 162964, Note_on_c, 0, 53, 0
2, 162970, Control_c, 0, 64, 25
2, 162978, Note_on_c, 0, 67, 80
2, 162987, Control_c, 0, 64, 0
2, 163032, Control_c, 0, 64, 13
2, 163047, Control_c, 0, 64, 46
2, 163063, Control_c, 0, 64, 56
2, 163078, Control_c, 0, 64, 60
2, 163092, Control_c, 0, 64, 62
2, 163108, Control_c, 0, 64, 63
2, 163123, Control_c, 0, 64, 64
2, 163146, Control_c, 0, 64, 64
2, 163175, Note_on_c, 0, 51, 0
2, 163176, Control_c, 0, 64, 65
2, 163187, Note_on_c, 0, 49, 52
2, 163207, Control_c, 0, 64, 65
2, 163229, Note_on_c, 0, 73, 0
2, 163239, Control_c, 0, 64, 66
2, 163345, Control_c, 0, 64, 65
2, 163363, Note_on_c, 0, 49, 0
2, 163389, Note_on_c, 0, 48, 57
2, 163399, Note_on_c, 0, 75, 85
2, 163421, Control_c, 0, 64, 65
2, 163569, Note_on_c, 0, 46, 61
2, 163602, Control_c, 0, 64, 65
2, 163638, Note_on_c, 0, 48, 0
2, 163739, Control_c, 0, 64, 64
2, 163755, Control_c, 0, 64, 62
2, 163755, Note_on_c, 0, 75, 0
2, 163770, Control_c, 0, 64, 47
2, 163785, Control_c, 0, 64, 0
2, 163789, Note_on_c, 0, 72, 88
2, 163804, Note_on_c, 0, 44, 57
2, 163814, Note_on_c, 0, 46, 0
2, 163846, Control_c, 0, 64, 27
2, 163861, Control_c, 0, 64, 52
2, 163876, Control_c, 0, 64, 59
2, 163891, Control_c, 0, 64, 61
2, 163914, Control_c, 0, 64, 63
2, 163929, Control_c, 0, 64, 64
2, 163929, Note_on_c, 0, 67, 0
2, 163960, Control_c, 0, 64, 64
2, 163975, Control_c, 0, 64, 65
2, 163990, Control_c, 0, 64, 65
2, 164005, Control_c, 0, 64, 66
2, 164005, Note_on_c, 0, 46, 54
2, 164021, Control_c, 0, 64, 67
2, 164021, Note_on_c, 0, 44, 0
2, 164037, Control_c, 0, 64, 68
2, 164052, Control_c, 0, 64, 68
2, 164068, Control_c, 0, 64, 69
2, 164097, Control_c, 0, 64, 69
2, 164113, Control_c, 0, 64, 70
2, 164144, Control_c, 0, 64, 70
2, 164170, Note_on_c, 0, 46, 0
2, 164189, Control_c, 0, 64, 71
2, 164202, Note_on_c, 0, 48, 58
2, 164202, Note_on_c, 0, 77, 90
2, 164205, Note_on_c, 0, 68, 76
2, 164210, Note_on_c, 0, 72, 0
2, 164214, Note_on_c, 0, 65, 69
2, 164286, Note_on_c, 0, 68, 0
2, 164290, Note_on_c, 0, 77, 0
2, 164312, Control_c, 0, 64, 71
2, 164401, Note_on_c, 0, 49, 68
2, 164412, Note_on_c, 0, 65, 0
2, 164445, Note_on_c, 0, 48, 0
2, 164586, Control_c, 0, 64, 69
2, 164601, Control_c, 0, 64, 62
2, 164614, Note_on_c, 0, 72, 87
2, 164616, Note_on_c, 0, 68, 64
2, 164617, Control_c, 0, 64, 36
2, 164623, Note_on_c, 0, 51, 66
2, 164629, Note_on_c, 0, 63, 81
2, 164631, Control_c, 0, 64, 0
2, 164664, Note_on_c, 0, 49, 0
2, 164729, Control_c, 0, 64, 32
2, 164745, Control_c, 0, 64, 46
2, 164760, Control_c, 0, 64, 51
2, 164776, Control_c, 0, 64, 55
2, 164791, Control_c, 0, 64, 58
2, 164806, Control_c, 0, 64, 60
2, 164822, Control_c, 0, 64, 62
2, 164836, Control_c, 0, 64, 63
2, 164851, Control_c, 0, 64, 64
2, 164857, Note_on_c, 0, 49, 66
2, 164882, Control_c, 0, 64, 64
2, 164883, Note_on_c, 0, 51, 0
2, 164928, Control_c, 0, 64, 65
2, 165044, Note_on_c, 0, 48, 80
2, 165058, Note_on_c, 0, 49, 0
2, 165080, Control_c, 0, 64, 64
2, 165170, Note_on_c, 0, 68, 0
2, 165234, Note_on_c, 0, 49, 85
2, 165243, Note_on_c, 0, 63, 0
2, 165289, Note_on_c, 0, 48, 0
2, 165398, Control_c, 0, 64, 63
2, 165414, Control_c, 0, 64, 59
2, 165429, Control_c, 0, 64, 44
2, 165451, Control_c, 0, 64, 0
2, 165464, Note_on_c, 0, 51, 80
2, 165471, Note_on_c, 0, 70, 90
2, 165482, Note_on_c, 0, 61, 74
2, 165508, Note_on_c, 0, 49, 0
2, 165523, Note_on_c, 0, 72, 0
2, 165654, Control_c, 0, 64, 36
2, 165669, Control_c, 0, 64, 47
2, 165685, Control_c, 0, 64, 51
2, 165700, Control_c, 0, 64, 53
2, 165715, Control_c, 0, 64, 54
2, 165731, Control_c, 0, 64, 56
2, 165746, Control_c, 0, 64, 57
2, 165762, Control_c, 0, 64, 58
2, 165777, Control_c, 0, 64, 58
2, 165791, Control_c, 0, 64, 59
2, 165807, Control_c, 0, 64, 60
2, 165822, Control_c, 0, 64, 60
2, 165837, Control_c, 0, 64, 61
2, 165883, Control_c, 0, 64, 60
2, 165898, Control_c, 0, 64, 55
2, 165912, Control_c, 0, 64, 34
2, 165925, Control_c, 0, 64, 0
2, 165939, Note_on_c, 0, 39, 74
2, 165948, Note_on_c, 0, 67, 81
2, 166047, Control_c, 0, 64, 39
2, 166062, Control_c, 0, 64, 46
2, 166077, Control_c, 0, 64, 50
2, 166093, Control_c, 0, 64, 53
2, 166108, Control_c, 0, 64, 57
2, 166123, Control_c, 0, 64, 59
2, 166139, Control_c, 0, 64, 60
2, 166151, Note_on_c, 0, 51, 0
2, 166154, Control_c, 0, 64, 61
2, 166169, Control_c, 0, 64, 61
2, 166184, Control_c, 0, 64, 62
2, 166192, Note_on_c, 0, 67, 0
2, 166199, Control_c, 0, 64, 63
2, 166222, Control_c, 0, 64, 63
2, 166313, Control_c, 0, 64, 64
2, 166328, Control_c, 0, 64, 64
2, 166358, Control_c, 0, 64, 65
2, 166389, Control_c, 0, 64, 65
2, 166389, Note_on_c, 0, 61, 0
2, 166396, Note_on_c, 0, 39, 0
2, 166426, Note_on_c, 0, 41, 67
2, 166435, Control_c, 0, 64, 65
2, 166457, Note_on_c, 0, 65, 83
2, 166464, Note_on_c, 0, 60, 78
2, 166465, Control_c, 0, 64, 64
2, 166480, Control_c, 0, 64, 56
2, 166496, Control_c, 0, 64, 0
2, 166633, Control_c, 0, 64, 41
2, 166633, Control_c, 0, 67, 8
2, 166649, Control_c, 0, 64, 50
2, 166649, Control_c, 0, 67, 11
2, 166664, Control_c, 0, 64, 54
2, 166664, Control_c, 0, 67, 14
2, 166678, Control_c, 0, 64, 56
2, 166678, Control_c, 0, 67, 18
2, 166694, Control_c, 0, 64, 59
2, 166694, Control_c, 0, 67, 21
2, 166709, Control_c, 0, 64, 61
2, 166709, Control_c, 0, 67, 24
2, 166724, Control_c, 0, 64, 62
2, 166724, Control_c, 0, 67, 27
2, 166740, Control_c, 0, 64, 63
2, 166740, Control_c, 0, 67, 29
2, 166754, Control_c, 0, 67, 31
2, 166770, Control_c, 0, 67, 32
2, 166785, Control_c, 0, 64, 64
2, 166785, Control_c, 0, 67, 33
2, 166800, Control_c, 0, 67, 34
2, 166816, Control_c, 0, 64, 64
2, 166816, Control_c, 0, 67, 36
2, 166830, Note_on_c, 0, 65, 0
2, 166831, Control_c, 0, 67, 37
2, 166847, Control_c, 0, 67, 37
2, 166862, Control_c, 0, 67, 38
2, 166918, Note_on_c, 0, 68, 86
2, 166922, Control_c, 0, 67, 38
2, 167007, Control_c, 0, 64, 65
2, 167007, Control_c, 0, 67, 38
2, 167014, Note_on_c, 0, 60, 0
2, 167037, Control_c, 0, 64, 64
2, 167037, Control_c, 0, 67, 37
2, 167065, Note_on_c, 0, 41, 0
2, 167067, Control_c, 0, 64, 64
2, 167097, Control_c, 0, 64, 63
2, 167097, Control_c, 0, 67, 37
2, 167107, Note_on_c, 0, 67, 88
2, 167110, Note_on_c, 0, 70, 0
2, 167128, Control_c, 0, 64, 63
2, 167143, Control_c, 0, 64, 62
2, 167158, Control_c, 0, 64, 61
2, 167173, Control_c, 0, 64, 60
2, 167178, Note_on_c, 0, 68, 0
2, 167188, Control_c, 0, 64, 59
2, 167203, Control_c, 0, 64, 56
2, 167218, Control_c, 0, 64, 52
2, 167218, Control_c, 0, 67, 36
2, 167233, Control_c, 0, 64, 49
2, 167249, Control_c, 0, 64, 51
2, 167264, Control_c, 0, 64, 54
2, 167279, Control_c, 0, 64, 57
2, 167279, Control_c, 0, 67, 36
2, 167294, Control_c, 0, 64, 60
2, 167306, Note_on_c, 0, 68, 90
2, 167309, Control_c, 0, 64, 62
2, 167309, Control_c, 0, 67, 35
2, 167325, Control_c, 0, 64, 63
2, 167325, Control_c, 0, 67, 35
2, 167341, Control_c, 0, 64, 64
2, 167341, Control_c, 0, 67, 34
2, 167356, Control_c, 0, 64, 64
2, 167356, Control_c, 0, 67, 33
2, 167372, Control_c, 0, 67, 32
2, 167387, Control_c, 0, 64, 65
2, 167387, Control_c, 0, 67, 31
2, 167398, Note_on_c, 0, 67, 0
2, 167401, Control_c, 0, 67, 30
2, 167417, Control_c, 0, 67, 30
2, 167432, Control_c, 0, 64, 65
2, 167432, Control_c, 0, 67, 29
2, 167448, Control_c, 0, 67, 29
2, 167463, Control_c, 0, 67, 28
2, 167477, Control_c, 0, 67, 28
2, 167495, Note_on_c, 0, 39, 72
2, 167508, Control_c, 0, 67, 27
2, 167519, Note_on_c, 0, 68, 0
2, 167523, Control_c, 0, 67, 27
2, 167539, Control_c, 0, 64, 66
2, 167585, Control_c, 0, 67, 26
2, 167615, Control_c, 0, 67, 26
2, 167645, Control_c, 0, 67, 25
2, 167706, Control_c, 0, 64, 65
2, 167716, Note_on_c, 0, 70, 80
2, 167717, Note_on_c, 0, 41, 71
2, 167719, Note_on_c, 0, 75, 86
2, 167720, Note_on_c, 0, 63, 80
2, 167721, Control_c, 0, 64, 64
2, 167736, Control_c, 0, 64, 58
2, 167736, Control_c, 0, 67, 24
2, 167758, Control_c, 0, 64, 26
2, 167774, Control_c, 0, 64, 0
2, 167774, Control_c, 0, 67, 23
2, 167786, Note_on_c, 0, 39, 0
2, 167820, Control_c, 0, 67, 23
2, 167835, Control_c, 0, 64, 28
2, 167835, Control_c, 0, 67, 22
2, 167851, Control_c, 0, 64, 52
2, 167865, Control_c, 0, 64, 57
2, 167880, Control_c, 0, 64, 59
2, 167880, Control_c, 0, 67, 22
2, 167896, Control_c, 0, 64, 61
2, 167897, Note_on_c, 0, 41, 0
2, 167904, Note_on_c, 0, 43, 76
2, 167911, Control_c, 0, 64, 62
2, 167927, Control_c, 0, 64, 63
2, 167941, Control_c, 0, 64, 64
2, 167941, Control_c, 0, 67, 21
2, 167972, Control_c, 0, 64, 65
2, 167987, Control_c, 0, 64, 65
2, 168002, Control_c, 0, 67, 21
2, 168003, Note_on_c, 0, 70, 0
2, 168017, Control_c, 0, 64, 66
2, 168032, Control_c, 0, 67, 20
2, 168048, Control_c, 0, 67, 20
2, 168062, Control_c, 0, 67, 18
2, 168077, Control_c, 0, 64, 65
2, 168077, Control_c, 0, 67, 16
2, 168093, Control_c, 0, 64, 64
2, 168093, Control_c, 0, 67, 15
2, 168108, Control_c, 0, 64, 60
2, 168108, Control_c, 0, 67, 14
2, 168116, Note_on_c, 0, 44, 84
2, 168118, Note_on_c, 0, 72, 79
2, 168123, Control_c, 0, 64, 38
2, 168123, Control_c, 0, 67, 13
2, 168140, Control_c, 0, 64, 0
2, 168140, Control_c, 0, 67, 10
2, 168140, Note_on_c, 0, 43, 0
2, 168155, Control_c, 0, 67, 0
2, 168231, Control_c, 0, 64, 41
2, 168245, Control_c, 0, 64, 53
2, 168261, Control_c, 0, 64, 58
2, 168276, Control_c, 0, 64, 61
2, 168291, Control_c, 0, 64, 62
2, 168306, Control_c, 0, 64, 63
2, 168312, Note_on_c, 0, 46, 85
2, 168312, Note_on_c, 0, 63, 0
2, 168321, Control_c, 0, 64, 63
2, 168337, Control_c, 0, 64, 64
2, 168352, Control_c, 0, 64, 64
2, 168368, Control_c, 0, 64, 65
2, 168383, Control_c, 0, 64, 65
2, 168392, Note_on_c, 0, 44, 0
2, 168478, Note_on_c, 0, 75, 0
2, 168502, Control_c, 0, 64, 65
2, 168508, Note_on_c, 0, 48, 80
2, 168525, Note_on_c, 0, 46, 0
2, 168531, Note_on_c, 0, 68, 95
2, 168571, Note_on_c, 0, 72, 0
2, 168692, Control_c, 0, 64, 65
2, 168711, Note_on_c, 0, 51, 80
2, 168759, Note_on_c, 0, 48, 0
2, 168859, Control_c, 0, 64, 65
2, 168874, Control_c, 0, 64, 64
2, 168889, Control_c, 0, 64, 57
2, 168904, Control_c, 0, 64, 22
2, 168919, Control_c, 0, 64, 0
2, 168919, Note_on_c, 0, 49, 66
2, 168921, Note_on_c, 0, 77, 94
2, 168954, Note_on_c, 0, 51, 0
2, 169011, Control_c, 0, 64, 35
2, 169027, Control_c, 0, 64, 50
2, 169042, Control_c, 0, 64, 54
2, 169043, Note_on_c, 0, 68, 0
2, 169058, Control_c, 0, 64, 57
2, 169073, Control_c, 0, 64, 59
2, 169087, Control_c, 0, 64, 60
2, 169103, Control_c, 0, 64, 61
2, 169118, Control_c, 0, 64, 62
2, 169125, Note_on_c, 0, 49, 0
2, 169127, Note_on_c, 0, 48, 60
2, 169131, Control_c, 0, 64, 63
2, 169147, Control_c, 0, 64, 63
2, 169162, Control_c, 0, 64, 64
2, 169193, Control_c, 0, 64, 64
2, 169207, Control_c, 0, 64, 65
2, 169238, Control_c, 0, 64, 65
2, 169307, Control_c, 0, 64, 64
2, 169322, Control_c, 0, 64, 60
2, 169338, Control_c, 0, 64, 45
2, 169341, Note_on_c, 0, 73, 88
2, 169344, Note_on_c, 0, 65, 78
2, 169349, Note_on_c, 0, 70, 78
2, 169352, Control_c, 0, 64, 0
2, 169352, Note_on_c, 0, 46, 63
2, 169353, Note_on_c, 0, 48, 0
2, 169383, Note_on_c, 0, 77, 0
2, 169414, Control_c, 0, 64, 43
2, 169428, Control_c, 0, 64, 53
2, 169443, Control_c, 0, 64, 57
2, 169459, Control_c, 0, 64, 59
2, 169474, Control_c, 0, 64, 61
2, 169489, Control_c, 0, 64, 62
2, 169504, Control_c, 0, 64, 62
2, 169535, Control_c, 0, 64, 63
2, 169549, Control_c, 0, 64, 63
2, 169554, Note_on_c, 0, 44, 55
2, 169571, Note_on_c, 0, 46, 0
2, 169580, Control_c, 0, 64, 64
2, 169610, Control_c, 0, 64, 64
2, 169701, Control_c, 0, 64, 63
2, 169716, Control_c, 0, 64, 58
2, 169731, Control_c, 0, 64, 26
2, 169740, Note_on_c, 0, 44, 0
2, 169747, Control_c, 0, 64, 0
2, 169761, Note_on_c, 0, 43, 56
2, 169768, Note_on_c, 0, 75, 88
2, 169785, Note_on_c, 0, 70, 0
2, 169788, Note_on_c, 0, 73, 0
2, 169839, Control_c, 0, 64, 41
2, 169854, Control_c, 0, 64, 52
2, 169869, Control_c, 0, 64, 55
2, 169884, Control_c, 0, 64, 57
2, 169901, Control_c, 0, 64, 59
2, 169916, Control_c, 0, 64, 61
2, 169930, Control_c, 0, 64, 63
2, 169946, Control_c, 0, 64, 63
2, 169961, Control_c, 0, 64, 64
2, 169974, Note_on_c, 0, 41, 55
2, 169977, Control_c, 0, 64, 64
2, 169992, Control_c, 0, 64, 65
2, 170006, Control_c, 0, 64, 65
2, 170009, Note_on_c, 0, 43, 0
2, 170022, Control_c, 0, 64, 66
2, 170037, Control_c, 0, 64, 66
2, 170060, Control_c, 0, 64, 67
2, 170075, Control_c, 0, 64, 67
2, 170090, Control_c, 0, 64, 68
2, 170106, Control_c, 0, 67, 8
2, 170121, Control_c, 0, 67, 9
2, 170136, Control_c, 0, 64, 67
2, 170136, Control_c, 0, 67, 10
2, 170151, Control_c, 0, 64, 64
2, 170151, Control_c, 0, 67, 12
2, 170166, Control_c, 0, 64, 52
2, 170166, Control_c, 0, 67, 14
2, 170181, Control_c, 0, 64, 0
2, 170181, Control_c, 0, 67, 16
2, 170196, Control_c, 0, 67, 18
2, 170202, Note_on_c, 0, 67, 77
2, 170206, Note_on_c, 0, 39, 53
2, 170211, Control_c, 0, 67, 22
2, 170212, Note_on_c, 0, 41, 0
2, 170227, Control_c, 0, 67, 26
2, 170242, Control_c, 0, 67, 30
2, 170257, Note_on_c, 0, 65, 0
2, 170258, Control_c, 0, 64, 52
2, 170258, Control_c, 0, 67, 35
2, 170273, Control_c, 0, 64, 60
2, 170273, Control_c, 0, 67, 39
2, 170288, Control_c, 0, 64, 62
2, 170288, Control_c, 0, 67, 42
2, 170288, Note_on_c, 0, 75, 0
2, 170304, Control_c, 0, 64, 63
2, 170304, Control_c, 0, 67, 44
2, 170318, Control_c, 0, 64, 64
2, 170318, Control_c, 0, 67, 46
2, 170334, Control_c, 0, 64, 64
2, 170334, Control_c, 0, 67, 48
2, 170349, Control_c, 0, 64, 65
2, 170349, Control_c, 0, 67, 50
2, 170364, Control_c, 0, 64, 66
2, 170364, Control_c, 0, 67, 52
2, 170380, Control_c, 0, 64, 67
2, 170380, Control_c, 0, 67, 55
2, 170386, Note_on_c, 0, 39, 0
2, 170394, Control_c, 0, 64, 67
2, 170394, Control_c, 0, 67, 58
2, 170404, Note_on_c, 0, 37, 50
2, 170409, Control_c, 0, 64, 68
2, 170409, Control_c, 0, 67, 61
2, 170425, Control_c, 0, 64, 69
2, 170425, Control_c, 0, 67, 64
2, 170437, Note_on_c, 0, 67, 0
2, 170440, Control_c, 0, 64, 69
2, 170440, Control_c, 0, 67, 65
2, 170456, Control_c, 0, 67, 66
2, 170470, Control_c, 0, 67, 67
2, 170485, Control_c, 0, 64, 70
2, 170485, Control_c, 0, 67, 68
2, 170501, Control_c, 0, 67, 70
2, 170515, Control_c, 0, 64, 70
2, 170515, Control_c, 0, 67, 73
2, 170530, Control_c, 0, 67, 76
2, 170546, Control_c, 0, 67, 78
2, 170561, Control_c, 0, 67, 79
2, 170619, Note_on_c, 0, 37, 0
2, 170623, Control_c, 0, 64, 69
2, 170623, Control_c, 0, 67, 80
2, 170638, Control_c, 0, 64, 65
2, 170638, Control_c, 0, 67, 80
2, 170648, Note_on_c, 0, 36, 50
2, 170651, Note_on_c, 0, 68, 81
2, 170654, Control_c, 0, 64, 54
2, 170654, Control_c, 0, 67, 81
2, 170669, Control_c, 0, 64, 13
2, 170669, Control_c, 0, 67, 83
2, 170684, Control_c, 0, 64, 0
2, 170684, Control_c, 0, 67, 84
2, 170729, Control_c, 0, 64, 13
2, 170744, Control_c, 0, 64, 42
2, 170759, Control_c, 0, 64, 51
2, 170775, Control_c, 0, 64, 55
2, 170790, Control_c, 0, 64, 58
2, 170805, Control_c, 0, 64, 60
2, 170828, Control_c, 0, 64, 61
2, 170843, Control_c, 0, 64, 62
2, 170859, Control_c, 0, 64, 62
2, 170874, Control_c, 0, 64, 63
2, 170874, Control_c, 0, 67, 83
2, 170878, Note_on_c, 0, 39, 45
2, 170889, Control_c, 0, 64, 63
2, 170904, Control_c, 0, 64, 64
2, 170935, Control_c, 0, 64, 64
2, 170935, Control_c, 0, 67, 84
2, 170944, Note_on_c, 0, 36, 0
2, 170980, Control_c, 0, 64, 65
2, 171040, Control_c, 0, 67, 84
2, 171056, Control_c, 0, 64, 64
2, 171056, Control_c, 0, 67, 85
2, 171071, Control_c, 0, 67, 85
2, 171086, Control_c, 0, 64, 63
2, 171086, Control_c, 0, 67, 86
2, 171102, Control_c, 0, 64, 57
2, 171117, Control_c, 0, 64, 34
2, 171117, Control_c, 0, 67, 88
2, 171118, Note_on_c, 0, 39, 0
2, 171126, Note_on_c, 0, 37, 45
2, 171131, Control_c, 0, 64, 0
2, 171131, Control_c, 0, 67, 91
2, 171131, Note_on_c, 0, 58, 61
2, 171131, Note_on_c, 0, 65, 71
2, 171147, Control_c, 0, 67, 94
2, 171162, Control_c, 0, 67, 97
2, 171178, Control_c, 0, 67, 101
2, 171193, Control_c, 0, 67, 105
2, 171208, Control_c, 0, 67, 109
2, 171224, Control_c, 0, 64, 27
2, 171224, Control_c, 0, 67, 113
2, 171238, Control_c, 0, 64, 48
2, 171238, Control_c, 0, 67, 117
2, 171254, Control_c, 0, 64, 53
2, 171254, Control_c, 0, 67, 121
2, 171269, Control_c, 0, 64, 57
2, 171269, Control_c, 0, 67, 123
2, 171284, Control_c, 0, 64, 60
2, 171284, Control_c, 0, 67, 126
2, 171300, Control_c, 0, 64, 62
2, 171300, Control_c, 0, 67, 127
2, 171314, Control_c, 0, 64, 63
2, 171329, Control_c, 0, 64, 64
2, 171345, Control_c, 0, 64, 65
2, 171359, Control_c, 0, 64, 67
2, 171375, Control_c, 0, 64, 68
2, 171390, Control_c, 0, 64, 69
2, 171390, Note_on_c, 0, 41, 52
2, 171405, Control_c, 0, 64, 70
2, 171416, Note_on_c, 0, 58, 0
2, 171422, Control_c, 0, 64, 71
2, 171427, Note_on_c, 0, 37, 0
2, 171437, Control_c, 0, 64, 72
2, 171452, Control_c, 0, 64, 72
2, 171465, Note_on_c, 0, 41, 0
2, 171467, Control_c, 0, 64, 73
2, 171687, Control_c, 0, 64, 72
2, 171703, Control_c, 0, 64, 71
2, 171708, Note_on_c, 0, 39, 44
2, 171718, Control_c, 0, 64, 69
2, 171734, Control_c, 0, 64, 65
2, 171742, Note_on_c, 0, 58, 74
2, 171748, Control_c, 0, 64, 58
2, 171763, Control_c, 0, 64, 31
2, 171779, Control_c, 0, 64, 0
2, 171811, Note_on_c, 0, 65, 0
2, 172012, Note_on_c, 0, 60, 66
2, 172063, Control_c, 0, 64, 18
2, 172078, Control_c, 0, 64, 30
2, 172093, Control_c, 0, 64, 39
2, 172109, Control_c, 0, 64, 45
2, 172122, Note_on_c, 0, 58, 0
2, 172123, Control_c, 0, 64, 49
2, 172138, Control_c, 0, 64, 52
2, 172154, Control_c, 0, 64, 55
2, 172169, Control_c, 0, 64, 57
2, 172184, Control_c, 0, 64, 58
2, 172198, Control_c, 0, 64, 59
2, 172213, Control_c, 0, 64, 60
2, 172230, Control_c, 0, 64, 61
2, 172237, Note_on_c, 0, 61, 76
2, 172245, Control_c, 0, 64, 61
2, 172276, Control_c, 0, 64, 62
2, 172321, Note_on_c, 0, 60, 0
2, 172390, Note_on_c, 0, 68, 0
2, 172405, Control_c, 0, 64, 62
2, 172435, Control_c, 0, 64, 63
2, 172481, Control_c, 0, 64, 63
2, 172496, Control_c, 0, 67, 125
2, 172500, Note_on_c, 0, 65, 81
2, 172511, Control_c, 0, 67, 120
2, 172526, Control_c, 0, 64, 64
2, 172526, Control_c, 0, 67, 115
2, 172541, Control_c, 0, 67, 109
2, 172552, Note_on_c, 0, 61, 0
2, 172557, Control_c, 0, 67, 102
2, 172571, Control_c, 0, 64, 64
2, 172571, Control_c, 0, 67, 94
2, 172586, Control_c, 0, 67, 81
2, 172602, Control_c, 0, 67, 68
2, 172617, Control_c, 0, 67, 55
2, 172633, Control_c, 0, 64, 65
2, 172633, Control_c, 0, 67, 44
2, 172647, Control_c, 0, 67, 37
2, 172662, Control_c, 0, 67, 32
2, 172678, Control_c, 0, 67, 29
2, 172693, Control_c, 0, 67, 25
2, 172709, Control_c, 0, 67, 22
2, 172723, Control_c, 0, 67, 18
2, 172738, Control_c, 0, 67, 15
2, 172754, Control_c, 0, 67, 12
2, 172769, Control_c, 0, 64, 64
2, 172769, Control_c, 0, 67, 9
2, 172784, Control_c, 0, 67, 8
2, 172800, Control_c, 0, 64, 63
2, 172800, Control_c, 0, 67, 8
2, 172806, Note_on_c, 0, 51, 42
2, 172815, Control_c, 0, 64, 62
2, 172815, Control_c, 0, 67, 0
2, 172824, Note_on_c, 0, 67, 83
2, 172831, Control_c, 0, 64, 58
2, 172833, Note_on_c, 0, 63, 68
2, 172845, Control_c, 0, 64, 45
2, 172856, Note_on_c, 0, 65, 0
2, 172860, Control_c, 0, 64, 0
2, 172906, Control_c, 0, 67, 8
2, 172921, Control_c, 0, 67, 8
2, 172936, Control_c, 0, 67, 9
2, 172952, Control_c, 0, 67, 10
2, 172966, Control_c, 0, 67, 10
2, 172981, Control_c, 0, 67, 11
2, 172990, Note_on_c, 0, 39, 0
2, 172997, Control_c, 0, 67, 11
2, 173012, Control_c, 0, 67, 12
2, 173028, Control_c, 0, 67, 13
2, 173044, Control_c, 0, 67, 13
2, 173059, Control_c, 0, 67, 14
2, 173074, Control_c, 0, 67, 15
2, 173089, Control_c, 0, 67, 15
2, 173104, Control_c, 0, 67, 16
2, 173127, Control_c, 0, 67, 17
2, 173142, Control_c, 0, 67, 18
2, 173158, Control_c, 0, 67, 19
2, 173173, Control_c, 0, 67, 19
2, 173189, Control_c, 0, 67, 20
2, 173203, Control_c, 0, 67, 21
2, 173218, Control_c, 0, 67, 23
2, 173225, Note_on_c, 0, 61, 67
2, 173234, Control_c, 0, 67, 25
2, 173249, Control_c, 0, 67, 26
2, 173264, Control_c, 0, 67, 27
2, 173279, Control_c, 0, 67, 28
2, 173279, Note_on_c, 0, 63, 0
2, 173294, Control_c, 0, 67, 29
2, 173310, Control_c, 0, 67, 30
2, 173325, Control_c, 0, 67, 32
2, 173340, Control_c, 0, 67, 33
2, 173355, Control_c, 0, 67, 35
2, 173370, Control_c, 0, 67, 37
2, 173385, Control_c, 0, 67, 38
2, 173401, Control_c, 0, 67, 39
2, 173415, Control_c, 0, 67, 40
2, 173431, Control_c, 0, 67, 42
2, 173446, Control_c, 0, 67, 44
2, 173461, Control_c, 0, 67, 46
2, 173477, Control_c, 0, 67, 49
2, 173491, Control_c, 0, 67, 51
2, 173506, Control_c, 0, 67, 52
2, 173522, Control_c, 0, 67, 54
2, 173537, Control_c, 0, 67, 54
2, 173553, Control_c, 0, 67, 55
2, 173567, Control_c, 0, 67, 57
2, 173572, Note_on_c, 0, 60, 65
2, 173582, Control_c, 0, 67, 59
2, 173598, Control_c, 0, 67, 61
2, 173612, Note_on_c, 0, 61, 0
2, 173613, Control_c, 0, 67, 64
2, 173629, Control_c, 0, 67, 65
2, 173644, Control_c, 0, 67, 67
2, 173659, Control_c, 0, 67, 68
2, 173675, Control_c, 0, 67, 70
2, 173689, Control_c, 0, 67, 71
2, 173704, Control_c, 0, 67, 72
2, 173720, Control_c, 0, 67, 73
2, 173735, Control_c, 0, 67, 74
2, 173751, Control_c, 0, 67, 77
2, 173766, Control_c, 0, 67, 79
2, 173781, Control_c, 0, 67, 81
2, 173797, Control_c, 0, 67, 83
2, 173811, Control_c, 0, 67, 84
2, 173826, Control_c, 0, 67, 86
2, 173842, Control_c, 0, 67, 87
2, 173857, Control_c, 0, 67, 89
2, 173873, Control_c, 0, 67, 90
2, 173896, Control_c, 0, 67, 91
2, 173912, Control_c, 0, 67, 92
2, 173941, Control_c, 0, 67, 92
2, 173957, Control_c, 0, 67, 93
2, 173965, Note_on_c, 0, 61, 62
2, 173976, Note_on_c, 0, 60, 0
2, 174002, Control_c, 0, 67, 94
2, 174033, Control_c, 0, 67, 94
2, 174047, Control_c, 0, 67, 95
2, 174062, Control_c, 0, 67, 97
2, 174078, Control_c, 0, 67, 99
2, 174093, Control_c, 0, 67, 100
2, 174109, Control_c, 0, 67, 102
2, 174124, Control_c, 0, 67, 104
2, 174139, Control_c, 0, 67, 107
2, 174155, Control_c, 0, 67, 110
2, 174169, Control_c, 0, 67, 112
2, 174184, Control_c, 0, 64, 31
2, 174184, Control_c, 0, 67, 114
2, 174200, Control_c, 0, 64, 49
2, 174200, Control_c, 0, 67, 116
2, 174215, Control_c, 0, 64, 54
2, 174215, Control_c, 0, 67, 118
2, 174231, Control_c, 0, 64, 57
2, 174231, Control_c, 0, 67, 121
2, 174246, Control_c, 0, 64, 61
2, 174246, Control_c, 0, 67, 124
2, 174260, Control_c, 0, 64, 63
2, 174260, Control_c, 0, 67, 127
2, 174276, Control_c, 0, 64, 65
2, 174291, Control_c, 0, 64, 66
2, 174306, Control_c, 0, 64, 68
2, 174322, Control_c, 0, 64, 70
2, 174336, Control_c, 0, 64, 72
2, 174352, Control_c, 0, 64, 74
2, 174367, Control_c, 0, 64, 75
2, 174382, Control_c, 0, 64, 77
2, 174386, Note_on_c, 0, 67, 0
2, 174392, Note_on_c, 0, 51, 0
2, 174398, Control_c, 0, 64, 78
2, 174412, Control_c, 0, 64, 79
2, 174428, Control_c, 0, 64, 79
2, 174443, Control_c, 0, 64, 80
2, 174719, Note_on_c, 0, 68, 72
2, 174730, Note_on_c, 0, 44, 37
2, 174733, Note_on_c, 0, 60, 53
2, 174737, Note_on_c, 0, 51, 31
2, 174738, Control_c, 0, 64, 79
2, 174753, Control_c, 0, 64, 77
2, 174767, Note_on_c, 0, 61, 0
2, 174768, Control_c, 0, 64, 73
2, 174783, Control_c, 0, 64, 67
2, 174799, Control_c, 0, 64, 46
2, 174813, Control_c, 0, 64, 0
2, 176216, Control_c, 0, 64, 37
2, 176229, Control_c, 0, 64, 50
2, 176244, Control_c, 0, 64, 55
2, 176260, Control_c, 0, 64, 59
2, 176275, Control_c, 0, 64, 60
2, 176292, Control_c, 0, 64, 62
2, 176307, Control_c, 0, 64, 63
2, 176322, Control_c, 0, 64, 64
2, 176337, Control_c, 0, 64, 64
2, 176352, Control_c, 0, 64, 65
2, 176368, Control_c, 0, 64, 66
2, 176383, Control_c, 0, 64, 66
2, 176398, Control_c, 0, 64, 67
2, 176413, Control_c, 0, 64, 67
2, 176428, Control_c, 0, 64, 68
2, 176443, Control_c, 0, 64, 68
2, 176443, Control_c, 0, 67, 126
2, 176458, Control_c, 0, 64, 69
2, 176458, Control_c, 0, 67, 123
2, 176473, Control_c, 0, 67, 119
2, 176489, Control_c, 0, 64, 69
2, 176489, Control_c, 0, 67, 115
2, 176504, Control_c, 0, 64, 70
2, 176504, Control_c, 0, 67, 111
2, 176519, Control_c, 0, 64, 70
2, 176519, Control_c, 0, 67, 106
2, 176534, Control_c, 0, 64, 71
2, 176534, Control_c, 0, 67, 102
2, 176549, Control_c, 0, 67, 97
2, 176564, Control_c, 0, 64, 71
2, 176564, Control_c, 0, 67, 93
2, 176580, Control_c, 0, 67, 89
2, 176595, Control_c, 0, 64, 72
2, 176595, Control_c, 0, 67, 85
2, 176611, Control_c, 0, 64, 72
2, 176611, Control_c, 0, 67, 81
2, 176626, Control_c, 0, 67, 78
2, 176641, Control_c, 0, 64, 73
2, 176641, Control_c, 0, 67, 73
2, 176655, Control_c, 0, 64, 73
2, 176655, Control_c, 0, 67, 69
2, 176669, Control_c, 0, 67, 65
2, 176684, Control_c, 0, 64, 74
2, 176684, Control_c, 0, 67, 62
2, 176700, Control_c, 0, 64, 74
2, 176700, Control_c, 0, 67, 60
2, 176715, Control_c, 0, 64, 75
2, 176715, Control_c, 0, 67, 58
2, 176729, Control_c, 0, 64, 75
2, 176729, Control_c, 0, 67, 56
2, 176745, Control_c, 0, 67, 54
2, 176761, Control_c, 0, 64, 76
2, 176761, Control_c, 0, 67, 51
2, 176777, Control_c, 0, 64, 77
2, 176777, Control_c, 0, 67, 48
2, 176791, Control_c, 0, 67, 46
2, 176806, Control_c, 0, 64, 77
2, 176806, Control_c, 0, 67, 44
2, 176822, Control_c, 0, 67, 41
2, 176824, Note_on_c, 0, 51, 0
2, 176833, Note_on_c, 0, 44, 0
2, 176837, Control_c, 0, 67, 39
2, 176852, Control_c, 0, 67, 37
2, 176867, Control_c, 0, 67, 35
2, 176882, Control_c, 0, 67, 33
2, 176898, Control_c, 0, 67, 32
2, 176920, Control_c, 0, 67, 30
2, 176936, Control_c, 0, 67, 29
2, 176951, Control_c, 0, 67, 28
2, 176966, Control_c, 0, 67, 27
2, 176982, Control_c, 0, 67, 26
2, 176996, Control_c, 0, 67, 25
2, 177011, Control_c, 0, 67, 24
2, 177027, Control_c, 0, 67, 23
2, 177033, Note_on_c, 0, 60, 0
2, 177042, Control_c, 0, 67, 23
2, 177058, Control_c, 0, 67, 22
2, 177070, Note_on_c, 0, 68, 0
2, 177072, Control_c, 0, 67, 22
2, 177104, Control_c, 0, 67, 21
2, 177119, Control_c, 0, 67, 21
2, 177226, Control_c, 0, 64, 77
2, 177241, Control_c, 0, 67, 20
2, 177301, Control_c, 0, 64, 76
2, 177483, Control_c, 0, 67, 20
2, 177499, Control_c, 0, 64, 76
2, 177809, Control_c, 0, 64, 75
2, 177932, Control_c, 0, 64, 75
2, 178055, Control_c, 0, 64, 74
2, 178160, Control_c, 0, 64, 74
2, 178267, Control_c, 0, 64, 73
2, 178343, Control_c, 0, 64, 73
2, 178388, Control_c, 0, 64, 72
2, 178419, Control_c, 0, 64, 72
2, 178457, Control_c, 0, 64, 71
2, 178502, Control_c, 0, 64, 71
2, 178548, Control_c, 0, 64, 70
2, 178593, Control_c, 0, 64, 70
2, 178638, Control_c, 0, 64, 69
2, 178669, Control_c, 0, 64, 69
2, 178684, Control_c, 0, 64, 68
2, 178700, Control_c, 0, 64, 68
2, 178730, Control_c, 0, 64, 67
2, 178761, Control_c, 0, 64, 67
2, 178777, Control_c, 0, 64, 66
2, 178791, Control_c, 0, 64, 66
2, 178806, Control_c, 0, 64, 65
2, 178822, Control_c, 0, 64, 65
2, 178837, Control_c, 0, 64, 64
2, 178852, Control_c, 0, 64, 64
2, 178883, Control_c, 0, 64, 63
2, 178899, Control_c, 0, 64, 62
2, 178913, Control_c, 0, 64, 60
2, 178928, Control_c, 0, 64, 59
2, 178944, Control_c, 0, 64, 59
2, 178959, Control_c, 0, 64, 58
2, 178975, Control_c, 0, 64, 56
2, 178989, Control_c, 0, 64, 54
2, 179004, Control_c, 0, 64, 51
2, 179020, Control_c, 0, 64, 46
2, 179035, Control_c, 0, 64, 43
2, 179049, Control_c, 0, 64, 38
2, 179065, Control_c, 0, 64, 30
2, 179080, Control_c, 0, 64, 24
2, 179096, Control_c, 0, 64, 13
2, 179111, Control_c, 0, 64, 0
2, 179112, End_track
0, 0, End_of_file
