0, 0, Header, 1, 2, 384
1, 0, Start_track
1, 0, Tempo, 500000
1, 0, Time_signature, 4, 2, 24, 8
1, 1, End_track
2,0,Start_track
2,0, Note_on_c, 0, 56, 62
2,432, Note_on_c, 0, 63, 69
2,574, Note_on_c, 0, 56, 0
2,878, Note_on_c, 0, 60, 73
2,1015, Note_on_c, 0, 63, 0
2,1268, Note_on_c, 0, 56, 72
2,1328, Note_on_c, 0, 60, 0
2,1691, Note_on_c, 0, 65, 70
2,1828, Note_on_c, 0, 56, 0
2,2097, Note_on_c, 0, 61, 65
2,2141, Note_on_c, 0, 65, 0
2,2531, Note_on_c, 0, 63, 62
2,2589, Note_on_c, 0, 61, 0
2,3289, Note_on_c, 0, 51, 56
2,3473, Note_on_c, 0, 61, 58
2,3553, Note_on_c, 0, 63, 0
2,3669, Note_on_c, 0, 56, 73
2,3669, Note_on_c, 0, 61, 0
2,3672, Note_on_c, 0, 60, 55
2,3732, Note_on_c, 0, 51, 0
2,3872, Note_on_c, 0, 61, 59
2,3873, Note_on_c, 0, 60, 0
2,4073, Note_on_c, 0, 55, 75
2,4080, Note_on_c, 0, 63, 64
2,4099, Note_on_c, 0, 61, 0
2,4154, Note_on_c, 0, 56, 0
2,4256, Note_on_c, 0, 65, 62
2,4286, Note_on_c, 0, 63, 0
2,4437, Note_on_c, 0, 51, 75
2,4441, Note_on_c, 0, 67, 68
2,4448, Note_on_c, 0, 65, 0
2,4514, Note_on_c, 0, 55, 0
2,4628, Note_on_c, 0, 63, 66
2,4632, Note_on_c, 0, 67, 0
2,4820, Note_on_c, 0, 60, 76
2,4835, Note_on_c, 0, 68, 66
2,4855, Note_on_c, 0, 63, 0
2,4922, Note_on_c, 0, 51, 0
2,5001, Note_on_c, 0, 70, 66
2,5029, Note_on_c, 0, 68, 0
2,5185, Note_on_c, 0, 70, 0
2,5187, Note_on_c, 0, 56, 69
2,5191, Note_on_c, 0, 72, 61
2,5279, Note_on_c, 0, 60, 0
2,5383, Note_on_c, 0, 72, 0
2,5388, Note_on_c, 0, 70, 64
2,5567, Note_on_c, 0, 58, 61
2,5571, Note_on_c, 0, 68, 60
2,5590, Note_on_c, 0, 70, 0
2,5621, Note_on_c, 0, 56, 0
2,5739, Note_on_c, 0, 68, 0
2,5759, Note_on_c, 0, 67, 57
2,5940, Note_on_c, 0, 67, 0
2,5945, Note_on_c, 0, 65, 53
2,5952, Note_on_c, 0, 51, 56
2,5992, Note_on_c, 0, 58, 0
2,6130, Note_on_c, 0, 68, 58
2,6135, Note_on_c, 0, 65, 0
2,6338, Note_on_c, 0, 58, 58
2,6342, Note_on_c, 0, 67, 59
2,6345, Note_on_c, 0, 68, 0
2,6425, Note_on_c, 0, 51, 0
2,6717, Note_on_c, 0, 55, 64
2,6783, Note_on_c, 0, 58, 0
2,7113, Note_on_c, 0, 56, 67
2,7191, Note_on_c, 0, 55, 0
2,7492, Note_on_c, 0, 51, 66
2,7550, Note_on_c, 0, 56, 0
2,7874, Note_on_c, 0, 65, 71
2,7886, Note_on_c, 0, 56, 54
2,7964, Note_on_c, 0, 67, 0
2,8000, Note_on_c, 0, 51, 0
2,8236, Note_on_c, 0, 53, 61
2,8307, Note_on_c, 0, 56, 0
2,8600, Note_on_c, 0, 55, 66
2,8659, Note_on_c, 0, 53, 0
2,8797, Note_on_c, 0, 63, 72
2,8839, Note_on_c, 0, 65, 0
2,8983, Note_on_c, 0, 62, 78
2,9015, Note_on_c, 0, 63, 0
2,9165, Note_on_c, 0, 65, 74
2,9217, Note_on_c, 0, 62, 0
2,9365, Note_on_c, 0, 63, 68
2,9409, Note_on_c, 0, 65, 0
2,9537, Note_on_c, 0, 48, 65
2,9599, Note_on_c, 0, 55, 0
2,9720, Note_on_c, 0, 49, 71
2,9742, Note_on_c, 0, 48, 0
2,9899, Note_on_c, 0, 51, 75
2,9962, Note_on_c, 0, 49, 0
2,10097, Note_on_c, 0, 53, 73
2,10161, Note_on_c, 0, 51, 0
2,10274, Note_on_c, 0, 55, 71
2,10284, Note_on_c, 0, 53, 0
2,10465, Note_on_c, 0, 56, 64
2,10469, Note_on_c, 0, 61, 67
2,10496, Note_on_c, 0, 55, 0
2,10534, Note_on_c, 0, 63, 0
2,10645, Note_on_c, 0, 53, 69
2,10654, Note_on_c, 0, 60, 75
2,10663, Note_on_c, 0, 61, 0
2,10678, Note_on_c, 0, 56, 0
2,10849, Note_on_c, 0, 58, 69
2,10851, Note_on_c, 0, 61, 76
2,10884, Note_on_c, 0, 60, 0
2,10934, Note_on_c, 0, 53, 0
2,11036, Note_on_c, 0, 60, 72
2,11036, Note_on_c, 0, 65, 77
2,11064, Note_on_c, 0, 58, 0
2,11070, Note_on_c, 0, 61, 0
2,11219, Note_on_c, 0, 70, 75
2,11225, Note_on_c, 0, 61, 67
2,11238, Note_on_c, 0, 65, 0
2,11242, Note_on_c, 0, 60, 0
2,11403, Note_on_c, 0, 60, 63
2,11408, Note_on_c, 0, 68, 72
2,11409, Note_on_c, 0, 61, 0
2,11434, Note_on_c, 0, 70, 0
2,11602, Note_on_c, 0, 58, 61
2,11606, Note_on_c, 0, 67, 72
2,11640, Note_on_c, 0, 60, 0
2,11640, Note_on_c, 0, 68, 0
2,11780, Note_on_c, 0, 56, 57
2,11792, Note_on_c, 0, 65, 68
2,11796, Note_on_c, 0, 58, 0
2,11848, Note_on_c, 0, 67, 0
2,11963, Note_on_c, 0, 55, 61
2,11974, Note_on_c, 0, 56, 0
2,11978, Note_on_c, 0, 65, 0
2,11985, Note_on_c, 0, 63, 64
2,12156, Note_on_c, 0, 58, 63
2,12156, Note_on_c, 0, 63, 0
2,12163, Note_on_c, 0, 61, 69
2,12369, Note_on_c, 0, 60, 63
2,12372, Note_on_c, 0, 56, 57
2,12375, Note_on_c, 0, 68, 77
2,12378, Note_on_c, 0, 58, 0
2,12398, Note_on_c, 0, 55, 0
2,12460, Note_on_c, 0, 61, 0
2,12560, Note_on_c, 0, 58, 62
2,12566, Note_on_c, 0, 60, 0
2,12753, Note_on_c, 0, 75, 84
2,12772, Note_on_c, 0, 58, 0
2,12772, Note_on_c, 0, 60, 66
2,12935, Note_on_c, 0, 61, 67
2,13122, Note_on_c, 0, 60, 0
2,13141, Note_on_c, 0, 72, 83
2,13152, Note_on_c, 0, 63, 48
2,13156, Note_on_c, 0, 61, 0
2,13170, Note_on_c, 0, 56, 0
2,13238, Note_on_c, 0, 75, 0
2,13282, Note_on_c, 0, 68, 0
2,13337, Note_on_c, 0, 44, 72
2,13525, Note_on_c, 0, 44, 0
2,13527, Note_on_c, 0, 46, 72
2,13528, Note_on_c, 0, 68, 85
2,13635, Note_on_c, 0, 63, 0
2,13662, Note_on_c, 0, 46, 0
2,13690, Note_on_c, 0, 48, 71
2,13715, Note_on_c, 0, 47, 33
2,13716, Note_on_c, 0, 47, 0
2,13739, Note_on_c, 0, 72, 0
2,13911, Note_on_c, 0, 49, 62
2,13912, Note_on_c, 0, 77, 88
2,13920, Note_on_c, 0, 48, 0
2,13921, Note_on_c, 0, 56, 58
2,14093, Note_on_c, 0, 49, 0
2,14096, Note_on_c, 0, 51, 62
2,14268, Note_on_c, 0, 51, 0
2,14289, Note_on_c, 0, 53, 58
2,14292, Note_on_c, 0, 73, 80
2,14338, Note_on_c, 0, 77, 0
2,14450, Note_on_c, 0, 56, 0
2,14482, Note_on_c, 0, 51, 50
2,14670, Note_on_c, 0, 75, 80
2,14675, Note_on_c, 0, 53, 0
2,14676, Note_on_c, 0, 49, 55
2,14677, Note_on_c, 0, 55, 52
2,14697, Note_on_c, 0, 51, 0
2,14737, Note_on_c, 0, 73, 0
2,14819, Note_on_c, 0, 49, 0
2,14856, Note_on_c, 0, 48, 54
2,15038, Note_on_c, 0, 48, 0
2,15046, Note_on_c, 0, 46, 53
2,15173, Note_on_c, 0, 55, 0
2,15229, Note_on_c, 0, 49, 54
2,15390, Note_on_c, 0, 46, 0
2,15409, Note_on_c, 0, 49, 0
2,15423, Note_on_c, 0, 48, 58
2,15430, Note_on_c, 0, 56, 51
2,15433, Note_on_c, 0, 63, 73
2,15470, Note_on_c, 0, 68, 0
2,15590, Note_on_c, 0, 56, 0
2,15617, Note_on_c, 0, 58, 60
2,15782, Note_on_c, 0, 48, 0
2,15811, Note_on_c, 0, 60, 67
2,15816, Note_on_c, 0, 58, 0
2,15818, Note_on_c, 0, 68, 79
2,15978, Note_on_c, 0, 50, 65
2,15987, Note_on_c, 0, 60, 0
2,16163, Note_on_c, 0, 50, 0
2,16191, Note_on_c, 0, 58, 64
2,16197, Note_on_c, 0, 67, 79
2,16200, Note_on_c, 0, 51, 48
2,16327, Note_on_c, 0, 68, 0
2,16330, Note_on_c, 0, 63, 0
2,16372, Note_on_c, 0, 53, 68
2,16384, Note_on_c, 0, 58, 0
2,16552, Note_on_c, 0, 55, 74
2,16567, Note_on_c, 0, 63, 77
2,16641, Note_on_c, 0, 51, 0
2,16674, Note_on_c, 0, 67, 0
2,16707, Note_on_c, 0, 53, 0
2,16717, Note_on_c, 0, 63, 0
2,16721, Note_on_c, 0, 75, 0
2,16723, Note_on_c, 0, 58, 80
2,16730, Note_on_c, 0, 55, 0
2,16943, Note_on_c, 0, 72, 79
2,16943, Note_on_c, 0, 80, 75
2,16951, Note_on_c, 0, 56, 73
2,17001, Note_on_c, 0, 58, 0
2,17125, Note_on_c, 0, 55, 68
2,17307, Note_on_c, 0, 60, 72
2,17308, Note_on_c, 0, 68, 84
2,17322, Note_on_c, 0, 53, 58
2,17325, Note_on_c, 0, 55, 0
2,17354, Note_on_c, 0, 56, 0
2,17390, Note_on_c, 0, 72, 0
2,17436, Note_on_c, 0, 80, 0
2,17474, Note_on_c, 0, 60, 0
2,17477, Note_on_c, 0, 53, 0
2,17485, Note_on_c, 0, 51, 68
2,17696, Note_on_c, 0, 53, 65
2,17700, Note_on_c, 0, 80, 67
2,17709, Note_on_c, 0, 70, 68
2,17710, Note_on_c, 0, 50, 56
2,17848, Note_on_c, 0, 68, 0
2,17876, Note_on_c, 0, 51, 0
2,17884, Note_on_c, 0, 46, 62
2,17887, Note_on_c, 0, 50, 0
2,18071, Note_on_c, 0, 48, 58
2,18101, Note_on_c, 0, 46, 0
2,18113, Note_on_c, 0, 80, 0
2,18254, Note_on_c, 0, 50, 61
2,18265, Note_on_c, 0, 53, 0
2,18276, Note_on_c, 0, 48, 0
2,18448, Note_on_c, 0, 51, 64
2,18449, Note_on_c, 0, 79, 77
2,18462, Note_on_c, 0, 50, 0
2,18628, Note_on_c, 0, 63, 62
2,18781, Note_on_c, 0, 79, 0
2,18814, Note_on_c, 0, 70, 0
2,18819, Note_on_c, 0, 65, 67
2,18961, Note_on_c, 0, 63, 0
2,18977, Note_on_c, 0, 65, 0
2,18985, Note_on_c, 0, 67, 68
2,19184, Note_on_c, 0, 77, 68
2,19197, Note_on_c, 0, 68, 59
2,19220, Note_on_c, 0, 67, 0
2,19376, Note_on_c, 0, 70, 58
2,19399, Note_on_c, 0, 68, 0
2,19561, Note_on_c, 0, 72, 61
2,19567, Note_on_c, 0, 56, 56
2,19585, Note_on_c, 0, 70, 0
2,19646, Note_on_c, 0, 51, 0
2,19716, Note_on_c, 0, 70, 57
2,19806, Note_on_c, 0, 72, 0
2,19920, Note_on_c, 0, 70, 0
2,19924, Note_on_c, 0, 68, 60
2,19942, Note_on_c, 0, 50, 50
2,19966, Note_on_c, 0, 56, 0
2,20081, Note_on_c, 0, 68, 0
2,20093, Note_on_c, 0, 67, 63
2,20278, Note_on_c, 0, 58, 59
2,20284, Note_on_c, 0, 67, 0
2,20290, Note_on_c, 0, 65, 55
2,20341, Note_on_c, 0, 50, 0
2,20454, Note_on_c, 0, 68, 67
2,20457, Note_on_c, 0, 65, 0
2,20622, Note_on_c, 0, 68, 0
2,20638, Note_on_c, 0, 67, 64
2,20650, Note_on_c, 0, 51, 58
2,20714, Note_on_c, 0, 58, 0
2,20826, Note_on_c, 0, 70, 72
2,21004, Note_on_c, 0, 72, 81
2,21022, Note_on_c, 0, 77, 0
2,21194, Note_on_c, 0, 74, 81
2,21222, Note_on_c, 0, 70, 0
2,21249, Note_on_c, 0, 72, 0
2,21374, Note_on_c, 0, 51, 0
2,21384, Note_on_c, 0, 75, 84
2,21432, Note_on_c, 0, 74, 0
2,21567, Note_on_c, 0, 51, 65
2,21742, Note_on_c, 0, 53, 68
2,21759, Note_on_c, 0, 51, 0
2,21850, Note_on_c, 0, 53, 0
2,21905, Note_on_c, 0, 55, 70
2,22109, Note_on_c, 0, 55, 0
2,22109, Note_on_c, 0, 56, 66
2,22109, Note_on_c, 0, 65, 64
2,22281, Note_on_c, 0, 56, 0
2,22283, Note_on_c, 0, 58, 65
2,22460, Note_on_c, 0, 58, 0
2,22465, Note_on_c, 0, 60, 62
2,22465, Note_on_c, 0, 80, 82
2,22557, Note_on_c, 0, 67, 0
2,22654, Note_on_c, 0, 58, 63
2,22696, Note_on_c, 0, 60, 0
2,22842, Note_on_c, 0, 73, 86
2,22843, Note_on_c, 0, 56, 65
2,22897, Note_on_c, 0, 58, 0
2,22918, Note_on_c, 0, 80, 0
2,22975, Note_on_c, 0, 75, 0
2,23026, Note_on_c, 0, 55, 60
2,23040, Note_on_c, 0, 56, 0
2,23224, Note_on_c, 0, 53, 61
2,23224, Note_on_c, 0, 82, 82
2,23255, Note_on_c, 0, 55, 0
2,23298, Note_on_c, 0, 73, 0
2,23398, Note_on_c, 0, 56, 58
2,23450, Note_on_c, 0, 65, 0
2,23596, Note_on_c, 0, 53, 0
2,23599, Note_on_c, 0, 55, 55
2,23604, Note_on_c, 0, 73, 76
2,23623, Note_on_c, 0, 56, 0
2,23651, Note_on_c, 0, 82, 0
2,23797, Note_on_c, 0, 63, 54
2,23972, Note_on_c, 0, 51, 56
2,23976, Note_on_c, 0, 65, 58
2,24024, Note_on_c, 0, 63, 0
2,24037, Note_on_c, 0, 55, 0
2,24143, Note_on_c, 0, 73, 0
2,24157, Note_on_c, 0, 67, 74
2,24266, Note_on_c, 0, 65, 0
2,24273, Note_on_c, 0, 51, 0
2,24336, Note_on_c, 0, 72, 77
2,24346, Note_on_c, 0, 68, 65
2,24364, Note_on_c, 0, 67, 0
2,24525, Note_on_c, 0, 44, 71
2,24708, Note_on_c, 0, 46, 73
2,24772, Note_on_c, 0, 44, 0
2,24886, Note_on_c, 0, 46, 0
2,24886, Note_on_c, 0, 48, 69
2,25086, Note_on_c, 0, 49, 63
2,25088, Note_on_c, 0, 70, 68
2,25097, Note_on_c, 0, 48, 0
2,25286, Note_on_c, 0, 51, 57
2,25300, Note_on_c, 0, 49, 0
2,25470, Note_on_c, 0, 53, 57
2,25483, Note_on_c, 0, 51, 0
2,25653, Note_on_c, 0, 51, 54
2,25656, Note_on_c, 0, 53, 0
2,25850, Note_on_c, 0, 49, 51
2,25858, Note_on_c, 0, 67, 67
2,25921, Note_on_c, 0, 51, 0
2,26016, Note_on_c, 0, 48, 56
2,26023, Note_on_c, 0, 49, 0
2,26023, Note_on_c, 0, 68, 0
2,26218, Note_on_c, 0, 48, 0
2,26221, Note_on_c, 0, 46, 57
2,26408, Note_on_c, 0, 49, 53
2,26442, Note_on_c, 0, 46, 0
2,26551, Note_on_c, 0, 72, 0
2,26604, Note_on_c, 0, 48, 52
2,26610, Note_on_c, 0, 68, 66
2,26631, Note_on_c, 0, 67, 0
2,26633, Note_on_c, 0, 49, 0
2,26645, Note_on_c, 0, 70, 0
2,26972, Note_on_c, 0, 67, 59
2,27163, Note_on_c, 0, 67, 0
2,27173, Note_on_c, 0, 65, 50
2,27354, Note_on_c, 0, 56, 76
2,27369, Note_on_c, 0, 63, 69
2,27372, Note_on_c, 0, 65, 0
2,27539, Note_on_c, 0, 63, 0
2,27550, Note_on_c, 0, 61, 60
2,27551, Note_on_c, 0, 49, 63
2,27552, Note_on_c, 0, 48, 0
2,27719, Note_on_c, 0, 49, 0
2,27721, Note_on_c, 0, 51, 65
2,27728, Note_on_c, 0, 63, 77
2,27729, Note_on_c, 0, 61, 0
2,27847, Note_on_c, 0, 51, 0
2,27904, Note_on_c, 0, 48, 72
2,27934, Note_on_c, 0, 61, 13
2,28071, Note_on_c, 0, 61, 0
2,28108, Note_on_c, 0, 63, 0
2,28115, Note_on_c, 0, 60, 82
2,28126, Note_on_c, 0, 68, 0
2,28131, Note_on_c, 0, 53, 63
2,28161, Note_on_c, 0, 56, 0
2,28189, Note_on_c, 0, 48, 0
2,28283, Note_on_c, 0, 68, 59
2,28494, Note_on_c, 0, 70, 66
2,28496, Note_on_c, 0, 56, 81
2,28517, Note_on_c, 0, 68, 0
2,28589, Note_on_c, 0, 60, 0
2,28656, Note_on_c, 0, 72, 67
2,28678, Note_on_c, 0, 70, 0
2,28861, Note_on_c, 0, 65, 79
2,28875, Note_on_c, 0, 73, 69
2,28935, Note_on_c, 0, 72, 0
2,29028, Note_on_c, 0, 53, 0
2,29051, Note_on_c, 0, 51, 60
2,29240, Note_on_c, 0, 61, 86
2,29242, Note_on_c, 0, 53, 57
2,29266, Note_on_c, 0, 56, 0
2,29297, Note_on_c, 0, 51, 0
2,29327, Note_on_c, 0, 65, 0
2,29381, Note_on_c, 0, 53, 0
2,29405, Note_on_c, 0, 49, 62
2,29595, Note_on_c, 0, 49, 0
2,29603, Note_on_c, 0, 56, 66
2,29610, Note_on_c, 0, 61, 0
2,29610, Note_on_c, 0, 63, 73
2,29619, Note_on_c, 0, 68, 71
2,29639, Note_on_c, 0, 73, 0
2,29782, Note_on_c, 0, 55, 64
2,29786, Note_on_c, 0, 56, 0
2,29797, Note_on_c, 0, 70, 74
2,29839, Note_on_c, 0, 68, 0
2,29962, Note_on_c, 0, 70, 0
2,29979, Note_on_c, 0, 55, 0
2,29983, Note_on_c, 0, 56, 67
2,29986, Note_on_c, 0, 72, 67
2,30151, Note_on_c, 0, 58, 67
2,30159, Note_on_c, 0, 56, 0
2,30167, Note_on_c, 0, 75, 71
2,30195, Note_on_c, 0, 72, 0
2,30349, Note_on_c, 0, 60, 65
2,30361, Note_on_c, 0, 80, 70
2,30362, Note_on_c, 0, 58, 0
2,30376, Note_on_c, 0, 75, 0
2,30549, Note_on_c, 0, 79, 79
2,30564, Note_on_c, 0, 80, 0
2,30726, Note_on_c, 0, 55, 59
2,30735, Note_on_c, 0, 80, 82
2,30759, Note_on_c, 0, 79, 0
2,30922, Note_on_c, 0, 82, 77
2,30957, Note_on_c, 0, 80, 0
2,31035, Note_on_c, 0, 60, 0
2,31106, Note_on_c, 0, 84, 71
2,31108, Note_on_c, 0, 56, 65
2,31120, Note_on_c, 0, 55, 0
2,31125, Note_on_c, 0, 82, 0
2,31287, Note_on_c, 0, 82, 71
2,31300, Note_on_c, 0, 84, 0
2,31480, Note_on_c, 0, 53, 58
2,31485, Note_on_c, 0, 80, 63
2,31534, Note_on_c, 0, 82, 0
2,31536, Note_on_c, 0, 63, 0
2,31550, Note_on_c, 0, 56, 0
2,31668, Note_on_c, 0, 79, 56
2,31756, Note_on_c, 0, 80, 0
2,31842, Note_on_c, 0, 61, 68
2,31845, Note_on_c, 0, 58, 61
2,31848, Note_on_c, 0, 77, 72
2,31862, Note_on_c, 0, 79, 0
2,31909, Note_on_c, 0, 53, 0
2,32024, Note_on_c, 0, 79, 70
2,32047, Note_on_c, 0, 77, 0
2,32205, Note_on_c, 0, 53, 65
2,32213, Note_on_c, 0, 80, 75
2,32221, Note_on_c, 0, 79, 0
2,32260, Note_on_c, 0, 58, 0
2,32379, Note_on_c, 0, 80, 0
2,32385, Note_on_c, 0, 84, 70
2,32573, Note_on_c, 0, 82, 69
2,32581, Note_on_c, 0, 84, 0
2,32584, Note_on_c, 0, 55, 61
2,32588, Note_on_c, 0, 53, 0
2,32765, Note_on_c, 0, 80, 62
2,32796, Note_on_c, 0, 82, 0
2,32939, Note_on_c, 0, 51, 58
2,32945, Note_on_c, 0, 80, 0
2,32958, Note_on_c, 0, 79, 64
2,32983, Note_on_c, 0, 61, 0
2,32993, Note_on_c, 0, 55, 0
2,33108, Note_on_c, 0, 79, 0
2,33126, Note_on_c, 0, 77, 64
2,33312, Note_on_c, 0, 60, 68
2,33318, Note_on_c, 0, 77, 0
2,33321, Note_on_c, 0, 56, 57
2,33322, Note_on_c, 0, 75, 65
2,33352, Note_on_c, 0, 51, 0
2,33486, Note_on_c, 0, 75, 0
2,33503, Note_on_c, 0, 77, 71
2,33682, Note_on_c, 0, 77, 0
2,33682, Note_on_c, 0, 79, 69
2,33684, Note_on_c, 0, 51, 62
2,33728, Note_on_c, 0, 56, 0
2,33865, Note_on_c, 0, 82, 69
2,33870, Note_on_c, 0, 79, 0
2,34050, Note_on_c, 0, 80, 63
2,34052, Note_on_c, 0, 53, 58
2,34066, Note_on_c, 0, 82, 0
2,34103, Note_on_c, 0, 51, 0
2,34234, Note_on_c, 0, 80, 0
2,34241, Note_on_c, 0, 79, 67
2,34401, Note_on_c, 0, 79, 0
2,34412, Note_on_c, 0, 50, 54
2,34413, Note_on_c, 0, 77, 72
2,34449, Note_on_c, 0, 53, 0
2,34497, Note_on_c, 0, 60, 0
2,34593, Note_on_c, 0, 77, 0
2,34597, Note_on_c, 0, 75, 64
2,34772, Note_on_c, 0, 55, 53
2,34772, Note_on_c, 0, 75, 0
2,34776, Note_on_c, 0, 58, 57
2,34777, Note_on_c, 0, 74, 64
2,34805, Note_on_c, 0, 50, 0
2,34961, Note_on_c, 0, 74, 0
2,34961, Note_on_c, 0, 75, 68
2,35129, Note_on_c, 0, 77, 70
2,35131, Note_on_c, 0, 50, 60
2,35152, Note_on_c, 0, 75, 0
2,35200, Note_on_c, 0, 55, 0
2,35316, Note_on_c, 0, 80, 69
2,35319, Note_on_c, 0, 77, 0
2,35494, Note_on_c, 0, 52, 53
2,35496, Note_on_c, 0, 79, 72
2,35504, Note_on_c, 0, 50, 0
2,35530, Note_on_c, 0, 80, 0
2,35669, Note_on_c, 0, 77, 69
2,35681, Note_on_c, 0, 79, 0
2,35850, Note_on_c, 0, 48, 57
2,35859, Note_on_c, 0, 76, 69
2,35878, Note_on_c, 0, 52, 0
2,35889, Note_on_c, 0, 77, 0
2,36040, Note_on_c, 0, 76, 0
2,36040, Note_on_c, 0, 79, 67
2,36223, Note_on_c, 0, 50, 46
2,36241, Note_on_c, 0, 56, 60
2,36245, Note_on_c, 0, 65, 73
2,36248, Note_on_c, 0, 77, 69
2,36255, Note_on_c, 0, 79, 0
2,36266, Note_on_c, 0, 48, 0
2,36324, Note_on_c, 0, 58, 0
2,36410, Note_on_c, 0, 77, 0
2,36419, Note_on_c, 0, 76, 60
2,36593, Note_on_c, 0, 55, 56
2,36603, Note_on_c, 0, 72, 74
2,36605, Note_on_c, 0, 52, 47
2,36605, Note_on_c, 0, 77, 69
2,36644, Note_on_c, 0, 56, 0
2,36646, Note_on_c, 0, 76, 0
2,36667, Note_on_c, 0, 65, 0
2,36676, Note_on_c, 0, 50, 0
2,36683, Note_on_c, 0, 52, 0
2,36801, Note_on_c, 0, 79, 71
2,36831, Note_on_c, 0, 77, 0
2,36983, Note_on_c, 0, 68, 79
2,36984, Note_on_c, 0, 53, 62
2,37006, Note_on_c, 0, 72, 0
2,37026, Note_on_c, 0, 55, 0
2,37048, Note_on_c, 0, 79, 0
2,37151, Note_on_c, 0, 58, 64
2,37322, Note_on_c, 0, 56, 59
2,37332, Note_on_c, 0, 58, 0
2,37336, Note_on_c, 0, 65, 77
2,37341, Note_on_c, 0, 77, 73
2,37388, Note_on_c, 0, 68, 0
2,37457, Note_on_c, 0, 53, 0
2,37489, Note_on_c, 0, 56, 0
2,37501, Note_on_c, 0, 55, 61
2,37705, Note_on_c, 0, 55, 0
2,37706, Note_on_c, 0, 46, 57
2,37715, Note_on_c, 0, 53, 62
2,37716, Note_on_c, 0, 73, 82
2,37789, Note_on_c, 0, 77, 0
2,37832, Note_on_c, 0, 65, 0
2,37883, Note_on_c, 0, 53, 0
2,37896, Note_on_c, 0, 52, 62
2,38076, Note_on_c, 0, 79, 78
2,38077, Note_on_c, 0, 53, 60
2,38078, Note_on_c, 0, 70, 70
2,38103, Note_on_c, 0, 73, 0
2,38132, Note_on_c, 0, 52, 0
2,38207, Note_on_c, 0, 46, 0
2,38243, Note_on_c, 0, 55, 59
2,38246, Note_on_c, 0, 79, 0
2,38254, Note_on_c, 0, 53, 0
2,38258, Note_on_c, 0, 76, 64
2,38458, Note_on_c, 0, 56, 63
2,38458, Note_on_c, 0, 72, 75
2,38458, Note_on_c, 0, 77, 70
2,38460, Note_on_c, 0, 53, 50
2,38461, Note_on_c, 0, 70, 0
2,38463, Note_on_c, 0, 55, 0
2,38489, Note_on_c, 0, 76, 0
2,38629, Note_on_c, 0, 58, 70
2,38631, Note_on_c, 0, 76, 71
2,38632, Note_on_c, 0, 56, 0
2,38637, Note_on_c, 0, 77, 0
2,38806, Note_on_c, 0, 56, 63
2,38820, Note_on_c, 0, 77, 81
2,38822, Note_on_c, 0, 74, 83
2,38827, Note_on_c, 0, 58, 0
2,38848, Note_on_c, 0, 76, 0
2,38863, Note_on_c, 0, 72, 0
2,38989, Note_on_c, 0, 53, 0
2,38995, Note_on_c, 0, 79, 75
2,38996, Note_on_c, 0, 55, 70
2,38998, Note_on_c, 0, 76, 78
2,39017, Note_on_c, 0, 56, 0
2,39039, Note_on_c, 0, 77, 0
2,39051, Note_on_c, 0, 79, 0
2,39199, Note_on_c, 0, 77, 72
2,39199, Note_on_c, 0, 80, 82
2,39206, Note_on_c, 0, 53, 68
2,39207, Note_on_c, 0, 55, 0
2,39208, Note_on_c, 0, 74, 0
2,39240, Note_on_c, 0, 76, 0
2,39355, Note_on_c, 0, 53, 0
2,39380, Note_on_c, 0, 41, 63
2,39562, Note_on_c, 0, 72, 73
2,39563, Note_on_c, 0, 43, 59
2,39603, Note_on_c, 0, 41, 0
2,39738, Note_on_c, 0, 44, 64
2,39739, Note_on_c, 0, 43, 0
2,39917, Note_on_c, 0, 44, 0
2,39931, Note_on_c, 0, 46, 61
2,39935, Note_on_c, 0, 73, 72
2,39960, Note_on_c, 0, 72, 0
2,40100, Note_on_c, 0, 44, 60
2,40134, Note_on_c, 0, 46, 0
2,40287, Note_on_c, 0, 44, 0
2,40289, Note_on_c, 0, 43, 59
2,40291, Note_on_c, 0, 70, 73
2,40309, Note_on_c, 0, 73, 0
2,40322, Note_on_c, 0, 80, 0
2,40341, Note_on_c, 0, 77, 0
2,40470, Note_on_c, 0, 41, 59
2,40477, Note_on_c, 0, 43, 0
2,40660, Note_on_c, 0, 41, 0
2,40661, Note_on_c, 0, 39, 59
2,40667, Note_on_c, 0, 79, 78
2,40680, Note_on_c, 0, 75, 64
2,40742, Note_on_c, 0, 70, 0
2,40852, Note_on_c, 0, 41, 57
2,40907, Note_on_c, 0, 39, 0
2,40989, Note_on_c, 0, 41, 0
2,41024, Note_on_c, 0, 43, 63
2,41026, Note_on_c, 0, 70, 69
2,41197, Note_on_c, 0, 43, 0
2,41201, Note_on_c, 0, 46, 53
2,41384, Note_on_c, 0, 44, 56
2,41402, Note_on_c, 0, 46, 0
2,41409, Note_on_c, 0, 72, 66
2,41452, Note_on_c, 0, 70, 0
2,41546, Note_on_c, 0, 44, 0
2,41568, Note_on_c, 0, 43, 60
2,41734, Note_on_c, 0, 43, 0
2,41748, Note_on_c, 0, 41, 53
2,41753, Note_on_c, 0, 68, 66
2,41758, Note_on_c, 0, 79, 0
2,41766, Note_on_c, 0, 72, 0
2,41785, Note_on_c, 0, 75, 0
2,41922, Note_on_c, 0, 41, 0
2,41932, Note_on_c, 0, 39, 54
2,42105, Note_on_c, 0, 77, 75
2,42108, Note_on_c, 0, 39, 0
2,42116, Note_on_c, 0, 37, 54
2,42117, Note_on_c, 0, 73, 63
2,42185, Note_on_c, 0, 68, 0
2,42292, Note_on_c, 0, 37, 0
2,42297, Note_on_c, 0, 39, 50
2,42463, Note_on_c, 0, 39, 0
2,42488, Note_on_c, 0, 68, 66
2,42491, Note_on_c, 0, 41, 53
2,42598, Note_on_c, 0, 41, 0
2,42642, Note_on_c, 0, 44, 56
2,42840, Note_on_c, 0, 68, 0
2,42850, Note_on_c, 0, 70, 62
2,42855, Note_on_c, 0, 43, 47
2,42875, Note_on_c, 0, 44, 0
2,42881, Note_on_c, 0, 73, 0
2,43016, Note_on_c, 0, 70, 0
2,43029, Note_on_c, 0, 72, 65
2,43197, Note_on_c, 0, 43, 0
2,43200, Note_on_c, 0, 72, 0
2,43202, Note_on_c, 0, 73, 69
2,43215, Note_on_c, 0, 46, 55
2,43276, Note_on_c, 0, 77, 0
2,43380, Note_on_c, 0, 73, 0
2,43392, Note_on_c, 0, 72, 65
2,43557, Note_on_c, 0, 76, 64
2,43563, Note_on_c, 0, 48, 51
2,43569, Note_on_c, 0, 46, 0
2,43572, Note_on_c, 0, 70, 61
2,43572, Note_on_c, 0, 72, 0
2,43687, Note_on_c, 0, 70, 0
2,43750, Note_on_c, 0, 68, 57
2,43933, Note_on_c, 0, 36, 58
2,43933, Note_on_c, 0, 67, 58
2,43933, Note_on_c, 0, 68, 0
2,43969, Note_on_c, 0, 48, 0
2,44055, Note_on_c, 0, 76, 0
2,44111, Note_on_c, 0, 70, 51
2,44239, Note_on_c, 0, 67, 0
2,44298, Note_on_c, 0, 77, 62
2,44308, Note_on_c, 0, 41, 49
2,44314, Note_on_c, 0, 68, 50
2,44360, Note_on_c, 0, 70, 0
2,44400, Note_on_c, 0, 36, 0
2,44497, Note_on_c, 0, 48, 68
2,44502, Note_on_c, 0, 41, 0
2,44672, Note_on_c, 0, 50, 76
2,44741, Note_on_c, 0, 68, 0
2,44792, Note_on_c, 0, 48, 0
2,44859, Note_on_c, 0, 52, 72
2,44892, Note_on_c, 0, 50, 0
2,45043, Note_on_c, 0, 53, 69
2,45079, Note_on_c, 0, 52, 0
2,45219, Note_on_c, 0, 75, 63
2,45275, Note_on_c, 0, 77, 0
2,45417, Note_on_c, 0, 73, 69
2,45506, Note_on_c, 0, 75, 0
2,45584, Note_on_c, 0, 73, 0
2,45588, Note_on_c, 0, 72, 67
2,45771, Note_on_c, 0, 70, 64
2,45780, Note_on_c, 0, 72, 0
2,45951, Note_on_c, 0, 68, 53
2,45969, Note_on_c, 0, 70, 0
2,46130, Note_on_c, 0, 68, 0
2,46131, Note_on_c, 0, 67, 58
2,46152, Note_on_c, 0, 58, 65
2,46311, Note_on_c, 0, 67, 0
2,46321, Note_on_c, 0, 68, 62
2,46501, Note_on_c, 0, 52, 67
2,46510, Note_on_c, 0, 70, 66
2,46540, Note_on_c, 0, 68, 0
2,46541, Note_on_c, 0, 53, 0
2,46579, Note_on_c, 0, 58, 0
2,46694, Note_on_c, 0, 73, 72
2,46703, Note_on_c, 0, 70, 0
2,46883, Note_on_c, 0, 72, 73
2,46890, Note_on_c, 0, 60, 73
2,46915, Note_on_c, 0, 73, 0
2,46966, Note_on_c, 0, 52, 0
2,47074, Note_on_c, 0, 70, 71
2,47097, Note_on_c, 0, 72, 0
2,47253, Note_on_c, 0, 70, 0
2,47255, Note_on_c, 0, 51, 72
2,47256, Note_on_c, 0, 69, 64
2,47322, Note_on_c, 0, 60, 0
2,47425, Note_on_c, 0, 72, 75
2,47464, Note_on_c, 0, 69, 0
2,47624, Note_on_c, 0, 73, 82
2,47626, Note_on_c, 0, 57, 75
2,47650, Note_on_c, 0, 72, 0
2,47686, Note_on_c, 0, 51, 0
2,47809, Note_on_c, 0, 75, 80
2,47838, Note_on_c, 0, 73, 0
2,47991, Note_on_c, 0, 49, 61
2,47998, Note_on_c, 0, 58, 83
2,48000, Note_on_c, 0, 77, 73
2,48031, Note_on_c, 0, 75, 0
2,48060, Note_on_c, 0, 57, 0
2,48111, Note_on_c, 0, 49, 0
2,48177, Note_on_c, 0, 75, 71
2,48197, Note_on_c, 0, 77, 0
2,48379, Note_on_c, 0, 73, 73
2,48389, Note_on_c, 0, 65, 84
2,48407, Note_on_c, 0, 75, 0
2,48553, Note_on_c, 0, 73, 0
2,48556, Note_on_c, 0, 72, 65
2,48743, Note_on_c, 0, 61, 80
2,48750, Note_on_c, 0, 70, 65
2,48763, Note_on_c, 0, 54, 62
2,48765, Note_on_c, 0, 72, 0
2,48805, Note_on_c, 0, 58, 0
2,48819, Note_on_c, 0, 65, 0
2,48923, Note_on_c, 0, 73, 69
2,48928, Note_on_c, 0, 70, 0
2,49123, Note_on_c, 0, 73, 0
2,49127, Note_on_c, 0, 58, 77
2,49128, Note_on_c, 0, 78, 69
2,49200, Note_on_c, 0, 61, 0
2,49326, Note_on_c, 0, 77, 59
2,49354, Note_on_c, 0, 78, 0
2,49485, Note_on_c, 0, 66, 81
2,49500, Note_on_c, 0, 75, 75
2,49601, Note_on_c, 0, 54, 0
2,49664, Note_on_c, 0, 77, 0
2,49671, Note_on_c, 0, 73, 73
2,49751, Note_on_c, 0, 66, 0
2,49784, Note_on_c, 0, 75, 0
2,49818, Note_on_c, 0, 73, 0
2,49837, Note_on_c, 0, 72, 70
2,49848, Note_on_c, 0, 54, 64
2,49848, Note_on_c, 0, 63, 79
2,50014, Note_on_c, 0, 70, 74
2,50023, Note_on_c, 0, 53, 67
2,50027, Note_on_c, 0, 58, 0
2,50039, Note_on_c, 0, 54, 0
2,50058, Note_on_c, 0, 63, 0
2,50138, Note_on_c, 0, 72, 0
2,50211, Note_on_c, 0, 65, 71
2,50215, Note_on_c, 0, 69, 70
2,50218, Note_on_c, 0, 51, 66
2,50227, Note_on_c, 0, 53, 0
2,50256, Note_on_c, 0, 70, 0
2,50397, Note_on_c, 0, 54, 66
2,50558, Note_on_c, 0, 51, 0
2,50580, Note_on_c, 0, 53, 71
2,50585, Note_on_c, 0, 54, 0
2,50644, Note_on_c, 0, 65, 0
2,50751, Note_on_c, 0, 51, 64
2,50760, Note_on_c, 0, 53, 0
2,50955, Note_on_c, 0, 49, 56
2,50956, Note_on_c, 0, 58, 69
2,50958, Note_on_c, 0, 51, 0
2,50958, Note_on_c, 0, 65, 77
2,50962, Note_on_c, 0, 70, 69
2,51094, Note_on_c, 0, 69, 0
2,51121, Note_on_c, 0, 49, 0
2,51124, Note_on_c, 0, 48, 64
2,51133, Note_on_c, 0, 72, 68
2,51137, Note_on_c, 0, 70, 0
2,51320, Note_on_c, 0, 46, 67
2,51321, Note_on_c, 0, 70, 76
2,51327, Note_on_c, 0, 73, 75
2,51329, Note_on_c, 0, 48, 0
2,51446, Note_on_c, 0, 72, 0
2,51507, Note_on_c, 0, 49, 64
2,51518, Note_on_c, 0, 46, 0
2,51561, Note_on_c, 0, 49, 0
2,51694, Note_on_c, 0, 66, 80
2,51704, Note_on_c, 0, 51, 62
2,51760, Note_on_c, 0, 70, 0
2,51769, Note_on_c, 0, 65, 0
2,51864, Note_on_c, 0, 53, 63
2,51910, Note_on_c, 0, 51, 0
2,52043, Note_on_c, 0, 73, 0
2,52047, Note_on_c, 0, 54, 70
2,52049, Note_on_c, 0, 63, 78
2,52053, Note_on_c, 0, 72, 68
2,52065, Note_on_c, 0, 53, 0
2,52105, Note_on_c, 0, 58, 0
2,52116, Note_on_c, 0, 66, 0
2,52231, Note_on_c, 0, 51, 60
2,52231, Note_on_c, 0, 73, 81
2,52241, Note_on_c, 0, 72, 0
2,52407, Note_on_c, 0, 72, 68
2,52411, Note_on_c, 0, 75, 74
2,52414, Note_on_c, 0, 54, 0
2,52414, Note_on_c, 0, 57, 71
2,52442, Note_on_c, 0, 53, 32
2,52449, Note_on_c, 0, 73, 0
2,52452, Note_on_c, 0, 51, 0
2,52486, Note_on_c, 0, 63, 0
2,52565, Note_on_c, 0, 57, 0
2,52592, Note_on_c, 0, 58, 68
2,52763, Note_on_c, 0, 58, 0
2,52769, Note_on_c, 0, 60, 75
2,52777, Note_on_c, 0, 69, 77
2,52946, Note_on_c, 0, 57, 67
2,52949, Note_on_c, 0, 53, 0
2,52996, Note_on_c, 0, 60, 0
2,53124, Note_on_c, 0, 53, 46
2,53133, Note_on_c, 0, 46, 60
2,53146, Note_on_c, 0, 57, 0
2,53146, Note_on_c, 0, 70, 77
2,53163, Note_on_c, 0, 69, 0
2,53184, Note_on_c, 0, 72, 0
2,53232, Note_on_c, 0, 75, 0
2,53324, Note_on_c, 0, 72, 75
2,53325, Note_on_c, 0, 70, 0
2,53496, Note_on_c, 0, 73, 85
2,53502, Note_on_c, 0, 58, 64
2,53546, Note_on_c, 0, 72, 0
2,53555, Note_on_c, 0, 46, 0
2,53664, Note_on_c, 0, 53, 0
2,53665, Note_on_c, 0, 77, 82
2,53666, Note_on_c, 0, 60, 64
2,53674, Note_on_c, 0, 58, 0
2,53876, Note_on_c, 0, 73, 0
2,53891, Note_on_c, 0, 61, 63
2,53891, Note_on_c, 0, 82, 83
2,53922, Note_on_c, 0, 60, 0
2,53985, Note_on_c, 0, 77, 0
2,54076, Note_on_c, 0, 65, 43
2,54244, Note_on_c, 0, 65, 0
2,54258, Note_on_c, 0, 77, 78
2,54261, Note_on_c, 0, 66, 50
2,54326, Note_on_c, 0, 82, 0
2,54435, Note_on_c, 0, 66, 0
2,54438, Note_on_c, 0, 68, 56
2,54633, Note_on_c, 0, 78, 79
2,54634, Note_on_c, 0, 70, 60
2,54643, Note_on_c, 0, 68, 0
2,54755, Note_on_c, 0, 77, 0
2,54816, Note_on_c, 0, 68, 54
2,54840, Note_on_c, 0, 70, 0
2,54993, Note_on_c, 0, 75, 79
2,54997, Note_on_c, 0, 66, 62
2,55050, Note_on_c, 0, 78, 0
2,55059, Note_on_c, 0, 68, 0
2,55150, Note_on_c, 0, 66, 0
2,55161, Note_on_c, 0, 61, 0
2,55167, Note_on_c, 0, 65, 57
2,55371, Note_on_c, 0, 80, 77
2,55377, Note_on_c, 0, 63, 50
2,55379, Note_on_c, 0, 65, 0
2,55384, Note_on_c, 0, 60, 52
2,55511, Note_on_c, 0, 75, 0
2,55551, Note_on_c, 0, 63, 0
2,55557, Note_on_c, 0, 65, 58
2,55711, Note_on_c, 0, 65, 0
2,55731, Note_on_c, 0, 66, 55
2,55734, Note_on_c, 0, 75, 78
2,55795, Note_on_c, 0, 80, 0
2,55914, Note_on_c, 0, 66, 0
2,55921, Note_on_c, 0, 70, 56
2,56117, Note_on_c, 0, 68, 59
2,56122, Note_on_c, 0, 77, 78
2,56131, Note_on_c, 0, 70, 0
2,56242, Note_on_c, 0, 75, 0
2,56273, Note_on_c, 0, 68, 0
2,56274, Note_on_c, 0, 66, 56
2,56441, Note_on_c, 0, 66, 0
2,56461, Note_on_c, 0, 73, 78
2,56466, Note_on_c, 0, 65, 59
2,56488, Note_on_c, 0, 60, 0
2,56496, Note_on_c, 0, 77, 0
2,56627, Note_on_c, 0, 77, 77
2,56631, Note_on_c, 0, 63, 64
2,56641, Note_on_c, 0, 65, 0
2,56679, Note_on_c, 0, 73, 0
2,56833, Note_on_c, 0, 63, 0
2,56835, Note_on_c, 0, 61, 56
2,56840, Note_on_c, 0, 58, 50
2,56840, Note_on_c, 0, 78, 76
2,56958, Note_on_c, 0, 77, 0
2,57015, Note_on_c, 0, 63, 62
2,57024, Note_on_c, 0, 61, 0
2,57171, Note_on_c, 0, 63, 0
2,57180, Note_on_c, 0, 73, 77
2,57193, Note_on_c, 0, 65, 59
2,57236, Note_on_c, 0, 78, 0
2,57361, Note_on_c, 0, 65, 0
2,57373, Note_on_c, 0, 68, 52
2,57559, Note_on_c, 0, 66, 62
2,57567, Note_on_c, 0, 75, 70
2,57576, Note_on_c, 0, 68, 0
2,57631, Note_on_c, 0, 73, 0
2,57707, Note_on_c, 0, 66, 0
2,57728, Note_on_c, 0, 65, 59
2,57906, Note_on_c, 0, 63, 58
2,57907, Note_on_c, 0, 72, 69
2,57955, Note_on_c, 0, 65, 0
2,57964, Note_on_c, 0, 75, 0
2,58073, Note_on_c, 0, 61, 65
2,58092, Note_on_c, 0, 63, 0
2,58114, Note_on_c, 0, 58, 0
2,58256, Note_on_c, 0, 57, 43
2,58259, Note_on_c, 0, 77, 78
2,58260, Note_on_c, 0, 60, 57
2,58301, Note_on_c, 0, 61, 0
2,58370, Note_on_c, 0, 72, 0
2,58442, Note_on_c, 0, 61, 60
2,58449, Note_on_c, 0, 60, 0
2,58623, Note_on_c, 0, 61, 0
2,58630, Note_on_c, 0, 63, 54
2,58634, Note_on_c, 0, 72, 65
2,58785, Note_on_c, 0, 66, 55
2,58987, Note_on_c, 0, 73, 74
2,58993, Note_on_c, 0, 58, 57
2,59003, Note_on_c, 0, 57, 0
2,59003, Note_on_c, 0, 77, 0
2,59011, Note_on_c, 0, 65, 27
2,59012, Note_on_c, 0, 63, 0
2,59022, Note_on_c, 0, 66, 0
2,59186, Note_on_c, 0, 63, 57
2,59223, Note_on_c, 0, 65, 0
2,59287, Note_on_c, 0, 72, 0
2,59355, Note_on_c, 0, 61, 67
2,59412, Note_on_c, 0, 63, 0
2,59491, Note_on_c, 0, 58, 0
2,59512, Note_on_c, 0, 61, 0
2,59522, Note_on_c, 0, 60, 74
2,59703, Note_on_c, 0, 58, 63
2,59716, Note_on_c, 0, 65, 72
2,59734, Note_on_c, 0, 60, 0
2,59881, Note_on_c, 0, 56, 68
2,59920, Note_on_c, 0, 58, 0
2,60063, Note_on_c, 0, 56, 0
2,60066, Note_on_c, 0, 70, 76
2,60067, Note_on_c, 0, 55, 59
2,60150, Note_on_c, 0, 65, 0
2,60247, Note_on_c, 0, 55, 0
2,60249, Note_on_c, 0, 53, 58
2,60411, Note_on_c, 0, 53, 0
2,60420, Note_on_c, 0, 67, 75
2,60424, Note_on_c, 0, 51, 59
2,60514, Note_on_c, 0, 70, 0
2,60578, Note_on_c, 0, 51, 0
2,60620, Note_on_c, 0, 61, 52
2,60792, Note_on_c, 0, 60, 67
2,60799, Note_on_c, 0, 61, 0
2,60799, Note_on_c, 0, 63, 68
2,60838, Note_on_c, 0, 67, 0
2,60961, Note_on_c, 0, 58, 61
2,61013, Note_on_c, 0, 60, 0
2,61128, Note_on_c, 0, 56, 61
2,61142, Note_on_c, 0, 72, 77
2,61167, Note_on_c, 0, 58, 0
2,61226, Note_on_c, 0, 63, 0
2,61228, Note_on_c, 0, 73, 0
2,61303, Note_on_c, 0, 56, 0
2,61319, Note_on_c, 0, 55, 62
2,61506, Note_on_c, 0, 77, 81
2,61507, Note_on_c, 0, 53, 59
2,61522, Note_on_c, 0, 68, 40
2,61523, Note_on_c, 0, 55, 0
2,61559, Note_on_c, 0, 72, 0
2,61678, Note_on_c, 0, 53, 0
2,61697, Note_on_c, 0, 55, 65
2,61870, Note_on_c, 0, 74, 77
2,61884, Note_on_c, 0, 56, 62
2,61886, Note_on_c, 0, 65, 46
2,61890, Note_on_c, 0, 55, 0
2,61975, Note_on_c, 0, 77, 0
2,62018, Note_on_c, 0, 65, 0
2,62038, Note_on_c, 0, 68, 0
2,62058, Note_on_c, 0, 60, 73
2,62072, Note_on_c, 0, 56, 0
2,62241, Note_on_c, 0, 58, 71
2,62247, Note_on_c, 0, 70, 77
2,62248, Note_on_c, 0, 60, 0
2,62260, Note_on_c, 0, 62, 39
2,62382, Note_on_c, 0, 62, 0
2,62405, Note_on_c, 0, 56, 67
2,62437, Note_on_c, 0, 58, 0
2,62587, Note_on_c, 0, 55, 69
2,62587, Note_on_c, 0, 56, 0
2,62600, Note_on_c, 0, 75, 84
2,62766, Note_on_c, 0, 53, 63
2,62772, Note_on_c, 0, 55, 0
2,62816, Note_on_c, 0, 70, 0
2,62818, Note_on_c, 0, 74, 0
2,62960, Note_on_c, 0, 51, 65
2,62963, Note_on_c, 0, 67, 66
2,62974, Note_on_c, 0, 53, 0
2,63150, Note_on_c, 0, 49, 59
2,63165, Note_on_c, 0, 51, 0
2,63308, Note_on_c, 0, 48, 64
2,63322, Note_on_c, 0, 68, 56
2,63328, Note_on_c, 0, 49, 0
2,63329, Note_on_c, 0, 67, 0
2,63506, Note_on_c, 0, 68, 0
2,63508, Note_on_c, 0, 70, 53
2,63692, Note_on_c, 0, 56, 67
2,63696, Note_on_c, 0, 72, 60
2,63712, Note_on_c, 0, 70, 0
2,63751, Note_on_c, 0, 48, 0
2,63846, Note_on_c, 0, 70, 56
2,63880, Note_on_c, 0, 75, 0
2,63896, Note_on_c, 0, 72, 0
2,64043, Note_on_c, 0, 74, 60
2,64045, Note_on_c, 0, 70, 0
2,64048, Note_on_c, 0, 58, 67
2,64053, Note_on_c, 0, 68, 55
2,64091, Note_on_c, 0, 56, 0
2,64213, Note_on_c, 0, 68, 0
2,64218, Note_on_c, 0, 67, 59
2,64394, Note_on_c, 0, 46, 56
2,64402, Note_on_c, 0, 65, 51
2,64411, Note_on_c, 0, 67, 0
2,64457, Note_on_c, 0, 58, 0
2,64569, Note_on_c, 0, 74, 0
2,64583, Note_on_c, 0, 68, 56
2,64589, Note_on_c, 0, 65, 0
2,64775, Note_on_c, 0, 68, 0
2,64776, Note_on_c, 0, 51, 54
2,64785, Note_on_c, 0, 75, 60
2,64800, Note_on_c, 0, 67, 40
2,64867, Note_on_c, 0, 46, 0
2,64941, Note_on_c, 0, 67, 0
2,64969, Note_on_c, 0, 68, 50
2,65147, Note_on_c, 0, 68, 0
2,65151, Note_on_c, 0, 70, 58
2,65336, Note_on_c, 0, 67, 71
2,65362, Note_on_c, 0, 70, 0
2,65524, Note_on_c, 0, 63, 78
2,65577, Note_on_c, 0, 67, 0
2,65714, Note_on_c, 0, 53, 58
2,65794, Note_on_c, 0, 51, 0
2,65907, Note_on_c, 0, 70, 85
2,65910, Note_on_c, 0, 53, 0
2,65922, Note_on_c, 0, 55, 58
2,66096, Note_on_c, 0, 56, 64
2,66103, Note_on_c, 0, 55, 0
2,66289, Note_on_c, 0, 58, 64
2,66290, Note_on_c, 0, 67, 79
2,66330, Note_on_c, 0, 63, 0
2,66377, Note_on_c, 0, 56, 0
2,66390, Note_on_c, 0, 70, 0
2,66449, Note_on_c, 0, 58, 0
2,66466, Note_on_c, 0, 60, 69
2,66634, Note_on_c, 0, 60, 0
2,66641, Note_on_c, 0, 61, 67
2,66650, Note_on_c, 0, 63, 78
2,66683, Note_on_c, 0, 67, 0
2,66699, Note_on_c, 0, 75, 0
2,66815, Note_on_c, 0, 61, 0
2,66822, Note_on_c, 0, 60, 69
2,67016, Note_on_c, 0, 73, 80
2,67018, Note_on_c, 0, 58, 61
2,67049, Note_on_c, 0, 60, 0
2,67069, Note_on_c, 0, 63, 0
2,67202, Note_on_c, 0, 56, 61
2,67231, Note_on_c, 0, 58, 0
2,67386, Note_on_c, 0, 55, 51
2,67387, Note_on_c, 0, 70, 75
2,67398, Note_on_c, 0, 56, 0
2,67423, Note_on_c, 0, 73, 0
2,67549, Note_on_c, 0, 55, 0
2,67562, Note_on_c, 0, 58, 57
2,67757, Note_on_c, 0, 72, 68
2,67762, Note_on_c, 0, 56, 54
2,67773, Note_on_c, 0, 58, 0
2,67824, Note_on_c, 0, 70, 0
2,67931, Note_on_c, 0, 56, 0
2,67935, Note_on_c, 0, 51, 57
2,68118, Note_on_c, 0, 53, 55
2,68136, Note_on_c, 0, 51, 0
2,68284, Note_on_c, 0, 53, 0
2,68295, Note_on_c, 0, 72, 0
2,68306, Note_on_c, 0, 55, 68
2,68476, Note_on_c, 0, 56, 65
2,68493, Note_on_c, 0, 68, 78
2,68494, Note_on_c, 0, 55, 0
2,68690, Note_on_c, 0, 58, 62
2,68730, Note_on_c, 0, 56, 0
2,68843, Note_on_c, 0, 75, 83
2,68860, Note_on_c, 0, 58, 0
2,68863, Note_on_c, 0, 60, 63
2,68888, Note_on_c, 0, 68, 0
2,69025, Note_on_c, 0, 60, 0
2,69025, Note_on_c, 0, 61, 65
2,69209, Note_on_c, 0, 63, 65
2,69219, Note_on_c, 0, 72, 82
2,69240, Note_on_c, 0, 61, 0
2,69326, Note_on_c, 0, 75, 0
2,69383, Note_on_c, 0, 63, 0
2,69392, Note_on_c, 0, 65, 64
2,69567, Note_on_c, 0, 65, 0
2,69570, Note_on_c, 0, 66, 66
2,69572, Note_on_c, 0, 68, 82
2,69641, Note_on_c, 0, 72, 0
2,69737, Note_on_c, 0, 66, 0
2,69750, Note_on_c, 0, 65, 66
2,69938, Note_on_c, 0, 63, 65
2,69943, Note_on_c, 0, 78, 83
2,69948, Note_on_c, 0, 65, 0
2,69948, Note_on_c, 0, 72, 61
2,69986, Note_on_c, 0, 68, 0
2,70121, Note_on_c, 0, 61, 61
2,70135, Note_on_c, 0, 63, 0
2,70297, Note_on_c, 0, 60, 62
2,70301, Note_on_c, 0, 75, 77
2,70306, Note_on_c, 0, 61, 0
2,70344, Note_on_c, 0, 78, 0
2,70460, Note_on_c, 0, 60, 0
2,70479, Note_on_c, 0, 63, 57
2,70664, Note_on_c, 0, 61, 59
2,70665, Note_on_c, 0, 63, 0
2,70686, Note_on_c, 0, 77, 69
2,70713, Note_on_c, 0, 72, 0
2,70723, Note_on_c, 0, 75, 0
2,70861, Note_on_c, 0, 63, 53
2,70886, Note_on_c, 0, 61, 0
2,71041, Note_on_c, 0, 65, 60
2,71044, Note_on_c, 0, 68, 62
2,71063, Note_on_c, 0, 63, 0
2,71205, Note_on_c, 0, 63, 63
2,71227, Note_on_c, 0, 65, 0
2,71248, Note_on_c, 0, 77, 0
2,71257, Note_on_c, 0, 68, 0
2,71399, Note_on_c, 0, 77, 80
2,71404, Note_on_c, 0, 61, 64
2,71412, Note_on_c, 0, 70, 71
2,71494, Note_on_c, 0, 63, 0
2,71569, Note_on_c, 0, 60, 68
2,71593, Note_on_c, 0, 61, 0
2,71762, Note_on_c, 0, 79, 84
2,71765, Note_on_c, 0, 58, 61
2,71771, Note_on_c, 0, 73, 67
2,71774, Note_on_c, 0, 60, 0
2,71850, Note_on_c, 0, 77, 0
2,71859, Note_on_c, 0, 70, 0
2,71936, Note_on_c, 0, 58, 0
2,71940, Note_on_c, 0, 61, 62
2,72132, Note_on_c, 0, 60, 64
2,72132, Note_on_c, 0, 75, 82
2,72147, Note_on_c, 0, 61, 0
2,72214, Note_on_c, 0, 79, 0
2,72300, Note_on_c, 0, 60, 0
2,72304, Note_on_c, 0, 61, 64
2,72465, Note_on_c, 0, 61, 0
2,72468, Note_on_c, 0, 67, 71
2,72474, Note_on_c, 0, 63, 56
2,72627, Note_on_c, 0, 75, 0
2,72645, Note_on_c, 0, 61, 60
2,72673, Note_on_c, 0, 67, 0
2,72732, Note_on_c, 0, 63, 0
2,72823, Note_on_c, 0, 75, 76
2,72825, Note_on_c, 0, 61, 0
2,72831, Note_on_c, 0, 60, 60
2,72832, Note_on_c, 0, 69, 57
2,72853, Note_on_c, 0, 73, 0
2,73008, Note_on_c, 0, 58, 58
2,73043, Note_on_c, 0, 60, 0
2,73186, Note_on_c, 0, 57, 53
2,73189, Note_on_c, 0, 77, 75
2,73202, Note_on_c, 0, 72, 56
2,73207, Note_on_c, 0, 58, 0
2,73260, Note_on_c, 0, 69, 0
2,73287, Note_on_c, 0, 75, 0
2,73365, Note_on_c, 0, 60, 60
2,73366, Note_on_c, 0, 57, 0
2,73552, Note_on_c, 0, 58, 59
2,73566, Note_on_c, 0, 73, 68
2,73578, Note_on_c, 0, 60, 0
2,73762, Note_on_c, 0, 58, 0
2,73765, Note_on_c, 0, 60, 56
2,73861, Note_on_c, 0, 77, 0
2,73919, Note_on_c, 0, 60, 0
2,73924, Note_on_c, 0, 61, 65
2,73933, Note_on_c, 0, 65, 56
2,74065, Note_on_c, 0, 65, 0
2,74072, Note_on_c, 0, 72, 0
2,74089, Note_on_c, 0, 61, 0
2,74093, Note_on_c, 0, 60, 72
2,74129, Note_on_c, 0, 73, 0
2,74274, Note_on_c, 0, 58, 68
2,74285, Note_on_c, 0, 73, 82
2,74290, Note_on_c, 0, 70, 64
2,74302, Note_on_c, 0, 60, 0
2,74455, Note_on_c, 0, 56, 67
2,74502, Note_on_c, 0, 58, 0
2,74638, Note_on_c, 0, 55, 64
2,74642, Note_on_c, 0, 82, 85
2,74665, Note_on_c, 0, 56, 0
2,74728, Note_on_c, 0, 73, 0
2,74822, Note_on_c, 0, 58, 64
2,74831, Note_on_c, 0, 55, 0
2,75000, Note_on_c, 0, 56, 65
2,75003, Note_on_c, 0, 58, 0
2,75006, Note_on_c, 0, 72, 79
2,75056, Note_on_c, 0, 82, 0
2,75169, Note_on_c, 0, 56, 0
2,75175, Note_on_c, 0, 58, 66
2,75358, Note_on_c, 0, 56, 68
2,75359, Note_on_c, 0, 73, 85
2,75370, Note_on_c, 0, 70, 0
2,75389, Note_on_c, 0, 72, 0
2,75407, Note_on_c, 0, 58, 0
2,75528, Note_on_c, 0, 56, 0
2,75528, Note_on_c, 0, 70, 79
2,75531, Note_on_c, 0, 55, 73
2,75627, Note_on_c, 0, 70, 0
2,75708, Note_on_c, 0, 53, 74
2,75717, Note_on_c, 0, 68, 71
2,75718, Note_on_c, 0, 72, 79
2,75728, Note_on_c, 0, 55, 0
2,75850, Note_on_c, 0, 73, 0
2,75886, Note_on_c, 0, 51, 76
2,75901, Note_on_c, 0, 53, 0
2,76076, Note_on_c, 0, 53, 74
2,76085, Note_on_c, 0, 80, 78
2,76097, Note_on_c, 0, 51, 0
2,76156, Note_on_c, 0, 68, 0
2,76162, Note_on_c, 0, 72, 0
2,76250, Note_on_c, 0, 49, 77
2,76260, Note_on_c, 0, 53, 0
2,76441, Note_on_c, 0, 51, 79
2,76448, Note_on_c, 0, 70, 68
2,76453, Note_on_c, 0, 49, 0
2,76568, Note_on_c, 0, 80, 0
2,76617, Note_on_c, 0, 49, 73
2,76627, Note_on_c, 0, 67, 65
2,76665, Note_on_c, 0, 51, 0
2,76806, Note_on_c, 0, 48, 74
2,76817, Note_on_c, 0, 49, 0
2,76820, Note_on_c, 0, 68, 66
2,76820, Note_on_c, 0, 70, 0
2,76845, Note_on_c, 0, 67, 0
2,76976, Note_on_c, 0, 46, 78
2,76984, Note_on_c, 0, 70, 68
2,77004, Note_on_c, 0, 68, 0
2,77008, Note_on_c, 0, 48, 0
2,77144, Note_on_c, 0, 70, 0
2,77166, Note_on_c, 0, 44, 82
2,77172, Note_on_c, 0, 72, 61
2,77226, Note_on_c, 0, 46, 0
2,77352, Note_on_c, 0, 75, 66
2,77556, Note_on_c, 0, 77, 67
2,77564, Note_on_c, 0, 51, 82
2,77697, Note_on_c, 0, 44, 0
2,77701, Note_on_c, 0, 75, 0
2,77728, Note_on_c, 0, 79, 71
2,77737, Note_on_c, 0, 77, 0
2,77924, Note_on_c, 0, 80, 62
2,77927, Note_on_c, 0, 48, 73
2,77965, Note_on_c, 0, 79, 0
2,78027, Note_on_c, 0, 51, 0
2,78114, Note_on_c, 0, 73, 60
2,78150, Note_on_c, 0, 72, 0
2,78302, Note_on_c, 0, 75, 63
2,78303, Note_on_c, 0, 44, 72
2,78317, Note_on_c, 0, 73, 0
2,78354, Note_on_c, 0, 48, 0
2,78360, Note_on_c, 0, 80, 0
2,78360, Note_on_c, 0, 80, 4
2,78479, Note_on_c, 0, 72, 64
2,78479, Note_on_c, 0, 75, 0
2,78665, Note_on_c, 0, 53, 72
2,78685, Note_on_c, 0, 73, 61
2,78730, Note_on_c, 0, 80, 0
2,78760, Note_on_c, 0, 44, 0
2,78833, Note_on_c, 0, 72, 0
2,78840, Note_on_c, 0, 79, 67
2,79027, Note_on_c, 0, 49, 69
2,79029, Note_on_c, 0, 77, 64
2,79053, Note_on_c, 0, 79, 0
2,79100, Note_on_c, 0, 53, 0
2,79209, Note_on_c, 0, 77, 0
2,79212, Note_on_c, 0, 80, 66
2,79355, Note_on_c, 0, 80, 0
2,79401, Note_on_c, 0, 79, 59
2,79407, Note_on_c, 0, 51, 73
2,79490, Note_on_c, 0, 49, 0
2,79562, Note_on_c, 0, 73, 0
2,79574, Note_on_c, 0, 72, 61
2,79764, Note_on_c, 0, 70, 70
2,79818, Note_on_c, 0, 72, 0
2,79929, Note_on_c, 0, 51, 0
2,79937, Note_on_c, 0, 73, 71
2,80104, Note_on_c, 0, 55, 72
2,80106, Note_on_c, 0, 52, 61
2,80106, Note_on_c, 0, 72, 72
2,80112, Note_on_c, 0, 70, 0
2,80162, Note_on_c, 0, 73, 0
2,80281, Note_on_c, 0, 58, 49
2,80326, Note_on_c, 0, 58, 0
2,80461, Note_on_c, 0, 55, 0
2,80470, Note_on_c, 0, 60, 82
2,80476, Note_on_c, 0, 56, 67
2,80631, Note_on_c, 0, 52, 0
2,80642, Note_on_c, 0, 56, 0
2,80651, Note_on_c, 0, 55, 57
2,80850, Note_on_c, 0, 56, 76
2,80857, Note_on_c, 0, 53, 48
2,80917, Note_on_c, 0, 55, 0
2,80943, Note_on_c, 0, 60, 0
2,80979, Note_on_c, 0, 53, 0
2,81034, Note_on_c, 0, 70, 65
2,81084, Note_on_c, 0, 72, 0
2,81213, Note_on_c, 0, 68, 64
2,81218, Note_on_c, 0, 53, 70
2,81256, Note_on_c, 0, 70, 0
2,81296, Note_on_c, 0, 56, 0
2,81379, Note_on_c, 0, 68, 0
2,81392, Note_on_c, 0, 67, 65
2,81409, Note_on_c, 0, 79, 0
2,81589, Note_on_c, 0, 62, 72
2,81604, Note_on_c, 0, 68, 58
2,81647, Note_on_c, 0, 67, 0
2,81770, Note_on_c, 0, 72, 61
2,81781, Note_on_c, 0, 68, 0
2,81947, Note_on_c, 0, 59, 72
2,81948, Note_on_c, 0, 77, 56
2,81979, Note_on_c, 0, 72, 0
2,81989, Note_on_c, 0, 62, 0
2,82007, Note_on_c, 0, 53, 0
2,82124, Note_on_c, 0, 68, 52
2,82299, Note_on_c, 0, 60, 66
2,82305, Note_on_c, 0, 68, 0
2,82310, Note_on_c, 0, 48, 54
2,82312, Note_on_c, 0, 67, 61
2,82331, Note_on_c, 0, 59, 0
2,82473, Note_on_c, 0, 51, 62
2,82481, Note_on_c, 0, 75, 65
2,82561, Note_on_c, 0, 60, 0
2,82575, Note_on_c, 0, 77, 0
2,82646, Note_on_c, 0, 53, 61
2,82658, Note_on_c, 0, 73, 71
2,82709, Note_on_c, 0, 75, 0
2,82782, Note_on_c, 0, 67, 0
2,82828, Note_on_c, 0, 73, 0
2,82833, Note_on_c, 0, 77, 72
2,82839, Note_on_c, 0, 51, 0
2,82840, Note_on_c, 0, 55, 59
2,82845, Note_on_c, 0, 53, 0
2,83037, Note_on_c, 0, 56, 61
2,83038, Note_on_c, 0, 63, 71
2,83038, Note_on_c, 0, 75, 74
2,83047, Note_on_c, 0, 77, 0
2,83084, Note_on_c, 0, 55, 0
2,83213, Note_on_c, 0, 58, 59
2,83227, Note_on_c, 0, 56, 0
2,83384, Note_on_c, 0, 60, 58
2,83386, Note_on_c, 0, 68, 78
2,83400, Note_on_c, 0, 58, 0
2,83484, Note_on_c, 0, 63, 0
2,83548, Note_on_c, 0, 58, 51
2,83577, Note_on_c, 0, 48, 0
2,83595, Note_on_c, 0, 60, 0
2,83762, Note_on_c, 0, 65, 69
2,83768, Note_on_c, 0, 56, 54
2,83774, Note_on_c, 0, 49, 44
2,83857, Note_on_c, 0, 58, 0
2,83903, Note_on_c, 0, 68, 0
2,83912, Note_on_c, 0, 56, 0
2,83951, Note_on_c, 0, 55, 57
2,84105, Note_on_c, 0, 55, 0
2,84125, Note_on_c, 0, 53, 52
2,84127, Note_on_c, 0, 61, 78
2,84232, Note_on_c, 0, 65, 0
2,84261, Note_on_c, 0, 75, 0
2,84267, Note_on_c, 0, 53, 0
2,84300, Note_on_c, 0, 55, 52
2,84473, Note_on_c, 0, 55, 0
2,84486, Note_on_c, 0, 70, 74
2,84487, Note_on_c, 0, 56, 55
2,84488, Note_on_c, 0, 73, 77
2,84644, Note_on_c, 0, 56, 0
2,84665, Note_on_c, 0, 55, 58
2,84830, Note_on_c, 0, 55, 0
2,84842, Note_on_c, 0, 53, 58
2,84845, Note_on_c, 0, 67, 78
2,84888, Note_on_c, 0, 61, 0
2,84921, Note_on_c, 0, 70, 0
2,84987, Note_on_c, 0, 49, 0
2,85015, Note_on_c, 0, 51, 60
2,85046, Note_on_c, 0, 53, 0
2,85202, Note_on_c, 0, 51, 0
2,85204, Note_on_c, 0, 68, 73
2,85208, Note_on_c, 0, 53, 57
2,85214, Note_on_c, 0, 67, 0
2,85218, Note_on_c, 0, 44, 54
2,85390, Note_on_c, 0, 72, 66
2,85397, Note_on_c, 0, 51, 56
2,85407, Note_on_c, 0, 53, 0
2,85427, Note_on_c, 0, 73, 0
2,85553, Note_on_c, 0, 51, 0
2,85564, Note_on_c, 0, 70, 79
2,85565, Note_on_c, 0, 49, 53
2,85589, Note_on_c, 0, 72, 0
2,85738, Note_on_c, 0, 53, 60
2,85740, Note_on_c, 0, 49, 0
2,85740, Note_on_c, 0, 73, 85
2,85767, Note_on_c, 0, 70, 0
2,85913, Note_on_c, 0, 44, 0
2,85922, Note_on_c, 0, 51, 61
2,85929, Note_on_c, 0, 72, 76
2,85981, Note_on_c, 0, 73, 0
2,86003, Note_on_c, 0, 68, 0
2,86019, Note_on_c, 0, 53, 0
2,86110, Note_on_c, 0, 41, 67
2,86144, Note_on_c, 0, 51, 0
2,86292, Note_on_c, 0, 43, 64
2,86293, Note_on_c, 0, 77, 83
2,86305, Note_on_c, 0, 41, 0
2,86369, Note_on_c, 0, 72, 0
2,86463, Note_on_c, 0, 44, 66
2,86469, Note_on_c, 0, 43, 0
2,86651, Note_on_c, 0, 46, 62
2,86651, Note_on_c, 0, 73, 84
2,86674, Note_on_c, 0, 44, 0
2,86774, Note_on_c, 0, 77, 0
2,86798, Note_on_c, 0, 46, 0
2,86819, Note_on_c, 0, 48, 64
2,86998, Note_on_c, 0, 49, 62
2,87000, Note_on_c, 0, 70, 76
2,87003, Note_on_c, 0, 48, 0
2,87064, Note_on_c, 0, 73, 0
2,87174, Note_on_c, 0, 49, 0
2,87185, Note_on_c, 0, 51, 59
2,87369, Note_on_c, 0, 49, 57
2,87370, Note_on_c, 0, 78, 78
2,87446, Note_on_c, 0, 51, 0
2,87531, Note_on_c, 0, 49, 0
2,87551, Note_on_c, 0, 48, 61
2,87740, Note_on_c, 0, 75, 73
2,87753, Note_on_c, 0, 72, 53
2,87755, Note_on_c, 0, 46, 55
2,87773, Note_on_c, 0, 78, 0
2,87785, Note_on_c, 0, 48, 0
2,87822, Note_on_c, 0, 70, 0
2,87901, Note_on_c, 0, 46, 0
2,87911, Note_on_c, 0, 44, 56
2,88072, Note_on_c, 0, 44, 0
2,88099, Note_on_c, 0, 77, 70
2,88100, Note_on_c, 0, 49, 51
2,88113, Note_on_c, 0, 68, 37
2,88161, Note_on_c, 0, 75, 0
2,88186, Note_on_c, 0, 72, 0
2,88269, Note_on_c, 0, 49, 0
2,88291, Note_on_c, 0, 48, 32
2,88458, Note_on_c, 0, 73, 52
2,88461, Note_on_c, 0, 49, 51
2,88480, Note_on_c, 0, 48, 0
2,88640, Note_on_c, 0, 49, 0
2,88642, Note_on_c, 0, 53, 54
2,88823, Note_on_c, 0, 80, 82
2,88835, Note_on_c, 0, 51, 63
2,88871, Note_on_c, 0, 53, 0
2,88923, Note_on_c, 0, 73, 0
2,88923, Note_on_c, 0, 77, 0
2,88997, Note_on_c, 0, 50, 73
2,89062, Note_on_c, 0, 51, 0
2,89191, Note_on_c, 0, 48, 73
2,89201, Note_on_c, 0, 77, 83
2,89208, Note_on_c, 0, 74, 73
2,89231, Note_on_c, 0, 50, 0
2,89258, Note_on_c, 0, 80, 0
2,89308, Note_on_c, 0, 68, 0
2,89374, Note_on_c, 0, 46, 72
2,89385, Note_on_c, 0, 48, 0
2,89555, Note_on_c, 0, 79, 85
2,89559, Note_on_c, 0, 51, 73
2,89561, Note_on_c, 0, 70, 64
2,89646, Note_on_c, 0, 74, 0
2,89717, Note_on_c, 0, 50, 75
2,89727, Note_on_c, 0, 51, 0
2,89768, Note_on_c, 0, 46, 0
2,89846, Note_on_c, 0, 77, 0
2,89903, Note_on_c, 0, 51, 79
2,89907, Note_on_c, 0, 75, 83
2,89938, Note_on_c, 0, 79, 0
2,89945, Note_on_c, 0, 50, 0
2,90072, Note_on_c, 0, 55, 74
2,90106, Note_on_c, 0, 51, 0
2,90252, Note_on_c, 0, 82, 86
2,90265, Note_on_c, 0, 53, 75
2,90301, Note_on_c, 0, 55, 0
2,90354, Note_on_c, 0, 75, 0
2,90431, Note_on_c, 0, 52, 76
2,90466, Note_on_c, 0, 53, 0
2,90615, Note_on_c, 0, 79, 80
2,90623, Note_on_c, 0, 50, 78
2,90623, Note_on_c, 0, 76, 61
2,90654, Note_on_c, 0, 52, 0
2,90669, Note_on_c, 0, 82, 0
2,90746, Note_on_c, 0, 70, 0
2,90792, Note_on_c, 0, 48, 76
2,90824, Note_on_c, 0, 50, 0
2,90934, Note_on_c, 0, 79, 0
2,90986, Note_on_c, 0, 53, 75
2,90987, Note_on_c, 0, 80, 82
2,90997, Note_on_c, 0, 72, 54
2,91006, Note_on_c, 0, 77, 41
2,91060, Note_on_c, 0, 77, 0
2,91070, Note_on_c, 0, 76, 0
2,91143, Note_on_c, 0, 48, 0
2,91158, Note_on_c, 0, 53, 0
2,91158, Note_on_c, 0, 55, 75
2,91354, Note_on_c, 0, 77, 83
2,91356, Note_on_c, 0, 56, 72
2,91388, Note_on_c, 0, 80, 0
2,91404, Note_on_c, 0, 55, 0
2,91513, Note_on_c, 0, 53, 72
2,91533, Note_on_c, 0, 56, 0
2,91705, Note_on_c, 0, 73, 84
2,91711, Note_on_c, 0, 58, 74
2,91830, Note_on_c, 0, 77, 0
2,91845, Note_on_c, 0, 72, 0
2,91869, Note_on_c, 0, 56, 70
2,91888, Note_on_c, 0, 53, 0
2,91910, Note_on_c, 0, 58, 0
2,92053, Note_on_c, 0, 70, 72
2,92056, Note_on_c, 0, 55, 70
2,92065, Note_on_c, 0, 56, 0
2,92233, Note_on_c, 0, 53, 72
2,92256, Note_on_c, 0, 55, 0
2,92406, Note_on_c, 0, 51, 74
2,92421, Note_on_c, 0, 67, 76
2,92465, Note_on_c, 0, 53, 0
2,92578, Note_on_c, 0, 49, 71
2,92626, Note_on_c, 0, 70, 0
2,92640, Note_on_c, 0, 67, 0
2,92647, Note_on_c, 0, 51, 0
2,92757, Note_on_c, 0, 75, 83
2,92760, Note_on_c, 0, 48, 73
2,92770, Note_on_c, 0, 49, 0
2,92771, Note_on_c, 0, 67, 66
2,92773, Note_on_c, 0, 70, 62
2,92825, Note_on_c, 0, 73, 0
2,92841, Note_on_c, 0, 70, 0
2,92945, Note_on_c, 0, 46, 76
2,92982, Note_on_c, 0, 48, 0
2,93112, Note_on_c, 0, 44, 79
2,93117, Note_on_c, 0, 72, 79
2,93131, Note_on_c, 0, 68, 60
2,93151, Note_on_c, 0, 46, 0
2,93273, Note_on_c, 0, 75, 0
2,93284, Note_on_c, 0, 67, 0
2,93288, Note_on_c, 0, 46, 81
2,93295, Note_on_c, 0, 68, 0
2,93384, Note_on_c, 0, 44, 0
2,93461, Note_on_c, 0, 48, 78
2,93465, Note_on_c, 0, 77, 85
2,93477, Note_on_c, 0, 65, 59
2,93479, Note_on_c, 0, 68, 62
2,93486, Note_on_c, 0, 46, 0
2,93591, Note_on_c, 0, 72, 0
2,93601, Note_on_c, 0, 68, 0
2,93611, Note_on_c, 0, 65, 0
2,93644, Note_on_c, 0, 49, 80
2,93668, Note_on_c, 0, 48, 0
2,93836, Note_on_c, 0, 51, 82
2,93836, Note_on_c, 0, 72, 76
2,93846, Note_on_c, 0, 63, 66
2,93849, Note_on_c, 0, 68, 72
2,93851, Note_on_c, 0, 49, 0
2,93889, Note_on_c, 0, 77, 0
2,94021, Note_on_c, 0, 49, 81
2,94164, Note_on_c, 0, 51, 0
2,94189, Note_on_c, 0, 48, 80
2,94220, Note_on_c, 0, 49, 0
2,94240, Note_on_c, 0, 63, 0
2,94375, Note_on_c, 0, 49, 80
2,94402, Note_on_c, 0, 48, 0
2,94593, Note_on_c, 0, 70, 80
2,94594, Note_on_c, 0, 51, 76
2,94605, Note_on_c, 0, 61, 57
2,94617, Note_on_c, 0, 72, 0
2,94644, Note_on_c, 0, 49, 0
2,94736, Note_on_c, 0, 68, 0
2,94993, Note_on_c, 0, 39, 71
2,94995, Note_on_c, 0, 67, 67
2,95106, Note_on_c, 0, 51, 0
2,95435, Note_on_c, 0, 61, 0
2,95496, Note_on_c, 0, 60, 50
2,95502, Note_on_c, 0, 41, 56
2,95507, Note_on_c, 0, 65, 66
2,95593, Note_on_c, 0, 39, 0
2,95635, Note_on_c, 0, 67, 0
2,95950, Note_on_c, 0, 68, 59
2,95957, Note_on_c, 0, 65, 0
2,96147, Note_on_c, 0, 67, 80
2,96161, Note_on_c, 0, 70, 0
2,96179, Note_on_c, 0, 68, 0
2,96353, Note_on_c, 0, 68, 81
2,96430, Note_on_c, 0, 60, 0
2,96437, Note_on_c, 0, 67, 0
2,96527, Note_on_c, 0, 39, 56
2,96544, Note_on_c, 0, 41, 0
2,96726, Note_on_c, 0, 75, 81
2,96735, Note_on_c, 0, 70, 66
2,96736, Note_on_c, 0, 41, 59
2,96748, Note_on_c, 0, 63, 41
2,96829, Note_on_c, 0, 68, 0
2,96855, Note_on_c, 0, 39, 0
2,96863, Note_on_c, 0, 63, 0
2,96864, Note_on_c, 0, 70, 0
2,96888, Note_on_c, 0, 41, 0
2,96921, Note_on_c, 0, 43, 64
2,97109, Note_on_c, 0, 72, 80
2,97116, Note_on_c, 0, 44, 65
2,97145, Note_on_c, 0, 43, 0
2,97256, Note_on_c, 0, 75, 0
2,97301, Note_on_c, 0, 46, 67
2,97342, Note_on_c, 0, 44, 0
2,97482, Note_on_c, 0, 46, 0
2,97496, Note_on_c, 0, 48, 69
2,97496, Note_on_c, 0, 68, 84
2,97594, Note_on_c, 0, 72, 0
2,97668, Note_on_c, 0, 51, 69
2,97702, Note_on_c, 0, 48, 0
2,97864, Note_on_c, 0, 49, 59
2,97868, Note_on_c, 0, 77, 88
2,98022, Note_on_c, 0, 51, 0
2,98027, Note_on_c, 0, 68, 0
2,98033, Note_on_c, 0, 48, 66
2,98038, Note_on_c, 0, 49, 0
2,98241, Note_on_c, 0, 73, 85
2,98256, Note_on_c, 0, 70, 65
2,98257, Note_on_c, 0, 46, 67
2,98263, Note_on_c, 0, 65, 53
2,98280, Note_on_c, 0, 48, 0
2,98339, Note_on_c, 0, 77, 0
2,98383, Note_on_c, 0, 65, 0
2,98416, Note_on_c, 0, 70, 0
2,98425, Note_on_c, 0, 44, 65
2,98586, Note_on_c, 0, 46, 0
2,98607, Note_on_c, 0, 75, 83
2,98614, Note_on_c, 0, 70, 66
2,98618, Note_on_c, 0, 43, 65
2,98623, Note_on_c, 0, 63, 49
2,98625, Note_on_c, 0, 44, 0
2,98741, Note_on_c, 0, 70, 0
2,98757, Note_on_c, 0, 73, 0
2,98803, Note_on_c, 0, 41, 65
2,98814, Note_on_c, 0, 43, 0
2,98994, Note_on_c, 0, 67, 77
2,99000, Note_on_c, 0, 39, 63
2,99026, Note_on_c, 0, 41, 0
2,99064, Note_on_c, 0, 63, 0
2,99180, Note_on_c, 0, 37, 62
2,99200, Note_on_c, 0, 39, 0
2,99383, Note_on_c, 0, 36, 63
2,99386, Note_on_c, 0, 68, 77
2,99393, Note_on_c, 0, 37, 0
2,99419, Note_on_c, 0, 75, 0
2,99448, Note_on_c, 0, 67, 0
2,99581, Note_on_c, 0, 39, 61
2,99609, Note_on_c, 0, 36, 0
2,99780, Note_on_c, 0, 65, 66
2,99786, Note_on_c, 0, 37, 65
2,99788, Note_on_c, 0, 58, 61
2,99797, Note_on_c, 0, 39, 0
2,99961, Note_on_c, 0, 58, 0
2,99985, Note_on_c, 0, 41, 66
2,100234, Note_on_c, 0, 39, 63
2,100236, Note_on_c, 0, 58, 76
2,100245, Note_on_c, 0, 37, 0
2,100257, Note_on_c, 0, 65, 0
2,100260, Note_on_c, 0, 41, 0
2,100504, Note_on_c, 0, 60, 68
2,100755, Note_on_c, 0, 61, 66
2,100778, Note_on_c, 0, 60, 0
2,101003, Note_on_c, 0, 65, 63
2,101008, Note_on_c, 0, 61, 0
2,101082, Note_on_c, 0, 68, 0
2,101262, Note_on_c, 0, 67, 71
2,101264, Note_on_c, 0, 51, 57
2,101264, Note_on_c, 0, 63, 58
2,101295, Note_on_c, 0, 65, 0
2,101560, Note_on_c, 0, 61, 62
2,101592, Note_on_c, 0, 58, 0
2,101885, Note_on_c, 0, 60, 60
2,101909, Note_on_c, 0, 61, 0
2,102248, Note_on_c, 0, 61, 59
2,102272, Note_on_c, 0, 51, 0
2,102316, Note_on_c, 0, 60, 0
2,102316, Note_on_c, 0, 63, 0
2,102329, Note_on_c, 0, 67, 0
2,102753, Note_on_c, 0, 68, 60
2,102762, Note_on_c, 0, 44, 54
2,102762, Note_on_c, 0, 60, 55
2,102769, Note_on_c, 0, 51, 49
2,102793, Note_on_c, 0, 61, 0
2,102811, Note_on_c, 0, 39, 0
2,105158, Note_on_c, 0, 60, 0
2,105166, Note_on_c, 0, 44, 0
2,105195, Note_on_c, 0, 51, 0
2,105195, Note_on_c, 0, 68, 0
2,105196, End_track
0, 0, End_of_file
