0, 0, Header, 1, 2, 384
1, 0, Start_track
1, 0, Tempo, 500000
1, 0, Time_signature, 4, 2, 24, 8
1, 1, End_track
2, 0, Start_track
2, 0, Title_t," ""7.6.13 Group 1"""
2, 0, Program_c, 0, 0
2, 0, Control_c, 0, 64, 0
2, 0, Control_c, 0, 66, 0
2, 0, Control_c, 0, 67, 0
2, 755, Note_on_c, 0, 56, 62
2, 756, Note_on_c, 0, 63, 68
2, 759, Note_on_c, 0, 60, 70
2, 994, Note_on_c, 0, 68, 72
2, 1057, Note_on_c, 0, 68, 0
2, 1071, Note_on_c, 0, 67, 72
2, 1155, Note_on_c, 0, 68, 85
2, 1163, Note_on_c, 0, 67, 0
2, 1188, Note_on_c, 0, 68, 0
2, 1206, Note_on_c, 0, 60, 0
2, 1210, Note_on_c, 0, 63, 0
2, 1224, Note_on_c, 0, 56, 0
2, 1359, Note_on_c, 0, 72, 82
2, 1405, Note_on_c, 0, 72, 0
2, 1567, Note_on_c, 0, 63, 73
2, 1598, Note_on_c, 0, 63, 0
2, 1772, Note_on_c, 0, 68, 73
2, 1937, Note_on_c, 0, 68, 0
2, 1974, Note_on_c, 0, 63, 73
2, 1980, Note_on_c, 0, 58, 68
2, 1981, Note_on_c, 0, 55, 63
2, 2173, Note_on_c, 0, 70, 78
2, 2246, Note_on_c, 0, 70, 0
2, 2252, Note_on_c, 0, 68, 82
2, 2346, Note_on_c, 0, 68, 0
2, 2347, Note_on_c, 0, 70, 88
2, 2398, Note_on_c, 0, 55, 0
2, 2398, Note_on_c, 0, 63, 0
2, 2398, Note_on_c, 0, 70, 0
2, 2420, Note_on_c, 0, 58, 0
2, 2550, Note_on_c, 0, 73, 88
2, 2601, Note_on_c, 0, 73, 0
2, 2747, Note_on_c, 0, 63, 84
2, 2792, Note_on_c, 0, 63, 0
2, 2934, Note_on_c, 0, 70, 83
2, 2990, Note_on_c, 0, 70, 0
2, 3124, Note_on_c, 0, 72, 89
2, 3322, Note_on_c, 0, 72, 0
2, 3347, Note_on_c, 0, 56, 73
2, 3427, Note_on_c, 0, 56, 0
2, 3432, Note_on_c, 0, 55, 68
2, 3508, Note_on_c, 0, 56, 81
2, 3509, Note_on_c, 0, 80, 92
2, 3520, Note_on_c, 0, 55, 0
2, 3521, Note_on_c, 0, 72, 70
2, 3527, Note_on_c, 0, 75, 68
2, 3536, Note_on_c, 0, 56, 0
2, 3723, Note_on_c, 0, 60, 76
2, 3759, Note_on_c, 0, 60, 0
2, 3905, Note_on_c, 0, 51, 71
2, 3931, Note_on_c, 0, 72, 0
2, 3936, Note_on_c, 0, 80, 0
2, 3943, Note_on_c, 0, 75, 0
2, 3951, Note_on_c, 0, 51, 0
2, 4102, Note_on_c, 0, 75, 78
2, 4110, Note_on_c, 0, 56, 65
2, 4114, Note_on_c, 0, 72, 56
2, 4144, Note_on_c, 0, 72, 0
2, 4154, Note_on_c, 0, 75, 0
2, 4222, Note_on_c, 0, 56, 0
2, 4296, Note_on_c, 0, 73, 75
2, 4302, Note_on_c, 0, 70, 64
2, 4499, Note_on_c, 0, 58, 61
2, 4570, Note_on_c, 0, 58, 0
2, 4595, Note_on_c, 0, 56, 60
2, 4655, Note_on_c, 0, 56, 0
2, 4667, Note_on_c, 0, 79, 79
2, 4685, Note_on_c, 0, 58, 61
2, 4717, Note_on_c, 0, 58, 0
2, 4868, Note_on_c, 0, 61, 70
2, 4902, Note_on_c, 0, 61, 0
2, 4987, Note_on_c, 0, 70, 0
2, 5022, Note_on_c, 0, 73, 0
2, 5047, Note_on_c, 0, 79, 0
2, 5054, Note_on_c, 0, 51, 71
2, 5104, Note_on_c, 0, 51, 0
2, 5233, Note_on_c, 0, 79, 82
2, 5238, Note_on_c, 0, 70, 71
2, 5239, Note_on_c, 0, 58, 78
2, 5244, Note_on_c, 0, 73, 70
2, 5270, Note_on_c, 0, 70, 0
2, 5280, Note_on_c, 0, 73, 0
2, 5291, Note_on_c, 0, 79, 0
2, 5398, Note_on_c, 0, 58, 0
2, 5427, Note_on_c, 0, 80, 87
2, 5429, Note_on_c, 0, 68, 74
2, 5429, Note_on_c, 0, 75, 72
2, 5545, Note_on_c, 0, 75, 0
2, 5650, Note_on_c, 0, 60, 83
2, 5731, Note_on_c, 0, 60, 0
2, 5737, Note_on_c, 0, 58, 84
2, 5800, Note_on_c, 0, 58, 0
2, 5811, Note_on_c, 0, 75, 87
2, 5827, Note_on_c, 0, 60, 77
2, 5851, Note_on_c, 0, 60, 0
2, 5862, Note_on_c, 0, 80, 0
2, 5878, Note_on_c, 0, 68, 0
2, 6005, Note_on_c, 0, 63, 75
2, 6042, Note_on_c, 0, 63, 0
2, 6147, Note_on_c, 0, 75, 0
2, 6194, Note_on_c, 0, 56, 76
2, 6238, Note_on_c, 0, 56, 0
2, 6389, Note_on_c, 0, 60, 74
2, 6398, Note_on_c, 0, 75, 70
2, 6404, Note_on_c, 0, 70, 57
2, 6414, Note_on_c, 0, 60, 0
2, 6428, Note_on_c, 0, 75, 0
2, 6430, Note_on_c, 0, 70, 0
2, 6570, Note_on_c, 0, 75, 77
2, 6572, Note_on_c, 0, 53, 69
2, 6584, Note_on_c, 0, 68, 58
2, 6607, Note_on_c, 0, 68, 0
2, 6611, Note_on_c, 0, 75, 0
2, 6774, Note_on_c, 0, 80, 76
2, 6849, Note_on_c, 0, 79, 75
2, 6853, Note_on_c, 0, 80, 0
2, 6945, Note_on_c, 0, 80, 78
2, 6949, Note_on_c, 0, 65, 62
2, 6949, Note_on_c, 0, 79, 0
2, 6971, Note_on_c, 0, 80, 0
2, 7137, Note_on_c, 0, 53, 0
2, 7148, Note_on_c, 0, 77, 79
2, 7200, Note_on_c, 0, 77, 0
2, 7320, Note_on_c, 0, 65, 0
2, 7348, Note_on_c, 0, 72, 72
2, 7380, Note_on_c, 0, 72, 0
2, 7523, Note_on_c, 0, 75, 75
2, 7580, Note_on_c, 0, 75, 0
2, 7725, Note_on_c, 0, 73, 71
2, 7739, Note_on_c, 0, 70, 56
2, 7938, Note_on_c, 0, 58, 59
2, 7993, Note_on_c, 0, 58, 0
2, 8032, Note_on_c, 0, 56, 63
2, 8098, Note_on_c, 0, 56, 0
2, 8106, Note_on_c, 0, 58, 71
2, 8115, Note_on_c, 0, 80, 73
2, 8142, Note_on_c, 0, 58, 0
2, 8311, Note_on_c, 0, 61, 69
2, 8331, Note_on_c, 0, 70, 0
2, 8347, Note_on_c, 0, 61, 0
2, 8388, Note_on_c, 0, 73, 0
2, 8495, Note_on_c, 0, 55, 73
2, 8535, Note_on_c, 0, 55, 0
2, 8538, Note_on_c, 0, 80, 0
2, 8691, Note_on_c, 0, 73, 76
2, 8696, Note_on_c, 0, 68, 67
2, 8697, Note_on_c, 0, 58, 71
2, 8727, Note_on_c, 0, 58, 0
2, 8727, Note_on_c, 0, 68, 0
2, 8746, Note_on_c, 0, 73, 0
2, 8884, Note_on_c, 0, 73, 77
2, 8886, Note_on_c, 0, 51, 79
2, 8889, Note_on_c, 0, 67, 71
2, 8917, Note_on_c, 0, 67, 0
2, 8928, Note_on_c, 0, 73, 0
2, 9085, Note_on_c, 0, 82, 79
2, 9172, Note_on_c, 0, 80, 84
2, 9181, Note_on_c, 0, 82, 0
2, 9269, Note_on_c, 0, 63, 86
2, 9275, Note_on_c, 0, 82, 89
2, 9282, Note_on_c, 0, 80, 0
2, 9327, Note_on_c, 0, 82, 0
2, 9361, Note_on_c, 0, 51, 0
2, 9478, Note_on_c, 0, 79, 85
2, 9485, Note_on_c, 0, 63, 0
2, 9532, Note_on_c, 0, 79, 0
2, 9675, Note_on_c, 0, 73, 85
2, 9724, Note_on_c, 0, 73, 0
2, 9859, Note_on_c, 0, 67, 84
2, 9860, Note_on_c, 0, 82, 79
2, 9861, Note_on_c, 0, 73, 83
2, 9888, Note_on_c, 0, 73, 0
2, 9892, Note_on_c, 0, 82, 0
2, 10029, Note_on_c, 0, 67, 0
2, 10057, Note_on_c, 0, 72, 81
2, 10073, Note_on_c, 0, 68, 70
2, 10278, Note_on_c, 0, 56, 80
2, 10287, Note_on_c, 0, 68, 0
2, 10302, Note_on_c, 0, 72, 0
2, 10353, Note_on_c, 0, 55, 82
2, 10354, Note_on_c, 0, 56, 0
2, 10437, Note_on_c, 0, 55, 0
2, 10438, Note_on_c, 0, 56, 91
2, 10473, Note_on_c, 0, 56, 0
2, 10534, Note_on_c, 0, 75, 89
2, 10624, Note_on_c, 0, 77, 90
2, 10635, Note_on_c, 0, 60, 75
2, 10648, Note_on_c, 0, 75, 0
2, 10665, Note_on_c, 0, 60, 0
2, 10714, Note_on_c, 0, 79, 87
2, 10729, Note_on_c, 0, 77, 0
2, 10814, Note_on_c, 0, 80, 88
2, 10816, Note_on_c, 0, 53, 75
2, 10855, Note_on_c, 0, 79, 0
2, 10857, Note_on_c, 0, 53, 0
2, 10908, Note_on_c, 0, 77, 75
2, 10939, Note_on_c, 0, 80, 0
2, 11002, Note_on_c, 0, 56, 79
2, 11002, Note_on_c, 0, 74, 77
2, 11005, Note_on_c, 0, 77, 0
2, 11031, Note_on_c, 0, 56, 0
2, 11086, Note_on_c, 0, 77, 80
2, 11100, Note_on_c, 0, 74, 0
2, 11192, Note_on_c, 0, 70, 80
2, 11205, Note_on_c, 0, 50, 83
2, 11245, Note_on_c, 0, 77, 0
2, 11404, Note_on_c, 0, 55, 79
2, 11420, Note_on_c, 0, 50, 0
2, 11482, Note_on_c, 0, 53, 80
2, 11483, Note_on_c, 0, 55, 0
2, 11559, Note_on_c, 0, 53, 0
2, 11563, Note_on_c, 0, 55, 87
2, 11619, Note_on_c, 0, 55, 0
2, 11687, Note_on_c, 0, 74, 76
2, 11705, Note_on_c, 0, 70, 0
2, 11762, Note_on_c, 0, 74, 0
2, 11771, Note_on_c, 0, 58, 78
2, 11773, Note_on_c, 0, 75, 83
2, 11805, Note_on_c, 0, 58, 0
2, 11865, Note_on_c, 0, 77, 82
2, 11885, Note_on_c, 0, 75, 0
2, 11957, Note_on_c, 0, 79, 83
2, 11963, Note_on_c, 0, 51, 77
2, 11968, Note_on_c, 0, 77, 0
2, 12002, Note_on_c, 0, 51, 0
2, 12052, Note_on_c, 0, 79, 0
2, 12053, Note_on_c, 0, 75, 75
2, 12135, Note_on_c, 0, 75, 0
2, 12142, Note_on_c, 0, 72, 74
2, 12144, Note_on_c, 0, 55, 69
2, 12170, Note_on_c, 0, 55, 0
2, 12216, Note_on_c, 0, 72, 0
2, 12234, Note_on_c, 0, 75, 75
2, 12299, Note_on_c, 0, 75, 0
2, 12329, Note_on_c, 0, 68, 74
2, 12332, Note_on_c, 0, 48, 79
2, 12398, Note_on_c, 0, 68, 0
2, 12432, Note_on_c, 0, 70, 74
2, 12519, Note_on_c, 0, 70, 0
2, 12525, Note_on_c, 0, 67, 77
2, 12535, Note_on_c, 0, 53, 77
2, 12546, Note_on_c, 0, 48, 0
2, 12595, Note_on_c, 0, 67, 0
2, 12617, Note_on_c, 0, 51, 79
2, 12619, Note_on_c, 0, 53, 0
2, 12621, Note_on_c, 0, 70, 78
2, 12683, Note_on_c, 0, 70, 0
2, 12692, Note_on_c, 0, 51, 0
2, 12706, Note_on_c, 0, 53, 85
2, 12719, Note_on_c, 0, 68, 76
2, 12739, Note_on_c, 0, 53, 0
2, 12797, Note_on_c, 0, 68, 0
2, 12803, Note_on_c, 0, 72, 79
2, 12900, Note_on_c, 0, 74, 78
2, 12903, Note_on_c, 0, 56, 77
2, 12903, Note_on_c, 0, 72, 0
2, 12934, Note_on_c, 0, 56, 0
2, 12980, Note_on_c, 0, 75, 80
2, 12999, Note_on_c, 0, 74, 0
2, 13081, Note_on_c, 0, 77, 82
2, 13091, Note_on_c, 0, 50, 67
2, 13103, Note_on_c, 0, 75, 0
2, 13121, Note_on_c, 0, 50, 0
2, 13176, Note_on_c, 0, 77, 0
2, 13182, Note_on_c, 0, 74, 73
2, 13272, Note_on_c, 0, 74, 0
2, 13273, Note_on_c, 0, 70, 74
2, 13274, Note_on_c, 0, 53, 65
2, 13301, Note_on_c, 0, 53, 0
2, 13353, Note_on_c, 0, 70, 0
2, 13361, Note_on_c, 0, 74, 67
2, 13432, Note_on_c, 0, 74, 0
2, 13460, Note_on_c, 0, 67, 73
2, 13463, Note_on_c, 0, 46, 73
2, 13540, Note_on_c, 0, 67, 0
2, 13551, Note_on_c, 0, 68, 72
2, 13641, Note_on_c, 0, 68, 0
2, 13643, Note_on_c, 0, 51, 70
2, 13651, Note_on_c, 0, 65, 74
2, 13679, Note_on_c, 0, 46, 0
2, 13713, Note_on_c, 0, 51, 0
2, 13715, Note_on_c, 0, 65, 0
2, 13736, Note_on_c, 0, 50, 69
2, 13741, Note_on_c, 0, 68, 76
2, 13800, Note_on_c, 0, 68, 0
2, 13811, Note_on_c, 0, 50, 0
2, 13830, Note_on_c, 0, 51, 78
2, 13832, Note_on_c, 0, 67, 75
2, 13863, Note_on_c, 0, 51, 0
2, 13926, Note_on_c, 0, 67, 0
2, 13930, Note_on_c, 0, 70, 76
2, 14009, Note_on_c, 0, 70, 0
2, 14020, Note_on_c, 0, 72, 77
2, 14029, Note_on_c, 0, 55, 62
2, 14054, Note_on_c, 0, 55, 0
2, 14112, Note_on_c, 0, 72, 0
2, 14112, Note_on_c, 0, 74, 75
2, 14207, Note_on_c, 0, 75, 81
2, 14209, Note_on_c, 0, 48, 65
2, 14232, Note_on_c, 0, 74, 0
2, 14238, Note_on_c, 0, 48, 0
2, 14295, Note_on_c, 0, 75, 0
2, 14299, Note_on_c, 0, 72, 71
2, 14381, Note_on_c, 0, 72, 0
2, 14387, Note_on_c, 0, 68, 68
2, 14394, Note_on_c, 0, 51, 64
2, 14426, Note_on_c, 0, 51, 0
2, 14449, Note_on_c, 0, 68, 0
2, 14476, Note_on_c, 0, 72, 66
2, 14521, Note_on_c, 0, 72, 0
2, 14583, Note_on_c, 0, 44, 67
2, 14586, Note_on_c, 0, 65, 67
2, 14632, Note_on_c, 0, 65, 0
2, 14679, Note_on_c, 0, 75, 68
2, 14764, Note_on_c, 0, 75, 0
2, 14770, Note_on_c, 0, 74, 69
2, 14790, Note_on_c, 0, 53, 60
2, 14813, Note_on_c, 0, 44, 0
2, 14838, Note_on_c, 0, 53, 0
2, 14870, Note_on_c, 0, 51, 69
2, 14870, Note_on_c, 0, 74, 0
2, 14872, Note_on_c, 0, 75, 68
2, 14921, Note_on_c, 0, 75, 0
2, 14932, Note_on_c, 0, 51, 0
2, 14966, Note_on_c, 0, 53, 64
2, 14974, Note_on_c, 0, 68, 72
2, 14992, Note_on_c, 0, 53, 0
2, 15038, Note_on_c, 0, 68, 0
2, 15063, Note_on_c, 0, 75, 65
2, 15128, Note_on_c, 0, 75, 0
2, 15161, Note_on_c, 0, 74, 66
2, 15173, Note_on_c, 0, 56, 61
2, 15202, Note_on_c, 0, 56, 0
2, 15247, Note_on_c, 0, 75, 69
2, 15258, Note_on_c, 0, 74, 0
2, 15303, Note_on_c, 0, 75, 0
2, 15355, Note_on_c, 0, 65, 73
2, 15359, Note_on_c, 0, 50, 65
2, 15387, Note_on_c, 0, 50, 0
2, 15412, Note_on_c, 0, 65, 0
2, 15449, Note_on_c, 0, 75, 68
2, 15536, Note_on_c, 0, 75, 0
2, 15541, Note_on_c, 0, 74, 74
2, 15553, Note_on_c, 0, 53, 69
2, 15580, Note_on_c, 0, 53, 0
2, 15634, Note_on_c, 0, 74, 0
2, 15639, Note_on_c, 0, 75, 79
2, 15702, Note_on_c, 0, 75, 0
2, 15740, Note_on_c, 0, 67, 83
2, 15742, Note_on_c, 0, 46, 75
2, 15827, Note_on_c, 0, 75, 79
2, 15833, Note_on_c, 0, 67, 0
2, 15920, Note_on_c, 0, 55, 64
2, 15922, Note_on_c, 0, 74, 81
2, 15926, Note_on_c, 0, 75, 0
2, 15998, Note_on_c, 0, 46, 0
2, 16006, Note_on_c, 0, 55, 0
2, 16014, Note_on_c, 0, 75, 82
2, 16017, Note_on_c, 0, 53, 75
2, 16023, Note_on_c, 0, 74, 0
2, 16102, Note_on_c, 0, 75, 0
2, 16106, Note_on_c, 0, 53, 0
2, 16111, Note_on_c, 0, 70, 85
2, 16115, Note_on_c, 0, 55, 81
2, 16144, Note_on_c, 0, 55, 0
2, 16184, Note_on_c, 0, 70, 0
2, 16201, Note_on_c, 0, 75, 84
2, 16307, Note_on_c, 0, 74, 81
2, 16311, Note_on_c, 0, 75, 0
2, 16312, Note_on_c, 0, 58, 83
2, 16352, Note_on_c, 0, 58, 0
2, 16402, Note_on_c, 0, 75, 85
2, 16424, Note_on_c, 0, 74, 0
2, 16479, Note_on_c, 0, 75, 0
2, 16500, Note_on_c, 0, 67, 86
2, 16505, Note_on_c, 0, 51, 74
2, 16544, Note_on_c, 0, 51, 0
2, 16584, Note_on_c, 0, 75, 83
2, 16591, Note_on_c, 0, 67, 0
2, 16675, Note_on_c, 0, 74, 81
2, 16677, Note_on_c, 0, 75, 0
2, 16682, Note_on_c, 0, 55, 76
2, 16715, Note_on_c, 0, 55, 0
2, 16775, Note_on_c, 0, 75, 83
2, 16778, Note_on_c, 0, 74, 0
2, 16865, Note_on_c, 0, 75, 0
2, 16873, Note_on_c, 0, 68, 85
2, 16887, Note_on_c, 0, 48, 77
2, 16969, Note_on_c, 0, 75, 82
2, 17073, Note_on_c, 0, 73, 83
2, 17078, Note_on_c, 0, 56, 81
2, 17090, Note_on_c, 0, 75, 0
2, 17095, Note_on_c, 0, 68, 0
2, 17109, Note_on_c, 0, 48, 0
2, 17171, Note_on_c, 0, 75, 80
2, 17173, Note_on_c, 0, 55, 80
2, 17176, Note_on_c, 0, 56, 0
2, 17193, Note_on_c, 0, 73, 0
2, 17255, Note_on_c, 0, 72, 86
2, 17257, Note_on_c, 0, 55, 0
2, 17261, Note_on_c, 0, 56, 89
2, 17266, Note_on_c, 0, 75, 0
2, 17301, Note_on_c, 0, 56, 0
2, 17354, Note_on_c, 0, 75, 82
2, 17372, Note_on_c, 0, 72, 0
2, 17445, Note_on_c, 0, 75, 0
2, 17452, Note_on_c, 0, 60, 85
2, 17454, Note_on_c, 0, 70, 85
2, 17481, Note_on_c, 0, 60, 0
2, 17525, Note_on_c, 0, 70, 0
2, 17545, Note_on_c, 0, 75, 74
2, 17627, Note_on_c, 0, 75, 0
2, 17644, Note_on_c, 0, 53, 75
2, 17644, Note_on_c, 0, 68, 82
2, 17677, Note_on_c, 0, 53, 0
2, 17694, Note_on_c, 0, 68, 0
2, 17750, Note_on_c, 0, 75, 64
2, 17787, Note_on_c, 0, 75, 0
2, 17842, Note_on_c, 0, 67, 75
2, 17844, Note_on_c, 0, 56, 73
2, 17875, Note_on_c, 0, 56, 0
2, 17897, Note_on_c, 0, 67, 0
2, 17930, Note_on_c, 0, 75, 55
2, 17987, Note_on_c, 0, 75, 0
2, 18024, Note_on_c, 0, 65, 74
2, 18027, Note_on_c, 0, 50, 72
2, 18059, Note_on_c, 0, 50, 0
2, 18077, Note_on_c, 0, 65, 0
2, 18110, Note_on_c, 0, 75, 64
2, 18190, Note_on_c, 0, 75, 0
2, 18195, Note_on_c, 0, 53, 71
2, 18209, Note_on_c, 0, 67, 79
2, 18233, Note_on_c, 0, 53, 0
2, 18267, Note_on_c, 0, 67, 0
2, 18298, Note_on_c, 0, 75, 72
2, 18393, Note_on_c, 0, 68, 83
2, 18395, Note_on_c, 0, 46, 75
2, 18426, Note_on_c, 0, 75, 0
2, 18460, Note_on_c, 0, 46, 0
2, 18488, Note_on_c, 0, 74, 76
2, 18583, Note_on_c, 0, 75, 75
2, 18594, Note_on_c, 0, 50, 79
2, 18618, Note_on_c, 0, 68, 0
2, 18639, Note_on_c, 0, 50, 0
2, 18654, Note_on_c, 0, 74, 0
2, 18687, Note_on_c, 0, 77, 79
2, 18719, Note_on_c, 0, 75, 0
2, 18781, Note_on_c, 0, 67, 86
2, 18782, Note_on_c, 0, 51, 82
2, 18813, Note_on_c, 0, 77, 0
2, 18835, Note_on_c, 0, 51, 0
2, 18874, Note_on_c, 0, 70, 84
2, 18904, Note_on_c, 0, 67, 0
2, 18965, Note_on_c, 0, 48, 84
2, 18966, Note_on_c, 0, 68, 90
2, 18999, Note_on_c, 0, 48, 0
2, 19007, Note_on_c, 0, 70, 0
2, 19066, Note_on_c, 0, 72, 77
2, 19076, Note_on_c, 0, 68, 0
2, 19150, Note_on_c, 0, 43, 92
2, 19160, Note_on_c, 0, 70, 87
2, 19165, Note_on_c, 0, 72, 0
2, 19208, Note_on_c, 0, 43, 0
2, 19256, Note_on_c, 0, 70, 0
2, 19256, Note_on_c, 0, 75, 87
2, 19341, Note_on_c, 0, 41, 90
2, 19361, Note_on_c, 0, 74, 78
2, 19399, Note_on_c, 0, 75, 0
2, 19401, Note_on_c, 0, 41, 0
2, 19445, Note_on_c, 0, 72, 80
2, 19484, Note_on_c, 0, 74, 0
2, 19538, Note_on_c, 0, 70, 85
2, 19541, Note_on_c, 0, 43, 82
2, 19552, Note_on_c, 0, 72, 0
2, 19595, Note_on_c, 0, 43, 0
2, 19625, Note_on_c, 0, 68, 85
2, 19625, Note_on_c, 0, 70, 0
2, 19716, Note_on_c, 0, 44, 84
2, 19717, Note_on_c, 0, 70, 87
2, 19722, Note_on_c, 0, 68, 0
2, 19787, Note_on_c, 0, 44, 0
2, 19790, Note_on_c, 0, 72, 83
2, 19797, Note_on_c, 0, 70, 0
2, 19830, Note_on_c, 0, 72, 0
2, 19914, Note_on_c, 0, 46, 91
2, 19917, Note_on_c, 0, 67, 89
2, 19919, Note_on_c, 0, 62, 87
2, 19982, Note_on_c, 0, 67, 0
2, 19985, Note_on_c, 0, 65, 78
2, 20062, Note_on_c, 0, 67, 86
2, 20074, Note_on_c, 0, 65, 0
2, 20129, Note_on_c, 0, 65, 79
2, 20162, Note_on_c, 0, 67, 0
2, 20169, Note_on_c, 0, 62, 0
2, 20213, Note_on_c, 0, 46, 0
2, 20215, Note_on_c, 0, 63, 87
2, 20226, Note_on_c, 0, 65, 0
2, 20258, Note_on_c, 0, 63, 0
2, 20306, Note_on_c, 0, 63, 94
2, 20525, Note_on_c, 0, 51, 78
2, 20607, Note_on_c, 0, 51, 0
2, 20613, Note_on_c, 0, 50, 72
2, 20696, Note_on_c, 0, 51, 86
2, 20704, Note_on_c, 0, 70, 77
2, 20707, Note_on_c, 0, 67, 74
2, 20707, Note_on_c, 0, 75, 89
2, 20710, Note_on_c, 0, 50, 0
2, 20729, Note_on_c, 0, 51, 0
2, 20924, Note_on_c, 0, 55, 74
2, 20964, Note_on_c, 0, 55, 0
2, 21024, Note_on_c, 0, 63, 0
2, 21027, Note_on_c, 0, 70, 0
2, 21033, Note_on_c, 0, 67, 0
2, 21107, Note_on_c, 0, 46, 76
2, 21145, Note_on_c, 0, 46, 0
2, 21232, Note_on_c, 0, 75, 0
2, 21298, Note_on_c, 0, 51, 72
2, 21300, Note_on_c, 0, 70, 73
2, 21303, Note_on_c, 0, 67, 71
2, 21331, Note_on_c, 0, 67, 0
2, 21334, Note_on_c, 0, 70, 0
2, 21471, Note_on_c, 0, 51, 0
2, 21489, Note_on_c, 0, 68, 70
2, 21495, Note_on_c, 0, 65, 65
2, 21716, Note_on_c, 0, 53, 64
2, 21778, Note_on_c, 0, 53, 0
2, 21801, Note_on_c, 0, 51, 61
2, 21841, Note_on_c, 0, 68, 0
2, 21856, Note_on_c, 0, 51, 0
2, 21892, Note_on_c, 0, 53, 69
2, 21895, Note_on_c, 0, 74, 76
2, 21905, Note_on_c, 0, 65, 0
2, 21919, Note_on_c, 0, 53, 0
2, 22093, Note_on_c, 0, 56, 58
2, 22130, Note_on_c, 0, 56, 0
2, 22287, Note_on_c, 0, 74, 0
2, 22290, Note_on_c, 0, 46, 60
2, 22325, Note_on_c, 0, 46, 0
2, 22477, Note_on_c, 0, 53, 59
2, 22486, Note_on_c, 0, 74, 70
2, 22494, Note_on_c, 0, 65, 64
2, 22504, Note_on_c, 0, 68, 50
2, 22509, Note_on_c, 0, 53, 0
2, 22525, Note_on_c, 0, 74, 0
2, 22526, Note_on_c, 0, 65, 0
2, 22564, Note_on_c, 0, 68, 0
2, 22685, Note_on_c, 0, 75, 78
2, 22691, Note_on_c, 0, 55, 71
2, 22691, Note_on_c, 0, 63, 74
2, 22691, Note_on_c, 0, 70, 64
2, 22697, Note_on_c, 0, 67, 59
2, 22725, Note_on_c, 0, 70, 0
2, 22726, Note_on_c, 0, 67, 0
2, 22727, Note_on_c, 0, 63, 0
2, 22730, Note_on_c, 0, 75, 0
2, 22910, Note_on_c, 0, 63, 73
2, 22987, Note_on_c, 0, 63, 0
2, 22992, Note_on_c, 0, 62, 73
2, 23012, Note_on_c, 0, 55, 0
2, 23085, Note_on_c, 0, 62, 0
2, 23089, Note_on_c, 0, 63, 80
2, 23126, Note_on_c, 0, 63, 0
2, 23277, Note_on_c, 0, 51, 61
2, 23281, Note_on_c, 0, 67, 72
2, 23326, Note_on_c, 0, 67, 0
2, 23365, Note_on_c, 0, 53, 69
2, 23367, Note_on_c, 0, 51, 0
2, 23444, Note_on_c, 0, 53, 0
2, 23455, Note_on_c, 0, 55, 73
2, 23459, Note_on_c, 0, 58, 74
2, 23491, Note_on_c, 0, 58, 0
2, 23524, Note_on_c, 0, 55, 0
2, 23544, Note_on_c, 0, 53, 71
2, 23606, Note_on_c, 0, 53, 0
2, 23633, Note_on_c, 0, 55, 76
2, 23638, Note_on_c, 0, 63, 72
2, 23681, Note_on_c, 0, 63, 0
2, 23693, Note_on_c, 0, 55, 0
2, 23721, Note_on_c, 0, 51, 71
2, 23794, Note_on_c, 0, 51, 0
2, 23832, Note_on_c, 0, 58, 78
2, 23907, Note_on_c, 0, 58, 0
2, 24028, Note_on_c, 0, 65, 74
2, 24033, Note_on_c, 0, 46, 70
2, 24109, Note_on_c, 0, 63, 78
2, 24112, Note_on_c, 0, 46, 0
2, 24114, Note_on_c, 0, 65, 0
2, 24207, Note_on_c, 0, 65, 82
2, 24208, Note_on_c, 0, 63, 0
2, 24248, Note_on_c, 0, 65, 0
2, 24382, Note_on_c, 0, 46, 76
2, 24394, Note_on_c, 0, 68, 78
2, 24446, Note_on_c, 0, 68, 0
2, 24474, Note_on_c, 0, 48, 78
2, 24510, Note_on_c, 0, 46, 0
2, 24570, Note_on_c, 0, 48, 0
2, 24573, Note_on_c, 0, 50, 86
2, 24575, Note_on_c, 0, 58, 80
2, 24610, Note_on_c, 0, 58, 0
2, 24668, Note_on_c, 0, 50, 0
2, 24674, Note_on_c, 0, 48, 84
2, 24752, Note_on_c, 0, 48, 0
2, 24760, Note_on_c, 0, 50, 87
2, 24767, Note_on_c, 0, 65, 74
2, 24797, Note_on_c, 0, 65, 0
2, 24831, Note_on_c, 0, 50, 0
2, 24847, Note_on_c, 0, 46, 80
2, 24951, Note_on_c, 0, 46, 0
2, 24955, Note_on_c, 0, 51, 89
2, 24962, Note_on_c, 0, 67, 85
2, 25132, Note_on_c, 0, 51, 0
2, 25156, Note_on_c, 0, 70, 78
2, 25158, Note_on_c, 0, 39, 83
2, 25177, Note_on_c, 0, 67, 0
2, 25212, Note_on_c, 0, 39, 0
2, 25246, Note_on_c, 0, 70, 0
2, 25247, Note_on_c, 0, 68, 79
2, 25341, Note_on_c, 0, 70, 87
2, 25345, Note_on_c, 0, 68, 0
2, 25382, Note_on_c, 0, 70, 0
2, 25530, Note_on_c, 0, 61, 81
2, 25542, Note_on_c, 0, 75, 82
2, 25596, Note_on_c, 0, 61, 0
2, 25602, Note_on_c, 0, 75, 0
2, 25620, Note_on_c, 0, 60, 78
2, 25720, Note_on_c, 0, 67, 77
2, 25722, Note_on_c, 0, 58, 79
2, 25723, Note_on_c, 0, 60, 0
2, 25757, Note_on_c, 0, 67, 0
2, 25780, Note_on_c, 0, 58, 0
2, 25809, Note_on_c, 0, 60, 71
2, 25872, Note_on_c, 0, 60, 0
2, 25899, Note_on_c, 0, 56, 78
2, 25908, Note_on_c, 0, 70, 74
2, 25941, Note_on_c, 0, 70, 0
2, 25959, Note_on_c, 0, 56, 0
2, 25989, Note_on_c, 0, 58, 72
2, 26084, Note_on_c, 0, 55, 71
2, 26084, Note_on_c, 0, 58, 0
2, 26092, Note_on_c, 0, 63, 83
2, 26151, Note_on_c, 0, 55, 0
2, 26175, Note_on_c, 0, 56, 70
2, 26275, Note_on_c, 0, 67, 74
2, 26280, Note_on_c, 0, 56, 0
2, 26283, Note_on_c, 0, 53, 75
2, 26291, Note_on_c, 0, 63, 0
2, 26341, Note_on_c, 0, 53, 0
2, 26369, Note_on_c, 0, 55, 79
2, 26371, Note_on_c, 0, 65, 80
2, 26383, Note_on_c, 0, 67, 0
2, 26435, Note_on_c, 0, 55, 0
2, 26446, Note_on_c, 0, 65, 0
2, 26455, Note_on_c, 0, 51, 80
2, 26466, Note_on_c, 0, 67, 81
2, 26505, Note_on_c, 0, 67, 0
2, 26518, Note_on_c, 0, 51, 0
2, 26550, Note_on_c, 0, 53, 70
2, 26626, Note_on_c, 0, 53, 0
2, 26648, Note_on_c, 0, 49, 73
2, 26651, Note_on_c, 0, 70, 79
2, 26683, Note_on_c, 0, 68, 42
2, 26700, Note_on_c, 0, 68, 0
2, 26701, Note_on_c, 0, 70, 0
2, 26715, Note_on_c, 0, 49, 0
2, 26738, Note_on_c, 0, 51, 70
2, 26815, Note_on_c, 0, 51, 0
2, 26833, Note_on_c, 0, 48, 69
2, 26836, Note_on_c, 0, 63, 77
2, 26869, Note_on_c, 0, 63, 0
2, 26884, Note_on_c, 0, 48, 0
2, 26923, Note_on_c, 0, 49, 61
2, 27000, Note_on_c, 0, 49, 0
2, 27021, Note_on_c, 0, 46, 68
2, 27032, Note_on_c, 0, 67, 73
2, 27081, Note_on_c, 0, 67, 0
2, 27085, Note_on_c, 0, 46, 0
2, 27093, Note_on_c, 0, 48, 72
2, 27169, Note_on_c, 0, 48, 0
2, 27220, Note_on_c, 0, 44, 77
2, 27227, Note_on_c, 0, 60, 76
2, 27255, Note_on_c, 0, 44, 0
2, 27430, Note_on_c, 0, 60, 0
2, 27454, Note_on_c, 0, 63, 82
2, 27539, Note_on_c, 0, 61, 87
2, 27539, Note_on_c, 0, 63, 0
2, 27616, Note_on_c, 0, 61, 0
2, 27627, Note_on_c, 0, 63, 90
2, 27666, Note_on_c, 0, 63, 0
2, 27820, Note_on_c, 0, 78, 77
2, 27823, Note_on_c, 0, 68, 79
2, 27854, Note_on_c, 0, 68, 0
2, 27860, Note_on_c, 0, 56, 36
2, 27888, Note_on_c, 0, 56, 0
2, 27896, Note_on_c, 0, 78, 0
2, 27906, Note_on_c, 0, 77, 77
2, 28005, Note_on_c, 0, 75, 78
2, 28005, Note_on_c, 0, 77, 0
2, 28015, Note_on_c, 0, 60, 75
2, 28050, Note_on_c, 0, 60, 0
2, 28100, Note_on_c, 0, 75, 0
2, 28110, Note_on_c, 0, 77, 74
2, 28189, Note_on_c, 0, 77, 0
2, 28194, Note_on_c, 0, 73, 78
2, 28205, Note_on_c, 0, 63, 77
2, 28233, Note_on_c, 0, 63, 0
2, 28276, Note_on_c, 0, 73, 0
2, 28294, Note_on_c, 0, 75, 76
2, 28363, Note_on_c, 0, 75, 0
2, 28380, Note_on_c, 0, 56, 86
2, 28390, Note_on_c, 0, 72, 73
2, 28484, Note_on_c, 0, 72, 0
2, 28485, Note_on_c, 0, 73, 76
2, 28586, Note_on_c, 0, 60, 83
2, 28588, Note_on_c, 0, 73, 0
2, 28590, Note_on_c, 0, 70, 75
2, 28612, Note_on_c, 0, 56, 0
2, 28664, Note_on_c, 0, 70, 0
2, 28679, Note_on_c, 0, 58, 84
2, 28679, Note_on_c, 0, 60, 0
2, 28683, Note_on_c, 0, 72, 69
2, 28738, Note_on_c, 0, 72, 0
2, 28764, Note_on_c, 0, 58, 0
2, 28774, Note_on_c, 0, 68, 80
2, 28776, Note_on_c, 0, 60, 86
2, 28812, Note_on_c, 0, 60, 0
2, 28836, Note_on_c, 0, 68, 0
2, 28874, Note_on_c, 0, 70, 66
2, 28945, Note_on_c, 0, 70, 0
2, 28954, Note_on_c, 0, 63, 84
2, 28958, Note_on_c, 0, 66, 75
2, 28999, Note_on_c, 0, 63, 0
2, 29031, Note_on_c, 0, 66, 0
2, 29053, Note_on_c, 0, 68, 73
2, 29114, Note_on_c, 0, 68, 0
2, 29145, Note_on_c, 0, 56, 77
2, 29149, Note_on_c, 0, 65, 74
2, 29193, Note_on_c, 0, 56, 0
2, 29209, Note_on_c, 0, 65, 0
2, 29240, Note_on_c, 0, 66, 70
2, 29335, Note_on_c, 0, 66, 0
2, 29341, Note_on_c, 0, 63, 68
2, 29344, Note_on_c, 0, 60, 77
2, 29374, Note_on_c, 0, 60, 0
2, 29412, Note_on_c, 0, 63, 0
2, 29426, Note_on_c, 0, 65, 59
2, 29516, Note_on_c, 0, 65, 0
2, 29524, Note_on_c, 0, 53, 86
2, 29536, Note_on_c, 0, 61, 68
2, 29565, Note_on_c, 0, 61, 0
2, 29736, Note_on_c, 0, 73, 82
2, 29814, Note_on_c, 0, 73, 0
2, 29826, Note_on_c, 0, 72, 77
2, 29919, Note_on_c, 0, 73, 88
2, 29927, Note_on_c, 0, 72, 0
2, 29962, Note_on_c, 0, 73, 0
2, 30003, Note_on_c, 0, 56, 70
2, 30005, Note_on_c, 0, 53, 0
2, 30112, Note_on_c, 0, 58, 73
2, 30120, Note_on_c, 0, 56, 0
2, 30120, Note_on_c, 0, 77, 83
2, 30161, Note_on_c, 0, 77, 0
2, 30199, Note_on_c, 0, 58, 0
2, 30210, Note_on_c, 0, 60, 74
2, 30275, Note_on_c, 0, 60, 0
2, 30304, Note_on_c, 0, 61, 75
2, 30309, Note_on_c, 0, 70, 80
2, 30341, Note_on_c, 0, 70, 0
2, 30380, Note_on_c, 0, 61, 0
2, 30398, Note_on_c, 0, 58, 70
2, 30472, Note_on_c, 0, 58, 0
2, 30481, Note_on_c, 0, 73, 77
2, 30484, Note_on_c, 0, 55, 70
2, 30511, Note_on_c, 0, 73, 0
2, 30555, Note_on_c, 0, 55, 0
2, 30575, Note_on_c, 0, 58, 73
2, 30656, Note_on_c, 0, 58, 0
2, 30683, Note_on_c, 0, 51, 75
2, 30685, Note_on_c, 0, 67, 79
2, 30893, Note_on_c, 0, 72, 71
2, 30912, Note_on_c, 0, 67, 0
2, 30964, Note_on_c, 0, 72, 0
2, 30974, Note_on_c, 0, 70, 74
2, 31058, Note_on_c, 0, 70, 0
2, 31070, Note_on_c, 0, 72, 77
2, 31098, Note_on_c, 0, 72, 0
2, 31171, Note_on_c, 0, 55, 58
2, 31238, Note_on_c, 0, 51, 0
2, 31254, Note_on_c, 0, 55, 0
2, 31255, Note_on_c, 0, 75, 78
2, 31259, Note_on_c, 0, 56, 75
2, 31297, Note_on_c, 0, 75, 0
2, 31337, Note_on_c, 0, 56, 0
2, 31358, Note_on_c, 0, 58, 73
2, 31419, Note_on_c, 0, 58, 0
2, 31447, Note_on_c, 0, 60, 68
2, 31465, Note_on_c, 0, 69, 53
2, 31487, Note_on_c, 0, 69, 0
2, 31510, Note_on_c, 0, 60, 0
2, 31531, Note_on_c, 0, 56, 74
2, 31621, Note_on_c, 0, 56, 0
2, 31624, Note_on_c, 0, 53, 74
2, 31642, Note_on_c, 0, 72, 73
2, 31673, Note_on_c, 0, 72, 0
2, 31689, Note_on_c, 0, 53, 0
2, 31712, Note_on_c, 0, 56, 76
2, 31785, Note_on_c, 0, 56, 0
2, 31813, Note_on_c, 0, 49, 71
2, 31826, Note_on_c, 0, 65, 75
2, 31903, Note_on_c, 0, 49, 0
2, 31912, Note_on_c, 0, 51, 71
2, 32006, Note_on_c, 0, 51, 0
2, 32008, Note_on_c, 0, 70, 76
2, 32018, Note_on_c, 0, 48, 73
2, 32026, Note_on_c, 0, 65, 0
2, 32072, Note_on_c, 0, 70, 0
2, 32094, Note_on_c, 0, 68, 79
2, 32096, Note_on_c, 0, 48, 0
2, 32109, Note_on_c, 0, 51, 73
2, 32182, Note_on_c, 0, 68, 0
2, 32188, Note_on_c, 0, 70, 82
2, 32192, Note_on_c, 0, 49, 77
2, 32210, Note_on_c, 0, 51, 0
2, 32231, Note_on_c, 0, 70, 0
2, 32265, Note_on_c, 0, 49, 0
2, 32280, Note_on_c, 0, 53, 70
2, 32343, Note_on_c, 0, 53, 0
2, 32383, Note_on_c, 0, 55, 72
2, 32386, Note_on_c, 0, 73, 84
2, 32434, Note_on_c, 0, 73, 0
2, 32443, Note_on_c, 0, 55, 0
2, 32474, Note_on_c, 0, 56, 75
2, 32546, Note_on_c, 0, 56, 0
2, 32571, Note_on_c, 0, 67, 78
2, 32573, Note_on_c, 0, 58, 78
2, 32605, Note_on_c, 0, 67, 0
2, 32649, Note_on_c, 0, 58, 0
2, 32663, Note_on_c, 0, 55, 61
2, 32742, Note_on_c, 0, 70, 86
2, 32743, Note_on_c, 0, 55, 0
2, 32745, Note_on_c, 0, 51, 73
2, 32790, Note_on_c, 0, 70, 0
2, 32820, Note_on_c, 0, 51, 0
2, 32832, Note_on_c, 0, 55, 68
2, 32913, Note_on_c, 0, 55, 0
2, 32923, Note_on_c, 0, 63, 88
2, 32926, Note_on_c, 0, 48, 75
2, 32997, Note_on_c, 0, 48, 0
2, 33016, Note_on_c, 0, 49, 71
2, 33053, Note_on_c, 0, 63, 0
2, 33095, Note_on_c, 0, 49, 0
2, 33095, Note_on_c, 0, 68, 77
2, 33126, Note_on_c, 0, 46, 69
2, 33162, Note_on_c, 0, 45, 52
2, 33185, Note_on_c, 0, 67, 85
2, 33185, Note_on_c, 0, 68, 0
2, 33190, Note_on_c, 0, 46, 0
2, 33191, Note_on_c, 0, 45, 0
2, 33193, Note_on_c, 0, 49, 64
2, 33243, Note_on_c, 0, 49, 0
2, 33256, Note_on_c, 0, 67, 0
2, 33277, Note_on_c, 0, 68, 90
2, 33311, Note_on_c, 0, 48, 71
2, 33317, Note_on_c, 0, 50, 67
2, 33325, Note_on_c, 0, 68, 0
2, 33371, Note_on_c, 0, 50, 0
2, 33375, Note_on_c, 0, 48, 0
2, 33398, Note_on_c, 0, 52, 62
2, 33458, Note_on_c, 0, 52, 0
2, 33465, Note_on_c, 0, 53, 78
2, 33487, Note_on_c, 0, 72, 80
2, 33518, Note_on_c, 0, 53, 0
2, 33550, Note_on_c, 0, 72, 0
2, 33571, Note_on_c, 0, 56, 41
2, 33600, Note_on_c, 0, 56, 0
2, 33650, Note_on_c, 0, 56, 73
2, 33653, Note_on_c, 0, 65, 83
2, 33679, Note_on_c, 0, 53, 70
2, 33690, Note_on_c, 0, 65, 0
2, 33710, Note_on_c, 0, 56, 0
2, 33798, Note_on_c, 0, 49, 76
2, 33801, Note_on_c, 0, 53, 0
2, 33830, Note_on_c, 0, 68, 58
2, 33852, Note_on_c, 0, 68, 0
2, 33890, Note_on_c, 0, 49, 0
2, 33923, Note_on_c, 0, 53, 31
2, 33961, Note_on_c, 0, 53, 0
2, 33984, Note_on_c, 0, 46, 82
2, 33984, Note_on_c, 0, 61, 83
2, 34062, Note_on_c, 0, 46, 0
2, 34085, Note_on_c, 0, 56, 67
2, 34153, Note_on_c, 0, 56, 0
2, 34169, Note_on_c, 0, 55, 68
2, 34183, Note_on_c, 0, 70, 76
2, 34186, Note_on_c, 0, 61, 0
2, 34230, Note_on_c, 0, 55, 0
2, 34252, Note_on_c, 0, 70, 0
2, 34265, Note_on_c, 0, 56, 72
2, 34272, Note_on_c, 0, 68, 73
2, 34333, Note_on_c, 0, 56, 0
2, 34337, Note_on_c, 0, 68, 0
2, 34358, Note_on_c, 0, 49, 66
2, 34373, Note_on_c, 0, 70, 78
2, 34395, Note_on_c, 0, 70, 0
2, 34421, Note_on_c, 0, 49, 0
2, 34464, Note_on_c, 0, 56, 49
2, 34550, Note_on_c, 0, 56, 0
2, 34566, Note_on_c, 0, 55, 63
2, 34566, Note_on_c, 0, 73, 80
2, 34592, Note_on_c, 0, 73, 0
2, 34608, Note_on_c, 0, 55, 0
2, 34697, Note_on_c, 0, 56, 41
2, 34750, Note_on_c, 0, 56, 0
2, 34769, Note_on_c, 0, 67, 72
2, 34776, Note_on_c, 0, 46, 57
2, 34805, Note_on_c, 0, 67, 0
2, 34837, Note_on_c, 0, 46, 0
2, 34878, Note_on_c, 0, 56, 56
2, 34936, Note_on_c, 0, 56, 0
2, 34963, Note_on_c, 0, 70, 76
2, 34969, Note_on_c, 0, 55, 64
2, 34996, Note_on_c, 0, 70, 0
2, 35016, Note_on_c, 0, 55, 0
2, 35061, Note_on_c, 0, 56, 64
2, 35126, Note_on_c, 0, 56, 0
2, 35157, Note_on_c, 0, 63, 83
2, 35168, Note_on_c, 0, 48, 71
2, 35234, Note_on_c, 0, 48, 0
2, 35254, Note_on_c, 0, 56, 54
2, 35344, Note_on_c, 0, 56, 0
2, 35346, Note_on_c, 0, 72, 78
2, 35356, Note_on_c, 0, 63, 0
2, 35359, Note_on_c, 0, 55, 64
2, 35428, Note_on_c, 0, 55, 0
2, 35443, Note_on_c, 0, 70, 80
2, 35454, Note_on_c, 0, 56, 67
2, 35455, Note_on_c, 0, 72, 0
2, 35521, Note_on_c, 0, 56, 0
2, 35546, Note_on_c, 0, 70, 0
2, 35548, Note_on_c, 0, 72, 89
2, 35549, Note_on_c, 0, 51, 75
2, 35578, Note_on_c, 0, 72, 0
2, 35607, Note_on_c, 0, 51, 0
2, 35643, Note_on_c, 0, 56, 63
2, 35742, Note_on_c, 0, 75, 88
2, 35778, Note_on_c, 0, 55, 44
2, 35790, Note_on_c, 0, 75, 0
2, 35796, Note_on_c, 0, 56, 0
2, 35803, Note_on_c, 0, 55, 0
2, 35837, Note_on_c, 0, 56, 58
2, 35905, Note_on_c, 0, 56, 0
2, 35939, Note_on_c, 0, 48, 71
2, 35939, Note_on_c, 0, 68, 87
2, 35977, Note_on_c, 0, 68, 0
2, 36007, Note_on_c, 0, 48, 0
2, 36024, Note_on_c, 0, 56, 65
2, 36110, Note_on_c, 0, 56, 0
2, 36119, Note_on_c, 0, 55, 73
2, 36119, Note_on_c, 0, 72, 90
2, 36161, Note_on_c, 0, 72, 0
2, 36190, Note_on_c, 0, 55, 0
2, 36223, Note_on_c, 0, 56, 74
2, 36292, Note_on_c, 0, 56, 0
2, 36323, Note_on_c, 0, 49, 75
2, 36327, Note_on_c, 0, 65, 84
2, 36416, Note_on_c, 0, 56, 70
2, 36515, Note_on_c, 0, 56, 0
2, 36516, Note_on_c, 0, 54, 78
2, 36528, Note_on_c, 0, 73, 86
2, 36538, Note_on_c, 0, 65, 0
2, 36612, Note_on_c, 0, 73, 0
2, 36614, Note_on_c, 0, 56, 75
2, 36622, Note_on_c, 0, 72, 75
2, 36655, Note_on_c, 0, 54, 0
2, 36706, Note_on_c, 0, 53, 83
2, 36709, Note_on_c, 0, 49, 0
2, 36709, Note_on_c, 0, 73, 99
2, 36711, Note_on_c, 0, 56, 0
2, 36718, Note_on_c, 0, 72, 0
2, 36751, Note_on_c, 0, 73, 0
2, 36813, Note_on_c, 0, 56, 73
2, 36896, Note_on_c, 0, 77, 92
2, 36899, Note_on_c, 0, 51, 81
2, 36906, Note_on_c, 0, 56, 0
2, 36926, Note_on_c, 0, 53, 0
2, 36956, Note_on_c, 0, 77, 0
2, 36999, Note_on_c, 0, 56, 72
2, 37082, Note_on_c, 0, 56, 0
2, 37097, Note_on_c, 0, 49, 82
2, 37097, Note_on_c, 0, 70, 86
2, 37143, Note_on_c, 0, 70, 0
2, 37158, Note_on_c, 0, 51, 0
2, 37182, Note_on_c, 0, 56, 76
2, 37193, Note_on_c, 0, 49, 0
2, 37289, Note_on_c, 0, 56, 0
2, 37291, Note_on_c, 0, 48, 80
2, 37297, Note_on_c, 0, 73, 92
2, 37354, Note_on_c, 0, 73, 0
2, 37370, Note_on_c, 0, 48, 0
2, 37386, Note_on_c, 0, 56, 71
2, 37466, Note_on_c, 0, 56, 0
2, 37482, Note_on_c, 0, 46, 79
2, 37493, Note_on_c, 0, 67, 90
2, 37541, Note_on_c, 0, 67, 0
2, 37569, Note_on_c, 0, 46, 0
2, 37571, Note_on_c, 0, 49, 78
2, 37669, Note_on_c, 0, 48, 75
2, 37682, Note_on_c, 0, 70, 88
2, 37697, Note_on_c, 0, 49, 0
2, 37746, Note_on_c, 0, 70, 0
2, 37771, Note_on_c, 0, 51, 79
2, 37773, Note_on_c, 0, 48, 0
2, 37872, Note_on_c, 0, 49, 79
2, 37874, Note_on_c, 0, 51, 0
2, 37874, Note_on_c, 0, 63, 88
2, 37920, Note_on_c, 0, 63, 0
2, 37950, Note_on_c, 0, 49, 0
2, 37954, Note_on_c, 0, 53, 77
2, 38047, Note_on_c, 0, 53, 0
2, 38052, Note_on_c, 0, 51, 81
2, 38073, Note_on_c, 0, 67, 81
2, 38107, Note_on_c, 0, 67, 0
2, 38148, Note_on_c, 0, 49, 80
2, 38156, Note_on_c, 0, 51, 0
2, 38243, Note_on_c, 0, 48, 68
2, 38254, Note_on_c, 0, 68, 88
2, 38260, Note_on_c, 0, 49, 0
2, 38340, Note_on_c, 0, 48, 0
2, 38347, Note_on_c, 0, 51, 77
2, 38451, Note_on_c, 0, 51, 0
2, 38455, Note_on_c, 0, 49, 80
2, 38541, Note_on_c, 0, 49, 0
2, 38560, Note_on_c, 0, 53, 81
2, 38648, Note_on_c, 0, 51, 86
2, 38649, Note_on_c, 0, 53, 0
2, 38724, Note_on_c, 0, 68, 0
2, 38736, Note_on_c, 0, 67, 87
2, 38811, Note_on_c, 0, 51, 0
2, 38828, Note_on_c, 0, 53, 79
2, 38846, Note_on_c, 0, 68, 74
2, 38900, Note_on_c, 0, 53, 0
2, 38923, Note_on_c, 0, 49, 74
2, 38934, Note_on_c, 0, 70, 77
2, 38939, Note_on_c, 0, 68, 0
2, 39013, Note_on_c, 0, 72, 82
2, 39015, Note_on_c, 0, 70, 0
2, 39020, Note_on_c, 0, 51, 90
2, 39039, Note_on_c, 0, 49, 0
2, 39086, Note_on_c, 0, 70, 79
2, 39093, Note_on_c, 0, 72, 0
2, 39159, Note_on_c, 0, 70, 0
2, 39160, Note_on_c, 0, 72, 75
2, 39215, Note_on_c, 0, 70, 79
2, 39223, Note_on_c, 0, 72, 0
2, 39233, Note_on_c, 0, 49, 83
2, 39254, Note_on_c, 0, 51, 0
2, 39286, Note_on_c, 0, 72, 81
2, 39288, Note_on_c, 0, 70, 0
2, 39349, Note_on_c, 0, 70, 88
2, 39379, Note_on_c, 0, 72, 0
2, 39453, Note_on_c, 0, 51, 92
2, 39467, Note_on_c, 0, 49, 0
2, 39678, Note_on_c, 0, 39, 76
2, 39683, Note_on_c, 0, 68, 86
2, 39685, Note_on_c, 0, 51, 0
2, 39709, Note_on_c, 0, 67, 0
2, 39718, Note_on_c, 0, 70, 0
2, 39857, Note_on_c, 0, 68, 0
2, 39958, Note_on_c, 0, 68, 92
2, 39963, Note_on_c, 0, 44, 84
2, 39987, Note_on_c, 0, 39, 0
2, 40216, Note_on_c, 0, 75, 83
2, 40223, Note_on_c, 0, 68, 0
2, 40292, Note_on_c, 0, 73, 84
2, 40298, Note_on_c, 0, 75, 0
2, 40387, Note_on_c, 0, 75, 94
2, 40390, Note_on_c, 0, 56, 89
2, 40396, Note_on_c, 0, 73, 0
2, 40425, Note_on_c, 0, 75, 0
2, 40597, Note_on_c, 0, 44, 0
2, 40600, Note_on_c, 0, 72, 84
2, 40642, Note_on_c, 0, 72, 0
2, 40811, Note_on_c, 0, 67, 87
2, 40856, Note_on_c, 0, 67, 0
2, 40859, Note_on_c, 0, 56, 0
2, 41007, Note_on_c, 0, 70, 83
2, 41048, Note_on_c, 0, 70, 0
2, 41207, Note_on_c, 0, 70, 74
2, 41236, Note_on_c, 0, 65, 45
2, 41256, Note_on_c, 0, 70, 0
2, 41270, Note_on_c, 0, 68, 74
2, 41322, Note_on_c, 0, 70, 82
2, 41325, Note_on_c, 0, 68, 0
2, 41366, Note_on_c, 0, 53, 61
2, 41387, Note_on_c, 0, 68, 80
2, 41395, Note_on_c, 0, 70, 0
2, 41447, Note_on_c, 0, 53, 0
2, 41463, Note_on_c, 0, 51, 63
2, 41528, Note_on_c, 0, 51, 0
2, 41566, Note_on_c, 0, 53, 72
2, 41582, Note_on_c, 0, 75, 85
2, 41599, Note_on_c, 0, 53, 0
2, 41705, Note_on_c, 0, 68, 0
2, 41787, Note_on_c, 0, 56, 75
2, 41820, Note_on_c, 0, 56, 0
2, 41976, Note_on_c, 0, 49, 70
2, 42009, Note_on_c, 0, 49, 0
2, 42026, Note_on_c, 0, 65, 0
2, 42052, Note_on_c, 0, 66, 67
2, 42075, Note_on_c, 0, 75, 0
2, 42121, Note_on_c, 0, 66, 0
2, 42140, Note_on_c, 0, 65, 69
2, 42170, Note_on_c, 0, 53, 67
2, 42196, Note_on_c, 0, 53, 0
2, 42219, Note_on_c, 0, 65, 0
2, 42233, Note_on_c, 0, 63, 64
2, 42363, Note_on_c, 0, 63, 0
2, 42368, Note_on_c, 0, 61, 73
2, 42381, Note_on_c, 0, 46, 63
2, 42575, Note_on_c, 0, 61, 0
2, 42596, Note_on_c, 0, 73, 74
2, 42682, Note_on_c, 0, 73, 0
2, 42689, Note_on_c, 0, 72, 74
2, 42779, Note_on_c, 0, 56, 57
2, 42779, Note_on_c, 0, 73, 87
2, 42784, Note_on_c, 0, 72, 0
2, 42821, Note_on_c, 0, 73, 0
2, 42986, Note_on_c, 0, 70, 77
2, 43029, Note_on_c, 0, 70, 0
2, 43031, Note_on_c, 0, 46, 0
2, 43102, Note_on_c, 0, 56, 0
2, 43190, Note_on_c, 0, 65, 71
2, 43227, Note_on_c, 0, 65, 0
2, 43383, Note_on_c, 0, 68, 71
2, 43414, Note_on_c, 0, 68, 0
2, 43570, Note_on_c, 0, 68, 71
2, 43595, Note_on_c, 0, 63, 32
2, 43621, Note_on_c, 0, 68, 0
2, 43635, Note_on_c, 0, 67, 75
2, 43697, Note_on_c, 0, 63, 0
2, 43697, Note_on_c, 0, 68, 80
2, 43700, Note_on_c, 0, 67, 0
2, 43720, Note_on_c, 0, 51, 59
2, 43760, Note_on_c, 0, 68, 0
2, 43763, Note_on_c, 0, 67, 73
2, 43789, Note_on_c, 0, 51, 0
2, 43823, Note_on_c, 0, 49, 59
2, 43893, Note_on_c, 0, 49, 0
2, 43927, Note_on_c, 0, 51, 66
2, 43937, Note_on_c, 0, 73, 85
2, 43960, Note_on_c, 0, 51, 0
2, 43995, Note_on_c, 0, 67, 0
2, 44138, Note_on_c, 0, 55, 67
2, 44168, Note_on_c, 0, 44, 32
2, 44171, Note_on_c, 0, 55, 0
2, 44206, Note_on_c, 0, 44, 0
2, 44331, Note_on_c, 0, 48, 64
2, 44348, Note_on_c, 0, 73, 0
2, 44365, Note_on_c, 0, 48, 0
2, 44398, Note_on_c, 0, 65, 61
2, 44483, Note_on_c, 0, 65, 0
2, 44506, Note_on_c, 0, 63, 69
2, 44516, Note_on_c, 0, 51, 68
2, 44548, Note_on_c, 0, 51, 0
2, 44573, Note_on_c, 0, 63, 0
2, 44596, Note_on_c, 0, 61, 69
2, 44656, Note_on_c, 0, 61, 0
2, 44709, Note_on_c, 0, 44, 65
2, 44711, Note_on_c, 0, 60, 70
2, 44749, Note_on_c, 0, 44, 0
2, 44761, Note_on_c, 0, 60, 0
2, 44822, Note_on_c, 0, 56, 49
2, 44823, Note_on_c, 0, 72, 68
2, 44878, Note_on_c, 0, 56, 0
2, 44889, Note_on_c, 0, 72, 0
2, 44902, Note_on_c, 0, 55, 62
2, 44926, Note_on_c, 0, 70, 80
2, 44951, Note_on_c, 0, 55, 0
2, 45013, Note_on_c, 0, 56, 57
2, 45013, Note_on_c, 0, 72, 71
2, 45016, Note_on_c, 0, 70, 0
2, 45063, Note_on_c, 0, 56, 0
2, 45078, Note_on_c, 0, 72, 0
2, 45113, Note_on_c, 0, 53, 64
2, 45113, Note_on_c, 0, 68, 80
2, 45154, Note_on_c, 0, 53, 0
2, 45188, Note_on_c, 0, 68, 0
2, 45214, Note_on_c, 0, 72, 60
2, 45221, Note_on_c, 0, 56, 48
2, 45267, Note_on_c, 0, 56, 0
2, 45275, Note_on_c, 0, 72, 0
2, 45305, Note_on_c, 0, 51, 68
2, 45306, Note_on_c, 0, 67, 78
2, 45351, Note_on_c, 0, 51, 0
2, 45360, Note_on_c, 0, 67, 0
2, 45403, Note_on_c, 0, 56, 61
2, 45407, Note_on_c, 0, 72, 69
2, 45460, Note_on_c, 0, 56, 0
2, 45475, Note_on_c, 0, 72, 0
2, 45500, Note_on_c, 0, 65, 79
2, 45509, Note_on_c, 0, 49, 65
2, 45559, Note_on_c, 0, 49, 0
2, 45566, Note_on_c, 0, 65, 0
2, 45589, Note_on_c, 0, 56, 61
2, 45593, Note_on_c, 0, 72, 68
2, 45651, Note_on_c, 0, 56, 0
2, 45685, Note_on_c, 0, 72, 0
2, 45694, Note_on_c, 0, 63, 79
2, 45699, Note_on_c, 0, 48, 65
2, 45754, Note_on_c, 0, 48, 0
2, 45768, Note_on_c, 0, 63, 0
2, 45781, Note_on_c, 0, 56, 65
2, 45788, Note_on_c, 0, 72, 75
2, 45842, Note_on_c, 0, 56, 0
2, 45851, Note_on_c, 0, 72, 0
2, 45883, Note_on_c, 0, 61, 85
2, 45887, Note_on_c, 0, 46, 75
2, 45953, Note_on_c, 0, 46, 0
2, 45963, Note_on_c, 0, 61, 0
2, 45979, Note_on_c, 0, 73, 83
2, 45983, Note_on_c, 0, 58, 73
2, 46077, Note_on_c, 0, 72, 86
2, 46082, Note_on_c, 0, 56, 77
2, 46086, Note_on_c, 0, 58, 0
2, 46086, Note_on_c, 0, 73, 0
2, 46179, Note_on_c, 0, 73, 91
2, 46181, Note_on_c, 0, 56, 0
2, 46187, Note_on_c, 0, 58, 72
2, 46190, Note_on_c, 0, 72, 0
2, 46261, Note_on_c, 0, 58, 0
2, 46275, Note_on_c, 0, 55, 76
2, 46283, Note_on_c, 0, 70, 87
2, 46297, Note_on_c, 0, 73, 0
2, 46339, Note_on_c, 0, 55, 0
2, 46373, Note_on_c, 0, 58, 72
2, 46385, Note_on_c, 0, 73, 87
2, 46391, Note_on_c, 0, 70, 0
2, 46460, Note_on_c, 0, 58, 0
2, 46475, Note_on_c, 0, 53, 74
2, 46480, Note_on_c, 0, 68, 88
2, 46485, Note_on_c, 0, 73, 0
2, 46543, Note_on_c, 0, 53, 0
2, 46568, Note_on_c, 0, 58, 73
2, 46572, Note_on_c, 0, 68, 0
2, 46578, Note_on_c, 0, 73, 81
2, 46635, Note_on_c, 0, 58, 0
2, 46654, Note_on_c, 0, 73, 0
2, 46670, Note_on_c, 0, 51, 77
2, 46671, Note_on_c, 0, 67, 88
2, 46740, Note_on_c, 0, 51, 0
2, 46750, Note_on_c, 0, 67, 0
2, 46755, Note_on_c, 0, 73, 80
2, 46768, Note_on_c, 0, 58, 66
2, 46833, Note_on_c, 0, 58, 0
2, 46863, Note_on_c, 0, 65, 84
2, 46872, Note_on_c, 0, 49, 67
2, 46872, Note_on_c, 0, 73, 0
2, 46954, Note_on_c, 0, 49, 0
2, 46960, Note_on_c, 0, 58, 70
2, 46961, Note_on_c, 0, 73, 76
2, 46962, Note_on_c, 0, 65, 0
2, 47013, Note_on_c, 0, 58, 0
2, 47066, Note_on_c, 0, 63, 92
2, 47076, Note_on_c, 0, 48, 82
2, 47118, Note_on_c, 0, 73, 0
2, 47260, Note_on_c, 0, 68, 76
2, 47267, Note_on_c, 0, 63, 0
2, 47285, Note_on_c, 0, 60, 86
2, 47300, Note_on_c, 0, 48, 0
2, 47307, Note_on_c, 0, 70, 74
2, 47316, Note_on_c, 0, 68, 0
2, 47374, Note_on_c, 0, 68, 79
2, 47384, Note_on_c, 0, 70, 0
2, 47415, Note_on_c, 0, 67, 76
2, 47423, Note_on_c, 0, 68, 0
2, 47474, Note_on_c, 0, 68, 89
2, 47481, Note_on_c, 0, 60, 0
2, 47493, Note_on_c, 0, 67, 0
2, 47516, Note_on_c, 0, 68, 0
2, 47666, Note_on_c, 0, 53, 79
2, 47667, Note_on_c, 0, 72, 85
2, 47721, Note_on_c, 0, 72, 0
2, 47763, Note_on_c, 0, 55, 83
2, 47768, Note_on_c, 0, 53, 0
2, 47858, Note_on_c, 0, 55, 0
2, 47858, Note_on_c, 0, 56, 83
2, 47871, Note_on_c, 0, 65, 79
2, 47901, Note_on_c, 0, 65, 0
2, 47945, Note_on_c, 0, 56, 0
2, 47948, Note_on_c, 0, 55, 86
2, 48042, Note_on_c, 0, 56, 83
2, 48055, Note_on_c, 0, 55, 0
2, 48061, Note_on_c, 0, 68, 81
2, 48112, Note_on_c, 0, 68, 0
2, 48131, Note_on_c, 0, 56, 0
2, 48133, Note_on_c, 0, 53, 79
2, 48238, Note_on_c, 0, 53, 0
2, 48252, Note_on_c, 0, 58, 91
2, 48254, Note_on_c, 0, 73, 93
2, 48440, Note_on_c, 0, 73, 0
2, 48452, Note_on_c, 0, 58, 0
2, 48453, Note_on_c, 0, 67, 81
2, 48471, Note_on_c, 0, 46, 83
2, 48505, Note_on_c, 0, 68, 67
2, 48507, Note_on_c, 0, 67, 0
2, 48571, Note_on_c, 0, 67, 82
2, 48612, Note_on_c, 0, 65, 81
2, 48615, Note_on_c, 0, 68, 0
2, 48618, Note_on_c, 0, 67, 0
2, 48672, Note_on_c, 0, 67, 95
2, 48674, Note_on_c, 0, 46, 0
2, 48693, Note_on_c, 0, 65, 0
2, 48717, Note_on_c, 0, 67, 0
2, 48871, Note_on_c, 0, 70, 89
2, 48874, Note_on_c, 0, 51, 83
2, 48920, Note_on_c, 0, 70, 0
2, 48971, Note_on_c, 0, 53, 82
2, 49005, Note_on_c, 0, 51, 0
2, 49069, Note_on_c, 0, 55, 87
2, 49070, Note_on_c, 0, 63, 82
2, 49072, Note_on_c, 0, 53, 0
2, 49117, Note_on_c, 0, 63, 0
2, 49160, Note_on_c, 0, 55, 0
2, 49161, Note_on_c, 0, 53, 86
2, 49258, Note_on_c, 0, 53, 0
2, 49265, Note_on_c, 0, 55, 90
2, 49269, Note_on_c, 0, 67, 85
2, 49322, Note_on_c, 0, 67, 0
2, 49360, Note_on_c, 0, 55, 0
2, 49379, Note_on_c, 0, 51, 82
2, 49476, Note_on_c, 0, 72, 89
2, 49493, Note_on_c, 0, 56, 86
2, 49501, Note_on_c, 0, 51, 0
2, 49727, Note_on_c, 0, 68, 84
2, 49728, Note_on_c, 0, 65, 58
2, 49738, Note_on_c, 0, 49, 77
2, 49739, Note_on_c, 0, 61, 58
2, 49745, Note_on_c, 0, 72, 0
2, 49757, Note_on_c, 0, 56, 0
2, 49888, Note_on_c, 0, 65, 0
2, 49892, Note_on_c, 0, 61, 0
2, 49937, Note_on_c, 0, 68, 0
2, 50035, Note_on_c, 0, 51, 73
2, 50039, Note_on_c, 0, 68, 84
2, 50047, Note_on_c, 0, 63, 66
2, 50049, Note_on_c, 0, 58, 64
2, 50079, Note_on_c, 0, 49, 0
2, 50383, Note_on_c, 0, 49, 69
2, 50421, Note_on_c, 0, 51, 0
2, 50755, Note_on_c, 0, 67, 76
2, 50760, Note_on_c, 0, 51, 64
2, 50832, Note_on_c, 0, 49, 0
2, 50893, Note_on_c, 0, 68, 0
2, 51135, Note_on_c, 0, 39, 56
2, 51182, Note_on_c, 0, 51, 0
2, 51184, Note_on_c, 0, 58, 0
2, 51200, Note_on_c, 0, 63, 0
2, 51632, Note_on_c, 0, 68, 70
2, 51635, Note_on_c, 0, 44, 49
2, 51639, Note_on_c, 0, 63, 57
2, 51643, Note_on_c, 0, 60, 54
2, 51680, Note_on_c, 0, 67, 0
2, 51695, Note_on_c, 0, 39, 0
2, 53628, Note_on_c, 0, 44, 0
2, 53641, Note_on_c, 0, 60, 0
2, 53645, Note_on_c, 0, 68, 0
2, 53732, Note_on_c, 0, 63, 0
2, 54685,End_track
0, 0, End_of_file
