0, 0, Header, 1, 2, 384
1, 0, Start_track
1, 0, Tempo, 500000
1, 0, Time_signature, 4, 2, 24, 8
1, 1, End_track
2, 0, Start_track
2, 0, Title_t, "7.6.13 Group 1"
2, 0, Program_c, 0, 0
2, 0, Control_c, 0, 64, 0
2, 0, Control_c, 0, 66, 0
2, 0, Control_c, 0, 67, 0
2, 755, Note_on_c, 0, 56, 62
2, 756, Note_on_c, 0, 63, 68
2, 759, Note_on_c, 0, 60, 70
2, 994, Note_on_c, 0, 68, 72
2, 1057, Note_on_c, 0, 68, 0
2, 1071, Note_on_c, 0, 67, 72
2, 1155, Note_on_c, 0, 68, 85
2, 1163, Note_on_c, 0, 67, 0
2, 1188, Note_on_c, 0, 68, 0
2, 1206, Note_on_c, 0, 60, 0
2, 1210, Note_on_c, 0, 63, 0
2, 1224, Note_on_c, 0, 56, 0
2, 1359, Note_on_c, 0, 72, 82
2, 1405, Note_on_c, 0, 72, 0
2, 1567, Note_on_c, 0, 63, 73
2, 1598, Note_on_c, 0, 63, 0
2, 1772, Note_on_c, 0, 68, 73
2, 1937, Note_on_c, 0, 68, 0
2, 1974, Note_on_c, 0, 63, 73
2, 1980, Note_on_c, 0, 58, 68
2, 1981, Note_on_c, 0, 55, 63
2, 2173, Note_on_c, 0, 70, 78
2, 2246, Note_on_c, 0, 70, 0
2, 2252, Note_on_c, 0, 68, 82
2, 2346, Note_on_c, 0, 68, 0
2, 2347, Note_on_c, 0, 70, 88
2, 2398, Note_on_c, 0, 55, 0
2, 2398, Note_on_c, 0, 63, 0
2, 2398, Note_on_c, 0, 70, 0
2, 2420, Note_on_c, 0, 58, 0
2, 2550, Note_on_c, 0, 73, 88
2, 2601, Note_on_c, 0, 73, 0
2, 2747, Note_on_c, 0, 63, 84
2, 2792, Note_on_c, 0, 63, 0
2, 2934, Note_on_c, 0, 70, 83
2, 2990, Note_on_c, 0, 70, 0
2, 3124, Note_on_c, 0, 72, 89
2, 3322, Note_on_c, 0, 72, 0
2, 3347, Note_on_c, 0, 56, 73
2, 3427, Note_on_c, 0, 56, 0
2, 3432, Note_on_c, 0, 55, 68
2, 3508, Note_on_c, 0, 56, 81
2, 3509, Note_on_c, 0, 80, 92
2, 3520, Note_on_c, 0, 55, 0
2, 3521, Note_on_c, 0, 72, 70
2, 3527, Note_on_c, 0, 75, 68
2, 3536, Note_on_c, 0, 56, 0
2, 3723, Note_on_c, 0, 60, 76
2, 3759, Note_on_c, 0, 60, 0
2, 3905, Note_on_c, 0, 51, 71
2, 3931, Note_on_c, 0, 72, 0
2, 3936, Note_on_c, 0, 80, 0
2, 3943, Note_on_c, 0, 75, 0
2, 3951, Note_on_c, 0, 51, 0
2, 4102, Note_on_c, 0, 75, 78
2, 4110, Note_on_c, 0, 56, 65
2, 4114, Note_on_c, 0, 72, 56
2, 4144, Note_on_c, 0, 72, 0
2, 4154, Note_on_c, 0, 75, 0
2, 4222, Note_on_c, 0, 56, 0
2, 4296, Note_on_c, 0, 73, 75
2, 4302, Note_on_c, 0, 70, 64
2, 4499, Note_on_c, 0, 58, 61
2, 4570, Note_on_c, 0, 58, 0
2, 4595, Note_on_c, 0, 56, 60
2, 4655, Note_on_c, 0, 56, 0
2, 4667, Note_on_c, 0, 79, 79
2, 4685, Note_on_c, 0, 58, 61
2, 4717, Note_on_c, 0, 58, 0
2, 4868, Note_on_c, 0, 61, 70
2, 4902, Note_on_c, 0, 61, 0
2, 4987, Note_on_c, 0, 70, 0
2, 5022, Note_on_c, 0, 73, 0
2, 5047, Note_on_c, 0, 79, 0
2, 5054, Note_on_c, 0, 51, 71
2, 5104, Note_on_c, 0, 51, 0
2, 5233, Note_on_c, 0, 79, 82
2, 5238, Note_on_c, 0, 70, 71
2, 5239, Note_on_c, 0, 58, 78
2, 5244, Note_on_c, 0, 73, 70
2, 5270, Note_on_c, 0, 70, 0
2, 5280, Note_on_c, 0, 73, 0
2, 5291, Note_on_c, 0, 79, 0
2, 5398, Note_on_c, 0, 58, 0
2, 5427, Note_on_c, 0, 80, 87
2, 5429, Note_on_c, 0, 68, 74
2, 5429, Note_on_c, 0, 75, 72
2, 5545, Note_on_c, 0, 75, 0
2, 5650, Note_on_c, 0, 60, 83
2, 5731, Note_on_c, 0, 60, 0
2, 5737, Note_on_c, 0, 58, 84
2, 5800, Note_on_c, 0, 58, 0
2, 5811, Note_on_c, 0, 75, 87
2, 5827, Note_on_c, 0, 60, 77
2, 5851, Note_on_c, 0, 60, 0
2, 5862, Note_on_c, 0, 80, 0
2, 5878, Note_on_c, 0, 68, 0
2, 6005, Note_on_c, 0, 63, 75
2, 6042, Note_on_c, 0, 63, 0
2, 6147, Note_on_c, 0, 75, 0
2, 6194, Note_on_c, 0, 56, 76
2, 6238, Note_on_c, 0, 56, 0
2, 6389, Note_on_c, 0, 60, 74
2, 6398, Note_on_c, 0, 75, 70
2, 6404, Note_on_c, 0, 70, 57
2, 6414, Note_on_c, 0, 60, 0
2, 6428, Note_on_c, 0, 75, 0
2, 6430, Note_on_c, 0, 70, 0
2, 6570, Note_on_c, 0, 75, 77
2, 6572, Note_on_c, 0, 53, 69
2, 6584, Note_on_c, 0, 68, 58
2, 6607, Note_on_c, 0, 68, 0
2, 6611, Note_on_c, 0, 75, 0
2, 6774, Note_on_c, 0, 80, 76
2, 6849, Note_on_c, 0, 79, 75
2, 6853, Note_on_c, 0, 80, 0
2, 6945, Note_on_c, 0, 80, 78
2, 6949, Note_on_c, 0, 65, 62
2, 6949, Note_on_c, 0, 79, 0
2, 6971, Note_on_c, 0, 80, 0
2, 7137, Note_on_c, 0, 53, 0
2, 7148, Note_on_c, 0, 77, 79
2, 7200, Note_on_c, 0, 77, 0
2, 7320, Note_on_c, 0, 65, 0
2, 7348, Note_on_c, 0, 72, 72
2, 7380, Note_on_c, 0, 72, 0
2, 7523, Note_on_c, 0, 75, 75
2, 7580, Note_on_c, 0, 75, 0
2, 7725, Note_on_c, 0, 73, 71
2, 7739, Note_on_c, 0, 70, 56
2, 7938, Note_on_c, 0, 58, 59
2, 7993, Note_on_c, 0, 58, 0
2, 8032, Note_on_c, 0, 56, 63
2, 8098, Note_on_c, 0, 56, 0
2, 8106, Note_on_c, 0, 58, 71
2, 8115, Note_on_c, 0, 80, 73
2, 8142, Note_on_c, 0, 58, 0
2, 8311, Note_on_c, 0, 61, 69
2, 8331, Note_on_c, 0, 70, 0
2, 8347, Note_on_c, 0, 61, 0
2, 8388, Note_on_c, 0, 73, 0
2, 8495, Note_on_c, 0, 55, 73
2, 8535, Note_on_c, 0, 55, 0
2, 8538, Note_on_c, 0, 80, 0
2, 8691, Note_on_c, 0, 73, 76
2, 8696, Note_on_c, 0, 68, 67
2, 8697, Note_on_c, 0, 58, 71
2, 8727, Note_on_c, 0, 58, 0
2, 8727, Note_on_c, 0, 68, 0
2, 8746, Note_on_c, 0, 73, 0
2, 8884, Note_on_c, 0, 73, 77
2, 8886, Note_on_c, 0, 51, 79
2, 8889, Note_on_c, 0, 67, 71
2, 8917, Note_on_c, 0, 67, 0
2, 8928, Note_on_c, 0, 73, 0
2, 9085, Note_on_c, 0, 82, 79
2, 9172, Note_on_c, 0, 80, 84
2, 9181, Note_on_c, 0, 82, 0
2, 9269, Note_on_c, 0, 63, 86
2, 9275, Note_on_c, 0, 82, 89
2, 9282, Note_on_c, 0, 80, 0
2, 9327, Note_on_c, 0, 82, 0
2, 9361, Note_on_c, 0, 51, 0
2, 9478, Note_on_c, 0, 79, 85
2, 9485, Note_on_c, 0, 63, 0
2, 9532, Note_on_c, 0, 79, 0
2, 9675, Note_on_c, 0, 73, 85
2, 9724, Note_on_c, 0, 73, 0
2, 9859, Note_on_c, 0, 67, 84
2, 9860, Note_on_c, 0, 82, 79
2, 9861, Note_on_c, 0, 73, 83
2, 9888, Note_on_c, 0, 73, 0
2, 9892, Note_on_c, 0, 82, 0
2, 10029, Note_on_c, 0, 67, 0
2, 10057, Note_on_c, 0, 72, 81
2, 10073, Note_on_c, 0, 68, 70
2, 10278, Note_on_c, 0, 56, 80
2, 10287, Note_on_c, 0, 68, 0
2, 10302, Note_on_c, 0, 72, 0
2, 10353, Note_on_c, 0, 55, 82
2, 10354, Note_on_c, 0, 56, 0
2, 10437, Note_on_c, 0, 55, 0
2, 10438, Note_on_c, 0, 56, 91
2, 10473, Note_on_c, 0, 56, 0
2, 10534, Note_on_c, 0, 75, 89
2, 10624, Note_on_c, 0, 77, 90
2, 10635, Note_on_c, 0, 60, 75
2, 10648, Note_on_c, 0, 75, 0
2, 10665, Note_on_c, 0, 60, 0
2, 10714, Note_on_c, 0, 79, 87
2, 10729, Note_on_c, 0, 77, 0
2, 10814, Note_on_c, 0, 80, 88
2, 10816, Note_on_c, 0, 53, 75
2, 10855, Note_on_c, 0, 79, 0
2, 10857, Note_on_c, 0, 53, 0
2, 10908, Note_on_c, 0, 77, 75
2, 10939, Note_on_c, 0, 80, 0
2, 11002, Note_on_c, 0, 56, 79
2, 11002, Note_on_c, 0, 74, 77
2, 11005, Note_on_c, 0, 77, 0
2, 11031, Note_on_c, 0, 56, 0
2, 11086, Note_on_c, 0, 77, 80
2, 11100, Note_on_c, 0, 74, 0
2, 11192, Note_on_c, 0, 70, 80
2, 11205, Note_on_c, 0, 50, 83
2, 11245, Note_on_c, 0, 77, 0
2, 11404, Note_on_c, 0, 55, 79
2, 11420, Note_on_c, 0, 50, 0
2, 11482, Note_on_c, 0, 53, 80
2, 11483, Note_on_c, 0, 55, 0
2, 11559, Note_on_c, 0, 53, 0
2, 11563, Note_on_c, 0, 55, 87
2, 11619, Note_on_c, 0, 55, 0
2, 11687, Note_on_c, 0, 74, 76
2, 11705, Note_on_c, 0, 70, 0
2, 11762, Note_on_c, 0, 74, 0
2, 11771, Note_on_c, 0, 58, 78
2, 11773, Note_on_c, 0, 75, 83
2, 11805, Note_on_c, 0, 58, 0
2, 11865, Note_on_c, 0, 77, 82
2, 11885, Note_on_c, 0, 75, 0
2, 11957, Note_on_c, 0, 79, 83
2, 11963, Note_on_c, 0, 51, 77
2, 11968, Note_on_c, 0, 77, 0
2, 12002, Note_on_c, 0, 51, 0
2, 12052, Note_on_c, 0, 79, 0
2, 12053, Note_on_c, 0, 75, 75
2, 12135, Note_on_c, 0, 75, 0
2, 12142, Note_on_c, 0, 72, 74
2, 12144, Note_on_c, 0, 55, 69
2, 12170, Note_on_c, 0, 55, 0
2, 12216, Note_on_c, 0, 72, 0
2, 12234, Note_on_c, 0, 75, 75
2, 12299, Note_on_c, 0, 75, 0
2, 12329, Note_on_c, 0, 68, 74
2, 12332, Note_on_c, 0, 48, 79
2, 12398, Note_on_c, 0, 68, 0
2, 12432, Note_on_c, 0, 70, 74
2, 12519, Note_on_c, 0, 70, 0
2, 12525, Note_on_c, 0, 67, 77
2, 12535, Note_on_c, 0, 53, 77
2, 12546, Note_on_c, 0, 48, 0
2, 12595, Note_on_c, 0, 67, 0
2, 12617, Note_on_c, 0, 51, 79
2, 12619, Note_on_c, 0, 53, 0
2, 12621, Note_on_c, 0, 70, 78
2, 12683, Note_on_c, 0, 70, 0
2, 12692, Note_on_c, 0, 51, 0
2, 12706, Note_on_c, 0, 53, 85
2, 12719, Note_on_c, 0, 68, 76
2, 12739, Note_on_c, 0, 53, 0
2, 12797, Note_on_c, 0, 68, 0
2, 12803, Note_on_c, 0, 72, 79
2, 12900, Note_on_c, 0, 74, 78
2, 12903, Note_on_c, 0, 56, 77
2, 12903, Note_on_c, 0, 72, 0
2, 12934, Note_on_c, 0, 56, 0
2, 12980, Note_on_c, 0, 75, 80
2, 12999, Note_on_c, 0, 74, 0
2, 13081, Note_on_c, 0, 77, 82
2, 13091, Note_on_c, 0, 50, 67
2, 13103, Note_on_c, 0, 75, 0
2, 13121, Note_on_c, 0, 50, 0
2, 13176, Note_on_c, 0, 77, 0
2, 13182, Note_on_c, 0, 74, 73
2, 13272, Note_on_c, 0, 74, 0
2, 13273, Note_on_c, 0, 70, 74
2, 13274, Note_on_c, 0, 53, 65
2, 13301, Note_on_c, 0, 53, 0
2, 13353, Note_on_c, 0, 70, 0
2, 13361, Note_on_c, 0, 74, 67
2, 13432, Note_on_c, 0, 74, 0
2, 13460, Note_on_c, 0, 67, 73
2, 13463, Note_on_c, 0, 46, 73
2, 13540, Note_on_c, 0, 67, 0
2, 13551, Note_on_c, 0, 68, 72
2, 13641, Note_on_c, 0, 68, 0
2, 13643, Note_on_c, 0, 51, 70
2, 13651, Note_on_c, 0, 65, 74
2, 13679, Note_on_c, 0, 46, 0
2, 13713, Note_on_c, 0, 51, 0
2, 13715, Note_on_c, 0, 65, 0
2, 13736, Note_on_c, 0, 50, 69
2, 13741, Note_on_c, 0, 68, 76
2, 13800, Note_on_c, 0, 68, 0
2, 13811, Note_on_c, 0, 50, 0
2, 13830, Note_on_c, 0, 51, 78
2, 13832, Note_on_c, 0, 67, 75
2, 13863, Note_on_c, 0, 51, 0
2, 13926, Note_on_c, 0, 67, 0
2, 13930, Note_on_c, 0, 70, 76
2, 14009, Note_on_c, 0, 70, 0
2, 14020, Note_on_c, 0, 72, 77
2, 14029, Note_on_c, 0, 55, 62
2, 14054, Note_on_c, 0, 55, 0
2, 14112, Note_on_c, 0, 72, 0
2, 14112, Note_on_c, 0, 74, 75
2, 14207, Note_on_c, 0, 75, 81
2, 14209, Note_on_c, 0, 48, 65
2, 14232, Note_on_c, 0, 74, 0
2, 14238, Note_on_c, 0, 48, 0
2, 14295, Note_on_c, 0, 75, 0
2, 14299, Note_on_c, 0, 72, 71
2, 14381, Note_on_c, 0, 72, 0
2, 14387, Note_on_c, 0, 68, 68
2, 14394, Note_on_c, 0, 51, 64
2, 14426, Note_on_c, 0, 51, 0
2, 14449, Note_on_c, 0, 68, 0
2, 14476, Note_on_c, 0, 72, 66
2, 14521, Note_on_c, 0, 72, 0
2, 14583, Note_on_c, 0, 44, 67
2, 14586, Note_on_c, 0, 65, 67
2, 14632, Note_on_c, 0, 65, 0
2, 14679, Note_on_c, 0, 75, 68
2, 14764, Note_on_c, 0, 75, 0
2, 14770, Note_on_c, 0, 74, 69
2, 14790, Note_on_c, 0, 53, 60
2, 14813, Note_on_c, 0, 44, 0
2, 14838, Note_on_c, 0, 53, 0
2, 14870, Note_on_c, 0, 51, 69
2, 14870, Note_on_c, 0, 74, 0
2, 14872, Note_on_c, 0, 75, 68
2, 14921, Note_on_c, 0, 75, 0
2, 14932, Note_on_c, 0, 51, 0
2, 14966, Note_on_c, 0, 53, 64
2, 14974, Note_on_c, 0, 68, 72
2, 14992, Note_on_c, 0, 53, 0
2, 15038, Note_on_c, 0, 68, 0
2, 15063, Note_on_c, 0, 75, 65
2, 15128, Note_on_c, 0, 75, 0
2, 15161, Note_on_c, 0, 74, 66
2, 15173, Note_on_c, 0, 56, 61
2, 15202, Note_on_c, 0, 56, 0
2, 15247, Note_on_c, 0, 75, 69
2, 15258, Note_on_c, 0, 74, 0
2, 15303, Note_on_c, 0, 75, 0
2, 15355, Note_on_c, 0, 65, 73
2, 15359, Note_on_c, 0, 50, 65
2, 15387, Note_on_c, 0, 50, 0
2, 15412, Note_on_c, 0, 65, 0
2, 15449, Note_on_c, 0, 75, 68
2, 15536, Note_on_c, 0, 75, 0
2, 15541, Note_on_c, 0, 74, 74
2, 15553, Note_on_c, 0, 53, 69
2, 15580, Note_on_c, 0, 53, 0
2, 15634, Note_on_c, 0, 74, 0
2, 15639, Note_on_c, 0, 75, 79
2, 15702, Note_on_c, 0, 75, 0
2, 15740, Note_on_c, 0, 67, 83
2, 15742, Note_on_c, 0, 46, 75
2, 15827, Note_on_c, 0, 75, 79
2, 15833, Note_on_c, 0, 67, 0
2, 15920, Note_on_c, 0, 55, 64
2, 15922, Note_on_c, 0, 74, 81
2, 15926, Note_on_c, 0, 75, 0
2, 15998, Note_on_c, 0, 46, 0
2, 16006, Note_on_c, 0, 55, 0
2, 16014, Note_on_c, 0, 75, 82
2, 16017, Note_on_c, 0, 53, 75
2, 16023, Note_on_c, 0, 74, 0
2, 16102, Note_on_c, 0, 75, 0
2, 16106, Note_on_c, 0, 53, 0
2, 16111, Note_on_c, 0, 70, 85
2, 16115, Note_on_c, 0, 55, 81
2, 16144, Note_on_c, 0, 55, 0
2, 16184, Note_on_c, 0, 70, 0
2, 16201, Note_on_c, 0, 75, 84
2, 16307, Note_on_c, 0, 74, 81
2, 16311, Note_on_c, 0, 75, 0
2, 16312, Note_on_c, 0, 58, 83
2, 16352, Note_on_c, 0, 58, 0
2, 16402, Note_on_c, 0, 75, 85
2, 16424, Note_on_c, 0, 74, 0
2, 16479, Note_on_c, 0, 75, 0
2, 16500, Note_on_c, 0, 67, 86
2, 16505, Note_on_c, 0, 51, 74
2, 16544, Note_on_c, 0, 51, 0
2, 16584, Note_on_c, 0, 75, 83
2, 16591, Note_on_c, 0, 67, 0
2, 16675, Note_on_c, 0, 74, 81
2, 16677, Note_on_c, 0, 75, 0
2, 16682, Note_on_c, 0, 55, 76
2, 16715, Note_on_c, 0, 55, 0
2, 16775, Note_on_c, 0, 75, 83
2, 16778, Note_on_c, 0, 74, 0
2, 16865, Note_on_c, 0, 75, 0
2, 16873, Note_on_c, 0, 68, 85
2, 16887, Note_on_c, 0, 48, 77
2, 16969, Note_on_c, 0, 75, 82
2, 17073, Note_on_c, 0, 73, 83
2, 17078, Note_on_c, 0, 56, 81
2, 17090, Note_on_c, 0, 75, 0
2, 17095, Note_on_c, 0, 68, 0
2, 17109, Note_on_c, 0, 48, 0
2, 17171, Note_on_c, 0, 75, 80
2, 17173, Note_on_c, 0, 55, 80
2, 17176, Note_on_c, 0, 56, 0
2, 17193, Note_on_c, 0, 73, 0
2, 17255, Note_on_c, 0, 72, 86
2, 17257, Note_on_c, 0, 55, 0
2, 17261, Note_on_c, 0, 56, 89
2, 17266, Note_on_c, 0, 75, 0
2, 17301, Note_on_c, 0, 56, 0
2, 17354, Note_on_c, 0, 75, 82
2, 17372, Note_on_c, 0, 72, 0
2, 17445, Note_on_c, 0, 75, 0
2, 17452, Note_on_c, 0, 60, 85
2, 17454, Note_on_c, 0, 70, 85
2, 17481, Note_on_c, 0, 60, 0
2, 17525, Note_on_c, 0, 70, 0
2, 17545, Note_on_c, 0, 75, 74
2, 17627, Note_on_c, 0, 75, 0
2, 17644, Note_on_c, 0, 53, 75
2, 17644, Note_on_c, 0, 68, 82
2, 17677, Note_on_c, 0, 53, 0
2, 17694, Note_on_c, 0, 68, 0
2, 17750, Note_on_c, 0, 75, 64
2, 17787, Note_on_c, 0, 75, 0
2, 17842, Note_on_c, 0, 67, 75
2, 17844, Note_on_c, 0, 56, 73
2, 17875, Note_on_c, 0, 56, 0
2, 17897, Note_on_c, 0, 67, 0
2, 17930, Note_on_c, 0, 75, 55
2, 17987, Note_on_c, 0, 75, 0
2, 18024, Note_on_c, 0, 65, 74
2, 18027, Note_on_c, 0, 50, 72
2, 18059, Note_on_c, 0, 50, 0
2, 18077, Note_on_c, 0, 65, 0
2, 18110, Note_on_c, 0, 75, 64
2, 18190, Note_on_c, 0, 75, 0
2, 18195, Note_on_c, 0, 53, 71
2, 18209, Note_on_c, 0, 67, 79
2, 18233, Note_on_c, 0, 53, 0
2, 18267, Note_on_c, 0, 67, 0
2, 18298, Note_on_c, 0, 75, 72
2, 18393, Note_on_c, 0, 68, 83
2, 18395, Note_on_c, 0, 46, 75
2, 18426, Note_on_c, 0, 75, 0
2, 18460, Note_on_c, 0, 46, 0
2, 18488, Note_on_c, 0, 74, 76
2, 18583, Note_on_c, 0, 75, 75
2, 18594, Note_on_c, 0, 50, 79
2, 18618, Note_on_c, 0, 68, 0
2, 18639, Note_on_c, 0, 50, 0
2, 18654, Note_on_c, 0, 74, 0
2, 18687, Note_on_c, 0, 77, 79
2, 18719, Note_on_c, 0, 75, 0
2, 18781, Note_on_c, 0, 67, 86
2, 18782, Note_on_c, 0, 51, 82
2, 18813, Note_on_c, 0, 77, 0
2, 18835, Note_on_c, 0, 51, 0
2, 18874, Note_on_c, 0, 70, 84
2, 18904, Note_on_c, 0, 67, 0
2, 18965, Note_on_c, 0, 48, 84
2, 18966, Note_on_c, 0, 68, 90
2, 18999, Note_on_c, 0, 48, 0
2, 19007, Note_on_c, 0, 70, 0
2, 19066, Note_on_c, 0, 72, 77
2, 19076, Note_on_c, 0, 68, 0
2, 19150, Note_on_c, 0, 43, 92
2, 19160, Note_on_c, 0, 70, 87
2, 19165, Note_on_c, 0, 72, 0
2, 19208, Note_on_c, 0, 43, 0
2, 19256, Note_on_c, 0, 70, 0
2, 19256, Note_on_c, 0, 75, 87
2, 19341, Note_on_c, 0, 41, 90
2, 19361, Note_on_c, 0, 74, 78
2, 19399, Note_on_c, 0, 75, 0
2, 19401, Note_on_c, 0, 41, 0
2, 19445, Note_on_c, 0, 72, 80
2, 19484, Note_on_c, 0, 74, 0
2, 19538, Note_on_c, 0, 70, 85
2, 19541, Note_on_c, 0, 43, 82
2, 19552, Note_on_c, 0, 72, 0
2, 19595, Note_on_c, 0, 43, 0
2, 19625, Note_on_c, 0, 68, 85
2, 19625, Note_on_c, 0, 70, 0
2, 19716, Note_on_c, 0, 44, 84
2, 19717, Note_on_c, 0, 70, 87
2, 19722, Note_on_c, 0, 68, 0
2, 19787, Note_on_c, 0, 44, 0
2, 19790, Note_on_c, 0, 72, 83
2, 19797, Note_on_c, 0, 70, 0
2, 19830, Note_on_c, 0, 72, 0
2, 19914, Note_on_c, 0, 46, 91
2, 19917, Note_on_c, 0, 67, 89
2, 19919, Note_on_c, 0, 62, 87
2, 19982, Note_on_c, 0, 67, 0
2, 19985, Note_on_c, 0, 65, 78
2, 20062, Note_on_c, 0, 67, 86
2, 20074, Note_on_c, 0, 65, 0
2, 20129, Note_on_c, 0, 65, 79
2, 20162, Note_on_c, 0, 67, 0
2, 20169, Note_on_c, 0, 62, 0
2, 20213, Note_on_c, 0, 46, 0
2, 20215, Note_on_c, 0, 63, 87
2, 20226, Note_on_c, 0, 65, 0
2, 20258, Note_on_c, 0, 63, 0
2, 20306, Note_on_c, 0, 63, 94
2, 20525, Note_on_c, 0, 51, 78
2, 20607, Note_on_c, 0, 51, 0
2, 20613, Note_on_c, 0, 50, 72
2, 20696, Note_on_c, 0, 51, 86
2, 20704, Note_on_c, 0, 70, 77
2, 20707, Note_on_c, 0, 67, 74
2, 20707, Note_on_c, 0, 75, 89
2, 20710, Note_on_c, 0, 50, 0
2, 20729, Note_on_c, 0, 51, 0
2, 20924, Note_on_c, 0, 55, 74
2, 20964, Note_on_c, 0, 55, 0
2, 21024, Note_on_c, 0, 63, 0
2, 21027, Note_on_c, 0, 70, 0
2, 21033, Note_on_c, 0, 67, 0
2, 21107, Note_on_c, 0, 46, 76
2, 21145, Note_on_c, 0, 46, 0
2, 21232, Note_on_c, 0, 75, 0
2, 21298, Note_on_c, 0, 51, 72
2, 21300, Note_on_c, 0, 70, 73
2, 21303, Note_on_c, 0, 67, 71
2, 21331, Note_on_c, 0, 67, 0
2, 21334, Note_on_c, 0, 70, 0
2, 21471, Note_on_c, 0, 51, 0
2, 21489, Note_on_c, 0, 68, 70
2, 21495, Note_on_c, 0, 65, 65
2, 21716, Note_on_c, 0, 53, 64
2, 21778, Note_on_c, 0, 53, 0
2, 21801, Note_on_c, 0, 51, 61
2, 21841, Note_on_c, 0, 68, 0
2, 21856, Note_on_c, 0, 51, 0
2, 21892, Note_on_c, 0, 53, 69
2, 21895, Note_on_c, 0, 74, 76
2, 21905, Note_on_c, 0, 65, 0
2, 21919, Note_on_c, 0, 53, 0
2, 22093, Note_on_c, 0, 56, 58
2, 22130, Note_on_c, 0, 56, 0
2, 22287, Note_on_c, 0, 74, 0
2, 22290, Note_on_c, 0, 46, 60
2, 22325, Note_on_c, 0, 46, 0
2, 22477, Note_on_c, 0, 53, 59
2, 22486, Note_on_c, 0, 74, 70
2, 22494, Note_on_c, 0, 65, 64
2, 22504, Note_on_c, 0, 68, 50
2, 22509, Note_on_c, 0, 53, 0
2, 22525, Note_on_c, 0, 74, 0
2, 22526, Note_on_c, 0, 65, 0
2, 22564, Note_on_c, 0, 68, 0
2, 22685, Note_on_c, 0, 75, 78
2, 22691, Note_on_c, 0, 55, 71
2, 22691, Note_on_c, 0, 63, 74
2, 22691, Note_on_c, 0, 70, 64
2, 22697, Note_on_c, 0, 67, 59
2, 22725, Note_on_c, 0, 70, 0
2, 22726, Note_on_c, 0, 67, 0
2, 22727, Note_on_c, 0, 63, 0
2, 22730, Note_on_c, 0, 75, 0
2, 22910, Note_on_c, 0, 63, 73
2, 22987, Note_on_c, 0, 63, 0
2, 22992, Note_on_c, 0, 62, 73
2, 23012, Note_on_c, 0, 55, 0
2, 23085, Note_on_c, 0, 62, 0
2, 23089, Note_on_c, 0, 63, 80
2, 23126, Note_on_c, 0, 63, 0
2, 23277, Note_on_c, 0, 51, 61
2, 23281, Note_on_c, 0, 67, 72
2, 23326, Note_on_c, 0, 67, 0
2, 23365, Note_on_c, 0, 53, 69
2, 23367, Note_on_c, 0, 51, 0
2, 23444, Note_on_c, 0, 53, 0
2, 23455, Note_on_c, 0, 55, 73
2, 23459, Note_on_c, 0, 58, 74
2, 23491, Note_on_c, 0, 58, 0
2, 23524, Note_on_c, 0, 55, 0
2, 23544, Note_on_c, 0, 53, 71
2, 23606, Note_on_c, 0, 53, 0
2, 23633, Note_on_c, 0, 55, 76
2, 23638, Note_on_c, 0, 63, 72
2, 23681, Note_on_c, 0, 63, 0
2, 23693, Note_on_c, 0, 55, 0
2, 23721, Note_on_c, 0, 51, 71
2, 23794, Note_on_c, 0, 51, 0
2, 23832, Note_on_c, 0, 58, 78
2, 23907, Note_on_c, 0, 58, 0
2, 24028, Note_on_c, 0, 65, 74
2, 24033, Note_on_c, 0, 46, 70
2, 24109, Note_on_c, 0, 63, 78
2, 24112, Note_on_c, 0, 46, 0
2, 24114, Note_on_c, 0, 65, 0
2, 24207, Note_on_c, 0, 65, 82
2, 24208, Note_on_c, 0, 63, 0
2, 24248, Note_on_c, 0, 65, 0
2, 24382, Note_on_c, 0, 46, 76
2, 24394, Note_on_c, 0, 68, 78
2, 24446, Note_on_c, 0, 68, 0
2, 24474, Note_on_c, 0, 48, 78
2, 24510, Note_on_c, 0, 46, 0
2, 24570, Note_on_c, 0, 48, 0
2, 24573, Note_on_c, 0, 50, 86
2, 24575, Note_on_c, 0, 58, 80
2, 24610, Note_on_c, 0, 58, 0
2, 24668, Note_on_c, 0, 50, 0
2, 24674, Note_on_c, 0, 48, 84
2, 24752, Note_on_c, 0, 48, 0
2, 24760, Note_on_c, 0, 50, 87
2, 24767, Note_on_c, 0, 65, 74
2, 24797, Note_on_c, 0, 65, 0
2, 24831, Note_on_c, 0, 50, 0
2, 24847, Note_on_c, 0, 46, 80
2, 24951, Note_on_c, 0, 46, 0
2, 24955, Note_on_c, 0, 51, 89
2, 24962, Note_on_c, 0, 67, 85
2, 25132, Note_on_c, 0, 51, 0
2, 25156, Note_on_c, 0, 70, 78
2, 25158, Note_on_c, 0, 39, 83
2, 25177, Note_on_c, 0, 67, 0
2, 25212, Note_on_c, 0, 39, 0
2, 25246, Note_on_c, 0, 70, 0
2, 25247, Note_on_c, 0, 68, 79
2, 25341, Note_on_c, 0, 70, 87
2, 25345, Note_on_c, 0, 68, 0
2, 25382, Note_on_c, 0, 70, 0
2, 25530, Note_on_c, 0, 61, 81
2, 25542, Note_on_c, 0, 75, 82
2, 25596, Note_on_c, 0, 61, 0
2, 25602, Note_on_c, 0, 75, 0
2, 25620, Note_on_c, 0, 60, 78
2, 25720, Note_on_c, 0, 67, 77
2, 25722, Note_on_c, 0, 58, 79
2, 25723, Note_on_c, 0, 60, 0
2, 25757, Note_on_c, 0, 67, 0
2, 25780, Note_on_c, 0, 58, 0
2, 25809, Note_on_c, 0, 60, 71
2, 25872, Note_on_c, 0, 60, 0
2, 25899, Note_on_c, 0, 56, 78
2, 25908, Note_on_c, 0, 70, 74
2, 25941, Note_on_c, 0, 70, 0
2, 25959, Note_on_c, 0, 56, 0
2, 25989, Note_on_c, 0, 58, 72
2, 26084, Note_on_c, 0, 55, 71
2, 26084, Note_on_c, 0, 58, 0
2, 26092, Note_on_c, 0, 63, 83
2, 26151, Note_on_c, 0, 55, 0
2, 26175, Note_on_c, 0, 56, 70
2, 26275, Note_on_c, 0, 67, 74
2, 26280, Note_on_c, 0, 56, 0
2, 26283, Note_on_c, 0, 53, 75
2, 26291, Note_on_c, 0, 63, 0
2, 26341, Note_on_c, 0, 53, 0
2, 26369, Note_on_c, 0, 55, 79
2, 26371, Note_on_c, 0, 65, 80
2, 26383, Note_on_c, 0, 67, 0
2, 26435, Note_on_c, 0, 55, 0
2, 26446, Note_on_c, 0, 65, 0
2, 26455, Note_on_c, 0, 51, 80
2, 26466, Note_on_c, 0, 67, 81
2, 26505, Note_on_c, 0, 67, 0
2, 26518, Note_on_c, 0, 51, 0
2, 26550, Note_on_c, 0, 53, 70
2, 26626, Note_on_c, 0, 53, 0
2, 26648, Note_on_c, 0, 49, 73
2, 26651, Note_on_c, 0, 70, 79
2, 26683, Note_on_c, 0, 68, 42
2, 26700, Note_on_c, 0, 68, 0
2, 26701, Note_on_c, 0, 70, 0
2, 26715, Note_on_c, 0, 49, 0
2, 26738, Note_on_c, 0, 51, 70
2, 26815, Note_on_c, 0, 51, 0
2, 26833, Note_on_c, 0, 48, 69
2, 26836, Note_on_c, 0, 63, 77
2, 26869, Note_on_c, 0, 63, 0
2, 26884, Note_on_c, 0, 48, 0
2, 26923, Note_on_c, 0, 49, 61
2, 27000, Note_on_c, 0, 49, 0
2, 27021, Note_on_c, 0, 46, 68
2, 27032, Note_on_c, 0, 67, 73
2, 27081, Note_on_c, 0, 67, 0
2, 27085, Note_on_c, 0, 46, 0
2, 27093, Note_on_c, 0, 48, 72
2, 27169, Note_on_c, 0, 48, 0
2, 27220, Note_on_c, 0, 44, 77
2, 27227, Note_on_c, 0, 60, 76
2, 27255, Note_on_c, 0, 44, 0
2, 27430, Note_on_c, 0, 60, 0
2, 27454, Note_on_c, 0, 63, 82
2, 27539, Note_on_c, 0, 61, 87
2, 27539, Note_on_c, 0, 63, 0
2, 27616, Note_on_c, 0, 61, 0
2, 27627, Note_on_c, 0, 63, 90
2, 27666, Note_on_c, 0, 63, 0
2, 27820, Note_on_c, 0, 78, 77
2, 27823, Note_on_c, 0, 68, 79
2, 27854, Note_on_c, 0, 68, 0
2, 27860, Note_on_c, 0, 56, 36
2, 27888, Note_on_c, 0, 56, 0
2, 27896, Note_on_c, 0, 78, 0
2, 27906, Note_on_c, 0, 77, 77
2, 28005, Note_on_c, 0, 75, 78
2, 28005, Note_on_c, 0, 77, 0
2, 28015, Note_on_c, 0, 60, 75
2, 28050, Note_on_c, 0, 60, 0
2, 28100, Note_on_c, 0, 75, 0
2, 28110, Note_on_c, 0, 77, 74
2, 28189, Note_on_c, 0, 77, 0
2, 28194, Note_on_c, 0, 73, 78
2, 28205, Note_on_c, 0, 63, 77
2, 28233, Note_on_c, 0, 63, 0
2, 28276, Note_on_c, 0, 73, 0
2, 28294, Note_on_c, 0, 75, 76
2, 28363, Note_on_c, 0, 75, 0
2, 28380, Note_on_c, 0, 56, 86
2, 28390, Note_on_c, 0, 72, 73
2, 28484, Note_on_c, 0, 72, 0
2, 28485, Note_on_c, 0, 73, 76
2, 28586, Note_on_c, 0, 60, 83
2, 28588, Note_on_c, 0, 73, 0
2, 28590, Note_on_c, 0, 70, 75
2, 28612, Note_on_c, 0, 56, 0
2, 28664, Note_on_c, 0, 70, 0
2, 28679, Note_on_c, 0, 58, 84
2, 28679, Note_on_c, 0, 60, 0
2, 28683, Note_on_c, 0, 72, 69
2, 28738, Note_on_c, 0, 72, 0
2, 28764, Note_on_c, 0, 58, 0
2, 28774, Note_on_c, 0, 68, 80
2, 28776, Note_on_c, 0, 60, 86
2, 28812, Note_on_c, 0, 60, 0
2, 28836, Note_on_c, 0, 68, 0
2, 28874, Note_on_c, 0, 70, 66
2, 28945, Note_on_c, 0, 70, 0
2, 28954, Note_on_c, 0, 63, 84
2, 28958, Note_on_c, 0, 66, 75
2, 28999, Note_on_c, 0, 63, 0
2, 29031, Note_on_c, 0, 66, 0
2, 29053, Note_on_c, 0, 68, 73
2, 29114, Note_on_c, 0, 68, 0
2, 29145, Note_on_c, 0, 56, 77
2, 29149, Note_on_c, 0, 65, 74
2, 29193, Note_on_c, 0, 56, 0
2, 29209, Note_on_c, 0, 65, 0
2, 29240, Note_on_c, 0, 66, 70
2, 29335, Note_on_c, 0, 66, 0
2, 29341, Note_on_c, 0, 63, 68
2, 29344, Note_on_c, 0, 60, 77
2, 29374, Note_on_c, 0, 60, 0
2, 29412, Note_on_c, 0, 63, 0
2, 29426, Note_on_c, 0, 65, 59
2, 29516, Note_on_c, 0, 65, 0
2, 29524, Note_on_c, 0, 53, 86
2, 29536, Note_on_c, 0, 61, 68
2, 29565, Note_on_c, 0, 61, 0
2, 29736, Note_on_c, 0, 73, 82
2, 29814, Note_on_c, 0, 73, 0
2, 29826, Note_on_c, 0, 72, 77
2, 29919, Note_on_c, 0, 73, 88
2, 29927, Note_on_c, 0, 72, 0
2, 29962, Note_on_c, 0, 73, 0
2, 30003, Note_on_c, 0, 56, 70
2, 30005, Note_on_c, 0, 53, 0
2, 30112, Note_on_c, 0, 58, 73
2, 30120, Note_on_c, 0, 56, 0
2, 30120, Note_on_c, 0, 77, 83
2, 30161, Note_on_c, 0, 77, 0
2, 30199, Note_on_c, 0, 58, 0
2, 30210, Note_on_c, 0, 60, 74
2, 30275, Note_on_c, 0, 60, 0
2, 30304, Note_on_c, 0, 61, 75
2, 30309, Note_on_c, 0, 70, 80
2, 30341, Note_on_c, 0, 70, 0
2, 30380, Note_on_c, 0, 61, 0
2, 30398, Note_on_c, 0, 58, 70
2, 30472, Note_on_c, 0, 58, 0
2, 30481, Note_on_c, 0, 73, 77
2, 30484, Note_on_c, 0, 55, 70
2, 30511, Note_on_c, 0, 73, 0
2, 30555, Note_on_c, 0, 55, 0
2, 30575, Note_on_c, 0, 58, 73
2, 30656, Note_on_c, 0, 58, 0
2, 30683, Note_on_c, 0, 51, 75
2, 30685, Note_on_c, 0, 67, 79
2, 30893, Note_on_c, 0, 72, 71
2, 30912, Note_on_c, 0, 67, 0
2, 30964, Note_on_c, 0, 72, 0
2, 30974, Note_on_c, 0, 70, 74
2, 31058, Note_on_c, 0, 70, 0
2, 31070, Note_on_c, 0, 72, 77
2, 31098, Note_on_c, 0, 72, 0
2, 31171, Note_on_c, 0, 55, 58
2, 31238, Note_on_c, 0, 51, 0
2, 31254, Note_on_c, 0, 55, 0
2, 31255, Note_on_c, 0, 75, 78
2, 31259, Note_on_c, 0, 56, 75
2, 31297, Note_on_c, 0, 75, 0
2, 31337, Note_on_c, 0, 56, 0
2, 31358, Note_on_c, 0, 58, 73
2, 31419, Note_on_c, 0, 58, 0
2, 31447, Note_on_c, 0, 60, 68
2, 31465, Note_on_c, 0, 69, 53
2, 31487, Note_on_c, 0, 69, 0
2, 31510, Note_on_c, 0, 60, 0
2, 31531, Note_on_c, 0, 56, 74
2, 31621, Note_on_c, 0, 56, 0
2, 31624, Note_on_c, 0, 53, 74
2, 31642, Note_on_c, 0, 72, 73
2, 31673, Note_on_c, 0, 72, 0
2, 31689, Note_on_c, 0, 53, 0
2, 31712, Note_on_c, 0, 56, 76
2, 31785, Note_on_c, 0, 56, 0
2, 31813, Note_on_c, 0, 49, 71
2, 31826, Note_on_c, 0, 65, 75
2, 31903, Note_on_c, 0, 49, 0
2, 31912, Note_on_c, 0, 51, 71
2, 32006, Note_on_c, 0, 51, 0
2, 32008, Note_on_c, 0, 70, 76
2, 32018, Note_on_c, 0, 48, 73
2, 32026, Note_on_c, 0, 65, 0
2, 32072, Note_on_c, 0, 70, 0
2, 32094, Note_on_c, 0, 68, 79
2, 32096, Note_on_c, 0, 48, 0
2, 32109, Note_on_c, 0, 51, 73
2, 32182, Note_on_c, 0, 68, 0
2, 32188, Note_on_c, 0, 70, 82
2, 32192, Note_on_c, 0, 49, 77
2, 32210, Note_on_c, 0, 51, 0
2, 32231, Note_on_c, 0, 70, 0
2, 32265, Note_on_c, 0, 49, 0
2, 32280, Note_on_c, 0, 53, 70
2, 32343, Note_on_c, 0, 53, 0
2, 32383, Note_on_c, 0, 55, 72
2, 32386, Note_on_c, 0, 73, 84
2, 32434, Note_on_c, 0, 73, 0
2, 32443, Note_on_c, 0, 55, 0
2, 32474, Note_on_c, 0, 56, 75
2, 32546, Note_on_c, 0, 56, 0
2, 32571, Note_on_c, 0, 67, 78
2, 32573, Note_on_c, 0, 58, 78
2, 32605, Note_on_c, 0, 67, 0
2, 32649, Note_on_c, 0, 58, 0
2, 32663, Note_on_c, 0, 55, 61
2, 32742, Note_on_c, 0, 70, 86
2, 32743, Note_on_c, 0, 55, 0
2, 32745, Note_on_c, 0, 51, 73
2, 32790, Note_on_c, 0, 70, 0
2, 32820, Note_on_c, 0, 51, 0
2, 32832, Note_on_c, 0, 55, 68
2, 32913, Note_on_c, 0, 55, 0
2, 32923, Note_on_c, 0, 63, 88
2, 32926, Note_on_c, 0, 48, 75
2, 32997, Note_on_c, 0, 48, 0
2, 33016, Note_on_c, 0, 49, 71
2, 33053, Note_on_c, 0, 63, 0
2, 33095, Note_on_c, 0, 49, 0
2, 33095, Note_on_c, 0, 68, 77
2, 33126, Note_on_c, 0, 46, 69
2, 33162, Note_on_c, 0, 45, 52
2, 33185, Note_on_c, 0, 67, 85
2, 33185, Note_on_c, 0, 68, 0
2, 33190, Note_on_c, 0, 46, 0
2, 33191, Note_on_c, 0, 45, 0
2, 33193, Note_on_c, 0, 49, 64
2, 33243, Note_on_c, 0, 49, 0
2, 33256, Note_on_c, 0, 67, 0
2, 33277, Note_on_c, 0, 68, 90
2, 33311, Note_on_c, 0, 48, 71
2, 33317, Note_on_c, 0, 50, 67
2, 33325, Note_on_c, 0, 68, 0
2, 33371, Note_on_c, 0, 50, 0
2, 33375, Note_on_c, 0, 48, 0
2, 33398, Note_on_c, 0, 52, 62
2, 33458, Note_on_c, 0, 52, 0
2, 33465, Note_on_c, 0, 53, 78
2, 33487, Note_on_c, 0, 72, 80
2, 33518, Note_on_c, 0, 53, 0
2, 33550, Note_on_c, 0, 72, 0
2, 33571, Note_on_c, 0, 56, 41
2, 33600, Note_on_c, 0, 56, 0
2, 33650, Note_on_c, 0, 56, 73
2, 33653, Note_on_c, 0, 65, 83
2, 33679, Note_on_c, 0, 53, 70
2, 33690, Note_on_c, 0, 65, 0
2, 33710, Note_on_c, 0, 56, 0
2, 33798, Note_on_c, 0, 49, 76
2, 33801, Note_on_c, 0, 53, 0
2, 33830, Note_on_c, 0, 68, 58
2, 33852, Note_on_c, 0, 68, 0
2, 33890, Note_on_c, 0, 49, 0
2, 33923, Note_on_c, 0, 53, 31
2, 33961, Note_on_c, 0, 53, 0
2, 33984, Note_on_c, 0, 46, 82
2, 33984, Note_on_c, 0, 61, 83
2, 34062, Note_on_c, 0, 46, 0
2, 34085, Note_on_c, 0, 56, 67
2, 34153, Note_on_c, 0, 56, 0
2, 34169, Note_on_c, 0, 55, 68
2, 34183, Note_on_c, 0, 70, 76
2, 34186, Note_on_c, 0, 61, 0
2, 34230, Note_on_c, 0, 55, 0
2, 34252, Note_on_c, 0, 70, 0
2, 34265, Note_on_c, 0, 56, 72
2, 34272, Note_on_c, 0, 68, 73
2, 34333, Note_on_c, 0, 56, 0
2, 34337, Note_on_c, 0, 68, 0
2, 34358, Note_on_c, 0, 49, 66
2, 34373, Note_on_c, 0, 70, 78
2, 34395, Note_on_c, 0, 70, 0
2, 34421, Note_on_c, 0, 49, 0
2, 34464, Note_on_c, 0, 56, 49
2, 34550, Note_on_c, 0, 56, 0
2, 34566, Note_on_c, 0, 55, 63
2, 34566, Note_on_c, 0, 73, 80
2, 34592, Note_on_c, 0, 73, 0
2, 34608, Note_on_c, 0, 55, 0
2, 34697, Note_on_c, 0, 56, 41
2, 34750, Note_on_c, 0, 56, 0
2, 34769, Note_on_c, 0, 67, 72
2, 34776, Note_on_c, 0, 46, 57
2, 34805, Note_on_c, 0, 67, 0
2, 34837, Note_on_c, 0, 46, 0
2, 34878, Note_on_c, 0, 56, 56
2, 34936, Note_on_c, 0, 56, 0
2, 34963, Note_on_c, 0, 70, 76
2, 34969, Note_on_c, 0, 55, 64
2, 34996, Note_on_c, 0, 70, 0
2, 35016, Note_on_c, 0, 55, 0
2, 35061, Note_on_c, 0, 56, 64
2, 35126, Note_on_c, 0, 56, 0
2, 35157, Note_on_c, 0, 63, 83
2, 35168, Note_on_c, 0, 48, 71
2, 35234, Note_on_c, 0, 48, 0
2, 35254, Note_on_c, 0, 56, 54
2, 35344, Note_on_c, 0, 56, 0
2, 35346, Note_on_c, 0, 72, 78
2, 35356, Note_on_c, 0, 63, 0
2, 35359, Note_on_c, 0, 55, 64
2, 35428, Note_on_c, 0, 55, 0
2, 35443, Note_on_c, 0, 70, 80
2, 35454, Note_on_c, 0, 56, 67
2, 35455, Note_on_c, 0, 72, 0
2, 35521, Note_on_c, 0, 56, 0
2, 35546, Note_on_c, 0, 70, 0
2, 35548, Note_on_c, 0, 72, 89
2, 35549, Note_on_c, 0, 51, 75
2, 35578, Note_on_c, 0, 72, 0
2, 35607, Note_on_c, 0, 51, 0
2, 35643, Note_on_c, 0, 56, 63
2, 35742, Note_on_c, 0, 75, 88
2, 35778, Note_on_c, 0, 55, 44
2, 35790, Note_on_c, 0, 75, 0
2, 35796, Note_on_c, 0, 56, 0
2, 35803, Note_on_c, 0, 55, 0
2, 35837, Note_on_c, 0, 56, 58
2, 35905, Note_on_c, 0, 56, 0
2, 35939, Note_on_c, 0, 48, 71
2, 35939, Note_on_c, 0, 68, 87
2, 35977, Note_on_c, 0, 68, 0
2, 36007, Note_on_c, 0, 48, 0
2, 36024, Note_on_c, 0, 56, 65
2, 36110, Note_on_c, 0, 56, 0
2, 36119, Note_on_c, 0, 55, 73
2, 36119, Note_on_c, 0, 72, 90
2, 36161, Note_on_c, 0, 72, 0
2, 36190, Note_on_c, 0, 55, 0
2, 36223, Note_on_c, 0, 56, 74
2, 36292, Note_on_c, 0, 56, 0
2, 36323, Note_on_c, 0, 49, 75
2, 36327, Note_on_c, 0, 65, 84
2, 36416, Note_on_c, 0, 56, 70
2, 36515, Note_on_c, 0, 56, 0
2, 36516, Note_on_c, 0, 54, 78
2, 36528, Note_on_c, 0, 73, 86
2, 36538, Note_on_c, 0, 65, 0
2, 36612, Note_on_c, 0, 73, 0
2, 36614, Note_on_c, 0, 56, 75
2, 36622, Note_on_c, 0, 72, 75
2, 36655, Note_on_c, 0, 54, 0
2, 36706, Note_on_c, 0, 53, 83
2, 36709, Note_on_c, 0, 49, 0
2, 36709, Note_on_c, 0, 73, 99
2, 36711, Note_on_c, 0, 56, 0
2, 36718, Note_on_c, 0, 72, 0
2, 36751, Note_on_c, 0, 73, 0
2, 36813, Note_on_c, 0, 56, 73
2, 36896, Note_on_c, 0, 77, 92
2, 36899, Note_on_c, 0, 51, 81
2, 36906, Note_on_c, 0, 56, 0
2, 36926, Note_on_c, 0, 53, 0
2, 36956, Note_on_c, 0, 77, 0
2, 36999, Note_on_c, 0, 56, 72
2, 37082, Note_on_c, 0, 56, 0
2, 37097, Note_on_c, 0, 49, 82
2, 37097, Note_on_c, 0, 70, 86
2, 37143, Note_on_c, 0, 70, 0
2, 37158, Note_on_c, 0, 51, 0
2, 37182, Note_on_c, 0, 56, 76
2, 37193, Note_on_c, 0, 49, 0
2, 37289, Note_on_c, 0, 56, 0
2, 37291, Note_on_c, 0, 48, 80
2, 37297, Note_on_c, 0, 73, 92
2, 37354, Note_on_c, 0, 73, 0
2, 37370, Note_on_c, 0, 48, 0
2, 37386, Note_on_c, 0, 56, 71
2, 37466, Note_on_c, 0, 56, 0
2, 37482, Note_on_c, 0, 46, 79
2, 37493, Note_on_c, 0, 67, 90
2, 37541, Note_on_c, 0, 67, 0
2, 37569, Note_on_c, 0, 46, 0
2, 37571, Note_on_c, 0, 49, 78
2, 37669, Note_on_c, 0, 48, 75
2, 37682, Note_on_c, 0, 70, 88
2, 37697, Note_on_c, 0, 49, 0
2, 37746, Note_on_c, 0, 70, 0
2, 37771, Note_on_c, 0, 51, 79
2, 37773, Note_on_c, 0, 48, 0
2, 37872, Note_on_c, 0, 49, 79
2, 37874, Note_on_c, 0, 51, 0
2, 37874, Note_on_c, 0, 63, 88
2, 37920, Note_on_c, 0, 63, 0
2, 37950, Note_on_c, 0, 49, 0
2, 37954, Note_on_c, 0, 53, 77
2, 38047, Note_on_c, 0, 53, 0
2, 38052, Note_on_c, 0, 51, 81
2, 38073, Note_on_c, 0, 67, 81
2, 38107, Note_on_c, 0, 67, 0
2, 38148, Note_on_c, 0, 49, 80
2, 38156, Note_on_c, 0, 51, 0
2, 38243, Note_on_c, 0, 48, 68
2, 38254, Note_on_c, 0, 68, 88
2, 38260, Note_on_c, 0, 49, 0
2, 38340, Note_on_c, 0, 48, 0
2, 38347, Note_on_c, 0, 51, 77
2, 38451, Note_on_c, 0, 51, 0
2, 38455, Note_on_c, 0, 49, 80
2, 38541, Note_on_c, 0, 49, 0
2, 38560, Note_on_c, 0, 53, 81
2, 38648, Note_on_c, 0, 51, 86
2, 38649, Note_on_c, 0, 53, 0
2, 38724, Note_on_c, 0, 68, 0
2, 38736, Note_on_c, 0, 67, 87
2, 38811, Note_on_c, 0, 51, 0
2, 38828, Note_on_c, 0, 53, 79
2, 38846, Note_on_c, 0, 68, 74
2, 38900, Note_on_c, 0, 53, 0
2, 38923, Note_on_c, 0, 49, 74
2, 38934, Note_on_c, 0, 70, 77
2, 38939, Note_on_c, 0, 68, 0
2, 39013, Note_on_c, 0, 72, 82
2, 39015, Note_on_c, 0, 70, 0
2, 39020, Note_on_c, 0, 51, 90
2, 39039, Note_on_c, 0, 49, 0
2, 39086, Note_on_c, 0, 70, 79
2, 39093, Note_on_c, 0, 72, 0
2, 39159, Note_on_c, 0, 70, 0
2, 39160, Note_on_c, 0, 72, 75
2, 39215, Note_on_c, 0, 70, 79
2, 39223, Note_on_c, 0, 72, 0
2, 39233, Note_on_c, 0, 49, 83
2, 39254, Note_on_c, 0, 51, 0
2, 39286, Note_on_c, 0, 72, 81
2, 39288, Note_on_c, 0, 70, 0
2, 39349, Note_on_c, 0, 70, 88
2, 39379, Note_on_c, 0, 72, 0
2, 39453, Note_on_c, 0, 51, 92
2, 39467, Note_on_c, 0, 49, 0
2, 39678, Note_on_c, 0, 39, 76
2, 39683, Note_on_c, 0, 68, 86
2, 39685, Note_on_c, 0, 51, 0
2, 39709, Note_on_c, 0, 67, 0
2, 39718, Note_on_c, 0, 70, 0
2, 39857, Note_on_c, 0, 68, 0
2, 39958, Note_on_c, 0, 68, 92
2, 39963, Note_on_c, 0, 44, 84
2, 39987, Note_on_c, 0, 39, 0
2, 40216, Note_on_c, 0, 75, 83
2, 40223, Note_on_c, 0, 68, 0
2, 40292, Note_on_c, 0, 73, 84
2, 40298, Note_on_c, 0, 75, 0
2, 40387, Note_on_c, 0, 75, 94
2, 40390, Note_on_c, 0, 56, 89
2, 40396, Note_on_c, 0, 73, 0
2, 40425, Note_on_c, 0, 75, 0
2, 40597, Note_on_c, 0, 44, 0
2, 40600, Note_on_c, 0, 72, 84
2, 40642, Note_on_c, 0, 72, 0
2, 40811, Note_on_c, 0, 67, 87
2, 40856, Note_on_c, 0, 67, 0
2, 40859, Note_on_c, 0, 56, 0
2, 41007, Note_on_c, 0, 70, 83
2, 41048, Note_on_c, 0, 70, 0
2, 41207, Note_on_c, 0, 70, 74
2, 41236, Note_on_c, 0, 65, 45
2, 41256, Note_on_c, 0, 70, 0
2, 41270, Note_on_c, 0, 68, 74
2, 41322, Note_on_c, 0, 70, 82
2, 41325, Note_on_c, 0, 68, 0
2, 41366, Note_on_c, 0, 53, 61
2, 41387, Note_on_c, 0, 68, 80
2, 41395, Note_on_c, 0, 70, 0
2, 41447, Note_on_c, 0, 53, 0
2, 41463, Note_on_c, 0, 51, 63
2, 41528, Note_on_c, 0, 51, 0
2, 41566, Note_on_c, 0, 53, 72
2, 41582, Note_on_c, 0, 75, 85
2, 41599, Note_on_c, 0, 53, 0
2, 41705, Note_on_c, 0, 68, 0
2, 41787, Note_on_c, 0, 56, 75
2, 41820, Note_on_c, 0, 56, 0
2, 41976, Note_on_c, 0, 49, 70
2, 42009, Note_on_c, 0, 49, 0
2, 42026, Note_on_c, 0, 65, 0
2, 42052, Note_on_c, 0, 66, 67
2, 42075, Note_on_c, 0, 75, 0
2, 42121, Note_on_c, 0, 66, 0
2, 42140, Note_on_c, 0, 65, 69
2, 42170, Note_on_c, 0, 53, 67
2, 42196, Note_on_c, 0, 53, 0
2, 42219, Note_on_c, 0, 65, 0
2, 42233, Note_on_c, 0, 63, 64
2, 42363, Note_on_c, 0, 63, 0
2, 42368, Note_on_c, 0, 61, 73
2, 42381, Note_on_c, 0, 46, 63
2, 42575, Note_on_c, 0, 61, 0
2, 42596, Note_on_c, 0, 73, 74
2, 42682, Note_on_c, 0, 73, 0
2, 42689, Note_on_c, 0, 72, 74
2, 42779, Note_on_c, 0, 56, 57
2, 42779, Note_on_c, 0, 73, 87
2, 42784, Note_on_c, 0, 72, 0
2, 42821, Note_on_c, 0, 73, 0
2, 42986, Note_on_c, 0, 70, 77
2, 43029, Note_on_c, 0, 70, 0
2, 43031, Note_on_c, 0, 46, 0
2, 43102, Note_on_c, 0, 56, 0
2, 43190, Note_on_c, 0, 65, 71
2, 43227, Note_on_c, 0, 65, 0
2, 43383, Note_on_c, 0, 68, 71
2, 43414, Note_on_c, 0, 68, 0
2, 43570, Note_on_c, 0, 68, 71
2, 43595, Note_on_c, 0, 63, 32
2, 43621, Note_on_c, 0, 68, 0
2, 43635, Note_on_c, 0, 67, 75
2, 43697, Note_on_c, 0, 63, 0
2, 43697, Note_on_c, 0, 68, 80
2, 43700, Note_on_c, 0, 67, 0
2, 43720, Note_on_c, 0, 51, 59
2, 43760, Note_on_c, 0, 68, 0
2, 43763, Note_on_c, 0, 67, 73
2, 43789, Note_on_c, 0, 51, 0
2, 43823, Note_on_c, 0, 49, 59
2, 43893, Note_on_c, 0, 49, 0
2, 43927, Note_on_c, 0, 51, 66
2, 43937, Note_on_c, 0, 73, 85
2, 43960, Note_on_c, 0, 51, 0
2, 43995, Note_on_c, 0, 67, 0
2, 44138, Note_on_c, 0, 55, 67
2, 44168, Note_on_c, 0, 44, 32
2, 44171, Note_on_c, 0, 55, 0
2, 44206, Note_on_c, 0, 44, 0
2, 44331, Note_on_c, 0, 48, 64
2, 44348, Note_on_c, 0, 73, 0
2, 44365, Note_on_c, 0, 48, 0
2, 44398, Note_on_c, 0, 65, 61
2, 44483, Note_on_c, 0, 65, 0
2, 44506, Note_on_c, 0, 63, 69
2, 44516, Note_on_c, 0, 51, 68
2, 44548, Note_on_c, 0, 51, 0
2, 44573, Note_on_c, 0, 63, 0
2, 44596, Note_on_c, 0, 61, 69
2, 44656, Note_on_c, 0, 61, 0
2, 44709, Note_on_c, 0, 44, 65
2, 44711, Note_on_c, 0, 60, 70
2, 44749, Note_on_c, 0, 44, 0
2, 44761, Note_on_c, 0, 60, 0
2, 44822, Note_on_c, 0, 56, 49
2, 44823, Note_on_c, 0, 72, 68
2, 44878, Note_on_c, 0, 56, 0
2, 44889, Note_on_c, 0, 72, 0
2, 44902, Note_on_c, 0, 55, 62
2, 44926, Note_on_c, 0, 70, 80
2, 44951, Note_on_c, 0, 55, 0
2, 45013, Note_on_c, 0, 56, 57
2, 45013, Note_on_c, 0, 72, 71
2, 45016, Note_on_c, 0, 70, 0
2, 45063, Note_on_c, 0, 56, 0
2, 45078, Note_on_c, 0, 72, 0
2, 45113, Note_on_c, 0, 53, 64
2, 45113, Note_on_c, 0, 68, 80
2, 45154, Note_on_c, 0, 53, 0
2, 45188, Note_on_c, 0, 68, 0
2, 45214, Note_on_c, 0, 72, 60
2, 45221, Note_on_c, 0, 56, 48
2, 45267, Note_on_c, 0, 56, 0
2, 45275, Note_on_c, 0, 72, 0
2, 45305, Note_on_c, 0, 51, 68
2, 45306, Note_on_c, 0, 67, 78
2, 45351, Note_on_c, 0, 51, 0
2, 45360, Note_on_c, 0, 67, 0
2, 45403, Note_on_c, 0, 56, 61
2, 45407, Note_on_c, 0, 72, 69
2, 45460, Note_on_c, 0, 56, 0
2, 45475, Note_on_c, 0, 72, 0
2, 45500, Note_on_c, 0, 65, 79
2, 45509, Note_on_c, 0, 49, 65
2, 45559, Note_on_c, 0, 49, 0
2, 45566, Note_on_c, 0, 65, 0
2, 45589, Note_on_c, 0, 56, 61
2, 45593, Note_on_c, 0, 72, 68
2, 45651, Note_on_c, 0, 56, 0
2, 45685, Note_on_c, 0, 72, 0
2, 45694, Note_on_c, 0, 63, 79
2, 45699, Note_on_c, 0, 48, 65
2, 45754, Note_on_c, 0, 48, 0
2, 45768, Note_on_c, 0, 63, 0
2, 45781, Note_on_c, 0, 56, 65
2, 45788, Note_on_c, 0, 72, 75
2, 45842, Note_on_c, 0, 56, 0
2, 45851, Note_on_c, 0, 72, 0
2, 45883, Note_on_c, 0, 61, 85
2, 45887, Note_on_c, 0, 46, 75
2, 45953, Note_on_c, 0, 46, 0
2, 45963, Note_on_c, 0, 61, 0
2, 45979, Note_on_c, 0, 73, 83
2, 45983, Note_on_c, 0, 58, 73
2, 46077, Note_on_c, 0, 72, 86
2, 46082, Note_on_c, 0, 56, 77
2, 46086, Note_on_c, 0, 58, 0
2, 46086, Note_on_c, 0, 73, 0
2, 46179, Note_on_c, 0, 73, 91
2, 46181, Note_on_c, 0, 56, 0
2, 46187, Note_on_c, 0, 58, 72
2, 46190, Note_on_c, 0, 72, 0
2, 46261, Note_on_c, 0, 58, 0
2, 46275, Note_on_c, 0, 55, 76
2, 46283, Note_on_c, 0, 70, 87
2, 46297, Note_on_c, 0, 73, 0
2, 46339, Note_on_c, 0, 55, 0
2, 46373, Note_on_c, 0, 58, 72
2, 46385, Note_on_c, 0, 73, 87
2, 46391, Note_on_c, 0, 70, 0
2, 46460, Note_on_c, 0, 58, 0
2, 46475, Note_on_c, 0, 53, 74
2, 46480, Note_on_c, 0, 68, 88
2, 46485, Note_on_c, 0, 73, 0
2, 46543, Note_on_c, 0, 53, 0
2, 46568, Note_on_c, 0, 58, 73
2, 46572, Note_on_c, 0, 68, 0
2, 46578, Note_on_c, 0, 73, 81
2, 46635, Note_on_c, 0, 58, 0
2, 46654, Note_on_c, 0, 73, 0
2, 46670, Note_on_c, 0, 51, 77
2, 46671, Note_on_c, 0, 67, 88
2, 46740, Note_on_c, 0, 51, 0
2, 46750, Note_on_c, 0, 67, 0
2, 46755, Note_on_c, 0, 73, 80
2, 46768, Note_on_c, 0, 58, 66
2, 46833, Note_on_c, 0, 58, 0
2, 46863, Note_on_c, 0, 65, 84
2, 46872, Note_on_c, 0, 49, 67
2, 46872, Note_on_c, 0, 73, 0
2, 46954, Note_on_c, 0, 49, 0
2, 46960, Note_on_c, 0, 58, 70
2, 46961, Note_on_c, 0, 73, 76
2, 46962, Note_on_c, 0, 65, 0
2, 47013, Note_on_c, 0, 58, 0
2, 47066, Note_on_c, 0, 63, 92
2, 47076, Note_on_c, 0, 48, 82
2, 47118, Note_on_c, 0, 73, 0
2, 47260, Note_on_c, 0, 68, 76
2, 47267, Note_on_c, 0, 63, 0
2, 47285, Note_on_c, 0, 60, 86
2, 47300, Note_on_c, 0, 48, 0
2, 47307, Note_on_c, 0, 70, 74
2, 47316, Note_on_c, 0, 68, 0
2, 47374, Note_on_c, 0, 68, 79
2, 47384, Note_on_c, 0, 70, 0
2, 47415, Note_on_c, 0, 67, 76
2, 47423, Note_on_c, 0, 68, 0
2, 47474, Note_on_c, 0, 68, 89
2, 47481, Note_on_c, 0, 60, 0
2, 47493, Note_on_c, 0, 67, 0
2, 47516, Note_on_c, 0, 68, 0
2, 47666, Note_on_c, 0, 53, 79
2, 47667, Note_on_c, 0, 72, 85
2, 47721, Note_on_c, 0, 72, 0
2, 47763, Note_on_c, 0, 55, 83
2, 47768, Note_on_c, 0, 53, 0
2, 47858, Note_on_c, 0, 55, 0
2, 47858, Note_on_c, 0, 56, 83
2, 47871, Note_on_c, 0, 65, 79
2, 47901, Note_on_c, 0, 65, 0
2, 47945, Note_on_c, 0, 56, 0
2, 47948, Note_on_c, 0, 55, 86
2, 48042, Note_on_c, 0, 56, 83
2, 48055, Note_on_c, 0, 55, 0
2, 48061, Note_on_c, 0, 68, 81
2, 48112, Note_on_c, 0, 68, 0
2, 48131, Note_on_c, 0, 56, 0
2, 48133, Note_on_c, 0, 53, 79
2, 48238, Note_on_c, 0, 53, 0
2, 48252, Note_on_c, 0, 58, 91
2, 48254, Note_on_c, 0, 73, 93
2, 48440, Note_on_c, 0, 73, 0
2, 48452, Note_on_c, 0, 58, 0
2, 48453, Note_on_c, 0, 67, 81
2, 48471, Note_on_c, 0, 46, 83
2, 48505, Note_on_c, 0, 68, 67
2, 48507, Note_on_c, 0, 67, 0
2, 48571, Note_on_c, 0, 67, 82
2, 48612, Note_on_c, 0, 65, 81
2, 48615, Note_on_c, 0, 68, 0
2, 48618, Note_on_c, 0, 67, 0
2, 48672, Note_on_c, 0, 67, 95
2, 48674, Note_on_c, 0, 46, 0
2, 48693, Note_on_c, 0, 65, 0
2, 48717, Note_on_c, 0, 67, 0
2, 48871, Note_on_c, 0, 70, 89
2, 48874, Note_on_c, 0, 51, 83
2, 48920, Note_on_c, 0, 70, 0
2, 48971, Note_on_c, 0, 53, 82
2, 49005, Note_on_c, 0, 51, 0
2, 49069, Note_on_c, 0, 55, 87
2, 49070, Note_on_c, 0, 63, 82
2, 49072, Note_on_c, 0, 53, 0
2, 49117, Note_on_c, 0, 63, 0
2, 49160, Note_on_c, 0, 55, 0
2, 49161, Note_on_c, 0, 53, 86
2, 49258, Note_on_c, 0, 53, 0
2, 49265, Note_on_c, 0, 55, 90
2, 49269, Note_on_c, 0, 67, 85
2, 49322, Note_on_c, 0, 67, 0
2, 49360, Note_on_c, 0, 55, 0
2, 49379, Note_on_c, 0, 51, 82
2, 49476, Note_on_c, 0, 72, 89
2, 49493, Note_on_c, 0, 56, 86
2, 49501, Note_on_c, 0, 51, 0
2, 49727, Note_on_c, 0, 68, 84
2, 49728, Note_on_c, 0, 65, 58
2, 49738, Note_on_c, 0, 49, 77
2, 49739, Note_on_c, 0, 61, 58
2, 49745, Note_on_c, 0, 72, 0
2, 49757, Note_on_c, 0, 56, 0
2, 49888, Note_on_c, 0, 65, 0
2, 49892, Note_on_c, 0, 61, 0
2, 49937, Note_on_c, 0, 68, 0
2, 50035, Note_on_c, 0, 51, 73
2, 50039, Note_on_c, 0, 68, 84
2, 50047, Note_on_c, 0, 63, 66
2, 50049, Note_on_c, 0, 58, 64
2, 50079, Note_on_c, 0, 49, 0
2, 50383, Note_on_c, 0, 49, 69
2, 50421, Note_on_c, 0, 51, 0
2, 50755, Note_on_c, 0, 67, 76
2, 50760, Note_on_c, 0, 51, 64
2, 50832, Note_on_c, 0, 49, 0
2, 50893, Note_on_c, 0, 68, 0
2, 51135, Note_on_c, 0, 39, 56
2, 51182, Note_on_c, 0, 51, 0
2, 51184, Note_on_c, 0, 58, 0
2, 51200, Note_on_c, 0, 63, 0
2, 51632, Note_on_c, 0, 68, 70
2, 51635, Note_on_c, 0, 44, 49
2, 51639, Note_on_c, 0, 63, 57
2, 51643, Note_on_c, 0, 60, 54
2, 51680, Note_on_c, 0, 67, 0
2, 51695, Note_on_c, 0, 39, 0
2, 53628, Note_on_c, 0, 44, 0
2, 53641, Note_on_c, 0, 60, 0
2, 53645, Note_on_c, 0, 68, 0
2, 53732, Note_on_c, 0, 63, 0
2, 54685, Note_on_c, 0, 56, 62
2, 55117, Note_on_c, 0, 63, 69
2, 55259, Note_on_c, 0, 56, 0
2, 55563, Note_on_c, 0, 60, 73
2, 55700, Note_on_c, 0, 63, 0
2, 55953, Note_on_c, 0, 56, 72
2, 56013, Note_on_c, 0, 60, 0
2, 56376, Note_on_c, 0, 65, 70
2, 56513, Note_on_c, 0, 56, 0
2, 56782, Note_on_c, 0, 61, 65
2, 56826, Note_on_c, 0, 65, 0
2, 57216, Note_on_c, 0, 63, 62
2, 57274, Note_on_c, 0, 61, 0
2, 57974, Note_on_c, 0, 51, 56
2, 58158, Note_on_c, 0, 61, 58
2, 58238, Note_on_c, 0, 63, 0
2, 58354, Note_on_c, 0, 56, 73
2, 58354, Note_on_c, 0, 61, 0
2, 58357, Note_on_c, 0, 60, 55
2, 58417, Note_on_c, 0, 51, 0
2, 58557, Note_on_c, 0, 61, 59
2, 58558, Note_on_c, 0, 60, 0
2, 58758, Note_on_c, 0, 55, 75
2, 58765, Note_on_c, 0, 63, 64
2, 58784, Note_on_c, 0, 61, 0
2, 58839, Note_on_c, 0, 56, 0
2, 58941, Note_on_c, 0, 65, 62
2, 58971, Note_on_c, 0, 63, 0
2, 59122, Note_on_c, 0, 51, 75
2, 59126, Note_on_c, 0, 67, 68
2, 59133, Note_on_c, 0, 65, 0
2, 59199, Note_on_c, 0, 55, 0
2, 59313, Note_on_c, 0, 63, 66
2, 59317, Note_on_c, 0, 67, 0
2, 59505, Note_on_c, 0, 60, 76
2, 59520, Note_on_c, 0, 68, 66
2, 59540, Note_on_c, 0, 63, 0
2, 59607, Note_on_c, 0, 51, 0
2, 59686, Note_on_c, 0, 70, 66
2, 59714, Note_on_c, 0, 68, 0
2, 59870, Note_on_c, 0, 70, 0
2, 59872, Note_on_c, 0, 56, 69
2, 59876, Note_on_c, 0, 72, 61
2, 59964, Note_on_c, 0, 60, 0
2, 60068, Note_on_c, 0, 72, 0
2, 60073, Note_on_c, 0, 70, 64
2, 60252, Note_on_c, 0, 58, 61
2, 60256, Note_on_c, 0, 68, 60
2, 60275, Note_on_c, 0, 70, 0
2, 60306, Note_on_c, 0, 56, 0
2, 60424, Note_on_c, 0, 68, 0
2, 60444, Note_on_c, 0, 67, 57
2, 60625, Note_on_c, 0, 67, 0
2, 60630, Note_on_c, 0, 65, 53
2, 60637, Note_on_c, 0, 51, 56
2, 60677, Note_on_c, 0, 58, 0
2, 60815, Note_on_c, 0, 68, 58
2, 60820, Note_on_c, 0, 65, 0
2, 61023, Note_on_c, 0, 58, 58
2, 61027, Note_on_c, 0, 67, 59
2, 61030, Note_on_c, 0, 68, 0
2, 61110, Note_on_c, 0, 51, 0
2, 61402, Note_on_c, 0, 55, 64
2, 61468, Note_on_c, 0, 58, 0
2, 61798, Note_on_c, 0, 56, 67
2, 61876, Note_on_c, 0, 55, 0
2, 62177, Note_on_c, 0, 51, 66
2, 62235, Note_on_c, 0, 56, 0
2, 62559, Note_on_c, 0, 65, 71
2, 62571, Note_on_c, 0, 56, 54
2, 62649, Note_on_c, 0, 67, 0
2, 62685, Note_on_c, 0, 51, 0
2, 62921, Note_on_c, 0, 53, 61
2, 62992, Note_on_c, 0, 56, 0
2, 63285, Note_on_c, 0, 55, 66
2, 63344, Note_on_c, 0, 53, 0
2, 63482, Note_on_c, 0, 63, 72
2, 63524, Note_on_c, 0, 65, 0
2, 63668, Note_on_c, 0, 62, 78
2, 63700, Note_on_c, 0, 63, 0
2, 63850, Note_on_c, 0, 65, 74
2, 63902, Note_on_c, 0, 62, 0
2, 64050, Note_on_c, 0, 63, 68
2, 64094, Note_on_c, 0, 65, 0
2, 64222, Note_on_c, 0, 48, 65
2, 64284, Note_on_c, 0, 55, 0
2, 64405, Note_on_c, 0, 49, 71
2, 64427, Note_on_c, 0, 48, 0
2, 64584, Note_on_c, 0, 51, 75
2, 64647, Note_on_c, 0, 49, 0
2, 64782, Note_on_c, 0, 53, 73
2, 64846, Note_on_c, 0, 51, 0
2, 64959, Note_on_c, 0, 55, 71
2, 64969, Note_on_c, 0, 53, 0
2, 65150, Note_on_c, 0, 56, 64
2, 65154, Note_on_c, 0, 61, 67
2, 65181, Note_on_c, 0, 55, 0
2, 65219, Note_on_c, 0, 63, 0
2, 65330, Note_on_c, 0, 53, 69
2, 65339, Note_on_c, 0, 60, 75
2, 65348, Note_on_c, 0, 61, 0
2, 65363, Note_on_c, 0, 56, 0
2, 65534, Note_on_c, 0, 58, 69
2, 65536, Note_on_c, 0, 61, 76
2, 65569, Note_on_c, 0, 60, 0
2, 65619, Note_on_c, 0, 53, 0
2, 65721, Note_on_c, 0, 60, 72
2, 65721, Note_on_c, 0, 65, 77
2, 65749, Note_on_c, 0, 58, 0
2, 65755, Note_on_c, 0, 61, 0
2, 65904, Note_on_c, 0, 70, 75
2, 65910, Note_on_c, 0, 61, 67
2, 65923, Note_on_c, 0, 65, 0
2, 65927, Note_on_c, 0, 60, 0
2, 66088, Note_on_c, 0, 60, 63
2, 66093, Note_on_c, 0, 68, 72
2, 66094, Note_on_c, 0, 61, 0
2, 66119, Note_on_c, 0, 70, 0
2, 66287, Note_on_c, 0, 58, 61
2, 66291, Note_on_c, 0, 67, 72
2, 66325, Note_on_c, 0, 60, 0
2, 66325, Note_on_c, 0, 68, 0
2, 66465, Note_on_c, 0, 56, 57
2, 66477, Note_on_c, 0, 65, 68
2, 66481, Note_on_c, 0, 58, 0
2, 66533, Note_on_c, 0, 67, 0
2, 66648, Note_on_c, 0, 55, 61
2, 66659, Note_on_c, 0, 56, 0
2, 66663, Note_on_c, 0, 65, 0
2, 66670, Note_on_c, 0, 63, 64
2, 66841, Note_on_c, 0, 58, 63
2, 66841, Note_on_c, 0, 63, 0
2, 66848, Note_on_c, 0, 61, 69
2, 67054, Note_on_c, 0, 60, 63
2, 67057, Note_on_c, 0, 56, 57
2, 67060, Note_on_c, 0, 68, 77
2, 67063, Note_on_c, 0, 58, 0
2, 67083, Note_on_c, 0, 55, 0
2, 67145, Note_on_c, 0, 61, 0
2, 67245, Note_on_c, 0, 58, 62
2, 67251, Note_on_c, 0, 60, 0
2, 67438, Note_on_c, 0, 75, 84
2, 67457, Note_on_c, 0, 58, 0
2, 67457, Note_on_c, 0, 60, 66
2, 67620, Note_on_c, 0, 61, 67
2, 67807, Note_on_c, 0, 60, 0
2, 67826, Note_on_c, 0, 72, 83
2, 67837, Note_on_c, 0, 63, 48
2, 67841, Note_on_c, 0, 61, 0
2, 67855, Note_on_c, 0, 56, 0
2, 67923, Note_on_c, 0, 75, 0
2, 67967, Note_on_c, 0, 68, 0
2, 68022, Note_on_c, 0, 44, 72
2, 68210, Note_on_c, 0, 44, 0
2, 68212, Note_on_c, 0, 46, 72
2, 68213, Note_on_c, 0, 68, 85
2, 68320, Note_on_c, 0, 63, 0
2, 68347, Note_on_c, 0, 46, 0
2, 68375, Note_on_c, 0, 48, 71
2, 68400, Note_on_c, 0, 47, 33
2, 68401, Note_on_c, 0, 47, 0
2, 68424, Note_on_c, 0, 72, 0
2, 68596, Note_on_c, 0, 49, 62
2, 68597, Note_on_c, 0, 77, 88
2, 68605, Note_on_c, 0, 48, 0
2, 68606, Note_on_c, 0, 56, 58
2, 68778, Note_on_c, 0, 49, 0
2, 68781, Note_on_c, 0, 51, 62
2, 68953, Note_on_c, 0, 51, 0
2, 68974, Note_on_c, 0, 53, 58
2, 68977, Note_on_c, 0, 73, 80
2, 69023, Note_on_c, 0, 77, 0
2, 69135, Note_on_c, 0, 56, 0
2, 69167, Note_on_c, 0, 51, 50
2, 69355, Note_on_c, 0, 75, 80
2, 69360, Note_on_c, 0, 53, 0
2, 69361, Note_on_c, 0, 49, 55
2, 69362, Note_on_c, 0, 55, 52
2, 69382, Note_on_c, 0, 51, 0
2, 69422, Note_on_c, 0, 73, 0
2, 69504, Note_on_c, 0, 49, 0
2, 69541, Note_on_c, 0, 48, 54
2, 69723, Note_on_c, 0, 48, 0
2, 69731, Note_on_c, 0, 46, 53
2, 69858, Note_on_c, 0, 55, 0
2, 69914, Note_on_c, 0, 49, 54
2, 70075, Note_on_c, 0, 46, 0
2, 70094, Note_on_c, 0, 49, 0
2, 70108, Note_on_c, 0, 48, 58
2, 70115, Note_on_c, 0, 56, 51
2, 70118, Note_on_c, 0, 63, 73
2, 70155, Note_on_c, 0, 68, 0
2, 70275, Note_on_c, 0, 56, 0
2, 70302, Note_on_c, 0, 58, 60
2, 70467, Note_on_c, 0, 48, 0
2, 70496, Note_on_c, 0, 60, 67
2, 70501, Note_on_c, 0, 58, 0
2, 70503, Note_on_c, 0, 68, 79
2, 70663, Note_on_c, 0, 50, 65
2, 70672, Note_on_c, 0, 60, 0
2, 70848, Note_on_c, 0, 50, 0
2, 70876, Note_on_c, 0, 58, 64
2, 70882, Note_on_c, 0, 67, 79
2, 70885, Note_on_c, 0, 51, 48
2, 71012, Note_on_c, 0, 68, 0
2, 71015, Note_on_c, 0, 63, 0
2, 71057, Note_on_c, 0, 53, 68
2, 71069, Note_on_c, 0, 58, 0
2, 71237, Note_on_c, 0, 55, 74
2, 71252, Note_on_c, 0, 63, 77
2, 71326, Note_on_c, 0, 51, 0
2, 71359, Note_on_c, 0, 67, 0
2, 71392, Note_on_c, 0, 53, 0
2, 71402, Note_on_c, 0, 63, 0
2, 71406, Note_on_c, 0, 75, 0
2, 71408, Note_on_c, 0, 58, 80
2, 71415, Note_on_c, 0, 55, 0
2, 71628, Note_on_c, 0, 72, 79
2, 71628, Note_on_c, 0, 80, 75
2, 71636, Note_on_c, 0, 56, 73
2, 71686, Note_on_c, 0, 58, 0
2, 71810, Note_on_c, 0, 55, 68
2, 71992, Note_on_c, 0, 60, 72
2, 71993, Note_on_c, 0, 68, 84
2, 72007, Note_on_c, 0, 53, 58
2, 72010, Note_on_c, 0, 55, 0
2, 72039, Note_on_c, 0, 56, 0
2, 72075, Note_on_c, 0, 72, 0
2, 72121, Note_on_c, 0, 80, 0
2, 72159, Note_on_c, 0, 60, 0
2, 72162, Note_on_c, 0, 53, 0
2, 72170, Note_on_c, 0, 51, 68
2, 72381, Note_on_c, 0, 53, 65
2, 72385, Note_on_c, 0, 80, 67
2, 72394, Note_on_c, 0, 70, 68
2, 72395, Note_on_c, 0, 50, 56
2, 72533, Note_on_c, 0, 68, 0
2, 72561, Note_on_c, 0, 51, 0
2, 72569, Note_on_c, 0, 46, 62
2, 72572, Note_on_c, 0, 50, 0
2, 72756, Note_on_c, 0, 48, 58
2, 72786, Note_on_c, 0, 46, 0
2, 72798, Note_on_c, 0, 80, 0
2, 72939, Note_on_c, 0, 50, 61
2, 72950, Note_on_c, 0, 53, 0
2, 72961, Note_on_c, 0, 48, 0
2, 73133, Note_on_c, 0, 51, 64
2, 73134, Note_on_c, 0, 79, 77
2, 73147, Note_on_c, 0, 50, 0
2, 73313, Note_on_c, 0, 63, 62
2, 73466, Note_on_c, 0, 79, 0
2, 73499, Note_on_c, 0, 70, 0
2, 73504, Note_on_c, 0, 65, 67
2, 73646, Note_on_c, 0, 63, 0
2, 73662, Note_on_c, 0, 65, 0
2, 73670, Note_on_c, 0, 67, 68
2, 73869, Note_on_c, 0, 77, 68
2, 73882, Note_on_c, 0, 68, 59
2, 73905, Note_on_c, 0, 67, 0
2, 74061, Note_on_c, 0, 70, 58
2, 74084, Note_on_c, 0, 68, 0
2, 74246, Note_on_c, 0, 72, 61
2, 74252, Note_on_c, 0, 56, 56
2, 74270, Note_on_c, 0, 70, 0
2, 74331, Note_on_c, 0, 51, 0
2, 74401, Note_on_c, 0, 70, 57
2, 74491, Note_on_c, 0, 72, 0
2, 74605, Note_on_c, 0, 70, 0
2, 74609, Note_on_c, 0, 68, 60
2, 74627, Note_on_c, 0, 50, 50
2, 74651, Note_on_c, 0, 56, 0
2, 74766, Note_on_c, 0, 68, 0
2, 74778, Note_on_c, 0, 67, 63
2, 74963, Note_on_c, 0, 58, 59
2, 74969, Note_on_c, 0, 67, 0
2, 74975, Note_on_c, 0, 65, 55
2, 75026, Note_on_c, 0, 50, 0
2, 75139, Note_on_c, 0, 68, 67
2, 75142, Note_on_c, 0, 65, 0
2, 75307, Note_on_c, 0, 68, 0
2, 75323, Note_on_c, 0, 67, 64
2, 75335, Note_on_c, 0, 51, 58
2, 75399, Note_on_c, 0, 58, 0
2, 75511, Note_on_c, 0, 70, 72
2, 75689, Note_on_c, 0, 72, 81
2, 75707, Note_on_c, 0, 77, 0
2, 75879, Note_on_c, 0, 74, 81
2, 75907, Note_on_c, 0, 70, 0
2, 75934, Note_on_c, 0, 72, 0
2, 76059, Note_on_c, 0, 51, 0
2, 76069, Note_on_c, 0, 75, 84
2, 76117, Note_on_c, 0, 74, 0
2, 76252, Note_on_c, 0, 51, 65
2, 76427, Note_on_c, 0, 53, 68
2, 76444, Note_on_c, 0, 51, 0
2, 76535, Note_on_c, 0, 53, 0
2, 76590, Note_on_c, 0, 55, 70
2, 76794, Note_on_c, 0, 55, 0
2, 76794, Note_on_c, 0, 56, 66
2, 76794, Note_on_c, 0, 65, 64
2, 76966, Note_on_c, 0, 56, 0
2, 76968, Note_on_c, 0, 58, 65
2, 77145, Note_on_c, 0, 58, 0
2, 77150, Note_on_c, 0, 60, 62
2, 77150, Note_on_c, 0, 80, 82
2, 77242, Note_on_c, 0, 67, 0
2, 77339, Note_on_c, 0, 58, 63
2, 77381, Note_on_c, 0, 60, 0
2, 77527, Note_on_c, 0, 73, 86
2, 77528, Note_on_c, 0, 56, 65
2, 77582, Note_on_c, 0, 58, 0
2, 77603, Note_on_c, 0, 80, 0
2, 77660, Note_on_c, 0, 75, 0
2, 77711, Note_on_c, 0, 55, 60
2, 77725, Note_on_c, 0, 56, 0
2, 77909, Note_on_c, 0, 53, 61
2, 77909, Note_on_c, 0, 82, 82
2, 77940, Note_on_c, 0, 55, 0
2, 77983, Note_on_c, 0, 73, 0
2, 78083, Note_on_c, 0, 56, 58
2, 78135, Note_on_c, 0, 65, 0
2, 78281, Note_on_c, 0, 53, 0
2, 78284, Note_on_c, 0, 55, 55
2, 78289, Note_on_c, 0, 73, 76
2, 78308, Note_on_c, 0, 56, 0
2, 78336, Note_on_c, 0, 82, 0
2, 78482, Note_on_c, 0, 63, 54
2, 78657, Note_on_c, 0, 51, 56
2, 78661, Note_on_c, 0, 65, 58
2, 78709, Note_on_c, 0, 63, 0
2, 78722, Note_on_c, 0, 55, 0
2, 78828, Note_on_c, 0, 73, 0
2, 78842, Note_on_c, 0, 67, 74
2, 78951, Note_on_c, 0, 65, 0
2, 78958, Note_on_c, 0, 51, 0
2, 79021, Note_on_c, 0, 72, 77
2, 79031, Note_on_c, 0, 68, 65
2, 79049, Note_on_c, 0, 67, 0
2, 79210, Note_on_c, 0, 44, 71
2, 79393, Note_on_c, 0, 46, 73
2, 79457, Note_on_c, 0, 44, 0
2, 79571, Note_on_c, 0, 46, 0
2, 79571, Note_on_c, 0, 48, 69
2, 79771, Note_on_c, 0, 49, 63
2, 79773, Note_on_c, 0, 70, 68
2, 79782, Note_on_c, 0, 48, 0
2, 79971, Note_on_c, 0, 51, 57
2, 79985, Note_on_c, 0, 49, 0
2, 80155, Note_on_c, 0, 53, 57
2, 80168, Note_on_c, 0, 51, 0
2, 80338, Note_on_c, 0, 51, 54
2, 80341, Note_on_c, 0, 53, 0
2, 80535, Note_on_c, 0, 49, 51
2, 80543, Note_on_c, 0, 67, 67
2, 80606, Note_on_c, 0, 51, 0
2, 80701, Note_on_c, 0, 48, 56
2, 80708, Note_on_c, 0, 49, 0
2, 80708, Note_on_c, 0, 68, 0
2, 80903, Note_on_c, 0, 48, 0
2, 80906, Note_on_c, 0, 46, 57
2, 81093, Note_on_c, 0, 49, 53
2, 81127, Note_on_c, 0, 46, 0
2, 81236, Note_on_c, 0, 72, 0
2, 81289, Note_on_c, 0, 48, 52
2, 81295, Note_on_c, 0, 68, 66
2, 81316, Note_on_c, 0, 67, 0
2, 81318, Note_on_c, 0, 49, 0
2, 81330, Note_on_c, 0, 70, 0
2, 81657, Note_on_c, 0, 67, 59
2, 81848, Note_on_c, 0, 67, 0
2, 81858, Note_on_c, 0, 65, 50
2, 82039, Note_on_c, 0, 56, 76
2, 82054, Note_on_c, 0, 63, 69
2, 82057, Note_on_c, 0, 65, 0
2, 82224, Note_on_c, 0, 63, 0
2, 82235, Note_on_c, 0, 61, 60
2, 82236, Note_on_c, 0, 49, 63
2, 82237, Note_on_c, 0, 48, 0
2, 82404, Note_on_c, 0, 49, 0
2, 82406, Note_on_c, 0, 51, 65
2, 82413, Note_on_c, 0, 63, 77
2, 82414, Note_on_c, 0, 61, 0
2, 82532, Note_on_c, 0, 51, 0
2, 82589, Note_on_c, 0, 48, 72
2, 82619, Note_on_c, 0, 61, 13
2, 82756, Note_on_c, 0, 61, 0
2, 82793, Note_on_c, 0, 63, 0
2, 82800, Note_on_c, 0, 60, 82
2, 82811, Note_on_c, 0, 68, 0
2, 82816, Note_on_c, 0, 53, 63
2, 82846, Note_on_c, 0, 56, 0
2, 82874, Note_on_c, 0, 48, 0
2, 82968, Note_on_c, 0, 68, 59
2, 83179, Note_on_c, 0, 70, 66
2, 83181, Note_on_c, 0, 56, 81
2, 83202, Note_on_c, 0, 68, 0
2, 83274, Note_on_c, 0, 60, 0
2, 83341, Note_on_c, 0, 72, 67
2, 83363, Note_on_c, 0, 70, 0
2, 83546, Note_on_c, 0, 65, 79
2, 83560, Note_on_c, 0, 73, 69
2, 83620, Note_on_c, 0, 72, 0
2, 83713, Note_on_c, 0, 53, 0
2, 83736, Note_on_c, 0, 51, 60
2, 83925, Note_on_c, 0, 61, 86
2, 83927, Note_on_c, 0, 53, 57
2, 83951, Note_on_c, 0, 56, 0
2, 83982, Note_on_c, 0, 51, 0
2, 84012, Note_on_c, 0, 65, 0
2, 84066, Note_on_c, 0, 53, 0
2, 84090, Note_on_c, 0, 49, 62
2, 84280, Note_on_c, 0, 49, 0
2, 84288, Note_on_c, 0, 56, 66
2, 84295, Note_on_c, 0, 61, 0
2, 84295, Note_on_c, 0, 63, 73
2, 84304, Note_on_c, 0, 68, 71
2, 84324, Note_on_c, 0, 73, 0
2, 84467, Note_on_c, 0, 55, 64
2, 84471, Note_on_c, 0, 56, 0
2, 84482, Note_on_c, 0, 70, 74
2, 84524, Note_on_c, 0, 68, 0
2, 84647, Note_on_c, 0, 70, 0
2, 84664, Note_on_c, 0, 55, 0
2, 84668, Note_on_c, 0, 56, 67
2, 84671, Note_on_c, 0, 72, 67
2, 84836, Note_on_c, 0, 58, 67
2, 84844, Note_on_c, 0, 56, 0
2, 84852, Note_on_c, 0, 75, 71
2, 84880, Note_on_c, 0, 72, 0
2, 85034, Note_on_c, 0, 60, 65
2, 85046, Note_on_c, 0, 80, 70
2, 85047, Note_on_c, 0, 58, 0
2, 85061, Note_on_c, 0, 75, 0
2, 85234, Note_on_c, 0, 79, 79
2, 85249, Note_on_c, 0, 80, 0
2, 85411, Note_on_c, 0, 55, 59
2, 85420, Note_on_c, 0, 80, 82
2, 85444, Note_on_c, 0, 79, 0
2, 85607, Note_on_c, 0, 82, 77
2, 85642, Note_on_c, 0, 80, 0
2, 85720, Note_on_c, 0, 60, 0
2, 85791, Note_on_c, 0, 84, 71
2, 85793, Note_on_c, 0, 56, 65
2, 85805, Note_on_c, 0, 55, 0
2, 85810, Note_on_c, 0, 82, 0
2, 85972, Note_on_c, 0, 82, 71
2, 85985, Note_on_c, 0, 84, 0
2, 86165, Note_on_c, 0, 53, 58
2, 86170, Note_on_c, 0, 80, 63
2, 86219, Note_on_c, 0, 82, 0
2, 86221, Note_on_c, 0, 63, 0
2, 86235, Note_on_c, 0, 56, 0
2, 86353, Note_on_c, 0, 79, 56
2, 86441, Note_on_c, 0, 80, 0
2, 86527, Note_on_c, 0, 61, 68
2, 86530, Note_on_c, 0, 58, 61
2, 86533, Note_on_c, 0, 77, 72
2, 86547, Note_on_c, 0, 79, 0
2, 86594, Note_on_c, 0, 53, 0
2, 86709, Note_on_c, 0, 79, 70
2, 86732, Note_on_c, 0, 77, 0
2, 86890, Note_on_c, 0, 53, 65
2, 86898, Note_on_c, 0, 80, 75
2, 86906, Note_on_c, 0, 79, 0
2, 86945, Note_on_c, 0, 58, 0
2, 87064, Note_on_c, 0, 80, 0
2, 87070, Note_on_c, 0, 84, 70
2, 87258, Note_on_c, 0, 82, 69
2, 87266, Note_on_c, 0, 84, 0
2, 87269, Note_on_c, 0, 55, 61
2, 87273, Note_on_c, 0, 53, 0
2, 87450, Note_on_c, 0, 80, 62
2, 87481, Note_on_c, 0, 82, 0
2, 87624, Note_on_c, 0, 51, 58
2, 87630, Note_on_c, 0, 80, 0
2, 87643, Note_on_c, 0, 79, 64
2, 87668, Note_on_c, 0, 61, 0
2, 87678, Note_on_c, 0, 55, 0
2, 87793, Note_on_c, 0, 79, 0
2, 87811, Note_on_c, 0, 77, 64
2, 87997, Note_on_c, 0, 60, 68
2, 88003, Note_on_c, 0, 77, 0
2, 88006, Note_on_c, 0, 56, 57
2, 88007, Note_on_c, 0, 75, 65
2, 88037, Note_on_c, 0, 51, 0
2, 88171, Note_on_c, 0, 75, 0
2, 88188, Note_on_c, 0, 77, 71
2, 88367, Note_on_c, 0, 77, 0
2, 88367, Note_on_c, 0, 79, 69
2, 88369, Note_on_c, 0, 51, 62
2, 88413, Note_on_c, 0, 56, 0
2, 88550, Note_on_c, 0, 82, 69
2, 88555, Note_on_c, 0, 79, 0
2, 88735, Note_on_c, 0, 80, 63
2, 88737, Note_on_c, 0, 53, 58
2, 88751, Note_on_c, 0, 82, 0
2, 88788, Note_on_c, 0, 51, 0
2, 88919, Note_on_c, 0, 80, 0
2, 88926, Note_on_c, 0, 79, 67
2, 89086, Note_on_c, 0, 79, 0
2, 89097, Note_on_c, 0, 50, 54
2, 89098, Note_on_c, 0, 77, 72
2, 89134, Note_on_c, 0, 53, 0
2, 89182, Note_on_c, 0, 60, 0
2, 89278, Note_on_c, 0, 77, 0
2, 89282, Note_on_c, 0, 75, 64
2, 89457, Note_on_c, 0, 55, 53
2, 89457, Note_on_c, 0, 75, 0
2, 89461, Note_on_c, 0, 58, 57
2, 89462, Note_on_c, 0, 74, 64
2, 89490, Note_on_c, 0, 50, 0
2, 89646, Note_on_c, 0, 74, 0
2, 89646, Note_on_c, 0, 75, 68
2, 89814, Note_on_c, 0, 77, 70
2, 89816, Note_on_c, 0, 50, 60
2, 89837, Note_on_c, 0, 75, 0
2, 89885, Note_on_c, 0, 55, 0
2, 90001, Note_on_c, 0, 80, 69
2, 90004, Note_on_c, 0, 77, 0
2, 90179, Note_on_c, 0, 52, 53
2, 90181, Note_on_c, 0, 79, 72
2, 90189, Note_on_c, 0, 50, 0
2, 90215, Note_on_c, 0, 80, 0
2, 90354, Note_on_c, 0, 77, 69
2, 90366, Note_on_c, 0, 79, 0
2, 90535, Note_on_c, 0, 48, 57
2, 90544, Note_on_c, 0, 76, 69
2, 90563, Note_on_c, 0, 52, 0
2, 90574, Note_on_c, 0, 77, 0
2, 90725, Note_on_c, 0, 76, 0
2, 90725, Note_on_c, 0, 79, 67
2, 90908, Note_on_c, 0, 50, 46
2, 90926, Note_on_c, 0, 56, 60
2, 90930, Note_on_c, 0, 65, 73
2, 90933, Note_on_c, 0, 77, 69
2, 90940, Note_on_c, 0, 79, 0
2, 90951, Note_on_c, 0, 48, 0
2, 91009, Note_on_c, 0, 58, 0
2, 91095, Note_on_c, 0, 77, 0
2, 91104, Note_on_c, 0, 76, 60
2, 91278, Note_on_c, 0, 55, 56
2, 91288, Note_on_c, 0, 72, 74
2, 91290, Note_on_c, 0, 52, 47
2, 91290, Note_on_c, 0, 77, 69
2, 91329, Note_on_c, 0, 56, 0
2, 91331, Note_on_c, 0, 76, 0
2, 91352, Note_on_c, 0, 65, 0
2, 91361, Note_on_c, 0, 50, 0
2, 91368, Note_on_c, 0, 52, 0
2, 91486, Note_on_c, 0, 79, 71
2, 91516, Note_on_c, 0, 77, 0
2, 91668, Note_on_c, 0, 68, 79
2, 91669, Note_on_c, 0, 53, 62
2, 91691, Note_on_c, 0, 72, 0
2, 91711, Note_on_c, 0, 55, 0
2, 91733, Note_on_c, 0, 79, 0
2, 91836, Note_on_c, 0, 58, 64
2, 92007, Note_on_c, 0, 56, 59
2, 92017, Note_on_c, 0, 58, 0
2, 92021, Note_on_c, 0, 65, 77
2, 92026, Note_on_c, 0, 77, 73
2, 92073, Note_on_c, 0, 68, 0
2, 92142, Note_on_c, 0, 53, 0
2, 92174, Note_on_c, 0, 56, 0
2, 92186, Note_on_c, 0, 55, 61
2, 92390, Note_on_c, 0, 55, 0
2, 92391, Note_on_c, 0, 46, 57
2, 92400, Note_on_c, 0, 53, 62
2, 92401, Note_on_c, 0, 73, 82
2, 92474, Note_on_c, 0, 77, 0
2, 92517, Note_on_c, 0, 65, 0
2, 92568, Note_on_c, 0, 53, 0
2, 92581, Note_on_c, 0, 52, 62
2, 92761, Note_on_c, 0, 79, 78
2, 92762, Note_on_c, 0, 53, 60
2, 92763, Note_on_c, 0, 70, 70
2, 92788, Note_on_c, 0, 73, 0
2, 92817, Note_on_c, 0, 52, 0
2, 92892, Note_on_c, 0, 46, 0
2, 92928, Note_on_c, 0, 55, 59
2, 92931, Note_on_c, 0, 79, 0
2, 92939, Note_on_c, 0, 53, 0
2, 92943, Note_on_c, 0, 76, 64
2, 93143, Note_on_c, 0, 56, 63
2, 93143, Note_on_c, 0, 72, 75
2, 93143, Note_on_c, 0, 77, 70
2, 93145, Note_on_c, 0, 53, 50
2, 93146, Note_on_c, 0, 70, 0
2, 93148, Note_on_c, 0, 55, 0
2, 93174, Note_on_c, 0, 76, 0
2, 93314, Note_on_c, 0, 58, 70
2, 93316, Note_on_c, 0, 76, 71
2, 93317, Note_on_c, 0, 56, 0
2, 93322, Note_on_c, 0, 77, 0
2, 93491, Note_on_c, 0, 56, 63
2, 93505, Note_on_c, 0, 77, 81
2, 93507, Note_on_c, 0, 74, 83
2, 93512, Note_on_c, 0, 58, 0
2, 93533, Note_on_c, 0, 76, 0
2, 93548, Note_on_c, 0, 72, 0
2, 93674, Note_on_c, 0, 53, 0
2, 93680, Note_on_c, 0, 79, 75
2, 93681, Note_on_c, 0, 55, 70
2, 93683, Note_on_c, 0, 76, 78
2, 93702, Note_on_c, 0, 56, 0
2, 93724, Note_on_c, 0, 77, 0
2, 93736, Note_on_c, 0, 79, 0
2, 93884, Note_on_c, 0, 77, 72
2, 93884, Note_on_c, 0, 80, 82
2, 93891, Note_on_c, 0, 53, 68
2, 93892, Note_on_c, 0, 55, 0
2, 93893, Note_on_c, 0, 74, 0
2, 93925, Note_on_c, 0, 76, 0
2, 94040, Note_on_c, 0, 53, 0
2, 94065, Note_on_c, 0, 41, 63
2, 94247, Note_on_c, 0, 72, 73
2, 94248, Note_on_c, 0, 43, 59
2, 94288, Note_on_c, 0, 41, 0
2, 94423, Note_on_c, 0, 44, 64
2, 94424, Note_on_c, 0, 43, 0
2, 94602, Note_on_c, 0, 44, 0
2, 94616, Note_on_c, 0, 46, 61
2, 94620, Note_on_c, 0, 73, 72
2, 94645, Note_on_c, 0, 72, 0
2, 94785, Note_on_c, 0, 44, 60
2, 94819, Note_on_c, 0, 46, 0
2, 94972, Note_on_c, 0, 44, 0
2, 94974, Note_on_c, 0, 43, 59
2, 94976, Note_on_c, 0, 70, 73
2, 94994, Note_on_c, 0, 73, 0
2, 95007, Note_on_c, 0, 80, 0
2, 95026, Note_on_c, 0, 77, 0
2, 95155, Note_on_c, 0, 41, 59
2, 95162, Note_on_c, 0, 43, 0
2, 95345, Note_on_c, 0, 41, 0
2, 95346, Note_on_c, 0, 39, 59
2, 95352, Note_on_c, 0, 79, 78
2, 95365, Note_on_c, 0, 75, 64
2, 95427, Note_on_c, 0, 70, 0
2, 95537, Note_on_c, 0, 41, 57
2, 95592, Note_on_c, 0, 39, 0
2, 95674, Note_on_c, 0, 41, 0
2, 95709, Note_on_c, 0, 43, 63
2, 95711, Note_on_c, 0, 70, 69
2, 95882, Note_on_c, 0, 43, 0
2, 95886, Note_on_c, 0, 46, 53
2, 96069, Note_on_c, 0, 44, 56
2, 96087, Note_on_c, 0, 46, 0
2, 96094, Note_on_c, 0, 72, 66
2, 96137, Note_on_c, 0, 70, 0
2, 96231, Note_on_c, 0, 44, 0
2, 96253, Note_on_c, 0, 43, 60
2, 96419, Note_on_c, 0, 43, 0
2, 96433, Note_on_c, 0, 41, 53
2, 96438, Note_on_c, 0, 68, 66
2, 96443, Note_on_c, 0, 79, 0
2, 96451, Note_on_c, 0, 72, 0
2, 96470, Note_on_c, 0, 75, 0
2, 96607, Note_on_c, 0, 41, 0
2, 96617, Note_on_c, 0, 39, 54
2, 96790, Note_on_c, 0, 77, 75
2, 96793, Note_on_c, 0, 39, 0
2, 96801, Note_on_c, 0, 37, 54
2, 96802, Note_on_c, 0, 73, 63
2, 96870, Note_on_c, 0, 68, 0
2, 96977, Note_on_c, 0, 37, 0
2, 96982, Note_on_c, 0, 39, 50
2, 97148, Note_on_c, 0, 39, 0
2, 97173, Note_on_c, 0, 68, 66
2, 97176, Note_on_c, 0, 41, 53
2, 97283, Note_on_c, 0, 41, 0
2, 97327, Note_on_c, 0, 44, 56
2, 97525, Note_on_c, 0, 68, 0
2, 97535, Note_on_c, 0, 70, 62
2, 97540, Note_on_c, 0, 43, 47
2, 97560, Note_on_c, 0, 44, 0
2, 97566, Note_on_c, 0, 73, 0
2, 97701, Note_on_c, 0, 70, 0
2, 97714, Note_on_c, 0, 72, 65
2, 97882, Note_on_c, 0, 43, 0
2, 97885, Note_on_c, 0, 72, 0
2, 97887, Note_on_c, 0, 73, 69
2, 97900, Note_on_c, 0, 46, 55
2, 97961, Note_on_c, 0, 77, 0
2, 98065, Note_on_c, 0, 73, 0
2, 98077, Note_on_c, 0, 72, 65
2, 98242, Note_on_c, 0, 76, 64
2, 98248, Note_on_c, 0, 48, 51
2, 98254, Note_on_c, 0, 46, 0
2, 98257, Note_on_c, 0, 70, 61
2, 98257, Note_on_c, 0, 72, 0
2, 98372, Note_on_c, 0, 70, 0
2, 98435, Note_on_c, 0, 68, 57
2, 98618, Note_on_c, 0, 36, 58
2, 98618, Note_on_c, 0, 67, 58
2, 98618, Note_on_c, 0, 68, 0
2, 98654, Note_on_c, 0, 48, 0
2, 98740, Note_on_c, 0, 76, 0
2, 98796, Note_on_c, 0, 70, 51
2, 98924, Note_on_c, 0, 67, 0
2, 98983, Note_on_c, 0, 77, 62
2, 98993, Note_on_c, 0, 41, 49
2, 98999, Note_on_c, 0, 68, 50
2, 99045, Note_on_c, 0, 70, 0
2, 99085, Note_on_c, 0, 36, 0
2, 99182, Note_on_c, 0, 48, 68
2, 99187, Note_on_c, 0, 41, 0
2, 99357, Note_on_c, 0, 50, 76
2, 99426, Note_on_c, 0, 68, 0
2, 99477, Note_on_c, 0, 48, 0
2, 99544, Note_on_c, 0, 52, 72
2, 99577, Note_on_c, 0, 50, 0
2, 99728, Note_on_c, 0, 53, 69
2, 99764, Note_on_c, 0, 52, 0
2, 99904, Note_on_c, 0, 75, 63
2, 99960, Note_on_c, 0, 77, 0
2, 100102, Note_on_c, 0, 73, 69
2, 100191, Note_on_c, 0, 75, 0
2, 100269, Note_on_c, 0, 73, 0
2, 100273, Note_on_c, 0, 72, 67
2, 100456, Note_on_c, 0, 70, 64
2, 100465, Note_on_c, 0, 72, 0
2, 100636, Note_on_c, 0, 68, 53
2, 100654, Note_on_c, 0, 70, 0
2, 100815, Note_on_c, 0, 68, 0
2, 100816, Note_on_c, 0, 67, 58
2, 100837, Note_on_c, 0, 58, 65
2, 100996, Note_on_c, 0, 67, 0
2, 101006, Note_on_c, 0, 68, 62
2, 101186, Note_on_c, 0, 52, 67
2, 101195, Note_on_c, 0, 70, 66
2, 101225, Note_on_c, 0, 68, 0
2, 101226, Note_on_c, 0, 53, 0
2, 101264, Note_on_c, 0, 58, 0
2, 101379, Note_on_c, 0, 73, 72
2, 101388, Note_on_c, 0, 70, 0
2, 101568, Note_on_c, 0, 72, 73
2, 101575, Note_on_c, 0, 60, 73
2, 101600, Note_on_c, 0, 73, 0
2, 101651, Note_on_c, 0, 52, 0
2, 101759, Note_on_c, 0, 70, 71
2, 101782, Note_on_c, 0, 72, 0
2, 101938, Note_on_c, 0, 70, 0
2, 101940, Note_on_c, 0, 51, 72
2, 101941, Note_on_c, 0, 69, 64
2, 102007, Note_on_c, 0, 60, 0
2, 102110, Note_on_c, 0, 72, 75
2, 102149, Note_on_c, 0, 69, 0
2, 102309, Note_on_c, 0, 73, 82
2, 102311, Note_on_c, 0, 57, 75
2, 102335, Note_on_c, 0, 72, 0
2, 102371, Note_on_c, 0, 51, 0
2, 102494, Note_on_c, 0, 75, 80
2, 102523, Note_on_c, 0, 73, 0
2, 102676, Note_on_c, 0, 49, 61
2, 102683, Note_on_c, 0, 58, 83
2, 102685, Note_on_c, 0, 77, 73
2, 102716, Note_on_c, 0, 75, 0
2, 102745, Note_on_c, 0, 57, 0
2, 102796, Note_on_c, 0, 49, 0
2, 102862, Note_on_c, 0, 75, 71
2, 102882, Note_on_c, 0, 77, 0
2, 103064, Note_on_c, 0, 73, 73
2, 103074, Note_on_c, 0, 65, 84
2, 103092, Note_on_c, 0, 75, 0
2, 103238, Note_on_c, 0, 73, 0
2, 103241, Note_on_c, 0, 72, 65
2, 103428, Note_on_c, 0, 61, 80
2, 103435, Note_on_c, 0, 70, 65
2, 103448, Note_on_c, 0, 54, 62
2, 103450, Note_on_c, 0, 72, 0
2, 103490, Note_on_c, 0, 58, 0
2, 103504, Note_on_c, 0, 65, 0
2, 103608, Note_on_c, 0, 73, 69
2, 103613, Note_on_c, 0, 70, 0
2, 103808, Note_on_c, 0, 73, 0
2, 103812, Note_on_c, 0, 58, 77
2, 103813, Note_on_c, 0, 78, 69
2, 103885, Note_on_c, 0, 61, 0
2, 104011, Note_on_c, 0, 77, 59
2, 104039, Note_on_c, 0, 78, 0
2, 104170, Note_on_c, 0, 66, 81
2, 104185, Note_on_c, 0, 75, 75
2, 104286, Note_on_c, 0, 54, 0
2, 104349, Note_on_c, 0, 77, 0
2, 104356, Note_on_c, 0, 73, 73
2, 104436, Note_on_c, 0, 66, 0
2, 104469, Note_on_c, 0, 75, 0
2, 104503, Note_on_c, 0, 73, 0
2, 104522, Note_on_c, 0, 72, 70
2, 104533, Note_on_c, 0, 54, 64
2, 104533, Note_on_c, 0, 63, 79
2, 104699, Note_on_c, 0, 70, 74
2, 104708, Note_on_c, 0, 53, 67
2, 104712, Note_on_c, 0, 58, 0
2, 104724, Note_on_c, 0, 54, 0
2, 104743, Note_on_c, 0, 63, 0
2, 104823, Note_on_c, 0, 72, 0
2, 104896, Note_on_c, 0, 65, 71
2, 104900, Note_on_c, 0, 69, 70
2, 104903, Note_on_c, 0, 51, 66
2, 104912, Note_on_c, 0, 53, 0
2, 104941, Note_on_c, 0, 70, 0
2, 105082, Note_on_c, 0, 54, 66
2, 105243, Note_on_c, 0, 51, 0
2, 105265, Note_on_c, 0, 53, 71
2, 105270, Note_on_c, 0, 54, 0
2, 105329, Note_on_c, 0, 65, 0
2, 105436, Note_on_c, 0, 51, 64
2, 105445, Note_on_c, 0, 53, 0
2, 105640, Note_on_c, 0, 49, 56
2, 105641, Note_on_c, 0, 58, 69
2, 105643, Note_on_c, 0, 51, 0
2, 105643, Note_on_c, 0, 65, 77
2, 105647, Note_on_c, 0, 70, 69
2, 105779, Note_on_c, 0, 69, 0
2, 105806, Note_on_c, 0, 49, 0
2, 105809, Note_on_c, 0, 48, 64
2, 105818, Note_on_c, 0, 72, 68
2, 105822, Note_on_c, 0, 70, 0
2, 106005, Note_on_c, 0, 46, 67
2, 106006, Note_on_c, 0, 70, 76
2, 106012, Note_on_c, 0, 73, 75
2, 106014, Note_on_c, 0, 48, 0
2, 106131, Note_on_c, 0, 72, 0
2, 106192, Note_on_c, 0, 49, 64
2, 106203, Note_on_c, 0, 46, 0
2, 106246, Note_on_c, 0, 49, 0
2, 106379, Note_on_c, 0, 66, 80
2, 106389, Note_on_c, 0, 51, 62
2, 106445, Note_on_c, 0, 70, 0
2, 106454, Note_on_c, 0, 65, 0
2, 106549, Note_on_c, 0, 53, 63
2, 106595, Note_on_c, 0, 51, 0
2, 106728, Note_on_c, 0, 73, 0
2, 106732, Note_on_c, 0, 54, 70
2, 106734, Note_on_c, 0, 63, 78
2, 106738, Note_on_c, 0, 72, 68
2, 106750, Note_on_c, 0, 53, 0
2, 106790, Note_on_c, 0, 58, 0
2, 106801, Note_on_c, 0, 66, 0
2, 106916, Note_on_c, 0, 51, 60
2, 106916, Note_on_c, 0, 73, 81
2, 106926, Note_on_c, 0, 72, 0
2, 107092, Note_on_c, 0, 72, 68
2, 107096, Note_on_c, 0, 75, 74
2, 107099, Note_on_c, 0, 54, 0
2, 107099, Note_on_c, 0, 57, 71
2, 107127, Note_on_c, 0, 53, 32
2, 107134, Note_on_c, 0, 73, 0
2, 107137, Note_on_c, 0, 51, 0
2, 107171, Note_on_c, 0, 63, 0
2, 107250, Note_on_c, 0, 57, 0
2, 107277, Note_on_c, 0, 58, 68
2, 107448, Note_on_c, 0, 58, 0
2, 107454, Note_on_c, 0, 60, 75
2, 107462, Note_on_c, 0, 69, 77
2, 107631, Note_on_c, 0, 57, 67
2, 107634, Note_on_c, 0, 53, 0
2, 107681, Note_on_c, 0, 60, 0
2, 107809, Note_on_c, 0, 53, 46
2, 107818, Note_on_c, 0, 46, 60
2, 107831, Note_on_c, 0, 57, 0
2, 107831, Note_on_c, 0, 70, 77
2, 107848, Note_on_c, 0, 69, 0
2, 107869, Note_on_c, 0, 72, 0
2, 107917, Note_on_c, 0, 75, 0
2, 108009, Note_on_c, 0, 72, 75
2, 108010, Note_on_c, 0, 70, 0
2, 108181, Note_on_c, 0, 73, 85
2, 108187, Note_on_c, 0, 58, 64
2, 108231, Note_on_c, 0, 72, 0
2, 108240, Note_on_c, 0, 46, 0
2, 108349, Note_on_c, 0, 53, 0
2, 108350, Note_on_c, 0, 77, 82
2, 108351, Note_on_c, 0, 60, 64
2, 108359, Note_on_c, 0, 58, 0
2, 108561, Note_on_c, 0, 73, 0
2, 108576, Note_on_c, 0, 61, 63
2, 108576, Note_on_c, 0, 82, 83
2, 108607, Note_on_c, 0, 60, 0
2, 108670, Note_on_c, 0, 77, 0
2, 108761, Note_on_c, 0, 65, 43
2, 108929, Note_on_c, 0, 65, 0
2, 108943, Note_on_c, 0, 77, 78
2, 108946, Note_on_c, 0, 66, 50
2, 109011, Note_on_c, 0, 82, 0
2, 109120, Note_on_c, 0, 66, 0
2, 109123, Note_on_c, 0, 68, 56
2, 109318, Note_on_c, 0, 78, 79
2, 109319, Note_on_c, 0, 70, 60
2, 109328, Note_on_c, 0, 68, 0
2, 109440, Note_on_c, 0, 77, 0
2, 109501, Note_on_c, 0, 68, 54
2, 109525, Note_on_c, 0, 70, 0
2, 109678, Note_on_c, 0, 75, 79
2, 109682, Note_on_c, 0, 66, 62
2, 109735, Note_on_c, 0, 78, 0
2, 109744, Note_on_c, 0, 68, 0
2, 109835, Note_on_c, 0, 66, 0
2, 109846, Note_on_c, 0, 61, 0
2, 109852, Note_on_c, 0, 65, 57
2, 110056, Note_on_c, 0, 80, 77
2, 110062, Note_on_c, 0, 63, 50
2, 110064, Note_on_c, 0, 65, 0
2, 110069, Note_on_c, 0, 60, 52
2, 110196, Note_on_c, 0, 75, 0
2, 110236, Note_on_c, 0, 63, 0
2, 110242, Note_on_c, 0, 65, 58
2, 110396, Note_on_c, 0, 65, 0
2, 110416, Note_on_c, 0, 66, 55
2, 110419, Note_on_c, 0, 75, 78
2, 110480, Note_on_c, 0, 80, 0
2, 110599, Note_on_c, 0, 66, 0
2, 110606, Note_on_c, 0, 70, 56
2, 110802, Note_on_c, 0, 68, 59
2, 110807, Note_on_c, 0, 77, 78
2, 110816, Note_on_c, 0, 70, 0
2, 110927, Note_on_c, 0, 75, 0
2, 110958, Note_on_c, 0, 68, 0
2, 110959, Note_on_c, 0, 66, 56
2, 111126, Note_on_c, 0, 66, 0
2, 111146, Note_on_c, 0, 73, 78
2, 111151, Note_on_c, 0, 65, 59
2, 111173, Note_on_c, 0, 60, 0
2, 111181, Note_on_c, 0, 77, 0
2, 111312, Note_on_c, 0, 77, 77
2, 111316, Note_on_c, 0, 63, 64
2, 111326, Note_on_c, 0, 65, 0
2, 111364, Note_on_c, 0, 73, 0
2, 111518, Note_on_c, 0, 63, 0
2, 111520, Note_on_c, 0, 61, 56
2, 111525, Note_on_c, 0, 58, 50
2, 111525, Note_on_c, 0, 78, 76
2, 111643, Note_on_c, 0, 77, 0
2, 111700, Note_on_c, 0, 63, 62
2, 111709, Note_on_c, 0, 61, 0
2, 111856, Note_on_c, 0, 63, 0
2, 111865, Note_on_c, 0, 73, 77
2, 111878, Note_on_c, 0, 65, 59
2, 111921, Note_on_c, 0, 78, 0
2, 112046, Note_on_c, 0, 65, 0
2, 112058, Note_on_c, 0, 68, 52
2, 112244, Note_on_c, 0, 66, 62
2, 112252, Note_on_c, 0, 75, 70
2, 112261, Note_on_c, 0, 68, 0
2, 112316, Note_on_c, 0, 73, 0
2, 112392, Note_on_c, 0, 66, 0
2, 112413, Note_on_c, 0, 65, 59
2, 112591, Note_on_c, 0, 63, 58
2, 112592, Note_on_c, 0, 72, 69
2, 112640, Note_on_c, 0, 65, 0
2, 112649, Note_on_c, 0, 75, 0
2, 112758, Note_on_c, 0, 61, 65
2, 112777, Note_on_c, 0, 63, 0
2, 112799, Note_on_c, 0, 58, 0
2, 112941, Note_on_c, 0, 57, 43
2, 112944, Note_on_c, 0, 77, 78
2, 112945, Note_on_c, 0, 60, 57
2, 112986, Note_on_c, 0, 61, 0
2, 113055, Note_on_c, 0, 72, 0
2, 113127, Note_on_c, 0, 61, 60
2, 113134, Note_on_c, 0, 60, 0
2, 113308, Note_on_c, 0, 61, 0
2, 113315, Note_on_c, 0, 63, 54
2, 113319, Note_on_c, 0, 72, 65
2, 113470, Note_on_c, 0, 66, 55
2, 113672, Note_on_c, 0, 73, 74
2, 113678, Note_on_c, 0, 58, 57
2, 113688, Note_on_c, 0, 57, 0
2, 113688, Note_on_c, 0, 77, 0
2, 113696, Note_on_c, 0, 65, 27
2, 113697, Note_on_c, 0, 63, 0
2, 113707, Note_on_c, 0, 66, 0
2, 113871, Note_on_c, 0, 63, 57
2, 113908, Note_on_c, 0, 65, 0
2, 113972, Note_on_c, 0, 72, 0
2, 114040, Note_on_c, 0, 61, 67
2, 114097, Note_on_c, 0, 63, 0
2, 114176, Note_on_c, 0, 58, 0
2, 114197, Note_on_c, 0, 61, 0
2, 114207, Note_on_c, 0, 60, 74
2, 114388, Note_on_c, 0, 58, 63
2, 114401, Note_on_c, 0, 65, 72
2, 114419, Note_on_c, 0, 60, 0
2, 114566, Note_on_c, 0, 56, 68
2, 114605, Note_on_c, 0, 58, 0
2, 114748, Note_on_c, 0, 56, 0
2, 114751, Note_on_c, 0, 70, 76
2, 114752, Note_on_c, 0, 55, 59
2, 114835, Note_on_c, 0, 65, 0
2, 114932, Note_on_c, 0, 55, 0
2, 114934, Note_on_c, 0, 53, 58
2, 115096, Note_on_c, 0, 53, 0
2, 115105, Note_on_c, 0, 67, 75
2, 115109, Note_on_c, 0, 51, 59
2, 115199, Note_on_c, 0, 70, 0
2, 115263, Note_on_c, 0, 51, 0
2, 115305, Note_on_c, 0, 61, 52
2, 115477, Note_on_c, 0, 60, 67
2, 115484, Note_on_c, 0, 61, 0
2, 115484, Note_on_c, 0, 63, 68
2, 115523, Note_on_c, 0, 67, 0
2, 115646, Note_on_c, 0, 58, 61
2, 115698, Note_on_c, 0, 60, 0
2, 115813, Note_on_c, 0, 56, 61
2, 115827, Note_on_c, 0, 72, 77
2, 115852, Note_on_c, 0, 58, 0
2, 115911, Note_on_c, 0, 63, 0
2, 115913, Note_on_c, 0, 73, 0
2, 115988, Note_on_c, 0, 56, 0
2, 116004, Note_on_c, 0, 55, 62
2, 116191, Note_on_c, 0, 77, 81
2, 116192, Note_on_c, 0, 53, 59
2, 116207, Note_on_c, 0, 68, 40
2, 116208, Note_on_c, 0, 55, 0
2, 116244, Note_on_c, 0, 72, 0
2, 116363, Note_on_c, 0, 53, 0
2, 116382, Note_on_c, 0, 55, 65
2, 116555, Note_on_c, 0, 74, 77
2, 116569, Note_on_c, 0, 56, 62
2, 116571, Note_on_c, 0, 65, 46
2, 116575, Note_on_c, 0, 55, 0
2, 116660, Note_on_c, 0, 77, 0
2, 116703, Note_on_c, 0, 65, 0
2, 116723, Note_on_c, 0, 68, 0
2, 116743, Note_on_c, 0, 60, 73
2, 116757, Note_on_c, 0, 56, 0
2, 116926, Note_on_c, 0, 58, 71
2, 116932, Note_on_c, 0, 70, 77
2, 116933, Note_on_c, 0, 60, 0
2, 116945, Note_on_c, 0, 62, 39
2, 117067, Note_on_c, 0, 62, 0
2, 117090, Note_on_c, 0, 56, 67
2, 117122, Note_on_c, 0, 58, 0
2, 117272, Note_on_c, 0, 55, 69
2, 117272, Note_on_c, 0, 56, 0
2, 117285, Note_on_c, 0, 75, 84
2, 117451, Note_on_c, 0, 53, 63
2, 117457, Note_on_c, 0, 55, 0
2, 117501, Note_on_c, 0, 70, 0
2, 117503, Note_on_c, 0, 74, 0
2, 117645, Note_on_c, 0, 51, 65
2, 117648, Note_on_c, 0, 67, 66
2, 117659, Note_on_c, 0, 53, 0
2, 117835, Note_on_c, 0, 49, 59
2, 117850, Note_on_c, 0, 51, 0
2, 117993, Note_on_c, 0, 48, 64
2, 118007, Note_on_c, 0, 68, 56
2, 118013, Note_on_c, 0, 49, 0
2, 118014, Note_on_c, 0, 67, 0
2, 118191, Note_on_c, 0, 68, 0
2, 118193, Note_on_c, 0, 70, 53
2, 118377, Note_on_c, 0, 56, 67
2, 118381, Note_on_c, 0, 72, 60
2, 118397, Note_on_c, 0, 70, 0
2, 118436, Note_on_c, 0, 48, 0
2, 118531, Note_on_c, 0, 70, 56
2, 118565, Note_on_c, 0, 75, 0
2, 118581, Note_on_c, 0, 72, 0
2, 118728, Note_on_c, 0, 74, 60
2, 118730, Note_on_c, 0, 70, 0
2, 118733, Note_on_c, 0, 58, 67
2, 118738, Note_on_c, 0, 68, 55
2, 118776, Note_on_c, 0, 56, 0
2, 118898, Note_on_c, 0, 68, 0
2, 118903, Note_on_c, 0, 67, 59
2, 119079, Note_on_c, 0, 46, 56
2, 119087, Note_on_c, 0, 65, 51
2, 119096, Note_on_c, 0, 67, 0
2, 119142, Note_on_c, 0, 58, 0
2, 119254, Note_on_c, 0, 74, 0
2, 119268, Note_on_c, 0, 68, 56
2, 119274, Note_on_c, 0, 65, 0
2, 119460, Note_on_c, 0, 68, 0
2, 119461, Note_on_c, 0, 51, 54
2, 119470, Note_on_c, 0, 75, 60
2, 119485, Note_on_c, 0, 67, 40
2, 119552, Note_on_c, 0, 46, 0
2, 119626, Note_on_c, 0, 67, 0
2, 119654, Note_on_c, 0, 68, 50
2, 119832, Note_on_c, 0, 68, 0
2, 119836, Note_on_c, 0, 70, 58
2, 120021, Note_on_c, 0, 67, 71
2, 120047, Note_on_c, 0, 70, 0
2, 120209, Note_on_c, 0, 63, 78
2, 120262, Note_on_c, 0, 67, 0
2, 120399, Note_on_c, 0, 53, 58
2, 120479, Note_on_c, 0, 51, 0
2, 120592, Note_on_c, 0, 70, 85
2, 120595, Note_on_c, 0, 53, 0
2, 120607, Note_on_c, 0, 55, 58
2, 120781, Note_on_c, 0, 56, 64
2, 120788, Note_on_c, 0, 55, 0
2, 120974, Note_on_c, 0, 58, 64
2, 120975, Note_on_c, 0, 67, 79
2, 121015, Note_on_c, 0, 63, 0
2, 121062, Note_on_c, 0, 56, 0
2, 121075, Note_on_c, 0, 70, 0
2, 121134, Note_on_c, 0, 58, 0
2, 121151, Note_on_c, 0, 60, 69
2, 121319, Note_on_c, 0, 60, 0
2, 121326, Note_on_c, 0, 61, 67
2, 121335, Note_on_c, 0, 63, 78
2, 121368, Note_on_c, 0, 67, 0
2, 121384, Note_on_c, 0, 75, 0
2, 121500, Note_on_c, 0, 61, 0
2, 121507, Note_on_c, 0, 60, 69
2, 121701, Note_on_c, 0, 73, 80
2, 121703, Note_on_c, 0, 58, 61
2, 121734, Note_on_c, 0, 60, 0
2, 121754, Note_on_c, 0, 63, 0
2, 121887, Note_on_c, 0, 56, 61
2, 121916, Note_on_c, 0, 58, 0
2, 122071, Note_on_c, 0, 55, 51
2, 122072, Note_on_c, 0, 70, 75
2, 122083, Note_on_c, 0, 56, 0
2, 122108, Note_on_c, 0, 73, 0
2, 122234, Note_on_c, 0, 55, 0
2, 122247, Note_on_c, 0, 58, 57
2, 122442, Note_on_c, 0, 72, 68
2, 122447, Note_on_c, 0, 56, 54
2, 122458, Note_on_c, 0, 58, 0
2, 122509, Note_on_c, 0, 70, 0
2, 122616, Note_on_c, 0, 56, 0
2, 122620, Note_on_c, 0, 51, 57
2, 122803, Note_on_c, 0, 53, 55
2, 122821, Note_on_c, 0, 51, 0
2, 122969, Note_on_c, 0, 53, 0
2, 122980, Note_on_c, 0, 72, 0
2, 122991, Note_on_c, 0, 55, 68
2, 123161, Note_on_c, 0, 56, 65
2, 123178, Note_on_c, 0, 68, 78
2, 123179, Note_on_c, 0, 55, 0
2, 123375, Note_on_c, 0, 58, 62
2, 123415, Note_on_c, 0, 56, 0
2, 123528, Note_on_c, 0, 75, 83
2, 123545, Note_on_c, 0, 58, 0
2, 123548, Note_on_c, 0, 60, 63
2, 123573, Note_on_c, 0, 68, 0
2, 123710, Note_on_c, 0, 60, 0
2, 123710, Note_on_c, 0, 61, 65
2, 123894, Note_on_c, 0, 63, 65
2, 123904, Note_on_c, 0, 72, 82
2, 123925, Note_on_c, 0, 61, 0
2, 124011, Note_on_c, 0, 75, 0
2, 124068, Note_on_c, 0, 63, 0
2, 124077, Note_on_c, 0, 65, 64
2, 124252, Note_on_c, 0, 65, 0
2, 124255, Note_on_c, 0, 66, 66
2, 124257, Note_on_c, 0, 68, 82
2, 124326, Note_on_c, 0, 72, 0
2, 124422, Note_on_c, 0, 66, 0
2, 124435, Note_on_c, 0, 65, 66
2, 124623, Note_on_c, 0, 63, 65
2, 124628, Note_on_c, 0, 78, 83
2, 124633, Note_on_c, 0, 65, 0
2, 124633, Note_on_c, 0, 72, 61
2, 124671, Note_on_c, 0, 68, 0
2, 124806, Note_on_c, 0, 61, 61
2, 124820, Note_on_c, 0, 63, 0
2, 124982, Note_on_c, 0, 60, 62
2, 124986, Note_on_c, 0, 75, 77
2, 124991, Note_on_c, 0, 61, 0
2, 125029, Note_on_c, 0, 78, 0
2, 125145, Note_on_c, 0, 60, 0
2, 125164, Note_on_c, 0, 63, 57
2, 125349, Note_on_c, 0, 61, 59
2, 125350, Note_on_c, 0, 63, 0
2, 125371, Note_on_c, 0, 77, 69
2, 125398, Note_on_c, 0, 72, 0
2, 125408, Note_on_c, 0, 75, 0
2, 125546, Note_on_c, 0, 63, 53
2, 125571, Note_on_c, 0, 61, 0
2, 125726, Note_on_c, 0, 65, 60
2, 125729, Note_on_c, 0, 68, 62
2, 125748, Note_on_c, 0, 63, 0
2, 125890, Note_on_c, 0, 63, 63
2, 125912, Note_on_c, 0, 65, 0
2, 125933, Note_on_c, 0, 77, 0
2, 125942, Note_on_c, 0, 68, 0
2, 126084, Note_on_c, 0, 77, 80
2, 126089, Note_on_c, 0, 61, 64
2, 126097, Note_on_c, 0, 70, 71
2, 126179, Note_on_c, 0, 63, 0
2, 126254, Note_on_c, 0, 60, 68
2, 126278, Note_on_c, 0, 61, 0
2, 126447, Note_on_c, 0, 79, 84
2, 126450, Note_on_c, 0, 58, 61
2, 126456, Note_on_c, 0, 73, 67
2, 126459, Note_on_c, 0, 60, 0
2, 126535, Note_on_c, 0, 77, 0
2, 126544, Note_on_c, 0, 70, 0
2, 126621, Note_on_c, 0, 58, 0
2, 126625, Note_on_c, 0, 61, 62
2, 126817, Note_on_c, 0, 60, 64
2, 126817, Note_on_c, 0, 75, 82
2, 126832, Note_on_c, 0, 61, 0
2, 126899, Note_on_c, 0, 79, 0
2, 126985, Note_on_c, 0, 60, 0
2, 126989, Note_on_c, 0, 61, 64
2, 127150, Note_on_c, 0, 61, 0
2, 127153, Note_on_c, 0, 67, 71
2, 127159, Note_on_c, 0, 63, 56
2, 127312, Note_on_c, 0, 75, 0
2, 127330, Note_on_c, 0, 61, 60
2, 127358, Note_on_c, 0, 67, 0
2, 127417, Note_on_c, 0, 63, 0
2, 127508, Note_on_c, 0, 75, 76
2, 127510, Note_on_c, 0, 61, 0
2, 127516, Note_on_c, 0, 60, 60
2, 127517, Note_on_c, 0, 69, 57
2, 127538, Note_on_c, 0, 73, 0
2, 127693, Note_on_c, 0, 58, 58
2, 127728, Note_on_c, 0, 60, 0
2, 127871, Note_on_c, 0, 57, 53
2, 127874, Note_on_c, 0, 77, 75
2, 127887, Note_on_c, 0, 72, 56
2, 127892, Note_on_c, 0, 58, 0
2, 127945, Note_on_c, 0, 69, 0
2, 127972, Note_on_c, 0, 75, 0
2, 128050, Note_on_c, 0, 60, 60
2, 128051, Note_on_c, 0, 57, 0
2, 128237, Note_on_c, 0, 58, 59
2, 128251, Note_on_c, 0, 73, 68
2, 128263, Note_on_c, 0, 60, 0
2, 128447, Note_on_c, 0, 58, 0
2, 128450, Note_on_c, 0, 60, 56
2, 128546, Note_on_c, 0, 77, 0
2, 128604, Note_on_c, 0, 60, 0
2, 128609, Note_on_c, 0, 61, 65
2, 128618, Note_on_c, 0, 65, 56
2, 128750, Note_on_c, 0, 65, 0
2, 128757, Note_on_c, 0, 72, 0
2, 128774, Note_on_c, 0, 61, 0
2, 128778, Note_on_c, 0, 60, 72
2, 128814, Note_on_c, 0, 73, 0
2, 128959, Note_on_c, 0, 58, 68
2, 128970, Note_on_c, 0, 73, 82
2, 128975, Note_on_c, 0, 70, 64
2, 128987, Note_on_c, 0, 60, 0
2, 129140, Note_on_c, 0, 56, 67
2, 129187, Note_on_c, 0, 58, 0
2, 129323, Note_on_c, 0, 55, 64
2, 129327, Note_on_c, 0, 82, 85
2, 129350, Note_on_c, 0, 56, 0
2, 129413, Note_on_c, 0, 73, 0
2, 129507, Note_on_c, 0, 58, 64
2, 129516, Note_on_c, 0, 55, 0
2, 129685, Note_on_c, 0, 56, 65
2, 129688, Note_on_c, 0, 58, 0
2, 129691, Note_on_c, 0, 72, 79
2, 129741, Note_on_c, 0, 82, 0
2, 129854, Note_on_c, 0, 56, 0
2, 129860, Note_on_c, 0, 58, 66
2, 130043, Note_on_c, 0, 56, 68
2, 130044, Note_on_c, 0, 73, 85
2, 130055, Note_on_c, 0, 70, 0
2, 130074, Note_on_c, 0, 72, 0
2, 130092, Note_on_c, 0, 58, 0
2, 130213, Note_on_c, 0, 56, 0
2, 130213, Note_on_c, 0, 70, 79
2, 130216, Note_on_c, 0, 55, 73
2, 130312, Note_on_c, 0, 70, 0
2, 130393, Note_on_c, 0, 53, 74
2, 130402, Note_on_c, 0, 68, 71
2, 130403, Note_on_c, 0, 72, 79
2, 130413, Note_on_c, 0, 55, 0
2, 130535, Note_on_c, 0, 73, 0
2, 130571, Note_on_c, 0, 51, 76
2, 130586, Note_on_c, 0, 53, 0
2, 130761, Note_on_c, 0, 53, 74
2, 130770, Note_on_c, 0, 80, 78
2, 130782, Note_on_c, 0, 51, 0
2, 130841, Note_on_c, 0, 68, 0
2, 130847, Note_on_c, 0, 72, 0
2, 130935, Note_on_c, 0, 49, 77
2, 130945, Note_on_c, 0, 53, 0
2, 131126, Note_on_c, 0, 51, 79
2, 131133, Note_on_c, 0, 70, 68
2, 131138, Note_on_c, 0, 49, 0
2, 131253, Note_on_c, 0, 80, 0
2, 131302, Note_on_c, 0, 49, 73
2, 131312, Note_on_c, 0, 67, 65
2, 131350, Note_on_c, 0, 51, 0
2, 131491, Note_on_c, 0, 48, 74
2, 131502, Note_on_c, 0, 49, 0
2, 131505, Note_on_c, 0, 68, 66
2, 131505, Note_on_c, 0, 70, 0
2, 131530, Note_on_c, 0, 67, 0
2, 131661, Note_on_c, 0, 46, 78
2, 131669, Note_on_c, 0, 70, 68
2, 131689, Note_on_c, 0, 68, 0
2, 131693, Note_on_c, 0, 48, 0
2, 131829, Note_on_c, 0, 70, 0
2, 131851, Note_on_c, 0, 44, 82
2, 131857, Note_on_c, 0, 72, 61
2, 131911, Note_on_c, 0, 46, 0
2, 132037, Note_on_c, 0, 75, 66
2, 132241, Note_on_c, 0, 77, 67
2, 132249, Note_on_c, 0, 51, 82
2, 132382, Note_on_c, 0, 44, 0
2, 132386, Note_on_c, 0, 75, 0
2, 132413, Note_on_c, 0, 79, 71
2, 132422, Note_on_c, 0, 77, 0
2, 132609, Note_on_c, 0, 80, 62
2, 132612, Note_on_c, 0, 48, 73
2, 132650, Note_on_c, 0, 79, 0
2, 132712, Note_on_c, 0, 51, 0
2, 132799, Note_on_c, 0, 73, 60
2, 132835, Note_on_c, 0, 72, 0
2, 132987, Note_on_c, 0, 75, 63
2, 132988, Note_on_c, 0, 44, 72
2, 133002, Note_on_c, 0, 73, 0
2, 133039, Note_on_c, 0, 48, 0
2, 133045, Note_on_c, 0, 80, 0
2, 133045, Note_on_c, 0, 80, 4
2, 133164, Note_on_c, 0, 72, 64
2, 133164, Note_on_c, 0, 75, 0
2, 133350, Note_on_c, 0, 53, 72
2, 133370, Note_on_c, 0, 73, 61
2, 133415, Note_on_c, 0, 80, 0
2, 133445, Note_on_c, 0, 44, 0
2, 133518, Note_on_c, 0, 72, 0
2, 133525, Note_on_c, 0, 79, 67
2, 133712, Note_on_c, 0, 49, 69
2, 133714, Note_on_c, 0, 77, 64
2, 133738, Note_on_c, 0, 79, 0
2, 133785, Note_on_c, 0, 53, 0
2, 133894, Note_on_c, 0, 77, 0
2, 133897, Note_on_c, 0, 80, 66
2, 134040, Note_on_c, 0, 80, 0
2, 134086, Note_on_c, 0, 79, 59
2, 134092, Note_on_c, 0, 51, 73
2, 134175, Note_on_c, 0, 49, 0
2, 134247, Note_on_c, 0, 73, 0
2, 134259, Note_on_c, 0, 72, 61
2, 134449, Note_on_c, 0, 70, 70
2, 134503, Note_on_c, 0, 72, 0
2, 134614, Note_on_c, 0, 51, 0
2, 134622, Note_on_c, 0, 73, 71
2, 134789, Note_on_c, 0, 55, 72
2, 134791, Note_on_c, 0, 52, 61
2, 134791, Note_on_c, 0, 72, 72
2, 134797, Note_on_c, 0, 70, 0
2, 134847, Note_on_c, 0, 73, 0
2, 134966, Note_on_c, 0, 58, 49
2, 135011, Note_on_c, 0, 58, 0
2, 135146, Note_on_c, 0, 55, 0
2, 135155, Note_on_c, 0, 60, 82
2, 135161, Note_on_c, 0, 56, 67
2, 135316, Note_on_c, 0, 52, 0
2, 135327, Note_on_c, 0, 56, 0
2, 135336, Note_on_c, 0, 55, 57
2, 135535, Note_on_c, 0, 56, 76
2, 135542, Note_on_c, 0, 53, 48
2, 135602, Note_on_c, 0, 55, 0
2, 135628, Note_on_c, 0, 60, 0
2, 135664, Note_on_c, 0, 53, 0
2, 135719, Note_on_c, 0, 70, 65
2, 135769, Note_on_c, 0, 72, 0
2, 135898, Note_on_c, 0, 68, 64
2, 135903, Note_on_c, 0, 53, 70
2, 135941, Note_on_c, 0, 70, 0
2, 135981, Note_on_c, 0, 56, 0
2, 136064, Note_on_c, 0, 68, 0
2, 136077, Note_on_c, 0, 67, 65
2, 136094, Note_on_c, 0, 79, 0
2, 136274, Note_on_c, 0, 62, 72
2, 136289, Note_on_c, 0, 68, 58
2, 136332, Note_on_c, 0, 67, 0
2, 136455, Note_on_c, 0, 72, 61
2, 136466, Note_on_c, 0, 68, 0
2, 136632, Note_on_c, 0, 59, 72
2, 136633, Note_on_c, 0, 77, 56
2, 136664, Note_on_c, 0, 72, 0
2, 136674, Note_on_c, 0, 62, 0
2, 136692, Note_on_c, 0, 53, 0
2, 136809, Note_on_c, 0, 68, 52
2, 136984, Note_on_c, 0, 60, 66
2, 136990, Note_on_c, 0, 68, 0
2, 136995, Note_on_c, 0, 48, 54
2, 136997, Note_on_c, 0, 67, 61
2, 137016, Note_on_c, 0, 59, 0
2, 137158, Note_on_c, 0, 51, 62
2, 137166, Note_on_c, 0, 75, 65
2, 137246, Note_on_c, 0, 60, 0
2, 137260, Note_on_c, 0, 77, 0
2, 137331, Note_on_c, 0, 53, 61
2, 137343, Note_on_c, 0, 73, 71
2, 137394, Note_on_c, 0, 75, 0
2, 137467, Note_on_c, 0, 67, 0
2, 137513, Note_on_c, 0, 73, 0
2, 137518, Note_on_c, 0, 77, 72
2, 137524, Note_on_c, 0, 51, 0
2, 137525, Note_on_c, 0, 55, 59
2, 137530, Note_on_c, 0, 53, 0
2, 137722, Note_on_c, 0, 56, 61
2, 137723, Note_on_c, 0, 63, 71
2, 137723, Note_on_c, 0, 75, 74
2, 137732, Note_on_c, 0, 77, 0
2, 137769, Note_on_c, 0, 55, 0
2, 137898, Note_on_c, 0, 58, 59
2, 137912, Note_on_c, 0, 56, 0
2, 138069, Note_on_c, 0, 60, 58
2, 138071, Note_on_c, 0, 68, 78
2, 138085, Note_on_c, 0, 58, 0
2, 138169, Note_on_c, 0, 63, 0
2, 138233, Note_on_c, 0, 58, 51
2, 138262, Note_on_c, 0, 48, 0
2, 138280, Note_on_c, 0, 60, 0
2, 138447, Note_on_c, 0, 65, 69
2, 138453, Note_on_c, 0, 56, 54
2, 138459, Note_on_c, 0, 49, 44
2, 138542, Note_on_c, 0, 58, 0
2, 138588, Note_on_c, 0, 68, 0
2, 138597, Note_on_c, 0, 56, 0
2, 138636, Note_on_c, 0, 55, 57
2, 138790, Note_on_c, 0, 55, 0
2, 138810, Note_on_c, 0, 53, 52
2, 138812, Note_on_c, 0, 61, 78
2, 138917, Note_on_c, 0, 65, 0
2, 138946, Note_on_c, 0, 75, 0
2, 138952, Note_on_c, 0, 53, 0
2, 138985, Note_on_c, 0, 55, 52
2, 139158, Note_on_c, 0, 55, 0
2, 139171, Note_on_c, 0, 70, 74
2, 139172, Note_on_c, 0, 56, 55
2, 139173, Note_on_c, 0, 73, 77
2, 139329, Note_on_c, 0, 56, 0
2, 139350, Note_on_c, 0, 55, 58
2, 139515, Note_on_c, 0, 55, 0
2, 139527, Note_on_c, 0, 53, 58
2, 139530, Note_on_c, 0, 67, 78
2, 139573, Note_on_c, 0, 61, 0
2, 139606, Note_on_c, 0, 70, 0
2, 139672, Note_on_c, 0, 49, 0
2, 139700, Note_on_c, 0, 51, 60
2, 139731, Note_on_c, 0, 53, 0
2, 139887, Note_on_c, 0, 51, 0
2, 139889, Note_on_c, 0, 68, 73
2, 139893, Note_on_c, 0, 53, 57
2, 139899, Note_on_c, 0, 67, 0
2, 139903, Note_on_c, 0, 44, 54
2, 140075, Note_on_c, 0, 72, 66
2, 140082, Note_on_c, 0, 51, 56
2, 140092, Note_on_c, 0, 53, 0
2, 140112, Note_on_c, 0, 73, 0
2, 140238, Note_on_c, 0, 51, 0
2, 140249, Note_on_c, 0, 70, 79
2, 140250, Note_on_c, 0, 49, 53
2, 140274, Note_on_c, 0, 72, 0
2, 140423, Note_on_c, 0, 53, 60
2, 140425, Note_on_c, 0, 49, 0
2, 140425, Note_on_c, 0, 73, 85
2, 140452, Note_on_c, 0, 70, 0
2, 140598, Note_on_c, 0, 44, 0
2, 140607, Note_on_c, 0, 51, 61
2, 140614, Note_on_c, 0, 72, 76
2, 140666, Note_on_c, 0, 73, 0
2, 140688, Note_on_c, 0, 68, 0
2, 140704, Note_on_c, 0, 53, 0
2, 140795, Note_on_c, 0, 41, 67
2, 140829, Note_on_c, 0, 51, 0
2, 140977, Note_on_c, 0, 43, 64
2, 140978, Note_on_c, 0, 77, 83
2, 140990, Note_on_c, 0, 41, 0
2, 141054, Note_on_c, 0, 72, 0
2, 141148, Note_on_c, 0, 44, 66
2, 141154, Note_on_c, 0, 43, 0
2, 141336, Note_on_c, 0, 46, 62
2, 141336, Note_on_c, 0, 73, 84
2, 141359, Note_on_c, 0, 44, 0
2, 141459, Note_on_c, 0, 77, 0
2, 141483, Note_on_c, 0, 46, 0
2, 141504, Note_on_c, 0, 48, 64
2, 141683, Note_on_c, 0, 49, 62
2, 141685, Note_on_c, 0, 70, 76
2, 141688, Note_on_c, 0, 48, 0
2, 141749, Note_on_c, 0, 73, 0
2, 141859, Note_on_c, 0, 49, 0
2, 141870, Note_on_c, 0, 51, 59
2, 142054, Note_on_c, 0, 49, 57
2, 142055, Note_on_c, 0, 78, 78
2, 142131, Note_on_c, 0, 51, 0
2, 142216, Note_on_c, 0, 49, 0
2, 142236, Note_on_c, 0, 48, 61
2, 142425, Note_on_c, 0, 75, 73
2, 142438, Note_on_c, 0, 72, 53
2, 142440, Note_on_c, 0, 46, 55
2, 142458, Note_on_c, 0, 78, 0
2, 142470, Note_on_c, 0, 48, 0
2, 142507, Note_on_c, 0, 70, 0
2, 142586, Note_on_c, 0, 46, 0
2, 142596, Note_on_c, 0, 44, 56
2, 142757, Note_on_c, 0, 44, 0
2, 142784, Note_on_c, 0, 77, 70
2, 142785, Note_on_c, 0, 49, 51
2, 142798, Note_on_c, 0, 68, 37
2, 142846, Note_on_c, 0, 75, 0
2, 142871, Note_on_c, 0, 72, 0
2, 142954, Note_on_c, 0, 49, 0
2, 142976, Note_on_c, 0, 48, 32
2, 143143, Note_on_c, 0, 73, 52
2, 143146, Note_on_c, 0, 49, 51
2, 143165, Note_on_c, 0, 48, 0
2, 143325, Note_on_c, 0, 49, 0
2, 143327, Note_on_c, 0, 53, 54
2, 143508, Note_on_c, 0, 80, 82
2, 143520, Note_on_c, 0, 51, 63
2, 143556, Note_on_c, 0, 53, 0
2, 143608, Note_on_c, 0, 73, 0
2, 143608, Note_on_c, 0, 77, 0
2, 143682, Note_on_c, 0, 50, 73
2, 143747, Note_on_c, 0, 51, 0
2, 143876, Note_on_c, 0, 48, 73
2, 143886, Note_on_c, 0, 77, 83
2, 143893, Note_on_c, 0, 74, 73
2, 143916, Note_on_c, 0, 50, 0
2, 143943, Note_on_c, 0, 80, 0
2, 143993, Note_on_c, 0, 68, 0
2, 144059, Note_on_c, 0, 46, 72
2, 144070, Note_on_c, 0, 48, 0
2, 144240, Note_on_c, 0, 79, 85
2, 144244, Note_on_c, 0, 51, 73
2, 144246, Note_on_c, 0, 70, 64
2, 144331, Note_on_c, 0, 74, 0
2, 144402, Note_on_c, 0, 50, 75
2, 144412, Note_on_c, 0, 51, 0
2, 144453, Note_on_c, 0, 46, 0
2, 144531, Note_on_c, 0, 77, 0
2, 144588, Note_on_c, 0, 51, 79
2, 144592, Note_on_c, 0, 75, 83
2, 144623, Note_on_c, 0, 79, 0
2, 144630, Note_on_c, 0, 50, 0
2, 144757, Note_on_c, 0, 55, 74
2, 144791, Note_on_c, 0, 51, 0
2, 144937, Note_on_c, 0, 82, 86
2, 144950, Note_on_c, 0, 53, 75
2, 144986, Note_on_c, 0, 55, 0
2, 145039, Note_on_c, 0, 75, 0
2, 145116, Note_on_c, 0, 52, 76
2, 145151, Note_on_c, 0, 53, 0
2, 145300, Note_on_c, 0, 79, 80
2, 145308, Note_on_c, 0, 50, 78
2, 145308, Note_on_c, 0, 76, 61
2, 145339, Note_on_c, 0, 52, 0
2, 145354, Note_on_c, 0, 82, 0
2, 145431, Note_on_c, 0, 70, 0
2, 145477, Note_on_c, 0, 48, 76
2, 145509, Note_on_c, 0, 50, 0
2, 145619, Note_on_c, 0, 79, 0
2, 145671, Note_on_c, 0, 53, 75
2, 145672, Note_on_c, 0, 80, 82
2, 145682, Note_on_c, 0, 72, 54
2, 145691, Note_on_c, 0, 77, 41
2, 145745, Note_on_c, 0, 77, 0
2, 145755, Note_on_c, 0, 76, 0
2, 145828, Note_on_c, 0, 48, 0
2, 145843, Note_on_c, 0, 53, 0
2, 145843, Note_on_c, 0, 55, 75
2, 146039, Note_on_c, 0, 77, 83
2, 146041, Note_on_c, 0, 56, 72
2, 146073, Note_on_c, 0, 80, 0
2, 146089, Note_on_c, 0, 55, 0
2, 146198, Note_on_c, 0, 53, 72
2, 146218, Note_on_c, 0, 56, 0
2, 146390, Note_on_c, 0, 73, 84
2, 146396, Note_on_c, 0, 58, 74
2, 146515, Note_on_c, 0, 77, 0
2, 146530, Note_on_c, 0, 72, 0
2, 146554, Note_on_c, 0, 56, 70
2, 146573, Note_on_c, 0, 53, 0
2, 146595, Note_on_c, 0, 58, 0
2, 146738, Note_on_c, 0, 70, 72
2, 146741, Note_on_c, 0, 55, 70
2, 146750, Note_on_c, 0, 56, 0
2, 146918, Note_on_c, 0, 53, 72
2, 146941, Note_on_c, 0, 55, 0
2, 147091, Note_on_c, 0, 51, 74
2, 147106, Note_on_c, 0, 67, 76
2, 147150, Note_on_c, 0, 53, 0
2, 147263, Note_on_c, 0, 49, 71
2, 147311, Note_on_c, 0, 70, 0
2, 147325, Note_on_c, 0, 67, 0
2, 147332, Note_on_c, 0, 51, 0
2, 147442, Note_on_c, 0, 75, 83
2, 147445, Note_on_c, 0, 48, 73
2, 147455, Note_on_c, 0, 49, 0
2, 147456, Note_on_c, 0, 67, 66
2, 147458, Note_on_c, 0, 70, 62
2, 147510, Note_on_c, 0, 73, 0
2, 147526, Note_on_c, 0, 70, 0
2, 147630, Note_on_c, 0, 46, 76
2, 147667, Note_on_c, 0, 48, 0
2, 147797, Note_on_c, 0, 44, 79
2, 147802, Note_on_c, 0, 72, 79
2, 147816, Note_on_c, 0, 68, 60
2, 147836, Note_on_c, 0, 46, 0
2, 147958, Note_on_c, 0, 75, 0
2, 147969, Note_on_c, 0, 67, 0
2, 147973, Note_on_c, 0, 46, 81
2, 147980, Note_on_c, 0, 68, 0
2, 148069, Note_on_c, 0, 44, 0
2, 148146, Note_on_c, 0, 48, 78
2, 148150, Note_on_c, 0, 77, 85
2, 148162, Note_on_c, 0, 65, 59
2, 148164, Note_on_c, 0, 68, 62
2, 148171, Note_on_c, 0, 46, 0
2, 148276, Note_on_c, 0, 72, 0
2, 148286, Note_on_c, 0, 68, 0
2, 148296, Note_on_c, 0, 65, 0
2, 148329, Note_on_c, 0, 49, 80
2, 148353, Note_on_c, 0, 48, 0
2, 148521, Note_on_c, 0, 51, 82
2, 148521, Note_on_c, 0, 72, 76
2, 148531, Note_on_c, 0, 63, 66
2, 148534, Note_on_c, 0, 68, 72
2, 148536, Note_on_c, 0, 49, 0
2, 148574, Note_on_c, 0, 77, 0
2, 148706, Note_on_c, 0, 49, 81
2, 148849, Note_on_c, 0, 51, 0
2, 148874, Note_on_c, 0, 48, 80
2, 148905, Note_on_c, 0, 49, 0
2, 148925, Note_on_c, 0, 63, 0
2, 149060, Note_on_c, 0, 49, 80
2, 149087, Note_on_c, 0, 48, 0
2, 149278, Note_on_c, 0, 70, 80
2, 149279, Note_on_c, 0, 51, 76
2, 149290, Note_on_c, 0, 61, 57
2, 149302, Note_on_c, 0, 72, 0
2, 149329, Note_on_c, 0, 49, 0
2, 149421, Note_on_c, 0, 68, 0
2, 149678, Note_on_c, 0, 39, 71
2, 149680, Note_on_c, 0, 67, 67
2, 149791, Note_on_c, 0, 51, 0
2, 150120, Note_on_c, 0, 61, 0
2, 150181, Note_on_c, 0, 60, 50
2, 150187, Note_on_c, 0, 41, 56
2, 150192, Note_on_c, 0, 65, 66
2, 150278, Note_on_c, 0, 39, 0
2, 150320, Note_on_c, 0, 67, 0
2, 150635, Note_on_c, 0, 68, 59
2, 150642, Note_on_c, 0, 65, 0
2, 150832, Note_on_c, 0, 67, 80
2, 150846, Note_on_c, 0, 70, 0
2, 150864, Note_on_c, 0, 68, 0
2, 151038, Note_on_c, 0, 68, 81
2, 151115, Note_on_c, 0, 60, 0
2, 151122, Note_on_c, 0, 67, 0
2, 151212, Note_on_c, 0, 39, 56
2, 151229, Note_on_c, 0, 41, 0
2, 151411, Note_on_c, 0, 75, 81
2, 151420, Note_on_c, 0, 70, 66
2, 151421, Note_on_c, 0, 41, 59
2, 151433, Note_on_c, 0, 63, 41
2, 151514, Note_on_c, 0, 68, 0
2, 151540, Note_on_c, 0, 39, 0
2, 151548, Note_on_c, 0, 63, 0
2, 151549, Note_on_c, 0, 70, 0
2, 151573, Note_on_c, 0, 41, 0
2, 151606, Note_on_c, 0, 43, 64
2, 151794, Note_on_c, 0, 72, 80
2, 151801, Note_on_c, 0, 44, 65
2, 151830, Note_on_c, 0, 43, 0
2, 151941, Note_on_c, 0, 75, 0
2, 151986, Note_on_c, 0, 46, 67
2, 152027, Note_on_c, 0, 44, 0
2, 152167, Note_on_c, 0, 46, 0
2, 152181, Note_on_c, 0, 48, 69
2, 152181, Note_on_c, 0, 68, 84
2, 152279, Note_on_c, 0, 72, 0
2, 152353, Note_on_c, 0, 51, 69
2, 152387, Note_on_c, 0, 48, 0
2, 152549, Note_on_c, 0, 49, 59
2, 152553, Note_on_c, 0, 77, 88
2, 152707, Note_on_c, 0, 51, 0
2, 152712, Note_on_c, 0, 68, 0
2, 152718, Note_on_c, 0, 48, 66
2, 152723, Note_on_c, 0, 49, 0
2, 152926, Note_on_c, 0, 73, 85
2, 152941, Note_on_c, 0, 70, 65
2, 152942, Note_on_c, 0, 46, 67
2, 152948, Note_on_c, 0, 65, 53
2, 152965, Note_on_c, 0, 48, 0
2, 153024, Note_on_c, 0, 77, 0
2, 153068, Note_on_c, 0, 65, 0
2, 153101, Note_on_c, 0, 70, 0
2, 153110, Note_on_c, 0, 44, 65
2, 153271, Note_on_c, 0, 46, 0
2, 153292, Note_on_c, 0, 75, 83
2, 153299, Note_on_c, 0, 70, 66
2, 153303, Note_on_c, 0, 43, 65
2, 153308, Note_on_c, 0, 63, 49
2, 153310, Note_on_c, 0, 44, 0
2, 153426, Note_on_c, 0, 70, 0
2, 153442, Note_on_c, 0, 73, 0
2, 153488, Note_on_c, 0, 41, 65
2, 153499, Note_on_c, 0, 43, 0
2, 153679, Note_on_c, 0, 67, 77
2, 153685, Note_on_c, 0, 39, 63
2, 153711, Note_on_c, 0, 41, 0
2, 153749, Note_on_c, 0, 63, 0
2, 153865, Note_on_c, 0, 37, 62
2, 153885, Note_on_c, 0, 39, 0
2, 154068, Note_on_c, 0, 36, 63
2, 154071, Note_on_c, 0, 68, 77
2, 154078, Note_on_c, 0, 37, 0
2, 154104, Note_on_c, 0, 75, 0
2, 154133, Note_on_c, 0, 67, 0
2, 154266, Note_on_c, 0, 39, 61
2, 154294, Note_on_c, 0, 36, 0
2, 154465, Note_on_c, 0, 65, 66
2, 154471, Note_on_c, 0, 37, 65
2, 154473, Note_on_c, 0, 58, 61
2, 154482, Note_on_c, 0, 39, 0
2, 154646, Note_on_c, 0, 58, 0
2, 154670, Note_on_c, 0, 41, 66
2, 154919, Note_on_c, 0, 39, 63
2, 154921, Note_on_c, 0, 58, 76
2, 154930, Note_on_c, 0, 37, 0
2, 154942, Note_on_c, 0, 65, 0
2, 154945, Note_on_c, 0, 41, 0
2, 155189, Note_on_c, 0, 60, 68
2, 155440, Note_on_c, 0, 61, 66
2, 155463, Note_on_c, 0, 60, 0
2, 155688, Note_on_c, 0, 65, 63
2, 155693, Note_on_c, 0, 61, 0
2, 155767, Note_on_c, 0, 68, 0
2, 155947, Note_on_c, 0, 67, 71
2, 155949, Note_on_c, 0, 51, 57
2, 155949, Note_on_c, 0, 63, 58
2, 155980, Note_on_c, 0, 65, 0
2, 156245, Note_on_c, 0, 61, 62
2, 156277, Note_on_c, 0, 58, 0
2, 156570, Note_on_c, 0, 60, 60
2, 156594, Note_on_c, 0, 61, 0
2, 156933, Note_on_c, 0, 61, 59
2, 156957, Note_on_c, 0, 51, 0
2, 157001, Note_on_c, 0, 60, 0
2, 157001, Note_on_c, 0, 63, 0
2, 157014, Note_on_c, 0, 67, 0
2, 157438, Note_on_c, 0, 68, 60
2, 157447, Note_on_c, 0, 44, 54
2, 157447, Note_on_c, 0, 60, 55
2, 157454, Note_on_c, 0, 51, 49
2, 157478, Note_on_c, 0, 61, 0
2, 157496, Note_on_c, 0, 39, 0
2, 159843, Note_on_c, 0, 60, 0
2, 159851, Note_on_c, 0, 44, 0
2, 159880, Note_on_c, 0, 51, 0
2, 159880, Note_on_c, 0, 68, 0
2, 159881, End_track
0, 0, End_of_file
