0, 0, Header, 1, 2, 384
1, 0, Start_track
1, 0, Tempo, 500000
1, 0, Time_signature, 4, 2, 24, 8
1, 1, End_track
2,0,Start_track
2,0, Note_on_c, 0, 59, 49
2,382, Note_on_c, 0, 58, 63
2,406, Note_on_c, 0, 59, 0
2,744, Note_on_c, 0, 59, 71
2,746, Note_on_c, 0, 58, 0
2,1149, Note_on_c, 0, 61, 70
2,1162, Note_on_c, 0, 59, 0
2,1880, Note_on_c, 0, 54, 37
2,1987, Note_on_c, 0, 61, 0
2,2229, Note_on_c, 0, 54, 0
2,2234, Note_on_c, 0, 56, 55
2,2405, Note_on_c, 0, 58, 67
2,2417, Note_on_c, 0, 56, 0
2,2611, Note_on_c, 0, 59, 71
2,2629, Note_on_c, 0, 58, 0
2,2965, Note_on_c, 0, 61, 72
2,2977, Note_on_c, 0, 59, 0
2,3131, Note_on_c, 0, 63, 78
2,3147, Note_on_c, 0, 61, 0
2,3348, Note_on_c, 0, 64, 75
2,3372, Note_on_c, 0, 63, 0
2,3711, Note_on_c, 0, 63, 71
2,3748, Note_on_c, 0, 64, 0
2,4060, Note_on_c, 0, 61, 64
2,4064, Note_on_c, 0, 63, 0
2,4234, Note_on_c, 0, 61, 0
2,4245, Note_on_c, 0, 63, 62
2,4310, Note_on_c, 0, 63, 0
2,4332, Note_on_c, 0, 61, 66
2,4396, Note_on_c, 0, 61, 0
2,4410, Note_on_c, 0, 63, 58
2,4471, Note_on_c, 0, 63, 0
2,4487, Note_on_c, 0, 61, 60
2,4548, Note_on_c, 0, 61, 0
2,4573, Note_on_c, 0, 63, 61
2,4627, Note_on_c, 0, 63, 0
2,4649, Note_on_c, 0, 61, 61
2,4711, Note_on_c, 0, 61, 0
2,4732, Note_on_c, 0, 63, 59
2,4789, Note_on_c, 0, 63, 0
2,4814, Note_on_c, 0, 61, 57
2,4869, Note_on_c, 0, 61, 0
2,4902, Note_on_c, 0, 63, 58
2,4971, Note_on_c, 0, 63, 0
2,4978, Note_on_c, 0, 61, 63
2,5060, Note_on_c, 0, 61, 0
2,5077, Note_on_c, 0, 63, 59
2,5154, Note_on_c, 0, 63, 0
2,5171, Note_on_c, 0, 61, 58
2,5249, Note_on_c, 0, 61, 0
2,5266, Note_on_c, 0, 63, 55
2,5322, Note_on_c, 0, 63, 0
2,5347, Note_on_c, 0, 61, 54
2,5469, Note_on_c, 0, 61, 0
2,5493, Note_on_c, 0, 59, 49
2,5866, Note_on_c, 0, 66, 48
2,6217, Note_on_c, 0, 63, 69
2,6258, Note_on_c, 0, 66, 0
2,6587, Note_on_c, 0, 64, 80
2,6600, Note_on_c, 0, 61, 48
2,6603, Note_on_c, 0, 59, 0
2,6622, Note_on_c, 0, 63, 0
2,6742, Note_on_c, 0, 61, 0
2,6754, Note_on_c, 0, 59, 52
2,6946, Note_on_c, 0, 66, 82
2,6964, Note_on_c, 0, 58, 42
2,6967, Note_on_c, 0, 64, 0
2,7021, Note_on_c, 0, 59, 0
2,7116, Note_on_c, 0, 58, 0
2,7126, Note_on_c, 0, 56, 52
2,7306, Note_on_c, 0, 54, 50
2,7323, Note_on_c, 0, 56, 0
2,7433, Note_on_c, 0, 54, 0
2,7462, Note_on_c, 0, 52, 47
2,7639, Note_on_c, 0, 52, 0
2,7667, Note_on_c, 0, 51, 40
2,7673, Note_on_c, 0, 59, 44
2,7770, Note_on_c, 0, 66, 0
2,7822, Control_c, 0, 64, 47
2,7838, Control_c, 0, 64, 62
2,7853, Control_c, 0, 64, 65
2,7869, Control_c, 0, 64, 68
2,7884, Control_c, 0, 64, 70
2,7899, Control_c, 0, 64, 73
2,7915, Control_c, 0, 64, 74
2,7945, Control_c, 0, 64, 74
2,7967, Control_c, 0, 64, 72
2,7977, Note_on_c, 0, 59, 0
2,7982, Control_c, 0, 64, 69
2,7998, Control_c, 0, 64, 66
2,8013, Control_c, 0, 64, 63
2,8015, Note_on_c, 0, 63, 66
2,8029, Control_c, 0, 64, 60
2,8037, Note_on_c, 0, 59, 41
2,8043, Control_c, 0, 64, 57
2,8065, Note_on_c, 0, 51, 0
2,8074, Control_c, 0, 64, 58
2,8089, Control_c, 0, 64, 61
2,8104, Control_c, 0, 64, 63
2,8119, Control_c, 0, 64, 64
2,8134, Control_c, 0, 64, 66
2,8150, Control_c, 0, 64, 66
2,8165, Control_c, 0, 64, 67
2,8184, Note_on_c, 0, 63, 0
2,8194, Note_on_c, 0, 65, 71
2,8210, Control_c, 0, 64, 67
2,8226, Control_c, 0, 64, 66
2,8241, Control_c, 0, 64, 66
2,8286, Control_c, 0, 64, 65
2,8317, Control_c, 0, 64, 65
2,8332, Control_c, 0, 64, 64
2,8348, Control_c, 0, 64, 61
2,8362, Control_c, 0, 64, 50
2,8377, Control_c, 0, 64, 0
2,8382, Note_on_c, 0, 66, 82
2,8401, Note_on_c, 0, 58, 47
2,8411, Note_on_c, 0, 65, 0
2,8461, Note_on_c, 0, 59, 0
2,8707, Note_on_c, 0, 58, 0
2,8728, Note_on_c, 0, 59, 47
2,8728, Note_on_c, 0, 68, 85
2,8765, Note_on_c, 0, 66, 0
2,8890, Note_on_c, 0, 59, 0
2,8893, Note_on_c, 0, 70, 80
2,8896, Note_on_c, 0, 61, 61
2,9020, Note_on_c, 0, 68, 0
2,9061, Note_on_c, 0, 71, 82
2,9078, Note_on_c, 0, 61, 0
2,9081, Note_on_c, 0, 63, 59
2,9102, Note_on_c, 0, 70, 0
2,9205, Note_on_c, 0, 63, 0
2,9228, Note_on_c, 0, 65, 61
2,9406, Note_on_c, 0, 70, 77
2,9417, Note_on_c, 0, 71, 0
2,9420, Note_on_c, 0, 66, 50
2,9425, Note_on_c, 0, 65, 0
2,9748, Note_on_c, 0, 70, 0
2,9764, Note_on_c, 0, 68, 55
2,9905, Note_on_c, 0, 68, 0
2,9929, Note_on_c, 0, 70, 55
2,9980, Note_on_c, 0, 70, 0
2,10010, Note_on_c, 0, 68, 66
2,10046, Note_on_c, 0, 66, 0
2,10070, Note_on_c, 0, 68, 0
2,10074, Note_on_c, 0, 64, 47
2,10085, Note_on_c, 0, 70, 63
2,10125, Control_c, 0, 67, 20
2,10140, Control_c, 0, 67, 48
2,10154, Note_on_c, 0, 70, 0
2,10156, Control_c, 0, 67, 89
2,10171, Control_c, 0, 67, 124
2,10171, Note_on_c, 0, 68, 64
2,10186, Control_c, 0, 67, 127
2,10211, Note_on_c, 0, 68, 0
2,10253, Note_on_c, 0, 63, 57
2,10255, Note_on_c, 0, 70, 56
2,10256, Note_on_c, 0, 64, 0
2,10297, Note_on_c, 0, 70, 0
2,10323, Note_on_c, 0, 68, 59
2,10372, Note_on_c, 0, 68, 0
2,10394, Note_on_c, 0, 63, 0
2,10403, Note_on_c, 0, 70, 59
2,10417, Note_on_c, 0, 64, 50
2,10454, Note_on_c, 0, 70, 0
2,10479, Note_on_c, 0, 68, 61
2,10549, Note_on_c, 0, 68, 0
2,10563, Note_on_c, 0, 70, 61
2,10577, Note_on_c, 0, 59, 61
2,10585, Note_on_c, 0, 64, 0
2,10632, Note_on_c, 0, 70, 0
2,10657, Note_on_c, 0, 68, 58
2,10696, Note_on_c, 0, 68, 0
2,10735, Note_on_c, 0, 70, 57
2,10736, Note_on_c, 0, 59, 0
2,10755, Note_on_c, 0, 64, 59
2,10780, Note_on_c, 0, 70, 0
2,10804, Note_on_c, 0, 68, 61
2,10878, Note_on_c, 0, 68, 0
2,10883, Note_on_c, 0, 70, 64
2,10969, Note_on_c, 0, 70, 0
2,10978, Note_on_c, 0, 68, 60
2,11036, Note_on_c, 0, 68, 0
2,11094, Note_on_c, 0, 66, 59
2,11455, Note_on_c, 0, 71, 64
2,11467, Note_on_c, 0, 63, 40
2,11531, Note_on_c, 0, 64, 0
2,11534, Note_on_c, 0, 66, 0
2,11819, Note_on_c, 0, 70, 79
2,11822, Note_on_c, 0, 63, 0
2,11836, Note_on_c, 0, 61, 45
2,11838, Note_on_c, 0, 71, 0
2,11852, Control_c, 0, 67, 122
2,11868, Control_c, 0, 67, 114
2,11883, Control_c, 0, 64, 50
2,11883, Control_c, 0, 67, 105
2,11897, Control_c, 0, 64, 63
2,11897, Control_c, 0, 67, 92
2,11913, Control_c, 0, 64, 66
2,11913, Control_c, 0, 67, 75
2,11928, Control_c, 0, 64, 70
2,11928, Control_c, 0, 67, 56
2,11942, Control_c, 0, 64, 78
2,11942, Control_c, 0, 67, 37
2,11958, Control_c, 0, 64, 94
2,11958, Control_c, 0, 67, 19
2,11973, Control_c, 0, 64, 127
2,11973, Control_c, 0, 67, 0
2,12155, Control_c, 0, 64, 103
2,12164, Note_on_c, 0, 61, 0
2,12170, Control_c, 0, 64, 79
2,12172, Note_on_c, 0, 59, 54
2,12173, Note_on_c, 0, 71, 77
2,12186, Control_c, 0, 64, 66
2,12198, Note_on_c, 0, 68, 54
2,12201, Control_c, 0, 64, 36
2,12216, Control_c, 0, 64, 0
2,12308, Control_c, 0, 64, 28
2,12323, Control_c, 0, 64, 53
2,12338, Control_c, 0, 64, 60
2,12345, Note_on_c, 0, 66, 63
2,12349, Note_on_c, 0, 68, 0
2,12354, Control_c, 0, 64, 63
2,12369, Control_c, 0, 64, 64
2,12385, Control_c, 0, 64, 65
2,12415, Control_c, 0, 64, 64
2,12430, Control_c, 0, 64, 63
2,12445, Control_c, 0, 64, 61
2,12460, Control_c, 0, 64, 48
2,12475, Control_c, 0, 64, 0
2,12495, Note_on_c, 0, 66, 0
2,12519, Note_on_c, 0, 64, 52
2,12522, Note_on_c, 0, 73, 84
2,12559, Note_on_c, 0, 70, 0
2,12566, Note_on_c, 0, 71, 0
2,12574, Control_c, 0, 64, 53
2,12589, Control_c, 0, 64, 63
2,12604, Control_c, 0, 64, 67
2,12619, Control_c, 0, 64, 73
2,12635, Control_c, 0, 64, 86
2,12650, Control_c, 0, 64, 116
2,12666, Control_c, 0, 64, 127
2,12683, Note_on_c, 0, 64, 0
2,12684, Note_on_c, 0, 63, 63
2,12691, Note_on_c, 0, 59, 0
2,12715, Note_on_c, 0, 63, 0
2,12834, Control_c, 0, 64, 100
2,12849, Control_c, 0, 64, 85
2,12858, Note_on_c, 0, 61, 67
2,12865, Control_c, 0, 64, 74
2,12879, Control_c, 0, 64, 66
2,12881, Note_on_c, 0, 58, 49
2,12894, Control_c, 0, 64, 58
2,12910, Control_c, 0, 64, 0
2,13018, Note_on_c, 0, 59, 53
2,13041, Note_on_c, 0, 56, 53
2,13070, Note_on_c, 0, 58, 0
2,13089, Note_on_c, 0, 61, 0
2,13193, Note_on_c, 0, 59, 0
2,13226, Note_on_c, 0, 66, 72
2,13242, Note_on_c, 0, 58, 48
2,13268, Note_on_c, 0, 56, 0
2,13388, Control_c, 0, 64, 56
2,13402, Control_c, 0, 64, 63
2,13417, Control_c, 0, 64, 66
2,13433, Control_c, 0, 64, 70
2,13448, Control_c, 0, 64, 77
2,13453, Note_on_c, 0, 73, 0
2,13464, Control_c, 0, 64, 89
2,13480, Control_c, 0, 64, 113
2,13484, Note_on_c, 0, 66, 0
2,13495, Control_c, 0, 64, 127
2,13556, Control_c, 0, 64, 105
2,13570, Control_c, 0, 64, 85
2,13580, Note_on_c, 0, 68, 81
2,13586, Control_c, 0, 64, 71
2,13589, Note_on_c, 0, 63, 47
2,13597, Note_on_c, 0, 66, 51
2,13601, Control_c, 0, 64, 64
2,13613, Note_on_c, 0, 58, 0
2,13616, Control_c, 0, 64, 44
2,13632, Control_c, 0, 64, 0
2,13693, Control_c, 0, 64, 39
2,13708, Control_c, 0, 64, 58
2,13717, Note_on_c, 0, 63, 0
2,13723, Control_c, 0, 64, 62
2,13738, Control_c, 0, 64, 64
2,13747, Note_on_c, 0, 70, 85
2,13754, Control_c, 0, 64, 64
2,13768, Control_c, 0, 64, 66
2,13783, Control_c, 0, 64, 67
2,13794, Note_on_c, 0, 68, 0
2,13799, Control_c, 0, 64, 67
2,13814, Control_c, 0, 64, 68
2,13830, Control_c, 0, 64, 68
2,13890, Control_c, 0, 64, 67
2,13906, Control_c, 0, 64, 66
2,13920, Control_c, 0, 64, 64
2,13935, Control_c, 0, 64, 61
2,13938, Note_on_c, 0, 66, 0
2,13940, Note_on_c, 0, 70, 0
2,13945, Note_on_c, 0, 71, 84
2,13951, Control_c, 0, 64, 50
2,13955, Note_on_c, 0, 63, 49
2,13958, Note_on_c, 0, 56, 53
2,13965, Control_c, 0, 64, 22
2,13980, Control_c, 0, 64, 0
2,14288, Note_on_c, 0, 64, 56
2,14289, Note_on_c, 0, 73, 83
2,14313, Note_on_c, 0, 63, 0
2,14342, Note_on_c, 0, 71, 0
2,14457, Note_on_c, 0, 75, 85
2,14467, Note_on_c, 0, 66, 55
2,14542, Note_on_c, 0, 73, 0
2,14640, Note_on_c, 0, 76, 82
2,14649, Note_on_c, 0, 64, 0
2,14652, Note_on_c, 0, 68, 67
2,14681, Note_on_c, 0, 75, 0
2,14720, Note_on_c, 0, 56, 0
2,14763, Note_on_c, 0, 66, 0
2,14794, Note_on_c, 0, 70, 71
2,14805, Note_on_c, 0, 68, 0
2,14959, Note_on_c, 0, 75, 83
2,14964, Note_on_c, 0, 76, 0
2,14968, Note_on_c, 0, 71, 61
2,14974, Note_on_c, 0, 68, 50
2,14974, Note_on_c, 0, 70, 0
2,15111, Note_on_c, 0, 68, 0
2,15133, Note_on_c, 0, 66, 56
2,15278, Note_on_c, 0, 66, 0
2,15327, Note_on_c, 0, 73, 78
2,15330, Note_on_c, 0, 64, 53
2,15423, Note_on_c, 0, 71, 0
2,15688, Note_on_c, 0, 75, 0
2,15692, Note_on_c, 0, 70, 49
2,15697, Note_on_c, 0, 61, 40
2,15732, Note_on_c, 0, 64, 0
2,15856, Note_on_c, 0, 68, 53
2,15857, Note_on_c, 0, 70, 0
2,16035, Note_on_c, 0, 70, 64
2,16069, Note_on_c, 0, 61, 0
2,16083, Note_on_c, 0, 68, 0
2,16181, Note_on_c, 0, 70, 0
2,16188, Note_on_c, 0, 71, 60
2,16380, Note_on_c, 0, 70, 57
2,16386, Note_on_c, 0, 66, 45
2,16387, Note_on_c, 0, 71, 0
2,16516, Note_on_c, 0, 66, 0
2,16521, Control_c, 0, 64, 26
2,16536, Control_c, 0, 64, 44
2,16546, Note_on_c, 0, 68, 56
2,16549, Note_on_c, 0, 70, 0
2,16552, Control_c, 0, 64, 56
2,16552, Note_on_c, 0, 64, 40
2,16567, Control_c, 0, 64, 61
2,16581, Control_c, 0, 64, 63
2,16592, Note_on_c, 0, 64, 0
2,16597, Control_c, 0, 64, 65
2,16612, Control_c, 0, 64, 66
2,16628, Control_c, 0, 64, 68
2,16642, Control_c, 0, 64, 68
2,16673, Control_c, 0, 64, 68
2,16688, Control_c, 0, 64, 67
2,16703, Control_c, 0, 64, 65
2,16718, Control_c, 0, 64, 63
2,16726, Note_on_c, 0, 68, 0
2,16733, Control_c, 0, 64, 58
2,16735, Note_on_c, 0, 66, 54
2,16742, Note_on_c, 0, 63, 47
2,16749, Control_c, 0, 64, 44
2,16765, Control_c, 0, 64, 0
2,16841, Control_c, 0, 64, 26
2,16855, Control_c, 0, 64, 53
2,16871, Control_c, 0, 64, 61
2,16886, Control_c, 0, 64, 64
2,16901, Control_c, 0, 64, 66
2,16917, Control_c, 0, 64, 70
2,16931, Control_c, 0, 64, 77
2,16947, Control_c, 0, 64, 90
2,16962, Control_c, 0, 64, 111
2,16977, Control_c, 0, 64, 127
2,16981, Note_on_c, 0, 63, 0
2,17038, Control_c, 0, 64, 99
2,17053, Control_c, 0, 64, 80
2,17069, Control_c, 0, 64, 69
2,17081, Note_on_c, 0, 54, 54
2,17083, Control_c, 0, 64, 61
2,17086, Note_on_c, 0, 71, 53
2,17098, Control_c, 0, 64, 0
2,17197, Control_c, 0, 64, 36
2,17212, Control_c, 0, 64, 56
2,17228, Control_c, 0, 64, 62
2,17243, Control_c, 0, 64, 66
2,17258, Control_c, 0, 64, 70
2,17273, Control_c, 0, 64, 78
2,17280, Note_on_c, 0, 71, 0
2,17283, Note_on_c, 0, 70, 49
2,17288, Control_c, 0, 64, 94
2,17303, Control_c, 0, 64, 127
2,17335, Note_on_c, 0, 73, 0
2,17380, Control_c, 0, 64, 97
2,17395, Control_c, 0, 64, 77
2,17410, Control_c, 0, 64, 66
2,17426, Control_c, 0, 64, 55
2,17441, Control_c, 0, 64, 0
2,17445, Note_on_c, 0, 51, 70
2,17463, Note_on_c, 0, 71, 51
2,17493, Note_on_c, 0, 54, 0
2,17510, Note_on_c, 0, 66, 0
2,17518, Note_on_c, 0, 70, 0
2,17534, Note_on_c, 0, 71, 0
2,17548, Control_c, 0, 64, 55
2,17562, Control_c, 0, 64, 64
2,17578, Control_c, 0, 64, 68
2,17594, Control_c, 0, 64, 78
2,17609, Control_c, 0, 64, 122
2,17625, Control_c, 0, 64, 127
2,17745, Note_on_c, 0, 51, 0
2,17776, Control_c, 0, 64, 81
2,17782, Note_on_c, 0, 73, 62
2,17790, Note_on_c, 0, 52, 64
2,17791, Control_c, 0, 64, 68
2,17797, Note_on_c, 0, 64, 47
2,17802, Note_on_c, 0, 56, 56
2,17806, Control_c, 0, 64, 57
2,17821, Control_c, 0, 64, 0
2,17935, Control_c, 0, 64, 49
2,17951, Control_c, 0, 64, 60
2,17966, Control_c, 0, 64, 64
2,17967, Note_on_c, 0, 71, 51
2,17981, Control_c, 0, 64, 66
2,17996, Control_c, 0, 64, 69
2,18011, Control_c, 0, 64, 69
2,18013, Note_on_c, 0, 64, 0
2,18041, Control_c, 0, 64, 68
2,18056, Control_c, 0, 64, 67
2,18072, Control_c, 0, 64, 65
2,18087, Control_c, 0, 64, 62
2,18102, Control_c, 0, 64, 50
2,18117, Control_c, 0, 64, 0
2,18146, Note_on_c, 0, 70, 60
2,18149, Note_on_c, 0, 54, 75
2,18154, Note_on_c, 0, 56, 0
2,18173, Note_on_c, 0, 52, 0
2,18193, Note_on_c, 0, 73, 0
2,18201, Note_on_c, 0, 71, 0
2,18270, Control_c, 0, 64, 22
2,18285, Control_c, 0, 64, 61
2,18300, Control_c, 0, 64, 66
2,18306, Note_on_c, 0, 70, 0
2,18308, Note_on_c, 0, 68, 58
2,18316, Control_c, 0, 64, 69
2,18330, Control_c, 0, 64, 74
2,18343, Note_on_c, 0, 68, 0
2,18346, Control_c, 0, 64, 82
2,18361, Control_c, 0, 64, 86
2,18392, Control_c, 0, 64, 81
2,18407, Control_c, 0, 64, 73
2,18422, Control_c, 0, 64, 67
2,18438, Control_c, 0, 64, 64
2,18453, Control_c, 0, 64, 63
2,18469, Control_c, 0, 64, 62
2,18483, Control_c, 0, 64, 61
2,18490, Note_on_c, 0, 66, 57
2,18498, Control_c, 0, 64, 61
2,18509, Note_on_c, 0, 63, 48
2,18514, Control_c, 0, 64, 63
2,18529, Control_c, 0, 64, 64
2,18545, Control_c, 0, 64, 64
2,18559, Control_c, 0, 64, 65
2,18583, Note_on_c, 0, 63, 0
2,18590, Control_c, 0, 64, 65
2,18650, Control_c, 0, 64, 66
2,18653, Note_on_c, 0, 64, 49
2,18671, Note_on_c, 0, 61, 35
2,18695, Control_c, 0, 64, 66
2,18750, Control_c, 0, 64, 66
2,18764, Control_c, 0, 64, 65
2,18779, Control_c, 0, 64, 63
2,18795, Control_c, 0, 64, 60
2,18810, Control_c, 0, 64, 42
2,18826, Control_c, 0, 64, 0
2,18828, Note_on_c, 0, 66, 0
2,18833, Note_on_c, 0, 47, 63
2,18842, Note_on_c, 0, 63, 57
2,18873, Note_on_c, 0, 64, 0
2,18881, Note_on_c, 0, 61, 0
2,18909, Note_on_c, 0, 54, 0
2,18946, Note_on_c, 0, 63, 0
2,18961, Control_c, 0, 64, 24
2,18976, Control_c, 0, 64, 44
2,18988, Note_on_c, 0, 64, 47
2,18992, Control_c, 0, 64, 50
2,19006, Control_c, 0, 64, 51
2,19021, Control_c, 0, 64, 51
2,19037, Control_c, 0, 64, 47
2,19052, Control_c, 0, 64, 41
2,19068, Control_c, 0, 64, 22
2,19083, Control_c, 0, 64, 0
2,19162, Note_on_c, 0, 71, 57
2,19163, Note_on_c, 0, 51, 65
2,19177, Note_on_c, 0, 66, 48
2,19227, Note_on_c, 0, 47, 0
2,19232, Note_on_c, 0, 64, 0
2,19329, Note_on_c, 0, 53, 66
2,19335, Note_on_c, 0, 68, 62
2,19335, Note_on_c, 0, 71, 0
2,19345, Note_on_c, 0, 51, 0
2,19428, Note_on_c, 0, 66, 0
2,19502, Note_on_c, 0, 53, 0
2,19508, Note_on_c, 0, 54, 68
2,19530, Note_on_c, 0, 70, 69
2,19541, Note_on_c, 0, 61, 58
2,19637, Note_on_c, 0, 68, 0
2,19670, Control_c, 0, 64, 47
2,19685, Control_c, 0, 64, 52
2,19700, Control_c, 0, 64, 54
2,19716, Control_c, 0, 64, 56
2,19730, Control_c, 0, 64, 58
2,19746, Control_c, 0, 64, 59
2,19747, Note_on_c, 0, 70, 0
2,19776, Control_c, 0, 64, 57
2,19792, Control_c, 0, 64, 54
2,19806, Control_c, 0, 64, 50
2,19821, Control_c, 0, 64, 49
2,19837, Control_c, 0, 64, 44
2,19851, Control_c, 0, 64, 26
2,19858, Note_on_c, 0, 56, 69
2,19866, Note_on_c, 0, 71, 63
2,19867, Control_c, 0, 64, 0
2,19885, Note_on_c, 0, 54, 0
2,19961, Note_on_c, 0, 61, 0
2,20016, Note_on_c, 0, 58, 78
2,20025, Note_on_c, 0, 73, 67
2,20034, Note_on_c, 0, 56, 0
2,20110, Note_on_c, 0, 71, 0
2,20199, Note_on_c, 0, 59, 80
2,20202, Note_on_c, 0, 58, 0
2,20209, Note_on_c, 0, 75, 74
2,20285, Note_on_c, 0, 73, 0
2,20372, Note_on_c, 0, 77, 66
2,20401, Note_on_c, 0, 75, 0
2,20540, Note_on_c, 0, 58, 72
2,20541, Note_on_c, 0, 75, 41
2,20541, Note_on_c, 0, 78, 70
2,20552, Note_on_c, 0, 77, 0
2,20582, Note_on_c, 0, 59, 0
2,20648, Note_on_c, 0, 75, 0
2,20720, Note_on_c, 0, 73, 58
2,20884, Note_on_c, 0, 71, 55
2,20887, Note_on_c, 0, 56, 60
2,20905, Note_on_c, 0, 58, 0
2,20954, Control_c, 0, 64, 42
2,20969, Control_c, 0, 64, 49
2,20985, Control_c, 0, 64, 53
2,20985, Note_on_c, 0, 71, 0
2,21007, Control_c, 0, 64, 54
2,21020, Control_c, 0, 64, 54
2,21027, Note_on_c, 0, 73, 0
2,21043, Note_on_c, 0, 56, 0
2,21051, Control_c, 0, 64, 54
2,21056, Note_on_c, 0, 58, 54
2,21066, Control_c, 0, 64, 51
2,21081, Control_c, 0, 64, 48
2,21096, Control_c, 0, 64, 40
2,21112, Control_c, 0, 64, 20
2,21127, Control_c, 0, 64, 0
2,21132, Note_on_c, 0, 58, 0
2,21150, Note_on_c, 0, 56, 58
2,21172, Control_c, 0, 67, 9
2,21187, Control_c, 0, 67, 30
2,21200, Note_on_c, 0, 77, 63
2,21203, Control_c, 0, 67, 60
2,21211, Note_on_c, 0, 56, 0
2,21215, Note_on_c, 0, 68, 48
2,21218, Control_c, 0, 67, 96
2,21233, Control_c, 0, 67, 127
2,21236, Note_on_c, 0, 58, 52
2,21267, Note_on_c, 0, 78, 0
2,21276, Note_on_c, 0, 58, 0
2,21300, Note_on_c, 0, 56, 57
2,21352, Note_on_c, 0, 56, 0
2,21374, Note_on_c, 0, 58, 55
2,21388, Note_on_c, 0, 75, 72
2,21436, Note_on_c, 0, 58, 0
2,21445, Note_on_c, 0, 77, 0
2,21451, Note_on_c, 0, 56, 57
2,21515, Note_on_c, 0, 56, 0
2,21536, Note_on_c, 0, 58, 60
2,21543, Note_on_c, 0, 77, 76
2,21574, Note_on_c, 0, 75, 0
2,21601, Note_on_c, 0, 58, 0
2,21620, Note_on_c, 0, 56, 60
2,21677, Note_on_c, 0, 56, 0
2,21707, Note_on_c, 0, 58, 57
2,21709, Note_on_c, 0, 75, 72
2,21754, Note_on_c, 0, 58, 0
2,21795, Note_on_c, 0, 56, 51
2,21839, Note_on_c, 0, 56, 0
2,21866, Note_on_c, 0, 58, 56
2,21906, Note_on_c, 0, 68, 0
2,21916, Note_on_c, 0, 58, 0
2,21920, Note_on_c, 0, 73, 60
2,21943, Note_on_c, 0, 56, 54
2,21967, Note_on_c, 0, 77, 0
2,21999, Note_on_c, 0, 56, 0
2,22021, Note_on_c, 0, 58, 58
2,22080, Note_on_c, 0, 71, 54
2,22085, Note_on_c, 0, 75, 0
2,22093, Note_on_c, 0, 58, 0
2,22103, Note_on_c, 0, 56, 54
2,22162, Note_on_c, 0, 73, 0
2,22246, Note_on_c, 0, 56, 0
2,22269, Note_on_c, 0, 78, 63
2,22275, Note_on_c, 0, 70, 45
2,22276, Note_on_c, 0, 54, 33
2,22306, Note_on_c, 0, 71, 0
2,22581, Note_on_c, 0, 54, 0
2,22627, Note_on_c, 0, 73, 57
2,22670, Note_on_c, 0, 70, 0
2,22777, Note_on_c, 0, 73, 0
2,22781, Note_on_c, 0, 71, 62
2,22982, Note_on_c, 0, 73, 67
2,23020, Note_on_c, 0, 71, 0
2,23135, Note_on_c, 0, 68, 56
2,23292, Note_on_c, 0, 68, 0
2,23324, Note_on_c, 0, 75, 75
2,23326, Note_on_c, 0, 66, 52
2,23352, Note_on_c, 0, 73, 0
2,23446, Control_c, 0, 64, 41
2,23460, Control_c, 0, 64, 52
2,23462, Note_on_c, 0, 66, 0
2,23476, Control_c, 0, 64, 56
2,23490, Note_on_c, 0, 64, 53
2,23491, Control_c, 0, 64, 58
2,23506, Control_c, 0, 64, 58
2,23524, Note_on_c, 0, 78, 0
2,23536, Control_c, 0, 64, 59
2,23552, Control_c, 0, 64, 59
2,23612, Control_c, 0, 64, 59
2,23627, Control_c, 0, 64, 56
2,23643, Control_c, 0, 64, 51
2,23658, Control_c, 0, 64, 39
2,23672, Note_on_c, 0, 64, 0
2,23673, Control_c, 0, 64, 0
2,23688, Note_on_c, 0, 72, 66
2,23713, Note_on_c, 0, 63, 48
2,23733, Note_on_c, 0, 75, 0
2,24030, Note_on_c, 0, 56, 58
2,24122, Control_c, 0, 67, 122
2,24137, Control_c, 0, 67, 115
2,24153, Control_c, 0, 67, 108
2,24153, Note_on_c, 0, 63, 0
2,24168, Control_c, 0, 67, 97
2,24183, Control_c, 0, 67, 87
2,24193, Note_on_c, 0, 56, 0
2,24199, Control_c, 0, 67, 72
2,24202, Note_on_c, 0, 57, 66
2,24214, Control_c, 0, 67, 57
2,24229, Control_c, 0, 67, 44
2,24244, Control_c, 0, 67, 32
2,24259, Control_c, 0, 67, 22
2,24275, Control_c, 0, 67, 12
2,24290, Control_c, 0, 67, 0
2,24382, Note_on_c, 0, 73, 76
2,24395, Note_on_c, 0, 56, 62
2,24395, Note_on_c, 0, 64, 45
2,24398, Note_on_c, 0, 57, 0
2,24409, Note_on_c, 0, 72, 0
2,24464, Note_on_c, 0, 64, 0
2,24502, Control_c, 0, 64, 33
2,24517, Control_c, 0, 64, 49
2,24532, Control_c, 0, 64, 57
2,24543, Note_on_c, 0, 56, 0
2,24547, Control_c, 0, 64, 61
2,24556, Note_on_c, 0, 54, 54
2,24563, Control_c, 0, 64, 63
2,24578, Control_c, 0, 64, 64
2,24593, Control_c, 0, 64, 64
2,24654, Control_c, 0, 64, 63
2,24669, Control_c, 0, 64, 61
2,24685, Control_c, 0, 64, 51
2,24691, Note_on_c, 0, 54, 0
2,24700, Control_c, 0, 64, 0
2,24709, Note_on_c, 0, 75, 80
2,24718, Note_on_c, 0, 66, 63
2,24719, Note_on_c, 0, 52, 61
2,24818, Note_on_c, 0, 66, 0
2,24844, Control_c, 0, 64, 55
2,24859, Control_c, 0, 64, 63
2,24861, Note_on_c, 0, 73, 0
2,24873, Note_on_c, 0, 75, 0
2,24875, Control_c, 0, 64, 65
2,24890, Control_c, 0, 64, 67
2,24893, Note_on_c, 0, 51, 59
2,24905, Control_c, 0, 64, 69
2,24905, Note_on_c, 0, 52, 0
2,24920, Control_c, 0, 64, 72
2,24935, Control_c, 0, 64, 74
2,24966, Control_c, 0, 64, 73
2,24981, Control_c, 0, 64, 72
2,24997, Control_c, 0, 64, 71
2,25012, Control_c, 0, 64, 70
2,25027, Control_c, 0, 64, 67
2,25043, Control_c, 0, 64, 64
2,25058, Control_c, 0, 64, 62
2,25067, Note_on_c, 0, 51, 0
2,25073, Control_c, 0, 64, 60
2,25088, Control_c, 0, 64, 58
2,25094, Note_on_c, 0, 76, 59
2,25096, Note_on_c, 0, 49, 48
2,25103, Control_c, 0, 64, 54
2,25105, Note_on_c, 0, 68, 42
2,25119, Control_c, 0, 64, 47
2,25134, Control_c, 0, 64, 0
2,25264, Note_on_c, 0, 75, 66
2,25270, Note_on_c, 0, 76, 0
2,25430, Note_on_c, 0, 49, 0
2,25439, Note_on_c, 0, 61, 66
2,25474, Note_on_c, 0, 76, 50
2,25547, Note_on_c, 0, 75, 0
2,25599, Note_on_c, 0, 76, 0
2,25623, Note_on_c, 0, 78, 74
2,25783, Note_on_c, 0, 76, 72
2,25784, Note_on_c, 0, 63, 66
2,25813, Note_on_c, 0, 78, 0
2,25830, Note_on_c, 0, 61, 0
2,25936, Note_on_c, 0, 75, 79
2,25980, Note_on_c, 0, 76, 0
2,26113, Note_on_c, 0, 64, 74
2,26122, Note_on_c, 0, 73, 75
2,26145, Note_on_c, 0, 63, 0
2,26146, Note_on_c, 0, 75, 0
2,26175, Control_c, 0, 64, 52
2,26190, Control_c, 0, 64, 62
2,26195, Note_on_c, 0, 73, 0
2,26205, Control_c, 0, 64, 64
2,26220, Control_c, 0, 64, 64
2,26222, Note_on_c, 0, 68, 0
2,26236, Control_c, 0, 64, 65
2,26250, Control_c, 0, 64, 65
2,26265, Control_c, 0, 64, 64
2,26281, Control_c, 0, 64, 63
2,26289, Note_on_c, 0, 71, 71
2,26296, Control_c, 0, 64, 59
2,26312, Control_c, 0, 64, 49
2,26327, Control_c, 0, 64, 17
2,26342, Control_c, 0, 64, 0
2,26461, Note_on_c, 0, 71, 0
2,26477, Note_on_c, 0, 64, 0
2,26477, Note_on_c, 0, 70, 67
2,26478, Note_on_c, 0, 66, 70
2,26532, Control_c, 0, 64, 52
2,26546, Control_c, 0, 64, 61
2,26562, Control_c, 0, 64, 64
2,26577, Control_c, 0, 64, 65
2,26581, Note_on_c, 0, 66, 0
2,26594, Control_c, 0, 64, 66
2,26609, Control_c, 0, 64, 66
2,26745, Control_c, 0, 64, 66
2,26761, Control_c, 0, 64, 65
2,26776, Control_c, 0, 64, 64
2,26792, Control_c, 0, 64, 59
2,26807, Control_c, 0, 64, 42
2,26818, Note_on_c, 0, 61, 49
2,26819, Note_on_c, 0, 54, 54
2,26821, Control_c, 0, 64, 0
2,26928, Control_c, 0, 64, 42
2,26936, Note_on_c, 0, 70, 0
2,26943, Control_c, 0, 64, 57
2,26959, Control_c, 0, 64, 63
2,26972, Note_on_c, 0, 61, 0
2,26973, Control_c, 0, 64, 65
2,26975, Note_on_c, 0, 54, 0
2,26988, Control_c, 0, 64, 67
2,26995, Note_on_c, 0, 56, 55
2,27004, Control_c, 0, 64, 71
2,27018, Control_c, 0, 64, 77
2,27034, Control_c, 0, 64, 84
2,27049, Control_c, 0, 64, 88
2,27080, Control_c, 0, 64, 85
2,27094, Control_c, 0, 64, 79
2,27109, Control_c, 0, 64, 71
2,27125, Control_c, 0, 64, 64
2,27140, Control_c, 0, 64, 55
2,27164, Control_c, 0, 64, 0
2,27164, Note_on_c, 0, 71, 65
2,27176, Note_on_c, 0, 63, 47
2,27179, Note_on_c, 0, 56, 0
2,27186, Note_on_c, 0, 54, 53
2,27269, Control_c, 0, 64, 26
2,27285, Control_c, 0, 64, 49
2,27300, Control_c, 0, 64, 58
2,27302, Note_on_c, 0, 54, 0
2,27315, Control_c, 0, 64, 61
2,27329, Note_on_c, 0, 52, 53
2,27330, Control_c, 0, 64, 63
2,27345, Control_c, 0, 64, 64
2,27349, Note_on_c, 0, 63, 0
2,27361, Control_c, 0, 64, 64
2,27407, Control_c, 0, 64, 64
2,27422, Control_c, 0, 64, 63
2,27438, Control_c, 0, 64, 62
2,27452, Control_c, 0, 64, 55
2,27467, Control_c, 0, 64, 31
2,27483, Control_c, 0, 64, 0
2,27503, Note_on_c, 0, 73, 73
2,27506, Note_on_c, 0, 64, 54
2,27508, Note_on_c, 0, 51, 58
2,27532, Note_on_c, 0, 52, 0
2,27575, Note_on_c, 0, 71, 0
2,27587, Note_on_c, 0, 64, 0
2,27620, Control_c, 0, 64, 48
2,27635, Control_c, 0, 64, 60
2,27642, Note_on_c, 0, 73, 0
2,27650, Control_c, 0, 64, 64
2,27654, Note_on_c, 0, 51, 0
2,27661, Note_on_c, 0, 49, 60
2,27665, Control_c, 0, 64, 66
2,27681, Control_c, 0, 64, 68
2,27696, Control_c, 0, 64, 70
2,27712, Control_c, 0, 64, 74
2,27727, Control_c, 0, 64, 76
2,27741, Control_c, 0, 64, 77
2,27757, Control_c, 0, 64, 76
2,27772, Control_c, 0, 64, 75
2,27787, Control_c, 0, 64, 72
2,27803, Control_c, 0, 64, 67
2,27817, Control_c, 0, 64, 63
2,27833, Control_c, 0, 64, 51
2,27841, Note_on_c, 0, 75, 77
2,27843, Note_on_c, 0, 47, 58
2,27848, Control_c, 0, 64, 0
2,27853, Note_on_c, 0, 49, 0
2,27861, Note_on_c, 0, 66, 59
2,27932, Note_on_c, 0, 66, 0
2,27977, Control_c, 0, 64, 59
2,27993, Control_c, 0, 64, 64
2,27997, Note_on_c, 0, 75, 0
2,28000, Note_on_c, 0, 46, 64
2,28000, Note_on_c, 0, 47, 0
2,28008, Control_c, 0, 64, 68
2,28022, Control_c, 0, 64, 73
2,28038, Control_c, 0, 64, 84
2,28053, Control_c, 0, 64, 99
2,28068, Control_c, 0, 64, 116
2,28083, Control_c, 0, 64, 119
2,28098, Control_c, 0, 64, 112
2,28114, Control_c, 0, 64, 96
2,28129, Control_c, 0, 64, 81
2,28144, Control_c, 0, 64, 69
2,28159, Control_c, 0, 64, 61
2,28173, Note_on_c, 0, 75, 92
2,28174, Control_c, 0, 64, 0
2,28182, Note_on_c, 0, 71, 67
2,28201, Note_on_c, 0, 47, 55
2,28339, Note_on_c, 0, 47, 0
2,28346, Note_on_c, 0, 46, 0
2,28354, Note_on_c, 0, 49, 67
2,28479, Note_on_c, 0, 49, 0
2,28500, Note_on_c, 0, 76, 79
2,28502, Note_on_c, 0, 47, 64
2,28503, Note_on_c, 0, 73, 78
2,28535, Note_on_c, 0, 75, 0
2,28543, Note_on_c, 0, 71, 0
2,28656, Note_on_c, 0, 45, 72
2,28676, Note_on_c, 0, 47, 0
2,28830, Note_on_c, 0, 45, 0
2,28833, Note_on_c, 0, 78, 80
2,28837, Note_on_c, 0, 44, 72
2,28850, Note_on_c, 0, 75, 57
2,28898, Control_c, 0, 64, 56
2,28914, Control_c, 0, 64, 63
2,28925, Note_on_c, 0, 76, 0
2,28928, Control_c, 0, 64, 66
2,28928, Note_on_c, 0, 73, 0
2,28943, Control_c, 0, 64, 68
2,28946, Note_on_c, 0, 75, 0
2,28959, Control_c, 0, 64, 72
2,28974, Control_c, 0, 64, 77
2,28989, Control_c, 0, 64, 80
2,28998, Note_on_c, 0, 42, 70
2,28998, Note_on_c, 0, 78, 0
2,29002, Control_c, 0, 64, 79
2,29012, Note_on_c, 0, 44, 0
2,29017, Control_c, 0, 64, 77
2,29032, Control_c, 0, 64, 74
2,29049, Control_c, 0, 64, 72
2,29064, Control_c, 0, 64, 69
2,29079, Control_c, 0, 64, 67
2,29094, Control_c, 0, 64, 64
2,29109, Control_c, 0, 64, 61
2,29125, Control_c, 0, 64, 49
2,29140, Control_c, 0, 64, 0
2,29145, Note_on_c, 0, 42, 0
2,29174, Note_on_c, 0, 40, 57
2,29182, Note_on_c, 0, 80, 51
2,29189, Note_on_c, 0, 76, 43
2,29284, Note_on_c, 0, 40, 0
2,29332, Note_on_c, 0, 81, 66
2,29337, Note_on_c, 0, 76, 0
2,29341, Note_on_c, 0, 80, 0
2,29532, Note_on_c, 0, 80, 58
2,29537, Note_on_c, 0, 59, 61
2,29552, Note_on_c, 0, 81, 0
2,29691, Note_on_c, 0, 78, 57
2,29727, Note_on_c, 0, 80, 0
2,29852, Note_on_c, 0, 78, 0
2,29867, Note_on_c, 0, 76, 57
2,29872, Note_on_c, 0, 58, 77
2,29884, Note_on_c, 0, 59, 0
2,30009, Note_on_c, 0, 76, 0
2,30025, Note_on_c, 0, 75, 60
2,30203, Note_on_c, 0, 73, 64
2,30209, Note_on_c, 0, 59, 78
2,30222, Note_on_c, 0, 58, 0
2,30253, Note_on_c, 0, 75, 0
2,30373, Note_on_c, 0, 73, 0
2,30377, Note_on_c, 0, 71, 59
2,30581, Note_on_c, 0, 61, 73
2,30589, Note_on_c, 0, 59, 0
2,30597, Note_on_c, 0, 70, 61
2,30621, Note_on_c, 0, 71, 0
2,30902, Note_on_c, 0, 71, 41
2,30919, Note_on_c, 0, 52, 51
2,30926, Note_on_c, 0, 70, 0
2,31096, Note_on_c, 0, 73, 47
2,31105, Note_on_c, 0, 71, 0
2,31287, Note_on_c, 0, 52, 0
2,31288, Note_on_c, 0, 54, 66
2,31297, Note_on_c, 0, 51, 57
2,31299, Note_on_c, 0, 75, 63
2,31327, Note_on_c, 0, 73, 0
2,31362, Note_on_c, 0, 61, 0
2,31378, Note_on_c, 0, 75, 0
2,31412, Control_c, 0, 64, 54
2,31427, Control_c, 0, 64, 63
2,31443, Control_c, 0, 64, 65
2,31458, Control_c, 0, 64, 68
2,31473, Control_c, 0, 64, 71
2,31488, Control_c, 0, 64, 75
2,31504, Control_c, 0, 64, 81
2,31520, Control_c, 0, 64, 84
2,31540, Note_on_c, 0, 51, 0
2,31549, Control_c, 0, 64, 84
2,31565, Control_c, 0, 64, 80
2,31580, Control_c, 0, 64, 75
2,31595, Control_c, 0, 64, 68
2,31610, Note_on_c, 0, 54, 0
2,31611, Control_c, 0, 64, 64
2,31615, Note_on_c, 0, 56, 64
2,31626, Control_c, 0, 64, 49
2,31626, Note_on_c, 0, 73, 60
2,31634, Note_on_c, 0, 52, 53
2,31641, Control_c, 0, 64, 0
2,31766, Note_on_c, 0, 56, 0
2,31767, Note_on_c, 0, 52, 0
2,31778, Note_on_c, 0, 58, 66
2,31779, Note_on_c, 0, 54, 46
2,31785, Control_c, 0, 64, 53
2,31801, Control_c, 0, 64, 63
2,31808, Note_on_c, 0, 54, 0
2,31814, Note_on_c, 0, 58, 0
2,31815, Control_c, 0, 64, 65
2,31830, Control_c, 0, 64, 67
2,31846, Control_c, 0, 64, 69
2,31861, Control_c, 0, 64, 70
2,31892, Control_c, 0, 64, 69
2,31907, Control_c, 0, 64, 68
2,31923, Control_c, 0, 64, 66
2,31937, Control_c, 0, 64, 62
2,31952, Control_c, 0, 64, 46
2,31968, Control_c, 0, 64, 0
2,31968, Note_on_c, 0, 59, 65
2,31969, Note_on_c, 0, 56, 67
2,31972, Note_on_c, 0, 71, 55
2,31982, Note_on_c, 0, 63, 46
2,32057, Note_on_c, 0, 63, 0
2,32120, Control_c, 0, 64, 49
2,32135, Control_c, 0, 64, 59
2,32149, Control_c, 0, 64, 63
2,32165, Control_c, 0, 64, 64
2,32180, Control_c, 0, 64, 64
2,32256, Control_c, 0, 64, 64
2,32271, Control_c, 0, 64, 62
2,32287, Control_c, 0, 64, 52
2,32295, Note_on_c, 0, 59, 0
2,32301, Control_c, 0, 64, 0
2,32312, Note_on_c, 0, 61, 69
2,32329, Note_on_c, 0, 64, 52
2,32393, Control_c, 0, 64, 52
2,32409, Control_c, 0, 64, 59
2,32424, Control_c, 0, 64, 62
2,32439, Control_c, 0, 64, 63
2,32454, Control_c, 0, 64, 64
2,32471, Note_on_c, 0, 64, 0
2,32472, Note_on_c, 0, 63, 70
2,32482, Note_on_c, 0, 61, 0
2,32485, Note_on_c, 0, 66, 56
2,32538, Control_c, 0, 64, 63
2,32553, Control_c, 0, 64, 63
2,32563, Note_on_c, 0, 66, 0
2,32569, Control_c, 0, 64, 62
2,32583, Control_c, 0, 64, 62
2,32599, Control_c, 0, 64, 60
2,32613, Note_on_c, 0, 73, 0
2,32614, Control_c, 0, 64, 58
2,32629, Control_c, 0, 64, 53
2,32645, Control_c, 0, 64, 41
2,32659, Control_c, 0, 64, 0
2,32659, Note_on_c, 0, 71, 0
2,32667, Note_on_c, 0, 64, 82
2,32668, Note_on_c, 0, 63, 0
2,32677, Note_on_c, 0, 68, 63
2,32818, Note_on_c, 0, 73, 61
2,32833, Note_on_c, 0, 70, 43
2,32876, Note_on_c, 0, 70, 0
2,33005, Note_on_c, 0, 63, 81
2,33010, Note_on_c, 0, 54, 62
2,33023, Note_on_c, 0, 64, 0
2,33024, Note_on_c, 0, 75, 72
2,33051, Note_on_c, 0, 56, 0
2,33070, Control_c, 0, 64, 28
2,33086, Control_c, 0, 64, 63
2,33088, Note_on_c, 0, 73, 0
2,33101, Control_c, 0, 64, 67
2,33112, Note_on_c, 0, 63, 0
2,33115, Control_c, 0, 64, 74
2,33125, Note_on_c, 0, 75, 0
2,33127, Note_on_c, 0, 54, 0
2,33133, Control_c, 0, 64, 93
2,33148, Control_c, 0, 64, 127
2,33323, Control_c, 0, 64, 104
2,33338, Control_c, 0, 64, 84
2,33353, Control_c, 0, 64, 74
2,33368, Control_c, 0, 64, 68
2,33369, Note_on_c, 0, 61, 82
2,33382, Note_on_c, 0, 52, 68
2,33383, Control_c, 0, 64, 62
2,33399, Control_c, 0, 64, 17
2,33399, Note_on_c, 0, 76, 58
2,33414, Control_c, 0, 64, 0
2,33475, Note_on_c, 0, 68, 0
2,33548, Note_on_c, 0, 78, 70
2,33574, Note_on_c, 0, 76, 0
2,33709, Note_on_c, 0, 70, 63
2,33720, Note_on_c, 0, 80, 73
2,33823, Note_on_c, 0, 78, 0
2,33880, Note_on_c, 0, 70, 0
2,33883, Note_on_c, 0, 68, 67
2,34084, Note_on_c, 0, 70, 65
2,34089, Note_on_c, 0, 54, 58
2,34096, Note_on_c, 0, 52, 0
2,34109, Note_on_c, 0, 68, 0
2,34411, Note_on_c, 0, 80, 0
2,34418, Note_on_c, 0, 78, 63
2,34517, Note_on_c, 0, 78, 0
2,34576, Note_on_c, 0, 76, 66
2,34730, Note_on_c, 0, 61, 0
2,34731, Note_on_c, 0, 76, 0
2,34737, Note_on_c, 0, 54, 0
2,34768, Note_on_c, 0, 75, 64
2,34781, Note_on_c, 0, 59, 47
2,34840, Note_on_c, 0, 59, 0
2,34848, Note_on_c, 0, 70, 0
2,35088, Note_on_c, 0, 68, 53
2,35089, Note_on_c, 0, 47, 49
2,35230, Note_on_c, 0, 47, 0
2,35233, Note_on_c, 0, 68, 0
2,35246, Note_on_c, 0, 67, 57
2,35257, Note_on_c, 0, 46, 59
2,35314, Note_on_c, 0, 75, 0
2,35429, Note_on_c, 0, 46, 0
2,35431, Note_on_c, 0, 68, 69
2,35435, Note_on_c, 0, 47, 55
2,35604, Note_on_c, 0, 75, 75
2,35612, Note_on_c, 0, 68, 0
2,35675, Note_on_c, 0, 67, 0
2,35783, Note_on_c, 0, 73, 61
2,35790, Note_on_c, 0, 70, 60
2,35802, Note_on_c, 0, 49, 48
2,35831, Note_on_c, 0, 47, 0
2,35928, Note_on_c, 0, 73, 0
2,35934, Note_on_c, 0, 70, 0
2,35944, Note_on_c, 0, 75, 0
2,35958, Note_on_c, 0, 71, 63
2,36118, Note_on_c, 0, 71, 0
2,36134, Note_on_c, 0, 70, 60
2,36157, Note_on_c, 0, 49, 0
2,36157, Note_on_c, 0, 67, 49
2,36169, Note_on_c, 0, 51, 42
2,36252, Note_on_c, 0, 67, 0
2,36505, Note_on_c, 0, 63, 60
2,36550, Control_c, 0, 64, 42
2,36565, Control_c, 0, 64, 57
2,36577, Note_on_c, 0, 70, 0
2,36580, Control_c, 0, 64, 61
2,36596, Control_c, 0, 64, 62
2,36610, Control_c, 0, 64, 63
2,36613, Note_on_c, 0, 63, 0
2,36626, Control_c, 0, 64, 62
2,36641, Control_c, 0, 64, 62
2,36655, Control_c, 0, 64, 61
2,36657, Note_on_c, 0, 64, 57
2,36731, Control_c, 0, 64, 61
2,36762, Control_c, 0, 64, 61
2,36777, Control_c, 0, 64, 58
2,36793, Control_c, 0, 64, 49
2,36807, Control_c, 0, 64, 0
2,36849, Note_on_c, 0, 71, 73
2,36855, Note_on_c, 0, 63, 51
2,36856, Note_on_c, 0, 64, 0
2,36879, Note_on_c, 0, 68, 45
2,36914, Control_c, 0, 64, 44
2,36928, Control_c, 0, 64, 62
2,36931, Note_on_c, 0, 71, 0
2,36937, Note_on_c, 0, 68, 0
2,36943, Control_c, 0, 64, 65
2,36945, Note_on_c, 0, 63, 0
2,36957, Note_on_c, 0, 51, 0
2,36959, Control_c, 0, 64, 70
2,36974, Control_c, 0, 64, 78
2,36990, Control_c, 0, 64, 95
2,37005, Control_c, 0, 64, 127
2,37013, Note_on_c, 0, 61, 69
2,37112, Control_c, 0, 64, 109
2,37133, Control_c, 0, 64, 83
2,37149, Control_c, 0, 64, 70
2,37164, Control_c, 0, 64, 61
2,37179, Control_c, 0, 64, 0
2,37191, Note_on_c, 0, 59, 55
2,37193, Note_on_c, 0, 73, 74
2,37203, Note_on_c, 0, 70, 63
2,37205, Note_on_c, 0, 49, 50
2,37301, Control_c, 0, 64, 41
2,37317, Control_c, 0, 64, 61
2,37332, Control_c, 0, 64, 65
2,37332, Note_on_c, 0, 59, 0
2,37334, Note_on_c, 0, 58, 62
2,37348, Control_c, 0, 64, 72
2,37356, Note_on_c, 0, 61, 0
2,37363, Control_c, 0, 64, 87
2,37363, Note_on_c, 0, 58, 0
2,37374, Note_on_c, 0, 49, 0
2,37378, Control_c, 0, 64, 127
2,37394, Note_on_c, 0, 73, 0
2,37451, Note_on_c, 0, 70, 0
2,37470, Control_c, 0, 64, 93
2,37485, Control_c, 0, 64, 75
2,37499, Control_c, 0, 64, 66
2,37515, Control_c, 0, 64, 57
2,37529, Note_on_c, 0, 75, 69
2,37530, Control_c, 0, 64, 0
2,37534, Note_on_c, 0, 56, 46
2,37537, Note_on_c, 0, 71, 46
2,37547, Note_on_c, 0, 47, 50
2,37674, Note_on_c, 0, 71, 0
2,37709, Note_on_c, 0, 70, 53
2,37871, Note_on_c, 0, 44, 63
2,37874, Note_on_c, 0, 47, 0
2,37885, Note_on_c, 0, 71, 45
2,38032, Note_on_c, 0, 70, 0
2,38045, Note_on_c, 0, 73, 65
2,38053, Note_on_c, 0, 71, 0
2,38224, Note_on_c, 0, 46, 74
2,38228, Note_on_c, 0, 71, 66
2,38259, Note_on_c, 0, 44, 0
2,38382, Note_on_c, 0, 70, 64
2,38399, Note_on_c, 0, 71, 0
2,38412, Note_on_c, 0, 73, 0
2,38546, Note_on_c, 0, 46, 0
2,38562, Note_on_c, 0, 68, 64
2,38563, Note_on_c, 0, 47, 70
2,38567, Note_on_c, 0, 70, 0
2,38734, Note_on_c, 0, 68, 0
2,38742, Note_on_c, 0, 66, 61
2,38861, Note_on_c, 0, 75, 0
2,38910, Note_on_c, 0, 66, 0
2,38927, Note_on_c, 0, 65, 62
2,38932, Note_on_c, 0, 47, 0
2,38941, Note_on_c, 0, 49, 52
2,38956, Note_on_c, 0, 56, 0
2,39259, Note_on_c, 0, 68, 57
2,39273, Note_on_c, 0, 61, 42
2,39285, Note_on_c, 0, 65, 0
2,39424, Note_on_c, 0, 63, 63
2,39449, Note_on_c, 0, 68, 0
2,39563, Note_on_c, 0, 61, 0
2,39599, Note_on_c, 0, 70, 74
2,39608, Note_on_c, 0, 66, 59
2,39628, Note_on_c, 0, 63, 0
2,39634, Control_c, 0, 64, 53
2,39649, Control_c, 0, 64, 63
2,39664, Control_c, 0, 64, 68
2,39677, Note_on_c, 0, 49, 0
2,39679, Control_c, 0, 64, 75
2,39695, Control_c, 0, 64, 95
2,39710, Control_c, 0, 64, 127
2,39727, Note_on_c, 0, 70, 0
2,39758, Note_on_c, 0, 66, 0
2,39764, Note_on_c, 0, 59, 67
2,39892, Control_c, 0, 64, 86
2,39907, Control_c, 0, 64, 71
2,39923, Control_c, 0, 64, 63
2,39923, Note_on_c, 0, 71, 78
2,39933, Note_on_c, 0, 68, 70
2,39935, Note_on_c, 0, 47, 52
2,39936, Note_on_c, 0, 58, 57
2,39938, Control_c, 0, 64, 0
2,39972, Note_on_c, 0, 59, 0
2,40060, Control_c, 0, 64, 45
2,40069, Note_on_c, 0, 71, 0
2,40076, Control_c, 0, 64, 62
2,40091, Control_c, 0, 64, 66
2,40092, Note_on_c, 0, 58, 0
2,40100, Note_on_c, 0, 56, 55
2,40106, Control_c, 0, 64, 70
2,40113, Note_on_c, 0, 68, 0
2,40116, Note_on_c, 0, 47, 0
2,40122, Control_c, 0, 64, 77
2,40136, Control_c, 0, 64, 89
2,40152, Control_c, 0, 64, 112
2,40167, Control_c, 0, 64, 127
2,40184, Note_on_c, 0, 56, 0
2,40250, Control_c, 0, 64, 98
2,40265, Control_c, 0, 64, 81
2,40281, Control_c, 0, 64, 70
2,40282, Note_on_c, 0, 73, 78
2,40296, Control_c, 0, 64, 63
2,40297, Note_on_c, 0, 70, 66
2,40304, Note_on_c, 0, 54, 58
2,40310, Control_c, 0, 64, 36
2,40314, Note_on_c, 0, 46, 54
2,40326, Control_c, 0, 64, 0
2,40435, Note_on_c, 0, 70, 0
2,40445, Note_on_c, 0, 52, 54
2,40448, Note_on_c, 0, 54, 0
2,40610, Note_on_c, 0, 70, 83
2,40626, Note_on_c, 0, 52, 0
2,40628, Note_on_c, 0, 61, 63
2,40637, Note_on_c, 0, 54, 62
2,40723, Control_c, 0, 64, 17
2,40738, Control_c, 0, 64, 26
2,40738, Note_on_c, 0, 61, 0
2,40753, Control_c, 0, 64, 28
2,40764, Note_on_c, 0, 54, 0
2,40768, Control_c, 0, 64, 31
2,40774, Note_on_c, 0, 56, 65
2,40783, Control_c, 0, 64, 33
2,40798, Control_c, 0, 64, 35
2,40813, Control_c, 0, 64, 37
2,40828, Control_c, 0, 64, 38
2,40889, Control_c, 0, 64, 35
2,40904, Control_c, 0, 64, 17
2,40908, Note_on_c, 0, 73, 0
2,40920, Control_c, 0, 64, 0
2,40936, Note_on_c, 0, 71, 77
2,40946, Note_on_c, 0, 63, 68
2,40947, Note_on_c, 0, 56, 0
2,40949, Note_on_c, 0, 54, 65
2,41079, Control_c, 0, 64, 26
2,41087, Note_on_c, 0, 54, 0
2,41094, Control_c, 0, 64, 50
2,41109, Control_c, 0, 64, 58
2,41119, Note_on_c, 0, 52, 67
2,41124, Control_c, 0, 64, 61
2,41136, Note_on_c, 0, 63, 0
2,41139, Control_c, 0, 64, 62
2,41155, Control_c, 0, 64, 63
2,41201, Control_c, 0, 64, 61
2,41216, Control_c, 0, 64, 57
2,41231, Control_c, 0, 64, 47
2,41246, Control_c, 0, 64, 0
2,41278, Note_on_c, 0, 71, 0
2,41278, Note_on_c, 0, 73, 84
2,41281, Note_on_c, 0, 64, 73
2,41292, Note_on_c, 0, 51, 68
2,41341, Note_on_c, 0, 70, 0
2,41351, Note_on_c, 0, 52, 0
2,41400, Control_c, 0, 64, 28
2,41414, Control_c, 0, 64, 51
2,41424, Note_on_c, 0, 73, 0
2,41429, Control_c, 0, 64, 58
2,41445, Control_c, 0, 64, 60
2,41449, Note_on_c, 0, 49, 65
2,41449, Note_on_c, 0, 51, 0
2,41460, Control_c, 0, 64, 60
2,41476, Control_c, 0, 64, 60
2,41489, Note_on_c, 0, 46, 0
2,41491, Control_c, 0, 64, 58
2,41506, Control_c, 0, 64, 55
2,41520, Control_c, 0, 64, 49
2,41535, Control_c, 0, 64, 44
2,41550, Control_c, 0, 64, 37
2,41565, Control_c, 0, 64, 24
2,41580, Control_c, 0, 64, 0
2,41631, Note_on_c, 0, 75, 90
2,41635, Note_on_c, 0, 47, 62
2,41639, Note_on_c, 0, 49, 0
2,41651, Note_on_c, 0, 66, 63
2,41747, Note_on_c, 0, 66, 0
2,41757, Note_on_c, 0, 64, 0
2,41794, Note_on_c, 0, 47, 0
2,41797, Note_on_c, 0, 46, 60
2,41970, Note_on_c, 0, 46, 0
2,41976, Note_on_c, 0, 66, 91
2,41993, Note_on_c, 0, 47, 46
2,42143, Note_on_c, 0, 47, 0
2,42157, Note_on_c, 0, 49, 56
2,42328, Note_on_c, 0, 49, 0
2,42331, Note_on_c, 0, 65, 84
2,42343, Note_on_c, 0, 47, 61
2,42363, Note_on_c, 0, 66, 0
2,42488, Note_on_c, 0, 46, 60
2,42519, Note_on_c, 0, 47, 0
2,42674, Note_on_c, 0, 46, 0
2,42682, Note_on_c, 0, 66, 86
2,42696, Note_on_c, 0, 44, 53
2,42736, Note_on_c, 0, 75, 0
2,42781, Note_on_c, 0, 65, 0
2,42842, Note_on_c, 0, 44, 0
2,42846, Note_on_c, 0, 42, 52
2,43005, Note_on_c, 0, 42, 0
2,43033, Note_on_c, 0, 68, 81
2,43046, Note_on_c, 0, 41, 43
2,43046, Note_on_c, 0, 73, 62
2,43062, Note_on_c, 0, 66, 0
2,43194, Control_c, 0, 64, 55
2,43199, Note_on_c, 0, 41, 0
2,43208, Control_c, 0, 64, 63
2,43223, Control_c, 0, 64, 66
2,43239, Control_c, 0, 64, 69
2,43253, Control_c, 0, 64, 74
2,43268, Control_c, 0, 64, 82
2,43292, Control_c, 0, 64, 92
2,43307, Control_c, 0, 64, 99
2,43323, Control_c, 0, 64, 100
2,43337, Control_c, 0, 64, 99
2,43353, Control_c, 0, 64, 92
2,43368, Control_c, 0, 64, 81
2,43382, Control_c, 0, 64, 72
2,43386, Note_on_c, 0, 53, 54
2,43394, Note_on_c, 0, 59, 50
2,43398, Control_c, 0, 64, 66
2,43413, Control_c, 0, 64, 62
2,43428, Control_c, 0, 64, 46
2,43444, Control_c, 0, 64, 0
2,43474, Control_c, 0, 64, 42
2,43489, Control_c, 0, 64, 59
2,43504, Control_c, 0, 64, 64
2,43520, Control_c, 0, 64, 66
2,43534, Control_c, 0, 64, 70
2,43543, Note_on_c, 0, 59, 0
2,43549, Control_c, 0, 64, 78
2,43551, Note_on_c, 0, 53, 0
2,43565, Control_c, 0, 64, 92
2,43580, Control_c, 0, 64, 127
2,43686, Control_c, 0, 64, 103
2,43701, Control_c, 0, 64, 79
2,43717, Control_c, 0, 64, 67
2,43719, Note_on_c, 0, 61, 74
2,43730, Note_on_c, 0, 58, 59
2,43732, Control_c, 0, 64, 49
2,43735, Note_on_c, 0, 68, 0
2,43747, Control_c, 0, 64, 0
2,43758, Note_on_c, 0, 54, 35
2,43840, Control_c, 0, 64, 39
2,43855, Control_c, 0, 64, 59
2,43870, Control_c, 0, 64, 64
2,43885, Control_c, 0, 64, 67
2,43900, Control_c, 0, 64, 71
2,43916, Control_c, 0, 64, 78
2,43931, Control_c, 0, 64, 87
2,43946, Control_c, 0, 64, 94
2,43962, Control_c, 0, 64, 95
2,43991, Control_c, 0, 64, 92
2,44007, Control_c, 0, 64, 85
2,44013, Note_on_c, 0, 61, 0
2,44022, Control_c, 0, 64, 74
2,44045, Control_c, 0, 64, 66
2,44060, Control_c, 0, 64, 55
2,44065, Note_on_c, 0, 63, 72
2,44066, Note_on_c, 0, 56, 52
2,44076, Control_c, 0, 64, 0
2,44080, Note_on_c, 0, 54, 0
2,44081, Note_on_c, 0, 53, 42
2,44194, Note_on_c, 0, 58, 0
2,44205, Note_on_c, 0, 63, 0
2,44217, Note_on_c, 0, 65, 76
2,44408, Note_on_c, 0, 56, 0
2,44411, Note_on_c, 0, 66, 86
2,44414, Note_on_c, 0, 53, 0
2,44414, Note_on_c, 0, 54, 64
2,44422, Note_on_c, 0, 51, 53
2,44449, Note_on_c, 0, 65, 0
2,44516, Control_c, 0, 64, 26
2,44527, Note_on_c, 0, 66, 0
2,44531, Control_c, 0, 64, 57
2,44546, Control_c, 0, 64, 63
2,44562, Control_c, 0, 64, 65
2,44577, Control_c, 0, 64, 68
2,44591, Control_c, 0, 64, 73
2,44608, Control_c, 0, 64, 80
2,44623, Control_c, 0, 64, 88
2,44633, Note_on_c, 0, 73, 0
2,44639, Control_c, 0, 64, 94
2,44653, Control_c, 0, 64, 95
2,44668, Control_c, 0, 64, 94
2,44684, Control_c, 0, 64, 91
2,44699, Control_c, 0, 64, 85
2,44715, Control_c, 0, 64, 77
2,44729, Control_c, 0, 64, 69
2,44744, Control_c, 0, 64, 64
2,44753, Note_on_c, 0, 68, 80
2,44756, Note_on_c, 0, 71, 69
2,44760, Control_c, 0, 64, 48
2,44775, Control_c, 0, 64, 0
2,44889, Control_c, 0, 64, 54
2,44904, Control_c, 0, 64, 63
2,44917, Note_on_c, 0, 70, 61
2,44920, Control_c, 0, 64, 65
2,44922, Note_on_c, 0, 73, 69
2,44935, Control_c, 0, 64, 67
2,44936, Note_on_c, 0, 71, 0
2,44938, Note_on_c, 0, 68, 0
2,44949, Control_c, 0, 64, 68
2,44965, Control_c, 0, 64, 69
2,44965, Note_on_c, 0, 70, 0
2,44976, Note_on_c, 0, 73, 0
2,44980, Control_c, 0, 64, 67
2,44996, Control_c, 0, 64, 66
2,45011, Control_c, 0, 64, 64
2,45025, Control_c, 0, 64, 62
2,45041, Control_c, 0, 64, 57
2,45056, Control_c, 0, 64, 47
2,45071, Control_c, 0, 64, 24
2,45086, Control_c, 0, 64, 0
2,45095, Note_on_c, 0, 75, 83
2,45103, Note_on_c, 0, 71, 66
2,45221, Note_on_c, 0, 51, 0
2,45248, Note_on_c, 0, 54, 0
2,45252, Note_on_c, 0, 77, 75
2,45257, Note_on_c, 0, 56, 58
2,45325, Note_on_c, 0, 75, 0
2,45420, Note_on_c, 0, 49, 58
2,45422, Note_on_c, 0, 78, 80
2,45426, Note_on_c, 0, 77, 0
2,45428, Note_on_c, 0, 54, 57
2,45431, Note_on_c, 0, 70, 71
2,45435, Note_on_c, 0, 71, 0
2,45437, Note_on_c, 0, 56, 0
2,45564, Note_on_c, 0, 54, 0
2,45585, Note_on_c, 0, 49, 0
2,45597, Note_on_c, 0, 53, 68
2,45775, Note_on_c, 0, 70, 0
2,45777, Note_on_c, 0, 68, 79
2,45782, Note_on_c, 0, 47, 48
2,45793, Note_on_c, 0, 51, 46
2,45821, Note_on_c, 0, 53, 0
2,45824, Note_on_c, 0, 78, 0
2,45905, Note_on_c, 0, 51, 0
2,45941, Note_on_c, 0, 77, 80
2,45943, Note_on_c, 0, 47, 0
2,45943, Note_on_c, 0, 49, 59
2,46091, Note_on_c, 0, 49, 0
2,46097, Note_on_c, 0, 78, 68
2,46113, Note_on_c, 0, 51, 61
2,46125, Note_on_c, 0, 44, 59
2,46198, Note_on_c, 0, 77, 0
2,46251, Note_on_c, 0, 51, 0
2,46255, Note_on_c, 0, 78, 0
2,46257, Note_on_c, 0, 80, 73
2,46290, Note_on_c, 0, 47, 55
2,46324, Note_on_c, 0, 44, 0
2,46453, Note_on_c, 0, 47, 0
2,46457, Note_on_c, 0, 77, 67
2,46471, Note_on_c, 0, 80, 0
2,46478, Note_on_c, 0, 49, 47
2,46620, Note_on_c, 0, 68, 0
2,46624, Note_on_c, 0, 70, 67
2,46765, Note_on_c, 0, 77, 0
2,46833, Note_on_c, 0, 71, 58
2,46847, Note_on_c, 0, 37, 37
2,46865, Note_on_c, 0, 70, 0
2,46895, Control_c, 0, 67, 26
2,46910, Control_c, 0, 67, 54
2,46926, Control_c, 0, 67, 90
2,46941, Control_c, 0, 67, 120
2,46953, Note_on_c, 0, 49, 0
2,46957, Control_c, 0, 67, 127
2,47027, Note_on_c, 0, 78, 50
2,47038, Note_on_c, 0, 71, 0
2,47079, Control_c, 0, 64, 28
2,47094, Control_c, 0, 64, 54
2,47109, Control_c, 0, 64, 62
2,47132, Control_c, 0, 64, 65
2,47147, Control_c, 0, 64, 67
2,47163, Control_c, 0, 64, 69
2,47164, Note_on_c, 0, 78, 0
2,47177, Control_c, 0, 64, 73
2,47193, Control_c, 0, 64, 78
2,47208, Control_c, 0, 64, 83
2,47223, Control_c, 0, 64, 83
2,47251, Note_on_c, 0, 37, 0
2,47254, Control_c, 0, 64, 81
2,47269, Control_c, 0, 64, 80
2,47284, Control_c, 0, 64, 79
2,47299, Control_c, 0, 64, 77
2,47315, Control_c, 0, 64, 73
2,47329, Control_c, 0, 64, 68
2,47344, Control_c, 0, 64, 63
2,47360, Control_c, 0, 64, 54
2,47365, Note_on_c, 0, 78, 46
2,47375, Control_c, 0, 64, 0
2,47376, Note_on_c, 0, 70, 36
2,47383, Note_on_c, 0, 42, 40
2,47526, Control_c, 0, 64, 47
2,47529, Note_on_c, 0, 42, 0
2,47534, Note_on_c, 0, 78, 0
2,47541, Control_c, 0, 64, 61
2,47557, Control_c, 0, 64, 64
2,47572, Control_c, 0, 64, 66
2,47587, Control_c, 0, 64, 68
2,47603, Control_c, 0, 64, 69
2,47618, Control_c, 0, 64, 69
2,47662, Control_c, 0, 64, 69
2,47708, Control_c, 0, 64, 68
2,47738, Control_c, 0, 64, 68
2,47799, Control_c, 0, 64, 67
2,47814, Control_c, 0, 64, 66
2,47829, Control_c, 0, 64, 65
2,47845, Control_c, 0, 64, 63
2,47859, Control_c, 0, 64, 61
2,47862, Note_on_c, 0, 78, 52
2,47875, Control_c, 0, 64, 56
2,47899, Control_c, 0, 64, 47
2,47909, Note_on_c, 0, 54, 34
2,47915, Control_c, 0, 64, 26
2,47930, Control_c, 0, 64, 0
2,47958, Note_on_c, 0, 70, 0
2,48060, Note_on_c, 0, 54, 0
2,48080, Note_on_c, 0, 52, 37
2,48234, Note_on_c, 0, 52, 0
2,48245, Note_on_c, 0, 72, 50
2,48246, Note_on_c, 0, 80, 56
2,48252, Note_on_c, 0, 54, 31
2,48279, Note_on_c, 0, 78, 0
2,48370, Note_on_c, 0, 54, 0
2,48395, Note_on_c, 0, 56, 41
2,48530, Note_on_c, 0, 80, 0
2,48554, Note_on_c, 0, 56, 0
2,48566, Note_on_c, 0, 78, 55
2,48583, Note_on_c, 0, 75, 48
2,48590, Note_on_c, 0, 58, 40
2,48739, Note_on_c, 0, 58, 0
2,48762, Note_on_c, 0, 60, 40
2,48909, Note_on_c, 0, 75, 0
2,48924, Note_on_c, 0, 76, 61
2,48930, Note_on_c, 0, 60, 0
2,48941, Note_on_c, 0, 61, 45
2,48963, Note_on_c, 0, 78, 0
2,48964, Note_on_c, 0, 72, 0
2,49277, Note_on_c, 0, 73, 42
2,49281, Note_on_c, 0, 61, 0
2,49290, Note_on_c, 0, 59, 38
2,49460, Note_on_c, 0, 58, 36
2,49497, Note_on_c, 0, 59, 0
2,49629, Note_on_c, 0, 76, 0
2,49638, Note_on_c, 0, 56, 33
2,49639, Note_on_c, 0, 83, 58
2,49640, Note_on_c, 0, 58, 0
2,49676, Note_on_c, 0, 73, 0
2,49774, Note_on_c, 0, 56, 0
2,49805, Note_on_c, 0, 54, 39
2,49963, Note_on_c, 0, 82, 66
2,49965, Note_on_c, 0, 54, 0
2,49993, Note_on_c, 0, 56, 33
2,50028, Control_c, 0, 64, 50
2,50044, Control_c, 0, 64, 61
2,50058, Control_c, 0, 64, 63
2,50074, Control_c, 0, 64, 64
2,50089, Control_c, 0, 64, 65
2,50104, Control_c, 0, 64, 66
2,50120, Control_c, 0, 64, 66
2,50122, Note_on_c, 0, 80, 68
2,50131, Note_on_c, 0, 58, 37
2,50149, Control_c, 0, 64, 67
2,50153, Note_on_c, 0, 56, 0
2,50171, Note_on_c, 0, 58, 0
2,50206, Note_on_c, 0, 83, 0
2,50218, Control_c, 0, 64, 66
2,50234, Control_c, 0, 64, 66
2,50249, Control_c, 0, 64, 65
2,50264, Control_c, 0, 64, 64
2,50279, Control_c, 0, 64, 63
2,50290, Note_on_c, 0, 82, 0
2,50294, Control_c, 0, 64, 60
2,50309, Control_c, 0, 64, 55
2,50309, Note_on_c, 0, 78, 69
2,50321, Note_on_c, 0, 59, 44
2,50324, Control_c, 0, 64, 46
2,50339, Control_c, 0, 64, 31
2,50357, Control_c, 0, 64, 0
2,50400, Note_on_c, 0, 80, 0
2,50470, Note_on_c, 0, 63, 42
2,50588, Note_on_c, 0, 63, 0
2,50633, Note_on_c, 0, 76, 62
2,50638, Note_on_c, 0, 64, 42
2,50639, Note_on_c, 0, 78, 0
2,50800, Note_on_c, 0, 75, 64
2,50804, Note_on_c, 0, 64, 0
2,50809, Note_on_c, 0, 76, 0
2,50817, Note_on_c, 0, 66, 40
2,50958, Note_on_c, 0, 66, 0
2,50981, Note_on_c, 0, 73, 67
2,50986, Note_on_c, 0, 68, 49
2,50999, Note_on_c, 0, 75, 0
2,51107, Note_on_c, 0, 68, 0
2,51128, Note_on_c, 0, 66, 51
2,51255, Note_on_c, 0, 66, 0
2,51300, Note_on_c, 0, 64, 45
2,51316, Note_on_c, 0, 75, 75
2,51341, Note_on_c, 0, 73, 0
2,51458, Note_on_c, 0, 64, 0
2,51464, Note_on_c, 0, 63, 48
2,51612, Note_on_c, 0, 63, 0
2,51634, Note_on_c, 0, 61, 53
2,51636, Note_on_c, 0, 76, 73
2,51665, Note_on_c, 0, 59, 0
2,51685, Note_on_c, 0, 75, 0
2,51790, Note_on_c, 0, 61, 0
2,51801, Note_on_c, 0, 59, 37
2,51976, Note_on_c, 0, 58, 46
2,52017, Note_on_c, 0, 59, 0
2,52111, Note_on_c, 0, 58, 0
2,52143, Note_on_c, 0, 56, 45
2,52307, Note_on_c, 0, 73, 51
2,52317, Note_on_c, 0, 56, 0
2,52318, Note_on_c, 0, 54, 40
2,52443, Note_on_c, 0, 54, 0
2,52476, Note_on_c, 0, 52, 47
2,52649, Note_on_c, 0, 51, 50
2,52664, Note_on_c, 0, 52, 0
2,52781, Note_on_c, 0, 51, 0
2,52806, Note_on_c, 0, 49, 48
2,52955, Note_on_c, 0, 49, 0
2,52962, Note_on_c, 0, 75, 60
2,52972, Note_on_c, 0, 47, 49
2,52996, Note_on_c, 0, 76, 0
2,53106, Note_on_c, 0, 73, 0
2,53124, Note_on_c, 0, 49, 47
2,53129, Note_on_c, 0, 47, 0
2,53173, Note_on_c, 0, 75, 0
2,53191, Control_c, 0, 64, 17
2,53252, Control_c, 0, 64, 0
2,53275, Control_c, 0, 67, 126
2,53289, Control_c, 0, 67, 124
2,53304, Control_c, 0, 67, 122
2,53308, Note_on_c, 0, 71, 67
2,53315, Note_on_c, 0, 51, 49
2,53320, Control_c, 0, 67, 120
2,53321, Note_on_c, 0, 49, 0
2,53335, Control_c, 0, 67, 117
2,53350, Control_c, 0, 67, 115
2,53366, Control_c, 0, 67, 113
2,53381, Control_c, 0, 67, 110
2,53397, Control_c, 0, 67, 108
2,53411, Control_c, 0, 67, 107
2,53426, Control_c, 0, 67, 107
2,53442, Control_c, 0, 67, 106
2,53457, Control_c, 0, 67, 105
2,53457, Note_on_c, 0, 51, 0
2,53473, Control_c, 0, 67, 105
2,53475, Note_on_c, 0, 52, 49
2,53487, Control_c, 0, 67, 104
2,53518, Control_c, 0, 67, 104
2,53533, Control_c, 0, 67, 103
2,53548, Control_c, 0, 67, 101
2,53564, Control_c, 0, 67, 100
2,53578, Control_c, 0, 67, 98
2,53594, Control_c, 0, 67, 95
2,53609, Control_c, 0, 67, 92
2,53625, Control_c, 0, 67, 89
2,53635, Note_on_c, 0, 52, 0
2,53638, Note_on_c, 0, 75, 87
2,53641, Control_c, 0, 67, 87
2,53650, Note_on_c, 0, 54, 54
2,53655, Control_c, 0, 67, 84
2,53670, Control_c, 0, 67, 81
2,53681, Note_on_c, 0, 71, 0
2,53686, Control_c, 0, 67, 79
2,53701, Control_c, 0, 67, 78
2,53717, Control_c, 0, 67, 77
2,53762, Control_c, 0, 67, 76
2,53788, Note_on_c, 0, 54, 0
2,53795, Note_on_c, 0, 56, 58
2,53955, Note_on_c, 0, 56, 0
2,53963, Note_on_c, 0, 58, 58
2,53963, Note_on_c, 0, 73, 75
2,53964, Note_on_c, 0, 78, 74
2,54005, Note_on_c, 0, 75, 0
2,54139, Note_on_c, 0, 54, 50
2,54153, Note_on_c, 0, 58, 0
2,54287, Note_on_c, 0, 54, 0
2,54310, Note_on_c, 0, 56, 54
2,54315, Note_on_c, 0, 71, 83
2,54326, Note_on_c, 0, 73, 0
2,54332, Control_c, 0, 67, 77
2,54342, Note_on_c, 0, 78, 0
2,54464, Note_on_c, 0, 77, 67
2,54469, Note_on_c, 0, 49, 54
2,54485, Control_c, 0, 67, 77
2,54516, Control_c, 0, 67, 78
2,54612, Note_on_c, 0, 56, 0
2,54622, Control_c, 0, 67, 78
2,54637, Note_on_c, 0, 78, 71
2,54638, Note_on_c, 0, 51, 65
2,54683, Control_c, 0, 67, 79
2,54743, Control_c, 0, 64, 49
2,54759, Control_c, 0, 64, 60
2,54767, Note_on_c, 0, 77, 0
2,54768, Note_on_c, 0, 49, 0
2,54773, Control_c, 0, 64, 63
2,54784, Note_on_c, 0, 80, 69
2,54788, Control_c, 0, 64, 64
2,54809, Note_on_c, 0, 53, 58
2,54812, Control_c, 0, 64, 65
2,54814, Note_on_c, 0, 51, 0
2,54815, Note_on_c, 0, 78, 0
2,54827, Control_c, 0, 64, 66
2,54834, Note_on_c, 0, 80, 0
2,54843, Control_c, 0, 64, 68
2,54857, Control_c, 0, 64, 70
2,54873, Control_c, 0, 64, 72
2,54888, Control_c, 0, 64, 74
2,54918, Control_c, 0, 64, 72
2,54933, Control_c, 0, 64, 69
2,54948, Control_c, 0, 64, 66
2,54964, Control_c, 0, 64, 64
2,54964, Control_c, 0, 67, 78
2,54966, Note_on_c, 0, 53, 0
2,54970, Note_on_c, 0, 54, 62
2,54978, Control_c, 0, 64, 62
2,54978, Note_on_c, 0, 71, 0
2,54983, Note_on_c, 0, 78, 79
2,54986, Note_on_c, 0, 82, 79
2,54994, Control_c, 0, 64, 60
2,54994, Control_c, 0, 67, 78
2,55009, Control_c, 0, 64, 56
2,55024, Control_c, 0, 64, 49
2,55039, Control_c, 0, 64, 42
2,55054, Control_c, 0, 64, 33
2,55069, Control_c, 0, 64, 0
2,55122, Note_on_c, 0, 47, 64
2,55125, Note_on_c, 0, 54, 0
2,55133, Note_on_c, 0, 80, 83
2,55169, Note_on_c, 0, 82, 0
2,55289, Note_on_c, 0, 59, 79
2,55290, Note_on_c, 0, 82, 76
2,55296, Note_on_c, 0, 77, 75
2,55318, Note_on_c, 0, 78, 0
2,55359, Control_c, 0, 64, 47
2,55374, Control_c, 0, 64, 59
2,55386, Note_on_c, 0, 80, 0
2,55389, Control_c, 0, 64, 63
2,55405, Control_c, 0, 64, 65
2,55420, Control_c, 0, 64, 66
2,55430, Note_on_c, 0, 83, 63
2,55466, Control_c, 0, 64, 65
2,55469, Note_on_c, 0, 77, 0
2,55473, Note_on_c, 0, 75, 61
2,55473, Note_on_c, 0, 82, 0
2,55477, Note_on_c, 0, 83, 0
2,55491, Note_on_c, 0, 75, 0
2,55496, Control_c, 0, 64, 65
2,55527, Control_c, 0, 64, 64
2,55534, Note_on_c, 0, 47, 0
2,55541, Control_c, 0, 64, 64
2,55541, Control_c, 0, 67, 78
2,55557, Control_c, 0, 64, 63
2,55579, Control_c, 0, 64, 63
2,55579, Control_c, 0, 67, 79
2,55595, Control_c, 0, 64, 61
2,55610, Control_c, 0, 64, 56
2,55619, Note_on_c, 0, 73, 72
2,55625, Control_c, 0, 64, 50
2,55628, Note_on_c, 0, 77, 69
2,55641, Control_c, 0, 64, 44
2,55655, Control_c, 0, 64, 33
2,55655, Control_c, 0, 67, 79
2,55670, Control_c, 0, 64, 28
2,55670, Control_c, 0, 67, 80
2,55686, Control_c, 0, 64, 26
2,55717, Control_c, 0, 64, 24
2,55772, Note_on_c, 0, 58, 64
2,55777, Control_c, 0, 64, 22
2,55793, Control_c, 0, 64, 20
2,55798, Note_on_c, 0, 59, 0
2,55868, Control_c, 0, 64, 17
2,55883, Control_c, 0, 64, 0
2,55906, Note_on_c, 0, 73, 0
2,55943, Note_on_c, 0, 71, 73
2,55958, Note_on_c, 0, 59, 56
2,56096, Note_on_c, 0, 58, 0
2,56103, Note_on_c, 0, 70, 83
2,56111, Note_on_c, 0, 71, 0
2,56118, Note_on_c, 0, 61, 60
2,56121, Note_on_c, 0, 77, 0
2,56124, Note_on_c, 0, 59, 0
2,56265, Note_on_c, 0, 61, 0
2,56273, Note_on_c, 0, 63, 58
2,56273, Note_on_c, 0, 78, 69
2,56276, Note_on_c, 0, 68, 74
2,56303, Note_on_c, 0, 70, 0
2,56461, Note_on_c, 0, 61, 48
2,56519, Note_on_c, 0, 63, 0
2,56589, Note_on_c, 0, 61, 0
2,56598, Note_on_c, 0, 70, 79
2,56620, Control_c, 0, 67, 80
2,56621, Note_on_c, 0, 59, 48
2,56686, Note_on_c, 0, 68, 0
2,56726, Control_c, 0, 64, 34
2,56741, Control_c, 0, 64, 56
2,56757, Control_c, 0, 64, 62
2,56763, Note_on_c, 0, 58, 58
2,56772, Control_c, 0, 64, 64
2,56772, Note_on_c, 0, 59, 0
2,56787, Control_c, 0, 64, 66
2,56800, Note_on_c, 0, 58, 0
2,56802, Control_c, 0, 64, 67
2,56817, Control_c, 0, 64, 69
2,56833, Control_c, 0, 64, 71
2,56848, Control_c, 0, 64, 73
2,56863, Control_c, 0, 64, 75
2,56895, Control_c, 0, 64, 75
2,56910, Control_c, 0, 64, 74
2,56926, Control_c, 0, 64, 70
2,56941, Control_c, 0, 64, 67
2,56948, Note_on_c, 0, 71, 57
2,56956, Control_c, 0, 64, 65
2,56967, Note_on_c, 0, 56, 50
2,56970, Note_on_c, 0, 70, 0
2,56971, Control_c, 0, 64, 63
2,56986, Control_c, 0, 64, 59
2,57002, Control_c, 0, 64, 54
2,57017, Control_c, 0, 64, 46
2,57025, Note_on_c, 0, 78, 0
2,57031, Control_c, 0, 64, 39
2,57047, Control_c, 0, 64, 38
2,57062, Control_c, 0, 67, 81
2,57078, Control_c, 0, 64, 36
2,57093, Control_c, 0, 64, 33
2,57116, Control_c, 0, 64, 28
2,57116, Control_c, 0, 67, 81
2,57131, Control_c, 0, 64, 22
2,57146, Control_c, 0, 64, 17
2,57161, Control_c, 0, 64, 0
2,57317, Note_on_c, 0, 47, 51
2,57329, Note_on_c, 0, 76, 47
2,57492, Note_on_c, 0, 75, 61
2,57499, Note_on_c, 0, 76, 0
2,57539, Note_on_c, 0, 71, 0
2,57655, Note_on_c, 0, 73, 56
2,57663, Note_on_c, 0, 46, 68
2,57677, Note_on_c, 0, 47, 0
2,57678, Control_c, 0, 67, 81
2,57692, Note_on_c, 0, 75, 0
2,57725, Control_c, 0, 67, 80
2,57739, Control_c, 0, 67, 80
2,57770, Control_c, 0, 67, 79
2,57785, Control_c, 0, 67, 79
2,57803, Note_on_c, 0, 73, 0
2,57815, Control_c, 0, 67, 78
2,57817, Note_on_c, 0, 71, 54
2,57830, Control_c, 0, 67, 77
2,57846, Control_c, 0, 67, 76
2,57861, Control_c, 0, 67, 74
2,57884, Control_c, 0, 67, 72
2,57899, Control_c, 0, 67, 67
2,57915, Control_c, 0, 67, 56
2,57929, Control_c, 0, 67, 45
2,57944, Control_c, 0, 67, 31
2,57960, Control_c, 0, 67, 21
2,57975, Control_c, 0, 67, 13
2,57990, Control_c, 0, 67, 8
2,58001, Note_on_c, 0, 73, 69
2,58005, Control_c, 0, 67, 0
2,58011, Note_on_c, 0, 47, 77
2,58087, Note_on_c, 0, 46, 0
2,58172, Note_on_c, 0, 75, 70
2,58203, Note_on_c, 0, 73, 0
2,58322, Note_on_c, 0, 75, 0
2,58336, Note_on_c, 0, 76, 59
2,58340, Note_on_c, 0, 49, 81
2,58375, Note_on_c, 0, 47, 0
2,58419, Note_on_c, 0, 56, 0
2,58445, Note_on_c, 0, 76, 0
2,58446, Control_c, 0, 64, 28
2,58461, Control_c, 0, 64, 42
2,58477, Control_c, 0, 64, 49
2,58491, Control_c, 0, 64, 54
2,58506, Control_c, 0, 64, 56
2,58522, Control_c, 0, 64, 58
2,58524, Note_on_c, 0, 78, 57
2,58554, Control_c, 0, 64, 58
2,58583, Control_c, 0, 64, 58
2,58599, Control_c, 0, 64, 56
2,58614, Control_c, 0, 64, 52
2,58629, Control_c, 0, 64, 44
2,58652, Control_c, 0, 64, 0
2,58663, Note_on_c, 0, 78, 0
2,58687, Note_on_c, 0, 80, 60
2,58690, Note_on_c, 0, 54, 53
2,58759, Control_c, 0, 64, 22
2,58773, Control_c, 0, 64, 53
2,58788, Control_c, 0, 64, 61
2,58804, Control_c, 0, 64, 63
2,58819, Control_c, 0, 64, 65
2,58821, Note_on_c, 0, 71, 0
2,58833, Note_on_c, 0, 52, 66
2,58835, Control_c, 0, 64, 68
2,58837, Note_on_c, 0, 54, 0
2,58849, Control_c, 0, 64, 73
2,58864, Control_c, 0, 64, 81
2,58869, Note_on_c, 0, 52, 0
2,58876, Note_on_c, 0, 49, 0
2,58880, Control_c, 0, 64, 95
2,58895, Control_c, 0, 64, 127
2,58942, Note_on_c, 0, 80, 0
2,58985, Control_c, 0, 64, 94
2,59001, Control_c, 0, 64, 78
2,59016, Control_c, 0, 64, 69
2,59029, Note_on_c, 0, 42, 63
2,59031, Control_c, 0, 64, 64
2,59031, Note_on_c, 0, 54, 56
2,59034, Note_on_c, 0, 70, 56
2,59046, Control_c, 0, 64, 56
2,59061, Control_c, 0, 64, 35
2,59077, Control_c, 0, 64, 0
2,59186, Note_on_c, 0, 80, 63
2,59343, Note_on_c, 0, 44, 72
2,59350, Note_on_c, 0, 80, 0
2,59354, Note_on_c, 0, 78, 62
2,59377, Note_on_c, 0, 73, 52
2,59398, Control_c, 0, 64, 53
2,59419, Control_c, 0, 64, 61
2,59435, Control_c, 0, 64, 63
2,59440, Note_on_c, 0, 78, 0
2,59450, Note_on_c, 0, 42, 0
2,59481, Control_c, 0, 64, 61
2,59491, Note_on_c, 0, 73, 0
2,59495, Control_c, 0, 64, 58
2,59510, Control_c, 0, 64, 55
2,59525, Note_on_c, 0, 76, 65
2,59526, Control_c, 0, 64, 52
2,59526, Note_on_c, 0, 44, 0
2,59535, Note_on_c, 0, 46, 62
2,59541, Control_c, 0, 64, 47
2,59557, Control_c, 0, 64, 42
2,59572, Control_c, 0, 64, 39
2,59587, Control_c, 0, 64, 28
2,59594, Note_on_c, 0, 46, 0
2,59603, Control_c, 0, 64, 0
2,59619, Note_on_c, 0, 54, 0
2,59685, Note_on_c, 0, 47, 72
2,59689, Note_on_c, 0, 75, 77
2,59734, Note_on_c, 0, 70, 0
2,59846, Note_on_c, 0, 73, 68
2,60007, Note_on_c, 0, 49, 74
2,60007, Note_on_c, 0, 76, 0
2,60009, Note_on_c, 0, 75, 0
2,60015, Note_on_c, 0, 71, 69
2,60015, Note_on_c, 0, 73, 0
2,60035, Note_on_c, 0, 47, 0
2,60163, Note_on_c, 0, 71, 0
2,60178, Note_on_c, 0, 70, 64
2,60180, Note_on_c, 0, 51, 79
2,60197, Note_on_c, 0, 49, 0
2,60385, Note_on_c, 0, 52, 80
2,60401, Note_on_c, 0, 51, 0
2,60402, Note_on_c, 0, 68, 65
2,60408, Note_on_c, 0, 70, 0
2,60575, Note_on_c, 0, 68, 0
2,60576, Note_on_c, 0, 73, 55
2,60694, Note_on_c, 0, 73, 0
2,60715, Note_on_c, 0, 51, 73
2,60724, Note_on_c, 0, 66, 57
2,60761, Note_on_c, 0, 52, 0
2,60874, Note_on_c, 0, 66, 0
2,60902, Note_on_c, 0, 71, 52
2,61071, Note_on_c, 0, 49, 58
2,61075, Note_on_c, 0, 51, 0
2,61077, Control_c, 0, 67, 24
2,61086, Note_on_c, 0, 64, 63
2,61092, Control_c, 0, 67, 49
2,61106, Control_c, 0, 67, 81
2,61122, Control_c, 0, 67, 117
2,61137, Control_c, 0, 67, 127
2,61163, Note_on_c, 0, 71, 0
2,61223, Note_on_c, 0, 49, 0
2,61245, Note_on_c, 0, 51, 55
2,61299, Note_on_c, 0, 51, 0
2,61328, Note_on_c, 0, 49, 60
2,61370, Note_on_c, 0, 49, 0
2,61372, Note_on_c, 0, 70, 61
2,61404, Note_on_c, 0, 51, 61
2,61441, Note_on_c, 0, 51, 0
2,61470, Note_on_c, 0, 49, 61
2,61514, Note_on_c, 0, 49, 0
2,61536, Note_on_c, 0, 51, 56
2,61550, Note_on_c, 0, 70, 0
2,61554, Note_on_c, 0, 71, 60
2,61596, Note_on_c, 0, 51, 0
2,61612, Note_on_c, 0, 49, 61
2,61626, Note_on_c, 0, 71, 0
2,61673, Note_on_c, 0, 49, 0
2,61699, Note_on_c, 0, 51, 59
2,61716, Note_on_c, 0, 73, 62
2,61754, Note_on_c, 0, 51, 0
2,61786, Note_on_c, 0, 49, 59
2,61829, Note_on_c, 0, 49, 0
2,61860, Note_on_c, 0, 75, 68
2,61862, Note_on_c, 0, 51, 53
2,61914, Note_on_c, 0, 51, 0
2,61923, Note_on_c, 0, 73, 0
2,61934, Note_on_c, 0, 49, 56
2,61991, Note_on_c, 0, 49, 0
2,62012, Note_on_c, 0, 51, 57
2,62034, Note_on_c, 0, 76, 62
2,62048, Note_on_c, 0, 64, 0
2,62064, Note_on_c, 0, 51, 0
2,62082, Note_on_c, 0, 75, 0
2,62099, Note_on_c, 0, 49, 52
2,62153, Note_on_c, 0, 49, 0
2,62171, Note_on_c, 0, 51, 58
2,62193, Note_on_c, 0, 66, 64
2,62224, Note_on_c, 0, 51, 0
2,62263, Note_on_c, 0, 49, 52
2,62324, Note_on_c, 0, 49, 0
2,62324, Note_on_c, 0, 66, 0
2,62358, Note_on_c, 0, 68, 58
2,62370, Note_on_c, 0, 47, 57
2,62412, Note_on_c, 0, 47, 0
2,62522, Note_on_c, 0, 70, 68
2,62533, Note_on_c, 0, 76, 0
2,62538, Note_on_c, 0, 68, 0
2,62700, Note_on_c, 0, 75, 69
2,62702, Note_on_c, 0, 59, 64
2,62706, Note_on_c, 0, 71, 56
2,62729, Note_on_c, 0, 70, 0
2,62861, Note_on_c, 0, 61, 76
2,62869, Note_on_c, 0, 59, 0
2,62870, Control_c, 0, 64, 34
2,62870, Note_on_c, 0, 76, 63
2,62883, Note_on_c, 0, 75, 0
2,62886, Control_c, 0, 64, 54
2,62901, Control_c, 0, 64, 60
2,62917, Control_c, 0, 64, 63
2,62925, Note_on_c, 0, 76, 0
2,62932, Control_c, 0, 64, 64
2,62947, Control_c, 0, 64, 66
2,62963, Control_c, 0, 64, 67
2,62963, Control_c, 0, 67, 126
2,62978, Control_c, 0, 64, 67
2,62978, Control_c, 0, 67, 117
2,62993, Control_c, 0, 67, 104
2,63008, Control_c, 0, 64, 66
2,63008, Control_c, 0, 67, 87
2,63011, Note_on_c, 0, 61, 0
2,63022, Control_c, 0, 64, 65
2,63022, Control_c, 0, 67, 67
2,63027, Note_on_c, 0, 59, 82
2,63033, Note_on_c, 0, 78, 82
2,63037, Control_c, 0, 64, 64
2,63037, Control_c, 0, 67, 48
2,63052, Control_c, 0, 64, 63
2,63052, Control_c, 0, 67, 28
2,63067, Control_c, 0, 64, 62
2,63067, Control_c, 0, 67, 11
2,63083, Control_c, 0, 67, 0
2,63098, Control_c, 0, 64, 61
2,63113, Control_c, 0, 64, 59
2,63128, Control_c, 0, 64, 58
2,63143, Control_c, 0, 64, 57
2,63174, Control_c, 0, 64, 56
2,63183, Note_on_c, 0, 80, 81
2,63188, Control_c, 0, 64, 56
2,63198, Note_on_c, 0, 57, 85
2,63204, Control_c, 0, 64, 55
2,63222, Note_on_c, 0, 59, 0
2,63273, Control_c, 0, 64, 56
2,63299, Note_on_c, 0, 78, 0
2,63326, Note_on_c, 0, 80, 0
2,63333, Control_c, 0, 64, 55
2,63348, Control_c, 0, 64, 54
2,63360, Note_on_c, 0, 81, 71
2,63364, Control_c, 0, 64, 52
2,63375, Note_on_c, 0, 73, 77
2,63376, Note_on_c, 0, 56, 77
2,63377, Note_on_c, 0, 57, 0
2,63379, Control_c, 0, 64, 49
2,63395, Control_c, 0, 64, 45
2,63409, Control_c, 0, 64, 42
2,63418, Note_on_c, 0, 71, 0
2,63424, Control_c, 0, 64, 42
2,63440, Control_c, 0, 64, 41
2,63471, Control_c, 0, 64, 40
2,63537, Note_on_c, 0, 54, 72
2,63543, Note_on_c, 0, 75, 80
2,63549, Note_on_c, 0, 56, 0
2,63562, Control_c, 0, 64, 36
2,63577, Control_c, 0, 64, 32
2,63593, Control_c, 0, 64, 22
2,63608, Control_c, 0, 64, 0
2,63620, Note_on_c, 0, 73, 0
2,63690, Note_on_c, 0, 75, 0
2,63702, Note_on_c, 0, 54, 0
2,63716, Note_on_c, 0, 52, 65
2,63718, Note_on_c, 0, 81, 0
2,63726, Note_on_c, 0, 76, 65
2,63874, Note_on_c, 0, 80, 57
2,63893, Note_on_c, 0, 52, 0
2,64031, Note_on_c, 0, 80, 0
2,64039, Note_on_c, 0, 76, 0
2,64051, Note_on_c, 0, 81, 58
2,64060, Note_on_c, 0, 64, 78
2,64213, Note_on_c, 0, 81, 0
2,64227, Note_on_c, 0, 80, 58
2,64418, Note_on_c, 0, 63, 80
2,64437, Note_on_c, 0, 78, 57
2,64441, Note_on_c, 0, 57, 63
2,64456, Note_on_c, 0, 64, 0
2,64463, Note_on_c, 0, 80, 0
2,64546, Note_on_c, 0, 78, 0
2,64574, Control_c, 0, 64, 13
2,64576, Note_on_c, 0, 76, 59
2,64589, Control_c, 0, 64, 24
2,64605, Control_c, 0, 64, 31
2,64619, Control_c, 0, 64, 35
2,64635, Control_c, 0, 64, 40
2,64650, Control_c, 0, 64, 42
2,64665, Control_c, 0, 64, 43
2,64681, Control_c, 0, 64, 44
2,64711, Control_c, 0, 64, 44
2,64741, Control_c, 0, 64, 46
2,64757, Control_c, 0, 64, 53
2,64767, Note_on_c, 0, 75, 76
2,64779, Control_c, 0, 64, 58
2,64782, Note_on_c, 0, 64, 81
2,64787, Note_on_c, 0, 76, 0
2,64795, Control_c, 0, 64, 62
2,64795, Note_on_c, 0, 63, 0
2,64806, Note_on_c, 0, 57, 0
2,64810, Control_c, 0, 64, 64
2,64824, Control_c, 0, 64, 66
2,64840, Control_c, 0, 64, 69
2,64855, Control_c, 0, 64, 75
2,64870, Control_c, 0, 64, 85
2,64886, Control_c, 0, 64, 112
2,64901, Control_c, 0, 64, 127
2,64940, Note_on_c, 0, 73, 66
2,65048, Note_on_c, 0, 75, 0
2,65088, Note_on_c, 0, 72, 13
2,65098, Note_on_c, 0, 73, 0
2,65115, Control_c, 0, 64, 85
2,65119, Note_on_c, 0, 66, 92
2,65121, Note_on_c, 0, 51, 68
2,65130, Control_c, 0, 64, 71
2,65138, Note_on_c, 0, 72, 0
2,65145, Control_c, 0, 64, 64
2,65158, Note_on_c, 0, 64, 0
2,65161, Control_c, 0, 64, 49
2,65175, Control_c, 0, 64, 0
2,65234, Control_c, 0, 64, 32
2,65249, Control_c, 0, 64, 51
2,65264, Control_c, 0, 64, 58
2,65280, Control_c, 0, 64, 61
2,65287, Note_on_c, 0, 61, 53
2,65294, Control_c, 0, 64, 63
2,65309, Control_c, 0, 64, 63
2,65340, Control_c, 0, 64, 63
2,65355, Control_c, 0, 64, 62
2,65370, Control_c, 0, 64, 60
2,65385, Control_c, 0, 64, 55
2,65401, Control_c, 0, 64, 45
2,65416, Control_c, 0, 64, 28
2,65422, Note_on_c, 0, 61, 0
2,65431, Control_c, 0, 64, 17
2,65436, Note_on_c, 0, 73, 62
2,65444, Note_on_c, 0, 60, 65
2,65446, Control_c, 0, 64, 26
2,65461, Control_c, 0, 64, 42
2,65476, Control_c, 0, 64, 53
2,65492, Control_c, 0, 64, 59
2,65507, Control_c, 0, 64, 61
2,65523, Control_c, 0, 64, 62
2,65538, Control_c, 0, 64, 63
2,65561, Control_c, 0, 64, 64
2,65575, Control_c, 0, 64, 64
2,65590, Control_c, 0, 64, 65
2,65597, Note_on_c, 0, 60, 0
2,65603, Note_on_c, 0, 58, 69
2,65606, Control_c, 0, 64, 65
2,65621, Control_c, 0, 64, 66
2,65636, Control_c, 0, 64, 66
2,65651, Control_c, 0, 64, 68
2,65666, Control_c, 0, 64, 69
2,65682, Control_c, 0, 64, 69
2,65697, Control_c, 0, 64, 70
2,65712, Control_c, 0, 64, 69
2,65728, Control_c, 0, 64, 68
2,65730, Note_on_c, 0, 66, 0
2,65742, Control_c, 0, 64, 65
2,65757, Control_c, 0, 64, 61
2,65773, Control_c, 0, 64, 49
2,65776, Note_on_c, 0, 60, 83
2,65779, Note_on_c, 0, 58, 0
2,65788, Control_c, 0, 64, 0
2,65789, Note_on_c, 0, 56, 76
2,65800, Note_on_c, 0, 75, 69
2,65806, Note_on_c, 0, 51, 0
2,65865, Note_on_c, 0, 73, 0
2,65895, Control_c, 0, 64, 24
2,65910, Control_c, 0, 64, 49
2,65926, Control_c, 0, 64, 58
2,65941, Control_c, 0, 64, 62
2,65956, Control_c, 0, 64, 64
2,65961, Note_on_c, 0, 54, 58
2,65972, Control_c, 0, 64, 66
2,65974, Note_on_c, 0, 60, 0
2,65987, Control_c, 0, 64, 68
2,65998, Note_on_c, 0, 56, 0
2,66003, Control_c, 0, 64, 70
2,66017, Control_c, 0, 64, 73
2,66032, Control_c, 0, 64, 76
2,66048, Control_c, 0, 64, 76
2,66062, Note_on_c, 0, 54, 0
2,66063, Control_c, 0, 64, 75
2,66078, Control_c, 0, 64, 70
2,66093, Control_c, 0, 64, 65
2,66104, Note_on_c, 0, 52, 59
2,66108, Control_c, 0, 64, 59
2,66124, Control_c, 0, 64, 41
2,66125, Note_on_c, 0, 61, 80
2,66138, Control_c, 0, 64, 0
2,66153, Control_c, 0, 64, 26
2,66169, Control_c, 0, 64, 51
2,66173, Note_on_c, 0, 52, 0
2,66184, Control_c, 0, 64, 61
2,66200, Control_c, 0, 64, 64
2,66214, Control_c, 0, 64, 66
2,66229, Control_c, 0, 64, 68
2,66245, Control_c, 0, 64, 72
2,66260, Control_c, 0, 64, 77
2,66269, Note_on_c, 0, 63, 86
2,66272, Note_on_c, 0, 51, 69
2,66275, Control_c, 0, 64, 82
2,66290, Control_c, 0, 64, 85
2,66305, Control_c, 0, 64, 86
2,66335, Note_on_c, 0, 61, 0
2,66343, Control_c, 0, 64, 86
2,66358, Control_c, 0, 64, 87
2,66374, Control_c, 0, 64, 86
2,66381, Note_on_c, 0, 63, 0
2,66389, Control_c, 0, 64, 78
2,66405, Control_c, 0, 64, 69
2,66419, Control_c, 0, 64, 63
2,66434, Control_c, 0, 64, 0
2,66468, Note_on_c, 0, 49, 69
2,66469, Note_on_c, 0, 64, 94
2,66495, Control_c, 0, 64, 55
2,66498, Note_on_c, 0, 51, 0
2,66503, Note_on_c, 0, 75, 0
2,66510, Control_c, 0, 64, 63
2,66526, Control_c, 0, 64, 65
2,66532, Note_on_c, 0, 49, 0
2,66541, Control_c, 0, 64, 68
2,66555, Control_c, 0, 64, 74
2,66571, Control_c, 0, 64, 84
2,66586, Control_c, 0, 64, 107
2,66601, Note_on_c, 0, 64, 0
2,66602, Control_c, 0, 64, 127
2,66618, Note_on_c, 0, 47, 72
2,66724, Control_c, 0, 64, 112
2,66739, Control_c, 0, 64, 91
2,66754, Control_c, 0, 64, 81
2,66770, Control_c, 0, 64, 75
2,66785, Control_c, 0, 64, 70
2,66788, Note_on_c, 0, 66, 92
2,66792, Note_on_c, 0, 73, 73
2,66801, Control_c, 0, 64, 65
2,66804, Note_on_c, 0, 45, 71
2,66816, Control_c, 0, 64, 62
2,66831, Control_c, 0, 64, 49
2,66833, Note_on_c, 0, 47, 0
2,66846, Control_c, 0, 64, 13
2,66860, Control_c, 0, 64, 0
2,66948, Note_on_c, 0, 72, 80
2,66950, Note_on_c, 0, 68, 78
2,66957, Note_on_c, 0, 45, 0
2,66962, Note_on_c, 0, 44, 72
2,66975, Note_on_c, 0, 66, 0
2,67018, Note_on_c, 0, 73, 0
2,67153, Note_on_c, 0, 69, 86
2,67153, Note_on_c, 0, 73, 81
2,67169, Note_on_c, 0, 42, 61
2,67182, Note_on_c, 0, 68, 0
2,67197, Note_on_c, 0, 72, 0
2,67202, Note_on_c, 0, 44, 0
2,67307, Note_on_c, 0, 42, 0
2,67324, Note_on_c, 0, 40, 66
2,67486, Note_on_c, 0, 68, 90
2,67502, Note_on_c, 0, 39, 63
2,67505, Note_on_c, 0, 69, 0
2,67512, Note_on_c, 0, 40, 0
2,67636, Note_on_c, 0, 39, 0
2,67647, Note_on_c, 0, 37, 62
2,67810, Note_on_c, 0, 66, 87
2,67819, Note_on_c, 0, 68, 0
2,67827, Note_on_c, 0, 37, 0
2,67827, Note_on_c, 0, 39, 61
2,67837, Note_on_c, 0, 73, 0
2,67864, Control_c, 0, 64, 49
2,67880, Control_c, 0, 64, 61
2,67895, Control_c, 0, 64, 64
2,67926, Control_c, 0, 64, 64
2,67971, Control_c, 0, 64, 64
2,67986, Control_c, 0, 64, 63
2,68002, Control_c, 0, 64, 61
2,68002, Note_on_c, 0, 76, 79
2,68017, Control_c, 0, 64, 59
2,68031, Control_c, 0, 64, 56
2,68047, Control_c, 0, 64, 52
2,68062, Control_c, 0, 64, 49
2,68077, Control_c, 0, 64, 48
2,68093, Control_c, 0, 64, 45
2,68107, Control_c, 0, 64, 35
2,68123, Control_c, 0, 64, 0
2,68131, Note_on_c, 0, 39, 0
2,68148, Note_on_c, 0, 40, 52
2,68148, Note_on_c, 0, 75, 84
2,68276, Note_on_c, 0, 76, 0
2,68292, Control_c, 0, 64, 53
2,68307, Control_c, 0, 64, 62
2,68308, Note_on_c, 0, 73, 68
2,68321, Note_on_c, 0, 42, 62
2,68322, Control_c, 0, 64, 64
2,68322, Note_on_c, 0, 40, 0
2,68337, Control_c, 0, 64, 65
2,68349, Note_on_c, 0, 75, 0
2,68352, Control_c, 0, 64, 67
2,68369, Control_c, 0, 64, 68
2,68384, Control_c, 0, 64, 69
2,68387, Note_on_c, 0, 73, 0
2,68414, Control_c, 0, 64, 68
2,68417, Note_on_c, 0, 66, 0
2,68429, Control_c, 0, 64, 66
2,68445, Control_c, 0, 64, 64
2,68460, Control_c, 0, 64, 62
2,68475, Control_c, 0, 64, 57
2,68490, Control_c, 0, 64, 45
2,68497, Note_on_c, 0, 42, 0
2,68499, Note_on_c, 0, 44, 55
2,68500, Note_on_c, 0, 72, 71
2,68505, Control_c, 0, 64, 22
2,68521, Control_c, 0, 64, 0
2,68671, Note_on_c, 0, 69, 58
2,68692, Note_on_c, 0, 44, 0
2,68836, Note_on_c, 0, 72, 0
2,68857, Note_on_c, 0, 69, 0
2,68860, Note_on_c, 0, 68, 59
2,68863, Control_c, 0, 67, 8
2,68865, Note_on_c, 0, 44, 49
2,68878, Control_c, 0, 67, 19
2,68893, Control_c, 0, 67, 34
2,68908, Control_c, 0, 67, 49
2,68924, Control_c, 0, 67, 63
2,68938, Control_c, 0, 67, 82
2,68954, Control_c, 0, 67, 98
2,68969, Control_c, 0, 67, 116
2,68984, Control_c, 0, 67, 127
2,68987, Note_on_c, 0, 68, 0
2,69010, Note_on_c, 0, 44, 0
2,69011, Note_on_c, 0, 66, 56
2,69222, Note_on_c, 0, 66, 0
2,69260, Note_on_c, 0, 64, 37
2,69262, Note_on_c, 0, 73, 45
2,69284, Note_on_c, 0, 37, 34
2,69533, Note_on_c, 0, 37, 0
2,69636, Note_on_c, 0, 68, 46
2,69723, Note_on_c, 0, 64, 0
2,69724, Note_on_c, 0, 73, 0
2,69786, Note_on_c, 0, 68, 0
2,69798, Note_on_c, 0, 66, 52
2,69973, Note_on_c, 0, 68, 53
2,70013, Note_on_c, 0, 66, 0
2,70138, Note_on_c, 0, 61, 44
2,70298, Note_on_c, 0, 61, 0
2,70306, Note_on_c, 0, 69, 50
2,70329, Note_on_c, 0, 59, 33
2,70377, Note_on_c, 0, 68, 0
2,70428, Control_c, 0, 64, 44
2,70444, Control_c, 0, 64, 54
2,70459, Control_c, 0, 64, 58
2,70475, Control_c, 0, 64, 62
2,70477, Note_on_c, 0, 57, 47
2,70490, Control_c, 0, 64, 64
2,70490, Note_on_c, 0, 59, 0
2,70536, Control_c, 0, 64, 63
2,70566, Control_c, 0, 64, 63
2,70581, Control_c, 0, 64, 62
2,70597, Control_c, 0, 64, 61
2,70612, Control_c, 0, 64, 60
2,70626, Control_c, 0, 64, 58
2,70630, Note_on_c, 0, 57, 0
2,70642, Control_c, 0, 64, 56
2,70657, Control_c, 0, 64, 55
2,70672, Control_c, 0, 64, 54
2,70688, Control_c, 0, 64, 53
2,70691, Note_on_c, 0, 65, 45
2,70710, Note_on_c, 0, 56, 24
2,70719, Control_c, 0, 64, 52
2,70734, Control_c, 0, 64, 52
2,70748, Control_c, 0, 64, 51
2,70748, Note_on_c, 0, 69, 0
2,70764, Control_c, 0, 64, 49
2,70779, Control_c, 0, 64, 47
2,70795, Control_c, 0, 64, 44
2,70810, Control_c, 0, 64, 37
2,70826, Control_c, 0, 64, 34
2,70902, Control_c, 0, 64, 33
2,70918, Control_c, 0, 64, 32
2,70939, Control_c, 0, 64, 28
2,70955, Control_c, 0, 64, 17
2,70970, Control_c, 0, 64, 0
2,71040, Note_on_c, 0, 49, 42
2,71111, Note_on_c, 0, 56, 0
2,71169, Note_on_c, 0, 49, 0
2,71187, Note_on_c, 0, 50, 48
2,71323, Note_on_c, 0, 65, 0
2,71344, Note_on_c, 0, 50, 0
2,71358, Note_on_c, 0, 66, 60
2,71375, Note_on_c, 0, 57, 31
2,71378, Note_on_c, 0, 49, 50
2,71453, Note_on_c, 0, 57, 0
2,71486, Control_c, 0, 64, 36
2,71499, Note_on_c, 0, 49, 0
2,71501, Control_c, 0, 64, 56
2,71517, Control_c, 0, 64, 61
2,71531, Control_c, 0, 64, 62
2,71532, Note_on_c, 0, 47, 51
2,71546, Control_c, 0, 64, 63
2,71577, Control_c, 0, 64, 62
2,71591, Control_c, 0, 64, 61
2,71607, Control_c, 0, 64, 59
2,71622, Control_c, 0, 64, 56
2,71639, Control_c, 0, 64, 44
2,71654, Control_c, 0, 64, 0
2,71698, Note_on_c, 0, 68, 67
2,71708, Note_on_c, 0, 45, 48
2,71710, Note_on_c, 0, 59, 38
2,71735, Note_on_c, 0, 47, 0
2,71769, Note_on_c, 0, 59, 0
2,71814, Control_c, 0, 64, 33
2,71828, Control_c, 0, 64, 55
2,71841, Note_on_c, 0, 45, 0
2,71841, Note_on_c, 0, 66, 0
2,71844, Control_c, 0, 64, 61
2,71850, Note_on_c, 0, 68, 0
2,71859, Control_c, 0, 64, 63
2,71871, Note_on_c, 0, 44, 50
2,71875, Control_c, 0, 64, 64
2,71890, Control_c, 0, 64, 65
2,71980, Control_c, 0, 64, 64
2,71996, Control_c, 0, 64, 64
2,72011, Control_c, 0, 64, 62
2,72025, Control_c, 0, 64, 59
2,72037, Note_on_c, 0, 44, 0
2,72041, Control_c, 0, 64, 49
2,72056, Control_c, 0, 64, 22
2,72064, Note_on_c, 0, 69, 42
2,72071, Control_c, 0, 64, 0
2,72074, Note_on_c, 0, 42, 43
2,72086, Note_on_c, 0, 61, 30
2,72232, Note_on_c, 0, 68, 59
2,72239, Note_on_c, 0, 69, 0
2,72392, Note_on_c, 0, 42, 0
2,72394, Note_on_c, 0, 69, 56
2,72406, Note_on_c, 0, 54, 64
2,72489, Control_c, 0, 67, 121
2,72504, Control_c, 0, 67, 113
2,72520, Control_c, 0, 64, 33
2,72520, Control_c, 0, 67, 104
2,72535, Control_c, 0, 64, 56
2,72535, Control_c, 0, 67, 94
2,72550, Control_c, 0, 64, 62
2,72550, Control_c, 0, 67, 82
2,72566, Control_c, 0, 64, 64
2,72566, Control_c, 0, 67, 71
2,72575, Note_on_c, 0, 71, 69
2,72578, Note_on_c, 0, 68, 0
2,72581, Control_c, 0, 64, 66
2,72581, Control_c, 0, 67, 61
2,72597, Control_c, 0, 64, 69
2,72597, Control_c, 0, 67, 54
2,72604, Note_on_c, 0, 54, 0
2,72606, Note_on_c, 0, 69, 0
2,72612, Control_c, 0, 64, 73
2,72612, Control_c, 0, 67, 49
2,72626, Control_c, 0, 64, 80
2,72626, Control_c, 0, 67, 44
2,72642, Control_c, 0, 64, 87
2,72642, Control_c, 0, 67, 41
2,72657, Control_c, 0, 64, 92
2,72657, Control_c, 0, 67, 39
2,72671, Control_c, 0, 64, 92
2,72671, Control_c, 0, 67, 38
2,72687, Control_c, 0, 64, 91
2,72687, Control_c, 0, 67, 37
2,72702, Control_c, 0, 64, 84
2,72702, Control_c, 0, 67, 37
2,72718, Control_c, 0, 64, 76
2,72718, Control_c, 0, 67, 36
2,72733, Control_c, 0, 64, 68
2,72737, Note_on_c, 0, 69, 63
2,72738, Note_on_c, 0, 56, 76
2,72747, Control_c, 0, 64, 64
2,72747, Control_c, 0, 67, 35
2,72763, Control_c, 0, 64, 55
2,72763, Control_c, 0, 67, 35
2,72778, Control_c, 0, 64, 0
2,72778, Control_c, 0, 67, 34
2,72781, Note_on_c, 0, 71, 0
2,72809, Control_c, 0, 67, 34
2,72904, Note_on_c, 0, 68, 74
2,72944, Control_c, 0, 64, 43
2,72960, Control_c, 0, 64, 58
2,72969, Note_on_c, 0, 69, 0
2,72975, Control_c, 0, 64, 63
2,72990, Control_c, 0, 64, 64
2,73006, Control_c, 0, 64, 65
2,73037, Control_c, 0, 64, 64
2,73052, Control_c, 0, 64, 61
2,73064, Note_on_c, 0, 57, 84
2,73067, Control_c, 0, 64, 44
2,73070, Note_on_c, 0, 66, 73
2,73074, Note_on_c, 0, 56, 0
2,73082, Control_c, 0, 64, 0
2,73101, Note_on_c, 0, 68, 0
2,73142, Note_on_c, 0, 66, 0
2,73149, Note_on_c, 0, 61, 0
2,73173, Control_c, 0, 64, 41
2,73173, Control_c, 0, 67, 34
2,73188, Control_c, 0, 64, 55
2,73203, Control_c, 0, 64, 58
2,73218, Control_c, 0, 64, 60
2,73242, Control_c, 0, 64, 61
2,73254, Note_on_c, 0, 64, 69
2,73257, Control_c, 0, 64, 61
2,73333, Control_c, 0, 64, 62
2,73364, Control_c, 0, 67, 35
2,73379, Control_c, 0, 64, 61
2,73379, Control_c, 0, 67, 35
2,73395, Control_c, 0, 64, 56
2,73410, Control_c, 0, 64, 29
2,73424, Control_c, 0, 64, 0
2,73426, Note_on_c, 0, 64, 0
2,73439, Note_on_c, 0, 63, 61
2,73440, Control_c, 0, 67, 36
2,73444, Note_on_c, 0, 57, 0
2,73451, Note_on_c, 0, 59, 62
2,73486, Control_c, 0, 67, 36
2,73516, Control_c, 0, 67, 37
2,73562, Control_c, 0, 64, 42
2,73577, Control_c, 0, 64, 55
2,73591, Control_c, 0, 64, 60
2,73607, Control_c, 0, 64, 62
2,73622, Control_c, 0, 64, 63
2,73638, Control_c, 0, 64, 64
2,73653, Control_c, 0, 64, 65
2,73667, Control_c, 0, 64, 65
2,73670, Note_on_c, 0, 59, 0
2,73712, Control_c, 0, 64, 65
2,73728, Control_c, 0, 64, 64
2,73743, Control_c, 0, 64, 63
2,73759, Control_c, 0, 64, 52
2,73773, Control_c, 0, 64, 0
2,73781, Note_on_c, 0, 47, 48
2,73782, Note_on_c, 0, 54, 52
2,73895, Control_c, 0, 64, 43
2,73910, Control_c, 0, 64, 59
2,73925, Control_c, 0, 64, 64
2,73935, Note_on_c, 0, 54, 0
2,73940, Control_c, 0, 64, 67
2,73942, Note_on_c, 0, 47, 0
2,73954, Note_on_c, 0, 49, 52
2,73956, Control_c, 0, 64, 70
2,73960, Note_on_c, 0, 63, 0
2,73971, Control_c, 0, 64, 77
2,73986, Control_c, 0, 64, 84
2,74009, Control_c, 0, 64, 90
2,74024, Control_c, 0, 64, 91
2,74040, Control_c, 0, 64, 90
2,74054, Control_c, 0, 64, 85
2,74069, Control_c, 0, 64, 75
2,74085, Control_c, 0, 64, 67
2,74094, Note_on_c, 0, 49, 0
2,74100, Control_c, 0, 64, 58
2,74110, Note_on_c, 0, 64, 64
2,74116, Control_c, 0, 64, 0
2,74126, Note_on_c, 0, 47, 53
2,74126, Note_on_c, 0, 56, 46
2,74268, Control_c, 0, 64, 26
2,74271, Note_on_c, 0, 45, 64
2,74283, Control_c, 0, 64, 34
2,74293, Note_on_c, 0, 47, 0
2,74309, Note_on_c, 0, 56, 0
2,74314, Control_c, 0, 64, 32
2,74329, Control_c, 0, 64, 13
2,74344, Control_c, 0, 64, 0
2,74427, Note_on_c, 0, 45, 0
2,74442, Note_on_c, 0, 66, 76
2,74448, Note_on_c, 0, 57, 55
2,74451, Note_on_c, 0, 44, 56
2,74505, Note_on_c, 0, 64, 0
2,74544, Note_on_c, 0, 57, 0
2,74557, Control_c, 0, 64, 33
2,74572, Control_c, 0, 64, 58
2,74574, Note_on_c, 0, 66, 0
2,74587, Control_c, 0, 64, 64
2,74592, Note_on_c, 0, 44, 0
2,74602, Note_on_c, 0, 42, 62
2,74603, Control_c, 0, 64, 66
2,74618, Control_c, 0, 64, 69
2,74634, Control_c, 0, 64, 71
2,74648, Control_c, 0, 64, 74
2,74663, Control_c, 0, 64, 75
2,74679, Control_c, 0, 64, 74
2,74694, Control_c, 0, 64, 73
2,74708, Control_c, 0, 64, 70
2,74724, Control_c, 0, 64, 66
2,74739, Control_c, 0, 64, 62
2,74755, Control_c, 0, 64, 20
2,74755, Note_on_c, 0, 42, 0
2,74777, Control_c, 0, 64, 0
2,74792, Control_c, 0, 67, 36
2,74794, Note_on_c, 0, 68, 79
2,74803, Note_on_c, 0, 59, 63
2,74805, Note_on_c, 0, 40, 52
2,74808, Control_c, 0, 67, 36
2,74839, Control_c, 0, 67, 35
2,74914, Control_c, 0, 64, 55
2,74914, Control_c, 0, 67, 35
2,74930, Control_c, 0, 64, 64
2,74945, Control_c, 0, 64, 67
2,74960, Note_on_c, 0, 47, 62
2,74961, Control_c, 0, 64, 71
2,74976, Control_c, 0, 64, 79
2,74977, Note_on_c, 0, 59, 0
2,74991, Control_c, 0, 64, 88
2,75006, Control_c, 0, 64, 91
2,75006, Control_c, 0, 67, 34
2,75012, Note_on_c, 0, 68, 0
2,75021, Control_c, 0, 64, 87
2,75032, Note_on_c, 0, 40, 0
2,75037, Control_c, 0, 64, 78
2,75052, Control_c, 0, 64, 68
2,75067, Control_c, 0, 64, 63
2,75082, Control_c, 0, 64, 46
2,75097, Control_c, 0, 64, 0
2,75105, Note_on_c, 0, 47, 0
2,75122, Note_on_c, 0, 68, 83
2,75125, Note_on_c, 0, 52, 57
2,75128, Control_c, 0, 64, 35
2,75134, Note_on_c, 0, 59, 71
2,75143, Control_c, 0, 64, 58
2,75159, Control_c, 0, 64, 63
2,75163, Note_on_c, 0, 59, 0
2,75174, Control_c, 0, 64, 65
2,75188, Control_c, 0, 64, 68
2,75204, Control_c, 0, 64, 73
2,75218, Note_on_c, 0, 68, 0
2,75219, Control_c, 0, 64, 82
2,75235, Control_c, 0, 64, 106
2,75250, Control_c, 0, 64, 127
2,75250, Control_c, 0, 67, 34
2,75265, Control_c, 0, 67, 33
2,75280, Control_c, 0, 67, 33
2,75284, Note_on_c, 0, 54, 68
2,75285, Note_on_c, 0, 52, 0
2,75310, Control_c, 0, 67, 32
2,75325, Control_c, 0, 67, 32
2,75416, Control_c, 0, 64, 81
2,75428, Note_on_c, 0, 54, 0
2,75431, Control_c, 0, 64, 65
2,75431, Control_c, 0, 67, 31
2,75443, Note_on_c, 0, 70, 87
2,75447, Control_c, 0, 64, 0
2,75454, Note_on_c, 0, 61, 72
2,75459, Note_on_c, 0, 52, 65
2,75462, Control_c, 0, 67, 31
2,75561, Control_c, 0, 64, 44
2,75561, Control_c, 0, 67, 30
2,75574, Note_on_c, 0, 61, 0
2,75576, Control_c, 0, 64, 62
2,75591, Control_c, 0, 64, 65
2,75607, Control_c, 0, 64, 70
2,75621, Control_c, 0, 64, 81
2,75628, Note_on_c, 0, 51, 70
2,75637, Control_c, 0, 64, 127
2,75653, Note_on_c, 0, 52, 0
2,75744, Control_c, 0, 64, 94
2,75760, Control_c, 0, 64, 68
2,75770, Note_on_c, 0, 71, 79
2,75772, Note_on_c, 0, 70, 0
2,75774, Control_c, 0, 64, 0
2,75779, Note_on_c, 0, 51, 0
2,75779, Note_on_c, 0, 63, 76
2,75791, Note_on_c, 0, 49, 66
2,75820, Control_c, 0, 67, 30
2,75896, Control_c, 0, 64, 61
2,75911, Control_c, 0, 64, 66
2,75920, Note_on_c, 0, 49, 0
2,75923, Note_on_c, 0, 63, 0
2,75926, Control_c, 0, 64, 70
2,75941, Control_c, 0, 64, 77
2,75941, Note_on_c, 0, 47, 68
2,75957, Control_c, 0, 64, 91
2,75972, Control_c, 0, 64, 109
2,75986, Control_c, 0, 64, 111
2,75986, Control_c, 0, 67, 29
2,76002, Control_c, 0, 64, 107
2,76017, Control_c, 0, 64, 97
2,76032, Control_c, 0, 64, 88
2,76048, Control_c, 0, 64, 80
2,76059, Note_on_c, 0, 71, 0
2,76063, Control_c, 0, 64, 72
2,76079, Control_c, 0, 64, 64
2,76094, Control_c, 0, 64, 48
2,76109, Control_c, 0, 64, 0
2,76111, Note_on_c, 0, 73, 78
2,76119, Note_on_c, 0, 64, 64
2,76122, Note_on_c, 0, 46, 56
2,76151, Note_on_c, 0, 47, 0
2,76284, Note_on_c, 0, 71, 68
2,76304, Note_on_c, 0, 64, 0
2,76375, Control_c, 0, 67, 30
2,76454, Note_on_c, 0, 42, 65
2,76466, Note_on_c, 0, 70, 63
2,76483, Note_on_c, 0, 46, 0
2,76597, Note_on_c, 0, 71, 0
2,76621, Note_on_c, 0, 68, 57
2,76624, Note_on_c, 0, 70, 0
2,76634, Control_c, 0, 67, 30
2,76776, Note_on_c, 0, 68, 0
2,76786, Note_on_c, 0, 66, 65
2,76800, Note_on_c, 0, 44, 67
2,76815, Control_c, 0, 67, 31
2,76843, Note_on_c, 0, 42, 0
2,76948, Note_on_c, 0, 64, 72
2,76952, Note_on_c, 0, 66, 0
2,77138, Note_on_c, 0, 64, 0
2,77139, Note_on_c, 0, 63, 75
2,77155, Note_on_c, 0, 46, 65
2,77158, Note_on_c, 0, 44, 0
2,77295, Note_on_c, 0, 61, 74
2,77335, Note_on_c, 0, 63, 0
2,77340, Control_c, 0, 64, 35
2,77355, Control_c, 0, 64, 47
2,77370, Control_c, 0, 64, 53
2,77386, Control_c, 0, 64, 55
2,77402, Control_c, 0, 64, 56
2,77429, Note_on_c, 0, 46, 0
2,77432, Control_c, 0, 64, 55
2,77448, Control_c, 0, 64, 48
2,77462, Control_c, 0, 64, 24
2,77478, Control_c, 0, 64, 0
2,77478, Note_on_c, 0, 63, 69
2,77500, Note_on_c, 0, 47, 49
2,77621, Note_on_c, 0, 61, 0
2,77644, Note_on_c, 0, 49, 62
2,77676, Note_on_c, 0, 73, 0
2,77683, Note_on_c, 0, 47, 0
2,77730, Note_on_c, 0, 63, 0
2,77801, Note_on_c, 0, 71, 82
2,77812, Control_c, 0, 67, 30
2,77816, Note_on_c, 0, 49, 0
2,77817, Note_on_c, 0, 51, 70
2,77864, Control_c, 0, 67, 30
2,77956, Note_on_c, 0, 51, 0
2,77973, Note_on_c, 0, 52, 60
2,78093, Control_c, 0, 67, 29
2,78134, Note_on_c, 0, 52, 0
2,78140, Note_on_c, 0, 70, 90
2,78151, Note_on_c, 0, 54, 62
2,78162, Note_on_c, 0, 71, 0
2,78169, Control_c, 0, 67, 29
2,78277, Control_c, 0, 67, 28
2,78298, Note_on_c, 0, 56, 63
2,78327, Note_on_c, 0, 54, 0
2,78382, Control_c, 0, 67, 28
2,78448, Note_on_c, 0, 71, 80
2,78470, Note_on_c, 0, 58, 71
2,78471, Note_on_c, 0, 56, 0
2,78504, Note_on_c, 0, 70, 0
2,78626, Note_on_c, 0, 59, 60
2,78636, Note_on_c, 0, 58, 0
2,78786, Note_on_c, 0, 59, 0
2,78805, Note_on_c, 0, 73, 83
2,78813, Note_on_c, 0, 52, 60
2,78815, Control_c, 0, 67, 27
2,78841, Note_on_c, 0, 71, 0
2,78971, Note_on_c, 0, 63, 64
2,79111, Note_on_c, 0, 63, 0
2,79145, Note_on_c, 0, 61, 63
2,79226, Control_c, 0, 64, 41
2,79242, Control_c, 0, 64, 52
2,79257, Control_c, 0, 64, 58
2,79269, Note_on_c, 0, 61, 0
2,79271, Control_c, 0, 64, 62
2,79287, Control_c, 0, 64, 63
2,79302, Control_c, 0, 64, 64
2,79305, Note_on_c, 0, 59, 66
2,79318, Control_c, 0, 64, 64
2,79416, Control_c, 0, 64, 64
2,79431, Control_c, 0, 64, 63
2,79447, Control_c, 0, 64, 56
2,79462, Control_c, 0, 64, 35
2,79477, Control_c, 0, 64, 0
2,79477, Note_on_c, 0, 66, 84
2,79485, Note_on_c, 0, 58, 63
2,79518, Note_on_c, 0, 59, 0
2,79554, Control_c, 0, 64, 51
2,79568, Control_c, 0, 64, 60
2,79583, Control_c, 0, 64, 63
2,79599, Control_c, 0, 64, 64
2,79613, Control_c, 0, 64, 65
2,79613, Control_c, 0, 67, 28
2,79620, Note_on_c, 0, 58, 0
2,79628, Control_c, 0, 64, 65
2,79632, Note_on_c, 0, 56, 64
2,79683, Note_on_c, 0, 52, 0
2,79735, Control_c, 0, 64, 65
2,79735, Control_c, 0, 67, 28
2,79750, Control_c, 0, 64, 64
2,79766, Control_c, 0, 64, 64
2,79778, Note_on_c, 0, 68, 85
2,79781, Control_c, 0, 64, 63
2,79781, Control_c, 0, 67, 29
2,79795, Note_on_c, 0, 54, 63
2,79797, Control_c, 0, 64, 61
2,79811, Control_c, 0, 64, 56
2,79826, Control_c, 0, 64, 47
2,79828, Note_on_c, 0, 66, 0
2,79835, Note_on_c, 0, 56, 0
2,79842, Control_c, 0, 64, 39
2,79857, Control_c, 0, 64, 37
2,79872, Control_c, 0, 64, 36
2,79903, Control_c, 0, 67, 29
2,79923, Note_on_c, 0, 54, 0
2,79934, Control_c, 0, 64, 35
2,79934, Control_c, 0, 67, 30
2,79949, Control_c, 0, 64, 34
2,79949, Note_on_c, 0, 52, 60
2,79958, Note_on_c, 0, 70, 80
2,79965, Control_c, 0, 64, 33
2,79980, Control_c, 0, 64, 32
2,79995, Control_c, 0, 64, 29
2,80040, Control_c, 0, 64, 31
2,80047, Note_on_c, 0, 73, 0
2,80055, Control_c, 0, 64, 32
2,80070, Control_c, 0, 64, 33
2,80071, Note_on_c, 0, 68, 0
2,80093, Note_on_c, 0, 70, 0
2,80118, Note_on_c, 0, 71, 74
2,80121, Note_on_c, 0, 54, 67
2,80154, Control_c, 0, 64, 32
2,80170, Note_on_c, 0, 52, 0
2,80171, Note_on_c, 0, 51, 31
2,80184, Control_c, 0, 64, 31
2,80209, Note_on_c, 0, 51, 0
2,80215, Control_c, 0, 64, 32
2,80276, Control_c, 0, 64, 31
2,80282, Note_on_c, 0, 51, 63
2,80316, Note_on_c, 0, 54, 0
2,80398, Control_c, 0, 64, 29
2,80412, Control_c, 0, 64, 24
2,80427, Control_c, 0, 64, 20
2,80443, Control_c, 0, 64, 0
2,80457, Note_on_c, 0, 52, 65
2,80460, Note_on_c, 0, 73, 86
2,80464, Note_on_c, 0, 51, 0
2,80529, Note_on_c, 0, 71, 0
2,80622, Note_on_c, 0, 75, 92
2,80624, Note_on_c, 0, 54, 68
2,80658, Note_on_c, 0, 73, 0
2,80763, Note_on_c, 0, 52, 0
2,80778, Note_on_c, 0, 54, 0
2,80792, Note_on_c, 0, 76, 86
2,80794, Note_on_c, 0, 56, 68
2,80799, Note_on_c, 0, 49, 62
2,80832, Note_on_c, 0, 75, 0
2,80922, Control_c, 0, 67, 30
2,80949, Note_on_c, 0, 56, 0
2,80954, Note_on_c, 0, 58, 69
2,81119, Note_on_c, 0, 59, 66
2,81123, Note_on_c, 0, 75, 93
2,81130, Note_on_c, 0, 58, 0
2,81134, Note_on_c, 0, 56, 66
2,81147, Note_on_c, 0, 49, 0
2,81154, Note_on_c, 0, 76, 0
2,81293, Note_on_c, 0, 54, 60
2,81307, Note_on_c, 0, 56, 0
2,81423, Control_c, 0, 67, 30
2,81447, Note_on_c, 0, 54, 0
2,81460, Note_on_c, 0, 73, 92
2,81471, Note_on_c, 0, 52, 60
2,81510, Note_on_c, 0, 75, 0
2,81531, Control_c, 0, 67, 29
2,81616, Note_on_c, 0, 52, 0
2,81624, Note_on_c, 0, 51, 64
2,81771, Note_on_c, 0, 51, 0
2,81798, Note_on_c, 0, 49, 69
2,81948, Control_c, 0, 67, 29
2,81954, Note_on_c, 0, 51, 74
2,81975, Note_on_c, 0, 59, 0
2,82025, Control_c, 0, 64, 17
2,82041, Control_c, 0, 64, 22
2,82056, Control_c, 0, 64, 28
2,82117, Control_c, 0, 64, 0
2,82130, Note_on_c, 0, 49, 0
2,82131, Note_on_c, 0, 58, 77
2,82133, Note_on_c, 0, 52, 75
2,82157, Note_on_c, 0, 51, 0
2,82221, Control_c, 0, 64, 22
2,82221, Control_c, 0, 67, 28
2,82237, Control_c, 0, 64, 40
2,82237, Control_c, 0, 67, 28
2,82252, Control_c, 0, 64, 47
2,82252, Control_c, 0, 67, 27
2,82266, Control_c, 0, 64, 50
2,82266, Control_c, 0, 67, 26
2,82282, Control_c, 0, 64, 52
2,82282, Control_c, 0, 67, 25
2,82290, Note_on_c, 0, 52, 0
2,82291, Note_on_c, 0, 56, 78
2,82298, Control_c, 0, 67, 23
2,82314, Control_c, 0, 67, 18
2,82329, Control_c, 0, 67, 11
2,82344, Control_c, 0, 67, 0
2,82360, Control_c, 0, 64, 51
2,82420, Control_c, 0, 64, 51
2,82436, Control_c, 0, 64, 49
2,82454, Control_c, 0, 64, 47
2,82464, Note_on_c, 0, 54, 75
2,82469, Control_c, 0, 64, 46
2,82473, Note_on_c, 0, 56, 0
2,82484, Control_c, 0, 64, 44
2,82499, Control_c, 0, 64, 41
2,82514, Control_c, 0, 64, 38
2,82530, Control_c, 0, 64, 36
2,82545, Control_c, 0, 64, 33
2,82560, Control_c, 0, 64, 32
2,82575, Control_c, 0, 64, 29
2,82590, Control_c, 0, 64, 24
2,82605, Control_c, 0, 64, 0
2,82641, Note_on_c, 0, 56, 75
2,82645, Note_on_c, 0, 52, 73
2,82657, Note_on_c, 0, 54, 0
2,82659, Note_on_c, 0, 58, 0
2,82844, Note_on_c, 0, 52, 0
2,82850, Note_on_c, 0, 54, 72
2,82852, Note_on_c, 0, 56, 0
2,82859, Note_on_c, 0, 51, 80
2,82895, Control_c, 0, 64, 33
2,82909, Control_c, 0, 64, 49
2,82916, Note_on_c, 0, 73, 0
2,82924, Control_c, 0, 64, 53
2,82940, Control_c, 0, 64, 55
2,82955, Control_c, 0, 64, 58
2,82971, Control_c, 0, 64, 61
2,82985, Control_c, 0, 64, 63
2,83000, Control_c, 0, 64, 65
2,83016, Control_c, 0, 64, 68
2,83030, Control_c, 0, 64, 71
2,83045, Control_c, 0, 64, 78
2,83061, Control_c, 0, 64, 94
2,83076, Control_c, 0, 64, 127
2,83153, Control_c, 0, 64, 119
2,83169, Control_c, 0, 64, 83
2,83174, Note_on_c, 0, 78, 91
2,83177, Note_on_c, 0, 54, 0
2,83184, Control_c, 0, 64, 74
2,83185, Note_on_c, 0, 71, 69
2,83199, Note_on_c, 0, 51, 0
2,83222, Control_c, 0, 64, 76
2,83237, Control_c, 0, 64, 81
2,83253, Control_c, 0, 64, 85
2,83268, Control_c, 0, 64, 90
2,83283, Control_c, 0, 64, 94
2,83298, Control_c, 0, 64, 96
2,83313, Control_c, 0, 64, 97
2,83329, Control_c, 0, 64, 98
2,83332, Note_on_c, 0, 71, 0
2,83334, Note_on_c, 0, 70, 70
2,83343, Control_c, 0, 64, 99
2,83358, Control_c, 0, 64, 102
2,83374, Control_c, 0, 64, 104
2,83389, Control_c, 0, 64, 107
2,83404, Control_c, 0, 64, 108
2,83438, Note_on_c, 0, 70, 0
2,83450, Control_c, 0, 64, 106
2,83465, Control_c, 0, 64, 94
2,83480, Control_c, 0, 64, 81
2,83495, Control_c, 0, 64, 71
2,83510, Control_c, 0, 64, 64
2,83524, Note_on_c, 0, 75, 94
2,83525, Control_c, 0, 64, 0
2,83528, Note_on_c, 0, 44, 71
2,83529, Note_on_c, 0, 71, 80
2,83632, Control_c, 0, 64, 36
2,83648, Control_c, 0, 64, 62
2,83663, Control_c, 0, 64, 65
2,83677, Control_c, 0, 64, 68
2,83678, Note_on_c, 0, 78, 0
2,83693, Control_c, 0, 64, 73
2,83708, Control_c, 0, 64, 82
2,83723, Control_c, 0, 64, 91
2,83739, Control_c, 0, 64, 95
2,83769, Control_c, 0, 64, 96
2,83776, Note_on_c, 0, 75, 0
2,83796, Note_on_c, 0, 71, 0
2,83815, Control_c, 0, 64, 93
2,83829, Control_c, 0, 64, 82
2,83844, Control_c, 0, 64, 70
2,83857, Note_on_c, 0, 76, 81
2,83860, Control_c, 0, 64, 60
2,83864, Note_on_c, 0, 73, 72
2,83874, Control_c, 0, 64, 0
2,83876, Note_on_c, 0, 52, 66
2,83899, Note_on_c, 0, 44, 0
2,83952, Control_c, 0, 64, 33
2,83968, Control_c, 0, 64, 59
2,83989, Control_c, 0, 64, 64
2,84004, Control_c, 0, 64, 67
2,84011, Note_on_c, 0, 73, 0
2,84020, Control_c, 0, 64, 73
2,84025, Note_on_c, 0, 71, 76
2,84035, Control_c, 0, 64, 86
2,84040, Note_on_c, 0, 76, 0
2,84051, Control_c, 0, 64, 127
2,84157, Control_c, 0, 64, 116
2,84173, Control_c, 0, 64, 78
2,84187, Control_c, 0, 64, 64
2,84202, Control_c, 0, 64, 0
2,84213, Note_on_c, 0, 78, 88
2,84215, Note_on_c, 0, 42, 68
2,84218, Note_on_c, 0, 70, 75
2,84237, Note_on_c, 0, 71, 0
2,84259, Note_on_c, 0, 52, 0
2,84281, Note_on_c, 0, 70, 0
2,84294, Control_c, 0, 64, 42
2,84310, Control_c, 0, 64, 64
2,84326, Control_c, 0, 64, 67
2,84341, Control_c, 0, 64, 72
2,84356, Control_c, 0, 64, 81
2,84372, Control_c, 0, 64, 94
2,84380, Note_on_c, 0, 68, 68
2,84386, Control_c, 0, 64, 119
2,84402, Control_c, 0, 64, 127
2,84435, Note_on_c, 0, 68, 0
2,84546, Note_on_c, 0, 66, 72
2,84561, Note_on_c, 0, 51, 65
2,84610, Note_on_c, 0, 66, 0
2,84644, Note_on_c, 0, 78, 0
2,84690, Control_c, 0, 64, 116
2,84703, Note_on_c, 0, 64, 71
2,84705, Control_c, 0, 64, 112
2,84714, Note_on_c, 0, 51, 0
2,84717, Note_on_c, 0, 49, 68
2,84719, Control_c, 0, 64, 111
2,84756, Note_on_c, 0, 64, 0
2,84805, Control_c, 0, 64, 112
2,84820, Control_c, 0, 64, 111
2,84835, Control_c, 0, 64, 104
2,84851, Control_c, 0, 64, 89
2,84866, Control_c, 0, 64, 73
2,84882, Control_c, 0, 64, 64
2,84893, Note_on_c, 0, 49, 0
2,84897, Control_c, 0, 64, 0
2,84900, Note_on_c, 0, 71, 77
2,84906, Note_on_c, 0, 63, 69
2,84909, Note_on_c, 0, 51, 68
2,84982, Note_on_c, 0, 63, 0
2,84987, Control_c, 0, 64, 47
2,85003, Control_c, 0, 64, 63
2,85014, Note_on_c, 0, 71, 0
2,85018, Control_c, 0, 64, 68
2,85032, Control_c, 0, 64, 77
2,85048, Control_c, 0, 64, 98
2,85063, Control_c, 0, 64, 127
2,85215, Control_c, 0, 64, 83
2,85230, Control_c, 0, 64, 65
2,85237, Note_on_c, 0, 56, 62
2,85239, Note_on_c, 0, 75, 85
2,85243, Note_on_c, 0, 71, 69
2,85246, Control_c, 0, 64, 0
2,85278, Note_on_c, 0, 51, 0
2,85337, Control_c, 0, 64, 13
2,85352, Control_c, 0, 64, 54
2,85367, Control_c, 0, 64, 62
2,85382, Control_c, 0, 64, 64
2,85395, Note_on_c, 0, 71, 0
2,85397, Control_c, 0, 64, 67
2,85397, Note_on_c, 0, 77, 79
2,85410, Note_on_c, 0, 75, 0
2,85413, Control_c, 0, 64, 70
2,85428, Control_c, 0, 64, 76
2,85443, Control_c, 0, 64, 88
2,85458, Control_c, 0, 64, 104
2,85473, Control_c, 0, 64, 127
2,85519, Note_on_c, 0, 56, 0
2,85557, Control_c, 0, 64, 97
2,85573, Control_c, 0, 64, 76
2,85584, Note_on_c, 0, 77, 0
2,85588, Control_c, 0, 64, 64
2,85592, Note_on_c, 0, 78, 83
2,85603, Control_c, 0, 64, 0
2,85606, Note_on_c, 0, 49, 78
2,85609, Note_on_c, 0, 70, 73
2,85710, Control_c, 0, 64, 55
2,85726, Control_c, 0, 64, 63
2,85741, Control_c, 0, 64, 66
2,85753, Note_on_c, 0, 70, 0
2,85755, Control_c, 0, 64, 69
2,85769, Note_on_c, 0, 78, 0
2,85771, Control_c, 0, 64, 74
2,85786, Control_c, 0, 64, 81
2,85801, Control_c, 0, 64, 88
2,85816, Control_c, 0, 64, 90
2,85862, Control_c, 0, 64, 89
2,85876, Control_c, 0, 64, 84
2,85892, Control_c, 0, 64, 76
2,85907, Control_c, 0, 64, 68
2,85922, Control_c, 0, 64, 63
2,85927, Note_on_c, 0, 80, 90
2,85936, Note_on_c, 0, 71, 66
2,85937, Control_c, 0, 64, 55
2,85952, Control_c, 0, 64, 49
2,85963, Note_on_c, 0, 71, 0
2,85968, Control_c, 0, 64, 56
2,85983, Control_c, 0, 64, 62
2,85997, Control_c, 0, 64, 64
2,86013, Control_c, 0, 64, 66
2,86028, Control_c, 0, 64, 68
2,86044, Control_c, 0, 64, 72
2,86059, Control_c, 0, 64, 75
2,86074, Control_c, 0, 64, 76
2,86079, Note_on_c, 0, 82, 89
2,86086, Note_on_c, 0, 73, 83
2,86102, Note_on_c, 0, 49, 0
2,86104, Control_c, 0, 64, 76
2,86129, Note_on_c, 0, 42, 0
2,86162, Note_on_c, 0, 73, 0
2,86211, Control_c, 0, 64, 74
2,86226, Control_c, 0, 64, 71
2,86242, Control_c, 0, 64, 66
2,86251, Note_on_c, 0, 82, 0
2,86256, Note_on_c, 0, 83, 82
2,86257, Control_c, 0, 64, 59
2,86265, Note_on_c, 0, 75, 71
2,86272, Control_c, 0, 64, 0
2,86357, Note_on_c, 0, 80, 0
2,86383, Note_on_c, 0, 75, 0
2,86426, Note_on_c, 0, 44, 67
2,86428, Note_on_c, 0, 77, 81
2,86590, Note_on_c, 0, 82, 85
2,86595, Note_on_c, 0, 78, 87
2,86597, Note_on_c, 0, 83, 0
2,86607, Note_on_c, 0, 46, 62
2,86611, Note_on_c, 0, 77, 0
2,86614, Note_on_c, 0, 44, 0
2,86740, Note_on_c, 0, 46, 0
2,86752, Note_on_c, 0, 47, 58
2,86921, Note_on_c, 0, 80, 92
2,86923, Note_on_c, 0, 47, 0
2,86933, Note_on_c, 0, 49, 58
2,86957, Note_on_c, 0, 78, 0
2,86964, Note_on_c, 0, 82, 0
2,87095, Note_on_c, 0, 49, 0
2,87101, Note_on_c, 0, 51, 58
2,87235, Note_on_c, 0, 51, 0
2,87242, Note_on_c, 0, 76, 66
2,87257, Note_on_c, 0, 52, 50
2,87396, Note_on_c, 0, 52, 0
2,87410, Note_on_c, 0, 76, 0
2,87414, Note_on_c, 0, 54, 52
2,87416, Note_on_c, 0, 75, 67
2,87580, Note_on_c, 0, 54, 0
2,87585, Note_on_c, 0, 56, 54
2,87592, Note_on_c, 0, 76, 62
2,87607, Note_on_c, 0, 75, 0
2,87737, Note_on_c, 0, 58, 60
2,87739, Note_on_c, 0, 56, 0
2,87890, Note_on_c, 0, 80, 0
2,87901, Note_on_c, 0, 58, 0
2,87916, Note_on_c, 0, 59, 61
2,88077, Note_on_c, 0, 56, 60
2,88088, Note_on_c, 0, 59, 0
2,88232, Note_on_c, 0, 78, 86
2,88247, Note_on_c, 0, 56, 0
2,88253, Note_on_c, 0, 58, 61
2,88277, Note_on_c, 0, 76, 0
2,88401, Note_on_c, 0, 58, 0
2,88414, Note_on_c, 0, 56, 54
2,88576, Note_on_c, 0, 75, 69
2,88581, Note_on_c, 0, 54, 52
2,88607, Note_on_c, 0, 56, 0
2,88735, Note_on_c, 0, 54, 0
2,88735, Note_on_c, 0, 73, 69
2,88751, Note_on_c, 0, 52, 59
2,88807, Note_on_c, 0, 75, 0
2,88930, Note_on_c, 0, 71, 64
2,88936, Note_on_c, 0, 51, 60
2,88974, Note_on_c, 0, 52, 0
2,88979, Note_on_c, 0, 73, 0
2,89036, Note_on_c, 0, 78, 0
2,89082, Note_on_c, 0, 51, 0
2,89088, Note_on_c, 0, 49, 63
2,89262, Note_on_c, 0, 49, 0
2,89262, Note_on_c, 0, 76, 78
2,89270, Note_on_c, 0, 51, 64
2,89439, Note_on_c, 0, 51, 0
2,89450, Note_on_c, 0, 75, 86
2,89459, Note_on_c, 0, 52, 57
2,89481, Note_on_c, 0, 76, 0
2,89642, Note_on_c, 0, 52, 0
2,89668, Note_on_c, 0, 73, 89
2,89674, Note_on_c, 0, 54, 58
2,89696, Note_on_c, 0, 75, 0
2,89863, Note_on_c, 0, 75, 89
2,89887, Note_on_c, 0, 73, 0
2,90056, Note_on_c, 0, 76, 82
2,90069, Note_on_c, 0, 61, 61
2,90091, Note_on_c, 0, 75, 0
2,90151, Note_on_c, 0, 71, 0
2,90267, Note_on_c, 0, 61, 0
2,90272, Note_on_c, 0, 63, 65
2,90515, Note_on_c, 0, 76, 0
2,90531, Note_on_c, 0, 70, 86
2,90539, Note_on_c, 0, 61, 63
2,90568, Note_on_c, 0, 63, 0
2,90810, Note_on_c, 0, 80, 92
2,90815, Note_on_c, 0, 61, 0
2,90821, Note_on_c, 0, 59, 68
2,91124, Note_on_c, 0, 78, 93
2,91138, Note_on_c, 0, 58, 64
2,91158, Note_on_c, 0, 59, 0
2,91170, Note_on_c, 0, 80, 0
2,91477, Note_on_c, 0, 58, 0
2,91493, Note_on_c, 0, 76, 91
2,91498, Note_on_c, 0, 56, 61
2,91526, Note_on_c, 0, 78, 0
2,91796, Control_c, 0, 64, 55
2,91811, Control_c, 0, 64, 63
2,91815, Note_on_c, 0, 56, 0
2,91826, Control_c, 0, 64, 66
2,91830, Note_on_c, 0, 54, 0
2,91842, Control_c, 0, 64, 70
2,91856, Control_c, 0, 64, 79
2,91871, Control_c, 0, 64, 111
2,91887, Control_c, 0, 64, 127
2,91894, Note_on_c, 0, 76, 0
2,91912, Note_on_c, 0, 70, 0
2,92174, Note_on_c, 0, 75, 101
2,92184, Note_on_c, 0, 71, 75
2,92188, Note_on_c, 0, 47, 62
2,92191, Control_c, 0, 64, 101
2,92194, Note_on_c, 0, 54, 60
2,92206, Control_c, 0, 64, 75
2,92221, Control_c, 0, 64, 64
2,92237, Control_c, 0, 64, 0
2,93083, Control_c, 0, 64, 41
2,93098, Control_c, 0, 64, 53
2,93114, Control_c, 0, 64, 58
2,93128, Control_c, 0, 64, 61
2,93143, Control_c, 0, 64, 63
2,93159, Control_c, 0, 64, 64
2,93173, Control_c, 0, 64, 66
2,93189, Control_c, 0, 64, 68
2,93211, Control_c, 0, 64, 72
2,93226, Control_c, 0, 64, 77
2,93242, Control_c, 0, 64, 87
2,93257, Control_c, 0, 64, 99
2,93273, Control_c, 0, 64, 127
2,94331, Note_on_c, 0, 54, 0
2,94440, Note_on_c, 0, 71, 0
2,94487, Note_on_c, 0, 75, 0
2,94496, Control_c, 0, 64, 107
2,94511, Control_c, 0, 64, 99
2,94521, Note_on_c, 0, 47, 0
2,94526, Control_c, 0, 64, 96
2,94541, Control_c, 0, 64, 93
2,94557, Control_c, 0, 64, 90
2,94571, Control_c, 0, 64, 85
2,94588, Control_c, 0, 64, 79
2,94603, Control_c, 0, 64, 71
2,94618, Control_c, 0, 64, 65
2,94634, Control_c, 0, 64, 59
2,94649, Control_c, 0, 64, 32
2,94663, Control_c, 0, 64, 0
2,94664, End_track
0, 0, End_of_file
