0, 0, Header, 1, 2, 384
1, 0, Start_track
1, 0, Tempo, 500000
1, 0, Time_signature, 4, 2, 24, 8
1, 1, End_track
2, 0, Start_track
2, 0, Title_t," ""6/29 1 ~ 3  e-Comp"""
2, 0, Program_c, 0, 0
2, 0, Control_c, 0, 64, 0
2, 0, Control_c, 0, 67, 0
2, 768, Note_on_c, 0, 63, 46
2, 774, Note_on_c, 0, 59, 46
2, 950, Note_on_c, 0, 71, 46
2, 1088, Note_on_c, 0, 71, 0
2, 1120, Note_on_c, 0, 70, 45
2, 1275, Note_on_c, 0, 70, 0
2, 1279, Note_on_c, 0, 71, 52
2, 1433, Note_on_c, 0, 71, 0
2, 1437, Note_on_c, 0, 64, 53
2, 1437, Note_on_c, 0, 73, 56
2, 1472, Note_on_c, 0, 63, 0
2, 1581, Note_on_c, 0, 73, 0
2, 1588, Note_on_c, 0, 70, 59
2, 1746, Note_on_c, 0, 71, 61
2, 1772, Note_on_c, 0, 70, 0
2, 1895, Note_on_c, 0, 73, 63
2, 1964, Note_on_c, 0, 71, 0
2, 2038, Note_on_c, 0, 73, 0
2, 2063, Note_on_c, 0, 66, 62
2, 2115, Note_on_c, 0, 64, 0
2, 2202, Note_on_c, 0, 75, 68
2, 2358, Note_on_c, 0, 73, 71
2, 2358, Note_on_c, 0, 75, 0
2, 2510, Note_on_c, 0, 75, 81
2, 2551, Note_on_c, 0, 73, 0
2, 2676, Note_on_c, 0, 76, 73
2, 2679, Note_on_c, 0, 68, 68
2, 2719, Note_on_c, 0, 75, 0
2, 2781, Note_on_c, 0, 66, 0
2, 2814, Note_on_c, 0, 73, 70
2, 2817, Note_on_c, 0, 76, 0
2, 2970, Note_on_c, 0, 75, 77
2, 3007, Note_on_c, 0, 73, 0
2, 3117, Note_on_c, 0, 76, 67
2, 3161, Note_on_c, 0, 75, 0
2, 3245, Note_on_c, 0, 76, 0
2, 3317, Note_on_c, 0, 70, 66
2, 3371, Note_on_c, 0, 68, 0
2, 3499, Note_on_c, 0, 76, 48
2, 3628, Note_on_c, 0, 76, 0
2, 3663, Note_on_c, 0, 75, 53
2, 3821, Note_on_c, 0, 76, 57
2, 3853, Note_on_c, 0, 75, 0
2, 3973, Note_on_c, 0, 76, 0
2, 3978, Note_on_c, 0, 78, 64
2, 4103, Note_on_c, 0, 78, 0
2, 4115, Note_on_c, 0, 73, 64
2, 4276, Note_on_c, 0, 75, 78
2, 4304, Note_on_c, 0, 73, 0
2, 4410, Note_on_c, 0, 75, 0
2, 4411, Note_on_c, 0, 76, 65
2, 4462, Note_on_c, 0, 70, 0
2, 4572, Note_on_c, 0, 76, 0
2, 4593, Note_on_c, 0, 75, 70
2, 4780, Note_on_c, 0, 70, 43
2, 4896, Note_on_c, 0, 70, 0
2, 4923, Note_on_c, 0, 68, 45
2, 5079, Note_on_c, 0, 70, 48
2, 5154, Note_on_c, 0, 68, 0
2, 5242, Note_on_c, 0, 71, 53
2, 5344, Note_on_c, 0, 70, 0
2, 5396, Note_on_c, 0, 68, 56
2, 5410, Note_on_c, 0, 71, 0
2, 5543, Note_on_c, 0, 70, 63
2, 5564, Note_on_c, 0, 68, 0
2, 5665, Note_on_c, 0, 59, 0
2, 5689, Note_on_c, 0, 71, 67
2, 5726, Note_on_c, 0, 75, 0
2, 5844, Note_on_c, 0, 73, 69
2, 5869, Note_on_c, 0, 70, 0
2, 5875, Note_on_c, 0, 65, 39
2, 5884, Note_on_c, 0, 71, 0
2, 5986, Note_on_c, 0, 56, 49
2, 6152, Note_on_c, 0, 56, 0
2, 6168, Note_on_c, 0, 54, 50
2, 6300, Note_on_c, 0, 54, 0
2, 6309, Note_on_c, 0, 56, 47
2, 6453, Note_on_c, 0, 56, 0
2, 6455, Note_on_c, 0, 65, 0
2, 6459, Note_on_c, 0, 66, 63
2, 6471, Note_on_c, 0, 58, 41
2, 6608, Note_on_c, 0, 58, 0
2, 6611, Note_on_c, 0, 54, 48
2, 6755, Note_on_c, 0, 54, 0
2, 6766, Note_on_c, 0, 56, 47
2, 6900, Note_on_c, 0, 56, 0
2, 6933, Note_on_c, 0, 58, 39
2, 7125, Note_on_c, 0, 51, 42
2, 7149, Note_on_c, 0, 58, 0
2, 7259, Note_on_c, 0, 70, 67
2, 7386, Note_on_c, 0, 51, 0
2, 7409, Note_on_c, 0, 68, 75
2, 7413, Note_on_c, 0, 70, 0
2, 7548, Note_on_c, 0, 70, 72
2, 7552, Note_on_c, 0, 73, 0
2, 7586, Note_on_c, 0, 68, 0
2, 7729, Note_on_c, 0, 71, 67
2, 7743, Note_on_c, 0, 56, 51
2, 7813, Note_on_c, 0, 70, 0
2, 7884, Note_on_c, 0, 68, 72
2, 7891, Note_on_c, 0, 71, 0
2, 8044, Note_on_c, 0, 70, 70
2, 8076, Note_on_c, 0, 68, 0
2, 8087, Note_on_c, 0, 56, 0
2, 8168, Note_on_c, 0, 66, 0
2, 8180, Note_on_c, 0, 71, 65
2, 8206, Note_on_c, 0, 70, 0
2, 8348, Note_on_c, 0, 65, 62
2, 8350, Note_on_c, 0, 49, 54
2, 8459, Note_on_c, 0, 71, 0
2, 8498, Note_on_c, 0, 68, 64
2, 8633, Note_on_c, 0, 68, 0
2, 8651, Note_on_c, 0, 66, 62
2, 8679, Note_on_c, 0, 49, 0
2, 8750, Note_on_c, 0, 65, 0
2, 8795, Note_on_c, 0, 68, 67
2, 8886, Note_on_c, 0, 66, 0
2, 8962, Note_on_c, 0, 64, 70
2, 8966, Note_on_c, 0, 54, 49
2, 8994, Note_on_c, 0, 68, 0
2, 9105, Note_on_c, 0, 66, 63
2, 9265, Note_on_c, 0, 68, 63
2, 9283, Note_on_c, 0, 54, 0
2, 9386, Note_on_c, 0, 64, 0
2, 9409, Note_on_c, 0, 70, 67
2, 9439, Note_on_c, 0, 66, 0
2, 9446, Note_on_c, 0, 68, 0
2, 9590, Note_on_c, 0, 47, 43
2, 9594, Note_on_c, 0, 63, 61
2, 9702, Note_on_c, 0, 47, 0
2, 9733, Note_on_c, 0, 58, 48
2, 9901, Note_on_c, 0, 58, 0
2, 9904, Note_on_c, 0, 56, 46
2, 10046, Note_on_c, 0, 56, 0
2, 10049, Note_on_c, 0, 58, 49
2, 10199, Note_on_c, 0, 58, 0
2, 10225, Note_on_c, 0, 68, 59
2, 10233, Note_on_c, 0, 59, 38
2, 10303, Note_on_c, 0, 70, 0
2, 10354, Note_on_c, 0, 59, 0
2, 10377, Note_on_c, 0, 56, 39
2, 10521, Note_on_c, 0, 56, 0
2, 10527, Note_on_c, 0, 66, 69
2, 10537, Note_on_c, 0, 58, 42
2, 10562, Note_on_c, 0, 68, 0
2, 10572, Control_c, 0, 64, 46
2, 10588, Control_c, 0, 64, 64
2, 10603, Control_c, 0, 64, 68
2, 10612, Note_on_c, 0, 58, 0
2, 10618, Control_c, 0, 64, 76
2, 10635, Control_c, 0, 64, 105
2, 10650, Control_c, 0, 64, 127
2, 10659, Note_on_c, 0, 59, 47
2, 10678, Note_on_c, 0, 63, 0
2, 10682, Note_on_c, 0, 66, 0
2, 10731, Note_on_c, 0, 59, 0
2, 10824, Control_c, 0, 64, 99
2, 10840, Control_c, 0, 64, 78
2, 10855, Control_c, 0, 64, 66
2, 10865, Note_on_c, 0, 49, 41
2, 10871, Control_c, 0, 64, 55
2, 10871, Note_on_c, 0, 65, 69
2, 10885, Control_c, 0, 64, 0
2, 11021, Note_on_c, 0, 51, 42
2, 11042, Note_on_c, 0, 49, 0
2, 11143, Note_on_c, 0, 51, 0
2, 11156, Note_on_c, 0, 65, 0
2, 11162, Note_on_c, 0, 61, 59
2, 11180, Note_on_c, 0, 47, 42
2, 11314, Note_on_c, 0, 47, 0
2, 11315, Note_on_c, 0, 49, 50
2, 11479, Note_on_c, 0, 59, 54
2, 11479, Note_on_c, 0, 66, 66
2, 11484, Note_on_c, 0, 49, 0
2, 11500, Note_on_c, 0, 51, 47
2, 11500, Note_on_c, 0, 61, 0
2, 11612, Note_on_c, 0, 51, 0
2, 11629, Note_on_c, 0, 47, 49
2, 11788, Note_on_c, 0, 47, 0
2, 11794, Note_on_c, 0, 49, 47
2, 11803, Note_on_c, 0, 58, 62
2, 11835, Note_on_c, 0, 59, 0
2, 11904, Note_on_c, 0, 49, 0
2, 11951, Note_on_c, 0, 51, 48
2, 12110, Note_on_c, 0, 44, 51
2, 12121, Note_on_c, 0, 51, 0
2, 12128, Note_on_c, 0, 59, 49
2, 12182, Note_on_c, 0, 58, 0
2, 12293, Note_on_c, 0, 58, 66
2, 12391, Note_on_c, 0, 59, 0
2, 12432, Note_on_c, 0, 58, 0
2, 12452, Note_on_c, 0, 56, 68
2, 12522, Note_on_c, 0, 66, 0
2, 12601, Note_on_c, 0, 58, 56
2, 12702, Note_on_c, 0, 44, 0
2, 12742, Note_on_c, 0, 58, 0
2, 12774, Note_on_c, 0, 65, 60
2, 12782, Note_on_c, 0, 49, 40
2, 12791, Note_on_c, 0, 56, 0
2, 12925, Note_on_c, 0, 56, 38
2, 13112, Note_on_c, 0, 58, 51
2, 13130, Control_c, 0, 64, 31
2, 13144, Control_c, 0, 64, 41
2, 13160, Control_c, 0, 64, 46
2, 13175, Control_c, 0, 64, 49
2, 13184, Note_on_c, 0, 56, 0
2, 13191, Control_c, 0, 64, 50
2, 13206, Control_c, 0, 64, 50
2, 13248, Note_on_c, 0, 58, 0
2, 13254, Note_on_c, 0, 65, 0
2, 13265, Note_on_c, 0, 59, 44
2, 13312, Control_c, 0, 64, 49
2, 13327, Control_c, 0, 64, 46
2, 13341, Control_c, 0, 64, 42
2, 13357, Control_c, 0, 64, 35
2, 13372, Control_c, 0, 64, 24
2, 13388, Control_c, 0, 64, 0
2, 13474, Note_on_c, 0, 42, 32
2, 13480, Note_on_c, 0, 66, 53
2, 13488, Note_on_c, 0, 58, 16
2, 13506, Note_on_c, 0, 59, 0
2, 13511, Note_on_c, 0, 49, 0
2, 13663, Note_on_c, 0, 49, 39
2, 13784, Note_on_c, 0, 49, 0
2, 13820, Note_on_c, 0, 47, 48
2, 13967, Note_on_c, 0, 49, 52
2, 13974, Note_on_c, 0, 47, 0
2, 14121, Note_on_c, 0, 59, 63
2, 14133, Note_on_c, 0, 51, 46
2, 14142, Note_on_c, 0, 49, 0
2, 14175, Note_on_c, 0, 58, 0
2, 14286, Note_on_c, 0, 47, 49
2, 14295, Note_on_c, 0, 51, 0
2, 14414, Note_on_c, 0, 42, 0
2, 14430, Note_on_c, 0, 49, 58
2, 14480, Note_on_c, 0, 47, 0
2, 14564, Note_on_c, 0, 49, 0
2, 14579, Note_on_c, 0, 51, 56
2, 14743, Note_on_c, 0, 61, 67
2, 14751, Note_on_c, 0, 42, 52
2, 14775, Note_on_c, 0, 59, 0
2, 14787, Note_on_c, 0, 51, 0
2, 14903, Note_on_c, 0, 46, 59
2, 14931, Note_on_c, 0, 42, 0
2, 15064, Note_on_c, 0, 44, 68
2, 15064, Note_on_c, 0, 46, 0
2, 15214, Note_on_c, 0, 44, 0
2, 15214, Note_on_c, 0, 46, 58
2, 15381, Note_on_c, 0, 47, 58
2, 15382, Note_on_c, 0, 46, 0
2, 15394, Note_on_c, 0, 63, 56
2, 15417, Note_on_c, 0, 61, 0
2, 15421, Note_on_c, 0, 66, 0
2, 15544, Note_on_c, 0, 44, 57
2, 15556, Note_on_c, 0, 47, 0
2, 15683, Note_on_c, 0, 44, 0
2, 15693, Note_on_c, 0, 46, 59
2, 15815, Note_on_c, 0, 46, 0
2, 15835, Note_on_c, 0, 47, 51
2, 16015, Note_on_c, 0, 40, 40
2, 16019, Note_on_c, 0, 47, 0
2, 16184, Note_on_c, 0, 68, 51
2, 16259, Note_on_c, 0, 63, 0
2, 16322, Control_c, 0, 64, 28
2, 16337, Control_c, 0, 64, 47
2, 16346, Note_on_c, 0, 68, 0
2, 16353, Control_c, 0, 64, 57
2, 16355, Note_on_c, 0, 67, 57
2, 16368, Control_c, 0, 64, 62
2, 16383, Control_c, 0, 64, 65
2, 16399, Control_c, 0, 64, 67
2, 16414, Control_c, 0, 64, 69
2, 16430, Control_c, 0, 64, 73
2, 16444, Control_c, 0, 64, 78
2, 16459, Control_c, 0, 64, 84
2, 16475, Control_c, 0, 64, 86
2, 16490, Control_c, 0, 64, 86
2, 16492, Note_on_c, 0, 67, 0
2, 16493, Note_on_c, 0, 68, 69
2, 16593, Note_on_c, 0, 40, 0
2, 16597, Control_c, 0, 64, 86
2, 16612, Control_c, 0, 64, 83
2, 16627, Control_c, 0, 64, 78
2, 16642, Control_c, 0, 64, 72
2, 16657, Control_c, 0, 64, 66
2, 16664, Note_on_c, 0, 70, 71
2, 16672, Note_on_c, 0, 52, 54
2, 16673, Control_c, 0, 64, 63
2, 16673, Note_on_c, 0, 61, 59
2, 16688, Control_c, 0, 64, 47
2, 16702, Control_c, 0, 64, 0
2, 16710, Note_on_c, 0, 68, 0
2, 16814, Note_on_c, 0, 67, 63
2, 16816, Note_on_c, 0, 70, 0
2, 16854, Control_c, 0, 64, 32
2, 16878, Control_c, 0, 64, 41
2, 16893, Control_c, 0, 64, 44
2, 16907, Control_c, 0, 64, 46
2, 16923, Control_c, 0, 64, 47
2, 16954, Control_c, 0, 64, 43
2, 16969, Control_c, 0, 64, 37
2, 16970, Note_on_c, 0, 68, 72
2, 16983, Control_c, 0, 64, 28
2, 16999, Control_c, 0, 64, 0
2, 17025, Note_on_c, 0, 67, 0
2, 17107, Note_on_c, 0, 70, 64
2, 17162, Note_on_c, 0, 68, 0
2, 17280, Note_on_c, 0, 67, 71
2, 17280, Note_on_c, 0, 70, 0
2, 17281, Note_on_c, 0, 51, 65
2, 17300, Note_on_c, 0, 52, 0
2, 17432, Note_on_c, 0, 70, 68
2, 17435, Note_on_c, 0, 67, 0
2, 17585, Note_on_c, 0, 70, 0
2, 17597, Note_on_c, 0, 68, 74
2, 17757, Note_on_c, 0, 70, 75
2, 17808, Note_on_c, 0, 61, 0
2, 17899, Note_on_c, 0, 68, 0
2, 17907, Note_on_c, 0, 71, 68
2, 17911, Note_on_c, 0, 59, 75
2, 17977, Note_on_c, 0, 70, 0
2, 18074, Note_on_c, 0, 68, 66
2, 18097, Note_on_c, 0, 71, 0
2, 18218, Note_on_c, 0, 70, 77
2, 18234, Note_on_c, 0, 68, 0
2, 18300, Control_c, 0, 64, 36
2, 18316, Control_c, 0, 64, 50
2, 18330, Control_c, 0, 64, 56
2, 18331, Note_on_c, 0, 70, 0
2, 18345, Control_c, 0, 64, 58
2, 18352, Note_on_c, 0, 71, 76
2, 18430, Control_c, 0, 64, 56
2, 18445, Control_c, 0, 64, 53
2, 18460, Control_c, 0, 64, 46
2, 18475, Control_c, 0, 64, 35
2, 18490, Control_c, 0, 64, 0
2, 18529, Note_on_c, 0, 58, 70
2, 18530, Note_on_c, 0, 73, 77
2, 18539, Note_on_c, 0, 71, 0
2, 18609, Note_on_c, 0, 51, 0
2, 18642, Note_on_c, 0, 59, 0
2, 18676, Note_on_c, 0, 80, 72
2, 18678, Note_on_c, 0, 73, 0
2, 18818, Note_on_c, 0, 56, 75
2, 18821, Note_on_c, 0, 80, 0
2, 18825, Note_on_c, 0, 79, 74
2, 18829, Note_on_c, 0, 58, 0
2, 18984, Note_on_c, 0, 80, 72
2, 19008, Note_on_c, 0, 79, 0
2, 19141, Note_on_c, 0, 49, 62
2, 19141, Note_on_c, 0, 82, 71
2, 19191, Note_on_c, 0, 80, 0
2, 19297, Note_on_c, 0, 79, 73
2, 19312, Note_on_c, 0, 82, 0
2, 19437, Note_on_c, 0, 56, 0
2, 19460, Note_on_c, 0, 55, 61
2, 19465, Note_on_c, 0, 49, 0
2, 19466, Note_on_c, 0, 80, 68
2, 19486, Control_c, 0, 64, 49
2, 19501, Control_c, 0, 64, 60
2, 19516, Control_c, 0, 64, 63
2, 19531, Control_c, 0, 64, 66
2, 19546, Control_c, 0, 64, 72
2, 19561, Control_c, 0, 64, 87
2, 19576, Control_c, 0, 64, 127
2, 19608, Note_on_c, 0, 82, 75
2, 19620, Note_on_c, 0, 79, 0
2, 19626, Note_on_c, 0, 80, 0
2, 19652, Note_on_c, 0, 82, 0
2, 19715, Control_c, 0, 64, 93
2, 19730, Control_c, 0, 64, 78
2, 19744, Control_c, 0, 64, 68
2, 19760, Control_c, 0, 64, 63
2, 19773, Note_on_c, 0, 47, 52
2, 19775, Control_c, 0, 64, 53
2, 19777, Note_on_c, 0, 75, 69
2, 19790, Control_c, 0, 64, 46
2, 19794, Note_on_c, 0, 55, 0
2, 19805, Control_c, 0, 64, 43
2, 19820, Control_c, 0, 64, 41
2, 19836, Control_c, 0, 64, 35
2, 19851, Control_c, 0, 64, 17
2, 19865, Control_c, 0, 64, 0
2, 19922, Note_on_c, 0, 70, 51
2, 20064, Note_on_c, 0, 70, 0
2, 20079, Note_on_c, 0, 68, 55
2, 20094, Note_on_c, 0, 46, 47
2, 20098, Note_on_c, 0, 47, 0
2, 20233, Note_on_c, 0, 70, 55
2, 20365, Note_on_c, 0, 68, 0
2, 20389, Note_on_c, 0, 71, 56
2, 20401, Note_on_c, 0, 44, 42
2, 20404, Note_on_c, 0, 46, 0
2, 20502, Note_on_c, 0, 70, 0
2, 20533, Note_on_c, 0, 71, 0
2, 20536, Note_on_c, 0, 68, 59
2, 20705, Note_on_c, 0, 70, 58
2, 20719, Note_on_c, 0, 68, 0
2, 20869, Note_on_c, 0, 71, 60
2, 20875, Note_on_c, 0, 75, 0
2, 20885, Control_c, 0, 64, 33
2, 20900, Control_c, 0, 64, 61
2, 20916, Control_c, 0, 64, 64
2, 20930, Control_c, 0, 64, 66
2, 20932, Note_on_c, 0, 70, 0
2, 20945, Control_c, 0, 64, 67
2, 20954, Note_on_c, 0, 71, 0
2, 20991, Control_c, 0, 64, 66
2, 21006, Control_c, 0, 64, 65
2, 21021, Control_c, 0, 64, 64
2, 21027, Note_on_c, 0, 73, 68
2, 21051, Note_on_c, 0, 64, 42
2, 21113, Control_c, 0, 64, 64
2, 21146, Note_on_c, 0, 44, 0
2, 21159, Control_c, 0, 64, 63
2, 21173, Note_on_c, 0, 56, 38
2, 21181, Note_on_c, 0, 71, 56
2, 21203, Note_on_c, 0, 64, 0
2, 21243, Note_on_c, 0, 56, 0
2, 21250, Control_c, 0, 64, 63
2, 21265, Control_c, 0, 64, 62
2, 21281, Control_c, 0, 64, 61
2, 21296, Control_c, 0, 64, 57
2, 21312, Control_c, 0, 64, 52
2, 21324, Note_on_c, 0, 55, 57
2, 21327, Control_c, 0, 64, 47
2, 21327, Note_on_c, 0, 70, 64
2, 21342, Control_c, 0, 64, 46
2, 21358, Control_c, 0, 64, 45
2, 21372, Control_c, 0, 64, 44
2, 21387, Control_c, 0, 64, 42
2, 21400, Note_on_c, 0, 71, 0
2, 21403, Control_c, 0, 64, 37
2, 21418, Control_c, 0, 64, 34
2, 21434, Control_c, 0, 64, 31
2, 21449, Control_c, 0, 64, 13
2, 21450, Note_on_c, 0, 55, 0
2, 21464, Control_c, 0, 64, 0
2, 21474, Note_on_c, 0, 68, 64
2, 21489, Note_on_c, 0, 56, 46
2, 21501, Note_on_c, 0, 70, 0
2, 21607, Note_on_c, 0, 56, 0
2, 21647, Note_on_c, 0, 58, 42
2, 21651, Note_on_c, 0, 67, 60
2, 21652, Note_on_c, 0, 68, 0
2, 21761, Note_on_c, 0, 58, 0
2, 21785, Note_on_c, 0, 55, 52
2, 21941, Note_on_c, 0, 55, 0
2, 21944, Note_on_c, 0, 56, 47
2, 22096, Note_on_c, 0, 73, 0
2, 22100, Note_on_c, 0, 56, 0
2, 22106, Note_on_c, 0, 58, 56
2, 22242, Note_on_c, 0, 58, 0
2, 22291, Note_on_c, 0, 52, 47
2, 22433, Note_on_c, 0, 75, 61
2, 22584, Note_on_c, 0, 75, 0
2, 22586, Note_on_c, 0, 73, 67
2, 22609, Note_on_c, 0, 64, 52
2, 22627, Note_on_c, 0, 52, 0
2, 22680, Control_c, 0, 64, 22
2, 22695, Control_c, 0, 64, 37
2, 22711, Control_c, 0, 64, 42
2, 22726, Control_c, 0, 64, 45
2, 22738, Note_on_c, 0, 75, 74
2, 22740, Control_c, 0, 64, 47
2, 22756, Control_c, 0, 64, 49
2, 22771, Control_c, 0, 64, 49
2, 22791, Note_on_c, 0, 73, 0
2, 22831, Control_c, 0, 64, 46
2, 22846, Control_c, 0, 64, 38
2, 22860, Control_c, 0, 64, 0
2, 22886, Note_on_c, 0, 76, 58
2, 22900, Note_on_c, 0, 68, 74
2, 22901, Note_on_c, 0, 63, 52
2, 22926, Note_on_c, 0, 75, 0
2, 22946, Note_on_c, 0, 67, 0
2, 22962, Note_on_c, 0, 64, 0
2, 23050, Note_on_c, 0, 76, 0
2, 23051, Control_c, 0, 64, 20
2, 23063, Note_on_c, 0, 73, 66
2, 23066, Control_c, 0, 64, 41
2, 23082, Control_c, 0, 64, 47
2, 23097, Control_c, 0, 64, 50
2, 23113, Control_c, 0, 64, 51
2, 23127, Control_c, 0, 64, 49
2, 23142, Control_c, 0, 64, 41
2, 23158, Control_c, 0, 64, 0
2, 23201, Note_on_c, 0, 63, 0
2, 23204, Note_on_c, 0, 61, 56
2, 23204, Note_on_c, 0, 75, 64
2, 23295, Control_c, 0, 64, 33
2, 23310, Control_c, 0, 64, 45
2, 23325, Control_c, 0, 64, 47
2, 23337, Note_on_c, 0, 73, 0
2, 23340, Control_c, 0, 64, 46
2, 23356, Control_c, 0, 64, 41
2, 23357, Note_on_c, 0, 76, 66
2, 23371, Control_c, 0, 64, 29
2, 23384, Note_on_c, 0, 75, 0
2, 23385, Control_c, 0, 64, 0
2, 23479, Note_on_c, 0, 76, 0
2, 23519, Note_on_c, 0, 63, 53
2, 23520, Note_on_c, 0, 70, 66
2, 23522, Note_on_c, 0, 61, 0
2, 23656, Note_on_c, 0, 70, 0
2, 23663, Note_on_c, 0, 71, 62
2, 23763, Note_on_c, 0, 68, 0
2, 23763, Note_on_c, 0, 71, 0
2, 23841, Note_on_c, 0, 70, 57
2, 23843, Note_on_c, 0, 61, 53
2, 23873, Note_on_c, 0, 63, 0
2, 23977, Note_on_c, 0, 71, 56
2, 24023, Note_on_c, 0, 70, 0
2, 24127, Note_on_c, 0, 71, 0
2, 24132, Note_on_c, 0, 61, 0
2, 24152, Note_on_c, 0, 63, 45
2, 24152, Note_on_c, 0, 67, 51
2, 24152, Note_on_c, 0, 73, 56
2, 24314, Note_on_c, 0, 70, 57
2, 24374, Note_on_c, 0, 73, 0
2, 24466, Note_on_c, 0, 51, 44
2, 24470, Note_on_c, 0, 71, 51
2, 24600, Note_on_c, 0, 71, 0
2, 24609, Note_on_c, 0, 70, 0
2, 24622, Note_on_c, 0, 73, 58
2, 24689, Note_on_c, 0, 63, 0
2, 24763, Note_on_c, 0, 73, 0
2, 24779, Note_on_c, 0, 67, 0
2, 24779, Note_on_c, 0, 68, 48
2, 24784, Note_on_c, 0, 56, 43
2, 24790, Note_on_c, 0, 71, 38
2, 24838, Note_on_c, 0, 71, 0
2, 24884, Note_on_c, 0, 68, 0
2, 24912, Note_on_c, 0, 56, 0
2, 24916, Note_on_c, 0, 58, 55
2, 24918, Note_on_c, 0, 68, 49
2, 24923, Note_on_c, 0, 51, 0
2, 25077, Note_on_c, 0, 75, 75
2, 25094, Note_on_c, 0, 58, 0
2, 25095, Note_on_c, 0, 56, 55
2, 25236, Note_on_c, 0, 58, 61
2, 25248, Note_on_c, 0, 56, 0
2, 25405, Note_on_c, 0, 80, 91
2, 25413, Note_on_c, 0, 59, 54
2, 25415, Note_on_c, 0, 58, 0
2, 25455, Note_on_c, 0, 75, 0
2, 25500, Note_on_c, 0, 68, 0
2, 25547, Note_on_c, 0, 56, 58
2, 25551, Note_on_c, 0, 59, 0
2, 25713, Note_on_c, 0, 78, 88
2, 25738, Note_on_c, 0, 58, 55
2, 25761, Note_on_c, 0, 80, 0
2, 25766, Control_c, 0, 64, 51
2, 25771, Note_on_c, 0, 56, 0
2, 25781, Control_c, 0, 64, 62
2, 25797, Control_c, 0, 64, 65
2, 25809, Note_on_c, 0, 78, 0
2, 25812, Control_c, 0, 64, 69
2, 25827, Control_c, 0, 64, 75
2, 25837, Note_on_c, 0, 58, 0
2, 25842, Control_c, 0, 64, 84
2, 25857, Control_c, 0, 64, 95
2, 25867, Note_on_c, 0, 59, 62
2, 25873, Control_c, 0, 64, 97
2, 25903, Control_c, 0, 64, 95
2, 25919, Control_c, 0, 64, 93
2, 25934, Control_c, 0, 64, 91
2, 25950, Control_c, 0, 64, 87
2, 25964, Control_c, 0, 64, 83
2, 25979, Control_c, 0, 64, 78
2, 25995, Control_c, 0, 64, 72
2, 26010, Control_c, 0, 64, 68
2, 26025, Control_c, 0, 64, 65
2, 26038, Note_on_c, 0, 77, 88
2, 26040, Control_c, 0, 64, 64
2, 26047, Note_on_c, 0, 59, 0
2, 26051, Note_on_c, 0, 49, 54
2, 26055, Control_c, 0, 64, 60
2, 26071, Control_c, 0, 64, 55
2, 26093, Control_c, 0, 64, 49
2, 26109, Control_c, 0, 64, 42
2, 26124, Control_c, 0, 64, 26
2, 26139, Control_c, 0, 64, 0
2, 26203, Note_on_c, 0, 73, 58
2, 26356, Note_on_c, 0, 61, 69
2, 26368, Note_on_c, 0, 73, 0
2, 26372, Note_on_c, 0, 71, 60
2, 26498, Note_on_c, 0, 59, 69
2, 26502, Note_on_c, 0, 73, 55
2, 26516, Note_on_c, 0, 61, 0
2, 26533, Note_on_c, 0, 71, 0
2, 26640, Note_on_c, 0, 59, 0
2, 26664, Note_on_c, 0, 57, 77
2, 26681, Note_on_c, 0, 73, 0
2, 26683, Note_on_c, 0, 74, 65
2, 26701, Note_on_c, 0, 49, 0
2, 26820, Note_on_c, 0, 71, 54
2, 26822, Note_on_c, 0, 74, 0
2, 26981, Note_on_c, 0, 56, 56
2, 26989, Note_on_c, 0, 71, 0
2, 26996, Note_on_c, 0, 73, 55
2, 27022, Note_on_c, 0, 57, 0
2, 27139, Note_on_c, 0, 73, 0
2, 27140, Note_on_c, 0, 74, 60
2, 27282, Note_on_c, 0, 56, 0
2, 27297, Note_on_c, 0, 74, 0
2, 27300, Note_on_c, 0, 54, 42
2, 27310, Note_on_c, 0, 69, 52
2, 27312, Note_on_c, 0, 77, 0
2, 27441, Note_on_c, 0, 54, 0
2, 27453, Note_on_c, 0, 56, 45
2, 27604, Note_on_c, 0, 73, 67
2, 27606, Note_on_c, 0, 56, 0
2, 27631, Note_on_c, 0, 54, 40
2, 27764, Note_on_c, 0, 56, 45
2, 27768, Note_on_c, 0, 54, 0
2, 27920, Note_on_c, 0, 78, 84
2, 27931, Note_on_c, 0, 56, 0
2, 27937, Note_on_c, 0, 57, 50
2, 28065, Note_on_c, 0, 73, 0
2, 28073, Note_on_c, 0, 57, 0
2, 28078, Note_on_c, 0, 54, 52
2, 28236, Note_on_c, 0, 76, 72
2, 28237, Note_on_c, 0, 54, 0
2, 28241, Note_on_c, 0, 56, 58
2, 28285, Control_c, 0, 64, 13
2, 28285, Note_on_c, 0, 69, 0
2, 28299, Control_c, 0, 64, 43
2, 28315, Control_c, 0, 64, 51
2, 28330, Control_c, 0, 64, 56
2, 28334, Note_on_c, 0, 56, 0
2, 28344, Control_c, 0, 64, 59
2, 28360, Control_c, 0, 64, 61
2, 28374, Note_on_c, 0, 57, 57
2, 28375, Control_c, 0, 64, 61
2, 28383, Note_on_c, 0, 78, 0
2, 28413, Control_c, 0, 64, 61
2, 28429, Control_c, 0, 64, 60
2, 28444, Control_c, 0, 64, 58
2, 28459, Control_c, 0, 64, 55
2, 28475, Control_c, 0, 64, 50
2, 28490, Control_c, 0, 64, 34
2, 28504, Control_c, 0, 64, 0
2, 28517, Note_on_c, 0, 76, 0
2, 28540, Note_on_c, 0, 75, 72
2, 28549, Note_on_c, 0, 47, 63
2, 28559, Note_on_c, 0, 57, 0
2, 28692, Note_on_c, 0, 69, 48
2, 28852, Note_on_c, 0, 69, 0
2, 28855, Note_on_c, 0, 59, 71
2, 28857, Note_on_c, 0, 68, 55
2, 28858, Note_on_c, 0, 47, 0
2, 29004, Note_on_c, 0, 57, 77
2, 29013, Note_on_c, 0, 69, 38
2, 29032, Note_on_c, 0, 59, 0
2, 29065, Note_on_c, 0, 75, 0
2, 29180, Note_on_c, 0, 56, 74
2, 29183, Note_on_c, 0, 71, 53
2, 29187, Note_on_c, 0, 57, 0
2, 29222, Note_on_c, 0, 68, 0
2, 29233, Note_on_c, 0, 69, 0
2, 29331, Note_on_c, 0, 66, 57
2, 29483, Note_on_c, 0, 54, 58
2, 29489, Note_on_c, 0, 56, 0
2, 29495, Note_on_c, 0, 68, 59
2, 29591, Note_on_c, 0, 71, 0
2, 29592, Note_on_c, 0, 66, 0
2, 29622, Control_c, 0, 64, 22
2, 29632, Note_on_c, 0, 69, 55
2, 29638, Control_c, 0, 64, 28
2, 29713, Control_c, 0, 64, 20
2, 29728, Control_c, 0, 64, 0
2, 29749, Note_on_c, 0, 69, 0
2, 29774, Note_on_c, 0, 68, 0
2, 29780, Note_on_c, 0, 54, 0
2, 29796, Note_on_c, 0, 68, 30
2, 29797, Note_on_c, 0, 76, 67
2, 29799, Note_on_c, 0, 52, 52
2, 29957, Note_on_c, 0, 51, 59
2, 29961, Note_on_c, 0, 52, 0
2, 30101, Note_on_c, 0, 51, 0
2, 30117, Note_on_c, 0, 52, 54
2, 30251, Note_on_c, 0, 51, 57
2, 30271, Note_on_c, 0, 52, 0
2, 30409, Note_on_c, 0, 51, 0
2, 30424, Note_on_c, 0, 70, 64
2, 30425, Note_on_c, 0, 49, 50
2, 30514, Note_on_c, 0, 68, 0
2, 30541, Note_on_c, 0, 49, 0
2, 30555, Note_on_c, 0, 52, 52
2, 30734, Note_on_c, 0, 51, 48
2, 30736, Note_on_c, 0, 52, 0
2, 30736, Note_on_c, 0, 70, 0
2, 30738, Note_on_c, 0, 71, 59
2, 30844, Note_on_c, 0, 51, 0
2, 30876, Note_on_c, 0, 49, 52
2, 31055, Note_on_c, 0, 49, 0
2, 31060, Note_on_c, 0, 71, 0
2, 31064, Note_on_c, 0, 54, 62
2, 31071, Note_on_c, 0, 70, 59
2, 31165, Note_on_c, 0, 76, 0
2, 31223, Note_on_c, 0, 73, 64
2, 31311, Note_on_c, 0, 54, 0
2, 31334, Note_on_c, 0, 73, 0
2, 31389, Note_on_c, 0, 71, 61
2, 31532, Note_on_c, 0, 73, 71
2, 31569, Note_on_c, 0, 71, 0
2, 31589, Note_on_c, 0, 70, 0
2, 31696, Note_on_c, 0, 75, 64
2, 31710, Note_on_c, 0, 47, 54
2, 31710, Note_on_c, 0, 69, 73
2, 31737, Note_on_c, 0, 73, 0
2, 31862, Note_on_c, 0, 75, 0
2, 31863, Note_on_c, 0, 71, 56
2, 31981, Note_on_c, 0, 47, 0
2, 32031, Note_on_c, 0, 73, 64
2, 32064, Note_on_c, 0, 71, 0
2, 32168, Note_on_c, 0, 73, 0
2, 32173, Note_on_c, 0, 75, 70
2, 32350, Note_on_c, 0, 68, 70
2, 32353, Note_on_c, 0, 52, 37
2, 32384, Note_on_c, 0, 69, 0
2, 32469, Note_on_c, 0, 52, 0
2, 32507, Note_on_c, 0, 63, 62
2, 32676, Note_on_c, 0, 63, 0
2, 32684, Note_on_c, 0, 61, 54
2, 32826, Note_on_c, 0, 61, 0
2, 32827, Note_on_c, 0, 63, 58
2, 32978, Note_on_c, 0, 63, 0
2, 32984, Note_on_c, 0, 73, 73
2, 33003, Note_on_c, 0, 64, 47
2, 33031, Note_on_c, 0, 75, 0
2, 33052, Control_c, 0, 64, 36
2, 33066, Control_c, 0, 64, 55
2, 33082, Control_c, 0, 64, 62
2, 33097, Control_c, 0, 64, 64
2, 33113, Control_c, 0, 64, 66
2, 33128, Control_c, 0, 64, 68
2, 33134, Note_on_c, 0, 64, 0
2, 33140, Note_on_c, 0, 61, 53
2, 33143, Control_c, 0, 64, 71
2, 33159, Control_c, 0, 64, 75
2, 33174, Control_c, 0, 64, 81
2, 33179, Note_on_c, 0, 73, 0
2, 33190, Control_c, 0, 64, 87
2, 33205, Control_c, 0, 64, 90
2, 33235, Control_c, 0, 64, 88
2, 33250, Control_c, 0, 64, 83
2, 33264, Control_c, 0, 64, 75
2, 33280, Control_c, 0, 64, 68
2, 33282, Note_on_c, 0, 61, 0
2, 33293, Note_on_c, 0, 71, 72
2, 33295, Control_c, 0, 64, 64
2, 33302, Note_on_c, 0, 63, 50
2, 33311, Control_c, 0, 64, 56
2, 33326, Control_c, 0, 64, 31
2, 33340, Control_c, 0, 64, 0
2, 33356, Control_c, 0, 64, 33
2, 33371, Control_c, 0, 64, 52
2, 33386, Control_c, 0, 64, 60
2, 33397, Note_on_c, 0, 63, 0
2, 33402, Control_c, 0, 64, 63
2, 33416, Control_c, 0, 64, 65
2, 33425, Note_on_c, 0, 64, 67
2, 33432, Control_c, 0, 64, 66
2, 33447, Control_c, 0, 64, 68
2, 33462, Control_c, 0, 64, 69
2, 33477, Control_c, 0, 64, 71
2, 33481, Note_on_c, 0, 64, 0
2, 33492, Control_c, 0, 64, 72
2, 33507, Control_c, 0, 64, 74
2, 33523, Control_c, 0, 64, 74
2, 33537, Control_c, 0, 64, 73
2, 33553, Control_c, 0, 64, 71
2, 33568, Control_c, 0, 64, 68
2, 33583, Control_c, 0, 64, 65
2, 33594, Note_on_c, 0, 70, 81
2, 33599, Control_c, 0, 64, 63
2, 33605, Note_on_c, 0, 54, 50
2, 33614, Control_c, 0, 64, 60
2, 33622, Note_on_c, 0, 71, 0
2, 33630, Control_c, 0, 64, 51
2, 33640, Note_on_c, 0, 68, 0
2, 33645, Control_c, 0, 64, 20
2, 33660, Control_c, 0, 64, 0
2, 33744, Note_on_c, 0, 54, 0
2, 33746, Note_on_c, 0, 56, 51
2, 33899, Note_on_c, 0, 56, 0
2, 33913, Note_on_c, 0, 66, 65
2, 33917, Note_on_c, 0, 52, 47
2, 34059, Note_on_c, 0, 52, 0
2, 34074, Note_on_c, 0, 54, 42
2, 34219, Note_on_c, 0, 71, 72
2, 34229, Note_on_c, 0, 64, 56
2, 34231, Note_on_c, 0, 54, 0
2, 34240, Note_on_c, 0, 66, 0
2, 34248, Note_on_c, 0, 56, 45
2, 34261, Note_on_c, 0, 70, 0
2, 34365, Note_on_c, 0, 56, 0
2, 34378, Note_on_c, 0, 52, 47
2, 34514, Note_on_c, 0, 64, 0
2, 34518, Note_on_c, 0, 63, 60
2, 34543, Note_on_c, 0, 54, 44
2, 34551, Note_on_c, 0, 52, 0
2, 34643, Note_on_c, 0, 54, 0
2, 34684, Note_on_c, 0, 56, 48
2, 34817, Note_on_c, 0, 56, 0
2, 34837, Note_on_c, 0, 49, 58
2, 34858, Note_on_c, 0, 64, 49
2, 34883, Note_on_c, 0, 63, 0
2, 35000, Note_on_c, 0, 63, 57
2, 35008, Note_on_c, 0, 71, 0
2, 35100, Note_on_c, 0, 64, 0
2, 35127, Note_on_c, 0, 49, 0
2, 35142, Note_on_c, 0, 63, 0
2, 35152, Note_on_c, 0, 61, 61
2, 35326, Note_on_c, 0, 63, 59
2, 35472, Note_on_c, 0, 70, 66
2, 35482, Note_on_c, 0, 61, 0
2, 35489, Note_on_c, 0, 54, 57
2, 35613, Note_on_c, 0, 63, 0
2, 35621, Note_on_c, 0, 61, 59
2, 35730, Note_on_c, 0, 54, 0
2, 35791, Note_on_c, 0, 63, 60
2, 35892, Note_on_c, 0, 61, 0
2, 35926, Note_on_c, 0, 63, 0
2, 35929, Note_on_c, 0, 64, 56
2, 36085, Note_on_c, 0, 70, 0
2, 36088, Note_on_c, 0, 64, 0
2, 36097, Note_on_c, 0, 47, 64
2, 36114, Note_on_c, 0, 63, 64
2, 36244, Note_on_c, 0, 69, 65
2, 36410, Note_on_c, 0, 71, 72
2, 36432, Note_on_c, 0, 69, 0
2, 36551, Note_on_c, 0, 69, 69
2, 36590, Note_on_c, 0, 71, 0
2, 36594, Note_on_c, 0, 63, 0
2, 36718, Note_on_c, 0, 68, 76
2, 36727, Note_on_c, 0, 64, 62
2, 36766, Note_on_c, 0, 69, 0
2, 36880, Note_on_c, 0, 71, 77
2, 36904, Note_on_c, 0, 68, 0
2, 37024, Note_on_c, 0, 69, 76
2, 37060, Note_on_c, 0, 71, 0
2, 37176, Note_on_c, 0, 68, 82
2, 37201, Note_on_c, 0, 69, 0
2, 37339, Note_on_c, 0, 66, 74
2, 37344, Note_on_c, 0, 68, 0
2, 37469, Note_on_c, 0, 66, 0
2, 37483, Note_on_c, 0, 49, 61
2, 37491, Note_on_c, 0, 66, 40
2, 37525, Note_on_c, 0, 47, 0
2, 37653, Note_on_c, 0, 51, 68
2, 37674, Note_on_c, 0, 49, 0
2, 37792, Note_on_c, 0, 51, 0
2, 37799, Note_on_c, 0, 52, 63
2, 37942, Note_on_c, 0, 52, 0
2, 37945, Note_on_c, 0, 63, 75
2, 37957, Note_on_c, 0, 54, 59
2, 37977, Note_on_c, 0, 64, 0
2, 38100, Note_on_c, 0, 57, 67
2, 38142, Note_on_c, 0, 54, 0
2, 38247, Note_on_c, 0, 61, 68
2, 38254, Note_on_c, 0, 56, 65
2, 38283, Note_on_c, 0, 57, 0
2, 38292, Note_on_c, 0, 63, 0
2, 38296, Note_on_c, 0, 66, 0
2, 38404, Note_on_c, 0, 56, 0
2, 38405, Note_on_c, 0, 54, 66
2, 38578, Note_on_c, 0, 59, 61
2, 38580, Note_on_c, 0, 56, 60
2, 38596, Note_on_c, 0, 54, 0
2, 38716, Note_on_c, 0, 66, 70
2, 38720, Note_on_c, 0, 61, 0
2, 38878, Note_on_c, 0, 68, 75
2, 38896, Note_on_c, 0, 66, 0
2, 39025, Note_on_c, 0, 66, 74
2, 39132, Note_on_c, 0, 68, 0
2, 39193, Note_on_c, 0, 65, 77
2, 39229, Note_on_c, 0, 66, 0
2, 39340, Note_on_c, 0, 68, 83
2, 39377, Note_on_c, 0, 65, 0
2, 39493, Note_on_c, 0, 66, 88
2, 39576, Note_on_c, 0, 68, 0
2, 39621, Control_c, 0, 64, 33
2, 39637, Control_c, 0, 64, 45
2, 39652, Control_c, 0, 64, 49
2, 39652, Note_on_c, 0, 65, 84
2, 39666, Control_c, 0, 64, 53
2, 39667, Note_on_c, 0, 66, 0
2, 39682, Control_c, 0, 64, 55
2, 39697, Control_c, 0, 64, 57
2, 39713, Control_c, 0, 64, 58
2, 39728, Control_c, 0, 64, 59
2, 39742, Control_c, 0, 64, 60
2, 39803, Control_c, 0, 64, 60
2, 39814, Note_on_c, 0, 71, 88
2, 39818, Control_c, 0, 64, 58
2, 39834, Control_c, 0, 64, 55
2, 39849, Control_c, 0, 64, 49
2, 39863, Control_c, 0, 64, 46
2, 39879, Control_c, 0, 64, 37
2, 39894, Control_c, 0, 64, 0
2, 39974, Note_on_c, 0, 73, 89
2, 40013, Note_on_c, 0, 71, 0
2, 40116, Note_on_c, 0, 71, 85
2, 40153, Note_on_c, 0, 73, 0
2, 40162, Control_c, 0, 64, 38
2, 40176, Control_c, 0, 64, 47
2, 40192, Control_c, 0, 64, 53
2, 40207, Control_c, 0, 64, 58
2, 40222, Control_c, 0, 64, 61
2, 40237, Control_c, 0, 64, 62
2, 40252, Control_c, 0, 64, 63
2, 40264, Note_on_c, 0, 73, 82
2, 40267, Control_c, 0, 64, 64
2, 40283, Control_c, 0, 64, 64
2, 40297, Control_c, 0, 64, 65
2, 40313, Control_c, 0, 64, 66
2, 40328, Control_c, 0, 64, 67
2, 40343, Control_c, 0, 64, 68
2, 40377, Note_on_c, 0, 71, 0
2, 40405, Control_c, 0, 64, 67
2, 40419, Control_c, 0, 64, 66
2, 40430, Note_on_c, 0, 74, 87
2, 40435, Control_c, 0, 64, 65
2, 40449, Control_c, 0, 64, 64
2, 40464, Control_c, 0, 64, 62
2, 40467, Note_on_c, 0, 73, 0
2, 40480, Control_c, 0, 64, 59
2, 40495, Control_c, 0, 64, 54
2, 40510, Control_c, 0, 64, 45
2, 40525, Control_c, 0, 64, 28
2, 40540, Control_c, 0, 64, 0
2, 40575, Note_on_c, 0, 71, 90
2, 40586, Note_on_c, 0, 74, 0
2, 40750, Note_on_c, 0, 73, 87
2, 40762, Note_on_c, 0, 56, 0
2, 40775, Control_c, 0, 64, 41
2, 40791, Control_c, 0, 64, 62
2, 40806, Control_c, 0, 64, 67
2, 40821, Control_c, 0, 64, 73
2, 40827, Note_on_c, 0, 71, 0
2, 40836, Control_c, 0, 64, 91
2, 40839, Note_on_c, 0, 59, 0
2, 40851, Control_c, 0, 64, 127
2, 40893, Note_on_c, 0, 74, 84
2, 40913, Note_on_c, 0, 65, 0
2, 40917, Note_on_c, 0, 73, 0
2, 40936, Note_on_c, 0, 74, 0
2, 41050, Control_c, 0, 64, 111
2, 41064, Control_c, 0, 64, 85
2, 41075, Note_on_c, 0, 70, 81
2, 41080, Control_c, 0, 64, 74
2, 41084, Note_on_c, 0, 54, 54
2, 41090, Note_on_c, 0, 66, 58
2, 41095, Control_c, 0, 64, 66
2, 41111, Control_c, 0, 64, 53
2, 41126, Control_c, 0, 64, 0
2, 41176, Note_on_c, 0, 66, 0
2, 41226, Note_on_c, 0, 64, 70
2, 41390, Note_on_c, 0, 66, 69
2, 41395, Note_on_c, 0, 64, 0
2, 41414, Control_c, 0, 64, 42
2, 41430, Control_c, 0, 64, 59
2, 41453, Control_c, 0, 64, 63
2, 41468, Control_c, 0, 64, 64
2, 41483, Control_c, 0, 64, 65
2, 41498, Control_c, 0, 64, 67
2, 41512, Note_on_c, 0, 70, 0
2, 41514, Control_c, 0, 64, 68
2, 41520, Note_on_c, 0, 66, 0
2, 41523, Note_on_c, 0, 64, 70
2, 41529, Control_c, 0, 64, 69
2, 41544, Control_c, 0, 64, 70
2, 41650, Control_c, 0, 64, 69
2, 41665, Control_c, 0, 64, 67
2, 41680, Control_c, 0, 64, 64
2, 41691, Note_on_c, 0, 71, 85
2, 41695, Control_c, 0, 64, 58
2, 41710, Note_on_c, 0, 63, 54
2, 41710, Note_on_c, 0, 68, 64
2, 41711, Control_c, 0, 64, 32
2, 41726, Control_c, 0, 64, 0
2, 41743, Note_on_c, 0, 64, 0
2, 41779, Note_on_c, 0, 63, 0
2, 41839, Note_on_c, 0, 68, 0
2, 41854, Note_on_c, 0, 66, 72
2, 41994, Note_on_c, 0, 64, 76
2, 41999, Note_on_c, 0, 66, 0
2, 42125, Control_c, 0, 64, 53
2, 42130, Note_on_c, 0, 63, 81
2, 42140, Control_c, 0, 64, 65
2, 42145, Note_on_c, 0, 64, 0
2, 42156, Control_c, 0, 64, 73
2, 42165, Note_on_c, 0, 71, 0
2, 42171, Control_c, 0, 64, 102
2, 42178, Note_on_c, 0, 63, 0
2, 42186, Control_c, 0, 64, 127
2, 42269, Control_c, 0, 64, 94
2, 42284, Control_c, 0, 64, 77
2, 42299, Control_c, 0, 64, 68
2, 42312, Note_on_c, 0, 73, 71
2, 42313, Note_on_c, 0, 70, 70
2, 42315, Control_c, 0, 64, 63
2, 42330, Control_c, 0, 64, 44
2, 42345, Control_c, 0, 64, 0
2, 42450, Note_on_c, 0, 61, 69
2, 42606, Note_on_c, 0, 63, 74
2, 42614, Note_on_c, 0, 61, 0
2, 42650, Control_c, 0, 64, 33
2, 42666, Control_c, 0, 64, 58
2, 42680, Control_c, 0, 64, 63
2, 42682, Note_on_c, 0, 73, 0
2, 42695, Control_c, 0, 64, 64
2, 42711, Control_c, 0, 64, 65
2, 42726, Control_c, 0, 64, 66
2, 42756, Control_c, 0, 64, 65
2, 42759, Note_on_c, 0, 61, 75
2, 42832, Control_c, 0, 64, 65
2, 42841, Note_on_c, 0, 63, 0
2, 42847, Control_c, 0, 64, 64
2, 42878, Control_c, 0, 64, 63
2, 42892, Control_c, 0, 64, 62
2, 42908, Control_c, 0, 64, 59
2, 42923, Control_c, 0, 64, 51
2, 42933, Note_on_c, 0, 75, 91
2, 42935, Note_on_c, 0, 61, 0
2, 42938, Control_c, 0, 64, 36
2, 42938, Note_on_c, 0, 59, 57
2, 42944, Note_on_c, 0, 71, 62
2, 42954, Control_c, 0, 64, 0
2, 42977, Note_on_c, 0, 70, 0
2, 43080, Note_on_c, 0, 63, 68
2, 43121, Note_on_c, 0, 59, 0
2, 43254, Note_on_c, 0, 61, 73
2, 43311, Control_c, 0, 64, 31
2, 43326, Control_c, 0, 64, 58
2, 43341, Control_c, 0, 64, 63
2, 43357, Control_c, 0, 64, 65
2, 43369, Note_on_c, 0, 75, 0
2, 43371, Control_c, 0, 64, 67
2, 43387, Control_c, 0, 64, 71
2, 43394, Note_on_c, 0, 61, 0
2, 43399, Note_on_c, 0, 59, 65
2, 43400, Note_on_c, 0, 63, 0
2, 43403, Control_c, 0, 64, 76
2, 43418, Control_c, 0, 64, 81
2, 43431, Note_on_c, 0, 59, 0
2, 43434, Control_c, 0, 64, 83
2, 43438, Note_on_c, 0, 54, 0
2, 43464, Control_c, 0, 64, 82
2, 43479, Control_c, 0, 64, 80
2, 43494, Control_c, 0, 64, 78
2, 43510, Control_c, 0, 64, 76
2, 43524, Control_c, 0, 64, 73
2, 43539, Control_c, 0, 64, 68
2, 43555, Control_c, 0, 64, 65
2, 43569, Note_on_c, 0, 73, 85
2, 43570, Control_c, 0, 64, 63
2, 43577, Note_on_c, 0, 58, 63
2, 43586, Control_c, 0, 64, 61
2, 43600, Control_c, 0, 64, 54
2, 43615, Control_c, 0, 64, 0
2, 43720, Note_on_c, 0, 76, 80
2, 43722, Note_on_c, 0, 54, 57
2, 43861, Note_on_c, 0, 54, 0
2, 43880, Note_on_c, 0, 52, 68
2, 43883, Note_on_c, 0, 78, 86
2, 43926, Note_on_c, 0, 73, 0
2, 43929, Note_on_c, 0, 76, 0
2, 43956, Note_on_c, 0, 71, 0
2, 43995, Note_on_c, 0, 58, 0
2, 44034, Note_on_c, 0, 76, 83
2, 44035, Note_on_c, 0, 54, 65
2, 44115, Note_on_c, 0, 78, 0
2, 44154, Note_on_c, 0, 52, 0
2, 44192, Note_on_c, 0, 59, 69
2, 44192, Note_on_c, 0, 75, 89
2, 44202, Note_on_c, 0, 56, 63
2, 44203, Note_on_c, 0, 71, 70
2, 44204, Note_on_c, 0, 76, 0
2, 44216, Note_on_c, 0, 54, 0
2, 44335, Note_on_c, 0, 56, 0
2, 44346, Note_on_c, 0, 52, 65
2, 44348, Note_on_c, 0, 78, 79
2, 44373, Note_on_c, 0, 75, 0
2, 44499, Note_on_c, 0, 76, 69
2, 44514, Note_on_c, 0, 54, 53
2, 44618, Control_c, 0, 64, 33
2, 44634, Control_c, 0, 64, 59
2, 44638, Note_on_c, 0, 78, 0
2, 44647, Note_on_c, 0, 75, 83
2, 44649, Control_c, 0, 64, 64
2, 44649, Note_on_c, 0, 52, 0
2, 44653, Note_on_c, 0, 59, 0
2, 44655, Note_on_c, 0, 71, 0
2, 44657, Note_on_c, 0, 76, 0
2, 44660, Note_on_c, 0, 56, 53
2, 44664, Control_c, 0, 64, 67
2, 44679, Control_c, 0, 64, 72
2, 44684, Note_on_c, 0, 54, 0
2, 44687, Note_on_c, 0, 56, 0
2, 44688, Note_on_c, 0, 75, 0
2, 44694, Control_c, 0, 64, 83
2, 44709, Control_c, 0, 64, 97
2, 44724, Control_c, 0, 64, 108
2, 44755, Control_c, 0, 64, 100
2, 44770, Control_c, 0, 64, 88
2, 44785, Control_c, 0, 64, 77
2, 44800, Control_c, 0, 64, 68
2, 44815, Control_c, 0, 64, 64
2, 44831, Control_c, 0, 64, 60
2, 44834, Note_on_c, 0, 73, 73
2, 44838, Note_on_c, 0, 54, 43
2, 44843, Note_on_c, 0, 46, 56
2, 44846, Control_c, 0, 64, 34
2, 44861, Control_c, 0, 64, 0
2, 44987, Note_on_c, 0, 64, 56
2, 45121, Control_c, 0, 64, 38
2, 45135, Control_c, 0, 64, 54
2, 45137, Note_on_c, 0, 64, 0
2, 45151, Control_c, 0, 64, 60
2, 45161, Note_on_c, 0, 66, 66
2, 45166, Control_c, 0, 64, 63
2, 45181, Control_c, 0, 64, 65
2, 45197, Control_c, 0, 64, 66
2, 45211, Control_c, 0, 64, 68
2, 45227, Control_c, 0, 64, 70
2, 45242, Control_c, 0, 64, 72
2, 45246, Note_on_c, 0, 73, 0
2, 45283, Note_on_c, 0, 66, 0
2, 45295, Note_on_c, 0, 64, 56
2, 45316, Note_on_c, 0, 46, 0
2, 45341, Control_c, 0, 64, 71
2, 45387, Control_c, 0, 64, 71
2, 45417, Control_c, 0, 64, 70
2, 45432, Control_c, 0, 64, 67
2, 45447, Control_c, 0, 64, 65
2, 45460, Note_on_c, 0, 71, 76
2, 45463, Control_c, 0, 64, 62
2, 45469, Note_on_c, 0, 63, 58
2, 45477, Note_on_c, 0, 47, 48
2, 45478, Control_c, 0, 64, 55
2, 45493, Control_c, 0, 64, 28
2, 45508, Control_c, 0, 64, 0
2, 45513, Note_on_c, 0, 64, 0
2, 45637, Note_on_c, 0, 66, 57
2, 45686, Note_on_c, 0, 63, 0
2, 45737, Note_on_c, 0, 66, 0
2, 45792, Note_on_c, 0, 64, 52
2, 45797, Control_c, 0, 64, 32
2, 45812, Control_c, 0, 64, 54
2, 45828, Control_c, 0, 64, 61
2, 45843, Control_c, 0, 64, 63
2, 45858, Control_c, 0, 64, 64
2, 45860, Note_on_c, 0, 47, 0
2, 45874, Control_c, 0, 64, 65
2, 45889, Control_c, 0, 64, 66
2, 45905, Control_c, 0, 64, 66
2, 45920, Control_c, 0, 64, 67
2, 45922, Note_on_c, 0, 64, 0
2, 45944, Note_on_c, 0, 63, 54
2, 45950, Control_c, 0, 64, 67
2, 46039, Control_c, 0, 64, 66
2, 46061, Control_c, 0, 64, 65
2, 46077, Control_c, 0, 64, 64
2, 46091, Control_c, 0, 64, 64
2, 46098, Note_on_c, 0, 63, 0
2, 46105, Control_c, 0, 64, 61
2, 46117, Note_on_c, 0, 61, 51
2, 46121, Control_c, 0, 64, 55
2, 46129, Note_on_c, 0, 42, 40
2, 46136, Control_c, 0, 64, 44
2, 46150, Control_c, 0, 64, 26
2, 46166, Control_c, 0, 64, 0
2, 46243, Note_on_c, 0, 54, 0
2, 46291, Note_on_c, 0, 51, 43
2, 46441, Note_on_c, 0, 51, 0
2, 46467, Note_on_c, 0, 49, 47
2, 46648, Note_on_c, 0, 49, 0
2, 46660, Note_on_c, 0, 51, 46
2, 46848, Note_on_c, 0, 70, 52
2, 46869, Note_on_c, 0, 52, 36
2, 46874, Note_on_c, 0, 66, 38
2, 46886, Note_on_c, 0, 51, 0
2, 46914, Note_on_c, 0, 71, 0
2, 47073, Note_on_c, 0, 49, 39
2, 47123, Note_on_c, 0, 52, 0
2, 47345, Note_on_c, 0, 51, 38
2, 47367, Note_on_c, 0, 49, 0
2, 47623, Note_on_c, 0, 61, 0
2, 47643, Note_on_c, 0, 52, 33
2, 47681, Note_on_c, 0, 51, 0
2, 48171, Note_on_c, 0, 71, 48
2, 48202, Note_on_c, 0, 47, 35
2, 48221, Note_on_c, 0, 51, 34
2, 48347, Note_on_c, 0, 52, 0
2, 48373, Note_on_c, 0, 70, 0
2, 48464, Note_on_c, 0, 42, 0
2, 49435, Note_on_c, 0, 47, 0
2, 49458, Note_on_c, 0, 51, 0
2, 49521, Note_on_c, 0, 66, 0
2, 49521, Note_on_c, 0, 71, 0
2, 50399,End_track
0, 0, End_of_file
