0, 0, Header, 1, 2, 384
1, 0, Start_track
1, 0, Tempo, 500000
1, 0, Time_signature, 4, 2, 24, 8
1, 1, End_track
2, 0, Start_track
2, 0, Title_t, "6/29 1 ~ 3  e-Comp"
2, 0, Program_c, 0, 0
2, 0, Control_c, 0, 64, 0
2, 0, Control_c, 0, 67, 0
2, 768, Note_on_c, 0, 63, 46
2, 774, Note_on_c, 0, 59, 46
2, 950, Note_on_c, 0, 71, 46
2, 1088, Note_on_c, 0, 71, 0
2, 1120, Note_on_c, 0, 70, 45
2, 1275, Note_on_c, 0, 70, 0
2, 1279, Note_on_c, 0, 71, 52
2, 1433, Note_on_c, 0, 71, 0
2, 1437, Note_on_c, 0, 64, 53
2, 1437, Note_on_c, 0, 73, 56
2, 1472, Note_on_c, 0, 63, 0
2, 1581, Note_on_c, 0, 73, 0
2, 1588, Note_on_c, 0, 70, 59
2, 1746, Note_on_c, 0, 71, 61
2, 1772, Note_on_c, 0, 70, 0
2, 1895, Note_on_c, 0, 73, 63
2, 1964, Note_on_c, 0, 71, 0
2, 2038, Note_on_c, 0, 73, 0
2, 2063, Note_on_c, 0, 66, 62
2, 2115, Note_on_c, 0, 64, 0
2, 2202, Note_on_c, 0, 75, 68
2, 2358, Note_on_c, 0, 73, 71
2, 2358, Note_on_c, 0, 75, 0
2, 2510, Note_on_c, 0, 75, 81
2, 2551, Note_on_c, 0, 73, 0
2, 2676, Note_on_c, 0, 76, 73
2, 2679, Note_on_c, 0, 68, 68
2, 2719, Note_on_c, 0, 75, 0
2, 2781, Note_on_c, 0, 66, 0
2, 2814, Note_on_c, 0, 73, 70
2, 2817, Note_on_c, 0, 76, 0
2, 2970, Note_on_c, 0, 75, 77
2, 3007, Note_on_c, 0, 73, 0
2, 3117, Note_on_c, 0, 76, 67
2, 3161, Note_on_c, 0, 75, 0
2, 3245, Note_on_c, 0, 76, 0
2, 3317, Note_on_c, 0, 70, 66
2, 3371, Note_on_c, 0, 68, 0
2, 3499, Note_on_c, 0, 76, 48
2, 3628, Note_on_c, 0, 76, 0
2, 3663, Note_on_c, 0, 75, 53
2, 3821, Note_on_c, 0, 76, 57
2, 3853, Note_on_c, 0, 75, 0
2, 3973, Note_on_c, 0, 76, 0
2, 3978, Note_on_c, 0, 78, 64
2, 4103, Note_on_c, 0, 78, 0
2, 4115, Note_on_c, 0, 73, 64
2, 4276, Note_on_c, 0, 75, 78
2, 4304, Note_on_c, 0, 73, 0
2, 4410, Note_on_c, 0, 75, 0
2, 4411, Note_on_c, 0, 76, 65
2, 4462, Note_on_c, 0, 70, 0
2, 4572, Note_on_c, 0, 76, 0
2, 4593, Note_on_c, 0, 75, 70
2, 4780, Note_on_c, 0, 70, 43
2, 4896, Note_on_c, 0, 70, 0
2, 4923, Note_on_c, 0, 68, 45
2, 5079, Note_on_c, 0, 70, 48
2, 5154, Note_on_c, 0, 68, 0
2, 5242, Note_on_c, 0, 71, 53
2, 5344, Note_on_c, 0, 70, 0
2, 5396, Note_on_c, 0, 68, 56
2, 5410, Note_on_c, 0, 71, 0
2, 5543, Note_on_c, 0, 70, 63
2, 5564, Note_on_c, 0, 68, 0
2, 5665, Note_on_c, 0, 59, 0
2, 5689, Note_on_c, 0, 71, 67
2, 5726, Note_on_c, 0, 75, 0
2, 5844, Note_on_c, 0, 73, 69
2, 5869, Note_on_c, 0, 70, 0
2, 5875, Note_on_c, 0, 65, 39
2, 5884, Note_on_c, 0, 71, 0
2, 5986, Note_on_c, 0, 56, 49
2, 6152, Note_on_c, 0, 56, 0
2, 6168, Note_on_c, 0, 54, 50
2, 6300, Note_on_c, 0, 54, 0
2, 6309, Note_on_c, 0, 56, 47
2, 6453, Note_on_c, 0, 56, 0
2, 6455, Note_on_c, 0, 65, 0
2, 6459, Note_on_c, 0, 66, 63
2, 6471, Note_on_c, 0, 58, 41
2, 6608, Note_on_c, 0, 58, 0
2, 6611, Note_on_c, 0, 54, 48
2, 6755, Note_on_c, 0, 54, 0
2, 6766, Note_on_c, 0, 56, 47
2, 6900, Note_on_c, 0, 56, 0
2, 6933, Note_on_c, 0, 58, 39
2, 7125, Note_on_c, 0, 51, 42
2, 7149, Note_on_c, 0, 58, 0
2, 7259, Note_on_c, 0, 70, 67
2, 7386, Note_on_c, 0, 51, 0
2, 7409, Note_on_c, 0, 68, 75
2, 7413, Note_on_c, 0, 70, 0
2, 7548, Note_on_c, 0, 70, 72
2, 7552, Note_on_c, 0, 73, 0
2, 7586, Note_on_c, 0, 68, 0
2, 7729, Note_on_c, 0, 71, 67
2, 7743, Note_on_c, 0, 56, 51
2, 7813, Note_on_c, 0, 70, 0
2, 7884, Note_on_c, 0, 68, 72
2, 7891, Note_on_c, 0, 71, 0
2, 8044, Note_on_c, 0, 70, 70
2, 8076, Note_on_c, 0, 68, 0
2, 8087, Note_on_c, 0, 56, 0
2, 8168, Note_on_c, 0, 66, 0
2, 8180, Note_on_c, 0, 71, 65
2, 8206, Note_on_c, 0, 70, 0
2, 8348, Note_on_c, 0, 65, 62
2, 8350, Note_on_c, 0, 49, 54
2, 8459, Note_on_c, 0, 71, 0
2, 8498, Note_on_c, 0, 68, 64
2, 8633, Note_on_c, 0, 68, 0
2, 8651, Note_on_c, 0, 66, 62
2, 8679, Note_on_c, 0, 49, 0
2, 8750, Note_on_c, 0, 65, 0
2, 8795, Note_on_c, 0, 68, 67
2, 8886, Note_on_c, 0, 66, 0
2, 8962, Note_on_c, 0, 64, 70
2, 8966, Note_on_c, 0, 54, 49
2, 8994, Note_on_c, 0, 68, 0
2, 9105, Note_on_c, 0, 66, 63
2, 9265, Note_on_c, 0, 68, 63
2, 9283, Note_on_c, 0, 54, 0
2, 9386, Note_on_c, 0, 64, 0
2, 9409, Note_on_c, 0, 70, 67
2, 9439, Note_on_c, 0, 66, 0
2, 9446, Note_on_c, 0, 68, 0
2, 9590, Note_on_c, 0, 47, 43
2, 9594, Note_on_c, 0, 63, 61
2, 9702, Note_on_c, 0, 47, 0
2, 9733, Note_on_c, 0, 58, 48
2, 9901, Note_on_c, 0, 58, 0
2, 9904, Note_on_c, 0, 56, 46
2, 10046, Note_on_c, 0, 56, 0
2, 10049, Note_on_c, 0, 58, 49
2, 10199, Note_on_c, 0, 58, 0
2, 10225, Note_on_c, 0, 68, 59
2, 10233, Note_on_c, 0, 59, 38
2, 10303, Note_on_c, 0, 70, 0
2, 10354, Note_on_c, 0, 59, 0
2, 10377, Note_on_c, 0, 56, 39
2, 10521, Note_on_c, 0, 56, 0
2, 10527, Note_on_c, 0, 66, 69
2, 10537, Note_on_c, 0, 58, 42
2, 10562, Note_on_c, 0, 68, 0
2, 10572, Control_c, 0, 64, 46
2, 10588, Control_c, 0, 64, 64
2, 10603, Control_c, 0, 64, 68
2, 10612, Note_on_c, 0, 58, 0
2, 10618, Control_c, 0, 64, 76
2, 10635, Control_c, 0, 64, 105
2, 10650, Control_c, 0, 64, 127
2, 10659, Note_on_c, 0, 59, 47
2, 10678, Note_on_c, 0, 63, 0
2, 10682, Note_on_c, 0, 66, 0
2, 10731, Note_on_c, 0, 59, 0
2, 10824, Control_c, 0, 64, 99
2, 10840, Control_c, 0, 64, 78
2, 10855, Control_c, 0, 64, 66
2, 10865, Note_on_c, 0, 49, 41
2, 10871, Control_c, 0, 64, 55
2, 10871, Note_on_c, 0, 65, 69
2, 10885, Control_c, 0, 64, 0
2, 11021, Note_on_c, 0, 51, 42
2, 11042, Note_on_c, 0, 49, 0
2, 11143, Note_on_c, 0, 51, 0
2, 11156, Note_on_c, 0, 65, 0
2, 11162, Note_on_c, 0, 61, 59
2, 11180, Note_on_c, 0, 47, 42
2, 11314, Note_on_c, 0, 47, 0
2, 11315, Note_on_c, 0, 49, 50
2, 11479, Note_on_c, 0, 59, 54
2, 11479, Note_on_c, 0, 66, 66
2, 11484, Note_on_c, 0, 49, 0
2, 11500, Note_on_c, 0, 51, 47
2, 11500, Note_on_c, 0, 61, 0
2, 11612, Note_on_c, 0, 51, 0
2, 11629, Note_on_c, 0, 47, 49
2, 11788, Note_on_c, 0, 47, 0
2, 11794, Note_on_c, 0, 49, 47
2, 11803, Note_on_c, 0, 58, 62
2, 11835, Note_on_c, 0, 59, 0
2, 11904, Note_on_c, 0, 49, 0
2, 11951, Note_on_c, 0, 51, 48
2, 12110, Note_on_c, 0, 44, 51
2, 12121, Note_on_c, 0, 51, 0
2, 12128, Note_on_c, 0, 59, 49
2, 12182, Note_on_c, 0, 58, 0
2, 12293, Note_on_c, 0, 58, 66
2, 12391, Note_on_c, 0, 59, 0
2, 12432, Note_on_c, 0, 58, 0
2, 12452, Note_on_c, 0, 56, 68
2, 12522, Note_on_c, 0, 66, 0
2, 12601, Note_on_c, 0, 58, 56
2, 12702, Note_on_c, 0, 44, 0
2, 12742, Note_on_c, 0, 58, 0
2, 12774, Note_on_c, 0, 65, 60
2, 12782, Note_on_c, 0, 49, 40
2, 12791, Note_on_c, 0, 56, 0
2, 12925, Note_on_c, 0, 56, 38
2, 13112, Note_on_c, 0, 58, 51
2, 13130, Control_c, 0, 64, 31
2, 13144, Control_c, 0, 64, 41
2, 13160, Control_c, 0, 64, 46
2, 13175, Control_c, 0, 64, 49
2, 13184, Note_on_c, 0, 56, 0
2, 13191, Control_c, 0, 64, 50
2, 13206, Control_c, 0, 64, 50
2, 13248, Note_on_c, 0, 58, 0
2, 13254, Note_on_c, 0, 65, 0
2, 13265, Note_on_c, 0, 59, 44
2, 13312, Control_c, 0, 64, 49
2, 13327, Control_c, 0, 64, 46
2, 13341, Control_c, 0, 64, 42
2, 13357, Control_c, 0, 64, 35
2, 13372, Control_c, 0, 64, 24
2, 13388, Control_c, 0, 64, 0
2, 13474, Note_on_c, 0, 42, 32
2, 13480, Note_on_c, 0, 66, 53
2, 13488, Note_on_c, 0, 58, 16
2, 13506, Note_on_c, 0, 59, 0
2, 13511, Note_on_c, 0, 49, 0
2, 13663, Note_on_c, 0, 49, 39
2, 13784, Note_on_c, 0, 49, 0
2, 13820, Note_on_c, 0, 47, 48
2, 13967, Note_on_c, 0, 49, 52
2, 13974, Note_on_c, 0, 47, 0
2, 14121, Note_on_c, 0, 59, 63
2, 14133, Note_on_c, 0, 51, 46
2, 14142, Note_on_c, 0, 49, 0
2, 14175, Note_on_c, 0, 58, 0
2, 14286, Note_on_c, 0, 47, 49
2, 14295, Note_on_c, 0, 51, 0
2, 14414, Note_on_c, 0, 42, 0
2, 14430, Note_on_c, 0, 49, 58
2, 14480, Note_on_c, 0, 47, 0
2, 14564, Note_on_c, 0, 49, 0
2, 14579, Note_on_c, 0, 51, 56
2, 14743, Note_on_c, 0, 61, 67
2, 14751, Note_on_c, 0, 42, 52
2, 14775, Note_on_c, 0, 59, 0
2, 14787, Note_on_c, 0, 51, 0
2, 14903, Note_on_c, 0, 46, 59
2, 14931, Note_on_c, 0, 42, 0
2, 15064, Note_on_c, 0, 44, 68
2, 15064, Note_on_c, 0, 46, 0
2, 15214, Note_on_c, 0, 44, 0
2, 15214, Note_on_c, 0, 46, 58
2, 15381, Note_on_c, 0, 47, 58
2, 15382, Note_on_c, 0, 46, 0
2, 15394, Note_on_c, 0, 63, 56
2, 15417, Note_on_c, 0, 61, 0
2, 15421, Note_on_c, 0, 66, 0
2, 15544, Note_on_c, 0, 44, 57
2, 15556, Note_on_c, 0, 47, 0
2, 15683, Note_on_c, 0, 44, 0
2, 15693, Note_on_c, 0, 46, 59
2, 15815, Note_on_c, 0, 46, 0
2, 15835, Note_on_c, 0, 47, 51
2, 16015, Note_on_c, 0, 40, 40
2, 16019, Note_on_c, 0, 47, 0
2, 16184, Note_on_c, 0, 68, 51
2, 16259, Note_on_c, 0, 63, 0
2, 16322, Control_c, 0, 64, 28
2, 16337, Control_c, 0, 64, 47
2, 16346, Note_on_c, 0, 68, 0
2, 16353, Control_c, 0, 64, 57
2, 16355, Note_on_c, 0, 67, 57
2, 16368, Control_c, 0, 64, 62
2, 16383, Control_c, 0, 64, 65
2, 16399, Control_c, 0, 64, 67
2, 16414, Control_c, 0, 64, 69
2, 16430, Control_c, 0, 64, 73
2, 16444, Control_c, 0, 64, 78
2, 16459, Control_c, 0, 64, 84
2, 16475, Control_c, 0, 64, 86
2, 16490, Control_c, 0, 64, 86
2, 16492, Note_on_c, 0, 67, 0
2, 16493, Note_on_c, 0, 68, 69
2, 16593, Note_on_c, 0, 40, 0
2, 16597, Control_c, 0, 64, 86
2, 16612, Control_c, 0, 64, 83
2, 16627, Control_c, 0, 64, 78
2, 16642, Control_c, 0, 64, 72
2, 16657, Control_c, 0, 64, 66
2, 16664, Note_on_c, 0, 70, 71
2, 16672, Note_on_c, 0, 52, 54
2, 16673, Control_c, 0, 64, 63
2, 16673, Note_on_c, 0, 61, 59
2, 16688, Control_c, 0, 64, 47
2, 16702, Control_c, 0, 64, 0
2, 16710, Note_on_c, 0, 68, 0
2, 16814, Note_on_c, 0, 67, 63
2, 16816, Note_on_c, 0, 70, 0
2, 16854, Control_c, 0, 64, 32
2, 16878, Control_c, 0, 64, 41
2, 16893, Control_c, 0, 64, 44
2, 16907, Control_c, 0, 64, 46
2, 16923, Control_c, 0, 64, 47
2, 16954, Control_c, 0, 64, 43
2, 16969, Control_c, 0, 64, 37
2, 16970, Note_on_c, 0, 68, 72
2, 16983, Control_c, 0, 64, 28
2, 16999, Control_c, 0, 64, 0
2, 17025, Note_on_c, 0, 67, 0
2, 17107, Note_on_c, 0, 70, 64
2, 17162, Note_on_c, 0, 68, 0
2, 17280, Note_on_c, 0, 67, 71
2, 17280, Note_on_c, 0, 70, 0
2, 17281, Note_on_c, 0, 51, 65
2, 17300, Note_on_c, 0, 52, 0
2, 17432, Note_on_c, 0, 70, 68
2, 17435, Note_on_c, 0, 67, 0
2, 17585, Note_on_c, 0, 70, 0
2, 17597, Note_on_c, 0, 68, 74
2, 17757, Note_on_c, 0, 70, 75
2, 17808, Note_on_c, 0, 61, 0
2, 17899, Note_on_c, 0, 68, 0
2, 17907, Note_on_c, 0, 71, 68
2, 17911, Note_on_c, 0, 59, 75
2, 17977, Note_on_c, 0, 70, 0
2, 18074, Note_on_c, 0, 68, 66
2, 18097, Note_on_c, 0, 71, 0
2, 18218, Note_on_c, 0, 70, 77
2, 18234, Note_on_c, 0, 68, 0
2, 18300, Control_c, 0, 64, 36
2, 18316, Control_c, 0, 64, 50
2, 18330, Control_c, 0, 64, 56
2, 18331, Note_on_c, 0, 70, 0
2, 18345, Control_c, 0, 64, 58
2, 18352, Note_on_c, 0, 71, 76
2, 18430, Control_c, 0, 64, 56
2, 18445, Control_c, 0, 64, 53
2, 18460, Control_c, 0, 64, 46
2, 18475, Control_c, 0, 64, 35
2, 18490, Control_c, 0, 64, 0
2, 18529, Note_on_c, 0, 58, 70
2, 18530, Note_on_c, 0, 73, 77
2, 18539, Note_on_c, 0, 71, 0
2, 18609, Note_on_c, 0, 51, 0
2, 18642, Note_on_c, 0, 59, 0
2, 18676, Note_on_c, 0, 80, 72
2, 18678, Note_on_c, 0, 73, 0
2, 18818, Note_on_c, 0, 56, 75
2, 18821, Note_on_c, 0, 80, 0
2, 18825, Note_on_c, 0, 79, 74
2, 18829, Note_on_c, 0, 58, 0
2, 18984, Note_on_c, 0, 80, 72
2, 19008, Note_on_c, 0, 79, 0
2, 19141, Note_on_c, 0, 49, 62
2, 19141, Note_on_c, 0, 82, 71
2, 19191, Note_on_c, 0, 80, 0
2, 19297, Note_on_c, 0, 79, 73
2, 19312, Note_on_c, 0, 82, 0
2, 19437, Note_on_c, 0, 56, 0
2, 19460, Note_on_c, 0, 55, 61
2, 19465, Note_on_c, 0, 49, 0
2, 19466, Note_on_c, 0, 80, 68
2, 19486, Control_c, 0, 64, 49
2, 19501, Control_c, 0, 64, 60
2, 19516, Control_c, 0, 64, 63
2, 19531, Control_c, 0, 64, 66
2, 19546, Control_c, 0, 64, 72
2, 19561, Control_c, 0, 64, 87
2, 19576, Control_c, 0, 64, 127
2, 19608, Note_on_c, 0, 82, 75
2, 19620, Note_on_c, 0, 79, 0
2, 19626, Note_on_c, 0, 80, 0
2, 19652, Note_on_c, 0, 82, 0
2, 19715, Control_c, 0, 64, 93
2, 19730, Control_c, 0, 64, 78
2, 19744, Control_c, 0, 64, 68
2, 19760, Control_c, 0, 64, 63
2, 19773, Note_on_c, 0, 47, 52
2, 19775, Control_c, 0, 64, 53
2, 19777, Note_on_c, 0, 75, 69
2, 19790, Control_c, 0, 64, 46
2, 19794, Note_on_c, 0, 55, 0
2, 19805, Control_c, 0, 64, 43
2, 19820, Control_c, 0, 64, 41
2, 19836, Control_c, 0, 64, 35
2, 19851, Control_c, 0, 64, 17
2, 19865, Control_c, 0, 64, 0
2, 19922, Note_on_c, 0, 70, 51
2, 20064, Note_on_c, 0, 70, 0
2, 20079, Note_on_c, 0, 68, 55
2, 20094, Note_on_c, 0, 46, 47
2, 20098, Note_on_c, 0, 47, 0
2, 20233, Note_on_c, 0, 70, 55
2, 20365, Note_on_c, 0, 68, 0
2, 20389, Note_on_c, 0, 71, 56
2, 20401, Note_on_c, 0, 44, 42
2, 20404, Note_on_c, 0, 46, 0
2, 20502, Note_on_c, 0, 70, 0
2, 20533, Note_on_c, 0, 71, 0
2, 20536, Note_on_c, 0, 68, 59
2, 20705, Note_on_c, 0, 70, 58
2, 20719, Note_on_c, 0, 68, 0
2, 20869, Note_on_c, 0, 71, 60
2, 20875, Note_on_c, 0, 75, 0
2, 20885, Control_c, 0, 64, 33
2, 20900, Control_c, 0, 64, 61
2, 20916, Control_c, 0, 64, 64
2, 20930, Control_c, 0, 64, 66
2, 20932, Note_on_c, 0, 70, 0
2, 20945, Control_c, 0, 64, 67
2, 20954, Note_on_c, 0, 71, 0
2, 20991, Control_c, 0, 64, 66
2, 21006, Control_c, 0, 64, 65
2, 21021, Control_c, 0, 64, 64
2, 21027, Note_on_c, 0, 73, 68
2, 21051, Note_on_c, 0, 64, 42
2, 21113, Control_c, 0, 64, 64
2, 21146, Note_on_c, 0, 44, 0
2, 21159, Control_c, 0, 64, 63
2, 21173, Note_on_c, 0, 56, 38
2, 21181, Note_on_c, 0, 71, 56
2, 21203, Note_on_c, 0, 64, 0
2, 21243, Note_on_c, 0, 56, 0
2, 21250, Control_c, 0, 64, 63
2, 21265, Control_c, 0, 64, 62
2, 21281, Control_c, 0, 64, 61
2, 21296, Control_c, 0, 64, 57
2, 21312, Control_c, 0, 64, 52
2, 21324, Note_on_c, 0, 55, 57
2, 21327, Control_c, 0, 64, 47
2, 21327, Note_on_c, 0, 70, 64
2, 21342, Control_c, 0, 64, 46
2, 21358, Control_c, 0, 64, 45
2, 21372, Control_c, 0, 64, 44
2, 21387, Control_c, 0, 64, 42
2, 21400, Note_on_c, 0, 71, 0
2, 21403, Control_c, 0, 64, 37
2, 21418, Control_c, 0, 64, 34
2, 21434, Control_c, 0, 64, 31
2, 21449, Control_c, 0, 64, 13
2, 21450, Note_on_c, 0, 55, 0
2, 21464, Control_c, 0, 64, 0
2, 21474, Note_on_c, 0, 68, 64
2, 21489, Note_on_c, 0, 56, 46
2, 21501, Note_on_c, 0, 70, 0
2, 21607, Note_on_c, 0, 56, 0
2, 21647, Note_on_c, 0, 58, 42
2, 21651, Note_on_c, 0, 67, 60
2, 21652, Note_on_c, 0, 68, 0
2, 21761, Note_on_c, 0, 58, 0
2, 21785, Note_on_c, 0, 55, 52
2, 21941, Note_on_c, 0, 55, 0
2, 21944, Note_on_c, 0, 56, 47
2, 22096, Note_on_c, 0, 73, 0
2, 22100, Note_on_c, 0, 56, 0
2, 22106, Note_on_c, 0, 58, 56
2, 22242, Note_on_c, 0, 58, 0
2, 22291, Note_on_c, 0, 52, 47
2, 22433, Note_on_c, 0, 75, 61
2, 22584, Note_on_c, 0, 75, 0
2, 22586, Note_on_c, 0, 73, 67
2, 22609, Note_on_c, 0, 64, 52
2, 22627, Note_on_c, 0, 52, 0
2, 22680, Control_c, 0, 64, 22
2, 22695, Control_c, 0, 64, 37
2, 22711, Control_c, 0, 64, 42
2, 22726, Control_c, 0, 64, 45
2, 22738, Note_on_c, 0, 75, 74
2, 22740, Control_c, 0, 64, 47
2, 22756, Control_c, 0, 64, 49
2, 22771, Control_c, 0, 64, 49
2, 22791, Note_on_c, 0, 73, 0
2, 22831, Control_c, 0, 64, 46
2, 22846, Control_c, 0, 64, 38
2, 22860, Control_c, 0, 64, 0
2, 22886, Note_on_c, 0, 76, 58
2, 22900, Note_on_c, 0, 68, 74
2, 22901, Note_on_c, 0, 63, 52
2, 22926, Note_on_c, 0, 75, 0
2, 22946, Note_on_c, 0, 67, 0
2, 22962, Note_on_c, 0, 64, 0
2, 23050, Note_on_c, 0, 76, 0
2, 23051, Control_c, 0, 64, 20
2, 23063, Note_on_c, 0, 73, 66
2, 23066, Control_c, 0, 64, 41
2, 23082, Control_c, 0, 64, 47
2, 23097, Control_c, 0, 64, 50
2, 23113, Control_c, 0, 64, 51
2, 23127, Control_c, 0, 64, 49
2, 23142, Control_c, 0, 64, 41
2, 23158, Control_c, 0, 64, 0
2, 23201, Note_on_c, 0, 63, 0
2, 23204, Note_on_c, 0, 61, 56
2, 23204, Note_on_c, 0, 75, 64
2, 23295, Control_c, 0, 64, 33
2, 23310, Control_c, 0, 64, 45
2, 23325, Control_c, 0, 64, 47
2, 23337, Note_on_c, 0, 73, 0
2, 23340, Control_c, 0, 64, 46
2, 23356, Control_c, 0, 64, 41
2, 23357, Note_on_c, 0, 76, 66
2, 23371, Control_c, 0, 64, 29
2, 23384, Note_on_c, 0, 75, 0
2, 23385, Control_c, 0, 64, 0
2, 23479, Note_on_c, 0, 76, 0
2, 23519, Note_on_c, 0, 63, 53
2, 23520, Note_on_c, 0, 70, 66
2, 23522, Note_on_c, 0, 61, 0
2, 23656, Note_on_c, 0, 70, 0
2, 23663, Note_on_c, 0, 71, 62
2, 23763, Note_on_c, 0, 68, 0
2, 23763, Note_on_c, 0, 71, 0
2, 23841, Note_on_c, 0, 70, 57
2, 23843, Note_on_c, 0, 61, 53
2, 23873, Note_on_c, 0, 63, 0
2, 23977, Note_on_c, 0, 71, 56
2, 24023, Note_on_c, 0, 70, 0
2, 24127, Note_on_c, 0, 71, 0
2, 24132, Note_on_c, 0, 61, 0
2, 24152, Note_on_c, 0, 63, 45
2, 24152, Note_on_c, 0, 67, 51
2, 24152, Note_on_c, 0, 73, 56
2, 24314, Note_on_c, 0, 70, 57
2, 24374, Note_on_c, 0, 73, 0
2, 24466, Note_on_c, 0, 51, 44
2, 24470, Note_on_c, 0, 71, 51
2, 24600, Note_on_c, 0, 71, 0
2, 24609, Note_on_c, 0, 70, 0
2, 24622, Note_on_c, 0, 73, 58
2, 24689, Note_on_c, 0, 63, 0
2, 24763, Note_on_c, 0, 73, 0
2, 24779, Note_on_c, 0, 67, 0
2, 24779, Note_on_c, 0, 68, 48
2, 24784, Note_on_c, 0, 56, 43
2, 24790, Note_on_c, 0, 71, 38
2, 24838, Note_on_c, 0, 71, 0
2, 24884, Note_on_c, 0, 68, 0
2, 24912, Note_on_c, 0, 56, 0
2, 24916, Note_on_c, 0, 58, 55
2, 24918, Note_on_c, 0, 68, 49
2, 24923, Note_on_c, 0, 51, 0
2, 25077, Note_on_c, 0, 75, 75
2, 25094, Note_on_c, 0, 58, 0
2, 25095, Note_on_c, 0, 56, 55
2, 25236, Note_on_c, 0, 58, 61
2, 25248, Note_on_c, 0, 56, 0
2, 25405, Note_on_c, 0, 80, 91
2, 25413, Note_on_c, 0, 59, 54
2, 25415, Note_on_c, 0, 58, 0
2, 25455, Note_on_c, 0, 75, 0
2, 25500, Note_on_c, 0, 68, 0
2, 25547, Note_on_c, 0, 56, 58
2, 25551, Note_on_c, 0, 59, 0
2, 25713, Note_on_c, 0, 78, 88
2, 25738, Note_on_c, 0, 58, 55
2, 25761, Note_on_c, 0, 80, 0
2, 25766, Control_c, 0, 64, 51
2, 25771, Note_on_c, 0, 56, 0
2, 25781, Control_c, 0, 64, 62
2, 25797, Control_c, 0, 64, 65
2, 25809, Note_on_c, 0, 78, 0
2, 25812, Control_c, 0, 64, 69
2, 25827, Control_c, 0, 64, 75
2, 25837, Note_on_c, 0, 58, 0
2, 25842, Control_c, 0, 64, 84
2, 25857, Control_c, 0, 64, 95
2, 25867, Note_on_c, 0, 59, 62
2, 25873, Control_c, 0, 64, 97
2, 25903, Control_c, 0, 64, 95
2, 25919, Control_c, 0, 64, 93
2, 25934, Control_c, 0, 64, 91
2, 25950, Control_c, 0, 64, 87
2, 25964, Control_c, 0, 64, 83
2, 25979, Control_c, 0, 64, 78
2, 25995, Control_c, 0, 64, 72
2, 26010, Control_c, 0, 64, 68
2, 26025, Control_c, 0, 64, 65
2, 26038, Note_on_c, 0, 77, 88
2, 26040, Control_c, 0, 64, 64
2, 26047, Note_on_c, 0, 59, 0
2, 26051, Note_on_c, 0, 49, 54
2, 26055, Control_c, 0, 64, 60
2, 26071, Control_c, 0, 64, 55
2, 26093, Control_c, 0, 64, 49
2, 26109, Control_c, 0, 64, 42
2, 26124, Control_c, 0, 64, 26
2, 26139, Control_c, 0, 64, 0
2, 26203, Note_on_c, 0, 73, 58
2, 26356, Note_on_c, 0, 61, 69
2, 26368, Note_on_c, 0, 73, 0
2, 26372, Note_on_c, 0, 71, 60
2, 26498, Note_on_c, 0, 59, 69
2, 26502, Note_on_c, 0, 73, 55
2, 26516, Note_on_c, 0, 61, 0
2, 26533, Note_on_c, 0, 71, 0
2, 26640, Note_on_c, 0, 59, 0
2, 26664, Note_on_c, 0, 57, 77
2, 26681, Note_on_c, 0, 73, 0
2, 26683, Note_on_c, 0, 74, 65
2, 26701, Note_on_c, 0, 49, 0
2, 26820, Note_on_c, 0, 71, 54
2, 26822, Note_on_c, 0, 74, 0
2, 26981, Note_on_c, 0, 56, 56
2, 26989, Note_on_c, 0, 71, 0
2, 26996, Note_on_c, 0, 73, 55
2, 27022, Note_on_c, 0, 57, 0
2, 27139, Note_on_c, 0, 73, 0
2, 27140, Note_on_c, 0, 74, 60
2, 27282, Note_on_c, 0, 56, 0
2, 27297, Note_on_c, 0, 74, 0
2, 27300, Note_on_c, 0, 54, 42
2, 27310, Note_on_c, 0, 69, 52
2, 27312, Note_on_c, 0, 77, 0
2, 27441, Note_on_c, 0, 54, 0
2, 27453, Note_on_c, 0, 56, 45
2, 27604, Note_on_c, 0, 73, 67
2, 27606, Note_on_c, 0, 56, 0
2, 27631, Note_on_c, 0, 54, 40
2, 27764, Note_on_c, 0, 56, 45
2, 27768, Note_on_c, 0, 54, 0
2, 27920, Note_on_c, 0, 78, 84
2, 27931, Note_on_c, 0, 56, 0
2, 27937, Note_on_c, 0, 57, 50
2, 28065, Note_on_c, 0, 73, 0
2, 28073, Note_on_c, 0, 57, 0
2, 28078, Note_on_c, 0, 54, 52
2, 28236, Note_on_c, 0, 76, 72
2, 28237, Note_on_c, 0, 54, 0
2, 28241, Note_on_c, 0, 56, 58
2, 28285, Control_c, 0, 64, 13
2, 28285, Note_on_c, 0, 69, 0
2, 28299, Control_c, 0, 64, 43
2, 28315, Control_c, 0, 64, 51
2, 28330, Control_c, 0, 64, 56
2, 28334, Note_on_c, 0, 56, 0
2, 28344, Control_c, 0, 64, 59
2, 28360, Control_c, 0, 64, 61
2, 28374, Note_on_c, 0, 57, 57
2, 28375, Control_c, 0, 64, 61
2, 28383, Note_on_c, 0, 78, 0
2, 28413, Control_c, 0, 64, 61
2, 28429, Control_c, 0, 64, 60
2, 28444, Control_c, 0, 64, 58
2, 28459, Control_c, 0, 64, 55
2, 28475, Control_c, 0, 64, 50
2, 28490, Control_c, 0, 64, 34
2, 28504, Control_c, 0, 64, 0
2, 28517, Note_on_c, 0, 76, 0
2, 28540, Note_on_c, 0, 75, 72
2, 28549, Note_on_c, 0, 47, 63
2, 28559, Note_on_c, 0, 57, 0
2, 28692, Note_on_c, 0, 69, 48
2, 28852, Note_on_c, 0, 69, 0
2, 28855, Note_on_c, 0, 59, 71
2, 28857, Note_on_c, 0, 68, 55
2, 28858, Note_on_c, 0, 47, 0
2, 29004, Note_on_c, 0, 57, 77
2, 29013, Note_on_c, 0, 69, 38
2, 29032, Note_on_c, 0, 59, 0
2, 29065, Note_on_c, 0, 75, 0
2, 29180, Note_on_c, 0, 56, 74
2, 29183, Note_on_c, 0, 71, 53
2, 29187, Note_on_c, 0, 57, 0
2, 29222, Note_on_c, 0, 68, 0
2, 29233, Note_on_c, 0, 69, 0
2, 29331, Note_on_c, 0, 66, 57
2, 29483, Note_on_c, 0, 54, 58
2, 29489, Note_on_c, 0, 56, 0
2, 29495, Note_on_c, 0, 68, 59
2, 29591, Note_on_c, 0, 71, 0
2, 29592, Note_on_c, 0, 66, 0
2, 29622, Control_c, 0, 64, 22
2, 29632, Note_on_c, 0, 69, 55
2, 29638, Control_c, 0, 64, 28
2, 29713, Control_c, 0, 64, 20
2, 29728, Control_c, 0, 64, 0
2, 29749, Note_on_c, 0, 69, 0
2, 29774, Note_on_c, 0, 68, 0
2, 29780, Note_on_c, 0, 54, 0
2, 29796, Note_on_c, 0, 68, 30
2, 29797, Note_on_c, 0, 76, 67
2, 29799, Note_on_c, 0, 52, 52
2, 29957, Note_on_c, 0, 51, 59
2, 29961, Note_on_c, 0, 52, 0
2, 30101, Note_on_c, 0, 51, 0
2, 30117, Note_on_c, 0, 52, 54
2, 30251, Note_on_c, 0, 51, 57
2, 30271, Note_on_c, 0, 52, 0
2, 30409, Note_on_c, 0, 51, 0
2, 30424, Note_on_c, 0, 70, 64
2, 30425, Note_on_c, 0, 49, 50
2, 30514, Note_on_c, 0, 68, 0
2, 30541, Note_on_c, 0, 49, 0
2, 30555, Note_on_c, 0, 52, 52
2, 30734, Note_on_c, 0, 51, 48
2, 30736, Note_on_c, 0, 52, 0
2, 30736, Note_on_c, 0, 70, 0
2, 30738, Note_on_c, 0, 71, 59
2, 30844, Note_on_c, 0, 51, 0
2, 30876, Note_on_c, 0, 49, 52
2, 31055, Note_on_c, 0, 49, 0
2, 31060, Note_on_c, 0, 71, 0
2, 31064, Note_on_c, 0, 54, 62
2, 31071, Note_on_c, 0, 70, 59
2, 31165, Note_on_c, 0, 76, 0
2, 31223, Note_on_c, 0, 73, 64
2, 31311, Note_on_c, 0, 54, 0
2, 31334, Note_on_c, 0, 73, 0
2, 31389, Note_on_c, 0, 71, 61
2, 31532, Note_on_c, 0, 73, 71
2, 31569, Note_on_c, 0, 71, 0
2, 31589, Note_on_c, 0, 70, 0
2, 31696, Note_on_c, 0, 75, 64
2, 31710, Note_on_c, 0, 47, 54
2, 31710, Note_on_c, 0, 69, 73
2, 31737, Note_on_c, 0, 73, 0
2, 31862, Note_on_c, 0, 75, 0
2, 31863, Note_on_c, 0, 71, 56
2, 31981, Note_on_c, 0, 47, 0
2, 32031, Note_on_c, 0, 73, 64
2, 32064, Note_on_c, 0, 71, 0
2, 32168, Note_on_c, 0, 73, 0
2, 32173, Note_on_c, 0, 75, 70
2, 32350, Note_on_c, 0, 68, 70
2, 32353, Note_on_c, 0, 52, 37
2, 32384, Note_on_c, 0, 69, 0
2, 32469, Note_on_c, 0, 52, 0
2, 32507, Note_on_c, 0, 63, 62
2, 32676, Note_on_c, 0, 63, 0
2, 32684, Note_on_c, 0, 61, 54
2, 32826, Note_on_c, 0, 61, 0
2, 32827, Note_on_c, 0, 63, 58
2, 32978, Note_on_c, 0, 63, 0
2, 32984, Note_on_c, 0, 73, 73
2, 33003, Note_on_c, 0, 64, 47
2, 33031, Note_on_c, 0, 75, 0
2, 33052, Control_c, 0, 64, 36
2, 33066, Control_c, 0, 64, 55
2, 33082, Control_c, 0, 64, 62
2, 33097, Control_c, 0, 64, 64
2, 33113, Control_c, 0, 64, 66
2, 33128, Control_c, 0, 64, 68
2, 33134, Note_on_c, 0, 64, 0
2, 33140, Note_on_c, 0, 61, 53
2, 33143, Control_c, 0, 64, 71
2, 33159, Control_c, 0, 64, 75
2, 33174, Control_c, 0, 64, 81
2, 33179, Note_on_c, 0, 73, 0
2, 33190, Control_c, 0, 64, 87
2, 33205, Control_c, 0, 64, 90
2, 33235, Control_c, 0, 64, 88
2, 33250, Control_c, 0, 64, 83
2, 33264, Control_c, 0, 64, 75
2, 33280, Control_c, 0, 64, 68
2, 33282, Note_on_c, 0, 61, 0
2, 33293, Note_on_c, 0, 71, 72
2, 33295, Control_c, 0, 64, 64
2, 33302, Note_on_c, 0, 63, 50
2, 33311, Control_c, 0, 64, 56
2, 33326, Control_c, 0, 64, 31
2, 33340, Control_c, 0, 64, 0
2, 33356, Control_c, 0, 64, 33
2, 33371, Control_c, 0, 64, 52
2, 33386, Control_c, 0, 64, 60
2, 33397, Note_on_c, 0, 63, 0
2, 33402, Control_c, 0, 64, 63
2, 33416, Control_c, 0, 64, 65
2, 33425, Note_on_c, 0, 64, 67
2, 33432, Control_c, 0, 64, 66
2, 33447, Control_c, 0, 64, 68
2, 33462, Control_c, 0, 64, 69
2, 33477, Control_c, 0, 64, 71
2, 33481, Note_on_c, 0, 64, 0
2, 33492, Control_c, 0, 64, 72
2, 33507, Control_c, 0, 64, 74
2, 33523, Control_c, 0, 64, 74
2, 33537, Control_c, 0, 64, 73
2, 33553, Control_c, 0, 64, 71
2, 33568, Control_c, 0, 64, 68
2, 33583, Control_c, 0, 64, 65
2, 33594, Note_on_c, 0, 70, 81
2, 33599, Control_c, 0, 64, 63
2, 33605, Note_on_c, 0, 54, 50
2, 33614, Control_c, 0, 64, 60
2, 33622, Note_on_c, 0, 71, 0
2, 33630, Control_c, 0, 64, 51
2, 33640, Note_on_c, 0, 68, 0
2, 33645, Control_c, 0, 64, 20
2, 33660, Control_c, 0, 64, 0
2, 33744, Note_on_c, 0, 54, 0
2, 33746, Note_on_c, 0, 56, 51
2, 33899, Note_on_c, 0, 56, 0
2, 33913, Note_on_c, 0, 66, 65
2, 33917, Note_on_c, 0, 52, 47
2, 34059, Note_on_c, 0, 52, 0
2, 34074, Note_on_c, 0, 54, 42
2, 34219, Note_on_c, 0, 71, 72
2, 34229, Note_on_c, 0, 64, 56
2, 34231, Note_on_c, 0, 54, 0
2, 34240, Note_on_c, 0, 66, 0
2, 34248, Note_on_c, 0, 56, 45
2, 34261, Note_on_c, 0, 70, 0
2, 34365, Note_on_c, 0, 56, 0
2, 34378, Note_on_c, 0, 52, 47
2, 34514, Note_on_c, 0, 64, 0
2, 34518, Note_on_c, 0, 63, 60
2, 34543, Note_on_c, 0, 54, 44
2, 34551, Note_on_c, 0, 52, 0
2, 34643, Note_on_c, 0, 54, 0
2, 34684, Note_on_c, 0, 56, 48
2, 34817, Note_on_c, 0, 56, 0
2, 34837, Note_on_c, 0, 49, 58
2, 34858, Note_on_c, 0, 64, 49
2, 34883, Note_on_c, 0, 63, 0
2, 35000, Note_on_c, 0, 63, 57
2, 35008, Note_on_c, 0, 71, 0
2, 35100, Note_on_c, 0, 64, 0
2, 35127, Note_on_c, 0, 49, 0
2, 35142, Note_on_c, 0, 63, 0
2, 35152, Note_on_c, 0, 61, 61
2, 35326, Note_on_c, 0, 63, 59
2, 35472, Note_on_c, 0, 70, 66
2, 35482, Note_on_c, 0, 61, 0
2, 35489, Note_on_c, 0, 54, 57
2, 35613, Note_on_c, 0, 63, 0
2, 35621, Note_on_c, 0, 61, 59
2, 35730, Note_on_c, 0, 54, 0
2, 35791, Note_on_c, 0, 63, 60
2, 35892, Note_on_c, 0, 61, 0
2, 35926, Note_on_c, 0, 63, 0
2, 35929, Note_on_c, 0, 64, 56
2, 36085, Note_on_c, 0, 70, 0
2, 36088, Note_on_c, 0, 64, 0
2, 36097, Note_on_c, 0, 47, 64
2, 36114, Note_on_c, 0, 63, 64
2, 36244, Note_on_c, 0, 69, 65
2, 36410, Note_on_c, 0, 71, 72
2, 36432, Note_on_c, 0, 69, 0
2, 36551, Note_on_c, 0, 69, 69
2, 36590, Note_on_c, 0, 71, 0
2, 36594, Note_on_c, 0, 63, 0
2, 36718, Note_on_c, 0, 68, 76
2, 36727, Note_on_c, 0, 64, 62
2, 36766, Note_on_c, 0, 69, 0
2, 36880, Note_on_c, 0, 71, 77
2, 36904, Note_on_c, 0, 68, 0
2, 37024, Note_on_c, 0, 69, 76
2, 37060, Note_on_c, 0, 71, 0
2, 37176, Note_on_c, 0, 68, 82
2, 37201, Note_on_c, 0, 69, 0
2, 37339, Note_on_c, 0, 66, 74
2, 37344, Note_on_c, 0, 68, 0
2, 37469, Note_on_c, 0, 66, 0
2, 37483, Note_on_c, 0, 49, 61
2, 37491, Note_on_c, 0, 66, 40
2, 37525, Note_on_c, 0, 47, 0
2, 37653, Note_on_c, 0, 51, 68
2, 37674, Note_on_c, 0, 49, 0
2, 37792, Note_on_c, 0, 51, 0
2, 37799, Note_on_c, 0, 52, 63
2, 37942, Note_on_c, 0, 52, 0
2, 37945, Note_on_c, 0, 63, 75
2, 37957, Note_on_c, 0, 54, 59
2, 37977, Note_on_c, 0, 64, 0
2, 38100, Note_on_c, 0, 57, 67
2, 38142, Note_on_c, 0, 54, 0
2, 38247, Note_on_c, 0, 61, 68
2, 38254, Note_on_c, 0, 56, 65
2, 38283, Note_on_c, 0, 57, 0
2, 38292, Note_on_c, 0, 63, 0
2, 38296, Note_on_c, 0, 66, 0
2, 38404, Note_on_c, 0, 56, 0
2, 38405, Note_on_c, 0, 54, 66
2, 38578, Note_on_c, 0, 59, 61
2, 38580, Note_on_c, 0, 56, 60
2, 38596, Note_on_c, 0, 54, 0
2, 38716, Note_on_c, 0, 66, 70
2, 38720, Note_on_c, 0, 61, 0
2, 38878, Note_on_c, 0, 68, 75
2, 38896, Note_on_c, 0, 66, 0
2, 39025, Note_on_c, 0, 66, 74
2, 39132, Note_on_c, 0, 68, 0
2, 39193, Note_on_c, 0, 65, 77
2, 39229, Note_on_c, 0, 66, 0
2, 39340, Note_on_c, 0, 68, 83
2, 39377, Note_on_c, 0, 65, 0
2, 39493, Note_on_c, 0, 66, 88
2, 39576, Note_on_c, 0, 68, 0
2, 39621, Control_c, 0, 64, 33
2, 39637, Control_c, 0, 64, 45
2, 39652, Control_c, 0, 64, 49
2, 39652, Note_on_c, 0, 65, 84
2, 39666, Control_c, 0, 64, 53
2, 39667, Note_on_c, 0, 66, 0
2, 39682, Control_c, 0, 64, 55
2, 39697, Control_c, 0, 64, 57
2, 39713, Control_c, 0, 64, 58
2, 39728, Control_c, 0, 64, 59
2, 39742, Control_c, 0, 64, 60
2, 39803, Control_c, 0, 64, 60
2, 39814, Note_on_c, 0, 71, 88
2, 39818, Control_c, 0, 64, 58
2, 39834, Control_c, 0, 64, 55
2, 39849, Control_c, 0, 64, 49
2, 39863, Control_c, 0, 64, 46
2, 39879, Control_c, 0, 64, 37
2, 39894, Control_c, 0, 64, 0
2, 39974, Note_on_c, 0, 73, 89
2, 40013, Note_on_c, 0, 71, 0
2, 40116, Note_on_c, 0, 71, 85
2, 40153, Note_on_c, 0, 73, 0
2, 40162, Control_c, 0, 64, 38
2, 40176, Control_c, 0, 64, 47
2, 40192, Control_c, 0, 64, 53
2, 40207, Control_c, 0, 64, 58
2, 40222, Control_c, 0, 64, 61
2, 40237, Control_c, 0, 64, 62
2, 40252, Control_c, 0, 64, 63
2, 40264, Note_on_c, 0, 73, 82
2, 40267, Control_c, 0, 64, 64
2, 40283, Control_c, 0, 64, 64
2, 40297, Control_c, 0, 64, 65
2, 40313, Control_c, 0, 64, 66
2, 40328, Control_c, 0, 64, 67
2, 40343, Control_c, 0, 64, 68
2, 40377, Note_on_c, 0, 71, 0
2, 40405, Control_c, 0, 64, 67
2, 40419, Control_c, 0, 64, 66
2, 40430, Note_on_c, 0, 74, 87
2, 40435, Control_c, 0, 64, 65
2, 40449, Control_c, 0, 64, 64
2, 40464, Control_c, 0, 64, 62
2, 40467, Note_on_c, 0, 73, 0
2, 40480, Control_c, 0, 64, 59
2, 40495, Control_c, 0, 64, 54
2, 40510, Control_c, 0, 64, 45
2, 40525, Control_c, 0, 64, 28
2, 40540, Control_c, 0, 64, 0
2, 40575, Note_on_c, 0, 71, 90
2, 40586, Note_on_c, 0, 74, 0
2, 40750, Note_on_c, 0, 73, 87
2, 40762, Note_on_c, 0, 56, 0
2, 40775, Control_c, 0, 64, 41
2, 40791, Control_c, 0, 64, 62
2, 40806, Control_c, 0, 64, 67
2, 40821, Control_c, 0, 64, 73
2, 40827, Note_on_c, 0, 71, 0
2, 40836, Control_c, 0, 64, 91
2, 40839, Note_on_c, 0, 59, 0
2, 40851, Control_c, 0, 64, 127
2, 40893, Note_on_c, 0, 74, 84
2, 40913, Note_on_c, 0, 65, 0
2, 40917, Note_on_c, 0, 73, 0
2, 40936, Note_on_c, 0, 74, 0
2, 41050, Control_c, 0, 64, 111
2, 41064, Control_c, 0, 64, 85
2, 41075, Note_on_c, 0, 70, 81
2, 41080, Control_c, 0, 64, 74
2, 41084, Note_on_c, 0, 54, 54
2, 41090, Note_on_c, 0, 66, 58
2, 41095, Control_c, 0, 64, 66
2, 41111, Control_c, 0, 64, 53
2, 41126, Control_c, 0, 64, 0
2, 41176, Note_on_c, 0, 66, 0
2, 41226, Note_on_c, 0, 64, 70
2, 41390, Note_on_c, 0, 66, 69
2, 41395, Note_on_c, 0, 64, 0
2, 41414, Control_c, 0, 64, 42
2, 41430, Control_c, 0, 64, 59
2, 41453, Control_c, 0, 64, 63
2, 41468, Control_c, 0, 64, 64
2, 41483, Control_c, 0, 64, 65
2, 41498, Control_c, 0, 64, 67
2, 41512, Note_on_c, 0, 70, 0
2, 41514, Control_c, 0, 64, 68
2, 41520, Note_on_c, 0, 66, 0
2, 41523, Note_on_c, 0, 64, 70
2, 41529, Control_c, 0, 64, 69
2, 41544, Control_c, 0, 64, 70
2, 41650, Control_c, 0, 64, 69
2, 41665, Control_c, 0, 64, 67
2, 41680, Control_c, 0, 64, 64
2, 41691, Note_on_c, 0, 71, 85
2, 41695, Control_c, 0, 64, 58
2, 41710, Note_on_c, 0, 63, 54
2, 41710, Note_on_c, 0, 68, 64
2, 41711, Control_c, 0, 64, 32
2, 41726, Control_c, 0, 64, 0
2, 41743, Note_on_c, 0, 64, 0
2, 41779, Note_on_c, 0, 63, 0
2, 41839, Note_on_c, 0, 68, 0
2, 41854, Note_on_c, 0, 66, 72
2, 41994, Note_on_c, 0, 64, 76
2, 41999, Note_on_c, 0, 66, 0
2, 42125, Control_c, 0, 64, 53
2, 42130, Note_on_c, 0, 63, 81
2, 42140, Control_c, 0, 64, 65
2, 42145, Note_on_c, 0, 64, 0
2, 42156, Control_c, 0, 64, 73
2, 42165, Note_on_c, 0, 71, 0
2, 42171, Control_c, 0, 64, 102
2, 42178, Note_on_c, 0, 63, 0
2, 42186, Control_c, 0, 64, 127
2, 42269, Control_c, 0, 64, 94
2, 42284, Control_c, 0, 64, 77
2, 42299, Control_c, 0, 64, 68
2, 42312, Note_on_c, 0, 73, 71
2, 42313, Note_on_c, 0, 70, 70
2, 42315, Control_c, 0, 64, 63
2, 42330, Control_c, 0, 64, 44
2, 42345, Control_c, 0, 64, 0
2, 42450, Note_on_c, 0, 61, 69
2, 42606, Note_on_c, 0, 63, 74
2, 42614, Note_on_c, 0, 61, 0
2, 42650, Control_c, 0, 64, 33
2, 42666, Control_c, 0, 64, 58
2, 42680, Control_c, 0, 64, 63
2, 42682, Note_on_c, 0, 73, 0
2, 42695, Control_c, 0, 64, 64
2, 42711, Control_c, 0, 64, 65
2, 42726, Control_c, 0, 64, 66
2, 42756, Control_c, 0, 64, 65
2, 42759, Note_on_c, 0, 61, 75
2, 42832, Control_c, 0, 64, 65
2, 42841, Note_on_c, 0, 63, 0
2, 42847, Control_c, 0, 64, 64
2, 42878, Control_c, 0, 64, 63
2, 42892, Control_c, 0, 64, 62
2, 42908, Control_c, 0, 64, 59
2, 42923, Control_c, 0, 64, 51
2, 42933, Note_on_c, 0, 75, 91
2, 42935, Note_on_c, 0, 61, 0
2, 42938, Control_c, 0, 64, 36
2, 42938, Note_on_c, 0, 59, 57
2, 42944, Note_on_c, 0, 71, 62
2, 42954, Control_c, 0, 64, 0
2, 42977, Note_on_c, 0, 70, 0
2, 43080, Note_on_c, 0, 63, 68
2, 43121, Note_on_c, 0, 59, 0
2, 43254, Note_on_c, 0, 61, 73
2, 43311, Control_c, 0, 64, 31
2, 43326, Control_c, 0, 64, 58
2, 43341, Control_c, 0, 64, 63
2, 43357, Control_c, 0, 64, 65
2, 43369, Note_on_c, 0, 75, 0
2, 43371, Control_c, 0, 64, 67
2, 43387, Control_c, 0, 64, 71
2, 43394, Note_on_c, 0, 61, 0
2, 43399, Note_on_c, 0, 59, 65
2, 43400, Note_on_c, 0, 63, 0
2, 43403, Control_c, 0, 64, 76
2, 43418, Control_c, 0, 64, 81
2, 43431, Note_on_c, 0, 59, 0
2, 43434, Control_c, 0, 64, 83
2, 43438, Note_on_c, 0, 54, 0
2, 43464, Control_c, 0, 64, 82
2, 43479, Control_c, 0, 64, 80
2, 43494, Control_c, 0, 64, 78
2, 43510, Control_c, 0, 64, 76
2, 43524, Control_c, 0, 64, 73
2, 43539, Control_c, 0, 64, 68
2, 43555, Control_c, 0, 64, 65
2, 43569, Note_on_c, 0, 73, 85
2, 43570, Control_c, 0, 64, 63
2, 43577, Note_on_c, 0, 58, 63
2, 43586, Control_c, 0, 64, 61
2, 43600, Control_c, 0, 64, 54
2, 43615, Control_c, 0, 64, 0
2, 43720, Note_on_c, 0, 76, 80
2, 43722, Note_on_c, 0, 54, 57
2, 43861, Note_on_c, 0, 54, 0
2, 43880, Note_on_c, 0, 52, 68
2, 43883, Note_on_c, 0, 78, 86
2, 43926, Note_on_c, 0, 73, 0
2, 43929, Note_on_c, 0, 76, 0
2, 43956, Note_on_c, 0, 71, 0
2, 43995, Note_on_c, 0, 58, 0
2, 44034, Note_on_c, 0, 76, 83
2, 44035, Note_on_c, 0, 54, 65
2, 44115, Note_on_c, 0, 78, 0
2, 44154, Note_on_c, 0, 52, 0
2, 44192, Note_on_c, 0, 59, 69
2, 44192, Note_on_c, 0, 75, 89
2, 44202, Note_on_c, 0, 56, 63
2, 44203, Note_on_c, 0, 71, 70
2, 44204, Note_on_c, 0, 76, 0
2, 44216, Note_on_c, 0, 54, 0
2, 44335, Note_on_c, 0, 56, 0
2, 44346, Note_on_c, 0, 52, 65
2, 44348, Note_on_c, 0, 78, 79
2, 44373, Note_on_c, 0, 75, 0
2, 44499, Note_on_c, 0, 76, 69
2, 44514, Note_on_c, 0, 54, 53
2, 44618, Control_c, 0, 64, 33
2, 44634, Control_c, 0, 64, 59
2, 44638, Note_on_c, 0, 78, 0
2, 44647, Note_on_c, 0, 75, 83
2, 44649, Control_c, 0, 64, 64
2, 44649, Note_on_c, 0, 52, 0
2, 44653, Note_on_c, 0, 59, 0
2, 44655, Note_on_c, 0, 71, 0
2, 44657, Note_on_c, 0, 76, 0
2, 44660, Note_on_c, 0, 56, 53
2, 44664, Control_c, 0, 64, 67
2, 44679, Control_c, 0, 64, 72
2, 44684, Note_on_c, 0, 54, 0
2, 44687, Note_on_c, 0, 56, 0
2, 44688, Note_on_c, 0, 75, 0
2, 44694, Control_c, 0, 64, 83
2, 44709, Control_c, 0, 64, 97
2, 44724, Control_c, 0, 64, 108
2, 44755, Control_c, 0, 64, 100
2, 44770, Control_c, 0, 64, 88
2, 44785, Control_c, 0, 64, 77
2, 44800, Control_c, 0, 64, 68
2, 44815, Control_c, 0, 64, 64
2, 44831, Control_c, 0, 64, 60
2, 44834, Note_on_c, 0, 73, 73
2, 44838, Note_on_c, 0, 54, 43
2, 44843, Note_on_c, 0, 46, 56
2, 44846, Control_c, 0, 64, 34
2, 44861, Control_c, 0, 64, 0
2, 44987, Note_on_c, 0, 64, 56
2, 45121, Control_c, 0, 64, 38
2, 45135, Control_c, 0, 64, 54
2, 45137, Note_on_c, 0, 64, 0
2, 45151, Control_c, 0, 64, 60
2, 45161, Note_on_c, 0, 66, 66
2, 45166, Control_c, 0, 64, 63
2, 45181, Control_c, 0, 64, 65
2, 45197, Control_c, 0, 64, 66
2, 45211, Control_c, 0, 64, 68
2, 45227, Control_c, 0, 64, 70
2, 45242, Control_c, 0, 64, 72
2, 45246, Note_on_c, 0, 73, 0
2, 45283, Note_on_c, 0, 66, 0
2, 45295, Note_on_c, 0, 64, 56
2, 45316, Note_on_c, 0, 46, 0
2, 45341, Control_c, 0, 64, 71
2, 45387, Control_c, 0, 64, 71
2, 45417, Control_c, 0, 64, 70
2, 45432, Control_c, 0, 64, 67
2, 45447, Control_c, 0, 64, 65
2, 45460, Note_on_c, 0, 71, 76
2, 45463, Control_c, 0, 64, 62
2, 45469, Note_on_c, 0, 63, 58
2, 45477, Note_on_c, 0, 47, 48
2, 45478, Control_c, 0, 64, 55
2, 45493, Control_c, 0, 64, 28
2, 45508, Control_c, 0, 64, 0
2, 45513, Note_on_c, 0, 64, 0
2, 45637, Note_on_c, 0, 66, 57
2, 45686, Note_on_c, 0, 63, 0
2, 45737, Note_on_c, 0, 66, 0
2, 45792, Note_on_c, 0, 64, 52
2, 45797, Control_c, 0, 64, 32
2, 45812, Control_c, 0, 64, 54
2, 45828, Control_c, 0, 64, 61
2, 45843, Control_c, 0, 64, 63
2, 45858, Control_c, 0, 64, 64
2, 45860, Note_on_c, 0, 47, 0
2, 45874, Control_c, 0, 64, 65
2, 45889, Control_c, 0, 64, 66
2, 45905, Control_c, 0, 64, 66
2, 45920, Control_c, 0, 64, 67
2, 45922, Note_on_c, 0, 64, 0
2, 45944, Note_on_c, 0, 63, 54
2, 45950, Control_c, 0, 64, 67
2, 46039, Control_c, 0, 64, 66
2, 46061, Control_c, 0, 64, 65
2, 46077, Control_c, 0, 64, 64
2, 46091, Control_c, 0, 64, 64
2, 46098, Note_on_c, 0, 63, 0
2, 46105, Control_c, 0, 64, 61
2, 46117, Note_on_c, 0, 61, 51
2, 46121, Control_c, 0, 64, 55
2, 46129, Note_on_c, 0, 42, 40
2, 46136, Control_c, 0, 64, 44
2, 46150, Control_c, 0, 64, 26
2, 46166, Control_c, 0, 64, 0
2, 46243, Note_on_c, 0, 54, 0
2, 46291, Note_on_c, 0, 51, 43
2, 46441, Note_on_c, 0, 51, 0
2, 46467, Note_on_c, 0, 49, 47
2, 46648, Note_on_c, 0, 49, 0
2, 46660, Note_on_c, 0, 51, 46
2, 46848, Note_on_c, 0, 70, 52
2, 46869, Note_on_c, 0, 52, 36
2, 46874, Note_on_c, 0, 66, 38
2, 46886, Note_on_c, 0, 51, 0
2, 46914, Note_on_c, 0, 71, 0
2, 47073, Note_on_c, 0, 49, 39
2, 47123, Note_on_c, 0, 52, 0
2, 47345, Note_on_c, 0, 51, 38
2, 47367, Note_on_c, 0, 49, 0
2, 47623, Note_on_c, 0, 61, 0
2, 47643, Note_on_c, 0, 52, 33
2, 47681, Note_on_c, 0, 51, 0
2, 48171, Note_on_c, 0, 71, 48
2, 48202, Note_on_c, 0, 47, 35
2, 48221, Note_on_c, 0, 51, 34
2, 48347, Note_on_c, 0, 52, 0
2, 48373, Note_on_c, 0, 70, 0
2, 48464, Note_on_c, 0, 42, 0
2, 49435, Note_on_c, 0, 47, 0
2, 49458, Note_on_c, 0, 51, 0
2, 49521, Note_on_c, 0, 66, 0
2, 49521, Note_on_c, 0, 71, 0
2, 50399, Note_on_c, 0, 59, 49
2, 50781, Note_on_c, 0, 58, 63
2, 50805, Note_on_c, 0, 59, 0
2, 51143, Note_on_c, 0, 59, 71
2, 51145, Note_on_c, 0, 58, 0
2, 51548, Note_on_c, 0, 61, 70
2, 51561, Note_on_c, 0, 59, 0
2, 52279, Note_on_c, 0, 54, 37
2, 52386, Note_on_c, 0, 61, 0
2, 52628, Note_on_c, 0, 54, 0
2, 52633, Note_on_c, 0, 56, 55
2, 52804, Note_on_c, 0, 58, 67
2, 52816, Note_on_c, 0, 56, 0
2, 53010, Note_on_c, 0, 59, 71
2, 53028, Note_on_c, 0, 58, 0
2, 53364, Note_on_c, 0, 61, 72
2, 53376, Note_on_c, 0, 59, 0
2, 53530, Note_on_c, 0, 63, 78
2, 53546, Note_on_c, 0, 61, 0
2, 53747, Note_on_c, 0, 64, 75
2, 53771, Note_on_c, 0, 63, 0
2, 54110, Note_on_c, 0, 63, 71
2, 54147, Note_on_c, 0, 64, 0
2, 54459, Note_on_c, 0, 61, 64
2, 54463, Note_on_c, 0, 63, 0
2, 54633, Note_on_c, 0, 61, 0
2, 54644, Note_on_c, 0, 63, 62
2, 54709, Note_on_c, 0, 63, 0
2, 54731, Note_on_c, 0, 61, 66
2, 54795, Note_on_c, 0, 61, 0
2, 54809, Note_on_c, 0, 63, 58
2, 54870, Note_on_c, 0, 63, 0
2, 54886, Note_on_c, 0, 61, 60
2, 54947, Note_on_c, 0, 61, 0
2, 54972, Note_on_c, 0, 63, 61
2, 55026, Note_on_c, 0, 63, 0
2, 55048, Note_on_c, 0, 61, 61
2, 55110, Note_on_c, 0, 61, 0
2, 55131, Note_on_c, 0, 63, 59
2, 55188, Note_on_c, 0, 63, 0
2, 55213, Note_on_c, 0, 61, 57
2, 55268, Note_on_c, 0, 61, 0
2, 55301, Note_on_c, 0, 63, 58
2, 55370, Note_on_c, 0, 63, 0
2, 55377, Note_on_c, 0, 61, 63
2, 55459, Note_on_c, 0, 61, 0
2, 55476, Note_on_c, 0, 63, 59
2, 55553, Note_on_c, 0, 63, 0
2, 55570, Note_on_c, 0, 61, 58
2, 55648, Note_on_c, 0, 61, 0
2, 55665, Note_on_c, 0, 63, 55
2, 55721, Note_on_c, 0, 63, 0
2, 55746, Note_on_c, 0, 61, 54
2, 55868, Note_on_c, 0, 61, 0
2, 55892, Note_on_c, 0, 59, 49
2, 56265, Note_on_c, 0, 66, 48
2, 56616, Note_on_c, 0, 63, 69
2, 56657, Note_on_c, 0, 66, 0
2, 56986, Note_on_c, 0, 64, 80
2, 56999, Note_on_c, 0, 61, 48
2, 57002, Note_on_c, 0, 59, 0
2, 57021, Note_on_c, 0, 63, 0
2, 57141, Note_on_c, 0, 61, 0
2, 57153, Note_on_c, 0, 59, 52
2, 57345, Note_on_c, 0, 66, 82
2, 57363, Note_on_c, 0, 58, 42
2, 57366, Note_on_c, 0, 64, 0
2, 57420, Note_on_c, 0, 59, 0
2, 57515, Note_on_c, 0, 58, 0
2, 57525, Note_on_c, 0, 56, 52
2, 57705, Note_on_c, 0, 54, 50
2, 57722, Note_on_c, 0, 56, 0
2, 57832, Note_on_c, 0, 54, 0
2, 57861, Note_on_c, 0, 52, 47
2, 58038, Note_on_c, 0, 52, 0
2, 58066, Note_on_c, 0, 51, 40
2, 58072, Note_on_c, 0, 59, 44
2, 58169, Note_on_c, 0, 66, 0
2, 58221, Control_c, 0, 64, 47
2, 58237, Control_c, 0, 64, 62
2, 58252, Control_c, 0, 64, 65
2, 58268, Control_c, 0, 64, 68
2, 58283, Control_c, 0, 64, 70
2, 58298, Control_c, 0, 64, 73
2, 58314, Control_c, 0, 64, 74
2, 58344, Control_c, 0, 64, 74
2, 58366, Control_c, 0, 64, 72
2, 58376, Note_on_c, 0, 59, 0
2, 58381, Control_c, 0, 64, 69
2, 58397, Control_c, 0, 64, 66
2, 58412, Control_c, 0, 64, 63
2, 58414, Note_on_c, 0, 63, 66
2, 58428, Control_c, 0, 64, 60
2, 58436, Note_on_c, 0, 59, 41
2, 58442, Control_c, 0, 64, 57
2, 58464, Note_on_c, 0, 51, 0
2, 58473, Control_c, 0, 64, 58
2, 58488, Control_c, 0, 64, 61
2, 58503, Control_c, 0, 64, 63
2, 58518, Control_c, 0, 64, 64
2, 58533, Control_c, 0, 64, 66
2, 58549, Control_c, 0, 64, 66
2, 58564, Control_c, 0, 64, 67
2, 58583, Note_on_c, 0, 63, 0
2, 58593, Note_on_c, 0, 65, 71
2, 58609, Control_c, 0, 64, 67
2, 58625, Control_c, 0, 64, 66
2, 58640, Control_c, 0, 64, 66
2, 58685, Control_c, 0, 64, 65
2, 58716, Control_c, 0, 64, 65
2, 58731, Control_c, 0, 64, 64
2, 58747, Control_c, 0, 64, 61
2, 58761, Control_c, 0, 64, 50
2, 58776, Control_c, 0, 64, 0
2, 58781, Note_on_c, 0, 66, 82
2, 58800, Note_on_c, 0, 58, 47
2, 58810, Note_on_c, 0, 65, 0
2, 58860, Note_on_c, 0, 59, 0
2, 59106, Note_on_c, 0, 58, 0
2, 59127, Note_on_c, 0, 59, 47
2, 59127, Note_on_c, 0, 68, 85
2, 59164, Note_on_c, 0, 66, 0
2, 59289, Note_on_c, 0, 59, 0
2, 59292, Note_on_c, 0, 70, 80
2, 59295, Note_on_c, 0, 61, 61
2, 59419, Note_on_c, 0, 68, 0
2, 59460, Note_on_c, 0, 71, 82
2, 59477, Note_on_c, 0, 61, 0
2, 59480, Note_on_c, 0, 63, 59
2, 59501, Note_on_c, 0, 70, 0
2, 59604, Note_on_c, 0, 63, 0
2, 59627, Note_on_c, 0, 65, 61
2, 59805, Note_on_c, 0, 70, 77
2, 59816, Note_on_c, 0, 71, 0
2, 59819, Note_on_c, 0, 66, 50
2, 59824, Note_on_c, 0, 65, 0
2, 60147, Note_on_c, 0, 70, 0
2, 60163, Note_on_c, 0, 68, 55
2, 60304, Note_on_c, 0, 68, 0
2, 60328, Note_on_c, 0, 70, 55
2, 60379, Note_on_c, 0, 70, 0
2, 60409, Note_on_c, 0, 68, 66
2, 60445, Note_on_c, 0, 66, 0
2, 60469, Note_on_c, 0, 68, 0
2, 60473, Note_on_c, 0, 64, 47
2, 60484, Note_on_c, 0, 70, 63
2, 60524, Control_c, 0, 67, 20
2, 60539, Control_c, 0, 67, 48
2, 60553, Note_on_c, 0, 70, 0
2, 60555, Control_c, 0, 67, 89
2, 60570, Control_c, 0, 67, 124
2, 60570, Note_on_c, 0, 68, 64
2, 60585, Control_c, 0, 67, 127
2, 60610, Note_on_c, 0, 68, 0
2, 60652, Note_on_c, 0, 63, 57
2, 60654, Note_on_c, 0, 70, 56
2, 60655, Note_on_c, 0, 64, 0
2, 60696, Note_on_c, 0, 70, 0
2, 60722, Note_on_c, 0, 68, 59
2, 60771, Note_on_c, 0, 68, 0
2, 60793, Note_on_c, 0, 63, 0
2, 60802, Note_on_c, 0, 70, 59
2, 60816, Note_on_c, 0, 64, 50
2, 60853, Note_on_c, 0, 70, 0
2, 60878, Note_on_c, 0, 68, 61
2, 60948, Note_on_c, 0, 68, 0
2, 60962, Note_on_c, 0, 70, 61
2, 60976, Note_on_c, 0, 59, 61
2, 60984, Note_on_c, 0, 64, 0
2, 61031, Note_on_c, 0, 70, 0
2, 61056, Note_on_c, 0, 68, 58
2, 61095, Note_on_c, 0, 68, 0
2, 61134, Note_on_c, 0, 70, 57
2, 61135, Note_on_c, 0, 59, 0
2, 61154, Note_on_c, 0, 64, 59
2, 61179, Note_on_c, 0, 70, 0
2, 61203, Note_on_c, 0, 68, 61
2, 61277, Note_on_c, 0, 68, 0
2, 61282, Note_on_c, 0, 70, 64
2, 61368, Note_on_c, 0, 70, 0
2, 61377, Note_on_c, 0, 68, 60
2, 61435, Note_on_c, 0, 68, 0
2, 61493, Note_on_c, 0, 66, 59
2, 61854, Note_on_c, 0, 71, 64
2, 61866, Note_on_c, 0, 63, 40
2, 61930, Note_on_c, 0, 64, 0
2, 61933, Note_on_c, 0, 66, 0
2, 62218, Note_on_c, 0, 70, 79
2, 62221, Note_on_c, 0, 63, 0
2, 62235, Note_on_c, 0, 61, 45
2, 62237, Note_on_c, 0, 71, 0
2, 62251, Control_c, 0, 67, 122
2, 62267, Control_c, 0, 67, 114
2, 62282, Control_c, 0, 64, 50
2, 62282, Control_c, 0, 67, 105
2, 62296, Control_c, 0, 64, 63
2, 62296, Control_c, 0, 67, 92
2, 62312, Control_c, 0, 64, 66
2, 62312, Control_c, 0, 67, 75
2, 62327, Control_c, 0, 64, 70
2, 62327, Control_c, 0, 67, 56
2, 62341, Control_c, 0, 64, 78
2, 62341, Control_c, 0, 67, 37
2, 62357, Control_c, 0, 64, 94
2, 62357, Control_c, 0, 67, 19
2, 62372, Control_c, 0, 64, 127
2, 62372, Control_c, 0, 67, 0
2, 62554, Control_c, 0, 64, 103
2, 62563, Note_on_c, 0, 61, 0
2, 62569, Control_c, 0, 64, 79
2, 62571, Note_on_c, 0, 59, 54
2, 62572, Note_on_c, 0, 71, 77
2, 62585, Control_c, 0, 64, 66
2, 62597, Note_on_c, 0, 68, 54
2, 62600, Control_c, 0, 64, 36
2, 62615, Control_c, 0, 64, 0
2, 62707, Control_c, 0, 64, 28
2, 62722, Control_c, 0, 64, 53
2, 62737, Control_c, 0, 64, 60
2, 62744, Note_on_c, 0, 66, 63
2, 62748, Note_on_c, 0, 68, 0
2, 62753, Control_c, 0, 64, 63
2, 62768, Control_c, 0, 64, 64
2, 62784, Control_c, 0, 64, 65
2, 62814, Control_c, 0, 64, 64
2, 62829, Control_c, 0, 64, 63
2, 62844, Control_c, 0, 64, 61
2, 62859, Control_c, 0, 64, 48
2, 62874, Control_c, 0, 64, 0
2, 62894, Note_on_c, 0, 66, 0
2, 62918, Note_on_c, 0, 64, 52
2, 62921, Note_on_c, 0, 73, 84
2, 62958, Note_on_c, 0, 70, 0
2, 62965, Note_on_c, 0, 71, 0
2, 62973, Control_c, 0, 64, 53
2, 62988, Control_c, 0, 64, 63
2, 63003, Control_c, 0, 64, 67
2, 63018, Control_c, 0, 64, 73
2, 63034, Control_c, 0, 64, 86
2, 63049, Control_c, 0, 64, 116
2, 63065, Control_c, 0, 64, 127
2, 63082, Note_on_c, 0, 64, 0
2, 63083, Note_on_c, 0, 63, 63
2, 63090, Note_on_c, 0, 59, 0
2, 63114, Note_on_c, 0, 63, 0
2, 63233, Control_c, 0, 64, 100
2, 63248, Control_c, 0, 64, 85
2, 63257, Note_on_c, 0, 61, 67
2, 63264, Control_c, 0, 64, 74
2, 63278, Control_c, 0, 64, 66
2, 63280, Note_on_c, 0, 58, 49
2, 63293, Control_c, 0, 64, 58
2, 63309, Control_c, 0, 64, 0
2, 63417, Note_on_c, 0, 59, 53
2, 63440, Note_on_c, 0, 56, 53
2, 63469, Note_on_c, 0, 58, 0
2, 63488, Note_on_c, 0, 61, 0
2, 63592, Note_on_c, 0, 59, 0
2, 63625, Note_on_c, 0, 66, 72
2, 63641, Note_on_c, 0, 58, 48
2, 63667, Note_on_c, 0, 56, 0
2, 63787, Control_c, 0, 64, 56
2, 63801, Control_c, 0, 64, 63
2, 63816, Control_c, 0, 64, 66
2, 63832, Control_c, 0, 64, 70
2, 63847, Control_c, 0, 64, 77
2, 63852, Note_on_c, 0, 73, 0
2, 63863, Control_c, 0, 64, 89
2, 63879, Control_c, 0, 64, 113
2, 63883, Note_on_c, 0, 66, 0
2, 63894, Control_c, 0, 64, 127
2, 63955, Control_c, 0, 64, 105
2, 63969, Control_c, 0, 64, 85
2, 63979, Note_on_c, 0, 68, 81
2, 63985, Control_c, 0, 64, 71
2, 63988, Note_on_c, 0, 63, 47
2, 63996, Note_on_c, 0, 66, 51
2, 64000, Control_c, 0, 64, 64
2, 64012, Note_on_c, 0, 58, 0
2, 64015, Control_c, 0, 64, 44
2, 64031, Control_c, 0, 64, 0
2, 64092, Control_c, 0, 64, 39
2, 64107, Control_c, 0, 64, 58
2, 64116, Note_on_c, 0, 63, 0
2, 64122, Control_c, 0, 64, 62
2, 64137, Control_c, 0, 64, 64
2, 64146, Note_on_c, 0, 70, 85
2, 64153, Control_c, 0, 64, 64
2, 64167, Control_c, 0, 64, 66
2, 64182, Control_c, 0, 64, 67
2, 64193, Note_on_c, 0, 68, 0
2, 64198, Control_c, 0, 64, 67
2, 64213, Control_c, 0, 64, 68
2, 64229, Control_c, 0, 64, 68
2, 64289, Control_c, 0, 64, 67
2, 64305, Control_c, 0, 64, 66
2, 64319, Control_c, 0, 64, 64
2, 64334, Control_c, 0, 64, 61
2, 64337, Note_on_c, 0, 66, 0
2, 64339, Note_on_c, 0, 70, 0
2, 64344, Note_on_c, 0, 71, 84
2, 64350, Control_c, 0, 64, 50
2, 64354, Note_on_c, 0, 63, 49
2, 64357, Note_on_c, 0, 56, 53
2, 64364, Control_c, 0, 64, 22
2, 64379, Control_c, 0, 64, 0
2, 64687, Note_on_c, 0, 64, 56
2, 64688, Note_on_c, 0, 73, 83
2, 64712, Note_on_c, 0, 63, 0
2, 64741, Note_on_c, 0, 71, 0
2, 64856, Note_on_c, 0, 75, 85
2, 64866, Note_on_c, 0, 66, 55
2, 64941, Note_on_c, 0, 73, 0
2, 65039, Note_on_c, 0, 76, 82
2, 65048, Note_on_c, 0, 64, 0
2, 65051, Note_on_c, 0, 68, 67
2, 65080, Note_on_c, 0, 75, 0
2, 65119, Note_on_c, 0, 56, 0
2, 65162, Note_on_c, 0, 66, 0
2, 65193, Note_on_c, 0, 70, 71
2, 65204, Note_on_c, 0, 68, 0
2, 65358, Note_on_c, 0, 75, 83
2, 65363, Note_on_c, 0, 76, 0
2, 65367, Note_on_c, 0, 71, 61
2, 65373, Note_on_c, 0, 68, 50
2, 65373, Note_on_c, 0, 70, 0
2, 65510, Note_on_c, 0, 68, 0
2, 65532, Note_on_c, 0, 66, 56
2, 65677, Note_on_c, 0, 66, 0
2, 65726, Note_on_c, 0, 73, 78
2, 65729, Note_on_c, 0, 64, 53
2, 65822, Note_on_c, 0, 71, 0
2, 66087, Note_on_c, 0, 75, 0
2, 66091, Note_on_c, 0, 70, 49
2, 66096, Note_on_c, 0, 61, 40
2, 66131, Note_on_c, 0, 64, 0
2, 66255, Note_on_c, 0, 68, 53
2, 66256, Note_on_c, 0, 70, 0
2, 66434, Note_on_c, 0, 70, 64
2, 66468, Note_on_c, 0, 61, 0
2, 66482, Note_on_c, 0, 68, 0
2, 66580, Note_on_c, 0, 70, 0
2, 66587, Note_on_c, 0, 71, 60
2, 66779, Note_on_c, 0, 70, 57
2, 66785, Note_on_c, 0, 66, 45
2, 66786, Note_on_c, 0, 71, 0
2, 66915, Note_on_c, 0, 66, 0
2, 66920, Control_c, 0, 64, 26
2, 66935, Control_c, 0, 64, 44
2, 66945, Note_on_c, 0, 68, 56
2, 66948, Note_on_c, 0, 70, 0
2, 66951, Control_c, 0, 64, 56
2, 66951, Note_on_c, 0, 64, 40
2, 66966, Control_c, 0, 64, 61
2, 66980, Control_c, 0, 64, 63
2, 66991, Note_on_c, 0, 64, 0
2, 66996, Control_c, 0, 64, 65
2, 67011, Control_c, 0, 64, 66
2, 67027, Control_c, 0, 64, 68
2, 67041, Control_c, 0, 64, 68
2, 67072, Control_c, 0, 64, 68
2, 67087, Control_c, 0, 64, 67
2, 67102, Control_c, 0, 64, 65
2, 67117, Control_c, 0, 64, 63
2, 67125, Note_on_c, 0, 68, 0
2, 67132, Control_c, 0, 64, 58
2, 67134, Note_on_c, 0, 66, 54
2, 67141, Note_on_c, 0, 63, 47
2, 67148, Control_c, 0, 64, 44
2, 67164, Control_c, 0, 64, 0
2, 67240, Control_c, 0, 64, 26
2, 67254, Control_c, 0, 64, 53
2, 67270, Control_c, 0, 64, 61
2, 67285, Control_c, 0, 64, 64
2, 67300, Control_c, 0, 64, 66
2, 67316, Control_c, 0, 64, 70
2, 67330, Control_c, 0, 64, 77
2, 67346, Control_c, 0, 64, 90
2, 67361, Control_c, 0, 64, 111
2, 67376, Control_c, 0, 64, 127
2, 67380, Note_on_c, 0, 63, 0
2, 67437, Control_c, 0, 64, 99
2, 67452, Control_c, 0, 64, 80
2, 67468, Control_c, 0, 64, 69
2, 67480, Note_on_c, 0, 54, 54
2, 67482, Control_c, 0, 64, 61
2, 67485, Note_on_c, 0, 71, 53
2, 67497, Control_c, 0, 64, 0
2, 67596, Control_c, 0, 64, 36
2, 67611, Control_c, 0, 64, 56
2, 67627, Control_c, 0, 64, 62
2, 67642, Control_c, 0, 64, 66
2, 67657, Control_c, 0, 64, 70
2, 67672, Control_c, 0, 64, 78
2, 67679, Note_on_c, 0, 71, 0
2, 67682, Note_on_c, 0, 70, 49
2, 67687, Control_c, 0, 64, 94
2, 67702, Control_c, 0, 64, 127
2, 67734, Note_on_c, 0, 73, 0
2, 67779, Control_c, 0, 64, 97
2, 67794, Control_c, 0, 64, 77
2, 67809, Control_c, 0, 64, 66
2, 67825, Control_c, 0, 64, 55
2, 67840, Control_c, 0, 64, 0
2, 67844, Note_on_c, 0, 51, 70
2, 67862, Note_on_c, 0, 71, 51
2, 67892, Note_on_c, 0, 54, 0
2, 67909, Note_on_c, 0, 66, 0
2, 67917, Note_on_c, 0, 70, 0
2, 67933, Note_on_c, 0, 71, 0
2, 67947, Control_c, 0, 64, 55
2, 67961, Control_c, 0, 64, 64
2, 67977, Control_c, 0, 64, 68
2, 67993, Control_c, 0, 64, 78
2, 68008, Control_c, 0, 64, 122
2, 68024, Control_c, 0, 64, 127
2, 68144, Note_on_c, 0, 51, 0
2, 68175, Control_c, 0, 64, 81
2, 68181, Note_on_c, 0, 73, 62
2, 68189, Note_on_c, 0, 52, 64
2, 68190, Control_c, 0, 64, 68
2, 68196, Note_on_c, 0, 64, 47
2, 68201, Note_on_c, 0, 56, 56
2, 68205, Control_c, 0, 64, 57
2, 68220, Control_c, 0, 64, 0
2, 68334, Control_c, 0, 64, 49
2, 68350, Control_c, 0, 64, 60
2, 68365, Control_c, 0, 64, 64
2, 68366, Note_on_c, 0, 71, 51
2, 68380, Control_c, 0, 64, 66
2, 68395, Control_c, 0, 64, 69
2, 68410, Control_c, 0, 64, 69
2, 68412, Note_on_c, 0, 64, 0
2, 68440, Control_c, 0, 64, 68
2, 68455, Control_c, 0, 64, 67
2, 68471, Control_c, 0, 64, 65
2, 68486, Control_c, 0, 64, 62
2, 68501, Control_c, 0, 64, 50
2, 68516, Control_c, 0, 64, 0
2, 68545, Note_on_c, 0, 70, 60
2, 68548, Note_on_c, 0, 54, 75
2, 68553, Note_on_c, 0, 56, 0
2, 68572, Note_on_c, 0, 52, 0
2, 68592, Note_on_c, 0, 73, 0
2, 68600, Note_on_c, 0, 71, 0
2, 68669, Control_c, 0, 64, 22
2, 68684, Control_c, 0, 64, 61
2, 68699, Control_c, 0, 64, 66
2, 68705, Note_on_c, 0, 70, 0
2, 68707, Note_on_c, 0, 68, 58
2, 68715, Control_c, 0, 64, 69
2, 68729, Control_c, 0, 64, 74
2, 68742, Note_on_c, 0, 68, 0
2, 68745, Control_c, 0, 64, 82
2, 68760, Control_c, 0, 64, 86
2, 68791, Control_c, 0, 64, 81
2, 68806, Control_c, 0, 64, 73
2, 68821, Control_c, 0, 64, 67
2, 68837, Control_c, 0, 64, 64
2, 68852, Control_c, 0, 64, 63
2, 68868, Control_c, 0, 64, 62
2, 68882, Control_c, 0, 64, 61
2, 68889, Note_on_c, 0, 66, 57
2, 68897, Control_c, 0, 64, 61
2, 68908, Note_on_c, 0, 63, 48
2, 68913, Control_c, 0, 64, 63
2, 68928, Control_c, 0, 64, 64
2, 68944, Control_c, 0, 64, 64
2, 68958, Control_c, 0, 64, 65
2, 68982, Note_on_c, 0, 63, 0
2, 68989, Control_c, 0, 64, 65
2, 69049, Control_c, 0, 64, 66
2, 69052, Note_on_c, 0, 64, 49
2, 69070, Note_on_c, 0, 61, 35
2, 69094, Control_c, 0, 64, 66
2, 69149, Control_c, 0, 64, 66
2, 69163, Control_c, 0, 64, 65
2, 69178, Control_c, 0, 64, 63
2, 69194, Control_c, 0, 64, 60
2, 69209, Control_c, 0, 64, 42
2, 69225, Control_c, 0, 64, 0
2, 69227, Note_on_c, 0, 66, 0
2, 69232, Note_on_c, 0, 47, 63
2, 69241, Note_on_c, 0, 63, 57
2, 69272, Note_on_c, 0, 64, 0
2, 69280, Note_on_c, 0, 61, 0
2, 69308, Note_on_c, 0, 54, 0
2, 69345, Note_on_c, 0, 63, 0
2, 69360, Control_c, 0, 64, 24
2, 69375, Control_c, 0, 64, 44
2, 69387, Note_on_c, 0, 64, 47
2, 69391, Control_c, 0, 64, 50
2, 69405, Control_c, 0, 64, 51
2, 69420, Control_c, 0, 64, 51
2, 69436, Control_c, 0, 64, 47
2, 69451, Control_c, 0, 64, 41
2, 69467, Control_c, 0, 64, 22
2, 69482, Control_c, 0, 64, 0
2, 69561, Note_on_c, 0, 71, 57
2, 69562, Note_on_c, 0, 51, 65
2, 69576, Note_on_c, 0, 66, 48
2, 69626, Note_on_c, 0, 47, 0
2, 69631, Note_on_c, 0, 64, 0
2, 69728, Note_on_c, 0, 53, 66
2, 69734, Note_on_c, 0, 68, 62
2, 69734, Note_on_c, 0, 71, 0
2, 69744, Note_on_c, 0, 51, 0
2, 69827, Note_on_c, 0, 66, 0
2, 69901, Note_on_c, 0, 53, 0
2, 69907, Note_on_c, 0, 54, 68
2, 69929, Note_on_c, 0, 70, 69
2, 69940, Note_on_c, 0, 61, 58
2, 70036, Note_on_c, 0, 68, 0
2, 70069, Control_c, 0, 64, 47
2, 70084, Control_c, 0, 64, 52
2, 70099, Control_c, 0, 64, 54
2, 70115, Control_c, 0, 64, 56
2, 70129, Control_c, 0, 64, 58
2, 70145, Control_c, 0, 64, 59
2, 70146, Note_on_c, 0, 70, 0
2, 70175, Control_c, 0, 64, 57
2, 70191, Control_c, 0, 64, 54
2, 70205, Control_c, 0, 64, 50
2, 70220, Control_c, 0, 64, 49
2, 70236, Control_c, 0, 64, 44
2, 70250, Control_c, 0, 64, 26
2, 70257, Note_on_c, 0, 56, 69
2, 70265, Note_on_c, 0, 71, 63
2, 70266, Control_c, 0, 64, 0
2, 70284, Note_on_c, 0, 54, 0
2, 70360, Note_on_c, 0, 61, 0
2, 70415, Note_on_c, 0, 58, 78
2, 70424, Note_on_c, 0, 73, 67
2, 70433, Note_on_c, 0, 56, 0
2, 70509, Note_on_c, 0, 71, 0
2, 70598, Note_on_c, 0, 59, 80
2, 70601, Note_on_c, 0, 58, 0
2, 70608, Note_on_c, 0, 75, 74
2, 70684, Note_on_c, 0, 73, 0
2, 70771, Note_on_c, 0, 77, 66
2, 70800, Note_on_c, 0, 75, 0
2, 70939, Note_on_c, 0, 58, 72
2, 70940, Note_on_c, 0, 75, 41
2, 70940, Note_on_c, 0, 78, 70
2, 70951, Note_on_c, 0, 77, 0
2, 70981, Note_on_c, 0, 59, 0
2, 71047, Note_on_c, 0, 75, 0
2, 71119, Note_on_c, 0, 73, 58
2, 71283, Note_on_c, 0, 71, 55
2, 71286, Note_on_c, 0, 56, 60
2, 71304, Note_on_c, 0, 58, 0
2, 71353, Control_c, 0, 64, 42
2, 71368, Control_c, 0, 64, 49
2, 71384, Control_c, 0, 64, 53
2, 71384, Note_on_c, 0, 71, 0
2, 71406, Control_c, 0, 64, 54
2, 71419, Control_c, 0, 64, 54
2, 71426, Note_on_c, 0, 73, 0
2, 71442, Note_on_c, 0, 56, 0
2, 71450, Control_c, 0, 64, 54
2, 71455, Note_on_c, 0, 58, 54
2, 71465, Control_c, 0, 64, 51
2, 71480, Control_c, 0, 64, 48
2, 71495, Control_c, 0, 64, 40
2, 71511, Control_c, 0, 64, 20
2, 71526, Control_c, 0, 64, 0
2, 71531, Note_on_c, 0, 58, 0
2, 71549, Note_on_c, 0, 56, 58
2, 71571, Control_c, 0, 67, 9
2, 71586, Control_c, 0, 67, 30
2, 71599, Note_on_c, 0, 77, 63
2, 71602, Control_c, 0, 67, 60
2, 71610, Note_on_c, 0, 56, 0
2, 71614, Note_on_c, 0, 68, 48
2, 71617, Control_c, 0, 67, 96
2, 71632, Control_c, 0, 67, 127
2, 71635, Note_on_c, 0, 58, 52
2, 71666, Note_on_c, 0, 78, 0
2, 71675, Note_on_c, 0, 58, 0
2, 71699, Note_on_c, 0, 56, 57
2, 71751, Note_on_c, 0, 56, 0
2, 71773, Note_on_c, 0, 58, 55
2, 71787, Note_on_c, 0, 75, 72
2, 71835, Note_on_c, 0, 58, 0
2, 71844, Note_on_c, 0, 77, 0
2, 71850, Note_on_c, 0, 56, 57
2, 71914, Note_on_c, 0, 56, 0
2, 71935, Note_on_c, 0, 58, 60
2, 71942, Note_on_c, 0, 77, 76
2, 71973, Note_on_c, 0, 75, 0
2, 72000, Note_on_c, 0, 58, 0
2, 72019, Note_on_c, 0, 56, 60
2, 72076, Note_on_c, 0, 56, 0
2, 72106, Note_on_c, 0, 58, 57
2, 72108, Note_on_c, 0, 75, 72
2, 72153, Note_on_c, 0, 58, 0
2, 72194, Note_on_c, 0, 56, 51
2, 72238, Note_on_c, 0, 56, 0
2, 72265, Note_on_c, 0, 58, 56
2, 72305, Note_on_c, 0, 68, 0
2, 72315, Note_on_c, 0, 58, 0
2, 72319, Note_on_c, 0, 73, 60
2, 72342, Note_on_c, 0, 56, 54
2, 72366, Note_on_c, 0, 77, 0
2, 72398, Note_on_c, 0, 56, 0
2, 72420, Note_on_c, 0, 58, 58
2, 72479, Note_on_c, 0, 71, 54
2, 72484, Note_on_c, 0, 75, 0
2, 72492, Note_on_c, 0, 58, 0
2, 72502, Note_on_c, 0, 56, 54
2, 72561, Note_on_c, 0, 73, 0
2, 72645, Note_on_c, 0, 56, 0
2, 72668, Note_on_c, 0, 78, 63
2, 72674, Note_on_c, 0, 70, 45
2, 72675, Note_on_c, 0, 54, 33
2, 72705, Note_on_c, 0, 71, 0
2, 72980, Note_on_c, 0, 54, 0
2, 73026, Note_on_c, 0, 73, 57
2, 73069, Note_on_c, 0, 70, 0
2, 73176, Note_on_c, 0, 73, 0
2, 73180, Note_on_c, 0, 71, 62
2, 73381, Note_on_c, 0, 73, 67
2, 73419, Note_on_c, 0, 71, 0
2, 73534, Note_on_c, 0, 68, 56
2, 73691, Note_on_c, 0, 68, 0
2, 73723, Note_on_c, 0, 75, 75
2, 73725, Note_on_c, 0, 66, 52
2, 73751, Note_on_c, 0, 73, 0
2, 73845, Control_c, 0, 64, 41
2, 73859, Control_c, 0, 64, 52
2, 73861, Note_on_c, 0, 66, 0
2, 73875, Control_c, 0, 64, 56
2, 73889, Note_on_c, 0, 64, 53
2, 73890, Control_c, 0, 64, 58
2, 73905, Control_c, 0, 64, 58
2, 73923, Note_on_c, 0, 78, 0
2, 73935, Control_c, 0, 64, 59
2, 73951, Control_c, 0, 64, 59
2, 74011, Control_c, 0, 64, 59
2, 74026, Control_c, 0, 64, 56
2, 74042, Control_c, 0, 64, 51
2, 74057, Control_c, 0, 64, 39
2, 74071, Note_on_c, 0, 64, 0
2, 74072, Control_c, 0, 64, 0
2, 74087, Note_on_c, 0, 72, 66
2, 74112, Note_on_c, 0, 63, 48
2, 74132, Note_on_c, 0, 75, 0
2, 74429, Note_on_c, 0, 56, 58
2, 74521, Control_c, 0, 67, 122
2, 74536, Control_c, 0, 67, 115
2, 74552, Control_c, 0, 67, 108
2, 74552, Note_on_c, 0, 63, 0
2, 74567, Control_c, 0, 67, 97
2, 74582, Control_c, 0, 67, 87
2, 74592, Note_on_c, 0, 56, 0
2, 74598, Control_c, 0, 67, 72
2, 74601, Note_on_c, 0, 57, 66
2, 74613, Control_c, 0, 67, 57
2, 74628, Control_c, 0, 67, 44
2, 74643, Control_c, 0, 67, 32
2, 74658, Control_c, 0, 67, 22
2, 74674, Control_c, 0, 67, 12
2, 74689, Control_c, 0, 67, 0
2, 74781, Note_on_c, 0, 73, 76
2, 74794, Note_on_c, 0, 56, 62
2, 74794, Note_on_c, 0, 64, 45
2, 74797, Note_on_c, 0, 57, 0
2, 74808, Note_on_c, 0, 72, 0
2, 74863, Note_on_c, 0, 64, 0
2, 74901, Control_c, 0, 64, 33
2, 74916, Control_c, 0, 64, 49
2, 74931, Control_c, 0, 64, 57
2, 74942, Note_on_c, 0, 56, 0
2, 74946, Control_c, 0, 64, 61
2, 74955, Note_on_c, 0, 54, 54
2, 74962, Control_c, 0, 64, 63
2, 74977, Control_c, 0, 64, 64
2, 74992, Control_c, 0, 64, 64
2, 75053, Control_c, 0, 64, 63
2, 75068, Control_c, 0, 64, 61
2, 75084, Control_c, 0, 64, 51
2, 75090, Note_on_c, 0, 54, 0
2, 75099, Control_c, 0, 64, 0
2, 75108, Note_on_c, 0, 75, 80
2, 75117, Note_on_c, 0, 66, 63
2, 75118, Note_on_c, 0, 52, 61
2, 75217, Note_on_c, 0, 66, 0
2, 75243, Control_c, 0, 64, 55
2, 75258, Control_c, 0, 64, 63
2, 75260, Note_on_c, 0, 73, 0
2, 75272, Note_on_c, 0, 75, 0
2, 75274, Control_c, 0, 64, 65
2, 75289, Control_c, 0, 64, 67
2, 75292, Note_on_c, 0, 51, 59
2, 75304, Control_c, 0, 64, 69
2, 75304, Note_on_c, 0, 52, 0
2, 75319, Control_c, 0, 64, 72
2, 75334, Control_c, 0, 64, 74
2, 75365, Control_c, 0, 64, 73
2, 75380, Control_c, 0, 64, 72
2, 75396, Control_c, 0, 64, 71
2, 75411, Control_c, 0, 64, 70
2, 75426, Control_c, 0, 64, 67
2, 75442, Control_c, 0, 64, 64
2, 75457, Control_c, 0, 64, 62
2, 75466, Note_on_c, 0, 51, 0
2, 75472, Control_c, 0, 64, 60
2, 75487, Control_c, 0, 64, 58
2, 75493, Note_on_c, 0, 76, 59
2, 75495, Note_on_c, 0, 49, 48
2, 75502, Control_c, 0, 64, 54
2, 75504, Note_on_c, 0, 68, 42
2, 75518, Control_c, 0, 64, 47
2, 75533, Control_c, 0, 64, 0
2, 75663, Note_on_c, 0, 75, 66
2, 75669, Note_on_c, 0, 76, 0
2, 75829, Note_on_c, 0, 49, 0
2, 75838, Note_on_c, 0, 61, 66
2, 75873, Note_on_c, 0, 76, 50
2, 75946, Note_on_c, 0, 75, 0
2, 75998, Note_on_c, 0, 76, 0
2, 76022, Note_on_c, 0, 78, 74
2, 76182, Note_on_c, 0, 76, 72
2, 76183, Note_on_c, 0, 63, 66
2, 76212, Note_on_c, 0, 78, 0
2, 76229, Note_on_c, 0, 61, 0
2, 76335, Note_on_c, 0, 75, 79
2, 76379, Note_on_c, 0, 76, 0
2, 76512, Note_on_c, 0, 64, 74
2, 76521, Note_on_c, 0, 73, 75
2, 76544, Note_on_c, 0, 63, 0
2, 76545, Note_on_c, 0, 75, 0
2, 76574, Control_c, 0, 64, 52
2, 76589, Control_c, 0, 64, 62
2, 76594, Note_on_c, 0, 73, 0
2, 76604, Control_c, 0, 64, 64
2, 76619, Control_c, 0, 64, 64
2, 76621, Note_on_c, 0, 68, 0
2, 76635, Control_c, 0, 64, 65
2, 76649, Control_c, 0, 64, 65
2, 76664, Control_c, 0, 64, 64
2, 76680, Control_c, 0, 64, 63
2, 76688, Note_on_c, 0, 71, 71
2, 76695, Control_c, 0, 64, 59
2, 76711, Control_c, 0, 64, 49
2, 76726, Control_c, 0, 64, 17
2, 76741, Control_c, 0, 64, 0
2, 76860, Note_on_c, 0, 71, 0
2, 76876, Note_on_c, 0, 64, 0
2, 76876, Note_on_c, 0, 70, 67
2, 76877, Note_on_c, 0, 66, 70
2, 76931, Control_c, 0, 64, 52
2, 76945, Control_c, 0, 64, 61
2, 76961, Control_c, 0, 64, 64
2, 76976, Control_c, 0, 64, 65
2, 76980, Note_on_c, 0, 66, 0
2, 76993, Control_c, 0, 64, 66
2, 77008, Control_c, 0, 64, 66
2, 77144, Control_c, 0, 64, 66
2, 77160, Control_c, 0, 64, 65
2, 77175, Control_c, 0, 64, 64
2, 77191, Control_c, 0, 64, 59
2, 77206, Control_c, 0, 64, 42
2, 77217, Note_on_c, 0, 61, 49
2, 77218, Note_on_c, 0, 54, 54
2, 77220, Control_c, 0, 64, 0
2, 77327, Control_c, 0, 64, 42
2, 77335, Note_on_c, 0, 70, 0
2, 77342, Control_c, 0, 64, 57
2, 77358, Control_c, 0, 64, 63
2, 77371, Note_on_c, 0, 61, 0
2, 77372, Control_c, 0, 64, 65
2, 77374, Note_on_c, 0, 54, 0
2, 77387, Control_c, 0, 64, 67
2, 77394, Note_on_c, 0, 56, 55
2, 77403, Control_c, 0, 64, 71
2, 77417, Control_c, 0, 64, 77
2, 77433, Control_c, 0, 64, 84
2, 77448, Control_c, 0, 64, 88
2, 77479, Control_c, 0, 64, 85
2, 77493, Control_c, 0, 64, 79
2, 77508, Control_c, 0, 64, 71
2, 77524, Control_c, 0, 64, 64
2, 77539, Control_c, 0, 64, 55
2, 77563, Control_c, 0, 64, 0
2, 77563, Note_on_c, 0, 71, 65
2, 77575, Note_on_c, 0, 63, 47
2, 77578, Note_on_c, 0, 56, 0
2, 77585, Note_on_c, 0, 54, 53
2, 77668, Control_c, 0, 64, 26
2, 77684, Control_c, 0, 64, 49
2, 77699, Control_c, 0, 64, 58
2, 77701, Note_on_c, 0, 54, 0
2, 77714, Control_c, 0, 64, 61
2, 77728, Note_on_c, 0, 52, 53
2, 77729, Control_c, 0, 64, 63
2, 77744, Control_c, 0, 64, 64
2, 77748, Note_on_c, 0, 63, 0
2, 77760, Control_c, 0, 64, 64
2, 77806, Control_c, 0, 64, 64
2, 77821, Control_c, 0, 64, 63
2, 77837, Control_c, 0, 64, 62
2, 77851, Control_c, 0, 64, 55
2, 77866, Control_c, 0, 64, 31
2, 77882, Control_c, 0, 64, 0
2, 77902, Note_on_c, 0, 73, 73
2, 77905, Note_on_c, 0, 64, 54
2, 77907, Note_on_c, 0, 51, 58
2, 77931, Note_on_c, 0, 52, 0
2, 77974, Note_on_c, 0, 71, 0
2, 77986, Note_on_c, 0, 64, 0
2, 78019, Control_c, 0, 64, 48
2, 78034, Control_c, 0, 64, 60
2, 78041, Note_on_c, 0, 73, 0
2, 78049, Control_c, 0, 64, 64
2, 78053, Note_on_c, 0, 51, 0
2, 78060, Note_on_c, 0, 49, 60
2, 78064, Control_c, 0, 64, 66
2, 78080, Control_c, 0, 64, 68
2, 78095, Control_c, 0, 64, 70
2, 78111, Control_c, 0, 64, 74
2, 78126, Control_c, 0, 64, 76
2, 78140, Control_c, 0, 64, 77
2, 78156, Control_c, 0, 64, 76
2, 78171, Control_c, 0, 64, 75
2, 78186, Control_c, 0, 64, 72
2, 78202, Control_c, 0, 64, 67
2, 78216, Control_c, 0, 64, 63
2, 78232, Control_c, 0, 64, 51
2, 78240, Note_on_c, 0, 75, 77
2, 78242, Note_on_c, 0, 47, 58
2, 78247, Control_c, 0, 64, 0
2, 78252, Note_on_c, 0, 49, 0
2, 78260, Note_on_c, 0, 66, 59
2, 78331, Note_on_c, 0, 66, 0
2, 78376, Control_c, 0, 64, 59
2, 78392, Control_c, 0, 64, 64
2, 78396, Note_on_c, 0, 75, 0
2, 78399, Note_on_c, 0, 46, 64
2, 78399, Note_on_c, 0, 47, 0
2, 78407, Control_c, 0, 64, 68
2, 78421, Control_c, 0, 64, 73
2, 78437, Control_c, 0, 64, 84
2, 78452, Control_c, 0, 64, 99
2, 78467, Control_c, 0, 64, 116
2, 78482, Control_c, 0, 64, 119
2, 78497, Control_c, 0, 64, 112
2, 78513, Control_c, 0, 64, 96
2, 78528, Control_c, 0, 64, 81
2, 78543, Control_c, 0, 64, 69
2, 78558, Control_c, 0, 64, 61
2, 78572, Note_on_c, 0, 75, 92
2, 78573, Control_c, 0, 64, 0
2, 78581, Note_on_c, 0, 71, 67
2, 78600, Note_on_c, 0, 47, 55
2, 78738, Note_on_c, 0, 47, 0
2, 78745, Note_on_c, 0, 46, 0
2, 78753, Note_on_c, 0, 49, 67
2, 78878, Note_on_c, 0, 49, 0
2, 78899, Note_on_c, 0, 76, 79
2, 78901, Note_on_c, 0, 47, 64
2, 78902, Note_on_c, 0, 73, 78
2, 78934, Note_on_c, 0, 75, 0
2, 78942, Note_on_c, 0, 71, 0
2, 79055, Note_on_c, 0, 45, 72
2, 79075, Note_on_c, 0, 47, 0
2, 79229, Note_on_c, 0, 45, 0
2, 79232, Note_on_c, 0, 78, 80
2, 79236, Note_on_c, 0, 44, 72
2, 79249, Note_on_c, 0, 75, 57
2, 79297, Control_c, 0, 64, 56
2, 79313, Control_c, 0, 64, 63
2, 79324, Note_on_c, 0, 76, 0
2, 79327, Control_c, 0, 64, 66
2, 79327, Note_on_c, 0, 73, 0
2, 79342, Control_c, 0, 64, 68
2, 79345, Note_on_c, 0, 75, 0
2, 79358, Control_c, 0, 64, 72
2, 79373, Control_c, 0, 64, 77
2, 79388, Control_c, 0, 64, 80
2, 79397, Note_on_c, 0, 42, 70
2, 79397, Note_on_c, 0, 78, 0
2, 79401, Control_c, 0, 64, 79
2, 79411, Note_on_c, 0, 44, 0
2, 79416, Control_c, 0, 64, 77
2, 79431, Control_c, 0, 64, 74
2, 79448, Control_c, 0, 64, 72
2, 79463, Control_c, 0, 64, 69
2, 79478, Control_c, 0, 64, 67
2, 79493, Control_c, 0, 64, 64
2, 79508, Control_c, 0, 64, 61
2, 79524, Control_c, 0, 64, 49
2, 79539, Control_c, 0, 64, 0
2, 79544, Note_on_c, 0, 42, 0
2, 79573, Note_on_c, 0, 40, 57
2, 79581, Note_on_c, 0, 80, 51
2, 79588, Note_on_c, 0, 76, 43
2, 79683, Note_on_c, 0, 40, 0
2, 79731, Note_on_c, 0, 81, 66
2, 79736, Note_on_c, 0, 76, 0
2, 79740, Note_on_c, 0, 80, 0
2, 79931, Note_on_c, 0, 80, 58
2, 79936, Note_on_c, 0, 59, 61
2, 79951, Note_on_c, 0, 81, 0
2, 80090, Note_on_c, 0, 78, 57
2, 80126, Note_on_c, 0, 80, 0
2, 80251, Note_on_c, 0, 78, 0
2, 80266, Note_on_c, 0, 76, 57
2, 80271, Note_on_c, 0, 58, 77
2, 80283, Note_on_c, 0, 59, 0
2, 80408, Note_on_c, 0, 76, 0
2, 80424, Note_on_c, 0, 75, 60
2, 80602, Note_on_c, 0, 73, 64
2, 80608, Note_on_c, 0, 59, 78
2, 80621, Note_on_c, 0, 58, 0
2, 80652, Note_on_c, 0, 75, 0
2, 80772, Note_on_c, 0, 73, 0
2, 80776, Note_on_c, 0, 71, 59
2, 80980, Note_on_c, 0, 61, 73
2, 80988, Note_on_c, 0, 59, 0
2, 80996, Note_on_c, 0, 70, 61
2, 81020, Note_on_c, 0, 71, 0
2, 81301, Note_on_c, 0, 71, 41
2, 81318, Note_on_c, 0, 52, 51
2, 81325, Note_on_c, 0, 70, 0
2, 81495, Note_on_c, 0, 73, 47
2, 81504, Note_on_c, 0, 71, 0
2, 81686, Note_on_c, 0, 52, 0
2, 81687, Note_on_c, 0, 54, 66
2, 81696, Note_on_c, 0, 51, 57
2, 81698, Note_on_c, 0, 75, 63
2, 81726, Note_on_c, 0, 73, 0
2, 81761, Note_on_c, 0, 61, 0
2, 81777, Note_on_c, 0, 75, 0
2, 81811, Control_c, 0, 64, 54
2, 81826, Control_c, 0, 64, 63
2, 81842, Control_c, 0, 64, 65
2, 81857, Control_c, 0, 64, 68
2, 81872, Control_c, 0, 64, 71
2, 81887, Control_c, 0, 64, 75
2, 81903, Control_c, 0, 64, 81
2, 81919, Control_c, 0, 64, 84
2, 81939, Note_on_c, 0, 51, 0
2, 81948, Control_c, 0, 64, 84
2, 81964, Control_c, 0, 64, 80
2, 81979, Control_c, 0, 64, 75
2, 81994, Control_c, 0, 64, 68
2, 82009, Note_on_c, 0, 54, 0
2, 82010, Control_c, 0, 64, 64
2, 82014, Note_on_c, 0, 56, 64
2, 82025, Control_c, 0, 64, 49
2, 82025, Note_on_c, 0, 73, 60
2, 82033, Note_on_c, 0, 52, 53
2, 82040, Control_c, 0, 64, 0
2, 82165, Note_on_c, 0, 56, 0
2, 82166, Note_on_c, 0, 52, 0
2, 82177, Note_on_c, 0, 58, 66
2, 82178, Note_on_c, 0, 54, 46
2, 82184, Control_c, 0, 64, 53
2, 82200, Control_c, 0, 64, 63
2, 82207, Note_on_c, 0, 54, 0
2, 82213, Note_on_c, 0, 58, 0
2, 82214, Control_c, 0, 64, 65
2, 82229, Control_c, 0, 64, 67
2, 82245, Control_c, 0, 64, 69
2, 82260, Control_c, 0, 64, 70
2, 82291, Control_c, 0, 64, 69
2, 82306, Control_c, 0, 64, 68
2, 82322, Control_c, 0, 64, 66
2, 82336, Control_c, 0, 64, 62
2, 82351, Control_c, 0, 64, 46
2, 82367, Control_c, 0, 64, 0
2, 82367, Note_on_c, 0, 59, 65
2, 82368, Note_on_c, 0, 56, 67
2, 82371, Note_on_c, 0, 71, 55
2, 82381, Note_on_c, 0, 63, 46
2, 82456, Note_on_c, 0, 63, 0
2, 82519, Control_c, 0, 64, 49
2, 82534, Control_c, 0, 64, 59
2, 82548, Control_c, 0, 64, 63
2, 82564, Control_c, 0, 64, 64
2, 82579, Control_c, 0, 64, 64
2, 82655, Control_c, 0, 64, 64
2, 82670, Control_c, 0, 64, 62
2, 82686, Control_c, 0, 64, 52
2, 82694, Note_on_c, 0, 59, 0
2, 82700, Control_c, 0, 64, 0
2, 82711, Note_on_c, 0, 61, 69
2, 82728, Note_on_c, 0, 64, 52
2, 82792, Control_c, 0, 64, 52
2, 82808, Control_c, 0, 64, 59
2, 82823, Control_c, 0, 64, 62
2, 82838, Control_c, 0, 64, 63
2, 82853, Control_c, 0, 64, 64
2, 82870, Note_on_c, 0, 64, 0
2, 82871, Note_on_c, 0, 63, 70
2, 82881, Note_on_c, 0, 61, 0
2, 82884, Note_on_c, 0, 66, 56
2, 82937, Control_c, 0, 64, 63
2, 82952, Control_c, 0, 64, 63
2, 82962, Note_on_c, 0, 66, 0
2, 82968, Control_c, 0, 64, 62
2, 82982, Control_c, 0, 64, 62
2, 82998, Control_c, 0, 64, 60
2, 83012, Note_on_c, 0, 73, 0
2, 83013, Control_c, 0, 64, 58
2, 83028, Control_c, 0, 64, 53
2, 83044, Control_c, 0, 64, 41
2, 83058, Control_c, 0, 64, 0
2, 83058, Note_on_c, 0, 71, 0
2, 83066, Note_on_c, 0, 64, 82
2, 83067, Note_on_c, 0, 63, 0
2, 83076, Note_on_c, 0, 68, 63
2, 83217, Note_on_c, 0, 73, 61
2, 83232, Note_on_c, 0, 70, 43
2, 83275, Note_on_c, 0, 70, 0
2, 83404, Note_on_c, 0, 63, 81
2, 83409, Note_on_c, 0, 54, 62
2, 83422, Note_on_c, 0, 64, 0
2, 83423, Note_on_c, 0, 75, 72
2, 83450, Note_on_c, 0, 56, 0
2, 83469, Control_c, 0, 64, 28
2, 83485, Control_c, 0, 64, 63
2, 83487, Note_on_c, 0, 73, 0
2, 83500, Control_c, 0, 64, 67
2, 83511, Note_on_c, 0, 63, 0
2, 83514, Control_c, 0, 64, 74
2, 83524, Note_on_c, 0, 75, 0
2, 83526, Note_on_c, 0, 54, 0
2, 83532, Control_c, 0, 64, 93
2, 83547, Control_c, 0, 64, 127
2, 83722, Control_c, 0, 64, 104
2, 83737, Control_c, 0, 64, 84
2, 83752, Control_c, 0, 64, 74
2, 83767, Control_c, 0, 64, 68
2, 83768, Note_on_c, 0, 61, 82
2, 83781, Note_on_c, 0, 52, 68
2, 83782, Control_c, 0, 64, 62
2, 83798, Control_c, 0, 64, 17
2, 83798, Note_on_c, 0, 76, 58
2, 83813, Control_c, 0, 64, 0
2, 83874, Note_on_c, 0, 68, 0
2, 83947, Note_on_c, 0, 78, 70
2, 83973, Note_on_c, 0, 76, 0
2, 84108, Note_on_c, 0, 70, 63
2, 84119, Note_on_c, 0, 80, 73
2, 84222, Note_on_c, 0, 78, 0
2, 84279, Note_on_c, 0, 70, 0
2, 84282, Note_on_c, 0, 68, 67
2, 84483, Note_on_c, 0, 70, 65
2, 84488, Note_on_c, 0, 54, 58
2, 84495, Note_on_c, 0, 52, 0
2, 84508, Note_on_c, 0, 68, 0
2, 84810, Note_on_c, 0, 80, 0
2, 84817, Note_on_c, 0, 78, 63
2, 84916, Note_on_c, 0, 78, 0
2, 84975, Note_on_c, 0, 76, 66
2, 85129, Note_on_c, 0, 61, 0
2, 85130, Note_on_c, 0, 76, 0
2, 85136, Note_on_c, 0, 54, 0
2, 85167, Note_on_c, 0, 75, 64
2, 85180, Note_on_c, 0, 59, 47
2, 85239, Note_on_c, 0, 59, 0
2, 85247, Note_on_c, 0, 70, 0
2, 85487, Note_on_c, 0, 68, 53
2, 85488, Note_on_c, 0, 47, 49
2, 85629, Note_on_c, 0, 47, 0
2, 85632, Note_on_c, 0, 68, 0
2, 85645, Note_on_c, 0, 67, 57
2, 85656, Note_on_c, 0, 46, 59
2, 85713, Note_on_c, 0, 75, 0
2, 85828, Note_on_c, 0, 46, 0
2, 85830, Note_on_c, 0, 68, 69
2, 85834, Note_on_c, 0, 47, 55
2, 86003, Note_on_c, 0, 75, 75
2, 86011, Note_on_c, 0, 68, 0
2, 86074, Note_on_c, 0, 67, 0
2, 86182, Note_on_c, 0, 73, 61
2, 86189, Note_on_c, 0, 70, 60
2, 86201, Note_on_c, 0, 49, 48
2, 86230, Note_on_c, 0, 47, 0
2, 86327, Note_on_c, 0, 73, 0
2, 86333, Note_on_c, 0, 70, 0
2, 86343, Note_on_c, 0, 75, 0
2, 86357, Note_on_c, 0, 71, 63
2, 86517, Note_on_c, 0, 71, 0
2, 86533, Note_on_c, 0, 70, 60
2, 86556, Note_on_c, 0, 49, 0
2, 86556, Note_on_c, 0, 67, 49
2, 86568, Note_on_c, 0, 51, 42
2, 86651, Note_on_c, 0, 67, 0
2, 86904, Note_on_c, 0, 63, 60
2, 86949, Control_c, 0, 64, 42
2, 86964, Control_c, 0, 64, 57
2, 86976, Note_on_c, 0, 70, 0
2, 86979, Control_c, 0, 64, 61
2, 86995, Control_c, 0, 64, 62
2, 87009, Control_c, 0, 64, 63
2, 87012, Note_on_c, 0, 63, 0
2, 87025, Control_c, 0, 64, 62
2, 87040, Control_c, 0, 64, 62
2, 87054, Control_c, 0, 64, 61
2, 87056, Note_on_c, 0, 64, 57
2, 87130, Control_c, 0, 64, 61
2, 87161, Control_c, 0, 64, 61
2, 87176, Control_c, 0, 64, 58
2, 87192, Control_c, 0, 64, 49
2, 87206, Control_c, 0, 64, 0
2, 87248, Note_on_c, 0, 71, 73
2, 87254, Note_on_c, 0, 63, 51
2, 87255, Note_on_c, 0, 64, 0
2, 87278, Note_on_c, 0, 68, 45
2, 87313, Control_c, 0, 64, 44
2, 87327, Control_c, 0, 64, 62
2, 87330, Note_on_c, 0, 71, 0
2, 87336, Note_on_c, 0, 68, 0
2, 87342, Control_c, 0, 64, 65
2, 87344, Note_on_c, 0, 63, 0
2, 87356, Note_on_c, 0, 51, 0
2, 87358, Control_c, 0, 64, 70
2, 87373, Control_c, 0, 64, 78
2, 87389, Control_c, 0, 64, 95
2, 87404, Control_c, 0, 64, 127
2, 87412, Note_on_c, 0, 61, 69
2, 87511, Control_c, 0, 64, 109
2, 87532, Control_c, 0, 64, 83
2, 87548, Control_c, 0, 64, 70
2, 87563, Control_c, 0, 64, 61
2, 87578, Control_c, 0, 64, 0
2, 87590, Note_on_c, 0, 59, 55
2, 87592, Note_on_c, 0, 73, 74
2, 87602, Note_on_c, 0, 70, 63
2, 87604, Note_on_c, 0, 49, 50
2, 87700, Control_c, 0, 64, 41
2, 87716, Control_c, 0, 64, 61
2, 87731, Control_c, 0, 64, 65
2, 87731, Note_on_c, 0, 59, 0
2, 87733, Note_on_c, 0, 58, 62
2, 87747, Control_c, 0, 64, 72
2, 87755, Note_on_c, 0, 61, 0
2, 87762, Control_c, 0, 64, 87
2, 87762, Note_on_c, 0, 58, 0
2, 87773, Note_on_c, 0, 49, 0
2, 87777, Control_c, 0, 64, 127
2, 87793, Note_on_c, 0, 73, 0
2, 87850, Note_on_c, 0, 70, 0
2, 87869, Control_c, 0, 64, 93
2, 87884, Control_c, 0, 64, 75
2, 87898, Control_c, 0, 64, 66
2, 87914, Control_c, 0, 64, 57
2, 87928, Note_on_c, 0, 75, 69
2, 87929, Control_c, 0, 64, 0
2, 87933, Note_on_c, 0, 56, 46
2, 87936, Note_on_c, 0, 71, 46
2, 87946, Note_on_c, 0, 47, 50
2, 88073, Note_on_c, 0, 71, 0
2, 88108, Note_on_c, 0, 70, 53
2, 88270, Note_on_c, 0, 44, 63
2, 88273, Note_on_c, 0, 47, 0
2, 88284, Note_on_c, 0, 71, 45
2, 88431, Note_on_c, 0, 70, 0
2, 88444, Note_on_c, 0, 73, 65
2, 88452, Note_on_c, 0, 71, 0
2, 88623, Note_on_c, 0, 46, 74
2, 88627, Note_on_c, 0, 71, 66
2, 88658, Note_on_c, 0, 44, 0
2, 88781, Note_on_c, 0, 70, 64
2, 88798, Note_on_c, 0, 71, 0
2, 88811, Note_on_c, 0, 73, 0
2, 88945, Note_on_c, 0, 46, 0
2, 88961, Note_on_c, 0, 68, 64
2, 88962, Note_on_c, 0, 47, 70
2, 88966, Note_on_c, 0, 70, 0
2, 89133, Note_on_c, 0, 68, 0
2, 89141, Note_on_c, 0, 66, 61
2, 89260, Note_on_c, 0, 75, 0
2, 89309, Note_on_c, 0, 66, 0
2, 89326, Note_on_c, 0, 65, 62
2, 89331, Note_on_c, 0, 47, 0
2, 89340, Note_on_c, 0, 49, 52
2, 89355, Note_on_c, 0, 56, 0
2, 89658, Note_on_c, 0, 68, 57
2, 89672, Note_on_c, 0, 61, 42
2, 89684, Note_on_c, 0, 65, 0
2, 89823, Note_on_c, 0, 63, 63
2, 89848, Note_on_c, 0, 68, 0
2, 89962, Note_on_c, 0, 61, 0
2, 89998, Note_on_c, 0, 70, 74
2, 90007, Note_on_c, 0, 66, 59
2, 90027, Note_on_c, 0, 63, 0
2, 90033, Control_c, 0, 64, 53
2, 90048, Control_c, 0, 64, 63
2, 90063, Control_c, 0, 64, 68
2, 90076, Note_on_c, 0, 49, 0
2, 90078, Control_c, 0, 64, 75
2, 90094, Control_c, 0, 64, 95
2, 90109, Control_c, 0, 64, 127
2, 90126, Note_on_c, 0, 70, 0
2, 90157, Note_on_c, 0, 66, 0
2, 90163, Note_on_c, 0, 59, 67
2, 90291, Control_c, 0, 64, 86
2, 90306, Control_c, 0, 64, 71
2, 90322, Control_c, 0, 64, 63
2, 90322, Note_on_c, 0, 71, 78
2, 90332, Note_on_c, 0, 68, 70
2, 90334, Note_on_c, 0, 47, 52
2, 90335, Note_on_c, 0, 58, 57
2, 90337, Control_c, 0, 64, 0
2, 90371, Note_on_c, 0, 59, 0
2, 90459, Control_c, 0, 64, 45
2, 90468, Note_on_c, 0, 71, 0
2, 90475, Control_c, 0, 64, 62
2, 90490, Control_c, 0, 64, 66
2, 90491, Note_on_c, 0, 58, 0
2, 90499, Note_on_c, 0, 56, 55
2, 90505, Control_c, 0, 64, 70
2, 90512, Note_on_c, 0, 68, 0
2, 90515, Note_on_c, 0, 47, 0
2, 90521, Control_c, 0, 64, 77
2, 90535, Control_c, 0, 64, 89
2, 90551, Control_c, 0, 64, 112
2, 90566, Control_c, 0, 64, 127
2, 90583, Note_on_c, 0, 56, 0
2, 90649, Control_c, 0, 64, 98
2, 90664, Control_c, 0, 64, 81
2, 90680, Control_c, 0, 64, 70
2, 90681, Note_on_c, 0, 73, 78
2, 90695, Control_c, 0, 64, 63
2, 90696, Note_on_c, 0, 70, 66
2, 90703, Note_on_c, 0, 54, 58
2, 90709, Control_c, 0, 64, 36
2, 90713, Note_on_c, 0, 46, 54
2, 90725, Control_c, 0, 64, 0
2, 90834, Note_on_c, 0, 70, 0
2, 90844, Note_on_c, 0, 52, 54
2, 90847, Note_on_c, 0, 54, 0
2, 91009, Note_on_c, 0, 70, 83
2, 91025, Note_on_c, 0, 52, 0
2, 91027, Note_on_c, 0, 61, 63
2, 91036, Note_on_c, 0, 54, 62
2, 91122, Control_c, 0, 64, 17
2, 91137, Control_c, 0, 64, 26
2, 91137, Note_on_c, 0, 61, 0
2, 91152, Control_c, 0, 64, 28
2, 91163, Note_on_c, 0, 54, 0
2, 91167, Control_c, 0, 64, 31
2, 91173, Note_on_c, 0, 56, 65
2, 91182, Control_c, 0, 64, 33
2, 91197, Control_c, 0, 64, 35
2, 91212, Control_c, 0, 64, 37
2, 91227, Control_c, 0, 64, 38
2, 91288, Control_c, 0, 64, 35
2, 91303, Control_c, 0, 64, 17
2, 91307, Note_on_c, 0, 73, 0
2, 91319, Control_c, 0, 64, 0
2, 91335, Note_on_c, 0, 71, 77
2, 91345, Note_on_c, 0, 63, 68
2, 91346, Note_on_c, 0, 56, 0
2, 91348, Note_on_c, 0, 54, 65
2, 91478, Control_c, 0, 64, 26
2, 91486, Note_on_c, 0, 54, 0
2, 91493, Control_c, 0, 64, 50
2, 91508, Control_c, 0, 64, 58
2, 91518, Note_on_c, 0, 52, 67
2, 91523, Control_c, 0, 64, 61
2, 91535, Note_on_c, 0, 63, 0
2, 91538, Control_c, 0, 64, 62
2, 91554, Control_c, 0, 64, 63
2, 91600, Control_c, 0, 64, 61
2, 91615, Control_c, 0, 64, 57
2, 91630, Control_c, 0, 64, 47
2, 91645, Control_c, 0, 64, 0
2, 91677, Note_on_c, 0, 71, 0
2, 91677, Note_on_c, 0, 73, 84
2, 91680, Note_on_c, 0, 64, 73
2, 91691, Note_on_c, 0, 51, 68
2, 91740, Note_on_c, 0, 70, 0
2, 91750, Note_on_c, 0, 52, 0
2, 91799, Control_c, 0, 64, 28
2, 91813, Control_c, 0, 64, 51
2, 91823, Note_on_c, 0, 73, 0
2, 91828, Control_c, 0, 64, 58
2, 91844, Control_c, 0, 64, 60
2, 91848, Note_on_c, 0, 49, 65
2, 91848, Note_on_c, 0, 51, 0
2, 91859, Control_c, 0, 64, 60
2, 91875, Control_c, 0, 64, 60
2, 91888, Note_on_c, 0, 46, 0
2, 91890, Control_c, 0, 64, 58
2, 91905, Control_c, 0, 64, 55
2, 91919, Control_c, 0, 64, 49
2, 91934, Control_c, 0, 64, 44
2, 91949, Control_c, 0, 64, 37
2, 91964, Control_c, 0, 64, 24
2, 91979, Control_c, 0, 64, 0
2, 92030, Note_on_c, 0, 75, 90
2, 92034, Note_on_c, 0, 47, 62
2, 92038, Note_on_c, 0, 49, 0
2, 92050, Note_on_c, 0, 66, 63
2, 92146, Note_on_c, 0, 66, 0
2, 92156, Note_on_c, 0, 64, 0
2, 92193, Note_on_c, 0, 47, 0
2, 92196, Note_on_c, 0, 46, 60
2, 92369, Note_on_c, 0, 46, 0
2, 92375, Note_on_c, 0, 66, 91
2, 92392, Note_on_c, 0, 47, 46
2, 92542, Note_on_c, 0, 47, 0
2, 92556, Note_on_c, 0, 49, 56
2, 92727, Note_on_c, 0, 49, 0
2, 92730, Note_on_c, 0, 65, 84
2, 92742, Note_on_c, 0, 47, 61
2, 92762, Note_on_c, 0, 66, 0
2, 92887, Note_on_c, 0, 46, 60
2, 92918, Note_on_c, 0, 47, 0
2, 93073, Note_on_c, 0, 46, 0
2, 93081, Note_on_c, 0, 66, 86
2, 93095, Note_on_c, 0, 44, 53
2, 93135, Note_on_c, 0, 75, 0
2, 93180, Note_on_c, 0, 65, 0
2, 93241, Note_on_c, 0, 44, 0
2, 93245, Note_on_c, 0, 42, 52
2, 93404, Note_on_c, 0, 42, 0
2, 93432, Note_on_c, 0, 68, 81
2, 93445, Note_on_c, 0, 41, 43
2, 93445, Note_on_c, 0, 73, 62
2, 93461, Note_on_c, 0, 66, 0
2, 93593, Control_c, 0, 64, 55
2, 93598, Note_on_c, 0, 41, 0
2, 93607, Control_c, 0, 64, 63
2, 93622, Control_c, 0, 64, 66
2, 93638, Control_c, 0, 64, 69
2, 93652, Control_c, 0, 64, 74
2, 93667, Control_c, 0, 64, 82
2, 93691, Control_c, 0, 64, 92
2, 93706, Control_c, 0, 64, 99
2, 93722, Control_c, 0, 64, 100
2, 93736, Control_c, 0, 64, 99
2, 93752, Control_c, 0, 64, 92
2, 93767, Control_c, 0, 64, 81
2, 93781, Control_c, 0, 64, 72
2, 93785, Note_on_c, 0, 53, 54
2, 93793, Note_on_c, 0, 59, 50
2, 93797, Control_c, 0, 64, 66
2, 93812, Control_c, 0, 64, 62
2, 93827, Control_c, 0, 64, 46
2, 93843, Control_c, 0, 64, 0
2, 93873, Control_c, 0, 64, 42
2, 93888, Control_c, 0, 64, 59
2, 93903, Control_c, 0, 64, 64
2, 93919, Control_c, 0, 64, 66
2, 93933, Control_c, 0, 64, 70
2, 93942, Note_on_c, 0, 59, 0
2, 93948, Control_c, 0, 64, 78
2, 93950, Note_on_c, 0, 53, 0
2, 93964, Control_c, 0, 64, 92
2, 93979, Control_c, 0, 64, 127
2, 94085, Control_c, 0, 64, 103
2, 94100, Control_c, 0, 64, 79
2, 94116, Control_c, 0, 64, 67
2, 94118, Note_on_c, 0, 61, 74
2, 94129, Note_on_c, 0, 58, 59
2, 94131, Control_c, 0, 64, 49
2, 94134, Note_on_c, 0, 68, 0
2, 94146, Control_c, 0, 64, 0
2, 94157, Note_on_c, 0, 54, 35
2, 94239, Control_c, 0, 64, 39
2, 94254, Control_c, 0, 64, 59
2, 94269, Control_c, 0, 64, 64
2, 94284, Control_c, 0, 64, 67
2, 94299, Control_c, 0, 64, 71
2, 94315, Control_c, 0, 64, 78
2, 94330, Control_c, 0, 64, 87
2, 94345, Control_c, 0, 64, 94
2, 94361, Control_c, 0, 64, 95
2, 94390, Control_c, 0, 64, 92
2, 94406, Control_c, 0, 64, 85
2, 94412, Note_on_c, 0, 61, 0
2, 94421, Control_c, 0, 64, 74
2, 94444, Control_c, 0, 64, 66
2, 94459, Control_c, 0, 64, 55
2, 94464, Note_on_c, 0, 63, 72
2, 94465, Note_on_c, 0, 56, 52
2, 94475, Control_c, 0, 64, 0
2, 94479, Note_on_c, 0, 54, 0
2, 94480, Note_on_c, 0, 53, 42
2, 94593, Note_on_c, 0, 58, 0
2, 94604, Note_on_c, 0, 63, 0
2, 94616, Note_on_c, 0, 65, 76
2, 94807, Note_on_c, 0, 56, 0
2, 94810, Note_on_c, 0, 66, 86
2, 94813, Note_on_c, 0, 53, 0
2, 94813, Note_on_c, 0, 54, 64
2, 94821, Note_on_c, 0, 51, 53
2, 94848, Note_on_c, 0, 65, 0
2, 94915, Control_c, 0, 64, 26
2, 94926, Note_on_c, 0, 66, 0
2, 94930, Control_c, 0, 64, 57
2, 94945, Control_c, 0, 64, 63
2, 94961, Control_c, 0, 64, 65
2, 94976, Control_c, 0, 64, 68
2, 94990, Control_c, 0, 64, 73
2, 95007, Control_c, 0, 64, 80
2, 95022, Control_c, 0, 64, 88
2, 95032, Note_on_c, 0, 73, 0
2, 95038, Control_c, 0, 64, 94
2, 95052, Control_c, 0, 64, 95
2, 95067, Control_c, 0, 64, 94
2, 95083, Control_c, 0, 64, 91
2, 95098, Control_c, 0, 64, 85
2, 95114, Control_c, 0, 64, 77
2, 95128, Control_c, 0, 64, 69
2, 95143, Control_c, 0, 64, 64
2, 95152, Note_on_c, 0, 68, 80
2, 95155, Note_on_c, 0, 71, 69
2, 95159, Control_c, 0, 64, 48
2, 95174, Control_c, 0, 64, 0
2, 95288, Control_c, 0, 64, 54
2, 95303, Control_c, 0, 64, 63
2, 95316, Note_on_c, 0, 70, 61
2, 95319, Control_c, 0, 64, 65
2, 95321, Note_on_c, 0, 73, 69
2, 95334, Control_c, 0, 64, 67
2, 95335, Note_on_c, 0, 71, 0
2, 95337, Note_on_c, 0, 68, 0
2, 95348, Control_c, 0, 64, 68
2, 95364, Control_c, 0, 64, 69
2, 95364, Note_on_c, 0, 70, 0
2, 95375, Note_on_c, 0, 73, 0
2, 95379, Control_c, 0, 64, 67
2, 95395, Control_c, 0, 64, 66
2, 95410, Control_c, 0, 64, 64
2, 95424, Control_c, 0, 64, 62
2, 95440, Control_c, 0, 64, 57
2, 95455, Control_c, 0, 64, 47
2, 95470, Control_c, 0, 64, 24
2, 95485, Control_c, 0, 64, 0
2, 95494, Note_on_c, 0, 75, 83
2, 95502, Note_on_c, 0, 71, 66
2, 95620, Note_on_c, 0, 51, 0
2, 95647, Note_on_c, 0, 54, 0
2, 95651, Note_on_c, 0, 77, 75
2, 95656, Note_on_c, 0, 56, 58
2, 95724, Note_on_c, 0, 75, 0
2, 95819, Note_on_c, 0, 49, 58
2, 95821, Note_on_c, 0, 78, 80
2, 95825, Note_on_c, 0, 77, 0
2, 95827, Note_on_c, 0, 54, 57
2, 95830, Note_on_c, 0, 70, 71
2, 95834, Note_on_c, 0, 71, 0
2, 95836, Note_on_c, 0, 56, 0
2, 95963, Note_on_c, 0, 54, 0
2, 95984, Note_on_c, 0, 49, 0
2, 95996, Note_on_c, 0, 53, 68
2, 96174, Note_on_c, 0, 70, 0
2, 96176, Note_on_c, 0, 68, 79
2, 96181, Note_on_c, 0, 47, 48
2, 96192, Note_on_c, 0, 51, 46
2, 96220, Note_on_c, 0, 53, 0
2, 96223, Note_on_c, 0, 78, 0
2, 96304, Note_on_c, 0, 51, 0
2, 96340, Note_on_c, 0, 77, 80
2, 96342, Note_on_c, 0, 47, 0
2, 96342, Note_on_c, 0, 49, 59
2, 96490, Note_on_c, 0, 49, 0
2, 96496, Note_on_c, 0, 78, 68
2, 96512, Note_on_c, 0, 51, 61
2, 96524, Note_on_c, 0, 44, 59
2, 96597, Note_on_c, 0, 77, 0
2, 96650, Note_on_c, 0, 51, 0
2, 96654, Note_on_c, 0, 78, 0
2, 96656, Note_on_c, 0, 80, 73
2, 96689, Note_on_c, 0, 47, 55
2, 96723, Note_on_c, 0, 44, 0
2, 96852, Note_on_c, 0, 47, 0
2, 96856, Note_on_c, 0, 77, 67
2, 96870, Note_on_c, 0, 80, 0
2, 96877, Note_on_c, 0, 49, 47
2, 97019, Note_on_c, 0, 68, 0
2, 97023, Note_on_c, 0, 70, 67
2, 97164, Note_on_c, 0, 77, 0
2, 97232, Note_on_c, 0, 71, 58
2, 97246, Note_on_c, 0, 37, 37
2, 97264, Note_on_c, 0, 70, 0
2, 97294, Control_c, 0, 67, 26
2, 97309, Control_c, 0, 67, 54
2, 97325, Control_c, 0, 67, 90
2, 97340, Control_c, 0, 67, 120
2, 97352, Note_on_c, 0, 49, 0
2, 97356, Control_c, 0, 67, 127
2, 97426, Note_on_c, 0, 78, 50
2, 97437, Note_on_c, 0, 71, 0
2, 97478, Control_c, 0, 64, 28
2, 97493, Control_c, 0, 64, 54
2, 97508, Control_c, 0, 64, 62
2, 97531, Control_c, 0, 64, 65
2, 97546, Control_c, 0, 64, 67
2, 97562, Control_c, 0, 64, 69
2, 97563, Note_on_c, 0, 78, 0
2, 97576, Control_c, 0, 64, 73
2, 97592, Control_c, 0, 64, 78
2, 97607, Control_c, 0, 64, 83
2, 97622, Control_c, 0, 64, 83
2, 97650, Note_on_c, 0, 37, 0
2, 97653, Control_c, 0, 64, 81
2, 97668, Control_c, 0, 64, 80
2, 97683, Control_c, 0, 64, 79
2, 97698, Control_c, 0, 64, 77
2, 97714, Control_c, 0, 64, 73
2, 97728, Control_c, 0, 64, 68
2, 97743, Control_c, 0, 64, 63
2, 97759, Control_c, 0, 64, 54
2, 97764, Note_on_c, 0, 78, 46
2, 97774, Control_c, 0, 64, 0
2, 97775, Note_on_c, 0, 70, 36
2, 97782, Note_on_c, 0, 42, 40
2, 97925, Control_c, 0, 64, 47
2, 97928, Note_on_c, 0, 42, 0
2, 97933, Note_on_c, 0, 78, 0
2, 97940, Control_c, 0, 64, 61
2, 97956, Control_c, 0, 64, 64
2, 97971, Control_c, 0, 64, 66
2, 97986, Control_c, 0, 64, 68
2, 98002, Control_c, 0, 64, 69
2, 98017, Control_c, 0, 64, 69
2, 98061, Control_c, 0, 64, 69
2, 98107, Control_c, 0, 64, 68
2, 98137, Control_c, 0, 64, 68
2, 98198, Control_c, 0, 64, 67
2, 98213, Control_c, 0, 64, 66
2, 98228, Control_c, 0, 64, 65
2, 98244, Control_c, 0, 64, 63
2, 98258, Control_c, 0, 64, 61
2, 98261, Note_on_c, 0, 78, 52
2, 98274, Control_c, 0, 64, 56
2, 98298, Control_c, 0, 64, 47
2, 98308, Note_on_c, 0, 54, 34
2, 98314, Control_c, 0, 64, 26
2, 98329, Control_c, 0, 64, 0
2, 98357, Note_on_c, 0, 70, 0
2, 98459, Note_on_c, 0, 54, 0
2, 98479, Note_on_c, 0, 52, 37
2, 98633, Note_on_c, 0, 52, 0
2, 98644, Note_on_c, 0, 72, 50
2, 98645, Note_on_c, 0, 80, 56
2, 98651, Note_on_c, 0, 54, 31
2, 98678, Note_on_c, 0, 78, 0
2, 98769, Note_on_c, 0, 54, 0
2, 98794, Note_on_c, 0, 56, 41
2, 98929, Note_on_c, 0, 80, 0
2, 98953, Note_on_c, 0, 56, 0
2, 98965, Note_on_c, 0, 78, 55
2, 98982, Note_on_c, 0, 75, 48
2, 98989, Note_on_c, 0, 58, 40
2, 99138, Note_on_c, 0, 58, 0
2, 99161, Note_on_c, 0, 60, 40
2, 99308, Note_on_c, 0, 75, 0
2, 99323, Note_on_c, 0, 76, 61
2, 99329, Note_on_c, 0, 60, 0
2, 99340, Note_on_c, 0, 61, 45
2, 99362, Note_on_c, 0, 78, 0
2, 99363, Note_on_c, 0, 72, 0
2, 99676, Note_on_c, 0, 73, 42
2, 99680, Note_on_c, 0, 61, 0
2, 99689, Note_on_c, 0, 59, 38
2, 99859, Note_on_c, 0, 58, 36
2, 99896, Note_on_c, 0, 59, 0
2, 100028, Note_on_c, 0, 76, 0
2, 100037, Note_on_c, 0, 56, 33
2, 100038, Note_on_c, 0, 83, 58
2, 100039, Note_on_c, 0, 58, 0
2, 100075, Note_on_c, 0, 73, 0
2, 100173, Note_on_c, 0, 56, 0
2, 100204, Note_on_c, 0, 54, 39
2, 100362, Note_on_c, 0, 82, 66
2, 100364, Note_on_c, 0, 54, 0
2, 100392, Note_on_c, 0, 56, 33
2, 100427, Control_c, 0, 64, 50
2, 100443, Control_c, 0, 64, 61
2, 100457, Control_c, 0, 64, 63
2, 100473, Control_c, 0, 64, 64
2, 100488, Control_c, 0, 64, 65
2, 100503, Control_c, 0, 64, 66
2, 100519, Control_c, 0, 64, 66
2, 100521, Note_on_c, 0, 80, 68
2, 100530, Note_on_c, 0, 58, 37
2, 100548, Control_c, 0, 64, 67
2, 100552, Note_on_c, 0, 56, 0
2, 100570, Note_on_c, 0, 58, 0
2, 100605, Note_on_c, 0, 83, 0
2, 100617, Control_c, 0, 64, 66
2, 100633, Control_c, 0, 64, 66
2, 100648, Control_c, 0, 64, 65
2, 100663, Control_c, 0, 64, 64
2, 100678, Control_c, 0, 64, 63
2, 100689, Note_on_c, 0, 82, 0
2, 100693, Control_c, 0, 64, 60
2, 100708, Control_c, 0, 64, 55
2, 100708, Note_on_c, 0, 78, 69
2, 100720, Note_on_c, 0, 59, 44
2, 100723, Control_c, 0, 64, 46
2, 100738, Control_c, 0, 64, 31
2, 100756, Control_c, 0, 64, 0
2, 100799, Note_on_c, 0, 80, 0
2, 100869, Note_on_c, 0, 63, 42
2, 100987, Note_on_c, 0, 63, 0
2, 101032, Note_on_c, 0, 76, 62
2, 101037, Note_on_c, 0, 64, 42
2, 101038, Note_on_c, 0, 78, 0
2, 101199, Note_on_c, 0, 75, 64
2, 101203, Note_on_c, 0, 64, 0
2, 101208, Note_on_c, 0, 76, 0
2, 101216, Note_on_c, 0, 66, 40
2, 101357, Note_on_c, 0, 66, 0
2, 101380, Note_on_c, 0, 73, 67
2, 101385, Note_on_c, 0, 68, 49
2, 101398, Note_on_c, 0, 75, 0
2, 101506, Note_on_c, 0, 68, 0
2, 101527, Note_on_c, 0, 66, 51
2, 101654, Note_on_c, 0, 66, 0
2, 101699, Note_on_c, 0, 64, 45
2, 101715, Note_on_c, 0, 75, 75
2, 101740, Note_on_c, 0, 73, 0
2, 101857, Note_on_c, 0, 64, 0
2, 101863, Note_on_c, 0, 63, 48
2, 102011, Note_on_c, 0, 63, 0
2, 102033, Note_on_c, 0, 61, 53
2, 102035, Note_on_c, 0, 76, 73
2, 102064, Note_on_c, 0, 59, 0
2, 102084, Note_on_c, 0, 75, 0
2, 102189, Note_on_c, 0, 61, 0
2, 102200, Note_on_c, 0, 59, 37
2, 102375, Note_on_c, 0, 58, 46
2, 102416, Note_on_c, 0, 59, 0
2, 102510, Note_on_c, 0, 58, 0
2, 102542, Note_on_c, 0, 56, 45
2, 102706, Note_on_c, 0, 73, 51
2, 102716, Note_on_c, 0, 56, 0
2, 102717, Note_on_c, 0, 54, 40
2, 102842, Note_on_c, 0, 54, 0
2, 102875, Note_on_c, 0, 52, 47
2, 103048, Note_on_c, 0, 51, 50
2, 103063, Note_on_c, 0, 52, 0
2, 103180, Note_on_c, 0, 51, 0
2, 103205, Note_on_c, 0, 49, 48
2, 103354, Note_on_c, 0, 49, 0
2, 103361, Note_on_c, 0, 75, 60
2, 103371, Note_on_c, 0, 47, 49
2, 103395, Note_on_c, 0, 76, 0
2, 103505, Note_on_c, 0, 73, 0
2, 103523, Note_on_c, 0, 49, 47
2, 103528, Note_on_c, 0, 47, 0
2, 103572, Note_on_c, 0, 75, 0
2, 103590, Control_c, 0, 64, 17
2, 103651, Control_c, 0, 64, 0
2, 103674, Control_c, 0, 67, 126
2, 103688, Control_c, 0, 67, 124
2, 103703, Control_c, 0, 67, 122
2, 103707, Note_on_c, 0, 71, 67
2, 103714, Note_on_c, 0, 51, 49
2, 103719, Control_c, 0, 67, 120
2, 103720, Note_on_c, 0, 49, 0
2, 103734, Control_c, 0, 67, 117
2, 103749, Control_c, 0, 67, 115
2, 103765, Control_c, 0, 67, 113
2, 103780, Control_c, 0, 67, 110
2, 103796, Control_c, 0, 67, 108
2, 103810, Control_c, 0, 67, 107
2, 103825, Control_c, 0, 67, 107
2, 103841, Control_c, 0, 67, 106
2, 103856, Control_c, 0, 67, 105
2, 103856, Note_on_c, 0, 51, 0
2, 103872, Control_c, 0, 67, 105
2, 103874, Note_on_c, 0, 52, 49
2, 103886, Control_c, 0, 67, 104
2, 103917, Control_c, 0, 67, 104
2, 103932, Control_c, 0, 67, 103
2, 103947, Control_c, 0, 67, 101
2, 103963, Control_c, 0, 67, 100
2, 103977, Control_c, 0, 67, 98
2, 103993, Control_c, 0, 67, 95
2, 104008, Control_c, 0, 67, 92
2, 104024, Control_c, 0, 67, 89
2, 104034, Note_on_c, 0, 52, 0
2, 104037, Note_on_c, 0, 75, 87
2, 104040, Control_c, 0, 67, 87
2, 104049, Note_on_c, 0, 54, 54
2, 104054, Control_c, 0, 67, 84
2, 104069, Control_c, 0, 67, 81
2, 104080, Note_on_c, 0, 71, 0
2, 104085, Control_c, 0, 67, 79
2, 104100, Control_c, 0, 67, 78
2, 104116, Control_c, 0, 67, 77
2, 104161, Control_c, 0, 67, 76
2, 104187, Note_on_c, 0, 54, 0
2, 104194, Note_on_c, 0, 56, 58
2, 104354, Note_on_c, 0, 56, 0
2, 104362, Note_on_c, 0, 58, 58
2, 104362, Note_on_c, 0, 73, 75
2, 104363, Note_on_c, 0, 78, 74
2, 104404, Note_on_c, 0, 75, 0
2, 104538, Note_on_c, 0, 54, 50
2, 104552, Note_on_c, 0, 58, 0
2, 104686, Note_on_c, 0, 54, 0
2, 104709, Note_on_c, 0, 56, 54
2, 104714, Note_on_c, 0, 71, 83
2, 104725, Note_on_c, 0, 73, 0
2, 104731, Control_c, 0, 67, 77
2, 104741, Note_on_c, 0, 78, 0
2, 104863, Note_on_c, 0, 77, 67
2, 104868, Note_on_c, 0, 49, 54
2, 104884, Control_c, 0, 67, 77
2, 104915, Control_c, 0, 67, 78
2, 105011, Note_on_c, 0, 56, 0
2, 105021, Control_c, 0, 67, 78
2, 105036, Note_on_c, 0, 78, 71
2, 105037, Note_on_c, 0, 51, 65
2, 105082, Control_c, 0, 67, 79
2, 105142, Control_c, 0, 64, 49
2, 105158, Control_c, 0, 64, 60
2, 105166, Note_on_c, 0, 77, 0
2, 105167, Note_on_c, 0, 49, 0
2, 105172, Control_c, 0, 64, 63
2, 105183, Note_on_c, 0, 80, 69
2, 105187, Control_c, 0, 64, 64
2, 105208, Note_on_c, 0, 53, 58
2, 105211, Control_c, 0, 64, 65
2, 105213, Note_on_c, 0, 51, 0
2, 105214, Note_on_c, 0, 78, 0
2, 105226, Control_c, 0, 64, 66
2, 105233, Note_on_c, 0, 80, 0
2, 105242, Control_c, 0, 64, 68
2, 105256, Control_c, 0, 64, 70
2, 105272, Control_c, 0, 64, 72
2, 105287, Control_c, 0, 64, 74
2, 105317, Control_c, 0, 64, 72
2, 105332, Control_c, 0, 64, 69
2, 105347, Control_c, 0, 64, 66
2, 105363, Control_c, 0, 64, 64
2, 105363, Control_c, 0, 67, 78
2, 105365, Note_on_c, 0, 53, 0
2, 105369, Note_on_c, 0, 54, 62
2, 105377, Control_c, 0, 64, 62
2, 105377, Note_on_c, 0, 71, 0
2, 105382, Note_on_c, 0, 78, 79
2, 105385, Note_on_c, 0, 82, 79
2, 105393, Control_c, 0, 64, 60
2, 105393, Control_c, 0, 67, 78
2, 105408, Control_c, 0, 64, 56
2, 105423, Control_c, 0, 64, 49
2, 105438, Control_c, 0, 64, 42
2, 105453, Control_c, 0, 64, 33
2, 105468, Control_c, 0, 64, 0
2, 105521, Note_on_c, 0, 47, 64
2, 105524, Note_on_c, 0, 54, 0
2, 105532, Note_on_c, 0, 80, 83
2, 105568, Note_on_c, 0, 82, 0
2, 105688, Note_on_c, 0, 59, 79
2, 105689, Note_on_c, 0, 82, 76
2, 105695, Note_on_c, 0, 77, 75
2, 105717, Note_on_c, 0, 78, 0
2, 105758, Control_c, 0, 64, 47
2, 105773, Control_c, 0, 64, 59
2, 105785, Note_on_c, 0, 80, 0
2, 105788, Control_c, 0, 64, 63
2, 105804, Control_c, 0, 64, 65
2, 105819, Control_c, 0, 64, 66
2, 105829, Note_on_c, 0, 83, 63
2, 105865, Control_c, 0, 64, 65
2, 105868, Note_on_c, 0, 77, 0
2, 105872, Note_on_c, 0, 75, 61
2, 105872, Note_on_c, 0, 82, 0
2, 105876, Note_on_c, 0, 83, 0
2, 105890, Note_on_c, 0, 75, 0
2, 105895, Control_c, 0, 64, 65
2, 105926, Control_c, 0, 64, 64
2, 105933, Note_on_c, 0, 47, 0
2, 105940, Control_c, 0, 64, 64
2, 105940, Control_c, 0, 67, 78
2, 105956, Control_c, 0, 64, 63
2, 105978, Control_c, 0, 64, 63
2, 105978, Control_c, 0, 67, 79
2, 105994, Control_c, 0, 64, 61
2, 106009, Control_c, 0, 64, 56
2, 106018, Note_on_c, 0, 73, 72
2, 106024, Control_c, 0, 64, 50
2, 106027, Note_on_c, 0, 77, 69
2, 106040, Control_c, 0, 64, 44
2, 106054, Control_c, 0, 64, 33
2, 106054, Control_c, 0, 67, 79
2, 106069, Control_c, 0, 64, 28
2, 106069, Control_c, 0, 67, 80
2, 106085, Control_c, 0, 64, 26
2, 106116, Control_c, 0, 64, 24
2, 106171, Note_on_c, 0, 58, 64
2, 106176, Control_c, 0, 64, 22
2, 106192, Control_c, 0, 64, 20
2, 106197, Note_on_c, 0, 59, 0
2, 106267, Control_c, 0, 64, 17
2, 106282, Control_c, 0, 64, 0
2, 106305, Note_on_c, 0, 73, 0
2, 106342, Note_on_c, 0, 71, 73
2, 106357, Note_on_c, 0, 59, 56
2, 106495, Note_on_c, 0, 58, 0
2, 106502, Note_on_c, 0, 70, 83
2, 106510, Note_on_c, 0, 71, 0
2, 106517, Note_on_c, 0, 61, 60
2, 106520, Note_on_c, 0, 77, 0
2, 106523, Note_on_c, 0, 59, 0
2, 106664, Note_on_c, 0, 61, 0
2, 106672, Note_on_c, 0, 63, 58
2, 106672, Note_on_c, 0, 78, 69
2, 106675, Note_on_c, 0, 68, 74
2, 106702, Note_on_c, 0, 70, 0
2, 106860, Note_on_c, 0, 61, 48
2, 106918, Note_on_c, 0, 63, 0
2, 106988, Note_on_c, 0, 61, 0
2, 106997, Note_on_c, 0, 70, 79
2, 107019, Control_c, 0, 67, 80
2, 107020, Note_on_c, 0, 59, 48
2, 107085, Note_on_c, 0, 68, 0
2, 107125, Control_c, 0, 64, 34
2, 107140, Control_c, 0, 64, 56
2, 107156, Control_c, 0, 64, 62
2, 107162, Note_on_c, 0, 58, 58
2, 107171, Control_c, 0, 64, 64
2, 107171, Note_on_c, 0, 59, 0
2, 107186, Control_c, 0, 64, 66
2, 107199, Note_on_c, 0, 58, 0
2, 107201, Control_c, 0, 64, 67
2, 107216, Control_c, 0, 64, 69
2, 107232, Control_c, 0, 64, 71
2, 107247, Control_c, 0, 64, 73
2, 107262, Control_c, 0, 64, 75
2, 107294, Control_c, 0, 64, 75
2, 107309, Control_c, 0, 64, 74
2, 107325, Control_c, 0, 64, 70
2, 107340, Control_c, 0, 64, 67
2, 107347, Note_on_c, 0, 71, 57
2, 107355, Control_c, 0, 64, 65
2, 107366, Note_on_c, 0, 56, 50
2, 107369, Note_on_c, 0, 70, 0
2, 107370, Control_c, 0, 64, 63
2, 107385, Control_c, 0, 64, 59
2, 107401, Control_c, 0, 64, 54
2, 107416, Control_c, 0, 64, 46
2, 107424, Note_on_c, 0, 78, 0
2, 107430, Control_c, 0, 64, 39
2, 107446, Control_c, 0, 64, 38
2, 107461, Control_c, 0, 67, 81
2, 107477, Control_c, 0, 64, 36
2, 107492, Control_c, 0, 64, 33
2, 107515, Control_c, 0, 64, 28
2, 107515, Control_c, 0, 67, 81
2, 107530, Control_c, 0, 64, 22
2, 107545, Control_c, 0, 64, 17
2, 107560, Control_c, 0, 64, 0
2, 107716, Note_on_c, 0, 47, 51
2, 107728, Note_on_c, 0, 76, 47
2, 107891, Note_on_c, 0, 75, 61
2, 107898, Note_on_c, 0, 76, 0
2, 107938, Note_on_c, 0, 71, 0
2, 108054, Note_on_c, 0, 73, 56
2, 108062, Note_on_c, 0, 46, 68
2, 108076, Note_on_c, 0, 47, 0
2, 108077, Control_c, 0, 67, 81
2, 108091, Note_on_c, 0, 75, 0
2, 108124, Control_c, 0, 67, 80
2, 108138, Control_c, 0, 67, 80
2, 108169, Control_c, 0, 67, 79
2, 108184, Control_c, 0, 67, 79
2, 108202, Note_on_c, 0, 73, 0
2, 108214, Control_c, 0, 67, 78
2, 108216, Note_on_c, 0, 71, 54
2, 108229, Control_c, 0, 67, 77
2, 108245, Control_c, 0, 67, 76
2, 108260, Control_c, 0, 67, 74
2, 108283, Control_c, 0, 67, 72
2, 108298, Control_c, 0, 67, 67
2, 108314, Control_c, 0, 67, 56
2, 108328, Control_c, 0, 67, 45
2, 108343, Control_c, 0, 67, 31
2, 108359, Control_c, 0, 67, 21
2, 108374, Control_c, 0, 67, 13
2, 108389, Control_c, 0, 67, 8
2, 108400, Note_on_c, 0, 73, 69
2, 108404, Control_c, 0, 67, 0
2, 108410, Note_on_c, 0, 47, 77
2, 108486, Note_on_c, 0, 46, 0
2, 108571, Note_on_c, 0, 75, 70
2, 108602, Note_on_c, 0, 73, 0
2, 108721, Note_on_c, 0, 75, 0
2, 108735, Note_on_c, 0, 76, 59
2, 108739, Note_on_c, 0, 49, 81
2, 108774, Note_on_c, 0, 47, 0
2, 108818, Note_on_c, 0, 56, 0
2, 108844, Note_on_c, 0, 76, 0
2, 108845, Control_c, 0, 64, 28
2, 108860, Control_c, 0, 64, 42
2, 108876, Control_c, 0, 64, 49
2, 108890, Control_c, 0, 64, 54
2, 108905, Control_c, 0, 64, 56
2, 108921, Control_c, 0, 64, 58
2, 108923, Note_on_c, 0, 78, 57
2, 108953, Control_c, 0, 64, 58
2, 108982, Control_c, 0, 64, 58
2, 108998, Control_c, 0, 64, 56
2, 109013, Control_c, 0, 64, 52
2, 109028, Control_c, 0, 64, 44
2, 109051, Control_c, 0, 64, 0
2, 109062, Note_on_c, 0, 78, 0
2, 109086, Note_on_c, 0, 80, 60
2, 109089, Note_on_c, 0, 54, 53
2, 109158, Control_c, 0, 64, 22
2, 109172, Control_c, 0, 64, 53
2, 109187, Control_c, 0, 64, 61
2, 109203, Control_c, 0, 64, 63
2, 109218, Control_c, 0, 64, 65
2, 109220, Note_on_c, 0, 71, 0
2, 109232, Note_on_c, 0, 52, 66
2, 109234, Control_c, 0, 64, 68
2, 109236, Note_on_c, 0, 54, 0
2, 109248, Control_c, 0, 64, 73
2, 109263, Control_c, 0, 64, 81
2, 109268, Note_on_c, 0, 52, 0
2, 109275, Note_on_c, 0, 49, 0
2, 109279, Control_c, 0, 64, 95
2, 109294, Control_c, 0, 64, 127
2, 109341, Note_on_c, 0, 80, 0
2, 109384, Control_c, 0, 64, 94
2, 109400, Control_c, 0, 64, 78
2, 109415, Control_c, 0, 64, 69
2, 109428, Note_on_c, 0, 42, 63
2, 109430, Control_c, 0, 64, 64
2, 109430, Note_on_c, 0, 54, 56
2, 109433, Note_on_c, 0, 70, 56
2, 109445, Control_c, 0, 64, 56
2, 109460, Control_c, 0, 64, 35
2, 109476, Control_c, 0, 64, 0
2, 109585, Note_on_c, 0, 80, 63
2, 109742, Note_on_c, 0, 44, 72
2, 109749, Note_on_c, 0, 80, 0
2, 109753, Note_on_c, 0, 78, 62
2, 109776, Note_on_c, 0, 73, 52
2, 109797, Control_c, 0, 64, 53
2, 109818, Control_c, 0, 64, 61
2, 109834, Control_c, 0, 64, 63
2, 109839, Note_on_c, 0, 78, 0
2, 109849, Note_on_c, 0, 42, 0
2, 109880, Control_c, 0, 64, 61
2, 109890, Note_on_c, 0, 73, 0
2, 109894, Control_c, 0, 64, 58
2, 109909, Control_c, 0, 64, 55
2, 109924, Note_on_c, 0, 76, 65
2, 109925, Control_c, 0, 64, 52
2, 109925, Note_on_c, 0, 44, 0
2, 109934, Note_on_c, 0, 46, 62
2, 109940, Control_c, 0, 64, 47
2, 109956, Control_c, 0, 64, 42
2, 109971, Control_c, 0, 64, 39
2, 109986, Control_c, 0, 64, 28
2, 109993, Note_on_c, 0, 46, 0
2, 110002, Control_c, 0, 64, 0
2, 110018, Note_on_c, 0, 54, 0
2, 110084, Note_on_c, 0, 47, 72
2, 110088, Note_on_c, 0, 75, 77
2, 110133, Note_on_c, 0, 70, 0
2, 110245, Note_on_c, 0, 73, 68
2, 110406, Note_on_c, 0, 49, 74
2, 110406, Note_on_c, 0, 76, 0
2, 110408, Note_on_c, 0, 75, 0
2, 110414, Note_on_c, 0, 71, 69
2, 110414, Note_on_c, 0, 73, 0
2, 110434, Note_on_c, 0, 47, 0
2, 110562, Note_on_c, 0, 71, 0
2, 110577, Note_on_c, 0, 70, 64
2, 110579, Note_on_c, 0, 51, 79
2, 110596, Note_on_c, 0, 49, 0
2, 110784, Note_on_c, 0, 52, 80
2, 110800, Note_on_c, 0, 51, 0
2, 110801, Note_on_c, 0, 68, 65
2, 110807, Note_on_c, 0, 70, 0
2, 110974, Note_on_c, 0, 68, 0
2, 110975, Note_on_c, 0, 73, 55
2, 111093, Note_on_c, 0, 73, 0
2, 111114, Note_on_c, 0, 51, 73
2, 111123, Note_on_c, 0, 66, 57
2, 111160, Note_on_c, 0, 52, 0
2, 111273, Note_on_c, 0, 66, 0
2, 111301, Note_on_c, 0, 71, 52
2, 111470, Note_on_c, 0, 49, 58
2, 111474, Note_on_c, 0, 51, 0
2, 111476, Control_c, 0, 67, 24
2, 111485, Note_on_c, 0, 64, 63
2, 111491, Control_c, 0, 67, 49
2, 111505, Control_c, 0, 67, 81
2, 111521, Control_c, 0, 67, 117
2, 111536, Control_c, 0, 67, 127
2, 111562, Note_on_c, 0, 71, 0
2, 111622, Note_on_c, 0, 49, 0
2, 111644, Note_on_c, 0, 51, 55
2, 111698, Note_on_c, 0, 51, 0
2, 111727, Note_on_c, 0, 49, 60
2, 111769, Note_on_c, 0, 49, 0
2, 111771, Note_on_c, 0, 70, 61
2, 111803, Note_on_c, 0, 51, 61
2, 111840, Note_on_c, 0, 51, 0
2, 111869, Note_on_c, 0, 49, 61
2, 111913, Note_on_c, 0, 49, 0
2, 111935, Note_on_c, 0, 51, 56
2, 111949, Note_on_c, 0, 70, 0
2, 111953, Note_on_c, 0, 71, 60
2, 111995, Note_on_c, 0, 51, 0
2, 112011, Note_on_c, 0, 49, 61
2, 112025, Note_on_c, 0, 71, 0
2, 112072, Note_on_c, 0, 49, 0
2, 112098, Note_on_c, 0, 51, 59
2, 112115, Note_on_c, 0, 73, 62
2, 112153, Note_on_c, 0, 51, 0
2, 112185, Note_on_c, 0, 49, 59
2, 112228, Note_on_c, 0, 49, 0
2, 112259, Note_on_c, 0, 75, 68
2, 112261, Note_on_c, 0, 51, 53
2, 112313, Note_on_c, 0, 51, 0
2, 112322, Note_on_c, 0, 73, 0
2, 112333, Note_on_c, 0, 49, 56
2, 112390, Note_on_c, 0, 49, 0
2, 112411, Note_on_c, 0, 51, 57
2, 112433, Note_on_c, 0, 76, 62
2, 112447, Note_on_c, 0, 64, 0
2, 112463, Note_on_c, 0, 51, 0
2, 112481, Note_on_c, 0, 75, 0
2, 112498, Note_on_c, 0, 49, 52
2, 112552, Note_on_c, 0, 49, 0
2, 112570, Note_on_c, 0, 51, 58
2, 112592, Note_on_c, 0, 66, 64
2, 112623, Note_on_c, 0, 51, 0
2, 112662, Note_on_c, 0, 49, 52
2, 112723, Note_on_c, 0, 49, 0
2, 112723, Note_on_c, 0, 66, 0
2, 112757, Note_on_c, 0, 68, 58
2, 112769, Note_on_c, 0, 47, 57
2, 112811, Note_on_c, 0, 47, 0
2, 112921, Note_on_c, 0, 70, 68
2, 112932, Note_on_c, 0, 76, 0
2, 112937, Note_on_c, 0, 68, 0
2, 113099, Note_on_c, 0, 75, 69
2, 113101, Note_on_c, 0, 59, 64
2, 113105, Note_on_c, 0, 71, 56
2, 113128, Note_on_c, 0, 70, 0
2, 113260, Note_on_c, 0, 61, 76
2, 113268, Note_on_c, 0, 59, 0
2, 113269, Control_c, 0, 64, 34
2, 113269, Note_on_c, 0, 76, 63
2, 113282, Note_on_c, 0, 75, 0
2, 113285, Control_c, 0, 64, 54
2, 113300, Control_c, 0, 64, 60
2, 113316, Control_c, 0, 64, 63
2, 113324, Note_on_c, 0, 76, 0
2, 113331, Control_c, 0, 64, 64
2, 113346, Control_c, 0, 64, 66
2, 113362, Control_c, 0, 64, 67
2, 113362, Control_c, 0, 67, 126
2, 113377, Control_c, 0, 64, 67
2, 113377, Control_c, 0, 67, 117
2, 113392, Control_c, 0, 67, 104
2, 113407, Control_c, 0, 64, 66
2, 113407, Control_c, 0, 67, 87
2, 113410, Note_on_c, 0, 61, 0
2, 113421, Control_c, 0, 64, 65
2, 113421, Control_c, 0, 67, 67
2, 113426, Note_on_c, 0, 59, 82
2, 113432, Note_on_c, 0, 78, 82
2, 113436, Control_c, 0, 64, 64
2, 113436, Control_c, 0, 67, 48
2, 113451, Control_c, 0, 64, 63
2, 113451, Control_c, 0, 67, 28
2, 113466, Control_c, 0, 64, 62
2, 113466, Control_c, 0, 67, 11
2, 113482, Control_c, 0, 67, 0
2, 113497, Control_c, 0, 64, 61
2, 113512, Control_c, 0, 64, 59
2, 113527, Control_c, 0, 64, 58
2, 113542, Control_c, 0, 64, 57
2, 113573, Control_c, 0, 64, 56
2, 113582, Note_on_c, 0, 80, 81
2, 113587, Control_c, 0, 64, 56
2, 113597, Note_on_c, 0, 57, 85
2, 113603, Control_c, 0, 64, 55
2, 113621, Note_on_c, 0, 59, 0
2, 113672, Control_c, 0, 64, 56
2, 113698, Note_on_c, 0, 78, 0
2, 113725, Note_on_c, 0, 80, 0
2, 113732, Control_c, 0, 64, 55
2, 113747, Control_c, 0, 64, 54
2, 113759, Note_on_c, 0, 81, 71
2, 113763, Control_c, 0, 64, 52
2, 113774, Note_on_c, 0, 73, 77
2, 113775, Note_on_c, 0, 56, 77
2, 113776, Note_on_c, 0, 57, 0
2, 113778, Control_c, 0, 64, 49
2, 113794, Control_c, 0, 64, 45
2, 113808, Control_c, 0, 64, 42
2, 113817, Note_on_c, 0, 71, 0
2, 113823, Control_c, 0, 64, 42
2, 113839, Control_c, 0, 64, 41
2, 113870, Control_c, 0, 64, 40
2, 113936, Note_on_c, 0, 54, 72
2, 113942, Note_on_c, 0, 75, 80
2, 113948, Note_on_c, 0, 56, 0
2, 113961, Control_c, 0, 64, 36
2, 113976, Control_c, 0, 64, 32
2, 113992, Control_c, 0, 64, 22
2, 114007, Control_c, 0, 64, 0
2, 114019, Note_on_c, 0, 73, 0
2, 114089, Note_on_c, 0, 75, 0
2, 114101, Note_on_c, 0, 54, 0
2, 114115, Note_on_c, 0, 52, 65
2, 114117, Note_on_c, 0, 81, 0
2, 114125, Note_on_c, 0, 76, 65
2, 114273, Note_on_c, 0, 80, 57
2, 114292, Note_on_c, 0, 52, 0
2, 114430, Note_on_c, 0, 80, 0
2, 114438, Note_on_c, 0, 76, 0
2, 114450, Note_on_c, 0, 81, 58
2, 114459, Note_on_c, 0, 64, 78
2, 114612, Note_on_c, 0, 81, 0
2, 114626, Note_on_c, 0, 80, 58
2, 114817, Note_on_c, 0, 63, 80
2, 114836, Note_on_c, 0, 78, 57
2, 114840, Note_on_c, 0, 57, 63
2, 114855, Note_on_c, 0, 64, 0
2, 114862, Note_on_c, 0, 80, 0
2, 114945, Note_on_c, 0, 78, 0
2, 114973, Control_c, 0, 64, 13
2, 114975, Note_on_c, 0, 76, 59
2, 114988, Control_c, 0, 64, 24
2, 115004, Control_c, 0, 64, 31
2, 115018, Control_c, 0, 64, 35
2, 115034, Control_c, 0, 64, 40
2, 115049, Control_c, 0, 64, 42
2, 115064, Control_c, 0, 64, 43
2, 115080, Control_c, 0, 64, 44
2, 115110, Control_c, 0, 64, 44
2, 115140, Control_c, 0, 64, 46
2, 115156, Control_c, 0, 64, 53
2, 115166, Note_on_c, 0, 75, 76
2, 115178, Control_c, 0, 64, 58
2, 115181, Note_on_c, 0, 64, 81
2, 115186, Note_on_c, 0, 76, 0
2, 115194, Control_c, 0, 64, 62
2, 115194, Note_on_c, 0, 63, 0
2, 115205, Note_on_c, 0, 57, 0
2, 115209, Control_c, 0, 64, 64
2, 115223, Control_c, 0, 64, 66
2, 115239, Control_c, 0, 64, 69
2, 115254, Control_c, 0, 64, 75
2, 115269, Control_c, 0, 64, 85
2, 115285, Control_c, 0, 64, 112
2, 115300, Control_c, 0, 64, 127
2, 115339, Note_on_c, 0, 73, 66
2, 115447, Note_on_c, 0, 75, 0
2, 115487, Note_on_c, 0, 72, 13
2, 115497, Note_on_c, 0, 73, 0
2, 115514, Control_c, 0, 64, 85
2, 115518, Note_on_c, 0, 66, 92
2, 115520, Note_on_c, 0, 51, 68
2, 115529, Control_c, 0, 64, 71
2, 115537, Note_on_c, 0, 72, 0
2, 115544, Control_c, 0, 64, 64
2, 115557, Note_on_c, 0, 64, 0
2, 115560, Control_c, 0, 64, 49
2, 115574, Control_c, 0, 64, 0
2, 115633, Control_c, 0, 64, 32
2, 115648, Control_c, 0, 64, 51
2, 115663, Control_c, 0, 64, 58
2, 115679, Control_c, 0, 64, 61
2, 115686, Note_on_c, 0, 61, 53
2, 115693, Control_c, 0, 64, 63
2, 115708, Control_c, 0, 64, 63
2, 115739, Control_c, 0, 64, 63
2, 115754, Control_c, 0, 64, 62
2, 115769, Control_c, 0, 64, 60
2, 115784, Control_c, 0, 64, 55
2, 115800, Control_c, 0, 64, 45
2, 115815, Control_c, 0, 64, 28
2, 115821, Note_on_c, 0, 61, 0
2, 115830, Control_c, 0, 64, 17
2, 115835, Note_on_c, 0, 73, 62
2, 115843, Note_on_c, 0, 60, 65
2, 115845, Control_c, 0, 64, 26
2, 115860, Control_c, 0, 64, 42
2, 115875, Control_c, 0, 64, 53
2, 115891, Control_c, 0, 64, 59
2, 115906, Control_c, 0, 64, 61
2, 115922, Control_c, 0, 64, 62
2, 115937, Control_c, 0, 64, 63
2, 115960, Control_c, 0, 64, 64
2, 115974, Control_c, 0, 64, 64
2, 115989, Control_c, 0, 64, 65
2, 115996, Note_on_c, 0, 60, 0
2, 116002, Note_on_c, 0, 58, 69
2, 116005, Control_c, 0, 64, 65
2, 116020, Control_c, 0, 64, 66
2, 116035, Control_c, 0, 64, 66
2, 116050, Control_c, 0, 64, 68
2, 116065, Control_c, 0, 64, 69
2, 116081, Control_c, 0, 64, 69
2, 116096, Control_c, 0, 64, 70
2, 116111, Control_c, 0, 64, 69
2, 116127, Control_c, 0, 64, 68
2, 116129, Note_on_c, 0, 66, 0
2, 116141, Control_c, 0, 64, 65
2, 116156, Control_c, 0, 64, 61
2, 116172, Control_c, 0, 64, 49
2, 116175, Note_on_c, 0, 60, 83
2, 116178, Note_on_c, 0, 58, 0
2, 116187, Control_c, 0, 64, 0
2, 116188, Note_on_c, 0, 56, 76
2, 116199, Note_on_c, 0, 75, 69
2, 116205, Note_on_c, 0, 51, 0
2, 116264, Note_on_c, 0, 73, 0
2, 116294, Control_c, 0, 64, 24
2, 116309, Control_c, 0, 64, 49
2, 116325, Control_c, 0, 64, 58
2, 116340, Control_c, 0, 64, 62
2, 116355, Control_c, 0, 64, 64
2, 116360, Note_on_c, 0, 54, 58
2, 116371, Control_c, 0, 64, 66
2, 116373, Note_on_c, 0, 60, 0
2, 116386, Control_c, 0, 64, 68
2, 116397, Note_on_c, 0, 56, 0
2, 116402, Control_c, 0, 64, 70
2, 116416, Control_c, 0, 64, 73
2, 116431, Control_c, 0, 64, 76
2, 116447, Control_c, 0, 64, 76
2, 116461, Note_on_c, 0, 54, 0
2, 116462, Control_c, 0, 64, 75
2, 116477, Control_c, 0, 64, 70
2, 116492, Control_c, 0, 64, 65
2, 116503, Note_on_c, 0, 52, 59
2, 116507, Control_c, 0, 64, 59
2, 116523, Control_c, 0, 64, 41
2, 116524, Note_on_c, 0, 61, 80
2, 116537, Control_c, 0, 64, 0
2, 116552, Control_c, 0, 64, 26
2, 116568, Control_c, 0, 64, 51
2, 116572, Note_on_c, 0, 52, 0
2, 116583, Control_c, 0, 64, 61
2, 116599, Control_c, 0, 64, 64
2, 116613, Control_c, 0, 64, 66
2, 116628, Control_c, 0, 64, 68
2, 116644, Control_c, 0, 64, 72
2, 116659, Control_c, 0, 64, 77
2, 116668, Note_on_c, 0, 63, 86
2, 116671, Note_on_c, 0, 51, 69
2, 116674, Control_c, 0, 64, 82
2, 116689, Control_c, 0, 64, 85
2, 116704, Control_c, 0, 64, 86
2, 116734, Note_on_c, 0, 61, 0
2, 116742, Control_c, 0, 64, 86
2, 116757, Control_c, 0, 64, 87
2, 116773, Control_c, 0, 64, 86
2, 116780, Note_on_c, 0, 63, 0
2, 116788, Control_c, 0, 64, 78
2, 116804, Control_c, 0, 64, 69
2, 116818, Control_c, 0, 64, 63
2, 116833, Control_c, 0, 64, 0
2, 116867, Note_on_c, 0, 49, 69
2, 116868, Note_on_c, 0, 64, 94
2, 116894, Control_c, 0, 64, 55
2, 116897, Note_on_c, 0, 51, 0
2, 116902, Note_on_c, 0, 75, 0
2, 116909, Control_c, 0, 64, 63
2, 116925, Control_c, 0, 64, 65
2, 116931, Note_on_c, 0, 49, 0
2, 116940, Control_c, 0, 64, 68
2, 116954, Control_c, 0, 64, 74
2, 116970, Control_c, 0, 64, 84
2, 116985, Control_c, 0, 64, 107
2, 117000, Note_on_c, 0, 64, 0
2, 117001, Control_c, 0, 64, 127
2, 117017, Note_on_c, 0, 47, 72
2, 117123, Control_c, 0, 64, 112
2, 117138, Control_c, 0, 64, 91
2, 117153, Control_c, 0, 64, 81
2, 117169, Control_c, 0, 64, 75
2, 117184, Control_c, 0, 64, 70
2, 117187, Note_on_c, 0, 66, 92
2, 117191, Note_on_c, 0, 73, 73
2, 117200, Control_c, 0, 64, 65
2, 117203, Note_on_c, 0, 45, 71
2, 117215, Control_c, 0, 64, 62
2, 117230, Control_c, 0, 64, 49
2, 117232, Note_on_c, 0, 47, 0
2, 117245, Control_c, 0, 64, 13
2, 117259, Control_c, 0, 64, 0
2, 117347, Note_on_c, 0, 72, 80
2, 117349, Note_on_c, 0, 68, 78
2, 117356, Note_on_c, 0, 45, 0
2, 117361, Note_on_c, 0, 44, 72
2, 117374, Note_on_c, 0, 66, 0
2, 117417, Note_on_c, 0, 73, 0
2, 117552, Note_on_c, 0, 69, 86
2, 117552, Note_on_c, 0, 73, 81
2, 117568, Note_on_c, 0, 42, 61
2, 117581, Note_on_c, 0, 68, 0
2, 117596, Note_on_c, 0, 72, 0
2, 117601, Note_on_c, 0, 44, 0
2, 117706, Note_on_c, 0, 42, 0
2, 117723, Note_on_c, 0, 40, 66
2, 117885, Note_on_c, 0, 68, 90
2, 117901, Note_on_c, 0, 39, 63
2, 117904, Note_on_c, 0, 69, 0
2, 117911, Note_on_c, 0, 40, 0
2, 118035, Note_on_c, 0, 39, 0
2, 118046, Note_on_c, 0, 37, 62
2, 118209, Note_on_c, 0, 66, 87
2, 118218, Note_on_c, 0, 68, 0
2, 118226, Note_on_c, 0, 37, 0
2, 118226, Note_on_c, 0, 39, 61
2, 118236, Note_on_c, 0, 73, 0
2, 118263, Control_c, 0, 64, 49
2, 118279, Control_c, 0, 64, 61
2, 118294, Control_c, 0, 64, 64
2, 118325, Control_c, 0, 64, 64
2, 118370, Control_c, 0, 64, 64
2, 118385, Control_c, 0, 64, 63
2, 118401, Control_c, 0, 64, 61
2, 118401, Note_on_c, 0, 76, 79
2, 118416, Control_c, 0, 64, 59
2, 118430, Control_c, 0, 64, 56
2, 118446, Control_c, 0, 64, 52
2, 118461, Control_c, 0, 64, 49
2, 118476, Control_c, 0, 64, 48
2, 118492, Control_c, 0, 64, 45
2, 118506, Control_c, 0, 64, 35
2, 118522, Control_c, 0, 64, 0
2, 118530, Note_on_c, 0, 39, 0
2, 118547, Note_on_c, 0, 40, 52
2, 118547, Note_on_c, 0, 75, 84
2, 118675, Note_on_c, 0, 76, 0
2, 118691, Control_c, 0, 64, 53
2, 118706, Control_c, 0, 64, 62
2, 118707, Note_on_c, 0, 73, 68
2, 118720, Note_on_c, 0, 42, 62
2, 118721, Control_c, 0, 64, 64
2, 118721, Note_on_c, 0, 40, 0
2, 118736, Control_c, 0, 64, 65
2, 118748, Note_on_c, 0, 75, 0
2, 118751, Control_c, 0, 64, 67
2, 118768, Control_c, 0, 64, 68
2, 118783, Control_c, 0, 64, 69
2, 118786, Note_on_c, 0, 73, 0
2, 118813, Control_c, 0, 64, 68
2, 118816, Note_on_c, 0, 66, 0
2, 118828, Control_c, 0, 64, 66
2, 118844, Control_c, 0, 64, 64
2, 118859, Control_c, 0, 64, 62
2, 118874, Control_c, 0, 64, 57
2, 118889, Control_c, 0, 64, 45
2, 118896, Note_on_c, 0, 42, 0
2, 118898, Note_on_c, 0, 44, 55
2, 118899, Note_on_c, 0, 72, 71
2, 118904, Control_c, 0, 64, 22
2, 118920, Control_c, 0, 64, 0
2, 119070, Note_on_c, 0, 69, 58
2, 119091, Note_on_c, 0, 44, 0
2, 119235, Note_on_c, 0, 72, 0
2, 119256, Note_on_c, 0, 69, 0
2, 119259, Note_on_c, 0, 68, 59
2, 119262, Control_c, 0, 67, 8
2, 119264, Note_on_c, 0, 44, 49
2, 119277, Control_c, 0, 67, 19
2, 119292, Control_c, 0, 67, 34
2, 119307, Control_c, 0, 67, 49
2, 119323, Control_c, 0, 67, 63
2, 119337, Control_c, 0, 67, 82
2, 119353, Control_c, 0, 67, 98
2, 119368, Control_c, 0, 67, 116
2, 119383, Control_c, 0, 67, 127
2, 119386, Note_on_c, 0, 68, 0
2, 119409, Note_on_c, 0, 44, 0
2, 119410, Note_on_c, 0, 66, 56
2, 119621, Note_on_c, 0, 66, 0
2, 119659, Note_on_c, 0, 64, 37
2, 119661, Note_on_c, 0, 73, 45
2, 119683, Note_on_c, 0, 37, 34
2, 119932, Note_on_c, 0, 37, 0
2, 120035, Note_on_c, 0, 68, 46
2, 120122, Note_on_c, 0, 64, 0
2, 120123, Note_on_c, 0, 73, 0
2, 120185, Note_on_c, 0, 68, 0
2, 120197, Note_on_c, 0, 66, 52
2, 120372, Note_on_c, 0, 68, 53
2, 120412, Note_on_c, 0, 66, 0
2, 120537, Note_on_c, 0, 61, 44
2, 120697, Note_on_c, 0, 61, 0
2, 120705, Note_on_c, 0, 69, 50
2, 120728, Note_on_c, 0, 59, 33
2, 120776, Note_on_c, 0, 68, 0
2, 120827, Control_c, 0, 64, 44
2, 120843, Control_c, 0, 64, 54
2, 120858, Control_c, 0, 64, 58
2, 120874, Control_c, 0, 64, 62
2, 120876, Note_on_c, 0, 57, 47
2, 120889, Control_c, 0, 64, 64
2, 120889, Note_on_c, 0, 59, 0
2, 120935, Control_c, 0, 64, 63
2, 120965, Control_c, 0, 64, 63
2, 120980, Control_c, 0, 64, 62
2, 120996, Control_c, 0, 64, 61
2, 121011, Control_c, 0, 64, 60
2, 121025, Control_c, 0, 64, 58
2, 121029, Note_on_c, 0, 57, 0
2, 121041, Control_c, 0, 64, 56
2, 121056, Control_c, 0, 64, 55
2, 121071, Control_c, 0, 64, 54
2, 121087, Control_c, 0, 64, 53
2, 121090, Note_on_c, 0, 65, 45
2, 121109, Note_on_c, 0, 56, 24
2, 121118, Control_c, 0, 64, 52
2, 121133, Control_c, 0, 64, 52
2, 121147, Control_c, 0, 64, 51
2, 121147, Note_on_c, 0, 69, 0
2, 121163, Control_c, 0, 64, 49
2, 121178, Control_c, 0, 64, 47
2, 121194, Control_c, 0, 64, 44
2, 121209, Control_c, 0, 64, 37
2, 121225, Control_c, 0, 64, 34
2, 121301, Control_c, 0, 64, 33
2, 121317, Control_c, 0, 64, 32
2, 121338, Control_c, 0, 64, 28
2, 121354, Control_c, 0, 64, 17
2, 121369, Control_c, 0, 64, 0
2, 121439, Note_on_c, 0, 49, 42
2, 121510, Note_on_c, 0, 56, 0
2, 121568, Note_on_c, 0, 49, 0
2, 121586, Note_on_c, 0, 50, 48
2, 121722, Note_on_c, 0, 65, 0
2, 121743, Note_on_c, 0, 50, 0
2, 121757, Note_on_c, 0, 66, 60
2, 121774, Note_on_c, 0, 57, 31
2, 121777, Note_on_c, 0, 49, 50
2, 121852, Note_on_c, 0, 57, 0
2, 121885, Control_c, 0, 64, 36
2, 121898, Note_on_c, 0, 49, 0
2, 121900, Control_c, 0, 64, 56
2, 121916, Control_c, 0, 64, 61
2, 121930, Control_c, 0, 64, 62
2, 121931, Note_on_c, 0, 47, 51
2, 121945, Control_c, 0, 64, 63
2, 121976, Control_c, 0, 64, 62
2, 121990, Control_c, 0, 64, 61
2, 122006, Control_c, 0, 64, 59
2, 122021, Control_c, 0, 64, 56
2, 122038, Control_c, 0, 64, 44
2, 122053, Control_c, 0, 64, 0
2, 122097, Note_on_c, 0, 68, 67
2, 122107, Note_on_c, 0, 45, 48
2, 122109, Note_on_c, 0, 59, 38
2, 122134, Note_on_c, 0, 47, 0
2, 122168, Note_on_c, 0, 59, 0
2, 122213, Control_c, 0, 64, 33
2, 122227, Control_c, 0, 64, 55
2, 122240, Note_on_c, 0, 45, 0
2, 122240, Note_on_c, 0, 66, 0
2, 122243, Control_c, 0, 64, 61
2, 122249, Note_on_c, 0, 68, 0
2, 122258, Control_c, 0, 64, 63
2, 122270, Note_on_c, 0, 44, 50
2, 122274, Control_c, 0, 64, 64
2, 122289, Control_c, 0, 64, 65
2, 122379, Control_c, 0, 64, 64
2, 122395, Control_c, 0, 64, 64
2, 122410, Control_c, 0, 64, 62
2, 122424, Control_c, 0, 64, 59
2, 122436, Note_on_c, 0, 44, 0
2, 122440, Control_c, 0, 64, 49
2, 122455, Control_c, 0, 64, 22
2, 122463, Note_on_c, 0, 69, 42
2, 122470, Control_c, 0, 64, 0
2, 122473, Note_on_c, 0, 42, 43
2, 122485, Note_on_c, 0, 61, 30
2, 122631, Note_on_c, 0, 68, 59
2, 122638, Note_on_c, 0, 69, 0
2, 122791, Note_on_c, 0, 42, 0
2, 122793, Note_on_c, 0, 69, 56
2, 122805, Note_on_c, 0, 54, 64
2, 122888, Control_c, 0, 67, 121
2, 122903, Control_c, 0, 67, 113
2, 122919, Control_c, 0, 64, 33
2, 122919, Control_c, 0, 67, 104
2, 122934, Control_c, 0, 64, 56
2, 122934, Control_c, 0, 67, 94
2, 122949, Control_c, 0, 64, 62
2, 122949, Control_c, 0, 67, 82
2, 122965, Control_c, 0, 64, 64
2, 122965, Control_c, 0, 67, 71
2, 122974, Note_on_c, 0, 71, 69
2, 122977, Note_on_c, 0, 68, 0
2, 122980, Control_c, 0, 64, 66
2, 122980, Control_c, 0, 67, 61
2, 122996, Control_c, 0, 64, 69
2, 122996, Control_c, 0, 67, 54
2, 123003, Note_on_c, 0, 54, 0
2, 123005, Note_on_c, 0, 69, 0
2, 123011, Control_c, 0, 64, 73
2, 123011, Control_c, 0, 67, 49
2, 123025, Control_c, 0, 64, 80
2, 123025, Control_c, 0, 67, 44
2, 123041, Control_c, 0, 64, 87
2, 123041, Control_c, 0, 67, 41
2, 123056, Control_c, 0, 64, 92
2, 123056, Control_c, 0, 67, 39
2, 123070, Control_c, 0, 64, 92
2, 123070, Control_c, 0, 67, 38
2, 123086, Control_c, 0, 64, 91
2, 123086, Control_c, 0, 67, 37
2, 123101, Control_c, 0, 64, 84
2, 123101, Control_c, 0, 67, 37
2, 123117, Control_c, 0, 64, 76
2, 123117, Control_c, 0, 67, 36
2, 123132, Control_c, 0, 64, 68
2, 123136, Note_on_c, 0, 69, 63
2, 123137, Note_on_c, 0, 56, 76
2, 123146, Control_c, 0, 64, 64
2, 123146, Control_c, 0, 67, 35
2, 123162, Control_c, 0, 64, 55
2, 123162, Control_c, 0, 67, 35
2, 123177, Control_c, 0, 64, 0
2, 123177, Control_c, 0, 67, 34
2, 123180, Note_on_c, 0, 71, 0
2, 123208, Control_c, 0, 67, 34
2, 123303, Note_on_c, 0, 68, 74
2, 123343, Control_c, 0, 64, 43
2, 123359, Control_c, 0, 64, 58
2, 123368, Note_on_c, 0, 69, 0
2, 123374, Control_c, 0, 64, 63
2, 123389, Control_c, 0, 64, 64
2, 123405, Control_c, 0, 64, 65
2, 123436, Control_c, 0, 64, 64
2, 123451, Control_c, 0, 64, 61
2, 123463, Note_on_c, 0, 57, 84
2, 123466, Control_c, 0, 64, 44
2, 123469, Note_on_c, 0, 66, 73
2, 123473, Note_on_c, 0, 56, 0
2, 123481, Control_c, 0, 64, 0
2, 123500, Note_on_c, 0, 68, 0
2, 123541, Note_on_c, 0, 66, 0
2, 123548, Note_on_c, 0, 61, 0
2, 123572, Control_c, 0, 64, 41
2, 123572, Control_c, 0, 67, 34
2, 123587, Control_c, 0, 64, 55
2, 123602, Control_c, 0, 64, 58
2, 123617, Control_c, 0, 64, 60
2, 123641, Control_c, 0, 64, 61
2, 123653, Note_on_c, 0, 64, 69
2, 123656, Control_c, 0, 64, 61
2, 123732, Control_c, 0, 64, 62
2, 123763, Control_c, 0, 67, 35
2, 123778, Control_c, 0, 64, 61
2, 123778, Control_c, 0, 67, 35
2, 123794, Control_c, 0, 64, 56
2, 123809, Control_c, 0, 64, 29
2, 123823, Control_c, 0, 64, 0
2, 123825, Note_on_c, 0, 64, 0
2, 123838, Note_on_c, 0, 63, 61
2, 123839, Control_c, 0, 67, 36
2, 123843, Note_on_c, 0, 57, 0
2, 123850, Note_on_c, 0, 59, 62
2, 123885, Control_c, 0, 67, 36
2, 123915, Control_c, 0, 67, 37
2, 123961, Control_c, 0, 64, 42
2, 123976, Control_c, 0, 64, 55
2, 123990, Control_c, 0, 64, 60
2, 124006, Control_c, 0, 64, 62
2, 124021, Control_c, 0, 64, 63
2, 124037, Control_c, 0, 64, 64
2, 124052, Control_c, 0, 64, 65
2, 124066, Control_c, 0, 64, 65
2, 124069, Note_on_c, 0, 59, 0
2, 124111, Control_c, 0, 64, 65
2, 124127, Control_c, 0, 64, 64
2, 124142, Control_c, 0, 64, 63
2, 124158, Control_c, 0, 64, 52
2, 124172, Control_c, 0, 64, 0
2, 124180, Note_on_c, 0, 47, 48
2, 124181, Note_on_c, 0, 54, 52
2, 124294, Control_c, 0, 64, 43
2, 124309, Control_c, 0, 64, 59
2, 124324, Control_c, 0, 64, 64
2, 124334, Note_on_c, 0, 54, 0
2, 124339, Control_c, 0, 64, 67
2, 124341, Note_on_c, 0, 47, 0
2, 124353, Note_on_c, 0, 49, 52
2, 124355, Control_c, 0, 64, 70
2, 124359, Note_on_c, 0, 63, 0
2, 124370, Control_c, 0, 64, 77
2, 124385, Control_c, 0, 64, 84
2, 124408, Control_c, 0, 64, 90
2, 124423, Control_c, 0, 64, 91
2, 124439, Control_c, 0, 64, 90
2, 124453, Control_c, 0, 64, 85
2, 124468, Control_c, 0, 64, 75
2, 124484, Control_c, 0, 64, 67
2, 124493, Note_on_c, 0, 49, 0
2, 124499, Control_c, 0, 64, 58
2, 124509, Note_on_c, 0, 64, 64
2, 124515, Control_c, 0, 64, 0
2, 124525, Note_on_c, 0, 47, 53
2, 124525, Note_on_c, 0, 56, 46
2, 124667, Control_c, 0, 64, 26
2, 124670, Note_on_c, 0, 45, 64
2, 124682, Control_c, 0, 64, 34
2, 124692, Note_on_c, 0, 47, 0
2, 124708, Note_on_c, 0, 56, 0
2, 124713, Control_c, 0, 64, 32
2, 124728, Control_c, 0, 64, 13
2, 124743, Control_c, 0, 64, 0
2, 124826, Note_on_c, 0, 45, 0
2, 124841, Note_on_c, 0, 66, 76
2, 124847, Note_on_c, 0, 57, 55
2, 124850, Note_on_c, 0, 44, 56
2, 124904, Note_on_c, 0, 64, 0
2, 124943, Note_on_c, 0, 57, 0
2, 124956, Control_c, 0, 64, 33
2, 124971, Control_c, 0, 64, 58
2, 124973, Note_on_c, 0, 66, 0
2, 124986, Control_c, 0, 64, 64
2, 124991, Note_on_c, 0, 44, 0
2, 125001, Note_on_c, 0, 42, 62
2, 125002, Control_c, 0, 64, 66
2, 125017, Control_c, 0, 64, 69
2, 125033, Control_c, 0, 64, 71
2, 125047, Control_c, 0, 64, 74
2, 125062, Control_c, 0, 64, 75
2, 125078, Control_c, 0, 64, 74
2, 125093, Control_c, 0, 64, 73
2, 125107, Control_c, 0, 64, 70
2, 125123, Control_c, 0, 64, 66
2, 125138, Control_c, 0, 64, 62
2, 125154, Control_c, 0, 64, 20
2, 125154, Note_on_c, 0, 42, 0
2, 125176, Control_c, 0, 64, 0
2, 125191, Control_c, 0, 67, 36
2, 125193, Note_on_c, 0, 68, 79
2, 125202, Note_on_c, 0, 59, 63
2, 125204, Note_on_c, 0, 40, 52
2, 125207, Control_c, 0, 67, 36
2, 125238, Control_c, 0, 67, 35
2, 125313, Control_c, 0, 64, 55
2, 125313, Control_c, 0, 67, 35
2, 125329, Control_c, 0, 64, 64
2, 125344, Control_c, 0, 64, 67
2, 125359, Note_on_c, 0, 47, 62
2, 125360, Control_c, 0, 64, 71
2, 125375, Control_c, 0, 64, 79
2, 125376, Note_on_c, 0, 59, 0
2, 125390, Control_c, 0, 64, 88
2, 125405, Control_c, 0, 64, 91
2, 125405, Control_c, 0, 67, 34
2, 125411, Note_on_c, 0, 68, 0
2, 125420, Control_c, 0, 64, 87
2, 125431, Note_on_c, 0, 40, 0
2, 125436, Control_c, 0, 64, 78
2, 125451, Control_c, 0, 64, 68
2, 125466, Control_c, 0, 64, 63
2, 125481, Control_c, 0, 64, 46
2, 125496, Control_c, 0, 64, 0
2, 125504, Note_on_c, 0, 47, 0
2, 125521, Note_on_c, 0, 68, 83
2, 125524, Note_on_c, 0, 52, 57
2, 125527, Control_c, 0, 64, 35
2, 125533, Note_on_c, 0, 59, 71
2, 125542, Control_c, 0, 64, 58
2, 125558, Control_c, 0, 64, 63
2, 125562, Note_on_c, 0, 59, 0
2, 125573, Control_c, 0, 64, 65
2, 125587, Control_c, 0, 64, 68
2, 125603, Control_c, 0, 64, 73
2, 125617, Note_on_c, 0, 68, 0
2, 125618, Control_c, 0, 64, 82
2, 125634, Control_c, 0, 64, 106
2, 125649, Control_c, 0, 64, 127
2, 125649, Control_c, 0, 67, 34
2, 125664, Control_c, 0, 67, 33
2, 125679, Control_c, 0, 67, 33
2, 125683, Note_on_c, 0, 54, 68
2, 125684, Note_on_c, 0, 52, 0
2, 125709, Control_c, 0, 67, 32
2, 125724, Control_c, 0, 67, 32
2, 125815, Control_c, 0, 64, 81
2, 125827, Note_on_c, 0, 54, 0
2, 125830, Control_c, 0, 64, 65
2, 125830, Control_c, 0, 67, 31
2, 125842, Note_on_c, 0, 70, 87
2, 125846, Control_c, 0, 64, 0
2, 125853, Note_on_c, 0, 61, 72
2, 125858, Note_on_c, 0, 52, 65
2, 125861, Control_c, 0, 67, 31
2, 125960, Control_c, 0, 64, 44
2, 125960, Control_c, 0, 67, 30
2, 125973, Note_on_c, 0, 61, 0
2, 125975, Control_c, 0, 64, 62
2, 125990, Control_c, 0, 64, 65
2, 126006, Control_c, 0, 64, 70
2, 126020, Control_c, 0, 64, 81
2, 126027, Note_on_c, 0, 51, 70
2, 126036, Control_c, 0, 64, 127
2, 126052, Note_on_c, 0, 52, 0
2, 126143, Control_c, 0, 64, 94
2, 126159, Control_c, 0, 64, 68
2, 126169, Note_on_c, 0, 71, 79
2, 126171, Note_on_c, 0, 70, 0
2, 126173, Control_c, 0, 64, 0
2, 126178, Note_on_c, 0, 51, 0
2, 126178, Note_on_c, 0, 63, 76
2, 126190, Note_on_c, 0, 49, 66
2, 126219, Control_c, 0, 67, 30
2, 126295, Control_c, 0, 64, 61
2, 126310, Control_c, 0, 64, 66
2, 126319, Note_on_c, 0, 49, 0
2, 126322, Note_on_c, 0, 63, 0
2, 126325, Control_c, 0, 64, 70
2, 126340, Control_c, 0, 64, 77
2, 126340, Note_on_c, 0, 47, 68
2, 126356, Control_c, 0, 64, 91
2, 126371, Control_c, 0, 64, 109
2, 126385, Control_c, 0, 64, 111
2, 126385, Control_c, 0, 67, 29
2, 126401, Control_c, 0, 64, 107
2, 126416, Control_c, 0, 64, 97
2, 126431, Control_c, 0, 64, 88
2, 126447, Control_c, 0, 64, 80
2, 126458, Note_on_c, 0, 71, 0
2, 126462, Control_c, 0, 64, 72
2, 126478, Control_c, 0, 64, 64
2, 126493, Control_c, 0, 64, 48
2, 126508, Control_c, 0, 64, 0
2, 126510, Note_on_c, 0, 73, 78
2, 126518, Note_on_c, 0, 64, 64
2, 126521, Note_on_c, 0, 46, 56
2, 126550, Note_on_c, 0, 47, 0
2, 126683, Note_on_c, 0, 71, 68
2, 126703, Note_on_c, 0, 64, 0
2, 126774, Control_c, 0, 67, 30
2, 126853, Note_on_c, 0, 42, 65
2, 126865, Note_on_c, 0, 70, 63
2, 126882, Note_on_c, 0, 46, 0
2, 126996, Note_on_c, 0, 71, 0
2, 127020, Note_on_c, 0, 68, 57
2, 127023, Note_on_c, 0, 70, 0
2, 127033, Control_c, 0, 67, 30
2, 127175, Note_on_c, 0, 68, 0
2, 127185, Note_on_c, 0, 66, 65
2, 127199, Note_on_c, 0, 44, 67
2, 127214, Control_c, 0, 67, 31
2, 127242, Note_on_c, 0, 42, 0
2, 127347, Note_on_c, 0, 64, 72
2, 127351, Note_on_c, 0, 66, 0
2, 127537, Note_on_c, 0, 64, 0
2, 127538, Note_on_c, 0, 63, 75
2, 127554, Note_on_c, 0, 46, 65
2, 127557, Note_on_c, 0, 44, 0
2, 127694, Note_on_c, 0, 61, 74
2, 127734, Note_on_c, 0, 63, 0
2, 127739, Control_c, 0, 64, 35
2, 127754, Control_c, 0, 64, 47
2, 127769, Control_c, 0, 64, 53
2, 127785, Control_c, 0, 64, 55
2, 127801, Control_c, 0, 64, 56
2, 127828, Note_on_c, 0, 46, 0
2, 127831, Control_c, 0, 64, 55
2, 127847, Control_c, 0, 64, 48
2, 127861, Control_c, 0, 64, 24
2, 127877, Control_c, 0, 64, 0
2, 127877, Note_on_c, 0, 63, 69
2, 127899, Note_on_c, 0, 47, 49
2, 128020, Note_on_c, 0, 61, 0
2, 128043, Note_on_c, 0, 49, 62
2, 128075, Note_on_c, 0, 73, 0
2, 128082, Note_on_c, 0, 47, 0
2, 128129, Note_on_c, 0, 63, 0
2, 128200, Note_on_c, 0, 71, 82
2, 128211, Control_c, 0, 67, 30
2, 128215, Note_on_c, 0, 49, 0
2, 128216, Note_on_c, 0, 51, 70
2, 128263, Control_c, 0, 67, 30
2, 128355, Note_on_c, 0, 51, 0
2, 128372, Note_on_c, 0, 52, 60
2, 128492, Control_c, 0, 67, 29
2, 128533, Note_on_c, 0, 52, 0
2, 128539, Note_on_c, 0, 70, 90
2, 128550, Note_on_c, 0, 54, 62
2, 128561, Note_on_c, 0, 71, 0
2, 128568, Control_c, 0, 67, 29
2, 128676, Control_c, 0, 67, 28
2, 128697, Note_on_c, 0, 56, 63
2, 128726, Note_on_c, 0, 54, 0
2, 128781, Control_c, 0, 67, 28
2, 128847, Note_on_c, 0, 71, 80
2, 128869, Note_on_c, 0, 58, 71
2, 128870, Note_on_c, 0, 56, 0
2, 128903, Note_on_c, 0, 70, 0
2, 129025, Note_on_c, 0, 59, 60
2, 129035, Note_on_c, 0, 58, 0
2, 129185, Note_on_c, 0, 59, 0
2, 129204, Note_on_c, 0, 73, 83
2, 129212, Note_on_c, 0, 52, 60
2, 129214, Control_c, 0, 67, 27
2, 129240, Note_on_c, 0, 71, 0
2, 129370, Note_on_c, 0, 63, 64
2, 129510, Note_on_c, 0, 63, 0
2, 129544, Note_on_c, 0, 61, 63
2, 129625, Control_c, 0, 64, 41
2, 129641, Control_c, 0, 64, 52
2, 129656, Control_c, 0, 64, 58
2, 129668, Note_on_c, 0, 61, 0
2, 129670, Control_c, 0, 64, 62
2, 129686, Control_c, 0, 64, 63
2, 129701, Control_c, 0, 64, 64
2, 129704, Note_on_c, 0, 59, 66
2, 129717, Control_c, 0, 64, 64
2, 129815, Control_c, 0, 64, 64
2, 129830, Control_c, 0, 64, 63
2, 129846, Control_c, 0, 64, 56
2, 129861, Control_c, 0, 64, 35
2, 129876, Control_c, 0, 64, 0
2, 129876, Note_on_c, 0, 66, 84
2, 129884, Note_on_c, 0, 58, 63
2, 129917, Note_on_c, 0, 59, 0
2, 129953, Control_c, 0, 64, 51
2, 129967, Control_c, 0, 64, 60
2, 129982, Control_c, 0, 64, 63
2, 129998, Control_c, 0, 64, 64
2, 130012, Control_c, 0, 64, 65
2, 130012, Control_c, 0, 67, 28
2, 130019, Note_on_c, 0, 58, 0
2, 130027, Control_c, 0, 64, 65
2, 130031, Note_on_c, 0, 56, 64
2, 130082, Note_on_c, 0, 52, 0
2, 130134, Control_c, 0, 64, 65
2, 130134, Control_c, 0, 67, 28
2, 130149, Control_c, 0, 64, 64
2, 130165, Control_c, 0, 64, 64
2, 130177, Note_on_c, 0, 68, 85
2, 130180, Control_c, 0, 64, 63
2, 130180, Control_c, 0, 67, 29
2, 130194, Note_on_c, 0, 54, 63
2, 130196, Control_c, 0, 64, 61
2, 130210, Control_c, 0, 64, 56
2, 130225, Control_c, 0, 64, 47
2, 130227, Note_on_c, 0, 66, 0
2, 130234, Note_on_c, 0, 56, 0
2, 130241, Control_c, 0, 64, 39
2, 130256, Control_c, 0, 64, 37
2, 130271, Control_c, 0, 64, 36
2, 130302, Control_c, 0, 67, 29
2, 130322, Note_on_c, 0, 54, 0
2, 130333, Control_c, 0, 64, 35
2, 130333, Control_c, 0, 67, 30
2, 130348, Control_c, 0, 64, 34
2, 130348, Note_on_c, 0, 52, 60
2, 130357, Note_on_c, 0, 70, 80
2, 130364, Control_c, 0, 64, 33
2, 130379, Control_c, 0, 64, 32
2, 130394, Control_c, 0, 64, 29
2, 130439, Control_c, 0, 64, 31
2, 130446, Note_on_c, 0, 73, 0
2, 130454, Control_c, 0, 64, 32
2, 130469, Control_c, 0, 64, 33
2, 130470, Note_on_c, 0, 68, 0
2, 130492, Note_on_c, 0, 70, 0
2, 130517, Note_on_c, 0, 71, 74
2, 130520, Note_on_c, 0, 54, 67
2, 130553, Control_c, 0, 64, 32
2, 130569, Note_on_c, 0, 52, 0
2, 130570, Note_on_c, 0, 51, 31
2, 130583, Control_c, 0, 64, 31
2, 130608, Note_on_c, 0, 51, 0
2, 130614, Control_c, 0, 64, 32
2, 130675, Control_c, 0, 64, 31
2, 130681, Note_on_c, 0, 51, 63
2, 130715, Note_on_c, 0, 54, 0
2, 130797, Control_c, 0, 64, 29
2, 130811, Control_c, 0, 64, 24
2, 130826, Control_c, 0, 64, 20
2, 130842, Control_c, 0, 64, 0
2, 130856, Note_on_c, 0, 52, 65
2, 130859, Note_on_c, 0, 73, 86
2, 130863, Note_on_c, 0, 51, 0
2, 130928, Note_on_c, 0, 71, 0
2, 131021, Note_on_c, 0, 75, 92
2, 131023, Note_on_c, 0, 54, 68
2, 131057, Note_on_c, 0, 73, 0
2, 131162, Note_on_c, 0, 52, 0
2, 131177, Note_on_c, 0, 54, 0
2, 131191, Note_on_c, 0, 76, 86
2, 131193, Note_on_c, 0, 56, 68
2, 131198, Note_on_c, 0, 49, 62
2, 131231, Note_on_c, 0, 75, 0
2, 131321, Control_c, 0, 67, 30
2, 131348, Note_on_c, 0, 56, 0
2, 131353, Note_on_c, 0, 58, 69
2, 131518, Note_on_c, 0, 59, 66
2, 131522, Note_on_c, 0, 75, 93
2, 131529, Note_on_c, 0, 58, 0
2, 131533, Note_on_c, 0, 56, 66
2, 131546, Note_on_c, 0, 49, 0
2, 131553, Note_on_c, 0, 76, 0
2, 131692, Note_on_c, 0, 54, 60
2, 131706, Note_on_c, 0, 56, 0
2, 131822, Control_c, 0, 67, 30
2, 131846, Note_on_c, 0, 54, 0
2, 131859, Note_on_c, 0, 73, 92
2, 131870, Note_on_c, 0, 52, 60
2, 131909, Note_on_c, 0, 75, 0
2, 131930, Control_c, 0, 67, 29
2, 132015, Note_on_c, 0, 52, 0
2, 132023, Note_on_c, 0, 51, 64
2, 132170, Note_on_c, 0, 51, 0
2, 132197, Note_on_c, 0, 49, 69
2, 132347, Control_c, 0, 67, 29
2, 132353, Note_on_c, 0, 51, 74
2, 132374, Note_on_c, 0, 59, 0
2, 132424, Control_c, 0, 64, 17
2, 132440, Control_c, 0, 64, 22
2, 132455, Control_c, 0, 64, 28
2, 132516, Control_c, 0, 64, 0
2, 132529, Note_on_c, 0, 49, 0
2, 132530, Note_on_c, 0, 58, 77
2, 132532, Note_on_c, 0, 52, 75
2, 132556, Note_on_c, 0, 51, 0
2, 132620, Control_c, 0, 64, 22
2, 132620, Control_c, 0, 67, 28
2, 132636, Control_c, 0, 64, 40
2, 132636, Control_c, 0, 67, 28
2, 132651, Control_c, 0, 64, 47
2, 132651, Control_c, 0, 67, 27
2, 132665, Control_c, 0, 64, 50
2, 132665, Control_c, 0, 67, 26
2, 132681, Control_c, 0, 64, 52
2, 132681, Control_c, 0, 67, 25
2, 132689, Note_on_c, 0, 52, 0
2, 132690, Note_on_c, 0, 56, 78
2, 132697, Control_c, 0, 67, 23
2, 132713, Control_c, 0, 67, 18
2, 132728, Control_c, 0, 67, 11
2, 132743, Control_c, 0, 67, 0
2, 132759, Control_c, 0, 64, 51
2, 132819, Control_c, 0, 64, 51
2, 132835, Control_c, 0, 64, 49
2, 132853, Control_c, 0, 64, 47
2, 132863, Note_on_c, 0, 54, 75
2, 132868, Control_c, 0, 64, 46
2, 132872, Note_on_c, 0, 56, 0
2, 132883, Control_c, 0, 64, 44
2, 132898, Control_c, 0, 64, 41
2, 132913, Control_c, 0, 64, 38
2, 132929, Control_c, 0, 64, 36
2, 132944, Control_c, 0, 64, 33
2, 132959, Control_c, 0, 64, 32
2, 132974, Control_c, 0, 64, 29
2, 132989, Control_c, 0, 64, 24
2, 133004, Control_c, 0, 64, 0
2, 133040, Note_on_c, 0, 56, 75
2, 133044, Note_on_c, 0, 52, 73
2, 133056, Note_on_c, 0, 54, 0
2, 133058, Note_on_c, 0, 58, 0
2, 133243, Note_on_c, 0, 52, 0
2, 133249, Note_on_c, 0, 54, 72
2, 133251, Note_on_c, 0, 56, 0
2, 133258, Note_on_c, 0, 51, 80
2, 133294, Control_c, 0, 64, 33
2, 133308, Control_c, 0, 64, 49
2, 133315, Note_on_c, 0, 73, 0
2, 133323, Control_c, 0, 64, 53
2, 133339, Control_c, 0, 64, 55
2, 133354, Control_c, 0, 64, 58
2, 133370, Control_c, 0, 64, 61
2, 133384, Control_c, 0, 64, 63
2, 133399, Control_c, 0, 64, 65
2, 133415, Control_c, 0, 64, 68
2, 133429, Control_c, 0, 64, 71
2, 133444, Control_c, 0, 64, 78
2, 133460, Control_c, 0, 64, 94
2, 133475, Control_c, 0, 64, 127
2, 133552, Control_c, 0, 64, 119
2, 133568, Control_c, 0, 64, 83
2, 133573, Note_on_c, 0, 78, 91
2, 133576, Note_on_c, 0, 54, 0
2, 133583, Control_c, 0, 64, 74
2, 133584, Note_on_c, 0, 71, 69
2, 133598, Note_on_c, 0, 51, 0
2, 133621, Control_c, 0, 64, 76
2, 133636, Control_c, 0, 64, 81
2, 133652, Control_c, 0, 64, 85
2, 133667, Control_c, 0, 64, 90
2, 133682, Control_c, 0, 64, 94
2, 133697, Control_c, 0, 64, 96
2, 133712, Control_c, 0, 64, 97
2, 133728, Control_c, 0, 64, 98
2, 133731, Note_on_c, 0, 71, 0
2, 133733, Note_on_c, 0, 70, 70
2, 133742, Control_c, 0, 64, 99
2, 133757, Control_c, 0, 64, 102
2, 133773, Control_c, 0, 64, 104
2, 133788, Control_c, 0, 64, 107
2, 133803, Control_c, 0, 64, 108
2, 133837, Note_on_c, 0, 70, 0
2, 133849, Control_c, 0, 64, 106
2, 133864, Control_c, 0, 64, 94
2, 133879, Control_c, 0, 64, 81
2, 133894, Control_c, 0, 64, 71
2, 133909, Control_c, 0, 64, 64
2, 133923, Note_on_c, 0, 75, 94
2, 133924, Control_c, 0, 64, 0
2, 133927, Note_on_c, 0, 44, 71
2, 133928, Note_on_c, 0, 71, 80
2, 134031, Control_c, 0, 64, 36
2, 134047, Control_c, 0, 64, 62
2, 134062, Control_c, 0, 64, 65
2, 134076, Control_c, 0, 64, 68
2, 134077, Note_on_c, 0, 78, 0
2, 134092, Control_c, 0, 64, 73
2, 134107, Control_c, 0, 64, 82
2, 134122, Control_c, 0, 64, 91
2, 134138, Control_c, 0, 64, 95
2, 134168, Control_c, 0, 64, 96
2, 134175, Note_on_c, 0, 75, 0
2, 134195, Note_on_c, 0, 71, 0
2, 134214, Control_c, 0, 64, 93
2, 134228, Control_c, 0, 64, 82
2, 134243, Control_c, 0, 64, 70
2, 134256, Note_on_c, 0, 76, 81
2, 134259, Control_c, 0, 64, 60
2, 134263, Note_on_c, 0, 73, 72
2, 134273, Control_c, 0, 64, 0
2, 134275, Note_on_c, 0, 52, 66
2, 134298, Note_on_c, 0, 44, 0
2, 134351, Control_c, 0, 64, 33
2, 134367, Control_c, 0, 64, 59
2, 134388, Control_c, 0, 64, 64
2, 134403, Control_c, 0, 64, 67
2, 134410, Note_on_c, 0, 73, 0
2, 134419, Control_c, 0, 64, 73
2, 134424, Note_on_c, 0, 71, 76
2, 134434, Control_c, 0, 64, 86
2, 134439, Note_on_c, 0, 76, 0
2, 134450, Control_c, 0, 64, 127
2, 134556, Control_c, 0, 64, 116
2, 134572, Control_c, 0, 64, 78
2, 134586, Control_c, 0, 64, 64
2, 134601, Control_c, 0, 64, 0
2, 134612, Note_on_c, 0, 78, 88
2, 134614, Note_on_c, 0, 42, 68
2, 134617, Note_on_c, 0, 70, 75
2, 134636, Note_on_c, 0, 71, 0
2, 134658, Note_on_c, 0, 52, 0
2, 134680, Note_on_c, 0, 70, 0
2, 134693, Control_c, 0, 64, 42
2, 134709, Control_c, 0, 64, 64
2, 134725, Control_c, 0, 64, 67
2, 134740, Control_c, 0, 64, 72
2, 134755, Control_c, 0, 64, 81
2, 134771, Control_c, 0, 64, 94
2, 134779, Note_on_c, 0, 68, 68
2, 134785, Control_c, 0, 64, 119
2, 134801, Control_c, 0, 64, 127
2, 134834, Note_on_c, 0, 68, 0
2, 134945, Note_on_c, 0, 66, 72
2, 134960, Note_on_c, 0, 51, 65
2, 135009, Note_on_c, 0, 66, 0
2, 135043, Note_on_c, 0, 78, 0
2, 135089, Control_c, 0, 64, 116
2, 135102, Note_on_c, 0, 64, 71
2, 135104, Control_c, 0, 64, 112
2, 135113, Note_on_c, 0, 51, 0
2, 135116, Note_on_c, 0, 49, 68
2, 135118, Control_c, 0, 64, 111
2, 135155, Note_on_c, 0, 64, 0
2, 135204, Control_c, 0, 64, 112
2, 135219, Control_c, 0, 64, 111
2, 135234, Control_c, 0, 64, 104
2, 135250, Control_c, 0, 64, 89
2, 135265, Control_c, 0, 64, 73
2, 135281, Control_c, 0, 64, 64
2, 135292, Note_on_c, 0, 49, 0
2, 135296, Control_c, 0, 64, 0
2, 135299, Note_on_c, 0, 71, 77
2, 135305, Note_on_c, 0, 63, 69
2, 135308, Note_on_c, 0, 51, 68
2, 135381, Note_on_c, 0, 63, 0
2, 135386, Control_c, 0, 64, 47
2, 135402, Control_c, 0, 64, 63
2, 135413, Note_on_c, 0, 71, 0
2, 135417, Control_c, 0, 64, 68
2, 135431, Control_c, 0, 64, 77
2, 135447, Control_c, 0, 64, 98
2, 135462, Control_c, 0, 64, 127
2, 135614, Control_c, 0, 64, 83
2, 135629, Control_c, 0, 64, 65
2, 135636, Note_on_c, 0, 56, 62
2, 135638, Note_on_c, 0, 75, 85
2, 135642, Note_on_c, 0, 71, 69
2, 135645, Control_c, 0, 64, 0
2, 135677, Note_on_c, 0, 51, 0
2, 135736, Control_c, 0, 64, 13
2, 135751, Control_c, 0, 64, 54
2, 135766, Control_c, 0, 64, 62
2, 135781, Control_c, 0, 64, 64
2, 135794, Note_on_c, 0, 71, 0
2, 135796, Control_c, 0, 64, 67
2, 135796, Note_on_c, 0, 77, 79
2, 135809, Note_on_c, 0, 75, 0
2, 135812, Control_c, 0, 64, 70
2, 135827, Control_c, 0, 64, 76
2, 135842, Control_c, 0, 64, 88
2, 135857, Control_c, 0, 64, 104
2, 135872, Control_c, 0, 64, 127
2, 135918, Note_on_c, 0, 56, 0
2, 135956, Control_c, 0, 64, 97
2, 135972, Control_c, 0, 64, 76
2, 135983, Note_on_c, 0, 77, 0
2, 135987, Control_c, 0, 64, 64
2, 135991, Note_on_c, 0, 78, 83
2, 136002, Control_c, 0, 64, 0
2, 136005, Note_on_c, 0, 49, 78
2, 136008, Note_on_c, 0, 70, 73
2, 136109, Control_c, 0, 64, 55
2, 136125, Control_c, 0, 64, 63
2, 136140, Control_c, 0, 64, 66
2, 136152, Note_on_c, 0, 70, 0
2, 136154, Control_c, 0, 64, 69
2, 136168, Note_on_c, 0, 78, 0
2, 136170, Control_c, 0, 64, 74
2, 136185, Control_c, 0, 64, 81
2, 136200, Control_c, 0, 64, 88
2, 136215, Control_c, 0, 64, 90
2, 136261, Control_c, 0, 64, 89
2, 136275, Control_c, 0, 64, 84
2, 136291, Control_c, 0, 64, 76
2, 136306, Control_c, 0, 64, 68
2, 136321, Control_c, 0, 64, 63
2, 136326, Note_on_c, 0, 80, 90
2, 136335, Note_on_c, 0, 71, 66
2, 136336, Control_c, 0, 64, 55
2, 136351, Control_c, 0, 64, 49
2, 136362, Note_on_c, 0, 71, 0
2, 136367, Control_c, 0, 64, 56
2, 136382, Control_c, 0, 64, 62
2, 136396, Control_c, 0, 64, 64
2, 136412, Control_c, 0, 64, 66
2, 136427, Control_c, 0, 64, 68
2, 136443, Control_c, 0, 64, 72
2, 136458, Control_c, 0, 64, 75
2, 136473, Control_c, 0, 64, 76
2, 136478, Note_on_c, 0, 82, 89
2, 136485, Note_on_c, 0, 73, 83
2, 136501, Note_on_c, 0, 49, 0
2, 136503, Control_c, 0, 64, 76
2, 136528, Note_on_c, 0, 42, 0
2, 136561, Note_on_c, 0, 73, 0
2, 136610, Control_c, 0, 64, 74
2, 136625, Control_c, 0, 64, 71
2, 136641, Control_c, 0, 64, 66
2, 136650, Note_on_c, 0, 82, 0
2, 136655, Note_on_c, 0, 83, 82
2, 136656, Control_c, 0, 64, 59
2, 136664, Note_on_c, 0, 75, 71
2, 136671, Control_c, 0, 64, 0
2, 136756, Note_on_c, 0, 80, 0
2, 136782, Note_on_c, 0, 75, 0
2, 136825, Note_on_c, 0, 44, 67
2, 136827, Note_on_c, 0, 77, 81
2, 136989, Note_on_c, 0, 82, 85
2, 136994, Note_on_c, 0, 78, 87
2, 136996, Note_on_c, 0, 83, 0
2, 137006, Note_on_c, 0, 46, 62
2, 137010, Note_on_c, 0, 77, 0
2, 137013, Note_on_c, 0, 44, 0
2, 137139, Note_on_c, 0, 46, 0
2, 137151, Note_on_c, 0, 47, 58
2, 137320, Note_on_c, 0, 80, 92
2, 137322, Note_on_c, 0, 47, 0
2, 137332, Note_on_c, 0, 49, 58
2, 137356, Note_on_c, 0, 78, 0
2, 137363, Note_on_c, 0, 82, 0
2, 137494, Note_on_c, 0, 49, 0
2, 137500, Note_on_c, 0, 51, 58
2, 137634, Note_on_c, 0, 51, 0
2, 137641, Note_on_c, 0, 76, 66
2, 137656, Note_on_c, 0, 52, 50
2, 137795, Note_on_c, 0, 52, 0
2, 137809, Note_on_c, 0, 76, 0
2, 137813, Note_on_c, 0, 54, 52
2, 137815, Note_on_c, 0, 75, 67
2, 137979, Note_on_c, 0, 54, 0
2, 137984, Note_on_c, 0, 56, 54
2, 137991, Note_on_c, 0, 76, 62
2, 138006, Note_on_c, 0, 75, 0
2, 138136, Note_on_c, 0, 58, 60
2, 138138, Note_on_c, 0, 56, 0
2, 138289, Note_on_c, 0, 80, 0
2, 138300, Note_on_c, 0, 58, 0
2, 138315, Note_on_c, 0, 59, 61
2, 138476, Note_on_c, 0, 56, 60
2, 138487, Note_on_c, 0, 59, 0
2, 138631, Note_on_c, 0, 78, 86
2, 138646, Note_on_c, 0, 56, 0
2, 138652, Note_on_c, 0, 58, 61
2, 138676, Note_on_c, 0, 76, 0
2, 138800, Note_on_c, 0, 58, 0
2, 138813, Note_on_c, 0, 56, 54
2, 138975, Note_on_c, 0, 75, 69
2, 138980, Note_on_c, 0, 54, 52
2, 139006, Note_on_c, 0, 56, 0
2, 139134, Note_on_c, 0, 54, 0
2, 139134, Note_on_c, 0, 73, 69
2, 139150, Note_on_c, 0, 52, 59
2, 139206, Note_on_c, 0, 75, 0
2, 139329, Note_on_c, 0, 71, 64
2, 139335, Note_on_c, 0, 51, 60
2, 139373, Note_on_c, 0, 52, 0
2, 139378, Note_on_c, 0, 73, 0
2, 139435, Note_on_c, 0, 78, 0
2, 139481, Note_on_c, 0, 51, 0
2, 139487, Note_on_c, 0, 49, 63
2, 139661, Note_on_c, 0, 49, 0
2, 139661, Note_on_c, 0, 76, 78
2, 139669, Note_on_c, 0, 51, 64
2, 139838, Note_on_c, 0, 51, 0
2, 139849, Note_on_c, 0, 75, 86
2, 139858, Note_on_c, 0, 52, 57
2, 139880, Note_on_c, 0, 76, 0
2, 140041, Note_on_c, 0, 52, 0
2, 140067, Note_on_c, 0, 73, 89
2, 140073, Note_on_c, 0, 54, 58
2, 140095, Note_on_c, 0, 75, 0
2, 140262, Note_on_c, 0, 75, 89
2, 140286, Note_on_c, 0, 73, 0
2, 140455, Note_on_c, 0, 76, 82
2, 140468, Note_on_c, 0, 61, 61
2, 140490, Note_on_c, 0, 75, 0
2, 140550, Note_on_c, 0, 71, 0
2, 140666, Note_on_c, 0, 61, 0
2, 140671, Note_on_c, 0, 63, 65
2, 140914, Note_on_c, 0, 76, 0
2, 140930, Note_on_c, 0, 70, 86
2, 140938, Note_on_c, 0, 61, 63
2, 140967, Note_on_c, 0, 63, 0
2, 141209, Note_on_c, 0, 80, 92
2, 141214, Note_on_c, 0, 61, 0
2, 141220, Note_on_c, 0, 59, 68
2, 141523, Note_on_c, 0, 78, 93
2, 141537, Note_on_c, 0, 58, 64
2, 141557, Note_on_c, 0, 59, 0
2, 141569, Note_on_c, 0, 80, 0
2, 141876, Note_on_c, 0, 58, 0
2, 141892, Note_on_c, 0, 76, 91
2, 141897, Note_on_c, 0, 56, 61
2, 141925, Note_on_c, 0, 78, 0
2, 142195, Control_c, 0, 64, 55
2, 142210, Control_c, 0, 64, 63
2, 142214, Note_on_c, 0, 56, 0
2, 142225, Control_c, 0, 64, 66
2, 142229, Note_on_c, 0, 54, 0
2, 142241, Control_c, 0, 64, 70
2, 142255, Control_c, 0, 64, 79
2, 142270, Control_c, 0, 64, 111
2, 142286, Control_c, 0, 64, 127
2, 142293, Note_on_c, 0, 76, 0
2, 142311, Note_on_c, 0, 70, 0
2, 142573, Note_on_c, 0, 75, 101
2, 142583, Note_on_c, 0, 71, 75
2, 142587, Note_on_c, 0, 47, 62
2, 142590, Control_c, 0, 64, 101
2, 142593, Note_on_c, 0, 54, 60
2, 142605, Control_c, 0, 64, 75
2, 142620, Control_c, 0, 64, 64
2, 142636, Control_c, 0, 64, 0
2, 143482, Control_c, 0, 64, 41
2, 143497, Control_c, 0, 64, 53
2, 143513, Control_c, 0, 64, 58
2, 143527, Control_c, 0, 64, 61
2, 143542, Control_c, 0, 64, 63
2, 143558, Control_c, 0, 64, 64
2, 143572, Control_c, 0, 64, 66
2, 143588, Control_c, 0, 64, 68
2, 143610, Control_c, 0, 64, 72
2, 143625, Control_c, 0, 64, 77
2, 143641, Control_c, 0, 64, 87
2, 143656, Control_c, 0, 64, 99
2, 143672, Control_c, 0, 64, 127
2, 144730, Note_on_c, 0, 54, 0
2, 144839, Note_on_c, 0, 71, 0
2, 144886, Note_on_c, 0, 75, 0
2, 144895, Control_c, 0, 64, 107
2, 144910, Control_c, 0, 64, 99
2, 144920, Note_on_c, 0, 47, 0
2, 144925, Control_c, 0, 64, 96
2, 144940, Control_c, 0, 64, 93
2, 144956, Control_c, 0, 64, 90
2, 144970, Control_c, 0, 64, 85
2, 144987, Control_c, 0, 64, 79
2, 145002, Control_c, 0, 64, 71
2, 145017, Control_c, 0, 64, 65
2, 145033, Control_c, 0, 64, 59
2, 145048, Control_c, 0, 64, 32
2, 145062, Control_c, 0, 64, 0
2, 145063, End_track
0, 0, End_of_file
