0, 0, Header, 1, 2, 384
1, 0, Start_track
1, 0, Tempo, 500000
1, 0, Time_signature, 4, 2, 24, 8
1, 1, End_track
2,0,Start_track
2,0, Note_on_c, 0, 47, 42
2,1037, Note_on_c, 0, 51, 54
2,1267, Note_on_c, 0, 47, 0
2,2066, Note_on_c, 0, 56, 53
2,2216, Note_on_c, 0, 51, 0
2,3105, Note_on_c, 0, 52, 44
2,3238, Note_on_c, 0, 56, 0
2,4095, Note_on_c, 0, 49, 48
2,4284, Note_on_c, 0, 52, 0
2,5021, Note_on_c, 0, 58, 53
2,5348, Note_on_c, 0, 49, 0
2,5944, Note_on_c, 0, 59, 45
2,6057, Note_on_c, 0, 58, 0
2,6408, Note_on_c, 0, 58, 43
2,6501, Note_on_c, 0, 59, 0
2,6598, Note_on_c, 0, 56, 47
2,6653, Note_on_c, 0, 58, 0
2,6827, Note_on_c, 0, 54, 42
2,6916, Note_on_c, 0, 56, 0
2,7269, Note_on_c, 0, 52, 42
2,7378, Note_on_c, 0, 54, 0
2,7754, Note_on_c, 0, 54, 56
2,7763, Note_on_c, 0, 51, 39
2,7778, Note_on_c, 0, 52, 0
2,7956, Note_on_c, 0, 49, 39
2,8022, Note_on_c, 0, 51, 0
2,8212, Note_on_c, 0, 52, 43
2,8221, Note_on_c, 0, 49, 0
2,8689, Note_on_c, 0, 58, 65
2,9154, Note_on_c, 0, 51, 45
2,9189, Note_on_c, 0, 54, 0
2,9277, Note_on_c, 0, 52, 0
2,9347, Note_on_c, 0, 49, 49
2,9394, Note_on_c, 0, 51, 0
2,9589, Note_on_c, 0, 47, 46
2,9595, Note_on_c, 0, 63, 72
2,9625, Note_on_c, 0, 49, 0
2,9799, Note_on_c, 0, 58, 0
2,9814, Note_on_c, 0, 54, 53
2,9907, Note_on_c, 0, 47, 0
2,10067, Note_on_c, 0, 58, 55
2,10138, Note_on_c, 0, 54, 0
2,10466, Note_on_c, 0, 59, 64
2,10652, Note_on_c, 0, 63, 0
2,10941, Note_on_c, 0, 56, 52
2,10984, Note_on_c, 0, 58, 0
2,11132, Note_on_c, 0, 54, 65
2,11172, Note_on_c, 0, 56, 0
2,11331, Note_on_c, 0, 53, 49
2,11350, Note_on_c, 0, 54, 0
2,11353, Note_on_c, 0, 56, 76
2,11398, Note_on_c, 0, 59, 0
2,11555, Note_on_c, 0, 59, 50
2,11609, Note_on_c, 0, 53, 0
2,11830, Note_on_c, 0, 63, 61
2,11894, Note_on_c, 0, 59, 0
2,12279, Note_on_c, 0, 65, 67
2,12447, Note_on_c, 0, 56, 0
2,12726, Note_on_c, 0, 61, 49
2,12738, Note_on_c, 0, 63, 0
2,12926, Note_on_c, 0, 61, 0
2,12932, Note_on_c, 0, 59, 58
2,13167, Note_on_c, 0, 66, 67
2,13171, Note_on_c, 0, 58, 49
2,13221, Note_on_c, 0, 59, 0
2,13291, Note_on_c, 0, 65, 0
2,13596, Note_on_c, 0, 65, 58
2,13612, Note_on_c, 0, 59, 48
2,13647, Note_on_c, 0, 66, 0
2,13664, Note_on_c, 0, 58, 0
2,13794, Note_on_c, 0, 63, 69
2,13830, Note_on_c, 0, 65, 0
2,14011, Note_on_c, 0, 61, 69
2,14020, Note_on_c, 0, 58, 58
2,14084, Note_on_c, 0, 59, 0
2,14099, Note_on_c, 0, 63, 0
2,14419, Note_on_c, 0, 56, 56
2,14431, Note_on_c, 0, 59, 71
2,14496, Note_on_c, 0, 61, 0
2,14510, Note_on_c, 0, 58, 0
2,14869, Note_on_c, 0, 58, 66
2,14880, Note_on_c, 0, 54, 55
2,14915, Note_on_c, 0, 59, 0
2,14931, Note_on_c, 0, 56, 0
2,15078, Note_on_c, 0, 56, 64
2,15161, Note_on_c, 0, 58, 0
2,15274, Note_on_c, 0, 54, 0
2,15283, Note_on_c, 0, 53, 46
2,15316, Note_on_c, 0, 59, 66
2,15419, Note_on_c, 0, 56, 0
2,15517, Note_on_c, 0, 51, 57
2,15546, Note_on_c, 0, 53, 0
2,15736, Note_on_c, 0, 49, 55
2,15771, Note_on_c, 0, 51, 0
2,15971, Note_on_c, 0, 51, 56
2,16048, Note_on_c, 0, 49, 0
2,16194, Note_on_c, 0, 52, 48
2,16210, Note_on_c, 0, 58, 57
2,16215, Note_on_c, 0, 51, 0
2,16405, Note_on_c, 0, 59, 0
2,16420, Note_on_c, 0, 56, 69
2,16553, Note_on_c, 0, 58, 0
2,16653, Note_on_c, 0, 59, 69
2,16686, Note_on_c, 0, 54, 42
2,16727, Note_on_c, 0, 56, 0
2,16907, Note_on_c, 0, 56, 40
2,16962, Note_on_c, 0, 54, 0
2,17124, Note_on_c, 0, 51, 47
2,17154, Note_on_c, 0, 57, 54
2,17178, Note_on_c, 0, 56, 0
2,17255, Note_on_c, 0, 52, 0
2,17342, Note_on_c, 0, 49, 46
2,17392, Note_on_c, 0, 51, 0
2,17617, Note_on_c, 0, 63, 73
2,17619, Note_on_c, 0, 47, 37
2,17681, Note_on_c, 0, 49, 0
2,17716, Note_on_c, 0, 59, 0
2,18099, Note_on_c, 0, 56, 45
2,18296, Note_on_c, 0, 56, 0
2,18312, Note_on_c, 0, 54, 51
2,18554, Note_on_c, 0, 52, 40
2,18558, Note_on_c, 0, 68, 75
2,18586, Note_on_c, 0, 57, 0
2,18597, Note_on_c, 0, 54, 0
2,18675, Note_on_c, 0, 63, 0
2,18793, Note_on_c, 0, 59, 46
2,19033, Note_on_c, 0, 63, 47
2,19081, Control_c, 0, 64, 8
2,19096, Control_c, 0, 64, 10
2,19112, Control_c, 0, 64, 12
2,19209, Note_on_c, 0, 52, 0
2,19256, Control_c, 0, 64, 14
2,19269, Note_on_c, 0, 47, 0
2,19273, Note_on_c, 0, 48, 39
2,19461, Note_on_c, 0, 64, 73
2,19466, Note_on_c, 0, 49, 52
2,19489, Note_on_c, 0, 48, 0
2,19501, Note_on_c, 0, 59, 0
2,19687, Note_on_c, 0, 51, 49
2,19773, Note_on_c, 0, 49, 0
2,19902, Note_on_c, 0, 61, 49
2,19910, Note_on_c, 0, 52, 43
2,20046, Note_on_c, 0, 52, 0
2,20135, Note_on_c, 0, 59, 66
2,20137, Note_on_c, 0, 51, 0
2,20141, Note_on_c, 0, 49, 48
2,20175, Control_c, 0, 64, 15
2,20178, Note_on_c, 0, 61, 0
2,20191, Control_c, 0, 64, 18
2,20206, Control_c, 0, 64, 26
2,20221, Control_c, 0, 64, 30
2,20237, Control_c, 0, 64, 33
2,20251, Control_c, 0, 64, 35
2,20267, Control_c, 0, 64, 36
2,20282, Control_c, 0, 64, 37
2,20283, Note_on_c, 0, 63, 0
2,20297, Control_c, 0, 64, 37
2,20361, Note_on_c, 0, 54, 53
2,20364, Note_on_c, 0, 58, 34
2,20405, Note_on_c, 0, 61, 82
2,20457, Note_on_c, 0, 49, 0
2,20467, Note_on_c, 0, 64, 0
2,20486, Note_on_c, 0, 68, 0
2,20557, Control_c, 0, 64, 36
2,20572, Control_c, 0, 64, 33
2,20588, Control_c, 0, 64, 32
2,20603, Control_c, 0, 64, 31
2,20617, Control_c, 0, 64, 29
2,20633, Control_c, 0, 64, 27
2,20648, Control_c, 0, 64, 25
2,20656, Note_on_c, 0, 64, 56
2,20663, Control_c, 0, 64, 21
2,20671, Note_on_c, 0, 59, 0
2,20679, Control_c, 0, 64, 18
2,20700, Control_c, 0, 64, 16
2,20716, Control_c, 0, 64, 15
2,20731, Control_c, 0, 64, 12
2,20747, Control_c, 0, 64, 10
2,20762, Control_c, 0, 64, 8
2,20777, Control_c, 0, 64, 0
2,20878, Note_on_c, 0, 68, 65
2,21075, Note_on_c, 0, 52, 61
2,21321, Note_on_c, 0, 70, 81
2,21324, Note_on_c, 0, 51, 52
2,21375, Note_on_c, 0, 64, 0
2,21534, Note_on_c, 0, 61, 0
2,21546, Note_on_c, 0, 49, 51
2,21569, Note_on_c, 0, 52, 0
2,21608, Note_on_c, 0, 51, 0
2,21648, Note_on_c, 0, 54, 0
2,21769, Note_on_c, 0, 51, 62
2,21781, Note_on_c, 0, 66, 57
2,21815, Note_on_c, 0, 49, 0
2,21911, Control_c, 0, 64, 8
2,21926, Control_c, 0, 64, 35
2,21940, Control_c, 0, 64, 46
2,21956, Control_c, 0, 64, 52
2,21972, Control_c, 0, 64, 57
2,21978, Note_on_c, 0, 64, 65
2,21988, Control_c, 0, 64, 61
2,22003, Control_c, 0, 64, 65
2,22017, Control_c, 0, 64, 67
2,22033, Control_c, 0, 64, 70
2,22048, Control_c, 0, 64, 72
2,22063, Control_c, 0, 64, 75
2,22072, Note_on_c, 0, 58, 0
2,22079, Control_c, 0, 64, 77
2,22093, Control_c, 0, 64, 78
2,22124, Control_c, 0, 64, 78
2,22126, Note_on_c, 0, 70, 0
2,22139, Control_c, 0, 64, 77
2,22155, Control_c, 0, 64, 75
2,22169, Control_c, 0, 64, 73
2,22184, Control_c, 0, 64, 70
2,22200, Control_c, 0, 64, 67
2,22222, Control_c, 0, 64, 65
2,22227, Note_on_c, 0, 71, 79
2,22238, Control_c, 0, 64, 62
2,22246, Note_on_c, 0, 56, 56
2,22248, Note_on_c, 0, 63, 53
2,22253, Control_c, 0, 64, 58
2,22258, Note_on_c, 0, 66, 0
2,22269, Control_c, 0, 64, 53
2,22284, Control_c, 0, 64, 48
2,22295, Note_on_c, 0, 68, 0
2,22298, Control_c, 0, 64, 42
2,22309, Note_on_c, 0, 64, 0
2,22311, Note_on_c, 0, 51, 0
2,22314, Control_c, 0, 64, 36
2,22329, Control_c, 0, 64, 26
2,22344, Control_c, 0, 64, 0
2,22651, Note_on_c, 0, 63, 0
2,22663, Note_on_c, 0, 44, 56
2,22672, Note_on_c, 0, 70, 66
2,22693, Note_on_c, 0, 64, 57
2,22740, Note_on_c, 0, 56, 0
2,22871, Note_on_c, 0, 68, 78
2,22962, Note_on_c, 0, 71, 0
2,22963, Note_on_c, 0, 64, 0
2,23103, Note_on_c, 0, 70, 0
2,23109, Note_on_c, 0, 63, 63
2,23112, Note_on_c, 0, 66, 76
2,23172, Control_c, 0, 64, 16
2,23172, Note_on_c, 0, 68, 0
2,23188, Control_c, 0, 64, 36
2,23203, Control_c, 0, 64, 48
2,23217, Control_c, 0, 64, 55
2,23233, Control_c, 0, 64, 60
2,23248, Control_c, 0, 64, 64
2,23263, Control_c, 0, 64, 67
2,23278, Control_c, 0, 64, 70
2,23293, Control_c, 0, 64, 73
2,23309, Control_c, 0, 64, 77
2,23324, Control_c, 0, 64, 82
2,23339, Control_c, 0, 64, 87
2,23355, Control_c, 0, 64, 91
2,23368, Note_on_c, 0, 66, 0
2,23370, Control_c, 0, 64, 96
2,23386, Control_c, 0, 64, 101
2,23400, Control_c, 0, 64, 108
2,23415, Control_c, 0, 64, 115
2,23430, Note_on_c, 0, 63, 0
2,23431, Control_c, 0, 64, 121
2,23476, Control_c, 0, 64, 117
2,23491, Control_c, 0, 64, 113
2,23507, Control_c, 0, 64, 111
2,23522, Control_c, 0, 64, 110
2,23537, Control_c, 0, 64, 106
2,23552, Control_c, 0, 64, 96
2,23552, Note_on_c, 0, 64, 76
2,23557, Note_on_c, 0, 46, 58
2,23566, Note_on_c, 0, 61, 57
2,23567, Control_c, 0, 64, 81
2,23582, Control_c, 0, 64, 68
2,23598, Control_c, 0, 64, 54
2,23614, Control_c, 0, 64, 0
2,23677, Note_on_c, 0, 44, 0
2,23704, Control_c, 0, 64, 18
2,23720, Control_c, 0, 64, 45
2,23735, Control_c, 0, 64, 54
2,23758, Control_c, 0, 64, 59
2,23773, Control_c, 0, 64, 63
2,23789, Control_c, 0, 64, 67
2,23804, Control_c, 0, 64, 71
2,23819, Control_c, 0, 64, 76
2,23835, Control_c, 0, 64, 84
2,23850, Control_c, 0, 64, 92
2,23864, Control_c, 0, 64, 99
2,23880, Control_c, 0, 64, 108
2,23895, Control_c, 0, 64, 119
2,23910, Control_c, 0, 64, 127
2,23952, Note_on_c, 0, 46, 0
2,23986, Control_c, 0, 64, 119
2,24001, Control_c, 0, 64, 113
2,24016, Control_c, 0, 64, 105
2,24032, Control_c, 0, 64, 97
2,24037, Note_on_c, 0, 66, 79
2,24038, Note_on_c, 0, 47, 57
2,24042, Note_on_c, 0, 59, 59
2,24047, Control_c, 0, 64, 90
2,24050, Note_on_c, 0, 61, 0
2,24052, Note_on_c, 0, 63, 52
2,24061, Control_c, 0, 64, 83
2,24077, Control_c, 0, 64, 77
2,24092, Control_c, 0, 64, 71
2,24108, Control_c, 0, 64, 63
2,24122, Control_c, 0, 64, 52
2,24137, Control_c, 0, 64, 30
2,24153, Control_c, 0, 64, 0
2,24168, Note_on_c, 0, 64, 0
2,24287, Note_on_c, 0, 61, 52
2,24474, Note_on_c, 0, 47, 0
2,24540, Note_on_c, 0, 64, 64
2,24550, Note_on_c, 0, 58, 58
2,24565, Note_on_c, 0, 63, 0
2,24611, Note_on_c, 0, 59, 0
2,24717, Note_on_c, 0, 61, 0
2,24728, Note_on_c, 0, 56, 60
2,24770, Note_on_c, 0, 58, 0
2,24954, Note_on_c, 0, 54, 61
2,24962, Note_on_c, 0, 70, 82
2,25032, Note_on_c, 0, 56, 0
2,25092, Note_on_c, 0, 66, 0
2,25455, Note_on_c, 0, 63, 55
2,25653, Note_on_c, 0, 61, 67
2,25726, Note_on_c, 0, 63, 0
2,25881, Note_on_c, 0, 59, 55
2,25907, Note_on_c, 0, 75, 83
2,25964, Note_on_c, 0, 64, 0
2,26002, Note_on_c, 0, 70, 0
2,26030, Note_on_c, 0, 61, 0
2,26121, Note_on_c, 0, 66, 52
2,26338, Note_on_c, 0, 70, 70
2,26517, Note_on_c, 0, 55, 64
2,26616, Note_on_c, 0, 54, 0
2,26639, Note_on_c, 0, 59, 0
2,26746, Note_on_c, 0, 71, 81
2,26755, Note_on_c, 0, 56, 68
2,26784, Note_on_c, 0, 55, 0
2,26840, Note_on_c, 0, 66, 0
2,26980, Note_on_c, 0, 58, 60
2,27023, Note_on_c, 0, 56, 0
2,27173, Note_on_c, 0, 59, 72
2,27189, Note_on_c, 0, 58, 0
2,27198, Note_on_c, 0, 68, 67
2,27261, Note_on_c, 0, 70, 0
2,27348, Control_c, 0, 64, 19
2,27355, Note_on_c, 0, 59, 0
2,27361, Note_on_c, 0, 56, 68
2,27363, Control_c, 0, 64, 36
2,27371, Note_on_c, 0, 66, 77
2,27378, Control_c, 0, 64, 44
2,27391, Note_on_c, 0, 68, 0
2,27394, Control_c, 0, 64, 50
2,27408, Control_c, 0, 64, 56
2,27423, Control_c, 0, 64, 61
2,27439, Control_c, 0, 64, 63
2,27454, Control_c, 0, 64, 66
2,27470, Control_c, 0, 64, 67
2,27485, Control_c, 0, 64, 70
2,27499, Control_c, 0, 64, 73
2,27515, Control_c, 0, 64, 77
2,27530, Control_c, 0, 64, 81
2,27544, Control_c, 0, 64, 84
2,27560, Control_c, 0, 64, 84
2,27564, Note_on_c, 0, 66, 0
2,27608, Note_on_c, 0, 61, 58
2,27631, Note_on_c, 0, 65, 52
2,27644, Control_c, 0, 64, 83
2,27650, Note_on_c, 0, 68, 89
2,27659, Control_c, 0, 64, 82
2,27675, Control_c, 0, 64, 81
2,27688, Note_on_c, 0, 71, 0
2,27690, Control_c, 0, 64, 79
2,27706, Control_c, 0, 64, 77
2,27721, Control_c, 0, 64, 73
2,27735, Control_c, 0, 64, 70
2,27735, Note_on_c, 0, 56, 0
2,27751, Control_c, 0, 64, 67
2,27766, Control_c, 0, 64, 64
2,27781, Control_c, 0, 64, 60
2,27788, Note_on_c, 0, 75, 0
2,27797, Control_c, 0, 64, 55
2,27811, Control_c, 0, 64, 53
2,27827, Control_c, 0, 64, 51
2,27842, Control_c, 0, 64, 49
2,27856, Control_c, 0, 64, 48
2,27872, Control_c, 0, 64, 45
2,27878, Note_on_c, 0, 71, 66
2,27887, Control_c, 0, 64, 44
2,27902, Control_c, 0, 64, 42
2,27918, Control_c, 0, 64, 41
2,27932, Control_c, 0, 64, 40
2,27948, Control_c, 0, 64, 40
2,28096, Note_on_c, 0, 75, 80
2,28285, Note_on_c, 0, 59, 73
2,28520, Note_on_c, 0, 58, 66
2,28527, Note_on_c, 0, 77, 88
2,28557, Note_on_c, 0, 71, 0
2,28597, Note_on_c, 0, 68, 0
2,28602, Note_on_c, 0, 59, 0
2,28686, Control_c, 0, 64, 36
2,28700, Control_c, 0, 64, 22
2,28716, Control_c, 0, 64, 0
2,28723, Note_on_c, 0, 56, 67
2,28755, Note_on_c, 0, 58, 0
2,28940, Note_on_c, 0, 58, 72
2,28957, Note_on_c, 0, 73, 75
2,28987, Note_on_c, 0, 56, 0
2,29028, Note_on_c, 0, 61, 0
2,29032, Note_on_c, 0, 65, 0
2,29081, Control_c, 0, 64, 39
2,29096, Control_c, 0, 64, 49
2,29111, Control_c, 0, 64, 56
2,29126, Control_c, 0, 64, 61
2,29149, Control_c, 0, 64, 64
2,29162, Note_on_c, 0, 71, 86
2,29164, Control_c, 0, 64, 66
2,29179, Control_c, 0, 64, 70
2,29194, Control_c, 0, 64, 73
2,29197, Note_on_c, 0, 75, 0
2,29209, Control_c, 0, 64, 77
2,29212, Note_on_c, 0, 73, 0
2,29224, Control_c, 0, 64, 82
2,29240, Control_c, 0, 64, 88
2,29246, Note_on_c, 0, 71, 0
2,29255, Control_c, 0, 64, 100
2,29271, Control_c, 0, 64, 127
2,29423, Control_c, 0, 64, 123
2,29439, Control_c, 0, 64, 101
2,29443, Note_on_c, 0, 78, 87
2,29449, Note_on_c, 0, 63, 57
2,29449, Note_on_c, 0, 70, 63
2,29454, Control_c, 0, 64, 90
2,29469, Control_c, 0, 64, 81
2,29484, Control_c, 0, 64, 74
2,29499, Control_c, 0, 64, 67
2,29510, Note_on_c, 0, 77, 0
2,29515, Control_c, 0, 64, 61
2,29530, Control_c, 0, 64, 54
2,29531, Note_on_c, 0, 58, 0
2,29544, Control_c, 0, 64, 51
2,29560, Control_c, 0, 64, 49
2,29575, Control_c, 0, 64, 47
2,29591, Control_c, 0, 64, 45
2,29606, Control_c, 0, 64, 44
2,29620, Control_c, 0, 64, 43
2,29636, Control_c, 0, 64, 42
2,29651, Control_c, 0, 64, 41
2,29666, Control_c, 0, 64, 40
2,29681, Control_c, 0, 64, 40
2,29848, Note_on_c, 0, 70, 0
2,29879, Note_on_c, 0, 51, 61
2,29889, Note_on_c, 0, 71, 61
2,29902, Note_on_c, 0, 77, 76
2,29917, Control_c, 0, 64, 40
2,29957, Note_on_c, 0, 78, 0
2,29959, Note_on_c, 0, 63, 0
2,30096, Note_on_c, 0, 75, 80
2,30268, Control_c, 0, 64, 39
2,30282, Control_c, 0, 64, 36
2,30297, Control_c, 0, 64, 34
2,30313, Control_c, 0, 64, 32
2,30328, Control_c, 0, 64, 30
2,30342, Note_on_c, 0, 73, 74
2,30343, Control_c, 0, 64, 28
2,30350, Note_on_c, 0, 70, 63
2,30359, Control_c, 0, 64, 27
2,30374, Control_c, 0, 64, 26
2,30378, Note_on_c, 0, 77, 0
2,30426, Note_on_c, 0, 71, 0
2,30450, Control_c, 0, 64, 29
2,30464, Control_c, 0, 64, 40
2,30467, Note_on_c, 0, 75, 0
2,30480, Control_c, 0, 64, 48
2,30495, Control_c, 0, 64, 53
2,30511, Control_c, 0, 64, 57
2,30525, Control_c, 0, 64, 59
2,30540, Control_c, 0, 64, 62
2,30556, Control_c, 0, 64, 64
2,30571, Control_c, 0, 64, 66
2,30587, Control_c, 0, 64, 67
2,30601, Control_c, 0, 64, 69
2,30616, Control_c, 0, 64, 71
2,30632, Control_c, 0, 64, 73
2,30647, Control_c, 0, 64, 75
2,30670, Control_c, 0, 64, 78
2,30678, Note_on_c, 0, 73, 0
2,30685, Control_c, 0, 64, 79
2,30761, Control_c, 0, 64, 79
2,30776, Control_c, 0, 64, 78
2,30792, Control_c, 0, 64, 77
2,30805, Note_on_c, 0, 53, 50
2,30806, Control_c, 0, 64, 75
2,30808, Note_on_c, 0, 68, 56
2,30813, Note_on_c, 0, 70, 0
2,30814, Note_on_c, 0, 71, 71
2,30821, Control_c, 0, 64, 74
2,30837, Control_c, 0, 64, 73
2,30851, Control_c, 0, 64, 70
2,30867, Control_c, 0, 64, 67
2,30872, Note_on_c, 0, 51, 0
2,30882, Control_c, 0, 64, 64
2,30897, Control_c, 0, 64, 57
2,30913, Control_c, 0, 64, 52
2,30927, Control_c, 0, 64, 49
2,30942, Control_c, 0, 64, 46
2,30958, Control_c, 0, 64, 45
2,30974, Control_c, 0, 64, 44
2,30990, Control_c, 0, 64, 43
2,31005, Control_c, 0, 64, 42
2,31020, Control_c, 0, 64, 40
2,31035, Control_c, 0, 64, 40
2,31050, Control_c, 0, 64, 38
2,31066, Control_c, 0, 64, 37
2,31081, Control_c, 0, 64, 36
2,31096, Control_c, 0, 64, 35
2,31111, Control_c, 0, 64, 35
2,31126, Control_c, 0, 64, 34
2,31157, Control_c, 0, 64, 34
2,31188, Control_c, 0, 64, 33
2,31243, Note_on_c, 0, 70, 54
2,31252, Note_on_c, 0, 66, 44
2,31254, Note_on_c, 0, 54, 45
2,31256, Note_on_c, 0, 68, 0
2,31257, Note_on_c, 0, 71, 0
2,31263, Control_c, 0, 64, 33
2,31288, Note_on_c, 0, 53, 0
2,31294, Control_c, 0, 64, 32
2,31309, Control_c, 0, 64, 32
2,31324, Control_c, 0, 64, 31
2,31355, Control_c, 0, 64, 31
2,31384, Control_c, 0, 64, 30
2,31415, Control_c, 0, 64, 30
2,31472, Note_on_c, 0, 68, 47
2,31673, Note_on_c, 0, 68, 0
2,31677, Note_on_c, 0, 71, 49
2,31684, Note_on_c, 0, 66, 0
2,31693, Note_on_c, 0, 56, 43
2,31695, Note_on_c, 0, 65, 40
2,31715, Note_on_c, 0, 70, 0
2,31729, Note_on_c, 0, 54, 0
2,31916, Note_on_c, 0, 65, 0
2,31919, Note_on_c, 0, 63, 44
2,32092, Control_c, 0, 64, 29
2,32144, Note_on_c, 0, 61, 46
2,32160, Note_on_c, 0, 58, 42
2,32168, Control_c, 0, 64, 29
2,32213, Note_on_c, 0, 56, 0
2,32220, Control_c, 0, 64, 28
2,32233, Note_on_c, 0, 63, 0
2,32282, Control_c, 0, 64, 28
2,32374, Note_on_c, 0, 63, 44
2,32453, Note_on_c, 0, 61, 0
2,32610, Note_on_c, 0, 54, 54
2,32617, Control_c, 0, 64, 29
2,32633, Control_c, 0, 64, 34
2,32640, Note_on_c, 0, 70, 53
2,32643, Note_on_c, 0, 63, 0
2,32646, Note_on_c, 0, 64, 34
2,32647, Control_c, 0, 64, 39
2,32662, Control_c, 0, 64, 46
2,32675, Note_on_c, 0, 58, 0
2,32678, Control_c, 0, 64, 52
2,32693, Control_c, 0, 64, 56
2,32709, Control_c, 0, 64, 61
2,32723, Control_c, 0, 64, 64
2,32738, Control_c, 0, 64, 67
2,32754, Control_c, 0, 64, 71
2,32768, Control_c, 0, 64, 77
2,32783, Control_c, 0, 64, 85
2,32799, Control_c, 0, 64, 98
2,32814, Control_c, 0, 64, 118
2,32830, Control_c, 0, 64, 127
2,32884, Note_on_c, 0, 68, 57
2,32930, Note_on_c, 0, 54, 0
2,33178, Note_on_c, 0, 47, 74
2,33195, Note_on_c, 0, 59, 51
2,33198, Note_on_c, 0, 66, 48
2,33248, Control_c, 0, 64, 108
2,33252, Note_on_c, 0, 68, 0
2,33262, Control_c, 0, 64, 89
2,33278, Control_c, 0, 64, 74
2,33293, Control_c, 0, 64, 65
2,33309, Control_c, 0, 64, 55
2,33324, Control_c, 0, 64, 49
2,33383, Control_c, 0, 64, 47
2,33399, Control_c, 0, 64, 46
2,33414, Control_c, 0, 64, 45
2,33431, Control_c, 0, 64, 44
2,33446, Control_c, 0, 64, 43
2,33461, Control_c, 0, 64, 42
2,33477, Control_c, 0, 64, 41
2,33491, Control_c, 0, 64, 41
2,33491, Note_on_c, 0, 71, 0
2,33508, Note_on_c, 0, 68, 48
2,33522, Control_c, 0, 64, 40
2,33533, Note_on_c, 0, 66, 0
2,33588, Note_on_c, 0, 64, 0
2,33591, Note_on_c, 0, 70, 0
2,33747, Note_on_c, 0, 69, 44
2,33767, Note_on_c, 0, 54, 47
2,33768, Note_on_c, 0, 63, 42
2,33788, Control_c, 0, 64, 41
2,33803, Control_c, 0, 64, 42
2,33822, Control_c, 0, 64, 43
2,33824, Note_on_c, 0, 68, 0
2,33837, Control_c, 0, 64, 45
2,33853, Control_c, 0, 64, 46
2,33868, Control_c, 0, 64, 49
2,33883, Control_c, 0, 64, 51
2,33899, Control_c, 0, 64, 53
2,33913, Control_c, 0, 64, 56
2,33928, Control_c, 0, 64, 59
2,33944, Control_c, 0, 64, 61
2,33959, Control_c, 0, 64, 63
2,33959, Note_on_c, 0, 59, 0
2,33975, Control_c, 0, 64, 65
2,33982, Note_on_c, 0, 52, 48
2,33989, Control_c, 0, 64, 67
2,34004, Control_c, 0, 64, 69
2,34005, Note_on_c, 0, 61, 38
2,34020, Control_c, 0, 64, 72
2,34035, Control_c, 0, 64, 76
2,34050, Control_c, 0, 64, 80
2,34066, Control_c, 0, 64, 83
2,34075, Note_on_c, 0, 63, 0
2,34081, Control_c, 0, 64, 85
2,34097, Control_c, 0, 64, 85
2,34126, Control_c, 0, 64, 85
2,34129, Note_on_c, 0, 61, 0
2,34142, Control_c, 0, 64, 84
2,34152, Note_on_c, 0, 54, 0
2,34156, Control_c, 0, 64, 84
2,34171, Control_c, 0, 64, 83
2,34187, Control_c, 0, 64, 82
2,34202, Control_c, 0, 64, 81
2,34213, Note_on_c, 0, 51, 73
2,34218, Control_c, 0, 64, 79
2,34222, Note_on_c, 0, 69, 0
2,34232, Control_c, 0, 64, 76
2,34245, Note_on_c, 0, 59, 59
2,34247, Control_c, 0, 64, 73
2,34259, Note_on_c, 0, 52, 0
2,34264, Control_c, 0, 64, 69
2,34279, Control_c, 0, 64, 65
2,34295, Control_c, 0, 64, 61
2,34310, Control_c, 0, 64, 56
2,34325, Control_c, 0, 64, 52
2,34340, Control_c, 0, 64, 48
2,34355, Control_c, 0, 64, 45
2,34370, Control_c, 0, 64, 40
2,34386, Control_c, 0, 64, 35
2,34401, Control_c, 0, 64, 28
2,34408, Note_on_c, 0, 59, 0
2,34416, Control_c, 0, 64, 14
2,34431, Control_c, 0, 64, 0
2,34466, Note_on_c, 0, 61, 48
2,34663, Note_on_c, 0, 61, 0
2,34687, Note_on_c, 0, 59, 50
2,34705, Note_on_c, 0, 68, 42
2,34934, Note_on_c, 0, 66, 58
2,35062, Control_c, 0, 64, 15
2,35078, Control_c, 0, 64, 30
2,35093, Control_c, 0, 64, 38
2,35108, Control_c, 0, 64, 41
2,35123, Control_c, 0, 64, 42
2,35139, Control_c, 0, 64, 43
2,35165, Note_on_c, 0, 56, 74
2,35187, Note_on_c, 0, 68, 0
2,35193, Note_on_c, 0, 66, 0
2,35213, Note_on_c, 0, 64, 44
2,35298, Control_c, 0, 64, 42
2,35313, Control_c, 0, 64, 42
2,35328, Control_c, 0, 64, 41
2,35344, Control_c, 0, 64, 40
2,35375, Control_c, 0, 64, 40
2,35421, Note_on_c, 0, 71, 56
2,35451, Note_on_c, 0, 47, 0
2,35492, Note_on_c, 0, 51, 0
2,35538, Control_c, 0, 64, 42
2,35554, Control_c, 0, 64, 43
2,35569, Control_c, 0, 64, 44
2,35599, Control_c, 0, 64, 44
2,35661, Note_on_c, 0, 75, 63
2,35707, Note_on_c, 0, 64, 0
2,35862, Note_on_c, 0, 66, 48
2,35868, Note_on_c, 0, 58, 61
2,35928, Note_on_c, 0, 71, 0
2,35950, Control_c, 0, 64, 44
2,36026, Control_c, 0, 64, 43
2,36103, Note_on_c, 0, 52, 75
2,36119, Note_on_c, 0, 68, 65
2,36137, Control_c, 0, 64, 43
2,36142, Note_on_c, 0, 58, 0
2,36153, Control_c, 0, 64, 42
2,36154, Note_on_c, 0, 56, 0
2,36183, Control_c, 0, 64, 42
2,36199, Control_c, 0, 64, 41
2,36213, Control_c, 0, 64, 40
2,36229, Control_c, 0, 64, 39
2,36244, Control_c, 0, 64, 38
2,36259, Control_c, 0, 64, 36
2,36275, Control_c, 0, 64, 34
2,36281, Note_on_c, 0, 66, 0
2,36289, Control_c, 0, 64, 32
2,36304, Control_c, 0, 64, 28
2,36320, Control_c, 0, 64, 24
2,36321, Note_on_c, 0, 56, 66
2,36335, Control_c, 0, 64, 16
2,36351, Control_c, 0, 64, 0
2,36370, Note_on_c, 0, 59, 0
2,36520, Note_on_c, 0, 73, 73
2,36534, Note_on_c, 0, 58, 78
2,36580, Note_on_c, 0, 56, 0
2,36699, Control_c, 0, 64, 29
2,36715, Control_c, 0, 64, 50
2,36722, Note_on_c, 0, 59, 82
2,36730, Control_c, 0, 64, 59
2,36733, Note_on_c, 0, 71, 77
2,36740, Note_on_c, 0, 58, 0
2,36745, Control_c, 0, 64, 64
2,36761, Control_c, 0, 64, 69
2,36776, Control_c, 0, 64, 76
2,36784, Note_on_c, 0, 68, 0
2,36785, Note_on_c, 0, 59, 0
2,36792, Control_c, 0, 64, 88
2,36807, Control_c, 0, 64, 109
2,36830, Control_c, 0, 64, 127
2,36883, Note_on_c, 0, 75, 0
2,36931, Note_on_c, 0, 52, 0
2,36943, Note_on_c, 0, 71, 0
2,36950, Note_on_c, 0, 73, 0
2,36966, Note_on_c, 0, 49, 76
2,36975, Note_on_c, 0, 70, 77
2,37011, Control_c, 0, 64, 104
2,37020, Note_on_c, 0, 61, 40
2,37027, Control_c, 0, 64, 92
2,37042, Control_c, 0, 64, 82
2,37057, Control_c, 0, 64, 74
2,37073, Control_c, 0, 64, 67
2,37088, Control_c, 0, 64, 61
2,37103, Control_c, 0, 64, 51
2,37119, Control_c, 0, 64, 41
2,37133, Control_c, 0, 64, 17
2,37149, Control_c, 0, 64, 0
2,37180, Note_on_c, 0, 76, 76
2,37400, Note_on_c, 0, 80, 81
2,37468, Control_c, 0, 64, 31
2,37483, Control_c, 0, 64, 49
2,37496, Note_on_c, 0, 70, 0
2,37497, Control_c, 0, 64, 57
2,37513, Control_c, 0, 64, 63
2,37529, Control_c, 0, 64, 66
2,37544, Control_c, 0, 64, 69
2,37559, Control_c, 0, 64, 72
2,37574, Control_c, 0, 64, 75
2,37594, Note_on_c, 0, 76, 0
2,37598, Control_c, 0, 64, 77
2,37605, Note_on_c, 0, 71, 75
2,37620, Note_on_c, 0, 49, 0
2,37643, Control_c, 0, 64, 77
2,37674, Control_c, 0, 64, 76
2,37719, Control_c, 0, 64, 76
2,37764, Control_c, 0, 64, 75
2,37779, Control_c, 0, 64, 74
2,37795, Control_c, 0, 64, 73
2,37810, Control_c, 0, 64, 72
2,37825, Control_c, 0, 64, 71
2,37840, Control_c, 0, 64, 70
2,37843, Note_on_c, 0, 73, 73
2,37847, Note_on_c, 0, 58, 65
2,37855, Control_c, 0, 64, 68
2,37871, Control_c, 0, 64, 67
2,37886, Control_c, 0, 64, 65
2,37901, Control_c, 0, 64, 64
2,37914, Note_on_c, 0, 61, 0
2,37917, Control_c, 0, 64, 63
2,37932, Control_c, 0, 64, 62
2,37948, Control_c, 0, 64, 61
2,37963, Control_c, 0, 64, 60
2,37977, Control_c, 0, 64, 58
2,37993, Control_c, 0, 64, 56
2,38006, Note_on_c, 0, 71, 0
2,38008, Control_c, 0, 64, 54
2,38023, Control_c, 0, 64, 50
2,38039, Control_c, 0, 64, 46
2,38039, Note_on_c, 0, 61, 67
2,38053, Control_c, 0, 64, 40
2,38069, Control_c, 0, 64, 33
2,38084, Control_c, 0, 64, 22
2,38098, Control_c, 0, 64, 0
2,38275, Note_on_c, 0, 66, 55
2,38293, Note_on_c, 0, 78, 67
2,38351, Control_c, 0, 64, 42
2,38366, Control_c, 0, 64, 54
2,38381, Control_c, 0, 64, 59
2,38397, Control_c, 0, 64, 63
2,38411, Control_c, 0, 64, 65
2,38427, Control_c, 0, 64, 67
2,38442, Control_c, 0, 64, 69
2,38450, Note_on_c, 0, 73, 0
2,38457, Control_c, 0, 64, 70
2,38473, Control_c, 0, 64, 71
2,38492, Note_on_c, 0, 76, 61
2,38518, Control_c, 0, 64, 70
2,38537, Note_on_c, 0, 78, 0
2,38544, Note_on_c, 0, 58, 0
2,38548, Note_on_c, 0, 80, 0
2,38563, Control_c, 0, 64, 70
2,38608, Control_c, 0, 64, 69
2,38639, Control_c, 0, 64, 69
2,38670, Control_c, 0, 64, 68
2,38699, Control_c, 0, 64, 68
2,38715, Control_c, 0, 64, 67
2,38730, Control_c, 0, 64, 66
2,38745, Control_c, 0, 64, 65
2,38761, Control_c, 0, 64, 64
2,38775, Control_c, 0, 64, 63
2,38777, Note_on_c, 0, 59, 48
2,38791, Control_c, 0, 64, 62
2,38796, Note_on_c, 0, 75, 54
2,38806, Control_c, 0, 64, 59
2,38821, Control_c, 0, 64, 56
2,38837, Control_c, 0, 64, 52
2,38837, Note_on_c, 0, 76, 0
2,38852, Control_c, 0, 64, 48
2,38868, Control_c, 0, 64, 45
2,38883, Control_c, 0, 64, 42
2,38892, Note_on_c, 0, 66, 0
2,38897, Control_c, 0, 64, 41
2,38912, Note_on_c, 0, 61, 0
2,38913, Control_c, 0, 64, 40
2,38928, Control_c, 0, 64, 38
2,38942, Control_c, 0, 64, 35
2,38958, Control_c, 0, 64, 34
2,38973, Control_c, 0, 64, 32
2,38989, Control_c, 0, 64, 31
2,39004, Control_c, 0, 64, 30
2,39018, Control_c, 0, 64, 30
2,39034, Control_c, 0, 64, 29
2,39034, Control_c, 0, 67, 12
2,39049, Control_c, 0, 64, 28
2,39049, Control_c, 0, 67, 23
2,39054, Note_on_c, 0, 73, 48
2,39064, Control_c, 0, 64, 28
2,39064, Control_c, 0, 67, 38
2,39080, Control_c, 0, 67, 55
2,39094, Control_c, 0, 64, 27
2,39094, Control_c, 0, 67, 73
2,39110, Control_c, 0, 64, 26
2,39110, Control_c, 0, 67, 92
2,39133, Control_c, 0, 67, 113
2,39148, Control_c, 0, 64, 26
2,39148, Control_c, 0, 67, 127
2,39159, Note_on_c, 0, 75, 0
2,39193, Note_on_c, 0, 75, 11
2,39195, Control_c, 0, 64, 25
2,39225, Control_c, 0, 64, 24
2,39241, Control_c, 0, 64, 24
2,39241, Note_on_c, 0, 73, 0
2,39248, Note_on_c, 0, 71, 54
2,39255, Control_c, 0, 64, 23
2,39262, Note_on_c, 0, 66, 46
2,39271, Control_c, 0, 64, 22
2,39285, Control_c, 0, 64, 21
2,39303, Note_on_c, 0, 63, 33
2,39316, Control_c, 0, 64, 20
2,39345, Control_c, 0, 64, 19
2,39375, Control_c, 0, 64, 18
2,39376, Note_on_c, 0, 66, 0
2,39421, Control_c, 0, 64, 17
2,39451, Note_on_c, 0, 64, 49
2,39453, Note_on_c, 0, 70, 52
2,39471, Note_on_c, 0, 59, 0
2,39489, Note_on_c, 0, 61, 40
2,39513, Control_c, 0, 64, 16
2,39525, Note_on_c, 0, 63, 0
2,39559, Control_c, 0, 64, 15
2,39563, Note_on_c, 0, 71, 0
2,39573, Control_c, 0, 64, 14
2,39589, Control_c, 0, 64, 10
2,39604, Control_c, 0, 64, 0
2,39658, Note_on_c, 0, 61, 0
2,39667, Note_on_c, 0, 63, 47
2,39674, Note_on_c, 0, 68, 54
2,39681, Note_on_c, 0, 64, 0
2,39693, Note_on_c, 0, 59, 38
2,39761, Note_on_c, 0, 70, 0
2,39895, Note_on_c, 0, 67, 49
2,39910, Note_on_c, 0, 68, 0
2,40078, Note_on_c, 0, 59, 0
2,40102, Note_on_c, 0, 61, 44
2,40118, Note_on_c, 0, 58, 41
2,40119, Note_on_c, 0, 67, 0
2,40138, Note_on_c, 0, 68, 50
2,40155, Note_on_c, 0, 63, 0
2,40189, Control_c, 0, 64, 23
2,40204, Control_c, 0, 64, 44
2,40218, Control_c, 0, 64, 52
2,40234, Control_c, 0, 64, 57
2,40249, Control_c, 0, 64, 61
2,40264, Control_c, 0, 64, 64
2,40280, Control_c, 0, 64, 65
2,40295, Control_c, 0, 64, 66
2,40311, Control_c, 0, 64, 67
2,40317, Note_on_c, 0, 67, 51
2,40326, Control_c, 0, 64, 68
2,40328, Note_on_c, 0, 68, 0
2,40335, Note_on_c, 0, 61, 0
2,40341, Control_c, 0, 64, 68
2,40357, Control_c, 0, 64, 69
2,40371, Control_c, 0, 64, 70
2,40374, Note_on_c, 0, 58, 0
2,40387, Control_c, 0, 64, 70
2,40432, Control_c, 0, 64, 70
2,40508, Control_c, 0, 64, 69
2,40523, Control_c, 0, 64, 67
2,40529, Note_on_c, 0, 56, 50
2,40538, Control_c, 0, 64, 62
2,40548, Note_on_c, 0, 59, 51
2,40554, Control_c, 0, 64, 54
2,40558, Note_on_c, 0, 68, 62
2,40569, Control_c, 0, 64, 42
2,40583, Control_c, 0, 64, 26
2,40599, Control_c, 0, 64, 18
2,40614, Control_c, 0, 64, 17
2,40632, Note_on_c, 0, 67, 0
2,40644, Control_c, 0, 64, 18
2,40668, Control_c, 0, 64, 28
2,40683, Control_c, 0, 64, 40
2,40698, Control_c, 0, 64, 49
2,40713, Control_c, 0, 64, 55
2,40728, Control_c, 0, 64, 59
2,40743, Control_c, 0, 64, 63
2,40753, Note_on_c, 0, 75, 0
2,40758, Control_c, 0, 64, 66
2,40771, Note_on_c, 0, 71, 74
2,40773, Control_c, 0, 64, 68
2,40789, Control_c, 0, 64, 73
2,40799, Note_on_c, 0, 68, 0
2,40804, Control_c, 0, 64, 78
2,40804, Note_on_c, 0, 71, 0
2,40820, Control_c, 0, 64, 83
2,40836, Control_c, 0, 64, 90
2,40851, Control_c, 0, 64, 94
2,40865, Control_c, 0, 64, 98
2,40881, Control_c, 0, 64, 99
2,40912, Control_c, 0, 64, 98
2,40927, Control_c, 0, 64, 97
2,40941, Control_c, 0, 64, 95
2,40957, Control_c, 0, 64, 92
2,40972, Control_c, 0, 64, 89
2,40974, Note_on_c, 0, 70, 68
2,40988, Control_c, 0, 64, 84
2,40993, Note_on_c, 0, 79, 64
2,40996, Note_on_c, 0, 61, 52
2,41003, Control_c, 0, 64, 80
2,41017, Control_c, 0, 64, 75
2,41029, Note_on_c, 0, 59, 0
2,41033, Control_c, 0, 64, 70
2,41048, Control_c, 0, 64, 66
2,41062, Control_c, 0, 64, 63
2,41078, Control_c, 0, 64, 60
2,41093, Control_c, 0, 64, 58
2,41109, Control_c, 0, 64, 55
2,41124, Control_c, 0, 64, 52
2,41139, Control_c, 0, 64, 48
2,41155, Control_c, 0, 64, 44
2,41169, Control_c, 0, 64, 40
2,41182, Note_on_c, 0, 73, 76
2,41184, Control_c, 0, 64, 36
2,41200, Control_c, 0, 64, 34
2,41210, Note_on_c, 0, 79, 0
2,41215, Control_c, 0, 64, 32
2,41231, Control_c, 0, 64, 30
2,41246, Control_c, 0, 64, 28
2,41260, Control_c, 0, 64, 24
2,41276, Control_c, 0, 64, 21
2,41291, Control_c, 0, 64, 19
2,41307, Control_c, 0, 64, 16
2,41322, Control_c, 0, 64, 12
2,41336, Control_c, 0, 64, 10
2,41352, Control_c, 0, 64, 0
2,41369, Note_on_c, 0, 70, 0
2,41428, Note_on_c, 0, 63, 45
2,41433, Note_on_c, 0, 80, 64
2,41463, Note_on_c, 0, 61, 0
2,41467, Note_on_c, 0, 56, 0
2,41468, Note_on_c, 0, 71, 44
2,41497, Note_on_c, 0, 73, 0
2,41639, Note_on_c, 0, 55, 41
2,41707, Note_on_c, 0, 63, 0
2,41842, Note_on_c, 0, 55, 0
2,41853, Note_on_c, 0, 64, 35
2,41858, Note_on_c, 0, 73, 60
2,41871, Note_on_c, 0, 70, 46
2,41878, Note_on_c, 0, 56, 38
2,41879, Note_on_c, 0, 80, 0
2,41900, Note_on_c, 0, 71, 0
2,41938, Control_c, 0, 64, 18
2,41954, Control_c, 0, 64, 33
2,41969, Control_c, 0, 64, 42
2,41983, Control_c, 0, 64, 50
2,41999, Control_c, 0, 64, 54
2,42014, Control_c, 0, 64, 57
2,42030, Control_c, 0, 64, 60
2,42044, Control_c, 0, 64, 62
2,42052, Note_on_c, 0, 64, 0
2,42059, Control_c, 0, 64, 64
2,42069, Note_on_c, 0, 55, 43
2,42075, Control_c, 0, 64, 66
2,42090, Control_c, 0, 64, 68
2,42105, Control_c, 0, 64, 70
2,42109, Note_on_c, 0, 56, 0
2,42117, Note_on_c, 0, 73, 0
2,42121, Control_c, 0, 64, 72
2,42135, Control_c, 0, 64, 73
2,42151, Control_c, 0, 64, 74
2,42249, Control_c, 0, 64, 73
2,42264, Control_c, 0, 64, 73
2,42280, Control_c, 0, 64, 72
2,42295, Control_c, 0, 64, 71
2,42311, Control_c, 0, 64, 70
2,42325, Control_c, 0, 64, 68
2,42331, Note_on_c, 0, 55, 0
2,42332, Note_on_c, 0, 56, 42
2,42340, Control_c, 0, 64, 66
2,42343, Note_on_c, 0, 63, 32
2,42352, Note_on_c, 0, 71, 46
2,42356, Control_c, 0, 64, 63
2,42371, Control_c, 0, 64, 59
2,42387, Control_c, 0, 64, 55
2,42391, Note_on_c, 0, 70, 0
2,42402, Control_c, 0, 64, 51
2,42417, Control_c, 0, 64, 48
2,42433, Control_c, 0, 64, 46
2,42448, Control_c, 0, 64, 44
2,42463, Control_c, 0, 64, 41
2,42478, Control_c, 0, 64, 38
2,42493, Control_c, 0, 64, 36
2,42509, Control_c, 0, 64, 34
2,42524, Control_c, 0, 64, 33
2,42539, Control_c, 0, 64, 31
2,42555, Control_c, 0, 64, 29
2,42570, Control_c, 0, 64, 28
2,42583, Note_on_c, 0, 70, 45
2,42585, Control_c, 0, 64, 27
2,42601, Control_c, 0, 64, 26
2,42631, Control_c, 0, 64, 26
2,42646, Control_c, 0, 64, 25
2,42691, Control_c, 0, 64, 24
2,42761, Note_on_c, 0, 63, 0
2,42766, Note_on_c, 0, 59, 46
2,42788, Note_on_c, 0, 68, 51
2,42922, Note_on_c, 0, 56, 0
2,42967, Note_on_c, 0, 58, 48
2,42967, Note_on_c, 0, 59, 0
2,42972, Note_on_c, 0, 61, 59
2,42994, Note_on_c, 0, 66, 47
2,43085, Note_on_c, 0, 70, 0
2,43191, Note_on_c, 0, 59, 69
2,43194, Note_on_c, 0, 68, 0
2,43209, Note_on_c, 0, 66, 0
2,43216, Note_on_c, 0, 56, 51
2,43222, Note_on_c, 0, 65, 47
2,43227, Note_on_c, 0, 58, 0
2,43228, Note_on_c, 0, 61, 0
2,43365, Note_on_c, 0, 65, 0
2,43402, Note_on_c, 0, 66, 42
2,43444, Control_c, 0, 64, 24
2,43475, Control_c, 0, 64, 23
2,43490, Control_c, 0, 64, 22
2,43520, Control_c, 0, 64, 21
2,43551, Control_c, 0, 64, 20
2,43588, Note_on_c, 0, 66, 0
2,43610, Note_on_c, 0, 65, 49
2,43614, Note_on_c, 0, 62, 66
2,43632, Note_on_c, 0, 54, 35
2,43657, Control_c, 0, 64, 21
2,43672, Control_c, 0, 64, 24
2,43687, Control_c, 0, 64, 31
2,43702, Control_c, 0, 64, 36
2,43718, Control_c, 0, 64, 43
2,43737, Note_on_c, 0, 59, 0
2,43740, Control_c, 0, 64, 49
2,43756, Control_c, 0, 64, 53
2,43771, Control_c, 0, 64, 55
2,43787, Control_c, 0, 64, 57
2,43789, Note_on_c, 0, 65, 0
2,43802, Control_c, 0, 64, 59
2,43816, Control_c, 0, 64, 60
2,43821, Note_on_c, 0, 66, 43
2,43832, Control_c, 0, 64, 62
2,43847, Control_c, 0, 64, 64
2,43862, Control_c, 0, 64, 65
2,43878, Control_c, 0, 64, 66
2,43892, Control_c, 0, 64, 66
2,43983, Control_c, 0, 64, 66
2,44013, Control_c, 0, 64, 65
2,44029, Control_c, 0, 64, 64
2,44030, Note_on_c, 0, 54, 0
2,44041, Note_on_c, 0, 71, 0
2,44044, Control_c, 0, 64, 62
2,44058, Control_c, 0, 64, 61
2,44071, Note_on_c, 0, 68, 46
2,44074, Control_c, 0, 64, 58
2,44080, Note_on_c, 0, 61, 45
2,44086, Note_on_c, 0, 53, 41
2,44091, Control_c, 0, 64, 56
2,44105, Control_c, 0, 64, 52
2,44121, Control_c, 0, 64, 48
2,44123, Note_on_c, 0, 56, 0
2,44130, Note_on_c, 0, 66, 0
2,44136, Control_c, 0, 64, 44
2,44152, Control_c, 0, 64, 40
2,44166, Control_c, 0, 64, 38
2,44169, Note_on_c, 0, 62, 0
2,44181, Control_c, 0, 64, 34
2,44197, Control_c, 0, 64, 30
2,44212, Control_c, 0, 64, 28
2,44228, Control_c, 0, 64, 25
2,44242, Control_c, 0, 64, 23
2,44257, Control_c, 0, 64, 20
2,44273, Control_c, 0, 64, 16
2,44288, Control_c, 0, 64, 14
2,44296, Note_on_c, 0, 70, 50
2,44303, Control_c, 0, 64, 12
2,44319, Control_c, 0, 64, 8
2,44334, Control_c, 0, 64, 0
2,44353, Note_on_c, 0, 68, 0
2,44524, Note_on_c, 0, 71, 50
2,44553, Note_on_c, 0, 70, 0
2,44684, Note_on_c, 0, 56, 43
2,44714, Note_on_c, 0, 61, 0
2,44918, Note_on_c, 0, 58, 44
2,44921, Note_on_c, 0, 54, 45
2,44931, Note_on_c, 0, 61, 40
2,44959, Note_on_c, 0, 56, 0
2,44988, Note_on_c, 0, 53, 0
2,45117, Note_on_c, 0, 58, 0
2,45130, Note_on_c, 0, 59, 54
2,45250, Note_on_c, 0, 61, 0
2,45351, Note_on_c, 0, 61, 63
2,45373, Note_on_c, 0, 66, 55
2,45475, Control_c, 0, 64, 21
2,45490, Control_c, 0, 64, 29
2,45504, Control_c, 0, 64, 37
2,45520, Control_c, 0, 64, 45
2,45535, Control_c, 0, 64, 51
2,45549, Note_on_c, 0, 61, 0
2,45550, Control_c, 0, 64, 55
2,45565, Control_c, 0, 64, 60
2,45571, Note_on_c, 0, 70, 65
2,45575, Note_on_c, 0, 54, 0
2,45580, Control_c, 0, 64, 63
2,45596, Control_c, 0, 64, 66
2,45611, Control_c, 0, 64, 69
2,45625, Control_c, 0, 64, 73
2,45630, Note_on_c, 0, 71, 0
2,45637, Note_on_c, 0, 66, 0
2,45641, Control_c, 0, 64, 76
2,45656, Control_c, 0, 64, 79
2,45672, Control_c, 0, 64, 80
2,45701, Control_c, 0, 64, 80
2,45717, Control_c, 0, 64, 79
2,45733, Control_c, 0, 64, 79
2,45749, Control_c, 0, 64, 78
2,45764, Control_c, 0, 64, 78
2,45769, Note_on_c, 0, 49, 59
2,45779, Control_c, 0, 64, 77
2,45793, Note_on_c, 0, 70, 0
2,45795, Control_c, 0, 64, 76
2,45795, Control_c, 0, 67, 123
2,45808, Note_on_c, 0, 68, 75
2,45810, Control_c, 0, 64, 74
2,45810, Control_c, 0, 67, 110
2,45825, Control_c, 0, 64, 73
2,45825, Control_c, 0, 67, 94
2,45841, Control_c, 0, 64, 72
2,45841, Control_c, 0, 67, 75
2,45855, Control_c, 0, 64, 72
2,45855, Control_c, 0, 67, 55
2,45862, Note_on_c, 0, 59, 0
2,45871, Control_c, 0, 64, 71
2,45871, Control_c, 0, 67, 34
2,45886, Control_c, 0, 64, 70
2,45886, Control_c, 0, 67, 12
2,45901, Control_c, 0, 64, 68
2,45901, Control_c, 0, 67, 0
2,45917, Control_c, 0, 64, 67
2,45931, Control_c, 0, 64, 66
2,45947, Control_c, 0, 64, 66
2,45962, Control_c, 0, 64, 65
2,45976, Control_c, 0, 64, 65
2,45992, Control_c, 0, 64, 64
2,45998, Note_on_c, 0, 71, 71
2,46007, Control_c, 0, 64, 64
2,46031, Control_c, 0, 64, 63
2,46046, Control_c, 0, 64, 62
2,46060, Control_c, 0, 64, 62
2,46076, Control_c, 0, 64, 61
2,46091, Control_c, 0, 64, 61
2,46122, Control_c, 0, 64, 60
2,46136, Control_c, 0, 64, 60
2,46152, Control_c, 0, 64, 59
2,46165, Note_on_c, 0, 68, 0
2,46167, Control_c, 0, 64, 59
2,46182, Control_c, 0, 64, 58
2,46197, Control_c, 0, 64, 58
2,46208, Note_on_c, 0, 59, 66
2,46212, Control_c, 0, 64, 57
2,46223, Note_on_c, 0, 75, 63
2,46243, Control_c, 0, 64, 56
2,46258, Control_c, 0, 64, 56
2,46273, Control_c, 0, 64, 54
2,46288, Control_c, 0, 64, 53
2,46303, Control_c, 0, 64, 52
2,46319, Control_c, 0, 64, 51
2,46334, Control_c, 0, 64, 50
2,46349, Control_c, 0, 64, 48
2,46364, Control_c, 0, 64, 45
2,46379, Control_c, 0, 64, 42
2,46395, Control_c, 0, 64, 40
2,46410, Control_c, 0, 64, 36
2,46425, Control_c, 0, 64, 34
2,46425, Note_on_c, 0, 58, 69
2,46441, Control_c, 0, 64, 31
2,46455, Control_c, 0, 64, 29
2,46471, Control_c, 0, 64, 28
2,46486, Control_c, 0, 64, 26
2,46501, Control_c, 0, 64, 24
2,46515, Note_on_c, 0, 59, 0
2,46517, Control_c, 0, 64, 21
2,46532, Control_c, 0, 64, 18
2,46548, Control_c, 0, 64, 14
2,46563, Control_c, 0, 64, 8
2,46578, Control_c, 0, 64, 0
2,46650, Note_on_c, 0, 56, 70
2,46668, Note_on_c, 0, 65, 50
2,46699, Note_on_c, 0, 71, 0
2,46867, Note_on_c, 0, 54, 69
2,46870, Note_on_c, 0, 58, 0
2,46909, Note_on_c, 0, 56, 0
2,47107, Note_on_c, 0, 56, 71
2,47122, Note_on_c, 0, 54, 0
2,47134, Note_on_c, 0, 73, 66
2,47239, Control_c, 0, 64, 43
2,47253, Control_c, 0, 64, 56
2,47269, Control_c, 0, 64, 62
2,47284, Control_c, 0, 64, 66
2,47299, Control_c, 0, 64, 71
2,47315, Control_c, 0, 64, 79
2,47330, Control_c, 0, 64, 99
2,47342, Note_on_c, 0, 71, 62
2,47345, Control_c, 0, 64, 127
2,47399, Note_on_c, 0, 56, 0
2,47401, Note_on_c, 0, 65, 0
2,47423, Note_on_c, 0, 49, 0
2,47692, Note_on_c, 0, 54, 61
2,47692, Note_on_c, 0, 70, 60
2,47697, Note_on_c, 0, 66, 50
2,47699, Note_on_c, 0, 42, 63
2,47701, Control_c, 0, 64, 108
2,47717, Control_c, 0, 64, 92
2,47731, Control_c, 0, 64, 81
2,47746, Control_c, 0, 64, 71
2,47748, Note_on_c, 0, 71, 0
2,47762, Control_c, 0, 64, 64
2,47777, Control_c, 0, 64, 57
2,47792, Control_c, 0, 64, 50
2,47799, Note_on_c, 0, 75, 0
2,47802, Note_on_c, 0, 73, 0
2,47808, Control_c, 0, 64, 44
2,47822, Control_c, 0, 64, 39
2,47838, Control_c, 0, 64, 31
2,47853, Control_c, 0, 64, 18
2,47868, Control_c, 0, 64, 0
2,48126, Control_c, 0, 64, 34
2,48141, Control_c, 0, 64, 50
2,48157, Control_c, 0, 64, 59
2,48172, Control_c, 0, 64, 64
2,48187, Control_c, 0, 64, 67
2,48203, Control_c, 0, 64, 71
2,48218, Control_c, 0, 64, 76
2,48234, Control_c, 0, 64, 81
2,48249, Control_c, 0, 64, 87
2,48263, Control_c, 0, 64, 92
2,48279, Control_c, 0, 64, 96
2,48294, Control_c, 0, 64, 97
2,48325, Control_c, 0, 64, 96
2,48347, Control_c, 0, 64, 96
2,48363, Control_c, 0, 64, 95
2,48379, Note_on_c, 0, 42, 0
2,48392, Control_c, 0, 64, 95
2,48408, Control_c, 0, 64, 94
2,48423, Control_c, 0, 64, 94
2,48461, Note_on_c, 0, 70, 0
2,48468, Control_c, 0, 64, 93
2,48478, Note_on_c, 0, 66, 0
2,48484, Control_c, 0, 64, 93
2,48499, Control_c, 0, 64, 92
2,48514, Control_c, 0, 64, 91
2,48529, Control_c, 0, 64, 90
2,48544, Control_c, 0, 64, 89
2,48560, Control_c, 0, 64, 87
2,48575, Control_c, 0, 64, 85
2,48589, Control_c, 0, 64, 84
2,48605, Control_c, 0, 64, 81
2,48620, Control_c, 0, 64, 79
2,48636, Control_c, 0, 64, 75
2,48650, Control_c, 0, 64, 71
2,48665, Control_c, 0, 64, 68
2,48681, Control_c, 0, 64, 65
2,48696, Control_c, 0, 64, 62
2,48711, Control_c, 0, 64, 56
2,48726, Control_c, 0, 64, 51
2,48741, Control_c, 0, 64, 47
2,48749, Note_on_c, 0, 58, 38
2,48757, Control_c, 0, 64, 45
2,48772, Control_c, 0, 64, 42
2,48787, Control_c, 0, 64, 40
2,48802, Control_c, 0, 64, 37
2,48817, Control_c, 0, 64, 34
2,48832, Control_c, 0, 64, 31
2,48832, Control_c, 0, 67, 9
2,48848, Control_c, 0, 64, 26
2,48848, Control_c, 0, 67, 25
2,48862, Control_c, 0, 64, 22
2,48862, Control_c, 0, 67, 44
2,48878, Control_c, 0, 64, 16
2,48878, Control_c, 0, 67, 59
2,48884, Note_on_c, 0, 54, 0
2,48893, Control_c, 0, 64, 8
2,48893, Control_c, 0, 67, 72
2,48908, Control_c, 0, 64, 0
2,48908, Control_c, 0, 67, 85
2,48924, Control_c, 0, 67, 99
2,48939, Control_c, 0, 67, 113
2,48955, Control_c, 0, 67, 127
2,49694, Note_on_c, 0, 63, 40
2,49844, Note_on_c, 0, 58, 0
2,50188, Note_on_c, 0, 78, 40
2,50396, Note_on_c, 0, 76, 41
2,50467, Note_on_c, 0, 78, 0
2,50648, Note_on_c, 0, 75, 45
2,50648, Note_on_c, 0, 76, 0
2,50654, Note_on_c, 0, 59, 42
2,50795, Note_on_c, 0, 63, 0
2,50881, Note_on_c, 0, 75, 0
2,50884, Note_on_c, 0, 76, 44
2,51108, Note_on_c, 0, 76, 0
2,51125, Note_on_c, 0, 78, 39
2,51321, Note_on_c, 0, 75, 47
2,51522, Note_on_c, 0, 78, 0
2,51544, Note_on_c, 0, 56, 42
2,51567, Note_on_c, 0, 71, 39
2,51587, Note_on_c, 0, 75, 0
2,51745, Note_on_c, 0, 59, 0
2,51777, Note_on_c, 0, 73, 49
2,51840, Note_on_c, 0, 71, 0
2,51975, Note_on_c, 0, 75, 56
2,52190, Note_on_c, 0, 75, 0
2,52192, Note_on_c, 0, 71, 55
2,52203, Note_on_c, 0, 73, 0
2,52417, Note_on_c, 0, 65, 58
2,52453, Note_on_c, 0, 68, 47
2,52474, Note_on_c, 0, 71, 0
2,52655, Note_on_c, 0, 70, 44
2,52689, Note_on_c, 0, 68, 0
2,52731, Note_on_c, 0, 56, 0
2,52880, Note_on_c, 0, 71, 50
2,52923, Note_on_c, 0, 70, 0
2,53331, Note_on_c, 0, 66, 38
2,53402, Note_on_c, 0, 65, 0
2,53510, Note_on_c, 0, 71, 0
2,53561, Note_on_c, 0, 68, 40
2,53792, Note_on_c, 0, 70, 49
2,53822, Note_on_c, 0, 68, 0
2,53975, Note_on_c, 0, 71, 50
2,54038, Note_on_c, 0, 70, 0
2,54203, Note_on_c, 0, 73, 52
2,54223, Note_on_c, 0, 71, 0
2,54390, Note_on_c, 0, 64, 38
2,54460, Note_on_c, 0, 66, 0
2,54625, Note_on_c, 0, 63, 50
2,54684, Note_on_c, 0, 64, 0
2,54811, Note_on_c, 0, 73, 0
2,54821, Note_on_c, 0, 61, 55
2,54849, Note_on_c, 0, 63, 0
2,55064, Note_on_c, 0, 61, 0
2,55068, Note_on_c, 0, 63, 59
2,55286, Note_on_c, 0, 66, 46
2,55508, Note_on_c, 0, 59, 43
2,55531, Note_on_c, 0, 68, 52
2,55697, Note_on_c, 0, 59, 0
2,55705, Note_on_c, 0, 58, 47
2,55739, Note_on_c, 0, 70, 54
2,55903, Note_on_c, 0, 66, 0
2,55949, Note_on_c, 0, 56, 46
2,55955, Note_on_c, 0, 71, 63
2,55961, Note_on_c, 0, 58, 0
2,56002, Note_on_c, 0, 68, 0
2,56027, Note_on_c, 0, 70, 0
2,56170, Note_on_c, 0, 58, 63
2,56195, Note_on_c, 0, 63, 0
2,56232, Note_on_c, 0, 56, 0
2,56371, Note_on_c, 0, 59, 48
2,56387, Note_on_c, 0, 63, 68
2,56428, Note_on_c, 0, 58, 0
2,56580, Note_on_c, 0, 56, 67
2,56806, Note_on_c, 0, 52, 52
2,56812, Note_on_c, 0, 61, 72
2,56846, Note_on_c, 0, 56, 0
2,56867, Note_on_c, 0, 63, 0
2,57005, Note_on_c, 0, 59, 0
2,57008, Note_on_c, 0, 54, 62
2,57021, Note_on_c, 0, 63, 75
2,57032, Note_on_c, 0, 52, 0
2,57075, Note_on_c, 0, 61, 0
2,57238, Note_on_c, 0, 64, 77
2,57243, Note_on_c, 0, 56, 59
2,57251, Note_on_c, 0, 54, 0
2,57283, Note_on_c, 0, 63, 0
2,57425, Note_on_c, 0, 52, 59
2,57462, Note_on_c, 0, 56, 0
2,57639, Control_c, 0, 67, 119
2,57641, Note_on_c, 0, 49, 55
2,57643, Note_on_c, 0, 70, 70
2,57653, Control_c, 0, 67, 104
2,57668, Control_c, 0, 67, 89
2,57684, Control_c, 0, 67, 75
2,57689, Note_on_c, 0, 52, 0
2,57699, Control_c, 0, 67, 62
2,57715, Control_c, 0, 67, 51
2,57724, Note_on_c, 0, 71, 0
2,57729, Control_c, 0, 67, 40
2,57744, Control_c, 0, 67, 26
2,57760, Control_c, 0, 67, 12
2,57775, Control_c, 0, 67, 0
2,57840, Note_on_c, 0, 51, 66
2,57848, Note_on_c, 0, 71, 66
2,57893, Note_on_c, 0, 49, 0
2,57908, Note_on_c, 0, 70, 0
2,58059, Note_on_c, 0, 58, 75
2,58083, Note_on_c, 0, 73, 65
2,58087, Note_on_c, 0, 52, 55
2,58121, Note_on_c, 0, 51, 0
2,58212, Note_on_c, 0, 71, 0
2,58283, Note_on_c, 0, 64, 0
2,58283, Note_on_c, 0, 70, 62
2,58463, Note_on_c, 0, 73, 0
2,58520, Note_on_c, 0, 66, 65
2,58531, Note_on_c, 0, 59, 74
2,58539, Note_on_c, 0, 58, 0
2,58561, Note_on_c, 0, 70, 0
2,58649, Control_c, 0, 64, 17
2,58664, Control_c, 0, 64, 43
2,58680, Control_c, 0, 64, 53
2,58693, Note_on_c, 0, 66, 0
2,58695, Control_c, 0, 64, 60
2,58709, Note_on_c, 0, 52, 0
2,58710, Control_c, 0, 64, 64
2,58726, Control_c, 0, 64, 66
2,58732, Note_on_c, 0, 49, 65
2,58741, Control_c, 0, 64, 69
2,58756, Control_c, 0, 64, 71
2,58771, Control_c, 0, 64, 73
2,58786, Control_c, 0, 64, 74
2,58817, Control_c, 0, 64, 73
2,58848, Control_c, 0, 64, 73
2,58863, Control_c, 0, 64, 72
2,58879, Control_c, 0, 64, 72
2,58894, Control_c, 0, 64, 70
2,58909, Control_c, 0, 64, 69
2,58925, Control_c, 0, 64, 67
2,58939, Control_c, 0, 64, 65
2,58939, Note_on_c, 0, 51, 67
2,58952, Note_on_c, 0, 83, 67
2,58955, Control_c, 0, 64, 62
2,58970, Control_c, 0, 64, 59
2,58984, Control_c, 0, 64, 55
2,59000, Control_c, 0, 64, 51
2,59011, Note_on_c, 0, 49, 0
2,59015, Control_c, 0, 64, 49
2,59030, Control_c, 0, 64, 46
2,59046, Control_c, 0, 64, 45
2,59060, Control_c, 0, 64, 43
2,59076, Control_c, 0, 64, 41
2,59098, Control_c, 0, 64, 40
2,59114, Control_c, 0, 64, 39
2,59129, Control_c, 0, 64, 38
2,59144, Control_c, 0, 64, 36
2,59150, Note_on_c, 0, 82, 75
2,59160, Control_c, 0, 64, 34
2,59175, Control_c, 0, 64, 33
2,59189, Control_c, 0, 64, 32
2,59205, Control_c, 0, 64, 31
2,59220, Control_c, 0, 64, 31
2,59250, Control_c, 0, 64, 30
2,59280, Control_c, 0, 64, 30
2,59326, Control_c, 0, 64, 29
2,59380, Note_on_c, 0, 52, 66
2,59395, Note_on_c, 0, 80, 66
2,59417, Control_c, 0, 64, 29
2,59449, Note_on_c, 0, 51, 0
2,59458, Note_on_c, 0, 83, 0
2,59476, Note_on_c, 0, 82, 0
2,59493, Control_c, 0, 64, 28
2,59554, Control_c, 0, 64, 28
2,59569, Control_c, 0, 64, 27
2,59584, Control_c, 0, 64, 26
2,59594, Note_on_c, 0, 82, 71
2,59599, Control_c, 0, 64, 26
2,59614, Control_c, 0, 64, 24
2,59629, Control_c, 0, 64, 23
2,59646, Control_c, 0, 64, 21
2,59661, Control_c, 0, 64, 20
2,59677, Control_c, 0, 64, 19
2,59692, Control_c, 0, 64, 18
2,59709, Control_c, 0, 64, 17
2,59739, Control_c, 0, 64, 16
2,59784, Control_c, 0, 64, 15
2,59803, Note_on_c, 0, 47, 62
2,59818, Note_on_c, 0, 83, 68
2,59860, Note_on_c, 0, 80, 0
2,59914, Control_c, 0, 64, 14
2,59941, Note_on_c, 0, 52, 0
2,60032, Note_on_c, 0, 80, 68
2,60141, Control_c, 0, 64, 12
2,60149, Note_on_c, 0, 82, 0
2,60172, Control_c, 0, 64, 10
2,60202, Control_c, 0, 64, 8
2,60214, Note_on_c, 0, 83, 0
2,60233, Control_c, 0, 64, 0
2,60255, Note_on_c, 0, 49, 54
2,60255, Note_on_c, 0, 76, 63
2,60318, Note_on_c, 0, 80, 0
2,60455, Note_on_c, 0, 78, 64
2,60474, Note_on_c, 0, 47, 0
2,60474, Note_on_c, 0, 51, 66
2,60505, Note_on_c, 0, 49, 0
2,60670, Note_on_c, 0, 76, 0
2,60688, Note_on_c, 0, 52, 55
2,60696, Note_on_c, 0, 80, 59
2,60748, Note_on_c, 0, 51, 0
2,60868, Note_on_c, 0, 78, 0
2,60880, Note_on_c, 0, 80, 0
2,60886, Note_on_c, 0, 52, 0
2,60891, Note_on_c, 0, 49, 54
2,60891, Note_on_c, 0, 76, 59
2,61106, Note_on_c, 0, 54, 59
2,61106, Note_on_c, 0, 73, 56
2,61161, Note_on_c, 0, 49, 0
2,61162, Note_on_c, 0, 76, 0
2,61318, Note_on_c, 0, 58, 68
2,61325, Note_on_c, 0, 75, 64
2,61354, Note_on_c, 0, 59, 0
2,61404, Note_on_c, 0, 73, 0
2,61561, Note_on_c, 0, 76, 65
2,61574, Note_on_c, 0, 56, 73
2,61593, Note_on_c, 0, 58, 0
2,61615, Note_on_c, 0, 75, 0
2,61753, Control_c, 0, 64, 33
2,61768, Control_c, 0, 64, 58
2,61780, Note_on_c, 0, 58, 77
2,61783, Control_c, 0, 64, 67
2,61798, Control_c, 0, 64, 78
2,61813, Control_c, 0, 64, 127
2,61828, Note_on_c, 0, 54, 0
2,61880, Note_on_c, 0, 58, 0
2,61939, Note_on_c, 0, 56, 0
2,62097, Note_on_c, 0, 47, 66
2,62097, Note_on_c, 0, 59, 85
2,62186, Control_c, 0, 64, 96
2,62202, Control_c, 0, 64, 80
2,62217, Control_c, 0, 64, 69
2,62233, Control_c, 0, 64, 57
2,62247, Control_c, 0, 64, 37
2,62262, Control_c, 0, 64, 16
2,62278, Control_c, 0, 64, 0
2,62530, Note_on_c, 0, 54, 45
2,62536, Control_c, 0, 64, 43
2,62552, Control_c, 0, 64, 61
2,62566, Control_c, 0, 64, 68
2,62581, Control_c, 0, 64, 80
2,62597, Control_c, 0, 64, 127
2,62662, Note_on_c, 0, 59, 0
2,62793, Note_on_c, 0, 47, 0
2,62794, Note_on_c, 0, 59, 53
2,62800, Note_on_c, 0, 75, 61
2,62802, Note_on_c, 0, 54, 0
2,63013, Note_on_c, 0, 73, 65
2,63017, Note_on_c, 0, 58, 49
2,63047, Note_on_c, 0, 59, 0
2,63234, Note_on_c, 0, 76, 0
2,63239, Note_on_c, 0, 71, 54
2,63247, Note_on_c, 0, 56, 59
2,63250, Note_on_c, 0, 58, 0
2,63260, Note_on_c, 0, 63, 80
2,63311, Note_on_c, 0, 75, 0
2,63320, Control_c, 0, 64, 108
2,63334, Control_c, 0, 64, 86
2,63350, Control_c, 0, 64, 74
2,63365, Control_c, 0, 64, 65
2,63380, Control_c, 0, 64, 48
2,63396, Control_c, 0, 64, 0
2,63449, Note_on_c, 0, 73, 0
2,63469, Note_on_c, 0, 58, 53
2,63498, Note_on_c, 0, 56, 0
2,63704, Note_on_c, 0, 59, 58
2,63733, Note_on_c, 0, 58, 0
2,63769, Control_c, 0, 64, 48
2,63783, Control_c, 0, 64, 64
2,63799, Control_c, 0, 64, 71
2,63814, Control_c, 0, 64, 83
2,63830, Control_c, 0, 64, 127
2,63898, Note_on_c, 0, 56, 66
2,63963, Note_on_c, 0, 56, 0
2,64136, Note_on_c, 0, 68, 85
2,64138, Note_on_c, 0, 52, 59
2,64164, Control_c, 0, 64, 88
2,64178, Control_c, 0, 64, 67
2,64194, Control_c, 0, 64, 10
2,64209, Control_c, 0, 64, 0
2,64215, Note_on_c, 0, 59, 0
2,64243, Note_on_c, 0, 71, 0
2,64371, Note_on_c, 0, 47, 57
2,64386, Note_on_c, 0, 52, 0
2,64616, Note_on_c, 0, 73, 59
2,64625, Note_on_c, 0, 52, 51
2,64751, Control_c, 0, 64, 31
2,64766, Control_c, 0, 64, 61
2,64780, Control_c, 0, 64, 73
2,64796, Control_c, 0, 64, 97
2,64811, Control_c, 0, 64, 127
2,64834, Note_on_c, 0, 51, 57
2,64840, Note_on_c, 0, 71, 65
2,64861, Note_on_c, 0, 47, 0
2,64887, Note_on_c, 0, 73, 0
2,64923, Note_on_c, 0, 63, 0
2,64967, Note_on_c, 0, 52, 0
2,65038, Note_on_c, 0, 68, 0
2,65060, Note_on_c, 0, 64, 80
2,65063, Note_on_c, 0, 49, 61
2,65070, Note_on_c, 0, 51, 0
2,65081, Note_on_c, 0, 70, 75
2,65115, Control_c, 0, 64, 103
2,65130, Control_c, 0, 64, 80
2,65145, Control_c, 0, 64, 65
2,65160, Control_c, 0, 64, 41
2,65173, Note_on_c, 0, 71, 0
2,65175, Control_c, 0, 64, 0
2,65292, Note_on_c, 0, 51, 56
2,65530, Note_on_c, 0, 68, 78
2,65537, Note_on_c, 0, 52, 65
2,65577, Note_on_c, 0, 49, 0
2,65579, Note_on_c, 0, 51, 0
2,65640, Control_c, 0, 64, 38
2,65655, Control_c, 0, 64, 58
2,65670, Control_c, 0, 64, 66
2,65685, Control_c, 0, 64, 72
2,65700, Control_c, 0, 64, 84
2,65716, Control_c, 0, 64, 121
2,65731, Control_c, 0, 64, 127
2,65746, Note_on_c, 0, 68, 0
2,65753, Note_on_c, 0, 49, 69
2,65754, Note_on_c, 0, 64, 0
2,65786, Note_on_c, 0, 52, 0
2,65808, Note_on_c, 0, 49, 0
2,65969, Note_on_c, 0, 61, 85
2,65975, Note_on_c, 0, 46, 59
2,65995, Note_on_c, 0, 67, 64
2,66042, Control_c, 0, 64, 105
2,66057, Control_c, 0, 64, 81
2,66073, Control_c, 0, 64, 68
2,66087, Control_c, 0, 64, 54
2,66102, Control_c, 0, 64, 15
2,66118, Control_c, 0, 64, 0
2,66203, Note_on_c, 0, 47, 59
2,66215, Note_on_c, 0, 70, 0
2,66403, Note_on_c, 0, 46, 0
2,66410, Note_on_c, 0, 49, 58
2,66415, Note_on_c, 0, 64, 73
2,66432, Note_on_c, 0, 47, 0
2,66543, Control_c, 0, 64, 41
2,66559, Control_c, 0, 64, 57
2,66574, Control_c, 0, 64, 64
2,66589, Control_c, 0, 64, 69
2,66598, Note_on_c, 0, 46, 57
2,66604, Control_c, 0, 64, 76
2,66613, Note_on_c, 0, 49, 0
2,66619, Control_c, 0, 64, 88
2,66634, Control_c, 0, 64, 101
2,66649, Control_c, 0, 64, 127
2,66663, Note_on_c, 0, 61, 0
2,66830, Note_on_c, 0, 70, 80
2,66840, Control_c, 0, 64, 99
2,66840, Note_on_c, 0, 43, 59
2,66849, Note_on_c, 0, 67, 0
2,66854, Control_c, 0, 64, 87
2,66870, Control_c, 0, 64, 80
2,66875, Note_on_c, 0, 63, 56
2,66881, Note_on_c, 0, 46, 0
2,66885, Control_c, 0, 64, 74
2,66900, Control_c, 0, 64, 68
2,66916, Control_c, 0, 64, 61
2,66923, Note_on_c, 0, 64, 0
2,66931, Control_c, 0, 64, 50
2,66945, Control_c, 0, 64, 38
2,66961, Control_c, 0, 64, 33
2,66976, Control_c, 0, 64, 25
2,66992, Control_c, 0, 64, 0
2,67048, Note_on_c, 0, 44, 58
2,67085, Note_on_c, 0, 43, 0
2,67176, Note_on_c, 0, 63, 0
2,67262, Note_on_c, 0, 46, 63
2,67277, Note_on_c, 0, 68, 72
2,67281, Control_c, 0, 64, 17
2,67296, Control_c, 0, 64, 28
2,67300, Note_on_c, 0, 44, 0
2,67312, Control_c, 0, 64, 34
2,67322, Note_on_c, 0, 61, 28
2,67327, Control_c, 0, 64, 40
2,67342, Control_c, 0, 64, 45
2,67357, Control_c, 0, 64, 51
2,67372, Control_c, 0, 64, 57
2,67388, Control_c, 0, 64, 61
2,67403, Control_c, 0, 64, 63
2,67418, Control_c, 0, 64, 64
2,67433, Control_c, 0, 64, 64
2,67448, Control_c, 0, 64, 65
2,67463, Control_c, 0, 64, 65
2,67472, Note_on_c, 0, 67, 72
2,67478, Control_c, 0, 64, 65
2,67524, Control_c, 0, 64, 64
2,67539, Note_on_c, 0, 70, 0
2,67553, Note_on_c, 0, 61, 0
2,67562, Control_c, 0, 64, 64
2,67577, Control_c, 0, 64, 63
2,67593, Control_c, 0, 64, 63
2,67608, Control_c, 0, 64, 62
2,67623, Control_c, 0, 64, 61
2,67638, Control_c, 0, 64, 60
2,67653, Control_c, 0, 64, 59
2,67669, Control_c, 0, 64, 57
2,67684, Control_c, 0, 64, 55
2,67698, Control_c, 0, 64, 53
2,67703, Note_on_c, 0, 71, 79
2,67714, Control_c, 0, 64, 47
2,67717, Note_on_c, 0, 63, 55
2,67729, Control_c, 0, 64, 37
2,67744, Control_c, 0, 64, 25
2,67760, Control_c, 0, 64, 12
2,67762, Note_on_c, 0, 67, 0
2,67774, Control_c, 0, 64, 0
2,67902, Note_on_c, 0, 44, 57
2,67939, Note_on_c, 0, 46, 0
2,68108, Note_on_c, 0, 46, 57
2,68149, Note_on_c, 0, 44, 0
2,68326, Note_on_c, 0, 47, 57
2,68344, Note_on_c, 0, 46, 0
2,68371, Note_on_c, 0, 63, 0
2,68469, Note_on_c, 0, 71, 0
2,68558, Note_on_c, 0, 49, 42
2,68580, Note_on_c, 0, 64, 53
2,68600, Note_on_c, 0, 47, 0
2,68757, Note_on_c, 0, 71, 55
2,68762, Note_on_c, 0, 68, 0
2,68970, Note_on_c, 0, 70, 65
2,69016, Control_c, 0, 64, 34
2,69031, Control_c, 0, 64, 45
2,69046, Control_c, 0, 64, 51
2,69052, Note_on_c, 0, 71, 0
2,69061, Control_c, 0, 64, 57
2,69084, Control_c, 0, 64, 62
2,69098, Control_c, 0, 64, 65
2,69114, Control_c, 0, 64, 67
2,69129, Control_c, 0, 64, 70
2,69144, Control_c, 0, 64, 74
2,69160, Control_c, 0, 64, 79
2,69175, Control_c, 0, 64, 85
2,69186, Note_on_c, 0, 68, 68
2,69190, Control_c, 0, 64, 92
2,69205, Control_c, 0, 64, 100
2,69210, Note_on_c, 0, 70, 0
2,69220, Control_c, 0, 64, 105
2,69236, Control_c, 0, 64, 106
2,69253, Note_on_c, 0, 68, 0
2,69266, Control_c, 0, 64, 105
2,69282, Control_c, 0, 64, 104
2,69297, Control_c, 0, 64, 103
2,69312, Control_c, 0, 64, 102
2,69327, Control_c, 0, 64, 100
2,69342, Control_c, 0, 64, 99
2,69358, Control_c, 0, 64, 98
2,69373, Control_c, 0, 64, 96
2,69388, Control_c, 0, 64, 93
2,69394, Note_on_c, 0, 66, 68
2,69403, Control_c, 0, 64, 88
2,69418, Control_c, 0, 64, 83
2,69426, Note_on_c, 0, 63, 57
2,69434, Control_c, 0, 64, 78
2,69449, Control_c, 0, 64, 74
2,69463, Control_c, 0, 64, 68
2,69480, Control_c, 0, 64, 63
2,69495, Control_c, 0, 64, 54
2,69511, Control_c, 0, 64, 48
2,69526, Control_c, 0, 64, 46
2,69540, Control_c, 0, 64, 44
2,69556, Control_c, 0, 64, 43
2,69571, Control_c, 0, 64, 41
2,69582, Note_on_c, 0, 64, 0
2,69586, Control_c, 0, 64, 38
2,69602, Control_c, 0, 64, 36
2,69602, Note_on_c, 0, 42, 54
2,69612, Note_on_c, 0, 61, 61
2,69616, Control_c, 0, 64, 34
2,69632, Control_c, 0, 64, 33
2,69647, Control_c, 0, 64, 32
2,69662, Control_c, 0, 64, 31
2,69678, Control_c, 0, 64, 29
2,69692, Control_c, 0, 64, 28
2,69693, Note_on_c, 0, 49, 0
2,69708, Control_c, 0, 64, 27
2,69723, Control_c, 0, 64, 26
2,69737, Control_c, 0, 64, 25
2,69753, Control_c, 0, 64, 24
2,69768, Control_c, 0, 64, 24
2,69803, Note_on_c, 0, 44, 63
2,69816, Control_c, 0, 64, 23
2,69823, Note_on_c, 0, 59, 69
2,69856, Note_on_c, 0, 42, 0
2,69866, Note_on_c, 0, 63, 0
2,69961, Note_on_c, 0, 61, 0
2,70030, Note_on_c, 0, 46, 64
2,70051, Note_on_c, 0, 61, 76
2,70075, Note_on_c, 0, 59, 0
2,70119, Note_on_c, 0, 44, 0
2,70255, Note_on_c, 0, 47, 67
2,70268, Note_on_c, 0, 66, 0
2,70272, Note_on_c, 0, 62, 75
2,70299, Note_on_c, 0, 46, 0
2,70326, Note_on_c, 0, 61, 0
2,70474, Note_on_c, 0, 69, 69
2,70537, Control_c, 0, 64, 21
2,70553, Control_c, 0, 64, 20
2,70568, Control_c, 0, 64, 19
2,70584, Control_c, 0, 64, 16
2,70599, Control_c, 0, 64, 10
2,70622, Control_c, 0, 64, 0
2,70693, Note_on_c, 0, 68, 74
2,70773, Control_c, 0, 64, 16
2,70789, Control_c, 0, 64, 26
2,70803, Control_c, 0, 64, 34
2,70818, Control_c, 0, 64, 40
2,70834, Control_c, 0, 64, 46
2,70849, Control_c, 0, 64, 51
2,70865, Control_c, 0, 64, 55
2,70880, Control_c, 0, 64, 58
2,70885, Note_on_c, 0, 66, 69
2,70895, Control_c, 0, 64, 61
2,70899, Note_on_c, 0, 62, 0
2,70911, Control_c, 0, 64, 63
2,70914, Note_on_c, 0, 69, 0
2,70926, Control_c, 0, 64, 65
2,70942, Control_c, 0, 64, 66
2,70956, Control_c, 0, 64, 67
2,70971, Control_c, 0, 64, 69
2,70987, Control_c, 0, 64, 70
2,71001, Control_c, 0, 64, 71
2,71016, Control_c, 0, 64, 72
2,71047, Control_c, 0, 64, 71
2,71063, Control_c, 0, 64, 71
2,71077, Control_c, 0, 64, 70
2,71092, Control_c, 0, 64, 70
2,71107, Note_on_c, 0, 68, 0
2,71108, Control_c, 0, 64, 69
2,71110, Note_on_c, 0, 65, 71
2,71115, Note_on_c, 0, 61, 51
2,71124, Control_c, 0, 64, 67
2,71139, Control_c, 0, 64, 66
2,71155, Control_c, 0, 64, 65
2,71163, Note_on_c, 0, 66, 0
2,71169, Control_c, 0, 64, 64
2,71185, Control_c, 0, 64, 63
2,71200, Control_c, 0, 64, 61
2,71215, Control_c, 0, 64, 56
2,71230, Control_c, 0, 64, 49
2,71245, Control_c, 0, 64, 40
2,71261, Control_c, 0, 64, 25
2,71276, Control_c, 0, 64, 0
2,71298, Note_on_c, 0, 46, 61
2,71314, Note_on_c, 0, 66, 70
2,71330, Note_on_c, 0, 47, 0
2,71436, Note_on_c, 0, 65, 0
2,71516, Note_on_c, 0, 47, 69
2,71522, Note_on_c, 0, 68, 78
2,71545, Note_on_c, 0, 46, 0
2,71567, Note_on_c, 0, 66, 0
2,71716, Note_on_c, 0, 49, 66
2,71717, Note_on_c, 0, 65, 72
2,71745, Note_on_c, 0, 47, 0
2,71760, Note_on_c, 0, 68, 0
2,71976, Note_on_c, 0, 51, 78
2,71985, Note_on_c, 0, 66, 65
2,72025, Note_on_c, 0, 49, 0
2,72053, Note_on_c, 0, 61, 0
2,72054, Note_on_c, 0, 65, 0
2,72234, Note_on_c, 0, 59, 71
2,72442, Note_on_c, 0, 58, 74
2,72444, Note_on_c, 0, 49, 73
2,72502, Note_on_c, 0, 51, 0
2,72505, Note_on_c, 0, 59, 0
2,72648, Note_on_c, 0, 59, 73
2,72716, Note_on_c, 0, 58, 0
2,72873, Note_on_c, 0, 56, 79
2,72878, Note_on_c, 0, 47, 67
2,72970, Note_on_c, 0, 49, 0
2,72996, Note_on_c, 0, 59, 0
2,73078, Note_on_c, 0, 44, 68
2,73163, Note_on_c, 0, 47, 0
2,73280, Note_on_c, 0, 46, 73
2,73357, Note_on_c, 0, 44, 0
2,73477, Note_on_c, 0, 47, 80
2,73511, Note_on_c, 0, 46, 0
2,73699, Note_on_c, 0, 65, 76
2,73702, Note_on_c, 0, 49, 71
2,73744, Note_on_c, 0, 47, 0
2,73747, Note_on_c, 0, 56, 0
2,73796, Note_on_c, 0, 66, 0
2,73945, Note_on_c, 0, 56, 53
2,74098, Note_on_c, 0, 56, 0
2,74121, Note_on_c, 0, 58, 61
2,74122, Note_on_c, 0, 47, 75
2,74173, Note_on_c, 0, 49, 0
2,74245, Note_on_c, 0, 58, 0
2,74321, Note_on_c, 0, 59, 67
2,74347, Control_c, 0, 64, 15
2,74362, Control_c, 0, 64, 29
2,74376, Control_c, 0, 64, 36
2,74393, Control_c, 0, 64, 40
2,74408, Control_c, 0, 64, 43
2,74424, Control_c, 0, 64, 46
2,74439, Control_c, 0, 64, 50
2,74462, Control_c, 0, 64, 55
2,74476, Control_c, 0, 64, 57
2,74491, Control_c, 0, 64, 57
2,74538, Note_on_c, 0, 66, 77
2,74561, Note_on_c, 0, 61, 54
2,74587, Note_on_c, 0, 47, 0
2,74658, Control_c, 0, 64, 56
2,74674, Control_c, 0, 64, 55
2,74689, Control_c, 0, 64, 54
2,74705, Control_c, 0, 64, 53
2,74720, Control_c, 0, 64, 51
2,74734, Control_c, 0, 64, 49
2,74750, Control_c, 0, 64, 46
2,74765, Control_c, 0, 64, 44
2,74774, Note_on_c, 0, 65, 0
2,74775, Note_on_c, 0, 47, 60
2,74781, Control_c, 0, 64, 40
2,74796, Control_c, 0, 64, 36
2,74810, Control_c, 0, 64, 29
2,74826, Control_c, 0, 64, 20
2,74841, Control_c, 0, 64, 0
2,74866, Note_on_c, 0, 59, 0
2,75001, Note_on_c, 0, 46, 65
2,75092, Note_on_c, 0, 47, 0
2,75189, Note_on_c, 0, 44, 62
2,75241, Note_on_c, 0, 46, 0
2,75443, Note_on_c, 0, 42, 62
2,75468, Note_on_c, 0, 70, 79
2,75476, Note_on_c, 0, 44, 0
2,75561, Note_on_c, 0, 61, 0
2,75613, Note_on_c, 0, 66, 0
2,75652, Control_c, 0, 64, 22
2,75668, Control_c, 0, 64, 45
2,75683, Control_c, 0, 64, 56
2,75695, Note_on_c, 0, 64, 69
2,75698, Control_c, 0, 64, 62
2,75712, Note_on_c, 0, 42, 0
2,75713, Control_c, 0, 64, 64
2,75728, Control_c, 0, 64, 65
2,75743, Control_c, 0, 64, 67
2,75759, Control_c, 0, 64, 69
2,75774, Control_c, 0, 64, 71
2,75789, Control_c, 0, 64, 72
2,75850, Control_c, 0, 64, 71
2,75864, Control_c, 0, 64, 71
2,75895, Control_c, 0, 64, 70
2,75901, Note_on_c, 0, 63, 79
2,75911, Control_c, 0, 64, 69
2,75925, Control_c, 0, 64, 69
2,75940, Control_c, 0, 64, 68
2,75956, Control_c, 0, 64, 66
2,75971, Control_c, 0, 64, 64
2,75994, Control_c, 0, 64, 61
2,76009, Control_c, 0, 64, 55
2,76024, Control_c, 0, 64, 50
2,76041, Control_c, 0, 64, 45
2,76056, Control_c, 0, 64, 40
2,76069, Control_c, 0, 64, 32
2,76084, Control_c, 0, 64, 22
2,76099, Control_c, 0, 64, 0
2,76119, Note_on_c, 0, 61, 77
2,76141, Note_on_c, 0, 63, 0
2,76373, Note_on_c, 0, 59, 64
2,76391, Note_on_c, 0, 75, 90
2,76404, Note_on_c, 0, 61, 0
2,76446, Note_on_c, 0, 70, 0
2,76640, Note_on_c, 0, 51, 65
2,76853, Note_on_c, 0, 53, 64
2,76856, Note_on_c, 0, 71, 76
2,76893, Note_on_c, 0, 51, 0
2,77019, Control_c, 0, 64, 40
2,77035, Control_c, 0, 64, 58
2,77042, Note_on_c, 0, 64, 0
2,77050, Control_c, 0, 64, 64
2,77057, Note_on_c, 0, 55, 68
2,77060, Note_on_c, 0, 70, 82
2,77064, Control_c, 0, 64, 69
2,77080, Control_c, 0, 64, 77
2,77091, Note_on_c, 0, 53, 0
2,77095, Control_c, 0, 64, 88
2,77110, Control_c, 0, 64, 103
2,77111, Note_on_c, 0, 59, 0
2,77126, Control_c, 0, 64, 127
2,77137, Note_on_c, 0, 71, 0
2,77174, Note_on_c, 0, 75, 0
2,77306, Note_on_c, 0, 71, 88
2,77317, Note_on_c, 0, 56, 70
2,77319, Note_on_c, 0, 68, 72
2,77333, Note_on_c, 0, 70, 0
2,77339, Note_on_c, 0, 55, 0
2,77369, Control_c, 0, 64, 94
2,77383, Control_c, 0, 64, 77
2,77399, Control_c, 0, 64, 65
2,77414, Control_c, 0, 64, 38
2,77429, Control_c, 0, 64, 0
2,77599, Note_on_c, 0, 55, 63
2,77606, Note_on_c, 0, 70, 69
2,77642, Note_on_c, 0, 56, 0
2,77642, Note_on_c, 0, 68, 0
2,77684, Note_on_c, 0, 71, 0
2,77818, Control_c, 0, 64, 12
2,77828, Note_on_c, 0, 71, 75
2,77832, Control_c, 0, 64, 32
2,77832, Note_on_c, 0, 56, 77
2,77848, Control_c, 0, 64, 45
2,77863, Control_c, 0, 64, 55
2,77878, Note_on_c, 0, 55, 0
2,77879, Control_c, 0, 64, 60
2,77894, Control_c, 0, 64, 62
2,77908, Control_c, 0, 64, 63
2,77924, Control_c, 0, 64, 64
2,77939, Control_c, 0, 64, 65
2,77955, Control_c, 0, 64, 67
2,77970, Control_c, 0, 64, 68
2,77984, Control_c, 0, 64, 70
2,78000, Control_c, 0, 64, 74
2,78015, Control_c, 0, 64, 77
2,78019, Note_on_c, 0, 68, 73
2,78029, Control_c, 0, 64, 79
2,78045, Control_c, 0, 64, 80
2,78060, Control_c, 0, 64, 79
2,78083, Note_on_c, 0, 68, 0
2,78091, Control_c, 0, 64, 79
2,78116, Note_on_c, 0, 70, 0
2,78122, Control_c, 0, 64, 78
2,78167, Control_c, 0, 64, 79
2,78182, Control_c, 0, 64, 79
2,78198, Control_c, 0, 64, 80
2,78213, Control_c, 0, 64, 83
2,78221, Note_on_c, 0, 68, 59
2,78227, Control_c, 0, 64, 88
2,78238, Note_on_c, 0, 65, 87
2,78243, Control_c, 0, 64, 98
2,78258, Control_c, 0, 64, 127
2,78406, Note_on_c, 0, 56, 0
2,78458, Note_on_c, 0, 66, 72
2,78493, Note_on_c, 0, 68, 0
2,78668, Note_on_c, 0, 59, 87
2,78672, Note_on_c, 0, 68, 85
2,78677, Note_on_c, 0, 56, 66
2,78711, Note_on_c, 0, 65, 0
2,78723, Control_c, 0, 64, 83
2,78738, Control_c, 0, 64, 64
2,78745, Note_on_c, 0, 71, 0
2,78752, Control_c, 0, 64, 0
2,78798, Control_c, 0, 64, 39
2,78813, Control_c, 0, 64, 60
2,78828, Control_c, 0, 64, 70
2,78837, Note_on_c, 0, 66, 0
2,78844, Control_c, 0, 64, 86
2,78857, Note_on_c, 0, 68, 0
2,78859, Control_c, 0, 64, 127
2,78863, Note_on_c, 0, 65, 87
2,78889, Note_on_c, 0, 59, 0
2,79083, Note_on_c, 0, 62, 68
2,79090, Note_on_c, 0, 58, 68
2,79104, Note_on_c, 0, 77, 95
2,79125, Control_c, 0, 64, 91
2,79140, Control_c, 0, 64, 65
2,79146, Note_on_c, 0, 65, 0
2,79155, Control_c, 0, 64, 0
2,79186, Note_on_c, 0, 56, 0
2,79325, Note_on_c, 0, 63, 82
2,79341, Note_on_c, 0, 75, 27
2,79475, Note_on_c, 0, 63, 0
2,79512, Note_on_c, 0, 50, 70
2,79526, Note_on_c, 0, 75, 0
2,79528, Note_on_c, 0, 65, 78
2,79537, Note_on_c, 0, 58, 0
2,79582, Control_c, 0, 64, 47
2,79597, Control_c, 0, 64, 60
2,79612, Control_c, 0, 64, 64
2,79627, Control_c, 0, 64, 65
2,79642, Control_c, 0, 64, 66
2,79672, Control_c, 0, 64, 66
2,79688, Control_c, 0, 64, 67
2,79711, Note_on_c, 0, 56, 78
2,79736, Note_on_c, 0, 50, 0
2,79750, Note_on_c, 0, 62, 0
2,79878, Control_c, 0, 64, 66
2,79908, Control_c, 0, 64, 65
2,79923, Control_c, 0, 64, 64
2,79938, Control_c, 0, 64, 63
2,79941, Note_on_c, 0, 54, 67
2,79943, Note_on_c, 0, 78, 81
2,79944, Note_on_c, 0, 51, 65
2,79953, Control_c, 0, 64, 61
2,79958, Note_on_c, 0, 56, 0
2,79969, Control_c, 0, 64, 55
2,79975, Note_on_c, 0, 65, 0
2,79985, Control_c, 0, 64, 45
2,80000, Control_c, 0, 64, 29
2,80015, Control_c, 0, 64, 10
2,80015, Note_on_c, 0, 77, 0
2,80030, Control_c, 0, 64, 0
2,80151, Note_on_c, 0, 63, 68
2,80197, Note_on_c, 0, 51, 0
2,80221, Note_on_c, 0, 54, 0
2,80356, Note_on_c, 0, 65, 77
2,80387, Note_on_c, 0, 63, 0
2,80549, Note_on_c, 0, 66, 74
2,80589, Note_on_c, 0, 65, 0
2,80784, Note_on_c, 0, 68, 78
2,80840, Note_on_c, 0, 66, 0
2,80974, Note_on_c, 0, 77, 78
2,81023, Note_on_c, 0, 78, 0
2,81187, Note_on_c, 0, 78, 82
2,81280, Note_on_c, 0, 77, 0
2,81395, Note_on_c, 0, 80, 81
2,81615, Note_on_c, 0, 82, 86
2,81645, Note_on_c, 0, 78, 0
2,81709, Note_on_c, 0, 80, 0
2,81803, Note_on_c, 0, 66, 62
2,81819, Note_on_c, 0, 68, 0
2,81992, Control_c, 0, 64, 8
2,82007, Control_c, 0, 64, 10
2,82022, Control_c, 0, 64, 12
2,82022, Note_on_c, 0, 68, 75
2,82038, Control_c, 0, 64, 14
2,82053, Control_c, 0, 64, 16
2,82068, Control_c, 0, 64, 17
2,82084, Control_c, 0, 64, 18
2,82098, Control_c, 0, 64, 19
2,82101, Note_on_c, 0, 66, 0
2,82113, Control_c, 0, 64, 20
2,82136, Control_c, 0, 64, 21
2,82151, Control_c, 0, 64, 22
2,82167, Control_c, 0, 64, 24
2,82181, Control_c, 0, 64, 24
2,82212, Control_c, 0, 64, 25
2,82227, Note_on_c, 0, 70, 79
2,82258, Control_c, 0, 64, 26
2,82299, Note_on_c, 0, 68, 0
2,82304, Control_c, 0, 64, 26
2,82328, Note_on_c, 0, 82, 0
2,82349, Control_c, 0, 64, 27
2,82444, Note_on_c, 0, 71, 84
2,82493, Note_on_c, 0, 70, 0
2,82632, Note_on_c, 0, 82, 73
2,82832, Note_on_c, 0, 80, 78
2,83056, Note_on_c, 0, 78, 86
2,83122, Note_on_c, 0, 82, 0
2,83267, Control_c, 0, 64, 28
2,83273, Note_on_c, 0, 77, 89
2,83287, Note_on_c, 0, 71, 0
2,83307, Note_on_c, 0, 80, 0
2,83328, Control_c, 0, 64, 28
2,83356, Note_on_c, 0, 78, 0
2,83359, Control_c, 0, 64, 29
2,83460, Note_on_c, 0, 71, 79
2,83618, Control_c, 0, 64, 29
2,83673, Note_on_c, 0, 70, 76
2,83680, Note_on_c, 0, 79, 85
2,83704, Note_on_c, 0, 71, 0
2,83765, Note_on_c, 0, 77, 0
2,83881, Note_on_c, 0, 80, 87
2,83882, Note_on_c, 0, 68, 81
2,83900, Control_c, 0, 64, 29
2,83915, Control_c, 0, 64, 26
2,83930, Control_c, 0, 64, 24
2,83930, Note_on_c, 0, 70, 0
2,83945, Control_c, 0, 64, 21
2,83947, Note_on_c, 0, 79, 0
2,83961, Control_c, 0, 64, 18
2,83976, Control_c, 0, 64, 15
2,83990, Control_c, 0, 64, 10
2,84006, Control_c, 0, 64, 0
2,84098, Note_on_c, 0, 70, 88
2,84098, Note_on_c, 0, 79, 86
2,84129, Note_on_c, 0, 68, 0
2,84142, Note_on_c, 0, 80, 0
2,84303, Note_on_c, 0, 80, 88
2,84320, Note_on_c, 0, 79, 0
2,84322, Note_on_c, 0, 71, 85
2,84329, Note_on_c, 0, 70, 0
2,84545, Note_on_c, 0, 82, 89
2,84548, Note_on_c, 0, 73, 93
2,84558, Note_on_c, 0, 71, 0
2,84562, Control_c, 0, 64, 50
2,84575, Note_on_c, 0, 80, 0
2,84577, Control_c, 0, 64, 69
2,84591, Control_c, 0, 64, 95
2,84607, Control_c, 0, 64, 127
2,84652, Note_on_c, 0, 73, 0
2,84762, Note_on_c, 0, 82, 0
2,84778, Note_on_c, 0, 79, 87
2,85084, Note_on_c, 0, 44, 85
2,85095, Note_on_c, 0, 75, 88
2,85207, Note_on_c, 0, 79, 0
2,85208, Control_c, 0, 64, 91
2,85223, Control_c, 0, 64, 75
2,85239, Control_c, 0, 64, 63
2,85254, Control_c, 0, 64, 46
2,85269, Control_c, 0, 64, 42
2,85471, Note_on_c, 0, 73, 70
2,85542, Control_c, 0, 64, 43
2,85557, Control_c, 0, 64, 43
2,85587, Control_c, 0, 64, 44
2,85603, Control_c, 0, 64, 45
2,85618, Control_c, 0, 64, 46
2,85633, Control_c, 0, 64, 48
2,85649, Control_c, 0, 64, 50
2,85664, Control_c, 0, 64, 52
2,85679, Control_c, 0, 64, 54
2,85694, Control_c, 0, 64, 56
2,85709, Control_c, 0, 64, 59
2,85709, Note_on_c, 0, 71, 69
2,85725, Control_c, 0, 64, 61
2,85730, Note_on_c, 0, 73, 0
2,85740, Control_c, 0, 64, 64
2,85755, Control_c, 0, 64, 66
2,85770, Control_c, 0, 64, 69
2,85785, Control_c, 0, 64, 72
2,85801, Control_c, 0, 64, 78
2,85815, Control_c, 0, 64, 86
2,85830, Control_c, 0, 64, 99
2,85846, Control_c, 0, 64, 127
2,85905, Note_on_c, 0, 70, 69
2,85948, Note_on_c, 0, 71, 0
2,86144, Note_on_c, 0, 47, 88
2,86150, Note_on_c, 0, 68, 71
2,86188, Note_on_c, 0, 70, 0
2,86204, Control_c, 0, 64, 91
2,86217, Note_on_c, 0, 44, 0
2,86219, Control_c, 0, 64, 78
2,86234, Control_c, 0, 64, 68
2,86249, Control_c, 0, 64, 59
2,86264, Control_c, 0, 64, 49
2,86280, Control_c, 0, 64, 46
2,86295, Control_c, 0, 64, 45
2,86310, Control_c, 0, 64, 40
2,86325, Control_c, 0, 64, 32
2,86340, Control_c, 0, 64, 18
2,86356, Control_c, 0, 64, 0
2,86363, Note_on_c, 0, 70, 67
2,86454, Note_on_c, 0, 68, 0
2,86583, Note_on_c, 0, 71, 68
2,86645, Control_c, 0, 64, 36
2,86659, Control_c, 0, 64, 49
2,86676, Control_c, 0, 64, 57
2,86691, Control_c, 0, 64, 64
2,86706, Control_c, 0, 64, 70
2,86722, Control_c, 0, 64, 80
2,86744, Control_c, 0, 64, 107
2,86759, Control_c, 0, 64, 127
2,86771, Note_on_c, 0, 47, 0
2,86820, Note_on_c, 0, 68, 66
2,87053, Note_on_c, 0, 52, 81
2,87061, Note_on_c, 0, 61, 74
2,87125, Note_on_c, 0, 71, 0
2,87149, Note_on_c, 0, 68, 0
2,87153, Note_on_c, 0, 75, 0
2,87174, Note_on_c, 0, 70, 0
2,87184, Control_c, 0, 64, 102
2,87200, Control_c, 0, 64, 77
2,87215, Control_c, 0, 64, 61
2,87230, Control_c, 0, 64, 0
2,87336, Control_c, 0, 64, 18
2,87346, Note_on_c, 0, 60, 81
2,87351, Control_c, 0, 64, 46
2,87367, Control_c, 0, 64, 58
2,87382, Control_c, 0, 64, 64
2,87398, Control_c, 0, 64, 69
2,87413, Control_c, 0, 64, 75
2,87428, Control_c, 0, 64, 84
2,87443, Control_c, 0, 64, 99
2,87458, Control_c, 0, 64, 127
2,87489, Note_on_c, 0, 61, 0
2,87565, Note_on_c, 0, 80, 90
2,87570, Note_on_c, 0, 61, 89
2,87575, Note_on_c, 0, 74, 35
2,87588, Control_c, 0, 64, 85
2,87596, Note_on_c, 0, 60, 0
2,87603, Control_c, 0, 64, 66
2,87614, Note_on_c, 0, 74, 0
2,87618, Control_c, 0, 64, 53
2,87633, Control_c, 0, 64, 55
2,87649, Control_c, 0, 64, 61
2,87664, Control_c, 0, 64, 67
2,87679, Control_c, 0, 64, 78
2,87694, Control_c, 0, 64, 127
2,87768, Note_on_c, 0, 52, 0
2,87769, Note_on_c, 0, 78, 89
2,87993, Note_on_c, 0, 76, 88
2,88000, Note_on_c, 0, 49, 83
2,88031, Note_on_c, 0, 80, 0
2,88060, Note_on_c, 0, 78, 0
2,88165, Control_c, 0, 64, 103
2,88180, Control_c, 0, 64, 82
2,88196, Control_c, 0, 64, 69
2,88210, Note_on_c, 0, 78, 85
2,88211, Control_c, 0, 64, 55
2,88226, Control_c, 0, 64, 40
2,88241, Control_c, 0, 64, 39
2,88279, Control_c, 0, 64, 38
2,88294, Control_c, 0, 64, 37
2,88309, Control_c, 0, 64, 35
2,88326, Control_c, 0, 64, 32
2,88341, Control_c, 0, 64, 29
2,88357, Control_c, 0, 64, 26
2,88371, Control_c, 0, 64, 18
2,88386, Control_c, 0, 64, 0
2,88464, Note_on_c, 0, 80, 90
2,88477, Note_on_c, 0, 68, 68
2,88488, Note_on_c, 0, 76, 0
2,88504, Note_on_c, 0, 61, 0
2,88538, Control_c, 0, 64, 21
2,88553, Control_c, 0, 64, 41
2,88569, Control_c, 0, 64, 53
2,88583, Control_c, 0, 64, 60
2,88599, Control_c, 0, 64, 65
2,88614, Control_c, 0, 64, 69
2,88629, Control_c, 0, 64, 75
2,88645, Control_c, 0, 64, 83
2,88660, Control_c, 0, 64, 93
2,88676, Control_c, 0, 64, 107
2,88691, Control_c, 0, 64, 127
2,88730, Note_on_c, 0, 76, 73
2,88924, Note_on_c, 0, 46, 81
2,88957, Note_on_c, 0, 73, 69
2,88979, Control_c, 0, 64, 104
2,88985, Note_on_c, 0, 76, 0
2,88993, Control_c, 0, 64, 94
2,89009, Control_c, 0, 64, 86
2,89024, Control_c, 0, 64, 79
2,89048, Control_c, 0, 64, 73
2,89063, Control_c, 0, 64, 67
2,89070, Note_on_c, 0, 80, 0
2,89078, Control_c, 0, 64, 61
2,89081, Note_on_c, 0, 49, 0
2,89093, Control_c, 0, 64, 55
2,89108, Control_c, 0, 64, 53
2,89123, Control_c, 0, 64, 53
2,89154, Control_c, 0, 64, 52
2,89162, Note_on_c, 0, 75, 68
2,89170, Control_c, 0, 64, 51
2,89185, Control_c, 0, 64, 51
2,89201, Control_c, 0, 64, 50
2,89216, Control_c, 0, 64, 49
2,89230, Control_c, 0, 64, 47
2,89230, Note_on_c, 0, 78, 0
2,89246, Control_c, 0, 64, 46
2,89261, Control_c, 0, 64, 44
2,89277, Control_c, 0, 64, 43
2,89291, Control_c, 0, 64, 41
2,89306, Control_c, 0, 64, 39
2,89322, Control_c, 0, 64, 36
2,89332, Note_on_c, 0, 68, 0
2,89337, Control_c, 0, 64, 30
2,89351, Control_c, 0, 64, 21
2,89365, Note_on_c, 0, 67, 63
2,89367, Control_c, 0, 64, 8
2,89373, Note_on_c, 0, 76, 79
2,89382, Control_c, 0, 64, 0
2,89408, Note_on_c, 0, 73, 0
2,89458, Control_c, 0, 64, 18
2,89473, Control_c, 0, 64, 30
2,89489, Control_c, 0, 64, 38
2,89504, Control_c, 0, 64, 47
2,89519, Control_c, 0, 64, 56
2,89534, Control_c, 0, 64, 60
2,89549, Control_c, 0, 64, 63
2,89565, Control_c, 0, 64, 65
2,89580, Control_c, 0, 64, 67
2,89596, Control_c, 0, 64, 70
2,89611, Control_c, 0, 64, 74
2,89615, Note_on_c, 0, 73, 64
2,89625, Control_c, 0, 64, 79
2,89641, Control_c, 0, 64, 86
2,89643, Note_on_c, 0, 75, 0
2,89656, Control_c, 0, 64, 91
2,89656, Note_on_c, 0, 76, 0
2,89671, Control_c, 0, 64, 98
2,89687, Control_c, 0, 64, 104
2,89687, Note_on_c, 0, 73, 0
2,89701, Control_c, 0, 64, 105
2,89762, Control_c, 0, 64, 105
2,89777, Control_c, 0, 64, 103
2,89792, Control_c, 0, 64, 102
2,89816, Control_c, 0, 64, 100
2,89828, Note_on_c, 0, 55, 75
2,89831, Control_c, 0, 64, 99
2,89846, Control_c, 0, 64, 96
2,89861, Control_c, 0, 64, 93
2,89862, Note_on_c, 0, 70, 65
2,89877, Control_c, 0, 64, 88
2,89892, Control_c, 0, 64, 85
2,89907, Control_c, 0, 64, 81
2,89922, Control_c, 0, 64, 77
2,89937, Control_c, 0, 64, 72
2,89952, Control_c, 0, 64, 67
2,89969, Control_c, 0, 64, 62
2,89984, Control_c, 0, 64, 57
2,89999, Control_c, 0, 64, 54
2,90014, Control_c, 0, 64, 54
2,90029, Control_c, 0, 64, 53
2,90042, Note_on_c, 0, 71, 67
2,90045, Control_c, 0, 64, 52
2,90060, Control_c, 0, 64, 52
2,90074, Control_c, 0, 64, 51
2,90097, Note_on_c, 0, 70, 0
2,90105, Control_c, 0, 64, 51
2,90121, Control_c, 0, 64, 50
2,90130, Note_on_c, 0, 46, 0
2,90136, Control_c, 0, 64, 48
2,90150, Control_c, 0, 64, 46
2,90166, Control_c, 0, 64, 44
2,90181, Control_c, 0, 64, 44
2,90196, Control_c, 0, 64, 43
2,90211, Control_c, 0, 64, 43
2,90226, Control_c, 0, 64, 42
2,90242, Control_c, 0, 64, 41
2,90257, Control_c, 0, 64, 40
2,90259, Note_on_c, 0, 73, 65
2,90271, Control_c, 0, 64, 39
2,90287, Control_c, 0, 64, 38
2,90302, Control_c, 0, 64, 38
2,90362, Note_on_c, 0, 71, 0
2,90409, Control_c, 0, 64, 39
2,90424, Control_c, 0, 64, 43
2,90440, Control_c, 0, 64, 48
2,90455, Control_c, 0, 64, 51
2,90469, Control_c, 0, 64, 55
2,90485, Control_c, 0, 64, 58
2,90485, Note_on_c, 0, 70, 55
2,90500, Control_c, 0, 64, 62
2,90516, Control_c, 0, 64, 64
2,90531, Control_c, 0, 64, 65
2,90545, Control_c, 0, 64, 66
2,90554, Note_on_c, 0, 67, 0
2,90629, Control_c, 0, 64, 65
2,90674, Control_c, 0, 64, 65
2,90721, Control_c, 0, 64, 64
2,90750, Control_c, 0, 64, 64
2,90774, Note_on_c, 0, 56, 47
2,90777, Note_on_c, 0, 63, 45
2,90782, Control_c, 0, 64, 63
2,90798, Control_c, 0, 64, 62
2,90812, Control_c, 0, 64, 61
2,90814, Note_on_c, 0, 70, 0
2,90827, Control_c, 0, 64, 60
2,90843, Control_c, 0, 64, 59
2,90858, Control_c, 0, 64, 56
2,90873, Control_c, 0, 64, 53
2,90881, Note_on_c, 0, 73, 0
2,90889, Control_c, 0, 64, 49
2,90904, Control_c, 0, 64, 46
2,90918, Note_on_c, 0, 55, 0
2,90919, Control_c, 0, 64, 45
2,90934, Control_c, 0, 64, 44
2,90949, Control_c, 0, 64, 43
2,90965, Control_c, 0, 64, 42
2,90980, Control_c, 0, 64, 40
2,90994, Control_c, 0, 64, 39
2,91010, Control_c, 0, 64, 36
2,91025, Control_c, 0, 64, 35
2,91032, Note_on_c, 0, 70, 57
2,91040, Control_c, 0, 64, 34
2,91055, Control_c, 0, 64, 34
2,91070, Control_c, 0, 64, 33
2,91086, Control_c, 0, 64, 32
2,91101, Control_c, 0, 64, 32
2,91131, Control_c, 0, 64, 31
2,91222, Control_c, 0, 64, 31
2,91288, Note_on_c, 0, 71, 56
2,91413, Note_on_c, 0, 70, 0
2,91527, Note_on_c, 0, 66, 40
2,91548, Note_on_c, 0, 63, 0
2,91748, Note_on_c, 0, 65, 43
2,91965, Note_on_c, 0, 54, 51
2,91965, Note_on_c, 0, 68, 53
2,92029, Note_on_c, 0, 65, 0
2,92184, Note_on_c, 0, 53, 63
2,92184, Note_on_c, 0, 56, 0
2,92186, Note_on_c, 0, 71, 0
2,92227, Note_on_c, 0, 61, 54
2,92266, Note_on_c, 0, 54, 0
2,92428, Note_on_c, 0, 56, 54
2,92436, Note_on_c, 0, 71, 67
2,92466, Note_on_c, 0, 66, 0
2,92485, Note_on_c, 0, 68, 0
2,92517, Note_on_c, 0, 53, 0
2,92648, Note_on_c, 0, 54, 60
2,92739, Note_on_c, 0, 56, 0
2,92851, Note_on_c, 0, 68, 58
2,92884, Note_on_c, 0, 71, 0
2,93096, Note_on_c, 0, 70, 58
2,93232, Note_on_c, 0, 61, 0
2,93306, Note_on_c, 0, 64, 46
2,93369, Note_on_c, 0, 68, 0
2,93528, Note_on_c, 0, 63, 38
2,93749, Note_on_c, 0, 52, 40
2,93760, Note_on_c, 0, 66, 52
2,93816, Note_on_c, 0, 63, 0
2,93975, Note_on_c, 0, 51, 65
2,94026, Note_on_c, 0, 54, 0
2,94028, Note_on_c, 0, 59, 53
2,94071, Note_on_c, 0, 70, 0
2,94204, Note_on_c, 0, 69, 61
2,94208, Note_on_c, 0, 54, 67
2,94226, Note_on_c, 0, 52, 0
2,94315, Note_on_c, 0, 64, 0
2,94332, Note_on_c, 0, 66, 0
2,94335, Note_on_c, 0, 51, 0
2,94482, Note_on_c, 0, 52, 74
2,94615, Note_on_c, 0, 54, 0
2,94753, Note_on_c, 0, 67, 54
2,94897, Note_on_c, 0, 69, 0
2,94974, Control_c, 0, 64, 31
2,94990, Control_c, 0, 64, 33
2,95005, Control_c, 0, 64, 33
2,95015, Note_on_c, 0, 68, 73
2,95020, Control_c, 0, 64, 34
2,95024, Note_on_c, 0, 59, 0
2,95036, Control_c, 0, 64, 34
2,95066, Control_c, 0, 64, 35
2,95081, Control_c, 0, 64, 36
2,95096, Control_c, 0, 64, 38
2,95112, Control_c, 0, 64, 39
2,95127, Control_c, 0, 64, 41
2,95142, Control_c, 0, 64, 44
2,95157, Control_c, 0, 64, 47
2,95172, Control_c, 0, 64, 50
2,95195, Control_c, 0, 64, 52
2,95208, Note_on_c, 0, 60, 50
2,95210, Control_c, 0, 64, 54
2,95226, Control_c, 0, 64, 56
2,95234, Note_on_c, 0, 51, 67
2,95241, Control_c, 0, 64, 57
2,95256, Control_c, 0, 64, 59
2,95271, Control_c, 0, 64, 61
2,95286, Control_c, 0, 64, 63
2,95289, Note_on_c, 0, 52, 0
2,95302, Control_c, 0, 64, 64
2,95316, Control_c, 0, 64, 65
2,95383, Note_on_c, 0, 49, 26
2,95424, Control_c, 0, 64, 64
2,95454, Control_c, 0, 64, 64
2,95464, Note_on_c, 0, 56, 85
2,95484, Control_c, 0, 64, 63
2,95484, Note_on_c, 0, 64, 60
2,95514, Control_c, 0, 64, 63
2,95539, Note_on_c, 0, 60, 0
2,95545, Control_c, 0, 64, 62
2,95560, Control_c, 0, 64, 62
2,95575, Control_c, 0, 64, 61
2,95587, Note_on_c, 0, 51, 0
2,95591, Control_c, 0, 64, 61
2,95604, Note_on_c, 0, 67, 0
2,95605, Control_c, 0, 64, 60
2,95608, Note_on_c, 0, 68, 0
2,95636, Control_c, 0, 64, 59
2,95651, Control_c, 0, 64, 59
2,95667, Control_c, 0, 64, 58
2,95681, Control_c, 0, 64, 57
2,95696, Note_on_c, 0, 64, 0
2,95697, Control_c, 0, 64, 56
2,95699, Note_on_c, 0, 72, 74
2,95702, Note_on_c, 0, 51, 67
2,95713, Control_c, 0, 64, 54
2,95728, Control_c, 0, 64, 53
2,95744, Control_c, 0, 64, 51
2,95759, Control_c, 0, 64, 48
2,95773, Control_c, 0, 64, 45
2,95789, Control_c, 0, 64, 42
2,95804, Control_c, 0, 64, 39
2,95819, Control_c, 0, 64, 36
2,95849, Control_c, 0, 64, 36
2,95895, Control_c, 0, 64, 37
2,95897, Note_on_c, 0, 73, 80
2,95898, Note_on_c, 0, 52, 61
2,95911, Control_c, 0, 64, 41
2,95915, Note_on_c, 0, 51, 0
2,95915, Note_on_c, 0, 72, 0
2,95917, Note_on_c, 0, 49, 0
2,95925, Control_c, 0, 64, 46
2,95940, Control_c, 0, 64, 50
2,95963, Control_c, 0, 64, 53
2,95978, Control_c, 0, 64, 55
2,95994, Control_c, 0, 64, 57
2,96009, Control_c, 0, 64, 58
2,96025, Control_c, 0, 64, 60
2,96034, Note_on_c, 0, 73, 0
2,96039, Control_c, 0, 64, 62
2,96054, Control_c, 0, 64, 64
2,96070, Control_c, 0, 64, 68
2,96085, Control_c, 0, 64, 74
2,96085, Note_on_c, 0, 49, 52
2,96088, Note_on_c, 0, 65, 77
2,96100, Control_c, 0, 64, 84
2,96115, Control_c, 0, 64, 103
2,96130, Control_c, 0, 64, 127
2,96155, Note_on_c, 0, 56, 0
2,96333, Note_on_c, 0, 61, 90
2,96358, Note_on_c, 0, 66, 66
2,96360, Note_on_c, 0, 45, 63
2,96389, Control_c, 0, 64, 121
2,96404, Control_c, 0, 64, 80
2,96405, Note_on_c, 0, 65, 0
2,96419, Control_c, 0, 64, 62
2,96422, Note_on_c, 0, 52, 0
2,96427, Note_on_c, 0, 49, 0
2,96434, Control_c, 0, 64, 0
2,96480, Control_c, 0, 64, 17
2,96495, Control_c, 0, 64, 50
2,96511, Control_c, 0, 64, 63
2,96527, Control_c, 0, 64, 72
2,96542, Control_c, 0, 64, 88
2,96557, Control_c, 0, 64, 127
2,96565, Note_on_c, 0, 66, 0
2,96598, Note_on_c, 0, 49, 58
2,96814, Note_on_c, 0, 73, 83
2,96817, Note_on_c, 0, 54, 79
2,96820, Note_on_c, 0, 69, 67
2,96833, Control_c, 0, 64, 89
2,96849, Control_c, 0, 64, 68
2,96864, Control_c, 0, 64, 47
2,96879, Control_c, 0, 64, 0
2,96894, Control_c, 0, 64, 32
2,96909, Control_c, 0, 64, 57
2,96924, Note_on_c, 0, 49, 0
2,96925, Control_c, 0, 64, 67
2,96940, Control_c, 0, 64, 79
2,96954, Control_c, 0, 64, 115
2,96970, Control_c, 0, 64, 127
2,97074, Note_on_c, 0, 68, 64
2,97145, Note_on_c, 0, 61, 0
2,97148, Note_on_c, 0, 73, 0
2,97351, Note_on_c, 0, 75, 73
2,97359, Note_on_c, 0, 57, 89
2,97404, Note_on_c, 0, 68, 0
2,97407, Note_on_c, 0, 66, 46
2,97472, Control_c, 0, 64, 99
2,97496, Control_c, 0, 64, 85
2,97511, Control_c, 0, 64, 76
2,97526, Control_c, 0, 64, 69
2,97541, Control_c, 0, 64, 64
2,97557, Control_c, 0, 64, 61
2,97572, Control_c, 0, 64, 56
2,97587, Control_c, 0, 64, 49
2,97587, Note_on_c, 0, 69, 0
2,97602, Control_c, 0, 64, 44
2,97617, Control_c, 0, 64, 39
2,97619, Note_on_c, 0, 68, 50
2,97632, Control_c, 0, 64, 34
2,97647, Control_c, 0, 64, 29
2,97662, Control_c, 0, 64, 26
2,97678, Control_c, 0, 64, 24
2,97678, Note_on_c, 0, 66, 0
2,97693, Control_c, 0, 64, 22
2,97708, Control_c, 0, 64, 20
2,97723, Control_c, 0, 64, 17
2,97738, Control_c, 0, 64, 15
2,97753, Control_c, 0, 64, 14
2,97761, Note_on_c, 0, 54, 0
2,97769, Control_c, 0, 64, 0
2,97937, Note_on_c, 0, 48, 54
2,97975, Note_on_c, 0, 69, 51
2,97982, Control_c, 0, 64, 12
2,97997, Control_c, 0, 64, 36
2,98012, Control_c, 0, 64, 51
2,98014, Note_on_c, 0, 45, 0
2,98027, Control_c, 0, 64, 61
2,98033, Note_on_c, 0, 68, 0
2,98042, Control_c, 0, 64, 66
2,98057, Control_c, 0, 64, 72
2,98072, Control_c, 0, 64, 82
2,98088, Control_c, 0, 64, 98
2,98103, Control_c, 0, 64, 127
2,98113, Note_on_c, 0, 75, 0
2,98194, Note_on_c, 0, 66, 52
2,98199, Note_on_c, 0, 69, 0
2,98282, Note_on_c, 0, 66, 0
2,98401, Note_on_c, 0, 54, 80
2,98445, Control_c, 0, 64, 115
2,98453, Note_on_c, 0, 63, 52
2,98460, Control_c, 0, 64, 102
2,98476, Control_c, 0, 64, 89
2,98481, Note_on_c, 0, 48, 0
2,98490, Control_c, 0, 64, 75
2,98495, Note_on_c, 0, 57, 0
2,98505, Control_c, 0, 64, 63
2,98521, Control_c, 0, 64, 35
2,98536, Control_c, 0, 64, 0
2,98612, Control_c, 0, 64, 28
2,98627, Control_c, 0, 64, 53
2,98642, Note_on_c, 0, 49, 46
2,98643, Control_c, 0, 64, 63
2,98657, Control_c, 0, 64, 68
2,98672, Control_c, 0, 64, 74
2,98672, Note_on_c, 0, 64, 55
2,98688, Control_c, 0, 64, 85
2,98703, Control_c, 0, 64, 101
2,98719, Control_c, 0, 64, 127
2,98736, Note_on_c, 0, 54, 0
2,98738, Note_on_c, 0, 63, 0
2,98841, Note_on_c, 0, 69, 76
2,98862, Note_on_c, 0, 51, 63
2,98886, Control_c, 0, 64, 105
2,98898, Note_on_c, 0, 66, 51
2,98900, Control_c, 0, 64, 79
2,98916, Control_c, 0, 64, 62
2,98927, Note_on_c, 0, 49, 0
2,98931, Control_c, 0, 64, 48
2,98946, Control_c, 0, 64, 51
2,98963, Control_c, 0, 64, 56
2,98978, Control_c, 0, 64, 61
2,98978, Note_on_c, 0, 64, 0
2,98992, Control_c, 0, 64, 65
2,99008, Control_c, 0, 64, 73
2,99030, Control_c, 0, 64, 84
2,99046, Control_c, 0, 64, 111
2,99058, Note_on_c, 0, 63, 69
2,99061, Control_c, 0, 64, 127
2,99067, Note_on_c, 0, 52, 64
2,99089, Note_on_c, 0, 66, 0
2,99101, Note_on_c, 0, 51, 0
2,99123, Note_on_c, 0, 63, 0
2,99270, Note_on_c, 0, 60, 65
2,99276, Note_on_c, 0, 63, 84
2,99287, Note_on_c, 0, 44, 56
2,99305, Control_c, 0, 64, 105
2,99321, Control_c, 0, 64, 87
2,99325, Note_on_c, 0, 52, 0
2,99335, Control_c, 0, 64, 75
2,99350, Control_c, 0, 64, 66
2,99366, Control_c, 0, 64, 59
2,99381, Control_c, 0, 64, 50
2,99388, Note_on_c, 0, 69, 0
2,99397, Control_c, 0, 64, 41
2,99411, Control_c, 0, 64, 32
2,99426, Control_c, 0, 64, 0
2,99499, Note_on_c, 0, 46, 49
2,99528, Note_on_c, 0, 61, 66
2,99679, Note_on_c, 0, 44, 0
2,99737, Note_on_c, 0, 68, 73
2,99740, Note_on_c, 0, 48, 57
2,99860, Control_c, 0, 64, 8
2,99876, Control_c, 0, 64, 52
2,99891, Control_c, 0, 64, 63
2,99902, Note_on_c, 0, 63, 0
2,99905, Control_c, 0, 64, 69
2,99921, Control_c, 0, 64, 75
2,99935, Note_on_c, 0, 44, 61
2,99936, Control_c, 0, 64, 86
2,99938, Note_on_c, 0, 46, 0
2,99948, Note_on_c, 0, 66, 80
2,99949, Control_c, 0, 64, 104
2,99965, Control_c, 0, 64, 127
2,100014, Note_on_c, 0, 60, 0
2,100017, Note_on_c, 0, 68, 0
2,100034, Note_on_c, 0, 61, 0
2,100065, Note_on_c, 0, 44, 0
2,100170, Note_on_c, 0, 64, 86
2,100178, Note_on_c, 0, 49, 63
2,100190, Note_on_c, 0, 61, 60
2,100208, Control_c, 0, 64, 99
2,100209, Note_on_c, 0, 66, 0
2,100212, Note_on_c, 0, 48, 0
2,100223, Control_c, 0, 64, 78
2,100238, Control_c, 0, 64, 64
2,100253, Control_c, 0, 64, 0
2,100383, Note_on_c, 0, 51, 56
2,100429, Note_on_c, 0, 49, 0
2,100581, Note_on_c, 0, 68, 83
2,100598, Note_on_c, 0, 52, 61
2,100621, Note_on_c, 0, 51, 0
2,100790, Note_on_c, 0, 49, 69
2,100793, Control_c, 0, 64, 31
2,100809, Control_c, 0, 64, 49
2,100823, Control_c, 0, 64, 57
2,100833, Note_on_c, 0, 52, 0
2,100834, Note_on_c, 0, 64, 0
2,100838, Control_c, 0, 64, 60
2,100852, Note_on_c, 0, 68, 0
2,100854, Control_c, 0, 64, 61
2,100869, Control_c, 0, 64, 62
2,100885, Control_c, 0, 64, 63
2,100945, Control_c, 0, 64, 62
2,101007, Control_c, 0, 64, 62
2,101021, Control_c, 0, 64, 61
2,101021, Note_on_c, 0, 45, 71
2,101032, Note_on_c, 0, 73, 82
2,101052, Control_c, 0, 64, 60
2,101066, Control_c, 0, 64, 59
2,101081, Control_c, 0, 64, 57
2,101095, Note_on_c, 0, 49, 0
2,101097, Control_c, 0, 64, 56
2,101112, Control_c, 0, 64, 52
2,101128, Control_c, 0, 64, 49
2,101142, Control_c, 0, 64, 42
2,101157, Control_c, 0, 64, 30
2,101173, Control_c, 0, 64, 0
2,101234, Note_on_c, 0, 47, 64
2,101257, Note_on_c, 0, 61, 0
2,101358, Note_on_c, 0, 45, 0
2,101409, Control_c, 0, 64, 12
2,101424, Control_c, 0, 64, 18
2,101425, Note_on_c, 0, 47, 0
2,101438, Note_on_c, 0, 64, 77
2,101440, Control_c, 0, 64, 20
2,101440, Note_on_c, 0, 49, 61
2,101455, Control_c, 0, 64, 21
2,101480, Note_on_c, 0, 61, 62
2,101486, Control_c, 0, 64, 22
2,101501, Control_c, 0, 64, 24
2,101516, Control_c, 0, 64, 29
2,101531, Control_c, 0, 64, 36
2,101546, Control_c, 0, 64, 42
2,101548, Note_on_c, 0, 61, 0
2,101561, Control_c, 0, 64, 51
2,101577, Control_c, 0, 64, 59
2,101591, Control_c, 0, 64, 64
2,101607, Control_c, 0, 64, 67
2,101622, Control_c, 0, 64, 70
2,101625, Note_on_c, 0, 64, 0
2,101637, Control_c, 0, 64, 76
2,101643, Note_on_c, 0, 45, 82
2,101653, Control_c, 0, 64, 84
2,101667, Control_c, 0, 64, 93
2,101668, Note_on_c, 0, 49, 0
2,101683, Control_c, 0, 64, 109
2,101698, Control_c, 0, 64, 127
2,101703, Note_on_c, 0, 45, 0
2,101862, Note_on_c, 0, 69, 87
2,101874, Note_on_c, 0, 66, 68
2,101880, Control_c, 0, 64, 104
2,101880, Note_on_c, 0, 42, 75
2,101895, Note_on_c, 0, 73, 0
2,101898, Control_c, 0, 64, 91
2,101912, Control_c, 0, 64, 81
2,101928, Control_c, 0, 64, 71
2,101943, Control_c, 0, 64, 64
2,101959, Control_c, 0, 64, 54
2,101974, Control_c, 0, 64, 40
2,101988, Control_c, 0, 64, 32
2,102004, Control_c, 0, 64, 14
2,102019, Control_c, 0, 64, 0
2,102103, Note_on_c, 0, 44, 76
2,102146, Note_on_c, 0, 42, 0
2,102296, Note_on_c, 0, 45, 71
2,102297, Note_on_c, 0, 78, 93
2,102313, Note_on_c, 0, 69, 0
2,102334, Note_on_c, 0, 44, 0
2,102349, Control_c, 0, 64, 31
2,102364, Control_c, 0, 64, 50
2,102378, Control_c, 0, 64, 56
2,102394, Control_c, 0, 64, 58
2,102409, Control_c, 0, 64, 59
2,102424, Control_c, 0, 64, 60
2,102439, Control_c, 0, 64, 60
2,102487, Note_on_c, 0, 76, 88
2,102488, Note_on_c, 0, 42, 75
2,102512, Note_on_c, 0, 45, 0
2,102518, Note_on_c, 0, 78, 0
2,102545, Control_c, 0, 64, 60
2,102609, Control_c, 0, 64, 59
2,102639, Control_c, 0, 64, 59
2,102670, Control_c, 0, 64, 58
2,102685, Control_c, 0, 64, 58
2,102715, Control_c, 0, 64, 57
2,102730, Control_c, 0, 64, 56
2,102745, Note_on_c, 0, 78, 95
2,102746, Control_c, 0, 64, 50
2,102753, Note_on_c, 0, 39, 71
2,102760, Control_c, 0, 64, 33
2,102775, Control_c, 0, 64, 0
2,102777, Note_on_c, 0, 76, 0
2,102796, Note_on_c, 0, 42, 0
2,102906, Control_c, 0, 64, 31
2,102920, Control_c, 0, 64, 53
2,102935, Control_c, 0, 64, 63
2,102951, Control_c, 0, 64, 68
2,102965, Control_c, 0, 64, 75
2,102980, Control_c, 0, 64, 90
2,102991, Note_on_c, 0, 40, 73
2,102996, Control_c, 0, 64, 127
2,103054, Note_on_c, 0, 78, 0
2,103083, Note_on_c, 0, 39, 0
2,103115, Note_on_c, 0, 66, 0
2,103180, Note_on_c, 0, 75, 89
2,103196, Note_on_c, 0, 42, 67
2,103196, Note_on_c, 0, 69, 74
2,103204, Note_on_c, 0, 66, 66
2,103210, Control_c, 0, 64, 94
2,103226, Control_c, 0, 64, 65
2,103228, Note_on_c, 0, 40, 0
2,103241, Control_c, 0, 64, 0
2,103317, Control_c, 0, 64, 10
2,103332, Control_c, 0, 64, 56
2,103348, Control_c, 0, 64, 67
2,103362, Control_c, 0, 64, 77
2,103365, Note_on_c, 0, 69, 0
2,103377, Control_c, 0, 64, 98
2,103386, Note_on_c, 0, 39, 66
2,103393, Control_c, 0, 64, 127
2,103415, Note_on_c, 0, 42, 0
2,103430, Note_on_c, 0, 66, 0
2,103582, Note_on_c, 0, 75, 0
2,103601, Note_on_c, 0, 69, 67
2,103601, Note_on_c, 0, 71, 77
2,103609, Note_on_c, 0, 44, 71
2,103612, Note_on_c, 0, 63, 67
2,103641, Control_c, 0, 64, 88
2,103656, Control_c, 0, 64, 66
2,103672, Control_c, 0, 64, 0
2,103760, Note_on_c, 0, 39, 0
2,103775, Control_c, 0, 64, 46
2,103790, Control_c, 0, 64, 61
2,103806, Control_c, 0, 64, 65
2,103821, Control_c, 0, 64, 68
2,103832, Note_on_c, 0, 42, 70
2,103833, Note_on_c, 0, 69, 0
2,103837, Control_c, 0, 64, 72
2,103846, Note_on_c, 0, 63, 0
2,103852, Control_c, 0, 64, 77
2,103867, Control_c, 0, 64, 81
2,103883, Control_c, 0, 64, 88
2,103898, Control_c, 0, 64, 95
2,103913, Control_c, 0, 64, 106
2,103928, Control_c, 0, 64, 127
2,104019, Note_on_c, 0, 44, 0
2,104034, Control_c, 0, 64, 111
2,104036, Note_on_c, 0, 68, 69
2,104036, Note_on_c, 0, 73, 80
2,104037, Note_on_c, 0, 64, 69
2,104042, Note_on_c, 0, 40, 65
2,104050, Control_c, 0, 64, 86
2,104065, Control_c, 0, 64, 68
2,104071, Note_on_c, 0, 42, 0
2,104081, Control_c, 0, 64, 38
2,104096, Control_c, 0, 64, 0
2,104102, Note_on_c, 0, 71, 0
2,104139, Note_on_c, 0, 68, 0
2,104141, Control_c, 0, 64, 36
2,104157, Control_c, 0, 64, 61
2,104172, Control_c, 0, 64, 71
2,104187, Control_c, 0, 64, 82
2,104202, Control_c, 0, 64, 105
2,104217, Control_c, 0, 64, 127
2,104232, Note_on_c, 0, 69, 76
2,104234, Note_on_c, 0, 42, 63
2,104238, Note_on_c, 0, 75, 91
2,104319, Note_on_c, 0, 40, 0
2,104325, Note_on_c, 0, 73, 0
2,104382, Note_on_c, 0, 75, 0
2,104422, Control_c, 0, 64, 91
2,104438, Control_c, 0, 64, 72
2,104450, Note_on_c, 0, 71, 71
2,104452, Control_c, 0, 64, 43
2,104454, Note_on_c, 0, 76, 84
2,104464, Note_on_c, 0, 44, 65
2,104467, Control_c, 0, 64, 0
2,104485, Note_on_c, 0, 42, 0
2,104507, Note_on_c, 0, 69, 0
2,104633, Control_c, 0, 64, 47
2,104649, Control_c, 0, 64, 62
2,104650, Note_on_c, 0, 64, 0
2,104652, Note_on_c, 0, 76, 0
2,104663, Control_c, 0, 64, 67
2,104668, Note_on_c, 0, 71, 0
2,104679, Control_c, 0, 64, 72
2,104680, Note_on_c, 0, 42, 72
2,104694, Control_c, 0, 64, 78
2,104710, Control_c, 0, 64, 84
2,104726, Control_c, 0, 64, 90
2,104732, Note_on_c, 0, 44, 0
2,104741, Control_c, 0, 64, 96
2,104756, Control_c, 0, 64, 98
2,104771, Control_c, 0, 64, 98
2,104786, Control_c, 0, 64, 96
2,104802, Control_c, 0, 64, 94
2,104817, Control_c, 0, 64, 92
2,104831, Control_c, 0, 64, 88
2,104847, Control_c, 0, 64, 85
2,104862, Control_c, 0, 64, 80
2,104868, Note_on_c, 0, 69, 76
2,104877, Control_c, 0, 64, 76
2,104882, Note_on_c, 0, 61, 54
2,104885, Note_on_c, 0, 66, 63
2,104892, Control_c, 0, 64, 70
2,104894, Note_on_c, 0, 44, 67
2,104907, Control_c, 0, 64, 63
2,104923, Control_c, 0, 64, 44
2,104938, Control_c, 0, 64, 0
2,104952, Note_on_c, 0, 42, 0
2,105110, Note_on_c, 0, 45, 64
2,105114, Note_on_c, 0, 61, 0
2,105121, Control_c, 0, 64, 31
2,105136, Control_c, 0, 64, 47
2,105151, Control_c, 0, 64, 57
2,105173, Control_c, 0, 64, 63
2,105188, Control_c, 0, 64, 66
2,105204, Control_c, 0, 64, 69
2,105219, Control_c, 0, 64, 72
2,105234, Control_c, 0, 64, 74
2,105243, Note_on_c, 0, 44, 0
2,105243, Note_on_c, 0, 45, 0
2,105249, Control_c, 0, 64, 74
2,105264, Control_c, 0, 64, 74
2,105280, Control_c, 0, 64, 73
2,105295, Control_c, 0, 64, 72
2,105310, Control_c, 0, 64, 71
2,105323, Note_on_c, 0, 66, 0
2,105326, Control_c, 0, 64, 69
2,105341, Control_c, 0, 64, 67
2,105357, Control_c, 0, 64, 65
2,105371, Control_c, 0, 64, 63
2,105386, Control_c, 0, 64, 61
2,105402, Control_c, 0, 64, 56
2,105405, Note_on_c, 0, 68, 70
2,105417, Control_c, 0, 64, 50
2,105423, Note_on_c, 0, 47, 44
2,105431, Control_c, 0, 64, 41
2,105434, Note_on_c, 0, 59, 39
2,105447, Control_c, 0, 64, 16
2,105462, Control_c, 0, 64, 0
2,105503, Note_on_c, 0, 69, 0
2,105661, Note_on_c, 0, 63, 61
2,105738, Note_on_c, 0, 63, 0
2,105919, Note_on_c, 0, 64, 60
2,106138, Note_on_c, 0, 69, 52
2,106171, Note_on_c, 0, 64, 0
2,106215, Control_c, 0, 64, 18
2,106230, Control_c, 0, 64, 26
2,106246, Control_c, 0, 64, 30
2,106261, Control_c, 0, 64, 32
2,106276, Control_c, 0, 64, 33
2,106291, Control_c, 0, 64, 33
2,106380, Note_on_c, 0, 66, 55
2,106382, Note_on_c, 0, 69, 0
2,106598, Note_on_c, 0, 61, 47
2,106710, Note_on_c, 0, 61, 0
2,106787, Note_on_c, 0, 47, 0
2,106893, Note_on_c, 0, 63, 51
2,107106, Note_on_c, 0, 68, 0
2,107135, Control_c, 0, 64, 33
2,107144, Note_on_c, 0, 57, 45
2,107179, Note_on_c, 0, 66, 0
2,107182, Control_c, 0, 64, 32
2,107212, Control_c, 0, 64, 32
2,107215, Note_on_c, 0, 59, 0
2,107288, Control_c, 0, 64, 31
2,107411, Control_c, 0, 64, 31
2,107425, Control_c, 0, 64, 30
2,107441, Control_c, 0, 64, 30
2,107456, Control_c, 0, 64, 29
2,107456, Note_on_c, 0, 52, 32
2,107456, Note_on_c, 0, 64, 47
2,107457, Note_on_c, 0, 63, 0
2,107478, Note_on_c, 0, 56, 39
2,107479, Control_c, 0, 64, 29
2,107508, Control_c, 0, 64, 28
2,107524, Control_c, 0, 64, 28
2,107539, Control_c, 0, 64, 27
2,107570, Control_c, 0, 64, 26
2,107585, Control_c, 0, 64, 26
2,107590, Note_on_c, 0, 57, 0
2,107601, Control_c, 0, 64, 25
2,107630, Control_c, 0, 64, 24
2,107646, Control_c, 0, 64, 24
2,107661, Control_c, 0, 64, 23
2,107677, Control_c, 0, 64, 22
2,107677, Control_c, 0, 67, 11
2,107692, Control_c, 0, 64, 21
2,107692, Control_c, 0, 67, 18
2,107706, Control_c, 0, 64, 20
2,107706, Control_c, 0, 67, 28
2,107722, Control_c, 0, 64, 19
2,107722, Control_c, 0, 67, 38
2,107737, Control_c, 0, 64, 18
2,107737, Control_c, 0, 67, 48
2,107743, Note_on_c, 0, 71, 48
2,107751, Control_c, 0, 64, 17
2,107751, Control_c, 0, 67, 61
2,107767, Control_c, 0, 64, 15
2,107767, Control_c, 0, 67, 75
2,107782, Control_c, 0, 64, 14
2,107782, Control_c, 0, 67, 88
2,107798, Control_c, 0, 64, 12
2,107798, Control_c, 0, 67, 107
2,107813, Control_c, 0, 64, 10
2,107813, Control_c, 0, 67, 127
2,107836, Note_on_c, 0, 64, 0
2,107843, Control_c, 0, 64, 8
2,108021, Note_on_c, 0, 76, 44
2,108042, Control_c, 0, 64, 0
2,108076, Note_on_c, 0, 71, 0
2,108614, Note_on_c, 0, 59, 39
2,108738, Note_on_c, 0, 52, 0
2,108796, Note_on_c, 0, 56, 0
2,108821, Note_on_c, 0, 76, 0
2,108864, Note_on_c, 0, 73, 42
2,109105, Note_on_c, 0, 73, 0
2,109122, Note_on_c, 0, 83, 44
2,109146, Note_on_c, 0, 75, 29
2,109357, Note_on_c, 0, 81, 43
2,109450, Note_on_c, 0, 83, 0
2,109603, Note_on_c, 0, 81, 0
2,109610, Note_on_c, 0, 80, 36
2,109624, Note_on_c, 0, 64, 41
2,109719, Note_on_c, 0, 59, 0
2,109893, Note_on_c, 0, 81, 37
2,109933, Note_on_c, 0, 80, 0
2,110104, Note_on_c, 0, 68, 32
2,110118, Note_on_c, 0, 83, 36
2,110192, Control_c, 0, 64, 8
2,110208, Note_on_c, 0, 81, 0
2,110222, Control_c, 0, 64, 15
2,110238, Control_c, 0, 64, 22
2,110253, Control_c, 0, 64, 28
2,110268, Control_c, 0, 64, 31
2,110283, Control_c, 0, 64, 34
2,110298, Control_c, 0, 64, 35
2,110313, Control_c, 0, 64, 36
2,110344, Note_on_c, 0, 80, 39
2,110579, Note_on_c, 0, 61, 47
2,110588, Note_on_c, 0, 75, 0
2,110606, Note_on_c, 0, 76, 35
2,110695, Note_on_c, 0, 80, 0
2,110749, Note_on_c, 0, 64, 0
2,110753, Note_on_c, 0, 68, 0
2,110843, Note_on_c, 0, 78, 28
2,110924, Note_on_c, 0, 76, 0
2,111039, Note_on_c, 0, 64, 36
2,111067, Note_on_c, 0, 80, 42
2,111189, Control_c, 0, 64, 38
2,111204, Control_c, 0, 64, 42
2,111219, Control_c, 0, 64, 46
2,111225, Note_on_c, 0, 83, 0
2,111234, Control_c, 0, 64, 50
2,111236, Note_on_c, 0, 78, 0
2,111250, Control_c, 0, 64, 53
2,111257, Note_on_c, 0, 76, 38
2,111266, Control_c, 0, 64, 56
2,111266, Note_on_c, 0, 80, 0
2,111281, Control_c, 0, 64, 59
2,111296, Control_c, 0, 64, 62
2,111319, Control_c, 0, 64, 63
2,111334, Control_c, 0, 64, 63
2,111364, Control_c, 0, 64, 64
2,111441, Control_c, 0, 64, 63
2,111501, Control_c, 0, 64, 63
2,111524, Note_on_c, 0, 58, 42
2,111526, Note_on_c, 0, 73, 42
2,111547, Control_c, 0, 64, 62
2,111577, Control_c, 0, 64, 62
2,111592, Control_c, 0, 64, 61
2,111607, Note_on_c, 0, 76, 0
2,111608, Control_c, 0, 64, 61
2,111623, Control_c, 0, 64, 60
2,111638, Control_c, 0, 64, 59
2,111653, Control_c, 0, 64, 58
2,111668, Control_c, 0, 64, 57
2,111684, Control_c, 0, 64, 56
2,111698, Control_c, 0, 64, 55
2,111707, Note_on_c, 0, 61, 0
2,111713, Control_c, 0, 64, 54
2,111729, Control_c, 0, 64, 53
2,111744, Control_c, 0, 64, 52
2,111759, Note_on_c, 0, 75, 43
2,111760, Control_c, 0, 64, 52
2,111774, Control_c, 0, 64, 51
2,111782, Note_on_c, 0, 73, 0
2,111789, Control_c, 0, 64, 50
2,111819, Control_c, 0, 64, 50
2,111834, Control_c, 0, 64, 49
2,111856, Note_on_c, 0, 64, 0
2,111865, Control_c, 0, 64, 48
2,111896, Control_c, 0, 64, 48
2,111941, Control_c, 0, 64, 47
2,111969, Note_on_c, 0, 76, 34
2,112002, Note_on_c, 0, 73, 42
2,112018, Control_c, 0, 64, 47
2,112132, Control_c, 0, 64, 46
2,112227, Note_on_c, 0, 71, 35
2,112268, Control_c, 0, 64, 46
2,112427, Note_on_c, 0, 71, 0
2,112434, Note_on_c, 0, 67, 47
2,112457, Note_on_c, 0, 70, 33
2,112528, Control_c, 0, 64, 45
2,112547, Note_on_c, 0, 73, 0
2,112571, Note_on_c, 0, 75, 0
2,112646, Note_on_c, 0, 71, 42
2,112684, Note_on_c, 0, 58, 0
2,112699, Note_on_c, 0, 70, 0
2,112770, Control_c, 0, 64, 45
2,112887, Note_on_c, 0, 75, 23
2,112900, Note_on_c, 0, 73, 31
2,112915, Control_c, 0, 64, 44
2,112977, Note_on_c, 0, 76, 0
2,113089, Note_on_c, 0, 71, 0
2,113122, Note_on_c, 0, 70, 38
2,113348, Note_on_c, 0, 70, 0
2,113351, Note_on_c, 0, 73, 0
2,113352, Note_on_c, 0, 68, 39
2,113359, Note_on_c, 0, 71, 42
2,113521, Note_on_c, 0, 67, 0
2,113565, Note_on_c, 0, 66, 31
2,113666, Note_on_c, 0, 68, 0
2,113805, Control_c, 0, 64, 46
2,113819, Control_c, 0, 64, 48
2,113822, Note_on_c, 0, 80, 59
2,113831, Note_on_c, 0, 65, 30
2,113834, Control_c, 0, 64, 49
2,113841, Note_on_c, 0, 66, 0
2,113850, Control_c, 0, 64, 51
2,113865, Control_c, 0, 64, 53
2,113881, Control_c, 0, 64, 54
2,113895, Control_c, 0, 64, 56
2,113910, Control_c, 0, 64, 57
2,113926, Control_c, 0, 64, 58
2,113941, Control_c, 0, 64, 59
2,113957, Control_c, 0, 64, 60
2,113972, Control_c, 0, 64, 61
2,113980, Note_on_c, 0, 71, 0
2,113987, Control_c, 0, 64, 62
2,114003, Control_c, 0, 64, 63
2,114017, Control_c, 0, 64, 63
2,114032, Control_c, 0, 64, 64
2,114046, Note_on_c, 0, 63, 42
2,114184, Control_c, 0, 64, 63
2,114215, Control_c, 0, 64, 63
2,114260, Control_c, 0, 64, 62
2,114265, Note_on_c, 0, 70, 45
2,114274, Note_on_c, 0, 62, 33
2,114278, Note_on_c, 0, 75, 0
2,114291, Control_c, 0, 64, 62
2,114291, Note_on_c, 0, 63, 0
2,114305, Control_c, 0, 64, 61
2,114321, Control_c, 0, 64, 61
2,114336, Control_c, 0, 64, 60
2,114350, Control_c, 0, 64, 60
2,114366, Control_c, 0, 64, 59
2,114390, Note_on_c, 0, 65, 0
2,114405, Control_c, 0, 64, 59
2,114420, Control_c, 0, 64, 58
2,114482, Note_on_c, 0, 63, 34
2,114492, Note_on_c, 0, 78, 61
2,114496, Control_c, 0, 64, 58
2,114510, Control_c, 0, 64, 57
2,114529, Note_on_c, 0, 80, 0
2,114559, Control_c, 0, 64, 57
2,114574, Control_c, 0, 64, 56
2,114580, Note_on_c, 0, 62, 0
2,114604, Control_c, 0, 64, 56
2,114619, Control_c, 0, 64, 55
2,114634, Control_c, 0, 64, 54
2,114650, Control_c, 0, 64, 54
2,114664, Control_c, 0, 64, 53
2,114680, Control_c, 0, 64, 53
2,114710, Control_c, 0, 64, 52
2,114733, Note_on_c, 0, 80, 71
2,114744, Note_on_c, 0, 65, 43
2,114755, Control_c, 0, 64, 52
2,114786, Control_c, 0, 64, 51
2,114797, Note_on_c, 0, 78, 0
2,114831, Control_c, 0, 64, 51
2,114862, Control_c, 0, 64, 50
2,114921, Note_on_c, 0, 63, 0
2,114938, Control_c, 0, 64, 50
2,114946, Note_on_c, 0, 62, 44
2,114992, Note_on_c, 0, 65, 0
2,115014, Control_c, 0, 64, 49
2,115045, Control_c, 0, 64, 49
2,115105, Control_c, 0, 64, 48
2,115121, Control_c, 0, 64, 48
2,115139, Note_on_c, 0, 78, 47
2,115173, Control_c, 0, 64, 47
2,115175, Note_on_c, 0, 63, 41
2,115204, Control_c, 0, 64, 47
2,115210, Note_on_c, 0, 62, 0
2,115226, Note_on_c, 0, 70, 0
2,115265, Control_c, 0, 64, 46
2,115310, Control_c, 0, 64, 46
2,115387, Control_c, 0, 64, 45
2,115390, Note_on_c, 0, 80, 0
2,115413, Note_on_c, 0, 76, 44
2,115448, Control_c, 0, 64, 45
2,115524, Control_c, 0, 64, 44
2,115625, Note_on_c, 0, 75, 51
2,115630, Control_c, 0, 64, 44
2,115691, Control_c, 0, 64, 43
2,115722, Note_on_c, 0, 76, 0
2,115833, Note_on_c, 0, 73, 47
2,115838, Note_on_c, 0, 75, 0
2,116062, Note_on_c, 0, 72, 47
2,116118, Note_on_c, 0, 73, 0
2,116263, Note_on_c, 0, 73, 43
2,116273, Note_on_c, 0, 64, 37
2,116317, Note_on_c, 0, 72, 0
2,116322, Note_on_c, 0, 63, 0
2,116497, Note_on_c, 0, 66, 35
2,116499, Note_on_c, 0, 75, 50
2,116515, Note_on_c, 0, 64, 0
2,116693, Note_on_c, 0, 63, 44
2,116714, Note_on_c, 0, 72, 44
2,116770, Note_on_c, 0, 66, 0
2,116905, Control_c, 0, 64, 44
2,116929, Note_on_c, 0, 63, 0
2,116935, Note_on_c, 0, 64, 31
2,116943, Note_on_c, 0, 73, 0
2,116951, Control_c, 0, 64, 44
2,116983, Note_on_c, 0, 68, 50
2,116998, Control_c, 0, 64, 45
2,117052, Note_on_c, 0, 75, 0
2,117058, Control_c, 0, 64, 45
2,117078, Note_on_c, 0, 72, 0
2,117108, Note_on_c, 0, 78, 0
2,117149, Control_c, 0, 64, 46
2,117170, Note_on_c, 0, 63, 40
2,117240, Control_c, 0, 64, 46
2,117258, Note_on_c, 0, 64, 0
2,117387, Note_on_c, 0, 76, 72
2,117415, Note_on_c, 0, 61, 40
2,117537, Note_on_c, 0, 63, 0
2,117610, Note_on_c, 0, 61, 0
2,117628, Note_on_c, 0, 59, 44
2,117806, Note_on_c, 0, 68, 0
2,117832, Note_on_c, 0, 59, 0
2,117838, Note_on_c, 0, 67, 46
2,117849, Note_on_c, 0, 58, 41
2,117980, Note_on_c, 0, 58, 0
2,118019, Note_on_c, 0, 75, 63
2,118022, Note_on_c, 0, 59, 10
2,118073, Note_on_c, 0, 76, 0
2,118225, Note_on_c, 0, 76, 65
2,118240, Note_on_c, 0, 59, 0
2,118253, Note_on_c, 0, 61, 34
2,118268, Note_on_c, 0, 75, 0
2,118441, Note_on_c, 0, 58, 39
2,118470, Note_on_c, 0, 73, 43
2,118670, Note_on_c, 0, 58, 0
2,118686, Note_on_c, 0, 59, 37
2,118695, Note_on_c, 0, 75, 60
2,118713, Note_on_c, 0, 73, 0
2,118726, Note_on_c, 0, 61, 0
2,118752, Note_on_c, 0, 76, 0
2,118812, Note_on_c, 0, 67, 0
2,118907, Note_on_c, 0, 73, 50
2,119105, Note_on_c, 0, 73, 0
2,119129, Note_on_c, 0, 71, 53
2,119341, Note_on_c, 0, 70, 51
2,119427, Note_on_c, 0, 71, 0
2,119568, Note_on_c, 0, 68, 51
2,119593, Note_on_c, 0, 70, 0
2,119771, Note_on_c, 0, 61, 45
2,119774, Note_on_c, 0, 70, 43
2,119785, Note_on_c, 0, 59, 0
2,119818, Note_on_c, 0, 68, 0
2,119991, Note_on_c, 0, 63, 48
2,119998, Note_on_c, 0, 71, 50
2,120013, Note_on_c, 0, 61, 0
2,120191, Note_on_c, 0, 59, 47
2,120192, Note_on_c, 0, 63, 0
2,120200, Note_on_c, 0, 68, 56
2,120290, Note_on_c, 0, 71, 0
2,120417, Note_on_c, 0, 59, 0
2,120444, Note_on_c, 0, 61, 41
2,120445, Note_on_c, 0, 70, 0
2,120452, Note_on_c, 0, 65, 54
2,120510, Control_c, 0, 64, 47
2,120533, Control_c, 0, 64, 49
2,120548, Control_c, 0, 64, 51
2,120564, Control_c, 0, 64, 54
2,120578, Control_c, 0, 64, 56
2,120590, Note_on_c, 0, 68, 0
2,120593, Control_c, 0, 64, 59
2,120609, Control_c, 0, 64, 61
2,120624, Control_c, 0, 64, 62
2,120640, Control_c, 0, 64, 63
2,120655, Control_c, 0, 64, 64
2,120670, Control_c, 0, 64, 65
2,120686, Control_c, 0, 64, 66
2,120688, Note_on_c, 0, 61, 0
2,120689, Note_on_c, 0, 59, 47
2,120761, Control_c, 0, 64, 65
2,120767, Note_on_c, 0, 65, 0
2,120807, Control_c, 0, 64, 65
2,120852, Control_c, 0, 64, 64
2,120883, Control_c, 0, 64, 64
2,120886, Note_on_c, 0, 73, 53
2,120891, Note_on_c, 0, 58, 49
2,120897, Note_on_c, 0, 67, 56
2,120928, Control_c, 0, 64, 63
2,120958, Control_c, 0, 64, 63
2,120973, Control_c, 0, 64, 62
2,120973, Note_on_c, 0, 59, 0
2,120988, Control_c, 0, 64, 62
2,121019, Control_c, 0, 64, 61
2,121034, Control_c, 0, 64, 61
2,121050, Control_c, 0, 64, 60
2,121064, Control_c, 0, 64, 60
2,121081, Control_c, 0, 64, 59
2,121099, Note_on_c, 0, 56, 46
2,121100, Note_on_c, 0, 68, 69
2,121111, Control_c, 0, 64, 59
2,121138, Note_on_c, 0, 58, 0
2,121141, Control_c, 0, 64, 58
2,121153, Note_on_c, 0, 67, 0
2,121203, Control_c, 0, 64, 58
2,121232, Control_c, 0, 64, 57
2,121263, Control_c, 0, 64, 57
2,121279, Control_c, 0, 64, 56
2,121299, Note_on_c, 0, 56, 0
2,121306, Note_on_c, 0, 70, 61
2,121317, Control_c, 0, 64, 56
2,121323, Note_on_c, 0, 55, 41
2,121332, Control_c, 0, 64, 55
2,121346, Control_c, 0, 64, 55
2,121362, Control_c, 0, 64, 54
2,121377, Control_c, 0, 64, 53
2,121392, Control_c, 0, 64, 53
2,121407, Control_c, 0, 64, 52
2,121422, Control_c, 0, 64, 52
2,121440, Note_on_c, 0, 73, 0
2,121444, Note_on_c, 0, 68, 0
2,121453, Control_c, 0, 64, 51
2,121468, Control_c, 0, 64, 51
2,121508, Note_on_c, 0, 71, 61
2,121512, Note_on_c, 0, 56, 48
2,121514, Note_on_c, 0, 55, 0
2,121530, Control_c, 0, 64, 50
2,121544, Control_c, 0, 64, 50
2,121562, Note_on_c, 0, 70, 0
2,121575, Control_c, 0, 64, 49
2,121590, Control_c, 0, 64, 49
2,121620, Control_c, 0, 64, 48
2,121696, Control_c, 0, 64, 48
2,121712, Note_on_c, 0, 56, 0
2,121714, Note_on_c, 0, 71, 0
2,121719, Note_on_c, 0, 73, 54
2,121731, Note_on_c, 0, 58, 43
2,121925, Note_on_c, 0, 58, 0
2,121929, Note_on_c, 0, 70, 48
2,121937, Note_on_c, 0, 55, 28
2,121992, Note_on_c, 0, 73, 0
2,122073, Note_on_c, 0, 75, 0
2,122157, Note_on_c, 0, 56, 42
2,122163, Note_on_c, 0, 55, 0
2,122179, Note_on_c, 0, 71, 49
2,122266, Note_on_c, 0, 70, 0
2,122370, Note_on_c, 0, 67, 49
2,122525, Note_on_c, 0, 67, 0
2,122597, Note_on_c, 0, 68, 58
2,122639, Note_on_c, 0, 71, 0
2,122692, Note_on_c, 0, 54, 48
2,122752, Note_on_c, 0, 56, 0
2,122780, Note_on_c, 0, 71, 59
2,122792, Note_on_c, 0, 52, 42
2,122819, Note_on_c, 0, 54, 0
2,122869, Note_on_c, 0, 52, 0
2,122871, Note_on_c, 0, 71, 0
2,122875, Note_on_c, 0, 51, 57
2,122981, Note_on_c, 0, 51, 0
2,123011, Note_on_c, 0, 49, 46
2,123015, Note_on_c, 0, 76, 68
2,123070, Note_on_c, 0, 68, 0
2,123127, Control_c, 0, 64, 47
2,123208, Note_on_c, 0, 59, 50
2,123211, Note_on_c, 0, 68, 62
2,123331, Note_on_c, 0, 59, 0
2,123426, Note_on_c, 0, 58, 54
2,123434, Note_on_c, 0, 73, 70
2,123492, Note_on_c, 0, 68, 0
2,123506, Note_on_c, 0, 76, 0
2,123622, Note_on_c, 0, 54, 55
2,123629, Note_on_c, 0, 76, 72
2,123652, Note_on_c, 0, 58, 0
2,123779, Note_on_c, 0, 76, 0
2,123832, Note_on_c, 0, 59, 54
2,123840, Note_on_c, 0, 49, 0
2,123856, Note_on_c, 0, 75, 80
2,123893, Note_on_c, 0, 54, 0
2,123946, Note_on_c, 0, 73, 0
2,124055, Note_on_c, 0, 70, 68
2,124152, Note_on_c, 0, 70, 0
2,124244, Control_c, 0, 64, 48
2,124278, Note_on_c, 0, 71, 70
2,124295, Note_on_c, 0, 75, 0
2,124370, Note_on_c, 0, 58, 55
2,124404, Control_c, 0, 64, 48
2,124431, Note_on_c, 0, 59, 0
2,124434, Control_c, 0, 67, 126
2,124449, Control_c, 0, 67, 121
2,124464, Control_c, 0, 67, 114
2,124473, Note_on_c, 0, 56, 65
2,124477, Note_on_c, 0, 75, 76
2,124480, Control_c, 0, 67, 107
2,124495, Control_c, 0, 67, 99
2,124510, Control_c, 0, 67, 91
2,124518, Note_on_c, 0, 58, 0
2,124526, Control_c, 0, 67, 80
2,124541, Control_c, 0, 67, 71
2,124557, Control_c, 0, 67, 61
2,124564, Note_on_c, 0, 54, 63
2,124565, Note_on_c, 0, 75, 0
2,124571, Control_c, 0, 67, 52
2,124571, Note_on_c, 0, 56, 0
2,124586, Control_c, 0, 67, 44
2,124602, Control_c, 0, 67, 36
2,124617, Control_c, 0, 67, 26
2,124632, Control_c, 0, 67, 17
2,124647, Control_c, 0, 67, 9
2,124662, Control_c, 0, 67, 0
2,124670, Note_on_c, 0, 52, 59
2,124686, Note_on_c, 0, 80, 82
2,124698, Note_on_c, 0, 54, 0
2,124754, Note_on_c, 0, 71, 0
2,124881, Note_on_c, 0, 63, 64
2,124881, Note_on_c, 0, 71, 72
2,124978, Note_on_c, 0, 63, 0
2,124986, Note_on_c, 0, 71, 0
2,125086, Note_on_c, 0, 76, 75
2,125093, Note_on_c, 0, 61, 68
2,125150, Note_on_c, 0, 80, 0
2,125217, Control_c, 0, 64, 49
2,125277, Note_on_c, 0, 58, 64
2,125292, Note_on_c, 0, 80, 78
2,125323, Note_on_c, 0, 61, 0
2,125444, Note_on_c, 0, 52, 0
2,125495, Note_on_c, 0, 63, 72
2,125504, Note_on_c, 0, 78, 83
2,125551, Note_on_c, 0, 76, 0
2,125557, Note_on_c, 0, 80, 0
2,125562, Note_on_c, 0, 58, 0
2,125701, Note_on_c, 0, 73, 81
2,125798, Note_on_c, 0, 73, 0
2,125926, Note_on_c, 0, 75, 86
2,125967, Note_on_c, 0, 78, 0
2,126011, Note_on_c, 0, 61, 68
2,126069, Note_on_c, 0, 63, 0
2,126103, Note_on_c, 0, 59, 69
2,126111, Note_on_c, 0, 78, 86
2,126159, Note_on_c, 0, 61, 0
2,126191, Note_on_c, 0, 58, 73
2,126221, Note_on_c, 0, 59, 0
2,126283, Note_on_c, 0, 78, 0
2,126308, Note_on_c, 0, 56, 68
2,126324, Note_on_c, 0, 83, 85
2,126333, Note_on_c, 0, 58, 0
2,126393, Note_on_c, 0, 75, 0
2,126513, Note_on_c, 0, 66, 72
2,126518, Note_on_c, 0, 75, 87
2,126613, Note_on_c, 0, 66, 0
2,126655, Note_on_c, 0, 75, 0
2,126731, Note_on_c, 0, 80, 89
2,126738, Note_on_c, 0, 65, 71
2,126772, Note_on_c, 0, 83, 0
2,126929, Note_on_c, 0, 83, 89
2,126947, Note_on_c, 0, 61, 64
2,126950, Note_on_c, 0, 65, 0
2,127054, Note_on_c, 0, 83, 0
2,127137, Note_on_c, 0, 56, 0
2,127188, Note_on_c, 0, 66, 55
2,127190, Note_on_c, 0, 82, 82
2,127226, Note_on_c, 0, 61, 0
2,127263, Note_on_c, 0, 80, 0
2,127411, Note_on_c, 0, 77, 79
2,127413, Note_on_c, 0, 68, 62
2,127429, Note_on_c, 0, 66, 0
2,127566, Note_on_c, 0, 77, 0
2,127659, Note_on_c, 0, 70, 50
2,127665, Note_on_c, 0, 78, 82
2,127707, Note_on_c, 0, 68, 0
2,127844, Note_on_c, 0, 70, 0
2,127857, Note_on_c, 0, 66, 57
2,127879, Note_on_c, 0, 82, 0
2,127880, Note_on_c, 0, 73, 77
2,127946, Note_on_c, 0, 73, 0
2,128081, Note_on_c, 0, 63, 42
2,128113, Note_on_c, 0, 81, 68
2,128121, Note_on_c, 0, 66, 0
2,128150, Note_on_c, 0, 78, 0
2,128219, Note_on_c, 0, 80, 69
2,128285, Note_on_c, 0, 64, 50
2,128310, Note_on_c, 0, 63, 0
2,128315, Note_on_c, 0, 78, 78
2,128334, Note_on_c, 0, 81, 0
2,128399, Note_on_c, 0, 76, 71
2,128399, Note_on_c, 0, 80, 0
2,128472, Note_on_c, 0, 78, 0
2,128485, Note_on_c, 0, 64, 0
2,128497, Note_on_c, 0, 66, 47
2,128507, Note_on_c, 0, 75, 82
2,128555, Note_on_c, 0, 76, 0
2,128701, Note_on_c, 0, 78, 79
2,128709, Note_on_c, 0, 63, 52
2,128821, Note_on_c, 0, 78, 0
2,128892, Note_on_c, 0, 63, 0
2,128920, Note_on_c, 0, 80, 80
2,128921, Note_on_c, 0, 60, 50
2,128952, Note_on_c, 0, 75, 0
2,129145, Note_on_c, 0, 76, 58
2,129149, Note_on_c, 0, 61, 40
2,129161, Note_on_c, 0, 66, 0
2,129221, Note_on_c, 0, 60, 0
2,129332, Control_c, 0, 64, 48
2,129350, Note_on_c, 0, 63, 44
2,129352, Note_on_c, 0, 61, 0
2,129362, Note_on_c, 0, 78, 59
2,129385, Note_on_c, 0, 76, 0
2,129534, Note_on_c, 0, 63, 0
2,129547, Note_on_c, 0, 75, 53
2,129553, Note_on_c, 0, 60, 43
2,129626, Note_on_c, 0, 78, 0
2,129741, Note_on_c, 0, 60, 0
2,129777, Note_on_c, 0, 61, 42
2,129778, Note_on_c, 0, 76, 53
2,129872, Note_on_c, 0, 75, 0
2,129975, Note_on_c, 0, 61, 0
2,129983, Note_on_c, 0, 63, 41
2,129985, Note_on_c, 0, 72, 51
2,129992, Control_c, 0, 64, 48
2,130114, Control_c, 0, 64, 47
2,130176, Control_c, 0, 64, 47
2,130190, Note_on_c, 0, 76, 0
2,130200, Note_on_c, 0, 63, 0
2,130209, Note_on_c, 0, 73, 51
2,130213, Note_on_c, 0, 64, 40
2,130221, Control_c, 0, 64, 46
2,130221, Note_on_c, 0, 72, 0
2,130237, Control_c, 0, 64, 45
2,130251, Control_c, 0, 64, 42
2,130266, Control_c, 0, 64, 42
2,130312, Control_c, 0, 64, 44
2,130327, Control_c, 0, 64, 47
2,130342, Control_c, 0, 64, 51
2,130358, Control_c, 0, 64, 55
2,130373, Control_c, 0, 64, 58
2,130388, Control_c, 0, 64, 60
2,130403, Control_c, 0, 64, 62
2,130418, Control_c, 0, 64, 64
2,130430, Note_on_c, 0, 76, 48
2,130433, Control_c, 0, 64, 67
2,130449, Control_c, 0, 64, 69
2,130463, Control_c, 0, 64, 73
2,130479, Control_c, 0, 64, 76
2,130494, Control_c, 0, 64, 80
2,130514, Note_on_c, 0, 80, 0
2,130518, Control_c, 0, 64, 81
2,130533, Control_c, 0, 64, 82
2,130547, Control_c, 0, 64, 81
2,130563, Control_c, 0, 64, 80
2,130578, Control_c, 0, 64, 79
2,130593, Control_c, 0, 64, 78
2,130609, Control_c, 0, 64, 76
2,130623, Control_c, 0, 64, 74
2,130639, Control_c, 0, 64, 73
2,130654, Control_c, 0, 64, 72
2,130656, Note_on_c, 0, 64, 0
2,130668, Control_c, 0, 64, 70
2,130679, Note_on_c, 0, 70, 53
2,130684, Control_c, 0, 64, 69
2,130699, Control_c, 0, 64, 67
2,130714, Control_c, 0, 64, 65
2,130730, Control_c, 0, 64, 64
2,130760, Control_c, 0, 64, 64
2,130760, Note_on_c, 0, 73, 0
2,130775, Control_c, 0, 64, 63
2,130790, Control_c, 0, 64, 63
2,130806, Control_c, 0, 64, 62
2,130821, Control_c, 0, 64, 59
2,130835, Control_c, 0, 64, 58
2,130851, Control_c, 0, 64, 57
2,130866, Control_c, 0, 64, 57
2,130869, Note_on_c, 0, 76, 0
2,130872, Note_on_c, 0, 80, 53
2,130882, Control_c, 0, 64, 56
2,130887, Note_on_c, 0, 64, 34
2,130897, Control_c, 0, 64, 54
2,130912, Control_c, 0, 64, 48
2,130928, Control_c, 0, 64, 40
2,130943, Control_c, 0, 64, 34
2,130959, Control_c, 0, 64, 31
2,130974, Control_c, 0, 64, 30
2,130988, Control_c, 0, 64, 30
2,131095, Control_c, 0, 64, 31
2,131099, Note_on_c, 0, 63, 44
2,131099, Note_on_c, 0, 78, 57
2,131110, Control_c, 0, 64, 36
2,131126, Control_c, 0, 64, 41
2,131141, Control_c, 0, 64, 48
2,131157, Control_c, 0, 64, 52
2,131171, Control_c, 0, 64, 55
2,131186, Control_c, 0, 64, 58
2,131202, Control_c, 0, 64, 61
2,131211, Note_on_c, 0, 64, 0
2,131217, Control_c, 0, 64, 63
2,131232, Control_c, 0, 64, 65
2,131247, Control_c, 0, 64, 66
2,131262, Control_c, 0, 64, 67
2,131286, Control_c, 0, 64, 67
2,131313, Note_on_c, 0, 76, 55
2,131321, Note_on_c, 0, 61, 36
2,131362, Control_c, 0, 64, 67
2,131391, Control_c, 0, 64, 66
2,131407, Control_c, 0, 64, 66
2,131422, Control_c, 0, 64, 65
2,131422, Note_on_c, 0, 70, 0
2,131438, Control_c, 0, 64, 65
2,131453, Control_c, 0, 64, 64
2,131467, Control_c, 0, 64, 64
2,131483, Control_c, 0, 64, 63
2,131493, Note_on_c, 0, 63, 0
2,131498, Control_c, 0, 64, 63
2,131510, Note_on_c, 0, 61, 0
2,131525, Note_on_c, 0, 59, 47
2,131527, Note_on_c, 0, 71, 60
2,131527, Note_on_c, 0, 75, 55
2,131528, Control_c, 0, 64, 62
2,131543, Control_c, 0, 64, 61
2,131549, Note_on_c, 0, 76, 0
2,131559, Control_c, 0, 64, 60
2,131566, Note_on_c, 0, 78, 0
2,131574, Control_c, 0, 64, 59
2,131588, Control_c, 0, 64, 56
2,131604, Control_c, 0, 64, 54
2,131613, Note_on_c, 0, 80, 0
2,131619, Control_c, 0, 64, 53
2,131634, Control_c, 0, 64, 50
2,131650, Control_c, 0, 64, 47
2,131664, Control_c, 0, 64, 42
2,131680, Control_c, 0, 64, 32
2,131695, Control_c, 0, 64, 22
2,131710, Control_c, 0, 64, 14
2,131715, Note_on_c, 0, 75, 0
2,131726, Control_c, 0, 64, 12
2,131757, Note_on_c, 0, 76, 54
2,131774, Note_on_c, 0, 61, 29
2,131832, Control_c, 0, 64, 16
2,131848, Control_c, 0, 64, 21
2,131863, Control_c, 0, 64, 24
2,131879, Control_c, 0, 64, 26
2,131894, Control_c, 0, 64, 28
2,131909, Control_c, 0, 64, 30
2,131925, Control_c, 0, 64, 33
2,131939, Control_c, 0, 64, 36
2,131954, Control_c, 0, 64, 40
2,131954, Note_on_c, 0, 78, 66
2,131965, Note_on_c, 0, 63, 41
2,131968, Note_on_c, 0, 59, 0
2,131970, Control_c, 0, 64, 45
2,131985, Control_c, 0, 64, 49
2,131997, Note_on_c, 0, 61, 0
2,132001, Control_c, 0, 64, 53
2,132015, Control_c, 0, 64, 56
2,132030, Control_c, 0, 64, 59
2,132053, Control_c, 0, 64, 62
2,132068, Control_c, 0, 64, 64
2,132084, Control_c, 0, 64, 66
2,132099, Control_c, 0, 64, 67
2,132113, Control_c, 0, 64, 69
2,132129, Control_c, 0, 64, 70
2,132144, Control_c, 0, 64, 72
2,132160, Control_c, 0, 64, 74
2,132162, Note_on_c, 0, 63, 0
2,132174, Note_on_c, 0, 59, 47
2,132174, Note_on_c, 0, 75, 67
2,132175, Control_c, 0, 64, 75
2,132190, Control_c, 0, 64, 76
2,132216, Note_on_c, 0, 76, 0
2,132221, Control_c, 0, 64, 76
2,132221, Note_on_c, 0, 78, 0
2,132251, Control_c, 0, 64, 77
2,132258, Note_on_c, 0, 59, 0
2,132342, Control_c, 0, 64, 76
2,132357, Control_c, 0, 64, 76
2,132372, Control_c, 0, 64, 75
2,132387, Control_c, 0, 64, 75
2,132403, Control_c, 0, 64, 74
2,132407, Note_on_c, 0, 56, 42
2,132416, Note_on_c, 0, 76, 64
2,132418, Control_c, 0, 64, 73
2,132432, Control_c, 0, 64, 72
2,132448, Control_c, 0, 64, 71
2,132463, Control_c, 0, 64, 70
2,132478, Control_c, 0, 64, 69
2,132478, Note_on_c, 0, 75, 0
2,132493, Control_c, 0, 64, 67
2,132508, Control_c, 0, 64, 66
2,132524, Control_c, 0, 64, 64
2,132539, Control_c, 0, 64, 62
2,132555, Control_c, 0, 64, 60
2,132571, Control_c, 0, 64, 59
2,132585, Control_c, 0, 64, 59
2,132601, Control_c, 0, 64, 58
2,132616, Control_c, 0, 64, 57
2,132631, Control_c, 0, 64, 54
2,132643, Note_on_c, 0, 73, 60
2,132647, Control_c, 0, 64, 51
2,132654, Note_on_c, 0, 58, 54
2,132661, Control_c, 0, 64, 46
2,132677, Control_c, 0, 64, 40
2,132688, Note_on_c, 0, 71, 0
2,132692, Control_c, 0, 64, 32
2,132707, Control_c, 0, 64, 8
2,132723, Control_c, 0, 64, 0
2,132784, Note_on_c, 0, 56, 0
2,132866, Note_on_c, 0, 75, 71
2,132883, Note_on_c, 0, 59, 63
2,132912, Control_c, 0, 64, 34
2,132927, Control_c, 0, 64, 53
2,132942, Control_c, 0, 64, 60
2,132958, Control_c, 0, 64, 63
2,132967, Note_on_c, 0, 58, 0
2,132973, Control_c, 0, 64, 64
2,132988, Control_c, 0, 64, 64
2,133050, Control_c, 0, 64, 64
2,133061, Note_on_c, 0, 73, 0
2,133080, Note_on_c, 0, 56, 67
2,133086, Note_on_c, 0, 71, 71
2,133095, Control_c, 0, 64, 63
2,133110, Control_c, 0, 64, 63
2,133113, Note_on_c, 0, 59, 0
2,133140, Control_c, 0, 64, 62
2,133144, Note_on_c, 0, 75, 0
2,133231, Control_c, 0, 64, 62
2,133292, Control_c, 0, 64, 61
2,133308, Note_on_c, 0, 73, 79
2,133319, Note_on_c, 0, 58, 74
2,133379, Note_on_c, 0, 56, 0
2,133381, Note_on_c, 0, 71, 0
2,133400, Control_c, 0, 64, 61
2,133536, Note_on_c, 0, 68, 81
2,133541, Note_on_c, 0, 59, 80
2,133590, Note_on_c, 0, 58, 0
2,133605, Control_c, 0, 64, 60
2,133620, Control_c, 0, 64, 60
2,133650, Control_c, 0, 64, 59
2,133726, Control_c, 0, 64, 58
2,133741, Control_c, 0, 64, 55
2,133757, Control_c, 0, 64, 51
2,133771, Control_c, 0, 64, 46
2,133772, Note_on_c, 0, 70, 80
2,133774, Note_on_c, 0, 61, 84
2,133786, Control_c, 0, 64, 33
2,133802, Control_c, 0, 64, 24
2,133811, Note_on_c, 0, 73, 0
2,133817, Control_c, 0, 64, 22
2,133832, Control_c, 0, 64, 21
2,133845, Note_on_c, 0, 68, 0
2,133908, Control_c, 0, 64, 31
2,133924, Control_c, 0, 64, 46
2,133939, Control_c, 0, 64, 56
2,133954, Control_c, 0, 64, 61
2,133969, Control_c, 0, 64, 65
2,133984, Control_c, 0, 64, 70
2,134000, Control_c, 0, 64, 76
2,134005, Note_on_c, 0, 73, 86
2,134015, Control_c, 0, 64, 86
2,134029, Note_on_c, 0, 76, 0
2,134030, Control_c, 0, 64, 103
2,134045, Control_c, 0, 64, 127
2,134124, Note_on_c, 0, 61, 0
2,134331, Note_on_c, 0, 75, 80
2,134341, Note_on_c, 0, 47, 81
2,134351, Note_on_c, 0, 66, 53
2,134373, Control_c, 0, 64, 105
2,134388, Control_c, 0, 64, 94
2,134403, Control_c, 0, 64, 88
2,134416, Note_on_c, 0, 59, 0
2,134418, Control_c, 0, 64, 82
2,134431, Note_on_c, 0, 73, 0
2,134433, Control_c, 0, 64, 75
2,134449, Control_c, 0, 64, 68
2,134459, Note_on_c, 0, 70, 0
2,134464, Control_c, 0, 64, 60
2,134479, Control_c, 0, 64, 52
2,134494, Control_c, 0, 64, 45
2,134509, Control_c, 0, 64, 39
2,134525, Control_c, 0, 64, 14
2,134540, Control_c, 0, 64, 0
2,134709, Note_on_c, 0, 59, 52
2,134783, Control_c, 0, 64, 32
2,134799, Control_c, 0, 64, 51
2,134813, Control_c, 0, 64, 60
2,134828, Control_c, 0, 64, 64
2,134844, Control_c, 0, 64, 66
2,134855, Note_on_c, 0, 47, 0
2,134859, Control_c, 0, 64, 69
2,134874, Control_c, 0, 64, 72
2,134889, Control_c, 0, 64, 78
2,134904, Control_c, 0, 64, 85
2,134920, Control_c, 0, 64, 92
2,134927, Note_on_c, 0, 59, 0
2,134928, Note_on_c, 0, 71, 75
2,134935, Control_c, 0, 64, 103
2,134948, Note_on_c, 0, 58, 56
2,134950, Control_c, 0, 64, 116
2,134965, Control_c, 0, 64, 127
2,135140, Note_on_c, 0, 58, 0
2,135149, Note_on_c, 0, 56, 67
2,135354, Note_on_c, 0, 55, 59
2,135367, Note_on_c, 0, 51, 80
2,135368, Note_on_c, 0, 70, 75
2,135414, Control_c, 0, 64, 115
2,135429, Control_c, 0, 64, 93
2,135440, Note_on_c, 0, 71, 0
2,135445, Control_c, 0, 64, 81
2,135451, Note_on_c, 0, 56, 0
2,135459, Control_c, 0, 64, 71
2,135474, Control_c, 0, 64, 63
2,135490, Control_c, 0, 64, 53
2,135505, Control_c, 0, 64, 42
2,135521, Control_c, 0, 64, 37
2,135532, Note_on_c, 0, 75, 0
2,135535, Control_c, 0, 64, 23
2,135550, Control_c, 0, 64, 0
2,135656, Note_on_c, 0, 56, 50
2,135674, Note_on_c, 0, 55, 0
2,135824, Control_c, 0, 64, 8
2,135832, Note_on_c, 0, 73, 70
2,135841, Control_c, 0, 64, 34
2,135844, Note_on_c, 0, 58, 69
2,135856, Control_c, 0, 64, 46
2,135868, Note_on_c, 0, 56, 0
2,135871, Control_c, 0, 64, 54
2,135893, Control_c, 0, 64, 60
2,135908, Control_c, 0, 64, 62
2,135924, Control_c, 0, 64, 64
2,135928, Note_on_c, 0, 66, 0
2,135939, Control_c, 0, 64, 66
2,135954, Control_c, 0, 64, 67
2,135969, Control_c, 0, 64, 68
2,135984, Control_c, 0, 64, 69
2,136000, Control_c, 0, 64, 70
2,136015, Control_c, 0, 64, 71
2,136030, Control_c, 0, 64, 71
2,136046, Control_c, 0, 64, 72
2,136048, Note_on_c, 0, 55, 73
2,136077, Control_c, 0, 64, 72
2,136091, Control_c, 0, 64, 73
2,136106, Control_c, 0, 64, 74
2,136111, Note_on_c, 0, 58, 0
2,136122, Control_c, 0, 64, 74
2,136137, Control_c, 0, 64, 75
2,136182, Control_c, 0, 64, 74
2,136208, Note_on_c, 0, 73, 0
2,136213, Control_c, 0, 64, 74
2,136216, Note_on_c, 0, 51, 0
2,136227, Control_c, 0, 64, 73
2,136258, Control_c, 0, 64, 73
2,136273, Control_c, 0, 64, 72
2,136289, Control_c, 0, 64, 70
2,136303, Control_c, 0, 64, 68
2,136306, Note_on_c, 0, 56, 79
2,136319, Control_c, 0, 64, 65
2,136320, Note_on_c, 0, 71, 60
2,136334, Control_c, 0, 64, 63
2,136349, Control_c, 0, 64, 60
2,136365, Control_c, 0, 64, 55
2,136367, Note_on_c, 0, 55, 0
2,136379, Control_c, 0, 64, 39
2,136379, Note_on_c, 0, 70, 0
2,136394, Control_c, 0, 64, 0
2,136577, Control_c, 0, 64, 30
2,136592, Control_c, 0, 64, 54
2,136599, Note_on_c, 0, 59, 62
2,136608, Control_c, 0, 64, 63
2,136623, Control_c, 0, 64, 68
2,136638, Control_c, 0, 64, 75
2,136662, Control_c, 0, 64, 92
2,136678, Control_c, 0, 64, 127
2,136700, Note_on_c, 0, 56, 0
2,136810, Note_on_c, 0, 68, 75
2,136811, Note_on_c, 0, 61, 75
2,136813, Note_on_c, 0, 59, 0
2,136938, Note_on_c, 0, 71, 0
2,136999, Note_on_c, 0, 61, 0
2,137005, Note_on_c, 0, 63, 72
2,137017, Note_on_c, 0, 67, 82
2,137062, Note_on_c, 0, 68, 0
2,137126, Note_on_c, 0, 63, 0
2,137225, Note_on_c, 0, 64, 13
2,137231, Note_on_c, 0, 52, 86
2,137248, Note_on_c, 0, 68, 82
2,137299, Control_c, 0, 64, 119
2,137314, Control_c, 0, 64, 92
2,137330, Control_c, 0, 64, 79
2,137345, Control_c, 0, 64, 68
2,137361, Control_c, 0, 64, 60
2,137376, Control_c, 0, 64, 49
2,137390, Control_c, 0, 64, 45
2,137406, Control_c, 0, 64, 44
2,137428, Control_c, 0, 64, 42
2,137438, Note_on_c, 0, 71, 74
2,137444, Control_c, 0, 64, 37
2,137459, Control_c, 0, 64, 31
2,137474, Control_c, 0, 64, 19
2,137491, Control_c, 0, 64, 0
2,137546, Note_on_c, 0, 68, 0
2,137652, Note_on_c, 0, 76, 87
2,137654, Note_on_c, 0, 59, 77
2,137662, Note_on_c, 0, 67, 0
2,137671, Control_c, 0, 64, 41
2,137681, Note_on_c, 0, 71, 0
2,137687, Control_c, 0, 64, 56
2,137701, Control_c, 0, 64, 64
2,137716, Control_c, 0, 64, 68
2,137732, Control_c, 0, 64, 74
2,137747, Control_c, 0, 64, 86
2,137763, Control_c, 0, 64, 105
2,137777, Control_c, 0, 64, 127
2,137786, Note_on_c, 0, 76, 0
2,137850, Note_on_c, 0, 52, 0
2,137858, Note_on_c, 0, 71, 79
2,137858, Note_on_c, 0, 78, 93
2,137936, Note_on_c, 0, 64, 0
2,138043, Note_on_c, 0, 78, 0
2,138091, Note_on_c, 0, 49, 82
2,138093, Note_on_c, 0, 80, 88
2,138099, Note_on_c, 0, 76, 75
2,138142, Control_c, 0, 64, 100
2,138158, Control_c, 0, 64, 84
2,138163, Note_on_c, 0, 59, 0
2,138173, Control_c, 0, 64, 70
2,138194, Control_c, 0, 64, 60
2,138210, Control_c, 0, 64, 40
2,138225, Control_c, 0, 64, 20
2,138241, Control_c, 0, 64, 14
2,138256, Control_c, 0, 64, 0
2,138339, Note_on_c, 0, 56, 63
2,138534, Note_on_c, 0, 58, 76
2,138653, Control_c, 0, 64, 19
2,138668, Control_c, 0, 64, 48
2,138684, Control_c, 0, 64, 61
2,138698, Control_c, 0, 64, 66
2,138712, Note_on_c, 0, 59, 78
2,138713, Control_c, 0, 64, 69
2,138724, Note_on_c, 0, 49, 0
2,138729, Control_c, 0, 64, 73
2,138733, Note_on_c, 0, 56, 0
2,138744, Control_c, 0, 64, 77
2,138759, Control_c, 0, 64, 81
2,138762, Note_on_c, 0, 58, 0
2,138774, Control_c, 0, 64, 82
2,138789, Control_c, 0, 64, 84
2,138895, Note_on_c, 0, 80, 0
2,138898, Note_on_c, 0, 76, 0
2,138910, Control_c, 0, 64, 83
2,138926, Control_c, 0, 64, 82
2,138926, Note_on_c, 0, 61, 75
2,138932, Note_on_c, 0, 58, 71
2,138939, Note_on_c, 0, 59, 0
2,138941, Control_c, 0, 64, 79
2,138964, Control_c, 0, 64, 76
2,138979, Control_c, 0, 64, 73
2,138994, Control_c, 0, 64, 70
2,139010, Control_c, 0, 64, 66
2,139025, Control_c, 0, 64, 63
2,139040, Control_c, 0, 64, 57
2,139055, Control_c, 0, 64, 51
2,139070, Control_c, 0, 64, 44
2,139085, Control_c, 0, 64, 37
2,139100, Control_c, 0, 64, 26
2,139106, Note_on_c, 0, 71, 0
2,139118, Control_c, 0, 64, 0
2,139141, Note_on_c, 0, 80, 63
2,139154, Note_on_c, 0, 76, 59
2,139351, Note_on_c, 0, 66, 72
2,139375, Note_on_c, 0, 76, 0
2,139375, Note_on_c, 0, 78, 67
2,139384, Note_on_c, 0, 75, 62
2,139512, Control_c, 0, 64, 14
2,139528, Control_c, 0, 64, 39
2,139542, Control_c, 0, 64, 50
2,139558, Control_c, 0, 64, 57
2,139570, Note_on_c, 0, 73, 59
2,139573, Control_c, 0, 64, 61
2,139587, Note_on_c, 0, 76, 60
2,139588, Control_c, 0, 64, 63
2,139596, Note_on_c, 0, 75, 0
2,139603, Control_c, 0, 64, 64
2,139618, Control_c, 0, 64, 65
2,139633, Control_c, 0, 64, 67
2,139649, Control_c, 0, 64, 68
2,139664, Control_c, 0, 64, 70
2,139679, Control_c, 0, 64, 72
2,139689, Note_on_c, 0, 73, 0
2,139694, Control_c, 0, 64, 74
2,139709, Control_c, 0, 64, 74
2,139778, Control_c, 0, 64, 74
2,139793, Control_c, 0, 64, 73
2,139803, Note_on_c, 0, 59, 68
2,139806, Note_on_c, 0, 75, 67
2,139808, Control_c, 0, 64, 72
2,139812, Note_on_c, 0, 71, 50
2,139823, Control_c, 0, 64, 70
2,139833, Note_on_c, 0, 61, 0
2,139839, Control_c, 0, 64, 66
2,139842, Note_on_c, 0, 58, 0
2,139854, Control_c, 0, 64, 62
2,139869, Control_c, 0, 64, 56
2,139872, Note_on_c, 0, 66, 0
2,139873, Note_on_c, 0, 76, 0
2,139884, Control_c, 0, 64, 50
2,139894, Note_on_c, 0, 78, 0
2,139899, Control_c, 0, 64, 45
2,139914, Control_c, 0, 64, 43
2,139928, Note_on_c, 0, 80, 0
2,139931, Control_c, 0, 64, 42
2,139946, Control_c, 0, 64, 42
2,139962, Control_c, 0, 64, 41
2,139991, Control_c, 0, 64, 40
2,140027, Note_on_c, 0, 68, 63
2,140221, Note_on_c, 0, 66, 69
2,140313, Note_on_c, 0, 68, 0
2,140427, Note_on_c, 0, 64, 69
2,140429, Note_on_c, 0, 66, 0
2,140647, Note_on_c, 0, 71, 0
2,140649, Note_on_c, 0, 63, 61
2,140690, Note_on_c, 0, 59, 0
2,140693, Note_on_c, 0, 64, 0
2,140843, Note_on_c, 0, 67, 56
2,140846, Note_on_c, 0, 61, 54
2,141017, Control_c, 0, 64, 40
2,141055, Note_on_c, 0, 59, 49
2,141078, Note_on_c, 0, 68, 61
2,141154, Control_c, 0, 64, 39
2,141193, Note_on_c, 0, 67, 0
2,141234, Note_on_c, 0, 59, 0
2,141252, Note_on_c, 0, 58, 50
2,141268, Control_c, 0, 64, 39
2,141272, Note_on_c, 0, 70, 59
2,141313, Control_c, 0, 64, 38
2,141336, Note_on_c, 0, 63, 0
2,141344, Control_c, 0, 64, 37
2,141360, Control_c, 0, 64, 37
2,141375, Control_c, 0, 64, 36
2,141405, Control_c, 0, 64, 36
2,141434, Control_c, 0, 64, 35
2,141450, Control_c, 0, 64, 35
2,141460, Note_on_c, 0, 68, 0
2,141465, Control_c, 0, 64, 34
2,141467, Note_on_c, 0, 70, 0
2,141469, Note_on_c, 0, 56, 57
2,141476, Note_on_c, 0, 71, 47
2,141489, Note_on_c, 0, 58, 0
2,141492, Note_on_c, 0, 61, 0
2,141495, Control_c, 0, 64, 34
2,141526, Control_c, 0, 64, 33
2,141541, Control_c, 0, 64, 32
2,141556, Control_c, 0, 64, 32
2,141573, Control_c, 0, 64, 31
2,141588, Control_c, 0, 64, 31
2,141603, Control_c, 0, 64, 30
2,141618, Control_c, 0, 64, 30
2,141648, Control_c, 0, 64, 29
2,141668, Note_on_c, 0, 64, 52
2,141684, Note_on_c, 0, 70, 44
2,141694, Control_c, 0, 64, 29
2,141724, Control_c, 0, 64, 28
2,141726, Note_on_c, 0, 71, 0
2,141739, Control_c, 0, 64, 28
2,141754, Control_c, 0, 64, 27
2,141785, Control_c, 0, 64, 26
2,141800, Control_c, 0, 64, 26
2,141815, Control_c, 0, 64, 24
2,141830, Control_c, 0, 64, 24
2,141846, Control_c, 0, 64, 22
2,141861, Control_c, 0, 64, 21
2,141869, Note_on_c, 0, 63, 51
2,141875, Control_c, 0, 64, 19
2,141879, Note_on_c, 0, 73, 54
2,141890, Note_on_c, 0, 64, 0
2,141891, Control_c, 0, 64, 17
2,141906, Control_c, 0, 64, 15
2,141922, Control_c, 0, 64, 14
2,141937, Control_c, 0, 64, 12
2,141968, Control_c, 0, 64, 10
2,141998, Control_c, 0, 64, 8
2,142059, Note_on_c, 0, 61, 50
2,142065, Control_c, 0, 64, 0
2,142071, Note_on_c, 0, 63, 0
2,142075, Note_on_c, 0, 67, 52
2,142091, Note_on_c, 0, 70, 0
2,142120, Note_on_c, 0, 73, 0
2,142253, Note_on_c, 0, 61, 0
2,142283, Note_on_c, 0, 56, 0
2,142289, Note_on_c, 0, 59, 47
2,142298, Note_on_c, 0, 68, 51
2,142322, Note_on_c, 0, 67, 0
2,142491, Note_on_c, 0, 58, 46
2,142697, Note_on_c, 0, 58, 0
2,142698, Note_on_c, 0, 56, 48
2,142830, Note_on_c, 0, 68, 0
2,142909, Note_on_c, 0, 54, 52
2,142951, Note_on_c, 0, 56, 0
2,143049, Note_on_c, 0, 75, 0
2,143136, Note_on_c, 0, 53, 43
2,143158, Note_on_c, 0, 54, 0
2,143363, Note_on_c, 0, 75, 47
2,143560, Note_on_c, 0, 74, 46
2,143652, Note_on_c, 0, 75, 0
2,143772, Note_on_c, 0, 72, 53
2,143806, Note_on_c, 0, 74, 0
2,143987, Note_on_c, 0, 72, 0
2,144001, Note_on_c, 0, 74, 55
2,144187, Note_on_c, 0, 75, 62
2,144188, Note_on_c, 0, 54, 50
2,144188, Note_on_c, 0, 59, 0
2,144219, Note_on_c, 0, 53, 0
2,144253, Note_on_c, 0, 74, 0
2,144402, Note_on_c, 0, 77, 71
2,144412, Note_on_c, 0, 53, 56
2,144443, Note_on_c, 0, 54, 0
2,144491, Note_on_c, 0, 75, 0
2,144594, Note_on_c, 0, 51, 60
2,144605, Note_on_c, 0, 53, 0
2,144606, Note_on_c, 0, 78, 77
2,144835, Note_on_c, 0, 51, 0
2,144849, Note_on_c, 0, 50, 43
2,144859, Note_on_c, 0, 80, 77
2,144897, Note_on_c, 0, 77, 0
2,144971, Note_on_c, 0, 78, 0
2,145053, Note_on_c, 0, 46, 45
2,145111, Note_on_c, 0, 50, 0
2,145245, Control_c, 0, 64, 8
2,145270, Note_on_c, 0, 48, 34
2,145275, Control_c, 0, 64, 10
2,145288, Note_on_c, 0, 77, 54
2,145291, Control_c, 0, 64, 14
2,145305, Control_c, 0, 64, 16
2,145321, Control_c, 0, 64, 22
2,145336, Control_c, 0, 64, 30
2,145351, Control_c, 0, 64, 39
2,145366, Control_c, 0, 64, 46
2,145381, Control_c, 0, 64, 52
2,145396, Control_c, 0, 64, 56
2,145401, Note_on_c, 0, 46, 0
2,145412, Control_c, 0, 64, 59
2,145427, Control_c, 0, 64, 61
2,145442, Control_c, 0, 64, 63
2,145457, Control_c, 0, 64, 65
2,145472, Control_c, 0, 64, 67
2,145474, Note_on_c, 0, 48, 0
2,145487, Control_c, 0, 64, 68
2,145490, Note_on_c, 0, 50, 47
2,145502, Control_c, 0, 64, 70
2,145518, Control_c, 0, 64, 71
2,145533, Control_c, 0, 64, 71
2,145548, Control_c, 0, 64, 72
2,145609, Control_c, 0, 64, 71
2,145621, Note_on_c, 0, 80, 0
2,145655, Control_c, 0, 64, 71
2,145670, Control_c, 0, 64, 70
2,145686, Control_c, 0, 64, 69
2,145690, Note_on_c, 0, 51, 57
2,145701, Control_c, 0, 64, 68
2,145710, Note_on_c, 0, 78, 76
2,145716, Control_c, 0, 64, 67
2,145732, Control_c, 0, 64, 66
2,145746, Control_c, 0, 64, 65
2,145746, Note_on_c, 0, 50, 0
2,145762, Control_c, 0, 64, 64
2,145777, Control_c, 0, 64, 63
2,145792, Control_c, 0, 64, 61
2,145808, Control_c, 0, 64, 60
2,145822, Note_on_c, 0, 77, 0
2,145823, Control_c, 0, 64, 58
2,145839, Control_c, 0, 64, 57
2,145854, Control_c, 0, 64, 56
2,145875, Control_c, 0, 64, 55
2,145891, Control_c, 0, 64, 53
2,145906, Control_c, 0, 64, 52
2,145918, Note_on_c, 0, 53, 61
2,145922, Control_c, 0, 64, 51
2,145937, Control_c, 0, 64, 50
2,145951, Control_c, 0, 64, 49
2,145967, Control_c, 0, 64, 48
2,145977, Note_on_c, 0, 51, 0
2,145982, Control_c, 0, 64, 47
2,145998, Control_c, 0, 64, 46
2,146013, Control_c, 0, 64, 45
2,146044, Control_c, 0, 64, 45
2,146134, Note_on_c, 0, 75, 73
2,146135, Note_on_c, 0, 54, 71
2,146173, Note_on_c, 0, 53, 0
2,146226, Control_c, 0, 64, 44
2,146315, Note_on_c, 0, 51, 66
2,146325, Note_on_c, 0, 73, 77
2,146370, Note_on_c, 0, 54, 0
2,146454, Control_c, 0, 64, 44
2,146562, Control_c, 0, 64, 43
2,146562, Note_on_c, 0, 56, 66
2,146563, Note_on_c, 0, 71, 76
2,146622, Control_c, 0, 64, 43
2,146623, Note_on_c, 0, 51, 0
2,146644, Note_on_c, 0, 75, 0
2,146660, Control_c, 0, 64, 42
2,146691, Note_on_c, 0, 73, 0
2,146706, Control_c, 0, 64, 42
2,146751, Control_c, 0, 64, 41
2,146773, Note_on_c, 0, 54, 69
2,146812, Control_c, 0, 64, 41
2,146823, Note_on_c, 0, 56, 0
2,146842, Control_c, 0, 64, 40
2,146978, Note_on_c, 0, 75, 79
2,146980, Note_on_c, 0, 56, 72
2,147040, Control_c, 0, 64, 41
2,147043, Note_on_c, 0, 54, 0
2,147055, Control_c, 0, 64, 46
2,147070, Control_c, 0, 64, 52
2,147086, Control_c, 0, 64, 55
2,147101, Control_c, 0, 64, 58
2,147116, Control_c, 0, 64, 60
2,147131, Control_c, 0, 64, 62
2,147146, Control_c, 0, 64, 63
2,147185, Note_on_c, 0, 58, 76
2,147191, Control_c, 0, 64, 63
2,147208, Note_on_c, 0, 71, 0
2,147244, Note_on_c, 0, 56, 0
2,147314, Control_c, 0, 64, 63
2,147318, Note_on_c, 0, 78, 0
2,147345, Control_c, 0, 64, 62
2,147360, Control_c, 0, 64, 61
2,147375, Control_c, 0, 64, 60
2,147390, Control_c, 0, 64, 59
2,147399, Note_on_c, 0, 68, 79
2,147412, Note_on_c, 0, 59, 72
2,147413, Control_c, 0, 64, 58
2,147428, Control_c, 0, 64, 56
2,147444, Control_c, 0, 64, 55
2,147459, Control_c, 0, 64, 54
2,147469, Note_on_c, 0, 58, 0
2,147473, Control_c, 0, 64, 53
2,147489, Control_c, 0, 64, 52
2,147504, Control_c, 0, 64, 52
2,147520, Control_c, 0, 64, 51
2,147535, Control_c, 0, 64, 51
2,147565, Control_c, 0, 64, 50
2,147595, Control_c, 0, 64, 50
2,147607, Note_on_c, 0, 58, 74
2,147612, Note_on_c, 0, 78, 82
2,147635, Note_on_c, 0, 59, 0
2,147641, Control_c, 0, 64, 49
2,147816, Note_on_c, 0, 77, 87
2,147821, Note_on_c, 0, 59, 80
2,147834, Note_on_c, 0, 75, 0
2,147847, Note_on_c, 0, 78, 0
2,147862, Note_on_c, 0, 58, 0
2,147914, Control_c, 0, 64, 50
2,147930, Control_c, 0, 64, 50
2,147945, Control_c, 0, 64, 51
2,147960, Control_c, 0, 64, 51
2,147990, Control_c, 0, 64, 52
2,148006, Control_c, 0, 64, 52
2,148012, Note_on_c, 0, 75, 89
2,148019, Note_on_c, 0, 56, 78
2,148030, Note_on_c, 0, 59, 0
2,148030, Note_on_c, 0, 77, 0
2,148035, Control_c, 0, 64, 53
2,148111, Control_c, 0, 64, 53
2,148254, Note_on_c, 0, 58, 79
2,148261, Note_on_c, 0, 74, 80
2,148278, Note_on_c, 0, 56, 0
2,148284, Note_on_c, 0, 75, 0
2,148287, Control_c, 0, 64, 53
2,148302, Control_c, 0, 64, 52
2,148318, Control_c, 0, 64, 52
2,148364, Control_c, 0, 64, 51
2,148461, Note_on_c, 0, 71, 78
2,148636, Control_c, 0, 64, 52
2,148652, Control_c, 0, 64, 52
2,148662, Note_on_c, 0, 70, 81
2,148682, Control_c, 0, 64, 53
2,148691, Note_on_c, 0, 68, 0
2,148874, Note_on_c, 0, 68, 83
2,148979, Control_c, 0, 64, 53
2,149138, Note_on_c, 0, 66, 88
2,149143, Note_on_c, 0, 70, 0
2,149165, Note_on_c, 0, 71, 0
2,149170, Note_on_c, 0, 68, 0
2,149360, Note_on_c, 0, 70, 90
2,149385, Note_on_c, 0, 74, 0
2,149510, Note_on_c, 0, 70, 0
2,149620, Note_on_c, 0, 75, 90
2,149776, Control_c, 0, 64, 54
2,149826, Note_on_c, 0, 57, 81
2,149853, Note_on_c, 0, 58, 0
2,150020, Control_c, 0, 64, 54
2,150050, Note_on_c, 0, 66, 0
2,150072, Note_on_c, 0, 58, 86
2,150085, Note_on_c, 0, 65, 80
2,150103, Note_on_c, 0, 57, 0
2,150268, Note_on_c, 0, 72, 78
2,150336, Note_on_c, 0, 75, 0
2,150480, Note_on_c, 0, 74, 82
2,150544, Note_on_c, 0, 72, 0
2,150574, Control_c, 0, 64, 55
2,150590, Control_c, 0, 64, 55
2,150660, Note_on_c, 0, 77, 91
2,150666, Control_c, 0, 64, 56
2,150711, Control_c, 0, 64, 56
2,150727, Control_c, 0, 64, 57
2,150742, Control_c, 0, 64, 57
2,150758, Control_c, 0, 64, 58
2,150773, Control_c, 0, 64, 59
2,150788, Control_c, 0, 64, 59
2,150819, Control_c, 0, 64, 60
2,150876, Note_on_c, 0, 46, 77
2,150883, Note_on_c, 0, 68, 81
2,150883, Note_on_c, 0, 77, 0
2,150929, Note_on_c, 0, 74, 0
2,150971, Control_c, 0, 64, 59
2,151001, Control_c, 0, 64, 59
2,151031, Control_c, 0, 64, 58
2,151047, Control_c, 0, 64, 58
2,151061, Control_c, 0, 64, 57
2,151076, Control_c, 0, 64, 57
2,151088, Note_on_c, 0, 71, 79
2,151092, Control_c, 0, 64, 56
2,151107, Control_c, 0, 64, 54
2,151122, Control_c, 0, 64, 53
2,151133, Note_on_c, 0, 68, 0
2,151137, Control_c, 0, 64, 52
2,151152, Control_c, 0, 64, 51
2,151168, Control_c, 0, 64, 50
2,151183, Control_c, 0, 64, 49
2,151198, Control_c, 0, 64, 48
2,151282, Control_c, 0, 64, 49
2,151297, Control_c, 0, 64, 52
2,151297, Note_on_c, 0, 70, 79
2,151312, Control_c, 0, 64, 55
2,151327, Control_c, 0, 64, 58
2,151342, Control_c, 0, 64, 61
2,151358, Control_c, 0, 64, 63
2,151373, Control_c, 0, 64, 65
2,151388, Control_c, 0, 64, 67
2,151405, Control_c, 0, 64, 70
2,151420, Control_c, 0, 64, 74
2,151434, Control_c, 0, 64, 81
2,151450, Control_c, 0, 64, 90
2,151465, Control_c, 0, 64, 105
2,151481, Control_c, 0, 64, 127
2,151509, Note_on_c, 0, 68, 75
2,151527, Note_on_c, 0, 58, 0
2,151630, Note_on_c, 0, 65, 0
2,151768, Note_on_c, 0, 54, 89
2,151785, Note_on_c, 0, 51, 65
2,151800, Control_c, 0, 64, 114
2,151800, Note_on_c, 0, 71, 0
2,151801, Note_on_c, 0, 66, 56
2,151815, Control_c, 0, 64, 96
2,151830, Control_c, 0, 64, 86
2,151845, Control_c, 0, 64, 77
2,151860, Control_c, 0, 64, 70
2,151875, Control_c, 0, 64, 64
2,151891, Control_c, 0, 64, 58
2,151903, Note_on_c, 0, 46, 0
2,151906, Control_c, 0, 64, 54
2,151907, Note_on_c, 0, 70, 0
2,151921, Control_c, 0, 64, 51
2,151921, Note_on_c, 0, 68, 0
2,151936, Control_c, 0, 64, 46
2,151951, Control_c, 0, 64, 39
2,151966, Control_c, 0, 64, 16
2,151981, Control_c, 0, 64, 0
2,152063, Note_on_c, 0, 65, 63
2,152072, Note_on_c, 0, 66, 0
2,152185, Control_c, 0, 64, 14
2,152201, Control_c, 0, 64, 40
2,152217, Control_c, 0, 64, 51
2,152232, Control_c, 0, 64, 58
2,152248, Control_c, 0, 64, 62
2,152263, Control_c, 0, 64, 66
2,152278, Control_c, 0, 64, 71
2,152278, Note_on_c, 0, 63, 64
2,152293, Control_c, 0, 64, 78
2,152302, Note_on_c, 0, 65, 0
2,152308, Control_c, 0, 64, 89
2,152324, Control_c, 0, 64, 116
2,152339, Control_c, 0, 64, 127
2,152469, Note_on_c, 0, 62, 70
2,152497, Note_on_c, 0, 63, 0
2,152652, Note_on_c, 0, 63, 53
2,152661, Note_on_c, 0, 58, 88
2,152735, Control_c, 0, 64, 103
2,152751, Control_c, 0, 64, 88
2,152766, Control_c, 0, 64, 76
2,152789, Control_c, 0, 64, 65
2,152794, Note_on_c, 0, 51, 0
2,152805, Control_c, 0, 64, 45
2,152819, Control_c, 0, 64, 0
2,152881, Note_on_c, 0, 52, 69
2,152967, Note_on_c, 0, 54, 0
2,153096, Note_on_c, 0, 51, 80
2,153139, Note_on_c, 0, 63, 0
2,153170, Control_c, 0, 64, 31
2,153185, Control_c, 0, 64, 47
2,153200, Control_c, 0, 64, 61
2,153215, Control_c, 0, 64, 68
2,153215, Note_on_c, 0, 52, 0
2,153231, Control_c, 0, 64, 77
2,153245, Control_c, 0, 64, 99
2,153260, Control_c, 0, 64, 127
2,153267, Note_on_c, 0, 49, 74
2,153331, Note_on_c, 0, 51, 0
2,153518, Note_on_c, 0, 47, 66
2,153555, Note_on_c, 0, 63, 87
2,153572, Control_c, 0, 64, 93
2,153577, Note_on_c, 0, 49, 0
2,153587, Control_c, 0, 64, 76
2,153603, Control_c, 0, 64, 63
2,153618, Control_c, 0, 64, 27
2,153634, Control_c, 0, 64, 0
2,153654, Note_on_c, 0, 62, 0
2,153835, Note_on_c, 0, 46, 68
2,153860, Note_on_c, 0, 47, 0
2,154086, Note_on_c, 0, 47, 75
2,154090, Note_on_c, 0, 66, 69
2,154136, Note_on_c, 0, 46, 0
2,154246, Note_on_c, 0, 63, 0
2,154257, Control_c, 0, 64, 27
2,154273, Control_c, 0, 64, 46
2,154288, Control_c, 0, 64, 55
2,154303, Control_c, 0, 64, 60
2,154303, Note_on_c, 0, 64, 59
2,154326, Control_c, 0, 64, 64
2,154341, Control_c, 0, 64, 66
2,154357, Control_c, 0, 64, 69
2,154371, Control_c, 0, 64, 71
2,154386, Control_c, 0, 64, 75
2,154402, Control_c, 0, 64, 79
2,154417, Control_c, 0, 64, 83
2,154423, Note_on_c, 0, 58, 0
2,154432, Control_c, 0, 64, 85
2,154447, Control_c, 0, 64, 85
2,154462, Control_c, 0, 64, 84
2,154478, Control_c, 0, 64, 83
2,154493, Control_c, 0, 64, 82
2,154508, Control_c, 0, 64, 81
2,154520, Note_on_c, 0, 59, 82
2,154523, Control_c, 0, 64, 80
2,154533, Note_on_c, 0, 63, 45
2,154538, Control_c, 0, 64, 79
2,154554, Control_c, 0, 64, 79
2,154569, Control_c, 0, 64, 78
2,154577, Note_on_c, 0, 64, 0
2,154584, Control_c, 0, 64, 76
2,154600, Control_c, 0, 64, 74
2,154615, Control_c, 0, 64, 72
2,154627, Note_on_c, 0, 66, 0
2,154629, Control_c, 0, 64, 70
2,154645, Control_c, 0, 64, 68
2,154660, Control_c, 0, 64, 66
2,154677, Control_c, 0, 64, 64
2,154691, Control_c, 0, 64, 62
2,154706, Control_c, 0, 64, 57
2,154722, Control_c, 0, 64, 53
2,154728, Note_on_c, 0, 63, 0
2,154737, Control_c, 0, 64, 48
2,154753, Control_c, 0, 64, 38
2,154754, Note_on_c, 0, 64, 56
2,154765, Note_on_c, 0, 49, 56
2,154768, Control_c, 0, 64, 12
2,154783, Control_c, 0, 64, 0
2,154834, Note_on_c, 0, 47, 0
2,154988, Note_on_c, 0, 66, 56
2,155015, Note_on_c, 0, 51, 74
2,155068, Note_on_c, 0, 49, 0
2,155125, Control_c, 0, 64, 18
2,155139, Control_c, 0, 64, 39
2,155155, Control_c, 0, 64, 48
2,155170, Control_c, 0, 64, 53
2,155185, Control_c, 0, 64, 59
2,155201, Control_c, 0, 64, 64
2,155208, Note_on_c, 0, 63, 57
2,155215, Control_c, 0, 64, 67
2,155231, Control_c, 0, 64, 70
2,155231, Note_on_c, 0, 59, 0
2,155246, Control_c, 0, 64, 74
2,155261, Control_c, 0, 64, 80
2,155276, Control_c, 0, 64, 85
2,155291, Control_c, 0, 64, 90
2,155306, Control_c, 0, 64, 92
2,155322, Control_c, 0, 64, 92
2,155382, Control_c, 0, 64, 92
2,155398, Control_c, 0, 64, 91
2,155413, Control_c, 0, 64, 90
2,155428, Control_c, 0, 64, 90
2,155439, Note_on_c, 0, 56, 80
2,155444, Control_c, 0, 64, 88
2,155459, Control_c, 0, 64, 87
2,155462, Note_on_c, 0, 59, 50
2,155474, Control_c, 0, 64, 84
2,155489, Control_c, 0, 64, 80
2,155504, Control_c, 0, 64, 74
2,155516, Note_on_c, 0, 64, 0
2,155520, Control_c, 0, 64, 68
2,155520, Note_on_c, 0, 63, 0
2,155535, Control_c, 0, 64, 62
2,155551, Control_c, 0, 64, 53
2,155566, Control_c, 0, 64, 42
2,155581, Control_c, 0, 64, 41
2,155597, Control_c, 0, 64, 41
2,155612, Control_c, 0, 64, 40
2,155627, Control_c, 0, 64, 40
2,155642, Control_c, 0, 64, 39
2,155657, Control_c, 0, 64, 38
2,155658, Note_on_c, 0, 66, 0
2,155663, Note_on_c, 0, 49, 48
2,155685, Note_on_c, 0, 61, 60
2,155688, Control_c, 0, 64, 37
2,155702, Control_c, 0, 64, 36
2,155733, Control_c, 0, 64, 36
2,155748, Control_c, 0, 64, 35
2,155809, Control_c, 0, 64, 35
2,155879, Note_on_c, 0, 49, 0
2,155881, Note_on_c, 0, 51, 0
2,155885, Note_on_c, 0, 47, 46
2,155904, Note_on_c, 0, 63, 63
2,155919, Note_on_c, 0, 59, 0
2,156094, Note_on_c, 0, 51, 55
2,156099, Note_on_c, 0, 59, 51
2,156104, Note_on_c, 0, 47, 0
2,156211, Control_c, 0, 64, 35
2,156269, Note_on_c, 0, 56, 0
2,156289, Note_on_c, 0, 65, 66
2,156290, Note_on_c, 0, 56, 26
2,156302, Note_on_c, 0, 59, 0
2,156304, Note_on_c, 0, 49, 45
2,156333, Control_c, 0, 64, 36
2,156367, Note_on_c, 0, 51, 0
2,156395, Control_c, 0, 64, 36
2,156471, Control_c, 0, 64, 37
2,156489, Note_on_c, 0, 56, 0
2,156491, Note_on_c, 0, 49, 0
2,156505, Note_on_c, 0, 58, 50
2,156514, Note_on_c, 0, 47, 38
2,156730, Note_on_c, 0, 61, 0
2,156740, Note_on_c, 0, 46, 45
2,156740, Note_on_c, 0, 47, 0
2,156751, Note_on_c, 0, 59, 53
2,156774, Note_on_c, 0, 58, 0
2,156784, Note_on_c, 0, 63, 0
2,156918, Note_on_c, 0, 46, 0
2,156941, Note_on_c, 0, 44, 36
2,157156, Note_on_c, 0, 42, 40
2,157176, Note_on_c, 0, 59, 0
2,157177, Note_on_c, 0, 66, 55
2,157180, Note_on_c, 0, 65, 0
2,157209, Note_on_c, 0, 44, 0
2,157376, Note_on_c, 0, 49, 40
2,157393, Note_on_c, 0, 59, 56
2,157418, Note_on_c, 0, 42, 0
2,157606, Note_on_c, 0, 59, 0
2,157617, Note_on_c, 0, 54, 51
2,157626, Note_on_c, 0, 58, 51
2,157646, Note_on_c, 0, 49, 0
2,157702, Control_c, 0, 64, 37
2,157718, Control_c, 0, 64, 39
2,157732, Control_c, 0, 64, 40
2,157747, Control_c, 0, 64, 42
2,157763, Control_c, 0, 64, 44
2,157778, Control_c, 0, 64, 45
2,157794, Control_c, 0, 64, 46
2,157808, Control_c, 0, 64, 47
2,157823, Control_c, 0, 64, 48
2,157825, Note_on_c, 0, 56, 53
2,157839, Control_c, 0, 64, 49
2,157843, Note_on_c, 0, 58, 0
2,157854, Control_c, 0, 64, 50
2,157869, Control_c, 0, 64, 50
2,157884, Control_c, 0, 64, 51
2,157899, Control_c, 0, 64, 52
2,157915, Control_c, 0, 64, 53
2,157929, Control_c, 0, 64, 54
2,157944, Control_c, 0, 64, 55
2,157961, Control_c, 0, 64, 56
2,157992, Control_c, 0, 64, 57
2,158000, Note_on_c, 0, 56, 0
2,158037, Note_on_c, 0, 58, 60
2,158128, Control_c, 0, 64, 56
2,158177, Note_on_c, 0, 66, 0
2,158197, Control_c, 0, 64, 56
2,158243, Note_on_c, 0, 52, 43
2,158245, Note_on_c, 0, 61, 51
2,158257, Control_c, 0, 64, 55
2,158288, Control_c, 0, 64, 55
2,158303, Control_c, 0, 64, 54
2,158318, Control_c, 0, 64, 54
2,158333, Control_c, 0, 64, 53
2,158348, Control_c, 0, 64, 52
2,158354, Note_on_c, 0, 54, 0
2,158364, Control_c, 0, 64, 51
2,158378, Control_c, 0, 64, 50
2,158394, Control_c, 0, 64, 49
2,158409, Control_c, 0, 64, 48
2,158424, Control_c, 0, 64, 46
2,158440, Control_c, 0, 64, 45
2,158450, Note_on_c, 0, 58, 0
2,158455, Control_c, 0, 64, 45
2,158469, Note_on_c, 0, 69, 59
2,158471, Control_c, 0, 64, 44
2,158486, Control_c, 0, 64, 43
2,158486, Note_on_c, 0, 66, 42
2,158496, Note_on_c, 0, 51, 50
2,158517, Control_c, 0, 64, 43
2,158517, Note_on_c, 0, 52, 0
2,158531, Control_c, 0, 64, 42
2,158549, Note_on_c, 0, 61, 0
2,158592, Control_c, 0, 64, 42
2,158690, Note_on_c, 0, 49, 44
2,158692, Note_on_c, 0, 51, 0
2,158914, Note_on_c, 0, 48, 51
2,158915, Note_on_c, 0, 49, 0
2,159113, Note_on_c, 0, 69, 0
2,159145, Note_on_c, 0, 49, 52
2,159193, Control_c, 0, 64, 42
2,159326, Note_on_c, 0, 69, 71
2,159339, Note_on_c, 0, 60, 54
2,159344, Note_on_c, 0, 51, 62
2,159346, Note_on_c, 0, 49, 0
2,159354, Note_on_c, 0, 48, 0
2,159386, Note_on_c, 0, 66, 0
2,159538, Note_on_c, 0, 48, 56
2,159539, Note_on_c, 0, 51, 0
2,159542, Note_on_c, 0, 66, 73
2,159761, Note_on_c, 0, 48, 0
2,159764, Note_on_c, 0, 68, 70
2,159768, Note_on_c, 0, 64, 52
2,159789, Note_on_c, 0, 44, 47
2,159849, Note_on_c, 0, 66, 0
2,159859, Note_on_c, 0, 60, 0
2,159869, Note_on_c, 0, 69, 0
2,159944, Control_c, 0, 64, 42
2,159960, Control_c, 0, 64, 41
2,159972, Note_on_c, 0, 46, 44
2,159974, Control_c, 0, 64, 40
2,159989, Control_c, 0, 64, 40
2,160005, Control_c, 0, 64, 39
2,160011, Note_on_c, 0, 44, 0
2,160020, Control_c, 0, 64, 38
2,160036, Control_c, 0, 64, 38
2,160050, Control_c, 0, 64, 36
2,160065, Control_c, 0, 64, 35
2,160081, Control_c, 0, 64, 34
2,160096, Control_c, 0, 64, 32
2,160112, Control_c, 0, 64, 30
2,160126, Control_c, 0, 64, 28
2,160141, Control_c, 0, 64, 25
2,160157, Control_c, 0, 64, 22
2,160172, Control_c, 0, 64, 17
2,160186, Control_c, 0, 64, 12
2,160192, Note_on_c, 0, 63, 45
2,160196, Note_on_c, 0, 66, 58
2,160201, Note_on_c, 0, 48, 44
2,160202, Control_c, 0, 64, 0
2,160257, Note_on_c, 0, 46, 0
2,160267, Note_on_c, 0, 64, 0
2,160280, Note_on_c, 0, 68, 0
2,160338, Control_c, 0, 67, 24
2,160354, Control_c, 0, 67, 44
2,160369, Control_c, 0, 67, 63
2,160381, Note_on_c, 0, 44, 36
2,160384, Control_c, 0, 67, 82
2,160400, Control_c, 0, 67, 103
2,160416, Control_c, 0, 67, 121
2,160432, Control_c, 0, 67, 127
2,160609, Note_on_c, 0, 49, 52
2,160637, Note_on_c, 0, 44, 0
2,160690, Note_on_c, 0, 66, 0
2,160752, Note_on_c, 0, 48, 0
2,160801, Note_on_c, 0, 51, 54
2,160863, Note_on_c, 0, 49, 0
2,160993, Note_on_c, 0, 63, 0
2,160999, Note_on_c, 0, 51, 0
2,161002, Note_on_c, 0, 52, 44
2,161026, Note_on_c, 0, 64, 47
2,161028, Note_on_c, 0, 61, 45
2,161207, Note_on_c, 0, 64, 0
2,161215, Note_on_c, 0, 61, 0
2,161232, Note_on_c, 0, 63, 50
2,161237, Note_on_c, 0, 60, 47
2,161405, Note_on_c, 0, 63, 0
2,161439, Note_on_c, 0, 64, 55
2,161451, Note_on_c, 0, 61, 44
2,161518, Note_on_c, 0, 60, 0
2,161625, Note_on_c, 0, 51, 48
2,161636, Note_on_c, 0, 61, 0
2,161638, Note_on_c, 0, 66, 59
2,161644, Note_on_c, 0, 64, 0
2,161647, Note_on_c, 0, 63, 43
2,161678, Note_on_c, 0, 52, 0
2,161686, Note_on_c, 0, 63, 0
2,161847, Note_on_c, 0, 49, 42
2,161867, Note_on_c, 0, 64, 44
2,161878, Note_on_c, 0, 68, 48
2,161932, Note_on_c, 0, 66, 0
2,161980, Note_on_c, 0, 51, 0
2,162058, Note_on_c, 0, 49, 0
2,162072, Note_on_c, 0, 47, 54
2,162282, Note_on_c, 0, 47, 0
2,162288, Note_on_c, 0, 46, 59
2,162396, Note_on_c, 0, 68, 0
2,162460, Note_on_c, 0, 47, 68
2,162469, Note_on_c, 0, 46, 0
2,162479, Note_on_c, 0, 64, 0
2,162698, Note_on_c, 0, 58, 73
2,162699, Note_on_c, 0, 68, 67
2,162702, Note_on_c, 0, 49, 53
2,162717, Note_on_c, 0, 47, 0
2,162890, Note_on_c, 0, 64, 76
2,162909, Note_on_c, 0, 46, 56
2,162913, Note_on_c, 0, 49, 0
2,162948, Note_on_c, 0, 68, 0
2,163112, Note_on_c, 0, 42, 48
2,163113, Note_on_c, 0, 66, 65
2,163138, Note_on_c, 0, 63, 63
2,163149, Note_on_c, 0, 46, 0
2,163167, Note_on_c, 0, 58, 0
2,163184, Note_on_c, 0, 64, 0
2,163325, Note_on_c, 0, 44, 46
2,163331, Note_on_c, 0, 42, 0
2,163539, Note_on_c, 0, 44, 0
2,163553, Note_on_c, 0, 64, 57
2,163555, Note_on_c, 0, 46, 45
2,163570, Note_on_c, 0, 61, 42
2,163584, Note_on_c, 0, 66, 0
2,163648, Note_on_c, 0, 63, 0
2,163747, Note_on_c, 0, 46, 0
2,163754, Note_on_c, 0, 42, 43
2,163960, Note_on_c, 0, 42, 0
2,163964, Note_on_c, 0, 47, 46
2,164168, Note_on_c, 0, 49, 42
2,164197, Note_on_c, 0, 47, 0
2,164377, Note_on_c, 0, 64, 0
2,164381, Note_on_c, 0, 51, 44
2,164388, Note_on_c, 0, 61, 0
2,164392, Note_on_c, 0, 63, 45
2,164396, Note_on_c, 0, 59, 45
2,164408, Note_on_c, 0, 49, 0
2,164580, Note_on_c, 0, 63, 0
2,164599, Note_on_c, 0, 61, 52
2,164619, Note_on_c, 0, 58, 37
2,164624, Note_on_c, 0, 59, 0
2,164799, Note_on_c, 0, 58, 0
2,164811, Note_on_c, 0, 59, 43
2,164820, Note_on_c, 0, 63, 50
2,165008, Note_on_c, 0, 49, 37
2,165008, Note_on_c, 0, 61, 0
2,165018, Note_on_c, 0, 64, 55
2,165020, Note_on_c, 0, 59, 0
2,165025, Note_on_c, 0, 63, 0
2,165102, Note_on_c, 0, 51, 0
2,165255, Note_on_c, 0, 66, 56
2,165259, Note_on_c, 0, 47, 35
2,165260, Note_on_c, 0, 49, 0
2,165263, Note_on_c, 0, 63, 49
2,165279, Note_on_c, 0, 64, 0
2,165478, Note_on_c, 0, 47, 0
2,165493, Note_on_c, 0, 51, 39
2,165503, Control_c, 0, 64, 8
2,165519, Control_c, 0, 64, 10
2,165519, Control_c, 0, 67, 127
2,165534, Control_c, 0, 67, 119
2,165549, Control_c, 0, 64, 12
2,165549, Control_c, 0, 67, 111
2,165564, Control_c, 0, 67, 104
2,165579, Control_c, 0, 64, 14
2,165579, Control_c, 0, 67, 98
2,165595, Control_c, 0, 67, 92
2,165609, Control_c, 0, 67, 84
2,165624, Control_c, 0, 64, 15
2,165624, Control_c, 0, 67, 79
2,165640, Control_c, 0, 67, 73
2,165655, Control_c, 0, 67, 67
2,165670, Control_c, 0, 64, 16
2,165670, Control_c, 0, 67, 61
2,165686, Control_c, 0, 67, 55
2,165701, Control_c, 0, 67, 47
2,165717, Control_c, 0, 67, 39
2,165731, Control_c, 0, 67, 32
2,165746, Control_c, 0, 67, 24
2,165762, Control_c, 0, 67, 17
2,165777, Control_c, 0, 67, 10
2,165779, Note_on_c, 0, 56, 39
2,165793, Control_c, 0, 67, 0
2,165801, Note_on_c, 0, 71, 67
2,165874, Note_on_c, 0, 66, 0
2,165915, Note_on_c, 0, 51, 0
2,165945, Note_on_c, 0, 63, 0
2,166094, Note_on_c, 0, 64, 47
2,166166, Control_c, 0, 64, 20
2,166172, Note_on_c, 0, 68, 47
2,166181, Control_c, 0, 64, 34
2,166197, Control_c, 0, 64, 42
2,166211, Control_c, 0, 64, 48
2,166226, Control_c, 0, 64, 51
2,166242, Control_c, 0, 64, 54
2,166256, Control_c, 0, 64, 57
2,166272, Control_c, 0, 64, 61
2,166287, Control_c, 0, 64, 63
2,166302, Control_c, 0, 64, 65
2,166318, Control_c, 0, 64, 66
2,166332, Control_c, 0, 64, 67
2,166334, Note_on_c, 0, 66, 52
2,166347, Control_c, 0, 64, 68
2,166352, Note_on_c, 0, 63, 58
2,166363, Control_c, 0, 64, 70
2,166363, Note_on_c, 0, 64, 0
2,166378, Control_c, 0, 64, 71
2,166394, Control_c, 0, 64, 73
2,166408, Control_c, 0, 64, 75
2,166423, Control_c, 0, 64, 76
2,166439, Control_c, 0, 64, 77
2,166472, Note_on_c, 0, 63, 0
2,166532, Note_on_c, 0, 64, 65
2,166538, Note_on_c, 0, 61, 58
2,166541, Note_on_c, 0, 71, 0
2,166544, Note_on_c, 0, 66, 0
2,166559, Note_on_c, 0, 68, 0
2,166560, Note_on_c, 0, 56, 0
2,166594, Note_on_c, 0, 61, 0
2,166613, Control_c, 0, 64, 77
2,166689, Control_c, 0, 64, 77
2,166704, Control_c, 0, 64, 76
2,166720, Control_c, 0, 64, 76
2,166734, Control_c, 0, 64, 75
2,166749, Control_c, 0, 64, 73
2,166750, Note_on_c, 0, 59, 51
2,166761, Note_on_c, 0, 75, 88
2,166765, Control_c, 0, 64, 72
2,166780, Control_c, 0, 64, 70
2,166795, Control_c, 0, 64, 68
2,166810, Control_c, 0, 64, 66
2,166825, Control_c, 0, 64, 65
2,166841, Control_c, 0, 64, 62
2,166856, Control_c, 0, 64, 60
2,166870, Control_c, 0, 64, 57
2,166886, Control_c, 0, 64, 55
2,166901, Control_c, 0, 64, 52
2,166917, Control_c, 0, 64, 50
2,166932, Control_c, 0, 64, 45
2,166946, Control_c, 0, 64, 38
2,166949, Note_on_c, 0, 61, 53
2,166962, Control_c, 0, 64, 27
2,166964, Note_on_c, 0, 59, 0
2,166970, Note_on_c, 0, 57, 54
2,166978, Control_c, 0, 64, 0
2,167165, Note_on_c, 0, 64, 0
2,167166, Note_on_c, 0, 56, 61
2,167170, Note_on_c, 0, 71, 70
2,167172, Note_on_c, 0, 57, 0
2,167174, Note_on_c, 0, 59, 61
2,167202, Note_on_c, 0, 61, 0
2,167266, Control_c, 0, 64, 8
2,167282, Control_c, 0, 64, 42
2,167297, Control_c, 0, 64, 56
2,167313, Control_c, 0, 64, 62
2,167328, Control_c, 0, 64, 66
2,167335, Note_on_c, 0, 57, 59
2,167342, Control_c, 0, 64, 69
2,167358, Control_c, 0, 64, 73
2,167358, Note_on_c, 0, 54, 66
2,167380, Control_c, 0, 64, 78
2,167396, Control_c, 0, 64, 83
2,167396, Note_on_c, 0, 75, 0
2,167411, Control_c, 0, 64, 88
2,167426, Control_c, 0, 64, 93
2,167427, Note_on_c, 0, 57, 0
2,167441, Control_c, 0, 64, 96
2,167443, Note_on_c, 0, 56, 0
2,167456, Control_c, 0, 64, 99
2,167472, Control_c, 0, 64, 102
2,167487, Control_c, 0, 64, 104
2,167495, Note_on_c, 0, 54, 0
2,167501, Control_c, 0, 64, 104
2,167563, Control_c, 0, 64, 104
2,167578, Control_c, 0, 64, 103
2,167594, Control_c, 0, 64, 101
2,167609, Control_c, 0, 64, 97
2,167618, Note_on_c, 0, 52, 51
2,167621, Note_on_c, 0, 56, 57
2,167624, Control_c, 0, 64, 93
2,167630, Note_on_c, 0, 80, 87
2,167639, Control_c, 0, 64, 89
2,167654, Control_c, 0, 64, 85
2,167657, Note_on_c, 0, 59, 0
2,167669, Control_c, 0, 64, 81
2,167685, Control_c, 0, 64, 76
2,167700, Control_c, 0, 64, 71
2,167715, Control_c, 0, 64, 66
2,167730, Control_c, 0, 64, 60
2,167745, Control_c, 0, 64, 51
2,167761, Control_c, 0, 64, 41
2,167776, Control_c, 0, 64, 27
2,167793, Control_c, 0, 64, 0
2,167882, Note_on_c, 0, 71, 0
2,167900, Note_on_c, 0, 59, 56
2,168046, Note_on_c, 0, 56, 0
2,168064, Control_c, 0, 64, 19
2,168080, Control_c, 0, 64, 45
2,168095, Control_c, 0, 64, 57
2,168105, Note_on_c, 0, 64, 56
2,168110, Control_c, 0, 64, 62
2,168126, Control_c, 0, 64, 65
2,168128, Note_on_c, 0, 68, 55
2,168148, Control_c, 0, 64, 66
2,168164, Control_c, 0, 64, 68
2,168179, Control_c, 0, 64, 71
2,168180, Note_on_c, 0, 59, 0
2,168195, Control_c, 0, 64, 75
2,168210, Control_c, 0, 64, 79
2,168224, Control_c, 0, 64, 82
2,168240, Control_c, 0, 64, 85
2,168255, Control_c, 0, 64, 89
2,168270, Control_c, 0, 64, 94
2,168285, Control_c, 0, 64, 102
2,168300, Control_c, 0, 64, 109
2,168316, Control_c, 0, 64, 111
2,168346, Control_c, 0, 64, 110
2,168348, Note_on_c, 0, 63, 56
2,168361, Control_c, 0, 64, 109
2,168379, Note_on_c, 0, 64, 0
2,168392, Control_c, 0, 64, 108
2,168407, Control_c, 0, 64, 107
2,168422, Control_c, 0, 64, 104
2,168438, Control_c, 0, 64, 102
2,168452, Control_c, 0, 64, 99
2,168467, Control_c, 0, 64, 96
2,168483, Control_c, 0, 64, 94
2,168498, Control_c, 0, 64, 91
2,168514, Control_c, 0, 64, 87
2,168523, Note_on_c, 0, 76, 81
2,168529, Control_c, 0, 64, 82
2,168540, Note_on_c, 0, 61, 55
2,168544, Control_c, 0, 64, 77
2,168559, Control_c, 0, 64, 69
2,168561, Note_on_c, 0, 63, 0
2,168574, Control_c, 0, 64, 64
2,168589, Control_c, 0, 64, 59
2,168606, Control_c, 0, 64, 55
2,168620, Control_c, 0, 64, 48
2,168636, Control_c, 0, 64, 31
2,168651, Control_c, 0, 64, 0
2,168749, Note_on_c, 0, 63, 50
2,168774, Note_on_c, 0, 61, 0
2,168902, Note_on_c, 0, 80, 0
2,168957, Note_on_c, 0, 64, 53
2,168958, Note_on_c, 0, 73, 61
2,168978, Control_c, 0, 64, 46
2,168993, Control_c, 0, 64, 63
2,168994, Note_on_c, 0, 63, 0
2,169008, Control_c, 0, 64, 71
2,169023, Control_c, 0, 64, 82
2,169034, Note_on_c, 0, 76, 0
2,169039, Control_c, 0, 64, 121
2,169054, Control_c, 0, 64, 127
2,169101, Note_on_c, 0, 73, 0
2,169138, Note_on_c, 0, 52, 0
2,169144, Note_on_c, 0, 61, 67
2,169145, Note_on_c, 0, 64, 0
2,169158, Note_on_c, 0, 68, 0
2,169181, Note_on_c, 0, 61, 0
2,169340, Note_on_c, 0, 73, 84
2,169370, Note_on_c, 0, 58, 60
2,169370, Note_on_c, 0, 66, 55
2,169404, Control_c, 0, 64, 107
2,169419, Control_c, 0, 64, 89
2,169435, Control_c, 0, 64, 78
2,169450, Control_c, 0, 64, 69
2,169465, Control_c, 0, 64, 62
2,169481, Control_c, 0, 64, 52
2,169495, Control_c, 0, 64, 46
2,169510, Control_c, 0, 64, 44
2,169526, Control_c, 0, 64, 36
2,169541, Control_c, 0, 64, 19
2,169554, Note_on_c, 0, 59, 54
2,169557, Control_c, 0, 64, 0
2,169563, Note_on_c, 0, 68, 70
2,169568, Note_on_c, 0, 58, 0
2,169595, Note_on_c, 0, 66, 0
2,169752, Note_on_c, 0, 70, 79
2,169771, Note_on_c, 0, 61, 54
2,169776, Control_c, 0, 64, 12
2,169792, Control_c, 0, 64, 44
2,169792, Note_on_c, 0, 59, 0
2,169807, Control_c, 0, 64, 59
2,169822, Control_c, 0, 64, 65
2,169838, Control_c, 0, 64, 70
2,169853, Control_c, 0, 64, 78
2,169868, Control_c, 0, 64, 92
2,169884, Control_c, 0, 64, 127
2,169920, Note_on_c, 0, 73, 0
2,169936, Note_on_c, 0, 66, 77
2,169940, Note_on_c, 0, 58, 64
2,169943, Note_on_c, 0, 70, 0
2,169945, Note_on_c, 0, 61, 0
2,169957, Note_on_c, 0, 68, 0
2,169969, Note_on_c, 0, 58, 0
2,169987, Note_on_c, 0, 66, 0
2,170163, Note_on_c, 0, 82, 87
2,170177, Note_on_c, 0, 54, 64
2,170183, Note_on_c, 0, 73, 70
2,170186, Control_c, 0, 64, 121
2,170202, Control_c, 0, 64, 78
2,170217, Control_c, 0, 64, 60
2,170233, Control_c, 0, 64, 0
2,170294, Control_c, 0, 64, 36
2,170309, Control_c, 0, 64, 56
2,170325, Control_c, 0, 64, 65
2,170339, Control_c, 0, 64, 72
2,170347, Note_on_c, 0, 73, 0
2,170355, Control_c, 0, 64, 84
2,170370, Control_c, 0, 64, 115
2,170384, Note_on_c, 0, 76, 78
2,170385, Control_c, 0, 64, 127
2,170387, Note_on_c, 0, 56, 70
2,170452, Note_on_c, 0, 54, 0
2,170602, Note_on_c, 0, 75, 88
2,170603, Note_on_c, 0, 54, 74
2,170615, Note_on_c, 0, 58, 65
2,170665, Control_c, 0, 64, 86
2,170680, Control_c, 0, 64, 66
2,170695, Control_c, 0, 64, 15
2,170710, Control_c, 0, 64, 0
2,170764, Note_on_c, 0, 76, 0
2,170801, Note_on_c, 0, 52, 69
2,170801, Note_on_c, 0, 73, 91
2,170802, Control_c, 0, 64, 36
2,170816, Control_c, 0, 64, 57
2,170832, Control_c, 0, 64, 66
2,170847, Control_c, 0, 64, 75
2,170862, Control_c, 0, 64, 107
2,170878, Control_c, 0, 64, 127
2,170909, Note_on_c, 0, 52, 0
2,170920, Note_on_c, 0, 73, 0
2,170985, Note_on_c, 0, 82, 0
2,171074, Note_on_c, 0, 83, 91
2,171077, Note_on_c, 0, 78, 77
2,171088, Note_on_c, 0, 51, 73
2,171106, Control_c, 0, 64, 88
2,171122, Control_c, 0, 64, 71
2,171137, Control_c, 0, 64, 50
2,171144, Note_on_c, 0, 75, 0
2,171153, Control_c, 0, 64, 0
2,171163, Note_on_c, 0, 54, 0
2,171178, Note_on_c, 0, 56, 0
2,171205, Note_on_c, 0, 58, 0
2,171359, Note_on_c, 0, 54, 64
2,171363, Note_on_c, 0, 76, 81
2,171567, Note_on_c, 0, 59, 75
2,171568, Note_on_c, 0, 75, 87
2,171586, Note_on_c, 0, 78, 0
2,171633, Note_on_c, 0, 54, 0
2,171660, Control_c, 0, 64, 34
2,171662, Note_on_c, 0, 76, 0
2,171676, Control_c, 0, 64, 47
2,171691, Control_c, 0, 64, 56
2,171706, Control_c, 0, 64, 61
2,171722, Control_c, 0, 64, 65
2,171736, Control_c, 0, 64, 67
2,171738, Note_on_c, 0, 59, 0
2,171752, Control_c, 0, 64, 69
2,171755, Note_on_c, 0, 58, 72
2,171755, Note_on_c, 0, 78, 89
2,171759, Note_on_c, 0, 83, 0
2,171767, Control_c, 0, 64, 72
2,171782, Control_c, 0, 64, 74
2,171798, Control_c, 0, 64, 77
2,171812, Control_c, 0, 64, 79
2,171827, Control_c, 0, 64, 80
2,171859, Note_on_c, 0, 58, 0
2,171891, Note_on_c, 0, 78, 0
2,171949, Note_on_c, 0, 51, 0
2,171950, Control_c, 0, 64, 79
2,171957, Note_on_c, 0, 56, 82
2,171966, Control_c, 0, 64, 79
2,171969, Note_on_c, 0, 76, 80
2,171971, Note_on_c, 0, 71, 74
2,171988, Control_c, 0, 64, 78
2,172004, Control_c, 0, 64, 77
2,172015, Note_on_c, 0, 75, 0
2,172018, Control_c, 0, 64, 76
2,172034, Control_c, 0, 64, 74
2,172049, Control_c, 0, 64, 71
2,172064, Control_c, 0, 64, 68
2,172080, Control_c, 0, 64, 64
2,172094, Control_c, 0, 64, 58
2,172109, Control_c, 0, 64, 48
2,172125, Control_c, 0, 64, 43
2,172140, Control_c, 0, 64, 41
2,172156, Control_c, 0, 64, 39
2,172157, Note_on_c, 0, 49, 66
2,172170, Control_c, 0, 64, 37
2,172185, Control_c, 0, 64, 36
2,172247, Control_c, 0, 64, 36
2,172278, Control_c, 0, 64, 35
2,172348, Note_on_c, 0, 47, 77
2,172390, Note_on_c, 0, 49, 0
2,172549, Note_on_c, 0, 51, 85
2,172564, Control_c, 0, 64, 36
2,172583, Note_on_c, 0, 47, 0
2,172654, Control_c, 0, 64, 36
2,172731, Control_c, 0, 64, 37
2,172772, Note_on_c, 0, 49, 82
2,172785, Control_c, 0, 64, 37
2,172794, Note_on_c, 0, 51, 0
2,172875, Control_c, 0, 64, 38
2,172923, Control_c, 0, 64, 38
2,172937, Control_c, 0, 64, 39
2,172961, Note_on_c, 0, 56, 0
2,172968, Note_on_c, 0, 54, 80
2,172975, Note_on_c, 0, 70, 77
2,172983, Control_c, 0, 64, 39
2,172999, Control_c, 0, 64, 40
2,173013, Note_on_c, 0, 76, 0
2,173044, Control_c, 0, 64, 40
2,173055, Note_on_c, 0, 71, 0
2,173089, Control_c, 0, 64, 41
2,173104, Control_c, 0, 64, 41
2,173149, Control_c, 0, 64, 42
2,173174, Note_on_c, 0, 68, 79
2,173176, Note_on_c, 0, 52, 76
2,173220, Note_on_c, 0, 54, 0
2,173249, Note_on_c, 0, 70, 0
2,173367, Note_on_c, 0, 71, 82
2,173369, Note_on_c, 0, 56, 78
2,173392, Control_c, 0, 64, 41
2,173408, Control_c, 0, 64, 40
2,173418, Note_on_c, 0, 68, 0
2,173423, Control_c, 0, 64, 40
2,173439, Control_c, 0, 64, 39
2,173454, Control_c, 0, 64, 37
2,173468, Control_c, 0, 64, 36
2,173484, Control_c, 0, 64, 35
2,173499, Control_c, 0, 64, 34
2,173523, Control_c, 0, 64, 33
2,173553, Control_c, 0, 64, 33
2,173569, Control_c, 0, 64, 32
2,173599, Control_c, 0, 64, 32
2,173599, Note_on_c, 0, 52, 0
2,173608, Note_on_c, 0, 61, 81
2,173614, Control_c, 0, 64, 31
2,173617, Note_on_c, 0, 70, 84
2,173645, Control_c, 0, 64, 31
2,173662, Note_on_c, 0, 71, 0
2,173675, Control_c, 0, 64, 30
2,173690, Control_c, 0, 64, 30
2,173720, Control_c, 0, 64, 29
2,173750, Control_c, 0, 64, 29
2,173780, Control_c, 0, 64, 28
2,173795, Control_c, 0, 64, 27
2,173805, Note_on_c, 0, 51, 69
2,173808, Note_on_c, 0, 56, 0
2,173810, Note_on_c, 0, 71, 81
2,173811, Control_c, 0, 64, 26
2,173825, Control_c, 0, 64, 24
2,173836, Note_on_c, 0, 49, 0
2,173841, Control_c, 0, 64, 19
2,173856, Control_c, 0, 64, 0
2,173859, Note_on_c, 0, 70, 0
2,174004, Note_on_c, 0, 52, 63
2,174006, Note_on_c, 0, 73, 85
2,174036, Note_on_c, 0, 51, 0
2,174214, Note_on_c, 0, 70, 85
2,174217, Note_on_c, 0, 49, 65
2,174224, Note_on_c, 0, 71, 0
2,174303, Note_on_c, 0, 52, 0
2,174305, Control_c, 0, 64, 26
2,174320, Control_c, 0, 64, 49
2,174336, Control_c, 0, 64, 58
2,174348, Note_on_c, 0, 49, 0
2,174351, Control_c, 0, 64, 62
2,174367, Control_c, 0, 64, 64
2,174381, Control_c, 0, 64, 66
2,174396, Control_c, 0, 64, 70
2,174412, Control_c, 0, 64, 73
2,174419, Note_on_c, 0, 73, 0
2,174427, Control_c, 0, 64, 76
2,174443, Control_c, 0, 64, 78
2,174458, Control_c, 0, 64, 79
2,174469, Note_on_c, 0, 58, 71
2,174469, Note_on_c, 0, 66, 83
2,174472, Control_c, 0, 64, 78
2,174479, Note_on_c, 0, 70, 0
2,174488, Control_c, 0, 64, 78
2,174519, Control_c, 0, 64, 77
2,174534, Control_c, 0, 64, 75
2,174548, Control_c, 0, 64, 73
2,174564, Control_c, 0, 64, 69
2,174579, Control_c, 0, 64, 65
2,174594, Control_c, 0, 64, 62
2,174610, Control_c, 0, 64, 58
2,174624, Control_c, 0, 64, 55
2,174640, Control_c, 0, 64, 53
2,174655, Control_c, 0, 64, 50
2,174657, Note_on_c, 0, 61, 0
2,174661, Note_on_c, 0, 59, 76
2,174666, Note_on_c, 0, 75, 78
2,174669, Control_c, 0, 64, 46
2,174685, Control_c, 0, 64, 43
2,174700, Control_c, 0, 64, 41
2,174715, Control_c, 0, 64, 39
2,174731, Control_c, 0, 64, 38
2,174745, Control_c, 0, 64, 37
2,174761, Control_c, 0, 64, 36
2,174776, Control_c, 0, 64, 34
2,174791, Control_c, 0, 64, 33
2,174807, Control_c, 0, 64, 32
2,174822, Control_c, 0, 64, 30
2,174837, Control_c, 0, 64, 29
2,174852, Control_c, 0, 64, 28
2,174854, Note_on_c, 0, 61, 75
2,174858, Note_on_c, 0, 76, 77
2,174867, Control_c, 0, 64, 27
2,174872, Note_on_c, 0, 59, 0
2,174883, Control_c, 0, 64, 25
2,174898, Control_c, 0, 64, 24
2,174900, Note_on_c, 0, 75, 0
2,174913, Control_c, 0, 64, 22
2,174929, Control_c, 0, 64, 21
2,174944, Control_c, 0, 64, 20
2,174959, Control_c, 0, 64, 18
2,174989, Control_c, 0, 64, 17
2,175005, Control_c, 0, 64, 16
2,175020, Control_c, 0, 64, 15
2,175034, Control_c, 0, 64, 10
2,175055, Note_on_c, 0, 59, 77
2,175057, Control_c, 0, 64, 0
2,175060, Note_on_c, 0, 75, 88
2,175074, Note_on_c, 0, 61, 0
2,175092, Note_on_c, 0, 76, 0
2,175125, Note_on_c, 0, 58, 0
2,175264, Note_on_c, 0, 76, 88
2,175287, Note_on_c, 0, 61, 78
2,175314, Note_on_c, 0, 75, 0
2,175324, Note_on_c, 0, 59, 0
2,175363, Control_c, 0, 64, 18
2,175378, Control_c, 0, 64, 27
2,175392, Control_c, 0, 64, 32
2,175408, Control_c, 0, 64, 36
2,175423, Control_c, 0, 64, 36
2,175459, Note_on_c, 0, 56, 79
2,175476, Note_on_c, 0, 61, 0
2,175567, Note_on_c, 0, 76, 0
2,175575, Control_c, 0, 64, 39
2,175589, Control_c, 0, 64, 43
2,175605, Control_c, 0, 64, 46
2,175620, Control_c, 0, 64, 48
2,175635, Control_c, 0, 64, 50
2,175637, Note_on_c, 0, 66, 0
2,175651, Control_c, 0, 64, 51
2,175662, Note_on_c, 0, 54, 83
2,175665, Control_c, 0, 64, 53
2,175681, Control_c, 0, 64, 54
2,175696, Control_c, 0, 64, 54
2,175736, Note_on_c, 0, 56, 0
2,175773, Control_c, 0, 64, 55
2,175788, Control_c, 0, 64, 57
2,175803, Control_c, 0, 64, 60
2,175825, Control_c, 0, 64, 65
2,175841, Control_c, 0, 64, 74
2,175855, Control_c, 0, 64, 100
2,175855, Note_on_c, 0, 56, 92
2,175870, Control_c, 0, 64, 127
2,175904, Note_on_c, 0, 54, 0
2,175985, Note_on_c, 0, 56, 0
2,176085, Note_on_c, 0, 71, 79
2,176089, Note_on_c, 0, 66, 82
2,176090, Note_on_c, 0, 75, 93
2,176092, Note_on_c, 0, 57, 74
2,176131, Control_c, 0, 64, 98
2,176145, Control_c, 0, 64, 73
2,176161, Control_c, 0, 64, 52
2,176176, Control_c, 0, 64, 0
2,176340, Note_on_c, 0, 73, 91
2,176350, Note_on_c, 0, 64, 74
2,176369, Note_on_c, 0, 66, 0
2,176419, Note_on_c, 0, 75, 0
2,176540, Note_on_c, 0, 75, 90
2,176542, Note_on_c, 0, 66, 83
2,176577, Note_on_c, 0, 64, 0
2,176592, Note_on_c, 0, 73, 0
2,176729, Note_on_c, 0, 64, 79
2,176729, Note_on_c, 0, 73, 92
2,176751, Note_on_c, 0, 66, 0
2,176800, Note_on_c, 0, 75, 0
2,176989, Note_on_c, 0, 75, 90
2,176996, Note_on_c, 0, 66, 73
2,177016, Note_on_c, 0, 64, 0
2,177024, Note_on_c, 0, 73, 0
2,177212, Note_on_c, 0, 56, 73
2,177229, Note_on_c, 0, 57, 0
2,177435, Note_on_c, 0, 54, 77
2,177503, Note_on_c, 0, 66, 0
2,177582, Note_on_c, 0, 56, 0
2,177636, Note_on_c, 0, 57, 74
2,177708, Note_on_c, 0, 54, 0
2,177881, Note_on_c, 0, 71, 0
2,177945, Note_on_c, 0, 56, 61
2,177963, Note_on_c, 0, 75, 0
2,178095, Note_on_c, 0, 57, 0
2,178227, Note_on_c, 0, 65, 50
2,178466, Note_on_c, 0, 59, 70
2,178466, Note_on_c, 0, 74, 59
2,178662, Note_on_c, 0, 73, 67
2,178880, Note_on_c, 0, 62, 72
2,178897, Note_on_c, 0, 74, 0
2,178912, Note_on_c, 0, 71, 53
2,178943, Note_on_c, 0, 73, 0
2,178968, Note_on_c, 0, 59, 0
2,179113, Note_on_c, 0, 73, 52
2,179152, Note_on_c, 0, 65, 0
2,179264, Note_on_c, 0, 71, 0
2,179320, Note_on_c, 0, 74, 56
2,179343, Note_on_c, 0, 65, 32
2,179531, Note_on_c, 0, 74, 0
2,179537, Note_on_c, 0, 71, 57
2,179572, Note_on_c, 0, 73, 0
2,179727, Note_on_c, 0, 71, 0
2,179753, Note_on_c, 0, 59, 51
2,179756, Note_on_c, 0, 68, 47
2,179937, Note_on_c, 0, 56, 0
2,179938, Note_on_c, 0, 68, 0
2,179970, Note_on_c, 0, 69, 45
2,180151, Note_on_c, 0, 71, 50
2,180185, Note_on_c, 0, 69, 0
2,180340, Note_on_c, 0, 65, 0
2,180376, Note_on_c, 0, 68, 49
2,180397, Note_on_c, 0, 71, 0
2,180470, Note_on_c, 0, 62, 0
2,180540, Note_on_c, 0, 59, 0
2,180604, Note_on_c, 0, 65, 56
2,180611, Note_on_c, 0, 68, 0
2,180797, Note_on_c, 0, 74, 65
2,180853, Note_on_c, 0, 65, 0
2,180889, Control_c, 0, 64, 24
2,180904, Control_c, 0, 64, 36
2,180919, Control_c, 0, 64, 45
2,180934, Control_c, 0, 64, 52
2,180949, Control_c, 0, 64, 57
2,180964, Control_c, 0, 64, 59
2,180980, Control_c, 0, 64, 60
2,181011, Control_c, 0, 64, 59
2,181012, Note_on_c, 0, 73, 77
2,181016, Note_on_c, 0, 53, 54
2,181017, Note_on_c, 0, 56, 57
2,181026, Control_c, 0, 64, 58
2,181047, Note_on_c, 0, 61, 53
2,181057, Control_c, 0, 64, 58
2,181061, Note_on_c, 0, 74, 0
2,181117, Control_c, 0, 64, 59
2,181133, Control_c, 0, 64, 60
2,181147, Control_c, 0, 64, 61
2,181162, Control_c, 0, 64, 63
2,181178, Control_c, 0, 64, 65
2,181184, Note_on_c, 0, 73, 0
2,181200, Control_c, 0, 64, 67
2,181216, Control_c, 0, 64, 68
2,181231, Control_c, 0, 64, 70
2,181247, Control_c, 0, 64, 71
2,181250, Note_on_c, 0, 71, 79
2,181261, Control_c, 0, 64, 72
2,181292, Control_c, 0, 64, 71
2,181322, Control_c, 0, 64, 71
2,181322, Note_on_c, 0, 56, 0
2,181368, Control_c, 0, 64, 70
2,181395, Note_on_c, 0, 61, 0
2,181443, Control_c, 0, 64, 70
2,181489, Control_c, 0, 64, 69
2,181519, Control_c, 0, 64, 69
2,181523, Note_on_c, 0, 70, 83
2,181529, Note_on_c, 0, 54, 56
2,181535, Control_c, 0, 64, 68
2,181550, Control_c, 0, 64, 65
2,181553, Note_on_c, 0, 53, 0
2,181564, Control_c, 0, 64, 62
2,181580, Control_c, 0, 64, 58
2,181595, Control_c, 0, 64, 52
2,181600, Note_on_c, 0, 71, 0
2,181611, Control_c, 0, 64, 48
2,181626, Control_c, 0, 64, 45
2,181640, Control_c, 0, 64, 44
2,181671, Control_c, 0, 64, 43
2,181687, Control_c, 0, 64, 42
2,181702, Control_c, 0, 64, 41
2,181717, Control_c, 0, 64, 40
2,181733, Control_c, 0, 64, 40
2,181818, Note_on_c, 0, 52, 50
2,181830, Note_on_c, 0, 68, 70
2,181893, Note_on_c, 0, 54, 0
2,181915, Control_c, 0, 64, 40
2,181946, Control_c, 0, 64, 41
2,181969, Control_c, 0, 64, 41
2,182014, Control_c, 0, 64, 42
2,182053, Note_on_c, 0, 51, 68
2,182053, Note_on_c, 0, 66, 78
2,182074, Control_c, 0, 64, 42
2,182101, Note_on_c, 0, 52, 0
2,182105, Control_c, 0, 64, 43
2,182120, Control_c, 0, 64, 43
2,182164, Control_c, 0, 64, 44
2,182225, Control_c, 0, 64, 44
2,182244, Note_on_c, 0, 49, 65
2,182252, Note_on_c, 0, 64, 82
2,182267, Note_on_c, 0, 68, 0
2,182295, Note_on_c, 0, 66, 0
2,182316, Control_c, 0, 64, 45
2,182461, Note_on_c, 0, 47, 62
2,182475, Note_on_c, 0, 63, 84
2,182500, Note_on_c, 0, 51, 0
2,182509, Note_on_c, 0, 64, 0
2,182513, Note_on_c, 0, 49, 0
2,182616, Note_on_c, 0, 70, 0
2,182683, Note_on_c, 0, 49, 54
2,182695, Note_on_c, 0, 66, 82
2,182749, Note_on_c, 0, 47, 0
2,182842, Note_on_c, 0, 66, 0
2,182934, Note_on_c, 0, 71, 85
2,182940, Note_on_c, 0, 51, 70
2,182956, Note_on_c, 0, 49, 0
2,182978, Control_c, 0, 64, 45
2,183054, Control_c, 0, 64, 46
2,183099, Control_c, 0, 64, 46
2,183114, Control_c, 0, 64, 47
2,183129, Note_on_c, 0, 41, 57
2,183130, Control_c, 0, 64, 47
2,183140, Note_on_c, 0, 62, 83
2,183145, Control_c, 0, 64, 48
2,183166, Note_on_c, 0, 63, 0
2,183167, Note_on_c, 0, 51, 0
2,183175, Control_c, 0, 64, 49
2,183206, Control_c, 0, 64, 49
2,183252, Control_c, 0, 64, 50
2,183392, Note_on_c, 0, 62, 0
2,183420, Note_on_c, 0, 42, 54
2,183440, Note_on_c, 0, 61, 79
2,183464, Note_on_c, 0, 41, 0
2,183523, Note_on_c, 0, 71, 0
2,183707, Note_on_c, 0, 63, 80
2,183841, Note_on_c, 0, 61, 0
2,183939, Note_on_c, 0, 70, 80
2,183949, Note_on_c, 0, 64, 56
2,183962, Note_on_c, 0, 63, 0
2,184175, Note_on_c, 0, 68, 80
2,184193, Note_on_c, 0, 49, 51
2,184223, Note_on_c, 0, 70, 0
2,184317, Control_c, 0, 64, 49
2,184337, Note_on_c, 0, 49, 0
2,184347, Control_c, 0, 64, 49
2,184377, Control_c, 0, 64, 48
2,184408, Control_c, 0, 64, 48
2,184438, Control_c, 0, 64, 47
2,184454, Control_c, 0, 64, 46
2,184468, Control_c, 0, 64, 45
2,184483, Control_c, 0, 64, 45
2,184499, Control_c, 0, 64, 44
2,184502, Note_on_c, 0, 54, 46
2,184514, Control_c, 0, 64, 42
2,184530, Control_c, 0, 64, 40
2,184545, Control_c, 0, 64, 38
2,184545, Note_on_c, 0, 70, 77
2,184560, Control_c, 0, 64, 35
2,184575, Control_c, 0, 64, 33
2,184590, Control_c, 0, 64, 28
2,184606, Control_c, 0, 64, 17
2,184621, Control_c, 0, 64, 0
2,184655, Note_on_c, 0, 68, 0
2,184876, Note_on_c, 0, 68, 60
2,184970, Note_on_c, 0, 64, 0
2,185172, Note_on_c, 0, 66, 48
2,185229, Note_on_c, 0, 68, 0
2,185404, Control_c, 0, 67, 12
2,185419, Control_c, 0, 67, 20
2,185434, Control_c, 0, 67, 30
2,185450, Control_c, 0, 67, 46
2,185465, Control_c, 0, 67, 61
2,185480, Control_c, 0, 67, 79
2,185495, Control_c, 0, 67, 99
2,185510, Control_c, 0, 67, 121
2,185526, Control_c, 0, 67, 127
2,185528, Note_on_c, 0, 64, 49
2,185571, Control_c, 0, 64, 30
2,185581, Note_on_c, 0, 66, 0
2,185586, Control_c, 0, 64, 51
2,185601, Control_c, 0, 64, 60
2,185617, Control_c, 0, 64, 64
2,185631, Control_c, 0, 64, 68
2,185647, Control_c, 0, 64, 72
2,185662, Control_c, 0, 64, 80
2,185677, Control_c, 0, 64, 87
2,185693, Control_c, 0, 64, 95
2,185707, Control_c, 0, 64, 104
2,185722, Control_c, 0, 64, 117
2,185728, Note_on_c, 0, 54, 0
2,185738, Control_c, 0, 64, 127
2,185789, Note_on_c, 0, 42, 0
2,185837, Note_on_c, 0, 70, 0
2,186095, Note_on_c, 0, 71, 52
2,186098, Note_on_c, 0, 47, 41
2,186112, Note_on_c, 0, 63, 42
2,186117, Note_on_c, 0, 54, 37
2,186127, Control_c, 0, 64, 115
2,186141, Control_c, 0, 64, 96
2,186156, Control_c, 0, 64, 84
2,186172, Control_c, 0, 64, 75
2,186187, Control_c, 0, 64, 67
2,186202, Control_c, 0, 64, 61
2,186217, Control_c, 0, 64, 53
2,186217, Note_on_c, 0, 64, 0
2,186232, Control_c, 0, 64, 48
2,186248, Control_c, 0, 64, 47
2,186263, Control_c, 0, 64, 45
2,186278, Control_c, 0, 64, 43
2,186294, Control_c, 0, 64, 40
2,186309, Control_c, 0, 64, 37
2,186324, Control_c, 0, 64, 33
2,186339, Control_c, 0, 64, 29
2,186354, Control_c, 0, 64, 26
2,186370, Control_c, 0, 64, 23
2,186385, Control_c, 0, 64, 21
2,186399, Control_c, 0, 64, 19
2,186415, Control_c, 0, 64, 17
2,186430, Control_c, 0, 64, 16
2,186461, Control_c, 0, 64, 15
2,187305, Control_c, 0, 64, 16
2,187388, Control_c, 0, 64, 17
2,187510, Control_c, 0, 64, 18
2,187617, Control_c, 0, 64, 19
2,187723, Control_c, 0, 64, 20
2,187874, Control_c, 0, 64, 21
2,187996, Control_c, 0, 64, 22
2,188232, Control_c, 0, 64, 23
2,188624, Note_on_c, 0, 71, 0
2,188629, Note_on_c, 0, 54, 0
2,188641, Note_on_c, 0, 47, 0
2,188672, Note_on_c, 0, 63, 0
2,188673, End_track
0, 0, End_of_file
