0, 0, Header, 1, 2, 384
1, 0, Start_track
1, 0, Tempo, 500000
1, 0, Time_signature, 4, 2, 24, 8
1, 1, End_track
2, 0, Start_track
2, 0, Program_c, 0, 0
2, 0, Control_c, 0, 64, 44
2, 0, Control_c, 0, 67, 0
2, 300, Control_c, 0, 64, 44
2, 316, Control_c, 0, 64, 42
2, 332, Control_c, 0, 64, 40
2, 347, Control_c, 0, 64, 39
2, 362, Control_c, 0, 64, 38
2, 377, Control_c, 0, 64, 36
2, 408, Control_c, 0, 64, 36
2, 453, Control_c, 0, 64, 35
2, 468, Control_c, 0, 64, 35
2, 484, Control_c, 0, 64, 34
2, 499, Control_c, 0, 64, 31
2, 514, Control_c, 0, 64, 27
2, 529, Control_c, 0, 64, 20
2, 544, Control_c, 0, 64, 8
2, 560, Control_c, 0, 64, 0
2, 739, Note_on_c, 0, 47, 60
2, 855, Note_on_c, 0, 59, 68
2, 963, Note_on_c, 0, 59, 0
2, 970, Note_on_c, 0, 61, 72
2, 1069, Note_on_c, 0, 63, 70
2, 1075, Note_on_c, 0, 61, 0
2, 1129, Note_on_c, 0, 63, 0
2, 1132, Note_on_c, 0, 47, 0
2, 1167, Note_on_c, 0, 64, 78
2, 1272, Note_on_c, 0, 64, 0
2, 1272, Note_on_c, 0, 66, 70
2, 1369, Note_on_c, 0, 66, 0
2, 1370, Note_on_c, 0, 68, 71
2, 1469, Note_on_c, 0, 70, 67
2, 1481, Note_on_c, 0, 68, 0
2, 1508, Note_on_c, 0, 70, 0
2, 1552, Note_on_c, 0, 71, 75
2, 1598, Note_on_c, 0, 71, 0
2, 1602, Note_on_c, 0, 70, 80
2, 1627, Note_on_c, 0, 70, 0
2, 1659, Note_on_c, 0, 71, 73
2, 1693, Note_on_c, 0, 59, 50
2, 1753, Note_on_c, 0, 59, 0
2, 1778, Note_on_c, 0, 58, 60
2, 1832, Note_on_c, 0, 71, 0
2, 1877, Note_on_c, 0, 73, 74
2, 1883, Note_on_c, 0, 56, 59
2, 1887, Note_on_c, 0, 58, 0
2, 1934, Note_on_c, 0, 73, 0
2, 1974, Note_on_c, 0, 54, 70
2, 1977, Note_on_c, 0, 75, 75
2, 1989, Note_on_c, 0, 56, 0
2, 2001, Note_on_c, 0, 54, 0
2, 2007, Note_on_c, 0, 75, 0
2, 2062, Note_on_c, 0, 75, 59
2, 2073, Note_on_c, 0, 73, 54
2, 2083, Note_on_c, 0, 75, 0
2, 2094, Note_on_c, 0, 52, 51
2, 2130, Note_on_c, 0, 73, 0
2, 2139, Note_on_c, 0, 52, 0
2, 2148, Note_on_c, 0, 75, 78
2, 2162, Note_on_c, 0, 51, 59
2, 2182, Note_on_c, 0, 73, 67
2, 2192, Note_on_c, 0, 75, 0
2, 2235, Note_on_c, 0, 51, 0
2, 2246, Note_on_c, 0, 49, 60
2, 2249, Note_on_c, 0, 73, 0
2, 2258, Note_on_c, 0, 71, 69
2, 2295, Note_on_c, 0, 73, 54
2, 2307, Note_on_c, 0, 71, 0
2, 2347, Note_on_c, 0, 49, 0
2, 2368, Note_on_c, 0, 47, 51
2, 2369, Note_on_c, 0, 75, 78
2, 2372, Note_on_c, 0, 73, 0
2, 2457, Note_on_c, 0, 47, 0
2, 2479, Note_on_c, 0, 70, 75
2, 2519, Note_on_c, 0, 75, 0
2, 2577, Note_on_c, 0, 70, 0
2, 2582, Note_on_c, 0, 71, 80
2, 2684, Note_on_c, 0, 75, 79
2, 2687, Note_on_c, 0, 71, 0
2, 2756, Note_on_c, 0, 51, 70
2, 2778, Note_on_c, 0, 75, 0
2, 2778, Note_on_c, 0, 76, 73
2, 2799, Note_on_c, 0, 51, 0
2, 2818, Note_on_c, 0, 49, 59
2, 2855, Note_on_c, 0, 49, 0
2, 2861, Note_on_c, 0, 51, 59
2, 2866, Note_on_c, 0, 70, 74
2, 2867, Note_on_c, 0, 76, 0
2, 2916, Note_on_c, 0, 70, 0
2, 2919, Note_on_c, 0, 51, 0
2, 2920, Note_on_c, 0, 49, 60
2, 2958, Note_on_c, 0, 71, 70
2, 3028, Note_on_c, 0, 49, 0
2, 3039, Note_on_c, 0, 71, 0
2, 3053, Note_on_c, 0, 47, 49
2, 3057, Note_on_c, 0, 76, 71
2, 3084, Note_on_c, 0, 47, 0
2, 3084, Note_on_c, 0, 49, 53
2, 3166, Note_on_c, 0, 49, 0
2, 3171, Note_on_c, 0, 78, 81
2, 3176, Note_on_c, 0, 51, 77
2, 3176, Note_on_c, 0, 76, 0
2, 3258, Note_on_c, 0, 78, 0
2, 3267, Note_on_c, 0, 51, 0
2, 3269, Note_on_c, 0, 71, 79
2, 3366, Note_on_c, 0, 71, 0
2, 3378, Note_on_c, 0, 80, 84
2, 3479, Note_on_c, 0, 78, 79
2, 3490, Note_on_c, 0, 52, 65
2, 3526, Note_on_c, 0, 52, 0
2, 3527, Note_on_c, 0, 80, 0
2, 3571, Note_on_c, 0, 78, 0
2, 3588, Note_on_c, 0, 54, 62
2, 3591, Note_on_c, 0, 76, 77
2, 3627, Note_on_c, 0, 54, 0
2, 3631, Note_on_c, 0, 52, 67
2, 3633, Note_on_c, 0, 76, 0
2, 3662, Note_on_c, 0, 52, 0
2, 3681, Note_on_c, 0, 75, 76
2, 3685, Note_on_c, 0, 54, 55
2, 3719, Note_on_c, 0, 54, 0
2, 3729, Note_on_c, 0, 52, 60
2, 3772, Note_on_c, 0, 73, 71
2, 3774, Note_on_c, 0, 52, 0
2, 3779, Note_on_c, 0, 75, 0
2, 3784, Note_on_c, 0, 51, 70
2, 3824, Note_on_c, 0, 51, 0
2, 3843, Note_on_c, 0, 73, 0
2, 3851, Note_on_c, 0, 52, 64
2, 3861, Note_on_c, 0, 71, 70
2, 3933, Note_on_c, 0, 52, 0
2, 3933, Note_on_c, 0, 71, 0
2, 3976, Note_on_c, 0, 70, 59
2, 3979, Note_on_c, 0, 54, 65
2, 4009, Note_on_c, 0, 54, 0
2, 4051, Note_on_c, 0, 70, 0
2, 4075, Note_on_c, 0, 65, 58
2, 4155, Note_on_c, 0, 65, 0
2, 4185, Note_on_c, 0, 58, 66
2, 4191, Note_on_c, 0, 66, 56
2, 4216, Note_on_c, 0, 58, 0
2, 4281, Note_on_c, 0, 66, 0
2, 4296, Note_on_c, 0, 73, 60
2, 4403, Note_on_c, 0, 61, 64
2, 4404, Note_on_c, 0, 73, 0
2, 4418, Note_on_c, 0, 70, 60
2, 4434, Note_on_c, 0, 61, 0
2, 4490, Note_on_c, 0, 70, 0
2, 4510, Note_on_c, 0, 73, 58
2, 4618, Note_on_c, 0, 73, 0
2, 4631, Note_on_c, 0, 66, 57
2, 4634, Note_on_c, 0, 58, 53
2, 4665, Note_on_c, 0, 58, 0
2, 4711, Note_on_c, 0, 66, 0
2, 4728, Note_on_c, 0, 73, 64
2, 4827, Note_on_c, 0, 54, 55
2, 4836, Note_on_c, 0, 70, 60
2, 4848, Note_on_c, 0, 73, 0
2, 4880, Note_on_c, 0, 54, 0
2, 4914, Note_on_c, 0, 70, 0
2, 4933, Note_on_c, 0, 65, 56
2, 5039, Note_on_c, 0, 58, 54
2, 5042, Note_on_c, 0, 65, 0
2, 5046, Note_on_c, 0, 66, 60
2, 5088, Note_on_c, 0, 58, 0
2, 5137, Note_on_c, 0, 66, 0
2, 5145, Note_on_c, 0, 73, 61
2, 5248, Note_on_c, 0, 61, 60
2, 5256, Note_on_c, 0, 73, 0
2, 5275, Note_on_c, 0, 70, 59
2, 5299, Note_on_c, 0, 61, 0
2, 5359, Note_on_c, 0, 70, 0
2, 5371, Note_on_c, 0, 73, 59
2, 5458, Note_on_c, 0, 73, 0
2, 5468, Note_on_c, 0, 52, 54
2, 5473, Note_on_c, 0, 66, 56
2, 5515, Note_on_c, 0, 52, 0
2, 5553, Note_on_c, 0, 66, 0
2, 5570, Note_on_c, 0, 73, 62
2, 5673, Note_on_c, 0, 71, 63
2, 5678, Note_on_c, 0, 73, 0
2, 5682, Note_on_c, 0, 51, 60
2, 5733, Note_on_c, 0, 51, 0
2, 5755, Note_on_c, 0, 71, 0
2, 5782, Note_on_c, 0, 65, 57
2, 5873, Note_on_c, 0, 65, 0
2, 5883, Note_on_c, 0, 59, 59
2, 5889, Note_on_c, 0, 66, 63
2, 5940, Note_on_c, 0, 59, 0
2, 5977, Note_on_c, 0, 66, 0
2, 5982, Note_on_c, 0, 75, 60
2, 6092, Note_on_c, 0, 75, 0
2, 6100, Note_on_c, 0, 63, 64
2, 6108, Note_on_c, 0, 71, 62
2, 6132, Note_on_c, 0, 63, 0
2, 6185, Note_on_c, 0, 71, 0
2, 6210, Note_on_c, 0, 75, 60
2, 6292, Note_on_c, 0, 75, 0
2, 6308, Note_on_c, 0, 59, 63
2, 6316, Note_on_c, 0, 66, 58
2, 6338, Note_on_c, 0, 59, 0
2, 6406, Note_on_c, 0, 66, 0
2, 6418, Note_on_c, 0, 75, 64
2, 6512, Note_on_c, 0, 54, 62
2, 6520, Note_on_c, 0, 71, 59
2, 6527, Note_on_c, 0, 75, 0
2, 6549, Note_on_c, 0, 54, 0
2, 6603, Note_on_c, 0, 71, 0
2, 6622, Note_on_c, 0, 65, 55
2, 6721, Note_on_c, 0, 65, 0
2, 6724, Note_on_c, 0, 59, 59
2, 6732, Note_on_c, 0, 66, 62
2, 6766, Note_on_c, 0, 59, 0
2, 6833, Note_on_c, 0, 66, 0
2, 6838, Note_on_c, 0, 75, 64
2, 6940, Note_on_c, 0, 75, 0
2, 6943, Note_on_c, 0, 63, 68
2, 6943, Note_on_c, 0, 71, 70
2, 6975, Note_on_c, 0, 63, 0
2, 7045, Note_on_c, 0, 71, 0
2, 7048, Note_on_c, 0, 75, 75
2, 7144, Note_on_c, 0, 59, 74
2, 7149, Note_on_c, 0, 75, 0
2, 7151, Note_on_c, 0, 66, 74
2, 7169, Note_on_c, 0, 59, 0
2, 7249, Note_on_c, 0, 66, 0
2, 7250, Note_on_c, 0, 75, 80
2, 7349, Note_on_c, 0, 46, 70
2, 7366, Note_on_c, 0, 73, 73
2, 7409, Note_on_c, 0, 75, 0
2, 7446, Note_on_c, 0, 46, 0
2, 7463, Note_on_c, 0, 65, 73
2, 7497, Note_on_c, 0, 73, 0
2, 7579, Note_on_c, 0, 61, 71
2, 7582, Note_on_c, 0, 66, 73
2, 7594, Note_on_c, 0, 65, 0
2, 7610, Note_on_c, 0, 61, 0
2, 7681, Note_on_c, 0, 66, 0
2, 7687, Note_on_c, 0, 76, 66
2, 7779, Note_on_c, 0, 64, 71
2, 7793, Note_on_c, 0, 73, 73
2, 7793, Note_on_c, 0, 76, 0
2, 7809, Note_on_c, 0, 64, 0
2, 7882, Note_on_c, 0, 73, 0
2, 7892, Note_on_c, 0, 76, 57
2, 7988, Note_on_c, 0, 76, 0
2, 7989, Note_on_c, 0, 61, 70
2, 7997, Note_on_c, 0, 70, 60
2, 8037, Note_on_c, 0, 61, 0
2, 8072, Note_on_c, 0, 70, 0
2, 8083, Note_on_c, 0, 76, 59
2, 8198, Note_on_c, 0, 58, 69
2, 8201, Note_on_c, 0, 76, 0
2, 8207, Note_on_c, 0, 73, 65
2, 8236, Note_on_c, 0, 58, 0
2, 8303, Note_on_c, 0, 73, 0
2, 8304, Note_on_c, 0, 65, 62
2, 8412, Note_on_c, 0, 61, 70
2, 8423, Note_on_c, 0, 65, 0
2, 8425, Note_on_c, 0, 66, 67
2, 8447, Note_on_c, 0, 61, 0
2, 8527, Note_on_c, 0, 66, 0
2, 8539, Note_on_c, 0, 76, 61
2, 8620, Note_on_c, 0, 58, 65
2, 8639, Note_on_c, 0, 73, 69
2, 8640, Note_on_c, 0, 76, 0
2, 8655, Note_on_c, 0, 58, 0
2, 8722, Note_on_c, 0, 73, 0
2, 8726, Note_on_c, 0, 76, 64
2, 8832, Note_on_c, 0, 54, 64
2, 8832, Note_on_c, 0, 76, 0
2, 8838, Note_on_c, 0, 70, 66
2, 8881, Note_on_c, 0, 54, 0
2, 8928, Note_on_c, 0, 70, 0
2, 8934, Note_on_c, 0, 76, 69
2, 9040, Note_on_c, 0, 76, 0
2, 9041, Note_on_c, 0, 75, 71
2, 9047, Note_on_c, 0, 47, 66
2, 9112, Note_on_c, 0, 47, 0
2, 9153, Note_on_c, 0, 70, 67
2, 9156, Note_on_c, 0, 75, 0
2, 9229, Note_on_c, 0, 70, 0
2, 9247, Note_on_c, 0, 71, 69
2, 9252, Note_on_c, 0, 63, 67
2, 9287, Note_on_c, 0, 63, 0
2, 9352, Note_on_c, 0, 78, 72
2, 9367, Note_on_c, 0, 71, 0
2, 9455, Note_on_c, 0, 66, 73
2, 9462, Note_on_c, 0, 75, 71
2, 9468, Note_on_c, 0, 78, 0
2, 9501, Note_on_c, 0, 66, 0
2, 9564, Note_on_c, 0, 78, 74
2, 9587, Note_on_c, 0, 75, 0
2, 9654, Note_on_c, 0, 78, 0
2, 9656, Note_on_c, 0, 71, 71
2, 9660, Note_on_c, 0, 63, 74
2, 9717, Note_on_c, 0, 63, 0
2, 9765, Note_on_c, 0, 78, 81
2, 9789, Note_on_c, 0, 71, 0
2, 9873, Note_on_c, 0, 59, 78
2, 9877, Note_on_c, 0, 75, 79
2, 9913, Note_on_c, 0, 78, 0
2, 9935, Note_on_c, 0, 59, 0
2, 9981, Note_on_c, 0, 70, 77
2, 10030, Note_on_c, 0, 75, 0
2, 10074, Note_on_c, 0, 63, 87
2, 10086, Note_on_c, 0, 71, 78
2, 10101, Note_on_c, 0, 70, 0
2, 10118, Note_on_c, 0, 63, 0
2, 10180, Note_on_c, 0, 78, 79
2, 10280, Note_on_c, 0, 75, 84
2, 10284, Note_on_c, 0, 59, 75
2, 10286, Note_on_c, 0, 78, 0
2, 10304, Note_on_c, 0, 71, 0
2, 10323, Note_on_c, 0, 59, 0
2, 10373, Note_on_c, 0, 78, 83
2, 10388, Note_on_c, 0, 75, 0
2, 10483, Note_on_c, 0, 54, 65
2, 10488, Note_on_c, 0, 78, 0
2, 10490, Note_on_c, 0, 71, 83
2, 10532, Note_on_c, 0, 54, 0
2, 10576, Note_on_c, 0, 78, 86
2, 10635, Note_on_c, 0, 71, 0
2, 10696, Note_on_c, 0, 51, 56
2, 10702, Note_on_c, 0, 81, 79
2, 10728, Note_on_c, 0, 78, 0
2, 10745, Note_on_c, 0, 51, 0
2, 10800, Note_on_c, 0, 76, 78
2, 10844, Note_on_c, 0, 81, 0
2, 10908, Note_on_c, 0, 78, 84
2, 10912, Note_on_c, 0, 59, 42
2, 10932, Note_on_c, 0, 76, 0
2, 10944, Note_on_c, 0, 59, 0
2, 10983, Note_on_c, 0, 81, 76
2, 10994, Note_on_c, 0, 78, 0
2, 11100, Note_on_c, 0, 75, 85
2, 11102, Note_on_c, 0, 54, 60
2, 11122, Note_on_c, 0, 81, 0
2, 11141, Note_on_c, 0, 54, 0
2, 11202, Note_on_c, 0, 78, 80
2, 11236, Note_on_c, 0, 75, 0
2, 11291, Note_on_c, 0, 78, 0
2, 11299, Note_on_c, 0, 51, 57
2, 11306, Note_on_c, 0, 71, 77
2, 11345, Note_on_c, 0, 51, 0
2, 11399, Note_on_c, 0, 78, 82
2, 11405, Note_on_c, 0, 71, 0
2, 11516, Note_on_c, 0, 81, 77
2, 11517, Note_on_c, 0, 78, 0
2, 11522, Note_on_c, 0, 47, 51
2, 11562, Note_on_c, 0, 47, 0
2, 11611, Note_on_c, 0, 81, 0
2, 11614, Note_on_c, 0, 78, 82
2, 11696, Note_on_c, 0, 78, 0
2, 11715, Note_on_c, 0, 76, 77
2, 11716, Note_on_c, 0, 54, 53
2, 11745, Note_on_c, 0, 54, 0
2, 11807, Note_on_c, 0, 75, 77
2, 11810, Note_on_c, 0, 76, 0
2, 11904, Note_on_c, 0, 75, 0
2, 11921, Note_on_c, 0, 76, 68
2, 11922, Note_on_c, 0, 59, 47
2, 11952, Note_on_c, 0, 59, 0
2, 12014, Note_on_c, 0, 76, 0
2, 12023, Note_on_c, 0, 75, 74
2, 12121, Note_on_c, 0, 75, 0
2, 12122, Note_on_c, 0, 73, 70
2, 12131, Note_on_c, 0, 54, 46
2, 12159, Note_on_c, 0, 54, 0
2, 12197, Note_on_c, 0, 73, 0
2, 12215, Note_on_c, 0, 71, 69
2, 12287, Note_on_c, 0, 71, 0
2, 12334, Note_on_c, 0, 80, 68
2, 12347, Note_on_c, 0, 52, 52
2, 12385, Note_on_c, 0, 52, 0
2, 12437, Note_on_c, 0, 80, 0
2, 12439, Note_on_c, 0, 76, 70
2, 12534, Note_on_c, 0, 76, 0
2, 12540, Note_on_c, 0, 75, 77
2, 12545, Note_on_c, 0, 56, 68
2, 12576, Note_on_c, 0, 56, 0
2, 12636, Note_on_c, 0, 73, 75
2, 12649, Note_on_c, 0, 75, 0
2, 12733, Note_on_c, 0, 73, 0
2, 12743, Note_on_c, 0, 46, 67
2, 12754, Note_on_c, 0, 75, 86
2, 12788, Note_on_c, 0, 46, 0
2, 12851, Note_on_c, 0, 73, 80
2, 12883, Note_on_c, 0, 75, 0
2, 12946, Note_on_c, 0, 73, 0
2, 12965, Note_on_c, 0, 56, 78
2, 12966, Note_on_c, 0, 71, 79
2, 12996, Note_on_c, 0, 56, 0
2, 13060, Note_on_c, 0, 70, 75
2, 13065, Note_on_c, 0, 71, 0
2, 13131, Note_on_c, 0, 70, 0
2, 13169, Note_on_c, 0, 51, 74
2, 13170, Note_on_c, 0, 78, 76
2, 13197, Note_on_c, 0, 51, 0
2, 13272, Note_on_c, 0, 75, 78
2, 13305, Note_on_c, 0, 78, 0
2, 13371, Note_on_c, 0, 73, 73
2, 13376, Note_on_c, 0, 54, 79
2, 13406, Note_on_c, 0, 75, 0
2, 13410, Note_on_c, 0, 54, 0
2, 13464, Note_on_c, 0, 73, 0
2, 13467, Note_on_c, 0, 71, 74
2, 13543, Note_on_c, 0, 71, 0
2, 13577, Note_on_c, 0, 73, 75
2, 13579, Note_on_c, 0, 44, 57
2, 13620, Note_on_c, 0, 44, 0
2, 13656, Note_on_c, 0, 73, 0
2, 13678, Note_on_c, 0, 71, 71
2, 13770, Note_on_c, 0, 71, 0
2, 13779, Note_on_c, 0, 54, 72
2, 13785, Note_on_c, 0, 70, 70
2, 13819, Note_on_c, 0, 54, 0
2, 13880, Note_on_c, 0, 68, 68
2, 13889, Note_on_c, 0, 70, 0
2, 13938, Note_on_c, 0, 68, 0
2, 13979, Note_on_c, 0, 49, 62
2, 13989, Note_on_c, 0, 76, 73
2, 14079, Note_on_c, 0, 51, 75
2, 14088, Note_on_c, 0, 75, 75
2, 14103, Note_on_c, 0, 49, 0
2, 14133, Note_on_c, 0, 51, 0
2, 14150, Note_on_c, 0, 76, 0
2, 14175, Note_on_c, 0, 52, 65
2, 14188, Note_on_c, 0, 75, 0
2, 14190, Note_on_c, 0, 73, 74
2, 14269, Note_on_c, 0, 54, 76
2, 14278, Note_on_c, 0, 75, 81
2, 14283, Note_on_c, 0, 52, 0
2, 14283, Note_on_c, 0, 73, 0
2, 14381, Note_on_c, 0, 56, 69
2, 14383, Note_on_c, 0, 76, 83
2, 14388, Note_on_c, 0, 54, 0
2, 14407, Note_on_c, 0, 75, 0
2, 14440, Note_on_c, 0, 76, 0
2, 14468, Note_on_c, 0, 58, 77
2, 14474, Note_on_c, 0, 56, 0
2, 14583, Note_on_c, 0, 58, 0
2, 14586, Note_on_c, 0, 59, 73
2, 14588, Note_on_c, 0, 68, 71
2, 14617, Note_on_c, 0, 68, 0
2, 14670, Note_on_c, 0, 59, 0
2, 14673, Note_on_c, 0, 56, 76
2, 14794, Note_on_c, 0, 58, 81
2, 14800, Note_on_c, 0, 66, 75
2, 14811, Note_on_c, 0, 56, 0
2, 14838, Note_on_c, 0, 58, 0
2, 14898, Note_on_c, 0, 68, 75
2, 14905, Note_on_c, 0, 66, 0
2, 14993, Note_on_c, 0, 70, 75
2, 15013, Note_on_c, 0, 61, 78
2, 15024, Note_on_c, 0, 68, 0
2, 15047, Note_on_c, 0, 61, 0
2, 15049, Note_on_c, 0, 70, 0
2, 15093, Note_on_c, 0, 71, 67
2, 15203, Note_on_c, 0, 73, 80
2, 15204, Note_on_c, 0, 58, 87
2, 15228, Note_on_c, 0, 71, 0
2, 15252, Note_on_c, 0, 58, 0
2, 15304, Note_on_c, 0, 75, 85
2, 15323, Note_on_c, 0, 73, 0
2, 15396, Note_on_c, 0, 54, 92
2, 15407, Note_on_c, 0, 76, 77
2, 15417, Note_on_c, 0, 54, 0
2, 15443, Note_on_c, 0, 75, 0
2, 15464, Note_on_c, 0, 73, 76
2, 15498, Note_on_c, 0, 76, 0
2, 15598, Note_on_c, 0, 59, 98
2, 15598, Note_on_c, 0, 75, 81
2, 15625, Note_on_c, 0, 73, 0
2, 15642, Note_on_c, 0, 59, 0
2, 15692, Note_on_c, 0, 76, 77
2, 15715, Note_on_c, 0, 75, 0
2, 15794, Note_on_c, 0, 47, 93
2, 15807, Note_on_c, 0, 75, 92
2, 15815, Note_on_c, 0, 47, 0
2, 15835, Note_on_c, 0, 76, 0
2, 15898, Note_on_c, 0, 73, 68
2, 15929, Note_on_c, 0, 75, 0
2, 15989, Note_on_c, 0, 73, 0
2, 16006, Note_on_c, 0, 59, 76
2, 16007, Note_on_c, 0, 71, 81
2, 16020, Note_on_c, 0, 58, 84
2, 16038, Note_on_c, 0, 59, 0
2, 16078, Note_on_c, 0, 58, 0
2, 16079, Note_on_c, 0, 59, 87
2, 16104, Note_on_c, 0, 70, 73
2, 16105, Note_on_c, 0, 71, 0
2, 16212, Note_on_c, 0, 68, 74
2, 16261, Note_on_c, 0, 70, 0
2, 16314, Note_on_c, 0, 66, 77
2, 16343, Note_on_c, 0, 68, 0
2, 16405, Note_on_c, 0, 66, 0
2, 16417, Note_on_c, 0, 65, 80
2, 16501, Note_on_c, 0, 59, 0
2, 16507, Note_on_c, 0, 58, 73
2, 16508, Note_on_c, 0, 61, 80
2, 16513, Note_on_c, 0, 65, 0
2, 16576, Note_on_c, 0, 61, 0
2, 16612, Note_on_c, 0, 58, 0
2, 16613, Note_on_c, 0, 56, 77
2, 16618, Note_on_c, 0, 65, 70
2, 16714, Note_on_c, 0, 54, 69
2, 16720, Note_on_c, 0, 68, 77
2, 16721, Note_on_c, 0, 56, 0
2, 16754, Note_on_c, 0, 65, 0
2, 16779, Note_on_c, 0, 54, 0
2, 16827, Note_on_c, 0, 53, 79
2, 16829, Note_on_c, 0, 73, 78
2, 16861, Note_on_c, 0, 68, 0
2, 16905, Note_on_c, 0, 53, 0
2, 16922, Note_on_c, 0, 49, 68
2, 17004, Note_on_c, 0, 49, 0
2, 17028, Note_on_c, 0, 53, 72
2, 17099, Note_on_c, 0, 53, 0
2, 17122, Note_on_c, 0, 56, 75
2, 17203, Note_on_c, 0, 56, 0
2, 17230, Note_on_c, 0, 58, 78
2, 17261, Note_on_c, 0, 58, 0
2, 17285, Note_on_c, 0, 73, 0
2, 17319, Note_on_c, 0, 71, 63
2, 17429, Note_on_c, 0, 61, 70
2, 17434, Note_on_c, 0, 70, 68
2, 17436, Note_on_c, 0, 71, 0
2, 17475, Note_on_c, 0, 61, 0
2, 17521, Note_on_c, 0, 68, 76
2, 17570, Note_on_c, 0, 70, 0
2, 17642, Note_on_c, 0, 66, 79
2, 17644, Note_on_c, 0, 51, 71
2, 17661, Note_on_c, 0, 68, 0
2, 17731, Note_on_c, 0, 51, 0
2, 17739, Note_on_c, 0, 65, 79
2, 17749, Note_on_c, 0, 66, 0
2, 17842, Note_on_c, 0, 54, 77
2, 17855, Note_on_c, 0, 63, 80
2, 17880, Note_on_c, 0, 65, 0
2, 17914, Note_on_c, 0, 54, 0
2, 17938, Note_on_c, 0, 73, 73
2, 17940, Note_on_c, 0, 63, 0
2, 18047, Note_on_c, 0, 56, 75
2, 18058, Note_on_c, 0, 71, 75
2, 18089, Note_on_c, 0, 56, 0
2, 18154, Note_on_c, 0, 73, 0
2, 18160, Note_on_c, 0, 70, 76
2, 18161, Note_on_c, 0, 71, 0
2, 18250, Note_on_c, 0, 59, 70
2, 18252, Note_on_c, 0, 68, 75
2, 18277, Note_on_c, 0, 70, 0
2, 18288, Note_on_c, 0, 59, 0
2, 18355, Note_on_c, 0, 66, 71
2, 18370, Note_on_c, 0, 68, 0
2, 18453, Note_on_c, 0, 66, 0
2, 18462, Note_on_c, 0, 49, 70
2, 18463, Note_on_c, 0, 65, 74
2, 18510, Note_on_c, 0, 49, 0
2, 18530, Note_on_c, 0, 65, 0
2, 18555, Note_on_c, 0, 63, 71
2, 18633, Note_on_c, 0, 63, 0
2, 18658, Note_on_c, 0, 53, 71
2, 18665, Note_on_c, 0, 61, 77
2, 18686, Note_on_c, 0, 53, 0
2, 18768, Note_on_c, 0, 71, 72
2, 18860, Note_on_c, 0, 54, 66
2, 18861, Note_on_c, 0, 70, 74
2, 18869, Note_on_c, 0, 66, 65
2, 18874, Note_on_c, 0, 71, 0
2, 18959, Note_on_c, 0, 42, 63
2, 18966, Note_on_c, 0, 54, 0
2, 19056, Note_on_c, 0, 42, 0
2, 19062, Note_on_c, 0, 44, 67
2, 19146, Note_on_c, 0, 61, 0
2, 19166, Note_on_c, 0, 46, 73
2, 19182, Note_on_c, 0, 44, 0
2, 19185, Note_on_c, 0, 70, 0
2, 19208, Note_on_c, 0, 66, 0
2, 19233, Note_on_c, 0, 46, 0
2, 19269, Note_on_c, 0, 47, 69
2, 19357, Note_on_c, 0, 47, 0
2, 19363, Note_on_c, 0, 49, 69
2, 19465, Note_on_c, 0, 51, 74
2, 19466, Note_on_c, 0, 49, 0
2, 19533, Note_on_c, 0, 51, 0
2, 19562, Note_on_c, 0, 53, 67
2, 19652, Note_on_c, 0, 53, 0
2, 19664, Note_on_c, 0, 54, 67
2, 19742, Note_on_c, 0, 54, 0
2, 19776, Note_on_c, 0, 56, 56
2, 19826, Note_on_c, 0, 73, 60
2, 19833, Note_on_c, 0, 70, 58
2, 19872, Note_on_c, 0, 56, 0
2, 19884, Note_on_c, 0, 54, 56
2, 19922, Note_on_c, 0, 73, 0
2, 19961, Note_on_c, 0, 54, 0
2, 19994, Note_on_c, 0, 52, 55
2, 20039, Note_on_c, 0, 70, 0
2, 20063, Note_on_c, 0, 72, 65
2, 20063, Note_on_c, 0, 78, 63
2, 20087, Note_on_c, 0, 52, 0
2, 20096, Note_on_c, 0, 51, 58
2, 20105, Note_on_c, 0, 78, 0
2, 20176, Note_on_c, 0, 51, 0
2, 20188, Note_on_c, 0, 56, 53
2, 20253, Note_on_c, 0, 56, 0
2, 20265, Note_on_c, 0, 75, 73
2, 20278, Note_on_c, 0, 54, 59
2, 20297, Note_on_c, 0, 75, 0
2, 20325, Note_on_c, 0, 54, 0
2, 20383, Note_on_c, 0, 56, 49
2, 20454, Note_on_c, 0, 72, 0
2, 20473, Note_on_c, 0, 56, 0
2, 20474, Note_on_c, 0, 76, 68
2, 20478, Note_on_c, 0, 73, 60
2, 20481, Note_on_c, 0, 49, 56
2, 20561, Note_on_c, 0, 49, 0
2, 20575, Note_on_c, 0, 51, 59
2, 20678, Note_on_c, 0, 51, 0
2, 20693, Note_on_c, 0, 52, 52
2, 20699, Note_on_c, 0, 68, 62
2, 20722, Note_on_c, 0, 73, 0
2, 20754, Note_on_c, 0, 68, 0
2, 20759, Note_on_c, 0, 52, 0
2, 20798, Note_on_c, 0, 49, 52
2, 20899, Note_on_c, 0, 49, 0
2, 20902, Note_on_c, 0, 54, 58
2, 20912, Note_on_c, 0, 69, 72
2, 20970, Note_on_c, 0, 54, 0
2, 21006, Note_on_c, 0, 52, 58
2, 21112, Note_on_c, 0, 52, 0
2, 21114, Note_on_c, 0, 51, 67
2, 21114, Note_on_c, 0, 70, 67
2, 21139, Note_on_c, 0, 69, 0
2, 21213, Note_on_c, 0, 51, 0
2, 21214, Note_on_c, 0, 49, 57
2, 21318, Note_on_c, 0, 49, 0
2, 21330, Note_on_c, 0, 70, 0
2, 21335, Note_on_c, 0, 71, 73
2, 21339, Note_on_c, 0, 47, 56
2, 21413, Note_on_c, 0, 47, 0
2, 21452, Note_on_c, 0, 49, 58
2, 21541, Note_on_c, 0, 49, 0
2, 21550, Note_on_c, 0, 47, 57
2, 21553, Note_on_c, 0, 75, 71
2, 21577, Note_on_c, 0, 76, 0
2, 21663, Note_on_c, 0, 47, 0
2, 21667, Note_on_c, 0, 46, 56
2, 21692, Note_on_c, 0, 75, 0
2, 21778, Note_on_c, 0, 76, 75
2, 21780, Note_on_c, 0, 46, 0
2, 21784, Note_on_c, 0, 44, 61
2, 21877, Note_on_c, 0, 44, 0
2, 21889, Note_on_c, 0, 49, 62
2, 21976, Note_on_c, 0, 49, 0
2, 21987, Note_on_c, 0, 77, 82
2, 21988, Note_on_c, 0, 47, 64
2, 22026, Note_on_c, 0, 76, 0
2, 22083, Note_on_c, 0, 47, 0
2, 22090, Note_on_c, 0, 49, 70
2, 22193, Note_on_c, 0, 49, 0
2, 22209, Note_on_c, 0, 42, 68
2, 22223, Note_on_c, 0, 78, 83
2, 22232, Note_on_c, 0, 77, 0
2, 22318, Note_on_c, 0, 42, 0
2, 22321, Note_on_c, 0, 49, 64
2, 22392, Note_on_c, 0, 49, 0
2, 22425, Note_on_c, 0, 54, 67
2, 22449, Note_on_c, 0, 70, 75
2, 22458, Note_on_c, 0, 71, 0
2, 22532, Note_on_c, 0, 52, 68
2, 22541, Note_on_c, 0, 54, 0
2, 22610, Note_on_c, 0, 70, 0
2, 22643, Note_on_c, 0, 51, 70
2, 22654, Note_on_c, 0, 52, 0
2, 22655, Note_on_c, 0, 71, 84
2, 22753, Note_on_c, 0, 56, 71
2, 22759, Note_on_c, 0, 51, 0
2, 22858, Note_on_c, 0, 56, 0
2, 22862, Note_on_c, 0, 72, 87
2, 22864, Note_on_c, 0, 54, 68
2, 22887, Note_on_c, 0, 71, 0
2, 22961, Note_on_c, 0, 54, 0
2, 22977, Note_on_c, 0, 56, 68
2, 23070, Note_on_c, 0, 72, 0
2, 23088, Note_on_c, 0, 56, 0
2, 23088, Note_on_c, 0, 73, 89
2, 23091, Note_on_c, 0, 49, 60
2, 23182, Note_on_c, 0, 51, 73
2, 23187, Note_on_c, 0, 49, 0
2, 23288, Note_on_c, 0, 77, 90
2, 23302, Note_on_c, 0, 49, 69
2, 23331, Note_on_c, 0, 78, 0
2, 23351, Note_on_c, 0, 51, 0
2, 23401, Note_on_c, 0, 47, 66
2, 23401, Note_on_c, 0, 49, 0
2, 23504, Note_on_c, 0, 78, 94
2, 23511, Note_on_c, 0, 77, 0
2, 23514, Note_on_c, 0, 46, 70
2, 23527, Note_on_c, 0, 47, 0
2, 23615, Note_on_c, 0, 51, 74
2, 23646, Note_on_c, 0, 46, 0
2, 23719, Note_on_c, 0, 79, 88
2, 23729, Note_on_c, 0, 49, 72
2, 23735, Note_on_c, 0, 51, 0
2, 23748, Note_on_c, 0, 78, 0
2, 23836, Note_on_c, 0, 51, 84
2, 23847, Note_on_c, 0, 49, 0
2, 23863, Note_on_c, 0, 73, 0
2, 23935, Note_on_c, 0, 51, 0
2, 23936, Note_on_c, 0, 80, 90
2, 23950, Note_on_c, 0, 44, 76
2, 23960, Note_on_c, 0, 79, 0
2, 24052, Note_on_c, 0, 44, 0
2, 24052, Note_on_c, 0, 73, 78
2, 24150, Note_on_c, 0, 73, 0
2, 24153, Note_on_c, 0, 51, 76
2, 24157, Note_on_c, 0, 71, 79
2, 24199, Note_on_c, 0, 51, 0
2, 24248, Note_on_c, 0, 71, 0
2, 24253, Note_on_c, 0, 70, 69
2, 24332, Note_on_c, 0, 70, 0
2, 24364, Note_on_c, 0, 56, 79
2, 24367, Note_on_c, 0, 71, 78
2, 24407, Note_on_c, 0, 56, 0
2, 24416, Note_on_c, 0, 80, 0
2, 24467, Note_on_c, 0, 75, 80
2, 24513, Note_on_c, 0, 71, 0
2, 24575, Note_on_c, 0, 80, 81
2, 24583, Note_on_c, 0, 47, 79
2, 24597, Note_on_c, 0, 75, 0
2, 24634, Note_on_c, 0, 47, 0
2, 24673, Note_on_c, 0, 78, 74
2, 24778, Note_on_c, 0, 76, 81
2, 24782, Note_on_c, 0, 49, 81
2, 24817, Note_on_c, 0, 78, 0
2, 24826, Note_on_c, 0, 80, 0
2, 24846, Note_on_c, 0, 49, 0
2, 24887, Note_on_c, 0, 75, 83
2, 24903, Note_on_c, 0, 76, 0
2, 24992, Note_on_c, 0, 51, 68
2, 24996, Note_on_c, 0, 73, 83
2, 25030, Note_on_c, 0, 75, 0
2, 25052, Note_on_c, 0, 51, 0
2, 25094, Note_on_c, 0, 71, 82
2, 25095, Note_on_c, 0, 73, 0
2, 25202, Note_on_c, 0, 52, 81
2, 25203, Note_on_c, 0, 70, 81
2, 25209, Note_on_c, 0, 71, 0
2, 25239, Note_on_c, 0, 43, 9
2, 25263, Note_on_c, 0, 52, 0
2, 25317, Note_on_c, 0, 71, 87
2, 25324, Note_on_c, 0, 70, 0
2, 25384, Note_on_c, 0, 43, 0
2, 25421, Note_on_c, 0, 46, 73
2, 25421, Note_on_c, 0, 73, 82
2, 25451, Note_on_c, 0, 71, 0
2, 25509, Note_on_c, 0, 46, 0
2, 25516, Note_on_c, 0, 68, 82
2, 25625, Note_on_c, 0, 51, 81
2, 25633, Note_on_c, 0, 67, 83
2, 25647, Note_on_c, 0, 68, 0
2, 25661, Note_on_c, 0, 73, 0
2, 25715, Note_on_c, 0, 51, 0
2, 25724, Note_on_c, 0, 68, 84
2, 25750, Note_on_c, 0, 67, 0
2, 25830, Note_on_c, 0, 70, 87
2, 25832, Note_on_c, 0, 49, 67
2, 25862, Note_on_c, 0, 68, 0
2, 25872, Note_on_c, 0, 49, 0
2, 25912, Note_on_c, 0, 70, 0
2, 25928, Note_on_c, 0, 64, 79
2, 26043, Note_on_c, 0, 47, 70
2, 26052, Note_on_c, 0, 64, 0
2, 26053, Note_on_c, 0, 63, 80
2, 26090, Note_on_c, 0, 47, 0
2, 26159, Note_on_c, 0, 61, 83
2, 26165, Note_on_c, 0, 63, 0
2, 26246, Note_on_c, 0, 61, 0
2, 26254, Note_on_c, 0, 43, 75
2, 26254, Note_on_c, 0, 59, 77
2, 26294, Note_on_c, 0, 43, 0
2, 26342, Note_on_c, 0, 58, 79
2, 26342, Note_on_c, 0, 59, 0
2, 26423, Note_on_c, 0, 58, 0
2, 26452, Note_on_c, 0, 59, 81
2, 26460, Note_on_c, 0, 44, 74
2, 26510, Note_on_c, 0, 44, 0
2, 26553, Note_on_c, 0, 63, 80
2, 26581, Note_on_c, 0, 59, 0
2, 26658, Note_on_c, 0, 68, 88
2, 26666, Note_on_c, 0, 40, 74
2, 26672, Note_on_c, 0, 63, 0
2, 26706, Note_on_c, 0, 40, 0
2, 26761, Note_on_c, 0, 68, 0
2, 26767, Note_on_c, 0, 59, 76
2, 26865, Note_on_c, 0, 37, 75
2, 26885, Note_on_c, 0, 58, 84
2, 26902, Note_on_c, 0, 59, 0
2, 26903, Note_on_c, 0, 37, 0
2, 26975, Note_on_c, 0, 58, 0
2, 26990, Note_on_c, 0, 68, 80
2, 27074, Note_on_c, 0, 39, 81
2, 27095, Note_on_c, 0, 58, 81
2, 27100, Note_on_c, 0, 39, 0
2, 27146, Note_on_c, 0, 68, 0
2, 27189, Note_on_c, 0, 67, 79
2, 27195, Note_on_c, 0, 58, 0
2, 27277, Note_on_c, 0, 44, 80
2, 27294, Note_on_c, 0, 68, 81
2, 27314, Note_on_c, 0, 67, 0
2, 27388, Note_on_c, 0, 59, 71
2, 27466, Note_on_c, 0, 44, 0
2, 27492, Note_on_c, 0, 61, 82
2, 27505, Note_on_c, 0, 59, 0
2, 27533, Note_on_c, 0, 68, 0
2, 27595, Note_on_c, 0, 63, 74
2, 27615, Note_on_c, 0, 61, 0
2, 27700, Note_on_c, 0, 56, 80
2, 27721, Note_on_c, 0, 63, 0
2, 27786, Note_on_c, 0, 51, 77
2, 27788, Note_on_c, 0, 56, 0
2, 27886, Note_on_c, 0, 53, 80
2, 27913, Note_on_c, 0, 51, 0
2, 27975, Note_on_c, 0, 53, 0
2, 27978, Note_on_c, 0, 55, 79
2, 28091, Note_on_c, 0, 55, 0
2, 28091, Note_on_c, 0, 56, 83
2, 28208, Note_on_c, 0, 58, 75
2, 28216, Note_on_c, 0, 56, 0
2, 28317, Note_on_c, 0, 59, 73
2, 28335, Note_on_c, 0, 58, 0
2, 28400, Note_on_c, 0, 61, 73
2, 28405, Note_on_c, 0, 59, 0
2, 28492, Note_on_c, 0, 61, 0
2, 28514, Note_on_c, 0, 59, 73
2, 28612, Note_on_c, 0, 58, 69
2, 28640, Note_on_c, 0, 59, 0
2, 28722, Note_on_c, 0, 56, 68
2, 28751, Note_on_c, 0, 58, 0
2, 28808, Note_on_c, 0, 56, 0
2, 28823, Note_on_c, 0, 54, 63
2, 28902, Note_on_c, 0, 54, 0
2, 28925, Note_on_c, 0, 53, 64
2, 28935, Note_on_c, 0, 37, 59
2, 29049, Note_on_c, 0, 53, 0
2, 29054, Note_on_c, 0, 56, 59
2, 29107, Note_on_c, 0, 37, 0
2, 29161, Note_on_c, 0, 56, 0
2, 29165, Note_on_c, 0, 58, 56
2, 29253, Note_on_c, 0, 59, 58
2, 29257, Note_on_c, 0, 58, 0
2, 29301, Note_on_c, 0, 59, 0
2, 29361, Note_on_c, 0, 49, 55
2, 29438, Note_on_c, 0, 49, 0
2, 29457, Note_on_c, 0, 51, 61
2, 29538, Note_on_c, 0, 51, 0
2, 29562, Note_on_c, 0, 53, 67
2, 29635, Note_on_c, 0, 53, 0
2, 29666, Note_on_c, 0, 54, 65
2, 29769, Note_on_c, 0, 56, 72
2, 29770, Note_on_c, 0, 54, 0
2, 29873, Note_on_c, 0, 58, 67
2, 29886, Note_on_c, 0, 56, 0
2, 29964, Note_on_c, 0, 58, 0
2, 29968, Note_on_c, 0, 59, 74
2, 30053, Note_on_c, 0, 59, 0
2, 30071, Note_on_c, 0, 61, 73
2, 30166, Note_on_c, 0, 61, 0
2, 30177, Note_on_c, 0, 63, 72
2, 30245, Note_on_c, 0, 63, 0
2, 30279, Note_on_c, 0, 65, 71
2, 30379, Note_on_c, 0, 66, 67
2, 30414, Note_on_c, 0, 65, 0
2, 30472, Note_on_c, 0, 68, 72
2, 30490, Note_on_c, 0, 66, 0
2, 30566, Note_on_c, 0, 42, 64
2, 30578, Note_on_c, 0, 70, 70
2, 30594, Note_on_c, 0, 68, 0
2, 30693, Note_on_c, 0, 66, 68
2, 30695, Note_on_c, 0, 70, 0
2, 30776, Note_on_c, 0, 66, 0
2, 30796, Note_on_c, 0, 65, 68
2, 30801, Note_on_c, 0, 42, 0
2, 30884, Note_on_c, 0, 65, 0
2, 30897, Note_on_c, 0, 63, 69
2, 31009, Note_on_c, 0, 61, 65
2, 31023, Note_on_c, 0, 63, 0
2, 31097, Note_on_c, 0, 59, 68
2, 31107, Note_on_c, 0, 61, 0
2, 31197, Note_on_c, 0, 58, 69
2, 31202, Note_on_c, 0, 59, 0
2, 31306, Note_on_c, 0, 56, 69
2, 31314, Note_on_c, 0, 58, 0
2, 31398, Note_on_c, 0, 56, 0
2, 31406, Note_on_c, 0, 54, 71
2, 31508, Note_on_c, 0, 56, 68
2, 31520, Note_on_c, 0, 54, 0
2, 31616, Note_on_c, 0, 56, 0
2, 31617, Note_on_c, 0, 58, 67
2, 31703, Note_on_c, 0, 59, 68
2, 31710, Note_on_c, 0, 58, 0
2, 31819, Note_on_c, 0, 58, 71
2, 31856, Note_on_c, 0, 59, 0
2, 31911, Note_on_c, 0, 56, 74
2, 31936, Note_on_c, 0, 58, 0
2, 32018, Note_on_c, 0, 54, 72
2, 32051, Note_on_c, 0, 56, 0
2, 32102, Note_on_c, 0, 52, 71
2, 32110, Note_on_c, 0, 54, 0
2, 32225, Note_on_c, 0, 51, 74
2, 32227, Note_on_c, 0, 35, 76
2, 32237, Note_on_c, 0, 52, 0
2, 32339, Note_on_c, 0, 51, 0
2, 32341, Note_on_c, 0, 54, 74
2, 32407, Note_on_c, 0, 35, 0
2, 32441, Note_on_c, 0, 56, 71
2, 32457, Note_on_c, 0, 54, 0
2, 32538, Note_on_c, 0, 57, 69
2, 32564, Note_on_c, 0, 56, 0
2, 32612, Note_on_c, 0, 57, 0
2, 32643, Note_on_c, 0, 47, 73
2, 32738, Note_on_c, 0, 47, 0
2, 32744, Note_on_c, 0, 49, 72
2, 32838, Note_on_c, 0, 49, 0
2, 32840, Note_on_c, 0, 51, 79
2, 32917, Note_on_c, 0, 51, 0
2, 32949, Note_on_c, 0, 52, 75
2, 33045, Note_on_c, 0, 54, 77
2, 33072, Note_on_c, 0, 52, 0
2, 33147, Note_on_c, 0, 56, 78
2, 33181, Note_on_c, 0, 54, 0
2, 33229, Note_on_c, 0, 57, 81
2, 33235, Note_on_c, 0, 56, 0
2, 33327, Note_on_c, 0, 57, 0
2, 33328, Note_on_c, 0, 59, 82
2, 33425, Note_on_c, 0, 59, 0
2, 33430, Note_on_c, 0, 61, 83
2, 33516, Note_on_c, 0, 61, 0
2, 33532, Note_on_c, 0, 63, 78
2, 33622, Note_on_c, 0, 64, 82
2, 33651, Note_on_c, 0, 63, 0
2, 33725, Note_on_c, 0, 66, 78
2, 33762, Note_on_c, 0, 64, 0
2, 33825, Note_on_c, 0, 68, 82
2, 33836, Note_on_c, 0, 40, 76
2, 33840, Note_on_c, 0, 66, 0
2, 33920, Note_on_c, 0, 68, 0
2, 33932, Note_on_c, 0, 64, 72
2, 34038, Note_on_c, 0, 63, 77
2, 34044, Note_on_c, 0, 40, 0
2, 34049, Note_on_c, 0, 64, 0
2, 34140, Note_on_c, 0, 61, 76
2, 34166, Note_on_c, 0, 63, 0
2, 34249, Note_on_c, 0, 61, 0
2, 34250, Note_on_c, 0, 59, 76
2, 34336, Note_on_c, 0, 57, 73
2, 34355, Note_on_c, 0, 59, 0
2, 34445, Note_on_c, 0, 56, 77
2, 34448, Note_on_c, 0, 57, 0
2, 34555, Note_on_c, 0, 54, 72
2, 34561, Note_on_c, 0, 56, 0
2, 34618, Note_on_c, 0, 54, 0
2, 34654, Note_on_c, 0, 52, 76
2, 34749, Note_on_c, 0, 52, 0
2, 34756, Note_on_c, 0, 54, 77
2, 34767, Note_on_c, 0, 63, 72
2, 34835, Note_on_c, 0, 54, 0
2, 34852, Note_on_c, 0, 56, 74
2, 34859, Note_on_c, 0, 64, 76
2, 34868, Note_on_c, 0, 63, 0
2, 34928, Note_on_c, 0, 56, 0
2, 34944, Note_on_c, 0, 66, 77
2, 34947, Note_on_c, 0, 64, 0
2, 34967, Note_on_c, 0, 57, 68
2, 35043, Note_on_c, 0, 66, 0
2, 35049, Note_on_c, 0, 64, 81
2, 35053, Note_on_c, 0, 57, 0
2, 35066, Note_on_c, 0, 56, 74
2, 35146, Note_on_c, 0, 64, 0
2, 35149, Note_on_c, 0, 63, 80
2, 35164, Note_on_c, 0, 56, 0
2, 35171, Note_on_c, 0, 54, 75
2, 35239, Note_on_c, 0, 54, 0
2, 35262, Note_on_c, 0, 61, 82
2, 35268, Note_on_c, 0, 63, 0
2, 35271, Note_on_c, 0, 52, 71
2, 35360, Note_on_c, 0, 52, 0
2, 35362, Note_on_c, 0, 59, 83
2, 35365, Note_on_c, 0, 61, 0
2, 35366, Note_on_c, 0, 51, 76
2, 35462, Note_on_c, 0, 58, 79
2, 35463, Note_on_c, 0, 49, 70
2, 35469, Note_on_c, 0, 42, 70
2, 35473, Note_on_c, 0, 51, 0
2, 35473, Note_on_c, 0, 59, 0
2, 35571, Note_on_c, 0, 61, 78
2, 35574, Note_on_c, 0, 58, 0
2, 35602, Note_on_c, 0, 42, 0
2, 35613, Note_on_c, 0, 49, 0
2, 35674, Note_on_c, 0, 63, 78
2, 35682, Note_on_c, 0, 61, 0
2, 35772, Note_on_c, 0, 64, 76
2, 35789, Note_on_c, 0, 63, 0
2, 35856, Note_on_c, 0, 64, 0
2, 35875, Note_on_c, 0, 54, 81
2, 35970, Note_on_c, 0, 56, 79
2, 35973, Note_on_c, 0, 54, 0
2, 36063, Note_on_c, 0, 56, 0
2, 36074, Note_on_c, 0, 58, 79
2, 36147, Note_on_c, 0, 58, 0
2, 36169, Note_on_c, 0, 59, 82
2, 36267, Note_on_c, 0, 61, 82
2, 36298, Note_on_c, 0, 59, 0
2, 36370, Note_on_c, 0, 63, 80
2, 36404, Note_on_c, 0, 61, 0
2, 36450, Note_on_c, 0, 63, 0
2, 36455, Note_on_c, 0, 64, 74
2, 36500, Note_on_c, 0, 65, 7
2, 36501, Note_on_c, 0, 65, 0
2, 36547, Note_on_c, 0, 66, 81
2, 36548, Note_on_c, 0, 64, 0
2, 36643, Note_on_c, 0, 66, 0
2, 36646, Note_on_c, 0, 68, 82
2, 36741, Note_on_c, 0, 70, 79
2, 36748, Note_on_c, 0, 68, 0
2, 36847, Note_on_c, 0, 71, 84
2, 36875, Note_on_c, 0, 70, 0
2, 36929, Note_on_c, 0, 73, 81
2, 36967, Note_on_c, 0, 71, 0
2, 37034, Note_on_c, 0, 75, 82
2, 37042, Note_on_c, 0, 47, 68
2, 37052, Note_on_c, 0, 73, 0
2, 37124, Note_on_c, 0, 75, 0
2, 37139, Note_on_c, 0, 71, 71
2, 37228, Note_on_c, 0, 47, 0
2, 37247, Note_on_c, 0, 71, 0
2, 37250, Note_on_c, 0, 70, 74
2, 37358, Note_on_c, 0, 68, 68
2, 37393, Note_on_c, 0, 70, 0
2, 37456, Note_on_c, 0, 66, 62
2, 37463, Note_on_c, 0, 68, 0
2, 37562, Note_on_c, 0, 66, 0
2, 37564, Note_on_c, 0, 64, 65
2, 37661, Note_on_c, 0, 64, 0
2, 37679, Note_on_c, 0, 63, 64
2, 37777, Note_on_c, 0, 63, 0
2, 37785, Note_on_c, 0, 61, 60
2, 37858, Note_on_c, 0, 61, 0
2, 37881, Note_on_c, 0, 59, 54
2, 37959, Note_on_c, 0, 59, 0
2, 37996, Note_on_c, 0, 75, 64
2, 38003, Note_on_c, 0, 63, 47
2, 38052, Note_on_c, 0, 76, 67
2, 38067, Note_on_c, 0, 63, 0
2, 38073, Note_on_c, 0, 75, 0
2, 38092, Note_on_c, 0, 54, 47
2, 38100, Note_on_c, 0, 78, 73
2, 38109, Note_on_c, 0, 76, 0
2, 38139, Note_on_c, 0, 54, 0
2, 38193, Note_on_c, 0, 63, 46
2, 38260, Note_on_c, 0, 63, 0
2, 38276, Note_on_c, 0, 78, 0
2, 38310, Note_on_c, 0, 59, 54
2, 38326, Note_on_c, 0, 76, 66
2, 38418, Note_on_c, 0, 59, 0
2, 38424, Note_on_c, 0, 75, 73
2, 38430, Note_on_c, 0, 76, 0
2, 38451, Note_on_c, 0, 63, 45
2, 38457, Note_on_c, 0, 75, 0
2, 38497, Note_on_c, 0, 63, 0
2, 38524, Note_on_c, 0, 54, 50
2, 38544, Note_on_c, 0, 73, 74
2, 38581, Control_c, 0, 67, 20
2, 38596, Control_c, 0, 67, 57
2, 38611, Control_c, 0, 67, 96
2, 38621, Note_on_c, 0, 54, 0
2, 38623, Note_on_c, 0, 73, 0
2, 38624, Note_on_c, 0, 71, 75
2, 38626, Control_c, 0, 67, 127
2, 38656, Note_on_c, 0, 71, 0
2, 38674, Note_on_c, 0, 63, 47
2, 38719, Note_on_c, 0, 63, 0
2, 38768, Note_on_c, 0, 83, 80
2, 38772, Note_on_c, 0, 56, 45
2, 38860, Note_on_c, 0, 56, 0
2, 38995, Note_on_c, 0, 80, 62
2, 39015, Note_on_c, 0, 51, 42
2, 39048, Note_on_c, 0, 80, 0
2, 39050, Note_on_c, 0, 51, 0
2, 39085, Note_on_c, 0, 59, 39
2, 39170, Note_on_c, 0, 59, 0
2, 39222, Note_on_c, 0, 56, 52
2, 39224, Note_on_c, 0, 75, 64
2, 39262, Note_on_c, 0, 75, 0
2, 39286, Note_on_c, 0, 56, 0
2, 39329, Note_on_c, 0, 59, 39
2, 39400, Note_on_c, 0, 59, 0
2, 39440, Note_on_c, 0, 51, 46
2, 39441, Note_on_c, 0, 78, 61
2, 39490, Note_on_c, 0, 78, 0
2, 39513, Note_on_c, 0, 51, 0
2, 39546, Note_on_c, 0, 59, 47
2, 39607, Note_on_c, 0, 59, 0
2, 39674, Note_on_c, 0, 56, 49
2, 39679, Note_on_c, 0, 77, 62
2, 39754, Note_on_c, 0, 56, 0
2, 39777, Note_on_c, 0, 61, 49
2, 39849, Note_on_c, 0, 61, 0
2, 39894, Note_on_c, 0, 53, 47
2, 39898, Note_on_c, 0, 80, 64
2, 39904, Note_on_c, 0, 77, 0
2, 39976, Note_on_c, 0, 53, 0
2, 40002, Note_on_c, 0, 61, 52
2, 40023, Note_on_c, 0, 80, 0
2, 40088, Note_on_c, 0, 61, 0
2, 40115, Note_on_c, 0, 56, 63
2, 40121, Note_on_c, 0, 78, 75
2, 40121, Note_on_c, 0, 83, 0
2, 40200, Note_on_c, 0, 56, 0
2, 40215, Note_on_c, 0, 77, 83
2, 40218, Note_on_c, 0, 61, 53
2, 40225, Note_on_c, 0, 78, 0
2, 40249, Note_on_c, 0, 77, 0
2, 40275, Note_on_c, 0, 61, 0
2, 40319, Note_on_c, 0, 53, 54
2, 40337, Note_on_c, 0, 75, 83
2, 40422, Note_on_c, 0, 73, 77
2, 40425, Note_on_c, 0, 75, 0
2, 40426, Note_on_c, 0, 53, 0
2, 40450, Note_on_c, 0, 61, 46
2, 40480, Note_on_c, 0, 73, 0
2, 40513, Note_on_c, 0, 61, 0
2, 40539, Note_on_c, 0, 82, 78
2, 40563, Note_on_c, 0, 54, 51
2, 40670, Note_on_c, 0, 54, 0
2, 40682, Note_on_c, 0, 58, 51
2, 40731, Note_on_c, 0, 58, 0
2, 40778, Note_on_c, 0, 49, 45
2, 40781, Note_on_c, 0, 78, 62
2, 40830, Note_on_c, 0, 78, 0
2, 40850, Note_on_c, 0, 49, 0
2, 40899, Note_on_c, 0, 58, 26
2, 40937, Note_on_c, 0, 58, 0
2, 40982, Note_on_c, 0, 54, 49
2, 40999, Note_on_c, 0, 73, 63
2, 41038, Note_on_c, 0, 73, 0
2, 41073, Note_on_c, 0, 54, 0
2, 41103, Note_on_c, 0, 58, 45
2, 41155, Note_on_c, 0, 58, 0
2, 41204, Note_on_c, 0, 49, 40
2, 41212, Note_on_c, 0, 76, 57
2, 41277, Note_on_c, 0, 76, 0
2, 41310, Note_on_c, 0, 58, 48
2, 41354, Note_on_c, 0, 49, 0
2, 41362, Note_on_c, 0, 58, 0
2, 41418, Note_on_c, 0, 54, 51
2, 41440, Note_on_c, 0, 75, 67
2, 41523, Note_on_c, 0, 54, 0
2, 41546, Note_on_c, 0, 59, 51
2, 41639, Note_on_c, 0, 59, 0
2, 41649, Note_on_c, 0, 78, 64
2, 41665, Note_on_c, 0, 51, 50
2, 41674, Note_on_c, 0, 75, 0
2, 41684, Note_on_c, 0, 82, 0
2, 41732, Note_on_c, 0, 51, 0
2, 41763, Note_on_c, 0, 59, 61
2, 41779, Note_on_c, 0, 78, 0
2, 41845, Note_on_c, 0, 59, 0
2, 41867, Note_on_c, 0, 76, 66
2, 41879, Note_on_c, 0, 54, 57
2, 41965, Note_on_c, 0, 75, 77
2, 41972, Note_on_c, 0, 76, 0
2, 41983, Note_on_c, 0, 59, 57
2, 42000, Note_on_c, 0, 75, 0
2, 42018, Note_on_c, 0, 54, 0
2, 42035, Note_on_c, 0, 59, 0
2, 42073, Note_on_c, 0, 51, 58
2, 42077, Note_on_c, 0, 73, 80
2, 42147, Note_on_c, 0, 51, 0
2, 42172, Note_on_c, 0, 71, 71
2, 42174, Note_on_c, 0, 73, 0
2, 42191, Note_on_c, 0, 59, 50
2, 42206, Note_on_c, 0, 71, 0
2, 42241, Note_on_c, 0, 59, 0
2, 42300, Note_on_c, 0, 56, 58
2, 42300, Note_on_c, 0, 77, 76
2, 42315, Control_c, 0, 67, 118
2, 42329, Control_c, 0, 67, 94
2, 42337, Note_on_c, 0, 77, 0
2, 42344, Control_c, 0, 67, 61
2, 42360, Control_c, 0, 67, 29
2, 42374, Note_on_c, 0, 56, 0
2, 42375, Control_c, 0, 67, 0
2, 42404, Note_on_c, 0, 78, 75
2, 42411, Note_on_c, 0, 61, 48
2, 42448, Note_on_c, 0, 61, 0
2, 42450, Note_on_c, 0, 78, 0
2, 42504, Note_on_c, 0, 53, 55
2, 42518, Note_on_c, 0, 80, 66
2, 42537, Note_on_c, 0, 71, 67
2, 42573, Note_on_c, 0, 53, 0
2, 42610, Note_on_c, 0, 61, 50
2, 42624, Note_on_c, 0, 71, 0
2, 42638, Note_on_c, 0, 70, 58
2, 42674, Note_on_c, 0, 70, 0
2, 42682, Note_on_c, 0, 61, 0
2, 42732, Note_on_c, 0, 56, 61
2, 42743, Note_on_c, 0, 71, 72
2, 42831, Note_on_c, 0, 71, 0
2, 42836, Note_on_c, 0, 56, 0
2, 42838, Note_on_c, 0, 61, 51
2, 42918, Note_on_c, 0, 61, 0
2, 42958, Note_on_c, 0, 53, 58
2, 42963, Note_on_c, 0, 73, 83
2, 42970, Note_on_c, 0, 80, 0
2, 43029, Note_on_c, 0, 53, 0
2, 43052, Note_on_c, 0, 61, 62
2, 43110, Note_on_c, 0, 73, 0
2, 43127, Note_on_c, 0, 61, 0
2, 43158, Note_on_c, 0, 79, 76
2, 43164, Note_on_c, 0, 58, 65
2, 43205, Note_on_c, 0, 80, 70
2, 43228, Note_on_c, 0, 79, 0
2, 43230, Note_on_c, 0, 82, 78
2, 43269, Note_on_c, 0, 80, 0
2, 43279, Note_on_c, 0, 58, 0
2, 43282, Note_on_c, 0, 63, 50
2, 43287, Note_on_c, 0, 82, 0
2, 43326, Note_on_c, 0, 63, 0
2, 43371, Note_on_c, 0, 55, 55
2, 43383, Note_on_c, 0, 73, 74
2, 43387, Note_on_c, 0, 70, 70
2, 43446, Note_on_c, 0, 55, 0
2, 43475, Note_on_c, 0, 70, 0
2, 43477, Note_on_c, 0, 63, 54
2, 43488, Note_on_c, 0, 68, 68
2, 43561, Note_on_c, 0, 63, 0
2, 43583, Note_on_c, 0, 68, 0
2, 43597, Note_on_c, 0, 58, 60
2, 43598, Note_on_c, 0, 70, 73
2, 43624, Note_on_c, 0, 73, 0
2, 43649, Note_on_c, 0, 70, 0
2, 43700, Note_on_c, 0, 63, 54
2, 43701, Note_on_c, 0, 58, 0
2, 43771, Note_on_c, 0, 63, 0
2, 43790, Note_on_c, 0, 82, 84
2, 43793, Note_on_c, 0, 73, 62
2, 43808, Note_on_c, 0, 55, 55
2, 43851, Note_on_c, 0, 73, 0
2, 43904, Note_on_c, 0, 55, 0
2, 43904, Note_on_c, 0, 63, 51
2, 43929, Note_on_c, 0, 82, 0
2, 44008, Note_on_c, 0, 63, 0
2, 44029, Note_on_c, 0, 59, 56
2, 44035, Note_on_c, 0, 82, 88
2, 44050, Note_on_c, 0, 73, 68
2, 44151, Note_on_c, 0, 63, 53
2, 44196, Note_on_c, 0, 59, 0
2, 44205, Note_on_c, 0, 73, 0
2, 44235, Note_on_c, 0, 63, 0
2, 44259, Note_on_c, 0, 80, 80
2, 44262, Note_on_c, 0, 56, 55
2, 44277, Note_on_c, 0, 71, 65
2, 44299, Note_on_c, 0, 82, 0
2, 44335, Note_on_c, 0, 56, 0
2, 44365, Note_on_c, 0, 63, 53
2, 44380, Note_on_c, 0, 80, 0
2, 44465, Note_on_c, 0, 63, 0
2, 44490, Note_on_c, 0, 71, 0
2, 44493, Note_on_c, 0, 80, 74
2, 44498, Note_on_c, 0, 59, 48
2, 44501, Note_on_c, 0, 75, 60
2, 44578, Note_on_c, 0, 75, 0
2, 44604, Note_on_c, 0, 63, 45
2, 44630, Note_on_c, 0, 59, 0
2, 44671, Note_on_c, 0, 63, 0
2, 44713, Note_on_c, 0, 56, 42
2, 44731, Note_on_c, 0, 78, 56
2, 44765, Note_on_c, 0, 75, 49
2, 44770, Note_on_c, 0, 80, 0
2, 44782, Note_on_c, 0, 78, 0
2, 44809, Note_on_c, 0, 56, 0
2, 44833, Note_on_c, 0, 63, 46
2, 44876, Control_c, 0, 67, 36
2, 44891, Control_c, 0, 67, 71
2, 44906, Control_c, 0, 67, 104
2, 44922, Control_c, 0, 67, 127
2, 44931, Note_on_c, 0, 63, 0
2, 44966, Note_on_c, 0, 78, 58
2, 44970, Note_on_c, 0, 60, 47
2, 45006, Note_on_c, 0, 78, 0
2, 45027, Note_on_c, 0, 80, 46
2, 45049, Note_on_c, 0, 60, 0
2, 45053, Note_on_c, 0, 80, 0
2, 45080, Note_on_c, 0, 63, 33
2, 45080, Note_on_c, 0, 78, 66
2, 45114, Note_on_c, 0, 78, 0
2, 45123, Note_on_c, 0, 63, 0
2, 45126, Note_on_c, 0, 80, 55
2, 45128, Note_on_c, 0, 75, 0
2, 45150, Note_on_c, 0, 80, 0
2, 45157, Note_on_c, 0, 57, 48
2, 45177, Note_on_c, 0, 78, 64
2, 45222, Note_on_c, 0, 78, 0
2, 45228, Note_on_c, 0, 57, 0
2, 45243, Note_on_c, 0, 80, 52
2, 45265, Note_on_c, 0, 63, 39
2, 45267, Note_on_c, 0, 80, 0
2, 45280, Note_on_c, 0, 78, 65
2, 45317, Note_on_c, 0, 63, 0
2, 45332, Note_on_c, 0, 78, 0
2, 45345, Note_on_c, 0, 80, 58
2, 45349, Note_on_c, 0, 60, 49
2, 45367, Note_on_c, 0, 80, 0
2, 45382, Note_on_c, 0, 78, 62
2, 45397, Note_on_c, 0, 60, 0
2, 45421, Note_on_c, 0, 78, 0
2, 45424, Note_on_c, 0, 63, 53
2, 45438, Note_on_c, 0, 80, 56
2, 45460, Note_on_c, 0, 63, 0
2, 45460, Note_on_c, 0, 80, 0
2, 45470, Note_on_c, 0, 78, 70
2, 45492, Note_on_c, 0, 57, 51
2, 45542, Note_on_c, 0, 57, 0
2, 45544, Note_on_c, 0, 80, 54
2, 45547, Note_on_c, 0, 63, 51
2, 45560, Note_on_c, 0, 77, 78
2, 45562, Note_on_c, 0, 78, 0
2, 45596, Note_on_c, 0, 80, 0
2, 45606, Note_on_c, 0, 63, 0
2, 45617, Note_on_c, 0, 60, 47
2, 45637, Note_on_c, 0, 78, 71
2, 45639, Note_on_c, 0, 77, 0
2, 45682, Note_on_c, 0, 60, 0
2, 45698, Note_on_c, 0, 78, 0
2, 45709, Note_on_c, 0, 58, 57
2, 45730, Note_on_c, 0, 77, 78
2, 45850, Note_on_c, 0, 75, 57
2, 45939, Note_on_c, 0, 74, 64
2, 46009, Note_on_c, 0, 75, 0
2, 46037, Note_on_c, 0, 74, 0
2, 46055, Note_on_c, 0, 72, 57
2, 46147, Note_on_c, 0, 72, 0
2, 46168, Note_on_c, 0, 74, 64
2, 46170, Note_on_c, 0, 77, 0
2, 46251, Note_on_c, 0, 74, 0
2, 46269, Note_on_c, 0, 70, 60
2, 46311, Note_on_c, 0, 70, 0
2, 46334, Note_on_c, 0, 58, 0
2, 46372, Note_on_c, 0, 71, 61
2, 46462, Note_on_c, 0, 71, 0
2, 46481, Note_on_c, 0, 68, 60
2, 46572, Note_on_c, 0, 68, 0
2, 46580, Note_on_c, 0, 65, 60
2, 46677, Note_on_c, 0, 51, 54
2, 46688, Note_on_c, 0, 66, 60
2, 46709, Note_on_c, 0, 65, 0
2, 46756, Note_on_c, 0, 51, 0
2, 46788, Note_on_c, 0, 53, 58
2, 46791, Note_on_c, 0, 66, 0
2, 46795, Note_on_c, 0, 68, 67
2, 46859, Note_on_c, 0, 53, 0
2, 46887, Note_on_c, 0, 68, 0
2, 46889, Note_on_c, 0, 70, 66
2, 46894, Note_on_c, 0, 54, 59
2, 46951, Note_on_c, 0, 54, 0
2, 46993, Note_on_c, 0, 53, 59
2, 47000, Note_on_c, 0, 68, 74
2, 47060, Note_on_c, 0, 70, 0
2, 47100, Note_on_c, 0, 53, 0
2, 47113, Note_on_c, 0, 66, 68
2, 47114, Note_on_c, 0, 51, 58
2, 47149, Note_on_c, 0, 68, 0
2, 47190, Note_on_c, 0, 51, 0
2, 47205, Note_on_c, 0, 50, 59
2, 47208, Note_on_c, 0, 66, 0
2, 47225, Note_on_c, 0, 65, 65
2, 47277, Note_on_c, 0, 50, 0
2, 47306, Note_on_c, 0, 65, 0
2, 47311, Note_on_c, 0, 48, 53
2, 47320, Note_on_c, 0, 63, 59
2, 47388, Note_on_c, 0, 63, 0
2, 47398, Note_on_c, 0, 48, 0
2, 47428, Note_on_c, 0, 46, 41
2, 47433, Note_on_c, 0, 53, 46
2, 47433, Note_on_c, 0, 62, 59
2, 47540, Note_on_c, 0, 62, 0
2, 47550, Note_on_c, 0, 65, 56
2, 47560, Note_on_c, 0, 46, 0
2, 47589, Note_on_c, 0, 53, 0
2, 47648, Note_on_c, 0, 65, 0
2, 47657, Note_on_c, 0, 66, 54
2, 47745, Note_on_c, 0, 66, 0
2, 47746, Note_on_c, 0, 68, 53
2, 47830, Note_on_c, 0, 68, 0
2, 47862, Note_on_c, 0, 58, 55
2, 47950, Note_on_c, 0, 58, 0
2, 47963, Note_on_c, 0, 60, 58
2, 48054, Note_on_c, 0, 60, 0
2, 48073, Note_on_c, 0, 62, 68
2, 48148, Note_on_c, 0, 62, 0
2, 48158, Note_on_c, 0, 63, 67
2, 48267, Note_on_c, 0, 65, 72
2, 48308, Note_on_c, 0, 63, 0
2, 48373, Note_on_c, 0, 66, 74
2, 48418, Note_on_c, 0, 65, 0
2, 48471, Note_on_c, 0, 66, 0
2, 48478, Note_on_c, 0, 68, 77
2, 48574, Note_on_c, 0, 70, 77
2, 48579, Control_c, 0, 67, 117
2, 48584, Note_on_c, 0, 68, 0
2, 48595, Control_c, 0, 67, 82
2, 48610, Control_c, 0, 67, 38
2, 48624, Control_c, 0, 67, 0
2, 48663, Note_on_c, 0, 70, 0
2, 48670, Note_on_c, 0, 72, 77
2, 48771, Note_on_c, 0, 72, 0
2, 48773, Note_on_c, 0, 74, 72
2, 48875, Note_on_c, 0, 75, 78
2, 48957, Note_on_c, 0, 74, 0
2, 48977, Note_on_c, 0, 77, 79
2, 49040, Note_on_c, 0, 75, 0
2, 49091, Note_on_c, 0, 77, 0
2, 49094, Note_on_c, 0, 78, 77
2, 49104, Note_on_c, 0, 51, 64
2, 49190, Note_on_c, 0, 75, 72
2, 49233, Note_on_c, 0, 78, 0
2, 49292, Note_on_c, 0, 51, 0
2, 49300, Note_on_c, 0, 70, 77
2, 49346, Note_on_c, 0, 75, 0
2, 49394, Note_on_c, 0, 66, 74
2, 49415, Note_on_c, 0, 70, 0
2, 49477, Note_on_c, 0, 66, 0
2, 49500, Note_on_c, 0, 63, 73
2, 49602, Note_on_c, 0, 61, 74
2, 49614, Note_on_c, 0, 63, 0
2, 49709, Note_on_c, 0, 60, 67
2, 49758, Note_on_c, 0, 61, 0
2, 49804, Note_on_c, 0, 58, 63
2, 49804, Note_on_c, 0, 60, 0
2, 49932, Note_on_c, 0, 60, 67
2, 49944, Note_on_c, 0, 58, 0
2, 49947, Note_on_c, 0, 56, 50
2, 50022, Note_on_c, 0, 60, 0
2, 50037, Note_on_c, 0, 63, 62
2, 50109, Note_on_c, 0, 63, 0
2, 50136, Note_on_c, 0, 68, 59
2, 50191, Note_on_c, 0, 56, 0
2, 50213, Note_on_c, 0, 68, 0
2, 50244, Note_on_c, 0, 72, 62
2, 50351, Note_on_c, 0, 75, 66
2, 50360, Note_on_c, 0, 72, 0
2, 50436, Note_on_c, 0, 78, 67
2, 50449, Note_on_c, 0, 75, 0
2, 50497, Control_c, 0, 67, 9
2, 50513, Control_c, 0, 67, 22
2, 50528, Control_c, 0, 67, 41
2, 50542, Control_c, 0, 67, 61
2, 50556, Note_on_c, 0, 76, 56
2, 50558, Control_c, 0, 67, 84
2, 50571, Note_on_c, 0, 78, 0
2, 50573, Control_c, 0, 67, 109
2, 50596, Control_c, 0, 67, 127
2, 50647, Note_on_c, 0, 75, 65
2, 50649, Note_on_c, 0, 76, 0
2, 50748, Note_on_c, 0, 75, 0
2, 50770, Note_on_c, 0, 76, 61
2, 50773, Note_on_c, 0, 56, 44
2, 50775, Note_on_c, 0, 49, 39
2, 50865, Note_on_c, 0, 76, 0
2, 50882, Note_on_c, 0, 73, 56
2, 50917, Note_on_c, 0, 49, 0
2, 50949, Note_on_c, 0, 56, 0
2, 50993, Note_on_c, 0, 68, 58
2, 51023, Note_on_c, 0, 73, 0
2, 51085, Note_on_c, 0, 68, 0
2, 51092, Note_on_c, 0, 64, 49
2, 51170, Note_on_c, 0, 64, 0
2, 51178, Note_on_c, 0, 61, 53
2, 51270, Note_on_c, 0, 61, 0
2, 51282, Note_on_c, 0, 59, 54
2, 51406, Note_on_c, 0, 58, 53
2, 51418, Note_on_c, 0, 59, 0
2, 51479, Note_on_c, 0, 58, 0
2, 51488, Note_on_c, 0, 56, 60
2, 51603, Note_on_c, 0, 56, 0
2, 51610, Note_on_c, 0, 58, 62
2, 51649, Note_on_c, 0, 54, 44
2, 51697, Note_on_c, 0, 58, 0
2, 51724, Note_on_c, 0, 61, 53
2, 51796, Note_on_c, 0, 61, 0
2, 51818, Note_on_c, 0, 66, 58
2, 51831, Note_on_c, 0, 54, 0
2, 51867, Note_on_c, 0, 66, 0
2, 51914, Note_on_c, 0, 70, 61
2, 52025, Note_on_c, 0, 73, 71
2, 52098, Note_on_c, 0, 70, 0
2, 52111, Note_on_c, 0, 76, 73
2, 52149, Note_on_c, 0, 73, 0
2, 52227, Note_on_c, 0, 75, 76
2, 52292, Note_on_c, 0, 76, 0
2, 52328, Note_on_c, 0, 73, 77
2, 52366, Note_on_c, 0, 75, 0
2, 52434, Note_on_c, 0, 47, 61
2, 52440, Note_on_c, 0, 73, 0
2, 52442, Note_on_c, 0, 54, 59
2, 52444, Note_on_c, 0, 75, 78
2, 52542, Note_on_c, 0, 71, 73
2, 52555, Note_on_c, 0, 75, 0
2, 52616, Control_c, 0, 67, 123
2, 52616, Note_on_c, 0, 47, 0
2, 52631, Control_c, 0, 67, 115
2, 52644, Note_on_c, 0, 54, 0
2, 52647, Control_c, 0, 67, 103
2, 52648, Note_on_c, 0, 66, 74
2, 52662, Control_c, 0, 67, 91
2, 52678, Control_c, 0, 67, 77
2, 52681, Note_on_c, 0, 71, 0
2, 52693, Control_c, 0, 67, 63
2, 52707, Control_c, 0, 67, 48
2, 52723, Control_c, 0, 67, 32
2, 52738, Control_c, 0, 67, 19
2, 52750, Note_on_c, 0, 63, 78
2, 52754, Control_c, 0, 67, 0
2, 52766, Note_on_c, 0, 66, 0
2, 52843, Note_on_c, 0, 63, 0
2, 52860, Note_on_c, 0, 59, 77
2, 52965, Note_on_c, 0, 57, 77
2, 52985, Note_on_c, 0, 59, 0
2, 53068, Note_on_c, 0, 56, 83
2, 53081, Note_on_c, 0, 57, 0
2, 53163, Note_on_c, 0, 54, 83
2, 53186, Note_on_c, 0, 56, 0
2, 53276, Note_on_c, 0, 56, 79
2, 53286, Note_on_c, 0, 53, 69
2, 53307, Note_on_c, 0, 54, 0
2, 53341, Note_on_c, 0, 56, 0
2, 53383, Note_on_c, 0, 59, 74
2, 53461, Note_on_c, 0, 59, 0
2, 53485, Note_on_c, 0, 62, 79
2, 53545, Note_on_c, 0, 53, 0
2, 53577, Note_on_c, 0, 62, 0
2, 53589, Note_on_c, 0, 65, 77
2, 53707, Note_on_c, 0, 68, 79
2, 53754, Note_on_c, 0, 65, 0
2, 53803, Note_on_c, 0, 71, 75
2, 53828, Note_on_c, 0, 68, 0
2, 53905, Note_on_c, 0, 70, 81
2, 53949, Note_on_c, 0, 71, 0
2, 54013, Note_on_c, 0, 68, 79
2, 54035, Note_on_c, 0, 70, 0
2, 54119, Note_on_c, 0, 54, 81
2, 54125, Note_on_c, 0, 70, 79
2, 54136, Note_on_c, 0, 68, 0
2, 54226, Note_on_c, 0, 63, 74
2, 54231, Note_on_c, 0, 70, 0
2, 54338, Note_on_c, 0, 42, 74
2, 54342, Note_on_c, 0, 64, 69
2, 54343, Note_on_c, 0, 54, 0
2, 54345, Note_on_c, 0, 63, 0
2, 54440, Note_on_c, 0, 73, 69
2, 54443, Note_on_c, 0, 42, 0
2, 54445, Note_on_c, 0, 64, 0
2, 54548, Note_on_c, 0, 73, 0
2, 54568, Note_on_c, 0, 46, 68
2, 54568, Note_on_c, 0, 70, 65
2, 54626, Note_on_c, 0, 46, 0
2, 54661, Note_on_c, 0, 70, 0
2, 54665, Note_on_c, 0, 73, 62
2, 54768, Note_on_c, 0, 73, 0
2, 54783, Note_on_c, 0, 49, 64
2, 54790, Note_on_c, 0, 64, 64
2, 54839, Note_on_c, 0, 49, 0
2, 54878, Note_on_c, 0, 64, 0
2, 54888, Note_on_c, 0, 73, 60
2, 54991, Note_on_c, 0, 54, 71
2, 55009, Note_on_c, 0, 70, 64
2, 55024, Note_on_c, 0, 73, 0
2, 55068, Note_on_c, 0, 54, 0
2, 55105, Note_on_c, 0, 63, 68
2, 55120, Note_on_c, 0, 70, 0
2, 55215, Note_on_c, 0, 63, 0
2, 55220, Note_on_c, 0, 58, 72
2, 55220, Note_on_c, 0, 64, 65
2, 55260, Note_on_c, 0, 58, 0
2, 55303, Note_on_c, 0, 73, 70
2, 55322, Note_on_c, 0, 64, 0
2, 55413, Note_on_c, 0, 61, 77
2, 55424, Note_on_c, 0, 73, 0
2, 55426, Note_on_c, 0, 70, 70
2, 55487, Note_on_c, 0, 61, 0
2, 55525, Note_on_c, 0, 73, 78
2, 55562, Note_on_c, 0, 70, 0
2, 55623, Note_on_c, 0, 58, 79
2, 55637, Note_on_c, 0, 73, 0
2, 55638, Note_on_c, 0, 64, 72
2, 55655, Note_on_c, 0, 58, 0
2, 55711, Note_on_c, 0, 73, 64
2, 55762, Note_on_c, 0, 64, 0
2, 55835, Note_on_c, 0, 59, 84
2, 55836, Note_on_c, 0, 73, 0
2, 55844, Note_on_c, 0, 66, 71
2, 55936, Note_on_c, 0, 59, 0
2, 55942, Note_on_c, 0, 66, 0
2, 55948, Note_on_c, 0, 61, 78
2, 56050, Note_on_c, 0, 61, 0
2, 56054, Note_on_c, 0, 62, 73
2, 56060, Note_on_c, 0, 54, 87
2, 56082, Note_on_c, 0, 62, 0
2, 56138, Note_on_c, 0, 54, 0
2, 56170, Note_on_c, 0, 73, 78
2, 56270, Note_on_c, 0, 50, 85
2, 56281, Note_on_c, 0, 66, 73
2, 56289, Note_on_c, 0, 73, 0
2, 56331, Note_on_c, 0, 50, 0
2, 56332, Note_on_c, 0, 65, 55
2, 56373, Note_on_c, 0, 65, 0
2, 56377, Note_on_c, 0, 66, 0
2, 56392, Note_on_c, 0, 73, 80
2, 56488, Note_on_c, 0, 54, 91
2, 56492, Note_on_c, 0, 62, 79
2, 56492, Note_on_c, 0, 73, 0
2, 56542, Note_on_c, 0, 54, 0
2, 56580, Note_on_c, 0, 73, 78
2, 56587, Note_on_c, 0, 62, 0
2, 56691, Note_on_c, 0, 66, 73
2, 56701, Note_on_c, 0, 50, 91
2, 56714, Note_on_c, 0, 73, 0
2, 56810, Note_on_c, 0, 61, 81
2, 56815, Note_on_c, 0, 66, 0
2, 56860, Note_on_c, 0, 50, 0
2, 56872, Note_on_c, 0, 61, 0
2, 56918, Note_on_c, 0, 47, 86
2, 56929, Note_on_c, 0, 62, 81
2, 56989, Note_on_c, 0, 62, 0
2, 57011, Note_on_c, 0, 47, 0
2, 57040, Note_on_c, 0, 71, 74
2, 57136, Note_on_c, 0, 50, 92
2, 57146, Note_on_c, 0, 66, 87
2, 57152, Note_on_c, 0, 71, 0
2, 57164, Note_on_c, 0, 50, 0
2, 57235, Note_on_c, 0, 71, 86
2, 57252, Note_on_c, 0, 66, 0
2, 57340, Note_on_c, 0, 54, 94
2, 57346, Note_on_c, 0, 62, 74
2, 57355, Note_on_c, 0, 71, 0
2, 57365, Note_on_c, 0, 54, 0
2, 57457, Note_on_c, 0, 71, 81
2, 57458, Note_on_c, 0, 62, 0
2, 57492, Note_on_c, 0, 71, 0
2, 57580, Note_on_c, 0, 42, 78
2, 57605, Note_on_c, 0, 62, 67
2, 57625, Note_on_c, 0, 64, 46
2, 57653, Note_on_c, 0, 64, 0
2, 57715, Note_on_c, 0, 62, 0
2, 57729, Note_on_c, 0, 58, 63
2, 57743, Note_on_c, 0, 42, 0
2, 57830, Note_on_c, 0, 58, 0
2, 57833, Note_on_c, 0, 59, 71
2, 57836, Note_on_c, 0, 56, 74
2, 57850, Note_on_c, 0, 42, 68
2, 57866, Note_on_c, 0, 56, 0
2, 57888, Note_on_c, 0, 42, 0
2, 57924, Note_on_c, 0, 59, 0
2, 57939, Note_on_c, 0, 65, 68
2, 58037, Note_on_c, 0, 65, 0
2, 58046, Note_on_c, 0, 62, 71
2, 58050, Note_on_c, 0, 56, 76
2, 58059, Note_on_c, 0, 42, 70
2, 58075, Note_on_c, 0, 56, 0
2, 58093, Note_on_c, 0, 42, 0
2, 58138, Note_on_c, 0, 65, 76
2, 58141, Note_on_c, 0, 62, 0
2, 58249, Note_on_c, 0, 56, 77
2, 58255, Note_on_c, 0, 59, 80
2, 58259, Note_on_c, 0, 42, 74
2, 58276, Note_on_c, 0, 65, 0
2, 58282, Note_on_c, 0, 56, 0
2, 58300, Note_on_c, 0, 42, 0
2, 58352, Note_on_c, 0, 59, 0
2, 58355, Note_on_c, 0, 65, 73
2, 58469, Note_on_c, 0, 56, 89
2, 58475, Note_on_c, 0, 62, 78
2, 58477, Note_on_c, 0, 42, 88
2, 58490, Note_on_c, 0, 65, 0
2, 58578, Note_on_c, 0, 56, 0
2, 58589, Note_on_c, 0, 42, 0
2, 58597, Note_on_c, 0, 58, 77
2, 58631, Note_on_c, 0, 62, 0
2, 58696, Note_on_c, 0, 56, 83
2, 58703, Note_on_c, 0, 59, 78
2, 58705, Note_on_c, 0, 42, 78
2, 58720, Note_on_c, 0, 58, 0
2, 58726, Note_on_c, 0, 56, 0
2, 58741, Note_on_c, 0, 42, 0
2, 58795, Note_on_c, 0, 65, 78
2, 58798, Note_on_c, 0, 59, 0
2, 58915, Note_on_c, 0, 62, 81
2, 58916, Note_on_c, 0, 65, 0
2, 58919, Note_on_c, 0, 56, 87
2, 58925, Note_on_c, 0, 42, 83
2, 58944, Note_on_c, 0, 56, 0
2, 58960, Note_on_c, 0, 42, 0
2, 59014, Note_on_c, 0, 65, 80
2, 59017, Note_on_c, 0, 62, 0
2, 59138, Note_on_c, 0, 56, 85
2, 59144, Note_on_c, 0, 59, 86
2, 59153, Note_on_c, 0, 42, 69
2, 59156, Note_on_c, 0, 65, 0
2, 59197, Note_on_c, 0, 56, 0
2, 59229, Note_on_c, 0, 42, 0
2, 59254, Note_on_c, 0, 65, 78
2, 59261, Note_on_c, 0, 59, 0
2, 59373, Note_on_c, 0, 42, 76
2, 59373, Note_on_c, 0, 54, 83
2, 59386, Note_on_c, 0, 62, 74
2, 59406, Note_on_c, 0, 65, 0
2, 59504, Note_on_c, 0, 58, 79
2, 59586, Note_on_c, 0, 62, 0
2, 59608, Note_on_c, 0, 59, 84
2, 59628, Note_on_c, 0, 58, 0
2, 59698, Note_on_c, 0, 59, 0
2, 59713, Note_on_c, 0, 66, 78
2, 59826, Note_on_c, 0, 61, 74
2, 59827, Note_on_c, 0, 58, 63
2, 59850, Note_on_c, 0, 66, 0
2, 59921, Note_on_c, 0, 66, 69
2, 59927, Note_on_c, 0, 58, 0
2, 59939, Note_on_c, 0, 54, 0
2, 59944, Note_on_c, 0, 61, 0
2, 60041, Note_on_c, 0, 59, 67
2, 60049, Note_on_c, 0, 56, 58
2, 60056, Note_on_c, 0, 66, 0
2, 60150, Note_on_c, 0, 59, 0
2, 60151, Note_on_c, 0, 65, 68
2, 60166, Note_on_c, 0, 56, 0
2, 60263, Note_on_c, 0, 61, 56
2, 60272, Note_on_c, 0, 58, 54
2, 60277, Note_on_c, 0, 66, 61
2, 60291, Note_on_c, 0, 65, 0
2, 60344, Note_on_c, 0, 44, 55
2, 60443, Note_on_c, 0, 42, 0
2, 60459, Note_on_c, 0, 46, 63
2, 60465, Note_on_c, 0, 44, 0
2, 60486, Note_on_c, 0, 58, 0
2, 60544, Note_on_c, 0, 66, 0
2, 60546, Note_on_c, 0, 46, 0
2, 60577, Note_on_c, 0, 61, 0
2, 60578, Note_on_c, 0, 47, 61
2, 60668, Note_on_c, 0, 47, 0
2, 60672, Note_on_c, 0, 49, 67
2, 60787, Note_on_c, 0, 51, 69
2, 60789, Note_on_c, 0, 49, 0
2, 60874, Note_on_c, 0, 51, 0
2, 60890, Note_on_c, 0, 52, 64
2, 60980, Note_on_c, 0, 52, 0
2, 60985, Note_on_c, 0, 49, 62
2, 61088, Note_on_c, 0, 51, 69
2, 61092, Note_on_c, 0, 49, 0
2, 61173, Note_on_c, 0, 51, 0
2, 61178, Note_on_c, 0, 71, 66
2, 61191, Note_on_c, 0, 47, 59
2, 61281, Note_on_c, 0, 47, 0
2, 61294, Note_on_c, 0, 49, 62
2, 61294, Note_on_c, 0, 70, 71
2, 61295, Note_on_c, 0, 71, 0
2, 61387, Note_on_c, 0, 49, 0
2, 61404, Note_on_c, 0, 51, 68
2, 61407, Note_on_c, 0, 68, 77
2, 61444, Note_on_c, 0, 70, 0
2, 61471, Note_on_c, 0, 51, 0
2, 61513, Note_on_c, 0, 66, 79
2, 61518, Note_on_c, 0, 52, 65
2, 61547, Note_on_c, 0, 68, 0
2, 61606, Note_on_c, 0, 64, 76
2, 61609, Note_on_c, 0, 66, 0
2, 61613, Note_on_c, 0, 52, 0
2, 61620, Note_on_c, 0, 54, 74
2, 61706, Note_on_c, 0, 63, 84
2, 61711, Note_on_c, 0, 64, 0
2, 61716, Note_on_c, 0, 56, 72
2, 61719, Note_on_c, 0, 54, 0
2, 61811, Note_on_c, 0, 56, 0
2, 61811, Note_on_c, 0, 61, 82
2, 61818, Note_on_c, 0, 58, 71
2, 61822, Note_on_c, 0, 63, 0
2, 61911, Note_on_c, 0, 63, 83
2, 61914, Note_on_c, 0, 58, 0
2, 61917, Note_on_c, 0, 61, 0
2, 61925, Note_on_c, 0, 59, 83
2, 61933, Note_on_c, 0, 63, 0
2, 62015, Note_on_c, 0, 71, 86
2, 62055, Note_on_c, 0, 59, 0
2, 62125, Note_on_c, 0, 71, 0
2, 62126, Note_on_c, 0, 73, 85
2, 62215, Note_on_c, 0, 75, 83
2, 62225, Note_on_c, 0, 73, 0
2, 62290, Note_on_c, 0, 75, 0
2, 62326, Note_on_c, 0, 76, 79
2, 62339, Note_on_c, 0, 63, 56
2, 62370, Note_on_c, 0, 63, 0
2, 62397, Note_on_c, 0, 61, 57
2, 62419, Note_on_c, 0, 76, 0
2, 62427, Note_on_c, 0, 78, 74
2, 62433, Note_on_c, 0, 61, 0
2, 62441, Note_on_c, 0, 63, 63
2, 62504, Note_on_c, 0, 61, 73
2, 62523, Note_on_c, 0, 78, 0
2, 62523, Note_on_c, 0, 80, 83
2, 62530, Note_on_c, 0, 63, 0
2, 62599, Note_on_c, 0, 61, 0
2, 62602, Note_on_c, 0, 59, 69
2, 62615, Note_on_c, 0, 82, 79
2, 62652, Note_on_c, 0, 61, 67
2, 62665, Note_on_c, 0, 59, 0
2, 62693, Note_on_c, 0, 80, 0
2, 62729, Note_on_c, 0, 83, 85
2, 62740, Note_on_c, 0, 63, 83
2, 62743, Note_on_c, 0, 61, 0
2, 62767, Note_on_c, 0, 82, 0
2, 62844, Note_on_c, 0, 78, 84
2, 62884, Note_on_c, 0, 83, 0
2, 62927, Note_on_c, 0, 63, 0
2, 62963, Note_on_c, 0, 75, 88
2, 63018, Note_on_c, 0, 78, 0
2, 63050, Note_on_c, 0, 71, 82
2, 63068, Note_on_c, 0, 75, 0
2, 63137, Note_on_c, 0, 66, 72
2, 63178, Note_on_c, 0, 73, 80
2, 63187, Note_on_c, 0, 71, 0
2, 63207, Note_on_c, 0, 65, 71
2, 63225, Note_on_c, 0, 66, 0
2, 63236, Note_on_c, 0, 73, 0
2, 63267, Note_on_c, 0, 65, 0
2, 63267, Note_on_c, 0, 66, 54
2, 63270, Note_on_c, 0, 83, 76
2, 63271, Note_on_c, 0, 63, 75
2, 63361, Note_on_c, 0, 81, 76
2, 63367, Note_on_c, 0, 63, 0
2, 63388, Note_on_c, 0, 83, 0
2, 63389, Note_on_c, 0, 66, 0
2, 63390, Note_on_c, 0, 65, 75
2, 63449, Note_on_c, 0, 80, 84
2, 63481, Note_on_c, 0, 81, 0
2, 63558, Note_on_c, 0, 65, 0
2, 63571, Note_on_c, 0, 66, 68
2, 63575, Note_on_c, 0, 81, 83
2, 63604, Note_on_c, 0, 80, 0
2, 63638, Note_on_c, 0, 66, 0
2, 63663, Note_on_c, 0, 81, 0
2, 63689, Note_on_c, 0, 64, 69
2, 63785, Note_on_c, 0, 64, 0
2, 63798, Note_on_c, 0, 63, 73
2, 63801, Note_on_c, 0, 78, 89
2, 63858, Note_on_c, 0, 78, 0
2, 63907, Note_on_c, 0, 61, 77
2, 63916, Note_on_c, 0, 63, 0
2, 63992, Note_on_c, 0, 61, 0
2, 64012, Note_on_c, 0, 75, 91
2, 64015, Note_on_c, 0, 59, 81
2, 64070, Note_on_c, 0, 75, 0
2, 64103, Note_on_c, 0, 57, 83
2, 64105, Note_on_c, 0, 59, 0
2, 64208, Note_on_c, 0, 57, 0
2, 64212, Note_on_c, 0, 56, 78
2, 64219, Note_on_c, 0, 81, 80
2, 64289, Note_on_c, 0, 81, 0
2, 64301, Note_on_c, 0, 56, 0
2, 64314, Note_on_c, 0, 54, 75
2, 64446, Note_on_c, 0, 52, 70
2, 64446, Note_on_c, 0, 54, 0
2, 64450, Note_on_c, 0, 80, 78
2, 64519, Note_on_c, 0, 52, 0
2, 64549, Note_on_c, 0, 76, 79
2, 64586, Note_on_c, 0, 80, 0
2, 64637, Note_on_c, 0, 76, 0
2, 64653, Note_on_c, 0, 63, 74
2, 64660, Note_on_c, 0, 71, 76
2, 64711, Note_on_c, 0, 63, 0
2, 64748, Note_on_c, 0, 68, 85
2, 64751, Note_on_c, 0, 71, 0
2, 64813, Note_on_c, 0, 68, 0
2, 64862, Note_on_c, 0, 70, 78
2, 64867, Note_on_c, 0, 61, 82
2, 64940, Note_on_c, 0, 61, 0
2, 64959, Note_on_c, 0, 80, 80
2, 64974, Note_on_c, 0, 70, 0
2, 65065, Note_on_c, 0, 58, 82
2, 65068, Note_on_c, 0, 78, 87
2, 65087, Note_on_c, 0, 58, 0
2, 65125, Note_on_c, 0, 80, 0
2, 65166, Note_on_c, 0, 76, 79
2, 65207, Note_on_c, 0, 78, 0
2, 65288, Note_on_c, 0, 78, 87
2, 65304, Note_on_c, 0, 63, 74
2, 65315, Note_on_c, 0, 76, 0
2, 65365, Note_on_c, 0, 78, 0
2, 65402, Note_on_c, 0, 61, 80
2, 65413, Note_on_c, 0, 63, 0
2, 65463, Note_on_c, 0, 61, 0
2, 65507, Note_on_c, 0, 60, 79
2, 65511, Note_on_c, 0, 75, 88
2, 65595, Note_on_c, 0, 75, 0
2, 65604, Note_on_c, 0, 58, 83
2, 65614, Note_on_c, 0, 60, 0
2, 65714, Note_on_c, 0, 56, 83
2, 65724, Note_on_c, 0, 72, 84
2, 65730, Note_on_c, 0, 58, 0
2, 65817, Note_on_c, 0, 54, 75
2, 65822, Note_on_c, 0, 72, 0
2, 65831, Note_on_c, 0, 56, 0
2, 65892, Note_on_c, 0, 54, 0
2, 65905, Note_on_c, 0, 78, 86
2, 65916, Note_on_c, 0, 52, 77
2, 65970, Note_on_c, 0, 78, 0
2, 66020, Note_on_c, 0, 51, 80
2, 66028, Note_on_c, 0, 52, 0
2, 66125, Note_on_c, 0, 49, 75
2, 66137, Note_on_c, 0, 76, 83
2, 66139, Note_on_c, 0, 51, 0
2, 66178, Note_on_c, 0, 49, 0
2, 66243, Note_on_c, 0, 73, 84
2, 66288, Note_on_c, 0, 76, 0
2, 66340, Note_on_c, 0, 59, 79
2, 66350, Note_on_c, 0, 68, 83
2, 66385, Note_on_c, 0, 73, 0
2, 66388, Note_on_c, 0, 59, 0
2, 66456, Note_on_c, 0, 64, 78
2, 66458, Note_on_c, 0, 68, 0
2, 66552, Note_on_c, 0, 58, 81
2, 66565, Note_on_c, 0, 66, 80
2, 66571, Note_on_c, 0, 64, 0
2, 66595, Note_on_c, 0, 58, 0
2, 66624, Note_on_c, 0, 66, 0
2, 66664, Note_on_c, 0, 76, 83
2, 66770, Note_on_c, 0, 54, 76
2, 66779, Note_on_c, 0, 75, 82
2, 66799, Note_on_c, 0, 54, 0
2, 66811, Note_on_c, 0, 76, 0
2, 66879, Note_on_c, 0, 73, 79
2, 66906, Note_on_c, 0, 75, 0
2, 66985, Note_on_c, 0, 47, 67
2, 66985, Note_on_c, 0, 75, 79
2, 67007, Note_on_c, 0, 73, 0
2, 67023, Note_on_c, 0, 47, 0
2, 67058, Note_on_c, 0, 75, 0
2, 67072, Note_on_c, 0, 71, 76
2, 67185, Note_on_c, 0, 70, 77
2, 67188, Note_on_c, 0, 51, 81
2, 67205, Note_on_c, 0, 71, 0
2, 67264, Note_on_c, 0, 51, 0
2, 67286, Note_on_c, 0, 68, 77
2, 67303, Note_on_c, 0, 70, 0
2, 67399, Note_on_c, 0, 53, 79
2, 67404, Note_on_c, 0, 70, 80
2, 67408, Note_on_c, 0, 68, 0
2, 67454, Note_on_c, 0, 53, 0
2, 67512, Note_on_c, 0, 68, 82
2, 67537, Note_on_c, 0, 70, 0
2, 67619, Note_on_c, 0, 56, 81
2, 67628, Note_on_c, 0, 66, 82
2, 67670, Note_on_c, 0, 56, 0
2, 67679, Note_on_c, 0, 68, 0
2, 67723, Note_on_c, 0, 65, 81
2, 67748, Note_on_c, 0, 66, 0
2, 67835, Note_on_c, 0, 73, 85
2, 67837, Note_on_c, 0, 46, 71
2, 67863, Note_on_c, 0, 65, 0
2, 67921, Note_on_c, 0, 46, 0
2, 67939, Note_on_c, 0, 70, 79
2, 67983, Note_on_c, 0, 73, 0
2, 68037, Note_on_c, 0, 68, 80
2, 68042, Note_on_c, 0, 49, 71
2, 68066, Note_on_c, 0, 70, 0
2, 68087, Note_on_c, 0, 49, 0
2, 68130, Note_on_c, 0, 66, 73
2, 68156, Note_on_c, 0, 68, 0
2, 68242, Note_on_c, 0, 66, 0
2, 68261, Note_on_c, 0, 68, 78
2, 68267, Note_on_c, 0, 51, 74
2, 68308, Note_on_c, 0, 51, 0
2, 68359, Note_on_c, 0, 66, 71
2, 68363, Note_on_c, 0, 68, 0
2, 68461, Note_on_c, 0, 66, 0
2, 68482, Note_on_c, 0, 65, 70
2, 68485, Note_on_c, 0, 54, 62
2, 68518, Note_on_c, 0, 54, 0
2, 68564, Note_on_c, 0, 65, 0
2, 68581, Note_on_c, 0, 63, 61
2, 68681, Note_on_c, 0, 63, 0
2, 68685, Note_on_c, 0, 44, 54
2, 68692, Note_on_c, 0, 71, 62
2, 68742, Note_on_c, 0, 44, 0
2, 68798, Note_on_c, 0, 71, 0
2, 68802, Note_on_c, 0, 68, 66
2, 68891, Note_on_c, 0, 47, 44
2, 68900, Note_on_c, 0, 66, 61
2, 68923, Note_on_c, 0, 68, 0
2, 68940, Note_on_c, 0, 47, 0
2, 69001, Note_on_c, 0, 66, 0
2, 69010, Note_on_c, 0, 65, 57
2, 69108, Note_on_c, 0, 49, 54
2, 69114, Note_on_c, 0, 65, 0
2, 69139, Note_on_c, 0, 66, 59
2, 69164, Note_on_c, 0, 49, 0
2, 69222, Note_on_c, 0, 66, 0
2, 69237, Note_on_c, 0, 65, 60
2, 69330, Note_on_c, 0, 53, 60
2, 69338, Note_on_c, 0, 65, 0
2, 69345, Note_on_c, 0, 63, 64
2, 69381, Note_on_c, 0, 53, 0
2, 69442, Note_on_c, 0, 61, 62
2, 69448, Note_on_c, 0, 63, 0
2, 69530, Note_on_c, 0, 61, 0
2, 69551, Note_on_c, 0, 42, 57
2, 69561, Note_on_c, 0, 70, 66
2, 69653, Note_on_c, 0, 42, 0
2, 69660, Note_on_c, 0, 44, 65
2, 69667, Note_on_c, 0, 68, 69
2, 69723, Note_on_c, 0, 70, 0
2, 69741, Note_on_c, 0, 44, 0
2, 69766, Note_on_c, 0, 46, 68
2, 69771, Note_on_c, 0, 68, 0
2, 69772, Note_on_c, 0, 66, 71
2, 69848, Note_on_c, 0, 46, 0
2, 69875, Note_on_c, 0, 47, 69
2, 69875, Note_on_c, 0, 68, 74
2, 69883, Note_on_c, 0, 66, 0
2, 69984, Note_on_c, 0, 49, 74
2, 69984, Note_on_c, 0, 70, 79
2, 69987, Note_on_c, 0, 47, 0
2, 69999, Note_on_c, 0, 68, 0
2, 70056, Note_on_c, 0, 70, 0
2, 70079, Note_on_c, 0, 51, 82
2, 70104, Note_on_c, 0, 49, 0
2, 70191, Note_on_c, 0, 52, 80
2, 70193, Note_on_c, 0, 61, 79
2, 70195, Note_on_c, 0, 51, 0
2, 70264, Note_on_c, 0, 61, 0
2, 70288, Note_on_c, 0, 52, 0
2, 70291, Note_on_c, 0, 49, 79
2, 70401, Note_on_c, 0, 51, 91
2, 70405, Note_on_c, 0, 59, 76
2, 70425, Note_on_c, 0, 49, 0
2, 70459, Note_on_c, 0, 51, 0
2, 70502, Note_on_c, 0, 61, 76
2, 70518, Note_on_c, 0, 59, 0
2, 70622, Note_on_c, 0, 63, 69
2, 70623, Note_on_c, 0, 61, 0
2, 70625, Note_on_c, 0, 54, 83
2, 70690, Note_on_c, 0, 54, 0
2, 70692, Note_on_c, 0, 63, 0
2, 70722, Note_on_c, 0, 64, 78
2, 70843, Note_on_c, 0, 51, 90
2, 70845, Note_on_c, 0, 66, 79
2, 70878, Note_on_c, 0, 64, 0
2, 70893, Note_on_c, 0, 51, 0
2, 70934, Note_on_c, 0, 68, 85
2, 70967, Note_on_c, 0, 66, 0
2, 71037, Note_on_c, 0, 69, 86
2, 71041, Note_on_c, 0, 47, 97
2, 71050, Note_on_c, 0, 68, 0
2, 71065, Note_on_c, 0, 47, 0
2, 71138, Note_on_c, 0, 66, 85
2, 71164, Note_on_c, 0, 69, 0
2, 71246, Note_on_c, 0, 52, 103
2, 71247, Note_on_c, 0, 68, 88
2, 71270, Note_on_c, 0, 66, 0
2, 71286, Note_on_c, 0, 52, 0
2, 71352, Note_on_c, 0, 69, 83
2, 71372, Note_on_c, 0, 68, 0
2, 71449, Note_on_c, 0, 40, 90
2, 71460, Note_on_c, 0, 68, 88
2, 71476, Note_on_c, 0, 40, 0
2, 71494, Note_on_c, 0, 69, 0
2, 71559, Note_on_c, 0, 66, 79
2, 71602, Note_on_c, 0, 68, 0
2, 71657, Note_on_c, 0, 52, 74
2, 71660, Note_on_c, 0, 66, 0
2, 71661, Note_on_c, 0, 64, 81
2, 71685, Note_on_c, 0, 51, 80
2, 71686, Note_on_c, 0, 52, 0
2, 71752, Note_on_c, 0, 51, 0
2, 71754, Note_on_c, 0, 64, 0
2, 71762, Note_on_c, 0, 63, 73
2, 71863, Note_on_c, 0, 61, 70
2, 71885, Note_on_c, 0, 63, 0
2, 71964, Note_on_c, 0, 61, 0
2, 71975, Note_on_c, 0, 59, 70
2, 72081, Note_on_c, 0, 58, 73
2, 72096, Note_on_c, 0, 59, 0
2, 72182, Note_on_c, 0, 66, 68
2, 72229, Note_on_c, 0, 58, 0
2, 72294, Note_on_c, 0, 59, 72
2, 72295, Note_on_c, 0, 51, 83
2, 72313, Note_on_c, 0, 66, 0
2, 72384, Note_on_c, 0, 51, 0
2, 72384, Note_on_c, 0, 66, 58
2, 72398, Note_on_c, 0, 59, 0
2, 72500, Note_on_c, 0, 64, 69
2, 72512, Note_on_c, 0, 49, 74
2, 72546, Note_on_c, 0, 66, 0
2, 72581, Note_on_c, 0, 49, 0
2, 72612, Note_on_c, 0, 59, 67
2, 72612, Note_on_c, 0, 64, 0
2, 72714, Note_on_c, 0, 58, 65
2, 72722, Note_on_c, 0, 54, 80
2, 72768, Note_on_c, 0, 59, 0
2, 72793, Note_on_c, 0, 54, 0
2, 72812, Note_on_c, 0, 58, 0
2, 72817, Note_on_c, 0, 64, 64
2, 72946, Note_on_c, 0, 47, 77
2, 72949, Note_on_c, 0, 63, 73
2, 72998, Note_on_c, 0, 64, 0
2, 73025, Note_on_c, 0, 47, 0
2, 73050, Note_on_c, 0, 61, 73
2, 73089, Note_on_c, 0, 63, 0
2, 73153, Note_on_c, 0, 61, 0
2, 73171, Note_on_c, 0, 59, 75
2, 73176, Note_on_c, 0, 49, 75
2, 73237, Note_on_c, 0, 49, 0
2, 73272, Note_on_c, 0, 59, 0
2, 73273, Note_on_c, 0, 58, 71
2, 73339, Note_on_c, 0, 58, 0
2, 73377, Note_on_c, 0, 51, 85
2, 73379, Note_on_c, 0, 59, 72
2, 73408, Note_on_c, 0, 51, 0
2, 73497, Note_on_c, 0, 59, 0
2, 73498, Note_on_c, 0, 63, 64
2, 73595, Note_on_c, 0, 47, 71
2, 73603, Note_on_c, 0, 66, 70
2, 73625, Note_on_c, 0, 63, 0
2, 73672, Note_on_c, 0, 47, 0
2, 73706, Note_on_c, 0, 66, 0
2, 73713, Note_on_c, 0, 57, 61
2, 73826, Note_on_c, 0, 56, 65
2, 73834, Note_on_c, 0, 40, 69
2, 73835, Note_on_c, 0, 57, 0
2, 73934, Note_on_c, 0, 56, 0
2, 73941, Note_on_c, 0, 66, 67
2, 73946, Note_on_c, 0, 40, 0
2, 74051, Note_on_c, 0, 44, 81
2, 74064, Note_on_c, 0, 64, 69
2, 74112, Note_on_c, 0, 66, 0
2, 74123, Note_on_c, 0, 44, 0
2, 74160, Note_on_c, 0, 63, 78
2, 74203, Note_on_c, 0, 64, 0
2, 74261, Note_on_c, 0, 40, 83
2, 74267, Note_on_c, 0, 61, 86
2, 74295, Note_on_c, 0, 63, 0
2, 74313, Note_on_c, 0, 40, 0
2, 74374, Note_on_c, 0, 63, 87
2, 74408, Note_on_c, 0, 61, 0
2, 74469, Note_on_c, 0, 37, 86
2, 74480, Note_on_c, 0, 64, 84
2, 74498, Note_on_c, 0, 63, 0
2, 74520, Note_on_c, 0, 37, 0
2, 74580, Note_on_c, 0, 59, 82
2, 74592, Note_on_c, 0, 64, 0
2, 74698, Note_on_c, 0, 58, 76
2, 74698, Note_on_c, 0, 59, 0
2, 74699, Note_on_c, 0, 42, 89
2, 74761, Note_on_c, 0, 42, 0
2, 74785, Note_on_c, 0, 58, 0
2, 74792, Note_on_c, 0, 59, 79
2, 74907, Note_on_c, 0, 61, 82
2, 74916, Note_on_c, 0, 44, 88
2, 74916, Note_on_c, 0, 59, 0
2, 75001, Note_on_c, 0, 44, 0
2, 75014, Note_on_c, 0, 56, 83
2, 75032, Note_on_c, 0, 61, 0
2, 75125, Note_on_c, 0, 46, 87
2, 75133, Note_on_c, 0, 54, 85
2, 75184, Note_on_c, 0, 56, 0
2, 75204, Note_on_c, 0, 46, 0
2, 75239, Note_on_c, 0, 52, 82
2, 75251, Note_on_c, 0, 54, 0
2, 75339, Note_on_c, 0, 42, 91
2, 75346, Note_on_c, 0, 51, 87
2, 75371, Note_on_c, 0, 52, 0
2, 75372, Note_on_c, 0, 42, 0
2, 75442, Note_on_c, 0, 51, 0
2, 75448, Note_on_c, 0, 49, 82
2, 75512, Note_on_c, 0, 49, 0
2, 75551, Note_on_c, 0, 47, 86
2, 75562, Note_on_c, 0, 51, 88
2, 75638, Note_on_c, 0, 47, 0
2, 75668, Note_on_c, 0, 54, 80
2, 75675, Note_on_c, 0, 51, 0
2, 75778, Note_on_c, 0, 59, 93
2, 75781, Note_on_c, 0, 44, 88
2, 75783, Note_on_c, 0, 54, 0
2, 75836, Note_on_c, 0, 44, 0
2, 75867, Note_on_c, 0, 59, 0
2, 75887, Note_on_c, 0, 51, 75
2, 75992, Note_on_c, 0, 40, 85
2, 76010, Note_on_c, 0, 49, 72
2, 76014, Note_on_c, 0, 51, 0
2, 76062, Note_on_c, 0, 40, 0
2, 76076, Note_on_c, 0, 49, 0
2, 76118, Note_on_c, 0, 59, 91
2, 76247, Note_on_c, 0, 42, 86
2, 76266, Note_on_c, 0, 52, 58
2, 76267, Note_on_c, 0, 42, 0
2, 76379, Note_on_c, 0, 58, 85
2, 76387, Note_on_c, 0, 59, 0
2, 76399, Note_on_c, 0, 52, 0
2, 76625, Note_on_c, 0, 35, 54
2, 76625, Note_on_c, 0, 47, 57
2, 76625, Note_on_c, 0, 51, 63
2, 76627, Note_on_c, 0, 54, 58
2, 76627, Note_on_c, 0, 59, 76
2, 76644, Note_on_c, 0, 58, 0
2, 77131, Note_on_c, 0, 59, 0
2, 77139, Note_on_c, 0, 35, 0
2, 77145, Note_on_c, 0, 47, 0
2, 77150, Note_on_c, 0, 54, 0
2, 77168, Note_on_c, 0, 51, 0
2, 78289,End_track
0, 0, End_of_file
