0, 0, Header, 1, 2, 384
1, 0, Start_track
1, 0, Tempo, 500000
1, 0, Time_signature, 4, 2, 24, 8
1, 1, End_track
2, 0, Start_track
2, 0, Program_c, 0, 0
2, 0, Control_c, 0, 64, 44
2, 0, Control_c, 0, 67, 0
2, 300, Control_c, 0, 64, 44
2, 316, Control_c, 0, 64, 42
2, 332, Control_c, 0, 64, 40
2, 347, Control_c, 0, 64, 39
2, 362, Control_c, 0, 64, 38
2, 377, Control_c, 0, 64, 36
2, 408, Control_c, 0, 64, 36
2, 453, Control_c, 0, 64, 35
2, 468, Control_c, 0, 64, 35
2, 484, Control_c, 0, 64, 34
2, 499, Control_c, 0, 64, 31
2, 514, Control_c, 0, 64, 27
2, 529, Control_c, 0, 64, 20
2, 544, Control_c, 0, 64, 8
2, 560, Control_c, 0, 64, 0
2, 739, Note_on_c, 0, 47, 60
2, 855, Note_on_c, 0, 59, 68
2, 963, Note_on_c, 0, 59, 0
2, 970, Note_on_c, 0, 61, 72
2, 1069, Note_on_c, 0, 63, 70
2, 1075, Note_on_c, 0, 61, 0
2, 1129, Note_on_c, 0, 63, 0
2, 1132, Note_on_c, 0, 47, 0
2, 1167, Note_on_c, 0, 64, 78
2, 1272, Note_on_c, 0, 64, 0
2, 1272, Note_on_c, 0, 66, 70
2, 1369, Note_on_c, 0, 66, 0
2, 1370, Note_on_c, 0, 68, 71
2, 1469, Note_on_c, 0, 70, 67
2, 1481, Note_on_c, 0, 68, 0
2, 1508, Note_on_c, 0, 70, 0
2, 1552, Note_on_c, 0, 71, 75
2, 1598, Note_on_c, 0, 71, 0
2, 1602, Note_on_c, 0, 70, 80
2, 1627, Note_on_c, 0, 70, 0
2, 1659, Note_on_c, 0, 71, 73
2, 1693, Note_on_c, 0, 59, 50
2, 1753, Note_on_c, 0, 59, 0
2, 1778, Note_on_c, 0, 58, 60
2, 1832, Note_on_c, 0, 71, 0
2, 1877, Note_on_c, 0, 73, 74
2, 1883, Note_on_c, 0, 56, 59
2, 1887, Note_on_c, 0, 58, 0
2, 1934, Note_on_c, 0, 73, 0
2, 1974, Note_on_c, 0, 54, 70
2, 1977, Note_on_c, 0, 75, 75
2, 1989, Note_on_c, 0, 56, 0
2, 2001, Note_on_c, 0, 54, 0
2, 2007, Note_on_c, 0, 75, 0
2, 2062, Note_on_c, 0, 75, 59
2, 2073, Note_on_c, 0, 73, 54
2, 2083, Note_on_c, 0, 75, 0
2, 2094, Note_on_c, 0, 52, 51
2, 2130, Note_on_c, 0, 73, 0
2, 2139, Note_on_c, 0, 52, 0
2, 2148, Note_on_c, 0, 75, 78
2, 2162, Note_on_c, 0, 51, 59
2, 2182, Note_on_c, 0, 73, 67
2, 2192, Note_on_c, 0, 75, 0
2, 2235, Note_on_c, 0, 51, 0
2, 2246, Note_on_c, 0, 49, 60
2, 2249, Note_on_c, 0, 73, 0
2, 2258, Note_on_c, 0, 71, 69
2, 2295, Note_on_c, 0, 73, 54
2, 2307, Note_on_c, 0, 71, 0
2, 2347, Note_on_c, 0, 49, 0
2, 2368, Note_on_c, 0, 47, 51
2, 2369, Note_on_c, 0, 75, 78
2, 2372, Note_on_c, 0, 73, 0
2, 2457, Note_on_c, 0, 47, 0
2, 2479, Note_on_c, 0, 70, 75
2, 2519, Note_on_c, 0, 75, 0
2, 2577, Note_on_c, 0, 70, 0
2, 2582, Note_on_c, 0, 71, 80
2, 2684, Note_on_c, 0, 75, 79
2, 2687, Note_on_c, 0, 71, 0
2, 2756, Note_on_c, 0, 51, 70
2, 2778, Note_on_c, 0, 75, 0
2, 2778, Note_on_c, 0, 76, 73
2, 2799, Note_on_c, 0, 51, 0
2, 2818, Note_on_c, 0, 49, 59
2, 2855, Note_on_c, 0, 49, 0
2, 2861, Note_on_c, 0, 51, 59
2, 2866, Note_on_c, 0, 70, 74
2, 2867, Note_on_c, 0, 76, 0
2, 2916, Note_on_c, 0, 70, 0
2, 2919, Note_on_c, 0, 51, 0
2, 2920, Note_on_c, 0, 49, 60
2, 2958, Note_on_c, 0, 71, 70
2, 3028, Note_on_c, 0, 49, 0
2, 3039, Note_on_c, 0, 71, 0
2, 3053, Note_on_c, 0, 47, 49
2, 3057, Note_on_c, 0, 76, 71
2, 3084, Note_on_c, 0, 47, 0
2, 3084, Note_on_c, 0, 49, 53
2, 3166, Note_on_c, 0, 49, 0
2, 3171, Note_on_c, 0, 78, 81
2, 3176, Note_on_c, 0, 51, 77
2, 3176, Note_on_c, 0, 76, 0
2, 3258, Note_on_c, 0, 78, 0
2, 3267, Note_on_c, 0, 51, 0
2, 3269, Note_on_c, 0, 71, 79
2, 3366, Note_on_c, 0, 71, 0
2, 3378, Note_on_c, 0, 80, 84
2, 3479, Note_on_c, 0, 78, 79
2, 3490, Note_on_c, 0, 52, 65
2, 3526, Note_on_c, 0, 52, 0
2, 3527, Note_on_c, 0, 80, 0
2, 3571, Note_on_c, 0, 78, 0
2, 3588, Note_on_c, 0, 54, 62
2, 3591, Note_on_c, 0, 76, 77
2, 3627, Note_on_c, 0, 54, 0
2, 3631, Note_on_c, 0, 52, 67
2, 3633, Note_on_c, 0, 76, 0
2, 3662, Note_on_c, 0, 52, 0
2, 3681, Note_on_c, 0, 75, 76
2, 3685, Note_on_c, 0, 54, 55
2, 3719, Note_on_c, 0, 54, 0
2, 3729, Note_on_c, 0, 52, 60
2, 3772, Note_on_c, 0, 73, 71
2, 3774, Note_on_c, 0, 52, 0
2, 3779, Note_on_c, 0, 75, 0
2, 3784, Note_on_c, 0, 51, 70
2, 3824, Note_on_c, 0, 51, 0
2, 3843, Note_on_c, 0, 73, 0
2, 3851, Note_on_c, 0, 52, 64
2, 3861, Note_on_c, 0, 71, 70
2, 3933, Note_on_c, 0, 52, 0
2, 3933, Note_on_c, 0, 71, 0
2, 3976, Note_on_c, 0, 70, 59
2, 3979, Note_on_c, 0, 54, 65
2, 4009, Note_on_c, 0, 54, 0
2, 4051, Note_on_c, 0, 70, 0
2, 4075, Note_on_c, 0, 65, 58
2, 4155, Note_on_c, 0, 65, 0
2, 4185, Note_on_c, 0, 58, 66
2, 4191, Note_on_c, 0, 66, 56
2, 4216, Note_on_c, 0, 58, 0
2, 4281, Note_on_c, 0, 66, 0
2, 4296, Note_on_c, 0, 73, 60
2, 4403, Note_on_c, 0, 61, 64
2, 4404, Note_on_c, 0, 73, 0
2, 4418, Note_on_c, 0, 70, 60
2, 4434, Note_on_c, 0, 61, 0
2, 4490, Note_on_c, 0, 70, 0
2, 4510, Note_on_c, 0, 73, 58
2, 4618, Note_on_c, 0, 73, 0
2, 4631, Note_on_c, 0, 66, 57
2, 4634, Note_on_c, 0, 58, 53
2, 4665, Note_on_c, 0, 58, 0
2, 4711, Note_on_c, 0, 66, 0
2, 4728, Note_on_c, 0, 73, 64
2, 4827, Note_on_c, 0, 54, 55
2, 4836, Note_on_c, 0, 70, 60
2, 4848, Note_on_c, 0, 73, 0
2, 4880, Note_on_c, 0, 54, 0
2, 4914, Note_on_c, 0, 70, 0
2, 4933, Note_on_c, 0, 65, 56
2, 5039, Note_on_c, 0, 58, 54
2, 5042, Note_on_c, 0, 65, 0
2, 5046, Note_on_c, 0, 66, 60
2, 5088, Note_on_c, 0, 58, 0
2, 5137, Note_on_c, 0, 66, 0
2, 5145, Note_on_c, 0, 73, 61
2, 5248, Note_on_c, 0, 61, 60
2, 5256, Note_on_c, 0, 73, 0
2, 5275, Note_on_c, 0, 70, 59
2, 5299, Note_on_c, 0, 61, 0
2, 5359, Note_on_c, 0, 70, 0
2, 5371, Note_on_c, 0, 73, 59
2, 5458, Note_on_c, 0, 73, 0
2, 5468, Note_on_c, 0, 52, 54
2, 5473, Note_on_c, 0, 66, 56
2, 5515, Note_on_c, 0, 52, 0
2, 5553, Note_on_c, 0, 66, 0
2, 5570, Note_on_c, 0, 73, 62
2, 5673, Note_on_c, 0, 71, 63
2, 5678, Note_on_c, 0, 73, 0
2, 5682, Note_on_c, 0, 51, 60
2, 5733, Note_on_c, 0, 51, 0
2, 5755, Note_on_c, 0, 71, 0
2, 5782, Note_on_c, 0, 65, 57
2, 5873, Note_on_c, 0, 65, 0
2, 5883, Note_on_c, 0, 59, 59
2, 5889, Note_on_c, 0, 66, 63
2, 5940, Note_on_c, 0, 59, 0
2, 5977, Note_on_c, 0, 66, 0
2, 5982, Note_on_c, 0, 75, 60
2, 6092, Note_on_c, 0, 75, 0
2, 6100, Note_on_c, 0, 63, 64
2, 6108, Note_on_c, 0, 71, 62
2, 6132, Note_on_c, 0, 63, 0
2, 6185, Note_on_c, 0, 71, 0
2, 6210, Note_on_c, 0, 75, 60
2, 6292, Note_on_c, 0, 75, 0
2, 6308, Note_on_c, 0, 59, 63
2, 6316, Note_on_c, 0, 66, 58
2, 6338, Note_on_c, 0, 59, 0
2, 6406, Note_on_c, 0, 66, 0
2, 6418, Note_on_c, 0, 75, 64
2, 6512, Note_on_c, 0, 54, 62
2, 6520, Note_on_c, 0, 71, 59
2, 6527, Note_on_c, 0, 75, 0
2, 6549, Note_on_c, 0, 54, 0
2, 6603, Note_on_c, 0, 71, 0
2, 6622, Note_on_c, 0, 65, 55
2, 6721, Note_on_c, 0, 65, 0
2, 6724, Note_on_c, 0, 59, 59
2, 6732, Note_on_c, 0, 66, 62
2, 6766, Note_on_c, 0, 59, 0
2, 6833, Note_on_c, 0, 66, 0
2, 6838, Note_on_c, 0, 75, 64
2, 6940, Note_on_c, 0, 75, 0
2, 6943, Note_on_c, 0, 63, 68
2, 6943, Note_on_c, 0, 71, 70
2, 6975, Note_on_c, 0, 63, 0
2, 7045, Note_on_c, 0, 71, 0
2, 7048, Note_on_c, 0, 75, 75
2, 7144, Note_on_c, 0, 59, 74
2, 7149, Note_on_c, 0, 75, 0
2, 7151, Note_on_c, 0, 66, 74
2, 7169, Note_on_c, 0, 59, 0
2, 7249, Note_on_c, 0, 66, 0
2, 7250, Note_on_c, 0, 75, 80
2, 7349, Note_on_c, 0, 46, 70
2, 7366, Note_on_c, 0, 73, 73
2, 7409, Note_on_c, 0, 75, 0
2, 7446, Note_on_c, 0, 46, 0
2, 7463, Note_on_c, 0, 65, 73
2, 7497, Note_on_c, 0, 73, 0
2, 7579, Note_on_c, 0, 61, 71
2, 7582, Note_on_c, 0, 66, 73
2, 7594, Note_on_c, 0, 65, 0
2, 7610, Note_on_c, 0, 61, 0
2, 7681, Note_on_c, 0, 66, 0
2, 7687, Note_on_c, 0, 76, 66
2, 7779, Note_on_c, 0, 64, 71
2, 7793, Note_on_c, 0, 73, 73
2, 7793, Note_on_c, 0, 76, 0
2, 7809, Note_on_c, 0, 64, 0
2, 7882, Note_on_c, 0, 73, 0
2, 7892, Note_on_c, 0, 76, 57
2, 7988, Note_on_c, 0, 76, 0
2, 7989, Note_on_c, 0, 61, 70
2, 7997, Note_on_c, 0, 70, 60
2, 8037, Note_on_c, 0, 61, 0
2, 8072, Note_on_c, 0, 70, 0
2, 8083, Note_on_c, 0, 76, 59
2, 8198, Note_on_c, 0, 58, 69
2, 8201, Note_on_c, 0, 76, 0
2, 8207, Note_on_c, 0, 73, 65
2, 8236, Note_on_c, 0, 58, 0
2, 8303, Note_on_c, 0, 73, 0
2, 8304, Note_on_c, 0, 65, 62
2, 8412, Note_on_c, 0, 61, 70
2, 8423, Note_on_c, 0, 65, 0
2, 8425, Note_on_c, 0, 66, 67
2, 8447, Note_on_c, 0, 61, 0
2, 8527, Note_on_c, 0, 66, 0
2, 8539, Note_on_c, 0, 76, 61
2, 8620, Note_on_c, 0, 58, 65
2, 8639, Note_on_c, 0, 73, 69
2, 8640, Note_on_c, 0, 76, 0
2, 8655, Note_on_c, 0, 58, 0
2, 8722, Note_on_c, 0, 73, 0
2, 8726, Note_on_c, 0, 76, 64
2, 8832, Note_on_c, 0, 54, 64
2, 8832, Note_on_c, 0, 76, 0
2, 8838, Note_on_c, 0, 70, 66
2, 8881, Note_on_c, 0, 54, 0
2, 8928, Note_on_c, 0, 70, 0
2, 8934, Note_on_c, 0, 76, 69
2, 9040, Note_on_c, 0, 76, 0
2, 9041, Note_on_c, 0, 75, 71
2, 9047, Note_on_c, 0, 47, 66
2, 9112, Note_on_c, 0, 47, 0
2, 9153, Note_on_c, 0, 70, 67
2, 9156, Note_on_c, 0, 75, 0
2, 9229, Note_on_c, 0, 70, 0
2, 9247, Note_on_c, 0, 71, 69
2, 9252, Note_on_c, 0, 63, 67
2, 9287, Note_on_c, 0, 63, 0
2, 9352, Note_on_c, 0, 78, 72
2, 9367, Note_on_c, 0, 71, 0
2, 9455, Note_on_c, 0, 66, 73
2, 9462, Note_on_c, 0, 75, 71
2, 9468, Note_on_c, 0, 78, 0
2, 9501, Note_on_c, 0, 66, 0
2, 9564, Note_on_c, 0, 78, 74
2, 9587, Note_on_c, 0, 75, 0
2, 9654, Note_on_c, 0, 78, 0
2, 9656, Note_on_c, 0, 71, 71
2, 9660, Note_on_c, 0, 63, 74
2, 9717, Note_on_c, 0, 63, 0
2, 9765, Note_on_c, 0, 78, 81
2, 9789, Note_on_c, 0, 71, 0
2, 9873, Note_on_c, 0, 59, 78
2, 9877, Note_on_c, 0, 75, 79
2, 9913, Note_on_c, 0, 78, 0
2, 9935, Note_on_c, 0, 59, 0
2, 9981, Note_on_c, 0, 70, 77
2, 10030, Note_on_c, 0, 75, 0
2, 10074, Note_on_c, 0, 63, 87
2, 10086, Note_on_c, 0, 71, 78
2, 10101, Note_on_c, 0, 70, 0
2, 10118, Note_on_c, 0, 63, 0
2, 10180, Note_on_c, 0, 78, 79
2, 10280, Note_on_c, 0, 75, 84
2, 10284, Note_on_c, 0, 59, 75
2, 10286, Note_on_c, 0, 78, 0
2, 10304, Note_on_c, 0, 71, 0
2, 10323, Note_on_c, 0, 59, 0
2, 10373, Note_on_c, 0, 78, 83
2, 10388, Note_on_c, 0, 75, 0
2, 10483, Note_on_c, 0, 54, 65
2, 10488, Note_on_c, 0, 78, 0
2, 10490, Note_on_c, 0, 71, 83
2, 10532, Note_on_c, 0, 54, 0
2, 10576, Note_on_c, 0, 78, 86
2, 10635, Note_on_c, 0, 71, 0
2, 10696, Note_on_c, 0, 51, 56
2, 10702, Note_on_c, 0, 81, 79
2, 10728, Note_on_c, 0, 78, 0
2, 10745, Note_on_c, 0, 51, 0
2, 10800, Note_on_c, 0, 76, 78
2, 10844, Note_on_c, 0, 81, 0
2, 10908, Note_on_c, 0, 78, 84
2, 10912, Note_on_c, 0, 59, 42
2, 10932, Note_on_c, 0, 76, 0
2, 10944, Note_on_c, 0, 59, 0
2, 10983, Note_on_c, 0, 81, 76
2, 10994, Note_on_c, 0, 78, 0
2, 11100, Note_on_c, 0, 75, 85
2, 11102, Note_on_c, 0, 54, 60
2, 11122, Note_on_c, 0, 81, 0
2, 11141, Note_on_c, 0, 54, 0
2, 11202, Note_on_c, 0, 78, 80
2, 11236, Note_on_c, 0, 75, 0
2, 11291, Note_on_c, 0, 78, 0
2, 11299, Note_on_c, 0, 51, 57
2, 11306, Note_on_c, 0, 71, 77
2, 11345, Note_on_c, 0, 51, 0
2, 11399, Note_on_c, 0, 78, 82
2, 11405, Note_on_c, 0, 71, 0
2, 11516, Note_on_c, 0, 81, 77
2, 11517, Note_on_c, 0, 78, 0
2, 11522, Note_on_c, 0, 47, 51
2, 11562, Note_on_c, 0, 47, 0
2, 11611, Note_on_c, 0, 81, 0
2, 11614, Note_on_c, 0, 78, 82
2, 11696, Note_on_c, 0, 78, 0
2, 11715, Note_on_c, 0, 76, 77
2, 11716, Note_on_c, 0, 54, 53
2, 11745, Note_on_c, 0, 54, 0
2, 11807, Note_on_c, 0, 75, 77
2, 11810, Note_on_c, 0, 76, 0
2, 11904, Note_on_c, 0, 75, 0
2, 11921, Note_on_c, 0, 76, 68
2, 11922, Note_on_c, 0, 59, 47
2, 11952, Note_on_c, 0, 59, 0
2, 12014, Note_on_c, 0, 76, 0
2, 12023, Note_on_c, 0, 75, 74
2, 12121, Note_on_c, 0, 75, 0
2, 12122, Note_on_c, 0, 73, 70
2, 12131, Note_on_c, 0, 54, 46
2, 12159, Note_on_c, 0, 54, 0
2, 12197, Note_on_c, 0, 73, 0
2, 12215, Note_on_c, 0, 71, 69
2, 12287, Note_on_c, 0, 71, 0
2, 12334, Note_on_c, 0, 80, 68
2, 12347, Note_on_c, 0, 52, 52
2, 12385, Note_on_c, 0, 52, 0
2, 12437, Note_on_c, 0, 80, 0
2, 12439, Note_on_c, 0, 76, 70
2, 12534, Note_on_c, 0, 76, 0
2, 12540, Note_on_c, 0, 75, 77
2, 12545, Note_on_c, 0, 56, 68
2, 12576, Note_on_c, 0, 56, 0
2, 12636, Note_on_c, 0, 73, 75
2, 12649, Note_on_c, 0, 75, 0
2, 12733, Note_on_c, 0, 73, 0
2, 12743, Note_on_c, 0, 46, 67
2, 12754, Note_on_c, 0, 75, 86
2, 12788, Note_on_c, 0, 46, 0
2, 12851, Note_on_c, 0, 73, 80
2, 12883, Note_on_c, 0, 75, 0
2, 12946, Note_on_c, 0, 73, 0
2, 12965, Note_on_c, 0, 56, 78
2, 12966, Note_on_c, 0, 71, 79
2, 12996, Note_on_c, 0, 56, 0
2, 13060, Note_on_c, 0, 70, 75
2, 13065, Note_on_c, 0, 71, 0
2, 13131, Note_on_c, 0, 70, 0
2, 13169, Note_on_c, 0, 51, 74
2, 13170, Note_on_c, 0, 78, 76
2, 13197, Note_on_c, 0, 51, 0
2, 13272, Note_on_c, 0, 75, 78
2, 13305, Note_on_c, 0, 78, 0
2, 13371, Note_on_c, 0, 73, 73
2, 13376, Note_on_c, 0, 54, 79
2, 13406, Note_on_c, 0, 75, 0
2, 13410, Note_on_c, 0, 54, 0
2, 13464, Note_on_c, 0, 73, 0
2, 13467, Note_on_c, 0, 71, 74
2, 13543, Note_on_c, 0, 71, 0
2, 13577, Note_on_c, 0, 73, 75
2, 13579, Note_on_c, 0, 44, 57
2, 13620, Note_on_c, 0, 44, 0
2, 13656, Note_on_c, 0, 73, 0
2, 13678, Note_on_c, 0, 71, 71
2, 13770, Note_on_c, 0, 71, 0
2, 13779, Note_on_c, 0, 54, 72
2, 13785, Note_on_c, 0, 70, 70
2, 13819, Note_on_c, 0, 54, 0
2, 13880, Note_on_c, 0, 68, 68
2, 13889, Note_on_c, 0, 70, 0
2, 13938, Note_on_c, 0, 68, 0
2, 13979, Note_on_c, 0, 49, 62
2, 13989, Note_on_c, 0, 76, 73
2, 14079, Note_on_c, 0, 51, 75
2, 14088, Note_on_c, 0, 75, 75
2, 14103, Note_on_c, 0, 49, 0
2, 14133, Note_on_c, 0, 51, 0
2, 14150, Note_on_c, 0, 76, 0
2, 14175, Note_on_c, 0, 52, 65
2, 14188, Note_on_c, 0, 75, 0
2, 14190, Note_on_c, 0, 73, 74
2, 14269, Note_on_c, 0, 54, 76
2, 14278, Note_on_c, 0, 75, 81
2, 14283, Note_on_c, 0, 52, 0
2, 14283, Note_on_c, 0, 73, 0
2, 14381, Note_on_c, 0, 56, 69
2, 14383, Note_on_c, 0, 76, 83
2, 14388, Note_on_c, 0, 54, 0
2, 14407, Note_on_c, 0, 75, 0
2, 14440, Note_on_c, 0, 76, 0
2, 14468, Note_on_c, 0, 58, 77
2, 14474, Note_on_c, 0, 56, 0
2, 14583, Note_on_c, 0, 58, 0
2, 14586, Note_on_c, 0, 59, 73
2, 14588, Note_on_c, 0, 68, 71
2, 14617, Note_on_c, 0, 68, 0
2, 14670, Note_on_c, 0, 59, 0
2, 14673, Note_on_c, 0, 56, 76
2, 14794, Note_on_c, 0, 58, 81
2, 14800, Note_on_c, 0, 66, 75
2, 14811, Note_on_c, 0, 56, 0
2, 14838, Note_on_c, 0, 58, 0
2, 14898, Note_on_c, 0, 68, 75
2, 14905, Note_on_c, 0, 66, 0
2, 14993, Note_on_c, 0, 70, 75
2, 15013, Note_on_c, 0, 61, 78
2, 15024, Note_on_c, 0, 68, 0
2, 15047, Note_on_c, 0, 61, 0
2, 15049, Note_on_c, 0, 70, 0
2, 15093, Note_on_c, 0, 71, 67
2, 15203, Note_on_c, 0, 73, 80
2, 15204, Note_on_c, 0, 58, 87
2, 15228, Note_on_c, 0, 71, 0
2, 15252, Note_on_c, 0, 58, 0
2, 15304, Note_on_c, 0, 75, 85
2, 15323, Note_on_c, 0, 73, 0
2, 15396, Note_on_c, 0, 54, 92
2, 15407, Note_on_c, 0, 76, 77
2, 15417, Note_on_c, 0, 54, 0
2, 15443, Note_on_c, 0, 75, 0
2, 15464, Note_on_c, 0, 73, 76
2, 15498, Note_on_c, 0, 76, 0
2, 15598, Note_on_c, 0, 59, 98
2, 15598, Note_on_c, 0, 75, 81
2, 15625, Note_on_c, 0, 73, 0
2, 15642, Note_on_c, 0, 59, 0
2, 15692, Note_on_c, 0, 76, 77
2, 15715, Note_on_c, 0, 75, 0
2, 15794, Note_on_c, 0, 47, 93
2, 15807, Note_on_c, 0, 75, 92
2, 15815, Note_on_c, 0, 47, 0
2, 15835, Note_on_c, 0, 76, 0
2, 15898, Note_on_c, 0, 73, 68
2, 15929, Note_on_c, 0, 75, 0
2, 15989, Note_on_c, 0, 73, 0
2, 16006, Note_on_c, 0, 59, 76
2, 16007, Note_on_c, 0, 71, 81
2, 16020, Note_on_c, 0, 58, 84
2, 16038, Note_on_c, 0, 59, 0
2, 16078, Note_on_c, 0, 58, 0
2, 16079, Note_on_c, 0, 59, 87
2, 16104, Note_on_c, 0, 70, 73
2, 16105, Note_on_c, 0, 71, 0
2, 16212, Note_on_c, 0, 68, 74
2, 16261, Note_on_c, 0, 70, 0
2, 16314, Note_on_c, 0, 66, 77
2, 16343, Note_on_c, 0, 68, 0
2, 16405, Note_on_c, 0, 66, 0
2, 16417, Note_on_c, 0, 65, 80
2, 16501, Note_on_c, 0, 59, 0
2, 16507, Note_on_c, 0, 58, 73
2, 16508, Note_on_c, 0, 61, 80
2, 16513, Note_on_c, 0, 65, 0
2, 16576, Note_on_c, 0, 61, 0
2, 16612, Note_on_c, 0, 58, 0
2, 16613, Note_on_c, 0, 56, 77
2, 16618, Note_on_c, 0, 65, 70
2, 16714, Note_on_c, 0, 54, 69
2, 16720, Note_on_c, 0, 68, 77
2, 16721, Note_on_c, 0, 56, 0
2, 16754, Note_on_c, 0, 65, 0
2, 16779, Note_on_c, 0, 54, 0
2, 16827, Note_on_c, 0, 53, 79
2, 16829, Note_on_c, 0, 73, 78
2, 16861, Note_on_c, 0, 68, 0
2, 16905, Note_on_c, 0, 53, 0
2, 16922, Note_on_c, 0, 49, 68
2, 17004, Note_on_c, 0, 49, 0
2, 17028, Note_on_c, 0, 53, 72
2, 17099, Note_on_c, 0, 53, 0
2, 17122, Note_on_c, 0, 56, 75
2, 17203, Note_on_c, 0, 56, 0
2, 17230, Note_on_c, 0, 58, 78
2, 17261, Note_on_c, 0, 58, 0
2, 17285, Note_on_c, 0, 73, 0
2, 17319, Note_on_c, 0, 71, 63
2, 17429, Note_on_c, 0, 61, 70
2, 17434, Note_on_c, 0, 70, 68
2, 17436, Note_on_c, 0, 71, 0
2, 17475, Note_on_c, 0, 61, 0
2, 17521, Note_on_c, 0, 68, 76
2, 17570, Note_on_c, 0, 70, 0
2, 17642, Note_on_c, 0, 66, 79
2, 17644, Note_on_c, 0, 51, 71
2, 17661, Note_on_c, 0, 68, 0
2, 17731, Note_on_c, 0, 51, 0
2, 17739, Note_on_c, 0, 65, 79
2, 17749, Note_on_c, 0, 66, 0
2, 17842, Note_on_c, 0, 54, 77
2, 17855, Note_on_c, 0, 63, 80
2, 17880, Note_on_c, 0, 65, 0
2, 17914, Note_on_c, 0, 54, 0
2, 17938, Note_on_c, 0, 73, 73
2, 17940, Note_on_c, 0, 63, 0
2, 18047, Note_on_c, 0, 56, 75
2, 18058, Note_on_c, 0, 71, 75
2, 18089, Note_on_c, 0, 56, 0
2, 18154, Note_on_c, 0, 73, 0
2, 18160, Note_on_c, 0, 70, 76
2, 18161, Note_on_c, 0, 71, 0
2, 18250, Note_on_c, 0, 59, 70
2, 18252, Note_on_c, 0, 68, 75
2, 18277, Note_on_c, 0, 70, 0
2, 18288, Note_on_c, 0, 59, 0
2, 18355, Note_on_c, 0, 66, 71
2, 18370, Note_on_c, 0, 68, 0
2, 18453, Note_on_c, 0, 66, 0
2, 18462, Note_on_c, 0, 49, 70
2, 18463, Note_on_c, 0, 65, 74
2, 18510, Note_on_c, 0, 49, 0
2, 18530, Note_on_c, 0, 65, 0
2, 18555, Note_on_c, 0, 63, 71
2, 18633, Note_on_c, 0, 63, 0
2, 18658, Note_on_c, 0, 53, 71
2, 18665, Note_on_c, 0, 61, 77
2, 18686, Note_on_c, 0, 53, 0
2, 18768, Note_on_c, 0, 71, 72
2, 18860, Note_on_c, 0, 54, 66
2, 18861, Note_on_c, 0, 70, 74
2, 18869, Note_on_c, 0, 66, 65
2, 18874, Note_on_c, 0, 71, 0
2, 18959, Note_on_c, 0, 42, 63
2, 18966, Note_on_c, 0, 54, 0
2, 19056, Note_on_c, 0, 42, 0
2, 19062, Note_on_c, 0, 44, 67
2, 19146, Note_on_c, 0, 61, 0
2, 19166, Note_on_c, 0, 46, 73
2, 19182, Note_on_c, 0, 44, 0
2, 19185, Note_on_c, 0, 70, 0
2, 19208, Note_on_c, 0, 66, 0
2, 19233, Note_on_c, 0, 46, 0
2, 19269, Note_on_c, 0, 47, 69
2, 19357, Note_on_c, 0, 47, 0
2, 19363, Note_on_c, 0, 49, 69
2, 19465, Note_on_c, 0, 51, 74
2, 19466, Note_on_c, 0, 49, 0
2, 19533, Note_on_c, 0, 51, 0
2, 19562, Note_on_c, 0, 53, 67
2, 19652, Note_on_c, 0, 53, 0
2, 19664, Note_on_c, 0, 54, 67
2, 19742, Note_on_c, 0, 54, 0
2, 19776, Note_on_c, 0, 56, 56
2, 19826, Note_on_c, 0, 73, 60
2, 19833, Note_on_c, 0, 70, 58
2, 19872, Note_on_c, 0, 56, 0
2, 19884, Note_on_c, 0, 54, 56
2, 19922, Note_on_c, 0, 73, 0
2, 19961, Note_on_c, 0, 54, 0
2, 19994, Note_on_c, 0, 52, 55
2, 20039, Note_on_c, 0, 70, 0
2, 20063, Note_on_c, 0, 72, 65
2, 20063, Note_on_c, 0, 78, 63
2, 20087, Note_on_c, 0, 52, 0
2, 20096, Note_on_c, 0, 51, 58
2, 20105, Note_on_c, 0, 78, 0
2, 20176, Note_on_c, 0, 51, 0
2, 20188, Note_on_c, 0, 56, 53
2, 20253, Note_on_c, 0, 56, 0
2, 20265, Note_on_c, 0, 75, 73
2, 20278, Note_on_c, 0, 54, 59
2, 20297, Note_on_c, 0, 75, 0
2, 20325, Note_on_c, 0, 54, 0
2, 20383, Note_on_c, 0, 56, 49
2, 20454, Note_on_c, 0, 72, 0
2, 20473, Note_on_c, 0, 56, 0
2, 20474, Note_on_c, 0, 76, 68
2, 20478, Note_on_c, 0, 73, 60
2, 20481, Note_on_c, 0, 49, 56
2, 20561, Note_on_c, 0, 49, 0
2, 20575, Note_on_c, 0, 51, 59
2, 20678, Note_on_c, 0, 51, 0
2, 20693, Note_on_c, 0, 52, 52
2, 20699, Note_on_c, 0, 68, 62
2, 20722, Note_on_c, 0, 73, 0
2, 20754, Note_on_c, 0, 68, 0
2, 20759, Note_on_c, 0, 52, 0
2, 20798, Note_on_c, 0, 49, 52
2, 20899, Note_on_c, 0, 49, 0
2, 20902, Note_on_c, 0, 54, 58
2, 20912, Note_on_c, 0, 69, 72
2, 20970, Note_on_c, 0, 54, 0
2, 21006, Note_on_c, 0, 52, 58
2, 21112, Note_on_c, 0, 52, 0
2, 21114, Note_on_c, 0, 51, 67
2, 21114, Note_on_c, 0, 70, 67
2, 21139, Note_on_c, 0, 69, 0
2, 21213, Note_on_c, 0, 51, 0
2, 21214, Note_on_c, 0, 49, 57
2, 21318, Note_on_c, 0, 49, 0
2, 21330, Note_on_c, 0, 70, 0
2, 21335, Note_on_c, 0, 71, 73
2, 21339, Note_on_c, 0, 47, 56
2, 21413, Note_on_c, 0, 47, 0
2, 21452, Note_on_c, 0, 49, 58
2, 21541, Note_on_c, 0, 49, 0
2, 21550, Note_on_c, 0, 47, 57
2, 21553, Note_on_c, 0, 75, 71
2, 21577, Note_on_c, 0, 76, 0
2, 21663, Note_on_c, 0, 47, 0
2, 21667, Note_on_c, 0, 46, 56
2, 21692, Note_on_c, 0, 75, 0
2, 21778, Note_on_c, 0, 76, 75
2, 21780, Note_on_c, 0, 46, 0
2, 21784, Note_on_c, 0, 44, 61
2, 21877, Note_on_c, 0, 44, 0
2, 21889, Note_on_c, 0, 49, 62
2, 21976, Note_on_c, 0, 49, 0
2, 21987, Note_on_c, 0, 77, 82
2, 21988, Note_on_c, 0, 47, 64
2, 22026, Note_on_c, 0, 76, 0
2, 22083, Note_on_c, 0, 47, 0
2, 22090, Note_on_c, 0, 49, 70
2, 22193, Note_on_c, 0, 49, 0
2, 22209, Note_on_c, 0, 42, 68
2, 22223, Note_on_c, 0, 78, 83
2, 22232, Note_on_c, 0, 77, 0
2, 22318, Note_on_c, 0, 42, 0
2, 22321, Note_on_c, 0, 49, 64
2, 22392, Note_on_c, 0, 49, 0
2, 22425, Note_on_c, 0, 54, 67
2, 22449, Note_on_c, 0, 70, 75
2, 22458, Note_on_c, 0, 71, 0
2, 22532, Note_on_c, 0, 52, 68
2, 22541, Note_on_c, 0, 54, 0
2, 22610, Note_on_c, 0, 70, 0
2, 22643, Note_on_c, 0, 51, 70
2, 22654, Note_on_c, 0, 52, 0
2, 22655, Note_on_c, 0, 71, 84
2, 22753, Note_on_c, 0, 56, 71
2, 22759, Note_on_c, 0, 51, 0
2, 22858, Note_on_c, 0, 56, 0
2, 22862, Note_on_c, 0, 72, 87
2, 22864, Note_on_c, 0, 54, 68
2, 22887, Note_on_c, 0, 71, 0
2, 22961, Note_on_c, 0, 54, 0
2, 22977, Note_on_c, 0, 56, 68
2, 23070, Note_on_c, 0, 72, 0
2, 23088, Note_on_c, 0, 56, 0
2, 23088, Note_on_c, 0, 73, 89
2, 23091, Note_on_c, 0, 49, 60
2, 23182, Note_on_c, 0, 51, 73
2, 23187, Note_on_c, 0, 49, 0
2, 23288, Note_on_c, 0, 77, 90
2, 23302, Note_on_c, 0, 49, 69
2, 23331, Note_on_c, 0, 78, 0
2, 23351, Note_on_c, 0, 51, 0
2, 23401, Note_on_c, 0, 47, 66
2, 23401, Note_on_c, 0, 49, 0
2, 23504, Note_on_c, 0, 78, 94
2, 23511, Note_on_c, 0, 77, 0
2, 23514, Note_on_c, 0, 46, 70
2, 23527, Note_on_c, 0, 47, 0
2, 23615, Note_on_c, 0, 51, 74
2, 23646, Note_on_c, 0, 46, 0
2, 23719, Note_on_c, 0, 79, 88
2, 23729, Note_on_c, 0, 49, 72
2, 23735, Note_on_c, 0, 51, 0
2, 23748, Note_on_c, 0, 78, 0
2, 23836, Note_on_c, 0, 51, 84
2, 23847, Note_on_c, 0, 49, 0
2, 23863, Note_on_c, 0, 73, 0
2, 23935, Note_on_c, 0, 51, 0
2, 23936, Note_on_c, 0, 80, 90
2, 23950, Note_on_c, 0, 44, 76
2, 23960, Note_on_c, 0, 79, 0
2, 24052, Note_on_c, 0, 44, 0
2, 24052, Note_on_c, 0, 73, 78
2, 24150, Note_on_c, 0, 73, 0
2, 24153, Note_on_c, 0, 51, 76
2, 24157, Note_on_c, 0, 71, 79
2, 24199, Note_on_c, 0, 51, 0
2, 24248, Note_on_c, 0, 71, 0
2, 24253, Note_on_c, 0, 70, 69
2, 24332, Note_on_c, 0, 70, 0
2, 24364, Note_on_c, 0, 56, 79
2, 24367, Note_on_c, 0, 71, 78
2, 24407, Note_on_c, 0, 56, 0
2, 24416, Note_on_c, 0, 80, 0
2, 24467, Note_on_c, 0, 75, 80
2, 24513, Note_on_c, 0, 71, 0
2, 24575, Note_on_c, 0, 80, 81
2, 24583, Note_on_c, 0, 47, 79
2, 24597, Note_on_c, 0, 75, 0
2, 24634, Note_on_c, 0, 47, 0
2, 24673, Note_on_c, 0, 78, 74
2, 24778, Note_on_c, 0, 76, 81
2, 24782, Note_on_c, 0, 49, 81
2, 24817, Note_on_c, 0, 78, 0
2, 24826, Note_on_c, 0, 80, 0
2, 24846, Note_on_c, 0, 49, 0
2, 24887, Note_on_c, 0, 75, 83
2, 24903, Note_on_c, 0, 76, 0
2, 24992, Note_on_c, 0, 51, 68
2, 24996, Note_on_c, 0, 73, 83
2, 25030, Note_on_c, 0, 75, 0
2, 25052, Note_on_c, 0, 51, 0
2, 25094, Note_on_c, 0, 71, 82
2, 25095, Note_on_c, 0, 73, 0
2, 25202, Note_on_c, 0, 52, 81
2, 25203, Note_on_c, 0, 70, 81
2, 25209, Note_on_c, 0, 71, 0
2, 25239, Note_on_c, 0, 43, 9
2, 25263, Note_on_c, 0, 52, 0
2, 25317, Note_on_c, 0, 71, 87
2, 25324, Note_on_c, 0, 70, 0
2, 25384, Note_on_c, 0, 43, 0
2, 25421, Note_on_c, 0, 46, 73
2, 25421, Note_on_c, 0, 73, 82
2, 25451, Note_on_c, 0, 71, 0
2, 25509, Note_on_c, 0, 46, 0
2, 25516, Note_on_c, 0, 68, 82
2, 25625, Note_on_c, 0, 51, 81
2, 25633, Note_on_c, 0, 67, 83
2, 25647, Note_on_c, 0, 68, 0
2, 25661, Note_on_c, 0, 73, 0
2, 25715, Note_on_c, 0, 51, 0
2, 25724, Note_on_c, 0, 68, 84
2, 25750, Note_on_c, 0, 67, 0
2, 25830, Note_on_c, 0, 70, 87
2, 25832, Note_on_c, 0, 49, 67
2, 25862, Note_on_c, 0, 68, 0
2, 25872, Note_on_c, 0, 49, 0
2, 25912, Note_on_c, 0, 70, 0
2, 25928, Note_on_c, 0, 64, 79
2, 26043, Note_on_c, 0, 47, 70
2, 26052, Note_on_c, 0, 64, 0
2, 26053, Note_on_c, 0, 63, 80
2, 26090, Note_on_c, 0, 47, 0
2, 26159, Note_on_c, 0, 61, 83
2, 26165, Note_on_c, 0, 63, 0
2, 26246, Note_on_c, 0, 61, 0
2, 26254, Note_on_c, 0, 43, 75
2, 26254, Note_on_c, 0, 59, 77
2, 26294, Note_on_c, 0, 43, 0
2, 26342, Note_on_c, 0, 58, 79
2, 26342, Note_on_c, 0, 59, 0
2, 26423, Note_on_c, 0, 58, 0
2, 26452, Note_on_c, 0, 59, 81
2, 26460, Note_on_c, 0, 44, 74
2, 26510, Note_on_c, 0, 44, 0
2, 26553, Note_on_c, 0, 63, 80
2, 26581, Note_on_c, 0, 59, 0
2, 26658, Note_on_c, 0, 68, 88
2, 26666, Note_on_c, 0, 40, 74
2, 26672, Note_on_c, 0, 63, 0
2, 26706, Note_on_c, 0, 40, 0
2, 26761, Note_on_c, 0, 68, 0
2, 26767, Note_on_c, 0, 59, 76
2, 26865, Note_on_c, 0, 37, 75
2, 26885, Note_on_c, 0, 58, 84
2, 26902, Note_on_c, 0, 59, 0
2, 26903, Note_on_c, 0, 37, 0
2, 26975, Note_on_c, 0, 58, 0
2, 26990, Note_on_c, 0, 68, 80
2, 27074, Note_on_c, 0, 39, 81
2, 27095, Note_on_c, 0, 58, 81
2, 27100, Note_on_c, 0, 39, 0
2, 27146, Note_on_c, 0, 68, 0
2, 27189, Note_on_c, 0, 67, 79
2, 27195, Note_on_c, 0, 58, 0
2, 27277, Note_on_c, 0, 44, 80
2, 27294, Note_on_c, 0, 68, 81
2, 27314, Note_on_c, 0, 67, 0
2, 27388, Note_on_c, 0, 59, 71
2, 27466, Note_on_c, 0, 44, 0
2, 27492, Note_on_c, 0, 61, 82
2, 27505, Note_on_c, 0, 59, 0
2, 27533, Note_on_c, 0, 68, 0
2, 27595, Note_on_c, 0, 63, 74
2, 27615, Note_on_c, 0, 61, 0
2, 27700, Note_on_c, 0, 56, 80
2, 27721, Note_on_c, 0, 63, 0
2, 27786, Note_on_c, 0, 51, 77
2, 27788, Note_on_c, 0, 56, 0
2, 27886, Note_on_c, 0, 53, 80
2, 27913, Note_on_c, 0, 51, 0
2, 27975, Note_on_c, 0, 53, 0
2, 27978, Note_on_c, 0, 55, 79
2, 28091, Note_on_c, 0, 55, 0
2, 28091, Note_on_c, 0, 56, 83
2, 28208, Note_on_c, 0, 58, 75
2, 28216, Note_on_c, 0, 56, 0
2, 28317, Note_on_c, 0, 59, 73
2, 28335, Note_on_c, 0, 58, 0
2, 28400, Note_on_c, 0, 61, 73
2, 28405, Note_on_c, 0, 59, 0
2, 28492, Note_on_c, 0, 61, 0
2, 28514, Note_on_c, 0, 59, 73
2, 28612, Note_on_c, 0, 58, 69
2, 28640, Note_on_c, 0, 59, 0
2, 28722, Note_on_c, 0, 56, 68
2, 28751, Note_on_c, 0, 58, 0
2, 28808, Note_on_c, 0, 56, 0
2, 28823, Note_on_c, 0, 54, 63
2, 28902, Note_on_c, 0, 54, 0
2, 28925, Note_on_c, 0, 53, 64
2, 28935, Note_on_c, 0, 37, 59
2, 29049, Note_on_c, 0, 53, 0
2, 29054, Note_on_c, 0, 56, 59
2, 29107, Note_on_c, 0, 37, 0
2, 29161, Note_on_c, 0, 56, 0
2, 29165, Note_on_c, 0, 58, 56
2, 29253, Note_on_c, 0, 59, 58
2, 29257, Note_on_c, 0, 58, 0
2, 29301, Note_on_c, 0, 59, 0
2, 29361, Note_on_c, 0, 49, 55
2, 29438, Note_on_c, 0, 49, 0
2, 29457, Note_on_c, 0, 51, 61
2, 29538, Note_on_c, 0, 51, 0
2, 29562, Note_on_c, 0, 53, 67
2, 29635, Note_on_c, 0, 53, 0
2, 29666, Note_on_c, 0, 54, 65
2, 29769, Note_on_c, 0, 56, 72
2, 29770, Note_on_c, 0, 54, 0
2, 29873, Note_on_c, 0, 58, 67
2, 29886, Note_on_c, 0, 56, 0
2, 29964, Note_on_c, 0, 58, 0
2, 29968, Note_on_c, 0, 59, 74
2, 30053, Note_on_c, 0, 59, 0
2, 30071, Note_on_c, 0, 61, 73
2, 30166, Note_on_c, 0, 61, 0
2, 30177, Note_on_c, 0, 63, 72
2, 30245, Note_on_c, 0, 63, 0
2, 30279, Note_on_c, 0, 65, 71
2, 30379, Note_on_c, 0, 66, 67
2, 30414, Note_on_c, 0, 65, 0
2, 30472, Note_on_c, 0, 68, 72
2, 30490, Note_on_c, 0, 66, 0
2, 30566, Note_on_c, 0, 42, 64
2, 30578, Note_on_c, 0, 70, 70
2, 30594, Note_on_c, 0, 68, 0
2, 30693, Note_on_c, 0, 66, 68
2, 30695, Note_on_c, 0, 70, 0
2, 30776, Note_on_c, 0, 66, 0
2, 30796, Note_on_c, 0, 65, 68
2, 30801, Note_on_c, 0, 42, 0
2, 30884, Note_on_c, 0, 65, 0
2, 30897, Note_on_c, 0, 63, 69
2, 31009, Note_on_c, 0, 61, 65
2, 31023, Note_on_c, 0, 63, 0
2, 31097, Note_on_c, 0, 59, 68
2, 31107, Note_on_c, 0, 61, 0
2, 31197, Note_on_c, 0, 58, 69
2, 31202, Note_on_c, 0, 59, 0
2, 31306, Note_on_c, 0, 56, 69
2, 31314, Note_on_c, 0, 58, 0
2, 31398, Note_on_c, 0, 56, 0
2, 31406, Note_on_c, 0, 54, 71
2, 31508, Note_on_c, 0, 56, 68
2, 31520, Note_on_c, 0, 54, 0
2, 31616, Note_on_c, 0, 56, 0
2, 31617, Note_on_c, 0, 58, 67
2, 31703, Note_on_c, 0, 59, 68
2, 31710, Note_on_c, 0, 58, 0
2, 31819, Note_on_c, 0, 58, 71
2, 31856, Note_on_c, 0, 59, 0
2, 31911, Note_on_c, 0, 56, 74
2, 31936, Note_on_c, 0, 58, 0
2, 32018, Note_on_c, 0, 54, 72
2, 32051, Note_on_c, 0, 56, 0
2, 32102, Note_on_c, 0, 52, 71
2, 32110, Note_on_c, 0, 54, 0
2, 32225, Note_on_c, 0, 51, 74
2, 32227, Note_on_c, 0, 35, 76
2, 32237, Note_on_c, 0, 52, 0
2, 32339, Note_on_c, 0, 51, 0
2, 32341, Note_on_c, 0, 54, 74
2, 32407, Note_on_c, 0, 35, 0
2, 32441, Note_on_c, 0, 56, 71
2, 32457, Note_on_c, 0, 54, 0
2, 32538, Note_on_c, 0, 57, 69
2, 32564, Note_on_c, 0, 56, 0
2, 32612, Note_on_c, 0, 57, 0
2, 32643, Note_on_c, 0, 47, 73
2, 32738, Note_on_c, 0, 47, 0
2, 32744, Note_on_c, 0, 49, 72
2, 32838, Note_on_c, 0, 49, 0
2, 32840, Note_on_c, 0, 51, 79
2, 32917, Note_on_c, 0, 51, 0
2, 32949, Note_on_c, 0, 52, 75
2, 33045, Note_on_c, 0, 54, 77
2, 33072, Note_on_c, 0, 52, 0
2, 33147, Note_on_c, 0, 56, 78
2, 33181, Note_on_c, 0, 54, 0
2, 33229, Note_on_c, 0, 57, 81
2, 33235, Note_on_c, 0, 56, 0
2, 33327, Note_on_c, 0, 57, 0
2, 33328, Note_on_c, 0, 59, 82
2, 33425, Note_on_c, 0, 59, 0
2, 33430, Note_on_c, 0, 61, 83
2, 33516, Note_on_c, 0, 61, 0
2, 33532, Note_on_c, 0, 63, 78
2, 33622, Note_on_c, 0, 64, 82
2, 33651, Note_on_c, 0, 63, 0
2, 33725, Note_on_c, 0, 66, 78
2, 33762, Note_on_c, 0, 64, 0
2, 33825, Note_on_c, 0, 68, 82
2, 33836, Note_on_c, 0, 40, 76
2, 33840, Note_on_c, 0, 66, 0
2, 33920, Note_on_c, 0, 68, 0
2, 33932, Note_on_c, 0, 64, 72
2, 34038, Note_on_c, 0, 63, 77
2, 34044, Note_on_c, 0, 40, 0
2, 34049, Note_on_c, 0, 64, 0
2, 34140, Note_on_c, 0, 61, 76
2, 34166, Note_on_c, 0, 63, 0
2, 34249, Note_on_c, 0, 61, 0
2, 34250, Note_on_c, 0, 59, 76
2, 34336, Note_on_c, 0, 57, 73
2, 34355, Note_on_c, 0, 59, 0
2, 34445, Note_on_c, 0, 56, 77
2, 34448, Note_on_c, 0, 57, 0
2, 34555, Note_on_c, 0, 54, 72
2, 34561, Note_on_c, 0, 56, 0
2, 34618, Note_on_c, 0, 54, 0
2, 34654, Note_on_c, 0, 52, 76
2, 34749, Note_on_c, 0, 52, 0
2, 34756, Note_on_c, 0, 54, 77
2, 34767, Note_on_c, 0, 63, 72
2, 34835, Note_on_c, 0, 54, 0
2, 34852, Note_on_c, 0, 56, 74
2, 34859, Note_on_c, 0, 64, 76
2, 34868, Note_on_c, 0, 63, 0
2, 34928, Note_on_c, 0, 56, 0
2, 34944, Note_on_c, 0, 66, 77
2, 34947, Note_on_c, 0, 64, 0
2, 34967, Note_on_c, 0, 57, 68
2, 35043, Note_on_c, 0, 66, 0
2, 35049, Note_on_c, 0, 64, 81
2, 35053, Note_on_c, 0, 57, 0
2, 35066, Note_on_c, 0, 56, 74
2, 35146, Note_on_c, 0, 64, 0
2, 35149, Note_on_c, 0, 63, 80
2, 35164, Note_on_c, 0, 56, 0
2, 35171, Note_on_c, 0, 54, 75
2, 35239, Note_on_c, 0, 54, 0
2, 35262, Note_on_c, 0, 61, 82
2, 35268, Note_on_c, 0, 63, 0
2, 35271, Note_on_c, 0, 52, 71
2, 35360, Note_on_c, 0, 52, 0
2, 35362, Note_on_c, 0, 59, 83
2, 35365, Note_on_c, 0, 61, 0
2, 35366, Note_on_c, 0, 51, 76
2, 35462, Note_on_c, 0, 58, 79
2, 35463, Note_on_c, 0, 49, 70
2, 35469, Note_on_c, 0, 42, 70
2, 35473, Note_on_c, 0, 51, 0
2, 35473, Note_on_c, 0, 59, 0
2, 35571, Note_on_c, 0, 61, 78
2, 35574, Note_on_c, 0, 58, 0
2, 35602, Note_on_c, 0, 42, 0
2, 35613, Note_on_c, 0, 49, 0
2, 35674, Note_on_c, 0, 63, 78
2, 35682, Note_on_c, 0, 61, 0
2, 35772, Note_on_c, 0, 64, 76
2, 35789, Note_on_c, 0, 63, 0
2, 35856, Note_on_c, 0, 64, 0
2, 35875, Note_on_c, 0, 54, 81
2, 35970, Note_on_c, 0, 56, 79
2, 35973, Note_on_c, 0, 54, 0
2, 36063, Note_on_c, 0, 56, 0
2, 36074, Note_on_c, 0, 58, 79
2, 36147, Note_on_c, 0, 58, 0
2, 36169, Note_on_c, 0, 59, 82
2, 36267, Note_on_c, 0, 61, 82
2, 36298, Note_on_c, 0, 59, 0
2, 36370, Note_on_c, 0, 63, 80
2, 36404, Note_on_c, 0, 61, 0
2, 36450, Note_on_c, 0, 63, 0
2, 36455, Note_on_c, 0, 64, 74
2, 36500, Note_on_c, 0, 65, 7
2, 36501, Note_on_c, 0, 65, 0
2, 36547, Note_on_c, 0, 66, 81
2, 36548, Note_on_c, 0, 64, 0
2, 36643, Note_on_c, 0, 66, 0
2, 36646, Note_on_c, 0, 68, 82
2, 36741, Note_on_c, 0, 70, 79
2, 36748, Note_on_c, 0, 68, 0
2, 36847, Note_on_c, 0, 71, 84
2, 36875, Note_on_c, 0, 70, 0
2, 36929, Note_on_c, 0, 73, 81
2, 36967, Note_on_c, 0, 71, 0
2, 37034, Note_on_c, 0, 75, 82
2, 37042, Note_on_c, 0, 47, 68
2, 37052, Note_on_c, 0, 73, 0
2, 37124, Note_on_c, 0, 75, 0
2, 37139, Note_on_c, 0, 71, 71
2, 37228, Note_on_c, 0, 47, 0
2, 37247, Note_on_c, 0, 71, 0
2, 37250, Note_on_c, 0, 70, 74
2, 37358, Note_on_c, 0, 68, 68
2, 37393, Note_on_c, 0, 70, 0
2, 37456, Note_on_c, 0, 66, 62
2, 37463, Note_on_c, 0, 68, 0
2, 37562, Note_on_c, 0, 66, 0
2, 37564, Note_on_c, 0, 64, 65
2, 37661, Note_on_c, 0, 64, 0
2, 37679, Note_on_c, 0, 63, 64
2, 37777, Note_on_c, 0, 63, 0
2, 37785, Note_on_c, 0, 61, 60
2, 37858, Note_on_c, 0, 61, 0
2, 37881, Note_on_c, 0, 59, 54
2, 37959, Note_on_c, 0, 59, 0
2, 37996, Note_on_c, 0, 75, 64
2, 38003, Note_on_c, 0, 63, 47
2, 38052, Note_on_c, 0, 76, 67
2, 38067, Note_on_c, 0, 63, 0
2, 38073, Note_on_c, 0, 75, 0
2, 38092, Note_on_c, 0, 54, 47
2, 38100, Note_on_c, 0, 78, 73
2, 38109, Note_on_c, 0, 76, 0
2, 38139, Note_on_c, 0, 54, 0
2, 38193, Note_on_c, 0, 63, 46
2, 38260, Note_on_c, 0, 63, 0
2, 38276, Note_on_c, 0, 78, 0
2, 38310, Note_on_c, 0, 59, 54
2, 38326, Note_on_c, 0, 76, 66
2, 38418, Note_on_c, 0, 59, 0
2, 38424, Note_on_c, 0, 75, 73
2, 38430, Note_on_c, 0, 76, 0
2, 38451, Note_on_c, 0, 63, 45
2, 38457, Note_on_c, 0, 75, 0
2, 38497, Note_on_c, 0, 63, 0
2, 38524, Note_on_c, 0, 54, 50
2, 38544, Note_on_c, 0, 73, 74
2, 38581, Control_c, 0, 67, 20
2, 38596, Control_c, 0, 67, 57
2, 38611, Control_c, 0, 67, 96
2, 38621, Note_on_c, 0, 54, 0
2, 38623, Note_on_c, 0, 73, 0
2, 38624, Note_on_c, 0, 71, 75
2, 38626, Control_c, 0, 67, 127
2, 38656, Note_on_c, 0, 71, 0
2, 38674, Note_on_c, 0, 63, 47
2, 38719, Note_on_c, 0, 63, 0
2, 38768, Note_on_c, 0, 83, 80
2, 38772, Note_on_c, 0, 56, 45
2, 38860, Note_on_c, 0, 56, 0
2, 38995, Note_on_c, 0, 80, 62
2, 39015, Note_on_c, 0, 51, 42
2, 39048, Note_on_c, 0, 80, 0
2, 39050, Note_on_c, 0, 51, 0
2, 39085, Note_on_c, 0, 59, 39
2, 39170, Note_on_c, 0, 59, 0
2, 39222, Note_on_c, 0, 56, 52
2, 39224, Note_on_c, 0, 75, 64
2, 39262, Note_on_c, 0, 75, 0
2, 39286, Note_on_c, 0, 56, 0
2, 39329, Note_on_c, 0, 59, 39
2, 39400, Note_on_c, 0, 59, 0
2, 39440, Note_on_c, 0, 51, 46
2, 39441, Note_on_c, 0, 78, 61
2, 39490, Note_on_c, 0, 78, 0
2, 39513, Note_on_c, 0, 51, 0
2, 39546, Note_on_c, 0, 59, 47
2, 39607, Note_on_c, 0, 59, 0
2, 39674, Note_on_c, 0, 56, 49
2, 39679, Note_on_c, 0, 77, 62
2, 39754, Note_on_c, 0, 56, 0
2, 39777, Note_on_c, 0, 61, 49
2, 39849, Note_on_c, 0, 61, 0
2, 39894, Note_on_c, 0, 53, 47
2, 39898, Note_on_c, 0, 80, 64
2, 39904, Note_on_c, 0, 77, 0
2, 39976, Note_on_c, 0, 53, 0
2, 40002, Note_on_c, 0, 61, 52
2, 40023, Note_on_c, 0, 80, 0
2, 40088, Note_on_c, 0, 61, 0
2, 40115, Note_on_c, 0, 56, 63
2, 40121, Note_on_c, 0, 78, 75
2, 40121, Note_on_c, 0, 83, 0
2, 40200, Note_on_c, 0, 56, 0
2, 40215, Note_on_c, 0, 77, 83
2, 40218, Note_on_c, 0, 61, 53
2, 40225, Note_on_c, 0, 78, 0
2, 40249, Note_on_c, 0, 77, 0
2, 40275, Note_on_c, 0, 61, 0
2, 40319, Note_on_c, 0, 53, 54
2, 40337, Note_on_c, 0, 75, 83
2, 40422, Note_on_c, 0, 73, 77
2, 40425, Note_on_c, 0, 75, 0
2, 40426, Note_on_c, 0, 53, 0
2, 40450, Note_on_c, 0, 61, 46
2, 40480, Note_on_c, 0, 73, 0
2, 40513, Note_on_c, 0, 61, 0
2, 40539, Note_on_c, 0, 82, 78
2, 40563, Note_on_c, 0, 54, 51
2, 40670, Note_on_c, 0, 54, 0
2, 40682, Note_on_c, 0, 58, 51
2, 40731, Note_on_c, 0, 58, 0
2, 40778, Note_on_c, 0, 49, 45
2, 40781, Note_on_c, 0, 78, 62
2, 40830, Note_on_c, 0, 78, 0
2, 40850, Note_on_c, 0, 49, 0
2, 40899, Note_on_c, 0, 58, 26
2, 40937, Note_on_c, 0, 58, 0
2, 40982, Note_on_c, 0, 54, 49
2, 40999, Note_on_c, 0, 73, 63
2, 41038, Note_on_c, 0, 73, 0
2, 41073, Note_on_c, 0, 54, 0
2, 41103, Note_on_c, 0, 58, 45
2, 41155, Note_on_c, 0, 58, 0
2, 41204, Note_on_c, 0, 49, 40
2, 41212, Note_on_c, 0, 76, 57
2, 41277, Note_on_c, 0, 76, 0
2, 41310, Note_on_c, 0, 58, 48
2, 41354, Note_on_c, 0, 49, 0
2, 41362, Note_on_c, 0, 58, 0
2, 41418, Note_on_c, 0, 54, 51
2, 41440, Note_on_c, 0, 75, 67
2, 41523, Note_on_c, 0, 54, 0
2, 41546, Note_on_c, 0, 59, 51
2, 41639, Note_on_c, 0, 59, 0
2, 41649, Note_on_c, 0, 78, 64
2, 41665, Note_on_c, 0, 51, 50
2, 41674, Note_on_c, 0, 75, 0
2, 41684, Note_on_c, 0, 82, 0
2, 41732, Note_on_c, 0, 51, 0
2, 41763, Note_on_c, 0, 59, 61
2, 41779, Note_on_c, 0, 78, 0
2, 41845, Note_on_c, 0, 59, 0
2, 41867, Note_on_c, 0, 76, 66
2, 41879, Note_on_c, 0, 54, 57
2, 41965, Note_on_c, 0, 75, 77
2, 41972, Note_on_c, 0, 76, 0
2, 41983, Note_on_c, 0, 59, 57
2, 42000, Note_on_c, 0, 75, 0
2, 42018, Note_on_c, 0, 54, 0
2, 42035, Note_on_c, 0, 59, 0
2, 42073, Note_on_c, 0, 51, 58
2, 42077, Note_on_c, 0, 73, 80
2, 42147, Note_on_c, 0, 51, 0
2, 42172, Note_on_c, 0, 71, 71
2, 42174, Note_on_c, 0, 73, 0
2, 42191, Note_on_c, 0, 59, 50
2, 42206, Note_on_c, 0, 71, 0
2, 42241, Note_on_c, 0, 59, 0
2, 42300, Note_on_c, 0, 56, 58
2, 42300, Note_on_c, 0, 77, 76
2, 42315, Control_c, 0, 67, 118
2, 42329, Control_c, 0, 67, 94
2, 42337, Note_on_c, 0, 77, 0
2, 42344, Control_c, 0, 67, 61
2, 42360, Control_c, 0, 67, 29
2, 42374, Note_on_c, 0, 56, 0
2, 42375, Control_c, 0, 67, 0
2, 42404, Note_on_c, 0, 78, 75
2, 42411, Note_on_c, 0, 61, 48
2, 42448, Note_on_c, 0, 61, 0
2, 42450, Note_on_c, 0, 78, 0
2, 42504, Note_on_c, 0, 53, 55
2, 42518, Note_on_c, 0, 80, 66
2, 42537, Note_on_c, 0, 71, 67
2, 42573, Note_on_c, 0, 53, 0
2, 42610, Note_on_c, 0, 61, 50
2, 42624, Note_on_c, 0, 71, 0
2, 42638, Note_on_c, 0, 70, 58
2, 42674, Note_on_c, 0, 70, 0
2, 42682, Note_on_c, 0, 61, 0
2, 42732, Note_on_c, 0, 56, 61
2, 42743, Note_on_c, 0, 71, 72
2, 42831, Note_on_c, 0, 71, 0
2, 42836, Note_on_c, 0, 56, 0
2, 42838, Note_on_c, 0, 61, 51
2, 42918, Note_on_c, 0, 61, 0
2, 42958, Note_on_c, 0, 53, 58
2, 42963, Note_on_c, 0, 73, 83
2, 42970, Note_on_c, 0, 80, 0
2, 43029, Note_on_c, 0, 53, 0
2, 43052, Note_on_c, 0, 61, 62
2, 43110, Note_on_c, 0, 73, 0
2, 43127, Note_on_c, 0, 61, 0
2, 43158, Note_on_c, 0, 79, 76
2, 43164, Note_on_c, 0, 58, 65
2, 43205, Note_on_c, 0, 80, 70
2, 43228, Note_on_c, 0, 79, 0
2, 43230, Note_on_c, 0, 82, 78
2, 43269, Note_on_c, 0, 80, 0
2, 43279, Note_on_c, 0, 58, 0
2, 43282, Note_on_c, 0, 63, 50
2, 43287, Note_on_c, 0, 82, 0
2, 43326, Note_on_c, 0, 63, 0
2, 43371, Note_on_c, 0, 55, 55
2, 43383, Note_on_c, 0, 73, 74
2, 43387, Note_on_c, 0, 70, 70
2, 43446, Note_on_c, 0, 55, 0
2, 43475, Note_on_c, 0, 70, 0
2, 43477, Note_on_c, 0, 63, 54
2, 43488, Note_on_c, 0, 68, 68
2, 43561, Note_on_c, 0, 63, 0
2, 43583, Note_on_c, 0, 68, 0
2, 43597, Note_on_c, 0, 58, 60
2, 43598, Note_on_c, 0, 70, 73
2, 43624, Note_on_c, 0, 73, 0
2, 43649, Note_on_c, 0, 70, 0
2, 43700, Note_on_c, 0, 63, 54
2, 43701, Note_on_c, 0, 58, 0
2, 43771, Note_on_c, 0, 63, 0
2, 43790, Note_on_c, 0, 82, 84
2, 43793, Note_on_c, 0, 73, 62
2, 43808, Note_on_c, 0, 55, 55
2, 43851, Note_on_c, 0, 73, 0
2, 43904, Note_on_c, 0, 55, 0
2, 43904, Note_on_c, 0, 63, 51
2, 43929, Note_on_c, 0, 82, 0
2, 44008, Note_on_c, 0, 63, 0
2, 44029, Note_on_c, 0, 59, 56
2, 44035, Note_on_c, 0, 82, 88
2, 44050, Note_on_c, 0, 73, 68
2, 44151, Note_on_c, 0, 63, 53
2, 44196, Note_on_c, 0, 59, 0
2, 44205, Note_on_c, 0, 73, 0
2, 44235, Note_on_c, 0, 63, 0
2, 44259, Note_on_c, 0, 80, 80
2, 44262, Note_on_c, 0, 56, 55
2, 44277, Note_on_c, 0, 71, 65
2, 44299, Note_on_c, 0, 82, 0
2, 44335, Note_on_c, 0, 56, 0
2, 44365, Note_on_c, 0, 63, 53
2, 44380, Note_on_c, 0, 80, 0
2, 44465, Note_on_c, 0, 63, 0
2, 44490, Note_on_c, 0, 71, 0
2, 44493, Note_on_c, 0, 80, 74
2, 44498, Note_on_c, 0, 59, 48
2, 44501, Note_on_c, 0, 75, 60
2, 44578, Note_on_c, 0, 75, 0
2, 44604, Note_on_c, 0, 63, 45
2, 44630, Note_on_c, 0, 59, 0
2, 44671, Note_on_c, 0, 63, 0
2, 44713, Note_on_c, 0, 56, 42
2, 44731, Note_on_c, 0, 78, 56
2, 44765, Note_on_c, 0, 75, 49
2, 44770, Note_on_c, 0, 80, 0
2, 44782, Note_on_c, 0, 78, 0
2, 44809, Note_on_c, 0, 56, 0
2, 44833, Note_on_c, 0, 63, 46
2, 44876, Control_c, 0, 67, 36
2, 44891, Control_c, 0, 67, 71
2, 44906, Control_c, 0, 67, 104
2, 44922, Control_c, 0, 67, 127
2, 44931, Note_on_c, 0, 63, 0
2, 44966, Note_on_c, 0, 78, 58
2, 44970, Note_on_c, 0, 60, 47
2, 45006, Note_on_c, 0, 78, 0
2, 45027, Note_on_c, 0, 80, 46
2, 45049, Note_on_c, 0, 60, 0
2, 45053, Note_on_c, 0, 80, 0
2, 45080, Note_on_c, 0, 63, 33
2, 45080, Note_on_c, 0, 78, 66
2, 45114, Note_on_c, 0, 78, 0
2, 45123, Note_on_c, 0, 63, 0
2, 45126, Note_on_c, 0, 80, 55
2, 45128, Note_on_c, 0, 75, 0
2, 45150, Note_on_c, 0, 80, 0
2, 45157, Note_on_c, 0, 57, 48
2, 45177, Note_on_c, 0, 78, 64
2, 45222, Note_on_c, 0, 78, 0
2, 45228, Note_on_c, 0, 57, 0
2, 45243, Note_on_c, 0, 80, 52
2, 45265, Note_on_c, 0, 63, 39
2, 45267, Note_on_c, 0, 80, 0
2, 45280, Note_on_c, 0, 78, 65
2, 45317, Note_on_c, 0, 63, 0
2, 45332, Note_on_c, 0, 78, 0
2, 45345, Note_on_c, 0, 80, 58
2, 45349, Note_on_c, 0, 60, 49
2, 45367, Note_on_c, 0, 80, 0
2, 45382, Note_on_c, 0, 78, 62
2, 45397, Note_on_c, 0, 60, 0
2, 45421, Note_on_c, 0, 78, 0
2, 45424, Note_on_c, 0, 63, 53
2, 45438, Note_on_c, 0, 80, 56
2, 45460, Note_on_c, 0, 63, 0
2, 45460, Note_on_c, 0, 80, 0
2, 45470, Note_on_c, 0, 78, 70
2, 45492, Note_on_c, 0, 57, 51
2, 45542, Note_on_c, 0, 57, 0
2, 45544, Note_on_c, 0, 80, 54
2, 45547, Note_on_c, 0, 63, 51
2, 45560, Note_on_c, 0, 77, 78
2, 45562, Note_on_c, 0, 78, 0
2, 45596, Note_on_c, 0, 80, 0
2, 45606, Note_on_c, 0, 63, 0
2, 45617, Note_on_c, 0, 60, 47
2, 45637, Note_on_c, 0, 78, 71
2, 45639, Note_on_c, 0, 77, 0
2, 45682, Note_on_c, 0, 60, 0
2, 45698, Note_on_c, 0, 78, 0
2, 45709, Note_on_c, 0, 58, 57
2, 45730, Note_on_c, 0, 77, 78
2, 45850, Note_on_c, 0, 75, 57
2, 45939, Note_on_c, 0, 74, 64
2, 46009, Note_on_c, 0, 75, 0
2, 46037, Note_on_c, 0, 74, 0
2, 46055, Note_on_c, 0, 72, 57
2, 46147, Note_on_c, 0, 72, 0
2, 46168, Note_on_c, 0, 74, 64
2, 46170, Note_on_c, 0, 77, 0
2, 46251, Note_on_c, 0, 74, 0
2, 46269, Note_on_c, 0, 70, 60
2, 46311, Note_on_c, 0, 70, 0
2, 46334, Note_on_c, 0, 58, 0
2, 46372, Note_on_c, 0, 71, 61
2, 46462, Note_on_c, 0, 71, 0
2, 46481, Note_on_c, 0, 68, 60
2, 46572, Note_on_c, 0, 68, 0
2, 46580, Note_on_c, 0, 65, 60
2, 46677, Note_on_c, 0, 51, 54
2, 46688, Note_on_c, 0, 66, 60
2, 46709, Note_on_c, 0, 65, 0
2, 46756, Note_on_c, 0, 51, 0
2, 46788, Note_on_c, 0, 53, 58
2, 46791, Note_on_c, 0, 66, 0
2, 46795, Note_on_c, 0, 68, 67
2, 46859, Note_on_c, 0, 53, 0
2, 46887, Note_on_c, 0, 68, 0
2, 46889, Note_on_c, 0, 70, 66
2, 46894, Note_on_c, 0, 54, 59
2, 46951, Note_on_c, 0, 54, 0
2, 46993, Note_on_c, 0, 53, 59
2, 47000, Note_on_c, 0, 68, 74
2, 47060, Note_on_c, 0, 70, 0
2, 47100, Note_on_c, 0, 53, 0
2, 47113, Note_on_c, 0, 66, 68
2, 47114, Note_on_c, 0, 51, 58
2, 47149, Note_on_c, 0, 68, 0
2, 47190, Note_on_c, 0, 51, 0
2, 47205, Note_on_c, 0, 50, 59
2, 47208, Note_on_c, 0, 66, 0
2, 47225, Note_on_c, 0, 65, 65
2, 47277, Note_on_c, 0, 50, 0
2, 47306, Note_on_c, 0, 65, 0
2, 47311, Note_on_c, 0, 48, 53
2, 47320, Note_on_c, 0, 63, 59
2, 47388, Note_on_c, 0, 63, 0
2, 47398, Note_on_c, 0, 48, 0
2, 47428, Note_on_c, 0, 46, 41
2, 47433, Note_on_c, 0, 53, 46
2, 47433, Note_on_c, 0, 62, 59
2, 47540, Note_on_c, 0, 62, 0
2, 47550, Note_on_c, 0, 65, 56
2, 47560, Note_on_c, 0, 46, 0
2, 47589, Note_on_c, 0, 53, 0
2, 47648, Note_on_c, 0, 65, 0
2, 47657, Note_on_c, 0, 66, 54
2, 47745, Note_on_c, 0, 66, 0
2, 47746, Note_on_c, 0, 68, 53
2, 47830, Note_on_c, 0, 68, 0
2, 47862, Note_on_c, 0, 58, 55
2, 47950, Note_on_c, 0, 58, 0
2, 47963, Note_on_c, 0, 60, 58
2, 48054, Note_on_c, 0, 60, 0
2, 48073, Note_on_c, 0, 62, 68
2, 48148, Note_on_c, 0, 62, 0
2, 48158, Note_on_c, 0, 63, 67
2, 48267, Note_on_c, 0, 65, 72
2, 48308, Note_on_c, 0, 63, 0
2, 48373, Note_on_c, 0, 66, 74
2, 48418, Note_on_c, 0, 65, 0
2, 48471, Note_on_c, 0, 66, 0
2, 48478, Note_on_c, 0, 68, 77
2, 48574, Note_on_c, 0, 70, 77
2, 48579, Control_c, 0, 67, 117
2, 48584, Note_on_c, 0, 68, 0
2, 48595, Control_c, 0, 67, 82
2, 48610, Control_c, 0, 67, 38
2, 48624, Control_c, 0, 67, 0
2, 48663, Note_on_c, 0, 70, 0
2, 48670, Note_on_c, 0, 72, 77
2, 48771, Note_on_c, 0, 72, 0
2, 48773, Note_on_c, 0, 74, 72
2, 48875, Note_on_c, 0, 75, 78
2, 48957, Note_on_c, 0, 74, 0
2, 48977, Note_on_c, 0, 77, 79
2, 49040, Note_on_c, 0, 75, 0
2, 49091, Note_on_c, 0, 77, 0
2, 49094, Note_on_c, 0, 78, 77
2, 49104, Note_on_c, 0, 51, 64
2, 49190, Note_on_c, 0, 75, 72
2, 49233, Note_on_c, 0, 78, 0
2, 49292, Note_on_c, 0, 51, 0
2, 49300, Note_on_c, 0, 70, 77
2, 49346, Note_on_c, 0, 75, 0
2, 49394, Note_on_c, 0, 66, 74
2, 49415, Note_on_c, 0, 70, 0
2, 49477, Note_on_c, 0, 66, 0
2, 49500, Note_on_c, 0, 63, 73
2, 49602, Note_on_c, 0, 61, 74
2, 49614, Note_on_c, 0, 63, 0
2, 49709, Note_on_c, 0, 60, 67
2, 49758, Note_on_c, 0, 61, 0
2, 49804, Note_on_c, 0, 58, 63
2, 49804, Note_on_c, 0, 60, 0
2, 49932, Note_on_c, 0, 60, 67
2, 49944, Note_on_c, 0, 58, 0
2, 49947, Note_on_c, 0, 56, 50
2, 50022, Note_on_c, 0, 60, 0
2, 50037, Note_on_c, 0, 63, 62
2, 50109, Note_on_c, 0, 63, 0
2, 50136, Note_on_c, 0, 68, 59
2, 50191, Note_on_c, 0, 56, 0
2, 50213, Note_on_c, 0, 68, 0
2, 50244, Note_on_c, 0, 72, 62
2, 50351, Note_on_c, 0, 75, 66
2, 50360, Note_on_c, 0, 72, 0
2, 50436, Note_on_c, 0, 78, 67
2, 50449, Note_on_c, 0, 75, 0
2, 50497, Control_c, 0, 67, 9
2, 50513, Control_c, 0, 67, 22
2, 50528, Control_c, 0, 67, 41
2, 50542, Control_c, 0, 67, 61
2, 50556, Note_on_c, 0, 76, 56
2, 50558, Control_c, 0, 67, 84
2, 50571, Note_on_c, 0, 78, 0
2, 50573, Control_c, 0, 67, 109
2, 50596, Control_c, 0, 67, 127
2, 50647, Note_on_c, 0, 75, 65
2, 50649, Note_on_c, 0, 76, 0
2, 50748, Note_on_c, 0, 75, 0
2, 50770, Note_on_c, 0, 76, 61
2, 50773, Note_on_c, 0, 56, 44
2, 50775, Note_on_c, 0, 49, 39
2, 50865, Note_on_c, 0, 76, 0
2, 50882, Note_on_c, 0, 73, 56
2, 50917, Note_on_c, 0, 49, 0
2, 50949, Note_on_c, 0, 56, 0
2, 50993, Note_on_c, 0, 68, 58
2, 51023, Note_on_c, 0, 73, 0
2, 51085, Note_on_c, 0, 68, 0
2, 51092, Note_on_c, 0, 64, 49
2, 51170, Note_on_c, 0, 64, 0
2, 51178, Note_on_c, 0, 61, 53
2, 51270, Note_on_c, 0, 61, 0
2, 51282, Note_on_c, 0, 59, 54
2, 51406, Note_on_c, 0, 58, 53
2, 51418, Note_on_c, 0, 59, 0
2, 51479, Note_on_c, 0, 58, 0
2, 51488, Note_on_c, 0, 56, 60
2, 51603, Note_on_c, 0, 56, 0
2, 51610, Note_on_c, 0, 58, 62
2, 51649, Note_on_c, 0, 54, 44
2, 51697, Note_on_c, 0, 58, 0
2, 51724, Note_on_c, 0, 61, 53
2, 51796, Note_on_c, 0, 61, 0
2, 51818, Note_on_c, 0, 66, 58
2, 51831, Note_on_c, 0, 54, 0
2, 51867, Note_on_c, 0, 66, 0
2, 51914, Note_on_c, 0, 70, 61
2, 52025, Note_on_c, 0, 73, 71
2, 52098, Note_on_c, 0, 70, 0
2, 52111, Note_on_c, 0, 76, 73
2, 52149, Note_on_c, 0, 73, 0
2, 52227, Note_on_c, 0, 75, 76
2, 52292, Note_on_c, 0, 76, 0
2, 52328, Note_on_c, 0, 73, 77
2, 52366, Note_on_c, 0, 75, 0
2, 52434, Note_on_c, 0, 47, 61
2, 52440, Note_on_c, 0, 73, 0
2, 52442, Note_on_c, 0, 54, 59
2, 52444, Note_on_c, 0, 75, 78
2, 52542, Note_on_c, 0, 71, 73
2, 52555, Note_on_c, 0, 75, 0
2, 52616, Control_c, 0, 67, 123
2, 52616, Note_on_c, 0, 47, 0
2, 52631, Control_c, 0, 67, 115
2, 52644, Note_on_c, 0, 54, 0
2, 52647, Control_c, 0, 67, 103
2, 52648, Note_on_c, 0, 66, 74
2, 52662, Control_c, 0, 67, 91
2, 52678, Control_c, 0, 67, 77
2, 52681, Note_on_c, 0, 71, 0
2, 52693, Control_c, 0, 67, 63
2, 52707, Control_c, 0, 67, 48
2, 52723, Control_c, 0, 67, 32
2, 52738, Control_c, 0, 67, 19
2, 52750, Note_on_c, 0, 63, 78
2, 52754, Control_c, 0, 67, 0
2, 52766, Note_on_c, 0, 66, 0
2, 52843, Note_on_c, 0, 63, 0
2, 52860, Note_on_c, 0, 59, 77
2, 52965, Note_on_c, 0, 57, 77
2, 52985, Note_on_c, 0, 59, 0
2, 53068, Note_on_c, 0, 56, 83
2, 53081, Note_on_c, 0, 57, 0
2, 53163, Note_on_c, 0, 54, 83
2, 53186, Note_on_c, 0, 56, 0
2, 53276, Note_on_c, 0, 56, 79
2, 53286, Note_on_c, 0, 53, 69
2, 53307, Note_on_c, 0, 54, 0
2, 53341, Note_on_c, 0, 56, 0
2, 53383, Note_on_c, 0, 59, 74
2, 53461, Note_on_c, 0, 59, 0
2, 53485, Note_on_c, 0, 62, 79
2, 53545, Note_on_c, 0, 53, 0
2, 53577, Note_on_c, 0, 62, 0
2, 53589, Note_on_c, 0, 65, 77
2, 53707, Note_on_c, 0, 68, 79
2, 53754, Note_on_c, 0, 65, 0
2, 53803, Note_on_c, 0, 71, 75
2, 53828, Note_on_c, 0, 68, 0
2, 53905, Note_on_c, 0, 70, 81
2, 53949, Note_on_c, 0, 71, 0
2, 54013, Note_on_c, 0, 68, 79
2, 54035, Note_on_c, 0, 70, 0
2, 54119, Note_on_c, 0, 54, 81
2, 54125, Note_on_c, 0, 70, 79
2, 54136, Note_on_c, 0, 68, 0
2, 54226, Note_on_c, 0, 63, 74
2, 54231, Note_on_c, 0, 70, 0
2, 54338, Note_on_c, 0, 42, 74
2, 54342, Note_on_c, 0, 64, 69
2, 54343, Note_on_c, 0, 54, 0
2, 54345, Note_on_c, 0, 63, 0
2, 54440, Note_on_c, 0, 73, 69
2, 54443, Note_on_c, 0, 42, 0
2, 54445, Note_on_c, 0, 64, 0
2, 54548, Note_on_c, 0, 73, 0
2, 54568, Note_on_c, 0, 46, 68
2, 54568, Note_on_c, 0, 70, 65
2, 54626, Note_on_c, 0, 46, 0
2, 54661, Note_on_c, 0, 70, 0
2, 54665, Note_on_c, 0, 73, 62
2, 54768, Note_on_c, 0, 73, 0
2, 54783, Note_on_c, 0, 49, 64
2, 54790, Note_on_c, 0, 64, 64
2, 54839, Note_on_c, 0, 49, 0
2, 54878, Note_on_c, 0, 64, 0
2, 54888, Note_on_c, 0, 73, 60
2, 54991, Note_on_c, 0, 54, 71
2, 55009, Note_on_c, 0, 70, 64
2, 55024, Note_on_c, 0, 73, 0
2, 55068, Note_on_c, 0, 54, 0
2, 55105, Note_on_c, 0, 63, 68
2, 55120, Note_on_c, 0, 70, 0
2, 55215, Note_on_c, 0, 63, 0
2, 55220, Note_on_c, 0, 58, 72
2, 55220, Note_on_c, 0, 64, 65
2, 55260, Note_on_c, 0, 58, 0
2, 55303, Note_on_c, 0, 73, 70
2, 55322, Note_on_c, 0, 64, 0
2, 55413, Note_on_c, 0, 61, 77
2, 55424, Note_on_c, 0, 73, 0
2, 55426, Note_on_c, 0, 70, 70
2, 55487, Note_on_c, 0, 61, 0
2, 55525, Note_on_c, 0, 73, 78
2, 55562, Note_on_c, 0, 70, 0
2, 55623, Note_on_c, 0, 58, 79
2, 55637, Note_on_c, 0, 73, 0
2, 55638, Note_on_c, 0, 64, 72
2, 55655, Note_on_c, 0, 58, 0
2, 55711, Note_on_c, 0, 73, 64
2, 55762, Note_on_c, 0, 64, 0
2, 55835, Note_on_c, 0, 59, 84
2, 55836, Note_on_c, 0, 73, 0
2, 55844, Note_on_c, 0, 66, 71
2, 55936, Note_on_c, 0, 59, 0
2, 55942, Note_on_c, 0, 66, 0
2, 55948, Note_on_c, 0, 61, 78
2, 56050, Note_on_c, 0, 61, 0
2, 56054, Note_on_c, 0, 62, 73
2, 56060, Note_on_c, 0, 54, 87
2, 56082, Note_on_c, 0, 62, 0
2, 56138, Note_on_c, 0, 54, 0
2, 56170, Note_on_c, 0, 73, 78
2, 56270, Note_on_c, 0, 50, 85
2, 56281, Note_on_c, 0, 66, 73
2, 56289, Note_on_c, 0, 73, 0
2, 56331, Note_on_c, 0, 50, 0
2, 56332, Note_on_c, 0, 65, 55
2, 56373, Note_on_c, 0, 65, 0
2, 56377, Note_on_c, 0, 66, 0
2, 56392, Note_on_c, 0, 73, 80
2, 56488, Note_on_c, 0, 54, 91
2, 56492, Note_on_c, 0, 62, 79
2, 56492, Note_on_c, 0, 73, 0
2, 56542, Note_on_c, 0, 54, 0
2, 56580, Note_on_c, 0, 73, 78
2, 56587, Note_on_c, 0, 62, 0
2, 56691, Note_on_c, 0, 66, 73
2, 56701, Note_on_c, 0, 50, 91
2, 56714, Note_on_c, 0, 73, 0
2, 56810, Note_on_c, 0, 61, 81
2, 56815, Note_on_c, 0, 66, 0
2, 56860, Note_on_c, 0, 50, 0
2, 56872, Note_on_c, 0, 61, 0
2, 56918, Note_on_c, 0, 47, 86
2, 56929, Note_on_c, 0, 62, 81
2, 56989, Note_on_c, 0, 62, 0
2, 57011, Note_on_c, 0, 47, 0
2, 57040, Note_on_c, 0, 71, 74
2, 57136, Note_on_c, 0, 50, 92
2, 57146, Note_on_c, 0, 66, 87
2, 57152, Note_on_c, 0, 71, 0
2, 57164, Note_on_c, 0, 50, 0
2, 57235, Note_on_c, 0, 71, 86
2, 57252, Note_on_c, 0, 66, 0
2, 57340, Note_on_c, 0, 54, 94
2, 57346, Note_on_c, 0, 62, 74
2, 57355, Note_on_c, 0, 71, 0
2, 57365, Note_on_c, 0, 54, 0
2, 57457, Note_on_c, 0, 71, 81
2, 57458, Note_on_c, 0, 62, 0
2, 57492, Note_on_c, 0, 71, 0
2, 57580, Note_on_c, 0, 42, 78
2, 57605, Note_on_c, 0, 62, 67
2, 57625, Note_on_c, 0, 64, 46
2, 57653, Note_on_c, 0, 64, 0
2, 57715, Note_on_c, 0, 62, 0
2, 57729, Note_on_c, 0, 58, 63
2, 57743, Note_on_c, 0, 42, 0
2, 57830, Note_on_c, 0, 58, 0
2, 57833, Note_on_c, 0, 59, 71
2, 57836, Note_on_c, 0, 56, 74
2, 57850, Note_on_c, 0, 42, 68
2, 57866, Note_on_c, 0, 56, 0
2, 57888, Note_on_c, 0, 42, 0
2, 57924, Note_on_c, 0, 59, 0
2, 57939, Note_on_c, 0, 65, 68
2, 58037, Note_on_c, 0, 65, 0
2, 58046, Note_on_c, 0, 62, 71
2, 58050, Note_on_c, 0, 56, 76
2, 58059, Note_on_c, 0, 42, 70
2, 58075, Note_on_c, 0, 56, 0
2, 58093, Note_on_c, 0, 42, 0
2, 58138, Note_on_c, 0, 65, 76
2, 58141, Note_on_c, 0, 62, 0
2, 58249, Note_on_c, 0, 56, 77
2, 58255, Note_on_c, 0, 59, 80
2, 58259, Note_on_c, 0, 42, 74
2, 58276, Note_on_c, 0, 65, 0
2, 58282, Note_on_c, 0, 56, 0
2, 58300, Note_on_c, 0, 42, 0
2, 58352, Note_on_c, 0, 59, 0
2, 58355, Note_on_c, 0, 65, 73
2, 58469, Note_on_c, 0, 56, 89
2, 58475, Note_on_c, 0, 62, 78
2, 58477, Note_on_c, 0, 42, 88
2, 58490, Note_on_c, 0, 65, 0
2, 58578, Note_on_c, 0, 56, 0
2, 58589, Note_on_c, 0, 42, 0
2, 58597, Note_on_c, 0, 58, 77
2, 58631, Note_on_c, 0, 62, 0
2, 58696, Note_on_c, 0, 56, 83
2, 58703, Note_on_c, 0, 59, 78
2, 58705, Note_on_c, 0, 42, 78
2, 58720, Note_on_c, 0, 58, 0
2, 58726, Note_on_c, 0, 56, 0
2, 58741, Note_on_c, 0, 42, 0
2, 58795, Note_on_c, 0, 65, 78
2, 58798, Note_on_c, 0, 59, 0
2, 58915, Note_on_c, 0, 62, 81
2, 58916, Note_on_c, 0, 65, 0
2, 58919, Note_on_c, 0, 56, 87
2, 58925, Note_on_c, 0, 42, 83
2, 58944, Note_on_c, 0, 56, 0
2, 58960, Note_on_c, 0, 42, 0
2, 59014, Note_on_c, 0, 65, 80
2, 59017, Note_on_c, 0, 62, 0
2, 59138, Note_on_c, 0, 56, 85
2, 59144, Note_on_c, 0, 59, 86
2, 59153, Note_on_c, 0, 42, 69
2, 59156, Note_on_c, 0, 65, 0
2, 59197, Note_on_c, 0, 56, 0
2, 59229, Note_on_c, 0, 42, 0
2, 59254, Note_on_c, 0, 65, 78
2, 59261, Note_on_c, 0, 59, 0
2, 59373, Note_on_c, 0, 42, 76
2, 59373, Note_on_c, 0, 54, 83
2, 59386, Note_on_c, 0, 62, 74
2, 59406, Note_on_c, 0, 65, 0
2, 59504, Note_on_c, 0, 58, 79
2, 59586, Note_on_c, 0, 62, 0
2, 59608, Note_on_c, 0, 59, 84
2, 59628, Note_on_c, 0, 58, 0
2, 59698, Note_on_c, 0, 59, 0
2, 59713, Note_on_c, 0, 66, 78
2, 59826, Note_on_c, 0, 61, 74
2, 59827, Note_on_c, 0, 58, 63
2, 59850, Note_on_c, 0, 66, 0
2, 59921, Note_on_c, 0, 66, 69
2, 59927, Note_on_c, 0, 58, 0
2, 59939, Note_on_c, 0, 54, 0
2, 59944, Note_on_c, 0, 61, 0
2, 60041, Note_on_c, 0, 59, 67
2, 60049, Note_on_c, 0, 56, 58
2, 60056, Note_on_c, 0, 66, 0
2, 60150, Note_on_c, 0, 59, 0
2, 60151, Note_on_c, 0, 65, 68
2, 60166, Note_on_c, 0, 56, 0
2, 60263, Note_on_c, 0, 61, 56
2, 60272, Note_on_c, 0, 58, 54
2, 60277, Note_on_c, 0, 66, 61
2, 60291, Note_on_c, 0, 65, 0
2, 60344, Note_on_c, 0, 44, 55
2, 60443, Note_on_c, 0, 42, 0
2, 60459, Note_on_c, 0, 46, 63
2, 60465, Note_on_c, 0, 44, 0
2, 60486, Note_on_c, 0, 58, 0
2, 60544, Note_on_c, 0, 66, 0
2, 60546, Note_on_c, 0, 46, 0
2, 60577, Note_on_c, 0, 61, 0
2, 60578, Note_on_c, 0, 47, 61
2, 60668, Note_on_c, 0, 47, 0
2, 60672, Note_on_c, 0, 49, 67
2, 60787, Note_on_c, 0, 51, 69
2, 60789, Note_on_c, 0, 49, 0
2, 60874, Note_on_c, 0, 51, 0
2, 60890, Note_on_c, 0, 52, 64
2, 60980, Note_on_c, 0, 52, 0
2, 60985, Note_on_c, 0, 49, 62
2, 61088, Note_on_c, 0, 51, 69
2, 61092, Note_on_c, 0, 49, 0
2, 61173, Note_on_c, 0, 51, 0
2, 61178, Note_on_c, 0, 71, 66
2, 61191, Note_on_c, 0, 47, 59
2, 61281, Note_on_c, 0, 47, 0
2, 61294, Note_on_c, 0, 49, 62
2, 61294, Note_on_c, 0, 70, 71
2, 61295, Note_on_c, 0, 71, 0
2, 61387, Note_on_c, 0, 49, 0
2, 61404, Note_on_c, 0, 51, 68
2, 61407, Note_on_c, 0, 68, 77
2, 61444, Note_on_c, 0, 70, 0
2, 61471, Note_on_c, 0, 51, 0
2, 61513, Note_on_c, 0, 66, 79
2, 61518, Note_on_c, 0, 52, 65
2, 61547, Note_on_c, 0, 68, 0
2, 61606, Note_on_c, 0, 64, 76
2, 61609, Note_on_c, 0, 66, 0
2, 61613, Note_on_c, 0, 52, 0
2, 61620, Note_on_c, 0, 54, 74
2, 61706, Note_on_c, 0, 63, 84
2, 61711, Note_on_c, 0, 64, 0
2, 61716, Note_on_c, 0, 56, 72
2, 61719, Note_on_c, 0, 54, 0
2, 61811, Note_on_c, 0, 56, 0
2, 61811, Note_on_c, 0, 61, 82
2, 61818, Note_on_c, 0, 58, 71
2, 61822, Note_on_c, 0, 63, 0
2, 61911, Note_on_c, 0, 63, 83
2, 61914, Note_on_c, 0, 58, 0
2, 61917, Note_on_c, 0, 61, 0
2, 61925, Note_on_c, 0, 59, 83
2, 61933, Note_on_c, 0, 63, 0
2, 62015, Note_on_c, 0, 71, 86
2, 62055, Note_on_c, 0, 59, 0
2, 62125, Note_on_c, 0, 71, 0
2, 62126, Note_on_c, 0, 73, 85
2, 62215, Note_on_c, 0, 75, 83
2, 62225, Note_on_c, 0, 73, 0
2, 62290, Note_on_c, 0, 75, 0
2, 62326, Note_on_c, 0, 76, 79
2, 62339, Note_on_c, 0, 63, 56
2, 62370, Note_on_c, 0, 63, 0
2, 62397, Note_on_c, 0, 61, 57
2, 62419, Note_on_c, 0, 76, 0
2, 62427, Note_on_c, 0, 78, 74
2, 62433, Note_on_c, 0, 61, 0
2, 62441, Note_on_c, 0, 63, 63
2, 62504, Note_on_c, 0, 61, 73
2, 62523, Note_on_c, 0, 78, 0
2, 62523, Note_on_c, 0, 80, 83
2, 62530, Note_on_c, 0, 63, 0
2, 62599, Note_on_c, 0, 61, 0
2, 62602, Note_on_c, 0, 59, 69
2, 62615, Note_on_c, 0, 82, 79
2, 62652, Note_on_c, 0, 61, 67
2, 62665, Note_on_c, 0, 59, 0
2, 62693, Note_on_c, 0, 80, 0
2, 62729, Note_on_c, 0, 83, 85
2, 62740, Note_on_c, 0, 63, 83
2, 62743, Note_on_c, 0, 61, 0
2, 62767, Note_on_c, 0, 82, 0
2, 62844, Note_on_c, 0, 78, 84
2, 62884, Note_on_c, 0, 83, 0
2, 62927, Note_on_c, 0, 63, 0
2, 62963, Note_on_c, 0, 75, 88
2, 63018, Note_on_c, 0, 78, 0
2, 63050, Note_on_c, 0, 71, 82
2, 63068, Note_on_c, 0, 75, 0
2, 63137, Note_on_c, 0, 66, 72
2, 63178, Note_on_c, 0, 73, 80
2, 63187, Note_on_c, 0, 71, 0
2, 63207, Note_on_c, 0, 65, 71
2, 63225, Note_on_c, 0, 66, 0
2, 63236, Note_on_c, 0, 73, 0
2, 63267, Note_on_c, 0, 65, 0
2, 63267, Note_on_c, 0, 66, 54
2, 63270, Note_on_c, 0, 83, 76
2, 63271, Note_on_c, 0, 63, 75
2, 63361, Note_on_c, 0, 81, 76
2, 63367, Note_on_c, 0, 63, 0
2, 63388, Note_on_c, 0, 83, 0
2, 63389, Note_on_c, 0, 66, 0
2, 63390, Note_on_c, 0, 65, 75
2, 63449, Note_on_c, 0, 80, 84
2, 63481, Note_on_c, 0, 81, 0
2, 63558, Note_on_c, 0, 65, 0
2, 63571, Note_on_c, 0, 66, 68
2, 63575, Note_on_c, 0, 81, 83
2, 63604, Note_on_c, 0, 80, 0
2, 63638, Note_on_c, 0, 66, 0
2, 63663, Note_on_c, 0, 81, 0
2, 63689, Note_on_c, 0, 64, 69
2, 63785, Note_on_c, 0, 64, 0
2, 63798, Note_on_c, 0, 63, 73
2, 63801, Note_on_c, 0, 78, 89
2, 63858, Note_on_c, 0, 78, 0
2, 63907, Note_on_c, 0, 61, 77
2, 63916, Note_on_c, 0, 63, 0
2, 63992, Note_on_c, 0, 61, 0
2, 64012, Note_on_c, 0, 75, 91
2, 64015, Note_on_c, 0, 59, 81
2, 64070, Note_on_c, 0, 75, 0
2, 64103, Note_on_c, 0, 57, 83
2, 64105, Note_on_c, 0, 59, 0
2, 64208, Note_on_c, 0, 57, 0
2, 64212, Note_on_c, 0, 56, 78
2, 64219, Note_on_c, 0, 81, 80
2, 64289, Note_on_c, 0, 81, 0
2, 64301, Note_on_c, 0, 56, 0
2, 64314, Note_on_c, 0, 54, 75
2, 64446, Note_on_c, 0, 52, 70
2, 64446, Note_on_c, 0, 54, 0
2, 64450, Note_on_c, 0, 80, 78
2, 64519, Note_on_c, 0, 52, 0
2, 64549, Note_on_c, 0, 76, 79
2, 64586, Note_on_c, 0, 80, 0
2, 64637, Note_on_c, 0, 76, 0
2, 64653, Note_on_c, 0, 63, 74
2, 64660, Note_on_c, 0, 71, 76
2, 64711, Note_on_c, 0, 63, 0
2, 64748, Note_on_c, 0, 68, 85
2, 64751, Note_on_c, 0, 71, 0
2, 64813, Note_on_c, 0, 68, 0
2, 64862, Note_on_c, 0, 70, 78
2, 64867, Note_on_c, 0, 61, 82
2, 64940, Note_on_c, 0, 61, 0
2, 64959, Note_on_c, 0, 80, 80
2, 64974, Note_on_c, 0, 70, 0
2, 65065, Note_on_c, 0, 58, 82
2, 65068, Note_on_c, 0, 78, 87
2, 65087, Note_on_c, 0, 58, 0
2, 65125, Note_on_c, 0, 80, 0
2, 65166, Note_on_c, 0, 76, 79
2, 65207, Note_on_c, 0, 78, 0
2, 65288, Note_on_c, 0, 78, 87
2, 65304, Note_on_c, 0, 63, 74
2, 65315, Note_on_c, 0, 76, 0
2, 65365, Note_on_c, 0, 78, 0
2, 65402, Note_on_c, 0, 61, 80
2, 65413, Note_on_c, 0, 63, 0
2, 65463, Note_on_c, 0, 61, 0
2, 65507, Note_on_c, 0, 60, 79
2, 65511, Note_on_c, 0, 75, 88
2, 65595, Note_on_c, 0, 75, 0
2, 65604, Note_on_c, 0, 58, 83
2, 65614, Note_on_c, 0, 60, 0
2, 65714, Note_on_c, 0, 56, 83
2, 65724, Note_on_c, 0, 72, 84
2, 65730, Note_on_c, 0, 58, 0
2, 65817, Note_on_c, 0, 54, 75
2, 65822, Note_on_c, 0, 72, 0
2, 65831, Note_on_c, 0, 56, 0
2, 65892, Note_on_c, 0, 54, 0
2, 65905, Note_on_c, 0, 78, 86
2, 65916, Note_on_c, 0, 52, 77
2, 65970, Note_on_c, 0, 78, 0
2, 66020, Note_on_c, 0, 51, 80
2, 66028, Note_on_c, 0, 52, 0
2, 66125, Note_on_c, 0, 49, 75
2, 66137, Note_on_c, 0, 76, 83
2, 66139, Note_on_c, 0, 51, 0
2, 66178, Note_on_c, 0, 49, 0
2, 66243, Note_on_c, 0, 73, 84
2, 66288, Note_on_c, 0, 76, 0
2, 66340, Note_on_c, 0, 59, 79
2, 66350, Note_on_c, 0, 68, 83
2, 66385, Note_on_c, 0, 73, 0
2, 66388, Note_on_c, 0, 59, 0
2, 66456, Note_on_c, 0, 64, 78
2, 66458, Note_on_c, 0, 68, 0
2, 66552, Note_on_c, 0, 58, 81
2, 66565, Note_on_c, 0, 66, 80
2, 66571, Note_on_c, 0, 64, 0
2, 66595, Note_on_c, 0, 58, 0
2, 66624, Note_on_c, 0, 66, 0
2, 66664, Note_on_c, 0, 76, 83
2, 66770, Note_on_c, 0, 54, 76
2, 66779, Note_on_c, 0, 75, 82
2, 66799, Note_on_c, 0, 54, 0
2, 66811, Note_on_c, 0, 76, 0
2, 66879, Note_on_c, 0, 73, 79
2, 66906, Note_on_c, 0, 75, 0
2, 66985, Note_on_c, 0, 47, 67
2, 66985, Note_on_c, 0, 75, 79
2, 67007, Note_on_c, 0, 73, 0
2, 67023, Note_on_c, 0, 47, 0
2, 67058, Note_on_c, 0, 75, 0
2, 67072, Note_on_c, 0, 71, 76
2, 67185, Note_on_c, 0, 70, 77
2, 67188, Note_on_c, 0, 51, 81
2, 67205, Note_on_c, 0, 71, 0
2, 67264, Note_on_c, 0, 51, 0
2, 67286, Note_on_c, 0, 68, 77
2, 67303, Note_on_c, 0, 70, 0
2, 67399, Note_on_c, 0, 53, 79
2, 67404, Note_on_c, 0, 70, 80
2, 67408, Note_on_c, 0, 68, 0
2, 67454, Note_on_c, 0, 53, 0
2, 67512, Note_on_c, 0, 68, 82
2, 67537, Note_on_c, 0, 70, 0
2, 67619, Note_on_c, 0, 56, 81
2, 67628, Note_on_c, 0, 66, 82
2, 67670, Note_on_c, 0, 56, 0
2, 67679, Note_on_c, 0, 68, 0
2, 67723, Note_on_c, 0, 65, 81
2, 67748, Note_on_c, 0, 66, 0
2, 67835, Note_on_c, 0, 73, 85
2, 67837, Note_on_c, 0, 46, 71
2, 67863, Note_on_c, 0, 65, 0
2, 67921, Note_on_c, 0, 46, 0
2, 67939, Note_on_c, 0, 70, 79
2, 67983, Note_on_c, 0, 73, 0
2, 68037, Note_on_c, 0, 68, 80
2, 68042, Note_on_c, 0, 49, 71
2, 68066, Note_on_c, 0, 70, 0
2, 68087, Note_on_c, 0, 49, 0
2, 68130, Note_on_c, 0, 66, 73
2, 68156, Note_on_c, 0, 68, 0
2, 68242, Note_on_c, 0, 66, 0
2, 68261, Note_on_c, 0, 68, 78
2, 68267, Note_on_c, 0, 51, 74
2, 68308, Note_on_c, 0, 51, 0
2, 68359, Note_on_c, 0, 66, 71
2, 68363, Note_on_c, 0, 68, 0
2, 68461, Note_on_c, 0, 66, 0
2, 68482, Note_on_c, 0, 65, 70
2, 68485, Note_on_c, 0, 54, 62
2, 68518, Note_on_c, 0, 54, 0
2, 68564, Note_on_c, 0, 65, 0
2, 68581, Note_on_c, 0, 63, 61
2, 68681, Note_on_c, 0, 63, 0
2, 68685, Note_on_c, 0, 44, 54
2, 68692, Note_on_c, 0, 71, 62
2, 68742, Note_on_c, 0, 44, 0
2, 68798, Note_on_c, 0, 71, 0
2, 68802, Note_on_c, 0, 68, 66
2, 68891, Note_on_c, 0, 47, 44
2, 68900, Note_on_c, 0, 66, 61
2, 68923, Note_on_c, 0, 68, 0
2, 68940, Note_on_c, 0, 47, 0
2, 69001, Note_on_c, 0, 66, 0
2, 69010, Note_on_c, 0, 65, 57
2, 69108, Note_on_c, 0, 49, 54
2, 69114, Note_on_c, 0, 65, 0
2, 69139, Note_on_c, 0, 66, 59
2, 69164, Note_on_c, 0, 49, 0
2, 69222, Note_on_c, 0, 66, 0
2, 69237, Note_on_c, 0, 65, 60
2, 69330, Note_on_c, 0, 53, 60
2, 69338, Note_on_c, 0, 65, 0
2, 69345, Note_on_c, 0, 63, 64
2, 69381, Note_on_c, 0, 53, 0
2, 69442, Note_on_c, 0, 61, 62
2, 69448, Note_on_c, 0, 63, 0
2, 69530, Note_on_c, 0, 61, 0
2, 69551, Note_on_c, 0, 42, 57
2, 69561, Note_on_c, 0, 70, 66
2, 69653, Note_on_c, 0, 42, 0
2, 69660, Note_on_c, 0, 44, 65
2, 69667, Note_on_c, 0, 68, 69
2, 69723, Note_on_c, 0, 70, 0
2, 69741, Note_on_c, 0, 44, 0
2, 69766, Note_on_c, 0, 46, 68
2, 69771, Note_on_c, 0, 68, 0
2, 69772, Note_on_c, 0, 66, 71
2, 69848, Note_on_c, 0, 46, 0
2, 69875, Note_on_c, 0, 47, 69
2, 69875, Note_on_c, 0, 68, 74
2, 69883, Note_on_c, 0, 66, 0
2, 69984, Note_on_c, 0, 49, 74
2, 69984, Note_on_c, 0, 70, 79
2, 69987, Note_on_c, 0, 47, 0
2, 69999, Note_on_c, 0, 68, 0
2, 70056, Note_on_c, 0, 70, 0
2, 70079, Note_on_c, 0, 51, 82
2, 70104, Note_on_c, 0, 49, 0
2, 70191, Note_on_c, 0, 52, 80
2, 70193, Note_on_c, 0, 61, 79
2, 70195, Note_on_c, 0, 51, 0
2, 70264, Note_on_c, 0, 61, 0
2, 70288, Note_on_c, 0, 52, 0
2, 70291, Note_on_c, 0, 49, 79
2, 70401, Note_on_c, 0, 51, 91
2, 70405, Note_on_c, 0, 59, 76
2, 70425, Note_on_c, 0, 49, 0
2, 70459, Note_on_c, 0, 51, 0
2, 70502, Note_on_c, 0, 61, 76
2, 70518, Note_on_c, 0, 59, 0
2, 70622, Note_on_c, 0, 63, 69
2, 70623, Note_on_c, 0, 61, 0
2, 70625, Note_on_c, 0, 54, 83
2, 70690, Note_on_c, 0, 54, 0
2, 70692, Note_on_c, 0, 63, 0
2, 70722, Note_on_c, 0, 64, 78
2, 70843, Note_on_c, 0, 51, 90
2, 70845, Note_on_c, 0, 66, 79
2, 70878, Note_on_c, 0, 64, 0
2, 70893, Note_on_c, 0, 51, 0
2, 70934, Note_on_c, 0, 68, 85
2, 70967, Note_on_c, 0, 66, 0
2, 71037, Note_on_c, 0, 69, 86
2, 71041, Note_on_c, 0, 47, 97
2, 71050, Note_on_c, 0, 68, 0
2, 71065, Note_on_c, 0, 47, 0
2, 71138, Note_on_c, 0, 66, 85
2, 71164, Note_on_c, 0, 69, 0
2, 71246, Note_on_c, 0, 52, 103
2, 71247, Note_on_c, 0, 68, 88
2, 71270, Note_on_c, 0, 66, 0
2, 71286, Note_on_c, 0, 52, 0
2, 71352, Note_on_c, 0, 69, 83
2, 71372, Note_on_c, 0, 68, 0
2, 71449, Note_on_c, 0, 40, 90
2, 71460, Note_on_c, 0, 68, 88
2, 71476, Note_on_c, 0, 40, 0
2, 71494, Note_on_c, 0, 69, 0
2, 71559, Note_on_c, 0, 66, 79
2, 71602, Note_on_c, 0, 68, 0
2, 71657, Note_on_c, 0, 52, 74
2, 71660, Note_on_c, 0, 66, 0
2, 71661, Note_on_c, 0, 64, 81
2, 71685, Note_on_c, 0, 51, 80
2, 71686, Note_on_c, 0, 52, 0
2, 71752, Note_on_c, 0, 51, 0
2, 71754, Note_on_c, 0, 64, 0
2, 71762, Note_on_c, 0, 63, 73
2, 71863, Note_on_c, 0, 61, 70
2, 71885, Note_on_c, 0, 63, 0
2, 71964, Note_on_c, 0, 61, 0
2, 71975, Note_on_c, 0, 59, 70
2, 72081, Note_on_c, 0, 58, 73
2, 72096, Note_on_c, 0, 59, 0
2, 72182, Note_on_c, 0, 66, 68
2, 72229, Note_on_c, 0, 58, 0
2, 72294, Note_on_c, 0, 59, 72
2, 72295, Note_on_c, 0, 51, 83
2, 72313, Note_on_c, 0, 66, 0
2, 72384, Note_on_c, 0, 51, 0
2, 72384, Note_on_c, 0, 66, 58
2, 72398, Note_on_c, 0, 59, 0
2, 72500, Note_on_c, 0, 64, 69
2, 72512, Note_on_c, 0, 49, 74
2, 72546, Note_on_c, 0, 66, 0
2, 72581, Note_on_c, 0, 49, 0
2, 72612, Note_on_c, 0, 59, 67
2, 72612, Note_on_c, 0, 64, 0
2, 72714, Note_on_c, 0, 58, 65
2, 72722, Note_on_c, 0, 54, 80
2, 72768, Note_on_c, 0, 59, 0
2, 72793, Note_on_c, 0, 54, 0
2, 72812, Note_on_c, 0, 58, 0
2, 72817, Note_on_c, 0, 64, 64
2, 72946, Note_on_c, 0, 47, 77
2, 72949, Note_on_c, 0, 63, 73
2, 72998, Note_on_c, 0, 64, 0
2, 73025, Note_on_c, 0, 47, 0
2, 73050, Note_on_c, 0, 61, 73
2, 73089, Note_on_c, 0, 63, 0
2, 73153, Note_on_c, 0, 61, 0
2, 73171, Note_on_c, 0, 59, 75
2, 73176, Note_on_c, 0, 49, 75
2, 73237, Note_on_c, 0, 49, 0
2, 73272, Note_on_c, 0, 59, 0
2, 73273, Note_on_c, 0, 58, 71
2, 73339, Note_on_c, 0, 58, 0
2, 73377, Note_on_c, 0, 51, 85
2, 73379, Note_on_c, 0, 59, 72
2, 73408, Note_on_c, 0, 51, 0
2, 73497, Note_on_c, 0, 59, 0
2, 73498, Note_on_c, 0, 63, 64
2, 73595, Note_on_c, 0, 47, 71
2, 73603, Note_on_c, 0, 66, 70
2, 73625, Note_on_c, 0, 63, 0
2, 73672, Note_on_c, 0, 47, 0
2, 73706, Note_on_c, 0, 66, 0
2, 73713, Note_on_c, 0, 57, 61
2, 73826, Note_on_c, 0, 56, 65
2, 73834, Note_on_c, 0, 40, 69
2, 73835, Note_on_c, 0, 57, 0
2, 73934, Note_on_c, 0, 56, 0
2, 73941, Note_on_c, 0, 66, 67
2, 73946, Note_on_c, 0, 40, 0
2, 74051, Note_on_c, 0, 44, 81
2, 74064, Note_on_c, 0, 64, 69
2, 74112, Note_on_c, 0, 66, 0
2, 74123, Note_on_c, 0, 44, 0
2, 74160, Note_on_c, 0, 63, 78
2, 74203, Note_on_c, 0, 64, 0
2, 74261, Note_on_c, 0, 40, 83
2, 74267, Note_on_c, 0, 61, 86
2, 74295, Note_on_c, 0, 63, 0
2, 74313, Note_on_c, 0, 40, 0
2, 74374, Note_on_c, 0, 63, 87
2, 74408, Note_on_c, 0, 61, 0
2, 74469, Note_on_c, 0, 37, 86
2, 74480, Note_on_c, 0, 64, 84
2, 74498, Note_on_c, 0, 63, 0
2, 74520, Note_on_c, 0, 37, 0
2, 74580, Note_on_c, 0, 59, 82
2, 74592, Note_on_c, 0, 64, 0
2, 74698, Note_on_c, 0, 58, 76
2, 74698, Note_on_c, 0, 59, 0
2, 74699, Note_on_c, 0, 42, 89
2, 74761, Note_on_c, 0, 42, 0
2, 74785, Note_on_c, 0, 58, 0
2, 74792, Note_on_c, 0, 59, 79
2, 74907, Note_on_c, 0, 61, 82
2, 74916, Note_on_c, 0, 44, 88
2, 74916, Note_on_c, 0, 59, 0
2, 75001, Note_on_c, 0, 44, 0
2, 75014, Note_on_c, 0, 56, 83
2, 75032, Note_on_c, 0, 61, 0
2, 75125, Note_on_c, 0, 46, 87
2, 75133, Note_on_c, 0, 54, 85
2, 75184, Note_on_c, 0, 56, 0
2, 75204, Note_on_c, 0, 46, 0
2, 75239, Note_on_c, 0, 52, 82
2, 75251, Note_on_c, 0, 54, 0
2, 75339, Note_on_c, 0, 42, 91
2, 75346, Note_on_c, 0, 51, 87
2, 75371, Note_on_c, 0, 52, 0
2, 75372, Note_on_c, 0, 42, 0
2, 75442, Note_on_c, 0, 51, 0
2, 75448, Note_on_c, 0, 49, 82
2, 75512, Note_on_c, 0, 49, 0
2, 75551, Note_on_c, 0, 47, 86
2, 75562, Note_on_c, 0, 51, 88
2, 75638, Note_on_c, 0, 47, 0
2, 75668, Note_on_c, 0, 54, 80
2, 75675, Note_on_c, 0, 51, 0
2, 75778, Note_on_c, 0, 59, 93
2, 75781, Note_on_c, 0, 44, 88
2, 75783, Note_on_c, 0, 54, 0
2, 75836, Note_on_c, 0, 44, 0
2, 75867, Note_on_c, 0, 59, 0
2, 75887, Note_on_c, 0, 51, 75
2, 75992, Note_on_c, 0, 40, 85
2, 76010, Note_on_c, 0, 49, 72
2, 76014, Note_on_c, 0, 51, 0
2, 76062, Note_on_c, 0, 40, 0
2, 76076, Note_on_c, 0, 49, 0
2, 76118, Note_on_c, 0, 59, 91
2, 76247, Note_on_c, 0, 42, 86
2, 76266, Note_on_c, 0, 52, 58
2, 76267, Note_on_c, 0, 42, 0
2, 76379, Note_on_c, 0, 58, 85
2, 76387, Note_on_c, 0, 59, 0
2, 76399, Note_on_c, 0, 52, 0
2, 76625, Note_on_c, 0, 35, 54
2, 76625, Note_on_c, 0, 47, 57
2, 76625, Note_on_c, 0, 51, 63
2, 76627, Note_on_c, 0, 54, 58
2, 76627, Note_on_c, 0, 59, 76
2, 76644, Note_on_c, 0, 58, 0
2, 77131, Note_on_c, 0, 59, 0
2, 77139, Note_on_c, 0, 35, 0
2, 77145, Note_on_c, 0, 47, 0
2, 77150, Note_on_c, 0, 54, 0
2, 77168, Note_on_c, 0, 51, 0
2, 78289, Note_on_c, 0, 47, 42
2, 79326, Note_on_c, 0, 51, 54
2, 79556, Note_on_c, 0, 47, 0
2, 80355, Note_on_c, 0, 56, 53
2, 80505, Note_on_c, 0, 51, 0
2, 81394, Note_on_c, 0, 52, 44
2, 81527, Note_on_c, 0, 56, 0
2, 82384, Note_on_c, 0, 49, 48
2, 82573, Note_on_c, 0, 52, 0
2, 83310, Note_on_c, 0, 58, 53
2, 83637, Note_on_c, 0, 49, 0
2, 84233, Note_on_c, 0, 59, 45
2, 84346, Note_on_c, 0, 58, 0
2, 84697, Note_on_c, 0, 58, 43
2, 84790, Note_on_c, 0, 59, 0
2, 84887, Note_on_c, 0, 56, 47
2, 84942, Note_on_c, 0, 58, 0
2, 85116, Note_on_c, 0, 54, 42
2, 85205, Note_on_c, 0, 56, 0
2, 85558, Note_on_c, 0, 52, 42
2, 85667, Note_on_c, 0, 54, 0
2, 86043, Note_on_c, 0, 54, 56
2, 86052, Note_on_c, 0, 51, 39
2, 86067, Note_on_c, 0, 52, 0
2, 86245, Note_on_c, 0, 49, 39
2, 86311, Note_on_c, 0, 51, 0
2, 86501, Note_on_c, 0, 52, 43
2, 86510, Note_on_c, 0, 49, 0
2, 86978, Note_on_c, 0, 58, 65
2, 87443, Note_on_c, 0, 51, 45
2, 87478, Note_on_c, 0, 54, 0
2, 87566, Note_on_c, 0, 52, 0
2, 87636, Note_on_c, 0, 49, 49
2, 87683, Note_on_c, 0, 51, 0
2, 87878, Note_on_c, 0, 47, 46
2, 87884, Note_on_c, 0, 63, 72
2, 87914, Note_on_c, 0, 49, 0
2, 88088, Note_on_c, 0, 58, 0
2, 88103, Note_on_c, 0, 54, 53
2, 88196, Note_on_c, 0, 47, 0
2, 88356, Note_on_c, 0, 58, 55
2, 88427, Note_on_c, 0, 54, 0
2, 88755, Note_on_c, 0, 59, 64
2, 88941, Note_on_c, 0, 63, 0
2, 89230, Note_on_c, 0, 56, 52
2, 89273, Note_on_c, 0, 58, 0
2, 89421, Note_on_c, 0, 54, 65
2, 89461, Note_on_c, 0, 56, 0
2, 89620, Note_on_c, 0, 53, 49
2, 89639, Note_on_c, 0, 54, 0
2, 89642, Note_on_c, 0, 56, 76
2, 89687, Note_on_c, 0, 59, 0
2, 89844, Note_on_c, 0, 59, 50
2, 89898, Note_on_c, 0, 53, 0
2, 90119, Note_on_c, 0, 63, 61
2, 90183, Note_on_c, 0, 59, 0
2, 90568, Note_on_c, 0, 65, 67
2, 90736, Note_on_c, 0, 56, 0
2, 91015, Note_on_c, 0, 61, 49
2, 91027, Note_on_c, 0, 63, 0
2, 91215, Note_on_c, 0, 61, 0
2, 91221, Note_on_c, 0, 59, 58
2, 91456, Note_on_c, 0, 66, 67
2, 91460, Note_on_c, 0, 58, 49
2, 91510, Note_on_c, 0, 59, 0
2, 91580, Note_on_c, 0, 65, 0
2, 91885, Note_on_c, 0, 65, 58
2, 91901, Note_on_c, 0, 59, 48
2, 91936, Note_on_c, 0, 66, 0
2, 91953, Note_on_c, 0, 58, 0
2, 92083, Note_on_c, 0, 63, 69
2, 92119, Note_on_c, 0, 65, 0
2, 92300, Note_on_c, 0, 61, 69
2, 92309, Note_on_c, 0, 58, 58
2, 92373, Note_on_c, 0, 59, 0
2, 92388, Note_on_c, 0, 63, 0
2, 92708, Note_on_c, 0, 56, 56
2, 92720, Note_on_c, 0, 59, 71
2, 92785, Note_on_c, 0, 61, 0
2, 92799, Note_on_c, 0, 58, 0
2, 93158, Note_on_c, 0, 58, 66
2, 93169, Note_on_c, 0, 54, 55
2, 93204, Note_on_c, 0, 59, 0
2, 93220, Note_on_c, 0, 56, 0
2, 93367, Note_on_c, 0, 56, 64
2, 93450, Note_on_c, 0, 58, 0
2, 93563, Note_on_c, 0, 54, 0
2, 93572, Note_on_c, 0, 53, 46
2, 93605, Note_on_c, 0, 59, 66
2, 93708, Note_on_c, 0, 56, 0
2, 93806, Note_on_c, 0, 51, 57
2, 93835, Note_on_c, 0, 53, 0
2, 94025, Note_on_c, 0, 49, 55
2, 94060, Note_on_c, 0, 51, 0
2, 94260, Note_on_c, 0, 51, 56
2, 94337, Note_on_c, 0, 49, 0
2, 94483, Note_on_c, 0, 52, 48
2, 94499, Note_on_c, 0, 58, 57
2, 94504, Note_on_c, 0, 51, 0
2, 94694, Note_on_c, 0, 59, 0
2, 94709, Note_on_c, 0, 56, 69
2, 94842, Note_on_c, 0, 58, 0
2, 94942, Note_on_c, 0, 59, 69
2, 94975, Note_on_c, 0, 54, 42
2, 95016, Note_on_c, 0, 56, 0
2, 95196, Note_on_c, 0, 56, 40
2, 95251, Note_on_c, 0, 54, 0
2, 95413, Note_on_c, 0, 51, 47
2, 95443, Note_on_c, 0, 57, 54
2, 95467, Note_on_c, 0, 56, 0
2, 95544, Note_on_c, 0, 52, 0
2, 95631, Note_on_c, 0, 49, 46
2, 95681, Note_on_c, 0, 51, 0
2, 95906, Note_on_c, 0, 63, 73
2, 95908, Note_on_c, 0, 47, 37
2, 95970, Note_on_c, 0, 49, 0
2, 96005, Note_on_c, 0, 59, 0
2, 96388, Note_on_c, 0, 56, 45
2, 96585, Note_on_c, 0, 56, 0
2, 96601, Note_on_c, 0, 54, 51
2, 96843, Note_on_c, 0, 52, 40
2, 96847, Note_on_c, 0, 68, 75
2, 96875, Note_on_c, 0, 57, 0
2, 96886, Note_on_c, 0, 54, 0
2, 96964, Note_on_c, 0, 63, 0
2, 97082, Note_on_c, 0, 59, 46
2, 97322, Note_on_c, 0, 63, 47
2, 97370, Control_c, 0, 64, 8
2, 97385, Control_c, 0, 64, 10
2, 97401, Control_c, 0, 64, 12
2, 97498, Note_on_c, 0, 52, 0
2, 97545, Control_c, 0, 64, 14
2, 97558, Note_on_c, 0, 47, 0
2, 97562, Note_on_c, 0, 48, 39
2, 97750, Note_on_c, 0, 64, 73
2, 97755, Note_on_c, 0, 49, 52
2, 97778, Note_on_c, 0, 48, 0
2, 97790, Note_on_c, 0, 59, 0
2, 97976, Note_on_c, 0, 51, 49
2, 98062, Note_on_c, 0, 49, 0
2, 98191, Note_on_c, 0, 61, 49
2, 98199, Note_on_c, 0, 52, 43
2, 98335, Note_on_c, 0, 52, 0
2, 98424, Note_on_c, 0, 59, 66
2, 98426, Note_on_c, 0, 51, 0
2, 98430, Note_on_c, 0, 49, 48
2, 98464, Control_c, 0, 64, 15
2, 98467, Note_on_c, 0, 61, 0
2, 98480, Control_c, 0, 64, 18
2, 98495, Control_c, 0, 64, 26
2, 98510, Control_c, 0, 64, 30
2, 98526, Control_c, 0, 64, 33
2, 98540, Control_c, 0, 64, 35
2, 98556, Control_c, 0, 64, 36
2, 98571, Control_c, 0, 64, 37
2, 98572, Note_on_c, 0, 63, 0
2, 98586, Control_c, 0, 64, 37
2, 98650, Note_on_c, 0, 54, 53
2, 98653, Note_on_c, 0, 58, 34
2, 98694, Note_on_c, 0, 61, 82
2, 98746, Note_on_c, 0, 49, 0
2, 98756, Note_on_c, 0, 64, 0
2, 98775, Note_on_c, 0, 68, 0
2, 98846, Control_c, 0, 64, 36
2, 98861, Control_c, 0, 64, 33
2, 98877, Control_c, 0, 64, 32
2, 98892, Control_c, 0, 64, 31
2, 98906, Control_c, 0, 64, 29
2, 98922, Control_c, 0, 64, 27
2, 98937, Control_c, 0, 64, 25
2, 98945, Note_on_c, 0, 64, 56
2, 98952, Control_c, 0, 64, 21
2, 98960, Note_on_c, 0, 59, 0
2, 98968, Control_c, 0, 64, 18
2, 98989, Control_c, 0, 64, 16
2, 99005, Control_c, 0, 64, 15
2, 99020, Control_c, 0, 64, 12
2, 99036, Control_c, 0, 64, 10
2, 99051, Control_c, 0, 64, 8
2, 99066, Control_c, 0, 64, 0
2, 99167, Note_on_c, 0, 68, 65
2, 99364, Note_on_c, 0, 52, 61
2, 99610, Note_on_c, 0, 70, 81
2, 99613, Note_on_c, 0, 51, 52
2, 99664, Note_on_c, 0, 64, 0
2, 99823, Note_on_c, 0, 61, 0
2, 99835, Note_on_c, 0, 49, 51
2, 99858, Note_on_c, 0, 52, 0
2, 99897, Note_on_c, 0, 51, 0
2, 99937, Note_on_c, 0, 54, 0
2, 100058, Note_on_c, 0, 51, 62
2, 100070, Note_on_c, 0, 66, 57
2, 100104, Note_on_c, 0, 49, 0
2, 100200, Control_c, 0, 64, 8
2, 100215, Control_c, 0, 64, 35
2, 100229, Control_c, 0, 64, 46
2, 100245, Control_c, 0, 64, 52
2, 100261, Control_c, 0, 64, 57
2, 100267, Note_on_c, 0, 64, 65
2, 100277, Control_c, 0, 64, 61
2, 100292, Control_c, 0, 64, 65
2, 100306, Control_c, 0, 64, 67
2, 100322, Control_c, 0, 64, 70
2, 100337, Control_c, 0, 64, 72
2, 100352, Control_c, 0, 64, 75
2, 100361, Note_on_c, 0, 58, 0
2, 100368, Control_c, 0, 64, 77
2, 100382, Control_c, 0, 64, 78
2, 100413, Control_c, 0, 64, 78
2, 100415, Note_on_c, 0, 70, 0
2, 100428, Control_c, 0, 64, 77
2, 100444, Control_c, 0, 64, 75
2, 100458, Control_c, 0, 64, 73
2, 100473, Control_c, 0, 64, 70
2, 100489, Control_c, 0, 64, 67
2, 100511, Control_c, 0, 64, 65
2, 100516, Note_on_c, 0, 71, 79
2, 100527, Control_c, 0, 64, 62
2, 100535, Note_on_c, 0, 56, 56
2, 100537, Note_on_c, 0, 63, 53
2, 100542, Control_c, 0, 64, 58
2, 100547, Note_on_c, 0, 66, 0
2, 100558, Control_c, 0, 64, 53
2, 100573, Control_c, 0, 64, 48
2, 100584, Note_on_c, 0, 68, 0
2, 100587, Control_c, 0, 64, 42
2, 100598, Note_on_c, 0, 64, 0
2, 100600, Note_on_c, 0, 51, 0
2, 100603, Control_c, 0, 64, 36
2, 100618, Control_c, 0, 64, 26
2, 100633, Control_c, 0, 64, 0
2, 100940, Note_on_c, 0, 63, 0
2, 100952, Note_on_c, 0, 44, 56
2, 100961, Note_on_c, 0, 70, 66
2, 100982, Note_on_c, 0, 64, 57
2, 101029, Note_on_c, 0, 56, 0
2, 101160, Note_on_c, 0, 68, 78
2, 101251, Note_on_c, 0, 71, 0
2, 101252, Note_on_c, 0, 64, 0
2, 101392, Note_on_c, 0, 70, 0
2, 101398, Note_on_c, 0, 63, 63
2, 101401, Note_on_c, 0, 66, 76
2, 101461, Control_c, 0, 64, 16
2, 101461, Note_on_c, 0, 68, 0
2, 101477, Control_c, 0, 64, 36
2, 101492, Control_c, 0, 64, 48
2, 101506, Control_c, 0, 64, 55
2, 101522, Control_c, 0, 64, 60
2, 101537, Control_c, 0, 64, 64
2, 101552, Control_c, 0, 64, 67
2, 101567, Control_c, 0, 64, 70
2, 101582, Control_c, 0, 64, 73
2, 101598, Control_c, 0, 64, 77
2, 101613, Control_c, 0, 64, 82
2, 101628, Control_c, 0, 64, 87
2, 101644, Control_c, 0, 64, 91
2, 101657, Note_on_c, 0, 66, 0
2, 101659, Control_c, 0, 64, 96
2, 101675, Control_c, 0, 64, 101
2, 101689, Control_c, 0, 64, 108
2, 101704, Control_c, 0, 64, 115
2, 101719, Note_on_c, 0, 63, 0
2, 101720, Control_c, 0, 64, 121
2, 101765, Control_c, 0, 64, 117
2, 101780, Control_c, 0, 64, 113
2, 101796, Control_c, 0, 64, 111
2, 101811, Control_c, 0, 64, 110
2, 101826, Control_c, 0, 64, 106
2, 101841, Control_c, 0, 64, 96
2, 101841, Note_on_c, 0, 64, 76
2, 101846, Note_on_c, 0, 46, 58
2, 101855, Note_on_c, 0, 61, 57
2, 101856, Control_c, 0, 64, 81
2, 101871, Control_c, 0, 64, 68
2, 101887, Control_c, 0, 64, 54
2, 101903, Control_c, 0, 64, 0
2, 101966, Note_on_c, 0, 44, 0
2, 101993, Control_c, 0, 64, 18
2, 102009, Control_c, 0, 64, 45
2, 102024, Control_c, 0, 64, 54
2, 102047, Control_c, 0, 64, 59
2, 102062, Control_c, 0, 64, 63
2, 102078, Control_c, 0, 64, 67
2, 102093, Control_c, 0, 64, 71
2, 102108, Control_c, 0, 64, 76
2, 102124, Control_c, 0, 64, 84
2, 102139, Control_c, 0, 64, 92
2, 102153, Control_c, 0, 64, 99
2, 102169, Control_c, 0, 64, 108
2, 102184, Control_c, 0, 64, 119
2, 102199, Control_c, 0, 64, 127
2, 102241, Note_on_c, 0, 46, 0
2, 102275, Control_c, 0, 64, 119
2, 102290, Control_c, 0, 64, 113
2, 102305, Control_c, 0, 64, 105
2, 102321, Control_c, 0, 64, 97
2, 102326, Note_on_c, 0, 66, 79
2, 102327, Note_on_c, 0, 47, 57
2, 102331, Note_on_c, 0, 59, 59
2, 102336, Control_c, 0, 64, 90
2, 102339, Note_on_c, 0, 61, 0
2, 102341, Note_on_c, 0, 63, 52
2, 102350, Control_c, 0, 64, 83
2, 102366, Control_c, 0, 64, 77
2, 102381, Control_c, 0, 64, 71
2, 102397, Control_c, 0, 64, 63
2, 102411, Control_c, 0, 64, 52
2, 102426, Control_c, 0, 64, 30
2, 102442, Control_c, 0, 64, 0
2, 102457, Note_on_c, 0, 64, 0
2, 102576, Note_on_c, 0, 61, 52
2, 102763, Note_on_c, 0, 47, 0
2, 102829, Note_on_c, 0, 64, 64
2, 102839, Note_on_c, 0, 58, 58
2, 102854, Note_on_c, 0, 63, 0
2, 102900, Note_on_c, 0, 59, 0
2, 103006, Note_on_c, 0, 61, 0
2, 103017, Note_on_c, 0, 56, 60
2, 103059, Note_on_c, 0, 58, 0
2, 103243, Note_on_c, 0, 54, 61
2, 103251, Note_on_c, 0, 70, 82
2, 103321, Note_on_c, 0, 56, 0
2, 103381, Note_on_c, 0, 66, 0
2, 103744, Note_on_c, 0, 63, 55
2, 103942, Note_on_c, 0, 61, 67
2, 104015, Note_on_c, 0, 63, 0
2, 104170, Note_on_c, 0, 59, 55
2, 104196, Note_on_c, 0, 75, 83
2, 104253, Note_on_c, 0, 64, 0
2, 104291, Note_on_c, 0, 70, 0
2, 104319, Note_on_c, 0, 61, 0
2, 104410, Note_on_c, 0, 66, 52
2, 104627, Note_on_c, 0, 70, 70
2, 104806, Note_on_c, 0, 55, 64
2, 104905, Note_on_c, 0, 54, 0
2, 104928, Note_on_c, 0, 59, 0
2, 105035, Note_on_c, 0, 71, 81
2, 105044, Note_on_c, 0, 56, 68
2, 105073, Note_on_c, 0, 55, 0
2, 105129, Note_on_c, 0, 66, 0
2, 105269, Note_on_c, 0, 58, 60
2, 105312, Note_on_c, 0, 56, 0
2, 105462, Note_on_c, 0, 59, 72
2, 105478, Note_on_c, 0, 58, 0
2, 105487, Note_on_c, 0, 68, 67
2, 105550, Note_on_c, 0, 70, 0
2, 105637, Control_c, 0, 64, 19
2, 105644, Note_on_c, 0, 59, 0
2, 105650, Note_on_c, 0, 56, 68
2, 105652, Control_c, 0, 64, 36
2, 105660, Note_on_c, 0, 66, 77
2, 105667, Control_c, 0, 64, 44
2, 105680, Note_on_c, 0, 68, 0
2, 105683, Control_c, 0, 64, 50
2, 105697, Control_c, 0, 64, 56
2, 105712, Control_c, 0, 64, 61
2, 105728, Control_c, 0, 64, 63
2, 105743, Control_c, 0, 64, 66
2, 105759, Control_c, 0, 64, 67
2, 105774, Control_c, 0, 64, 70
2, 105788, Control_c, 0, 64, 73
2, 105804, Control_c, 0, 64, 77
2, 105819, Control_c, 0, 64, 81
2, 105833, Control_c, 0, 64, 84
2, 105849, Control_c, 0, 64, 84
2, 105853, Note_on_c, 0, 66, 0
2, 105897, Note_on_c, 0, 61, 58
2, 105920, Note_on_c, 0, 65, 52
2, 105933, Control_c, 0, 64, 83
2, 105939, Note_on_c, 0, 68, 89
2, 105948, Control_c, 0, 64, 82
2, 105964, Control_c, 0, 64, 81
2, 105977, Note_on_c, 0, 71, 0
2, 105979, Control_c, 0, 64, 79
2, 105995, Control_c, 0, 64, 77
2, 106010, Control_c, 0, 64, 73
2, 106024, Control_c, 0, 64, 70
2, 106024, Note_on_c, 0, 56, 0
2, 106040, Control_c, 0, 64, 67
2, 106055, Control_c, 0, 64, 64
2, 106070, Control_c, 0, 64, 60
2, 106077, Note_on_c, 0, 75, 0
2, 106086, Control_c, 0, 64, 55
2, 106100, Control_c, 0, 64, 53
2, 106116, Control_c, 0, 64, 51
2, 106131, Control_c, 0, 64, 49
2, 106145, Control_c, 0, 64, 48
2, 106161, Control_c, 0, 64, 45
2, 106167, Note_on_c, 0, 71, 66
2, 106176, Control_c, 0, 64, 44
2, 106191, Control_c, 0, 64, 42
2, 106207, Control_c, 0, 64, 41
2, 106221, Control_c, 0, 64, 40
2, 106237, Control_c, 0, 64, 40
2, 106385, Note_on_c, 0, 75, 80
2, 106574, Note_on_c, 0, 59, 73
2, 106809, Note_on_c, 0, 58, 66
2, 106816, Note_on_c, 0, 77, 88
2, 106846, Note_on_c, 0, 71, 0
2, 106886, Note_on_c, 0, 68, 0
2, 106891, Note_on_c, 0, 59, 0
2, 106975, Control_c, 0, 64, 36
2, 106989, Control_c, 0, 64, 22
2, 107005, Control_c, 0, 64, 0
2, 107012, Note_on_c, 0, 56, 67
2, 107044, Note_on_c, 0, 58, 0
2, 107229, Note_on_c, 0, 58, 72
2, 107246, Note_on_c, 0, 73, 75
2, 107276, Note_on_c, 0, 56, 0
2, 107317, Note_on_c, 0, 61, 0
2, 107321, Note_on_c, 0, 65, 0
2, 107370, Control_c, 0, 64, 39
2, 107385, Control_c, 0, 64, 49
2, 107400, Control_c, 0, 64, 56
2, 107415, Control_c, 0, 64, 61
2, 107438, Control_c, 0, 64, 64
2, 107451, Note_on_c, 0, 71, 86
2, 107453, Control_c, 0, 64, 66
2, 107468, Control_c, 0, 64, 70
2, 107483, Control_c, 0, 64, 73
2, 107486, Note_on_c, 0, 75, 0
2, 107498, Control_c, 0, 64, 77
2, 107501, Note_on_c, 0, 73, 0
2, 107513, Control_c, 0, 64, 82
2, 107529, Control_c, 0, 64, 88
2, 107535, Note_on_c, 0, 71, 0
2, 107544, Control_c, 0, 64, 100
2, 107560, Control_c, 0, 64, 127
2, 107712, Control_c, 0, 64, 123
2, 107728, Control_c, 0, 64, 101
2, 107732, Note_on_c, 0, 78, 87
2, 107738, Note_on_c, 0, 63, 57
2, 107738, Note_on_c, 0, 70, 63
2, 107743, Control_c, 0, 64, 90
2, 107758, Control_c, 0, 64, 81
2, 107773, Control_c, 0, 64, 74
2, 107788, Control_c, 0, 64, 67
2, 107799, Note_on_c, 0, 77, 0
2, 107804, Control_c, 0, 64, 61
2, 107819, Control_c, 0, 64, 54
2, 107820, Note_on_c, 0, 58, 0
2, 107833, Control_c, 0, 64, 51
2, 107849, Control_c, 0, 64, 49
2, 107864, Control_c, 0, 64, 47
2, 107880, Control_c, 0, 64, 45
2, 107895, Control_c, 0, 64, 44
2, 107909, Control_c, 0, 64, 43
2, 107925, Control_c, 0, 64, 42
2, 107940, Control_c, 0, 64, 41
2, 107955, Control_c, 0, 64, 40
2, 107970, Control_c, 0, 64, 40
2, 108137, Note_on_c, 0, 70, 0
2, 108168, Note_on_c, 0, 51, 61
2, 108178, Note_on_c, 0, 71, 61
2, 108191, Note_on_c, 0, 77, 76
2, 108206, Control_c, 0, 64, 40
2, 108246, Note_on_c, 0, 78, 0
2, 108248, Note_on_c, 0, 63, 0
2, 108385, Note_on_c, 0, 75, 80
2, 108557, Control_c, 0, 64, 39
2, 108571, Control_c, 0, 64, 36
2, 108586, Control_c, 0, 64, 34
2, 108602, Control_c, 0, 64, 32
2, 108617, Control_c, 0, 64, 30
2, 108631, Note_on_c, 0, 73, 74
2, 108632, Control_c, 0, 64, 28
2, 108639, Note_on_c, 0, 70, 63
2, 108648, Control_c, 0, 64, 27
2, 108663, Control_c, 0, 64, 26
2, 108667, Note_on_c, 0, 77, 0
2, 108715, Note_on_c, 0, 71, 0
2, 108739, Control_c, 0, 64, 29
2, 108753, Control_c, 0, 64, 40
2, 108756, Note_on_c, 0, 75, 0
2, 108769, Control_c, 0, 64, 48
2, 108784, Control_c, 0, 64, 53
2, 108800, Control_c, 0, 64, 57
2, 108814, Control_c, 0, 64, 59
2, 108829, Control_c, 0, 64, 62
2, 108845, Control_c, 0, 64, 64
2, 108860, Control_c, 0, 64, 66
2, 108876, Control_c, 0, 64, 67
2, 108890, Control_c, 0, 64, 69
2, 108905, Control_c, 0, 64, 71
2, 108921, Control_c, 0, 64, 73
2, 108936, Control_c, 0, 64, 75
2, 108959, Control_c, 0, 64, 78
2, 108967, Note_on_c, 0, 73, 0
2, 108974, Control_c, 0, 64, 79
2, 109050, Control_c, 0, 64, 79
2, 109065, Control_c, 0, 64, 78
2, 109081, Control_c, 0, 64, 77
2, 109094, Note_on_c, 0, 53, 50
2, 109095, Control_c, 0, 64, 75
2, 109097, Note_on_c, 0, 68, 56
2, 109102, Note_on_c, 0, 70, 0
2, 109103, Note_on_c, 0, 71, 71
2, 109110, Control_c, 0, 64, 74
2, 109126, Control_c, 0, 64, 73
2, 109140, Control_c, 0, 64, 70
2, 109156, Control_c, 0, 64, 67
2, 109161, Note_on_c, 0, 51, 0
2, 109171, Control_c, 0, 64, 64
2, 109186, Control_c, 0, 64, 57
2, 109202, Control_c, 0, 64, 52
2, 109216, Control_c, 0, 64, 49
2, 109231, Control_c, 0, 64, 46
2, 109247, Control_c, 0, 64, 45
2, 109263, Control_c, 0, 64, 44
2, 109279, Control_c, 0, 64, 43
2, 109294, Control_c, 0, 64, 42
2, 109309, Control_c, 0, 64, 40
2, 109324, Control_c, 0, 64, 40
2, 109339, Control_c, 0, 64, 38
2, 109355, Control_c, 0, 64, 37
2, 109370, Control_c, 0, 64, 36
2, 109385, Control_c, 0, 64, 35
2, 109400, Control_c, 0, 64, 35
2, 109415, Control_c, 0, 64, 34
2, 109446, Control_c, 0, 64, 34
2, 109477, Control_c, 0, 64, 33
2, 109532, Note_on_c, 0, 70, 54
2, 109541, Note_on_c, 0, 66, 44
2, 109543, Note_on_c, 0, 54, 45
2, 109545, Note_on_c, 0, 68, 0
2, 109546, Note_on_c, 0, 71, 0
2, 109552, Control_c, 0, 64, 33
2, 109577, Note_on_c, 0, 53, 0
2, 109583, Control_c, 0, 64, 32
2, 109598, Control_c, 0, 64, 32
2, 109613, Control_c, 0, 64, 31
2, 109644, Control_c, 0, 64, 31
2, 109673, Control_c, 0, 64, 30
2, 109704, Control_c, 0, 64, 30
2, 109761, Note_on_c, 0, 68, 47
2, 109962, Note_on_c, 0, 68, 0
2, 109966, Note_on_c, 0, 71, 49
2, 109973, Note_on_c, 0, 66, 0
2, 109982, Note_on_c, 0, 56, 43
2, 109984, Note_on_c, 0, 65, 40
2, 110004, Note_on_c, 0, 70, 0
2, 110018, Note_on_c, 0, 54, 0
2, 110205, Note_on_c, 0, 65, 0
2, 110208, Note_on_c, 0, 63, 44
2, 110381, Control_c, 0, 64, 29
2, 110433, Note_on_c, 0, 61, 46
2, 110449, Note_on_c, 0, 58, 42
2, 110457, Control_c, 0, 64, 29
2, 110502, Note_on_c, 0, 56, 0
2, 110509, Control_c, 0, 64, 28
2, 110522, Note_on_c, 0, 63, 0
2, 110571, Control_c, 0, 64, 28
2, 110663, Note_on_c, 0, 63, 44
2, 110742, Note_on_c, 0, 61, 0
2, 110899, Note_on_c, 0, 54, 54
2, 110906, Control_c, 0, 64, 29
2, 110922, Control_c, 0, 64, 34
2, 110929, Note_on_c, 0, 70, 53
2, 110932, Note_on_c, 0, 63, 0
2, 110935, Note_on_c, 0, 64, 34
2, 110936, Control_c, 0, 64, 39
2, 110951, Control_c, 0, 64, 46
2, 110964, Note_on_c, 0, 58, 0
2, 110967, Control_c, 0, 64, 52
2, 110982, Control_c, 0, 64, 56
2, 110998, Control_c, 0, 64, 61
2, 111012, Control_c, 0, 64, 64
2, 111027, Control_c, 0, 64, 67
2, 111043, Control_c, 0, 64, 71
2, 111057, Control_c, 0, 64, 77
2, 111072, Control_c, 0, 64, 85
2, 111088, Control_c, 0, 64, 98
2, 111103, Control_c, 0, 64, 118
2, 111119, Control_c, 0, 64, 127
2, 111173, Note_on_c, 0, 68, 57
2, 111219, Note_on_c, 0, 54, 0
2, 111467, Note_on_c, 0, 47, 74
2, 111484, Note_on_c, 0, 59, 51
2, 111487, Note_on_c, 0, 66, 48
2, 111537, Control_c, 0, 64, 108
2, 111541, Note_on_c, 0, 68, 0
2, 111551, Control_c, 0, 64, 89
2, 111567, Control_c, 0, 64, 74
2, 111582, Control_c, 0, 64, 65
2, 111598, Control_c, 0, 64, 55
2, 111613, Control_c, 0, 64, 49
2, 111672, Control_c, 0, 64, 47
2, 111688, Control_c, 0, 64, 46
2, 111703, Control_c, 0, 64, 45
2, 111720, Control_c, 0, 64, 44
2, 111735, Control_c, 0, 64, 43
2, 111750, Control_c, 0, 64, 42
2, 111766, Control_c, 0, 64, 41
2, 111780, Control_c, 0, 64, 41
2, 111780, Note_on_c, 0, 71, 0
2, 111797, Note_on_c, 0, 68, 48
2, 111811, Control_c, 0, 64, 40
2, 111822, Note_on_c, 0, 66, 0
2, 111877, Note_on_c, 0, 64, 0
2, 111880, Note_on_c, 0, 70, 0
2, 112036, Note_on_c, 0, 69, 44
2, 112056, Note_on_c, 0, 54, 47
2, 112057, Note_on_c, 0, 63, 42
2, 112077, Control_c, 0, 64, 41
2, 112092, Control_c, 0, 64, 42
2, 112111, Control_c, 0, 64, 43
2, 112113, Note_on_c, 0, 68, 0
2, 112126, Control_c, 0, 64, 45
2, 112142, Control_c, 0, 64, 46
2, 112157, Control_c, 0, 64, 49
2, 112172, Control_c, 0, 64, 51
2, 112188, Control_c, 0, 64, 53
2, 112202, Control_c, 0, 64, 56
2, 112217, Control_c, 0, 64, 59
2, 112233, Control_c, 0, 64, 61
2, 112248, Control_c, 0, 64, 63
2, 112248, Note_on_c, 0, 59, 0
2, 112264, Control_c, 0, 64, 65
2, 112271, Note_on_c, 0, 52, 48
2, 112278, Control_c, 0, 64, 67
2, 112293, Control_c, 0, 64, 69
2, 112294, Note_on_c, 0, 61, 38
2, 112309, Control_c, 0, 64, 72
2, 112324, Control_c, 0, 64, 76
2, 112339, Control_c, 0, 64, 80
2, 112355, Control_c, 0, 64, 83
2, 112364, Note_on_c, 0, 63, 0
2, 112370, Control_c, 0, 64, 85
2, 112386, Control_c, 0, 64, 85
2, 112415, Control_c, 0, 64, 85
2, 112418, Note_on_c, 0, 61, 0
2, 112431, Control_c, 0, 64, 84
2, 112441, Note_on_c, 0, 54, 0
2, 112445, Control_c, 0, 64, 84
2, 112460, Control_c, 0, 64, 83
2, 112476, Control_c, 0, 64, 82
2, 112491, Control_c, 0, 64, 81
2, 112502, Note_on_c, 0, 51, 73
2, 112507, Control_c, 0, 64, 79
2, 112511, Note_on_c, 0, 69, 0
2, 112521, Control_c, 0, 64, 76
2, 112534, Note_on_c, 0, 59, 59
2, 112536, Control_c, 0, 64, 73
2, 112548, Note_on_c, 0, 52, 0
2, 112553, Control_c, 0, 64, 69
2, 112568, Control_c, 0, 64, 65
2, 112584, Control_c, 0, 64, 61
2, 112599, Control_c, 0, 64, 56
2, 112614, Control_c, 0, 64, 52
2, 112629, Control_c, 0, 64, 48
2, 112644, Control_c, 0, 64, 45
2, 112659, Control_c, 0, 64, 40
2, 112675, Control_c, 0, 64, 35
2, 112690, Control_c, 0, 64, 28
2, 112697, Note_on_c, 0, 59, 0
2, 112705, Control_c, 0, 64, 14
2, 112720, Control_c, 0, 64, 0
2, 112755, Note_on_c, 0, 61, 48
2, 112952, Note_on_c, 0, 61, 0
2, 112976, Note_on_c, 0, 59, 50
2, 112994, Note_on_c, 0, 68, 42
2, 113223, Note_on_c, 0, 66, 58
2, 113351, Control_c, 0, 64, 15
2, 113367, Control_c, 0, 64, 30
2, 113382, Control_c, 0, 64, 38
2, 113397, Control_c, 0, 64, 41
2, 113412, Control_c, 0, 64, 42
2, 113428, Control_c, 0, 64, 43
2, 113454, Note_on_c, 0, 56, 74
2, 113476, Note_on_c, 0, 68, 0
2, 113482, Note_on_c, 0, 66, 0
2, 113502, Note_on_c, 0, 64, 44
2, 113587, Control_c, 0, 64, 42
2, 113602, Control_c, 0, 64, 42
2, 113617, Control_c, 0, 64, 41
2, 113633, Control_c, 0, 64, 40
2, 113664, Control_c, 0, 64, 40
2, 113710, Note_on_c, 0, 71, 56
2, 113740, Note_on_c, 0, 47, 0
2, 113781, Note_on_c, 0, 51, 0
2, 113827, Control_c, 0, 64, 42
2, 113843, Control_c, 0, 64, 43
2, 113858, Control_c, 0, 64, 44
2, 113888, Control_c, 0, 64, 44
2, 113950, Note_on_c, 0, 75, 63
2, 113996, Note_on_c, 0, 64, 0
2, 114151, Note_on_c, 0, 66, 48
2, 114157, Note_on_c, 0, 58, 61
2, 114217, Note_on_c, 0, 71, 0
2, 114239, Control_c, 0, 64, 44
2, 114315, Control_c, 0, 64, 43
2, 114392, Note_on_c, 0, 52, 75
2, 114408, Note_on_c, 0, 68, 65
2, 114426, Control_c, 0, 64, 43
2, 114431, Note_on_c, 0, 58, 0
2, 114442, Control_c, 0, 64, 42
2, 114443, Note_on_c, 0, 56, 0
2, 114472, Control_c, 0, 64, 42
2, 114488, Control_c, 0, 64, 41
2, 114502, Control_c, 0, 64, 40
2, 114518, Control_c, 0, 64, 39
2, 114533, Control_c, 0, 64, 38
2, 114548, Control_c, 0, 64, 36
2, 114564, Control_c, 0, 64, 34
2, 114570, Note_on_c, 0, 66, 0
2, 114578, Control_c, 0, 64, 32
2, 114593, Control_c, 0, 64, 28
2, 114609, Control_c, 0, 64, 24
2, 114610, Note_on_c, 0, 56, 66
2, 114624, Control_c, 0, 64, 16
2, 114640, Control_c, 0, 64, 0
2, 114659, Note_on_c, 0, 59, 0
2, 114809, Note_on_c, 0, 73, 73
2, 114823, Note_on_c, 0, 58, 78
2, 114869, Note_on_c, 0, 56, 0
2, 114988, Control_c, 0, 64, 29
2, 115004, Control_c, 0, 64, 50
2, 115011, Note_on_c, 0, 59, 82
2, 115019, Control_c, 0, 64, 59
2, 115022, Note_on_c, 0, 71, 77
2, 115029, Note_on_c, 0, 58, 0
2, 115034, Control_c, 0, 64, 64
2, 115050, Control_c, 0, 64, 69
2, 115065, Control_c, 0, 64, 76
2, 115073, Note_on_c, 0, 68, 0
2, 115074, Note_on_c, 0, 59, 0
2, 115081, Control_c, 0, 64, 88
2, 115096, Control_c, 0, 64, 109
2, 115119, Control_c, 0, 64, 127
2, 115172, Note_on_c, 0, 75, 0
2, 115220, Note_on_c, 0, 52, 0
2, 115232, Note_on_c, 0, 71, 0
2, 115239, Note_on_c, 0, 73, 0
2, 115255, Note_on_c, 0, 49, 76
2, 115264, Note_on_c, 0, 70, 77
2, 115300, Control_c, 0, 64, 104
2, 115309, Note_on_c, 0, 61, 40
2, 115316, Control_c, 0, 64, 92
2, 115331, Control_c, 0, 64, 82
2, 115346, Control_c, 0, 64, 74
2, 115362, Control_c, 0, 64, 67
2, 115377, Control_c, 0, 64, 61
2, 115392, Control_c, 0, 64, 51
2, 115408, Control_c, 0, 64, 41
2, 115422, Control_c, 0, 64, 17
2, 115438, Control_c, 0, 64, 0
2, 115469, Note_on_c, 0, 76, 76
2, 115689, Note_on_c, 0, 80, 81
2, 115757, Control_c, 0, 64, 31
2, 115772, Control_c, 0, 64, 49
2, 115785, Note_on_c, 0, 70, 0
2, 115786, Control_c, 0, 64, 57
2, 115802, Control_c, 0, 64, 63
2, 115818, Control_c, 0, 64, 66
2, 115833, Control_c, 0, 64, 69
2, 115848, Control_c, 0, 64, 72
2, 115863, Control_c, 0, 64, 75
2, 115883, Note_on_c, 0, 76, 0
2, 115887, Control_c, 0, 64, 77
2, 115894, Note_on_c, 0, 71, 75
2, 115909, Note_on_c, 0, 49, 0
2, 115932, Control_c, 0, 64, 77
2, 115963, Control_c, 0, 64, 76
2, 116008, Control_c, 0, 64, 76
2, 116053, Control_c, 0, 64, 75
2, 116068, Control_c, 0, 64, 74
2, 116084, Control_c, 0, 64, 73
2, 116099, Control_c, 0, 64, 72
2, 116114, Control_c, 0, 64, 71
2, 116129, Control_c, 0, 64, 70
2, 116132, Note_on_c, 0, 73, 73
2, 116136, Note_on_c, 0, 58, 65
2, 116144, Control_c, 0, 64, 68
2, 116160, Control_c, 0, 64, 67
2, 116175, Control_c, 0, 64, 65
2, 116190, Control_c, 0, 64, 64
2, 116203, Note_on_c, 0, 61, 0
2, 116206, Control_c, 0, 64, 63
2, 116221, Control_c, 0, 64, 62
2, 116237, Control_c, 0, 64, 61
2, 116252, Control_c, 0, 64, 60
2, 116266, Control_c, 0, 64, 58
2, 116282, Control_c, 0, 64, 56
2, 116295, Note_on_c, 0, 71, 0
2, 116297, Control_c, 0, 64, 54
2, 116312, Control_c, 0, 64, 50
2, 116328, Control_c, 0, 64, 46
2, 116328, Note_on_c, 0, 61, 67
2, 116342, Control_c, 0, 64, 40
2, 116358, Control_c, 0, 64, 33
2, 116373, Control_c, 0, 64, 22
2, 116387, Control_c, 0, 64, 0
2, 116564, Note_on_c, 0, 66, 55
2, 116582, Note_on_c, 0, 78, 67
2, 116640, Control_c, 0, 64, 42
2, 116655, Control_c, 0, 64, 54
2, 116670, Control_c, 0, 64, 59
2, 116686, Control_c, 0, 64, 63
2, 116700, Control_c, 0, 64, 65
2, 116716, Control_c, 0, 64, 67
2, 116731, Control_c, 0, 64, 69
2, 116739, Note_on_c, 0, 73, 0
2, 116746, Control_c, 0, 64, 70
2, 116762, Control_c, 0, 64, 71
2, 116781, Note_on_c, 0, 76, 61
2, 116807, Control_c, 0, 64, 70
2, 116826, Note_on_c, 0, 78, 0
2, 116833, Note_on_c, 0, 58, 0
2, 116837, Note_on_c, 0, 80, 0
2, 116852, Control_c, 0, 64, 70
2, 116897, Control_c, 0, 64, 69
2, 116928, Control_c, 0, 64, 69
2, 116959, Control_c, 0, 64, 68
2, 116988, Control_c, 0, 64, 68
2, 117004, Control_c, 0, 64, 67
2, 117019, Control_c, 0, 64, 66
2, 117034, Control_c, 0, 64, 65
2, 117050, Control_c, 0, 64, 64
2, 117064, Control_c, 0, 64, 63
2, 117066, Note_on_c, 0, 59, 48
2, 117080, Control_c, 0, 64, 62
2, 117085, Note_on_c, 0, 75, 54
2, 117095, Control_c, 0, 64, 59
2, 117110, Control_c, 0, 64, 56
2, 117126, Control_c, 0, 64, 52
2, 117126, Note_on_c, 0, 76, 0
2, 117141, Control_c, 0, 64, 48
2, 117157, Control_c, 0, 64, 45
2, 117172, Control_c, 0, 64, 42
2, 117181, Note_on_c, 0, 66, 0
2, 117186, Control_c, 0, 64, 41
2, 117201, Note_on_c, 0, 61, 0
2, 117202, Control_c, 0, 64, 40
2, 117217, Control_c, 0, 64, 38
2, 117231, Control_c, 0, 64, 35
2, 117247, Control_c, 0, 64, 34
2, 117262, Control_c, 0, 64, 32
2, 117278, Control_c, 0, 64, 31
2, 117293, Control_c, 0, 64, 30
2, 117307, Control_c, 0, 64, 30
2, 117323, Control_c, 0, 64, 29
2, 117323, Control_c, 0, 67, 12
2, 117338, Control_c, 0, 64, 28
2, 117338, Control_c, 0, 67, 23
2, 117343, Note_on_c, 0, 73, 48
2, 117353, Control_c, 0, 64, 28
2, 117353, Control_c, 0, 67, 38
2, 117369, Control_c, 0, 67, 55
2, 117383, Control_c, 0, 64, 27
2, 117383, Control_c, 0, 67, 73
2, 117399, Control_c, 0, 64, 26
2, 117399, Control_c, 0, 67, 92
2, 117422, Control_c, 0, 67, 113
2, 117437, Control_c, 0, 64, 26
2, 117437, Control_c, 0, 67, 127
2, 117448, Note_on_c, 0, 75, 0
2, 117482, Note_on_c, 0, 75, 11
2, 117484, Control_c, 0, 64, 25
2, 117514, Control_c, 0, 64, 24
2, 117530, Control_c, 0, 64, 24
2, 117530, Note_on_c, 0, 73, 0
2, 117537, Note_on_c, 0, 71, 54
2, 117544, Control_c, 0, 64, 23
2, 117551, Note_on_c, 0, 66, 46
2, 117560, Control_c, 0, 64, 22
2, 117574, Control_c, 0, 64, 21
2, 117592, Note_on_c, 0, 63, 33
2, 117605, Control_c, 0, 64, 20
2, 117634, Control_c, 0, 64, 19
2, 117664, Control_c, 0, 64, 18
2, 117665, Note_on_c, 0, 66, 0
2, 117710, Control_c, 0, 64, 17
2, 117740, Note_on_c, 0, 64, 49
2, 117742, Note_on_c, 0, 70, 52
2, 117760, Note_on_c, 0, 59, 0
2, 117778, Note_on_c, 0, 61, 40
2, 117802, Control_c, 0, 64, 16
2, 117814, Note_on_c, 0, 63, 0
2, 117848, Control_c, 0, 64, 15
2, 117852, Note_on_c, 0, 71, 0
2, 117862, Control_c, 0, 64, 14
2, 117878, Control_c, 0, 64, 10
2, 117893, Control_c, 0, 64, 0
2, 117947, Note_on_c, 0, 61, 0
2, 117956, Note_on_c, 0, 63, 47
2, 117963, Note_on_c, 0, 68, 54
2, 117970, Note_on_c, 0, 64, 0
2, 117982, Note_on_c, 0, 59, 38
2, 118050, Note_on_c, 0, 70, 0
2, 118184, Note_on_c, 0, 67, 49
2, 118199, Note_on_c, 0, 68, 0
2, 118367, Note_on_c, 0, 59, 0
2, 118391, Note_on_c, 0, 61, 44
2, 118407, Note_on_c, 0, 58, 41
2, 118408, Note_on_c, 0, 67, 0
2, 118427, Note_on_c, 0, 68, 50
2, 118444, Note_on_c, 0, 63, 0
2, 118478, Control_c, 0, 64, 23
2, 118493, Control_c, 0, 64, 44
2, 118507, Control_c, 0, 64, 52
2, 118523, Control_c, 0, 64, 57
2, 118538, Control_c, 0, 64, 61
2, 118553, Control_c, 0, 64, 64
2, 118569, Control_c, 0, 64, 65
2, 118584, Control_c, 0, 64, 66
2, 118600, Control_c, 0, 64, 67
2, 118606, Note_on_c, 0, 67, 51
2, 118615, Control_c, 0, 64, 68
2, 118617, Note_on_c, 0, 68, 0
2, 118624, Note_on_c, 0, 61, 0
2, 118630, Control_c, 0, 64, 68
2, 118646, Control_c, 0, 64, 69
2, 118660, Control_c, 0, 64, 70
2, 118663, Note_on_c, 0, 58, 0
2, 118676, Control_c, 0, 64, 70
2, 118721, Control_c, 0, 64, 70
2, 118797, Control_c, 0, 64, 69
2, 118812, Control_c, 0, 64, 67
2, 118818, Note_on_c, 0, 56, 50
2, 118827, Control_c, 0, 64, 62
2, 118837, Note_on_c, 0, 59, 51
2, 118843, Control_c, 0, 64, 54
2, 118847, Note_on_c, 0, 68, 62
2, 118858, Control_c, 0, 64, 42
2, 118872, Control_c, 0, 64, 26
2, 118888, Control_c, 0, 64, 18
2, 118903, Control_c, 0, 64, 17
2, 118921, Note_on_c, 0, 67, 0
2, 118933, Control_c, 0, 64, 18
2, 118957, Control_c, 0, 64, 28
2, 118972, Control_c, 0, 64, 40
2, 118987, Control_c, 0, 64, 49
2, 119002, Control_c, 0, 64, 55
2, 119017, Control_c, 0, 64, 59
2, 119032, Control_c, 0, 64, 63
2, 119042, Note_on_c, 0, 75, 0
2, 119047, Control_c, 0, 64, 66
2, 119060, Note_on_c, 0, 71, 74
2, 119062, Control_c, 0, 64, 68
2, 119078, Control_c, 0, 64, 73
2, 119088, Note_on_c, 0, 68, 0
2, 119093, Control_c, 0, 64, 78
2, 119093, Note_on_c, 0, 71, 0
2, 119109, Control_c, 0, 64, 83
2, 119125, Control_c, 0, 64, 90
2, 119140, Control_c, 0, 64, 94
2, 119154, Control_c, 0, 64, 98
2, 119170, Control_c, 0, 64, 99
2, 119201, Control_c, 0, 64, 98
2, 119216, Control_c, 0, 64, 97
2, 119230, Control_c, 0, 64, 95
2, 119246, Control_c, 0, 64, 92
2, 119261, Control_c, 0, 64, 89
2, 119263, Note_on_c, 0, 70, 68
2, 119277, Control_c, 0, 64, 84
2, 119282, Note_on_c, 0, 79, 64
2, 119285, Note_on_c, 0, 61, 52
2, 119292, Control_c, 0, 64, 80
2, 119306, Control_c, 0, 64, 75
2, 119318, Note_on_c, 0, 59, 0
2, 119322, Control_c, 0, 64, 70
2, 119337, Control_c, 0, 64, 66
2, 119351, Control_c, 0, 64, 63
2, 119367, Control_c, 0, 64, 60
2, 119382, Control_c, 0, 64, 58
2, 119398, Control_c, 0, 64, 55
2, 119413, Control_c, 0, 64, 52
2, 119428, Control_c, 0, 64, 48
2, 119444, Control_c, 0, 64, 44
2, 119458, Control_c, 0, 64, 40
2, 119471, Note_on_c, 0, 73, 76
2, 119473, Control_c, 0, 64, 36
2, 119489, Control_c, 0, 64, 34
2, 119499, Note_on_c, 0, 79, 0
2, 119504, Control_c, 0, 64, 32
2, 119520, Control_c, 0, 64, 30
2, 119535, Control_c, 0, 64, 28
2, 119549, Control_c, 0, 64, 24
2, 119565, Control_c, 0, 64, 21
2, 119580, Control_c, 0, 64, 19
2, 119596, Control_c, 0, 64, 16
2, 119611, Control_c, 0, 64, 12
2, 119625, Control_c, 0, 64, 10
2, 119641, Control_c, 0, 64, 0
2, 119658, Note_on_c, 0, 70, 0
2, 119717, Note_on_c, 0, 63, 45
2, 119722, Note_on_c, 0, 80, 64
2, 119752, Note_on_c, 0, 61, 0
2, 119756, Note_on_c, 0, 56, 0
2, 119757, Note_on_c, 0, 71, 44
2, 119786, Note_on_c, 0, 73, 0
2, 119928, Note_on_c, 0, 55, 41
2, 119996, Note_on_c, 0, 63, 0
2, 120131, Note_on_c, 0, 55, 0
2, 120142, Note_on_c, 0, 64, 35
2, 120147, Note_on_c, 0, 73, 60
2, 120160, Note_on_c, 0, 70, 46
2, 120167, Note_on_c, 0, 56, 38
2, 120168, Note_on_c, 0, 80, 0
2, 120189, Note_on_c, 0, 71, 0
2, 120227, Control_c, 0, 64, 18
2, 120243, Control_c, 0, 64, 33
2, 120258, Control_c, 0, 64, 42
2, 120272, Control_c, 0, 64, 50
2, 120288, Control_c, 0, 64, 54
2, 120303, Control_c, 0, 64, 57
2, 120319, Control_c, 0, 64, 60
2, 120333, Control_c, 0, 64, 62
2, 120341, Note_on_c, 0, 64, 0
2, 120348, Control_c, 0, 64, 64
2, 120358, Note_on_c, 0, 55, 43
2, 120364, Control_c, 0, 64, 66
2, 120379, Control_c, 0, 64, 68
2, 120394, Control_c, 0, 64, 70
2, 120398, Note_on_c, 0, 56, 0
2, 120406, Note_on_c, 0, 73, 0
2, 120410, Control_c, 0, 64, 72
2, 120424, Control_c, 0, 64, 73
2, 120440, Control_c, 0, 64, 74
2, 120538, Control_c, 0, 64, 73
2, 120553, Control_c, 0, 64, 73
2, 120569, Control_c, 0, 64, 72
2, 120584, Control_c, 0, 64, 71
2, 120600, Control_c, 0, 64, 70
2, 120614, Control_c, 0, 64, 68
2, 120620, Note_on_c, 0, 55, 0
2, 120621, Note_on_c, 0, 56, 42
2, 120629, Control_c, 0, 64, 66
2, 120632, Note_on_c, 0, 63, 32
2, 120641, Note_on_c, 0, 71, 46
2, 120645, Control_c, 0, 64, 63
2, 120660, Control_c, 0, 64, 59
2, 120676, Control_c, 0, 64, 55
2, 120680, Note_on_c, 0, 70, 0
2, 120691, Control_c, 0, 64, 51
2, 120706, Control_c, 0, 64, 48
2, 120722, Control_c, 0, 64, 46
2, 120737, Control_c, 0, 64, 44
2, 120752, Control_c, 0, 64, 41
2, 120767, Control_c, 0, 64, 38
2, 120782, Control_c, 0, 64, 36
2, 120798, Control_c, 0, 64, 34
2, 120813, Control_c, 0, 64, 33
2, 120828, Control_c, 0, 64, 31
2, 120844, Control_c, 0, 64, 29
2, 120859, Control_c, 0, 64, 28
2, 120872, Note_on_c, 0, 70, 45
2, 120874, Control_c, 0, 64, 27
2, 120890, Control_c, 0, 64, 26
2, 120920, Control_c, 0, 64, 26
2, 120935, Control_c, 0, 64, 25
2, 120980, Control_c, 0, 64, 24
2, 121050, Note_on_c, 0, 63, 0
2, 121055, Note_on_c, 0, 59, 46
2, 121077, Note_on_c, 0, 68, 51
2, 121211, Note_on_c, 0, 56, 0
2, 121256, Note_on_c, 0, 58, 48
2, 121256, Note_on_c, 0, 59, 0
2, 121261, Note_on_c, 0, 61, 59
2, 121283, Note_on_c, 0, 66, 47
2, 121374, Note_on_c, 0, 70, 0
2, 121480, Note_on_c, 0, 59, 69
2, 121483, Note_on_c, 0, 68, 0
2, 121498, Note_on_c, 0, 66, 0
2, 121505, Note_on_c, 0, 56, 51
2, 121511, Note_on_c, 0, 65, 47
2, 121516, Note_on_c, 0, 58, 0
2, 121517, Note_on_c, 0, 61, 0
2, 121654, Note_on_c, 0, 65, 0
2, 121691, Note_on_c, 0, 66, 42
2, 121733, Control_c, 0, 64, 24
2, 121764, Control_c, 0, 64, 23
2, 121779, Control_c, 0, 64, 22
2, 121809, Control_c, 0, 64, 21
2, 121840, Control_c, 0, 64, 20
2, 121877, Note_on_c, 0, 66, 0
2, 121899, Note_on_c, 0, 65, 49
2, 121903, Note_on_c, 0, 62, 66
2, 121921, Note_on_c, 0, 54, 35
2, 121946, Control_c, 0, 64, 21
2, 121961, Control_c, 0, 64, 24
2, 121976, Control_c, 0, 64, 31
2, 121991, Control_c, 0, 64, 36
2, 122007, Control_c, 0, 64, 43
2, 122026, Note_on_c, 0, 59, 0
2, 122029, Control_c, 0, 64, 49
2, 122045, Control_c, 0, 64, 53
2, 122060, Control_c, 0, 64, 55
2, 122076, Control_c, 0, 64, 57
2, 122078, Note_on_c, 0, 65, 0
2, 122091, Control_c, 0, 64, 59
2, 122105, Control_c, 0, 64, 60
2, 122110, Note_on_c, 0, 66, 43
2, 122121, Control_c, 0, 64, 62
2, 122136, Control_c, 0, 64, 64
2, 122151, Control_c, 0, 64, 65
2, 122167, Control_c, 0, 64, 66
2, 122181, Control_c, 0, 64, 66
2, 122272, Control_c, 0, 64, 66
2, 122302, Control_c, 0, 64, 65
2, 122318, Control_c, 0, 64, 64
2, 122319, Note_on_c, 0, 54, 0
2, 122330, Note_on_c, 0, 71, 0
2, 122333, Control_c, 0, 64, 62
2, 122347, Control_c, 0, 64, 61
2, 122360, Note_on_c, 0, 68, 46
2, 122363, Control_c, 0, 64, 58
2, 122369, Note_on_c, 0, 61, 45
2, 122375, Note_on_c, 0, 53, 41
2, 122380, Control_c, 0, 64, 56
2, 122394, Control_c, 0, 64, 52
2, 122410, Control_c, 0, 64, 48
2, 122412, Note_on_c, 0, 56, 0
2, 122419, Note_on_c, 0, 66, 0
2, 122425, Control_c, 0, 64, 44
2, 122441, Control_c, 0, 64, 40
2, 122455, Control_c, 0, 64, 38
2, 122458, Note_on_c, 0, 62, 0
2, 122470, Control_c, 0, 64, 34
2, 122486, Control_c, 0, 64, 30
2, 122501, Control_c, 0, 64, 28
2, 122517, Control_c, 0, 64, 25
2, 122531, Control_c, 0, 64, 23
2, 122546, Control_c, 0, 64, 20
2, 122562, Control_c, 0, 64, 16
2, 122577, Control_c, 0, 64, 14
2, 122585, Note_on_c, 0, 70, 50
2, 122592, Control_c, 0, 64, 12
2, 122608, Control_c, 0, 64, 8
2, 122623, Control_c, 0, 64, 0
2, 122642, Note_on_c, 0, 68, 0
2, 122813, Note_on_c, 0, 71, 50
2, 122842, Note_on_c, 0, 70, 0
2, 122973, Note_on_c, 0, 56, 43
2, 123003, Note_on_c, 0, 61, 0
2, 123207, Note_on_c, 0, 58, 44
2, 123210, Note_on_c, 0, 54, 45
2, 123220, Note_on_c, 0, 61, 40
2, 123248, Note_on_c, 0, 56, 0
2, 123277, Note_on_c, 0, 53, 0
2, 123406, Note_on_c, 0, 58, 0
2, 123419, Note_on_c, 0, 59, 54
2, 123539, Note_on_c, 0, 61, 0
2, 123640, Note_on_c, 0, 61, 63
2, 123662, Note_on_c, 0, 66, 55
2, 123764, Control_c, 0, 64, 21
2, 123779, Control_c, 0, 64, 29
2, 123793, Control_c, 0, 64, 37
2, 123809, Control_c, 0, 64, 45
2, 123824, Control_c, 0, 64, 51
2, 123838, Note_on_c, 0, 61, 0
2, 123839, Control_c, 0, 64, 55
2, 123854, Control_c, 0, 64, 60
2, 123860, Note_on_c, 0, 70, 65
2, 123864, Note_on_c, 0, 54, 0
2, 123869, Control_c, 0, 64, 63
2, 123885, Control_c, 0, 64, 66
2, 123900, Control_c, 0, 64, 69
2, 123914, Control_c, 0, 64, 73
2, 123919, Note_on_c, 0, 71, 0
2, 123926, Note_on_c, 0, 66, 0
2, 123930, Control_c, 0, 64, 76
2, 123945, Control_c, 0, 64, 79
2, 123961, Control_c, 0, 64, 80
2, 123990, Control_c, 0, 64, 80
2, 124006, Control_c, 0, 64, 79
2, 124022, Control_c, 0, 64, 79
2, 124038, Control_c, 0, 64, 78
2, 124053, Control_c, 0, 64, 78
2, 124058, Note_on_c, 0, 49, 59
2, 124068, Control_c, 0, 64, 77
2, 124082, Note_on_c, 0, 70, 0
2, 124084, Control_c, 0, 64, 76
2, 124084, Control_c, 0, 67, 123
2, 124097, Note_on_c, 0, 68, 75
2, 124099, Control_c, 0, 64, 74
2, 124099, Control_c, 0, 67, 110
2, 124114, Control_c, 0, 64, 73
2, 124114, Control_c, 0, 67, 94
2, 124130, Control_c, 0, 64, 72
2, 124130, Control_c, 0, 67, 75
2, 124144, Control_c, 0, 64, 72
2, 124144, Control_c, 0, 67, 55
2, 124151, Note_on_c, 0, 59, 0
2, 124160, Control_c, 0, 64, 71
2, 124160, Control_c, 0, 67, 34
2, 124175, Control_c, 0, 64, 70
2, 124175, Control_c, 0, 67, 12
2, 124190, Control_c, 0, 64, 68
2, 124190, Control_c, 0, 67, 0
2, 124206, Control_c, 0, 64, 67
2, 124220, Control_c, 0, 64, 66
2, 124236, Control_c, 0, 64, 66
2, 124251, Control_c, 0, 64, 65
2, 124265, Control_c, 0, 64, 65
2, 124281, Control_c, 0, 64, 64
2, 124287, Note_on_c, 0, 71, 71
2, 124296, Control_c, 0, 64, 64
2, 124320, Control_c, 0, 64, 63
2, 124335, Control_c, 0, 64, 62
2, 124349, Control_c, 0, 64, 62
2, 124365, Control_c, 0, 64, 61
2, 124380, Control_c, 0, 64, 61
2, 124411, Control_c, 0, 64, 60
2, 124425, Control_c, 0, 64, 60
2, 124441, Control_c, 0, 64, 59
2, 124454, Note_on_c, 0, 68, 0
2, 124456, Control_c, 0, 64, 59
2, 124471, Control_c, 0, 64, 58
2, 124486, Control_c, 0, 64, 58
2, 124497, Note_on_c, 0, 59, 66
2, 124501, Control_c, 0, 64, 57
2, 124512, Note_on_c, 0, 75, 63
2, 124532, Control_c, 0, 64, 56
2, 124547, Control_c, 0, 64, 56
2, 124562, Control_c, 0, 64, 54
2, 124577, Control_c, 0, 64, 53
2, 124592, Control_c, 0, 64, 52
2, 124608, Control_c, 0, 64, 51
2, 124623, Control_c, 0, 64, 50
2, 124638, Control_c, 0, 64, 48
2, 124653, Control_c, 0, 64, 45
2, 124668, Control_c, 0, 64, 42
2, 124684, Control_c, 0, 64, 40
2, 124699, Control_c, 0, 64, 36
2, 124714, Control_c, 0, 64, 34
2, 124714, Note_on_c, 0, 58, 69
2, 124730, Control_c, 0, 64, 31
2, 124744, Control_c, 0, 64, 29
2, 124760, Control_c, 0, 64, 28
2, 124775, Control_c, 0, 64, 26
2, 124790, Control_c, 0, 64, 24
2, 124804, Note_on_c, 0, 59, 0
2, 124806, Control_c, 0, 64, 21
2, 124821, Control_c, 0, 64, 18
2, 124837, Control_c, 0, 64, 14
2, 124852, Control_c, 0, 64, 8
2, 124867, Control_c, 0, 64, 0
2, 124939, Note_on_c, 0, 56, 70
2, 124957, Note_on_c, 0, 65, 50
2, 124988, Note_on_c, 0, 71, 0
2, 125156, Note_on_c, 0, 54, 69
2, 125159, Note_on_c, 0, 58, 0
2, 125198, Note_on_c, 0, 56, 0
2, 125396, Note_on_c, 0, 56, 71
2, 125411, Note_on_c, 0, 54, 0
2, 125423, Note_on_c, 0, 73, 66
2, 125528, Control_c, 0, 64, 43
2, 125542, Control_c, 0, 64, 56
2, 125558, Control_c, 0, 64, 62
2, 125573, Control_c, 0, 64, 66
2, 125588, Control_c, 0, 64, 71
2, 125604, Control_c, 0, 64, 79
2, 125619, Control_c, 0, 64, 99
2, 125631, Note_on_c, 0, 71, 62
2, 125634, Control_c, 0, 64, 127
2, 125688, Note_on_c, 0, 56, 0
2, 125690, Note_on_c, 0, 65, 0
2, 125712, Note_on_c, 0, 49, 0
2, 125981, Note_on_c, 0, 54, 61
2, 125981, Note_on_c, 0, 70, 60
2, 125986, Note_on_c, 0, 66, 50
2, 125988, Note_on_c, 0, 42, 63
2, 125990, Control_c, 0, 64, 108
2, 126006, Control_c, 0, 64, 92
2, 126020, Control_c, 0, 64, 81
2, 126035, Control_c, 0, 64, 71
2, 126037, Note_on_c, 0, 71, 0
2, 126051, Control_c, 0, 64, 64
2, 126066, Control_c, 0, 64, 57
2, 126081, Control_c, 0, 64, 50
2, 126088, Note_on_c, 0, 75, 0
2, 126091, Note_on_c, 0, 73, 0
2, 126097, Control_c, 0, 64, 44
2, 126111, Control_c, 0, 64, 39
2, 126127, Control_c, 0, 64, 31
2, 126142, Control_c, 0, 64, 18
2, 126157, Control_c, 0, 64, 0
2, 126415, Control_c, 0, 64, 34
2, 126430, Control_c, 0, 64, 50
2, 126446, Control_c, 0, 64, 59
2, 126461, Control_c, 0, 64, 64
2, 126476, Control_c, 0, 64, 67
2, 126492, Control_c, 0, 64, 71
2, 126507, Control_c, 0, 64, 76
2, 126523, Control_c, 0, 64, 81
2, 126538, Control_c, 0, 64, 87
2, 126552, Control_c, 0, 64, 92
2, 126568, Control_c, 0, 64, 96
2, 126583, Control_c, 0, 64, 97
2, 126614, Control_c, 0, 64, 96
2, 126636, Control_c, 0, 64, 96
2, 126652, Control_c, 0, 64, 95
2, 126668, Note_on_c, 0, 42, 0
2, 126681, Control_c, 0, 64, 95
2, 126697, Control_c, 0, 64, 94
2, 126712, Control_c, 0, 64, 94
2, 126750, Note_on_c, 0, 70, 0
2, 126757, Control_c, 0, 64, 93
2, 126767, Note_on_c, 0, 66, 0
2, 126773, Control_c, 0, 64, 93
2, 126788, Control_c, 0, 64, 92
2, 126803, Control_c, 0, 64, 91
2, 126818, Control_c, 0, 64, 90
2, 126833, Control_c, 0, 64, 89
2, 126849, Control_c, 0, 64, 87
2, 126864, Control_c, 0, 64, 85
2, 126878, Control_c, 0, 64, 84
2, 126894, Control_c, 0, 64, 81
2, 126909, Control_c, 0, 64, 79
2, 126925, Control_c, 0, 64, 75
2, 126939, Control_c, 0, 64, 71
2, 126954, Control_c, 0, 64, 68
2, 126970, Control_c, 0, 64, 65
2, 126985, Control_c, 0, 64, 62
2, 127000, Control_c, 0, 64, 56
2, 127015, Control_c, 0, 64, 51
2, 127030, Control_c, 0, 64, 47
2, 127038, Note_on_c, 0, 58, 38
2, 127046, Control_c, 0, 64, 45
2, 127061, Control_c, 0, 64, 42
2, 127076, Control_c, 0, 64, 40
2, 127091, Control_c, 0, 64, 37
2, 127106, Control_c, 0, 64, 34
2, 127121, Control_c, 0, 64, 31
2, 127121, Control_c, 0, 67, 9
2, 127137, Control_c, 0, 64, 26
2, 127137, Control_c, 0, 67, 25
2, 127151, Control_c, 0, 64, 22
2, 127151, Control_c, 0, 67, 44
2, 127167, Control_c, 0, 64, 16
2, 127167, Control_c, 0, 67, 59
2, 127173, Note_on_c, 0, 54, 0
2, 127182, Control_c, 0, 64, 8
2, 127182, Control_c, 0, 67, 72
2, 127197, Control_c, 0, 64, 0
2, 127197, Control_c, 0, 67, 85
2, 127213, Control_c, 0, 67, 99
2, 127228, Control_c, 0, 67, 113
2, 127244, Control_c, 0, 67, 127
2, 127983, Note_on_c, 0, 63, 40
2, 128133, Note_on_c, 0, 58, 0
2, 128477, Note_on_c, 0, 78, 40
2, 128685, Note_on_c, 0, 76, 41
2, 128756, Note_on_c, 0, 78, 0
2, 128937, Note_on_c, 0, 75, 45
2, 128937, Note_on_c, 0, 76, 0
2, 128943, Note_on_c, 0, 59, 42
2, 129084, Note_on_c, 0, 63, 0
2, 129170, Note_on_c, 0, 75, 0
2, 129173, Note_on_c, 0, 76, 44
2, 129397, Note_on_c, 0, 76, 0
2, 129414, Note_on_c, 0, 78, 39
2, 129610, Note_on_c, 0, 75, 47
2, 129811, Note_on_c, 0, 78, 0
2, 129833, Note_on_c, 0, 56, 42
2, 129856, Note_on_c, 0, 71, 39
2, 129876, Note_on_c, 0, 75, 0
2, 130034, Note_on_c, 0, 59, 0
2, 130066, Note_on_c, 0, 73, 49
2, 130129, Note_on_c, 0, 71, 0
2, 130264, Note_on_c, 0, 75, 56
2, 130479, Note_on_c, 0, 75, 0
2, 130481, Note_on_c, 0, 71, 55
2, 130492, Note_on_c, 0, 73, 0
2, 130706, Note_on_c, 0, 65, 58
2, 130742, Note_on_c, 0, 68, 47
2, 130763, Note_on_c, 0, 71, 0
2, 130944, Note_on_c, 0, 70, 44
2, 130978, Note_on_c, 0, 68, 0
2, 131020, Note_on_c, 0, 56, 0
2, 131169, Note_on_c, 0, 71, 50
2, 131212, Note_on_c, 0, 70, 0
2, 131620, Note_on_c, 0, 66, 38
2, 131691, Note_on_c, 0, 65, 0
2, 131799, Note_on_c, 0, 71, 0
2, 131850, Note_on_c, 0, 68, 40
2, 132081, Note_on_c, 0, 70, 49
2, 132111, Note_on_c, 0, 68, 0
2, 132264, Note_on_c, 0, 71, 50
2, 132327, Note_on_c, 0, 70, 0
2, 132492, Note_on_c, 0, 73, 52
2, 132512, Note_on_c, 0, 71, 0
2, 132679, Note_on_c, 0, 64, 38
2, 132749, Note_on_c, 0, 66, 0
2, 132914, Note_on_c, 0, 63, 50
2, 132973, Note_on_c, 0, 64, 0
2, 133100, Note_on_c, 0, 73, 0
2, 133110, Note_on_c, 0, 61, 55
2, 133138, Note_on_c, 0, 63, 0
2, 133353, Note_on_c, 0, 61, 0
2, 133357, Note_on_c, 0, 63, 59
2, 133575, Note_on_c, 0, 66, 46
2, 133797, Note_on_c, 0, 59, 43
2, 133820, Note_on_c, 0, 68, 52
2, 133986, Note_on_c, 0, 59, 0
2, 133994, Note_on_c, 0, 58, 47
2, 134028, Note_on_c, 0, 70, 54
2, 134192, Note_on_c, 0, 66, 0
2, 134238, Note_on_c, 0, 56, 46
2, 134244, Note_on_c, 0, 71, 63
2, 134250, Note_on_c, 0, 58, 0
2, 134291, Note_on_c, 0, 68, 0
2, 134316, Note_on_c, 0, 70, 0
2, 134459, Note_on_c, 0, 58, 63
2, 134484, Note_on_c, 0, 63, 0
2, 134521, Note_on_c, 0, 56, 0
2, 134660, Note_on_c, 0, 59, 48
2, 134676, Note_on_c, 0, 63, 68
2, 134717, Note_on_c, 0, 58, 0
2, 134869, Note_on_c, 0, 56, 67
2, 135095, Note_on_c, 0, 52, 52
2, 135101, Note_on_c, 0, 61, 72
2, 135135, Note_on_c, 0, 56, 0
2, 135156, Note_on_c, 0, 63, 0
2, 135294, Note_on_c, 0, 59, 0
2, 135297, Note_on_c, 0, 54, 62
2, 135310, Note_on_c, 0, 63, 75
2, 135321, Note_on_c, 0, 52, 0
2, 135364, Note_on_c, 0, 61, 0
2, 135527, Note_on_c, 0, 64, 77
2, 135532, Note_on_c, 0, 56, 59
2, 135540, Note_on_c, 0, 54, 0
2, 135572, Note_on_c, 0, 63, 0
2, 135714, Note_on_c, 0, 52, 59
2, 135751, Note_on_c, 0, 56, 0
2, 135928, Control_c, 0, 67, 119
2, 135930, Note_on_c, 0, 49, 55
2, 135932, Note_on_c, 0, 70, 70
2, 135942, Control_c, 0, 67, 104
2, 135957, Control_c, 0, 67, 89
2, 135973, Control_c, 0, 67, 75
2, 135978, Note_on_c, 0, 52, 0
2, 135988, Control_c, 0, 67, 62
2, 136004, Control_c, 0, 67, 51
2, 136013, Note_on_c, 0, 71, 0
2, 136018, Control_c, 0, 67, 40
2, 136033, Control_c, 0, 67, 26
2, 136049, Control_c, 0, 67, 12
2, 136064, Control_c, 0, 67, 0
2, 136129, Note_on_c, 0, 51, 66
2, 136137, Note_on_c, 0, 71, 66
2, 136182, Note_on_c, 0, 49, 0
2, 136197, Note_on_c, 0, 70, 0
2, 136348, Note_on_c, 0, 58, 75
2, 136372, Note_on_c, 0, 73, 65
2, 136376, Note_on_c, 0, 52, 55
2, 136410, Note_on_c, 0, 51, 0
2, 136501, Note_on_c, 0, 71, 0
2, 136572, Note_on_c, 0, 64, 0
2, 136572, Note_on_c, 0, 70, 62
2, 136752, Note_on_c, 0, 73, 0
2, 136809, Note_on_c, 0, 66, 65
2, 136820, Note_on_c, 0, 59, 74
2, 136828, Note_on_c, 0, 58, 0
2, 136850, Note_on_c, 0, 70, 0
2, 136938, Control_c, 0, 64, 17
2, 136953, Control_c, 0, 64, 43
2, 136969, Control_c, 0, 64, 53
2, 136982, Note_on_c, 0, 66, 0
2, 136984, Control_c, 0, 64, 60
2, 136998, Note_on_c, 0, 52, 0
2, 136999, Control_c, 0, 64, 64
2, 137015, Control_c, 0, 64, 66
2, 137021, Note_on_c, 0, 49, 65
2, 137030, Control_c, 0, 64, 69
2, 137045, Control_c, 0, 64, 71
2, 137060, Control_c, 0, 64, 73
2, 137075, Control_c, 0, 64, 74
2, 137106, Control_c, 0, 64, 73
2, 137137, Control_c, 0, 64, 73
2, 137152, Control_c, 0, 64, 72
2, 137168, Control_c, 0, 64, 72
2, 137183, Control_c, 0, 64, 70
2, 137198, Control_c, 0, 64, 69
2, 137214, Control_c, 0, 64, 67
2, 137228, Control_c, 0, 64, 65
2, 137228, Note_on_c, 0, 51, 67
2, 137241, Note_on_c, 0, 83, 67
2, 137244, Control_c, 0, 64, 62
2, 137259, Control_c, 0, 64, 59
2, 137273, Control_c, 0, 64, 55
2, 137289, Control_c, 0, 64, 51
2, 137300, Note_on_c, 0, 49, 0
2, 137304, Control_c, 0, 64, 49
2, 137319, Control_c, 0, 64, 46
2, 137335, Control_c, 0, 64, 45
2, 137349, Control_c, 0, 64, 43
2, 137365, Control_c, 0, 64, 41
2, 137387, Control_c, 0, 64, 40
2, 137403, Control_c, 0, 64, 39
2, 137418, Control_c, 0, 64, 38
2, 137433, Control_c, 0, 64, 36
2, 137439, Note_on_c, 0, 82, 75
2, 137449, Control_c, 0, 64, 34
2, 137464, Control_c, 0, 64, 33
2, 137478, Control_c, 0, 64, 32
2, 137494, Control_c, 0, 64, 31
2, 137509, Control_c, 0, 64, 31
2, 137539, Control_c, 0, 64, 30
2, 137569, Control_c, 0, 64, 30
2, 137615, Control_c, 0, 64, 29
2, 137669, Note_on_c, 0, 52, 66
2, 137684, Note_on_c, 0, 80, 66
2, 137706, Control_c, 0, 64, 29
2, 137738, Note_on_c, 0, 51, 0
2, 137747, Note_on_c, 0, 83, 0
2, 137765, Note_on_c, 0, 82, 0
2, 137782, Control_c, 0, 64, 28
2, 137843, Control_c, 0, 64, 28
2, 137858, Control_c, 0, 64, 27
2, 137873, Control_c, 0, 64, 26
2, 137883, Note_on_c, 0, 82, 71
2, 137888, Control_c, 0, 64, 26
2, 137903, Control_c, 0, 64, 24
2, 137918, Control_c, 0, 64, 23
2, 137935, Control_c, 0, 64, 21
2, 137950, Control_c, 0, 64, 20
2, 137966, Control_c, 0, 64, 19
2, 137981, Control_c, 0, 64, 18
2, 137998, Control_c, 0, 64, 17
2, 138028, Control_c, 0, 64, 16
2, 138073, Control_c, 0, 64, 15
2, 138092, Note_on_c, 0, 47, 62
2, 138107, Note_on_c, 0, 83, 68
2, 138149, Note_on_c, 0, 80, 0
2, 138203, Control_c, 0, 64, 14
2, 138230, Note_on_c, 0, 52, 0
2, 138321, Note_on_c, 0, 80, 68
2, 138430, Control_c, 0, 64, 12
2, 138438, Note_on_c, 0, 82, 0
2, 138461, Control_c, 0, 64, 10
2, 138491, Control_c, 0, 64, 8
2, 138503, Note_on_c, 0, 83, 0
2, 138522, Control_c, 0, 64, 0
2, 138544, Note_on_c, 0, 49, 54
2, 138544, Note_on_c, 0, 76, 63
2, 138607, Note_on_c, 0, 80, 0
2, 138744, Note_on_c, 0, 78, 64
2, 138763, Note_on_c, 0, 47, 0
2, 138763, Note_on_c, 0, 51, 66
2, 138794, Note_on_c, 0, 49, 0
2, 138959, Note_on_c, 0, 76, 0
2, 138977, Note_on_c, 0, 52, 55
2, 138985, Note_on_c, 0, 80, 59
2, 139037, Note_on_c, 0, 51, 0
2, 139157, Note_on_c, 0, 78, 0
2, 139169, Note_on_c, 0, 80, 0
2, 139175, Note_on_c, 0, 52, 0
2, 139180, Note_on_c, 0, 49, 54
2, 139180, Note_on_c, 0, 76, 59
2, 139395, Note_on_c, 0, 54, 59
2, 139395, Note_on_c, 0, 73, 56
2, 139450, Note_on_c, 0, 49, 0
2, 139451, Note_on_c, 0, 76, 0
2, 139607, Note_on_c, 0, 58, 68
2, 139614, Note_on_c, 0, 75, 64
2, 139643, Note_on_c, 0, 59, 0
2, 139693, Note_on_c, 0, 73, 0
2, 139850, Note_on_c, 0, 76, 65
2, 139863, Note_on_c, 0, 56, 73
2, 139882, Note_on_c, 0, 58, 0
2, 139904, Note_on_c, 0, 75, 0
2, 140042, Control_c, 0, 64, 33
2, 140057, Control_c, 0, 64, 58
2, 140069, Note_on_c, 0, 58, 77
2, 140072, Control_c, 0, 64, 67
2, 140087, Control_c, 0, 64, 78
2, 140102, Control_c, 0, 64, 127
2, 140117, Note_on_c, 0, 54, 0
2, 140169, Note_on_c, 0, 58, 0
2, 140228, Note_on_c, 0, 56, 0
2, 140386, Note_on_c, 0, 47, 66
2, 140386, Note_on_c, 0, 59, 85
2, 140475, Control_c, 0, 64, 96
2, 140491, Control_c, 0, 64, 80
2, 140506, Control_c, 0, 64, 69
2, 140522, Control_c, 0, 64, 57
2, 140536, Control_c, 0, 64, 37
2, 140551, Control_c, 0, 64, 16
2, 140567, Control_c, 0, 64, 0
2, 140819, Note_on_c, 0, 54, 45
2, 140825, Control_c, 0, 64, 43
2, 140841, Control_c, 0, 64, 61
2, 140855, Control_c, 0, 64, 68
2, 140870, Control_c, 0, 64, 80
2, 140886, Control_c, 0, 64, 127
2, 140951, Note_on_c, 0, 59, 0
2, 141082, Note_on_c, 0, 47, 0
2, 141083, Note_on_c, 0, 59, 53
2, 141089, Note_on_c, 0, 75, 61
2, 141091, Note_on_c, 0, 54, 0
2, 141302, Note_on_c, 0, 73, 65
2, 141306, Note_on_c, 0, 58, 49
2, 141336, Note_on_c, 0, 59, 0
2, 141523, Note_on_c, 0, 76, 0
2, 141528, Note_on_c, 0, 71, 54
2, 141536, Note_on_c, 0, 56, 59
2, 141539, Note_on_c, 0, 58, 0
2, 141549, Note_on_c, 0, 63, 80
2, 141600, Note_on_c, 0, 75, 0
2, 141609, Control_c, 0, 64, 108
2, 141623, Control_c, 0, 64, 86
2, 141639, Control_c, 0, 64, 74
2, 141654, Control_c, 0, 64, 65
2, 141669, Control_c, 0, 64, 48
2, 141685, Control_c, 0, 64, 0
2, 141738, Note_on_c, 0, 73, 0
2, 141758, Note_on_c, 0, 58, 53
2, 141787, Note_on_c, 0, 56, 0
2, 141993, Note_on_c, 0, 59, 58
2, 142022, Note_on_c, 0, 58, 0
2, 142058, Control_c, 0, 64, 48
2, 142072, Control_c, 0, 64, 64
2, 142088, Control_c, 0, 64, 71
2, 142103, Control_c, 0, 64, 83
2, 142119, Control_c, 0, 64, 127
2, 142187, Note_on_c, 0, 56, 66
2, 142252, Note_on_c, 0, 56, 0
2, 142425, Note_on_c, 0, 68, 85
2, 142427, Note_on_c, 0, 52, 59
2, 142453, Control_c, 0, 64, 88
2, 142467, Control_c, 0, 64, 67
2, 142483, Control_c, 0, 64, 10
2, 142498, Control_c, 0, 64, 0
2, 142504, Note_on_c, 0, 59, 0
2, 142532, Note_on_c, 0, 71, 0
2, 142660, Note_on_c, 0, 47, 57
2, 142675, Note_on_c, 0, 52, 0
2, 142905, Note_on_c, 0, 73, 59
2, 142914, Note_on_c, 0, 52, 51
2, 143040, Control_c, 0, 64, 31
2, 143055, Control_c, 0, 64, 61
2, 143069, Control_c, 0, 64, 73
2, 143085, Control_c, 0, 64, 97
2, 143100, Control_c, 0, 64, 127
2, 143123, Note_on_c, 0, 51, 57
2, 143129, Note_on_c, 0, 71, 65
2, 143150, Note_on_c, 0, 47, 0
2, 143176, Note_on_c, 0, 73, 0
2, 143212, Note_on_c, 0, 63, 0
2, 143256, Note_on_c, 0, 52, 0
2, 143327, Note_on_c, 0, 68, 0
2, 143349, Note_on_c, 0, 64, 80
2, 143352, Note_on_c, 0, 49, 61
2, 143359, Note_on_c, 0, 51, 0
2, 143370, Note_on_c, 0, 70, 75
2, 143404, Control_c, 0, 64, 103
2, 143419, Control_c, 0, 64, 80
2, 143434, Control_c, 0, 64, 65
2, 143449, Control_c, 0, 64, 41
2, 143462, Note_on_c, 0, 71, 0
2, 143464, Control_c, 0, 64, 0
2, 143581, Note_on_c, 0, 51, 56
2, 143819, Note_on_c, 0, 68, 78
2, 143826, Note_on_c, 0, 52, 65
2, 143866, Note_on_c, 0, 49, 0
2, 143868, Note_on_c, 0, 51, 0
2, 143929, Control_c, 0, 64, 38
2, 143944, Control_c, 0, 64, 58
2, 143959, Control_c, 0, 64, 66
2, 143974, Control_c, 0, 64, 72
2, 143989, Control_c, 0, 64, 84
2, 144005, Control_c, 0, 64, 121
2, 144020, Control_c, 0, 64, 127
2, 144035, Note_on_c, 0, 68, 0
2, 144042, Note_on_c, 0, 49, 69
2, 144043, Note_on_c, 0, 64, 0
2, 144075, Note_on_c, 0, 52, 0
2, 144097, Note_on_c, 0, 49, 0
2, 144258, Note_on_c, 0, 61, 85
2, 144264, Note_on_c, 0, 46, 59
2, 144284, Note_on_c, 0, 67, 64
2, 144331, Control_c, 0, 64, 105
2, 144346, Control_c, 0, 64, 81
2, 144362, Control_c, 0, 64, 68
2, 144376, Control_c, 0, 64, 54
2, 144391, Control_c, 0, 64, 15
2, 144407, Control_c, 0, 64, 0
2, 144492, Note_on_c, 0, 47, 59
2, 144504, Note_on_c, 0, 70, 0
2, 144692, Note_on_c, 0, 46, 0
2, 144699, Note_on_c, 0, 49, 58
2, 144704, Note_on_c, 0, 64, 73
2, 144721, Note_on_c, 0, 47, 0
2, 144832, Control_c, 0, 64, 41
2, 144848, Control_c, 0, 64, 57
2, 144863, Control_c, 0, 64, 64
2, 144878, Control_c, 0, 64, 69
2, 144887, Note_on_c, 0, 46, 57
2, 144893, Control_c, 0, 64, 76
2, 144902, Note_on_c, 0, 49, 0
2, 144908, Control_c, 0, 64, 88
2, 144923, Control_c, 0, 64, 101
2, 144938, Control_c, 0, 64, 127
2, 144952, Note_on_c, 0, 61, 0
2, 145119, Note_on_c, 0, 70, 80
2, 145129, Control_c, 0, 64, 99
2, 145129, Note_on_c, 0, 43, 59
2, 145138, Note_on_c, 0, 67, 0
2, 145143, Control_c, 0, 64, 87
2, 145159, Control_c, 0, 64, 80
2, 145164, Note_on_c, 0, 63, 56
2, 145170, Note_on_c, 0, 46, 0
2, 145174, Control_c, 0, 64, 74
2, 145189, Control_c, 0, 64, 68
2, 145205, Control_c, 0, 64, 61
2, 145212, Note_on_c, 0, 64, 0
2, 145220, Control_c, 0, 64, 50
2, 145234, Control_c, 0, 64, 38
2, 145250, Control_c, 0, 64, 33
2, 145265, Control_c, 0, 64, 25
2, 145281, Control_c, 0, 64, 0
2, 145337, Note_on_c, 0, 44, 58
2, 145374, Note_on_c, 0, 43, 0
2, 145465, Note_on_c, 0, 63, 0
2, 145551, Note_on_c, 0, 46, 63
2, 145566, Note_on_c, 0, 68, 72
2, 145570, Control_c, 0, 64, 17
2, 145585, Control_c, 0, 64, 28
2, 145589, Note_on_c, 0, 44, 0
2, 145601, Control_c, 0, 64, 34
2, 145611, Note_on_c, 0, 61, 28
2, 145616, Control_c, 0, 64, 40
2, 145631, Control_c, 0, 64, 45
2, 145646, Control_c, 0, 64, 51
2, 145661, Control_c, 0, 64, 57
2, 145677, Control_c, 0, 64, 61
2, 145692, Control_c, 0, 64, 63
2, 145707, Control_c, 0, 64, 64
2, 145722, Control_c, 0, 64, 64
2, 145737, Control_c, 0, 64, 65
2, 145752, Control_c, 0, 64, 65
2, 145761, Note_on_c, 0, 67, 72
2, 145767, Control_c, 0, 64, 65
2, 145813, Control_c, 0, 64, 64
2, 145828, Note_on_c, 0, 70, 0
2, 145842, Note_on_c, 0, 61, 0
2, 145851, Control_c, 0, 64, 64
2, 145866, Control_c, 0, 64, 63
2, 145882, Control_c, 0, 64, 63
2, 145897, Control_c, 0, 64, 62
2, 145912, Control_c, 0, 64, 61
2, 145927, Control_c, 0, 64, 60
2, 145942, Control_c, 0, 64, 59
2, 145958, Control_c, 0, 64, 57
2, 145973, Control_c, 0, 64, 55
2, 145987, Control_c, 0, 64, 53
2, 145992, Note_on_c, 0, 71, 79
2, 146003, Control_c, 0, 64, 47
2, 146006, Note_on_c, 0, 63, 55
2, 146018, Control_c, 0, 64, 37
2, 146033, Control_c, 0, 64, 25
2, 146049, Control_c, 0, 64, 12
2, 146051, Note_on_c, 0, 67, 0
2, 146063, Control_c, 0, 64, 0
2, 146191, Note_on_c, 0, 44, 57
2, 146228, Note_on_c, 0, 46, 0
2, 146397, Note_on_c, 0, 46, 57
2, 146438, Note_on_c, 0, 44, 0
2, 146615, Note_on_c, 0, 47, 57
2, 146633, Note_on_c, 0, 46, 0
2, 146660, Note_on_c, 0, 63, 0
2, 146758, Note_on_c, 0, 71, 0
2, 146847, Note_on_c, 0, 49, 42
2, 146869, Note_on_c, 0, 64, 53
2, 146889, Note_on_c, 0, 47, 0
2, 147046, Note_on_c, 0, 71, 55
2, 147051, Note_on_c, 0, 68, 0
2, 147259, Note_on_c, 0, 70, 65
2, 147305, Control_c, 0, 64, 34
2, 147320, Control_c, 0, 64, 45
2, 147335, Control_c, 0, 64, 51
2, 147341, Note_on_c, 0, 71, 0
2, 147350, Control_c, 0, 64, 57
2, 147373, Control_c, 0, 64, 62
2, 147387, Control_c, 0, 64, 65
2, 147403, Control_c, 0, 64, 67
2, 147418, Control_c, 0, 64, 70
2, 147433, Control_c, 0, 64, 74
2, 147449, Control_c, 0, 64, 79
2, 147464, Control_c, 0, 64, 85
2, 147475, Note_on_c, 0, 68, 68
2, 147479, Control_c, 0, 64, 92
2, 147494, Control_c, 0, 64, 100
2, 147499, Note_on_c, 0, 70, 0
2, 147509, Control_c, 0, 64, 105
2, 147525, Control_c, 0, 64, 106
2, 147542, Note_on_c, 0, 68, 0
2, 147555, Control_c, 0, 64, 105
2, 147571, Control_c, 0, 64, 104
2, 147586, Control_c, 0, 64, 103
2, 147601, Control_c, 0, 64, 102
2, 147616, Control_c, 0, 64, 100
2, 147631, Control_c, 0, 64, 99
2, 147647, Control_c, 0, 64, 98
2, 147662, Control_c, 0, 64, 96
2, 147677, Control_c, 0, 64, 93
2, 147683, Note_on_c, 0, 66, 68
2, 147692, Control_c, 0, 64, 88
2, 147707, Control_c, 0, 64, 83
2, 147715, Note_on_c, 0, 63, 57
2, 147723, Control_c, 0, 64, 78
2, 147738, Control_c, 0, 64, 74
2, 147752, Control_c, 0, 64, 68
2, 147769, Control_c, 0, 64, 63
2, 147784, Control_c, 0, 64, 54
2, 147800, Control_c, 0, 64, 48
2, 147815, Control_c, 0, 64, 46
2, 147829, Control_c, 0, 64, 44
2, 147845, Control_c, 0, 64, 43
2, 147860, Control_c, 0, 64, 41
2, 147871, Note_on_c, 0, 64, 0
2, 147875, Control_c, 0, 64, 38
2, 147891, Control_c, 0, 64, 36
2, 147891, Note_on_c, 0, 42, 54
2, 147901, Note_on_c, 0, 61, 61
2, 147905, Control_c, 0, 64, 34
2, 147921, Control_c, 0, 64, 33
2, 147936, Control_c, 0, 64, 32
2, 147951, Control_c, 0, 64, 31
2, 147967, Control_c, 0, 64, 29
2, 147981, Control_c, 0, 64, 28
2, 147982, Note_on_c, 0, 49, 0
2, 147997, Control_c, 0, 64, 27
2, 148012, Control_c, 0, 64, 26
2, 148026, Control_c, 0, 64, 25
2, 148042, Control_c, 0, 64, 24
2, 148057, Control_c, 0, 64, 24
2, 148092, Note_on_c, 0, 44, 63
2, 148105, Control_c, 0, 64, 23
2, 148112, Note_on_c, 0, 59, 69
2, 148145, Note_on_c, 0, 42, 0
2, 148155, Note_on_c, 0, 63, 0
2, 148250, Note_on_c, 0, 61, 0
2, 148319, Note_on_c, 0, 46, 64
2, 148340, Note_on_c, 0, 61, 76
2, 148364, Note_on_c, 0, 59, 0
2, 148408, Note_on_c, 0, 44, 0
2, 148544, Note_on_c, 0, 47, 67
2, 148557, Note_on_c, 0, 66, 0
2, 148561, Note_on_c, 0, 62, 75
2, 148588, Note_on_c, 0, 46, 0
2, 148615, Note_on_c, 0, 61, 0
2, 148763, Note_on_c, 0, 69, 69
2, 148826, Control_c, 0, 64, 21
2, 148842, Control_c, 0, 64, 20
2, 148857, Control_c, 0, 64, 19
2, 148873, Control_c, 0, 64, 16
2, 148888, Control_c, 0, 64, 10
2, 148911, Control_c, 0, 64, 0
2, 148982, Note_on_c, 0, 68, 74
2, 149062, Control_c, 0, 64, 16
2, 149078, Control_c, 0, 64, 26
2, 149092, Control_c, 0, 64, 34
2, 149107, Control_c, 0, 64, 40
2, 149123, Control_c, 0, 64, 46
2, 149138, Control_c, 0, 64, 51
2, 149154, Control_c, 0, 64, 55
2, 149169, Control_c, 0, 64, 58
2, 149174, Note_on_c, 0, 66, 69
2, 149184, Control_c, 0, 64, 61
2, 149188, Note_on_c, 0, 62, 0
2, 149200, Control_c, 0, 64, 63
2, 149203, Note_on_c, 0, 69, 0
2, 149215, Control_c, 0, 64, 65
2, 149231, Control_c, 0, 64, 66
2, 149245, Control_c, 0, 64, 67
2, 149260, Control_c, 0, 64, 69
2, 149276, Control_c, 0, 64, 70
2, 149290, Control_c, 0, 64, 71
2, 149305, Control_c, 0, 64, 72
2, 149336, Control_c, 0, 64, 71
2, 149352, Control_c, 0, 64, 71
2, 149366, Control_c, 0, 64, 70
2, 149381, Control_c, 0, 64, 70
2, 149396, Note_on_c, 0, 68, 0
2, 149397, Control_c, 0, 64, 69
2, 149399, Note_on_c, 0, 65, 71
2, 149404, Note_on_c, 0, 61, 51
2, 149413, Control_c, 0, 64, 67
2, 149428, Control_c, 0, 64, 66
2, 149444, Control_c, 0, 64, 65
2, 149452, Note_on_c, 0, 66, 0
2, 149458, Control_c, 0, 64, 64
2, 149474, Control_c, 0, 64, 63
2, 149489, Control_c, 0, 64, 61
2, 149504, Control_c, 0, 64, 56
2, 149519, Control_c, 0, 64, 49
2, 149534, Control_c, 0, 64, 40
2, 149550, Control_c, 0, 64, 25
2, 149565, Control_c, 0, 64, 0
2, 149587, Note_on_c, 0, 46, 61
2, 149603, Note_on_c, 0, 66, 70
2, 149619, Note_on_c, 0, 47, 0
2, 149725, Note_on_c, 0, 65, 0
2, 149805, Note_on_c, 0, 47, 69
2, 149811, Note_on_c, 0, 68, 78
2, 149834, Note_on_c, 0, 46, 0
2, 149856, Note_on_c, 0, 66, 0
2, 150005, Note_on_c, 0, 49, 66
2, 150006, Note_on_c, 0, 65, 72
2, 150034, Note_on_c, 0, 47, 0
2, 150049, Note_on_c, 0, 68, 0
2, 150265, Note_on_c, 0, 51, 78
2, 150274, Note_on_c, 0, 66, 65
2, 150314, Note_on_c, 0, 49, 0
2, 150342, Note_on_c, 0, 61, 0
2, 150343, Note_on_c, 0, 65, 0
2, 150523, Note_on_c, 0, 59, 71
2, 150731, Note_on_c, 0, 58, 74
2, 150733, Note_on_c, 0, 49, 73
2, 150791, Note_on_c, 0, 51, 0
2, 150794, Note_on_c, 0, 59, 0
2, 150937, Note_on_c, 0, 59, 73
2, 151005, Note_on_c, 0, 58, 0
2, 151162, Note_on_c, 0, 56, 79
2, 151167, Note_on_c, 0, 47, 67
2, 151259, Note_on_c, 0, 49, 0
2, 151285, Note_on_c, 0, 59, 0
2, 151367, Note_on_c, 0, 44, 68
2, 151452, Note_on_c, 0, 47, 0
2, 151569, Note_on_c, 0, 46, 73
2, 151646, Note_on_c, 0, 44, 0
2, 151766, Note_on_c, 0, 47, 80
2, 151800, Note_on_c, 0, 46, 0
2, 151988, Note_on_c, 0, 65, 76
2, 151991, Note_on_c, 0, 49, 71
2, 152033, Note_on_c, 0, 47, 0
2, 152036, Note_on_c, 0, 56, 0
2, 152085, Note_on_c, 0, 66, 0
2, 152234, Note_on_c, 0, 56, 53
2, 152387, Note_on_c, 0, 56, 0
2, 152410, Note_on_c, 0, 58, 61
2, 152411, Note_on_c, 0, 47, 75
2, 152462, Note_on_c, 0, 49, 0
2, 152534, Note_on_c, 0, 58, 0
2, 152610, Note_on_c, 0, 59, 67
2, 152636, Control_c, 0, 64, 15
2, 152651, Control_c, 0, 64, 29
2, 152665, Control_c, 0, 64, 36
2, 152682, Control_c, 0, 64, 40
2, 152697, Control_c, 0, 64, 43
2, 152713, Control_c, 0, 64, 46
2, 152728, Control_c, 0, 64, 50
2, 152751, Control_c, 0, 64, 55
2, 152765, Control_c, 0, 64, 57
2, 152780, Control_c, 0, 64, 57
2, 152827, Note_on_c, 0, 66, 77
2, 152850, Note_on_c, 0, 61, 54
2, 152876, Note_on_c, 0, 47, 0
2, 152947, Control_c, 0, 64, 56
2, 152963, Control_c, 0, 64, 55
2, 152978, Control_c, 0, 64, 54
2, 152994, Control_c, 0, 64, 53
2, 153009, Control_c, 0, 64, 51
2, 153023, Control_c, 0, 64, 49
2, 153039, Control_c, 0, 64, 46
2, 153054, Control_c, 0, 64, 44
2, 153063, Note_on_c, 0, 65, 0
2, 153064, Note_on_c, 0, 47, 60
2, 153070, Control_c, 0, 64, 40
2, 153085, Control_c, 0, 64, 36
2, 153099, Control_c, 0, 64, 29
2, 153115, Control_c, 0, 64, 20
2, 153130, Control_c, 0, 64, 0
2, 153155, Note_on_c, 0, 59, 0
2, 153290, Note_on_c, 0, 46, 65
2, 153381, Note_on_c, 0, 47, 0
2, 153478, Note_on_c, 0, 44, 62
2, 153530, Note_on_c, 0, 46, 0
2, 153732, Note_on_c, 0, 42, 62
2, 153757, Note_on_c, 0, 70, 79
2, 153765, Note_on_c, 0, 44, 0
2, 153850, Note_on_c, 0, 61, 0
2, 153902, Note_on_c, 0, 66, 0
2, 153941, Control_c, 0, 64, 22
2, 153957, Control_c, 0, 64, 45
2, 153972, Control_c, 0, 64, 56
2, 153984, Note_on_c, 0, 64, 69
2, 153987, Control_c, 0, 64, 62
2, 154001, Note_on_c, 0, 42, 0
2, 154002, Control_c, 0, 64, 64
2, 154017, Control_c, 0, 64, 65
2, 154032, Control_c, 0, 64, 67
2, 154048, Control_c, 0, 64, 69
2, 154063, Control_c, 0, 64, 71
2, 154078, Control_c, 0, 64, 72
2, 154139, Control_c, 0, 64, 71
2, 154153, Control_c, 0, 64, 71
2, 154184, Control_c, 0, 64, 70
2, 154190, Note_on_c, 0, 63, 79
2, 154200, Control_c, 0, 64, 69
2, 154214, Control_c, 0, 64, 69
2, 154229, Control_c, 0, 64, 68
2, 154245, Control_c, 0, 64, 66
2, 154260, Control_c, 0, 64, 64
2, 154283, Control_c, 0, 64, 61
2, 154298, Control_c, 0, 64, 55
2, 154313, Control_c, 0, 64, 50
2, 154330, Control_c, 0, 64, 45
2, 154345, Control_c, 0, 64, 40
2, 154358, Control_c, 0, 64, 32
2, 154373, Control_c, 0, 64, 22
2, 154388, Control_c, 0, 64, 0
2, 154408, Note_on_c, 0, 61, 77
2, 154430, Note_on_c, 0, 63, 0
2, 154662, Note_on_c, 0, 59, 64
2, 154680, Note_on_c, 0, 75, 90
2, 154693, Note_on_c, 0, 61, 0
2, 154735, Note_on_c, 0, 70, 0
2, 154929, Note_on_c, 0, 51, 65
2, 155142, Note_on_c, 0, 53, 64
2, 155145, Note_on_c, 0, 71, 76
2, 155182, Note_on_c, 0, 51, 0
2, 155308, Control_c, 0, 64, 40
2, 155324, Control_c, 0, 64, 58
2, 155331, Note_on_c, 0, 64, 0
2, 155339, Control_c, 0, 64, 64
2, 155346, Note_on_c, 0, 55, 68
2, 155349, Note_on_c, 0, 70, 82
2, 155353, Control_c, 0, 64, 69
2, 155369, Control_c, 0, 64, 77
2, 155380, Note_on_c, 0, 53, 0
2, 155384, Control_c, 0, 64, 88
2, 155399, Control_c, 0, 64, 103
2, 155400, Note_on_c, 0, 59, 0
2, 155415, Control_c, 0, 64, 127
2, 155426, Note_on_c, 0, 71, 0
2, 155463, Note_on_c, 0, 75, 0
2, 155595, Note_on_c, 0, 71, 88
2, 155606, Note_on_c, 0, 56, 70
2, 155608, Note_on_c, 0, 68, 72
2, 155622, Note_on_c, 0, 70, 0
2, 155628, Note_on_c, 0, 55, 0
2, 155658, Control_c, 0, 64, 94
2, 155672, Control_c, 0, 64, 77
2, 155688, Control_c, 0, 64, 65
2, 155703, Control_c, 0, 64, 38
2, 155718, Control_c, 0, 64, 0
2, 155888, Note_on_c, 0, 55, 63
2, 155895, Note_on_c, 0, 70, 69
2, 155931, Note_on_c, 0, 56, 0
2, 155931, Note_on_c, 0, 68, 0
2, 155973, Note_on_c, 0, 71, 0
2, 156107, Control_c, 0, 64, 12
2, 156117, Note_on_c, 0, 71, 75
2, 156121, Control_c, 0, 64, 32
2, 156121, Note_on_c, 0, 56, 77
2, 156137, Control_c, 0, 64, 45
2, 156152, Control_c, 0, 64, 55
2, 156167, Note_on_c, 0, 55, 0
2, 156168, Control_c, 0, 64, 60
2, 156183, Control_c, 0, 64, 62
2, 156197, Control_c, 0, 64, 63
2, 156213, Control_c, 0, 64, 64
2, 156228, Control_c, 0, 64, 65
2, 156244, Control_c, 0, 64, 67
2, 156259, Control_c, 0, 64, 68
2, 156273, Control_c, 0, 64, 70
2, 156289, Control_c, 0, 64, 74
2, 156304, Control_c, 0, 64, 77
2, 156308, Note_on_c, 0, 68, 73
2, 156318, Control_c, 0, 64, 79
2, 156334, Control_c, 0, 64, 80
2, 156349, Control_c, 0, 64, 79
2, 156372, Note_on_c, 0, 68, 0
2, 156380, Control_c, 0, 64, 79
2, 156405, Note_on_c, 0, 70, 0
2, 156411, Control_c, 0, 64, 78
2, 156456, Control_c, 0, 64, 79
2, 156471, Control_c, 0, 64, 79
2, 156487, Control_c, 0, 64, 80
2, 156502, Control_c, 0, 64, 83
2, 156510, Note_on_c, 0, 68, 59
2, 156516, Control_c, 0, 64, 88
2, 156527, Note_on_c, 0, 65, 87
2, 156532, Control_c, 0, 64, 98
2, 156547, Control_c, 0, 64, 127
2, 156695, Note_on_c, 0, 56, 0
2, 156747, Note_on_c, 0, 66, 72
2, 156782, Note_on_c, 0, 68, 0
2, 156957, Note_on_c, 0, 59, 87
2, 156961, Note_on_c, 0, 68, 85
2, 156966, Note_on_c, 0, 56, 66
2, 157000, Note_on_c, 0, 65, 0
2, 157012, Control_c, 0, 64, 83
2, 157027, Control_c, 0, 64, 64
2, 157034, Note_on_c, 0, 71, 0
2, 157041, Control_c, 0, 64, 0
2, 157087, Control_c, 0, 64, 39
2, 157102, Control_c, 0, 64, 60
2, 157117, Control_c, 0, 64, 70
2, 157126, Note_on_c, 0, 66, 0
2, 157133, Control_c, 0, 64, 86
2, 157146, Note_on_c, 0, 68, 0
2, 157148, Control_c, 0, 64, 127
2, 157152, Note_on_c, 0, 65, 87
2, 157178, Note_on_c, 0, 59, 0
2, 157372, Note_on_c, 0, 62, 68
2, 157379, Note_on_c, 0, 58, 68
2, 157393, Note_on_c, 0, 77, 95
2, 157414, Control_c, 0, 64, 91
2, 157429, Control_c, 0, 64, 65
2, 157435, Note_on_c, 0, 65, 0
2, 157444, Control_c, 0, 64, 0
2, 157475, Note_on_c, 0, 56, 0
2, 157614, Note_on_c, 0, 63, 82
2, 157630, Note_on_c, 0, 75, 27
2, 157764, Note_on_c, 0, 63, 0
2, 157801, Note_on_c, 0, 50, 70
2, 157815, Note_on_c, 0, 75, 0
2, 157817, Note_on_c, 0, 65, 78
2, 157826, Note_on_c, 0, 58, 0
2, 157871, Control_c, 0, 64, 47
2, 157886, Control_c, 0, 64, 60
2, 157901, Control_c, 0, 64, 64
2, 157916, Control_c, 0, 64, 65
2, 157931, Control_c, 0, 64, 66
2, 157961, Control_c, 0, 64, 66
2, 157977, Control_c, 0, 64, 67
2, 158000, Note_on_c, 0, 56, 78
2, 158025, Note_on_c, 0, 50, 0
2, 158039, Note_on_c, 0, 62, 0
2, 158167, Control_c, 0, 64, 66
2, 158197, Control_c, 0, 64, 65
2, 158212, Control_c, 0, 64, 64
2, 158227, Control_c, 0, 64, 63
2, 158230, Note_on_c, 0, 54, 67
2, 158232, Note_on_c, 0, 78, 81
2, 158233, Note_on_c, 0, 51, 65
2, 158242, Control_c, 0, 64, 61
2, 158247, Note_on_c, 0, 56, 0
2, 158258, Control_c, 0, 64, 55
2, 158264, Note_on_c, 0, 65, 0
2, 158274, Control_c, 0, 64, 45
2, 158289, Control_c, 0, 64, 29
2, 158304, Control_c, 0, 64, 10
2, 158304, Note_on_c, 0, 77, 0
2, 158319, Control_c, 0, 64, 0
2, 158440, Note_on_c, 0, 63, 68
2, 158486, Note_on_c, 0, 51, 0
2, 158510, Note_on_c, 0, 54, 0
2, 158645, Note_on_c, 0, 65, 77
2, 158676, Note_on_c, 0, 63, 0
2, 158838, Note_on_c, 0, 66, 74
2, 158878, Note_on_c, 0, 65, 0
2, 159073, Note_on_c, 0, 68, 78
2, 159129, Note_on_c, 0, 66, 0
2, 159263, Note_on_c, 0, 77, 78
2, 159312, Note_on_c, 0, 78, 0
2, 159476, Note_on_c, 0, 78, 82
2, 159569, Note_on_c, 0, 77, 0
2, 159684, Note_on_c, 0, 80, 81
2, 159904, Note_on_c, 0, 82, 86
2, 159934, Note_on_c, 0, 78, 0
2, 159998, Note_on_c, 0, 80, 0
2, 160092, Note_on_c, 0, 66, 62
2, 160108, Note_on_c, 0, 68, 0
2, 160281, Control_c, 0, 64, 8
2, 160296, Control_c, 0, 64, 10
2, 160311, Control_c, 0, 64, 12
2, 160311, Note_on_c, 0, 68, 75
2, 160327, Control_c, 0, 64, 14
2, 160342, Control_c, 0, 64, 16
2, 160357, Control_c, 0, 64, 17
2, 160373, Control_c, 0, 64, 18
2, 160387, Control_c, 0, 64, 19
2, 160390, Note_on_c, 0, 66, 0
2, 160402, Control_c, 0, 64, 20
2, 160425, Control_c, 0, 64, 21
2, 160440, Control_c, 0, 64, 22
2, 160456, Control_c, 0, 64, 24
2, 160470, Control_c, 0, 64, 24
2, 160501, Control_c, 0, 64, 25
2, 160516, Note_on_c, 0, 70, 79
2, 160547, Control_c, 0, 64, 26
2, 160588, Note_on_c, 0, 68, 0
2, 160593, Control_c, 0, 64, 26
2, 160617, Note_on_c, 0, 82, 0
2, 160638, Control_c, 0, 64, 27
2, 160733, Note_on_c, 0, 71, 84
2, 160782, Note_on_c, 0, 70, 0
2, 160921, Note_on_c, 0, 82, 73
2, 161121, Note_on_c, 0, 80, 78
2, 161345, Note_on_c, 0, 78, 86
2, 161411, Note_on_c, 0, 82, 0
2, 161556, Control_c, 0, 64, 28
2, 161562, Note_on_c, 0, 77, 89
2, 161576, Note_on_c, 0, 71, 0
2, 161596, Note_on_c, 0, 80, 0
2, 161617, Control_c, 0, 64, 28
2, 161645, Note_on_c, 0, 78, 0
2, 161648, Control_c, 0, 64, 29
2, 161749, Note_on_c, 0, 71, 79
2, 161907, Control_c, 0, 64, 29
2, 161962, Note_on_c, 0, 70, 76
2, 161969, Note_on_c, 0, 79, 85
2, 161993, Note_on_c, 0, 71, 0
2, 162054, Note_on_c, 0, 77, 0
2, 162170, Note_on_c, 0, 80, 87
2, 162171, Note_on_c, 0, 68, 81
2, 162189, Control_c, 0, 64, 29
2, 162204, Control_c, 0, 64, 26
2, 162219, Control_c, 0, 64, 24
2, 162219, Note_on_c, 0, 70, 0
2, 162234, Control_c, 0, 64, 21
2, 162236, Note_on_c, 0, 79, 0
2, 162250, Control_c, 0, 64, 18
2, 162265, Control_c, 0, 64, 15
2, 162279, Control_c, 0, 64, 10
2, 162295, Control_c, 0, 64, 0
2, 162387, Note_on_c, 0, 70, 88
2, 162387, Note_on_c, 0, 79, 86
2, 162418, Note_on_c, 0, 68, 0
2, 162431, Note_on_c, 0, 80, 0
2, 162592, Note_on_c, 0, 80, 88
2, 162609, Note_on_c, 0, 79, 0
2, 162611, Note_on_c, 0, 71, 85
2, 162618, Note_on_c, 0, 70, 0
2, 162834, Note_on_c, 0, 82, 89
2, 162837, Note_on_c, 0, 73, 93
2, 162847, Note_on_c, 0, 71, 0
2, 162851, Control_c, 0, 64, 50
2, 162864, Note_on_c, 0, 80, 0
2, 162866, Control_c, 0, 64, 69
2, 162880, Control_c, 0, 64, 95
2, 162896, Control_c, 0, 64, 127
2, 162941, Note_on_c, 0, 73, 0
2, 163051, Note_on_c, 0, 82, 0
2, 163067, Note_on_c, 0, 79, 87
2, 163373, Note_on_c, 0, 44, 85
2, 163384, Note_on_c, 0, 75, 88
2, 163496, Note_on_c, 0, 79, 0
2, 163497, Control_c, 0, 64, 91
2, 163512, Control_c, 0, 64, 75
2, 163528, Control_c, 0, 64, 63
2, 163543, Control_c, 0, 64, 46
2, 163558, Control_c, 0, 64, 42
2, 163760, Note_on_c, 0, 73, 70
2, 163831, Control_c, 0, 64, 43
2, 163846, Control_c, 0, 64, 43
2, 163876, Control_c, 0, 64, 44
2, 163892, Control_c, 0, 64, 45
2, 163907, Control_c, 0, 64, 46
2, 163922, Control_c, 0, 64, 48
2, 163938, Control_c, 0, 64, 50
2, 163953, Control_c, 0, 64, 52
2, 163968, Control_c, 0, 64, 54
2, 163983, Control_c, 0, 64, 56
2, 163998, Control_c, 0, 64, 59
2, 163998, Note_on_c, 0, 71, 69
2, 164014, Control_c, 0, 64, 61
2, 164019, Note_on_c, 0, 73, 0
2, 164029, Control_c, 0, 64, 64
2, 164044, Control_c, 0, 64, 66
2, 164059, Control_c, 0, 64, 69
2, 164074, Control_c, 0, 64, 72
2, 164090, Control_c, 0, 64, 78
2, 164104, Control_c, 0, 64, 86
2, 164119, Control_c, 0, 64, 99
2, 164135, Control_c, 0, 64, 127
2, 164194, Note_on_c, 0, 70, 69
2, 164237, Note_on_c, 0, 71, 0
2, 164433, Note_on_c, 0, 47, 88
2, 164439, Note_on_c, 0, 68, 71
2, 164477, Note_on_c, 0, 70, 0
2, 164493, Control_c, 0, 64, 91
2, 164506, Note_on_c, 0, 44, 0
2, 164508, Control_c, 0, 64, 78
2, 164523, Control_c, 0, 64, 68
2, 164538, Control_c, 0, 64, 59
2, 164553, Control_c, 0, 64, 49
2, 164569, Control_c, 0, 64, 46
2, 164584, Control_c, 0, 64, 45
2, 164599, Control_c, 0, 64, 40
2, 164614, Control_c, 0, 64, 32
2, 164629, Control_c, 0, 64, 18
2, 164645, Control_c, 0, 64, 0
2, 164652, Note_on_c, 0, 70, 67
2, 164743, Note_on_c, 0, 68, 0
2, 164872, Note_on_c, 0, 71, 68
2, 164934, Control_c, 0, 64, 36
2, 164948, Control_c, 0, 64, 49
2, 164965, Control_c, 0, 64, 57
2, 164980, Control_c, 0, 64, 64
2, 164995, Control_c, 0, 64, 70
2, 165011, Control_c, 0, 64, 80
2, 165033, Control_c, 0, 64, 107
2, 165048, Control_c, 0, 64, 127
2, 165060, Note_on_c, 0, 47, 0
2, 165109, Note_on_c, 0, 68, 66
2, 165342, Note_on_c, 0, 52, 81
2, 165350, Note_on_c, 0, 61, 74
2, 165414, Note_on_c, 0, 71, 0
2, 165438, Note_on_c, 0, 68, 0
2, 165442, Note_on_c, 0, 75, 0
2, 165463, Note_on_c, 0, 70, 0
2, 165473, Control_c, 0, 64, 102
2, 165489, Control_c, 0, 64, 77
2, 165504, Control_c, 0, 64, 61
2, 165519, Control_c, 0, 64, 0
2, 165625, Control_c, 0, 64, 18
2, 165635, Note_on_c, 0, 60, 81
2, 165640, Control_c, 0, 64, 46
2, 165656, Control_c, 0, 64, 58
2, 165671, Control_c, 0, 64, 64
2, 165687, Control_c, 0, 64, 69
2, 165702, Control_c, 0, 64, 75
2, 165717, Control_c, 0, 64, 84
2, 165732, Control_c, 0, 64, 99
2, 165747, Control_c, 0, 64, 127
2, 165778, Note_on_c, 0, 61, 0
2, 165854, Note_on_c, 0, 80, 90
2, 165859, Note_on_c, 0, 61, 89
2, 165864, Note_on_c, 0, 74, 35
2, 165877, Control_c, 0, 64, 85
2, 165885, Note_on_c, 0, 60, 0
2, 165892, Control_c, 0, 64, 66
2, 165903, Note_on_c, 0, 74, 0
2, 165907, Control_c, 0, 64, 53
2, 165922, Control_c, 0, 64, 55
2, 165938, Control_c, 0, 64, 61
2, 165953, Control_c, 0, 64, 67
2, 165968, Control_c, 0, 64, 78
2, 165983, Control_c, 0, 64, 127
2, 166057, Note_on_c, 0, 52, 0
2, 166058, Note_on_c, 0, 78, 89
2, 166282, Note_on_c, 0, 76, 88
2, 166289, Note_on_c, 0, 49, 83
2, 166320, Note_on_c, 0, 80, 0
2, 166349, Note_on_c, 0, 78, 0
2, 166454, Control_c, 0, 64, 103
2, 166469, Control_c, 0, 64, 82
2, 166485, Control_c, 0, 64, 69
2, 166499, Note_on_c, 0, 78, 85
2, 166500, Control_c, 0, 64, 55
2, 166515, Control_c, 0, 64, 40
2, 166530, Control_c, 0, 64, 39
2, 166568, Control_c, 0, 64, 38
2, 166583, Control_c, 0, 64, 37
2, 166598, Control_c, 0, 64, 35
2, 166615, Control_c, 0, 64, 32
2, 166630, Control_c, 0, 64, 29
2, 166646, Control_c, 0, 64, 26
2, 166660, Control_c, 0, 64, 18
2, 166675, Control_c, 0, 64, 0
2, 166753, Note_on_c, 0, 80, 90
2, 166766, Note_on_c, 0, 68, 68
2, 166777, Note_on_c, 0, 76, 0
2, 166793, Note_on_c, 0, 61, 0
2, 166827, Control_c, 0, 64, 21
2, 166842, Control_c, 0, 64, 41
2, 166858, Control_c, 0, 64, 53
2, 166872, Control_c, 0, 64, 60
2, 166888, Control_c, 0, 64, 65
2, 166903, Control_c, 0, 64, 69
2, 166918, Control_c, 0, 64, 75
2, 166934, Control_c, 0, 64, 83
2, 166949, Control_c, 0, 64, 93
2, 166965, Control_c, 0, 64, 107
2, 166980, Control_c, 0, 64, 127
2, 167019, Note_on_c, 0, 76, 73
2, 167213, Note_on_c, 0, 46, 81
2, 167246, Note_on_c, 0, 73, 69
2, 167268, Control_c, 0, 64, 104
2, 167274, Note_on_c, 0, 76, 0
2, 167282, Control_c, 0, 64, 94
2, 167298, Control_c, 0, 64, 86
2, 167313, Control_c, 0, 64, 79
2, 167337, Control_c, 0, 64, 73
2, 167352, Control_c, 0, 64, 67
2, 167359, Note_on_c, 0, 80, 0
2, 167367, Control_c, 0, 64, 61
2, 167370, Note_on_c, 0, 49, 0
2, 167382, Control_c, 0, 64, 55
2, 167397, Control_c, 0, 64, 53
2, 167412, Control_c, 0, 64, 53
2, 167443, Control_c, 0, 64, 52
2, 167451, Note_on_c, 0, 75, 68
2, 167459, Control_c, 0, 64, 51
2, 167474, Control_c, 0, 64, 51
2, 167490, Control_c, 0, 64, 50
2, 167505, Control_c, 0, 64, 49
2, 167519, Control_c, 0, 64, 47
2, 167519, Note_on_c, 0, 78, 0
2, 167535, Control_c, 0, 64, 46
2, 167550, Control_c, 0, 64, 44
2, 167566, Control_c, 0, 64, 43
2, 167580, Control_c, 0, 64, 41
2, 167595, Control_c, 0, 64, 39
2, 167611, Control_c, 0, 64, 36
2, 167621, Note_on_c, 0, 68, 0
2, 167626, Control_c, 0, 64, 30
2, 167640, Control_c, 0, 64, 21
2, 167654, Note_on_c, 0, 67, 63
2, 167656, Control_c, 0, 64, 8
2, 167662, Note_on_c, 0, 76, 79
2, 167671, Control_c, 0, 64, 0
2, 167697, Note_on_c, 0, 73, 0
2, 167747, Control_c, 0, 64, 18
2, 167762, Control_c, 0, 64, 30
2, 167778, Control_c, 0, 64, 38
2, 167793, Control_c, 0, 64, 47
2, 167808, Control_c, 0, 64, 56
2, 167823, Control_c, 0, 64, 60
2, 167838, Control_c, 0, 64, 63
2, 167854, Control_c, 0, 64, 65
2, 167869, Control_c, 0, 64, 67
2, 167885, Control_c, 0, 64, 70
2, 167900, Control_c, 0, 64, 74
2, 167904, Note_on_c, 0, 73, 64
2, 167914, Control_c, 0, 64, 79
2, 167930, Control_c, 0, 64, 86
2, 167932, Note_on_c, 0, 75, 0
2, 167945, Control_c, 0, 64, 91
2, 167945, Note_on_c, 0, 76, 0
2, 167960, Control_c, 0, 64, 98
2, 167976, Control_c, 0, 64, 104
2, 167976, Note_on_c, 0, 73, 0
2, 167990, Control_c, 0, 64, 105
2, 168051, Control_c, 0, 64, 105
2, 168066, Control_c, 0, 64, 103
2, 168081, Control_c, 0, 64, 102
2, 168105, Control_c, 0, 64, 100
2, 168117, Note_on_c, 0, 55, 75
2, 168120, Control_c, 0, 64, 99
2, 168135, Control_c, 0, 64, 96
2, 168150, Control_c, 0, 64, 93
2, 168151, Note_on_c, 0, 70, 65
2, 168166, Control_c, 0, 64, 88
2, 168181, Control_c, 0, 64, 85
2, 168196, Control_c, 0, 64, 81
2, 168211, Control_c, 0, 64, 77
2, 168226, Control_c, 0, 64, 72
2, 168241, Control_c, 0, 64, 67
2, 168258, Control_c, 0, 64, 62
2, 168273, Control_c, 0, 64, 57
2, 168288, Control_c, 0, 64, 54
2, 168303, Control_c, 0, 64, 54
2, 168318, Control_c, 0, 64, 53
2, 168331, Note_on_c, 0, 71, 67
2, 168334, Control_c, 0, 64, 52
2, 168349, Control_c, 0, 64, 52
2, 168363, Control_c, 0, 64, 51
2, 168386, Note_on_c, 0, 70, 0
2, 168394, Control_c, 0, 64, 51
2, 168410, Control_c, 0, 64, 50
2, 168419, Note_on_c, 0, 46, 0
2, 168425, Control_c, 0, 64, 48
2, 168439, Control_c, 0, 64, 46
2, 168455, Control_c, 0, 64, 44
2, 168470, Control_c, 0, 64, 44
2, 168485, Control_c, 0, 64, 43
2, 168500, Control_c, 0, 64, 43
2, 168515, Control_c, 0, 64, 42
2, 168531, Control_c, 0, 64, 41
2, 168546, Control_c, 0, 64, 40
2, 168548, Note_on_c, 0, 73, 65
2, 168560, Control_c, 0, 64, 39
2, 168576, Control_c, 0, 64, 38
2, 168591, Control_c, 0, 64, 38
2, 168651, Note_on_c, 0, 71, 0
2, 168698, Control_c, 0, 64, 39
2, 168713, Control_c, 0, 64, 43
2, 168729, Control_c, 0, 64, 48
2, 168744, Control_c, 0, 64, 51
2, 168758, Control_c, 0, 64, 55
2, 168774, Control_c, 0, 64, 58
2, 168774, Note_on_c, 0, 70, 55
2, 168789, Control_c, 0, 64, 62
2, 168805, Control_c, 0, 64, 64
2, 168820, Control_c, 0, 64, 65
2, 168834, Control_c, 0, 64, 66
2, 168843, Note_on_c, 0, 67, 0
2, 168918, Control_c, 0, 64, 65
2, 168963, Control_c, 0, 64, 65
2, 169010, Control_c, 0, 64, 64
2, 169039, Control_c, 0, 64, 64
2, 169063, Note_on_c, 0, 56, 47
2, 169066, Note_on_c, 0, 63, 45
2, 169071, Control_c, 0, 64, 63
2, 169087, Control_c, 0, 64, 62
2, 169101, Control_c, 0, 64, 61
2, 169103, Note_on_c, 0, 70, 0
2, 169116, Control_c, 0, 64, 60
2, 169132, Control_c, 0, 64, 59
2, 169147, Control_c, 0, 64, 56
2, 169162, Control_c, 0, 64, 53
2, 169170, Note_on_c, 0, 73, 0
2, 169178, Control_c, 0, 64, 49
2, 169193, Control_c, 0, 64, 46
2, 169207, Note_on_c, 0, 55, 0
2, 169208, Control_c, 0, 64, 45
2, 169223, Control_c, 0, 64, 44
2, 169238, Control_c, 0, 64, 43
2, 169254, Control_c, 0, 64, 42
2, 169269, Control_c, 0, 64, 40
2, 169283, Control_c, 0, 64, 39
2, 169299, Control_c, 0, 64, 36
2, 169314, Control_c, 0, 64, 35
2, 169321, Note_on_c, 0, 70, 57
2, 169329, Control_c, 0, 64, 34
2, 169344, Control_c, 0, 64, 34
2, 169359, Control_c, 0, 64, 33
2, 169375, Control_c, 0, 64, 32
2, 169390, Control_c, 0, 64, 32
2, 169420, Control_c, 0, 64, 31
2, 169511, Control_c, 0, 64, 31
2, 169577, Note_on_c, 0, 71, 56
2, 169702, Note_on_c, 0, 70, 0
2, 169816, Note_on_c, 0, 66, 40
2, 169837, Note_on_c, 0, 63, 0
2, 170037, Note_on_c, 0, 65, 43
2, 170254, Note_on_c, 0, 54, 51
2, 170254, Note_on_c, 0, 68, 53
2, 170318, Note_on_c, 0, 65, 0
2, 170473, Note_on_c, 0, 53, 63
2, 170473, Note_on_c, 0, 56, 0
2, 170475, Note_on_c, 0, 71, 0
2, 170516, Note_on_c, 0, 61, 54
2, 170555, Note_on_c, 0, 54, 0
2, 170717, Note_on_c, 0, 56, 54
2, 170725, Note_on_c, 0, 71, 67
2, 170755, Note_on_c, 0, 66, 0
2, 170774, Note_on_c, 0, 68, 0
2, 170806, Note_on_c, 0, 53, 0
2, 170937, Note_on_c, 0, 54, 60
2, 171028, Note_on_c, 0, 56, 0
2, 171140, Note_on_c, 0, 68, 58
2, 171173, Note_on_c, 0, 71, 0
2, 171385, Note_on_c, 0, 70, 58
2, 171521, Note_on_c, 0, 61, 0
2, 171595, Note_on_c, 0, 64, 46
2, 171658, Note_on_c, 0, 68, 0
2, 171817, Note_on_c, 0, 63, 38
2, 172038, Note_on_c, 0, 52, 40
2, 172049, Note_on_c, 0, 66, 52
2, 172105, Note_on_c, 0, 63, 0
2, 172264, Note_on_c, 0, 51, 65
2, 172315, Note_on_c, 0, 54, 0
2, 172317, Note_on_c, 0, 59, 53
2, 172360, Note_on_c, 0, 70, 0
2, 172493, Note_on_c, 0, 69, 61
2, 172497, Note_on_c, 0, 54, 67
2, 172515, Note_on_c, 0, 52, 0
2, 172604, Note_on_c, 0, 64, 0
2, 172621, Note_on_c, 0, 66, 0
2, 172624, Note_on_c, 0, 51, 0
2, 172771, Note_on_c, 0, 52, 74
2, 172904, Note_on_c, 0, 54, 0
2, 173042, Note_on_c, 0, 67, 54
2, 173186, Note_on_c, 0, 69, 0
2, 173263, Control_c, 0, 64, 31
2, 173279, Control_c, 0, 64, 33
2, 173294, Control_c, 0, 64, 33
2, 173304, Note_on_c, 0, 68, 73
2, 173309, Control_c, 0, 64, 34
2, 173313, Note_on_c, 0, 59, 0
2, 173325, Control_c, 0, 64, 34
2, 173355, Control_c, 0, 64, 35
2, 173370, Control_c, 0, 64, 36
2, 173385, Control_c, 0, 64, 38
2, 173401, Control_c, 0, 64, 39
2, 173416, Control_c, 0, 64, 41
2, 173431, Control_c, 0, 64, 44
2, 173446, Control_c, 0, 64, 47
2, 173461, Control_c, 0, 64, 50
2, 173484, Control_c, 0, 64, 52
2, 173497, Note_on_c, 0, 60, 50
2, 173499, Control_c, 0, 64, 54
2, 173515, Control_c, 0, 64, 56
2, 173523, Note_on_c, 0, 51, 67
2, 173530, Control_c, 0, 64, 57
2, 173545, Control_c, 0, 64, 59
2, 173560, Control_c, 0, 64, 61
2, 173575, Control_c, 0, 64, 63
2, 173578, Note_on_c, 0, 52, 0
2, 173591, Control_c, 0, 64, 64
2, 173605, Control_c, 0, 64, 65
2, 173672, Note_on_c, 0, 49, 26
2, 173713, Control_c, 0, 64, 64
2, 173743, Control_c, 0, 64, 64
2, 173753, Note_on_c, 0, 56, 85
2, 173773, Control_c, 0, 64, 63
2, 173773, Note_on_c, 0, 64, 60
2, 173803, Control_c, 0, 64, 63
2, 173828, Note_on_c, 0, 60, 0
2, 173834, Control_c, 0, 64, 62
2, 173849, Control_c, 0, 64, 62
2, 173864, Control_c, 0, 64, 61
2, 173876, Note_on_c, 0, 51, 0
2, 173880, Control_c, 0, 64, 61
2, 173893, Note_on_c, 0, 67, 0
2, 173894, Control_c, 0, 64, 60
2, 173897, Note_on_c, 0, 68, 0
2, 173925, Control_c, 0, 64, 59
2, 173940, Control_c, 0, 64, 59
2, 173956, Control_c, 0, 64, 58
2, 173970, Control_c, 0, 64, 57
2, 173985, Note_on_c, 0, 64, 0
2, 173986, Control_c, 0, 64, 56
2, 173988, Note_on_c, 0, 72, 74
2, 173991, Note_on_c, 0, 51, 67
2, 174002, Control_c, 0, 64, 54
2, 174017, Control_c, 0, 64, 53
2, 174033, Control_c, 0, 64, 51
2, 174048, Control_c, 0, 64, 48
2, 174062, Control_c, 0, 64, 45
2, 174078, Control_c, 0, 64, 42
2, 174093, Control_c, 0, 64, 39
2, 174108, Control_c, 0, 64, 36
2, 174138, Control_c, 0, 64, 36
2, 174184, Control_c, 0, 64, 37
2, 174186, Note_on_c, 0, 73, 80
2, 174187, Note_on_c, 0, 52, 61
2, 174200, Control_c, 0, 64, 41
2, 174204, Note_on_c, 0, 51, 0
2, 174204, Note_on_c, 0, 72, 0
2, 174206, Note_on_c, 0, 49, 0
2, 174214, Control_c, 0, 64, 46
2, 174229, Control_c, 0, 64, 50
2, 174252, Control_c, 0, 64, 53
2, 174267, Control_c, 0, 64, 55
2, 174283, Control_c, 0, 64, 57
2, 174298, Control_c, 0, 64, 58
2, 174314, Control_c, 0, 64, 60
2, 174323, Note_on_c, 0, 73, 0
2, 174328, Control_c, 0, 64, 62
2, 174343, Control_c, 0, 64, 64
2, 174359, Control_c, 0, 64, 68
2, 174374, Control_c, 0, 64, 74
2, 174374, Note_on_c, 0, 49, 52
2, 174377, Note_on_c, 0, 65, 77
2, 174389, Control_c, 0, 64, 84
2, 174404, Control_c, 0, 64, 103
2, 174419, Control_c, 0, 64, 127
2, 174444, Note_on_c, 0, 56, 0
2, 174622, Note_on_c, 0, 61, 90
2, 174647, Note_on_c, 0, 66, 66
2, 174649, Note_on_c, 0, 45, 63
2, 174678, Control_c, 0, 64, 121
2, 174693, Control_c, 0, 64, 80
2, 174694, Note_on_c, 0, 65, 0
2, 174708, Control_c, 0, 64, 62
2, 174711, Note_on_c, 0, 52, 0
2, 174716, Note_on_c, 0, 49, 0
2, 174723, Control_c, 0, 64, 0
2, 174769, Control_c, 0, 64, 17
2, 174784, Control_c, 0, 64, 50
2, 174800, Control_c, 0, 64, 63
2, 174816, Control_c, 0, 64, 72
2, 174831, Control_c, 0, 64, 88
2, 174846, Control_c, 0, 64, 127
2, 174854, Note_on_c, 0, 66, 0
2, 174887, Note_on_c, 0, 49, 58
2, 175103, Note_on_c, 0, 73, 83
2, 175106, Note_on_c, 0, 54, 79
2, 175109, Note_on_c, 0, 69, 67
2, 175122, Control_c, 0, 64, 89
2, 175138, Control_c, 0, 64, 68
2, 175153, Control_c, 0, 64, 47
2, 175168, Control_c, 0, 64, 0
2, 175183, Control_c, 0, 64, 32
2, 175198, Control_c, 0, 64, 57
2, 175213, Note_on_c, 0, 49, 0
2, 175214, Control_c, 0, 64, 67
2, 175229, Control_c, 0, 64, 79
2, 175243, Control_c, 0, 64, 115
2, 175259, Control_c, 0, 64, 127
2, 175363, Note_on_c, 0, 68, 64
2, 175434, Note_on_c, 0, 61, 0
2, 175437, Note_on_c, 0, 73, 0
2, 175640, Note_on_c, 0, 75, 73
2, 175648, Note_on_c, 0, 57, 89
2, 175693, Note_on_c, 0, 68, 0
2, 175696, Note_on_c, 0, 66, 46
2, 175761, Control_c, 0, 64, 99
2, 175785, Control_c, 0, 64, 85
2, 175800, Control_c, 0, 64, 76
2, 175815, Control_c, 0, 64, 69
2, 175830, Control_c, 0, 64, 64
2, 175846, Control_c, 0, 64, 61
2, 175861, Control_c, 0, 64, 56
2, 175876, Control_c, 0, 64, 49
2, 175876, Note_on_c, 0, 69, 0
2, 175891, Control_c, 0, 64, 44
2, 175906, Control_c, 0, 64, 39
2, 175908, Note_on_c, 0, 68, 50
2, 175921, Control_c, 0, 64, 34
2, 175936, Control_c, 0, 64, 29
2, 175951, Control_c, 0, 64, 26
2, 175967, Control_c, 0, 64, 24
2, 175967, Note_on_c, 0, 66, 0
2, 175982, Control_c, 0, 64, 22
2, 175997, Control_c, 0, 64, 20
2, 176012, Control_c, 0, 64, 17
2, 176027, Control_c, 0, 64, 15
2, 176042, Control_c, 0, 64, 14
2, 176050, Note_on_c, 0, 54, 0
2, 176058, Control_c, 0, 64, 0
2, 176226, Note_on_c, 0, 48, 54
2, 176264, Note_on_c, 0, 69, 51
2, 176271, Control_c, 0, 64, 12
2, 176286, Control_c, 0, 64, 36
2, 176301, Control_c, 0, 64, 51
2, 176303, Note_on_c, 0, 45, 0
2, 176316, Control_c, 0, 64, 61
2, 176322, Note_on_c, 0, 68, 0
2, 176331, Control_c, 0, 64, 66
2, 176346, Control_c, 0, 64, 72
2, 176361, Control_c, 0, 64, 82
2, 176377, Control_c, 0, 64, 98
2, 176392, Control_c, 0, 64, 127
2, 176402, Note_on_c, 0, 75, 0
2, 176483, Note_on_c, 0, 66, 52
2, 176488, Note_on_c, 0, 69, 0
2, 176571, Note_on_c, 0, 66, 0
2, 176690, Note_on_c, 0, 54, 80
2, 176734, Control_c, 0, 64, 115
2, 176742, Note_on_c, 0, 63, 52
2, 176749, Control_c, 0, 64, 102
2, 176765, Control_c, 0, 64, 89
2, 176770, Note_on_c, 0, 48, 0
2, 176779, Control_c, 0, 64, 75
2, 176784, Note_on_c, 0, 57, 0
2, 176794, Control_c, 0, 64, 63
2, 176810, Control_c, 0, 64, 35
2, 176825, Control_c, 0, 64, 0
2, 176901, Control_c, 0, 64, 28
2, 176916, Control_c, 0, 64, 53
2, 176931, Note_on_c, 0, 49, 46
2, 176932, Control_c, 0, 64, 63
2, 176946, Control_c, 0, 64, 68
2, 176961, Control_c, 0, 64, 74
2, 176961, Note_on_c, 0, 64, 55
2, 176977, Control_c, 0, 64, 85
2, 176992, Control_c, 0, 64, 101
2, 177008, Control_c, 0, 64, 127
2, 177025, Note_on_c, 0, 54, 0
2, 177027, Note_on_c, 0, 63, 0
2, 177130, Note_on_c, 0, 69, 76
2, 177151, Note_on_c, 0, 51, 63
2, 177175, Control_c, 0, 64, 105
2, 177187, Note_on_c, 0, 66, 51
2, 177189, Control_c, 0, 64, 79
2, 177205, Control_c, 0, 64, 62
2, 177216, Note_on_c, 0, 49, 0
2, 177220, Control_c, 0, 64, 48
2, 177235, Control_c, 0, 64, 51
2, 177252, Control_c, 0, 64, 56
2, 177267, Control_c, 0, 64, 61
2, 177267, Note_on_c, 0, 64, 0
2, 177281, Control_c, 0, 64, 65
2, 177297, Control_c, 0, 64, 73
2, 177319, Control_c, 0, 64, 84
2, 177335, Control_c, 0, 64, 111
2, 177347, Note_on_c, 0, 63, 69
2, 177350, Control_c, 0, 64, 127
2, 177356, Note_on_c, 0, 52, 64
2, 177378, Note_on_c, 0, 66, 0
2, 177390, Note_on_c, 0, 51, 0
2, 177412, Note_on_c, 0, 63, 0
2, 177559, Note_on_c, 0, 60, 65
2, 177565, Note_on_c, 0, 63, 84
2, 177576, Note_on_c, 0, 44, 56
2, 177594, Control_c, 0, 64, 105
2, 177610, Control_c, 0, 64, 87
2, 177614, Note_on_c, 0, 52, 0
2, 177624, Control_c, 0, 64, 75
2, 177639, Control_c, 0, 64, 66
2, 177655, Control_c, 0, 64, 59
2, 177670, Control_c, 0, 64, 50
2, 177677, Note_on_c, 0, 69, 0
2, 177686, Control_c, 0, 64, 41
2, 177700, Control_c, 0, 64, 32
2, 177715, Control_c, 0, 64, 0
2, 177788, Note_on_c, 0, 46, 49
2, 177817, Note_on_c, 0, 61, 66
2, 177968, Note_on_c, 0, 44, 0
2, 178026, Note_on_c, 0, 68, 73
2, 178029, Note_on_c, 0, 48, 57
2, 178149, Control_c, 0, 64, 8
2, 178165, Control_c, 0, 64, 52
2, 178180, Control_c, 0, 64, 63
2, 178191, Note_on_c, 0, 63, 0
2, 178194, Control_c, 0, 64, 69
2, 178210, Control_c, 0, 64, 75
2, 178224, Note_on_c, 0, 44, 61
2, 178225, Control_c, 0, 64, 86
2, 178227, Note_on_c, 0, 46, 0
2, 178237, Note_on_c, 0, 66, 80
2, 178238, Control_c, 0, 64, 104
2, 178254, Control_c, 0, 64, 127
2, 178303, Note_on_c, 0, 60, 0
2, 178306, Note_on_c, 0, 68, 0
2, 178323, Note_on_c, 0, 61, 0
2, 178354, Note_on_c, 0, 44, 0
2, 178459, Note_on_c, 0, 64, 86
2, 178467, Note_on_c, 0, 49, 63
2, 178479, Note_on_c, 0, 61, 60
2, 178497, Control_c, 0, 64, 99
2, 178498, Note_on_c, 0, 66, 0
2, 178501, Note_on_c, 0, 48, 0
2, 178512, Control_c, 0, 64, 78
2, 178527, Control_c, 0, 64, 64
2, 178542, Control_c, 0, 64, 0
2, 178672, Note_on_c, 0, 51, 56
2, 178718, Note_on_c, 0, 49, 0
2, 178870, Note_on_c, 0, 68, 83
2, 178887, Note_on_c, 0, 52, 61
2, 178910, Note_on_c, 0, 51, 0
2, 179079, Note_on_c, 0, 49, 69
2, 179082, Control_c, 0, 64, 31
2, 179098, Control_c, 0, 64, 49
2, 179112, Control_c, 0, 64, 57
2, 179122, Note_on_c, 0, 52, 0
2, 179123, Note_on_c, 0, 64, 0
2, 179127, Control_c, 0, 64, 60
2, 179141, Note_on_c, 0, 68, 0
2, 179143, Control_c, 0, 64, 61
2, 179158, Control_c, 0, 64, 62
2, 179174, Control_c, 0, 64, 63
2, 179234, Control_c, 0, 64, 62
2, 179296, Control_c, 0, 64, 62
2, 179310, Control_c, 0, 64, 61
2, 179310, Note_on_c, 0, 45, 71
2, 179321, Note_on_c, 0, 73, 82
2, 179341, Control_c, 0, 64, 60
2, 179355, Control_c, 0, 64, 59
2, 179370, Control_c, 0, 64, 57
2, 179384, Note_on_c, 0, 49, 0
2, 179386, Control_c, 0, 64, 56
2, 179401, Control_c, 0, 64, 52
2, 179417, Control_c, 0, 64, 49
2, 179431, Control_c, 0, 64, 42
2, 179446, Control_c, 0, 64, 30
2, 179462, Control_c, 0, 64, 0
2, 179523, Note_on_c, 0, 47, 64
2, 179546, Note_on_c, 0, 61, 0
2, 179647, Note_on_c, 0, 45, 0
2, 179698, Control_c, 0, 64, 12
2, 179713, Control_c, 0, 64, 18
2, 179714, Note_on_c, 0, 47, 0
2, 179727, Note_on_c, 0, 64, 77
2, 179729, Control_c, 0, 64, 20
2, 179729, Note_on_c, 0, 49, 61
2, 179744, Control_c, 0, 64, 21
2, 179769, Note_on_c, 0, 61, 62
2, 179775, Control_c, 0, 64, 22
2, 179790, Control_c, 0, 64, 24
2, 179805, Control_c, 0, 64, 29
2, 179820, Control_c, 0, 64, 36
2, 179835, Control_c, 0, 64, 42
2, 179837, Note_on_c, 0, 61, 0
2, 179850, Control_c, 0, 64, 51
2, 179866, Control_c, 0, 64, 59
2, 179880, Control_c, 0, 64, 64
2, 179896, Control_c, 0, 64, 67
2, 179911, Control_c, 0, 64, 70
2, 179914, Note_on_c, 0, 64, 0
2, 179926, Control_c, 0, 64, 76
2, 179932, Note_on_c, 0, 45, 82
2, 179942, Control_c, 0, 64, 84
2, 179956, Control_c, 0, 64, 93
2, 179957, Note_on_c, 0, 49, 0
2, 179972, Control_c, 0, 64, 109
2, 179987, Control_c, 0, 64, 127
2, 179992, Note_on_c, 0, 45, 0
2, 180151, Note_on_c, 0, 69, 87
2, 180163, Note_on_c, 0, 66, 68
2, 180169, Control_c, 0, 64, 104
2, 180169, Note_on_c, 0, 42, 75
2, 180184, Note_on_c, 0, 73, 0
2, 180187, Control_c, 0, 64, 91
2, 180201, Control_c, 0, 64, 81
2, 180217, Control_c, 0, 64, 71
2, 180232, Control_c, 0, 64, 64
2, 180248, Control_c, 0, 64, 54
2, 180263, Control_c, 0, 64, 40
2, 180277, Control_c, 0, 64, 32
2, 180293, Control_c, 0, 64, 14
2, 180308, Control_c, 0, 64, 0
2, 180392, Note_on_c, 0, 44, 76
2, 180435, Note_on_c, 0, 42, 0
2, 180585, Note_on_c, 0, 45, 71
2, 180586, Note_on_c, 0, 78, 93
2, 180602, Note_on_c, 0, 69, 0
2, 180623, Note_on_c, 0, 44, 0
2, 180638, Control_c, 0, 64, 31
2, 180653, Control_c, 0, 64, 50
2, 180667, Control_c, 0, 64, 56
2, 180683, Control_c, 0, 64, 58
2, 180698, Control_c, 0, 64, 59
2, 180713, Control_c, 0, 64, 60
2, 180728, Control_c, 0, 64, 60
2, 180776, Note_on_c, 0, 76, 88
2, 180777, Note_on_c, 0, 42, 75
2, 180801, Note_on_c, 0, 45, 0
2, 180807, Note_on_c, 0, 78, 0
2, 180834, Control_c, 0, 64, 60
2, 180898, Control_c, 0, 64, 59
2, 180928, Control_c, 0, 64, 59
2, 180959, Control_c, 0, 64, 58
2, 180974, Control_c, 0, 64, 58
2, 181004, Control_c, 0, 64, 57
2, 181019, Control_c, 0, 64, 56
2, 181034, Note_on_c, 0, 78, 95
2, 181035, Control_c, 0, 64, 50
2, 181042, Note_on_c, 0, 39, 71
2, 181049, Control_c, 0, 64, 33
2, 181064, Control_c, 0, 64, 0
2, 181066, Note_on_c, 0, 76, 0
2, 181085, Note_on_c, 0, 42, 0
2, 181195, Control_c, 0, 64, 31
2, 181209, Control_c, 0, 64, 53
2, 181224, Control_c, 0, 64, 63
2, 181240, Control_c, 0, 64, 68
2, 181254, Control_c, 0, 64, 75
2, 181269, Control_c, 0, 64, 90
2, 181280, Note_on_c, 0, 40, 73
2, 181285, Control_c, 0, 64, 127
2, 181343, Note_on_c, 0, 78, 0
2, 181372, Note_on_c, 0, 39, 0
2, 181404, Note_on_c, 0, 66, 0
2, 181469, Note_on_c, 0, 75, 89
2, 181485, Note_on_c, 0, 42, 67
2, 181485, Note_on_c, 0, 69, 74
2, 181493, Note_on_c, 0, 66, 66
2, 181499, Control_c, 0, 64, 94
2, 181515, Control_c, 0, 64, 65
2, 181517, Note_on_c, 0, 40, 0
2, 181530, Control_c, 0, 64, 0
2, 181606, Control_c, 0, 64, 10
2, 181621, Control_c, 0, 64, 56
2, 181637, Control_c, 0, 64, 67
2, 181651, Control_c, 0, 64, 77
2, 181654, Note_on_c, 0, 69, 0
2, 181666, Control_c, 0, 64, 98
2, 181675, Note_on_c, 0, 39, 66
2, 181682, Control_c, 0, 64, 127
2, 181704, Note_on_c, 0, 42, 0
2, 181719, Note_on_c, 0, 66, 0
2, 181871, Note_on_c, 0, 75, 0
2, 181890, Note_on_c, 0, 69, 67
2, 181890, Note_on_c, 0, 71, 77
2, 181898, Note_on_c, 0, 44, 71
2, 181901, Note_on_c, 0, 63, 67
2, 181930, Control_c, 0, 64, 88
2, 181945, Control_c, 0, 64, 66
2, 181961, Control_c, 0, 64, 0
2, 182049, Note_on_c, 0, 39, 0
2, 182064, Control_c, 0, 64, 46
2, 182079, Control_c, 0, 64, 61
2, 182095, Control_c, 0, 64, 65
2, 182110, Control_c, 0, 64, 68
2, 182121, Note_on_c, 0, 42, 70
2, 182122, Note_on_c, 0, 69, 0
2, 182126, Control_c, 0, 64, 72
2, 182135, Note_on_c, 0, 63, 0
2, 182141, Control_c, 0, 64, 77
2, 182156, Control_c, 0, 64, 81
2, 182172, Control_c, 0, 64, 88
2, 182187, Control_c, 0, 64, 95
2, 182202, Control_c, 0, 64, 106
2, 182217, Control_c, 0, 64, 127
2, 182308, Note_on_c, 0, 44, 0
2, 182323, Control_c, 0, 64, 111
2, 182325, Note_on_c, 0, 68, 69
2, 182325, Note_on_c, 0, 73, 80
2, 182326, Note_on_c, 0, 64, 69
2, 182331, Note_on_c, 0, 40, 65
2, 182339, Control_c, 0, 64, 86
2, 182354, Control_c, 0, 64, 68
2, 182360, Note_on_c, 0, 42, 0
2, 182370, Control_c, 0, 64, 38
2, 182385, Control_c, 0, 64, 0
2, 182391, Note_on_c, 0, 71, 0
2, 182428, Note_on_c, 0, 68, 0
2, 182430, Control_c, 0, 64, 36
2, 182446, Control_c, 0, 64, 61
2, 182461, Control_c, 0, 64, 71
2, 182476, Control_c, 0, 64, 82
2, 182491, Control_c, 0, 64, 105
2, 182506, Control_c, 0, 64, 127
2, 182521, Note_on_c, 0, 69, 76
2, 182523, Note_on_c, 0, 42, 63
2, 182527, Note_on_c, 0, 75, 91
2, 182608, Note_on_c, 0, 40, 0
2, 182614, Note_on_c, 0, 73, 0
2, 182671, Note_on_c, 0, 75, 0
2, 182711, Control_c, 0, 64, 91
2, 182727, Control_c, 0, 64, 72
2, 182739, Note_on_c, 0, 71, 71
2, 182741, Control_c, 0, 64, 43
2, 182743, Note_on_c, 0, 76, 84
2, 182753, Note_on_c, 0, 44, 65
2, 182756, Control_c, 0, 64, 0
2, 182774, Note_on_c, 0, 42, 0
2, 182796, Note_on_c, 0, 69, 0
2, 182922, Control_c, 0, 64, 47
2, 182938, Control_c, 0, 64, 62
2, 182939, Note_on_c, 0, 64, 0
2, 182941, Note_on_c, 0, 76, 0
2, 182952, Control_c, 0, 64, 67
2, 182957, Note_on_c, 0, 71, 0
2, 182968, Control_c, 0, 64, 72
2, 182969, Note_on_c, 0, 42, 72
2, 182983, Control_c, 0, 64, 78
2, 182999, Control_c, 0, 64, 84
2, 183015, Control_c, 0, 64, 90
2, 183021, Note_on_c, 0, 44, 0
2, 183030, Control_c, 0, 64, 96
2, 183045, Control_c, 0, 64, 98
2, 183060, Control_c, 0, 64, 98
2, 183075, Control_c, 0, 64, 96
2, 183091, Control_c, 0, 64, 94
2, 183106, Control_c, 0, 64, 92
2, 183120, Control_c, 0, 64, 88
2, 183136, Control_c, 0, 64, 85
2, 183151, Control_c, 0, 64, 80
2, 183157, Note_on_c, 0, 69, 76
2, 183166, Control_c, 0, 64, 76
2, 183171, Note_on_c, 0, 61, 54
2, 183174, Note_on_c, 0, 66, 63
2, 183181, Control_c, 0, 64, 70
2, 183183, Note_on_c, 0, 44, 67
2, 183196, Control_c, 0, 64, 63
2, 183212, Control_c, 0, 64, 44
2, 183227, Control_c, 0, 64, 0
2, 183241, Note_on_c, 0, 42, 0
2, 183399, Note_on_c, 0, 45, 64
2, 183403, Note_on_c, 0, 61, 0
2, 183410, Control_c, 0, 64, 31
2, 183425, Control_c, 0, 64, 47
2, 183440, Control_c, 0, 64, 57
2, 183462, Control_c, 0, 64, 63
2, 183477, Control_c, 0, 64, 66
2, 183493, Control_c, 0, 64, 69
2, 183508, Control_c, 0, 64, 72
2, 183523, Control_c, 0, 64, 74
2, 183532, Note_on_c, 0, 44, 0
2, 183532, Note_on_c, 0, 45, 0
2, 183538, Control_c, 0, 64, 74
2, 183553, Control_c, 0, 64, 74
2, 183569, Control_c, 0, 64, 73
2, 183584, Control_c, 0, 64, 72
2, 183599, Control_c, 0, 64, 71
2, 183612, Note_on_c, 0, 66, 0
2, 183615, Control_c, 0, 64, 69
2, 183630, Control_c, 0, 64, 67
2, 183646, Control_c, 0, 64, 65
2, 183660, Control_c, 0, 64, 63
2, 183675, Control_c, 0, 64, 61
2, 183691, Control_c, 0, 64, 56
2, 183694, Note_on_c, 0, 68, 70
2, 183706, Control_c, 0, 64, 50
2, 183712, Note_on_c, 0, 47, 44
2, 183720, Control_c, 0, 64, 41
2, 183723, Note_on_c, 0, 59, 39
2, 183736, Control_c, 0, 64, 16
2, 183751, Control_c, 0, 64, 0
2, 183792, Note_on_c, 0, 69, 0
2, 183950, Note_on_c, 0, 63, 61
2, 184027, Note_on_c, 0, 63, 0
2, 184208, Note_on_c, 0, 64, 60
2, 184427, Note_on_c, 0, 69, 52
2, 184460, Note_on_c, 0, 64, 0
2, 184504, Control_c, 0, 64, 18
2, 184519, Control_c, 0, 64, 26
2, 184535, Control_c, 0, 64, 30
2, 184550, Control_c, 0, 64, 32
2, 184565, Control_c, 0, 64, 33
2, 184580, Control_c, 0, 64, 33
2, 184669, Note_on_c, 0, 66, 55
2, 184671, Note_on_c, 0, 69, 0
2, 184887, Note_on_c, 0, 61, 47
2, 184999, Note_on_c, 0, 61, 0
2, 185076, Note_on_c, 0, 47, 0
2, 185182, Note_on_c, 0, 63, 51
2, 185395, Note_on_c, 0, 68, 0
2, 185424, Control_c, 0, 64, 33
2, 185433, Note_on_c, 0, 57, 45
2, 185468, Note_on_c, 0, 66, 0
2, 185471, Control_c, 0, 64, 32
2, 185501, Control_c, 0, 64, 32
2, 185504, Note_on_c, 0, 59, 0
2, 185577, Control_c, 0, 64, 31
2, 185700, Control_c, 0, 64, 31
2, 185714, Control_c, 0, 64, 30
2, 185730, Control_c, 0, 64, 30
2, 185745, Control_c, 0, 64, 29
2, 185745, Note_on_c, 0, 52, 32
2, 185745, Note_on_c, 0, 64, 47
2, 185746, Note_on_c, 0, 63, 0
2, 185767, Note_on_c, 0, 56, 39
2, 185768, Control_c, 0, 64, 29
2, 185797, Control_c, 0, 64, 28
2, 185813, Control_c, 0, 64, 28
2, 185828, Control_c, 0, 64, 27
2, 185859, Control_c, 0, 64, 26
2, 185874, Control_c, 0, 64, 26
2, 185879, Note_on_c, 0, 57, 0
2, 185890, Control_c, 0, 64, 25
2, 185919, Control_c, 0, 64, 24
2, 185935, Control_c, 0, 64, 24
2, 185950, Control_c, 0, 64, 23
2, 185966, Control_c, 0, 64, 22
2, 185966, Control_c, 0, 67, 11
2, 185981, Control_c, 0, 64, 21
2, 185981, Control_c, 0, 67, 18
2, 185995, Control_c, 0, 64, 20
2, 185995, Control_c, 0, 67, 28
2, 186011, Control_c, 0, 64, 19
2, 186011, Control_c, 0, 67, 38
2, 186026, Control_c, 0, 64, 18
2, 186026, Control_c, 0, 67, 48
2, 186032, Note_on_c, 0, 71, 48
2, 186040, Control_c, 0, 64, 17
2, 186040, Control_c, 0, 67, 61
2, 186056, Control_c, 0, 64, 15
2, 186056, Control_c, 0, 67, 75
2, 186071, Control_c, 0, 64, 14
2, 186071, Control_c, 0, 67, 88
2, 186087, Control_c, 0, 64, 12
2, 186087, Control_c, 0, 67, 107
2, 186102, Control_c, 0, 64, 10
2, 186102, Control_c, 0, 67, 127
2, 186125, Note_on_c, 0, 64, 0
2, 186132, Control_c, 0, 64, 8
2, 186310, Note_on_c, 0, 76, 44
2, 186331, Control_c, 0, 64, 0
2, 186365, Note_on_c, 0, 71, 0
2, 186903, Note_on_c, 0, 59, 39
2, 187027, Note_on_c, 0, 52, 0
2, 187085, Note_on_c, 0, 56, 0
2, 187110, Note_on_c, 0, 76, 0
2, 187153, Note_on_c, 0, 73, 42
2, 187394, Note_on_c, 0, 73, 0
2, 187411, Note_on_c, 0, 83, 44
2, 187435, Note_on_c, 0, 75, 29
2, 187646, Note_on_c, 0, 81, 43
2, 187739, Note_on_c, 0, 83, 0
2, 187892, Note_on_c, 0, 81, 0
2, 187899, Note_on_c, 0, 80, 36
2, 187913, Note_on_c, 0, 64, 41
2, 188008, Note_on_c, 0, 59, 0
2, 188182, Note_on_c, 0, 81, 37
2, 188222, Note_on_c, 0, 80, 0
2, 188393, Note_on_c, 0, 68, 32
2, 188407, Note_on_c, 0, 83, 36
2, 188481, Control_c, 0, 64, 8
2, 188497, Note_on_c, 0, 81, 0
2, 188511, Control_c, 0, 64, 15
2, 188527, Control_c, 0, 64, 22
2, 188542, Control_c, 0, 64, 28
2, 188557, Control_c, 0, 64, 31
2, 188572, Control_c, 0, 64, 34
2, 188587, Control_c, 0, 64, 35
2, 188602, Control_c, 0, 64, 36
2, 188633, Note_on_c, 0, 80, 39
2, 188868, Note_on_c, 0, 61, 47
2, 188877, Note_on_c, 0, 75, 0
2, 188895, Note_on_c, 0, 76, 35
2, 188984, Note_on_c, 0, 80, 0
2, 189038, Note_on_c, 0, 64, 0
2, 189042, Note_on_c, 0, 68, 0
2, 189132, Note_on_c, 0, 78, 28
2, 189213, Note_on_c, 0, 76, 0
2, 189328, Note_on_c, 0, 64, 36
2, 189356, Note_on_c, 0, 80, 42
2, 189478, Control_c, 0, 64, 38
2, 189493, Control_c, 0, 64, 42
2, 189508, Control_c, 0, 64, 46
2, 189514, Note_on_c, 0, 83, 0
2, 189523, Control_c, 0, 64, 50
2, 189525, Note_on_c, 0, 78, 0
2, 189539, Control_c, 0, 64, 53
2, 189546, Note_on_c, 0, 76, 38
2, 189555, Control_c, 0, 64, 56
2, 189555, Note_on_c, 0, 80, 0
2, 189570, Control_c, 0, 64, 59
2, 189585, Control_c, 0, 64, 62
2, 189608, Control_c, 0, 64, 63
2, 189623, Control_c, 0, 64, 63
2, 189653, Control_c, 0, 64, 64
2, 189730, Control_c, 0, 64, 63
2, 189790, Control_c, 0, 64, 63
2, 189813, Note_on_c, 0, 58, 42
2, 189815, Note_on_c, 0, 73, 42
2, 189836, Control_c, 0, 64, 62
2, 189866, Control_c, 0, 64, 62
2, 189881, Control_c, 0, 64, 61
2, 189896, Note_on_c, 0, 76, 0
2, 189897, Control_c, 0, 64, 61
2, 189912, Control_c, 0, 64, 60
2, 189927, Control_c, 0, 64, 59
2, 189942, Control_c, 0, 64, 58
2, 189957, Control_c, 0, 64, 57
2, 189973, Control_c, 0, 64, 56
2, 189987, Control_c, 0, 64, 55
2, 189996, Note_on_c, 0, 61, 0
2, 190002, Control_c, 0, 64, 54
2, 190018, Control_c, 0, 64, 53
2, 190033, Control_c, 0, 64, 52
2, 190048, Note_on_c, 0, 75, 43
2, 190049, Control_c, 0, 64, 52
2, 190063, Control_c, 0, 64, 51
2, 190071, Note_on_c, 0, 73, 0
2, 190078, Control_c, 0, 64, 50
2, 190108, Control_c, 0, 64, 50
2, 190123, Control_c, 0, 64, 49
2, 190145, Note_on_c, 0, 64, 0
2, 190154, Control_c, 0, 64, 48
2, 190185, Control_c, 0, 64, 48
2, 190230, Control_c, 0, 64, 47
2, 190258, Note_on_c, 0, 76, 34
2, 190291, Note_on_c, 0, 73, 42
2, 190307, Control_c, 0, 64, 47
2, 190421, Control_c, 0, 64, 46
2, 190516, Note_on_c, 0, 71, 35
2, 190557, Control_c, 0, 64, 46
2, 190716, Note_on_c, 0, 71, 0
2, 190723, Note_on_c, 0, 67, 47
2, 190746, Note_on_c, 0, 70, 33
2, 190817, Control_c, 0, 64, 45
2, 190836, Note_on_c, 0, 73, 0
2, 190860, Note_on_c, 0, 75, 0
2, 190935, Note_on_c, 0, 71, 42
2, 190973, Note_on_c, 0, 58, 0
2, 190988, Note_on_c, 0, 70, 0
2, 191059, Control_c, 0, 64, 45
2, 191176, Note_on_c, 0, 75, 23
2, 191189, Note_on_c, 0, 73, 31
2, 191204, Control_c, 0, 64, 44
2, 191266, Note_on_c, 0, 76, 0
2, 191378, Note_on_c, 0, 71, 0
2, 191411, Note_on_c, 0, 70, 38
2, 191637, Note_on_c, 0, 70, 0
2, 191640, Note_on_c, 0, 73, 0
2, 191641, Note_on_c, 0, 68, 39
2, 191648, Note_on_c, 0, 71, 42
2, 191810, Note_on_c, 0, 67, 0
2, 191854, Note_on_c, 0, 66, 31
2, 191955, Note_on_c, 0, 68, 0
2, 192094, Control_c, 0, 64, 46
2, 192108, Control_c, 0, 64, 48
2, 192111, Note_on_c, 0, 80, 59
2, 192120, Note_on_c, 0, 65, 30
2, 192123, Control_c, 0, 64, 49
2, 192130, Note_on_c, 0, 66, 0
2, 192139, Control_c, 0, 64, 51
2, 192154, Control_c, 0, 64, 53
2, 192170, Control_c, 0, 64, 54
2, 192184, Control_c, 0, 64, 56
2, 192199, Control_c, 0, 64, 57
2, 192215, Control_c, 0, 64, 58
2, 192230, Control_c, 0, 64, 59
2, 192246, Control_c, 0, 64, 60
2, 192261, Control_c, 0, 64, 61
2, 192269, Note_on_c, 0, 71, 0
2, 192276, Control_c, 0, 64, 62
2, 192292, Control_c, 0, 64, 63
2, 192306, Control_c, 0, 64, 63
2, 192321, Control_c, 0, 64, 64
2, 192335, Note_on_c, 0, 63, 42
2, 192473, Control_c, 0, 64, 63
2, 192504, Control_c, 0, 64, 63
2, 192549, Control_c, 0, 64, 62
2, 192554, Note_on_c, 0, 70, 45
2, 192563, Note_on_c, 0, 62, 33
2, 192567, Note_on_c, 0, 75, 0
2, 192580, Control_c, 0, 64, 62
2, 192580, Note_on_c, 0, 63, 0
2, 192594, Control_c, 0, 64, 61
2, 192610, Control_c, 0, 64, 61
2, 192625, Control_c, 0, 64, 60
2, 192639, Control_c, 0, 64, 60
2, 192655, Control_c, 0, 64, 59
2, 192679, Note_on_c, 0, 65, 0
2, 192694, Control_c, 0, 64, 59
2, 192709, Control_c, 0, 64, 58
2, 192771, Note_on_c, 0, 63, 34
2, 192781, Note_on_c, 0, 78, 61
2, 192785, Control_c, 0, 64, 58
2, 192799, Control_c, 0, 64, 57
2, 192818, Note_on_c, 0, 80, 0
2, 192848, Control_c, 0, 64, 57
2, 192863, Control_c, 0, 64, 56
2, 192869, Note_on_c, 0, 62, 0
2, 192893, Control_c, 0, 64, 56
2, 192908, Control_c, 0, 64, 55
2, 192923, Control_c, 0, 64, 54
2, 192939, Control_c, 0, 64, 54
2, 192953, Control_c, 0, 64, 53
2, 192969, Control_c, 0, 64, 53
2, 192999, Control_c, 0, 64, 52
2, 193022, Note_on_c, 0, 80, 71
2, 193033, Note_on_c, 0, 65, 43
2, 193044, Control_c, 0, 64, 52
2, 193075, Control_c, 0, 64, 51
2, 193086, Note_on_c, 0, 78, 0
2, 193120, Control_c, 0, 64, 51
2, 193151, Control_c, 0, 64, 50
2, 193210, Note_on_c, 0, 63, 0
2, 193227, Control_c, 0, 64, 50
2, 193235, Note_on_c, 0, 62, 44
2, 193281, Note_on_c, 0, 65, 0
2, 193303, Control_c, 0, 64, 49
2, 193334, Control_c, 0, 64, 49
2, 193394, Control_c, 0, 64, 48
2, 193410, Control_c, 0, 64, 48
2, 193428, Note_on_c, 0, 78, 47
2, 193462, Control_c, 0, 64, 47
2, 193464, Note_on_c, 0, 63, 41
2, 193493, Control_c, 0, 64, 47
2, 193499, Note_on_c, 0, 62, 0
2, 193515, Note_on_c, 0, 70, 0
2, 193554, Control_c, 0, 64, 46
2, 193599, Control_c, 0, 64, 46
2, 193676, Control_c, 0, 64, 45
2, 193679, Note_on_c, 0, 80, 0
2, 193702, Note_on_c, 0, 76, 44
2, 193737, Control_c, 0, 64, 45
2, 193813, Control_c, 0, 64, 44
2, 193914, Note_on_c, 0, 75, 51
2, 193919, Control_c, 0, 64, 44
2, 193980, Control_c, 0, 64, 43
2, 194011, Note_on_c, 0, 76, 0
2, 194122, Note_on_c, 0, 73, 47
2, 194127, Note_on_c, 0, 75, 0
2, 194351, Note_on_c, 0, 72, 47
2, 194407, Note_on_c, 0, 73, 0
2, 194552, Note_on_c, 0, 73, 43
2, 194562, Note_on_c, 0, 64, 37
2, 194606, Note_on_c, 0, 72, 0
2, 194611, Note_on_c, 0, 63, 0
2, 194786, Note_on_c, 0, 66, 35
2, 194788, Note_on_c, 0, 75, 50
2, 194804, Note_on_c, 0, 64, 0
2, 194982, Note_on_c, 0, 63, 44
2, 195003, Note_on_c, 0, 72, 44
2, 195059, Note_on_c, 0, 66, 0
2, 195194, Control_c, 0, 64, 44
2, 195218, Note_on_c, 0, 63, 0
2, 195224, Note_on_c, 0, 64, 31
2, 195232, Note_on_c, 0, 73, 0
2, 195240, Control_c, 0, 64, 44
2, 195272, Note_on_c, 0, 68, 50
2, 195287, Control_c, 0, 64, 45
2, 195341, Note_on_c, 0, 75, 0
2, 195347, Control_c, 0, 64, 45
2, 195367, Note_on_c, 0, 72, 0
2, 195397, Note_on_c, 0, 78, 0
2, 195438, Control_c, 0, 64, 46
2, 195459, Note_on_c, 0, 63, 40
2, 195529, Control_c, 0, 64, 46
2, 195547, Note_on_c, 0, 64, 0
2, 195676, Note_on_c, 0, 76, 72
2, 195704, Note_on_c, 0, 61, 40
2, 195826, Note_on_c, 0, 63, 0
2, 195899, Note_on_c, 0, 61, 0
2, 195917, Note_on_c, 0, 59, 44
2, 196095, Note_on_c, 0, 68, 0
2, 196121, Note_on_c, 0, 59, 0
2, 196127, Note_on_c, 0, 67, 46
2, 196138, Note_on_c, 0, 58, 41
2, 196269, Note_on_c, 0, 58, 0
2, 196308, Note_on_c, 0, 75, 63
2, 196311, Note_on_c, 0, 59, 10
2, 196362, Note_on_c, 0, 76, 0
2, 196514, Note_on_c, 0, 76, 65
2, 196529, Note_on_c, 0, 59, 0
2, 196542, Note_on_c, 0, 61, 34
2, 196557, Note_on_c, 0, 75, 0
2, 196730, Note_on_c, 0, 58, 39
2, 196759, Note_on_c, 0, 73, 43
2, 196959, Note_on_c, 0, 58, 0
2, 196975, Note_on_c, 0, 59, 37
2, 196984, Note_on_c, 0, 75, 60
2, 197002, Note_on_c, 0, 73, 0
2, 197015, Note_on_c, 0, 61, 0
2, 197041, Note_on_c, 0, 76, 0
2, 197101, Note_on_c, 0, 67, 0
2, 197196, Note_on_c, 0, 73, 50
2, 197394, Note_on_c, 0, 73, 0
2, 197418, Note_on_c, 0, 71, 53
2, 197630, Note_on_c, 0, 70, 51
2, 197716, Note_on_c, 0, 71, 0
2, 197857, Note_on_c, 0, 68, 51
2, 197882, Note_on_c, 0, 70, 0
2, 198060, Note_on_c, 0, 61, 45
2, 198063, Note_on_c, 0, 70, 43
2, 198074, Note_on_c, 0, 59, 0
2, 198107, Note_on_c, 0, 68, 0
2, 198280, Note_on_c, 0, 63, 48
2, 198287, Note_on_c, 0, 71, 50
2, 198302, Note_on_c, 0, 61, 0
2, 198480, Note_on_c, 0, 59, 47
2, 198481, Note_on_c, 0, 63, 0
2, 198489, Note_on_c, 0, 68, 56
2, 198579, Note_on_c, 0, 71, 0
2, 198706, Note_on_c, 0, 59, 0
2, 198733, Note_on_c, 0, 61, 41
2, 198734, Note_on_c, 0, 70, 0
2, 198741, Note_on_c, 0, 65, 54
2, 198799, Control_c, 0, 64, 47
2, 198822, Control_c, 0, 64, 49
2, 198837, Control_c, 0, 64, 51
2, 198853, Control_c, 0, 64, 54
2, 198867, Control_c, 0, 64, 56
2, 198879, Note_on_c, 0, 68, 0
2, 198882, Control_c, 0, 64, 59
2, 198898, Control_c, 0, 64, 61
2, 198913, Control_c, 0, 64, 62
2, 198929, Control_c, 0, 64, 63
2, 198944, Control_c, 0, 64, 64
2, 198959, Control_c, 0, 64, 65
2, 198975, Control_c, 0, 64, 66
2, 198977, Note_on_c, 0, 61, 0
2, 198978, Note_on_c, 0, 59, 47
2, 199050, Control_c, 0, 64, 65
2, 199056, Note_on_c, 0, 65, 0
2, 199096, Control_c, 0, 64, 65
2, 199141, Control_c, 0, 64, 64
2, 199172, Control_c, 0, 64, 64
2, 199175, Note_on_c, 0, 73, 53
2, 199180, Note_on_c, 0, 58, 49
2, 199186, Note_on_c, 0, 67, 56
2, 199217, Control_c, 0, 64, 63
2, 199247, Control_c, 0, 64, 63
2, 199262, Control_c, 0, 64, 62
2, 199262, Note_on_c, 0, 59, 0
2, 199277, Control_c, 0, 64, 62
2, 199308, Control_c, 0, 64, 61
2, 199323, Control_c, 0, 64, 61
2, 199339, Control_c, 0, 64, 60
2, 199353, Control_c, 0, 64, 60
2, 199370, Control_c, 0, 64, 59
2, 199388, Note_on_c, 0, 56, 46
2, 199389, Note_on_c, 0, 68, 69
2, 199400, Control_c, 0, 64, 59
2, 199427, Note_on_c, 0, 58, 0
2, 199430, Control_c, 0, 64, 58
2, 199442, Note_on_c, 0, 67, 0
2, 199492, Control_c, 0, 64, 58
2, 199521, Control_c, 0, 64, 57
2, 199552, Control_c, 0, 64, 57
2, 199568, Control_c, 0, 64, 56
2, 199588, Note_on_c, 0, 56, 0
2, 199595, Note_on_c, 0, 70, 61
2, 199606, Control_c, 0, 64, 56
2, 199612, Note_on_c, 0, 55, 41
2, 199621, Control_c, 0, 64, 55
2, 199635, Control_c, 0, 64, 55
2, 199651, Control_c, 0, 64, 54
2, 199666, Control_c, 0, 64, 53
2, 199681, Control_c, 0, 64, 53
2, 199696, Control_c, 0, 64, 52
2, 199711, Control_c, 0, 64, 52
2, 199729, Note_on_c, 0, 73, 0
2, 199733, Note_on_c, 0, 68, 0
2, 199742, Control_c, 0, 64, 51
2, 199757, Control_c, 0, 64, 51
2, 199797, Note_on_c, 0, 71, 61
2, 199801, Note_on_c, 0, 56, 48
2, 199803, Note_on_c, 0, 55, 0
2, 199819, Control_c, 0, 64, 50
2, 199833, Control_c, 0, 64, 50
2, 199851, Note_on_c, 0, 70, 0
2, 199864, Control_c, 0, 64, 49
2, 199879, Control_c, 0, 64, 49
2, 199909, Control_c, 0, 64, 48
2, 199985, Control_c, 0, 64, 48
2, 200001, Note_on_c, 0, 56, 0
2, 200003, Note_on_c, 0, 71, 0
2, 200008, Note_on_c, 0, 73, 54
2, 200020, Note_on_c, 0, 58, 43
2, 200214, Note_on_c, 0, 58, 0
2, 200218, Note_on_c, 0, 70, 48
2, 200226, Note_on_c, 0, 55, 28
2, 200281, Note_on_c, 0, 73, 0
2, 200362, Note_on_c, 0, 75, 0
2, 200446, Note_on_c, 0, 56, 42
2, 200452, Note_on_c, 0, 55, 0
2, 200468, Note_on_c, 0, 71, 49
2, 200555, Note_on_c, 0, 70, 0
2, 200659, Note_on_c, 0, 67, 49
2, 200814, Note_on_c, 0, 67, 0
2, 200886, Note_on_c, 0, 68, 58
2, 200928, Note_on_c, 0, 71, 0
2, 200981, Note_on_c, 0, 54, 48
2, 201041, Note_on_c, 0, 56, 0
2, 201069, Note_on_c, 0, 71, 59
2, 201081, Note_on_c, 0, 52, 42
2, 201108, Note_on_c, 0, 54, 0
2, 201158, Note_on_c, 0, 52, 0
2, 201160, Note_on_c, 0, 71, 0
2, 201164, Note_on_c, 0, 51, 57
2, 201270, Note_on_c, 0, 51, 0
2, 201300, Note_on_c, 0, 49, 46
2, 201304, Note_on_c, 0, 76, 68
2, 201359, Note_on_c, 0, 68, 0
2, 201416, Control_c, 0, 64, 47
2, 201497, Note_on_c, 0, 59, 50
2, 201500, Note_on_c, 0, 68, 62
2, 201620, Note_on_c, 0, 59, 0
2, 201715, Note_on_c, 0, 58, 54
2, 201723, Note_on_c, 0, 73, 70
2, 201781, Note_on_c, 0, 68, 0
2, 201795, Note_on_c, 0, 76, 0
2, 201911, Note_on_c, 0, 54, 55
2, 201918, Note_on_c, 0, 76, 72
2, 201941, Note_on_c, 0, 58, 0
2, 202068, Note_on_c, 0, 76, 0
2, 202121, Note_on_c, 0, 59, 54
2, 202129, Note_on_c, 0, 49, 0
2, 202145, Note_on_c, 0, 75, 80
2, 202182, Note_on_c, 0, 54, 0
2, 202235, Note_on_c, 0, 73, 0
2, 202344, Note_on_c, 0, 70, 68
2, 202441, Note_on_c, 0, 70, 0
2, 202533, Control_c, 0, 64, 48
2, 202567, Note_on_c, 0, 71, 70
2, 202584, Note_on_c, 0, 75, 0
2, 202659, Note_on_c, 0, 58, 55
2, 202693, Control_c, 0, 64, 48
2, 202720, Note_on_c, 0, 59, 0
2, 202723, Control_c, 0, 67, 126
2, 202738, Control_c, 0, 67, 121
2, 202753, Control_c, 0, 67, 114
2, 202762, Note_on_c, 0, 56, 65
2, 202766, Note_on_c, 0, 75, 76
2, 202769, Control_c, 0, 67, 107
2, 202784, Control_c, 0, 67, 99
2, 202799, Control_c, 0, 67, 91
2, 202807, Note_on_c, 0, 58, 0
2, 202815, Control_c, 0, 67, 80
2, 202830, Control_c, 0, 67, 71
2, 202846, Control_c, 0, 67, 61
2, 202853, Note_on_c, 0, 54, 63
2, 202854, Note_on_c, 0, 75, 0
2, 202860, Control_c, 0, 67, 52
2, 202860, Note_on_c, 0, 56, 0
2, 202875, Control_c, 0, 67, 44
2, 202891, Control_c, 0, 67, 36
2, 202906, Control_c, 0, 67, 26
2, 202921, Control_c, 0, 67, 17
2, 202936, Control_c, 0, 67, 9
2, 202951, Control_c, 0, 67, 0
2, 202959, Note_on_c, 0, 52, 59
2, 202975, Note_on_c, 0, 80, 82
2, 202987, Note_on_c, 0, 54, 0
2, 203043, Note_on_c, 0, 71, 0
2, 203170, Note_on_c, 0, 63, 64
2, 203170, Note_on_c, 0, 71, 72
2, 203267, Note_on_c, 0, 63, 0
2, 203275, Note_on_c, 0, 71, 0
2, 203375, Note_on_c, 0, 76, 75
2, 203382, Note_on_c, 0, 61, 68
2, 203439, Note_on_c, 0, 80, 0
2, 203506, Control_c, 0, 64, 49
2, 203566, Note_on_c, 0, 58, 64
2, 203581, Note_on_c, 0, 80, 78
2, 203612, Note_on_c, 0, 61, 0
2, 203733, Note_on_c, 0, 52, 0
2, 203784, Note_on_c, 0, 63, 72
2, 203793, Note_on_c, 0, 78, 83
2, 203840, Note_on_c, 0, 76, 0
2, 203846, Note_on_c, 0, 80, 0
2, 203851, Note_on_c, 0, 58, 0
2, 203990, Note_on_c, 0, 73, 81
2, 204087, Note_on_c, 0, 73, 0
2, 204215, Note_on_c, 0, 75, 86
2, 204256, Note_on_c, 0, 78, 0
2, 204300, Note_on_c, 0, 61, 68
2, 204358, Note_on_c, 0, 63, 0
2, 204392, Note_on_c, 0, 59, 69
2, 204400, Note_on_c, 0, 78, 86
2, 204448, Note_on_c, 0, 61, 0
2, 204480, Note_on_c, 0, 58, 73
2, 204510, Note_on_c, 0, 59, 0
2, 204572, Note_on_c, 0, 78, 0
2, 204597, Note_on_c, 0, 56, 68
2, 204613, Note_on_c, 0, 83, 85
2, 204622, Note_on_c, 0, 58, 0
2, 204682, Note_on_c, 0, 75, 0
2, 204802, Note_on_c, 0, 66, 72
2, 204807, Note_on_c, 0, 75, 87
2, 204902, Note_on_c, 0, 66, 0
2, 204944, Note_on_c, 0, 75, 0
2, 205020, Note_on_c, 0, 80, 89
2, 205027, Note_on_c, 0, 65, 71
2, 205061, Note_on_c, 0, 83, 0
2, 205218, Note_on_c, 0, 83, 89
2, 205236, Note_on_c, 0, 61, 64
2, 205239, Note_on_c, 0, 65, 0
2, 205343, Note_on_c, 0, 83, 0
2, 205426, Note_on_c, 0, 56, 0
2, 205477, Note_on_c, 0, 66, 55
2, 205479, Note_on_c, 0, 82, 82
2, 205515, Note_on_c, 0, 61, 0
2, 205552, Note_on_c, 0, 80, 0
2, 205700, Note_on_c, 0, 77, 79
2, 205702, Note_on_c, 0, 68, 62
2, 205718, Note_on_c, 0, 66, 0
2, 205855, Note_on_c, 0, 77, 0
2, 205948, Note_on_c, 0, 70, 50
2, 205954, Note_on_c, 0, 78, 82
2, 205996, Note_on_c, 0, 68, 0
2, 206133, Note_on_c, 0, 70, 0
2, 206146, Note_on_c, 0, 66, 57
2, 206168, Note_on_c, 0, 82, 0
2, 206169, Note_on_c, 0, 73, 77
2, 206235, Note_on_c, 0, 73, 0
2, 206370, Note_on_c, 0, 63, 42
2, 206402, Note_on_c, 0, 81, 68
2, 206410, Note_on_c, 0, 66, 0
2, 206439, Note_on_c, 0, 78, 0
2, 206508, Note_on_c, 0, 80, 69
2, 206574, Note_on_c, 0, 64, 50
2, 206599, Note_on_c, 0, 63, 0
2, 206604, Note_on_c, 0, 78, 78
2, 206623, Note_on_c, 0, 81, 0
2, 206688, Note_on_c, 0, 76, 71
2, 206688, Note_on_c, 0, 80, 0
2, 206761, Note_on_c, 0, 78, 0
2, 206774, Note_on_c, 0, 64, 0
2, 206786, Note_on_c, 0, 66, 47
2, 206796, Note_on_c, 0, 75, 82
2, 206844, Note_on_c, 0, 76, 0
2, 206990, Note_on_c, 0, 78, 79
2, 206998, Note_on_c, 0, 63, 52
2, 207110, Note_on_c, 0, 78, 0
2, 207181, Note_on_c, 0, 63, 0
2, 207209, Note_on_c, 0, 80, 80
2, 207210, Note_on_c, 0, 60, 50
2, 207241, Note_on_c, 0, 75, 0
2, 207434, Note_on_c, 0, 76, 58
2, 207438, Note_on_c, 0, 61, 40
2, 207450, Note_on_c, 0, 66, 0
2, 207510, Note_on_c, 0, 60, 0
2, 207621, Control_c, 0, 64, 48
2, 207639, Note_on_c, 0, 63, 44
2, 207641, Note_on_c, 0, 61, 0
2, 207651, Note_on_c, 0, 78, 59
2, 207674, Note_on_c, 0, 76, 0
2, 207823, Note_on_c, 0, 63, 0
2, 207836, Note_on_c, 0, 75, 53
2, 207842, Note_on_c, 0, 60, 43
2, 207915, Note_on_c, 0, 78, 0
2, 208030, Note_on_c, 0, 60, 0
2, 208066, Note_on_c, 0, 61, 42
2, 208067, Note_on_c, 0, 76, 53
2, 208161, Note_on_c, 0, 75, 0
2, 208264, Note_on_c, 0, 61, 0
2, 208272, Note_on_c, 0, 63, 41
2, 208274, Note_on_c, 0, 72, 51
2, 208281, Control_c, 0, 64, 48
2, 208403, Control_c, 0, 64, 47
2, 208465, Control_c, 0, 64, 47
2, 208479, Note_on_c, 0, 76, 0
2, 208489, Note_on_c, 0, 63, 0
2, 208498, Note_on_c, 0, 73, 51
2, 208502, Note_on_c, 0, 64, 40
2, 208510, Control_c, 0, 64, 46
2, 208510, Note_on_c, 0, 72, 0
2, 208526, Control_c, 0, 64, 45
2, 208540, Control_c, 0, 64, 42
2, 208555, Control_c, 0, 64, 42
2, 208601, Control_c, 0, 64, 44
2, 208616, Control_c, 0, 64, 47
2, 208631, Control_c, 0, 64, 51
2, 208647, Control_c, 0, 64, 55
2, 208662, Control_c, 0, 64, 58
2, 208677, Control_c, 0, 64, 60
2, 208692, Control_c, 0, 64, 62
2, 208707, Control_c, 0, 64, 64
2, 208719, Note_on_c, 0, 76, 48
2, 208722, Control_c, 0, 64, 67
2, 208738, Control_c, 0, 64, 69
2, 208752, Control_c, 0, 64, 73
2, 208768, Control_c, 0, 64, 76
2, 208783, Control_c, 0, 64, 80
2, 208803, Note_on_c, 0, 80, 0
2, 208807, Control_c, 0, 64, 81
2, 208822, Control_c, 0, 64, 82
2, 208836, Control_c, 0, 64, 81
2, 208852, Control_c, 0, 64, 80
2, 208867, Control_c, 0, 64, 79
2, 208882, Control_c, 0, 64, 78
2, 208898, Control_c, 0, 64, 76
2, 208912, Control_c, 0, 64, 74
2, 208928, Control_c, 0, 64, 73
2, 208943, Control_c, 0, 64, 72
2, 208945, Note_on_c, 0, 64, 0
2, 208957, Control_c, 0, 64, 70
2, 208968, Note_on_c, 0, 70, 53
2, 208973, Control_c, 0, 64, 69
2, 208988, Control_c, 0, 64, 67
2, 209003, Control_c, 0, 64, 65
2, 209019, Control_c, 0, 64, 64
2, 209049, Control_c, 0, 64, 64
2, 209049, Note_on_c, 0, 73, 0
2, 209064, Control_c, 0, 64, 63
2, 209079, Control_c, 0, 64, 63
2, 209095, Control_c, 0, 64, 62
2, 209110, Control_c, 0, 64, 59
2, 209124, Control_c, 0, 64, 58
2, 209140, Control_c, 0, 64, 57
2, 209155, Control_c, 0, 64, 57
2, 209158, Note_on_c, 0, 76, 0
2, 209161, Note_on_c, 0, 80, 53
2, 209171, Control_c, 0, 64, 56
2, 209176, Note_on_c, 0, 64, 34
2, 209186, Control_c, 0, 64, 54
2, 209201, Control_c, 0, 64, 48
2, 209217, Control_c, 0, 64, 40
2, 209232, Control_c, 0, 64, 34
2, 209248, Control_c, 0, 64, 31
2, 209263, Control_c, 0, 64, 30
2, 209277, Control_c, 0, 64, 30
2, 209384, Control_c, 0, 64, 31
2, 209388, Note_on_c, 0, 63, 44
2, 209388, Note_on_c, 0, 78, 57
2, 209399, Control_c, 0, 64, 36
2, 209415, Control_c, 0, 64, 41
2, 209430, Control_c, 0, 64, 48
2, 209446, Control_c, 0, 64, 52
2, 209460, Control_c, 0, 64, 55
2, 209475, Control_c, 0, 64, 58
2, 209491, Control_c, 0, 64, 61
2, 209500, Note_on_c, 0, 64, 0
2, 209506, Control_c, 0, 64, 63
2, 209521, Control_c, 0, 64, 65
2, 209536, Control_c, 0, 64, 66
2, 209551, Control_c, 0, 64, 67
2, 209575, Control_c, 0, 64, 67
2, 209602, Note_on_c, 0, 76, 55
2, 209610, Note_on_c, 0, 61, 36
2, 209651, Control_c, 0, 64, 67
2, 209680, Control_c, 0, 64, 66
2, 209696, Control_c, 0, 64, 66
2, 209711, Control_c, 0, 64, 65
2, 209711, Note_on_c, 0, 70, 0
2, 209727, Control_c, 0, 64, 65
2, 209742, Control_c, 0, 64, 64
2, 209756, Control_c, 0, 64, 64
2, 209772, Control_c, 0, 64, 63
2, 209782, Note_on_c, 0, 63, 0
2, 209787, Control_c, 0, 64, 63
2, 209799, Note_on_c, 0, 61, 0
2, 209814, Note_on_c, 0, 59, 47
2, 209816, Note_on_c, 0, 71, 60
2, 209816, Note_on_c, 0, 75, 55
2, 209817, Control_c, 0, 64, 62
2, 209832, Control_c, 0, 64, 61
2, 209838, Note_on_c, 0, 76, 0
2, 209848, Control_c, 0, 64, 60
2, 209855, Note_on_c, 0, 78, 0
2, 209863, Control_c, 0, 64, 59
2, 209877, Control_c, 0, 64, 56
2, 209893, Control_c, 0, 64, 54
2, 209902, Note_on_c, 0, 80, 0
2, 209908, Control_c, 0, 64, 53
2, 209923, Control_c, 0, 64, 50
2, 209939, Control_c, 0, 64, 47
2, 209953, Control_c, 0, 64, 42
2, 209969, Control_c, 0, 64, 32
2, 209984, Control_c, 0, 64, 22
2, 209999, Control_c, 0, 64, 14
2, 210004, Note_on_c, 0, 75, 0
2, 210015, Control_c, 0, 64, 12
2, 210046, Note_on_c, 0, 76, 54
2, 210063, Note_on_c, 0, 61, 29
2, 210121, Control_c, 0, 64, 16
2, 210137, Control_c, 0, 64, 21
2, 210152, Control_c, 0, 64, 24
2, 210168, Control_c, 0, 64, 26
2, 210183, Control_c, 0, 64, 28
2, 210198, Control_c, 0, 64, 30
2, 210214, Control_c, 0, 64, 33
2, 210228, Control_c, 0, 64, 36
2, 210243, Control_c, 0, 64, 40
2, 210243, Note_on_c, 0, 78, 66
2, 210254, Note_on_c, 0, 63, 41
2, 210257, Note_on_c, 0, 59, 0
2, 210259, Control_c, 0, 64, 45
2, 210274, Control_c, 0, 64, 49
2, 210286, Note_on_c, 0, 61, 0
2, 210290, Control_c, 0, 64, 53
2, 210304, Control_c, 0, 64, 56
2, 210319, Control_c, 0, 64, 59
2, 210342, Control_c, 0, 64, 62
2, 210357, Control_c, 0, 64, 64
2, 210373, Control_c, 0, 64, 66
2, 210388, Control_c, 0, 64, 67
2, 210402, Control_c, 0, 64, 69
2, 210418, Control_c, 0, 64, 70
2, 210433, Control_c, 0, 64, 72
2, 210449, Control_c, 0, 64, 74
2, 210451, Note_on_c, 0, 63, 0
2, 210463, Note_on_c, 0, 59, 47
2, 210463, Note_on_c, 0, 75, 67
2, 210464, Control_c, 0, 64, 75
2, 210479, Control_c, 0, 64, 76
2, 210505, Note_on_c, 0, 76, 0
2, 210510, Control_c, 0, 64, 76
2, 210510, Note_on_c, 0, 78, 0
2, 210540, Control_c, 0, 64, 77
2, 210547, Note_on_c, 0, 59, 0
2, 210631, Control_c, 0, 64, 76
2, 210646, Control_c, 0, 64, 76
2, 210661, Control_c, 0, 64, 75
2, 210676, Control_c, 0, 64, 75
2, 210692, Control_c, 0, 64, 74
2, 210696, Note_on_c, 0, 56, 42
2, 210705, Note_on_c, 0, 76, 64
2, 210707, Control_c, 0, 64, 73
2, 210721, Control_c, 0, 64, 72
2, 210737, Control_c, 0, 64, 71
2, 210752, Control_c, 0, 64, 70
2, 210767, Control_c, 0, 64, 69
2, 210767, Note_on_c, 0, 75, 0
2, 210782, Control_c, 0, 64, 67
2, 210797, Control_c, 0, 64, 66
2, 210813, Control_c, 0, 64, 64
2, 210828, Control_c, 0, 64, 62
2, 210844, Control_c, 0, 64, 60
2, 210860, Control_c, 0, 64, 59
2, 210874, Control_c, 0, 64, 59
2, 210890, Control_c, 0, 64, 58
2, 210905, Control_c, 0, 64, 57
2, 210920, Control_c, 0, 64, 54
2, 210932, Note_on_c, 0, 73, 60
2, 210936, Control_c, 0, 64, 51
2, 210943, Note_on_c, 0, 58, 54
2, 210950, Control_c, 0, 64, 46
2, 210966, Control_c, 0, 64, 40
2, 210977, Note_on_c, 0, 71, 0
2, 210981, Control_c, 0, 64, 32
2, 210996, Control_c, 0, 64, 8
2, 211012, Control_c, 0, 64, 0
2, 211073, Note_on_c, 0, 56, 0
2, 211155, Note_on_c, 0, 75, 71
2, 211172, Note_on_c, 0, 59, 63
2, 211201, Control_c, 0, 64, 34
2, 211216, Control_c, 0, 64, 53
2, 211231, Control_c, 0, 64, 60
2, 211247, Control_c, 0, 64, 63
2, 211256, Note_on_c, 0, 58, 0
2, 211262, Control_c, 0, 64, 64
2, 211277, Control_c, 0, 64, 64
2, 211339, Control_c, 0, 64, 64
2, 211350, Note_on_c, 0, 73, 0
2, 211369, Note_on_c, 0, 56, 67
2, 211375, Note_on_c, 0, 71, 71
2, 211384, Control_c, 0, 64, 63
2, 211399, Control_c, 0, 64, 63
2, 211402, Note_on_c, 0, 59, 0
2, 211429, Control_c, 0, 64, 62
2, 211433, Note_on_c, 0, 75, 0
2, 211520, Control_c, 0, 64, 62
2, 211581, Control_c, 0, 64, 61
2, 211597, Note_on_c, 0, 73, 79
2, 211608, Note_on_c, 0, 58, 74
2, 211668, Note_on_c, 0, 56, 0
2, 211670, Note_on_c, 0, 71, 0
2, 211689, Control_c, 0, 64, 61
2, 211825, Note_on_c, 0, 68, 81
2, 211830, Note_on_c, 0, 59, 80
2, 211879, Note_on_c, 0, 58, 0
2, 211894, Control_c, 0, 64, 60
2, 211909, Control_c, 0, 64, 60
2, 211939, Control_c, 0, 64, 59
2, 212015, Control_c, 0, 64, 58
2, 212030, Control_c, 0, 64, 55
2, 212046, Control_c, 0, 64, 51
2, 212060, Control_c, 0, 64, 46
2, 212061, Note_on_c, 0, 70, 80
2, 212063, Note_on_c, 0, 61, 84
2, 212075, Control_c, 0, 64, 33
2, 212091, Control_c, 0, 64, 24
2, 212100, Note_on_c, 0, 73, 0
2, 212106, Control_c, 0, 64, 22
2, 212121, Control_c, 0, 64, 21
2, 212134, Note_on_c, 0, 68, 0
2, 212197, Control_c, 0, 64, 31
2, 212213, Control_c, 0, 64, 46
2, 212228, Control_c, 0, 64, 56
2, 212243, Control_c, 0, 64, 61
2, 212258, Control_c, 0, 64, 65
2, 212273, Control_c, 0, 64, 70
2, 212289, Control_c, 0, 64, 76
2, 212294, Note_on_c, 0, 73, 86
2, 212304, Control_c, 0, 64, 86
2, 212318, Note_on_c, 0, 76, 0
2, 212319, Control_c, 0, 64, 103
2, 212334, Control_c, 0, 64, 127
2, 212413, Note_on_c, 0, 61, 0
2, 212620, Note_on_c, 0, 75, 80
2, 212630, Note_on_c, 0, 47, 81
2, 212640, Note_on_c, 0, 66, 53
2, 212662, Control_c, 0, 64, 105
2, 212677, Control_c, 0, 64, 94
2, 212692, Control_c, 0, 64, 88
2, 212705, Note_on_c, 0, 59, 0
2, 212707, Control_c, 0, 64, 82
2, 212720, Note_on_c, 0, 73, 0
2, 212722, Control_c, 0, 64, 75
2, 212738, Control_c, 0, 64, 68
2, 212748, Note_on_c, 0, 70, 0
2, 212753, Control_c, 0, 64, 60
2, 212768, Control_c, 0, 64, 52
2, 212783, Control_c, 0, 64, 45
2, 212798, Control_c, 0, 64, 39
2, 212814, Control_c, 0, 64, 14
2, 212829, Control_c, 0, 64, 0
2, 212998, Note_on_c, 0, 59, 52
2, 213072, Control_c, 0, 64, 32
2, 213088, Control_c, 0, 64, 51
2, 213102, Control_c, 0, 64, 60
2, 213117, Control_c, 0, 64, 64
2, 213133, Control_c, 0, 64, 66
2, 213144, Note_on_c, 0, 47, 0
2, 213148, Control_c, 0, 64, 69
2, 213163, Control_c, 0, 64, 72
2, 213178, Control_c, 0, 64, 78
2, 213193, Control_c, 0, 64, 85
2, 213209, Control_c, 0, 64, 92
2, 213216, Note_on_c, 0, 59, 0
2, 213217, Note_on_c, 0, 71, 75
2, 213224, Control_c, 0, 64, 103
2, 213237, Note_on_c, 0, 58, 56
2, 213239, Control_c, 0, 64, 116
2, 213254, Control_c, 0, 64, 127
2, 213429, Note_on_c, 0, 58, 0
2, 213438, Note_on_c, 0, 56, 67
2, 213643, Note_on_c, 0, 55, 59
2, 213656, Note_on_c, 0, 51, 80
2, 213657, Note_on_c, 0, 70, 75
2, 213703, Control_c, 0, 64, 115
2, 213718, Control_c, 0, 64, 93
2, 213729, Note_on_c, 0, 71, 0
2, 213734, Control_c, 0, 64, 81
2, 213740, Note_on_c, 0, 56, 0
2, 213748, Control_c, 0, 64, 71
2, 213763, Control_c, 0, 64, 63
2, 213779, Control_c, 0, 64, 53
2, 213794, Control_c, 0, 64, 42
2, 213810, Control_c, 0, 64, 37
2, 213821, Note_on_c, 0, 75, 0
2, 213824, Control_c, 0, 64, 23
2, 213839, Control_c, 0, 64, 0
2, 213945, Note_on_c, 0, 56, 50
2, 213963, Note_on_c, 0, 55, 0
2, 214113, Control_c, 0, 64, 8
2, 214121, Note_on_c, 0, 73, 70
2, 214130, Control_c, 0, 64, 34
2, 214133, Note_on_c, 0, 58, 69
2, 214145, Control_c, 0, 64, 46
2, 214157, Note_on_c, 0, 56, 0
2, 214160, Control_c, 0, 64, 54
2, 214182, Control_c, 0, 64, 60
2, 214197, Control_c, 0, 64, 62
2, 214213, Control_c, 0, 64, 64
2, 214217, Note_on_c, 0, 66, 0
2, 214228, Control_c, 0, 64, 66
2, 214243, Control_c, 0, 64, 67
2, 214258, Control_c, 0, 64, 68
2, 214273, Control_c, 0, 64, 69
2, 214289, Control_c, 0, 64, 70
2, 214304, Control_c, 0, 64, 71
2, 214319, Control_c, 0, 64, 71
2, 214335, Control_c, 0, 64, 72
2, 214337, Note_on_c, 0, 55, 73
2, 214366, Control_c, 0, 64, 72
2, 214380, Control_c, 0, 64, 73
2, 214395, Control_c, 0, 64, 74
2, 214400, Note_on_c, 0, 58, 0
2, 214411, Control_c, 0, 64, 74
2, 214426, Control_c, 0, 64, 75
2, 214471, Control_c, 0, 64, 74
2, 214497, Note_on_c, 0, 73, 0
2, 214502, Control_c, 0, 64, 74
2, 214505, Note_on_c, 0, 51, 0
2, 214516, Control_c, 0, 64, 73
2, 214547, Control_c, 0, 64, 73
2, 214562, Control_c, 0, 64, 72
2, 214578, Control_c, 0, 64, 70
2, 214592, Control_c, 0, 64, 68
2, 214595, Note_on_c, 0, 56, 79
2, 214608, Control_c, 0, 64, 65
2, 214609, Note_on_c, 0, 71, 60
2, 214623, Control_c, 0, 64, 63
2, 214638, Control_c, 0, 64, 60
2, 214654, Control_c, 0, 64, 55
2, 214656, Note_on_c, 0, 55, 0
2, 214668, Control_c, 0, 64, 39
2, 214668, Note_on_c, 0, 70, 0
2, 214683, Control_c, 0, 64, 0
2, 214866, Control_c, 0, 64, 30
2, 214881, Control_c, 0, 64, 54
2, 214888, Note_on_c, 0, 59, 62
2, 214897, Control_c, 0, 64, 63
2, 214912, Control_c, 0, 64, 68
2, 214927, Control_c, 0, 64, 75
2, 214951, Control_c, 0, 64, 92
2, 214967, Control_c, 0, 64, 127
2, 214989, Note_on_c, 0, 56, 0
2, 215099, Note_on_c, 0, 68, 75
2, 215100, Note_on_c, 0, 61, 75
2, 215102, Note_on_c, 0, 59, 0
2, 215227, Note_on_c, 0, 71, 0
2, 215288, Note_on_c, 0, 61, 0
2, 215294, Note_on_c, 0, 63, 72
2, 215306, Note_on_c, 0, 67, 82
2, 215351, Note_on_c, 0, 68, 0
2, 215415, Note_on_c, 0, 63, 0
2, 215514, Note_on_c, 0, 64, 13
2, 215520, Note_on_c, 0, 52, 86
2, 215537, Note_on_c, 0, 68, 82
2, 215588, Control_c, 0, 64, 119
2, 215603, Control_c, 0, 64, 92
2, 215619, Control_c, 0, 64, 79
2, 215634, Control_c, 0, 64, 68
2, 215650, Control_c, 0, 64, 60
2, 215665, Control_c, 0, 64, 49
2, 215679, Control_c, 0, 64, 45
2, 215695, Control_c, 0, 64, 44
2, 215717, Control_c, 0, 64, 42
2, 215727, Note_on_c, 0, 71, 74
2, 215733, Control_c, 0, 64, 37
2, 215748, Control_c, 0, 64, 31
2, 215763, Control_c, 0, 64, 19
2, 215780, Control_c, 0, 64, 0
2, 215835, Note_on_c, 0, 68, 0
2, 215941, Note_on_c, 0, 76, 87
2, 215943, Note_on_c, 0, 59, 77
2, 215951, Note_on_c, 0, 67, 0
2, 215960, Control_c, 0, 64, 41
2, 215970, Note_on_c, 0, 71, 0
2, 215976, Control_c, 0, 64, 56
2, 215990, Control_c, 0, 64, 64
2, 216005, Control_c, 0, 64, 68
2, 216021, Control_c, 0, 64, 74
2, 216036, Control_c, 0, 64, 86
2, 216052, Control_c, 0, 64, 105
2, 216066, Control_c, 0, 64, 127
2, 216075, Note_on_c, 0, 76, 0
2, 216139, Note_on_c, 0, 52, 0
2, 216147, Note_on_c, 0, 71, 79
2, 216147, Note_on_c, 0, 78, 93
2, 216225, Note_on_c, 0, 64, 0
2, 216332, Note_on_c, 0, 78, 0
2, 216380, Note_on_c, 0, 49, 82
2, 216382, Note_on_c, 0, 80, 88
2, 216388, Note_on_c, 0, 76, 75
2, 216431, Control_c, 0, 64, 100
2, 216447, Control_c, 0, 64, 84
2, 216452, Note_on_c, 0, 59, 0
2, 216462, Control_c, 0, 64, 70
2, 216483, Control_c, 0, 64, 60
2, 216499, Control_c, 0, 64, 40
2, 216514, Control_c, 0, 64, 20
2, 216530, Control_c, 0, 64, 14
2, 216545, Control_c, 0, 64, 0
2, 216628, Note_on_c, 0, 56, 63
2, 216823, Note_on_c, 0, 58, 76
2, 216942, Control_c, 0, 64, 19
2, 216957, Control_c, 0, 64, 48
2, 216973, Control_c, 0, 64, 61
2, 216987, Control_c, 0, 64, 66
2, 217001, Note_on_c, 0, 59, 78
2, 217002, Control_c, 0, 64, 69
2, 217013, Note_on_c, 0, 49, 0
2, 217018, Control_c, 0, 64, 73
2, 217022, Note_on_c, 0, 56, 0
2, 217033, Control_c, 0, 64, 77
2, 217048, Control_c, 0, 64, 81
2, 217051, Note_on_c, 0, 58, 0
2, 217063, Control_c, 0, 64, 82
2, 217078, Control_c, 0, 64, 84
2, 217184, Note_on_c, 0, 80, 0
2, 217187, Note_on_c, 0, 76, 0
2, 217199, Control_c, 0, 64, 83
2, 217215, Control_c, 0, 64, 82
2, 217215, Note_on_c, 0, 61, 75
2, 217221, Note_on_c, 0, 58, 71
2, 217228, Note_on_c, 0, 59, 0
2, 217230, Control_c, 0, 64, 79
2, 217253, Control_c, 0, 64, 76
2, 217268, Control_c, 0, 64, 73
2, 217283, Control_c, 0, 64, 70
2, 217299, Control_c, 0, 64, 66
2, 217314, Control_c, 0, 64, 63
2, 217329, Control_c, 0, 64, 57
2, 217344, Control_c, 0, 64, 51
2, 217359, Control_c, 0, 64, 44
2, 217374, Control_c, 0, 64, 37
2, 217389, Control_c, 0, 64, 26
2, 217395, Note_on_c, 0, 71, 0
2, 217407, Control_c, 0, 64, 0
2, 217430, Note_on_c, 0, 80, 63
2, 217443, Note_on_c, 0, 76, 59
2, 217640, Note_on_c, 0, 66, 72
2, 217664, Note_on_c, 0, 76, 0
2, 217664, Note_on_c, 0, 78, 67
2, 217673, Note_on_c, 0, 75, 62
2, 217801, Control_c, 0, 64, 14
2, 217817, Control_c, 0, 64, 39
2, 217831, Control_c, 0, 64, 50
2, 217847, Control_c, 0, 64, 57
2, 217859, Note_on_c, 0, 73, 59
2, 217862, Control_c, 0, 64, 61
2, 217876, Note_on_c, 0, 76, 60
2, 217877, Control_c, 0, 64, 63
2, 217885, Note_on_c, 0, 75, 0
2, 217892, Control_c, 0, 64, 64
2, 217907, Control_c, 0, 64, 65
2, 217922, Control_c, 0, 64, 67
2, 217938, Control_c, 0, 64, 68
2, 217953, Control_c, 0, 64, 70
2, 217968, Control_c, 0, 64, 72
2, 217978, Note_on_c, 0, 73, 0
2, 217983, Control_c, 0, 64, 74
2, 217998, Control_c, 0, 64, 74
2, 218067, Control_c, 0, 64, 74
2, 218082, Control_c, 0, 64, 73
2, 218092, Note_on_c, 0, 59, 68
2, 218095, Note_on_c, 0, 75, 67
2, 218097, Control_c, 0, 64, 72
2, 218101, Note_on_c, 0, 71, 50
2, 218112, Control_c, 0, 64, 70
2, 218122, Note_on_c, 0, 61, 0
2, 218128, Control_c, 0, 64, 66
2, 218131, Note_on_c, 0, 58, 0
2, 218143, Control_c, 0, 64, 62
2, 218158, Control_c, 0, 64, 56
2, 218161, Note_on_c, 0, 66, 0
2, 218162, Note_on_c, 0, 76, 0
2, 218173, Control_c, 0, 64, 50
2, 218183, Note_on_c, 0, 78, 0
2, 218188, Control_c, 0, 64, 45
2, 218203, Control_c, 0, 64, 43
2, 218217, Note_on_c, 0, 80, 0
2, 218220, Control_c, 0, 64, 42
2, 218235, Control_c, 0, 64, 42
2, 218251, Control_c, 0, 64, 41
2, 218280, Control_c, 0, 64, 40
2, 218316, Note_on_c, 0, 68, 63
2, 218510, Note_on_c, 0, 66, 69
2, 218602, Note_on_c, 0, 68, 0
2, 218716, Note_on_c, 0, 64, 69
2, 218718, Note_on_c, 0, 66, 0
2, 218936, Note_on_c, 0, 71, 0
2, 218938, Note_on_c, 0, 63, 61
2, 218979, Note_on_c, 0, 59, 0
2, 218982, Note_on_c, 0, 64, 0
2, 219132, Note_on_c, 0, 67, 56
2, 219135, Note_on_c, 0, 61, 54
2, 219306, Control_c, 0, 64, 40
2, 219344, Note_on_c, 0, 59, 49
2, 219367, Note_on_c, 0, 68, 61
2, 219443, Control_c, 0, 64, 39
2, 219482, Note_on_c, 0, 67, 0
2, 219523, Note_on_c, 0, 59, 0
2, 219541, Note_on_c, 0, 58, 50
2, 219557, Control_c, 0, 64, 39
2, 219561, Note_on_c, 0, 70, 59
2, 219602, Control_c, 0, 64, 38
2, 219625, Note_on_c, 0, 63, 0
2, 219633, Control_c, 0, 64, 37
2, 219649, Control_c, 0, 64, 37
2, 219664, Control_c, 0, 64, 36
2, 219694, Control_c, 0, 64, 36
2, 219723, Control_c, 0, 64, 35
2, 219739, Control_c, 0, 64, 35
2, 219749, Note_on_c, 0, 68, 0
2, 219754, Control_c, 0, 64, 34
2, 219756, Note_on_c, 0, 70, 0
2, 219758, Note_on_c, 0, 56, 57
2, 219765, Note_on_c, 0, 71, 47
2, 219778, Note_on_c, 0, 58, 0
2, 219781, Note_on_c, 0, 61, 0
2, 219784, Control_c, 0, 64, 34
2, 219815, Control_c, 0, 64, 33
2, 219830, Control_c, 0, 64, 32
2, 219845, Control_c, 0, 64, 32
2, 219862, Control_c, 0, 64, 31
2, 219877, Control_c, 0, 64, 31
2, 219892, Control_c, 0, 64, 30
2, 219907, Control_c, 0, 64, 30
2, 219937, Control_c, 0, 64, 29
2, 219957, Note_on_c, 0, 64, 52
2, 219973, Note_on_c, 0, 70, 44
2, 219983, Control_c, 0, 64, 29
2, 220013, Control_c, 0, 64, 28
2, 220015, Note_on_c, 0, 71, 0
2, 220028, Control_c, 0, 64, 28
2, 220043, Control_c, 0, 64, 27
2, 220074, Control_c, 0, 64, 26
2, 220089, Control_c, 0, 64, 26
2, 220104, Control_c, 0, 64, 24
2, 220119, Control_c, 0, 64, 24
2, 220135, Control_c, 0, 64, 22
2, 220150, Control_c, 0, 64, 21
2, 220158, Note_on_c, 0, 63, 51
2, 220164, Control_c, 0, 64, 19
2, 220168, Note_on_c, 0, 73, 54
2, 220179, Note_on_c, 0, 64, 0
2, 220180, Control_c, 0, 64, 17
2, 220195, Control_c, 0, 64, 15
2, 220211, Control_c, 0, 64, 14
2, 220226, Control_c, 0, 64, 12
2, 220257, Control_c, 0, 64, 10
2, 220287, Control_c, 0, 64, 8
2, 220348, Note_on_c, 0, 61, 50
2, 220354, Control_c, 0, 64, 0
2, 220360, Note_on_c, 0, 63, 0
2, 220364, Note_on_c, 0, 67, 52
2, 220380, Note_on_c, 0, 70, 0
2, 220409, Note_on_c, 0, 73, 0
2, 220542, Note_on_c, 0, 61, 0
2, 220572, Note_on_c, 0, 56, 0
2, 220578, Note_on_c, 0, 59, 47
2, 220587, Note_on_c, 0, 68, 51
2, 220611, Note_on_c, 0, 67, 0
2, 220780, Note_on_c, 0, 58, 46
2, 220986, Note_on_c, 0, 58, 0
2, 220987, Note_on_c, 0, 56, 48
2, 221119, Note_on_c, 0, 68, 0
2, 221198, Note_on_c, 0, 54, 52
2, 221240, Note_on_c, 0, 56, 0
2, 221338, Note_on_c, 0, 75, 0
2, 221425, Note_on_c, 0, 53, 43
2, 221447, Note_on_c, 0, 54, 0
2, 221652, Note_on_c, 0, 75, 47
2, 221849, Note_on_c, 0, 74, 46
2, 221941, Note_on_c, 0, 75, 0
2, 222061, Note_on_c, 0, 72, 53
2, 222095, Note_on_c, 0, 74, 0
2, 222276, Note_on_c, 0, 72, 0
2, 222290, Note_on_c, 0, 74, 55
2, 222476, Note_on_c, 0, 75, 62
2, 222477, Note_on_c, 0, 54, 50
2, 222477, Note_on_c, 0, 59, 0
2, 222508, Note_on_c, 0, 53, 0
2, 222542, Note_on_c, 0, 74, 0
2, 222691, Note_on_c, 0, 77, 71
2, 222701, Note_on_c, 0, 53, 56
2, 222732, Note_on_c, 0, 54, 0
2, 222780, Note_on_c, 0, 75, 0
2, 222883, Note_on_c, 0, 51, 60
2, 222894, Note_on_c, 0, 53, 0
2, 222895, Note_on_c, 0, 78, 77
2, 223124, Note_on_c, 0, 51, 0
2, 223138, Note_on_c, 0, 50, 43
2, 223148, Note_on_c, 0, 80, 77
2, 223186, Note_on_c, 0, 77, 0
2, 223260, Note_on_c, 0, 78, 0
2, 223342, Note_on_c, 0, 46, 45
2, 223400, Note_on_c, 0, 50, 0
2, 223534, Control_c, 0, 64, 8
2, 223559, Note_on_c, 0, 48, 34
2, 223564, Control_c, 0, 64, 10
2, 223577, Note_on_c, 0, 77, 54
2, 223580, Control_c, 0, 64, 14
2, 223594, Control_c, 0, 64, 16
2, 223610, Control_c, 0, 64, 22
2, 223625, Control_c, 0, 64, 30
2, 223640, Control_c, 0, 64, 39
2, 223655, Control_c, 0, 64, 46
2, 223670, Control_c, 0, 64, 52
2, 223685, Control_c, 0, 64, 56
2, 223690, Note_on_c, 0, 46, 0
2, 223701, Control_c, 0, 64, 59
2, 223716, Control_c, 0, 64, 61
2, 223731, Control_c, 0, 64, 63
2, 223746, Control_c, 0, 64, 65
2, 223761, Control_c, 0, 64, 67
2, 223763, Note_on_c, 0, 48, 0
2, 223776, Control_c, 0, 64, 68
2, 223779, Note_on_c, 0, 50, 47
2, 223791, Control_c, 0, 64, 70
2, 223807, Control_c, 0, 64, 71
2, 223822, Control_c, 0, 64, 71
2, 223837, Control_c, 0, 64, 72
2, 223898, Control_c, 0, 64, 71
2, 223910, Note_on_c, 0, 80, 0
2, 223944, Control_c, 0, 64, 71
2, 223959, Control_c, 0, 64, 70
2, 223975, Control_c, 0, 64, 69
2, 223979, Note_on_c, 0, 51, 57
2, 223990, Control_c, 0, 64, 68
2, 223999, Note_on_c, 0, 78, 76
2, 224005, Control_c, 0, 64, 67
2, 224021, Control_c, 0, 64, 66
2, 224035, Control_c, 0, 64, 65
2, 224035, Note_on_c, 0, 50, 0
2, 224051, Control_c, 0, 64, 64
2, 224066, Control_c, 0, 64, 63
2, 224081, Control_c, 0, 64, 61
2, 224097, Control_c, 0, 64, 60
2, 224111, Note_on_c, 0, 77, 0
2, 224112, Control_c, 0, 64, 58
2, 224128, Control_c, 0, 64, 57
2, 224143, Control_c, 0, 64, 56
2, 224164, Control_c, 0, 64, 55
2, 224180, Control_c, 0, 64, 53
2, 224195, Control_c, 0, 64, 52
2, 224207, Note_on_c, 0, 53, 61
2, 224211, Control_c, 0, 64, 51
2, 224226, Control_c, 0, 64, 50
2, 224240, Control_c, 0, 64, 49
2, 224256, Control_c, 0, 64, 48
2, 224266, Note_on_c, 0, 51, 0
2, 224271, Control_c, 0, 64, 47
2, 224287, Control_c, 0, 64, 46
2, 224302, Control_c, 0, 64, 45
2, 224333, Control_c, 0, 64, 45
2, 224423, Note_on_c, 0, 75, 73
2, 224424, Note_on_c, 0, 54, 71
2, 224462, Note_on_c, 0, 53, 0
2, 224515, Control_c, 0, 64, 44
2, 224604, Note_on_c, 0, 51, 66
2, 224614, Note_on_c, 0, 73, 77
2, 224659, Note_on_c, 0, 54, 0
2, 224743, Control_c, 0, 64, 44
2, 224851, Control_c, 0, 64, 43
2, 224851, Note_on_c, 0, 56, 66
2, 224852, Note_on_c, 0, 71, 76
2, 224911, Control_c, 0, 64, 43
2, 224912, Note_on_c, 0, 51, 0
2, 224933, Note_on_c, 0, 75, 0
2, 224949, Control_c, 0, 64, 42
2, 224980, Note_on_c, 0, 73, 0
2, 224995, Control_c, 0, 64, 42
2, 225040, Control_c, 0, 64, 41
2, 225062, Note_on_c, 0, 54, 69
2, 225101, Control_c, 0, 64, 41
2, 225112, Note_on_c, 0, 56, 0
2, 225131, Control_c, 0, 64, 40
2, 225267, Note_on_c, 0, 75, 79
2, 225269, Note_on_c, 0, 56, 72
2, 225329, Control_c, 0, 64, 41
2, 225332, Note_on_c, 0, 54, 0
2, 225344, Control_c, 0, 64, 46
2, 225359, Control_c, 0, 64, 52
2, 225375, Control_c, 0, 64, 55
2, 225390, Control_c, 0, 64, 58
2, 225405, Control_c, 0, 64, 60
2, 225420, Control_c, 0, 64, 62
2, 225435, Control_c, 0, 64, 63
2, 225474, Note_on_c, 0, 58, 76
2, 225480, Control_c, 0, 64, 63
2, 225497, Note_on_c, 0, 71, 0
2, 225533, Note_on_c, 0, 56, 0
2, 225603, Control_c, 0, 64, 63
2, 225607, Note_on_c, 0, 78, 0
2, 225634, Control_c, 0, 64, 62
2, 225649, Control_c, 0, 64, 61
2, 225664, Control_c, 0, 64, 60
2, 225679, Control_c, 0, 64, 59
2, 225688, Note_on_c, 0, 68, 79
2, 225701, Note_on_c, 0, 59, 72
2, 225702, Control_c, 0, 64, 58
2, 225717, Control_c, 0, 64, 56
2, 225733, Control_c, 0, 64, 55
2, 225748, Control_c, 0, 64, 54
2, 225758, Note_on_c, 0, 58, 0
2, 225762, Control_c, 0, 64, 53
2, 225778, Control_c, 0, 64, 52
2, 225793, Control_c, 0, 64, 52
2, 225809, Control_c, 0, 64, 51
2, 225824, Control_c, 0, 64, 51
2, 225854, Control_c, 0, 64, 50
2, 225884, Control_c, 0, 64, 50
2, 225896, Note_on_c, 0, 58, 74
2, 225901, Note_on_c, 0, 78, 82
2, 225924, Note_on_c, 0, 59, 0
2, 225930, Control_c, 0, 64, 49
2, 226105, Note_on_c, 0, 77, 87
2, 226110, Note_on_c, 0, 59, 80
2, 226123, Note_on_c, 0, 75, 0
2, 226136, Note_on_c, 0, 78, 0
2, 226151, Note_on_c, 0, 58, 0
2, 226203, Control_c, 0, 64, 50
2, 226219, Control_c, 0, 64, 50
2, 226234, Control_c, 0, 64, 51
2, 226249, Control_c, 0, 64, 51
2, 226279, Control_c, 0, 64, 52
2, 226295, Control_c, 0, 64, 52
2, 226301, Note_on_c, 0, 75, 89
2, 226308, Note_on_c, 0, 56, 78
2, 226319, Note_on_c, 0, 59, 0
2, 226319, Note_on_c, 0, 77, 0
2, 226324, Control_c, 0, 64, 53
2, 226400, Control_c, 0, 64, 53
2, 226543, Note_on_c, 0, 58, 79
2, 226550, Note_on_c, 0, 74, 80
2, 226567, Note_on_c, 0, 56, 0
2, 226573, Note_on_c, 0, 75, 0
2, 226576, Control_c, 0, 64, 53
2, 226591, Control_c, 0, 64, 52
2, 226607, Control_c, 0, 64, 52
2, 226653, Control_c, 0, 64, 51
2, 226750, Note_on_c, 0, 71, 78
2, 226925, Control_c, 0, 64, 52
2, 226941, Control_c, 0, 64, 52
2, 226951, Note_on_c, 0, 70, 81
2, 226971, Control_c, 0, 64, 53
2, 226980, Note_on_c, 0, 68, 0
2, 227163, Note_on_c, 0, 68, 83
2, 227268, Control_c, 0, 64, 53
2, 227427, Note_on_c, 0, 66, 88
2, 227432, Note_on_c, 0, 70, 0
2, 227454, Note_on_c, 0, 71, 0
2, 227459, Note_on_c, 0, 68, 0
2, 227649, Note_on_c, 0, 70, 90
2, 227674, Note_on_c, 0, 74, 0
2, 227799, Note_on_c, 0, 70, 0
2, 227909, Note_on_c, 0, 75, 90
2, 228065, Control_c, 0, 64, 54
2, 228115, Note_on_c, 0, 57, 81
2, 228142, Note_on_c, 0, 58, 0
2, 228309, Control_c, 0, 64, 54
2, 228339, Note_on_c, 0, 66, 0
2, 228361, Note_on_c, 0, 58, 86
2, 228374, Note_on_c, 0, 65, 80
2, 228392, Note_on_c, 0, 57, 0
2, 228557, Note_on_c, 0, 72, 78
2, 228625, Note_on_c, 0, 75, 0
2, 228769, Note_on_c, 0, 74, 82
2, 228833, Note_on_c, 0, 72, 0
2, 228863, Control_c, 0, 64, 55
2, 228879, Control_c, 0, 64, 55
2, 228949, Note_on_c, 0, 77, 91
2, 228955, Control_c, 0, 64, 56
2, 229000, Control_c, 0, 64, 56
2, 229016, Control_c, 0, 64, 57
2, 229031, Control_c, 0, 64, 57
2, 229047, Control_c, 0, 64, 58
2, 229062, Control_c, 0, 64, 59
2, 229077, Control_c, 0, 64, 59
2, 229108, Control_c, 0, 64, 60
2, 229165, Note_on_c, 0, 46, 77
2, 229172, Note_on_c, 0, 68, 81
2, 229172, Note_on_c, 0, 77, 0
2, 229218, Note_on_c, 0, 74, 0
2, 229260, Control_c, 0, 64, 59
2, 229290, Control_c, 0, 64, 59
2, 229320, Control_c, 0, 64, 58
2, 229336, Control_c, 0, 64, 58
2, 229350, Control_c, 0, 64, 57
2, 229365, Control_c, 0, 64, 57
2, 229377, Note_on_c, 0, 71, 79
2, 229381, Control_c, 0, 64, 56
2, 229396, Control_c, 0, 64, 54
2, 229411, Control_c, 0, 64, 53
2, 229422, Note_on_c, 0, 68, 0
2, 229426, Control_c, 0, 64, 52
2, 229441, Control_c, 0, 64, 51
2, 229457, Control_c, 0, 64, 50
2, 229472, Control_c, 0, 64, 49
2, 229487, Control_c, 0, 64, 48
2, 229571, Control_c, 0, 64, 49
2, 229586, Control_c, 0, 64, 52
2, 229586, Note_on_c, 0, 70, 79
2, 229601, Control_c, 0, 64, 55
2, 229616, Control_c, 0, 64, 58
2, 229631, Control_c, 0, 64, 61
2, 229647, Control_c, 0, 64, 63
2, 229662, Control_c, 0, 64, 65
2, 229677, Control_c, 0, 64, 67
2, 229694, Control_c, 0, 64, 70
2, 229709, Control_c, 0, 64, 74
2, 229723, Control_c, 0, 64, 81
2, 229739, Control_c, 0, 64, 90
2, 229754, Control_c, 0, 64, 105
2, 229770, Control_c, 0, 64, 127
2, 229798, Note_on_c, 0, 68, 75
2, 229816, Note_on_c, 0, 58, 0
2, 229919, Note_on_c, 0, 65, 0
2, 230057, Note_on_c, 0, 54, 89
2, 230074, Note_on_c, 0, 51, 65
2, 230089, Control_c, 0, 64, 114
2, 230089, Note_on_c, 0, 71, 0
2, 230090, Note_on_c, 0, 66, 56
2, 230104, Control_c, 0, 64, 96
2, 230119, Control_c, 0, 64, 86
2, 230134, Control_c, 0, 64, 77
2, 230149, Control_c, 0, 64, 70
2, 230164, Control_c, 0, 64, 64
2, 230180, Control_c, 0, 64, 58
2, 230192, Note_on_c, 0, 46, 0
2, 230195, Control_c, 0, 64, 54
2, 230196, Note_on_c, 0, 70, 0
2, 230210, Control_c, 0, 64, 51
2, 230210, Note_on_c, 0, 68, 0
2, 230225, Control_c, 0, 64, 46
2, 230240, Control_c, 0, 64, 39
2, 230255, Control_c, 0, 64, 16
2, 230270, Control_c, 0, 64, 0
2, 230352, Note_on_c, 0, 65, 63
2, 230361, Note_on_c, 0, 66, 0
2, 230474, Control_c, 0, 64, 14
2, 230490, Control_c, 0, 64, 40
2, 230506, Control_c, 0, 64, 51
2, 230521, Control_c, 0, 64, 58
2, 230537, Control_c, 0, 64, 62
2, 230552, Control_c, 0, 64, 66
2, 230567, Control_c, 0, 64, 71
2, 230567, Note_on_c, 0, 63, 64
2, 230582, Control_c, 0, 64, 78
2, 230591, Note_on_c, 0, 65, 0
2, 230597, Control_c, 0, 64, 89
2, 230613, Control_c, 0, 64, 116
2, 230628, Control_c, 0, 64, 127
2, 230758, Note_on_c, 0, 62, 70
2, 230786, Note_on_c, 0, 63, 0
2, 230941, Note_on_c, 0, 63, 53
2, 230950, Note_on_c, 0, 58, 88
2, 231024, Control_c, 0, 64, 103
2, 231040, Control_c, 0, 64, 88
2, 231055, Control_c, 0, 64, 76
2, 231078, Control_c, 0, 64, 65
2, 231083, Note_on_c, 0, 51, 0
2, 231094, Control_c, 0, 64, 45
2, 231108, Control_c, 0, 64, 0
2, 231170, Note_on_c, 0, 52, 69
2, 231256, Note_on_c, 0, 54, 0
2, 231385, Note_on_c, 0, 51, 80
2, 231428, Note_on_c, 0, 63, 0
2, 231459, Control_c, 0, 64, 31
2, 231474, Control_c, 0, 64, 47
2, 231489, Control_c, 0, 64, 61
2, 231504, Control_c, 0, 64, 68
2, 231504, Note_on_c, 0, 52, 0
2, 231520, Control_c, 0, 64, 77
2, 231534, Control_c, 0, 64, 99
2, 231549, Control_c, 0, 64, 127
2, 231556, Note_on_c, 0, 49, 74
2, 231620, Note_on_c, 0, 51, 0
2, 231807, Note_on_c, 0, 47, 66
2, 231844, Note_on_c, 0, 63, 87
2, 231861, Control_c, 0, 64, 93
2, 231866, Note_on_c, 0, 49, 0
2, 231876, Control_c, 0, 64, 76
2, 231892, Control_c, 0, 64, 63
2, 231907, Control_c, 0, 64, 27
2, 231923, Control_c, 0, 64, 0
2, 231943, Note_on_c, 0, 62, 0
2, 232124, Note_on_c, 0, 46, 68
2, 232149, Note_on_c, 0, 47, 0
2, 232375, Note_on_c, 0, 47, 75
2, 232379, Note_on_c, 0, 66, 69
2, 232425, Note_on_c, 0, 46, 0
2, 232535, Note_on_c, 0, 63, 0
2, 232546, Control_c, 0, 64, 27
2, 232562, Control_c, 0, 64, 46
2, 232577, Control_c, 0, 64, 55
2, 232592, Control_c, 0, 64, 60
2, 232592, Note_on_c, 0, 64, 59
2, 232615, Control_c, 0, 64, 64
2, 232630, Control_c, 0, 64, 66
2, 232646, Control_c, 0, 64, 69
2, 232660, Control_c, 0, 64, 71
2, 232675, Control_c, 0, 64, 75
2, 232691, Control_c, 0, 64, 79
2, 232706, Control_c, 0, 64, 83
2, 232712, Note_on_c, 0, 58, 0
2, 232721, Control_c, 0, 64, 85
2, 232736, Control_c, 0, 64, 85
2, 232751, Control_c, 0, 64, 84
2, 232767, Control_c, 0, 64, 83
2, 232782, Control_c, 0, 64, 82
2, 232797, Control_c, 0, 64, 81
2, 232809, Note_on_c, 0, 59, 82
2, 232812, Control_c, 0, 64, 80
2, 232822, Note_on_c, 0, 63, 45
2, 232827, Control_c, 0, 64, 79
2, 232843, Control_c, 0, 64, 79
2, 232858, Control_c, 0, 64, 78
2, 232866, Note_on_c, 0, 64, 0
2, 232873, Control_c, 0, 64, 76
2, 232889, Control_c, 0, 64, 74
2, 232904, Control_c, 0, 64, 72
2, 232916, Note_on_c, 0, 66, 0
2, 232918, Control_c, 0, 64, 70
2, 232934, Control_c, 0, 64, 68
2, 232949, Control_c, 0, 64, 66
2, 232966, Control_c, 0, 64, 64
2, 232980, Control_c, 0, 64, 62
2, 232995, Control_c, 0, 64, 57
2, 233011, Control_c, 0, 64, 53
2, 233017, Note_on_c, 0, 63, 0
2, 233026, Control_c, 0, 64, 48
2, 233042, Control_c, 0, 64, 38
2, 233043, Note_on_c, 0, 64, 56
2, 233054, Note_on_c, 0, 49, 56
2, 233057, Control_c, 0, 64, 12
2, 233072, Control_c, 0, 64, 0
2, 233123, Note_on_c, 0, 47, 0
2, 233277, Note_on_c, 0, 66, 56
2, 233304, Note_on_c, 0, 51, 74
2, 233357, Note_on_c, 0, 49, 0
2, 233414, Control_c, 0, 64, 18
2, 233428, Control_c, 0, 64, 39
2, 233444, Control_c, 0, 64, 48
2, 233459, Control_c, 0, 64, 53
2, 233474, Control_c, 0, 64, 59
2, 233490, Control_c, 0, 64, 64
2, 233497, Note_on_c, 0, 63, 57
2, 233504, Control_c, 0, 64, 67
2, 233520, Control_c, 0, 64, 70
2, 233520, Note_on_c, 0, 59, 0
2, 233535, Control_c, 0, 64, 74
2, 233550, Control_c, 0, 64, 80
2, 233565, Control_c, 0, 64, 85
2, 233580, Control_c, 0, 64, 90
2, 233595, Control_c, 0, 64, 92
2, 233611, Control_c, 0, 64, 92
2, 233671, Control_c, 0, 64, 92
2, 233687, Control_c, 0, 64, 91
2, 233702, Control_c, 0, 64, 90
2, 233717, Control_c, 0, 64, 90
2, 233728, Note_on_c, 0, 56, 80
2, 233733, Control_c, 0, 64, 88
2, 233748, Control_c, 0, 64, 87
2, 233751, Note_on_c, 0, 59, 50
2, 233763, Control_c, 0, 64, 84
2, 233778, Control_c, 0, 64, 80
2, 233793, Control_c, 0, 64, 74
2, 233805, Note_on_c, 0, 64, 0
2, 233809, Control_c, 0, 64, 68
2, 233809, Note_on_c, 0, 63, 0
2, 233824, Control_c, 0, 64, 62
2, 233840, Control_c, 0, 64, 53
2, 233855, Control_c, 0, 64, 42
2, 233870, Control_c, 0, 64, 41
2, 233886, Control_c, 0, 64, 41
2, 233901, Control_c, 0, 64, 40
2, 233916, Control_c, 0, 64, 40
2, 233931, Control_c, 0, 64, 39
2, 233946, Control_c, 0, 64, 38
2, 233947, Note_on_c, 0, 66, 0
2, 233952, Note_on_c, 0, 49, 48
2, 233974, Note_on_c, 0, 61, 60
2, 233977, Control_c, 0, 64, 37
2, 233991, Control_c, 0, 64, 36
2, 234022, Control_c, 0, 64, 36
2, 234037, Control_c, 0, 64, 35
2, 234098, Control_c, 0, 64, 35
2, 234168, Note_on_c, 0, 49, 0
2, 234170, Note_on_c, 0, 51, 0
2, 234174, Note_on_c, 0, 47, 46
2, 234193, Note_on_c, 0, 63, 63
2, 234208, Note_on_c, 0, 59, 0
2, 234383, Note_on_c, 0, 51, 55
2, 234388, Note_on_c, 0, 59, 51
2, 234393, Note_on_c, 0, 47, 0
2, 234500, Control_c, 0, 64, 35
2, 234558, Note_on_c, 0, 56, 0
2, 234578, Note_on_c, 0, 65, 66
2, 234579, Note_on_c, 0, 56, 26
2, 234591, Note_on_c, 0, 59, 0
2, 234593, Note_on_c, 0, 49, 45
2, 234622, Control_c, 0, 64, 36
2, 234656, Note_on_c, 0, 51, 0
2, 234684, Control_c, 0, 64, 36
2, 234760, Control_c, 0, 64, 37
2, 234778, Note_on_c, 0, 56, 0
2, 234780, Note_on_c, 0, 49, 0
2, 234794, Note_on_c, 0, 58, 50
2, 234803, Note_on_c, 0, 47, 38
2, 235019, Note_on_c, 0, 61, 0
2, 235029, Note_on_c, 0, 46, 45
2, 235029, Note_on_c, 0, 47, 0
2, 235040, Note_on_c, 0, 59, 53
2, 235063, Note_on_c, 0, 58, 0
2, 235073, Note_on_c, 0, 63, 0
2, 235207, Note_on_c, 0, 46, 0
2, 235230, Note_on_c, 0, 44, 36
2, 235445, Note_on_c, 0, 42, 40
2, 235465, Note_on_c, 0, 59, 0
2, 235466, Note_on_c, 0, 66, 55
2, 235469, Note_on_c, 0, 65, 0
2, 235498, Note_on_c, 0, 44, 0
2, 235665, Note_on_c, 0, 49, 40
2, 235682, Note_on_c, 0, 59, 56
2, 235707, Note_on_c, 0, 42, 0
2, 235895, Note_on_c, 0, 59, 0
2, 235906, Note_on_c, 0, 54, 51
2, 235915, Note_on_c, 0, 58, 51
2, 235935, Note_on_c, 0, 49, 0
2, 235991, Control_c, 0, 64, 37
2, 236007, Control_c, 0, 64, 39
2, 236021, Control_c, 0, 64, 40
2, 236036, Control_c, 0, 64, 42
2, 236052, Control_c, 0, 64, 44
2, 236067, Control_c, 0, 64, 45
2, 236083, Control_c, 0, 64, 46
2, 236097, Control_c, 0, 64, 47
2, 236112, Control_c, 0, 64, 48
2, 236114, Note_on_c, 0, 56, 53
2, 236128, Control_c, 0, 64, 49
2, 236132, Note_on_c, 0, 58, 0
2, 236143, Control_c, 0, 64, 50
2, 236158, Control_c, 0, 64, 50
2, 236173, Control_c, 0, 64, 51
2, 236188, Control_c, 0, 64, 52
2, 236204, Control_c, 0, 64, 53
2, 236218, Control_c, 0, 64, 54
2, 236233, Control_c, 0, 64, 55
2, 236250, Control_c, 0, 64, 56
2, 236281, Control_c, 0, 64, 57
2, 236289, Note_on_c, 0, 56, 0
2, 236326, Note_on_c, 0, 58, 60
2, 236417, Control_c, 0, 64, 56
2, 236466, Note_on_c, 0, 66, 0
2, 236486, Control_c, 0, 64, 56
2, 236532, Note_on_c, 0, 52, 43
2, 236534, Note_on_c, 0, 61, 51
2, 236546, Control_c, 0, 64, 55
2, 236577, Control_c, 0, 64, 55
2, 236592, Control_c, 0, 64, 54
2, 236607, Control_c, 0, 64, 54
2, 236622, Control_c, 0, 64, 53
2, 236637, Control_c, 0, 64, 52
2, 236643, Note_on_c, 0, 54, 0
2, 236653, Control_c, 0, 64, 51
2, 236667, Control_c, 0, 64, 50
2, 236683, Control_c, 0, 64, 49
2, 236698, Control_c, 0, 64, 48
2, 236713, Control_c, 0, 64, 46
2, 236729, Control_c, 0, 64, 45
2, 236739, Note_on_c, 0, 58, 0
2, 236744, Control_c, 0, 64, 45
2, 236758, Note_on_c, 0, 69, 59
2, 236760, Control_c, 0, 64, 44
2, 236775, Control_c, 0, 64, 43
2, 236775, Note_on_c, 0, 66, 42
2, 236785, Note_on_c, 0, 51, 50
2, 236806, Control_c, 0, 64, 43
2, 236806, Note_on_c, 0, 52, 0
2, 236820, Control_c, 0, 64, 42
2, 236838, Note_on_c, 0, 61, 0
2, 236881, Control_c, 0, 64, 42
2, 236979, Note_on_c, 0, 49, 44
2, 236981, Note_on_c, 0, 51, 0
2, 237203, Note_on_c, 0, 48, 51
2, 237204, Note_on_c, 0, 49, 0
2, 237402, Note_on_c, 0, 69, 0
2, 237434, Note_on_c, 0, 49, 52
2, 237482, Control_c, 0, 64, 42
2, 237615, Note_on_c, 0, 69, 71
2, 237628, Note_on_c, 0, 60, 54
2, 237633, Note_on_c, 0, 51, 62
2, 237635, Note_on_c, 0, 49, 0
2, 237643, Note_on_c, 0, 48, 0
2, 237675, Note_on_c, 0, 66, 0
2, 237827, Note_on_c, 0, 48, 56
2, 237828, Note_on_c, 0, 51, 0
2, 237831, Note_on_c, 0, 66, 73
2, 238050, Note_on_c, 0, 48, 0
2, 238053, Note_on_c, 0, 68, 70
2, 238057, Note_on_c, 0, 64, 52
2, 238078, Note_on_c, 0, 44, 47
2, 238138, Note_on_c, 0, 66, 0
2, 238148, Note_on_c, 0, 60, 0
2, 238158, Note_on_c, 0, 69, 0
2, 238233, Control_c, 0, 64, 42
2, 238249, Control_c, 0, 64, 41
2, 238261, Note_on_c, 0, 46, 44
2, 238263, Control_c, 0, 64, 40
2, 238278, Control_c, 0, 64, 40
2, 238294, Control_c, 0, 64, 39
2, 238300, Note_on_c, 0, 44, 0
2, 238309, Control_c, 0, 64, 38
2, 238325, Control_c, 0, 64, 38
2, 238339, Control_c, 0, 64, 36
2, 238354, Control_c, 0, 64, 35
2, 238370, Control_c, 0, 64, 34
2, 238385, Control_c, 0, 64, 32
2, 238401, Control_c, 0, 64, 30
2, 238415, Control_c, 0, 64, 28
2, 238430, Control_c, 0, 64, 25
2, 238446, Control_c, 0, 64, 22
2, 238461, Control_c, 0, 64, 17
2, 238475, Control_c, 0, 64, 12
2, 238481, Note_on_c, 0, 63, 45
2, 238485, Note_on_c, 0, 66, 58
2, 238490, Note_on_c, 0, 48, 44
2, 238491, Control_c, 0, 64, 0
2, 238546, Note_on_c, 0, 46, 0
2, 238556, Note_on_c, 0, 64, 0
2, 238569, Note_on_c, 0, 68, 0
2, 238627, Control_c, 0, 67, 24
2, 238643, Control_c, 0, 67, 44
2, 238658, Control_c, 0, 67, 63
2, 238670, Note_on_c, 0, 44, 36
2, 238673, Control_c, 0, 67, 82
2, 238689, Control_c, 0, 67, 103
2, 238705, Control_c, 0, 67, 121
2, 238721, Control_c, 0, 67, 127
2, 238898, Note_on_c, 0, 49, 52
2, 238926, Note_on_c, 0, 44, 0
2, 238979, Note_on_c, 0, 66, 0
2, 239041, Note_on_c, 0, 48, 0
2, 239090, Note_on_c, 0, 51, 54
2, 239152, Note_on_c, 0, 49, 0
2, 239282, Note_on_c, 0, 63, 0
2, 239288, Note_on_c, 0, 51, 0
2, 239291, Note_on_c, 0, 52, 44
2, 239315, Note_on_c, 0, 64, 47
2, 239317, Note_on_c, 0, 61, 45
2, 239496, Note_on_c, 0, 64, 0
2, 239504, Note_on_c, 0, 61, 0
2, 239521, Note_on_c, 0, 63, 50
2, 239526, Note_on_c, 0, 60, 47
2, 239694, Note_on_c, 0, 63, 0
2, 239728, Note_on_c, 0, 64, 55
2, 239740, Note_on_c, 0, 61, 44
2, 239807, Note_on_c, 0, 60, 0
2, 239914, Note_on_c, 0, 51, 48
2, 239925, Note_on_c, 0, 61, 0
2, 239927, Note_on_c, 0, 66, 59
2, 239933, Note_on_c, 0, 64, 0
2, 239936, Note_on_c, 0, 63, 43
2, 239967, Note_on_c, 0, 52, 0
2, 239975, Note_on_c, 0, 63, 0
2, 240136, Note_on_c, 0, 49, 42
2, 240156, Note_on_c, 0, 64, 44
2, 240167, Note_on_c, 0, 68, 48
2, 240221, Note_on_c, 0, 66, 0
2, 240269, Note_on_c, 0, 51, 0
2, 240347, Note_on_c, 0, 49, 0
2, 240361, Note_on_c, 0, 47, 54
2, 240571, Note_on_c, 0, 47, 0
2, 240577, Note_on_c, 0, 46, 59
2, 240685, Note_on_c, 0, 68, 0
2, 240749, Note_on_c, 0, 47, 68
2, 240758, Note_on_c, 0, 46, 0
2, 240768, Note_on_c, 0, 64, 0
2, 240987, Note_on_c, 0, 58, 73
2, 240988, Note_on_c, 0, 68, 67
2, 240991, Note_on_c, 0, 49, 53
2, 241006, Note_on_c, 0, 47, 0
2, 241179, Note_on_c, 0, 64, 76
2, 241198, Note_on_c, 0, 46, 56
2, 241202, Note_on_c, 0, 49, 0
2, 241237, Note_on_c, 0, 68, 0
2, 241401, Note_on_c, 0, 42, 48
2, 241402, Note_on_c, 0, 66, 65
2, 241427, Note_on_c, 0, 63, 63
2, 241438, Note_on_c, 0, 46, 0
2, 241456, Note_on_c, 0, 58, 0
2, 241473, Note_on_c, 0, 64, 0
2, 241614, Note_on_c, 0, 44, 46
2, 241620, Note_on_c, 0, 42, 0
2, 241828, Note_on_c, 0, 44, 0
2, 241842, Note_on_c, 0, 64, 57
2, 241844, Note_on_c, 0, 46, 45
2, 241859, Note_on_c, 0, 61, 42
2, 241873, Note_on_c, 0, 66, 0
2, 241937, Note_on_c, 0, 63, 0
2, 242036, Note_on_c, 0, 46, 0
2, 242043, Note_on_c, 0, 42, 43
2, 242249, Note_on_c, 0, 42, 0
2, 242253, Note_on_c, 0, 47, 46
2, 242457, Note_on_c, 0, 49, 42
2, 242486, Note_on_c, 0, 47, 0
2, 242666, Note_on_c, 0, 64, 0
2, 242670, Note_on_c, 0, 51, 44
2, 242677, Note_on_c, 0, 61, 0
2, 242681, Note_on_c, 0, 63, 45
2, 242685, Note_on_c, 0, 59, 45
2, 242697, Note_on_c, 0, 49, 0
2, 242869, Note_on_c, 0, 63, 0
2, 242888, Note_on_c, 0, 61, 52
2, 242908, Note_on_c, 0, 58, 37
2, 242913, Note_on_c, 0, 59, 0
2, 243088, Note_on_c, 0, 58, 0
2, 243100, Note_on_c, 0, 59, 43
2, 243109, Note_on_c, 0, 63, 50
2, 243297, Note_on_c, 0, 49, 37
2, 243297, Note_on_c, 0, 61, 0
2, 243307, Note_on_c, 0, 64, 55
2, 243309, Note_on_c, 0, 59, 0
2, 243314, Note_on_c, 0, 63, 0
2, 243391, Note_on_c, 0, 51, 0
2, 243544, Note_on_c, 0, 66, 56
2, 243548, Note_on_c, 0, 47, 35
2, 243549, Note_on_c, 0, 49, 0
2, 243552, Note_on_c, 0, 63, 49
2, 243568, Note_on_c, 0, 64, 0
2, 243767, Note_on_c, 0, 47, 0
2, 243782, Note_on_c, 0, 51, 39
2, 243792, Control_c, 0, 64, 8
2, 243808, Control_c, 0, 64, 10
2, 243808, Control_c, 0, 67, 127
2, 243823, Control_c, 0, 67, 119
2, 243838, Control_c, 0, 64, 12
2, 243838, Control_c, 0, 67, 111
2, 243853, Control_c, 0, 67, 104
2, 243868, Control_c, 0, 64, 14
2, 243868, Control_c, 0, 67, 98
2, 243884, Control_c, 0, 67, 92
2, 243898, Control_c, 0, 67, 84
2, 243913, Control_c, 0, 64, 15
2, 243913, Control_c, 0, 67, 79
2, 243929, Control_c, 0, 67, 73
2, 243944, Control_c, 0, 67, 67
2, 243959, Control_c, 0, 64, 16
2, 243959, Control_c, 0, 67, 61
2, 243975, Control_c, 0, 67, 55
2, 243990, Control_c, 0, 67, 47
2, 244006, Control_c, 0, 67, 39
2, 244020, Control_c, 0, 67, 32
2, 244035, Control_c, 0, 67, 24
2, 244051, Control_c, 0, 67, 17
2, 244066, Control_c, 0, 67, 10
2, 244068, Note_on_c, 0, 56, 39
2, 244082, Control_c, 0, 67, 0
2, 244090, Note_on_c, 0, 71, 67
2, 244163, Note_on_c, 0, 66, 0
2, 244204, Note_on_c, 0, 51, 0
2, 244234, Note_on_c, 0, 63, 0
2, 244383, Note_on_c, 0, 64, 47
2, 244455, Control_c, 0, 64, 20
2, 244461, Note_on_c, 0, 68, 47
2, 244470, Control_c, 0, 64, 34
2, 244486, Control_c, 0, 64, 42
2, 244500, Control_c, 0, 64, 48
2, 244515, Control_c, 0, 64, 51
2, 244531, Control_c, 0, 64, 54
2, 244545, Control_c, 0, 64, 57
2, 244561, Control_c, 0, 64, 61
2, 244576, Control_c, 0, 64, 63
2, 244591, Control_c, 0, 64, 65
2, 244607, Control_c, 0, 64, 66
2, 244621, Control_c, 0, 64, 67
2, 244623, Note_on_c, 0, 66, 52
2, 244636, Control_c, 0, 64, 68
2, 244641, Note_on_c, 0, 63, 58
2, 244652, Control_c, 0, 64, 70
2, 244652, Note_on_c, 0, 64, 0
2, 244667, Control_c, 0, 64, 71
2, 244683, Control_c, 0, 64, 73
2, 244697, Control_c, 0, 64, 75
2, 244712, Control_c, 0, 64, 76
2, 244728, Control_c, 0, 64, 77
2, 244761, Note_on_c, 0, 63, 0
2, 244821, Note_on_c, 0, 64, 65
2, 244827, Note_on_c, 0, 61, 58
2, 244830, Note_on_c, 0, 71, 0
2, 244833, Note_on_c, 0, 66, 0
2, 244848, Note_on_c, 0, 68, 0
2, 244849, Note_on_c, 0, 56, 0
2, 244883, Note_on_c, 0, 61, 0
2, 244902, Control_c, 0, 64, 77
2, 244978, Control_c, 0, 64, 77
2, 244993, Control_c, 0, 64, 76
2, 245009, Control_c, 0, 64, 76
2, 245023, Control_c, 0, 64, 75
2, 245038, Control_c, 0, 64, 73
2, 245039, Note_on_c, 0, 59, 51
2, 245050, Note_on_c, 0, 75, 88
2, 245054, Control_c, 0, 64, 72
2, 245069, Control_c, 0, 64, 70
2, 245084, Control_c, 0, 64, 68
2, 245099, Control_c, 0, 64, 66
2, 245114, Control_c, 0, 64, 65
2, 245130, Control_c, 0, 64, 62
2, 245145, Control_c, 0, 64, 60
2, 245159, Control_c, 0, 64, 57
2, 245175, Control_c, 0, 64, 55
2, 245190, Control_c, 0, 64, 52
2, 245206, Control_c, 0, 64, 50
2, 245221, Control_c, 0, 64, 45
2, 245235, Control_c, 0, 64, 38
2, 245238, Note_on_c, 0, 61, 53
2, 245251, Control_c, 0, 64, 27
2, 245253, Note_on_c, 0, 59, 0
2, 245259, Note_on_c, 0, 57, 54
2, 245267, Control_c, 0, 64, 0
2, 245454, Note_on_c, 0, 64, 0
2, 245455, Note_on_c, 0, 56, 61
2, 245459, Note_on_c, 0, 71, 70
2, 245461, Note_on_c, 0, 57, 0
2, 245463, Note_on_c, 0, 59, 61
2, 245491, Note_on_c, 0, 61, 0
2, 245555, Control_c, 0, 64, 8
2, 245571, Control_c, 0, 64, 42
2, 245586, Control_c, 0, 64, 56
2, 245602, Control_c, 0, 64, 62
2, 245617, Control_c, 0, 64, 66
2, 245624, Note_on_c, 0, 57, 59
2, 245631, Control_c, 0, 64, 69
2, 245647, Control_c, 0, 64, 73
2, 245647, Note_on_c, 0, 54, 66
2, 245669, Control_c, 0, 64, 78
2, 245685, Control_c, 0, 64, 83
2, 245685, Note_on_c, 0, 75, 0
2, 245700, Control_c, 0, 64, 88
2, 245715, Control_c, 0, 64, 93
2, 245716, Note_on_c, 0, 57, 0
2, 245730, Control_c, 0, 64, 96
2, 245732, Note_on_c, 0, 56, 0
2, 245745, Control_c, 0, 64, 99
2, 245761, Control_c, 0, 64, 102
2, 245776, Control_c, 0, 64, 104
2, 245784, Note_on_c, 0, 54, 0
2, 245790, Control_c, 0, 64, 104
2, 245852, Control_c, 0, 64, 104
2, 245867, Control_c, 0, 64, 103
2, 245883, Control_c, 0, 64, 101
2, 245898, Control_c, 0, 64, 97
2, 245907, Note_on_c, 0, 52, 51
2, 245910, Note_on_c, 0, 56, 57
2, 245913, Control_c, 0, 64, 93
2, 245919, Note_on_c, 0, 80, 87
2, 245928, Control_c, 0, 64, 89
2, 245943, Control_c, 0, 64, 85
2, 245946, Note_on_c, 0, 59, 0
2, 245958, Control_c, 0, 64, 81
2, 245974, Control_c, 0, 64, 76
2, 245989, Control_c, 0, 64, 71
2, 246004, Control_c, 0, 64, 66
2, 246019, Control_c, 0, 64, 60
2, 246034, Control_c, 0, 64, 51
2, 246050, Control_c, 0, 64, 41
2, 246065, Control_c, 0, 64, 27
2, 246082, Control_c, 0, 64, 0
2, 246171, Note_on_c, 0, 71, 0
2, 246189, Note_on_c, 0, 59, 56
2, 246335, Note_on_c, 0, 56, 0
2, 246353, Control_c, 0, 64, 19
2, 246369, Control_c, 0, 64, 45
2, 246384, Control_c, 0, 64, 57
2, 246394, Note_on_c, 0, 64, 56
2, 246399, Control_c, 0, 64, 62
2, 246415, Control_c, 0, 64, 65
2, 246417, Note_on_c, 0, 68, 55
2, 246437, Control_c, 0, 64, 66
2, 246453, Control_c, 0, 64, 68
2, 246468, Control_c, 0, 64, 71
2, 246469, Note_on_c, 0, 59, 0
2, 246484, Control_c, 0, 64, 75
2, 246499, Control_c, 0, 64, 79
2, 246513, Control_c, 0, 64, 82
2, 246529, Control_c, 0, 64, 85
2, 246544, Control_c, 0, 64, 89
2, 246559, Control_c, 0, 64, 94
2, 246574, Control_c, 0, 64, 102
2, 246589, Control_c, 0, 64, 109
2, 246605, Control_c, 0, 64, 111
2, 246635, Control_c, 0, 64, 110
2, 246637, Note_on_c, 0, 63, 56
2, 246650, Control_c, 0, 64, 109
2, 246668, Note_on_c, 0, 64, 0
2, 246681, Control_c, 0, 64, 108
2, 246696, Control_c, 0, 64, 107
2, 246711, Control_c, 0, 64, 104
2, 246727, Control_c, 0, 64, 102
2, 246741, Control_c, 0, 64, 99
2, 246756, Control_c, 0, 64, 96
2, 246772, Control_c, 0, 64, 94
2, 246787, Control_c, 0, 64, 91
2, 246803, Control_c, 0, 64, 87
2, 246812, Note_on_c, 0, 76, 81
2, 246818, Control_c, 0, 64, 82
2, 246829, Note_on_c, 0, 61, 55
2, 246833, Control_c, 0, 64, 77
2, 246848, Control_c, 0, 64, 69
2, 246850, Note_on_c, 0, 63, 0
2, 246863, Control_c, 0, 64, 64
2, 246878, Control_c, 0, 64, 59
2, 246895, Control_c, 0, 64, 55
2, 246909, Control_c, 0, 64, 48
2, 246925, Control_c, 0, 64, 31
2, 246940, Control_c, 0, 64, 0
2, 247038, Note_on_c, 0, 63, 50
2, 247063, Note_on_c, 0, 61, 0
2, 247191, Note_on_c, 0, 80, 0
2, 247246, Note_on_c, 0, 64, 53
2, 247247, Note_on_c, 0, 73, 61
2, 247267, Control_c, 0, 64, 46
2, 247282, Control_c, 0, 64, 63
2, 247283, Note_on_c, 0, 63, 0
2, 247297, Control_c, 0, 64, 71
2, 247312, Control_c, 0, 64, 82
2, 247323, Note_on_c, 0, 76, 0
2, 247328, Control_c, 0, 64, 121
2, 247343, Control_c, 0, 64, 127
2, 247390, Note_on_c, 0, 73, 0
2, 247427, Note_on_c, 0, 52, 0
2, 247433, Note_on_c, 0, 61, 67
2, 247434, Note_on_c, 0, 64, 0
2, 247447, Note_on_c, 0, 68, 0
2, 247470, Note_on_c, 0, 61, 0
2, 247629, Note_on_c, 0, 73, 84
2, 247659, Note_on_c, 0, 58, 60
2, 247659, Note_on_c, 0, 66, 55
2, 247693, Control_c, 0, 64, 107
2, 247708, Control_c, 0, 64, 89
2, 247724, Control_c, 0, 64, 78
2, 247739, Control_c, 0, 64, 69
2, 247754, Control_c, 0, 64, 62
2, 247770, Control_c, 0, 64, 52
2, 247784, Control_c, 0, 64, 46
2, 247799, Control_c, 0, 64, 44
2, 247815, Control_c, 0, 64, 36
2, 247830, Control_c, 0, 64, 19
2, 247843, Note_on_c, 0, 59, 54
2, 247846, Control_c, 0, 64, 0
2, 247852, Note_on_c, 0, 68, 70
2, 247857, Note_on_c, 0, 58, 0
2, 247884, Note_on_c, 0, 66, 0
2, 248041, Note_on_c, 0, 70, 79
2, 248060, Note_on_c, 0, 61, 54
2, 248065, Control_c, 0, 64, 12
2, 248081, Control_c, 0, 64, 44
2, 248081, Note_on_c, 0, 59, 0
2, 248096, Control_c, 0, 64, 59
2, 248111, Control_c, 0, 64, 65
2, 248127, Control_c, 0, 64, 70
2, 248142, Control_c, 0, 64, 78
2, 248157, Control_c, 0, 64, 92
2, 248173, Control_c, 0, 64, 127
2, 248209, Note_on_c, 0, 73, 0
2, 248225, Note_on_c, 0, 66, 77
2, 248229, Note_on_c, 0, 58, 64
2, 248232, Note_on_c, 0, 70, 0
2, 248234, Note_on_c, 0, 61, 0
2, 248246, Note_on_c, 0, 68, 0
2, 248258, Note_on_c, 0, 58, 0
2, 248276, Note_on_c, 0, 66, 0
2, 248452, Note_on_c, 0, 82, 87
2, 248466, Note_on_c, 0, 54, 64
2, 248472, Note_on_c, 0, 73, 70
2, 248475, Control_c, 0, 64, 121
2, 248491, Control_c, 0, 64, 78
2, 248506, Control_c, 0, 64, 60
2, 248522, Control_c, 0, 64, 0
2, 248583, Control_c, 0, 64, 36
2, 248598, Control_c, 0, 64, 56
2, 248614, Control_c, 0, 64, 65
2, 248628, Control_c, 0, 64, 72
2, 248636, Note_on_c, 0, 73, 0
2, 248644, Control_c, 0, 64, 84
2, 248659, Control_c, 0, 64, 115
2, 248673, Note_on_c, 0, 76, 78
2, 248674, Control_c, 0, 64, 127
2, 248676, Note_on_c, 0, 56, 70
2, 248741, Note_on_c, 0, 54, 0
2, 248891, Note_on_c, 0, 75, 88
2, 248892, Note_on_c, 0, 54, 74
2, 248904, Note_on_c, 0, 58, 65
2, 248954, Control_c, 0, 64, 86
2, 248969, Control_c, 0, 64, 66
2, 248984, Control_c, 0, 64, 15
2, 248999, Control_c, 0, 64, 0
2, 249053, Note_on_c, 0, 76, 0
2, 249090, Note_on_c, 0, 52, 69
2, 249090, Note_on_c, 0, 73, 91
2, 249091, Control_c, 0, 64, 36
2, 249105, Control_c, 0, 64, 57
2, 249121, Control_c, 0, 64, 66
2, 249136, Control_c, 0, 64, 75
2, 249151, Control_c, 0, 64, 107
2, 249167, Control_c, 0, 64, 127
2, 249198, Note_on_c, 0, 52, 0
2, 249209, Note_on_c, 0, 73, 0
2, 249274, Note_on_c, 0, 82, 0
2, 249363, Note_on_c, 0, 83, 91
2, 249366, Note_on_c, 0, 78, 77
2, 249377, Note_on_c, 0, 51, 73
2, 249395, Control_c, 0, 64, 88
2, 249411, Control_c, 0, 64, 71
2, 249426, Control_c, 0, 64, 50
2, 249433, Note_on_c, 0, 75, 0
2, 249442, Control_c, 0, 64, 0
2, 249452, Note_on_c, 0, 54, 0
2, 249467, Note_on_c, 0, 56, 0
2, 249494, Note_on_c, 0, 58, 0
2, 249648, Note_on_c, 0, 54, 64
2, 249652, Note_on_c, 0, 76, 81
2, 249856, Note_on_c, 0, 59, 75
2, 249857, Note_on_c, 0, 75, 87
2, 249875, Note_on_c, 0, 78, 0
2, 249922, Note_on_c, 0, 54, 0
2, 249949, Control_c, 0, 64, 34
2, 249951, Note_on_c, 0, 76, 0
2, 249965, Control_c, 0, 64, 47
2, 249980, Control_c, 0, 64, 56
2, 249995, Control_c, 0, 64, 61
2, 250011, Control_c, 0, 64, 65
2, 250025, Control_c, 0, 64, 67
2, 250027, Note_on_c, 0, 59, 0
2, 250041, Control_c, 0, 64, 69
2, 250044, Note_on_c, 0, 58, 72
2, 250044, Note_on_c, 0, 78, 89
2, 250048, Note_on_c, 0, 83, 0
2, 250056, Control_c, 0, 64, 72
2, 250071, Control_c, 0, 64, 74
2, 250087, Control_c, 0, 64, 77
2, 250101, Control_c, 0, 64, 79
2, 250116, Control_c, 0, 64, 80
2, 250148, Note_on_c, 0, 58, 0
2, 250180, Note_on_c, 0, 78, 0
2, 250238, Note_on_c, 0, 51, 0
2, 250239, Control_c, 0, 64, 79
2, 250246, Note_on_c, 0, 56, 82
2, 250255, Control_c, 0, 64, 79
2, 250258, Note_on_c, 0, 76, 80
2, 250260, Note_on_c, 0, 71, 74
2, 250277, Control_c, 0, 64, 78
2, 250293, Control_c, 0, 64, 77
2, 250304, Note_on_c, 0, 75, 0
2, 250307, Control_c, 0, 64, 76
2, 250323, Control_c, 0, 64, 74
2, 250338, Control_c, 0, 64, 71
2, 250353, Control_c, 0, 64, 68
2, 250369, Control_c, 0, 64, 64
2, 250383, Control_c, 0, 64, 58
2, 250398, Control_c, 0, 64, 48
2, 250414, Control_c, 0, 64, 43
2, 250429, Control_c, 0, 64, 41
2, 250445, Control_c, 0, 64, 39
2, 250446, Note_on_c, 0, 49, 66
2, 250459, Control_c, 0, 64, 37
2, 250474, Control_c, 0, 64, 36
2, 250536, Control_c, 0, 64, 36
2, 250567, Control_c, 0, 64, 35
2, 250637, Note_on_c, 0, 47, 77
2, 250679, Note_on_c, 0, 49, 0
2, 250838, Note_on_c, 0, 51, 85
2, 250853, Control_c, 0, 64, 36
2, 250872, Note_on_c, 0, 47, 0
2, 250943, Control_c, 0, 64, 36
2, 251020, Control_c, 0, 64, 37
2, 251061, Note_on_c, 0, 49, 82
2, 251074, Control_c, 0, 64, 37
2, 251083, Note_on_c, 0, 51, 0
2, 251164, Control_c, 0, 64, 38
2, 251212, Control_c, 0, 64, 38
2, 251226, Control_c, 0, 64, 39
2, 251250, Note_on_c, 0, 56, 0
2, 251257, Note_on_c, 0, 54, 80
2, 251264, Note_on_c, 0, 70, 77
2, 251272, Control_c, 0, 64, 39
2, 251288, Control_c, 0, 64, 40
2, 251302, Note_on_c, 0, 76, 0
2, 251333, Control_c, 0, 64, 40
2, 251344, Note_on_c, 0, 71, 0
2, 251378, Control_c, 0, 64, 41
2, 251393, Control_c, 0, 64, 41
2, 251438, Control_c, 0, 64, 42
2, 251463, Note_on_c, 0, 68, 79
2, 251465, Note_on_c, 0, 52, 76
2, 251509, Note_on_c, 0, 54, 0
2, 251538, Note_on_c, 0, 70, 0
2, 251656, Note_on_c, 0, 71, 82
2, 251658, Note_on_c, 0, 56, 78
2, 251681, Control_c, 0, 64, 41
2, 251697, Control_c, 0, 64, 40
2, 251707, Note_on_c, 0, 68, 0
2, 251712, Control_c, 0, 64, 40
2, 251728, Control_c, 0, 64, 39
2, 251743, Control_c, 0, 64, 37
2, 251757, Control_c, 0, 64, 36
2, 251773, Control_c, 0, 64, 35
2, 251788, Control_c, 0, 64, 34
2, 251812, Control_c, 0, 64, 33
2, 251842, Control_c, 0, 64, 33
2, 251858, Control_c, 0, 64, 32
2, 251888, Control_c, 0, 64, 32
2, 251888, Note_on_c, 0, 52, 0
2, 251897, Note_on_c, 0, 61, 81
2, 251903, Control_c, 0, 64, 31
2, 251906, Note_on_c, 0, 70, 84
2, 251934, Control_c, 0, 64, 31
2, 251951, Note_on_c, 0, 71, 0
2, 251964, Control_c, 0, 64, 30
2, 251979, Control_c, 0, 64, 30
2, 252009, Control_c, 0, 64, 29
2, 252039, Control_c, 0, 64, 29
2, 252069, Control_c, 0, 64, 28
2, 252084, Control_c, 0, 64, 27
2, 252094, Note_on_c, 0, 51, 69
2, 252097, Note_on_c, 0, 56, 0
2, 252099, Note_on_c, 0, 71, 81
2, 252100, Control_c, 0, 64, 26
2, 252114, Control_c, 0, 64, 24
2, 252125, Note_on_c, 0, 49, 0
2, 252130, Control_c, 0, 64, 19
2, 252145, Control_c, 0, 64, 0
2, 252148, Note_on_c, 0, 70, 0
2, 252293, Note_on_c, 0, 52, 63
2, 252295, Note_on_c, 0, 73, 85
2, 252325, Note_on_c, 0, 51, 0
2, 252503, Note_on_c, 0, 70, 85
2, 252506, Note_on_c, 0, 49, 65
2, 252513, Note_on_c, 0, 71, 0
2, 252592, Note_on_c, 0, 52, 0
2, 252594, Control_c, 0, 64, 26
2, 252609, Control_c, 0, 64, 49
2, 252625, Control_c, 0, 64, 58
2, 252637, Note_on_c, 0, 49, 0
2, 252640, Control_c, 0, 64, 62
2, 252656, Control_c, 0, 64, 64
2, 252670, Control_c, 0, 64, 66
2, 252685, Control_c, 0, 64, 70
2, 252701, Control_c, 0, 64, 73
2, 252708, Note_on_c, 0, 73, 0
2, 252716, Control_c, 0, 64, 76
2, 252732, Control_c, 0, 64, 78
2, 252747, Control_c, 0, 64, 79
2, 252758, Note_on_c, 0, 58, 71
2, 252758, Note_on_c, 0, 66, 83
2, 252761, Control_c, 0, 64, 78
2, 252768, Note_on_c, 0, 70, 0
2, 252777, Control_c, 0, 64, 78
2, 252808, Control_c, 0, 64, 77
2, 252823, Control_c, 0, 64, 75
2, 252837, Control_c, 0, 64, 73
2, 252853, Control_c, 0, 64, 69
2, 252868, Control_c, 0, 64, 65
2, 252883, Control_c, 0, 64, 62
2, 252899, Control_c, 0, 64, 58
2, 252913, Control_c, 0, 64, 55
2, 252929, Control_c, 0, 64, 53
2, 252944, Control_c, 0, 64, 50
2, 252946, Note_on_c, 0, 61, 0
2, 252950, Note_on_c, 0, 59, 76
2, 252955, Note_on_c, 0, 75, 78
2, 252958, Control_c, 0, 64, 46
2, 252974, Control_c, 0, 64, 43
2, 252989, Control_c, 0, 64, 41
2, 253004, Control_c, 0, 64, 39
2, 253020, Control_c, 0, 64, 38
2, 253034, Control_c, 0, 64, 37
2, 253050, Control_c, 0, 64, 36
2, 253065, Control_c, 0, 64, 34
2, 253080, Control_c, 0, 64, 33
2, 253096, Control_c, 0, 64, 32
2, 253111, Control_c, 0, 64, 30
2, 253126, Control_c, 0, 64, 29
2, 253141, Control_c, 0, 64, 28
2, 253143, Note_on_c, 0, 61, 75
2, 253147, Note_on_c, 0, 76, 77
2, 253156, Control_c, 0, 64, 27
2, 253161, Note_on_c, 0, 59, 0
2, 253172, Control_c, 0, 64, 25
2, 253187, Control_c, 0, 64, 24
2, 253189, Note_on_c, 0, 75, 0
2, 253202, Control_c, 0, 64, 22
2, 253218, Control_c, 0, 64, 21
2, 253233, Control_c, 0, 64, 20
2, 253248, Control_c, 0, 64, 18
2, 253278, Control_c, 0, 64, 17
2, 253294, Control_c, 0, 64, 16
2, 253309, Control_c, 0, 64, 15
2, 253323, Control_c, 0, 64, 10
2, 253344, Note_on_c, 0, 59, 77
2, 253346, Control_c, 0, 64, 0
2, 253349, Note_on_c, 0, 75, 88
2, 253363, Note_on_c, 0, 61, 0
2, 253381, Note_on_c, 0, 76, 0
2, 253414, Note_on_c, 0, 58, 0
2, 253553, Note_on_c, 0, 76, 88
2, 253576, Note_on_c, 0, 61, 78
2, 253603, Note_on_c, 0, 75, 0
2, 253613, Note_on_c, 0, 59, 0
2, 253652, Control_c, 0, 64, 18
2, 253667, Control_c, 0, 64, 27
2, 253681, Control_c, 0, 64, 32
2, 253697, Control_c, 0, 64, 36
2, 253712, Control_c, 0, 64, 36
2, 253748, Note_on_c, 0, 56, 79
2, 253765, Note_on_c, 0, 61, 0
2, 253856, Note_on_c, 0, 76, 0
2, 253864, Control_c, 0, 64, 39
2, 253878, Control_c, 0, 64, 43
2, 253894, Control_c, 0, 64, 46
2, 253909, Control_c, 0, 64, 48
2, 253924, Control_c, 0, 64, 50
2, 253926, Note_on_c, 0, 66, 0
2, 253940, Control_c, 0, 64, 51
2, 253951, Note_on_c, 0, 54, 83
2, 253954, Control_c, 0, 64, 53
2, 253970, Control_c, 0, 64, 54
2, 253985, Control_c, 0, 64, 54
2, 254025, Note_on_c, 0, 56, 0
2, 254062, Control_c, 0, 64, 55
2, 254077, Control_c, 0, 64, 57
2, 254092, Control_c, 0, 64, 60
2, 254114, Control_c, 0, 64, 65
2, 254130, Control_c, 0, 64, 74
2, 254144, Control_c, 0, 64, 100
2, 254144, Note_on_c, 0, 56, 92
2, 254159, Control_c, 0, 64, 127
2, 254193, Note_on_c, 0, 54, 0
2, 254274, Note_on_c, 0, 56, 0
2, 254374, Note_on_c, 0, 71, 79
2, 254378, Note_on_c, 0, 66, 82
2, 254379, Note_on_c, 0, 75, 93
2, 254381, Note_on_c, 0, 57, 74
2, 254420, Control_c, 0, 64, 98
2, 254434, Control_c, 0, 64, 73
2, 254450, Control_c, 0, 64, 52
2, 254465, Control_c, 0, 64, 0
2, 254629, Note_on_c, 0, 73, 91
2, 254639, Note_on_c, 0, 64, 74
2, 254658, Note_on_c, 0, 66, 0
2, 254708, Note_on_c, 0, 75, 0
2, 254829, Note_on_c, 0, 75, 90
2, 254831, Note_on_c, 0, 66, 83
2, 254866, Note_on_c, 0, 64, 0
2, 254881, Note_on_c, 0, 73, 0
2, 255018, Note_on_c, 0, 64, 79
2, 255018, Note_on_c, 0, 73, 92
2, 255040, Note_on_c, 0, 66, 0
2, 255089, Note_on_c, 0, 75, 0
2, 255278, Note_on_c, 0, 75, 90
2, 255285, Note_on_c, 0, 66, 73
2, 255305, Note_on_c, 0, 64, 0
2, 255313, Note_on_c, 0, 73, 0
2, 255501, Note_on_c, 0, 56, 73
2, 255518, Note_on_c, 0, 57, 0
2, 255724, Note_on_c, 0, 54, 77
2, 255792, Note_on_c, 0, 66, 0
2, 255871, Note_on_c, 0, 56, 0
2, 255925, Note_on_c, 0, 57, 74
2, 255997, Note_on_c, 0, 54, 0
2, 256170, Note_on_c, 0, 71, 0
2, 256234, Note_on_c, 0, 56, 61
2, 256252, Note_on_c, 0, 75, 0
2, 256384, Note_on_c, 0, 57, 0
2, 256516, Note_on_c, 0, 65, 50
2, 256755, Note_on_c, 0, 59, 70
2, 256755, Note_on_c, 0, 74, 59
2, 256951, Note_on_c, 0, 73, 67
2, 257169, Note_on_c, 0, 62, 72
2, 257186, Note_on_c, 0, 74, 0
2, 257201, Note_on_c, 0, 71, 53
2, 257232, Note_on_c, 0, 73, 0
2, 257257, Note_on_c, 0, 59, 0
2, 257402, Note_on_c, 0, 73, 52
2, 257441, Note_on_c, 0, 65, 0
2, 257553, Note_on_c, 0, 71, 0
2, 257609, Note_on_c, 0, 74, 56
2, 257632, Note_on_c, 0, 65, 32
2, 257820, Note_on_c, 0, 74, 0
2, 257826, Note_on_c, 0, 71, 57
2, 257861, Note_on_c, 0, 73, 0
2, 258016, Note_on_c, 0, 71, 0
2, 258042, Note_on_c, 0, 59, 51
2, 258045, Note_on_c, 0, 68, 47
2, 258226, Note_on_c, 0, 56, 0
2, 258227, Note_on_c, 0, 68, 0
2, 258259, Note_on_c, 0, 69, 45
2, 258440, Note_on_c, 0, 71, 50
2, 258474, Note_on_c, 0, 69, 0
2, 258629, Note_on_c, 0, 65, 0
2, 258665, Note_on_c, 0, 68, 49
2, 258686, Note_on_c, 0, 71, 0
2, 258759, Note_on_c, 0, 62, 0
2, 258829, Note_on_c, 0, 59, 0
2, 258893, Note_on_c, 0, 65, 56
2, 258900, Note_on_c, 0, 68, 0
2, 259086, Note_on_c, 0, 74, 65
2, 259142, Note_on_c, 0, 65, 0
2, 259178, Control_c, 0, 64, 24
2, 259193, Control_c, 0, 64, 36
2, 259208, Control_c, 0, 64, 45
2, 259223, Control_c, 0, 64, 52
2, 259238, Control_c, 0, 64, 57
2, 259253, Control_c, 0, 64, 59
2, 259269, Control_c, 0, 64, 60
2, 259300, Control_c, 0, 64, 59
2, 259301, Note_on_c, 0, 73, 77
2, 259305, Note_on_c, 0, 53, 54
2, 259306, Note_on_c, 0, 56, 57
2, 259315, Control_c, 0, 64, 58
2, 259336, Note_on_c, 0, 61, 53
2, 259346, Control_c, 0, 64, 58
2, 259350, Note_on_c, 0, 74, 0
2, 259406, Control_c, 0, 64, 59
2, 259422, Control_c, 0, 64, 60
2, 259436, Control_c, 0, 64, 61
2, 259451, Control_c, 0, 64, 63
2, 259467, Control_c, 0, 64, 65
2, 259473, Note_on_c, 0, 73, 0
2, 259489, Control_c, 0, 64, 67
2, 259505, Control_c, 0, 64, 68
2, 259520, Control_c, 0, 64, 70
2, 259536, Control_c, 0, 64, 71
2, 259539, Note_on_c, 0, 71, 79
2, 259550, Control_c, 0, 64, 72
2, 259581, Control_c, 0, 64, 71
2, 259611, Control_c, 0, 64, 71
2, 259611, Note_on_c, 0, 56, 0
2, 259657, Control_c, 0, 64, 70
2, 259684, Note_on_c, 0, 61, 0
2, 259732, Control_c, 0, 64, 70
2, 259778, Control_c, 0, 64, 69
2, 259808, Control_c, 0, 64, 69
2, 259812, Note_on_c, 0, 70, 83
2, 259818, Note_on_c, 0, 54, 56
2, 259824, Control_c, 0, 64, 68
2, 259839, Control_c, 0, 64, 65
2, 259842, Note_on_c, 0, 53, 0
2, 259853, Control_c, 0, 64, 62
2, 259869, Control_c, 0, 64, 58
2, 259884, Control_c, 0, 64, 52
2, 259889, Note_on_c, 0, 71, 0
2, 259900, Control_c, 0, 64, 48
2, 259915, Control_c, 0, 64, 45
2, 259929, Control_c, 0, 64, 44
2, 259960, Control_c, 0, 64, 43
2, 259976, Control_c, 0, 64, 42
2, 259991, Control_c, 0, 64, 41
2, 260006, Control_c, 0, 64, 40
2, 260022, Control_c, 0, 64, 40
2, 260107, Note_on_c, 0, 52, 50
2, 260119, Note_on_c, 0, 68, 70
2, 260182, Note_on_c, 0, 54, 0
2, 260204, Control_c, 0, 64, 40
2, 260235, Control_c, 0, 64, 41
2, 260258, Control_c, 0, 64, 41
2, 260303, Control_c, 0, 64, 42
2, 260342, Note_on_c, 0, 51, 68
2, 260342, Note_on_c, 0, 66, 78
2, 260363, Control_c, 0, 64, 42
2, 260390, Note_on_c, 0, 52, 0
2, 260394, Control_c, 0, 64, 43
2, 260409, Control_c, 0, 64, 43
2, 260453, Control_c, 0, 64, 44
2, 260514, Control_c, 0, 64, 44
2, 260533, Note_on_c, 0, 49, 65
2, 260541, Note_on_c, 0, 64, 82
2, 260556, Note_on_c, 0, 68, 0
2, 260584, Note_on_c, 0, 66, 0
2, 260605, Control_c, 0, 64, 45
2, 260750, Note_on_c, 0, 47, 62
2, 260764, Note_on_c, 0, 63, 84
2, 260789, Note_on_c, 0, 51, 0
2, 260798, Note_on_c, 0, 64, 0
2, 260802, Note_on_c, 0, 49, 0
2, 260905, Note_on_c, 0, 70, 0
2, 260972, Note_on_c, 0, 49, 54
2, 260984, Note_on_c, 0, 66, 82
2, 261038, Note_on_c, 0, 47, 0
2, 261131, Note_on_c, 0, 66, 0
2, 261223, Note_on_c, 0, 71, 85
2, 261229, Note_on_c, 0, 51, 70
2, 261245, Note_on_c, 0, 49, 0
2, 261267, Control_c, 0, 64, 45
2, 261343, Control_c, 0, 64, 46
2, 261388, Control_c, 0, 64, 46
2, 261403, Control_c, 0, 64, 47
2, 261418, Note_on_c, 0, 41, 57
2, 261419, Control_c, 0, 64, 47
2, 261429, Note_on_c, 0, 62, 83
2, 261434, Control_c, 0, 64, 48
2, 261455, Note_on_c, 0, 63, 0
2, 261456, Note_on_c, 0, 51, 0
2, 261464, Control_c, 0, 64, 49
2, 261495, Control_c, 0, 64, 49
2, 261541, Control_c, 0, 64, 50
2, 261681, Note_on_c, 0, 62, 0
2, 261709, Note_on_c, 0, 42, 54
2, 261729, Note_on_c, 0, 61, 79
2, 261753, Note_on_c, 0, 41, 0
2, 261812, Note_on_c, 0, 71, 0
2, 261996, Note_on_c, 0, 63, 80
2, 262130, Note_on_c, 0, 61, 0
2, 262228, Note_on_c, 0, 70, 80
2, 262238, Note_on_c, 0, 64, 56
2, 262251, Note_on_c, 0, 63, 0
2, 262464, Note_on_c, 0, 68, 80
2, 262482, Note_on_c, 0, 49, 51
2, 262512, Note_on_c, 0, 70, 0
2, 262606, Control_c, 0, 64, 49
2, 262626, Note_on_c, 0, 49, 0
2, 262636, Control_c, 0, 64, 49
2, 262666, Control_c, 0, 64, 48
2, 262697, Control_c, 0, 64, 48
2, 262727, Control_c, 0, 64, 47
2, 262743, Control_c, 0, 64, 46
2, 262757, Control_c, 0, 64, 45
2, 262772, Control_c, 0, 64, 45
2, 262788, Control_c, 0, 64, 44
2, 262791, Note_on_c, 0, 54, 46
2, 262803, Control_c, 0, 64, 42
2, 262819, Control_c, 0, 64, 40
2, 262834, Control_c, 0, 64, 38
2, 262834, Note_on_c, 0, 70, 77
2, 262849, Control_c, 0, 64, 35
2, 262864, Control_c, 0, 64, 33
2, 262879, Control_c, 0, 64, 28
2, 262895, Control_c, 0, 64, 17
2, 262910, Control_c, 0, 64, 0
2, 262944, Note_on_c, 0, 68, 0
2, 263165, Note_on_c, 0, 68, 60
2, 263259, Note_on_c, 0, 64, 0
2, 263461, Note_on_c, 0, 66, 48
2, 263518, Note_on_c, 0, 68, 0
2, 263693, Control_c, 0, 67, 12
2, 263708, Control_c, 0, 67, 20
2, 263723, Control_c, 0, 67, 30
2, 263739, Control_c, 0, 67, 46
2, 263754, Control_c, 0, 67, 61
2, 263769, Control_c, 0, 67, 79
2, 263784, Control_c, 0, 67, 99
2, 263799, Control_c, 0, 67, 121
2, 263815, Control_c, 0, 67, 127
2, 263817, Note_on_c, 0, 64, 49
2, 263860, Control_c, 0, 64, 30
2, 263870, Note_on_c, 0, 66, 0
2, 263875, Control_c, 0, 64, 51
2, 263890, Control_c, 0, 64, 60
2, 263906, Control_c, 0, 64, 64
2, 263920, Control_c, 0, 64, 68
2, 263936, Control_c, 0, 64, 72
2, 263951, Control_c, 0, 64, 80
2, 263966, Control_c, 0, 64, 87
2, 263982, Control_c, 0, 64, 95
2, 263996, Control_c, 0, 64, 104
2, 264011, Control_c, 0, 64, 117
2, 264017, Note_on_c, 0, 54, 0
2, 264027, Control_c, 0, 64, 127
2, 264078, Note_on_c, 0, 42, 0
2, 264126, Note_on_c, 0, 70, 0
2, 264384, Note_on_c, 0, 71, 52
2, 264387, Note_on_c, 0, 47, 41
2, 264401, Note_on_c, 0, 63, 42
2, 264406, Note_on_c, 0, 54, 37
2, 264416, Control_c, 0, 64, 115
2, 264430, Control_c, 0, 64, 96
2, 264445, Control_c, 0, 64, 84
2, 264461, Control_c, 0, 64, 75
2, 264476, Control_c, 0, 64, 67
2, 264491, Control_c, 0, 64, 61
2, 264506, Control_c, 0, 64, 53
2, 264506, Note_on_c, 0, 64, 0
2, 264521, Control_c, 0, 64, 48
2, 264537, Control_c, 0, 64, 47
2, 264552, Control_c, 0, 64, 45
2, 264567, Control_c, 0, 64, 43
2, 264583, Control_c, 0, 64, 40
2, 264598, Control_c, 0, 64, 37
2, 264613, Control_c, 0, 64, 33
2, 264628, Control_c, 0, 64, 29
2, 264643, Control_c, 0, 64, 26
2, 264659, Control_c, 0, 64, 23
2, 264674, Control_c, 0, 64, 21
2, 264688, Control_c, 0, 64, 19
2, 264704, Control_c, 0, 64, 17
2, 264719, Control_c, 0, 64, 16
2, 264750, Control_c, 0, 64, 15
2, 265594, Control_c, 0, 64, 16
2, 265677, Control_c, 0, 64, 17
2, 265799, Control_c, 0, 64, 18
2, 265906, Control_c, 0, 64, 19
2, 266012, Control_c, 0, 64, 20
2, 266163, Control_c, 0, 64, 21
2, 266285, Control_c, 0, 64, 22
2, 266521, Control_c, 0, 64, 23
2, 266913, Note_on_c, 0, 71, 0
2, 266918, Note_on_c, 0, 54, 0
2, 266930, Note_on_c, 0, 47, 0
2, 266961, Note_on_c, 0, 63, 0
2, 266962, End_track
0, 0, End_of_file
