0, 0, Header, 1, 2, 480
1, 0, Start_track
1, 0, Tempo, 500000
1, 0, Time_signature, 4, 2, 24, 8
1, 1, End_track
2, 0, Start_track
2, 0, Program_c, 0, 0
2, 921, Note_on_c, 0, 47, 51
2, 1057, Note_on_c, 0, 59, 53
2, 1193, Note_on_c, 0, 59, 0
2, 1208, Note_on_c, 0, 61, 57
2, 1344, Note_on_c, 0, 61, 0
2, 1353, Note_on_c, 0, 63, 64
2, 1420, Note_on_c, 0, 47, 0
2, 1476, Note_on_c, 0, 63, 0
2, 1498, Note_on_c, 0, 64, 64
2, 1630, Note_on_c, 0, 64, 0
2, 1638, Note_on_c, 0, 66, 66
2, 1769, Note_on_c, 0, 66, 0
2, 1772, Note_on_c, 0, 68, 65
2, 1891, Note_on_c, 0, 68, 0
2, 1915, Note_on_c, 0, 70, 66
2, 1987, Note_on_c, 0, 70, 0
2, 2017, Note_on_c, 0, 71, 62
2, 2054, Note_on_c, 0, 71, 0
2, 2064, Note_on_c, 0, 70, 77
2, 2122, Note_on_c, 0, 70, 0
2, 2135, Note_on_c, 0, 71, 81
2, 2229, Note_on_c, 0, 59, 48
2, 2358, Note_on_c, 0, 59, 0
2, 2370, Note_on_c, 0, 58, 43
2, 2489, Note_on_c, 0, 71, 0
2, 2493, Note_on_c, 0, 73, 75
2, 2495, Note_on_c, 0, 58, 0
2, 2504, Note_on_c, 0, 56, 60
2, 2627, Note_on_c, 0, 73, 0
2, 2636, Note_on_c, 0, 56, 0
2, 2644, Note_on_c, 0, 54, 58
2, 2648, Note_on_c, 0, 75, 68
2, 2700, Note_on_c, 0, 75, 0
2, 2727, Note_on_c, 0, 73, 74
2, 2738, Note_on_c, 0, 54, 0
2, 2776, Note_on_c, 0, 73, 0
2, 2784, Note_on_c, 0, 52, 47
2, 2821, Note_on_c, 0, 75, 63
2, 2857, Note_on_c, 0, 75, 0
2, 2890, Note_on_c, 0, 73, 62
2, 2901, Note_on_c, 0, 51, 49
2, 2930, Note_on_c, 0, 73, 0
2, 2930, Note_on_c, 0, 75, 84
2, 2965, Note_on_c, 0, 52, 0
2, 2992, Note_on_c, 0, 75, 0
2, 3007, Note_on_c, 0, 73, 77
2, 3052, Note_on_c, 0, 49, 49
2, 3056, Note_on_c, 0, 51, 0
2, 3063, Note_on_c, 0, 71, 73
2, 3071, Note_on_c, 0, 73, 0
2, 3129, Note_on_c, 0, 71, 0
2, 3130, Note_on_c, 0, 73, 74
2, 3191, Note_on_c, 0, 49, 0
2, 3197, Note_on_c, 0, 47, 52
2, 3206, Note_on_c, 0, 75, 81
2, 3212, Note_on_c, 0, 73, 0
2, 3366, Note_on_c, 0, 75, 0
2, 3370, Note_on_c, 0, 70, 79
2, 3414, Note_on_c, 0, 47, 0
2, 3504, Note_on_c, 0, 70, 0
2, 3520, Note_on_c, 0, 71, 78
2, 3637, Note_on_c, 0, 71, 0
2, 3637, Note_on_c, 0, 75, 86
2, 3798, Note_on_c, 0, 51, 58
2, 3798, Note_on_c, 0, 75, 0
2, 3802, Note_on_c, 0, 76, 72
2, 3856, Note_on_c, 0, 51, 0
2, 3877, Note_on_c, 0, 49, 61
2, 3922, Note_on_c, 0, 76, 0
2, 3936, Note_on_c, 0, 49, 0
2, 3955, Note_on_c, 0, 70, 75
2, 3978, Note_on_c, 0, 51, 65
2, 4048, Note_on_c, 0, 49, 63
2, 4063, Note_on_c, 0, 51, 0
2, 4081, Note_on_c, 0, 70, 0
2, 4089, Note_on_c, 0, 71, 69
2, 4172, Note_on_c, 0, 49, 0
2, 4183, Note_on_c, 0, 47, 64
2, 4222, Note_on_c, 0, 71, 0
2, 4238, Note_on_c, 0, 76, 79
2, 4284, Note_on_c, 0, 47, 0
2, 4315, Note_on_c, 0, 49, 57
2, 4397, Note_on_c, 0, 49, 0
2, 4397, Note_on_c, 0, 78, 76
2, 4401, Note_on_c, 0, 76, 0
2, 4405, Note_on_c, 0, 51, 60
2, 4544, Note_on_c, 0, 78, 0
2, 4545, Note_on_c, 0, 71, 76
2, 4620, Note_on_c, 0, 51, 0
2, 4669, Note_on_c, 0, 71, 0
2, 4693, Note_on_c, 0, 80, 78
2, 4849, Note_on_c, 0, 78, 68
2, 4863, Note_on_c, 0, 80, 0
2, 4879, Note_on_c, 0, 52, 62
2, 4930, Note_on_c, 0, 52, 0
2, 4975, Note_on_c, 0, 54, 71
2, 4984, Note_on_c, 0, 78, 0
2, 5004, Note_on_c, 0, 76, 68
2, 5041, Note_on_c, 0, 54, 0
2, 5046, Note_on_c, 0, 52, 65
2, 5083, Note_on_c, 0, 52, 0
2, 5111, Note_on_c, 0, 54, 74
2, 5132, Note_on_c, 0, 76, 0
2, 5134, Note_on_c, 0, 75, 72
2, 5172, Note_on_c, 0, 52, 63
2, 5195, Note_on_c, 0, 54, 0
2, 5263, Note_on_c, 0, 52, 0
2, 5276, Note_on_c, 0, 51, 62
2, 5279, Note_on_c, 0, 75, 0
2, 5280, Note_on_c, 0, 73, 71
2, 5355, Note_on_c, 0, 51, 0
2, 5372, Note_on_c, 0, 52, 60
2, 5387, Note_on_c, 0, 73, 0
2, 5410, Note_on_c, 0, 71, 59
2, 5540, Note_on_c, 0, 71, 0
2, 5546, Note_on_c, 0, 52, 0
2, 5550, Note_on_c, 0, 54, 64
2, 5566, Note_on_c, 0, 70, 66
2, 5596, Note_on_c, 0, 54, 0
2, 5683, Note_on_c, 0, 70, 0
2, 5702, Note_on_c, 0, 65, 55
2, 5845, Note_on_c, 0, 65, 0
2, 5857, Note_on_c, 0, 66, 62
2, 5876, Note_on_c, 0, 58, 58
2, 5914, Note_on_c, 0, 58, 0
2, 5997, Note_on_c, 0, 66, 0
2, 6006, Note_on_c, 0, 73, 62
2, 6173, Note_on_c, 0, 70, 67
2, 6173, Note_on_c, 0, 73, 0
2, 6180, Note_on_c, 0, 61, 60
2, 6220, Note_on_c, 0, 61, 0
2, 6318, Note_on_c, 0, 70, 0
2, 6324, Note_on_c, 0, 73, 63
2, 6468, Note_on_c, 0, 58, 59
2, 6472, Note_on_c, 0, 73, 0
2, 6481, Note_on_c, 0, 66, 62
2, 6512, Note_on_c, 0, 58, 0
2, 6593, Note_on_c, 0, 66, 0
2, 6617, Note_on_c, 0, 73, 66
2, 6774, Note_on_c, 0, 54, 47
2, 6784, Note_on_c, 0, 70, 64
2, 6805, Note_on_c, 0, 73, 0
2, 6912, Note_on_c, 0, 65, 47
2, 6934, Note_on_c, 0, 54, 0
2, 7066, Note_on_c, 0, 65, 0
2, 7067, Note_on_c, 0, 70, 0
2, 7073, Note_on_c, 0, 58, 45
2, 7074, Note_on_c, 0, 66, 59
2, 7138, Note_on_c, 0, 58, 0
2, 7199, Note_on_c, 0, 66, 0
2, 7202, Note_on_c, 0, 73, 67
2, 7374, Note_on_c, 0, 61, 50
2, 7377, Note_on_c, 0, 70, 65
2, 7380, Note_on_c, 0, 73, 0
2, 7421, Note_on_c, 0, 61, 0
2, 7503, Note_on_c, 0, 70, 0
2, 7517, Note_on_c, 0, 73, 70
2, 7648, Note_on_c, 0, 73, 0
2, 7649, Note_on_c, 0, 52, 47
2, 7653, Note_on_c, 0, 66, 63
2, 7727, Note_on_c, 0, 52, 0
2, 7795, Note_on_c, 0, 66, 0
2, 7796, Note_on_c, 0, 73, 71
2, 7954, Note_on_c, 0, 51, 54
2, 7961, Note_on_c, 0, 73, 0
2, 7970, Note_on_c, 0, 71, 71
2, 8114, Note_on_c, 0, 65, 54
2, 8143, Note_on_c, 0, 51, 0
2, 8232, Note_on_c, 0, 65, 0
2, 8258, Note_on_c, 0, 66, 63
2, 8265, Note_on_c, 0, 71, 0
2, 8270, Note_on_c, 0, 59, 59
2, 8322, Note_on_c, 0, 59, 0
2, 8391, Note_on_c, 0, 66, 0
2, 8396, Note_on_c, 0, 75, 72
2, 8552, Note_on_c, 0, 71, 71
2, 8554, Note_on_c, 0, 63, 67
2, 8556, Note_on_c, 0, 75, 0
2, 8600, Note_on_c, 0, 63, 0
2, 8697, Note_on_c, 0, 75, 72
2, 8705, Note_on_c, 0, 71, 0
2, 8832, Note_on_c, 0, 75, 0
2, 8834, Note_on_c, 0, 66, 65
2, 8844, Note_on_c, 0, 59, 62
2, 8887, Note_on_c, 0, 59, 0
2, 8967, Note_on_c, 0, 66, 0
2, 8979, Note_on_c, 0, 75, 66
2, 9137, Note_on_c, 0, 54, 51
2, 9145, Note_on_c, 0, 71, 63
2, 9183, Note_on_c, 0, 75, 0
2, 9260, Note_on_c, 0, 54, 0
2, 9296, Note_on_c, 0, 65, 33
2, 9427, Note_on_c, 0, 65, 0
2, 9436, Note_on_c, 0, 71, 0
2, 9438, Note_on_c, 0, 66, 56
2, 9442, Note_on_c, 0, 59, 53
2, 9493, Note_on_c, 0, 59, 0
2, 9562, Note_on_c, 0, 66, 0
2, 9577, Note_on_c, 0, 75, 63
2, 9722, Note_on_c, 0, 75, 0
2, 9727, Note_on_c, 0, 71, 66
2, 9729, Note_on_c, 0, 63, 54
2, 9781, Note_on_c, 0, 63, 0
2, 9857, Note_on_c, 0, 71, 0
2, 9869, Note_on_c, 0, 75, 67
2, 10008, Note_on_c, 0, 75, 0
2, 10013, Note_on_c, 0, 66, 62
2, 10030, Note_on_c, 0, 59, 52
2, 10062, Note_on_c, 0, 59, 0
2, 10149, Note_on_c, 0, 66, 0
2, 10156, Note_on_c, 0, 75, 69
2, 10289, Note_on_c, 0, 46, 68
2, 10300, Note_on_c, 0, 73, 67
2, 10307, Note_on_c, 0, 75, 0
2, 10395, Note_on_c, 0, 46, 0
2, 10449, Note_on_c, 0, 65, 58
2, 10598, Note_on_c, 0, 66, 67
2, 10600, Note_on_c, 0, 65, 0
2, 10605, Note_on_c, 0, 61, 69
2, 10617, Note_on_c, 0, 73, 0
2, 10674, Note_on_c, 0, 61, 0
2, 10739, Note_on_c, 0, 66, 0
2, 10747, Note_on_c, 0, 76, 72
2, 10897, Note_on_c, 0, 64, 78
2, 10903, Note_on_c, 0, 73, 73
2, 10903, Note_on_c, 0, 76, 0
2, 11003, Note_on_c, 0, 64, 0
2, 11036, Note_on_c, 0, 76, 73
2, 11057, Note_on_c, 0, 73, 0
2, 11189, Note_on_c, 0, 61, 76
2, 11192, Note_on_c, 0, 70, 71
2, 11192, Note_on_c, 0, 76, 0
2, 11262, Note_on_c, 0, 61, 0
2, 11325, Note_on_c, 0, 76, 73
2, 11338, Note_on_c, 0, 70, 0
2, 11484, Note_on_c, 0, 58, 59
2, 11487, Note_on_c, 0, 73, 68
2, 11521, Note_on_c, 0, 76, 0
2, 11542, Note_on_c, 0, 58, 0
2, 11620, Note_on_c, 0, 65, 43
2, 11769, Note_on_c, 0, 73, 0
2, 11770, Note_on_c, 0, 61, 59
2, 11771, Note_on_c, 0, 65, 0
2, 11777, Note_on_c, 0, 66, 62
2, 11828, Note_on_c, 0, 61, 0
2, 11890, Note_on_c, 0, 66, 0
2, 11916, Note_on_c, 0, 76, 60
2, 12059, Note_on_c, 0, 73, 68
2, 12068, Note_on_c, 0, 58, 45
2, 12075, Note_on_c, 0, 76, 0
2, 12105, Note_on_c, 0, 58, 0
2, 12195, Note_on_c, 0, 73, 0
2, 12210, Note_on_c, 0, 76, 64
2, 12341, Note_on_c, 0, 54, 46
2, 12343, Note_on_c, 0, 76, 0
2, 12344, Note_on_c, 0, 70, 65
2, 12377, Note_on_c, 0, 54, 0
2, 12475, Note_on_c, 0, 70, 0
2, 12489, Note_on_c, 0, 76, 67
2, 12643, Note_on_c, 0, 76, 0
2, 12654, Note_on_c, 0, 75, 68
2, 12658, Note_on_c, 0, 47, 43
2, 12727, Note_on_c, 0, 47, 0
2, 12797, Note_on_c, 0, 70, 59
2, 12930, Note_on_c, 0, 70, 0
2, 12940, Note_on_c, 0, 71, 65
2, 12943, Note_on_c, 0, 63, 58
2, 12962, Note_on_c, 0, 75, 0
2, 12992, Note_on_c, 0, 63, 0
2, 13058, Note_on_c, 0, 71, 0
2, 13067, Note_on_c, 0, 78, 66
2, 13224, Note_on_c, 0, 75, 67
2, 13229, Note_on_c, 0, 78, 0
2, 13231, Note_on_c, 0, 66, 56
2, 13284, Note_on_c, 0, 66, 0
2, 13379, Note_on_c, 0, 75, 0
2, 13381, Note_on_c, 0, 78, 68
2, 13496, Note_on_c, 0, 78, 0
2, 13512, Note_on_c, 0, 71, 55
2, 13514, Note_on_c, 0, 63, 44
2, 13560, Note_on_c, 0, 63, 0
2, 13608, Note_on_c, 0, 71, 0
2, 13647, Note_on_c, 0, 78, 63
2, 13797, Note_on_c, 0, 59, 49
2, 13811, Note_on_c, 0, 75, 66
2, 13834, Note_on_c, 0, 78, 0
2, 13866, Note_on_c, 0, 59, 0
2, 13960, Note_on_c, 0, 70, 66
2, 13971, Note_on_c, 0, 75, 0
2, 14093, Note_on_c, 0, 71, 67
2, 14103, Note_on_c, 0, 70, 0
2, 14107, Note_on_c, 0, 63, 47
2, 14145, Note_on_c, 0, 63, 0
2, 14208, Note_on_c, 0, 71, 0
2, 14236, Note_on_c, 0, 78, 68
2, 14371, Note_on_c, 0, 78, 0
2, 14376, Note_on_c, 0, 75, 65
2, 14387, Note_on_c, 0, 59, 52
2, 14442, Note_on_c, 0, 59, 0
2, 14522, Note_on_c, 0, 78, 64
2, 14536, Note_on_c, 0, 75, 0
2, 14636, Note_on_c, 0, 78, 0
2, 14665, Note_on_c, 0, 71, 66
2, 14673, Note_on_c, 0, 54, 50
2, 14722, Note_on_c, 0, 54, 0
2, 14807, Note_on_c, 0, 78, 73
2, 14810, Note_on_c, 0, 71, 0
2, 14952, Note_on_c, 0, 81, 76
2, 14957, Note_on_c, 0, 51, 41
2, 14961, Note_on_c, 0, 78, 0
2, 15029, Note_on_c, 0, 51, 0
2, 15102, Note_on_c, 0, 76, 76
2, 15142, Note_on_c, 0, 81, 0
2, 15244, Note_on_c, 0, 78, 80
2, 15256, Note_on_c, 0, 59, 44
2, 15271, Note_on_c, 0, 76, 0
2, 15306, Note_on_c, 0, 59, 0
2, 15386, Note_on_c, 0, 81, 84
2, 15388, Note_on_c, 0, 78, 0
2, 15537, Note_on_c, 0, 75, 84
2, 15557, Note_on_c, 0, 54, 51
2, 15602, Note_on_c, 0, 54, 0
2, 15609, Note_on_c, 0, 81, 0
2, 15675, Note_on_c, 0, 78, 78
2, 15708, Note_on_c, 0, 75, 0
2, 15807, Note_on_c, 0, 51, 52
2, 15829, Note_on_c, 0, 78, 0
2, 15830, Note_on_c, 0, 71, 74
2, 15860, Note_on_c, 0, 51, 0
2, 15957, Note_on_c, 0, 71, 0
2, 15958, Note_on_c, 0, 78, 79
2, 16095, Note_on_c, 0, 81, 70
2, 16099, Note_on_c, 0, 78, 0
2, 16135, Note_on_c, 0, 47, 44
2, 16249, Note_on_c, 0, 78, 76
2, 16257, Note_on_c, 0, 81, 0
2, 16392, Note_on_c, 0, 76, 65
2, 16407, Note_on_c, 0, 78, 0
2, 16411, Note_on_c, 0, 54, 49
2, 16413, Note_on_c, 0, 47, 0
2, 16442, Note_on_c, 0, 54, 0
2, 16510, Note_on_c, 0, 76, 0
2, 16519, Note_on_c, 0, 75, 71
2, 16682, Note_on_c, 0, 59, 50
2, 16691, Note_on_c, 0, 76, 60
2, 16727, Note_on_c, 0, 59, 0
2, 16728, Note_on_c, 0, 75, 0
2, 16815, Note_on_c, 0, 75, 69
2, 16831, Note_on_c, 0, 76, 0
2, 16952, Note_on_c, 0, 75, 0
2, 16960, Note_on_c, 0, 73, 66
2, 16977, Note_on_c, 0, 51, 42
2, 17043, Note_on_c, 0, 51, 0
2, 17077, Note_on_c, 0, 73, 0
2, 17095, Note_on_c, 0, 71, 68
2, 17237, Note_on_c, 0, 71, 0
2, 17251, Note_on_c, 0, 80, 67
2, 17255, Note_on_c, 0, 52, 48
2, 17395, Note_on_c, 0, 76, 68
2, 17410, Note_on_c, 0, 80, 0
2, 17547, Note_on_c, 0, 75, 74
2, 17547, Note_on_c, 0, 76, 0
2, 17550, Note_on_c, 0, 56, 50
2, 17580, Note_on_c, 0, 52, 0
2, 17611, Note_on_c, 0, 56, 0
2, 17676, Note_on_c, 0, 75, 0
2, 17683, Note_on_c, 0, 73, 71
2, 17838, Note_on_c, 0, 73, 0
2, 17839, Note_on_c, 0, 46, 45
2, 17841, Note_on_c, 0, 75, 64
2, 17906, Note_on_c, 0, 46, 0
2, 17906, Note_on_c, 0, 46, 15
2, 17958, Note_on_c, 0, 46, 0
2, 17978, Note_on_c, 0, 73, 70
2, 17991, Note_on_c, 0, 75, 0
2, 18118, Note_on_c, 0, 73, 0
2, 18119, Note_on_c, 0, 71, 66
2, 18122, Note_on_c, 0, 56, 56
2, 18168, Note_on_c, 0, 56, 0
2, 18238, Note_on_c, 0, 71, 0
2, 18252, Note_on_c, 0, 70, 68
2, 18392, Note_on_c, 0, 70, 0
2, 18407, Note_on_c, 0, 51, 55
2, 18407, Note_on_c, 0, 78, 69
2, 18557, Note_on_c, 0, 75, 73
2, 18606, Note_on_c, 0, 78, 0
2, 18684, Note_on_c, 0, 54, 58
2, 18698, Note_on_c, 0, 73, 71
2, 18722, Note_on_c, 0, 51, 0
2, 18730, Note_on_c, 0, 75, 0
2, 18738, Note_on_c, 0, 54, 0
2, 18817, Note_on_c, 0, 73, 0
2, 18834, Note_on_c, 0, 71, 62
2, 18982, Note_on_c, 0, 44, 53
2, 18992, Note_on_c, 0, 71, 0
2, 19000, Note_on_c, 0, 73, 67
2, 19042, Note_on_c, 0, 44, 0
2, 19143, Note_on_c, 0, 71, 69
2, 19147, Note_on_c, 0, 73, 0
2, 19261, Note_on_c, 0, 71, 0
2, 19264, Note_on_c, 0, 54, 61
2, 19274, Note_on_c, 0, 70, 72
2, 19307, Note_on_c, 0, 54, 0
2, 19391, Note_on_c, 0, 70, 0
2, 19401, Note_on_c, 0, 68, 68
2, 19552, Note_on_c, 0, 49, 53
2, 19560, Note_on_c, 0, 68, 0
2, 19570, Note_on_c, 0, 76, 70
2, 19682, Note_on_c, 0, 51, 62
2, 19688, Note_on_c, 0, 76, 0
2, 19690, Note_on_c, 0, 49, 0
2, 19696, Note_on_c, 0, 75, 72
2, 19809, Note_on_c, 0, 51, 0
2, 19834, Note_on_c, 0, 75, 0
2, 19843, Note_on_c, 0, 73, 73
2, 19847, Note_on_c, 0, 52, 60
2, 19971, Note_on_c, 0, 73, 0
2, 19975, Note_on_c, 0, 54, 67
2, 19976, Note_on_c, 0, 75, 79
2, 19988, Note_on_c, 0, 52, 0
2, 20122, Note_on_c, 0, 54, 0
2, 20130, Note_on_c, 0, 56, 72
2, 20132, Note_on_c, 0, 76, 77
2, 20148, Note_on_c, 0, 75, 0
2, 20258, Note_on_c, 0, 58, 66
2, 20263, Note_on_c, 0, 76, 0
2, 20294, Note_on_c, 0, 56, 0
2, 20374, Note_on_c, 0, 58, 0
2, 20403, Note_on_c, 0, 68, 79
2, 20408, Note_on_c, 0, 59, 74
2, 20466, Note_on_c, 0, 68, 0
2, 20531, Note_on_c, 0, 56, 70
2, 20535, Note_on_c, 0, 59, 0
2, 20694, Note_on_c, 0, 58, 70
2, 20701, Note_on_c, 0, 56, 0
2, 20711, Note_on_c, 0, 66, 70
2, 20736, Note_on_c, 0, 58, 0
2, 20837, Note_on_c, 0, 66, 0
2, 20842, Note_on_c, 0, 68, 74
2, 20987, Note_on_c, 0, 68, 0
2, 20993, Note_on_c, 0, 70, 74
2, 20994, Note_on_c, 0, 61, 68
2, 21032, Note_on_c, 0, 61, 0
2, 21104, Note_on_c, 0, 70, 0
2, 21125, Note_on_c, 0, 71, 72
2, 21269, Note_on_c, 0, 58, 69
2, 21277, Note_on_c, 0, 71, 0
2, 21285, Note_on_c, 0, 73, 74
2, 21313, Note_on_c, 0, 58, 0
2, 21427, Note_on_c, 0, 75, 75
2, 21430, Note_on_c, 0, 73, 0
2, 21551, Note_on_c, 0, 54, 58
2, 21573, Note_on_c, 0, 75, 0
2, 21578, Note_on_c, 0, 76, 72
2, 21590, Note_on_c, 0, 54, 0
2, 21705, Note_on_c, 0, 73, 77
2, 21708, Note_on_c, 0, 76, 0
2, 21865, Note_on_c, 0, 59, 64
2, 21865, Note_on_c, 0, 75, 79
2, 21869, Note_on_c, 0, 73, 0
2, 21903, Note_on_c, 0, 59, 0
2, 22003, Note_on_c, 0, 76, 71
2, 22010, Note_on_c, 0, 75, 0
2, 22141, Note_on_c, 0, 47, 49
2, 22143, Note_on_c, 0, 76, 0
2, 22151, Note_on_c, 0, 75, 76
2, 22187, Note_on_c, 0, 47, 0
2, 22269, Note_on_c, 0, 75, 0
2, 22277, Note_on_c, 0, 73, 72
2, 22373, Note_on_c, 0, 73, 0
2, 22400, Note_on_c, 0, 59, 64
2, 22404, Note_on_c, 0, 71, 65
2, 22452, Note_on_c, 0, 59, 0
2, 22460, Note_on_c, 0, 58, 68
2, 22514, Note_on_c, 0, 70, 72
2, 22523, Note_on_c, 0, 59, 70
2, 22524, Note_on_c, 0, 58, 0
2, 22524, Note_on_c, 0, 71, 0
2, 22682, Note_on_c, 0, 68, 59
2, 22692, Note_on_c, 0, 70, 0
2, 22808, Note_on_c, 0, 68, 0
2, 22817, Note_on_c, 0, 66, 61
2, 22940, Note_on_c, 0, 66, 0
2, 22963, Note_on_c, 0, 65, 56
2, 23068, Note_on_c, 0, 65, 0
2, 23102, Note_on_c, 0, 61, 59
2, 23125, Note_on_c, 0, 58, 50
2, 23132, Note_on_c, 0, 59, 0
2, 23204, Note_on_c, 0, 61, 0
2, 23238, Note_on_c, 0, 65, 53
2, 23264, Note_on_c, 0, 58, 0
2, 23273, Note_on_c, 0, 56, 57
2, 23376, Note_on_c, 0, 68, 70
2, 23384, Note_on_c, 0, 65, 0
2, 23402, Note_on_c, 0, 54, 45
2, 23403, Note_on_c, 0, 56, 0
2, 23494, Note_on_c, 0, 54, 0
2, 23536, Note_on_c, 0, 73, 78
2, 23537, Note_on_c, 0, 53, 54
2, 23541, Note_on_c, 0, 68, 0
2, 23661, Note_on_c, 0, 53, 0
2, 23680, Note_on_c, 0, 49, 54
2, 23792, Note_on_c, 0, 49, 0
2, 23832, Note_on_c, 0, 53, 47
2, 23942, Note_on_c, 0, 53, 0
2, 23962, Note_on_c, 0, 56, 51
2, 24122, Note_on_c, 0, 56, 0
2, 24141, Note_on_c, 0, 58, 44
2, 24268, Note_on_c, 0, 71, 58
2, 24278, Note_on_c, 0, 73, 0
2, 24302, Note_on_c, 0, 58, 0
2, 24418, Note_on_c, 0, 71, 0
2, 24435, Note_on_c, 0, 70, 61
2, 24444, Note_on_c, 0, 61, 47
2, 24509, Note_on_c, 0, 61, 0
2, 24573, Note_on_c, 0, 70, 0
2, 24575, Note_on_c, 0, 68, 65
2, 24718, Note_on_c, 0, 68, 0
2, 24725, Note_on_c, 0, 51, 39
2, 24725, Note_on_c, 0, 66, 57
2, 24839, Note_on_c, 0, 66, 0
2, 24871, Note_on_c, 0, 65, 51
2, 24889, Note_on_c, 0, 51, 0
2, 25004, Note_on_c, 0, 65, 0
2, 25027, Note_on_c, 0, 63, 55
2, 25034, Note_on_c, 0, 54, 39
2, 25139, Note_on_c, 0, 54, 0
2, 25153, Note_on_c, 0, 63, 0
2, 25168, Note_on_c, 0, 73, 50
2, 25307, Note_on_c, 0, 73, 0
2, 25314, Note_on_c, 0, 56, 48
2, 25324, Note_on_c, 0, 71, 53
2, 25428, Note_on_c, 0, 56, 0
2, 25451, Note_on_c, 0, 71, 0
2, 25470, Note_on_c, 0, 70, 57
2, 25601, Note_on_c, 0, 70, 0
2, 25613, Note_on_c, 0, 68, 60
2, 25615, Note_on_c, 0, 59, 50
2, 25705, Note_on_c, 0, 59, 0
2, 25732, Note_on_c, 0, 68, 0
2, 25745, Note_on_c, 0, 66, 60
2, 25895, Note_on_c, 0, 66, 0
2, 25904, Note_on_c, 0, 65, 46
2, 25907, Note_on_c, 0, 49, 44
2, 26001, Note_on_c, 0, 49, 0
2, 26030, Note_on_c, 0, 65, 0
2, 26056, Note_on_c, 0, 63, 57
2, 26185, Note_on_c, 0, 63, 0
2, 26196, Note_on_c, 0, 53, 40
2, 26223, Note_on_c, 0, 61, 52
2, 26264, Note_on_c, 0, 53, 0
2, 26354, Note_on_c, 0, 71, 54
2, 26496, Note_on_c, 0, 71, 0
2, 26533, Note_on_c, 0, 70, 56
2, 26544, Note_on_c, 0, 66, 45
2, 26556, Note_on_c, 0, 54, 37
2, 26673, Note_on_c, 0, 42, 49
2, 26717, Note_on_c, 0, 54, 0
2, 26821, Note_on_c, 0, 42, 0
2, 26825, Note_on_c, 0, 44, 48
2, 26921, Note_on_c, 0, 61, 0
2, 26956, Note_on_c, 0, 44, 0
2, 26960, Note_on_c, 0, 46, 52
2, 27111, Note_on_c, 0, 46, 0
2, 27135, Note_on_c, 0, 47, 58
2, 27167, Note_on_c, 0, 66, 0
2, 27235, Note_on_c, 0, 70, 0
2, 27257, Note_on_c, 0, 47, 0
2, 27265, Note_on_c, 0, 49, 59
2, 27430, Note_on_c, 0, 51, 61
2, 27457, Note_on_c, 0, 49, 0
2, 27543, Note_on_c, 0, 51, 0
2, 27573, Note_on_c, 0, 53, 68
2, 27699, Note_on_c, 0, 53, 0
2, 27706, Note_on_c, 0, 54, 66
2, 27851, Note_on_c, 0, 54, 0
2, 27852, Note_on_c, 0, 56, 70
2, 28018, Note_on_c, 0, 56, 0
2, 28020, Note_on_c, 0, 54, 57
2, 28024, Note_on_c, 0, 73, 69
2, 28026, Note_on_c, 0, 70, 64
2, 28160, Note_on_c, 0, 54, 0
2, 28172, Note_on_c, 0, 52, 60
2, 28309, Note_on_c, 0, 52, 0
2, 28309, Note_on_c, 0, 70, 0
2, 28316, Note_on_c, 0, 72, 69
2, 28319, Note_on_c, 0, 51, 56
2, 28322, Note_on_c, 0, 78, 70
2, 28324, Note_on_c, 0, 73, 0
2, 28450, Note_on_c, 0, 51, 0
2, 28455, Note_on_c, 0, 56, 69
2, 28612, Note_on_c, 0, 54, 69
2, 28615, Note_on_c, 0, 75, 77
2, 28629, Note_on_c, 0, 56, 0
2, 28650, Note_on_c, 0, 78, 0
2, 28727, Note_on_c, 0, 54, 0
2, 28752, Note_on_c, 0, 56, 66
2, 28912, Note_on_c, 0, 49, 61
2, 28921, Note_on_c, 0, 56, 0
2, 28921, Note_on_c, 0, 75, 0
2, 28922, Note_on_c, 0, 76, 64
2, 28923, Note_on_c, 0, 73, 63
2, 28925, Note_on_c, 0, 72, 0
2, 29073, Note_on_c, 0, 51, 57
2, 29077, Note_on_c, 0, 49, 0
2, 29194, Note_on_c, 0, 51, 0
2, 29219, Note_on_c, 0, 52, 66
2, 29260, Note_on_c, 0, 73, 0
2, 29263, Note_on_c, 0, 68, 64
2, 29360, Note_on_c, 0, 49, 64
2, 29392, Note_on_c, 0, 52, 0
2, 29531, Note_on_c, 0, 54, 70
2, 29535, Note_on_c, 0, 68, 0
2, 29540, Note_on_c, 0, 69, 64
2, 29543, Note_on_c, 0, 49, 0
2, 29663, Note_on_c, 0, 54, 0
2, 29676, Note_on_c, 0, 52, 67
2, 29820, Note_on_c, 0, 69, 0
2, 29821, Note_on_c, 0, 51, 61
2, 29825, Note_on_c, 0, 70, 69
2, 29858, Note_on_c, 0, 52, 0
2, 29971, Note_on_c, 0, 49, 68
2, 29994, Note_on_c, 0, 51, 0
2, 30133, Note_on_c, 0, 49, 0
2, 30145, Note_on_c, 0, 71, 62
2, 30155, Note_on_c, 0, 70, 0
2, 30157, Note_on_c, 0, 47, 60
2, 30280, Note_on_c, 0, 47, 0
2, 30292, Note_on_c, 0, 49, 50
2, 30419, Note_on_c, 0, 49, 0
2, 30432, Note_on_c, 0, 76, 0
2, 30439, Note_on_c, 0, 47, 58
2, 30451, Note_on_c, 0, 75, 62
2, 30594, Note_on_c, 0, 46, 57
2, 30616, Note_on_c, 0, 47, 0
2, 30709, Note_on_c, 0, 46, 0
2, 30723, Note_on_c, 0, 44, 53
2, 30758, Note_on_c, 0, 76, 64
2, 30813, Note_on_c, 0, 75, 0
2, 30866, Note_on_c, 0, 49, 60
2, 30883, Note_on_c, 0, 44, 0
2, 31029, Note_on_c, 0, 47, 54
2, 31032, Note_on_c, 0, 49, 0
2, 31042, Note_on_c, 0, 77, 74
2, 31060, Note_on_c, 0, 76, 0
2, 31143, Note_on_c, 0, 47, 0
2, 31173, Note_on_c, 0, 49, 60
2, 31320, Note_on_c, 0, 42, 51
2, 31320, Note_on_c, 0, 49, 0
2, 31339, Note_on_c, 0, 78, 72
2, 31351, Note_on_c, 0, 77, 0
2, 31487, Note_on_c, 0, 49, 56
2, 31498, Note_on_c, 0, 42, 0
2, 31598, Note_on_c, 0, 49, 0
2, 31621, Note_on_c, 0, 71, 0
2, 31635, Note_on_c, 0, 54, 62
2, 31649, Note_on_c, 0, 70, 63
2, 31793, Note_on_c, 0, 52, 62
2, 31820, Note_on_c, 0, 54, 0
2, 31919, Note_on_c, 0, 70, 0
2, 31935, Note_on_c, 0, 71, 66
2, 31937, Note_on_c, 0, 52, 0
2, 31940, Note_on_c, 0, 51, 65
2, 32061, Note_on_c, 0, 51, 0
2, 32076, Note_on_c, 0, 56, 71
2, 32217, Note_on_c, 0, 71, 0
2, 32218, Note_on_c, 0, 54, 72
2, 32227, Note_on_c, 0, 56, 0
2, 32227, Note_on_c, 0, 72, 69
2, 32339, Note_on_c, 0, 54, 0
2, 32345, Note_on_c, 0, 56, 71
2, 32502, Note_on_c, 0, 56, 0
2, 32511, Note_on_c, 0, 72, 0
2, 32517, Note_on_c, 0, 49, 64
2, 32524, Note_on_c, 0, 73, 80
2, 32538, Note_on_c, 0, 78, 0
2, 32645, Note_on_c, 0, 49, 0
2, 32679, Note_on_c, 0, 51, 42
2, 32805, Note_on_c, 0, 77, 75
2, 32809, Note_on_c, 0, 49, 54
2, 32896, Note_on_c, 0, 51, 0
2, 32988, Note_on_c, 0, 47, 64
2, 32992, Note_on_c, 0, 49, 0
2, 33122, Note_on_c, 0, 47, 0
2, 33123, Note_on_c, 0, 78, 79
2, 33140, Note_on_c, 0, 46, 62
2, 33148, Note_on_c, 0, 77, 0
2, 33266, Note_on_c, 0, 51, 57
2, 33268, Note_on_c, 0, 46, 0
2, 33416, Note_on_c, 0, 79, 85
2, 33420, Note_on_c, 0, 49, 64
2, 33422, Note_on_c, 0, 51, 0
2, 33433, Note_on_c, 0, 78, 0
2, 33548, Note_on_c, 0, 49, 0
2, 33567, Note_on_c, 0, 51, 44
2, 33692, Note_on_c, 0, 51, 0
2, 33712, Note_on_c, 0, 79, 0
2, 33716, Note_on_c, 0, 44, 51
2, 33722, Note_on_c, 0, 73, 0
2, 33725, Note_on_c, 0, 80, 82
2, 33875, Note_on_c, 0, 73, 60
2, 34010, Note_on_c, 0, 73, 0
2, 34020, Note_on_c, 0, 51, 50
2, 34027, Note_on_c, 0, 44, 0
2, 34043, Note_on_c, 0, 71, 73
2, 34100, Note_on_c, 0, 51, 0
2, 34156, Note_on_c, 0, 71, 0
2, 34173, Note_on_c, 0, 70, 73
2, 34322, Note_on_c, 0, 56, 55
2, 34326, Note_on_c, 0, 70, 0
2, 34328, Note_on_c, 0, 71, 67
2, 34381, Note_on_c, 0, 56, 0
2, 34471, Note_on_c, 0, 75, 78
2, 34471, Note_on_c, 0, 80, 0
2, 34482, Note_on_c, 0, 71, 0
2, 34635, Note_on_c, 0, 80, 70
2, 34640, Note_on_c, 0, 75, 0
2, 34648, Note_on_c, 0, 47, 43
2, 34737, Note_on_c, 0, 47, 0
2, 34771, Note_on_c, 0, 78, 70
2, 34815, Note_on_c, 0, 80, 0
2, 34911, Note_on_c, 0, 78, 0
2, 34937, Note_on_c, 0, 49, 55
2, 34937, Note_on_c, 0, 76, 72
2, 35020, Note_on_c, 0, 49, 0
2, 35085, Note_on_c, 0, 75, 79
2, 35104, Note_on_c, 0, 76, 0
2, 35225, Note_on_c, 0, 51, 53
2, 35243, Note_on_c, 0, 73, 71
2, 35247, Note_on_c, 0, 75, 0
2, 35300, Note_on_c, 0, 51, 0
2, 35346, Note_on_c, 0, 73, 0
2, 35375, Note_on_c, 0, 71, 70
2, 35509, Note_on_c, 0, 52, 64
2, 35515, Note_on_c, 0, 71, 0
2, 35527, Note_on_c, 0, 70, 68
2, 35564, Note_on_c, 0, 52, 0
2, 35668, Note_on_c, 0, 71, 67
2, 35687, Note_on_c, 0, 70, 0
2, 35812, Note_on_c, 0, 46, 65
2, 35824, Note_on_c, 0, 73, 73
2, 35825, Note_on_c, 0, 71, 0
2, 35885, Note_on_c, 0, 46, 0
2, 35958, Note_on_c, 0, 68, 76
2, 35989, Note_on_c, 0, 73, 0
2, 36106, Note_on_c, 0, 68, 0
2, 36108, Note_on_c, 0, 51, 70
2, 36122, Note_on_c, 0, 67, 66
2, 36208, Note_on_c, 0, 51, 0
2, 36257, Note_on_c, 0, 68, 73
2, 36259, Note_on_c, 0, 67, 0
2, 36415, Note_on_c, 0, 70, 73
2, 36417, Note_on_c, 0, 68, 0
2, 36422, Note_on_c, 0, 49, 71
2, 36515, Note_on_c, 0, 70, 0
2, 36523, Note_on_c, 0, 49, 0
2, 36546, Note_on_c, 0, 64, 62
2, 36703, Note_on_c, 0, 47, 71
2, 36709, Note_on_c, 0, 64, 0
2, 36715, Note_on_c, 0, 63, 69
2, 36829, Note_on_c, 0, 47, 0
2, 36855, Note_on_c, 0, 63, 0
2, 36863, Note_on_c, 0, 61, 72
2, 36998, Note_on_c, 0, 43, 68
2, 37009, Note_on_c, 0, 61, 0
2, 37013, Note_on_c, 0, 59, 71
2, 37075, Note_on_c, 0, 43, 0
2, 37133, Note_on_c, 0, 59, 0
2, 37149, Note_on_c, 0, 58, 68
2, 37290, Note_on_c, 0, 44, 76
2, 37295, Note_on_c, 0, 58, 0
2, 37298, Note_on_c, 0, 59, 74
2, 37444, Note_on_c, 0, 59, 0
2, 37445, Note_on_c, 0, 44, 0
2, 37452, Note_on_c, 0, 63, 70
2, 37586, Note_on_c, 0, 40, 76
2, 37599, Note_on_c, 0, 63, 0
2, 37605, Note_on_c, 0, 68, 69
2, 37731, Note_on_c, 0, 59, 74
2, 37738, Note_on_c, 0, 68, 0
2, 37740, Note_on_c, 0, 40, 0
2, 37876, Note_on_c, 0, 59, 0
2, 37895, Note_on_c, 0, 37, 79
2, 37895, Note_on_c, 0, 58, 63
2, 38033, Note_on_c, 0, 58, 0
2, 38035, Note_on_c, 0, 68, 63
2, 38075, Note_on_c, 0, 37, 0
2, 38198, Note_on_c, 0, 68, 0
2, 38203, Note_on_c, 0, 58, 59
2, 38209, Note_on_c, 0, 39, 73
2, 38343, Note_on_c, 0, 58, 0
2, 38350, Note_on_c, 0, 39, 0
2, 38358, Note_on_c, 0, 67, 60
2, 38537, Note_on_c, 0, 67, 0
2, 38558, Note_on_c, 0, 68, 65
2, 38564, Note_on_c, 0, 44, 53
2, 38700, Note_on_c, 0, 59, 61
2, 38816, Note_on_c, 0, 68, 0
2, 38842, Note_on_c, 0, 59, 0
2, 38853, Note_on_c, 0, 61, 65
2, 38911, Note_on_c, 0, 44, 0
2, 38990, Note_on_c, 0, 61, 0
2, 39002, Note_on_c, 0, 63, 67
2, 39148, Note_on_c, 0, 63, 0
2, 39158, Note_on_c, 0, 56, 61
2, 39291, Note_on_c, 0, 51, 51
2, 39371, Note_on_c, 0, 56, 0
2, 39444, Note_on_c, 0, 53, 59
2, 39459, Note_on_c, 0, 51, 0
2, 39570, Note_on_c, 0, 53, 0
2, 39595, Note_on_c, 0, 55, 61
2, 39743, Note_on_c, 0, 55, 0
2, 39751, Note_on_c, 0, 56, 65
2, 39897, Note_on_c, 0, 58, 63
2, 39925, Note_on_c, 0, 56, 0
2, 40045, Note_on_c, 0, 59, 67
2, 40052, Note_on_c, 0, 58, 0
2, 40185, Note_on_c, 0, 61, 66
2, 40194, Note_on_c, 0, 59, 0
2, 40331, Note_on_c, 0, 61, 0
2, 40355, Note_on_c, 0, 59, 70
2, 40505, Note_on_c, 0, 58, 62
2, 40505, Note_on_c, 0, 59, 0
2, 40653, Note_on_c, 0, 56, 70
2, 40654, Note_on_c, 0, 58, 0
2, 40786, Note_on_c, 0, 54, 68
2, 40794, Note_on_c, 0, 56, 0
2, 40927, Note_on_c, 0, 37, 59
2, 40932, Note_on_c, 0, 54, 0
2, 40941, Note_on_c, 0, 53, 62
2, 41072, Note_on_c, 0, 53, 0
2, 41085, Note_on_c, 0, 56, 67
2, 41162, Note_on_c, 0, 37, 0
2, 41243, Note_on_c, 0, 58, 61
2, 41249, Note_on_c, 0, 56, 0
2, 41388, Note_on_c, 0, 58, 0
2, 41397, Note_on_c, 0, 59, 53
2, 41534, Note_on_c, 0, 49, 59
2, 41542, Note_on_c, 0, 59, 0
2, 41665, Note_on_c, 0, 49, 0
2, 41673, Note_on_c, 0, 51, 58
2, 41824, Note_on_c, 0, 53, 56
2, 41835, Note_on_c, 0, 51, 0
2, 41920, Note_on_c, 0, 53, 0
2, 41950, Note_on_c, 0, 54, 60
2, 42089, Note_on_c, 0, 54, 0
2, 42094, Note_on_c, 0, 56, 64
2, 42242, Note_on_c, 0, 58, 59
2, 42250, Note_on_c, 0, 56, 0
2, 42368, Note_on_c, 0, 58, 0
2, 42382, Note_on_c, 0, 59, 69
2, 42546, Note_on_c, 0, 61, 67
2, 42557, Note_on_c, 0, 59, 0
2, 42690, Note_on_c, 0, 63, 71
2, 42704, Note_on_c, 0, 61, 0
2, 42834, Note_on_c, 0, 65, 71
2, 42836, Note_on_c, 0, 63, 0
2, 42984, Note_on_c, 0, 66, 80
2, 42986, Note_on_c, 0, 65, 0
2, 43133, Note_on_c, 0, 68, 81
2, 43139, Note_on_c, 0, 66, 0
2, 43288, Note_on_c, 0, 42, 61
2, 43288, Note_on_c, 0, 70, 77
2, 43314, Note_on_c, 0, 68, 0
2, 43432, Note_on_c, 0, 66, 80
2, 43443, Note_on_c, 0, 70, 0
2, 43543, Note_on_c, 0, 42, 0
2, 43577, Note_on_c, 0, 66, 0
2, 43583, Note_on_c, 0, 65, 69
2, 43709, Note_on_c, 0, 65, 0
2, 43735, Note_on_c, 0, 63, 72
2, 43864, Note_on_c, 0, 63, 0
2, 43883, Note_on_c, 0, 61, 62
2, 44065, Note_on_c, 0, 61, 0
2, 44068, Note_on_c, 0, 59, 45
2, 44189, Note_on_c, 0, 59, 0
2, 44202, Note_on_c, 0, 58, 46
2, 44327, Note_on_c, 0, 56, 65
2, 44330, Note_on_c, 0, 58, 0
2, 44465, Note_on_c, 0, 54, 49
2, 44490, Note_on_c, 0, 56, 0
2, 44653, Note_on_c, 0, 57, 6
2, 44669, Note_on_c, 0, 54, 0
2, 44725, Note_on_c, 0, 57, 0
2, 44763, Note_on_c, 0, 58, 52
2, 44924, Note_on_c, 0, 59, 51
2, 44928, Note_on_c, 0, 58, 0
2, 45035, Note_on_c, 0, 59, 0
2, 45066, Note_on_c, 0, 58, 61
2, 45197, Note_on_c, 0, 56, 66
2, 45207, Note_on_c, 0, 58, 0
2, 45353, Note_on_c, 0, 54, 63
2, 45362, Note_on_c, 0, 56, 0
2, 45476, Note_on_c, 0, 54, 0
2, 45492, Note_on_c, 0, 52, 56
2, 45628, Note_on_c, 0, 52, 0
2, 45650, Note_on_c, 0, 51, 52
2, 45669, Note_on_c, 0, 35, 53
2, 45791, Note_on_c, 0, 51, 0
2, 45800, Note_on_c, 0, 54, 59
2, 45896, Note_on_c, 0, 35, 0
2, 45951, Note_on_c, 0, 56, 59
2, 45957, Note_on_c, 0, 54, 0
2, 46102, Note_on_c, 0, 56, 0
2, 46116, Note_on_c, 0, 57, 53
2, 46276, Note_on_c, 0, 47, 49
2, 46281, Note_on_c, 0, 57, 0
2, 46411, Note_on_c, 0, 47, 0
2, 46411, Note_on_c, 0, 49, 53
2, 46559, Note_on_c, 0, 49, 0
2, 46567, Note_on_c, 0, 51, 53
2, 46708, Note_on_c, 0, 52, 55
2, 46717, Note_on_c, 0, 51, 0
2, 46835, Note_on_c, 0, 52, 0
2, 46850, Note_on_c, 0, 54, 58
2, 46981, Note_on_c, 0, 54, 0
2, 46992, Note_on_c, 0, 56, 66
2, 47155, Note_on_c, 0, 57, 57
2, 47218, Note_on_c, 0, 56, 0
2, 47322, Note_on_c, 0, 59, 64
2, 47337, Note_on_c, 0, 57, 0
2, 47458, Note_on_c, 0, 61, 66
2, 47460, Note_on_c, 0, 59, 0
2, 47605, Note_on_c, 0, 63, 76
2, 47616, Note_on_c, 0, 61, 0
2, 47737, Note_on_c, 0, 63, 0
2, 47758, Note_on_c, 0, 64, 69
2, 47891, Note_on_c, 0, 64, 0
2, 47891, Note_on_c, 0, 66, 77
2, 48059, Note_on_c, 0, 68, 74
2, 48076, Note_on_c, 0, 40, 54
2, 48083, Note_on_c, 0, 66, 0
2, 48184, Note_on_c, 0, 68, 0
2, 48215, Note_on_c, 0, 64, 75
2, 48332, Note_on_c, 0, 64, 0
2, 48337, Note_on_c, 0, 40, 0
2, 48363, Note_on_c, 0, 63, 67
2, 48494, Note_on_c, 0, 63, 0
2, 48504, Note_on_c, 0, 61, 74
2, 48662, Note_on_c, 0, 59, 63
2, 48662, Note_on_c, 0, 61, 0
2, 48818, Note_on_c, 0, 57, 60
2, 48832, Note_on_c, 0, 59, 0
2, 48945, Note_on_c, 0, 57, 0
2, 48955, Note_on_c, 0, 56, 54
2, 49090, Note_on_c, 0, 56, 0
2, 49092, Note_on_c, 0, 54, 57
2, 49244, Note_on_c, 0, 54, 0
2, 49260, Note_on_c, 0, 52, 53
2, 49389, Note_on_c, 0, 63, 58
2, 49414, Note_on_c, 0, 52, 0
2, 49415, Note_on_c, 0, 54, 50
2, 49537, Note_on_c, 0, 54, 0
2, 49547, Note_on_c, 0, 56, 59
2, 49562, Note_on_c, 0, 64, 63
2, 49565, Note_on_c, 0, 63, 0
2, 49683, Note_on_c, 0, 56, 0
2, 49706, Note_on_c, 0, 57, 52
2, 49719, Note_on_c, 0, 64, 0
2, 49719, Note_on_c, 0, 66, 67
2, 49852, Note_on_c, 0, 56, 69
2, 49858, Note_on_c, 0, 57, 0
2, 49880, Note_on_c, 0, 64, 62
2, 49886, Note_on_c, 0, 66, 0
2, 49917, Note_on_c, 0, 65, 29
2, 49960, Note_on_c, 0, 65, 0
2, 49998, Note_on_c, 0, 56, 0
2, 50002, Note_on_c, 0, 54, 64
2, 50015, Note_on_c, 0, 63, 69
2, 50019, Note_on_c, 0, 64, 0
2, 50113, Note_on_c, 0, 54, 0
2, 50147, Note_on_c, 0, 52, 55
2, 50159, Note_on_c, 0, 63, 0
2, 50161, Note_on_c, 0, 61, 67
2, 50260, Note_on_c, 0, 52, 0
2, 50274, Note_on_c, 0, 61, 0
2, 50287, Note_on_c, 0, 51, 55
2, 50297, Note_on_c, 0, 59, 63
2, 50426, Note_on_c, 0, 51, 0
2, 50435, Note_on_c, 0, 59, 0
2, 50450, Note_on_c, 0, 58, 59
2, 50452, Note_on_c, 0, 49, 50
2, 50491, Note_on_c, 0, 42, 46
2, 50584, Note_on_c, 0, 58, 0
2, 50593, Note_on_c, 0, 61, 61
2, 50660, Note_on_c, 0, 42, 0
2, 50676, Note_on_c, 0, 49, 0
2, 50741, Note_on_c, 0, 61, 0
2, 50741, Note_on_c, 0, 63, 58
2, 50904, Note_on_c, 0, 64, 49
2, 50908, Note_on_c, 0, 63, 0
2, 51038, Note_on_c, 0, 54, 56
2, 51056, Note_on_c, 0, 64, 0
2, 51166, Note_on_c, 0, 54, 0
2, 51187, Note_on_c, 0, 56, 54
2, 51333, Note_on_c, 0, 56, 0
2, 51355, Note_on_c, 0, 58, 48
2, 51488, Note_on_c, 0, 59, 56
2, 51492, Note_on_c, 0, 58, 0
2, 51605, Note_on_c, 0, 59, 0
2, 51630, Note_on_c, 0, 61, 59
2, 51760, Note_on_c, 0, 61, 0
2, 51772, Note_on_c, 0, 63, 64
2, 51915, Note_on_c, 0, 64, 61
2, 51970, Note_on_c, 0, 63, 0
2, 52083, Note_on_c, 0, 66, 62
2, 52090, Note_on_c, 0, 64, 0
2, 52227, Note_on_c, 0, 68, 70
2, 52232, Note_on_c, 0, 66, 0
2, 52379, Note_on_c, 0, 70, 78
2, 52382, Note_on_c, 0, 68, 0
2, 52506, Note_on_c, 0, 70, 0
2, 52530, Note_on_c, 0, 71, 76
2, 52669, Note_on_c, 0, 71, 0
2, 52669, Note_on_c, 0, 73, 78
2, 52817, Note_on_c, 0, 75, 79
2, 52832, Note_on_c, 0, 73, 0
2, 52838, Note_on_c, 0, 47, 45
2, 52938, Note_on_c, 0, 75, 0
2, 52961, Note_on_c, 0, 71, 73
2, 53086, Note_on_c, 0, 47, 0
2, 53104, Note_on_c, 0, 70, 79
2, 53121, Note_on_c, 0, 71, 0
2, 53257, Note_on_c, 0, 68, 76
2, 53260, Note_on_c, 0, 70, 0
2, 53378, Note_on_c, 0, 68, 0
2, 53391, Note_on_c, 0, 66, 67
2, 53533, Note_on_c, 0, 64, 60
2, 53541, Note_on_c, 0, 66, 0
2, 53695, Note_on_c, 0, 63, 66
2, 53746, Note_on_c, 0, 64, 0
2, 53807, Note_on_c, 0, 61, 68
2, 53868, Note_on_c, 0, 63, 0
2, 53963, Note_on_c, 0, 61, 0
2, 53964, Note_on_c, 0, 59, 64
2, 54078, Note_on_c, 0, 59, 0
2, 54104, Note_on_c, 0, 63, 46
2, 54136, Note_on_c, 0, 75, 62
2, 54177, Note_on_c, 0, 75, 0
2, 54182, Note_on_c, 0, 76, 75
2, 54220, Note_on_c, 0, 63, 0
2, 54236, Note_on_c, 0, 54, 54
2, 54240, Note_on_c, 0, 78, 79
2, 54262, Note_on_c, 0, 76, 0
2, 54325, Note_on_c, 0, 78, 0
2, 54370, Note_on_c, 0, 63, 53
2, 54502, Note_on_c, 0, 63, 0
2, 54520, Note_on_c, 0, 59, 56
2, 54524, Note_on_c, 0, 76, 67
2, 54595, Note_on_c, 0, 54, 0
2, 54665, Note_on_c, 0, 75, 79
2, 54669, Note_on_c, 0, 76, 0
2, 54681, Note_on_c, 0, 63, 44
2, 54772, Note_on_c, 0, 75, 0
2, 54797, Note_on_c, 0, 63, 0
2, 54810, Note_on_c, 0, 73, 74
2, 54833, Note_on_c, 0, 54, 33
2, 54859, Note_on_c, 0, 59, 0
2, 54902, Note_on_c, 0, 73, 0
2, 54939, Note_on_c, 0, 71, 73
2, 54968, Note_on_c, 0, 63, 47
2, 55044, Note_on_c, 0, 63, 0
2, 55065, Note_on_c, 0, 54, 0
2, 55086, Note_on_c, 0, 56, 49
2, 55100, Note_on_c, 0, 71, 0
2, 55109, Note_on_c, 0, 83, 83
2, 55260, Note_on_c, 0, 59, 53
2, 55361, Note_on_c, 0, 59, 0
2, 55400, Note_on_c, 0, 51, 33
2, 55412, Note_on_c, 0, 56, 0
2, 55425, Note_on_c, 0, 80, 64
2, 55575, Note_on_c, 0, 59, 37
2, 55655, Note_on_c, 0, 80, 0
2, 55666, Note_on_c, 0, 59, 0
2, 55706, Note_on_c, 0, 56, 49
2, 55721, Note_on_c, 0, 75, 67
2, 55770, Note_on_c, 0, 51, 0
2, 55859, Note_on_c, 0, 59, 40
2, 55872, Note_on_c, 0, 56, 0
2, 55956, Note_on_c, 0, 75, 0
2, 55971, Note_on_c, 0, 59, 0
2, 55995, Note_on_c, 0, 51, 27
2, 55999, Note_on_c, 0, 78, 64
2, 56162, Note_on_c, 0, 59, 38
2, 56260, Note_on_c, 0, 59, 0
2, 56303, Note_on_c, 0, 78, 0
2, 56308, Note_on_c, 0, 56, 42
2, 56316, Note_on_c, 0, 51, 0
2, 56327, Note_on_c, 0, 77, 55
2, 56479, Note_on_c, 0, 61, 46
2, 56566, Note_on_c, 0, 61, 0
2, 56599, Note_on_c, 0, 80, 69
2, 56632, Note_on_c, 0, 53, 42
2, 56640, Note_on_c, 0, 83, 0
2, 56686, Note_on_c, 0, 77, 0
2, 56719, Note_on_c, 0, 56, 0
2, 56760, Note_on_c, 0, 80, 0
2, 56779, Note_on_c, 0, 61, 47
2, 56909, Note_on_c, 0, 61, 0
2, 56912, Note_on_c, 0, 56, 46
2, 56913, Note_on_c, 0, 78, 63
2, 56995, Note_on_c, 0, 53, 0
2, 57063, Note_on_c, 0, 77, 80
2, 57075, Note_on_c, 0, 61, 50
2, 57094, Note_on_c, 0, 78, 0
2, 57148, Note_on_c, 0, 61, 0
2, 57178, Note_on_c, 0, 77, 0
2, 57219, Note_on_c, 0, 75, 79
2, 57229, Note_on_c, 0, 53, 8
2, 57265, Note_on_c, 0, 56, 0
2, 57337, Note_on_c, 0, 75, 0
2, 57350, Note_on_c, 0, 61, 48
2, 57352, Note_on_c, 0, 73, 77
2, 57467, Note_on_c, 0, 61, 0
2, 57489, Note_on_c, 0, 73, 0
2, 57498, Note_on_c, 0, 54, 52
2, 57501, Note_on_c, 0, 53, 0
2, 57511, Note_on_c, 0, 82, 88
2, 57648, Note_on_c, 0, 54, 0
2, 57672, Note_on_c, 0, 58, 34
2, 57785, Note_on_c, 0, 58, 0
2, 57805, Note_on_c, 0, 49, 38
2, 57839, Note_on_c, 0, 78, 61
2, 57960, Note_on_c, 0, 58, 46
2, 58070, Note_on_c, 0, 78, 0
2, 58088, Note_on_c, 0, 58, 0
2, 58118, Note_on_c, 0, 54, 40
2, 58130, Note_on_c, 0, 73, 62
2, 58197, Note_on_c, 0, 49, 0
2, 58257, Note_on_c, 0, 58, 47
2, 58355, Note_on_c, 0, 58, 0
2, 58377, Note_on_c, 0, 49, 30
2, 58397, Note_on_c, 0, 54, 0
2, 58401, Note_on_c, 0, 73, 0
2, 58422, Note_on_c, 0, 76, 60
2, 58567, Note_on_c, 0, 58, 40
2, 58620, Note_on_c, 0, 49, 0
2, 58678, Note_on_c, 0, 58, 0
2, 58717, Note_on_c, 0, 54, 42
2, 58727, Note_on_c, 0, 76, 0
2, 58737, Note_on_c, 0, 75, 52
2, 58864, Note_on_c, 0, 54, 0
2, 58888, Note_on_c, 0, 59, 36
2, 58969, Note_on_c, 0, 59, 0
2, 58995, Note_on_c, 0, 82, 0
2, 59009, Note_on_c, 0, 75, 0
2, 59014, Note_on_c, 0, 51, 35
2, 59015, Note_on_c, 0, 78, 60
2, 59167, Note_on_c, 0, 78, 0
2, 59177, Note_on_c, 0, 59, 37
2, 59285, Note_on_c, 0, 59, 0
2, 59327, Note_on_c, 0, 51, 0
2, 59328, Note_on_c, 0, 76, 51
2, 59330, Note_on_c, 0, 54, 43
2, 59459, Note_on_c, 0, 76, 0
2, 59476, Note_on_c, 0, 75, 65
2, 59493, Note_on_c, 0, 59, 37
2, 59506, Note_on_c, 0, 54, 0
2, 59582, Note_on_c, 0, 59, 0
2, 59599, Note_on_c, 0, 75, 0
2, 59614, Note_on_c, 0, 73, 67
2, 59615, Note_on_c, 0, 51, 38
2, 59707, Note_on_c, 0, 73, 0
2, 59744, Note_on_c, 0, 71, 58
2, 59765, Note_on_c, 0, 59, 47
2, 59859, Note_on_c, 0, 59, 0
2, 59866, Note_on_c, 0, 51, 0
2, 59882, Note_on_c, 0, 71, 0
2, 59889, Note_on_c, 0, 77, 61
2, 59902, Note_on_c, 0, 56, 46
2, 60048, Note_on_c, 0, 78, 73
2, 60053, Note_on_c, 0, 77, 0
2, 60059, Note_on_c, 0, 61, 43
2, 60177, Note_on_c, 0, 61, 0
2, 60185, Note_on_c, 0, 78, 0
2, 60201, Note_on_c, 0, 80, 77
2, 60214, Note_on_c, 0, 53, 45
2, 60214, Note_on_c, 0, 56, 0
2, 60227, Note_on_c, 0, 71, 58
2, 60308, Note_on_c, 0, 71, 0
2, 60339, Note_on_c, 0, 70, 70
2, 60359, Note_on_c, 0, 61, 47
2, 60508, Note_on_c, 0, 53, 0
2, 60508, Note_on_c, 0, 56, 46
2, 60523, Note_on_c, 0, 71, 61
2, 60525, Note_on_c, 0, 61, 0
2, 60533, Note_on_c, 0, 70, 0
2, 60580, Control_c, 0, 64, 39
2, 60599, Control_c, 0, 64, 62
2, 60619, Control_c, 0, 64, 65
2, 60637, Control_c, 0, 64, 68
2, 60657, Control_c, 0, 64, 70
2, 60676, Control_c, 0, 64, 74
2, 60681, Note_on_c, 0, 61, 45
2, 60695, Control_c, 0, 64, 77
2, 60714, Control_c, 0, 64, 79
2, 60734, Control_c, 0, 64, 77
2, 60753, Control_c, 0, 64, 68
2, 60757, Note_on_c, 0, 61, 0
2, 60772, Control_c, 0, 64, 0
2, 60794, Note_on_c, 0, 53, 45
2, 60799, Note_on_c, 0, 73, 69
2, 60801, Note_on_c, 0, 80, 0
2, 60803, Note_on_c, 0, 56, 0
2, 60850, Note_on_c, 0, 71, 0
2, 60868, Control_c, 0, 64, 53
2, 60875, Note_on_c, 0, 53, 0
2, 60888, Control_c, 0, 64, 68
2, 60906, Control_c, 0, 64, 77
2, 60908, Note_on_c, 0, 73, 0
2, 60916, Note_on_c, 0, 61, 45
2, 60926, Control_c, 0, 64, 84
2, 60945, Control_c, 0, 64, 85
2, 60965, Control_c, 0, 64, 84
2, 61022, Control_c, 0, 64, 80
2, 61040, Control_c, 0, 64, 64
2, 61040, Note_on_c, 0, 61, 0
2, 61060, Control_c, 0, 64, 0
2, 61065, Note_on_c, 0, 79, 75
2, 61078, Note_on_c, 0, 58, 42
2, 61112, Note_on_c, 0, 80, 70
2, 61136, Note_on_c, 0, 79, 0
2, 61137, Control_c, 0, 64, 46
2, 61156, Control_c, 0, 64, 65
2, 61175, Control_c, 0, 64, 73
2, 61181, Note_on_c, 0, 82, 83
2, 61189, Note_on_c, 0, 80, 0
2, 61194, Control_c, 0, 64, 80
2, 61197, Note_on_c, 0, 63, 45
2, 61214, Control_c, 0, 64, 81
2, 61236, Note_on_c, 0, 82, 0
2, 61252, Control_c, 0, 64, 81
2, 61291, Control_c, 0, 64, 80
2, 61307, Note_on_c, 0, 58, 0
2, 61310, Control_c, 0, 64, 77
2, 61322, Note_on_c, 0, 63, 0
2, 61329, Control_c, 0, 64, 68
2, 61348, Control_c, 0, 64, 53
2, 61355, Note_on_c, 0, 55, 44
2, 61368, Control_c, 0, 64, 0
2, 61384, Note_on_c, 0, 70, 74
2, 61387, Note_on_c, 0, 73, 71
2, 61518, Note_on_c, 0, 70, 0
2, 61520, Note_on_c, 0, 68, 64
2, 61536, Note_on_c, 0, 63, 47
2, 61679, Note_on_c, 0, 68, 0
2, 61688, Note_on_c, 0, 70, 75
2, 61694, Note_on_c, 0, 63, 0
2, 61701, Note_on_c, 0, 58, 56
2, 61730, Note_on_c, 0, 55, 0
2, 61732, Control_c, 0, 64, 63
2, 61732, Note_on_c, 0, 70, 0
2, 61745, Note_on_c, 0, 73, 0
2, 61751, Control_c, 0, 64, 65
2, 61771, Control_c, 0, 64, 65
2, 61790, Control_c, 0, 64, 66
2, 61831, Note_on_c, 0, 63, 52
2, 61924, Control_c, 0, 64, 65
2, 61943, Control_c, 0, 64, 61
2, 61957, Note_on_c, 0, 63, 0
2, 61962, Control_c, 0, 64, 0
2, 61966, Note_on_c, 0, 58, 0
2, 61989, Note_on_c, 0, 55, 40
2, 61994, Note_on_c, 0, 82, 84
2, 62002, Note_on_c, 0, 73, 67
2, 62058, Control_c, 0, 64, 53
2, 62076, Control_c, 0, 64, 64
2, 62089, Note_on_c, 0, 73, 0
2, 62096, Control_c, 0, 64, 66
2, 62110, Note_on_c, 0, 82, 0
2, 62115, Control_c, 0, 64, 67
2, 62123, Note_on_c, 0, 63, 46
2, 62135, Control_c, 0, 64, 68
2, 62153, Control_c, 0, 64, 71
2, 62173, Control_c, 0, 64, 74
2, 62192, Control_c, 0, 64, 76
2, 62230, Control_c, 0, 64, 77
2, 62269, Control_c, 0, 64, 74
2, 62288, Control_c, 0, 64, 63
2, 62290, Note_on_c, 0, 63, 0
2, 62300, Note_on_c, 0, 59, 53
2, 62306, Note_on_c, 0, 73, 85
2, 62307, Control_c, 0, 64, 0
2, 62307, Note_on_c, 0, 82, 84
2, 62321, Note_on_c, 0, 55, 0
2, 62447, Note_on_c, 0, 63, 55
2, 62608, Note_on_c, 0, 56, 59
2, 62619, Note_on_c, 0, 71, 66
2, 62624, Note_on_c, 0, 80, 78
2, 62626, Note_on_c, 0, 63, 0
2, 62633, Control_c, 0, 64, 42
2, 62637, Note_on_c, 0, 73, 0
2, 62653, Control_c, 0, 64, 62
2, 62667, Note_on_c, 0, 71, 0
2, 62672, Control_c, 0, 64, 61
2, 62676, Note_on_c, 0, 82, 0
2, 62691, Control_c, 0, 64, 59
2, 62698, Note_on_c, 0, 59, 0
2, 62710, Control_c, 0, 64, 59
2, 62711, Note_on_c, 0, 80, 0
2, 62730, Control_c, 0, 64, 58
2, 62749, Control_c, 0, 64, 56
2, 62764, Note_on_c, 0, 63, 51
2, 62768, Control_c, 0, 64, 49
2, 62787, Control_c, 0, 64, 40
2, 62807, Control_c, 0, 64, 37
2, 62825, Control_c, 0, 64, 40
2, 62844, Control_c, 0, 64, 43
2, 62883, Control_c, 0, 64, 42
2, 62902, Control_c, 0, 64, 42
2, 62921, Control_c, 0, 64, 41
2, 62927, Note_on_c, 0, 59, 54
2, 62927, Note_on_c, 0, 63, 0
2, 62941, Control_c, 0, 64, 37
2, 62947, Note_on_c, 0, 80, 88
2, 62952, Note_on_c, 0, 75, 77
2, 62960, Control_c, 0, 64, 13
2, 62979, Control_c, 0, 64, 0
2, 62990, Note_on_c, 0, 56, 0
2, 63084, Note_on_c, 0, 63, 55
2, 63152, Control_c, 0, 64, 33
2, 63170, Note_on_c, 0, 75, 0
2, 63171, Control_c, 0, 64, 50
2, 63190, Control_c, 0, 64, 56
2, 63210, Control_c, 0, 64, 59
2, 63216, Note_on_c, 0, 56, 53
2, 63221, Note_on_c, 0, 63, 0
2, 63229, Control_c, 0, 64, 62
2, 63248, Control_c, 0, 64, 63
2, 63255, Note_on_c, 0, 78, 82
2, 63264, Note_on_c, 0, 75, 56
2, 63264, Note_on_c, 0, 80, 0
2, 63267, Control_c, 0, 64, 64
2, 63316, Note_on_c, 0, 59, 0
2, 63339, Note_on_c, 0, 75, 0
2, 63363, Control_c, 0, 64, 63
2, 63374, Note_on_c, 0, 78, 0
2, 63382, Control_c, 0, 64, 63
2, 63392, Note_on_c, 0, 63, 46
2, 63401, Control_c, 0, 64, 62
2, 63421, Control_c, 0, 64, 62
2, 63440, Control_c, 0, 64, 61
2, 63459, Control_c, 0, 64, 59
2, 63478, Control_c, 0, 64, 53
2, 63498, Control_c, 0, 64, 19
2, 63516, Control_c, 0, 64, 0
2, 63528, Note_on_c, 0, 63, 0
2, 63544, Note_on_c, 0, 80, 83
2, 63545, Note_on_c, 0, 60, 56
2, 63564, Note_on_c, 0, 75, 61
2, 63670, Control_c, 0, 64, 24
2, 63688, Note_on_c, 0, 63, 54
2, 63690, Control_c, 0, 64, 44
2, 63701, Note_on_c, 0, 80, 0
2, 63709, Control_c, 0, 64, 50
2, 63717, Note_on_c, 0, 56, 0
2, 63726, Note_on_c, 0, 78, 73
2, 63747, Control_c, 0, 64, 51
2, 63767, Control_c, 0, 64, 53
2, 63785, Control_c, 0, 64, 54
2, 63785, Note_on_c, 0, 78, 0
2, 63803, Note_on_c, 0, 63, 0
2, 63804, Control_c, 0, 64, 55
2, 63818, Note_on_c, 0, 80, 71
2, 63832, Note_on_c, 0, 57, 46
2, 63838, Note_on_c, 0, 60, 0
2, 63843, Control_c, 0, 64, 55
2, 63858, Note_on_c, 0, 80, 0
2, 63862, Control_c, 0, 64, 56
2, 63893, Note_on_c, 0, 78, 71
2, 63946, Control_c, 0, 64, 56
2, 63948, Note_on_c, 0, 78, 0
2, 63959, Note_on_c, 0, 80, 77
2, 63964, Control_c, 0, 64, 57
2, 63973, Note_on_c, 0, 63, 47
2, 63984, Control_c, 0, 64, 56
2, 64003, Control_c, 0, 64, 56
2, 64003, Note_on_c, 0, 80, 0
2, 64023, Control_c, 0, 64, 55
2, 64031, Note_on_c, 0, 78, 69
2, 64061, Control_c, 0, 64, 55
2, 64062, Note_on_c, 0, 63, 0
2, 64074, Note_on_c, 0, 60, 44
2, 64082, Note_on_c, 0, 75, 0
2, 64087, Note_on_c, 0, 78, 0
2, 64100, Control_c, 0, 64, 54
2, 64118, Control_c, 0, 64, 54
2, 64118, Note_on_c, 0, 80, 69
2, 64138, Control_c, 0, 64, 53
2, 64157, Control_c, 0, 64, 53
2, 64160, Note_on_c, 0, 57, 0
2, 64161, Note_on_c, 0, 80, 0
2, 64176, Control_c, 0, 64, 52
2, 64184, Note_on_c, 0, 78, 60
2, 64195, Control_c, 0, 64, 51
2, 64215, Control_c, 0, 64, 48
2, 64217, Note_on_c, 0, 63, 35
2, 64234, Control_c, 0, 64, 46
2, 64235, Note_on_c, 0, 78, 0
2, 64237, Note_on_c, 0, 80, 81
2, 64253, Control_c, 0, 64, 45
2, 64272, Control_c, 0, 64, 43
2, 64280, Note_on_c, 0, 80, 0
2, 64292, Control_c, 0, 64, 37
2, 64310, Control_c, 0, 64, 28
2, 64311, Note_on_c, 0, 63, 0
2, 64311, Note_on_c, 0, 78, 79
2, 64327, Note_on_c, 0, 57, 31
2, 64330, Control_c, 0, 64, 21
2, 64349, Control_c, 0, 64, 18
2, 64369, Control_c, 0, 64, 11
2, 64387, Control_c, 0, 64, 0
2, 64420, Note_on_c, 0, 77, 73
2, 64443, Note_on_c, 0, 78, 0
2, 64444, Control_c, 0, 64, 19
2, 64457, Control_c, 0, 64, 28
2, 64469, Note_on_c, 0, 60, 0
2, 64475, Control_c, 0, 64, 36
2, 64486, Note_on_c, 0, 63, 40
2, 64495, Control_c, 0, 64, 45
2, 64514, Control_c, 0, 64, 53
2, 64534, Control_c, 0, 64, 58
2, 64543, Note_on_c, 0, 77, 0
2, 64552, Control_c, 0, 64, 61
2, 64560, Note_on_c, 0, 78, 69
2, 64572, Control_c, 0, 64, 63
2, 64591, Control_c, 0, 64, 64
2, 64599, Note_on_c, 0, 78, 0
2, 64610, Control_c, 0, 64, 65
2, 64687, Control_c, 0, 64, 65
2, 64726, Control_c, 0, 64, 64
2, 64734, Note_on_c, 0, 58, 46
2, 64744, Note_on_c, 0, 77, 75
2, 64745, Control_c, 0, 64, 62
2, 64751, Note_on_c, 0, 57, 0
2, 64752, Note_on_c, 0, 63, 0
2, 64763, Control_c, 0, 64, 54
2, 64783, Control_c, 0, 64, 34
2, 64802, Control_c, 0, 64, 0
2, 64924, Note_on_c, 0, 75, 68
2, 65070, Note_on_c, 0, 74, 54
2, 65090, Note_on_c, 0, 75, 0
2, 65206, Note_on_c, 0, 74, 0
2, 65218, Note_on_c, 0, 72, 63
2, 65347, Note_on_c, 0, 72, 0
2, 65367, Note_on_c, 0, 74, 61
2, 65510, Note_on_c, 0, 74, 0
2, 65519, Note_on_c, 0, 70, 62
2, 65617, Note_on_c, 0, 58, 0
2, 65628, Control_c, 0, 64, 29
2, 65647, Control_c, 0, 64, 53
2, 65658, Note_on_c, 0, 70, 0
2, 65666, Control_c, 0, 64, 57
2, 65686, Control_c, 0, 64, 58
2, 65687, Note_on_c, 0, 71, 65
2, 65705, Control_c, 0, 64, 60
2, 65723, Control_c, 0, 64, 62
2, 65781, Control_c, 0, 64, 61
2, 65784, Note_on_c, 0, 71, 0
2, 65800, Control_c, 0, 64, 61
2, 65820, Control_c, 0, 64, 60
2, 65820, Note_on_c, 0, 68, 61
2, 65839, Control_c, 0, 64, 60
2, 65858, Control_c, 0, 64, 59
2, 65873, Note_on_c, 0, 77, 0
2, 65880, Control_c, 0, 64, 59
2, 65900, Control_c, 0, 64, 58
2, 65918, Control_c, 0, 64, 57
2, 65938, Control_c, 0, 64, 55
2, 65957, Control_c, 0, 64, 54
2, 65957, Note_on_c, 0, 68, 0
2, 65976, Control_c, 0, 64, 52
2, 65987, Note_on_c, 0, 65, 47
2, 65995, Control_c, 0, 64, 51
2, 66014, Control_c, 0, 64, 50
2, 66034, Control_c, 0, 64, 47
2, 66052, Control_c, 0, 64, 42
2, 66072, Control_c, 0, 64, 32
2, 66091, Control_c, 0, 64, 18
2, 66111, Control_c, 0, 64, 0
2, 66112, Note_on_c, 0, 65, 0
2, 66124, Note_on_c, 0, 51, 46
2, 66127, Note_on_c, 0, 66, 57
2, 66271, Note_on_c, 0, 53, 59
2, 66278, Note_on_c, 0, 51, 0
2, 66279, Note_on_c, 0, 68, 65
2, 66284, Note_on_c, 0, 66, 0
2, 66416, Note_on_c, 0, 54, 72
2, 66425, Note_on_c, 0, 53, 0
2, 66430, Note_on_c, 0, 70, 65
2, 66445, Note_on_c, 0, 68, 0
2, 66567, Note_on_c, 0, 54, 0
2, 66587, Note_on_c, 0, 53, 65
2, 66591, Note_on_c, 0, 68, 75
2, 66593, Note_on_c, 0, 70, 0
2, 66726, Note_on_c, 0, 68, 0
2, 66732, Note_on_c, 0, 66, 66
2, 66738, Note_on_c, 0, 51, 52
2, 66749, Note_on_c, 0, 53, 0
2, 66873, Note_on_c, 0, 66, 0
2, 66875, Note_on_c, 0, 51, 0
2, 66894, Note_on_c, 0, 65, 59
2, 66912, Note_on_c, 0, 50, 63
2, 67015, Note_on_c, 0, 65, 0
2, 67024, Note_on_c, 0, 50, 0
2, 67038, Note_on_c, 0, 48, 57
2, 67038, Note_on_c, 0, 63, 53
2, 67176, Note_on_c, 0, 63, 0
2, 67198, Note_on_c, 0, 48, 0
2, 67209, Note_on_c, 0, 62, 49
2, 67239, Note_on_c, 0, 46, 48
2, 67241, Note_on_c, 0, 53, 39
2, 67352, Note_on_c, 0, 62, 0
2, 67371, Note_on_c, 0, 65, 55
2, 67407, Note_on_c, 0, 46, 0
2, 67407, Note_on_c, 0, 53, 0
2, 67512, Note_on_c, 0, 65, 0
2, 67523, Note_on_c, 0, 66, 61
2, 67669, Note_on_c, 0, 68, 62
2, 67685, Note_on_c, 0, 66, 0
2, 67811, Note_on_c, 0, 68, 0
2, 67820, Note_on_c, 0, 58, 52
2, 67970, Note_on_c, 0, 58, 0
2, 67990, Note_on_c, 0, 60, 51
2, 68130, Note_on_c, 0, 60, 0
2, 68136, Note_on_c, 0, 62, 40
2, 68284, Note_on_c, 0, 63, 56
2, 68309, Note_on_c, 0, 62, 0
2, 68425, Note_on_c, 0, 63, 0
2, 68434, Note_on_c, 0, 65, 59
2, 68579, Note_on_c, 0, 66, 61
2, 68589, Note_on_c, 0, 65, 0
2, 68707, Note_on_c, 0, 68, 62
2, 68728, Note_on_c, 0, 66, 0
2, 68862, Note_on_c, 0, 70, 69
2, 68877, Note_on_c, 0, 68, 0
2, 69035, Note_on_c, 0, 72, 66
2, 69055, Note_on_c, 0, 70, 0
2, 69198, Note_on_c, 0, 74, 75
2, 69206, Note_on_c, 0, 72, 0
2, 69357, Note_on_c, 0, 74, 0
2, 69359, Note_on_c, 0, 75, 76
2, 69496, Note_on_c, 0, 77, 75
2, 69500, Note_on_c, 0, 75, 0
2, 69642, Note_on_c, 0, 51, 58
2, 69656, Note_on_c, 0, 77, 0
2, 69665, Note_on_c, 0, 78, 73
2, 69813, Control_c, 0, 64, 24
2, 69821, Note_on_c, 0, 75, 73
2, 69832, Control_c, 0, 64, 49
2, 69851, Control_c, 0, 64, 58
2, 69871, Control_c, 0, 64, 59
2, 69877, Note_on_c, 0, 51, 0
2, 69887, Note_on_c, 0, 78, 0
2, 69889, Control_c, 0, 64, 60
2, 69909, Control_c, 0, 64, 62
2, 69928, Control_c, 0, 64, 62
2, 69963, Note_on_c, 0, 70, 72
2, 69965, Note_on_c, 0, 75, 0
2, 69966, Control_c, 0, 64, 62
2, 69986, Control_c, 0, 64, 61
2, 70005, Control_c, 0, 64, 61
2, 70025, Control_c, 0, 64, 60
2, 70043, Control_c, 0, 64, 59
2, 70063, Control_c, 0, 64, 58
2, 70082, Control_c, 0, 64, 58
2, 70095, Note_on_c, 0, 70, 0
2, 70101, Control_c, 0, 64, 57
2, 70108, Note_on_c, 0, 66, 64
2, 70120, Control_c, 0, 64, 56
2, 70140, Control_c, 0, 64, 54
2, 70159, Control_c, 0, 64, 52
2, 70178, Control_c, 0, 64, 50
2, 70197, Control_c, 0, 64, 49
2, 70218, Control_c, 0, 64, 49
2, 70236, Control_c, 0, 64, 47
2, 70243, Note_on_c, 0, 66, 0
2, 70255, Control_c, 0, 64, 43
2, 70274, Note_on_c, 0, 63, 58
2, 70275, Control_c, 0, 64, 39
2, 70294, Control_c, 0, 64, 37
2, 70332, Control_c, 0, 64, 36
2, 70352, Control_c, 0, 64, 35
2, 70370, Control_c, 0, 64, 32
2, 70390, Control_c, 0, 64, 31
2, 70409, Control_c, 0, 64, 31
2, 70426, Note_on_c, 0, 61, 56
2, 70429, Control_c, 0, 64, 29
2, 70447, Control_c, 0, 64, 26
2, 70467, Control_c, 0, 64, 25
2, 70479, Note_on_c, 0, 63, 0
2, 70505, Control_c, 0, 64, 24
2, 70524, Control_c, 0, 64, 23
2, 70544, Control_c, 0, 64, 21
2, 70559, Note_on_c, 0, 60, 57
2, 70563, Control_c, 0, 64, 20
2, 70570, Note_on_c, 0, 61, 0
2, 70601, Control_c, 0, 64, 19
2, 70621, Control_c, 0, 64, 18
2, 70694, Note_on_c, 0, 60, 0
2, 70715, Note_on_c, 0, 58, 59
2, 70848, Note_on_c, 0, 58, 0
2, 70875, Note_on_c, 0, 60, 54
2, 70902, Note_on_c, 0, 56, 43
2, 71021, Note_on_c, 0, 60, 0
2, 71031, Note_on_c, 0, 63, 54
2, 71064, Control_c, 0, 64, 17
2, 71198, Note_on_c, 0, 68, 56
2, 71203, Note_on_c, 0, 63, 0
2, 71289, Note_on_c, 0, 56, 0
2, 71349, Note_on_c, 0, 72, 56
2, 71366, Note_on_c, 0, 68, 0
2, 71490, Note_on_c, 0, 72, 0
2, 71505, Note_on_c, 0, 75, 60
2, 71636, Note_on_c, 0, 75, 0
2, 71652, Note_on_c, 0, 78, 66
2, 71809, Note_on_c, 0, 78, 0
2, 71810, Control_c, 0, 64, 15
2, 71814, Note_on_c, 0, 76, 65
2, 71830, Control_c, 0, 64, 9
2, 71869, Control_c, 0, 64, 0
2, 71922, Note_on_c, 0, 76, 0
2, 71946, Note_on_c, 0, 75, 64
2, 72087, Note_on_c, 0, 75, 0
2, 72090, Note_on_c, 0, 56, 47
2, 72103, Note_on_c, 0, 49, 50
2, 72108, Note_on_c, 0, 76, 60
2, 72245, Note_on_c, 0, 76, 0
2, 72252, Control_c, 0, 64, 31
2, 72260, Note_on_c, 0, 73, 61
2, 72272, Control_c, 0, 64, 50
2, 72290, Control_c, 0, 64, 56
2, 72303, Note_on_c, 0, 49, 0
2, 72310, Control_c, 0, 64, 58
2, 72329, Control_c, 0, 64, 59
2, 72332, Note_on_c, 0, 56, 0
2, 72349, Control_c, 0, 64, 61
2, 72367, Control_c, 0, 64, 61
2, 72387, Control_c, 0, 64, 61
2, 72406, Control_c, 0, 64, 60
2, 72406, Note_on_c, 0, 73, 0
2, 72412, Note_on_c, 0, 68, 60
2, 72425, Control_c, 0, 64, 59
2, 72444, Control_c, 0, 64, 58
2, 72464, Control_c, 0, 64, 57
2, 72483, Control_c, 0, 64, 56
2, 72502, Control_c, 0, 64, 55
2, 72521, Control_c, 0, 64, 54
2, 72541, Control_c, 0, 64, 53
2, 72541, Note_on_c, 0, 68, 0
2, 72560, Control_c, 0, 64, 51
2, 72569, Note_on_c, 0, 64, 53
2, 72579, Control_c, 0, 64, 50
2, 72598, Control_c, 0, 64, 49
2, 72617, Control_c, 0, 64, 48
2, 72636, Control_c, 0, 64, 46
2, 72655, Control_c, 0, 64, 43
2, 72675, Control_c, 0, 64, 41
2, 72694, Control_c, 0, 64, 40
2, 72697, Note_on_c, 0, 64, 0
2, 72713, Control_c, 0, 64, 39
2, 72715, Note_on_c, 0, 61, 52
2, 72732, Control_c, 0, 64, 37
2, 72752, Control_c, 0, 64, 35
2, 72770, Control_c, 0, 64, 31
2, 72790, Control_c, 0, 64, 29
2, 72809, Control_c, 0, 64, 27
2, 72829, Control_c, 0, 64, 24
2, 72847, Control_c, 0, 64, 22
2, 72849, Note_on_c, 0, 59, 49
2, 72867, Control_c, 0, 64, 20
2, 72870, Note_on_c, 0, 61, 0
2, 72886, Control_c, 0, 64, 17
2, 72905, Control_c, 0, 64, 13
2, 72924, Control_c, 0, 64, 0
2, 73009, Note_on_c, 0, 59, 0
2, 73015, Note_on_c, 0, 58, 56
2, 73135, Note_on_c, 0, 58, 0
2, 73162, Note_on_c, 0, 56, 57
2, 73306, Note_on_c, 0, 56, 0
2, 73330, Note_on_c, 0, 58, 55
2, 73336, Note_on_c, 0, 54, 45
2, 73457, Note_on_c, 0, 58, 0
2, 73478, Note_on_c, 0, 61, 55
2, 73542, Note_on_c, 0, 54, 0
2, 73650, Note_on_c, 0, 66, 52
2, 73669, Note_on_c, 0, 61, 0
2, 73796, Note_on_c, 0, 70, 61
2, 73805, Note_on_c, 0, 66, 0
2, 73941, Note_on_c, 0, 70, 0
2, 73953, Note_on_c, 0, 73, 63
2, 74105, Note_on_c, 0, 73, 0
2, 74116, Note_on_c, 0, 76, 62
2, 74240, Note_on_c, 0, 76, 0
2, 74262, Note_on_c, 0, 75, 60
2, 74390, Note_on_c, 0, 75, 0
2, 74399, Note_on_c, 0, 73, 60
2, 74548, Note_on_c, 0, 73, 0
2, 74555, Note_on_c, 0, 54, 42
2, 74560, Note_on_c, 0, 75, 62
2, 74571, Note_on_c, 0, 47, 34
2, 74721, Note_on_c, 0, 75, 0
2, 74722, Note_on_c, 0, 71, 59
2, 74784, Note_on_c, 0, 47, 0
2, 74814, Note_on_c, 0, 54, 0
2, 74854, Note_on_c, 0, 71, 0
2, 74875, Note_on_c, 0, 66, 56
2, 75008, Note_on_c, 0, 66, 0
2, 75029, Note_on_c, 0, 63, 47
2, 75169, Note_on_c, 0, 59, 50
2, 75175, Note_on_c, 0, 63, 0
2, 75290, Note_on_c, 0, 59, 0
2, 75308, Note_on_c, 0, 57, 46
2, 75448, Note_on_c, 0, 57, 0
2, 75471, Note_on_c, 0, 56, 52
2, 75610, Note_on_c, 0, 56, 0
2, 75620, Note_on_c, 0, 54, 54
2, 75765, Note_on_c, 0, 54, 0
2, 75793, Note_on_c, 0, 56, 51
2, 75817, Note_on_c, 0, 53, 39
2, 75933, Note_on_c, 0, 56, 0
2, 75964, Note_on_c, 0, 59, 47
2, 76055, Note_on_c, 0, 53, 0
2, 76088, Note_on_c, 0, 59, 0
2, 76145, Note_on_c, 0, 62, 37
2, 76215, Note_on_c, 0, 62, 0
2, 76250, Note_on_c, 0, 65, 51
2, 76386, Note_on_c, 0, 65, 0
2, 76400, Note_on_c, 0, 68, 57
2, 76528, Note_on_c, 0, 68, 0
2, 76545, Note_on_c, 0, 71, 64
2, 76677, Note_on_c, 0, 71, 0
2, 76694, Note_on_c, 0, 70, 67
2, 76822, Note_on_c, 0, 70, 0
2, 76833, Note_on_c, 0, 68, 69
2, 76981, Note_on_c, 0, 68, 0
2, 76993, Note_on_c, 0, 70, 61
2, 77004, Note_on_c, 0, 54, 54
2, 77069, Note_on_c, 0, 54, 0
2, 77117, Note_on_c, 0, 70, 0
2, 77136, Note_on_c, 0, 63, 60
2, 77263, Note_on_c, 0, 63, 0
2, 77286, Note_on_c, 0, 64, 58
2, 77298, Note_on_c, 0, 42, 47
2, 77395, Note_on_c, 0, 64, 0
2, 77414, Note_on_c, 0, 42, 0
2, 77422, Note_on_c, 0, 73, 64
2, 77568, Note_on_c, 0, 73, 0
2, 77582, Note_on_c, 0, 70, 62
2, 77601, Note_on_c, 0, 46, 51
2, 77660, Note_on_c, 0, 46, 0
2, 77701, Note_on_c, 0, 70, 0
2, 77719, Note_on_c, 0, 73, 62
2, 77856, Note_on_c, 0, 73, 0
2, 77869, Note_on_c, 0, 49, 58
2, 77874, Note_on_c, 0, 64, 60
2, 77937, Note_on_c, 0, 49, 0
2, 77992, Note_on_c, 0, 64, 0
2, 78005, Note_on_c, 0, 73, 66
2, 78163, Note_on_c, 0, 70, 67
2, 78173, Note_on_c, 0, 73, 0
2, 78174, Note_on_c, 0, 54, 60
2, 78229, Note_on_c, 0, 54, 0
2, 78297, Note_on_c, 0, 63, 62
2, 78304, Note_on_c, 0, 70, 0
2, 78441, Note_on_c, 0, 63, 0
2, 78465, Note_on_c, 0, 58, 68
2, 78466, Note_on_c, 0, 64, 62
2, 78547, Note_on_c, 0, 58, 0
2, 78577, Note_on_c, 0, 64, 0
2, 78590, Note_on_c, 0, 73, 61
2, 78726, Note_on_c, 0, 73, 0
2, 78732, Note_on_c, 0, 70, 69
2, 78758, Note_on_c, 0, 61, 70
2, 78872, Note_on_c, 0, 70, 0
2, 78878, Note_on_c, 0, 73, 67
2, 78882, Note_on_c, 0, 61, 0
2, 79024, Note_on_c, 0, 73, 0
2, 79045, Note_on_c, 0, 58, 73
2, 79047, Note_on_c, 0, 64, 70
2, 79116, Note_on_c, 0, 58, 0
2, 79165, Note_on_c, 0, 64, 0
2, 79182, Note_on_c, 0, 73, 71
2, 79315, Note_on_c, 0, 73, 0
2, 79344, Note_on_c, 0, 66, 67
2, 79349, Note_on_c, 0, 59, 75
2, 79463, Note_on_c, 0, 59, 0
2, 79471, Note_on_c, 0, 61, 62
2, 79471, Note_on_c, 0, 66, 0
2, 79594, Note_on_c, 0, 61, 0
2, 79632, Note_on_c, 0, 54, 63
2, 79634, Note_on_c, 0, 62, 60
2, 79731, Note_on_c, 0, 54, 0
2, 79737, Note_on_c, 0, 62, 0
2, 79754, Note_on_c, 0, 73, 67
2, 79907, Note_on_c, 0, 73, 0
2, 79908, Note_on_c, 0, 66, 67
2, 79916, Note_on_c, 0, 50, 65
2, 79969, Note_on_c, 0, 50, 0
2, 80043, Note_on_c, 0, 66, 0
2, 80045, Note_on_c, 0, 73, 72
2, 80143, Control_c, 0, 64, 9
2, 80162, Control_c, 0, 64, 11
2, 80191, Note_on_c, 0, 54, 70
2, 80200, Control_c, 0, 64, 13
2, 80210, Note_on_c, 0, 62, 63
2, 80210, Note_on_c, 0, 73, 0
2, 80220, Control_c, 0, 64, 15
2, 80260, Control_c, 0, 64, 17
2, 80274, Note_on_c, 0, 54, 0
2, 80279, Control_c, 0, 64, 18
2, 80317, Control_c, 0, 64, 19
2, 80317, Note_on_c, 0, 62, 0
2, 80336, Control_c, 0, 64, 20
2, 80346, Note_on_c, 0, 73, 70
2, 80356, Control_c, 0, 64, 21
2, 80374, Control_c, 0, 64, 22
2, 80433, Control_c, 0, 64, 23
2, 80484, Note_on_c, 0, 73, 0
2, 80501, Note_on_c, 0, 50, 63
2, 80504, Note_on_c, 0, 66, 65
2, 80586, Control_c, 0, 64, 24
2, 80610, Note_on_c, 0, 50, 0
2, 80638, Note_on_c, 0, 66, 0
2, 80651, Note_on_c, 0, 61, 54
2, 80765, Note_on_c, 0, 61, 0
2, 80792, Note_on_c, 0, 47, 58
2, 80792, Note_on_c, 0, 62, 56
2, 80857, Note_on_c, 0, 47, 0
2, 80891, Note_on_c, 0, 62, 0
2, 80918, Note_on_c, 0, 71, 61
2, 80929, Control_c, 0, 64, 23
2, 80987, Control_c, 0, 64, 22
2, 81044, Control_c, 0, 64, 21
2, 81050, Note_on_c, 0, 71, 0
2, 81067, Note_on_c, 0, 50, 67
2, 81078, Note_on_c, 0, 66, 59
2, 81082, Control_c, 0, 64, 20
2, 81102, Control_c, 0, 64, 19
2, 81121, Control_c, 0, 64, 18
2, 81169, Note_on_c, 0, 50, 0
2, 81178, Control_c, 0, 64, 17
2, 81203, Note_on_c, 0, 66, 0
2, 81212, Note_on_c, 0, 71, 61
2, 81216, Control_c, 0, 64, 15
2, 81236, Control_c, 0, 64, 11
2, 81255, Control_c, 0, 64, 0
2, 81334, Note_on_c, 0, 71, 0
2, 81350, Note_on_c, 0, 54, 60
2, 81360, Note_on_c, 0, 62, 61
2, 81402, Note_on_c, 0, 54, 0
2, 81447, Control_c, 0, 64, 48
2, 81462, Note_on_c, 0, 62, 0
2, 81467, Control_c, 0, 64, 57
2, 81485, Control_c, 0, 64, 59
2, 81489, Note_on_c, 0, 71, 64
2, 81505, Control_c, 0, 64, 60
2, 81524, Control_c, 0, 64, 61
2, 81563, Note_on_c, 0, 71, 0
2, 81601, Control_c, 0, 64, 60
2, 81619, Control_c, 0, 64, 59
2, 81639, Control_c, 0, 64, 51
2, 81658, Control_c, 0, 64, 29
2, 81659, Note_on_c, 0, 42, 65
2, 81674, Note_on_c, 0, 62, 58
2, 81678, Control_c, 0, 64, 0
2, 81725, Note_on_c, 0, 42, 0
2, 81735, Control_c, 0, 64, 37
2, 81755, Control_c, 0, 64, 54
2, 81773, Control_c, 0, 64, 56
2, 81792, Note_on_c, 0, 62, 0
2, 81815, Note_on_c, 0, 58, 63
2, 81831, Control_c, 0, 64, 56
2, 81850, Control_c, 0, 64, 55
2, 81870, Control_c, 0, 64, 54
2, 81889, Control_c, 0, 64, 47
2, 81908, Control_c, 0, 64, 36
2, 81927, Control_c, 0, 64, 21
2, 81928, Note_on_c, 0, 58, 0
2, 81947, Control_c, 0, 64, 0
2, 81964, Note_on_c, 0, 59, 57
2, 81965, Note_on_c, 0, 56, 68
2, 81972, Note_on_c, 0, 42, 54
2, 82004, Control_c, 0, 64, 23
2, 82024, Control_c, 0, 64, 35
2, 82042, Control_c, 0, 64, 41
2, 82058, Note_on_c, 0, 42, 0
2, 82062, Control_c, 0, 64, 47
2, 82067, Note_on_c, 0, 56, 0
2, 82070, Note_on_c, 0, 59, 0
2, 82081, Control_c, 0, 64, 52
2, 82095, Note_on_c, 0, 65, 53
2, 82099, Control_c, 0, 64, 54
2, 82119, Control_c, 0, 64, 54
2, 82177, Control_c, 0, 64, 54
2, 82197, Control_c, 0, 64, 49
2, 82216, Control_c, 0, 64, 28
2, 82224, Note_on_c, 0, 65, 0
2, 82235, Control_c, 0, 64, 0
2, 82259, Note_on_c, 0, 62, 58
2, 82261, Note_on_c, 0, 56, 66
2, 82267, Note_on_c, 0, 42, 58
2, 82369, Note_on_c, 0, 42, 0
2, 82369, Note_on_c, 0, 56, 0
2, 82370, Control_c, 0, 64, 28
2, 82377, Note_on_c, 0, 62, 0
2, 82386, Note_on_c, 0, 65, 63
2, 82389, Control_c, 0, 64, 48
2, 82408, Control_c, 0, 64, 53
2, 82446, Control_c, 0, 64, 53
2, 82466, Control_c, 0, 64, 54
2, 82485, Control_c, 0, 64, 54
2, 82505, Control_c, 0, 64, 46
2, 82523, Control_c, 0, 64, 11
2, 82529, Note_on_c, 0, 65, 0
2, 82542, Note_on_c, 0, 56, 70
2, 82543, Control_c, 0, 64, 0
2, 82548, Note_on_c, 0, 42, 63
2, 82550, Note_on_c, 0, 59, 58
2, 82657, Control_c, 0, 64, 9
2, 82659, Note_on_c, 0, 59, 0
2, 82661, Note_on_c, 0, 42, 0
2, 82672, Note_on_c, 0, 56, 0
2, 82677, Control_c, 0, 64, 39
2, 82682, Note_on_c, 0, 65, 63
2, 82695, Control_c, 0, 64, 49
2, 82715, Control_c, 0, 64, 50
2, 82733, Control_c, 0, 64, 50
2, 82772, Control_c, 0, 64, 49
2, 82791, Control_c, 0, 64, 45
2, 82810, Control_c, 0, 64, 26
2, 82824, Note_on_c, 0, 56, 73
2, 82830, Control_c, 0, 64, 0
2, 82832, Note_on_c, 0, 42, 67
2, 82835, Note_on_c, 0, 65, 0
2, 82852, Note_on_c, 0, 62, 65
2, 82945, Control_c, 0, 64, 15
2, 82964, Control_c, 0, 64, 25
2, 82967, Note_on_c, 0, 42, 0
2, 82979, Note_on_c, 0, 56, 0
2, 82984, Control_c, 0, 64, 37
2, 82985, Note_on_c, 0, 58, 65
2, 82998, Note_on_c, 0, 62, 0
2, 83002, Control_c, 0, 64, 47
2, 83022, Control_c, 0, 64, 51
2, 83059, Control_c, 0, 64, 50
2, 83079, Control_c, 0, 64, 46
2, 83098, Control_c, 0, 64, 35
2, 83118, Control_c, 0, 64, 0
2, 83118, Note_on_c, 0, 58, 0
2, 83124, Note_on_c, 0, 56, 79
2, 83136, Note_on_c, 0, 42, 66
2, 83143, Note_on_c, 0, 59, 72
2, 83261, Note_on_c, 0, 59, 0
2, 83270, Note_on_c, 0, 42, 0
2, 83282, Note_on_c, 0, 56, 0
2, 83285, Note_on_c, 0, 65, 71
2, 83294, Control_c, 0, 64, 29
2, 83314, Control_c, 0, 64, 44
2, 83332, Control_c, 0, 64, 51
2, 83390, Control_c, 0, 64, 51
2, 83409, Control_c, 0, 64, 44
2, 83429, Control_c, 0, 64, 20
2, 83435, Note_on_c, 0, 56, 80
2, 83439, Note_on_c, 0, 65, 0
2, 83440, Note_on_c, 0, 42, 71
2, 83448, Control_c, 0, 64, 0
2, 83448, Note_on_c, 0, 62, 70
2, 83543, Note_on_c, 0, 42, 0
2, 83567, Note_on_c, 0, 56, 0
2, 83567, Note_on_c, 0, 62, 0
2, 83575, Note_on_c, 0, 65, 74
2, 83601, Control_c, 0, 64, 21
2, 83640, Control_c, 0, 64, 11
2, 83656, Control_c, 0, 64, 0
2, 83707, Note_on_c, 0, 65, 0
2, 83717, Note_on_c, 0, 56, 76
2, 83723, Note_on_c, 0, 42, 62
2, 83727, Note_on_c, 0, 59, 75
2, 83765, Note_on_c, 0, 56, 0
2, 83778, Note_on_c, 0, 42, 0
2, 83854, Note_on_c, 0, 59, 0
2, 83861, Note_on_c, 0, 65, 69
2, 84037, Note_on_c, 0, 65, 0
2, 84043, Note_on_c, 0, 62, 79
2, 84053, Note_on_c, 0, 54, 73
2, 84068, Note_on_c, 0, 42, 61
2, 84174, Control_c, 0, 64, 39
2, 84194, Control_c, 0, 64, 44
2, 84213, Control_c, 0, 64, 46
2, 84229, Note_on_c, 0, 58, 59
2, 84232, Control_c, 0, 64, 50
2, 84251, Control_c, 0, 64, 52
2, 84290, Control_c, 0, 64, 51
2, 84309, Control_c, 0, 64, 49
2, 84317, Note_on_c, 0, 58, 0
2, 84328, Control_c, 0, 64, 49
2, 84348, Control_c, 0, 64, 47
2, 84355, Note_on_c, 0, 59, 64
2, 84366, Control_c, 0, 64, 45
2, 84386, Control_c, 0, 64, 44
2, 84443, Control_c, 0, 64, 43
2, 84463, Control_c, 0, 64, 42
2, 84482, Control_c, 0, 64, 41
2, 84482, Note_on_c, 0, 62, 0
2, 84486, Note_on_c, 0, 66, 72
2, 84520, Control_c, 0, 64, 41
2, 84539, Control_c, 0, 64, 36
2, 84559, Control_c, 0, 64, 0
2, 84619, Note_on_c, 0, 66, 0
2, 84633, Note_on_c, 0, 61, 74
2, 84635, Note_on_c, 0, 58, 64
2, 84635, Note_on_c, 0, 59, 0
2, 84710, Control_c, 0, 64, 31
2, 84729, Control_c, 0, 64, 51
2, 84734, Note_on_c, 0, 58, 0
2, 84749, Control_c, 0, 64, 55
2, 84783, Note_on_c, 0, 66, 58
2, 84787, Control_c, 0, 64, 56
2, 84883, Control_c, 0, 64, 53
2, 84902, Note_on_c, 0, 66, 0
2, 84903, Control_c, 0, 64, 27
2, 84915, Note_on_c, 0, 61, 0
2, 84921, Control_c, 0, 64, 0
2, 84922, Note_on_c, 0, 59, 73
2, 84938, Note_on_c, 0, 56, 62
2, 84998, Control_c, 0, 64, 23
2, 85017, Control_c, 0, 64, 52
2, 85037, Control_c, 0, 64, 57
2, 85040, Note_on_c, 0, 59, 0
2, 85085, Note_on_c, 0, 65, 70
2, 85115, Control_c, 0, 64, 57
2, 85122, Note_on_c, 0, 56, 0
2, 85134, Control_c, 0, 64, 56
2, 85149, Note_on_c, 0, 54, 0
2, 85154, Control_c, 0, 64, 55
2, 85173, Control_c, 0, 64, 47
2, 85192, Control_c, 0, 64, 15
2, 85211, Control_c, 0, 64, 0
2, 85228, Note_on_c, 0, 65, 0
2, 85238, Note_on_c, 0, 66, 72
2, 85240, Note_on_c, 0, 58, 67
2, 85252, Note_on_c, 0, 61, 56
2, 85395, Note_on_c, 0, 44, 56
2, 85428, Note_on_c, 0, 42, 0
2, 85526, Note_on_c, 0, 46, 70
2, 85536, Note_on_c, 0, 44, 0
2, 85627, Note_on_c, 0, 58, 0
2, 85666, Note_on_c, 0, 46, 0
2, 85673, Note_on_c, 0, 47, 71
2, 85736, Note_on_c, 0, 61, 0
2, 85745, Note_on_c, 0, 66, 0
2, 85814, Note_on_c, 0, 49, 78
2, 85838, Note_on_c, 0, 47, 0
2, 85962, Note_on_c, 0, 51, 78
2, 85990, Note_on_c, 0, 49, 0
2, 86109, Note_on_c, 0, 51, 0
2, 86113, Note_on_c, 0, 52, 72
2, 86238, Note_on_c, 0, 49, 77
2, 86262, Note_on_c, 0, 52, 0
2, 86390, Note_on_c, 0, 51, 69
2, 86404, Note_on_c, 0, 49, 0
2, 86527, Note_on_c, 0, 51, 0
2, 86547, Note_on_c, 0, 47, 58
2, 86548, Note_on_c, 0, 71, 71
2, 86688, Note_on_c, 0, 47, 0
2, 86690, Note_on_c, 0, 49, 61
2, 86693, Note_on_c, 0, 70, 69
2, 86698, Note_on_c, 0, 71, 0
2, 86828, Note_on_c, 0, 51, 64
2, 86829, Note_on_c, 0, 68, 77
2, 86831, Note_on_c, 0, 49, 0
2, 86857, Note_on_c, 0, 70, 0
2, 86961, Note_on_c, 0, 51, 0
2, 86974, Note_on_c, 0, 66, 72
2, 86983, Note_on_c, 0, 68, 0
2, 86990, Note_on_c, 0, 52, 63
2, 87099, Note_on_c, 0, 66, 0
2, 87113, Note_on_c, 0, 54, 66
2, 87115, Note_on_c, 0, 64, 68
2, 87119, Note_on_c, 0, 52, 0
2, 87245, Note_on_c, 0, 64, 0
2, 87247, Note_on_c, 0, 54, 0
2, 87254, Note_on_c, 0, 56, 72
2, 87259, Note_on_c, 0, 63, 66
2, 87382, Note_on_c, 0, 63, 0
2, 87384, Note_on_c, 0, 61, 60
2, 87395, Note_on_c, 0, 58, 69
2, 87396, Note_on_c, 0, 56, 0
2, 87477, Control_c, 0, 64, 41
2, 87495, Control_c, 0, 64, 65
2, 87515, Control_c, 0, 64, 63
2, 87533, Control_c, 0, 64, 63
2, 87537, Note_on_c, 0, 58, 0
2, 87542, Note_on_c, 0, 63, 64
2, 87544, Note_on_c, 0, 61, 0
2, 87546, Note_on_c, 0, 59, 73
2, 87553, Control_c, 0, 64, 64
2, 87572, Control_c, 0, 64, 63
2, 87588, Note_on_c, 0, 63, 0
2, 87591, Control_c, 0, 64, 53
2, 87610, Control_c, 0, 64, 0
2, 87725, Note_on_c, 0, 69, 30
2, 87728, Note_on_c, 0, 71, 56
2, 87794, Note_on_c, 0, 59, 0
2, 87839, Note_on_c, 0, 69, 0
2, 87839, Note_on_c, 0, 73, 71
2, 87844, Note_on_c, 0, 71, 0
2, 87982, Note_on_c, 0, 75, 80
2, 87996, Note_on_c, 0, 73, 0
2, 88111, Note_on_c, 0, 75, 0
2, 88126, Note_on_c, 0, 76, 74
2, 88140, Note_on_c, 0, 63, 58
2, 88205, Note_on_c, 0, 61, 65
2, 88206, Note_on_c, 0, 63, 0
2, 88244, Note_on_c, 0, 61, 0
2, 88267, Note_on_c, 0, 78, 75
2, 88298, Note_on_c, 0, 76, 0
2, 88305, Note_on_c, 0, 63, 61
2, 88335, Note_on_c, 0, 61, 55
2, 88408, Note_on_c, 0, 80, 82
2, 88428, Note_on_c, 0, 63, 0
2, 88441, Note_on_c, 0, 78, 0
2, 88459, Note_on_c, 0, 59, 66
2, 88459, Note_on_c, 0, 61, 0
2, 88553, Note_on_c, 0, 59, 0
2, 88555, Note_on_c, 0, 61, 66
2, 88557, Note_on_c, 0, 82, 82
2, 88576, Note_on_c, 0, 80, 0
2, 88682, Note_on_c, 0, 61, 0
2, 88711, Note_on_c, 0, 63, 67
2, 88712, Note_on_c, 0, 83, 80
2, 88721, Note_on_c, 0, 82, 0
2, 88859, Note_on_c, 0, 78, 78
2, 88917, Control_c, 0, 64, 28
2, 88936, Control_c, 0, 64, 46
2, 88947, Note_on_c, 0, 83, 0
2, 88955, Control_c, 0, 64, 48
2, 88979, Note_on_c, 0, 63, 0
2, 89008, Note_on_c, 0, 75, 84
2, 89032, Control_c, 0, 64, 47
2, 89035, Note_on_c, 0, 78, 0
2, 89051, Control_c, 0, 64, 46
2, 89071, Control_c, 0, 64, 45
2, 89109, Control_c, 0, 64, 45
2, 89128, Control_c, 0, 64, 44
2, 89136, Note_on_c, 0, 71, 81
2, 89139, Note_on_c, 0, 75, 0
2, 89148, Control_c, 0, 64, 44
2, 89166, Control_c, 0, 64, 43
2, 89186, Control_c, 0, 64, 43
2, 89205, Control_c, 0, 64, 42
2, 89243, Control_c, 0, 64, 41
2, 89282, Control_c, 0, 64, 39
2, 89288, Note_on_c, 0, 66, 61
2, 89288, Note_on_c, 0, 73, 80
2, 89300, Control_c, 0, 64, 37
2, 89307, Note_on_c, 0, 71, 0
2, 89320, Control_c, 0, 64, 36
2, 89339, Control_c, 0, 64, 35
2, 89351, Note_on_c, 0, 66, 0
2, 89358, Note_on_c, 0, 65, 59
2, 89397, Control_c, 0, 64, 36
2, 89402, Note_on_c, 0, 65, 0
2, 89415, Note_on_c, 0, 73, 0
2, 89416, Control_c, 0, 64, 37
2, 89435, Control_c, 0, 64, 37
2, 89435, Note_on_c, 0, 83, 71
2, 89450, Note_on_c, 0, 66, 69
2, 89510, Note_on_c, 0, 65, 64
2, 89512, Control_c, 0, 64, 36
2, 89523, Note_on_c, 0, 66, 0
2, 89531, Control_c, 0, 64, 36
2, 89551, Control_c, 0, 64, 35
2, 89571, Note_on_c, 0, 83, 0
2, 89584, Note_on_c, 0, 81, 77
2, 89589, Control_c, 0, 64, 35
2, 89612, Note_on_c, 0, 65, 0
2, 89625, Note_on_c, 0, 63, 65
2, 89646, Control_c, 0, 64, 34
2, 89685, Control_c, 0, 64, 34
2, 89705, Control_c, 0, 64, 33
2, 89730, Note_on_c, 0, 63, 0
2, 89730, Note_on_c, 0, 80, 80
2, 89730, Note_on_c, 0, 81, 0
2, 89732, Note_on_c, 0, 65, 57
2, 89743, Control_c, 0, 64, 32
2, 89762, Control_c, 0, 64, 32
2, 89780, Control_c, 0, 64, 31
2, 89800, Control_c, 0, 64, 31
2, 89819, Control_c, 0, 64, 30
2, 89831, Note_on_c, 0, 65, 0
2, 89857, Control_c, 0, 64, 29
2, 89877, Control_c, 0, 64, 26
2, 89879, Note_on_c, 0, 66, 70
2, 89890, Note_on_c, 0, 81, 78
2, 89896, Control_c, 0, 64, 20
2, 89908, Note_on_c, 0, 80, 0
2, 89915, Control_c, 0, 64, 15
2, 89934, Control_c, 0, 64, 13
2, 89954, Control_c, 0, 64, 11
2, 89979, Note_on_c, 0, 81, 0
2, 90029, Note_on_c, 0, 66, 0
2, 90035, Note_on_c, 0, 64, 44
2, 90043, Note_on_c, 0, 65, 42
2, 90109, Note_on_c, 0, 65, 0
2, 90126, Control_c, 0, 64, 9
2, 90171, Note_on_c, 0, 78, 76
2, 90185, Note_on_c, 0, 64, 0
2, 90191, Note_on_c, 0, 63, 66
2, 90245, Note_on_c, 0, 78, 0
2, 90299, Control_c, 0, 64, 0
2, 90327, Note_on_c, 0, 61, 67
2, 90343, Note_on_c, 0, 63, 0
2, 90445, Note_on_c, 0, 61, 0
2, 90470, Note_on_c, 0, 75, 71
2, 90486, Note_on_c, 0, 59, 61
2, 90601, Note_on_c, 0, 75, 0
2, 90630, Note_on_c, 0, 57, 66
2, 90653, Note_on_c, 0, 59, 0
2, 90767, Note_on_c, 0, 81, 80
2, 90773, Note_on_c, 0, 56, 63
2, 90799, Note_on_c, 0, 57, 0
2, 90837, Note_on_c, 0, 81, 0
2, 90911, Note_on_c, 0, 54, 63
2, 90914, Note_on_c, 0, 56, 0
2, 91065, Note_on_c, 0, 80, 77
2, 91072, Note_on_c, 0, 52, 61
2, 91102, Note_on_c, 0, 54, 0
2, 91146, Note_on_c, 0, 52, 0
2, 91216, Note_on_c, 0, 76, 68
2, 91252, Note_on_c, 0, 80, 0
2, 91362, Note_on_c, 0, 63, 67
2, 91365, Note_on_c, 0, 71, 68
2, 91369, Note_on_c, 0, 76, 0
2, 91404, Note_on_c, 0, 63, 0
2, 91483, Note_on_c, 0, 71, 0
2, 91497, Note_on_c, 0, 68, 75
2, 91661, Note_on_c, 0, 70, 77
2, 91666, Note_on_c, 0, 61, 54
2, 91666, Note_on_c, 0, 68, 0
2, 91743, Note_on_c, 0, 61, 0
2, 91792, Note_on_c, 0, 70, 0
2, 91804, Note_on_c, 0, 80, 78
2, 91941, Note_on_c, 0, 58, 44
2, 91955, Note_on_c, 0, 78, 73
2, 91981, Note_on_c, 0, 80, 0
2, 91997, Note_on_c, 0, 58, 0
2, 92088, Note_on_c, 0, 76, 72
2, 92115, Note_on_c, 0, 78, 0
2, 92258, Note_on_c, 0, 63, 55
2, 92259, Note_on_c, 0, 78, 71
2, 92278, Note_on_c, 0, 76, 0
2, 92355, Note_on_c, 0, 78, 0
2, 92369, Note_on_c, 0, 63, 0
2, 92385, Note_on_c, 0, 61, 62
2, 92524, Note_on_c, 0, 61, 0
2, 92548, Note_on_c, 0, 60, 59
2, 92552, Note_on_c, 0, 75, 73
2, 92639, Note_on_c, 0, 75, 0
2, 92677, Note_on_c, 0, 58, 61
2, 92733, Note_on_c, 0, 60, 0
2, 92839, Note_on_c, 0, 56, 65
2, 92840, Note_on_c, 0, 72, 69
2, 92860, Note_on_c, 0, 58, 0
2, 92939, Note_on_c, 0, 72, 0
2, 92965, Note_on_c, 0, 54, 64
2, 92986, Note_on_c, 0, 56, 0
2, 93087, Note_on_c, 0, 54, 0
2, 93124, Note_on_c, 0, 52, 66
2, 93129, Note_on_c, 0, 78, 74
2, 93199, Note_on_c, 0, 78, 0
2, 93246, Note_on_c, 0, 51, 59
2, 93296, Note_on_c, 0, 52, 0
2, 93418, Note_on_c, 0, 76, 72
2, 93427, Note_on_c, 0, 49, 65
2, 93441, Note_on_c, 0, 51, 0
2, 93489, Note_on_c, 0, 49, 0
2, 93554, Note_on_c, 0, 73, 72
2, 93559, Note_on_c, 0, 76, 0
2, 93713, Note_on_c, 0, 68, 71
2, 93718, Note_on_c, 0, 59, 62
2, 93739, Note_on_c, 0, 73, 0
2, 93772, Note_on_c, 0, 59, 0
2, 93829, Note_on_c, 0, 68, 0
2, 93850, Note_on_c, 0, 64, 70
2, 94006, Note_on_c, 0, 58, 59
2, 94014, Note_on_c, 0, 66, 67
2, 94019, Note_on_c, 0, 64, 0
2, 94106, Note_on_c, 0, 58, 0
2, 94141, Note_on_c, 0, 66, 0
2, 94155, Note_on_c, 0, 76, 66
2, 94306, Note_on_c, 0, 75, 75
2, 94306, Note_on_c, 0, 76, 0
2, 94308, Note_on_c, 0, 54, 46
2, 94355, Note_on_c, 0, 54, 0
2, 94450, Note_on_c, 0, 73, 73
2, 94455, Note_on_c, 0, 75, 0
2, 94598, Note_on_c, 0, 47, 47
2, 94605, Note_on_c, 0, 75, 69
2, 94627, Note_on_c, 0, 73, 0
2, 94715, Note_on_c, 0, 75, 0
2, 94737, Note_on_c, 0, 71, 66
2, 94749, Note_on_c, 0, 47, 0
2, 94890, Note_on_c, 0, 51, 46
2, 94899, Note_on_c, 0, 70, 71
2, 94903, Note_on_c, 0, 71, 0
2, 94970, Note_on_c, 0, 51, 0
2, 95040, Note_on_c, 0, 70, 0
2, 95045, Note_on_c, 0, 68, 73
2, 95177, Note_on_c, 0, 53, 52
2, 95187, Note_on_c, 0, 70, 71
2, 95198, Note_on_c, 0, 68, 0
2, 95252, Note_on_c, 0, 53, 0
2, 95338, Note_on_c, 0, 68, 77
2, 95343, Note_on_c, 0, 70, 0
2, 95466, Note_on_c, 0, 56, 59
2, 95486, Note_on_c, 0, 66, 70
2, 95486, Note_on_c, 0, 68, 0
2, 95526, Note_on_c, 0, 56, 0
2, 95607, Note_on_c, 0, 66, 0
2, 95626, Note_on_c, 0, 65, 61
2, 95757, Note_on_c, 0, 65, 0
2, 95771, Note_on_c, 0, 73, 66
2, 95774, Note_on_c, 0, 46, 58
2, 95927, Note_on_c, 0, 70, 70
2, 95939, Note_on_c, 0, 46, 0
2, 95964, Note_on_c, 0, 73, 0
2, 96068, Note_on_c, 0, 49, 63
2, 96075, Note_on_c, 0, 68, 69
2, 96084, Note_on_c, 0, 70, 0
2, 96190, Note_on_c, 0, 49, 0
2, 96215, Note_on_c, 0, 66, 70
2, 96216, Note_on_c, 0, 68, 0
2, 96353, Note_on_c, 0, 51, 67
2, 96365, Note_on_c, 0, 68, 69
2, 96381, Note_on_c, 0, 66, 0
2, 96470, Note_on_c, 0, 51, 0
2, 96515, Note_on_c, 0, 66, 74
2, 96528, Note_on_c, 0, 68, 0
2, 96650, Note_on_c, 0, 54, 72
2, 96654, Note_on_c, 0, 65, 65
2, 96655, Note_on_c, 0, 66, 0
2, 96729, Note_on_c, 0, 54, 0
2, 96790, Note_on_c, 0, 63, 64
2, 96794, Note_on_c, 0, 65, 0
2, 96932, Note_on_c, 0, 44, 68
2, 96941, Note_on_c, 0, 71, 63
2, 96942, Note_on_c, 0, 63, 0
2, 97077, Note_on_c, 0, 68, 67
2, 97087, Note_on_c, 0, 71, 0
2, 97098, Note_on_c, 0, 44, 0
2, 97231, Note_on_c, 0, 47, 67
2, 97237, Note_on_c, 0, 66, 64
2, 97265, Note_on_c, 0, 68, 0
2, 97350, Note_on_c, 0, 47, 0
2, 97384, Note_on_c, 0, 65, 66
2, 97390, Note_on_c, 0, 66, 0
2, 97525, Note_on_c, 0, 49, 70
2, 97549, Note_on_c, 0, 66, 63
2, 97551, Note_on_c, 0, 65, 0
2, 97592, Note_on_c, 0, 49, 0
2, 97698, Note_on_c, 0, 65, 68
2, 97700, Note_on_c, 0, 66, 0
2, 97829, Note_on_c, 0, 65, 0
2, 97832, Note_on_c, 0, 53, 61
2, 97840, Note_on_c, 0, 63, 70
2, 97878, Note_on_c, 0, 53, 0
2, 97969, Note_on_c, 0, 63, 0
2, 97982, Note_on_c, 0, 61, 64
2, 98105, Note_on_c, 0, 42, 52
2, 98117, Note_on_c, 0, 61, 0
2, 98121, Note_on_c, 0, 70, 69
2, 98254, Note_on_c, 0, 42, 0
2, 98256, Note_on_c, 0, 44, 65
2, 98256, Note_on_c, 0, 68, 71
2, 98256, Note_on_c, 0, 70, 0
2, 98402, Note_on_c, 0, 46, 68
2, 98406, Note_on_c, 0, 68, 0
2, 98410, Note_on_c, 0, 66, 68
2, 98426, Note_on_c, 0, 44, 0
2, 98521, Note_on_c, 0, 46, 0
2, 98531, Note_on_c, 0, 47, 71
2, 98549, Note_on_c, 0, 66, 0
2, 98551, Note_on_c, 0, 68, 78
2, 98693, Note_on_c, 0, 49, 71
2, 98700, Note_on_c, 0, 47, 0
2, 98705, Note_on_c, 0, 70, 80
2, 98724, Note_on_c, 0, 68, 0
2, 98791, Note_on_c, 0, 70, 0
2, 98837, Note_on_c, 0, 51, 68
2, 98859, Note_on_c, 0, 49, 0
2, 98964, Note_on_c, 0, 51, 0
2, 98981, Note_on_c, 0, 52, 66
2, 98988, Note_on_c, 0, 61, 75
2, 99059, Note_on_c, 0, 61, 0
2, 99108, Note_on_c, 0, 49, 76
2, 99136, Note_on_c, 0, 52, 0
2, 99269, Note_on_c, 0, 51, 75
2, 99281, Note_on_c, 0, 59, 73
2, 99289, Note_on_c, 0, 49, 0
2, 99345, Note_on_c, 0, 51, 0
2, 99408, Note_on_c, 0, 59, 0
2, 99413, Note_on_c, 0, 61, 67
2, 99570, Note_on_c, 0, 61, 0
2, 99570, Note_on_c, 0, 63, 71
2, 99571, Note_on_c, 0, 54, 78
2, 99648, Note_on_c, 0, 54, 0
2, 99695, Note_on_c, 0, 63, 0
2, 99713, Note_on_c, 0, 64, 68
2, 99852, Note_on_c, 0, 51, 74
2, 99868, Note_on_c, 0, 66, 72
2, 99889, Note_on_c, 0, 64, 0
2, 99933, Note_on_c, 0, 51, 0
2, 100007, Note_on_c, 0, 68, 75
2, 100022, Note_on_c, 0, 66, 0
2, 100149, Note_on_c, 0, 47, 73
2, 100157, Note_on_c, 0, 69, 78
2, 100172, Note_on_c, 0, 68, 0
2, 100228, Note_on_c, 0, 47, 0
2, 100296, Note_on_c, 0, 66, 77
2, 100310, Note_on_c, 0, 69, 0
2, 100447, Note_on_c, 0, 52, 77
2, 100456, Note_on_c, 0, 68, 80
2, 100464, Note_on_c, 0, 66, 0
2, 100538, Note_on_c, 0, 52, 0
2, 100600, Note_on_c, 0, 69, 75
2, 100608, Note_on_c, 0, 68, 0
2, 100745, Note_on_c, 0, 40, 75
2, 100754, Note_on_c, 0, 68, 80
2, 100769, Note_on_c, 0, 69, 0
2, 100790, Note_on_c, 0, 40, 0
2, 100896, Note_on_c, 0, 68, 0
2, 100901, Note_on_c, 0, 66, 74
2, 101010, Note_on_c, 0, 66, 0
2, 101036, Note_on_c, 0, 52, 66
2, 101037, Note_on_c, 0, 64, 71
2, 101099, Note_on_c, 0, 51, 76
2, 101105, Note_on_c, 0, 52, 0
2, 101140, Note_on_c, 0, 63, 72
2, 101140, Note_on_c, 0, 64, 0
2, 101190, Note_on_c, 0, 51, 0
2, 101190, Note_on_c, 0, 52, 77
2, 101308, Note_on_c, 0, 63, 0
2, 101315, Note_on_c, 0, 61, 64
2, 101439, Note_on_c, 0, 61, 0
2, 101456, Note_on_c, 0, 59, 68
2, 101610, Note_on_c, 0, 59, 0
2, 101619, Note_on_c, 0, 58, 73
2, 101774, Note_on_c, 0, 66, 66
2, 101852, Note_on_c, 0, 58, 0
2, 101930, Note_on_c, 0, 59, 68
2, 101933, Note_on_c, 0, 51, 60
2, 101934, Note_on_c, 0, 66, 0
2, 101988, Note_on_c, 0, 52, 0
2, 102029, Note_on_c, 0, 51, 0
2, 102060, Note_on_c, 0, 59, 0
2, 102079, Note_on_c, 0, 66, 69
2, 102228, Note_on_c, 0, 49, 57
2, 102234, Note_on_c, 0, 66, 0
2, 102235, Note_on_c, 0, 64, 69
2, 102298, Note_on_c, 0, 49, 0
2, 102380, Note_on_c, 0, 59, 58
2, 102409, Note_on_c, 0, 64, 0
2, 102517, Note_on_c, 0, 54, 57
2, 102530, Note_on_c, 0, 59, 0
2, 102536, Note_on_c, 0, 58, 65
2, 102558, Note_on_c, 0, 54, 0
2, 102661, Note_on_c, 0, 58, 0
2, 102672, Note_on_c, 0, 64, 67
2, 102829, Note_on_c, 0, 63, 66
2, 102835, Note_on_c, 0, 64, 0
2, 102849, Note_on_c, 0, 47, 53
2, 102978, Note_on_c, 0, 61, 70
2, 102992, Note_on_c, 0, 47, 0
2, 102996, Note_on_c, 0, 63, 0
2, 103118, Note_on_c, 0, 61, 0
2, 103127, Note_on_c, 0, 59, 64
2, 103136, Note_on_c, 0, 49, 56
2, 103206, Note_on_c, 0, 49, 0
2, 103268, Note_on_c, 0, 59, 0
2, 103277, Note_on_c, 0, 58, 68
2, 103413, Note_on_c, 0, 58, 0
2, 103424, Note_on_c, 0, 59, 72
2, 103439, Note_on_c, 0, 51, 55
2, 103467, Control_c, 0, 64, 15
2, 103486, Control_c, 0, 64, 25
2, 103487, Note_on_c, 0, 51, 0
2, 103505, Control_c, 0, 64, 32
2, 103524, Control_c, 0, 64, 39
2, 103544, Control_c, 0, 64, 41
2, 103562, Control_c, 0, 64, 43
2, 103568, Note_on_c, 0, 63, 71
2, 103591, Note_on_c, 0, 59, 0
2, 103621, Control_c, 0, 64, 42
2, 103639, Control_c, 0, 64, 42
2, 103659, Control_c, 0, 64, 40
2, 103678, Control_c, 0, 64, 36
2, 103698, Control_c, 0, 64, 32
2, 103716, Control_c, 0, 64, 30
2, 103725, Note_on_c, 0, 63, 0
2, 103727, Note_on_c, 0, 66, 72
2, 103735, Note_on_c, 0, 47, 63
2, 103774, Control_c, 0, 64, 31
2, 103793, Control_c, 0, 64, 32
2, 103812, Control_c, 0, 64, 33
2, 103832, Control_c, 0, 64, 34
2, 103836, Note_on_c, 0, 47, 0
2, 103850, Control_c, 0, 64, 36
2, 103866, Note_on_c, 0, 57, 66
2, 103870, Control_c, 0, 64, 36
2, 103892, Note_on_c, 0, 66, 0
2, 103966, Control_c, 0, 64, 36
2, 103985, Control_c, 0, 64, 32
2, 104004, Control_c, 0, 64, 26
2, 104020, Note_on_c, 0, 56, 71
2, 104024, Control_c, 0, 64, 17
2, 104027, Note_on_c, 0, 57, 0
2, 104029, Note_on_c, 0, 40, 66
2, 104042, Control_c, 0, 64, 11
2, 104062, Control_c, 0, 64, 13
2, 104081, Control_c, 0, 64, 27
2, 104101, Control_c, 0, 64, 38
2, 104119, Control_c, 0, 64, 43
2, 104139, Control_c, 0, 64, 44
2, 104143, Note_on_c, 0, 40, 0
2, 104156, Note_on_c, 0, 56, 0
2, 104158, Control_c, 0, 64, 45
2, 104170, Note_on_c, 0, 66, 70
2, 104196, Control_c, 0, 64, 45
2, 104258, Control_c, 0, 64, 45
2, 104277, Control_c, 0, 64, 44
2, 104294, Control_c, 0, 64, 43
2, 104312, Control_c, 0, 64, 41
2, 104330, Note_on_c, 0, 44, 78
2, 104332, Control_c, 0, 64, 38
2, 104333, Note_on_c, 0, 64, 66
2, 104335, Note_on_c, 0, 66, 0
2, 104351, Control_c, 0, 64, 33
2, 104389, Control_c, 0, 64, 35
2, 104409, Control_c, 0, 64, 38
2, 104425, Note_on_c, 0, 44, 0
2, 104428, Control_c, 0, 64, 38
2, 104466, Control_c, 0, 64, 39
2, 104467, Note_on_c, 0, 63, 73
2, 104480, Note_on_c, 0, 64, 0
2, 104543, Control_c, 0, 64, 39
2, 104600, Control_c, 0, 64, 39
2, 104620, Control_c, 0, 64, 33
2, 104620, Note_on_c, 0, 61, 68
2, 104621, Note_on_c, 0, 63, 0
2, 104636, Note_on_c, 0, 40, 72
2, 104639, Control_c, 0, 64, 25
2, 104658, Control_c, 0, 64, 24
2, 104677, Control_c, 0, 64, 27
2, 104697, Control_c, 0, 64, 33
2, 104715, Control_c, 0, 64, 35
2, 104737, Note_on_c, 0, 40, 0
2, 104767, Note_on_c, 0, 63, 69
2, 104774, Control_c, 0, 64, 36
2, 104783, Note_on_c, 0, 61, 0
2, 104792, Control_c, 0, 64, 36
2, 104850, Control_c, 0, 64, 36
2, 104889, Control_c, 0, 64, 35
2, 104908, Control_c, 0, 64, 33
2, 104909, Note_on_c, 0, 37, 72
2, 104919, Note_on_c, 0, 64, 72
2, 104927, Control_c, 0, 64, 32
2, 104929, Note_on_c, 0, 63, 0
2, 104965, Note_on_c, 0, 37, 0
2, 104966, Control_c, 0, 64, 31
2, 104984, Control_c, 0, 64, 31
2, 105004, Control_c, 0, 64, 29
2, 105020, Note_on_c, 0, 64, 0
2, 105023, Control_c, 0, 64, 28
2, 105048, Note_on_c, 0, 59, 69
2, 105061, Control_c, 0, 64, 27
2, 105080, Control_c, 0, 64, 26
2, 105195, Note_on_c, 0, 42, 72
2, 105216, Note_on_c, 0, 59, 0
2, 105219, Note_on_c, 0, 58, 65
2, 105340, Note_on_c, 0, 42, 0
2, 105360, Note_on_c, 0, 59, 76
2, 105364, Note_on_c, 0, 58, 0
2, 105505, Control_c, 0, 64, 25
2, 105509, Note_on_c, 0, 44, 78
2, 105515, Note_on_c, 0, 59, 0
2, 105518, Note_on_c, 0, 61, 77
2, 105625, Note_on_c, 0, 44, 0
2, 105657, Note_on_c, 0, 56, 77
2, 105665, Note_on_c, 0, 61, 0
2, 105804, Note_on_c, 0, 54, 77
2, 105805, Note_on_c, 0, 56, 0
2, 105807, Note_on_c, 0, 46, 84
2, 105910, Note_on_c, 0, 46, 0
2, 105940, Note_on_c, 0, 54, 0
2, 105943, Note_on_c, 0, 52, 76
2, 106081, Note_on_c, 0, 52, 0
2, 106101, Note_on_c, 0, 51, 72
2, 106103, Note_on_c, 0, 42, 83
2, 106135, Control_c, 0, 64, 26
2, 106154, Control_c, 0, 64, 28
2, 106171, Control_c, 0, 64, 29
2, 106190, Control_c, 0, 64, 31
2, 106203, Note_on_c, 0, 42, 0
2, 106210, Control_c, 0, 64, 32
2, 106229, Control_c, 0, 64, 33
2, 106231, Note_on_c, 0, 51, 0
2, 106247, Note_on_c, 0, 49, 77
2, 106267, Control_c, 0, 64, 34
2, 106287, Control_c, 0, 64, 34
2, 106382, Control_c, 0, 64, 34
2, 106388, Note_on_c, 0, 49, 0
2, 106401, Control_c, 0, 64, 33
2, 106410, Note_on_c, 0, 51, 74
2, 106411, Note_on_c, 0, 47, 82
2, 106421, Control_c, 0, 64, 32
2, 106459, Control_c, 0, 64, 32
2, 106560, Note_on_c, 0, 54, 70
2, 106581, Note_on_c, 0, 51, 0
2, 106582, Note_on_c, 0, 47, 0
2, 106593, Control_c, 0, 64, 32
2, 106670, Control_c, 0, 64, 32
2, 106688, Control_c, 0, 64, 31
2, 106707, Control_c, 0, 64, 28
2, 106719, Note_on_c, 0, 59, 79
2, 106720, Note_on_c, 0, 44, 82
2, 106726, Control_c, 0, 64, 25
2, 106734, Note_on_c, 0, 54, 0
2, 106745, Control_c, 0, 64, 22
2, 106803, Control_c, 0, 64, 24
2, 106822, Control_c, 0, 64, 25
2, 106859, Note_on_c, 0, 44, 0
2, 106863, Control_c, 0, 64, 26
2, 106863, Note_on_c, 0, 51, 73
2, 106871, Note_on_c, 0, 59, 0
2, 106882, Control_c, 0, 64, 27
2, 106902, Control_c, 0, 64, 27
2, 106959, Control_c, 0, 64, 28
2, 107017, Control_c, 0, 64, 21
2, 107036, Control_c, 0, 64, 0
2, 107042, Note_on_c, 0, 51, 0
2, 107044, Note_on_c, 0, 40, 71
2, 107046, Note_on_c, 0, 49, 80
2, 107192, Control_c, 0, 64, 37
2, 107210, Control_c, 0, 64, 46
2, 107220, Note_on_c, 0, 49, 0
2, 107223, Note_on_c, 0, 59, 75
2, 107249, Control_c, 0, 64, 45
2, 107254, Note_on_c, 0, 40, 0
2, 107268, Control_c, 0, 64, 45
2, 107287, Control_c, 0, 64, 43
2, 107307, Control_c, 0, 64, 39
2, 107326, Control_c, 0, 64, 32
2, 107345, Control_c, 0, 64, 27
2, 107352, Note_on_c, 0, 59, 0
2, 107364, Control_c, 0, 64, 19
2, 107384, Control_c, 0, 64, 0
2, 107409, Note_on_c, 0, 52, 75
2, 107414, Note_on_c, 0, 42, 66
2, 107583, Note_on_c, 0, 42, 0
2, 107595, Control_c, 0, 64, 46
2, 107606, Note_on_c, 0, 58, 79
2, 107614, Control_c, 0, 64, 57
2, 107633, Control_c, 0, 64, 61
2, 107643, Note_on_c, 0, 52, 0
2, 107652, Control_c, 0, 64, 62
2, 107672, Control_c, 0, 64, 62
2, 107715, Note_on_c, 0, 58, 0
2, 107729, Control_c, 0, 64, 62
2, 107748, Control_c, 0, 64, 61
2, 107767, Control_c, 0, 64, 61
2, 107787, Control_c, 0, 64, 60
2, 107806, Control_c, 0, 64, 59
2, 107825, Control_c, 0, 64, 58
2, 107844, Control_c, 0, 64, 57
2, 107864, Control_c, 0, 64, 52
2, 107882, Control_c, 0, 64, 38
2, 107896, Note_on_c, 0, 59, 78
2, 107902, Control_c, 0, 64, 0
2, 107902, Note_on_c, 0, 54, 74
2, 107904, Note_on_c, 0, 51, 67
2, 107910, Note_on_c, 0, 47, 55
2, 107917, Note_on_c, 0, 35, 58
2, 108926, Note_on_c, 0, 51, 0
2, 108927, Note_on_c, 0, 47, 0
2, 108936, Note_on_c, 0, 59, 0
2, 108940, Note_on_c, 0, 35, 0
2, 108989, Note_on_c, 0, 54, 0
2, 111703,End_track
0, 0, End_of_file
