0, 0, Header, 1, 2, 480
1, 0, Start_track
1, 0, Tempo, 500000
1, 0, Time_signature, 4, 2, 24, 8
1, 1, End_track
2, 0, Start_track
2, 0, Program_c, 0, 0
2, 921, Note_on_c, 0, 47, 51
2, 1057, Note_on_c, 0, 59, 53
2, 1193, Note_on_c, 0, 59, 0
2, 1208, Note_on_c, 0, 61, 57
2, 1344, Note_on_c, 0, 61, 0
2, 1353, Note_on_c, 0, 63, 64
2, 1420, Note_on_c, 0, 47, 0
2, 1476, Note_on_c, 0, 63, 0
2, 1498, Note_on_c, 0, 64, 64
2, 1630, Note_on_c, 0, 64, 0
2, 1638, Note_on_c, 0, 66, 66
2, 1769, Note_on_c, 0, 66, 0
2, 1772, Note_on_c, 0, 68, 65
2, 1891, Note_on_c, 0, 68, 0
2, 1915, Note_on_c, 0, 70, 66
2, 1987, Note_on_c, 0, 70, 0
2, 2017, Note_on_c, 0, 71, 62
2, 2054, Note_on_c, 0, 71, 0
2, 2064, Note_on_c, 0, 70, 77
2, 2122, Note_on_c, 0, 70, 0
2, 2135, Note_on_c, 0, 71, 81
2, 2229, Note_on_c, 0, 59, 48
2, 2358, Note_on_c, 0, 59, 0
2, 2370, Note_on_c, 0, 58, 43
2, 2489, Note_on_c, 0, 71, 0
2, 2493, Note_on_c, 0, 73, 75
2, 2495, Note_on_c, 0, 58, 0
2, 2504, Note_on_c, 0, 56, 60
2, 2627, Note_on_c, 0, 73, 0
2, 2636, Note_on_c, 0, 56, 0
2, 2644, Note_on_c, 0, 54, 58
2, 2648, Note_on_c, 0, 75, 68
2, 2700, Note_on_c, 0, 75, 0
2, 2727, Note_on_c, 0, 73, 74
2, 2738, Note_on_c, 0, 54, 0
2, 2776, Note_on_c, 0, 73, 0
2, 2784, Note_on_c, 0, 52, 47
2, 2821, Note_on_c, 0, 75, 63
2, 2857, Note_on_c, 0, 75, 0
2, 2890, Note_on_c, 0, 73, 62
2, 2901, Note_on_c, 0, 51, 49
2, 2930, Note_on_c, 0, 73, 0
2, 2930, Note_on_c, 0, 75, 84
2, 2965, Note_on_c, 0, 52, 0
2, 2992, Note_on_c, 0, 75, 0
2, 3007, Note_on_c, 0, 73, 77
2, 3052, Note_on_c, 0, 49, 49
2, 3056, Note_on_c, 0, 51, 0
2, 3063, Note_on_c, 0, 71, 73
2, 3071, Note_on_c, 0, 73, 0
2, 3129, Note_on_c, 0, 71, 0
2, 3130, Note_on_c, 0, 73, 74
2, 3191, Note_on_c, 0, 49, 0
2, 3197, Note_on_c, 0, 47, 52
2, 3206, Note_on_c, 0, 75, 81
2, 3212, Note_on_c, 0, 73, 0
2, 3366, Note_on_c, 0, 75, 0
2, 3370, Note_on_c, 0, 70, 79
2, 3414, Note_on_c, 0, 47, 0
2, 3504, Note_on_c, 0, 70, 0
2, 3520, Note_on_c, 0, 71, 78
2, 3637, Note_on_c, 0, 71, 0
2, 3637, Note_on_c, 0, 75, 86
2, 3798, Note_on_c, 0, 51, 58
2, 3798, Note_on_c, 0, 75, 0
2, 3802, Note_on_c, 0, 76, 72
2, 3856, Note_on_c, 0, 51, 0
2, 3877, Note_on_c, 0, 49, 61
2, 3922, Note_on_c, 0, 76, 0
2, 3936, Note_on_c, 0, 49, 0
2, 3955, Note_on_c, 0, 70, 75
2, 3978, Note_on_c, 0, 51, 65
2, 4048, Note_on_c, 0, 49, 63
2, 4063, Note_on_c, 0, 51, 0
2, 4081, Note_on_c, 0, 70, 0
2, 4089, Note_on_c, 0, 71, 69
2, 4172, Note_on_c, 0, 49, 0
2, 4183, Note_on_c, 0, 47, 64
2, 4222, Note_on_c, 0, 71, 0
2, 4238, Note_on_c, 0, 76, 79
2, 4284, Note_on_c, 0, 47, 0
2, 4315, Note_on_c, 0, 49, 57
2, 4397, Note_on_c, 0, 49, 0
2, 4397, Note_on_c, 0, 78, 76
2, 4401, Note_on_c, 0, 76, 0
2, 4405, Note_on_c, 0, 51, 60
2, 4544, Note_on_c, 0, 78, 0
2, 4545, Note_on_c, 0, 71, 76
2, 4620, Note_on_c, 0, 51, 0
2, 4669, Note_on_c, 0, 71, 0
2, 4693, Note_on_c, 0, 80, 78
2, 4849, Note_on_c, 0, 78, 68
2, 4863, Note_on_c, 0, 80, 0
2, 4879, Note_on_c, 0, 52, 62
2, 4930, Note_on_c, 0, 52, 0
2, 4975, Note_on_c, 0, 54, 71
2, 4984, Note_on_c, 0, 78, 0
2, 5004, Note_on_c, 0, 76, 68
2, 5041, Note_on_c, 0, 54, 0
2, 5046, Note_on_c, 0, 52, 65
2, 5083, Note_on_c, 0, 52, 0
2, 5111, Note_on_c, 0, 54, 74
2, 5132, Note_on_c, 0, 76, 0
2, 5134, Note_on_c, 0, 75, 72
2, 5172, Note_on_c, 0, 52, 63
2, 5195, Note_on_c, 0, 54, 0
2, 5263, Note_on_c, 0, 52, 0
2, 5276, Note_on_c, 0, 51, 62
2, 5279, Note_on_c, 0, 75, 0
2, 5280, Note_on_c, 0, 73, 71
2, 5355, Note_on_c, 0, 51, 0
2, 5372, Note_on_c, 0, 52, 60
2, 5387, Note_on_c, 0, 73, 0
2, 5410, Note_on_c, 0, 71, 59
2, 5540, Note_on_c, 0, 71, 0
2, 5546, Note_on_c, 0, 52, 0
2, 5550, Note_on_c, 0, 54, 64
2, 5566, Note_on_c, 0, 70, 66
2, 5596, Note_on_c, 0, 54, 0
2, 5683, Note_on_c, 0, 70, 0
2, 5702, Note_on_c, 0, 65, 55
2, 5845, Note_on_c, 0, 65, 0
2, 5857, Note_on_c, 0, 66, 62
2, 5876, Note_on_c, 0, 58, 58
2, 5914, Note_on_c, 0, 58, 0
2, 5997, Note_on_c, 0, 66, 0
2, 6006, Note_on_c, 0, 73, 62
2, 6173, Note_on_c, 0, 70, 67
2, 6173, Note_on_c, 0, 73, 0
2, 6180, Note_on_c, 0, 61, 60
2, 6220, Note_on_c, 0, 61, 0
2, 6318, Note_on_c, 0, 70, 0
2, 6324, Note_on_c, 0, 73, 63
2, 6468, Note_on_c, 0, 58, 59
2, 6472, Note_on_c, 0, 73, 0
2, 6481, Note_on_c, 0, 66, 62
2, 6512, Note_on_c, 0, 58, 0
2, 6593, Note_on_c, 0, 66, 0
2, 6617, Note_on_c, 0, 73, 66
2, 6774, Note_on_c, 0, 54, 47
2, 6784, Note_on_c, 0, 70, 64
2, 6805, Note_on_c, 0, 73, 0
2, 6912, Note_on_c, 0, 65, 47
2, 6934, Note_on_c, 0, 54, 0
2, 7066, Note_on_c, 0, 65, 0
2, 7067, Note_on_c, 0, 70, 0
2, 7073, Note_on_c, 0, 58, 45
2, 7074, Note_on_c, 0, 66, 59
2, 7138, Note_on_c, 0, 58, 0
2, 7199, Note_on_c, 0, 66, 0
2, 7202, Note_on_c, 0, 73, 67
2, 7374, Note_on_c, 0, 61, 50
2, 7377, Note_on_c, 0, 70, 65
2, 7380, Note_on_c, 0, 73, 0
2, 7421, Note_on_c, 0, 61, 0
2, 7503, Note_on_c, 0, 70, 0
2, 7517, Note_on_c, 0, 73, 70
2, 7648, Note_on_c, 0, 73, 0
2, 7649, Note_on_c, 0, 52, 47
2, 7653, Note_on_c, 0, 66, 63
2, 7727, Note_on_c, 0, 52, 0
2, 7795, Note_on_c, 0, 66, 0
2, 7796, Note_on_c, 0, 73, 71
2, 7954, Note_on_c, 0, 51, 54
2, 7961, Note_on_c, 0, 73, 0
2, 7970, Note_on_c, 0, 71, 71
2, 8114, Note_on_c, 0, 65, 54
2, 8143, Note_on_c, 0, 51, 0
2, 8232, Note_on_c, 0, 65, 0
2, 8258, Note_on_c, 0, 66, 63
2, 8265, Note_on_c, 0, 71, 0
2, 8270, Note_on_c, 0, 59, 59
2, 8322, Note_on_c, 0, 59, 0
2, 8391, Note_on_c, 0, 66, 0
2, 8396, Note_on_c, 0, 75, 72
2, 8552, Note_on_c, 0, 71, 71
2, 8554, Note_on_c, 0, 63, 67
2, 8556, Note_on_c, 0, 75, 0
2, 8600, Note_on_c, 0, 63, 0
2, 8697, Note_on_c, 0, 75, 72
2, 8705, Note_on_c, 0, 71, 0
2, 8832, Note_on_c, 0, 75, 0
2, 8834, Note_on_c, 0, 66, 65
2, 8844, Note_on_c, 0, 59, 62
2, 8887, Note_on_c, 0, 59, 0
2, 8967, Note_on_c, 0, 66, 0
2, 8979, Note_on_c, 0, 75, 66
2, 9137, Note_on_c, 0, 54, 51
2, 9145, Note_on_c, 0, 71, 63
2, 9183, Note_on_c, 0, 75, 0
2, 9260, Note_on_c, 0, 54, 0
2, 9296, Note_on_c, 0, 65, 33
2, 9427, Note_on_c, 0, 65, 0
2, 9436, Note_on_c, 0, 71, 0
2, 9438, Note_on_c, 0, 66, 56
2, 9442, Note_on_c, 0, 59, 53
2, 9493, Note_on_c, 0, 59, 0
2, 9562, Note_on_c, 0, 66, 0
2, 9577, Note_on_c, 0, 75, 63
2, 9722, Note_on_c, 0, 75, 0
2, 9727, Note_on_c, 0, 71, 66
2, 9729, Note_on_c, 0, 63, 54
2, 9781, Note_on_c, 0, 63, 0
2, 9857, Note_on_c, 0, 71, 0
2, 9869, Note_on_c, 0, 75, 67
2, 10008, Note_on_c, 0, 75, 0
2, 10013, Note_on_c, 0, 66, 62
2, 10030, Note_on_c, 0, 59, 52
2, 10062, Note_on_c, 0, 59, 0
2, 10149, Note_on_c, 0, 66, 0
2, 10156, Note_on_c, 0, 75, 69
2, 10289, Note_on_c, 0, 46, 68
2, 10300, Note_on_c, 0, 73, 67
2, 10307, Note_on_c, 0, 75, 0
2, 10395, Note_on_c, 0, 46, 0
2, 10449, Note_on_c, 0, 65, 58
2, 10598, Note_on_c, 0, 66, 67
2, 10600, Note_on_c, 0, 65, 0
2, 10605, Note_on_c, 0, 61, 69
2, 10617, Note_on_c, 0, 73, 0
2, 10674, Note_on_c, 0, 61, 0
2, 10739, Note_on_c, 0, 66, 0
2, 10747, Note_on_c, 0, 76, 72
2, 10897, Note_on_c, 0, 64, 78
2, 10903, Note_on_c, 0, 73, 73
2, 10903, Note_on_c, 0, 76, 0
2, 11003, Note_on_c, 0, 64, 0
2, 11036, Note_on_c, 0, 76, 73
2, 11057, Note_on_c, 0, 73, 0
2, 11189, Note_on_c, 0, 61, 76
2, 11192, Note_on_c, 0, 70, 71
2, 11192, Note_on_c, 0, 76, 0
2, 11262, Note_on_c, 0, 61, 0
2, 11325, Note_on_c, 0, 76, 73
2, 11338, Note_on_c, 0, 70, 0
2, 11484, Note_on_c, 0, 58, 59
2, 11487, Note_on_c, 0, 73, 68
2, 11521, Note_on_c, 0, 76, 0
2, 11542, Note_on_c, 0, 58, 0
2, 11620, Note_on_c, 0, 65, 43
2, 11769, Note_on_c, 0, 73, 0
2, 11770, Note_on_c, 0, 61, 59
2, 11771, Note_on_c, 0, 65, 0
2, 11777, Note_on_c, 0, 66, 62
2, 11828, Note_on_c, 0, 61, 0
2, 11890, Note_on_c, 0, 66, 0
2, 11916, Note_on_c, 0, 76, 60
2, 12059, Note_on_c, 0, 73, 68
2, 12068, Note_on_c, 0, 58, 45
2, 12075, Note_on_c, 0, 76, 0
2, 12105, Note_on_c, 0, 58, 0
2, 12195, Note_on_c, 0, 73, 0
2, 12210, Note_on_c, 0, 76, 64
2, 12341, Note_on_c, 0, 54, 46
2, 12343, Note_on_c, 0, 76, 0
2, 12344, Note_on_c, 0, 70, 65
2, 12377, Note_on_c, 0, 54, 0
2, 12475, Note_on_c, 0, 70, 0
2, 12489, Note_on_c, 0, 76, 67
2, 12643, Note_on_c, 0, 76, 0
2, 12654, Note_on_c, 0, 75, 68
2, 12658, Note_on_c, 0, 47, 43
2, 12727, Note_on_c, 0, 47, 0
2, 12797, Note_on_c, 0, 70, 59
2, 12930, Note_on_c, 0, 70, 0
2, 12940, Note_on_c, 0, 71, 65
2, 12943, Note_on_c, 0, 63, 58
2, 12962, Note_on_c, 0, 75, 0
2, 12992, Note_on_c, 0, 63, 0
2, 13058, Note_on_c, 0, 71, 0
2, 13067, Note_on_c, 0, 78, 66
2, 13224, Note_on_c, 0, 75, 67
2, 13229, Note_on_c, 0, 78, 0
2, 13231, Note_on_c, 0, 66, 56
2, 13284, Note_on_c, 0, 66, 0
2, 13379, Note_on_c, 0, 75, 0
2, 13381, Note_on_c, 0, 78, 68
2, 13496, Note_on_c, 0, 78, 0
2, 13512, Note_on_c, 0, 71, 55
2, 13514, Note_on_c, 0, 63, 44
2, 13560, Note_on_c, 0, 63, 0
2, 13608, Note_on_c, 0, 71, 0
2, 13647, Note_on_c, 0, 78, 63
2, 13797, Note_on_c, 0, 59, 49
2, 13811, Note_on_c, 0, 75, 66
2, 13834, Note_on_c, 0, 78, 0
2, 13866, Note_on_c, 0, 59, 0
2, 13960, Note_on_c, 0, 70, 66
2, 13971, Note_on_c, 0, 75, 0
2, 14093, Note_on_c, 0, 71, 67
2, 14103, Note_on_c, 0, 70, 0
2, 14107, Note_on_c, 0, 63, 47
2, 14145, Note_on_c, 0, 63, 0
2, 14208, Note_on_c, 0, 71, 0
2, 14236, Note_on_c, 0, 78, 68
2, 14371, Note_on_c, 0, 78, 0
2, 14376, Note_on_c, 0, 75, 65
2, 14387, Note_on_c, 0, 59, 52
2, 14442, Note_on_c, 0, 59, 0
2, 14522, Note_on_c, 0, 78, 64
2, 14536, Note_on_c, 0, 75, 0
2, 14636, Note_on_c, 0, 78, 0
2, 14665, Note_on_c, 0, 71, 66
2, 14673, Note_on_c, 0, 54, 50
2, 14722, Note_on_c, 0, 54, 0
2, 14807, Note_on_c, 0, 78, 73
2, 14810, Note_on_c, 0, 71, 0
2, 14952, Note_on_c, 0, 81, 76
2, 14957, Note_on_c, 0, 51, 41
2, 14961, Note_on_c, 0, 78, 0
2, 15029, Note_on_c, 0, 51, 0
2, 15102, Note_on_c, 0, 76, 76
2, 15142, Note_on_c, 0, 81, 0
2, 15244, Note_on_c, 0, 78, 80
2, 15256, Note_on_c, 0, 59, 44
2, 15271, Note_on_c, 0, 76, 0
2, 15306, Note_on_c, 0, 59, 0
2, 15386, Note_on_c, 0, 81, 84
2, 15388, Note_on_c, 0, 78, 0
2, 15537, Note_on_c, 0, 75, 84
2, 15557, Note_on_c, 0, 54, 51
2, 15602, Note_on_c, 0, 54, 0
2, 15609, Note_on_c, 0, 81, 0
2, 15675, Note_on_c, 0, 78, 78
2, 15708, Note_on_c, 0, 75, 0
2, 15807, Note_on_c, 0, 51, 52
2, 15829, Note_on_c, 0, 78, 0
2, 15830, Note_on_c, 0, 71, 74
2, 15860, Note_on_c, 0, 51, 0
2, 15957, Note_on_c, 0, 71, 0
2, 15958, Note_on_c, 0, 78, 79
2, 16095, Note_on_c, 0, 81, 70
2, 16099, Note_on_c, 0, 78, 0
2, 16135, Note_on_c, 0, 47, 44
2, 16249, Note_on_c, 0, 78, 76
2, 16257, Note_on_c, 0, 81, 0
2, 16392, Note_on_c, 0, 76, 65
2, 16407, Note_on_c, 0, 78, 0
2, 16411, Note_on_c, 0, 54, 49
2, 16413, Note_on_c, 0, 47, 0
2, 16442, Note_on_c, 0, 54, 0
2, 16510, Note_on_c, 0, 76, 0
2, 16519, Note_on_c, 0, 75, 71
2, 16682, Note_on_c, 0, 59, 50
2, 16691, Note_on_c, 0, 76, 60
2, 16727, Note_on_c, 0, 59, 0
2, 16728, Note_on_c, 0, 75, 0
2, 16815, Note_on_c, 0, 75, 69
2, 16831, Note_on_c, 0, 76, 0
2, 16952, Note_on_c, 0, 75, 0
2, 16960, Note_on_c, 0, 73, 66
2, 16977, Note_on_c, 0, 51, 42
2, 17043, Note_on_c, 0, 51, 0
2, 17077, Note_on_c, 0, 73, 0
2, 17095, Note_on_c, 0, 71, 68
2, 17237, Note_on_c, 0, 71, 0
2, 17251, Note_on_c, 0, 80, 67
2, 17255, Note_on_c, 0, 52, 48
2, 17395, Note_on_c, 0, 76, 68
2, 17410, Note_on_c, 0, 80, 0
2, 17547, Note_on_c, 0, 75, 74
2, 17547, Note_on_c, 0, 76, 0
2, 17550, Note_on_c, 0, 56, 50
2, 17580, Note_on_c, 0, 52, 0
2, 17611, Note_on_c, 0, 56, 0
2, 17676, Note_on_c, 0, 75, 0
2, 17683, Note_on_c, 0, 73, 71
2, 17838, Note_on_c, 0, 73, 0
2, 17839, Note_on_c, 0, 46, 45
2, 17841, Note_on_c, 0, 75, 64
2, 17906, Note_on_c, 0, 46, 0
2, 17906, Note_on_c, 0, 46, 15
2, 17958, Note_on_c, 0, 46, 0
2, 17978, Note_on_c, 0, 73, 70
2, 17991, Note_on_c, 0, 75, 0
2, 18118, Note_on_c, 0, 73, 0
2, 18119, Note_on_c, 0, 71, 66
2, 18122, Note_on_c, 0, 56, 56
2, 18168, Note_on_c, 0, 56, 0
2, 18238, Note_on_c, 0, 71, 0
2, 18252, Note_on_c, 0, 70, 68
2, 18392, Note_on_c, 0, 70, 0
2, 18407, Note_on_c, 0, 51, 55
2, 18407, Note_on_c, 0, 78, 69
2, 18557, Note_on_c, 0, 75, 73
2, 18606, Note_on_c, 0, 78, 0
2, 18684, Note_on_c, 0, 54, 58
2, 18698, Note_on_c, 0, 73, 71
2, 18722, Note_on_c, 0, 51, 0
2, 18730, Note_on_c, 0, 75, 0
2, 18738, Note_on_c, 0, 54, 0
2, 18817, Note_on_c, 0, 73, 0
2, 18834, Note_on_c, 0, 71, 62
2, 18982, Note_on_c, 0, 44, 53
2, 18992, Note_on_c, 0, 71, 0
2, 19000, Note_on_c, 0, 73, 67
2, 19042, Note_on_c, 0, 44, 0
2, 19143, Note_on_c, 0, 71, 69
2, 19147, Note_on_c, 0, 73, 0
2, 19261, Note_on_c, 0, 71, 0
2, 19264, Note_on_c, 0, 54, 61
2, 19274, Note_on_c, 0, 70, 72
2, 19307, Note_on_c, 0, 54, 0
2, 19391, Note_on_c, 0, 70, 0
2, 19401, Note_on_c, 0, 68, 68
2, 19552, Note_on_c, 0, 49, 53
2, 19560, Note_on_c, 0, 68, 0
2, 19570, Note_on_c, 0, 76, 70
2, 19682, Note_on_c, 0, 51, 62
2, 19688, Note_on_c, 0, 76, 0
2, 19690, Note_on_c, 0, 49, 0
2, 19696, Note_on_c, 0, 75, 72
2, 19809, Note_on_c, 0, 51, 0
2, 19834, Note_on_c, 0, 75, 0
2, 19843, Note_on_c, 0, 73, 73
2, 19847, Note_on_c, 0, 52, 60
2, 19971, Note_on_c, 0, 73, 0
2, 19975, Note_on_c, 0, 54, 67
2, 19976, Note_on_c, 0, 75, 79
2, 19988, Note_on_c, 0, 52, 0
2, 20122, Note_on_c, 0, 54, 0
2, 20130, Note_on_c, 0, 56, 72
2, 20132, Note_on_c, 0, 76, 77
2, 20148, Note_on_c, 0, 75, 0
2, 20258, Note_on_c, 0, 58, 66
2, 20263, Note_on_c, 0, 76, 0
2, 20294, Note_on_c, 0, 56, 0
2, 20374, Note_on_c, 0, 58, 0
2, 20403, Note_on_c, 0, 68, 79
2, 20408, Note_on_c, 0, 59, 74
2, 20466, Note_on_c, 0, 68, 0
2, 20531, Note_on_c, 0, 56, 70
2, 20535, Note_on_c, 0, 59, 0
2, 20694, Note_on_c, 0, 58, 70
2, 20701, Note_on_c, 0, 56, 0
2, 20711, Note_on_c, 0, 66, 70
2, 20736, Note_on_c, 0, 58, 0
2, 20837, Note_on_c, 0, 66, 0
2, 20842, Note_on_c, 0, 68, 74
2, 20987, Note_on_c, 0, 68, 0
2, 20993, Note_on_c, 0, 70, 74
2, 20994, Note_on_c, 0, 61, 68
2, 21032, Note_on_c, 0, 61, 0
2, 21104, Note_on_c, 0, 70, 0
2, 21125, Note_on_c, 0, 71, 72
2, 21269, Note_on_c, 0, 58, 69
2, 21277, Note_on_c, 0, 71, 0
2, 21285, Note_on_c, 0, 73, 74
2, 21313, Note_on_c, 0, 58, 0
2, 21427, Note_on_c, 0, 75, 75
2, 21430, Note_on_c, 0, 73, 0
2, 21551, Note_on_c, 0, 54, 58
2, 21573, Note_on_c, 0, 75, 0
2, 21578, Note_on_c, 0, 76, 72
2, 21590, Note_on_c, 0, 54, 0
2, 21705, Note_on_c, 0, 73, 77
2, 21708, Note_on_c, 0, 76, 0
2, 21865, Note_on_c, 0, 59, 64
2, 21865, Note_on_c, 0, 75, 79
2, 21869, Note_on_c, 0, 73, 0
2, 21903, Note_on_c, 0, 59, 0
2, 22003, Note_on_c, 0, 76, 71
2, 22010, Note_on_c, 0, 75, 0
2, 22141, Note_on_c, 0, 47, 49
2, 22143, Note_on_c, 0, 76, 0
2, 22151, Note_on_c, 0, 75, 76
2, 22187, Note_on_c, 0, 47, 0
2, 22269, Note_on_c, 0, 75, 0
2, 22277, Note_on_c, 0, 73, 72
2, 22373, Note_on_c, 0, 73, 0
2, 22400, Note_on_c, 0, 59, 64
2, 22404, Note_on_c, 0, 71, 65
2, 22452, Note_on_c, 0, 59, 0
2, 22460, Note_on_c, 0, 58, 68
2, 22514, Note_on_c, 0, 70, 72
2, 22523, Note_on_c, 0, 59, 70
2, 22524, Note_on_c, 0, 58, 0
2, 22524, Note_on_c, 0, 71, 0
2, 22682, Note_on_c, 0, 68, 59
2, 22692, Note_on_c, 0, 70, 0
2, 22808, Note_on_c, 0, 68, 0
2, 22817, Note_on_c, 0, 66, 61
2, 22940, Note_on_c, 0, 66, 0
2, 22963, Note_on_c, 0, 65, 56
2, 23068, Note_on_c, 0, 65, 0
2, 23102, Note_on_c, 0, 61, 59
2, 23125, Note_on_c, 0, 58, 50
2, 23132, Note_on_c, 0, 59, 0
2, 23204, Note_on_c, 0, 61, 0
2, 23238, Note_on_c, 0, 65, 53
2, 23264, Note_on_c, 0, 58, 0
2, 23273, Note_on_c, 0, 56, 57
2, 23376, Note_on_c, 0, 68, 70
2, 23384, Note_on_c, 0, 65, 0
2, 23402, Note_on_c, 0, 54, 45
2, 23403, Note_on_c, 0, 56, 0
2, 23494, Note_on_c, 0, 54, 0
2, 23536, Note_on_c, 0, 73, 78
2, 23537, Note_on_c, 0, 53, 54
2, 23541, Note_on_c, 0, 68, 0
2, 23661, Note_on_c, 0, 53, 0
2, 23680, Note_on_c, 0, 49, 54
2, 23792, Note_on_c, 0, 49, 0
2, 23832, Note_on_c, 0, 53, 47
2, 23942, Note_on_c, 0, 53, 0
2, 23962, Note_on_c, 0, 56, 51
2, 24122, Note_on_c, 0, 56, 0
2, 24141, Note_on_c, 0, 58, 44
2, 24268, Note_on_c, 0, 71, 58
2, 24278, Note_on_c, 0, 73, 0
2, 24302, Note_on_c, 0, 58, 0
2, 24418, Note_on_c, 0, 71, 0
2, 24435, Note_on_c, 0, 70, 61
2, 24444, Note_on_c, 0, 61, 47
2, 24509, Note_on_c, 0, 61, 0
2, 24573, Note_on_c, 0, 70, 0
2, 24575, Note_on_c, 0, 68, 65
2, 24718, Note_on_c, 0, 68, 0
2, 24725, Note_on_c, 0, 51, 39
2, 24725, Note_on_c, 0, 66, 57
2, 24839, Note_on_c, 0, 66, 0
2, 24871, Note_on_c, 0, 65, 51
2, 24889, Note_on_c, 0, 51, 0
2, 25004, Note_on_c, 0, 65, 0
2, 25027, Note_on_c, 0, 63, 55
2, 25034, Note_on_c, 0, 54, 39
2, 25139, Note_on_c, 0, 54, 0
2, 25153, Note_on_c, 0, 63, 0
2, 25168, Note_on_c, 0, 73, 50
2, 25307, Note_on_c, 0, 73, 0
2, 25314, Note_on_c, 0, 56, 48
2, 25324, Note_on_c, 0, 71, 53
2, 25428, Note_on_c, 0, 56, 0
2, 25451, Note_on_c, 0, 71, 0
2, 25470, Note_on_c, 0, 70, 57
2, 25601, Note_on_c, 0, 70, 0
2, 25613, Note_on_c, 0, 68, 60
2, 25615, Note_on_c, 0, 59, 50
2, 25705, Note_on_c, 0, 59, 0
2, 25732, Note_on_c, 0, 68, 0
2, 25745, Note_on_c, 0, 66, 60
2, 25895, Note_on_c, 0, 66, 0
2, 25904, Note_on_c, 0, 65, 46
2, 25907, Note_on_c, 0, 49, 44
2, 26001, Note_on_c, 0, 49, 0
2, 26030, Note_on_c, 0, 65, 0
2, 26056, Note_on_c, 0, 63, 57
2, 26185, Note_on_c, 0, 63, 0
2, 26196, Note_on_c, 0, 53, 40
2, 26223, Note_on_c, 0, 61, 52
2, 26264, Note_on_c, 0, 53, 0
2, 26354, Note_on_c, 0, 71, 54
2, 26496, Note_on_c, 0, 71, 0
2, 26533, Note_on_c, 0, 70, 56
2, 26544, Note_on_c, 0, 66, 45
2, 26556, Note_on_c, 0, 54, 37
2, 26673, Note_on_c, 0, 42, 49
2, 26717, Note_on_c, 0, 54, 0
2, 26821, Note_on_c, 0, 42, 0
2, 26825, Note_on_c, 0, 44, 48
2, 26921, Note_on_c, 0, 61, 0
2, 26956, Note_on_c, 0, 44, 0
2, 26960, Note_on_c, 0, 46, 52
2, 27111, Note_on_c, 0, 46, 0
2, 27135, Note_on_c, 0, 47, 58
2, 27167, Note_on_c, 0, 66, 0
2, 27235, Note_on_c, 0, 70, 0
2, 27257, Note_on_c, 0, 47, 0
2, 27265, Note_on_c, 0, 49, 59
2, 27430, Note_on_c, 0, 51, 61
2, 27457, Note_on_c, 0, 49, 0
2, 27543, Note_on_c, 0, 51, 0
2, 27573, Note_on_c, 0, 53, 68
2, 27699, Note_on_c, 0, 53, 0
2, 27706, Note_on_c, 0, 54, 66
2, 27851, Note_on_c, 0, 54, 0
2, 27852, Note_on_c, 0, 56, 70
2, 28018, Note_on_c, 0, 56, 0
2, 28020, Note_on_c, 0, 54, 57
2, 28024, Note_on_c, 0, 73, 69
2, 28026, Note_on_c, 0, 70, 64
2, 28160, Note_on_c, 0, 54, 0
2, 28172, Note_on_c, 0, 52, 60
2, 28309, Note_on_c, 0, 52, 0
2, 28309, Note_on_c, 0, 70, 0
2, 28316, Note_on_c, 0, 72, 69
2, 28319, Note_on_c, 0, 51, 56
2, 28322, Note_on_c, 0, 78, 70
2, 28324, Note_on_c, 0, 73, 0
2, 28450, Note_on_c, 0, 51, 0
2, 28455, Note_on_c, 0, 56, 69
2, 28612, Note_on_c, 0, 54, 69
2, 28615, Note_on_c, 0, 75, 77
2, 28629, Note_on_c, 0, 56, 0
2, 28650, Note_on_c, 0, 78, 0
2, 28727, Note_on_c, 0, 54, 0
2, 28752, Note_on_c, 0, 56, 66
2, 28912, Note_on_c, 0, 49, 61
2, 28921, Note_on_c, 0, 56, 0
2, 28921, Note_on_c, 0, 75, 0
2, 28922, Note_on_c, 0, 76, 64
2, 28923, Note_on_c, 0, 73, 63
2, 28925, Note_on_c, 0, 72, 0
2, 29073, Note_on_c, 0, 51, 57
2, 29077, Note_on_c, 0, 49, 0
2, 29194, Note_on_c, 0, 51, 0
2, 29219, Note_on_c, 0, 52, 66
2, 29260, Note_on_c, 0, 73, 0
2, 29263, Note_on_c, 0, 68, 64
2, 29360, Note_on_c, 0, 49, 64
2, 29392, Note_on_c, 0, 52, 0
2, 29531, Note_on_c, 0, 54, 70
2, 29535, Note_on_c, 0, 68, 0
2, 29540, Note_on_c, 0, 69, 64
2, 29543, Note_on_c, 0, 49, 0
2, 29663, Note_on_c, 0, 54, 0
2, 29676, Note_on_c, 0, 52, 67
2, 29820, Note_on_c, 0, 69, 0
2, 29821, Note_on_c, 0, 51, 61
2, 29825, Note_on_c, 0, 70, 69
2, 29858, Note_on_c, 0, 52, 0
2, 29971, Note_on_c, 0, 49, 68
2, 29994, Note_on_c, 0, 51, 0
2, 30133, Note_on_c, 0, 49, 0
2, 30145, Note_on_c, 0, 71, 62
2, 30155, Note_on_c, 0, 70, 0
2, 30157, Note_on_c, 0, 47, 60
2, 30280, Note_on_c, 0, 47, 0
2, 30292, Note_on_c, 0, 49, 50
2, 30419, Note_on_c, 0, 49, 0
2, 30432, Note_on_c, 0, 76, 0
2, 30439, Note_on_c, 0, 47, 58
2, 30451, Note_on_c, 0, 75, 62
2, 30594, Note_on_c, 0, 46, 57
2, 30616, Note_on_c, 0, 47, 0
2, 30709, Note_on_c, 0, 46, 0
2, 30723, Note_on_c, 0, 44, 53
2, 30758, Note_on_c, 0, 76, 64
2, 30813, Note_on_c, 0, 75, 0
2, 30866, Note_on_c, 0, 49, 60
2, 30883, Note_on_c, 0, 44, 0
2, 31029, Note_on_c, 0, 47, 54
2, 31032, Note_on_c, 0, 49, 0
2, 31042, Note_on_c, 0, 77, 74
2, 31060, Note_on_c, 0, 76, 0
2, 31143, Note_on_c, 0, 47, 0
2, 31173, Note_on_c, 0, 49, 60
2, 31320, Note_on_c, 0, 42, 51
2, 31320, Note_on_c, 0, 49, 0
2, 31339, Note_on_c, 0, 78, 72
2, 31351, Note_on_c, 0, 77, 0
2, 31487, Note_on_c, 0, 49, 56
2, 31498, Note_on_c, 0, 42, 0
2, 31598, Note_on_c, 0, 49, 0
2, 31621, Note_on_c, 0, 71, 0
2, 31635, Note_on_c, 0, 54, 62
2, 31649, Note_on_c, 0, 70, 63
2, 31793, Note_on_c, 0, 52, 62
2, 31820, Note_on_c, 0, 54, 0
2, 31919, Note_on_c, 0, 70, 0
2, 31935, Note_on_c, 0, 71, 66
2, 31937, Note_on_c, 0, 52, 0
2, 31940, Note_on_c, 0, 51, 65
2, 32061, Note_on_c, 0, 51, 0
2, 32076, Note_on_c, 0, 56, 71
2, 32217, Note_on_c, 0, 71, 0
2, 32218, Note_on_c, 0, 54, 72
2, 32227, Note_on_c, 0, 56, 0
2, 32227, Note_on_c, 0, 72, 69
2, 32339, Note_on_c, 0, 54, 0
2, 32345, Note_on_c, 0, 56, 71
2, 32502, Note_on_c, 0, 56, 0
2, 32511, Note_on_c, 0, 72, 0
2, 32517, Note_on_c, 0, 49, 64
2, 32524, Note_on_c, 0, 73, 80
2, 32538, Note_on_c, 0, 78, 0
2, 32645, Note_on_c, 0, 49, 0
2, 32679, Note_on_c, 0, 51, 42
2, 32805, Note_on_c, 0, 77, 75
2, 32809, Note_on_c, 0, 49, 54
2, 32896, Note_on_c, 0, 51, 0
2, 32988, Note_on_c, 0, 47, 64
2, 32992, Note_on_c, 0, 49, 0
2, 33122, Note_on_c, 0, 47, 0
2, 33123, Note_on_c, 0, 78, 79
2, 33140, Note_on_c, 0, 46, 62
2, 33148, Note_on_c, 0, 77, 0
2, 33266, Note_on_c, 0, 51, 57
2, 33268, Note_on_c, 0, 46, 0
2, 33416, Note_on_c, 0, 79, 85
2, 33420, Note_on_c, 0, 49, 64
2, 33422, Note_on_c, 0, 51, 0
2, 33433, Note_on_c, 0, 78, 0
2, 33548, Note_on_c, 0, 49, 0
2, 33567, Note_on_c, 0, 51, 44
2, 33692, Note_on_c, 0, 51, 0
2, 33712, Note_on_c, 0, 79, 0
2, 33716, Note_on_c, 0, 44, 51
2, 33722, Note_on_c, 0, 73, 0
2, 33725, Note_on_c, 0, 80, 82
2, 33875, Note_on_c, 0, 73, 60
2, 34010, Note_on_c, 0, 73, 0
2, 34020, Note_on_c, 0, 51, 50
2, 34027, Note_on_c, 0, 44, 0
2, 34043, Note_on_c, 0, 71, 73
2, 34100, Note_on_c, 0, 51, 0
2, 34156, Note_on_c, 0, 71, 0
2, 34173, Note_on_c, 0, 70, 73
2, 34322, Note_on_c, 0, 56, 55
2, 34326, Note_on_c, 0, 70, 0
2, 34328, Note_on_c, 0, 71, 67
2, 34381, Note_on_c, 0, 56, 0
2, 34471, Note_on_c, 0, 75, 78
2, 34471, Note_on_c, 0, 80, 0
2, 34482, Note_on_c, 0, 71, 0
2, 34635, Note_on_c, 0, 80, 70
2, 34640, Note_on_c, 0, 75, 0
2, 34648, Note_on_c, 0, 47, 43
2, 34737, Note_on_c, 0, 47, 0
2, 34771, Note_on_c, 0, 78, 70
2, 34815, Note_on_c, 0, 80, 0
2, 34911, Note_on_c, 0, 78, 0
2, 34937, Note_on_c, 0, 49, 55
2, 34937, Note_on_c, 0, 76, 72
2, 35020, Note_on_c, 0, 49, 0
2, 35085, Note_on_c, 0, 75, 79
2, 35104, Note_on_c, 0, 76, 0
2, 35225, Note_on_c, 0, 51, 53
2, 35243, Note_on_c, 0, 73, 71
2, 35247, Note_on_c, 0, 75, 0
2, 35300, Note_on_c, 0, 51, 0
2, 35346, Note_on_c, 0, 73, 0
2, 35375, Note_on_c, 0, 71, 70
2, 35509, Note_on_c, 0, 52, 64
2, 35515, Note_on_c, 0, 71, 0
2, 35527, Note_on_c, 0, 70, 68
2, 35564, Note_on_c, 0, 52, 0
2, 35668, Note_on_c, 0, 71, 67
2, 35687, Note_on_c, 0, 70, 0
2, 35812, Note_on_c, 0, 46, 65
2, 35824, Note_on_c, 0, 73, 73
2, 35825, Note_on_c, 0, 71, 0
2, 35885, Note_on_c, 0, 46, 0
2, 35958, Note_on_c, 0, 68, 76
2, 35989, Note_on_c, 0, 73, 0
2, 36106, Note_on_c, 0, 68, 0
2, 36108, Note_on_c, 0, 51, 70
2, 36122, Note_on_c, 0, 67, 66
2, 36208, Note_on_c, 0, 51, 0
2, 36257, Note_on_c, 0, 68, 73
2, 36259, Note_on_c, 0, 67, 0
2, 36415, Note_on_c, 0, 70, 73
2, 36417, Note_on_c, 0, 68, 0
2, 36422, Note_on_c, 0, 49, 71
2, 36515, Note_on_c, 0, 70, 0
2, 36523, Note_on_c, 0, 49, 0
2, 36546, Note_on_c, 0, 64, 62
2, 36703, Note_on_c, 0, 47, 71
2, 36709, Note_on_c, 0, 64, 0
2, 36715, Note_on_c, 0, 63, 69
2, 36829, Note_on_c, 0, 47, 0
2, 36855, Note_on_c, 0, 63, 0
2, 36863, Note_on_c, 0, 61, 72
2, 36998, Note_on_c, 0, 43, 68
2, 37009, Note_on_c, 0, 61, 0
2, 37013, Note_on_c, 0, 59, 71
2, 37075, Note_on_c, 0, 43, 0
2, 37133, Note_on_c, 0, 59, 0
2, 37149, Note_on_c, 0, 58, 68
2, 37290, Note_on_c, 0, 44, 76
2, 37295, Note_on_c, 0, 58, 0
2, 37298, Note_on_c, 0, 59, 74
2, 37444, Note_on_c, 0, 59, 0
2, 37445, Note_on_c, 0, 44, 0
2, 37452, Note_on_c, 0, 63, 70
2, 37586, Note_on_c, 0, 40, 76
2, 37599, Note_on_c, 0, 63, 0
2, 37605, Note_on_c, 0, 68, 69
2, 37731, Note_on_c, 0, 59, 74
2, 37738, Note_on_c, 0, 68, 0
2, 37740, Note_on_c, 0, 40, 0
2, 37876, Note_on_c, 0, 59, 0
2, 37895, Note_on_c, 0, 37, 79
2, 37895, Note_on_c, 0, 58, 63
2, 38033, Note_on_c, 0, 58, 0
2, 38035, Note_on_c, 0, 68, 63
2, 38075, Note_on_c, 0, 37, 0
2, 38198, Note_on_c, 0, 68, 0
2, 38203, Note_on_c, 0, 58, 59
2, 38209, Note_on_c, 0, 39, 73
2, 38343, Note_on_c, 0, 58, 0
2, 38350, Note_on_c, 0, 39, 0
2, 38358, Note_on_c, 0, 67, 60
2, 38537, Note_on_c, 0, 67, 0
2, 38558, Note_on_c, 0, 68, 65
2, 38564, Note_on_c, 0, 44, 53
2, 38700, Note_on_c, 0, 59, 61
2, 38816, Note_on_c, 0, 68, 0
2, 38842, Note_on_c, 0, 59, 0
2, 38853, Note_on_c, 0, 61, 65
2, 38911, Note_on_c, 0, 44, 0
2, 38990, Note_on_c, 0, 61, 0
2, 39002, Note_on_c, 0, 63, 67
2, 39148, Note_on_c, 0, 63, 0
2, 39158, Note_on_c, 0, 56, 61
2, 39291, Note_on_c, 0, 51, 51
2, 39371, Note_on_c, 0, 56, 0
2, 39444, Note_on_c, 0, 53, 59
2, 39459, Note_on_c, 0, 51, 0
2, 39570, Note_on_c, 0, 53, 0
2, 39595, Note_on_c, 0, 55, 61
2, 39743, Note_on_c, 0, 55, 0
2, 39751, Note_on_c, 0, 56, 65
2, 39897, Note_on_c, 0, 58, 63
2, 39925, Note_on_c, 0, 56, 0
2, 40045, Note_on_c, 0, 59, 67
2, 40052, Note_on_c, 0, 58, 0
2, 40185, Note_on_c, 0, 61, 66
2, 40194, Note_on_c, 0, 59, 0
2, 40331, Note_on_c, 0, 61, 0
2, 40355, Note_on_c, 0, 59, 70
2, 40505, Note_on_c, 0, 58, 62
2, 40505, Note_on_c, 0, 59, 0
2, 40653, Note_on_c, 0, 56, 70
2, 40654, Note_on_c, 0, 58, 0
2, 40786, Note_on_c, 0, 54, 68
2, 40794, Note_on_c, 0, 56, 0
2, 40927, Note_on_c, 0, 37, 59
2, 40932, Note_on_c, 0, 54, 0
2, 40941, Note_on_c, 0, 53, 62
2, 41072, Note_on_c, 0, 53, 0
2, 41085, Note_on_c, 0, 56, 67
2, 41162, Note_on_c, 0, 37, 0
2, 41243, Note_on_c, 0, 58, 61
2, 41249, Note_on_c, 0, 56, 0
2, 41388, Note_on_c, 0, 58, 0
2, 41397, Note_on_c, 0, 59, 53
2, 41534, Note_on_c, 0, 49, 59
2, 41542, Note_on_c, 0, 59, 0
2, 41665, Note_on_c, 0, 49, 0
2, 41673, Note_on_c, 0, 51, 58
2, 41824, Note_on_c, 0, 53, 56
2, 41835, Note_on_c, 0, 51, 0
2, 41920, Note_on_c, 0, 53, 0
2, 41950, Note_on_c, 0, 54, 60
2, 42089, Note_on_c, 0, 54, 0
2, 42094, Note_on_c, 0, 56, 64
2, 42242, Note_on_c, 0, 58, 59
2, 42250, Note_on_c, 0, 56, 0
2, 42368, Note_on_c, 0, 58, 0
2, 42382, Note_on_c, 0, 59, 69
2, 42546, Note_on_c, 0, 61, 67
2, 42557, Note_on_c, 0, 59, 0
2, 42690, Note_on_c, 0, 63, 71
2, 42704, Note_on_c, 0, 61, 0
2, 42834, Note_on_c, 0, 65, 71
2, 42836, Note_on_c, 0, 63, 0
2, 42984, Note_on_c, 0, 66, 80
2, 42986, Note_on_c, 0, 65, 0
2, 43133, Note_on_c, 0, 68, 81
2, 43139, Note_on_c, 0, 66, 0
2, 43288, Note_on_c, 0, 42, 61
2, 43288, Note_on_c, 0, 70, 77
2, 43314, Note_on_c, 0, 68, 0
2, 43432, Note_on_c, 0, 66, 80
2, 43443, Note_on_c, 0, 70, 0
2, 43543, Note_on_c, 0, 42, 0
2, 43577, Note_on_c, 0, 66, 0
2, 43583, Note_on_c, 0, 65, 69
2, 43709, Note_on_c, 0, 65, 0
2, 43735, Note_on_c, 0, 63, 72
2, 43864, Note_on_c, 0, 63, 0
2, 43883, Note_on_c, 0, 61, 62
2, 44065, Note_on_c, 0, 61, 0
2, 44068, Note_on_c, 0, 59, 45
2, 44189, Note_on_c, 0, 59, 0
2, 44202, Note_on_c, 0, 58, 46
2, 44327, Note_on_c, 0, 56, 65
2, 44330, Note_on_c, 0, 58, 0
2, 44465, Note_on_c, 0, 54, 49
2, 44490, Note_on_c, 0, 56, 0
2, 44653, Note_on_c, 0, 57, 6
2, 44669, Note_on_c, 0, 54, 0
2, 44725, Note_on_c, 0, 57, 0
2, 44763, Note_on_c, 0, 58, 52
2, 44924, Note_on_c, 0, 59, 51
2, 44928, Note_on_c, 0, 58, 0
2, 45035, Note_on_c, 0, 59, 0
2, 45066, Note_on_c, 0, 58, 61
2, 45197, Note_on_c, 0, 56, 66
2, 45207, Note_on_c, 0, 58, 0
2, 45353, Note_on_c, 0, 54, 63
2, 45362, Note_on_c, 0, 56, 0
2, 45476, Note_on_c, 0, 54, 0
2, 45492, Note_on_c, 0, 52, 56
2, 45628, Note_on_c, 0, 52, 0
2, 45650, Note_on_c, 0, 51, 52
2, 45669, Note_on_c, 0, 35, 53
2, 45791, Note_on_c, 0, 51, 0
2, 45800, Note_on_c, 0, 54, 59
2, 45896, Note_on_c, 0, 35, 0
2, 45951, Note_on_c, 0, 56, 59
2, 45957, Note_on_c, 0, 54, 0
2, 46102, Note_on_c, 0, 56, 0
2, 46116, Note_on_c, 0, 57, 53
2, 46276, Note_on_c, 0, 47, 49
2, 46281, Note_on_c, 0, 57, 0
2, 46411, Note_on_c, 0, 47, 0
2, 46411, Note_on_c, 0, 49, 53
2, 46559, Note_on_c, 0, 49, 0
2, 46567, Note_on_c, 0, 51, 53
2, 46708, Note_on_c, 0, 52, 55
2, 46717, Note_on_c, 0, 51, 0
2, 46835, Note_on_c, 0, 52, 0
2, 46850, Note_on_c, 0, 54, 58
2, 46981, Note_on_c, 0, 54, 0
2, 46992, Note_on_c, 0, 56, 66
2, 47155, Note_on_c, 0, 57, 57
2, 47218, Note_on_c, 0, 56, 0
2, 47322, Note_on_c, 0, 59, 64
2, 47337, Note_on_c, 0, 57, 0
2, 47458, Note_on_c, 0, 61, 66
2, 47460, Note_on_c, 0, 59, 0
2, 47605, Note_on_c, 0, 63, 76
2, 47616, Note_on_c, 0, 61, 0
2, 47737, Note_on_c, 0, 63, 0
2, 47758, Note_on_c, 0, 64, 69
2, 47891, Note_on_c, 0, 64, 0
2, 47891, Note_on_c, 0, 66, 77
2, 48059, Note_on_c, 0, 68, 74
2, 48076, Note_on_c, 0, 40, 54
2, 48083, Note_on_c, 0, 66, 0
2, 48184, Note_on_c, 0, 68, 0
2, 48215, Note_on_c, 0, 64, 75
2, 48332, Note_on_c, 0, 64, 0
2, 48337, Note_on_c, 0, 40, 0
2, 48363, Note_on_c, 0, 63, 67
2, 48494, Note_on_c, 0, 63, 0
2, 48504, Note_on_c, 0, 61, 74
2, 48662, Note_on_c, 0, 59, 63
2, 48662, Note_on_c, 0, 61, 0
2, 48818, Note_on_c, 0, 57, 60
2, 48832, Note_on_c, 0, 59, 0
2, 48945, Note_on_c, 0, 57, 0
2, 48955, Note_on_c, 0, 56, 54
2, 49090, Note_on_c, 0, 56, 0
2, 49092, Note_on_c, 0, 54, 57
2, 49244, Note_on_c, 0, 54, 0
2, 49260, Note_on_c, 0, 52, 53
2, 49389, Note_on_c, 0, 63, 58
2, 49414, Note_on_c, 0, 52, 0
2, 49415, Note_on_c, 0, 54, 50
2, 49537, Note_on_c, 0, 54, 0
2, 49547, Note_on_c, 0, 56, 59
2, 49562, Note_on_c, 0, 64, 63
2, 49565, Note_on_c, 0, 63, 0
2, 49683, Note_on_c, 0, 56, 0
2, 49706, Note_on_c, 0, 57, 52
2, 49719, Note_on_c, 0, 64, 0
2, 49719, Note_on_c, 0, 66, 67
2, 49852, Note_on_c, 0, 56, 69
2, 49858, Note_on_c, 0, 57, 0
2, 49880, Note_on_c, 0, 64, 62
2, 49886, Note_on_c, 0, 66, 0
2, 49917, Note_on_c, 0, 65, 29
2, 49960, Note_on_c, 0, 65, 0
2, 49998, Note_on_c, 0, 56, 0
2, 50002, Note_on_c, 0, 54, 64
2, 50015, Note_on_c, 0, 63, 69
2, 50019, Note_on_c, 0, 64, 0
2, 50113, Note_on_c, 0, 54, 0
2, 50147, Note_on_c, 0, 52, 55
2, 50159, Note_on_c, 0, 63, 0
2, 50161, Note_on_c, 0, 61, 67
2, 50260, Note_on_c, 0, 52, 0
2, 50274, Note_on_c, 0, 61, 0
2, 50287, Note_on_c, 0, 51, 55
2, 50297, Note_on_c, 0, 59, 63
2, 50426, Note_on_c, 0, 51, 0
2, 50435, Note_on_c, 0, 59, 0
2, 50450, Note_on_c, 0, 58, 59
2, 50452, Note_on_c, 0, 49, 50
2, 50491, Note_on_c, 0, 42, 46
2, 50584, Note_on_c, 0, 58, 0
2, 50593, Note_on_c, 0, 61, 61
2, 50660, Note_on_c, 0, 42, 0
2, 50676, Note_on_c, 0, 49, 0
2, 50741, Note_on_c, 0, 61, 0
2, 50741, Note_on_c, 0, 63, 58
2, 50904, Note_on_c, 0, 64, 49
2, 50908, Note_on_c, 0, 63, 0
2, 51038, Note_on_c, 0, 54, 56
2, 51056, Note_on_c, 0, 64, 0
2, 51166, Note_on_c, 0, 54, 0
2, 51187, Note_on_c, 0, 56, 54
2, 51333, Note_on_c, 0, 56, 0
2, 51355, Note_on_c, 0, 58, 48
2, 51488, Note_on_c, 0, 59, 56
2, 51492, Note_on_c, 0, 58, 0
2, 51605, Note_on_c, 0, 59, 0
2, 51630, Note_on_c, 0, 61, 59
2, 51760, Note_on_c, 0, 61, 0
2, 51772, Note_on_c, 0, 63, 64
2, 51915, Note_on_c, 0, 64, 61
2, 51970, Note_on_c, 0, 63, 0
2, 52083, Note_on_c, 0, 66, 62
2, 52090, Note_on_c, 0, 64, 0
2, 52227, Note_on_c, 0, 68, 70
2, 52232, Note_on_c, 0, 66, 0
2, 52379, Note_on_c, 0, 70, 78
2, 52382, Note_on_c, 0, 68, 0
2, 52506, Note_on_c, 0, 70, 0
2, 52530, Note_on_c, 0, 71, 76
2, 52669, Note_on_c, 0, 71, 0
2, 52669, Note_on_c, 0, 73, 78
2, 52817, Note_on_c, 0, 75, 79
2, 52832, Note_on_c, 0, 73, 0
2, 52838, Note_on_c, 0, 47, 45
2, 52938, Note_on_c, 0, 75, 0
2, 52961, Note_on_c, 0, 71, 73
2, 53086, Note_on_c, 0, 47, 0
2, 53104, Note_on_c, 0, 70, 79
2, 53121, Note_on_c, 0, 71, 0
2, 53257, Note_on_c, 0, 68, 76
2, 53260, Note_on_c, 0, 70, 0
2, 53378, Note_on_c, 0, 68, 0
2, 53391, Note_on_c, 0, 66, 67
2, 53533, Note_on_c, 0, 64, 60
2, 53541, Note_on_c, 0, 66, 0
2, 53695, Note_on_c, 0, 63, 66
2, 53746, Note_on_c, 0, 64, 0
2, 53807, Note_on_c, 0, 61, 68
2, 53868, Note_on_c, 0, 63, 0
2, 53963, Note_on_c, 0, 61, 0
2, 53964, Note_on_c, 0, 59, 64
2, 54078, Note_on_c, 0, 59, 0
2, 54104, Note_on_c, 0, 63, 46
2, 54136, Note_on_c, 0, 75, 62
2, 54177, Note_on_c, 0, 75, 0
2, 54182, Note_on_c, 0, 76, 75
2, 54220, Note_on_c, 0, 63, 0
2, 54236, Note_on_c, 0, 54, 54
2, 54240, Note_on_c, 0, 78, 79
2, 54262, Note_on_c, 0, 76, 0
2, 54325, Note_on_c, 0, 78, 0
2, 54370, Note_on_c, 0, 63, 53
2, 54502, Note_on_c, 0, 63, 0
2, 54520, Note_on_c, 0, 59, 56
2, 54524, Note_on_c, 0, 76, 67
2, 54595, Note_on_c, 0, 54, 0
2, 54665, Note_on_c, 0, 75, 79
2, 54669, Note_on_c, 0, 76, 0
2, 54681, Note_on_c, 0, 63, 44
2, 54772, Note_on_c, 0, 75, 0
2, 54797, Note_on_c, 0, 63, 0
2, 54810, Note_on_c, 0, 73, 74
2, 54833, Note_on_c, 0, 54, 33
2, 54859, Note_on_c, 0, 59, 0
2, 54902, Note_on_c, 0, 73, 0
2, 54939, Note_on_c, 0, 71, 73
2, 54968, Note_on_c, 0, 63, 47
2, 55044, Note_on_c, 0, 63, 0
2, 55065, Note_on_c, 0, 54, 0
2, 55086, Note_on_c, 0, 56, 49
2, 55100, Note_on_c, 0, 71, 0
2, 55109, Note_on_c, 0, 83, 83
2, 55260, Note_on_c, 0, 59, 53
2, 55361, Note_on_c, 0, 59, 0
2, 55400, Note_on_c, 0, 51, 33
2, 55412, Note_on_c, 0, 56, 0
2, 55425, Note_on_c, 0, 80, 64
2, 55575, Note_on_c, 0, 59, 37
2, 55655, Note_on_c, 0, 80, 0
2, 55666, Note_on_c, 0, 59, 0
2, 55706, Note_on_c, 0, 56, 49
2, 55721, Note_on_c, 0, 75, 67
2, 55770, Note_on_c, 0, 51, 0
2, 55859, Note_on_c, 0, 59, 40
2, 55872, Note_on_c, 0, 56, 0
2, 55956, Note_on_c, 0, 75, 0
2, 55971, Note_on_c, 0, 59, 0
2, 55995, Note_on_c, 0, 51, 27
2, 55999, Note_on_c, 0, 78, 64
2, 56162, Note_on_c, 0, 59, 38
2, 56260, Note_on_c, 0, 59, 0
2, 56303, Note_on_c, 0, 78, 0
2, 56308, Note_on_c, 0, 56, 42
2, 56316, Note_on_c, 0, 51, 0
2, 56327, Note_on_c, 0, 77, 55
2, 56479, Note_on_c, 0, 61, 46
2, 56566, Note_on_c, 0, 61, 0
2, 56599, Note_on_c, 0, 80, 69
2, 56632, Note_on_c, 0, 53, 42
2, 56640, Note_on_c, 0, 83, 0
2, 56686, Note_on_c, 0, 77, 0
2, 56719, Note_on_c, 0, 56, 0
2, 56760, Note_on_c, 0, 80, 0
2, 56779, Note_on_c, 0, 61, 47
2, 56909, Note_on_c, 0, 61, 0
2, 56912, Note_on_c, 0, 56, 46
2, 56913, Note_on_c, 0, 78, 63
2, 56995, Note_on_c, 0, 53, 0
2, 57063, Note_on_c, 0, 77, 80
2, 57075, Note_on_c, 0, 61, 50
2, 57094, Note_on_c, 0, 78, 0
2, 57148, Note_on_c, 0, 61, 0
2, 57178, Note_on_c, 0, 77, 0
2, 57219, Note_on_c, 0, 75, 79
2, 57229, Note_on_c, 0, 53, 8
2, 57265, Note_on_c, 0, 56, 0
2, 57337, Note_on_c, 0, 75, 0
2, 57350, Note_on_c, 0, 61, 48
2, 57352, Note_on_c, 0, 73, 77
2, 57467, Note_on_c, 0, 61, 0
2, 57489, Note_on_c, 0, 73, 0
2, 57498, Note_on_c, 0, 54, 52
2, 57501, Note_on_c, 0, 53, 0
2, 57511, Note_on_c, 0, 82, 88
2, 57648, Note_on_c, 0, 54, 0
2, 57672, Note_on_c, 0, 58, 34
2, 57785, Note_on_c, 0, 58, 0
2, 57805, Note_on_c, 0, 49, 38
2, 57839, Note_on_c, 0, 78, 61
2, 57960, Note_on_c, 0, 58, 46
2, 58070, Note_on_c, 0, 78, 0
2, 58088, Note_on_c, 0, 58, 0
2, 58118, Note_on_c, 0, 54, 40
2, 58130, Note_on_c, 0, 73, 62
2, 58197, Note_on_c, 0, 49, 0
2, 58257, Note_on_c, 0, 58, 47
2, 58355, Note_on_c, 0, 58, 0
2, 58377, Note_on_c, 0, 49, 30
2, 58397, Note_on_c, 0, 54, 0
2, 58401, Note_on_c, 0, 73, 0
2, 58422, Note_on_c, 0, 76, 60
2, 58567, Note_on_c, 0, 58, 40
2, 58620, Note_on_c, 0, 49, 0
2, 58678, Note_on_c, 0, 58, 0
2, 58717, Note_on_c, 0, 54, 42
2, 58727, Note_on_c, 0, 76, 0
2, 58737, Note_on_c, 0, 75, 52
2, 58864, Note_on_c, 0, 54, 0
2, 58888, Note_on_c, 0, 59, 36
2, 58969, Note_on_c, 0, 59, 0
2, 58995, Note_on_c, 0, 82, 0
2, 59009, Note_on_c, 0, 75, 0
2, 59014, Note_on_c, 0, 51, 35
2, 59015, Note_on_c, 0, 78, 60
2, 59167, Note_on_c, 0, 78, 0
2, 59177, Note_on_c, 0, 59, 37
2, 59285, Note_on_c, 0, 59, 0
2, 59327, Note_on_c, 0, 51, 0
2, 59328, Note_on_c, 0, 76, 51
2, 59330, Note_on_c, 0, 54, 43
2, 59459, Note_on_c, 0, 76, 0
2, 59476, Note_on_c, 0, 75, 65
2, 59493, Note_on_c, 0, 59, 37
2, 59506, Note_on_c, 0, 54, 0
2, 59582, Note_on_c, 0, 59, 0
2, 59599, Note_on_c, 0, 75, 0
2, 59614, Note_on_c, 0, 73, 67
2, 59615, Note_on_c, 0, 51, 38
2, 59707, Note_on_c, 0, 73, 0
2, 59744, Note_on_c, 0, 71, 58
2, 59765, Note_on_c, 0, 59, 47
2, 59859, Note_on_c, 0, 59, 0
2, 59866, Note_on_c, 0, 51, 0
2, 59882, Note_on_c, 0, 71, 0
2, 59889, Note_on_c, 0, 77, 61
2, 59902, Note_on_c, 0, 56, 46
2, 60048, Note_on_c, 0, 78, 73
2, 60053, Note_on_c, 0, 77, 0
2, 60059, Note_on_c, 0, 61, 43
2, 60177, Note_on_c, 0, 61, 0
2, 60185, Note_on_c, 0, 78, 0
2, 60201, Note_on_c, 0, 80, 77
2, 60214, Note_on_c, 0, 53, 45
2, 60214, Note_on_c, 0, 56, 0
2, 60227, Note_on_c, 0, 71, 58
2, 60308, Note_on_c, 0, 71, 0
2, 60339, Note_on_c, 0, 70, 70
2, 60359, Note_on_c, 0, 61, 47
2, 60508, Note_on_c, 0, 53, 0
2, 60508, Note_on_c, 0, 56, 46
2, 60523, Note_on_c, 0, 71, 61
2, 60525, Note_on_c, 0, 61, 0
2, 60533, Note_on_c, 0, 70, 0
2, 60580, Control_c, 0, 64, 39
2, 60599, Control_c, 0, 64, 62
2, 60619, Control_c, 0, 64, 65
2, 60637, Control_c, 0, 64, 68
2, 60657, Control_c, 0, 64, 70
2, 60676, Control_c, 0, 64, 74
2, 60681, Note_on_c, 0, 61, 45
2, 60695, Control_c, 0, 64, 77
2, 60714, Control_c, 0, 64, 79
2, 60734, Control_c, 0, 64, 77
2, 60753, Control_c, 0, 64, 68
2, 60757, Note_on_c, 0, 61, 0
2, 60772, Control_c, 0, 64, 0
2, 60794, Note_on_c, 0, 53, 45
2, 60799, Note_on_c, 0, 73, 69
2, 60801, Note_on_c, 0, 80, 0
2, 60803, Note_on_c, 0, 56, 0
2, 60850, Note_on_c, 0, 71, 0
2, 60868, Control_c, 0, 64, 53
2, 60875, Note_on_c, 0, 53, 0
2, 60888, Control_c, 0, 64, 68
2, 60906, Control_c, 0, 64, 77
2, 60908, Note_on_c, 0, 73, 0
2, 60916, Note_on_c, 0, 61, 45
2, 60926, Control_c, 0, 64, 84
2, 60945, Control_c, 0, 64, 85
2, 60965, Control_c, 0, 64, 84
2, 61022, Control_c, 0, 64, 80
2, 61040, Control_c, 0, 64, 64
2, 61040, Note_on_c, 0, 61, 0
2, 61060, Control_c, 0, 64, 0
2, 61065, Note_on_c, 0, 79, 75
2, 61078, Note_on_c, 0, 58, 42
2, 61112, Note_on_c, 0, 80, 70
2, 61136, Note_on_c, 0, 79, 0
2, 61137, Control_c, 0, 64, 46
2, 61156, Control_c, 0, 64, 65
2, 61175, Control_c, 0, 64, 73
2, 61181, Note_on_c, 0, 82, 83
2, 61189, Note_on_c, 0, 80, 0
2, 61194, Control_c, 0, 64, 80
2, 61197, Note_on_c, 0, 63, 45
2, 61214, Control_c, 0, 64, 81
2, 61236, Note_on_c, 0, 82, 0
2, 61252, Control_c, 0, 64, 81
2, 61291, Control_c, 0, 64, 80
2, 61307, Note_on_c, 0, 58, 0
2, 61310, Control_c, 0, 64, 77
2, 61322, Note_on_c, 0, 63, 0
2, 61329, Control_c, 0, 64, 68
2, 61348, Control_c, 0, 64, 53
2, 61355, Note_on_c, 0, 55, 44
2, 61368, Control_c, 0, 64, 0
2, 61384, Note_on_c, 0, 70, 74
2, 61387, Note_on_c, 0, 73, 71
2, 61518, Note_on_c, 0, 70, 0
2, 61520, Note_on_c, 0, 68, 64
2, 61536, Note_on_c, 0, 63, 47
2, 61679, Note_on_c, 0, 68, 0
2, 61688, Note_on_c, 0, 70, 75
2, 61694, Note_on_c, 0, 63, 0
2, 61701, Note_on_c, 0, 58, 56
2, 61730, Note_on_c, 0, 55, 0
2, 61732, Control_c, 0, 64, 63
2, 61732, Note_on_c, 0, 70, 0
2, 61745, Note_on_c, 0, 73, 0
2, 61751, Control_c, 0, 64, 65
2, 61771, Control_c, 0, 64, 65
2, 61790, Control_c, 0, 64, 66
2, 61831, Note_on_c, 0, 63, 52
2, 61924, Control_c, 0, 64, 65
2, 61943, Control_c, 0, 64, 61
2, 61957, Note_on_c, 0, 63, 0
2, 61962, Control_c, 0, 64, 0
2, 61966, Note_on_c, 0, 58, 0
2, 61989, Note_on_c, 0, 55, 40
2, 61994, Note_on_c, 0, 82, 84
2, 62002, Note_on_c, 0, 73, 67
2, 62058, Control_c, 0, 64, 53
2, 62076, Control_c, 0, 64, 64
2, 62089, Note_on_c, 0, 73, 0
2, 62096, Control_c, 0, 64, 66
2, 62110, Note_on_c, 0, 82, 0
2, 62115, Control_c, 0, 64, 67
2, 62123, Note_on_c, 0, 63, 46
2, 62135, Control_c, 0, 64, 68
2, 62153, Control_c, 0, 64, 71
2, 62173, Control_c, 0, 64, 74
2, 62192, Control_c, 0, 64, 76
2, 62230, Control_c, 0, 64, 77
2, 62269, Control_c, 0, 64, 74
2, 62288, Control_c, 0, 64, 63
2, 62290, Note_on_c, 0, 63, 0
2, 62300, Note_on_c, 0, 59, 53
2, 62306, Note_on_c, 0, 73, 85
2, 62307, Control_c, 0, 64, 0
2, 62307, Note_on_c, 0, 82, 84
2, 62321, Note_on_c, 0, 55, 0
2, 62447, Note_on_c, 0, 63, 55
2, 62608, Note_on_c, 0, 56, 59
2, 62619, Note_on_c, 0, 71, 66
2, 62624, Note_on_c, 0, 80, 78
2, 62626, Note_on_c, 0, 63, 0
2, 62633, Control_c, 0, 64, 42
2, 62637, Note_on_c, 0, 73, 0
2, 62653, Control_c, 0, 64, 62
2, 62667, Note_on_c, 0, 71, 0
2, 62672, Control_c, 0, 64, 61
2, 62676, Note_on_c, 0, 82, 0
2, 62691, Control_c, 0, 64, 59
2, 62698, Note_on_c, 0, 59, 0
2, 62710, Control_c, 0, 64, 59
2, 62711, Note_on_c, 0, 80, 0
2, 62730, Control_c, 0, 64, 58
2, 62749, Control_c, 0, 64, 56
2, 62764, Note_on_c, 0, 63, 51
2, 62768, Control_c, 0, 64, 49
2, 62787, Control_c, 0, 64, 40
2, 62807, Control_c, 0, 64, 37
2, 62825, Control_c, 0, 64, 40
2, 62844, Control_c, 0, 64, 43
2, 62883, Control_c, 0, 64, 42
2, 62902, Control_c, 0, 64, 42
2, 62921, Control_c, 0, 64, 41
2, 62927, Note_on_c, 0, 59, 54
2, 62927, Note_on_c, 0, 63, 0
2, 62941, Control_c, 0, 64, 37
2, 62947, Note_on_c, 0, 80, 88
2, 62952, Note_on_c, 0, 75, 77
2, 62960, Control_c, 0, 64, 13
2, 62979, Control_c, 0, 64, 0
2, 62990, Note_on_c, 0, 56, 0
2, 63084, Note_on_c, 0, 63, 55
2, 63152, Control_c, 0, 64, 33
2, 63170, Note_on_c, 0, 75, 0
2, 63171, Control_c, 0, 64, 50
2, 63190, Control_c, 0, 64, 56
2, 63210, Control_c, 0, 64, 59
2, 63216, Note_on_c, 0, 56, 53
2, 63221, Note_on_c, 0, 63, 0
2, 63229, Control_c, 0, 64, 62
2, 63248, Control_c, 0, 64, 63
2, 63255, Note_on_c, 0, 78, 82
2, 63264, Note_on_c, 0, 75, 56
2, 63264, Note_on_c, 0, 80, 0
2, 63267, Control_c, 0, 64, 64
2, 63316, Note_on_c, 0, 59, 0
2, 63339, Note_on_c, 0, 75, 0
2, 63363, Control_c, 0, 64, 63
2, 63374, Note_on_c, 0, 78, 0
2, 63382, Control_c, 0, 64, 63
2, 63392, Note_on_c, 0, 63, 46
2, 63401, Control_c, 0, 64, 62
2, 63421, Control_c, 0, 64, 62
2, 63440, Control_c, 0, 64, 61
2, 63459, Control_c, 0, 64, 59
2, 63478, Control_c, 0, 64, 53
2, 63498, Control_c, 0, 64, 19
2, 63516, Control_c, 0, 64, 0
2, 63528, Note_on_c, 0, 63, 0
2, 63544, Note_on_c, 0, 80, 83
2, 63545, Note_on_c, 0, 60, 56
2, 63564, Note_on_c, 0, 75, 61
2, 63670, Control_c, 0, 64, 24
2, 63688, Note_on_c, 0, 63, 54
2, 63690, Control_c, 0, 64, 44
2, 63701, Note_on_c, 0, 80, 0
2, 63709, Control_c, 0, 64, 50
2, 63717, Note_on_c, 0, 56, 0
2, 63726, Note_on_c, 0, 78, 73
2, 63747, Control_c, 0, 64, 51
2, 63767, Control_c, 0, 64, 53
2, 63785, Control_c, 0, 64, 54
2, 63785, Note_on_c, 0, 78, 0
2, 63803, Note_on_c, 0, 63, 0
2, 63804, Control_c, 0, 64, 55
2, 63818, Note_on_c, 0, 80, 71
2, 63832, Note_on_c, 0, 57, 46
2, 63838, Note_on_c, 0, 60, 0
2, 63843, Control_c, 0, 64, 55
2, 63858, Note_on_c, 0, 80, 0
2, 63862, Control_c, 0, 64, 56
2, 63893, Note_on_c, 0, 78, 71
2, 63946, Control_c, 0, 64, 56
2, 63948, Note_on_c, 0, 78, 0
2, 63959, Note_on_c, 0, 80, 77
2, 63964, Control_c, 0, 64, 57
2, 63973, Note_on_c, 0, 63, 47
2, 63984, Control_c, 0, 64, 56
2, 64003, Control_c, 0, 64, 56
2, 64003, Note_on_c, 0, 80, 0
2, 64023, Control_c, 0, 64, 55
2, 64031, Note_on_c, 0, 78, 69
2, 64061, Control_c, 0, 64, 55
2, 64062, Note_on_c, 0, 63, 0
2, 64074, Note_on_c, 0, 60, 44
2, 64082, Note_on_c, 0, 75, 0
2, 64087, Note_on_c, 0, 78, 0
2, 64100, Control_c, 0, 64, 54
2, 64118, Control_c, 0, 64, 54
2, 64118, Note_on_c, 0, 80, 69
2, 64138, Control_c, 0, 64, 53
2, 64157, Control_c, 0, 64, 53
2, 64160, Note_on_c, 0, 57, 0
2, 64161, Note_on_c, 0, 80, 0
2, 64176, Control_c, 0, 64, 52
2, 64184, Note_on_c, 0, 78, 60
2, 64195, Control_c, 0, 64, 51
2, 64215, Control_c, 0, 64, 48
2, 64217, Note_on_c, 0, 63, 35
2, 64234, Control_c, 0, 64, 46
2, 64235, Note_on_c, 0, 78, 0
2, 64237, Note_on_c, 0, 80, 81
2, 64253, Control_c, 0, 64, 45
2, 64272, Control_c, 0, 64, 43
2, 64280, Note_on_c, 0, 80, 0
2, 64292, Control_c, 0, 64, 37
2, 64310, Control_c, 0, 64, 28
2, 64311, Note_on_c, 0, 63, 0
2, 64311, Note_on_c, 0, 78, 79
2, 64327, Note_on_c, 0, 57, 31
2, 64330, Control_c, 0, 64, 21
2, 64349, Control_c, 0, 64, 18
2, 64369, Control_c, 0, 64, 11
2, 64387, Control_c, 0, 64, 0
2, 64420, Note_on_c, 0, 77, 73
2, 64443, Note_on_c, 0, 78, 0
2, 64444, Control_c, 0, 64, 19
2, 64457, Control_c, 0, 64, 28
2, 64469, Note_on_c, 0, 60, 0
2, 64475, Control_c, 0, 64, 36
2, 64486, Note_on_c, 0, 63, 40
2, 64495, Control_c, 0, 64, 45
2, 64514, Control_c, 0, 64, 53
2, 64534, Control_c, 0, 64, 58
2, 64543, Note_on_c, 0, 77, 0
2, 64552, Control_c, 0, 64, 61
2, 64560, Note_on_c, 0, 78, 69
2, 64572, Control_c, 0, 64, 63
2, 64591, Control_c, 0, 64, 64
2, 64599, Note_on_c, 0, 78, 0
2, 64610, Control_c, 0, 64, 65
2, 64687, Control_c, 0, 64, 65
2, 64726, Control_c, 0, 64, 64
2, 64734, Note_on_c, 0, 58, 46
2, 64744, Note_on_c, 0, 77, 75
2, 64745, Control_c, 0, 64, 62
2, 64751, Note_on_c, 0, 57, 0
2, 64752, Note_on_c, 0, 63, 0
2, 64763, Control_c, 0, 64, 54
2, 64783, Control_c, 0, 64, 34
2, 64802, Control_c, 0, 64, 0
2, 64924, Note_on_c, 0, 75, 68
2, 65070, Note_on_c, 0, 74, 54
2, 65090, Note_on_c, 0, 75, 0
2, 65206, Note_on_c, 0, 74, 0
2, 65218, Note_on_c, 0, 72, 63
2, 65347, Note_on_c, 0, 72, 0
2, 65367, Note_on_c, 0, 74, 61
2, 65510, Note_on_c, 0, 74, 0
2, 65519, Note_on_c, 0, 70, 62
2, 65617, Note_on_c, 0, 58, 0
2, 65628, Control_c, 0, 64, 29
2, 65647, Control_c, 0, 64, 53
2, 65658, Note_on_c, 0, 70, 0
2, 65666, Control_c, 0, 64, 57
2, 65686, Control_c, 0, 64, 58
2, 65687, Note_on_c, 0, 71, 65
2, 65705, Control_c, 0, 64, 60
2, 65723, Control_c, 0, 64, 62
2, 65781, Control_c, 0, 64, 61
2, 65784, Note_on_c, 0, 71, 0
2, 65800, Control_c, 0, 64, 61
2, 65820, Control_c, 0, 64, 60
2, 65820, Note_on_c, 0, 68, 61
2, 65839, Control_c, 0, 64, 60
2, 65858, Control_c, 0, 64, 59
2, 65873, Note_on_c, 0, 77, 0
2, 65880, Control_c, 0, 64, 59
2, 65900, Control_c, 0, 64, 58
2, 65918, Control_c, 0, 64, 57
2, 65938, Control_c, 0, 64, 55
2, 65957, Control_c, 0, 64, 54
2, 65957, Note_on_c, 0, 68, 0
2, 65976, Control_c, 0, 64, 52
2, 65987, Note_on_c, 0, 65, 47
2, 65995, Control_c, 0, 64, 51
2, 66014, Control_c, 0, 64, 50
2, 66034, Control_c, 0, 64, 47
2, 66052, Control_c, 0, 64, 42
2, 66072, Control_c, 0, 64, 32
2, 66091, Control_c, 0, 64, 18
2, 66111, Control_c, 0, 64, 0
2, 66112, Note_on_c, 0, 65, 0
2, 66124, Note_on_c, 0, 51, 46
2, 66127, Note_on_c, 0, 66, 57
2, 66271, Note_on_c, 0, 53, 59
2, 66278, Note_on_c, 0, 51, 0
2, 66279, Note_on_c, 0, 68, 65
2, 66284, Note_on_c, 0, 66, 0
2, 66416, Note_on_c, 0, 54, 72
2, 66425, Note_on_c, 0, 53, 0
2, 66430, Note_on_c, 0, 70, 65
2, 66445, Note_on_c, 0, 68, 0
2, 66567, Note_on_c, 0, 54, 0
2, 66587, Note_on_c, 0, 53, 65
2, 66591, Note_on_c, 0, 68, 75
2, 66593, Note_on_c, 0, 70, 0
2, 66726, Note_on_c, 0, 68, 0
2, 66732, Note_on_c, 0, 66, 66
2, 66738, Note_on_c, 0, 51, 52
2, 66749, Note_on_c, 0, 53, 0
2, 66873, Note_on_c, 0, 66, 0
2, 66875, Note_on_c, 0, 51, 0
2, 66894, Note_on_c, 0, 65, 59
2, 66912, Note_on_c, 0, 50, 63
2, 67015, Note_on_c, 0, 65, 0
2, 67024, Note_on_c, 0, 50, 0
2, 67038, Note_on_c, 0, 48, 57
2, 67038, Note_on_c, 0, 63, 53
2, 67176, Note_on_c, 0, 63, 0
2, 67198, Note_on_c, 0, 48, 0
2, 67209, Note_on_c, 0, 62, 49
2, 67239, Note_on_c, 0, 46, 48
2, 67241, Note_on_c, 0, 53, 39
2, 67352, Note_on_c, 0, 62, 0
2, 67371, Note_on_c, 0, 65, 55
2, 67407, Note_on_c, 0, 46, 0
2, 67407, Note_on_c, 0, 53, 0
2, 67512, Note_on_c, 0, 65, 0
2, 67523, Note_on_c, 0, 66, 61
2, 67669, Note_on_c, 0, 68, 62
2, 67685, Note_on_c, 0, 66, 0
2, 67811, Note_on_c, 0, 68, 0
2, 67820, Note_on_c, 0, 58, 52
2, 67970, Note_on_c, 0, 58, 0
2, 67990, Note_on_c, 0, 60, 51
2, 68130, Note_on_c, 0, 60, 0
2, 68136, Note_on_c, 0, 62, 40
2, 68284, Note_on_c, 0, 63, 56
2, 68309, Note_on_c, 0, 62, 0
2, 68425, Note_on_c, 0, 63, 0
2, 68434, Note_on_c, 0, 65, 59
2, 68579, Note_on_c, 0, 66, 61
2, 68589, Note_on_c, 0, 65, 0
2, 68707, Note_on_c, 0, 68, 62
2, 68728, Note_on_c, 0, 66, 0
2, 68862, Note_on_c, 0, 70, 69
2, 68877, Note_on_c, 0, 68, 0
2, 69035, Note_on_c, 0, 72, 66
2, 69055, Note_on_c, 0, 70, 0
2, 69198, Note_on_c, 0, 74, 75
2, 69206, Note_on_c, 0, 72, 0
2, 69357, Note_on_c, 0, 74, 0
2, 69359, Note_on_c, 0, 75, 76
2, 69496, Note_on_c, 0, 77, 75
2, 69500, Note_on_c, 0, 75, 0
2, 69642, Note_on_c, 0, 51, 58
2, 69656, Note_on_c, 0, 77, 0
2, 69665, Note_on_c, 0, 78, 73
2, 69813, Control_c, 0, 64, 24
2, 69821, Note_on_c, 0, 75, 73
2, 69832, Control_c, 0, 64, 49
2, 69851, Control_c, 0, 64, 58
2, 69871, Control_c, 0, 64, 59
2, 69877, Note_on_c, 0, 51, 0
2, 69887, Note_on_c, 0, 78, 0
2, 69889, Control_c, 0, 64, 60
2, 69909, Control_c, 0, 64, 62
2, 69928, Control_c, 0, 64, 62
2, 69963, Note_on_c, 0, 70, 72
2, 69965, Note_on_c, 0, 75, 0
2, 69966, Control_c, 0, 64, 62
2, 69986, Control_c, 0, 64, 61
2, 70005, Control_c, 0, 64, 61
2, 70025, Control_c, 0, 64, 60
2, 70043, Control_c, 0, 64, 59
2, 70063, Control_c, 0, 64, 58
2, 70082, Control_c, 0, 64, 58
2, 70095, Note_on_c, 0, 70, 0
2, 70101, Control_c, 0, 64, 57
2, 70108, Note_on_c, 0, 66, 64
2, 70120, Control_c, 0, 64, 56
2, 70140, Control_c, 0, 64, 54
2, 70159, Control_c, 0, 64, 52
2, 70178, Control_c, 0, 64, 50
2, 70197, Control_c, 0, 64, 49
2, 70218, Control_c, 0, 64, 49
2, 70236, Control_c, 0, 64, 47
2, 70243, Note_on_c, 0, 66, 0
2, 70255, Control_c, 0, 64, 43
2, 70274, Note_on_c, 0, 63, 58
2, 70275, Control_c, 0, 64, 39
2, 70294, Control_c, 0, 64, 37
2, 70332, Control_c, 0, 64, 36
2, 70352, Control_c, 0, 64, 35
2, 70370, Control_c, 0, 64, 32
2, 70390, Control_c, 0, 64, 31
2, 70409, Control_c, 0, 64, 31
2, 70426, Note_on_c, 0, 61, 56
2, 70429, Control_c, 0, 64, 29
2, 70447, Control_c, 0, 64, 26
2, 70467, Control_c, 0, 64, 25
2, 70479, Note_on_c, 0, 63, 0
2, 70505, Control_c, 0, 64, 24
2, 70524, Control_c, 0, 64, 23
2, 70544, Control_c, 0, 64, 21
2, 70559, Note_on_c, 0, 60, 57
2, 70563, Control_c, 0, 64, 20
2, 70570, Note_on_c, 0, 61, 0
2, 70601, Control_c, 0, 64, 19
2, 70621, Control_c, 0, 64, 18
2, 70694, Note_on_c, 0, 60, 0
2, 70715, Note_on_c, 0, 58, 59
2, 70848, Note_on_c, 0, 58, 0
2, 70875, Note_on_c, 0, 60, 54
2, 70902, Note_on_c, 0, 56, 43
2, 71021, Note_on_c, 0, 60, 0
2, 71031, Note_on_c, 0, 63, 54
2, 71064, Control_c, 0, 64, 17
2, 71198, Note_on_c, 0, 68, 56
2, 71203, Note_on_c, 0, 63, 0
2, 71289, Note_on_c, 0, 56, 0
2, 71349, Note_on_c, 0, 72, 56
2, 71366, Note_on_c, 0, 68, 0
2, 71490, Note_on_c, 0, 72, 0
2, 71505, Note_on_c, 0, 75, 60
2, 71636, Note_on_c, 0, 75, 0
2, 71652, Note_on_c, 0, 78, 66
2, 71809, Note_on_c, 0, 78, 0
2, 71810, Control_c, 0, 64, 15
2, 71814, Note_on_c, 0, 76, 65
2, 71830, Control_c, 0, 64, 9
2, 71869, Control_c, 0, 64, 0
2, 71922, Note_on_c, 0, 76, 0
2, 71946, Note_on_c, 0, 75, 64
2, 72087, Note_on_c, 0, 75, 0
2, 72090, Note_on_c, 0, 56, 47
2, 72103, Note_on_c, 0, 49, 50
2, 72108, Note_on_c, 0, 76, 60
2, 72245, Note_on_c, 0, 76, 0
2, 72252, Control_c, 0, 64, 31
2, 72260, Note_on_c, 0, 73, 61
2, 72272, Control_c, 0, 64, 50
2, 72290, Control_c, 0, 64, 56
2, 72303, Note_on_c, 0, 49, 0
2, 72310, Control_c, 0, 64, 58
2, 72329, Control_c, 0, 64, 59
2, 72332, Note_on_c, 0, 56, 0
2, 72349, Control_c, 0, 64, 61
2, 72367, Control_c, 0, 64, 61
2, 72387, Control_c, 0, 64, 61
2, 72406, Control_c, 0, 64, 60
2, 72406, Note_on_c, 0, 73, 0
2, 72412, Note_on_c, 0, 68, 60
2, 72425, Control_c, 0, 64, 59
2, 72444, Control_c, 0, 64, 58
2, 72464, Control_c, 0, 64, 57
2, 72483, Control_c, 0, 64, 56
2, 72502, Control_c, 0, 64, 55
2, 72521, Control_c, 0, 64, 54
2, 72541, Control_c, 0, 64, 53
2, 72541, Note_on_c, 0, 68, 0
2, 72560, Control_c, 0, 64, 51
2, 72569, Note_on_c, 0, 64, 53
2, 72579, Control_c, 0, 64, 50
2, 72598, Control_c, 0, 64, 49
2, 72617, Control_c, 0, 64, 48
2, 72636, Control_c, 0, 64, 46
2, 72655, Control_c, 0, 64, 43
2, 72675, Control_c, 0, 64, 41
2, 72694, Control_c, 0, 64, 40
2, 72697, Note_on_c, 0, 64, 0
2, 72713, Control_c, 0, 64, 39
2, 72715, Note_on_c, 0, 61, 52
2, 72732, Control_c, 0, 64, 37
2, 72752, Control_c, 0, 64, 35
2, 72770, Control_c, 0, 64, 31
2, 72790, Control_c, 0, 64, 29
2, 72809, Control_c, 0, 64, 27
2, 72829, Control_c, 0, 64, 24
2, 72847, Control_c, 0, 64, 22
2, 72849, Note_on_c, 0, 59, 49
2, 72867, Control_c, 0, 64, 20
2, 72870, Note_on_c, 0, 61, 0
2, 72886, Control_c, 0, 64, 17
2, 72905, Control_c, 0, 64, 13
2, 72924, Control_c, 0, 64, 0
2, 73009, Note_on_c, 0, 59, 0
2, 73015, Note_on_c, 0, 58, 56
2, 73135, Note_on_c, 0, 58, 0
2, 73162, Note_on_c, 0, 56, 57
2, 73306, Note_on_c, 0, 56, 0
2, 73330, Note_on_c, 0, 58, 55
2, 73336, Note_on_c, 0, 54, 45
2, 73457, Note_on_c, 0, 58, 0
2, 73478, Note_on_c, 0, 61, 55
2, 73542, Note_on_c, 0, 54, 0
2, 73650, Note_on_c, 0, 66, 52
2, 73669, Note_on_c, 0, 61, 0
2, 73796, Note_on_c, 0, 70, 61
2, 73805, Note_on_c, 0, 66, 0
2, 73941, Note_on_c, 0, 70, 0
2, 73953, Note_on_c, 0, 73, 63
2, 74105, Note_on_c, 0, 73, 0
2, 74116, Note_on_c, 0, 76, 62
2, 74240, Note_on_c, 0, 76, 0
2, 74262, Note_on_c, 0, 75, 60
2, 74390, Note_on_c, 0, 75, 0
2, 74399, Note_on_c, 0, 73, 60
2, 74548, Note_on_c, 0, 73, 0
2, 74555, Note_on_c, 0, 54, 42
2, 74560, Note_on_c, 0, 75, 62
2, 74571, Note_on_c, 0, 47, 34
2, 74721, Note_on_c, 0, 75, 0
2, 74722, Note_on_c, 0, 71, 59
2, 74784, Note_on_c, 0, 47, 0
2, 74814, Note_on_c, 0, 54, 0
2, 74854, Note_on_c, 0, 71, 0
2, 74875, Note_on_c, 0, 66, 56
2, 75008, Note_on_c, 0, 66, 0
2, 75029, Note_on_c, 0, 63, 47
2, 75169, Note_on_c, 0, 59, 50
2, 75175, Note_on_c, 0, 63, 0
2, 75290, Note_on_c, 0, 59, 0
2, 75308, Note_on_c, 0, 57, 46
2, 75448, Note_on_c, 0, 57, 0
2, 75471, Note_on_c, 0, 56, 52
2, 75610, Note_on_c, 0, 56, 0
2, 75620, Note_on_c, 0, 54, 54
2, 75765, Note_on_c, 0, 54, 0
2, 75793, Note_on_c, 0, 56, 51
2, 75817, Note_on_c, 0, 53, 39
2, 75933, Note_on_c, 0, 56, 0
2, 75964, Note_on_c, 0, 59, 47
2, 76055, Note_on_c, 0, 53, 0
2, 76088, Note_on_c, 0, 59, 0
2, 76145, Note_on_c, 0, 62, 37
2, 76215, Note_on_c, 0, 62, 0
2, 76250, Note_on_c, 0, 65, 51
2, 76386, Note_on_c, 0, 65, 0
2, 76400, Note_on_c, 0, 68, 57
2, 76528, Note_on_c, 0, 68, 0
2, 76545, Note_on_c, 0, 71, 64
2, 76677, Note_on_c, 0, 71, 0
2, 76694, Note_on_c, 0, 70, 67
2, 76822, Note_on_c, 0, 70, 0
2, 76833, Note_on_c, 0, 68, 69
2, 76981, Note_on_c, 0, 68, 0
2, 76993, Note_on_c, 0, 70, 61
2, 77004, Note_on_c, 0, 54, 54
2, 77069, Note_on_c, 0, 54, 0
2, 77117, Note_on_c, 0, 70, 0
2, 77136, Note_on_c, 0, 63, 60
2, 77263, Note_on_c, 0, 63, 0
2, 77286, Note_on_c, 0, 64, 58
2, 77298, Note_on_c, 0, 42, 47
2, 77395, Note_on_c, 0, 64, 0
2, 77414, Note_on_c, 0, 42, 0
2, 77422, Note_on_c, 0, 73, 64
2, 77568, Note_on_c, 0, 73, 0
2, 77582, Note_on_c, 0, 70, 62
2, 77601, Note_on_c, 0, 46, 51
2, 77660, Note_on_c, 0, 46, 0
2, 77701, Note_on_c, 0, 70, 0
2, 77719, Note_on_c, 0, 73, 62
2, 77856, Note_on_c, 0, 73, 0
2, 77869, Note_on_c, 0, 49, 58
2, 77874, Note_on_c, 0, 64, 60
2, 77937, Note_on_c, 0, 49, 0
2, 77992, Note_on_c, 0, 64, 0
2, 78005, Note_on_c, 0, 73, 66
2, 78163, Note_on_c, 0, 70, 67
2, 78173, Note_on_c, 0, 73, 0
2, 78174, Note_on_c, 0, 54, 60
2, 78229, Note_on_c, 0, 54, 0
2, 78297, Note_on_c, 0, 63, 62
2, 78304, Note_on_c, 0, 70, 0
2, 78441, Note_on_c, 0, 63, 0
2, 78465, Note_on_c, 0, 58, 68
2, 78466, Note_on_c, 0, 64, 62
2, 78547, Note_on_c, 0, 58, 0
2, 78577, Note_on_c, 0, 64, 0
2, 78590, Note_on_c, 0, 73, 61
2, 78726, Note_on_c, 0, 73, 0
2, 78732, Note_on_c, 0, 70, 69
2, 78758, Note_on_c, 0, 61, 70
2, 78872, Note_on_c, 0, 70, 0
2, 78878, Note_on_c, 0, 73, 67
2, 78882, Note_on_c, 0, 61, 0
2, 79024, Note_on_c, 0, 73, 0
2, 79045, Note_on_c, 0, 58, 73
2, 79047, Note_on_c, 0, 64, 70
2, 79116, Note_on_c, 0, 58, 0
2, 79165, Note_on_c, 0, 64, 0
2, 79182, Note_on_c, 0, 73, 71
2, 79315, Note_on_c, 0, 73, 0
2, 79344, Note_on_c, 0, 66, 67
2, 79349, Note_on_c, 0, 59, 75
2, 79463, Note_on_c, 0, 59, 0
2, 79471, Note_on_c, 0, 61, 62
2, 79471, Note_on_c, 0, 66, 0
2, 79594, Note_on_c, 0, 61, 0
2, 79632, Note_on_c, 0, 54, 63
2, 79634, Note_on_c, 0, 62, 60
2, 79731, Note_on_c, 0, 54, 0
2, 79737, Note_on_c, 0, 62, 0
2, 79754, Note_on_c, 0, 73, 67
2, 79907, Note_on_c, 0, 73, 0
2, 79908, Note_on_c, 0, 66, 67
2, 79916, Note_on_c, 0, 50, 65
2, 79969, Note_on_c, 0, 50, 0
2, 80043, Note_on_c, 0, 66, 0
2, 80045, Note_on_c, 0, 73, 72
2, 80143, Control_c, 0, 64, 9
2, 80162, Control_c, 0, 64, 11
2, 80191, Note_on_c, 0, 54, 70
2, 80200, Control_c, 0, 64, 13
2, 80210, Note_on_c, 0, 62, 63
2, 80210, Note_on_c, 0, 73, 0
2, 80220, Control_c, 0, 64, 15
2, 80260, Control_c, 0, 64, 17
2, 80274, Note_on_c, 0, 54, 0
2, 80279, Control_c, 0, 64, 18
2, 80317, Control_c, 0, 64, 19
2, 80317, Note_on_c, 0, 62, 0
2, 80336, Control_c, 0, 64, 20
2, 80346, Note_on_c, 0, 73, 70
2, 80356, Control_c, 0, 64, 21
2, 80374, Control_c, 0, 64, 22
2, 80433, Control_c, 0, 64, 23
2, 80484, Note_on_c, 0, 73, 0
2, 80501, Note_on_c, 0, 50, 63
2, 80504, Note_on_c, 0, 66, 65
2, 80586, Control_c, 0, 64, 24
2, 80610, Note_on_c, 0, 50, 0
2, 80638, Note_on_c, 0, 66, 0
2, 80651, Note_on_c, 0, 61, 54
2, 80765, Note_on_c, 0, 61, 0
2, 80792, Note_on_c, 0, 47, 58
2, 80792, Note_on_c, 0, 62, 56
2, 80857, Note_on_c, 0, 47, 0
2, 80891, Note_on_c, 0, 62, 0
2, 80918, Note_on_c, 0, 71, 61
2, 80929, Control_c, 0, 64, 23
2, 80987, Control_c, 0, 64, 22
2, 81044, Control_c, 0, 64, 21
2, 81050, Note_on_c, 0, 71, 0
2, 81067, Note_on_c, 0, 50, 67
2, 81078, Note_on_c, 0, 66, 59
2, 81082, Control_c, 0, 64, 20
2, 81102, Control_c, 0, 64, 19
2, 81121, Control_c, 0, 64, 18
2, 81169, Note_on_c, 0, 50, 0
2, 81178, Control_c, 0, 64, 17
2, 81203, Note_on_c, 0, 66, 0
2, 81212, Note_on_c, 0, 71, 61
2, 81216, Control_c, 0, 64, 15
2, 81236, Control_c, 0, 64, 11
2, 81255, Control_c, 0, 64, 0
2, 81334, Note_on_c, 0, 71, 0
2, 81350, Note_on_c, 0, 54, 60
2, 81360, Note_on_c, 0, 62, 61
2, 81402, Note_on_c, 0, 54, 0
2, 81447, Control_c, 0, 64, 48
2, 81462, Note_on_c, 0, 62, 0
2, 81467, Control_c, 0, 64, 57
2, 81485, Control_c, 0, 64, 59
2, 81489, Note_on_c, 0, 71, 64
2, 81505, Control_c, 0, 64, 60
2, 81524, Control_c, 0, 64, 61
2, 81563, Note_on_c, 0, 71, 0
2, 81601, Control_c, 0, 64, 60
2, 81619, Control_c, 0, 64, 59
2, 81639, Control_c, 0, 64, 51
2, 81658, Control_c, 0, 64, 29
2, 81659, Note_on_c, 0, 42, 65
2, 81674, Note_on_c, 0, 62, 58
2, 81678, Control_c, 0, 64, 0
2, 81725, Note_on_c, 0, 42, 0
2, 81735, Control_c, 0, 64, 37
2, 81755, Control_c, 0, 64, 54
2, 81773, Control_c, 0, 64, 56
2, 81792, Note_on_c, 0, 62, 0
2, 81815, Note_on_c, 0, 58, 63
2, 81831, Control_c, 0, 64, 56
2, 81850, Control_c, 0, 64, 55
2, 81870, Control_c, 0, 64, 54
2, 81889, Control_c, 0, 64, 47
2, 81908, Control_c, 0, 64, 36
2, 81927, Control_c, 0, 64, 21
2, 81928, Note_on_c, 0, 58, 0
2, 81947, Control_c, 0, 64, 0
2, 81964, Note_on_c, 0, 59, 57
2, 81965, Note_on_c, 0, 56, 68
2, 81972, Note_on_c, 0, 42, 54
2, 82004, Control_c, 0, 64, 23
2, 82024, Control_c, 0, 64, 35
2, 82042, Control_c, 0, 64, 41
2, 82058, Note_on_c, 0, 42, 0
2, 82062, Control_c, 0, 64, 47
2, 82067, Note_on_c, 0, 56, 0
2, 82070, Note_on_c, 0, 59, 0
2, 82081, Control_c, 0, 64, 52
2, 82095, Note_on_c, 0, 65, 53
2, 82099, Control_c, 0, 64, 54
2, 82119, Control_c, 0, 64, 54
2, 82177, Control_c, 0, 64, 54
2, 82197, Control_c, 0, 64, 49
2, 82216, Control_c, 0, 64, 28
2, 82224, Note_on_c, 0, 65, 0
2, 82235, Control_c, 0, 64, 0
2, 82259, Note_on_c, 0, 62, 58
2, 82261, Note_on_c, 0, 56, 66
2, 82267, Note_on_c, 0, 42, 58
2, 82369, Note_on_c, 0, 42, 0
2, 82369, Note_on_c, 0, 56, 0
2, 82370, Control_c, 0, 64, 28
2, 82377, Note_on_c, 0, 62, 0
2, 82386, Note_on_c, 0, 65, 63
2, 82389, Control_c, 0, 64, 48
2, 82408, Control_c, 0, 64, 53
2, 82446, Control_c, 0, 64, 53
2, 82466, Control_c, 0, 64, 54
2, 82485, Control_c, 0, 64, 54
2, 82505, Control_c, 0, 64, 46
2, 82523, Control_c, 0, 64, 11
2, 82529, Note_on_c, 0, 65, 0
2, 82542, Note_on_c, 0, 56, 70
2, 82543, Control_c, 0, 64, 0
2, 82548, Note_on_c, 0, 42, 63
2, 82550, Note_on_c, 0, 59, 58
2, 82657, Control_c, 0, 64, 9
2, 82659, Note_on_c, 0, 59, 0
2, 82661, Note_on_c, 0, 42, 0
2, 82672, Note_on_c, 0, 56, 0
2, 82677, Control_c, 0, 64, 39
2, 82682, Note_on_c, 0, 65, 63
2, 82695, Control_c, 0, 64, 49
2, 82715, Control_c, 0, 64, 50
2, 82733, Control_c, 0, 64, 50
2, 82772, Control_c, 0, 64, 49
2, 82791, Control_c, 0, 64, 45
2, 82810, Control_c, 0, 64, 26
2, 82824, Note_on_c, 0, 56, 73
2, 82830, Control_c, 0, 64, 0
2, 82832, Note_on_c, 0, 42, 67
2, 82835, Note_on_c, 0, 65, 0
2, 82852, Note_on_c, 0, 62, 65
2, 82945, Control_c, 0, 64, 15
2, 82964, Control_c, 0, 64, 25
2, 82967, Note_on_c, 0, 42, 0
2, 82979, Note_on_c, 0, 56, 0
2, 82984, Control_c, 0, 64, 37
2, 82985, Note_on_c, 0, 58, 65
2, 82998, Note_on_c, 0, 62, 0
2, 83002, Control_c, 0, 64, 47
2, 83022, Control_c, 0, 64, 51
2, 83059, Control_c, 0, 64, 50
2, 83079, Control_c, 0, 64, 46
2, 83098, Control_c, 0, 64, 35
2, 83118, Control_c, 0, 64, 0
2, 83118, Note_on_c, 0, 58, 0
2, 83124, Note_on_c, 0, 56, 79
2, 83136, Note_on_c, 0, 42, 66
2, 83143, Note_on_c, 0, 59, 72
2, 83261, Note_on_c, 0, 59, 0
2, 83270, Note_on_c, 0, 42, 0
2, 83282, Note_on_c, 0, 56, 0
2, 83285, Note_on_c, 0, 65, 71
2, 83294, Control_c, 0, 64, 29
2, 83314, Control_c, 0, 64, 44
2, 83332, Control_c, 0, 64, 51
2, 83390, Control_c, 0, 64, 51
2, 83409, Control_c, 0, 64, 44
2, 83429, Control_c, 0, 64, 20
2, 83435, Note_on_c, 0, 56, 80
2, 83439, Note_on_c, 0, 65, 0
2, 83440, Note_on_c, 0, 42, 71
2, 83448, Control_c, 0, 64, 0
2, 83448, Note_on_c, 0, 62, 70
2, 83543, Note_on_c, 0, 42, 0
2, 83567, Note_on_c, 0, 56, 0
2, 83567, Note_on_c, 0, 62, 0
2, 83575, Note_on_c, 0, 65, 74
2, 83601, Control_c, 0, 64, 21
2, 83640, Control_c, 0, 64, 11
2, 83656, Control_c, 0, 64, 0
2, 83707, Note_on_c, 0, 65, 0
2, 83717, Note_on_c, 0, 56, 76
2, 83723, Note_on_c, 0, 42, 62
2, 83727, Note_on_c, 0, 59, 75
2, 83765, Note_on_c, 0, 56, 0
2, 83778, Note_on_c, 0, 42, 0
2, 83854, Note_on_c, 0, 59, 0
2, 83861, Note_on_c, 0, 65, 69
2, 84037, Note_on_c, 0, 65, 0
2, 84043, Note_on_c, 0, 62, 79
2, 84053, Note_on_c, 0, 54, 73
2, 84068, Note_on_c, 0, 42, 61
2, 84174, Control_c, 0, 64, 39
2, 84194, Control_c, 0, 64, 44
2, 84213, Control_c, 0, 64, 46
2, 84229, Note_on_c, 0, 58, 59
2, 84232, Control_c, 0, 64, 50
2, 84251, Control_c, 0, 64, 52
2, 84290, Control_c, 0, 64, 51
2, 84309, Control_c, 0, 64, 49
2, 84317, Note_on_c, 0, 58, 0
2, 84328, Control_c, 0, 64, 49
2, 84348, Control_c, 0, 64, 47
2, 84355, Note_on_c, 0, 59, 64
2, 84366, Control_c, 0, 64, 45
2, 84386, Control_c, 0, 64, 44
2, 84443, Control_c, 0, 64, 43
2, 84463, Control_c, 0, 64, 42
2, 84482, Control_c, 0, 64, 41
2, 84482, Note_on_c, 0, 62, 0
2, 84486, Note_on_c, 0, 66, 72
2, 84520, Control_c, 0, 64, 41
2, 84539, Control_c, 0, 64, 36
2, 84559, Control_c, 0, 64, 0
2, 84619, Note_on_c, 0, 66, 0
2, 84633, Note_on_c, 0, 61, 74
2, 84635, Note_on_c, 0, 58, 64
2, 84635, Note_on_c, 0, 59, 0
2, 84710, Control_c, 0, 64, 31
2, 84729, Control_c, 0, 64, 51
2, 84734, Note_on_c, 0, 58, 0
2, 84749, Control_c, 0, 64, 55
2, 84783, Note_on_c, 0, 66, 58
2, 84787, Control_c, 0, 64, 56
2, 84883, Control_c, 0, 64, 53
2, 84902, Note_on_c, 0, 66, 0
2, 84903, Control_c, 0, 64, 27
2, 84915, Note_on_c, 0, 61, 0
2, 84921, Control_c, 0, 64, 0
2, 84922, Note_on_c, 0, 59, 73
2, 84938, Note_on_c, 0, 56, 62
2, 84998, Control_c, 0, 64, 23
2, 85017, Control_c, 0, 64, 52
2, 85037, Control_c, 0, 64, 57
2, 85040, Note_on_c, 0, 59, 0
2, 85085, Note_on_c, 0, 65, 70
2, 85115, Control_c, 0, 64, 57
2, 85122, Note_on_c, 0, 56, 0
2, 85134, Control_c, 0, 64, 56
2, 85149, Note_on_c, 0, 54, 0
2, 85154, Control_c, 0, 64, 55
2, 85173, Control_c, 0, 64, 47
2, 85192, Control_c, 0, 64, 15
2, 85211, Control_c, 0, 64, 0
2, 85228, Note_on_c, 0, 65, 0
2, 85238, Note_on_c, 0, 66, 72
2, 85240, Note_on_c, 0, 58, 67
2, 85252, Note_on_c, 0, 61, 56
2, 85395, Note_on_c, 0, 44, 56
2, 85428, Note_on_c, 0, 42, 0
2, 85526, Note_on_c, 0, 46, 70
2, 85536, Note_on_c, 0, 44, 0
2, 85627, Note_on_c, 0, 58, 0
2, 85666, Note_on_c, 0, 46, 0
2, 85673, Note_on_c, 0, 47, 71
2, 85736, Note_on_c, 0, 61, 0
2, 85745, Note_on_c, 0, 66, 0
2, 85814, Note_on_c, 0, 49, 78
2, 85838, Note_on_c, 0, 47, 0
2, 85962, Note_on_c, 0, 51, 78
2, 85990, Note_on_c, 0, 49, 0
2, 86109, Note_on_c, 0, 51, 0
2, 86113, Note_on_c, 0, 52, 72
2, 86238, Note_on_c, 0, 49, 77
2, 86262, Note_on_c, 0, 52, 0
2, 86390, Note_on_c, 0, 51, 69
2, 86404, Note_on_c, 0, 49, 0
2, 86527, Note_on_c, 0, 51, 0
2, 86547, Note_on_c, 0, 47, 58
2, 86548, Note_on_c, 0, 71, 71
2, 86688, Note_on_c, 0, 47, 0
2, 86690, Note_on_c, 0, 49, 61
2, 86693, Note_on_c, 0, 70, 69
2, 86698, Note_on_c, 0, 71, 0
2, 86828, Note_on_c, 0, 51, 64
2, 86829, Note_on_c, 0, 68, 77
2, 86831, Note_on_c, 0, 49, 0
2, 86857, Note_on_c, 0, 70, 0
2, 86961, Note_on_c, 0, 51, 0
2, 86974, Note_on_c, 0, 66, 72
2, 86983, Note_on_c, 0, 68, 0
2, 86990, Note_on_c, 0, 52, 63
2, 87099, Note_on_c, 0, 66, 0
2, 87113, Note_on_c, 0, 54, 66
2, 87115, Note_on_c, 0, 64, 68
2, 87119, Note_on_c, 0, 52, 0
2, 87245, Note_on_c, 0, 64, 0
2, 87247, Note_on_c, 0, 54, 0
2, 87254, Note_on_c, 0, 56, 72
2, 87259, Note_on_c, 0, 63, 66
2, 87382, Note_on_c, 0, 63, 0
2, 87384, Note_on_c, 0, 61, 60
2, 87395, Note_on_c, 0, 58, 69
2, 87396, Note_on_c, 0, 56, 0
2, 87477, Control_c, 0, 64, 41
2, 87495, Control_c, 0, 64, 65
2, 87515, Control_c, 0, 64, 63
2, 87533, Control_c, 0, 64, 63
2, 87537, Note_on_c, 0, 58, 0
2, 87542, Note_on_c, 0, 63, 64
2, 87544, Note_on_c, 0, 61, 0
2, 87546, Note_on_c, 0, 59, 73
2, 87553, Control_c, 0, 64, 64
2, 87572, Control_c, 0, 64, 63
2, 87588, Note_on_c, 0, 63, 0
2, 87591, Control_c, 0, 64, 53
2, 87610, Control_c, 0, 64, 0
2, 87725, Note_on_c, 0, 69, 30
2, 87728, Note_on_c, 0, 71, 56
2, 87794, Note_on_c, 0, 59, 0
2, 87839, Note_on_c, 0, 69, 0
2, 87839, Note_on_c, 0, 73, 71
2, 87844, Note_on_c, 0, 71, 0
2, 87982, Note_on_c, 0, 75, 80
2, 87996, Note_on_c, 0, 73, 0
2, 88111, Note_on_c, 0, 75, 0
2, 88126, Note_on_c, 0, 76, 74
2, 88140, Note_on_c, 0, 63, 58
2, 88205, Note_on_c, 0, 61, 65
2, 88206, Note_on_c, 0, 63, 0
2, 88244, Note_on_c, 0, 61, 0
2, 88267, Note_on_c, 0, 78, 75
2, 88298, Note_on_c, 0, 76, 0
2, 88305, Note_on_c, 0, 63, 61
2, 88335, Note_on_c, 0, 61, 55
2, 88408, Note_on_c, 0, 80, 82
2, 88428, Note_on_c, 0, 63, 0
2, 88441, Note_on_c, 0, 78, 0
2, 88459, Note_on_c, 0, 59, 66
2, 88459, Note_on_c, 0, 61, 0
2, 88553, Note_on_c, 0, 59, 0
2, 88555, Note_on_c, 0, 61, 66
2, 88557, Note_on_c, 0, 82, 82
2, 88576, Note_on_c, 0, 80, 0
2, 88682, Note_on_c, 0, 61, 0
2, 88711, Note_on_c, 0, 63, 67
2, 88712, Note_on_c, 0, 83, 80
2, 88721, Note_on_c, 0, 82, 0
2, 88859, Note_on_c, 0, 78, 78
2, 88917, Control_c, 0, 64, 28
2, 88936, Control_c, 0, 64, 46
2, 88947, Note_on_c, 0, 83, 0
2, 88955, Control_c, 0, 64, 48
2, 88979, Note_on_c, 0, 63, 0
2, 89008, Note_on_c, 0, 75, 84
2, 89032, Control_c, 0, 64, 47
2, 89035, Note_on_c, 0, 78, 0
2, 89051, Control_c, 0, 64, 46
2, 89071, Control_c, 0, 64, 45
2, 89109, Control_c, 0, 64, 45
2, 89128, Control_c, 0, 64, 44
2, 89136, Note_on_c, 0, 71, 81
2, 89139, Note_on_c, 0, 75, 0
2, 89148, Control_c, 0, 64, 44
2, 89166, Control_c, 0, 64, 43
2, 89186, Control_c, 0, 64, 43
2, 89205, Control_c, 0, 64, 42
2, 89243, Control_c, 0, 64, 41
2, 89282, Control_c, 0, 64, 39
2, 89288, Note_on_c, 0, 66, 61
2, 89288, Note_on_c, 0, 73, 80
2, 89300, Control_c, 0, 64, 37
2, 89307, Note_on_c, 0, 71, 0
2, 89320, Control_c, 0, 64, 36
2, 89339, Control_c, 0, 64, 35
2, 89351, Note_on_c, 0, 66, 0
2, 89358, Note_on_c, 0, 65, 59
2, 89397, Control_c, 0, 64, 36
2, 89402, Note_on_c, 0, 65, 0
2, 89415, Note_on_c, 0, 73, 0
2, 89416, Control_c, 0, 64, 37
2, 89435, Control_c, 0, 64, 37
2, 89435, Note_on_c, 0, 83, 71
2, 89450, Note_on_c, 0, 66, 69
2, 89510, Note_on_c, 0, 65, 64
2, 89512, Control_c, 0, 64, 36
2, 89523, Note_on_c, 0, 66, 0
2, 89531, Control_c, 0, 64, 36
2, 89551, Control_c, 0, 64, 35
2, 89571, Note_on_c, 0, 83, 0
2, 89584, Note_on_c, 0, 81, 77
2, 89589, Control_c, 0, 64, 35
2, 89612, Note_on_c, 0, 65, 0
2, 89625, Note_on_c, 0, 63, 65
2, 89646, Control_c, 0, 64, 34
2, 89685, Control_c, 0, 64, 34
2, 89705, Control_c, 0, 64, 33
2, 89730, Note_on_c, 0, 63, 0
2, 89730, Note_on_c, 0, 80, 80
2, 89730, Note_on_c, 0, 81, 0
2, 89732, Note_on_c, 0, 65, 57
2, 89743, Control_c, 0, 64, 32
2, 89762, Control_c, 0, 64, 32
2, 89780, Control_c, 0, 64, 31
2, 89800, Control_c, 0, 64, 31
2, 89819, Control_c, 0, 64, 30
2, 89831, Note_on_c, 0, 65, 0
2, 89857, Control_c, 0, 64, 29
2, 89877, Control_c, 0, 64, 26
2, 89879, Note_on_c, 0, 66, 70
2, 89890, Note_on_c, 0, 81, 78
2, 89896, Control_c, 0, 64, 20
2, 89908, Note_on_c, 0, 80, 0
2, 89915, Control_c, 0, 64, 15
2, 89934, Control_c, 0, 64, 13
2, 89954, Control_c, 0, 64, 11
2, 89979, Note_on_c, 0, 81, 0
2, 90029, Note_on_c, 0, 66, 0
2, 90035, Note_on_c, 0, 64, 44
2, 90043, Note_on_c, 0, 65, 42
2, 90109, Note_on_c, 0, 65, 0
2, 90126, Control_c, 0, 64, 9
2, 90171, Note_on_c, 0, 78, 76
2, 90185, Note_on_c, 0, 64, 0
2, 90191, Note_on_c, 0, 63, 66
2, 90245, Note_on_c, 0, 78, 0
2, 90299, Control_c, 0, 64, 0
2, 90327, Note_on_c, 0, 61, 67
2, 90343, Note_on_c, 0, 63, 0
2, 90445, Note_on_c, 0, 61, 0
2, 90470, Note_on_c, 0, 75, 71
2, 90486, Note_on_c, 0, 59, 61
2, 90601, Note_on_c, 0, 75, 0
2, 90630, Note_on_c, 0, 57, 66
2, 90653, Note_on_c, 0, 59, 0
2, 90767, Note_on_c, 0, 81, 80
2, 90773, Note_on_c, 0, 56, 63
2, 90799, Note_on_c, 0, 57, 0
2, 90837, Note_on_c, 0, 81, 0
2, 90911, Note_on_c, 0, 54, 63
2, 90914, Note_on_c, 0, 56, 0
2, 91065, Note_on_c, 0, 80, 77
2, 91072, Note_on_c, 0, 52, 61
2, 91102, Note_on_c, 0, 54, 0
2, 91146, Note_on_c, 0, 52, 0
2, 91216, Note_on_c, 0, 76, 68
2, 91252, Note_on_c, 0, 80, 0
2, 91362, Note_on_c, 0, 63, 67
2, 91365, Note_on_c, 0, 71, 68
2, 91369, Note_on_c, 0, 76, 0
2, 91404, Note_on_c, 0, 63, 0
2, 91483, Note_on_c, 0, 71, 0
2, 91497, Note_on_c, 0, 68, 75
2, 91661, Note_on_c, 0, 70, 77
2, 91666, Note_on_c, 0, 61, 54
2, 91666, Note_on_c, 0, 68, 0
2, 91743, Note_on_c, 0, 61, 0
2, 91792, Note_on_c, 0, 70, 0
2, 91804, Note_on_c, 0, 80, 78
2, 91941, Note_on_c, 0, 58, 44
2, 91955, Note_on_c, 0, 78, 73
2, 91981, Note_on_c, 0, 80, 0
2, 91997, Note_on_c, 0, 58, 0
2, 92088, Note_on_c, 0, 76, 72
2, 92115, Note_on_c, 0, 78, 0
2, 92258, Note_on_c, 0, 63, 55
2, 92259, Note_on_c, 0, 78, 71
2, 92278, Note_on_c, 0, 76, 0
2, 92355, Note_on_c, 0, 78, 0
2, 92369, Note_on_c, 0, 63, 0
2, 92385, Note_on_c, 0, 61, 62
2, 92524, Note_on_c, 0, 61, 0
2, 92548, Note_on_c, 0, 60, 59
2, 92552, Note_on_c, 0, 75, 73
2, 92639, Note_on_c, 0, 75, 0
2, 92677, Note_on_c, 0, 58, 61
2, 92733, Note_on_c, 0, 60, 0
2, 92839, Note_on_c, 0, 56, 65
2, 92840, Note_on_c, 0, 72, 69
2, 92860, Note_on_c, 0, 58, 0
2, 92939, Note_on_c, 0, 72, 0
2, 92965, Note_on_c, 0, 54, 64
2, 92986, Note_on_c, 0, 56, 0
2, 93087, Note_on_c, 0, 54, 0
2, 93124, Note_on_c, 0, 52, 66
2, 93129, Note_on_c, 0, 78, 74
2, 93199, Note_on_c, 0, 78, 0
2, 93246, Note_on_c, 0, 51, 59
2, 93296, Note_on_c, 0, 52, 0
2, 93418, Note_on_c, 0, 76, 72
2, 93427, Note_on_c, 0, 49, 65
2, 93441, Note_on_c, 0, 51, 0
2, 93489, Note_on_c, 0, 49, 0
2, 93554, Note_on_c, 0, 73, 72
2, 93559, Note_on_c, 0, 76, 0
2, 93713, Note_on_c, 0, 68, 71
2, 93718, Note_on_c, 0, 59, 62
2, 93739, Note_on_c, 0, 73, 0
2, 93772, Note_on_c, 0, 59, 0
2, 93829, Note_on_c, 0, 68, 0
2, 93850, Note_on_c, 0, 64, 70
2, 94006, Note_on_c, 0, 58, 59
2, 94014, Note_on_c, 0, 66, 67
2, 94019, Note_on_c, 0, 64, 0
2, 94106, Note_on_c, 0, 58, 0
2, 94141, Note_on_c, 0, 66, 0
2, 94155, Note_on_c, 0, 76, 66
2, 94306, Note_on_c, 0, 75, 75
2, 94306, Note_on_c, 0, 76, 0
2, 94308, Note_on_c, 0, 54, 46
2, 94355, Note_on_c, 0, 54, 0
2, 94450, Note_on_c, 0, 73, 73
2, 94455, Note_on_c, 0, 75, 0
2, 94598, Note_on_c, 0, 47, 47
2, 94605, Note_on_c, 0, 75, 69
2, 94627, Note_on_c, 0, 73, 0
2, 94715, Note_on_c, 0, 75, 0
2, 94737, Note_on_c, 0, 71, 66
2, 94749, Note_on_c, 0, 47, 0
2, 94890, Note_on_c, 0, 51, 46
2, 94899, Note_on_c, 0, 70, 71
2, 94903, Note_on_c, 0, 71, 0
2, 94970, Note_on_c, 0, 51, 0
2, 95040, Note_on_c, 0, 70, 0
2, 95045, Note_on_c, 0, 68, 73
2, 95177, Note_on_c, 0, 53, 52
2, 95187, Note_on_c, 0, 70, 71
2, 95198, Note_on_c, 0, 68, 0
2, 95252, Note_on_c, 0, 53, 0
2, 95338, Note_on_c, 0, 68, 77
2, 95343, Note_on_c, 0, 70, 0
2, 95466, Note_on_c, 0, 56, 59
2, 95486, Note_on_c, 0, 66, 70
2, 95486, Note_on_c, 0, 68, 0
2, 95526, Note_on_c, 0, 56, 0
2, 95607, Note_on_c, 0, 66, 0
2, 95626, Note_on_c, 0, 65, 61
2, 95757, Note_on_c, 0, 65, 0
2, 95771, Note_on_c, 0, 73, 66
2, 95774, Note_on_c, 0, 46, 58
2, 95927, Note_on_c, 0, 70, 70
2, 95939, Note_on_c, 0, 46, 0
2, 95964, Note_on_c, 0, 73, 0
2, 96068, Note_on_c, 0, 49, 63
2, 96075, Note_on_c, 0, 68, 69
2, 96084, Note_on_c, 0, 70, 0
2, 96190, Note_on_c, 0, 49, 0
2, 96215, Note_on_c, 0, 66, 70
2, 96216, Note_on_c, 0, 68, 0
2, 96353, Note_on_c, 0, 51, 67
2, 96365, Note_on_c, 0, 68, 69
2, 96381, Note_on_c, 0, 66, 0
2, 96470, Note_on_c, 0, 51, 0
2, 96515, Note_on_c, 0, 66, 74
2, 96528, Note_on_c, 0, 68, 0
2, 96650, Note_on_c, 0, 54, 72
2, 96654, Note_on_c, 0, 65, 65
2, 96655, Note_on_c, 0, 66, 0
2, 96729, Note_on_c, 0, 54, 0
2, 96790, Note_on_c, 0, 63, 64
2, 96794, Note_on_c, 0, 65, 0
2, 96932, Note_on_c, 0, 44, 68
2, 96941, Note_on_c, 0, 71, 63
2, 96942, Note_on_c, 0, 63, 0
2, 97077, Note_on_c, 0, 68, 67
2, 97087, Note_on_c, 0, 71, 0
2, 97098, Note_on_c, 0, 44, 0
2, 97231, Note_on_c, 0, 47, 67
2, 97237, Note_on_c, 0, 66, 64
2, 97265, Note_on_c, 0, 68, 0
2, 97350, Note_on_c, 0, 47, 0
2, 97384, Note_on_c, 0, 65, 66
2, 97390, Note_on_c, 0, 66, 0
2, 97525, Note_on_c, 0, 49, 70
2, 97549, Note_on_c, 0, 66, 63
2, 97551, Note_on_c, 0, 65, 0
2, 97592, Note_on_c, 0, 49, 0
2, 97698, Note_on_c, 0, 65, 68
2, 97700, Note_on_c, 0, 66, 0
2, 97829, Note_on_c, 0, 65, 0
2, 97832, Note_on_c, 0, 53, 61
2, 97840, Note_on_c, 0, 63, 70
2, 97878, Note_on_c, 0, 53, 0
2, 97969, Note_on_c, 0, 63, 0
2, 97982, Note_on_c, 0, 61, 64
2, 98105, Note_on_c, 0, 42, 52
2, 98117, Note_on_c, 0, 61, 0
2, 98121, Note_on_c, 0, 70, 69
2, 98254, Note_on_c, 0, 42, 0
2, 98256, Note_on_c, 0, 44, 65
2, 98256, Note_on_c, 0, 68, 71
2, 98256, Note_on_c, 0, 70, 0
2, 98402, Note_on_c, 0, 46, 68
2, 98406, Note_on_c, 0, 68, 0
2, 98410, Note_on_c, 0, 66, 68
2, 98426, Note_on_c, 0, 44, 0
2, 98521, Note_on_c, 0, 46, 0
2, 98531, Note_on_c, 0, 47, 71
2, 98549, Note_on_c, 0, 66, 0
2, 98551, Note_on_c, 0, 68, 78
2, 98693, Note_on_c, 0, 49, 71
2, 98700, Note_on_c, 0, 47, 0
2, 98705, Note_on_c, 0, 70, 80
2, 98724, Note_on_c, 0, 68, 0
2, 98791, Note_on_c, 0, 70, 0
2, 98837, Note_on_c, 0, 51, 68
2, 98859, Note_on_c, 0, 49, 0
2, 98964, Note_on_c, 0, 51, 0
2, 98981, Note_on_c, 0, 52, 66
2, 98988, Note_on_c, 0, 61, 75
2, 99059, Note_on_c, 0, 61, 0
2, 99108, Note_on_c, 0, 49, 76
2, 99136, Note_on_c, 0, 52, 0
2, 99269, Note_on_c, 0, 51, 75
2, 99281, Note_on_c, 0, 59, 73
2, 99289, Note_on_c, 0, 49, 0
2, 99345, Note_on_c, 0, 51, 0
2, 99408, Note_on_c, 0, 59, 0
2, 99413, Note_on_c, 0, 61, 67
2, 99570, Note_on_c, 0, 61, 0
2, 99570, Note_on_c, 0, 63, 71
2, 99571, Note_on_c, 0, 54, 78
2, 99648, Note_on_c, 0, 54, 0
2, 99695, Note_on_c, 0, 63, 0
2, 99713, Note_on_c, 0, 64, 68
2, 99852, Note_on_c, 0, 51, 74
2, 99868, Note_on_c, 0, 66, 72
2, 99889, Note_on_c, 0, 64, 0
2, 99933, Note_on_c, 0, 51, 0
2, 100007, Note_on_c, 0, 68, 75
2, 100022, Note_on_c, 0, 66, 0
2, 100149, Note_on_c, 0, 47, 73
2, 100157, Note_on_c, 0, 69, 78
2, 100172, Note_on_c, 0, 68, 0
2, 100228, Note_on_c, 0, 47, 0
2, 100296, Note_on_c, 0, 66, 77
2, 100310, Note_on_c, 0, 69, 0
2, 100447, Note_on_c, 0, 52, 77
2, 100456, Note_on_c, 0, 68, 80
2, 100464, Note_on_c, 0, 66, 0
2, 100538, Note_on_c, 0, 52, 0
2, 100600, Note_on_c, 0, 69, 75
2, 100608, Note_on_c, 0, 68, 0
2, 100745, Note_on_c, 0, 40, 75
2, 100754, Note_on_c, 0, 68, 80
2, 100769, Note_on_c, 0, 69, 0
2, 100790, Note_on_c, 0, 40, 0
2, 100896, Note_on_c, 0, 68, 0
2, 100901, Note_on_c, 0, 66, 74
2, 101010, Note_on_c, 0, 66, 0
2, 101036, Note_on_c, 0, 52, 66
2, 101037, Note_on_c, 0, 64, 71
2, 101099, Note_on_c, 0, 51, 76
2, 101105, Note_on_c, 0, 52, 0
2, 101140, Note_on_c, 0, 63, 72
2, 101140, Note_on_c, 0, 64, 0
2, 101190, Note_on_c, 0, 51, 0
2, 101190, Note_on_c, 0, 52, 77
2, 101308, Note_on_c, 0, 63, 0
2, 101315, Note_on_c, 0, 61, 64
2, 101439, Note_on_c, 0, 61, 0
2, 101456, Note_on_c, 0, 59, 68
2, 101610, Note_on_c, 0, 59, 0
2, 101619, Note_on_c, 0, 58, 73
2, 101774, Note_on_c, 0, 66, 66
2, 101852, Note_on_c, 0, 58, 0
2, 101930, Note_on_c, 0, 59, 68
2, 101933, Note_on_c, 0, 51, 60
2, 101934, Note_on_c, 0, 66, 0
2, 101988, Note_on_c, 0, 52, 0
2, 102029, Note_on_c, 0, 51, 0
2, 102060, Note_on_c, 0, 59, 0
2, 102079, Note_on_c, 0, 66, 69
2, 102228, Note_on_c, 0, 49, 57
2, 102234, Note_on_c, 0, 66, 0
2, 102235, Note_on_c, 0, 64, 69
2, 102298, Note_on_c, 0, 49, 0
2, 102380, Note_on_c, 0, 59, 58
2, 102409, Note_on_c, 0, 64, 0
2, 102517, Note_on_c, 0, 54, 57
2, 102530, Note_on_c, 0, 59, 0
2, 102536, Note_on_c, 0, 58, 65
2, 102558, Note_on_c, 0, 54, 0
2, 102661, Note_on_c, 0, 58, 0
2, 102672, Note_on_c, 0, 64, 67
2, 102829, Note_on_c, 0, 63, 66
2, 102835, Note_on_c, 0, 64, 0
2, 102849, Note_on_c, 0, 47, 53
2, 102978, Note_on_c, 0, 61, 70
2, 102992, Note_on_c, 0, 47, 0
2, 102996, Note_on_c, 0, 63, 0
2, 103118, Note_on_c, 0, 61, 0
2, 103127, Note_on_c, 0, 59, 64
2, 103136, Note_on_c, 0, 49, 56
2, 103206, Note_on_c, 0, 49, 0
2, 103268, Note_on_c, 0, 59, 0
2, 103277, Note_on_c, 0, 58, 68
2, 103413, Note_on_c, 0, 58, 0
2, 103424, Note_on_c, 0, 59, 72
2, 103439, Note_on_c, 0, 51, 55
2, 103467, Control_c, 0, 64, 15
2, 103486, Control_c, 0, 64, 25
2, 103487, Note_on_c, 0, 51, 0
2, 103505, Control_c, 0, 64, 32
2, 103524, Control_c, 0, 64, 39
2, 103544, Control_c, 0, 64, 41
2, 103562, Control_c, 0, 64, 43
2, 103568, Note_on_c, 0, 63, 71
2, 103591, Note_on_c, 0, 59, 0
2, 103621, Control_c, 0, 64, 42
2, 103639, Control_c, 0, 64, 42
2, 103659, Control_c, 0, 64, 40
2, 103678, Control_c, 0, 64, 36
2, 103698, Control_c, 0, 64, 32
2, 103716, Control_c, 0, 64, 30
2, 103725, Note_on_c, 0, 63, 0
2, 103727, Note_on_c, 0, 66, 72
2, 103735, Note_on_c, 0, 47, 63
2, 103774, Control_c, 0, 64, 31
2, 103793, Control_c, 0, 64, 32
2, 103812, Control_c, 0, 64, 33
2, 103832, Control_c, 0, 64, 34
2, 103836, Note_on_c, 0, 47, 0
2, 103850, Control_c, 0, 64, 36
2, 103866, Note_on_c, 0, 57, 66
2, 103870, Control_c, 0, 64, 36
2, 103892, Note_on_c, 0, 66, 0
2, 103966, Control_c, 0, 64, 36
2, 103985, Control_c, 0, 64, 32
2, 104004, Control_c, 0, 64, 26
2, 104020, Note_on_c, 0, 56, 71
2, 104024, Control_c, 0, 64, 17
2, 104027, Note_on_c, 0, 57, 0
2, 104029, Note_on_c, 0, 40, 66
2, 104042, Control_c, 0, 64, 11
2, 104062, Control_c, 0, 64, 13
2, 104081, Control_c, 0, 64, 27
2, 104101, Control_c, 0, 64, 38
2, 104119, Control_c, 0, 64, 43
2, 104139, Control_c, 0, 64, 44
2, 104143, Note_on_c, 0, 40, 0
2, 104156, Note_on_c, 0, 56, 0
2, 104158, Control_c, 0, 64, 45
2, 104170, Note_on_c, 0, 66, 70
2, 104196, Control_c, 0, 64, 45
2, 104258, Control_c, 0, 64, 45
2, 104277, Control_c, 0, 64, 44
2, 104294, Control_c, 0, 64, 43
2, 104312, Control_c, 0, 64, 41
2, 104330, Note_on_c, 0, 44, 78
2, 104332, Control_c, 0, 64, 38
2, 104333, Note_on_c, 0, 64, 66
2, 104335, Note_on_c, 0, 66, 0
2, 104351, Control_c, 0, 64, 33
2, 104389, Control_c, 0, 64, 35
2, 104409, Control_c, 0, 64, 38
2, 104425, Note_on_c, 0, 44, 0
2, 104428, Control_c, 0, 64, 38
2, 104466, Control_c, 0, 64, 39
2, 104467, Note_on_c, 0, 63, 73
2, 104480, Note_on_c, 0, 64, 0
2, 104543, Control_c, 0, 64, 39
2, 104600, Control_c, 0, 64, 39
2, 104620, Control_c, 0, 64, 33
2, 104620, Note_on_c, 0, 61, 68
2, 104621, Note_on_c, 0, 63, 0
2, 104636, Note_on_c, 0, 40, 72
2, 104639, Control_c, 0, 64, 25
2, 104658, Control_c, 0, 64, 24
2, 104677, Control_c, 0, 64, 27
2, 104697, Control_c, 0, 64, 33
2, 104715, Control_c, 0, 64, 35
2, 104737, Note_on_c, 0, 40, 0
2, 104767, Note_on_c, 0, 63, 69
2, 104774, Control_c, 0, 64, 36
2, 104783, Note_on_c, 0, 61, 0
2, 104792, Control_c, 0, 64, 36
2, 104850, Control_c, 0, 64, 36
2, 104889, Control_c, 0, 64, 35
2, 104908, Control_c, 0, 64, 33
2, 104909, Note_on_c, 0, 37, 72
2, 104919, Note_on_c, 0, 64, 72
2, 104927, Control_c, 0, 64, 32
2, 104929, Note_on_c, 0, 63, 0
2, 104965, Note_on_c, 0, 37, 0
2, 104966, Control_c, 0, 64, 31
2, 104984, Control_c, 0, 64, 31
2, 105004, Control_c, 0, 64, 29
2, 105020, Note_on_c, 0, 64, 0
2, 105023, Control_c, 0, 64, 28
2, 105048, Note_on_c, 0, 59, 69
2, 105061, Control_c, 0, 64, 27
2, 105080, Control_c, 0, 64, 26
2, 105195, Note_on_c, 0, 42, 72
2, 105216, Note_on_c, 0, 59, 0
2, 105219, Note_on_c, 0, 58, 65
2, 105340, Note_on_c, 0, 42, 0
2, 105360, Note_on_c, 0, 59, 76
2, 105364, Note_on_c, 0, 58, 0
2, 105505, Control_c, 0, 64, 25
2, 105509, Note_on_c, 0, 44, 78
2, 105515, Note_on_c, 0, 59, 0
2, 105518, Note_on_c, 0, 61, 77
2, 105625, Note_on_c, 0, 44, 0
2, 105657, Note_on_c, 0, 56, 77
2, 105665, Note_on_c, 0, 61, 0
2, 105804, Note_on_c, 0, 54, 77
2, 105805, Note_on_c, 0, 56, 0
2, 105807, Note_on_c, 0, 46, 84
2, 105910, Note_on_c, 0, 46, 0
2, 105940, Note_on_c, 0, 54, 0
2, 105943, Note_on_c, 0, 52, 76
2, 106081, Note_on_c, 0, 52, 0
2, 106101, Note_on_c, 0, 51, 72
2, 106103, Note_on_c, 0, 42, 83
2, 106135, Control_c, 0, 64, 26
2, 106154, Control_c, 0, 64, 28
2, 106171, Control_c, 0, 64, 29
2, 106190, Control_c, 0, 64, 31
2, 106203, Note_on_c, 0, 42, 0
2, 106210, Control_c, 0, 64, 32
2, 106229, Control_c, 0, 64, 33
2, 106231, Note_on_c, 0, 51, 0
2, 106247, Note_on_c, 0, 49, 77
2, 106267, Control_c, 0, 64, 34
2, 106287, Control_c, 0, 64, 34
2, 106382, Control_c, 0, 64, 34
2, 106388, Note_on_c, 0, 49, 0
2, 106401, Control_c, 0, 64, 33
2, 106410, Note_on_c, 0, 51, 74
2, 106411, Note_on_c, 0, 47, 82
2, 106421, Control_c, 0, 64, 32
2, 106459, Control_c, 0, 64, 32
2, 106560, Note_on_c, 0, 54, 70
2, 106581, Note_on_c, 0, 51, 0
2, 106582, Note_on_c, 0, 47, 0
2, 106593, Control_c, 0, 64, 32
2, 106670, Control_c, 0, 64, 32
2, 106688, Control_c, 0, 64, 31
2, 106707, Control_c, 0, 64, 28
2, 106719, Note_on_c, 0, 59, 79
2, 106720, Note_on_c, 0, 44, 82
2, 106726, Control_c, 0, 64, 25
2, 106734, Note_on_c, 0, 54, 0
2, 106745, Control_c, 0, 64, 22
2, 106803, Control_c, 0, 64, 24
2, 106822, Control_c, 0, 64, 25
2, 106859, Note_on_c, 0, 44, 0
2, 106863, Control_c, 0, 64, 26
2, 106863, Note_on_c, 0, 51, 73
2, 106871, Note_on_c, 0, 59, 0
2, 106882, Control_c, 0, 64, 27
2, 106902, Control_c, 0, 64, 27
2, 106959, Control_c, 0, 64, 28
2, 107017, Control_c, 0, 64, 21
2, 107036, Control_c, 0, 64, 0
2, 107042, Note_on_c, 0, 51, 0
2, 107044, Note_on_c, 0, 40, 71
2, 107046, Note_on_c, 0, 49, 80
2, 107192, Control_c, 0, 64, 37
2, 107210, Control_c, 0, 64, 46
2, 107220, Note_on_c, 0, 49, 0
2, 107223, Note_on_c, 0, 59, 75
2, 107249, Control_c, 0, 64, 45
2, 107254, Note_on_c, 0, 40, 0
2, 107268, Control_c, 0, 64, 45
2, 107287, Control_c, 0, 64, 43
2, 107307, Control_c, 0, 64, 39
2, 107326, Control_c, 0, 64, 32
2, 107345, Control_c, 0, 64, 27
2, 107352, Note_on_c, 0, 59, 0
2, 107364, Control_c, 0, 64, 19
2, 107384, Control_c, 0, 64, 0
2, 107409, Note_on_c, 0, 52, 75
2, 107414, Note_on_c, 0, 42, 66
2, 107583, Note_on_c, 0, 42, 0
2, 107595, Control_c, 0, 64, 46
2, 107606, Note_on_c, 0, 58, 79
2, 107614, Control_c, 0, 64, 57
2, 107633, Control_c, 0, 64, 61
2, 107643, Note_on_c, 0, 52, 0
2, 107652, Control_c, 0, 64, 62
2, 107672, Control_c, 0, 64, 62
2, 107715, Note_on_c, 0, 58, 0
2, 107729, Control_c, 0, 64, 62
2, 107748, Control_c, 0, 64, 61
2, 107767, Control_c, 0, 64, 61
2, 107787, Control_c, 0, 64, 60
2, 107806, Control_c, 0, 64, 59
2, 107825, Control_c, 0, 64, 58
2, 107844, Control_c, 0, 64, 57
2, 107864, Control_c, 0, 64, 52
2, 107882, Control_c, 0, 64, 38
2, 107896, Note_on_c, 0, 59, 78
2, 107902, Control_c, 0, 64, 0
2, 107902, Note_on_c, 0, 54, 74
2, 107904, Note_on_c, 0, 51, 67
2, 107910, Note_on_c, 0, 47, 55
2, 107917, Note_on_c, 0, 35, 58
2, 108926, Note_on_c, 0, 51, 0
2, 108927, Note_on_c, 0, 47, 0
2, 108936, Note_on_c, 0, 59, 0
2, 108940, Note_on_c, 0, 35, 0
2, 108989, Note_on_c, 0, 54, 0
2, 111703, Note_on_c, 0, 47, 43
2, 112929, Note_on_c, 0, 51, 53
2, 113010, Note_on_c, 0, 47, 0
2, 114153, Note_on_c, 0, 56, 68
2, 114235, Note_on_c, 0, 51, 0
2, 115365, Note_on_c, 0, 52, 55
2, 115422, Note_on_c, 0, 56, 0
2, 116583, Note_on_c, 0, 49, 60
2, 116690, Note_on_c, 0, 52, 0
2, 117794, Note_on_c, 0, 58, 66
2, 117948, Note_on_c, 0, 49, 0
2, 119062, Note_on_c, 0, 59, 66
2, 119120, Note_on_c, 0, 58, 0
2, 119648, Note_on_c, 0, 58, 56
2, 119722, Note_on_c, 0, 59, 0
2, 119919, Note_on_c, 0, 56, 65
2, 120020, Note_on_c, 0, 58, 0
2, 120241, Note_on_c, 0, 54, 59
2, 120294, Note_on_c, 0, 56, 0
2, 120780, Note_on_c, 0, 52, 54
2, 120808, Note_on_c, 0, 54, 0
2, 121332, Note_on_c, 0, 51, 46
2, 121338, Note_on_c, 0, 54, 66
2, 121412, Note_on_c, 0, 51, 0
2, 121415, Note_on_c, 0, 52, 0
2, 121609, Note_on_c, 0, 49, 53
2, 121703, Note_on_c, 0, 49, 0
2, 121929, Note_on_c, 0, 52, 53
2, 122478, Note_on_c, 0, 58, 64
2, 122653, Note_on_c, 0, 54, 0
2, 122997, Note_on_c, 0, 51, 38
2, 123054, Note_on_c, 0, 52, 0
2, 123273, Note_on_c, 0, 49, 49
2, 123321, Note_on_c, 0, 51, 0
2, 123567, Note_on_c, 0, 49, 0
2, 123577, Note_on_c, 0, 63, 67
2, 123579, Note_on_c, 0, 47, 49
2, 123647, Note_on_c, 0, 58, 0
2, 123847, Note_on_c, 0, 54, 41
2, 124118, Note_on_c, 0, 58, 48
2, 124178, Note_on_c, 0, 47, 0
2, 124235, Note_on_c, 0, 54, 0
2, 124685, Note_on_c, 0, 59, 69
2, 124790, Note_on_c, 0, 63, 0
2, 125210, Note_on_c, 0, 56, 52
2, 125261, Note_on_c, 0, 58, 0
2, 125484, Note_on_c, 0, 54, 51
2, 125485, Note_on_c, 0, 56, 0
2, 125748, Note_on_c, 0, 53, 40
2, 125755, Note_on_c, 0, 54, 0
2, 125761, Note_on_c, 0, 56, 67
2, 125781, Note_on_c, 0, 59, 0
2, 126051, Note_on_c, 0, 59, 44
2, 126057, Note_on_c, 0, 53, 0
2, 126321, Note_on_c, 0, 63, 44
2, 126340, Note_on_c, 0, 59, 0
2, 126855, Note_on_c, 0, 65, 66
2, 126885, Note_on_c, 0, 56, 0
2, 127372, Note_on_c, 0, 61, 52
2, 127527, Note_on_c, 0, 63, 0
2, 127624, Note_on_c, 0, 61, 0
2, 127638, Note_on_c, 0, 59, 53
2, 127952, Note_on_c, 0, 66, 66
2, 127958, Note_on_c, 0, 58, 43
2, 127985, Note_on_c, 0, 59, 0
2, 128013, Note_on_c, 0, 65, 0
2, 128483, Note_on_c, 0, 65, 56
2, 128499, Note_on_c, 0, 59, 36
2, 128508, Note_on_c, 0, 58, 0
2, 128528, Note_on_c, 0, 66, 0
2, 128748, Note_on_c, 0, 63, 65
2, 128783, Note_on_c, 0, 65, 0
2, 129032, Note_on_c, 0, 58, 41
2, 129034, Note_on_c, 0, 61, 59
2, 129053, Note_on_c, 0, 63, 0
2, 129067, Note_on_c, 0, 59, 0
2, 129579, Note_on_c, 0, 59, 54
2, 129581, Note_on_c, 0, 56, 37
2, 129593, Note_on_c, 0, 61, 0
2, 129623, Note_on_c, 0, 58, 0
2, 130115, Note_on_c, 0, 54, 34
2, 130133, Note_on_c, 0, 58, 57
2, 130170, Note_on_c, 0, 59, 0
2, 130206, Note_on_c, 0, 56, 0
2, 130399, Note_on_c, 0, 56, 65
2, 130423, Note_on_c, 0, 58, 0
2, 130655, Note_on_c, 0, 54, 0
2, 130669, Note_on_c, 0, 53, 40
2, 130672, Note_on_c, 0, 59, 63
2, 130710, Note_on_c, 0, 56, 0
2, 130953, Note_on_c, 0, 51, 40
2, 130991, Note_on_c, 0, 53, 0
2, 131204, Note_on_c, 0, 51, 0
2, 131209, Note_on_c, 0, 49, 40
2, 131477, Note_on_c, 0, 51, 35
2, 131514, Note_on_c, 0, 49, 0
2, 131751, Note_on_c, 0, 58, 38
2, 131775, Note_on_c, 0, 52, 35
2, 131782, Note_on_c, 0, 59, 0
2, 131797, Note_on_c, 0, 51, 0
2, 132021, Note_on_c, 0, 58, 0
2, 132022, Note_on_c, 0, 56, 55
2, 132326, Note_on_c, 0, 59, 67
2, 132327, Note_on_c, 0, 54, 35
2, 132358, Note_on_c, 0, 56, 0
2, 132400, Note_on_c, 0, 52, 0
2, 132611, Note_on_c, 0, 56, 53
2, 132617, Note_on_c, 0, 54, 0
2, 132872, Note_on_c, 0, 57, 49
2, 132884, Note_on_c, 0, 56, 0
2, 132894, Note_on_c, 0, 51, 31
2, 133152, Note_on_c, 0, 49, 43
2, 133157, Note_on_c, 0, 51, 0
2, 133447, Note_on_c, 0, 49, 0
2, 133449, Note_on_c, 0, 47, 40
2, 133476, Note_on_c, 0, 63, 67
2, 133652, Note_on_c, 0, 57, 0
2, 133764, Note_on_c, 0, 59, 0
2, 134024, Note_on_c, 0, 56, 48
2, 134297, Note_on_c, 0, 54, 36
2, 134596, Note_on_c, 0, 68, 71
2, 134600, Note_on_c, 0, 52, 34
2, 134604, Note_on_c, 0, 56, 0
2, 134658, Note_on_c, 0, 63, 0
2, 134672, Note_on_c, 0, 54, 0
2, 134925, Note_on_c, 0, 59, 28
2, 135043, Note_on_c, 0, 47, 0
2, 135140, Note_on_c, 0, 63, 42
2, 135387, Note_on_c, 0, 48, 35
2, 135645, Note_on_c, 0, 52, 0
2, 135665, Note_on_c, 0, 49, 38
2, 135678, Note_on_c, 0, 64, 66
2, 135720, Note_on_c, 0, 48, 0
2, 135777, Note_on_c, 0, 63, 0
2, 135884, Note_on_c, 0, 68, 0
2, 135937, Note_on_c, 0, 51, 57
2, 135954, Note_on_c, 0, 49, 0
2, 135966, Note_on_c, 0, 59, 0
2, 136185, Note_on_c, 0, 51, 0
2, 136203, Note_on_c, 0, 52, 57
2, 136204, Note_on_c, 0, 61, 50
2, 136449, Note_on_c, 0, 49, 55
2, 136459, Note_on_c, 0, 61, 0
2, 136463, Note_on_c, 0, 52, 0
2, 136471, Note_on_c, 0, 59, 50
2, 136761, Note_on_c, 0, 54, 55
2, 136766, Note_on_c, 0, 61, 70
2, 136768, Note_on_c, 0, 58, 40
2, 136777, Note_on_c, 0, 59, 0
2, 136793, Note_on_c, 0, 64, 0
2, 136877, Note_on_c, 0, 49, 0
2, 137054, Note_on_c, 0, 64, 40
2, 137303, Note_on_c, 0, 68, 51
2, 137371, Note_on_c, 0, 64, 0
2, 137569, Note_on_c, 0, 52, 42
2, 137605, Note_on_c, 0, 54, 0
2, 137848, Note_on_c, 0, 70, 74
2, 137865, Note_on_c, 0, 58, 0
2, 137867, Note_on_c, 0, 52, 0
2, 137884, Note_on_c, 0, 51, 37
2, 138012, Note_on_c, 0, 68, 0
2, 138120, Note_on_c, 0, 51, 0
2, 138151, Note_on_c, 0, 49, 42
2, 138420, Note_on_c, 0, 51, 42
2, 138423, Note_on_c, 0, 66, 42
2, 138455, Note_on_c, 0, 49, 0
2, 138633, Note_on_c, 0, 61, 0
2, 138691, Note_on_c, 0, 66, 0
2, 138699, Note_on_c, 0, 64, 53
2, 139013, Note_on_c, 0, 51, 0
2, 139022, Note_on_c, 0, 56, 29
2, 139025, Note_on_c, 0, 71, 67
2, 139035, Note_on_c, 0, 64, 0
2, 139057, Note_on_c, 0, 63, 42
2, 139083, Note_on_c, 0, 70, 0
2, 139555, Note_on_c, 0, 71, 0
2, 139559, Note_on_c, 0, 44, 33
2, 139565, Note_on_c, 0, 70, 64
2, 139578, Note_on_c, 0, 64, 48
2, 139579, Note_on_c, 0, 63, 0
2, 139591, Note_on_c, 0, 56, 0
2, 139808, Note_on_c, 0, 70, 0
2, 139824, Note_on_c, 0, 68, 64
2, 140116, Note_on_c, 0, 68, 0
2, 140131, Note_on_c, 0, 66, 58
2, 140145, Note_on_c, 0, 64, 0
2, 140146, Note_on_c, 0, 63, 38
2, 140669, Note_on_c, 0, 46, 35
2, 140672, Note_on_c, 0, 64, 58
2, 140679, Note_on_c, 0, 63, 0
2, 140690, Note_on_c, 0, 66, 0
2, 140691, Note_on_c, 0, 61, 41
2, 140702, Note_on_c, 0, 44, 0
2, 141201, Note_on_c, 0, 64, 0
2, 141217, Note_on_c, 0, 66, 59
2, 141232, Note_on_c, 0, 63, 43
2, 141234, Note_on_c, 0, 47, 38
2, 141239, Note_on_c, 0, 46, 0
2, 141241, Note_on_c, 0, 61, 0
2, 141246, Note_on_c, 0, 59, 20
2, 141451, Note_on_c, 0, 63, 0
2, 141500, Note_on_c, 0, 61, 45
2, 141573, Note_on_c, 0, 47, 0
2, 141749, Note_on_c, 0, 61, 0
2, 141759, Note_on_c, 0, 64, 55
2, 141779, Note_on_c, 0, 58, 32
2, 141943, Note_on_c, 0, 59, 0
2, 142026, Note_on_c, 0, 56, 52
2, 142076, Note_on_c, 0, 58, 0
2, 142329, Note_on_c, 0, 70, 73
2, 142332, Note_on_c, 0, 54, 43
2, 142388, Note_on_c, 0, 56, 0
2, 142440, Note_on_c, 0, 66, 0
2, 142785, Note_on_c, 0, 64, 0
2, 142896, Note_on_c, 0, 63, 51
2, 143176, Note_on_c, 0, 61, 39
2, 143247, Note_on_c, 0, 63, 0
2, 143446, Note_on_c, 0, 75, 75
2, 143465, Note_on_c, 0, 59, 42
2, 143481, Note_on_c, 0, 70, 0
2, 143541, Note_on_c, 0, 61, 0
2, 143748, Note_on_c, 0, 66, 37
2, 143808, Note_on_c, 0, 54, 0
2, 143994, Note_on_c, 0, 70, 53
2, 144168, Note_on_c, 0, 66, 0
2, 144248, Note_on_c, 0, 55, 50
2, 144522, Note_on_c, 0, 56, 48
2, 144524, Note_on_c, 0, 71, 72
2, 144547, Note_on_c, 0, 55, 0
2, 144572, Note_on_c, 0, 59, 0
2, 144593, Note_on_c, 0, 70, 0
2, 144625, Note_on_c, 0, 75, 0
2, 144786, Note_on_c, 0, 58, 59
2, 144820, Note_on_c, 0, 56, 0
2, 145038, Note_on_c, 0, 68, 67
2, 145039, Note_on_c, 0, 58, 0
2, 145041, Note_on_c, 0, 59, 68
2, 145282, Note_on_c, 0, 56, 61
2, 145291, Note_on_c, 0, 68, 0
2, 145295, Note_on_c, 0, 66, 63
2, 145312, Note_on_c, 0, 59, 0
2, 145498, Note_on_c, 0, 66, 0
2, 145586, Note_on_c, 0, 65, 54
2, 145586, Note_on_c, 0, 68, 80
2, 145590, Note_on_c, 0, 61, 50
2, 145623, Note_on_c, 0, 71, 0
2, 145653, Note_on_c, 0, 56, 0
2, 145872, Note_on_c, 0, 71, 63
2, 145887, Note_on_c, 0, 65, 0
2, 146142, Note_on_c, 0, 75, 67
2, 146176, Note_on_c, 0, 71, 0
2, 146372, Note_on_c, 0, 59, 61
2, 146434, Note_on_c, 0, 61, 0
2, 146650, Note_on_c, 0, 58, 51
2, 146652, Note_on_c, 0, 77, 73
2, 146721, Note_on_c, 0, 59, 0
2, 146741, Note_on_c, 0, 75, 0
2, 146922, Note_on_c, 0, 56, 59
2, 146935, Note_on_c, 0, 58, 0
2, 147222, Note_on_c, 0, 58, 44
2, 147225, Note_on_c, 0, 73, 68
2, 147234, Note_on_c, 0, 56, 0
2, 147504, Note_on_c, 0, 71, 74
2, 147513, Control_c, 0, 64, 37
2, 147516, Note_on_c, 0, 68, 0
2, 147533, Control_c, 0, 64, 52
2, 147536, Note_on_c, 0, 77, 0
2, 147551, Control_c, 0, 64, 60
2, 147571, Control_c, 0, 64, 62
2, 147572, Note_on_c, 0, 73, 0
2, 147590, Control_c, 0, 64, 63
2, 147609, Control_c, 0, 64, 63
2, 147705, Control_c, 0, 64, 63
2, 147743, Control_c, 0, 64, 63
2, 147762, Control_c, 0, 64, 63
2, 147782, Control_c, 0, 64, 61
2, 147796, Note_on_c, 0, 78, 75
2, 147801, Control_c, 0, 64, 56
2, 147802, Note_on_c, 0, 58, 0
2, 147815, Note_on_c, 0, 70, 59
2, 147819, Note_on_c, 0, 71, 0
2, 147820, Control_c, 0, 64, 36
2, 147823, Note_on_c, 0, 63, 34
2, 147839, Control_c, 0, 64, 0
2, 147936, Control_c, 0, 64, 43
2, 147954, Control_c, 0, 64, 57
2, 147974, Control_c, 0, 64, 59
2, 147993, Control_c, 0, 64, 61
2, 148013, Control_c, 0, 64, 63
2, 148031, Control_c, 0, 64, 63
2, 148051, Control_c, 0, 64, 64
2, 148070, Control_c, 0, 64, 65
2, 148089, Control_c, 0, 64, 66
2, 148122, Note_on_c, 0, 78, 0
2, 148185, Control_c, 0, 64, 65
2, 148223, Control_c, 0, 64, 65
2, 148242, Control_c, 0, 64, 64
2, 148281, Control_c, 0, 64, 63
2, 148319, Control_c, 0, 64, 63
2, 148339, Control_c, 0, 64, 62
2, 148350, Note_on_c, 0, 51, 34
2, 148353, Note_on_c, 0, 71, 56
2, 148356, Note_on_c, 0, 77, 59
2, 148358, Control_c, 0, 64, 59
2, 148376, Note_on_c, 0, 70, 0
2, 148377, Control_c, 0, 64, 54
2, 148396, Control_c, 0, 64, 46
2, 148417, Control_c, 0, 64, 36
2, 148426, Note_on_c, 0, 63, 0
2, 148435, Control_c, 0, 64, 20
2, 148455, Control_c, 0, 64, 0
2, 148633, Note_on_c, 0, 75, 68
2, 148657, Note_on_c, 0, 77, 0
2, 148879, Note_on_c, 0, 75, 0
2, 148901, Note_on_c, 0, 73, 58
2, 148920, Note_on_c, 0, 70, 39
2, 148922, Note_on_c, 0, 71, 0
2, 149421, Note_on_c, 0, 70, 0
2, 149424, Note_on_c, 0, 53, 34
2, 149425, Note_on_c, 0, 71, 57
2, 149442, Note_on_c, 0, 68, 42
2, 149523, Note_on_c, 0, 51, 0
2, 149526, Note_on_c, 0, 73, 0
2, 149925, Note_on_c, 0, 71, 0
2, 149974, Note_on_c, 0, 54, 47
2, 149976, Note_on_c, 0, 70, 54
2, 149980, Note_on_c, 0, 68, 0
2, 149994, Note_on_c, 0, 66, 32
2, 149999, Note_on_c, 0, 53, 0
2, 150243, Note_on_c, 0, 68, 63
2, 150443, Note_on_c, 0, 66, 0
2, 150500, Note_on_c, 0, 68, 0
2, 150507, Note_on_c, 0, 65, 61
2, 150507, Note_on_c, 0, 71, 67
2, 150516, Note_on_c, 0, 54, 0
2, 150516, Note_on_c, 0, 70, 0
2, 150521, Note_on_c, 0, 56, 41
2, 150757, Note_on_c, 0, 65, 0
2, 150773, Note_on_c, 0, 63, 58
2, 151027, Note_on_c, 0, 63, 0
2, 151050, Note_on_c, 0, 61, 53
2, 151052, Note_on_c, 0, 58, 50
2, 151081, Note_on_c, 0, 56, 0
2, 151310, Note_on_c, 0, 71, 0
2, 151318, Note_on_c, 0, 61, 0
2, 151320, Note_on_c, 0, 63, 52
2, 151599, Note_on_c, 0, 63, 0
2, 151602, Note_on_c, 0, 70, 51
2, 151608, Note_on_c, 0, 64, 47
2, 151614, Note_on_c, 0, 54, 35
2, 151653, Note_on_c, 0, 58, 0
2, 151881, Note_on_c, 0, 70, 0
2, 151891, Note_on_c, 0, 68, 55
2, 152178, Note_on_c, 0, 47, 71
2, 152183, Note_on_c, 0, 68, 0
2, 152203, Note_on_c, 0, 59, 46
2, 152209, Note_on_c, 0, 66, 48
2, 152453, Note_on_c, 0, 68, 58
2, 152454, Note_on_c, 0, 66, 0
2, 152520, Note_on_c, 0, 54, 0
2, 152689, Note_on_c, 0, 68, 0
2, 152709, Note_on_c, 0, 69, 53
2, 152713, Note_on_c, 0, 64, 0
2, 152731, Note_on_c, 0, 63, 41
2, 152738, Note_on_c, 0, 54, 43
2, 152987, Note_on_c, 0, 63, 0
2, 152989, Note_on_c, 0, 52, 59
2, 152989, Note_on_c, 0, 61, 56
2, 153039, Note_on_c, 0, 54, 0
2, 153062, Note_on_c, 0, 59, 0
2, 153265, Note_on_c, 0, 51, 72
2, 153301, Note_on_c, 0, 61, 0
2, 153303, Note_on_c, 0, 59, 64
2, 153304, Note_on_c, 0, 54, 48
2, 153342, Note_on_c, 0, 69, 0
2, 153378, Note_on_c, 0, 47, 0
2, 153397, Note_on_c, 0, 52, 0
2, 153548, Note_on_c, 0, 61, 65
2, 153558, Note_on_c, 0, 59, 0
2, 153817, Note_on_c, 0, 68, 60
2, 153823, Note_on_c, 0, 61, 0
2, 153824, Note_on_c, 0, 59, 63
2, 153824, Note_on_c, 0, 63, 49
2, 153849, Note_on_c, 0, 54, 0
2, 154071, Note_on_c, 0, 66, 65
2, 154302, Note_on_c, 0, 68, 0
2, 154315, Note_on_c, 0, 63, 0
2, 154343, Note_on_c, 0, 66, 0
2, 154357, Note_on_c, 0, 56, 74
2, 154357, Note_on_c, 0, 64, 59
2, 154553, Note_on_c, 0, 51, 0
2, 154615, Note_on_c, 0, 71, 74
2, 154638, Note_on_c, 0, 59, 0
2, 154843, Note_on_c, 0, 64, 0
2, 154889, Note_on_c, 0, 75, 80
2, 155128, Note_on_c, 0, 58, 64
2, 155147, Note_on_c, 0, 66, 64
2, 155235, Note_on_c, 0, 71, 0
2, 155306, Note_on_c, 0, 56, 0
2, 155423, Note_on_c, 0, 59, 48
2, 155429, Note_on_c, 0, 52, 72
2, 155435, Note_on_c, 0, 68, 73
2, 155450, Note_on_c, 0, 66, 0
2, 155677, Note_on_c, 0, 59, 0
2, 155696, Note_on_c, 0, 56, 74
2, 155715, Note_on_c, 0, 58, 0
2, 155852, Note_on_c, 0, 75, 0
2, 155950, Note_on_c, 0, 73, 66
2, 155952, Note_on_c, 0, 58, 67
2, 156008, Note_on_c, 0, 56, 0
2, 156070, Note_on_c, 0, 52, 0
2, 156096, Control_c, 0, 64, 37
2, 156114, Control_c, 0, 64, 53
2, 156118, Note_on_c, 0, 68, 0
2, 156134, Control_c, 0, 64, 59
2, 156153, Control_c, 0, 64, 62
2, 156173, Control_c, 0, 64, 64
2, 156176, Note_on_c, 0, 58, 0
2, 156186, Note_on_c, 0, 59, 84
2, 156191, Control_c, 0, 64, 65
2, 156208, Note_on_c, 0, 71, 74
2, 156211, Control_c, 0, 64, 68
2, 156218, Note_on_c, 0, 73, 0
2, 156230, Control_c, 0, 64, 71
2, 156232, Note_on_c, 0, 59, 0
2, 156249, Control_c, 0, 64, 74
2, 156268, Control_c, 0, 64, 76
2, 156326, Control_c, 0, 64, 76
2, 156345, Control_c, 0, 64, 75
2, 156422, Control_c, 0, 64, 76
2, 156460, Control_c, 0, 64, 75
2, 156461, Note_on_c, 0, 71, 0
2, 156479, Control_c, 0, 64, 68
2, 156479, Note_on_c, 0, 49, 84
2, 156486, Note_on_c, 0, 61, 72
2, 156494, Note_on_c, 0, 70, 71
2, 156499, Control_c, 0, 64, 60
2, 156518, Control_c, 0, 64, 27
2, 156537, Control_c, 0, 64, 0
2, 156766, Note_on_c, 0, 76, 78
2, 156883, Control_c, 0, 64, 36
2, 156903, Control_c, 0, 64, 52
2, 156922, Control_c, 0, 64, 55
2, 156941, Control_c, 0, 64, 58
2, 156960, Control_c, 0, 64, 60
2, 156980, Control_c, 0, 64, 62
2, 156985, Note_on_c, 0, 49, 0
2, 156998, Control_c, 0, 64, 63
2, 157018, Control_c, 0, 64, 64
2, 157033, Note_on_c, 0, 80, 86
2, 157037, Control_c, 0, 64, 64
2, 157057, Control_c, 0, 64, 65
2, 157059, Note_on_c, 0, 61, 0
2, 157075, Control_c, 0, 64, 66
2, 157095, Control_c, 0, 64, 67
2, 157102, Note_on_c, 0, 70, 0
2, 157114, Control_c, 0, 64, 69
2, 157134, Control_c, 0, 64, 70
2, 157152, Control_c, 0, 64, 71
2, 157172, Control_c, 0, 64, 72
2, 157191, Control_c, 0, 64, 73
2, 157210, Control_c, 0, 64, 74
2, 157229, Control_c, 0, 64, 74
2, 157249, Control_c, 0, 64, 75
2, 157268, Control_c, 0, 64, 76
2, 157286, Note_on_c, 0, 71, 75
2, 157287, Control_c, 0, 64, 77
2, 157306, Control_c, 0, 64, 78
2, 157326, Control_c, 0, 64, 78
2, 157421, Control_c, 0, 64, 78
2, 157440, Control_c, 0, 64, 77
2, 157555, Control_c, 0, 64, 76
2, 157560, Note_on_c, 0, 58, 67
2, 157570, Note_on_c, 0, 73, 70
2, 157572, Control_c, 0, 64, 69
2, 157591, Control_c, 0, 64, 60
2, 157602, Note_on_c, 0, 71, 0
2, 157611, Control_c, 0, 64, 0
2, 157778, Note_on_c, 0, 80, 0
2, 157854, Note_on_c, 0, 61, 66
2, 157860, Control_c, 0, 64, 38
2, 157879, Control_c, 0, 64, 53
2, 157899, Control_c, 0, 64, 57
2, 157917, Control_c, 0, 64, 61
2, 157937, Control_c, 0, 64, 63
2, 157956, Control_c, 0, 64, 64
2, 157975, Control_c, 0, 64, 64
2, 157994, Control_c, 0, 64, 65
2, 158016, Control_c, 0, 64, 66
2, 158034, Control_c, 0, 64, 66
2, 158054, Control_c, 0, 64, 67
2, 158073, Control_c, 0, 64, 68
2, 158093, Control_c, 0, 64, 69
2, 158109, Note_on_c, 0, 66, 63
2, 158111, Control_c, 0, 64, 70
2, 158131, Control_c, 0, 64, 71
2, 158135, Note_on_c, 0, 78, 74
2, 158150, Control_c, 0, 64, 73
2, 158169, Control_c, 0, 64, 75
2, 158178, Note_on_c, 0, 76, 0
2, 158188, Control_c, 0, 64, 77
2, 158208, Control_c, 0, 64, 79
2, 158227, Control_c, 0, 64, 81
2, 158245, Control_c, 0, 64, 82
2, 158265, Control_c, 0, 64, 83
2, 158279, Note_on_c, 0, 58, 0
2, 158279, Note_on_c, 0, 61, 0
2, 158322, Control_c, 0, 64, 83
2, 158388, Note_on_c, 0, 76, 82
2, 158430, Note_on_c, 0, 78, 0
2, 158472, Note_on_c, 0, 66, 0
2, 158550, Control_c, 0, 64, 83
2, 158570, Control_c, 0, 64, 82
2, 158588, Control_c, 0, 64, 81
2, 158608, Control_c, 0, 64, 80
2, 158627, Control_c, 0, 64, 80
2, 158665, Control_c, 0, 64, 79
2, 158673, Note_on_c, 0, 75, 78
2, 158678, Note_on_c, 0, 59, 75
2, 158684, Control_c, 0, 64, 74
2, 158694, Note_on_c, 0, 76, 0
2, 158704, Control_c, 0, 64, 65
2, 158723, Control_c, 0, 64, 42
2, 158723, Note_on_c, 0, 73, 0
2, 158742, Control_c, 0, 64, 0
2, 158838, Control_c, 0, 64, 20
2, 158858, Control_c, 0, 64, 27
2, 158876, Control_c, 0, 64, 36
2, 158896, Control_c, 0, 64, 44
2, 158915, Control_c, 0, 64, 47
2, 158919, Note_on_c, 0, 73, 62
2, 158934, Control_c, 0, 64, 46
2, 158976, Control_c, 0, 64, 46
2, 159203, Note_on_c, 0, 63, 59
2, 159210, Note_on_c, 0, 66, 70
2, 159211, Note_on_c, 0, 73, 0
2, 159212, Note_on_c, 0, 71, 61
2, 159244, Control_c, 0, 64, 45
2, 159321, Control_c, 0, 64, 45
2, 159398, Control_c, 0, 64, 45
2, 159466, Note_on_c, 0, 64, 70
2, 159473, Note_on_c, 0, 70, 64
2, 159478, Note_on_c, 0, 71, 0
2, 159479, Note_on_c, 0, 63, 0
2, 159489, Note_on_c, 0, 61, 57
2, 159513, Control_c, 0, 64, 46
2, 159524, Note_on_c, 0, 59, 0
2, 159640, Note_on_c, 0, 66, 0
2, 159701, Note_on_c, 0, 61, 0
2, 159740, Note_on_c, 0, 63, 64
2, 159744, Control_c, 0, 64, 45
2, 159747, Note_on_c, 0, 68, 68
2, 159749, Note_on_c, 0, 70, 0
2, 159756, Note_on_c, 0, 59, 51
2, 159812, Note_on_c, 0, 64, 0
2, 159820, Control_c, 0, 64, 46
2, 159839, Control_c, 0, 64, 47
2, 159859, Control_c, 0, 64, 51
2, 159878, Control_c, 0, 64, 56
2, 159897, Control_c, 0, 64, 59
2, 159916, Control_c, 0, 64, 61
2, 159937, Control_c, 0, 64, 62
2, 159975, Control_c, 0, 64, 62
2, 159977, Note_on_c, 0, 68, 0
2, 159984, Note_on_c, 0, 63, 0
2, 160004, Note_on_c, 0, 67, 52
2, 160032, Control_c, 0, 64, 63
2, 160052, Control_c, 0, 64, 64
2, 160205, Control_c, 0, 64, 63
2, 160257, Note_on_c, 0, 67, 0
2, 160263, Control_c, 0, 64, 63
2, 160264, Note_on_c, 0, 61, 49
2, 160269, Note_on_c, 0, 68, 58
2, 160282, Control_c, 0, 64, 61
2, 160301, Control_c, 0, 64, 60
2, 160306, Note_on_c, 0, 58, 46
2, 160310, Note_on_c, 0, 59, 0
2, 160320, Control_c, 0, 64, 58
2, 160340, Control_c, 0, 64, 57
2, 160358, Control_c, 0, 64, 55
2, 160378, Control_c, 0, 64, 54
2, 160397, Control_c, 0, 64, 52
2, 160417, Control_c, 0, 64, 51
2, 160454, Control_c, 0, 64, 50
2, 160473, Control_c, 0, 64, 50
2, 160493, Control_c, 0, 64, 49
2, 160497, Note_on_c, 0, 68, 0
2, 160511, Control_c, 0, 64, 48
2, 160529, Note_on_c, 0, 67, 54
2, 160531, Control_c, 0, 64, 48
2, 160550, Control_c, 0, 64, 47
2, 160569, Control_c, 0, 64, 47
2, 160588, Control_c, 0, 64, 44
2, 160608, Control_c, 0, 64, 43
2, 160627, Control_c, 0, 64, 42
2, 160645, Control_c, 0, 64, 40
2, 160665, Control_c, 0, 64, 36
2, 160684, Control_c, 0, 64, 33
2, 160704, Control_c, 0, 64, 31
2, 160722, Control_c, 0, 64, 28
2, 160742, Control_c, 0, 64, 26
2, 160761, Control_c, 0, 64, 25
2, 160780, Control_c, 0, 64, 22
2, 160790, Note_on_c, 0, 56, 41
2, 160795, Note_on_c, 0, 67, 0
2, 160799, Control_c, 0, 64, 19
2, 160800, Note_on_c, 0, 59, 50
2, 160800, Note_on_c, 0, 68, 55
2, 160809, Note_on_c, 0, 58, 0
2, 160819, Control_c, 0, 64, 17
2, 160821, Note_on_c, 0, 61, 0
2, 160897, Control_c, 0, 64, 19
2, 160899, Note_on_c, 0, 75, 0
2, 160915, Control_c, 0, 64, 27
2, 160935, Control_c, 0, 64, 39
2, 160954, Control_c, 0, 64, 50
2, 160974, Control_c, 0, 64, 56
2, 160992, Control_c, 0, 64, 60
2, 161012, Control_c, 0, 64, 62
2, 161031, Control_c, 0, 64, 63
2, 161050, Control_c, 0, 64, 65
2, 161055, Note_on_c, 0, 68, 0
2, 161069, Control_c, 0, 64, 66
2, 161077, Note_on_c, 0, 71, 61
2, 161089, Control_c, 0, 64, 67
2, 161108, Control_c, 0, 64, 69
2, 161123, Note_on_c, 0, 71, 0
2, 161127, Control_c, 0, 64, 71
2, 161146, Control_c, 0, 64, 72
2, 161165, Control_c, 0, 64, 72
2, 161223, Control_c, 0, 64, 72
2, 161242, Control_c, 0, 64, 71
2, 161261, Control_c, 0, 64, 71
2, 161300, Control_c, 0, 64, 70
2, 161318, Control_c, 0, 64, 70
2, 161328, Note_on_c, 0, 61, 44
2, 161338, Control_c, 0, 64, 68
2, 161340, Note_on_c, 0, 79, 67
2, 161357, Control_c, 0, 64, 64
2, 161359, Note_on_c, 0, 70, 56
2, 161377, Control_c, 0, 64, 58
2, 161395, Control_c, 0, 64, 46
2, 161395, Note_on_c, 0, 59, 0
2, 161411, Control_c, 0, 64, 22
2, 161430, Control_c, 0, 64, 0
2, 161564, Control_c, 0, 64, 20
2, 161584, Control_c, 0, 64, 40
2, 161603, Control_c, 0, 64, 54
2, 161607, Note_on_c, 0, 73, 52
2, 161622, Control_c, 0, 64, 58
2, 161633, Note_on_c, 0, 70, 0
2, 161641, Control_c, 0, 64, 60
2, 161661, Control_c, 0, 64, 61
2, 161699, Control_c, 0, 64, 62
2, 161718, Control_c, 0, 64, 62
2, 161833, Control_c, 0, 64, 61
2, 161847, Note_on_c, 0, 56, 0
2, 161847, Note_on_c, 0, 79, 0
2, 161857, Control_c, 0, 64, 56
2, 161874, Note_on_c, 0, 73, 0
2, 161874, Note_on_c, 0, 80, 69
2, 161875, Control_c, 0, 64, 42
2, 161876, Note_on_c, 0, 63, 33
2, 161887, Note_on_c, 0, 71, 53
2, 161895, Control_c, 0, 64, 15
2, 161914, Control_c, 0, 64, 0
2, 161952, Control_c, 0, 64, 13
2, 161972, Control_c, 0, 64, 41
2, 161991, Control_c, 0, 64, 54
2, 162010, Control_c, 0, 64, 56
2, 162029, Control_c, 0, 64, 57
2, 162049, Control_c, 0, 64, 59
2, 162068, Control_c, 0, 64, 60
2, 162087, Control_c, 0, 64, 61
2, 162108, Note_on_c, 0, 61, 0
2, 162125, Control_c, 0, 64, 62
2, 162143, Note_on_c, 0, 55, 35
2, 162182, Note_on_c, 0, 63, 0
2, 162183, Control_c, 0, 64, 62
2, 162202, Control_c, 0, 64, 62
2, 162337, Control_c, 0, 64, 61
2, 162355, Control_c, 0, 64, 59
2, 162361, Note_on_c, 0, 71, 0
2, 162364, Note_on_c, 0, 55, 0
2, 162367, Note_on_c, 0, 80, 0
2, 162375, Control_c, 0, 64, 54
2, 162382, Note_on_c, 0, 73, 61
2, 162394, Control_c, 0, 64, 47
2, 162398, Note_on_c, 0, 70, 48
2, 162414, Control_c, 0, 64, 44
2, 162414, Note_on_c, 0, 56, 30
2, 162432, Control_c, 0, 64, 44
2, 162433, Note_on_c, 0, 64, 22
2, 162452, Control_c, 0, 64, 48
2, 162471, Control_c, 0, 64, 54
2, 162490, Control_c, 0, 64, 58
2, 162509, Control_c, 0, 64, 61
2, 162529, Control_c, 0, 64, 64
2, 162548, Control_c, 0, 64, 65
2, 162567, Control_c, 0, 64, 65
2, 162586, Control_c, 0, 64, 66
2, 162591, Note_on_c, 0, 73, 0
2, 162600, Note_on_c, 0, 70, 0
2, 162605, Control_c, 0, 64, 66
2, 162659, Note_on_c, 0, 64, 0
2, 162664, Note_on_c, 0, 55, 33
2, 162672, Note_on_c, 0, 56, 0
2, 162720, Control_c, 0, 64, 66
2, 162758, Control_c, 0, 64, 65
2, 162797, Control_c, 0, 64, 65
2, 162816, Control_c, 0, 64, 64
2, 162834, Control_c, 0, 64, 64
2, 162873, Control_c, 0, 64, 63
2, 162893, Control_c, 0, 64, 63
2, 162931, Control_c, 0, 64, 62
2, 162933, Note_on_c, 0, 55, 0
2, 162947, Note_on_c, 0, 71, 57
2, 162950, Control_c, 0, 64, 62
2, 162962, Note_on_c, 0, 63, 42
2, 162969, Control_c, 0, 64, 60
2, 162969, Note_on_c, 0, 56, 38
2, 162988, Control_c, 0, 64, 57
2, 163008, Control_c, 0, 64, 52
2, 163027, Control_c, 0, 64, 47
2, 163045, Control_c, 0, 64, 44
2, 163065, Control_c, 0, 64, 40
2, 163084, Control_c, 0, 64, 36
2, 163104, Control_c, 0, 64, 33
2, 163122, Control_c, 0, 64, 31
2, 163142, Control_c, 0, 64, 30
2, 163180, Control_c, 0, 64, 29
2, 163261, Note_on_c, 0, 70, 59
2, 163500, Note_on_c, 0, 59, 51
2, 163504, Note_on_c, 0, 68, 56
2, 163512, Note_on_c, 0, 70, 0
2, 163744, Note_on_c, 0, 68, 0
2, 163752, Note_on_c, 0, 61, 49
2, 163758, Note_on_c, 0, 59, 0
2, 163761, Note_on_c, 0, 66, 55
2, 163781, Note_on_c, 0, 56, 0
2, 163785, Note_on_c, 0, 58, 30
2, 163944, Note_on_c, 0, 58, 0
2, 163968, Control_c, 0, 64, 29
2, 164013, Note_on_c, 0, 66, 0
2, 164023, Note_on_c, 0, 63, 0
2, 164033, Note_on_c, 0, 56, 36
2, 164035, Note_on_c, 0, 59, 51
2, 164038, Note_on_c, 0, 65, 41
2, 164048, Note_on_c, 0, 61, 0
2, 164140, Control_c, 0, 64, 29
2, 164159, Control_c, 0, 64, 32
2, 164179, Control_c, 0, 64, 41
2, 164198, Control_c, 0, 64, 49
2, 164217, Control_c, 0, 64, 56
2, 164236, Control_c, 0, 64, 59
2, 164251, Note_on_c, 0, 56, 0
2, 164256, Control_c, 0, 64, 62
2, 164274, Control_c, 0, 64, 64
2, 164275, Note_on_c, 0, 65, 0
2, 164292, Control_c, 0, 64, 65
2, 164307, Note_on_c, 0, 66, 43
2, 164311, Control_c, 0, 64, 69
2, 164331, Control_c, 0, 64, 74
2, 164349, Control_c, 0, 64, 81
2, 164369, Control_c, 0, 64, 85
2, 164522, Control_c, 0, 64, 84
2, 164541, Note_on_c, 0, 66, 0
2, 164542, Control_c, 0, 64, 80
2, 164557, Note_on_c, 0, 62, 42
2, 164560, Control_c, 0, 64, 70
2, 164568, Note_on_c, 0, 54, 34
2, 164580, Control_c, 0, 64, 59
2, 164586, Note_on_c, 0, 65, 34
2, 164593, Note_on_c, 0, 59, 0
2, 164599, Control_c, 0, 64, 21
2, 164619, Control_c, 0, 64, 11
2, 164637, Control_c, 0, 64, 13
2, 164657, Control_c, 0, 64, 25
2, 164676, Control_c, 0, 64, 38
2, 164695, Control_c, 0, 64, 47
2, 164714, Control_c, 0, 64, 53
2, 164736, Control_c, 0, 64, 58
2, 164754, Control_c, 0, 64, 61
2, 164774, Control_c, 0, 64, 62
2, 164791, Note_on_c, 0, 54, 0
2, 164793, Control_c, 0, 64, 64
2, 164802, Note_on_c, 0, 62, 0
2, 164813, Control_c, 0, 64, 65
2, 164831, Control_c, 0, 64, 66
2, 164836, Note_on_c, 0, 66, 48
2, 164840, Note_on_c, 0, 65, 0
2, 164851, Control_c, 0, 64, 68
2, 164870, Control_c, 0, 64, 69
2, 164889, Control_c, 0, 64, 70
2, 164908, Control_c, 0, 64, 71
2, 164985, Control_c, 0, 64, 70
2, 165004, Control_c, 0, 64, 70
2, 165024, Control_c, 0, 64, 69
2, 165042, Control_c, 0, 64, 68
2, 165062, Control_c, 0, 64, 67
2, 165081, Control_c, 0, 64, 67
2, 165100, Control_c, 0, 64, 66
2, 165119, Control_c, 0, 64, 65
2, 165120, Note_on_c, 0, 53, 38
2, 165125, Note_on_c, 0, 68, 55
2, 165129, Note_on_c, 0, 61, 40
2, 165139, Control_c, 0, 64, 64
2, 165158, Control_c, 0, 64, 62
2, 165177, Control_c, 0, 64, 59
2, 165196, Control_c, 0, 64, 56
2, 165208, Note_on_c, 0, 66, 0
2, 165216, Control_c, 0, 64, 52
2, 165234, Control_c, 0, 64, 48
2, 165253, Control_c, 0, 64, 46
2, 165272, Control_c, 0, 64, 43
2, 165292, Control_c, 0, 64, 41
2, 165310, Control_c, 0, 64, 39
2, 165413, Note_on_c, 0, 71, 0
2, 165437, Note_on_c, 0, 70, 67
2, 165689, Note_on_c, 0, 71, 72
2, 165693, Note_on_c, 0, 70, 0
2, 165811, Control_c, 0, 64, 40
2, 165830, Control_c, 0, 64, 41
2, 165849, Control_c, 0, 64, 41
2, 165868, Control_c, 0, 64, 44
2, 165888, Control_c, 0, 64, 49
2, 165907, Control_c, 0, 64, 54
2, 165925, Control_c, 0, 64, 57
2, 165941, Note_on_c, 0, 53, 0
2, 165941, Note_on_c, 0, 56, 66
2, 165945, Control_c, 0, 64, 59
2, 165964, Control_c, 0, 64, 61
2, 165973, Note_on_c, 0, 61, 0
2, 165984, Control_c, 0, 64, 62
2, 166002, Control_c, 0, 64, 63
2, 166022, Control_c, 0, 64, 64
2, 166099, Control_c, 0, 64, 63
2, 166156, Control_c, 0, 64, 63
2, 166199, Note_on_c, 0, 56, 0
2, 166209, Note_on_c, 0, 54, 57
2, 166215, Control_c, 0, 64, 62
2, 166215, Note_on_c, 0, 58, 60
2, 166219, Note_on_c, 0, 68, 0
2, 166228, Note_on_c, 0, 61, 60
2, 166234, Control_c, 0, 64, 61
2, 166254, Control_c, 0, 64, 59
2, 166272, Control_c, 0, 64, 57
2, 166292, Control_c, 0, 64, 54
2, 166311, Control_c, 0, 64, 50
2, 166330, Control_c, 0, 64, 47
2, 166349, Control_c, 0, 64, 45
2, 166369, Control_c, 0, 64, 44
2, 166388, Control_c, 0, 64, 43
2, 166406, Control_c, 0, 64, 40
2, 166426, Control_c, 0, 64, 36
2, 166445, Control_c, 0, 64, 30
2, 166464, Control_c, 0, 64, 23
2, 166483, Control_c, 0, 64, 11
2, 166484, Note_on_c, 0, 59, 65
2, 166503, Control_c, 0, 64, 0
2, 166516, Note_on_c, 0, 58, 0
2, 166682, Note_on_c, 0, 61, 0
2, 166761, Note_on_c, 0, 61, 64
2, 166770, Note_on_c, 0, 66, 64
2, 166790, Control_c, 0, 64, 26
2, 166809, Control_c, 0, 64, 37
2, 166828, Control_c, 0, 64, 45
2, 166848, Control_c, 0, 64, 52
2, 166867, Control_c, 0, 64, 56
2, 166871, Note_on_c, 0, 59, 0
2, 166885, Control_c, 0, 64, 59
2, 166905, Control_c, 0, 64, 62
2, 166918, Note_on_c, 0, 71, 0
2, 166924, Control_c, 0, 64, 63
2, 166944, Control_c, 0, 64, 63
2, 166962, Control_c, 0, 64, 64
2, 166981, Note_on_c, 0, 54, 0
2, 166982, Control_c, 0, 64, 66
2, 167001, Control_c, 0, 64, 66
2, 167020, Control_c, 0, 64, 67
2, 167039, Control_c, 0, 64, 69
2, 167051, Note_on_c, 0, 70, 74
2, 167059, Control_c, 0, 64, 72
2, 167078, Control_c, 0, 64, 76
2, 167097, Control_c, 0, 64, 78
2, 167116, Control_c, 0, 64, 78
2, 167210, Control_c, 0, 64, 78
2, 167286, Control_c, 0, 64, 77
2, 167305, Control_c, 0, 64, 75
2, 167315, Note_on_c, 0, 68, 69
2, 167316, Note_on_c, 0, 70, 0
2, 167318, Note_on_c, 0, 49, 71
2, 167324, Control_c, 0, 64, 68
2, 167344, Control_c, 0, 64, 54
2, 167363, Control_c, 0, 64, 0
2, 167459, Control_c, 0, 64, 19
2, 167478, Control_c, 0, 64, 34
2, 167498, Control_c, 0, 64, 45
2, 167516, Control_c, 0, 64, 54
2, 167536, Control_c, 0, 64, 57
2, 167549, Note_on_c, 0, 61, 0
2, 167555, Control_c, 0, 64, 58
2, 167574, Control_c, 0, 64, 59
2, 167588, Note_on_c, 0, 71, 80
2, 167593, Control_c, 0, 64, 60
2, 167616, Control_c, 0, 64, 61
2, 167624, Note_on_c, 0, 68, 0
2, 167634, Control_c, 0, 64, 62
2, 167654, Control_c, 0, 64, 63
2, 167673, Control_c, 0, 64, 63
2, 167808, Control_c, 0, 64, 63
2, 167845, Control_c, 0, 64, 62
2, 167860, Note_on_c, 0, 71, 0
2, 167862, Note_on_c, 0, 75, 76
2, 167865, Control_c, 0, 64, 61
2, 167875, Note_on_c, 0, 59, 60
2, 167884, Control_c, 0, 64, 56
2, 167904, Control_c, 0, 64, 48
2, 167922, Control_c, 0, 64, 42
2, 167942, Control_c, 0, 64, 37
2, 167961, Control_c, 0, 64, 32
2, 167980, Control_c, 0, 64, 25
2, 167999, Control_c, 0, 64, 19
2, 168019, Control_c, 0, 64, 18
2, 168076, Control_c, 0, 64, 17
2, 168096, Control_c, 0, 64, 15
2, 168114, Control_c, 0, 64, 11
2, 168125, Note_on_c, 0, 58, 54
2, 168133, Control_c, 0, 64, 9
2, 168152, Control_c, 0, 64, 0
2, 168425, Note_on_c, 0, 65, 50
2, 168430, Note_on_c, 0, 56, 51
2, 168441, Note_on_c, 0, 58, 0
2, 168519, Note_on_c, 0, 66, 0
2, 168697, Note_on_c, 0, 54, 48
2, 168716, Note_on_c, 0, 56, 0
2, 168963, Note_on_c, 0, 54, 0
2, 168998, Note_on_c, 0, 56, 45
2, 169001, Note_on_c, 0, 73, 56
2, 169133, Control_c, 0, 64, 27
2, 169151, Control_c, 0, 64, 44
2, 169171, Control_c, 0, 64, 58
2, 169189, Note_on_c, 0, 49, 0
2, 169190, Control_c, 0, 64, 63
2, 169199, Note_on_c, 0, 59, 0
2, 169209, Control_c, 0, 64, 66
2, 169224, Note_on_c, 0, 56, 0
2, 169228, Control_c, 0, 64, 68
2, 169247, Control_c, 0, 64, 71
2, 169267, Control_c, 0, 64, 79
2, 169285, Control_c, 0, 64, 90
2, 169287, Note_on_c, 0, 75, 0
2, 169289, Note_on_c, 0, 71, 61
2, 169305, Control_c, 0, 64, 97
2, 169324, Control_c, 0, 64, 98
2, 169344, Control_c, 0, 64, 98
2, 169370, Note_on_c, 0, 65, 0
2, 169420, Control_c, 0, 64, 98
2, 169439, Control_c, 0, 64, 97
2, 169459, Control_c, 0, 64, 96
2, 169478, Control_c, 0, 64, 95
2, 169497, Control_c, 0, 64, 94
2, 169516, Control_c, 0, 64, 91
2, 169536, Control_c, 0, 64, 89
2, 169554, Control_c, 0, 64, 86
2, 169574, Control_c, 0, 64, 85
2, 169593, Control_c, 0, 64, 85
2, 169613, Control_c, 0, 64, 83
2, 169629, Note_on_c, 0, 71, 0
2, 169631, Control_c, 0, 64, 80
2, 169632, Note_on_c, 0, 54, 45
2, 169641, Note_on_c, 0, 42, 35
2, 169644, Note_on_c, 0, 66, 52
2, 169650, Note_on_c, 0, 70, 59
2, 169651, Control_c, 0, 64, 75
2, 169670, Control_c, 0, 64, 69
2, 169689, Control_c, 0, 64, 63
2, 169704, Note_on_c, 0, 73, 0
2, 169708, Control_c, 0, 64, 53
2, 169727, Control_c, 0, 64, 30
2, 169747, Control_c, 0, 64, 0
2, 169996, Control_c, 0, 64, 17
2, 170016, Control_c, 0, 64, 27
2, 170034, Control_c, 0, 64, 38
2, 170053, Control_c, 0, 64, 49
2, 170072, Control_c, 0, 64, 55
2, 170092, Control_c, 0, 64, 56
2, 170110, Control_c, 0, 64, 57
2, 170130, Control_c, 0, 64, 58
2, 170149, Control_c, 0, 64, 61
2, 170169, Control_c, 0, 64, 62
2, 170187, Control_c, 0, 64, 63
2, 170206, Control_c, 0, 64, 63
2, 170226, Control_c, 0, 64, 64
2, 170244, Control_c, 0, 64, 65
2, 170264, Control_c, 0, 64, 67
2, 170283, Control_c, 0, 64, 70
2, 170290, Note_on_c, 0, 42, 0
2, 170303, Control_c, 0, 64, 72
2, 170321, Control_c, 0, 64, 75
2, 170341, Control_c, 0, 64, 77
2, 170360, Control_c, 0, 64, 78
2, 170535, Control_c, 0, 64, 78
2, 170574, Control_c, 0, 64, 77
2, 170592, Control_c, 0, 64, 76
2, 170631, Control_c, 0, 64, 76
2, 170650, Control_c, 0, 64, 75
2, 170669, Control_c, 0, 64, 74
2, 170689, Control_c, 0, 64, 74
2, 170726, Control_c, 0, 64, 73
2, 170746, Control_c, 0, 64, 72
2, 170765, Control_c, 0, 64, 71
2, 170784, Control_c, 0, 64, 69
2, 170803, Control_c, 0, 64, 67
2, 170806, Note_on_c, 0, 58, 52
2, 170823, Control_c, 0, 64, 65
2, 170826, Note_on_c, 0, 66, 0
2, 170842, Control_c, 0, 64, 62
2, 170861, Control_c, 0, 64, 59
2, 170880, Control_c, 0, 64, 52
2, 170900, Control_c, 0, 64, 45
2, 170908, Note_on_c, 0, 70, 0
2, 170918, Control_c, 0, 64, 42
2, 170938, Control_c, 0, 64, 41
2, 170957, Control_c, 0, 64, 39
2, 170977, Control_c, 0, 64, 38
2, 170995, Control_c, 0, 64, 36
2, 171013, Control_c, 0, 64, 36
2, 171032, Control_c, 0, 64, 35
2, 171052, Control_c, 0, 64, 31
2, 171070, Control_c, 0, 64, 20
2, 171074, Note_on_c, 0, 54, 0
2, 171090, Control_c, 0, 64, 13
2, 171147, Control_c, 0, 64, 11
2, 171166, Control_c, 0, 64, 9
2, 171186, Control_c, 0, 64, 0
2, 171877, Control_c, 0, 64, 11
2, 171915, Control_c, 0, 64, 13
2, 171920, Note_on_c, 0, 63, 63
2, 171953, Control_c, 0, 64, 15
2, 171973, Control_c, 0, 64, 17
2, 171992, Control_c, 0, 64, 18
2, 172030, Control_c, 0, 64, 19
2, 172036, Note_on_c, 0, 58, 0
2, 172050, Control_c, 0, 64, 20
2, 172069, Control_c, 0, 64, 22
2, 172107, Control_c, 0, 64, 23
2, 172126, Control_c, 0, 64, 24
2, 172146, Control_c, 0, 64, 25
2, 172164, Control_c, 0, 64, 27
2, 172184, Control_c, 0, 64, 28
2, 172261, Control_c, 0, 64, 29
2, 172338, Control_c, 0, 64, 29
2, 172415, Control_c, 0, 64, 30
2, 172453, Control_c, 0, 64, 31
2, 172472, Control_c, 0, 64, 31
2, 172475, Note_on_c, 0, 78, 60
2, 172492, Control_c, 0, 64, 32
2, 172530, Control_c, 0, 64, 32
2, 172569, Control_c, 0, 64, 33
2, 172587, Control_c, 0, 64, 34
2, 172626, Control_c, 0, 64, 34
2, 172703, Control_c, 0, 64, 35
2, 172736, Note_on_c, 0, 76, 65
2, 172807, Note_on_c, 0, 78, 0
2, 172818, Control_c, 0, 64, 35
2, 172875, Control_c, 0, 64, 36
2, 172895, Control_c, 0, 64, 36
2, 172913, Control_c, 0, 64, 37
2, 172990, Control_c, 0, 64, 37
2, 172993, Note_on_c, 0, 75, 66
2, 173010, Note_on_c, 0, 59, 63
2, 173024, Note_on_c, 0, 76, 0
2, 173159, Note_on_c, 0, 63, 0
2, 173258, Note_on_c, 0, 76, 72
2, 173304, Note_on_c, 0, 75, 0
2, 173504, Note_on_c, 0, 78, 69
2, 173544, Note_on_c, 0, 76, 0
2, 173768, Note_on_c, 0, 75, 69
2, 173806, Note_on_c, 0, 78, 0
2, 173870, Control_c, 0, 64, 38
2, 174030, Note_on_c, 0, 56, 67
2, 174038, Note_on_c, 0, 71, 61
2, 174051, Note_on_c, 0, 75, 0
2, 174114, Note_on_c, 0, 59, 0
2, 174295, Note_on_c, 0, 73, 71
2, 174347, Note_on_c, 0, 71, 0
2, 174507, Control_c, 0, 64, 37
2, 174547, Note_on_c, 0, 75, 68
2, 174587, Note_on_c, 0, 73, 0
2, 174603, Control_c, 0, 64, 37
2, 174803, Note_on_c, 0, 71, 65
2, 174806, Note_on_c, 0, 75, 0
2, 175067, Note_on_c, 0, 65, 64
2, 175084, Note_on_c, 0, 71, 0
2, 175096, Note_on_c, 0, 68, 61
2, 175150, Note_on_c, 0, 56, 0
2, 175344, Note_on_c, 0, 70, 64
2, 175373, Note_on_c, 0, 68, 0
2, 175615, Note_on_c, 0, 71, 64
2, 175622, Control_c, 0, 64, 36
2, 175645, Note_on_c, 0, 70, 0
2, 176132, Note_on_c, 0, 66, 65
2, 176212, Note_on_c, 0, 65, 0
2, 176398, Note_on_c, 0, 68, 61
2, 176415, Note_on_c, 0, 71, 0
2, 176657, Note_on_c, 0, 70, 65
2, 176694, Note_on_c, 0, 68, 0
2, 176901, Note_on_c, 0, 71, 62
2, 176934, Note_on_c, 0, 70, 0
2, 177156, Note_on_c, 0, 73, 68
2, 177179, Note_on_c, 0, 71, 0
2, 177216, Control_c, 0, 64, 37
2, 177417, Note_on_c, 0, 64, 52
2, 177427, Control_c, 0, 64, 37
2, 177440, Note_on_c, 0, 66, 0
2, 177542, Control_c, 0, 64, 38
2, 177638, Control_c, 0, 64, 38
2, 177671, Note_on_c, 0, 63, 51
2, 177719, Note_on_c, 0, 64, 0
2, 177733, Control_c, 0, 64, 39
2, 177867, Control_c, 0, 64, 39
2, 177909, Note_on_c, 0, 61, 48
2, 177961, Note_on_c, 0, 63, 0
2, 178175, Control_c, 0, 64, 40
2, 178188, Note_on_c, 0, 63, 57
2, 178204, Note_on_c, 0, 61, 0
2, 178347, Control_c, 0, 64, 40
2, 178435, Note_on_c, 0, 66, 49
2, 178447, Note_on_c, 0, 73, 0
2, 178694, Note_on_c, 0, 59, 57
2, 178697, Note_on_c, 0, 68, 55
2, 178705, Note_on_c, 0, 66, 0
2, 178935, Note_on_c, 0, 58, 59
2, 178939, Note_on_c, 0, 59, 0
2, 178942, Note_on_c, 0, 70, 62
2, 178957, Note_on_c, 0, 68, 0
2, 179019, Control_c, 0, 64, 41
2, 179198, Note_on_c, 0, 56, 57
2, 179204, Note_on_c, 0, 71, 59
2, 179225, Note_on_c, 0, 70, 0
2, 179228, Note_on_c, 0, 58, 0
2, 179293, Note_on_c, 0, 63, 0
2, 179452, Note_on_c, 0, 58, 58
2, 179456, Note_on_c, 0, 56, 0
2, 179479, Control_c, 0, 64, 41
2, 179696, Note_on_c, 0, 58, 0
2, 179724, Note_on_c, 0, 63, 53
2, 179733, Note_on_c, 0, 59, 49
2, 179968, Note_on_c, 0, 56, 50
2, 179976, Note_on_c, 0, 59, 0
2, 180223, Note_on_c, 0, 63, 0
2, 180229, Control_c, 0, 64, 42
2, 180234, Note_on_c, 0, 52, 44
2, 180253, Note_on_c, 0, 61, 49
2, 180261, Note_on_c, 0, 56, 0
2, 180473, Note_on_c, 0, 61, 0
2, 180492, Note_on_c, 0, 63, 53
2, 180498, Note_on_c, 0, 54, 42
2, 180525, Note_on_c, 0, 52, 0
2, 180736, Note_on_c, 0, 56, 49
2, 180738, Note_on_c, 0, 54, 0
2, 180751, Note_on_c, 0, 63, 0
2, 180754, Note_on_c, 0, 64, 51
2, 180995, Note_on_c, 0, 52, 40
2, 181178, Note_on_c, 0, 56, 0
2, 181229, Note_on_c, 0, 52, 0
2, 181238, Note_on_c, 0, 71, 0
2, 181259, Note_on_c, 0, 49, 42
2, 181279, Note_on_c, 0, 70, 51
2, 181497, Note_on_c, 0, 51, 47
2, 181510, Note_on_c, 0, 71, 55
2, 181527, Note_on_c, 0, 70, 0
2, 181540, Note_on_c, 0, 49, 0
2, 181763, Note_on_c, 0, 52, 40
2, 181771, Note_on_c, 0, 51, 0
2, 181772, Note_on_c, 0, 73, 57
2, 181777, Note_on_c, 0, 58, 38
2, 181782, Note_on_c, 0, 71, 0
2, 181838, Control_c, 0, 64, 41
2, 181877, Control_c, 0, 64, 41
2, 181896, Control_c, 0, 64, 40
2, 181915, Control_c, 0, 64, 40
2, 181935, Control_c, 0, 64, 38
2, 181954, Control_c, 0, 64, 37
2, 181973, Control_c, 0, 64, 36
2, 181992, Control_c, 0, 64, 36
2, 182005, Note_on_c, 0, 73, 0
2, 182018, Note_on_c, 0, 70, 62
2, 182031, Control_c, 0, 64, 35
2, 182051, Control_c, 0, 64, 35
2, 182108, Control_c, 0, 64, 34
2, 182128, Control_c, 0, 64, 33
2, 182166, Control_c, 0, 64, 32
2, 182185, Control_c, 0, 64, 32
2, 182195, Note_on_c, 0, 58, 0
2, 182205, Control_c, 0, 64, 31
2, 182243, Control_c, 0, 64, 32
2, 182262, Control_c, 0, 64, 35
2, 182282, Control_c, 0, 64, 40
2, 182284, Note_on_c, 0, 70, 0
2, 182301, Control_c, 0, 64, 47
2, 182304, Note_on_c, 0, 66, 43
2, 182306, Note_on_c, 0, 52, 0
2, 182320, Control_c, 0, 64, 55
2, 182326, Note_on_c, 0, 59, 43
2, 182339, Control_c, 0, 64, 61
2, 182346, Note_on_c, 0, 64, 0
2, 182358, Control_c, 0, 64, 64
2, 182377, Control_c, 0, 64, 66
2, 182396, Control_c, 0, 64, 69
2, 182416, Control_c, 0, 64, 72
2, 182424, Note_on_c, 0, 66, 0
2, 182435, Control_c, 0, 64, 76
2, 182454, Control_c, 0, 64, 78
2, 182511, Control_c, 0, 64, 77
2, 182531, Control_c, 0, 64, 77
2, 182550, Control_c, 0, 64, 76
2, 182570, Control_c, 0, 64, 75
2, 182588, Control_c, 0, 64, 74
2, 182601, Note_on_c, 0, 49, 39
2, 182608, Control_c, 0, 64, 74
2, 182646, Control_c, 0, 64, 73
2, 182665, Control_c, 0, 64, 72
2, 182685, Control_c, 0, 64, 70
2, 182704, Control_c, 0, 64, 68
2, 182762, Control_c, 0, 64, 68
2, 182781, Control_c, 0, 64, 67
2, 182800, Control_c, 0, 64, 66
2, 182819, Control_c, 0, 64, 65
2, 182836, Note_on_c, 0, 83, 69
2, 182838, Control_c, 0, 64, 64
2, 182856, Note_on_c, 0, 51, 42
2, 182857, Control_c, 0, 64, 60
2, 182869, Note_on_c, 0, 49, 0
2, 182876, Control_c, 0, 64, 52
2, 182896, Control_c, 0, 64, 46
2, 182915, Control_c, 0, 64, 41
2, 182934, Control_c, 0, 64, 36
2, 182953, Control_c, 0, 64, 31
2, 182975, Control_c, 0, 64, 28
2, 182993, Control_c, 0, 64, 27
2, 183013, Control_c, 0, 64, 25
2, 183051, Control_c, 0, 64, 24
2, 183070, Control_c, 0, 64, 22
2, 183090, Control_c, 0, 64, 21
2, 183090, Note_on_c, 0, 82, 79
2, 183105, Note_on_c, 0, 83, 0
2, 183324, Note_on_c, 0, 51, 0
2, 183345, Note_on_c, 0, 80, 76
2, 183346, Note_on_c, 0, 52, 43
2, 183364, Note_on_c, 0, 82, 0
2, 183416, Control_c, 0, 64, 22
2, 183455, Control_c, 0, 64, 23
2, 183490, Control_c, 0, 64, 24
2, 183529, Control_c, 0, 64, 25
2, 183547, Control_c, 0, 64, 26
2, 183590, Note_on_c, 0, 82, 80
2, 183624, Control_c, 0, 64, 27
2, 183637, Note_on_c, 0, 80, 0
2, 183644, Control_c, 0, 64, 30
2, 183652, Note_on_c, 0, 52, 0
2, 183682, Control_c, 0, 64, 31
2, 183758, Control_c, 0, 64, 31
2, 183816, Control_c, 0, 64, 32
2, 183846, Note_on_c, 0, 83, 70
2, 183855, Control_c, 0, 64, 32
2, 183856, Note_on_c, 0, 47, 36
2, 183893, Note_on_c, 0, 82, 0
2, 183951, Control_c, 0, 64, 33
2, 184027, Control_c, 0, 64, 34
2, 184047, Control_c, 0, 64, 34
2, 184086, Control_c, 0, 64, 35
2, 184095, Note_on_c, 0, 80, 77
2, 184124, Note_on_c, 0, 83, 0
2, 184143, Control_c, 0, 64, 35
2, 184181, Control_c, 0, 64, 36
2, 184258, Control_c, 0, 64, 36
2, 184315, Control_c, 0, 64, 37
2, 184349, Note_on_c, 0, 49, 42
2, 184363, Note_on_c, 0, 76, 67
2, 184381, Note_on_c, 0, 80, 0
2, 184391, Note_on_c, 0, 47, 0
2, 184431, Control_c, 0, 64, 37
2, 184450, Control_c, 0, 64, 38
2, 184489, Control_c, 0, 64, 38
2, 184584, Control_c, 0, 64, 39
2, 184607, Note_on_c, 0, 78, 72
2, 184625, Note_on_c, 0, 51, 41
2, 184658, Note_on_c, 0, 76, 0
2, 184669, Note_on_c, 0, 49, 0
2, 184818, Note_on_c, 0, 51, 0
2, 184847, Note_on_c, 0, 80, 69
2, 184851, Note_on_c, 0, 52, 44
2, 184882, Note_on_c, 0, 78, 0
2, 184986, Control_c, 0, 64, 39
2, 185059, Note_on_c, 0, 52, 0
2, 185088, Note_on_c, 0, 49, 49
2, 185092, Note_on_c, 0, 76, 56
2, 185121, Control_c, 0, 64, 40
2, 185195, Note_on_c, 0, 80, 0
2, 185365, Note_on_c, 0, 73, 59
2, 185366, Note_on_c, 0, 76, 0
2, 185370, Note_on_c, 0, 54, 42
2, 185371, Control_c, 0, 64, 40
2, 185373, Note_on_c, 0, 59, 0
2, 185441, Note_on_c, 0, 49, 0
2, 185629, Note_on_c, 0, 75, 64
2, 185639, Note_on_c, 0, 73, 0
2, 185645, Note_on_c, 0, 58, 41
2, 185812, Control_c, 0, 64, 40
2, 185857, Note_on_c, 0, 58, 0
2, 185870, Control_c, 0, 64, 39
2, 185888, Note_on_c, 0, 76, 65
2, 185889, Control_c, 0, 64, 39
2, 185903, Note_on_c, 0, 75, 0
2, 185905, Note_on_c, 0, 56, 40
2, 185928, Control_c, 0, 64, 38
2, 185946, Control_c, 0, 64, 38
2, 185966, Control_c, 0, 64, 37
2, 185985, Control_c, 0, 64, 36
2, 186065, Control_c, 0, 64, 39
2, 186083, Control_c, 0, 64, 45
2, 186103, Control_c, 0, 64, 52
2, 186120, Note_on_c, 0, 54, 0
2, 186120, Note_on_c, 0, 56, 0
2, 186122, Control_c, 0, 64, 57
2, 186142, Control_c, 0, 64, 61
2, 186147, Note_on_c, 0, 58, 48
2, 186160, Control_c, 0, 64, 64
2, 186180, Control_c, 0, 64, 67
2, 186199, Control_c, 0, 64, 70
2, 186219, Control_c, 0, 64, 74
2, 186237, Control_c, 0, 64, 79
2, 186257, Control_c, 0, 64, 82
2, 186276, Control_c, 0, 64, 84
2, 186286, Note_on_c, 0, 58, 0
2, 186295, Control_c, 0, 64, 85
2, 186314, Control_c, 0, 64, 86
2, 186353, Control_c, 0, 64, 85
2, 186372, Control_c, 0, 64, 85
2, 186429, Control_c, 0, 64, 84
2, 186448, Control_c, 0, 64, 77
2, 186468, Control_c, 0, 64, 66
2, 186472, Note_on_c, 0, 59, 59
2, 186481, Note_on_c, 0, 47, 41
2, 186487, Control_c, 0, 64, 58
2, 186506, Control_c, 0, 64, 57
2, 186525, Control_c, 0, 64, 57
2, 186545, Control_c, 0, 64, 59
2, 186563, Control_c, 0, 64, 61
2, 186583, Control_c, 0, 64, 62
2, 186602, Control_c, 0, 64, 62
2, 186622, Control_c, 0, 64, 63
2, 186640, Control_c, 0, 64, 64
2, 186660, Control_c, 0, 64, 65
2, 186679, Control_c, 0, 64, 66
2, 186699, Control_c, 0, 64, 67
2, 186737, Control_c, 0, 64, 67
2, 186756, Control_c, 0, 64, 68
2, 186769, Note_on_c, 0, 54, 48
2, 186775, Control_c, 0, 64, 70
2, 186794, Control_c, 0, 64, 71
2, 186814, Control_c, 0, 64, 72
2, 186861, Note_on_c, 0, 59, 0
2, 186872, Control_c, 0, 64, 73
2, 186892, Control_c, 0, 64, 73
2, 186968, Control_c, 0, 64, 74
2, 187006, Control_c, 0, 64, 75
2, 187026, Control_c, 0, 64, 75
2, 187043, Note_on_c, 0, 47, 0
2, 187044, Note_on_c, 0, 54, 0
2, 187044, Note_on_c, 0, 75, 70
2, 187046, Note_on_c, 0, 59, 51
2, 187083, Control_c, 0, 64, 76
2, 187122, Note_on_c, 0, 76, 0
2, 187141, Control_c, 0, 64, 76
2, 187160, Control_c, 0, 64, 77
2, 187218, Control_c, 0, 64, 77
2, 187274, Note_on_c, 0, 73, 69
2, 187283, Note_on_c, 0, 75, 0
2, 187295, Control_c, 0, 64, 76
2, 187308, Note_on_c, 0, 58, 43
2, 187314, Control_c, 0, 64, 73
2, 187332, Control_c, 0, 64, 71
2, 187351, Control_c, 0, 64, 69
2, 187408, Control_c, 0, 64, 69
2, 187428, Control_c, 0, 64, 68
2, 187447, Control_c, 0, 64, 67
2, 187466, Control_c, 0, 64, 68
2, 187485, Control_c, 0, 64, 69
2, 187523, Control_c, 0, 64, 67
2, 187525, Note_on_c, 0, 59, 0
2, 187533, Note_on_c, 0, 58, 0
2, 187533, Note_on_c, 0, 63, 74
2, 187540, Note_on_c, 0, 56, 47
2, 187543, Control_c, 0, 64, 65
2, 187555, Note_on_c, 0, 71, 63
2, 187562, Control_c, 0, 64, 58
2, 187582, Control_c, 0, 64, 42
2, 187595, Note_on_c, 0, 73, 0
2, 187600, Control_c, 0, 64, 11
2, 187620, Control_c, 0, 64, 0
2, 187791, Note_on_c, 0, 58, 41
2, 187815, Note_on_c, 0, 56, 0
2, 187871, Control_c, 0, 64, 9
2, 187890, Control_c, 0, 64, 18
2, 187910, Control_c, 0, 64, 20
2, 187928, Control_c, 0, 64, 22
2, 187948, Control_c, 0, 64, 29
2, 187967, Control_c, 0, 64, 36
2, 187987, Control_c, 0, 64, 39
2, 188005, Control_c, 0, 64, 40
2, 188025, Control_c, 0, 64, 43
2, 188032, Note_on_c, 0, 58, 0
2, 188044, Control_c, 0, 64, 48
2, 188059, Note_on_c, 0, 59, 52
2, 188064, Control_c, 0, 64, 53
2, 188082, Control_c, 0, 64, 55
2, 188102, Control_c, 0, 64, 56
2, 188121, Control_c, 0, 64, 58
2, 188140, Control_c, 0, 64, 59
2, 188159, Control_c, 0, 64, 59
2, 188179, Control_c, 0, 64, 60
2, 188198, Control_c, 0, 64, 60
2, 188209, Note_on_c, 0, 59, 0
2, 188217, Control_c, 0, 64, 61
2, 188236, Control_c, 0, 64, 61
2, 188280, Note_on_c, 0, 56, 54
2, 188292, Control_c, 0, 64, 62
2, 188388, Control_c, 0, 64, 61
2, 188465, Control_c, 0, 64, 61
2, 188494, Note_on_c, 0, 56, 0
2, 188503, Control_c, 0, 64, 60
2, 188522, Control_c, 0, 64, 58
2, 188535, Note_on_c, 0, 68, 77
2, 188542, Control_c, 0, 64, 55
2, 188542, Note_on_c, 0, 52, 45
2, 188560, Control_c, 0, 64, 48
2, 188580, Control_c, 0, 64, 41
2, 188599, Control_c, 0, 64, 37
2, 188619, Control_c, 0, 64, 35
2, 188652, Note_on_c, 0, 63, 0
2, 188657, Control_c, 0, 64, 37
2, 188663, Note_on_c, 0, 71, 0
2, 188676, Control_c, 0, 64, 43
2, 188695, Control_c, 0, 64, 50
2, 188714, Control_c, 0, 64, 54
2, 188734, Control_c, 0, 64, 55
2, 188812, Note_on_c, 0, 52, 0
2, 188816, Note_on_c, 0, 47, 35
2, 188829, Control_c, 0, 64, 54
2, 188848, Control_c, 0, 64, 54
2, 188868, Control_c, 0, 64, 53
2, 188925, Control_c, 0, 64, 53
2, 188963, Control_c, 0, 64, 52
2, 188983, Control_c, 0, 64, 52
2, 189002, Control_c, 0, 64, 50
2, 189022, Control_c, 0, 64, 49
2, 189040, Control_c, 0, 64, 48
2, 189046, Note_on_c, 0, 73, 69
2, 189053, Note_on_c, 0, 52, 47
2, 189137, Control_c, 0, 64, 49
2, 189156, Control_c, 0, 64, 49
2, 189175, Control_c, 0, 64, 50
2, 189271, Control_c, 0, 64, 51
2, 189288, Note_on_c, 0, 51, 49
2, 189288, Note_on_c, 0, 71, 67
2, 189290, Control_c, 0, 64, 52
2, 189293, Note_on_c, 0, 73, 0
2, 189309, Control_c, 0, 64, 52
2, 189320, Note_on_c, 0, 52, 0
2, 189328, Control_c, 0, 64, 53
2, 189339, Note_on_c, 0, 47, 0
2, 189348, Control_c, 0, 64, 54
2, 189367, Control_c, 0, 64, 54
2, 189386, Control_c, 0, 64, 55
2, 189463, Control_c, 0, 64, 54
2, 189513, Note_on_c, 0, 51, 0
2, 189520, Control_c, 0, 64, 53
2, 189540, Control_c, 0, 64, 51
2, 189549, Note_on_c, 0, 49, 38
2, 189553, Note_on_c, 0, 71, 0
2, 189555, Note_on_c, 0, 64, 73
2, 189559, Control_c, 0, 64, 46
2, 189569, Note_on_c, 0, 70, 70
2, 189579, Control_c, 0, 64, 34
2, 189597, Control_c, 0, 64, 15
2, 189616, Note_on_c, 0, 68, 0
2, 189617, Control_c, 0, 64, 9
2, 189636, Control_c, 0, 64, 11
2, 189655, Control_c, 0, 64, 21
2, 189674, Control_c, 0, 64, 27
2, 189694, Control_c, 0, 64, 30
2, 189713, Control_c, 0, 64, 36
2, 189731, Control_c, 0, 64, 44
2, 189751, Control_c, 0, 64, 51
2, 189770, Control_c, 0, 64, 54
2, 189817, Note_on_c, 0, 51, 28
2, 189834, Note_on_c, 0, 49, 0
2, 189905, Control_c, 0, 64, 53
2, 190004, Note_on_c, 0, 51, 0
2, 190039, Control_c, 0, 64, 55
2, 190059, Control_c, 0, 64, 56
2, 190060, Note_on_c, 0, 52, 34
2, 190073, Note_on_c, 0, 68, 71
2, 190077, Control_c, 0, 64, 58
2, 190088, Note_on_c, 0, 70, 0
2, 190097, Control_c, 0, 64, 60
2, 190116, Control_c, 0, 64, 62
2, 190135, Control_c, 0, 64, 63
2, 190154, Control_c, 0, 64, 64
2, 190174, Control_c, 0, 64, 65
2, 190193, Control_c, 0, 64, 66
2, 190211, Control_c, 0, 64, 66
2, 190224, Note_on_c, 0, 68, 0
2, 190240, Note_on_c, 0, 64, 0
2, 190269, Control_c, 0, 64, 67
2, 190288, Note_on_c, 0, 49, 44
2, 190327, Control_c, 0, 64, 67
2, 190462, Control_c, 0, 64, 67
2, 190500, Control_c, 0, 64, 66
2, 190539, Control_c, 0, 64, 66
2, 190539, Note_on_c, 0, 52, 0
2, 190554, Note_on_c, 0, 46, 46
2, 190557, Control_c, 0, 64, 64
2, 190563, Note_on_c, 0, 61, 73
2, 190570, Note_on_c, 0, 67, 55
2, 190577, Control_c, 0, 64, 62
2, 190584, Note_on_c, 0, 49, 0
2, 190596, Control_c, 0, 64, 56
2, 190615, Control_c, 0, 64, 49
2, 190634, Control_c, 0, 64, 41
2, 190654, Control_c, 0, 64, 28
2, 190673, Control_c, 0, 64, 0
2, 190824, Note_on_c, 0, 46, 0
2, 190825, Note_on_c, 0, 47, 33
2, 191055, Note_on_c, 0, 47, 0
2, 191073, Note_on_c, 0, 49, 40
2, 191076, Control_c, 0, 64, 17
2, 191081, Note_on_c, 0, 64, 64
2, 191090, Note_on_c, 0, 67, 0
2, 191095, Control_c, 0, 64, 36
2, 191114, Control_c, 0, 64, 49
2, 191134, Control_c, 0, 64, 57
2, 191153, Control_c, 0, 64, 59
2, 191171, Control_c, 0, 64, 60
2, 191191, Control_c, 0, 64, 62
2, 191210, Control_c, 0, 64, 63
2, 191229, Control_c, 0, 64, 64
2, 191248, Control_c, 0, 64, 64
2, 191268, Control_c, 0, 64, 65
2, 191287, Control_c, 0, 64, 66
2, 191306, Control_c, 0, 64, 68
2, 191317, Note_on_c, 0, 46, 39
2, 191319, Note_on_c, 0, 64, 0
2, 191325, Control_c, 0, 64, 69
2, 191334, Note_on_c, 0, 49, 0
2, 191345, Control_c, 0, 64, 71
2, 191363, Control_c, 0, 64, 71
2, 191383, Control_c, 0, 64, 72
2, 191402, Control_c, 0, 64, 73
2, 191422, Control_c, 0, 64, 72
2, 191499, Control_c, 0, 64, 72
2, 191517, Control_c, 0, 64, 71
2, 191537, Control_c, 0, 64, 70
2, 191561, Note_on_c, 0, 46, 0
2, 191575, Control_c, 0, 64, 70
2, 191584, Note_on_c, 0, 43, 43
2, 191593, Note_on_c, 0, 70, 77
2, 191594, Control_c, 0, 64, 69
2, 191606, Note_on_c, 0, 63, 61
2, 191611, Note_on_c, 0, 61, 0
2, 191614, Control_c, 0, 64, 66
2, 191633, Control_c, 0, 64, 62
2, 191651, Control_c, 0, 64, 54
2, 191671, Control_c, 0, 64, 40
2, 191690, Control_c, 0, 64, 27
2, 191709, Control_c, 0, 64, 23
2, 191728, Control_c, 0, 64, 20
2, 191748, Control_c, 0, 64, 15
2, 191767, Control_c, 0, 64, 11
2, 191835, Note_on_c, 0, 43, 0
2, 191855, Note_on_c, 0, 44, 44
2, 191882, Control_c, 0, 64, 9
2, 192113, Control_c, 0, 64, 0
2, 192134, Note_on_c, 0, 46, 41
2, 192141, Note_on_c, 0, 63, 0
2, 192141, Note_on_c, 0, 68, 53
2, 192151, Note_on_c, 0, 44, 0
2, 192152, Note_on_c, 0, 61, 40
2, 192305, Control_c, 0, 64, 17
2, 192323, Control_c, 0, 64, 36
2, 192343, Control_c, 0, 64, 50
2, 192362, Control_c, 0, 64, 58
2, 192382, Control_c, 0, 64, 63
2, 192385, Note_on_c, 0, 70, 0
2, 192394, Note_on_c, 0, 68, 0
2, 192398, Note_on_c, 0, 67, 58
2, 192400, Control_c, 0, 64, 64
2, 192420, Control_c, 0, 64, 66
2, 192439, Control_c, 0, 64, 68
2, 192459, Control_c, 0, 64, 70
2, 192477, Control_c, 0, 64, 72
2, 192497, Control_c, 0, 64, 74
2, 192508, Note_on_c, 0, 67, 0
2, 192513, Note_on_c, 0, 61, 0
2, 192516, Control_c, 0, 64, 75
2, 192554, Control_c, 0, 64, 76
2, 192611, Control_c, 0, 64, 75
2, 192650, Control_c, 0, 64, 75
2, 192669, Control_c, 0, 64, 74
2, 192686, Note_on_c, 0, 71, 69
2, 192688, Control_c, 0, 64, 73
2, 192699, Note_on_c, 0, 68, 55
2, 192708, Control_c, 0, 64, 70
2, 192713, Note_on_c, 0, 63, 47
2, 192727, Control_c, 0, 64, 66
2, 192746, Control_c, 0, 64, 61
2, 192765, Control_c, 0, 64, 56
2, 192785, Control_c, 0, 64, 47
2, 192804, Control_c, 0, 64, 36
2, 192823, Control_c, 0, 64, 27
2, 192842, Control_c, 0, 64, 21
2, 192862, Control_c, 0, 64, 9
2, 192880, Control_c, 0, 64, 0
2, 192942, Note_on_c, 0, 46, 0
2, 192948, Note_on_c, 0, 44, 41
2, 192997, Note_on_c, 0, 68, 0
2, 193229, Note_on_c, 0, 46, 40
2, 193257, Note_on_c, 0, 44, 0
2, 193471, Note_on_c, 0, 47, 43
2, 193483, Note_on_c, 0, 46, 0
2, 193729, Note_on_c, 0, 49, 40
2, 193741, Note_on_c, 0, 64, 51
2, 193751, Note_on_c, 0, 63, 0
2, 193757, Note_on_c, 0, 47, 0
2, 193773, Note_on_c, 0, 71, 0
2, 194001, Note_on_c, 0, 71, 58
2, 194256, Note_on_c, 0, 70, 70
2, 194259, Note_on_c, 0, 71, 0
2, 194282, Control_c, 0, 64, 9
2, 194302, Control_c, 0, 64, 24
2, 194320, Control_c, 0, 64, 31
2, 194340, Control_c, 0, 64, 37
2, 194359, Control_c, 0, 64, 43
2, 194379, Control_c, 0, 64, 50
2, 194397, Control_c, 0, 64, 57
2, 194417, Control_c, 0, 64, 60
2, 194436, Control_c, 0, 64, 62
2, 194455, Control_c, 0, 64, 64
2, 194474, Control_c, 0, 64, 66
2, 194494, Control_c, 0, 64, 68
2, 194499, Note_on_c, 0, 68, 69
2, 194500, Note_on_c, 0, 70, 0
2, 194513, Control_c, 0, 64, 73
2, 194531, Control_c, 0, 64, 78
2, 194551, Control_c, 0, 64, 84
2, 194569, Note_on_c, 0, 68, 0
2, 194570, Control_c, 0, 64, 86
2, 194647, Control_c, 0, 64, 86
2, 194666, Control_c, 0, 64, 85
2, 194685, Control_c, 0, 64, 83
2, 194705, Control_c, 0, 64, 82
2, 194724, Control_c, 0, 64, 80
2, 194740, Note_on_c, 0, 64, 0
2, 194743, Control_c, 0, 64, 76
2, 194759, Note_on_c, 0, 66, 59
2, 194762, Control_c, 0, 64, 70
2, 194782, Control_c, 0, 64, 65
2, 194784, Note_on_c, 0, 63, 38
2, 194800, Control_c, 0, 64, 58
2, 194820, Control_c, 0, 64, 51
2, 194839, Control_c, 0, 64, 44
2, 194859, Control_c, 0, 64, 37
2, 194877, Control_c, 0, 64, 29
2, 194897, Control_c, 0, 64, 23
2, 194916, Control_c, 0, 64, 20
2, 194935, Control_c, 0, 64, 18
2, 194954, Control_c, 0, 64, 17
2, 194974, Control_c, 0, 64, 11
2, 194993, Control_c, 0, 64, 0
2, 195022, Note_on_c, 0, 61, 43
2, 195027, Note_on_c, 0, 42, 44
2, 195051, Note_on_c, 0, 49, 0
2, 195105, Note_on_c, 0, 63, 0
2, 195261, Note_on_c, 0, 61, 0
2, 195280, Note_on_c, 0, 42, 0
2, 195286, Note_on_c, 0, 59, 50
2, 195292, Note_on_c, 0, 44, 39
2, 195497, Note_on_c, 0, 59, 0
2, 195516, Note_on_c, 0, 46, 42
2, 195529, Note_on_c, 0, 44, 0
2, 195547, Note_on_c, 0, 61, 48
2, 195799, Control_c, 0, 64, 11
2, 195800, Note_on_c, 0, 47, 30
2, 195803, Note_on_c, 0, 46, 0
2, 195808, Note_on_c, 0, 62, 48
2, 195811, Note_on_c, 0, 61, 0
2, 195837, Control_c, 0, 64, 13
2, 195876, Control_c, 0, 64, 15
2, 195895, Control_c, 0, 64, 18
2, 195914, Control_c, 0, 64, 19
2, 195934, Control_c, 0, 64, 20
2, 195953, Control_c, 0, 64, 21
2, 195971, Control_c, 0, 64, 23
2, 195991, Control_c, 0, 64, 26
2, 196010, Control_c, 0, 64, 27
2, 196029, Control_c, 0, 64, 28
2, 196061, Note_on_c, 0, 69, 56
2, 196068, Control_c, 0, 64, 29
2, 196102, Note_on_c, 0, 66, 0
2, 196106, Control_c, 0, 64, 29
2, 196125, Control_c, 0, 64, 30
2, 196145, Control_c, 0, 64, 31
2, 196183, Control_c, 0, 64, 31
2, 196260, Control_c, 0, 64, 32
2, 196279, Control_c, 0, 64, 32
2, 196313, Note_on_c, 0, 69, 0
2, 196315, Note_on_c, 0, 68, 66
2, 196337, Control_c, 0, 64, 33
2, 196356, Control_c, 0, 64, 34
2, 196394, Control_c, 0, 64, 34
2, 196434, Control_c, 0, 64, 35
2, 196472, Control_c, 0, 64, 35
2, 196491, Control_c, 0, 64, 36
2, 196510, Control_c, 0, 64, 36
2, 196529, Control_c, 0, 64, 38
2, 196549, Control_c, 0, 64, 39
2, 196567, Note_on_c, 0, 66, 64
2, 196568, Control_c, 0, 64, 41
2, 196579, Note_on_c, 0, 68, 0
2, 196587, Control_c, 0, 64, 43
2, 196606, Control_c, 0, 64, 45
2, 196626, Control_c, 0, 64, 46
2, 196644, Control_c, 0, 64, 48
2, 196664, Control_c, 0, 64, 48
2, 196669, Note_on_c, 0, 62, 0
2, 196683, Control_c, 0, 64, 50
2, 196703, Control_c, 0, 64, 51
2, 196798, Control_c, 0, 64, 50
2, 196824, Note_on_c, 0, 66, 0
2, 196832, Note_on_c, 0, 65, 59
2, 196837, Control_c, 0, 64, 50
2, 196845, Note_on_c, 0, 61, 51
2, 196856, Control_c, 0, 64, 49
2, 196875, Control_c, 0, 64, 49
2, 196895, Control_c, 0, 64, 47
2, 196914, Control_c, 0, 64, 46
2, 196931, Control_c, 0, 64, 45
2, 196951, Control_c, 0, 64, 44
2, 196970, Control_c, 0, 64, 44
2, 196989, Control_c, 0, 64, 43
2, 197008, Control_c, 0, 64, 42
2, 197028, Control_c, 0, 64, 40
2, 197047, Control_c, 0, 64, 39
2, 197066, Note_on_c, 0, 46, 48
2, 197088, Note_on_c, 0, 47, 0
2, 197094, Note_on_c, 0, 66, 60
2, 197098, Note_on_c, 0, 65, 0
2, 197239, Control_c, 0, 64, 40
2, 197259, Control_c, 0, 64, 41
2, 197277, Control_c, 0, 64, 41
2, 197329, Note_on_c, 0, 46, 0
2, 197335, Control_c, 0, 64, 42
2, 197341, Note_on_c, 0, 68, 65
2, 197349, Note_on_c, 0, 66, 0
2, 197351, Note_on_c, 0, 47, 50
2, 197469, Control_c, 0, 64, 42
2, 197508, Control_c, 0, 64, 43
2, 197579, Note_on_c, 0, 47, 0
2, 197581, Note_on_c, 0, 65, 67
2, 197593, Note_on_c, 0, 49, 51
2, 197600, Note_on_c, 0, 68, 0
2, 197623, Control_c, 0, 64, 43
2, 197680, Control_c, 0, 64, 44
2, 197796, Control_c, 0, 64, 44
2, 197834, Control_c, 0, 64, 45
2, 197838, Note_on_c, 0, 49, 0
2, 197847, Note_on_c, 0, 66, 71
2, 197848, Note_on_c, 0, 51, 45
2, 197854, Control_c, 0, 64, 45
2, 197872, Note_on_c, 0, 61, 0
2, 197889, Note_on_c, 0, 65, 0
2, 197891, Control_c, 0, 64, 46
2, 197911, Control_c, 0, 64, 46
2, 197930, Control_c, 0, 64, 47
2, 197949, Control_c, 0, 64, 49
2, 197968, Control_c, 0, 64, 51
2, 197988, Control_c, 0, 64, 54
2, 198007, Control_c, 0, 64, 56
2, 198026, Control_c, 0, 64, 58
2, 198045, Control_c, 0, 64, 59
2, 198065, Control_c, 0, 64, 60
2, 198084, Control_c, 0, 64, 60
2, 198103, Control_c, 0, 64, 61
2, 198122, Control_c, 0, 64, 61
2, 198123, Note_on_c, 0, 59, 53
2, 198142, Control_c, 0, 64, 62
2, 198237, Control_c, 0, 64, 61
2, 198257, Control_c, 0, 64, 61
2, 198276, Control_c, 0, 64, 60
2, 198295, Control_c, 0, 64, 59
2, 198314, Control_c, 0, 64, 58
2, 198334, Control_c, 0, 64, 57
2, 198334, Note_on_c, 0, 51, 0
2, 198353, Control_c, 0, 64, 55
2, 198371, Control_c, 0, 64, 53
2, 198385, Note_on_c, 0, 58, 56
2, 198389, Note_on_c, 0, 59, 0
2, 198391, Control_c, 0, 64, 51
2, 198394, Note_on_c, 0, 49, 31
2, 198410, Control_c, 0, 64, 51
2, 198448, Control_c, 0, 64, 51
2, 198468, Control_c, 0, 64, 53
2, 198487, Control_c, 0, 64, 55
2, 198506, Control_c, 0, 64, 58
2, 198525, Control_c, 0, 64, 60
2, 198545, Control_c, 0, 64, 62
2, 198564, Control_c, 0, 64, 63
2, 198583, Control_c, 0, 64, 64
2, 198587, Note_on_c, 0, 58, 0
2, 198602, Control_c, 0, 64, 64
2, 198622, Control_c, 0, 64, 65
2, 198640, Control_c, 0, 64, 66
2, 198656, Note_on_c, 0, 59, 49
2, 198660, Control_c, 0, 64, 67
2, 198679, Control_c, 0, 64, 68
2, 198713, Note_on_c, 0, 59, 0
2, 198737, Control_c, 0, 64, 68
2, 198775, Control_c, 0, 64, 68
2, 198833, Control_c, 0, 64, 67
2, 198851, Control_c, 0, 64, 67
2, 198866, Note_on_c, 0, 49, 0
2, 198871, Control_c, 0, 64, 66
2, 198909, Control_c, 0, 64, 66
2, 198911, Note_on_c, 0, 47, 42
2, 198920, Note_on_c, 0, 56, 58
2, 198928, Control_c, 0, 64, 65
2, 198948, Control_c, 0, 64, 64
2, 198967, Control_c, 0, 64, 63
2, 198986, Control_c, 0, 64, 61
2, 199005, Control_c, 0, 64, 59
2, 199025, Control_c, 0, 64, 56
2, 199044, Control_c, 0, 64, 52
2, 199063, Control_c, 0, 64, 51
2, 199082, Control_c, 0, 64, 50
2, 199102, Control_c, 0, 64, 49
2, 199120, Control_c, 0, 64, 48
2, 199136, Note_on_c, 0, 47, 0
2, 199160, Note_on_c, 0, 44, 37
2, 199197, Control_c, 0, 64, 48
2, 199331, Control_c, 0, 64, 48
2, 199370, Control_c, 0, 64, 49
2, 199428, Control_c, 0, 64, 49
2, 199446, Note_on_c, 0, 46, 30
2, 199447, Control_c, 0, 64, 50
2, 199466, Control_c, 0, 64, 51
2, 199481, Note_on_c, 0, 44, 0
2, 199505, Control_c, 0, 64, 51
2, 199562, Control_c, 0, 64, 52
2, 199600, Control_c, 0, 64, 52
2, 199665, Note_on_c, 0, 46, 0
2, 199677, Control_c, 0, 64, 53
2, 199692, Note_on_c, 0, 47, 34
2, 199793, Control_c, 0, 64, 53
2, 199811, Control_c, 0, 64, 54
2, 199850, Control_c, 0, 64, 54
2, 199927, Control_c, 0, 64, 55
2, 199977, Note_on_c, 0, 47, 0
2, 199991, Note_on_c, 0, 56, 0
2, 199995, Note_on_c, 0, 65, 52
2, 200006, Note_on_c, 0, 66, 0
2, 200008, Note_on_c, 0, 49, 32
2, 200062, Control_c, 0, 64, 55
2, 200295, Note_on_c, 0, 56, 37
2, 200426, Control_c, 0, 64, 56
2, 200529, Note_on_c, 0, 56, 0
2, 200544, Note_on_c, 0, 49, 0
2, 200562, Note_on_c, 0, 58, 36
2, 200589, Note_on_c, 0, 47, 18
2, 200813, Note_on_c, 0, 58, 0
2, 200846, Note_on_c, 0, 59, 44
2, 201169, Note_on_c, 0, 47, 0
2, 201179, Note_on_c, 0, 66, 53
2, 201194, Note_on_c, 0, 61, 39
2, 201232, Note_on_c, 0, 59, 0
2, 201264, Note_on_c, 0, 65, 0
2, 201347, Control_c, 0, 64, 55
2, 201453, Note_on_c, 0, 47, 32
2, 201703, Note_on_c, 0, 47, 0
2, 201712, Note_on_c, 0, 46, 27
2, 201970, Note_on_c, 0, 44, 26
2, 201995, Note_on_c, 0, 46, 0
2, 202225, Note_on_c, 0, 44, 0
2, 202245, Note_on_c, 0, 70, 61
2, 202251, Note_on_c, 0, 42, 32
2, 202287, Note_on_c, 0, 61, 0
2, 202499, Control_c, 0, 64, 56
2, 202519, Note_on_c, 0, 64, 47
2, 202538, Control_c, 0, 64, 56
2, 202576, Control_c, 0, 64, 57
2, 202595, Control_c, 0, 64, 57
2, 202631, Note_on_c, 0, 66, 0
2, 202633, Control_c, 0, 64, 58
2, 202652, Control_c, 0, 64, 59
2, 202672, Control_c, 0, 64, 60
2, 202690, Control_c, 0, 64, 60
2, 202710, Control_c, 0, 64, 61
2, 202729, Control_c, 0, 64, 62
2, 202749, Control_c, 0, 64, 63
2, 202751, Note_on_c, 0, 64, 0
2, 202754, Note_on_c, 0, 42, 0
2, 202767, Control_c, 0, 64, 64
2, 202776, Note_on_c, 0, 63, 47
2, 202787, Control_c, 0, 64, 65
2, 202806, Control_c, 0, 64, 65
2, 202825, Control_c, 0, 64, 66
2, 202844, Control_c, 0, 64, 67
2, 202864, Control_c, 0, 64, 68
2, 202883, Control_c, 0, 64, 69
2, 202902, Control_c, 0, 64, 70
2, 202921, Control_c, 0, 64, 72
2, 202941, Control_c, 0, 64, 74
2, 202959, Control_c, 0, 64, 76
2, 202979, Control_c, 0, 64, 77
2, 202992, Note_on_c, 0, 63, 0
2, 203018, Control_c, 0, 64, 77
2, 203038, Note_on_c, 0, 61, 46
2, 203191, Control_c, 0, 64, 77
2, 203222, Note_on_c, 0, 61, 0
2, 203229, Control_c, 0, 64, 76
2, 203248, Control_c, 0, 64, 75
2, 203268, Control_c, 0, 64, 75
2, 203287, Control_c, 0, 64, 73
2, 203302, Note_on_c, 0, 75, 70
2, 203306, Control_c, 0, 64, 72
2, 203310, Note_on_c, 0, 59, 37
2, 203325, Control_c, 0, 64, 69
2, 203345, Control_c, 0, 64, 66
2, 203363, Note_on_c, 0, 70, 0
2, 203364, Control_c, 0, 64, 62
2, 203383, Control_c, 0, 64, 58
2, 203402, Control_c, 0, 64, 55
2, 203422, Control_c, 0, 64, 54
2, 203440, Control_c, 0, 64, 53
2, 203460, Control_c, 0, 64, 53
2, 203479, Control_c, 0, 64, 52
2, 203499, Control_c, 0, 64, 52
2, 203517, Control_c, 0, 64, 51
2, 203570, Note_on_c, 0, 51, 36
2, 203709, Control_c, 0, 64, 52
2, 203747, Control_c, 0, 64, 52
2, 203785, Control_c, 0, 64, 53
2, 203799, Note_on_c, 0, 51, 0
2, 203804, Control_c, 0, 64, 54
2, 203812, Note_on_c, 0, 53, 38
2, 203813, Note_on_c, 0, 71, 58
2, 203824, Control_c, 0, 64, 56
2, 203843, Control_c, 0, 64, 56
2, 203862, Control_c, 0, 64, 57
2, 203881, Control_c, 0, 64, 58
2, 203901, Control_c, 0, 64, 60
2, 203919, Control_c, 0, 64, 61
2, 203939, Control_c, 0, 64, 62
2, 203958, Control_c, 0, 64, 63
2, 203978, Control_c, 0, 64, 63
2, 203996, Control_c, 0, 64, 64
2, 204016, Control_c, 0, 64, 65
2, 204027, Note_on_c, 0, 53, 0
2, 204035, Control_c, 0, 64, 66
2, 204035, Note_on_c, 0, 71, 0
2, 204053, Control_c, 0, 64, 66
2, 204062, Note_on_c, 0, 70, 60
2, 204066, Note_on_c, 0, 55, 42
2, 204073, Control_c, 0, 64, 68
2, 204092, Control_c, 0, 64, 69
2, 204112, Control_c, 0, 64, 70
2, 204130, Control_c, 0, 64, 72
2, 204150, Control_c, 0, 64, 74
2, 204169, Control_c, 0, 64, 75
2, 204177, Note_on_c, 0, 70, 0
2, 204261, Note_on_c, 0, 75, 0
2, 204323, Control_c, 0, 64, 73
2, 204341, Note_on_c, 0, 71, 71
2, 204342, Control_c, 0, 64, 67
2, 204344, Note_on_c, 0, 55, 0
2, 204361, Control_c, 0, 64, 59
2, 204368, Note_on_c, 0, 68, 46
2, 204372, Note_on_c, 0, 56, 40
2, 204381, Control_c, 0, 64, 49
2, 204399, Control_c, 0, 64, 46
2, 204419, Control_c, 0, 64, 46
2, 204458, Control_c, 0, 64, 47
2, 204476, Control_c, 0, 64, 52
2, 204496, Control_c, 0, 64, 57
2, 204515, Control_c, 0, 64, 61
2, 204533, Control_c, 0, 64, 63
2, 204553, Control_c, 0, 64, 64
2, 204572, Control_c, 0, 64, 65
2, 204592, Control_c, 0, 64, 66
2, 204593, Note_on_c, 0, 68, 0
2, 204598, Note_on_c, 0, 70, 64
2, 204600, Note_on_c, 0, 56, 0
2, 204609, Control_c, 0, 64, 68
2, 204625, Note_on_c, 0, 55, 41
2, 204629, Control_c, 0, 64, 69
2, 204648, Control_c, 0, 64, 71
2, 204653, Note_on_c, 0, 71, 0
2, 204668, Control_c, 0, 64, 72
2, 204821, Control_c, 0, 64, 70
2, 204840, Control_c, 0, 64, 66
2, 204849, Note_on_c, 0, 71, 58
2, 204860, Control_c, 0, 64, 60
2, 204875, Note_on_c, 0, 56, 41
2, 204875, Note_on_c, 0, 70, 0
2, 204879, Control_c, 0, 64, 46
2, 204885, Note_on_c, 0, 55, 0
2, 204898, Control_c, 0, 64, 40
2, 204917, Control_c, 0, 64, 41
2, 204924, Note_on_c, 0, 59, 0
2, 204937, Control_c, 0, 64, 46
2, 204955, Control_c, 0, 64, 55
2, 204974, Control_c, 0, 64, 60
2, 204994, Control_c, 0, 64, 62
2, 205013, Control_c, 0, 64, 63
2, 205032, Control_c, 0, 64, 64
2, 205044, Note_on_c, 0, 71, 0
2, 205051, Control_c, 0, 64, 65
2, 205072, Control_c, 0, 64, 66
2, 205088, Note_on_c, 0, 68, 56
2, 205090, Control_c, 0, 64, 68
2, 205110, Control_c, 0, 64, 70
2, 205129, Control_c, 0, 64, 73
2, 205143, Note_on_c, 0, 68, 0
2, 205149, Control_c, 0, 64, 75
2, 205167, Control_c, 0, 64, 76
2, 205225, Control_c, 0, 64, 75
2, 205321, Control_c, 0, 64, 74
2, 205331, Note_on_c, 0, 56, 0
2, 205341, Control_c, 0, 64, 72
2, 205352, Note_on_c, 0, 68, 72
2, 205359, Control_c, 0, 64, 71
2, 205368, Note_on_c, 0, 65, 48
2, 205379, Control_c, 0, 64, 71
2, 205398, Control_c, 0, 64, 72
2, 205418, Control_c, 0, 64, 72
2, 205436, Control_c, 0, 64, 73
2, 205456, Control_c, 0, 64, 73
2, 205475, Control_c, 0, 64, 74
2, 205513, Control_c, 0, 64, 75
2, 205532, Control_c, 0, 64, 76
2, 205552, Control_c, 0, 64, 78
2, 205570, Control_c, 0, 64, 80
2, 205590, Control_c, 0, 64, 81
2, 205606, Note_on_c, 0, 66, 58
2, 205629, Control_c, 0, 64, 81
2, 205647, Control_c, 0, 64, 82
2, 205652, Note_on_c, 0, 68, 0
2, 205705, Control_c, 0, 64, 81
2, 205721, Note_on_c, 0, 65, 0
2, 205744, Control_c, 0, 64, 81
2, 205821, Control_c, 0, 64, 80
2, 205839, Control_c, 0, 64, 76
2, 205859, Control_c, 0, 64, 66
2, 205873, Note_on_c, 0, 68, 54
2, 205878, Control_c, 0, 64, 56
2, 205883, Note_on_c, 0, 56, 36
2, 205892, Note_on_c, 0, 59, 28
2, 205898, Control_c, 0, 64, 43
2, 205914, Note_on_c, 0, 66, 0
2, 205916, Control_c, 0, 64, 42
2, 205955, Control_c, 0, 64, 46
2, 205973, Control_c, 0, 64, 51
2, 205993, Control_c, 0, 64, 55
2, 206012, Control_c, 0, 64, 59
2, 206029, Control_c, 0, 64, 61
2, 206048, Control_c, 0, 64, 63
2, 206057, Note_on_c, 0, 68, 0
2, 206067, Control_c, 0, 64, 64
2, 206086, Control_c, 0, 64, 65
2, 206096, Note_on_c, 0, 65, 52
2, 206106, Control_c, 0, 64, 66
2, 206124, Control_c, 0, 64, 67
2, 206144, Control_c, 0, 64, 67
2, 206163, Control_c, 0, 64, 68
2, 206183, Control_c, 0, 64, 69
2, 206201, Control_c, 0, 64, 69
2, 206221, Control_c, 0, 64, 70
2, 206240, Control_c, 0, 64, 70
2, 206259, Control_c, 0, 64, 71
2, 206278, Control_c, 0, 64, 72
2, 206298, Control_c, 0, 64, 73
2, 206317, Control_c, 0, 64, 74
2, 206336, Control_c, 0, 64, 71
2, 206355, Control_c, 0, 64, 66
2, 206374, Control_c, 0, 64, 58
2, 206379, Note_on_c, 0, 77, 79
2, 206381, Note_on_c, 0, 59, 0
2, 206383, Note_on_c, 0, 58, 38
2, 206394, Control_c, 0, 64, 55
2, 206395, Note_on_c, 0, 62, 38
2, 206403, Note_on_c, 0, 65, 0
2, 206412, Control_c, 0, 64, 57
2, 206432, Control_c, 0, 64, 61
2, 206451, Control_c, 0, 64, 64
2, 206470, Control_c, 0, 64, 66
2, 206489, Control_c, 0, 64, 68
2, 206497, Note_on_c, 0, 56, 0
2, 206509, Control_c, 0, 64, 71
2, 206524, Note_on_c, 0, 62, 0
2, 206527, Control_c, 0, 64, 75
2, 206529, Note_on_c, 0, 58, 0
2, 206546, Control_c, 0, 64, 77
2, 206565, Control_c, 0, 64, 78
2, 206643, Note_on_c, 0, 63, 60
2, 206680, Control_c, 0, 64, 77
2, 206719, Control_c, 0, 64, 77
2, 206724, Note_on_c, 0, 63, 0
2, 206739, Control_c, 0, 64, 76
2, 206757, Control_c, 0, 64, 76
2, 206777, Control_c, 0, 64, 75
2, 206796, Control_c, 0, 64, 74
2, 206814, Control_c, 0, 64, 74
2, 206873, Control_c, 0, 64, 73
2, 206891, Control_c, 0, 64, 71
2, 206911, Control_c, 0, 64, 66
2, 206922, Note_on_c, 0, 50, 34
2, 206924, Note_on_c, 0, 65, 56
2, 206930, Control_c, 0, 64, 59
2, 206949, Control_c, 0, 64, 42
2, 206968, Control_c, 0, 64, 35
2, 206992, Control_c, 0, 64, 34
2, 207030, Control_c, 0, 64, 36
2, 207049, Control_c, 0, 64, 40
2, 207069, Control_c, 0, 64, 47
2, 207087, Control_c, 0, 64, 56
2, 207107, Control_c, 0, 64, 61
2, 207126, Control_c, 0, 64, 62
2, 207144, Note_on_c, 0, 50, 0
2, 207145, Control_c, 0, 64, 63
2, 207164, Control_c, 0, 64, 64
2, 207171, Note_on_c, 0, 56, 40
2, 207184, Control_c, 0, 64, 65
2, 207203, Control_c, 0, 64, 66
2, 207222, Control_c, 0, 64, 68
2, 207234, Note_on_c, 0, 56, 0
2, 207241, Control_c, 0, 64, 69
2, 207261, Control_c, 0, 64, 70
2, 207299, Control_c, 0, 64, 70
2, 207452, Control_c, 0, 64, 70
2, 207459, Note_on_c, 0, 51, 36
2, 207467, Note_on_c, 0, 65, 0
2, 207467, Note_on_c, 0, 78, 74
2, 207472, Control_c, 0, 64, 66
2, 207483, Note_on_c, 0, 54, 29
2, 207489, Note_on_c, 0, 77, 0
2, 207491, Control_c, 0, 64, 59
2, 207511, Control_c, 0, 64, 18
2, 207530, Control_c, 0, 64, 0
2, 207607, Control_c, 0, 64, 34
2, 207626, Control_c, 0, 64, 52
2, 207645, Control_c, 0, 64, 61
2, 207665, Control_c, 0, 64, 63
2, 207684, Control_c, 0, 64, 64
2, 207686, Note_on_c, 0, 51, 0
2, 207696, Note_on_c, 0, 54, 0
2, 207703, Control_c, 0, 64, 65
2, 207722, Control_c, 0, 64, 67
2, 207742, Control_c, 0, 64, 68
2, 207748, Note_on_c, 0, 63, 41
2, 207760, Control_c, 0, 64, 69
2, 207780, Control_c, 0, 64, 71
2, 207799, Control_c, 0, 64, 72
2, 207819, Control_c, 0, 64, 73
2, 207857, Control_c, 0, 64, 73
2, 207894, Control_c, 0, 64, 73
2, 207933, Control_c, 0, 64, 72
2, 207953, Control_c, 0, 64, 72
2, 207971, Control_c, 0, 64, 71
2, 207987, Note_on_c, 0, 65, 46
2, 207991, Control_c, 0, 64, 70
2, 208010, Control_c, 0, 64, 69
2, 208023, Note_on_c, 0, 63, 0
2, 208029, Control_c, 0, 64, 67
2, 208048, Control_c, 0, 64, 64
2, 208068, Control_c, 0, 64, 61
2, 208087, Control_c, 0, 64, 60
2, 208125, Control_c, 0, 64, 59
2, 208145, Control_c, 0, 64, 58
2, 208164, Control_c, 0, 64, 56
2, 208183, Control_c, 0, 64, 53
2, 208202, Control_c, 0, 64, 52
2, 208222, Control_c, 0, 64, 50
2, 208228, Note_on_c, 0, 66, 67
2, 208240, Control_c, 0, 64, 47
2, 208260, Control_c, 0, 64, 45
2, 208279, Control_c, 0, 64, 41
2, 208286, Note_on_c, 0, 65, 0
2, 208299, Control_c, 0, 64, 38
2, 208317, Control_c, 0, 64, 38
2, 208505, Note_on_c, 0, 68, 70
2, 208527, Control_c, 0, 64, 39
2, 208547, Control_c, 0, 64, 39
2, 208566, Control_c, 0, 64, 40
2, 208589, Note_on_c, 0, 66, 0
2, 208604, Control_c, 0, 64, 41
2, 208624, Control_c, 0, 64, 42
2, 208643, Control_c, 0, 64, 43
2, 208681, Control_c, 0, 64, 43
2, 208701, Control_c, 0, 64, 44
2, 208719, Control_c, 0, 64, 44
2, 208719, Note_on_c, 0, 78, 0
2, 208739, Control_c, 0, 64, 45
2, 208739, Note_on_c, 0, 77, 64
2, 208913, Control_c, 0, 64, 46
2, 208951, Control_c, 0, 64, 46
2, 208989, Control_c, 0, 64, 47
2, 208995, Note_on_c, 0, 78, 68
2, 209071, Note_on_c, 0, 77, 0
2, 209249, Note_on_c, 0, 80, 85
2, 209310, Note_on_c, 0, 78, 0
2, 209354, Control_c, 0, 64, 47
2, 209373, Control_c, 0, 64, 48
2, 209517, Note_on_c, 0, 82, 84
2, 209569, Note_on_c, 0, 80, 0
2, 209771, Note_on_c, 0, 66, 62
2, 209790, Note_on_c, 0, 68, 0
2, 209968, Control_c, 0, 64, 48
2, 210026, Control_c, 0, 64, 49
2, 210041, Note_on_c, 0, 68, 78
2, 210082, Note_on_c, 0, 66, 0
2, 210103, Control_c, 0, 64, 49
2, 210180, Control_c, 0, 64, 50
2, 210297, Note_on_c, 0, 70, 80
2, 210333, Control_c, 0, 64, 50
2, 210344, Note_on_c, 0, 68, 0
2, 210563, Note_on_c, 0, 71, 78
2, 210637, Note_on_c, 0, 70, 0
2, 210701, Note_on_c, 0, 82, 0
2, 210813, Note_on_c, 0, 82, 76
2, 211072, Note_on_c, 0, 80, 76
2, 211081, Control_c, 0, 64, 50
2, 211123, Note_on_c, 0, 82, 0
2, 211273, Control_c, 0, 64, 50
2, 211292, Control_c, 0, 64, 51
2, 211312, Control_c, 0, 64, 51
2, 211317, Note_on_c, 0, 78, 75
2, 211330, Control_c, 0, 64, 52
2, 211350, Control_c, 0, 64, 54
2, 211361, Note_on_c, 0, 80, 0
2, 211369, Control_c, 0, 64, 55
2, 211389, Control_c, 0, 64, 55
2, 211578, Note_on_c, 0, 77, 66
2, 211615, Note_on_c, 0, 78, 0
2, 211695, Control_c, 0, 64, 56
2, 211708, Note_on_c, 0, 71, 0
2, 211734, Control_c, 0, 64, 56
2, 211772, Control_c, 0, 64, 57
2, 211832, Note_on_c, 0, 71, 63
2, 212003, Control_c, 0, 64, 56
2, 212061, Control_c, 0, 64, 56
2, 212079, Control_c, 0, 64, 55
2, 212099, Control_c, 0, 64, 55
2, 212100, Note_on_c, 0, 70, 57
2, 212100, Note_on_c, 0, 79, 67
2, 212112, Note_on_c, 0, 71, 0
2, 212119, Note_on_c, 0, 77, 0
2, 212347, Note_on_c, 0, 80, 69
2, 212355, Note_on_c, 0, 68, 49
2, 212361, Note_on_c, 0, 70, 0
2, 212385, Note_on_c, 0, 79, 0
2, 212444, Control_c, 0, 64, 55
2, 212605, Note_on_c, 0, 79, 66
2, 212606, Note_on_c, 0, 68, 0
2, 212613, Note_on_c, 0, 70, 51
2, 212621, Note_on_c, 0, 80, 0
2, 212655, Control_c, 0, 64, 55
2, 212752, Control_c, 0, 64, 54
2, 212860, Note_on_c, 0, 80, 72
2, 212862, Note_on_c, 0, 71, 48
2, 212863, Note_on_c, 0, 79, 0
2, 212870, Note_on_c, 0, 70, 0
2, 212924, Control_c, 0, 64, 55
2, 212944, Control_c, 0, 64, 55
2, 212963, Control_c, 0, 64, 56
2, 212982, Control_c, 0, 64, 57
2, 213001, Control_c, 0, 64, 59
2, 213021, Control_c, 0, 64, 60
2, 213039, Control_c, 0, 64, 60
2, 213058, Note_on_c, 0, 71, 0
2, 213059, Control_c, 0, 64, 61
2, 213078, Control_c, 0, 64, 61
2, 213110, Note_on_c, 0, 80, 0
2, 213116, Note_on_c, 0, 82, 66
2, 213117, Note_on_c, 0, 73, 57
2, 213350, Note_on_c, 0, 82, 0
2, 213359, Note_on_c, 0, 79, 69
2, 213443, Control_c, 0, 64, 61
2, 213615, Control_c, 0, 64, 60
2, 213620, Note_on_c, 0, 73, 0
2, 213634, Note_on_c, 0, 44, 56
2, 213636, Note_on_c, 0, 79, 0
2, 213646, Note_on_c, 0, 75, 67
2, 213902, Note_on_c, 0, 73, 57
2, 213961, Control_c, 0, 64, 60
2, 214115, Control_c, 0, 64, 59
2, 214143, Note_on_c, 0, 71, 58
2, 214148, Note_on_c, 0, 73, 0
2, 214210, Control_c, 0, 64, 59
2, 214307, Control_c, 0, 64, 58
2, 214384, Control_c, 0, 64, 58
2, 214384, Note_on_c, 0, 71, 0
2, 214400, Note_on_c, 0, 70, 61
2, 214479, Control_c, 0, 64, 57
2, 214556, Control_c, 0, 64, 57
2, 214655, Note_on_c, 0, 47, 59
2, 214668, Note_on_c, 0, 70, 0
2, 214676, Control_c, 0, 64, 56
2, 214698, Note_on_c, 0, 68, 45
2, 214732, Note_on_c, 0, 44, 0
2, 214753, Control_c, 0, 64, 56
2, 214907, Control_c, 0, 64, 56
2, 214926, Control_c, 0, 64, 57
2, 214930, Note_on_c, 0, 68, 0
2, 214939, Note_on_c, 0, 70, 60
2, 214945, Control_c, 0, 64, 58
2, 214964, Control_c, 0, 64, 58
2, 214984, Control_c, 0, 64, 59
2, 215003, Control_c, 0, 64, 60
2, 215022, Control_c, 0, 64, 62
2, 215041, Control_c, 0, 64, 63
2, 215061, Control_c, 0, 64, 64
2, 215079, Control_c, 0, 64, 66
2, 215099, Control_c, 0, 64, 68
2, 215118, Control_c, 0, 64, 72
2, 215137, Note_on_c, 0, 47, 0
2, 215138, Control_c, 0, 64, 78
2, 215156, Control_c, 0, 64, 83
2, 215172, Control_c, 0, 64, 86
2, 215179, Note_on_c, 0, 71, 67
2, 215189, Note_on_c, 0, 70, 0
2, 215192, Control_c, 0, 64, 87
2, 215326, Control_c, 0, 64, 86
2, 215346, Control_c, 0, 64, 86
2, 215364, Control_c, 0, 64, 85
2, 215403, Control_c, 0, 64, 85
2, 215425, Note_on_c, 0, 71, 0
2, 215430, Note_on_c, 0, 68, 66
2, 215441, Control_c, 0, 64, 84
2, 215480, Control_c, 0, 64, 84
2, 215499, Control_c, 0, 64, 83
2, 215538, Control_c, 0, 64, 82
2, 215557, Control_c, 0, 64, 81
2, 215575, Control_c, 0, 64, 80
2, 215614, Control_c, 0, 64, 80
2, 215631, Control_c, 0, 64, 79
2, 215644, Note_on_c, 0, 68, 0
2, 215649, Control_c, 0, 64, 78
2, 215662, Note_on_c, 0, 52, 67
2, 215669, Control_c, 0, 64, 75
2, 215670, Note_on_c, 0, 61, 43
2, 215688, Control_c, 0, 64, 69
2, 215691, Note_on_c, 0, 75, 0
2, 215708, Control_c, 0, 64, 63
2, 215726, Control_c, 0, 64, 55
2, 215746, Control_c, 0, 64, 46
2, 215765, Control_c, 0, 64, 40
2, 215784, Control_c, 0, 64, 34
2, 215803, Control_c, 0, 64, 31
2, 215880, Control_c, 0, 64, 30
2, 215886, Note_on_c, 0, 61, 0
2, 215934, Note_on_c, 0, 60, 57
2, 216168, Control_c, 0, 64, 31
2, 216188, Control_c, 0, 64, 35
2, 216190, Note_on_c, 0, 80, 62
2, 216194, Note_on_c, 0, 61, 59
2, 216199, Note_on_c, 0, 60, 0
2, 216206, Control_c, 0, 64, 42
2, 216226, Control_c, 0, 64, 49
2, 216245, Control_c, 0, 64, 55
2, 216264, Control_c, 0, 64, 60
2, 216283, Control_c, 0, 64, 62
2, 216303, Control_c, 0, 64, 64
2, 216316, Note_on_c, 0, 52, 0
2, 216322, Control_c, 0, 64, 66
2, 216335, Note_on_c, 0, 61, 0
2, 216341, Control_c, 0, 64, 70
2, 216360, Control_c, 0, 64, 74
2, 216380, Control_c, 0, 64, 79
2, 216399, Control_c, 0, 64, 82
2, 216444, Note_on_c, 0, 78, 71
2, 216475, Control_c, 0, 64, 82
2, 216552, Control_c, 0, 64, 82
2, 216589, Control_c, 0, 64, 81
2, 216608, Control_c, 0, 64, 80
2, 216627, Control_c, 0, 64, 79
2, 216646, Control_c, 0, 64, 79
2, 216666, Control_c, 0, 64, 78
2, 216703, Note_on_c, 0, 49, 71
2, 216704, Control_c, 0, 64, 76
2, 216719, Note_on_c, 0, 76, 67
2, 216723, Control_c, 0, 64, 73
2, 216736, Note_on_c, 0, 78, 0
2, 216736, Note_on_c, 0, 80, 0
2, 216743, Control_c, 0, 64, 67
2, 216761, Control_c, 0, 64, 63
2, 216781, Control_c, 0, 64, 59
2, 216800, Control_c, 0, 64, 57
2, 216819, Control_c, 0, 64, 55
2, 216838, Control_c, 0, 64, 49
2, 216858, Control_c, 0, 64, 45
2, 216877, Control_c, 0, 64, 44
2, 216895, Control_c, 0, 64, 43
2, 216954, Control_c, 0, 64, 43
2, 216964, Note_on_c, 0, 78, 75
2, 216976, Note_on_c, 0, 76, 0
2, 217049, Control_c, 0, 64, 43
2, 217069, Control_c, 0, 64, 44
2, 217088, Control_c, 0, 64, 44
2, 217126, Control_c, 0, 64, 45
2, 217146, Control_c, 0, 64, 46
2, 217164, Control_c, 0, 64, 46
2, 217184, Control_c, 0, 64, 47
2, 217215, Note_on_c, 0, 80, 73
2, 217223, Control_c, 0, 64, 47
2, 217230, Note_on_c, 0, 68, 56
2, 217238, Note_on_c, 0, 78, 0
2, 217261, Control_c, 0, 64, 48
2, 217300, Control_c, 0, 64, 49
2, 217318, Control_c, 0, 64, 49
2, 217338, Control_c, 0, 64, 50
2, 217375, Control_c, 0, 64, 50
2, 217475, Note_on_c, 0, 76, 69
2, 217482, Note_on_c, 0, 80, 0
2, 217491, Control_c, 0, 64, 51
2, 217529, Control_c, 0, 64, 51
2, 217589, Control_c, 0, 64, 52
2, 217666, Control_c, 0, 64, 52
2, 217724, Note_on_c, 0, 46, 62
2, 217736, Note_on_c, 0, 76, 0
2, 217739, Note_on_c, 0, 73, 64
2, 217800, Control_c, 0, 64, 53
2, 217830, Note_on_c, 0, 49, 0
2, 217964, Note_on_c, 0, 68, 0
2, 217992, Control_c, 0, 64, 53
2, 217993, Note_on_c, 0, 75, 65
2, 218034, Note_on_c, 0, 73, 0
2, 218241, Note_on_c, 0, 76, 61
2, 218251, Note_on_c, 0, 75, 0
2, 218271, Note_on_c, 0, 67, 43
2, 218319, Control_c, 0, 64, 54
2, 218503, Note_on_c, 0, 73, 61
2, 218754, Note_on_c, 0, 55, 68
2, 218775, Note_on_c, 0, 70, 61
2, 218784, Note_on_c, 0, 73, 0
2, 218800, Note_on_c, 0, 76, 0
2, 218889, Note_on_c, 0, 46, 0
2, 218898, Note_on_c, 0, 67, 0
2, 219024, Note_on_c, 0, 71, 64
2, 219059, Note_on_c, 0, 70, 0
2, 219293, Note_on_c, 0, 73, 61
2, 219323, Note_on_c, 0, 71, 0
2, 219545, Note_on_c, 0, 70, 56
2, 219759, Control_c, 0, 64, 54
2, 219828, Note_on_c, 0, 56, 69
2, 219835, Note_on_c, 0, 70, 0
2, 219840, Note_on_c, 0, 63, 49
2, 219879, Note_on_c, 0, 55, 0
2, 220124, Note_on_c, 0, 70, 69
2, 220125, Note_on_c, 0, 73, 0
2, 220375, Note_on_c, 0, 71, 74
2, 220388, Note_on_c, 0, 70, 0
2, 220526, Control_c, 0, 64, 54
2, 220557, Note_on_c, 0, 63, 0
2, 220620, Note_on_c, 0, 66, 55
2, 220879, Note_on_c, 0, 66, 0
2, 220890, Note_on_c, 0, 65, 46
2, 221114, Note_on_c, 0, 65, 0
2, 221126, Note_on_c, 0, 54, 42
2, 221133, Note_on_c, 0, 68, 53
2, 221142, Control_c, 0, 64, 53
2, 221225, Note_on_c, 0, 56, 0
2, 221353, Control_c, 0, 64, 54
2, 221388, Note_on_c, 0, 54, 0
2, 221392, Control_c, 0, 64, 55
2, 221397, Note_on_c, 0, 61, 48
2, 221400, Note_on_c, 0, 68, 0
2, 221409, Note_on_c, 0, 53, 44
2, 221410, Control_c, 0, 64, 57
2, 221430, Control_c, 0, 64, 59
2, 221449, Control_c, 0, 64, 61
2, 221469, Control_c, 0, 64, 62
2, 221474, Note_on_c, 0, 71, 0
2, 221487, Control_c, 0, 64, 63
2, 221507, Control_c, 0, 64, 63
2, 221526, Control_c, 0, 64, 64
2, 221545, Control_c, 0, 64, 64
2, 221564, Control_c, 0, 64, 65
2, 221635, Note_on_c, 0, 71, 62
2, 221646, Note_on_c, 0, 56, 53
2, 221656, Note_on_c, 0, 53, 0
2, 221661, Control_c, 0, 64, 65
2, 221756, Control_c, 0, 64, 65
2, 221786, Note_on_c, 0, 71, 0
2, 221814, Control_c, 0, 64, 64
2, 221833, Control_c, 0, 64, 64
2, 221904, Note_on_c, 0, 54, 49
2, 221909, Control_c, 0, 64, 63
2, 221919, Note_on_c, 0, 71, 64
2, 221948, Control_c, 0, 64, 62
2, 221966, Control_c, 0, 64, 60
2, 221986, Control_c, 0, 64, 59
2, 222005, Control_c, 0, 64, 57
2, 222010, Note_on_c, 0, 56, 0
2, 222024, Control_c, 0, 64, 57
2, 222043, Control_c, 0, 64, 56
2, 222063, Control_c, 0, 64, 56
2, 222124, Note_on_c, 0, 71, 0
2, 222156, Note_on_c, 0, 68, 67
2, 222216, Control_c, 0, 64, 55
2, 222391, Control_c, 0, 64, 56
2, 222394, Note_on_c, 0, 68, 0
2, 222403, Note_on_c, 0, 70, 68
2, 222602, Control_c, 0, 64, 56
2, 222642, Note_on_c, 0, 61, 0
2, 222681, Note_on_c, 0, 64, 43
2, 222813, Control_c, 0, 64, 57
2, 222922, Note_on_c, 0, 64, 0
2, 222936, Note_on_c, 0, 63, 51
2, 223151, Note_on_c, 0, 63, 0
2, 223176, Control_c, 0, 64, 57
2, 223180, Note_on_c, 0, 66, 48
2, 223184, Note_on_c, 0, 52, 39
2, 223257, Note_on_c, 0, 54, 0
2, 223284, Note_on_c, 0, 70, 0
2, 223450, Note_on_c, 0, 51, 51
2, 223453, Note_on_c, 0, 66, 0
2, 223457, Note_on_c, 0, 52, 0
2, 223474, Note_on_c, 0, 59, 50
2, 223503, Control_c, 0, 64, 58
2, 223637, Control_c, 0, 64, 58
2, 223675, Control_c, 0, 64, 59
2, 223694, Control_c, 0, 64, 60
2, 223702, Note_on_c, 0, 69, 56
2, 223704, Note_on_c, 0, 51, 0
2, 223704, Note_on_c, 0, 54, 45
2, 223714, Control_c, 0, 64, 61
2, 223733, Control_c, 0, 64, 62
2, 223752, Control_c, 0, 64, 63
2, 223771, Control_c, 0, 64, 63
2, 223791, Control_c, 0, 64, 64
2, 223829, Control_c, 0, 64, 64
2, 223852, Note_on_c, 0, 69, 0
2, 223963, Control_c, 0, 64, 64
2, 223983, Control_c, 0, 64, 63
2, 224000, Note_on_c, 0, 52, 62
2, 224002, Control_c, 0, 64, 62
2, 224010, Note_on_c, 0, 69, 57
2, 224021, Control_c, 0, 64, 62
2, 224040, Control_c, 0, 64, 61
2, 224060, Control_c, 0, 64, 59
2, 224079, Control_c, 0, 64, 57
2, 224097, Control_c, 0, 64, 56
2, 224117, Control_c, 0, 64, 55
2, 224130, Note_on_c, 0, 54, 0
2, 224155, Control_c, 0, 64, 56
2, 224194, Control_c, 0, 64, 56
2, 224213, Control_c, 0, 64, 57
2, 224214, Note_on_c, 0, 69, 0
2, 224232, Control_c, 0, 64, 58
2, 224244, Note_on_c, 0, 67, 58
2, 224251, Control_c, 0, 64, 59
2, 224251, Note_on_c, 0, 59, 0
2, 224271, Control_c, 0, 64, 59
2, 224289, Control_c, 0, 64, 60
2, 224309, Control_c, 0, 64, 60
2, 224328, Control_c, 0, 64, 61
2, 224348, Control_c, 0, 64, 61
2, 224405, Control_c, 0, 64, 62
2, 224501, Control_c, 0, 64, 62
2, 224502, Note_on_c, 0, 68, 69
2, 224546, Note_on_c, 0, 67, 0
2, 224559, Control_c, 0, 64, 63
2, 224597, Control_c, 0, 64, 63
2, 224751, Control_c, 0, 64, 64
2, 224754, Note_on_c, 0, 51, 44
2, 224766, Note_on_c, 0, 60, 44
2, 224844, Note_on_c, 0, 52, 0
2, 224981, Control_c, 0, 64, 63
2, 225000, Control_c, 0, 64, 59
2, 225016, Note_on_c, 0, 56, 80
2, 225020, Control_c, 0, 64, 47
2, 225026, Note_on_c, 0, 49, 52
2, 225035, Note_on_c, 0, 64, 58
2, 225039, Control_c, 0, 64, 25
2, 225057, Control_c, 0, 64, 15
2, 225062, Note_on_c, 0, 60, 0
2, 225063, Note_on_c, 0, 51, 0
2, 225096, Control_c, 0, 64, 29
2, 225115, Control_c, 0, 64, 47
2, 225134, Control_c, 0, 64, 57
2, 225154, Control_c, 0, 64, 61
2, 225173, Control_c, 0, 64, 62
2, 225192, Control_c, 0, 64, 63
2, 225211, Control_c, 0, 64, 64
2, 225232, Control_c, 0, 64, 65
2, 225250, Control_c, 0, 64, 67
2, 225262, Note_on_c, 0, 49, 0
2, 225270, Control_c, 0, 64, 69
2, 225273, Note_on_c, 0, 51, 49
2, 225279, Note_on_c, 0, 72, 64
2, 225289, Control_c, 0, 64, 71
2, 225309, Control_c, 0, 64, 73
2, 225324, Note_on_c, 0, 68, 0
2, 225327, Control_c, 0, 64, 76
2, 225347, Control_c, 0, 64, 76
2, 225352, Note_on_c, 0, 72, 0
2, 225443, Control_c, 0, 64, 76
2, 225481, Control_c, 0, 64, 76
2, 225501, Control_c, 0, 64, 76
2, 225519, Control_c, 0, 64, 72
2, 225520, Note_on_c, 0, 51, 0
2, 225539, Control_c, 0, 64, 65
2, 225545, Note_on_c, 0, 52, 52
2, 225546, Note_on_c, 0, 73, 69
2, 225558, Control_c, 0, 64, 52
2, 225577, Control_c, 0, 64, 37
2, 225615, Control_c, 0, 64, 40
2, 225635, Control_c, 0, 64, 50
2, 225654, Control_c, 0, 64, 58
2, 225673, Control_c, 0, 64, 61
2, 225678, Note_on_c, 0, 64, 0
2, 225692, Control_c, 0, 64, 63
2, 225712, Control_c, 0, 64, 64
2, 225729, Control_c, 0, 64, 66
2, 225749, Control_c, 0, 64, 67
2, 225765, Note_on_c, 0, 56, 0
2, 225768, Control_c, 0, 64, 68
2, 225784, Note_on_c, 0, 65, 61
2, 225788, Control_c, 0, 64, 70
2, 225788, Note_on_c, 0, 49, 47
2, 225806, Control_c, 0, 64, 72
2, 225826, Control_c, 0, 64, 73
2, 225841, Note_on_c, 0, 65, 0
2, 225883, Control_c, 0, 64, 73
2, 225922, Control_c, 0, 64, 73
2, 226037, Control_c, 0, 64, 72
2, 226056, Control_c, 0, 64, 68
2, 226075, Control_c, 0, 64, 63
2, 226084, Note_on_c, 0, 61, 78
2, 226085, Note_on_c, 0, 45, 61
2, 226092, Note_on_c, 0, 52, 0
2, 226094, Control_c, 0, 64, 53
2, 226097, Note_on_c, 0, 66, 55
2, 226114, Control_c, 0, 64, 30
2, 226133, Control_c, 0, 64, 0
2, 226161, Note_on_c, 0, 49, 0
2, 226274, Note_on_c, 0, 66, 0
2, 226301, Note_on_c, 0, 73, 0
2, 226306, Control_c, 0, 64, 29
2, 226325, Control_c, 0, 64, 49
2, 226345, Control_c, 0, 64, 60
2, 226357, Note_on_c, 0, 49, 40
2, 226363, Control_c, 0, 64, 62
2, 226383, Control_c, 0, 64, 63
2, 226402, Control_c, 0, 64, 64
2, 226421, Control_c, 0, 64, 65
2, 226440, Control_c, 0, 64, 67
2, 226460, Control_c, 0, 64, 69
2, 226479, Control_c, 0, 64, 72
2, 226497, Control_c, 0, 64, 75
2, 226517, Control_c, 0, 64, 77
2, 226536, Control_c, 0, 64, 78
2, 226555, Control_c, 0, 64, 79
2, 226574, Control_c, 0, 64, 80
2, 226577, Note_on_c, 0, 45, 0
2, 226594, Control_c, 0, 64, 81
2, 226613, Control_c, 0, 64, 82
2, 226616, Note_on_c, 0, 69, 64
2, 226626, Note_on_c, 0, 54, 43
2, 226632, Control_c, 0, 64, 82
2, 226634, Note_on_c, 0, 73, 60
2, 226651, Control_c, 0, 64, 83
2, 226670, Note_on_c, 0, 49, 0
2, 226671, Control_c, 0, 64, 83
2, 226689, Control_c, 0, 64, 84
2, 226708, Control_c, 0, 64, 84
2, 226727, Control_c, 0, 64, 85
2, 226747, Control_c, 0, 64, 85
2, 226765, Control_c, 0, 64, 86
2, 226785, Control_c, 0, 64, 86
2, 226824, Control_c, 0, 64, 87
2, 226841, Note_on_c, 0, 73, 0
2, 226856, Note_on_c, 0, 61, 0
2, 226880, Note_on_c, 0, 68, 75
2, 226976, Control_c, 0, 64, 86
2, 226983, Note_on_c, 0, 69, 0
2, 227015, Control_c, 0, 64, 86
2, 227034, Control_c, 0, 64, 84
2, 227053, Control_c, 0, 64, 82
2, 227073, Control_c, 0, 64, 80
2, 227092, Control_c, 0, 64, 80
2, 227111, Control_c, 0, 64, 79
2, 227130, Control_c, 0, 64, 73
2, 227141, Note_on_c, 0, 57, 77
2, 227141, Note_on_c, 0, 75, 71
2, 227148, Note_on_c, 0, 68, 0
2, 227151, Control_c, 0, 64, 64
2, 227155, Note_on_c, 0, 66, 60
2, 227169, Control_c, 0, 64, 0
2, 227322, Note_on_c, 0, 54, 0
2, 227388, Note_on_c, 0, 66, 0
2, 227388, Note_on_c, 0, 68, 72
2, 227643, Note_on_c, 0, 69, 58
2, 227645, Note_on_c, 0, 68, 0
2, 227654, Note_on_c, 0, 48, 58
2, 227860, Control_c, 0, 64, 50
2, 227879, Control_c, 0, 64, 62
2, 227881, Note_on_c, 0, 75, 0
2, 227896, Note_on_c, 0, 69, 0
2, 227898, Control_c, 0, 64, 63
2, 227907, Note_on_c, 0, 66, 53
2, 227918, Control_c, 0, 64, 64
2, 227936, Control_c, 0, 64, 65
2, 227956, Control_c, 0, 64, 68
2, 227975, Control_c, 0, 64, 70
2, 227994, Control_c, 0, 64, 71
2, 228111, Control_c, 0, 64, 71
2, 228129, Control_c, 0, 64, 70
2, 228149, Control_c, 0, 64, 66
2, 228159, Note_on_c, 0, 66, 0
2, 228168, Control_c, 0, 64, 60
2, 228168, Note_on_c, 0, 54, 77
2, 228182, Note_on_c, 0, 63, 60
2, 228188, Control_c, 0, 64, 45
2, 228206, Control_c, 0, 64, 29
2, 228226, Control_c, 0, 64, 21
2, 228227, Note_on_c, 0, 57, 0
2, 228245, Control_c, 0, 64, 11
2, 228271, Note_on_c, 0, 48, 0
2, 228283, Control_c, 0, 64, 15
2, 228303, Control_c, 0, 64, 32
2, 228322, Control_c, 0, 64, 46
2, 228341, Control_c, 0, 64, 51
2, 228360, Control_c, 0, 64, 52
2, 228380, Control_c, 0, 64, 54
2, 228399, Control_c, 0, 64, 56
2, 228417, Control_c, 0, 64, 58
2, 228433, Note_on_c, 0, 64, 52
2, 228437, Control_c, 0, 64, 59
2, 228444, Note_on_c, 0, 63, 0
2, 228446, Note_on_c, 0, 49, 52
2, 228456, Control_c, 0, 64, 60
2, 228475, Control_c, 0, 64, 60
2, 228494, Control_c, 0, 64, 61
2, 228514, Control_c, 0, 64, 62
2, 228533, Control_c, 0, 64, 63
2, 228552, Control_c, 0, 64, 63
2, 228591, Control_c, 0, 64, 64
2, 228628, Control_c, 0, 64, 64
2, 228647, Control_c, 0, 64, 65
2, 228651, Note_on_c, 0, 49, 0
2, 228667, Control_c, 0, 64, 65
2, 228677, Note_on_c, 0, 51, 46
2, 228682, Note_on_c, 0, 64, 0
2, 228685, Control_c, 0, 64, 66
2, 228696, Note_on_c, 0, 69, 62
2, 228705, Control_c, 0, 64, 67
2, 228705, Note_on_c, 0, 66, 54
2, 228724, Control_c, 0, 64, 69
2, 228744, Control_c, 0, 64, 70
2, 228762, Control_c, 0, 64, 72
2, 228782, Control_c, 0, 64, 73
2, 228801, Control_c, 0, 64, 74
2, 228820, Control_c, 0, 64, 77
2, 228839, Control_c, 0, 64, 77
2, 228878, Control_c, 0, 64, 78
2, 228909, Note_on_c, 0, 54, 0
2, 228916, Control_c, 0, 64, 78
2, 228926, Note_on_c, 0, 66, 0
2, 228947, Note_on_c, 0, 63, 59
2, 228954, Note_on_c, 0, 48, 50
2, 228976, Note_on_c, 0, 69, 0
2, 228993, Control_c, 0, 64, 79
2, 228998, Note_on_c, 0, 63, 0
2, 229071, Control_c, 0, 64, 78
2, 229109, Control_c, 0, 64, 78
2, 229128, Control_c, 0, 64, 77
2, 229148, Control_c, 0, 64, 77
2, 229203, Note_on_c, 0, 51, 0
2, 229205, Control_c, 0, 64, 73
2, 229217, Note_on_c, 0, 44, 52
2, 229225, Control_c, 0, 64, 63
2, 229225, Note_on_c, 0, 63, 79
2, 229243, Control_c, 0, 64, 0
2, 229263, Note_on_c, 0, 60, 50
2, 229292, Note_on_c, 0, 48, 0
2, 229416, Control_c, 0, 64, 39
2, 229435, Control_c, 0, 64, 53
2, 229454, Control_c, 0, 64, 60
2, 229469, Note_on_c, 0, 46, 42
2, 229474, Control_c, 0, 64, 63
2, 229475, Note_on_c, 0, 44, 0
2, 229477, Note_on_c, 0, 61, 57
2, 229493, Control_c, 0, 64, 64
2, 229512, Control_c, 0, 64, 66
2, 229531, Control_c, 0, 64, 67
2, 229551, Control_c, 0, 64, 69
2, 229569, Control_c, 0, 64, 71
2, 229589, Control_c, 0, 64, 73
2, 229608, Control_c, 0, 64, 75
2, 229628, Control_c, 0, 64, 76
2, 229666, Control_c, 0, 64, 77
2, 229685, Control_c, 0, 64, 80
2, 229705, Control_c, 0, 64, 83
2, 229730, Note_on_c, 0, 63, 0
2, 229743, Control_c, 0, 64, 82
2, 229744, Note_on_c, 0, 60, 0
2, 229751, Note_on_c, 0, 63, 43
2, 229762, Control_c, 0, 64, 82
2, 229762, Note_on_c, 0, 68, 66
2, 229763, Note_on_c, 0, 48, 39
2, 229834, Note_on_c, 0, 46, 0
2, 229880, Note_on_c, 0, 61, 0
2, 229999, Note_on_c, 0, 63, 0
2, 230004, Note_on_c, 0, 66, 70
2, 230007, Note_on_c, 0, 44, 46
2, 230016, Note_on_c, 0, 48, 0
2, 230105, Control_c, 0, 64, 81
2, 230123, Control_c, 0, 64, 80
2, 230138, Note_on_c, 0, 68, 0
2, 230143, Control_c, 0, 64, 79
2, 230162, Control_c, 0, 64, 79
2, 230182, Control_c, 0, 64, 78
2, 230239, Control_c, 0, 64, 77
2, 230258, Control_c, 0, 64, 71
2, 230277, Control_c, 0, 64, 63
2, 230290, Note_on_c, 0, 49, 51
2, 230296, Note_on_c, 0, 64, 78
2, 230297, Control_c, 0, 64, 36
2, 230316, Control_c, 0, 64, 0
2, 230329, Note_on_c, 0, 44, 0
2, 230336, Note_on_c, 0, 66, 0
2, 230508, Control_c, 0, 64, 19
2, 230526, Control_c, 0, 64, 31
2, 230538, Note_on_c, 0, 51, 40
2, 230546, Control_c, 0, 64, 38
2, 230557, Note_on_c, 0, 49, 0
2, 230565, Control_c, 0, 64, 42
2, 230585, Control_c, 0, 64, 43
2, 230603, Control_c, 0, 64, 44
2, 230623, Control_c, 0, 64, 45
2, 230642, Control_c, 0, 64, 46
2, 230789, Note_on_c, 0, 51, 0
2, 230812, Note_on_c, 0, 68, 60
2, 230816, Note_on_c, 0, 61, 49
2, 230830, Note_on_c, 0, 52, 39
2, 230834, Control_c, 0, 64, 46
2, 230892, Control_c, 0, 64, 47
2, 230988, Control_c, 0, 64, 48
2, 231006, Control_c, 0, 64, 49
2, 231026, Control_c, 0, 64, 50
2, 231045, Control_c, 0, 64, 51
2, 231054, Note_on_c, 0, 49, 39
2, 231065, Control_c, 0, 64, 52
2, 231076, Note_on_c, 0, 52, 0
2, 231083, Control_c, 0, 64, 54
2, 231103, Control_c, 0, 64, 55
2, 231122, Control_c, 0, 64, 55
2, 231142, Control_c, 0, 64, 56
2, 231160, Control_c, 0, 64, 57
2, 231276, Control_c, 0, 64, 56
2, 231295, Control_c, 0, 64, 56
2, 231314, Control_c, 0, 64, 55
2, 231334, Control_c, 0, 64, 54
2, 231338, Note_on_c, 0, 73, 75
2, 231342, Note_on_c, 0, 45, 40
2, 231347, Note_on_c, 0, 49, 0
2, 231391, Control_c, 0, 64, 54
2, 231429, Control_c, 0, 64, 54
2, 231438, Note_on_c, 0, 64, 0
2, 231449, Control_c, 0, 64, 55
2, 231452, Note_on_c, 0, 61, 0
2, 231468, Control_c, 0, 64, 57
2, 231485, Control_c, 0, 64, 59
2, 231504, Control_c, 0, 64, 61
2, 231523, Control_c, 0, 64, 63
2, 231543, Control_c, 0, 64, 64
2, 231561, Control_c, 0, 64, 66
2, 231581, Control_c, 0, 64, 67
2, 231600, Control_c, 0, 64, 69
2, 231600, Note_on_c, 0, 47, 43
2, 231620, Control_c, 0, 64, 70
2, 231631, Note_on_c, 0, 45, 0
2, 231638, Control_c, 0, 64, 71
2, 231658, Control_c, 0, 64, 72
2, 231792, Control_c, 0, 64, 72
2, 231793, Note_on_c, 0, 68, 0
2, 231812, Control_c, 0, 64, 73
2, 231831, Control_c, 0, 64, 70
2, 231845, Note_on_c, 0, 64, 74
2, 231850, Control_c, 0, 64, 64
2, 231857, Note_on_c, 0, 49, 51
2, 231865, Note_on_c, 0, 61, 56
2, 231869, Control_c, 0, 64, 54
2, 231889, Control_c, 0, 64, 50
2, 231889, Note_on_c, 0, 47, 0
2, 231907, Control_c, 0, 64, 54
2, 231926, Control_c, 0, 64, 59
2, 231948, Control_c, 0, 64, 63
2, 231966, Control_c, 0, 64, 67
2, 231986, Control_c, 0, 64, 72
2, 232005, Control_c, 0, 64, 80
2, 232007, Note_on_c, 0, 61, 0
2, 232017, Note_on_c, 0, 49, 0
2, 232025, Control_c, 0, 64, 87
2, 232026, Note_on_c, 0, 64, 0
2, 232043, Control_c, 0, 64, 90
2, 232102, Control_c, 0, 64, 89
2, 232106, Note_on_c, 0, 45, 39
2, 232120, Control_c, 0, 64, 89
2, 232140, Control_c, 0, 64, 88
2, 232159, Control_c, 0, 64, 87
2, 232178, Control_c, 0, 64, 87
2, 232197, Control_c, 0, 64, 86
2, 232217, Control_c, 0, 64, 85
2, 232236, Control_c, 0, 64, 84
2, 232255, Control_c, 0, 64, 83
2, 232312, Control_c, 0, 64, 82
2, 232332, Control_c, 0, 64, 80
2, 232351, Control_c, 0, 64, 74
2, 232369, Note_on_c, 0, 69, 77
2, 232371, Control_c, 0, 64, 65
2, 232371, Note_on_c, 0, 66, 63
2, 232371, Note_on_c, 0, 73, 0
2, 232372, Note_on_c, 0, 42, 45
2, 232389, Control_c, 0, 64, 44
2, 232407, Note_on_c, 0, 45, 0
2, 232409, Control_c, 0, 64, 0
2, 232631, Note_on_c, 0, 44, 65
2, 232687, Note_on_c, 0, 42, 0
2, 232694, Control_c, 0, 64, 9
2, 232713, Control_c, 0, 64, 11
2, 232732, Control_c, 0, 64, 13
2, 232808, Control_c, 0, 64, 15
2, 232828, Control_c, 0, 64, 17
2, 232866, Control_c, 0, 64, 18
2, 232870, Note_on_c, 0, 78, 80
2, 232885, Control_c, 0, 64, 21
2, 232886, Note_on_c, 0, 69, 0
2, 232888, Note_on_c, 0, 45, 57
2, 232900, Note_on_c, 0, 44, 0
2, 232908, Control_c, 0, 64, 24
2, 232926, Control_c, 0, 64, 31
2, 232946, Control_c, 0, 64, 38
2, 232965, Control_c, 0, 64, 45
2, 232985, Control_c, 0, 64, 51
2, 233003, Control_c, 0, 64, 55
2, 233023, Control_c, 0, 64, 57
2, 233042, Control_c, 0, 64, 58
2, 233062, Control_c, 0, 64, 59
2, 233080, Control_c, 0, 64, 61
2, 233100, Control_c, 0, 64, 62
2, 233113, Note_on_c, 0, 78, 0
2, 233117, Note_on_c, 0, 42, 54
2, 233119, Control_c, 0, 64, 62
2, 233123, Note_on_c, 0, 76, 81
2, 233138, Control_c, 0, 64, 63
2, 233177, Control_c, 0, 64, 63
2, 233215, Control_c, 0, 64, 64
2, 233349, Control_c, 0, 64, 64
2, 233361, Note_on_c, 0, 42, 0
2, 233388, Control_c, 0, 64, 61
2, 233389, Note_on_c, 0, 39, 50
2, 233390, Note_on_c, 0, 78, 85
2, 233396, Note_on_c, 0, 76, 0
2, 233400, Control_c, 0, 64, 50
2, 233420, Control_c, 0, 64, 23
2, 233438, Control_c, 0, 64, 0
2, 233477, Control_c, 0, 64, 17
2, 233497, Control_c, 0, 64, 46
2, 233502, Note_on_c, 0, 45, 0
2, 233515, Control_c, 0, 64, 58
2, 233535, Control_c, 0, 64, 61
2, 233554, Control_c, 0, 64, 62
2, 233573, Control_c, 0, 64, 63
2, 233592, Control_c, 0, 64, 64
2, 233596, Note_on_c, 0, 66, 0
2, 233612, Control_c, 0, 64, 64
2, 233618, Note_on_c, 0, 40, 66
2, 233631, Control_c, 0, 64, 65
2, 233632, Note_on_c, 0, 39, 0
2, 233650, Control_c, 0, 64, 65
2, 233803, Control_c, 0, 64, 66
2, 233814, Note_on_c, 0, 78, 0
2, 233823, Control_c, 0, 64, 66
2, 233841, Control_c, 0, 64, 67
2, 233867, Control_c, 0, 64, 66
2, 233871, Note_on_c, 0, 40, 0
2, 233873, Note_on_c, 0, 42, 63
2, 233880, Note_on_c, 0, 75, 78
2, 233883, Note_on_c, 0, 66, 66
2, 233886, Control_c, 0, 64, 62
2, 233887, Note_on_c, 0, 69, 67
2, 233905, Control_c, 0, 64, 39
2, 233924, Control_c, 0, 64, 0
2, 233982, Control_c, 0, 64, 22
2, 234001, Control_c, 0, 64, 52
2, 234021, Control_c, 0, 64, 61
2, 234039, Control_c, 0, 64, 63
2, 234059, Control_c, 0, 64, 63
2, 234078, Control_c, 0, 64, 64
2, 234097, Control_c, 0, 64, 65
2, 234116, Control_c, 0, 64, 65
2, 234124, Note_on_c, 0, 39, 63
2, 234131, Note_on_c, 0, 42, 0
2, 234136, Control_c, 0, 64, 66
2, 234155, Control_c, 0, 64, 67
2, 234163, Note_on_c, 0, 66, 0
2, 234174, Control_c, 0, 64, 67
2, 234193, Control_c, 0, 64, 68
2, 234213, Control_c, 0, 64, 68
2, 234231, Control_c, 0, 64, 69
2, 234251, Control_c, 0, 64, 69
2, 234347, Control_c, 0, 64, 70
2, 234366, Control_c, 0, 64, 70
2, 234386, Control_c, 0, 64, 65
2, 234398, Note_on_c, 0, 71, 76
2, 234398, Note_on_c, 0, 75, 0
2, 234405, Control_c, 0, 64, 42
2, 234406, Note_on_c, 0, 63, 69
2, 234414, Note_on_c, 0, 44, 60
2, 234425, Control_c, 0, 64, 0
2, 234425, Note_on_c, 0, 69, 0
2, 234439, Note_on_c, 0, 39, 0
2, 234520, Control_c, 0, 64, 46
2, 234540, Control_c, 0, 64, 60
2, 234559, Control_c, 0, 64, 62
2, 234578, Control_c, 0, 64, 63
2, 234597, Control_c, 0, 64, 65
2, 234605, Note_on_c, 0, 71, 0
2, 234617, Control_c, 0, 64, 66
2, 234636, Control_c, 0, 64, 67
2, 234652, Note_on_c, 0, 42, 53
2, 234655, Control_c, 0, 64, 69
2, 234655, Note_on_c, 0, 44, 0
2, 234674, Control_c, 0, 64, 70
2, 234679, Note_on_c, 0, 63, 0
2, 234694, Control_c, 0, 64, 70
2, 234830, Control_c, 0, 64, 71
2, 234848, Control_c, 0, 64, 73
2, 234868, Control_c, 0, 64, 74
2, 234887, Control_c, 0, 64, 70
2, 234901, Note_on_c, 0, 73, 75
2, 234907, Control_c, 0, 64, 63
2, 234915, Note_on_c, 0, 64, 60
2, 234918, Note_on_c, 0, 68, 57
2, 234921, Note_on_c, 0, 40, 47
2, 234925, Control_c, 0, 64, 36
2, 234939, Note_on_c, 0, 42, 0
2, 234945, Control_c, 0, 64, 0
2, 234983, Control_c, 0, 64, 34
2, 234990, Note_on_c, 0, 68, 0
2, 235002, Control_c, 0, 64, 59
2, 235022, Control_c, 0, 64, 64
2, 235041, Control_c, 0, 64, 65
2, 235060, Control_c, 0, 64, 66
2, 235079, Control_c, 0, 64, 66
2, 235099, Control_c, 0, 64, 67
2, 235106, Note_on_c, 0, 64, 0
2, 235117, Control_c, 0, 64, 68
2, 235134, Note_on_c, 0, 42, 47
2, 235137, Control_c, 0, 64, 69
2, 235147, Note_on_c, 0, 69, 81
2, 235147, Note_on_c, 0, 73, 0
2, 235148, Note_on_c, 0, 75, 78
2, 235156, Control_c, 0, 64, 70
2, 235176, Control_c, 0, 64, 71
2, 235182, Note_on_c, 0, 40, 0
2, 235310, Control_c, 0, 64, 71
2, 235326, Control_c, 0, 64, 72
2, 235345, Control_c, 0, 64, 74
2, 235347, Note_on_c, 0, 69, 0
2, 235355, Note_on_c, 0, 75, 0
2, 235364, Control_c, 0, 64, 74
2, 235387, Control_c, 0, 64, 67
2, 235405, Control_c, 0, 64, 52
2, 235411, Note_on_c, 0, 44, 48
2, 235418, Note_on_c, 0, 42, 0
2, 235425, Control_c, 0, 64, 0
2, 235425, Note_on_c, 0, 76, 79
2, 235430, Note_on_c, 0, 71, 80
2, 235482, Control_c, 0, 64, 49
2, 235502, Control_c, 0, 64, 63
2, 235521, Control_c, 0, 64, 67
2, 235539, Control_c, 0, 64, 70
2, 235550, Note_on_c, 0, 76, 0
2, 235559, Control_c, 0, 64, 74
2, 235578, Control_c, 0, 64, 77
2, 235579, Note_on_c, 0, 71, 0
2, 235598, Control_c, 0, 64, 79
2, 235616, Control_c, 0, 64, 80
2, 235652, Note_on_c, 0, 44, 0
2, 235667, Note_on_c, 0, 42, 47
2, 235751, Control_c, 0, 64, 79
2, 235809, Control_c, 0, 64, 78
2, 235828, Control_c, 0, 64, 77
2, 235847, Control_c, 0, 64, 77
2, 235867, Control_c, 0, 64, 76
2, 235885, Control_c, 0, 64, 75
2, 235944, Control_c, 0, 64, 72
2, 235945, Note_on_c, 0, 44, 53
2, 235954, Note_on_c, 0, 69, 79
2, 235962, Control_c, 0, 64, 63
2, 235967, Note_on_c, 0, 61, 50
2, 235973, Note_on_c, 0, 66, 56
2, 235982, Control_c, 0, 64, 0
2, 235990, Note_on_c, 0, 42, 0
2, 236116, Control_c, 0, 64, 45
2, 236135, Control_c, 0, 64, 61
2, 236154, Control_c, 0, 64, 65
2, 236173, Control_c, 0, 64, 68
2, 236193, Control_c, 0, 64, 74
2, 236212, Control_c, 0, 64, 86
2, 236216, Note_on_c, 0, 45, 62
2, 236220, Note_on_c, 0, 44, 0
2, 236230, Note_on_c, 0, 66, 0
2, 236231, Control_c, 0, 64, 106
2, 236250, Control_c, 0, 64, 127
2, 236271, Note_on_c, 0, 45, 0
2, 236538, Control_c, 0, 64, 113
2, 236558, Control_c, 0, 64, 103
2, 236576, Control_c, 0, 64, 93
2, 236596, Control_c, 0, 64, 79
2, 236601, Note_on_c, 0, 68, 76
2, 236613, Note_on_c, 0, 59, 52
2, 236615, Control_c, 0, 64, 66
2, 236615, Note_on_c, 0, 47, 45
2, 236634, Control_c, 0, 64, 45
2, 236653, Control_c, 0, 64, 0
2, 236676, Note_on_c, 0, 61, 0
2, 236681, Note_on_c, 0, 69, 0
2, 236919, Note_on_c, 0, 63, 40
2, 237153, Control_c, 0, 64, 17
2, 237172, Control_c, 0, 64, 24
2, 237191, Control_c, 0, 64, 27
2, 237205, Note_on_c, 0, 64, 43
2, 237210, Control_c, 0, 64, 29
2, 237230, Control_c, 0, 64, 31
2, 237231, Note_on_c, 0, 63, 0
2, 237249, Control_c, 0, 64, 34
2, 237268, Control_c, 0, 64, 37
2, 237287, Control_c, 0, 64, 39
2, 237307, Control_c, 0, 64, 39
2, 237325, Control_c, 0, 64, 40
2, 237345, Control_c, 0, 64, 42
2, 237364, Control_c, 0, 64, 44
2, 237384, Control_c, 0, 64, 45
2, 237402, Control_c, 0, 64, 45
2, 237441, Control_c, 0, 64, 46
2, 237453, Note_on_c, 0, 69, 67
2, 237479, Control_c, 0, 64, 46
2, 237494, Note_on_c, 0, 68, 0
2, 237556, Control_c, 0, 64, 47
2, 237594, Control_c, 0, 64, 48
2, 237613, Control_c, 0, 64, 48
2, 237690, Control_c, 0, 64, 49
2, 237717, Note_on_c, 0, 64, 0
2, 237729, Control_c, 0, 64, 49
2, 237729, Note_on_c, 0, 66, 60
2, 237749, Control_c, 0, 64, 50
2, 237768, Control_c, 0, 64, 51
2, 237826, Control_c, 0, 64, 51
2, 237835, Note_on_c, 0, 69, 0
2, 237865, Control_c, 0, 64, 52
2, 237922, Control_c, 0, 64, 52
2, 237960, Control_c, 0, 64, 53
2, 237979, Control_c, 0, 64, 54
2, 237999, Control_c, 0, 64, 55
2, 238002, Note_on_c, 0, 61, 43
2, 238017, Control_c, 0, 64, 56
2, 238037, Control_c, 0, 64, 57
2, 238056, Control_c, 0, 64, 59
2, 238075, Control_c, 0, 64, 60
2, 238094, Control_c, 0, 64, 61
2, 238114, Control_c, 0, 64, 63
2, 238122, Note_on_c, 0, 47, 0
2, 238133, Control_c, 0, 64, 64
2, 238152, Control_c, 0, 64, 65
2, 238171, Control_c, 0, 64, 66
2, 238191, Control_c, 0, 64, 66
2, 238209, Control_c, 0, 64, 67
2, 238228, Control_c, 0, 64, 68
2, 238247, Control_c, 0, 64, 70
2, 238267, Control_c, 0, 64, 71
2, 238285, Control_c, 0, 64, 72
2, 238305, Control_c, 0, 64, 73
2, 238307, Note_on_c, 0, 61, 0
2, 238324, Control_c, 0, 64, 73
2, 238326, Note_on_c, 0, 63, 46
2, 238344, Control_c, 0, 64, 75
2, 238362, Control_c, 0, 64, 77
2, 238382, Control_c, 0, 64, 78
2, 238401, Control_c, 0, 64, 80
2, 238419, Control_c, 0, 64, 82
2, 238439, Control_c, 0, 64, 85
2, 238458, Control_c, 0, 64, 87
2, 238478, Control_c, 0, 64, 88
2, 238496, Control_c, 0, 64, 88
2, 238516, Control_c, 0, 64, 89
2, 238535, Control_c, 0, 64, 89
2, 238552, Note_on_c, 0, 63, 0
2, 238573, Control_c, 0, 64, 90
2, 238587, Note_on_c, 0, 66, 0
2, 238620, Note_on_c, 0, 57, 42
2, 238631, Control_c, 0, 67, 10
2, 238650, Control_c, 0, 67, 22
2, 238670, Control_c, 0, 67, 35
2, 238689, Control_c, 0, 67, 48
2, 238691, Note_on_c, 0, 59, 0
2, 238708, Control_c, 0, 67, 63
2, 238727, Control_c, 0, 67, 81
2, 238747, Control_c, 0, 67, 103
2, 238765, Control_c, 0, 67, 127
2, 238976, Control_c, 0, 64, 89
2, 238996, Control_c, 0, 64, 88
2, 239015, Control_c, 0, 64, 88
2, 239034, Control_c, 0, 64, 87
2, 239053, Control_c, 0, 64, 86
2, 239073, Control_c, 0, 64, 86
2, 239092, Control_c, 0, 64, 84
2, 239111, Control_c, 0, 64, 80
2, 239117, Note_on_c, 0, 64, 55
2, 239130, Control_c, 0, 64, 72
2, 239134, Note_on_c, 0, 56, 37
2, 239150, Control_c, 0, 64, 64
2, 239153, Note_on_c, 0, 52, 31
2, 239169, Control_c, 0, 64, 47
2, 239189, Control_c, 0, 64, 0
2, 239238, Note_on_c, 0, 57, 0
2, 239475, Note_on_c, 0, 71, 53
2, 239649, Control_c, 0, 64, 9
2, 239669, Control_c, 0, 64, 18
2, 239688, Control_c, 0, 64, 29
2, 239708, Control_c, 0, 64, 39
2, 239726, Control_c, 0, 64, 48
2, 239728, Note_on_c, 0, 71, 0
2, 239746, Control_c, 0, 64, 54
2, 239747, Note_on_c, 0, 76, 54
2, 239765, Control_c, 0, 64, 58
2, 239785, Control_c, 0, 64, 60
2, 239803, Control_c, 0, 64, 63
2, 239823, Control_c, 0, 64, 64
2, 239842, Control_c, 0, 64, 65
2, 239842, Control_c, 0, 67, 115
2, 239844, Note_on_c, 0, 64, 0
2, 239860, Control_c, 0, 64, 66
2, 239860, Control_c, 0, 67, 96
2, 239880, Control_c, 0, 64, 68
2, 239880, Control_c, 0, 67, 76
2, 239899, Control_c, 0, 64, 70
2, 239899, Control_c, 0, 67, 53
2, 239919, Control_c, 0, 64, 73
2, 239919, Control_c, 0, 67, 30
2, 239937, Control_c, 0, 64, 76
2, 239937, Control_c, 0, 67, 12
2, 239957, Control_c, 0, 64, 77
2, 239957, Control_c, 0, 67, 0
2, 239995, Control_c, 0, 64, 78
2, 240053, Control_c, 0, 64, 78
2, 240225, Control_c, 0, 64, 79
2, 240260, Note_on_c, 0, 59, 47
2, 240279, Note_on_c, 0, 52, 0
2, 240282, Control_c, 0, 64, 79
2, 240352, Note_on_c, 0, 56, 0
2, 240444, Note_on_c, 0, 76, 0
2, 240506, Note_on_c, 0, 73, 55
2, 240613, Note_on_c, 0, 59, 0
2, 240725, Control_c, 0, 64, 79
2, 240745, Note_on_c, 0, 73, 0
2, 240765, Note_on_c, 0, 83, 59
2, 240771, Note_on_c, 0, 75, 49
2, 240802, Control_c, 0, 64, 78
2, 240879, Control_c, 0, 64, 78
2, 240985, Note_on_c, 0, 83, 0
2, 241007, Note_on_c, 0, 81, 69
2, 241013, Control_c, 0, 64, 77
2, 241109, Control_c, 0, 64, 77
2, 241148, Control_c, 0, 64, 76
2, 241166, Control_c, 0, 64, 76
2, 241186, Control_c, 0, 64, 75
2, 241205, Control_c, 0, 64, 74
2, 241247, Note_on_c, 0, 81, 0
2, 241263, Control_c, 0, 64, 73
2, 241263, Note_on_c, 0, 80, 68
2, 241273, Note_on_c, 0, 64, 58
2, 241282, Control_c, 0, 64, 70
2, 241300, Control_c, 0, 64, 65
2, 241320, Control_c, 0, 64, 61
2, 241339, Control_c, 0, 64, 56
2, 241359, Control_c, 0, 64, 52
2, 241369, Note_on_c, 0, 75, 0
2, 241377, Control_c, 0, 64, 45
2, 241397, Control_c, 0, 64, 34
2, 241416, Control_c, 0, 64, 27
2, 241512, Note_on_c, 0, 81, 68
2, 241551, Control_c, 0, 64, 28
2, 241558, Note_on_c, 0, 80, 0
2, 241569, Control_c, 0, 64, 29
2, 241589, Control_c, 0, 64, 30
2, 241608, Control_c, 0, 64, 32
2, 241628, Control_c, 0, 64, 34
2, 241646, Control_c, 0, 64, 36
2, 241666, Control_c, 0, 64, 37
2, 241685, Control_c, 0, 64, 41
2, 241705, Control_c, 0, 64, 46
2, 241723, Control_c, 0, 64, 51
2, 241743, Control_c, 0, 64, 55
2, 241747, Note_on_c, 0, 68, 50
2, 241755, Note_on_c, 0, 83, 68
2, 241762, Control_c, 0, 64, 56
2, 241780, Control_c, 0, 64, 58
2, 241800, Control_c, 0, 64, 60
2, 241819, Control_c, 0, 64, 61
2, 241839, Control_c, 0, 64, 62
2, 241857, Control_c, 0, 64, 63
2, 241877, Control_c, 0, 64, 64
2, 241896, Control_c, 0, 64, 64
2, 241915, Control_c, 0, 64, 65
2, 241915, Note_on_c, 0, 81, 0
2, 241934, Control_c, 0, 64, 66
2, 241954, Control_c, 0, 64, 66
2, 241973, Control_c, 0, 64, 67
2, 241981, Note_on_c, 0, 80, 78
2, 241992, Control_c, 0, 64, 69
2, 242006, Note_on_c, 0, 83, 0
2, 242011, Control_c, 0, 64, 70
2, 242031, Control_c, 0, 64, 71
2, 242049, Control_c, 0, 64, 71
2, 242125, Control_c, 0, 64, 71
2, 242164, Control_c, 0, 64, 70
2, 242184, Control_c, 0, 64, 70
2, 242221, Control_c, 0, 64, 69
2, 242241, Control_c, 0, 64, 68
2, 242242, Note_on_c, 0, 61, 59
2, 242250, Note_on_c, 0, 76, 64
2, 242259, Control_c, 0, 64, 67
2, 242270, Note_on_c, 0, 80, 0
2, 242279, Control_c, 0, 64, 64
2, 242288, Note_on_c, 0, 68, 0
2, 242298, Control_c, 0, 64, 58
2, 242318, Control_c, 0, 64, 54
2, 242336, Control_c, 0, 64, 52
2, 242356, Control_c, 0, 64, 50
2, 242394, Note_on_c, 0, 64, 0
2, 242413, Control_c, 0, 64, 51
2, 242433, Control_c, 0, 64, 51
2, 242452, Control_c, 0, 64, 52
2, 242507, Note_on_c, 0, 78, 72
2, 242510, Control_c, 0, 64, 53
2, 242527, Note_on_c, 0, 76, 0
2, 242529, Control_c, 0, 64, 54
2, 242625, Control_c, 0, 64, 54
2, 242664, Control_c, 0, 64, 55
2, 242682, Control_c, 0, 64, 55
2, 242701, Control_c, 0, 64, 56
2, 242739, Control_c, 0, 64, 56
2, 242748, Note_on_c, 0, 64, 40
2, 242753, Note_on_c, 0, 80, 68
2, 242759, Control_c, 0, 64, 57
2, 242778, Control_c, 0, 64, 58
2, 242784, Note_on_c, 0, 78, 0
2, 242798, Control_c, 0, 64, 59
2, 242816, Control_c, 0, 64, 60
2, 242836, Control_c, 0, 64, 61
2, 242855, Control_c, 0, 64, 63
2, 242875, Control_c, 0, 64, 63
2, 242893, Control_c, 0, 64, 64
2, 242913, Control_c, 0, 64, 64
2, 242951, Control_c, 0, 64, 65
2, 242999, Note_on_c, 0, 76, 56
2, 243009, Control_c, 0, 64, 65
2, 243024, Note_on_c, 0, 80, 0
2, 243123, Control_c, 0, 64, 65
2, 243200, Control_c, 0, 64, 64
2, 243258, Note_on_c, 0, 58, 51
2, 243266, Note_on_c, 0, 73, 58
2, 243270, Note_on_c, 0, 76, 0
2, 243354, Control_c, 0, 64, 65
2, 243430, Control_c, 0, 64, 65
2, 243449, Control_c, 0, 64, 66
2, 243469, Control_c, 0, 64, 66
2, 243488, Control_c, 0, 64, 67
2, 243526, Control_c, 0, 64, 68
2, 243528, Note_on_c, 0, 75, 65
2, 243540, Note_on_c, 0, 64, 0
2, 243541, Note_on_c, 0, 73, 0
2, 243689, Note_on_c, 0, 61, 0
2, 243737, Control_c, 0, 64, 67
2, 243780, Note_on_c, 0, 73, 69
2, 243784, Note_on_c, 0, 75, 0
2, 243786, Note_on_c, 0, 76, 58
2, 243795, Control_c, 0, 64, 67
2, 243834, Control_c, 0, 64, 66
2, 243910, Control_c, 0, 64, 66
2, 243988, Control_c, 0, 64, 65
2, 244030, Note_on_c, 0, 71, 67
2, 244030, Note_on_c, 0, 73, 0
2, 244104, Control_c, 0, 64, 65
2, 244199, Control_c, 0, 64, 64
2, 244269, Note_on_c, 0, 71, 0
2, 244276, Note_on_c, 0, 70, 62
2, 244284, Note_on_c, 0, 67, 69
2, 244295, Control_c, 0, 64, 64
2, 244333, Control_c, 0, 64, 63
2, 244353, Control_c, 0, 64, 62
2, 244372, Control_c, 0, 64, 61
2, 244391, Control_c, 0, 64, 60
2, 244410, Control_c, 0, 64, 58
2, 244430, Control_c, 0, 64, 58
2, 244468, Control_c, 0, 64, 57
2, 244487, Control_c, 0, 64, 57
2, 244525, Control_c, 0, 64, 57
2, 244525, Note_on_c, 0, 70, 0
2, 244536, Note_on_c, 0, 71, 64
2, 244545, Control_c, 0, 64, 58
2, 244548, Note_on_c, 0, 58, 0
2, 244564, Control_c, 0, 64, 58
2, 244718, Control_c, 0, 64, 58
2, 244756, Control_c, 0, 64, 58
2, 244785, Note_on_c, 0, 75, 56
2, 244788, Note_on_c, 0, 71, 0
2, 244798, Note_on_c, 0, 73, 54
2, 244824, Note_on_c, 0, 76, 0
2, 244852, Control_c, 0, 64, 59
2, 244890, Control_c, 0, 64, 59
2, 244910, Control_c, 0, 64, 60
2, 244929, Control_c, 0, 64, 60
2, 244948, Control_c, 0, 64, 61
2, 244967, Control_c, 0, 64, 61
2, 244987, Control_c, 0, 64, 62
2, 245005, Control_c, 0, 64, 63
2, 245029, Note_on_c, 0, 70, 65
2, 245044, Control_c, 0, 64, 63
2, 245044, Note_on_c, 0, 73, 0
2, 245291, Note_on_c, 0, 68, 54
2, 245297, Note_on_c, 0, 71, 60
2, 245304, Note_on_c, 0, 70, 0
2, 245347, Note_on_c, 0, 67, 0
2, 245390, Control_c, 0, 64, 64
2, 245447, Control_c, 0, 64, 64
2, 245467, Control_c, 0, 64, 65
2, 245509, Note_on_c, 0, 68, 0
2, 245528, Note_on_c, 0, 66, 42
2, 245760, Note_on_c, 0, 80, 75
2, 245773, Note_on_c, 0, 66, 0
2, 245787, Note_on_c, 0, 65, 40
2, 245789, Note_on_c, 0, 75, 0
2, 245831, Control_c, 0, 64, 65
2, 245889, Control_c, 0, 64, 66
2, 245927, Control_c, 0, 64, 66
2, 245944, Note_on_c, 0, 71, 0
2, 246015, Note_on_c, 0, 63, 40
2, 246119, Control_c, 0, 64, 66
2, 246176, Control_c, 0, 64, 65
2, 246259, Note_on_c, 0, 63, 0
2, 246264, Note_on_c, 0, 62, 38
2, 246273, Control_c, 0, 64, 65
2, 246279, Note_on_c, 0, 70, 42
2, 246349, Control_c, 0, 64, 64
2, 246426, Control_c, 0, 64, 64
2, 246444, Note_on_c, 0, 65, 0
2, 246464, Control_c, 0, 64, 63
2, 246513, Note_on_c, 0, 63, 33
2, 246517, Note_on_c, 0, 78, 62
2, 246521, Control_c, 0, 64, 63
2, 246547, Note_on_c, 0, 80, 0
2, 246584, Note_on_c, 0, 62, 0
2, 246598, Control_c, 0, 64, 62
2, 246675, Control_c, 0, 64, 62
2, 246732, Control_c, 0, 64, 61
2, 246780, Note_on_c, 0, 63, 0
2, 246794, Note_on_c, 0, 80, 67
2, 246797, Note_on_c, 0, 65, 32
2, 246809, Control_c, 0, 64, 62
2, 246846, Note_on_c, 0, 78, 0
2, 246848, Control_c, 0, 64, 62
2, 246867, Control_c, 0, 64, 63
2, 246906, Control_c, 0, 64, 64
2, 246924, Control_c, 0, 64, 65
2, 246944, Control_c, 0, 64, 65
2, 246963, Control_c, 0, 64, 66
2, 246982, Control_c, 0, 64, 68
2, 247001, Control_c, 0, 64, 69
2, 247020, Control_c, 0, 64, 72
2, 247028, Note_on_c, 0, 80, 0
2, 247040, Control_c, 0, 64, 75
2, 247044, Note_on_c, 0, 62, 32
2, 247059, Control_c, 0, 64, 78
2, 247078, Control_c, 0, 64, 80
2, 247084, Note_on_c, 0, 65, 0
2, 247097, Control_c, 0, 64, 81
2, 247135, Control_c, 0, 64, 80
2, 247155, Control_c, 0, 64, 80
2, 247174, Control_c, 0, 64, 79
2, 247194, Control_c, 0, 64, 79
2, 247212, Control_c, 0, 64, 78
2, 247251, Control_c, 0, 64, 77
2, 247270, Control_c, 0, 64, 76
2, 247289, Control_c, 0, 64, 75
2, 247310, Control_c, 0, 64, 73
2, 247320, Note_on_c, 0, 78, 60
2, 247321, Note_on_c, 0, 63, 37
2, 247329, Control_c, 0, 64, 70
2, 247348, Control_c, 0, 64, 66
2, 247367, Control_c, 0, 64, 62
2, 247377, Note_on_c, 0, 62, 0
2, 247387, Control_c, 0, 64, 58
2, 247405, Control_c, 0, 64, 56
2, 247425, Control_c, 0, 64, 53
2, 247444, Control_c, 0, 64, 47
2, 247464, Control_c, 0, 64, 42
2, 247482, Control_c, 0, 64, 42
2, 247537, Note_on_c, 0, 70, 0
2, 247575, Note_on_c, 0, 76, 61
2, 247598, Control_c, 0, 64, 43
2, 247616, Control_c, 0, 64, 44
2, 247636, Control_c, 0, 64, 44
2, 247655, Control_c, 0, 64, 45
2, 247675, Control_c, 0, 64, 46
2, 247693, Control_c, 0, 64, 46
2, 247713, Control_c, 0, 64, 47
2, 247732, Control_c, 0, 64, 48
2, 247751, Control_c, 0, 64, 48
2, 247790, Control_c, 0, 64, 49
2, 247821, Note_on_c, 0, 75, 70
2, 247826, Control_c, 0, 64, 50
2, 247845, Control_c, 0, 64, 50
2, 247852, Note_on_c, 0, 76, 0
2, 247884, Control_c, 0, 64, 51
2, 247902, Control_c, 0, 64, 51
2, 247922, Control_c, 0, 64, 52
2, 247941, Control_c, 0, 64, 52
2, 248018, Control_c, 0, 64, 53
2, 248053, Note_on_c, 0, 73, 73
2, 248084, Note_on_c, 0, 75, 0
2, 248307, Note_on_c, 0, 72, 70
2, 248314, Note_on_c, 0, 73, 0
2, 248499, Control_c, 0, 64, 53
2, 248541, Note_on_c, 0, 64, 60
2, 248545, Note_on_c, 0, 73, 68
2, 248561, Note_on_c, 0, 72, 0
2, 248575, Control_c, 0, 64, 54
2, 248594, Note_on_c, 0, 63, 0
2, 248614, Control_c, 0, 64, 54
2, 248634, Control_c, 0, 64, 55
2, 248652, Control_c, 0, 64, 55
2, 248691, Control_c, 0, 64, 56
2, 248710, Control_c, 0, 64, 56
2, 248729, Control_c, 0, 64, 57
2, 248787, Control_c, 0, 64, 57
2, 248787, Note_on_c, 0, 66, 62
2, 248798, Note_on_c, 0, 75, 67
2, 248804, Note_on_c, 0, 73, 0
2, 248869, Note_on_c, 0, 64, 0
2, 248991, Note_on_c, 0, 75, 0
2, 249017, Control_c, 0, 64, 58
2, 249017, Note_on_c, 0, 66, 0
2, 249025, Note_on_c, 0, 63, 58
2, 249025, Note_on_c, 0, 72, 68
2, 249094, Control_c, 0, 64, 58
2, 249132, Control_c, 0, 64, 59
2, 249275, Note_on_c, 0, 68, 70
2, 249279, Note_on_c, 0, 72, 0
2, 249280, Note_on_c, 0, 63, 0
2, 249294, Note_on_c, 0, 64, 56
2, 249452, Note_on_c, 0, 78, 0
2, 249516, Note_on_c, 0, 63, 60
2, 249535, Control_c, 0, 64, 58
2, 249561, Note_on_c, 0, 64, 0
2, 249632, Control_c, 0, 64, 58
2, 249689, Control_c, 0, 64, 57
2, 249728, Control_c, 0, 64, 57
2, 249747, Control_c, 0, 64, 56
2, 249766, Control_c, 0, 64, 56
2, 249774, Note_on_c, 0, 76, 72
2, 249782, Note_on_c, 0, 61, 51
2, 249786, Control_c, 0, 64, 55
2, 249804, Control_c, 0, 64, 55
2, 249824, Control_c, 0, 64, 54
2, 249843, Control_c, 0, 64, 54
2, 249862, Control_c, 0, 64, 53
2, 249881, Control_c, 0, 64, 52
2, 249900, Control_c, 0, 64, 52
2, 249973, Note_on_c, 0, 63, 0
2, 250031, Note_on_c, 0, 59, 48
2, 250054, Control_c, 0, 64, 52
2, 250068, Note_on_c, 0, 61, 0
2, 250131, Control_c, 0, 64, 53
2, 250280, Note_on_c, 0, 67, 55
2, 250286, Note_on_c, 0, 59, 0
2, 250294, Note_on_c, 0, 58, 45
2, 250530, Note_on_c, 0, 58, 0
2, 250542, Note_on_c, 0, 59, 48
2, 250542, Note_on_c, 0, 75, 62
2, 250555, Note_on_c, 0, 76, 0
2, 250572, Control_c, 0, 64, 52
2, 250593, Note_on_c, 0, 68, 0
2, 250779, Note_on_c, 0, 59, 0
2, 250781, Note_on_c, 0, 76, 59
2, 250786, Note_on_c, 0, 75, 0
2, 250787, Note_on_c, 0, 61, 50
2, 250957, Control_c, 0, 64, 53
2, 251012, Note_on_c, 0, 61, 0
2, 251032, Note_on_c, 0, 58, 41
2, 251054, Note_on_c, 0, 73, 48
2, 251317, Note_on_c, 0, 59, 45
2, 251318, Note_on_c, 0, 75, 63
2, 251321, Note_on_c, 0, 58, 0
2, 251322, Note_on_c, 0, 76, 0
2, 251336, Note_on_c, 0, 67, 0
2, 251336, Note_on_c, 0, 73, 0
2, 251494, Control_c, 0, 64, 52
2, 251514, Control_c, 0, 64, 52
2, 251552, Control_c, 0, 64, 51
2, 251558, Note_on_c, 0, 73, 55
2, 251590, Control_c, 0, 64, 51
2, 251629, Control_c, 0, 64, 50
2, 251648, Control_c, 0, 64, 49
2, 251667, Control_c, 0, 64, 49
2, 251686, Control_c, 0, 64, 48
2, 251724, Control_c, 0, 64, 48
2, 251763, Control_c, 0, 64, 47
2, 251782, Control_c, 0, 64, 46
2, 251787, Note_on_c, 0, 73, 0
2, 251793, Note_on_c, 0, 71, 62
2, 251801, Control_c, 0, 64, 46
2, 251935, Control_c, 0, 64, 45
2, 252033, Note_on_c, 0, 70, 69
2, 252037, Note_on_c, 0, 71, 0
2, 252166, Control_c, 0, 64, 46
2, 252204, Control_c, 0, 64, 46
2, 252262, Control_c, 0, 64, 47
2, 252274, Note_on_c, 0, 68, 70
2, 252312, Note_on_c, 0, 70, 0
2, 252358, Control_c, 0, 64, 47
2, 252513, Note_on_c, 0, 61, 57
2, 252518, Note_on_c, 0, 70, 70
2, 252535, Note_on_c, 0, 68, 0
2, 252581, Note_on_c, 0, 59, 0
2, 252763, Note_on_c, 0, 63, 65
2, 252765, Note_on_c, 0, 71, 68
2, 252781, Note_on_c, 0, 61, 0
2, 252789, Note_on_c, 0, 70, 0
2, 252819, Control_c, 0, 64, 48
2, 252878, Control_c, 0, 64, 48
2, 252935, Control_c, 0, 64, 49
2, 252973, Control_c, 0, 64, 49
2, 253001, Note_on_c, 0, 59, 61
2, 253001, Note_on_c, 0, 63, 0
2, 253004, Note_on_c, 0, 68, 70
2, 253012, Control_c, 0, 64, 50
2, 253070, Control_c, 0, 64, 50
2, 253089, Control_c, 0, 64, 51
2, 253127, Control_c, 0, 64, 51
2, 253223, Control_c, 0, 64, 52
2, 253245, Note_on_c, 0, 71, 0
2, 253245, Note_on_c, 0, 75, 0
2, 253271, Note_on_c, 0, 68, 0
2, 253272, Note_on_c, 0, 61, 61
2, 253274, Note_on_c, 0, 65, 57
2, 253280, Note_on_c, 0, 59, 0
2, 253415, Control_c, 0, 64, 52
2, 253529, Note_on_c, 0, 61, 0
2, 253536, Note_on_c, 0, 59, 59
2, 253723, Note_on_c, 0, 65, 0
2, 253752, Note_on_c, 0, 73, 56
2, 253758, Note_on_c, 0, 58, 47
2, 253761, Note_on_c, 0, 67, 46
2, 253764, Note_on_c, 0, 59, 0
2, 254014, Note_on_c, 0, 68, 57
2, 254015, Note_on_c, 0, 56, 51
2, 254020, Note_on_c, 0, 58, 0
2, 254032, Note_on_c, 0, 67, 0
2, 254143, Control_c, 0, 64, 53
2, 254246, Note_on_c, 0, 56, 0
2, 254267, Note_on_c, 0, 70, 67
2, 254270, Note_on_c, 0, 68, 0
2, 254286, Note_on_c, 0, 55, 44
2, 254400, Note_on_c, 0, 73, 0
2, 254498, Note_on_c, 0, 55, 0
2, 254517, Note_on_c, 0, 56, 51
2, 254525, Note_on_c, 0, 71, 51
2, 254715, Note_on_c, 0, 56, 0
2, 254736, Note_on_c, 0, 71, 0
2, 254755, Note_on_c, 0, 73, 58
2, 254767, Note_on_c, 0, 58, 37
2, 254814, Note_on_c, 0, 70, 0
2, 254971, Note_on_c, 0, 58, 0
2, 254995, Note_on_c, 0, 70, 49
2, 255002, Note_on_c, 0, 55, 41
2, 255046, Control_c, 0, 64, 53
2, 255103, Control_c, 0, 64, 54
2, 255258, Note_on_c, 0, 73, 0
2, 255267, Note_on_c, 0, 55, 0
2, 255276, Note_on_c, 0, 71, 58
2, 255278, Note_on_c, 0, 56, 54
2, 255289, Note_on_c, 0, 70, 0
2, 255354, Control_c, 0, 64, 54
2, 255520, Note_on_c, 0, 67, 47
2, 255698, Note_on_c, 0, 67, 0
2, 255776, Note_on_c, 0, 68, 59
2, 255808, Note_on_c, 0, 71, 0
2, 255891, Note_on_c, 0, 54, 47
2, 255947, Note_on_c, 0, 56, 0
2, 255986, Note_on_c, 0, 54, 0
2, 255996, Note_on_c, 0, 71, 64
2, 255999, Note_on_c, 0, 52, 51
2, 256089, Note_on_c, 0, 52, 0
2, 256103, Control_c, 0, 64, 54
2, 256120, Note_on_c, 0, 51, 54
2, 256203, Note_on_c, 0, 51, 0
2, 256247, Note_on_c, 0, 49, 51
2, 256255, Note_on_c, 0, 76, 78
2, 256256, Note_on_c, 0, 71, 0
2, 256262, Note_on_c, 0, 68, 0
2, 256491, Note_on_c, 0, 49, 0
2, 256506, Note_on_c, 0, 68, 67
2, 256507, Note_on_c, 0, 59, 64
2, 256627, Note_on_c, 0, 68, 0
2, 256748, Note_on_c, 0, 58, 65
2, 256749, Note_on_c, 0, 59, 0
2, 256754, Note_on_c, 0, 73, 74
2, 256798, Note_on_c, 0, 76, 0
2, 256962, Note_on_c, 0, 58, 0
2, 256989, Note_on_c, 0, 76, 76
2, 256990, Note_on_c, 0, 54, 43
2, 257057, Note_on_c, 0, 73, 0
2, 257241, Note_on_c, 0, 54, 0
2, 257253, Note_on_c, 0, 75, 79
2, 257263, Note_on_c, 0, 59, 53
2, 257269, Note_on_c, 0, 76, 0
2, 257429, Control_c, 0, 64, 54
2, 257448, Control_c, 0, 64, 55
2, 257468, Control_c, 0, 64, 56
2, 257486, Control_c, 0, 64, 57
2, 257493, Note_on_c, 0, 70, 61
2, 257506, Control_c, 0, 64, 58
2, 257525, Control_c, 0, 64, 59
2, 257544, Control_c, 0, 64, 61
2, 257563, Control_c, 0, 64, 62
2, 257582, Control_c, 0, 64, 63
2, 257602, Control_c, 0, 64, 64
2, 257685, Note_on_c, 0, 70, 0
2, 257697, Control_c, 0, 64, 63
2, 257717, Control_c, 0, 64, 63
2, 257733, Note_on_c, 0, 71, 65
2, 257736, Note_on_c, 0, 75, 0
2, 257774, Control_c, 0, 64, 62
2, 257794, Control_c, 0, 64, 62
2, 257832, Control_c, 0, 64, 61
2, 257840, Note_on_c, 0, 58, 47
2, 257844, Note_on_c, 0, 59, 0
2, 257871, Control_c, 0, 64, 61
2, 257889, Control_c, 0, 64, 60
2, 257909, Control_c, 0, 64, 60
2, 257921, Note_on_c, 0, 58, 0
2, 257928, Control_c, 0, 64, 59
2, 257931, Note_on_c, 0, 56, 57
2, 257960, Note_on_c, 0, 75, 83
2, 257966, Control_c, 0, 64, 58
2, 257986, Control_c, 0, 64, 57
2, 258005, Control_c, 0, 64, 56
2, 258009, Note_on_c, 0, 56, 0
2, 258038, Note_on_c, 0, 54, 54
2, 258043, Control_c, 0, 64, 55
2, 258082, Control_c, 0, 64, 55
2, 258126, Note_on_c, 0, 71, 0
2, 258159, Control_c, 0, 64, 54
2, 258174, Note_on_c, 0, 54, 0
2, 258197, Control_c, 0, 64, 54
2, 258202, Note_on_c, 0, 52, 49
2, 258211, Note_on_c, 0, 80, 87
2, 258235, Control_c, 0, 64, 53
2, 258238, Note_on_c, 0, 75, 0
2, 258254, Control_c, 0, 64, 53
2, 258312, Control_c, 0, 64, 53
2, 258331, Control_c, 0, 64, 54
2, 258387, Control_c, 0, 64, 54
2, 258406, Control_c, 0, 64, 55
2, 258445, Note_on_c, 0, 52, 0
2, 258461, Note_on_c, 0, 71, 65
2, 258463, Note_on_c, 0, 63, 72
2, 258483, Control_c, 0, 64, 55
2, 258502, Control_c, 0, 64, 56
2, 258700, Note_on_c, 0, 76, 76
2, 258707, Note_on_c, 0, 71, 0
2, 258710, Note_on_c, 0, 61, 67
2, 258729, Note_on_c, 0, 63, 0
2, 258732, Control_c, 0, 64, 55
2, 258752, Note_on_c, 0, 80, 0
2, 258771, Control_c, 0, 64, 55
2, 258867, Control_c, 0, 64, 54
2, 258936, Note_on_c, 0, 61, 0
2, 258938, Note_on_c, 0, 58, 59
2, 258947, Note_on_c, 0, 80, 85
2, 258982, Control_c, 0, 64, 54
2, 259059, Control_c, 0, 64, 54
2, 259174, Control_c, 0, 64, 54
2, 259208, Note_on_c, 0, 76, 0
2, 259209, Note_on_c, 0, 78, 83
2, 259220, Note_on_c, 0, 63, 61
2, 259239, Note_on_c, 0, 80, 0
2, 259259, Note_on_c, 0, 58, 0
2, 259328, Control_c, 0, 64, 54
2, 259366, Control_c, 0, 64, 55
2, 259386, Control_c, 0, 64, 56
2, 259405, Control_c, 0, 64, 57
2, 259423, Control_c, 0, 64, 58
2, 259443, Control_c, 0, 64, 58
2, 259454, Note_on_c, 0, 73, 65
2, 259462, Control_c, 0, 64, 59
2, 259481, Control_c, 0, 64, 60
2, 259500, Control_c, 0, 64, 62
2, 259520, Control_c, 0, 64, 63
2, 259539, Control_c, 0, 64, 63
2, 259669, Note_on_c, 0, 78, 0
2, 259697, Note_on_c, 0, 75, 73
2, 259731, Note_on_c, 0, 73, 0
2, 259750, Control_c, 0, 64, 63
2, 259787, Note_on_c, 0, 61, 55
2, 259789, Control_c, 0, 64, 62
2, 259799, Note_on_c, 0, 63, 0
2, 259827, Control_c, 0, 64, 62
2, 259846, Control_c, 0, 64, 61
2, 259875, Note_on_c, 0, 61, 0
2, 259885, Control_c, 0, 64, 60
2, 259889, Note_on_c, 0, 59, 59
2, 259903, Control_c, 0, 64, 58
2, 259923, Control_c, 0, 64, 57
2, 259926, Note_on_c, 0, 78, 82
2, 259942, Control_c, 0, 64, 55
2, 259961, Control_c, 0, 64, 54
2, 259980, Control_c, 0, 64, 53
2, 259995, Note_on_c, 0, 59, 0
2, 260018, Note_on_c, 0, 58, 55
2, 260057, Control_c, 0, 64, 54
2, 260077, Control_c, 0, 64, 54
2, 260158, Note_on_c, 0, 58, 0
2, 260176, Note_on_c, 0, 56, 61
2, 260177, Note_on_c, 0, 83, 85
2, 260184, Note_on_c, 0, 78, 0
2, 260211, Control_c, 0, 64, 55
2, 260221, Note_on_c, 0, 75, 0
2, 260230, Control_c, 0, 64, 55
2, 260249, Control_c, 0, 64, 56
2, 260269, Control_c, 0, 64, 56
2, 260288, Control_c, 0, 64, 57
2, 260383, Control_c, 0, 64, 58
2, 260386, Note_on_c, 0, 56, 0
2, 260403, Control_c, 0, 64, 59
2, 260415, Note_on_c, 0, 75, 68
2, 260416, Note_on_c, 0, 66, 56
2, 260441, Control_c, 0, 64, 60
2, 260460, Control_c, 0, 64, 61
2, 260480, Control_c, 0, 64, 62
2, 260537, Control_c, 0, 64, 62
2, 260575, Control_c, 0, 64, 63
2, 260634, Control_c, 0, 64, 63
2, 260652, Control_c, 0, 64, 64
2, 260667, Note_on_c, 0, 83, 0
2, 260669, Note_on_c, 0, 65, 46
2, 260670, Note_on_c, 0, 80, 72
2, 260675, Note_on_c, 0, 66, 0
2, 260691, Control_c, 0, 64, 64
2, 260898, Note_on_c, 0, 65, 0
2, 260902, Note_on_c, 0, 75, 0
2, 260903, Control_c, 0, 64, 64
2, 260904, Note_on_c, 0, 80, 0
2, 260907, Note_on_c, 0, 83, 75
2, 260915, Note_on_c, 0, 61, 44
2, 260979, Control_c, 0, 64, 63
2, 261115, Control_c, 0, 64, 63
2, 261133, Control_c, 0, 64, 61
2, 261153, Control_c, 0, 64, 57
2, 261172, Control_c, 0, 64, 52
2, 261172, Note_on_c, 0, 82, 83
2, 261175, Note_on_c, 0, 66, 48
2, 261186, Note_on_c, 0, 83, 0
2, 261190, Note_on_c, 0, 61, 0
2, 261191, Control_c, 0, 64, 50
2, 261286, Control_c, 0, 64, 50
2, 261306, Control_c, 0, 64, 53
2, 261325, Control_c, 0, 64, 57
2, 261343, Control_c, 0, 64, 58
2, 261382, Control_c, 0, 64, 58
2, 261401, Control_c, 0, 64, 59
2, 261417, Note_on_c, 0, 68, 61
2, 261419, Note_on_c, 0, 77, 65
2, 261420, Control_c, 0, 64, 61
2, 261446, Note_on_c, 0, 66, 0
2, 261459, Control_c, 0, 64, 61
2, 261497, Control_c, 0, 64, 62
2, 261517, Control_c, 0, 64, 62
2, 261574, Control_c, 0, 64, 63
2, 261601, Note_on_c, 0, 77, 0
2, 261612, Control_c, 0, 64, 63
2, 261632, Control_c, 0, 64, 64
2, 261652, Note_on_c, 0, 78, 67
2, 261655, Note_on_c, 0, 68, 0
2, 261673, Note_on_c, 0, 70, 75
2, 261689, Control_c, 0, 64, 65
2, 261708, Control_c, 0, 64, 65
2, 261727, Control_c, 0, 64, 66
2, 261804, Control_c, 0, 64, 66
2, 261822, Control_c, 0, 64, 67
2, 261880, Control_c, 0, 64, 67
2, 261893, Note_on_c, 0, 70, 0
2, 261893, Note_on_c, 0, 73, 78
2, 261896, Note_on_c, 0, 66, 60
2, 261927, Note_on_c, 0, 78, 0
2, 261952, Note_on_c, 0, 82, 0
2, 262014, Control_c, 0, 64, 67
2, 262111, Control_c, 0, 64, 64
2, 262123, Note_on_c, 0, 81, 74
2, 262125, Note_on_c, 0, 63, 55
2, 262127, Note_on_c, 0, 73, 0
2, 262130, Control_c, 0, 64, 59
2, 262142, Note_on_c, 0, 78, 61
2, 262148, Note_on_c, 0, 66, 0
2, 262150, Control_c, 0, 64, 50
2, 262168, Control_c, 0, 64, 42
2, 262188, Control_c, 0, 64, 37
2, 262190, Note_on_c, 0, 78, 0
2, 262207, Control_c, 0, 64, 33
2, 262226, Control_c, 0, 64, 30
2, 262245, Control_c, 0, 64, 29
2, 262261, Note_on_c, 0, 80, 65
2, 262344, Note_on_c, 0, 63, 0
2, 262362, Note_on_c, 0, 64, 47
2, 262372, Note_on_c, 0, 78, 68
2, 262418, Control_c, 0, 64, 30
2, 262435, Note_on_c, 0, 80, 0
2, 262456, Control_c, 0, 64, 31
2, 262464, Note_on_c, 0, 78, 0
2, 262472, Note_on_c, 0, 76, 65
2, 262476, Control_c, 0, 64, 31
2, 262494, Control_c, 0, 64, 33
2, 262514, Control_c, 0, 64, 35
2, 262533, Control_c, 0, 64, 36
2, 262553, Control_c, 0, 64, 36
2, 262570, Note_on_c, 0, 64, 0
2, 262588, Note_on_c, 0, 76, 0
2, 262591, Control_c, 0, 64, 37
2, 262600, Note_on_c, 0, 66, 43
2, 262606, Note_on_c, 0, 75, 64
2, 262630, Control_c, 0, 64, 37
2, 262648, Control_c, 0, 64, 38
2, 262669, Control_c, 0, 64, 39
2, 262688, Control_c, 0, 64, 40
2, 262726, Control_c, 0, 64, 40
2, 262745, Control_c, 0, 64, 41
2, 262783, Control_c, 0, 64, 41
2, 262803, Control_c, 0, 64, 42
2, 262842, Note_on_c, 0, 63, 45
2, 262846, Note_on_c, 0, 78, 62
2, 262860, Control_c, 0, 64, 43
2, 262885, Note_on_c, 0, 66, 0
2, 262899, Control_c, 0, 64, 44
2, 262918, Control_c, 0, 64, 45
2, 262937, Control_c, 0, 64, 46
2, 262957, Control_c, 0, 64, 47
2, 262975, Control_c, 0, 64, 47
2, 263101, Note_on_c, 0, 80, 66
2, 263126, Note_on_c, 0, 60, 36
2, 263128, Note_on_c, 0, 81, 0
2, 263129, Control_c, 0, 64, 48
2, 263155, Note_on_c, 0, 78, 0
2, 263252, Note_on_c, 0, 63, 0
2, 263320, Control_c, 0, 64, 48
2, 263333, Note_on_c, 0, 75, 0
2, 263349, Note_on_c, 0, 76, 61
2, 263365, Note_on_c, 0, 61, 41
2, 263410, Note_on_c, 0, 60, 0
2, 263578, Note_on_c, 0, 61, 0
2, 263584, Note_on_c, 0, 78, 62
2, 263604, Note_on_c, 0, 63, 39
2, 263604, Note_on_c, 0, 76, 0
2, 263704, Control_c, 0, 64, 49
2, 263788, Note_on_c, 0, 63, 0
2, 263817, Note_on_c, 0, 78, 0
2, 263823, Note_on_c, 0, 75, 59
2, 263845, Note_on_c, 0, 60, 38
2, 264059, Note_on_c, 0, 75, 0
2, 264078, Note_on_c, 0, 61, 40
2, 264082, Note_on_c, 0, 76, 56
2, 264120, Note_on_c, 0, 60, 0
2, 264310, Note_on_c, 0, 76, 0
2, 264321, Note_on_c, 0, 72, 56
2, 264322, Note_on_c, 0, 63, 45
2, 264333, Note_on_c, 0, 61, 0
2, 264550, Control_c, 0, 64, 48
2, 264579, Note_on_c, 0, 63, 0
2, 264584, Note_on_c, 0, 64, 47
2, 264594, Note_on_c, 0, 73, 55
2, 264631, Note_on_c, 0, 72, 0
2, 264850, Note_on_c, 0, 76, 59
2, 264874, Note_on_c, 0, 73, 0
2, 264876, Control_c, 0, 64, 49
2, 264894, Control_c, 0, 64, 52
2, 264914, Control_c, 0, 64, 56
2, 264933, Control_c, 0, 64, 58
2, 264953, Control_c, 0, 64, 59
2, 264971, Control_c, 0, 64, 59
2, 264991, Control_c, 0, 64, 61
2, 265010, Control_c, 0, 64, 62
2, 265030, Control_c, 0, 64, 63
2, 265048, Control_c, 0, 64, 64
2, 265068, Control_c, 0, 64, 65
2, 265087, Control_c, 0, 64, 65
2, 265104, Note_on_c, 0, 64, 0
2, 265105, Control_c, 0, 64, 66
2, 265119, Note_on_c, 0, 70, 59
2, 265125, Control_c, 0, 64, 67
2, 265144, Control_c, 0, 64, 69
2, 265153, Note_on_c, 0, 76, 0
2, 265164, Control_c, 0, 64, 70
2, 265182, Control_c, 0, 64, 71
2, 265202, Control_c, 0, 64, 72
2, 265219, Note_on_c, 0, 80, 0
2, 265298, Control_c, 0, 64, 71
2, 265336, Control_c, 0, 64, 71
2, 265356, Control_c, 0, 64, 70
2, 265374, Control_c, 0, 64, 69
2, 265394, Control_c, 0, 64, 68
2, 265397, Note_on_c, 0, 80, 67
2, 265411, Note_on_c, 0, 64, 40
2, 265413, Control_c, 0, 64, 67
2, 265433, Control_c, 0, 64, 66
2, 265451, Control_c, 0, 64, 65
2, 265471, Control_c, 0, 64, 64
2, 265490, Control_c, 0, 64, 64
2, 265548, Control_c, 0, 64, 63
2, 265567, Control_c, 0, 64, 63
2, 265585, Control_c, 0, 64, 62
2, 265641, Note_on_c, 0, 78, 77
2, 265644, Note_on_c, 0, 63, 44
2, 265681, Control_c, 0, 64, 63
2, 265738, Control_c, 0, 64, 63
2, 265758, Control_c, 0, 64, 64
2, 265815, Control_c, 0, 64, 64
2, 265849, Note_on_c, 0, 64, 0
2, 265853, Control_c, 0, 64, 65
2, 265862, Note_on_c, 0, 63, 0
2, 265875, Note_on_c, 0, 61, 50
2, 265875, Note_on_c, 0, 76, 72
2, 265933, Note_on_c, 0, 80, 0
2, 265949, Note_on_c, 0, 78, 0
2, 265977, Note_on_c, 0, 70, 0
2, 266103, Control_c, 0, 64, 64
2, 266127, Note_on_c, 0, 61, 0
2, 266136, Note_on_c, 0, 71, 64
2, 266136, Note_on_c, 0, 76, 0
2, 266140, Note_on_c, 0, 75, 70
2, 266143, Note_on_c, 0, 59, 40
2, 266161, Control_c, 0, 64, 64
2, 266276, Control_c, 0, 64, 63
2, 266315, Control_c, 0, 64, 63
2, 266333, Control_c, 0, 64, 62
2, 266353, Control_c, 0, 64, 62
2, 266372, Control_c, 0, 64, 61
2, 266383, Note_on_c, 0, 76, 69
2, 266392, Control_c, 0, 64, 60
2, 266394, Note_on_c, 0, 61, 48
2, 266405, Note_on_c, 0, 75, 0
2, 266410, Control_c, 0, 64, 59
2, 266430, Control_c, 0, 64, 58
2, 266449, Control_c, 0, 64, 58
2, 266481, Note_on_c, 0, 59, 0
2, 266507, Control_c, 0, 64, 58
2, 266544, Control_c, 0, 64, 59
2, 266564, Control_c, 0, 64, 60
2, 266583, Control_c, 0, 64, 61
2, 266603, Control_c, 0, 64, 62
2, 266621, Control_c, 0, 64, 62
2, 266635, Note_on_c, 0, 63, 41
2, 266635, Note_on_c, 0, 78, 69
2, 266641, Control_c, 0, 64, 63
2, 266654, Note_on_c, 0, 76, 0
2, 266660, Control_c, 0, 64, 64
2, 266693, Note_on_c, 0, 61, 0
2, 266698, Control_c, 0, 64, 65
2, 266737, Control_c, 0, 64, 65
2, 266756, Control_c, 0, 64, 66
2, 266775, Control_c, 0, 64, 66
2, 266796, Note_on_c, 0, 63, 0
2, 266873, Note_on_c, 0, 59, 46
2, 266879, Note_on_c, 0, 78, 0
2, 266880, Note_on_c, 0, 75, 64
2, 266890, Control_c, 0, 64, 66
2, 266987, Control_c, 0, 64, 65
2, 267062, Control_c, 0, 64, 65
2, 267138, Note_on_c, 0, 75, 0
2, 267139, Control_c, 0, 64, 64
2, 267141, Note_on_c, 0, 56, 43
2, 267143, Note_on_c, 0, 76, 60
2, 267159, Control_c, 0, 64, 64
2, 267177, Control_c, 0, 64, 63
2, 267197, Control_c, 0, 64, 63
2, 267216, Control_c, 0, 64, 62
2, 267235, Control_c, 0, 64, 62
2, 267272, Note_on_c, 0, 59, 0
2, 267274, Control_c, 0, 64, 61
2, 267293, Control_c, 0, 64, 61
2, 267307, Note_on_c, 0, 71, 0
2, 267312, Control_c, 0, 64, 60
2, 267331, Control_c, 0, 64, 59
2, 267380, Note_on_c, 0, 73, 40
2, 267389, Control_c, 0, 64, 59
2, 267394, Note_on_c, 0, 58, 38
2, 267405, Control_c, 0, 64, 58
2, 267425, Control_c, 0, 64, 57
2, 267443, Control_c, 0, 64, 57
2, 267444, Note_on_c, 0, 56, 0
2, 267467, Control_c, 0, 64, 56
2, 267544, Control_c, 0, 64, 56
2, 267582, Control_c, 0, 64, 55
2, 267601, Control_c, 0, 64, 55
2, 267621, Note_on_c, 0, 58, 0
2, 267648, Note_on_c, 0, 75, 58
2, 267657, Note_on_c, 0, 59, 40
2, 267666, Note_on_c, 0, 73, 0
2, 267736, Control_c, 0, 64, 55
2, 267866, Note_on_c, 0, 75, 0
2, 267906, Note_on_c, 0, 56, 41
2, 267906, Note_on_c, 0, 71, 55
2, 267927, Control_c, 0, 64, 56
2, 267933, Note_on_c, 0, 59, 0
2, 268152, Note_on_c, 0, 73, 53
2, 268155, Note_on_c, 0, 71, 0
2, 268164, Note_on_c, 0, 58, 46
2, 268187, Note_on_c, 0, 56, 0
2, 268330, Control_c, 0, 64, 55
2, 268369, Control_c, 0, 64, 55
2, 268395, Note_on_c, 0, 73, 0
2, 268397, Note_on_c, 0, 58, 0
2, 268401, Note_on_c, 0, 59, 64
2, 268407, Control_c, 0, 64, 54
2, 268408, Note_on_c, 0, 68, 53
2, 268427, Control_c, 0, 64, 52
2, 268446, Control_c, 0, 64, 50
2, 268465, Control_c, 0, 64, 48
2, 268484, Control_c, 0, 64, 45
2, 268504, Control_c, 0, 64, 41
2, 268522, Control_c, 0, 64, 36
2, 268542, Control_c, 0, 64, 31
2, 268561, Control_c, 0, 64, 21
2, 268581, Control_c, 0, 64, 11
2, 268599, Control_c, 0, 64, 0
2, 268658, Note_on_c, 0, 61, 66
2, 268674, Note_on_c, 0, 59, 0
2, 268678, Note_on_c, 0, 70, 55
2, 268693, Note_on_c, 0, 68, 0
2, 268696, Control_c, 0, 64, 13
2, 268715, Control_c, 0, 64, 27
2, 268733, Control_c, 0, 64, 43
2, 268753, Control_c, 0, 64, 56
2, 268772, Control_c, 0, 64, 62
2, 268791, Control_c, 0, 64, 62
2, 268810, Control_c, 0, 64, 63
2, 268830, Control_c, 0, 64, 64
2, 268849, Control_c, 0, 64, 68
2, 268862, Note_on_c, 0, 61, 0
2, 268868, Control_c, 0, 64, 74
2, 268868, Note_on_c, 0, 76, 0
2, 268887, Control_c, 0, 64, 82
2, 268907, Control_c, 0, 64, 88
2, 268914, Note_on_c, 0, 73, 66
2, 268926, Control_c, 0, 64, 89
2, 268945, Control_c, 0, 64, 91
2, 268964, Control_c, 0, 64, 93
2, 268998, Note_on_c, 0, 70, 0
2, 269002, Control_c, 0, 64, 93
2, 269041, Control_c, 0, 64, 93
2, 269061, Control_c, 0, 64, 92
2, 269079, Control_c, 0, 64, 92
2, 269118, Control_c, 0, 64, 93
2, 269137, Control_c, 0, 64, 94
2, 269176, Control_c, 0, 64, 87
2, 269181, Note_on_c, 0, 47, 64
2, 269195, Control_c, 0, 64, 73
2, 269195, Note_on_c, 0, 73, 0
2, 269196, Note_on_c, 0, 75, 67
2, 269213, Control_c, 0, 64, 58
2, 269233, Control_c, 0, 64, 31
2, 269238, Note_on_c, 0, 66, 42
2, 269252, Control_c, 0, 64, 31
2, 269271, Control_c, 0, 64, 37
2, 269290, Control_c, 0, 64, 52
2, 269310, Control_c, 0, 64, 59
2, 269329, Control_c, 0, 64, 61
2, 269348, Control_c, 0, 64, 63
2, 269367, Control_c, 0, 64, 65
2, 269385, Control_c, 0, 64, 69
2, 269404, Control_c, 0, 64, 75
2, 269423, Control_c, 0, 64, 81
2, 269428, Note_on_c, 0, 47, 0
2, 269442, Control_c, 0, 64, 85
2, 269457, Note_on_c, 0, 59, 59
2, 269462, Control_c, 0, 64, 86
2, 269481, Control_c, 0, 64, 86
2, 269500, Control_c, 0, 64, 87
2, 269519, Control_c, 0, 64, 87
2, 269539, Control_c, 0, 64, 88
2, 269557, Control_c, 0, 64, 89
2, 269577, Control_c, 0, 64, 91
2, 269697, Note_on_c, 0, 71, 70
2, 269701, Note_on_c, 0, 58, 63
2, 269725, Note_on_c, 0, 59, 0
2, 269807, Control_c, 0, 64, 92
2, 269826, Control_c, 0, 64, 92
2, 269845, Control_c, 0, 64, 93
2, 269847, Note_on_c, 0, 66, 0
2, 269865, Control_c, 0, 64, 94
2, 269883, Control_c, 0, 64, 95
2, 269902, Control_c, 0, 64, 97
2, 269921, Control_c, 0, 64, 101
2, 269926, Note_on_c, 0, 56, 73
2, 269941, Control_c, 0, 64, 104
2, 269960, Control_c, 0, 64, 106
2, 269979, Control_c, 0, 64, 106
2, 270027, Note_on_c, 0, 58, 0
2, 270132, Control_c, 0, 64, 107
2, 270152, Control_c, 0, 64, 107
2, 270170, Control_c, 0, 64, 101
2, 270181, Note_on_c, 0, 51, 63
2, 270187, Note_on_c, 0, 70, 81
2, 270190, Control_c, 0, 64, 78
2, 270204, Note_on_c, 0, 55, 63
2, 270209, Control_c, 0, 64, 28
2, 270212, Note_on_c, 0, 71, 0
2, 270227, Note_on_c, 0, 56, 0
2, 270229, Control_c, 0, 64, 0
2, 270324, Note_on_c, 0, 75, 0
2, 270438, Note_on_c, 0, 56, 68
2, 270460, Note_on_c, 0, 55, 0
2, 270537, Control_c, 0, 64, 30
2, 270556, Control_c, 0, 64, 59
2, 270575, Control_c, 0, 64, 64
2, 270594, Control_c, 0, 64, 63
2, 270651, Control_c, 0, 64, 64
2, 270671, Control_c, 0, 64, 64
2, 270674, Note_on_c, 0, 56, 0
2, 270686, Note_on_c, 0, 58, 58
2, 270705, Note_on_c, 0, 73, 80
2, 270710, Control_c, 0, 64, 65
2, 270728, Control_c, 0, 64, 65
2, 270748, Control_c, 0, 64, 67
2, 270767, Control_c, 0, 64, 70
2, 270786, Control_c, 0, 64, 76
2, 270805, Control_c, 0, 64, 83
2, 270825, Control_c, 0, 64, 87
2, 270843, Control_c, 0, 64, 90
2, 270863, Control_c, 0, 64, 101
2, 270871, Note_on_c, 0, 51, 0
2, 270882, Control_c, 0, 64, 127
2, 270925, Note_on_c, 0, 55, 59
2, 270935, Note_on_c, 0, 58, 0
2, 270963, Note_on_c, 0, 55, 0
2, 271188, Note_on_c, 0, 56, 77
2, 271190, Control_c, 0, 64, 106
2, 271190, Note_on_c, 0, 71, 78
2, 271208, Control_c, 0, 64, 68
2, 271224, Note_on_c, 0, 70, 0
2, 271225, Note_on_c, 0, 73, 0
2, 271228, Control_c, 0, 64, 0
2, 271448, Note_on_c, 0, 59, 74
2, 271574, Control_c, 0, 64, 56
2, 271594, Control_c, 0, 64, 60
2, 271612, Control_c, 0, 64, 61
2, 271632, Control_c, 0, 64, 65
2, 271651, Control_c, 0, 64, 70
2, 271671, Control_c, 0, 64, 78
2, 271689, Control_c, 0, 64, 87
2, 271700, Note_on_c, 0, 61, 80
2, 271709, Control_c, 0, 64, 92
2, 271717, Note_on_c, 0, 68, 79
2, 271728, Control_c, 0, 64, 96
2, 271747, Control_c, 0, 64, 104
2, 271766, Control_c, 0, 64, 121
2, 271786, Control_c, 0, 64, 127
2, 271888, Note_on_c, 0, 59, 0
2, 271926, Note_on_c, 0, 56, 0
2, 271926, Note_on_c, 0, 68, 0
2, 271946, Note_on_c, 0, 63, 74
2, 271947, Note_on_c, 0, 67, 79
2, 271950, Note_on_c, 0, 61, 0
2, 271980, Note_on_c, 0, 63, 0
2, 272207, Control_c, 0, 64, 94
2, 272213, Note_on_c, 0, 52, 80
2, 272218, Note_on_c, 0, 64, 79
2, 272225, Note_on_c, 0, 67, 0
2, 272226, Control_c, 0, 64, 59
2, 272233, Note_on_c, 0, 68, 80
2, 272245, Control_c, 0, 64, 0
2, 272246, Note_on_c, 0, 71, 0
2, 272325, Control_c, 0, 64, 36
2, 272345, Control_c, 0, 64, 50
2, 272363, Control_c, 0, 64, 54
2, 272383, Control_c, 0, 64, 58
2, 272402, Control_c, 0, 64, 60
2, 272421, Control_c, 0, 64, 61
2, 272440, Control_c, 0, 64, 62
2, 272450, Note_on_c, 0, 68, 0
2, 272460, Control_c, 0, 64, 63
2, 272475, Note_on_c, 0, 71, 76
2, 272479, Control_c, 0, 64, 64
2, 272498, Control_c, 0, 64, 65
2, 272517, Control_c, 0, 64, 65
2, 272537, Control_c, 0, 64, 66
2, 272556, Control_c, 0, 64, 67
2, 272574, Control_c, 0, 64, 70
2, 272594, Control_c, 0, 64, 73
2, 272613, Control_c, 0, 64, 75
2, 272632, Control_c, 0, 64, 77
2, 272651, Control_c, 0, 64, 80
2, 272671, Control_c, 0, 64, 84
2, 272690, Control_c, 0, 64, 89
2, 272709, Control_c, 0, 64, 92
2, 272728, Control_c, 0, 64, 93
2, 272735, Note_on_c, 0, 59, 58
2, 272735, Note_on_c, 0, 76, 84
2, 272748, Control_c, 0, 64, 94
2, 272752, Note_on_c, 0, 71, 0
2, 272766, Control_c, 0, 64, 96
2, 272780, Note_on_c, 0, 64, 0
2, 272786, Control_c, 0, 64, 102
2, 272806, Control_c, 0, 64, 116
2, 272825, Control_c, 0, 64, 127
2, 272855, Note_on_c, 0, 52, 0
2, 272859, Note_on_c, 0, 59, 0
2, 272986, Note_on_c, 0, 78, 84
2, 272991, Note_on_c, 0, 71, 82
2, 272993, Note_on_c, 0, 76, 0
2, 273222, Note_on_c, 0, 78, 0
2, 273273, Note_on_c, 0, 49, 80
2, 273273, Note_on_c, 0, 71, 0
2, 273278, Note_on_c, 0, 76, 78
2, 273281, Note_on_c, 0, 80, 92
2, 273285, Control_c, 0, 64, 100
2, 273304, Control_c, 0, 64, 66
2, 273324, Control_c, 0, 64, 0
2, 273593, Control_c, 0, 64, 22
2, 273596, Note_on_c, 0, 56, 76
2, 273611, Control_c, 0, 64, 45
2, 273631, Control_c, 0, 64, 55
2, 273650, Control_c, 0, 64, 60
2, 273669, Control_c, 0, 64, 63
2, 273688, Control_c, 0, 64, 64
2, 273707, Control_c, 0, 64, 65
2, 273727, Control_c, 0, 64, 66
2, 273745, Control_c, 0, 64, 69
2, 273765, Control_c, 0, 64, 73
2, 273784, Control_c, 0, 64, 81
2, 273804, Control_c, 0, 64, 90
2, 273822, Control_c, 0, 64, 99
2, 273842, Control_c, 0, 64, 110
2, 273842, Note_on_c, 0, 58, 71
2, 273861, Control_c, 0, 64, 127
2, 273954, Note_on_c, 0, 49, 0
2, 273980, Note_on_c, 0, 56, 0
2, 274054, Note_on_c, 0, 58, 0
2, 274091, Note_on_c, 0, 59, 74
2, 274341, Control_c, 0, 64, 89
2, 274344, Note_on_c, 0, 58, 79
2, 274353, Note_on_c, 0, 61, 77
2, 274360, Control_c, 0, 64, 59
2, 274379, Control_c, 0, 64, 0
2, 274380, Note_on_c, 0, 59, 0
2, 274408, Note_on_c, 0, 76, 0
2, 274414, Note_on_c, 0, 80, 0
2, 274553, Control_c, 0, 64, 19
2, 274571, Control_c, 0, 64, 50
2, 274591, Control_c, 0, 64, 61
2, 274599, Note_on_c, 0, 76, 74
2, 274606, Note_on_c, 0, 80, 72
2, 274610, Control_c, 0, 64, 62
2, 274629, Control_c, 0, 64, 62
2, 274648, Control_c, 0, 64, 63
2, 274667, Control_c, 0, 64, 65
2, 274687, Control_c, 0, 64, 68
2, 274704, Control_c, 0, 64, 70
2, 274724, Control_c, 0, 64, 73
2, 274743, Control_c, 0, 64, 76
2, 274763, Control_c, 0, 64, 79
2, 274781, Control_c, 0, 64, 82
2, 274801, Control_c, 0, 64, 85
2, 274820, Control_c, 0, 64, 88
2, 274839, Control_c, 0, 64, 91
2, 274858, Control_c, 0, 64, 93
2, 274869, Note_on_c, 0, 75, 83
2, 274873, Note_on_c, 0, 66, 72
2, 274875, Note_on_c, 0, 80, 0
2, 274878, Control_c, 0, 64, 96
2, 274883, Note_on_c, 0, 78, 80
2, 274888, Note_on_c, 0, 76, 0
2, 274897, Control_c, 0, 64, 100
2, 274916, Control_c, 0, 64, 105
2, 274935, Control_c, 0, 64, 111
2, 274936, Note_on_c, 0, 61, 0
2, 274955, Control_c, 0, 64, 116
2, 274974, Control_c, 0, 64, 119
2, 274993, Control_c, 0, 64, 123
2, 274994, Note_on_c, 0, 58, 0
2, 275012, Control_c, 0, 64, 127
2, 275042, Note_on_c, 0, 66, 0
2, 275121, Note_on_c, 0, 78, 0
2, 275123, Note_on_c, 0, 76, 88
2, 275125, Note_on_c, 0, 73, 80
2, 275133, Note_on_c, 0, 75, 0
2, 275275, Note_on_c, 0, 73, 0
2, 275396, Control_c, 0, 64, 119
2, 275411, Note_on_c, 0, 59, 79
2, 275415, Control_c, 0, 64, 96
2, 275415, Note_on_c, 0, 75, 82
2, 275426, Note_on_c, 0, 71, 70
2, 275435, Control_c, 0, 64, 69
2, 275454, Control_c, 0, 64, 39
2, 275457, Note_on_c, 0, 76, 0
2, 275473, Control_c, 0, 64, 0
2, 275589, Control_c, 0, 64, 30
2, 275607, Control_c, 0, 64, 53
2, 275626, Control_c, 0, 64, 57
2, 275646, Control_c, 0, 64, 58
2, 275664, Control_c, 0, 64, 59
2, 275684, Control_c, 0, 64, 60
2, 275703, Control_c, 0, 64, 62
2, 275722, Note_on_c, 0, 68, 73
2, 275723, Control_c, 0, 64, 63
2, 275741, Control_c, 0, 64, 63
2, 275761, Control_c, 0, 64, 64
2, 275780, Control_c, 0, 64, 64
2, 275799, Control_c, 0, 64, 65
2, 275818, Control_c, 0, 64, 66
2, 275838, Control_c, 0, 64, 68
2, 275857, Control_c, 0, 64, 72
2, 275876, Control_c, 0, 64, 74
2, 275895, Control_c, 0, 64, 76
2, 275915, Control_c, 0, 64, 76
2, 275934, Control_c, 0, 64, 77
2, 275953, Control_c, 0, 64, 77
2, 275969, Note_on_c, 0, 66, 61
2, 275982, Note_on_c, 0, 68, 0
2, 276126, Control_c, 0, 64, 77
2, 276144, Control_c, 0, 64, 76
2, 276183, Control_c, 0, 64, 76
2, 276221, Control_c, 0, 64, 75
2, 276230, Note_on_c, 0, 71, 0
2, 276240, Note_on_c, 0, 64, 71
2, 276241, Control_c, 0, 64, 74
2, 276244, Note_on_c, 0, 66, 0
2, 276260, Control_c, 0, 64, 74
2, 276279, Control_c, 0, 64, 73
2, 276375, Control_c, 0, 64, 73
2, 276395, Control_c, 0, 64, 72
2, 276472, Control_c, 0, 64, 71
2, 276480, Note_on_c, 0, 63, 65
2, 276484, Note_on_c, 0, 64, 0
2, 276490, Control_c, 0, 64, 70
2, 276510, Control_c, 0, 64, 68
2, 276529, Control_c, 0, 64, 68
2, 276624, Control_c, 0, 64, 67
2, 276683, Control_c, 0, 64, 67
2, 276701, Control_c, 0, 64, 66
2, 276721, Control_c, 0, 64, 65
2, 276723, Note_on_c, 0, 67, 52
2, 276735, Note_on_c, 0, 61, 56
2, 276740, Control_c, 0, 64, 65
2, 276743, Note_on_c, 0, 59, 0
2, 276759, Control_c, 0, 64, 64
2, 276778, Control_c, 0, 64, 62
2, 276798, Control_c, 0, 64, 59
2, 276817, Control_c, 0, 64, 57
2, 276836, Control_c, 0, 64, 56
2, 276855, Control_c, 0, 64, 55
2, 276875, Control_c, 0, 64, 53
2, 276894, Control_c, 0, 64, 49
2, 276913, Control_c, 0, 64, 46
2, 276932, Control_c, 0, 64, 43
2, 276952, Control_c, 0, 64, 41
2, 276970, Control_c, 0, 64, 39
2, 276983, Note_on_c, 0, 68, 70
2, 276990, Control_c, 0, 64, 35
2, 276994, Note_on_c, 0, 59, 51
2, 277008, Note_on_c, 0, 67, 0
2, 277009, Control_c, 0, 64, 32
2, 277029, Control_c, 0, 64, 31
2, 277047, Control_c, 0, 64, 31
2, 277085, Control_c, 0, 64, 29
2, 277103, Control_c, 0, 64, 29
2, 277225, Note_on_c, 0, 58, 54
2, 277225, Note_on_c, 0, 70, 80
2, 277260, Note_on_c, 0, 59, 0
2, 277277, Control_c, 0, 64, 29
2, 277288, Note_on_c, 0, 68, 0
2, 277296, Control_c, 0, 64, 30
2, 277315, Control_c, 0, 64, 31
2, 277334, Control_c, 0, 64, 31
2, 277392, Control_c, 0, 64, 32
2, 277411, Control_c, 0, 64, 33
2, 277431, Control_c, 0, 64, 34
2, 277470, Note_on_c, 0, 56, 59
2, 277482, Note_on_c, 0, 71, 67
2, 277493, Note_on_c, 0, 58, 0
2, 277493, Note_on_c, 0, 61, 0
2, 277507, Control_c, 0, 64, 34
2, 277514, Note_on_c, 0, 70, 0
2, 277602, Control_c, 0, 64, 35
2, 277720, Note_on_c, 0, 70, 72
2, 277727, Note_on_c, 0, 63, 0
2, 277729, Note_on_c, 0, 64, 57
2, 277756, Control_c, 0, 64, 35
2, 277766, Note_on_c, 0, 71, 0
2, 277794, Control_c, 0, 64, 36
2, 277890, Control_c, 0, 64, 36
2, 277974, Note_on_c, 0, 63, 51
2, 277976, Note_on_c, 0, 73, 63
2, 277993, Note_on_c, 0, 64, 0
2, 277993, Note_on_c, 0, 70, 0
2, 278063, Control_c, 0, 64, 37
2, 278102, Control_c, 0, 64, 37
2, 278122, Control_c, 0, 64, 38
2, 278160, Control_c, 0, 64, 38
2, 278179, Control_c, 0, 64, 39
2, 278198, Note_on_c, 0, 63, 0
2, 278199, Control_c, 0, 64, 39
2, 278216, Note_on_c, 0, 73, 0
2, 278217, Control_c, 0, 64, 40
2, 278228, Note_on_c, 0, 61, 32
2, 278232, Note_on_c, 0, 67, 53
2, 278256, Control_c, 0, 64, 40
2, 278275, Control_c, 0, 64, 41
2, 278294, Control_c, 0, 64, 41
2, 278352, Control_c, 0, 64, 42
2, 278391, Control_c, 0, 64, 42
2, 278409, Control_c, 0, 64, 43
2, 278450, Note_on_c, 0, 61, 0
2, 278467, Control_c, 0, 64, 44
2, 278476, Note_on_c, 0, 67, 0
2, 278491, Note_on_c, 0, 59, 41
2, 278494, Note_on_c, 0, 68, 55
2, 278543, Control_c, 0, 64, 44
2, 278620, Control_c, 0, 64, 45
2, 278640, Control_c, 0, 64, 45
2, 278679, Control_c, 0, 64, 46
2, 278699, Note_on_c, 0, 56, 0
2, 278744, Note_on_c, 0, 58, 49
2, 278755, Control_c, 0, 64, 46
2, 278794, Control_c, 0, 64, 47
2, 278813, Control_c, 0, 64, 47
2, 278832, Control_c, 0, 64, 48
2, 278908, Control_c, 0, 64, 48
2, 278993, Note_on_c, 0, 56, 44
2, 278993, Note_on_c, 0, 58, 0
2, 279023, Control_c, 0, 64, 49
2, 279062, Control_c, 0, 64, 49
2, 279082, Control_c, 0, 64, 50
2, 279216, Control_c, 0, 64, 50
2, 279235, Note_on_c, 0, 54, 35
2, 279313, Note_on_c, 0, 68, 0
2, 279331, Control_c, 0, 64, 51
2, 279354, Note_on_c, 0, 56, 0
2, 279369, Control_c, 0, 64, 51
2, 279465, Control_c, 0, 64, 52
2, 279473, Note_on_c, 0, 75, 0
2, 279514, Note_on_c, 0, 53, 44
2, 279550, Note_on_c, 0, 54, 0
2, 279715, Control_c, 0, 64, 52
2, 279764, Note_on_c, 0, 75, 51
2, 280013, Note_on_c, 0, 74, 53
2, 280016, Note_on_c, 0, 75, 0
2, 280234, Note_on_c, 0, 59, 0
2, 280253, Note_on_c, 0, 72, 59
2, 280259, Note_on_c, 0, 74, 0
2, 280513, Note_on_c, 0, 72, 0
2, 280515, Note_on_c, 0, 74, 55
2, 280619, Control_c, 0, 64, 53
2, 280758, Note_on_c, 0, 54, 41
2, 280762, Note_on_c, 0, 75, 64
2, 280776, Note_on_c, 0, 74, 0
2, 280821, Note_on_c, 0, 53, 0
2, 280971, Note_on_c, 0, 54, 0
2, 280982, Note_on_c, 0, 53, 43
2, 280991, Note_on_c, 0, 77, 58
2, 281021, Note_on_c, 0, 75, 0
2, 281233, Control_c, 0, 64, 52
2, 281241, Note_on_c, 0, 78, 70
2, 281247, Note_on_c, 0, 51, 35
2, 281283, Note_on_c, 0, 77, 0
2, 281296, Note_on_c, 0, 53, 0
2, 281494, Note_on_c, 0, 80, 68
2, 281499, Note_on_c, 0, 50, 40
2, 281516, Note_on_c, 0, 78, 0
2, 281524, Note_on_c, 0, 51, 0
2, 281716, Note_on_c, 0, 46, 43
2, 281787, Note_on_c, 0, 50, 0
2, 281967, Note_on_c, 0, 77, 56
2, 281975, Note_on_c, 0, 48, 44
2, 282101, Note_on_c, 0, 46, 0
2, 282222, Note_on_c, 0, 48, 0
2, 282222, Note_on_c, 0, 50, 49
2, 282474, Note_on_c, 0, 50, 0
2, 282480, Note_on_c, 0, 78, 69
2, 282488, Note_on_c, 0, 51, 39
2, 282496, Note_on_c, 0, 80, 0
2, 282517, Note_on_c, 0, 77, 0
2, 282633, Control_c, 0, 64, 52
2, 282699, Note_on_c, 0, 51, 0
2, 282732, Note_on_c, 0, 53, 45
2, 282960, Note_on_c, 0, 53, 0
2, 282960, Note_on_c, 0, 54, 39
2, 282968, Note_on_c, 0, 75, 54
2, 283182, Note_on_c, 0, 54, 0
2, 283200, Note_on_c, 0, 75, 0
2, 283204, Note_on_c, 0, 51, 35
2, 283204, Note_on_c, 0, 73, 54
2, 283266, Control_c, 0, 64, 51
2, 283449, Note_on_c, 0, 73, 0
2, 283465, Note_on_c, 0, 71, 53
2, 283466, Note_on_c, 0, 56, 39
2, 283469, Note_on_c, 0, 51, 0
2, 283701, Note_on_c, 0, 54, 48
2, 283711, Note_on_c, 0, 56, 0
2, 283805, Note_on_c, 0, 71, 0
2, 283944, Note_on_c, 0, 54, 0
2, 283963, Note_on_c, 0, 75, 65
2, 283970, Note_on_c, 0, 56, 45
2, 284180, Note_on_c, 0, 56, 0
2, 284202, Note_on_c, 0, 58, 38
2, 284207, Control_c, 0, 64, 52
2, 284303, Control_c, 0, 64, 52
2, 284435, Note_on_c, 0, 58, 0
2, 284436, Note_on_c, 0, 75, 0
2, 284465, Note_on_c, 0, 68, 52
2, 284483, Note_on_c, 0, 59, 32
2, 284535, Note_on_c, 0, 78, 0
2, 284573, Control_c, 0, 64, 53
2, 284611, Control_c, 0, 64, 53
2, 284631, Control_c, 0, 64, 54
2, 284649, Control_c, 0, 64, 55
2, 284668, Control_c, 0, 64, 55
2, 284688, Control_c, 0, 64, 56
2, 284707, Control_c, 0, 64, 57
2, 284725, Note_on_c, 0, 59, 0
2, 284726, Control_c, 0, 64, 57
2, 284734, Note_on_c, 0, 58, 33
2, 284745, Control_c, 0, 64, 58
2, 284757, Note_on_c, 0, 78, 68
2, 284765, Control_c, 0, 64, 58
2, 284783, Control_c, 0, 64, 59
2, 284803, Control_c, 0, 64, 59
2, 284822, Control_c, 0, 64, 60
2, 284842, Control_c, 0, 64, 60
2, 284860, Control_c, 0, 64, 61
2, 284880, Control_c, 0, 64, 62
2, 284919, Control_c, 0, 64, 63
2, 284937, Control_c, 0, 64, 63
2, 284987, Note_on_c, 0, 58, 0
2, 284987, Note_on_c, 0, 77, 64
2, 284995, Note_on_c, 0, 78, 0
2, 285008, Note_on_c, 0, 59, 32
2, 285129, Control_c, 0, 64, 63
2, 285168, Control_c, 0, 64, 62
2, 285202, Note_on_c, 0, 77, 0
2, 285224, Note_on_c, 0, 75, 64
2, 285225, Control_c, 0, 64, 62
2, 285231, Note_on_c, 0, 56, 39
2, 285258, Control_c, 0, 64, 61
2, 285269, Note_on_c, 0, 59, 0
2, 285316, Control_c, 0, 64, 61
2, 285354, Control_c, 0, 64, 60
2, 285412, Control_c, 0, 64, 60
2, 285445, Note_on_c, 0, 75, 0
2, 285450, Control_c, 0, 64, 59
2, 285469, Note_on_c, 0, 74, 56
2, 285492, Note_on_c, 0, 58, 33
2, 285507, Control_c, 0, 64, 59
2, 285511, Note_on_c, 0, 56, 0
2, 285546, Control_c, 0, 64, 58
2, 285642, Control_c, 0, 64, 58
2, 285725, Control_c, 0, 64, 57
2, 285729, Note_on_c, 0, 71, 57
2, 285748, Note_on_c, 0, 68, 0
2, 285917, Control_c, 0, 64, 57
2, 285963, Note_on_c, 0, 71, 0
2, 285988, Note_on_c, 0, 70, 51
2, 286071, Control_c, 0, 64, 56
2, 286194, Note_on_c, 0, 70, 0
2, 286223, Note_on_c, 0, 68, 53
2, 286261, Control_c, 0, 64, 56
2, 286467, Note_on_c, 0, 68, 0
2, 286483, Note_on_c, 0, 66, 53
2, 286733, Note_on_c, 0, 70, 69
2, 286743, Note_on_c, 0, 74, 0
2, 287001, Note_on_c, 0, 75, 68
2, 287028, Note_on_c, 0, 70, 0
2, 287144, Control_c, 0, 64, 55
2, 287229, Note_on_c, 0, 57, 58
2, 287231, Note_on_c, 0, 66, 0
2, 287249, Note_on_c, 0, 58, 0
2, 287522, Note_on_c, 0, 58, 55
2, 287526, Note_on_c, 0, 57, 0
2, 287533, Note_on_c, 0, 65, 50
2, 287548, Control_c, 0, 64, 55
2, 287761, Control_c, 0, 64, 55
2, 287771, Note_on_c, 0, 75, 0
2, 287773, Note_on_c, 0, 72, 65
2, 287818, Control_c, 0, 64, 56
2, 287953, Control_c, 0, 64, 56
2, 287992, Control_c, 0, 64, 57
2, 288033, Note_on_c, 0, 74, 67
2, 288049, Control_c, 0, 64, 57
2, 288050, Note_on_c, 0, 72, 0
2, 288068, Control_c, 0, 64, 58
2, 288087, Control_c, 0, 64, 58
2, 288106, Control_c, 0, 64, 59
2, 288241, Control_c, 0, 64, 59
2, 288281, Note_on_c, 0, 77, 72
2, 288298, Note_on_c, 0, 74, 0
2, 288318, Control_c, 0, 64, 60
2, 288337, Control_c, 0, 64, 60
2, 288356, Control_c, 0, 64, 61
2, 288433, Control_c, 0, 64, 61
2, 288499, Note_on_c, 0, 77, 0
2, 288541, Note_on_c, 0, 46, 53
2, 288541, Note_on_c, 0, 68, 66
2, 288579, Note_on_c, 0, 58, 0
2, 288606, Control_c, 0, 64, 61
2, 288740, Control_c, 0, 64, 60
2, 288797, Note_on_c, 0, 71, 68
2, 288804, Note_on_c, 0, 68, 0
2, 288875, Control_c, 0, 64, 60
2, 289057, Note_on_c, 0, 70, 72
2, 289066, Control_c, 0, 64, 59
2, 289066, Note_on_c, 0, 71, 0
2, 289291, Note_on_c, 0, 68, 70
2, 289304, Note_on_c, 0, 70, 0
2, 289355, Note_on_c, 0, 65, 0
2, 289546, Control_c, 0, 64, 59
2, 289568, Note_on_c, 0, 54, 75
2, 289581, Note_on_c, 0, 66, 58
2, 289585, Note_on_c, 0, 51, 49
2, 289615, Note_on_c, 0, 68, 0
2, 289663, Note_on_c, 0, 46, 0
2, 289822, Note_on_c, 0, 65, 56
2, 290063, Note_on_c, 0, 65, 0
2, 290082, Note_on_c, 0, 63, 60
2, 290293, Control_c, 0, 64, 58
2, 290328, Note_on_c, 0, 62, 62
2, 290336, Note_on_c, 0, 63, 0
2, 290562, Control_c, 0, 64, 58
2, 290595, Note_on_c, 0, 58, 70
2, 290606, Note_on_c, 0, 63, 59
2, 290616, Note_on_c, 0, 54, 0
2, 290619, Control_c, 0, 64, 57
2, 290626, Note_on_c, 0, 62, 0
2, 290658, Control_c, 0, 64, 57
2, 290716, Control_c, 0, 64, 56
2, 290735, Control_c, 0, 64, 56
2, 290754, Control_c, 0, 64, 55
2, 290773, Control_c, 0, 64, 54
2, 290793, Control_c, 0, 64, 53
2, 290812, Control_c, 0, 64, 52
2, 290830, Control_c, 0, 64, 51
2, 290835, Note_on_c, 0, 52, 56
2, 290850, Control_c, 0, 64, 49
2, 290854, Note_on_c, 0, 51, 0
2, 290869, Control_c, 0, 64, 47
2, 290889, Control_c, 0, 64, 46
2, 290907, Control_c, 0, 64, 46
2, 290927, Control_c, 0, 64, 45
2, 290946, Control_c, 0, 64, 44
2, 291099, Control_c, 0, 64, 46
2, 291101, Note_on_c, 0, 51, 63
2, 291118, Control_c, 0, 64, 49
2, 291137, Control_c, 0, 64, 52
2, 291157, Control_c, 0, 64, 55
2, 291175, Control_c, 0, 64, 56
2, 291195, Control_c, 0, 64, 57
2, 291214, Control_c, 0, 64, 59
2, 291214, Note_on_c, 0, 52, 0
2, 291234, Control_c, 0, 64, 62
2, 291252, Control_c, 0, 64, 63
2, 291272, Control_c, 0, 64, 64
2, 291291, Control_c, 0, 64, 66
2, 291309, Control_c, 0, 64, 67
2, 291327, Note_on_c, 0, 49, 64
2, 291329, Control_c, 0, 64, 69
2, 291329, Note_on_c, 0, 63, 0
2, 291348, Control_c, 0, 64, 70
2, 291368, Control_c, 0, 64, 70
2, 291386, Control_c, 0, 64, 71
2, 291387, Note_on_c, 0, 51, 0
2, 291406, Control_c, 0, 64, 72
2, 291484, Control_c, 0, 64, 71
2, 291522, Control_c, 0, 64, 71
2, 291595, Note_on_c, 0, 49, 0
2, 291601, Control_c, 0, 64, 70
2, 291613, Note_on_c, 0, 47, 48
2, 291620, Note_on_c, 0, 63, 77
2, 291621, Control_c, 0, 64, 67
2, 291643, Control_c, 0, 64, 62
2, 291662, Control_c, 0, 64, 48
2, 291674, Note_on_c, 0, 66, 0
2, 291681, Control_c, 0, 64, 35
2, 291701, Control_c, 0, 64, 19
2, 291719, Control_c, 0, 64, 0
2, 291816, Control_c, 0, 64, 34
2, 291835, Control_c, 0, 64, 47
2, 291855, Control_c, 0, 64, 52
2, 291855, Note_on_c, 0, 47, 0
2, 291870, Note_on_c, 0, 46, 56
2, 291873, Control_c, 0, 64, 54
2, 291892, Control_c, 0, 64, 56
2, 291912, Control_c, 0, 64, 59
2, 291930, Control_c, 0, 64, 61
2, 291950, Control_c, 0, 64, 61
2, 291989, Control_c, 0, 64, 62
2, 292027, Control_c, 0, 64, 62
2, 292104, Control_c, 0, 64, 61
2, 292109, Note_on_c, 0, 58, 0
2, 292123, Control_c, 0, 64, 58
2, 292131, Note_on_c, 0, 46, 0
2, 292132, Note_on_c, 0, 66, 65
2, 292141, Note_on_c, 0, 47, 53
2, 292142, Control_c, 0, 64, 54
2, 292161, Control_c, 0, 64, 50
2, 292181, Control_c, 0, 64, 49
2, 292199, Control_c, 0, 64, 50
2, 292219, Control_c, 0, 64, 52
2, 292238, Control_c, 0, 64, 54
2, 292258, Control_c, 0, 64, 56
2, 292276, Control_c, 0, 64, 59
2, 292296, Control_c, 0, 64, 61
2, 292315, Control_c, 0, 64, 62
2, 292353, Control_c, 0, 64, 63
2, 292372, Control_c, 0, 64, 64
2, 292392, Control_c, 0, 64, 65
2, 292393, Note_on_c, 0, 64, 72
2, 292410, Control_c, 0, 64, 66
2, 292429, Control_c, 0, 64, 66
2, 292442, Note_on_c, 0, 66, 0
2, 292481, Note_on_c, 0, 63, 0
2, 292486, Control_c, 0, 64, 67
2, 292563, Control_c, 0, 64, 66
2, 292640, Control_c, 0, 64, 66
2, 292647, Note_on_c, 0, 59, 78
2, 292660, Control_c, 0, 64, 64
2, 292669, Note_on_c, 0, 63, 58
2, 292674, Note_on_c, 0, 64, 0
2, 292679, Control_c, 0, 64, 60
2, 292698, Control_c, 0, 64, 49
2, 292717, Control_c, 0, 64, 31
2, 292737, Control_c, 0, 64, 19
2, 292794, Control_c, 0, 64, 21
2, 292813, Control_c, 0, 64, 28
2, 292832, Control_c, 0, 64, 39
2, 292851, Control_c, 0, 64, 47
2, 292871, Control_c, 0, 64, 48
2, 292892, Note_on_c, 0, 49, 66
2, 292893, Note_on_c, 0, 63, 0
2, 292905, Note_on_c, 0, 47, 0
2, 292905, Note_on_c, 0, 64, 68
2, 292965, Control_c, 0, 64, 47
2, 292985, Control_c, 0, 64, 47
2, 293004, Control_c, 0, 64, 46
2, 293024, Control_c, 0, 64, 45
2, 293042, Control_c, 0, 64, 44
2, 293062, Control_c, 0, 64, 43
2, 293100, Control_c, 0, 64, 42
2, 293119, Control_c, 0, 64, 42
2, 293139, Control_c, 0, 64, 40
2, 293157, Note_on_c, 0, 66, 61
2, 293158, Control_c, 0, 64, 39
2, 293163, Note_on_c, 0, 51, 72
2, 293178, Note_on_c, 0, 64, 0
2, 293192, Note_on_c, 0, 49, 0
2, 293216, Control_c, 0, 64, 41
2, 293234, Control_c, 0, 64, 46
2, 293253, Control_c, 0, 64, 52
2, 293273, Control_c, 0, 64, 58
2, 293292, Control_c, 0, 64, 61
2, 293311, Control_c, 0, 64, 63
2, 293330, Control_c, 0, 64, 64
2, 293350, Control_c, 0, 64, 66
2, 293369, Control_c, 0, 64, 69
2, 293369, Note_on_c, 0, 66, 0
2, 293389, Control_c, 0, 64, 73
2, 293390, Note_on_c, 0, 63, 68
2, 293406, Note_on_c, 0, 59, 0
2, 293408, Control_c, 0, 64, 78
2, 293428, Control_c, 0, 64, 81
2, 293440, Note_on_c, 0, 63, 0
2, 293446, Control_c, 0, 64, 82
2, 293466, Control_c, 0, 64, 82
2, 293523, Control_c, 0, 64, 82
2, 293562, Control_c, 0, 64, 81
2, 293600, Control_c, 0, 64, 81
2, 293620, Control_c, 0, 64, 80
2, 293639, Control_c, 0, 64, 79
2, 293658, Control_c, 0, 64, 79
2, 293677, Control_c, 0, 64, 76
2, 293679, Note_on_c, 0, 56, 80
2, 293697, Control_c, 0, 64, 70
2, 293697, Note_on_c, 0, 59, 69
2, 293715, Control_c, 0, 64, 64
2, 293735, Control_c, 0, 64, 54
2, 293754, Control_c, 0, 64, 48
2, 293773, Control_c, 0, 64, 40
2, 293792, Control_c, 0, 64, 29
2, 293811, Control_c, 0, 64, 21
2, 293831, Control_c, 0, 64, 13
2, 293849, Control_c, 0, 64, 11
2, 293918, Note_on_c, 0, 49, 55
2, 293926, Note_on_c, 0, 59, 0
2, 293938, Note_on_c, 0, 61, 62
2, 294031, Note_on_c, 0, 51, 0
2, 294060, Control_c, 0, 64, 15
2, 294078, Control_c, 0, 64, 18
2, 294098, Control_c, 0, 64, 20
2, 294117, Control_c, 0, 64, 23
2, 294136, Control_c, 0, 64, 26
2, 294155, Control_c, 0, 64, 28
2, 294175, Control_c, 0, 64, 31
2, 294176, Note_on_c, 0, 49, 0
2, 294180, Note_on_c, 0, 63, 67
2, 294182, Note_on_c, 0, 47, 49
2, 294194, Control_c, 0, 64, 36
2, 294212, Control_c, 0, 64, 41
2, 294216, Note_on_c, 0, 61, 0
2, 294232, Control_c, 0, 64, 44
2, 294251, Control_c, 0, 64, 46
2, 294270, Control_c, 0, 64, 49
2, 294289, Control_c, 0, 64, 53
2, 294309, Control_c, 0, 64, 57
2, 294328, Control_c, 0, 64, 59
2, 294350, Control_c, 0, 64, 60
2, 294369, Control_c, 0, 64, 61
2, 294389, Control_c, 0, 64, 62
2, 294407, Control_c, 0, 64, 63
2, 294427, Control_c, 0, 64, 64
2, 294436, Note_on_c, 0, 51, 54
2, 294438, Note_on_c, 0, 47, 0
2, 294444, Note_on_c, 0, 59, 65
2, 294446, Control_c, 0, 64, 65
2, 294465, Control_c, 0, 64, 66
2, 294484, Control_c, 0, 64, 66
2, 294485, Note_on_c, 0, 56, 0
2, 294504, Control_c, 0, 64, 67
2, 294523, Control_c, 0, 64, 68
2, 294542, Control_c, 0, 64, 69
2, 294599, Control_c, 0, 64, 69
2, 294684, Note_on_c, 0, 51, 0
2, 294689, Note_on_c, 0, 49, 53
2, 294696, Control_c, 0, 64, 68
2, 294703, Note_on_c, 0, 65, 72
2, 294715, Control_c, 0, 64, 65
2, 294716, Note_on_c, 0, 56, 57
2, 294717, Note_on_c, 0, 59, 0
2, 294735, Control_c, 0, 64, 60
2, 294753, Control_c, 0, 64, 55
2, 294767, Note_on_c, 0, 63, 0
2, 294792, Control_c, 0, 64, 56
2, 294810, Control_c, 0, 64, 58
2, 294830, Control_c, 0, 64, 62
2, 294848, Control_c, 0, 64, 63
2, 294868, Control_c, 0, 64, 64
2, 294886, Control_c, 0, 64, 65
2, 294929, Note_on_c, 0, 49, 0
2, 294939, Note_on_c, 0, 56, 0
2, 294945, Note_on_c, 0, 58, 52
2, 294968, Note_on_c, 0, 47, 45
2, 295037, Control_c, 0, 64, 64
2, 295095, Control_c, 0, 64, 64
2, 295152, Control_c, 0, 64, 63
2, 295172, Control_c, 0, 64, 62
2, 295186, Note_on_c, 0, 47, 0
2, 295191, Control_c, 0, 64, 59
2, 295204, Note_on_c, 0, 46, 48
2, 295211, Control_c, 0, 64, 57
2, 295226, Note_on_c, 0, 59, 44
2, 295229, Control_c, 0, 64, 56
2, 295268, Control_c, 0, 64, 55
2, 295287, Control_c, 0, 64, 55
2, 295326, Control_c, 0, 64, 56
2, 295326, Note_on_c, 0, 58, 0
2, 295345, Control_c, 0, 64, 57
2, 295383, Control_c, 0, 64, 57
2, 295422, Control_c, 0, 64, 59
2, 295440, Control_c, 0, 64, 60
2, 295451, Note_on_c, 0, 44, 45
2, 295460, Control_c, 0, 64, 60
2, 295475, Note_on_c, 0, 46, 0
2, 295479, Control_c, 0, 64, 61
2, 295498, Control_c, 0, 64, 62
2, 295517, Control_c, 0, 64, 63
2, 295709, Control_c, 0, 64, 62
2, 295747, Note_on_c, 0, 66, 64
2, 295748, Control_c, 0, 64, 62
2, 295755, Note_on_c, 0, 42, 47
2, 295778, Note_on_c, 0, 44, 0
2, 295786, Control_c, 0, 64, 60
2, 295806, Control_c, 0, 64, 58
2, 295812, Note_on_c, 0, 65, 0
2, 295821, Note_on_c, 0, 59, 0
2, 295825, Control_c, 0, 64, 56
2, 295844, Control_c, 0, 64, 54
2, 295863, Control_c, 0, 64, 53
2, 295920, Control_c, 0, 64, 54
2, 295959, Control_c, 0, 64, 55
2, 295978, Control_c, 0, 64, 56
2, 295997, Control_c, 0, 64, 57
2, 296013, Note_on_c, 0, 59, 51
2, 296017, Control_c, 0, 64, 58
2, 296025, Note_on_c, 0, 49, 47
2, 296036, Control_c, 0, 64, 58
2, 296094, Control_c, 0, 64, 59
2, 296127, Note_on_c, 0, 42, 0
2, 296171, Control_c, 0, 64, 58
2, 296244, Note_on_c, 0, 59, 0
2, 296266, Note_on_c, 0, 54, 54
2, 296274, Note_on_c, 0, 58, 52
2, 296279, Note_on_c, 0, 49, 0
2, 296287, Control_c, 0, 64, 59
2, 296306, Control_c, 0, 64, 59
2, 296325, Control_c, 0, 64, 60
2, 296344, Control_c, 0, 64, 62
2, 296364, Control_c, 0, 64, 62
2, 296382, Control_c, 0, 64, 63
2, 296401, Control_c, 0, 64, 63
2, 296421, Control_c, 0, 64, 64
2, 296440, Control_c, 0, 64, 64
2, 296459, Control_c, 0, 64, 65
2, 296478, Control_c, 0, 64, 66
2, 296486, Note_on_c, 0, 58, 0
2, 296498, Control_c, 0, 64, 67
2, 296509, Note_on_c, 0, 56, 65
2, 296516, Control_c, 0, 64, 68
2, 296536, Control_c, 0, 64, 69
2, 296555, Control_c, 0, 64, 70
2, 296575, Control_c, 0, 64, 71
2, 296593, Control_c, 0, 64, 72
2, 296613, Control_c, 0, 64, 72
2, 296767, Note_on_c, 0, 56, 0
2, 296770, Note_on_c, 0, 66, 0
2, 296777, Note_on_c, 0, 58, 59
2, 296805, Control_c, 0, 64, 72
2, 296860, Note_on_c, 0, 58, 0
2, 296862, Control_c, 0, 64, 71
2, 296881, Control_c, 0, 64, 71
2, 296920, Control_c, 0, 64, 70
2, 296939, Control_c, 0, 64, 70
2, 296990, Note_on_c, 0, 54, 0
2, 296996, Control_c, 0, 64, 69
2, 297016, Control_c, 0, 64, 67
2, 297016, Note_on_c, 0, 52, 44
2, 297020, Note_on_c, 0, 61, 67
2, 297035, Control_c, 0, 64, 67
2, 297055, Control_c, 0, 64, 66
2, 297073, Control_c, 0, 64, 66
2, 297093, Control_c, 0, 64, 65
2, 297112, Control_c, 0, 64, 64
2, 297132, Control_c, 0, 64, 63
2, 297150, Control_c, 0, 64, 62
2, 297170, Control_c, 0, 64, 62
2, 297208, Control_c, 0, 64, 61
2, 297228, Control_c, 0, 64, 60
2, 297248, Control_c, 0, 64, 59
2, 297267, Control_c, 0, 64, 58
2, 297278, Note_on_c, 0, 51, 46
2, 297279, Note_on_c, 0, 61, 0
2, 297285, Note_on_c, 0, 69, 73
2, 297286, Control_c, 0, 64, 56
2, 297288, Note_on_c, 0, 66, 63
2, 297291, Note_on_c, 0, 52, 0
2, 297305, Control_c, 0, 64, 52
2, 297325, Control_c, 0, 64, 48
2, 297343, Control_c, 0, 64, 45
2, 297362, Control_c, 0, 64, 43
2, 297382, Control_c, 0, 64, 40
2, 297401, Control_c, 0, 64, 39
2, 297439, Control_c, 0, 64, 38
2, 297526, Note_on_c, 0, 49, 48
2, 297554, Control_c, 0, 64, 39
2, 297562, Note_on_c, 0, 51, 0
2, 297574, Control_c, 0, 64, 41
2, 297593, Control_c, 0, 64, 41
2, 297612, Control_c, 0, 64, 42
2, 297631, Control_c, 0, 64, 44
2, 297651, Control_c, 0, 64, 47
2, 297670, Control_c, 0, 64, 52
2, 297689, Control_c, 0, 64, 56
2, 297708, Control_c, 0, 64, 59
2, 297726, Control_c, 0, 64, 60
2, 297745, Control_c, 0, 64, 61
2, 297763, Control_c, 0, 64, 62
2, 297767, Note_on_c, 0, 49, 0
2, 297783, Control_c, 0, 64, 63
2, 297792, Note_on_c, 0, 48, 42
2, 297802, Control_c, 0, 64, 64
2, 297822, Control_c, 0, 64, 65
2, 297840, Control_c, 0, 64, 66
2, 297860, Control_c, 0, 64, 67
2, 297879, Control_c, 0, 64, 68
2, 297898, Control_c, 0, 64, 68
2, 297917, Control_c, 0, 64, 69
2, 297937, Control_c, 0, 64, 70
2, 297956, Control_c, 0, 64, 71
2, 297975, Control_c, 0, 64, 71
2, 297994, Control_c, 0, 64, 72
2, 298014, Control_c, 0, 64, 72
2, 298026, Note_on_c, 0, 48, 0
2, 298031, Note_on_c, 0, 49, 47
2, 298052, Control_c, 0, 64, 73
2, 298092, Note_on_c, 0, 69, 0
2, 298116, Note_on_c, 0, 66, 0
2, 298129, Control_c, 0, 64, 72
2, 298148, Control_c, 0, 64, 72
2, 298189, Control_c, 0, 64, 71
2, 298247, Control_c, 0, 64, 70
2, 298266, Control_c, 0, 64, 66
2, 298273, Note_on_c, 0, 69, 67
2, 298286, Control_c, 0, 64, 62
2, 298290, Note_on_c, 0, 51, 36
2, 298295, Note_on_c, 0, 60, 52
2, 298304, Control_c, 0, 64, 57
2, 298323, Control_c, 0, 64, 52
2, 298323, Note_on_c, 0, 49, 0
2, 298343, Control_c, 0, 64, 46
2, 298361, Control_c, 0, 64, 40
2, 298381, Control_c, 0, 64, 37
2, 298400, Control_c, 0, 64, 36
2, 298420, Control_c, 0, 64, 35
2, 298438, Control_c, 0, 64, 34
2, 298458, Control_c, 0, 64, 34
2, 298477, Control_c, 0, 64, 33
2, 298519, Note_on_c, 0, 66, 68
2, 298529, Note_on_c, 0, 51, 0
2, 298530, Note_on_c, 0, 48, 38
2, 298554, Control_c, 0, 64, 32
2, 298592, Control_c, 0, 64, 32
2, 298669, Control_c, 0, 64, 31
2, 298723, Control_c, 0, 64, 31
2, 298750, Note_on_c, 0, 48, 0
2, 298762, Control_c, 0, 64, 30
2, 298779, Note_on_c, 0, 44, 38
2, 298786, Note_on_c, 0, 68, 67
2, 298788, Note_on_c, 0, 60, 0
2, 298792, Note_on_c, 0, 64, 53
2, 298815, Note_on_c, 0, 69, 0
2, 298818, Note_on_c, 0, 66, 0
2, 299011, Note_on_c, 0, 46, 45
2, 299030, Note_on_c, 0, 44, 0
2, 299205, Control_c, 0, 64, 31
2, 299210, Note_on_c, 0, 68, 0
2, 299243, Control_c, 0, 64, 31
2, 299253, Note_on_c, 0, 46, 0
2, 299277, Note_on_c, 0, 66, 55
2, 299281, Note_on_c, 0, 48, 34
2, 299297, Note_on_c, 0, 64, 0
2, 299301, Control_c, 0, 64, 32
2, 299307, Note_on_c, 0, 63, 36
2, 299320, Control_c, 0, 64, 32
2, 299396, Control_c, 0, 64, 33
2, 299416, Control_c, 0, 64, 34
2, 299435, Control_c, 0, 64, 34
2, 299455, Control_c, 0, 64, 35
2, 299493, Control_c, 0, 64, 35
2, 299512, Control_c, 0, 64, 36
2, 299532, Control_c, 0, 64, 37
2, 299533, Note_on_c, 0, 44, 37
2, 299550, Control_c, 0, 64, 37
2, 299570, Control_c, 0, 64, 38
2, 299608, Control_c, 0, 64, 38
2, 299617, Note_on_c, 0, 48, 0
2, 299627, Control_c, 0, 64, 39
2, 299647, Control_c, 0, 64, 39
2, 299665, Control_c, 0, 64, 40
2, 299683, Control_c, 0, 64, 41
2, 299722, Control_c, 0, 64, 41
2, 299742, Control_c, 0, 64, 42
2, 299772, Note_on_c, 0, 49, 51
2, 299818, Control_c, 0, 64, 42
2, 299837, Control_c, 0, 64, 43
2, 299857, Control_c, 0, 64, 44
2, 299876, Control_c, 0, 64, 44
2, 299927, Note_on_c, 0, 63, 0
2, 299934, Note_on_c, 0, 44, 0
2, 299972, Control_c, 0, 64, 45
2, 300017, Note_on_c, 0, 51, 57
2, 300024, Note_on_c, 0, 49, 0
2, 300125, Control_c, 0, 64, 45
2, 300240, Control_c, 0, 64, 46
2, 300249, Note_on_c, 0, 66, 0
2, 300277, Note_on_c, 0, 52, 47
2, 300277, Note_on_c, 0, 64, 67
2, 300279, Control_c, 0, 64, 46
2, 300293, Note_on_c, 0, 51, 0
2, 300297, Control_c, 0, 64, 47
2, 300315, Note_on_c, 0, 61, 41
2, 300336, Control_c, 0, 64, 47
2, 300355, Control_c, 0, 64, 48
2, 300374, Control_c, 0, 64, 48
2, 300489, Note_on_c, 0, 61, 0
2, 300494, Note_on_c, 0, 64, 0
2, 300504, Note_on_c, 0, 63, 71
2, 300514, Note_on_c, 0, 60, 54
2, 300528, Control_c, 0, 64, 48
2, 300566, Control_c, 0, 64, 47
2, 300603, Control_c, 0, 64, 47
2, 300622, Control_c, 0, 64, 46
2, 300641, Control_c, 0, 64, 46
2, 300660, Control_c, 0, 64, 45
2, 300718, Control_c, 0, 64, 47
2, 300729, Note_on_c, 0, 60, 0
2, 300737, Control_c, 0, 64, 53
2, 300751, Note_on_c, 0, 63, 0
2, 300757, Control_c, 0, 64, 59
2, 300760, Note_on_c, 0, 64, 63
2, 300762, Note_on_c, 0, 61, 49
2, 300775, Control_c, 0, 64, 63
2, 300795, Control_c, 0, 64, 64
2, 300814, Control_c, 0, 64, 65
2, 300821, Note_on_c, 0, 61, 0
2, 300871, Control_c, 0, 64, 65
2, 300909, Control_c, 0, 64, 65
2, 300916, Note_on_c, 0, 64, 0
2, 300968, Control_c, 0, 64, 64
2, 300973, Note_on_c, 0, 66, 71
2, 300979, Note_on_c, 0, 51, 44
2, 300986, Control_c, 0, 64, 64
2, 300996, Note_on_c, 0, 63, 53
2, 301006, Control_c, 0, 64, 63
2, 301016, Note_on_c, 0, 52, 0
2, 301025, Control_c, 0, 64, 63
2, 301044, Control_c, 0, 64, 62
2, 301064, Control_c, 0, 64, 61
2, 301084, Control_c, 0, 64, 60
2, 301103, Control_c, 0, 64, 60
2, 301122, Control_c, 0, 64, 59
2, 301141, Control_c, 0, 64, 58
2, 301161, Control_c, 0, 64, 57
2, 301179, Control_c, 0, 64, 56
2, 301199, Control_c, 0, 64, 55
2, 301218, Control_c, 0, 64, 56
2, 301227, Note_on_c, 0, 63, 0
2, 301246, Note_on_c, 0, 68, 69
2, 301252, Note_on_c, 0, 49, 47
2, 301252, Note_on_c, 0, 64, 58
2, 301257, Note_on_c, 0, 51, 0
2, 301260, Note_on_c, 0, 66, 0
2, 301276, Control_c, 0, 64, 55
2, 301352, Control_c, 0, 64, 55
2, 301488, Note_on_c, 0, 49, 0
2, 301512, Note_on_c, 0, 47, 44
2, 301738, Note_on_c, 0, 47, 0
2, 301754, Note_on_c, 0, 46, 51
2, 301794, Control_c, 0, 64, 56
2, 301812, Control_c, 0, 64, 58
2, 301831, Control_c, 0, 64, 59
2, 301851, Control_c, 0, 64, 60
2, 301869, Control_c, 0, 64, 61
2, 301889, Control_c, 0, 64, 62
2, 301908, Control_c, 0, 64, 63
2, 301928, Control_c, 0, 64, 65
2, 301946, Control_c, 0, 64, 66
2, 301966, Control_c, 0, 64, 68
2, 301985, Control_c, 0, 64, 70
2, 301995, Note_on_c, 0, 47, 53
2, 301997, Note_on_c, 0, 68, 0
2, 302004, Control_c, 0, 64, 72
2, 302015, Note_on_c, 0, 46, 0
2, 302022, Note_on_c, 0, 64, 0
2, 302023, Control_c, 0, 64, 73
2, 302139, Control_c, 0, 64, 72
2, 302177, Control_c, 0, 64, 72
2, 302215, Control_c, 0, 64, 71
2, 302235, Control_c, 0, 64, 71
2, 302254, Control_c, 0, 64, 69
2, 302256, Note_on_c, 0, 47, 0
2, 302258, Note_on_c, 0, 68, 76
2, 302266, Note_on_c, 0, 49, 50
2, 302274, Control_c, 0, 64, 66
2, 302274, Note_on_c, 0, 58, 61
2, 302292, Control_c, 0, 64, 63
2, 302311, Control_c, 0, 64, 58
2, 302331, Control_c, 0, 64, 54
2, 302349, Control_c, 0, 64, 50
2, 302369, Control_c, 0, 64, 47
2, 302388, Control_c, 0, 64, 46
2, 302508, Note_on_c, 0, 46, 49
2, 302509, Note_on_c, 0, 64, 69
2, 302526, Note_on_c, 0, 49, 0
2, 302714, Note_on_c, 0, 46, 0
2, 302716, Note_on_c, 0, 68, 0
2, 302744, Note_on_c, 0, 42, 42
2, 302748, Note_on_c, 0, 58, 0
2, 302757, Note_on_c, 0, 63, 59
2, 302763, Note_on_c, 0, 66, 61
2, 302769, Note_on_c, 0, 64, 0
2, 302926, Control_c, 0, 64, 46
2, 302983, Control_c, 0, 64, 47
2, 303000, Note_on_c, 0, 42, 0
2, 303003, Control_c, 0, 64, 47
2, 303015, Note_on_c, 0, 44, 39
2, 303022, Control_c, 0, 64, 48
2, 303041, Control_c, 0, 64, 49
2, 303060, Control_c, 0, 64, 50
2, 303080, Control_c, 0, 64, 50
2, 303099, Control_c, 0, 64, 51
2, 303137, Control_c, 0, 64, 52
2, 303253, Note_on_c, 0, 66, 0
2, 303260, Note_on_c, 0, 63, 0
2, 303267, Note_on_c, 0, 46, 34
2, 303270, Note_on_c, 0, 64, 49
2, 303271, Control_c, 0, 64, 52
2, 303272, Note_on_c, 0, 44, 0
2, 303286, Note_on_c, 0, 61, 41
2, 303368, Control_c, 0, 64, 53
2, 303425, Control_c, 0, 64, 53
2, 303476, Note_on_c, 0, 46, 0
2, 303483, Control_c, 0, 64, 54
2, 303500, Note_on_c, 0, 42, 41
2, 303579, Control_c, 0, 64, 54
2, 303804, Note_on_c, 0, 47, 40
2, 303806, Note_on_c, 0, 61, 0
2, 303827, Note_on_c, 0, 64, 0
2, 303831, Note_on_c, 0, 42, 0
2, 303965, Control_c, 0, 64, 55
2, 304039, Note_on_c, 0, 49, 51
2, 304127, Note_on_c, 0, 47, 0
2, 304299, Note_on_c, 0, 51, 38
2, 304311, Note_on_c, 0, 63, 56
2, 304322, Note_on_c, 0, 59, 51
2, 304331, Note_on_c, 0, 49, 0
2, 304518, Note_on_c, 0, 59, 0
2, 304524, Note_on_c, 0, 63, 0
2, 304545, Note_on_c, 0, 61, 59
2, 304556, Note_on_c, 0, 58, 48
2, 304636, Control_c, 0, 64, 54
2, 304693, Control_c, 0, 64, 54
2, 304744, Note_on_c, 0, 58, 0
2, 304750, Control_c, 0, 64, 53
2, 304784, Note_on_c, 0, 61, 0
2, 304790, Note_on_c, 0, 63, 63
2, 304806, Note_on_c, 0, 59, 48
2, 304924, Control_c, 0, 64, 53
2, 304992, Note_on_c, 0, 59, 0
2, 305021, Note_on_c, 0, 51, 0
2, 305027, Note_on_c, 0, 49, 42
2, 305040, Note_on_c, 0, 64, 62
2, 305045, Note_on_c, 0, 61, 22
2, 305066, Note_on_c, 0, 63, 0
2, 305087, Note_on_c, 0, 61, 0
2, 305116, Control_c, 0, 64, 53
2, 305135, Control_c, 0, 64, 54
2, 305250, Note_on_c, 0, 64, 0
2, 305284, Note_on_c, 0, 47, 42
2, 305303, Note_on_c, 0, 66, 55
2, 305308, Note_on_c, 0, 63, 56
2, 305322, Note_on_c, 0, 49, 0
2, 305327, Control_c, 0, 64, 55
2, 305346, Control_c, 0, 64, 56
2, 305365, Control_c, 0, 64, 58
2, 305384, Control_c, 0, 64, 60
2, 305404, Control_c, 0, 64, 62
2, 305423, Control_c, 0, 64, 63
2, 305442, Control_c, 0, 64, 64
2, 305461, Control_c, 0, 64, 65
2, 305481, Control_c, 0, 64, 67
2, 305491, Note_on_c, 0, 66, 0
2, 305499, Control_c, 0, 64, 70
2, 305510, Note_on_c, 0, 47, 0
2, 305513, Note_on_c, 0, 63, 0
2, 305519, Control_c, 0, 64, 74
2, 305537, Note_on_c, 0, 51, 46
2, 305538, Control_c, 0, 64, 80
2, 305558, Control_c, 0, 64, 83
2, 305576, Control_c, 0, 64, 85
2, 305582, Note_on_c, 0, 51, 0
2, 305633, Control_c, 0, 64, 84
2, 305653, Control_c, 0, 64, 84
2, 305672, Control_c, 0, 64, 83
2, 305710, Control_c, 0, 64, 83
2, 305730, Control_c, 0, 64, 82
2, 305749, Control_c, 0, 64, 80
2, 305769, Control_c, 0, 64, 80
2, 305807, Control_c, 0, 64, 79
2, 305826, Control_c, 0, 64, 79
2, 305845, Control_c, 0, 64, 77
2, 305857, Note_on_c, 0, 56, 48
2, 305859, Note_on_c, 0, 71, 79
2, 305869, Control_c, 0, 64, 72
2, 305889, Control_c, 0, 64, 65
2, 305907, Control_c, 0, 64, 52
2, 305927, Control_c, 0, 64, 28
2, 305946, Control_c, 0, 64, 21
2, 306004, Control_c, 0, 64, 23
2, 306023, Control_c, 0, 64, 31
2, 306042, Control_c, 0, 64, 43
2, 306061, Control_c, 0, 64, 54
2, 306081, Control_c, 0, 64, 59
2, 306099, Control_c, 0, 64, 60
2, 306119, Control_c, 0, 64, 61
2, 306138, Control_c, 0, 64, 62
2, 306139, Note_on_c, 0, 68, 50
2, 306158, Control_c, 0, 64, 63
2, 306166, Note_on_c, 0, 64, 34
2, 306179, Control_c, 0, 64, 64
2, 306198, Control_c, 0, 64, 65
2, 306218, Control_c, 0, 64, 65
2, 306256, Control_c, 0, 64, 66
2, 306275, Control_c, 0, 64, 66
2, 306295, Control_c, 0, 64, 67
2, 306313, Control_c, 0, 64, 68
2, 306333, Control_c, 0, 64, 69
2, 306352, Control_c, 0, 64, 70
2, 306363, Note_on_c, 0, 64, 0
2, 306369, Control_c, 0, 64, 72
2, 306384, Note_on_c, 0, 68, 0
2, 306387, Control_c, 0, 64, 72
2, 306396, Note_on_c, 0, 66, 45
2, 306418, Note_on_c, 0, 63, 29
2, 306425, Control_c, 0, 64, 73
2, 306444, Control_c, 0, 64, 73
2, 306463, Control_c, 0, 64, 74
2, 306482, Control_c, 0, 64, 76
2, 306519, Note_on_c, 0, 63, 0
2, 306540, Control_c, 0, 64, 76
2, 306575, Note_on_c, 0, 71, 0
2, 306585, Note_on_c, 0, 66, 0
2, 306632, Note_on_c, 0, 64, 49
2, 306641, Note_on_c, 0, 61, 40
2, 306656, Control_c, 0, 64, 77
2, 306696, Note_on_c, 0, 64, 0
2, 306713, Control_c, 0, 64, 76
2, 306732, Note_on_c, 0, 61, 0
2, 306774, Note_on_c, 0, 56, 0
2, 306790, Control_c, 0, 64, 77
2, 306809, Control_c, 0, 64, 77
2, 306826, Control_c, 0, 64, 76
2, 306846, Control_c, 0, 64, 69
2, 306864, Note_on_c, 0, 75, 79
2, 306865, Control_c, 0, 64, 60
2, 306881, Note_on_c, 0, 63, 62
2, 306883, Control_c, 0, 64, 48
2, 306890, Note_on_c, 0, 59, 36
2, 306903, Control_c, 0, 64, 50
2, 306922, Control_c, 0, 64, 55
2, 306942, Control_c, 0, 64, 61
2, 306947, Note_on_c, 0, 59, 0
2, 306960, Control_c, 0, 64, 66
2, 306980, Control_c, 0, 64, 70
2, 306999, Control_c, 0, 64, 73
2, 307076, Control_c, 0, 64, 73
2, 307128, Note_on_c, 0, 61, 47
2, 307134, Control_c, 0, 64, 73
2, 307163, Note_on_c, 0, 58, 22
2, 307172, Control_c, 0, 64, 73
2, 307220, Note_on_c, 0, 58, 0
2, 307250, Note_on_c, 0, 63, 0
2, 307251, Note_on_c, 0, 61, 0
2, 307306, Control_c, 0, 64, 73
2, 307374, Note_on_c, 0, 59, 56
2, 307380, Note_on_c, 0, 56, 37
2, 307395, Note_on_c, 0, 71, 64
2, 307529, Note_on_c, 0, 56, 0
2, 307555, Control_c, 0, 64, 72
2, 307574, Control_c, 0, 64, 72
2, 307587, Note_on_c, 0, 59, 0
2, 307621, Note_on_c, 0, 57, 44
2, 307632, Note_on_c, 0, 54, 40
2, 307651, Control_c, 0, 64, 71
2, 307728, Control_c, 0, 64, 71
2, 307747, Control_c, 0, 64, 70
2, 307803, Control_c, 0, 64, 69
2, 307803, Note_on_c, 0, 54, 0
2, 307823, Control_c, 0, 64, 68
2, 307841, Control_c, 0, 64, 68
2, 307894, Note_on_c, 0, 57, 0
2, 307896, Note_on_c, 0, 80, 85
2, 307900, Control_c, 0, 64, 66
2, 307903, Note_on_c, 0, 52, 41
2, 307917, Note_on_c, 0, 56, 46
2, 307918, Control_c, 0, 64, 63
2, 307931, Note_on_c, 0, 71, 0
2, 307938, Control_c, 0, 64, 57
2, 307951, Note_on_c, 0, 75, 0
2, 307957, Control_c, 0, 64, 44
2, 307977, Control_c, 0, 64, 32
2, 307995, Control_c, 0, 64, 25
2, 308015, Control_c, 0, 64, 19
2, 308034, Control_c, 0, 64, 11
2, 308111, Control_c, 0, 64, 13
2, 308158, Note_on_c, 0, 59, 55
2, 308169, Control_c, 0, 64, 15
2, 308207, Control_c, 0, 64, 17
2, 308226, Control_c, 0, 64, 18
2, 308245, Control_c, 0, 64, 19
2, 308264, Control_c, 0, 64, 21
2, 308303, Control_c, 0, 64, 23
2, 308321, Control_c, 0, 64, 25
2, 308341, Control_c, 0, 64, 27
2, 308360, Control_c, 0, 64, 27
2, 308398, Control_c, 0, 64, 28
2, 308412, Note_on_c, 0, 68, 58
2, 308418, Control_c, 0, 64, 29
2, 308418, Note_on_c, 0, 64, 55
2, 308423, Note_on_c, 0, 59, 0
2, 308434, Note_on_c, 0, 56, 0
2, 308437, Control_c, 0, 64, 32
2, 308457, Control_c, 0, 64, 34
2, 308475, Control_c, 0, 64, 36
2, 308495, Control_c, 0, 64, 39
2, 308514, Control_c, 0, 64, 43
2, 308533, Control_c, 0, 64, 50
2, 308552, Control_c, 0, 64, 57
2, 308572, Control_c, 0, 64, 59
2, 308591, Control_c, 0, 64, 60
2, 308610, Control_c, 0, 64, 61
2, 308629, Control_c, 0, 64, 62
2, 308649, Control_c, 0, 64, 63
2, 308667, Control_c, 0, 64, 64
2, 308676, Note_on_c, 0, 63, 55
2, 308687, Control_c, 0, 64, 65
2, 308706, Control_c, 0, 64, 66
2, 308745, Control_c, 0, 64, 66
2, 308757, Note_on_c, 0, 64, 0
2, 308918, Control_c, 0, 64, 66
2, 308937, Control_c, 0, 64, 64
2, 308941, Note_on_c, 0, 76, 80
2, 308944, Note_on_c, 0, 63, 0
2, 308956, Control_c, 0, 64, 62
2, 308963, Note_on_c, 0, 61, 49
2, 308976, Control_c, 0, 64, 55
2, 308995, Control_c, 0, 64, 46
2, 309014, Control_c, 0, 64, 39
2, 309033, Control_c, 0, 64, 35
2, 309053, Control_c, 0, 64, 34
2, 309053, Note_on_c, 0, 68, 0
2, 309072, Control_c, 0, 64, 35
2, 309091, Control_c, 0, 64, 41
2, 309096, Note_on_c, 0, 80, 0
2, 309110, Control_c, 0, 64, 51
2, 309130, Control_c, 0, 64, 59
2, 309148, Control_c, 0, 64, 61
2, 309187, Control_c, 0, 64, 62
2, 309200, Note_on_c, 0, 63, 60
2, 309207, Control_c, 0, 64, 63
2, 309207, Note_on_c, 0, 61, 0
2, 309225, Control_c, 0, 64, 65
2, 309243, Control_c, 0, 64, 66
2, 309263, Control_c, 0, 64, 67
2, 309320, Control_c, 0, 64, 68
2, 309417, Control_c, 0, 64, 67
2, 309435, Control_c, 0, 64, 66
2, 309445, Note_on_c, 0, 64, 63
2, 309454, Note_on_c, 0, 73, 62
2, 309455, Control_c, 0, 64, 65
2, 309474, Control_c, 0, 64, 63
2, 309480, Note_on_c, 0, 63, 0
2, 309493, Control_c, 0, 64, 62
2, 309512, Control_c, 0, 64, 62
2, 309532, Control_c, 0, 64, 63
2, 309551, Control_c, 0, 64, 65
2, 309570, Control_c, 0, 64, 66
2, 309589, Control_c, 0, 64, 67
2, 309609, Control_c, 0, 64, 68
2, 309613, Note_on_c, 0, 73, 0
2, 309627, Control_c, 0, 64, 69
2, 309647, Control_c, 0, 64, 70
2, 309666, Control_c, 0, 64, 73
2, 309685, Control_c, 0, 64, 75
2, 309702, Note_on_c, 0, 61, 70
2, 309706, Control_c, 0, 64, 76
2, 309725, Control_c, 0, 64, 76
2, 309745, Control_c, 0, 64, 77
2, 309937, Control_c, 0, 64, 77
2, 309956, Control_c, 0, 64, 74
2, 309965, Note_on_c, 0, 73, 85
2, 309975, Control_c, 0, 64, 65
2, 309976, Note_on_c, 0, 66, 62
2, 309977, Note_on_c, 0, 76, 0
2, 309979, Note_on_c, 0, 64, 0
2, 309983, Note_on_c, 0, 58, 53
2, 309994, Control_c, 0, 64, 38
2, 309999, Note_on_c, 0, 61, 0
2, 310014, Control_c, 0, 64, 0
2, 310109, Control_c, 0, 64, 21
2, 310129, Control_c, 0, 64, 40
2, 310148, Control_c, 0, 64, 51
2, 310167, Control_c, 0, 64, 56
2, 310186, Control_c, 0, 64, 59
2, 310205, Control_c, 0, 64, 62
2, 310225, Control_c, 0, 64, 62
2, 310227, Note_on_c, 0, 59, 56
2, 310227, Note_on_c, 0, 68, 61
2, 310234, Note_on_c, 0, 58, 0
2, 310263, Control_c, 0, 64, 63
2, 310269, Note_on_c, 0, 66, 0
2, 310282, Control_c, 0, 64, 64
2, 310302, Control_c, 0, 64, 65
2, 310378, Control_c, 0, 64, 66
2, 310397, Control_c, 0, 64, 67
2, 310417, Control_c, 0, 64, 68
2, 310451, Note_on_c, 0, 59, 0
2, 310455, Control_c, 0, 64, 68
2, 310474, Control_c, 0, 64, 70
2, 310477, Note_on_c, 0, 61, 50
2, 310489, Note_on_c, 0, 70, 68
2, 310494, Control_c, 0, 64, 74
2, 310505, Note_on_c, 0, 68, 0
2, 310512, Control_c, 0, 64, 79
2, 310532, Control_c, 0, 64, 84
2, 310551, Control_c, 0, 64, 85
2, 310571, Control_c, 0, 64, 86
2, 310589, Control_c, 0, 64, 87
2, 310609, Control_c, 0, 64, 88
2, 310628, Control_c, 0, 64, 90
2, 310647, Control_c, 0, 64, 92
2, 310659, Note_on_c, 0, 70, 0
2, 310665, Control_c, 0, 64, 93
2, 310671, Note_on_c, 0, 61, 0
2, 310684, Control_c, 0, 64, 93
2, 310704, Control_c, 0, 64, 94
2, 310722, Control_c, 0, 64, 95
2, 310730, Note_on_c, 0, 66, 50
2, 310734, Note_on_c, 0, 58, 41
2, 310742, Control_c, 0, 64, 97
2, 310761, Control_c, 0, 64, 100
2, 310774, Note_on_c, 0, 66, 0
2, 310777, Note_on_c, 0, 52, 0
2, 310781, Control_c, 0, 64, 101
2, 310804, Note_on_c, 0, 73, 0
2, 310857, Control_c, 0, 64, 100
2, 310876, Control_c, 0, 64, 100
2, 310896, Control_c, 0, 64, 99
2, 310915, Control_c, 0, 64, 97
2, 310934, Control_c, 0, 64, 96
2, 310953, Control_c, 0, 64, 93
2, 310973, Control_c, 0, 64, 85
2, 310980, Note_on_c, 0, 82, 93
2, 310992, Control_c, 0, 64, 71
2, 310993, Note_on_c, 0, 73, 66
2, 310999, Note_on_c, 0, 54, 54
2, 311011, Control_c, 0, 64, 60
2, 311030, Control_c, 0, 64, 43
2, 311050, Control_c, 0, 64, 39
2, 311068, Control_c, 0, 64, 36
2, 311071, Note_on_c, 0, 58, 0
2, 311088, Control_c, 0, 64, 34
2, 311127, Control_c, 0, 64, 35
2, 311145, Control_c, 0, 64, 45
2, 311164, Control_c, 0, 64, 56
2, 311165, Note_on_c, 0, 73, 0
2, 311184, Control_c, 0, 64, 58
2, 311202, Control_c, 0, 64, 59
2, 311222, Control_c, 0, 64, 60
2, 311241, Control_c, 0, 64, 62
2, 311261, Control_c, 0, 64, 65
2, 311264, Note_on_c, 0, 76, 67
2, 311269, Note_on_c, 0, 56, 43
2, 311274, Note_on_c, 0, 54, 0
2, 311279, Control_c, 0, 64, 67
2, 311299, Control_c, 0, 64, 68
2, 311318, Control_c, 0, 64, 69
2, 311337, Control_c, 0, 64, 72
2, 311356, Control_c, 0, 64, 75
2, 311376, Control_c, 0, 64, 78
2, 311395, Control_c, 0, 64, 81
2, 311414, Control_c, 0, 64, 83
2, 311433, Control_c, 0, 64, 83
2, 311453, Control_c, 0, 64, 84
2, 311472, Control_c, 0, 64, 86
2, 311491, Control_c, 0, 64, 88
2, 311510, Control_c, 0, 64, 89
2, 311510, Note_on_c, 0, 75, 85
2, 311515, Note_on_c, 0, 56, 0
2, 311516, Note_on_c, 0, 54, 42
2, 311530, Control_c, 0, 64, 90
2, 311531, Note_on_c, 0, 76, 0
2, 311542, Note_on_c, 0, 58, 39
2, 311548, Control_c, 0, 64, 91
2, 311568, Control_c, 0, 64, 91
2, 311587, Control_c, 0, 64, 93
2, 311607, Control_c, 0, 64, 95
2, 311625, Control_c, 0, 64, 96
2, 311644, Control_c, 0, 64, 98
2, 311664, Control_c, 0, 64, 101
2, 311682, Control_c, 0, 64, 104
2, 311702, Control_c, 0, 64, 108
2, 311721, Control_c, 0, 64, 117
2, 311741, Control_c, 0, 64, 127
2, 311757, Note_on_c, 0, 75, 0
2, 311763, Note_on_c, 0, 82, 0
2, 311768, Note_on_c, 0, 73, 74
2, 311770, Note_on_c, 0, 52, 40
2, 311809, Note_on_c, 0, 52, 0
2, 311823, Note_on_c, 0, 54, 0
2, 311912, Note_on_c, 0, 73, 0
2, 312048, Control_c, 0, 64, 100
2, 312056, Note_on_c, 0, 51, 54
2, 312064, Note_on_c, 0, 83, 91
2, 312067, Control_c, 0, 64, 73
2, 312087, Control_c, 0, 64, 51
2, 312087, Note_on_c, 0, 78, 69
2, 312105, Control_c, 0, 64, 0
2, 312174, Note_on_c, 0, 58, 0
2, 312195, Control_c, 0, 64, 17
2, 312215, Control_c, 0, 64, 29
2, 312234, Control_c, 0, 64, 45
2, 312253, Control_c, 0, 64, 58
2, 312272, Control_c, 0, 64, 63
2, 312292, Control_c, 0, 64, 63
2, 312311, Control_c, 0, 64, 64
2, 312330, Control_c, 0, 64, 64
2, 312338, Note_on_c, 0, 54, 40
2, 312349, Control_c, 0, 64, 66
2, 312357, Note_on_c, 0, 76, 67
2, 312369, Control_c, 0, 64, 70
2, 312375, Note_on_c, 0, 78, 0
2, 312387, Control_c, 0, 64, 75
2, 312407, Control_c, 0, 64, 81
2, 312426, Control_c, 0, 64, 84
2, 312445, Control_c, 0, 64, 86
2, 312464, Control_c, 0, 64, 87
2, 312483, Control_c, 0, 64, 89
2, 312503, Control_c, 0, 64, 90
2, 312521, Control_c, 0, 64, 90
2, 312553, Note_on_c, 0, 54, 0
2, 312560, Control_c, 0, 64, 91
2, 312599, Note_on_c, 0, 59, 62
2, 312599, Note_on_c, 0, 75, 77
2, 312601, Note_on_c, 0, 76, 0
2, 312702, Control_c, 0, 64, 90
2, 312759, Control_c, 0, 64, 90
2, 312814, Note_on_c, 0, 59, 0
2, 312833, Note_on_c, 0, 78, 84
2, 312835, Note_on_c, 0, 58, 51
2, 312836, Control_c, 0, 64, 89
2, 312844, Note_on_c, 0, 75, 0
2, 312855, Control_c, 0, 64, 89
2, 312894, Control_c, 0, 64, 88
2, 312912, Control_c, 0, 64, 88
2, 312920, Note_on_c, 0, 58, 0
2, 312932, Control_c, 0, 64, 87
2, 312951, Control_c, 0, 64, 86
2, 312971, Control_c, 0, 64, 85
2, 312989, Control_c, 0, 64, 84
2, 313009, Control_c, 0, 64, 83
2, 313046, Control_c, 0, 64, 83
2, 313066, Control_c, 0, 64, 82
2, 313073, Note_on_c, 0, 56, 57
2, 313085, Control_c, 0, 64, 80
2, 313095, Note_on_c, 0, 76, 76
2, 313104, Control_c, 0, 64, 76
2, 313104, Note_on_c, 0, 71, 61
2, 313106, Note_on_c, 0, 51, 0
2, 313122, Control_c, 0, 64, 74
2, 313130, Note_on_c, 0, 78, 0
2, 313142, Control_c, 0, 64, 72
2, 313161, Control_c, 0, 64, 71
2, 313181, Control_c, 0, 64, 69
2, 313199, Control_c, 0, 64, 68
2, 313219, Control_c, 0, 64, 67
2, 313238, Control_c, 0, 64, 65
2, 313257, Control_c, 0, 64, 64
2, 313276, Control_c, 0, 64, 63
2, 313289, Note_on_c, 0, 83, 0
2, 313315, Control_c, 0, 64, 62
2, 313333, Note_on_c, 0, 49, 61
2, 313334, Control_c, 0, 64, 61
2, 313353, Control_c, 0, 64, 60
2, 313373, Control_c, 0, 64, 59
2, 313392, Control_c, 0, 64, 58
2, 313411, Control_c, 0, 64, 57
2, 313430, Control_c, 0, 64, 55
2, 313450, Control_c, 0, 64, 53
2, 313468, Control_c, 0, 64, 51
2, 313488, Control_c, 0, 64, 50
2, 313546, Control_c, 0, 64, 50
2, 313565, Control_c, 0, 64, 49
2, 313586, Note_on_c, 0, 47, 58
2, 313609, Note_on_c, 0, 49, 0
2, 313623, Control_c, 0, 64, 49
2, 313680, Control_c, 0, 64, 49
2, 313822, Note_on_c, 0, 47, 0
2, 313835, Note_on_c, 0, 51, 57
2, 313854, Control_c, 0, 64, 50
2, 313872, Control_c, 0, 64, 50
2, 313911, Control_c, 0, 64, 51
2, 313988, Control_c, 0, 64, 51
2, 314044, Control_c, 0, 64, 52
2, 314064, Control_c, 0, 64, 52
2, 314082, Control_c, 0, 64, 53
2, 314102, Control_c, 0, 64, 53
2, 314115, Note_on_c, 0, 49, 51
2, 314157, Note_on_c, 0, 51, 0
2, 314179, Control_c, 0, 64, 54
2, 314198, Control_c, 0, 64, 55
2, 314217, Control_c, 0, 64, 55
2, 314236, Control_c, 0, 64, 56
2, 314275, Control_c, 0, 64, 57
2, 314294, Control_c, 0, 64, 57
2, 314313, Control_c, 0, 64, 58
2, 314352, Control_c, 0, 64, 59
2, 314356, Note_on_c, 0, 71, 0
2, 314368, Note_on_c, 0, 54, 50
2, 314371, Control_c, 0, 64, 59
2, 314383, Note_on_c, 0, 70, 54
2, 314410, Control_c, 0, 64, 60
2, 314448, Control_c, 0, 64, 60
2, 314483, Note_on_c, 0, 56, 0
2, 314486, Control_c, 0, 64, 61
2, 314625, Note_on_c, 0, 52, 41
2, 314642, Note_on_c, 0, 68, 56
2, 314646, Note_on_c, 0, 54, 0
2, 314662, Note_on_c, 0, 70, 0
2, 314774, Control_c, 0, 64, 60
2, 314813, Control_c, 0, 64, 60
2, 314832, Control_c, 0, 64, 59
2, 314851, Control_c, 0, 64, 59
2, 314877, Note_on_c, 0, 56, 60
2, 314878, Note_on_c, 0, 71, 61
2, 314928, Control_c, 0, 64, 58
2, 314933, Note_on_c, 0, 68, 0
2, 314947, Control_c, 0, 64, 58
2, 314955, Note_on_c, 0, 52, 0
2, 314985, Control_c, 0, 64, 57
2, 315133, Note_on_c, 0, 70, 71
2, 315139, Note_on_c, 0, 71, 0
2, 315140, Note_on_c, 0, 61, 58
2, 315178, Note_on_c, 0, 56, 0
2, 315235, Control_c, 0, 64, 57
2, 315350, Control_c, 0, 64, 56
2, 315377, Note_on_c, 0, 71, 73
2, 315385, Note_on_c, 0, 51, 51
2, 315402, Note_on_c, 0, 70, 0
2, 315408, Control_c, 0, 64, 56
2, 315427, Control_c, 0, 64, 55
2, 315446, Control_c, 0, 64, 55
2, 315465, Control_c, 0, 64, 54
2, 315484, Control_c, 0, 64, 53
2, 315504, Control_c, 0, 64, 52
2, 315508, Note_on_c, 0, 49, 0
2, 315522, Control_c, 0, 64, 49
2, 315542, Control_c, 0, 64, 46
2, 315561, Control_c, 0, 64, 42
2, 315581, Control_c, 0, 64, 36
2, 315599, Control_c, 0, 64, 21
2, 315619, Control_c, 0, 64, 0
2, 315642, Note_on_c, 0, 73, 72
2, 315644, Note_on_c, 0, 51, 0
2, 315651, Note_on_c, 0, 52, 52
2, 315661, Note_on_c, 0, 71, 0
2, 315792, Control_c, 0, 64, 39
2, 315811, Control_c, 0, 64, 59
2, 315830, Control_c, 0, 64, 64
2, 315850, Control_c, 0, 64, 65
2, 315865, Note_on_c, 0, 49, 53
2, 315867, Note_on_c, 0, 52, 0
2, 315868, Control_c, 0, 64, 66
2, 315885, Note_on_c, 0, 70, 70
2, 315888, Control_c, 0, 64, 68
2, 315894, Note_on_c, 0, 73, 0
2, 315907, Control_c, 0, 64, 73
2, 315926, Control_c, 0, 64, 80
2, 315945, Control_c, 0, 64, 86
2, 315946, Note_on_c, 0, 49, 0
2, 315964, Control_c, 0, 64, 88
2, 316079, Control_c, 0, 64, 87
2, 316099, Control_c, 0, 64, 85
2, 316118, Control_c, 0, 64, 83
2, 316137, Control_c, 0, 64, 81
2, 316156, Control_c, 0, 64, 81
2, 316164, Note_on_c, 0, 58, 47
2, 316166, Note_on_c, 0, 70, 0
2, 316173, Control_c, 0, 64, 77
2, 316178, Note_on_c, 0, 66, 63
2, 316192, Control_c, 0, 64, 69
2, 316211, Control_c, 0, 64, 62
2, 316230, Control_c, 0, 64, 55
2, 316250, Control_c, 0, 64, 53
2, 316269, Control_c, 0, 64, 51
2, 316288, Control_c, 0, 64, 48
2, 316307, Control_c, 0, 64, 46
2, 316327, Control_c, 0, 64, 45
2, 316365, Control_c, 0, 64, 46
2, 316404, Control_c, 0, 64, 46
2, 316419, Note_on_c, 0, 61, 0
2, 316422, Note_on_c, 0, 76, 0
2, 316447, Note_on_c, 0, 75, 67
2, 316457, Note_on_c, 0, 59, 50
2, 316461, Control_c, 0, 64, 47
2, 316499, Control_c, 0, 64, 47
2, 316519, Control_c, 0, 64, 48
2, 316538, Control_c, 0, 64, 49
2, 316697, Note_on_c, 0, 76, 63
2, 316714, Note_on_c, 0, 61, 51
2, 316720, Note_on_c, 0, 59, 0
2, 316724, Note_on_c, 0, 75, 0
2, 316902, Control_c, 0, 64, 48
2, 316920, Control_c, 0, 64, 48
2, 316941, Note_on_c, 0, 75, 77
2, 316943, Note_on_c, 0, 61, 0
2, 316947, Note_on_c, 0, 59, 50
2, 316949, Note_on_c, 0, 76, 0
2, 316960, Control_c, 0, 64, 47
2, 316978, Control_c, 0, 64, 47
2, 316998, Control_c, 0, 64, 46
2, 317017, Control_c, 0, 64, 45
2, 317035, Control_c, 0, 64, 44
2, 317055, Control_c, 0, 64, 43
2, 317074, Control_c, 0, 64, 42
2, 317094, Control_c, 0, 64, 41
2, 317112, Control_c, 0, 64, 40
2, 317132, Control_c, 0, 64, 39
2, 317151, Control_c, 0, 64, 38
2, 317170, Control_c, 0, 64, 37
2, 317189, Control_c, 0, 64, 35
2, 317198, Note_on_c, 0, 76, 65
2, 317200, Note_on_c, 0, 75, 0
2, 317209, Control_c, 0, 64, 34
2, 317214, Note_on_c, 0, 61, 50
2, 317218, Note_on_c, 0, 59, 0
2, 317228, Control_c, 0, 64, 31
2, 317247, Control_c, 0, 64, 31
2, 317266, Control_c, 0, 64, 30
2, 317286, Control_c, 0, 64, 29
2, 317304, Control_c, 0, 64, 28
2, 317405, Control_c, 0, 64, 30
2, 317424, Control_c, 0, 64, 35
2, 317435, Note_on_c, 0, 58, 0
2, 317443, Control_c, 0, 64, 45
2, 317445, Note_on_c, 0, 56, 55
2, 317454, Note_on_c, 0, 66, 0
2, 317462, Control_c, 0, 64, 54
2, 317482, Control_c, 0, 64, 57
2, 317500, Control_c, 0, 64, 57
2, 317520, Control_c, 0, 64, 59
2, 317539, Control_c, 0, 64, 59
2, 317577, Control_c, 0, 64, 60
2, 317597, Control_c, 0, 64, 61
2, 317616, Control_c, 0, 64, 61
2, 317634, Note_on_c, 0, 76, 0
2, 317654, Control_c, 0, 64, 62
2, 317711, Note_on_c, 0, 54, 62
2, 317713, Note_on_c, 0, 56, 0
2, 317750, Control_c, 0, 64, 61
2, 317769, Control_c, 0, 64, 59
2, 317788, Control_c, 0, 64, 55
2, 317808, Control_c, 0, 64, 52
2, 317825, Note_on_c, 0, 61, 0
2, 317827, Control_c, 0, 64, 51
2, 317865, Control_c, 0, 64, 53
2, 317883, Control_c, 0, 64, 56
2, 317901, Control_c, 0, 64, 59
2, 317920, Control_c, 0, 64, 62
2, 317932, Note_on_c, 0, 54, 0
2, 317939, Control_c, 0, 64, 64
2, 317953, Note_on_c, 0, 56, 63
2, 317959, Control_c, 0, 64, 65
2, 317978, Control_c, 0, 64, 66
2, 317997, Control_c, 0, 64, 67
2, 318016, Control_c, 0, 64, 68
2, 318035, Control_c, 0, 64, 70
2, 318054, Control_c, 0, 64, 71
2, 318150, Control_c, 0, 64, 71
2, 318170, Control_c, 0, 64, 70
2, 318189, Control_c, 0, 64, 69
2, 318204, Note_on_c, 0, 56, 0
2, 318208, Control_c, 0, 64, 69
2, 318227, Control_c, 0, 64, 67
2, 318238, Note_on_c, 0, 75, 66
2, 318247, Control_c, 0, 64, 66
2, 318247, Note_on_c, 0, 57, 52
2, 318256, Note_on_c, 0, 66, 42
2, 318259, Note_on_c, 0, 71, 55
2, 318265, Control_c, 0, 64, 64
2, 318285, Control_c, 0, 64, 61
2, 318304, Control_c, 0, 64, 56
2, 318324, Control_c, 0, 64, 50
2, 318342, Control_c, 0, 64, 43
2, 318362, Control_c, 0, 64, 38
2, 318381, Control_c, 0, 64, 37
2, 318419, Control_c, 0, 64, 38
2, 318498, Note_on_c, 0, 73, 72
2, 318502, Note_on_c, 0, 66, 0
2, 318505, Note_on_c, 0, 64, 49
2, 318511, Note_on_c, 0, 75, 0
2, 318515, Control_c, 0, 64, 38
2, 318744, Note_on_c, 0, 64, 0
2, 318748, Note_on_c, 0, 75, 73
2, 318751, Note_on_c, 0, 66, 52
2, 318761, Note_on_c, 0, 73, 0
2, 318765, Control_c, 0, 64, 39
2, 318804, Control_c, 0, 64, 39
2, 318822, Control_c, 0, 64, 40
2, 318842, Control_c, 0, 64, 41
2, 318861, Control_c, 0, 64, 42
2, 318880, Control_c, 0, 64, 42
2, 318899, Control_c, 0, 64, 43
2, 318919, Control_c, 0, 64, 44
2, 318938, Control_c, 0, 64, 45
2, 318957, Control_c, 0, 64, 47
2, 318976, Control_c, 0, 64, 48
2, 318984, Note_on_c, 0, 66, 0
2, 318995, Control_c, 0, 64, 49
2, 318998, Note_on_c, 0, 73, 71
2, 319009, Note_on_c, 0, 75, 0
2, 319014, Control_c, 0, 64, 50
2, 319014, Note_on_c, 0, 64, 54
2, 319033, Control_c, 0, 64, 51
2, 319149, Control_c, 0, 64, 51
2, 319168, Control_c, 0, 64, 49
2, 319187, Control_c, 0, 64, 49
2, 319206, Note_on_c, 0, 64, 0
2, 319259, Note_on_c, 0, 75, 62
2, 319264, Control_c, 0, 64, 49
2, 319265, Note_on_c, 0, 73, 0
2, 319266, Note_on_c, 0, 66, 52
2, 319284, Control_c, 0, 64, 50
2, 319303, Control_c, 0, 64, 53
2, 319323, Control_c, 0, 64, 56
2, 319342, Control_c, 0, 64, 57
2, 319361, Control_c, 0, 64, 59
2, 319380, Control_c, 0, 64, 60
2, 319400, Control_c, 0, 64, 61
2, 319419, Control_c, 0, 64, 63
2, 319438, Control_c, 0, 64, 64
2, 319468, Note_on_c, 0, 57, 0
2, 319501, Note_on_c, 0, 56, 53
2, 319507, Note_on_c, 0, 71, 0
2, 319553, Control_c, 0, 64, 63
2, 319572, Control_c, 0, 64, 63
2, 319629, Control_c, 0, 64, 62
2, 319649, Control_c, 0, 64, 62
2, 319657, Note_on_c, 0, 75, 0
2, 319668, Control_c, 0, 64, 61
2, 319688, Control_c, 0, 64, 61
2, 319706, Control_c, 0, 64, 60
2, 319719, Note_on_c, 0, 66, 0
2, 319726, Control_c, 0, 64, 59
2, 319745, Control_c, 0, 64, 59
2, 319764, Control_c, 0, 64, 58
2, 319764, Note_on_c, 0, 56, 0
2, 319772, Note_on_c, 0, 54, 54
2, 319783, Control_c, 0, 64, 57
2, 319803, Control_c, 0, 64, 56
2, 319841, Control_c, 0, 64, 55
2, 319860, Control_c, 0, 64, 53
2, 319880, Control_c, 0, 64, 52
2, 319918, Control_c, 0, 64, 52
2, 319937, Control_c, 0, 64, 51
2, 319975, Control_c, 0, 64, 51
2, 320033, Note_on_c, 0, 57, 64
2, 320052, Control_c, 0, 64, 50
2, 320071, Note_on_c, 0, 54, 0
2, 320186, Control_c, 0, 64, 51
2, 320263, Control_c, 0, 64, 51
2, 320310, Note_on_c, 0, 56, 63
2, 320333, Note_on_c, 0, 57, 0
2, 320379, Control_c, 0, 64, 52
2, 320417, Control_c, 0, 64, 52
2, 320474, Control_c, 0, 64, 53
2, 320566, Note_on_c, 0, 65, 54
2, 320589, Control_c, 0, 64, 53
2, 320628, Control_c, 0, 64, 54
2, 320724, Control_c, 0, 64, 54
2, 320825, Note_on_c, 0, 74, 64
2, 320838, Note_on_c, 0, 59, 57
2, 320850, Note_on_c, 0, 65, 0
2, 320859, Control_c, 0, 64, 55
2, 321031, Control_c, 0, 64, 55
2, 321068, Note_on_c, 0, 73, 75
2, 321069, Control_c, 0, 64, 56
2, 321100, Note_on_c, 0, 74, 0
2, 321108, Control_c, 0, 64, 56
2, 321128, Control_c, 0, 64, 57
2, 321146, Control_c, 0, 64, 57
2, 321185, Control_c, 0, 64, 58
2, 321204, Control_c, 0, 64, 58
2, 321320, Control_c, 0, 64, 58
2, 321334, Note_on_c, 0, 71, 67
2, 321340, Note_on_c, 0, 62, 72
2, 321358, Control_c, 0, 64, 57
2, 321367, Note_on_c, 0, 73, 0
2, 321396, Control_c, 0, 64, 57
2, 321454, Control_c, 0, 64, 56
2, 321549, Control_c, 0, 64, 57
2, 321569, Control_c, 0, 64, 58
2, 321588, Control_c, 0, 64, 59
2, 321591, Note_on_c, 0, 73, 74
2, 321608, Control_c, 0, 64, 59
2, 321626, Control_c, 0, 64, 61
2, 321626, Note_on_c, 0, 71, 0
2, 321646, Control_c, 0, 64, 62
2, 321665, Control_c, 0, 64, 62
2, 321684, Control_c, 0, 64, 63
2, 321684, Note_on_c, 0, 59, 0
2, 321723, Control_c, 0, 64, 63
2, 321743, Control_c, 0, 64, 64
2, 321762, Control_c, 0, 64, 64
2, 321822, Note_on_c, 0, 74, 62
2, 321839, Control_c, 0, 64, 65
2, 321842, Note_on_c, 0, 73, 0
2, 321848, Note_on_c, 0, 65, 46
2, 321915, Control_c, 0, 64, 65
2, 322085, Note_on_c, 0, 71, 69
2, 322107, Control_c, 0, 64, 65
2, 322159, Note_on_c, 0, 74, 0
2, 322184, Control_c, 0, 64, 64
2, 322261, Control_c, 0, 64, 64
2, 322352, Note_on_c, 0, 68, 62
2, 322353, Note_on_c, 0, 59, 48
2, 322355, Note_on_c, 0, 71, 0
2, 322434, Control_c, 0, 64, 63
2, 322453, Control_c, 0, 64, 62
2, 322472, Control_c, 0, 64, 61
2, 322487, Note_on_c, 0, 56, 0
2, 322492, Control_c, 0, 64, 61
2, 322510, Control_c, 0, 64, 60
2, 322530, Control_c, 0, 64, 57
2, 322549, Control_c, 0, 64, 55
2, 322569, Control_c, 0, 64, 54
2, 322614, Note_on_c, 0, 69, 59
2, 322623, Note_on_c, 0, 68, 0
2, 322664, Control_c, 0, 64, 55
2, 322684, Control_c, 0, 64, 55
2, 322701, Control_c, 0, 64, 57
2, 322720, Control_c, 0, 64, 58
2, 322739, Control_c, 0, 64, 59
2, 322759, Control_c, 0, 64, 59
2, 322778, Control_c, 0, 64, 60
2, 322796, Control_c, 0, 64, 61
2, 322816, Control_c, 0, 64, 62
2, 322835, Control_c, 0, 64, 63
2, 322845, Note_on_c, 0, 71, 61
2, 322854, Control_c, 0, 64, 63
2, 322861, Note_on_c, 0, 69, 0
2, 322912, Control_c, 0, 64, 64
2, 322949, Note_on_c, 0, 65, 0
2, 322971, Note_on_c, 0, 62, 0
2, 323103, Note_on_c, 0, 59, 0
2, 323106, Note_on_c, 0, 68, 62
2, 323119, Note_on_c, 0, 71, 0
2, 323141, Control_c, 0, 64, 63
2, 323200, Control_c, 0, 64, 63
2, 323295, Control_c, 0, 64, 62
2, 323314, Control_c, 0, 64, 62
2, 323349, Note_on_c, 0, 68, 0
2, 323372, Control_c, 0, 64, 61
2, 323376, Note_on_c, 0, 65, 51
2, 323391, Control_c, 0, 64, 61
2, 323429, Control_c, 0, 64, 60
2, 323468, Control_c, 0, 64, 59
2, 323506, Control_c, 0, 64, 59
2, 323564, Control_c, 0, 64, 58
2, 323576, Note_on_c, 0, 65, 0
2, 323583, Control_c, 0, 64, 58
2, 323619, Note_on_c, 0, 74, 59
2, 323641, Control_c, 0, 64, 57
2, 323680, Control_c, 0, 64, 57
2, 323698, Control_c, 0, 64, 56
2, 323718, Control_c, 0, 64, 56
2, 323755, Control_c, 0, 64, 55
2, 323794, Control_c, 0, 64, 55
2, 323852, Control_c, 0, 64, 55
2, 323859, Note_on_c, 0, 53, 34
2, 323863, Note_on_c, 0, 73, 62
2, 323867, Note_on_c, 0, 61, 45
2, 323871, Control_c, 0, 64, 57
2, 323873, Note_on_c, 0, 56, 38
2, 323882, Note_on_c, 0, 74, 0
2, 323890, Control_c, 0, 64, 58
2, 323909, Control_c, 0, 64, 59
2, 323929, Control_c, 0, 64, 61
2, 323948, Control_c, 0, 64, 62
2, 323967, Control_c, 0, 64, 64
2, 323986, Control_c, 0, 64, 65
2, 324006, Control_c, 0, 64, 68
2, 324024, Control_c, 0, 64, 71
2, 324044, Control_c, 0, 64, 76
2, 324063, Control_c, 0, 64, 81
2, 324067, Note_on_c, 0, 53, 0
2, 324067, Note_on_c, 0, 56, 0
2, 324083, Control_c, 0, 64, 85
2, 324104, Control_c, 0, 64, 88
2, 324124, Control_c, 0, 64, 89
2, 324135, Note_on_c, 0, 71, 71
2, 324142, Note_on_c, 0, 73, 0
2, 324143, Control_c, 0, 64, 89
2, 324162, Control_c, 0, 64, 90
2, 324208, Note_on_c, 0, 71, 0
2, 324296, Control_c, 0, 64, 89
2, 324315, Control_c, 0, 64, 87
2, 324335, Control_c, 0, 64, 86
2, 324354, Control_c, 0, 64, 84
2, 324373, Control_c, 0, 64, 82
2, 324392, Control_c, 0, 64, 79
2, 324412, Control_c, 0, 64, 76
2, 324414, Note_on_c, 0, 70, 68
2, 324421, Note_on_c, 0, 54, 43
2, 324430, Control_c, 0, 64, 74
2, 324450, Control_c, 0, 64, 71
2, 324469, Control_c, 0, 64, 67
2, 324489, Control_c, 0, 64, 63
2, 324507, Control_c, 0, 64, 59
2, 324530, Control_c, 0, 64, 55
2, 324545, Note_on_c, 0, 61, 0
2, 324549, Control_c, 0, 64, 52
2, 324567, Control_c, 0, 64, 49
2, 324587, Control_c, 0, 64, 48
2, 324661, Control_c, 0, 64, 48
2, 324680, Control_c, 0, 64, 46
2, 324687, Note_on_c, 0, 68, 65
2, 324690, Note_on_c, 0, 52, 42
2, 324700, Control_c, 0, 64, 45
2, 324738, Note_on_c, 0, 54, 0
2, 324939, Note_on_c, 0, 66, 71
2, 324945, Note_on_c, 0, 51, 47
2, 324957, Note_on_c, 0, 52, 0
2, 325144, Control_c, 0, 64, 46
2, 325186, Note_on_c, 0, 64, 79
2, 325193, Note_on_c, 0, 49, 53
2, 325200, Note_on_c, 0, 51, 0
2, 325221, Control_c, 0, 64, 46
2, 325223, Note_on_c, 0, 66, 0
2, 325238, Note_on_c, 0, 68, 0
2, 325469, Note_on_c, 0, 63, 71
2, 325479, Note_on_c, 0, 49, 0
2, 325481, Note_on_c, 0, 47, 40
2, 325517, Note_on_c, 0, 64, 0
2, 325708, Note_on_c, 0, 70, 0
2, 325715, Note_on_c, 0, 66, 74
2, 325730, Note_on_c, 0, 49, 42
2, 325761, Note_on_c, 0, 47, 0
2, 325874, Control_c, 0, 64, 47
2, 325892, Control_c, 0, 64, 47
2, 325912, Control_c, 0, 64, 48
2, 325931, Control_c, 0, 64, 49
2, 325950, Control_c, 0, 64, 49
2, 325969, Control_c, 0, 64, 51
2, 325989, Control_c, 0, 64, 53
2, 325992, Note_on_c, 0, 71, 75
2, 325994, Note_on_c, 0, 49, 0
2, 326007, Note_on_c, 0, 51, 51
2, 326008, Control_c, 0, 64, 54
2, 326010, Note_on_c, 0, 66, 0
2, 326027, Control_c, 0, 64, 54
2, 326066, Control_c, 0, 64, 55
2, 326123, Control_c, 0, 64, 54
2, 326200, Control_c, 0, 64, 54
2, 326251, Note_on_c, 0, 41, 56
2, 326252, Note_on_c, 0, 62, 66
2, 326274, Note_on_c, 0, 51, 0
2, 326282, Note_on_c, 0, 63, 0
2, 326295, Control_c, 0, 64, 53
2, 326559, Note_on_c, 0, 42, 62
2, 326559, Note_on_c, 0, 62, 0
2, 326568, Note_on_c, 0, 61, 70
2, 326591, Note_on_c, 0, 41, 0
2, 326680, Control_c, 0, 64, 54
2, 326852, Control_c, 0, 64, 54
2, 326857, Note_on_c, 0, 63, 66
2, 326866, Note_on_c, 0, 61, 0
2, 327026, Control_c, 0, 64, 55
2, 327120, Note_on_c, 0, 71, 0
2, 327135, Note_on_c, 0, 70, 74
2, 327142, Note_on_c, 0, 64, 66
2, 327162, Note_on_c, 0, 63, 0
2, 327179, Control_c, 0, 64, 55
2, 327332, Control_c, 0, 64, 56
2, 327371, Control_c, 0, 64, 56
2, 327442, Note_on_c, 0, 49, 49
2, 327442, Note_on_c, 0, 68, 79
2, 327463, Note_on_c, 0, 70, 0
2, 327467, Control_c, 0, 64, 57
2, 327525, Control_c, 0, 64, 57
2, 327620, Control_c, 0, 64, 58
2, 327774, Control_c, 0, 64, 57
2, 327812, Control_c, 0, 64, 56
2, 327832, Control_c, 0, 64, 55
2, 327838, Note_on_c, 0, 54, 50
2, 327840, Note_on_c, 0, 70, 85
2, 327851, Control_c, 0, 64, 53
2, 327870, Control_c, 0, 64, 49
2, 327889, Control_c, 0, 64, 47
2, 327897, Note_on_c, 0, 68, 0
2, 327909, Control_c, 0, 64, 46
2, 327928, Control_c, 0, 64, 45
2, 327947, Control_c, 0, 64, 44
2, 327966, Control_c, 0, 64, 43
2, 327986, Control_c, 0, 64, 43
2, 328254, Control_c, 0, 64, 43
2, 328270, Note_on_c, 0, 68, 64
2, 328292, Control_c, 0, 64, 44
2, 328323, Note_on_c, 0, 64, 0
2, 328389, Control_c, 0, 64, 44
2, 328523, Control_c, 0, 64, 45
2, 328580, Control_c, 0, 64, 45
2, 328651, Note_on_c, 0, 66, 56
2, 328720, Note_on_c, 0, 68, 0
2, 328811, Control_c, 0, 64, 45
2, 328830, Control_c, 0, 64, 44
2, 328869, Control_c, 0, 64, 44
2, 328907, Control_c, 0, 64, 43
2, 329099, Control_c, 0, 64, 43
2, 329118, Control_c, 0, 64, 44
2, 329138, Note_on_c, 0, 64, 48
2, 329157, Control_c, 0, 64, 44
2, 329174, Note_on_c, 0, 49, 0
2, 329175, Control_c, 0, 64, 46
2, 329180, Note_on_c, 0, 66, 0
2, 329195, Control_c, 0, 64, 48
2, 329214, Control_c, 0, 64, 51
2, 329234, Control_c, 0, 64, 52
2, 329252, Control_c, 0, 64, 55
2, 329272, Control_c, 0, 64, 57
2, 329291, Control_c, 0, 64, 60
2, 329310, Control_c, 0, 64, 62
2, 329329, Control_c, 0, 64, 64
2, 329349, Control_c, 0, 64, 65
2, 329368, Control_c, 0, 64, 65
2, 329387, Control_c, 0, 64, 66
2, 329406, Control_c, 0, 64, 66
2, 329426, Control_c, 0, 64, 67
2, 329445, Control_c, 0, 64, 68
2, 329464, Control_c, 0, 64, 68
2, 329483, Control_c, 0, 64, 69
2, 329503, Control_c, 0, 64, 69
2, 329655, Control_c, 0, 64, 69
2, 329714, Control_c, 0, 64, 68
2, 329771, Control_c, 0, 64, 68
2, 329848, Control_c, 0, 64, 67
2, 329867, Control_c, 0, 64, 67
2, 329886, Control_c, 0, 64, 64
2, 329887, Note_on_c, 0, 63, 49
2, 329889, Note_on_c, 0, 47, 28
2, 329893, Note_on_c, 0, 71, 58
2, 329906, Control_c, 0, 64, 60
2, 329925, Control_c, 0, 64, 52
2, 329944, Control_c, 0, 64, 46
2, 329951, Note_on_c, 0, 64, 0
2, 329963, Control_c, 0, 64, 37
2, 329983, Control_c, 0, 64, 9
2, 329989, Note_on_c, 0, 70, 0
2, 330001, Control_c, 0, 64, 0
2, 330005, Note_on_c, 0, 42, 0
2, 333126, Note_on_c, 0, 71, 0
2, 333162, Note_on_c, 0, 54, 0
2, 333170, Note_on_c, 0, 63, 0
2, 333193, Note_on_c, 0, 47, 0
2, 333194, End_track
0, 0, End_of_file
