0, 0, Header, 1, 2, 480
1, 0, Start_track
1, 0, Tempo, 500000
1, 0, Time_signature, 4, 2, 24, 8
1, 1, End_track
2,0,Start_track
2,0, Note_on_c, 0, 47, 43
2,1226, Note_on_c, 0, 51, 53
2,1307, Note_on_c, 0, 47, 0
2,2450, Note_on_c, 0, 56, 68
2,2532, Note_on_c, 0, 51, 0
2,3662, Note_on_c, 0, 52, 55
2,3719, Note_on_c, 0, 56, 0
2,4880, Note_on_c, 0, 49, 60
2,4987, Note_on_c, 0, 52, 0
2,6091, Note_on_c, 0, 58, 66
2,6245, Note_on_c, 0, 49, 0
2,7359, Note_on_c, 0, 59, 66
2,7417, Note_on_c, 0, 58, 0
2,7945, Note_on_c, 0, 58, 56
2,8019, Note_on_c, 0, 59, 0
2,8216, Note_on_c, 0, 56, 65
2,8317, Note_on_c, 0, 58, 0
2,8538, Note_on_c, 0, 54, 59
2,8591, Note_on_c, 0, 56, 0
2,9077, Note_on_c, 0, 52, 54
2,9105, Note_on_c, 0, 54, 0
2,9629, Note_on_c, 0, 51, 46
2,9635, Note_on_c, 0, 54, 66
2,9709, Note_on_c, 0, 51, 0
2,9712, Note_on_c, 0, 52, 0
2,9906, Note_on_c, 0, 49, 53
2,10000, Note_on_c, 0, 49, 0
2,10226, Note_on_c, 0, 52, 53
2,10775, Note_on_c, 0, 58, 64
2,10950, Note_on_c, 0, 54, 0
2,11294, Note_on_c, 0, 51, 38
2,11351, Note_on_c, 0, 52, 0
2,11570, Note_on_c, 0, 49, 49
2,11618, Note_on_c, 0, 51, 0
2,11864, Note_on_c, 0, 49, 0
2,11874, Note_on_c, 0, 63, 67
2,11876, Note_on_c, 0, 47, 49
2,11944, Note_on_c, 0, 58, 0
2,12144, Note_on_c, 0, 54, 41
2,12415, Note_on_c, 0, 58, 48
2,12475, Note_on_c, 0, 47, 0
2,12532, Note_on_c, 0, 54, 0
2,12982, Note_on_c, 0, 59, 69
2,13087, Note_on_c, 0, 63, 0
2,13507, Note_on_c, 0, 56, 52
2,13558, Note_on_c, 0, 58, 0
2,13781, Note_on_c, 0, 54, 51
2,13782, Note_on_c, 0, 56, 0
2,14045, Note_on_c, 0, 53, 40
2,14052, Note_on_c, 0, 54, 0
2,14058, Note_on_c, 0, 56, 67
2,14078, Note_on_c, 0, 59, 0
2,14348, Note_on_c, 0, 59, 44
2,14354, Note_on_c, 0, 53, 0
2,14618, Note_on_c, 0, 63, 44
2,14637, Note_on_c, 0, 59, 0
2,15152, Note_on_c, 0, 65, 66
2,15182, Note_on_c, 0, 56, 0
2,15669, Note_on_c, 0, 61, 52
2,15824, Note_on_c, 0, 63, 0
2,15921, Note_on_c, 0, 61, 0
2,15935, Note_on_c, 0, 59, 53
2,16249, Note_on_c, 0, 66, 66
2,16255, Note_on_c, 0, 58, 43
2,16282, Note_on_c, 0, 59, 0
2,16310, Note_on_c, 0, 65, 0
2,16780, Note_on_c, 0, 65, 56
2,16796, Note_on_c, 0, 59, 36
2,16805, Note_on_c, 0, 58, 0
2,16825, Note_on_c, 0, 66, 0
2,17045, Note_on_c, 0, 63, 65
2,17080, Note_on_c, 0, 65, 0
2,17329, Note_on_c, 0, 58, 41
2,17331, Note_on_c, 0, 61, 59
2,17350, Note_on_c, 0, 63, 0
2,17364, Note_on_c, 0, 59, 0
2,17876, Note_on_c, 0, 59, 54
2,17878, Note_on_c, 0, 56, 37
2,17890, Note_on_c, 0, 61, 0
2,17920, Note_on_c, 0, 58, 0
2,18412, Note_on_c, 0, 54, 34
2,18430, Note_on_c, 0, 58, 57
2,18467, Note_on_c, 0, 59, 0
2,18503, Note_on_c, 0, 56, 0
2,18696, Note_on_c, 0, 56, 65
2,18720, Note_on_c, 0, 58, 0
2,18952, Note_on_c, 0, 54, 0
2,18966, Note_on_c, 0, 53, 40
2,18969, Note_on_c, 0, 59, 63
2,19007, Note_on_c, 0, 56, 0
2,19250, Note_on_c, 0, 51, 40
2,19288, Note_on_c, 0, 53, 0
2,19501, Note_on_c, 0, 51, 0
2,19506, Note_on_c, 0, 49, 40
2,19774, Note_on_c, 0, 51, 35
2,19811, Note_on_c, 0, 49, 0
2,20048, Note_on_c, 0, 58, 38
2,20072, Note_on_c, 0, 52, 35
2,20079, Note_on_c, 0, 59, 0
2,20094, Note_on_c, 0, 51, 0
2,20318, Note_on_c, 0, 58, 0
2,20319, Note_on_c, 0, 56, 55
2,20623, Note_on_c, 0, 59, 67
2,20624, Note_on_c, 0, 54, 35
2,20655, Note_on_c, 0, 56, 0
2,20697, Note_on_c, 0, 52, 0
2,20908, Note_on_c, 0, 56, 53
2,20914, Note_on_c, 0, 54, 0
2,21169, Note_on_c, 0, 57, 49
2,21181, Note_on_c, 0, 56, 0
2,21191, Note_on_c, 0, 51, 31
2,21449, Note_on_c, 0, 49, 43
2,21454, Note_on_c, 0, 51, 0
2,21744, Note_on_c, 0, 49, 0
2,21746, Note_on_c, 0, 47, 40
2,21773, Note_on_c, 0, 63, 67
2,21949, Note_on_c, 0, 57, 0
2,22061, Note_on_c, 0, 59, 0
2,22321, Note_on_c, 0, 56, 48
2,22594, Note_on_c, 0, 54, 36
2,22893, Note_on_c, 0, 68, 71
2,22897, Note_on_c, 0, 52, 34
2,22901, Note_on_c, 0, 56, 0
2,22955, Note_on_c, 0, 63, 0
2,22969, Note_on_c, 0, 54, 0
2,23222, Note_on_c, 0, 59, 28
2,23340, Note_on_c, 0, 47, 0
2,23437, Note_on_c, 0, 63, 42
2,23684, Note_on_c, 0, 48, 35
2,23942, Note_on_c, 0, 52, 0
2,23962, Note_on_c, 0, 49, 38
2,23975, Note_on_c, 0, 64, 66
2,24017, Note_on_c, 0, 48, 0
2,24074, Note_on_c, 0, 63, 0
2,24181, Note_on_c, 0, 68, 0
2,24234, Note_on_c, 0, 51, 57
2,24251, Note_on_c, 0, 49, 0
2,24263, Note_on_c, 0, 59, 0
2,24482, Note_on_c, 0, 51, 0
2,24500, Note_on_c, 0, 52, 57
2,24501, Note_on_c, 0, 61, 50
2,24746, Note_on_c, 0, 49, 55
2,24756, Note_on_c, 0, 61, 0
2,24760, Note_on_c, 0, 52, 0
2,24768, Note_on_c, 0, 59, 50
2,25058, Note_on_c, 0, 54, 55
2,25063, Note_on_c, 0, 61, 70
2,25065, Note_on_c, 0, 58, 40
2,25074, Note_on_c, 0, 59, 0
2,25090, Note_on_c, 0, 64, 0
2,25174, Note_on_c, 0, 49, 0
2,25351, Note_on_c, 0, 64, 40
2,25600, Note_on_c, 0, 68, 51
2,25668, Note_on_c, 0, 64, 0
2,25866, Note_on_c, 0, 52, 42
2,25902, Note_on_c, 0, 54, 0
2,26145, Note_on_c, 0, 70, 74
2,26162, Note_on_c, 0, 58, 0
2,26164, Note_on_c, 0, 52, 0
2,26181, Note_on_c, 0, 51, 37
2,26309, Note_on_c, 0, 68, 0
2,26417, Note_on_c, 0, 51, 0
2,26448, Note_on_c, 0, 49, 42
2,26717, Note_on_c, 0, 51, 42
2,26720, Note_on_c, 0, 66, 42
2,26752, Note_on_c, 0, 49, 0
2,26930, Note_on_c, 0, 61, 0
2,26988, Note_on_c, 0, 66, 0
2,26996, Note_on_c, 0, 64, 53
2,27310, Note_on_c, 0, 51, 0
2,27319, Note_on_c, 0, 56, 29
2,27322, Note_on_c, 0, 71, 67
2,27332, Note_on_c, 0, 64, 0
2,27354, Note_on_c, 0, 63, 42
2,27380, Note_on_c, 0, 70, 0
2,27852, Note_on_c, 0, 71, 0
2,27856, Note_on_c, 0, 44, 33
2,27862, Note_on_c, 0, 70, 64
2,27875, Note_on_c, 0, 64, 48
2,27876, Note_on_c, 0, 63, 0
2,27888, Note_on_c, 0, 56, 0
2,28105, Note_on_c, 0, 70, 0
2,28121, Note_on_c, 0, 68, 64
2,28413, Note_on_c, 0, 68, 0
2,28428, Note_on_c, 0, 66, 58
2,28442, Note_on_c, 0, 64, 0
2,28443, Note_on_c, 0, 63, 38
2,28966, Note_on_c, 0, 46, 35
2,28969, Note_on_c, 0, 64, 58
2,28976, Note_on_c, 0, 63, 0
2,28987, Note_on_c, 0, 66, 0
2,28988, Note_on_c, 0, 61, 41
2,28999, Note_on_c, 0, 44, 0
2,29498, Note_on_c, 0, 64, 0
2,29514, Note_on_c, 0, 66, 59
2,29529, Note_on_c, 0, 63, 43
2,29531, Note_on_c, 0, 47, 38
2,29536, Note_on_c, 0, 46, 0
2,29538, Note_on_c, 0, 61, 0
2,29543, Note_on_c, 0, 59, 20
2,29748, Note_on_c, 0, 63, 0
2,29797, Note_on_c, 0, 61, 45
2,29870, Note_on_c, 0, 47, 0
2,30046, Note_on_c, 0, 61, 0
2,30056, Note_on_c, 0, 64, 55
2,30076, Note_on_c, 0, 58, 32
2,30240, Note_on_c, 0, 59, 0
2,30323, Note_on_c, 0, 56, 52
2,30373, Note_on_c, 0, 58, 0
2,30626, Note_on_c, 0, 70, 73
2,30629, Note_on_c, 0, 54, 43
2,30685, Note_on_c, 0, 56, 0
2,30737, Note_on_c, 0, 66, 0
2,31082, Note_on_c, 0, 64, 0
2,31193, Note_on_c, 0, 63, 51
2,31473, Note_on_c, 0, 61, 39
2,31544, Note_on_c, 0, 63, 0
2,31743, Note_on_c, 0, 75, 75
2,31762, Note_on_c, 0, 59, 42
2,31778, Note_on_c, 0, 70, 0
2,31838, Note_on_c, 0, 61, 0
2,32045, Note_on_c, 0, 66, 37
2,32105, Note_on_c, 0, 54, 0
2,32291, Note_on_c, 0, 70, 53
2,32465, Note_on_c, 0, 66, 0
2,32545, Note_on_c, 0, 55, 50
2,32819, Note_on_c, 0, 56, 48
2,32821, Note_on_c, 0, 71, 72
2,32844, Note_on_c, 0, 55, 0
2,32869, Note_on_c, 0, 59, 0
2,32890, Note_on_c, 0, 70, 0
2,32922, Note_on_c, 0, 75, 0
2,33083, Note_on_c, 0, 58, 59
2,33117, Note_on_c, 0, 56, 0
2,33335, Note_on_c, 0, 68, 67
2,33336, Note_on_c, 0, 58, 0
2,33338, Note_on_c, 0, 59, 68
2,33579, Note_on_c, 0, 56, 61
2,33588, Note_on_c, 0, 68, 0
2,33592, Note_on_c, 0, 66, 63
2,33609, Note_on_c, 0, 59, 0
2,33795, Note_on_c, 0, 66, 0
2,33883, Note_on_c, 0, 65, 54
2,33883, Note_on_c, 0, 68, 80
2,33887, Note_on_c, 0, 61, 50
2,33920, Note_on_c, 0, 71, 0
2,33950, Note_on_c, 0, 56, 0
2,34169, Note_on_c, 0, 71, 63
2,34184, Note_on_c, 0, 65, 0
2,34439, Note_on_c, 0, 75, 67
2,34473, Note_on_c, 0, 71, 0
2,34669, Note_on_c, 0, 59, 61
2,34731, Note_on_c, 0, 61, 0
2,34947, Note_on_c, 0, 58, 51
2,34949, Note_on_c, 0, 77, 73
2,35018, Note_on_c, 0, 59, 0
2,35038, Note_on_c, 0, 75, 0
2,35219, Note_on_c, 0, 56, 59
2,35232, Note_on_c, 0, 58, 0
2,35519, Note_on_c, 0, 58, 44
2,35522, Note_on_c, 0, 73, 68
2,35531, Note_on_c, 0, 56, 0
2,35801, Note_on_c, 0, 71, 74
2,35810, Control_c, 0, 64, 37
2,35813, Note_on_c, 0, 68, 0
2,35830, Control_c, 0, 64, 52
2,35833, Note_on_c, 0, 77, 0
2,35848, Control_c, 0, 64, 60
2,35868, Control_c, 0, 64, 62
2,35869, Note_on_c, 0, 73, 0
2,35887, Control_c, 0, 64, 63
2,35906, Control_c, 0, 64, 63
2,36002, Control_c, 0, 64, 63
2,36040, Control_c, 0, 64, 63
2,36059, Control_c, 0, 64, 63
2,36079, Control_c, 0, 64, 61
2,36093, Note_on_c, 0, 78, 75
2,36098, Control_c, 0, 64, 56
2,36099, Note_on_c, 0, 58, 0
2,36112, Note_on_c, 0, 70, 59
2,36116, Note_on_c, 0, 71, 0
2,36117, Control_c, 0, 64, 36
2,36120, Note_on_c, 0, 63, 34
2,36136, Control_c, 0, 64, 0
2,36233, Control_c, 0, 64, 43
2,36251, Control_c, 0, 64, 57
2,36271, Control_c, 0, 64, 59
2,36290, Control_c, 0, 64, 61
2,36310, Control_c, 0, 64, 63
2,36328, Control_c, 0, 64, 63
2,36348, Control_c, 0, 64, 64
2,36367, Control_c, 0, 64, 65
2,36386, Control_c, 0, 64, 66
2,36419, Note_on_c, 0, 78, 0
2,36482, Control_c, 0, 64, 65
2,36520, Control_c, 0, 64, 65
2,36539, Control_c, 0, 64, 64
2,36578, Control_c, 0, 64, 63
2,36616, Control_c, 0, 64, 63
2,36636, Control_c, 0, 64, 62
2,36647, Note_on_c, 0, 51, 34
2,36650, Note_on_c, 0, 71, 56
2,36653, Note_on_c, 0, 77, 59
2,36655, Control_c, 0, 64, 59
2,36673, Note_on_c, 0, 70, 0
2,36674, Control_c, 0, 64, 54
2,36693, Control_c, 0, 64, 46
2,36714, Control_c, 0, 64, 36
2,36723, Note_on_c, 0, 63, 0
2,36732, Control_c, 0, 64, 20
2,36752, Control_c, 0, 64, 0
2,36930, Note_on_c, 0, 75, 68
2,36954, Note_on_c, 0, 77, 0
2,37176, Note_on_c, 0, 75, 0
2,37198, Note_on_c, 0, 73, 58
2,37217, Note_on_c, 0, 70, 39
2,37219, Note_on_c, 0, 71, 0
2,37718, Note_on_c, 0, 70, 0
2,37721, Note_on_c, 0, 53, 34
2,37722, Note_on_c, 0, 71, 57
2,37739, Note_on_c, 0, 68, 42
2,37820, Note_on_c, 0, 51, 0
2,37823, Note_on_c, 0, 73, 0
2,38222, Note_on_c, 0, 71, 0
2,38271, Note_on_c, 0, 54, 47
2,38273, Note_on_c, 0, 70, 54
2,38277, Note_on_c, 0, 68, 0
2,38291, Note_on_c, 0, 66, 32
2,38296, Note_on_c, 0, 53, 0
2,38540, Note_on_c, 0, 68, 63
2,38740, Note_on_c, 0, 66, 0
2,38797, Note_on_c, 0, 68, 0
2,38804, Note_on_c, 0, 65, 61
2,38804, Note_on_c, 0, 71, 67
2,38813, Note_on_c, 0, 54, 0
2,38813, Note_on_c, 0, 70, 0
2,38818, Note_on_c, 0, 56, 41
2,39054, Note_on_c, 0, 65, 0
2,39070, Note_on_c, 0, 63, 58
2,39324, Note_on_c, 0, 63, 0
2,39347, Note_on_c, 0, 61, 53
2,39349, Note_on_c, 0, 58, 50
2,39378, Note_on_c, 0, 56, 0
2,39607, Note_on_c, 0, 71, 0
2,39615, Note_on_c, 0, 61, 0
2,39617, Note_on_c, 0, 63, 52
2,39896, Note_on_c, 0, 63, 0
2,39899, Note_on_c, 0, 70, 51
2,39905, Note_on_c, 0, 64, 47
2,39911, Note_on_c, 0, 54, 35
2,39950, Note_on_c, 0, 58, 0
2,40178, Note_on_c, 0, 70, 0
2,40188, Note_on_c, 0, 68, 55
2,40475, Note_on_c, 0, 47, 71
2,40480, Note_on_c, 0, 68, 0
2,40500, Note_on_c, 0, 59, 46
2,40506, Note_on_c, 0, 66, 48
2,40750, Note_on_c, 0, 68, 58
2,40751, Note_on_c, 0, 66, 0
2,40817, Note_on_c, 0, 54, 0
2,40986, Note_on_c, 0, 68, 0
2,41006, Note_on_c, 0, 69, 53
2,41010, Note_on_c, 0, 64, 0
2,41028, Note_on_c, 0, 63, 41
2,41035, Note_on_c, 0, 54, 43
2,41284, Note_on_c, 0, 63, 0
2,41286, Note_on_c, 0, 52, 59
2,41286, Note_on_c, 0, 61, 56
2,41336, Note_on_c, 0, 54, 0
2,41359, Note_on_c, 0, 59, 0
2,41562, Note_on_c, 0, 51, 72
2,41598, Note_on_c, 0, 61, 0
2,41600, Note_on_c, 0, 59, 64
2,41601, Note_on_c, 0, 54, 48
2,41639, Note_on_c, 0, 69, 0
2,41675, Note_on_c, 0, 47, 0
2,41694, Note_on_c, 0, 52, 0
2,41845, Note_on_c, 0, 61, 65
2,41855, Note_on_c, 0, 59, 0
2,42114, Note_on_c, 0, 68, 60
2,42120, Note_on_c, 0, 61, 0
2,42121, Note_on_c, 0, 59, 63
2,42121, Note_on_c, 0, 63, 49
2,42146, Note_on_c, 0, 54, 0
2,42368, Note_on_c, 0, 66, 65
2,42599, Note_on_c, 0, 68, 0
2,42612, Note_on_c, 0, 63, 0
2,42640, Note_on_c, 0, 66, 0
2,42654, Note_on_c, 0, 56, 74
2,42654, Note_on_c, 0, 64, 59
2,42850, Note_on_c, 0, 51, 0
2,42912, Note_on_c, 0, 71, 74
2,42935, Note_on_c, 0, 59, 0
2,43140, Note_on_c, 0, 64, 0
2,43186, Note_on_c, 0, 75, 80
2,43425, Note_on_c, 0, 58, 64
2,43444, Note_on_c, 0, 66, 64
2,43532, Note_on_c, 0, 71, 0
2,43603, Note_on_c, 0, 56, 0
2,43720, Note_on_c, 0, 59, 48
2,43726, Note_on_c, 0, 52, 72
2,43732, Note_on_c, 0, 68, 73
2,43747, Note_on_c, 0, 66, 0
2,43974, Note_on_c, 0, 59, 0
2,43993, Note_on_c, 0, 56, 74
2,44012, Note_on_c, 0, 58, 0
2,44149, Note_on_c, 0, 75, 0
2,44247, Note_on_c, 0, 73, 66
2,44249, Note_on_c, 0, 58, 67
2,44305, Note_on_c, 0, 56, 0
2,44367, Note_on_c, 0, 52, 0
2,44393, Control_c, 0, 64, 37
2,44411, Control_c, 0, 64, 53
2,44415, Note_on_c, 0, 68, 0
2,44431, Control_c, 0, 64, 59
2,44450, Control_c, 0, 64, 62
2,44470, Control_c, 0, 64, 64
2,44473, Note_on_c, 0, 58, 0
2,44483, Note_on_c, 0, 59, 84
2,44488, Control_c, 0, 64, 65
2,44505, Note_on_c, 0, 71, 74
2,44508, Control_c, 0, 64, 68
2,44515, Note_on_c, 0, 73, 0
2,44527, Control_c, 0, 64, 71
2,44529, Note_on_c, 0, 59, 0
2,44546, Control_c, 0, 64, 74
2,44565, Control_c, 0, 64, 76
2,44623, Control_c, 0, 64, 76
2,44642, Control_c, 0, 64, 75
2,44719, Control_c, 0, 64, 76
2,44757, Control_c, 0, 64, 75
2,44758, Note_on_c, 0, 71, 0
2,44776, Control_c, 0, 64, 68
2,44776, Note_on_c, 0, 49, 84
2,44783, Note_on_c, 0, 61, 72
2,44791, Note_on_c, 0, 70, 71
2,44796, Control_c, 0, 64, 60
2,44815, Control_c, 0, 64, 27
2,44834, Control_c, 0, 64, 0
2,45063, Note_on_c, 0, 76, 78
2,45180, Control_c, 0, 64, 36
2,45200, Control_c, 0, 64, 52
2,45219, Control_c, 0, 64, 55
2,45238, Control_c, 0, 64, 58
2,45257, Control_c, 0, 64, 60
2,45277, Control_c, 0, 64, 62
2,45282, Note_on_c, 0, 49, 0
2,45295, Control_c, 0, 64, 63
2,45315, Control_c, 0, 64, 64
2,45330, Note_on_c, 0, 80, 86
2,45334, Control_c, 0, 64, 64
2,45354, Control_c, 0, 64, 65
2,45356, Note_on_c, 0, 61, 0
2,45372, Control_c, 0, 64, 66
2,45392, Control_c, 0, 64, 67
2,45399, Note_on_c, 0, 70, 0
2,45411, Control_c, 0, 64, 69
2,45431, Control_c, 0, 64, 70
2,45449, Control_c, 0, 64, 71
2,45469, Control_c, 0, 64, 72
2,45488, Control_c, 0, 64, 73
2,45507, Control_c, 0, 64, 74
2,45526, Control_c, 0, 64, 74
2,45546, Control_c, 0, 64, 75
2,45565, Control_c, 0, 64, 76
2,45583, Note_on_c, 0, 71, 75
2,45584, Control_c, 0, 64, 77
2,45603, Control_c, 0, 64, 78
2,45623, Control_c, 0, 64, 78
2,45718, Control_c, 0, 64, 78
2,45737, Control_c, 0, 64, 77
2,45852, Control_c, 0, 64, 76
2,45857, Note_on_c, 0, 58, 67
2,45867, Note_on_c, 0, 73, 70
2,45869, Control_c, 0, 64, 69
2,45888, Control_c, 0, 64, 60
2,45899, Note_on_c, 0, 71, 0
2,45908, Control_c, 0, 64, 0
2,46075, Note_on_c, 0, 80, 0
2,46151, Note_on_c, 0, 61, 66
2,46157, Control_c, 0, 64, 38
2,46176, Control_c, 0, 64, 53
2,46196, Control_c, 0, 64, 57
2,46214, Control_c, 0, 64, 61
2,46234, Control_c, 0, 64, 63
2,46253, Control_c, 0, 64, 64
2,46272, Control_c, 0, 64, 64
2,46291, Control_c, 0, 64, 65
2,46313, Control_c, 0, 64, 66
2,46331, Control_c, 0, 64, 66
2,46351, Control_c, 0, 64, 67
2,46370, Control_c, 0, 64, 68
2,46390, Control_c, 0, 64, 69
2,46406, Note_on_c, 0, 66, 63
2,46408, Control_c, 0, 64, 70
2,46428, Control_c, 0, 64, 71
2,46432, Note_on_c, 0, 78, 74
2,46447, Control_c, 0, 64, 73
2,46466, Control_c, 0, 64, 75
2,46475, Note_on_c, 0, 76, 0
2,46485, Control_c, 0, 64, 77
2,46505, Control_c, 0, 64, 79
2,46524, Control_c, 0, 64, 81
2,46542, Control_c, 0, 64, 82
2,46562, Control_c, 0, 64, 83
2,46576, Note_on_c, 0, 58, 0
2,46576, Note_on_c, 0, 61, 0
2,46619, Control_c, 0, 64, 83
2,46685, Note_on_c, 0, 76, 82
2,46727, Note_on_c, 0, 78, 0
2,46769, Note_on_c, 0, 66, 0
2,46847, Control_c, 0, 64, 83
2,46867, Control_c, 0, 64, 82
2,46885, Control_c, 0, 64, 81
2,46905, Control_c, 0, 64, 80
2,46924, Control_c, 0, 64, 80
2,46962, Control_c, 0, 64, 79
2,46970, Note_on_c, 0, 75, 78
2,46975, Note_on_c, 0, 59, 75
2,46981, Control_c, 0, 64, 74
2,46991, Note_on_c, 0, 76, 0
2,47001, Control_c, 0, 64, 65
2,47020, Control_c, 0, 64, 42
2,47020, Note_on_c, 0, 73, 0
2,47039, Control_c, 0, 64, 0
2,47135, Control_c, 0, 64, 20
2,47155, Control_c, 0, 64, 27
2,47173, Control_c, 0, 64, 36
2,47193, Control_c, 0, 64, 44
2,47212, Control_c, 0, 64, 47
2,47216, Note_on_c, 0, 73, 62
2,47231, Control_c, 0, 64, 46
2,47273, Control_c, 0, 64, 46
2,47500, Note_on_c, 0, 63, 59
2,47507, Note_on_c, 0, 66, 70
2,47508, Note_on_c, 0, 73, 0
2,47509, Note_on_c, 0, 71, 61
2,47541, Control_c, 0, 64, 45
2,47618, Control_c, 0, 64, 45
2,47695, Control_c, 0, 64, 45
2,47763, Note_on_c, 0, 64, 70
2,47770, Note_on_c, 0, 70, 64
2,47775, Note_on_c, 0, 71, 0
2,47776, Note_on_c, 0, 63, 0
2,47786, Note_on_c, 0, 61, 57
2,47810, Control_c, 0, 64, 46
2,47821, Note_on_c, 0, 59, 0
2,47937, Note_on_c, 0, 66, 0
2,47998, Note_on_c, 0, 61, 0
2,48037, Note_on_c, 0, 63, 64
2,48041, Control_c, 0, 64, 45
2,48044, Note_on_c, 0, 68, 68
2,48046, Note_on_c, 0, 70, 0
2,48053, Note_on_c, 0, 59, 51
2,48109, Note_on_c, 0, 64, 0
2,48117, Control_c, 0, 64, 46
2,48136, Control_c, 0, 64, 47
2,48156, Control_c, 0, 64, 51
2,48175, Control_c, 0, 64, 56
2,48194, Control_c, 0, 64, 59
2,48213, Control_c, 0, 64, 61
2,48234, Control_c, 0, 64, 62
2,48272, Control_c, 0, 64, 62
2,48274, Note_on_c, 0, 68, 0
2,48281, Note_on_c, 0, 63, 0
2,48301, Note_on_c, 0, 67, 52
2,48329, Control_c, 0, 64, 63
2,48349, Control_c, 0, 64, 64
2,48502, Control_c, 0, 64, 63
2,48554, Note_on_c, 0, 67, 0
2,48560, Control_c, 0, 64, 63
2,48561, Note_on_c, 0, 61, 49
2,48566, Note_on_c, 0, 68, 58
2,48579, Control_c, 0, 64, 61
2,48598, Control_c, 0, 64, 60
2,48603, Note_on_c, 0, 58, 46
2,48607, Note_on_c, 0, 59, 0
2,48617, Control_c, 0, 64, 58
2,48637, Control_c, 0, 64, 57
2,48655, Control_c, 0, 64, 55
2,48675, Control_c, 0, 64, 54
2,48694, Control_c, 0, 64, 52
2,48714, Control_c, 0, 64, 51
2,48751, Control_c, 0, 64, 50
2,48770, Control_c, 0, 64, 50
2,48790, Control_c, 0, 64, 49
2,48794, Note_on_c, 0, 68, 0
2,48808, Control_c, 0, 64, 48
2,48826, Note_on_c, 0, 67, 54
2,48828, Control_c, 0, 64, 48
2,48847, Control_c, 0, 64, 47
2,48866, Control_c, 0, 64, 47
2,48885, Control_c, 0, 64, 44
2,48905, Control_c, 0, 64, 43
2,48924, Control_c, 0, 64, 42
2,48942, Control_c, 0, 64, 40
2,48962, Control_c, 0, 64, 36
2,48981, Control_c, 0, 64, 33
2,49001, Control_c, 0, 64, 31
2,49019, Control_c, 0, 64, 28
2,49039, Control_c, 0, 64, 26
2,49058, Control_c, 0, 64, 25
2,49077, Control_c, 0, 64, 22
2,49087, Note_on_c, 0, 56, 41
2,49092, Note_on_c, 0, 67, 0
2,49096, Control_c, 0, 64, 19
2,49097, Note_on_c, 0, 59, 50
2,49097, Note_on_c, 0, 68, 55
2,49106, Note_on_c, 0, 58, 0
2,49116, Control_c, 0, 64, 17
2,49118, Note_on_c, 0, 61, 0
2,49194, Control_c, 0, 64, 19
2,49196, Note_on_c, 0, 75, 0
2,49212, Control_c, 0, 64, 27
2,49232, Control_c, 0, 64, 39
2,49251, Control_c, 0, 64, 50
2,49271, Control_c, 0, 64, 56
2,49289, Control_c, 0, 64, 60
2,49309, Control_c, 0, 64, 62
2,49328, Control_c, 0, 64, 63
2,49347, Control_c, 0, 64, 65
2,49352, Note_on_c, 0, 68, 0
2,49366, Control_c, 0, 64, 66
2,49374, Note_on_c, 0, 71, 61
2,49386, Control_c, 0, 64, 67
2,49405, Control_c, 0, 64, 69
2,49420, Note_on_c, 0, 71, 0
2,49424, Control_c, 0, 64, 71
2,49443, Control_c, 0, 64, 72
2,49462, Control_c, 0, 64, 72
2,49520, Control_c, 0, 64, 72
2,49539, Control_c, 0, 64, 71
2,49558, Control_c, 0, 64, 71
2,49597, Control_c, 0, 64, 70
2,49615, Control_c, 0, 64, 70
2,49625, Note_on_c, 0, 61, 44
2,49635, Control_c, 0, 64, 68
2,49637, Note_on_c, 0, 79, 67
2,49654, Control_c, 0, 64, 64
2,49656, Note_on_c, 0, 70, 56
2,49674, Control_c, 0, 64, 58
2,49692, Control_c, 0, 64, 46
2,49692, Note_on_c, 0, 59, 0
2,49708, Control_c, 0, 64, 22
2,49727, Control_c, 0, 64, 0
2,49861, Control_c, 0, 64, 20
2,49881, Control_c, 0, 64, 40
2,49900, Control_c, 0, 64, 54
2,49904, Note_on_c, 0, 73, 52
2,49919, Control_c, 0, 64, 58
2,49930, Note_on_c, 0, 70, 0
2,49938, Control_c, 0, 64, 60
2,49958, Control_c, 0, 64, 61
2,49996, Control_c, 0, 64, 62
2,50015, Control_c, 0, 64, 62
2,50130, Control_c, 0, 64, 61
2,50144, Note_on_c, 0, 56, 0
2,50144, Note_on_c, 0, 79, 0
2,50154, Control_c, 0, 64, 56
2,50171, Note_on_c, 0, 73, 0
2,50171, Note_on_c, 0, 80, 69
2,50172, Control_c, 0, 64, 42
2,50173, Note_on_c, 0, 63, 33
2,50184, Note_on_c, 0, 71, 53
2,50192, Control_c, 0, 64, 15
2,50211, Control_c, 0, 64, 0
2,50249, Control_c, 0, 64, 13
2,50269, Control_c, 0, 64, 41
2,50288, Control_c, 0, 64, 54
2,50307, Control_c, 0, 64, 56
2,50326, Control_c, 0, 64, 57
2,50346, Control_c, 0, 64, 59
2,50365, Control_c, 0, 64, 60
2,50384, Control_c, 0, 64, 61
2,50405, Note_on_c, 0, 61, 0
2,50422, Control_c, 0, 64, 62
2,50440, Note_on_c, 0, 55, 35
2,50479, Note_on_c, 0, 63, 0
2,50480, Control_c, 0, 64, 62
2,50499, Control_c, 0, 64, 62
2,50634, Control_c, 0, 64, 61
2,50652, Control_c, 0, 64, 59
2,50658, Note_on_c, 0, 71, 0
2,50661, Note_on_c, 0, 55, 0
2,50664, Note_on_c, 0, 80, 0
2,50672, Control_c, 0, 64, 54
2,50679, Note_on_c, 0, 73, 61
2,50691, Control_c, 0, 64, 47
2,50695, Note_on_c, 0, 70, 48
2,50711, Control_c, 0, 64, 44
2,50711, Note_on_c, 0, 56, 30
2,50729, Control_c, 0, 64, 44
2,50730, Note_on_c, 0, 64, 22
2,50749, Control_c, 0, 64, 48
2,50768, Control_c, 0, 64, 54
2,50787, Control_c, 0, 64, 58
2,50806, Control_c, 0, 64, 61
2,50826, Control_c, 0, 64, 64
2,50845, Control_c, 0, 64, 65
2,50864, Control_c, 0, 64, 65
2,50883, Control_c, 0, 64, 66
2,50888, Note_on_c, 0, 73, 0
2,50897, Note_on_c, 0, 70, 0
2,50902, Control_c, 0, 64, 66
2,50956, Note_on_c, 0, 64, 0
2,50961, Note_on_c, 0, 55, 33
2,50969, Note_on_c, 0, 56, 0
2,51017, Control_c, 0, 64, 66
2,51055, Control_c, 0, 64, 65
2,51094, Control_c, 0, 64, 65
2,51113, Control_c, 0, 64, 64
2,51131, Control_c, 0, 64, 64
2,51170, Control_c, 0, 64, 63
2,51190, Control_c, 0, 64, 63
2,51228, Control_c, 0, 64, 62
2,51230, Note_on_c, 0, 55, 0
2,51244, Note_on_c, 0, 71, 57
2,51247, Control_c, 0, 64, 62
2,51259, Note_on_c, 0, 63, 42
2,51266, Control_c, 0, 64, 60
2,51266, Note_on_c, 0, 56, 38
2,51285, Control_c, 0, 64, 57
2,51305, Control_c, 0, 64, 52
2,51324, Control_c, 0, 64, 47
2,51342, Control_c, 0, 64, 44
2,51362, Control_c, 0, 64, 40
2,51381, Control_c, 0, 64, 36
2,51401, Control_c, 0, 64, 33
2,51419, Control_c, 0, 64, 31
2,51439, Control_c, 0, 64, 30
2,51477, Control_c, 0, 64, 29
2,51558, Note_on_c, 0, 70, 59
2,51797, Note_on_c, 0, 59, 51
2,51801, Note_on_c, 0, 68, 56
2,51809, Note_on_c, 0, 70, 0
2,52041, Note_on_c, 0, 68, 0
2,52049, Note_on_c, 0, 61, 49
2,52055, Note_on_c, 0, 59, 0
2,52058, Note_on_c, 0, 66, 55
2,52078, Note_on_c, 0, 56, 0
2,52082, Note_on_c, 0, 58, 30
2,52241, Note_on_c, 0, 58, 0
2,52265, Control_c, 0, 64, 29
2,52310, Note_on_c, 0, 66, 0
2,52320, Note_on_c, 0, 63, 0
2,52330, Note_on_c, 0, 56, 36
2,52332, Note_on_c, 0, 59, 51
2,52335, Note_on_c, 0, 65, 41
2,52345, Note_on_c, 0, 61, 0
2,52437, Control_c, 0, 64, 29
2,52456, Control_c, 0, 64, 32
2,52476, Control_c, 0, 64, 41
2,52495, Control_c, 0, 64, 49
2,52514, Control_c, 0, 64, 56
2,52533, Control_c, 0, 64, 59
2,52548, Note_on_c, 0, 56, 0
2,52553, Control_c, 0, 64, 62
2,52571, Control_c, 0, 64, 64
2,52572, Note_on_c, 0, 65, 0
2,52589, Control_c, 0, 64, 65
2,52604, Note_on_c, 0, 66, 43
2,52608, Control_c, 0, 64, 69
2,52628, Control_c, 0, 64, 74
2,52646, Control_c, 0, 64, 81
2,52666, Control_c, 0, 64, 85
2,52819, Control_c, 0, 64, 84
2,52838, Note_on_c, 0, 66, 0
2,52839, Control_c, 0, 64, 80
2,52854, Note_on_c, 0, 62, 42
2,52857, Control_c, 0, 64, 70
2,52865, Note_on_c, 0, 54, 34
2,52877, Control_c, 0, 64, 59
2,52883, Note_on_c, 0, 65, 34
2,52890, Note_on_c, 0, 59, 0
2,52896, Control_c, 0, 64, 21
2,52916, Control_c, 0, 64, 11
2,52934, Control_c, 0, 64, 13
2,52954, Control_c, 0, 64, 25
2,52973, Control_c, 0, 64, 38
2,52992, Control_c, 0, 64, 47
2,53011, Control_c, 0, 64, 53
2,53033, Control_c, 0, 64, 58
2,53051, Control_c, 0, 64, 61
2,53071, Control_c, 0, 64, 62
2,53088, Note_on_c, 0, 54, 0
2,53090, Control_c, 0, 64, 64
2,53099, Note_on_c, 0, 62, 0
2,53110, Control_c, 0, 64, 65
2,53128, Control_c, 0, 64, 66
2,53133, Note_on_c, 0, 66, 48
2,53137, Note_on_c, 0, 65, 0
2,53148, Control_c, 0, 64, 68
2,53167, Control_c, 0, 64, 69
2,53186, Control_c, 0, 64, 70
2,53205, Control_c, 0, 64, 71
2,53282, Control_c, 0, 64, 70
2,53301, Control_c, 0, 64, 70
2,53321, Control_c, 0, 64, 69
2,53339, Control_c, 0, 64, 68
2,53359, Control_c, 0, 64, 67
2,53378, Control_c, 0, 64, 67
2,53397, Control_c, 0, 64, 66
2,53416, Control_c, 0, 64, 65
2,53417, Note_on_c, 0, 53, 38
2,53422, Note_on_c, 0, 68, 55
2,53426, Note_on_c, 0, 61, 40
2,53436, Control_c, 0, 64, 64
2,53455, Control_c, 0, 64, 62
2,53474, Control_c, 0, 64, 59
2,53493, Control_c, 0, 64, 56
2,53505, Note_on_c, 0, 66, 0
2,53513, Control_c, 0, 64, 52
2,53531, Control_c, 0, 64, 48
2,53550, Control_c, 0, 64, 46
2,53569, Control_c, 0, 64, 43
2,53589, Control_c, 0, 64, 41
2,53607, Control_c, 0, 64, 39
2,53710, Note_on_c, 0, 71, 0
2,53734, Note_on_c, 0, 70, 67
2,53986, Note_on_c, 0, 71, 72
2,53990, Note_on_c, 0, 70, 0
2,54108, Control_c, 0, 64, 40
2,54127, Control_c, 0, 64, 41
2,54146, Control_c, 0, 64, 41
2,54165, Control_c, 0, 64, 44
2,54185, Control_c, 0, 64, 49
2,54204, Control_c, 0, 64, 54
2,54222, Control_c, 0, 64, 57
2,54238, Note_on_c, 0, 53, 0
2,54238, Note_on_c, 0, 56, 66
2,54242, Control_c, 0, 64, 59
2,54261, Control_c, 0, 64, 61
2,54270, Note_on_c, 0, 61, 0
2,54281, Control_c, 0, 64, 62
2,54299, Control_c, 0, 64, 63
2,54319, Control_c, 0, 64, 64
2,54396, Control_c, 0, 64, 63
2,54453, Control_c, 0, 64, 63
2,54496, Note_on_c, 0, 56, 0
2,54506, Note_on_c, 0, 54, 57
2,54512, Control_c, 0, 64, 62
2,54512, Note_on_c, 0, 58, 60
2,54516, Note_on_c, 0, 68, 0
2,54525, Note_on_c, 0, 61, 60
2,54531, Control_c, 0, 64, 61
2,54551, Control_c, 0, 64, 59
2,54569, Control_c, 0, 64, 57
2,54589, Control_c, 0, 64, 54
2,54608, Control_c, 0, 64, 50
2,54627, Control_c, 0, 64, 47
2,54646, Control_c, 0, 64, 45
2,54666, Control_c, 0, 64, 44
2,54685, Control_c, 0, 64, 43
2,54703, Control_c, 0, 64, 40
2,54723, Control_c, 0, 64, 36
2,54742, Control_c, 0, 64, 30
2,54761, Control_c, 0, 64, 23
2,54780, Control_c, 0, 64, 11
2,54781, Note_on_c, 0, 59, 65
2,54800, Control_c, 0, 64, 0
2,54813, Note_on_c, 0, 58, 0
2,54979, Note_on_c, 0, 61, 0
2,55058, Note_on_c, 0, 61, 64
2,55067, Note_on_c, 0, 66, 64
2,55087, Control_c, 0, 64, 26
2,55106, Control_c, 0, 64, 37
2,55125, Control_c, 0, 64, 45
2,55145, Control_c, 0, 64, 52
2,55164, Control_c, 0, 64, 56
2,55168, Note_on_c, 0, 59, 0
2,55182, Control_c, 0, 64, 59
2,55202, Control_c, 0, 64, 62
2,55215, Note_on_c, 0, 71, 0
2,55221, Control_c, 0, 64, 63
2,55241, Control_c, 0, 64, 63
2,55259, Control_c, 0, 64, 64
2,55278, Note_on_c, 0, 54, 0
2,55279, Control_c, 0, 64, 66
2,55298, Control_c, 0, 64, 66
2,55317, Control_c, 0, 64, 67
2,55336, Control_c, 0, 64, 69
2,55348, Note_on_c, 0, 70, 74
2,55356, Control_c, 0, 64, 72
2,55375, Control_c, 0, 64, 76
2,55394, Control_c, 0, 64, 78
2,55413, Control_c, 0, 64, 78
2,55507, Control_c, 0, 64, 78
2,55583, Control_c, 0, 64, 77
2,55602, Control_c, 0, 64, 75
2,55612, Note_on_c, 0, 68, 69
2,55613, Note_on_c, 0, 70, 0
2,55615, Note_on_c, 0, 49, 71
2,55621, Control_c, 0, 64, 68
2,55641, Control_c, 0, 64, 54
2,55660, Control_c, 0, 64, 0
2,55756, Control_c, 0, 64, 19
2,55775, Control_c, 0, 64, 34
2,55795, Control_c, 0, 64, 45
2,55813, Control_c, 0, 64, 54
2,55833, Control_c, 0, 64, 57
2,55846, Note_on_c, 0, 61, 0
2,55852, Control_c, 0, 64, 58
2,55871, Control_c, 0, 64, 59
2,55885, Note_on_c, 0, 71, 80
2,55890, Control_c, 0, 64, 60
2,55913, Control_c, 0, 64, 61
2,55921, Note_on_c, 0, 68, 0
2,55931, Control_c, 0, 64, 62
2,55951, Control_c, 0, 64, 63
2,55970, Control_c, 0, 64, 63
2,56105, Control_c, 0, 64, 63
2,56142, Control_c, 0, 64, 62
2,56157, Note_on_c, 0, 71, 0
2,56159, Note_on_c, 0, 75, 76
2,56162, Control_c, 0, 64, 61
2,56172, Note_on_c, 0, 59, 60
2,56181, Control_c, 0, 64, 56
2,56201, Control_c, 0, 64, 48
2,56219, Control_c, 0, 64, 42
2,56239, Control_c, 0, 64, 37
2,56258, Control_c, 0, 64, 32
2,56277, Control_c, 0, 64, 25
2,56296, Control_c, 0, 64, 19
2,56316, Control_c, 0, 64, 18
2,56373, Control_c, 0, 64, 17
2,56393, Control_c, 0, 64, 15
2,56411, Control_c, 0, 64, 11
2,56422, Note_on_c, 0, 58, 54
2,56430, Control_c, 0, 64, 9
2,56449, Control_c, 0, 64, 0
2,56722, Note_on_c, 0, 65, 50
2,56727, Note_on_c, 0, 56, 51
2,56738, Note_on_c, 0, 58, 0
2,56816, Note_on_c, 0, 66, 0
2,56994, Note_on_c, 0, 54, 48
2,57013, Note_on_c, 0, 56, 0
2,57260, Note_on_c, 0, 54, 0
2,57295, Note_on_c, 0, 56, 45
2,57298, Note_on_c, 0, 73, 56
2,57430, Control_c, 0, 64, 27
2,57448, Control_c, 0, 64, 44
2,57468, Control_c, 0, 64, 58
2,57486, Note_on_c, 0, 49, 0
2,57487, Control_c, 0, 64, 63
2,57496, Note_on_c, 0, 59, 0
2,57506, Control_c, 0, 64, 66
2,57521, Note_on_c, 0, 56, 0
2,57525, Control_c, 0, 64, 68
2,57544, Control_c, 0, 64, 71
2,57564, Control_c, 0, 64, 79
2,57582, Control_c, 0, 64, 90
2,57584, Note_on_c, 0, 75, 0
2,57586, Note_on_c, 0, 71, 61
2,57602, Control_c, 0, 64, 97
2,57621, Control_c, 0, 64, 98
2,57641, Control_c, 0, 64, 98
2,57667, Note_on_c, 0, 65, 0
2,57717, Control_c, 0, 64, 98
2,57736, Control_c, 0, 64, 97
2,57756, Control_c, 0, 64, 96
2,57775, Control_c, 0, 64, 95
2,57794, Control_c, 0, 64, 94
2,57813, Control_c, 0, 64, 91
2,57833, Control_c, 0, 64, 89
2,57851, Control_c, 0, 64, 86
2,57871, Control_c, 0, 64, 85
2,57890, Control_c, 0, 64, 85
2,57910, Control_c, 0, 64, 83
2,57926, Note_on_c, 0, 71, 0
2,57928, Control_c, 0, 64, 80
2,57929, Note_on_c, 0, 54, 45
2,57938, Note_on_c, 0, 42, 35
2,57941, Note_on_c, 0, 66, 52
2,57947, Note_on_c, 0, 70, 59
2,57948, Control_c, 0, 64, 75
2,57967, Control_c, 0, 64, 69
2,57986, Control_c, 0, 64, 63
2,58001, Note_on_c, 0, 73, 0
2,58005, Control_c, 0, 64, 53
2,58024, Control_c, 0, 64, 30
2,58044, Control_c, 0, 64, 0
2,58293, Control_c, 0, 64, 17
2,58313, Control_c, 0, 64, 27
2,58331, Control_c, 0, 64, 38
2,58350, Control_c, 0, 64, 49
2,58369, Control_c, 0, 64, 55
2,58389, Control_c, 0, 64, 56
2,58407, Control_c, 0, 64, 57
2,58427, Control_c, 0, 64, 58
2,58446, Control_c, 0, 64, 61
2,58466, Control_c, 0, 64, 62
2,58484, Control_c, 0, 64, 63
2,58503, Control_c, 0, 64, 63
2,58523, Control_c, 0, 64, 64
2,58541, Control_c, 0, 64, 65
2,58561, Control_c, 0, 64, 67
2,58580, Control_c, 0, 64, 70
2,58587, Note_on_c, 0, 42, 0
2,58600, Control_c, 0, 64, 72
2,58618, Control_c, 0, 64, 75
2,58638, Control_c, 0, 64, 77
2,58657, Control_c, 0, 64, 78
2,58832, Control_c, 0, 64, 78
2,58871, Control_c, 0, 64, 77
2,58889, Control_c, 0, 64, 76
2,58928, Control_c, 0, 64, 76
2,58947, Control_c, 0, 64, 75
2,58966, Control_c, 0, 64, 74
2,58986, Control_c, 0, 64, 74
2,59023, Control_c, 0, 64, 73
2,59043, Control_c, 0, 64, 72
2,59062, Control_c, 0, 64, 71
2,59081, Control_c, 0, 64, 69
2,59100, Control_c, 0, 64, 67
2,59103, Note_on_c, 0, 58, 52
2,59120, Control_c, 0, 64, 65
2,59123, Note_on_c, 0, 66, 0
2,59139, Control_c, 0, 64, 62
2,59158, Control_c, 0, 64, 59
2,59177, Control_c, 0, 64, 52
2,59197, Control_c, 0, 64, 45
2,59205, Note_on_c, 0, 70, 0
2,59215, Control_c, 0, 64, 42
2,59235, Control_c, 0, 64, 41
2,59254, Control_c, 0, 64, 39
2,59274, Control_c, 0, 64, 38
2,59292, Control_c, 0, 64, 36
2,59310, Control_c, 0, 64, 36
2,59329, Control_c, 0, 64, 35
2,59349, Control_c, 0, 64, 31
2,59367, Control_c, 0, 64, 20
2,59371, Note_on_c, 0, 54, 0
2,59387, Control_c, 0, 64, 13
2,59444, Control_c, 0, 64, 11
2,59463, Control_c, 0, 64, 9
2,59483, Control_c, 0, 64, 0
2,60174, Control_c, 0, 64, 11
2,60212, Control_c, 0, 64, 13
2,60217, Note_on_c, 0, 63, 63
2,60250, Control_c, 0, 64, 15
2,60270, Control_c, 0, 64, 17
2,60289, Control_c, 0, 64, 18
2,60327, Control_c, 0, 64, 19
2,60333, Note_on_c, 0, 58, 0
2,60347, Control_c, 0, 64, 20
2,60366, Control_c, 0, 64, 22
2,60404, Control_c, 0, 64, 23
2,60423, Control_c, 0, 64, 24
2,60443, Control_c, 0, 64, 25
2,60461, Control_c, 0, 64, 27
2,60481, Control_c, 0, 64, 28
2,60558, Control_c, 0, 64, 29
2,60635, Control_c, 0, 64, 29
2,60712, Control_c, 0, 64, 30
2,60750, Control_c, 0, 64, 31
2,60769, Control_c, 0, 64, 31
2,60772, Note_on_c, 0, 78, 60
2,60789, Control_c, 0, 64, 32
2,60827, Control_c, 0, 64, 32
2,60866, Control_c, 0, 64, 33
2,60884, Control_c, 0, 64, 34
2,60923, Control_c, 0, 64, 34
2,61000, Control_c, 0, 64, 35
2,61033, Note_on_c, 0, 76, 65
2,61104, Note_on_c, 0, 78, 0
2,61115, Control_c, 0, 64, 35
2,61172, Control_c, 0, 64, 36
2,61192, Control_c, 0, 64, 36
2,61210, Control_c, 0, 64, 37
2,61287, Control_c, 0, 64, 37
2,61290, Note_on_c, 0, 75, 66
2,61307, Note_on_c, 0, 59, 63
2,61321, Note_on_c, 0, 76, 0
2,61456, Note_on_c, 0, 63, 0
2,61555, Note_on_c, 0, 76, 72
2,61601, Note_on_c, 0, 75, 0
2,61801, Note_on_c, 0, 78, 69
2,61841, Note_on_c, 0, 76, 0
2,62065, Note_on_c, 0, 75, 69
2,62103, Note_on_c, 0, 78, 0
2,62167, Control_c, 0, 64, 38
2,62327, Note_on_c, 0, 56, 67
2,62335, Note_on_c, 0, 71, 61
2,62348, Note_on_c, 0, 75, 0
2,62411, Note_on_c, 0, 59, 0
2,62592, Note_on_c, 0, 73, 71
2,62644, Note_on_c, 0, 71, 0
2,62804, Control_c, 0, 64, 37
2,62844, Note_on_c, 0, 75, 68
2,62884, Note_on_c, 0, 73, 0
2,62900, Control_c, 0, 64, 37
2,63100, Note_on_c, 0, 71, 65
2,63103, Note_on_c, 0, 75, 0
2,63364, Note_on_c, 0, 65, 64
2,63381, Note_on_c, 0, 71, 0
2,63393, Note_on_c, 0, 68, 61
2,63447, Note_on_c, 0, 56, 0
2,63641, Note_on_c, 0, 70, 64
2,63670, Note_on_c, 0, 68, 0
2,63912, Note_on_c, 0, 71, 64
2,63919, Control_c, 0, 64, 36
2,63942, Note_on_c, 0, 70, 0
2,64429, Note_on_c, 0, 66, 65
2,64509, Note_on_c, 0, 65, 0
2,64695, Note_on_c, 0, 68, 61
2,64712, Note_on_c, 0, 71, 0
2,64954, Note_on_c, 0, 70, 65
2,64991, Note_on_c, 0, 68, 0
2,65198, Note_on_c, 0, 71, 62
2,65231, Note_on_c, 0, 70, 0
2,65453, Note_on_c, 0, 73, 68
2,65476, Note_on_c, 0, 71, 0
2,65513, Control_c, 0, 64, 37
2,65714, Note_on_c, 0, 64, 52
2,65724, Control_c, 0, 64, 37
2,65737, Note_on_c, 0, 66, 0
2,65839, Control_c, 0, 64, 38
2,65935, Control_c, 0, 64, 38
2,65968, Note_on_c, 0, 63, 51
2,66016, Note_on_c, 0, 64, 0
2,66030, Control_c, 0, 64, 39
2,66164, Control_c, 0, 64, 39
2,66206, Note_on_c, 0, 61, 48
2,66258, Note_on_c, 0, 63, 0
2,66472, Control_c, 0, 64, 40
2,66485, Note_on_c, 0, 63, 57
2,66501, Note_on_c, 0, 61, 0
2,66644, Control_c, 0, 64, 40
2,66732, Note_on_c, 0, 66, 49
2,66744, Note_on_c, 0, 73, 0
2,66991, Note_on_c, 0, 59, 57
2,66994, Note_on_c, 0, 68, 55
2,67002, Note_on_c, 0, 66, 0
2,67232, Note_on_c, 0, 58, 59
2,67236, Note_on_c, 0, 59, 0
2,67239, Note_on_c, 0, 70, 62
2,67254, Note_on_c, 0, 68, 0
2,67316, Control_c, 0, 64, 41
2,67495, Note_on_c, 0, 56, 57
2,67501, Note_on_c, 0, 71, 59
2,67522, Note_on_c, 0, 70, 0
2,67525, Note_on_c, 0, 58, 0
2,67590, Note_on_c, 0, 63, 0
2,67749, Note_on_c, 0, 58, 58
2,67753, Note_on_c, 0, 56, 0
2,67776, Control_c, 0, 64, 41
2,67993, Note_on_c, 0, 58, 0
2,68021, Note_on_c, 0, 63, 53
2,68030, Note_on_c, 0, 59, 49
2,68265, Note_on_c, 0, 56, 50
2,68273, Note_on_c, 0, 59, 0
2,68520, Note_on_c, 0, 63, 0
2,68526, Control_c, 0, 64, 42
2,68531, Note_on_c, 0, 52, 44
2,68550, Note_on_c, 0, 61, 49
2,68558, Note_on_c, 0, 56, 0
2,68770, Note_on_c, 0, 61, 0
2,68789, Note_on_c, 0, 63, 53
2,68795, Note_on_c, 0, 54, 42
2,68822, Note_on_c, 0, 52, 0
2,69033, Note_on_c, 0, 56, 49
2,69035, Note_on_c, 0, 54, 0
2,69048, Note_on_c, 0, 63, 0
2,69051, Note_on_c, 0, 64, 51
2,69292, Note_on_c, 0, 52, 40
2,69475, Note_on_c, 0, 56, 0
2,69526, Note_on_c, 0, 52, 0
2,69535, Note_on_c, 0, 71, 0
2,69556, Note_on_c, 0, 49, 42
2,69576, Note_on_c, 0, 70, 51
2,69794, Note_on_c, 0, 51, 47
2,69807, Note_on_c, 0, 71, 55
2,69824, Note_on_c, 0, 70, 0
2,69837, Note_on_c, 0, 49, 0
2,70060, Note_on_c, 0, 52, 40
2,70068, Note_on_c, 0, 51, 0
2,70069, Note_on_c, 0, 73, 57
2,70074, Note_on_c, 0, 58, 38
2,70079, Note_on_c, 0, 71, 0
2,70135, Control_c, 0, 64, 41
2,70174, Control_c, 0, 64, 41
2,70193, Control_c, 0, 64, 40
2,70212, Control_c, 0, 64, 40
2,70232, Control_c, 0, 64, 38
2,70251, Control_c, 0, 64, 37
2,70270, Control_c, 0, 64, 36
2,70289, Control_c, 0, 64, 36
2,70302, Note_on_c, 0, 73, 0
2,70315, Note_on_c, 0, 70, 62
2,70328, Control_c, 0, 64, 35
2,70348, Control_c, 0, 64, 35
2,70405, Control_c, 0, 64, 34
2,70425, Control_c, 0, 64, 33
2,70463, Control_c, 0, 64, 32
2,70482, Control_c, 0, 64, 32
2,70492, Note_on_c, 0, 58, 0
2,70502, Control_c, 0, 64, 31
2,70540, Control_c, 0, 64, 32
2,70559, Control_c, 0, 64, 35
2,70579, Control_c, 0, 64, 40
2,70581, Note_on_c, 0, 70, 0
2,70598, Control_c, 0, 64, 47
2,70601, Note_on_c, 0, 66, 43
2,70603, Note_on_c, 0, 52, 0
2,70617, Control_c, 0, 64, 55
2,70623, Note_on_c, 0, 59, 43
2,70636, Control_c, 0, 64, 61
2,70643, Note_on_c, 0, 64, 0
2,70655, Control_c, 0, 64, 64
2,70674, Control_c, 0, 64, 66
2,70693, Control_c, 0, 64, 69
2,70713, Control_c, 0, 64, 72
2,70721, Note_on_c, 0, 66, 0
2,70732, Control_c, 0, 64, 76
2,70751, Control_c, 0, 64, 78
2,70808, Control_c, 0, 64, 77
2,70828, Control_c, 0, 64, 77
2,70847, Control_c, 0, 64, 76
2,70867, Control_c, 0, 64, 75
2,70885, Control_c, 0, 64, 74
2,70898, Note_on_c, 0, 49, 39
2,70905, Control_c, 0, 64, 74
2,70943, Control_c, 0, 64, 73
2,70962, Control_c, 0, 64, 72
2,70982, Control_c, 0, 64, 70
2,71001, Control_c, 0, 64, 68
2,71059, Control_c, 0, 64, 68
2,71078, Control_c, 0, 64, 67
2,71097, Control_c, 0, 64, 66
2,71116, Control_c, 0, 64, 65
2,71133, Note_on_c, 0, 83, 69
2,71135, Control_c, 0, 64, 64
2,71153, Note_on_c, 0, 51, 42
2,71154, Control_c, 0, 64, 60
2,71166, Note_on_c, 0, 49, 0
2,71173, Control_c, 0, 64, 52
2,71193, Control_c, 0, 64, 46
2,71212, Control_c, 0, 64, 41
2,71231, Control_c, 0, 64, 36
2,71250, Control_c, 0, 64, 31
2,71272, Control_c, 0, 64, 28
2,71290, Control_c, 0, 64, 27
2,71310, Control_c, 0, 64, 25
2,71348, Control_c, 0, 64, 24
2,71367, Control_c, 0, 64, 22
2,71387, Control_c, 0, 64, 21
2,71387, Note_on_c, 0, 82, 79
2,71402, Note_on_c, 0, 83, 0
2,71621, Note_on_c, 0, 51, 0
2,71642, Note_on_c, 0, 80, 76
2,71643, Note_on_c, 0, 52, 43
2,71661, Note_on_c, 0, 82, 0
2,71713, Control_c, 0, 64, 22
2,71752, Control_c, 0, 64, 23
2,71787, Control_c, 0, 64, 24
2,71826, Control_c, 0, 64, 25
2,71844, Control_c, 0, 64, 26
2,71887, Note_on_c, 0, 82, 80
2,71921, Control_c, 0, 64, 27
2,71934, Note_on_c, 0, 80, 0
2,71941, Control_c, 0, 64, 30
2,71949, Note_on_c, 0, 52, 0
2,71979, Control_c, 0, 64, 31
2,72055, Control_c, 0, 64, 31
2,72113, Control_c, 0, 64, 32
2,72143, Note_on_c, 0, 83, 70
2,72152, Control_c, 0, 64, 32
2,72153, Note_on_c, 0, 47, 36
2,72190, Note_on_c, 0, 82, 0
2,72248, Control_c, 0, 64, 33
2,72324, Control_c, 0, 64, 34
2,72344, Control_c, 0, 64, 34
2,72383, Control_c, 0, 64, 35
2,72392, Note_on_c, 0, 80, 77
2,72421, Note_on_c, 0, 83, 0
2,72440, Control_c, 0, 64, 35
2,72478, Control_c, 0, 64, 36
2,72555, Control_c, 0, 64, 36
2,72612, Control_c, 0, 64, 37
2,72646, Note_on_c, 0, 49, 42
2,72660, Note_on_c, 0, 76, 67
2,72678, Note_on_c, 0, 80, 0
2,72688, Note_on_c, 0, 47, 0
2,72728, Control_c, 0, 64, 37
2,72747, Control_c, 0, 64, 38
2,72786, Control_c, 0, 64, 38
2,72881, Control_c, 0, 64, 39
2,72904, Note_on_c, 0, 78, 72
2,72922, Note_on_c, 0, 51, 41
2,72955, Note_on_c, 0, 76, 0
2,72966, Note_on_c, 0, 49, 0
2,73115, Note_on_c, 0, 51, 0
2,73144, Note_on_c, 0, 80, 69
2,73148, Note_on_c, 0, 52, 44
2,73179, Note_on_c, 0, 78, 0
2,73283, Control_c, 0, 64, 39
2,73356, Note_on_c, 0, 52, 0
2,73385, Note_on_c, 0, 49, 49
2,73389, Note_on_c, 0, 76, 56
2,73418, Control_c, 0, 64, 40
2,73492, Note_on_c, 0, 80, 0
2,73662, Note_on_c, 0, 73, 59
2,73663, Note_on_c, 0, 76, 0
2,73667, Note_on_c, 0, 54, 42
2,73668, Control_c, 0, 64, 40
2,73670, Note_on_c, 0, 59, 0
2,73738, Note_on_c, 0, 49, 0
2,73926, Note_on_c, 0, 75, 64
2,73936, Note_on_c, 0, 73, 0
2,73942, Note_on_c, 0, 58, 41
2,74109, Control_c, 0, 64, 40
2,74154, Note_on_c, 0, 58, 0
2,74167, Control_c, 0, 64, 39
2,74185, Note_on_c, 0, 76, 65
2,74186, Control_c, 0, 64, 39
2,74200, Note_on_c, 0, 75, 0
2,74202, Note_on_c, 0, 56, 40
2,74225, Control_c, 0, 64, 38
2,74243, Control_c, 0, 64, 38
2,74263, Control_c, 0, 64, 37
2,74282, Control_c, 0, 64, 36
2,74362, Control_c, 0, 64, 39
2,74380, Control_c, 0, 64, 45
2,74400, Control_c, 0, 64, 52
2,74417, Note_on_c, 0, 54, 0
2,74417, Note_on_c, 0, 56, 0
2,74419, Control_c, 0, 64, 57
2,74439, Control_c, 0, 64, 61
2,74444, Note_on_c, 0, 58, 48
2,74457, Control_c, 0, 64, 64
2,74477, Control_c, 0, 64, 67
2,74496, Control_c, 0, 64, 70
2,74516, Control_c, 0, 64, 74
2,74534, Control_c, 0, 64, 79
2,74554, Control_c, 0, 64, 82
2,74573, Control_c, 0, 64, 84
2,74583, Note_on_c, 0, 58, 0
2,74592, Control_c, 0, 64, 85
2,74611, Control_c, 0, 64, 86
2,74650, Control_c, 0, 64, 85
2,74669, Control_c, 0, 64, 85
2,74726, Control_c, 0, 64, 84
2,74745, Control_c, 0, 64, 77
2,74765, Control_c, 0, 64, 66
2,74769, Note_on_c, 0, 59, 59
2,74778, Note_on_c, 0, 47, 41
2,74784, Control_c, 0, 64, 58
2,74803, Control_c, 0, 64, 57
2,74822, Control_c, 0, 64, 57
2,74842, Control_c, 0, 64, 59
2,74860, Control_c, 0, 64, 61
2,74880, Control_c, 0, 64, 62
2,74899, Control_c, 0, 64, 62
2,74919, Control_c, 0, 64, 63
2,74937, Control_c, 0, 64, 64
2,74957, Control_c, 0, 64, 65
2,74976, Control_c, 0, 64, 66
2,74996, Control_c, 0, 64, 67
2,75034, Control_c, 0, 64, 67
2,75053, Control_c, 0, 64, 68
2,75066, Note_on_c, 0, 54, 48
2,75072, Control_c, 0, 64, 70
2,75091, Control_c, 0, 64, 71
2,75111, Control_c, 0, 64, 72
2,75158, Note_on_c, 0, 59, 0
2,75169, Control_c, 0, 64, 73
2,75189, Control_c, 0, 64, 73
2,75265, Control_c, 0, 64, 74
2,75303, Control_c, 0, 64, 75
2,75323, Control_c, 0, 64, 75
2,75340, Note_on_c, 0, 47, 0
2,75341, Note_on_c, 0, 54, 0
2,75341, Note_on_c, 0, 75, 70
2,75343, Note_on_c, 0, 59, 51
2,75380, Control_c, 0, 64, 76
2,75419, Note_on_c, 0, 76, 0
2,75438, Control_c, 0, 64, 76
2,75457, Control_c, 0, 64, 77
2,75515, Control_c, 0, 64, 77
2,75571, Note_on_c, 0, 73, 69
2,75580, Note_on_c, 0, 75, 0
2,75592, Control_c, 0, 64, 76
2,75605, Note_on_c, 0, 58, 43
2,75611, Control_c, 0, 64, 73
2,75629, Control_c, 0, 64, 71
2,75648, Control_c, 0, 64, 69
2,75705, Control_c, 0, 64, 69
2,75725, Control_c, 0, 64, 68
2,75744, Control_c, 0, 64, 67
2,75763, Control_c, 0, 64, 68
2,75782, Control_c, 0, 64, 69
2,75820, Control_c, 0, 64, 67
2,75822, Note_on_c, 0, 59, 0
2,75830, Note_on_c, 0, 58, 0
2,75830, Note_on_c, 0, 63, 74
2,75837, Note_on_c, 0, 56, 47
2,75840, Control_c, 0, 64, 65
2,75852, Note_on_c, 0, 71, 63
2,75859, Control_c, 0, 64, 58
2,75879, Control_c, 0, 64, 42
2,75892, Note_on_c, 0, 73, 0
2,75897, Control_c, 0, 64, 11
2,75917, Control_c, 0, 64, 0
2,76088, Note_on_c, 0, 58, 41
2,76112, Note_on_c, 0, 56, 0
2,76168, Control_c, 0, 64, 9
2,76187, Control_c, 0, 64, 18
2,76207, Control_c, 0, 64, 20
2,76225, Control_c, 0, 64, 22
2,76245, Control_c, 0, 64, 29
2,76264, Control_c, 0, 64, 36
2,76284, Control_c, 0, 64, 39
2,76302, Control_c, 0, 64, 40
2,76322, Control_c, 0, 64, 43
2,76329, Note_on_c, 0, 58, 0
2,76341, Control_c, 0, 64, 48
2,76356, Note_on_c, 0, 59, 52
2,76361, Control_c, 0, 64, 53
2,76379, Control_c, 0, 64, 55
2,76399, Control_c, 0, 64, 56
2,76418, Control_c, 0, 64, 58
2,76437, Control_c, 0, 64, 59
2,76456, Control_c, 0, 64, 59
2,76476, Control_c, 0, 64, 60
2,76495, Control_c, 0, 64, 60
2,76506, Note_on_c, 0, 59, 0
2,76514, Control_c, 0, 64, 61
2,76533, Control_c, 0, 64, 61
2,76577, Note_on_c, 0, 56, 54
2,76589, Control_c, 0, 64, 62
2,76685, Control_c, 0, 64, 61
2,76762, Control_c, 0, 64, 61
2,76791, Note_on_c, 0, 56, 0
2,76800, Control_c, 0, 64, 60
2,76819, Control_c, 0, 64, 58
2,76832, Note_on_c, 0, 68, 77
2,76839, Control_c, 0, 64, 55
2,76839, Note_on_c, 0, 52, 45
2,76857, Control_c, 0, 64, 48
2,76877, Control_c, 0, 64, 41
2,76896, Control_c, 0, 64, 37
2,76916, Control_c, 0, 64, 35
2,76949, Note_on_c, 0, 63, 0
2,76954, Control_c, 0, 64, 37
2,76960, Note_on_c, 0, 71, 0
2,76973, Control_c, 0, 64, 43
2,76992, Control_c, 0, 64, 50
2,77011, Control_c, 0, 64, 54
2,77031, Control_c, 0, 64, 55
2,77109, Note_on_c, 0, 52, 0
2,77113, Note_on_c, 0, 47, 35
2,77126, Control_c, 0, 64, 54
2,77145, Control_c, 0, 64, 54
2,77165, Control_c, 0, 64, 53
2,77222, Control_c, 0, 64, 53
2,77260, Control_c, 0, 64, 52
2,77280, Control_c, 0, 64, 52
2,77299, Control_c, 0, 64, 50
2,77319, Control_c, 0, 64, 49
2,77337, Control_c, 0, 64, 48
2,77343, Note_on_c, 0, 73, 69
2,77350, Note_on_c, 0, 52, 47
2,77434, Control_c, 0, 64, 49
2,77453, Control_c, 0, 64, 49
2,77472, Control_c, 0, 64, 50
2,77568, Control_c, 0, 64, 51
2,77585, Note_on_c, 0, 51, 49
2,77585, Note_on_c, 0, 71, 67
2,77587, Control_c, 0, 64, 52
2,77590, Note_on_c, 0, 73, 0
2,77606, Control_c, 0, 64, 52
2,77617, Note_on_c, 0, 52, 0
2,77625, Control_c, 0, 64, 53
2,77636, Note_on_c, 0, 47, 0
2,77645, Control_c, 0, 64, 54
2,77664, Control_c, 0, 64, 54
2,77683, Control_c, 0, 64, 55
2,77760, Control_c, 0, 64, 54
2,77810, Note_on_c, 0, 51, 0
2,77817, Control_c, 0, 64, 53
2,77837, Control_c, 0, 64, 51
2,77846, Note_on_c, 0, 49, 38
2,77850, Note_on_c, 0, 71, 0
2,77852, Note_on_c, 0, 64, 73
2,77856, Control_c, 0, 64, 46
2,77866, Note_on_c, 0, 70, 70
2,77876, Control_c, 0, 64, 34
2,77894, Control_c, 0, 64, 15
2,77913, Note_on_c, 0, 68, 0
2,77914, Control_c, 0, 64, 9
2,77933, Control_c, 0, 64, 11
2,77952, Control_c, 0, 64, 21
2,77971, Control_c, 0, 64, 27
2,77991, Control_c, 0, 64, 30
2,78010, Control_c, 0, 64, 36
2,78028, Control_c, 0, 64, 44
2,78048, Control_c, 0, 64, 51
2,78067, Control_c, 0, 64, 54
2,78114, Note_on_c, 0, 51, 28
2,78131, Note_on_c, 0, 49, 0
2,78202, Control_c, 0, 64, 53
2,78301, Note_on_c, 0, 51, 0
2,78336, Control_c, 0, 64, 55
2,78356, Control_c, 0, 64, 56
2,78357, Note_on_c, 0, 52, 34
2,78370, Note_on_c, 0, 68, 71
2,78374, Control_c, 0, 64, 58
2,78385, Note_on_c, 0, 70, 0
2,78394, Control_c, 0, 64, 60
2,78413, Control_c, 0, 64, 62
2,78432, Control_c, 0, 64, 63
2,78451, Control_c, 0, 64, 64
2,78471, Control_c, 0, 64, 65
2,78490, Control_c, 0, 64, 66
2,78508, Control_c, 0, 64, 66
2,78521, Note_on_c, 0, 68, 0
2,78537, Note_on_c, 0, 64, 0
2,78566, Control_c, 0, 64, 67
2,78585, Note_on_c, 0, 49, 44
2,78624, Control_c, 0, 64, 67
2,78759, Control_c, 0, 64, 67
2,78797, Control_c, 0, 64, 66
2,78836, Control_c, 0, 64, 66
2,78836, Note_on_c, 0, 52, 0
2,78851, Note_on_c, 0, 46, 46
2,78854, Control_c, 0, 64, 64
2,78860, Note_on_c, 0, 61, 73
2,78867, Note_on_c, 0, 67, 55
2,78874, Control_c, 0, 64, 62
2,78881, Note_on_c, 0, 49, 0
2,78893, Control_c, 0, 64, 56
2,78912, Control_c, 0, 64, 49
2,78931, Control_c, 0, 64, 41
2,78951, Control_c, 0, 64, 28
2,78970, Control_c, 0, 64, 0
2,79121, Note_on_c, 0, 46, 0
2,79122, Note_on_c, 0, 47, 33
2,79352, Note_on_c, 0, 47, 0
2,79370, Note_on_c, 0, 49, 40
2,79373, Control_c, 0, 64, 17
2,79378, Note_on_c, 0, 64, 64
2,79387, Note_on_c, 0, 67, 0
2,79392, Control_c, 0, 64, 36
2,79411, Control_c, 0, 64, 49
2,79431, Control_c, 0, 64, 57
2,79450, Control_c, 0, 64, 59
2,79468, Control_c, 0, 64, 60
2,79488, Control_c, 0, 64, 62
2,79507, Control_c, 0, 64, 63
2,79526, Control_c, 0, 64, 64
2,79545, Control_c, 0, 64, 64
2,79565, Control_c, 0, 64, 65
2,79584, Control_c, 0, 64, 66
2,79603, Control_c, 0, 64, 68
2,79614, Note_on_c, 0, 46, 39
2,79616, Note_on_c, 0, 64, 0
2,79622, Control_c, 0, 64, 69
2,79631, Note_on_c, 0, 49, 0
2,79642, Control_c, 0, 64, 71
2,79660, Control_c, 0, 64, 71
2,79680, Control_c, 0, 64, 72
2,79699, Control_c, 0, 64, 73
2,79719, Control_c, 0, 64, 72
2,79796, Control_c, 0, 64, 72
2,79814, Control_c, 0, 64, 71
2,79834, Control_c, 0, 64, 70
2,79858, Note_on_c, 0, 46, 0
2,79872, Control_c, 0, 64, 70
2,79881, Note_on_c, 0, 43, 43
2,79890, Note_on_c, 0, 70, 77
2,79891, Control_c, 0, 64, 69
2,79903, Note_on_c, 0, 63, 61
2,79908, Note_on_c, 0, 61, 0
2,79911, Control_c, 0, 64, 66
2,79930, Control_c, 0, 64, 62
2,79948, Control_c, 0, 64, 54
2,79968, Control_c, 0, 64, 40
2,79987, Control_c, 0, 64, 27
2,80006, Control_c, 0, 64, 23
2,80025, Control_c, 0, 64, 20
2,80045, Control_c, 0, 64, 15
2,80064, Control_c, 0, 64, 11
2,80132, Note_on_c, 0, 43, 0
2,80152, Note_on_c, 0, 44, 44
2,80179, Control_c, 0, 64, 9
2,80410, Control_c, 0, 64, 0
2,80431, Note_on_c, 0, 46, 41
2,80438, Note_on_c, 0, 63, 0
2,80438, Note_on_c, 0, 68, 53
2,80448, Note_on_c, 0, 44, 0
2,80449, Note_on_c, 0, 61, 40
2,80602, Control_c, 0, 64, 17
2,80620, Control_c, 0, 64, 36
2,80640, Control_c, 0, 64, 50
2,80659, Control_c, 0, 64, 58
2,80679, Control_c, 0, 64, 63
2,80682, Note_on_c, 0, 70, 0
2,80691, Note_on_c, 0, 68, 0
2,80695, Note_on_c, 0, 67, 58
2,80697, Control_c, 0, 64, 64
2,80717, Control_c, 0, 64, 66
2,80736, Control_c, 0, 64, 68
2,80756, Control_c, 0, 64, 70
2,80774, Control_c, 0, 64, 72
2,80794, Control_c, 0, 64, 74
2,80805, Note_on_c, 0, 67, 0
2,80810, Note_on_c, 0, 61, 0
2,80813, Control_c, 0, 64, 75
2,80851, Control_c, 0, 64, 76
2,80908, Control_c, 0, 64, 75
2,80947, Control_c, 0, 64, 75
2,80966, Control_c, 0, 64, 74
2,80983, Note_on_c, 0, 71, 69
2,80985, Control_c, 0, 64, 73
2,80996, Note_on_c, 0, 68, 55
2,81005, Control_c, 0, 64, 70
2,81010, Note_on_c, 0, 63, 47
2,81024, Control_c, 0, 64, 66
2,81043, Control_c, 0, 64, 61
2,81062, Control_c, 0, 64, 56
2,81082, Control_c, 0, 64, 47
2,81101, Control_c, 0, 64, 36
2,81120, Control_c, 0, 64, 27
2,81139, Control_c, 0, 64, 21
2,81159, Control_c, 0, 64, 9
2,81177, Control_c, 0, 64, 0
2,81239, Note_on_c, 0, 46, 0
2,81245, Note_on_c, 0, 44, 41
2,81294, Note_on_c, 0, 68, 0
2,81526, Note_on_c, 0, 46, 40
2,81554, Note_on_c, 0, 44, 0
2,81768, Note_on_c, 0, 47, 43
2,81780, Note_on_c, 0, 46, 0
2,82026, Note_on_c, 0, 49, 40
2,82038, Note_on_c, 0, 64, 51
2,82048, Note_on_c, 0, 63, 0
2,82054, Note_on_c, 0, 47, 0
2,82070, Note_on_c, 0, 71, 0
2,82298, Note_on_c, 0, 71, 58
2,82553, Note_on_c, 0, 70, 70
2,82556, Note_on_c, 0, 71, 0
2,82579, Control_c, 0, 64, 9
2,82599, Control_c, 0, 64, 24
2,82617, Control_c, 0, 64, 31
2,82637, Control_c, 0, 64, 37
2,82656, Control_c, 0, 64, 43
2,82676, Control_c, 0, 64, 50
2,82694, Control_c, 0, 64, 57
2,82714, Control_c, 0, 64, 60
2,82733, Control_c, 0, 64, 62
2,82752, Control_c, 0, 64, 64
2,82771, Control_c, 0, 64, 66
2,82791, Control_c, 0, 64, 68
2,82796, Note_on_c, 0, 68, 69
2,82797, Note_on_c, 0, 70, 0
2,82810, Control_c, 0, 64, 73
2,82828, Control_c, 0, 64, 78
2,82848, Control_c, 0, 64, 84
2,82866, Note_on_c, 0, 68, 0
2,82867, Control_c, 0, 64, 86
2,82944, Control_c, 0, 64, 86
2,82963, Control_c, 0, 64, 85
2,82982, Control_c, 0, 64, 83
2,83002, Control_c, 0, 64, 82
2,83021, Control_c, 0, 64, 80
2,83037, Note_on_c, 0, 64, 0
2,83040, Control_c, 0, 64, 76
2,83056, Note_on_c, 0, 66, 59
2,83059, Control_c, 0, 64, 70
2,83079, Control_c, 0, 64, 65
2,83081, Note_on_c, 0, 63, 38
2,83097, Control_c, 0, 64, 58
2,83117, Control_c, 0, 64, 51
2,83136, Control_c, 0, 64, 44
2,83156, Control_c, 0, 64, 37
2,83174, Control_c, 0, 64, 29
2,83194, Control_c, 0, 64, 23
2,83213, Control_c, 0, 64, 20
2,83232, Control_c, 0, 64, 18
2,83251, Control_c, 0, 64, 17
2,83271, Control_c, 0, 64, 11
2,83290, Control_c, 0, 64, 0
2,83319, Note_on_c, 0, 61, 43
2,83324, Note_on_c, 0, 42, 44
2,83348, Note_on_c, 0, 49, 0
2,83402, Note_on_c, 0, 63, 0
2,83558, Note_on_c, 0, 61, 0
2,83577, Note_on_c, 0, 42, 0
2,83583, Note_on_c, 0, 59, 50
2,83589, Note_on_c, 0, 44, 39
2,83794, Note_on_c, 0, 59, 0
2,83813, Note_on_c, 0, 46, 42
2,83826, Note_on_c, 0, 44, 0
2,83844, Note_on_c, 0, 61, 48
2,84096, Control_c, 0, 64, 11
2,84097, Note_on_c, 0, 47, 30
2,84100, Note_on_c, 0, 46, 0
2,84105, Note_on_c, 0, 62, 48
2,84108, Note_on_c, 0, 61, 0
2,84134, Control_c, 0, 64, 13
2,84173, Control_c, 0, 64, 15
2,84192, Control_c, 0, 64, 18
2,84211, Control_c, 0, 64, 19
2,84231, Control_c, 0, 64, 20
2,84250, Control_c, 0, 64, 21
2,84268, Control_c, 0, 64, 23
2,84288, Control_c, 0, 64, 26
2,84307, Control_c, 0, 64, 27
2,84326, Control_c, 0, 64, 28
2,84358, Note_on_c, 0, 69, 56
2,84365, Control_c, 0, 64, 29
2,84399, Note_on_c, 0, 66, 0
2,84403, Control_c, 0, 64, 29
2,84422, Control_c, 0, 64, 30
2,84442, Control_c, 0, 64, 31
2,84480, Control_c, 0, 64, 31
2,84557, Control_c, 0, 64, 32
2,84576, Control_c, 0, 64, 32
2,84610, Note_on_c, 0, 69, 0
2,84612, Note_on_c, 0, 68, 66
2,84634, Control_c, 0, 64, 33
2,84653, Control_c, 0, 64, 34
2,84691, Control_c, 0, 64, 34
2,84731, Control_c, 0, 64, 35
2,84769, Control_c, 0, 64, 35
2,84788, Control_c, 0, 64, 36
2,84807, Control_c, 0, 64, 36
2,84826, Control_c, 0, 64, 38
2,84846, Control_c, 0, 64, 39
2,84864, Note_on_c, 0, 66, 64
2,84865, Control_c, 0, 64, 41
2,84876, Note_on_c, 0, 68, 0
2,84884, Control_c, 0, 64, 43
2,84903, Control_c, 0, 64, 45
2,84923, Control_c, 0, 64, 46
2,84941, Control_c, 0, 64, 48
2,84961, Control_c, 0, 64, 48
2,84966, Note_on_c, 0, 62, 0
2,84980, Control_c, 0, 64, 50
2,85000, Control_c, 0, 64, 51
2,85095, Control_c, 0, 64, 50
2,85121, Note_on_c, 0, 66, 0
2,85129, Note_on_c, 0, 65, 59
2,85134, Control_c, 0, 64, 50
2,85142, Note_on_c, 0, 61, 51
2,85153, Control_c, 0, 64, 49
2,85172, Control_c, 0, 64, 49
2,85192, Control_c, 0, 64, 47
2,85211, Control_c, 0, 64, 46
2,85228, Control_c, 0, 64, 45
2,85248, Control_c, 0, 64, 44
2,85267, Control_c, 0, 64, 44
2,85286, Control_c, 0, 64, 43
2,85305, Control_c, 0, 64, 42
2,85325, Control_c, 0, 64, 40
2,85344, Control_c, 0, 64, 39
2,85363, Note_on_c, 0, 46, 48
2,85385, Note_on_c, 0, 47, 0
2,85391, Note_on_c, 0, 66, 60
2,85395, Note_on_c, 0, 65, 0
2,85536, Control_c, 0, 64, 40
2,85556, Control_c, 0, 64, 41
2,85574, Control_c, 0, 64, 41
2,85626, Note_on_c, 0, 46, 0
2,85632, Control_c, 0, 64, 42
2,85638, Note_on_c, 0, 68, 65
2,85646, Note_on_c, 0, 66, 0
2,85648, Note_on_c, 0, 47, 50
2,85766, Control_c, 0, 64, 42
2,85805, Control_c, 0, 64, 43
2,85876, Note_on_c, 0, 47, 0
2,85878, Note_on_c, 0, 65, 67
2,85890, Note_on_c, 0, 49, 51
2,85897, Note_on_c, 0, 68, 0
2,85920, Control_c, 0, 64, 43
2,85977, Control_c, 0, 64, 44
2,86093, Control_c, 0, 64, 44
2,86131, Control_c, 0, 64, 45
2,86135, Note_on_c, 0, 49, 0
2,86144, Note_on_c, 0, 66, 71
2,86145, Note_on_c, 0, 51, 45
2,86151, Control_c, 0, 64, 45
2,86169, Note_on_c, 0, 61, 0
2,86186, Note_on_c, 0, 65, 0
2,86188, Control_c, 0, 64, 46
2,86208, Control_c, 0, 64, 46
2,86227, Control_c, 0, 64, 47
2,86246, Control_c, 0, 64, 49
2,86265, Control_c, 0, 64, 51
2,86285, Control_c, 0, 64, 54
2,86304, Control_c, 0, 64, 56
2,86323, Control_c, 0, 64, 58
2,86342, Control_c, 0, 64, 59
2,86362, Control_c, 0, 64, 60
2,86381, Control_c, 0, 64, 60
2,86400, Control_c, 0, 64, 61
2,86419, Control_c, 0, 64, 61
2,86420, Note_on_c, 0, 59, 53
2,86439, Control_c, 0, 64, 62
2,86534, Control_c, 0, 64, 61
2,86554, Control_c, 0, 64, 61
2,86573, Control_c, 0, 64, 60
2,86592, Control_c, 0, 64, 59
2,86611, Control_c, 0, 64, 58
2,86631, Control_c, 0, 64, 57
2,86631, Note_on_c, 0, 51, 0
2,86650, Control_c, 0, 64, 55
2,86668, Control_c, 0, 64, 53
2,86682, Note_on_c, 0, 58, 56
2,86686, Note_on_c, 0, 59, 0
2,86688, Control_c, 0, 64, 51
2,86691, Note_on_c, 0, 49, 31
2,86707, Control_c, 0, 64, 51
2,86745, Control_c, 0, 64, 51
2,86765, Control_c, 0, 64, 53
2,86784, Control_c, 0, 64, 55
2,86803, Control_c, 0, 64, 58
2,86822, Control_c, 0, 64, 60
2,86842, Control_c, 0, 64, 62
2,86861, Control_c, 0, 64, 63
2,86880, Control_c, 0, 64, 64
2,86884, Note_on_c, 0, 58, 0
2,86899, Control_c, 0, 64, 64
2,86919, Control_c, 0, 64, 65
2,86937, Control_c, 0, 64, 66
2,86953, Note_on_c, 0, 59, 49
2,86957, Control_c, 0, 64, 67
2,86976, Control_c, 0, 64, 68
2,87010, Note_on_c, 0, 59, 0
2,87034, Control_c, 0, 64, 68
2,87072, Control_c, 0, 64, 68
2,87130, Control_c, 0, 64, 67
2,87148, Control_c, 0, 64, 67
2,87163, Note_on_c, 0, 49, 0
2,87168, Control_c, 0, 64, 66
2,87206, Control_c, 0, 64, 66
2,87208, Note_on_c, 0, 47, 42
2,87217, Note_on_c, 0, 56, 58
2,87225, Control_c, 0, 64, 65
2,87245, Control_c, 0, 64, 64
2,87264, Control_c, 0, 64, 63
2,87283, Control_c, 0, 64, 61
2,87302, Control_c, 0, 64, 59
2,87322, Control_c, 0, 64, 56
2,87341, Control_c, 0, 64, 52
2,87360, Control_c, 0, 64, 51
2,87379, Control_c, 0, 64, 50
2,87399, Control_c, 0, 64, 49
2,87417, Control_c, 0, 64, 48
2,87433, Note_on_c, 0, 47, 0
2,87457, Note_on_c, 0, 44, 37
2,87494, Control_c, 0, 64, 48
2,87628, Control_c, 0, 64, 48
2,87667, Control_c, 0, 64, 49
2,87725, Control_c, 0, 64, 49
2,87743, Note_on_c, 0, 46, 30
2,87744, Control_c, 0, 64, 50
2,87763, Control_c, 0, 64, 51
2,87778, Note_on_c, 0, 44, 0
2,87802, Control_c, 0, 64, 51
2,87859, Control_c, 0, 64, 52
2,87897, Control_c, 0, 64, 52
2,87962, Note_on_c, 0, 46, 0
2,87974, Control_c, 0, 64, 53
2,87989, Note_on_c, 0, 47, 34
2,88090, Control_c, 0, 64, 53
2,88108, Control_c, 0, 64, 54
2,88147, Control_c, 0, 64, 54
2,88224, Control_c, 0, 64, 55
2,88274, Note_on_c, 0, 47, 0
2,88288, Note_on_c, 0, 56, 0
2,88292, Note_on_c, 0, 65, 52
2,88303, Note_on_c, 0, 66, 0
2,88305, Note_on_c, 0, 49, 32
2,88359, Control_c, 0, 64, 55
2,88592, Note_on_c, 0, 56, 37
2,88723, Control_c, 0, 64, 56
2,88826, Note_on_c, 0, 56, 0
2,88841, Note_on_c, 0, 49, 0
2,88859, Note_on_c, 0, 58, 36
2,88886, Note_on_c, 0, 47, 18
2,89110, Note_on_c, 0, 58, 0
2,89143, Note_on_c, 0, 59, 44
2,89466, Note_on_c, 0, 47, 0
2,89476, Note_on_c, 0, 66, 53
2,89491, Note_on_c, 0, 61, 39
2,89529, Note_on_c, 0, 59, 0
2,89561, Note_on_c, 0, 65, 0
2,89644, Control_c, 0, 64, 55
2,89750, Note_on_c, 0, 47, 32
2,90000, Note_on_c, 0, 47, 0
2,90009, Note_on_c, 0, 46, 27
2,90267, Note_on_c, 0, 44, 26
2,90292, Note_on_c, 0, 46, 0
2,90522, Note_on_c, 0, 44, 0
2,90542, Note_on_c, 0, 70, 61
2,90548, Note_on_c, 0, 42, 32
2,90584, Note_on_c, 0, 61, 0
2,90796, Control_c, 0, 64, 56
2,90816, Note_on_c, 0, 64, 47
2,90835, Control_c, 0, 64, 56
2,90873, Control_c, 0, 64, 57
2,90892, Control_c, 0, 64, 57
2,90928, Note_on_c, 0, 66, 0
2,90930, Control_c, 0, 64, 58
2,90949, Control_c, 0, 64, 59
2,90969, Control_c, 0, 64, 60
2,90987, Control_c, 0, 64, 60
2,91007, Control_c, 0, 64, 61
2,91026, Control_c, 0, 64, 62
2,91046, Control_c, 0, 64, 63
2,91048, Note_on_c, 0, 64, 0
2,91051, Note_on_c, 0, 42, 0
2,91064, Control_c, 0, 64, 64
2,91073, Note_on_c, 0, 63, 47
2,91084, Control_c, 0, 64, 65
2,91103, Control_c, 0, 64, 65
2,91122, Control_c, 0, 64, 66
2,91141, Control_c, 0, 64, 67
2,91161, Control_c, 0, 64, 68
2,91180, Control_c, 0, 64, 69
2,91199, Control_c, 0, 64, 70
2,91218, Control_c, 0, 64, 72
2,91238, Control_c, 0, 64, 74
2,91256, Control_c, 0, 64, 76
2,91276, Control_c, 0, 64, 77
2,91289, Note_on_c, 0, 63, 0
2,91315, Control_c, 0, 64, 77
2,91335, Note_on_c, 0, 61, 46
2,91488, Control_c, 0, 64, 77
2,91519, Note_on_c, 0, 61, 0
2,91526, Control_c, 0, 64, 76
2,91545, Control_c, 0, 64, 75
2,91565, Control_c, 0, 64, 75
2,91584, Control_c, 0, 64, 73
2,91599, Note_on_c, 0, 75, 70
2,91603, Control_c, 0, 64, 72
2,91607, Note_on_c, 0, 59, 37
2,91622, Control_c, 0, 64, 69
2,91642, Control_c, 0, 64, 66
2,91660, Note_on_c, 0, 70, 0
2,91661, Control_c, 0, 64, 62
2,91680, Control_c, 0, 64, 58
2,91699, Control_c, 0, 64, 55
2,91719, Control_c, 0, 64, 54
2,91737, Control_c, 0, 64, 53
2,91757, Control_c, 0, 64, 53
2,91776, Control_c, 0, 64, 52
2,91796, Control_c, 0, 64, 52
2,91814, Control_c, 0, 64, 51
2,91867, Note_on_c, 0, 51, 36
2,92006, Control_c, 0, 64, 52
2,92044, Control_c, 0, 64, 52
2,92082, Control_c, 0, 64, 53
2,92096, Note_on_c, 0, 51, 0
2,92101, Control_c, 0, 64, 54
2,92109, Note_on_c, 0, 53, 38
2,92110, Note_on_c, 0, 71, 58
2,92121, Control_c, 0, 64, 56
2,92140, Control_c, 0, 64, 56
2,92159, Control_c, 0, 64, 57
2,92178, Control_c, 0, 64, 58
2,92198, Control_c, 0, 64, 60
2,92216, Control_c, 0, 64, 61
2,92236, Control_c, 0, 64, 62
2,92255, Control_c, 0, 64, 63
2,92275, Control_c, 0, 64, 63
2,92293, Control_c, 0, 64, 64
2,92313, Control_c, 0, 64, 65
2,92324, Note_on_c, 0, 53, 0
2,92332, Control_c, 0, 64, 66
2,92332, Note_on_c, 0, 71, 0
2,92350, Control_c, 0, 64, 66
2,92359, Note_on_c, 0, 70, 60
2,92363, Note_on_c, 0, 55, 42
2,92370, Control_c, 0, 64, 68
2,92389, Control_c, 0, 64, 69
2,92409, Control_c, 0, 64, 70
2,92427, Control_c, 0, 64, 72
2,92447, Control_c, 0, 64, 74
2,92466, Control_c, 0, 64, 75
2,92474, Note_on_c, 0, 70, 0
2,92558, Note_on_c, 0, 75, 0
2,92620, Control_c, 0, 64, 73
2,92638, Note_on_c, 0, 71, 71
2,92639, Control_c, 0, 64, 67
2,92641, Note_on_c, 0, 55, 0
2,92658, Control_c, 0, 64, 59
2,92665, Note_on_c, 0, 68, 46
2,92669, Note_on_c, 0, 56, 40
2,92678, Control_c, 0, 64, 49
2,92696, Control_c, 0, 64, 46
2,92716, Control_c, 0, 64, 46
2,92755, Control_c, 0, 64, 47
2,92773, Control_c, 0, 64, 52
2,92793, Control_c, 0, 64, 57
2,92812, Control_c, 0, 64, 61
2,92830, Control_c, 0, 64, 63
2,92850, Control_c, 0, 64, 64
2,92869, Control_c, 0, 64, 65
2,92889, Control_c, 0, 64, 66
2,92890, Note_on_c, 0, 68, 0
2,92895, Note_on_c, 0, 70, 64
2,92897, Note_on_c, 0, 56, 0
2,92906, Control_c, 0, 64, 68
2,92922, Note_on_c, 0, 55, 41
2,92926, Control_c, 0, 64, 69
2,92945, Control_c, 0, 64, 71
2,92950, Note_on_c, 0, 71, 0
2,92965, Control_c, 0, 64, 72
2,93118, Control_c, 0, 64, 70
2,93137, Control_c, 0, 64, 66
2,93146, Note_on_c, 0, 71, 58
2,93157, Control_c, 0, 64, 60
2,93172, Note_on_c, 0, 56, 41
2,93172, Note_on_c, 0, 70, 0
2,93176, Control_c, 0, 64, 46
2,93182, Note_on_c, 0, 55, 0
2,93195, Control_c, 0, 64, 40
2,93214, Control_c, 0, 64, 41
2,93221, Note_on_c, 0, 59, 0
2,93234, Control_c, 0, 64, 46
2,93252, Control_c, 0, 64, 55
2,93271, Control_c, 0, 64, 60
2,93291, Control_c, 0, 64, 62
2,93310, Control_c, 0, 64, 63
2,93329, Control_c, 0, 64, 64
2,93341, Note_on_c, 0, 71, 0
2,93348, Control_c, 0, 64, 65
2,93369, Control_c, 0, 64, 66
2,93385, Note_on_c, 0, 68, 56
2,93387, Control_c, 0, 64, 68
2,93407, Control_c, 0, 64, 70
2,93426, Control_c, 0, 64, 73
2,93440, Note_on_c, 0, 68, 0
2,93446, Control_c, 0, 64, 75
2,93464, Control_c, 0, 64, 76
2,93522, Control_c, 0, 64, 75
2,93618, Control_c, 0, 64, 74
2,93628, Note_on_c, 0, 56, 0
2,93638, Control_c, 0, 64, 72
2,93649, Note_on_c, 0, 68, 72
2,93656, Control_c, 0, 64, 71
2,93665, Note_on_c, 0, 65, 48
2,93676, Control_c, 0, 64, 71
2,93695, Control_c, 0, 64, 72
2,93715, Control_c, 0, 64, 72
2,93733, Control_c, 0, 64, 73
2,93753, Control_c, 0, 64, 73
2,93772, Control_c, 0, 64, 74
2,93810, Control_c, 0, 64, 75
2,93829, Control_c, 0, 64, 76
2,93849, Control_c, 0, 64, 78
2,93867, Control_c, 0, 64, 80
2,93887, Control_c, 0, 64, 81
2,93903, Note_on_c, 0, 66, 58
2,93926, Control_c, 0, 64, 81
2,93944, Control_c, 0, 64, 82
2,93949, Note_on_c, 0, 68, 0
2,94002, Control_c, 0, 64, 81
2,94018, Note_on_c, 0, 65, 0
2,94041, Control_c, 0, 64, 81
2,94118, Control_c, 0, 64, 80
2,94136, Control_c, 0, 64, 76
2,94156, Control_c, 0, 64, 66
2,94170, Note_on_c, 0, 68, 54
2,94175, Control_c, 0, 64, 56
2,94180, Note_on_c, 0, 56, 36
2,94189, Note_on_c, 0, 59, 28
2,94195, Control_c, 0, 64, 43
2,94211, Note_on_c, 0, 66, 0
2,94213, Control_c, 0, 64, 42
2,94252, Control_c, 0, 64, 46
2,94270, Control_c, 0, 64, 51
2,94290, Control_c, 0, 64, 55
2,94309, Control_c, 0, 64, 59
2,94326, Control_c, 0, 64, 61
2,94345, Control_c, 0, 64, 63
2,94354, Note_on_c, 0, 68, 0
2,94364, Control_c, 0, 64, 64
2,94383, Control_c, 0, 64, 65
2,94393, Note_on_c, 0, 65, 52
2,94403, Control_c, 0, 64, 66
2,94421, Control_c, 0, 64, 67
2,94441, Control_c, 0, 64, 67
2,94460, Control_c, 0, 64, 68
2,94480, Control_c, 0, 64, 69
2,94498, Control_c, 0, 64, 69
2,94518, Control_c, 0, 64, 70
2,94537, Control_c, 0, 64, 70
2,94556, Control_c, 0, 64, 71
2,94575, Control_c, 0, 64, 72
2,94595, Control_c, 0, 64, 73
2,94614, Control_c, 0, 64, 74
2,94633, Control_c, 0, 64, 71
2,94652, Control_c, 0, 64, 66
2,94671, Control_c, 0, 64, 58
2,94676, Note_on_c, 0, 77, 79
2,94678, Note_on_c, 0, 59, 0
2,94680, Note_on_c, 0, 58, 38
2,94691, Control_c, 0, 64, 55
2,94692, Note_on_c, 0, 62, 38
2,94700, Note_on_c, 0, 65, 0
2,94709, Control_c, 0, 64, 57
2,94729, Control_c, 0, 64, 61
2,94748, Control_c, 0, 64, 64
2,94767, Control_c, 0, 64, 66
2,94786, Control_c, 0, 64, 68
2,94794, Note_on_c, 0, 56, 0
2,94806, Control_c, 0, 64, 71
2,94821, Note_on_c, 0, 62, 0
2,94824, Control_c, 0, 64, 75
2,94826, Note_on_c, 0, 58, 0
2,94843, Control_c, 0, 64, 77
2,94862, Control_c, 0, 64, 78
2,94940, Note_on_c, 0, 63, 60
2,94977, Control_c, 0, 64, 77
2,95016, Control_c, 0, 64, 77
2,95021, Note_on_c, 0, 63, 0
2,95036, Control_c, 0, 64, 76
2,95054, Control_c, 0, 64, 76
2,95074, Control_c, 0, 64, 75
2,95093, Control_c, 0, 64, 74
2,95111, Control_c, 0, 64, 74
2,95170, Control_c, 0, 64, 73
2,95188, Control_c, 0, 64, 71
2,95208, Control_c, 0, 64, 66
2,95219, Note_on_c, 0, 50, 34
2,95221, Note_on_c, 0, 65, 56
2,95227, Control_c, 0, 64, 59
2,95246, Control_c, 0, 64, 42
2,95265, Control_c, 0, 64, 35
2,95289, Control_c, 0, 64, 34
2,95327, Control_c, 0, 64, 36
2,95346, Control_c, 0, 64, 40
2,95366, Control_c, 0, 64, 47
2,95384, Control_c, 0, 64, 56
2,95404, Control_c, 0, 64, 61
2,95423, Control_c, 0, 64, 62
2,95441, Note_on_c, 0, 50, 0
2,95442, Control_c, 0, 64, 63
2,95461, Control_c, 0, 64, 64
2,95468, Note_on_c, 0, 56, 40
2,95481, Control_c, 0, 64, 65
2,95500, Control_c, 0, 64, 66
2,95519, Control_c, 0, 64, 68
2,95531, Note_on_c, 0, 56, 0
2,95538, Control_c, 0, 64, 69
2,95558, Control_c, 0, 64, 70
2,95596, Control_c, 0, 64, 70
2,95749, Control_c, 0, 64, 70
2,95756, Note_on_c, 0, 51, 36
2,95764, Note_on_c, 0, 65, 0
2,95764, Note_on_c, 0, 78, 74
2,95769, Control_c, 0, 64, 66
2,95780, Note_on_c, 0, 54, 29
2,95786, Note_on_c, 0, 77, 0
2,95788, Control_c, 0, 64, 59
2,95808, Control_c, 0, 64, 18
2,95827, Control_c, 0, 64, 0
2,95904, Control_c, 0, 64, 34
2,95923, Control_c, 0, 64, 52
2,95942, Control_c, 0, 64, 61
2,95962, Control_c, 0, 64, 63
2,95981, Control_c, 0, 64, 64
2,95983, Note_on_c, 0, 51, 0
2,95993, Note_on_c, 0, 54, 0
2,96000, Control_c, 0, 64, 65
2,96019, Control_c, 0, 64, 67
2,96039, Control_c, 0, 64, 68
2,96045, Note_on_c, 0, 63, 41
2,96057, Control_c, 0, 64, 69
2,96077, Control_c, 0, 64, 71
2,96096, Control_c, 0, 64, 72
2,96116, Control_c, 0, 64, 73
2,96154, Control_c, 0, 64, 73
2,96191, Control_c, 0, 64, 73
2,96230, Control_c, 0, 64, 72
2,96250, Control_c, 0, 64, 72
2,96268, Control_c, 0, 64, 71
2,96284, Note_on_c, 0, 65, 46
2,96288, Control_c, 0, 64, 70
2,96307, Control_c, 0, 64, 69
2,96320, Note_on_c, 0, 63, 0
2,96326, Control_c, 0, 64, 67
2,96345, Control_c, 0, 64, 64
2,96365, Control_c, 0, 64, 61
2,96384, Control_c, 0, 64, 60
2,96422, Control_c, 0, 64, 59
2,96442, Control_c, 0, 64, 58
2,96461, Control_c, 0, 64, 56
2,96480, Control_c, 0, 64, 53
2,96499, Control_c, 0, 64, 52
2,96519, Control_c, 0, 64, 50
2,96525, Note_on_c, 0, 66, 67
2,96537, Control_c, 0, 64, 47
2,96557, Control_c, 0, 64, 45
2,96576, Control_c, 0, 64, 41
2,96583, Note_on_c, 0, 65, 0
2,96596, Control_c, 0, 64, 38
2,96614, Control_c, 0, 64, 38
2,96802, Note_on_c, 0, 68, 70
2,96824, Control_c, 0, 64, 39
2,96844, Control_c, 0, 64, 39
2,96863, Control_c, 0, 64, 40
2,96886, Note_on_c, 0, 66, 0
2,96901, Control_c, 0, 64, 41
2,96921, Control_c, 0, 64, 42
2,96940, Control_c, 0, 64, 43
2,96978, Control_c, 0, 64, 43
2,96998, Control_c, 0, 64, 44
2,97016, Control_c, 0, 64, 44
2,97016, Note_on_c, 0, 78, 0
2,97036, Control_c, 0, 64, 45
2,97036, Note_on_c, 0, 77, 64
2,97210, Control_c, 0, 64, 46
2,97248, Control_c, 0, 64, 46
2,97286, Control_c, 0, 64, 47
2,97292, Note_on_c, 0, 78, 68
2,97368, Note_on_c, 0, 77, 0
2,97546, Note_on_c, 0, 80, 85
2,97607, Note_on_c, 0, 78, 0
2,97651, Control_c, 0, 64, 47
2,97670, Control_c, 0, 64, 48
2,97814, Note_on_c, 0, 82, 84
2,97866, Note_on_c, 0, 80, 0
2,98068, Note_on_c, 0, 66, 62
2,98087, Note_on_c, 0, 68, 0
2,98265, Control_c, 0, 64, 48
2,98323, Control_c, 0, 64, 49
2,98338, Note_on_c, 0, 68, 78
2,98379, Note_on_c, 0, 66, 0
2,98400, Control_c, 0, 64, 49
2,98477, Control_c, 0, 64, 50
2,98594, Note_on_c, 0, 70, 80
2,98630, Control_c, 0, 64, 50
2,98641, Note_on_c, 0, 68, 0
2,98860, Note_on_c, 0, 71, 78
2,98934, Note_on_c, 0, 70, 0
2,98998, Note_on_c, 0, 82, 0
2,99110, Note_on_c, 0, 82, 76
2,99369, Note_on_c, 0, 80, 76
2,99378, Control_c, 0, 64, 50
2,99420, Note_on_c, 0, 82, 0
2,99570, Control_c, 0, 64, 50
2,99589, Control_c, 0, 64, 51
2,99609, Control_c, 0, 64, 51
2,99614, Note_on_c, 0, 78, 75
2,99627, Control_c, 0, 64, 52
2,99647, Control_c, 0, 64, 54
2,99658, Note_on_c, 0, 80, 0
2,99666, Control_c, 0, 64, 55
2,99686, Control_c, 0, 64, 55
2,99875, Note_on_c, 0, 77, 66
2,99912, Note_on_c, 0, 78, 0
2,99992, Control_c, 0, 64, 56
2,100005, Note_on_c, 0, 71, 0
2,100031, Control_c, 0, 64, 56
2,100069, Control_c, 0, 64, 57
2,100129, Note_on_c, 0, 71, 63
2,100300, Control_c, 0, 64, 56
2,100358, Control_c, 0, 64, 56
2,100376, Control_c, 0, 64, 55
2,100396, Control_c, 0, 64, 55
2,100397, Note_on_c, 0, 70, 57
2,100397, Note_on_c, 0, 79, 67
2,100409, Note_on_c, 0, 71, 0
2,100416, Note_on_c, 0, 77, 0
2,100644, Note_on_c, 0, 80, 69
2,100652, Note_on_c, 0, 68, 49
2,100658, Note_on_c, 0, 70, 0
2,100682, Note_on_c, 0, 79, 0
2,100741, Control_c, 0, 64, 55
2,100902, Note_on_c, 0, 79, 66
2,100903, Note_on_c, 0, 68, 0
2,100910, Note_on_c, 0, 70, 51
2,100918, Note_on_c, 0, 80, 0
2,100952, Control_c, 0, 64, 55
2,101049, Control_c, 0, 64, 54
2,101157, Note_on_c, 0, 80, 72
2,101159, Note_on_c, 0, 71, 48
2,101160, Note_on_c, 0, 79, 0
2,101167, Note_on_c, 0, 70, 0
2,101221, Control_c, 0, 64, 55
2,101241, Control_c, 0, 64, 55
2,101260, Control_c, 0, 64, 56
2,101279, Control_c, 0, 64, 57
2,101298, Control_c, 0, 64, 59
2,101318, Control_c, 0, 64, 60
2,101336, Control_c, 0, 64, 60
2,101355, Note_on_c, 0, 71, 0
2,101356, Control_c, 0, 64, 61
2,101375, Control_c, 0, 64, 61
2,101407, Note_on_c, 0, 80, 0
2,101413, Note_on_c, 0, 82, 66
2,101414, Note_on_c, 0, 73, 57
2,101647, Note_on_c, 0, 82, 0
2,101656, Note_on_c, 0, 79, 69
2,101740, Control_c, 0, 64, 61
2,101912, Control_c, 0, 64, 60
2,101917, Note_on_c, 0, 73, 0
2,101931, Note_on_c, 0, 44, 56
2,101933, Note_on_c, 0, 79, 0
2,101943, Note_on_c, 0, 75, 67
2,102199, Note_on_c, 0, 73, 57
2,102258, Control_c, 0, 64, 60
2,102412, Control_c, 0, 64, 59
2,102440, Note_on_c, 0, 71, 58
2,102445, Note_on_c, 0, 73, 0
2,102507, Control_c, 0, 64, 59
2,102604, Control_c, 0, 64, 58
2,102681, Control_c, 0, 64, 58
2,102681, Note_on_c, 0, 71, 0
2,102697, Note_on_c, 0, 70, 61
2,102776, Control_c, 0, 64, 57
2,102853, Control_c, 0, 64, 57
2,102952, Note_on_c, 0, 47, 59
2,102965, Note_on_c, 0, 70, 0
2,102973, Control_c, 0, 64, 56
2,102995, Note_on_c, 0, 68, 45
2,103029, Note_on_c, 0, 44, 0
2,103050, Control_c, 0, 64, 56
2,103204, Control_c, 0, 64, 56
2,103223, Control_c, 0, 64, 57
2,103227, Note_on_c, 0, 68, 0
2,103236, Note_on_c, 0, 70, 60
2,103242, Control_c, 0, 64, 58
2,103261, Control_c, 0, 64, 58
2,103281, Control_c, 0, 64, 59
2,103300, Control_c, 0, 64, 60
2,103319, Control_c, 0, 64, 62
2,103338, Control_c, 0, 64, 63
2,103358, Control_c, 0, 64, 64
2,103376, Control_c, 0, 64, 66
2,103396, Control_c, 0, 64, 68
2,103415, Control_c, 0, 64, 72
2,103434, Note_on_c, 0, 47, 0
2,103435, Control_c, 0, 64, 78
2,103453, Control_c, 0, 64, 83
2,103469, Control_c, 0, 64, 86
2,103476, Note_on_c, 0, 71, 67
2,103486, Note_on_c, 0, 70, 0
2,103489, Control_c, 0, 64, 87
2,103623, Control_c, 0, 64, 86
2,103643, Control_c, 0, 64, 86
2,103661, Control_c, 0, 64, 85
2,103700, Control_c, 0, 64, 85
2,103722, Note_on_c, 0, 71, 0
2,103727, Note_on_c, 0, 68, 66
2,103738, Control_c, 0, 64, 84
2,103777, Control_c, 0, 64, 84
2,103796, Control_c, 0, 64, 83
2,103835, Control_c, 0, 64, 82
2,103854, Control_c, 0, 64, 81
2,103872, Control_c, 0, 64, 80
2,103911, Control_c, 0, 64, 80
2,103928, Control_c, 0, 64, 79
2,103941, Note_on_c, 0, 68, 0
2,103946, Control_c, 0, 64, 78
2,103959, Note_on_c, 0, 52, 67
2,103966, Control_c, 0, 64, 75
2,103967, Note_on_c, 0, 61, 43
2,103985, Control_c, 0, 64, 69
2,103988, Note_on_c, 0, 75, 0
2,104005, Control_c, 0, 64, 63
2,104023, Control_c, 0, 64, 55
2,104043, Control_c, 0, 64, 46
2,104062, Control_c, 0, 64, 40
2,104081, Control_c, 0, 64, 34
2,104100, Control_c, 0, 64, 31
2,104177, Control_c, 0, 64, 30
2,104183, Note_on_c, 0, 61, 0
2,104231, Note_on_c, 0, 60, 57
2,104465, Control_c, 0, 64, 31
2,104485, Control_c, 0, 64, 35
2,104487, Note_on_c, 0, 80, 62
2,104491, Note_on_c, 0, 61, 59
2,104496, Note_on_c, 0, 60, 0
2,104503, Control_c, 0, 64, 42
2,104523, Control_c, 0, 64, 49
2,104542, Control_c, 0, 64, 55
2,104561, Control_c, 0, 64, 60
2,104580, Control_c, 0, 64, 62
2,104600, Control_c, 0, 64, 64
2,104613, Note_on_c, 0, 52, 0
2,104619, Control_c, 0, 64, 66
2,104632, Note_on_c, 0, 61, 0
2,104638, Control_c, 0, 64, 70
2,104657, Control_c, 0, 64, 74
2,104677, Control_c, 0, 64, 79
2,104696, Control_c, 0, 64, 82
2,104741, Note_on_c, 0, 78, 71
2,104772, Control_c, 0, 64, 82
2,104849, Control_c, 0, 64, 82
2,104886, Control_c, 0, 64, 81
2,104905, Control_c, 0, 64, 80
2,104924, Control_c, 0, 64, 79
2,104943, Control_c, 0, 64, 79
2,104963, Control_c, 0, 64, 78
2,105000, Note_on_c, 0, 49, 71
2,105001, Control_c, 0, 64, 76
2,105016, Note_on_c, 0, 76, 67
2,105020, Control_c, 0, 64, 73
2,105033, Note_on_c, 0, 78, 0
2,105033, Note_on_c, 0, 80, 0
2,105040, Control_c, 0, 64, 67
2,105058, Control_c, 0, 64, 63
2,105078, Control_c, 0, 64, 59
2,105097, Control_c, 0, 64, 57
2,105116, Control_c, 0, 64, 55
2,105135, Control_c, 0, 64, 49
2,105155, Control_c, 0, 64, 45
2,105174, Control_c, 0, 64, 44
2,105192, Control_c, 0, 64, 43
2,105251, Control_c, 0, 64, 43
2,105261, Note_on_c, 0, 78, 75
2,105273, Note_on_c, 0, 76, 0
2,105346, Control_c, 0, 64, 43
2,105366, Control_c, 0, 64, 44
2,105385, Control_c, 0, 64, 44
2,105423, Control_c, 0, 64, 45
2,105443, Control_c, 0, 64, 46
2,105461, Control_c, 0, 64, 46
2,105481, Control_c, 0, 64, 47
2,105512, Note_on_c, 0, 80, 73
2,105520, Control_c, 0, 64, 47
2,105527, Note_on_c, 0, 68, 56
2,105535, Note_on_c, 0, 78, 0
2,105558, Control_c, 0, 64, 48
2,105597, Control_c, 0, 64, 49
2,105615, Control_c, 0, 64, 49
2,105635, Control_c, 0, 64, 50
2,105672, Control_c, 0, 64, 50
2,105772, Note_on_c, 0, 76, 69
2,105779, Note_on_c, 0, 80, 0
2,105788, Control_c, 0, 64, 51
2,105826, Control_c, 0, 64, 51
2,105886, Control_c, 0, 64, 52
2,105963, Control_c, 0, 64, 52
2,106021, Note_on_c, 0, 46, 62
2,106033, Note_on_c, 0, 76, 0
2,106036, Note_on_c, 0, 73, 64
2,106097, Control_c, 0, 64, 53
2,106127, Note_on_c, 0, 49, 0
2,106261, Note_on_c, 0, 68, 0
2,106289, Control_c, 0, 64, 53
2,106290, Note_on_c, 0, 75, 65
2,106331, Note_on_c, 0, 73, 0
2,106538, Note_on_c, 0, 76, 61
2,106548, Note_on_c, 0, 75, 0
2,106568, Note_on_c, 0, 67, 43
2,106616, Control_c, 0, 64, 54
2,106800, Note_on_c, 0, 73, 61
2,107051, Note_on_c, 0, 55, 68
2,107072, Note_on_c, 0, 70, 61
2,107081, Note_on_c, 0, 73, 0
2,107097, Note_on_c, 0, 76, 0
2,107186, Note_on_c, 0, 46, 0
2,107195, Note_on_c, 0, 67, 0
2,107321, Note_on_c, 0, 71, 64
2,107356, Note_on_c, 0, 70, 0
2,107590, Note_on_c, 0, 73, 61
2,107620, Note_on_c, 0, 71, 0
2,107842, Note_on_c, 0, 70, 56
2,108056, Control_c, 0, 64, 54
2,108125, Note_on_c, 0, 56, 69
2,108132, Note_on_c, 0, 70, 0
2,108137, Note_on_c, 0, 63, 49
2,108176, Note_on_c, 0, 55, 0
2,108421, Note_on_c, 0, 70, 69
2,108422, Note_on_c, 0, 73, 0
2,108672, Note_on_c, 0, 71, 74
2,108685, Note_on_c, 0, 70, 0
2,108823, Control_c, 0, 64, 54
2,108854, Note_on_c, 0, 63, 0
2,108917, Note_on_c, 0, 66, 55
2,109176, Note_on_c, 0, 66, 0
2,109187, Note_on_c, 0, 65, 46
2,109411, Note_on_c, 0, 65, 0
2,109423, Note_on_c, 0, 54, 42
2,109430, Note_on_c, 0, 68, 53
2,109439, Control_c, 0, 64, 53
2,109522, Note_on_c, 0, 56, 0
2,109650, Control_c, 0, 64, 54
2,109685, Note_on_c, 0, 54, 0
2,109689, Control_c, 0, 64, 55
2,109694, Note_on_c, 0, 61, 48
2,109697, Note_on_c, 0, 68, 0
2,109706, Note_on_c, 0, 53, 44
2,109707, Control_c, 0, 64, 57
2,109727, Control_c, 0, 64, 59
2,109746, Control_c, 0, 64, 61
2,109766, Control_c, 0, 64, 62
2,109771, Note_on_c, 0, 71, 0
2,109784, Control_c, 0, 64, 63
2,109804, Control_c, 0, 64, 63
2,109823, Control_c, 0, 64, 64
2,109842, Control_c, 0, 64, 64
2,109861, Control_c, 0, 64, 65
2,109932, Note_on_c, 0, 71, 62
2,109943, Note_on_c, 0, 56, 53
2,109953, Note_on_c, 0, 53, 0
2,109958, Control_c, 0, 64, 65
2,110053, Control_c, 0, 64, 65
2,110083, Note_on_c, 0, 71, 0
2,110111, Control_c, 0, 64, 64
2,110130, Control_c, 0, 64, 64
2,110201, Note_on_c, 0, 54, 49
2,110206, Control_c, 0, 64, 63
2,110216, Note_on_c, 0, 71, 64
2,110245, Control_c, 0, 64, 62
2,110263, Control_c, 0, 64, 60
2,110283, Control_c, 0, 64, 59
2,110302, Control_c, 0, 64, 57
2,110307, Note_on_c, 0, 56, 0
2,110321, Control_c, 0, 64, 57
2,110340, Control_c, 0, 64, 56
2,110360, Control_c, 0, 64, 56
2,110421, Note_on_c, 0, 71, 0
2,110453, Note_on_c, 0, 68, 67
2,110513, Control_c, 0, 64, 55
2,110688, Control_c, 0, 64, 56
2,110691, Note_on_c, 0, 68, 0
2,110700, Note_on_c, 0, 70, 68
2,110899, Control_c, 0, 64, 56
2,110939, Note_on_c, 0, 61, 0
2,110978, Note_on_c, 0, 64, 43
2,111110, Control_c, 0, 64, 57
2,111219, Note_on_c, 0, 64, 0
2,111233, Note_on_c, 0, 63, 51
2,111448, Note_on_c, 0, 63, 0
2,111473, Control_c, 0, 64, 57
2,111477, Note_on_c, 0, 66, 48
2,111481, Note_on_c, 0, 52, 39
2,111554, Note_on_c, 0, 54, 0
2,111581, Note_on_c, 0, 70, 0
2,111747, Note_on_c, 0, 51, 51
2,111750, Note_on_c, 0, 66, 0
2,111754, Note_on_c, 0, 52, 0
2,111771, Note_on_c, 0, 59, 50
2,111800, Control_c, 0, 64, 58
2,111934, Control_c, 0, 64, 58
2,111972, Control_c, 0, 64, 59
2,111991, Control_c, 0, 64, 60
2,111999, Note_on_c, 0, 69, 56
2,112001, Note_on_c, 0, 51, 0
2,112001, Note_on_c, 0, 54, 45
2,112011, Control_c, 0, 64, 61
2,112030, Control_c, 0, 64, 62
2,112049, Control_c, 0, 64, 63
2,112068, Control_c, 0, 64, 63
2,112088, Control_c, 0, 64, 64
2,112126, Control_c, 0, 64, 64
2,112149, Note_on_c, 0, 69, 0
2,112260, Control_c, 0, 64, 64
2,112280, Control_c, 0, 64, 63
2,112297, Note_on_c, 0, 52, 62
2,112299, Control_c, 0, 64, 62
2,112307, Note_on_c, 0, 69, 57
2,112318, Control_c, 0, 64, 62
2,112337, Control_c, 0, 64, 61
2,112357, Control_c, 0, 64, 59
2,112376, Control_c, 0, 64, 57
2,112394, Control_c, 0, 64, 56
2,112414, Control_c, 0, 64, 55
2,112427, Note_on_c, 0, 54, 0
2,112452, Control_c, 0, 64, 56
2,112491, Control_c, 0, 64, 56
2,112510, Control_c, 0, 64, 57
2,112511, Note_on_c, 0, 69, 0
2,112529, Control_c, 0, 64, 58
2,112541, Note_on_c, 0, 67, 58
2,112548, Control_c, 0, 64, 59
2,112548, Note_on_c, 0, 59, 0
2,112568, Control_c, 0, 64, 59
2,112586, Control_c, 0, 64, 60
2,112606, Control_c, 0, 64, 60
2,112625, Control_c, 0, 64, 61
2,112645, Control_c, 0, 64, 61
2,112702, Control_c, 0, 64, 62
2,112798, Control_c, 0, 64, 62
2,112799, Note_on_c, 0, 68, 69
2,112843, Note_on_c, 0, 67, 0
2,112856, Control_c, 0, 64, 63
2,112894, Control_c, 0, 64, 63
2,113048, Control_c, 0, 64, 64
2,113051, Note_on_c, 0, 51, 44
2,113063, Note_on_c, 0, 60, 44
2,113141, Note_on_c, 0, 52, 0
2,113278, Control_c, 0, 64, 63
2,113297, Control_c, 0, 64, 59
2,113313, Note_on_c, 0, 56, 80
2,113317, Control_c, 0, 64, 47
2,113323, Note_on_c, 0, 49, 52
2,113332, Note_on_c, 0, 64, 58
2,113336, Control_c, 0, 64, 25
2,113354, Control_c, 0, 64, 15
2,113359, Note_on_c, 0, 60, 0
2,113360, Note_on_c, 0, 51, 0
2,113393, Control_c, 0, 64, 29
2,113412, Control_c, 0, 64, 47
2,113431, Control_c, 0, 64, 57
2,113451, Control_c, 0, 64, 61
2,113470, Control_c, 0, 64, 62
2,113489, Control_c, 0, 64, 63
2,113508, Control_c, 0, 64, 64
2,113529, Control_c, 0, 64, 65
2,113547, Control_c, 0, 64, 67
2,113559, Note_on_c, 0, 49, 0
2,113567, Control_c, 0, 64, 69
2,113570, Note_on_c, 0, 51, 49
2,113576, Note_on_c, 0, 72, 64
2,113586, Control_c, 0, 64, 71
2,113606, Control_c, 0, 64, 73
2,113621, Note_on_c, 0, 68, 0
2,113624, Control_c, 0, 64, 76
2,113644, Control_c, 0, 64, 76
2,113649, Note_on_c, 0, 72, 0
2,113740, Control_c, 0, 64, 76
2,113778, Control_c, 0, 64, 76
2,113798, Control_c, 0, 64, 76
2,113816, Control_c, 0, 64, 72
2,113817, Note_on_c, 0, 51, 0
2,113836, Control_c, 0, 64, 65
2,113842, Note_on_c, 0, 52, 52
2,113843, Note_on_c, 0, 73, 69
2,113855, Control_c, 0, 64, 52
2,113874, Control_c, 0, 64, 37
2,113912, Control_c, 0, 64, 40
2,113932, Control_c, 0, 64, 50
2,113951, Control_c, 0, 64, 58
2,113970, Control_c, 0, 64, 61
2,113975, Note_on_c, 0, 64, 0
2,113989, Control_c, 0, 64, 63
2,114009, Control_c, 0, 64, 64
2,114026, Control_c, 0, 64, 66
2,114046, Control_c, 0, 64, 67
2,114062, Note_on_c, 0, 56, 0
2,114065, Control_c, 0, 64, 68
2,114081, Note_on_c, 0, 65, 61
2,114085, Control_c, 0, 64, 70
2,114085, Note_on_c, 0, 49, 47
2,114103, Control_c, 0, 64, 72
2,114123, Control_c, 0, 64, 73
2,114138, Note_on_c, 0, 65, 0
2,114180, Control_c, 0, 64, 73
2,114219, Control_c, 0, 64, 73
2,114334, Control_c, 0, 64, 72
2,114353, Control_c, 0, 64, 68
2,114372, Control_c, 0, 64, 63
2,114381, Note_on_c, 0, 61, 78
2,114382, Note_on_c, 0, 45, 61
2,114389, Note_on_c, 0, 52, 0
2,114391, Control_c, 0, 64, 53
2,114394, Note_on_c, 0, 66, 55
2,114411, Control_c, 0, 64, 30
2,114430, Control_c, 0, 64, 0
2,114458, Note_on_c, 0, 49, 0
2,114571, Note_on_c, 0, 66, 0
2,114598, Note_on_c, 0, 73, 0
2,114603, Control_c, 0, 64, 29
2,114622, Control_c, 0, 64, 49
2,114642, Control_c, 0, 64, 60
2,114654, Note_on_c, 0, 49, 40
2,114660, Control_c, 0, 64, 62
2,114680, Control_c, 0, 64, 63
2,114699, Control_c, 0, 64, 64
2,114718, Control_c, 0, 64, 65
2,114737, Control_c, 0, 64, 67
2,114757, Control_c, 0, 64, 69
2,114776, Control_c, 0, 64, 72
2,114794, Control_c, 0, 64, 75
2,114814, Control_c, 0, 64, 77
2,114833, Control_c, 0, 64, 78
2,114852, Control_c, 0, 64, 79
2,114871, Control_c, 0, 64, 80
2,114874, Note_on_c, 0, 45, 0
2,114891, Control_c, 0, 64, 81
2,114910, Control_c, 0, 64, 82
2,114913, Note_on_c, 0, 69, 64
2,114923, Note_on_c, 0, 54, 43
2,114929, Control_c, 0, 64, 82
2,114931, Note_on_c, 0, 73, 60
2,114948, Control_c, 0, 64, 83
2,114967, Note_on_c, 0, 49, 0
2,114968, Control_c, 0, 64, 83
2,114986, Control_c, 0, 64, 84
2,115005, Control_c, 0, 64, 84
2,115024, Control_c, 0, 64, 85
2,115044, Control_c, 0, 64, 85
2,115062, Control_c, 0, 64, 86
2,115082, Control_c, 0, 64, 86
2,115121, Control_c, 0, 64, 87
2,115138, Note_on_c, 0, 73, 0
2,115153, Note_on_c, 0, 61, 0
2,115177, Note_on_c, 0, 68, 75
2,115273, Control_c, 0, 64, 86
2,115280, Note_on_c, 0, 69, 0
2,115312, Control_c, 0, 64, 86
2,115331, Control_c, 0, 64, 84
2,115350, Control_c, 0, 64, 82
2,115370, Control_c, 0, 64, 80
2,115389, Control_c, 0, 64, 80
2,115408, Control_c, 0, 64, 79
2,115427, Control_c, 0, 64, 73
2,115438, Note_on_c, 0, 57, 77
2,115438, Note_on_c, 0, 75, 71
2,115445, Note_on_c, 0, 68, 0
2,115448, Control_c, 0, 64, 64
2,115452, Note_on_c, 0, 66, 60
2,115466, Control_c, 0, 64, 0
2,115619, Note_on_c, 0, 54, 0
2,115685, Note_on_c, 0, 66, 0
2,115685, Note_on_c, 0, 68, 72
2,115940, Note_on_c, 0, 69, 58
2,115942, Note_on_c, 0, 68, 0
2,115951, Note_on_c, 0, 48, 58
2,116157, Control_c, 0, 64, 50
2,116176, Control_c, 0, 64, 62
2,116178, Note_on_c, 0, 75, 0
2,116193, Note_on_c, 0, 69, 0
2,116195, Control_c, 0, 64, 63
2,116204, Note_on_c, 0, 66, 53
2,116215, Control_c, 0, 64, 64
2,116233, Control_c, 0, 64, 65
2,116253, Control_c, 0, 64, 68
2,116272, Control_c, 0, 64, 70
2,116291, Control_c, 0, 64, 71
2,116408, Control_c, 0, 64, 71
2,116426, Control_c, 0, 64, 70
2,116446, Control_c, 0, 64, 66
2,116456, Note_on_c, 0, 66, 0
2,116465, Control_c, 0, 64, 60
2,116465, Note_on_c, 0, 54, 77
2,116479, Note_on_c, 0, 63, 60
2,116485, Control_c, 0, 64, 45
2,116503, Control_c, 0, 64, 29
2,116523, Control_c, 0, 64, 21
2,116524, Note_on_c, 0, 57, 0
2,116542, Control_c, 0, 64, 11
2,116568, Note_on_c, 0, 48, 0
2,116580, Control_c, 0, 64, 15
2,116600, Control_c, 0, 64, 32
2,116619, Control_c, 0, 64, 46
2,116638, Control_c, 0, 64, 51
2,116657, Control_c, 0, 64, 52
2,116677, Control_c, 0, 64, 54
2,116696, Control_c, 0, 64, 56
2,116714, Control_c, 0, 64, 58
2,116730, Note_on_c, 0, 64, 52
2,116734, Control_c, 0, 64, 59
2,116741, Note_on_c, 0, 63, 0
2,116743, Note_on_c, 0, 49, 52
2,116753, Control_c, 0, 64, 60
2,116772, Control_c, 0, 64, 60
2,116791, Control_c, 0, 64, 61
2,116811, Control_c, 0, 64, 62
2,116830, Control_c, 0, 64, 63
2,116849, Control_c, 0, 64, 63
2,116888, Control_c, 0, 64, 64
2,116925, Control_c, 0, 64, 64
2,116944, Control_c, 0, 64, 65
2,116948, Note_on_c, 0, 49, 0
2,116964, Control_c, 0, 64, 65
2,116974, Note_on_c, 0, 51, 46
2,116979, Note_on_c, 0, 64, 0
2,116982, Control_c, 0, 64, 66
2,116993, Note_on_c, 0, 69, 62
2,117002, Control_c, 0, 64, 67
2,117002, Note_on_c, 0, 66, 54
2,117021, Control_c, 0, 64, 69
2,117041, Control_c, 0, 64, 70
2,117059, Control_c, 0, 64, 72
2,117079, Control_c, 0, 64, 73
2,117098, Control_c, 0, 64, 74
2,117117, Control_c, 0, 64, 77
2,117136, Control_c, 0, 64, 77
2,117175, Control_c, 0, 64, 78
2,117206, Note_on_c, 0, 54, 0
2,117213, Control_c, 0, 64, 78
2,117223, Note_on_c, 0, 66, 0
2,117244, Note_on_c, 0, 63, 59
2,117251, Note_on_c, 0, 48, 50
2,117273, Note_on_c, 0, 69, 0
2,117290, Control_c, 0, 64, 79
2,117295, Note_on_c, 0, 63, 0
2,117368, Control_c, 0, 64, 78
2,117406, Control_c, 0, 64, 78
2,117425, Control_c, 0, 64, 77
2,117445, Control_c, 0, 64, 77
2,117500, Note_on_c, 0, 51, 0
2,117502, Control_c, 0, 64, 73
2,117514, Note_on_c, 0, 44, 52
2,117522, Control_c, 0, 64, 63
2,117522, Note_on_c, 0, 63, 79
2,117540, Control_c, 0, 64, 0
2,117560, Note_on_c, 0, 60, 50
2,117589, Note_on_c, 0, 48, 0
2,117713, Control_c, 0, 64, 39
2,117732, Control_c, 0, 64, 53
2,117751, Control_c, 0, 64, 60
2,117766, Note_on_c, 0, 46, 42
2,117771, Control_c, 0, 64, 63
2,117772, Note_on_c, 0, 44, 0
2,117774, Note_on_c, 0, 61, 57
2,117790, Control_c, 0, 64, 64
2,117809, Control_c, 0, 64, 66
2,117828, Control_c, 0, 64, 67
2,117848, Control_c, 0, 64, 69
2,117866, Control_c, 0, 64, 71
2,117886, Control_c, 0, 64, 73
2,117905, Control_c, 0, 64, 75
2,117925, Control_c, 0, 64, 76
2,117963, Control_c, 0, 64, 77
2,117982, Control_c, 0, 64, 80
2,118002, Control_c, 0, 64, 83
2,118027, Note_on_c, 0, 63, 0
2,118040, Control_c, 0, 64, 82
2,118041, Note_on_c, 0, 60, 0
2,118048, Note_on_c, 0, 63, 43
2,118059, Control_c, 0, 64, 82
2,118059, Note_on_c, 0, 68, 66
2,118060, Note_on_c, 0, 48, 39
2,118131, Note_on_c, 0, 46, 0
2,118177, Note_on_c, 0, 61, 0
2,118296, Note_on_c, 0, 63, 0
2,118301, Note_on_c, 0, 66, 70
2,118304, Note_on_c, 0, 44, 46
2,118313, Note_on_c, 0, 48, 0
2,118402, Control_c, 0, 64, 81
2,118420, Control_c, 0, 64, 80
2,118435, Note_on_c, 0, 68, 0
2,118440, Control_c, 0, 64, 79
2,118459, Control_c, 0, 64, 79
2,118479, Control_c, 0, 64, 78
2,118536, Control_c, 0, 64, 77
2,118555, Control_c, 0, 64, 71
2,118574, Control_c, 0, 64, 63
2,118587, Note_on_c, 0, 49, 51
2,118593, Note_on_c, 0, 64, 78
2,118594, Control_c, 0, 64, 36
2,118613, Control_c, 0, 64, 0
2,118626, Note_on_c, 0, 44, 0
2,118633, Note_on_c, 0, 66, 0
2,118805, Control_c, 0, 64, 19
2,118823, Control_c, 0, 64, 31
2,118835, Note_on_c, 0, 51, 40
2,118843, Control_c, 0, 64, 38
2,118854, Note_on_c, 0, 49, 0
2,118862, Control_c, 0, 64, 42
2,118882, Control_c, 0, 64, 43
2,118900, Control_c, 0, 64, 44
2,118920, Control_c, 0, 64, 45
2,118939, Control_c, 0, 64, 46
2,119086, Note_on_c, 0, 51, 0
2,119109, Note_on_c, 0, 68, 60
2,119113, Note_on_c, 0, 61, 49
2,119127, Note_on_c, 0, 52, 39
2,119131, Control_c, 0, 64, 46
2,119189, Control_c, 0, 64, 47
2,119285, Control_c, 0, 64, 48
2,119303, Control_c, 0, 64, 49
2,119323, Control_c, 0, 64, 50
2,119342, Control_c, 0, 64, 51
2,119351, Note_on_c, 0, 49, 39
2,119362, Control_c, 0, 64, 52
2,119373, Note_on_c, 0, 52, 0
2,119380, Control_c, 0, 64, 54
2,119400, Control_c, 0, 64, 55
2,119419, Control_c, 0, 64, 55
2,119439, Control_c, 0, 64, 56
2,119457, Control_c, 0, 64, 57
2,119573, Control_c, 0, 64, 56
2,119592, Control_c, 0, 64, 56
2,119611, Control_c, 0, 64, 55
2,119631, Control_c, 0, 64, 54
2,119635, Note_on_c, 0, 73, 75
2,119639, Note_on_c, 0, 45, 40
2,119644, Note_on_c, 0, 49, 0
2,119688, Control_c, 0, 64, 54
2,119726, Control_c, 0, 64, 54
2,119735, Note_on_c, 0, 64, 0
2,119746, Control_c, 0, 64, 55
2,119749, Note_on_c, 0, 61, 0
2,119765, Control_c, 0, 64, 57
2,119782, Control_c, 0, 64, 59
2,119801, Control_c, 0, 64, 61
2,119820, Control_c, 0, 64, 63
2,119840, Control_c, 0, 64, 64
2,119858, Control_c, 0, 64, 66
2,119878, Control_c, 0, 64, 67
2,119897, Control_c, 0, 64, 69
2,119897, Note_on_c, 0, 47, 43
2,119917, Control_c, 0, 64, 70
2,119928, Note_on_c, 0, 45, 0
2,119935, Control_c, 0, 64, 71
2,119955, Control_c, 0, 64, 72
2,120089, Control_c, 0, 64, 72
2,120090, Note_on_c, 0, 68, 0
2,120109, Control_c, 0, 64, 73
2,120128, Control_c, 0, 64, 70
2,120142, Note_on_c, 0, 64, 74
2,120147, Control_c, 0, 64, 64
2,120154, Note_on_c, 0, 49, 51
2,120162, Note_on_c, 0, 61, 56
2,120166, Control_c, 0, 64, 54
2,120186, Control_c, 0, 64, 50
2,120186, Note_on_c, 0, 47, 0
2,120204, Control_c, 0, 64, 54
2,120223, Control_c, 0, 64, 59
2,120245, Control_c, 0, 64, 63
2,120263, Control_c, 0, 64, 67
2,120283, Control_c, 0, 64, 72
2,120302, Control_c, 0, 64, 80
2,120304, Note_on_c, 0, 61, 0
2,120314, Note_on_c, 0, 49, 0
2,120322, Control_c, 0, 64, 87
2,120323, Note_on_c, 0, 64, 0
2,120340, Control_c, 0, 64, 90
2,120399, Control_c, 0, 64, 89
2,120403, Note_on_c, 0, 45, 39
2,120417, Control_c, 0, 64, 89
2,120437, Control_c, 0, 64, 88
2,120456, Control_c, 0, 64, 87
2,120475, Control_c, 0, 64, 87
2,120494, Control_c, 0, 64, 86
2,120514, Control_c, 0, 64, 85
2,120533, Control_c, 0, 64, 84
2,120552, Control_c, 0, 64, 83
2,120609, Control_c, 0, 64, 82
2,120629, Control_c, 0, 64, 80
2,120648, Control_c, 0, 64, 74
2,120666, Note_on_c, 0, 69, 77
2,120668, Control_c, 0, 64, 65
2,120668, Note_on_c, 0, 66, 63
2,120668, Note_on_c, 0, 73, 0
2,120669, Note_on_c, 0, 42, 45
2,120686, Control_c, 0, 64, 44
2,120704, Note_on_c, 0, 45, 0
2,120706, Control_c, 0, 64, 0
2,120928, Note_on_c, 0, 44, 65
2,120984, Note_on_c, 0, 42, 0
2,120991, Control_c, 0, 64, 9
2,121010, Control_c, 0, 64, 11
2,121029, Control_c, 0, 64, 13
2,121105, Control_c, 0, 64, 15
2,121125, Control_c, 0, 64, 17
2,121163, Control_c, 0, 64, 18
2,121167, Note_on_c, 0, 78, 80
2,121182, Control_c, 0, 64, 21
2,121183, Note_on_c, 0, 69, 0
2,121185, Note_on_c, 0, 45, 57
2,121197, Note_on_c, 0, 44, 0
2,121205, Control_c, 0, 64, 24
2,121223, Control_c, 0, 64, 31
2,121243, Control_c, 0, 64, 38
2,121262, Control_c, 0, 64, 45
2,121282, Control_c, 0, 64, 51
2,121300, Control_c, 0, 64, 55
2,121320, Control_c, 0, 64, 57
2,121339, Control_c, 0, 64, 58
2,121359, Control_c, 0, 64, 59
2,121377, Control_c, 0, 64, 61
2,121397, Control_c, 0, 64, 62
2,121410, Note_on_c, 0, 78, 0
2,121414, Note_on_c, 0, 42, 54
2,121416, Control_c, 0, 64, 62
2,121420, Note_on_c, 0, 76, 81
2,121435, Control_c, 0, 64, 63
2,121474, Control_c, 0, 64, 63
2,121512, Control_c, 0, 64, 64
2,121646, Control_c, 0, 64, 64
2,121658, Note_on_c, 0, 42, 0
2,121685, Control_c, 0, 64, 61
2,121686, Note_on_c, 0, 39, 50
2,121687, Note_on_c, 0, 78, 85
2,121693, Note_on_c, 0, 76, 0
2,121697, Control_c, 0, 64, 50
2,121717, Control_c, 0, 64, 23
2,121735, Control_c, 0, 64, 0
2,121774, Control_c, 0, 64, 17
2,121794, Control_c, 0, 64, 46
2,121799, Note_on_c, 0, 45, 0
2,121812, Control_c, 0, 64, 58
2,121832, Control_c, 0, 64, 61
2,121851, Control_c, 0, 64, 62
2,121870, Control_c, 0, 64, 63
2,121889, Control_c, 0, 64, 64
2,121893, Note_on_c, 0, 66, 0
2,121909, Control_c, 0, 64, 64
2,121915, Note_on_c, 0, 40, 66
2,121928, Control_c, 0, 64, 65
2,121929, Note_on_c, 0, 39, 0
2,121947, Control_c, 0, 64, 65
2,122100, Control_c, 0, 64, 66
2,122111, Note_on_c, 0, 78, 0
2,122120, Control_c, 0, 64, 66
2,122138, Control_c, 0, 64, 67
2,122164, Control_c, 0, 64, 66
2,122168, Note_on_c, 0, 40, 0
2,122170, Note_on_c, 0, 42, 63
2,122177, Note_on_c, 0, 75, 78
2,122180, Note_on_c, 0, 66, 66
2,122183, Control_c, 0, 64, 62
2,122184, Note_on_c, 0, 69, 67
2,122202, Control_c, 0, 64, 39
2,122221, Control_c, 0, 64, 0
2,122279, Control_c, 0, 64, 22
2,122298, Control_c, 0, 64, 52
2,122318, Control_c, 0, 64, 61
2,122336, Control_c, 0, 64, 63
2,122356, Control_c, 0, 64, 63
2,122375, Control_c, 0, 64, 64
2,122394, Control_c, 0, 64, 65
2,122413, Control_c, 0, 64, 65
2,122421, Note_on_c, 0, 39, 63
2,122428, Note_on_c, 0, 42, 0
2,122433, Control_c, 0, 64, 66
2,122452, Control_c, 0, 64, 67
2,122460, Note_on_c, 0, 66, 0
2,122471, Control_c, 0, 64, 67
2,122490, Control_c, 0, 64, 68
2,122510, Control_c, 0, 64, 68
2,122528, Control_c, 0, 64, 69
2,122548, Control_c, 0, 64, 69
2,122644, Control_c, 0, 64, 70
2,122663, Control_c, 0, 64, 70
2,122683, Control_c, 0, 64, 65
2,122695, Note_on_c, 0, 71, 76
2,122695, Note_on_c, 0, 75, 0
2,122702, Control_c, 0, 64, 42
2,122703, Note_on_c, 0, 63, 69
2,122711, Note_on_c, 0, 44, 60
2,122722, Control_c, 0, 64, 0
2,122722, Note_on_c, 0, 69, 0
2,122736, Note_on_c, 0, 39, 0
2,122817, Control_c, 0, 64, 46
2,122837, Control_c, 0, 64, 60
2,122856, Control_c, 0, 64, 62
2,122875, Control_c, 0, 64, 63
2,122894, Control_c, 0, 64, 65
2,122902, Note_on_c, 0, 71, 0
2,122914, Control_c, 0, 64, 66
2,122933, Control_c, 0, 64, 67
2,122949, Note_on_c, 0, 42, 53
2,122952, Control_c, 0, 64, 69
2,122952, Note_on_c, 0, 44, 0
2,122971, Control_c, 0, 64, 70
2,122976, Note_on_c, 0, 63, 0
2,122991, Control_c, 0, 64, 70
2,123127, Control_c, 0, 64, 71
2,123145, Control_c, 0, 64, 73
2,123165, Control_c, 0, 64, 74
2,123184, Control_c, 0, 64, 70
2,123198, Note_on_c, 0, 73, 75
2,123204, Control_c, 0, 64, 63
2,123212, Note_on_c, 0, 64, 60
2,123215, Note_on_c, 0, 68, 57
2,123218, Note_on_c, 0, 40, 47
2,123222, Control_c, 0, 64, 36
2,123236, Note_on_c, 0, 42, 0
2,123242, Control_c, 0, 64, 0
2,123280, Control_c, 0, 64, 34
2,123287, Note_on_c, 0, 68, 0
2,123299, Control_c, 0, 64, 59
2,123319, Control_c, 0, 64, 64
2,123338, Control_c, 0, 64, 65
2,123357, Control_c, 0, 64, 66
2,123376, Control_c, 0, 64, 66
2,123396, Control_c, 0, 64, 67
2,123403, Note_on_c, 0, 64, 0
2,123414, Control_c, 0, 64, 68
2,123431, Note_on_c, 0, 42, 47
2,123434, Control_c, 0, 64, 69
2,123444, Note_on_c, 0, 69, 81
2,123444, Note_on_c, 0, 73, 0
2,123445, Note_on_c, 0, 75, 78
2,123453, Control_c, 0, 64, 70
2,123473, Control_c, 0, 64, 71
2,123479, Note_on_c, 0, 40, 0
2,123607, Control_c, 0, 64, 71
2,123623, Control_c, 0, 64, 72
2,123642, Control_c, 0, 64, 74
2,123644, Note_on_c, 0, 69, 0
2,123652, Note_on_c, 0, 75, 0
2,123661, Control_c, 0, 64, 74
2,123684, Control_c, 0, 64, 67
2,123702, Control_c, 0, 64, 52
2,123708, Note_on_c, 0, 44, 48
2,123715, Note_on_c, 0, 42, 0
2,123722, Control_c, 0, 64, 0
2,123722, Note_on_c, 0, 76, 79
2,123727, Note_on_c, 0, 71, 80
2,123779, Control_c, 0, 64, 49
2,123799, Control_c, 0, 64, 63
2,123818, Control_c, 0, 64, 67
2,123836, Control_c, 0, 64, 70
2,123847, Note_on_c, 0, 76, 0
2,123856, Control_c, 0, 64, 74
2,123875, Control_c, 0, 64, 77
2,123876, Note_on_c, 0, 71, 0
2,123895, Control_c, 0, 64, 79
2,123913, Control_c, 0, 64, 80
2,123949, Note_on_c, 0, 44, 0
2,123964, Note_on_c, 0, 42, 47
2,124048, Control_c, 0, 64, 79
2,124106, Control_c, 0, 64, 78
2,124125, Control_c, 0, 64, 77
2,124144, Control_c, 0, 64, 77
2,124164, Control_c, 0, 64, 76
2,124182, Control_c, 0, 64, 75
2,124241, Control_c, 0, 64, 72
2,124242, Note_on_c, 0, 44, 53
2,124251, Note_on_c, 0, 69, 79
2,124259, Control_c, 0, 64, 63
2,124264, Note_on_c, 0, 61, 50
2,124270, Note_on_c, 0, 66, 56
2,124279, Control_c, 0, 64, 0
2,124287, Note_on_c, 0, 42, 0
2,124413, Control_c, 0, 64, 45
2,124432, Control_c, 0, 64, 61
2,124451, Control_c, 0, 64, 65
2,124470, Control_c, 0, 64, 68
2,124490, Control_c, 0, 64, 74
2,124509, Control_c, 0, 64, 86
2,124513, Note_on_c, 0, 45, 62
2,124517, Note_on_c, 0, 44, 0
2,124527, Note_on_c, 0, 66, 0
2,124528, Control_c, 0, 64, 106
2,124547, Control_c, 0, 64, 127
2,124568, Note_on_c, 0, 45, 0
2,124835, Control_c, 0, 64, 113
2,124855, Control_c, 0, 64, 103
2,124873, Control_c, 0, 64, 93
2,124893, Control_c, 0, 64, 79
2,124898, Note_on_c, 0, 68, 76
2,124910, Note_on_c, 0, 59, 52
2,124912, Control_c, 0, 64, 66
2,124912, Note_on_c, 0, 47, 45
2,124931, Control_c, 0, 64, 45
2,124950, Control_c, 0, 64, 0
2,124973, Note_on_c, 0, 61, 0
2,124978, Note_on_c, 0, 69, 0
2,125216, Note_on_c, 0, 63, 40
2,125450, Control_c, 0, 64, 17
2,125469, Control_c, 0, 64, 24
2,125488, Control_c, 0, 64, 27
2,125502, Note_on_c, 0, 64, 43
2,125507, Control_c, 0, 64, 29
2,125527, Control_c, 0, 64, 31
2,125528, Note_on_c, 0, 63, 0
2,125546, Control_c, 0, 64, 34
2,125565, Control_c, 0, 64, 37
2,125584, Control_c, 0, 64, 39
2,125604, Control_c, 0, 64, 39
2,125622, Control_c, 0, 64, 40
2,125642, Control_c, 0, 64, 42
2,125661, Control_c, 0, 64, 44
2,125681, Control_c, 0, 64, 45
2,125699, Control_c, 0, 64, 45
2,125738, Control_c, 0, 64, 46
2,125750, Note_on_c, 0, 69, 67
2,125776, Control_c, 0, 64, 46
2,125791, Note_on_c, 0, 68, 0
2,125853, Control_c, 0, 64, 47
2,125891, Control_c, 0, 64, 48
2,125910, Control_c, 0, 64, 48
2,125987, Control_c, 0, 64, 49
2,126014, Note_on_c, 0, 64, 0
2,126026, Control_c, 0, 64, 49
2,126026, Note_on_c, 0, 66, 60
2,126046, Control_c, 0, 64, 50
2,126065, Control_c, 0, 64, 51
2,126123, Control_c, 0, 64, 51
2,126132, Note_on_c, 0, 69, 0
2,126162, Control_c, 0, 64, 52
2,126219, Control_c, 0, 64, 52
2,126257, Control_c, 0, 64, 53
2,126276, Control_c, 0, 64, 54
2,126296, Control_c, 0, 64, 55
2,126299, Note_on_c, 0, 61, 43
2,126314, Control_c, 0, 64, 56
2,126334, Control_c, 0, 64, 57
2,126353, Control_c, 0, 64, 59
2,126372, Control_c, 0, 64, 60
2,126391, Control_c, 0, 64, 61
2,126411, Control_c, 0, 64, 63
2,126419, Note_on_c, 0, 47, 0
2,126430, Control_c, 0, 64, 64
2,126449, Control_c, 0, 64, 65
2,126468, Control_c, 0, 64, 66
2,126488, Control_c, 0, 64, 66
2,126506, Control_c, 0, 64, 67
2,126525, Control_c, 0, 64, 68
2,126544, Control_c, 0, 64, 70
2,126564, Control_c, 0, 64, 71
2,126582, Control_c, 0, 64, 72
2,126602, Control_c, 0, 64, 73
2,126604, Note_on_c, 0, 61, 0
2,126621, Control_c, 0, 64, 73
2,126623, Note_on_c, 0, 63, 46
2,126641, Control_c, 0, 64, 75
2,126659, Control_c, 0, 64, 77
2,126679, Control_c, 0, 64, 78
2,126698, Control_c, 0, 64, 80
2,126716, Control_c, 0, 64, 82
2,126736, Control_c, 0, 64, 85
2,126755, Control_c, 0, 64, 87
2,126775, Control_c, 0, 64, 88
2,126793, Control_c, 0, 64, 88
2,126813, Control_c, 0, 64, 89
2,126832, Control_c, 0, 64, 89
2,126849, Note_on_c, 0, 63, 0
2,126870, Control_c, 0, 64, 90
2,126884, Note_on_c, 0, 66, 0
2,126917, Note_on_c, 0, 57, 42
2,126928, Control_c, 0, 67, 10
2,126947, Control_c, 0, 67, 22
2,126967, Control_c, 0, 67, 35
2,126986, Control_c, 0, 67, 48
2,126988, Note_on_c, 0, 59, 0
2,127005, Control_c, 0, 67, 63
2,127024, Control_c, 0, 67, 81
2,127044, Control_c, 0, 67, 103
2,127062, Control_c, 0, 67, 127
2,127273, Control_c, 0, 64, 89
2,127293, Control_c, 0, 64, 88
2,127312, Control_c, 0, 64, 88
2,127331, Control_c, 0, 64, 87
2,127350, Control_c, 0, 64, 86
2,127370, Control_c, 0, 64, 86
2,127389, Control_c, 0, 64, 84
2,127408, Control_c, 0, 64, 80
2,127414, Note_on_c, 0, 64, 55
2,127427, Control_c, 0, 64, 72
2,127431, Note_on_c, 0, 56, 37
2,127447, Control_c, 0, 64, 64
2,127450, Note_on_c, 0, 52, 31
2,127466, Control_c, 0, 64, 47
2,127486, Control_c, 0, 64, 0
2,127535, Note_on_c, 0, 57, 0
2,127772, Note_on_c, 0, 71, 53
2,127946, Control_c, 0, 64, 9
2,127966, Control_c, 0, 64, 18
2,127985, Control_c, 0, 64, 29
2,128005, Control_c, 0, 64, 39
2,128023, Control_c, 0, 64, 48
2,128025, Note_on_c, 0, 71, 0
2,128043, Control_c, 0, 64, 54
2,128044, Note_on_c, 0, 76, 54
2,128062, Control_c, 0, 64, 58
2,128082, Control_c, 0, 64, 60
2,128100, Control_c, 0, 64, 63
2,128120, Control_c, 0, 64, 64
2,128139, Control_c, 0, 64, 65
2,128139, Control_c, 0, 67, 115
2,128141, Note_on_c, 0, 64, 0
2,128157, Control_c, 0, 64, 66
2,128157, Control_c, 0, 67, 96
2,128177, Control_c, 0, 64, 68
2,128177, Control_c, 0, 67, 76
2,128196, Control_c, 0, 64, 70
2,128196, Control_c, 0, 67, 53
2,128216, Control_c, 0, 64, 73
2,128216, Control_c, 0, 67, 30
2,128234, Control_c, 0, 64, 76
2,128234, Control_c, 0, 67, 12
2,128254, Control_c, 0, 64, 77
2,128254, Control_c, 0, 67, 0
2,128292, Control_c, 0, 64, 78
2,128350, Control_c, 0, 64, 78
2,128522, Control_c, 0, 64, 79
2,128557, Note_on_c, 0, 59, 47
2,128576, Note_on_c, 0, 52, 0
2,128579, Control_c, 0, 64, 79
2,128649, Note_on_c, 0, 56, 0
2,128741, Note_on_c, 0, 76, 0
2,128803, Note_on_c, 0, 73, 55
2,128910, Note_on_c, 0, 59, 0
2,129022, Control_c, 0, 64, 79
2,129042, Note_on_c, 0, 73, 0
2,129062, Note_on_c, 0, 83, 59
2,129068, Note_on_c, 0, 75, 49
2,129099, Control_c, 0, 64, 78
2,129176, Control_c, 0, 64, 78
2,129282, Note_on_c, 0, 83, 0
2,129304, Note_on_c, 0, 81, 69
2,129310, Control_c, 0, 64, 77
2,129406, Control_c, 0, 64, 77
2,129445, Control_c, 0, 64, 76
2,129463, Control_c, 0, 64, 76
2,129483, Control_c, 0, 64, 75
2,129502, Control_c, 0, 64, 74
2,129544, Note_on_c, 0, 81, 0
2,129560, Control_c, 0, 64, 73
2,129560, Note_on_c, 0, 80, 68
2,129570, Note_on_c, 0, 64, 58
2,129579, Control_c, 0, 64, 70
2,129597, Control_c, 0, 64, 65
2,129617, Control_c, 0, 64, 61
2,129636, Control_c, 0, 64, 56
2,129656, Control_c, 0, 64, 52
2,129666, Note_on_c, 0, 75, 0
2,129674, Control_c, 0, 64, 45
2,129694, Control_c, 0, 64, 34
2,129713, Control_c, 0, 64, 27
2,129809, Note_on_c, 0, 81, 68
2,129848, Control_c, 0, 64, 28
2,129855, Note_on_c, 0, 80, 0
2,129866, Control_c, 0, 64, 29
2,129886, Control_c, 0, 64, 30
2,129905, Control_c, 0, 64, 32
2,129925, Control_c, 0, 64, 34
2,129943, Control_c, 0, 64, 36
2,129963, Control_c, 0, 64, 37
2,129982, Control_c, 0, 64, 41
2,130002, Control_c, 0, 64, 46
2,130020, Control_c, 0, 64, 51
2,130040, Control_c, 0, 64, 55
2,130044, Note_on_c, 0, 68, 50
2,130052, Note_on_c, 0, 83, 68
2,130059, Control_c, 0, 64, 56
2,130077, Control_c, 0, 64, 58
2,130097, Control_c, 0, 64, 60
2,130116, Control_c, 0, 64, 61
2,130136, Control_c, 0, 64, 62
2,130154, Control_c, 0, 64, 63
2,130174, Control_c, 0, 64, 64
2,130193, Control_c, 0, 64, 64
2,130212, Control_c, 0, 64, 65
2,130212, Note_on_c, 0, 81, 0
2,130231, Control_c, 0, 64, 66
2,130251, Control_c, 0, 64, 66
2,130270, Control_c, 0, 64, 67
2,130278, Note_on_c, 0, 80, 78
2,130289, Control_c, 0, 64, 69
2,130303, Note_on_c, 0, 83, 0
2,130308, Control_c, 0, 64, 70
2,130328, Control_c, 0, 64, 71
2,130346, Control_c, 0, 64, 71
2,130422, Control_c, 0, 64, 71
2,130461, Control_c, 0, 64, 70
2,130481, Control_c, 0, 64, 70
2,130518, Control_c, 0, 64, 69
2,130538, Control_c, 0, 64, 68
2,130539, Note_on_c, 0, 61, 59
2,130547, Note_on_c, 0, 76, 64
2,130556, Control_c, 0, 64, 67
2,130567, Note_on_c, 0, 80, 0
2,130576, Control_c, 0, 64, 64
2,130585, Note_on_c, 0, 68, 0
2,130595, Control_c, 0, 64, 58
2,130615, Control_c, 0, 64, 54
2,130633, Control_c, 0, 64, 52
2,130653, Control_c, 0, 64, 50
2,130691, Note_on_c, 0, 64, 0
2,130710, Control_c, 0, 64, 51
2,130730, Control_c, 0, 64, 51
2,130749, Control_c, 0, 64, 52
2,130804, Note_on_c, 0, 78, 72
2,130807, Control_c, 0, 64, 53
2,130824, Note_on_c, 0, 76, 0
2,130826, Control_c, 0, 64, 54
2,130922, Control_c, 0, 64, 54
2,130961, Control_c, 0, 64, 55
2,130979, Control_c, 0, 64, 55
2,130998, Control_c, 0, 64, 56
2,131036, Control_c, 0, 64, 56
2,131045, Note_on_c, 0, 64, 40
2,131050, Note_on_c, 0, 80, 68
2,131056, Control_c, 0, 64, 57
2,131075, Control_c, 0, 64, 58
2,131081, Note_on_c, 0, 78, 0
2,131095, Control_c, 0, 64, 59
2,131113, Control_c, 0, 64, 60
2,131133, Control_c, 0, 64, 61
2,131152, Control_c, 0, 64, 63
2,131172, Control_c, 0, 64, 63
2,131190, Control_c, 0, 64, 64
2,131210, Control_c, 0, 64, 64
2,131248, Control_c, 0, 64, 65
2,131296, Note_on_c, 0, 76, 56
2,131306, Control_c, 0, 64, 65
2,131321, Note_on_c, 0, 80, 0
2,131420, Control_c, 0, 64, 65
2,131497, Control_c, 0, 64, 64
2,131555, Note_on_c, 0, 58, 51
2,131563, Note_on_c, 0, 73, 58
2,131567, Note_on_c, 0, 76, 0
2,131651, Control_c, 0, 64, 65
2,131727, Control_c, 0, 64, 65
2,131746, Control_c, 0, 64, 66
2,131766, Control_c, 0, 64, 66
2,131785, Control_c, 0, 64, 67
2,131823, Control_c, 0, 64, 68
2,131825, Note_on_c, 0, 75, 65
2,131837, Note_on_c, 0, 64, 0
2,131838, Note_on_c, 0, 73, 0
2,131986, Note_on_c, 0, 61, 0
2,132034, Control_c, 0, 64, 67
2,132077, Note_on_c, 0, 73, 69
2,132081, Note_on_c, 0, 75, 0
2,132083, Note_on_c, 0, 76, 58
2,132092, Control_c, 0, 64, 67
2,132131, Control_c, 0, 64, 66
2,132207, Control_c, 0, 64, 66
2,132285, Control_c, 0, 64, 65
2,132327, Note_on_c, 0, 71, 67
2,132327, Note_on_c, 0, 73, 0
2,132401, Control_c, 0, 64, 65
2,132496, Control_c, 0, 64, 64
2,132566, Note_on_c, 0, 71, 0
2,132573, Note_on_c, 0, 70, 62
2,132581, Note_on_c, 0, 67, 69
2,132592, Control_c, 0, 64, 64
2,132630, Control_c, 0, 64, 63
2,132650, Control_c, 0, 64, 62
2,132669, Control_c, 0, 64, 61
2,132688, Control_c, 0, 64, 60
2,132707, Control_c, 0, 64, 58
2,132727, Control_c, 0, 64, 58
2,132765, Control_c, 0, 64, 57
2,132784, Control_c, 0, 64, 57
2,132822, Control_c, 0, 64, 57
2,132822, Note_on_c, 0, 70, 0
2,132833, Note_on_c, 0, 71, 64
2,132842, Control_c, 0, 64, 58
2,132845, Note_on_c, 0, 58, 0
2,132861, Control_c, 0, 64, 58
2,133015, Control_c, 0, 64, 58
2,133053, Control_c, 0, 64, 58
2,133082, Note_on_c, 0, 75, 56
2,133085, Note_on_c, 0, 71, 0
2,133095, Note_on_c, 0, 73, 54
2,133121, Note_on_c, 0, 76, 0
2,133149, Control_c, 0, 64, 59
2,133187, Control_c, 0, 64, 59
2,133207, Control_c, 0, 64, 60
2,133226, Control_c, 0, 64, 60
2,133245, Control_c, 0, 64, 61
2,133264, Control_c, 0, 64, 61
2,133284, Control_c, 0, 64, 62
2,133302, Control_c, 0, 64, 63
2,133326, Note_on_c, 0, 70, 65
2,133341, Control_c, 0, 64, 63
2,133341, Note_on_c, 0, 73, 0
2,133588, Note_on_c, 0, 68, 54
2,133594, Note_on_c, 0, 71, 60
2,133601, Note_on_c, 0, 70, 0
2,133644, Note_on_c, 0, 67, 0
2,133687, Control_c, 0, 64, 64
2,133744, Control_c, 0, 64, 64
2,133764, Control_c, 0, 64, 65
2,133806, Note_on_c, 0, 68, 0
2,133825, Note_on_c, 0, 66, 42
2,134057, Note_on_c, 0, 80, 75
2,134070, Note_on_c, 0, 66, 0
2,134084, Note_on_c, 0, 65, 40
2,134086, Note_on_c, 0, 75, 0
2,134128, Control_c, 0, 64, 65
2,134186, Control_c, 0, 64, 66
2,134224, Control_c, 0, 64, 66
2,134241, Note_on_c, 0, 71, 0
2,134312, Note_on_c, 0, 63, 40
2,134416, Control_c, 0, 64, 66
2,134473, Control_c, 0, 64, 65
2,134556, Note_on_c, 0, 63, 0
2,134561, Note_on_c, 0, 62, 38
2,134570, Control_c, 0, 64, 65
2,134576, Note_on_c, 0, 70, 42
2,134646, Control_c, 0, 64, 64
2,134723, Control_c, 0, 64, 64
2,134741, Note_on_c, 0, 65, 0
2,134761, Control_c, 0, 64, 63
2,134810, Note_on_c, 0, 63, 33
2,134814, Note_on_c, 0, 78, 62
2,134818, Control_c, 0, 64, 63
2,134844, Note_on_c, 0, 80, 0
2,134881, Note_on_c, 0, 62, 0
2,134895, Control_c, 0, 64, 62
2,134972, Control_c, 0, 64, 62
2,135029, Control_c, 0, 64, 61
2,135077, Note_on_c, 0, 63, 0
2,135091, Note_on_c, 0, 80, 67
2,135094, Note_on_c, 0, 65, 32
2,135106, Control_c, 0, 64, 62
2,135143, Note_on_c, 0, 78, 0
2,135145, Control_c, 0, 64, 62
2,135164, Control_c, 0, 64, 63
2,135203, Control_c, 0, 64, 64
2,135221, Control_c, 0, 64, 65
2,135241, Control_c, 0, 64, 65
2,135260, Control_c, 0, 64, 66
2,135279, Control_c, 0, 64, 68
2,135298, Control_c, 0, 64, 69
2,135317, Control_c, 0, 64, 72
2,135325, Note_on_c, 0, 80, 0
2,135337, Control_c, 0, 64, 75
2,135341, Note_on_c, 0, 62, 32
2,135356, Control_c, 0, 64, 78
2,135375, Control_c, 0, 64, 80
2,135381, Note_on_c, 0, 65, 0
2,135394, Control_c, 0, 64, 81
2,135432, Control_c, 0, 64, 80
2,135452, Control_c, 0, 64, 80
2,135471, Control_c, 0, 64, 79
2,135491, Control_c, 0, 64, 79
2,135509, Control_c, 0, 64, 78
2,135548, Control_c, 0, 64, 77
2,135567, Control_c, 0, 64, 76
2,135586, Control_c, 0, 64, 75
2,135607, Control_c, 0, 64, 73
2,135617, Note_on_c, 0, 78, 60
2,135618, Note_on_c, 0, 63, 37
2,135626, Control_c, 0, 64, 70
2,135645, Control_c, 0, 64, 66
2,135664, Control_c, 0, 64, 62
2,135674, Note_on_c, 0, 62, 0
2,135684, Control_c, 0, 64, 58
2,135702, Control_c, 0, 64, 56
2,135722, Control_c, 0, 64, 53
2,135741, Control_c, 0, 64, 47
2,135761, Control_c, 0, 64, 42
2,135779, Control_c, 0, 64, 42
2,135834, Note_on_c, 0, 70, 0
2,135872, Note_on_c, 0, 76, 61
2,135895, Control_c, 0, 64, 43
2,135913, Control_c, 0, 64, 44
2,135933, Control_c, 0, 64, 44
2,135952, Control_c, 0, 64, 45
2,135972, Control_c, 0, 64, 46
2,135990, Control_c, 0, 64, 46
2,136010, Control_c, 0, 64, 47
2,136029, Control_c, 0, 64, 48
2,136048, Control_c, 0, 64, 48
2,136087, Control_c, 0, 64, 49
2,136118, Note_on_c, 0, 75, 70
2,136123, Control_c, 0, 64, 50
2,136142, Control_c, 0, 64, 50
2,136149, Note_on_c, 0, 76, 0
2,136181, Control_c, 0, 64, 51
2,136199, Control_c, 0, 64, 51
2,136219, Control_c, 0, 64, 52
2,136238, Control_c, 0, 64, 52
2,136315, Control_c, 0, 64, 53
2,136350, Note_on_c, 0, 73, 73
2,136381, Note_on_c, 0, 75, 0
2,136604, Note_on_c, 0, 72, 70
2,136611, Note_on_c, 0, 73, 0
2,136796, Control_c, 0, 64, 53
2,136838, Note_on_c, 0, 64, 60
2,136842, Note_on_c, 0, 73, 68
2,136858, Note_on_c, 0, 72, 0
2,136872, Control_c, 0, 64, 54
2,136891, Note_on_c, 0, 63, 0
2,136911, Control_c, 0, 64, 54
2,136931, Control_c, 0, 64, 55
2,136949, Control_c, 0, 64, 55
2,136988, Control_c, 0, 64, 56
2,137007, Control_c, 0, 64, 56
2,137026, Control_c, 0, 64, 57
2,137084, Control_c, 0, 64, 57
2,137084, Note_on_c, 0, 66, 62
2,137095, Note_on_c, 0, 75, 67
2,137101, Note_on_c, 0, 73, 0
2,137166, Note_on_c, 0, 64, 0
2,137288, Note_on_c, 0, 75, 0
2,137314, Control_c, 0, 64, 58
2,137314, Note_on_c, 0, 66, 0
2,137322, Note_on_c, 0, 63, 58
2,137322, Note_on_c, 0, 72, 68
2,137391, Control_c, 0, 64, 58
2,137429, Control_c, 0, 64, 59
2,137572, Note_on_c, 0, 68, 70
2,137576, Note_on_c, 0, 72, 0
2,137577, Note_on_c, 0, 63, 0
2,137591, Note_on_c, 0, 64, 56
2,137749, Note_on_c, 0, 78, 0
2,137813, Note_on_c, 0, 63, 60
2,137832, Control_c, 0, 64, 58
2,137858, Note_on_c, 0, 64, 0
2,137929, Control_c, 0, 64, 58
2,137986, Control_c, 0, 64, 57
2,138025, Control_c, 0, 64, 57
2,138044, Control_c, 0, 64, 56
2,138063, Control_c, 0, 64, 56
2,138071, Note_on_c, 0, 76, 72
2,138079, Note_on_c, 0, 61, 51
2,138083, Control_c, 0, 64, 55
2,138101, Control_c, 0, 64, 55
2,138121, Control_c, 0, 64, 54
2,138140, Control_c, 0, 64, 54
2,138159, Control_c, 0, 64, 53
2,138178, Control_c, 0, 64, 52
2,138197, Control_c, 0, 64, 52
2,138270, Note_on_c, 0, 63, 0
2,138328, Note_on_c, 0, 59, 48
2,138351, Control_c, 0, 64, 52
2,138365, Note_on_c, 0, 61, 0
2,138428, Control_c, 0, 64, 53
2,138577, Note_on_c, 0, 67, 55
2,138583, Note_on_c, 0, 59, 0
2,138591, Note_on_c, 0, 58, 45
2,138827, Note_on_c, 0, 58, 0
2,138839, Note_on_c, 0, 59, 48
2,138839, Note_on_c, 0, 75, 62
2,138852, Note_on_c, 0, 76, 0
2,138869, Control_c, 0, 64, 52
2,138890, Note_on_c, 0, 68, 0
2,139076, Note_on_c, 0, 59, 0
2,139078, Note_on_c, 0, 76, 59
2,139083, Note_on_c, 0, 75, 0
2,139084, Note_on_c, 0, 61, 50
2,139254, Control_c, 0, 64, 53
2,139309, Note_on_c, 0, 61, 0
2,139329, Note_on_c, 0, 58, 41
2,139351, Note_on_c, 0, 73, 48
2,139614, Note_on_c, 0, 59, 45
2,139615, Note_on_c, 0, 75, 63
2,139618, Note_on_c, 0, 58, 0
2,139619, Note_on_c, 0, 76, 0
2,139633, Note_on_c, 0, 67, 0
2,139633, Note_on_c, 0, 73, 0
2,139791, Control_c, 0, 64, 52
2,139811, Control_c, 0, 64, 52
2,139849, Control_c, 0, 64, 51
2,139855, Note_on_c, 0, 73, 55
2,139887, Control_c, 0, 64, 51
2,139926, Control_c, 0, 64, 50
2,139945, Control_c, 0, 64, 49
2,139964, Control_c, 0, 64, 49
2,139983, Control_c, 0, 64, 48
2,140021, Control_c, 0, 64, 48
2,140060, Control_c, 0, 64, 47
2,140079, Control_c, 0, 64, 46
2,140084, Note_on_c, 0, 73, 0
2,140090, Note_on_c, 0, 71, 62
2,140098, Control_c, 0, 64, 46
2,140232, Control_c, 0, 64, 45
2,140330, Note_on_c, 0, 70, 69
2,140334, Note_on_c, 0, 71, 0
2,140463, Control_c, 0, 64, 46
2,140501, Control_c, 0, 64, 46
2,140559, Control_c, 0, 64, 47
2,140571, Note_on_c, 0, 68, 70
2,140609, Note_on_c, 0, 70, 0
2,140655, Control_c, 0, 64, 47
2,140810, Note_on_c, 0, 61, 57
2,140815, Note_on_c, 0, 70, 70
2,140832, Note_on_c, 0, 68, 0
2,140878, Note_on_c, 0, 59, 0
2,141060, Note_on_c, 0, 63, 65
2,141062, Note_on_c, 0, 71, 68
2,141078, Note_on_c, 0, 61, 0
2,141086, Note_on_c, 0, 70, 0
2,141116, Control_c, 0, 64, 48
2,141175, Control_c, 0, 64, 48
2,141232, Control_c, 0, 64, 49
2,141270, Control_c, 0, 64, 49
2,141298, Note_on_c, 0, 59, 61
2,141298, Note_on_c, 0, 63, 0
2,141301, Note_on_c, 0, 68, 70
2,141309, Control_c, 0, 64, 50
2,141367, Control_c, 0, 64, 50
2,141386, Control_c, 0, 64, 51
2,141424, Control_c, 0, 64, 51
2,141520, Control_c, 0, 64, 52
2,141542, Note_on_c, 0, 71, 0
2,141542, Note_on_c, 0, 75, 0
2,141568, Note_on_c, 0, 68, 0
2,141569, Note_on_c, 0, 61, 61
2,141571, Note_on_c, 0, 65, 57
2,141577, Note_on_c, 0, 59, 0
2,141712, Control_c, 0, 64, 52
2,141826, Note_on_c, 0, 61, 0
2,141833, Note_on_c, 0, 59, 59
2,142020, Note_on_c, 0, 65, 0
2,142049, Note_on_c, 0, 73, 56
2,142055, Note_on_c, 0, 58, 47
2,142058, Note_on_c, 0, 67, 46
2,142061, Note_on_c, 0, 59, 0
2,142311, Note_on_c, 0, 68, 57
2,142312, Note_on_c, 0, 56, 51
2,142317, Note_on_c, 0, 58, 0
2,142329, Note_on_c, 0, 67, 0
2,142440, Control_c, 0, 64, 53
2,142543, Note_on_c, 0, 56, 0
2,142564, Note_on_c, 0, 70, 67
2,142567, Note_on_c, 0, 68, 0
2,142583, Note_on_c, 0, 55, 44
2,142697, Note_on_c, 0, 73, 0
2,142795, Note_on_c, 0, 55, 0
2,142814, Note_on_c, 0, 56, 51
2,142822, Note_on_c, 0, 71, 51
2,143012, Note_on_c, 0, 56, 0
2,143033, Note_on_c, 0, 71, 0
2,143052, Note_on_c, 0, 73, 58
2,143064, Note_on_c, 0, 58, 37
2,143111, Note_on_c, 0, 70, 0
2,143268, Note_on_c, 0, 58, 0
2,143292, Note_on_c, 0, 70, 49
2,143299, Note_on_c, 0, 55, 41
2,143343, Control_c, 0, 64, 53
2,143400, Control_c, 0, 64, 54
2,143555, Note_on_c, 0, 73, 0
2,143564, Note_on_c, 0, 55, 0
2,143573, Note_on_c, 0, 71, 58
2,143575, Note_on_c, 0, 56, 54
2,143586, Note_on_c, 0, 70, 0
2,143651, Control_c, 0, 64, 54
2,143817, Note_on_c, 0, 67, 47
2,143995, Note_on_c, 0, 67, 0
2,144073, Note_on_c, 0, 68, 59
2,144105, Note_on_c, 0, 71, 0
2,144188, Note_on_c, 0, 54, 47
2,144244, Note_on_c, 0, 56, 0
2,144283, Note_on_c, 0, 54, 0
2,144293, Note_on_c, 0, 71, 64
2,144296, Note_on_c, 0, 52, 51
2,144386, Note_on_c, 0, 52, 0
2,144400, Control_c, 0, 64, 54
2,144417, Note_on_c, 0, 51, 54
2,144500, Note_on_c, 0, 51, 0
2,144544, Note_on_c, 0, 49, 51
2,144552, Note_on_c, 0, 76, 78
2,144553, Note_on_c, 0, 71, 0
2,144559, Note_on_c, 0, 68, 0
2,144788, Note_on_c, 0, 49, 0
2,144803, Note_on_c, 0, 68, 67
2,144804, Note_on_c, 0, 59, 64
2,144924, Note_on_c, 0, 68, 0
2,145045, Note_on_c, 0, 58, 65
2,145046, Note_on_c, 0, 59, 0
2,145051, Note_on_c, 0, 73, 74
2,145095, Note_on_c, 0, 76, 0
2,145259, Note_on_c, 0, 58, 0
2,145286, Note_on_c, 0, 76, 76
2,145287, Note_on_c, 0, 54, 43
2,145354, Note_on_c, 0, 73, 0
2,145538, Note_on_c, 0, 54, 0
2,145550, Note_on_c, 0, 75, 79
2,145560, Note_on_c, 0, 59, 53
2,145566, Note_on_c, 0, 76, 0
2,145726, Control_c, 0, 64, 54
2,145745, Control_c, 0, 64, 55
2,145765, Control_c, 0, 64, 56
2,145783, Control_c, 0, 64, 57
2,145790, Note_on_c, 0, 70, 61
2,145803, Control_c, 0, 64, 58
2,145822, Control_c, 0, 64, 59
2,145841, Control_c, 0, 64, 61
2,145860, Control_c, 0, 64, 62
2,145879, Control_c, 0, 64, 63
2,145899, Control_c, 0, 64, 64
2,145982, Note_on_c, 0, 70, 0
2,145994, Control_c, 0, 64, 63
2,146014, Control_c, 0, 64, 63
2,146030, Note_on_c, 0, 71, 65
2,146033, Note_on_c, 0, 75, 0
2,146071, Control_c, 0, 64, 62
2,146091, Control_c, 0, 64, 62
2,146129, Control_c, 0, 64, 61
2,146137, Note_on_c, 0, 58, 47
2,146141, Note_on_c, 0, 59, 0
2,146168, Control_c, 0, 64, 61
2,146186, Control_c, 0, 64, 60
2,146206, Control_c, 0, 64, 60
2,146218, Note_on_c, 0, 58, 0
2,146225, Control_c, 0, 64, 59
2,146228, Note_on_c, 0, 56, 57
2,146257, Note_on_c, 0, 75, 83
2,146263, Control_c, 0, 64, 58
2,146283, Control_c, 0, 64, 57
2,146302, Control_c, 0, 64, 56
2,146306, Note_on_c, 0, 56, 0
2,146335, Note_on_c, 0, 54, 54
2,146340, Control_c, 0, 64, 55
2,146379, Control_c, 0, 64, 55
2,146423, Note_on_c, 0, 71, 0
2,146456, Control_c, 0, 64, 54
2,146471, Note_on_c, 0, 54, 0
2,146494, Control_c, 0, 64, 54
2,146499, Note_on_c, 0, 52, 49
2,146508, Note_on_c, 0, 80, 87
2,146532, Control_c, 0, 64, 53
2,146535, Note_on_c, 0, 75, 0
2,146551, Control_c, 0, 64, 53
2,146609, Control_c, 0, 64, 53
2,146628, Control_c, 0, 64, 54
2,146684, Control_c, 0, 64, 54
2,146703, Control_c, 0, 64, 55
2,146742, Note_on_c, 0, 52, 0
2,146758, Note_on_c, 0, 71, 65
2,146760, Note_on_c, 0, 63, 72
2,146780, Control_c, 0, 64, 55
2,146799, Control_c, 0, 64, 56
2,146997, Note_on_c, 0, 76, 76
2,147004, Note_on_c, 0, 71, 0
2,147007, Note_on_c, 0, 61, 67
2,147026, Note_on_c, 0, 63, 0
2,147029, Control_c, 0, 64, 55
2,147049, Note_on_c, 0, 80, 0
2,147068, Control_c, 0, 64, 55
2,147164, Control_c, 0, 64, 54
2,147233, Note_on_c, 0, 61, 0
2,147235, Note_on_c, 0, 58, 59
2,147244, Note_on_c, 0, 80, 85
2,147279, Control_c, 0, 64, 54
2,147356, Control_c, 0, 64, 54
2,147471, Control_c, 0, 64, 54
2,147505, Note_on_c, 0, 76, 0
2,147506, Note_on_c, 0, 78, 83
2,147517, Note_on_c, 0, 63, 61
2,147536, Note_on_c, 0, 80, 0
2,147556, Note_on_c, 0, 58, 0
2,147625, Control_c, 0, 64, 54
2,147663, Control_c, 0, 64, 55
2,147683, Control_c, 0, 64, 56
2,147702, Control_c, 0, 64, 57
2,147720, Control_c, 0, 64, 58
2,147740, Control_c, 0, 64, 58
2,147751, Note_on_c, 0, 73, 65
2,147759, Control_c, 0, 64, 59
2,147778, Control_c, 0, 64, 60
2,147797, Control_c, 0, 64, 62
2,147817, Control_c, 0, 64, 63
2,147836, Control_c, 0, 64, 63
2,147966, Note_on_c, 0, 78, 0
2,147994, Note_on_c, 0, 75, 73
2,148028, Note_on_c, 0, 73, 0
2,148047, Control_c, 0, 64, 63
2,148084, Note_on_c, 0, 61, 55
2,148086, Control_c, 0, 64, 62
2,148096, Note_on_c, 0, 63, 0
2,148124, Control_c, 0, 64, 62
2,148143, Control_c, 0, 64, 61
2,148172, Note_on_c, 0, 61, 0
2,148182, Control_c, 0, 64, 60
2,148186, Note_on_c, 0, 59, 59
2,148200, Control_c, 0, 64, 58
2,148220, Control_c, 0, 64, 57
2,148223, Note_on_c, 0, 78, 82
2,148239, Control_c, 0, 64, 55
2,148258, Control_c, 0, 64, 54
2,148277, Control_c, 0, 64, 53
2,148292, Note_on_c, 0, 59, 0
2,148315, Note_on_c, 0, 58, 55
2,148354, Control_c, 0, 64, 54
2,148374, Control_c, 0, 64, 54
2,148455, Note_on_c, 0, 58, 0
2,148473, Note_on_c, 0, 56, 61
2,148474, Note_on_c, 0, 83, 85
2,148481, Note_on_c, 0, 78, 0
2,148508, Control_c, 0, 64, 55
2,148518, Note_on_c, 0, 75, 0
2,148527, Control_c, 0, 64, 55
2,148546, Control_c, 0, 64, 56
2,148566, Control_c, 0, 64, 56
2,148585, Control_c, 0, 64, 57
2,148680, Control_c, 0, 64, 58
2,148683, Note_on_c, 0, 56, 0
2,148700, Control_c, 0, 64, 59
2,148712, Note_on_c, 0, 75, 68
2,148713, Note_on_c, 0, 66, 56
2,148738, Control_c, 0, 64, 60
2,148757, Control_c, 0, 64, 61
2,148777, Control_c, 0, 64, 62
2,148834, Control_c, 0, 64, 62
2,148872, Control_c, 0, 64, 63
2,148931, Control_c, 0, 64, 63
2,148949, Control_c, 0, 64, 64
2,148964, Note_on_c, 0, 83, 0
2,148966, Note_on_c, 0, 65, 46
2,148967, Note_on_c, 0, 80, 72
2,148972, Note_on_c, 0, 66, 0
2,148988, Control_c, 0, 64, 64
2,149195, Note_on_c, 0, 65, 0
2,149199, Note_on_c, 0, 75, 0
2,149200, Control_c, 0, 64, 64
2,149201, Note_on_c, 0, 80, 0
2,149204, Note_on_c, 0, 83, 75
2,149212, Note_on_c, 0, 61, 44
2,149276, Control_c, 0, 64, 63
2,149412, Control_c, 0, 64, 63
2,149430, Control_c, 0, 64, 61
2,149450, Control_c, 0, 64, 57
2,149469, Control_c, 0, 64, 52
2,149469, Note_on_c, 0, 82, 83
2,149472, Note_on_c, 0, 66, 48
2,149483, Note_on_c, 0, 83, 0
2,149487, Note_on_c, 0, 61, 0
2,149488, Control_c, 0, 64, 50
2,149583, Control_c, 0, 64, 50
2,149603, Control_c, 0, 64, 53
2,149622, Control_c, 0, 64, 57
2,149640, Control_c, 0, 64, 58
2,149679, Control_c, 0, 64, 58
2,149698, Control_c, 0, 64, 59
2,149714, Note_on_c, 0, 68, 61
2,149716, Note_on_c, 0, 77, 65
2,149717, Control_c, 0, 64, 61
2,149743, Note_on_c, 0, 66, 0
2,149756, Control_c, 0, 64, 61
2,149794, Control_c, 0, 64, 62
2,149814, Control_c, 0, 64, 62
2,149871, Control_c, 0, 64, 63
2,149898, Note_on_c, 0, 77, 0
2,149909, Control_c, 0, 64, 63
2,149929, Control_c, 0, 64, 64
2,149949, Note_on_c, 0, 78, 67
2,149952, Note_on_c, 0, 68, 0
2,149970, Note_on_c, 0, 70, 75
2,149986, Control_c, 0, 64, 65
2,150005, Control_c, 0, 64, 65
2,150024, Control_c, 0, 64, 66
2,150101, Control_c, 0, 64, 66
2,150119, Control_c, 0, 64, 67
2,150177, Control_c, 0, 64, 67
2,150190, Note_on_c, 0, 70, 0
2,150190, Note_on_c, 0, 73, 78
2,150193, Note_on_c, 0, 66, 60
2,150224, Note_on_c, 0, 78, 0
2,150249, Note_on_c, 0, 82, 0
2,150311, Control_c, 0, 64, 67
2,150408, Control_c, 0, 64, 64
2,150420, Note_on_c, 0, 81, 74
2,150422, Note_on_c, 0, 63, 55
2,150424, Note_on_c, 0, 73, 0
2,150427, Control_c, 0, 64, 59
2,150439, Note_on_c, 0, 78, 61
2,150445, Note_on_c, 0, 66, 0
2,150447, Control_c, 0, 64, 50
2,150465, Control_c, 0, 64, 42
2,150485, Control_c, 0, 64, 37
2,150487, Note_on_c, 0, 78, 0
2,150504, Control_c, 0, 64, 33
2,150523, Control_c, 0, 64, 30
2,150542, Control_c, 0, 64, 29
2,150558, Note_on_c, 0, 80, 65
2,150641, Note_on_c, 0, 63, 0
2,150659, Note_on_c, 0, 64, 47
2,150669, Note_on_c, 0, 78, 68
2,150715, Control_c, 0, 64, 30
2,150732, Note_on_c, 0, 80, 0
2,150753, Control_c, 0, 64, 31
2,150761, Note_on_c, 0, 78, 0
2,150769, Note_on_c, 0, 76, 65
2,150773, Control_c, 0, 64, 31
2,150791, Control_c, 0, 64, 33
2,150811, Control_c, 0, 64, 35
2,150830, Control_c, 0, 64, 36
2,150850, Control_c, 0, 64, 36
2,150867, Note_on_c, 0, 64, 0
2,150885, Note_on_c, 0, 76, 0
2,150888, Control_c, 0, 64, 37
2,150897, Note_on_c, 0, 66, 43
2,150903, Note_on_c, 0, 75, 64
2,150927, Control_c, 0, 64, 37
2,150945, Control_c, 0, 64, 38
2,150966, Control_c, 0, 64, 39
2,150985, Control_c, 0, 64, 40
2,151023, Control_c, 0, 64, 40
2,151042, Control_c, 0, 64, 41
2,151080, Control_c, 0, 64, 41
2,151100, Control_c, 0, 64, 42
2,151139, Note_on_c, 0, 63, 45
2,151143, Note_on_c, 0, 78, 62
2,151157, Control_c, 0, 64, 43
2,151182, Note_on_c, 0, 66, 0
2,151196, Control_c, 0, 64, 44
2,151215, Control_c, 0, 64, 45
2,151234, Control_c, 0, 64, 46
2,151254, Control_c, 0, 64, 47
2,151272, Control_c, 0, 64, 47
2,151398, Note_on_c, 0, 80, 66
2,151423, Note_on_c, 0, 60, 36
2,151425, Note_on_c, 0, 81, 0
2,151426, Control_c, 0, 64, 48
2,151452, Note_on_c, 0, 78, 0
2,151549, Note_on_c, 0, 63, 0
2,151617, Control_c, 0, 64, 48
2,151630, Note_on_c, 0, 75, 0
2,151646, Note_on_c, 0, 76, 61
2,151662, Note_on_c, 0, 61, 41
2,151707, Note_on_c, 0, 60, 0
2,151875, Note_on_c, 0, 61, 0
2,151881, Note_on_c, 0, 78, 62
2,151901, Note_on_c, 0, 63, 39
2,151901, Note_on_c, 0, 76, 0
2,152001, Control_c, 0, 64, 49
2,152085, Note_on_c, 0, 63, 0
2,152114, Note_on_c, 0, 78, 0
2,152120, Note_on_c, 0, 75, 59
2,152142, Note_on_c, 0, 60, 38
2,152356, Note_on_c, 0, 75, 0
2,152375, Note_on_c, 0, 61, 40
2,152379, Note_on_c, 0, 76, 56
2,152417, Note_on_c, 0, 60, 0
2,152607, Note_on_c, 0, 76, 0
2,152618, Note_on_c, 0, 72, 56
2,152619, Note_on_c, 0, 63, 45
2,152630, Note_on_c, 0, 61, 0
2,152847, Control_c, 0, 64, 48
2,152876, Note_on_c, 0, 63, 0
2,152881, Note_on_c, 0, 64, 47
2,152891, Note_on_c, 0, 73, 55
2,152928, Note_on_c, 0, 72, 0
2,153147, Note_on_c, 0, 76, 59
2,153171, Note_on_c, 0, 73, 0
2,153173, Control_c, 0, 64, 49
2,153191, Control_c, 0, 64, 52
2,153211, Control_c, 0, 64, 56
2,153230, Control_c, 0, 64, 58
2,153250, Control_c, 0, 64, 59
2,153268, Control_c, 0, 64, 59
2,153288, Control_c, 0, 64, 61
2,153307, Control_c, 0, 64, 62
2,153327, Control_c, 0, 64, 63
2,153345, Control_c, 0, 64, 64
2,153365, Control_c, 0, 64, 65
2,153384, Control_c, 0, 64, 65
2,153401, Note_on_c, 0, 64, 0
2,153402, Control_c, 0, 64, 66
2,153416, Note_on_c, 0, 70, 59
2,153422, Control_c, 0, 64, 67
2,153441, Control_c, 0, 64, 69
2,153450, Note_on_c, 0, 76, 0
2,153461, Control_c, 0, 64, 70
2,153479, Control_c, 0, 64, 71
2,153499, Control_c, 0, 64, 72
2,153516, Note_on_c, 0, 80, 0
2,153595, Control_c, 0, 64, 71
2,153633, Control_c, 0, 64, 71
2,153653, Control_c, 0, 64, 70
2,153671, Control_c, 0, 64, 69
2,153691, Control_c, 0, 64, 68
2,153694, Note_on_c, 0, 80, 67
2,153708, Note_on_c, 0, 64, 40
2,153710, Control_c, 0, 64, 67
2,153730, Control_c, 0, 64, 66
2,153748, Control_c, 0, 64, 65
2,153768, Control_c, 0, 64, 64
2,153787, Control_c, 0, 64, 64
2,153845, Control_c, 0, 64, 63
2,153864, Control_c, 0, 64, 63
2,153882, Control_c, 0, 64, 62
2,153938, Note_on_c, 0, 78, 77
2,153941, Note_on_c, 0, 63, 44
2,153978, Control_c, 0, 64, 63
2,154035, Control_c, 0, 64, 63
2,154055, Control_c, 0, 64, 64
2,154112, Control_c, 0, 64, 64
2,154146, Note_on_c, 0, 64, 0
2,154150, Control_c, 0, 64, 65
2,154159, Note_on_c, 0, 63, 0
2,154172, Note_on_c, 0, 61, 50
2,154172, Note_on_c, 0, 76, 72
2,154230, Note_on_c, 0, 80, 0
2,154246, Note_on_c, 0, 78, 0
2,154274, Note_on_c, 0, 70, 0
2,154400, Control_c, 0, 64, 64
2,154424, Note_on_c, 0, 61, 0
2,154433, Note_on_c, 0, 71, 64
2,154433, Note_on_c, 0, 76, 0
2,154437, Note_on_c, 0, 75, 70
2,154440, Note_on_c, 0, 59, 40
2,154458, Control_c, 0, 64, 64
2,154573, Control_c, 0, 64, 63
2,154612, Control_c, 0, 64, 63
2,154630, Control_c, 0, 64, 62
2,154650, Control_c, 0, 64, 62
2,154669, Control_c, 0, 64, 61
2,154680, Note_on_c, 0, 76, 69
2,154689, Control_c, 0, 64, 60
2,154691, Note_on_c, 0, 61, 48
2,154702, Note_on_c, 0, 75, 0
2,154707, Control_c, 0, 64, 59
2,154727, Control_c, 0, 64, 58
2,154746, Control_c, 0, 64, 58
2,154778, Note_on_c, 0, 59, 0
2,154804, Control_c, 0, 64, 58
2,154841, Control_c, 0, 64, 59
2,154861, Control_c, 0, 64, 60
2,154880, Control_c, 0, 64, 61
2,154900, Control_c, 0, 64, 62
2,154918, Control_c, 0, 64, 62
2,154932, Note_on_c, 0, 63, 41
2,154932, Note_on_c, 0, 78, 69
2,154938, Control_c, 0, 64, 63
2,154951, Note_on_c, 0, 76, 0
2,154957, Control_c, 0, 64, 64
2,154990, Note_on_c, 0, 61, 0
2,154995, Control_c, 0, 64, 65
2,155034, Control_c, 0, 64, 65
2,155053, Control_c, 0, 64, 66
2,155072, Control_c, 0, 64, 66
2,155093, Note_on_c, 0, 63, 0
2,155170, Note_on_c, 0, 59, 46
2,155176, Note_on_c, 0, 78, 0
2,155177, Note_on_c, 0, 75, 64
2,155187, Control_c, 0, 64, 66
2,155284, Control_c, 0, 64, 65
2,155359, Control_c, 0, 64, 65
2,155435, Note_on_c, 0, 75, 0
2,155436, Control_c, 0, 64, 64
2,155438, Note_on_c, 0, 56, 43
2,155440, Note_on_c, 0, 76, 60
2,155456, Control_c, 0, 64, 64
2,155474, Control_c, 0, 64, 63
2,155494, Control_c, 0, 64, 63
2,155513, Control_c, 0, 64, 62
2,155532, Control_c, 0, 64, 62
2,155569, Note_on_c, 0, 59, 0
2,155571, Control_c, 0, 64, 61
2,155590, Control_c, 0, 64, 61
2,155604, Note_on_c, 0, 71, 0
2,155609, Control_c, 0, 64, 60
2,155628, Control_c, 0, 64, 59
2,155677, Note_on_c, 0, 73, 40
2,155686, Control_c, 0, 64, 59
2,155691, Note_on_c, 0, 58, 38
2,155702, Control_c, 0, 64, 58
2,155722, Control_c, 0, 64, 57
2,155740, Control_c, 0, 64, 57
2,155741, Note_on_c, 0, 56, 0
2,155764, Control_c, 0, 64, 56
2,155841, Control_c, 0, 64, 56
2,155879, Control_c, 0, 64, 55
2,155898, Control_c, 0, 64, 55
2,155918, Note_on_c, 0, 58, 0
2,155945, Note_on_c, 0, 75, 58
2,155954, Note_on_c, 0, 59, 40
2,155963, Note_on_c, 0, 73, 0
2,156033, Control_c, 0, 64, 55
2,156163, Note_on_c, 0, 75, 0
2,156203, Note_on_c, 0, 56, 41
2,156203, Note_on_c, 0, 71, 55
2,156224, Control_c, 0, 64, 56
2,156230, Note_on_c, 0, 59, 0
2,156449, Note_on_c, 0, 73, 53
2,156452, Note_on_c, 0, 71, 0
2,156461, Note_on_c, 0, 58, 46
2,156484, Note_on_c, 0, 56, 0
2,156627, Control_c, 0, 64, 55
2,156666, Control_c, 0, 64, 55
2,156692, Note_on_c, 0, 73, 0
2,156694, Note_on_c, 0, 58, 0
2,156698, Note_on_c, 0, 59, 64
2,156704, Control_c, 0, 64, 54
2,156705, Note_on_c, 0, 68, 53
2,156724, Control_c, 0, 64, 52
2,156743, Control_c, 0, 64, 50
2,156762, Control_c, 0, 64, 48
2,156781, Control_c, 0, 64, 45
2,156801, Control_c, 0, 64, 41
2,156819, Control_c, 0, 64, 36
2,156839, Control_c, 0, 64, 31
2,156858, Control_c, 0, 64, 21
2,156878, Control_c, 0, 64, 11
2,156896, Control_c, 0, 64, 0
2,156955, Note_on_c, 0, 61, 66
2,156971, Note_on_c, 0, 59, 0
2,156975, Note_on_c, 0, 70, 55
2,156990, Note_on_c, 0, 68, 0
2,156993, Control_c, 0, 64, 13
2,157012, Control_c, 0, 64, 27
2,157030, Control_c, 0, 64, 43
2,157050, Control_c, 0, 64, 56
2,157069, Control_c, 0, 64, 62
2,157088, Control_c, 0, 64, 62
2,157107, Control_c, 0, 64, 63
2,157127, Control_c, 0, 64, 64
2,157146, Control_c, 0, 64, 68
2,157159, Note_on_c, 0, 61, 0
2,157165, Control_c, 0, 64, 74
2,157165, Note_on_c, 0, 76, 0
2,157184, Control_c, 0, 64, 82
2,157204, Control_c, 0, 64, 88
2,157211, Note_on_c, 0, 73, 66
2,157223, Control_c, 0, 64, 89
2,157242, Control_c, 0, 64, 91
2,157261, Control_c, 0, 64, 93
2,157295, Note_on_c, 0, 70, 0
2,157299, Control_c, 0, 64, 93
2,157338, Control_c, 0, 64, 93
2,157358, Control_c, 0, 64, 92
2,157376, Control_c, 0, 64, 92
2,157415, Control_c, 0, 64, 93
2,157434, Control_c, 0, 64, 94
2,157473, Control_c, 0, 64, 87
2,157478, Note_on_c, 0, 47, 64
2,157492, Control_c, 0, 64, 73
2,157492, Note_on_c, 0, 73, 0
2,157493, Note_on_c, 0, 75, 67
2,157510, Control_c, 0, 64, 58
2,157530, Control_c, 0, 64, 31
2,157535, Note_on_c, 0, 66, 42
2,157549, Control_c, 0, 64, 31
2,157568, Control_c, 0, 64, 37
2,157587, Control_c, 0, 64, 52
2,157607, Control_c, 0, 64, 59
2,157626, Control_c, 0, 64, 61
2,157645, Control_c, 0, 64, 63
2,157664, Control_c, 0, 64, 65
2,157682, Control_c, 0, 64, 69
2,157701, Control_c, 0, 64, 75
2,157720, Control_c, 0, 64, 81
2,157725, Note_on_c, 0, 47, 0
2,157739, Control_c, 0, 64, 85
2,157754, Note_on_c, 0, 59, 59
2,157759, Control_c, 0, 64, 86
2,157778, Control_c, 0, 64, 86
2,157797, Control_c, 0, 64, 87
2,157816, Control_c, 0, 64, 87
2,157836, Control_c, 0, 64, 88
2,157854, Control_c, 0, 64, 89
2,157874, Control_c, 0, 64, 91
2,157994, Note_on_c, 0, 71, 70
2,157998, Note_on_c, 0, 58, 63
2,158022, Note_on_c, 0, 59, 0
2,158104, Control_c, 0, 64, 92
2,158123, Control_c, 0, 64, 92
2,158142, Control_c, 0, 64, 93
2,158144, Note_on_c, 0, 66, 0
2,158162, Control_c, 0, 64, 94
2,158180, Control_c, 0, 64, 95
2,158199, Control_c, 0, 64, 97
2,158218, Control_c, 0, 64, 101
2,158223, Note_on_c, 0, 56, 73
2,158238, Control_c, 0, 64, 104
2,158257, Control_c, 0, 64, 106
2,158276, Control_c, 0, 64, 106
2,158324, Note_on_c, 0, 58, 0
2,158429, Control_c, 0, 64, 107
2,158449, Control_c, 0, 64, 107
2,158467, Control_c, 0, 64, 101
2,158478, Note_on_c, 0, 51, 63
2,158484, Note_on_c, 0, 70, 81
2,158487, Control_c, 0, 64, 78
2,158501, Note_on_c, 0, 55, 63
2,158506, Control_c, 0, 64, 28
2,158509, Note_on_c, 0, 71, 0
2,158524, Note_on_c, 0, 56, 0
2,158526, Control_c, 0, 64, 0
2,158621, Note_on_c, 0, 75, 0
2,158735, Note_on_c, 0, 56, 68
2,158757, Note_on_c, 0, 55, 0
2,158834, Control_c, 0, 64, 30
2,158853, Control_c, 0, 64, 59
2,158872, Control_c, 0, 64, 64
2,158891, Control_c, 0, 64, 63
2,158948, Control_c, 0, 64, 64
2,158968, Control_c, 0, 64, 64
2,158971, Note_on_c, 0, 56, 0
2,158983, Note_on_c, 0, 58, 58
2,159002, Note_on_c, 0, 73, 80
2,159007, Control_c, 0, 64, 65
2,159025, Control_c, 0, 64, 65
2,159045, Control_c, 0, 64, 67
2,159064, Control_c, 0, 64, 70
2,159083, Control_c, 0, 64, 76
2,159102, Control_c, 0, 64, 83
2,159122, Control_c, 0, 64, 87
2,159140, Control_c, 0, 64, 90
2,159160, Control_c, 0, 64, 101
2,159168, Note_on_c, 0, 51, 0
2,159179, Control_c, 0, 64, 127
2,159222, Note_on_c, 0, 55, 59
2,159232, Note_on_c, 0, 58, 0
2,159260, Note_on_c, 0, 55, 0
2,159485, Note_on_c, 0, 56, 77
2,159487, Control_c, 0, 64, 106
2,159487, Note_on_c, 0, 71, 78
2,159505, Control_c, 0, 64, 68
2,159521, Note_on_c, 0, 70, 0
2,159522, Note_on_c, 0, 73, 0
2,159525, Control_c, 0, 64, 0
2,159745, Note_on_c, 0, 59, 74
2,159871, Control_c, 0, 64, 56
2,159891, Control_c, 0, 64, 60
2,159909, Control_c, 0, 64, 61
2,159929, Control_c, 0, 64, 65
2,159948, Control_c, 0, 64, 70
2,159968, Control_c, 0, 64, 78
2,159986, Control_c, 0, 64, 87
2,159997, Note_on_c, 0, 61, 80
2,160006, Control_c, 0, 64, 92
2,160014, Note_on_c, 0, 68, 79
2,160025, Control_c, 0, 64, 96
2,160044, Control_c, 0, 64, 104
2,160063, Control_c, 0, 64, 121
2,160083, Control_c, 0, 64, 127
2,160185, Note_on_c, 0, 59, 0
2,160223, Note_on_c, 0, 56, 0
2,160223, Note_on_c, 0, 68, 0
2,160243, Note_on_c, 0, 63, 74
2,160244, Note_on_c, 0, 67, 79
2,160247, Note_on_c, 0, 61, 0
2,160277, Note_on_c, 0, 63, 0
2,160504, Control_c, 0, 64, 94
2,160510, Note_on_c, 0, 52, 80
2,160515, Note_on_c, 0, 64, 79
2,160522, Note_on_c, 0, 67, 0
2,160523, Control_c, 0, 64, 59
2,160530, Note_on_c, 0, 68, 80
2,160542, Control_c, 0, 64, 0
2,160543, Note_on_c, 0, 71, 0
2,160622, Control_c, 0, 64, 36
2,160642, Control_c, 0, 64, 50
2,160660, Control_c, 0, 64, 54
2,160680, Control_c, 0, 64, 58
2,160699, Control_c, 0, 64, 60
2,160718, Control_c, 0, 64, 61
2,160737, Control_c, 0, 64, 62
2,160747, Note_on_c, 0, 68, 0
2,160757, Control_c, 0, 64, 63
2,160772, Note_on_c, 0, 71, 76
2,160776, Control_c, 0, 64, 64
2,160795, Control_c, 0, 64, 65
2,160814, Control_c, 0, 64, 65
2,160834, Control_c, 0, 64, 66
2,160853, Control_c, 0, 64, 67
2,160871, Control_c, 0, 64, 70
2,160891, Control_c, 0, 64, 73
2,160910, Control_c, 0, 64, 75
2,160929, Control_c, 0, 64, 77
2,160948, Control_c, 0, 64, 80
2,160968, Control_c, 0, 64, 84
2,160987, Control_c, 0, 64, 89
2,161006, Control_c, 0, 64, 92
2,161025, Control_c, 0, 64, 93
2,161032, Note_on_c, 0, 59, 58
2,161032, Note_on_c, 0, 76, 84
2,161045, Control_c, 0, 64, 94
2,161049, Note_on_c, 0, 71, 0
2,161063, Control_c, 0, 64, 96
2,161077, Note_on_c, 0, 64, 0
2,161083, Control_c, 0, 64, 102
2,161103, Control_c, 0, 64, 116
2,161122, Control_c, 0, 64, 127
2,161152, Note_on_c, 0, 52, 0
2,161156, Note_on_c, 0, 59, 0
2,161283, Note_on_c, 0, 78, 84
2,161288, Note_on_c, 0, 71, 82
2,161290, Note_on_c, 0, 76, 0
2,161519, Note_on_c, 0, 78, 0
2,161570, Note_on_c, 0, 49, 80
2,161570, Note_on_c, 0, 71, 0
2,161575, Note_on_c, 0, 76, 78
2,161578, Note_on_c, 0, 80, 92
2,161582, Control_c, 0, 64, 100
2,161601, Control_c, 0, 64, 66
2,161621, Control_c, 0, 64, 0
2,161890, Control_c, 0, 64, 22
2,161893, Note_on_c, 0, 56, 76
2,161908, Control_c, 0, 64, 45
2,161928, Control_c, 0, 64, 55
2,161947, Control_c, 0, 64, 60
2,161966, Control_c, 0, 64, 63
2,161985, Control_c, 0, 64, 64
2,162004, Control_c, 0, 64, 65
2,162024, Control_c, 0, 64, 66
2,162042, Control_c, 0, 64, 69
2,162062, Control_c, 0, 64, 73
2,162081, Control_c, 0, 64, 81
2,162101, Control_c, 0, 64, 90
2,162119, Control_c, 0, 64, 99
2,162139, Control_c, 0, 64, 110
2,162139, Note_on_c, 0, 58, 71
2,162158, Control_c, 0, 64, 127
2,162251, Note_on_c, 0, 49, 0
2,162277, Note_on_c, 0, 56, 0
2,162351, Note_on_c, 0, 58, 0
2,162388, Note_on_c, 0, 59, 74
2,162638, Control_c, 0, 64, 89
2,162641, Note_on_c, 0, 58, 79
2,162650, Note_on_c, 0, 61, 77
2,162657, Control_c, 0, 64, 59
2,162676, Control_c, 0, 64, 0
2,162677, Note_on_c, 0, 59, 0
2,162705, Note_on_c, 0, 76, 0
2,162711, Note_on_c, 0, 80, 0
2,162850, Control_c, 0, 64, 19
2,162868, Control_c, 0, 64, 50
2,162888, Control_c, 0, 64, 61
2,162896, Note_on_c, 0, 76, 74
2,162903, Note_on_c, 0, 80, 72
2,162907, Control_c, 0, 64, 62
2,162926, Control_c, 0, 64, 62
2,162945, Control_c, 0, 64, 63
2,162964, Control_c, 0, 64, 65
2,162984, Control_c, 0, 64, 68
2,163001, Control_c, 0, 64, 70
2,163021, Control_c, 0, 64, 73
2,163040, Control_c, 0, 64, 76
2,163060, Control_c, 0, 64, 79
2,163078, Control_c, 0, 64, 82
2,163098, Control_c, 0, 64, 85
2,163117, Control_c, 0, 64, 88
2,163136, Control_c, 0, 64, 91
2,163155, Control_c, 0, 64, 93
2,163166, Note_on_c, 0, 75, 83
2,163170, Note_on_c, 0, 66, 72
2,163172, Note_on_c, 0, 80, 0
2,163175, Control_c, 0, 64, 96
2,163180, Note_on_c, 0, 78, 80
2,163185, Note_on_c, 0, 76, 0
2,163194, Control_c, 0, 64, 100
2,163213, Control_c, 0, 64, 105
2,163232, Control_c, 0, 64, 111
2,163233, Note_on_c, 0, 61, 0
2,163252, Control_c, 0, 64, 116
2,163271, Control_c, 0, 64, 119
2,163290, Control_c, 0, 64, 123
2,163291, Note_on_c, 0, 58, 0
2,163309, Control_c, 0, 64, 127
2,163339, Note_on_c, 0, 66, 0
2,163418, Note_on_c, 0, 78, 0
2,163420, Note_on_c, 0, 76, 88
2,163422, Note_on_c, 0, 73, 80
2,163430, Note_on_c, 0, 75, 0
2,163572, Note_on_c, 0, 73, 0
2,163693, Control_c, 0, 64, 119
2,163708, Note_on_c, 0, 59, 79
2,163712, Control_c, 0, 64, 96
2,163712, Note_on_c, 0, 75, 82
2,163723, Note_on_c, 0, 71, 70
2,163732, Control_c, 0, 64, 69
2,163751, Control_c, 0, 64, 39
2,163754, Note_on_c, 0, 76, 0
2,163770, Control_c, 0, 64, 0
2,163886, Control_c, 0, 64, 30
2,163904, Control_c, 0, 64, 53
2,163923, Control_c, 0, 64, 57
2,163943, Control_c, 0, 64, 58
2,163961, Control_c, 0, 64, 59
2,163981, Control_c, 0, 64, 60
2,164000, Control_c, 0, 64, 62
2,164019, Note_on_c, 0, 68, 73
2,164020, Control_c, 0, 64, 63
2,164038, Control_c, 0, 64, 63
2,164058, Control_c, 0, 64, 64
2,164077, Control_c, 0, 64, 64
2,164096, Control_c, 0, 64, 65
2,164115, Control_c, 0, 64, 66
2,164135, Control_c, 0, 64, 68
2,164154, Control_c, 0, 64, 72
2,164173, Control_c, 0, 64, 74
2,164192, Control_c, 0, 64, 76
2,164212, Control_c, 0, 64, 76
2,164231, Control_c, 0, 64, 77
2,164250, Control_c, 0, 64, 77
2,164266, Note_on_c, 0, 66, 61
2,164279, Note_on_c, 0, 68, 0
2,164423, Control_c, 0, 64, 77
2,164441, Control_c, 0, 64, 76
2,164480, Control_c, 0, 64, 76
2,164518, Control_c, 0, 64, 75
2,164527, Note_on_c, 0, 71, 0
2,164537, Note_on_c, 0, 64, 71
2,164538, Control_c, 0, 64, 74
2,164541, Note_on_c, 0, 66, 0
2,164557, Control_c, 0, 64, 74
2,164576, Control_c, 0, 64, 73
2,164672, Control_c, 0, 64, 73
2,164692, Control_c, 0, 64, 72
2,164769, Control_c, 0, 64, 71
2,164777, Note_on_c, 0, 63, 65
2,164781, Note_on_c, 0, 64, 0
2,164787, Control_c, 0, 64, 70
2,164807, Control_c, 0, 64, 68
2,164826, Control_c, 0, 64, 68
2,164921, Control_c, 0, 64, 67
2,164980, Control_c, 0, 64, 67
2,164998, Control_c, 0, 64, 66
2,165018, Control_c, 0, 64, 65
2,165020, Note_on_c, 0, 67, 52
2,165032, Note_on_c, 0, 61, 56
2,165037, Control_c, 0, 64, 65
2,165040, Note_on_c, 0, 59, 0
2,165056, Control_c, 0, 64, 64
2,165075, Control_c, 0, 64, 62
2,165095, Control_c, 0, 64, 59
2,165114, Control_c, 0, 64, 57
2,165133, Control_c, 0, 64, 56
2,165152, Control_c, 0, 64, 55
2,165172, Control_c, 0, 64, 53
2,165191, Control_c, 0, 64, 49
2,165210, Control_c, 0, 64, 46
2,165229, Control_c, 0, 64, 43
2,165249, Control_c, 0, 64, 41
2,165267, Control_c, 0, 64, 39
2,165280, Note_on_c, 0, 68, 70
2,165287, Control_c, 0, 64, 35
2,165291, Note_on_c, 0, 59, 51
2,165305, Note_on_c, 0, 67, 0
2,165306, Control_c, 0, 64, 32
2,165326, Control_c, 0, 64, 31
2,165344, Control_c, 0, 64, 31
2,165382, Control_c, 0, 64, 29
2,165400, Control_c, 0, 64, 29
2,165522, Note_on_c, 0, 58, 54
2,165522, Note_on_c, 0, 70, 80
2,165557, Note_on_c, 0, 59, 0
2,165574, Control_c, 0, 64, 29
2,165585, Note_on_c, 0, 68, 0
2,165593, Control_c, 0, 64, 30
2,165612, Control_c, 0, 64, 31
2,165631, Control_c, 0, 64, 31
2,165689, Control_c, 0, 64, 32
2,165708, Control_c, 0, 64, 33
2,165728, Control_c, 0, 64, 34
2,165767, Note_on_c, 0, 56, 59
2,165779, Note_on_c, 0, 71, 67
2,165790, Note_on_c, 0, 58, 0
2,165790, Note_on_c, 0, 61, 0
2,165804, Control_c, 0, 64, 34
2,165811, Note_on_c, 0, 70, 0
2,165899, Control_c, 0, 64, 35
2,166017, Note_on_c, 0, 70, 72
2,166024, Note_on_c, 0, 63, 0
2,166026, Note_on_c, 0, 64, 57
2,166053, Control_c, 0, 64, 35
2,166063, Note_on_c, 0, 71, 0
2,166091, Control_c, 0, 64, 36
2,166187, Control_c, 0, 64, 36
2,166271, Note_on_c, 0, 63, 51
2,166273, Note_on_c, 0, 73, 63
2,166290, Note_on_c, 0, 64, 0
2,166290, Note_on_c, 0, 70, 0
2,166360, Control_c, 0, 64, 37
2,166399, Control_c, 0, 64, 37
2,166419, Control_c, 0, 64, 38
2,166457, Control_c, 0, 64, 38
2,166476, Control_c, 0, 64, 39
2,166495, Note_on_c, 0, 63, 0
2,166496, Control_c, 0, 64, 39
2,166513, Note_on_c, 0, 73, 0
2,166514, Control_c, 0, 64, 40
2,166525, Note_on_c, 0, 61, 32
2,166529, Note_on_c, 0, 67, 53
2,166553, Control_c, 0, 64, 40
2,166572, Control_c, 0, 64, 41
2,166591, Control_c, 0, 64, 41
2,166649, Control_c, 0, 64, 42
2,166688, Control_c, 0, 64, 42
2,166706, Control_c, 0, 64, 43
2,166747, Note_on_c, 0, 61, 0
2,166764, Control_c, 0, 64, 44
2,166773, Note_on_c, 0, 67, 0
2,166788, Note_on_c, 0, 59, 41
2,166791, Note_on_c, 0, 68, 55
2,166840, Control_c, 0, 64, 44
2,166917, Control_c, 0, 64, 45
2,166937, Control_c, 0, 64, 45
2,166976, Control_c, 0, 64, 46
2,166996, Note_on_c, 0, 56, 0
2,167041, Note_on_c, 0, 58, 49
2,167052, Control_c, 0, 64, 46
2,167091, Control_c, 0, 64, 47
2,167110, Control_c, 0, 64, 47
2,167129, Control_c, 0, 64, 48
2,167205, Control_c, 0, 64, 48
2,167290, Note_on_c, 0, 56, 44
2,167290, Note_on_c, 0, 58, 0
2,167320, Control_c, 0, 64, 49
2,167359, Control_c, 0, 64, 49
2,167379, Control_c, 0, 64, 50
2,167513, Control_c, 0, 64, 50
2,167532, Note_on_c, 0, 54, 35
2,167610, Note_on_c, 0, 68, 0
2,167628, Control_c, 0, 64, 51
2,167651, Note_on_c, 0, 56, 0
2,167666, Control_c, 0, 64, 51
2,167762, Control_c, 0, 64, 52
2,167770, Note_on_c, 0, 75, 0
2,167811, Note_on_c, 0, 53, 44
2,167847, Note_on_c, 0, 54, 0
2,168012, Control_c, 0, 64, 52
2,168061, Note_on_c, 0, 75, 51
2,168310, Note_on_c, 0, 74, 53
2,168313, Note_on_c, 0, 75, 0
2,168531, Note_on_c, 0, 59, 0
2,168550, Note_on_c, 0, 72, 59
2,168556, Note_on_c, 0, 74, 0
2,168810, Note_on_c, 0, 72, 0
2,168812, Note_on_c, 0, 74, 55
2,168916, Control_c, 0, 64, 53
2,169055, Note_on_c, 0, 54, 41
2,169059, Note_on_c, 0, 75, 64
2,169073, Note_on_c, 0, 74, 0
2,169118, Note_on_c, 0, 53, 0
2,169268, Note_on_c, 0, 54, 0
2,169279, Note_on_c, 0, 53, 43
2,169288, Note_on_c, 0, 77, 58
2,169318, Note_on_c, 0, 75, 0
2,169530, Control_c, 0, 64, 52
2,169538, Note_on_c, 0, 78, 70
2,169544, Note_on_c, 0, 51, 35
2,169580, Note_on_c, 0, 77, 0
2,169593, Note_on_c, 0, 53, 0
2,169791, Note_on_c, 0, 80, 68
2,169796, Note_on_c, 0, 50, 40
2,169813, Note_on_c, 0, 78, 0
2,169821, Note_on_c, 0, 51, 0
2,170013, Note_on_c, 0, 46, 43
2,170084, Note_on_c, 0, 50, 0
2,170264, Note_on_c, 0, 77, 56
2,170272, Note_on_c, 0, 48, 44
2,170398, Note_on_c, 0, 46, 0
2,170519, Note_on_c, 0, 48, 0
2,170519, Note_on_c, 0, 50, 49
2,170771, Note_on_c, 0, 50, 0
2,170777, Note_on_c, 0, 78, 69
2,170785, Note_on_c, 0, 51, 39
2,170793, Note_on_c, 0, 80, 0
2,170814, Note_on_c, 0, 77, 0
2,170930, Control_c, 0, 64, 52
2,170996, Note_on_c, 0, 51, 0
2,171029, Note_on_c, 0, 53, 45
2,171257, Note_on_c, 0, 53, 0
2,171257, Note_on_c, 0, 54, 39
2,171265, Note_on_c, 0, 75, 54
2,171479, Note_on_c, 0, 54, 0
2,171497, Note_on_c, 0, 75, 0
2,171501, Note_on_c, 0, 51, 35
2,171501, Note_on_c, 0, 73, 54
2,171563, Control_c, 0, 64, 51
2,171746, Note_on_c, 0, 73, 0
2,171762, Note_on_c, 0, 71, 53
2,171763, Note_on_c, 0, 56, 39
2,171766, Note_on_c, 0, 51, 0
2,171998, Note_on_c, 0, 54, 48
2,172008, Note_on_c, 0, 56, 0
2,172102, Note_on_c, 0, 71, 0
2,172241, Note_on_c, 0, 54, 0
2,172260, Note_on_c, 0, 75, 65
2,172267, Note_on_c, 0, 56, 45
2,172477, Note_on_c, 0, 56, 0
2,172499, Note_on_c, 0, 58, 38
2,172504, Control_c, 0, 64, 52
2,172600, Control_c, 0, 64, 52
2,172732, Note_on_c, 0, 58, 0
2,172733, Note_on_c, 0, 75, 0
2,172762, Note_on_c, 0, 68, 52
2,172780, Note_on_c, 0, 59, 32
2,172832, Note_on_c, 0, 78, 0
2,172870, Control_c, 0, 64, 53
2,172908, Control_c, 0, 64, 53
2,172928, Control_c, 0, 64, 54
2,172946, Control_c, 0, 64, 55
2,172965, Control_c, 0, 64, 55
2,172985, Control_c, 0, 64, 56
2,173004, Control_c, 0, 64, 57
2,173022, Note_on_c, 0, 59, 0
2,173023, Control_c, 0, 64, 57
2,173031, Note_on_c, 0, 58, 33
2,173042, Control_c, 0, 64, 58
2,173054, Note_on_c, 0, 78, 68
2,173062, Control_c, 0, 64, 58
2,173080, Control_c, 0, 64, 59
2,173100, Control_c, 0, 64, 59
2,173119, Control_c, 0, 64, 60
2,173139, Control_c, 0, 64, 60
2,173157, Control_c, 0, 64, 61
2,173177, Control_c, 0, 64, 62
2,173216, Control_c, 0, 64, 63
2,173234, Control_c, 0, 64, 63
2,173284, Note_on_c, 0, 58, 0
2,173284, Note_on_c, 0, 77, 64
2,173292, Note_on_c, 0, 78, 0
2,173305, Note_on_c, 0, 59, 32
2,173426, Control_c, 0, 64, 63
2,173465, Control_c, 0, 64, 62
2,173499, Note_on_c, 0, 77, 0
2,173521, Note_on_c, 0, 75, 64
2,173522, Control_c, 0, 64, 62
2,173528, Note_on_c, 0, 56, 39
2,173555, Control_c, 0, 64, 61
2,173566, Note_on_c, 0, 59, 0
2,173613, Control_c, 0, 64, 61
2,173651, Control_c, 0, 64, 60
2,173709, Control_c, 0, 64, 60
2,173742, Note_on_c, 0, 75, 0
2,173747, Control_c, 0, 64, 59
2,173766, Note_on_c, 0, 74, 56
2,173789, Note_on_c, 0, 58, 33
2,173804, Control_c, 0, 64, 59
2,173808, Note_on_c, 0, 56, 0
2,173843, Control_c, 0, 64, 58
2,173939, Control_c, 0, 64, 58
2,174022, Control_c, 0, 64, 57
2,174026, Note_on_c, 0, 71, 57
2,174045, Note_on_c, 0, 68, 0
2,174214, Control_c, 0, 64, 57
2,174260, Note_on_c, 0, 71, 0
2,174285, Note_on_c, 0, 70, 51
2,174368, Control_c, 0, 64, 56
2,174491, Note_on_c, 0, 70, 0
2,174520, Note_on_c, 0, 68, 53
2,174558, Control_c, 0, 64, 56
2,174764, Note_on_c, 0, 68, 0
2,174780, Note_on_c, 0, 66, 53
2,175030, Note_on_c, 0, 70, 69
2,175040, Note_on_c, 0, 74, 0
2,175298, Note_on_c, 0, 75, 68
2,175325, Note_on_c, 0, 70, 0
2,175441, Control_c, 0, 64, 55
2,175526, Note_on_c, 0, 57, 58
2,175528, Note_on_c, 0, 66, 0
2,175546, Note_on_c, 0, 58, 0
2,175819, Note_on_c, 0, 58, 55
2,175823, Note_on_c, 0, 57, 0
2,175830, Note_on_c, 0, 65, 50
2,175845, Control_c, 0, 64, 55
2,176058, Control_c, 0, 64, 55
2,176068, Note_on_c, 0, 75, 0
2,176070, Note_on_c, 0, 72, 65
2,176115, Control_c, 0, 64, 56
2,176250, Control_c, 0, 64, 56
2,176289, Control_c, 0, 64, 57
2,176330, Note_on_c, 0, 74, 67
2,176346, Control_c, 0, 64, 57
2,176347, Note_on_c, 0, 72, 0
2,176365, Control_c, 0, 64, 58
2,176384, Control_c, 0, 64, 58
2,176403, Control_c, 0, 64, 59
2,176538, Control_c, 0, 64, 59
2,176578, Note_on_c, 0, 77, 72
2,176595, Note_on_c, 0, 74, 0
2,176615, Control_c, 0, 64, 60
2,176634, Control_c, 0, 64, 60
2,176653, Control_c, 0, 64, 61
2,176730, Control_c, 0, 64, 61
2,176796, Note_on_c, 0, 77, 0
2,176838, Note_on_c, 0, 46, 53
2,176838, Note_on_c, 0, 68, 66
2,176876, Note_on_c, 0, 58, 0
2,176903, Control_c, 0, 64, 61
2,177037, Control_c, 0, 64, 60
2,177094, Note_on_c, 0, 71, 68
2,177101, Note_on_c, 0, 68, 0
2,177172, Control_c, 0, 64, 60
2,177354, Note_on_c, 0, 70, 72
2,177363, Control_c, 0, 64, 59
2,177363, Note_on_c, 0, 71, 0
2,177588, Note_on_c, 0, 68, 70
2,177601, Note_on_c, 0, 70, 0
2,177652, Note_on_c, 0, 65, 0
2,177843, Control_c, 0, 64, 59
2,177865, Note_on_c, 0, 54, 75
2,177878, Note_on_c, 0, 66, 58
2,177882, Note_on_c, 0, 51, 49
2,177912, Note_on_c, 0, 68, 0
2,177960, Note_on_c, 0, 46, 0
2,178119, Note_on_c, 0, 65, 56
2,178360, Note_on_c, 0, 65, 0
2,178379, Note_on_c, 0, 63, 60
2,178590, Control_c, 0, 64, 58
2,178625, Note_on_c, 0, 62, 62
2,178633, Note_on_c, 0, 63, 0
2,178859, Control_c, 0, 64, 58
2,178892, Note_on_c, 0, 58, 70
2,178903, Note_on_c, 0, 63, 59
2,178913, Note_on_c, 0, 54, 0
2,178916, Control_c, 0, 64, 57
2,178923, Note_on_c, 0, 62, 0
2,178955, Control_c, 0, 64, 57
2,179013, Control_c, 0, 64, 56
2,179032, Control_c, 0, 64, 56
2,179051, Control_c, 0, 64, 55
2,179070, Control_c, 0, 64, 54
2,179090, Control_c, 0, 64, 53
2,179109, Control_c, 0, 64, 52
2,179127, Control_c, 0, 64, 51
2,179132, Note_on_c, 0, 52, 56
2,179147, Control_c, 0, 64, 49
2,179151, Note_on_c, 0, 51, 0
2,179166, Control_c, 0, 64, 47
2,179186, Control_c, 0, 64, 46
2,179204, Control_c, 0, 64, 46
2,179224, Control_c, 0, 64, 45
2,179243, Control_c, 0, 64, 44
2,179396, Control_c, 0, 64, 46
2,179398, Note_on_c, 0, 51, 63
2,179415, Control_c, 0, 64, 49
2,179434, Control_c, 0, 64, 52
2,179454, Control_c, 0, 64, 55
2,179472, Control_c, 0, 64, 56
2,179492, Control_c, 0, 64, 57
2,179511, Control_c, 0, 64, 59
2,179511, Note_on_c, 0, 52, 0
2,179531, Control_c, 0, 64, 62
2,179549, Control_c, 0, 64, 63
2,179569, Control_c, 0, 64, 64
2,179588, Control_c, 0, 64, 66
2,179606, Control_c, 0, 64, 67
2,179624, Note_on_c, 0, 49, 64
2,179626, Control_c, 0, 64, 69
2,179626, Note_on_c, 0, 63, 0
2,179645, Control_c, 0, 64, 70
2,179665, Control_c, 0, 64, 70
2,179683, Control_c, 0, 64, 71
2,179684, Note_on_c, 0, 51, 0
2,179703, Control_c, 0, 64, 72
2,179781, Control_c, 0, 64, 71
2,179819, Control_c, 0, 64, 71
2,179892, Note_on_c, 0, 49, 0
2,179898, Control_c, 0, 64, 70
2,179910, Note_on_c, 0, 47, 48
2,179917, Note_on_c, 0, 63, 77
2,179918, Control_c, 0, 64, 67
2,179940, Control_c, 0, 64, 62
2,179959, Control_c, 0, 64, 48
2,179971, Note_on_c, 0, 66, 0
2,179978, Control_c, 0, 64, 35
2,179998, Control_c, 0, 64, 19
2,180016, Control_c, 0, 64, 0
2,180113, Control_c, 0, 64, 34
2,180132, Control_c, 0, 64, 47
2,180152, Control_c, 0, 64, 52
2,180152, Note_on_c, 0, 47, 0
2,180167, Note_on_c, 0, 46, 56
2,180170, Control_c, 0, 64, 54
2,180189, Control_c, 0, 64, 56
2,180209, Control_c, 0, 64, 59
2,180227, Control_c, 0, 64, 61
2,180247, Control_c, 0, 64, 61
2,180286, Control_c, 0, 64, 62
2,180324, Control_c, 0, 64, 62
2,180401, Control_c, 0, 64, 61
2,180406, Note_on_c, 0, 58, 0
2,180420, Control_c, 0, 64, 58
2,180428, Note_on_c, 0, 46, 0
2,180429, Note_on_c, 0, 66, 65
2,180438, Note_on_c, 0, 47, 53
2,180439, Control_c, 0, 64, 54
2,180458, Control_c, 0, 64, 50
2,180478, Control_c, 0, 64, 49
2,180496, Control_c, 0, 64, 50
2,180516, Control_c, 0, 64, 52
2,180535, Control_c, 0, 64, 54
2,180555, Control_c, 0, 64, 56
2,180573, Control_c, 0, 64, 59
2,180593, Control_c, 0, 64, 61
2,180612, Control_c, 0, 64, 62
2,180650, Control_c, 0, 64, 63
2,180669, Control_c, 0, 64, 64
2,180689, Control_c, 0, 64, 65
2,180690, Note_on_c, 0, 64, 72
2,180707, Control_c, 0, 64, 66
2,180726, Control_c, 0, 64, 66
2,180739, Note_on_c, 0, 66, 0
2,180778, Note_on_c, 0, 63, 0
2,180783, Control_c, 0, 64, 67
2,180860, Control_c, 0, 64, 66
2,180937, Control_c, 0, 64, 66
2,180944, Note_on_c, 0, 59, 78
2,180957, Control_c, 0, 64, 64
2,180966, Note_on_c, 0, 63, 58
2,180971, Note_on_c, 0, 64, 0
2,180976, Control_c, 0, 64, 60
2,180995, Control_c, 0, 64, 49
2,181014, Control_c, 0, 64, 31
2,181034, Control_c, 0, 64, 19
2,181091, Control_c, 0, 64, 21
2,181110, Control_c, 0, 64, 28
2,181129, Control_c, 0, 64, 39
2,181148, Control_c, 0, 64, 47
2,181168, Control_c, 0, 64, 48
2,181189, Note_on_c, 0, 49, 66
2,181190, Note_on_c, 0, 63, 0
2,181202, Note_on_c, 0, 47, 0
2,181202, Note_on_c, 0, 64, 68
2,181262, Control_c, 0, 64, 47
2,181282, Control_c, 0, 64, 47
2,181301, Control_c, 0, 64, 46
2,181321, Control_c, 0, 64, 45
2,181339, Control_c, 0, 64, 44
2,181359, Control_c, 0, 64, 43
2,181397, Control_c, 0, 64, 42
2,181416, Control_c, 0, 64, 42
2,181436, Control_c, 0, 64, 40
2,181454, Note_on_c, 0, 66, 61
2,181455, Control_c, 0, 64, 39
2,181460, Note_on_c, 0, 51, 72
2,181475, Note_on_c, 0, 64, 0
2,181489, Note_on_c, 0, 49, 0
2,181513, Control_c, 0, 64, 41
2,181531, Control_c, 0, 64, 46
2,181550, Control_c, 0, 64, 52
2,181570, Control_c, 0, 64, 58
2,181589, Control_c, 0, 64, 61
2,181608, Control_c, 0, 64, 63
2,181627, Control_c, 0, 64, 64
2,181647, Control_c, 0, 64, 66
2,181666, Control_c, 0, 64, 69
2,181666, Note_on_c, 0, 66, 0
2,181686, Control_c, 0, 64, 73
2,181687, Note_on_c, 0, 63, 68
2,181703, Note_on_c, 0, 59, 0
2,181705, Control_c, 0, 64, 78
2,181725, Control_c, 0, 64, 81
2,181737, Note_on_c, 0, 63, 0
2,181743, Control_c, 0, 64, 82
2,181763, Control_c, 0, 64, 82
2,181820, Control_c, 0, 64, 82
2,181859, Control_c, 0, 64, 81
2,181897, Control_c, 0, 64, 81
2,181917, Control_c, 0, 64, 80
2,181936, Control_c, 0, 64, 79
2,181955, Control_c, 0, 64, 79
2,181974, Control_c, 0, 64, 76
2,181976, Note_on_c, 0, 56, 80
2,181994, Control_c, 0, 64, 70
2,181994, Note_on_c, 0, 59, 69
2,182012, Control_c, 0, 64, 64
2,182032, Control_c, 0, 64, 54
2,182051, Control_c, 0, 64, 48
2,182070, Control_c, 0, 64, 40
2,182089, Control_c, 0, 64, 29
2,182108, Control_c, 0, 64, 21
2,182128, Control_c, 0, 64, 13
2,182146, Control_c, 0, 64, 11
2,182215, Note_on_c, 0, 49, 55
2,182223, Note_on_c, 0, 59, 0
2,182235, Note_on_c, 0, 61, 62
2,182328, Note_on_c, 0, 51, 0
2,182357, Control_c, 0, 64, 15
2,182375, Control_c, 0, 64, 18
2,182395, Control_c, 0, 64, 20
2,182414, Control_c, 0, 64, 23
2,182433, Control_c, 0, 64, 26
2,182452, Control_c, 0, 64, 28
2,182472, Control_c, 0, 64, 31
2,182473, Note_on_c, 0, 49, 0
2,182477, Note_on_c, 0, 63, 67
2,182479, Note_on_c, 0, 47, 49
2,182491, Control_c, 0, 64, 36
2,182509, Control_c, 0, 64, 41
2,182513, Note_on_c, 0, 61, 0
2,182529, Control_c, 0, 64, 44
2,182548, Control_c, 0, 64, 46
2,182567, Control_c, 0, 64, 49
2,182586, Control_c, 0, 64, 53
2,182606, Control_c, 0, 64, 57
2,182625, Control_c, 0, 64, 59
2,182647, Control_c, 0, 64, 60
2,182666, Control_c, 0, 64, 61
2,182686, Control_c, 0, 64, 62
2,182704, Control_c, 0, 64, 63
2,182724, Control_c, 0, 64, 64
2,182733, Note_on_c, 0, 51, 54
2,182735, Note_on_c, 0, 47, 0
2,182741, Note_on_c, 0, 59, 65
2,182743, Control_c, 0, 64, 65
2,182762, Control_c, 0, 64, 66
2,182781, Control_c, 0, 64, 66
2,182782, Note_on_c, 0, 56, 0
2,182801, Control_c, 0, 64, 67
2,182820, Control_c, 0, 64, 68
2,182839, Control_c, 0, 64, 69
2,182896, Control_c, 0, 64, 69
2,182981, Note_on_c, 0, 51, 0
2,182986, Note_on_c, 0, 49, 53
2,182993, Control_c, 0, 64, 68
2,183000, Note_on_c, 0, 65, 72
2,183012, Control_c, 0, 64, 65
2,183013, Note_on_c, 0, 56, 57
2,183014, Note_on_c, 0, 59, 0
2,183032, Control_c, 0, 64, 60
2,183050, Control_c, 0, 64, 55
2,183064, Note_on_c, 0, 63, 0
2,183089, Control_c, 0, 64, 56
2,183107, Control_c, 0, 64, 58
2,183127, Control_c, 0, 64, 62
2,183145, Control_c, 0, 64, 63
2,183165, Control_c, 0, 64, 64
2,183183, Control_c, 0, 64, 65
2,183226, Note_on_c, 0, 49, 0
2,183236, Note_on_c, 0, 56, 0
2,183242, Note_on_c, 0, 58, 52
2,183265, Note_on_c, 0, 47, 45
2,183334, Control_c, 0, 64, 64
2,183392, Control_c, 0, 64, 64
2,183449, Control_c, 0, 64, 63
2,183469, Control_c, 0, 64, 62
2,183483, Note_on_c, 0, 47, 0
2,183488, Control_c, 0, 64, 59
2,183501, Note_on_c, 0, 46, 48
2,183508, Control_c, 0, 64, 57
2,183523, Note_on_c, 0, 59, 44
2,183526, Control_c, 0, 64, 56
2,183565, Control_c, 0, 64, 55
2,183584, Control_c, 0, 64, 55
2,183623, Control_c, 0, 64, 56
2,183623, Note_on_c, 0, 58, 0
2,183642, Control_c, 0, 64, 57
2,183680, Control_c, 0, 64, 57
2,183719, Control_c, 0, 64, 59
2,183737, Control_c, 0, 64, 60
2,183748, Note_on_c, 0, 44, 45
2,183757, Control_c, 0, 64, 60
2,183772, Note_on_c, 0, 46, 0
2,183776, Control_c, 0, 64, 61
2,183795, Control_c, 0, 64, 62
2,183814, Control_c, 0, 64, 63
2,184006, Control_c, 0, 64, 62
2,184044, Note_on_c, 0, 66, 64
2,184045, Control_c, 0, 64, 62
2,184052, Note_on_c, 0, 42, 47
2,184075, Note_on_c, 0, 44, 0
2,184083, Control_c, 0, 64, 60
2,184103, Control_c, 0, 64, 58
2,184109, Note_on_c, 0, 65, 0
2,184118, Note_on_c, 0, 59, 0
2,184122, Control_c, 0, 64, 56
2,184141, Control_c, 0, 64, 54
2,184160, Control_c, 0, 64, 53
2,184217, Control_c, 0, 64, 54
2,184256, Control_c, 0, 64, 55
2,184275, Control_c, 0, 64, 56
2,184294, Control_c, 0, 64, 57
2,184310, Note_on_c, 0, 59, 51
2,184314, Control_c, 0, 64, 58
2,184322, Note_on_c, 0, 49, 47
2,184333, Control_c, 0, 64, 58
2,184391, Control_c, 0, 64, 59
2,184424, Note_on_c, 0, 42, 0
2,184468, Control_c, 0, 64, 58
2,184541, Note_on_c, 0, 59, 0
2,184563, Note_on_c, 0, 54, 54
2,184571, Note_on_c, 0, 58, 52
2,184576, Note_on_c, 0, 49, 0
2,184584, Control_c, 0, 64, 59
2,184603, Control_c, 0, 64, 59
2,184622, Control_c, 0, 64, 60
2,184641, Control_c, 0, 64, 62
2,184661, Control_c, 0, 64, 62
2,184679, Control_c, 0, 64, 63
2,184698, Control_c, 0, 64, 63
2,184718, Control_c, 0, 64, 64
2,184737, Control_c, 0, 64, 64
2,184756, Control_c, 0, 64, 65
2,184775, Control_c, 0, 64, 66
2,184783, Note_on_c, 0, 58, 0
2,184795, Control_c, 0, 64, 67
2,184806, Note_on_c, 0, 56, 65
2,184813, Control_c, 0, 64, 68
2,184833, Control_c, 0, 64, 69
2,184852, Control_c, 0, 64, 70
2,184872, Control_c, 0, 64, 71
2,184890, Control_c, 0, 64, 72
2,184910, Control_c, 0, 64, 72
2,185064, Note_on_c, 0, 56, 0
2,185067, Note_on_c, 0, 66, 0
2,185074, Note_on_c, 0, 58, 59
2,185102, Control_c, 0, 64, 72
2,185157, Note_on_c, 0, 58, 0
2,185159, Control_c, 0, 64, 71
2,185178, Control_c, 0, 64, 71
2,185217, Control_c, 0, 64, 70
2,185236, Control_c, 0, 64, 70
2,185287, Note_on_c, 0, 54, 0
2,185293, Control_c, 0, 64, 69
2,185313, Control_c, 0, 64, 67
2,185313, Note_on_c, 0, 52, 44
2,185317, Note_on_c, 0, 61, 67
2,185332, Control_c, 0, 64, 67
2,185352, Control_c, 0, 64, 66
2,185370, Control_c, 0, 64, 66
2,185390, Control_c, 0, 64, 65
2,185409, Control_c, 0, 64, 64
2,185429, Control_c, 0, 64, 63
2,185447, Control_c, 0, 64, 62
2,185467, Control_c, 0, 64, 62
2,185505, Control_c, 0, 64, 61
2,185525, Control_c, 0, 64, 60
2,185545, Control_c, 0, 64, 59
2,185564, Control_c, 0, 64, 58
2,185575, Note_on_c, 0, 51, 46
2,185576, Note_on_c, 0, 61, 0
2,185582, Note_on_c, 0, 69, 73
2,185583, Control_c, 0, 64, 56
2,185585, Note_on_c, 0, 66, 63
2,185588, Note_on_c, 0, 52, 0
2,185602, Control_c, 0, 64, 52
2,185622, Control_c, 0, 64, 48
2,185640, Control_c, 0, 64, 45
2,185659, Control_c, 0, 64, 43
2,185679, Control_c, 0, 64, 40
2,185698, Control_c, 0, 64, 39
2,185736, Control_c, 0, 64, 38
2,185823, Note_on_c, 0, 49, 48
2,185851, Control_c, 0, 64, 39
2,185859, Note_on_c, 0, 51, 0
2,185871, Control_c, 0, 64, 41
2,185890, Control_c, 0, 64, 41
2,185909, Control_c, 0, 64, 42
2,185928, Control_c, 0, 64, 44
2,185948, Control_c, 0, 64, 47
2,185967, Control_c, 0, 64, 52
2,185986, Control_c, 0, 64, 56
2,186005, Control_c, 0, 64, 59
2,186023, Control_c, 0, 64, 60
2,186042, Control_c, 0, 64, 61
2,186060, Control_c, 0, 64, 62
2,186064, Note_on_c, 0, 49, 0
2,186080, Control_c, 0, 64, 63
2,186089, Note_on_c, 0, 48, 42
2,186099, Control_c, 0, 64, 64
2,186119, Control_c, 0, 64, 65
2,186137, Control_c, 0, 64, 66
2,186157, Control_c, 0, 64, 67
2,186176, Control_c, 0, 64, 68
2,186195, Control_c, 0, 64, 68
2,186214, Control_c, 0, 64, 69
2,186234, Control_c, 0, 64, 70
2,186253, Control_c, 0, 64, 71
2,186272, Control_c, 0, 64, 71
2,186291, Control_c, 0, 64, 72
2,186311, Control_c, 0, 64, 72
2,186323, Note_on_c, 0, 48, 0
2,186328, Note_on_c, 0, 49, 47
2,186349, Control_c, 0, 64, 73
2,186389, Note_on_c, 0, 69, 0
2,186413, Note_on_c, 0, 66, 0
2,186426, Control_c, 0, 64, 72
2,186445, Control_c, 0, 64, 72
2,186486, Control_c, 0, 64, 71
2,186544, Control_c, 0, 64, 70
2,186563, Control_c, 0, 64, 66
2,186570, Note_on_c, 0, 69, 67
2,186583, Control_c, 0, 64, 62
2,186587, Note_on_c, 0, 51, 36
2,186592, Note_on_c, 0, 60, 52
2,186601, Control_c, 0, 64, 57
2,186620, Control_c, 0, 64, 52
2,186620, Note_on_c, 0, 49, 0
2,186640, Control_c, 0, 64, 46
2,186658, Control_c, 0, 64, 40
2,186678, Control_c, 0, 64, 37
2,186697, Control_c, 0, 64, 36
2,186717, Control_c, 0, 64, 35
2,186735, Control_c, 0, 64, 34
2,186755, Control_c, 0, 64, 34
2,186774, Control_c, 0, 64, 33
2,186816, Note_on_c, 0, 66, 68
2,186826, Note_on_c, 0, 51, 0
2,186827, Note_on_c, 0, 48, 38
2,186851, Control_c, 0, 64, 32
2,186889, Control_c, 0, 64, 32
2,186966, Control_c, 0, 64, 31
2,187020, Control_c, 0, 64, 31
2,187047, Note_on_c, 0, 48, 0
2,187059, Control_c, 0, 64, 30
2,187076, Note_on_c, 0, 44, 38
2,187083, Note_on_c, 0, 68, 67
2,187085, Note_on_c, 0, 60, 0
2,187089, Note_on_c, 0, 64, 53
2,187112, Note_on_c, 0, 69, 0
2,187115, Note_on_c, 0, 66, 0
2,187308, Note_on_c, 0, 46, 45
2,187327, Note_on_c, 0, 44, 0
2,187502, Control_c, 0, 64, 31
2,187507, Note_on_c, 0, 68, 0
2,187540, Control_c, 0, 64, 31
2,187550, Note_on_c, 0, 46, 0
2,187574, Note_on_c, 0, 66, 55
2,187578, Note_on_c, 0, 48, 34
2,187594, Note_on_c, 0, 64, 0
2,187598, Control_c, 0, 64, 32
2,187604, Note_on_c, 0, 63, 36
2,187617, Control_c, 0, 64, 32
2,187693, Control_c, 0, 64, 33
2,187713, Control_c, 0, 64, 34
2,187732, Control_c, 0, 64, 34
2,187752, Control_c, 0, 64, 35
2,187790, Control_c, 0, 64, 35
2,187809, Control_c, 0, 64, 36
2,187829, Control_c, 0, 64, 37
2,187830, Note_on_c, 0, 44, 37
2,187847, Control_c, 0, 64, 37
2,187867, Control_c, 0, 64, 38
2,187905, Control_c, 0, 64, 38
2,187914, Note_on_c, 0, 48, 0
2,187924, Control_c, 0, 64, 39
2,187944, Control_c, 0, 64, 39
2,187962, Control_c, 0, 64, 40
2,187980, Control_c, 0, 64, 41
2,188019, Control_c, 0, 64, 41
2,188039, Control_c, 0, 64, 42
2,188069, Note_on_c, 0, 49, 51
2,188115, Control_c, 0, 64, 42
2,188134, Control_c, 0, 64, 43
2,188154, Control_c, 0, 64, 44
2,188173, Control_c, 0, 64, 44
2,188224, Note_on_c, 0, 63, 0
2,188231, Note_on_c, 0, 44, 0
2,188269, Control_c, 0, 64, 45
2,188314, Note_on_c, 0, 51, 57
2,188321, Note_on_c, 0, 49, 0
2,188422, Control_c, 0, 64, 45
2,188537, Control_c, 0, 64, 46
2,188546, Note_on_c, 0, 66, 0
2,188574, Note_on_c, 0, 52, 47
2,188574, Note_on_c, 0, 64, 67
2,188576, Control_c, 0, 64, 46
2,188590, Note_on_c, 0, 51, 0
2,188594, Control_c, 0, 64, 47
2,188612, Note_on_c, 0, 61, 41
2,188633, Control_c, 0, 64, 47
2,188652, Control_c, 0, 64, 48
2,188671, Control_c, 0, 64, 48
2,188786, Note_on_c, 0, 61, 0
2,188791, Note_on_c, 0, 64, 0
2,188801, Note_on_c, 0, 63, 71
2,188811, Note_on_c, 0, 60, 54
2,188825, Control_c, 0, 64, 48
2,188863, Control_c, 0, 64, 47
2,188900, Control_c, 0, 64, 47
2,188919, Control_c, 0, 64, 46
2,188938, Control_c, 0, 64, 46
2,188957, Control_c, 0, 64, 45
2,189015, Control_c, 0, 64, 47
2,189026, Note_on_c, 0, 60, 0
2,189034, Control_c, 0, 64, 53
2,189048, Note_on_c, 0, 63, 0
2,189054, Control_c, 0, 64, 59
2,189057, Note_on_c, 0, 64, 63
2,189059, Note_on_c, 0, 61, 49
2,189072, Control_c, 0, 64, 63
2,189092, Control_c, 0, 64, 64
2,189111, Control_c, 0, 64, 65
2,189118, Note_on_c, 0, 61, 0
2,189168, Control_c, 0, 64, 65
2,189206, Control_c, 0, 64, 65
2,189213, Note_on_c, 0, 64, 0
2,189265, Control_c, 0, 64, 64
2,189270, Note_on_c, 0, 66, 71
2,189276, Note_on_c, 0, 51, 44
2,189283, Control_c, 0, 64, 64
2,189293, Note_on_c, 0, 63, 53
2,189303, Control_c, 0, 64, 63
2,189313, Note_on_c, 0, 52, 0
2,189322, Control_c, 0, 64, 63
2,189341, Control_c, 0, 64, 62
2,189361, Control_c, 0, 64, 61
2,189381, Control_c, 0, 64, 60
2,189400, Control_c, 0, 64, 60
2,189419, Control_c, 0, 64, 59
2,189438, Control_c, 0, 64, 58
2,189458, Control_c, 0, 64, 57
2,189476, Control_c, 0, 64, 56
2,189496, Control_c, 0, 64, 55
2,189515, Control_c, 0, 64, 56
2,189524, Note_on_c, 0, 63, 0
2,189543, Note_on_c, 0, 68, 69
2,189549, Note_on_c, 0, 49, 47
2,189549, Note_on_c, 0, 64, 58
2,189554, Note_on_c, 0, 51, 0
2,189557, Note_on_c, 0, 66, 0
2,189573, Control_c, 0, 64, 55
2,189649, Control_c, 0, 64, 55
2,189785, Note_on_c, 0, 49, 0
2,189809, Note_on_c, 0, 47, 44
2,190035, Note_on_c, 0, 47, 0
2,190051, Note_on_c, 0, 46, 51
2,190091, Control_c, 0, 64, 56
2,190109, Control_c, 0, 64, 58
2,190128, Control_c, 0, 64, 59
2,190148, Control_c, 0, 64, 60
2,190166, Control_c, 0, 64, 61
2,190186, Control_c, 0, 64, 62
2,190205, Control_c, 0, 64, 63
2,190225, Control_c, 0, 64, 65
2,190243, Control_c, 0, 64, 66
2,190263, Control_c, 0, 64, 68
2,190282, Control_c, 0, 64, 70
2,190292, Note_on_c, 0, 47, 53
2,190294, Note_on_c, 0, 68, 0
2,190301, Control_c, 0, 64, 72
2,190312, Note_on_c, 0, 46, 0
2,190319, Note_on_c, 0, 64, 0
2,190320, Control_c, 0, 64, 73
2,190436, Control_c, 0, 64, 72
2,190474, Control_c, 0, 64, 72
2,190512, Control_c, 0, 64, 71
2,190532, Control_c, 0, 64, 71
2,190551, Control_c, 0, 64, 69
2,190553, Note_on_c, 0, 47, 0
2,190555, Note_on_c, 0, 68, 76
2,190563, Note_on_c, 0, 49, 50
2,190571, Control_c, 0, 64, 66
2,190571, Note_on_c, 0, 58, 61
2,190589, Control_c, 0, 64, 63
2,190608, Control_c, 0, 64, 58
2,190628, Control_c, 0, 64, 54
2,190646, Control_c, 0, 64, 50
2,190666, Control_c, 0, 64, 47
2,190685, Control_c, 0, 64, 46
2,190805, Note_on_c, 0, 46, 49
2,190806, Note_on_c, 0, 64, 69
2,190823, Note_on_c, 0, 49, 0
2,191011, Note_on_c, 0, 46, 0
2,191013, Note_on_c, 0, 68, 0
2,191041, Note_on_c, 0, 42, 42
2,191045, Note_on_c, 0, 58, 0
2,191054, Note_on_c, 0, 63, 59
2,191060, Note_on_c, 0, 66, 61
2,191066, Note_on_c, 0, 64, 0
2,191223, Control_c, 0, 64, 46
2,191280, Control_c, 0, 64, 47
2,191297, Note_on_c, 0, 42, 0
2,191300, Control_c, 0, 64, 47
2,191312, Note_on_c, 0, 44, 39
2,191319, Control_c, 0, 64, 48
2,191338, Control_c, 0, 64, 49
2,191357, Control_c, 0, 64, 50
2,191377, Control_c, 0, 64, 50
2,191396, Control_c, 0, 64, 51
2,191434, Control_c, 0, 64, 52
2,191550, Note_on_c, 0, 66, 0
2,191557, Note_on_c, 0, 63, 0
2,191564, Note_on_c, 0, 46, 34
2,191567, Note_on_c, 0, 64, 49
2,191568, Control_c, 0, 64, 52
2,191569, Note_on_c, 0, 44, 0
2,191583, Note_on_c, 0, 61, 41
2,191665, Control_c, 0, 64, 53
2,191722, Control_c, 0, 64, 53
2,191773, Note_on_c, 0, 46, 0
2,191780, Control_c, 0, 64, 54
2,191797, Note_on_c, 0, 42, 41
2,191876, Control_c, 0, 64, 54
2,192101, Note_on_c, 0, 47, 40
2,192103, Note_on_c, 0, 61, 0
2,192124, Note_on_c, 0, 64, 0
2,192128, Note_on_c, 0, 42, 0
2,192262, Control_c, 0, 64, 55
2,192336, Note_on_c, 0, 49, 51
2,192424, Note_on_c, 0, 47, 0
2,192596, Note_on_c, 0, 51, 38
2,192608, Note_on_c, 0, 63, 56
2,192619, Note_on_c, 0, 59, 51
2,192628, Note_on_c, 0, 49, 0
2,192815, Note_on_c, 0, 59, 0
2,192821, Note_on_c, 0, 63, 0
2,192842, Note_on_c, 0, 61, 59
2,192853, Note_on_c, 0, 58, 48
2,192933, Control_c, 0, 64, 54
2,192990, Control_c, 0, 64, 54
2,193041, Note_on_c, 0, 58, 0
2,193047, Control_c, 0, 64, 53
2,193081, Note_on_c, 0, 61, 0
2,193087, Note_on_c, 0, 63, 63
2,193103, Note_on_c, 0, 59, 48
2,193221, Control_c, 0, 64, 53
2,193289, Note_on_c, 0, 59, 0
2,193318, Note_on_c, 0, 51, 0
2,193324, Note_on_c, 0, 49, 42
2,193337, Note_on_c, 0, 64, 62
2,193342, Note_on_c, 0, 61, 22
2,193363, Note_on_c, 0, 63, 0
2,193384, Note_on_c, 0, 61, 0
2,193413, Control_c, 0, 64, 53
2,193432, Control_c, 0, 64, 54
2,193547, Note_on_c, 0, 64, 0
2,193581, Note_on_c, 0, 47, 42
2,193600, Note_on_c, 0, 66, 55
2,193605, Note_on_c, 0, 63, 56
2,193619, Note_on_c, 0, 49, 0
2,193624, Control_c, 0, 64, 55
2,193643, Control_c, 0, 64, 56
2,193662, Control_c, 0, 64, 58
2,193681, Control_c, 0, 64, 60
2,193701, Control_c, 0, 64, 62
2,193720, Control_c, 0, 64, 63
2,193739, Control_c, 0, 64, 64
2,193758, Control_c, 0, 64, 65
2,193778, Control_c, 0, 64, 67
2,193788, Note_on_c, 0, 66, 0
2,193796, Control_c, 0, 64, 70
2,193807, Note_on_c, 0, 47, 0
2,193810, Note_on_c, 0, 63, 0
2,193816, Control_c, 0, 64, 74
2,193834, Note_on_c, 0, 51, 46
2,193835, Control_c, 0, 64, 80
2,193855, Control_c, 0, 64, 83
2,193873, Control_c, 0, 64, 85
2,193879, Note_on_c, 0, 51, 0
2,193930, Control_c, 0, 64, 84
2,193950, Control_c, 0, 64, 84
2,193969, Control_c, 0, 64, 83
2,194007, Control_c, 0, 64, 83
2,194027, Control_c, 0, 64, 82
2,194046, Control_c, 0, 64, 80
2,194066, Control_c, 0, 64, 80
2,194104, Control_c, 0, 64, 79
2,194123, Control_c, 0, 64, 79
2,194142, Control_c, 0, 64, 77
2,194154, Note_on_c, 0, 56, 48
2,194156, Note_on_c, 0, 71, 79
2,194166, Control_c, 0, 64, 72
2,194186, Control_c, 0, 64, 65
2,194204, Control_c, 0, 64, 52
2,194224, Control_c, 0, 64, 28
2,194243, Control_c, 0, 64, 21
2,194301, Control_c, 0, 64, 23
2,194320, Control_c, 0, 64, 31
2,194339, Control_c, 0, 64, 43
2,194358, Control_c, 0, 64, 54
2,194378, Control_c, 0, 64, 59
2,194396, Control_c, 0, 64, 60
2,194416, Control_c, 0, 64, 61
2,194435, Control_c, 0, 64, 62
2,194436, Note_on_c, 0, 68, 50
2,194455, Control_c, 0, 64, 63
2,194463, Note_on_c, 0, 64, 34
2,194476, Control_c, 0, 64, 64
2,194495, Control_c, 0, 64, 65
2,194515, Control_c, 0, 64, 65
2,194553, Control_c, 0, 64, 66
2,194572, Control_c, 0, 64, 66
2,194592, Control_c, 0, 64, 67
2,194610, Control_c, 0, 64, 68
2,194630, Control_c, 0, 64, 69
2,194649, Control_c, 0, 64, 70
2,194660, Note_on_c, 0, 64, 0
2,194666, Control_c, 0, 64, 72
2,194681, Note_on_c, 0, 68, 0
2,194684, Control_c, 0, 64, 72
2,194693, Note_on_c, 0, 66, 45
2,194715, Note_on_c, 0, 63, 29
2,194722, Control_c, 0, 64, 73
2,194741, Control_c, 0, 64, 73
2,194760, Control_c, 0, 64, 74
2,194779, Control_c, 0, 64, 76
2,194816, Note_on_c, 0, 63, 0
2,194837, Control_c, 0, 64, 76
2,194872, Note_on_c, 0, 71, 0
2,194882, Note_on_c, 0, 66, 0
2,194929, Note_on_c, 0, 64, 49
2,194938, Note_on_c, 0, 61, 40
2,194953, Control_c, 0, 64, 77
2,194993, Note_on_c, 0, 64, 0
2,195010, Control_c, 0, 64, 76
2,195029, Note_on_c, 0, 61, 0
2,195071, Note_on_c, 0, 56, 0
2,195087, Control_c, 0, 64, 77
2,195106, Control_c, 0, 64, 77
2,195123, Control_c, 0, 64, 76
2,195143, Control_c, 0, 64, 69
2,195161, Note_on_c, 0, 75, 79
2,195162, Control_c, 0, 64, 60
2,195178, Note_on_c, 0, 63, 62
2,195180, Control_c, 0, 64, 48
2,195187, Note_on_c, 0, 59, 36
2,195200, Control_c, 0, 64, 50
2,195219, Control_c, 0, 64, 55
2,195239, Control_c, 0, 64, 61
2,195244, Note_on_c, 0, 59, 0
2,195257, Control_c, 0, 64, 66
2,195277, Control_c, 0, 64, 70
2,195296, Control_c, 0, 64, 73
2,195373, Control_c, 0, 64, 73
2,195425, Note_on_c, 0, 61, 47
2,195431, Control_c, 0, 64, 73
2,195460, Note_on_c, 0, 58, 22
2,195469, Control_c, 0, 64, 73
2,195517, Note_on_c, 0, 58, 0
2,195547, Note_on_c, 0, 63, 0
2,195548, Note_on_c, 0, 61, 0
2,195603, Control_c, 0, 64, 73
2,195671, Note_on_c, 0, 59, 56
2,195677, Note_on_c, 0, 56, 37
2,195692, Note_on_c, 0, 71, 64
2,195826, Note_on_c, 0, 56, 0
2,195852, Control_c, 0, 64, 72
2,195871, Control_c, 0, 64, 72
2,195884, Note_on_c, 0, 59, 0
2,195918, Note_on_c, 0, 57, 44
2,195929, Note_on_c, 0, 54, 40
2,195948, Control_c, 0, 64, 71
2,196025, Control_c, 0, 64, 71
2,196044, Control_c, 0, 64, 70
2,196100, Control_c, 0, 64, 69
2,196100, Note_on_c, 0, 54, 0
2,196120, Control_c, 0, 64, 68
2,196138, Control_c, 0, 64, 68
2,196191, Note_on_c, 0, 57, 0
2,196193, Note_on_c, 0, 80, 85
2,196197, Control_c, 0, 64, 66
2,196200, Note_on_c, 0, 52, 41
2,196214, Note_on_c, 0, 56, 46
2,196215, Control_c, 0, 64, 63
2,196228, Note_on_c, 0, 71, 0
2,196235, Control_c, 0, 64, 57
2,196248, Note_on_c, 0, 75, 0
2,196254, Control_c, 0, 64, 44
2,196274, Control_c, 0, 64, 32
2,196292, Control_c, 0, 64, 25
2,196312, Control_c, 0, 64, 19
2,196331, Control_c, 0, 64, 11
2,196408, Control_c, 0, 64, 13
2,196455, Note_on_c, 0, 59, 55
2,196466, Control_c, 0, 64, 15
2,196504, Control_c, 0, 64, 17
2,196523, Control_c, 0, 64, 18
2,196542, Control_c, 0, 64, 19
2,196561, Control_c, 0, 64, 21
2,196600, Control_c, 0, 64, 23
2,196618, Control_c, 0, 64, 25
2,196638, Control_c, 0, 64, 27
2,196657, Control_c, 0, 64, 27
2,196695, Control_c, 0, 64, 28
2,196709, Note_on_c, 0, 68, 58
2,196715, Control_c, 0, 64, 29
2,196715, Note_on_c, 0, 64, 55
2,196720, Note_on_c, 0, 59, 0
2,196731, Note_on_c, 0, 56, 0
2,196734, Control_c, 0, 64, 32
2,196754, Control_c, 0, 64, 34
2,196772, Control_c, 0, 64, 36
2,196792, Control_c, 0, 64, 39
2,196811, Control_c, 0, 64, 43
2,196830, Control_c, 0, 64, 50
2,196849, Control_c, 0, 64, 57
2,196869, Control_c, 0, 64, 59
2,196888, Control_c, 0, 64, 60
2,196907, Control_c, 0, 64, 61
2,196926, Control_c, 0, 64, 62
2,196946, Control_c, 0, 64, 63
2,196964, Control_c, 0, 64, 64
2,196973, Note_on_c, 0, 63, 55
2,196984, Control_c, 0, 64, 65
2,197003, Control_c, 0, 64, 66
2,197042, Control_c, 0, 64, 66
2,197054, Note_on_c, 0, 64, 0
2,197215, Control_c, 0, 64, 66
2,197234, Control_c, 0, 64, 64
2,197238, Note_on_c, 0, 76, 80
2,197241, Note_on_c, 0, 63, 0
2,197253, Control_c, 0, 64, 62
2,197260, Note_on_c, 0, 61, 49
2,197273, Control_c, 0, 64, 55
2,197292, Control_c, 0, 64, 46
2,197311, Control_c, 0, 64, 39
2,197330, Control_c, 0, 64, 35
2,197350, Control_c, 0, 64, 34
2,197350, Note_on_c, 0, 68, 0
2,197369, Control_c, 0, 64, 35
2,197388, Control_c, 0, 64, 41
2,197393, Note_on_c, 0, 80, 0
2,197407, Control_c, 0, 64, 51
2,197427, Control_c, 0, 64, 59
2,197445, Control_c, 0, 64, 61
2,197484, Control_c, 0, 64, 62
2,197497, Note_on_c, 0, 63, 60
2,197504, Control_c, 0, 64, 63
2,197504, Note_on_c, 0, 61, 0
2,197522, Control_c, 0, 64, 65
2,197540, Control_c, 0, 64, 66
2,197560, Control_c, 0, 64, 67
2,197617, Control_c, 0, 64, 68
2,197714, Control_c, 0, 64, 67
2,197732, Control_c, 0, 64, 66
2,197742, Note_on_c, 0, 64, 63
2,197751, Note_on_c, 0, 73, 62
2,197752, Control_c, 0, 64, 65
2,197771, Control_c, 0, 64, 63
2,197777, Note_on_c, 0, 63, 0
2,197790, Control_c, 0, 64, 62
2,197809, Control_c, 0, 64, 62
2,197829, Control_c, 0, 64, 63
2,197848, Control_c, 0, 64, 65
2,197867, Control_c, 0, 64, 66
2,197886, Control_c, 0, 64, 67
2,197906, Control_c, 0, 64, 68
2,197910, Note_on_c, 0, 73, 0
2,197924, Control_c, 0, 64, 69
2,197944, Control_c, 0, 64, 70
2,197963, Control_c, 0, 64, 73
2,197982, Control_c, 0, 64, 75
2,197999, Note_on_c, 0, 61, 70
2,198003, Control_c, 0, 64, 76
2,198022, Control_c, 0, 64, 76
2,198042, Control_c, 0, 64, 77
2,198234, Control_c, 0, 64, 77
2,198253, Control_c, 0, 64, 74
2,198262, Note_on_c, 0, 73, 85
2,198272, Control_c, 0, 64, 65
2,198273, Note_on_c, 0, 66, 62
2,198274, Note_on_c, 0, 76, 0
2,198276, Note_on_c, 0, 64, 0
2,198280, Note_on_c, 0, 58, 53
2,198291, Control_c, 0, 64, 38
2,198296, Note_on_c, 0, 61, 0
2,198311, Control_c, 0, 64, 0
2,198406, Control_c, 0, 64, 21
2,198426, Control_c, 0, 64, 40
2,198445, Control_c, 0, 64, 51
2,198464, Control_c, 0, 64, 56
2,198483, Control_c, 0, 64, 59
2,198502, Control_c, 0, 64, 62
2,198522, Control_c, 0, 64, 62
2,198524, Note_on_c, 0, 59, 56
2,198524, Note_on_c, 0, 68, 61
2,198531, Note_on_c, 0, 58, 0
2,198560, Control_c, 0, 64, 63
2,198566, Note_on_c, 0, 66, 0
2,198579, Control_c, 0, 64, 64
2,198599, Control_c, 0, 64, 65
2,198675, Control_c, 0, 64, 66
2,198694, Control_c, 0, 64, 67
2,198714, Control_c, 0, 64, 68
2,198748, Note_on_c, 0, 59, 0
2,198752, Control_c, 0, 64, 68
2,198771, Control_c, 0, 64, 70
2,198774, Note_on_c, 0, 61, 50
2,198786, Note_on_c, 0, 70, 68
2,198791, Control_c, 0, 64, 74
2,198802, Note_on_c, 0, 68, 0
2,198809, Control_c, 0, 64, 79
2,198829, Control_c, 0, 64, 84
2,198848, Control_c, 0, 64, 85
2,198868, Control_c, 0, 64, 86
2,198886, Control_c, 0, 64, 87
2,198906, Control_c, 0, 64, 88
2,198925, Control_c, 0, 64, 90
2,198944, Control_c, 0, 64, 92
2,198956, Note_on_c, 0, 70, 0
2,198962, Control_c, 0, 64, 93
2,198968, Note_on_c, 0, 61, 0
2,198981, Control_c, 0, 64, 93
2,199001, Control_c, 0, 64, 94
2,199019, Control_c, 0, 64, 95
2,199027, Note_on_c, 0, 66, 50
2,199031, Note_on_c, 0, 58, 41
2,199039, Control_c, 0, 64, 97
2,199058, Control_c, 0, 64, 100
2,199071, Note_on_c, 0, 66, 0
2,199074, Note_on_c, 0, 52, 0
2,199078, Control_c, 0, 64, 101
2,199101, Note_on_c, 0, 73, 0
2,199154, Control_c, 0, 64, 100
2,199173, Control_c, 0, 64, 100
2,199193, Control_c, 0, 64, 99
2,199212, Control_c, 0, 64, 97
2,199231, Control_c, 0, 64, 96
2,199250, Control_c, 0, 64, 93
2,199270, Control_c, 0, 64, 85
2,199277, Note_on_c, 0, 82, 93
2,199289, Control_c, 0, 64, 71
2,199290, Note_on_c, 0, 73, 66
2,199296, Note_on_c, 0, 54, 54
2,199308, Control_c, 0, 64, 60
2,199327, Control_c, 0, 64, 43
2,199347, Control_c, 0, 64, 39
2,199365, Control_c, 0, 64, 36
2,199368, Note_on_c, 0, 58, 0
2,199385, Control_c, 0, 64, 34
2,199424, Control_c, 0, 64, 35
2,199442, Control_c, 0, 64, 45
2,199461, Control_c, 0, 64, 56
2,199462, Note_on_c, 0, 73, 0
2,199481, Control_c, 0, 64, 58
2,199499, Control_c, 0, 64, 59
2,199519, Control_c, 0, 64, 60
2,199538, Control_c, 0, 64, 62
2,199558, Control_c, 0, 64, 65
2,199561, Note_on_c, 0, 76, 67
2,199566, Note_on_c, 0, 56, 43
2,199571, Note_on_c, 0, 54, 0
2,199576, Control_c, 0, 64, 67
2,199596, Control_c, 0, 64, 68
2,199615, Control_c, 0, 64, 69
2,199634, Control_c, 0, 64, 72
2,199653, Control_c, 0, 64, 75
2,199673, Control_c, 0, 64, 78
2,199692, Control_c, 0, 64, 81
2,199711, Control_c, 0, 64, 83
2,199730, Control_c, 0, 64, 83
2,199750, Control_c, 0, 64, 84
2,199769, Control_c, 0, 64, 86
2,199788, Control_c, 0, 64, 88
2,199807, Control_c, 0, 64, 89
2,199807, Note_on_c, 0, 75, 85
2,199812, Note_on_c, 0, 56, 0
2,199813, Note_on_c, 0, 54, 42
2,199827, Control_c, 0, 64, 90
2,199828, Note_on_c, 0, 76, 0
2,199839, Note_on_c, 0, 58, 39
2,199845, Control_c, 0, 64, 91
2,199865, Control_c, 0, 64, 91
2,199884, Control_c, 0, 64, 93
2,199904, Control_c, 0, 64, 95
2,199922, Control_c, 0, 64, 96
2,199941, Control_c, 0, 64, 98
2,199961, Control_c, 0, 64, 101
2,199979, Control_c, 0, 64, 104
2,199999, Control_c, 0, 64, 108
2,200018, Control_c, 0, 64, 117
2,200038, Control_c, 0, 64, 127
2,200054, Note_on_c, 0, 75, 0
2,200060, Note_on_c, 0, 82, 0
2,200065, Note_on_c, 0, 73, 74
2,200067, Note_on_c, 0, 52, 40
2,200106, Note_on_c, 0, 52, 0
2,200120, Note_on_c, 0, 54, 0
2,200209, Note_on_c, 0, 73, 0
2,200345, Control_c, 0, 64, 100
2,200353, Note_on_c, 0, 51, 54
2,200361, Note_on_c, 0, 83, 91
2,200364, Control_c, 0, 64, 73
2,200384, Control_c, 0, 64, 51
2,200384, Note_on_c, 0, 78, 69
2,200402, Control_c, 0, 64, 0
2,200471, Note_on_c, 0, 58, 0
2,200492, Control_c, 0, 64, 17
2,200512, Control_c, 0, 64, 29
2,200531, Control_c, 0, 64, 45
2,200550, Control_c, 0, 64, 58
2,200569, Control_c, 0, 64, 63
2,200589, Control_c, 0, 64, 63
2,200608, Control_c, 0, 64, 64
2,200627, Control_c, 0, 64, 64
2,200635, Note_on_c, 0, 54, 40
2,200646, Control_c, 0, 64, 66
2,200654, Note_on_c, 0, 76, 67
2,200666, Control_c, 0, 64, 70
2,200672, Note_on_c, 0, 78, 0
2,200684, Control_c, 0, 64, 75
2,200704, Control_c, 0, 64, 81
2,200723, Control_c, 0, 64, 84
2,200742, Control_c, 0, 64, 86
2,200761, Control_c, 0, 64, 87
2,200780, Control_c, 0, 64, 89
2,200800, Control_c, 0, 64, 90
2,200818, Control_c, 0, 64, 90
2,200850, Note_on_c, 0, 54, 0
2,200857, Control_c, 0, 64, 91
2,200896, Note_on_c, 0, 59, 62
2,200896, Note_on_c, 0, 75, 77
2,200898, Note_on_c, 0, 76, 0
2,200999, Control_c, 0, 64, 90
2,201056, Control_c, 0, 64, 90
2,201111, Note_on_c, 0, 59, 0
2,201130, Note_on_c, 0, 78, 84
2,201132, Note_on_c, 0, 58, 51
2,201133, Control_c, 0, 64, 89
2,201141, Note_on_c, 0, 75, 0
2,201152, Control_c, 0, 64, 89
2,201191, Control_c, 0, 64, 88
2,201209, Control_c, 0, 64, 88
2,201217, Note_on_c, 0, 58, 0
2,201229, Control_c, 0, 64, 87
2,201248, Control_c, 0, 64, 86
2,201268, Control_c, 0, 64, 85
2,201286, Control_c, 0, 64, 84
2,201306, Control_c, 0, 64, 83
2,201343, Control_c, 0, 64, 83
2,201363, Control_c, 0, 64, 82
2,201370, Note_on_c, 0, 56, 57
2,201382, Control_c, 0, 64, 80
2,201392, Note_on_c, 0, 76, 76
2,201401, Control_c, 0, 64, 76
2,201401, Note_on_c, 0, 71, 61
2,201403, Note_on_c, 0, 51, 0
2,201419, Control_c, 0, 64, 74
2,201427, Note_on_c, 0, 78, 0
2,201439, Control_c, 0, 64, 72
2,201458, Control_c, 0, 64, 71
2,201478, Control_c, 0, 64, 69
2,201496, Control_c, 0, 64, 68
2,201516, Control_c, 0, 64, 67
2,201535, Control_c, 0, 64, 65
2,201554, Control_c, 0, 64, 64
2,201573, Control_c, 0, 64, 63
2,201586, Note_on_c, 0, 83, 0
2,201612, Control_c, 0, 64, 62
2,201630, Note_on_c, 0, 49, 61
2,201631, Control_c, 0, 64, 61
2,201650, Control_c, 0, 64, 60
2,201670, Control_c, 0, 64, 59
2,201689, Control_c, 0, 64, 58
2,201708, Control_c, 0, 64, 57
2,201727, Control_c, 0, 64, 55
2,201747, Control_c, 0, 64, 53
2,201765, Control_c, 0, 64, 51
2,201785, Control_c, 0, 64, 50
2,201843, Control_c, 0, 64, 50
2,201862, Control_c, 0, 64, 49
2,201883, Note_on_c, 0, 47, 58
2,201906, Note_on_c, 0, 49, 0
2,201920, Control_c, 0, 64, 49
2,201977, Control_c, 0, 64, 49
2,202119, Note_on_c, 0, 47, 0
2,202132, Note_on_c, 0, 51, 57
2,202151, Control_c, 0, 64, 50
2,202169, Control_c, 0, 64, 50
2,202208, Control_c, 0, 64, 51
2,202285, Control_c, 0, 64, 51
2,202341, Control_c, 0, 64, 52
2,202361, Control_c, 0, 64, 52
2,202379, Control_c, 0, 64, 53
2,202399, Control_c, 0, 64, 53
2,202412, Note_on_c, 0, 49, 51
2,202454, Note_on_c, 0, 51, 0
2,202476, Control_c, 0, 64, 54
2,202495, Control_c, 0, 64, 55
2,202514, Control_c, 0, 64, 55
2,202533, Control_c, 0, 64, 56
2,202572, Control_c, 0, 64, 57
2,202591, Control_c, 0, 64, 57
2,202610, Control_c, 0, 64, 58
2,202649, Control_c, 0, 64, 59
2,202653, Note_on_c, 0, 71, 0
2,202665, Note_on_c, 0, 54, 50
2,202668, Control_c, 0, 64, 59
2,202680, Note_on_c, 0, 70, 54
2,202707, Control_c, 0, 64, 60
2,202745, Control_c, 0, 64, 60
2,202780, Note_on_c, 0, 56, 0
2,202783, Control_c, 0, 64, 61
2,202922, Note_on_c, 0, 52, 41
2,202939, Note_on_c, 0, 68, 56
2,202943, Note_on_c, 0, 54, 0
2,202959, Note_on_c, 0, 70, 0
2,203071, Control_c, 0, 64, 60
2,203110, Control_c, 0, 64, 60
2,203129, Control_c, 0, 64, 59
2,203148, Control_c, 0, 64, 59
2,203174, Note_on_c, 0, 56, 60
2,203175, Note_on_c, 0, 71, 61
2,203225, Control_c, 0, 64, 58
2,203230, Note_on_c, 0, 68, 0
2,203244, Control_c, 0, 64, 58
2,203252, Note_on_c, 0, 52, 0
2,203282, Control_c, 0, 64, 57
2,203430, Note_on_c, 0, 70, 71
2,203436, Note_on_c, 0, 71, 0
2,203437, Note_on_c, 0, 61, 58
2,203475, Note_on_c, 0, 56, 0
2,203532, Control_c, 0, 64, 57
2,203647, Control_c, 0, 64, 56
2,203674, Note_on_c, 0, 71, 73
2,203682, Note_on_c, 0, 51, 51
2,203699, Note_on_c, 0, 70, 0
2,203705, Control_c, 0, 64, 56
2,203724, Control_c, 0, 64, 55
2,203743, Control_c, 0, 64, 55
2,203762, Control_c, 0, 64, 54
2,203781, Control_c, 0, 64, 53
2,203801, Control_c, 0, 64, 52
2,203805, Note_on_c, 0, 49, 0
2,203819, Control_c, 0, 64, 49
2,203839, Control_c, 0, 64, 46
2,203858, Control_c, 0, 64, 42
2,203878, Control_c, 0, 64, 36
2,203896, Control_c, 0, 64, 21
2,203916, Control_c, 0, 64, 0
2,203939, Note_on_c, 0, 73, 72
2,203941, Note_on_c, 0, 51, 0
2,203948, Note_on_c, 0, 52, 52
2,203958, Note_on_c, 0, 71, 0
2,204089, Control_c, 0, 64, 39
2,204108, Control_c, 0, 64, 59
2,204127, Control_c, 0, 64, 64
2,204147, Control_c, 0, 64, 65
2,204162, Note_on_c, 0, 49, 53
2,204164, Note_on_c, 0, 52, 0
2,204165, Control_c, 0, 64, 66
2,204182, Note_on_c, 0, 70, 70
2,204185, Control_c, 0, 64, 68
2,204191, Note_on_c, 0, 73, 0
2,204204, Control_c, 0, 64, 73
2,204223, Control_c, 0, 64, 80
2,204242, Control_c, 0, 64, 86
2,204243, Note_on_c, 0, 49, 0
2,204261, Control_c, 0, 64, 88
2,204376, Control_c, 0, 64, 87
2,204396, Control_c, 0, 64, 85
2,204415, Control_c, 0, 64, 83
2,204434, Control_c, 0, 64, 81
2,204453, Control_c, 0, 64, 81
2,204461, Note_on_c, 0, 58, 47
2,204463, Note_on_c, 0, 70, 0
2,204470, Control_c, 0, 64, 77
2,204475, Note_on_c, 0, 66, 63
2,204489, Control_c, 0, 64, 69
2,204508, Control_c, 0, 64, 62
2,204527, Control_c, 0, 64, 55
2,204547, Control_c, 0, 64, 53
2,204566, Control_c, 0, 64, 51
2,204585, Control_c, 0, 64, 48
2,204604, Control_c, 0, 64, 46
2,204624, Control_c, 0, 64, 45
2,204662, Control_c, 0, 64, 46
2,204701, Control_c, 0, 64, 46
2,204716, Note_on_c, 0, 61, 0
2,204719, Note_on_c, 0, 76, 0
2,204744, Note_on_c, 0, 75, 67
2,204754, Note_on_c, 0, 59, 50
2,204758, Control_c, 0, 64, 47
2,204796, Control_c, 0, 64, 47
2,204816, Control_c, 0, 64, 48
2,204835, Control_c, 0, 64, 49
2,204994, Note_on_c, 0, 76, 63
2,205011, Note_on_c, 0, 61, 51
2,205017, Note_on_c, 0, 59, 0
2,205021, Note_on_c, 0, 75, 0
2,205199, Control_c, 0, 64, 48
2,205217, Control_c, 0, 64, 48
2,205238, Note_on_c, 0, 75, 77
2,205240, Note_on_c, 0, 61, 0
2,205244, Note_on_c, 0, 59, 50
2,205246, Note_on_c, 0, 76, 0
2,205257, Control_c, 0, 64, 47
2,205275, Control_c, 0, 64, 47
2,205295, Control_c, 0, 64, 46
2,205314, Control_c, 0, 64, 45
2,205332, Control_c, 0, 64, 44
2,205352, Control_c, 0, 64, 43
2,205371, Control_c, 0, 64, 42
2,205391, Control_c, 0, 64, 41
2,205409, Control_c, 0, 64, 40
2,205429, Control_c, 0, 64, 39
2,205448, Control_c, 0, 64, 38
2,205467, Control_c, 0, 64, 37
2,205486, Control_c, 0, 64, 35
2,205495, Note_on_c, 0, 76, 65
2,205497, Note_on_c, 0, 75, 0
2,205506, Control_c, 0, 64, 34
2,205511, Note_on_c, 0, 61, 50
2,205515, Note_on_c, 0, 59, 0
2,205525, Control_c, 0, 64, 31
2,205544, Control_c, 0, 64, 31
2,205563, Control_c, 0, 64, 30
2,205583, Control_c, 0, 64, 29
2,205601, Control_c, 0, 64, 28
2,205702, Control_c, 0, 64, 30
2,205721, Control_c, 0, 64, 35
2,205732, Note_on_c, 0, 58, 0
2,205740, Control_c, 0, 64, 45
2,205742, Note_on_c, 0, 56, 55
2,205751, Note_on_c, 0, 66, 0
2,205759, Control_c, 0, 64, 54
2,205779, Control_c, 0, 64, 57
2,205797, Control_c, 0, 64, 57
2,205817, Control_c, 0, 64, 59
2,205836, Control_c, 0, 64, 59
2,205874, Control_c, 0, 64, 60
2,205894, Control_c, 0, 64, 61
2,205913, Control_c, 0, 64, 61
2,205931, Note_on_c, 0, 76, 0
2,205951, Control_c, 0, 64, 62
2,206008, Note_on_c, 0, 54, 62
2,206010, Note_on_c, 0, 56, 0
2,206047, Control_c, 0, 64, 61
2,206066, Control_c, 0, 64, 59
2,206085, Control_c, 0, 64, 55
2,206105, Control_c, 0, 64, 52
2,206122, Note_on_c, 0, 61, 0
2,206124, Control_c, 0, 64, 51
2,206162, Control_c, 0, 64, 53
2,206180, Control_c, 0, 64, 56
2,206198, Control_c, 0, 64, 59
2,206217, Control_c, 0, 64, 62
2,206229, Note_on_c, 0, 54, 0
2,206236, Control_c, 0, 64, 64
2,206250, Note_on_c, 0, 56, 63
2,206256, Control_c, 0, 64, 65
2,206275, Control_c, 0, 64, 66
2,206294, Control_c, 0, 64, 67
2,206313, Control_c, 0, 64, 68
2,206332, Control_c, 0, 64, 70
2,206351, Control_c, 0, 64, 71
2,206447, Control_c, 0, 64, 71
2,206467, Control_c, 0, 64, 70
2,206486, Control_c, 0, 64, 69
2,206501, Note_on_c, 0, 56, 0
2,206505, Control_c, 0, 64, 69
2,206524, Control_c, 0, 64, 67
2,206535, Note_on_c, 0, 75, 66
2,206544, Control_c, 0, 64, 66
2,206544, Note_on_c, 0, 57, 52
2,206553, Note_on_c, 0, 66, 42
2,206556, Note_on_c, 0, 71, 55
2,206562, Control_c, 0, 64, 64
2,206582, Control_c, 0, 64, 61
2,206601, Control_c, 0, 64, 56
2,206621, Control_c, 0, 64, 50
2,206639, Control_c, 0, 64, 43
2,206659, Control_c, 0, 64, 38
2,206678, Control_c, 0, 64, 37
2,206716, Control_c, 0, 64, 38
2,206795, Note_on_c, 0, 73, 72
2,206799, Note_on_c, 0, 66, 0
2,206802, Note_on_c, 0, 64, 49
2,206808, Note_on_c, 0, 75, 0
2,206812, Control_c, 0, 64, 38
2,207041, Note_on_c, 0, 64, 0
2,207045, Note_on_c, 0, 75, 73
2,207048, Note_on_c, 0, 66, 52
2,207058, Note_on_c, 0, 73, 0
2,207062, Control_c, 0, 64, 39
2,207101, Control_c, 0, 64, 39
2,207119, Control_c, 0, 64, 40
2,207139, Control_c, 0, 64, 41
2,207158, Control_c, 0, 64, 42
2,207177, Control_c, 0, 64, 42
2,207196, Control_c, 0, 64, 43
2,207216, Control_c, 0, 64, 44
2,207235, Control_c, 0, 64, 45
2,207254, Control_c, 0, 64, 47
2,207273, Control_c, 0, 64, 48
2,207281, Note_on_c, 0, 66, 0
2,207292, Control_c, 0, 64, 49
2,207295, Note_on_c, 0, 73, 71
2,207306, Note_on_c, 0, 75, 0
2,207311, Control_c, 0, 64, 50
2,207311, Note_on_c, 0, 64, 54
2,207330, Control_c, 0, 64, 51
2,207446, Control_c, 0, 64, 51
2,207465, Control_c, 0, 64, 49
2,207484, Control_c, 0, 64, 49
2,207503, Note_on_c, 0, 64, 0
2,207556, Note_on_c, 0, 75, 62
2,207561, Control_c, 0, 64, 49
2,207562, Note_on_c, 0, 73, 0
2,207563, Note_on_c, 0, 66, 52
2,207581, Control_c, 0, 64, 50
2,207600, Control_c, 0, 64, 53
2,207620, Control_c, 0, 64, 56
2,207639, Control_c, 0, 64, 57
2,207658, Control_c, 0, 64, 59
2,207677, Control_c, 0, 64, 60
2,207697, Control_c, 0, 64, 61
2,207716, Control_c, 0, 64, 63
2,207735, Control_c, 0, 64, 64
2,207765, Note_on_c, 0, 57, 0
2,207798, Note_on_c, 0, 56, 53
2,207804, Note_on_c, 0, 71, 0
2,207850, Control_c, 0, 64, 63
2,207869, Control_c, 0, 64, 63
2,207926, Control_c, 0, 64, 62
2,207946, Control_c, 0, 64, 62
2,207954, Note_on_c, 0, 75, 0
2,207965, Control_c, 0, 64, 61
2,207985, Control_c, 0, 64, 61
2,208003, Control_c, 0, 64, 60
2,208016, Note_on_c, 0, 66, 0
2,208023, Control_c, 0, 64, 59
2,208042, Control_c, 0, 64, 59
2,208061, Control_c, 0, 64, 58
2,208061, Note_on_c, 0, 56, 0
2,208069, Note_on_c, 0, 54, 54
2,208080, Control_c, 0, 64, 57
2,208100, Control_c, 0, 64, 56
2,208138, Control_c, 0, 64, 55
2,208157, Control_c, 0, 64, 53
2,208177, Control_c, 0, 64, 52
2,208215, Control_c, 0, 64, 52
2,208234, Control_c, 0, 64, 51
2,208272, Control_c, 0, 64, 51
2,208330, Note_on_c, 0, 57, 64
2,208349, Control_c, 0, 64, 50
2,208368, Note_on_c, 0, 54, 0
2,208483, Control_c, 0, 64, 51
2,208560, Control_c, 0, 64, 51
2,208607, Note_on_c, 0, 56, 63
2,208630, Note_on_c, 0, 57, 0
2,208676, Control_c, 0, 64, 52
2,208714, Control_c, 0, 64, 52
2,208771, Control_c, 0, 64, 53
2,208863, Note_on_c, 0, 65, 54
2,208886, Control_c, 0, 64, 53
2,208925, Control_c, 0, 64, 54
2,209021, Control_c, 0, 64, 54
2,209122, Note_on_c, 0, 74, 64
2,209135, Note_on_c, 0, 59, 57
2,209147, Note_on_c, 0, 65, 0
2,209156, Control_c, 0, 64, 55
2,209328, Control_c, 0, 64, 55
2,209365, Note_on_c, 0, 73, 75
2,209366, Control_c, 0, 64, 56
2,209397, Note_on_c, 0, 74, 0
2,209405, Control_c, 0, 64, 56
2,209425, Control_c, 0, 64, 57
2,209443, Control_c, 0, 64, 57
2,209482, Control_c, 0, 64, 58
2,209501, Control_c, 0, 64, 58
2,209617, Control_c, 0, 64, 58
2,209631, Note_on_c, 0, 71, 67
2,209637, Note_on_c, 0, 62, 72
2,209655, Control_c, 0, 64, 57
2,209664, Note_on_c, 0, 73, 0
2,209693, Control_c, 0, 64, 57
2,209751, Control_c, 0, 64, 56
2,209846, Control_c, 0, 64, 57
2,209866, Control_c, 0, 64, 58
2,209885, Control_c, 0, 64, 59
2,209888, Note_on_c, 0, 73, 74
2,209905, Control_c, 0, 64, 59
2,209923, Control_c, 0, 64, 61
2,209923, Note_on_c, 0, 71, 0
2,209943, Control_c, 0, 64, 62
2,209962, Control_c, 0, 64, 62
2,209981, Control_c, 0, 64, 63
2,209981, Note_on_c, 0, 59, 0
2,210020, Control_c, 0, 64, 63
2,210040, Control_c, 0, 64, 64
2,210059, Control_c, 0, 64, 64
2,210119, Note_on_c, 0, 74, 62
2,210136, Control_c, 0, 64, 65
2,210139, Note_on_c, 0, 73, 0
2,210145, Note_on_c, 0, 65, 46
2,210212, Control_c, 0, 64, 65
2,210382, Note_on_c, 0, 71, 69
2,210404, Control_c, 0, 64, 65
2,210456, Note_on_c, 0, 74, 0
2,210481, Control_c, 0, 64, 64
2,210558, Control_c, 0, 64, 64
2,210649, Note_on_c, 0, 68, 62
2,210650, Note_on_c, 0, 59, 48
2,210652, Note_on_c, 0, 71, 0
2,210731, Control_c, 0, 64, 63
2,210750, Control_c, 0, 64, 62
2,210769, Control_c, 0, 64, 61
2,210784, Note_on_c, 0, 56, 0
2,210789, Control_c, 0, 64, 61
2,210807, Control_c, 0, 64, 60
2,210827, Control_c, 0, 64, 57
2,210846, Control_c, 0, 64, 55
2,210866, Control_c, 0, 64, 54
2,210911, Note_on_c, 0, 69, 59
2,210920, Note_on_c, 0, 68, 0
2,210961, Control_c, 0, 64, 55
2,210981, Control_c, 0, 64, 55
2,210998, Control_c, 0, 64, 57
2,211017, Control_c, 0, 64, 58
2,211036, Control_c, 0, 64, 59
2,211056, Control_c, 0, 64, 59
2,211075, Control_c, 0, 64, 60
2,211093, Control_c, 0, 64, 61
2,211113, Control_c, 0, 64, 62
2,211132, Control_c, 0, 64, 63
2,211142, Note_on_c, 0, 71, 61
2,211151, Control_c, 0, 64, 63
2,211158, Note_on_c, 0, 69, 0
2,211209, Control_c, 0, 64, 64
2,211246, Note_on_c, 0, 65, 0
2,211268, Note_on_c, 0, 62, 0
2,211400, Note_on_c, 0, 59, 0
2,211403, Note_on_c, 0, 68, 62
2,211416, Note_on_c, 0, 71, 0
2,211438, Control_c, 0, 64, 63
2,211497, Control_c, 0, 64, 63
2,211592, Control_c, 0, 64, 62
2,211611, Control_c, 0, 64, 62
2,211646, Note_on_c, 0, 68, 0
2,211669, Control_c, 0, 64, 61
2,211673, Note_on_c, 0, 65, 51
2,211688, Control_c, 0, 64, 61
2,211726, Control_c, 0, 64, 60
2,211765, Control_c, 0, 64, 59
2,211803, Control_c, 0, 64, 59
2,211861, Control_c, 0, 64, 58
2,211873, Note_on_c, 0, 65, 0
2,211880, Control_c, 0, 64, 58
2,211916, Note_on_c, 0, 74, 59
2,211938, Control_c, 0, 64, 57
2,211977, Control_c, 0, 64, 57
2,211995, Control_c, 0, 64, 56
2,212015, Control_c, 0, 64, 56
2,212052, Control_c, 0, 64, 55
2,212091, Control_c, 0, 64, 55
2,212149, Control_c, 0, 64, 55
2,212156, Note_on_c, 0, 53, 34
2,212160, Note_on_c, 0, 73, 62
2,212164, Note_on_c, 0, 61, 45
2,212168, Control_c, 0, 64, 57
2,212170, Note_on_c, 0, 56, 38
2,212179, Note_on_c, 0, 74, 0
2,212187, Control_c, 0, 64, 58
2,212206, Control_c, 0, 64, 59
2,212226, Control_c, 0, 64, 61
2,212245, Control_c, 0, 64, 62
2,212264, Control_c, 0, 64, 64
2,212283, Control_c, 0, 64, 65
2,212303, Control_c, 0, 64, 68
2,212321, Control_c, 0, 64, 71
2,212341, Control_c, 0, 64, 76
2,212360, Control_c, 0, 64, 81
2,212364, Note_on_c, 0, 53, 0
2,212364, Note_on_c, 0, 56, 0
2,212380, Control_c, 0, 64, 85
2,212401, Control_c, 0, 64, 88
2,212421, Control_c, 0, 64, 89
2,212432, Note_on_c, 0, 71, 71
2,212439, Note_on_c, 0, 73, 0
2,212440, Control_c, 0, 64, 89
2,212459, Control_c, 0, 64, 90
2,212505, Note_on_c, 0, 71, 0
2,212593, Control_c, 0, 64, 89
2,212612, Control_c, 0, 64, 87
2,212632, Control_c, 0, 64, 86
2,212651, Control_c, 0, 64, 84
2,212670, Control_c, 0, 64, 82
2,212689, Control_c, 0, 64, 79
2,212709, Control_c, 0, 64, 76
2,212711, Note_on_c, 0, 70, 68
2,212718, Note_on_c, 0, 54, 43
2,212727, Control_c, 0, 64, 74
2,212747, Control_c, 0, 64, 71
2,212766, Control_c, 0, 64, 67
2,212786, Control_c, 0, 64, 63
2,212804, Control_c, 0, 64, 59
2,212827, Control_c, 0, 64, 55
2,212842, Note_on_c, 0, 61, 0
2,212846, Control_c, 0, 64, 52
2,212864, Control_c, 0, 64, 49
2,212884, Control_c, 0, 64, 48
2,212958, Control_c, 0, 64, 48
2,212977, Control_c, 0, 64, 46
2,212984, Note_on_c, 0, 68, 65
2,212987, Note_on_c, 0, 52, 42
2,212997, Control_c, 0, 64, 45
2,213035, Note_on_c, 0, 54, 0
2,213236, Note_on_c, 0, 66, 71
2,213242, Note_on_c, 0, 51, 47
2,213254, Note_on_c, 0, 52, 0
2,213441, Control_c, 0, 64, 46
2,213483, Note_on_c, 0, 64, 79
2,213490, Note_on_c, 0, 49, 53
2,213497, Note_on_c, 0, 51, 0
2,213518, Control_c, 0, 64, 46
2,213520, Note_on_c, 0, 66, 0
2,213535, Note_on_c, 0, 68, 0
2,213766, Note_on_c, 0, 63, 71
2,213776, Note_on_c, 0, 49, 0
2,213778, Note_on_c, 0, 47, 40
2,213814, Note_on_c, 0, 64, 0
2,214005, Note_on_c, 0, 70, 0
2,214012, Note_on_c, 0, 66, 74
2,214027, Note_on_c, 0, 49, 42
2,214058, Note_on_c, 0, 47, 0
2,214171, Control_c, 0, 64, 47
2,214189, Control_c, 0, 64, 47
2,214209, Control_c, 0, 64, 48
2,214228, Control_c, 0, 64, 49
2,214247, Control_c, 0, 64, 49
2,214266, Control_c, 0, 64, 51
2,214286, Control_c, 0, 64, 53
2,214289, Note_on_c, 0, 71, 75
2,214291, Note_on_c, 0, 49, 0
2,214304, Note_on_c, 0, 51, 51
2,214305, Control_c, 0, 64, 54
2,214307, Note_on_c, 0, 66, 0
2,214324, Control_c, 0, 64, 54
2,214363, Control_c, 0, 64, 55
2,214420, Control_c, 0, 64, 54
2,214497, Control_c, 0, 64, 54
2,214548, Note_on_c, 0, 41, 56
2,214549, Note_on_c, 0, 62, 66
2,214571, Note_on_c, 0, 51, 0
2,214579, Note_on_c, 0, 63, 0
2,214592, Control_c, 0, 64, 53
2,214856, Note_on_c, 0, 42, 62
2,214856, Note_on_c, 0, 62, 0
2,214865, Note_on_c, 0, 61, 70
2,214888, Note_on_c, 0, 41, 0
2,214977, Control_c, 0, 64, 54
2,215149, Control_c, 0, 64, 54
2,215154, Note_on_c, 0, 63, 66
2,215163, Note_on_c, 0, 61, 0
2,215323, Control_c, 0, 64, 55
2,215417, Note_on_c, 0, 71, 0
2,215432, Note_on_c, 0, 70, 74
2,215439, Note_on_c, 0, 64, 66
2,215459, Note_on_c, 0, 63, 0
2,215476, Control_c, 0, 64, 55
2,215629, Control_c, 0, 64, 56
2,215668, Control_c, 0, 64, 56
2,215739, Note_on_c, 0, 49, 49
2,215739, Note_on_c, 0, 68, 79
2,215760, Note_on_c, 0, 70, 0
2,215764, Control_c, 0, 64, 57
2,215822, Control_c, 0, 64, 57
2,215917, Control_c, 0, 64, 58
2,216071, Control_c, 0, 64, 57
2,216109, Control_c, 0, 64, 56
2,216129, Control_c, 0, 64, 55
2,216135, Note_on_c, 0, 54, 50
2,216137, Note_on_c, 0, 70, 85
2,216148, Control_c, 0, 64, 53
2,216167, Control_c, 0, 64, 49
2,216186, Control_c, 0, 64, 47
2,216194, Note_on_c, 0, 68, 0
2,216206, Control_c, 0, 64, 46
2,216225, Control_c, 0, 64, 45
2,216244, Control_c, 0, 64, 44
2,216263, Control_c, 0, 64, 43
2,216283, Control_c, 0, 64, 43
2,216551, Control_c, 0, 64, 43
2,216567, Note_on_c, 0, 68, 64
2,216589, Control_c, 0, 64, 44
2,216620, Note_on_c, 0, 64, 0
2,216686, Control_c, 0, 64, 44
2,216820, Control_c, 0, 64, 45
2,216877, Control_c, 0, 64, 45
2,216948, Note_on_c, 0, 66, 56
2,217017, Note_on_c, 0, 68, 0
2,217108, Control_c, 0, 64, 45
2,217127, Control_c, 0, 64, 44
2,217166, Control_c, 0, 64, 44
2,217204, Control_c, 0, 64, 43
2,217396, Control_c, 0, 64, 43
2,217415, Control_c, 0, 64, 44
2,217435, Note_on_c, 0, 64, 48
2,217454, Control_c, 0, 64, 44
2,217471, Note_on_c, 0, 49, 0
2,217472, Control_c, 0, 64, 46
2,217477, Note_on_c, 0, 66, 0
2,217492, Control_c, 0, 64, 48
2,217511, Control_c, 0, 64, 51
2,217531, Control_c, 0, 64, 52
2,217549, Control_c, 0, 64, 55
2,217569, Control_c, 0, 64, 57
2,217588, Control_c, 0, 64, 60
2,217607, Control_c, 0, 64, 62
2,217626, Control_c, 0, 64, 64
2,217646, Control_c, 0, 64, 65
2,217665, Control_c, 0, 64, 65
2,217684, Control_c, 0, 64, 66
2,217703, Control_c, 0, 64, 66
2,217723, Control_c, 0, 64, 67
2,217742, Control_c, 0, 64, 68
2,217761, Control_c, 0, 64, 68
2,217780, Control_c, 0, 64, 69
2,217800, Control_c, 0, 64, 69
2,217952, Control_c, 0, 64, 69
2,218011, Control_c, 0, 64, 68
2,218068, Control_c, 0, 64, 68
2,218145, Control_c, 0, 64, 67
2,218164, Control_c, 0, 64, 67
2,218183, Control_c, 0, 64, 64
2,218184, Note_on_c, 0, 63, 49
2,218186, Note_on_c, 0, 47, 28
2,218190, Note_on_c, 0, 71, 58
2,218203, Control_c, 0, 64, 60
2,218222, Control_c, 0, 64, 52
2,218241, Control_c, 0, 64, 46
2,218248, Note_on_c, 0, 64, 0
2,218260, Control_c, 0, 64, 37
2,218280, Control_c, 0, 64, 9
2,218286, Note_on_c, 0, 70, 0
2,218298, Control_c, 0, 64, 0
2,218302, Note_on_c, 0, 42, 0
2,221423, Note_on_c, 0, 71, 0
2,221459, Note_on_c, 0, 54, 0
2,221467, Note_on_c, 0, 63, 0
2,221490, Note_on_c, 0, 47, 0
2,221491, End_track
0, 0, End_of_file
