0, 0, Header, 1, 2, 384
1, 0, Start_track
1, 0, Tempo, 500000
1, 0, Time_signature, 4, 2, 24, 8
1, 1, End_track
2,0,Start_track
2,0, Note_on_c, 0, 66, 72
2,68, Note_on_c, 0, 66, 0
2,237, Note_on_c, 0, 62, 74
2,323, Note_on_c, 0, 62, 0
2,486, Note_on_c, 0, 59, 75
2,565, Note_on_c, 0, 59, 0
2,714, Note_on_c, 0, 58, 72
2,796, Note_on_c, 0, 58, 0
2,939, Note_on_c, 0, 59, 72
2,1090, Note_on_c, 0, 59, 0
2,1167, Note_on_c, 0, 61, 63
2,1261, Note_on_c, 0, 61, 0
2,1276, Note_on_c, 0, 62, 65
2,1365, Note_on_c, 0, 62, 0
2,1381, Note_on_c, 0, 64, 61
2,1467, Note_on_c, 0, 64, 0
2,1472, Note_on_c, 0, 66, 72
2,1531, Note_on_c, 0, 66, 0
2,1612, Note_on_c, 0, 67, 82
2,1694, Note_on_c, 0, 67, 0
2,1833, Note_on_c, 0, 55, 66
2,1887, Note_on_c, 0, 55, 0
2,2074, Note_on_c, 0, 67, 84
2,2129, Note_on_c, 0, 67, 0
2,2315, Note_on_c, 0, 66, 83
2,2372, Note_on_c, 0, 66, 0
2,2545, Note_on_c, 0, 54, 69
2,2625, Note_on_c, 0, 54, 0
2,2774, Note_on_c, 0, 66, 76
2,2847, Note_on_c, 0, 66, 0
2,3001, Note_on_c, 0, 64, 72
2,3140, Note_on_c, 0, 64, 0
2,3231, Note_on_c, 0, 66, 65
2,3322, Note_on_c, 0, 66, 0
2,3332, Note_on_c, 0, 64, 58
2,3430, Note_on_c, 0, 64, 0
2,3454, Note_on_c, 0, 62, 54
2,3538, Note_on_c, 0, 62, 0
2,3557, Note_on_c, 0, 61, 63
2,3657, Note_on_c, 0, 61, 0
2,3677, Note_on_c, 0, 62, 58
2,3769, Note_on_c, 0, 62, 0
2,3778, Note_on_c, 0, 66, 67
2,3851, Note_on_c, 0, 66, 0
2,3884, Note_on_c, 0, 64, 58
2,3983, Note_on_c, 0, 64, 0
2,3987, Note_on_c, 0, 62, 51
2,4073, Note_on_c, 0, 62, 0
2,4096, Note_on_c, 0, 71, 73
2,4098, Note_on_c, 0, 61, 60
2,4137, Note_on_c, 0, 71, 0
2,4162, Note_on_c, 0, 61, 0
2,4191, Note_on_c, 0, 59, 53
2,4297, Note_on_c, 0, 59, 0
2,4312, Note_on_c, 0, 61, 60
2,4322, Note_on_c, 0, 69, 81
2,4380, Note_on_c, 0, 69, 0
2,4404, Note_on_c, 0, 61, 0
2,4426, Note_on_c, 0, 59, 62
2,4529, Note_on_c, 0, 61, 60
2,4539, Note_on_c, 0, 59, 0
2,4545, Note_on_c, 0, 66, 85
2,4592, Note_on_c, 0, 66, 0
2,4619, Note_on_c, 0, 61, 0
2,4644, Note_on_c, 0, 62, 59
2,4753, Note_on_c, 0, 62, 0
2,4760, Note_on_c, 0, 65, 67
2,4763, Note_on_c, 0, 61, 65
2,4803, Note_on_c, 0, 65, 0
2,4852, Note_on_c, 0, 59, 59
2,4852, Note_on_c, 0, 61, 0
2,4892, Note_on_c, 0, 59, 0
2,4976, Note_on_c, 0, 57, 78
2,4987, Note_on_c, 0, 66, 72
2,5076, Note_on_c, 0, 57, 0
2,5211, Note_on_c, 0, 54, 67
2,5211, Note_on_c, 0, 68, 71
2,5218, Note_on_c, 0, 66, 0
2,5284, Note_on_c, 0, 54, 0
2,5284, Note_on_c, 0, 68, 0
2,5307, Note_on_c, 0, 69, 73
2,5384, Note_on_c, 0, 69, 0
2,5418, Note_on_c, 0, 53, 61
2,5420, Note_on_c, 0, 71, 68
2,5479, Note_on_c, 0, 53, 0
2,5498, Note_on_c, 0, 71, 0
2,5511, Note_on_c, 0, 73, 71
2,5569, Note_on_c, 0, 73, 0
2,5624, Note_on_c, 0, 54, 59
2,5640, Note_on_c, 0, 74, 73
2,5674, Note_on_c, 0, 54, 0
2,5684, Note_on_c, 0, 74, 0
2,5741, Note_on_c, 0, 56, 62
2,5773, Note_on_c, 0, 56, 0
2,5842, Note_on_c, 0, 62, 73
2,5856, Note_on_c, 0, 56, 67
2,5879, Note_on_c, 0, 62, 0
2,5909, Note_on_c, 0, 56, 0
2,5942, Note_on_c, 0, 57, 56
2,5993, Note_on_c, 0, 57, 0
2,6003, Note_on_c, 0, 56, 48
2,6053, Note_on_c, 0, 74, 74
2,6080, Note_on_c, 0, 56, 0
2,6094, Note_on_c, 0, 54, 60
2,6101, Note_on_c, 0, 74, 0
2,6164, Note_on_c, 0, 56, 50
2,6167, Note_on_c, 0, 54, 0
2,6261, Note_on_c, 0, 56, 0
2,6270, Note_on_c, 0, 73, 80
2,6283, Note_on_c, 0, 57, 63
2,6326, Note_on_c, 0, 73, 0
2,6382, Note_on_c, 0, 57, 0
2,6393, Note_on_c, 0, 59, 54
2,6468, Note_on_c, 0, 59, 0
2,6499, Note_on_c, 0, 61, 71
2,6505, Note_on_c, 0, 57, 58
2,6554, Note_on_c, 0, 61, 0
2,6595, Note_on_c, 0, 57, 0
2,6606, Note_on_c, 0, 56, 55
2,6704, Note_on_c, 0, 56, 0
2,6715, Note_on_c, 0, 54, 60
2,6730, Note_on_c, 0, 73, 65
2,6772, Note_on_c, 0, 73, 0
2,6795, Note_on_c, 0, 54, 0
2,6820, Note_on_c, 0, 52, 66
2,6921, Note_on_c, 0, 52, 0
2,6942, Note_on_c, 0, 71, 67
2,6943, Note_on_c, 0, 51, 59
2,7031, Note_on_c, 0, 51, 0
2,7037, Note_on_c, 0, 53, 69
2,7079, Note_on_c, 0, 53, 0
2,7147, Note_on_c, 0, 53, 68
2,7147, Note_on_c, 0, 71, 0
2,7166, Note_on_c, 0, 73, 59
2,7209, Note_on_c, 0, 53, 0
2,7220, Note_on_c, 0, 54, 62
2,7264, Note_on_c, 0, 53, 44
2,7266, Note_on_c, 0, 54, 0
2,7280, Note_on_c, 0, 71, 70
2,7309, Note_on_c, 0, 73, 0
2,7387, Note_on_c, 0, 71, 0
2,7391, Note_on_c, 0, 69, 69
2,7426, Note_on_c, 0, 53, 0
2,7465, Note_on_c, 0, 51, 48
2,7496, Note_on_c, 0, 69, 0
2,7499, Note_on_c, 0, 68, 63
2,7509, Note_on_c, 0, 51, 0
2,7519, Note_on_c, 0, 53, 70
2,7583, Note_on_c, 0, 54, 79
2,7595, Note_on_c, 0, 53, 0
2,7595, Note_on_c, 0, 68, 0
2,7611, Note_on_c, 0, 69, 69
2,7669, Note_on_c, 0, 54, 0
2,7700, Note_on_c, 0, 69, 0
2,7707, Note_on_c, 0, 73, 68
2,7814, Note_on_c, 0, 56, 64
2,7818, Note_on_c, 0, 71, 66
2,7859, Note_on_c, 0, 56, 0
2,7868, Note_on_c, 0, 73, 0
2,7911, Note_on_c, 0, 71, 0
2,7914, Note_on_c, 0, 69, 70
2,8010, Note_on_c, 0, 69, 0
2,8035, Note_on_c, 0, 68, 57
2,8040, Note_on_c, 0, 57, 65
2,8079, Note_on_c, 0, 57, 0
2,8131, Note_on_c, 0, 68, 0
2,8137, Note_on_c, 0, 66, 67
2,8256, Note_on_c, 0, 66, 0
2,8257, Note_on_c, 0, 59, 52
2,8264, Note_on_c, 0, 67, 64
2,8345, Note_on_c, 0, 59, 0
2,8355, Note_on_c, 0, 61, 71
2,8384, Note_on_c, 0, 67, 0
2,8385, Note_on_c, 0, 61, 0
2,8458, Note_on_c, 0, 61, 77
2,8480, Note_on_c, 0, 69, 65
2,8516, Note_on_c, 0, 61, 0
2,8540, Note_on_c, 0, 62, 55
2,8563, Note_on_c, 0, 67, 67
2,8573, Note_on_c, 0, 69, 0
2,8600, Note_on_c, 0, 62, 0
2,8602, Note_on_c, 0, 61, 50
2,8652, Note_on_c, 0, 67, 0
2,8654, Note_on_c, 0, 66, 65
2,8714, Note_on_c, 0, 61, 0
2,8738, Note_on_c, 0, 59, 53
2,8743, Note_on_c, 0, 66, 0
2,8756, Note_on_c, 0, 64, 60
2,8820, Note_on_c, 0, 59, 0
2,8828, Note_on_c, 0, 61, 71
2,8843, Note_on_c, 0, 64, 0
2,8852, Note_on_c, 0, 66, 66
2,8873, Note_on_c, 0, 62, 79
2,8893, Note_on_c, 0, 61, 0
2,8920, Note_on_c, 0, 62, 0
2,8956, Note_on_c, 0, 66, 0
2,8965, Note_on_c, 0, 69, 71
2,9098, Note_on_c, 0, 58, 83
2,9107, Note_on_c, 0, 69, 0
2,9111, Note_on_c, 0, 67, 65
2,9147, Note_on_c, 0, 58, 0
2,9204, Note_on_c, 0, 66, 70
2,9228, Note_on_c, 0, 67, 0
2,9320, Note_on_c, 0, 64, 68
2,9321, Note_on_c, 0, 59, 83
2,9336, Note_on_c, 0, 66, 0
2,9426, Note_on_c, 0, 62, 75
2,9426, Note_on_c, 0, 64, 0
2,9548, Note_on_c, 0, 64, 77
2,9559, Note_on_c, 0, 62, 0
2,9761, Note_on_c, 0, 64, 0
2,9781, Note_on_c, 0, 58, 69
2,9782, Note_on_c, 0, 59, 0
2,9786, Note_on_c, 0, 66, 65
2,9874, Note_on_c, 0, 58, 0
2,9879, Note_on_c, 0, 56, 64
2,9879, Note_on_c, 0, 64, 69
2,9889, Note_on_c, 0, 66, 0
2,9943, Note_on_c, 0, 56, 0
2,9971, Note_on_c, 0, 64, 0
2,9990, Note_on_c, 0, 62, 66
2,9995, Note_on_c, 0, 54, 72
2,9996, Note_on_c, 0, 58, 71
2,10027, Note_on_c, 0, 58, 0
2,10061, Note_on_c, 0, 54, 0
2,10061, Note_on_c, 0, 62, 0
2,10085, Note_on_c, 0, 61, 69
2,10133, Note_on_c, 0, 61, 0
2,10212, Note_on_c, 0, 50, 83
2,10239, Note_on_c, 0, 62, 53
2,10257, Note_on_c, 0, 59, 22
2,10259, Note_on_c, 0, 50, 0
2,10331, Note_on_c, 0, 64, 66
2,10339, Note_on_c, 0, 59, 0
2,10425, Note_on_c, 0, 62, 0
2,10445, Note_on_c, 0, 47, 86
2,10447, Note_on_c, 0, 66, 69
2,10494, Note_on_c, 0, 47, 0
2,10498, Note_on_c, 0, 64, 0
2,10547, Note_on_c, 0, 66, 0
2,10549, Note_on_c, 0, 67, 73
2,10666, Note_on_c, 0, 46, 80
2,10666, Note_on_c, 0, 66, 70
2,10704, Note_on_c, 0, 67, 0
2,10723, Note_on_c, 0, 46, 0
2,10764, Note_on_c, 0, 64, 72
2,10891, Note_on_c, 0, 64, 0
2,10893, Note_on_c, 0, 62, 81
2,10900, Note_on_c, 0, 47, 73
2,10968, Note_on_c, 0, 62, 0
2,11127, Note_on_c, 0, 49, 70
2,11136, Note_on_c, 0, 59, 71
2,11143, Note_on_c, 0, 47, 0
2,11203, Note_on_c, 0, 59, 0
2,11226, Note_on_c, 0, 50, 70
2,11231, Note_on_c, 0, 49, 0
2,11327, Note_on_c, 0, 50, 0
2,11348, Note_on_c, 0, 52, 69
2,11368, Note_on_c, 0, 58, 63
2,11401, Note_on_c, 0, 58, 0
2,11438, Note_on_c, 0, 54, 74
2,11440, Note_on_c, 0, 52, 0
2,11504, Note_on_c, 0, 54, 0
2,11569, Note_on_c, 0, 55, 69
2,11574, Note_on_c, 0, 59, 63
2,11657, Note_on_c, 0, 66, 0
2,11661, Note_on_c, 0, 61, 63
2,11663, Note_on_c, 0, 59, 0
2,11689, Note_on_c, 0, 55, 0
2,11698, Note_on_c, 0, 61, 0
2,11776, Note_on_c, 0, 61, 61
2,11777, Note_on_c, 0, 43, 61
2,11817, Note_on_c, 0, 61, 0
2,11824, Note_on_c, 0, 43, 0
2,11830, Note_on_c, 0, 62, 69
2,11896, Note_on_c, 0, 62, 0
2,11910, Note_on_c, 0, 61, 69
2,11984, Note_on_c, 0, 61, 0
2,11987, Note_on_c, 0, 55, 75
2,11992, Note_on_c, 0, 69, 67
2,12051, Note_on_c, 0, 55, 0
2,12058, Note_on_c, 0, 59, 53
2,12086, Note_on_c, 0, 69, 0
2,12110, Note_on_c, 0, 59, 0
2,12119, Note_on_c, 0, 61, 62
2,12178, Note_on_c, 0, 61, 0
2,12222, Note_on_c, 0, 69, 58
2,12231, Note_on_c, 0, 54, 78
2,12240, Note_on_c, 0, 62, 57
2,12283, Note_on_c, 0, 54, 0
2,12310, Note_on_c, 0, 62, 0
2,12333, Note_on_c, 0, 69, 0
2,12334, Note_on_c, 0, 64, 54
2,12410, Note_on_c, 0, 64, 0
2,12439, Note_on_c, 0, 42, 72
2,12445, Note_on_c, 0, 66, 55
2,12448, Note_on_c, 0, 62, 48
2,12493, Note_on_c, 0, 62, 0
2,12510, Note_on_c, 0, 42, 0
2,12551, Note_on_c, 0, 66, 0
2,12553, Note_on_c, 0, 61, 58
2,12626, Note_on_c, 0, 61, 0
2,12658, Note_on_c, 0, 54, 76
2,12664, Note_on_c, 0, 59, 63
2,12701, Note_on_c, 0, 62, 53
2,12718, Note_on_c, 0, 54, 0
2,12740, Note_on_c, 0, 59, 0
2,12779, Note_on_c, 0, 57, 60
2,12877, Note_on_c, 0, 57, 0
2,12894, Note_on_c, 0, 52, 68
2,12905, Note_on_c, 0, 56, 62
2,13004, Note_on_c, 0, 56, 0
2,13007, Note_on_c, 0, 58, 57
2,13020, Note_on_c, 0, 61, 48
2,13035, Note_on_c, 0, 58, 0
2,13046, Note_on_c, 0, 62, 0
2,13047, Note_on_c, 0, 61, 0
2,13121, Note_on_c, 0, 52, 0
2,13121, Note_on_c, 0, 58, 60
2,13128, Note_on_c, 0, 54, 61
2,13146, Note_on_c, 0, 61, 47
2,13177, Note_on_c, 0, 58, 0
2,13188, Note_on_c, 0, 59, 65
2,13200, Note_on_c, 0, 54, 0
2,13203, Note_on_c, 0, 61, 0
2,13212, Note_on_c, 0, 52, 46
2,13265, Note_on_c, 0, 59, 0
2,13285, Note_on_c, 0, 58, 56
2,13298, Note_on_c, 0, 52, 0
2,13300, Note_on_c, 0, 66, 68
2,13325, Note_on_c, 0, 50, 55
2,13342, Note_on_c, 0, 58, 0
2,13394, Note_on_c, 0, 50, 0
2,13413, Note_on_c, 0, 56, 53
2,13419, Note_on_c, 0, 49, 55
2,13462, Note_on_c, 0, 66, 0
2,13464, Note_on_c, 0, 56, 0
2,13471, Note_on_c, 0, 58, 55
2,13527, Note_on_c, 0, 49, 0
2,13540, Note_on_c, 0, 50, 63
2,13542, Note_on_c, 0, 58, 0
2,13556, Note_on_c, 0, 59, 67
2,13671, Note_on_c, 0, 54, 68
2,13672, Note_on_c, 0, 50, 0
2,13696, Note_on_c, 0, 59, 0
2,13748, Note_on_c, 0, 54, 0
2,13765, Note_on_c, 0, 52, 58
2,13864, Note_on_c, 0, 52, 0
2,13878, Note_on_c, 0, 50, 49
2,13973, Note_on_c, 0, 50, 0
2,13992, Note_on_c, 0, 49, 58
2,14008, Note_on_c, 0, 68, 66
2,14042, Note_on_c, 0, 68, 0
2,14072, Note_on_c, 0, 49, 0
2,14102, Note_on_c, 0, 47, 56
2,14210, Note_on_c, 0, 47, 0
2,14229, Note_on_c, 0, 49, 55
2,14236, Note_on_c, 0, 69, 46
2,14334, Note_on_c, 0, 69, 0
2,14346, Note_on_c, 0, 49, 0
2,14349, Note_on_c, 0, 73, 49
2,14356, Note_on_c, 0, 51, 58
2,14389, Note_on_c, 0, 51, 0
2,14450, Note_on_c, 0, 73, 0
2,14452, Note_on_c, 0, 51, 71
2,14462, Note_on_c, 0, 71, 48
2,14500, Note_on_c, 0, 51, 0
2,14520, Note_on_c, 0, 52, 65
2,14525, Note_on_c, 0, 71, 0
2,14550, Note_on_c, 0, 69, 59
2,14561, Note_on_c, 0, 52, 0
2,14569, Note_on_c, 0, 51, 46
2,14665, Note_on_c, 0, 69, 0
2,14676, Note_on_c, 0, 68, 63
2,14754, Note_on_c, 0, 51, 0
2,14770, Note_on_c, 0, 49, 60
2,14781, Note_on_c, 0, 68, 0
2,14805, Note_on_c, 0, 66, 59
2,14830, Note_on_c, 0, 51, 52
2,14836, Note_on_c, 0, 49, 0
2,14901, Note_on_c, 0, 52, 69
2,14912, Note_on_c, 0, 51, 0
2,14914, Note_on_c, 0, 68, 66
2,14918, Note_on_c, 0, 66, 0
2,15011, Note_on_c, 0, 52, 0
2,15017, Note_on_c, 0, 68, 0
2,15019, Note_on_c, 0, 70, 69
2,15029, Note_on_c, 0, 55, 63
2,15069, Note_on_c, 0, 70, 0
2,15128, Note_on_c, 0, 70, 58
2,15142, Note_on_c, 0, 55, 0
2,15152, Note_on_c, 0, 54, 64
2,15174, Note_on_c, 0, 71, 66
2,15220, Note_on_c, 0, 70, 0
2,15237, Note_on_c, 0, 70, 36
2,15247, Note_on_c, 0, 71, 0
2,15282, Note_on_c, 0, 54, 0
2,15320, Note_on_c, 0, 52, 49
2,15361, Note_on_c, 0, 52, 0
2,15363, Note_on_c, 0, 50, 62
2,15410, Note_on_c, 0, 70, 0
2,15451, Note_on_c, 0, 50, 0
2,15451, Note_on_c, 0, 68, 63
2,15464, Note_on_c, 0, 49, 66
2,15497, Note_on_c, 0, 68, 0
2,15525, Note_on_c, 0, 70, 62
2,15566, Note_on_c, 0, 71, 69
2,15572, Note_on_c, 0, 51, 68
2,15573, Note_on_c, 0, 70, 0
2,15574, Note_on_c, 0, 49, 0
2,15670, Note_on_c, 0, 71, 0
2,15679, Note_on_c, 0, 51, 0
2,15686, Note_on_c, 0, 53, 74
2,15699, Note_on_c, 0, 74, 57
2,15716, Note_on_c, 0, 53, 0
2,15778, Note_on_c, 0, 53, 82
2,15827, Note_on_c, 0, 73, 61
2,15846, Note_on_c, 0, 54, 70
2,15847, Note_on_c, 0, 74, 0
2,15860, Note_on_c, 0, 53, 0
2,15890, Note_on_c, 0, 53, 41
2,15907, Note_on_c, 0, 54, 0
2,15938, Note_on_c, 0, 71, 68
2,15967, Note_on_c, 0, 73, 0
2,16035, Note_on_c, 0, 69, 67
2,16037, Note_on_c, 0, 71, 0
2,16053, Note_on_c, 0, 53, 0
2,16081, Note_on_c, 0, 51, 60
2,16136, Note_on_c, 0, 69, 0
2,16139, Note_on_c, 0, 68, 71
2,16165, Note_on_c, 0, 53, 57
2,16170, Note_on_c, 0, 51, 0
2,16248, Note_on_c, 0, 54, 66
2,16267, Note_on_c, 0, 69, 73
2,16273, Note_on_c, 0, 53, 0
2,16277, Note_on_c, 0, 68, 0
2,16342, Note_on_c, 0, 54, 0
2,16361, Note_on_c, 0, 57, 55
2,16361, Note_on_c, 0, 69, 0
2,16361, Note_on_c, 0, 71, 75
2,16405, Note_on_c, 0, 71, 0
2,16444, Note_on_c, 0, 57, 0
2,16476, Note_on_c, 0, 71, 71
2,16480, Note_on_c, 0, 56, 63
2,16518, Note_on_c, 0, 71, 0
2,16526, Note_on_c, 0, 73, 70
2,16579, Note_on_c, 0, 56, 0
2,16584, Note_on_c, 0, 54, 65
2,16591, Note_on_c, 0, 71, 65
2,16609, Note_on_c, 0, 73, 0
2,16657, Note_on_c, 0, 54, 0
2,16704, Note_on_c, 0, 53, 57
2,16747, Note_on_c, 0, 71, 0
2,16771, Note_on_c, 0, 52, 54
2,16771, Note_on_c, 0, 53, 0
2,16778, Note_on_c, 0, 69, 67
2,16803, Note_on_c, 0, 52, 0
2,16841, Note_on_c, 0, 71, 70
2,16843, Note_on_c, 0, 69, 0
2,16901, Note_on_c, 0, 53, 66
2,16918, Note_on_c, 0, 71, 0
2,16924, Note_on_c, 0, 73, 74
2,17034, Note_on_c, 0, 53, 0
2,17040, Note_on_c, 0, 56, 68
2,17150, Note_on_c, 0, 56, 0
2,17153, Note_on_c, 0, 54, 66
2,17230, Note_on_c, 0, 54, 0
2,17242, Note_on_c, 0, 53, 74
2,17354, Note_on_c, 0, 73, 0
2,17365, Note_on_c, 0, 53, 0
2,17366, Note_on_c, 0, 51, 65
2,17377, Note_on_c, 0, 61, 74
2,17448, Note_on_c, 0, 61, 0
2,17464, Note_on_c, 0, 49, 64
2,17471, Note_on_c, 0, 51, 0
2,17578, Note_on_c, 0, 49, 0
2,17597, Note_on_c, 0, 57, 83
2,17607, Note_on_c, 0, 54, 77
2,17639, Note_on_c, 0, 57, 0
2,17647, Note_on_c, 0, 54, 0
2,17685, Note_on_c, 0, 74, 67
2,17811, Note_on_c, 0, 54, 86
2,17820, Note_on_c, 0, 73, 66
2,17823, Note_on_c, 0, 45, 66
2,17863, Note_on_c, 0, 54, 0
2,17863, Note_on_c, 0, 74, 0
2,17866, Note_on_c, 0, 45, 0
2,17914, Note_on_c, 0, 71, 71
2,18020, Note_on_c, 0, 73, 0
2,18029, Note_on_c, 0, 69, 76
2,18034, Note_on_c, 0, 71, 0
2,18045, Note_on_c, 0, 49, 70
2,18047, Note_on_c, 0, 53, 68
2,18091, Note_on_c, 0, 49, 0
2,18115, Note_on_c, 0, 53, 0
2,18119, Note_on_c, 0, 69, 0
2,18137, Note_on_c, 0, 68, 80
2,18184, Note_on_c, 0, 68, 0
2,18263, Note_on_c, 0, 69, 83
2,18275, Note_on_c, 0, 54, 67
2,18280, Note_on_c, 0, 42, 56
2,18335, Note_on_c, 0, 42, 0
2,18499, Note_on_c, 0, 56, 60
2,18501, Note_on_c, 0, 54, 0
2,18502, Note_on_c, 0, 66, 83
2,18529, Note_on_c, 0, 69, 0
2,18567, Note_on_c, 0, 66, 0
2,18604, Note_on_c, 0, 57, 71
2,18613, Note_on_c, 0, 56, 0
2,18701, Note_on_c, 0, 57, 0
2,18724, Note_on_c, 0, 59, 65
2,18729, Note_on_c, 0, 65, 85
2,18772, Note_on_c, 0, 65, 0
2,18826, Note_on_c, 0, 61, 77
2,18832, Note_on_c, 0, 59, 0
2,18871, Note_on_c, 0, 61, 0
2,18957, Note_on_c, 0, 66, 81
2,18961, Note_on_c, 0, 62, 74
2,19063, Note_on_c, 0, 57, 69
2,19107, Note_on_c, 0, 62, 0
2,19131, Note_on_c, 0, 66, 0
2,19171, Note_on_c, 0, 57, 0
2,19178, Note_on_c, 0, 50, 67
2,19191, Note_on_c, 0, 47, 62
2,19252, Note_on_c, 0, 50, 0
2,19266, Note_on_c, 0, 47, 0
2,19284, Note_on_c, 0, 57, 75
2,19379, Note_on_c, 0, 57, 0
2,19400, Note_on_c, 0, 47, 63
2,19400, Note_on_c, 0, 62, 85
2,19401, Note_on_c, 0, 71, 78
2,19472, Note_on_c, 0, 62, 0
2,19481, Note_on_c, 0, 47, 0
2,19503, Note_on_c, 0, 57, 67
2,19581, Note_on_c, 0, 57, 0
2,19642, Note_on_c, 0, 61, 75
2,19649, Note_on_c, 0, 45, 62
2,19734, Note_on_c, 0, 45, 0
2,19745, Note_on_c, 0, 61, 0
2,19748, Note_on_c, 0, 56, 63
2,19839, Note_on_c, 0, 56, 0
2,19870, Note_on_c, 0, 45, 49
2,19870, Note_on_c, 0, 65, 75
2,19873, Note_on_c, 0, 61, 67
2,19875, Note_on_c, 0, 49, 56
2,19880, Note_on_c, 0, 71, 0
2,19911, Note_on_c, 0, 61, 0
2,19929, Note_on_c, 0, 45, 0
2,19934, Note_on_c, 0, 65, 0
2,19969, Note_on_c, 0, 56, 62
2,19980, Note_on_c, 0, 49, 0
2,20051, Note_on_c, 0, 56, 0
2,20073, Note_on_c, 0, 45, 52
2,20098, Note_on_c, 0, 66, 68
2,20107, Note_on_c, 0, 61, 62
2,20130, Note_on_c, 0, 66, 0
2,20145, Note_on_c, 0, 61, 0
2,20159, Note_on_c, 0, 45, 0
2,20205, Note_on_c, 0, 54, 60
2,20280, Note_on_c, 0, 54, 0
2,20312, Note_on_c, 0, 44, 57
2,20323, Note_on_c, 0, 59, 56
2,20324, Note_on_c, 0, 62, 62
2,20366, Note_on_c, 0, 59, 0
2,20394, Note_on_c, 0, 44, 0
2,20415, Note_on_c, 0, 54, 57
2,20572, Note_on_c, 0, 61, 66
2,20577, Note_on_c, 0, 54, 0
2,20579, Note_on_c, 0, 53, 34
2,20581, Note_on_c, 0, 62, 0
2,20610, Note_on_c, 0, 53, 0
2,20643, Note_on_c, 0, 56, 43
2,20678, Note_on_c, 0, 59, 67
2,20688, Note_on_c, 0, 56, 0
2,20728, Note_on_c, 0, 59, 0
2,20745, Note_on_c, 0, 49, 46
2,20794, Note_on_c, 0, 57, 58
2,20824, Note_on_c, 0, 49, 0
2,20851, Note_on_c, 0, 57, 0
2,20866, Note_on_c, 0, 56, 62
2,20871, Note_on_c, 0, 53, 42
2,20919, Note_on_c, 0, 56, 0
2,20935, Note_on_c, 0, 53, 0
2,20986, Note_on_c, 0, 42, 61
2,21007, Note_on_c, 0, 57, 54
2,21053, Note_on_c, 0, 57, 0
2,21079, Note_on_c, 0, 42, 0
2,21107, Note_on_c, 0, 54, 57
2,21206, Note_on_c, 0, 54, 0
2,21225, Note_on_c, 0, 59, 69
2,21230, Note_on_c, 0, 44, 55
2,21232, Note_on_c, 0, 61, 0
2,21257, Note_on_c, 0, 59, 0
2,21302, Note_on_c, 0, 44, 0
2,21326, Note_on_c, 0, 54, 65
2,21414, Note_on_c, 0, 54, 0
2,21434, Note_on_c, 0, 66, 71
2,21442, Note_on_c, 0, 61, 64
2,21448, Note_on_c, 0, 45, 58
2,21539, Note_on_c, 0, 45, 0
2,21553, Note_on_c, 0, 54, 62
2,21668, Note_on_c, 0, 54, 0
2,21669, Note_on_c, 0, 62, 74
2,21675, Note_on_c, 0, 47, 68
2,21682, Note_on_c, 0, 66, 0
2,21698, Note_on_c, 0, 61, 0
2,21730, Note_on_c, 0, 62, 0
2,21763, Note_on_c, 0, 47, 0
2,21772, Note_on_c, 0, 54, 70
2,21883, Note_on_c, 0, 54, 0
2,21887, Note_on_c, 0, 49, 67
2,21891, Note_on_c, 0, 64, 76
2,21892, Note_on_c, 0, 59, 72
2,21929, Note_on_c, 0, 59, 0
2,21956, Note_on_c, 0, 64, 0
2,21998, Note_on_c, 0, 49, 0
2,22004, Note_on_c, 0, 54, 66
2,22108, Note_on_c, 0, 54, 0
2,22121, Note_on_c, 0, 50, 62
2,22122, Note_on_c, 0, 57, 78
2,22125, Note_on_c, 0, 66, 82
2,22189, Note_on_c, 0, 50, 0
2,22208, Note_on_c, 0, 54, 67
2,22218, Note_on_c, 0, 57, 0
2,22268, Note_on_c, 0, 54, 0
2,22345, Note_on_c, 0, 40, 62
2,22357, Note_on_c, 0, 55, 70
2,22374, Note_on_c, 0, 66, 0
2,22411, Note_on_c, 0, 55, 0
2,22442, Note_on_c, 0, 40, 0
2,22448, Note_on_c, 0, 52, 70
2,22564, Note_on_c, 0, 52, 0
2,22583, Note_on_c, 0, 64, 66
2,22585, Note_on_c, 0, 42, 55
2,22589, Note_on_c, 0, 57, 61
2,22620, Note_on_c, 0, 57, 0
2,22644, Note_on_c, 0, 64, 0
2,22675, Note_on_c, 0, 42, 0
2,22688, Note_on_c, 0, 52, 63
2,22795, Note_on_c, 0, 52, 0
2,22817, Note_on_c, 0, 62, 61
2,22828, Note_on_c, 0, 43, 53
2,22834, Note_on_c, 0, 59, 39
2,22903, Note_on_c, 0, 43, 0
2,22924, Note_on_c, 0, 52, 52
2,23022, Note_on_c, 0, 52, 0
2,23028, Note_on_c, 0, 59, 0
2,23048, Note_on_c, 0, 61, 57
2,23050, Note_on_c, 0, 45, 47
2,23077, Note_on_c, 0, 62, 0
2,23109, Note_on_c, 0, 45, 0
2,23153, Note_on_c, 0, 52, 59
2,23243, Note_on_c, 0, 52, 0
2,23255, Note_on_c, 0, 61, 0
2,23272, Note_on_c, 0, 47, 58
2,23286, Note_on_c, 0, 57, 50
2,23310, Note_on_c, 0, 57, 0
2,23327, Note_on_c, 0, 47, 0
2,23366, Note_on_c, 0, 52, 64
2,23458, Note_on_c, 0, 52, 0
2,23495, Note_on_c, 0, 49, 60
2,23498, Note_on_c, 0, 81, 75
2,23553, Note_on_c, 0, 49, 0
2,23561, Note_on_c, 0, 81, 0
2,23590, Note_on_c, 0, 52, 61
2,23624, Note_on_c, 0, 52, 0
2,23712, Note_on_c, 0, 78, 80
2,23720, Note_on_c, 0, 50, 55
2,23769, Note_on_c, 0, 78, 0
2,23829, Note_on_c, 0, 52, 57
2,23832, Note_on_c, 0, 50, 0
2,23923, Note_on_c, 0, 74, 72
2,23929, Note_on_c, 0, 52, 0
2,23930, Note_on_c, 0, 54, 63
2,23959, Note_on_c, 0, 74, 0
2,24029, Note_on_c, 0, 54, 0
2,24033, Note_on_c, 0, 55, 63
2,24131, Note_on_c, 0, 55, 0
2,24136, Note_on_c, 0, 57, 62
2,24144, Note_on_c, 0, 73, 72
2,24196, Note_on_c, 0, 73, 0
2,24232, Note_on_c, 0, 57, 0
2,24234, Note_on_c, 0, 55, 65
2,24354, Note_on_c, 0, 55, 0
2,24363, Note_on_c, 0, 54, 62
2,24375, Note_on_c, 0, 74, 71
2,24455, Note_on_c, 0, 54, 0
2,24471, Note_on_c, 0, 57, 66
2,24593, Note_on_c, 0, 74, 0
2,24595, Note_on_c, 0, 57, 0
2,24596, Note_on_c, 0, 55, 66
2,24607, Note_on_c, 0, 76, 63
2,24678, Note_on_c, 0, 78, 73
2,24684, Note_on_c, 0, 76, 0
2,24694, Note_on_c, 0, 55, 0
2,24699, Note_on_c, 0, 54, 67
2,24767, Note_on_c, 0, 78, 0
2,24790, Note_on_c, 0, 79, 73
2,24792, Note_on_c, 0, 54, 0
2,24805, Note_on_c, 0, 52, 62
2,24849, Note_on_c, 0, 79, 0
2,24889, Note_on_c, 0, 81, 74
2,24895, Note_on_c, 0, 52, 0
2,24902, Note_on_c, 0, 50, 64
2,24926, Note_on_c, 0, 81, 0
2,24931, Note_on_c, 0, 50, 0
2,25024, Note_on_c, 0, 83, 80
2,25050, Note_on_c, 0, 55, 62
2,25078, Note_on_c, 0, 83, 0
2,25146, Note_on_c, 0, 55, 0
2,25146, Note_on_c, 0, 66, 71
2,25213, Note_on_c, 0, 66, 0
2,25252, Note_on_c, 0, 71, 73
2,25260, Note_on_c, 0, 55, 68
2,25290, Note_on_c, 0, 71, 0
2,25312, Note_on_c, 0, 55, 0
2,25352, Note_on_c, 0, 66, 62
2,25389, Note_on_c, 0, 66, 0
2,25453, Note_on_c, 0, 55, 58
2,25460, Note_on_c, 0, 52, 57
2,25466, Note_on_c, 0, 83, 81
2,25514, Note_on_c, 0, 83, 0
2,25548, Note_on_c, 0, 52, 0
2,25555, Note_on_c, 0, 55, 0
2,25563, Note_on_c, 0, 64, 67
2,25670, Note_on_c, 0, 64, 0
2,25683, Note_on_c, 0, 54, 66
2,25685, Note_on_c, 0, 81, 94
2,25741, Note_on_c, 0, 81, 0
2,25782, Note_on_c, 0, 54, 0
2,25801, Note_on_c, 0, 64, 62
2,25882, Note_on_c, 0, 64, 0
2,25912, Note_on_c, 0, 54, 61
2,25922, Note_on_c, 0, 69, 77
2,25959, Note_on_c, 0, 69, 0
2,25990, Note_on_c, 0, 54, 0
2,26005, Note_on_c, 0, 64, 67
2,26062, Note_on_c, 0, 64, 0
2,26136, Note_on_c, 0, 54, 58
2,26140, Note_on_c, 0, 81, 85
2,26146, Note_on_c, 0, 50, 56
2,26182, Note_on_c, 0, 81, 0
2,26208, Note_on_c, 0, 50, 0
2,26227, Note_on_c, 0, 54, 0
2,26256, Note_on_c, 0, 62, 59
2,26366, Note_on_c, 0, 62, 0
2,26376, Note_on_c, 0, 79, 80
2,26389, Note_on_c, 0, 52, 64
2,26453, Note_on_c, 0, 52, 0
2,26484, Note_on_c, 0, 62, 65
2,26578, Note_on_c, 0, 62, 0
2,26603, Note_on_c, 0, 79, 0
2,26613, Note_on_c, 0, 81, 73
2,26618, Note_on_c, 0, 57, 54
2,26619, Note_on_c, 0, 61, 55
2,26682, Note_on_c, 0, 57, 0
2,26699, Note_on_c, 0, 61, 0
2,26709, Note_on_c, 0, 81, 0
2,26714, Note_on_c, 0, 79, 70
2,26726, Note_on_c, 0, 64, 59
2,26800, Note_on_c, 0, 79, 0
2,26815, Note_on_c, 0, 78, 70
2,26821, Note_on_c, 0, 57, 59
2,26825, Note_on_c, 0, 64, 0
2,26904, Note_on_c, 0, 78, 0
2,26907, Note_on_c, 0, 57, 0
2,26907, Note_on_c, 0, 61, 38
2,26913, Note_on_c, 0, 76, 74
2,26933, Note_on_c, 0, 61, 0
2,27020, Note_on_c, 0, 78, 74
2,27029, Note_on_c, 0, 62, 63
2,27050, Note_on_c, 0, 76, 0
2,27112, Note_on_c, 0, 78, 0
2,27124, Note_on_c, 0, 81, 74
2,27137, Note_on_c, 0, 62, 0
2,27140, Note_on_c, 0, 61, 54
2,27169, Note_on_c, 0, 61, 0
2,27235, Note_on_c, 0, 79, 71
2,27237, Note_on_c, 0, 81, 0
2,27243, Note_on_c, 0, 62, 65
2,27323, Note_on_c, 0, 62, 0
2,27345, Note_on_c, 0, 64, 67
2,27345, Note_on_c, 0, 79, 0
2,27346, Note_on_c, 0, 78, 73
2,27388, Note_on_c, 0, 64, 0
2,27446, Note_on_c, 0, 78, 0
2,27454, Note_on_c, 0, 76, 69
2,27458, Note_on_c, 0, 66, 66
2,27520, Note_on_c, 0, 76, 0
2,27528, Note_on_c, 0, 66, 0
2,27557, Note_on_c, 0, 74, 68
2,27561, Note_on_c, 0, 68, 62
2,27589, Note_on_c, 0, 68, 0
2,27608, Note_on_c, 0, 74, 0
2,27666, Note_on_c, 0, 73, 81
2,27679, Note_on_c, 0, 66, 59
2,27685, Note_on_c, 0, 69, 45
2,27724, Note_on_c, 0, 73, 0
2,27745, Note_on_c, 0, 69, 0
2,27773, Note_on_c, 0, 68, 72
2,27792, Note_on_c, 0, 66, 0
2,27873, Note_on_c, 0, 69, 70
2,27876, Note_on_c, 0, 68, 0
2,27888, Note_on_c, 0, 74, 75
2,27954, Note_on_c, 0, 74, 0
2,27962, Note_on_c, 0, 69, 0
2,27975, Note_on_c, 0, 71, 74
2,28007, Note_on_c, 0, 71, 0
2,28099, Note_on_c, 0, 69, 82
2,28101, Note_on_c, 0, 61, 69
2,28116, Note_on_c, 0, 76, 76
2,28196, Note_on_c, 0, 68, 72
2,28224, Note_on_c, 0, 69, 0
2,28241, Note_on_c, 0, 61, 0
2,28246, Note_on_c, 0, 68, 0
2,28311, Note_on_c, 0, 66, 73
2,28327, Note_on_c, 0, 62, 67
2,28418, Note_on_c, 0, 66, 0
2,28427, Note_on_c, 0, 64, 64
2,28482, Note_on_c, 0, 62, 0
2,28487, Note_on_c, 0, 76, 0
2,28535, Note_on_c, 0, 74, 64
2,28536, Note_on_c, 0, 64, 0
2,28536, Note_on_c, 0, 66, 68
2,28586, Note_on_c, 0, 74, 0
2,28614, Note_on_c, 0, 66, 0
2,28622, Note_on_c, 0, 68, 69
2,28675, Note_on_c, 0, 68, 0
2,28740, Note_on_c, 0, 63, 62
2,28748, Note_on_c, 0, 73, 63
2,28760, Note_on_c, 0, 69, 56
2,28775, Note_on_c, 0, 63, 0
2,28797, Note_on_c, 0, 69, 0
2,28807, Note_on_c, 0, 73, 0
2,28844, Note_on_c, 0, 66, 70
2,28908, Note_on_c, 0, 66, 0
2,28970, Note_on_c, 0, 64, 66
2,28976, Note_on_c, 0, 68, 64
2,28995, Note_on_c, 0, 71, 48
2,28998, Note_on_c, 0, 64, 0
2,29044, Note_on_c, 0, 71, 0
2,29050, Note_on_c, 0, 68, 0
2,29090, Note_on_c, 0, 64, 50
2,29178, Note_on_c, 0, 64, 0
2,29193, Note_on_c, 0, 66, 51
2,29203, Note_on_c, 0, 69, 52
2,29274, Note_on_c, 0, 69, 0
2,29287, Note_on_c, 0, 66, 0
2,29309, Note_on_c, 0, 64, 54
2,29405, Note_on_c, 0, 64, 0
2,29407, Note_on_c, 0, 52, 84
2,29441, Note_on_c, 0, 68, 43
2,29452, Note_on_c, 0, 71, 20
2,29461, Note_on_c, 0, 52, 0
2,29476, Note_on_c, 0, 68, 0
2,29481, Note_on_c, 0, 71, 0
2,29525, Note_on_c, 0, 64, 60
2,29633, Note_on_c, 0, 64, 0
2,29655, Note_on_c, 0, 50, 74
2,29657, Note_on_c, 0, 73, 55
2,29658, Note_on_c, 0, 49, 36
2,29683, Note_on_c, 0, 69, 30
2,29686, Note_on_c, 0, 50, 0
2,29692, Note_on_c, 0, 49, 0
2,29712, Note_on_c, 0, 69, 0
2,29748, Note_on_c, 0, 73, 0
2,29758, Note_on_c, 0, 64, 61
2,29850, Note_on_c, 0, 45, 76
2,29857, Note_on_c, 0, 64, 0
2,29884, Note_on_c, 0, 73, 54
2,29897, Note_on_c, 0, 76, 49
2,29907, Note_on_c, 0, 45, 0
2,29929, Note_on_c, 0, 73, 0
2,29939, Note_on_c, 0, 76, 0
2,29980, Note_on_c, 0, 64, 62
2,30066, Note_on_c, 0, 64, 0
2,30081, Note_on_c, 0, 44, 79
2,30100, Note_on_c, 0, 74, 57
2,30147, Note_on_c, 0, 44, 0
2,30147, Note_on_c, 0, 74, 0
2,30201, Note_on_c, 0, 64, 56
2,30307, Note_on_c, 0, 64, 0
2,30316, Note_on_c, 0, 45, 74
2,30334, Note_on_c, 0, 73, 64
2,30347, Note_on_c, 0, 69, 53
2,30569, Note_on_c, 0, 47, 66
2,30580, Note_on_c, 0, 73, 0
2,30593, Note_on_c, 0, 45, 0
2,30620, Note_on_c, 0, 69, 0
2,30658, Note_on_c, 0, 49, 65
2,30665, Note_on_c, 0, 68, 39
2,30672, Note_on_c, 0, 47, 0
2,30707, Note_on_c, 0, 68, 0
2,30765, Note_on_c, 0, 66, 65
2,30769, Note_on_c, 0, 50, 66
2,30771, Note_on_c, 0, 49, 0
2,30796, Note_on_c, 0, 66, 0
2,30869, Note_on_c, 0, 50, 0
2,30873, Note_on_c, 0, 64, 69
2,30887, Note_on_c, 0, 52, 64
2,30908, Note_on_c, 0, 64, 0
2,30957, Note_on_c, 0, 52, 0
2,31001, Note_on_c, 0, 62, 75
2,31003, Note_on_c, 0, 54, 70
2,31042, Note_on_c, 0, 54, 0
2,31107, Note_on_c, 0, 62, 0
2,31115, Note_on_c, 0, 73, 68
2,31228, Note_on_c, 0, 69, 75
2,31232, Note_on_c, 0, 73, 0
2,31240, Note_on_c, 0, 42, 57
2,31243, Note_on_c, 0, 62, 48
2,31293, Note_on_c, 0, 42, 0
2,31303, Note_on_c, 0, 62, 0
2,31329, Note_on_c, 0, 73, 67
2,31339, Note_on_c, 0, 69, 0
2,31440, Note_on_c, 0, 73, 0
2,31445, Note_on_c, 0, 62, 50
2,31445, Note_on_c, 0, 68, 67
2,31448, Note_on_c, 0, 54, 62
2,31500, Note_on_c, 0, 62, 0
2,31511, Note_on_c, 0, 54, 0
2,31550, Note_on_c, 0, 71, 64
2,31574, Note_on_c, 0, 68, 0
2,31627, Note_on_c, 0, 71, 0
2,31661, Note_on_c, 0, 52, 75
2,31663, Note_on_c, 0, 61, 65
2,31712, Note_on_c, 0, 52, 0
2,31761, Note_on_c, 0, 61, 0
2,31767, Note_on_c, 0, 71, 62
2,31879, Note_on_c, 0, 68, 71
2,31883, Note_on_c, 0, 71, 0
2,31884, Note_on_c, 0, 40, 66
2,31924, Note_on_c, 0, 61, 51
2,31945, Note_on_c, 0, 40, 0
2,31972, Note_on_c, 0, 61, 0
2,32006, Note_on_c, 0, 71, 59
2,32026, Note_on_c, 0, 68, 0
2,32094, Note_on_c, 0, 71, 0
2,32108, Note_on_c, 0, 52, 62
2,32116, Note_on_c, 0, 66, 60
2,32134, Note_on_c, 0, 61, 32
2,32157, Note_on_c, 0, 52, 0
2,32199, Note_on_c, 0, 61, 0
2,32210, Note_on_c, 0, 69, 60
2,32229, Note_on_c, 0, 66, 0
2,32284, Note_on_c, 0, 69, 0
2,32323, Note_on_c, 0, 50, 61
2,32342, Note_on_c, 0, 59, 61
2,32443, Note_on_c, 0, 69, 63
2,32444, Note_on_c, 0, 59, 0
2,32522, Note_on_c, 0, 50, 0
2,32525, Note_on_c, 0, 69, 0
2,32544, Note_on_c, 0, 52, 52
2,32557, Note_on_c, 0, 64, 52
2,32558, Note_on_c, 0, 68, 56
2,32621, Note_on_c, 0, 64, 0
2,32636, Note_on_c, 0, 52, 0
2,32645, Note_on_c, 0, 68, 0
2,32650, Note_on_c, 0, 50, 55
2,32660, Note_on_c, 0, 71, 58
2,32753, Note_on_c, 0, 50, 0
2,32767, Note_on_c, 0, 71, 0
2,32768, Note_on_c, 0, 49, 60
2,32789, Note_on_c, 0, 64, 48
2,32837, Note_on_c, 0, 49, 0
2,32866, Note_on_c, 0, 47, 60
2,32879, Note_on_c, 0, 68, 63
2,32886, Note_on_c, 0, 64, 0
2,32960, Note_on_c, 0, 47, 0
2,32966, Note_on_c, 0, 49, 57
2,32993, Note_on_c, 0, 68, 0
2,33003, Note_on_c, 0, 69, 70
2,33064, Note_on_c, 0, 49, 0
2,33074, Note_on_c, 0, 52, 58
2,33173, Note_on_c, 0, 52, 0
2,33173, Note_on_c, 0, 69, 0
2,33202, Note_on_c, 0, 57, 57
2,33221, Note_on_c, 0, 64, 67
2,33247, Note_on_c, 0, 61, 32
2,33268, Note_on_c, 0, 64, 0
2,33278, Note_on_c, 0, 61, 0
2,33308, Note_on_c, 0, 52, 57
2,33366, Note_on_c, 0, 57, 0
2,33431, Note_on_c, 0, 66, 66
2,33434, Note_on_c, 0, 51, 51
2,33446, Note_on_c, 0, 60, 55
2,33479, Note_on_c, 0, 52, 0
2,33531, Note_on_c, 0, 51, 0
2,33564, Note_on_c, 0, 57, 57
2,33657, Note_on_c, 0, 57, 0
2,33667, Note_on_c, 0, 52, 52
2,33681, Note_on_c, 0, 60, 0
2,33691, Note_on_c, 0, 67, 69
2,33720, Note_on_c, 0, 66, 0
2,33761, Note_on_c, 0, 52, 0
2,33783, Note_on_c, 0, 55, 60
2,33877, Note_on_c, 0, 55, 0
2,33895, Note_on_c, 0, 67, 0
2,33907, Note_on_c, 0, 54, 63
2,33909, Note_on_c, 0, 68, 70
2,33953, Note_on_c, 0, 68, 0
2,34015, Note_on_c, 0, 52, 64
2,34018, Note_on_c, 0, 54, 0
2,34110, Note_on_c, 0, 52, 0
2,34120, Note_on_c, 0, 50, 60
2,34134, Note_on_c, 0, 70, 73
2,34137, Note_on_c, 0, 64, 60
2,34219, Note_on_c, 0, 50, 0
2,34240, Note_on_c, 0, 49, 66
2,34263, Note_on_c, 0, 64, 0
2,34352, Note_on_c, 0, 49, 0
2,34361, Note_on_c, 0, 50, 64
2,34367, Note_on_c, 0, 71, 72
2,34370, Note_on_c, 0, 70, 0
2,34466, Note_on_c, 0, 50, 0
2,34472, Note_on_c, 0, 54, 68
2,34578, Note_on_c, 0, 54, 0
2,34591, Note_on_c, 0, 59, 68
2,34591, Note_on_c, 0, 66, 79
2,34597, Note_on_c, 0, 71, 0
2,34605, Note_on_c, 0, 63, 60
2,34633, Note_on_c, 0, 63, 0
2,34646, Note_on_c, 0, 66, 0
2,34690, Note_on_c, 0, 54, 64
2,34707, Note_on_c, 0, 59, 0
2,34807, Note_on_c, 0, 68, 79
2,34808, Note_on_c, 0, 54, 0
2,34812, Note_on_c, 0, 62, 74
2,34815, Note_on_c, 0, 53, 63
2,34903, Note_on_c, 0, 53, 0
2,34911, Note_on_c, 0, 59, 64
2,35008, Note_on_c, 0, 62, 0
2,35014, Note_on_c, 0, 59, 0
2,35026, Note_on_c, 0, 54, 67
2,35046, Note_on_c, 0, 69, 74
2,35096, Note_on_c, 0, 68, 0
2,35133, Note_on_c, 0, 54, 0
2,35141, Note_on_c, 0, 57, 67
2,35263, Note_on_c, 0, 57, 0
2,35272, Note_on_c, 0, 69, 0
2,35273, Note_on_c, 0, 70, 72
2,35277, Note_on_c, 0, 56, 63
2,35298, Note_on_c, 0, 61, 24
2,35312, Note_on_c, 0, 70, 0
2,35335, Note_on_c, 0, 61, 0
2,35365, Note_on_c, 0, 54, 67
2,35374, Note_on_c, 0, 56, 0
2,35445, Note_on_c, 0, 54, 0
2,35470, Note_on_c, 0, 53, 67
2,35494, Note_on_c, 0, 66, 71
2,35494, Note_on_c, 0, 72, 73
2,35583, Note_on_c, 0, 51, 59
2,35588, Note_on_c, 0, 53, 0
2,35693, Note_on_c, 0, 72, 0
2,35704, Note_on_c, 0, 51, 0
2,35709, Note_on_c, 0, 49, 66
2,35712, Note_on_c, 0, 73, 72
2,35819, Note_on_c, 0, 49, 0
2,35823, Note_on_c, 0, 50, 72
2,35913, Note_on_c, 0, 73, 0
2,35924, Note_on_c, 0, 50, 0
2,35941, Note_on_c, 0, 49, 74
2,35941, Note_on_c, 0, 65, 79
2,35944, Note_on_c, 0, 66, 0
2,35989, Note_on_c, 0, 65, 0
2,36042, Note_on_c, 0, 47, 72
2,36045, Note_on_c, 0, 49, 0
2,36138, Note_on_c, 0, 47, 0
2,36151, Note_on_c, 0, 73, 79
2,36157, Note_on_c, 0, 45, 71
2,36243, Note_on_c, 0, 44, 67
2,36250, Note_on_c, 0, 45, 0
2,36341, Note_on_c, 0, 44, 0
2,36357, Note_on_c, 0, 42, 66
2,36368, Note_on_c, 0, 69, 81
2,36378, Note_on_c, 0, 73, 0
2,36427, Note_on_c, 0, 69, 0
2,36428, Note_on_c, 0, 42, 0
2,36474, Note_on_c, 0, 54, 54
2,36515, Note_on_c, 0, 54, 0
2,36582, Note_on_c, 0, 69, 76
2,36590, Note_on_c, 0, 66, 79
2,36596, Note_on_c, 0, 56, 54
2,36627, Note_on_c, 0, 69, 0
2,36631, Note_on_c, 0, 66, 0
2,36708, Note_on_c, 0, 57, 63
2,36742, Note_on_c, 0, 56, 0
2,36802, Note_on_c, 0, 57, 0
2,36814, Note_on_c, 0, 68, 77
2,36824, Note_on_c, 0, 65, 63
2,36826, Note_on_c, 0, 59, 57
2,36855, Note_on_c, 0, 65, 0
2,36877, Note_on_c, 0, 68, 0
2,36902, Note_on_c, 0, 59, 0
2,36909, Note_on_c, 0, 61, 66
2,37032, Note_on_c, 0, 66, 81
2,37036, Note_on_c, 0, 62, 72
2,37038, Note_on_c, 0, 61, 0
2,37133, Note_on_c, 0, 62, 0
2,37139, Note_on_c, 0, 64, 60
2,37250, Note_on_c, 0, 64, 0
2,37255, Note_on_c, 0, 68, 71
2,37264, Note_on_c, 0, 62, 67
2,37272, Note_on_c, 0, 66, 0
2,37366, Note_on_c, 0, 62, 0
2,37370, Note_on_c, 0, 61, 68
2,37381, Note_on_c, 0, 70, 69
2,37400, Note_on_c, 0, 68, 0
2,37456, Note_on_c, 0, 61, 0
2,37457, Note_on_c, 0, 70, 0
2,37479, Note_on_c, 0, 59, 63
2,37485, Note_on_c, 0, 71, 73
2,37557, Note_on_c, 0, 58, 69
2,37564, Note_on_c, 0, 59, 0
2,37592, Note_on_c, 0, 73, 70
2,37596, Note_on_c, 0, 71, 0
2,37619, Note_on_c, 0, 58, 0
2,37693, Note_on_c, 0, 73, 0
2,37694, Note_on_c, 0, 59, 76
2,37694, Note_on_c, 0, 74, 71
2,37766, Note_on_c, 0, 59, 0
2,37775, Note_on_c, 0, 74, 0
2,37806, Note_on_c, 0, 81, 71
2,37911, Note_on_c, 0, 81, 0
2,37923, Note_on_c, 0, 62, 71
2,37925, Note_on_c, 0, 71, 68
2,38012, Note_on_c, 0, 81, 76
2,38013, Note_on_c, 0, 62, 0
2,38017, Note_on_c, 0, 71, 0
2,38138, Note_on_c, 0, 81, 0
2,38145, Note_on_c, 0, 74, 66
2,38150, Note_on_c, 0, 71, 61
2,38152, Note_on_c, 0, 52, 67
2,38225, Note_on_c, 0, 71, 0
2,38229, Note_on_c, 0, 52, 0
2,38247, Note_on_c, 0, 74, 0
2,38258, Note_on_c, 0, 80, 72
2,38367, Note_on_c, 0, 57, 74
2,38372, Note_on_c, 0, 73, 75
2,38385, Note_on_c, 0, 69, 62
2,38385, Note_on_c, 0, 80, 0
2,38427, Note_on_c, 0, 57, 0
2,38462, Note_on_c, 0, 69, 0
2,38475, Note_on_c, 0, 73, 0
2,38482, Note_on_c, 0, 80, 73
2,38573, Note_on_c, 0, 80, 0
2,38575, Note_on_c, 0, 61, 84
2,38578, Note_on_c, 0, 69, 67
2,38662, Note_on_c, 0, 61, 0
2,38669, Note_on_c, 0, 69, 0
2,38669, Note_on_c, 0, 80, 74
2,38789, Note_on_c, 0, 62, 80
2,38791, Note_on_c, 0, 80, 0
2,38796, Note_on_c, 0, 69, 59
2,38800, Note_on_c, 0, 73, 67
2,38849, Note_on_c, 0, 69, 0
2,38898, Note_on_c, 0, 73, 0
2,38902, Note_on_c, 0, 78, 65
2,39000, Note_on_c, 0, 78, 0
2,39013, Note_on_c, 0, 68, 49
2,39046, Note_on_c, 0, 71, 43
2,39090, Note_on_c, 0, 71, 0
2,39096, Note_on_c, 0, 78, 63
2,39181, Note_on_c, 0, 68, 0
2,39181, Note_on_c, 0, 78, 0
2,39207, Note_on_c, 0, 62, 0
2,39221, Note_on_c, 0, 61, 55
2,39227, Note_on_c, 0, 77, 51
2,39232, Note_on_c, 0, 73, 55
2,39310, Note_on_c, 0, 73, 0
2,39317, Note_on_c, 0, 77, 0
2,39331, Note_on_c, 0, 80, 64
2,39346, Note_on_c, 0, 71, 56
2,39435, Note_on_c, 0, 71, 0
2,39440, Note_on_c, 0, 73, 64
2,39445, Note_on_c, 0, 80, 0
2,39494, Note_on_c, 0, 69, 29
2,39541, Note_on_c, 0, 77, 64
2,39549, Note_on_c, 0, 73, 0
2,39585, Note_on_c, 0, 68, 63
2,39585, Note_on_c, 0, 69, 0
2,39625, Note_on_c, 0, 61, 0
2,39629, Note_on_c, 0, 68, 0
2,39638, Note_on_c, 0, 77, 0
2,39666, Note_on_c, 0, 78, 73
2,39702, Note_on_c, 0, 69, 55
2,39791, Note_on_c, 0, 59, 62
2,39848, Note_on_c, 0, 69, 0
2,39876, Note_on_c, 0, 78, 0
2,39878, Note_on_c, 0, 59, 0
2,39888, Note_on_c, 0, 73, 61
2,39895, Note_on_c, 0, 57, 57
2,39921, Note_on_c, 0, 73, 0
2,39978, Note_on_c, 0, 57, 0
2,39990, Note_on_c, 0, 56, 64
2,40069, Note_on_c, 0, 56, 0
2,40093, Note_on_c, 0, 54, 63
2,40099, Note_on_c, 0, 78, 67
2,40184, Note_on_c, 0, 54, 0
2,40203, Note_on_c, 0, 52, 65
2,40234, Note_on_c, 0, 52, 0
2,40314, Note_on_c, 0, 51, 61
2,40405, Note_on_c, 0, 51, 0
2,40432, Note_on_c, 0, 76, 61
2,40502, Note_on_c, 0, 78, 0
2,40547, Note_on_c, 0, 59, 69
2,40552, Note_on_c, 0, 75, 62
2,40554, Note_on_c, 0, 76, 0
2,40659, Note_on_c, 0, 73, 60
2,40674, Note_on_c, 0, 75, 0
2,40751, Note_on_c, 0, 73, 0
2,40769, Note_on_c, 0, 71, 65
2,40879, Note_on_c, 0, 71, 0
2,40888, Note_on_c, 0, 69, 62
2,40998, Note_on_c, 0, 69, 0
2,41006, Note_on_c, 0, 67, 64
2,41090, Note_on_c, 0, 57, 52
2,41097, Note_on_c, 0, 59, 0
2,41118, Note_on_c, 0, 66, 64
2,41132, Note_on_c, 0, 67, 0
2,41210, Note_on_c, 0, 57, 0
2,41216, Note_on_c, 0, 55, 61
2,41234, Note_on_c, 0, 71, 68
2,41235, Note_on_c, 0, 66, 0
2,41264, Note_on_c, 0, 71, 0
2,41310, Note_on_c, 0, 54, 62
2,41322, Note_on_c, 0, 55, 0
2,41424, Note_on_c, 0, 54, 0
2,41438, Note_on_c, 0, 76, 59
2,41453, Note_on_c, 0, 67, 33
2,41481, Note_on_c, 0, 52, 43
2,41541, Note_on_c, 0, 52, 0
2,41546, Note_on_c, 0, 50, 62
2,41570, Note_on_c, 0, 67, 0
2,41609, Note_on_c, 0, 50, 0
2,41661, Note_on_c, 0, 49, 66
2,41758, Note_on_c, 0, 74, 64
2,41760, Note_on_c, 0, 49, 0
2,41800, Note_on_c, 0, 76, 0
2,41873, Note_on_c, 0, 57, 69
2,41881, Note_on_c, 0, 73, 64
2,41916, Note_on_c, 0, 74, 0
2,41990, Note_on_c, 0, 71, 68
2,42020, Note_on_c, 0, 73, 0
2,42095, Note_on_c, 0, 71, 0
2,42101, Note_on_c, 0, 69, 67
2,42206, Note_on_c, 0, 67, 69
2,42207, Note_on_c, 0, 69, 0
2,42315, Note_on_c, 0, 67, 0
2,42322, Note_on_c, 0, 66, 66
2,42427, Note_on_c, 0, 64, 66
2,42434, Note_on_c, 0, 57, 0
2,42438, Note_on_c, 0, 55, 56
2,42481, Note_on_c, 0, 66, 0
2,42533, Note_on_c, 0, 64, 0
2,42536, Note_on_c, 0, 69, 70
2,42540, Note_on_c, 0, 55, 0
2,42544, Note_on_c, 0, 54, 67
2,42555, Note_on_c, 0, 62, 40
2,42570, Note_on_c, 0, 69, 0
2,42586, Note_on_c, 0, 62, 0
2,42633, Note_on_c, 0, 54, 0
2,42643, Note_on_c, 0, 52, 72
2,42769, Note_on_c, 0, 74, 64
2,42774, Note_on_c, 0, 66, 59
2,42777, Note_on_c, 0, 50, 65
2,42778, Note_on_c, 0, 52, 0
2,42853, Note_on_c, 0, 66, 0
2,42874, Note_on_c, 0, 50, 0
2,42875, Note_on_c, 0, 49, 72
2,42926, Note_on_c, 0, 49, 0
2,42987, Note_on_c, 0, 47, 76
2,43086, Note_on_c, 0, 66, 71
2,43120, Note_on_c, 0, 47, 0
2,43138, Note_on_c, 0, 74, 0
2,43208, Note_on_c, 0, 55, 76
2,43209, Note_on_c, 0, 64, 69
2,43217, Note_on_c, 0, 66, 0
2,43318, Note_on_c, 0, 74, 67
2,43319, Note_on_c, 0, 64, 0
2,43433, Note_on_c, 0, 73, 68
2,43545, Note_on_c, 0, 55, 0
2,43546, Note_on_c, 0, 74, 0
2,43551, Note_on_c, 0, 71, 72
2,43668, Note_on_c, 0, 70, 78
2,43686, Note_on_c, 0, 71, 0
2,43741, Note_on_c, 0, 73, 0
2,43774, Note_on_c, 0, 64, 70
2,43883, Note_on_c, 0, 70, 0
2,43886, Note_on_c, 0, 71, 63
2,43893, Note_on_c, 0, 64, 0
2,43899, Note_on_c, 0, 62, 69
2,43914, Note_on_c, 0, 54, 44
2,43936, Note_on_c, 0, 71, 0
2,43995, Note_on_c, 0, 62, 0
2,44009, Note_on_c, 0, 61, 67
2,44105, Note_on_c, 0, 61, 0
2,44118, Note_on_c, 0, 73, 77
2,44122, Note_on_c, 0, 59, 69
2,44177, Note_on_c, 0, 73, 0
2,44196, Note_on_c, 0, 59, 0
2,44228, Note_on_c, 0, 58, 64
2,44291, Note_on_c, 0, 54, 0
2,44321, Note_on_c, 0, 58, 0
2,44331, Note_on_c, 0, 59, 65
2,44346, Note_on_c, 0, 74, 76
2,44358, Note_on_c, 0, 59, 0
2,44448, Note_on_c, 0, 52, 74
2,44563, Note_on_c, 0, 66, 78
2,44566, Note_on_c, 0, 50, 69
2,44568, Note_on_c, 0, 52, 0
2,44568, Note_on_c, 0, 74, 0
2,44621, Note_on_c, 0, 66, 0
2,44667, Note_on_c, 0, 49, 74
2,44677, Note_on_c, 0, 50, 0
2,44771, Note_on_c, 0, 47, 70
2,44782, Note_on_c, 0, 71, 74
2,44785, Note_on_c, 0, 49, 0
2,44881, Note_on_c, 0, 47, 0
2,44888, Note_on_c, 0, 45, 75
2,44926, Note_on_c, 0, 45, 0
2,44997, Note_on_c, 0, 43, 76
2,45054, Note_on_c, 0, 43, 0
2,45089, Note_on_c, 0, 73, 73
2,45114, Note_on_c, 0, 71, 0
2,45178, Note_on_c, 0, 73, 0
2,45202, Note_on_c, 0, 74, 69
2,45213, Note_on_c, 0, 59, 63
2,45220, Note_on_c, 0, 55, 52
2,45288, Note_on_c, 0, 76, 75
2,45300, Note_on_c, 0, 74, 0
2,45384, Note_on_c, 0, 59, 0
2,45404, Note_on_c, 0, 78, 80
2,45413, Note_on_c, 0, 64, 53
2,45438, Note_on_c, 0, 76, 0
2,45483, Note_on_c, 0, 64, 0
2,45490, Note_on_c, 0, 79, 75
2,45492, Note_on_c, 0, 78, 0
2,45520, Note_on_c, 0, 79, 0
2,45651, Note_on_c, 0, 54, 50
2,45672, Note_on_c, 0, 70, 68
2,45759, Note_on_c, 0, 55, 0
2,45782, Note_on_c, 0, 67, 71
2,45809, Note_on_c, 0, 70, 0
2,45860, Note_on_c, 0, 64, 37
2,45885, Note_on_c, 0, 64, 0
2,45898, Note_on_c, 0, 66, 70
2,45902, Note_on_c, 0, 67, 0
2,45969, Note_on_c, 0, 54, 0
2,45985, Note_on_c, 0, 64, 65
2,45989, Note_on_c, 0, 66, 0
2,46110, Note_on_c, 0, 62, 72
2,46111, Note_on_c, 0, 64, 0
2,46208, Note_on_c, 0, 61, 77
2,46212, Note_on_c, 0, 62, 0
2,46257, Note_on_c, 0, 61, 0
2,46332, Note_on_c, 0, 62, 81
2,46415, Note_on_c, 0, 62, 0
2,46432, Note_on_c, 0, 47, 59
2,46541, Note_on_c, 0, 49, 62
2,46550, Note_on_c, 0, 59, 79
2,46590, Note_on_c, 0, 47, 0
2,46602, Note_on_c, 0, 59, 0
2,46631, Note_on_c, 0, 50, 67
2,46660, Note_on_c, 0, 49, 0
2,46722, Note_on_c, 0, 50, 0
2,46735, Note_on_c, 0, 52, 68
2,46764, Note_on_c, 0, 58, 74
2,46825, Note_on_c, 0, 54, 78
2,46836, Note_on_c, 0, 52, 0
2,46862, Note_on_c, 0, 58, 0
2,46897, Note_on_c, 0, 54, 0
2,46975, Note_on_c, 0, 55, 80
2,46982, Note_on_c, 0, 59, 72
2,47090, Note_on_c, 0, 55, 0
2,47197, Note_on_c, 0, 52, 82
2,47199, Note_on_c, 0, 59, 0
2,47211, Note_on_c, 0, 61, 63
2,47287, Note_on_c, 0, 52, 0
2,47299, Note_on_c, 0, 63, 71
2,47340, Note_on_c, 0, 61, 0
2,47385, Note_on_c, 0, 63, 0
2,47408, Note_on_c, 0, 64, 75
2,47418, Note_on_c, 0, 51, 76
2,47482, Note_on_c, 0, 51, 0
2,47508, Note_on_c, 0, 66, 80
2,47530, Note_on_c, 0, 64, 0
2,47573, Note_on_c, 0, 66, 0
2,47630, Note_on_c, 0, 52, 77
2,47638, Note_on_c, 0, 67, 89
2,47746, Note_on_c, 0, 67, 0
2,47855, Note_on_c, 0, 54, 69
2,47861, Note_on_c, 0, 64, 83
2,47889, Note_on_c, 0, 52, 0
2,47916, Note_on_c, 0, 64, 0
2,47966, Note_on_c, 0, 55, 75
2,47989, Note_on_c, 0, 54, 0
2,48060, Note_on_c, 0, 63, 77
2,48080, Note_on_c, 0, 57, 74
2,48085, Note_on_c, 0, 55, 0
2,48113, Note_on_c, 0, 63, 0
2,48176, Note_on_c, 0, 59, 77
2,48180, Note_on_c, 0, 57, 0
2,48250, Note_on_c, 0, 59, 0
2,48302, Note_on_c, 0, 60, 76
2,48306, Note_on_c, 0, 64, 79
2,48334, Note_on_c, 0, 60, 0
2,48357, Note_on_c, 0, 64, 0
2,48421, Note_on_c, 0, 79, 65
2,48487, Note_on_c, 0, 79, 0
2,48519, Note_on_c, 0, 48, 75
2,48536, Note_on_c, 0, 69, 66
2,48559, Note_on_c, 0, 48, 0
2,48617, Note_on_c, 0, 69, 0
2,48626, Note_on_c, 0, 79, 61
2,48693, Note_on_c, 0, 79, 0
2,48741, Note_on_c, 0, 64, 79
2,48746, Note_on_c, 0, 60, 70
2,48757, Note_on_c, 0, 69, 55
2,48771, Note_on_c, 0, 60, 0
2,48774, Note_on_c, 0, 64, 0
2,48830, Note_on_c, 0, 69, 0
2,48843, Note_on_c, 0, 78, 61
2,48914, Note_on_c, 0, 78, 0
2,48957, Note_on_c, 0, 63, 83
2,48965, Note_on_c, 0, 59, 75
2,48989, Note_on_c, 0, 67, 55
2,48998, Note_on_c, 0, 59, 0
2,49000, Note_on_c, 0, 63, 0
2,49080, Note_on_c, 0, 67, 0
2,49093, Note_on_c, 0, 78, 63
2,49160, Note_on_c, 0, 78, 0
2,49186, Note_on_c, 0, 48, 75
2,49200, Note_on_c, 0, 67, 58
2,49222, Note_on_c, 0, 48, 0
2,49276, Note_on_c, 0, 67, 0
2,49289, Note_on_c, 0, 78, 63
2,49366, Note_on_c, 0, 78, 0
2,49400, Note_on_c, 0, 64, 68
2,49401, Note_on_c, 0, 67, 56
2,49410, Note_on_c, 0, 59, 58
2,49426, Note_on_c, 0, 64, 0
2,49438, Note_on_c, 0, 59, 0
2,49481, Note_on_c, 0, 67, 0
2,49498, Note_on_c, 0, 76, 61
2,49575, Note_on_c, 0, 76, 0
2,49612, Note_on_c, 0, 57, 69
2,49623, Note_on_c, 0, 66, 68
2,49732, Note_on_c, 0, 66, 0
2,49733, Note_on_c, 0, 76, 52
2,49822, Note_on_c, 0, 76, 0
2,49832, Note_on_c, 0, 57, 0
2,49838, Note_on_c, 0, 75, 52
2,49847, Note_on_c, 0, 59, 62
2,49894, Note_on_c, 0, 75, 0
2,49941, Note_on_c, 0, 78, 57
2,49957, Note_on_c, 0, 59, 0
2,49966, Note_on_c, 0, 57, 55
2,50006, Note_on_c, 0, 78, 0
2,50045, Note_on_c, 0, 57, 0
2,50052, Note_on_c, 0, 55, 67
2,50060, Note_on_c, 0, 71, 36
2,50144, Note_on_c, 0, 55, 0
2,50146, Note_on_c, 0, 54, 69
2,50157, Note_on_c, 0, 71, 0
2,50166, Note_on_c, 0, 75, 56
2,50205, Note_on_c, 0, 54, 0
2,50226, Note_on_c, 0, 75, 0
2,50264, Note_on_c, 0, 55, 76
2,50265, Note_on_c, 0, 76, 64
2,50266, Note_on_c, 0, 59, 68
2,50291, Note_on_c, 0, 55, 0
2,50293, Note_on_c, 0, 59, 0
2,50313, Note_on_c, 0, 76, 0
2,50368, Note_on_c, 0, 75, 69
2,50429, Note_on_c, 0, 75, 0
2,50486, Note_on_c, 0, 43, 65
2,50486, Note_on_c, 0, 76, 62
2,50510, Note_on_c, 0, 45, 34
2,50515, Note_on_c, 0, 43, 0
2,50546, Note_on_c, 0, 45, 0
2,50584, Note_on_c, 0, 79, 69
2,50590, Note_on_c, 0, 76, 0
2,50676, Note_on_c, 0, 79, 0
2,50693, Note_on_c, 0, 55, 57
2,50693, Note_on_c, 0, 83, 68
2,50699, Note_on_c, 0, 64, 52
2,50763, Note_on_c, 0, 83, 0
2,50787, Note_on_c, 0, 74, 66
2,50801, Note_on_c, 0, 64, 0
2,50810, Note_on_c, 0, 74, 0
2,50910, Note_on_c, 0, 73, 68
2,50916, Note_on_c, 0, 69, 58
2,50964, Note_on_c, 0, 69, 0
2,51023, Note_on_c, 0, 71, 69
2,51024, Note_on_c, 0, 73, 0
2,51106, Note_on_c, 0, 55, 0
2,51131, Note_on_c, 0, 73, 70
2,51134, Note_on_c, 0, 57, 62
2,51137, Note_on_c, 0, 71, 0
2,51218, Note_on_c, 0, 57, 0
2,51222, Note_on_c, 0, 73, 0
2,51236, Note_on_c, 0, 76, 67
2,51238, Note_on_c, 0, 55, 56
2,51312, Note_on_c, 0, 55, 0
2,51318, Note_on_c, 0, 54, 66
2,51324, Note_on_c, 0, 76, 0
2,51327, Note_on_c, 0, 69, 59
2,51407, Note_on_c, 0, 73, 61
2,51411, Note_on_c, 0, 69, 0
2,51418, Note_on_c, 0, 54, 0
2,51420, Note_on_c, 0, 52, 70
2,51440, Note_on_c, 0, 73, 0
2,51526, Note_on_c, 0, 52, 0
2,51528, Note_on_c, 0, 54, 80
2,51534, Note_on_c, 0, 57, 69
2,51553, Note_on_c, 0, 74, 61
2,51559, Note_on_c, 0, 54, 0
2,51562, Note_on_c, 0, 57, 0
2,51619, Note_on_c, 0, 74, 0
2,51629, Note_on_c, 0, 73, 70
2,51710, Note_on_c, 0, 73, 0
2,51745, Note_on_c, 0, 42, 74
2,51755, Note_on_c, 0, 74, 64
2,51792, Note_on_c, 0, 42, 0
2,51848, Note_on_c, 0, 74, 0
2,51849, Note_on_c, 0, 78, 74
2,51941, Note_on_c, 0, 78, 0
2,51963, Note_on_c, 0, 81, 68
2,51969, Note_on_c, 0, 62, 54
2,51976, Note_on_c, 0, 54, 58
2,51987, Note_on_c, 0, 81, 0
2,52108, Note_on_c, 0, 62, 0
2,52179, Note_on_c, 0, 71, 70
2,52190, Note_on_c, 0, 54, 0
2,52207, Note_on_c, 0, 67, 32
2,52279, Note_on_c, 0, 67, 0
2,52280, Note_on_c, 0, 70, 71
2,52286, Note_on_c, 0, 71, 0
2,52396, Note_on_c, 0, 52, 77
2,52404, Note_on_c, 0, 71, 73
2,52409, Note_on_c, 0, 70, 0
2,52429, Note_on_c, 0, 52, 0
2,52487, Note_on_c, 0, 71, 0
2,52498, Note_on_c, 0, 74, 68
2,52601, Note_on_c, 0, 50, 71
2,52618, Note_on_c, 0, 73, 69
2,52644, Note_on_c, 0, 50, 0
2,52663, Note_on_c, 0, 74, 0
2,52726, Note_on_c, 0, 71, 70
2,52772, Note_on_c, 0, 73, 0
2,52818, Note_on_c, 0, 49, 70
2,52823, Note_on_c, 0, 71, 0
2,52829, Note_on_c, 0, 70, 71
2,52925, Note_on_c, 0, 70, 0
2,52929, Note_on_c, 0, 71, 70
2,52930, Note_on_c, 0, 50, 74
2,52934, Note_on_c, 0, 49, 0
2,53013, Note_on_c, 0, 50, 0
2,53038, Note_on_c, 0, 73, 68
2,53041, Note_on_c, 0, 52, 66
2,53045, Note_on_c, 0, 71, 0
2,53108, Note_on_c, 0, 52, 0
2,53131, Note_on_c, 0, 74, 68
2,53135, Note_on_c, 0, 54, 70
2,53167, Note_on_c, 0, 73, 0
2,53233, Note_on_c, 0, 54, 0
2,53238, Note_on_c, 0, 76, 74
2,53244, Note_on_c, 0, 74, 0
2,53251, Note_on_c, 0, 55, 63
2,53313, Note_on_c, 0, 47, 55
2,53321, Note_on_c, 0, 55, 0
2,53333, Note_on_c, 0, 76, 0
2,53335, Note_on_c, 0, 67, 71
2,53363, Note_on_c, 0, 47, 0
2,53363, Note_on_c, 0, 67, 0
2,53434, Note_on_c, 0, 46, 68
2,53466, Note_on_c, 0, 66, 79
2,53531, Note_on_c, 0, 46, 0
2,53553, Note_on_c, 0, 55, 62
2,53644, Note_on_c, 0, 55, 0
2,53658, Note_on_c, 0, 54, 68
2,53662, Note_on_c, 0, 70, 71
2,53675, Note_on_c, 0, 73, 61
2,53699, Note_on_c, 0, 70, 0
2,53710, Note_on_c, 0, 73, 0
2,53733, Note_on_c, 0, 54, 0
2,53766, Note_on_c, 0, 52, 69
2,53877, Note_on_c, 0, 52, 0
2,53880, Note_on_c, 0, 50, 65
2,53901, Note_on_c, 0, 78, 83
2,53926, Note_on_c, 0, 66, 0
2,53980, Note_on_c, 0, 49, 70
2,53984, Note_on_c, 0, 50, 0
2,54086, Note_on_c, 0, 49, 0
2,54102, Note_on_c, 0, 47, 69
2,54107, Note_on_c, 0, 78, 0
2,54109, Note_on_c, 0, 71, 78
2,54112, Note_on_c, 0, 74, 74
2,54157, Note_on_c, 0, 71, 0
2,54170, Note_on_c, 0, 74, 0
2,54210, Note_on_c, 0, 49, 70
2,54220, Note_on_c, 0, 47, 0
2,54317, Note_on_c, 0, 49, 0
2,54319, Note_on_c, 0, 50, 72
2,54335, Note_on_c, 0, 71, 86
2,54389, Note_on_c, 0, 71, 0
2,54418, Note_on_c, 0, 50, 0
2,54436, Note_on_c, 0, 52, 72
2,54536, Note_on_c, 0, 52, 0
2,54557, Note_on_c, 0, 70, 83
2,54558, Note_on_c, 0, 54, 66
2,54606, Note_on_c, 0, 70, 0
2,54649, Note_on_c, 0, 54, 0
2,54650, Note_on_c, 0, 52, 72
2,54772, Note_on_c, 0, 52, 0
2,54778, Note_on_c, 0, 50, 63
2,54781, Note_on_c, 0, 71, 80
2,54888, Note_on_c, 0, 54, 67
2,54894, Note_on_c, 0, 50, 0
2,54979, Note_on_c, 0, 71, 0
2,54985, Note_on_c, 0, 54, 0
2,54996, Note_on_c, 0, 52, 66
2,55003, Note_on_c, 0, 73, 74
2,55066, Note_on_c, 0, 73, 0
2,55105, Note_on_c, 0, 74, 71
2,55112, Note_on_c, 0, 50, 62
2,55119, Note_on_c, 0, 52, 0
2,55201, Note_on_c, 0, 74, 0
2,55213, Note_on_c, 0, 76, 67
2,55223, Note_on_c, 0, 50, 0
2,55249, Note_on_c, 0, 48, 51
2,55288, Note_on_c, 0, 48, 0
2,55299, Note_on_c, 0, 76, 0
2,55299, Note_on_c, 0, 78, 72
2,55307, Note_on_c, 0, 47, 61
2,55366, Note_on_c, 0, 78, 0
2,55423, Note_on_c, 0, 79, 73
2,55432, Note_on_c, 0, 52, 79
2,55444, Note_on_c, 0, 47, 0
2,55470, Note_on_c, 0, 52, 0
2,55528, Note_on_c, 0, 74, 65
2,55555, Note_on_c, 0, 79, 0
2,55639, Note_on_c, 0, 74, 0
2,55654, Note_on_c, 0, 67, 61
2,55666, Note_on_c, 0, 64, 64
2,55708, Note_on_c, 0, 64, 0
2,55760, Note_on_c, 0, 74, 68
2,55763, Note_on_c, 0, 67, 0
2,55854, Note_on_c, 0, 74, 0
2,55868, Note_on_c, 0, 79, 71
2,55876, Note_on_c, 0, 57, 70
2,55876, Note_on_c, 0, 64, 73
2,55909, Note_on_c, 0, 64, 0
2,55927, Note_on_c, 0, 57, 0
2,55949, Note_on_c, 0, 79, 0
2,55967, Note_on_c, 0, 73, 69
2,56068, Note_on_c, 0, 73, 0
2,56084, Note_on_c, 0, 78, 73
2,56090, Note_on_c, 0, 50, 80
2,56156, Note_on_c, 0, 50, 0
2,56202, Note_on_c, 0, 73, 60
2,56224, Note_on_c, 0, 78, 0
2,56286, Note_on_c, 0, 73, 0
2,56307, Note_on_c, 0, 62, 70
2,56320, Note_on_c, 0, 66, 63
2,56350, Note_on_c, 0, 62, 0
2,56417, Note_on_c, 0, 73, 59
2,56461, Note_on_c, 0, 66, 0
2,56507, Note_on_c, 0, 73, 0
2,56528, Note_on_c, 0, 78, 66
2,56530, Note_on_c, 0, 62, 68
2,56539, Note_on_c, 0, 55, 61
2,56564, Note_on_c, 0, 62, 0
2,56579, Note_on_c, 0, 55, 0
2,56628, Note_on_c, 0, 78, 0
2,56632, Note_on_c, 0, 71, 61
2,56735, Note_on_c, 0, 61, 75
2,56747, Note_on_c, 0, 49, 54
2,56754, Note_on_c, 0, 76, 59
2,56765, Note_on_c, 0, 71, 0
2,56775, Note_on_c, 0, 49, 0
2,56836, Note_on_c, 0, 61, 0
2,56845, Note_on_c, 0, 59, 60
2,56935, Note_on_c, 0, 58, 68
2,56940, Note_on_c, 0, 76, 0
2,56944, Note_on_c, 0, 59, 0
2,56962, Note_on_c, 0, 78, 64
2,56980, Note_on_c, 0, 73, 49
2,57027, Note_on_c, 0, 73, 0
2,57032, Note_on_c, 0, 58, 0
2,57045, Note_on_c, 0, 61, 59
2,57068, Note_on_c, 0, 76, 61
2,57105, Note_on_c, 0, 78, 0
2,57128, Note_on_c, 0, 61, 0
2,57162, Note_on_c, 0, 76, 0
2,57169, Note_on_c, 0, 54, 55
2,57169, Note_on_c, 0, 74, 58
2,57267, Note_on_c, 0, 74, 0
2,57268, Note_on_c, 0, 54, 0
2,57286, Note_on_c, 0, 73, 65
2,57295, Note_on_c, 0, 58, 51
2,57319, Note_on_c, 0, 58, 0
2,57394, Note_on_c, 0, 47, 67
2,57399, Note_on_c, 0, 74, 61
2,57405, Note_on_c, 0, 73, 0
2,57436, Note_on_c, 0, 74, 0
2,57445, Note_on_c, 0, 47, 0
2,57499, Note_on_c, 0, 59, 55
2,57577, Note_on_c, 0, 59, 0
2,57605, Note_on_c, 0, 49, 56
2,57614, Note_on_c, 0, 76, 68
2,57615, Note_on_c, 0, 71, 60
2,57652, Note_on_c, 0, 76, 0
2,57655, Note_on_c, 0, 71, 0
2,57690, Note_on_c, 0, 49, 0
2,57702, Note_on_c, 0, 59, 64
2,57805, Note_on_c, 0, 59, 0
2,57823, Note_on_c, 0, 78, 77
2,57826, Note_on_c, 0, 69, 74
2,57842, Note_on_c, 0, 50, 60
2,57908, Note_on_c, 0, 69, 0
2,57916, Note_on_c, 0, 50, 0
2,57927, Note_on_c, 0, 59, 63
2,58038, Note_on_c, 0, 59, 0
2,58060, Note_on_c, 0, 52, 61
2,58060, Note_on_c, 0, 67, 76
2,58078, Note_on_c, 0, 78, 0
2,58123, Note_on_c, 0, 52, 0
2,58137, Note_on_c, 0, 67, 0
2,58153, Note_on_c, 0, 59, 64
2,58254, Note_on_c, 0, 59, 0
2,58265, Note_on_c, 0, 54, 66
2,58276, Note_on_c, 0, 69, 79
2,58276, Note_on_c, 0, 76, 76
2,58309, Note_on_c, 0, 69, 0
2,58328, Note_on_c, 0, 76, 0
2,58358, Note_on_c, 0, 54, 0
2,58364, Note_on_c, 0, 59, 66
2,58472, Note_on_c, 0, 59, 0
2,58488, Note_on_c, 0, 55, 62
2,58494, Note_on_c, 0, 71, 78
2,58495, Note_on_c, 0, 74, 79
2,58561, Note_on_c, 0, 55, 0
2,58581, Note_on_c, 0, 59, 66
2,58640, Note_on_c, 0, 59, 0
2,58719, Note_on_c, 0, 45, 67
2,58726, Note_on_c, 0, 73, 76
2,58739, Note_on_c, 0, 71, 0
2,58753, Note_on_c, 0, 74, 0
2,58781, Note_on_c, 0, 73, 0
2,58833, Note_on_c, 0, 57, 65
2,58834, Note_on_c, 0, 45, 0
2,58945, Note_on_c, 0, 57, 0
2,58962, Note_on_c, 0, 47, 58
2,58965, Note_on_c, 0, 69, 67
2,58965, Note_on_c, 0, 74, 69
2,58994, Note_on_c, 0, 69, 0
2,59012, Note_on_c, 0, 74, 0
2,59050, Note_on_c, 0, 47, 0
2,59056, Note_on_c, 0, 57, 61
2,59175, Note_on_c, 0, 57, 0
2,59183, Note_on_c, 0, 76, 70
2,59188, Note_on_c, 0, 67, 58
2,59192, Note_on_c, 0, 49, 55
2,59230, Note_on_c, 0, 67, 0
2,59253, Note_on_c, 0, 49, 0
2,59297, Note_on_c, 0, 57, 54
2,59367, Note_on_c, 0, 76, 0
2,59386, Note_on_c, 0, 57, 0
2,59403, Note_on_c, 0, 66, 68
2,59416, Note_on_c, 0, 50, 47
2,59468, Note_on_c, 0, 50, 0
2,59494, Note_on_c, 0, 66, 0
2,59505, Note_on_c, 0, 57, 48
2,59601, Note_on_c, 0, 57, 0
2,59622, Note_on_c, 0, 52, 51
2,59623, Note_on_c, 0, 67, 52
2,59628, Note_on_c, 0, 74, 55
2,59650, Note_on_c, 0, 67, 0
2,59670, Note_on_c, 0, 74, 0
2,59703, Note_on_c, 0, 52, 0
2,59728, Note_on_c, 0, 57, 56
2,59830, Note_on_c, 0, 57, 0
2,59841, Note_on_c, 0, 73, 60
2,59851, Note_on_c, 0, 69, 57
2,59859, Note_on_c, 0, 54, 50
2,59931, Note_on_c, 0, 54, 0
2,59953, Note_on_c, 0, 57, 60
2,60050, Note_on_c, 0, 69, 0
2,60056, Note_on_c, 0, 57, 0
2,60072, Note_on_c, 0, 71, 61
2,60083, Note_on_c, 0, 55, 48
2,60111, Note_on_c, 0, 73, 0
2,60171, Note_on_c, 0, 55, 0
2,60181, Note_on_c, 0, 59, 54
2,60255, Note_on_c, 0, 59, 0
2,60279, Note_on_c, 0, 71, 0
2,60280, Note_on_c, 0, 57, 59
2,60312, Note_on_c, 0, 62, 54
2,60352, Note_on_c, 0, 62, 0
2,60395, Note_on_c, 0, 55, 54
2,60395, Note_on_c, 0, 57, 0
2,60500, Note_on_c, 0, 55, 0
2,60514, Note_on_c, 0, 54, 56
2,60531, Note_on_c, 0, 73, 57
2,60545, Note_on_c, 0, 67, 46
2,60604, Note_on_c, 0, 54, 0
2,60631, Note_on_c, 0, 52, 60
2,60634, Note_on_c, 0, 67, 0
2,60735, Note_on_c, 0, 73, 0
2,60739, Note_on_c, 0, 54, 62
2,60741, Note_on_c, 0, 52, 0
2,60753, Note_on_c, 0, 74, 64
2,60843, Note_on_c, 0, 54, 0
2,60845, Note_on_c, 0, 57, 63
2,60928, Note_on_c, 0, 74, 0
2,60949, Note_on_c, 0, 57, 0
2,60966, Note_on_c, 0, 62, 66
2,60966, Note_on_c, 0, 69, 70
2,60972, Note_on_c, 0, 66, 59
2,61006, Note_on_c, 0, 66, 0
2,61009, Note_on_c, 0, 69, 0
2,61065, Note_on_c, 0, 57, 63
2,61086, Note_on_c, 0, 62, 0
2,61190, Note_on_c, 0, 56, 64
2,61196, Note_on_c, 0, 71, 71
2,61201, Note_on_c, 0, 57, 0
2,61206, Note_on_c, 0, 65, 61
2,61273, Note_on_c, 0, 56, 0
2,61303, Note_on_c, 0, 62, 70
2,61401, Note_on_c, 0, 62, 0
2,61402, Note_on_c, 0, 65, 0
2,61413, Note_on_c, 0, 57, 63
2,61428, Note_on_c, 0, 72, 73
2,61448, Note_on_c, 0, 71, 0
2,61511, Note_on_c, 0, 57, 0
2,61522, Note_on_c, 0, 60, 69
2,61635, Note_on_c, 0, 72, 0
2,61641, Note_on_c, 0, 73, 66
2,61654, Note_on_c, 0, 59, 68
2,61658, Note_on_c, 0, 60, 0
2,61659, Note_on_c, 0, 64, 37
2,61671, Note_on_c, 0, 73, 0
2,61688, Note_on_c, 0, 64, 0
2,61746, Note_on_c, 0, 57, 67
2,61759, Note_on_c, 0, 59, 0
2,61858, Note_on_c, 0, 55, 57
2,61872, Note_on_c, 0, 57, 0
2,61879, Note_on_c, 0, 75, 76
2,61883, Note_on_c, 0, 69, 64
2,61936, Note_on_c, 0, 69, 0
2,61976, Note_on_c, 0, 55, 0
2,61977, Note_on_c, 0, 54, 62
2,62080, Note_on_c, 0, 75, 0
2,62085, Note_on_c, 0, 54, 0
2,62090, Note_on_c, 0, 55, 67
2,62090, Note_on_c, 0, 76, 77
2,62171, Note_on_c, 0, 59, 69
2,62181, Note_on_c, 0, 55, 0
2,62284, Note_on_c, 0, 59, 0
2,62293, Note_on_c, 0, 64, 71
2,62310, Note_on_c, 0, 68, 75
2,62310, Note_on_c, 0, 71, 77
2,62343, Note_on_c, 0, 76, 0
2,62361, Note_on_c, 0, 71, 0
2,62364, Note_on_c, 0, 68, 0
2,62409, Note_on_c, 0, 59, 65
2,62488, Note_on_c, 0, 64, 0
2,62526, Note_on_c, 0, 73, 79
2,62527, Note_on_c, 0, 58, 66
2,62528, Note_on_c, 0, 67, 79
2,62557, Note_on_c, 0, 59, 0
2,62608, Note_on_c, 0, 58, 0
2,62651, Note_on_c, 0, 62, 72
2,62755, Note_on_c, 0, 67, 0
2,62761, Note_on_c, 0, 74, 77
2,62762, Note_on_c, 0, 62, 0
2,62768, Note_on_c, 0, 59, 60
2,62805, Note_on_c, 0, 73, 0
2,62856, Note_on_c, 0, 59, 0
2,62877, Note_on_c, 0, 61, 69
2,62958, Note_on_c, 0, 61, 0
2,62976, Note_on_c, 0, 66, 71
2,62978, Note_on_c, 0, 74, 0
2,62981, Note_on_c, 0, 75, 73
2,62983, Note_on_c, 0, 59, 65
2,63013, Note_on_c, 0, 66, 0
2,63028, Note_on_c, 0, 75, 0
2,63085, Note_on_c, 0, 59, 0
2,63087, Note_on_c, 0, 58, 64
2,63187, Note_on_c, 0, 58, 0
2,63188, Note_on_c, 0, 56, 65
2,63199, Note_on_c, 0, 77, 80
2,63201, Note_on_c, 0, 71, 79
2,63315, Note_on_c, 0, 54, 64
2,63321, Note_on_c, 0, 56, 0
2,63390, Note_on_c, 0, 77, 0
2,63429, Note_on_c, 0, 78, 79
2,63436, Note_on_c, 0, 71, 0
2,63441, Note_on_c, 0, 54, 0
2,63445, Note_on_c, 0, 55, 63
2,63565, Note_on_c, 0, 55, 0
2,63576, Note_on_c, 0, 54, 62
2,63617, Note_on_c, 0, 70, 77
2,63688, Note_on_c, 0, 54, 0
2,63700, Note_on_c, 0, 78, 0
2,63715, Note_on_c, 0, 52, 66
2,63818, Note_on_c, 0, 52, 0
2,63822, Note_on_c, 0, 50, 60
2,63823, Note_on_c, 0, 70, 0
2,63827, Note_on_c, 0, 66, 85
2,63880, Note_on_c, 0, 66, 0
2,63934, Note_on_c, 0, 49, 71
2,63949, Note_on_c, 0, 50, 0
2,64037, Note_on_c, 0, 49, 0
2,64045, Note_on_c, 0, 62, 90
2,64060, Note_on_c, 0, 47, 69
2,64101, Note_on_c, 0, 62, 0
2,64153, Note_on_c, 0, 49, 70
2,64161, Note_on_c, 0, 47, 0
2,64260, Note_on_c, 0, 49, 0
2,64264, Note_on_c, 0, 50, 70
2,64268, Note_on_c, 0, 59, 86
2,64330, Note_on_c, 0, 59, 0
2,64361, Note_on_c, 0, 50, 0
2,64372, Note_on_c, 0, 52, 72
2,64469, Note_on_c, 0, 52, 0
2,64484, Note_on_c, 0, 54, 72
2,64492, Note_on_c, 0, 58, 75
2,64546, Note_on_c, 0, 58, 0
2,64586, Note_on_c, 0, 52, 78
2,64589, Note_on_c, 0, 54, 0
2,64712, Note_on_c, 0, 50, 79
2,64723, Note_on_c, 0, 59, 73
2,64735, Note_on_c, 0, 52, 0
2,64775, Note_on_c, 0, 59, 0
2,64830, Note_on_c, 0, 71, 71
2,64845, Note_on_c, 0, 50, 0
2,64954, Note_on_c, 0, 71, 0
2,64962, Note_on_c, 0, 70, 71
2,64969, Note_on_c, 0, 47, 80
2,65077, Note_on_c, 0, 71, 72
2,65079, Note_on_c, 0, 47, 0
2,65090, Note_on_c, 0, 70, 0
2,65197, Note_on_c, 0, 71, 0
2,65201, Note_on_c, 0, 46, 82
2,65201, Note_on_c, 0, 73, 68
2,65308, Note_on_c, 0, 73, 0
2,65327, Note_on_c, 0, 78, 76
2,65357, Note_on_c, 0, 46, 0
2,65462, Note_on_c, 0, 47, 75
2,65465, Note_on_c, 0, 76, 75
2,65562, Note_on_c, 0, 78, 0
2,65589, Note_on_c, 0, 74, 74
2,65606, Note_on_c, 0, 47, 0
2,65736, Note_on_c, 0, 38, 69
2,65745, Note_on_c, 0, 73, 72
2,65749, Note_on_c, 0, 66, 69
2,65762, Note_on_c, 0, 76, 0
2,65774, Control_c, 0, 64, 40
2,65776, Note_on_c, 0, 74, 0
2,65789, Control_c, 0, 64, 59
2,65805, Control_c, 0, 64, 63
2,65820, Control_c, 0, 64, 66
2,65822, Note_on_c, 0, 73, 0
2,65836, Control_c, 0, 64, 68
2,65850, Control_c, 0, 64, 71
2,65865, Control_c, 0, 64, 73
2,65881, Control_c, 0, 64, 75
2,65896, Control_c, 0, 64, 75
2,65901, Note_on_c, 0, 71, 73
2,65910, Control_c, 0, 64, 76
2,65913, Note_on_c, 0, 66, 0
2,65926, Control_c, 0, 64, 77
2,65941, Control_c, 0, 64, 78
2,66047, Control_c, 0, 64, 76
2,66060, Note_on_c, 0, 38, 0
2,66062, Control_c, 0, 64, 72
2,66074, Note_on_c, 0, 71, 0
2,66074, Note_on_c, 0, 73, 77
2,66078, Control_c, 0, 64, 63
2,66086, Note_on_c, 0, 42, 53
2,66088, Note_on_c, 0, 64, 61
2,66093, Control_c, 0, 64, 0
2,66151, Control_c, 0, 64, 51
2,66167, Control_c, 0, 64, 63
2,66181, Control_c, 0, 64, 66
2,66197, Control_c, 0, 64, 71
2,66213, Control_c, 0, 64, 76
2,66228, Control_c, 0, 64, 81
2,66244, Control_c, 0, 64, 85
2,66259, Control_c, 0, 64, 88
2,66262, Note_on_c, 0, 70, 84
2,66273, Control_c, 0, 64, 90
2,66279, Note_on_c, 0, 42, 0
2,66281, Note_on_c, 0, 64, 0
2,66289, Control_c, 0, 64, 93
2,66297, Note_on_c, 0, 73, 0
2,66304, Control_c, 0, 64, 95
2,66320, Control_c, 0, 64, 97
2,66335, Control_c, 0, 64, 99
2,66336, Note_on_c, 0, 70, 0
2,66349, Control_c, 0, 64, 100
2,66365, Control_c, 0, 64, 101
2,66380, Control_c, 0, 64, 102
2,66425, Control_c, 0, 64, 102
2,66570, Control_c, 0, 64, 102
2,66585, Control_c, 0, 64, 101
2,66601, Control_c, 0, 64, 100
2,66611, Note_on_c, 0, 70, 72
2,66614, Note_on_c, 0, 64, 63
2,66615, Control_c, 0, 64, 99
2,66617, Note_on_c, 0, 35, 48
2,66630, Control_c, 0, 64, 97
2,66646, Control_c, 0, 64, 94
2,66661, Control_c, 0, 64, 91
2,66676, Control_c, 0, 64, 88
2,66691, Control_c, 0, 64, 85
2,66706, Control_c, 0, 64, 82
2,66722, Control_c, 0, 64, 78
2,66737, Control_c, 0, 64, 73
2,66751, Control_c, 0, 64, 66
2,66767, Control_c, 0, 64, 46
2,66782, Control_c, 0, 64, 0
2,67348, Note_on_c, 0, 71, 52
2,67356, Note_on_c, 0, 63, 40
2,67396, Note_on_c, 0, 70, 0
2,67413, Note_on_c, 0, 64, 0
2,68874, Note_on_c, 0, 71, 0
2,68940, Note_on_c, 0, 35, 0
2,68950, Note_on_c, 0, 63, 0
2,68951, End_track
0, 0, End_of_file
