0, 0, Header, 1, 2, 384
1, 0, Start_track
1, 0, Tempo, 500000
1, 0, Time_signature, 4, 2, 24, 8
1, 1, End_track
2, 0, Start_track
2, 0, Title_t," ""Kleisen04-07.MID"""
2, 0, Program_c, 0, 0
2, 806, Note_on_c, 0, 62, 52
2, 817, Note_on_c, 0, 47, 31
2, 997, Note_on_c, 0, 66, 60
2, 1035, Note_on_c, 0, 62, 0
2, 1063, Note_on_c, 0, 47, 0
2, 1184, Note_on_c, 0, 59, 56
2, 1195, Note_on_c, 0, 50, 49
2, 1284, Note_on_c, 0, 66, 0
2, 1376, Note_on_c, 0, 61, 64
2, 1435, Note_on_c, 0, 59, 0
2, 1490, Note_on_c, 0, 61, 0
2, 1553, Note_on_c, 0, 50, 0
2, 1553, Note_on_c, 0, 62, 63
2, 1563, Note_on_c, 0, 54, 54
2, 1732, Note_on_c, 0, 62, 0
2, 1745, Note_on_c, 0, 66, 57
2, 1907, Note_on_c, 0, 59, 52
2, 1924, Note_on_c, 0, 66, 0
2, 1965, Note_on_c, 0, 54, 0
2, 1989, Note_on_c, 0, 55, 49
2, 2009, Note_on_c, 0, 62, 54
2, 2016, Note_on_c, 0, 59, 0
2, 2078, Note_on_c, 0, 55, 0
2, 2079, Note_on_c, 0, 62, 0
2, 2096, Note_on_c, 0, 54, 54
2, 2165, Note_on_c, 0, 54, 0
2, 2169, Note_on_c, 0, 53, 52
2, 2259, Note_on_c, 0, 53, 0
2, 2279, Note_on_c, 0, 54, 49
2, 2285, Note_on_c, 0, 61, 57
2, 2466, Note_on_c, 0, 66, 57
2, 2485, Note_on_c, 0, 61, 0
2, 2496, Note_on_c, 0, 54, 0
2, 2616, Note_on_c, 0, 66, 0
2, 2639, Note_on_c, 0, 67, 52
2, 2645, Note_on_c, 0, 46, 44
2, 2729, Note_on_c, 0, 67, 0
2, 2736, Note_on_c, 0, 66, 61
2, 2786, Note_on_c, 0, 66, 0
2, 2813, Note_on_c, 0, 65, 57
2, 2846, Note_on_c, 0, 46, 0
2, 2885, Note_on_c, 0, 65, 0
2, 2901, Note_on_c, 0, 66, 55
2, 2966, Note_on_c, 0, 66, 0
2, 2989, Note_on_c, 0, 70, 66
2, 2994, Note_on_c, 0, 49, 47
2, 3164, Note_on_c, 0, 66, 67
2, 3203, Note_on_c, 0, 49, 0
2, 3221, Note_on_c, 0, 70, 0
2, 3303, Note_on_c, 0, 66, 0
2, 3329, Note_on_c, 0, 54, 46
2, 3339, Note_on_c, 0, 73, 62
2, 3506, Note_on_c, 0, 73, 0
2, 3525, Note_on_c, 0, 64, 51
2, 3576, Note_on_c, 0, 54, 0
2, 3637, Note_on_c, 0, 64, 0
2, 3711, Note_on_c, 0, 62, 64
2, 3716, Note_on_c, 0, 47, 45
2, 3893, Note_on_c, 0, 66, 65
2, 3900, Note_on_c, 0, 62, 0
2, 3983, Note_on_c, 0, 47, 0
2, 4064, Note_on_c, 0, 50, 53
2, 4070, Note_on_c, 0, 59, 63
2, 4225, Note_on_c, 0, 66, 0
2, 4245, Note_on_c, 0, 61, 70
2, 4270, Note_on_c, 0, 59, 0
2, 4310, Note_on_c, 0, 50, 0
2, 4337, Note_on_c, 0, 61, 0
2, 4439, Note_on_c, 0, 54, 57
2, 4450, Note_on_c, 0, 62, 64
2, 4625, Note_on_c, 0, 66, 64
2, 4641, Note_on_c, 0, 62, 0
2, 4789, Note_on_c, 0, 59, 47
2, 4827, Note_on_c, 0, 54, 0
2, 4857, Note_on_c, 0, 55, 47
2, 4890, Note_on_c, 0, 59, 0
2, 4899, Note_on_c, 0, 62, 45
2, 4915, Note_on_c, 0, 66, 0
2, 4936, Note_on_c, 0, 55, 0
2, 4952, Note_on_c, 0, 54, 52
2, 4953, Note_on_c, 0, 62, 0
2, 5029, Note_on_c, 0, 54, 0
2, 5031, Note_on_c, 0, 53, 53
2, 5120, Note_on_c, 0, 53, 0
2, 5145, Note_on_c, 0, 61, 55
2, 5156, Note_on_c, 0, 54, 52
2, 5326, Note_on_c, 0, 61, 0
2, 5329, Note_on_c, 0, 54, 0
2, 5331, Note_on_c, 0, 66, 58
2, 5499, Note_on_c, 0, 42, 35
2, 5503, Note_on_c, 0, 61, 51
2, 5592, Note_on_c, 0, 66, 0
2, 5677, Note_on_c, 0, 58, 55
2, 5691, Note_on_c, 0, 61, 0
2, 5780, Note_on_c, 0, 58, 0
2, 5819, Note_on_c, 0, 42, 0
2, 5864, Note_on_c, 0, 54, 48
2, 6052, Note_on_c, 0, 52, 44
2, 6101, Note_on_c, 0, 54, 0
2, 6244, Note_on_c, 0, 50, 45
2, 6280, Note_on_c, 0, 52, 0
2, 6420, Note_on_c, 0, 49, 56
2, 6466, Note_on_c, 0, 50, 0
2, 6523, Note_on_c, 0, 49, 0
2, 6603, Note_on_c, 0, 50, 56
2, 6784, Note_on_c, 0, 54, 63
2, 6836, Note_on_c, 0, 50, 0
2, 6940, Note_on_c, 0, 54, 0
2, 6966, Note_on_c, 0, 47, 50
2, 6970, Note_on_c, 0, 74, 63
2, 7146, Note_on_c, 0, 49, 61
2, 7158, Note_on_c, 0, 47, 0
2, 7273, Note_on_c, 0, 49, 0
2, 7282, Note_on_c, 0, 74, 0
2, 7327, Note_on_c, 0, 50, 50
2, 7329, Note_on_c, 0, 71, 64
2, 7515, Note_on_c, 0, 54, 53
2, 7542, Note_on_c, 0, 71, 0
2, 7556, Note_on_c, 0, 50, 0
2, 7694, Note_on_c, 0, 47, 53
2, 7695, Note_on_c, 0, 54, 0
2, 7706, Note_on_c, 0, 66, 60
2, 7884, Note_on_c, 0, 50, 57
2, 7921, Note_on_c, 0, 47, 0
2, 7990, Note_on_c, 0, 66, 0
2, 8044, Note_on_c, 0, 50, 0
2, 8058, Note_on_c, 0, 49, 60
2, 8224, Note_on_c, 0, 49, 0
2, 8235, Note_on_c, 0, 54, 60
2, 8391, Note_on_c, 0, 54, 0
2, 8413, Note_on_c, 0, 55, 57
2, 8416, Note_on_c, 0, 76, 66
2, 8495, Note_on_c, 0, 54, 59
2, 8496, Note_on_c, 0, 55, 0
2, 8547, Note_on_c, 0, 54, 0
2, 8568, Note_on_c, 0, 53, 49
2, 8643, Note_on_c, 0, 53, 0
2, 8658, Note_on_c, 0, 54, 63
2, 8745, Note_on_c, 0, 54, 0
2, 8759, Note_on_c, 0, 58, 54
2, 8759, Note_on_c, 0, 73, 75
2, 8790, Note_on_c, 0, 76, 0
2, 8939, Note_on_c, 0, 54, 69
2, 8944, Note_on_c, 0, 58, 0
2, 9004, Note_on_c, 0, 73, 0
2, 9056, Note_on_c, 0, 54, 0
2, 9129, Note_on_c, 0, 66, 73
2, 9140, Note_on_c, 0, 61, 54
2, 9306, Note_on_c, 0, 52, 66
2, 9321, Note_on_c, 0, 61, 0
2, 9395, Note_on_c, 0, 66, 0
2, 9455, Note_on_c, 0, 52, 0
2, 9491, Note_on_c, 0, 50, 67
2, 9651, Note_on_c, 0, 50, 0
2, 9654, Note_on_c, 0, 54, 59
2, 9854, Note_on_c, 0, 78, 81
2, 9858, Note_on_c, 0, 47, 51
2, 9887, Note_on_c, 0, 54, 0
2, 10015, Note_on_c, 0, 47, 0
2, 10025, Note_on_c, 0, 49, 61
2, 10101, Note_on_c, 0, 49, 0
2, 10188, Note_on_c, 0, 50, 57
2, 10357, Note_on_c, 0, 78, 0
2, 10371, Note_on_c, 0, 76, 56
2, 10386, Note_on_c, 0, 54, 41
2, 10413, Note_on_c, 0, 50, 0
2, 10441, Note_on_c, 0, 76, 0
2, 10452, Note_on_c, 0, 74, 60
2, 10524, Note_on_c, 0, 47, 45
2, 10529, Note_on_c, 0, 74, 0
2, 10530, Note_on_c, 0, 54, 0
2, 10547, Note_on_c, 0, 76, 45
2, 10623, Note_on_c, 0, 74, 53
2, 10637, Note_on_c, 0, 76, 0
2, 10651, Note_on_c, 0, 47, 0
2, 10684, Note_on_c, 0, 50, 41
2, 10694, Note_on_c, 0, 74, 0
2, 10701, Note_on_c, 0, 73, 59
2, 10771, Note_on_c, 0, 71, 60
2, 10778, Note_on_c, 0, 73, 0
2, 10801, Note_on_c, 0, 71, 0
2, 10855, Note_on_c, 0, 49, 41
2, 10880, Note_on_c, 0, 71, 64
2, 10887, Note_on_c, 0, 50, 0
2, 11058, Note_on_c, 0, 54, 48
2, 11065, Note_on_c, 0, 49, 0
2, 11242, Note_on_c, 0, 49, 42
2, 11244, Note_on_c, 0, 70, 58
2, 11257, Note_on_c, 0, 71, 0
2, 11277, Note_on_c, 0, 54, 0
2, 11407, Note_on_c, 0, 46, 53
2, 11450, Note_on_c, 0, 49, 0
2, 11489, Note_on_c, 0, 70, 0
2, 11512, Note_on_c, 0, 46, 0
2, 11602, Note_on_c, 0, 42, 49
2, 11744, Note_on_c, 0, 42, 0
2, 11794, Note_on_c, 0, 64, 55
2, 11852, Note_on_c, 0, 64, 0
2, 11868, Note_on_c, 0, 62, 61
2, 11945, Note_on_c, 0, 62, 0
2, 11957, Note_on_c, 0, 58, 43
2, 11960, Note_on_c, 0, 61, 59
2, 12027, Note_on_c, 0, 61, 0
2, 12039, Note_on_c, 0, 62, 62
2, 12129, Note_on_c, 0, 62, 0
2, 12156, Note_on_c, 0, 64, 58
2, 12207, Note_on_c, 0, 58, 0
2, 12299, Note_on_c, 0, 64, 0
2, 12335, Note_on_c, 0, 62, 56
2, 12338, Note_on_c, 0, 47, 50
2, 12405, Note_on_c, 0, 62, 0
2, 12520, Note_on_c, 0, 71, 52
2, 12577, Note_on_c, 0, 47, 0
2, 12598, Note_on_c, 0, 71, 0
2, 12599, Note_on_c, 0, 73, 60
2, 12660, Note_on_c, 0, 73, 0
2, 12678, Note_on_c, 0, 74, 61
2, 12689, Note_on_c, 0, 59, 38
2, 12755, Note_on_c, 0, 73, 63
2, 12770, Note_on_c, 0, 74, 0
2, 12813, Note_on_c, 0, 73, 0
2, 12851, Note_on_c, 0, 59, 0
2, 12871, Note_on_c, 0, 71, 72
2, 13048, Note_on_c, 0, 61, 65
2, 13183, Note_on_c, 0, 71, 0
2, 13221, Note_on_c, 0, 78, 75
2, 13252, Note_on_c, 0, 61, 0
2, 13401, Note_on_c, 0, 63, 66
2, 13562, Note_on_c, 0, 78, 0
2, 13579, Note_on_c, 0, 69, 73
2, 13603, Note_on_c, 0, 63, 0
2, 13770, Note_on_c, 0, 64, 66
2, 13932, Note_on_c, 0, 69, 0
2, 13954, Note_on_c, 0, 71, 54
2, 13979, Note_on_c, 0, 64, 0
2, 14036, Note_on_c, 0, 71, 0
2, 14048, Note_on_c, 0, 69, 57
2, 14099, Note_on_c, 0, 69, 0
2, 14114, Note_on_c, 0, 68, 63
2, 14125, Note_on_c, 0, 52, 39
2, 14198, Note_on_c, 0, 68, 0
2, 14204, Note_on_c, 0, 69, 64
2, 14247, Note_on_c, 0, 69, 0
2, 14296, Note_on_c, 0, 52, 0
2, 14311, Note_on_c, 0, 71, 65
2, 14500, Note_on_c, 0, 54, 50
2, 14552, Note_on_c, 0, 71, 0
2, 14683, Note_on_c, 0, 62, 53
2, 14716, Note_on_c, 0, 54, 0
2, 14851, Note_on_c, 0, 56, 52
2, 15013, Note_on_c, 0, 62, 0
2, 15025, Note_on_c, 0, 56, 0
2, 15045, Note_on_c, 0, 71, 53
2, 15173, Note_on_c, 0, 71, 0
2, 15231, Note_on_c, 0, 61, 50
2, 15234, Note_on_c, 0, 45, 44
2, 15328, Note_on_c, 0, 61, 0
2, 15385, Note_on_c, 0, 69, 57
2, 15429, Note_on_c, 0, 45, 0
2, 15477, Note_on_c, 0, 69, 0
2, 15482, Note_on_c, 0, 71, 59
2, 15549, Note_on_c, 0, 71, 0
2, 15563, Note_on_c, 0, 73, 61
2, 15573, Note_on_c, 0, 57, 49
2, 15631, Note_on_c, 0, 71, 60
2, 15653, Note_on_c, 0, 73, 0
2, 15683, Note_on_c, 0, 71, 0
2, 15706, Note_on_c, 0, 57, 0
2, 15737, Note_on_c, 0, 69, 69
2, 15944, Note_on_c, 0, 59, 63
2, 16075, Note_on_c, 0, 69, 0
2, 16118, Note_on_c, 0, 76, 68
2, 16176, Note_on_c, 0, 59, 0
2, 16295, Note_on_c, 0, 61, 66
2, 16416, Note_on_c, 0, 76, 0
2, 16473, Note_on_c, 0, 67, 68
2, 16497, Note_on_c, 0, 61, 0
2, 16649, Note_on_c, 0, 62, 67
2, 16822, Note_on_c, 0, 67, 0
2, 16827, Note_on_c, 0, 62, 0
2, 16842, Note_on_c, 0, 69, 62
2, 16919, Note_on_c, 0, 69, 0
2, 16931, Note_on_c, 0, 67, 60
2, 16984, Note_on_c, 0, 50, 40
2, 17002, Note_on_c, 0, 67, 0
2, 17010, Note_on_c, 0, 66, 65
2, 17082, Note_on_c, 0, 66, 0
2, 17084, Note_on_c, 0, 67, 56
2, 17165, Note_on_c, 0, 50, 0
2, 17170, Note_on_c, 0, 67, 0
2, 17179, Note_on_c, 0, 69, 67
2, 17357, Note_on_c, 0, 52, 54
2, 17467, Note_on_c, 0, 69, 0
2, 17564, Note_on_c, 0, 52, 0
2, 17565, Note_on_c, 0, 61, 55
2, 17731, Note_on_c, 0, 54, 50
2, 17905, Note_on_c, 0, 61, 0
2, 17916, Note_on_c, 0, 54, 0
2, 17919, Note_on_c, 0, 69, 53
2, 18094, Note_on_c, 0, 59, 46
2, 18116, Note_on_c, 0, 43, 50
2, 18203, Note_on_c, 0, 69, 0
2, 18246, Note_on_c, 0, 59, 0
2, 18293, Note_on_c, 0, 66, 60
2, 18324, Note_on_c, 0, 43, 0
2, 18458, Note_on_c, 0, 47, 53
2, 18527, Note_on_c, 0, 66, 0
2, 18649, Note_on_c, 0, 69, 56
2, 18653, Note_on_c, 0, 47, 0
2, 18826, Note_on_c, 0, 50, 52
2, 19012, Note_on_c, 0, 69, 0
2, 19023, Note_on_c, 0, 67, 52
2, 19065, Note_on_c, 0, 50, 0
2, 19089, Note_on_c, 0, 67, 0
2, 19104, Note_on_c, 0, 66, 55
2, 19151, Note_on_c, 0, 66, 0
2, 19181, Note_on_c, 0, 52, 44
2, 19189, Note_on_c, 0, 67, 57
2, 19258, Note_on_c, 0, 52, 0
2, 19267, Note_on_c, 0, 66, 62
2, 19269, Note_on_c, 0, 67, 0
2, 19348, Note_on_c, 0, 66, 0
2, 19362, Note_on_c, 0, 64, 60
2, 19429, Note_on_c, 0, 64, 0
2, 19437, Note_on_c, 0, 62, 57
2, 19533, Note_on_c, 0, 62, 0
2, 19543, Note_on_c, 0, 45, 49
2, 19553, Note_on_c, 0, 61, 62
2, 19649, Note_on_c, 0, 61, 0
2, 19725, Note_on_c, 0, 67, 68
2, 19763, Note_on_c, 0, 45, 0
2, 19900, Note_on_c, 0, 49, 62
2, 19915, Note_on_c, 0, 67, 0
2, 20083, Note_on_c, 0, 71, 66
2, 20144, Note_on_c, 0, 49, 0
2, 20254, Note_on_c, 0, 52, 64
2, 20453, Note_on_c, 0, 69, 57
2, 20456, Note_on_c, 0, 71, 0
2, 20494, Note_on_c, 0, 52, 0
2, 20527, Note_on_c, 0, 69, 0
2, 20536, Note_on_c, 0, 67, 61
2, 20581, Note_on_c, 0, 67, 0
2, 20609, Note_on_c, 0, 69, 59
2, 20617, Note_on_c, 0, 54, 48
2, 20697, Note_on_c, 0, 67, 63
2, 20698, Note_on_c, 0, 69, 0
2, 20753, Note_on_c, 0, 54, 0
2, 20781, Note_on_c, 0, 66, 65
2, 20783, Note_on_c, 0, 67, 0
2, 20859, Note_on_c, 0, 64, 61
2, 20859, Note_on_c, 0, 66, 0
2, 20913, Note_on_c, 0, 64, 0
2, 20948, Note_on_c, 0, 47, 55
2, 20970, Note_on_c, 0, 62, 68
2, 21078, Note_on_c, 0, 62, 0
2, 21139, Note_on_c, 0, 69, 77
2, 21167, Note_on_c, 0, 47, 0
2, 21304, Note_on_c, 0, 50, 67
2, 21325, Note_on_c, 0, 69, 0
2, 21479, Note_on_c, 0, 72, 73
2, 21522, Note_on_c, 0, 50, 0
2, 21657, Note_on_c, 0, 54, 67
2, 21840, Note_on_c, 0, 71, 61
2, 21845, Note_on_c, 0, 72, 0
2, 21869, Note_on_c, 0, 54, 0
2, 21920, Note_on_c, 0, 71, 0
2, 21926, Note_on_c, 0, 69, 61
2, 21987, Note_on_c, 0, 55, 52
2, 21993, Note_on_c, 0, 69, 0
2, 22005, Note_on_c, 0, 71, 60
2, 22087, Note_on_c, 0, 69, 62
2, 22092, Note_on_c, 0, 55, 0
2, 22098, Note_on_c, 0, 71, 0
2, 22156, Note_on_c, 0, 67, 70
2, 22156, Note_on_c, 0, 69, 0
2, 22237, Note_on_c, 0, 67, 0
2, 22246, Note_on_c, 0, 66, 67
2, 22306, Note_on_c, 0, 66, 0
2, 22339, Note_on_c, 0, 49, 59
2, 22351, Note_on_c, 0, 64, 72
2, 22446, Note_on_c, 0, 64, 0
2, 22517, Note_on_c, 0, 71, 74
2, 22557, Note_on_c, 0, 49, 0
2, 22681, Note_on_c, 0, 52, 71
2, 22707, Note_on_c, 0, 71, 0
2, 22867, Note_on_c, 0, 74, 73
2, 22908, Note_on_c, 0, 52, 0
2, 23043, Note_on_c, 0, 55, 63
2, 23226, Note_on_c, 0, 73, 64
2, 23259, Note_on_c, 0, 74, 0
2, 23263, Note_on_c, 0, 55, 0
2, 23314, Note_on_c, 0, 73, 0
2, 23323, Note_on_c, 0, 71, 53
2, 23366, Note_on_c, 0, 71, 0
2, 23385, Note_on_c, 0, 57, 42
2, 23388, Note_on_c, 0, 73, 53
2, 23467, Note_on_c, 0, 71, 63
2, 23499, Note_on_c, 0, 73, 0
2, 23532, Note_on_c, 0, 57, 0
2, 23549, Note_on_c, 0, 71, 0
2, 23553, Note_on_c, 0, 69, 69
2, 23631, Note_on_c, 0, 69, 0
2, 23639, Note_on_c, 0, 67, 65
2, 23733, Note_on_c, 0, 67, 0
2, 23746, Note_on_c, 0, 66, 67
2, 23763, Note_on_c, 0, 50, 49
2, 23912, Note_on_c, 0, 69, 70
2, 23928, Note_on_c, 0, 66, 0
2, 23981, Note_on_c, 0, 50, 0
2, 24091, Note_on_c, 0, 54, 58
2, 24091, Note_on_c, 0, 62, 65
2, 24264, Note_on_c, 0, 69, 0
2, 24265, Note_on_c, 0, 62, 0
2, 24272, Note_on_c, 0, 64, 68
2, 24356, Note_on_c, 0, 54, 0
2, 24427, Note_on_c, 0, 64, 0
2, 24456, Note_on_c, 0, 57, 64
2, 24471, Note_on_c, 0, 66, 63
2, 24626, Note_on_c, 0, 66, 0
2, 24634, Note_on_c, 0, 69, 64
2, 24814, Note_on_c, 0, 62, 48
2, 24859, Note_on_c, 0, 57, 0
2, 24904, Note_on_c, 0, 59, 45
2, 24945, Note_on_c, 0, 62, 0
2, 24957, Note_on_c, 0, 59, 0
2, 24966, Note_on_c, 0, 66, 50
2, 24967, Note_on_c, 0, 69, 0
2, 24974, Note_on_c, 0, 57, 48
2, 25053, Note_on_c, 0, 57, 0
2, 25054, Note_on_c, 0, 56, 61
2, 25057, Note_on_c, 0, 66, 0
2, 25146, Note_on_c, 0, 56, 0
2, 25160, Note_on_c, 0, 57, 53
2, 25193, Note_on_c, 0, 64, 53
2, 25341, Note_on_c, 0, 64, 0
2, 25342, Note_on_c, 0, 69, 63
2, 25355, Note_on_c, 0, 57, 0
2, 25478, Note_on_c, 0, 69, 0
2, 25501, Note_on_c, 0, 71, 59
2, 25504, Note_on_c, 0, 49, 47
2, 25573, Note_on_c, 0, 71, 0
2, 25580, Note_on_c, 0, 69, 66
2, 25636, Note_on_c, 0, 69, 0
2, 25653, Note_on_c, 0, 68, 63
2, 25691, Note_on_c, 0, 49, 0
2, 25724, Note_on_c, 0, 68, 0
2, 25733, Note_on_c, 0, 69, 66
2, 25813, Note_on_c, 0, 69, 0
2, 25832, Note_on_c, 0, 73, 68
2, 25867, Note_on_c, 0, 52, 48
2, 26009, Note_on_c, 0, 69, 65
2, 26055, Note_on_c, 0, 73, 0
2, 26090, Note_on_c, 0, 52, 0
2, 26162, Note_on_c, 0, 69, 0
2, 26194, Note_on_c, 0, 57, 41
2, 26199, Note_on_c, 0, 76, 60
2, 26366, Note_on_c, 0, 76, 0
2, 26370, Note_on_c, 0, 67, 61
2, 26398, Note_on_c, 0, 57, 0
2, 26505, Note_on_c, 0, 67, 0
2, 26549, Note_on_c, 0, 66, 63
2, 26559, Note_on_c, 0, 50, 45
2, 26744, Note_on_c, 0, 69, 68
2, 26761, Note_on_c, 0, 66, 0
2, 26788, Note_on_c, 0, 50, 0
2, 26905, Note_on_c, 0, 54, 59
2, 26911, Note_on_c, 0, 62, 64
2, 27009, Note_on_c, 0, 69, 0
2, 27092, Note_on_c, 0, 64, 68
2, 27124, Note_on_c, 0, 62, 0
2, 27162, Note_on_c, 0, 54, 0
2, 27228, Note_on_c, 0, 64, 0
2, 27261, Note_on_c, 0, 57, 66
2, 27277, Note_on_c, 0, 66, 66
2, 27445, Note_on_c, 0, 69, 62
2, 27454, Note_on_c, 0, 66, 0
2, 27614, Note_on_c, 0, 62, 50
2, 27671, Note_on_c, 0, 57, 0
2, 27704, Note_on_c, 0, 59, 53
2, 27720, Note_on_c, 0, 62, 0
2, 27737, Note_on_c, 0, 66, 38
2, 27769, Note_on_c, 0, 59, 0
2, 27774, Note_on_c, 0, 69, 0
2, 27780, Note_on_c, 0, 57, 52
2, 27811, Note_on_c, 0, 66, 0
2, 27855, Note_on_c, 0, 56, 56
2, 27857, Note_on_c, 0, 57, 0
2, 27947, Note_on_c, 0, 56, 0
2, 27968, Note_on_c, 0, 64, 48
2, 27970, Note_on_c, 0, 57, 60
2, 28133, Note_on_c, 0, 64, 0
2, 28149, Note_on_c, 0, 69, 59
2, 28176, Note_on_c, 0, 57, 0
2, 28329, Note_on_c, 0, 45, 31
2, 28337, Note_on_c, 0, 64, 56
2, 28386, Note_on_c, 0, 69, 0
2, 28509, Note_on_c, 0, 61, 57
2, 28522, Note_on_c, 0, 64, 0
2, 28607, Note_on_c, 0, 45, 0
2, 28655, Note_on_c, 0, 61, 0
2, 28692, Note_on_c, 0, 57, 55
2, 28865, Note_on_c, 0, 55, 51
2, 28913, Note_on_c, 0, 57, 0
2, 29046, Note_on_c, 0, 54, 53
2, 29065, Note_on_c, 0, 55, 0
2, 29233, Note_on_c, 0, 52, 64
2, 29273, Note_on_c, 0, 54, 0
2, 29360, Note_on_c, 0, 52, 0
2, 29414, Note_on_c, 0, 54, 56
2, 29580, Note_on_c, 0, 57, 56
2, 29594, Note_on_c, 0, 54, 0
2, 29775, Note_on_c, 0, 69, 68
2, 29782, Note_on_c, 0, 50, 48
2, 29797, Note_on_c, 0, 57, 0
2, 29943, Note_on_c, 0, 50, 0
2, 29952, Note_on_c, 0, 52, 61
2, 30039, Note_on_c, 0, 69, 0
2, 30104, Note_on_c, 0, 52, 0
2, 30114, Note_on_c, 0, 54, 54
2, 30116, Note_on_c, 0, 71, 62
2, 30179, Note_on_c, 0, 69, 66
2, 30191, Note_on_c, 0, 71, 0
2, 30252, Note_on_c, 0, 69, 0
2, 30265, Note_on_c, 0, 68, 68
2, 30286, Note_on_c, 0, 54, 0
2, 30295, Note_on_c, 0, 57, 51
2, 30327, Note_on_c, 0, 69, 71
2, 30334, Note_on_c, 0, 68, 0
2, 30402, Note_on_c, 0, 57, 0
2, 30426, Note_on_c, 0, 69, 0
2, 30450, Note_on_c, 0, 78, 75
2, 30466, Note_on_c, 0, 50, 37
2, 30632, Note_on_c, 0, 50, 0
2, 30633, Note_on_c, 0, 54, 58
2, 30725, Note_on_c, 0, 54, 0
2, 30819, Note_on_c, 0, 52, 63
2, 30875, Note_on_c, 0, 78, 0
2, 30992, Note_on_c, 0, 57, 58
2, 30996, Note_on_c, 0, 52, 0
2, 31127, Note_on_c, 0, 57, 0
2, 31157, Note_on_c, 0, 59, 55
2, 31169, Note_on_c, 0, 69, 70
2, 31227, Note_on_c, 0, 59, 0
2, 31229, Note_on_c, 0, 57, 59
2, 31316, Note_on_c, 0, 57, 0
2, 31322, Note_on_c, 0, 56, 66
2, 31374, Note_on_c, 0, 69, 0
2, 31404, Note_on_c, 0, 56, 0
2, 31415, Note_on_c, 0, 57, 63
2, 31504, Note_on_c, 0, 71, 66
2, 31509, Note_on_c, 0, 61, 63
2, 31527, Note_on_c, 0, 57, 0
2, 31579, Note_on_c, 0, 69, 73
2, 31580, Note_on_c, 0, 71, 0
2, 31641, Note_on_c, 0, 69, 0
2, 31645, Note_on_c, 0, 61, 0
2, 31650, Note_on_c, 0, 68, 69
2, 31664, Note_on_c, 0, 57, 54
2, 31713, Note_on_c, 0, 68, 0
2, 31714, Note_on_c, 0, 69, 75
2, 31781, Note_on_c, 0, 69, 0
2, 31835, Note_on_c, 0, 64, 57
2, 31836, Note_on_c, 0, 79, 75
2, 31842, Note_on_c, 0, 57, 0
2, 31979, Note_on_c, 0, 64, 0
2, 32007, Note_on_c, 0, 55, 65
2, 32133, Note_on_c, 0, 55, 0
2, 32187, Note_on_c, 0, 79, 0
2, 32194, Note_on_c, 0, 54, 64
2, 32367, Note_on_c, 0, 57, 70
2, 32372, Note_on_c, 0, 54, 0
2, 32529, Note_on_c, 0, 57, 0
2, 32540, Note_on_c, 0, 69, 77
2, 32548, Note_on_c, 0, 50, 58
2, 32720, Note_on_c, 0, 52, 67
2, 32736, Note_on_c, 0, 50, 0
2, 32807, Note_on_c, 0, 69, 0
2, 32881, Note_on_c, 0, 52, 0
2, 32888, Note_on_c, 0, 71, 62
2, 32892, Note_on_c, 0, 54, 62
2, 32956, Note_on_c, 0, 69, 70
2, 32967, Note_on_c, 0, 71, 0
2, 33019, Note_on_c, 0, 69, 0
2, 33032, Note_on_c, 0, 68, 68
2, 33084, Note_on_c, 0, 57, 49
2, 33086, Note_on_c, 0, 54, 0
2, 33092, Note_on_c, 0, 69, 72
2, 33116, Note_on_c, 0, 68, 0
2, 33147, Note_on_c, 0, 69, 0
2, 33194, Note_on_c, 0, 57, 0
2, 33208, Note_on_c, 0, 50, 54
2, 33220, Note_on_c, 0, 81, 71
2, 33385, Note_on_c, 0, 74, 74
2, 33401, Note_on_c, 0, 50, 0
2, 33402, Note_on_c, 0, 54, 51
2, 33416, Note_on_c, 0, 81, 0
2, 33486, Note_on_c, 0, 74, 0
2, 33586, Note_on_c, 0, 74, 73
2, 33587, Note_on_c, 0, 52, 52
2, 33608, Note_on_c, 0, 54, 0
2, 33758, Note_on_c, 0, 52, 0
2, 33772, Note_on_c, 0, 57, 55
2, 33953, Note_on_c, 0, 73, 58
2, 33955, Note_on_c, 0, 52, 44
2, 33976, Note_on_c, 0, 57, 0
2, 34001, Note_on_c, 0, 74, 0
2, 34120, Note_on_c, 0, 49, 59
2, 34123, Note_on_c, 0, 52, 0
2, 34205, Note_on_c, 0, 49, 0
2, 34285, Note_on_c, 0, 45, 55
2, 34347, Note_on_c, 0, 73, 0
2, 34384, Note_on_c, 0, 71, 56
2, 34409, Note_on_c, 0, 45, 0
2, 34455, Note_on_c, 0, 71, 0
2, 34458, Note_on_c, 0, 73, 62
2, 34467, Note_on_c, 0, 57, 47
2, 34538, Note_on_c, 0, 75, 67
2, 34545, Note_on_c, 0, 73, 0
2, 34609, Note_on_c, 0, 75, 0
2, 34612, Note_on_c, 0, 57, 0
2, 34625, Note_on_c, 0, 55, 50
2, 34625, Note_on_c, 0, 76, 67
2, 34718, Note_on_c, 0, 75, 65
2, 34722, Note_on_c, 0, 76, 0
2, 34763, Note_on_c, 0, 55, 0
2, 34774, Note_on_c, 0, 54, 50
2, 34780, Note_on_c, 0, 75, 0
2, 34791, Note_on_c, 0, 73, 64
2, 34859, Note_on_c, 0, 75, 66
2, 34874, Note_on_c, 0, 73, 0
2, 34929, Note_on_c, 0, 54, 0
2, 34948, Note_on_c, 0, 55, 42
2, 34966, Note_on_c, 0, 76, 71
2, 34982, Note_on_c, 0, 75, 0
2, 35140, Note_on_c, 0, 59, 49
2, 35146, Note_on_c, 0, 55, 0
2, 35149, Note_on_c, 0, 79, 74
2, 35174, Note_on_c, 0, 76, 0
2, 35299, Note_on_c, 0, 59, 0
2, 35312, Note_on_c, 0, 52, 54
2, 35325, Note_on_c, 0, 71, 70
2, 35492, Note_on_c, 0, 54, 62
2, 35495, Note_on_c, 0, 75, 77
2, 35508, Note_on_c, 0, 79, 0
2, 35541, Note_on_c, 0, 52, 0
2, 35561, Note_on_c, 0, 71, 0
2, 35614, Note_on_c, 0, 75, 0
2, 35664, Note_on_c, 0, 55, 57
2, 35666, Note_on_c, 0, 54, 0
2, 35674, Note_on_c, 0, 76, 78
2, 35843, Note_on_c, 0, 79, 75
2, 35844, Note_on_c, 0, 76, 0
2, 35853, Note_on_c, 0, 59, 58
2, 35919, Note_on_c, 0, 55, 0
2, 35994, Note_on_c, 0, 59, 0
2, 36026, Note_on_c, 0, 71, 71
2, 36033, Note_on_c, 0, 52, 45
2, 36192, Note_on_c, 0, 76, 72
2, 36196, Note_on_c, 0, 52, 0
2, 36196, Note_on_c, 0, 79, 0
2, 36203, Note_on_c, 0, 55, 57
2, 36249, Note_on_c, 0, 71, 0
2, 36289, Note_on_c, 0, 76, 0
2, 36358, Note_on_c, 0, 55, 0
2, 36370, Note_on_c, 0, 76, 70
2, 36385, Note_on_c, 0, 54, 48
2, 36564, Note_on_c, 0, 59, 49
2, 36579, Note_on_c, 0, 54, 0
2, 36686, Note_on_c, 0, 59, 0
2, 36716, Note_on_c, 0, 60, 50
2, 36730, Note_on_c, 0, 75, 59
2, 36733, Note_on_c, 0, 76, 0
2, 36781, Note_on_c, 0, 60, 0
2, 36795, Note_on_c, 0, 59, 52
2, 36862, Note_on_c, 0, 59, 0
2, 36874, Note_on_c, 0, 58, 63
2, 36881, Note_on_c, 0, 75, 0
2, 36898, Note_on_c, 0, 78, 67
2, 36956, Note_on_c, 0, 58, 0
2, 36971, Note_on_c, 0, 59, 60
2, 36984, Note_on_c, 0, 78, 0
2, 37064, Note_on_c, 0, 71, 63
2, 37066, Note_on_c, 0, 59, 0
2, 37073, Note_on_c, 0, 63, 63
2, 37229, Note_on_c, 0, 63, 0
2, 37248, Note_on_c, 0, 59, 57
2, 37415, Note_on_c, 0, 71, 0
2, 37432, Note_on_c, 0, 69, 57
2, 37435, Note_on_c, 0, 66, 54
2, 37437, Note_on_c, 0, 59, 0
2, 37571, Note_on_c, 0, 66, 0
2, 37586, Note_on_c, 0, 69, 0
2, 37593, Note_on_c, 0, 78, 62
2, 37604, Note_on_c, 0, 57, 49
2, 37629, Note_on_c, 0, 78, 0
2, 37754, Note_on_c, 0, 78, 59
2, 37786, Note_on_c, 0, 55, 47
2, 37822, Note_on_c, 0, 57, 0
2, 37836, Note_on_c, 0, 76, 55
2, 37870, Note_on_c, 0, 78, 0
2, 37905, Note_on_c, 0, 76, 0
2, 37914, Note_on_c, 0, 75, 65
2, 37923, Note_on_c, 0, 55, 0
2, 37954, Note_on_c, 0, 59, 42
2, 38099, Note_on_c, 0, 76, 60
2, 38107, Note_on_c, 0, 59, 0
2, 38115, Note_on_c, 0, 52, 46
2, 38124, Note_on_c, 0, 75, 0
2, 38291, Note_on_c, 0, 54, 57
2, 38293, Note_on_c, 0, 52, 0
2, 38295, Note_on_c, 0, 76, 0
2, 38298, Note_on_c, 0, 69, 60
2, 38377, Note_on_c, 0, 69, 0
2, 38451, Note_on_c, 0, 54, 0
2, 38473, Note_on_c, 0, 55, 47
2, 38474, Note_on_c, 0, 69, 71
2, 38653, Note_on_c, 0, 59, 58
2, 38736, Note_on_c, 0, 55, 0
2, 38801, Note_on_c, 0, 59, 0
2, 38815, Note_on_c, 0, 52, 48
2, 38824, Note_on_c, 0, 67, 70
2, 38943, Note_on_c, 0, 69, 0
2, 38996, Note_on_c, 0, 76, 73
2, 38999, Note_on_c, 0, 67, 0
2, 39002, Note_on_c, 0, 55, 57
2, 39005, Note_on_c, 0, 52, 0
2, 39072, Note_on_c, 0, 76, 0
2, 39176, Note_on_c, 0, 54, 50
2, 39182, Note_on_c, 0, 76, 76
2, 39205, Note_on_c, 0, 55, 0
2, 39347, Note_on_c, 0, 54, 0
2, 39356, Note_on_c, 0, 75, 82
2, 39361, Note_on_c, 0, 59, 51
2, 39374, Note_on_c, 0, 76, 0
2, 39450, Note_on_c, 0, 75, 0
2, 39537, Note_on_c, 0, 81, 76
2, 39546, Note_on_c, 0, 54, 53
2, 39602, Note_on_c, 0, 59, 0
2, 39700, Note_on_c, 0, 54, 0
2, 39715, Note_on_c, 0, 51, 54
2, 39803, Note_on_c, 0, 51, 0
2, 39883, Note_on_c, 0, 47, 52
2, 39971, Note_on_c, 0, 79, 60
2, 40005, Note_on_c, 0, 81, 0
2, 40044, Note_on_c, 0, 79, 0
2, 40051, Note_on_c, 0, 78, 67
2, 40097, Note_on_c, 0, 78, 0
2, 40128, Note_on_c, 0, 76, 55
2, 40197, Note_on_c, 0, 76, 0
2, 40230, Note_on_c, 0, 75, 56
2, 40304, Note_on_c, 0, 73, 61
2, 40313, Note_on_c, 0, 75, 0
2, 40370, Note_on_c, 0, 47, 0
2, 40376, Note_on_c, 0, 73, 0
2, 40384, Note_on_c, 0, 71, 57
2, 40449, Note_on_c, 0, 71, 0
2, 40466, Note_on_c, 0, 69, 62
2, 40522, Note_on_c, 0, 69, 0
2, 40588, Note_on_c, 0, 67, 60
2, 40749, Note_on_c, 0, 67, 0
2, 40772, Note_on_c, 0, 71, 54
2, 40946, Note_on_c, 0, 55, 57
2, 40956, Note_on_c, 0, 64, 43
2, 41112, Note_on_c, 0, 64, 0
2, 41130, Note_on_c, 0, 66, 56
2, 41194, Note_on_c, 0, 55, 0
2, 41299, Note_on_c, 0, 66, 0
2, 41299, Note_on_c, 0, 67, 57
2, 41307, Note_on_c, 0, 52, 59
2, 41314, Note_on_c, 0, 71, 0
2, 41470, Note_on_c, 0, 67, 0
2, 41492, Note_on_c, 0, 71, 54
2, 41544, Note_on_c, 0, 52, 0
2, 41667, Note_on_c, 0, 64, 46
2, 41669, Note_on_c, 0, 47, 50
2, 41743, Note_on_c, 0, 71, 0
2, 41846, Note_on_c, 0, 64, 0
2, 41847, Note_on_c, 0, 67, 57
2, 41920, Note_on_c, 0, 67, 0
2, 42024, Note_on_c, 0, 66, 63
2, 42185, Note_on_c, 0, 71, 63
2, 42234, Note_on_c, 0, 47, 0
2, 42246, Note_on_c, 0, 66, 0
2, 42328, Note_on_c, 0, 71, 0
2, 42356, Note_on_c, 0, 72, 55
2, 42366, Note_on_c, 0, 57, 59
2, 42429, Note_on_c, 0, 72, 0
2, 42441, Note_on_c, 0, 71, 62
2, 42503, Note_on_c, 0, 71, 0
2, 42513, Note_on_c, 0, 70, 64
2, 42581, Note_on_c, 0, 71, 59
2, 42583, Note_on_c, 0, 70, 0
2, 42599, Note_on_c, 0, 57, 0
2, 42684, Note_on_c, 0, 71, 0
2, 42690, Note_on_c, 0, 54, 64
2, 42696, Note_on_c, 0, 75, 70
2, 42882, Note_on_c, 0, 71, 72
2, 42930, Note_on_c, 0, 75, 0
2, 42953, Note_on_c, 0, 54, 0
2, 43007, Note_on_c, 0, 71, 0
2, 43062, Note_on_c, 0, 78, 68
2, 43063, Note_on_c, 0, 47, 66
2, 43237, Note_on_c, 0, 69, 68
2, 43242, Note_on_c, 0, 78, 0
2, 43347, Note_on_c, 0, 69, 0
2, 43412, Note_on_c, 0, 67, 73
2, 43444, Note_on_c, 0, 47, 0
2, 43595, Note_on_c, 0, 71, 68
2, 43623, Note_on_c, 0, 67, 0
2, 43770, Note_on_c, 0, 59, 76
2, 43806, Note_on_c, 0, 64, 48
2, 43955, Note_on_c, 0, 64, 0
2, 43960, Note_on_c, 0, 66, 66
2, 44024, Note_on_c, 0, 66, 0
2, 44024, Note_on_c, 0, 71, 0
2, 44138, Note_on_c, 0, 67, 61
2, 44291, Note_on_c, 0, 67, 0
2, 44300, Note_on_c, 0, 57, 57
2, 44305, Note_on_c, 0, 59, 0
2, 44337, Note_on_c, 0, 71, 42
2, 44381, Note_on_c, 0, 55, 61
2, 44385, Note_on_c, 0, 57, 0
2, 44454, Note_on_c, 0, 55, 0
2, 44476, Note_on_c, 0, 57, 56
2, 44501, Note_on_c, 0, 64, 16
2, 44546, Note_on_c, 0, 55, 51
2, 44546, Note_on_c, 0, 57, 0
2, 44546, Note_on_c, 0, 64, 0
2, 44587, Note_on_c, 0, 67, 44
2, 44603, Note_on_c, 0, 71, 0
2, 44625, Note_on_c, 0, 55, 0
2, 44633, Note_on_c, 0, 54, 57
2, 44714, Note_on_c, 0, 67, 0
2, 44719, Note_on_c, 0, 52, 55
2, 44721, Note_on_c, 0, 66, 46
2, 44727, Note_on_c, 0, 54, 0
2, 44748, Note_on_c, 0, 66, 0
2, 44750, Note_on_c, 0, 52, 0
2, 44824, Note_on_c, 0, 52, 58
2, 44826, Note_on_c, 0, 66, 56
2, 44980, Note_on_c, 0, 66, 0
2, 45009, Note_on_c, 0, 71, 46
2, 45188, Note_on_c, 0, 51, 47
2, 45214, Note_on_c, 0, 66, 48
2, 45223, Note_on_c, 0, 52, 0
2, 45225, Note_on_c, 0, 71, 0
2, 45374, Note_on_c, 0, 66, 0
2, 45386, Note_on_c, 0, 63, 47
2, 45477, Note_on_c, 0, 51, 0
2, 45549, Note_on_c, 0, 63, 0
2, 45576, Note_on_c, 0, 59, 53
2, 45674, Note_on_c, 0, 59, 0
2, 45738, Note_on_c, 0, 57, 48
2, 45827, Note_on_c, 0, 57, 0
2, 45832, Note_on_c, 0, 55, 51
2, 45908, Note_on_c, 0, 55, 0
2, 45923, Note_on_c, 0, 54, 60
2, 45936, Note_on_c, 0, 75, 68
2, 46007, Note_on_c, 0, 54, 0
2, 46016, Note_on_c, 0, 55, 52
2, 46087, Note_on_c, 0, 55, 0
2, 46115, Note_on_c, 0, 57, 56
2, 46310, Note_on_c, 0, 55, 62
2, 46310, Note_on_c, 0, 76, 68
2, 46313, Note_on_c, 0, 57, 0
2, 46355, Note_on_c, 0, 55, 0
2, 46370, Note_on_c, 0, 75, 0
2, 46501, Note_on_c, 0, 64, 56
2, 46567, Note_on_c, 0, 64, 0
2, 46581, Note_on_c, 0, 66, 62
2, 46668, Note_on_c, 0, 66, 0
2, 46684, Note_on_c, 0, 67, 62
2, 46689, Note_on_c, 0, 76, 0
2, 46690, Note_on_c, 0, 71, 54
2, 46759, Note_on_c, 0, 67, 0
2, 46761, Note_on_c, 0, 66, 63
2, 46800, Note_on_c, 0, 71, 0
2, 46848, Note_on_c, 0, 66, 0
2, 46856, Note_on_c, 0, 64, 67
2, 47028, Note_on_c, 0, 64, 0
2, 47041, Note_on_c, 0, 79, 59
2, 47121, Note_on_c, 0, 78, 69
2, 47124, Note_on_c, 0, 79, 0
2, 47196, Note_on_c, 0, 78, 0
2, 47206, Note_on_c, 0, 76, 65
2, 47219, Note_on_c, 0, 71, 50
2, 47285, Note_on_c, 0, 78, 73
2, 47306, Note_on_c, 0, 76, 0
2, 47322, Note_on_c, 0, 71, 0
2, 47341, Note_on_c, 0, 78, 0
2, 47390, Note_on_c, 0, 79, 75
2, 47547, Note_on_c, 0, 79, 0
2, 47550, Note_on_c, 0, 62, 67
2, 47577, Note_on_c, 0, 71, 60
2, 47699, Note_on_c, 0, 71, 0
2, 47734, Note_on_c, 0, 69, 65
2, 47876, Note_on_c, 0, 62, 0
2, 47888, Note_on_c, 0, 64, 58
2, 47897, Note_on_c, 0, 69, 0
2, 47913, Note_on_c, 0, 68, 57
2, 47962, Note_on_c, 0, 64, 0
2, 47973, Note_on_c, 0, 62, 53
2, 48047, Note_on_c, 0, 62, 0
2, 48053, Note_on_c, 0, 61, 69
2, 48071, Note_on_c, 0, 68, 0
2, 48080, Note_on_c, 0, 69, 50
2, 48132, Note_on_c, 0, 61, 0
2, 48160, Note_on_c, 0, 62, 68
2, 48231, Note_on_c, 0, 69, 0
2, 48240, Note_on_c, 0, 62, 0
2, 48240, Note_on_c, 0, 73, 67
2, 48249, Note_on_c, 0, 64, 72
2, 48304, Note_on_c, 0, 73, 0
2, 48428, Note_on_c, 0, 73, 73
2, 48581, Note_on_c, 0, 64, 0
2, 48601, Note_on_c, 0, 76, 78
2, 48603, Note_on_c, 0, 55, 56
2, 48643, Note_on_c, 0, 73, 0
2, 48791, Note_on_c, 0, 81, 75
2, 48802, Note_on_c, 0, 76, 0
2, 48932, Note_on_c, 0, 55, 0
2, 48963, Note_on_c, 0, 64, 54
2, 48970, Note_on_c, 0, 73, 66
2, 49061, Note_on_c, 0, 64, 0
2, 49113, Note_on_c, 0, 73, 0
2, 49148, Note_on_c, 0, 81, 0
2, 49153, Note_on_c, 0, 54, 58
2, 49156, Note_on_c, 0, 74, 59
2, 49196, Note_on_c, 0, 54, 0
2, 49323, Note_on_c, 0, 62, 56
2, 49403, Note_on_c, 0, 62, 0
2, 49407, Note_on_c, 0, 64, 59
2, 49477, Note_on_c, 0, 64, 0
2, 49487, Note_on_c, 0, 66, 65
2, 49487, Note_on_c, 0, 74, 0
2, 49512, Note_on_c, 0, 69, 48
2, 49566, Note_on_c, 0, 66, 0
2, 49569, Note_on_c, 0, 69, 0
2, 49580, Note_on_c, 0, 64, 61
2, 49662, Note_on_c, 0, 62, 69
2, 49662, Note_on_c, 0, 64, 0
2, 49843, Note_on_c, 0, 62, 0
2, 49852, Note_on_c, 0, 78, 60
2, 49932, Note_on_c, 0, 76, 62
2, 49940, Note_on_c, 0, 78, 0
2, 50009, Note_on_c, 0, 76, 0
2, 50025, Note_on_c, 0, 69, 56
2, 50028, Note_on_c, 0, 74, 65
2, 50096, Note_on_c, 0, 74, 0
2, 50098, Note_on_c, 0, 69, 0
2, 50110, Note_on_c, 0, 76, 57
2, 50163, Note_on_c, 0, 76, 0
2, 50195, Note_on_c, 0, 78, 69
2, 50348, Note_on_c, 0, 60, 60
2, 50357, Note_on_c, 0, 78, 0
2, 50379, Note_on_c, 0, 69, 57
2, 50514, Note_on_c, 0, 69, 0
2, 50554, Note_on_c, 0, 67, 62
2, 50700, Note_on_c, 0, 60, 0
2, 50716, Note_on_c, 0, 62, 49
2, 50729, Note_on_c, 0, 67, 0
2, 50747, Note_on_c, 0, 66, 58
2, 50791, Note_on_c, 0, 62, 0
2, 50809, Note_on_c, 0, 60, 44
2, 50869, Note_on_c, 0, 60, 0
2, 50885, Note_on_c, 0, 59, 59
2, 50917, Note_on_c, 0, 66, 0
2, 50937, Note_on_c, 0, 67, 30
2, 50965, Note_on_c, 0, 59, 0
2, 50978, Note_on_c, 0, 60, 65
2, 51048, Note_on_c, 0, 60, 0
2, 51067, Note_on_c, 0, 67, 0
2, 51070, Note_on_c, 0, 62, 68
2, 51083, Note_on_c, 0, 71, 58
2, 51143, Note_on_c, 0, 71, 0
2, 51275, Note_on_c, 0, 71, 59
2, 51432, Note_on_c, 0, 62, 0
2, 51439, Note_on_c, 0, 54, 52
2, 51445, Note_on_c, 0, 74, 61
2, 51455, Note_on_c, 0, 71, 0
2, 51618, Note_on_c, 0, 74, 0
2, 51629, Note_on_c, 0, 79, 63
2, 51791, Note_on_c, 0, 54, 0
2, 51794, Note_on_c, 0, 62, 50
2, 51809, Note_on_c, 0, 71, 58
2, 51887, Note_on_c, 0, 62, 0
2, 51975, Note_on_c, 0, 71, 0
2, 51997, Note_on_c, 0, 52, 57
2, 52000, Note_on_c, 0, 73, 62
2, 52036, Note_on_c, 0, 79, 0
2, 52083, Note_on_c, 0, 73, 0
2, 52156, Note_on_c, 0, 52, 0
2, 52187, Note_on_c, 0, 79, 67
2, 52359, Note_on_c, 0, 50, 66
2, 52538, Note_on_c, 0, 78, 73
2, 52580, Note_on_c, 0, 50, 0
2, 52628, Note_on_c, 0, 79, 0
2, 52713, Note_on_c, 0, 49, 70
2, 52722, Note_on_c, 0, 70, 72
2, 52725, Note_on_c, 0, 78, 0
2, 52842, Note_on_c, 0, 70, 0
2, 52907, Note_on_c, 0, 76, 77
2, 52955, Note_on_c, 0, 49, 0
2, 53084, Note_on_c, 0, 47, 72
2, 53268, Note_on_c, 0, 74, 70
2, 53483, Note_on_c, 0, 47, 0
2, 53486, Note_on_c, 0, 65, 62
2, 53499, Note_on_c, 0, 74, 0
2, 53531, Note_on_c, 0, 76, 0
2, 53690, Note_on_c, 0, 62, 52
2, 53882, Note_on_c, 0, 66, 58
2, 53950, Note_on_c, 0, 65, 0
2, 54053, Note_on_c, 0, 61, 58
2, 54121, Note_on_c, 0, 62, 0
2, 54237, Note_on_c, 0, 68, 67
2, 54241, Note_on_c, 0, 53, 54
2, 54261, Note_on_c, 0, 61, 0
2, 54288, Note_on_c, 0, 66, 0
2, 54317, Note_on_c, 0, 53, 0
2, 54439, Note_on_c, 0, 59, 65
2, 54617, Note_on_c, 0, 69, 70
2, 54661, Note_on_c, 0, 68, 0
2, 54797, Note_on_c, 0, 57, 69
2, 54909, Note_on_c, 0, 59, 0
2, 54985, Note_on_c, 0, 50, 61
2, 54989, Note_on_c, 0, 71, 73
2, 55013, Note_on_c, 0, 57, 0
2, 55075, Note_on_c, 0, 69, 0
2, 55086, Note_on_c, 0, 50, 0
2, 55177, Note_on_c, 0, 56, 73
2, 55361, Note_on_c, 0, 73, 73
2, 55499, Note_on_c, 0, 71, 0
2, 55536, Note_on_c, 0, 54, 70
2, 55578, Note_on_c, 0, 56, 0
2, 55744, Note_on_c, 0, 54, 0
2, 55754, Note_on_c, 0, 74, 63
2, 55755, Note_on_c, 0, 47, 56
2, 55760, Note_on_c, 0, 73, 0
2, 55872, Note_on_c, 0, 74, 0
2, 55933, Note_on_c, 0, 47, 0
2, 55941, Note_on_c, 0, 65, 65
2, 56133, Note_on_c, 0, 59, 59
2, 56314, Note_on_c, 0, 66, 57
2, 56346, Note_on_c, 0, 59, 0
2, 56383, Note_on_c, 0, 65, 0
2, 56496, Note_on_c, 0, 53, 52
2, 56509, Note_on_c, 0, 68, 58
2, 56517, Note_on_c, 0, 66, 0
2, 56621, Note_on_c, 0, 68, 0
2, 56634, Note_on_c, 0, 53, 0
2, 56700, Note_on_c, 0, 59, 57
2, 56884, Note_on_c, 0, 56, 45
2, 57072, Note_on_c, 0, 62, 49
2, 57101, Note_on_c, 0, 56, 0
2, 57134, Note_on_c, 0, 59, 0
2, 57241, Note_on_c, 0, 49, 48
2, 57448, Note_on_c, 0, 61, 51
2, 57479, Note_on_c, 0, 62, 0
2, 57499, Note_on_c, 0, 49, 0
2, 57627, Note_on_c, 0, 53, 46
2, 57817, Note_on_c, 0, 61, 0
2, 57822, Note_on_c, 0, 59, 51
2, 57856, Note_on_c, 0, 53, 0
2, 57975, Note_on_c, 0, 59, 0
2, 58003, Note_on_c, 0, 42, 46
2, 58013, Note_on_c, 0, 57, 47
2, 58184, Note_on_c, 0, 57, 0
2, 58204, Note_on_c, 0, 61, 60
2, 58221, Note_on_c, 0, 42, 0
2, 58377, Note_on_c, 0, 45, 54
2, 58388, Note_on_c, 0, 54, 54
2, 58404, Note_on_c, 0, 61, 0
2, 58565, Note_on_c, 0, 56, 62
2, 58630, Note_on_c, 0, 54, 0
2, 58647, Note_on_c, 0, 45, 0
2, 58721, Note_on_c, 0, 56, 0
2, 58757, Note_on_c, 0, 49, 54
2, 58759, Note_on_c, 0, 57, 57
2, 58936, Note_on_c, 0, 57, 0
2, 58952, Note_on_c, 0, 61, 56
2, 59117, Note_on_c, 0, 54, 48
2, 59153, Note_on_c, 0, 49, 0
2, 59188, Note_on_c, 0, 50, 49
2, 59211, Note_on_c, 0, 61, 0
2, 59249, Note_on_c, 0, 54, 0
2, 59256, Note_on_c, 0, 50, 0
2, 59273, Note_on_c, 0, 57, 17
2, 59274, Note_on_c, 0, 49, 55
2, 59312, Note_on_c, 0, 57, 0
2, 59350, Note_on_c, 0, 48, 56
2, 59362, Note_on_c, 0, 49, 0
2, 59442, Note_on_c, 0, 48, 0
2, 59450, Note_on_c, 0, 49, 46
2, 59469, Note_on_c, 0, 56, 54
2, 59649, Note_on_c, 0, 61, 58
2, 59665, Note_on_c, 0, 56, 0
2, 59792, Note_on_c, 0, 61, 0
2, 59811, Note_on_c, 0, 41, 48
2, 59827, Note_on_c, 0, 62, 51
2, 59907, Note_on_c, 0, 49, 0
2, 59910, Note_on_c, 0, 62, 0
2, 59915, Note_on_c, 0, 61, 58
2, 59969, Note_on_c, 0, 61, 0
2, 59992, Note_on_c, 0, 60, 59
2, 59995, Note_on_c, 0, 41, 0
2, 60053, Note_on_c, 0, 60, 0
2, 60071, Note_on_c, 0, 61, 61
2, 60156, Note_on_c, 0, 44, 48
2, 60171, Note_on_c, 0, 61, 0
2, 60171, Note_on_c, 0, 65, 65
2, 60334, Note_on_c, 0, 61, 63
2, 60345, Note_on_c, 0, 44, 0
2, 60386, Note_on_c, 0, 65, 0
2, 60519, Note_on_c, 0, 49, 40
2, 60523, Note_on_c, 0, 61, 0
2, 60526, Note_on_c, 0, 68, 65
2, 60699, Note_on_c, 0, 59, 55
2, 60757, Note_on_c, 0, 49, 0
2, 60762, Note_on_c, 0, 68, 0
2, 60788, Note_on_c, 0, 59, 0
2, 60891, Note_on_c, 0, 57, 58
2, 60900, Note_on_c, 0, 42, 43
2, 61056, Note_on_c, 0, 49, 66
2, 61135, Note_on_c, 0, 42, 0
2, 61242, Note_on_c, 0, 49, 0
2, 61251, Note_on_c, 0, 61, 64
2, 61255, Note_on_c, 0, 54, 52
2, 61286, Note_on_c, 0, 57, 0
2, 61413, Note_on_c, 0, 61, 0
2, 61419, Note_on_c, 0, 56, 62
2, 61455, Note_on_c, 0, 54, 0
2, 61599, Note_on_c, 0, 66, 74
2, 61604, Note_on_c, 0, 56, 0
2, 61606, Note_on_c, 0, 57, 49
2, 61774, Note_on_c, 0, 61, 71
2, 61800, Note_on_c, 0, 66, 0
2, 61817, Note_on_c, 0, 57, 0
2, 61949, Note_on_c, 0, 69, 76
2, 61953, Note_on_c, 0, 54, 54
2, 61964, Note_on_c, 0, 61, 0
2, 62136, Note_on_c, 0, 57, 67
2, 62156, Note_on_c, 0, 69, 0
2, 62190, Note_on_c, 0, 54, 0
2, 62314, Note_on_c, 0, 65, 75
2, 62322, Note_on_c, 0, 56, 55
2, 62322, Note_on_c, 0, 57, 0
2, 62487, Note_on_c, 0, 56, 0
2, 62496, Note_on_c, 0, 61, 70
2, 62538, Note_on_c, 0, 65, 0
2, 62662, Note_on_c, 0, 61, 0
2, 62666, Note_on_c, 0, 68, 76
2, 62676, Note_on_c, 0, 62, 61
2, 62765, Note_on_c, 0, 61, 67
2, 62777, Note_on_c, 0, 62, 0
2, 62836, Note_on_c, 0, 61, 0
2, 62843, Note_on_c, 0, 60, 66
2, 62851, Note_on_c, 0, 68, 0
2, 62933, Note_on_c, 0, 61, 75
2, 62935, Note_on_c, 0, 60, 0
2, 63030, Note_on_c, 0, 71, 75
2, 63061, Note_on_c, 0, 65, 61
2, 63084, Note_on_c, 0, 61, 0
2, 63210, Note_on_c, 0, 61, 72
2, 63235, Note_on_c, 0, 65, 0
2, 63252, Note_on_c, 0, 71, 0
2, 63397, Note_on_c, 0, 61, 0
2, 63406, Note_on_c, 0, 74, 71
2, 63416, Note_on_c, 0, 68, 54
2, 63576, Note_on_c, 0, 68, 0
2, 63593, Note_on_c, 0, 59, 57
2, 63716, Note_on_c, 0, 59, 0
2, 63777, Note_on_c, 0, 73, 64
2, 63785, Note_on_c, 0, 57, 52
2, 63794, Note_on_c, 0, 74, 0
2, 63908, Note_on_c, 0, 73, 0
2, 63937, Note_on_c, 0, 57, 0
2, 63970, Note_on_c, 0, 66, 57
2, 64036, Note_on_c, 0, 68, 64
2, 64037, Note_on_c, 0, 66, 0
2, 64099, Note_on_c, 0, 68, 0
2, 64119, Note_on_c, 0, 69, 59
2, 64143, Note_on_c, 0, 54, 50
2, 64192, Note_on_c, 0, 68, 68
2, 64197, Note_on_c, 0, 69, 0
2, 64254, Note_on_c, 0, 68, 0
2, 64312, Note_on_c, 0, 66, 66
2, 64348, Note_on_c, 0, 54, 0
2, 64504, Note_on_c, 0, 56, 61
2, 64648, Note_on_c, 0, 66, 0
2, 64688, Note_on_c, 0, 73, 67
2, 64716, Note_on_c, 0, 56, 0
2, 64873, Note_on_c, 0, 58, 63
2, 65032, Note_on_c, 0, 73, 0
2, 65038, Note_on_c, 0, 64, 65
2, 65108, Note_on_c, 0, 58, 0
2, 65227, Note_on_c, 0, 59, 61
2, 65393, Note_on_c, 0, 64, 0
2, 65416, Note_on_c, 0, 66, 56
2, 65425, Note_on_c, 0, 59, 0
2, 65495, Note_on_c, 0, 66, 0
2, 65502, Note_on_c, 0, 64, 58
2, 65565, Note_on_c, 0, 64, 0
2, 65583, Note_on_c, 0, 62, 59
2, 65590, Note_on_c, 0, 47, 41
2, 65652, Note_on_c, 0, 62, 0
2, 65657, Note_on_c, 0, 64, 59
2, 65730, Note_on_c, 0, 64, 0
2, 65751, Note_on_c, 0, 47, 0
2, 65764, Note_on_c, 0, 66, 63
2, 65953, Note_on_c, 0, 49, 54
2, 66040, Note_on_c, 0, 66, 0
2, 66146, Note_on_c, 0, 57, 54
2, 66156, Note_on_c, 0, 49, 0
2, 66317, Note_on_c, 0, 51, 51
2, 66475, Note_on_c, 0, 51, 0
2, 66486, Note_on_c, 0, 57, 0
2, 66495, Note_on_c, 0, 66, 55
2, 66660, Note_on_c, 0, 66, 0
2, 66700, Note_on_c, 0, 55, 48
2, 66705, Note_on_c, 0, 40, 51
2, 66788, Note_on_c, 0, 55, 0
2, 66887, Note_on_c, 0, 64, 55
2, 66911, Note_on_c, 0, 40, 0
2, 66974, Note_on_c, 0, 66, 65
2, 66980, Note_on_c, 0, 64, 0
2, 67049, Note_on_c, 0, 66, 0
2, 67064, Note_on_c, 0, 67, 62
2, 67068, Note_on_c, 0, 52, 45
2, 67127, Note_on_c, 0, 66, 65
2, 67154, Note_on_c, 0, 67, 0
2, 67186, Note_on_c, 0, 66, 0
2, 67236, Note_on_c, 0, 64, 70
2, 67238, Note_on_c, 0, 52, 0
2, 67433, Note_on_c, 0, 54, 64
2, 67456, Note_on_c, 0, 64, 0
2, 67616, Note_on_c, 0, 71, 65
2, 67657, Note_on_c, 0, 54, 0
2, 67790, Note_on_c, 0, 55, 65
2, 67942, Note_on_c, 0, 71, 0
2, 67969, Note_on_c, 0, 62, 68
2, 67975, Note_on_c, 0, 55, 0
2, 68158, Note_on_c, 0, 57, 65
2, 68322, Note_on_c, 0, 62, 0
2, 68325, Note_on_c, 0, 57, 0
2, 68354, Note_on_c, 0, 64, 50
2, 68412, Note_on_c, 0, 64, 0
2, 68431, Note_on_c, 0, 62, 59
2, 68502, Note_on_c, 0, 62, 0
2, 68513, Note_on_c, 0, 45, 43
2, 68520, Note_on_c, 0, 61, 56
2, 68587, Note_on_c, 0, 62, 60
2, 68593, Note_on_c, 0, 61, 0
2, 68648, Note_on_c, 0, 62, 0
2, 68701, Note_on_c, 0, 64, 61
2, 68705, Note_on_c, 0, 45, 0
2, 68887, Note_on_c, 0, 47, 51
2, 68946, Note_on_c, 0, 64, 0
2, 69078, Note_on_c, 0, 47, 0
2, 69088, Note_on_c, 0, 55, 50
2, 69265, Note_on_c, 0, 49, 52
2, 69418, Note_on_c, 0, 49, 0
2, 69429, Note_on_c, 0, 55, 0
2, 69448, Note_on_c, 0, 64, 52
2, 69632, Note_on_c, 0, 38, 45
2, 69638, Note_on_c, 0, 54, 52
2, 69736, Note_on_c, 0, 64, 0
2, 69776, Note_on_c, 0, 54, 0
2, 69825, Note_on_c, 0, 61, 60
2, 69843, Note_on_c, 0, 38, 0
2, 69999, Note_on_c, 0, 42, 59
2, 70111, Note_on_c, 0, 61, 0
2, 70188, Note_on_c, 0, 64, 59
2, 70216, Note_on_c, 0, 42, 0
2, 70358, Note_on_c, 0, 45, 56
2, 70533, Note_on_c, 0, 64, 0
2, 70553, Note_on_c, 0, 62, 53
2, 70555, Note_on_c, 0, 45, 0
2, 70622, Note_on_c, 0, 62, 0
2, 70627, Note_on_c, 0, 61, 65
2, 70696, Note_on_c, 0, 61, 0
2, 70712, Note_on_c, 0, 50, 43
2, 70723, Note_on_c, 0, 62, 53
2, 70776, Note_on_c, 0, 61, 60
2, 70782, Note_on_c, 0, 50, 0
2, 70785, Note_on_c, 0, 62, 0
2, 70859, Note_on_c, 0, 61, 0
2, 70872, Note_on_c, 0, 59, 54
2, 70919, Note_on_c, 0, 59, 0
2, 70938, Note_on_c, 0, 58, 60
2, 71007, Note_on_c, 0, 58, 0
2, 71048, Note_on_c, 0, 59, 64
2, 71063, Note_on_c, 0, 43, 59
2, 71124, Note_on_c, 0, 59, 0
2, 71241, Note_on_c, 0, 66, 69
2, 71298, Note_on_c, 0, 43, 0
2, 71418, Note_on_c, 0, 47, 67
2, 71433, Note_on_c, 0, 66, 0
2, 71590, Note_on_c, 0, 69, 72
2, 71631, Note_on_c, 0, 47, 0
2, 71773, Note_on_c, 0, 50, 65
2, 71967, Note_on_c, 0, 67, 57
2, 71968, Note_on_c, 0, 69, 0
2, 71981, Note_on_c, 0, 50, 0
2, 72032, Note_on_c, 0, 67, 0
2, 72036, Note_on_c, 0, 66, 68
2, 72089, Note_on_c, 0, 66, 0
2, 72124, Note_on_c, 0, 67, 62
2, 72130, Note_on_c, 0, 55, 52
2, 72200, Note_on_c, 0, 66, 71
2, 72206, Note_on_c, 0, 55, 0
2, 72217, Note_on_c, 0, 67, 0
2, 72291, Note_on_c, 0, 66, 0
2, 72292, Note_on_c, 0, 64, 67
2, 72359, Note_on_c, 0, 64, 0
2, 72363, Note_on_c, 0, 62, 65
2, 72409, Note_on_c, 0, 62, 0
2, 72459, Note_on_c, 0, 49, 67
2, 72477, Note_on_c, 0, 64, 70
2, 72578, Note_on_c, 0, 64, 0
2, 72652, Note_on_c, 0, 71, 76
2, 72692, Note_on_c, 0, 49, 0
2, 72816, Note_on_c, 0, 52, 74
2, 72845, Note_on_c, 0, 71, 0
2, 72999, Note_on_c, 0, 74, 76
2, 73046, Note_on_c, 0, 52, 0
2, 73180, Note_on_c, 0, 55, 70
2, 73328, Note_on_c, 0, 55, 0
2, 73367, Note_on_c, 0, 73, 67
2, 73376, Note_on_c, 0, 74, 0
2, 73455, Note_on_c, 0, 73, 0
2, 73456, Note_on_c, 0, 71, 64
2, 73525, Note_on_c, 0, 71, 0
2, 73530, Note_on_c, 0, 61, 59
2, 73535, Note_on_c, 0, 73, 61
2, 73610, Note_on_c, 0, 71, 65
2, 73635, Note_on_c, 0, 61, 0
2, 73658, Note_on_c, 0, 73, 0
2, 73683, Note_on_c, 0, 70, 72
2, 73683, Note_on_c, 0, 71, 0
2, 73749, Note_on_c, 0, 70, 0
2, 73754, Note_on_c, 0, 68, 75
2, 73864, Note_on_c, 0, 70, 73
2, 73867, Note_on_c, 0, 54, 67
2, 73872, Note_on_c, 0, 68, 0
2, 73961, Note_on_c, 0, 70, 0
2, 74044, Note_on_c, 0, 76, 79
2, 74082, Note_on_c, 0, 54, 0
2, 74209, Note_on_c, 0, 58, 70
2, 74248, Note_on_c, 0, 76, 0
2, 74393, Note_on_c, 0, 79, 81
2, 74461, Note_on_c, 0, 58, 0
2, 74586, Note_on_c, 0, 61, 65
2, 74769, Note_on_c, 0, 78, 64
2, 74777, Note_on_c, 0, 61, 0
2, 74806, Note_on_c, 0, 79, 0
2, 74850, Note_on_c, 0, 76, 61
2, 74856, Note_on_c, 0, 78, 0
2, 74907, Note_on_c, 0, 76, 0
2, 74923, Note_on_c, 0, 78, 61
2, 74925, Note_on_c, 0, 66, 54
2, 75000, Note_on_c, 0, 76, 63
2, 75033, Note_on_c, 0, 66, 0
2, 75049, Note_on_c, 0, 78, 0
2, 75087, Note_on_c, 0, 76, 0
2, 75094, Note_on_c, 0, 74, 67
2, 75163, Note_on_c, 0, 74, 0
2, 75172, Note_on_c, 0, 73, 65
2, 75261, Note_on_c, 0, 73, 0
2, 75269, Note_on_c, 0, 59, 56
2, 75283, Note_on_c, 0, 74, 67
2, 75390, Note_on_c, 0, 74, 0
2, 75436, Note_on_c, 0, 59, 0
2, 75445, Note_on_c, 0, 70, 71
2, 75628, Note_on_c, 0, 67, 67
2, 75814, Note_on_c, 0, 71, 65
2, 75850, Note_on_c, 0, 70, 0
2, 75967, Note_on_c, 0, 67, 0
2, 75984, Note_on_c, 0, 73, 59
2, 75986, Note_on_c, 0, 71, 0
2, 75992, Note_on_c, 0, 57, 46
2, 76149, Note_on_c, 0, 67, 59
2, 76156, Note_on_c, 0, 75, 59
2, 76176, Note_on_c, 0, 57, 0
2, 76184, Note_on_c, 0, 73, 0
2, 76287, Note_on_c, 0, 75, 0
2, 76307, Note_on_c, 0, 76, 61
2, 76327, Note_on_c, 0, 66, 61
2, 76386, Note_on_c, 0, 67, 0
2, 76415, Note_on_c, 0, 75, 50
2, 76427, Note_on_c, 0, 76, 0
2, 76461, Note_on_c, 0, 75, 0
2, 76480, Note_on_c, 0, 73, 56
2, 76491, Note_on_c, 0, 57, 57
2, 76505, Note_on_c, 0, 73, 0
2, 76523, Note_on_c, 0, 66, 0
2, 76543, Note_on_c, 0, 57, 0
2, 76577, Note_on_c, 0, 75, 60
2, 76673, Note_on_c, 0, 75, 0
2, 76679, Note_on_c, 0, 55, 68
2, 76692, Note_on_c, 0, 76, 59
2, 76842, Note_on_c, 0, 76, 0
2, 76864, Note_on_c, 0, 70, 72
2, 76922, Note_on_c, 0, 55, 0
2, 77043, Note_on_c, 0, 64, 64
2, 77208, Note_on_c, 0, 71, 65
2, 77309, Note_on_c, 0, 70, 0
2, 77378, Note_on_c, 0, 64, 0
2, 77389, Note_on_c, 0, 54, 60
2, 77394, Note_on_c, 0, 71, 0
2, 77395, Note_on_c, 0, 74, 62
2, 77550, Note_on_c, 0, 74, 0
2, 77557, Note_on_c, 0, 64, 69
2, 77560, Note_on_c, 0, 54, 0
2, 77567, Note_on_c, 0, 70, 73
2, 77737, Note_on_c, 0, 62, 70
2, 77777, Note_on_c, 0, 64, 0
2, 77851, Note_on_c, 0, 70, 0
2, 77887, Note_on_c, 0, 71, 70
2, 77902, Note_on_c, 0, 54, 62
2, 77945, Note_on_c, 0, 71, 0
2, 77952, Note_on_c, 0, 62, 0
2, 78007, Note_on_c, 0, 54, 0
2, 78089, Note_on_c, 0, 52, 61
2, 78092, Note_on_c, 0, 79, 70
2, 78187, Note_on_c, 0, 78, 71
2, 78235, Note_on_c, 0, 79, 0
2, 78266, Note_on_c, 0, 52, 0
2, 78266, Note_on_c, 0, 76, 66
2, 78274, Note_on_c, 0, 62, 63
2, 78325, Note_on_c, 0, 78, 0
2, 78441, Note_on_c, 0, 60, 72
2, 78454, Note_on_c, 0, 76, 0
2, 78538, Note_on_c, 0, 62, 0
2, 78612, Note_on_c, 0, 76, 76
2, 78615, Note_on_c, 0, 52, 66
2, 78667, Note_on_c, 0, 60, 0
2, 78700, Note_on_c, 0, 52, 0
2, 78786, Note_on_c, 0, 50, 71
2, 78836, Note_on_c, 0, 76, 0
2, 78855, Note_on_c, 0, 78, 68
2, 78951, Note_on_c, 0, 76, 74
2, 78976, Note_on_c, 0, 60, 60
2, 78993, Note_on_c, 0, 78, 0
2, 79024, Note_on_c, 0, 50, 0
2, 79050, Note_on_c, 0, 75, 75
2, 79052, Note_on_c, 0, 76, 0
2, 79127, Note_on_c, 0, 59, 66
2, 79138, Note_on_c, 0, 76, 78
2, 79165, Note_on_c, 0, 60, 0
2, 79201, Note_on_c, 0, 75, 0
2, 79201, Note_on_c, 0, 76, 0
2, 79308, Note_on_c, 0, 50, 63
2, 79308, Note_on_c, 0, 59, 0
2, 79325, Note_on_c, 0, 76, 72
2, 79354, Note_on_c, 0, 50, 0
2, 79491, Note_on_c, 0, 49, 70
2, 79593, Note_on_c, 0, 69, 72
2, 79593, Note_on_c, 0, 76, 0
2, 79685, Note_on_c, 0, 67, 73
2, 79694, Note_on_c, 0, 59, 54
2, 79704, Note_on_c, 0, 69, 0
2, 79750, Note_on_c, 0, 49, 0
2, 79774, Note_on_c, 0, 66, 75
2, 79777, Note_on_c, 0, 67, 0
2, 79865, Note_on_c, 0, 66, 0
2, 79867, Note_on_c, 0, 58, 70
2, 79874, Note_on_c, 0, 67, 79
2, 79908, Note_on_c, 0, 59, 0
2, 79967, Note_on_c, 0, 67, 0
2, 80060, Note_on_c, 0, 49, 70
2, 80065, Note_on_c, 0, 76, 79
2, 80075, Note_on_c, 0, 58, 0
2, 80171, Note_on_c, 0, 49, 0
2, 80254, Note_on_c, 0, 47, 75
2, 80465, Note_on_c, 0, 58, 60
2, 80471, Note_on_c, 0, 67, 76
2, 80497, Note_on_c, 0, 64, 47
2, 80539, Note_on_c, 0, 76, 0
2, 80559, Note_on_c, 0, 47, 0
2, 80619, Note_on_c, 0, 58, 0
2, 80678, Note_on_c, 0, 59, 76
2, 80740, Note_on_c, 0, 64, 0
2, 80764, Note_on_c, 0, 67, 0
2, 80873, Note_on_c, 0, 59, 0
2, 80897, Note_on_c, 0, 47, 60
2, 80905, Note_on_c, 0, 67, 72
2, 80929, Note_on_c, 0, 64, 46
2, 81169, Note_on_c, 0, 46, 69
2, 81269, Note_on_c, 0, 47, 0
2, 81388, Note_on_c, 0, 67, 0
2, 81419, Note_on_c, 0, 66, 71
2, 81502, Note_on_c, 0, 64, 0
2, 81553, Note_on_c, 0, 74, 73
2, 81576, Note_on_c, 0, 66, 0
2, 81667, Note_on_c, 0, 74, 0
2, 81790, Note_on_c, 0, 74, 65
2, 82258, Note_on_c, 0, 73, 54
2, 82386, Note_on_c, 0, 74, 0
2, 83173, Note_on_c, 0, 46, 0
2, 83173, Note_on_c, 0, 73, 0
2, 83715, Note_on_c, 0, 64, 27
2, 83765, Note_on_c, 0, 64, 0
2, 83781, Note_on_c, 0, 66, 52
2, 83834, Note_on_c, 0, 66, 0
2, 83851, Note_on_c, 0, 58, 33
2, 83872, Note_on_c, 0, 67, 52
2, 83942, Note_on_c, 0, 66, 64
2, 83946, Note_on_c, 0, 67, 0
2, 83986, Note_on_c, 0, 66, 0
2, 84055, Note_on_c, 0, 64, 55
2, 84071, Note_on_c, 0, 58, 0
2, 84220, Note_on_c, 0, 64, 0
2, 84233, Note_on_c, 0, 59, 51
2, 84259, Note_on_c, 0, 62, 52
2, 84503, Note_on_c, 0, 59, 0
2, 84596, Note_on_c, 0, 62, 0
2, 84606, Note_on_c, 0, 55, 56
2, 84612, Note_on_c, 0, 70, 59
2, 84792, Note_on_c, 0, 71, 66
2, 84859, Note_on_c, 0, 70, 0
2, 84861, Note_on_c, 0, 55, 0
2, 84907, Note_on_c, 0, 71, 0
2, 84996, Note_on_c, 0, 74, 61
2, 84997, Note_on_c, 0, 52, 51
2, 85184, Note_on_c, 0, 73, 59
2, 85241, Note_on_c, 0, 52, 0
2, 85296, Note_on_c, 0, 74, 0
2, 85366, Note_on_c, 0, 54, 41
2, 85369, Note_on_c, 0, 71, 54
2, 85396, Note_on_c, 0, 73, 0
2, 85547, Note_on_c, 0, 70, 62
2, 85554, Note_on_c, 0, 71, 0
2, 85598, Note_on_c, 0, 54, 0
2, 85694, Note_on_c, 0, 70, 0
2, 85739, Note_on_c, 0, 50, 46
2, 85744, Note_on_c, 0, 71, 54
2, 85908, Note_on_c, 0, 54, 55
2, 85913, Note_on_c, 0, 50, 0
2, 86059, Note_on_c, 0, 71, 0
2, 86094, Note_on_c, 0, 47, 51
2, 86099, Note_on_c, 0, 66, 63
2, 86186, Note_on_c, 0, 54, 0
2, 86269, Note_on_c, 0, 49, 66
2, 86325, Note_on_c, 0, 47, 0
2, 86329, Note_on_c, 0, 66, 0
2, 86418, Note_on_c, 0, 49, 0
2, 86446, Note_on_c, 0, 50, 56
2, 86451, Note_on_c, 0, 67, 59
2, 86515, Note_on_c, 0, 67, 0
2, 86522, Note_on_c, 0, 66, 69
2, 86595, Note_on_c, 0, 66, 0
2, 86620, Note_on_c, 0, 65, 57
2, 86643, Note_on_c, 0, 54, 54
2, 86670, Note_on_c, 0, 50, 0
2, 86683, Note_on_c, 0, 66, 62
2, 86686, Note_on_c, 0, 65, 0
2, 86769, Note_on_c, 0, 66, 0
2, 86779, Note_on_c, 0, 54, 0
2, 86796, Note_on_c, 0, 47, 52
2, 86800, Note_on_c, 0, 74, 63
2, 86980, Note_on_c, 0, 50, 63
2, 86982, Note_on_c, 0, 47, 0
2, 87082, Note_on_c, 0, 50, 0
2, 87143, Note_on_c, 0, 74, 0
2, 87148, Note_on_c, 0, 49, 61
2, 87349, Note_on_c, 0, 49, 0
2, 87350, Note_on_c, 0, 54, 61
2, 87500, Note_on_c, 0, 54, 0
2, 87518, Note_on_c, 0, 66, 68
2, 87522, Note_on_c, 0, 55, 55
2, 87601, Note_on_c, 0, 54, 63
2, 87607, Note_on_c, 0, 55, 0
2, 87668, Note_on_c, 0, 54, 0
2, 87677, Note_on_c, 0, 53, 59
2, 87700, Note_on_c, 0, 66, 0
2, 87760, Note_on_c, 0, 53, 0
2, 87774, Note_on_c, 0, 54, 66
2, 87861, Note_on_c, 0, 58, 58
2, 87867, Note_on_c, 0, 67, 72
2, 87904, Note_on_c, 0, 54, 0
2, 87950, Note_on_c, 0, 66, 71
2, 87950, Note_on_c, 0, 67, 0
2, 88012, Note_on_c, 0, 66, 0
2, 88025, Note_on_c, 0, 58, 0
2, 88029, Note_on_c, 0, 54, 63
2, 88029, Note_on_c, 0, 65, 70
2, 88114, Note_on_c, 0, 66, 73
2, 88120, Note_on_c, 0, 65, 0
2, 88180, Note_on_c, 0, 66, 0
2, 88198, Note_on_c, 0, 54, 0
2, 88222, Note_on_c, 0, 76, 75
2, 88234, Note_on_c, 0, 61, 60
2, 88393, Note_on_c, 0, 61, 0
2, 88395, Note_on_c, 0, 52, 65
2, 88516, Note_on_c, 0, 76, 0
2, 88519, Note_on_c, 0, 52, 0
2, 88578, Note_on_c, 0, 50, 66
2, 88743, Note_on_c, 0, 50, 0
2, 88755, Note_on_c, 0, 54, 62
2, 88943, Note_on_c, 0, 54, 0
2, 88949, Note_on_c, 0, 47, 55
2, 88952, Note_on_c, 0, 66, 75
2, 89126, Note_on_c, 0, 49, 69
2, 89128, Note_on_c, 0, 47, 0
2, 89135, Note_on_c, 0, 66, 0
2, 89278, Note_on_c, 0, 49, 0
2, 89280, Note_on_c, 0, 50, 63
2, 89295, Note_on_c, 0, 67, 64
2, 89378, Note_on_c, 0, 66, 66
2, 89378, Note_on_c, 0, 67, 0
2, 89420, Note_on_c, 0, 66, 0
2, 89450, Note_on_c, 0, 65, 63
2, 89459, Note_on_c, 0, 54, 52
2, 89511, Note_on_c, 0, 50, 0
2, 89513, Note_on_c, 0, 66, 66
2, 89517, Note_on_c, 0, 65, 0
2, 89543, Note_on_c, 0, 66, 0
2, 89591, Note_on_c, 0, 54, 0
2, 89606, Note_on_c, 0, 47, 53
2, 89637, Note_on_c, 0, 78, 70
2, 89759, Control_c, 0, 64, 60
2, 89775, Control_c, 0, 64, 66
2, 89790, Control_c, 0, 64, 70
2, 89802, Note_on_c, 0, 69, 79
2, 89805, Control_c, 0, 64, 74
2, 89822, Control_c, 0, 64, 78
2, 89826, Note_on_c, 0, 78, 0
2, 89831, Note_on_c, 0, 49, 57
2, 89836, Control_c, 0, 64, 81
2, 89850, Note_on_c, 0, 69, 0
2, 89851, Control_c, 0, 64, 82
2, 89867, Control_c, 0, 64, 83
2, 89881, Control_c, 0, 64, 84
2, 89897, Control_c, 0, 64, 86
2, 89912, Control_c, 0, 64, 87
2, 89927, Control_c, 0, 64, 88
2, 89946, Note_on_c, 0, 47, 0
2, 90049, Control_c, 0, 64, 87
2, 90059, Note_on_c, 0, 69, 72
2, 90065, Control_c, 0, 64, 86
2, 90069, Note_on_c, 0, 50, 53
2, 90079, Control_c, 0, 64, 84
2, 90080, Note_on_c, 0, 64, 52
2, 90090, Note_on_c, 0, 59, 38
2, 90095, Control_c, 0, 64, 82
2, 90110, Control_c, 0, 64, 80
2, 90125, Control_c, 0, 64, 77
2, 90141, Control_c, 0, 64, 73
2, 90152, Note_on_c, 0, 49, 0
2, 90155, Control_c, 0, 64, 68
2, 90170, Control_c, 0, 64, 61
2, 90186, Control_c, 0, 64, 0
2, 90568, Note_on_c, 0, 68, 61
2, 90586, Note_on_c, 0, 50, 0
2, 90591, Note_on_c, 0, 38, 26
2, 90609, Note_on_c, 0, 69, 0
2, 90687, Note_on_c, 0, 64, 0
2, 90688, Note_on_c, 0, 59, 0
2, 90725, Control_c, 0, 64, 48
2, 90741, Control_c, 0, 64, 65
2, 90756, Control_c, 0, 64, 69
2, 90771, Control_c, 0, 64, 73
2, 90787, Control_c, 0, 64, 77
2, 90802, Control_c, 0, 64, 82
2, 90818, Control_c, 0, 64, 85
2, 90828, Note_on_c, 0, 68, 0
2, 90832, Control_c, 0, 64, 87
2, 90847, Control_c, 0, 64, 88
2, 90863, Control_c, 0, 64, 89
2, 90878, Control_c, 0, 64, 90
2, 90894, Control_c, 0, 64, 91
2, 91030, Control_c, 0, 64, 90
2, 91045, Control_c, 0, 64, 87
2, 91061, Control_c, 0, 64, 82
2, 91075, Control_c, 0, 64, 74
2, 91090, Control_c, 0, 64, 65
2, 91106, Control_c, 0, 64, 0
2, 91108, Note_on_c, 0, 38, 0
2, 91123, Note_on_c, 0, 68, 65
2, 91175, Control_c, 0, 64, 31
2, 91190, Control_c, 0, 64, 50
2, 91205, Control_c, 0, 64, 60
2, 91218, Note_on_c, 0, 70, 66
2, 91220, Control_c, 0, 64, 65
2, 91235, Control_c, 0, 64, 70
2, 91249, Note_on_c, 0, 68, 0
2, 91250, Control_c, 0, 64, 74
2, 91265, Control_c, 0, 64, 78
2, 91277, Note_on_c, 0, 70, 0
2, 91280, Control_c, 0, 64, 81
2, 91296, Control_c, 0, 64, 83
2, 91305, Note_on_c, 0, 71, 69
2, 91311, Control_c, 0, 64, 85
2, 91313, Note_on_c, 0, 50, 47
2, 91326, Control_c, 0, 64, 87
2, 91341, Control_c, 0, 64, 89
2, 91349, Note_on_c, 0, 50, 0
2, 91355, Control_c, 0, 64, 91
2, 91370, Control_c, 0, 64, 92
2, 91386, Note_on_c, 0, 73, 74
2, 91387, Control_c, 0, 64, 93
2, 91402, Control_c, 0, 64, 93
2, 91404, Note_on_c, 0, 71, 0
2, 91418, Control_c, 0, 64, 94
2, 91432, Control_c, 0, 64, 95
2, 91447, Control_c, 0, 64, 96
2, 91463, Control_c, 0, 64, 98
2, 91473, Note_on_c, 0, 74, 73
2, 91478, Control_c, 0, 64, 99
2, 91494, Control_c, 0, 64, 101
2, 91509, Control_c, 0, 64, 102
2, 91513, Note_on_c, 0, 73, 0
2, 91523, Control_c, 0, 64, 103
2, 91539, Control_c, 0, 64, 103
2, 91550, Note_on_c, 0, 76, 70
2, 91554, Control_c, 0, 64, 104
2, 91556, Note_on_c, 0, 74, 0
2, 91579, Note_on_c, 0, 76, 0
2, 91645, Control_c, 0, 64, 103
2, 91661, Control_c, 0, 64, 101
2, 91676, Control_c, 0, 64, 98
2, 91690, Control_c, 0, 64, 92
2, 91698, Note_on_c, 0, 71, 71
2, 91702, Note_on_c, 0, 49, 54
2, 91706, Control_c, 0, 64, 86
2, 91716, Note_on_c, 0, 67, 53
2, 91721, Control_c, 0, 64, 79
2, 91737, Control_c, 0, 64, 70
2, 91742, Note_on_c, 0, 64, 19
2, 91752, Control_c, 0, 64, 53
2, 91767, Control_c, 0, 64, 0
2, 92207, Note_on_c, 0, 70, 72
2, 92219, Note_on_c, 0, 61, 50
2, 92264, Note_on_c, 0, 67, 0
2, 92284, Note_on_c, 0, 49, 0
2, 92305, Note_on_c, 0, 71, 0
2, 92429, Control_c, 0, 64, 55
2, 92436, Note_on_c, 0, 64, 0
2, 92443, Control_c, 0, 64, 65
2, 92459, Control_c, 0, 64, 69
2, 92474, Control_c, 0, 64, 73
2, 92489, Control_c, 0, 64, 77
2, 92505, Control_c, 0, 64, 82
2, 92520, Control_c, 0, 64, 86
2, 92536, Control_c, 0, 64, 88
2, 92550, Control_c, 0, 64, 90
2, 92565, Control_c, 0, 64, 92
2, 92571, Note_on_c, 0, 70, 0
2, 92581, Control_c, 0, 64, 94
2, 92596, Control_c, 0, 64, 96
2, 92604, Note_on_c, 0, 61, 0
2, 92611, Control_c, 0, 64, 98
2, 92626, Control_c, 0, 64, 99
2, 92725, Control_c, 0, 64, 98
2, 92741, Control_c, 0, 64, 97
2, 92755, Control_c, 0, 64, 92
2, 92770, Control_c, 0, 64, 82
2, 92786, Control_c, 0, 64, 70
2, 92801, Control_c, 0, 64, 0
2, 92814, Note_on_c, 0, 70, 61
2, 92832, Note_on_c, 0, 61, 53
2, 92862, Control_c, 0, 64, 53
2, 92877, Control_c, 0, 64, 64
2, 92887, Note_on_c, 0, 71, 67
2, 92894, Control_c, 0, 64, 67
2, 92897, Note_on_c, 0, 70, 0
2, 92908, Control_c, 0, 64, 70
2, 92908, Note_on_c, 0, 61, 0
2, 92917, Note_on_c, 0, 62, 63
2, 92923, Control_c, 0, 64, 74
2, 92939, Control_c, 0, 64, 77
2, 92953, Control_c, 0, 64, 79
2, 92962, Note_on_c, 0, 71, 0
2, 92965, Note_on_c, 0, 73, 74
2, 92968, Control_c, 0, 64, 80
2, 92984, Control_c, 0, 64, 81
2, 92988, Note_on_c, 0, 62, 0
2, 93016, Note_on_c, 0, 64, 60
2, 93045, Note_on_c, 0, 71, 75
2, 93063, Note_on_c, 0, 73, 0
2, 93065, Note_on_c, 0, 62, 59
2, 93076, Control_c, 0, 64, 80
2, 93082, Note_on_c, 0, 64, 0
2, 93091, Control_c, 0, 64, 78
2, 93107, Control_c, 0, 64, 74
2, 93122, Control_c, 0, 64, 67
2, 93137, Control_c, 0, 64, 42
2, 93147, Note_on_c, 0, 70, 83
2, 93152, Control_c, 0, 64, 0
2, 93154, Note_on_c, 0, 62, 0
2, 93160, Note_on_c, 0, 61, 68
2, 93166, Note_on_c, 0, 71, 0
2, 93167, Control_c, 0, 64, 42
2, 93182, Control_c, 0, 64, 69
2, 93197, Control_c, 0, 64, 80
2, 93212, Control_c, 0, 64, 87
2, 93228, Control_c, 0, 64, 89
2, 93314, Note_on_c, 0, 70, 0
2, 93364, Control_c, 0, 64, 89
2, 93380, Control_c, 0, 64, 86
2, 93394, Control_c, 0, 64, 79
2, 93407, Note_on_c, 0, 61, 0
2, 93409, Control_c, 0, 64, 66
2, 93420, Note_on_c, 0, 77, 81
2, 93425, Control_c, 0, 64, 0
2, 93426, Note_on_c, 0, 71, 72
2, 93429, Note_on_c, 0, 59, 56
2, 93431, Note_on_c, 0, 74, 75
2, 93434, Note_on_c, 0, 68, 58
2, 93554, Control_c, 0, 64, 34
2, 93569, Control_c, 0, 64, 62
2, 93585, Control_c, 0, 64, 65
2, 93599, Control_c, 0, 64, 68
2, 93615, Control_c, 0, 64, 71
2, 93630, Control_c, 0, 64, 74
2, 93645, Control_c, 0, 64, 78
2, 93650, Note_on_c, 0, 77, 0
2, 93661, Control_c, 0, 64, 82
2, 93676, Control_c, 0, 64, 87
2, 93691, Control_c, 0, 64, 91
2, 93707, Control_c, 0, 64, 94
2, 93718, Note_on_c, 0, 68, 0
2, 93721, Control_c, 0, 64, 97
2, 93724, Note_on_c, 0, 71, 0
2, 93737, Control_c, 0, 64, 99
2, 93752, Control_c, 0, 64, 100
2, 93767, Control_c, 0, 64, 101
2, 93783, Control_c, 0, 64, 102
2, 93966, Control_c, 0, 64, 101
2, 93981, Control_c, 0, 64, 101
2, 93996, Control_c, 0, 64, 100
2, 93997, Note_on_c, 0, 59, 0
2, 93998, Note_on_c, 0, 78, 78
2, 94010, Note_on_c, 0, 61, 54
2, 94011, Control_c, 0, 64, 98
2, 94011, Note_on_c, 0, 73, 66
2, 94016, Note_on_c, 0, 66, 63
2, 94018, Note_on_c, 0, 74, 0
2, 94026, Control_c, 0, 64, 95
2, 94030, Note_on_c, 0, 58, 52
2, 94041, Control_c, 0, 64, 89
2, 94057, Control_c, 0, 64, 79
2, 94072, Control_c, 0, 64, 65
2, 94087, Control_c, 0, 64, 0
2, 94307, Control_c, 0, 64, 56
2, 94322, Control_c, 0, 64, 63
2, 94338, Control_c, 0, 64, 64
2, 94353, Control_c, 0, 64, 66
2, 94367, Control_c, 0, 64, 69
2, 94383, Control_c, 0, 64, 72
2, 94398, Control_c, 0, 64, 76
2, 94405, Note_on_c, 0, 61, 0
2, 94413, Control_c, 0, 64, 78
2, 94429, Control_c, 0, 64, 79
2, 94443, Control_c, 0, 64, 81
2, 94459, Control_c, 0, 64, 82
2, 94474, Control_c, 0, 64, 83
2, 94481, Note_on_c, 0, 58, 0
2, 94489, Control_c, 0, 64, 85
2, 94505, Control_c, 0, 64, 86
2, 94519, Control_c, 0, 64, 87
2, 94535, Control_c, 0, 64, 88
2, 94550, Control_c, 0, 64, 89
2, 94565, Control_c, 0, 64, 89
2, 94648, Note_on_c, 0, 78, 0
2, 94670, Note_on_c, 0, 66, 0
2, 94736, Note_on_c, 0, 73, 0
2, 94764, Control_c, 0, 64, 89
2, 94780, Control_c, 0, 64, 88
2, 94794, Control_c, 0, 64, 87
2, 94809, Control_c, 0, 64, 85
2, 94825, Control_c, 0, 64, 82
2, 94830, Note_on_c, 0, 54, 46
2, 94840, Control_c, 0, 64, 78
2, 94856, Control_c, 0, 64, 74
2, 94870, Control_c, 0, 64, 67
2, 94885, Control_c, 0, 64, 54
2, 94886, Note_on_c, 0, 54, 0
2, 94901, Control_c, 0, 64, 0
2, 94902, Note_on_c, 0, 56, 55
2, 94982, Note_on_c, 0, 56, 0
2, 94999, Note_on_c, 0, 58, 60
2, 95067, Note_on_c, 0, 58, 0
2, 95084, Note_on_c, 0, 59, 52
2, 95137, Note_on_c, 0, 59, 0
2, 95192, Note_on_c, 0, 61, 58
2, 95258, Control_c, 0, 64, 15
2, 95273, Control_c, 0, 64, 55
2, 95287, Control_c, 0, 64, 63
2, 95289, Note_on_c, 0, 61, 0
2, 95303, Control_c, 0, 64, 65
2, 95318, Control_c, 0, 64, 66
2, 95332, Control_c, 0, 64, 67
2, 95348, Control_c, 0, 64, 68
2, 95379, Control_c, 0, 64, 67
2, 95394, Control_c, 0, 64, 65
2, 95409, Control_c, 0, 64, 64
2, 95420, Note_on_c, 0, 50, 56
2, 95425, Control_c, 0, 64, 62
2, 95440, Control_c, 0, 64, 61
2, 95456, Control_c, 0, 64, 60
2, 95471, Control_c, 0, 64, 57
2, 95486, Control_c, 0, 64, 50
2, 95502, Control_c, 0, 64, 34
2, 95516, Control_c, 0, 64, 0
2, 95652, Note_on_c, 0, 71, 55
2, 95733, Note_on_c, 0, 69, 59
2, 95789, Note_on_c, 0, 71, 0
2, 95819, Note_on_c, 0, 50, 0
2, 95838, Note_on_c, 0, 52, 45
2, 95843, Note_on_c, 0, 69, 0
2, 95846, Note_on_c, 0, 67, 63
2, 95951, Note_on_c, 0, 66, 64
2, 95964, Note_on_c, 0, 67, 0
2, 96053, Note_on_c, 0, 64, 65
2, 96071, Note_on_c, 0, 66, 0
2, 96221, Note_on_c, 0, 64, 0
2, 96312, Note_on_c, 0, 52, 0
2, 96320, Note_on_c, 0, 62, 70
2, 96327, Note_on_c, 0, 54, 44
2, 96467, Control_c, 0, 64, 39
2, 96481, Control_c, 0, 64, 57
2, 96497, Control_c, 0, 64, 62
2, 96512, Control_c, 0, 64, 64
2, 96535, Control_c, 0, 64, 66
2, 96550, Control_c, 0, 64, 69
2, 96565, Control_c, 0, 64, 72
2, 96581, Control_c, 0, 64, 74
2, 96595, Control_c, 0, 64, 75
2, 96624, Note_on_c, 0, 71, 68
2, 96626, Control_c, 0, 64, 75
2, 96641, Control_c, 0, 64, 76
2, 96657, Control_c, 0, 64, 76
2, 96672, Control_c, 0, 64, 77
2, 96686, Control_c, 0, 64, 78
2, 96702, Control_c, 0, 64, 78
2, 96733, Control_c, 0, 64, 79
2, 96741, Note_on_c, 0, 62, 0
2, 96763, Control_c, 0, 64, 79
2, 96915, Control_c, 0, 64, 79
2, 96946, Control_c, 0, 64, 78
2, 96961, Control_c, 0, 64, 76
2, 96976, Control_c, 0, 64, 73
2, 96981, Note_on_c, 0, 64, 68
2, 96982, Note_on_c, 0, 61, 61
2, 96991, Control_c, 0, 64, 66
2, 96991, Note_on_c, 0, 42, 46
2, 97006, Control_c, 0, 64, 47
2, 97021, Control_c, 0, 64, 0
2, 97076, Note_on_c, 0, 54, 0
2, 97204, Control_c, 0, 64, 36
2, 97220, Control_c, 0, 64, 40
2, 97235, Control_c, 0, 64, 37
2, 97249, Control_c, 0, 64, 36
2, 97265, Control_c, 0, 64, 35
2, 97304, Control_c, 0, 64, 34
2, 97319, Control_c, 0, 64, 32
2, 97333, Control_c, 0, 64, 26
2, 97349, Control_c, 0, 64, 0
2, 97403, Note_on_c, 0, 70, 67
2, 97516, Control_c, 0, 64, 58
2, 97530, Note_on_c, 0, 71, 0
2, 97531, Control_c, 0, 64, 66
2, 97547, Control_c, 0, 64, 71
2, 97561, Control_c, 0, 64, 76
2, 97577, Control_c, 0, 64, 80
2, 97590, Note_on_c, 0, 64, 0
2, 97592, Control_c, 0, 64, 83
2, 97607, Control_c, 0, 64, 86
2, 97623, Control_c, 0, 64, 88
2, 97631, Note_on_c, 0, 70, 0
2, 97638, Control_c, 0, 64, 90
2, 97652, Note_on_c, 0, 61, 0
2, 97653, Control_c, 0, 64, 92
2, 97668, Control_c, 0, 64, 94
2, 97683, Control_c, 0, 64, 96
2, 97699, Control_c, 0, 64, 98
2, 97714, Control_c, 0, 64, 100
2, 97729, Control_c, 0, 64, 101
2, 97744, Control_c, 0, 64, 102
2, 97759, Control_c, 0, 64, 104
2, 97775, Control_c, 0, 64, 105
2, 97804, Control_c, 0, 64, 106
2, 97850, Control_c, 0, 64, 106
2, 98117, Control_c, 0, 64, 106
2, 98132, Control_c, 0, 64, 105
2, 98137, Note_on_c, 0, 62, 55
2, 98140, Note_on_c, 0, 59, 54
2, 98143, Note_on_c, 0, 71, 62
2, 98148, Control_c, 0, 64, 104
2, 98149, Note_on_c, 0, 47, 51
2, 98152, Note_on_c, 0, 66, 57
2, 98163, Control_c, 0, 64, 103
2, 98178, Control_c, 0, 64, 101
2, 98193, Control_c, 0, 64, 100
2, 98208, Control_c, 0, 64, 98
2, 98224, Control_c, 0, 64, 95
2, 98239, Control_c, 0, 64, 92
2, 98253, Control_c, 0, 64, 87
2, 98269, Control_c, 0, 64, 82
2, 98284, Control_c, 0, 64, 76
2, 98300, Control_c, 0, 64, 69
2, 98314, Control_c, 0, 64, 55
2, 98329, Control_c, 0, 64, 0
2, 98344, Note_on_c, 0, 42, 0
2, 100169, Note_on_c, 0, 71, 0
2, 100194, Note_on_c, 0, 62, 0
2, 100210, Note_on_c, 0, 47, 0
2, 100223, Note_on_c, 0, 59, 0
2, 100223, Note_on_c, 0, 66, 0
2, 103006,End_track
0, 0, End_of_file
