0, 0, Header, 1, 2, 384
1, 0, Start_track
1, 0, Tempo, 500000
1, 0, Time_signature, 4, 2, 24, 8
1, 1, End_track
2, 0, Start_track
2, 0, Title_t," ""Levitsky04-08.MID"""
2, 0, Program_c, 0, 0
2, 0, Control_c, 0, 64, 79
2, 553, Control_c, 0, 64, 79
2, 703, Control_c, 0, 64, 78
2, 774, Control_c, 0, 64, 78
2, 805, Control_c, 0, 64, 77
2, 821, Control_c, 0, 64, 77
2, 835, Note_on_c, 0, 62, 45
2, 836, Control_c, 0, 64, 75
2, 845, Note_on_c, 0, 47, 42
2, 851, Control_c, 0, 64, 74
2, 867, Control_c, 0, 64, 70
2, 881, Control_c, 0, 64, 65
2, 897, Control_c, 0, 64, 53
2, 912, Control_c, 0, 64, 34
2, 927, Control_c, 0, 64, 29
2, 943, Control_c, 0, 64, 29
2, 958, Control_c, 0, 64, 18
2, 974, Control_c, 0, 64, 0
2, 1032, Note_on_c, 0, 66, 46
2, 1088, Note_on_c, 0, 62, 0
2, 1189, Note_on_c, 0, 66, 0
2, 1192, Note_on_c, 0, 50, 55
2, 1194, Note_on_c, 0, 59, 52
2, 1293, Note_on_c, 0, 47, 0
2, 1363, Note_on_c, 0, 61, 63
2, 1390, Note_on_c, 0, 59, 0
2, 1529, Note_on_c, 0, 61, 0
2, 1533, Note_on_c, 0, 54, 63
2, 1533, Note_on_c, 0, 62, 67
2, 1566, Note_on_c, 0, 50, 0
2, 1697, Note_on_c, 0, 66, 65
2, 1735, Note_on_c, 0, 62, 0
2, 1860, Note_on_c, 0, 59, 62
2, 1874, Note_on_c, 0, 66, 0
2, 1918, Note_on_c, 0, 54, 0
2, 1938, Note_on_c, 0, 55, 67
2, 2000, Note_on_c, 0, 59, 0
2, 2014, Note_on_c, 0, 55, 0
2, 2016, Note_on_c, 0, 54, 61
2, 2016, Note_on_c, 0, 62, 59
2, 2074, Note_on_c, 0, 54, 0
2, 2091, Note_on_c, 0, 53, 65
2, 2181, Note_on_c, 0, 53, 0
2, 2187, Note_on_c, 0, 61, 64
2, 2190, Note_on_c, 0, 62, 0
2, 2195, Note_on_c, 0, 54, 62
2, 2365, Note_on_c, 0, 66, 63
2, 2399, Note_on_c, 0, 61, 0
2, 2447, Note_on_c, 0, 66, 0
2, 2531, Note_on_c, 0, 67, 60
2, 2542, Note_on_c, 0, 46, 54
2, 2616, Note_on_c, 0, 54, 0
2, 2626, Note_on_c, 0, 66, 54
2, 2655, Note_on_c, 0, 67, 0
2, 2668, Note_on_c, 0, 66, 0
2, 2690, Note_on_c, 0, 65, 68
2, 2763, Note_on_c, 0, 65, 0
2, 2763, Note_on_c, 0, 66, 73
2, 2854, Note_on_c, 0, 49, 53
2, 2863, Note_on_c, 0, 70, 67
2, 2900, Note_on_c, 0, 66, 0
2, 2940, Note_on_c, 0, 46, 0
2, 3040, Note_on_c, 0, 66, 69
2, 3085, Note_on_c, 0, 70, 0
2, 3232, Note_on_c, 0, 54, 48
2, 3233, Note_on_c, 0, 73, 66
2, 3287, Note_on_c, 0, 49, 0
2, 3328, Note_on_c, 0, 66, 0
2, 3395, Note_on_c, 0, 64, 67
2, 3399, Note_on_c, 0, 73, 0
2, 3589, Note_on_c, 0, 62, 63
2, 3592, Note_on_c, 0, 47, 62
2, 3643, Note_on_c, 0, 64, 0
2, 3675, Note_on_c, 0, 54, 0
2, 3769, Note_on_c, 0, 66, 66
2, 3868, Note_on_c, 0, 62, 0
2, 3930, Note_on_c, 0, 59, 66
2, 3941, Note_on_c, 0, 50, 55
2, 3956, Note_on_c, 0, 66, 0
2, 3995, Note_on_c, 0, 47, 0
2, 4099, Note_on_c, 0, 61, 69
2, 4134, Note_on_c, 0, 59, 0
2, 4271, Note_on_c, 0, 54, 62
2, 4273, Note_on_c, 0, 62, 63
2, 4297, Note_on_c, 0, 61, 0
2, 4302, Note_on_c, 0, 50, 0
2, 4446, Note_on_c, 0, 66, 60
2, 4470, Note_on_c, 0, 62, 0
2, 4608, Note_on_c, 0, 59, 59
2, 4656, Note_on_c, 0, 66, 0
2, 4659, Note_on_c, 0, 54, 0
2, 4679, Note_on_c, 0, 55, 60
2, 4743, Note_on_c, 0, 55, 0
2, 4748, Note_on_c, 0, 54, 56
2, 4755, Note_on_c, 0, 59, 0
2, 4773, Note_on_c, 0, 62, 54
2, 4814, Note_on_c, 0, 54, 0
2, 4827, Note_on_c, 0, 53, 61
2, 4920, Note_on_c, 0, 53, 0
2, 4930, Note_on_c, 0, 61, 59
2, 4940, Note_on_c, 0, 54, 60
2, 4969, Note_on_c, 0, 62, 0
2, 5109, Note_on_c, 0, 66, 54
2, 5124, Note_on_c, 0, 61, 0
2, 5289, Note_on_c, 0, 61, 52
2, 5304, Note_on_c, 0, 42, 41
2, 5354, Note_on_c, 0, 66, 0
2, 5413, Note_on_c, 0, 54, 0
2, 5457, Note_on_c, 0, 58, 56
2, 5540, Note_on_c, 0, 42, 0
2, 5583, Note_on_c, 0, 61, 0
2, 5644, Note_on_c, 0, 54, 55
2, 5739, Note_on_c, 0, 58, 0
2, 5814, Note_on_c, 0, 52, 59
2, 5906, Note_on_c, 0, 54, 0
2, 5990, Note_on_c, 0, 50, 58
2, 6009, Note_on_c, 0, 52, 0
2, 6166, Note_on_c, 0, 49, 61
2, 6175, Note_on_c, 0, 50, 0
2, 6339, Note_on_c, 0, 50, 61
2, 6359, Note_on_c, 0, 49, 0
2, 6498, Note_on_c, 0, 54, 59
2, 6524, Note_on_c, 0, 50, 0
2, 6698, Note_on_c, 0, 74, 63
2, 6707, Note_on_c, 0, 47, 47
2, 6778, Note_on_c, 0, 54, 0
2, 6861, Note_on_c, 0, 49, 54
2, 6917, Note_on_c, 0, 47, 0
2, 7039, Note_on_c, 0, 49, 0
2, 7048, Note_on_c, 0, 71, 62
2, 7052, Note_on_c, 0, 50, 50
2, 7147, Note_on_c, 0, 74, 0
2, 7215, Note_on_c, 0, 54, 50
2, 7249, Note_on_c, 0, 50, 0
2, 7385, Note_on_c, 0, 66, 58
2, 7392, Note_on_c, 0, 47, 51
2, 7448, Note_on_c, 0, 54, 0
2, 7472, Note_on_c, 0, 71, 0
2, 7557, Note_on_c, 0, 50, 61
2, 7559, Note_on_c, 0, 47, 0
2, 7657, Note_on_c, 0, 66, 0
2, 7727, Note_on_c, 0, 50, 0
2, 7732, Note_on_c, 0, 49, 65
2, 7884, Note_on_c, 0, 54, 67
2, 7905, Note_on_c, 0, 49, 0
2, 8059, Note_on_c, 0, 54, 0
2, 8069, Note_on_c, 0, 76, 68
2, 8071, Note_on_c, 0, 55, 66
2, 8152, Note_on_c, 0, 55, 0
2, 8153, Note_on_c, 0, 54, 60
2, 8204, Note_on_c, 0, 54, 0
2, 8213, Note_on_c, 0, 53, 68
2, 8306, Note_on_c, 0, 53, 0
2, 8312, Note_on_c, 0, 54, 65
2, 8402, Note_on_c, 0, 54, 0
2, 8410, Note_on_c, 0, 73, 67
2, 8411, Note_on_c, 0, 58, 63
2, 8496, Note_on_c, 0, 76, 0
2, 8578, Note_on_c, 0, 54, 60
2, 8604, Note_on_c, 0, 58, 0
2, 8747, Note_on_c, 0, 66, 66
2, 8756, Note_on_c, 0, 61, 59
2, 8775, Note_on_c, 0, 54, 0
2, 8915, Note_on_c, 0, 52, 66
2, 8957, Note_on_c, 0, 61, 0
2, 9057, Note_on_c, 0, 66, 0
2, 9068, Note_on_c, 0, 73, 0
2, 9094, Note_on_c, 0, 50, 68
2, 9107, Note_on_c, 0, 52, 0
2, 9259, Note_on_c, 0, 54, 62
2, 9260, Note_on_c, 0, 50, 0
2, 9463, Note_on_c, 0, 78, 74
2, 9466, Note_on_c, 0, 47, 52
2, 9555, Note_on_c, 0, 54, 0
2, 9641, Note_on_c, 0, 49, 59
2, 9677, Note_on_c, 0, 47, 0
2, 9814, Note_on_c, 0, 49, 0
2, 9816, Note_on_c, 0, 50, 58
2, 9973, Note_on_c, 0, 78, 0
2, 9981, Note_on_c, 0, 54, 55
2, 9981, Note_on_c, 0, 76, 61
2, 9997, Note_on_c, 0, 50, 0
2, 10052, Note_on_c, 0, 76, 0
2, 10058, Note_on_c, 0, 74, 63
2, 10135, Note_on_c, 0, 74, 0
2, 10141, Note_on_c, 0, 47, 51
2, 10150, Note_on_c, 0, 76, 58
2, 10167, Note_on_c, 0, 54, 0
2, 10230, Note_on_c, 0, 74, 63
2, 10269, Note_on_c, 0, 76, 0
2, 10275, Note_on_c, 0, 47, 0
2, 10295, Note_on_c, 0, 50, 49
2, 10301, Note_on_c, 0, 73, 67
2, 10320, Note_on_c, 0, 74, 0
2, 10372, Note_on_c, 0, 73, 0
2, 10381, Note_on_c, 0, 71, 68
2, 10422, Note_on_c, 0, 71, 0
2, 10492, Note_on_c, 0, 50, 0
2, 10497, Note_on_c, 0, 71, 57
2, 10500, Note_on_c, 0, 49, 51
2, 10653, Note_on_c, 0, 49, 0
2, 10675, Note_on_c, 0, 54, 55
2, 10844, Note_on_c, 0, 70, 53
2, 10863, Note_on_c, 0, 49, 43
2, 10900, Note_on_c, 0, 54, 0
2, 10906, Note_on_c, 0, 71, 0
2, 11022, Note_on_c, 0, 46, 50
2, 11027, Note_on_c, 0, 49, 0
2, 11043, Note_on_c, 0, 70, 0
2, 11211, Note_on_c, 0, 46, 0
2, 11223, Note_on_c, 0, 42, 45
2, 11410, Note_on_c, 0, 64, 44
2, 11419, Note_on_c, 0, 42, 0
2, 11489, Note_on_c, 0, 64, 0
2, 11498, Note_on_c, 0, 62, 48
2, 11560, Note_on_c, 0, 62, 0
2, 11577, Note_on_c, 0, 61, 57
2, 11579, Note_on_c, 0, 58, 44
2, 11632, Note_on_c, 0, 61, 0
2, 11658, Note_on_c, 0, 58, 0
2, 11661, Note_on_c, 0, 62, 54
2, 11752, Note_on_c, 0, 64, 51
2, 11757, Note_on_c, 0, 62, 0
2, 11795, Note_on_c, 0, 64, 0
2, 11957, Note_on_c, 0, 62, 53
2, 11961, Note_on_c, 0, 47, 36
2, 11985, Control_c, 0, 64, 47
2, 12000, Control_c, 0, 64, 63
2, 12013, Note_on_c, 0, 62, 0
2, 12015, Control_c, 0, 64, 67
2, 12030, Control_c, 0, 64, 70
2, 12046, Control_c, 0, 64, 74
2, 12068, Control_c, 0, 64, 79
2, 12083, Control_c, 0, 64, 84
2, 12100, Control_c, 0, 64, 85
2, 12114, Control_c, 0, 64, 86
2, 12130, Control_c, 0, 64, 86
2, 12174, Note_on_c, 0, 71, 53
2, 12175, Control_c, 0, 64, 87
2, 12219, Note_on_c, 0, 71, 0
2, 12248, Note_on_c, 0, 73, 66
2, 12312, Control_c, 0, 64, 86
2, 12343, Control_c, 0, 64, 86
2, 12343, Note_on_c, 0, 73, 0
2, 12346, Note_on_c, 0, 74, 67
2, 12353, Note_on_c, 0, 59, 52
2, 12358, Control_c, 0, 64, 84
2, 12366, Note_on_c, 0, 47, 0
2, 12373, Control_c, 0, 64, 79
2, 12388, Control_c, 0, 64, 73
2, 12403, Control_c, 0, 64, 63
2, 12419, Control_c, 0, 64, 0
2, 12429, Note_on_c, 0, 73, 70
2, 12437, Note_on_c, 0, 74, 0
2, 12533, Note_on_c, 0, 71, 65
2, 12555, Note_on_c, 0, 73, 0
2, 12694, Note_on_c, 0, 61, 58
2, 12790, Note_on_c, 0, 59, 0
2, 12882, Note_on_c, 0, 78, 72
2, 12969, Note_on_c, 0, 71, 0
2, 13055, Note_on_c, 0, 63, 62
2, 13147, Note_on_c, 0, 61, 0
2, 13231, Note_on_c, 0, 69, 67
2, 13264, Note_on_c, 0, 78, 0
2, 13402, Note_on_c, 0, 63, 0
2, 13411, Note_on_c, 0, 64, 63
2, 13517, Note_on_c, 0, 69, 0
2, 13582, Note_on_c, 0, 71, 60
2, 13668, Note_on_c, 0, 69, 72
2, 13691, Note_on_c, 0, 71, 0
2, 13753, Note_on_c, 0, 69, 0
2, 13760, Note_on_c, 0, 68, 68
2, 13764, Note_on_c, 0, 52, 48
2, 13826, Note_on_c, 0, 64, 0
2, 13838, Note_on_c, 0, 68, 0
2, 13843, Note_on_c, 0, 69, 67
2, 13945, Note_on_c, 0, 71, 56
2, 13970, Note_on_c, 0, 69, 0
2, 14120, Note_on_c, 0, 54, 48
2, 14199, Note_on_c, 0, 52, 0
2, 14298, Note_on_c, 0, 62, 55
2, 14328, Note_on_c, 0, 71, 0
2, 14476, Note_on_c, 0, 54, 0
2, 14479, Note_on_c, 0, 56, 47
2, 14540, Control_c, 0, 64, 55
2, 14556, Control_c, 0, 64, 64
2, 14572, Control_c, 0, 64, 67
2, 14582, Note_on_c, 0, 62, 0
2, 14587, Control_c, 0, 64, 70
2, 14602, Control_c, 0, 64, 72
2, 14617, Control_c, 0, 64, 76
2, 14624, Note_on_c, 0, 56, 0
2, 14632, Control_c, 0, 64, 80
2, 14644, Note_on_c, 0, 71, 52
2, 14648, Control_c, 0, 64, 83
2, 14663, Control_c, 0, 64, 84
2, 14678, Control_c, 0, 64, 84
2, 14693, Control_c, 0, 64, 85
2, 14708, Control_c, 0, 64, 86
2, 14723, Control_c, 0, 64, 87
2, 14738, Note_on_c, 0, 71, 0
2, 14739, Control_c, 0, 64, 88
2, 14753, Control_c, 0, 64, 88
2, 14784, Control_c, 0, 64, 89
2, 14844, Control_c, 0, 64, 88
2, 14859, Note_on_c, 0, 45, 44
2, 14859, Note_on_c, 0, 61, 50
2, 14860, Control_c, 0, 64, 88
2, 14875, Control_c, 0, 64, 84
2, 14891, Control_c, 0, 64, 78
2, 14905, Control_c, 0, 64, 68
2, 14920, Control_c, 0, 64, 47
2, 14936, Control_c, 0, 64, 0
2, 14951, Control_c, 0, 64, 54
2, 14967, Control_c, 0, 64, 66
2, 14968, Note_on_c, 0, 61, 0
2, 14981, Control_c, 0, 64, 72
2, 14996, Control_c, 0, 64, 77
2, 15012, Control_c, 0, 64, 80
2, 15027, Control_c, 0, 64, 81
2, 15039, Note_on_c, 0, 69, 64
2, 15042, Control_c, 0, 64, 81
2, 15058, Control_c, 0, 64, 82
2, 15073, Control_c, 0, 64, 83
2, 15089, Control_c, 0, 64, 84
2, 15103, Control_c, 0, 64, 84
2, 15109, Note_on_c, 0, 69, 0
2, 15116, Note_on_c, 0, 71, 63
2, 15201, Control_c, 0, 64, 84
2, 15217, Control_c, 0, 64, 83
2, 15219, Note_on_c, 0, 71, 0
2, 15222, Note_on_c, 0, 73, 65
2, 15232, Control_c, 0, 64, 80
2, 15232, Note_on_c, 0, 57, 56
2, 15248, Control_c, 0, 64, 75
2, 15248, Note_on_c, 0, 45, 0
2, 15263, Control_c, 0, 64, 66
2, 15278, Control_c, 0, 64, 25
2, 15293, Control_c, 0, 64, 0
2, 15300, Note_on_c, 0, 71, 64
2, 15321, Note_on_c, 0, 73, 0
2, 15403, Note_on_c, 0, 69, 65
2, 15464, Note_on_c, 0, 71, 0
2, 15575, Note_on_c, 0, 59, 60
2, 15666, Note_on_c, 0, 57, 0
2, 15756, Note_on_c, 0, 76, 70
2, 15914, Note_on_c, 0, 69, 0
2, 15932, Note_on_c, 0, 61, 60
2, 15999, Note_on_c, 0, 59, 0
2, 16101, Note_on_c, 0, 67, 69
2, 16138, Note_on_c, 0, 76, 0
2, 16292, Note_on_c, 0, 62, 65
2, 16317, Note_on_c, 0, 61, 0
2, 16462, Note_on_c, 0, 67, 0
2, 16464, Note_on_c, 0, 69, 64
2, 16549, Note_on_c, 0, 67, 65
2, 16556, Note_on_c, 0, 69, 0
2, 16629, Note_on_c, 0, 67, 0
2, 16636, Note_on_c, 0, 66, 70
2, 16644, Note_on_c, 0, 50, 50
2, 16715, Note_on_c, 0, 66, 0
2, 16724, Note_on_c, 0, 67, 67
2, 16727, Note_on_c, 0, 62, 0
2, 16828, Note_on_c, 0, 69, 61
2, 16836, Note_on_c, 0, 67, 0
2, 17010, Note_on_c, 0, 52, 55
2, 17128, Note_on_c, 0, 50, 0
2, 17183, Note_on_c, 0, 61, 57
2, 17213, Note_on_c, 0, 69, 0
2, 17353, Note_on_c, 0, 52, 0
2, 17354, Note_on_c, 0, 54, 54
2, 17407, Control_c, 0, 64, 21
2, 17422, Control_c, 0, 64, 59
2, 17445, Control_c, 0, 64, 64
2, 17461, Control_c, 0, 64, 66
2, 17476, Control_c, 0, 64, 68
2, 17491, Control_c, 0, 64, 70
2, 17506, Control_c, 0, 64, 73
2, 17521, Control_c, 0, 64, 76
2, 17529, Note_on_c, 0, 54, 0
2, 17537, Control_c, 0, 64, 79
2, 17549, Note_on_c, 0, 69, 54
2, 17552, Control_c, 0, 64, 80
2, 17567, Control_c, 0, 64, 81
2, 17577, Note_on_c, 0, 61, 0
2, 17582, Control_c, 0, 64, 82
2, 17597, Control_c, 0, 64, 82
2, 17749, Control_c, 0, 64, 81
2, 17749, Note_on_c, 0, 59, 55
2, 17763, Note_on_c, 0, 43, 47
2, 17764, Control_c, 0, 64, 80
2, 17779, Control_c, 0, 64, 77
2, 17794, Control_c, 0, 64, 71
2, 17810, Control_c, 0, 64, 61
2, 17826, Control_c, 0, 64, 0
2, 17852, Note_on_c, 0, 69, 0
2, 17928, Note_on_c, 0, 59, 0
2, 17946, Note_on_c, 0, 66, 60
2, 18116, Note_on_c, 0, 47, 58
2, 18311, Note_on_c, 0, 69, 63
2, 18320, Note_on_c, 0, 43, 0
2, 18385, Note_on_c, 0, 66, 0
2, 18485, Note_on_c, 0, 50, 63
2, 18574, Note_on_c, 0, 47, 0
2, 18655, Note_on_c, 0, 67, 60
2, 18665, Note_on_c, 0, 69, 0
2, 18729, Note_on_c, 0, 67, 0
2, 18733, Note_on_c, 0, 66, 66
2, 18791, Note_on_c, 0, 66, 0
2, 18822, Note_on_c, 0, 67, 59
2, 18830, Note_on_c, 0, 52, 61
2, 18858, Note_on_c, 0, 50, 0
2, 18904, Note_on_c, 0, 66, 69
2, 18929, Note_on_c, 0, 67, 0
2, 18995, Note_on_c, 0, 64, 65
2, 19004, Note_on_c, 0, 66, 0
2, 19066, Note_on_c, 0, 64, 0
2, 19070, Note_on_c, 0, 62, 71
2, 19142, Note_on_c, 0, 62, 0
2, 19179, Note_on_c, 0, 61, 67
2, 19180, Note_on_c, 0, 45, 51
2, 19253, Note_on_c, 0, 52, 0
2, 19329, Note_on_c, 0, 61, 0
2, 19375, Note_on_c, 0, 67, 64
2, 19534, Note_on_c, 0, 49, 60
2, 19643, Note_on_c, 0, 45, 0
2, 19722, Note_on_c, 0, 71, 68
2, 19802, Note_on_c, 0, 67, 0
2, 19897, Note_on_c, 0, 52, 63
2, 19949, Note_on_c, 0, 49, 0
2, 20053, Note_on_c, 0, 69, 67
2, 20069, Note_on_c, 0, 71, 0
2, 20129, Note_on_c, 0, 69, 0
2, 20133, Note_on_c, 0, 67, 68
2, 20209, Note_on_c, 0, 67, 0
2, 20213, Note_on_c, 0, 54, 57
2, 20216, Note_on_c, 0, 69, 72
2, 20254, Note_on_c, 0, 52, 0
2, 20306, Note_on_c, 0, 67, 70
2, 20320, Note_on_c, 0, 69, 0
2, 20386, Note_on_c, 0, 66, 70
2, 20396, Note_on_c, 0, 67, 0
2, 20453, Note_on_c, 0, 64, 71
2, 20466, Note_on_c, 0, 66, 0
2, 20554, Note_on_c, 0, 64, 0
2, 20570, Note_on_c, 0, 47, 59
2, 20573, Note_on_c, 0, 62, 70
2, 20597, Note_on_c, 0, 54, 0
2, 20714, Note_on_c, 0, 62, 0
2, 20767, Note_on_c, 0, 69, 70
2, 20928, Note_on_c, 0, 50, 66
2, 21026, Note_on_c, 0, 47, 0
2, 21121, Note_on_c, 0, 72, 74
2, 21200, Note_on_c, 0, 69, 0
2, 21303, Note_on_c, 0, 54, 73
2, 21336, Note_on_c, 0, 50, 0
2, 21474, Note_on_c, 0, 71, 66
2, 21481, Note_on_c, 0, 72, 0
2, 21551, Note_on_c, 0, 69, 77
2, 21557, Note_on_c, 0, 71, 0
2, 21634, Note_on_c, 0, 69, 0
2, 21644, Note_on_c, 0, 71, 71
2, 21649, Note_on_c, 0, 55, 62
2, 21671, Note_on_c, 0, 54, 0
2, 21732, Note_on_c, 0, 69, 77
2, 21746, Note_on_c, 0, 71, 0
2, 21812, Note_on_c, 0, 67, 74
2, 21833, Note_on_c, 0, 69, 0
2, 21883, Note_on_c, 0, 66, 80
2, 21887, Note_on_c, 0, 67, 0
2, 21989, Note_on_c, 0, 66, 0
2, 21998, Note_on_c, 0, 49, 58
2, 22001, Note_on_c, 0, 64, 73
2, 22059, Note_on_c, 0, 55, 0
2, 22168, Note_on_c, 0, 64, 0
2, 22210, Note_on_c, 0, 71, 70
2, 22382, Note_on_c, 0, 52, 66
2, 22470, Note_on_c, 0, 49, 0
2, 22563, Note_on_c, 0, 74, 67
2, 22701, Note_on_c, 0, 71, 0
2, 22748, Note_on_c, 0, 55, 58
2, 22828, Note_on_c, 0, 52, 0
2, 22932, Note_on_c, 0, 73, 61
2, 22955, Note_on_c, 0, 74, 0
2, 23012, Note_on_c, 0, 73, 0
2, 23014, Note_on_c, 0, 71, 67
2, 23100, Note_on_c, 0, 71, 0
2, 23103, Note_on_c, 0, 73, 69
2, 23109, Note_on_c, 0, 57, 57
2, 23175, Note_on_c, 0, 55, 0
2, 23187, Note_on_c, 0, 71, 67
2, 23196, Note_on_c, 0, 73, 0
2, 23272, Note_on_c, 0, 69, 73
2, 23289, Note_on_c, 0, 71, 0
2, 23342, Note_on_c, 0, 69, 0
2, 23356, Note_on_c, 0, 67, 68
2, 23494, Note_on_c, 0, 50, 58
2, 23505, Note_on_c, 0, 66, 68
2, 23549, Note_on_c, 0, 67, 0
2, 23602, Note_on_c, 0, 57, 0
2, 23713, Note_on_c, 0, 69, 62
2, 23825, Note_on_c, 0, 66, 0
2, 23884, Note_on_c, 0, 54, 60
2, 23884, Note_on_c, 0, 62, 67
2, 23948, Note_on_c, 0, 50, 0
2, 23950, Note_on_c, 0, 69, 0
2, 24061, Note_on_c, 0, 64, 67
2, 24104, Note_on_c, 0, 62, 0
2, 24236, Note_on_c, 0, 57, 60
2, 24243, Note_on_c, 0, 66, 72
2, 24280, Note_on_c, 0, 54, 0
2, 24284, Note_on_c, 0, 64, 0
2, 24422, Note_on_c, 0, 69, 63
2, 24461, Note_on_c, 0, 66, 0
2, 24586, Note_on_c, 0, 62, 67
2, 24622, Note_on_c, 0, 69, 0
2, 24632, Note_on_c, 0, 57, 0
2, 24659, Note_on_c, 0, 59, 60
2, 24734, Note_on_c, 0, 57, 60
2, 24734, Note_on_c, 0, 59, 0
2, 24737, Note_on_c, 0, 62, 0
2, 24747, Note_on_c, 0, 66, 63
2, 24818, Note_on_c, 0, 57, 0
2, 24826, Note_on_c, 0, 56, 63
2, 24918, Note_on_c, 0, 56, 0
2, 24920, Note_on_c, 0, 66, 0
2, 24923, Note_on_c, 0, 64, 59
2, 24927, Note_on_c, 0, 57, 65
2, 25128, Note_on_c, 0, 69, 62
2, 25165, Note_on_c, 0, 64, 0
2, 25207, Note_on_c, 0, 69, 0
2, 25288, Note_on_c, 0, 49, 49
2, 25294, Note_on_c, 0, 71, 62
2, 25368, Note_on_c, 0, 69, 69
2, 25371, Note_on_c, 0, 57, 0
2, 25371, Note_on_c, 0, 71, 0
2, 25440, Note_on_c, 0, 69, 0
2, 25445, Note_on_c, 0, 68, 72
2, 25508, Note_on_c, 0, 68, 0
2, 25523, Note_on_c, 0, 69, 68
2, 25619, Note_on_c, 0, 73, 67
2, 25624, Note_on_c, 0, 52, 52
2, 25647, Note_on_c, 0, 69, 0
2, 25696, Note_on_c, 0, 49, 0
2, 25813, Note_on_c, 0, 69, 66
2, 25849, Note_on_c, 0, 73, 0
2, 26005, Note_on_c, 0, 57, 52
2, 26012, Note_on_c, 0, 76, 63
2, 26035, Note_on_c, 0, 69, 0
2, 26075, Note_on_c, 0, 52, 0
2, 26175, Note_on_c, 0, 76, 0
2, 26183, Note_on_c, 0, 67, 67
2, 26365, Note_on_c, 0, 66, 63
2, 26373, Note_on_c, 0, 50, 56
2, 26414, Note_on_c, 0, 67, 0
2, 26445, Note_on_c, 0, 57, 0
2, 26554, Note_on_c, 0, 69, 64
2, 26636, Note_on_c, 0, 66, 0
2, 26716, Note_on_c, 0, 62, 65
2, 26723, Note_on_c, 0, 54, 60
2, 26731, Note_on_c, 0, 69, 0
2, 26770, Note_on_c, 0, 50, 0
2, 26891, Note_on_c, 0, 64, 66
2, 26938, Note_on_c, 0, 62, 0
2, 27070, Note_on_c, 0, 57, 63
2, 27076, Note_on_c, 0, 66, 69
2, 27110, Note_on_c, 0, 54, 0
2, 27110, Note_on_c, 0, 64, 0
2, 27242, Note_on_c, 0, 69, 60
2, 27278, Note_on_c, 0, 66, 0
2, 27396, Note_on_c, 0, 62, 58
2, 27474, Note_on_c, 0, 57, 0
2, 27483, Note_on_c, 0, 69, 0
2, 27506, Note_on_c, 0, 59, 56
2, 27561, Note_on_c, 0, 59, 0
2, 27571, Note_on_c, 0, 57, 59
2, 27584, Note_on_c, 0, 66, 57
2, 27587, Note_on_c, 0, 62, 0
2, 27639, Note_on_c, 0, 57, 0
2, 27656, Note_on_c, 0, 56, 63
2, 27737, Note_on_c, 0, 56, 0
2, 27750, Note_on_c, 0, 57, 60
2, 27755, Note_on_c, 0, 64, 60
2, 27800, Note_on_c, 0, 66, 0
2, 27947, Note_on_c, 0, 69, 55
2, 27967, Note_on_c, 0, 64, 0
2, 28128, Note_on_c, 0, 45, 42
2, 28128, Note_on_c, 0, 64, 53
2, 28161, Note_on_c, 0, 57, 0
2, 28198, Note_on_c, 0, 69, 0
2, 28311, Note_on_c, 0, 61, 52
2, 28363, Note_on_c, 0, 64, 0
2, 28379, Note_on_c, 0, 45, 0
2, 28493, Note_on_c, 0, 57, 54
2, 28538, Note_on_c, 0, 61, 0
2, 28659, Note_on_c, 0, 55, 54
2, 28728, Note_on_c, 0, 57, 0
2, 28836, Note_on_c, 0, 54, 62
2, 28847, Note_on_c, 0, 55, 0
2, 29017, Note_on_c, 0, 52, 64
2, 29028, Note_on_c, 0, 54, 0
2, 29195, Note_on_c, 0, 54, 60
2, 29201, Note_on_c, 0, 52, 0
2, 29370, Note_on_c, 0, 57, 55
2, 29410, Note_on_c, 0, 54, 0
2, 29546, Note_on_c, 0, 69, 60
2, 29568, Note_on_c, 0, 50, 44
2, 29620, Note_on_c, 0, 57, 0
2, 29705, Note_on_c, 0, 50, 0
2, 29709, Note_on_c, 0, 52, 56
2, 29758, Note_on_c, 0, 69, 0
2, 29876, Note_on_c, 0, 71, 59
2, 29879, Note_on_c, 0, 52, 0
2, 29879, Note_on_c, 0, 54, 54
2, 29953, Note_on_c, 0, 69, 64
2, 29956, Note_on_c, 0, 71, 0
2, 30004, Note_on_c, 0, 54, 0
2, 30024, Note_on_c, 0, 69, 0
2, 30027, Note_on_c, 0, 68, 68
2, 30051, Note_on_c, 0, 57, 50
2, 30094, Note_on_c, 0, 68, 0
2, 30106, Note_on_c, 0, 69, 69
2, 30221, Note_on_c, 0, 78, 66
2, 30228, Note_on_c, 0, 50, 44
2, 30236, Note_on_c, 0, 57, 0
2, 30262, Note_on_c, 0, 69, 0
2, 30404, Note_on_c, 0, 54, 55
2, 30408, Note_on_c, 0, 50, 0
2, 30548, Note_on_c, 0, 78, 0
2, 30586, Note_on_c, 0, 52, 62
2, 30592, Note_on_c, 0, 54, 0
2, 30760, Note_on_c, 0, 52, 0
2, 30760, Note_on_c, 0, 57, 62
2, 30910, Note_on_c, 0, 57, 0
2, 30915, Note_on_c, 0, 69, 62
2, 30929, Note_on_c, 0, 59, 66
2, 30998, Note_on_c, 0, 59, 0
2, 31012, Note_on_c, 0, 57, 60
2, 31064, Note_on_c, 0, 57, 0
2, 31081, Note_on_c, 0, 56, 64
2, 31128, Note_on_c, 0, 69, 0
2, 31143, Note_on_c, 0, 56, 0
2, 31148, Note_on_c, 0, 57, 68
2, 31237, Note_on_c, 0, 57, 0
2, 31252, Note_on_c, 0, 71, 65
2, 31256, Note_on_c, 0, 61, 72
2, 31335, Note_on_c, 0, 69, 73
2, 31342, Note_on_c, 0, 71, 0
2, 31411, Note_on_c, 0, 57, 56
2, 31412, Note_on_c, 0, 68, 73
2, 31412, Note_on_c, 0, 69, 0
2, 31436, Note_on_c, 0, 61, 0
2, 31481, Note_on_c, 0, 68, 0
2, 31484, Note_on_c, 0, 69, 72
2, 31610, Note_on_c, 0, 79, 73
2, 31611, Note_on_c, 0, 64, 55
2, 31628, Note_on_c, 0, 57, 0
2, 31647, Note_on_c, 0, 69, 0
2, 31779, Note_on_c, 0, 55, 59
2, 31790, Note_on_c, 0, 64, 0
2, 31929, Note_on_c, 0, 79, 0
2, 31958, Note_on_c, 0, 55, 0
2, 31967, Note_on_c, 0, 54, 66
2, 32146, Note_on_c, 0, 57, 66
2, 32191, Note_on_c, 0, 54, 0
2, 32307, Note_on_c, 0, 69, 69
2, 32323, Note_on_c, 0, 50, 54
2, 32465, Note_on_c, 0, 57, 0
2, 32475, Note_on_c, 0, 50, 0
2, 32479, Note_on_c, 0, 52, 63
2, 32552, Note_on_c, 0, 69, 0
2, 32657, Note_on_c, 0, 71, 67
2, 32668, Note_on_c, 0, 54, 52
2, 32669, Note_on_c, 0, 52, 0
2, 32730, Note_on_c, 0, 69, 70
2, 32730, Note_on_c, 0, 71, 0
2, 32807, Note_on_c, 0, 68, 73
2, 32812, Note_on_c, 0, 69, 0
2, 32840, Note_on_c, 0, 57, 53
2, 32871, Note_on_c, 0, 68, 0
2, 32883, Note_on_c, 0, 69, 71
2, 32892, Note_on_c, 0, 54, 0
2, 32998, Note_on_c, 0, 50, 48
2, 32998, Note_on_c, 0, 81, 72
2, 33025, Note_on_c, 0, 57, 0
2, 33036, Note_on_c, 0, 69, 0
2, 33161, Note_on_c, 0, 54, 51
2, 33170, Note_on_c, 0, 74, 62
2, 33199, Note_on_c, 0, 81, 0
2, 33204, Note_on_c, 0, 50, 0
2, 33235, Note_on_c, 0, 74, 0
2, 33366, Note_on_c, 0, 74, 64
2, 33378, Note_on_c, 0, 52, 53
2, 33406, Note_on_c, 0, 54, 0
2, 33529, Note_on_c, 0, 52, 0
2, 33539, Note_on_c, 0, 57, 55
2, 33711, Note_on_c, 0, 52, 52
2, 33721, Note_on_c, 0, 73, 65
2, 33777, Note_on_c, 0, 74, 0
2, 33784, Note_on_c, 0, 57, 0
2, 33887, Note_on_c, 0, 49, 51
2, 33920, Note_on_c, 0, 52, 0
2, 34048, Note_on_c, 0, 49, 0
2, 34050, Note_on_c, 0, 45, 54
2, 34131, Note_on_c, 0, 73, 0
2, 34140, Note_on_c, 0, 71, 56
2, 34225, Note_on_c, 0, 45, 0
2, 34231, Note_on_c, 0, 57, 48
2, 34231, Note_on_c, 0, 73, 64
2, 34232, Note_on_c, 0, 71, 0
2, 34308, Note_on_c, 0, 75, 67
2, 34336, Note_on_c, 0, 73, 0
2, 34384, Note_on_c, 0, 55, 52
2, 34402, Note_on_c, 0, 57, 0
2, 34408, Note_on_c, 0, 75, 0
2, 34411, Note_on_c, 0, 76, 65
2, 34484, Note_on_c, 0, 75, 64
2, 34497, Note_on_c, 0, 76, 0
2, 34545, Note_on_c, 0, 54, 59
2, 34555, Note_on_c, 0, 55, 0
2, 34565, Note_on_c, 0, 75, 0
2, 34567, Note_on_c, 0, 73, 74
2, 34629, Note_on_c, 0, 75, 74
2, 34647, Note_on_c, 0, 73, 0
2, 34699, Note_on_c, 0, 55, 58
2, 34723, Note_on_c, 0, 76, 71
2, 34735, Note_on_c, 0, 54, 0
2, 34751, Note_on_c, 0, 75, 0
2, 34901, Note_on_c, 0, 59, 51
2, 34904, Note_on_c, 0, 79, 67
2, 34918, Note_on_c, 0, 76, 0
2, 34989, Note_on_c, 0, 55, 0
2, 35072, Note_on_c, 0, 52, 54
2, 35077, Note_on_c, 0, 71, 64
2, 35104, Note_on_c, 0, 79, 0
2, 35142, Note_on_c, 0, 59, 0
2, 35248, Note_on_c, 0, 54, 52
2, 35259, Note_on_c, 0, 75, 71
2, 35280, Note_on_c, 0, 71, 0
2, 35285, Note_on_c, 0, 52, 0
2, 35427, Note_on_c, 0, 76, 76
2, 35432, Note_on_c, 0, 55, 54
2, 35436, Note_on_c, 0, 54, 0
2, 35452, Note_on_c, 0, 75, 0
2, 35593, Note_on_c, 0, 79, 71
2, 35604, Note_on_c, 0, 59, 52
2, 35622, Note_on_c, 0, 76, 0
2, 35623, Note_on_c, 0, 55, 0
2, 35761, Note_on_c, 0, 71, 69
2, 35763, Note_on_c, 0, 52, 54
2, 35818, Note_on_c, 0, 59, 0
2, 35867, Note_on_c, 0, 79, 0
2, 35943, Note_on_c, 0, 55, 47
2, 35943, Note_on_c, 0, 76, 66
2, 35947, Note_on_c, 0, 52, 0
2, 35953, Note_on_c, 0, 71, 0
2, 35986, Note_on_c, 0, 76, 0
2, 36131, Note_on_c, 0, 55, 0
2, 36137, Note_on_c, 0, 76, 66
2, 36142, Note_on_c, 0, 54, 56
2, 36310, Note_on_c, 0, 59, 62
2, 36315, Note_on_c, 0, 54, 0
2, 36457, Note_on_c, 0, 59, 0
2, 36472, Note_on_c, 0, 60, 62
2, 36494, Note_on_c, 0, 75, 61
2, 36494, Note_on_c, 0, 76, 0
2, 36534, Note_on_c, 0, 75, 0
2, 36549, Note_on_c, 0, 60, 0
2, 36555, Note_on_c, 0, 59, 60
2, 36625, Note_on_c, 0, 59, 0
2, 36642, Note_on_c, 0, 58, 70
2, 36652, Note_on_c, 0, 78, 67
2, 36718, Note_on_c, 0, 78, 0
2, 36727, Note_on_c, 0, 58, 0
2, 36739, Note_on_c, 0, 59, 68
2, 36835, Note_on_c, 0, 59, 0
2, 36837, Note_on_c, 0, 71, 68
2, 36854, Note_on_c, 0, 63, 60
2, 37021, Note_on_c, 0, 59, 53
2, 37025, Note_on_c, 0, 63, 0
2, 37186, Note_on_c, 0, 71, 0
2, 37192, Note_on_c, 0, 66, 55
2, 37197, Note_on_c, 0, 59, 0
2, 37200, Note_on_c, 0, 69, 70
2, 37263, Note_on_c, 0, 69, 0
2, 37362, Note_on_c, 0, 57, 55
2, 37371, Note_on_c, 0, 78, 66
2, 37396, Note_on_c, 0, 66, 0
2, 37438, Note_on_c, 0, 78, 0
2, 37549, Note_on_c, 0, 78, 71
2, 37560, Note_on_c, 0, 55, 49
2, 37577, Note_on_c, 0, 57, 0
2, 37631, Note_on_c, 0, 76, 72
2, 37674, Note_on_c, 0, 78, 0
2, 37701, Note_on_c, 0, 55, 0
2, 37713, Note_on_c, 0, 59, 50
2, 37722, Note_on_c, 0, 75, 72
2, 37747, Note_on_c, 0, 76, 0
2, 37910, Note_on_c, 0, 76, 65
2, 37920, Note_on_c, 0, 75, 0
2, 37925, Note_on_c, 0, 52, 44
2, 38012, Note_on_c, 0, 59, 0
2, 38073, Note_on_c, 0, 52, 0
2, 38089, Note_on_c, 0, 54, 48
2, 38089, Note_on_c, 0, 69, 64
2, 38139, Note_on_c, 0, 76, 0
2, 38183, Note_on_c, 0, 69, 0
2, 38261, Note_on_c, 0, 54, 0
2, 38273, Note_on_c, 0, 55, 50
2, 38279, Note_on_c, 0, 69, 61
2, 38454, Note_on_c, 0, 59, 48
2, 38507, Note_on_c, 0, 55, 0
2, 38620, Note_on_c, 0, 67, 60
2, 38631, Note_on_c, 0, 52, 46
2, 38641, Note_on_c, 0, 69, 0
2, 38728, Note_on_c, 0, 67, 0
2, 38734, Note_on_c, 0, 59, 0
2, 38789, Note_on_c, 0, 55, 45
2, 38799, Note_on_c, 0, 76, 68
2, 38807, Note_on_c, 0, 52, 0
2, 38872, Note_on_c, 0, 76, 0
2, 38981, Note_on_c, 0, 55, 0
2, 38985, Note_on_c, 0, 54, 50
2, 38994, Note_on_c, 0, 76, 76
2, 39112, Control_c, 0, 64, 32
2, 39128, Control_c, 0, 64, 58
2, 39144, Control_c, 0, 64, 62
2, 39151, Note_on_c, 0, 54, 0
2, 39159, Control_c, 0, 64, 63
2, 39162, Note_on_c, 0, 75, 67
2, 39169, Note_on_c, 0, 76, 0
2, 39170, Note_on_c, 0, 59, 45
2, 39175, Control_c, 0, 64, 65
2, 39190, Control_c, 0, 64, 67
2, 39204, Control_c, 0, 64, 69
2, 39220, Control_c, 0, 64, 72
2, 39224, Note_on_c, 0, 75, 0
2, 39235, Control_c, 0, 64, 74
2, 39250, Control_c, 0, 64, 75
2, 39266, Control_c, 0, 64, 76
2, 39280, Control_c, 0, 64, 77
2, 39378, Note_on_c, 0, 81, 74
2, 39401, Control_c, 0, 64, 76
2, 39406, Note_on_c, 0, 54, 46
2, 39417, Control_c, 0, 64, 76
2, 39432, Control_c, 0, 64, 75
2, 39447, Control_c, 0, 64, 72
2, 39462, Control_c, 0, 64, 66
2, 39477, Control_c, 0, 64, 49
2, 39492, Control_c, 0, 64, 0
2, 39572, Note_on_c, 0, 59, 0
2, 39575, Note_on_c, 0, 51, 43
2, 39728, Note_on_c, 0, 54, 0
2, 39731, Note_on_c, 0, 51, 0
2, 39758, Note_on_c, 0, 47, 44
2, 39826, Note_on_c, 0, 81, 0
2, 39843, Note_on_c, 0, 79, 53
2, 39924, Note_on_c, 0, 78, 66
2, 39939, Note_on_c, 0, 79, 0
2, 39999, Note_on_c, 0, 78, 0
2, 40019, Note_on_c, 0, 76, 62
2, 40107, Note_on_c, 0, 75, 63
2, 40113, Note_on_c, 0, 76, 0
2, 40169, Note_on_c, 0, 47, 0
2, 40193, Note_on_c, 0, 73, 60
2, 40260, Note_on_c, 0, 75, 0
2, 40277, Note_on_c, 0, 71, 59
2, 40311, Note_on_c, 0, 73, 0
2, 40345, Note_on_c, 0, 71, 0
2, 40347, Note_on_c, 0, 69, 62
2, 40462, Note_on_c, 0, 67, 62
2, 40480, Note_on_c, 0, 69, 0
2, 40673, Note_on_c, 0, 71, 51
2, 40773, Note_on_c, 0, 67, 0
2, 40810, Note_on_c, 0, 71, 0
2, 40841, Note_on_c, 0, 64, 56
2, 40857, Note_on_c, 0, 55, 44
2, 41033, Note_on_c, 0, 66, 57
2, 41064, Note_on_c, 0, 64, 0
2, 41205, Note_on_c, 0, 67, 61
2, 41212, Note_on_c, 0, 52, 49
2, 41218, Note_on_c, 0, 66, 0
2, 41325, Note_on_c, 0, 55, 0
2, 41394, Note_on_c, 0, 71, 58
2, 41430, Note_on_c, 0, 67, 0
2, 41565, Note_on_c, 0, 64, 65
2, 41569, Note_on_c, 0, 47, 49
2, 41593, Note_on_c, 0, 71, 0
2, 41667, Note_on_c, 0, 52, 0
2, 41745, Note_on_c, 0, 67, 64
2, 41746, Note_on_c, 0, 64, 0
2, 41829, Note_on_c, 0, 47, 0
2, 41926, Note_on_c, 0, 66, 65
2, 41945, Note_on_c, 0, 67, 0
2, 42113, Note_on_c, 0, 71, 59
2, 42138, Note_on_c, 0, 66, 0
2, 42263, Note_on_c, 0, 71, 0
2, 42275, Note_on_c, 0, 57, 51
2, 42275, Note_on_c, 0, 72, 63
2, 42366, Note_on_c, 0, 71, 61
2, 42385, Note_on_c, 0, 72, 0
2, 42439, Note_on_c, 0, 70, 69
2, 42445, Note_on_c, 0, 71, 0
2, 42504, Note_on_c, 0, 70, 0
2, 42520, Note_on_c, 0, 71, 69
2, 42616, Note_on_c, 0, 54, 51
2, 42621, Note_on_c, 0, 75, 74
2, 42655, Note_on_c, 0, 71, 0
2, 42693, Note_on_c, 0, 57, 0
2, 42809, Note_on_c, 0, 71, 64
2, 42812, Note_on_c, 0, 75, 0
2, 42989, Note_on_c, 0, 78, 70
2, 42993, Note_on_c, 0, 47, 50
2, 43007, Note_on_c, 0, 71, 0
2, 43028, Note_on_c, 0, 54, 0
2, 43159, Note_on_c, 0, 69, 71
2, 43168, Note_on_c, 0, 78, 0
2, 43310, Note_on_c, 0, 47, 0
2, 43347, Note_on_c, 0, 67, 71
2, 43386, Note_on_c, 0, 69, 0
2, 43522, Note_on_c, 0, 71, 64
2, 43588, Note_on_c, 0, 67, 0
2, 43695, Note_on_c, 0, 59, 62
2, 43697, Note_on_c, 0, 64, 66
2, 43721, Note_on_c, 0, 71, 0
2, 43724, Note_on_c, 0, 57, 63
2, 43724, Note_on_c, 0, 59, 0
2, 43753, Note_on_c, 0, 57, 0
2, 43785, Note_on_c, 0, 59, 75
2, 43846, Note_on_c, 0, 66, 62
2, 43871, Note_on_c, 0, 64, 0
2, 44026, Note_on_c, 0, 66, 0
2, 44028, Note_on_c, 0, 67, 57
2, 44188, Note_on_c, 0, 59, 0
2, 44198, Note_on_c, 0, 57, 59
2, 44201, Note_on_c, 0, 71, 54
2, 44209, Note_on_c, 0, 67, 0
2, 44267, Note_on_c, 0, 57, 0
2, 44283, Note_on_c, 0, 55, 58
2, 44348, Note_on_c, 0, 55, 0
2, 44367, Note_on_c, 0, 64, 64
2, 44372, Note_on_c, 0, 57, 66
2, 44436, Note_on_c, 0, 71, 0
2, 44439, Note_on_c, 0, 57, 0
2, 44445, Note_on_c, 0, 55, 60
2, 44524, Note_on_c, 0, 55, 0
2, 44525, Note_on_c, 0, 64, 0
2, 44530, Note_on_c, 0, 54, 61
2, 44533, Note_on_c, 0, 67, 54
2, 44601, Note_on_c, 0, 52, 57
2, 44607, Note_on_c, 0, 54, 0
2, 44639, Note_on_c, 0, 52, 0
2, 44724, Note_on_c, 0, 66, 56
2, 44742, Note_on_c, 0, 52, 49
2, 44769, Note_on_c, 0, 67, 0
2, 44933, Note_on_c, 0, 66, 0
2, 44938, Note_on_c, 0, 71, 46
2, 45073, Note_on_c, 0, 52, 0
2, 45100, Note_on_c, 0, 51, 43
2, 45124, Note_on_c, 0, 66, 53
2, 45164, Note_on_c, 0, 71, 0
2, 45289, Note_on_c, 0, 63, 54
2, 45348, Note_on_c, 0, 66, 0
2, 45360, Note_on_c, 0, 51, 0
2, 45367, Note_on_c, 0, 63, 0
2, 45470, Note_on_c, 0, 59, 53
2, 45500, Control_c, 0, 64, 54
2, 45515, Control_c, 0, 64, 64
2, 45530, Control_c, 0, 64, 67
2, 45545, Control_c, 0, 64, 69
2, 45560, Control_c, 0, 64, 72
2, 45564, Note_on_c, 0, 59, 0
2, 45576, Control_c, 0, 64, 75
2, 45591, Control_c, 0, 64, 78
2, 45606, Control_c, 0, 64, 80
2, 45621, Control_c, 0, 64, 81
2, 45635, Note_on_c, 0, 57, 52
2, 45651, Control_c, 0, 64, 81
2, 45690, Note_on_c, 0, 57, 0
2, 45723, Note_on_c, 0, 55, 48
2, 45762, Note_on_c, 0, 55, 0
2, 45775, Control_c, 0, 64, 81
2, 45783, Note_on_c, 0, 76, 55
2, 45799, Note_on_c, 0, 54, 48
2, 45804, Control_c, 0, 64, 79
2, 45820, Control_c, 0, 64, 77
2, 45835, Control_c, 0, 64, 71
2, 45847, Note_on_c, 0, 76, 0
2, 45849, Note_on_c, 0, 75, 56
2, 45858, Control_c, 0, 64, 60
2, 45861, Note_on_c, 0, 54, 0
2, 45873, Control_c, 0, 64, 0
2, 45888, Note_on_c, 0, 75, 0
2, 45890, Note_on_c, 0, 73, 64
2, 45891, Note_on_c, 0, 55, 41
2, 45922, Note_on_c, 0, 55, 0
2, 45927, Note_on_c, 0, 57, 47
2, 45953, Note_on_c, 0, 75, 60
2, 45968, Note_on_c, 0, 73, 0
2, 45982, Note_on_c, 0, 57, 0
2, 46148, Note_on_c, 0, 55, 49
2, 46158, Note_on_c, 0, 76, 60
2, 46165, Note_on_c, 0, 75, 0
2, 46177, Control_c, 0, 64, 51
2, 46182, Note_on_c, 0, 55, 0
2, 46191, Control_c, 0, 64, 62
2, 46206, Control_c, 0, 64, 64
2, 46222, Control_c, 0, 64, 65
2, 46237, Control_c, 0, 64, 67
2, 46252, Control_c, 0, 64, 68
2, 46268, Control_c, 0, 64, 70
2, 46283, Control_c, 0, 64, 71
2, 46299, Control_c, 0, 64, 71
2, 46329, Control_c, 0, 64, 72
2, 46335, Note_on_c, 0, 64, 62
2, 46389, Control_c, 0, 64, 71
2, 46404, Control_c, 0, 64, 71
2, 46408, Note_on_c, 0, 64, 0
2, 46420, Control_c, 0, 64, 69
2, 46421, Note_on_c, 0, 66, 66
2, 46435, Control_c, 0, 64, 64
2, 46450, Control_c, 0, 64, 41
2, 46465, Control_c, 0, 64, 0
2, 46489, Note_on_c, 0, 66, 0
2, 46514, Note_on_c, 0, 67, 69
2, 46520, Note_on_c, 0, 71, 63
2, 46589, Note_on_c, 0, 76, 0
2, 46590, Note_on_c, 0, 66, 68
2, 46634, Note_on_c, 0, 67, 0
2, 46653, Note_on_c, 0, 71, 0
2, 46686, Note_on_c, 0, 64, 71
2, 46711, Note_on_c, 0, 66, 0
2, 46895, Note_on_c, 0, 79, 66
2, 46976, Note_on_c, 0, 78, 73
2, 46981, Note_on_c, 0, 79, 0
2, 47053, Note_on_c, 0, 78, 0
2, 47058, Note_on_c, 0, 76, 71
2, 47061, Note_on_c, 0, 64, 0
2, 47064, Note_on_c, 0, 71, 64
2, 47128, Note_on_c, 0, 78, 76
2, 47135, Note_on_c, 0, 76, 0
2, 47226, Note_on_c, 0, 79, 73
2, 47246, Note_on_c, 0, 78, 0
2, 47287, Note_on_c, 0, 71, 0
2, 47341, Control_c, 0, 64, 46
2, 47356, Control_c, 0, 64, 62
2, 47371, Control_c, 0, 64, 64
2, 47405, Note_on_c, 0, 79, 0
2, 47408, Note_on_c, 0, 62, 51
2, 47409, Control_c, 0, 64, 65
2, 47411, Note_on_c, 0, 71, 72
2, 47424, Control_c, 0, 64, 66
2, 47439, Control_c, 0, 64, 67
2, 47455, Control_c, 0, 64, 68
2, 47455, Note_on_c, 0, 71, 0
2, 47469, Control_c, 0, 64, 69
2, 47484, Control_c, 0, 64, 69
2, 47561, Note_on_c, 0, 69, 73
2, 47589, Note_on_c, 0, 69, 0
2, 47610, Note_on_c, 0, 71, 56
2, 47622, Control_c, 0, 64, 69
2, 47636, Control_c, 0, 64, 68
2, 47648, Note_on_c, 0, 69, 73
2, 47651, Control_c, 0, 64, 67
2, 47666, Control_c, 0, 64, 65
2, 47681, Control_c, 0, 64, 62
2, 47685, Note_on_c, 0, 71, 0
2, 47697, Control_c, 0, 64, 55
2, 47702, Note_on_c, 0, 62, 0
2, 47712, Control_c, 0, 64, 27
2, 47727, Control_c, 0, 64, 0
2, 47730, Note_on_c, 0, 64, 59
2, 47751, Note_on_c, 0, 68, 73
2, 47754, Note_on_c, 0, 69, 0
2, 47799, Note_on_c, 0, 64, 0
2, 47815, Note_on_c, 0, 62, 62
2, 47873, Note_on_c, 0, 62, 0
2, 47897, Note_on_c, 0, 61, 66
2, 47909, Note_on_c, 0, 68, 0
2, 47917, Note_on_c, 0, 69, 66
2, 47988, Note_on_c, 0, 61, 0
2, 47990, Note_on_c, 0, 62, 62
2, 48079, Note_on_c, 0, 73, 66
2, 48083, Note_on_c, 0, 62, 0
2, 48086, Note_on_c, 0, 64, 57
2, 48086, Note_on_c, 0, 69, 0
2, 48173, Note_on_c, 0, 73, 0
2, 48276, Note_on_c, 0, 73, 61
2, 48463, Note_on_c, 0, 55, 41
2, 48463, Note_on_c, 0, 76, 59
2, 48489, Note_on_c, 0, 73, 0
2, 48581, Note_on_c, 0, 64, 0
2, 48649, Note_on_c, 0, 81, 67
2, 48690, Note_on_c, 0, 76, 0
2, 48768, Control_c, 0, 64, 52
2, 48779, Note_on_c, 0, 55, 0
2, 48784, Control_c, 0, 64, 62
2, 48799, Control_c, 0, 64, 64
2, 48815, Control_c, 0, 64, 65
2, 48824, Note_on_c, 0, 73, 66
2, 48830, Control_c, 0, 64, 67
2, 48842, Note_on_c, 0, 64, 44
2, 48844, Control_c, 0, 64, 69
2, 48860, Control_c, 0, 64, 71
2, 48863, Note_on_c, 0, 81, 0
2, 48875, Control_c, 0, 64, 72
2, 48890, Control_c, 0, 64, 74
2, 48905, Note_on_c, 0, 64, 0
2, 48906, Control_c, 0, 64, 75
2, 49021, Control_c, 0, 64, 72
2, 49035, Control_c, 0, 64, 66
2, 49044, Note_on_c, 0, 54, 47
2, 49047, Note_on_c, 0, 74, 61
2, 49050, Control_c, 0, 64, 10
2, 49066, Control_c, 0, 64, 0
2, 49076, Note_on_c, 0, 73, 0
2, 49088, Note_on_c, 0, 54, 0
2, 49142, Control_c, 0, 64, 31
2, 49157, Control_c, 0, 64, 59
2, 49172, Control_c, 0, 64, 63
2, 49188, Control_c, 0, 64, 64
2, 49203, Control_c, 0, 64, 64
2, 49219, Control_c, 0, 64, 65
2, 49231, Note_on_c, 0, 62, 56
2, 49233, Control_c, 0, 64, 67
2, 49248, Control_c, 0, 64, 68
2, 49264, Control_c, 0, 64, 68
2, 49298, Note_on_c, 0, 62, 0
2, 49317, Note_on_c, 0, 64, 66
2, 49340, Control_c, 0, 64, 67
2, 49355, Control_c, 0, 64, 64
2, 49369, Control_c, 0, 64, 54
2, 49385, Control_c, 0, 64, 0
2, 49390, Note_on_c, 0, 64, 0
2, 49398, Note_on_c, 0, 69, 60
2, 49420, Note_on_c, 0, 66, 68
2, 49444, Note_on_c, 0, 74, 0
2, 49481, Note_on_c, 0, 64, 68
2, 49491, Note_on_c, 0, 69, 0
2, 49496, Note_on_c, 0, 66, 0
2, 49587, Note_on_c, 0, 62, 69
2, 49616, Note_on_c, 0, 64, 0
2, 49776, Note_on_c, 0, 78, 66
2, 49862, Note_on_c, 0, 76, 70
2, 49864, Note_on_c, 0, 78, 0
2, 49932, Note_on_c, 0, 76, 0
2, 49947, Note_on_c, 0, 74, 70
2, 49954, Note_on_c, 0, 69, 72
2, 49991, Note_on_c, 0, 62, 0
2, 50015, Note_on_c, 0, 76, 74
2, 50020, Note_on_c, 0, 74, 0
2, 50120, Note_on_c, 0, 78, 78
2, 50129, Note_on_c, 0, 76, 0
2, 50215, Control_c, 0, 64, 59
2, 50221, Note_on_c, 0, 69, 0
2, 50230, Control_c, 0, 64, 64
2, 50245, Control_c, 0, 64, 65
2, 50260, Control_c, 0, 64, 66
2, 50275, Control_c, 0, 64, 68
2, 50290, Control_c, 0, 64, 71
2, 50299, Note_on_c, 0, 60, 60
2, 50302, Note_on_c, 0, 69, 72
2, 50304, Note_on_c, 0, 78, 0
2, 50306, Control_c, 0, 64, 73
2, 50321, Control_c, 0, 64, 75
2, 50336, Control_c, 0, 64, 75
2, 50351, Control_c, 0, 64, 76
2, 50355, Note_on_c, 0, 69, 0
2, 50382, Control_c, 0, 64, 76
2, 50471, Note_on_c, 0, 67, 65
2, 50480, Control_c, 0, 64, 76
2, 50490, Note_on_c, 0, 67, 0
2, 50505, Note_on_c, 0, 69, 65
2, 50511, Control_c, 0, 64, 74
2, 50526, Control_c, 0, 64, 71
2, 50541, Control_c, 0, 64, 64
2, 50556, Control_c, 0, 64, 30
2, 50560, Note_on_c, 0, 67, 72
2, 50571, Control_c, 0, 64, 0
2, 50602, Note_on_c, 0, 69, 0
2, 50633, Note_on_c, 0, 60, 0
2, 50649, Note_on_c, 0, 66, 72
2, 50656, Note_on_c, 0, 62, 60
2, 50657, Note_on_c, 0, 67, 0
2, 50727, Note_on_c, 0, 62, 0
2, 50749, Note_on_c, 0, 60, 59
2, 50810, Note_on_c, 0, 66, 0
2, 50819, Note_on_c, 0, 67, 67
2, 50821, Note_on_c, 0, 60, 0
2, 50831, Note_on_c, 0, 59, 63
2, 50917, Note_on_c, 0, 59, 0
2, 50933, Note_on_c, 0, 60, 60
2, 50998, Note_on_c, 0, 60, 0
2, 51001, Note_on_c, 0, 71, 66
2, 51019, Note_on_c, 0, 62, 58
2, 51035, Note_on_c, 0, 67, 0
2, 51104, Note_on_c, 0, 71, 0
2, 51196, Note_on_c, 0, 71, 60
2, 51385, Note_on_c, 0, 74, 59
2, 51392, Note_on_c, 0, 54, 42
2, 51402, Note_on_c, 0, 71, 0
2, 51501, Note_on_c, 0, 62, 0
2, 51572, Note_on_c, 0, 79, 63
2, 51597, Note_on_c, 0, 74, 0
2, 51753, Note_on_c, 0, 62, 45
2, 51754, Note_on_c, 0, 71, 58
2, 51759, Note_on_c, 0, 54, 0
2, 51850, Note_on_c, 0, 79, 0
2, 51922, Note_on_c, 0, 71, 0
2, 51949, Note_on_c, 0, 73, 58
2, 51968, Note_on_c, 0, 52, 47
2, 52037, Note_on_c, 0, 62, 0
2, 52037, Note_on_c, 0, 73, 0
2, 52167, Note_on_c, 0, 79, 64
2, 52337, Note_on_c, 0, 50, 51
2, 52378, Note_on_c, 0, 52, 0
2, 52411, Control_c, 0, 64, 47
2, 52427, Control_c, 0, 64, 58
2, 52442, Control_c, 0, 64, 60
2, 52457, Control_c, 0, 64, 62
2, 52472, Control_c, 0, 64, 63
2, 52487, Control_c, 0, 64, 65
2, 52503, Control_c, 0, 64, 66
2, 52518, Control_c, 0, 64, 67
2, 52523, Note_on_c, 0, 78, 58
2, 52532, Control_c, 0, 64, 68
2, 52548, Control_c, 0, 64, 69
2, 52563, Control_c, 0, 64, 70
2, 52579, Control_c, 0, 64, 71
2, 52582, Note_on_c, 0, 79, 0
2, 52681, Note_on_c, 0, 50, 0
2, 52685, Control_c, 0, 64, 70
2, 52701, Control_c, 0, 64, 69
2, 52701, Note_on_c, 0, 70, 59
2, 52715, Control_c, 0, 64, 66
2, 52716, Note_on_c, 0, 49, 47
2, 52730, Control_c, 0, 64, 61
2, 52730, Note_on_c, 0, 78, 0
2, 52746, Control_c, 0, 64, 40
2, 52768, Control_c, 0, 64, 0
2, 52836, Note_on_c, 0, 70, 0
2, 52909, Note_on_c, 0, 76, 56
2, 53069, Note_on_c, 0, 49, 0
2, 53079, Note_on_c, 0, 47, 54
2, 53181, Control_c, 0, 64, 39
2, 53196, Control_c, 0, 64, 58
2, 53211, Control_c, 0, 64, 61
2, 53226, Control_c, 0, 64, 62
2, 53241, Control_c, 0, 64, 64
2, 53257, Control_c, 0, 64, 65
2, 53265, Note_on_c, 0, 74, 49
2, 53272, Control_c, 0, 64, 67
2, 53287, Control_c, 0, 64, 69
2, 53302, Control_c, 0, 64, 71
2, 53313, Note_on_c, 0, 76, 0
2, 53317, Control_c, 0, 64, 72
2, 53332, Control_c, 0, 64, 73
2, 53335, Note_on_c, 0, 74, 0
2, 53347, Control_c, 0, 64, 74
2, 53362, Control_c, 0, 64, 75
2, 53457, Note_on_c, 0, 65, 58
2, 53463, Note_on_c, 0, 47, 0
2, 53484, Control_c, 0, 64, 75
2, 53499, Control_c, 0, 64, 74
2, 53514, Control_c, 0, 64, 73
2, 53538, Control_c, 0, 64, 70
2, 53553, Control_c, 0, 64, 67
2, 53567, Control_c, 0, 64, 60
2, 53583, Control_c, 0, 64, 36
2, 53598, Control_c, 0, 64, 0
2, 53641, Note_on_c, 0, 62, 57
2, 53835, Note_on_c, 0, 66, 67
2, 53947, Note_on_c, 0, 65, 0
2, 53998, Note_on_c, 0, 61, 62
2, 54058, Note_on_c, 0, 62, 0
2, 54184, Note_on_c, 0, 68, 68
2, 54187, Note_on_c, 0, 53, 55
2, 54240, Note_on_c, 0, 61, 0
2, 54262, Note_on_c, 0, 53, 0
2, 54319, Note_on_c, 0, 66, 0
2, 54371, Note_on_c, 0, 59, 64
2, 54553, Note_on_c, 0, 69, 74
2, 54603, Note_on_c, 0, 68, 0
2, 54714, Note_on_c, 0, 57, 66
2, 54789, Note_on_c, 0, 59, 0
2, 54906, Note_on_c, 0, 71, 71
2, 54911, Note_on_c, 0, 50, 56
2, 54928, Note_on_c, 0, 57, 0
2, 54971, Note_on_c, 0, 50, 0
2, 55024, Note_on_c, 0, 69, 0
2, 55095, Note_on_c, 0, 56, 64
2, 55267, Note_on_c, 0, 73, 75
2, 55376, Note_on_c, 0, 71, 0
2, 55435, Note_on_c, 0, 54, 60
2, 55465, Note_on_c, 0, 56, 0
2, 55502, Note_on_c, 0, 54, 0
2, 55515, Control_c, 0, 64, 18
2, 55530, Control_c, 0, 64, 53
2, 55546, Control_c, 0, 64, 60
2, 55560, Control_c, 0, 64, 62
2, 55576, Control_c, 0, 64, 63
2, 55591, Control_c, 0, 64, 64
2, 55605, Control_c, 0, 64, 64
2, 55621, Control_c, 0, 64, 65
2, 55635, Note_on_c, 0, 74, 56
2, 55652, Note_on_c, 0, 47, 52
2, 55678, Note_on_c, 0, 73, 0
2, 55681, Control_c, 0, 64, 64
2, 55697, Control_c, 0, 64, 63
2, 55712, Control_c, 0, 64, 61
2, 55727, Control_c, 0, 64, 56
2, 55743, Control_c, 0, 64, 46
2, 55750, Note_on_c, 0, 74, 0
2, 55758, Control_c, 0, 64, 0
2, 55840, Note_on_c, 0, 65, 59
2, 56018, Note_on_c, 0, 59, 53
2, 56179, Note_on_c, 0, 47, 0
2, 56191, Control_c, 0, 64, 44
2, 56198, Note_on_c, 0, 66, 64
2, 56206, Control_c, 0, 64, 58
2, 56221, Control_c, 0, 64, 61
2, 56236, Control_c, 0, 64, 62
2, 56251, Control_c, 0, 64, 63
2, 56262, Note_on_c, 0, 65, 0
2, 56267, Control_c, 0, 64, 64
2, 56282, Control_c, 0, 64, 65
2, 56297, Control_c, 0, 64, 65
2, 56375, Note_on_c, 0, 59, 0
2, 56387, Note_on_c, 0, 68, 62
2, 56390, Control_c, 0, 64, 65
2, 56392, Note_on_c, 0, 53, 53
2, 56404, Control_c, 0, 64, 64
2, 56420, Control_c, 0, 64, 63
2, 56423, Note_on_c, 0, 66, 0
2, 56435, Control_c, 0, 64, 61
2, 56449, Control_c, 0, 64, 57
2, 56465, Control_c, 0, 64, 54
2, 56480, Control_c, 0, 64, 48
2, 56496, Control_c, 0, 64, 36
2, 56511, Control_c, 0, 64, 0
2, 56584, Note_on_c, 0, 59, 65
2, 56634, Note_on_c, 0, 68, 0
2, 56765, Note_on_c, 0, 56, 58
2, 56899, Note_on_c, 0, 53, 0
2, 56957, Note_on_c, 0, 62, 61
2, 57089, Note_on_c, 0, 59, 0
2, 57125, Note_on_c, 0, 49, 57
2, 57163, Note_on_c, 0, 56, 0
2, 57311, Note_on_c, 0, 61, 59
2, 57366, Note_on_c, 0, 62, 0
2, 57490, Note_on_c, 0, 53, 51
2, 57526, Note_on_c, 0, 49, 0
2, 57560, Control_c, 0, 64, 57
2, 57575, Control_c, 0, 64, 64
2, 57577, Note_on_c, 0, 61, 0
2, 57590, Control_c, 0, 64, 66
2, 57605, Control_c, 0, 64, 67
2, 57621, Control_c, 0, 64, 68
2, 57635, Control_c, 0, 64, 70
2, 57650, Control_c, 0, 64, 73
2, 57666, Control_c, 0, 64, 75
2, 57672, Note_on_c, 0, 59, 55
2, 57681, Control_c, 0, 64, 76
2, 57697, Control_c, 0, 64, 76
2, 57712, Control_c, 0, 64, 77
2, 57764, Note_on_c, 0, 59, 0
2, 57831, Note_on_c, 0, 53, 0
2, 57848, Control_c, 0, 64, 76
2, 57864, Control_c, 0, 64, 76
2, 57877, Note_on_c, 0, 42, 53
2, 57878, Note_on_c, 0, 57, 56
2, 57879, Control_c, 0, 64, 75
2, 57895, Control_c, 0, 64, 74
2, 57909, Control_c, 0, 64, 71
2, 57922, Control_c, 0, 64, 64
2, 57937, Control_c, 0, 64, 39
2, 57954, Control_c, 0, 64, 0
2, 58054, Note_on_c, 0, 57, 0
2, 58060, Note_on_c, 0, 61, 60
2, 58238, Note_on_c, 0, 45, 63
2, 58249, Note_on_c, 0, 54, 64
2, 58298, Note_on_c, 0, 61, 0
2, 58303, Note_on_c, 0, 42, 0
2, 58413, Note_on_c, 0, 56, 67
2, 58478, Note_on_c, 0, 54, 0
2, 58608, Note_on_c, 0, 49, 60
2, 58611, Note_on_c, 0, 57, 65
2, 58622, Note_on_c, 0, 45, 0
2, 58635, Note_on_c, 0, 56, 0
2, 58786, Note_on_c, 0, 61, 67
2, 58813, Note_on_c, 0, 57, 0
2, 58961, Note_on_c, 0, 54, 62
2, 59017, Note_on_c, 0, 49, 0
2, 59033, Note_on_c, 0, 50, 60
2, 59060, Note_on_c, 0, 61, 0
2, 59113, Note_on_c, 0, 49, 61
2, 59113, Note_on_c, 0, 50, 0
2, 59129, Note_on_c, 0, 57, 58
2, 59154, Note_on_c, 0, 54, 0
2, 59173, Note_on_c, 0, 49, 0
2, 59186, Note_on_c, 0, 48, 66
2, 59293, Note_on_c, 0, 49, 64
2, 59294, Note_on_c, 0, 48, 0
2, 59297, Note_on_c, 0, 57, 0
2, 59303, Note_on_c, 0, 56, 60
2, 59483, Note_on_c, 0, 61, 65
2, 59518, Note_on_c, 0, 56, 0
2, 59577, Note_on_c, 0, 61, 0
2, 59651, Note_on_c, 0, 62, 57
2, 59662, Note_on_c, 0, 41, 60
2, 59699, Note_on_c, 0, 49, 0
2, 59739, Note_on_c, 0, 61, 58
2, 59768, Note_on_c, 0, 62, 0
2, 59800, Note_on_c, 0, 61, 0
2, 59823, Note_on_c, 0, 60, 69
2, 59897, Note_on_c, 0, 61, 73
2, 59911, Note_on_c, 0, 60, 0
2, 59986, Note_on_c, 0, 44, 55
2, 60000, Note_on_c, 0, 65, 70
2, 60025, Note_on_c, 0, 61, 0
2, 60051, Note_on_c, 0, 41, 0
2, 60185, Note_on_c, 0, 61, 66
2, 60237, Note_on_c, 0, 65, 0
2, 60362, Note_on_c, 0, 49, 59
2, 60372, Note_on_c, 0, 44, 0
2, 60372, Note_on_c, 0, 68, 69
2, 60417, Note_on_c, 0, 61, 0
2, 60553, Note_on_c, 0, 59, 66
2, 60692, Note_on_c, 0, 68, 0
2, 60753, Note_on_c, 0, 42, 53
2, 60754, Note_on_c, 0, 49, 0
2, 60755, Note_on_c, 0, 57, 62
2, 60770, Note_on_c, 0, 59, 0
2, 60929, Note_on_c, 0, 49, 61
2, 60979, Note_on_c, 0, 42, 0
2, 61095, Note_on_c, 0, 49, 0
2, 61103, Note_on_c, 0, 54, 59
2, 61117, Note_on_c, 0, 61, 69
2, 61201, Note_on_c, 0, 57, 0
2, 61294, Note_on_c, 0, 56, 67
2, 61309, Note_on_c, 0, 54, 0
2, 61454, Note_on_c, 0, 56, 0
2, 61465, Note_on_c, 0, 66, 68
2, 61467, Note_on_c, 0, 57, 63
2, 61519, Note_on_c, 0, 61, 0
2, 61644, Note_on_c, 0, 61, 69
2, 61656, Note_on_c, 0, 57, 0
2, 61822, Note_on_c, 0, 69, 69
2, 61829, Note_on_c, 0, 54, 55
2, 61860, Note_on_c, 0, 66, 0
2, 61894, Note_on_c, 0, 61, 0
2, 62000, Note_on_c, 0, 54, 0
2, 62002, Note_on_c, 0, 57, 67
2, 62175, Note_on_c, 0, 65, 62
2, 62183, Note_on_c, 0, 57, 0
2, 62183, Note_on_c, 0, 69, 0
2, 62192, Note_on_c, 0, 56, 62
2, 62357, Note_on_c, 0, 56, 0
2, 62360, Note_on_c, 0, 61, 63
2, 62504, Note_on_c, 0, 61, 0
2, 62522, Note_on_c, 0, 65, 0
2, 62528, Note_on_c, 0, 62, 66
2, 62531, Note_on_c, 0, 68, 63
2, 62593, Note_on_c, 0, 62, 0
2, 62594, Note_on_c, 0, 61, 55
2, 62655, Note_on_c, 0, 61, 0
2, 62663, Note_on_c, 0, 60, 65
2, 62749, Note_on_c, 0, 60, 0
2, 62754, Note_on_c, 0, 61, 65
2, 62842, Note_on_c, 0, 71, 68
2, 62845, Note_on_c, 0, 61, 0
2, 62863, Note_on_c, 0, 65, 60
2, 62879, Note_on_c, 0, 68, 0
2, 63026, Note_on_c, 0, 65, 0
2, 63027, Note_on_c, 0, 61, 61
2, 63186, Note_on_c, 0, 61, 0
2, 63215, Note_on_c, 0, 74, 58
2, 63223, Note_on_c, 0, 68, 44
2, 63255, Note_on_c, 0, 71, 0
2, 63373, Note_on_c, 0, 68, 0
2, 63382, Note_on_c, 0, 59, 48
2, 63576, Note_on_c, 0, 59, 0
2, 63586, Note_on_c, 0, 73, 53
2, 63609, Control_c, 0, 64, 29
2, 63610, Note_on_c, 0, 57, 44
2, 63623, Note_on_c, 0, 74, 0
2, 63625, Control_c, 0, 64, 62
2, 63640, Control_c, 0, 64, 65
2, 63655, Control_c, 0, 64, 67
2, 63664, Note_on_c, 0, 73, 0
2, 63670, Control_c, 0, 64, 69
2, 63685, Control_c, 0, 64, 71
2, 63702, Control_c, 0, 64, 74
2, 63712, Note_on_c, 0, 57, 0
2, 63717, Control_c, 0, 64, 77
2, 63732, Control_c, 0, 64, 78
2, 63748, Control_c, 0, 64, 79
2, 63763, Control_c, 0, 64, 79
2, 63789, Note_on_c, 0, 66, 63
2, 63793, Control_c, 0, 64, 80
2, 63845, Note_on_c, 0, 66, 0
2, 63870, Note_on_c, 0, 68, 66
2, 63914, Control_c, 0, 64, 79
2, 63929, Control_c, 0, 64, 78
2, 63945, Control_c, 0, 64, 75
2, 63946, Note_on_c, 0, 54, 51
2, 63960, Control_c, 0, 64, 69
2, 63964, Note_on_c, 0, 68, 0
2, 63968, Note_on_c, 0, 69, 64
2, 63974, Control_c, 0, 64, 57
2, 63990, Control_c, 0, 64, 0
2, 64044, Note_on_c, 0, 68, 68
2, 64059, Note_on_c, 0, 69, 0
2, 64151, Note_on_c, 0, 66, 72
2, 64187, Note_on_c, 0, 68, 0
2, 64328, Note_on_c, 0, 56, 59
2, 64427, Note_on_c, 0, 54, 0
2, 64522, Note_on_c, 0, 73, 71
2, 64663, Note_on_c, 0, 66, 0
2, 64702, Note_on_c, 0, 58, 58
2, 64754, Note_on_c, 0, 56, 0
2, 64884, Note_on_c, 0, 64, 62
2, 64942, Note_on_c, 0, 73, 0
2, 65080, Note_on_c, 0, 59, 48
2, 65098, Note_on_c, 0, 58, 0
2, 65203, Note_on_c, 0, 64, 0
2, 65253, Note_on_c, 0, 66, 55
2, 65339, Note_on_c, 0, 64, 62
2, 65372, Note_on_c, 0, 66, 0
2, 65415, Note_on_c, 0, 64, 0
2, 65426, Note_on_c, 0, 62, 65
2, 65432, Note_on_c, 0, 47, 52
2, 65505, Note_on_c, 0, 62, 0
2, 65505, Note_on_c, 0, 64, 60
2, 65539, Note_on_c, 0, 59, 0
2, 65609, Note_on_c, 0, 66, 58
2, 65646, Note_on_c, 0, 64, 0
2, 65805, Note_on_c, 0, 49, 49
2, 65875, Note_on_c, 0, 47, 0
2, 65973, Note_on_c, 0, 57, 53
2, 66035, Note_on_c, 0, 66, 0
2, 66142, Note_on_c, 0, 49, 0
2, 66154, Note_on_c, 0, 51, 45
2, 66264, Control_c, 0, 64, 57
2, 66279, Control_c, 0, 64, 62
2, 66294, Control_c, 0, 64, 64
2, 66310, Control_c, 0, 64, 66
2, 66320, Note_on_c, 0, 51, 0
2, 66322, Note_on_c, 0, 66, 53
2, 66325, Control_c, 0, 64, 68
2, 66340, Control_c, 0, 64, 71
2, 66355, Control_c, 0, 64, 75
2, 66365, Note_on_c, 0, 57, 0
2, 66370, Control_c, 0, 64, 78
2, 66386, Control_c, 0, 64, 80
2, 66401, Control_c, 0, 64, 81
2, 66416, Control_c, 0, 64, 82
2, 66431, Control_c, 0, 64, 82
2, 66438, Note_on_c, 0, 66, 0
2, 66540, Control_c, 0, 64, 81
2, 66547, Note_on_c, 0, 55, 54
2, 66555, Control_c, 0, 64, 76
2, 66559, Note_on_c, 0, 40, 46
2, 66569, Control_c, 0, 64, 67
2, 66593, Control_c, 0, 64, 0
2, 66669, Control_c, 0, 64, 58
2, 66675, Note_on_c, 0, 55, 0
2, 66684, Control_c, 0, 64, 65
2, 66699, Control_c, 0, 64, 68
2, 66714, Control_c, 0, 64, 69
2, 66729, Control_c, 0, 64, 71
2, 66745, Control_c, 0, 64, 73
2, 66760, Control_c, 0, 64, 75
2, 66774, Control_c, 0, 64, 76
2, 66777, Note_on_c, 0, 64, 53
2, 66840, Note_on_c, 0, 64, 0
2, 66845, Note_on_c, 0, 66, 68
2, 66896, Control_c, 0, 64, 75
2, 66911, Control_c, 0, 64, 74
2, 66926, Control_c, 0, 64, 72
2, 66942, Control_c, 0, 64, 67
2, 66944, Note_on_c, 0, 66, 0
2, 66945, Note_on_c, 0, 67, 66
2, 66954, Note_on_c, 0, 40, 0
2, 66957, Control_c, 0, 64, 47
2, 66957, Note_on_c, 0, 52, 56
2, 66973, Control_c, 0, 64, 0
2, 67027, Note_on_c, 0, 66, 68
2, 67040, Note_on_c, 0, 67, 0
2, 67128, Note_on_c, 0, 64, 69
2, 67174, Note_on_c, 0, 66, 0
2, 67306, Note_on_c, 0, 54, 58
2, 67406, Note_on_c, 0, 52, 0
2, 67503, Note_on_c, 0, 71, 67
2, 67616, Note_on_c, 0, 64, 0
2, 67682, Note_on_c, 0, 56, 61
2, 67752, Note_on_c, 0, 54, 0
2, 67859, Note_on_c, 0, 62, 63
2, 67903, Note_on_c, 0, 71, 0
2, 68048, Note_on_c, 0, 57, 57
2, 68073, Note_on_c, 0, 56, 0
2, 68221, Note_on_c, 0, 62, 0
2, 68230, Note_on_c, 0, 64, 55
2, 68322, Note_on_c, 0, 62, 62
2, 68327, Note_on_c, 0, 64, 0
2, 68403, Note_on_c, 0, 62, 0
2, 68408, Note_on_c, 0, 61, 65
2, 68419, Note_on_c, 0, 45, 46
2, 68480, Note_on_c, 0, 61, 0
2, 68485, Note_on_c, 0, 62, 66
2, 68513, Note_on_c, 0, 57, 0
2, 68590, Note_on_c, 0, 64, 59
2, 68623, Note_on_c, 0, 62, 0
2, 68779, Note_on_c, 0, 47, 54
2, 68847, Note_on_c, 0, 45, 0
2, 68971, Note_on_c, 0, 55, 57
2, 68984, Note_on_c, 0, 64, 0
2, 69140, Note_on_c, 0, 47, 0
2, 69149, Note_on_c, 0, 49, 53
2, 69186, Control_c, 0, 64, 54
2, 69201, Control_c, 0, 64, 64
2, 69217, Control_c, 0, 64, 67
2, 69231, Control_c, 0, 64, 69
2, 69246, Control_c, 0, 64, 71
2, 69262, Control_c, 0, 64, 74
2, 69276, Control_c, 0, 64, 76
2, 69291, Control_c, 0, 64, 78
2, 69299, Note_on_c, 0, 49, 0
2, 69307, Control_c, 0, 64, 79
2, 69322, Control_c, 0, 64, 80
2, 69329, Note_on_c, 0, 64, 52
2, 69338, Control_c, 0, 64, 80
2, 69352, Control_c, 0, 64, 81
2, 69354, Note_on_c, 0, 55, 0
2, 69383, Control_c, 0, 64, 81
2, 69505, Control_c, 0, 64, 81
2, 69530, Note_on_c, 0, 54, 54
2, 69536, Control_c, 0, 64, 80
2, 69551, Control_c, 0, 64, 78
2, 69554, Note_on_c, 0, 64, 0
2, 69557, Note_on_c, 0, 38, 46
2, 69566, Control_c, 0, 64, 74
2, 69581, Control_c, 0, 64, 66
2, 69596, Control_c, 0, 64, 0
2, 69732, Note_on_c, 0, 61, 57
2, 69748, Note_on_c, 0, 54, 0
2, 69907, Note_on_c, 0, 42, 56
2, 70069, Note_on_c, 0, 38, 0
2, 70073, Note_on_c, 0, 64, 64
2, 70132, Note_on_c, 0, 61, 0
2, 70254, Note_on_c, 0, 45, 61
2, 70339, Note_on_c, 0, 42, 0
2, 70419, Note_on_c, 0, 64, 0
2, 70433, Note_on_c, 0, 62, 56
2, 70504, Note_on_c, 0, 62, 0
2, 70507, Note_on_c, 0, 61, 63
2, 70593, Note_on_c, 0, 61, 0
2, 70598, Note_on_c, 0, 45, 0
2, 70598, Note_on_c, 0, 50, 58
2, 70599, Note_on_c, 0, 62, 59
2, 70664, Note_on_c, 0, 61, 65
2, 70689, Note_on_c, 0, 62, 0
2, 70749, Note_on_c, 0, 61, 0
2, 70760, Note_on_c, 0, 59, 66
2, 70830, Note_on_c, 0, 59, 0
2, 70835, Note_on_c, 0, 58, 66
2, 70919, Note_on_c, 0, 58, 0
2, 70938, Note_on_c, 0, 59, 69
2, 70941, Note_on_c, 0, 43, 58
2, 70999, Note_on_c, 0, 50, 0
2, 71088, Note_on_c, 0, 59, 0
2, 71143, Note_on_c, 0, 66, 67
2, 71320, Note_on_c, 0, 47, 62
2, 71434, Note_on_c, 0, 43, 0
2, 71494, Note_on_c, 0, 69, 70
2, 71593, Note_on_c, 0, 66, 0
2, 71667, Note_on_c, 0, 50, 64
2, 71717, Note_on_c, 0, 47, 0
2, 71836, Note_on_c, 0, 67, 64
2, 71839, Note_on_c, 0, 69, 0
2, 71913, Note_on_c, 0, 66, 73
2, 71914, Note_on_c, 0, 67, 0
2, 71994, Note_on_c, 0, 50, 0
2, 72004, Note_on_c, 0, 55, 58
2, 72010, Note_on_c, 0, 66, 0
2, 72013, Note_on_c, 0, 67, 67
2, 72079, Note_on_c, 0, 66, 73
2, 72102, Note_on_c, 0, 67, 0
2, 72169, Note_on_c, 0, 64, 70
2, 72183, Note_on_c, 0, 66, 0
2, 72240, Note_on_c, 0, 62, 72
2, 72241, Note_on_c, 0, 64, 0
2, 72343, Note_on_c, 0, 49, 58
2, 72344, Note_on_c, 0, 55, 0
2, 72356, Note_on_c, 0, 64, 67
2, 72393, Control_c, 0, 64, 52
2, 72395, Note_on_c, 0, 62, 0
2, 72408, Control_c, 0, 64, 63
2, 72424, Control_c, 0, 64, 65
2, 72439, Control_c, 0, 64, 67
2, 72450, Note_on_c, 0, 64, 0
2, 72453, Control_c, 0, 64, 69
2, 72469, Control_c, 0, 64, 71
2, 72484, Control_c, 0, 64, 74
2, 72500, Control_c, 0, 64, 77
2, 72515, Control_c, 0, 64, 77
2, 72552, Note_on_c, 0, 71, 68
2, 72606, Control_c, 0, 64, 77
2, 72622, Control_c, 0, 64, 76
2, 72637, Control_c, 0, 64, 74
2, 72651, Control_c, 0, 64, 68
2, 72667, Control_c, 0, 64, 56
2, 72682, Control_c, 0, 64, 0
2, 72717, Note_on_c, 0, 52, 72
2, 72760, Note_on_c, 0, 49, 0
2, 72919, Note_on_c, 0, 74, 74
2, 73014, Note_on_c, 0, 71, 0
2, 73079, Note_on_c, 0, 55, 68
2, 73115, Note_on_c, 0, 52, 0
2, 73252, Note_on_c, 0, 73, 67
2, 73265, Note_on_c, 0, 74, 0
2, 73328, Note_on_c, 0, 71, 71
2, 73333, Note_on_c, 0, 73, 0
2, 73408, Note_on_c, 0, 55, 0
2, 73416, Note_on_c, 0, 73, 73
2, 73423, Note_on_c, 0, 61, 65
2, 73423, Note_on_c, 0, 71, 0
2, 73498, Note_on_c, 0, 71, 71
2, 73528, Note_on_c, 0, 73, 0
2, 73591, Note_on_c, 0, 70, 79
2, 73598, Note_on_c, 0, 71, 0
2, 73669, Note_on_c, 0, 68, 75
2, 73672, Note_on_c, 0, 70, 0
2, 73774, Note_on_c, 0, 61, 0
2, 73775, Note_on_c, 0, 54, 57
2, 73777, Note_on_c, 0, 70, 76
2, 73812, Note_on_c, 0, 68, 0
2, 73867, Control_c, 0, 64, 20
2, 73875, Note_on_c, 0, 70, 0
2, 73882, Control_c, 0, 64, 50
2, 73897, Control_c, 0, 64, 57
2, 73913, Control_c, 0, 64, 61
2, 73927, Control_c, 0, 64, 63
2, 73943, Control_c, 0, 64, 65
2, 73958, Control_c, 0, 64, 66
2, 73973, Control_c, 0, 64, 67
2, 73977, Note_on_c, 0, 76, 75
2, 73988, Control_c, 0, 64, 69
2, 74003, Control_c, 0, 64, 70
2, 74018, Control_c, 0, 64, 71
2, 74034, Control_c, 0, 64, 72
2, 74125, Control_c, 0, 64, 71
2, 74139, Control_c, 0, 64, 70
2, 74150, Note_on_c, 0, 58, 69
2, 74155, Control_c, 0, 64, 65
2, 74170, Control_c, 0, 64, 52
2, 74186, Control_c, 0, 64, 0
2, 74236, Note_on_c, 0, 54, 0
2, 74357, Note_on_c, 0, 79, 81
2, 74464, Note_on_c, 0, 76, 0
2, 74529, Note_on_c, 0, 61, 68
2, 74583, Note_on_c, 0, 58, 0
2, 74700, Note_on_c, 0, 78, 68
2, 74736, Note_on_c, 0, 79, 0
2, 74781, Note_on_c, 0, 76, 75
2, 74789, Note_on_c, 0, 78, 0
2, 74873, Note_on_c, 0, 66, 62
2, 74873, Note_on_c, 0, 76, 0
2, 74876, Note_on_c, 0, 78, 78
2, 74899, Note_on_c, 0, 61, 0
2, 74947, Note_on_c, 0, 76, 74
2, 74984, Note_on_c, 0, 78, 0
2, 75023, Note_on_c, 0, 76, 0
2, 75046, Note_on_c, 0, 74, 71
2, 75123, Note_on_c, 0, 73, 75
2, 75135, Note_on_c, 0, 74, 0
2, 75249, Note_on_c, 0, 74, 76
2, 75261, Note_on_c, 0, 59, 56
2, 75284, Note_on_c, 0, 73, 0
2, 75295, Note_on_c, 0, 66, 0
2, 75394, Note_on_c, 0, 74, 0
2, 75480, Note_on_c, 0, 70, 72
2, 75660, Note_on_c, 0, 67, 69
2, 75693, Note_on_c, 0, 59, 0
2, 75839, Note_on_c, 0, 71, 69
2, 75846, Note_on_c, 0, 70, 0
2, 76023, Note_on_c, 0, 73, 69
2, 76029, Note_on_c, 0, 57, 46
2, 76041, Note_on_c, 0, 71, 0
2, 76051, Note_on_c, 0, 67, 0
2, 76145, Note_on_c, 0, 57, 0
2, 76193, Note_on_c, 0, 67, 58
2, 76200, Note_on_c, 0, 75, 72
2, 76214, Note_on_c, 0, 73, 0
2, 76363, Note_on_c, 0, 75, 0
2, 76365, Note_on_c, 0, 76, 69
2, 76374, Note_on_c, 0, 66, 60
2, 76427, Note_on_c, 0, 67, 0
2, 76443, Note_on_c, 0, 75, 70
2, 76459, Control_c, 0, 64, 41
2, 76472, Note_on_c, 0, 76, 0
2, 76475, Control_c, 0, 64, 58
2, 76490, Control_c, 0, 64, 61
2, 76506, Control_c, 0, 64, 63
2, 76520, Control_c, 0, 64, 65
2, 76527, Note_on_c, 0, 73, 76
2, 76527, Note_on_c, 0, 75, 0
2, 76531, Note_on_c, 0, 57, 52
2, 76535, Control_c, 0, 64, 66
2, 76548, Note_on_c, 0, 66, 0
2, 76551, Control_c, 0, 64, 67
2, 76573, Control_c, 0, 64, 68
2, 76588, Note_on_c, 0, 57, 0
2, 76589, Control_c, 0, 64, 68
2, 76608, Note_on_c, 0, 75, 72
2, 76640, Note_on_c, 0, 73, 0
2, 76680, Control_c, 0, 64, 68
2, 76711, Control_c, 0, 64, 67
2, 76725, Control_c, 0, 64, 66
2, 76728, Note_on_c, 0, 76, 71
2, 76740, Control_c, 0, 64, 64
2, 76745, Note_on_c, 0, 55, 56
2, 76751, Note_on_c, 0, 75, 0
2, 76756, Control_c, 0, 64, 61
2, 76771, Control_c, 0, 64, 56
2, 76787, Control_c, 0, 64, 51
2, 76802, Control_c, 0, 64, 43
2, 76818, Control_c, 0, 64, 24
2, 76833, Control_c, 0, 64, 0
2, 76846, Note_on_c, 0, 76, 0
2, 76929, Note_on_c, 0, 70, 66
2, 77120, Note_on_c, 0, 64, 54
2, 77183, Control_c, 0, 64, 20
2, 77198, Control_c, 0, 64, 55
2, 77201, Note_on_c, 0, 55, 0
2, 77213, Control_c, 0, 64, 61
2, 77228, Control_c, 0, 64, 63
2, 77243, Control_c, 0, 64, 64
2, 77258, Control_c, 0, 64, 65
2, 77274, Control_c, 0, 64, 66
2, 77288, Control_c, 0, 64, 68
2, 77289, Note_on_c, 0, 71, 59
2, 77304, Control_c, 0, 64, 70
2, 77319, Control_c, 0, 64, 71
2, 77343, Control_c, 0, 64, 72
2, 77344, Note_on_c, 0, 70, 0
2, 77358, Control_c, 0, 64, 73
2, 77372, Control_c, 0, 64, 73
2, 77403, Control_c, 0, 64, 74
2, 77427, Note_on_c, 0, 71, 0
2, 77448, Control_c, 0, 64, 73
2, 77479, Control_c, 0, 64, 73
2, 77482, Note_on_c, 0, 74, 59
2, 77485, Note_on_c, 0, 54, 44
2, 77493, Control_c, 0, 64, 72
2, 77505, Note_on_c, 0, 64, 0
2, 77509, Control_c, 0, 64, 71
2, 77524, Control_c, 0, 64, 70
2, 77539, Control_c, 0, 64, 67
2, 77555, Control_c, 0, 64, 63
2, 77569, Control_c, 0, 64, 58
2, 77576, Note_on_c, 0, 74, 0
2, 77585, Control_c, 0, 64, 54
2, 77600, Control_c, 0, 64, 50
2, 77615, Control_c, 0, 64, 46
2, 77631, Control_c, 0, 64, 35
2, 77646, Control_c, 0, 64, 0
2, 77673, Note_on_c, 0, 70, 66
2, 77676, Note_on_c, 0, 64, 49
2, 77696, Note_on_c, 0, 54, 0
2, 77851, Note_on_c, 0, 62, 65
2, 77864, Note_on_c, 0, 64, 0
2, 77874, Control_c, 0, 64, 42
2, 77889, Control_c, 0, 64, 61
2, 77905, Control_c, 0, 64, 64
2, 77920, Control_c, 0, 64, 66
2, 77934, Control_c, 0, 64, 67
2, 77950, Control_c, 0, 64, 69
2, 77965, Control_c, 0, 64, 70
2, 77980, Control_c, 0, 64, 72
2, 77996, Control_c, 0, 64, 73
2, 78010, Control_c, 0, 64, 75
2, 78024, Note_on_c, 0, 62, 0
2, 78026, Control_c, 0, 64, 76
2, 78029, Note_on_c, 0, 54, 53
2, 78033, Note_on_c, 0, 70, 0
2, 78039, Note_on_c, 0, 71, 69
2, 78041, Control_c, 0, 64, 78
2, 78055, Control_c, 0, 64, 78
2, 78071, Control_c, 0, 64, 79
2, 78086, Control_c, 0, 64, 79
2, 78123, Note_on_c, 0, 71, 0
2, 78127, Note_on_c, 0, 54, 0
2, 78170, Control_c, 0, 64, 80
2, 78259, Note_on_c, 0, 79, 69
2, 78260, Control_c, 0, 64, 79
2, 78267, Note_on_c, 0, 52, 55
2, 78291, Control_c, 0, 64, 79
2, 78307, Control_c, 0, 64, 77
2, 78322, Control_c, 0, 64, 73
2, 78337, Control_c, 0, 64, 63
2, 78350, Note_on_c, 0, 78, 77
2, 78353, Control_c, 0, 64, 0
2, 78391, Note_on_c, 0, 79, 0
2, 78454, Note_on_c, 0, 62, 59
2, 78456, Note_on_c, 0, 76, 78
2, 78475, Control_c, 0, 64, 60
2, 78490, Control_c, 0, 64, 65
2, 78494, Note_on_c, 0, 78, 0
2, 78506, Control_c, 0, 64, 67
2, 78521, Control_c, 0, 64, 68
2, 78523, Note_on_c, 0, 52, 0
2, 78535, Control_c, 0, 64, 72
2, 78551, Control_c, 0, 64, 76
2, 78566, Control_c, 0, 64, 81
2, 78581, Control_c, 0, 64, 83
2, 78597, Control_c, 0, 64, 84
2, 78612, Control_c, 0, 64, 84
2, 78628, Control_c, 0, 64, 85
2, 78628, Note_on_c, 0, 76, 0
2, 78631, Note_on_c, 0, 60, 71
2, 78657, Control_c, 0, 64, 86
2, 78673, Control_c, 0, 64, 86
2, 78680, Note_on_c, 0, 62, 0
2, 78688, Control_c, 0, 64, 87
2, 78733, Control_c, 0, 64, 87
2, 78809, Control_c, 0, 64, 88
2, 78813, Note_on_c, 0, 52, 61
2, 78814, Note_on_c, 0, 76, 81
2, 78832, Note_on_c, 0, 60, 0
2, 78886, Note_on_c, 0, 52, 0
2, 79004, Note_on_c, 0, 50, 63
2, 79045, Control_c, 0, 64, 86
2, 79059, Control_c, 0, 64, 84
2, 79075, Control_c, 0, 64, 76
2, 79083, Note_on_c, 0, 76, 0
2, 79086, Note_on_c, 0, 78, 69
2, 79090, Control_c, 0, 64, 63
2, 79105, Control_c, 0, 64, 0
2, 79166, Note_on_c, 0, 60, 54
2, 79180, Control_c, 0, 64, 55
2, 79189, Note_on_c, 0, 76, 67
2, 79196, Control_c, 0, 64, 67
2, 79211, Control_c, 0, 64, 73
2, 79227, Control_c, 0, 64, 80
2, 79242, Control_c, 0, 64, 83
2, 79248, Note_on_c, 0, 50, 0
2, 79258, Control_c, 0, 64, 85
2, 79266, Note_on_c, 0, 78, 0
2, 79274, Control_c, 0, 64, 87
2, 79275, Note_on_c, 0, 75, 74
2, 79277, Note_on_c, 0, 76, 0
2, 79288, Control_c, 0, 64, 90
2, 79304, Control_c, 0, 64, 94
2, 79319, Control_c, 0, 64, 96
2, 79333, Control_c, 0, 64, 97
2, 79343, Note_on_c, 0, 59, 61
2, 79349, Control_c, 0, 64, 97
2, 79360, Note_on_c, 0, 76, 81
2, 79364, Control_c, 0, 64, 98
2, 79367, Note_on_c, 0, 75, 0
2, 79379, Control_c, 0, 64, 98
2, 79383, Note_on_c, 0, 60, 0
2, 79418, Note_on_c, 0, 76, 0
2, 79567, Note_on_c, 0, 76, 77
2, 79578, Note_on_c, 0, 50, 52
2, 79585, Note_on_c, 0, 59, 0
2, 79616, Note_on_c, 0, 50, 0
2, 79645, Control_c, 0, 64, 99
2, 79767, Note_on_c, 0, 49, 62
2, 79798, Control_c, 0, 64, 98
2, 79813, Control_c, 0, 64, 97
2, 79828, Control_c, 0, 64, 94
2, 79829, Note_on_c, 0, 69, 66
2, 79843, Control_c, 0, 64, 89
2, 79858, Control_c, 0, 64, 81
2, 79874, Control_c, 0, 64, 70
2, 79890, Control_c, 0, 64, 50
2, 79905, Control_c, 0, 64, 0
2, 79917, Note_on_c, 0, 76, 0
2, 79920, Note_on_c, 0, 69, 0
2, 79936, Note_on_c, 0, 67, 71
2, 79946, Note_on_c, 0, 59, 61
2, 79955, Note_on_c, 0, 49, 0
2, 80029, Note_on_c, 0, 66, 76
2, 80031, Note_on_c, 0, 67, 0
2, 80133, Note_on_c, 0, 67, 80
2, 80140, Note_on_c, 0, 66, 0
2, 80152, Note_on_c, 0, 58, 63
2, 80214, Note_on_c, 0, 59, 0
2, 80398, Note_on_c, 0, 58, 0
2, 80402, Note_on_c, 0, 76, 79
2, 80418, Note_on_c, 0, 49, 54
2, 80455, Note_on_c, 0, 67, 0
2, 80601, Note_on_c, 0, 49, 0
2, 80620, Note_on_c, 0, 47, 66
2, 80881, Note_on_c, 0, 67, 74
2, 80891, Note_on_c, 0, 64, 63
2, 80897, Note_on_c, 0, 58, 57
2, 80958, Note_on_c, 0, 47, 0
2, 80969, Note_on_c, 0, 76, 0
2, 81178, Note_on_c, 0, 59, 63
2, 81221, Note_on_c, 0, 58, 0
2, 81275, Note_on_c, 0, 64, 0
2, 81300, Note_on_c, 0, 67, 0
2, 81319, Control_c, 0, 64, 36
2, 81334, Control_c, 0, 64, 62
2, 81350, Control_c, 0, 64, 66
2, 81364, Control_c, 0, 64, 68
2, 81379, Control_c, 0, 64, 72
2, 81395, Control_c, 0, 64, 74
2, 81410, Control_c, 0, 64, 77
2, 81426, Control_c, 0, 64, 78
2, 81440, Control_c, 0, 64, 80
2, 81455, Control_c, 0, 64, 80
2, 81471, Control_c, 0, 64, 81
2, 81486, Control_c, 0, 64, 82
2, 81517, Control_c, 0, 64, 82
2, 81548, Note_on_c, 0, 67, 66
2, 81560, Note_on_c, 0, 64, 50
2, 81562, Note_on_c, 0, 47, 51
2, 81577, Control_c, 0, 64, 81
2, 81593, Control_c, 0, 64, 78
2, 81608, Control_c, 0, 64, 68
2, 81624, Control_c, 0, 64, 0
2, 81684, Control_c, 0, 64, 48
2, 81699, Control_c, 0, 64, 65
2, 81716, Control_c, 0, 64, 71
2, 81730, Control_c, 0, 64, 76
2, 81743, Note_on_c, 0, 47, 0
2, 81746, Control_c, 0, 64, 80
2, 81761, Control_c, 0, 64, 82
2, 81776, Control_c, 0, 64, 84
2, 81777, Note_on_c, 0, 59, 0
2, 81791, Control_c, 0, 64, 85
2, 81806, Control_c, 0, 64, 87
2, 81821, Control_c, 0, 64, 88
2, 81835, Control_c, 0, 64, 89
2, 81850, Control_c, 0, 64, 90
2, 81864, Control_c, 0, 64, 90
2, 81880, Control_c, 0, 64, 91
2, 82002, Note_on_c, 0, 46, 45
2, 82024, Control_c, 0, 64, 90
2, 82040, Control_c, 0, 64, 89
2, 82055, Control_c, 0, 64, 86
2, 82071, Control_c, 0, 64, 81
2, 82085, Control_c, 0, 64, 73
2, 82100, Control_c, 0, 64, 62
2, 82116, Control_c, 0, 64, 0
2, 82472, Note_on_c, 0, 66, 52
2, 82482, Note_on_c, 0, 67, 0
2, 82717, Note_on_c, 0, 66, 0
2, 82753, Note_on_c, 0, 74, 47
2, 82852, Control_c, 0, 64, 53
2, 82867, Control_c, 0, 64, 64
2, 82880, Note_on_c, 0, 74, 0
2, 82883, Control_c, 0, 64, 66
2, 82898, Control_c, 0, 64, 68
2, 82914, Control_c, 0, 64, 70
2, 82928, Control_c, 0, 64, 74
2, 82943, Control_c, 0, 64, 78
2, 82960, Control_c, 0, 64, 81
2, 82974, Control_c, 0, 64, 82
2, 82990, Control_c, 0, 64, 83
2, 83005, Control_c, 0, 64, 84
2, 83020, Control_c, 0, 64, 85
2, 83036, Control_c, 0, 64, 85
2, 83050, Control_c, 0, 64, 86
2, 83112, Control_c, 0, 64, 86
2, 83219, Note_on_c, 0, 74, 50
2, 83233, Control_c, 0, 64, 86
2, 83248, Control_c, 0, 64, 84
2, 83263, Control_c, 0, 64, 81
2, 83279, Control_c, 0, 64, 75
2, 83294, Control_c, 0, 64, 65
2, 83310, Control_c, 0, 64, 0
2, 83416, Control_c, 0, 64, 53
2, 83432, Control_c, 0, 64, 62
2, 83447, Control_c, 0, 64, 64
2, 83462, Control_c, 0, 64, 66
2, 83484, Control_c, 0, 64, 69
2, 83499, Control_c, 0, 64, 72
2, 83515, Control_c, 0, 64, 75
2, 83530, Control_c, 0, 64, 78
2, 83545, Control_c, 0, 64, 79
2, 83560, Control_c, 0, 64, 80
2, 83575, Control_c, 0, 64, 81
2, 83591, Control_c, 0, 64, 81
2, 83606, Control_c, 0, 64, 82
2, 83621, Control_c, 0, 64, 82
2, 83637, Control_c, 0, 64, 83
2, 83651, Control_c, 0, 64, 84
2, 83666, Control_c, 0, 64, 84
2, 83697, Control_c, 0, 64, 85
2, 83742, Control_c, 0, 64, 85
2, 83759, Note_on_c, 0, 74, 0
2, 83863, Control_c, 0, 64, 86
2, 84137, Control_c, 0, 64, 85
2, 84168, Control_c, 0, 64, 85
2, 84171, Note_on_c, 0, 73, 48
2, 84183, Control_c, 0, 64, 83
2, 84199, Control_c, 0, 64, 81
2, 84214, Control_c, 0, 64, 77
2, 84230, Control_c, 0, 64, 70
2, 84251, Control_c, 0, 64, 61
2, 84266, Control_c, 0, 64, 0
2, 85253, Note_on_c, 0, 73, 0
2, 85262, Note_on_c, 0, 64, 0
2, 85272, Note_on_c, 0, 46, 0
2, 85841, Note_on_c, 0, 64, 37
2, 85907, Note_on_c, 0, 64, 0
2, 85923, Note_on_c, 0, 66, 48
2, 85999, Note_on_c, 0, 66, 0
2, 86003, Note_on_c, 0, 67, 53
2, 86014, Note_on_c, 0, 58, 42
2, 86091, Note_on_c, 0, 66, 58
2, 86115, Note_on_c, 0, 67, 0
2, 86202, Note_on_c, 0, 64, 55
2, 86256, Note_on_c, 0, 66, 0
2, 86352, Note_on_c, 0, 64, 0
2, 86379, Note_on_c, 0, 62, 57
2, 86390, Note_on_c, 0, 59, 43
2, 86421, Note_on_c, 0, 58, 0
2, 86568, Note_on_c, 0, 66, 59
2, 86672, Note_on_c, 0, 62, 0
2, 86734, Note_on_c, 0, 55, 48
2, 86751, Note_on_c, 0, 70, 62
2, 86819, Note_on_c, 0, 66, 0
2, 86839, Note_on_c, 0, 59, 0
2, 86923, Note_on_c, 0, 71, 60
2, 86954, Note_on_c, 0, 70, 0
2, 87106, Note_on_c, 0, 52, 44
2, 87115, Note_on_c, 0, 74, 53
2, 87125, Note_on_c, 0, 71, 0
2, 87127, Note_on_c, 0, 55, 0
2, 87289, Note_on_c, 0, 73, 58
2, 87359, Note_on_c, 0, 74, 0
2, 87463, Note_on_c, 0, 52, 0
2, 87473, Note_on_c, 0, 54, 48
2, 87475, Note_on_c, 0, 71, 60
2, 87583, Note_on_c, 0, 73, 0
2, 87650, Note_on_c, 0, 70, 61
2, 87683, Note_on_c, 0, 71, 0
2, 87805, Note_on_c, 0, 54, 0
2, 87830, Note_on_c, 0, 50, 43
2, 87834, Note_on_c, 0, 71, 57
2, 87847, Note_on_c, 0, 70, 0
2, 88001, Note_on_c, 0, 50, 0
2, 88007, Note_on_c, 0, 54, 51
2, 88186, Note_on_c, 0, 66, 60
2, 88197, Note_on_c, 0, 47, 56
2, 88227, Note_on_c, 0, 71, 0
2, 88236, Note_on_c, 0, 54, 0
2, 88360, Note_on_c, 0, 49, 57
2, 88379, Note_on_c, 0, 66, 0
2, 88409, Note_on_c, 0, 47, 0
2, 88521, Note_on_c, 0, 67, 63
2, 88529, Note_on_c, 0, 49, 0
2, 88535, Note_on_c, 0, 50, 53
2, 88599, Note_on_c, 0, 67, 0
2, 88602, Note_on_c, 0, 66, 64
2, 88668, Note_on_c, 0, 66, 0
2, 88676, Note_on_c, 0, 65, 65
2, 88694, Note_on_c, 0, 54, 52
2, 88714, Note_on_c, 0, 50, 0
2, 88755, Note_on_c, 0, 66, 65
2, 88770, Note_on_c, 0, 65, 0
2, 88871, Note_on_c, 0, 66, 0
2, 88879, Note_on_c, 0, 74, 58
2, 88881, Note_on_c, 0, 47, 52
2, 88923, Note_on_c, 0, 54, 0
2, 89036, Note_on_c, 0, 47, 0
2, 89047, Note_on_c, 0, 50, 57
2, 89222, Note_on_c, 0, 49, 64
2, 89223, Note_on_c, 0, 50, 0
2, 89228, Note_on_c, 0, 74, 0
2, 89397, Note_on_c, 0, 54, 63
2, 89423, Note_on_c, 0, 49, 0
2, 89555, Note_on_c, 0, 54, 0
2, 89563, Note_on_c, 0, 66, 67
2, 89570, Note_on_c, 0, 55, 64
2, 89652, Note_on_c, 0, 55, 0
2, 89655, Note_on_c, 0, 54, 59
2, 89717, Note_on_c, 0, 54, 0
2, 89720, Note_on_c, 0, 53, 70
2, 89760, Note_on_c, 0, 66, 0
2, 89809, Note_on_c, 0, 53, 0
2, 89811, Note_on_c, 0, 54, 71
2, 89903, Note_on_c, 0, 54, 0
2, 89906, Note_on_c, 0, 58, 70
2, 89915, Note_on_c, 0, 67, 66
2, 89994, Note_on_c, 0, 66, 72
2, 90010, Note_on_c, 0, 67, 0
2, 90072, Note_on_c, 0, 66, 0
2, 90073, Note_on_c, 0, 65, 75
2, 90078, Note_on_c, 0, 54, 64
2, 90110, Note_on_c, 0, 58, 0
2, 90144, Note_on_c, 0, 66, 78
2, 90168, Note_on_c, 0, 65, 0
2, 90218, Note_on_c, 0, 66, 0
2, 90267, Note_on_c, 0, 61, 62
2, 90272, Note_on_c, 0, 76, 72
2, 90283, Note_on_c, 0, 54, 0
2, 90449, Note_on_c, 0, 52, 68
2, 90483, Note_on_c, 0, 61, 0
2, 90625, Note_on_c, 0, 50, 70
2, 90649, Note_on_c, 0, 52, 0
2, 90650, Note_on_c, 0, 76, 0
2, 90800, Note_on_c, 0, 54, 69
2, 90803, Note_on_c, 0, 50, 0
2, 90974, Note_on_c, 0, 66, 77
2, 90981, Note_on_c, 0, 47, 63
2, 91046, Note_on_c, 0, 54, 0
2, 91158, Note_on_c, 0, 49, 73
2, 91196, Note_on_c, 0, 47, 0
2, 91209, Note_on_c, 0, 66, 0
2, 91320, Note_on_c, 0, 50, 72
2, 91322, Note_on_c, 0, 67, 77
2, 91324, Note_on_c, 0, 49, 0
2, 91411, Note_on_c, 0, 66, 77
2, 91411, Note_on_c, 0, 67, 0
2, 91486, Note_on_c, 0, 54, 64
2, 91487, Note_on_c, 0, 66, 0
2, 91493, Note_on_c, 0, 65, 78
2, 91530, Note_on_c, 0, 50, 0
2, 91564, Note_on_c, 0, 66, 79
2, 91581, Note_on_c, 0, 65, 0
2, 91613, Note_on_c, 0, 66, 0
2, 91657, Note_on_c, 0, 54, 0
2, 91692, Note_on_c, 0, 47, 76
2, 91693, Note_on_c, 0, 78, 87
2, 91711, Control_c, 0, 64, 64
2, 91726, Control_c, 0, 64, 70
2, 91741, Control_c, 0, 64, 75
2, 91757, Control_c, 0, 64, 80
2, 91772, Control_c, 0, 64, 82
2, 91787, Control_c, 0, 64, 86
2, 91803, Control_c, 0, 64, 89
2, 91817, Control_c, 0, 64, 92
2, 91833, Control_c, 0, 64, 95
2, 91848, Control_c, 0, 64, 98
2, 91863, Control_c, 0, 64, 101
2, 91879, Control_c, 0, 64, 105
2, 91893, Control_c, 0, 64, 108
2, 91908, Control_c, 0, 64, 111
2, 91931, Control_c, 0, 64, 113
2, 91936, Note_on_c, 0, 69, 88
2, 91939, Note_on_c, 0, 49, 78
2, 91946, Control_c, 0, 64, 116
2, 91960, Note_on_c, 0, 47, 0
2, 91962, Control_c, 0, 64, 119
2, 91968, Note_on_c, 0, 78, 0
2, 91976, Control_c, 0, 64, 123
2, 91979, Note_on_c, 0, 69, 0
2, 91992, Control_c, 0, 64, 127
2, 92007, Control_c, 0, 64, 127
2, 92246, Note_on_c, 0, 64, 73
2, 92246, Note_on_c, 0, 69, 82
2, 92251, Note_on_c, 0, 59, 79
2, 92252, Note_on_c, 0, 50, 78
2, 92261, Note_on_c, 0, 49, 0
2, 92265, Control_c, 0, 64, 115
2, 92281, Control_c, 0, 64, 103
2, 92296, Control_c, 0, 64, 91
2, 92311, Control_c, 0, 64, 78
2, 92326, Control_c, 0, 64, 64
2, 92341, Control_c, 0, 64, 0
2, 92786, Note_on_c, 0, 68, 77
2, 92790, Note_on_c, 0, 38, 76
2, 92845, Note_on_c, 0, 69, 0
2, 92864, Note_on_c, 0, 50, 0
2, 93200, Note_on_c, 0, 59, 0
2, 93218, Note_on_c, 0, 64, 0
2, 93241, Note_on_c, 0, 68, 0
2, 93254, Note_on_c, 0, 38, 0
2, 93465, Note_on_c, 0, 68, 80
2, 93548, Note_on_c, 0, 70, 78
2, 93563, Note_on_c, 0, 68, 0
2, 93608, Note_on_c, 0, 70, 0
2, 93649, Note_on_c, 0, 50, 77
2, 93649, Note_on_c, 0, 71, 85
2, 93697, Control_c, 0, 64, 62
2, 93713, Control_c, 0, 64, 67
2, 93728, Control_c, 0, 64, 70
2, 93739, Note_on_c, 0, 73, 81
2, 93742, Control_c, 0, 64, 73
2, 93755, Note_on_c, 0, 71, 0
2, 93758, Control_c, 0, 64, 79
2, 93773, Control_c, 0, 64, 84
2, 93789, Control_c, 0, 64, 87
2, 93804, Control_c, 0, 64, 90
2, 93819, Control_c, 0, 64, 93
2, 93834, Note_on_c, 0, 74, 80
2, 93835, Control_c, 0, 64, 96
2, 93849, Control_c, 0, 64, 99
2, 93854, Note_on_c, 0, 73, 0
2, 93865, Control_c, 0, 64, 102
2, 93880, Control_c, 0, 64, 105
2, 93884, Note_on_c, 0, 50, 0
2, 93895, Control_c, 0, 64, 108
2, 93911, Control_c, 0, 64, 110
2, 93925, Control_c, 0, 64, 113
2, 93931, Note_on_c, 0, 76, 83
2, 93940, Control_c, 0, 64, 115
2, 93956, Control_c, 0, 64, 117
2, 93962, Note_on_c, 0, 74, 0
2, 93971, Control_c, 0, 64, 118
2, 93986, Control_c, 0, 64, 118
2, 93988, Note_on_c, 0, 76, 0
2, 94003, Control_c, 0, 64, 120
2, 94018, Control_c, 0, 64, 122
2, 94033, Control_c, 0, 64, 126
2, 94048, Control_c, 0, 64, 127
2, 94121, Note_on_c, 0, 71, 85
2, 94123, Note_on_c, 0, 49, 82
2, 94123, Note_on_c, 0, 64, 82
2, 94123, Note_on_c, 0, 67, 81
2, 94124, Control_c, 0, 64, 122
2, 94139, Control_c, 0, 64, 108
2, 94154, Control_c, 0, 64, 95
2, 94169, Control_c, 0, 64, 81
2, 94185, Control_c, 0, 64, 67
2, 94200, Control_c, 0, 64, 0
2, 94665, Note_on_c, 0, 70, 79
2, 94666, Note_on_c, 0, 61, 77
2, 94706, Note_on_c, 0, 71, 0
2, 94976, Note_on_c, 0, 64, 0
2, 94988, Note_on_c, 0, 67, 0
2, 94991, Note_on_c, 0, 49, 0
2, 95022, Note_on_c, 0, 70, 0
2, 95025, Note_on_c, 0, 61, 0
2, 95279, Note_on_c, 0, 61, 72
2, 95291, Note_on_c, 0, 70, 78
2, 95374, Note_on_c, 0, 62, 79
2, 95381, Note_on_c, 0, 71, 79
2, 95394, Note_on_c, 0, 61, 0
2, 95454, Note_on_c, 0, 62, 0
2, 95456, Note_on_c, 0, 64, 78
2, 95462, Note_on_c, 0, 70, 0
2, 95475, Note_on_c, 0, 73, 79
2, 95492, Note_on_c, 0, 71, 0
2, 95548, Note_on_c, 0, 62, 85
2, 95557, Note_on_c, 0, 71, 76
2, 95560, Note_on_c, 0, 64, 0
2, 95597, Note_on_c, 0, 73, 0
2, 95649, Note_on_c, 0, 61, 81
2, 95649, Note_on_c, 0, 62, 0
2, 95657, Note_on_c, 0, 70, 90
2, 95671, Note_on_c, 0, 71, 0
2, 95691, Note_on_c, 0, 61, 0
2, 95705, Note_on_c, 0, 70, 0
2, 95926, Note_on_c, 0, 77, 85
2, 95930, Note_on_c, 0, 71, 85
2, 95930, Note_on_c, 0, 74, 82
2, 95932, Note_on_c, 0, 68, 87
2, 95936, Note_on_c, 0, 59, 79
2, 95955, Control_c, 0, 64, 44
2, 95970, Control_c, 0, 64, 67
2, 95984, Control_c, 0, 64, 76
2, 96000, Control_c, 0, 64, 89
2, 96015, Control_c, 0, 64, 97
2, 96027, Note_on_c, 0, 68, 0
2, 96031, Control_c, 0, 64, 102
2, 96037, Note_on_c, 0, 59, 0
2, 96046, Control_c, 0, 64, 105
2, 96060, Control_c, 0, 64, 107
2, 96073, Note_on_c, 0, 71, 0
2, 96076, Control_c, 0, 64, 109
2, 96076, Note_on_c, 0, 74, 0
2, 96083, Note_on_c, 0, 77, 0
2, 96091, Control_c, 0, 64, 110
2, 96105, Control_c, 0, 64, 110
2, 96167, Control_c, 0, 64, 108
2, 96181, Control_c, 0, 64, 103
2, 96197, Control_c, 0, 64, 93
2, 96212, Control_c, 0, 64, 83
2, 96226, Control_c, 0, 64, 73
2, 96242, Control_c, 0, 64, 61
2, 96257, Control_c, 0, 64, 0
2, 96486, Control_c, 0, 64, 61
2, 96501, Control_c, 0, 64, 72
2, 96504, Note_on_c, 0, 78, 89
2, 96506, Note_on_c, 0, 66, 91
2, 96507, Note_on_c, 0, 73, 82
2, 96509, Note_on_c, 0, 61, 86
2, 96514, Note_on_c, 0, 58, 79
2, 96517, Control_c, 0, 64, 81
2, 96539, Control_c, 0, 64, 89
2, 96555, Control_c, 0, 64, 94
2, 96559, Note_on_c, 0, 66, 0
2, 96570, Control_c, 0, 64, 98
2, 96571, Note_on_c, 0, 73, 0
2, 96572, Note_on_c, 0, 61, 0
2, 96578, Note_on_c, 0, 58, 0
2, 96583, Note_on_c, 0, 78, 0
2, 96585, Control_c, 0, 64, 102
2, 96601, Control_c, 0, 64, 106
2, 96615, Control_c, 0, 64, 109
2, 96631, Control_c, 0, 64, 111
2, 96646, Control_c, 0, 64, 113
2, 96660, Control_c, 0, 64, 114
2, 96676, Control_c, 0, 64, 116
2, 96691, Control_c, 0, 64, 117
2, 96722, Control_c, 0, 64, 118
2, 96737, Control_c, 0, 64, 118
2, 96753, Control_c, 0, 64, 119
2, 96768, Control_c, 0, 64, 120
2, 96782, Control_c, 0, 64, 120
2, 96812, Control_c, 0, 64, 121
2, 96934, Control_c, 0, 64, 120
2, 96948, Control_c, 0, 64, 119
2, 96964, Control_c, 0, 64, 114
2, 96979, Control_c, 0, 64, 104
2, 96995, Control_c, 0, 64, 93
2, 97010, Control_c, 0, 64, 80
2, 97024, Control_c, 0, 64, 66
2, 97040, Control_c, 0, 64, 0
2, 97373, Note_on_c, 0, 54, 48
2, 97485, Note_on_c, 0, 56, 51
2, 97491, Note_on_c, 0, 54, 0
2, 97612, Note_on_c, 0, 58, 59
2, 97618, Note_on_c, 0, 56, 0
2, 97716, Note_on_c, 0, 58, 0
2, 97723, Note_on_c, 0, 59, 58
2, 97848, Note_on_c, 0, 59, 0
2, 97857, Note_on_c, 0, 61, 56
2, 98186, Note_on_c, 0, 50, 51
2, 98226, Note_on_c, 0, 61, 0
2, 98511, Note_on_c, 0, 71, 51
2, 98621, Note_on_c, 0, 69, 56
2, 98638, Note_on_c, 0, 71, 0
2, 98720, Note_on_c, 0, 69, 0
2, 98741, Note_on_c, 0, 52, 47
2, 98749, Note_on_c, 0, 67, 51
2, 98857, Note_on_c, 0, 50, 0
2, 98876, Note_on_c, 0, 66, 60
2, 98878, Note_on_c, 0, 67, 0
2, 99013, Note_on_c, 0, 64, 56
2, 99058, Note_on_c, 0, 66, 0
2, 99388, Note_on_c, 0, 62, 55
2, 99393, Note_on_c, 0, 54, 43
2, 99400, Note_on_c, 0, 52, 0
2, 99411, Note_on_c, 0, 64, 0
2, 99824, Note_on_c, 0, 71, 63
2, 99854, Control_c, 0, 64, 48
2, 99869, Control_c, 0, 64, 63
2, 99885, Control_c, 0, 64, 66
2, 99886, Note_on_c, 0, 62, 0
2, 99900, Control_c, 0, 64, 69
2, 99915, Control_c, 0, 64, 72
2, 99930, Control_c, 0, 64, 78
2, 99945, Control_c, 0, 64, 82
2, 99961, Control_c, 0, 64, 84
2, 99975, Control_c, 0, 64, 85
2, 99991, Control_c, 0, 64, 86
2, 100006, Control_c, 0, 64, 87
2, 100021, Control_c, 0, 64, 88
2, 100037, Control_c, 0, 64, 90
2, 100051, Control_c, 0, 64, 90
2, 100066, Control_c, 0, 64, 91
2, 100082, Control_c, 0, 64, 91
2, 100097, Control_c, 0, 64, 92
2, 100112, Note_on_c, 0, 54, 0
2, 100113, Control_c, 0, 64, 92
2, 100128, Control_c, 0, 64, 93
2, 100173, Control_c, 0, 64, 93
2, 100280, Note_on_c, 0, 64, 46
2, 100295, Control_c, 0, 64, 92
2, 100300, Note_on_c, 0, 61, 39
2, 100305, Note_on_c, 0, 42, 38
2, 100311, Control_c, 0, 64, 90
2, 100325, Control_c, 0, 64, 83
2, 100340, Control_c, 0, 64, 73
2, 100356, Control_c, 0, 64, 55
2, 100378, Control_c, 0, 64, 0
2, 100809, Note_on_c, 0, 70, 55
2, 100848, Note_on_c, 0, 71, 0
2, 100969, Note_on_c, 0, 64, 0
2, 100984, Control_c, 0, 64, 32
2, 101000, Control_c, 0, 64, 57
2, 101015, Control_c, 0, 64, 63
2, 101030, Control_c, 0, 64, 67
2, 101034, Note_on_c, 0, 61, 0
2, 101046, Control_c, 0, 64, 73
2, 101061, Control_c, 0, 64, 81
2, 101076, Control_c, 0, 64, 87
2, 101091, Control_c, 0, 64, 89
2, 101106, Control_c, 0, 64, 90
2, 101122, Control_c, 0, 64, 92
2, 101143, Control_c, 0, 64, 94
2, 101154, Note_on_c, 0, 70, 0
2, 101159, Control_c, 0, 64, 96
2, 101174, Control_c, 0, 64, 98
2, 101189, Control_c, 0, 64, 99
2, 101192, Note_on_c, 0, 42, 0
2, 101205, Control_c, 0, 64, 100
2, 101220, Control_c, 0, 64, 101
2, 101235, Control_c, 0, 64, 101
2, 101251, Control_c, 0, 64, 102
2, 101281, Control_c, 0, 64, 102
2, 101296, Control_c, 0, 64, 103
2, 101342, Control_c, 0, 64, 103
2, 101585, Control_c, 0, 64, 103
2, 101601, Control_c, 0, 64, 101
2, 101608, Note_on_c, 0, 66, 55
2, 101613, Note_on_c, 0, 71, 57
2, 101616, Control_c, 0, 64, 97
2, 101618, Note_on_c, 0, 62, 51
2, 101620, Note_on_c, 0, 59, 48
2, 101622, Note_on_c, 0, 47, 54
2, 101631, Control_c, 0, 64, 91
2, 101647, Control_c, 0, 64, 85
2, 101661, Control_c, 0, 64, 77
2, 101676, Control_c, 0, 64, 67
2, 101692, Control_c, 0, 64, 0
2, 104176, Note_on_c, 0, 71, 0
2, 104181, Note_on_c, 0, 62, 0
2, 104182, Note_on_c, 0, 47, 0
2, 104183, Note_on_c, 0, 59, 0
2, 104198, Note_on_c, 0, 66, 0
2, 104946,End_track
0, 0, End_of_file
