0, 0, Header, 1, 2, 384
1, 0, Start_track
1, 0, Tempo, 500000
1, 0, Time_signature, 4, 2, 24, 8
1, 1, End_track
2,0,Start_track
2,0, Note_on_c, 0, 66, 75
2,220, Note_on_c, 0, 66, 0
2,228, Note_on_c, 0, 62, 87
2,247, Note_on_c, 0, 62, 0
2,456, Note_on_c, 0, 59, 83
2,475, Note_on_c, 0, 59, 0
2,678, Note_on_c, 0, 58, 83
2,708, Note_on_c, 0, 58, 0
2,909, Note_on_c, 0, 59, 88
2,931, Note_on_c, 0, 59, 0
2,1125, Note_on_c, 0, 61, 79
2,1166, Note_on_c, 0, 61, 0
2,1231, Note_on_c, 0, 62, 82
2,1260, Note_on_c, 0, 62, 0
2,1333, Note_on_c, 0, 64, 80
2,1363, Note_on_c, 0, 64, 0
2,1424, Note_on_c, 0, 66, 83
2,1469, Note_on_c, 0, 66, 0
2,1540, Note_on_c, 0, 67, 92
2,1570, Note_on_c, 0, 67, 0
2,1765, Note_on_c, 0, 55, 84
2,1787, Note_on_c, 0, 55, 0
2,1980, Note_on_c, 0, 67, 88
2,2006, Note_on_c, 0, 67, 0
2,2191, Note_on_c, 0, 66, 94
2,2219, Note_on_c, 0, 66, 0
2,2408, Note_on_c, 0, 54, 82
2,2447, Note_on_c, 0, 54, 0
2,2624, Note_on_c, 0, 66, 85
2,2651, Note_on_c, 0, 66, 0
2,2835, Note_on_c, 0, 64, 81
2,2869, Note_on_c, 0, 64, 0
2,3051, Note_on_c, 0, 66, 75
2,3080, Note_on_c, 0, 66, 0
2,3165, Note_on_c, 0, 64, 70
2,3190, Note_on_c, 0, 64, 0
2,3265, Note_on_c, 0, 62, 76
2,3310, Note_on_c, 0, 62, 0
2,3367, Note_on_c, 0, 61, 72
2,3410, Note_on_c, 0, 61, 0
2,3472, Note_on_c, 0, 62, 77
2,3524, Note_on_c, 0, 62, 0
2,3581, Note_on_c, 0, 66, 79
2,3624, Note_on_c, 0, 66, 0
2,3683, Note_on_c, 0, 64, 79
2,3715, Note_on_c, 0, 64, 0
2,3784, Note_on_c, 0, 62, 75
2,3830, Note_on_c, 0, 62, 0
2,3900, Note_on_c, 0, 61, 70
2,3909, Note_on_c, 0, 71, 81
2,3946, Note_on_c, 0, 61, 0
2,4007, Note_on_c, 0, 59, 69
2,4039, Note_on_c, 0, 59, 0
2,4115, Note_on_c, 0, 61, 76
2,4117, Note_on_c, 0, 69, 89
2,4129, Note_on_c, 0, 71, 0
2,4148, Note_on_c, 0, 69, 0
2,4159, Note_on_c, 0, 61, 0
2,4224, Note_on_c, 0, 59, 70
2,4265, Note_on_c, 0, 59, 0
2,4330, Note_on_c, 0, 61, 79
2,4332, Note_on_c, 0, 66, 84
2,4352, Note_on_c, 0, 66, 0
2,4384, Note_on_c, 0, 61, 0
2,4435, Note_on_c, 0, 62, 78
2,4477, Note_on_c, 0, 62, 0
2,4540, Note_on_c, 0, 61, 85
2,4540, Note_on_c, 0, 65, 92
2,4568, Note_on_c, 0, 65, 0
2,4585, Note_on_c, 0, 61, 0
2,4648, Note_on_c, 0, 59, 82
2,4689, Note_on_c, 0, 59, 0
2,4755, Note_on_c, 0, 57, 90
2,4760, Note_on_c, 0, 66, 96
2,4782, Note_on_c, 0, 57, 0
2,4792, Note_on_c, 0, 66, 0
2,4970, Note_on_c, 0, 54, 81
2,4972, Note_on_c, 0, 68, 88
2,5000, Note_on_c, 0, 54, 0
2,5009, Note_on_c, 0, 68, 0
2,5077, Note_on_c, 0, 69, 87
2,5114, Note_on_c, 0, 69, 0
2,5181, Note_on_c, 0, 53, 77
2,5183, Note_on_c, 0, 71, 89
2,5205, Note_on_c, 0, 53, 0
2,5213, Note_on_c, 0, 71, 0
2,5281, Note_on_c, 0, 73, 90
2,5303, Note_on_c, 0, 73, 0
2,5381, Note_on_c, 0, 54, 62
2,5383, Note_on_c, 0, 74, 89
2,5405, Note_on_c, 0, 74, 0
2,5489, Note_on_c, 0, 56, 63
2,5518, Note_on_c, 0, 54, 0
2,5569, Note_on_c, 0, 56, 0
2,5596, Note_on_c, 0, 57, 70
2,5614, Note_on_c, 0, 62, 82
2,5639, Note_on_c, 0, 62, 0
2,5642, Note_on_c, 0, 57, 0
2,5654, Note_on_c, 0, 56, 68
2,5706, Note_on_c, 0, 56, 0
2,5719, Note_on_c, 0, 57, 76
2,5762, Note_on_c, 0, 56, 66
2,5777, Note_on_c, 0, 57, 0
2,5832, Note_on_c, 0, 74, 77
2,5833, Note_on_c, 0, 57, 66
2,5837, Note_on_c, 0, 56, 0
2,5850, Note_on_c, 0, 74, 0
2,5853, Note_on_c, 0, 56, 40
2,5887, Note_on_c, 0, 57, 0
2,5923, Note_on_c, 0, 54, 62
2,6011, Note_on_c, 0, 54, 0
2,6026, Note_on_c, 0, 57, 70
2,6044, Note_on_c, 0, 73, 87
2,6049, Note_on_c, 0, 56, 0
2,6062, Note_on_c, 0, 73, 0
2,6087, Note_on_c, 0, 57, 0
2,6151, Note_on_c, 0, 59, 77
2,6187, Note_on_c, 0, 59, 0
2,6257, Note_on_c, 0, 61, 90
2,6263, Note_on_c, 0, 57, 77
2,6290, Note_on_c, 0, 61, 0
2,6293, Note_on_c, 0, 57, 0
2,6369, Note_on_c, 0, 56, 79
2,6425, Note_on_c, 0, 56, 0
2,6470, Note_on_c, 0, 54, 76
2,6470, Note_on_c, 0, 73, 89
2,6489, Note_on_c, 0, 73, 0
2,6513, Note_on_c, 0, 54, 0
2,6580, Note_on_c, 0, 52, 78
2,6606, Note_on_c, 0, 52, 0
2,6679, Note_on_c, 0, 51, 74
2,6681, Note_on_c, 0, 71, 92
2,6704, Note_on_c, 0, 71, 0
2,6783, Note_on_c, 0, 51, 0
2,6784, Note_on_c, 0, 53, 69
2,6867, Note_on_c, 0, 53, 0
2,6884, Note_on_c, 0, 54, 69
2,6894, Note_on_c, 0, 73, 77
2,6933, Note_on_c, 0, 73, 0
2,6952, Note_on_c, 0, 53, 63
2,6960, Note_on_c, 0, 54, 0
2,7000, Note_on_c, 0, 71, 78
2,7019, Note_on_c, 0, 54, 63
2,7027, Note_on_c, 0, 71, 0
2,7073, Note_on_c, 0, 54, 0
2,7113, Note_on_c, 0, 69, 81
2,7137, Note_on_c, 0, 69, 0
2,7161, Note_on_c, 0, 53, 0
2,7174, Note_on_c, 0, 51, 56
2,7204, Note_on_c, 0, 68, 80
2,7242, Note_on_c, 0, 68, 0
2,7260, Note_on_c, 0, 53, 64
2,7308, Note_on_c, 0, 51, 0
2,7315, Note_on_c, 0, 69, 89
2,7324, Note_on_c, 0, 54, 84
2,7333, Note_on_c, 0, 53, 0
2,7353, Note_on_c, 0, 54, 0
2,7353, Note_on_c, 0, 69, 0
2,7425, Note_on_c, 0, 73, 77
2,7473, Note_on_c, 0, 73, 0
2,7526, Note_on_c, 0, 56, 87
2,7533, Note_on_c, 0, 71, 83
2,7566, Note_on_c, 0, 56, 0
2,7571, Note_on_c, 0, 71, 0
2,7637, Note_on_c, 0, 69, 82
2,7676, Note_on_c, 0, 69, 0
2,7750, Note_on_c, 0, 68, 86
2,7753, Note_on_c, 0, 57, 82
2,7783, Note_on_c, 0, 57, 0
2,7801, Note_on_c, 0, 68, 0
2,7861, Note_on_c, 0, 66, 83
2,7899, Note_on_c, 0, 66, 0
2,7966, Note_on_c, 0, 59, 69
2,7968, Note_on_c, 0, 67, 87
2,8002, Note_on_c, 0, 67, 0
2,8068, Note_on_c, 0, 61, 73
2,8069, Note_on_c, 0, 59, 0
2,8141, Note_on_c, 0, 61, 0
2,8165, Note_on_c, 0, 62, 75
2,8176, Note_on_c, 0, 69, 78
2,8208, Note_on_c, 0, 69, 0
2,8209, Note_on_c, 0, 61, 62
2,8219, Note_on_c, 0, 62, 0
2,8250, Note_on_c, 0, 61, 0
2,8275, Note_on_c, 0, 67, 81
2,8280, Note_on_c, 0, 62, 65
2,8316, Note_on_c, 0, 67, 0
2,8317, Note_on_c, 0, 61, 54
2,8342, Note_on_c, 0, 62, 0
2,8384, Note_on_c, 0, 66, 85
2,8411, Note_on_c, 0, 61, 0
2,8417, Note_on_c, 0, 59, 64
2,8430, Note_on_c, 0, 66, 0
2,8495, Note_on_c, 0, 64, 81
2,8537, Note_on_c, 0, 61, 72
2,8537, Note_on_c, 0, 64, 0
2,8550, Note_on_c, 0, 59, 0
2,8597, Note_on_c, 0, 66, 84
2,8602, Note_on_c, 0, 62, 86
2,8620, Note_on_c, 0, 61, 0
2,8638, Note_on_c, 0, 62, 0
2,8651, Note_on_c, 0, 66, 0
2,8714, Note_on_c, 0, 69, 79
2,8754, Note_on_c, 0, 69, 0
2,8822, Note_on_c, 0, 67, 81
2,8825, Note_on_c, 0, 58, 88
2,8855, Note_on_c, 0, 58, 0
2,8865, Note_on_c, 0, 67, 0
2,8926, Note_on_c, 0, 66, 84
2,8971, Note_on_c, 0, 66, 0
2,9040, Note_on_c, 0, 59, 87
2,9045, Note_on_c, 0, 64, 85
2,9086, Note_on_c, 0, 64, 0
2,9139, Note_on_c, 0, 62, 84
2,9195, Note_on_c, 0, 62, 0
2,9263, Note_on_c, 0, 64, 85
2,9312, Note_on_c, 0, 64, 0
2,9483, Note_on_c, 0, 66, 76
2,9486, Note_on_c, 0, 58, 83
2,9509, Note_on_c, 0, 59, 0
2,9534, Note_on_c, 0, 58, 0
2,9582, Note_on_c, 0, 56, 85
2,9589, Note_on_c, 0, 64, 71
2,9600, Note_on_c, 0, 56, 0
2,9604, Note_on_c, 0, 66, 0
2,9668, Note_on_c, 0, 64, 0
2,9696, Note_on_c, 0, 54, 89
2,9697, Note_on_c, 0, 58, 86
2,9700, Note_on_c, 0, 62, 84
2,9788, Note_on_c, 0, 62, 0
2,9799, Note_on_c, 0, 61, 79
2,9841, Note_on_c, 0, 58, 0
2,9862, Note_on_c, 0, 61, 0
2,9922, Note_on_c, 0, 50, 97
2,9922, Note_on_c, 0, 59, 83
2,9922, Note_on_c, 0, 62, 87
2,9931, Note_on_c, 0, 54, 0
2,9950, Note_on_c, 0, 50, 0
2,9954, Note_on_c, 0, 59, 0
2,9975, Note_on_c, 0, 62, 0
2,10039, Note_on_c, 0, 64, 77
2,10084, Note_on_c, 0, 64, 0
2,10145, Note_on_c, 0, 47, 92
2,10156, Note_on_c, 0, 66, 82
2,10188, Note_on_c, 0, 47, 0
2,10211, Note_on_c, 0, 66, 0
2,10263, Note_on_c, 0, 67, 81
2,10377, Note_on_c, 0, 46, 90
2,10377, Note_on_c, 0, 67, 0
2,10379, Note_on_c, 0, 66, 81
2,10433, Note_on_c, 0, 46, 0
2,10484, Note_on_c, 0, 64, 79
2,10605, Note_on_c, 0, 47, 94
2,10607, Note_on_c, 0, 62, 88
2,10634, Note_on_c, 0, 64, 0
2,10642, Note_on_c, 0, 62, 0
2,10655, Note_on_c, 0, 47, 0
2,10833, Note_on_c, 0, 49, 84
2,10838, Note_on_c, 0, 59, 84
2,10871, Note_on_c, 0, 66, 0
2,10875, Note_on_c, 0, 59, 0
2,10877, Note_on_c, 0, 49, 0
2,10947, Note_on_c, 0, 50, 83
2,10987, Note_on_c, 0, 50, 0
2,11044, Note_on_c, 0, 58, 85
2,11047, Note_on_c, 0, 52, 86
2,11084, Note_on_c, 0, 52, 0
2,11084, Note_on_c, 0, 58, 0
2,11152, Note_on_c, 0, 54, 88
2,11187, Note_on_c, 0, 54, 0
2,11262, Note_on_c, 0, 59, 80
2,11263, Note_on_c, 0, 55, 92
2,11289, Note_on_c, 0, 59, 0
2,11293, Note_on_c, 0, 55, 0
2,11368, Note_on_c, 0, 61, 75
2,11399, Note_on_c, 0, 61, 0
2,11479, Note_on_c, 0, 64, 73
2,11480, Note_on_c, 0, 43, 92
2,11482, Note_on_c, 0, 62, 71
2,11508, Note_on_c, 0, 43, 0
2,11510, Note_on_c, 0, 62, 0
2,11514, Note_on_c, 0, 64, 0
2,11529, Note_on_c, 0, 61, 66
2,11589, Note_on_c, 0, 61, 0
2,11604, Note_on_c, 0, 62, 71
2,11646, Note_on_c, 0, 62, 0
2,11647, Note_on_c, 0, 61, 58
2,11705, Note_on_c, 0, 55, 88
2,11707, Note_on_c, 0, 61, 0
2,11709, Note_on_c, 0, 69, 69
2,11714, Note_on_c, 0, 62, 67
2,11740, Note_on_c, 0, 55, 0
2,11754, Note_on_c, 0, 62, 0
2,11756, Note_on_c, 0, 61, 60
2,11820, Note_on_c, 0, 61, 0
2,11831, Note_on_c, 0, 59, 80
2,11867, Note_on_c, 0, 59, 0
2,11871, Note_on_c, 0, 61, 52
2,11879, Note_on_c, 0, 69, 0
2,11937, Note_on_c, 0, 62, 87
2,11937, Note_on_c, 0, 69, 72
2,11940, Note_on_c, 0, 54, 88
2,11953, Note_on_c, 0, 61, 0
2,11970, Note_on_c, 0, 54, 0
2,11973, Note_on_c, 0, 62, 0
2,11977, Note_on_c, 0, 69, 0
2,12056, Note_on_c, 0, 64, 85
2,12089, Note_on_c, 0, 64, 0
2,12166, Note_on_c, 0, 62, 80
2,12169, Note_on_c, 0, 66, 83
2,12170, Note_on_c, 0, 42, 91
2,12193, Note_on_c, 0, 62, 0
2,12205, Note_on_c, 0, 42, 0
2,12213, Note_on_c, 0, 66, 0
2,12271, Note_on_c, 0, 61, 82
2,12301, Note_on_c, 0, 61, 0
2,12390, Note_on_c, 0, 54, 85
2,12390, Note_on_c, 0, 59, 80
2,12392, Note_on_c, 0, 62, 76
2,12419, Note_on_c, 0, 54, 0
2,12497, Note_on_c, 0, 57, 77
2,12506, Note_on_c, 0, 59, 0
2,12552, Note_on_c, 0, 57, 0
2,12621, Note_on_c, 0, 52, 96
2,12624, Note_on_c, 0, 56, 82
2,12655, Note_on_c, 0, 52, 0
2,12667, Note_on_c, 0, 56, 0
2,12679, Note_on_c, 0, 62, 0
2,12711, Note_on_c, 0, 58, 74
2,12746, Note_on_c, 0, 58, 0
2,12830, Note_on_c, 0, 59, 63
2,12836, Note_on_c, 0, 54, 79
2,12842, Note_on_c, 0, 61, 58
2,12859, Note_on_c, 0, 59, 0
2,12860, Note_on_c, 0, 58, 70
2,12871, Note_on_c, 0, 54, 0
2,12923, Note_on_c, 0, 61, 0
2,12925, Note_on_c, 0, 58, 0
2,12937, Note_on_c, 0, 59, 65
2,12940, Note_on_c, 0, 52, 78
2,12974, Note_on_c, 0, 52, 0
2,12987, Note_on_c, 0, 58, 61
2,13027, Note_on_c, 0, 59, 0
2,13042, Note_on_c, 0, 58, 0
2,13044, Note_on_c, 0, 59, 47
2,13052, Note_on_c, 0, 50, 78
2,13060, Note_on_c, 0, 66, 66
2,13091, Note_on_c, 0, 59, 0
2,13100, Note_on_c, 0, 58, 51
2,13103, Note_on_c, 0, 50, 0
2,13164, Note_on_c, 0, 58, 0
2,13172, Note_on_c, 0, 56, 79
2,13181, Note_on_c, 0, 49, 78
2,13211, Note_on_c, 0, 58, 51
2,13225, Note_on_c, 0, 49, 0
2,13225, Note_on_c, 0, 56, 0
2,13289, Note_on_c, 0, 50, 78
2,13290, Note_on_c, 0, 59, 80
2,13303, Note_on_c, 0, 58, 0
2,13331, Note_on_c, 0, 50, 0
2,13399, Note_on_c, 0, 54, 77
2,13437, Note_on_c, 0, 54, 0
2,13474, Note_on_c, 0, 59, 0
2,13493, Note_on_c, 0, 66, 0
2,13509, Note_on_c, 0, 52, 77
2,13541, Note_on_c, 0, 52, 0
2,13615, Note_on_c, 0, 50, 73
2,13646, Note_on_c, 0, 50, 0
2,13727, Note_on_c, 0, 49, 73
2,13737, Note_on_c, 0, 68, 76
2,13760, Note_on_c, 0, 49, 0
2,13836, Note_on_c, 0, 47, 73
2,13867, Note_on_c, 0, 47, 0
2,13946, Note_on_c, 0, 68, 0
2,13961, Note_on_c, 0, 69, 72
2,13967, Note_on_c, 0, 49, 63
2,13987, Note_on_c, 0, 69, 0
2,14062, Note_on_c, 0, 51, 63
2,14075, Note_on_c, 0, 73, 67
2,14094, Note_on_c, 0, 49, 0
2,14105, Note_on_c, 0, 73, 0
2,14142, Note_on_c, 0, 51, 0
2,14167, Note_on_c, 0, 52, 73
2,14194, Note_on_c, 0, 71, 64
2,14206, Note_on_c, 0, 52, 0
2,14223, Note_on_c, 0, 71, 0
2,14231, Note_on_c, 0, 51, 63
2,14270, Note_on_c, 0, 51, 0
2,14292, Note_on_c, 0, 69, 73
2,14294, Note_on_c, 0, 52, 80
2,14317, Note_on_c, 0, 69, 0
2,14337, Note_on_c, 0, 52, 0
2,14342, Note_on_c, 0, 51, 69
2,14395, Note_on_c, 0, 68, 80
2,14402, Note_on_c, 0, 51, 0
2,14407, Note_on_c, 0, 52, 69
2,14430, Note_on_c, 0, 68, 0
2,14466, Note_on_c, 0, 52, 0
2,14481, Note_on_c, 0, 49, 54
2,14499, Note_on_c, 0, 66, 77
2,14524, Note_on_c, 0, 51, 65
2,14530, Note_on_c, 0, 66, 0
2,14582, Note_on_c, 0, 49, 0
2,14599, Note_on_c, 0, 52, 68
2,14606, Note_on_c, 0, 68, 82
2,14659, Note_on_c, 0, 68, 0
2,14667, Note_on_c, 0, 51, 0
2,14687, Note_on_c, 0, 52, 0
2,14726, Note_on_c, 0, 70, 76
2,14730, Note_on_c, 0, 55, 74
2,14759, Note_on_c, 0, 55, 0
2,14763, Note_on_c, 0, 70, 0
2,14830, Note_on_c, 0, 54, 81
2,14835, Note_on_c, 0, 71, 68
2,14867, Note_on_c, 0, 71, 0
2,14870, Note_on_c, 0, 54, 0
2,14881, Note_on_c, 0, 70, 66
2,14930, Note_on_c, 0, 70, 0
2,14946, Note_on_c, 0, 52, 79
2,14954, Note_on_c, 0, 71, 53
2,14977, Note_on_c, 0, 52, 0
2,15003, Note_on_c, 0, 71, 0
2,15009, Note_on_c, 0, 70, 67
2,15048, Note_on_c, 0, 50, 76
2,15066, Note_on_c, 0, 70, 0
2,15068, Note_on_c, 0, 71, 49
2,15077, Note_on_c, 0, 50, 0
2,15132, Note_on_c, 0, 71, 0
2,15145, Note_on_c, 0, 68, 73
2,15164, Note_on_c, 0, 49, 74
2,15185, Note_on_c, 0, 70, 28
2,15194, Note_on_c, 0, 49, 0
2,15210, Note_on_c, 0, 68, 0
2,15257, Note_on_c, 0, 51, 78
2,15260, Note_on_c, 0, 71, 81
2,15292, Note_on_c, 0, 70, 0
2,15304, Note_on_c, 0, 71, 0
2,15377, Note_on_c, 0, 53, 73
2,15387, Note_on_c, 0, 74, 70
2,15414, Note_on_c, 0, 51, 0
2,15419, Note_on_c, 0, 74, 0
2,15442, Note_on_c, 0, 53, 0
2,15462, Note_on_c, 0, 54, 57
2,15492, Note_on_c, 0, 54, 0
2,15501, Note_on_c, 0, 73, 79
2,15526, Note_on_c, 0, 53, 55
2,15539, Note_on_c, 0, 73, 0
2,15602, Note_on_c, 0, 54, 57
2,15608, Note_on_c, 0, 71, 77
2,15622, Note_on_c, 0, 53, 0
2,15643, Note_on_c, 0, 71, 0
2,15685, Note_on_c, 0, 54, 0
2,15700, Note_on_c, 0, 53, 36
2,15713, Note_on_c, 0, 69, 88
2,15749, Note_on_c, 0, 69, 0
2,15762, Note_on_c, 0, 51, 34
2,15817, Note_on_c, 0, 68, 80
2,15840, Note_on_c, 0, 54, 52
2,15853, Note_on_c, 0, 68, 0
2,15884, Note_on_c, 0, 53, 0
2,15903, Note_on_c, 0, 51, 0
2,15930, Note_on_c, 0, 69, 88
2,15975, Note_on_c, 0, 69, 0
2,15992, Note_on_c, 0, 57, 56
2,16003, Note_on_c, 0, 54, 0
2,16022, Note_on_c, 0, 57, 0
2,16042, Note_on_c, 0, 71, 76
2,16064, Note_on_c, 0, 71, 0
2,16134, Note_on_c, 0, 56, 78
2,16135, Note_on_c, 0, 73, 79
2,16171, Note_on_c, 0, 56, 0
2,16194, Note_on_c, 0, 73, 0
2,16209, Note_on_c, 0, 71, 75
2,16257, Note_on_c, 0, 54, 76
2,16281, Note_on_c, 0, 73, 58
2,16286, Note_on_c, 0, 54, 0
2,16291, Note_on_c, 0, 71, 0
2,16306, Note_on_c, 0, 71, 53
2,16325, Note_on_c, 0, 73, 0
2,16352, Note_on_c, 0, 53, 83
2,16383, Note_on_c, 0, 73, 57
2,16386, Note_on_c, 0, 53, 0
2,16386, Note_on_c, 0, 71, 0
2,16438, Note_on_c, 0, 71, 58
2,16456, Note_on_c, 0, 73, 0
2,16464, Note_on_c, 0, 51, 79
2,16469, Note_on_c, 0, 69, 48
2,16480, Note_on_c, 0, 71, 0
2,16492, Note_on_c, 0, 51, 0
2,16517, Note_on_c, 0, 69, 0
2,16528, Note_on_c, 0, 69, 50
2,16548, Note_on_c, 0, 71, 69
2,16559, Note_on_c, 0, 69, 0
2,16563, Note_on_c, 0, 53, 82
2,16619, Note_on_c, 0, 73, 80
2,16620, Note_on_c, 0, 53, 0
2,16637, Note_on_c, 0, 71, 0
2,16683, Note_on_c, 0, 56, 81
2,16715, Note_on_c, 0, 56, 0
2,16805, Note_on_c, 0, 54, 79
2,16850, Note_on_c, 0, 54, 0
2,16915, Note_on_c, 0, 53, 89
2,16962, Note_on_c, 0, 53, 0
2,17022, Note_on_c, 0, 73, 0
2,17037, Note_on_c, 0, 51, 87
2,17049, Note_on_c, 0, 61, 88
2,17089, Note_on_c, 0, 51, 0
2,17149, Note_on_c, 0, 49, 85
2,17196, Note_on_c, 0, 49, 0
2,17266, Note_on_c, 0, 57, 92
2,17274, Note_on_c, 0, 54, 85
2,17276, Note_on_c, 0, 61, 0
2,17306, Note_on_c, 0, 57, 0
2,17308, Note_on_c, 0, 54, 0
2,17387, Note_on_c, 0, 74, 73
2,17428, Note_on_c, 0, 74, 0
2,17500, Note_on_c, 0, 54, 92
2,17503, Note_on_c, 0, 73, 84
2,17504, Note_on_c, 0, 45, 87
2,17532, Note_on_c, 0, 54, 0
2,17537, Note_on_c, 0, 45, 0
2,17551, Note_on_c, 0, 73, 0
2,17614, Note_on_c, 0, 71, 87
2,17654, Note_on_c, 0, 71, 0
2,17728, Note_on_c, 0, 53, 82
2,17729, Note_on_c, 0, 69, 88
2,17737, Note_on_c, 0, 49, 84
2,17768, Note_on_c, 0, 53, 0
2,17772, Note_on_c, 0, 49, 0
2,17782, Note_on_c, 0, 69, 0
2,17830, Note_on_c, 0, 68, 82
2,17885, Note_on_c, 0, 68, 0
2,17949, Note_on_c, 0, 54, 88
2,17953, Note_on_c, 0, 42, 80
2,17953, Note_on_c, 0, 69, 97
2,17985, Note_on_c, 0, 42, 0
2,17987, Note_on_c, 0, 69, 0
2,17997, Note_on_c, 0, 54, 0
2,18176, Note_on_c, 0, 66, 91
2,18179, Note_on_c, 0, 56, 74
2,18207, Note_on_c, 0, 66, 0
2,18221, Note_on_c, 0, 56, 0
2,18289, Note_on_c, 0, 57, 83
2,18333, Note_on_c, 0, 57, 0
2,18397, Note_on_c, 0, 59, 88
2,18397, Note_on_c, 0, 65, 97
2,18431, Note_on_c, 0, 65, 0
2,18436, Note_on_c, 0, 59, 0
2,18517, Note_on_c, 0, 61, 86
2,18550, Note_on_c, 0, 61, 0
2,18620, Note_on_c, 0, 62, 89
2,18624, Note_on_c, 0, 66, 87
2,18646, Note_on_c, 0, 62, 0
2,18654, Note_on_c, 0, 66, 0
2,18748, Note_on_c, 0, 57, 69
2,18783, Note_on_c, 0, 57, 0
2,18849, Note_on_c, 0, 50, 80
2,18850, Note_on_c, 0, 47, 78
2,18893, Note_on_c, 0, 50, 0
2,18897, Note_on_c, 0, 47, 0
2,18957, Note_on_c, 0, 57, 64
2,19041, Note_on_c, 0, 57, 0
2,19065, Note_on_c, 0, 50, 56
2,19066, Note_on_c, 0, 47, 51
2,19070, Note_on_c, 0, 62, 83
2,19070, Note_on_c, 0, 71, 75
2,19107, Note_on_c, 0, 47, 0
2,19107, Note_on_c, 0, 62, 0
2,19110, Note_on_c, 0, 50, 0
2,19181, Note_on_c, 0, 56, 62
2,19238, Note_on_c, 0, 56, 0
2,19252, Note_on_c, 0, 71, 0
2,19302, Note_on_c, 0, 45, 75
2,19304, Note_on_c, 0, 61, 87
2,19332, Note_on_c, 0, 61, 0
2,19345, Note_on_c, 0, 45, 0
2,19405, Note_on_c, 0, 56, 65
2,19447, Note_on_c, 0, 56, 0
2,19518, Note_on_c, 0, 49, 75
2,19521, Note_on_c, 0, 45, 61
2,19525, Note_on_c, 0, 65, 82
2,19559, Note_on_c, 0, 45, 0
2,19565, Note_on_c, 0, 65, 0
2,19569, Note_on_c, 0, 49, 0
2,19618, Note_on_c, 0, 56, 72
2,19682, Note_on_c, 0, 56, 0
2,19730, Note_on_c, 0, 45, 64
2,19738, Note_on_c, 0, 66, 74
2,19743, Note_on_c, 0, 61, 79
2,19773, Note_on_c, 0, 45, 0
2,19794, Note_on_c, 0, 61, 0
2,19845, Note_on_c, 0, 54, 64
2,19920, Note_on_c, 0, 54, 0
2,19960, Note_on_c, 0, 62, 77
2,19965, Note_on_c, 0, 59, 73
2,19968, Note_on_c, 0, 44, 78
2,19982, Note_on_c, 0, 66, 0
2,19990, Note_on_c, 0, 59, 0
2,19992, Note_on_c, 0, 62, 0
2,20016, Note_on_c, 0, 44, 0
2,20074, Note_on_c, 0, 54, 64
2,20136, Note_on_c, 0, 54, 0
2,20177, Note_on_c, 0, 53, 77
2,20186, Note_on_c, 0, 61, 70
2,20240, Note_on_c, 0, 53, 0
2,20284, Note_on_c, 0, 56, 69
2,20290, Note_on_c, 0, 59, 70
2,20324, Note_on_c, 0, 56, 0
2,20357, Note_on_c, 0, 59, 0
2,20392, Note_on_c, 0, 49, 65
2,20401, Note_on_c, 0, 57, 74
2,20435, Note_on_c, 0, 57, 0
2,20443, Note_on_c, 0, 49, 0
2,20497, Note_on_c, 0, 53, 60
2,20497, Note_on_c, 0, 56, 69
2,20528, Note_on_c, 0, 56, 0
2,20538, Note_on_c, 0, 53, 0
2,20614, Note_on_c, 0, 42, 73
2,20617, Note_on_c, 0, 57, 77
2,20641, Note_on_c, 0, 57, 0
2,20684, Note_on_c, 0, 42, 0
2,20721, Note_on_c, 0, 54, 52
2,20780, Note_on_c, 0, 54, 0
2,20843, Note_on_c, 0, 44, 65
2,20846, Note_on_c, 0, 59, 73
2,20867, Note_on_c, 0, 61, 0
2,20870, Note_on_c, 0, 59, 0
2,20916, Note_on_c, 0, 44, 0
2,20942, Note_on_c, 0, 54, 62
2,21027, Note_on_c, 0, 54, 0
2,21058, Note_on_c, 0, 61, 63
2,21067, Note_on_c, 0, 66, 74
2,21073, Note_on_c, 0, 45, 69
2,21122, Note_on_c, 0, 66, 0
2,21159, Note_on_c, 0, 45, 0
2,21180, Note_on_c, 0, 54, 57
2,21250, Note_on_c, 0, 54, 0
2,21286, Note_on_c, 0, 62, 79
2,21295, Note_on_c, 0, 47, 65
2,21332, Note_on_c, 0, 62, 0
2,21361, Note_on_c, 0, 47, 0
2,21388, Note_on_c, 0, 54, 65
2,21457, Note_on_c, 0, 54, 0
2,21502, Note_on_c, 0, 49, 69
2,21510, Note_on_c, 0, 61, 0
2,21511, Note_on_c, 0, 59, 72
2,21513, Note_on_c, 0, 64, 71
2,21543, Note_on_c, 0, 59, 0
2,21546, Note_on_c, 0, 64, 0
2,21571, Note_on_c, 0, 49, 0
2,21601, Note_on_c, 0, 54, 61
2,21684, Note_on_c, 0, 54, 0
2,21717, Note_on_c, 0, 50, 57
2,21731, Note_on_c, 0, 66, 70
2,21735, Note_on_c, 0, 57, 65
2,21765, Note_on_c, 0, 57, 0
2,21798, Note_on_c, 0, 50, 0
2,21812, Note_on_c, 0, 54, 62
2,21858, Note_on_c, 0, 54, 0
2,21952, Note_on_c, 0, 40, 70
2,21956, Note_on_c, 0, 55, 73
2,21983, Note_on_c, 0, 55, 0
2,21993, Note_on_c, 0, 40, 0
2,22073, Note_on_c, 0, 52, 46
2,22112, Note_on_c, 0, 52, 0
2,22175, Note_on_c, 0, 57, 73
2,22176, Note_on_c, 0, 64, 69
2,22180, Note_on_c, 0, 42, 59
2,22202, Note_on_c, 0, 57, 0
2,22202, Note_on_c, 0, 66, 0
2,22204, Note_on_c, 0, 64, 0
2,22232, Note_on_c, 0, 42, 0
2,22279, Note_on_c, 0, 52, 56
2,22336, Note_on_c, 0, 52, 0
2,22400, Note_on_c, 0, 62, 74
2,22403, Note_on_c, 0, 59, 62
2,22409, Note_on_c, 0, 43, 61
2,22433, Note_on_c, 0, 62, 0
2,22458, Note_on_c, 0, 43, 0
2,22522, Note_on_c, 0, 52, 52
2,22576, Note_on_c, 0, 52, 0
2,22628, Note_on_c, 0, 61, 76
2,22635, Note_on_c, 0, 45, 62
2,22685, Note_on_c, 0, 45, 0
2,22743, Note_on_c, 0, 52, 56
2,22821, Note_on_c, 0, 59, 0
2,22827, Note_on_c, 0, 52, 0
2,22849, Note_on_c, 0, 57, 71
2,22849, Note_on_c, 0, 61, 0
2,22854, Note_on_c, 0, 47, 62
2,22874, Note_on_c, 0, 57, 0
2,22925, Note_on_c, 0, 47, 0
2,22963, Note_on_c, 0, 52, 61
2,23017, Note_on_c, 0, 52, 0
2,23082, Note_on_c, 0, 81, 83
2,23093, Note_on_c, 0, 49, 63
2,23164, Note_on_c, 0, 49, 0
2,23194, Note_on_c, 0, 52, 62
2,23226, Note_on_c, 0, 52, 0
2,23303, Note_on_c, 0, 78, 88
2,23305, Note_on_c, 0, 81, 0
2,23306, Note_on_c, 0, 50, 67
2,23321, Note_on_c, 0, 78, 0
2,23352, Note_on_c, 0, 50, 0
2,23411, Note_on_c, 0, 52, 65
2,23451, Note_on_c, 0, 52, 0
2,23523, Note_on_c, 0, 74, 88
2,23526, Note_on_c, 0, 54, 69
2,23543, Note_on_c, 0, 74, 0
2,23570, Note_on_c, 0, 54, 0
2,23635, Note_on_c, 0, 55, 71
2,23678, Note_on_c, 0, 55, 0
2,23742, Note_on_c, 0, 73, 92
2,23747, Note_on_c, 0, 57, 67
2,23759, Note_on_c, 0, 73, 0
2,23781, Note_on_c, 0, 57, 0
2,23850, Note_on_c, 0, 55, 64
2,23883, Note_on_c, 0, 55, 0
2,23962, Note_on_c, 0, 54, 67
2,23963, Note_on_c, 0, 74, 90
2,23984, Note_on_c, 0, 74, 0
2,24000, Note_on_c, 0, 54, 0
2,24078, Note_on_c, 0, 57, 63
2,24112, Note_on_c, 0, 57, 0
2,24176, Note_on_c, 0, 76, 81
2,24181, Note_on_c, 0, 55, 61
2,24211, Note_on_c, 0, 76, 0
2,24222, Note_on_c, 0, 55, 0
2,24277, Note_on_c, 0, 78, 87
2,24289, Note_on_c, 0, 54, 57
2,24306, Note_on_c, 0, 78, 0
2,24345, Note_on_c, 0, 54, 0
2,24381, Note_on_c, 0, 79, 87
2,24398, Note_on_c, 0, 52, 61
2,24418, Note_on_c, 0, 79, 0
2,24443, Note_on_c, 0, 52, 0
2,24482, Note_on_c, 0, 81, 87
2,24510, Note_on_c, 0, 50, 41
2,24521, Note_on_c, 0, 81, 0
2,24542, Note_on_c, 0, 50, 0
2,24592, Note_on_c, 0, 55, 70
2,24594, Note_on_c, 0, 83, 87
2,24617, Note_on_c, 0, 83, 0
2,24627, Note_on_c, 0, 55, 0
2,24742, Note_on_c, 0, 66, 59
2,24781, Note_on_c, 0, 66, 0
2,24824, Note_on_c, 0, 71, 75
2,24839, Note_on_c, 0, 55, 58
2,24844, Note_on_c, 0, 71, 0
2,24882, Note_on_c, 0, 55, 0
2,24924, Note_on_c, 0, 66, 62
2,24960, Note_on_c, 0, 66, 0
2,25038, Note_on_c, 0, 83, 89
2,25040, Note_on_c, 0, 52, 59
2,25048, Note_on_c, 0, 55, 42
2,25068, Note_on_c, 0, 83, 0
2,25075, Note_on_c, 0, 52, 0
2,25078, Note_on_c, 0, 55, 0
2,25125, Note_on_c, 0, 64, 63
2,25192, Note_on_c, 0, 64, 0
2,25252, Note_on_c, 0, 54, 63
2,25262, Note_on_c, 0, 81, 81
2,25263, Note_on_c, 0, 83, 78
2,25277, Note_on_c, 0, 83, 0
2,25279, Note_on_c, 0, 81, 0
2,25303, Note_on_c, 0, 54, 0
2,25359, Note_on_c, 0, 64, 54
2,25439, Note_on_c, 0, 64, 0
2,25484, Note_on_c, 0, 54, 62
2,25492, Note_on_c, 0, 69, 83
2,25518, Note_on_c, 0, 69, 0
2,25530, Note_on_c, 0, 54, 0
2,25590, Note_on_c, 0, 64, 57
2,25652, Note_on_c, 0, 64, 0
2,25700, Note_on_c, 0, 81, 89
2,25710, Note_on_c, 0, 54, 52
2,25713, Note_on_c, 0, 50, 51
2,25733, Note_on_c, 0, 81, 0
2,25765, Note_on_c, 0, 54, 0
2,25770, Note_on_c, 0, 50, 0
2,25817, Note_on_c, 0, 62, 57
2,25910, Note_on_c, 0, 62, 0
2,25919, Note_on_c, 0, 79, 86
2,25922, Note_on_c, 0, 52, 64
2,25952, Note_on_c, 0, 79, 0
2,25974, Note_on_c, 0, 52, 0
2,26030, Note_on_c, 0, 62, 58
2,26076, Note_on_c, 0, 62, 0
2,26130, Note_on_c, 0, 57, 60
2,26133, Note_on_c, 0, 81, 82
2,26134, Note_on_c, 0, 61, 64
2,26176, Note_on_c, 0, 81, 0
2,26186, Note_on_c, 0, 57, 0
2,26189, Note_on_c, 0, 61, 0
2,26243, Note_on_c, 0, 64, 64
2,26249, Note_on_c, 0, 79, 73
2,26284, Note_on_c, 0, 79, 0
2,26318, Note_on_c, 0, 64, 0
2,26331, Note_on_c, 0, 57, 59
2,26352, Note_on_c, 0, 78, 80
2,26378, Note_on_c, 0, 57, 0
2,26400, Note_on_c, 0, 78, 0
2,26441, Note_on_c, 0, 61, 58
2,26446, Note_on_c, 0, 76, 79
2,26474, Note_on_c, 0, 61, 0
2,26485, Note_on_c, 0, 76, 0
2,26551, Note_on_c, 0, 50, 65
2,26555, Note_on_c, 0, 78, 83
2,26560, Note_on_c, 0, 62, 60
2,26590, Note_on_c, 0, 50, 0
2,26603, Note_on_c, 0, 62, 0
2,26603, Note_on_c, 0, 78, 0
2,26654, Note_on_c, 0, 81, 80
2,26680, Note_on_c, 0, 61, 67
2,26708, Note_on_c, 0, 81, 0
2,26714, Note_on_c, 0, 61, 0
2,26768, Note_on_c, 0, 79, 75
2,26781, Note_on_c, 0, 62, 65
2,26807, Note_on_c, 0, 79, 0
2,26813, Note_on_c, 0, 62, 0
2,26852, Note_on_c, 0, 64, 75
2,26862, Note_on_c, 0, 78, 82
2,26885, Note_on_c, 0, 64, 0
2,26918, Note_on_c, 0, 78, 0
2,26976, Note_on_c, 0, 59, 68
2,26976, Note_on_c, 0, 76, 83
2,26994, Note_on_c, 0, 66, 72
2,27010, Note_on_c, 0, 59, 0
2,27014, Note_on_c, 0, 76, 0
2,27032, Note_on_c, 0, 66, 0
2,27072, Note_on_c, 0, 74, 75
2,27098, Note_on_c, 0, 68, 72
2,27115, Note_on_c, 0, 74, 0
2,27166, Note_on_c, 0, 68, 0
2,27184, Note_on_c, 0, 73, 83
2,27199, Note_on_c, 0, 69, 77
2,27200, Note_on_c, 0, 66, 66
2,27214, Note_on_c, 0, 73, 0
2,27236, Note_on_c, 0, 69, 0
2,27244, Note_on_c, 0, 66, 0
2,27295, Note_on_c, 0, 68, 73
2,27355, Note_on_c, 0, 68, 0
2,27397, Note_on_c, 0, 69, 72
2,27404, Note_on_c, 0, 74, 83
2,27424, Note_on_c, 0, 74, 0
2,27441, Note_on_c, 0, 69, 0
2,27495, Note_on_c, 0, 71, 70
2,27521, Note_on_c, 0, 71, 0
2,27606, Note_on_c, 0, 76, 86
2,27609, Note_on_c, 0, 69, 73
2,27615, Note_on_c, 0, 61, 71
2,27639, Note_on_c, 0, 69, 0
2,27658, Note_on_c, 0, 61, 0
2,27713, Note_on_c, 0, 68, 75
2,27771, Note_on_c, 0, 68, 0
2,27823, Note_on_c, 0, 66, 80
2,27832, Note_on_c, 0, 62, 79
2,27875, Note_on_c, 0, 66, 0
2,27904, Note_on_c, 0, 62, 0
2,27928, Note_on_c, 0, 64, 72
2,28004, Note_on_c, 0, 64, 0
2,28041, Note_on_c, 0, 66, 75
2,28043, Note_on_c, 0, 74, 76
2,28049, Note_on_c, 0, 76, 0
2,28063, Note_on_c, 0, 74, 0
2,28102, Note_on_c, 0, 66, 0
2,28146, Note_on_c, 0, 68, 69
2,28194, Note_on_c, 0, 68, 0
2,28251, Note_on_c, 0, 69, 69
2,28253, Note_on_c, 0, 73, 80
2,28256, Note_on_c, 0, 63, 63
2,28276, Note_on_c, 0, 69, 0
2,28286, Note_on_c, 0, 73, 0
2,28291, Note_on_c, 0, 63, 0
2,28365, Note_on_c, 0, 66, 68
2,28401, Note_on_c, 0, 66, 0
2,28483, Note_on_c, 0, 68, 79
2,28485, Note_on_c, 0, 64, 81
2,28486, Note_on_c, 0, 71, 69
2,28506, Note_on_c, 0, 64, 0
2,28516, Note_on_c, 0, 68, 0
2,28520, Note_on_c, 0, 71, 0
2,28597, Note_on_c, 0, 64, 72
2,28641, Note_on_c, 0, 64, 0
2,28701, Note_on_c, 0, 66, 75
2,28703, Note_on_c, 0, 69, 76
2,28726, Note_on_c, 0, 66, 0
2,28728, Note_on_c, 0, 69, 0
2,28798, Note_on_c, 0, 64, 69
2,28857, Note_on_c, 0, 64, 0
2,28908, Note_on_c, 0, 52, 86
2,28910, Note_on_c, 0, 68, 78
2,28917, Note_on_c, 0, 71, 71
2,28946, Note_on_c, 0, 68, 0
2,28952, Note_on_c, 0, 71, 0
2,29028, Note_on_c, 0, 64, 69
2,29128, Note_on_c, 0, 49, 86
2,29134, Note_on_c, 0, 69, 75
2,29135, Note_on_c, 0, 73, 79
2,29143, Note_on_c, 0, 52, 0
2,29151, Note_on_c, 0, 64, 0
2,29153, Note_on_c, 0, 49, 0
2,29158, Note_on_c, 0, 69, 0
2,29174, Note_on_c, 0, 73, 0
2,29252, Note_on_c, 0, 64, 72
2,29312, Note_on_c, 0, 64, 0
2,29358, Note_on_c, 0, 45, 86
2,29365, Note_on_c, 0, 73, 75
2,29367, Note_on_c, 0, 76, 73
2,29383, Note_on_c, 0, 45, 0
2,29402, Note_on_c, 0, 73, 0
2,29412, Note_on_c, 0, 76, 0
2,29470, Note_on_c, 0, 64, 71
2,29516, Note_on_c, 0, 64, 0
2,29577, Note_on_c, 0, 44, 81
2,29580, Note_on_c, 0, 74, 74
2,29582, Note_on_c, 0, 71, 75
2,29606, Note_on_c, 0, 44, 0
2,29606, Note_on_c, 0, 71, 0
2,29624, Note_on_c, 0, 74, 0
2,29681, Note_on_c, 0, 64, 68
2,29722, Note_on_c, 0, 64, 0
2,29787, Note_on_c, 0, 71, 69
2,29799, Note_on_c, 0, 45, 90
2,29804, Note_on_c, 0, 73, 80
2,29831, Note_on_c, 0, 45, 0
2,29910, Note_on_c, 0, 71, 0
2,29916, Note_on_c, 0, 69, 76
2,29970, Note_on_c, 0, 69, 0
2,30026, Note_on_c, 0, 47, 87
2,30064, Note_on_c, 0, 47, 0
2,30130, Note_on_c, 0, 68, 82
2,30132, Note_on_c, 0, 49, 78
2,30147, Note_on_c, 0, 73, 0
2,30174, Note_on_c, 0, 68, 0
2,30181, Note_on_c, 0, 49, 0
2,30241, Note_on_c, 0, 50, 88
2,30244, Note_on_c, 0, 66, 86
2,30265, Note_on_c, 0, 66, 0
2,30275, Note_on_c, 0, 50, 0
2,30346, Note_on_c, 0, 52, 92
2,30346, Note_on_c, 0, 64, 77
2,30373, Note_on_c, 0, 52, 0
2,30380, Note_on_c, 0, 64, 0
2,30455, Note_on_c, 0, 62, 82
2,30458, Note_on_c, 0, 54, 95
2,30493, Note_on_c, 0, 54, 0
2,30502, Note_on_c, 0, 62, 0
2,30566, Note_on_c, 0, 73, 66
2,30633, Note_on_c, 0, 73, 0
2,30671, Note_on_c, 0, 42, 95
2,30675, Note_on_c, 0, 62, 82
2,30678, Note_on_c, 0, 69, 76
2,30712, Note_on_c, 0, 42, 0
2,30713, Note_on_c, 0, 62, 0
2,30776, Note_on_c, 0, 69, 0
2,30789, Note_on_c, 0, 73, 69
2,30875, Note_on_c, 0, 73, 0
2,30901, Note_on_c, 0, 54, 90
2,30905, Note_on_c, 0, 62, 82
2,30909, Note_on_c, 0, 68, 75
2,30935, Note_on_c, 0, 54, 0
2,30950, Note_on_c, 0, 62, 0
2,30957, Note_on_c, 0, 68, 0
2,31011, Note_on_c, 0, 71, 70
2,31079, Note_on_c, 0, 71, 0
2,31122, Note_on_c, 0, 52, 88
2,31127, Note_on_c, 0, 61, 84
2,31157, Note_on_c, 0, 52, 0
2,31176, Note_on_c, 0, 61, 0
2,31229, Note_on_c, 0, 71, 62
2,31305, Note_on_c, 0, 71, 0
2,31341, Note_on_c, 0, 40, 80
2,31349, Note_on_c, 0, 68, 65
2,31353, Note_on_c, 0, 61, 74
2,31386, Note_on_c, 0, 40, 0
2,31390, Note_on_c, 0, 61, 0
2,31437, Note_on_c, 0, 68, 0
2,31446, Note_on_c, 0, 71, 60
2,31547, Note_on_c, 0, 71, 0
2,31566, Note_on_c, 0, 52, 86
2,31568, Note_on_c, 0, 61, 69
2,31569, Note_on_c, 0, 66, 67
2,31601, Note_on_c, 0, 52, 0
2,31608, Note_on_c, 0, 61, 0
2,31617, Note_on_c, 0, 66, 0
2,31673, Note_on_c, 0, 69, 66
2,31743, Note_on_c, 0, 69, 0
2,31782, Note_on_c, 0, 50, 82
2,31790, Note_on_c, 0, 59, 75
2,31816, Note_on_c, 0, 50, 0
2,31847, Note_on_c, 0, 59, 0
2,31888, Note_on_c, 0, 69, 68
2,31966, Note_on_c, 0, 69, 0
2,31997, Note_on_c, 0, 52, 74
2,32006, Note_on_c, 0, 64, 69
2,32008, Note_on_c, 0, 68, 67
2,32028, Note_on_c, 0, 52, 0
2,32048, Note_on_c, 0, 64, 0
2,32103, Note_on_c, 0, 50, 75
2,32116, Note_on_c, 0, 71, 66
2,32131, Note_on_c, 0, 68, 0
2,32136, Note_on_c, 0, 50, 0
2,32220, Note_on_c, 0, 49, 75
2,32227, Note_on_c, 0, 64, 68
2,32227, Note_on_c, 0, 71, 0
2,32229, Note_on_c, 0, 62, 65
2,32252, Note_on_c, 0, 49, 0
2,32264, Note_on_c, 0, 62, 0
2,32296, Note_on_c, 0, 64, 0
2,32330, Note_on_c, 0, 47, 74
2,32338, Note_on_c, 0, 68, 66
2,32369, Note_on_c, 0, 47, 0
2,32424, Note_on_c, 0, 68, 0
2,32455, Note_on_c, 0, 49, 73
2,32462, Note_on_c, 0, 69, 69
2,32501, Note_on_c, 0, 49, 0
2,32567, Note_on_c, 0, 52, 76
2,32596, Note_on_c, 0, 52, 0
2,32681, Note_on_c, 0, 57, 67
2,32690, Note_on_c, 0, 61, 73
2,32693, Note_on_c, 0, 64, 65
2,32710, Note_on_c, 0, 69, 0
2,32713, Note_on_c, 0, 57, 0
2,32721, Note_on_c, 0, 61, 0
2,32727, Note_on_c, 0, 64, 0
2,32789, Note_on_c, 0, 52, 71
2,32820, Note_on_c, 0, 52, 0
2,32904, Note_on_c, 0, 51, 66
2,32907, Note_on_c, 0, 60, 69
2,32909, Note_on_c, 0, 66, 66
2,32942, Note_on_c, 0, 51, 0
2,32946, Note_on_c, 0, 66, 0
2,33010, Note_on_c, 0, 57, 68
2,33047, Note_on_c, 0, 57, 0
2,33125, Note_on_c, 0, 67, 79
2,33127, Note_on_c, 0, 52, 74
2,33160, Note_on_c, 0, 60, 0
2,33161, Note_on_c, 0, 67, 0
2,33163, Note_on_c, 0, 52, 0
2,33231, Note_on_c, 0, 55, 73
2,33274, Note_on_c, 0, 55, 0
2,33332, Note_on_c, 0, 54, 72
2,33347, Note_on_c, 0, 59, 68
2,33348, Note_on_c, 0, 68, 69
2,33373, Note_on_c, 0, 59, 0
2,33383, Note_on_c, 0, 54, 0
2,33391, Note_on_c, 0, 68, 0
2,33443, Note_on_c, 0, 52, 68
2,33497, Note_on_c, 0, 52, 0
2,33552, Note_on_c, 0, 50, 71
2,33562, Note_on_c, 0, 64, 68
2,33565, Note_on_c, 0, 70, 73
2,33593, Note_on_c, 0, 50, 0
2,33599, Note_on_c, 0, 70, 0
2,33656, Note_on_c, 0, 49, 79
2,33727, Note_on_c, 0, 49, 0
2,33778, Note_on_c, 0, 50, 71
2,33782, Note_on_c, 0, 71, 79
2,33786, Note_on_c, 0, 64, 0
2,33834, Note_on_c, 0, 50, 0
2,33888, Note_on_c, 0, 54, 77
2,33941, Note_on_c, 0, 54, 0
2,34008, Note_on_c, 0, 66, 82
2,34011, Note_on_c, 0, 59, 72
2,34011, Note_on_c, 0, 63, 75
2,34042, Note_on_c, 0, 63, 0
2,34045, Note_on_c, 0, 71, 0
2,34051, Note_on_c, 0, 66, 0
2,34057, Note_on_c, 0, 59, 0
2,34108, Note_on_c, 0, 54, 76
2,34159, Note_on_c, 0, 54, 0
2,34217, Note_on_c, 0, 53, 85
2,34223, Note_on_c, 0, 68, 80
2,34228, Note_on_c, 0, 62, 77
2,34262, Note_on_c, 0, 53, 0
2,34279, Note_on_c, 0, 68, 0
2,34327, Note_on_c, 0, 59, 78
2,34381, Note_on_c, 0, 59, 0
2,34433, Note_on_c, 0, 54, 86
2,34439, Note_on_c, 0, 69, 84
2,34474, Note_on_c, 0, 62, 0
2,34486, Note_on_c, 0, 69, 0
2,34497, Note_on_c, 0, 54, 0
2,34540, Note_on_c, 0, 57, 85
2,34604, Note_on_c, 0, 57, 0
2,34656, Note_on_c, 0, 56, 85
2,34661, Note_on_c, 0, 61, 83
2,34662, Note_on_c, 0, 70, 82
2,34693, Note_on_c, 0, 61, 0
2,34707, Note_on_c, 0, 70, 0
2,34713, Note_on_c, 0, 56, 0
2,34757, Note_on_c, 0, 54, 83
2,34822, Note_on_c, 0, 54, 0
2,34867, Note_on_c, 0, 72, 70
2,34868, Note_on_c, 0, 53, 90
2,34874, Note_on_c, 0, 66, 79
2,34918, Note_on_c, 0, 53, 0
2,34941, Note_on_c, 0, 72, 0
2,34981, Note_on_c, 0, 51, 91
2,35032, Note_on_c, 0, 51, 0
2,35090, Note_on_c, 0, 49, 92
2,35090, Note_on_c, 0, 73, 81
2,35149, Note_on_c, 0, 49, 0
2,35194, Note_on_c, 0, 50, 88
2,35231, Note_on_c, 0, 50, 0
2,35276, Note_on_c, 0, 66, 0
2,35305, Note_on_c, 0, 65, 82
2,35306, Note_on_c, 0, 49, 91
2,35331, Note_on_c, 0, 73, 0
2,35359, Note_on_c, 0, 65, 0
2,35368, Note_on_c, 0, 49, 0
2,35412, Note_on_c, 0, 47, 94
2,35461, Note_on_c, 0, 47, 0
2,35519, Note_on_c, 0, 45, 89
2,35540, Note_on_c, 0, 73, 85
2,35557, Note_on_c, 0, 45, 0
2,35626, Note_on_c, 0, 44, 88
2,35681, Note_on_c, 0, 44, 0
2,35752, Note_on_c, 0, 42, 87
2,35755, Note_on_c, 0, 69, 86
2,35792, Note_on_c, 0, 69, 0
2,35794, Note_on_c, 0, 73, 0
2,35796, Note_on_c, 0, 42, 0
2,35853, Note_on_c, 0, 54, 82
2,35885, Note_on_c, 0, 54, 0
2,35960, Note_on_c, 0, 56, 84
2,35968, Note_on_c, 0, 69, 77
2,35969, Note_on_c, 0, 66, 79
2,35994, Note_on_c, 0, 66, 0
2,36004, Note_on_c, 0, 69, 0
2,36016, Note_on_c, 0, 56, 0
2,36068, Note_on_c, 0, 57, 85
2,36109, Note_on_c, 0, 57, 0
2,36182, Note_on_c, 0, 68, 80
2,36183, Note_on_c, 0, 65, 81
2,36186, Note_on_c, 0, 59, 86
2,36213, Note_on_c, 0, 65, 0
2,36218, Note_on_c, 0, 68, 0
2,36225, Note_on_c, 0, 59, 0
2,36289, Note_on_c, 0, 61, 85
2,36345, Note_on_c, 0, 61, 0
2,36395, Note_on_c, 0, 62, 88
2,36396, Note_on_c, 0, 66, 90
2,36433, Note_on_c, 0, 66, 0
2,36442, Note_on_c, 0, 62, 0
2,36505, Note_on_c, 0, 64, 79
2,36549, Note_on_c, 0, 64, 0
2,36602, Note_on_c, 0, 62, 82
2,36604, Note_on_c, 0, 68, 79
2,36642, Note_on_c, 0, 62, 0
2,36662, Note_on_c, 0, 68, 0
2,36708, Note_on_c, 0, 70, 73
2,36713, Note_on_c, 0, 61, 79
2,36733, Note_on_c, 0, 70, 0
2,36741, Note_on_c, 0, 61, 0
2,36817, Note_on_c, 0, 71, 73
2,36823, Note_on_c, 0, 59, 73
2,36850, Note_on_c, 0, 59, 0
2,36860, Note_on_c, 0, 71, 0
2,36925, Note_on_c, 0, 58, 73
2,36926, Note_on_c, 0, 73, 78
2,36959, Note_on_c, 0, 73, 0
2,36964, Note_on_c, 0, 58, 0
2,37044, Note_on_c, 0, 59, 82
2,37044, Note_on_c, 0, 74, 79
2,37064, Note_on_c, 0, 59, 0
2,37080, Note_on_c, 0, 74, 0
2,37143, Note_on_c, 0, 81, 76
2,37194, Note_on_c, 0, 81, 0
2,37258, Note_on_c, 0, 71, 79
2,37264, Note_on_c, 0, 62, 79
2,37291, Note_on_c, 0, 62, 0
2,37297, Note_on_c, 0, 71, 0
2,37361, Note_on_c, 0, 81, 74
2,37420, Note_on_c, 0, 81, 0
2,37470, Note_on_c, 0, 74, 76
2,37471, Note_on_c, 0, 71, 74
2,37472, Note_on_c, 0, 52, 71
2,37496, Note_on_c, 0, 71, 0
2,37506, Note_on_c, 0, 52, 0
2,37512, Note_on_c, 0, 74, 0
2,37576, Note_on_c, 0, 80, 73
2,37680, Note_on_c, 0, 80, 0
2,37693, Note_on_c, 0, 73, 76
2,37695, Note_on_c, 0, 57, 75
2,37698, Note_on_c, 0, 69, 78
2,37718, Note_on_c, 0, 57, 0
2,37723, Note_on_c, 0, 69, 0
2,37732, Note_on_c, 0, 73, 0
2,37802, Note_on_c, 0, 80, 74
2,37891, Note_on_c, 0, 80, 0
2,37916, Note_on_c, 0, 61, 76
2,37916, Note_on_c, 0, 69, 81
2,37949, Note_on_c, 0, 61, 0
2,37953, Note_on_c, 0, 69, 0
2,38027, Note_on_c, 0, 80, 66
2,38117, Note_on_c, 0, 80, 0
2,38123, Note_on_c, 0, 62, 76
2,38130, Note_on_c, 0, 73, 75
2,38134, Note_on_c, 0, 69, 73
2,38172, Note_on_c, 0, 69, 0
2,38218, Note_on_c, 0, 73, 0
2,38237, Note_on_c, 0, 78, 77
2,38344, Note_on_c, 0, 71, 75
2,38349, Note_on_c, 0, 68, 78
2,38355, Note_on_c, 0, 78, 0
2,38399, Note_on_c, 0, 68, 0
2,38423, Note_on_c, 0, 71, 0
2,38465, Note_on_c, 0, 78, 77
2,38524, Note_on_c, 0, 78, 0
2,38575, Note_on_c, 0, 73, 76
2,38575, Note_on_c, 0, 77, 76
2,38586, Note_on_c, 0, 61, 71
2,38608, Note_on_c, 0, 62, 0
2,38639, Note_on_c, 0, 73, 0
2,38648, Note_on_c, 0, 61, 0
2,38677, Note_on_c, 0, 77, 0
2,38682, Note_on_c, 0, 80, 75
2,38689, Note_on_c, 0, 71, 75
2,38734, Note_on_c, 0, 71, 0
2,38796, Note_on_c, 0, 73, 81
2,38799, Note_on_c, 0, 69, 76
2,38823, Note_on_c, 0, 80, 0
2,38839, Note_on_c, 0, 69, 0
2,38868, Note_on_c, 0, 73, 0
2,38894, Note_on_c, 0, 68, 83
2,38900, Note_on_c, 0, 77, 78
2,38930, Note_on_c, 0, 68, 0
2,38963, Note_on_c, 0, 77, 0
2,39013, Note_on_c, 0, 69, 77
2,39015, Note_on_c, 0, 78, 80
2,39036, Note_on_c, 0, 78, 0
2,39102, Note_on_c, 0, 59, 78
2,39136, Note_on_c, 0, 59, 0
2,39222, Note_on_c, 0, 57, 75
2,39233, Note_on_c, 0, 73, 82
2,39258, Note_on_c, 0, 73, 0
2,39260, Note_on_c, 0, 57, 0
2,39331, Note_on_c, 0, 56, 77
2,39377, Note_on_c, 0, 56, 0
2,39434, Note_on_c, 0, 54, 74
2,39444, Note_on_c, 0, 78, 83
2,39481, Note_on_c, 0, 54, 0
2,39537, Note_on_c, 0, 52, 76
2,39566, Note_on_c, 0, 52, 0
2,39657, Note_on_c, 0, 51, 91
2,39692, Note_on_c, 0, 51, 0
2,39701, Note_on_c, 0, 78, 0
2,39748, Control_c, 0, 64, 10
2,39754, Note_on_c, 0, 76, 69
2,39763, Control_c, 0, 64, 13
2,39777, Note_on_c, 0, 76, 0
2,39778, Control_c, 0, 64, 0
2,39876, Note_on_c, 0, 59, 92
2,39876, Note_on_c, 0, 75, 77
2,39916, Note_on_c, 0, 75, 0
2,39931, Note_on_c, 0, 69, 0
2,39981, Note_on_c, 0, 69, 35
2,39987, Note_on_c, 0, 73, 81
2,40019, Note_on_c, 0, 73, 0
2,40027, Note_on_c, 0, 69, 0
2,40104, Note_on_c, 0, 71, 82
2,40200, Note_on_c, 0, 69, 87
2,40221, Note_on_c, 0, 71, 0
2,40308, Note_on_c, 0, 67, 82
2,40339, Note_on_c, 0, 69, 0
2,40405, Note_on_c, 0, 66, 81
2,40409, Note_on_c, 0, 57, 75
2,40420, Note_on_c, 0, 67, 0
2,40429, Note_on_c, 0, 59, 0
2,40440, Note_on_c, 0, 57, 0
2,40449, Note_on_c, 0, 66, 0
2,40521, Note_on_c, 0, 64, 83
2,40521, Note_on_c, 0, 71, 81
2,40522, Note_on_c, 0, 55, 84
2,40542, Note_on_c, 0, 64, 0
2,40545, Note_on_c, 0, 71, 0
2,40561, Note_on_c, 0, 55, 0
2,40624, Note_on_c, 0, 54, 83
2,40660, Note_on_c, 0, 54, 0
2,40741, Note_on_c, 0, 76, 86
2,40742, Note_on_c, 0, 67, 82
2,40749, Note_on_c, 0, 52, 91
2,40784, Note_on_c, 0, 52, 0
2,40852, Note_on_c, 0, 50, 83
2,40887, Note_on_c, 0, 50, 0
2,40966, Note_on_c, 0, 49, 97
2,40992, Note_on_c, 0, 49, 0
2,41071, Note_on_c, 0, 74, 66
2,41074, Note_on_c, 0, 76, 0
2,41101, Note_on_c, 0, 74, 0
2,41184, Note_on_c, 0, 57, 90
2,41194, Note_on_c, 0, 73, 71
2,41288, Note_on_c, 0, 71, 74
2,41291, Note_on_c, 0, 73, 0
2,41310, Note_on_c, 0, 67, 0
2,41325, Note_on_c, 0, 71, 0
2,41406, Note_on_c, 0, 69, 85
2,41518, Note_on_c, 0, 67, 82
2,41574, Note_on_c, 0, 69, 0
2,41628, Note_on_c, 0, 66, 85
2,41638, Note_on_c, 0, 67, 0
2,41642, Control_c, 0, 64, 21
2,41657, Control_c, 0, 64, 20
2,41673, Control_c, 0, 64, 0
2,41703, Control_c, 0, 64, 23
2,41718, Control_c, 0, 64, 32
2,41723, Note_on_c, 0, 55, 68
2,41728, Note_on_c, 0, 64, 75
2,41733, Control_c, 0, 64, 33
2,41738, Note_on_c, 0, 66, 0
2,41748, Control_c, 0, 64, 29
2,41758, Note_on_c, 0, 57, 0
2,41763, Control_c, 0, 64, 18
2,41778, Control_c, 0, 64, 24
2,41780, Note_on_c, 0, 64, 0
2,41792, Note_on_c, 0, 55, 0
2,41793, Control_c, 0, 64, 37
2,41808, Control_c, 0, 64, 42
2,41823, Control_c, 0, 64, 43
2,41839, Control_c, 0, 64, 40
2,41840, Note_on_c, 0, 54, 89
2,41843, Note_on_c, 0, 69, 88
2,41845, Note_on_c, 0, 62, 84
2,41854, Control_c, 0, 64, 35
2,41868, Note_on_c, 0, 62, 0
2,41870, Control_c, 0, 64, 39
2,41876, Note_on_c, 0, 69, 0
2,41879, Note_on_c, 0, 54, 0
2,41885, Control_c, 0, 64, 46
2,41900, Control_c, 0, 64, 47
2,41915, Control_c, 0, 64, 44
2,41930, Control_c, 0, 64, 35
2,41945, Control_c, 0, 64, 32
2,41948, Note_on_c, 0, 52, 93
2,41961, Control_c, 0, 64, 39
2,41975, Control_c, 0, 64, 41
2,41982, Note_on_c, 0, 52, 0
2,41991, Control_c, 0, 64, 36
2,42006, Control_c, 0, 64, 20
2,42021, Control_c, 0, 64, 0
2,42047, Note_on_c, 0, 66, 85
2,42053, Note_on_c, 0, 50, 88
2,42053, Note_on_c, 0, 74, 82
2,42091, Note_on_c, 0, 50, 0
2,42158, Note_on_c, 0, 49, 89
2,42162, Note_on_c, 0, 66, 0
2,42197, Note_on_c, 0, 49, 0
2,42279, Note_on_c, 0, 47, 97
2,42300, Note_on_c, 0, 47, 0
2,42368, Note_on_c, 0, 66, 83
2,42377, Note_on_c, 0, 74, 0
2,42415, Note_on_c, 0, 66, 0
2,42499, Note_on_c, 0, 64, 82
2,42500, Note_on_c, 0, 55, 90
2,42613, Note_on_c, 0, 74, 76
2,42727, Note_on_c, 0, 73, 80
2,42759, Control_c, 0, 64, 54
2,42768, Note_on_c, 0, 74, 0
2,42769, Note_on_c, 0, 64, 0
2,42774, Control_c, 0, 64, 63
2,42790, Control_c, 0, 64, 65
2,42804, Control_c, 0, 64, 68
2,42819, Control_c, 0, 64, 71
2,42832, Note_on_c, 0, 71, 82
2,42835, Control_c, 0, 64, 75
2,42850, Control_c, 0, 64, 79
2,42864, Note_on_c, 0, 73, 0
2,42865, Control_c, 0, 64, 81
2,42880, Control_c, 0, 64, 82
2,42895, Control_c, 0, 64, 84
2,42911, Control_c, 0, 64, 85
2,42926, Control_c, 0, 64, 87
2,42939, Note_on_c, 0, 70, 89
2,42941, Control_c, 0, 64, 89
2,42951, Note_on_c, 0, 55, 0
2,42955, Note_on_c, 0, 71, 0
2,42956, Control_c, 0, 64, 90
2,42971, Control_c, 0, 64, 90
2,42987, Control_c, 0, 64, 91
2,43002, Control_c, 0, 64, 91
2,43007, Note_on_c, 0, 70, 0
2,43040, Control_c, 0, 64, 92
2,43049, Note_on_c, 0, 64, 82
2,43098, Note_on_c, 0, 64, 0
2,43132, Control_c, 0, 64, 91
2,43148, Control_c, 0, 64, 88
2,43161, Note_on_c, 0, 62, 84
2,43163, Control_c, 0, 64, 78
2,43164, Note_on_c, 0, 71, 86
2,43169, Note_on_c, 0, 54, 73
2,43178, Control_c, 0, 64, 66
2,43184, Note_on_c, 0, 71, 0
2,43193, Control_c, 0, 64, 0
2,43205, Note_on_c, 0, 62, 0
2,43273, Note_on_c, 0, 61, 83
2,43305, Note_on_c, 0, 61, 0
2,43375, Note_on_c, 0, 59, 88
2,43385, Note_on_c, 0, 73, 87
2,43413, Note_on_c, 0, 73, 0
2,43418, Note_on_c, 0, 59, 0
2,43482, Note_on_c, 0, 58, 82
2,43524, Note_on_c, 0, 58, 0
2,43588, Note_on_c, 0, 59, 89
2,43595, Note_on_c, 0, 74, 86
2,43615, Note_on_c, 0, 54, 0
2,43636, Note_on_c, 0, 59, 0
2,43692, Note_on_c, 0, 52, 83
2,43726, Note_on_c, 0, 52, 0
2,43814, Note_on_c, 0, 50, 89
2,43821, Note_on_c, 0, 66, 88
2,43858, Note_on_c, 0, 50, 0
2,43859, Note_on_c, 0, 66, 0
2,43918, Note_on_c, 0, 49, 81
2,43959, Note_on_c, 0, 49, 0
2,44025, Note_on_c, 0, 47, 87
2,44034, Note_on_c, 0, 71, 83
2,44083, Note_on_c, 0, 47, 0
2,44126, Note_on_c, 0, 45, 88
2,44173, Note_on_c, 0, 45, 0
2,44240, Note_on_c, 0, 43, 97
2,44285, Note_on_c, 0, 43, 0
2,44345, Note_on_c, 0, 73, 82
2,44368, Note_on_c, 0, 74, 0
2,44370, Note_on_c, 0, 71, 0
2,44389, Note_on_c, 0, 73, 0
2,44459, Note_on_c, 0, 59, 81
2,44465, Note_on_c, 0, 55, 73
2,44468, Note_on_c, 0, 74, 90
2,44487, Note_on_c, 0, 59, 0
2,44501, Note_on_c, 0, 74, 0
2,44576, Note_on_c, 0, 76, 94
2,44618, Note_on_c, 0, 76, 0
2,44686, Note_on_c, 0, 78, 94
2,44687, Note_on_c, 0, 64, 76
2,44713, Note_on_c, 0, 64, 0
2,44737, Note_on_c, 0, 78, 0
2,44787, Note_on_c, 0, 79, 80
2,44830, Note_on_c, 0, 79, 0
2,44919, Note_on_c, 0, 54, 84
2,44922, Note_on_c, 0, 70, 86
2,44944, Note_on_c, 0, 55, 0
2,44988, Note_on_c, 0, 70, 0
2,45035, Note_on_c, 0, 67, 81
2,45090, Note_on_c, 0, 67, 0
2,45149, Note_on_c, 0, 66, 80
2,45209, Note_on_c, 0, 66, 0
2,45242, Note_on_c, 0, 64, 78
2,45284, Note_on_c, 0, 64, 0
2,45318, Note_on_c, 0, 54, 0
2,45367, Note_on_c, 0, 62, 82
2,45414, Note_on_c, 0, 62, 0
2,45467, Note_on_c, 0, 61, 80
2,45523, Note_on_c, 0, 61, 0
2,45581, Note_on_c, 0, 62, 85
2,45617, Note_on_c, 0, 62, 0
2,45675, Note_on_c, 0, 47, 75
2,45712, Note_on_c, 0, 47, 0
2,45785, Note_on_c, 0, 49, 77
2,45795, Note_on_c, 0, 59, 81
2,45825, Note_on_c, 0, 59, 0
2,45830, Note_on_c, 0, 49, 0
2,45897, Note_on_c, 0, 50, 82
2,45936, Note_on_c, 0, 50, 0
2,46000, Note_on_c, 0, 58, 83
2,46001, Note_on_c, 0, 52, 85
2,46035, Note_on_c, 0, 52, 0
2,46035, Note_on_c, 0, 58, 0
2,46102, Note_on_c, 0, 54, 89
2,46155, Note_on_c, 0, 54, 0
2,46223, Note_on_c, 0, 55, 91
2,46223, Note_on_c, 0, 59, 89
2,46257, Note_on_c, 0, 55, 0
2,46259, Note_on_c, 0, 59, 0
2,46437, Note_on_c, 0, 61, 79
2,46442, Note_on_c, 0, 52, 88
2,46480, Note_on_c, 0, 52, 0
2,46484, Note_on_c, 0, 61, 0
2,46541, Note_on_c, 0, 63, 81
2,46593, Note_on_c, 0, 63, 0
2,46642, Note_on_c, 0, 64, 83
2,46654, Note_on_c, 0, 51, 82
2,46689, Note_on_c, 0, 64, 0
2,46704, Note_on_c, 0, 51, 0
2,46736, Note_on_c, 0, 66, 88
2,46794, Note_on_c, 0, 66, 0
2,46858, Note_on_c, 0, 67, 95
2,46859, Note_on_c, 0, 52, 83
2,46892, Note_on_c, 0, 52, 0
2,46899, Note_on_c, 0, 67, 0
2,47076, Note_on_c, 0, 54, 72
2,47088, Note_on_c, 0, 64, 92
2,47117, Note_on_c, 0, 64, 0
2,47120, Note_on_c, 0, 54, 0
2,47182, Note_on_c, 0, 55, 85
2,47223, Note_on_c, 0, 55, 0
2,47286, Note_on_c, 0, 57, 84
2,47290, Note_on_c, 0, 63, 94
2,47320, Note_on_c, 0, 63, 0
2,47330, Note_on_c, 0, 57, 0
2,47389, Note_on_c, 0, 59, 90
2,47426, Note_on_c, 0, 59, 0
2,47498, Note_on_c, 0, 64, 93
2,47501, Note_on_c, 0, 60, 94
2,47530, Note_on_c, 0, 60, 0
2,47535, Note_on_c, 0, 64, 0
2,47607, Note_on_c, 0, 79, 76
2,47657, Note_on_c, 0, 79, 0
2,47728, Note_on_c, 0, 48, 90
2,47732, Note_on_c, 0, 69, 84
2,47762, Note_on_c, 0, 48, 0
2,47776, Note_on_c, 0, 69, 0
2,47840, Note_on_c, 0, 79, 73
2,47905, Note_on_c, 0, 79, 0
2,47936, Control_c, 0, 64, 17
2,47944, Note_on_c, 0, 64, 78
2,47946, Note_on_c, 0, 60, 79
2,47948, Note_on_c, 0, 69, 77
2,47952, Control_c, 0, 64, 15
2,47967, Control_c, 0, 64, 0
2,47969, Note_on_c, 0, 60, 0
2,47975, Note_on_c, 0, 64, 0
2,48008, Note_on_c, 0, 69, 0
2,48012, Control_c, 0, 64, 13
2,48029, Control_c, 0, 64, 18
2,48044, Control_c, 0, 64, 13
2,48051, Note_on_c, 0, 78, 74
2,48059, Control_c, 0, 64, 0
2,48104, Control_c, 0, 64, 10
2,48120, Control_c, 0, 64, 13
2,48135, Control_c, 0, 64, 0
2,48145, Note_on_c, 0, 78, 0
2,48161, Note_on_c, 0, 63, 82
2,48162, Note_on_c, 0, 59, 82
2,48163, Note_on_c, 0, 67, 87
2,48182, Note_on_c, 0, 63, 0
2,48196, Control_c, 0, 64, 23
2,48196, Note_on_c, 0, 59, 0
2,48211, Control_c, 0, 64, 18
2,48212, Note_on_c, 0, 67, 0
2,48226, Control_c, 0, 64, 0
2,48261, Note_on_c, 0, 78, 74
2,48272, Control_c, 0, 64, 20
2,48287, Control_c, 0, 64, 21
2,48302, Control_c, 0, 64, 0
2,48357, Note_on_c, 0, 78, 0
2,48363, Control_c, 0, 64, 20
2,48378, Control_c, 0, 64, 17
2,48381, Note_on_c, 0, 47, 82
2,48384, Note_on_c, 0, 67, 80
2,48391, Control_c, 0, 64, 0
2,48413, Note_on_c, 0, 47, 0
2,48441, Note_on_c, 0, 67, 0
2,48498, Note_on_c, 0, 78, 71
2,48535, Control_c, 0, 64, 17
2,48550, Control_c, 0, 64, 15
2,48566, Control_c, 0, 64, 0
2,48593, Note_on_c, 0, 78, 0
2,48602, Note_on_c, 0, 64, 74
2,48606, Note_on_c, 0, 59, 75
2,48609, Note_on_c, 0, 67, 82
2,48612, Control_c, 0, 64, 17
2,48627, Control_c, 0, 64, 18
2,48627, Note_on_c, 0, 64, 0
2,48639, Note_on_c, 0, 59, 0
2,48642, Control_c, 0, 64, 10
2,48657, Control_c, 0, 64, 0
2,48660, Note_on_c, 0, 67, 0
2,48688, Control_c, 0, 64, 13
2,48703, Control_c, 0, 64, 26
2,48718, Note_on_c, 0, 76, 73
2,48719, Control_c, 0, 64, 27
2,48734, Control_c, 0, 64, 20
2,48749, Control_c, 0, 64, 0
2,48765, Control_c, 0, 64, 25
2,48779, Control_c, 0, 64, 37
2,48795, Control_c, 0, 64, 43
2,48801, Note_on_c, 0, 76, 0
2,48810, Control_c, 0, 64, 41
2,48822, Note_on_c, 0, 66, 84
2,48825, Control_c, 0, 64, 31
2,48831, Note_on_c, 0, 57, 79
2,48841, Control_c, 0, 64, 26
2,48856, Control_c, 0, 64, 35
2,48859, Note_on_c, 0, 57, 0
2,48871, Control_c, 0, 64, 39
2,48887, Control_c, 0, 64, 38
2,48902, Control_c, 0, 64, 28
2,48918, Control_c, 0, 64, 0
2,48939, Note_on_c, 0, 76, 71
2,48947, Control_c, 0, 64, 36
2,48963, Control_c, 0, 64, 42
2,48978, Control_c, 0, 64, 38
2,48990, Note_on_c, 0, 76, 0
2,48993, Control_c, 0, 64, 27
2,49008, Control_c, 0, 64, 17
2,49014, Note_on_c, 0, 66, 0
2,49023, Control_c, 0, 64, 34
2,49028, Note_on_c, 0, 59, 72
2,49033, Note_on_c, 0, 66, 39
2,49039, Control_c, 0, 64, 46
2,49043, Note_on_c, 0, 75, 73
2,49054, Control_c, 0, 64, 45
2,49069, Control_c, 0, 64, 36
2,49070, Note_on_c, 0, 59, 0
2,49084, Control_c, 0, 64, 13
2,49086, Note_on_c, 0, 66, 0
2,49099, Control_c, 0, 64, 25
2,49106, Note_on_c, 0, 75, 0
2,49115, Control_c, 0, 64, 43
2,49129, Control_c, 0, 64, 46
2,49134, Note_on_c, 0, 57, 69
2,49144, Control_c, 0, 64, 43
2,49146, Note_on_c, 0, 78, 76
2,49160, Control_c, 0, 64, 36
2,49161, Note_on_c, 0, 66, 23
2,49167, Note_on_c, 0, 57, 0
2,49175, Control_c, 0, 64, 27
2,49192, Note_on_c, 0, 66, 0
2,49199, Control_c, 0, 64, 30
2,49213, Control_c, 0, 64, 34
2,49227, Note_on_c, 0, 78, 0
2,49228, Control_c, 0, 64, 32
2,49244, Control_c, 0, 64, 15
2,49251, Note_on_c, 0, 55, 74
2,49259, Control_c, 0, 64, 0
2,49272, Note_on_c, 0, 71, 68
2,49289, Control_c, 0, 64, 21
2,49296, Note_on_c, 0, 55, 0
2,49297, Note_on_c, 0, 71, 0
2,49304, Control_c, 0, 64, 26
2,49320, Control_c, 0, 64, 13
2,49334, Control_c, 0, 64, 0
2,49360, Note_on_c, 0, 54, 51
2,49373, Note_on_c, 0, 75, 63
2,49380, Control_c, 0, 64, 10
2,49398, Note_on_c, 0, 54, 0
2,49406, Note_on_c, 0, 75, 0
2,49410, Control_c, 0, 64, 0
2,49459, Note_on_c, 0, 59, 68
2,49460, Note_on_c, 0, 55, 72
2,49471, Control_c, 0, 64, 20
2,49476, Note_on_c, 0, 76, 78
2,49486, Control_c, 0, 64, 13
2,49488, Note_on_c, 0, 59, 0
2,49489, Note_on_c, 0, 55, 0
2,49501, Control_c, 0, 64, 0
2,49513, Note_on_c, 0, 76, 0
2,49547, Control_c, 0, 64, 18
2,49563, Control_c, 0, 64, 21
2,49569, Note_on_c, 0, 75, 81
2,49578, Control_c, 0, 64, 0
2,49613, Note_on_c, 0, 75, 0
2,49623, Control_c, 0, 64, 21
2,49639, Control_c, 0, 64, 37
2,49654, Control_c, 0, 64, 39
2,49669, Control_c, 0, 64, 31
2,49675, Note_on_c, 0, 43, 82
2,49684, Note_on_c, 0, 76, 83
2,49685, Control_c, 0, 64, 0
2,49705, Note_on_c, 0, 43, 0
2,49716, Control_c, 0, 64, 34
2,49728, Note_on_c, 0, 76, 0
2,49731, Control_c, 0, 64, 45
2,49746, Control_c, 0, 64, 44
2,49762, Control_c, 0, 64, 37
2,49776, Control_c, 0, 64, 21
2,49776, Note_on_c, 0, 79, 80
2,49791, Control_c, 0, 64, 23
2,49807, Control_c, 0, 64, 32
2,49818, Note_on_c, 0, 79, 0
2,49838, Control_c, 0, 64, 0
2,49888, Note_on_c, 0, 64, 76
2,49891, Note_on_c, 0, 55, 71
2,49896, Note_on_c, 0, 83, 81
2,49960, Note_on_c, 0, 83, 0
2,49981, Control_c, 0, 64, 51
2,49997, Control_c, 0, 64, 60
2,50010, Note_on_c, 0, 74, 75
2,50012, Control_c, 0, 64, 62
2,50027, Control_c, 0, 64, 64
2,50043, Control_c, 0, 64, 66
2,50055, Note_on_c, 0, 74, 0
2,50057, Control_c, 0, 64, 68
2,50072, Control_c, 0, 64, 71
2,50088, Control_c, 0, 64, 74
2,50103, Control_c, 0, 64, 77
2,50119, Control_c, 0, 64, 78
2,50126, Note_on_c, 0, 69, 79
2,50126, Note_on_c, 0, 73, 78
2,50133, Control_c, 0, 64, 79
2,50148, Control_c, 0, 64, 80
2,50152, Note_on_c, 0, 69, 0
2,50163, Note_on_c, 0, 64, 0
2,50164, Control_c, 0, 64, 81
2,50185, Note_on_c, 0, 73, 0
2,50223, Control_c, 0, 64, 82
2,50228, Note_on_c, 0, 71, 77
2,50229, Note_on_c, 0, 55, 0
2,50254, Control_c, 0, 64, 82
2,50278, Note_on_c, 0, 71, 0
2,50337, Note_on_c, 0, 57, 75
2,50339, Note_on_c, 0, 73, 79
2,50345, Control_c, 0, 64, 82
2,50361, Control_c, 0, 64, 79
2,50373, Note_on_c, 0, 57, 0
2,50376, Control_c, 0, 64, 73
2,50390, Control_c, 0, 64, 64
2,50398, Note_on_c, 0, 73, 0
2,50406, Control_c, 0, 64, 0
2,50427, Note_on_c, 0, 55, 77
2,50444, Note_on_c, 0, 76, 78
2,50469, Note_on_c, 0, 55, 0
2,50487, Note_on_c, 0, 76, 0
2,50541, Note_on_c, 0, 54, 81
2,50550, Note_on_c, 0, 69, 88
2,50583, Note_on_c, 0, 54, 0
2,50586, Note_on_c, 0, 69, 0
2,50648, Note_on_c, 0, 52, 82
2,50648, Note_on_c, 0, 73, 84
2,50680, Note_on_c, 0, 52, 0
2,50691, Note_on_c, 0, 73, 0
2,50769, Note_on_c, 0, 74, 88
2,50772, Note_on_c, 0, 57, 81
2,50775, Note_on_c, 0, 54, 83
2,50798, Note_on_c, 0, 57, 0
2,50806, Note_on_c, 0, 54, 0
2,50807, Note_on_c, 0, 74, 0
2,50877, Note_on_c, 0, 73, 87
2,50911, Note_on_c, 0, 73, 0
2,50987, Note_on_c, 0, 42, 93
2,50990, Note_on_c, 0, 74, 92
2,51015, Note_on_c, 0, 42, 0
2,51032, Note_on_c, 0, 74, 0
2,51094, Note_on_c, 0, 78, 92
2,51143, Note_on_c, 0, 78, 0
2,51208, Note_on_c, 0, 62, 86
2,51209, Note_on_c, 0, 81, 85
2,51213, Note_on_c, 0, 54, 82
2,51252, Note_on_c, 0, 81, 0
2,51318, Note_on_c, 0, 73, 86
2,51364, Note_on_c, 0, 73, 0
2,51429, Note_on_c, 0, 67, 89
2,51435, Note_on_c, 0, 71, 85
2,51503, Note_on_c, 0, 71, 0
2,51552, Note_on_c, 0, 70, 82
2,51577, Control_c, 0, 64, 27
2,51592, Control_c, 0, 64, 20
2,51592, Note_on_c, 0, 54, 0
2,51607, Note_on_c, 0, 70, 0
2,51608, Control_c, 0, 64, 0
2,51654, Control_c, 0, 64, 18
2,51667, Note_on_c, 0, 71, 81
2,51668, Control_c, 0, 64, 23
2,51670, Note_on_c, 0, 52, 73
2,51684, Control_c, 0, 64, 0
2,51710, Note_on_c, 0, 71, 0
2,51712, Note_on_c, 0, 52, 0
2,51785, Note_on_c, 0, 74, 63
2,51810, Note_on_c, 0, 74, 0
2,51891, Note_on_c, 0, 50, 68
2,51891, Note_on_c, 0, 73, 77
2,51908, Note_on_c, 0, 62, 0
2,51933, Note_on_c, 0, 67, 0
2,51935, Note_on_c, 0, 73, 0
2,51952, Note_on_c, 0, 50, 0
2,51996, Note_on_c, 0, 71, 78
2,52041, Note_on_c, 0, 71, 0
2,52110, Note_on_c, 0, 49, 68
2,52110, Note_on_c, 0, 70, 82
2,52156, Note_on_c, 0, 70, 0
2,52159, Note_on_c, 0, 49, 0
2,52218, Note_on_c, 0, 71, 78
2,52222, Note_on_c, 0, 50, 67
2,52272, Note_on_c, 0, 71, 0
2,52278, Note_on_c, 0, 50, 0
2,52330, Note_on_c, 0, 73, 83
2,52335, Note_on_c, 0, 52, 75
2,52375, Note_on_c, 0, 52, 0
2,52385, Note_on_c, 0, 73, 0
2,52430, Note_on_c, 0, 54, 75
2,52435, Note_on_c, 0, 74, 80
2,52475, Note_on_c, 0, 54, 0
2,52486, Note_on_c, 0, 74, 0
2,52542, Note_on_c, 0, 55, 74
2,52550, Note_on_c, 0, 76, 80
2,52586, Note_on_c, 0, 55, 0
2,52645, Note_on_c, 0, 67, 84
2,52648, Note_on_c, 0, 47, 78
2,52685, Note_on_c, 0, 67, 0
2,52687, Note_on_c, 0, 47, 0
2,52766, Note_on_c, 0, 46, 85
2,52769, Note_on_c, 0, 66, 92
2,52786, Control_c, 0, 64, 15
2,52802, Control_c, 0, 64, 0
2,52802, Note_on_c, 0, 66, 0
2,52827, Note_on_c, 0, 46, 0
2,52871, Note_on_c, 0, 55, 79
2,52917, Note_on_c, 0, 55, 0
2,52975, Note_on_c, 0, 76, 0
2,52980, Note_on_c, 0, 70, 79
2,52981, Note_on_c, 0, 54, 83
2,52985, Note_on_c, 0, 73, 82
2,53032, Note_on_c, 0, 54, 0
2,53043, Note_on_c, 0, 73, 0
2,53097, Note_on_c, 0, 52, 83
2,53134, Note_on_c, 0, 52, 0
2,53206, Note_on_c, 0, 70, 0
2,53207, Note_on_c, 0, 50, 86
2,53219, Note_on_c, 0, 78, 91
2,53244, Note_on_c, 0, 50, 0
2,53322, Note_on_c, 0, 49, 84
2,53369, Note_on_c, 0, 49, 0
2,53424, Note_on_c, 0, 78, 0
2,53429, Note_on_c, 0, 47, 85
2,53440, Note_on_c, 0, 71, 91
2,53440, Note_on_c, 0, 74, 87
2,53461, Note_on_c, 0, 71, 0
2,53469, Note_on_c, 0, 74, 0
2,53481, Note_on_c, 0, 47, 0
2,53546, Note_on_c, 0, 49, 81
2,53602, Note_on_c, 0, 49, 0
2,53656, Note_on_c, 0, 50, 80
2,53662, Note_on_c, 0, 71, 93
2,53690, Note_on_c, 0, 50, 0
2,53692, Note_on_c, 0, 71, 0
2,53757, Note_on_c, 0, 52, 78
2,53808, Note_on_c, 0, 52, 0
2,53821, Control_c, 0, 64, 10
2,53837, Control_c, 0, 64, 0
2,53867, Note_on_c, 0, 54, 78
2,53883, Note_on_c, 0, 70, 92
2,53898, Control_c, 0, 64, 15
2,53913, Control_c, 0, 64, 21
2,53913, Note_on_c, 0, 70, 0
2,53917, Note_on_c, 0, 54, 0
2,53928, Control_c, 0, 64, 0
2,53985, Note_on_c, 0, 52, 82
2,54039, Note_on_c, 0, 52, 0
2,54087, Note_on_c, 0, 50, 78
2,54104, Note_on_c, 0, 71, 84
2,54134, Note_on_c, 0, 50, 0
2,54135, Note_on_c, 0, 71, 0
2,54198, Note_on_c, 0, 54, 77
2,54237, Note_on_c, 0, 54, 0
2,54306, Note_on_c, 0, 73, 85
2,54307, Note_on_c, 0, 52, 81
2,54337, Note_on_c, 0, 73, 0
2,54342, Note_on_c, 0, 52, 0
2,54406, Note_on_c, 0, 50, 70
2,54411, Note_on_c, 0, 74, 82
2,54447, Note_on_c, 0, 74, 0
2,54454, Note_on_c, 0, 50, 0
2,54518, Note_on_c, 0, 49, 74
2,54519, Note_on_c, 0, 76, 87
2,54566, Note_on_c, 0, 76, 0
2,54581, Note_on_c, 0, 49, 0
2,54624, Note_on_c, 0, 78, 90
2,54628, Note_on_c, 0, 47, 73
2,54661, Note_on_c, 0, 47, 0
2,54670, Note_on_c, 0, 78, 0
2,54738, Note_on_c, 0, 52, 88
2,54741, Note_on_c, 0, 79, 92
2,54763, Note_on_c, 0, 52, 0
2,54783, Note_on_c, 0, 79, 0
2,54846, Note_on_c, 0, 74, 77
2,54861, Control_c, 0, 64, 10
2,54876, Note_on_c, 0, 74, 0
2,54877, Control_c, 0, 64, 0
2,54952, Control_c, 0, 64, 10
2,54965, Note_on_c, 0, 67, 84
2,54968, Control_c, 0, 64, 0
2,54968, Note_on_c, 0, 64, 70
2,54997, Note_on_c, 0, 64, 0
2,55005, Note_on_c, 0, 67, 0
2,55029, Control_c, 0, 64, 24
2,55045, Control_c, 0, 64, 15
2,55059, Control_c, 0, 64, 0
2,55065, Note_on_c, 0, 74, 78
2,55102, Note_on_c, 0, 74, 0
2,55176, Note_on_c, 0, 79, 86
2,55177, Note_on_c, 0, 64, 77
2,55181, Note_on_c, 0, 57, 72
2,55197, Control_c, 0, 64, 32
2,55202, Note_on_c, 0, 64, 0
2,55207, Note_on_c, 0, 57, 0
2,55212, Control_c, 0, 64, 34
2,55224, Note_on_c, 0, 79, 0
2,55226, Control_c, 0, 64, 21
2,55242, Control_c, 0, 64, 0
2,55288, Control_c, 0, 64, 13
2,55292, Note_on_c, 0, 73, 73
2,55326, Control_c, 0, 64, 0
2,55332, Note_on_c, 0, 73, 0
2,55372, Control_c, 0, 64, 15
2,55386, Control_c, 0, 64, 32
2,55402, Control_c, 0, 64, 29
2,55411, Note_on_c, 0, 78, 86
2,55416, Note_on_c, 0, 62, 78
2,55417, Control_c, 0, 64, 0
2,55417, Note_on_c, 0, 50, 73
2,55446, Note_on_c, 0, 62, 0
2,55449, Note_on_c, 0, 50, 0
2,55463, Control_c, 0, 64, 21
2,55467, Note_on_c, 0, 78, 0
2,55479, Control_c, 0, 64, 23
2,55494, Control_c, 0, 64, 0
2,55521, Note_on_c, 0, 73, 79
2,55563, Note_on_c, 0, 73, 0
2,55631, Control_c, 0, 64, 24
2,55639, Note_on_c, 0, 66, 87
2,55644, Note_on_c, 0, 62, 73
2,55647, Control_c, 0, 64, 23
2,55662, Control_c, 0, 64, 0
2,55669, Note_on_c, 0, 66, 0
2,55680, Note_on_c, 0, 62, 0
2,55736, Note_on_c, 0, 73, 78
2,55786, Note_on_c, 0, 73, 0
2,55847, Note_on_c, 0, 78, 83
2,55853, Note_on_c, 0, 62, 72
2,55863, Note_on_c, 0, 55, 58
2,55883, Note_on_c, 0, 62, 0
2,55891, Note_on_c, 0, 55, 0
2,55909, Note_on_c, 0, 78, 0
2,55956, Note_on_c, 0, 71, 82
2,55989, Note_on_c, 0, 71, 0
2,56062, Note_on_c, 0, 61, 69
2,56065, Note_on_c, 0, 49, 67
2,56068, Note_on_c, 0, 76, 83
2,56102, Note_on_c, 0, 61, 0
2,56109, Note_on_c, 0, 49, 0
2,56118, Note_on_c, 0, 76, 0
2,56188, Note_on_c, 0, 59, 75
2,56213, Note_on_c, 0, 59, 0
2,56294, Note_on_c, 0, 78, 75
2,56298, Note_on_c, 0, 73, 73
2,56308, Note_on_c, 0, 58, 77
2,56325, Note_on_c, 0, 73, 0
2,56343, Note_on_c, 0, 58, 0
2,56407, Note_on_c, 0, 61, 70
2,56409, Note_on_c, 0, 76, 69
2,56439, Note_on_c, 0, 61, 0
2,56466, Note_on_c, 0, 76, 0
2,56479, Note_on_c, 0, 78, 0
2,56516, Note_on_c, 0, 74, 77
2,56521, Note_on_c, 0, 54, 63
2,56555, Note_on_c, 0, 54, 0
2,56555, Note_on_c, 0, 74, 0
2,56615, Note_on_c, 0, 73, 81
2,56617, Note_on_c, 0, 58, 64
2,56647, Note_on_c, 0, 58, 0
2,56647, Note_on_c, 0, 73, 0
2,56728, Note_on_c, 0, 47, 77
2,56735, Note_on_c, 0, 74, 76
2,56756, Note_on_c, 0, 74, 0
2,56760, Note_on_c, 0, 47, 0
2,56832, Note_on_c, 0, 59, 58
2,56876, Note_on_c, 0, 59, 0
2,56952, Note_on_c, 0, 49, 66
2,56956, Note_on_c, 0, 76, 77
2,56957, Note_on_c, 0, 71, 71
2,56977, Note_on_c, 0, 76, 0
2,56981, Note_on_c, 0, 71, 0
2,56998, Note_on_c, 0, 49, 0
2,57055, Note_on_c, 0, 59, 61
2,57094, Note_on_c, 0, 59, 0
2,57174, Note_on_c, 0, 50, 66
2,57177, Note_on_c, 0, 78, 78
2,57183, Note_on_c, 0, 69, 75
2,57209, Note_on_c, 0, 69, 0
2,57224, Note_on_c, 0, 50, 0
2,57283, Note_on_c, 0, 59, 57
2,57324, Note_on_c, 0, 59, 0
2,57393, Note_on_c, 0, 52, 70
2,57396, Note_on_c, 0, 67, 83
2,57429, Note_on_c, 0, 67, 0
2,57438, Note_on_c, 0, 52, 0
2,57505, Note_on_c, 0, 59, 58
2,57517, Control_c, 0, 64, 25
2,57532, Control_c, 0, 64, 24
2,57546, Control_c, 0, 64, 0
2,57592, Control_c, 0, 64, 24
2,57596, Note_on_c, 0, 59, 0
2,57608, Control_c, 0, 64, 28
2,57615, Note_on_c, 0, 54, 68
2,57616, Note_on_c, 0, 69, 73
2,57620, Note_on_c, 0, 76, 70
2,57630, Control_c, 0, 64, 18
2,57644, Note_on_c, 0, 78, 0
2,57646, Control_c, 0, 64, 0
2,57646, Note_on_c, 0, 69, 0
2,57651, Note_on_c, 0, 76, 0
2,57670, Note_on_c, 0, 54, 0
2,57677, Control_c, 0, 64, 15
2,57691, Control_c, 0, 64, 24
2,57706, Control_c, 0, 64, 20
2,57722, Control_c, 0, 64, 0
2,57744, Note_on_c, 0, 59, 52
2,57782, Control_c, 0, 64, 10
2,57798, Control_c, 0, 64, 0
2,57811, Note_on_c, 0, 59, 0
2,57836, Note_on_c, 0, 55, 62
2,57839, Note_on_c, 0, 71, 66
2,57839, Note_on_c, 0, 74, 68
2,57866, Note_on_c, 0, 74, 0
2,57870, Note_on_c, 0, 55, 0
2,57936, Note_on_c, 0, 59, 60
2,57979, Note_on_c, 0, 59, 0
2,58056, Note_on_c, 0, 73, 70
2,58062, Note_on_c, 0, 45, 64
2,58082, Note_on_c, 0, 73, 0
2,58104, Note_on_c, 0, 45, 0
2,58168, Note_on_c, 0, 57, 57
2,58211, Note_on_c, 0, 57, 0
2,58266, Note_on_c, 0, 71, 0
2,58277, Note_on_c, 0, 47, 64
2,58282, Note_on_c, 0, 74, 69
2,58284, Note_on_c, 0, 69, 73
2,58306, Note_on_c, 0, 74, 0
2,58309, Note_on_c, 0, 69, 0
2,58321, Note_on_c, 0, 47, 0
2,58383, Note_on_c, 0, 57, 58
2,58465, Note_on_c, 0, 57, 0
2,58502, Note_on_c, 0, 49, 62
2,58511, Note_on_c, 0, 76, 72
2,58512, Note_on_c, 0, 67, 66
2,58539, Note_on_c, 0, 67, 0
2,58569, Note_on_c, 0, 49, 0
2,58609, Note_on_c, 0, 57, 58
2,58662, Note_on_c, 0, 57, 0
2,58729, Note_on_c, 0, 66, 80
2,58730, Note_on_c, 0, 50, 67
2,58748, Note_on_c, 0, 76, 0
2,58759, Note_on_c, 0, 66, 0
2,58784, Note_on_c, 0, 50, 0
2,58839, Note_on_c, 0, 57, 57
2,58892, Note_on_c, 0, 57, 0
2,58942, Note_on_c, 0, 52, 65
2,58943, Note_on_c, 0, 67, 76
2,58945, Note_on_c, 0, 74, 68
2,58966, Note_on_c, 0, 67, 0
2,58974, Note_on_c, 0, 74, 0
2,58988, Note_on_c, 0, 52, 0
2,59051, Note_on_c, 0, 57, 60
2,59112, Note_on_c, 0, 57, 0
2,59166, Note_on_c, 0, 69, 72
2,59170, Note_on_c, 0, 73, 68
2,59173, Note_on_c, 0, 54, 63
2,59211, Note_on_c, 0, 73, 0
2,59226, Note_on_c, 0, 54, 0
2,59271, Note_on_c, 0, 57, 61
2,59332, Note_on_c, 0, 57, 0
2,59382, Note_on_c, 0, 71, 67
2,59387, Note_on_c, 0, 55, 70
2,59442, Note_on_c, 0, 55, 0
2,59493, Note_on_c, 0, 59, 65
2,59534, Note_on_c, 0, 59, 0
2,59600, Note_on_c, 0, 57, 67
2,59604, Note_on_c, 0, 62, 69
2,59635, Note_on_c, 0, 62, 0
2,59644, Note_on_c, 0, 57, 0
2,59701, Note_on_c, 0, 55, 69
2,59728, Note_on_c, 0, 69, 0
2,59759, Note_on_c, 0, 55, 0
2,59812, Note_on_c, 0, 73, 66
2,59817, Note_on_c, 0, 67, 62
2,59821, Note_on_c, 0, 54, 65
2,59838, Note_on_c, 0, 71, 0
2,59849, Note_on_c, 0, 73, 0
2,59858, Note_on_c, 0, 54, 0
2,59937, Note_on_c, 0, 52, 69
2,59985, Note_on_c, 0, 52, 0
2,60047, Note_on_c, 0, 74, 69
2,60054, Note_on_c, 0, 54, 70
2,60068, Note_on_c, 0, 67, 0
2,60101, Note_on_c, 0, 54, 0
2,60157, Note_on_c, 0, 57, 68
2,60198, Note_on_c, 0, 57, 0
2,60274, Note_on_c, 0, 62, 68
2,60274, Note_on_c, 0, 69, 74
2,60276, Note_on_c, 0, 66, 76
2,60283, Control_c, 0, 64, 10
2,60298, Control_c, 0, 64, 17
2,60301, Note_on_c, 0, 66, 0
2,60303, Note_on_c, 0, 74, 0
2,60310, Note_on_c, 0, 69, 0
2,60313, Control_c, 0, 64, 0
2,60316, Note_on_c, 0, 62, 0
2,60375, Control_c, 0, 64, 17
2,60376, Note_on_c, 0, 57, 65
2,60389, Control_c, 0, 64, 0
2,60414, Note_on_c, 0, 57, 0
2,60466, Control_c, 0, 64, 10
2,60482, Control_c, 0, 64, 0
2,60488, Note_on_c, 0, 71, 75
2,60492, Note_on_c, 0, 56, 70
2,60493, Note_on_c, 0, 65, 71
2,60530, Note_on_c, 0, 71, 0
2,60539, Note_on_c, 0, 56, 0
2,60542, Control_c, 0, 64, 10
2,60572, Control_c, 0, 64, 0
2,60597, Note_on_c, 0, 62, 70
2,60618, Control_c, 0, 64, 10
2,60633, Control_c, 0, 64, 25
2,60646, Note_on_c, 0, 62, 0
2,60648, Control_c, 0, 64, 13
2,60663, Control_c, 0, 64, 0
2,60706, Note_on_c, 0, 57, 76
2,60711, Note_on_c, 0, 72, 82
2,60716, Control_c, 0, 64, 23
2,60732, Control_c, 0, 64, 21
2,60741, Note_on_c, 0, 72, 0
2,60743, Note_on_c, 0, 65, 0
2,60747, Control_c, 0, 64, 0
2,60763, Note_on_c, 0, 57, 0
2,60812, Note_on_c, 0, 60, 74
2,60853, Note_on_c, 0, 60, 0
2,60917, Note_on_c, 0, 59, 69
2,60927, Note_on_c, 0, 73, 75
2,60929, Note_on_c, 0, 64, 72
2,60955, Note_on_c, 0, 64, 0
2,60968, Note_on_c, 0, 73, 0
2,60971, Note_on_c, 0, 59, 0
2,61016, Note_on_c, 0, 57, 76
2,61084, Note_on_c, 0, 57, 0
2,61128, Note_on_c, 0, 69, 59
2,61130, Note_on_c, 0, 55, 70
2,61142, Note_on_c, 0, 75, 73
2,61175, Note_on_c, 0, 75, 0
2,61180, Note_on_c, 0, 55, 0
2,61239, Note_on_c, 0, 54, 74
2,61298, Note_on_c, 0, 54, 0
2,61352, Note_on_c, 0, 69, 0
2,61358, Note_on_c, 0, 55, 76
2,61363, Note_on_c, 0, 76, 81
2,61406, Note_on_c, 0, 55, 0
2,61461, Note_on_c, 0, 59, 82
2,61505, Note_on_c, 0, 59, 0
2,61582, Note_on_c, 0, 64, 75
2,61587, Note_on_c, 0, 68, 82
2,61587, Note_on_c, 0, 71, 79
2,61611, Note_on_c, 0, 68, 0
2,61616, Note_on_c, 0, 76, 0
2,61621, Note_on_c, 0, 71, 0
2,61639, Note_on_c, 0, 64, 0
2,61683, Note_on_c, 0, 59, 75
2,61738, Note_on_c, 0, 59, 0
2,61792, Note_on_c, 0, 67, 82
2,61795, Note_on_c, 0, 58, 80
2,61795, Note_on_c, 0, 73, 81
2,61844, Note_on_c, 0, 73, 0
2,61848, Control_c, 0, 64, 17
2,61854, Note_on_c, 0, 58, 0
2,61863, Control_c, 0, 64, 10
2,61878, Control_c, 0, 64, 0
2,61902, Note_on_c, 0, 64, 80
2,61925, Control_c, 0, 64, 18
2,61939, Control_c, 0, 64, 21
2,61955, Control_c, 0, 64, 0
2,61967, Note_on_c, 0, 64, 0
2,62004, Note_on_c, 0, 59, 86
2,62016, Control_c, 0, 64, 23
2,62023, Note_on_c, 0, 74, 80
2,62047, Control_c, 0, 64, 0
2,62057, Note_on_c, 0, 59, 0
2,62059, Note_on_c, 0, 67, 0
2,62069, Note_on_c, 0, 74, 0
2,62107, Control_c, 0, 64, 20
2,62111, Note_on_c, 0, 62, 84
2,62123, Control_c, 0, 64, 18
2,62138, Control_c, 0, 64, 0
2,62176, Note_on_c, 0, 62, 0
2,62184, Control_c, 0, 64, 17
2,62199, Control_c, 0, 64, 24
2,62214, Control_c, 0, 64, 17
2,62221, Note_on_c, 0, 61, 88
2,62227, Note_on_c, 0, 66, 89
2,62236, Control_c, 0, 64, 0
2,62238, Note_on_c, 0, 75, 81
2,62264, Note_on_c, 0, 66, 0
2,62266, Note_on_c, 0, 75, 0
2,62276, Note_on_c, 0, 61, 0
2,62282, Control_c, 0, 64, 20
2,62312, Control_c, 0, 64, 0
2,62334, Note_on_c, 0, 59, 87
2,62388, Note_on_c, 0, 59, 0
2,62443, Note_on_c, 0, 58, 92
2,62443, Note_on_c, 0, 77, 79
2,62446, Note_on_c, 0, 71, 78
2,62466, Control_c, 0, 64, 18
2,62483, Control_c, 0, 64, 0
2,62498, Note_on_c, 0, 58, 0
2,62500, Note_on_c, 0, 77, 0
2,62544, Control_c, 0, 64, 18
2,62551, Note_on_c, 0, 56, 88
2,62559, Control_c, 0, 64, 30
2,62574, Control_c, 0, 64, 23
2,62589, Control_c, 0, 64, 0
2,62607, Note_on_c, 0, 56, 0
2,62635, Control_c, 0, 64, 33
2,62650, Control_c, 0, 64, 37
2,62653, Note_on_c, 0, 71, 0
2,62661, Note_on_c, 0, 78, 86
2,62662, Note_on_c, 0, 54, 85
2,62665, Control_c, 0, 64, 27
2,62680, Control_c, 0, 64, 0
2,62722, Note_on_c, 0, 54, 0
2,62726, Control_c, 0, 64, 27
2,62741, Control_c, 0, 64, 24
2,62756, Control_c, 0, 64, 0
2,62770, Note_on_c, 0, 55, 93
2,62811, Note_on_c, 0, 55, 0
2,62818, Control_c, 0, 64, 18
2,62833, Control_c, 0, 64, 0
2,62882, Note_on_c, 0, 70, 84
2,62886, Note_on_c, 0, 54, 90
2,62900, Note_on_c, 0, 78, 0
2,62920, Note_on_c, 0, 70, 0
2,62935, Note_on_c, 0, 54, 0
2,62991, Note_on_c, 0, 52, 90
2,63046, Note_on_c, 0, 52, 0
2,63105, Note_on_c, 0, 50, 95
2,63112, Note_on_c, 0, 66, 90
2,63152, Note_on_c, 0, 50, 0
2,63213, Note_on_c, 0, 49, 90
2,63266, Note_on_c, 0, 49, 0
2,63326, Note_on_c, 0, 47, 92
2,63332, Note_on_c, 0, 62, 96
2,63359, Note_on_c, 0, 66, 0
2,63369, Note_on_c, 0, 62, 0
2,63386, Note_on_c, 0, 47, 0
2,63440, Note_on_c, 0, 49, 89
2,63495, Note_on_c, 0, 49, 0
2,63547, Note_on_c, 0, 50, 91
2,63559, Note_on_c, 0, 59, 93
2,63589, Note_on_c, 0, 59, 0
2,63597, Note_on_c, 0, 50, 0
2,63657, Note_on_c, 0, 52, 86
2,63696, Note_on_c, 0, 52, 0
2,63773, Note_on_c, 0, 54, 88
2,63780, Note_on_c, 0, 58, 92
2,63816, Note_on_c, 0, 58, 0
2,63823, Note_on_c, 0, 54, 0
2,63882, Note_on_c, 0, 52, 90
2,63921, Note_on_c, 0, 52, 0
2,63993, Note_on_c, 0, 59, 87
2,64003, Note_on_c, 0, 50, 94
2,64025, Note_on_c, 0, 59, 0
2,64041, Note_on_c, 0, 50, 0
2,64112, Note_on_c, 0, 71, 89
2,64143, Note_on_c, 0, 71, 0
2,64226, Note_on_c, 0, 70, 92
2,64231, Note_on_c, 0, 47, 98
2,64268, Note_on_c, 0, 47, 0
2,64268, Note_on_c, 0, 70, 0
2,64341, Note_on_c, 0, 71, 88
2,64388, Note_on_c, 0, 71, 0
2,64468, Note_on_c, 0, 73, 94
2,64470, Note_on_c, 0, 46, 97
2,64509, Note_on_c, 0, 73, 0
2,64519, Note_on_c, 0, 46, 0
2,64601, Note_on_c, 0, 78, 93
2,64656, Note_on_c, 0, 78, 0
2,64729, Note_on_c, 0, 47, 96
2,64736, Note_on_c, 0, 76, 93
2,64776, Note_on_c, 0, 47, 0
2,64788, Note_on_c, 0, 76, 0
2,64867, Note_on_c, 0, 74, 93
2,64911, Note_on_c, 0, 74, 0
2,65014, Note_on_c, 0, 66, 98
2,65014, Note_on_c, 0, 73, 95
2,65016, Note_on_c, 0, 38, 89
2,65043, Note_on_c, 0, 66, 0
2,65054, Note_on_c, 0, 38, 0
2,65083, Note_on_c, 0, 73, 0
2,65168, Note_on_c, 0, 71, 88
2,65216, Note_on_c, 0, 71, 0
2,65341, Note_on_c, 0, 42, 89
2,65343, Note_on_c, 0, 64, 86
2,65344, Note_on_c, 0, 73, 98
2,65372, Note_on_c, 0, 64, 0
2,65392, Note_on_c, 0, 73, 0
2,65393, Note_on_c, 0, 42, 0
2,65537, Note_on_c, 0, 70, 96
2,65582, Note_on_c, 0, 70, 0
2,65835, Note_on_c, 0, 70, 90
2,65839, Note_on_c, 0, 64, 80
2,65840, Note_on_c, 0, 35, 75
2,65911, Control_c, 0, 64, 62
2,65926, Control_c, 0, 64, 67
2,65940, Control_c, 0, 64, 72
2,65956, Control_c, 0, 64, 79
2,65971, Control_c, 0, 64, 84
2,65987, Control_c, 0, 64, 87
2,66002, Control_c, 0, 64, 89
2,66017, Control_c, 0, 64, 91
2,66024, Note_on_c, 0, 64, 0
2,66033, Control_c, 0, 64, 93
2,66048, Control_c, 0, 64, 94
2,66071, Control_c, 0, 64, 95
2,66086, Control_c, 0, 64, 97
2,66101, Control_c, 0, 64, 98
2,66117, Control_c, 0, 64, 99
2,66129, Control_c, 0, 64, 100
2,66142, Control_c, 0, 64, 101
2,66158, Control_c, 0, 64, 101
2,66173, Control_c, 0, 64, 102
2,66188, Control_c, 0, 64, 103
2,66203, Control_c, 0, 64, 103
2,66233, Control_c, 0, 64, 104
2,66309, Control_c, 0, 64, 104
2,66340, Control_c, 0, 64, 105
2,66458, Control_c, 0, 64, 105
2,66509, Note_on_c, 0, 71, 81
2,66516, Note_on_c, 0, 63, 70
2,66518, Control_c, 0, 64, 105
2,66533, Control_c, 0, 64, 102
2,66535, Note_on_c, 0, 70, 0
2,66548, Control_c, 0, 64, 99
2,66563, Control_c, 0, 64, 94
2,66579, Control_c, 0, 64, 87
2,66593, Control_c, 0, 64, 77
2,66608, Control_c, 0, 64, 66
2,66624, Control_c, 0, 64, 47
2,66639, Control_c, 0, 64, 0
2,67808, Note_on_c, 0, 35, 0
2,67815, Note_on_c, 0, 63, 0
2,67816, Note_on_c, 0, 71, 0
2,67817, End_track
0, 0, End_of_file
