0, 0, Header, 1, 2, 384
1, 0, Start_track
1, 0, Tempo, 500000
1, 0, Time_signature, 4, 2, 24, 8
1, 1, End_track
2, 0, Start_track
2, 0, Title_t, "Levitsky04-08.MID"
2, 0, Program_c, 0, 0
2, 0, Control_c, 0, 64, 79
2, 553, Control_c, 0, 64, 79
2, 703, Control_c, 0, 64, 78
2, 774, Control_c, 0, 64, 78
2, 805, Control_c, 0, 64, 77
2, 821, Control_c, 0, 64, 77
2, 835, Note_on_c, 0, 62, 45
2, 836, Control_c, 0, 64, 75
2, 845, Note_on_c, 0, 47, 42
2, 851, Control_c, 0, 64, 74
2, 867, Control_c, 0, 64, 70
2, 881, Control_c, 0, 64, 65
2, 897, Control_c, 0, 64, 53
2, 912, Control_c, 0, 64, 34
2, 927, Control_c, 0, 64, 29
2, 943, Control_c, 0, 64, 29
2, 958, Control_c, 0, 64, 18
2, 974, Control_c, 0, 64, 0
2, 1032, Note_on_c, 0, 66, 46
2, 1088, Note_on_c, 0, 62, 0
2, 1189, Note_on_c, 0, 66, 0
2, 1192, Note_on_c, 0, 50, 55
2, 1194, Note_on_c, 0, 59, 52
2, 1293, Note_on_c, 0, 47, 0
2, 1363, Note_on_c, 0, 61, 63
2, 1390, Note_on_c, 0, 59, 0
2, 1529, Note_on_c, 0, 61, 0
2, 1533, Note_on_c, 0, 54, 63
2, 1533, Note_on_c, 0, 62, 67
2, 1566, Note_on_c, 0, 50, 0
2, 1697, Note_on_c, 0, 66, 65
2, 1735, Note_on_c, 0, 62, 0
2, 1860, Note_on_c, 0, 59, 62
2, 1874, Note_on_c, 0, 66, 0
2, 1918, Note_on_c, 0, 54, 0
2, 1938, Note_on_c, 0, 55, 67
2, 2000, Note_on_c, 0, 59, 0
2, 2014, Note_on_c, 0, 55, 0
2, 2016, Note_on_c, 0, 54, 61
2, 2016, Note_on_c, 0, 62, 59
2, 2074, Note_on_c, 0, 54, 0
2, 2091, Note_on_c, 0, 53, 65
2, 2181, Note_on_c, 0, 53, 0
2, 2187, Note_on_c, 0, 61, 64
2, 2190, Note_on_c, 0, 62, 0
2, 2195, Note_on_c, 0, 54, 62
2, 2365, Note_on_c, 0, 66, 63
2, 2399, Note_on_c, 0, 61, 0
2, 2447, Note_on_c, 0, 66, 0
2, 2531, Note_on_c, 0, 67, 60
2, 2542, Note_on_c, 0, 46, 54
2, 2616, Note_on_c, 0, 54, 0
2, 2626, Note_on_c, 0, 66, 54
2, 2655, Note_on_c, 0, 67, 0
2, 2668, Note_on_c, 0, 66, 0
2, 2690, Note_on_c, 0, 65, 68
2, 2763, Note_on_c, 0, 65, 0
2, 2763, Note_on_c, 0, 66, 73
2, 2854, Note_on_c, 0, 49, 53
2, 2863, Note_on_c, 0, 70, 67
2, 2900, Note_on_c, 0, 66, 0
2, 2940, Note_on_c, 0, 46, 0
2, 3040, Note_on_c, 0, 66, 69
2, 3085, Note_on_c, 0, 70, 0
2, 3232, Note_on_c, 0, 54, 48
2, 3233, Note_on_c, 0, 73, 66
2, 3287, Note_on_c, 0, 49, 0
2, 3328, Note_on_c, 0, 66, 0
2, 3395, Note_on_c, 0, 64, 67
2, 3399, Note_on_c, 0, 73, 0
2, 3589, Note_on_c, 0, 62, 63
2, 3592, Note_on_c, 0, 47, 62
2, 3643, Note_on_c, 0, 64, 0
2, 3675, Note_on_c, 0, 54, 0
2, 3769, Note_on_c, 0, 66, 66
2, 3868, Note_on_c, 0, 62, 0
2, 3930, Note_on_c, 0, 59, 66
2, 3941, Note_on_c, 0, 50, 55
2, 3956, Note_on_c, 0, 66, 0
2, 3995, Note_on_c, 0, 47, 0
2, 4099, Note_on_c, 0, 61, 69
2, 4134, Note_on_c, 0, 59, 0
2, 4271, Note_on_c, 0, 54, 62
2, 4273, Note_on_c, 0, 62, 63
2, 4297, Note_on_c, 0, 61, 0
2, 4302, Note_on_c, 0, 50, 0
2, 4446, Note_on_c, 0, 66, 60
2, 4470, Note_on_c, 0, 62, 0
2, 4608, Note_on_c, 0, 59, 59
2, 4656, Note_on_c, 0, 66, 0
2, 4659, Note_on_c, 0, 54, 0
2, 4679, Note_on_c, 0, 55, 60
2, 4743, Note_on_c, 0, 55, 0
2, 4748, Note_on_c, 0, 54, 56
2, 4755, Note_on_c, 0, 59, 0
2, 4773, Note_on_c, 0, 62, 54
2, 4814, Note_on_c, 0, 54, 0
2, 4827, Note_on_c, 0, 53, 61
2, 4920, Note_on_c, 0, 53, 0
2, 4930, Note_on_c, 0, 61, 59
2, 4940, Note_on_c, 0, 54, 60
2, 4969, Note_on_c, 0, 62, 0
2, 5109, Note_on_c, 0, 66, 54
2, 5124, Note_on_c, 0, 61, 0
2, 5289, Note_on_c, 0, 61, 52
2, 5304, Note_on_c, 0, 42, 41
2, 5354, Note_on_c, 0, 66, 0
2, 5413, Note_on_c, 0, 54, 0
2, 5457, Note_on_c, 0, 58, 56
2, 5540, Note_on_c, 0, 42, 0
2, 5583, Note_on_c, 0, 61, 0
2, 5644, Note_on_c, 0, 54, 55
2, 5739, Note_on_c, 0, 58, 0
2, 5814, Note_on_c, 0, 52, 59
2, 5906, Note_on_c, 0, 54, 0
2, 5990, Note_on_c, 0, 50, 58
2, 6009, Note_on_c, 0, 52, 0
2, 6166, Note_on_c, 0, 49, 61
2, 6175, Note_on_c, 0, 50, 0
2, 6339, Note_on_c, 0, 50, 61
2, 6359, Note_on_c, 0, 49, 0
2, 6498, Note_on_c, 0, 54, 59
2, 6524, Note_on_c, 0, 50, 0
2, 6698, Note_on_c, 0, 74, 63
2, 6707, Note_on_c, 0, 47, 47
2, 6778, Note_on_c, 0, 54, 0
2, 6861, Note_on_c, 0, 49, 54
2, 6917, Note_on_c, 0, 47, 0
2, 7039, Note_on_c, 0, 49, 0
2, 7048, Note_on_c, 0, 71, 62
2, 7052, Note_on_c, 0, 50, 50
2, 7147, Note_on_c, 0, 74, 0
2, 7215, Note_on_c, 0, 54, 50
2, 7249, Note_on_c, 0, 50, 0
2, 7385, Note_on_c, 0, 66, 58
2, 7392, Note_on_c, 0, 47, 51
2, 7448, Note_on_c, 0, 54, 0
2, 7472, Note_on_c, 0, 71, 0
2, 7557, Note_on_c, 0, 50, 61
2, 7559, Note_on_c, 0, 47, 0
2, 7657, Note_on_c, 0, 66, 0
2, 7727, Note_on_c, 0, 50, 0
2, 7732, Note_on_c, 0, 49, 65
2, 7884, Note_on_c, 0, 54, 67
2, 7905, Note_on_c, 0, 49, 0
2, 8059, Note_on_c, 0, 54, 0
2, 8069, Note_on_c, 0, 76, 68
2, 8071, Note_on_c, 0, 55, 66
2, 8152, Note_on_c, 0, 55, 0
2, 8153, Note_on_c, 0, 54, 60
2, 8204, Note_on_c, 0, 54, 0
2, 8213, Note_on_c, 0, 53, 68
2, 8306, Note_on_c, 0, 53, 0
2, 8312, Note_on_c, 0, 54, 65
2, 8402, Note_on_c, 0, 54, 0
2, 8410, Note_on_c, 0, 73, 67
2, 8411, Note_on_c, 0, 58, 63
2, 8496, Note_on_c, 0, 76, 0
2, 8578, Note_on_c, 0, 54, 60
2, 8604, Note_on_c, 0, 58, 0
2, 8747, Note_on_c, 0, 66, 66
2, 8756, Note_on_c, 0, 61, 59
2, 8775, Note_on_c, 0, 54, 0
2, 8915, Note_on_c, 0, 52, 66
2, 8957, Note_on_c, 0, 61, 0
2, 9057, Note_on_c, 0, 66, 0
2, 9068, Note_on_c, 0, 73, 0
2, 9094, Note_on_c, 0, 50, 68
2, 9107, Note_on_c, 0, 52, 0
2, 9259, Note_on_c, 0, 54, 62
2, 9260, Note_on_c, 0, 50, 0
2, 9463, Note_on_c, 0, 78, 74
2, 9466, Note_on_c, 0, 47, 52
2, 9555, Note_on_c, 0, 54, 0
2, 9641, Note_on_c, 0, 49, 59
2, 9677, Note_on_c, 0, 47, 0
2, 9814, Note_on_c, 0, 49, 0
2, 9816, Note_on_c, 0, 50, 58
2, 9973, Note_on_c, 0, 78, 0
2, 9981, Note_on_c, 0, 54, 55
2, 9981, Note_on_c, 0, 76, 61
2, 9997, Note_on_c, 0, 50, 0
2, 10052, Note_on_c, 0, 76, 0
2, 10058, Note_on_c, 0, 74, 63
2, 10135, Note_on_c, 0, 74, 0
2, 10141, Note_on_c, 0, 47, 51
2, 10150, Note_on_c, 0, 76, 58
2, 10167, Note_on_c, 0, 54, 0
2, 10230, Note_on_c, 0, 74, 63
2, 10269, Note_on_c, 0, 76, 0
2, 10275, Note_on_c, 0, 47, 0
2, 10295, Note_on_c, 0, 50, 49
2, 10301, Note_on_c, 0, 73, 67
2, 10320, Note_on_c, 0, 74, 0
2, 10372, Note_on_c, 0, 73, 0
2, 10381, Note_on_c, 0, 71, 68
2, 10422, Note_on_c, 0, 71, 0
2, 10492, Note_on_c, 0, 50, 0
2, 10497, Note_on_c, 0, 71, 57
2, 10500, Note_on_c, 0, 49, 51
2, 10653, Note_on_c, 0, 49, 0
2, 10675, Note_on_c, 0, 54, 55
2, 10844, Note_on_c, 0, 70, 53
2, 10863, Note_on_c, 0, 49, 43
2, 10900, Note_on_c, 0, 54, 0
2, 10906, Note_on_c, 0, 71, 0
2, 11022, Note_on_c, 0, 46, 50
2, 11027, Note_on_c, 0, 49, 0
2, 11043, Note_on_c, 0, 70, 0
2, 11211, Note_on_c, 0, 46, 0
2, 11223, Note_on_c, 0, 42, 45
2, 11410, Note_on_c, 0, 64, 44
2, 11419, Note_on_c, 0, 42, 0
2, 11489, Note_on_c, 0, 64, 0
2, 11498, Note_on_c, 0, 62, 48
2, 11560, Note_on_c, 0, 62, 0
2, 11577, Note_on_c, 0, 61, 57
2, 11579, Note_on_c, 0, 58, 44
2, 11632, Note_on_c, 0, 61, 0
2, 11658, Note_on_c, 0, 58, 0
2, 11661, Note_on_c, 0, 62, 54
2, 11752, Note_on_c, 0, 64, 51
2, 11757, Note_on_c, 0, 62, 0
2, 11795, Note_on_c, 0, 64, 0
2, 11957, Note_on_c, 0, 62, 53
2, 11961, Note_on_c, 0, 47, 36
2, 11985, Control_c, 0, 64, 47
2, 12000, Control_c, 0, 64, 63
2, 12013, Note_on_c, 0, 62, 0
2, 12015, Control_c, 0, 64, 67
2, 12030, Control_c, 0, 64, 70
2, 12046, Control_c, 0, 64, 74
2, 12068, Control_c, 0, 64, 79
2, 12083, Control_c, 0, 64, 84
2, 12100, Control_c, 0, 64, 85
2, 12114, Control_c, 0, 64, 86
2, 12130, Control_c, 0, 64, 86
2, 12174, Note_on_c, 0, 71, 53
2, 12175, Control_c, 0, 64, 87
2, 12219, Note_on_c, 0, 71, 0
2, 12248, Note_on_c, 0, 73, 66
2, 12312, Control_c, 0, 64, 86
2, 12343, Control_c, 0, 64, 86
2, 12343, Note_on_c, 0, 73, 0
2, 12346, Note_on_c, 0, 74, 67
2, 12353, Note_on_c, 0, 59, 52
2, 12358, Control_c, 0, 64, 84
2, 12366, Note_on_c, 0, 47, 0
2, 12373, Control_c, 0, 64, 79
2, 12388, Control_c, 0, 64, 73
2, 12403, Control_c, 0, 64, 63
2, 12419, Control_c, 0, 64, 0
2, 12429, Note_on_c, 0, 73, 70
2, 12437, Note_on_c, 0, 74, 0
2, 12533, Note_on_c, 0, 71, 65
2, 12555, Note_on_c, 0, 73, 0
2, 12694, Note_on_c, 0, 61, 58
2, 12790, Note_on_c, 0, 59, 0
2, 12882, Note_on_c, 0, 78, 72
2, 12969, Note_on_c, 0, 71, 0
2, 13055, Note_on_c, 0, 63, 62
2, 13147, Note_on_c, 0, 61, 0
2, 13231, Note_on_c, 0, 69, 67
2, 13264, Note_on_c, 0, 78, 0
2, 13402, Note_on_c, 0, 63, 0
2, 13411, Note_on_c, 0, 64, 63
2, 13517, Note_on_c, 0, 69, 0
2, 13582, Note_on_c, 0, 71, 60
2, 13668, Note_on_c, 0, 69, 72
2, 13691, Note_on_c, 0, 71, 0
2, 13753, Note_on_c, 0, 69, 0
2, 13760, Note_on_c, 0, 68, 68
2, 13764, Note_on_c, 0, 52, 48
2, 13826, Note_on_c, 0, 64, 0
2, 13838, Note_on_c, 0, 68, 0
2, 13843, Note_on_c, 0, 69, 67
2, 13945, Note_on_c, 0, 71, 56
2, 13970, Note_on_c, 0, 69, 0
2, 14120, Note_on_c, 0, 54, 48
2, 14199, Note_on_c, 0, 52, 0
2, 14298, Note_on_c, 0, 62, 55
2, 14328, Note_on_c, 0, 71, 0
2, 14476, Note_on_c, 0, 54, 0
2, 14479, Note_on_c, 0, 56, 47
2, 14540, Control_c, 0, 64, 55
2, 14556, Control_c, 0, 64, 64
2, 14572, Control_c, 0, 64, 67
2, 14582, Note_on_c, 0, 62, 0
2, 14587, Control_c, 0, 64, 70
2, 14602, Control_c, 0, 64, 72
2, 14617, Control_c, 0, 64, 76
2, 14624, Note_on_c, 0, 56, 0
2, 14632, Control_c, 0, 64, 80
2, 14644, Note_on_c, 0, 71, 52
2, 14648, Control_c, 0, 64, 83
2, 14663, Control_c, 0, 64, 84
2, 14678, Control_c, 0, 64, 84
2, 14693, Control_c, 0, 64, 85
2, 14708, Control_c, 0, 64, 86
2, 14723, Control_c, 0, 64, 87
2, 14738, Note_on_c, 0, 71, 0
2, 14739, Control_c, 0, 64, 88
2, 14753, Control_c, 0, 64, 88
2, 14784, Control_c, 0, 64, 89
2, 14844, Control_c, 0, 64, 88
2, 14859, Note_on_c, 0, 45, 44
2, 14859, Note_on_c, 0, 61, 50
2, 14860, Control_c, 0, 64, 88
2, 14875, Control_c, 0, 64, 84
2, 14891, Control_c, 0, 64, 78
2, 14905, Control_c, 0, 64, 68
2, 14920, Control_c, 0, 64, 47
2, 14936, Control_c, 0, 64, 0
2, 14951, Control_c, 0, 64, 54
2, 14967, Control_c, 0, 64, 66
2, 14968, Note_on_c, 0, 61, 0
2, 14981, Control_c, 0, 64, 72
2, 14996, Control_c, 0, 64, 77
2, 15012, Control_c, 0, 64, 80
2, 15027, Control_c, 0, 64, 81
2, 15039, Note_on_c, 0, 69, 64
2, 15042, Control_c, 0, 64, 81
2, 15058, Control_c, 0, 64, 82
2, 15073, Control_c, 0, 64, 83
2, 15089, Control_c, 0, 64, 84
2, 15103, Control_c, 0, 64, 84
2, 15109, Note_on_c, 0, 69, 0
2, 15116, Note_on_c, 0, 71, 63
2, 15201, Control_c, 0, 64, 84
2, 15217, Control_c, 0, 64, 83
2, 15219, Note_on_c, 0, 71, 0
2, 15222, Note_on_c, 0, 73, 65
2, 15232, Control_c, 0, 64, 80
2, 15232, Note_on_c, 0, 57, 56
2, 15248, Control_c, 0, 64, 75
2, 15248, Note_on_c, 0, 45, 0
2, 15263, Control_c, 0, 64, 66
2, 15278, Control_c, 0, 64, 25
2, 15293, Control_c, 0, 64, 0
2, 15300, Note_on_c, 0, 71, 64
2, 15321, Note_on_c, 0, 73, 0
2, 15403, Note_on_c, 0, 69, 65
2, 15464, Note_on_c, 0, 71, 0
2, 15575, Note_on_c, 0, 59, 60
2, 15666, Note_on_c, 0, 57, 0
2, 15756, Note_on_c, 0, 76, 70
2, 15914, Note_on_c, 0, 69, 0
2, 15932, Note_on_c, 0, 61, 60
2, 15999, Note_on_c, 0, 59, 0
2, 16101, Note_on_c, 0, 67, 69
2, 16138, Note_on_c, 0, 76, 0
2, 16292, Note_on_c, 0, 62, 65
2, 16317, Note_on_c, 0, 61, 0
2, 16462, Note_on_c, 0, 67, 0
2, 16464, Note_on_c, 0, 69, 64
2, 16549, Note_on_c, 0, 67, 65
2, 16556, Note_on_c, 0, 69, 0
2, 16629, Note_on_c, 0, 67, 0
2, 16636, Note_on_c, 0, 66, 70
2, 16644, Note_on_c, 0, 50, 50
2, 16715, Note_on_c, 0, 66, 0
2, 16724, Note_on_c, 0, 67, 67
2, 16727, Note_on_c, 0, 62, 0
2, 16828, Note_on_c, 0, 69, 61
2, 16836, Note_on_c, 0, 67, 0
2, 17010, Note_on_c, 0, 52, 55
2, 17128, Note_on_c, 0, 50, 0
2, 17183, Note_on_c, 0, 61, 57
2, 17213, Note_on_c, 0, 69, 0
2, 17353, Note_on_c, 0, 52, 0
2, 17354, Note_on_c, 0, 54, 54
2, 17407, Control_c, 0, 64, 21
2, 17422, Control_c, 0, 64, 59
2, 17445, Control_c, 0, 64, 64
2, 17461, Control_c, 0, 64, 66
2, 17476, Control_c, 0, 64, 68
2, 17491, Control_c, 0, 64, 70
2, 17506, Control_c, 0, 64, 73
2, 17521, Control_c, 0, 64, 76
2, 17529, Note_on_c, 0, 54, 0
2, 17537, Control_c, 0, 64, 79
2, 17549, Note_on_c, 0, 69, 54
2, 17552, Control_c, 0, 64, 80
2, 17567, Control_c, 0, 64, 81
2, 17577, Note_on_c, 0, 61, 0
2, 17582, Control_c, 0, 64, 82
2, 17597, Control_c, 0, 64, 82
2, 17749, Control_c, 0, 64, 81
2, 17749, Note_on_c, 0, 59, 55
2, 17763, Note_on_c, 0, 43, 47
2, 17764, Control_c, 0, 64, 80
2, 17779, Control_c, 0, 64, 77
2, 17794, Control_c, 0, 64, 71
2, 17810, Control_c, 0, 64, 61
2, 17826, Control_c, 0, 64, 0
2, 17852, Note_on_c, 0, 69, 0
2, 17928, Note_on_c, 0, 59, 0
2, 17946, Note_on_c, 0, 66, 60
2, 18116, Note_on_c, 0, 47, 58
2, 18311, Note_on_c, 0, 69, 63
2, 18320, Note_on_c, 0, 43, 0
2, 18385, Note_on_c, 0, 66, 0
2, 18485, Note_on_c, 0, 50, 63
2, 18574, Note_on_c, 0, 47, 0
2, 18655, Note_on_c, 0, 67, 60
2, 18665, Note_on_c, 0, 69, 0
2, 18729, Note_on_c, 0, 67, 0
2, 18733, Note_on_c, 0, 66, 66
2, 18791, Note_on_c, 0, 66, 0
2, 18822, Note_on_c, 0, 67, 59
2, 18830, Note_on_c, 0, 52, 61
2, 18858, Note_on_c, 0, 50, 0
2, 18904, Note_on_c, 0, 66, 69
2, 18929, Note_on_c, 0, 67, 0
2, 18995, Note_on_c, 0, 64, 65
2, 19004, Note_on_c, 0, 66, 0
2, 19066, Note_on_c, 0, 64, 0
2, 19070, Note_on_c, 0, 62, 71
2, 19142, Note_on_c, 0, 62, 0
2, 19179, Note_on_c, 0, 61, 67
2, 19180, Note_on_c, 0, 45, 51
2, 19253, Note_on_c, 0, 52, 0
2, 19329, Note_on_c, 0, 61, 0
2, 19375, Note_on_c, 0, 67, 64
2, 19534, Note_on_c, 0, 49, 60
2, 19643, Note_on_c, 0, 45, 0
2, 19722, Note_on_c, 0, 71, 68
2, 19802, Note_on_c, 0, 67, 0
2, 19897, Note_on_c, 0, 52, 63
2, 19949, Note_on_c, 0, 49, 0
2, 20053, Note_on_c, 0, 69, 67
2, 20069, Note_on_c, 0, 71, 0
2, 20129, Note_on_c, 0, 69, 0
2, 20133, Note_on_c, 0, 67, 68
2, 20209, Note_on_c, 0, 67, 0
2, 20213, Note_on_c, 0, 54, 57
2, 20216, Note_on_c, 0, 69, 72
2, 20254, Note_on_c, 0, 52, 0
2, 20306, Note_on_c, 0, 67, 70
2, 20320, Note_on_c, 0, 69, 0
2, 20386, Note_on_c, 0, 66, 70
2, 20396, Note_on_c, 0, 67, 0
2, 20453, Note_on_c, 0, 64, 71
2, 20466, Note_on_c, 0, 66, 0
2, 20554, Note_on_c, 0, 64, 0
2, 20570, Note_on_c, 0, 47, 59
2, 20573, Note_on_c, 0, 62, 70
2, 20597, Note_on_c, 0, 54, 0
2, 20714, Note_on_c, 0, 62, 0
2, 20767, Note_on_c, 0, 69, 70
2, 20928, Note_on_c, 0, 50, 66
2, 21026, Note_on_c, 0, 47, 0
2, 21121, Note_on_c, 0, 72, 74
2, 21200, Note_on_c, 0, 69, 0
2, 21303, Note_on_c, 0, 54, 73
2, 21336, Note_on_c, 0, 50, 0
2, 21474, Note_on_c, 0, 71, 66
2, 21481, Note_on_c, 0, 72, 0
2, 21551, Note_on_c, 0, 69, 77
2, 21557, Note_on_c, 0, 71, 0
2, 21634, Note_on_c, 0, 69, 0
2, 21644, Note_on_c, 0, 71, 71
2, 21649, Note_on_c, 0, 55, 62
2, 21671, Note_on_c, 0, 54, 0
2, 21732, Note_on_c, 0, 69, 77
2, 21746, Note_on_c, 0, 71, 0
2, 21812, Note_on_c, 0, 67, 74
2, 21833, Note_on_c, 0, 69, 0
2, 21883, Note_on_c, 0, 66, 80
2, 21887, Note_on_c, 0, 67, 0
2, 21989, Note_on_c, 0, 66, 0
2, 21998, Note_on_c, 0, 49, 58
2, 22001, Note_on_c, 0, 64, 73
2, 22059, Note_on_c, 0, 55, 0
2, 22168, Note_on_c, 0, 64, 0
2, 22210, Note_on_c, 0, 71, 70
2, 22382, Note_on_c, 0, 52, 66
2, 22470, Note_on_c, 0, 49, 0
2, 22563, Note_on_c, 0, 74, 67
2, 22701, Note_on_c, 0, 71, 0
2, 22748, Note_on_c, 0, 55, 58
2, 22828, Note_on_c, 0, 52, 0
2, 22932, Note_on_c, 0, 73, 61
2, 22955, Note_on_c, 0, 74, 0
2, 23012, Note_on_c, 0, 73, 0
2, 23014, Note_on_c, 0, 71, 67
2, 23100, Note_on_c, 0, 71, 0
2, 23103, Note_on_c, 0, 73, 69
2, 23109, Note_on_c, 0, 57, 57
2, 23175, Note_on_c, 0, 55, 0
2, 23187, Note_on_c, 0, 71, 67
2, 23196, Note_on_c, 0, 73, 0
2, 23272, Note_on_c, 0, 69, 73
2, 23289, Note_on_c, 0, 71, 0
2, 23342, Note_on_c, 0, 69, 0
2, 23356, Note_on_c, 0, 67, 68
2, 23494, Note_on_c, 0, 50, 58
2, 23505, Note_on_c, 0, 66, 68
2, 23549, Note_on_c, 0, 67, 0
2, 23602, Note_on_c, 0, 57, 0
2, 23713, Note_on_c, 0, 69, 62
2, 23825, Note_on_c, 0, 66, 0
2, 23884, Note_on_c, 0, 54, 60
2, 23884, Note_on_c, 0, 62, 67
2, 23948, Note_on_c, 0, 50, 0
2, 23950, Note_on_c, 0, 69, 0
2, 24061, Note_on_c, 0, 64, 67
2, 24104, Note_on_c, 0, 62, 0
2, 24236, Note_on_c, 0, 57, 60
2, 24243, Note_on_c, 0, 66, 72
2, 24280, Note_on_c, 0, 54, 0
2, 24284, Note_on_c, 0, 64, 0
2, 24422, Note_on_c, 0, 69, 63
2, 24461, Note_on_c, 0, 66, 0
2, 24586, Note_on_c, 0, 62, 67
2, 24622, Note_on_c, 0, 69, 0
2, 24632, Note_on_c, 0, 57, 0
2, 24659, Note_on_c, 0, 59, 60
2, 24734, Note_on_c, 0, 57, 60
2, 24734, Note_on_c, 0, 59, 0
2, 24737, Note_on_c, 0, 62, 0
2, 24747, Note_on_c, 0, 66, 63
2, 24818, Note_on_c, 0, 57, 0
2, 24826, Note_on_c, 0, 56, 63
2, 24918, Note_on_c, 0, 56, 0
2, 24920, Note_on_c, 0, 66, 0
2, 24923, Note_on_c, 0, 64, 59
2, 24927, Note_on_c, 0, 57, 65
2, 25128, Note_on_c, 0, 69, 62
2, 25165, Note_on_c, 0, 64, 0
2, 25207, Note_on_c, 0, 69, 0
2, 25288, Note_on_c, 0, 49, 49
2, 25294, Note_on_c, 0, 71, 62
2, 25368, Note_on_c, 0, 69, 69
2, 25371, Note_on_c, 0, 57, 0
2, 25371, Note_on_c, 0, 71, 0
2, 25440, Note_on_c, 0, 69, 0
2, 25445, Note_on_c, 0, 68, 72
2, 25508, Note_on_c, 0, 68, 0
2, 25523, Note_on_c, 0, 69, 68
2, 25619, Note_on_c, 0, 73, 67
2, 25624, Note_on_c, 0, 52, 52
2, 25647, Note_on_c, 0, 69, 0
2, 25696, Note_on_c, 0, 49, 0
2, 25813, Note_on_c, 0, 69, 66
2, 25849, Note_on_c, 0, 73, 0
2, 26005, Note_on_c, 0, 57, 52
2, 26012, Note_on_c, 0, 76, 63
2, 26035, Note_on_c, 0, 69, 0
2, 26075, Note_on_c, 0, 52, 0
2, 26175, Note_on_c, 0, 76, 0
2, 26183, Note_on_c, 0, 67, 67
2, 26365, Note_on_c, 0, 66, 63
2, 26373, Note_on_c, 0, 50, 56
2, 26414, Note_on_c, 0, 67, 0
2, 26445, Note_on_c, 0, 57, 0
2, 26554, Note_on_c, 0, 69, 64
2, 26636, Note_on_c, 0, 66, 0
2, 26716, Note_on_c, 0, 62, 65
2, 26723, Note_on_c, 0, 54, 60
2, 26731, Note_on_c, 0, 69, 0
2, 26770, Note_on_c, 0, 50, 0
2, 26891, Note_on_c, 0, 64, 66
2, 26938, Note_on_c, 0, 62, 0
2, 27070, Note_on_c, 0, 57, 63
2, 27076, Note_on_c, 0, 66, 69
2, 27110, Note_on_c, 0, 54, 0
2, 27110, Note_on_c, 0, 64, 0
2, 27242, Note_on_c, 0, 69, 60
2, 27278, Note_on_c, 0, 66, 0
2, 27396, Note_on_c, 0, 62, 58
2, 27474, Note_on_c, 0, 57, 0
2, 27483, Note_on_c, 0, 69, 0
2, 27506, Note_on_c, 0, 59, 56
2, 27561, Note_on_c, 0, 59, 0
2, 27571, Note_on_c, 0, 57, 59
2, 27584, Note_on_c, 0, 66, 57
2, 27587, Note_on_c, 0, 62, 0
2, 27639, Note_on_c, 0, 57, 0
2, 27656, Note_on_c, 0, 56, 63
2, 27737, Note_on_c, 0, 56, 0
2, 27750, Note_on_c, 0, 57, 60
2, 27755, Note_on_c, 0, 64, 60
2, 27800, Note_on_c, 0, 66, 0
2, 27947, Note_on_c, 0, 69, 55
2, 27967, Note_on_c, 0, 64, 0
2, 28128, Note_on_c, 0, 45, 42
2, 28128, Note_on_c, 0, 64, 53
2, 28161, Note_on_c, 0, 57, 0
2, 28198, Note_on_c, 0, 69, 0
2, 28311, Note_on_c, 0, 61, 52
2, 28363, Note_on_c, 0, 64, 0
2, 28379, Note_on_c, 0, 45, 0
2, 28493, Note_on_c, 0, 57, 54
2, 28538, Note_on_c, 0, 61, 0
2, 28659, Note_on_c, 0, 55, 54
2, 28728, Note_on_c, 0, 57, 0
2, 28836, Note_on_c, 0, 54, 62
2, 28847, Note_on_c, 0, 55, 0
2, 29017, Note_on_c, 0, 52, 64
2, 29028, Note_on_c, 0, 54, 0
2, 29195, Note_on_c, 0, 54, 60
2, 29201, Note_on_c, 0, 52, 0
2, 29370, Note_on_c, 0, 57, 55
2, 29410, Note_on_c, 0, 54, 0
2, 29546, Note_on_c, 0, 69, 60
2, 29568, Note_on_c, 0, 50, 44
2, 29620, Note_on_c, 0, 57, 0
2, 29705, Note_on_c, 0, 50, 0
2, 29709, Note_on_c, 0, 52, 56
2, 29758, Note_on_c, 0, 69, 0
2, 29876, Note_on_c, 0, 71, 59
2, 29879, Note_on_c, 0, 52, 0
2, 29879, Note_on_c, 0, 54, 54
2, 29953, Note_on_c, 0, 69, 64
2, 29956, Note_on_c, 0, 71, 0
2, 30004, Note_on_c, 0, 54, 0
2, 30024, Note_on_c, 0, 69, 0
2, 30027, Note_on_c, 0, 68, 68
2, 30051, Note_on_c, 0, 57, 50
2, 30094, Note_on_c, 0, 68, 0
2, 30106, Note_on_c, 0, 69, 69
2, 30221, Note_on_c, 0, 78, 66
2, 30228, Note_on_c, 0, 50, 44
2, 30236, Note_on_c, 0, 57, 0
2, 30262, Note_on_c, 0, 69, 0
2, 30404, Note_on_c, 0, 54, 55
2, 30408, Note_on_c, 0, 50, 0
2, 30548, Note_on_c, 0, 78, 0
2, 30586, Note_on_c, 0, 52, 62
2, 30592, Note_on_c, 0, 54, 0
2, 30760, Note_on_c, 0, 52, 0
2, 30760, Note_on_c, 0, 57, 62
2, 30910, Note_on_c, 0, 57, 0
2, 30915, Note_on_c, 0, 69, 62
2, 30929, Note_on_c, 0, 59, 66
2, 30998, Note_on_c, 0, 59, 0
2, 31012, Note_on_c, 0, 57, 60
2, 31064, Note_on_c, 0, 57, 0
2, 31081, Note_on_c, 0, 56, 64
2, 31128, Note_on_c, 0, 69, 0
2, 31143, Note_on_c, 0, 56, 0
2, 31148, Note_on_c, 0, 57, 68
2, 31237, Note_on_c, 0, 57, 0
2, 31252, Note_on_c, 0, 71, 65
2, 31256, Note_on_c, 0, 61, 72
2, 31335, Note_on_c, 0, 69, 73
2, 31342, Note_on_c, 0, 71, 0
2, 31411, Note_on_c, 0, 57, 56
2, 31412, Note_on_c, 0, 68, 73
2, 31412, Note_on_c, 0, 69, 0
2, 31436, Note_on_c, 0, 61, 0
2, 31481, Note_on_c, 0, 68, 0
2, 31484, Note_on_c, 0, 69, 72
2, 31610, Note_on_c, 0, 79, 73
2, 31611, Note_on_c, 0, 64, 55
2, 31628, Note_on_c, 0, 57, 0
2, 31647, Note_on_c, 0, 69, 0
2, 31779, Note_on_c, 0, 55, 59
2, 31790, Note_on_c, 0, 64, 0
2, 31929, Note_on_c, 0, 79, 0
2, 31958, Note_on_c, 0, 55, 0
2, 31967, Note_on_c, 0, 54, 66
2, 32146, Note_on_c, 0, 57, 66
2, 32191, Note_on_c, 0, 54, 0
2, 32307, Note_on_c, 0, 69, 69
2, 32323, Note_on_c, 0, 50, 54
2, 32465, Note_on_c, 0, 57, 0
2, 32475, Note_on_c, 0, 50, 0
2, 32479, Note_on_c, 0, 52, 63
2, 32552, Note_on_c, 0, 69, 0
2, 32657, Note_on_c, 0, 71, 67
2, 32668, Note_on_c, 0, 54, 52
2, 32669, Note_on_c, 0, 52, 0
2, 32730, Note_on_c, 0, 69, 70
2, 32730, Note_on_c, 0, 71, 0
2, 32807, Note_on_c, 0, 68, 73
2, 32812, Note_on_c, 0, 69, 0
2, 32840, Note_on_c, 0, 57, 53
2, 32871, Note_on_c, 0, 68, 0
2, 32883, Note_on_c, 0, 69, 71
2, 32892, Note_on_c, 0, 54, 0
2, 32998, Note_on_c, 0, 50, 48
2, 32998, Note_on_c, 0, 81, 72
2, 33025, Note_on_c, 0, 57, 0
2, 33036, Note_on_c, 0, 69, 0
2, 33161, Note_on_c, 0, 54, 51
2, 33170, Note_on_c, 0, 74, 62
2, 33199, Note_on_c, 0, 81, 0
2, 33204, Note_on_c, 0, 50, 0
2, 33235, Note_on_c, 0, 74, 0
2, 33366, Note_on_c, 0, 74, 64
2, 33378, Note_on_c, 0, 52, 53
2, 33406, Note_on_c, 0, 54, 0
2, 33529, Note_on_c, 0, 52, 0
2, 33539, Note_on_c, 0, 57, 55
2, 33711, Note_on_c, 0, 52, 52
2, 33721, Note_on_c, 0, 73, 65
2, 33777, Note_on_c, 0, 74, 0
2, 33784, Note_on_c, 0, 57, 0
2, 33887, Note_on_c, 0, 49, 51
2, 33920, Note_on_c, 0, 52, 0
2, 34048, Note_on_c, 0, 49, 0
2, 34050, Note_on_c, 0, 45, 54
2, 34131, Note_on_c, 0, 73, 0
2, 34140, Note_on_c, 0, 71, 56
2, 34225, Note_on_c, 0, 45, 0
2, 34231, Note_on_c, 0, 57, 48
2, 34231, Note_on_c, 0, 73, 64
2, 34232, Note_on_c, 0, 71, 0
2, 34308, Note_on_c, 0, 75, 67
2, 34336, Note_on_c, 0, 73, 0
2, 34384, Note_on_c, 0, 55, 52
2, 34402, Note_on_c, 0, 57, 0
2, 34408, Note_on_c, 0, 75, 0
2, 34411, Note_on_c, 0, 76, 65
2, 34484, Note_on_c, 0, 75, 64
2, 34497, Note_on_c, 0, 76, 0
2, 34545, Note_on_c, 0, 54, 59
2, 34555, Note_on_c, 0, 55, 0
2, 34565, Note_on_c, 0, 75, 0
2, 34567, Note_on_c, 0, 73, 74
2, 34629, Note_on_c, 0, 75, 74
2, 34647, Note_on_c, 0, 73, 0
2, 34699, Note_on_c, 0, 55, 58
2, 34723, Note_on_c, 0, 76, 71
2, 34735, Note_on_c, 0, 54, 0
2, 34751, Note_on_c, 0, 75, 0
2, 34901, Note_on_c, 0, 59, 51
2, 34904, Note_on_c, 0, 79, 67
2, 34918, Note_on_c, 0, 76, 0
2, 34989, Note_on_c, 0, 55, 0
2, 35072, Note_on_c, 0, 52, 54
2, 35077, Note_on_c, 0, 71, 64
2, 35104, Note_on_c, 0, 79, 0
2, 35142, Note_on_c, 0, 59, 0
2, 35248, Note_on_c, 0, 54, 52
2, 35259, Note_on_c, 0, 75, 71
2, 35280, Note_on_c, 0, 71, 0
2, 35285, Note_on_c, 0, 52, 0
2, 35427, Note_on_c, 0, 76, 76
2, 35432, Note_on_c, 0, 55, 54
2, 35436, Note_on_c, 0, 54, 0
2, 35452, Note_on_c, 0, 75, 0
2, 35593, Note_on_c, 0, 79, 71
2, 35604, Note_on_c, 0, 59, 52
2, 35622, Note_on_c, 0, 76, 0
2, 35623, Note_on_c, 0, 55, 0
2, 35761, Note_on_c, 0, 71, 69
2, 35763, Note_on_c, 0, 52, 54
2, 35818, Note_on_c, 0, 59, 0
2, 35867, Note_on_c, 0, 79, 0
2, 35943, Note_on_c, 0, 55, 47
2, 35943, Note_on_c, 0, 76, 66
2, 35947, Note_on_c, 0, 52, 0
2, 35953, Note_on_c, 0, 71, 0
2, 35986, Note_on_c, 0, 76, 0
2, 36131, Note_on_c, 0, 55, 0
2, 36137, Note_on_c, 0, 76, 66
2, 36142, Note_on_c, 0, 54, 56
2, 36310, Note_on_c, 0, 59, 62
2, 36315, Note_on_c, 0, 54, 0
2, 36457, Note_on_c, 0, 59, 0
2, 36472, Note_on_c, 0, 60, 62
2, 36494, Note_on_c, 0, 75, 61
2, 36494, Note_on_c, 0, 76, 0
2, 36534, Note_on_c, 0, 75, 0
2, 36549, Note_on_c, 0, 60, 0
2, 36555, Note_on_c, 0, 59, 60
2, 36625, Note_on_c, 0, 59, 0
2, 36642, Note_on_c, 0, 58, 70
2, 36652, Note_on_c, 0, 78, 67
2, 36718, Note_on_c, 0, 78, 0
2, 36727, Note_on_c, 0, 58, 0
2, 36739, Note_on_c, 0, 59, 68
2, 36835, Note_on_c, 0, 59, 0
2, 36837, Note_on_c, 0, 71, 68
2, 36854, Note_on_c, 0, 63, 60
2, 37021, Note_on_c, 0, 59, 53
2, 37025, Note_on_c, 0, 63, 0
2, 37186, Note_on_c, 0, 71, 0
2, 37192, Note_on_c, 0, 66, 55
2, 37197, Note_on_c, 0, 59, 0
2, 37200, Note_on_c, 0, 69, 70
2, 37263, Note_on_c, 0, 69, 0
2, 37362, Note_on_c, 0, 57, 55
2, 37371, Note_on_c, 0, 78, 66
2, 37396, Note_on_c, 0, 66, 0
2, 37438, Note_on_c, 0, 78, 0
2, 37549, Note_on_c, 0, 78, 71
2, 37560, Note_on_c, 0, 55, 49
2, 37577, Note_on_c, 0, 57, 0
2, 37631, Note_on_c, 0, 76, 72
2, 37674, Note_on_c, 0, 78, 0
2, 37701, Note_on_c, 0, 55, 0
2, 37713, Note_on_c, 0, 59, 50
2, 37722, Note_on_c, 0, 75, 72
2, 37747, Note_on_c, 0, 76, 0
2, 37910, Note_on_c, 0, 76, 65
2, 37920, Note_on_c, 0, 75, 0
2, 37925, Note_on_c, 0, 52, 44
2, 38012, Note_on_c, 0, 59, 0
2, 38073, Note_on_c, 0, 52, 0
2, 38089, Note_on_c, 0, 54, 48
2, 38089, Note_on_c, 0, 69, 64
2, 38139, Note_on_c, 0, 76, 0
2, 38183, Note_on_c, 0, 69, 0
2, 38261, Note_on_c, 0, 54, 0
2, 38273, Note_on_c, 0, 55, 50
2, 38279, Note_on_c, 0, 69, 61
2, 38454, Note_on_c, 0, 59, 48
2, 38507, Note_on_c, 0, 55, 0
2, 38620, Note_on_c, 0, 67, 60
2, 38631, Note_on_c, 0, 52, 46
2, 38641, Note_on_c, 0, 69, 0
2, 38728, Note_on_c, 0, 67, 0
2, 38734, Note_on_c, 0, 59, 0
2, 38789, Note_on_c, 0, 55, 45
2, 38799, Note_on_c, 0, 76, 68
2, 38807, Note_on_c, 0, 52, 0
2, 38872, Note_on_c, 0, 76, 0
2, 38981, Note_on_c, 0, 55, 0
2, 38985, Note_on_c, 0, 54, 50
2, 38994, Note_on_c, 0, 76, 76
2, 39112, Control_c, 0, 64, 32
2, 39128, Control_c, 0, 64, 58
2, 39144, Control_c, 0, 64, 62
2, 39151, Note_on_c, 0, 54, 0
2, 39159, Control_c, 0, 64, 63
2, 39162, Note_on_c, 0, 75, 67
2, 39169, Note_on_c, 0, 76, 0
2, 39170, Note_on_c, 0, 59, 45
2, 39175, Control_c, 0, 64, 65
2, 39190, Control_c, 0, 64, 67
2, 39204, Control_c, 0, 64, 69
2, 39220, Control_c, 0, 64, 72
2, 39224, Note_on_c, 0, 75, 0
2, 39235, Control_c, 0, 64, 74
2, 39250, Control_c, 0, 64, 75
2, 39266, Control_c, 0, 64, 76
2, 39280, Control_c, 0, 64, 77
2, 39378, Note_on_c, 0, 81, 74
2, 39401, Control_c, 0, 64, 76
2, 39406, Note_on_c, 0, 54, 46
2, 39417, Control_c, 0, 64, 76
2, 39432, Control_c, 0, 64, 75
2, 39447, Control_c, 0, 64, 72
2, 39462, Control_c, 0, 64, 66
2, 39477, Control_c, 0, 64, 49
2, 39492, Control_c, 0, 64, 0
2, 39572, Note_on_c, 0, 59, 0
2, 39575, Note_on_c, 0, 51, 43
2, 39728, Note_on_c, 0, 54, 0
2, 39731, Note_on_c, 0, 51, 0
2, 39758, Note_on_c, 0, 47, 44
2, 39826, Note_on_c, 0, 81, 0
2, 39843, Note_on_c, 0, 79, 53
2, 39924, Note_on_c, 0, 78, 66
2, 39939, Note_on_c, 0, 79, 0
2, 39999, Note_on_c, 0, 78, 0
2, 40019, Note_on_c, 0, 76, 62
2, 40107, Note_on_c, 0, 75, 63
2, 40113, Note_on_c, 0, 76, 0
2, 40169, Note_on_c, 0, 47, 0
2, 40193, Note_on_c, 0, 73, 60
2, 40260, Note_on_c, 0, 75, 0
2, 40277, Note_on_c, 0, 71, 59
2, 40311, Note_on_c, 0, 73, 0
2, 40345, Note_on_c, 0, 71, 0
2, 40347, Note_on_c, 0, 69, 62
2, 40462, Note_on_c, 0, 67, 62
2, 40480, Note_on_c, 0, 69, 0
2, 40673, Note_on_c, 0, 71, 51
2, 40773, Note_on_c, 0, 67, 0
2, 40810, Note_on_c, 0, 71, 0
2, 40841, Note_on_c, 0, 64, 56
2, 40857, Note_on_c, 0, 55, 44
2, 41033, Note_on_c, 0, 66, 57
2, 41064, Note_on_c, 0, 64, 0
2, 41205, Note_on_c, 0, 67, 61
2, 41212, Note_on_c, 0, 52, 49
2, 41218, Note_on_c, 0, 66, 0
2, 41325, Note_on_c, 0, 55, 0
2, 41394, Note_on_c, 0, 71, 58
2, 41430, Note_on_c, 0, 67, 0
2, 41565, Note_on_c, 0, 64, 65
2, 41569, Note_on_c, 0, 47, 49
2, 41593, Note_on_c, 0, 71, 0
2, 41667, Note_on_c, 0, 52, 0
2, 41745, Note_on_c, 0, 67, 64
2, 41746, Note_on_c, 0, 64, 0
2, 41829, Note_on_c, 0, 47, 0
2, 41926, Note_on_c, 0, 66, 65
2, 41945, Note_on_c, 0, 67, 0
2, 42113, Note_on_c, 0, 71, 59
2, 42138, Note_on_c, 0, 66, 0
2, 42263, Note_on_c, 0, 71, 0
2, 42275, Note_on_c, 0, 57, 51
2, 42275, Note_on_c, 0, 72, 63
2, 42366, Note_on_c, 0, 71, 61
2, 42385, Note_on_c, 0, 72, 0
2, 42439, Note_on_c, 0, 70, 69
2, 42445, Note_on_c, 0, 71, 0
2, 42504, Note_on_c, 0, 70, 0
2, 42520, Note_on_c, 0, 71, 69
2, 42616, Note_on_c, 0, 54, 51
2, 42621, Note_on_c, 0, 75, 74
2, 42655, Note_on_c, 0, 71, 0
2, 42693, Note_on_c, 0, 57, 0
2, 42809, Note_on_c, 0, 71, 64
2, 42812, Note_on_c, 0, 75, 0
2, 42989, Note_on_c, 0, 78, 70
2, 42993, Note_on_c, 0, 47, 50
2, 43007, Note_on_c, 0, 71, 0
2, 43028, Note_on_c, 0, 54, 0
2, 43159, Note_on_c, 0, 69, 71
2, 43168, Note_on_c, 0, 78, 0
2, 43310, Note_on_c, 0, 47, 0
2, 43347, Note_on_c, 0, 67, 71
2, 43386, Note_on_c, 0, 69, 0
2, 43522, Note_on_c, 0, 71, 64
2, 43588, Note_on_c, 0, 67, 0
2, 43695, Note_on_c, 0, 59, 62
2, 43697, Note_on_c, 0, 64, 66
2, 43721, Note_on_c, 0, 71, 0
2, 43724, Note_on_c, 0, 57, 63
2, 43724, Note_on_c, 0, 59, 0
2, 43753, Note_on_c, 0, 57, 0
2, 43785, Note_on_c, 0, 59, 75
2, 43846, Note_on_c, 0, 66, 62
2, 43871, Note_on_c, 0, 64, 0
2, 44026, Note_on_c, 0, 66, 0
2, 44028, Note_on_c, 0, 67, 57
2, 44188, Note_on_c, 0, 59, 0
2, 44198, Note_on_c, 0, 57, 59
2, 44201, Note_on_c, 0, 71, 54
2, 44209, Note_on_c, 0, 67, 0
2, 44267, Note_on_c, 0, 57, 0
2, 44283, Note_on_c, 0, 55, 58
2, 44348, Note_on_c, 0, 55, 0
2, 44367, Note_on_c, 0, 64, 64
2, 44372, Note_on_c, 0, 57, 66
2, 44436, Note_on_c, 0, 71, 0
2, 44439, Note_on_c, 0, 57, 0
2, 44445, Note_on_c, 0, 55, 60
2, 44524, Note_on_c, 0, 55, 0
2, 44525, Note_on_c, 0, 64, 0
2, 44530, Note_on_c, 0, 54, 61
2, 44533, Note_on_c, 0, 67, 54
2, 44601, Note_on_c, 0, 52, 57
2, 44607, Note_on_c, 0, 54, 0
2, 44639, Note_on_c, 0, 52, 0
2, 44724, Note_on_c, 0, 66, 56
2, 44742, Note_on_c, 0, 52, 49
2, 44769, Note_on_c, 0, 67, 0
2, 44933, Note_on_c, 0, 66, 0
2, 44938, Note_on_c, 0, 71, 46
2, 45073, Note_on_c, 0, 52, 0
2, 45100, Note_on_c, 0, 51, 43
2, 45124, Note_on_c, 0, 66, 53
2, 45164, Note_on_c, 0, 71, 0
2, 45289, Note_on_c, 0, 63, 54
2, 45348, Note_on_c, 0, 66, 0
2, 45360, Note_on_c, 0, 51, 0
2, 45367, Note_on_c, 0, 63, 0
2, 45470, Note_on_c, 0, 59, 53
2, 45500, Control_c, 0, 64, 54
2, 45515, Control_c, 0, 64, 64
2, 45530, Control_c, 0, 64, 67
2, 45545, Control_c, 0, 64, 69
2, 45560, Control_c, 0, 64, 72
2, 45564, Note_on_c, 0, 59, 0
2, 45576, Control_c, 0, 64, 75
2, 45591, Control_c, 0, 64, 78
2, 45606, Control_c, 0, 64, 80
2, 45621, Control_c, 0, 64, 81
2, 45635, Note_on_c, 0, 57, 52
2, 45651, Control_c, 0, 64, 81
2, 45690, Note_on_c, 0, 57, 0
2, 45723, Note_on_c, 0, 55, 48
2, 45762, Note_on_c, 0, 55, 0
2, 45775, Control_c, 0, 64, 81
2, 45783, Note_on_c, 0, 76, 55
2, 45799, Note_on_c, 0, 54, 48
2, 45804, Control_c, 0, 64, 79
2, 45820, Control_c, 0, 64, 77
2, 45835, Control_c, 0, 64, 71
2, 45847, Note_on_c, 0, 76, 0
2, 45849, Note_on_c, 0, 75, 56
2, 45858, Control_c, 0, 64, 60
2, 45861, Note_on_c, 0, 54, 0
2, 45873, Control_c, 0, 64, 0
2, 45888, Note_on_c, 0, 75, 0
2, 45890, Note_on_c, 0, 73, 64
2, 45891, Note_on_c, 0, 55, 41
2, 45922, Note_on_c, 0, 55, 0
2, 45927, Note_on_c, 0, 57, 47
2, 45953, Note_on_c, 0, 75, 60
2, 45968, Note_on_c, 0, 73, 0
2, 45982, Note_on_c, 0, 57, 0
2, 46148, Note_on_c, 0, 55, 49
2, 46158, Note_on_c, 0, 76, 60
2, 46165, Note_on_c, 0, 75, 0
2, 46177, Control_c, 0, 64, 51
2, 46182, Note_on_c, 0, 55, 0
2, 46191, Control_c, 0, 64, 62
2, 46206, Control_c, 0, 64, 64
2, 46222, Control_c, 0, 64, 65
2, 46237, Control_c, 0, 64, 67
2, 46252, Control_c, 0, 64, 68
2, 46268, Control_c, 0, 64, 70
2, 46283, Control_c, 0, 64, 71
2, 46299, Control_c, 0, 64, 71
2, 46329, Control_c, 0, 64, 72
2, 46335, Note_on_c, 0, 64, 62
2, 46389, Control_c, 0, 64, 71
2, 46404, Control_c, 0, 64, 71
2, 46408, Note_on_c, 0, 64, 0
2, 46420, Control_c, 0, 64, 69
2, 46421, Note_on_c, 0, 66, 66
2, 46435, Control_c, 0, 64, 64
2, 46450, Control_c, 0, 64, 41
2, 46465, Control_c, 0, 64, 0
2, 46489, Note_on_c, 0, 66, 0
2, 46514, Note_on_c, 0, 67, 69
2, 46520, Note_on_c, 0, 71, 63
2, 46589, Note_on_c, 0, 76, 0
2, 46590, Note_on_c, 0, 66, 68
2, 46634, Note_on_c, 0, 67, 0
2, 46653, Note_on_c, 0, 71, 0
2, 46686, Note_on_c, 0, 64, 71
2, 46711, Note_on_c, 0, 66, 0
2, 46895, Note_on_c, 0, 79, 66
2, 46976, Note_on_c, 0, 78, 73
2, 46981, Note_on_c, 0, 79, 0
2, 47053, Note_on_c, 0, 78, 0
2, 47058, Note_on_c, 0, 76, 71
2, 47061, Note_on_c, 0, 64, 0
2, 47064, Note_on_c, 0, 71, 64
2, 47128, Note_on_c, 0, 78, 76
2, 47135, Note_on_c, 0, 76, 0
2, 47226, Note_on_c, 0, 79, 73
2, 47246, Note_on_c, 0, 78, 0
2, 47287, Note_on_c, 0, 71, 0
2, 47341, Control_c, 0, 64, 46
2, 47356, Control_c, 0, 64, 62
2, 47371, Control_c, 0, 64, 64
2, 47405, Note_on_c, 0, 79, 0
2, 47408, Note_on_c, 0, 62, 51
2, 47409, Control_c, 0, 64, 65
2, 47411, Note_on_c, 0, 71, 72
2, 47424, Control_c, 0, 64, 66
2, 47439, Control_c, 0, 64, 67
2, 47455, Control_c, 0, 64, 68
2, 47455, Note_on_c, 0, 71, 0
2, 47469, Control_c, 0, 64, 69
2, 47484, Control_c, 0, 64, 69
2, 47561, Note_on_c, 0, 69, 73
2, 47589, Note_on_c, 0, 69, 0
2, 47610, Note_on_c, 0, 71, 56
2, 47622, Control_c, 0, 64, 69
2, 47636, Control_c, 0, 64, 68
2, 47648, Note_on_c, 0, 69, 73
2, 47651, Control_c, 0, 64, 67
2, 47666, Control_c, 0, 64, 65
2, 47681, Control_c, 0, 64, 62
2, 47685, Note_on_c, 0, 71, 0
2, 47697, Control_c, 0, 64, 55
2, 47702, Note_on_c, 0, 62, 0
2, 47712, Control_c, 0, 64, 27
2, 47727, Control_c, 0, 64, 0
2, 47730, Note_on_c, 0, 64, 59
2, 47751, Note_on_c, 0, 68, 73
2, 47754, Note_on_c, 0, 69, 0
2, 47799, Note_on_c, 0, 64, 0
2, 47815, Note_on_c, 0, 62, 62
2, 47873, Note_on_c, 0, 62, 0
2, 47897, Note_on_c, 0, 61, 66
2, 47909, Note_on_c, 0, 68, 0
2, 47917, Note_on_c, 0, 69, 66
2, 47988, Note_on_c, 0, 61, 0
2, 47990, Note_on_c, 0, 62, 62
2, 48079, Note_on_c, 0, 73, 66
2, 48083, Note_on_c, 0, 62, 0
2, 48086, Note_on_c, 0, 64, 57
2, 48086, Note_on_c, 0, 69, 0
2, 48173, Note_on_c, 0, 73, 0
2, 48276, Note_on_c, 0, 73, 61
2, 48463, Note_on_c, 0, 55, 41
2, 48463, Note_on_c, 0, 76, 59
2, 48489, Note_on_c, 0, 73, 0
2, 48581, Note_on_c, 0, 64, 0
2, 48649, Note_on_c, 0, 81, 67
2, 48690, Note_on_c, 0, 76, 0
2, 48768, Control_c, 0, 64, 52
2, 48779, Note_on_c, 0, 55, 0
2, 48784, Control_c, 0, 64, 62
2, 48799, Control_c, 0, 64, 64
2, 48815, Control_c, 0, 64, 65
2, 48824, Note_on_c, 0, 73, 66
2, 48830, Control_c, 0, 64, 67
2, 48842, Note_on_c, 0, 64, 44
2, 48844, Control_c, 0, 64, 69
2, 48860, Control_c, 0, 64, 71
2, 48863, Note_on_c, 0, 81, 0
2, 48875, Control_c, 0, 64, 72
2, 48890, Control_c, 0, 64, 74
2, 48905, Note_on_c, 0, 64, 0
2, 48906, Control_c, 0, 64, 75
2, 49021, Control_c, 0, 64, 72
2, 49035, Control_c, 0, 64, 66
2, 49044, Note_on_c, 0, 54, 47
2, 49047, Note_on_c, 0, 74, 61
2, 49050, Control_c, 0, 64, 10
2, 49066, Control_c, 0, 64, 0
2, 49076, Note_on_c, 0, 73, 0
2, 49088, Note_on_c, 0, 54, 0
2, 49142, Control_c, 0, 64, 31
2, 49157, Control_c, 0, 64, 59
2, 49172, Control_c, 0, 64, 63
2, 49188, Control_c, 0, 64, 64
2, 49203, Control_c, 0, 64, 64
2, 49219, Control_c, 0, 64, 65
2, 49231, Note_on_c, 0, 62, 56
2, 49233, Control_c, 0, 64, 67
2, 49248, Control_c, 0, 64, 68
2, 49264, Control_c, 0, 64, 68
2, 49298, Note_on_c, 0, 62, 0
2, 49317, Note_on_c, 0, 64, 66
2, 49340, Control_c, 0, 64, 67
2, 49355, Control_c, 0, 64, 64
2, 49369, Control_c, 0, 64, 54
2, 49385, Control_c, 0, 64, 0
2, 49390, Note_on_c, 0, 64, 0
2, 49398, Note_on_c, 0, 69, 60
2, 49420, Note_on_c, 0, 66, 68
2, 49444, Note_on_c, 0, 74, 0
2, 49481, Note_on_c, 0, 64, 68
2, 49491, Note_on_c, 0, 69, 0
2, 49496, Note_on_c, 0, 66, 0
2, 49587, Note_on_c, 0, 62, 69
2, 49616, Note_on_c, 0, 64, 0
2, 49776, Note_on_c, 0, 78, 66
2, 49862, Note_on_c, 0, 76, 70
2, 49864, Note_on_c, 0, 78, 0
2, 49932, Note_on_c, 0, 76, 0
2, 49947, Note_on_c, 0, 74, 70
2, 49954, Note_on_c, 0, 69, 72
2, 49991, Note_on_c, 0, 62, 0
2, 50015, Note_on_c, 0, 76, 74
2, 50020, Note_on_c, 0, 74, 0
2, 50120, Note_on_c, 0, 78, 78
2, 50129, Note_on_c, 0, 76, 0
2, 50215, Control_c, 0, 64, 59
2, 50221, Note_on_c, 0, 69, 0
2, 50230, Control_c, 0, 64, 64
2, 50245, Control_c, 0, 64, 65
2, 50260, Control_c, 0, 64, 66
2, 50275, Control_c, 0, 64, 68
2, 50290, Control_c, 0, 64, 71
2, 50299, Note_on_c, 0, 60, 60
2, 50302, Note_on_c, 0, 69, 72
2, 50304, Note_on_c, 0, 78, 0
2, 50306, Control_c, 0, 64, 73
2, 50321, Control_c, 0, 64, 75
2, 50336, Control_c, 0, 64, 75
2, 50351, Control_c, 0, 64, 76
2, 50355, Note_on_c, 0, 69, 0
2, 50382, Control_c, 0, 64, 76
2, 50471, Note_on_c, 0, 67, 65
2, 50480, Control_c, 0, 64, 76
2, 50490, Note_on_c, 0, 67, 0
2, 50505, Note_on_c, 0, 69, 65
2, 50511, Control_c, 0, 64, 74
2, 50526, Control_c, 0, 64, 71
2, 50541, Control_c, 0, 64, 64
2, 50556, Control_c, 0, 64, 30
2, 50560, Note_on_c, 0, 67, 72
2, 50571, Control_c, 0, 64, 0
2, 50602, Note_on_c, 0, 69, 0
2, 50633, Note_on_c, 0, 60, 0
2, 50649, Note_on_c, 0, 66, 72
2, 50656, Note_on_c, 0, 62, 60
2, 50657, Note_on_c, 0, 67, 0
2, 50727, Note_on_c, 0, 62, 0
2, 50749, Note_on_c, 0, 60, 59
2, 50810, Note_on_c, 0, 66, 0
2, 50819, Note_on_c, 0, 67, 67
2, 50821, Note_on_c, 0, 60, 0
2, 50831, Note_on_c, 0, 59, 63
2, 50917, Note_on_c, 0, 59, 0
2, 50933, Note_on_c, 0, 60, 60
2, 50998, Note_on_c, 0, 60, 0
2, 51001, Note_on_c, 0, 71, 66
2, 51019, Note_on_c, 0, 62, 58
2, 51035, Note_on_c, 0, 67, 0
2, 51104, Note_on_c, 0, 71, 0
2, 51196, Note_on_c, 0, 71, 60
2, 51385, Note_on_c, 0, 74, 59
2, 51392, Note_on_c, 0, 54, 42
2, 51402, Note_on_c, 0, 71, 0
2, 51501, Note_on_c, 0, 62, 0
2, 51572, Note_on_c, 0, 79, 63
2, 51597, Note_on_c, 0, 74, 0
2, 51753, Note_on_c, 0, 62, 45
2, 51754, Note_on_c, 0, 71, 58
2, 51759, Note_on_c, 0, 54, 0
2, 51850, Note_on_c, 0, 79, 0
2, 51922, Note_on_c, 0, 71, 0
2, 51949, Note_on_c, 0, 73, 58
2, 51968, Note_on_c, 0, 52, 47
2, 52037, Note_on_c, 0, 62, 0
2, 52037, Note_on_c, 0, 73, 0
2, 52167, Note_on_c, 0, 79, 64
2, 52337, Note_on_c, 0, 50, 51
2, 52378, Note_on_c, 0, 52, 0
2, 52411, Control_c, 0, 64, 47
2, 52427, Control_c, 0, 64, 58
2, 52442, Control_c, 0, 64, 60
2, 52457, Control_c, 0, 64, 62
2, 52472, Control_c, 0, 64, 63
2, 52487, Control_c, 0, 64, 65
2, 52503, Control_c, 0, 64, 66
2, 52518, Control_c, 0, 64, 67
2, 52523, Note_on_c, 0, 78, 58
2, 52532, Control_c, 0, 64, 68
2, 52548, Control_c, 0, 64, 69
2, 52563, Control_c, 0, 64, 70
2, 52579, Control_c, 0, 64, 71
2, 52582, Note_on_c, 0, 79, 0
2, 52681, Note_on_c, 0, 50, 0
2, 52685, Control_c, 0, 64, 70
2, 52701, Control_c, 0, 64, 69
2, 52701, Note_on_c, 0, 70, 59
2, 52715, Control_c, 0, 64, 66
2, 52716, Note_on_c, 0, 49, 47
2, 52730, Control_c, 0, 64, 61
2, 52730, Note_on_c, 0, 78, 0
2, 52746, Control_c, 0, 64, 40
2, 52768, Control_c, 0, 64, 0
2, 52836, Note_on_c, 0, 70, 0
2, 52909, Note_on_c, 0, 76, 56
2, 53069, Note_on_c, 0, 49, 0
2, 53079, Note_on_c, 0, 47, 54
2, 53181, Control_c, 0, 64, 39
2, 53196, Control_c, 0, 64, 58
2, 53211, Control_c, 0, 64, 61
2, 53226, Control_c, 0, 64, 62
2, 53241, Control_c, 0, 64, 64
2, 53257, Control_c, 0, 64, 65
2, 53265, Note_on_c, 0, 74, 49
2, 53272, Control_c, 0, 64, 67
2, 53287, Control_c, 0, 64, 69
2, 53302, Control_c, 0, 64, 71
2, 53313, Note_on_c, 0, 76, 0
2, 53317, Control_c, 0, 64, 72
2, 53332, Control_c, 0, 64, 73
2, 53335, Note_on_c, 0, 74, 0
2, 53347, Control_c, 0, 64, 74
2, 53362, Control_c, 0, 64, 75
2, 53457, Note_on_c, 0, 65, 58
2, 53463, Note_on_c, 0, 47, 0
2, 53484, Control_c, 0, 64, 75
2, 53499, Control_c, 0, 64, 74
2, 53514, Control_c, 0, 64, 73
2, 53538, Control_c, 0, 64, 70
2, 53553, Control_c, 0, 64, 67
2, 53567, Control_c, 0, 64, 60
2, 53583, Control_c, 0, 64, 36
2, 53598, Control_c, 0, 64, 0
2, 53641, Note_on_c, 0, 62, 57
2, 53835, Note_on_c, 0, 66, 67
2, 53947, Note_on_c, 0, 65, 0
2, 53998, Note_on_c, 0, 61, 62
2, 54058, Note_on_c, 0, 62, 0
2, 54184, Note_on_c, 0, 68, 68
2, 54187, Note_on_c, 0, 53, 55
2, 54240, Note_on_c, 0, 61, 0
2, 54262, Note_on_c, 0, 53, 0
2, 54319, Note_on_c, 0, 66, 0
2, 54371, Note_on_c, 0, 59, 64
2, 54553, Note_on_c, 0, 69, 74
2, 54603, Note_on_c, 0, 68, 0
2, 54714, Note_on_c, 0, 57, 66
2, 54789, Note_on_c, 0, 59, 0
2, 54906, Note_on_c, 0, 71, 71
2, 54911, Note_on_c, 0, 50, 56
2, 54928, Note_on_c, 0, 57, 0
2, 54971, Note_on_c, 0, 50, 0
2, 55024, Note_on_c, 0, 69, 0
2, 55095, Note_on_c, 0, 56, 64
2, 55267, Note_on_c, 0, 73, 75
2, 55376, Note_on_c, 0, 71, 0
2, 55435, Note_on_c, 0, 54, 60
2, 55465, Note_on_c, 0, 56, 0
2, 55502, Note_on_c, 0, 54, 0
2, 55515, Control_c, 0, 64, 18
2, 55530, Control_c, 0, 64, 53
2, 55546, Control_c, 0, 64, 60
2, 55560, Control_c, 0, 64, 62
2, 55576, Control_c, 0, 64, 63
2, 55591, Control_c, 0, 64, 64
2, 55605, Control_c, 0, 64, 64
2, 55621, Control_c, 0, 64, 65
2, 55635, Note_on_c, 0, 74, 56
2, 55652, Note_on_c, 0, 47, 52
2, 55678, Note_on_c, 0, 73, 0
2, 55681, Control_c, 0, 64, 64
2, 55697, Control_c, 0, 64, 63
2, 55712, Control_c, 0, 64, 61
2, 55727, Control_c, 0, 64, 56
2, 55743, Control_c, 0, 64, 46
2, 55750, Note_on_c, 0, 74, 0
2, 55758, Control_c, 0, 64, 0
2, 55840, Note_on_c, 0, 65, 59
2, 56018, Note_on_c, 0, 59, 53
2, 56179, Note_on_c, 0, 47, 0
2, 56191, Control_c, 0, 64, 44
2, 56198, Note_on_c, 0, 66, 64
2, 56206, Control_c, 0, 64, 58
2, 56221, Control_c, 0, 64, 61
2, 56236, Control_c, 0, 64, 62
2, 56251, Control_c, 0, 64, 63
2, 56262, Note_on_c, 0, 65, 0
2, 56267, Control_c, 0, 64, 64
2, 56282, Control_c, 0, 64, 65
2, 56297, Control_c, 0, 64, 65
2, 56375, Note_on_c, 0, 59, 0
2, 56387, Note_on_c, 0, 68, 62
2, 56390, Control_c, 0, 64, 65
2, 56392, Note_on_c, 0, 53, 53
2, 56404, Control_c, 0, 64, 64
2, 56420, Control_c, 0, 64, 63
2, 56423, Note_on_c, 0, 66, 0
2, 56435, Control_c, 0, 64, 61
2, 56449, Control_c, 0, 64, 57
2, 56465, Control_c, 0, 64, 54
2, 56480, Control_c, 0, 64, 48
2, 56496, Control_c, 0, 64, 36
2, 56511, Control_c, 0, 64, 0
2, 56584, Note_on_c, 0, 59, 65
2, 56634, Note_on_c, 0, 68, 0
2, 56765, Note_on_c, 0, 56, 58
2, 56899, Note_on_c, 0, 53, 0
2, 56957, Note_on_c, 0, 62, 61
2, 57089, Note_on_c, 0, 59, 0
2, 57125, Note_on_c, 0, 49, 57
2, 57163, Note_on_c, 0, 56, 0
2, 57311, Note_on_c, 0, 61, 59
2, 57366, Note_on_c, 0, 62, 0
2, 57490, Note_on_c, 0, 53, 51
2, 57526, Note_on_c, 0, 49, 0
2, 57560, Control_c, 0, 64, 57
2, 57575, Control_c, 0, 64, 64
2, 57577, Note_on_c, 0, 61, 0
2, 57590, Control_c, 0, 64, 66
2, 57605, Control_c, 0, 64, 67
2, 57621, Control_c, 0, 64, 68
2, 57635, Control_c, 0, 64, 70
2, 57650, Control_c, 0, 64, 73
2, 57666, Control_c, 0, 64, 75
2, 57672, Note_on_c, 0, 59, 55
2, 57681, Control_c, 0, 64, 76
2, 57697, Control_c, 0, 64, 76
2, 57712, Control_c, 0, 64, 77
2, 57764, Note_on_c, 0, 59, 0
2, 57831, Note_on_c, 0, 53, 0
2, 57848, Control_c, 0, 64, 76
2, 57864, Control_c, 0, 64, 76
2, 57877, Note_on_c, 0, 42, 53
2, 57878, Note_on_c, 0, 57, 56
2, 57879, Control_c, 0, 64, 75
2, 57895, Control_c, 0, 64, 74
2, 57909, Control_c, 0, 64, 71
2, 57922, Control_c, 0, 64, 64
2, 57937, Control_c, 0, 64, 39
2, 57954, Control_c, 0, 64, 0
2, 58054, Note_on_c, 0, 57, 0
2, 58060, Note_on_c, 0, 61, 60
2, 58238, Note_on_c, 0, 45, 63
2, 58249, Note_on_c, 0, 54, 64
2, 58298, Note_on_c, 0, 61, 0
2, 58303, Note_on_c, 0, 42, 0
2, 58413, Note_on_c, 0, 56, 67
2, 58478, Note_on_c, 0, 54, 0
2, 58608, Note_on_c, 0, 49, 60
2, 58611, Note_on_c, 0, 57, 65
2, 58622, Note_on_c, 0, 45, 0
2, 58635, Note_on_c, 0, 56, 0
2, 58786, Note_on_c, 0, 61, 67
2, 58813, Note_on_c, 0, 57, 0
2, 58961, Note_on_c, 0, 54, 62
2, 59017, Note_on_c, 0, 49, 0
2, 59033, Note_on_c, 0, 50, 60
2, 59060, Note_on_c, 0, 61, 0
2, 59113, Note_on_c, 0, 49, 61
2, 59113, Note_on_c, 0, 50, 0
2, 59129, Note_on_c, 0, 57, 58
2, 59154, Note_on_c, 0, 54, 0
2, 59173, Note_on_c, 0, 49, 0
2, 59186, Note_on_c, 0, 48, 66
2, 59293, Note_on_c, 0, 49, 64
2, 59294, Note_on_c, 0, 48, 0
2, 59297, Note_on_c, 0, 57, 0
2, 59303, Note_on_c, 0, 56, 60
2, 59483, Note_on_c, 0, 61, 65
2, 59518, Note_on_c, 0, 56, 0
2, 59577, Note_on_c, 0, 61, 0
2, 59651, Note_on_c, 0, 62, 57
2, 59662, Note_on_c, 0, 41, 60
2, 59699, Note_on_c, 0, 49, 0
2, 59739, Note_on_c, 0, 61, 58
2, 59768, Note_on_c, 0, 62, 0
2, 59800, Note_on_c, 0, 61, 0
2, 59823, Note_on_c, 0, 60, 69
2, 59897, Note_on_c, 0, 61, 73
2, 59911, Note_on_c, 0, 60, 0
2, 59986, Note_on_c, 0, 44, 55
2, 60000, Note_on_c, 0, 65, 70
2, 60025, Note_on_c, 0, 61, 0
2, 60051, Note_on_c, 0, 41, 0
2, 60185, Note_on_c, 0, 61, 66
2, 60237, Note_on_c, 0, 65, 0
2, 60362, Note_on_c, 0, 49, 59
2, 60372, Note_on_c, 0, 44, 0
2, 60372, Note_on_c, 0, 68, 69
2, 60417, Note_on_c, 0, 61, 0
2, 60553, Note_on_c, 0, 59, 66
2, 60692, Note_on_c, 0, 68, 0
2, 60753, Note_on_c, 0, 42, 53
2, 60754, Note_on_c, 0, 49, 0
2, 60755, Note_on_c, 0, 57, 62
2, 60770, Note_on_c, 0, 59, 0
2, 60929, Note_on_c, 0, 49, 61
2, 60979, Note_on_c, 0, 42, 0
2, 61095, Note_on_c, 0, 49, 0
2, 61103, Note_on_c, 0, 54, 59
2, 61117, Note_on_c, 0, 61, 69
2, 61201, Note_on_c, 0, 57, 0
2, 61294, Note_on_c, 0, 56, 67
2, 61309, Note_on_c, 0, 54, 0
2, 61454, Note_on_c, 0, 56, 0
2, 61465, Note_on_c, 0, 66, 68
2, 61467, Note_on_c, 0, 57, 63
2, 61519, Note_on_c, 0, 61, 0
2, 61644, Note_on_c, 0, 61, 69
2, 61656, Note_on_c, 0, 57, 0
2, 61822, Note_on_c, 0, 69, 69
2, 61829, Note_on_c, 0, 54, 55
2, 61860, Note_on_c, 0, 66, 0
2, 61894, Note_on_c, 0, 61, 0
2, 62000, Note_on_c, 0, 54, 0
2, 62002, Note_on_c, 0, 57, 67
2, 62175, Note_on_c, 0, 65, 62
2, 62183, Note_on_c, 0, 57, 0
2, 62183, Note_on_c, 0, 69, 0
2, 62192, Note_on_c, 0, 56, 62
2, 62357, Note_on_c, 0, 56, 0
2, 62360, Note_on_c, 0, 61, 63
2, 62504, Note_on_c, 0, 61, 0
2, 62522, Note_on_c, 0, 65, 0
2, 62528, Note_on_c, 0, 62, 66
2, 62531, Note_on_c, 0, 68, 63
2, 62593, Note_on_c, 0, 62, 0
2, 62594, Note_on_c, 0, 61, 55
2, 62655, Note_on_c, 0, 61, 0
2, 62663, Note_on_c, 0, 60, 65
2, 62749, Note_on_c, 0, 60, 0
2, 62754, Note_on_c, 0, 61, 65
2, 62842, Note_on_c, 0, 71, 68
2, 62845, Note_on_c, 0, 61, 0
2, 62863, Note_on_c, 0, 65, 60
2, 62879, Note_on_c, 0, 68, 0
2, 63026, Note_on_c, 0, 65, 0
2, 63027, Note_on_c, 0, 61, 61
2, 63186, Note_on_c, 0, 61, 0
2, 63215, Note_on_c, 0, 74, 58
2, 63223, Note_on_c, 0, 68, 44
2, 63255, Note_on_c, 0, 71, 0
2, 63373, Note_on_c, 0, 68, 0
2, 63382, Note_on_c, 0, 59, 48
2, 63576, Note_on_c, 0, 59, 0
2, 63586, Note_on_c, 0, 73, 53
2, 63609, Control_c, 0, 64, 29
2, 63610, Note_on_c, 0, 57, 44
2, 63623, Note_on_c, 0, 74, 0
2, 63625, Control_c, 0, 64, 62
2, 63640, Control_c, 0, 64, 65
2, 63655, Control_c, 0, 64, 67
2, 63664, Note_on_c, 0, 73, 0
2, 63670, Control_c, 0, 64, 69
2, 63685, Control_c, 0, 64, 71
2, 63702, Control_c, 0, 64, 74
2, 63712, Note_on_c, 0, 57, 0
2, 63717, Control_c, 0, 64, 77
2, 63732, Control_c, 0, 64, 78
2, 63748, Control_c, 0, 64, 79
2, 63763, Control_c, 0, 64, 79
2, 63789, Note_on_c, 0, 66, 63
2, 63793, Control_c, 0, 64, 80
2, 63845, Note_on_c, 0, 66, 0
2, 63870, Note_on_c, 0, 68, 66
2, 63914, Control_c, 0, 64, 79
2, 63929, Control_c, 0, 64, 78
2, 63945, Control_c, 0, 64, 75
2, 63946, Note_on_c, 0, 54, 51
2, 63960, Control_c, 0, 64, 69
2, 63964, Note_on_c, 0, 68, 0
2, 63968, Note_on_c, 0, 69, 64
2, 63974, Control_c, 0, 64, 57
2, 63990, Control_c, 0, 64, 0
2, 64044, Note_on_c, 0, 68, 68
2, 64059, Note_on_c, 0, 69, 0
2, 64151, Note_on_c, 0, 66, 72
2, 64187, Note_on_c, 0, 68, 0
2, 64328, Note_on_c, 0, 56, 59
2, 64427, Note_on_c, 0, 54, 0
2, 64522, Note_on_c, 0, 73, 71
2, 64663, Note_on_c, 0, 66, 0
2, 64702, Note_on_c, 0, 58, 58
2, 64754, Note_on_c, 0, 56, 0
2, 64884, Note_on_c, 0, 64, 62
2, 64942, Note_on_c, 0, 73, 0
2, 65080, Note_on_c, 0, 59, 48
2, 65098, Note_on_c, 0, 58, 0
2, 65203, Note_on_c, 0, 64, 0
2, 65253, Note_on_c, 0, 66, 55
2, 65339, Note_on_c, 0, 64, 62
2, 65372, Note_on_c, 0, 66, 0
2, 65415, Note_on_c, 0, 64, 0
2, 65426, Note_on_c, 0, 62, 65
2, 65432, Note_on_c, 0, 47, 52
2, 65505, Note_on_c, 0, 62, 0
2, 65505, Note_on_c, 0, 64, 60
2, 65539, Note_on_c, 0, 59, 0
2, 65609, Note_on_c, 0, 66, 58
2, 65646, Note_on_c, 0, 64, 0
2, 65805, Note_on_c, 0, 49, 49
2, 65875, Note_on_c, 0, 47, 0
2, 65973, Note_on_c, 0, 57, 53
2, 66035, Note_on_c, 0, 66, 0
2, 66142, Note_on_c, 0, 49, 0
2, 66154, Note_on_c, 0, 51, 45
2, 66264, Control_c, 0, 64, 57
2, 66279, Control_c, 0, 64, 62
2, 66294, Control_c, 0, 64, 64
2, 66310, Control_c, 0, 64, 66
2, 66320, Note_on_c, 0, 51, 0
2, 66322, Note_on_c, 0, 66, 53
2, 66325, Control_c, 0, 64, 68
2, 66340, Control_c, 0, 64, 71
2, 66355, Control_c, 0, 64, 75
2, 66365, Note_on_c, 0, 57, 0
2, 66370, Control_c, 0, 64, 78
2, 66386, Control_c, 0, 64, 80
2, 66401, Control_c, 0, 64, 81
2, 66416, Control_c, 0, 64, 82
2, 66431, Control_c, 0, 64, 82
2, 66438, Note_on_c, 0, 66, 0
2, 66540, Control_c, 0, 64, 81
2, 66547, Note_on_c, 0, 55, 54
2, 66555, Control_c, 0, 64, 76
2, 66559, Note_on_c, 0, 40, 46
2, 66569, Control_c, 0, 64, 67
2, 66593, Control_c, 0, 64, 0
2, 66669, Control_c, 0, 64, 58
2, 66675, Note_on_c, 0, 55, 0
2, 66684, Control_c, 0, 64, 65
2, 66699, Control_c, 0, 64, 68
2, 66714, Control_c, 0, 64, 69
2, 66729, Control_c, 0, 64, 71
2, 66745, Control_c, 0, 64, 73
2, 66760, Control_c, 0, 64, 75
2, 66774, Control_c, 0, 64, 76
2, 66777, Note_on_c, 0, 64, 53
2, 66840, Note_on_c, 0, 64, 0
2, 66845, Note_on_c, 0, 66, 68
2, 66896, Control_c, 0, 64, 75
2, 66911, Control_c, 0, 64, 74
2, 66926, Control_c, 0, 64, 72
2, 66942, Control_c, 0, 64, 67
2, 66944, Note_on_c, 0, 66, 0
2, 66945, Note_on_c, 0, 67, 66
2, 66954, Note_on_c, 0, 40, 0
2, 66957, Control_c, 0, 64, 47
2, 66957, Note_on_c, 0, 52, 56
2, 66973, Control_c, 0, 64, 0
2, 67027, Note_on_c, 0, 66, 68
2, 67040, Note_on_c, 0, 67, 0
2, 67128, Note_on_c, 0, 64, 69
2, 67174, Note_on_c, 0, 66, 0
2, 67306, Note_on_c, 0, 54, 58
2, 67406, Note_on_c, 0, 52, 0
2, 67503, Note_on_c, 0, 71, 67
2, 67616, Note_on_c, 0, 64, 0
2, 67682, Note_on_c, 0, 56, 61
2, 67752, Note_on_c, 0, 54, 0
2, 67859, Note_on_c, 0, 62, 63
2, 67903, Note_on_c, 0, 71, 0
2, 68048, Note_on_c, 0, 57, 57
2, 68073, Note_on_c, 0, 56, 0
2, 68221, Note_on_c, 0, 62, 0
2, 68230, Note_on_c, 0, 64, 55
2, 68322, Note_on_c, 0, 62, 62
2, 68327, Note_on_c, 0, 64, 0
2, 68403, Note_on_c, 0, 62, 0
2, 68408, Note_on_c, 0, 61, 65
2, 68419, Note_on_c, 0, 45, 46
2, 68480, Note_on_c, 0, 61, 0
2, 68485, Note_on_c, 0, 62, 66
2, 68513, Note_on_c, 0, 57, 0
2, 68590, Note_on_c, 0, 64, 59
2, 68623, Note_on_c, 0, 62, 0
2, 68779, Note_on_c, 0, 47, 54
2, 68847, Note_on_c, 0, 45, 0
2, 68971, Note_on_c, 0, 55, 57
2, 68984, Note_on_c, 0, 64, 0
2, 69140, Note_on_c, 0, 47, 0
2, 69149, Note_on_c, 0, 49, 53
2, 69186, Control_c, 0, 64, 54
2, 69201, Control_c, 0, 64, 64
2, 69217, Control_c, 0, 64, 67
2, 69231, Control_c, 0, 64, 69
2, 69246, Control_c, 0, 64, 71
2, 69262, Control_c, 0, 64, 74
2, 69276, Control_c, 0, 64, 76
2, 69291, Control_c, 0, 64, 78
2, 69299, Note_on_c, 0, 49, 0
2, 69307, Control_c, 0, 64, 79
2, 69322, Control_c, 0, 64, 80
2, 69329, Note_on_c, 0, 64, 52
2, 69338, Control_c, 0, 64, 80
2, 69352, Control_c, 0, 64, 81
2, 69354, Note_on_c, 0, 55, 0
2, 69383, Control_c, 0, 64, 81
2, 69505, Control_c, 0, 64, 81
2, 69530, Note_on_c, 0, 54, 54
2, 69536, Control_c, 0, 64, 80
2, 69551, Control_c, 0, 64, 78
2, 69554, Note_on_c, 0, 64, 0
2, 69557, Note_on_c, 0, 38, 46
2, 69566, Control_c, 0, 64, 74
2, 69581, Control_c, 0, 64, 66
2, 69596, Control_c, 0, 64, 0
2, 69732, Note_on_c, 0, 61, 57
2, 69748, Note_on_c, 0, 54, 0
2, 69907, Note_on_c, 0, 42, 56
2, 70069, Note_on_c, 0, 38, 0
2, 70073, Note_on_c, 0, 64, 64
2, 70132, Note_on_c, 0, 61, 0
2, 70254, Note_on_c, 0, 45, 61
2, 70339, Note_on_c, 0, 42, 0
2, 70419, Note_on_c, 0, 64, 0
2, 70433, Note_on_c, 0, 62, 56
2, 70504, Note_on_c, 0, 62, 0
2, 70507, Note_on_c, 0, 61, 63
2, 70593, Note_on_c, 0, 61, 0
2, 70598, Note_on_c, 0, 45, 0
2, 70598, Note_on_c, 0, 50, 58
2, 70599, Note_on_c, 0, 62, 59
2, 70664, Note_on_c, 0, 61, 65
2, 70689, Note_on_c, 0, 62, 0
2, 70749, Note_on_c, 0, 61, 0
2, 70760, Note_on_c, 0, 59, 66
2, 70830, Note_on_c, 0, 59, 0
2, 70835, Note_on_c, 0, 58, 66
2, 70919, Note_on_c, 0, 58, 0
2, 70938, Note_on_c, 0, 59, 69
2, 70941, Note_on_c, 0, 43, 58
2, 70999, Note_on_c, 0, 50, 0
2, 71088, Note_on_c, 0, 59, 0
2, 71143, Note_on_c, 0, 66, 67
2, 71320, Note_on_c, 0, 47, 62
2, 71434, Note_on_c, 0, 43, 0
2, 71494, Note_on_c, 0, 69, 70
2, 71593, Note_on_c, 0, 66, 0
2, 71667, Note_on_c, 0, 50, 64
2, 71717, Note_on_c, 0, 47, 0
2, 71836, Note_on_c, 0, 67, 64
2, 71839, Note_on_c, 0, 69, 0
2, 71913, Note_on_c, 0, 66, 73
2, 71914, Note_on_c, 0, 67, 0
2, 71994, Note_on_c, 0, 50, 0
2, 72004, Note_on_c, 0, 55, 58
2, 72010, Note_on_c, 0, 66, 0
2, 72013, Note_on_c, 0, 67, 67
2, 72079, Note_on_c, 0, 66, 73
2, 72102, Note_on_c, 0, 67, 0
2, 72169, Note_on_c, 0, 64, 70
2, 72183, Note_on_c, 0, 66, 0
2, 72240, Note_on_c, 0, 62, 72
2, 72241, Note_on_c, 0, 64, 0
2, 72343, Note_on_c, 0, 49, 58
2, 72344, Note_on_c, 0, 55, 0
2, 72356, Note_on_c, 0, 64, 67
2, 72393, Control_c, 0, 64, 52
2, 72395, Note_on_c, 0, 62, 0
2, 72408, Control_c, 0, 64, 63
2, 72424, Control_c, 0, 64, 65
2, 72439, Control_c, 0, 64, 67
2, 72450, Note_on_c, 0, 64, 0
2, 72453, Control_c, 0, 64, 69
2, 72469, Control_c, 0, 64, 71
2, 72484, Control_c, 0, 64, 74
2, 72500, Control_c, 0, 64, 77
2, 72515, Control_c, 0, 64, 77
2, 72552, Note_on_c, 0, 71, 68
2, 72606, Control_c, 0, 64, 77
2, 72622, Control_c, 0, 64, 76
2, 72637, Control_c, 0, 64, 74
2, 72651, Control_c, 0, 64, 68
2, 72667, Control_c, 0, 64, 56
2, 72682, Control_c, 0, 64, 0
2, 72717, Note_on_c, 0, 52, 72
2, 72760, Note_on_c, 0, 49, 0
2, 72919, Note_on_c, 0, 74, 74
2, 73014, Note_on_c, 0, 71, 0
2, 73079, Note_on_c, 0, 55, 68
2, 73115, Note_on_c, 0, 52, 0
2, 73252, Note_on_c, 0, 73, 67
2, 73265, Note_on_c, 0, 74, 0
2, 73328, Note_on_c, 0, 71, 71
2, 73333, Note_on_c, 0, 73, 0
2, 73408, Note_on_c, 0, 55, 0
2, 73416, Note_on_c, 0, 73, 73
2, 73423, Note_on_c, 0, 61, 65
2, 73423, Note_on_c, 0, 71, 0
2, 73498, Note_on_c, 0, 71, 71
2, 73528, Note_on_c, 0, 73, 0
2, 73591, Note_on_c, 0, 70, 79
2, 73598, Note_on_c, 0, 71, 0
2, 73669, Note_on_c, 0, 68, 75
2, 73672, Note_on_c, 0, 70, 0
2, 73774, Note_on_c, 0, 61, 0
2, 73775, Note_on_c, 0, 54, 57
2, 73777, Note_on_c, 0, 70, 76
2, 73812, Note_on_c, 0, 68, 0
2, 73867, Control_c, 0, 64, 20
2, 73875, Note_on_c, 0, 70, 0
2, 73882, Control_c, 0, 64, 50
2, 73897, Control_c, 0, 64, 57
2, 73913, Control_c, 0, 64, 61
2, 73927, Control_c, 0, 64, 63
2, 73943, Control_c, 0, 64, 65
2, 73958, Control_c, 0, 64, 66
2, 73973, Control_c, 0, 64, 67
2, 73977, Note_on_c, 0, 76, 75
2, 73988, Control_c, 0, 64, 69
2, 74003, Control_c, 0, 64, 70
2, 74018, Control_c, 0, 64, 71
2, 74034, Control_c, 0, 64, 72
2, 74125, Control_c, 0, 64, 71
2, 74139, Control_c, 0, 64, 70
2, 74150, Note_on_c, 0, 58, 69
2, 74155, Control_c, 0, 64, 65
2, 74170, Control_c, 0, 64, 52
2, 74186, Control_c, 0, 64, 0
2, 74236, Note_on_c, 0, 54, 0
2, 74357, Note_on_c, 0, 79, 81
2, 74464, Note_on_c, 0, 76, 0
2, 74529, Note_on_c, 0, 61, 68
2, 74583, Note_on_c, 0, 58, 0
2, 74700, Note_on_c, 0, 78, 68
2, 74736, Note_on_c, 0, 79, 0
2, 74781, Note_on_c, 0, 76, 75
2, 74789, Note_on_c, 0, 78, 0
2, 74873, Note_on_c, 0, 66, 62
2, 74873, Note_on_c, 0, 76, 0
2, 74876, Note_on_c, 0, 78, 78
2, 74899, Note_on_c, 0, 61, 0
2, 74947, Note_on_c, 0, 76, 74
2, 74984, Note_on_c, 0, 78, 0
2, 75023, Note_on_c, 0, 76, 0
2, 75046, Note_on_c, 0, 74, 71
2, 75123, Note_on_c, 0, 73, 75
2, 75135, Note_on_c, 0, 74, 0
2, 75249, Note_on_c, 0, 74, 76
2, 75261, Note_on_c, 0, 59, 56
2, 75284, Note_on_c, 0, 73, 0
2, 75295, Note_on_c, 0, 66, 0
2, 75394, Note_on_c, 0, 74, 0
2, 75480, Note_on_c, 0, 70, 72
2, 75660, Note_on_c, 0, 67, 69
2, 75693, Note_on_c, 0, 59, 0
2, 75839, Note_on_c, 0, 71, 69
2, 75846, Note_on_c, 0, 70, 0
2, 76023, Note_on_c, 0, 73, 69
2, 76029, Note_on_c, 0, 57, 46
2, 76041, Note_on_c, 0, 71, 0
2, 76051, Note_on_c, 0, 67, 0
2, 76145, Note_on_c, 0, 57, 0
2, 76193, Note_on_c, 0, 67, 58
2, 76200, Note_on_c, 0, 75, 72
2, 76214, Note_on_c, 0, 73, 0
2, 76363, Note_on_c, 0, 75, 0
2, 76365, Note_on_c, 0, 76, 69
2, 76374, Note_on_c, 0, 66, 60
2, 76427, Note_on_c, 0, 67, 0
2, 76443, Note_on_c, 0, 75, 70
2, 76459, Control_c, 0, 64, 41
2, 76472, Note_on_c, 0, 76, 0
2, 76475, Control_c, 0, 64, 58
2, 76490, Control_c, 0, 64, 61
2, 76506, Control_c, 0, 64, 63
2, 76520, Control_c, 0, 64, 65
2, 76527, Note_on_c, 0, 73, 76
2, 76527, Note_on_c, 0, 75, 0
2, 76531, Note_on_c, 0, 57, 52
2, 76535, Control_c, 0, 64, 66
2, 76548, Note_on_c, 0, 66, 0
2, 76551, Control_c, 0, 64, 67
2, 76573, Control_c, 0, 64, 68
2, 76588, Note_on_c, 0, 57, 0
2, 76589, Control_c, 0, 64, 68
2, 76608, Note_on_c, 0, 75, 72
2, 76640, Note_on_c, 0, 73, 0
2, 76680, Control_c, 0, 64, 68
2, 76711, Control_c, 0, 64, 67
2, 76725, Control_c, 0, 64, 66
2, 76728, Note_on_c, 0, 76, 71
2, 76740, Control_c, 0, 64, 64
2, 76745, Note_on_c, 0, 55, 56
2, 76751, Note_on_c, 0, 75, 0
2, 76756, Control_c, 0, 64, 61
2, 76771, Control_c, 0, 64, 56
2, 76787, Control_c, 0, 64, 51
2, 76802, Control_c, 0, 64, 43
2, 76818, Control_c, 0, 64, 24
2, 76833, Control_c, 0, 64, 0
2, 76846, Note_on_c, 0, 76, 0
2, 76929, Note_on_c, 0, 70, 66
2, 77120, Note_on_c, 0, 64, 54
2, 77183, Control_c, 0, 64, 20
2, 77198, Control_c, 0, 64, 55
2, 77201, Note_on_c, 0, 55, 0
2, 77213, Control_c, 0, 64, 61
2, 77228, Control_c, 0, 64, 63
2, 77243, Control_c, 0, 64, 64
2, 77258, Control_c, 0, 64, 65
2, 77274, Control_c, 0, 64, 66
2, 77288, Control_c, 0, 64, 68
2, 77289, Note_on_c, 0, 71, 59
2, 77304, Control_c, 0, 64, 70
2, 77319, Control_c, 0, 64, 71
2, 77343, Control_c, 0, 64, 72
2, 77344, Note_on_c, 0, 70, 0
2, 77358, Control_c, 0, 64, 73
2, 77372, Control_c, 0, 64, 73
2, 77403, Control_c, 0, 64, 74
2, 77427, Note_on_c, 0, 71, 0
2, 77448, Control_c, 0, 64, 73
2, 77479, Control_c, 0, 64, 73
2, 77482, Note_on_c, 0, 74, 59
2, 77485, Note_on_c, 0, 54, 44
2, 77493, Control_c, 0, 64, 72
2, 77505, Note_on_c, 0, 64, 0
2, 77509, Control_c, 0, 64, 71
2, 77524, Control_c, 0, 64, 70
2, 77539, Control_c, 0, 64, 67
2, 77555, Control_c, 0, 64, 63
2, 77569, Control_c, 0, 64, 58
2, 77576, Note_on_c, 0, 74, 0
2, 77585, Control_c, 0, 64, 54
2, 77600, Control_c, 0, 64, 50
2, 77615, Control_c, 0, 64, 46
2, 77631, Control_c, 0, 64, 35
2, 77646, Control_c, 0, 64, 0
2, 77673, Note_on_c, 0, 70, 66
2, 77676, Note_on_c, 0, 64, 49
2, 77696, Note_on_c, 0, 54, 0
2, 77851, Note_on_c, 0, 62, 65
2, 77864, Note_on_c, 0, 64, 0
2, 77874, Control_c, 0, 64, 42
2, 77889, Control_c, 0, 64, 61
2, 77905, Control_c, 0, 64, 64
2, 77920, Control_c, 0, 64, 66
2, 77934, Control_c, 0, 64, 67
2, 77950, Control_c, 0, 64, 69
2, 77965, Control_c, 0, 64, 70
2, 77980, Control_c, 0, 64, 72
2, 77996, Control_c, 0, 64, 73
2, 78010, Control_c, 0, 64, 75
2, 78024, Note_on_c, 0, 62, 0
2, 78026, Control_c, 0, 64, 76
2, 78029, Note_on_c, 0, 54, 53
2, 78033, Note_on_c, 0, 70, 0
2, 78039, Note_on_c, 0, 71, 69
2, 78041, Control_c, 0, 64, 78
2, 78055, Control_c, 0, 64, 78
2, 78071, Control_c, 0, 64, 79
2, 78086, Control_c, 0, 64, 79
2, 78123, Note_on_c, 0, 71, 0
2, 78127, Note_on_c, 0, 54, 0
2, 78170, Control_c, 0, 64, 80
2, 78259, Note_on_c, 0, 79, 69
2, 78260, Control_c, 0, 64, 79
2, 78267, Note_on_c, 0, 52, 55
2, 78291, Control_c, 0, 64, 79
2, 78307, Control_c, 0, 64, 77
2, 78322, Control_c, 0, 64, 73
2, 78337, Control_c, 0, 64, 63
2, 78350, Note_on_c, 0, 78, 77
2, 78353, Control_c, 0, 64, 0
2, 78391, Note_on_c, 0, 79, 0
2, 78454, Note_on_c, 0, 62, 59
2, 78456, Note_on_c, 0, 76, 78
2, 78475, Control_c, 0, 64, 60
2, 78490, Control_c, 0, 64, 65
2, 78494, Note_on_c, 0, 78, 0
2, 78506, Control_c, 0, 64, 67
2, 78521, Control_c, 0, 64, 68
2, 78523, Note_on_c, 0, 52, 0
2, 78535, Control_c, 0, 64, 72
2, 78551, Control_c, 0, 64, 76
2, 78566, Control_c, 0, 64, 81
2, 78581, Control_c, 0, 64, 83
2, 78597, Control_c, 0, 64, 84
2, 78612, Control_c, 0, 64, 84
2, 78628, Control_c, 0, 64, 85
2, 78628, Note_on_c, 0, 76, 0
2, 78631, Note_on_c, 0, 60, 71
2, 78657, Control_c, 0, 64, 86
2, 78673, Control_c, 0, 64, 86
2, 78680, Note_on_c, 0, 62, 0
2, 78688, Control_c, 0, 64, 87
2, 78733, Control_c, 0, 64, 87
2, 78809, Control_c, 0, 64, 88
2, 78813, Note_on_c, 0, 52, 61
2, 78814, Note_on_c, 0, 76, 81
2, 78832, Note_on_c, 0, 60, 0
2, 78886, Note_on_c, 0, 52, 0
2, 79004, Note_on_c, 0, 50, 63
2, 79045, Control_c, 0, 64, 86
2, 79059, Control_c, 0, 64, 84
2, 79075, Control_c, 0, 64, 76
2, 79083, Note_on_c, 0, 76, 0
2, 79086, Note_on_c, 0, 78, 69
2, 79090, Control_c, 0, 64, 63
2, 79105, Control_c, 0, 64, 0
2, 79166, Note_on_c, 0, 60, 54
2, 79180, Control_c, 0, 64, 55
2, 79189, Note_on_c, 0, 76, 67
2, 79196, Control_c, 0, 64, 67
2, 79211, Control_c, 0, 64, 73
2, 79227, Control_c, 0, 64, 80
2, 79242, Control_c, 0, 64, 83
2, 79248, Note_on_c, 0, 50, 0
2, 79258, Control_c, 0, 64, 85
2, 79266, Note_on_c, 0, 78, 0
2, 79274, Control_c, 0, 64, 87
2, 79275, Note_on_c, 0, 75, 74
2, 79277, Note_on_c, 0, 76, 0
2, 79288, Control_c, 0, 64, 90
2, 79304, Control_c, 0, 64, 94
2, 79319, Control_c, 0, 64, 96
2, 79333, Control_c, 0, 64, 97
2, 79343, Note_on_c, 0, 59, 61
2, 79349, Control_c, 0, 64, 97
2, 79360, Note_on_c, 0, 76, 81
2, 79364, Control_c, 0, 64, 98
2, 79367, Note_on_c, 0, 75, 0
2, 79379, Control_c, 0, 64, 98
2, 79383, Note_on_c, 0, 60, 0
2, 79418, Note_on_c, 0, 76, 0
2, 79567, Note_on_c, 0, 76, 77
2, 79578, Note_on_c, 0, 50, 52
2, 79585, Note_on_c, 0, 59, 0
2, 79616, Note_on_c, 0, 50, 0
2, 79645, Control_c, 0, 64, 99
2, 79767, Note_on_c, 0, 49, 62
2, 79798, Control_c, 0, 64, 98
2, 79813, Control_c, 0, 64, 97
2, 79828, Control_c, 0, 64, 94
2, 79829, Note_on_c, 0, 69, 66
2, 79843, Control_c, 0, 64, 89
2, 79858, Control_c, 0, 64, 81
2, 79874, Control_c, 0, 64, 70
2, 79890, Control_c, 0, 64, 50
2, 79905, Control_c, 0, 64, 0
2, 79917, Note_on_c, 0, 76, 0
2, 79920, Note_on_c, 0, 69, 0
2, 79936, Note_on_c, 0, 67, 71
2, 79946, Note_on_c, 0, 59, 61
2, 79955, Note_on_c, 0, 49, 0
2, 80029, Note_on_c, 0, 66, 76
2, 80031, Note_on_c, 0, 67, 0
2, 80133, Note_on_c, 0, 67, 80
2, 80140, Note_on_c, 0, 66, 0
2, 80152, Note_on_c, 0, 58, 63
2, 80214, Note_on_c, 0, 59, 0
2, 80398, Note_on_c, 0, 58, 0
2, 80402, Note_on_c, 0, 76, 79
2, 80418, Note_on_c, 0, 49, 54
2, 80455, Note_on_c, 0, 67, 0
2, 80601, Note_on_c, 0, 49, 0
2, 80620, Note_on_c, 0, 47, 66
2, 80881, Note_on_c, 0, 67, 74
2, 80891, Note_on_c, 0, 64, 63
2, 80897, Note_on_c, 0, 58, 57
2, 80958, Note_on_c, 0, 47, 0
2, 80969, Note_on_c, 0, 76, 0
2, 81178, Note_on_c, 0, 59, 63
2, 81221, Note_on_c, 0, 58, 0
2, 81275, Note_on_c, 0, 64, 0
2, 81300, Note_on_c, 0, 67, 0
2, 81319, Control_c, 0, 64, 36
2, 81334, Control_c, 0, 64, 62
2, 81350, Control_c, 0, 64, 66
2, 81364, Control_c, 0, 64, 68
2, 81379, Control_c, 0, 64, 72
2, 81395, Control_c, 0, 64, 74
2, 81410, Control_c, 0, 64, 77
2, 81426, Control_c, 0, 64, 78
2, 81440, Control_c, 0, 64, 80
2, 81455, Control_c, 0, 64, 80
2, 81471, Control_c, 0, 64, 81
2, 81486, Control_c, 0, 64, 82
2, 81517, Control_c, 0, 64, 82
2, 81548, Note_on_c, 0, 67, 66
2, 81560, Note_on_c, 0, 64, 50
2, 81562, Note_on_c, 0, 47, 51
2, 81577, Control_c, 0, 64, 81
2, 81593, Control_c, 0, 64, 78
2, 81608, Control_c, 0, 64, 68
2, 81624, Control_c, 0, 64, 0
2, 81684, Control_c, 0, 64, 48
2, 81699, Control_c, 0, 64, 65
2, 81716, Control_c, 0, 64, 71
2, 81730, Control_c, 0, 64, 76
2, 81743, Note_on_c, 0, 47, 0
2, 81746, Control_c, 0, 64, 80
2, 81761, Control_c, 0, 64, 82
2, 81776, Control_c, 0, 64, 84
2, 81777, Note_on_c, 0, 59, 0
2, 81791, Control_c, 0, 64, 85
2, 81806, Control_c, 0, 64, 87
2, 81821, Control_c, 0, 64, 88
2, 81835, Control_c, 0, 64, 89
2, 81850, Control_c, 0, 64, 90
2, 81864, Control_c, 0, 64, 90
2, 81880, Control_c, 0, 64, 91
2, 82002, Note_on_c, 0, 46, 45
2, 82024, Control_c, 0, 64, 90
2, 82040, Control_c, 0, 64, 89
2, 82055, Control_c, 0, 64, 86
2, 82071, Control_c, 0, 64, 81
2, 82085, Control_c, 0, 64, 73
2, 82100, Control_c, 0, 64, 62
2, 82116, Control_c, 0, 64, 0
2, 82472, Note_on_c, 0, 66, 52
2, 82482, Note_on_c, 0, 67, 0
2, 82717, Note_on_c, 0, 66, 0
2, 82753, Note_on_c, 0, 74, 47
2, 82852, Control_c, 0, 64, 53
2, 82867, Control_c, 0, 64, 64
2, 82880, Note_on_c, 0, 74, 0
2, 82883, Control_c, 0, 64, 66
2, 82898, Control_c, 0, 64, 68
2, 82914, Control_c, 0, 64, 70
2, 82928, Control_c, 0, 64, 74
2, 82943, Control_c, 0, 64, 78
2, 82960, Control_c, 0, 64, 81
2, 82974, Control_c, 0, 64, 82
2, 82990, Control_c, 0, 64, 83
2, 83005, Control_c, 0, 64, 84
2, 83020, Control_c, 0, 64, 85
2, 83036, Control_c, 0, 64, 85
2, 83050, Control_c, 0, 64, 86
2, 83112, Control_c, 0, 64, 86
2, 83219, Note_on_c, 0, 74, 50
2, 83233, Control_c, 0, 64, 86
2, 83248, Control_c, 0, 64, 84
2, 83263, Control_c, 0, 64, 81
2, 83279, Control_c, 0, 64, 75
2, 83294, Control_c, 0, 64, 65
2, 83310, Control_c, 0, 64, 0
2, 83416, Control_c, 0, 64, 53
2, 83432, Control_c, 0, 64, 62
2, 83447, Control_c, 0, 64, 64
2, 83462, Control_c, 0, 64, 66
2, 83484, Control_c, 0, 64, 69
2, 83499, Control_c, 0, 64, 72
2, 83515, Control_c, 0, 64, 75
2, 83530, Control_c, 0, 64, 78
2, 83545, Control_c, 0, 64, 79
2, 83560, Control_c, 0, 64, 80
2, 83575, Control_c, 0, 64, 81
2, 83591, Control_c, 0, 64, 81
2, 83606, Control_c, 0, 64, 82
2, 83621, Control_c, 0, 64, 82
2, 83637, Control_c, 0, 64, 83
2, 83651, Control_c, 0, 64, 84
2, 83666, Control_c, 0, 64, 84
2, 83697, Control_c, 0, 64, 85
2, 83742, Control_c, 0, 64, 85
2, 83759, Note_on_c, 0, 74, 0
2, 83863, Control_c, 0, 64, 86
2, 84137, Control_c, 0, 64, 85
2, 84168, Control_c, 0, 64, 85
2, 84171, Note_on_c, 0, 73, 48
2, 84183, Control_c, 0, 64, 83
2, 84199, Control_c, 0, 64, 81
2, 84214, Control_c, 0, 64, 77
2, 84230, Control_c, 0, 64, 70
2, 84251, Control_c, 0, 64, 61
2, 84266, Control_c, 0, 64, 0
2, 85253, Note_on_c, 0, 73, 0
2, 85262, Note_on_c, 0, 64, 0
2, 85272, Note_on_c, 0, 46, 0
2, 85841, Note_on_c, 0, 64, 37
2, 85907, Note_on_c, 0, 64, 0
2, 85923, Note_on_c, 0, 66, 48
2, 85999, Note_on_c, 0, 66, 0
2, 86003, Note_on_c, 0, 67, 53
2, 86014, Note_on_c, 0, 58, 42
2, 86091, Note_on_c, 0, 66, 58
2, 86115, Note_on_c, 0, 67, 0
2, 86202, Note_on_c, 0, 64, 55
2, 86256, Note_on_c, 0, 66, 0
2, 86352, Note_on_c, 0, 64, 0
2, 86379, Note_on_c, 0, 62, 57
2, 86390, Note_on_c, 0, 59, 43
2, 86421, Note_on_c, 0, 58, 0
2, 86568, Note_on_c, 0, 66, 59
2, 86672, Note_on_c, 0, 62, 0
2, 86734, Note_on_c, 0, 55, 48
2, 86751, Note_on_c, 0, 70, 62
2, 86819, Note_on_c, 0, 66, 0
2, 86839, Note_on_c, 0, 59, 0
2, 86923, Note_on_c, 0, 71, 60
2, 86954, Note_on_c, 0, 70, 0
2, 87106, Note_on_c, 0, 52, 44
2, 87115, Note_on_c, 0, 74, 53
2, 87125, Note_on_c, 0, 71, 0
2, 87127, Note_on_c, 0, 55, 0
2, 87289, Note_on_c, 0, 73, 58
2, 87359, Note_on_c, 0, 74, 0
2, 87463, Note_on_c, 0, 52, 0
2, 87473, Note_on_c, 0, 54, 48
2, 87475, Note_on_c, 0, 71, 60
2, 87583, Note_on_c, 0, 73, 0
2, 87650, Note_on_c, 0, 70, 61
2, 87683, Note_on_c, 0, 71, 0
2, 87805, Note_on_c, 0, 54, 0
2, 87830, Note_on_c, 0, 50, 43
2, 87834, Note_on_c, 0, 71, 57
2, 87847, Note_on_c, 0, 70, 0
2, 88001, Note_on_c, 0, 50, 0
2, 88007, Note_on_c, 0, 54, 51
2, 88186, Note_on_c, 0, 66, 60
2, 88197, Note_on_c, 0, 47, 56
2, 88227, Note_on_c, 0, 71, 0
2, 88236, Note_on_c, 0, 54, 0
2, 88360, Note_on_c, 0, 49, 57
2, 88379, Note_on_c, 0, 66, 0
2, 88409, Note_on_c, 0, 47, 0
2, 88521, Note_on_c, 0, 67, 63
2, 88529, Note_on_c, 0, 49, 0
2, 88535, Note_on_c, 0, 50, 53
2, 88599, Note_on_c, 0, 67, 0
2, 88602, Note_on_c, 0, 66, 64
2, 88668, Note_on_c, 0, 66, 0
2, 88676, Note_on_c, 0, 65, 65
2, 88694, Note_on_c, 0, 54, 52
2, 88714, Note_on_c, 0, 50, 0
2, 88755, Note_on_c, 0, 66, 65
2, 88770, Note_on_c, 0, 65, 0
2, 88871, Note_on_c, 0, 66, 0
2, 88879, Note_on_c, 0, 74, 58
2, 88881, Note_on_c, 0, 47, 52
2, 88923, Note_on_c, 0, 54, 0
2, 89036, Note_on_c, 0, 47, 0
2, 89047, Note_on_c, 0, 50, 57
2, 89222, Note_on_c, 0, 49, 64
2, 89223, Note_on_c, 0, 50, 0
2, 89228, Note_on_c, 0, 74, 0
2, 89397, Note_on_c, 0, 54, 63
2, 89423, Note_on_c, 0, 49, 0
2, 89555, Note_on_c, 0, 54, 0
2, 89563, Note_on_c, 0, 66, 67
2, 89570, Note_on_c, 0, 55, 64
2, 89652, Note_on_c, 0, 55, 0
2, 89655, Note_on_c, 0, 54, 59
2, 89717, Note_on_c, 0, 54, 0
2, 89720, Note_on_c, 0, 53, 70
2, 89760, Note_on_c, 0, 66, 0
2, 89809, Note_on_c, 0, 53, 0
2, 89811, Note_on_c, 0, 54, 71
2, 89903, Note_on_c, 0, 54, 0
2, 89906, Note_on_c, 0, 58, 70
2, 89915, Note_on_c, 0, 67, 66
2, 89994, Note_on_c, 0, 66, 72
2, 90010, Note_on_c, 0, 67, 0
2, 90072, Note_on_c, 0, 66, 0
2, 90073, Note_on_c, 0, 65, 75
2, 90078, Note_on_c, 0, 54, 64
2, 90110, Note_on_c, 0, 58, 0
2, 90144, Note_on_c, 0, 66, 78
2, 90168, Note_on_c, 0, 65, 0
2, 90218, Note_on_c, 0, 66, 0
2, 90267, Note_on_c, 0, 61, 62
2, 90272, Note_on_c, 0, 76, 72
2, 90283, Note_on_c, 0, 54, 0
2, 90449, Note_on_c, 0, 52, 68
2, 90483, Note_on_c, 0, 61, 0
2, 90625, Note_on_c, 0, 50, 70
2, 90649, Note_on_c, 0, 52, 0
2, 90650, Note_on_c, 0, 76, 0
2, 90800, Note_on_c, 0, 54, 69
2, 90803, Note_on_c, 0, 50, 0
2, 90974, Note_on_c, 0, 66, 77
2, 90981, Note_on_c, 0, 47, 63
2, 91046, Note_on_c, 0, 54, 0
2, 91158, Note_on_c, 0, 49, 73
2, 91196, Note_on_c, 0, 47, 0
2, 91209, Note_on_c, 0, 66, 0
2, 91320, Note_on_c, 0, 50, 72
2, 91322, Note_on_c, 0, 67, 77
2, 91324, Note_on_c, 0, 49, 0
2, 91411, Note_on_c, 0, 66, 77
2, 91411, Note_on_c, 0, 67, 0
2, 91486, Note_on_c, 0, 54, 64
2, 91487, Note_on_c, 0, 66, 0
2, 91493, Note_on_c, 0, 65, 78
2, 91530, Note_on_c, 0, 50, 0
2, 91564, Note_on_c, 0, 66, 79
2, 91581, Note_on_c, 0, 65, 0
2, 91613, Note_on_c, 0, 66, 0
2, 91657, Note_on_c, 0, 54, 0
2, 91692, Note_on_c, 0, 47, 76
2, 91693, Note_on_c, 0, 78, 87
2, 91711, Control_c, 0, 64, 64
2, 91726, Control_c, 0, 64, 70
2, 91741, Control_c, 0, 64, 75
2, 91757, Control_c, 0, 64, 80
2, 91772, Control_c, 0, 64, 82
2, 91787, Control_c, 0, 64, 86
2, 91803, Control_c, 0, 64, 89
2, 91817, Control_c, 0, 64, 92
2, 91833, Control_c, 0, 64, 95
2, 91848, Control_c, 0, 64, 98
2, 91863, Control_c, 0, 64, 101
2, 91879, Control_c, 0, 64, 105
2, 91893, Control_c, 0, 64, 108
2, 91908, Control_c, 0, 64, 111
2, 91931, Control_c, 0, 64, 113
2, 91936, Note_on_c, 0, 69, 88
2, 91939, Note_on_c, 0, 49, 78
2, 91946, Control_c, 0, 64, 116
2, 91960, Note_on_c, 0, 47, 0
2, 91962, Control_c, 0, 64, 119
2, 91968, Note_on_c, 0, 78, 0
2, 91976, Control_c, 0, 64, 123
2, 91979, Note_on_c, 0, 69, 0
2, 91992, Control_c, 0, 64, 127
2, 92007, Control_c, 0, 64, 127
2, 92246, Note_on_c, 0, 64, 73
2, 92246, Note_on_c, 0, 69, 82
2, 92251, Note_on_c, 0, 59, 79
2, 92252, Note_on_c, 0, 50, 78
2, 92261, Note_on_c, 0, 49, 0
2, 92265, Control_c, 0, 64, 115
2, 92281, Control_c, 0, 64, 103
2, 92296, Control_c, 0, 64, 91
2, 92311, Control_c, 0, 64, 78
2, 92326, Control_c, 0, 64, 64
2, 92341, Control_c, 0, 64, 0
2, 92786, Note_on_c, 0, 68, 77
2, 92790, Note_on_c, 0, 38, 76
2, 92845, Note_on_c, 0, 69, 0
2, 92864, Note_on_c, 0, 50, 0
2, 93200, Note_on_c, 0, 59, 0
2, 93218, Note_on_c, 0, 64, 0
2, 93241, Note_on_c, 0, 68, 0
2, 93254, Note_on_c, 0, 38, 0
2, 93465, Note_on_c, 0, 68, 80
2, 93548, Note_on_c, 0, 70, 78
2, 93563, Note_on_c, 0, 68, 0
2, 93608, Note_on_c, 0, 70, 0
2, 93649, Note_on_c, 0, 50, 77
2, 93649, Note_on_c, 0, 71, 85
2, 93697, Control_c, 0, 64, 62
2, 93713, Control_c, 0, 64, 67
2, 93728, Control_c, 0, 64, 70
2, 93739, Note_on_c, 0, 73, 81
2, 93742, Control_c, 0, 64, 73
2, 93755, Note_on_c, 0, 71, 0
2, 93758, Control_c, 0, 64, 79
2, 93773, Control_c, 0, 64, 84
2, 93789, Control_c, 0, 64, 87
2, 93804, Control_c, 0, 64, 90
2, 93819, Control_c, 0, 64, 93
2, 93834, Note_on_c, 0, 74, 80
2, 93835, Control_c, 0, 64, 96
2, 93849, Control_c, 0, 64, 99
2, 93854, Note_on_c, 0, 73, 0
2, 93865, Control_c, 0, 64, 102
2, 93880, Control_c, 0, 64, 105
2, 93884, Note_on_c, 0, 50, 0
2, 93895, Control_c, 0, 64, 108
2, 93911, Control_c, 0, 64, 110
2, 93925, Control_c, 0, 64, 113
2, 93931, Note_on_c, 0, 76, 83
2, 93940, Control_c, 0, 64, 115
2, 93956, Control_c, 0, 64, 117
2, 93962, Note_on_c, 0, 74, 0
2, 93971, Control_c, 0, 64, 118
2, 93986, Control_c, 0, 64, 118
2, 93988, Note_on_c, 0, 76, 0
2, 94003, Control_c, 0, 64, 120
2, 94018, Control_c, 0, 64, 122
2, 94033, Control_c, 0, 64, 126
2, 94048, Control_c, 0, 64, 127
2, 94121, Note_on_c, 0, 71, 85
2, 94123, Note_on_c, 0, 49, 82
2, 94123, Note_on_c, 0, 64, 82
2, 94123, Note_on_c, 0, 67, 81
2, 94124, Control_c, 0, 64, 122
2, 94139, Control_c, 0, 64, 108
2, 94154, Control_c, 0, 64, 95
2, 94169, Control_c, 0, 64, 81
2, 94185, Control_c, 0, 64, 67
2, 94200, Control_c, 0, 64, 0
2, 94665, Note_on_c, 0, 70, 79
2, 94666, Note_on_c, 0, 61, 77
2, 94706, Note_on_c, 0, 71, 0
2, 94976, Note_on_c, 0, 64, 0
2, 94988, Note_on_c, 0, 67, 0
2, 94991, Note_on_c, 0, 49, 0
2, 95022, Note_on_c, 0, 70, 0
2, 95025, Note_on_c, 0, 61, 0
2, 95279, Note_on_c, 0, 61, 72
2, 95291, Note_on_c, 0, 70, 78
2, 95374, Note_on_c, 0, 62, 79
2, 95381, Note_on_c, 0, 71, 79
2, 95394, Note_on_c, 0, 61, 0
2, 95454, Note_on_c, 0, 62, 0
2, 95456, Note_on_c, 0, 64, 78
2, 95462, Note_on_c, 0, 70, 0
2, 95475, Note_on_c, 0, 73, 79
2, 95492, Note_on_c, 0, 71, 0
2, 95548, Note_on_c, 0, 62, 85
2, 95557, Note_on_c, 0, 71, 76
2, 95560, Note_on_c, 0, 64, 0
2, 95597, Note_on_c, 0, 73, 0
2, 95649, Note_on_c, 0, 61, 81
2, 95649, Note_on_c, 0, 62, 0
2, 95657, Note_on_c, 0, 70, 90
2, 95671, Note_on_c, 0, 71, 0
2, 95691, Note_on_c, 0, 61, 0
2, 95705, Note_on_c, 0, 70, 0
2, 95926, Note_on_c, 0, 77, 85
2, 95930, Note_on_c, 0, 71, 85
2, 95930, Note_on_c, 0, 74, 82
2, 95932, Note_on_c, 0, 68, 87
2, 95936, Note_on_c, 0, 59, 79
2, 95955, Control_c, 0, 64, 44
2, 95970, Control_c, 0, 64, 67
2, 95984, Control_c, 0, 64, 76
2, 96000, Control_c, 0, 64, 89
2, 96015, Control_c, 0, 64, 97
2, 96027, Note_on_c, 0, 68, 0
2, 96031, Control_c, 0, 64, 102
2, 96037, Note_on_c, 0, 59, 0
2, 96046, Control_c, 0, 64, 105
2, 96060, Control_c, 0, 64, 107
2, 96073, Note_on_c, 0, 71, 0
2, 96076, Control_c, 0, 64, 109
2, 96076, Note_on_c, 0, 74, 0
2, 96083, Note_on_c, 0, 77, 0
2, 96091, Control_c, 0, 64, 110
2, 96105, Control_c, 0, 64, 110
2, 96167, Control_c, 0, 64, 108
2, 96181, Control_c, 0, 64, 103
2, 96197, Control_c, 0, 64, 93
2, 96212, Control_c, 0, 64, 83
2, 96226, Control_c, 0, 64, 73
2, 96242, Control_c, 0, 64, 61
2, 96257, Control_c, 0, 64, 0
2, 96486, Control_c, 0, 64, 61
2, 96501, Control_c, 0, 64, 72
2, 96504, Note_on_c, 0, 78, 89
2, 96506, Note_on_c, 0, 66, 91
2, 96507, Note_on_c, 0, 73, 82
2, 96509, Note_on_c, 0, 61, 86
2, 96514, Note_on_c, 0, 58, 79
2, 96517, Control_c, 0, 64, 81
2, 96539, Control_c, 0, 64, 89
2, 96555, Control_c, 0, 64, 94
2, 96559, Note_on_c, 0, 66, 0
2, 96570, Control_c, 0, 64, 98
2, 96571, Note_on_c, 0, 73, 0
2, 96572, Note_on_c, 0, 61, 0
2, 96578, Note_on_c, 0, 58, 0
2, 96583, Note_on_c, 0, 78, 0
2, 96585, Control_c, 0, 64, 102
2, 96601, Control_c, 0, 64, 106
2, 96615, Control_c, 0, 64, 109
2, 96631, Control_c, 0, 64, 111
2, 96646, Control_c, 0, 64, 113
2, 96660, Control_c, 0, 64, 114
2, 96676, Control_c, 0, 64, 116
2, 96691, Control_c, 0, 64, 117
2, 96722, Control_c, 0, 64, 118
2, 96737, Control_c, 0, 64, 118
2, 96753, Control_c, 0, 64, 119
2, 96768, Control_c, 0, 64, 120
2, 96782, Control_c, 0, 64, 120
2, 96812, Control_c, 0, 64, 121
2, 96934, Control_c, 0, 64, 120
2, 96948, Control_c, 0, 64, 119
2, 96964, Control_c, 0, 64, 114
2, 96979, Control_c, 0, 64, 104
2, 96995, Control_c, 0, 64, 93
2, 97010, Control_c, 0, 64, 80
2, 97024, Control_c, 0, 64, 66
2, 97040, Control_c, 0, 64, 0
2, 97373, Note_on_c, 0, 54, 48
2, 97485, Note_on_c, 0, 56, 51
2, 97491, Note_on_c, 0, 54, 0
2, 97612, Note_on_c, 0, 58, 59
2, 97618, Note_on_c, 0, 56, 0
2, 97716, Note_on_c, 0, 58, 0
2, 97723, Note_on_c, 0, 59, 58
2, 97848, Note_on_c, 0, 59, 0
2, 97857, Note_on_c, 0, 61, 56
2, 98186, Note_on_c, 0, 50, 51
2, 98226, Note_on_c, 0, 61, 0
2, 98511, Note_on_c, 0, 71, 51
2, 98621, Note_on_c, 0, 69, 56
2, 98638, Note_on_c, 0, 71, 0
2, 98720, Note_on_c, 0, 69, 0
2, 98741, Note_on_c, 0, 52, 47
2, 98749, Note_on_c, 0, 67, 51
2, 98857, Note_on_c, 0, 50, 0
2, 98876, Note_on_c, 0, 66, 60
2, 98878, Note_on_c, 0, 67, 0
2, 99013, Note_on_c, 0, 64, 56
2, 99058, Note_on_c, 0, 66, 0
2, 99388, Note_on_c, 0, 62, 55
2, 99393, Note_on_c, 0, 54, 43
2, 99400, Note_on_c, 0, 52, 0
2, 99411, Note_on_c, 0, 64, 0
2, 99824, Note_on_c, 0, 71, 63
2, 99854, Control_c, 0, 64, 48
2, 99869, Control_c, 0, 64, 63
2, 99885, Control_c, 0, 64, 66
2, 99886, Note_on_c, 0, 62, 0
2, 99900, Control_c, 0, 64, 69
2, 99915, Control_c, 0, 64, 72
2, 99930, Control_c, 0, 64, 78
2, 99945, Control_c, 0, 64, 82
2, 99961, Control_c, 0, 64, 84
2, 99975, Control_c, 0, 64, 85
2, 99991, Control_c, 0, 64, 86
2, 100006, Control_c, 0, 64, 87
2, 100021, Control_c, 0, 64, 88
2, 100037, Control_c, 0, 64, 90
2, 100051, Control_c, 0, 64, 90
2, 100066, Control_c, 0, 64, 91
2, 100082, Control_c, 0, 64, 91
2, 100097, Control_c, 0, 64, 92
2, 100112, Note_on_c, 0, 54, 0
2, 100113, Control_c, 0, 64, 92
2, 100128, Control_c, 0, 64, 93
2, 100173, Control_c, 0, 64, 93
2, 100280, Note_on_c, 0, 64, 46
2, 100295, Control_c, 0, 64, 92
2, 100300, Note_on_c, 0, 61, 39
2, 100305, Note_on_c, 0, 42, 38
2, 100311, Control_c, 0, 64, 90
2, 100325, Control_c, 0, 64, 83
2, 100340, Control_c, 0, 64, 73
2, 100356, Control_c, 0, 64, 55
2, 100378, Control_c, 0, 64, 0
2, 100809, Note_on_c, 0, 70, 55
2, 100848, Note_on_c, 0, 71, 0
2, 100969, Note_on_c, 0, 64, 0
2, 100984, Control_c, 0, 64, 32
2, 101000, Control_c, 0, 64, 57
2, 101015, Control_c, 0, 64, 63
2, 101030, Control_c, 0, 64, 67
2, 101034, Note_on_c, 0, 61, 0
2, 101046, Control_c, 0, 64, 73
2, 101061, Control_c, 0, 64, 81
2, 101076, Control_c, 0, 64, 87
2, 101091, Control_c, 0, 64, 89
2, 101106, Control_c, 0, 64, 90
2, 101122, Control_c, 0, 64, 92
2, 101143, Control_c, 0, 64, 94
2, 101154, Note_on_c, 0, 70, 0
2, 101159, Control_c, 0, 64, 96
2, 101174, Control_c, 0, 64, 98
2, 101189, Control_c, 0, 64, 99
2, 101192, Note_on_c, 0, 42, 0
2, 101205, Control_c, 0, 64, 100
2, 101220, Control_c, 0, 64, 101
2, 101235, Control_c, 0, 64, 101
2, 101251, Control_c, 0, 64, 102
2, 101281, Control_c, 0, 64, 102
2, 101296, Control_c, 0, 64, 103
2, 101342, Control_c, 0, 64, 103
2, 101585, Control_c, 0, 64, 103
2, 101601, Control_c, 0, 64, 101
2, 101608, Note_on_c, 0, 66, 55
2, 101613, Note_on_c, 0, 71, 57
2, 101616, Control_c, 0, 64, 97
2, 101618, Note_on_c, 0, 62, 51
2, 101620, Note_on_c, 0, 59, 48
2, 101622, Note_on_c, 0, 47, 54
2, 101631, Control_c, 0, 64, 91
2, 101647, Control_c, 0, 64, 85
2, 101661, Control_c, 0, 64, 77
2, 101676, Control_c, 0, 64, 67
2, 101692, Control_c, 0, 64, 0
2, 104176, Note_on_c, 0, 71, 0
2, 104181, Note_on_c, 0, 62, 0
2, 104182, Note_on_c, 0, 47, 0
2, 104183, Note_on_c, 0, 59, 0
2, 104198, Note_on_c, 0, 66, 0
2, 104946, Note_on_c, 0, 66, 75
2, 105166, Note_on_c, 0, 66, 0
2, 105174, Note_on_c, 0, 62, 87
2, 105193, Note_on_c, 0, 62, 0
2, 105402, Note_on_c, 0, 59, 83
2, 105421, Note_on_c, 0, 59, 0
2, 105624, Note_on_c, 0, 58, 83
2, 105654, Note_on_c, 0, 58, 0
2, 105855, Note_on_c, 0, 59, 88
2, 105877, Note_on_c, 0, 59, 0
2, 106071, Note_on_c, 0, 61, 79
2, 106112, Note_on_c, 0, 61, 0
2, 106177, Note_on_c, 0, 62, 82
2, 106206, Note_on_c, 0, 62, 0
2, 106279, Note_on_c, 0, 64, 80
2, 106309, Note_on_c, 0, 64, 0
2, 106370, Note_on_c, 0, 66, 83
2, 106415, Note_on_c, 0, 66, 0
2, 106486, Note_on_c, 0, 67, 92
2, 106516, Note_on_c, 0, 67, 0
2, 106711, Note_on_c, 0, 55, 84
2, 106733, Note_on_c, 0, 55, 0
2, 106926, Note_on_c, 0, 67, 88
2, 106952, Note_on_c, 0, 67, 0
2, 107137, Note_on_c, 0, 66, 94
2, 107165, Note_on_c, 0, 66, 0
2, 107354, Note_on_c, 0, 54, 82
2, 107393, Note_on_c, 0, 54, 0
2, 107570, Note_on_c, 0, 66, 85
2, 107597, Note_on_c, 0, 66, 0
2, 107781, Note_on_c, 0, 64, 81
2, 107815, Note_on_c, 0, 64, 0
2, 107997, Note_on_c, 0, 66, 75
2, 108026, Note_on_c, 0, 66, 0
2, 108111, Note_on_c, 0, 64, 70
2, 108136, Note_on_c, 0, 64, 0
2, 108211, Note_on_c, 0, 62, 76
2, 108256, Note_on_c, 0, 62, 0
2, 108313, Note_on_c, 0, 61, 72
2, 108356, Note_on_c, 0, 61, 0
2, 108418, Note_on_c, 0, 62, 77
2, 108470, Note_on_c, 0, 62, 0
2, 108527, Note_on_c, 0, 66, 79
2, 108570, Note_on_c, 0, 66, 0
2, 108629, Note_on_c, 0, 64, 79
2, 108661, Note_on_c, 0, 64, 0
2, 108730, Note_on_c, 0, 62, 75
2, 108776, Note_on_c, 0, 62, 0
2, 108846, Note_on_c, 0, 61, 70
2, 108855, Note_on_c, 0, 71, 81
2, 108892, Note_on_c, 0, 61, 0
2, 108953, Note_on_c, 0, 59, 69
2, 108985, Note_on_c, 0, 59, 0
2, 109061, Note_on_c, 0, 61, 76
2, 109063, Note_on_c, 0, 69, 89
2, 109075, Note_on_c, 0, 71, 0
2, 109094, Note_on_c, 0, 69, 0
2, 109105, Note_on_c, 0, 61, 0
2, 109170, Note_on_c, 0, 59, 70
2, 109211, Note_on_c, 0, 59, 0
2, 109276, Note_on_c, 0, 61, 79
2, 109278, Note_on_c, 0, 66, 84
2, 109298, Note_on_c, 0, 66, 0
2, 109330, Note_on_c, 0, 61, 0
2, 109381, Note_on_c, 0, 62, 78
2, 109423, Note_on_c, 0, 62, 0
2, 109486, Note_on_c, 0, 61, 85
2, 109486, Note_on_c, 0, 65, 92
2, 109514, Note_on_c, 0, 65, 0
2, 109531, Note_on_c, 0, 61, 0
2, 109594, Note_on_c, 0, 59, 82
2, 109635, Note_on_c, 0, 59, 0
2, 109701, Note_on_c, 0, 57, 90
2, 109706, Note_on_c, 0, 66, 96
2, 109728, Note_on_c, 0, 57, 0
2, 109738, Note_on_c, 0, 66, 0
2, 109916, Note_on_c, 0, 54, 81
2, 109918, Note_on_c, 0, 68, 88
2, 109946, Note_on_c, 0, 54, 0
2, 109955, Note_on_c, 0, 68, 0
2, 110023, Note_on_c, 0, 69, 87
2, 110060, Note_on_c, 0, 69, 0
2, 110127, Note_on_c, 0, 53, 77
2, 110129, Note_on_c, 0, 71, 89
2, 110151, Note_on_c, 0, 53, 0
2, 110159, Note_on_c, 0, 71, 0
2, 110227, Note_on_c, 0, 73, 90
2, 110249, Note_on_c, 0, 73, 0
2, 110327, Note_on_c, 0, 54, 62
2, 110329, Note_on_c, 0, 74, 89
2, 110351, Note_on_c, 0, 74, 0
2, 110435, Note_on_c, 0, 56, 63
2, 110464, Note_on_c, 0, 54, 0
2, 110515, Note_on_c, 0, 56, 0
2, 110542, Note_on_c, 0, 57, 70
2, 110560, Note_on_c, 0, 62, 82
2, 110585, Note_on_c, 0, 62, 0
2, 110588, Note_on_c, 0, 57, 0
2, 110600, Note_on_c, 0, 56, 68
2, 110652, Note_on_c, 0, 56, 0
2, 110665, Note_on_c, 0, 57, 76
2, 110708, Note_on_c, 0, 56, 66
2, 110723, Note_on_c, 0, 57, 0
2, 110778, Note_on_c, 0, 74, 77
2, 110779, Note_on_c, 0, 57, 66
2, 110783, Note_on_c, 0, 56, 0
2, 110796, Note_on_c, 0, 74, 0
2, 110799, Note_on_c, 0, 56, 40
2, 110833, Note_on_c, 0, 57, 0
2, 110869, Note_on_c, 0, 54, 62
2, 110957, Note_on_c, 0, 54, 0
2, 110972, Note_on_c, 0, 57, 70
2, 110990, Note_on_c, 0, 73, 87
2, 110995, Note_on_c, 0, 56, 0
2, 111008, Note_on_c, 0, 73, 0
2, 111033, Note_on_c, 0, 57, 0
2, 111097, Note_on_c, 0, 59, 77
2, 111133, Note_on_c, 0, 59, 0
2, 111203, Note_on_c, 0, 61, 90
2, 111209, Note_on_c, 0, 57, 77
2, 111236, Note_on_c, 0, 61, 0
2, 111239, Note_on_c, 0, 57, 0
2, 111315, Note_on_c, 0, 56, 79
2, 111371, Note_on_c, 0, 56, 0
2, 111416, Note_on_c, 0, 54, 76
2, 111416, Note_on_c, 0, 73, 89
2, 111435, Note_on_c, 0, 73, 0
2, 111459, Note_on_c, 0, 54, 0
2, 111526, Note_on_c, 0, 52, 78
2, 111552, Note_on_c, 0, 52, 0
2, 111625, Note_on_c, 0, 51, 74
2, 111627, Note_on_c, 0, 71, 92
2, 111650, Note_on_c, 0, 71, 0
2, 111729, Note_on_c, 0, 51, 0
2, 111730, Note_on_c, 0, 53, 69
2, 111813, Note_on_c, 0, 53, 0
2, 111830, Note_on_c, 0, 54, 69
2, 111840, Note_on_c, 0, 73, 77
2, 111879, Note_on_c, 0, 73, 0
2, 111898, Note_on_c, 0, 53, 63
2, 111906, Note_on_c, 0, 54, 0
2, 111946, Note_on_c, 0, 71, 78
2, 111965, Note_on_c, 0, 54, 63
2, 111973, Note_on_c, 0, 71, 0
2, 112019, Note_on_c, 0, 54, 0
2, 112059, Note_on_c, 0, 69, 81
2, 112083, Note_on_c, 0, 69, 0
2, 112107, Note_on_c, 0, 53, 0
2, 112120, Note_on_c, 0, 51, 56
2, 112150, Note_on_c, 0, 68, 80
2, 112188, Note_on_c, 0, 68, 0
2, 112206, Note_on_c, 0, 53, 64
2, 112254, Note_on_c, 0, 51, 0
2, 112261, Note_on_c, 0, 69, 89
2, 112270, Note_on_c, 0, 54, 84
2, 112279, Note_on_c, 0, 53, 0
2, 112299, Note_on_c, 0, 54, 0
2, 112299, Note_on_c, 0, 69, 0
2, 112371, Note_on_c, 0, 73, 77
2, 112419, Note_on_c, 0, 73, 0
2, 112472, Note_on_c, 0, 56, 87
2, 112479, Note_on_c, 0, 71, 83
2, 112512, Note_on_c, 0, 56, 0
2, 112517, Note_on_c, 0, 71, 0
2, 112583, Note_on_c, 0, 69, 82
2, 112622, Note_on_c, 0, 69, 0
2, 112696, Note_on_c, 0, 68, 86
2, 112699, Note_on_c, 0, 57, 82
2, 112729, Note_on_c, 0, 57, 0
2, 112747, Note_on_c, 0, 68, 0
2, 112807, Note_on_c, 0, 66, 83
2, 112845, Note_on_c, 0, 66, 0
2, 112912, Note_on_c, 0, 59, 69
2, 112914, Note_on_c, 0, 67, 87
2, 112948, Note_on_c, 0, 67, 0
2, 113014, Note_on_c, 0, 61, 73
2, 113015, Note_on_c, 0, 59, 0
2, 113087, Note_on_c, 0, 61, 0
2, 113111, Note_on_c, 0, 62, 75
2, 113122, Note_on_c, 0, 69, 78
2, 113154, Note_on_c, 0, 69, 0
2, 113155, Note_on_c, 0, 61, 62
2, 113165, Note_on_c, 0, 62, 0
2, 113196, Note_on_c, 0, 61, 0
2, 113221, Note_on_c, 0, 67, 81
2, 113226, Note_on_c, 0, 62, 65
2, 113262, Note_on_c, 0, 67, 0
2, 113263, Note_on_c, 0, 61, 54
2, 113288, Note_on_c, 0, 62, 0
2, 113330, Note_on_c, 0, 66, 85
2, 113357, Note_on_c, 0, 61, 0
2, 113363, Note_on_c, 0, 59, 64
2, 113376, Note_on_c, 0, 66, 0
2, 113441, Note_on_c, 0, 64, 81
2, 113483, Note_on_c, 0, 61, 72
2, 113483, Note_on_c, 0, 64, 0
2, 113496, Note_on_c, 0, 59, 0
2, 113543, Note_on_c, 0, 66, 84
2, 113548, Note_on_c, 0, 62, 86
2, 113566, Note_on_c, 0, 61, 0
2, 113584, Note_on_c, 0, 62, 0
2, 113597, Note_on_c, 0, 66, 0
2, 113660, Note_on_c, 0, 69, 79
2, 113700, Note_on_c, 0, 69, 0
2, 113768, Note_on_c, 0, 67, 81
2, 113771, Note_on_c, 0, 58, 88
2, 113801, Note_on_c, 0, 58, 0
2, 113811, Note_on_c, 0, 67, 0
2, 113872, Note_on_c, 0, 66, 84
2, 113917, Note_on_c, 0, 66, 0
2, 113986, Note_on_c, 0, 59, 87
2, 113991, Note_on_c, 0, 64, 85
2, 114032, Note_on_c, 0, 64, 0
2, 114085, Note_on_c, 0, 62, 84
2, 114141, Note_on_c, 0, 62, 0
2, 114209, Note_on_c, 0, 64, 85
2, 114258, Note_on_c, 0, 64, 0
2, 114429, Note_on_c, 0, 66, 76
2, 114432, Note_on_c, 0, 58, 83
2, 114455, Note_on_c, 0, 59, 0
2, 114480, Note_on_c, 0, 58, 0
2, 114528, Note_on_c, 0, 56, 85
2, 114535, Note_on_c, 0, 64, 71
2, 114546, Note_on_c, 0, 56, 0
2, 114550, Note_on_c, 0, 66, 0
2, 114614, Note_on_c, 0, 64, 0
2, 114642, Note_on_c, 0, 54, 89
2, 114643, Note_on_c, 0, 58, 86
2, 114646, Note_on_c, 0, 62, 84
2, 114734, Note_on_c, 0, 62, 0
2, 114745, Note_on_c, 0, 61, 79
2, 114787, Note_on_c, 0, 58, 0
2, 114808, Note_on_c, 0, 61, 0
2, 114868, Note_on_c, 0, 50, 97
2, 114868, Note_on_c, 0, 59, 83
2, 114868, Note_on_c, 0, 62, 87
2, 114877, Note_on_c, 0, 54, 0
2, 114896, Note_on_c, 0, 50, 0
2, 114900, Note_on_c, 0, 59, 0
2, 114921, Note_on_c, 0, 62, 0
2, 114985, Note_on_c, 0, 64, 77
2, 115030, Note_on_c, 0, 64, 0
2, 115091, Note_on_c, 0, 47, 92
2, 115102, Note_on_c, 0, 66, 82
2, 115134, Note_on_c, 0, 47, 0
2, 115157, Note_on_c, 0, 66, 0
2, 115209, Note_on_c, 0, 67, 81
2, 115323, Note_on_c, 0, 46, 90
2, 115323, Note_on_c, 0, 67, 0
2, 115325, Note_on_c, 0, 66, 81
2, 115379, Note_on_c, 0, 46, 0
2, 115430, Note_on_c, 0, 64, 79
2, 115551, Note_on_c, 0, 47, 94
2, 115553, Note_on_c, 0, 62, 88
2, 115580, Note_on_c, 0, 64, 0
2, 115588, Note_on_c, 0, 62, 0
2, 115601, Note_on_c, 0, 47, 0
2, 115779, Note_on_c, 0, 49, 84
2, 115784, Note_on_c, 0, 59, 84
2, 115817, Note_on_c, 0, 66, 0
2, 115821, Note_on_c, 0, 59, 0
2, 115823, Note_on_c, 0, 49, 0
2, 115893, Note_on_c, 0, 50, 83
2, 115933, Note_on_c, 0, 50, 0
2, 115990, Note_on_c, 0, 58, 85
2, 115993, Note_on_c, 0, 52, 86
2, 116030, Note_on_c, 0, 52, 0
2, 116030, Note_on_c, 0, 58, 0
2, 116098, Note_on_c, 0, 54, 88
2, 116133, Note_on_c, 0, 54, 0
2, 116208, Note_on_c, 0, 59, 80
2, 116209, Note_on_c, 0, 55, 92
2, 116235, Note_on_c, 0, 59, 0
2, 116239, Note_on_c, 0, 55, 0
2, 116314, Note_on_c, 0, 61, 75
2, 116345, Note_on_c, 0, 61, 0
2, 116425, Note_on_c, 0, 64, 73
2, 116426, Note_on_c, 0, 43, 92
2, 116428, Note_on_c, 0, 62, 71
2, 116454, Note_on_c, 0, 43, 0
2, 116456, Note_on_c, 0, 62, 0
2, 116460, Note_on_c, 0, 64, 0
2, 116475, Note_on_c, 0, 61, 66
2, 116535, Note_on_c, 0, 61, 0
2, 116550, Note_on_c, 0, 62, 71
2, 116592, Note_on_c, 0, 62, 0
2, 116593, Note_on_c, 0, 61, 58
2, 116651, Note_on_c, 0, 55, 88
2, 116653, Note_on_c, 0, 61, 0
2, 116655, Note_on_c, 0, 69, 69
2, 116660, Note_on_c, 0, 62, 67
2, 116686, Note_on_c, 0, 55, 0
2, 116700, Note_on_c, 0, 62, 0
2, 116702, Note_on_c, 0, 61, 60
2, 116766, Note_on_c, 0, 61, 0
2, 116777, Note_on_c, 0, 59, 80
2, 116813, Note_on_c, 0, 59, 0
2, 116817, Note_on_c, 0, 61, 52
2, 116825, Note_on_c, 0, 69, 0
2, 116883, Note_on_c, 0, 62, 87
2, 116883, Note_on_c, 0, 69, 72
2, 116886, Note_on_c, 0, 54, 88
2, 116899, Note_on_c, 0, 61, 0
2, 116916, Note_on_c, 0, 54, 0
2, 116919, Note_on_c, 0, 62, 0
2, 116923, Note_on_c, 0, 69, 0
2, 117002, Note_on_c, 0, 64, 85
2, 117035, Note_on_c, 0, 64, 0
2, 117112, Note_on_c, 0, 62, 80
2, 117115, Note_on_c, 0, 66, 83
2, 117116, Note_on_c, 0, 42, 91
2, 117139, Note_on_c, 0, 62, 0
2, 117151, Note_on_c, 0, 42, 0
2, 117159, Note_on_c, 0, 66, 0
2, 117217, Note_on_c, 0, 61, 82
2, 117247, Note_on_c, 0, 61, 0
2, 117336, Note_on_c, 0, 54, 85
2, 117336, Note_on_c, 0, 59, 80
2, 117338, Note_on_c, 0, 62, 76
2, 117365, Note_on_c, 0, 54, 0
2, 117443, Note_on_c, 0, 57, 77
2, 117452, Note_on_c, 0, 59, 0
2, 117498, Note_on_c, 0, 57, 0
2, 117567, Note_on_c, 0, 52, 96
2, 117570, Note_on_c, 0, 56, 82
2, 117601, Note_on_c, 0, 52, 0
2, 117613, Note_on_c, 0, 56, 0
2, 117625, Note_on_c, 0, 62, 0
2, 117657, Note_on_c, 0, 58, 74
2, 117692, Note_on_c, 0, 58, 0
2, 117776, Note_on_c, 0, 59, 63
2, 117782, Note_on_c, 0, 54, 79
2, 117788, Note_on_c, 0, 61, 58
2, 117805, Note_on_c, 0, 59, 0
2, 117806, Note_on_c, 0, 58, 70
2, 117817, Note_on_c, 0, 54, 0
2, 117869, Note_on_c, 0, 61, 0
2, 117871, Note_on_c, 0, 58, 0
2, 117883, Note_on_c, 0, 59, 65
2, 117886, Note_on_c, 0, 52, 78
2, 117920, Note_on_c, 0, 52, 0
2, 117933, Note_on_c, 0, 58, 61
2, 117973, Note_on_c, 0, 59, 0
2, 117988, Note_on_c, 0, 58, 0
2, 117990, Note_on_c, 0, 59, 47
2, 117998, Note_on_c, 0, 50, 78
2, 118006, Note_on_c, 0, 66, 66
2, 118037, Note_on_c, 0, 59, 0
2, 118046, Note_on_c, 0, 58, 51
2, 118049, Note_on_c, 0, 50, 0
2, 118110, Note_on_c, 0, 58, 0
2, 118118, Note_on_c, 0, 56, 79
2, 118127, Note_on_c, 0, 49, 78
2, 118157, Note_on_c, 0, 58, 51
2, 118171, Note_on_c, 0, 49, 0
2, 118171, Note_on_c, 0, 56, 0
2, 118235, Note_on_c, 0, 50, 78
2, 118236, Note_on_c, 0, 59, 80
2, 118249, Note_on_c, 0, 58, 0
2, 118277, Note_on_c, 0, 50, 0
2, 118345, Note_on_c, 0, 54, 77
2, 118383, Note_on_c, 0, 54, 0
2, 118420, Note_on_c, 0, 59, 0
2, 118439, Note_on_c, 0, 66, 0
2, 118455, Note_on_c, 0, 52, 77
2, 118487, Note_on_c, 0, 52, 0
2, 118561, Note_on_c, 0, 50, 73
2, 118592, Note_on_c, 0, 50, 0
2, 118673, Note_on_c, 0, 49, 73
2, 118683, Note_on_c, 0, 68, 76
2, 118706, Note_on_c, 0, 49, 0
2, 118782, Note_on_c, 0, 47, 73
2, 118813, Note_on_c, 0, 47, 0
2, 118892, Note_on_c, 0, 68, 0
2, 118907, Note_on_c, 0, 69, 72
2, 118913, Note_on_c, 0, 49, 63
2, 118933, Note_on_c, 0, 69, 0
2, 119008, Note_on_c, 0, 51, 63
2, 119021, Note_on_c, 0, 73, 67
2, 119040, Note_on_c, 0, 49, 0
2, 119051, Note_on_c, 0, 73, 0
2, 119088, Note_on_c, 0, 51, 0
2, 119113, Note_on_c, 0, 52, 73
2, 119140, Note_on_c, 0, 71, 64
2, 119152, Note_on_c, 0, 52, 0
2, 119169, Note_on_c, 0, 71, 0
2, 119177, Note_on_c, 0, 51, 63
2, 119216, Note_on_c, 0, 51, 0
2, 119238, Note_on_c, 0, 69, 73
2, 119240, Note_on_c, 0, 52, 80
2, 119263, Note_on_c, 0, 69, 0
2, 119283, Note_on_c, 0, 52, 0
2, 119288, Note_on_c, 0, 51, 69
2, 119341, Note_on_c, 0, 68, 80
2, 119348, Note_on_c, 0, 51, 0
2, 119353, Note_on_c, 0, 52, 69
2, 119376, Note_on_c, 0, 68, 0
2, 119412, Note_on_c, 0, 52, 0
2, 119427, Note_on_c, 0, 49, 54
2, 119445, Note_on_c, 0, 66, 77
2, 119470, Note_on_c, 0, 51, 65
2, 119476, Note_on_c, 0, 66, 0
2, 119528, Note_on_c, 0, 49, 0
2, 119545, Note_on_c, 0, 52, 68
2, 119552, Note_on_c, 0, 68, 82
2, 119605, Note_on_c, 0, 68, 0
2, 119613, Note_on_c, 0, 51, 0
2, 119633, Note_on_c, 0, 52, 0
2, 119672, Note_on_c, 0, 70, 76
2, 119676, Note_on_c, 0, 55, 74
2, 119705, Note_on_c, 0, 55, 0
2, 119709, Note_on_c, 0, 70, 0
2, 119776, Note_on_c, 0, 54, 81
2, 119781, Note_on_c, 0, 71, 68
2, 119813, Note_on_c, 0, 71, 0
2, 119816, Note_on_c, 0, 54, 0
2, 119827, Note_on_c, 0, 70, 66
2, 119876, Note_on_c, 0, 70, 0
2, 119892, Note_on_c, 0, 52, 79
2, 119900, Note_on_c, 0, 71, 53
2, 119923, Note_on_c, 0, 52, 0
2, 119949, Note_on_c, 0, 71, 0
2, 119955, Note_on_c, 0, 70, 67
2, 119994, Note_on_c, 0, 50, 76
2, 120012, Note_on_c, 0, 70, 0
2, 120014, Note_on_c, 0, 71, 49
2, 120023, Note_on_c, 0, 50, 0
2, 120078, Note_on_c, 0, 71, 0
2, 120091, Note_on_c, 0, 68, 73
2, 120110, Note_on_c, 0, 49, 74
2, 120131, Note_on_c, 0, 70, 28
2, 120140, Note_on_c, 0, 49, 0
2, 120156, Note_on_c, 0, 68, 0
2, 120203, Note_on_c, 0, 51, 78
2, 120206, Note_on_c, 0, 71, 81
2, 120238, Note_on_c, 0, 70, 0
2, 120250, Note_on_c, 0, 71, 0
2, 120323, Note_on_c, 0, 53, 73
2, 120333, Note_on_c, 0, 74, 70
2, 120360, Note_on_c, 0, 51, 0
2, 120365, Note_on_c, 0, 74, 0
2, 120388, Note_on_c, 0, 53, 0
2, 120408, Note_on_c, 0, 54, 57
2, 120438, Note_on_c, 0, 54, 0
2, 120447, Note_on_c, 0, 73, 79
2, 120472, Note_on_c, 0, 53, 55
2, 120485, Note_on_c, 0, 73, 0
2, 120548, Note_on_c, 0, 54, 57
2, 120554, Note_on_c, 0, 71, 77
2, 120568, Note_on_c, 0, 53, 0
2, 120589, Note_on_c, 0, 71, 0
2, 120631, Note_on_c, 0, 54, 0
2, 120646, Note_on_c, 0, 53, 36
2, 120659, Note_on_c, 0, 69, 88
2, 120695, Note_on_c, 0, 69, 0
2, 120708, Note_on_c, 0, 51, 34
2, 120763, Note_on_c, 0, 68, 80
2, 120786, Note_on_c, 0, 54, 52
2, 120799, Note_on_c, 0, 68, 0
2, 120830, Note_on_c, 0, 53, 0
2, 120849, Note_on_c, 0, 51, 0
2, 120876, Note_on_c, 0, 69, 88
2, 120921, Note_on_c, 0, 69, 0
2, 120938, Note_on_c, 0, 57, 56
2, 120949, Note_on_c, 0, 54, 0
2, 120968, Note_on_c, 0, 57, 0
2, 120988, Note_on_c, 0, 71, 76
2, 121010, Note_on_c, 0, 71, 0
2, 121080, Note_on_c, 0, 56, 78
2, 121081, Note_on_c, 0, 73, 79
2, 121117, Note_on_c, 0, 56, 0
2, 121140, Note_on_c, 0, 73, 0
2, 121155, Note_on_c, 0, 71, 75
2, 121203, Note_on_c, 0, 54, 76
2, 121227, Note_on_c, 0, 73, 58
2, 121232, Note_on_c, 0, 54, 0
2, 121237, Note_on_c, 0, 71, 0
2, 121252, Note_on_c, 0, 71, 53
2, 121271, Note_on_c, 0, 73, 0
2, 121298, Note_on_c, 0, 53, 83
2, 121329, Note_on_c, 0, 73, 57
2, 121332, Note_on_c, 0, 53, 0
2, 121332, Note_on_c, 0, 71, 0
2, 121384, Note_on_c, 0, 71, 58
2, 121402, Note_on_c, 0, 73, 0
2, 121410, Note_on_c, 0, 51, 79
2, 121415, Note_on_c, 0, 69, 48
2, 121426, Note_on_c, 0, 71, 0
2, 121438, Note_on_c, 0, 51, 0
2, 121463, Note_on_c, 0, 69, 0
2, 121474, Note_on_c, 0, 69, 50
2, 121494, Note_on_c, 0, 71, 69
2, 121505, Note_on_c, 0, 69, 0
2, 121509, Note_on_c, 0, 53, 82
2, 121565, Note_on_c, 0, 73, 80
2, 121566, Note_on_c, 0, 53, 0
2, 121583, Note_on_c, 0, 71, 0
2, 121629, Note_on_c, 0, 56, 81
2, 121661, Note_on_c, 0, 56, 0
2, 121751, Note_on_c, 0, 54, 79
2, 121796, Note_on_c, 0, 54, 0
2, 121861, Note_on_c, 0, 53, 89
2, 121908, Note_on_c, 0, 53, 0
2, 121968, Note_on_c, 0, 73, 0
2, 121983, Note_on_c, 0, 51, 87
2, 121995, Note_on_c, 0, 61, 88
2, 122035, Note_on_c, 0, 51, 0
2, 122095, Note_on_c, 0, 49, 85
2, 122142, Note_on_c, 0, 49, 0
2, 122212, Note_on_c, 0, 57, 92
2, 122220, Note_on_c, 0, 54, 85
2, 122222, Note_on_c, 0, 61, 0
2, 122252, Note_on_c, 0, 57, 0
2, 122254, Note_on_c, 0, 54, 0
2, 122333, Note_on_c, 0, 74, 73
2, 122374, Note_on_c, 0, 74, 0
2, 122446, Note_on_c, 0, 54, 92
2, 122449, Note_on_c, 0, 73, 84
2, 122450, Note_on_c, 0, 45, 87
2, 122478, Note_on_c, 0, 54, 0
2, 122483, Note_on_c, 0, 45, 0
2, 122497, Note_on_c, 0, 73, 0
2, 122560, Note_on_c, 0, 71, 87
2, 122600, Note_on_c, 0, 71, 0
2, 122674, Note_on_c, 0, 53, 82
2, 122675, Note_on_c, 0, 69, 88
2, 122683, Note_on_c, 0, 49, 84
2, 122714, Note_on_c, 0, 53, 0
2, 122718, Note_on_c, 0, 49, 0
2, 122728, Note_on_c, 0, 69, 0
2, 122776, Note_on_c, 0, 68, 82
2, 122831, Note_on_c, 0, 68, 0
2, 122895, Note_on_c, 0, 54, 88
2, 122899, Note_on_c, 0, 42, 80
2, 122899, Note_on_c, 0, 69, 97
2, 122931, Note_on_c, 0, 42, 0
2, 122933, Note_on_c, 0, 69, 0
2, 122943, Note_on_c, 0, 54, 0
2, 123122, Note_on_c, 0, 66, 91
2, 123125, Note_on_c, 0, 56, 74
2, 123153, Note_on_c, 0, 66, 0
2, 123167, Note_on_c, 0, 56, 0
2, 123235, Note_on_c, 0, 57, 83
2, 123279, Note_on_c, 0, 57, 0
2, 123343, Note_on_c, 0, 59, 88
2, 123343, Note_on_c, 0, 65, 97
2, 123377, Note_on_c, 0, 65, 0
2, 123382, Note_on_c, 0, 59, 0
2, 123463, Note_on_c, 0, 61, 86
2, 123496, Note_on_c, 0, 61, 0
2, 123566, Note_on_c, 0, 62, 89
2, 123570, Note_on_c, 0, 66, 87
2, 123592, Note_on_c, 0, 62, 0
2, 123600, Note_on_c, 0, 66, 0
2, 123694, Note_on_c, 0, 57, 69
2, 123729, Note_on_c, 0, 57, 0
2, 123795, Note_on_c, 0, 50, 80
2, 123796, Note_on_c, 0, 47, 78
2, 123839, Note_on_c, 0, 50, 0
2, 123843, Note_on_c, 0, 47, 0
2, 123903, Note_on_c, 0, 57, 64
2, 123987, Note_on_c, 0, 57, 0
2, 124011, Note_on_c, 0, 50, 56
2, 124012, Note_on_c, 0, 47, 51
2, 124016, Note_on_c, 0, 62, 83
2, 124016, Note_on_c, 0, 71, 75
2, 124053, Note_on_c, 0, 47, 0
2, 124053, Note_on_c, 0, 62, 0
2, 124056, Note_on_c, 0, 50, 0
2, 124127, Note_on_c, 0, 56, 62
2, 124184, Note_on_c, 0, 56, 0
2, 124198, Note_on_c, 0, 71, 0
2, 124248, Note_on_c, 0, 45, 75
2, 124250, Note_on_c, 0, 61, 87
2, 124278, Note_on_c, 0, 61, 0
2, 124291, Note_on_c, 0, 45, 0
2, 124351, Note_on_c, 0, 56, 65
2, 124393, Note_on_c, 0, 56, 0
2, 124464, Note_on_c, 0, 49, 75
2, 124467, Note_on_c, 0, 45, 61
2, 124471, Note_on_c, 0, 65, 82
2, 124505, Note_on_c, 0, 45, 0
2, 124511, Note_on_c, 0, 65, 0
2, 124515, Note_on_c, 0, 49, 0
2, 124564, Note_on_c, 0, 56, 72
2, 124628, Note_on_c, 0, 56, 0
2, 124676, Note_on_c, 0, 45, 64
2, 124684, Note_on_c, 0, 66, 74
2, 124689, Note_on_c, 0, 61, 79
2, 124719, Note_on_c, 0, 45, 0
2, 124740, Note_on_c, 0, 61, 0
2, 124791, Note_on_c, 0, 54, 64
2, 124866, Note_on_c, 0, 54, 0
2, 124906, Note_on_c, 0, 62, 77
2, 124911, Note_on_c, 0, 59, 73
2, 124914, Note_on_c, 0, 44, 78
2, 124928, Note_on_c, 0, 66, 0
2, 124936, Note_on_c, 0, 59, 0
2, 124938, Note_on_c, 0, 62, 0
2, 124962, Note_on_c, 0, 44, 0
2, 125020, Note_on_c, 0, 54, 64
2, 125082, Note_on_c, 0, 54, 0
2, 125123, Note_on_c, 0, 53, 77
2, 125132, Note_on_c, 0, 61, 70
2, 125186, Note_on_c, 0, 53, 0
2, 125230, Note_on_c, 0, 56, 69
2, 125236, Note_on_c, 0, 59, 70
2, 125270, Note_on_c, 0, 56, 0
2, 125303, Note_on_c, 0, 59, 0
2, 125338, Note_on_c, 0, 49, 65
2, 125347, Note_on_c, 0, 57, 74
2, 125381, Note_on_c, 0, 57, 0
2, 125389, Note_on_c, 0, 49, 0
2, 125443, Note_on_c, 0, 53, 60
2, 125443, Note_on_c, 0, 56, 69
2, 125474, Note_on_c, 0, 56, 0
2, 125484, Note_on_c, 0, 53, 0
2, 125560, Note_on_c, 0, 42, 73
2, 125563, Note_on_c, 0, 57, 77
2, 125587, Note_on_c, 0, 57, 0
2, 125630, Note_on_c, 0, 42, 0
2, 125667, Note_on_c, 0, 54, 52
2, 125726, Note_on_c, 0, 54, 0
2, 125789, Note_on_c, 0, 44, 65
2, 125792, Note_on_c, 0, 59, 73
2, 125813, Note_on_c, 0, 61, 0
2, 125816, Note_on_c, 0, 59, 0
2, 125862, Note_on_c, 0, 44, 0
2, 125888, Note_on_c, 0, 54, 62
2, 125973, Note_on_c, 0, 54, 0
2, 126004, Note_on_c, 0, 61, 63
2, 126013, Note_on_c, 0, 66, 74
2, 126019, Note_on_c, 0, 45, 69
2, 126068, Note_on_c, 0, 66, 0
2, 126105, Note_on_c, 0, 45, 0
2, 126126, Note_on_c, 0, 54, 57
2, 126196, Note_on_c, 0, 54, 0
2, 126232, Note_on_c, 0, 62, 79
2, 126241, Note_on_c, 0, 47, 65
2, 126278, Note_on_c, 0, 62, 0
2, 126307, Note_on_c, 0, 47, 0
2, 126334, Note_on_c, 0, 54, 65
2, 126403, Note_on_c, 0, 54, 0
2, 126448, Note_on_c, 0, 49, 69
2, 126456, Note_on_c, 0, 61, 0
2, 126457, Note_on_c, 0, 59, 72
2, 126459, Note_on_c, 0, 64, 71
2, 126489, Note_on_c, 0, 59, 0
2, 126492, Note_on_c, 0, 64, 0
2, 126517, Note_on_c, 0, 49, 0
2, 126547, Note_on_c, 0, 54, 61
2, 126630, Note_on_c, 0, 54, 0
2, 126663, Note_on_c, 0, 50, 57
2, 126677, Note_on_c, 0, 66, 70
2, 126681, Note_on_c, 0, 57, 65
2, 126711, Note_on_c, 0, 57, 0
2, 126744, Note_on_c, 0, 50, 0
2, 126758, Note_on_c, 0, 54, 62
2, 126804, Note_on_c, 0, 54, 0
2, 126898, Note_on_c, 0, 40, 70
2, 126902, Note_on_c, 0, 55, 73
2, 126929, Note_on_c, 0, 55, 0
2, 126939, Note_on_c, 0, 40, 0
2, 127019, Note_on_c, 0, 52, 46
2, 127058, Note_on_c, 0, 52, 0
2, 127121, Note_on_c, 0, 57, 73
2, 127122, Note_on_c, 0, 64, 69
2, 127126, Note_on_c, 0, 42, 59
2, 127148, Note_on_c, 0, 57, 0
2, 127148, Note_on_c, 0, 66, 0
2, 127150, Note_on_c, 0, 64, 0
2, 127178, Note_on_c, 0, 42, 0
2, 127225, Note_on_c, 0, 52, 56
2, 127282, Note_on_c, 0, 52, 0
2, 127346, Note_on_c, 0, 62, 74
2, 127349, Note_on_c, 0, 59, 62
2, 127355, Note_on_c, 0, 43, 61
2, 127379, Note_on_c, 0, 62, 0
2, 127404, Note_on_c, 0, 43, 0
2, 127468, Note_on_c, 0, 52, 52
2, 127522, Note_on_c, 0, 52, 0
2, 127574, Note_on_c, 0, 61, 76
2, 127581, Note_on_c, 0, 45, 62
2, 127631, Note_on_c, 0, 45, 0
2, 127689, Note_on_c, 0, 52, 56
2, 127767, Note_on_c, 0, 59, 0
2, 127773, Note_on_c, 0, 52, 0
2, 127795, Note_on_c, 0, 57, 71
2, 127795, Note_on_c, 0, 61, 0
2, 127800, Note_on_c, 0, 47, 62
2, 127820, Note_on_c, 0, 57, 0
2, 127871, Note_on_c, 0, 47, 0
2, 127909, Note_on_c, 0, 52, 61
2, 127963, Note_on_c, 0, 52, 0
2, 128028, Note_on_c, 0, 81, 83
2, 128039, Note_on_c, 0, 49, 63
2, 128110, Note_on_c, 0, 49, 0
2, 128140, Note_on_c, 0, 52, 62
2, 128172, Note_on_c, 0, 52, 0
2, 128249, Note_on_c, 0, 78, 88
2, 128251, Note_on_c, 0, 81, 0
2, 128252, Note_on_c, 0, 50, 67
2, 128267, Note_on_c, 0, 78, 0
2, 128298, Note_on_c, 0, 50, 0
2, 128357, Note_on_c, 0, 52, 65
2, 128397, Note_on_c, 0, 52, 0
2, 128469, Note_on_c, 0, 74, 88
2, 128472, Note_on_c, 0, 54, 69
2, 128489, Note_on_c, 0, 74, 0
2, 128516, Note_on_c, 0, 54, 0
2, 128581, Note_on_c, 0, 55, 71
2, 128624, Note_on_c, 0, 55, 0
2, 128688, Note_on_c, 0, 73, 92
2, 128693, Note_on_c, 0, 57, 67
2, 128705, Note_on_c, 0, 73, 0
2, 128727, Note_on_c, 0, 57, 0
2, 128796, Note_on_c, 0, 55, 64
2, 128829, Note_on_c, 0, 55, 0
2, 128908, Note_on_c, 0, 54, 67
2, 128909, Note_on_c, 0, 74, 90
2, 128930, Note_on_c, 0, 74, 0
2, 128946, Note_on_c, 0, 54, 0
2, 129024, Note_on_c, 0, 57, 63
2, 129058, Note_on_c, 0, 57, 0
2, 129122, Note_on_c, 0, 76, 81
2, 129127, Note_on_c, 0, 55, 61
2, 129157, Note_on_c, 0, 76, 0
2, 129168, Note_on_c, 0, 55, 0
2, 129223, Note_on_c, 0, 78, 87
2, 129235, Note_on_c, 0, 54, 57
2, 129252, Note_on_c, 0, 78, 0
2, 129291, Note_on_c, 0, 54, 0
2, 129327, Note_on_c, 0, 79, 87
2, 129344, Note_on_c, 0, 52, 61
2, 129364, Note_on_c, 0, 79, 0
2, 129389, Note_on_c, 0, 52, 0
2, 129428, Note_on_c, 0, 81, 87
2, 129456, Note_on_c, 0, 50, 41
2, 129467, Note_on_c, 0, 81, 0
2, 129488, Note_on_c, 0, 50, 0
2, 129538, Note_on_c, 0, 55, 70
2, 129540, Note_on_c, 0, 83, 87
2, 129563, Note_on_c, 0, 83, 0
2, 129573, Note_on_c, 0, 55, 0
2, 129688, Note_on_c, 0, 66, 59
2, 129727, Note_on_c, 0, 66, 0
2, 129770, Note_on_c, 0, 71, 75
2, 129785, Note_on_c, 0, 55, 58
2, 129790, Note_on_c, 0, 71, 0
2, 129828, Note_on_c, 0, 55, 0
2, 129870, Note_on_c, 0, 66, 62
2, 129906, Note_on_c, 0, 66, 0
2, 129984, Note_on_c, 0, 83, 89
2, 129986, Note_on_c, 0, 52, 59
2, 129994, Note_on_c, 0, 55, 42
2, 130014, Note_on_c, 0, 83, 0
2, 130021, Note_on_c, 0, 52, 0
2, 130024, Note_on_c, 0, 55, 0
2, 130071, Note_on_c, 0, 64, 63
2, 130138, Note_on_c, 0, 64, 0
2, 130198, Note_on_c, 0, 54, 63
2, 130208, Note_on_c, 0, 81, 81
2, 130209, Note_on_c, 0, 83, 78
2, 130223, Note_on_c, 0, 83, 0
2, 130225, Note_on_c, 0, 81, 0
2, 130249, Note_on_c, 0, 54, 0
2, 130305, Note_on_c, 0, 64, 54
2, 130385, Note_on_c, 0, 64, 0
2, 130430, Note_on_c, 0, 54, 62
2, 130438, Note_on_c, 0, 69, 83
2, 130464, Note_on_c, 0, 69, 0
2, 130476, Note_on_c, 0, 54, 0
2, 130536, Note_on_c, 0, 64, 57
2, 130598, Note_on_c, 0, 64, 0
2, 130646, Note_on_c, 0, 81, 89
2, 130656, Note_on_c, 0, 54, 52
2, 130659, Note_on_c, 0, 50, 51
2, 130679, Note_on_c, 0, 81, 0
2, 130711, Note_on_c, 0, 54, 0
2, 130716, Note_on_c, 0, 50, 0
2, 130763, Note_on_c, 0, 62, 57
2, 130856, Note_on_c, 0, 62, 0
2, 130865, Note_on_c, 0, 79, 86
2, 130868, Note_on_c, 0, 52, 64
2, 130898, Note_on_c, 0, 79, 0
2, 130920, Note_on_c, 0, 52, 0
2, 130976, Note_on_c, 0, 62, 58
2, 131022, Note_on_c, 0, 62, 0
2, 131076, Note_on_c, 0, 57, 60
2, 131079, Note_on_c, 0, 81, 82
2, 131080, Note_on_c, 0, 61, 64
2, 131122, Note_on_c, 0, 81, 0
2, 131132, Note_on_c, 0, 57, 0
2, 131135, Note_on_c, 0, 61, 0
2, 131189, Note_on_c, 0, 64, 64
2, 131195, Note_on_c, 0, 79, 73
2, 131230, Note_on_c, 0, 79, 0
2, 131264, Note_on_c, 0, 64, 0
2, 131277, Note_on_c, 0, 57, 59
2, 131298, Note_on_c, 0, 78, 80
2, 131324, Note_on_c, 0, 57, 0
2, 131346, Note_on_c, 0, 78, 0
2, 131387, Note_on_c, 0, 61, 58
2, 131392, Note_on_c, 0, 76, 79
2, 131420, Note_on_c, 0, 61, 0
2, 131431, Note_on_c, 0, 76, 0
2, 131497, Note_on_c, 0, 50, 65
2, 131501, Note_on_c, 0, 78, 83
2, 131506, Note_on_c, 0, 62, 60
2, 131536, Note_on_c, 0, 50, 0
2, 131549, Note_on_c, 0, 62, 0
2, 131549, Note_on_c, 0, 78, 0
2, 131600, Note_on_c, 0, 81, 80
2, 131626, Note_on_c, 0, 61, 67
2, 131654, Note_on_c, 0, 81, 0
2, 131660, Note_on_c, 0, 61, 0
2, 131714, Note_on_c, 0, 79, 75
2, 131727, Note_on_c, 0, 62, 65
2, 131753, Note_on_c, 0, 79, 0
2, 131759, Note_on_c, 0, 62, 0
2, 131798, Note_on_c, 0, 64, 75
2, 131808, Note_on_c, 0, 78, 82
2, 131831, Note_on_c, 0, 64, 0
2, 131864, Note_on_c, 0, 78, 0
2, 131922, Note_on_c, 0, 59, 68
2, 131922, Note_on_c, 0, 76, 83
2, 131940, Note_on_c, 0, 66, 72
2, 131956, Note_on_c, 0, 59, 0
2, 131960, Note_on_c, 0, 76, 0
2, 131978, Note_on_c, 0, 66, 0
2, 132018, Note_on_c, 0, 74, 75
2, 132044, Note_on_c, 0, 68, 72
2, 132061, Note_on_c, 0, 74, 0
2, 132112, Note_on_c, 0, 68, 0
2, 132130, Note_on_c, 0, 73, 83
2, 132145, Note_on_c, 0, 69, 77
2, 132146, Note_on_c, 0, 66, 66
2, 132160, Note_on_c, 0, 73, 0
2, 132182, Note_on_c, 0, 69, 0
2, 132190, Note_on_c, 0, 66, 0
2, 132241, Note_on_c, 0, 68, 73
2, 132301, Note_on_c, 0, 68, 0
2, 132343, Note_on_c, 0, 69, 72
2, 132350, Note_on_c, 0, 74, 83
2, 132370, Note_on_c, 0, 74, 0
2, 132387, Note_on_c, 0, 69, 0
2, 132441, Note_on_c, 0, 71, 70
2, 132467, Note_on_c, 0, 71, 0
2, 132552, Note_on_c, 0, 76, 86
2, 132555, Note_on_c, 0, 69, 73
2, 132561, Note_on_c, 0, 61, 71
2, 132585, Note_on_c, 0, 69, 0
2, 132604, Note_on_c, 0, 61, 0
2, 132659, Note_on_c, 0, 68, 75
2, 132717, Note_on_c, 0, 68, 0
2, 132769, Note_on_c, 0, 66, 80
2, 132778, Note_on_c, 0, 62, 79
2, 132821, Note_on_c, 0, 66, 0
2, 132850, Note_on_c, 0, 62, 0
2, 132874, Note_on_c, 0, 64, 72
2, 132950, Note_on_c, 0, 64, 0
2, 132987, Note_on_c, 0, 66, 75
2, 132989, Note_on_c, 0, 74, 76
2, 132995, Note_on_c, 0, 76, 0
2, 133009, Note_on_c, 0, 74, 0
2, 133048, Note_on_c, 0, 66, 0
2, 133092, Note_on_c, 0, 68, 69
2, 133140, Note_on_c, 0, 68, 0
2, 133197, Note_on_c, 0, 69, 69
2, 133199, Note_on_c, 0, 73, 80
2, 133202, Note_on_c, 0, 63, 63
2, 133222, Note_on_c, 0, 69, 0
2, 133232, Note_on_c, 0, 73, 0
2, 133237, Note_on_c, 0, 63, 0
2, 133311, Note_on_c, 0, 66, 68
2, 133347, Note_on_c, 0, 66, 0
2, 133429, Note_on_c, 0, 68, 79
2, 133431, Note_on_c, 0, 64, 81
2, 133432, Note_on_c, 0, 71, 69
2, 133452, Note_on_c, 0, 64, 0
2, 133462, Note_on_c, 0, 68, 0
2, 133466, Note_on_c, 0, 71, 0
2, 133543, Note_on_c, 0, 64, 72
2, 133587, Note_on_c, 0, 64, 0
2, 133647, Note_on_c, 0, 66, 75
2, 133649, Note_on_c, 0, 69, 76
2, 133672, Note_on_c, 0, 66, 0
2, 133674, Note_on_c, 0, 69, 0
2, 133744, Note_on_c, 0, 64, 69
2, 133803, Note_on_c, 0, 64, 0
2, 133854, Note_on_c, 0, 52, 86
2, 133856, Note_on_c, 0, 68, 78
2, 133863, Note_on_c, 0, 71, 71
2, 133892, Note_on_c, 0, 68, 0
2, 133898, Note_on_c, 0, 71, 0
2, 133974, Note_on_c, 0, 64, 69
2, 134074, Note_on_c, 0, 49, 86
2, 134080, Note_on_c, 0, 69, 75
2, 134081, Note_on_c, 0, 73, 79
2, 134089, Note_on_c, 0, 52, 0
2, 134097, Note_on_c, 0, 64, 0
2, 134099, Note_on_c, 0, 49, 0
2, 134104, Note_on_c, 0, 69, 0
2, 134120, Note_on_c, 0, 73, 0
2, 134198, Note_on_c, 0, 64, 72
2, 134258, Note_on_c, 0, 64, 0
2, 134304, Note_on_c, 0, 45, 86
2, 134311, Note_on_c, 0, 73, 75
2, 134313, Note_on_c, 0, 76, 73
2, 134329, Note_on_c, 0, 45, 0
2, 134348, Note_on_c, 0, 73, 0
2, 134358, Note_on_c, 0, 76, 0
2, 134416, Note_on_c, 0, 64, 71
2, 134462, Note_on_c, 0, 64, 0
2, 134523, Note_on_c, 0, 44, 81
2, 134526, Note_on_c, 0, 74, 74
2, 134528, Note_on_c, 0, 71, 75
2, 134552, Note_on_c, 0, 44, 0
2, 134552, Note_on_c, 0, 71, 0
2, 134570, Note_on_c, 0, 74, 0
2, 134627, Note_on_c, 0, 64, 68
2, 134668, Note_on_c, 0, 64, 0
2, 134733, Note_on_c, 0, 71, 69
2, 134745, Note_on_c, 0, 45, 90
2, 134750, Note_on_c, 0, 73, 80
2, 134777, Note_on_c, 0, 45, 0
2, 134856, Note_on_c, 0, 71, 0
2, 134862, Note_on_c, 0, 69, 76
2, 134916, Note_on_c, 0, 69, 0
2, 134972, Note_on_c, 0, 47, 87
2, 135010, Note_on_c, 0, 47, 0
2, 135076, Note_on_c, 0, 68, 82
2, 135078, Note_on_c, 0, 49, 78
2, 135093, Note_on_c, 0, 73, 0
2, 135120, Note_on_c, 0, 68, 0
2, 135127, Note_on_c, 0, 49, 0
2, 135187, Note_on_c, 0, 50, 88
2, 135190, Note_on_c, 0, 66, 86
2, 135211, Note_on_c, 0, 66, 0
2, 135221, Note_on_c, 0, 50, 0
2, 135292, Note_on_c, 0, 52, 92
2, 135292, Note_on_c, 0, 64, 77
2, 135319, Note_on_c, 0, 52, 0
2, 135326, Note_on_c, 0, 64, 0
2, 135401, Note_on_c, 0, 62, 82
2, 135404, Note_on_c, 0, 54, 95
2, 135439, Note_on_c, 0, 54, 0
2, 135448, Note_on_c, 0, 62, 0
2, 135512, Note_on_c, 0, 73, 66
2, 135579, Note_on_c, 0, 73, 0
2, 135617, Note_on_c, 0, 42, 95
2, 135621, Note_on_c, 0, 62, 82
2, 135624, Note_on_c, 0, 69, 76
2, 135658, Note_on_c, 0, 42, 0
2, 135659, Note_on_c, 0, 62, 0
2, 135722, Note_on_c, 0, 69, 0
2, 135735, Note_on_c, 0, 73, 69
2, 135821, Note_on_c, 0, 73, 0
2, 135847, Note_on_c, 0, 54, 90
2, 135851, Note_on_c, 0, 62, 82
2, 135855, Note_on_c, 0, 68, 75
2, 135881, Note_on_c, 0, 54, 0
2, 135896, Note_on_c, 0, 62, 0
2, 135903, Note_on_c, 0, 68, 0
2, 135957, Note_on_c, 0, 71, 70
2, 136025, Note_on_c, 0, 71, 0
2, 136068, Note_on_c, 0, 52, 88
2, 136073, Note_on_c, 0, 61, 84
2, 136103, Note_on_c, 0, 52, 0
2, 136122, Note_on_c, 0, 61, 0
2, 136175, Note_on_c, 0, 71, 62
2, 136251, Note_on_c, 0, 71, 0
2, 136287, Note_on_c, 0, 40, 80
2, 136295, Note_on_c, 0, 68, 65
2, 136299, Note_on_c, 0, 61, 74
2, 136332, Note_on_c, 0, 40, 0
2, 136336, Note_on_c, 0, 61, 0
2, 136383, Note_on_c, 0, 68, 0
2, 136392, Note_on_c, 0, 71, 60
2, 136493, Note_on_c, 0, 71, 0
2, 136512, Note_on_c, 0, 52, 86
2, 136514, Note_on_c, 0, 61, 69
2, 136515, Note_on_c, 0, 66, 67
2, 136547, Note_on_c, 0, 52, 0
2, 136554, Note_on_c, 0, 61, 0
2, 136563, Note_on_c, 0, 66, 0
2, 136619, Note_on_c, 0, 69, 66
2, 136689, Note_on_c, 0, 69, 0
2, 136728, Note_on_c, 0, 50, 82
2, 136736, Note_on_c, 0, 59, 75
2, 136762, Note_on_c, 0, 50, 0
2, 136793, Note_on_c, 0, 59, 0
2, 136834, Note_on_c, 0, 69, 68
2, 136912, Note_on_c, 0, 69, 0
2, 136943, Note_on_c, 0, 52, 74
2, 136952, Note_on_c, 0, 64, 69
2, 136954, Note_on_c, 0, 68, 67
2, 136974, Note_on_c, 0, 52, 0
2, 136994, Note_on_c, 0, 64, 0
2, 137049, Note_on_c, 0, 50, 75
2, 137062, Note_on_c, 0, 71, 66
2, 137077, Note_on_c, 0, 68, 0
2, 137082, Note_on_c, 0, 50, 0
2, 137166, Note_on_c, 0, 49, 75
2, 137173, Note_on_c, 0, 64, 68
2, 137173, Note_on_c, 0, 71, 0
2, 137175, Note_on_c, 0, 62, 65
2, 137198, Note_on_c, 0, 49, 0
2, 137210, Note_on_c, 0, 62, 0
2, 137242, Note_on_c, 0, 64, 0
2, 137276, Note_on_c, 0, 47, 74
2, 137284, Note_on_c, 0, 68, 66
2, 137315, Note_on_c, 0, 47, 0
2, 137370, Note_on_c, 0, 68, 0
2, 137401, Note_on_c, 0, 49, 73
2, 137408, Note_on_c, 0, 69, 69
2, 137447, Note_on_c, 0, 49, 0
2, 137513, Note_on_c, 0, 52, 76
2, 137542, Note_on_c, 0, 52, 0
2, 137627, Note_on_c, 0, 57, 67
2, 137636, Note_on_c, 0, 61, 73
2, 137639, Note_on_c, 0, 64, 65
2, 137656, Note_on_c, 0, 69, 0
2, 137659, Note_on_c, 0, 57, 0
2, 137667, Note_on_c, 0, 61, 0
2, 137673, Note_on_c, 0, 64, 0
2, 137735, Note_on_c, 0, 52, 71
2, 137766, Note_on_c, 0, 52, 0
2, 137850, Note_on_c, 0, 51, 66
2, 137853, Note_on_c, 0, 60, 69
2, 137855, Note_on_c, 0, 66, 66
2, 137888, Note_on_c, 0, 51, 0
2, 137892, Note_on_c, 0, 66, 0
2, 137956, Note_on_c, 0, 57, 68
2, 137993, Note_on_c, 0, 57, 0
2, 138071, Note_on_c, 0, 67, 79
2, 138073, Note_on_c, 0, 52, 74
2, 138106, Note_on_c, 0, 60, 0
2, 138107, Note_on_c, 0, 67, 0
2, 138109, Note_on_c, 0, 52, 0
2, 138177, Note_on_c, 0, 55, 73
2, 138220, Note_on_c, 0, 55, 0
2, 138278, Note_on_c, 0, 54, 72
2, 138293, Note_on_c, 0, 59, 68
2, 138294, Note_on_c, 0, 68, 69
2, 138319, Note_on_c, 0, 59, 0
2, 138329, Note_on_c, 0, 54, 0
2, 138337, Note_on_c, 0, 68, 0
2, 138389, Note_on_c, 0, 52, 68
2, 138443, Note_on_c, 0, 52, 0
2, 138498, Note_on_c, 0, 50, 71
2, 138508, Note_on_c, 0, 64, 68
2, 138511, Note_on_c, 0, 70, 73
2, 138539, Note_on_c, 0, 50, 0
2, 138545, Note_on_c, 0, 70, 0
2, 138602, Note_on_c, 0, 49, 79
2, 138673, Note_on_c, 0, 49, 0
2, 138724, Note_on_c, 0, 50, 71
2, 138728, Note_on_c, 0, 71, 79
2, 138732, Note_on_c, 0, 64, 0
2, 138780, Note_on_c, 0, 50, 0
2, 138834, Note_on_c, 0, 54, 77
2, 138887, Note_on_c, 0, 54, 0
2, 138954, Note_on_c, 0, 66, 82
2, 138957, Note_on_c, 0, 59, 72
2, 138957, Note_on_c, 0, 63, 75
2, 138988, Note_on_c, 0, 63, 0
2, 138991, Note_on_c, 0, 71, 0
2, 138997, Note_on_c, 0, 66, 0
2, 139003, Note_on_c, 0, 59, 0
2, 139054, Note_on_c, 0, 54, 76
2, 139105, Note_on_c, 0, 54, 0
2, 139163, Note_on_c, 0, 53, 85
2, 139169, Note_on_c, 0, 68, 80
2, 139174, Note_on_c, 0, 62, 77
2, 139208, Note_on_c, 0, 53, 0
2, 139225, Note_on_c, 0, 68, 0
2, 139273, Note_on_c, 0, 59, 78
2, 139327, Note_on_c, 0, 59, 0
2, 139379, Note_on_c, 0, 54, 86
2, 139385, Note_on_c, 0, 69, 84
2, 139420, Note_on_c, 0, 62, 0
2, 139432, Note_on_c, 0, 69, 0
2, 139443, Note_on_c, 0, 54, 0
2, 139486, Note_on_c, 0, 57, 85
2, 139550, Note_on_c, 0, 57, 0
2, 139602, Note_on_c, 0, 56, 85
2, 139607, Note_on_c, 0, 61, 83
2, 139608, Note_on_c, 0, 70, 82
2, 139639, Note_on_c, 0, 61, 0
2, 139653, Note_on_c, 0, 70, 0
2, 139659, Note_on_c, 0, 56, 0
2, 139703, Note_on_c, 0, 54, 83
2, 139768, Note_on_c, 0, 54, 0
2, 139813, Note_on_c, 0, 72, 70
2, 139814, Note_on_c, 0, 53, 90
2, 139820, Note_on_c, 0, 66, 79
2, 139864, Note_on_c, 0, 53, 0
2, 139887, Note_on_c, 0, 72, 0
2, 139927, Note_on_c, 0, 51, 91
2, 139978, Note_on_c, 0, 51, 0
2, 140036, Note_on_c, 0, 49, 92
2, 140036, Note_on_c, 0, 73, 81
2, 140095, Note_on_c, 0, 49, 0
2, 140140, Note_on_c, 0, 50, 88
2, 140177, Note_on_c, 0, 50, 0
2, 140222, Note_on_c, 0, 66, 0
2, 140251, Note_on_c, 0, 65, 82
2, 140252, Note_on_c, 0, 49, 91
2, 140277, Note_on_c, 0, 73, 0
2, 140305, Note_on_c, 0, 65, 0
2, 140314, Note_on_c, 0, 49, 0
2, 140358, Note_on_c, 0, 47, 94
2, 140407, Note_on_c, 0, 47, 0
2, 140465, Note_on_c, 0, 45, 89
2, 140486, Note_on_c, 0, 73, 85
2, 140503, Note_on_c, 0, 45, 0
2, 140572, Note_on_c, 0, 44, 88
2, 140627, Note_on_c, 0, 44, 0
2, 140698, Note_on_c, 0, 42, 87
2, 140701, Note_on_c, 0, 69, 86
2, 140738, Note_on_c, 0, 69, 0
2, 140740, Note_on_c, 0, 73, 0
2, 140742, Note_on_c, 0, 42, 0
2, 140799, Note_on_c, 0, 54, 82
2, 140831, Note_on_c, 0, 54, 0
2, 140906, Note_on_c, 0, 56, 84
2, 140914, Note_on_c, 0, 69, 77
2, 140915, Note_on_c, 0, 66, 79
2, 140940, Note_on_c, 0, 66, 0
2, 140950, Note_on_c, 0, 69, 0
2, 140962, Note_on_c, 0, 56, 0
2, 141014, Note_on_c, 0, 57, 85
2, 141055, Note_on_c, 0, 57, 0
2, 141128, Note_on_c, 0, 68, 80
2, 141129, Note_on_c, 0, 65, 81
2, 141132, Note_on_c, 0, 59, 86
2, 141159, Note_on_c, 0, 65, 0
2, 141164, Note_on_c, 0, 68, 0
2, 141171, Note_on_c, 0, 59, 0
2, 141235, Note_on_c, 0, 61, 85
2, 141291, Note_on_c, 0, 61, 0
2, 141341, Note_on_c, 0, 62, 88
2, 141342, Note_on_c, 0, 66, 90
2, 141379, Note_on_c, 0, 66, 0
2, 141388, Note_on_c, 0, 62, 0
2, 141451, Note_on_c, 0, 64, 79
2, 141495, Note_on_c, 0, 64, 0
2, 141548, Note_on_c, 0, 62, 82
2, 141550, Note_on_c, 0, 68, 79
2, 141588, Note_on_c, 0, 62, 0
2, 141608, Note_on_c, 0, 68, 0
2, 141654, Note_on_c, 0, 70, 73
2, 141659, Note_on_c, 0, 61, 79
2, 141679, Note_on_c, 0, 70, 0
2, 141687, Note_on_c, 0, 61, 0
2, 141763, Note_on_c, 0, 71, 73
2, 141769, Note_on_c, 0, 59, 73
2, 141796, Note_on_c, 0, 59, 0
2, 141806, Note_on_c, 0, 71, 0
2, 141871, Note_on_c, 0, 58, 73
2, 141872, Note_on_c, 0, 73, 78
2, 141905, Note_on_c, 0, 73, 0
2, 141910, Note_on_c, 0, 58, 0
2, 141990, Note_on_c, 0, 59, 82
2, 141990, Note_on_c, 0, 74, 79
2, 142010, Note_on_c, 0, 59, 0
2, 142026, Note_on_c, 0, 74, 0
2, 142089, Note_on_c, 0, 81, 76
2, 142140, Note_on_c, 0, 81, 0
2, 142204, Note_on_c, 0, 71, 79
2, 142210, Note_on_c, 0, 62, 79
2, 142237, Note_on_c, 0, 62, 0
2, 142243, Note_on_c, 0, 71, 0
2, 142307, Note_on_c, 0, 81, 74
2, 142366, Note_on_c, 0, 81, 0
2, 142416, Note_on_c, 0, 74, 76
2, 142417, Note_on_c, 0, 71, 74
2, 142418, Note_on_c, 0, 52, 71
2, 142442, Note_on_c, 0, 71, 0
2, 142452, Note_on_c, 0, 52, 0
2, 142458, Note_on_c, 0, 74, 0
2, 142522, Note_on_c, 0, 80, 73
2, 142626, Note_on_c, 0, 80, 0
2, 142639, Note_on_c, 0, 73, 76
2, 142641, Note_on_c, 0, 57, 75
2, 142644, Note_on_c, 0, 69, 78
2, 142664, Note_on_c, 0, 57, 0
2, 142669, Note_on_c, 0, 69, 0
2, 142678, Note_on_c, 0, 73, 0
2, 142748, Note_on_c, 0, 80, 74
2, 142837, Note_on_c, 0, 80, 0
2, 142862, Note_on_c, 0, 61, 76
2, 142862, Note_on_c, 0, 69, 81
2, 142895, Note_on_c, 0, 61, 0
2, 142899, Note_on_c, 0, 69, 0
2, 142973, Note_on_c, 0, 80, 66
2, 143063, Note_on_c, 0, 80, 0
2, 143069, Note_on_c, 0, 62, 76
2, 143076, Note_on_c, 0, 73, 75
2, 143080, Note_on_c, 0, 69, 73
2, 143118, Note_on_c, 0, 69, 0
2, 143164, Note_on_c, 0, 73, 0
2, 143183, Note_on_c, 0, 78, 77
2, 143290, Note_on_c, 0, 71, 75
2, 143295, Note_on_c, 0, 68, 78
2, 143301, Note_on_c, 0, 78, 0
2, 143345, Note_on_c, 0, 68, 0
2, 143369, Note_on_c, 0, 71, 0
2, 143411, Note_on_c, 0, 78, 77
2, 143470, Note_on_c, 0, 78, 0
2, 143521, Note_on_c, 0, 73, 76
2, 143521, Note_on_c, 0, 77, 76
2, 143532, Note_on_c, 0, 61, 71
2, 143554, Note_on_c, 0, 62, 0
2, 143585, Note_on_c, 0, 73, 0
2, 143594, Note_on_c, 0, 61, 0
2, 143623, Note_on_c, 0, 77, 0
2, 143628, Note_on_c, 0, 80, 75
2, 143635, Note_on_c, 0, 71, 75
2, 143680, Note_on_c, 0, 71, 0
2, 143742, Note_on_c, 0, 73, 81
2, 143745, Note_on_c, 0, 69, 76
2, 143769, Note_on_c, 0, 80, 0
2, 143785, Note_on_c, 0, 69, 0
2, 143814, Note_on_c, 0, 73, 0
2, 143840, Note_on_c, 0, 68, 83
2, 143846, Note_on_c, 0, 77, 78
2, 143876, Note_on_c, 0, 68, 0
2, 143909, Note_on_c, 0, 77, 0
2, 143959, Note_on_c, 0, 69, 77
2, 143961, Note_on_c, 0, 78, 80
2, 143982, Note_on_c, 0, 78, 0
2, 144048, Note_on_c, 0, 59, 78
2, 144082, Note_on_c, 0, 59, 0
2, 144168, Note_on_c, 0, 57, 75
2, 144179, Note_on_c, 0, 73, 82
2, 144204, Note_on_c, 0, 73, 0
2, 144206, Note_on_c, 0, 57, 0
2, 144277, Note_on_c, 0, 56, 77
2, 144323, Note_on_c, 0, 56, 0
2, 144380, Note_on_c, 0, 54, 74
2, 144390, Note_on_c, 0, 78, 83
2, 144427, Note_on_c, 0, 54, 0
2, 144483, Note_on_c, 0, 52, 76
2, 144512, Note_on_c, 0, 52, 0
2, 144603, Note_on_c, 0, 51, 91
2, 144638, Note_on_c, 0, 51, 0
2, 144647, Note_on_c, 0, 78, 0
2, 144694, Control_c, 0, 64, 10
2, 144700, Note_on_c, 0, 76, 69
2, 144709, Control_c, 0, 64, 13
2, 144723, Note_on_c, 0, 76, 0
2, 144724, Control_c, 0, 64, 0
2, 144822, Note_on_c, 0, 59, 92
2, 144822, Note_on_c, 0, 75, 77
2, 144862, Note_on_c, 0, 75, 0
2, 144877, Note_on_c, 0, 69, 0
2, 144927, Note_on_c, 0, 69, 35
2, 144933, Note_on_c, 0, 73, 81
2, 144965, Note_on_c, 0, 73, 0
2, 144973, Note_on_c, 0, 69, 0
2, 145050, Note_on_c, 0, 71, 82
2, 145146, Note_on_c, 0, 69, 87
2, 145167, Note_on_c, 0, 71, 0
2, 145254, Note_on_c, 0, 67, 82
2, 145285, Note_on_c, 0, 69, 0
2, 145351, Note_on_c, 0, 66, 81
2, 145355, Note_on_c, 0, 57, 75
2, 145366, Note_on_c, 0, 67, 0
2, 145375, Note_on_c, 0, 59, 0
2, 145386, Note_on_c, 0, 57, 0
2, 145395, Note_on_c, 0, 66, 0
2, 145467, Note_on_c, 0, 64, 83
2, 145467, Note_on_c, 0, 71, 81
2, 145468, Note_on_c, 0, 55, 84
2, 145488, Note_on_c, 0, 64, 0
2, 145491, Note_on_c, 0, 71, 0
2, 145507, Note_on_c, 0, 55, 0
2, 145570, Note_on_c, 0, 54, 83
2, 145606, Note_on_c, 0, 54, 0
2, 145687, Note_on_c, 0, 76, 86
2, 145688, Note_on_c, 0, 67, 82
2, 145695, Note_on_c, 0, 52, 91
2, 145730, Note_on_c, 0, 52, 0
2, 145798, Note_on_c, 0, 50, 83
2, 145833, Note_on_c, 0, 50, 0
2, 145912, Note_on_c, 0, 49, 97
2, 145938, Note_on_c, 0, 49, 0
2, 146017, Note_on_c, 0, 74, 66
2, 146020, Note_on_c, 0, 76, 0
2, 146047, Note_on_c, 0, 74, 0
2, 146130, Note_on_c, 0, 57, 90
2, 146140, Note_on_c, 0, 73, 71
2, 146234, Note_on_c, 0, 71, 74
2, 146237, Note_on_c, 0, 73, 0
2, 146256, Note_on_c, 0, 67, 0
2, 146271, Note_on_c, 0, 71, 0
2, 146352, Note_on_c, 0, 69, 85
2, 146464, Note_on_c, 0, 67, 82
2, 146520, Note_on_c, 0, 69, 0
2, 146574, Note_on_c, 0, 66, 85
2, 146584, Note_on_c, 0, 67, 0
2, 146588, Control_c, 0, 64, 21
2, 146603, Control_c, 0, 64, 20
2, 146619, Control_c, 0, 64, 0
2, 146649, Control_c, 0, 64, 23
2, 146664, Control_c, 0, 64, 32
2, 146669, Note_on_c, 0, 55, 68
2, 146674, Note_on_c, 0, 64, 75
2, 146679, Control_c, 0, 64, 33
2, 146684, Note_on_c, 0, 66, 0
2, 146694, Control_c, 0, 64, 29
2, 146704, Note_on_c, 0, 57, 0
2, 146709, Control_c, 0, 64, 18
2, 146724, Control_c, 0, 64, 24
2, 146726, Note_on_c, 0, 64, 0
2, 146738, Note_on_c, 0, 55, 0
2, 146739, Control_c, 0, 64, 37
2, 146754, Control_c, 0, 64, 42
2, 146769, Control_c, 0, 64, 43
2, 146785, Control_c, 0, 64, 40
2, 146786, Note_on_c, 0, 54, 89
2, 146789, Note_on_c, 0, 69, 88
2, 146791, Note_on_c, 0, 62, 84
2, 146800, Control_c, 0, 64, 35
2, 146814, Note_on_c, 0, 62, 0
2, 146816, Control_c, 0, 64, 39
2, 146822, Note_on_c, 0, 69, 0
2, 146825, Note_on_c, 0, 54, 0
2, 146831, Control_c, 0, 64, 46
2, 146846, Control_c, 0, 64, 47
2, 146861, Control_c, 0, 64, 44
2, 146876, Control_c, 0, 64, 35
2, 146891, Control_c, 0, 64, 32
2, 146894, Note_on_c, 0, 52, 93
2, 146907, Control_c, 0, 64, 39
2, 146921, Control_c, 0, 64, 41
2, 146928, Note_on_c, 0, 52, 0
2, 146937, Control_c, 0, 64, 36
2, 146952, Control_c, 0, 64, 20
2, 146967, Control_c, 0, 64, 0
2, 146993, Note_on_c, 0, 66, 85
2, 146999, Note_on_c, 0, 50, 88
2, 146999, Note_on_c, 0, 74, 82
2, 147037, Note_on_c, 0, 50, 0
2, 147104, Note_on_c, 0, 49, 89
2, 147108, Note_on_c, 0, 66, 0
2, 147143, Note_on_c, 0, 49, 0
2, 147225, Note_on_c, 0, 47, 97
2, 147246, Note_on_c, 0, 47, 0
2, 147314, Note_on_c, 0, 66, 83
2, 147323, Note_on_c, 0, 74, 0
2, 147361, Note_on_c, 0, 66, 0
2, 147445, Note_on_c, 0, 64, 82
2, 147446, Note_on_c, 0, 55, 90
2, 147559, Note_on_c, 0, 74, 76
2, 147673, Note_on_c, 0, 73, 80
2, 147705, Control_c, 0, 64, 54
2, 147714, Note_on_c, 0, 74, 0
2, 147715, Note_on_c, 0, 64, 0
2, 147720, Control_c, 0, 64, 63
2, 147736, Control_c, 0, 64, 65
2, 147750, Control_c, 0, 64, 68
2, 147765, Control_c, 0, 64, 71
2, 147778, Note_on_c, 0, 71, 82
2, 147781, Control_c, 0, 64, 75
2, 147796, Control_c, 0, 64, 79
2, 147810, Note_on_c, 0, 73, 0
2, 147811, Control_c, 0, 64, 81
2, 147826, Control_c, 0, 64, 82
2, 147841, Control_c, 0, 64, 84
2, 147857, Control_c, 0, 64, 85
2, 147872, Control_c, 0, 64, 87
2, 147885, Note_on_c, 0, 70, 89
2, 147887, Control_c, 0, 64, 89
2, 147897, Note_on_c, 0, 55, 0
2, 147901, Note_on_c, 0, 71, 0
2, 147902, Control_c, 0, 64, 90
2, 147917, Control_c, 0, 64, 90
2, 147933, Control_c, 0, 64, 91
2, 147948, Control_c, 0, 64, 91
2, 147953, Note_on_c, 0, 70, 0
2, 147986, Control_c, 0, 64, 92
2, 147995, Note_on_c, 0, 64, 82
2, 148044, Note_on_c, 0, 64, 0
2, 148078, Control_c, 0, 64, 91
2, 148094, Control_c, 0, 64, 88
2, 148107, Note_on_c, 0, 62, 84
2, 148109, Control_c, 0, 64, 78
2, 148110, Note_on_c, 0, 71, 86
2, 148115, Note_on_c, 0, 54, 73
2, 148124, Control_c, 0, 64, 66
2, 148130, Note_on_c, 0, 71, 0
2, 148139, Control_c, 0, 64, 0
2, 148151, Note_on_c, 0, 62, 0
2, 148219, Note_on_c, 0, 61, 83
2, 148251, Note_on_c, 0, 61, 0
2, 148321, Note_on_c, 0, 59, 88
2, 148331, Note_on_c, 0, 73, 87
2, 148359, Note_on_c, 0, 73, 0
2, 148364, Note_on_c, 0, 59, 0
2, 148428, Note_on_c, 0, 58, 82
2, 148470, Note_on_c, 0, 58, 0
2, 148534, Note_on_c, 0, 59, 89
2, 148541, Note_on_c, 0, 74, 86
2, 148561, Note_on_c, 0, 54, 0
2, 148582, Note_on_c, 0, 59, 0
2, 148638, Note_on_c, 0, 52, 83
2, 148672, Note_on_c, 0, 52, 0
2, 148760, Note_on_c, 0, 50, 89
2, 148767, Note_on_c, 0, 66, 88
2, 148804, Note_on_c, 0, 50, 0
2, 148805, Note_on_c, 0, 66, 0
2, 148864, Note_on_c, 0, 49, 81
2, 148905, Note_on_c, 0, 49, 0
2, 148971, Note_on_c, 0, 47, 87
2, 148980, Note_on_c, 0, 71, 83
2, 149029, Note_on_c, 0, 47, 0
2, 149072, Note_on_c, 0, 45, 88
2, 149119, Note_on_c, 0, 45, 0
2, 149186, Note_on_c, 0, 43, 97
2, 149231, Note_on_c, 0, 43, 0
2, 149291, Note_on_c, 0, 73, 82
2, 149314, Note_on_c, 0, 74, 0
2, 149316, Note_on_c, 0, 71, 0
2, 149335, Note_on_c, 0, 73, 0
2, 149405, Note_on_c, 0, 59, 81
2, 149411, Note_on_c, 0, 55, 73
2, 149414, Note_on_c, 0, 74, 90
2, 149433, Note_on_c, 0, 59, 0
2, 149447, Note_on_c, 0, 74, 0
2, 149522, Note_on_c, 0, 76, 94
2, 149564, Note_on_c, 0, 76, 0
2, 149632, Note_on_c, 0, 78, 94
2, 149633, Note_on_c, 0, 64, 76
2, 149659, Note_on_c, 0, 64, 0
2, 149683, Note_on_c, 0, 78, 0
2, 149733, Note_on_c, 0, 79, 80
2, 149776, Note_on_c, 0, 79, 0
2, 149865, Note_on_c, 0, 54, 84
2, 149868, Note_on_c, 0, 70, 86
2, 149890, Note_on_c, 0, 55, 0
2, 149934, Note_on_c, 0, 70, 0
2, 149981, Note_on_c, 0, 67, 81
2, 150036, Note_on_c, 0, 67, 0
2, 150095, Note_on_c, 0, 66, 80
2, 150155, Note_on_c, 0, 66, 0
2, 150188, Note_on_c, 0, 64, 78
2, 150230, Note_on_c, 0, 64, 0
2, 150264, Note_on_c, 0, 54, 0
2, 150313, Note_on_c, 0, 62, 82
2, 150360, Note_on_c, 0, 62, 0
2, 150413, Note_on_c, 0, 61, 80
2, 150469, Note_on_c, 0, 61, 0
2, 150527, Note_on_c, 0, 62, 85
2, 150563, Note_on_c, 0, 62, 0
2, 150621, Note_on_c, 0, 47, 75
2, 150658, Note_on_c, 0, 47, 0
2, 150731, Note_on_c, 0, 49, 77
2, 150741, Note_on_c, 0, 59, 81
2, 150771, Note_on_c, 0, 59, 0
2, 150776, Note_on_c, 0, 49, 0
2, 150843, Note_on_c, 0, 50, 82
2, 150882, Note_on_c, 0, 50, 0
2, 150946, Note_on_c, 0, 58, 83
2, 150947, Note_on_c, 0, 52, 85
2, 150981, Note_on_c, 0, 52, 0
2, 150981, Note_on_c, 0, 58, 0
2, 151048, Note_on_c, 0, 54, 89
2, 151101, Note_on_c, 0, 54, 0
2, 151169, Note_on_c, 0, 55, 91
2, 151169, Note_on_c, 0, 59, 89
2, 151203, Note_on_c, 0, 55, 0
2, 151205, Note_on_c, 0, 59, 0
2, 151383, Note_on_c, 0, 61, 79
2, 151388, Note_on_c, 0, 52, 88
2, 151426, Note_on_c, 0, 52, 0
2, 151430, Note_on_c, 0, 61, 0
2, 151487, Note_on_c, 0, 63, 81
2, 151539, Note_on_c, 0, 63, 0
2, 151588, Note_on_c, 0, 64, 83
2, 151600, Note_on_c, 0, 51, 82
2, 151635, Note_on_c, 0, 64, 0
2, 151650, Note_on_c, 0, 51, 0
2, 151682, Note_on_c, 0, 66, 88
2, 151740, Note_on_c, 0, 66, 0
2, 151804, Note_on_c, 0, 67, 95
2, 151805, Note_on_c, 0, 52, 83
2, 151838, Note_on_c, 0, 52, 0
2, 151845, Note_on_c, 0, 67, 0
2, 152022, Note_on_c, 0, 54, 72
2, 152034, Note_on_c, 0, 64, 92
2, 152063, Note_on_c, 0, 64, 0
2, 152066, Note_on_c, 0, 54, 0
2, 152128, Note_on_c, 0, 55, 85
2, 152169, Note_on_c, 0, 55, 0
2, 152232, Note_on_c, 0, 57, 84
2, 152236, Note_on_c, 0, 63, 94
2, 152266, Note_on_c, 0, 63, 0
2, 152276, Note_on_c, 0, 57, 0
2, 152335, Note_on_c, 0, 59, 90
2, 152372, Note_on_c, 0, 59, 0
2, 152444, Note_on_c, 0, 64, 93
2, 152447, Note_on_c, 0, 60, 94
2, 152476, Note_on_c, 0, 60, 0
2, 152481, Note_on_c, 0, 64, 0
2, 152553, Note_on_c, 0, 79, 76
2, 152603, Note_on_c, 0, 79, 0
2, 152674, Note_on_c, 0, 48, 90
2, 152678, Note_on_c, 0, 69, 84
2, 152708, Note_on_c, 0, 48, 0
2, 152722, Note_on_c, 0, 69, 0
2, 152786, Note_on_c, 0, 79, 73
2, 152851, Note_on_c, 0, 79, 0
2, 152882, Control_c, 0, 64, 17
2, 152890, Note_on_c, 0, 64, 78
2, 152892, Note_on_c, 0, 60, 79
2, 152894, Note_on_c, 0, 69, 77
2, 152898, Control_c, 0, 64, 15
2, 152913, Control_c, 0, 64, 0
2, 152915, Note_on_c, 0, 60, 0
2, 152921, Note_on_c, 0, 64, 0
2, 152954, Note_on_c, 0, 69, 0
2, 152958, Control_c, 0, 64, 13
2, 152975, Control_c, 0, 64, 18
2, 152990, Control_c, 0, 64, 13
2, 152997, Note_on_c, 0, 78, 74
2, 153005, Control_c, 0, 64, 0
2, 153050, Control_c, 0, 64, 10
2, 153066, Control_c, 0, 64, 13
2, 153081, Control_c, 0, 64, 0
2, 153091, Note_on_c, 0, 78, 0
2, 153107, Note_on_c, 0, 63, 82
2, 153108, Note_on_c, 0, 59, 82
2, 153109, Note_on_c, 0, 67, 87
2, 153128, Note_on_c, 0, 63, 0
2, 153142, Control_c, 0, 64, 23
2, 153142, Note_on_c, 0, 59, 0
2, 153157, Control_c, 0, 64, 18
2, 153158, Note_on_c, 0, 67, 0
2, 153172, Control_c, 0, 64, 0
2, 153207, Note_on_c, 0, 78, 74
2, 153218, Control_c, 0, 64, 20
2, 153233, Control_c, 0, 64, 21
2, 153248, Control_c, 0, 64, 0
2, 153303, Note_on_c, 0, 78, 0
2, 153309, Control_c, 0, 64, 20
2, 153324, Control_c, 0, 64, 17
2, 153327, Note_on_c, 0, 47, 82
2, 153330, Note_on_c, 0, 67, 80
2, 153337, Control_c, 0, 64, 0
2, 153359, Note_on_c, 0, 47, 0
2, 153387, Note_on_c, 0, 67, 0
2, 153444, Note_on_c, 0, 78, 71
2, 153481, Control_c, 0, 64, 17
2, 153496, Control_c, 0, 64, 15
2, 153512, Control_c, 0, 64, 0
2, 153539, Note_on_c, 0, 78, 0
2, 153548, Note_on_c, 0, 64, 74
2, 153552, Note_on_c, 0, 59, 75
2, 153555, Note_on_c, 0, 67, 82
2, 153558, Control_c, 0, 64, 17
2, 153573, Control_c, 0, 64, 18
2, 153573, Note_on_c, 0, 64, 0
2, 153585, Note_on_c, 0, 59, 0
2, 153588, Control_c, 0, 64, 10
2, 153603, Control_c, 0, 64, 0
2, 153606, Note_on_c, 0, 67, 0
2, 153634, Control_c, 0, 64, 13
2, 153649, Control_c, 0, 64, 26
2, 153664, Note_on_c, 0, 76, 73
2, 153665, Control_c, 0, 64, 27
2, 153680, Control_c, 0, 64, 20
2, 153695, Control_c, 0, 64, 0
2, 153711, Control_c, 0, 64, 25
2, 153725, Control_c, 0, 64, 37
2, 153741, Control_c, 0, 64, 43
2, 153747, Note_on_c, 0, 76, 0
2, 153756, Control_c, 0, 64, 41
2, 153768, Note_on_c, 0, 66, 84
2, 153771, Control_c, 0, 64, 31
2, 153777, Note_on_c, 0, 57, 79
2, 153787, Control_c, 0, 64, 26
2, 153802, Control_c, 0, 64, 35
2, 153805, Note_on_c, 0, 57, 0
2, 153817, Control_c, 0, 64, 39
2, 153833, Control_c, 0, 64, 38
2, 153848, Control_c, 0, 64, 28
2, 153864, Control_c, 0, 64, 0
2, 153885, Note_on_c, 0, 76, 71
2, 153893, Control_c, 0, 64, 36
2, 153909, Control_c, 0, 64, 42
2, 153924, Control_c, 0, 64, 38
2, 153936, Note_on_c, 0, 76, 0
2, 153939, Control_c, 0, 64, 27
2, 153954, Control_c, 0, 64, 17
2, 153960, Note_on_c, 0, 66, 0
2, 153969, Control_c, 0, 64, 34
2, 153974, Note_on_c, 0, 59, 72
2, 153979, Note_on_c, 0, 66, 39
2, 153985, Control_c, 0, 64, 46
2, 153989, Note_on_c, 0, 75, 73
2, 154000, Control_c, 0, 64, 45
2, 154015, Control_c, 0, 64, 36
2, 154016, Note_on_c, 0, 59, 0
2, 154030, Control_c, 0, 64, 13
2, 154032, Note_on_c, 0, 66, 0
2, 154045, Control_c, 0, 64, 25
2, 154052, Note_on_c, 0, 75, 0
2, 154061, Control_c, 0, 64, 43
2, 154075, Control_c, 0, 64, 46
2, 154080, Note_on_c, 0, 57, 69
2, 154090, Control_c, 0, 64, 43
2, 154092, Note_on_c, 0, 78, 76
2, 154106, Control_c, 0, 64, 36
2, 154107, Note_on_c, 0, 66, 23
2, 154113, Note_on_c, 0, 57, 0
2, 154121, Control_c, 0, 64, 27
2, 154138, Note_on_c, 0, 66, 0
2, 154145, Control_c, 0, 64, 30
2, 154159, Control_c, 0, 64, 34
2, 154173, Note_on_c, 0, 78, 0
2, 154174, Control_c, 0, 64, 32
2, 154190, Control_c, 0, 64, 15
2, 154197, Note_on_c, 0, 55, 74
2, 154205, Control_c, 0, 64, 0
2, 154218, Note_on_c, 0, 71, 68
2, 154235, Control_c, 0, 64, 21
2, 154242, Note_on_c, 0, 55, 0
2, 154243, Note_on_c, 0, 71, 0
2, 154250, Control_c, 0, 64, 26
2, 154266, Control_c, 0, 64, 13
2, 154280, Control_c, 0, 64, 0
2, 154306, Note_on_c, 0, 54, 51
2, 154319, Note_on_c, 0, 75, 63
2, 154326, Control_c, 0, 64, 10
2, 154344, Note_on_c, 0, 54, 0
2, 154352, Note_on_c, 0, 75, 0
2, 154356, Control_c, 0, 64, 0
2, 154405, Note_on_c, 0, 59, 68
2, 154406, Note_on_c, 0, 55, 72
2, 154417, Control_c, 0, 64, 20
2, 154422, Note_on_c, 0, 76, 78
2, 154432, Control_c, 0, 64, 13
2, 154434, Note_on_c, 0, 59, 0
2, 154435, Note_on_c, 0, 55, 0
2, 154447, Control_c, 0, 64, 0
2, 154459, Note_on_c, 0, 76, 0
2, 154493, Control_c, 0, 64, 18
2, 154509, Control_c, 0, 64, 21
2, 154515, Note_on_c, 0, 75, 81
2, 154524, Control_c, 0, 64, 0
2, 154559, Note_on_c, 0, 75, 0
2, 154569, Control_c, 0, 64, 21
2, 154585, Control_c, 0, 64, 37
2, 154600, Control_c, 0, 64, 39
2, 154615, Control_c, 0, 64, 31
2, 154621, Note_on_c, 0, 43, 82
2, 154630, Note_on_c, 0, 76, 83
2, 154631, Control_c, 0, 64, 0
2, 154651, Note_on_c, 0, 43, 0
2, 154662, Control_c, 0, 64, 34
2, 154674, Note_on_c, 0, 76, 0
2, 154677, Control_c, 0, 64, 45
2, 154692, Control_c, 0, 64, 44
2, 154708, Control_c, 0, 64, 37
2, 154722, Control_c, 0, 64, 21
2, 154722, Note_on_c, 0, 79, 80
2, 154737, Control_c, 0, 64, 23
2, 154753, Control_c, 0, 64, 32
2, 154764, Note_on_c, 0, 79, 0
2, 154784, Control_c, 0, 64, 0
2, 154834, Note_on_c, 0, 64, 76
2, 154837, Note_on_c, 0, 55, 71
2, 154842, Note_on_c, 0, 83, 81
2, 154906, Note_on_c, 0, 83, 0
2, 154927, Control_c, 0, 64, 51
2, 154943, Control_c, 0, 64, 60
2, 154956, Note_on_c, 0, 74, 75
2, 154958, Control_c, 0, 64, 62
2, 154973, Control_c, 0, 64, 64
2, 154989, Control_c, 0, 64, 66
2, 155001, Note_on_c, 0, 74, 0
2, 155003, Control_c, 0, 64, 68
2, 155018, Control_c, 0, 64, 71
2, 155034, Control_c, 0, 64, 74
2, 155049, Control_c, 0, 64, 77
2, 155065, Control_c, 0, 64, 78
2, 155072, Note_on_c, 0, 69, 79
2, 155072, Note_on_c, 0, 73, 78
2, 155079, Control_c, 0, 64, 79
2, 155094, Control_c, 0, 64, 80
2, 155098, Note_on_c, 0, 69, 0
2, 155109, Note_on_c, 0, 64, 0
2, 155110, Control_c, 0, 64, 81
2, 155131, Note_on_c, 0, 73, 0
2, 155169, Control_c, 0, 64, 82
2, 155174, Note_on_c, 0, 71, 77
2, 155175, Note_on_c, 0, 55, 0
2, 155200, Control_c, 0, 64, 82
2, 155224, Note_on_c, 0, 71, 0
2, 155283, Note_on_c, 0, 57, 75
2, 155285, Note_on_c, 0, 73, 79
2, 155291, Control_c, 0, 64, 82
2, 155307, Control_c, 0, 64, 79
2, 155319, Note_on_c, 0, 57, 0
2, 155322, Control_c, 0, 64, 73
2, 155336, Control_c, 0, 64, 64
2, 155344, Note_on_c, 0, 73, 0
2, 155352, Control_c, 0, 64, 0
2, 155373, Note_on_c, 0, 55, 77
2, 155390, Note_on_c, 0, 76, 78
2, 155415, Note_on_c, 0, 55, 0
2, 155433, Note_on_c, 0, 76, 0
2, 155487, Note_on_c, 0, 54, 81
2, 155496, Note_on_c, 0, 69, 88
2, 155529, Note_on_c, 0, 54, 0
2, 155532, Note_on_c, 0, 69, 0
2, 155594, Note_on_c, 0, 52, 82
2, 155594, Note_on_c, 0, 73, 84
2, 155626, Note_on_c, 0, 52, 0
2, 155637, Note_on_c, 0, 73, 0
2, 155715, Note_on_c, 0, 74, 88
2, 155718, Note_on_c, 0, 57, 81
2, 155721, Note_on_c, 0, 54, 83
2, 155744, Note_on_c, 0, 57, 0
2, 155752, Note_on_c, 0, 54, 0
2, 155753, Note_on_c, 0, 74, 0
2, 155823, Note_on_c, 0, 73, 87
2, 155857, Note_on_c, 0, 73, 0
2, 155933, Note_on_c, 0, 42, 93
2, 155936, Note_on_c, 0, 74, 92
2, 155961, Note_on_c, 0, 42, 0
2, 155978, Note_on_c, 0, 74, 0
2, 156040, Note_on_c, 0, 78, 92
2, 156089, Note_on_c, 0, 78, 0
2, 156154, Note_on_c, 0, 62, 86
2, 156155, Note_on_c, 0, 81, 85
2, 156159, Note_on_c, 0, 54, 82
2, 156198, Note_on_c, 0, 81, 0
2, 156264, Note_on_c, 0, 73, 86
2, 156310, Note_on_c, 0, 73, 0
2, 156375, Note_on_c, 0, 67, 89
2, 156381, Note_on_c, 0, 71, 85
2, 156449, Note_on_c, 0, 71, 0
2, 156498, Note_on_c, 0, 70, 82
2, 156523, Control_c, 0, 64, 27
2, 156538, Control_c, 0, 64, 20
2, 156538, Note_on_c, 0, 54, 0
2, 156553, Note_on_c, 0, 70, 0
2, 156554, Control_c, 0, 64, 0
2, 156600, Control_c, 0, 64, 18
2, 156613, Note_on_c, 0, 71, 81
2, 156614, Control_c, 0, 64, 23
2, 156616, Note_on_c, 0, 52, 73
2, 156630, Control_c, 0, 64, 0
2, 156656, Note_on_c, 0, 71, 0
2, 156658, Note_on_c, 0, 52, 0
2, 156731, Note_on_c, 0, 74, 63
2, 156756, Note_on_c, 0, 74, 0
2, 156837, Note_on_c, 0, 50, 68
2, 156837, Note_on_c, 0, 73, 77
2, 156854, Note_on_c, 0, 62, 0
2, 156879, Note_on_c, 0, 67, 0
2, 156881, Note_on_c, 0, 73, 0
2, 156898, Note_on_c, 0, 50, 0
2, 156942, Note_on_c, 0, 71, 78
2, 156987, Note_on_c, 0, 71, 0
2, 157056, Note_on_c, 0, 49, 68
2, 157056, Note_on_c, 0, 70, 82
2, 157102, Note_on_c, 0, 70, 0
2, 157105, Note_on_c, 0, 49, 0
2, 157164, Note_on_c, 0, 71, 78
2, 157168, Note_on_c, 0, 50, 67
2, 157218, Note_on_c, 0, 71, 0
2, 157224, Note_on_c, 0, 50, 0
2, 157276, Note_on_c, 0, 73, 83
2, 157281, Note_on_c, 0, 52, 75
2, 157321, Note_on_c, 0, 52, 0
2, 157331, Note_on_c, 0, 73, 0
2, 157376, Note_on_c, 0, 54, 75
2, 157381, Note_on_c, 0, 74, 80
2, 157421, Note_on_c, 0, 54, 0
2, 157432, Note_on_c, 0, 74, 0
2, 157488, Note_on_c, 0, 55, 74
2, 157496, Note_on_c, 0, 76, 80
2, 157532, Note_on_c, 0, 55, 0
2, 157591, Note_on_c, 0, 67, 84
2, 157594, Note_on_c, 0, 47, 78
2, 157631, Note_on_c, 0, 67, 0
2, 157633, Note_on_c, 0, 47, 0
2, 157712, Note_on_c, 0, 46, 85
2, 157715, Note_on_c, 0, 66, 92
2, 157732, Control_c, 0, 64, 15
2, 157748, Control_c, 0, 64, 0
2, 157748, Note_on_c, 0, 66, 0
2, 157773, Note_on_c, 0, 46, 0
2, 157817, Note_on_c, 0, 55, 79
2, 157863, Note_on_c, 0, 55, 0
2, 157921, Note_on_c, 0, 76, 0
2, 157926, Note_on_c, 0, 70, 79
2, 157927, Note_on_c, 0, 54, 83
2, 157931, Note_on_c, 0, 73, 82
2, 157978, Note_on_c, 0, 54, 0
2, 157989, Note_on_c, 0, 73, 0
2, 158043, Note_on_c, 0, 52, 83
2, 158080, Note_on_c, 0, 52, 0
2, 158152, Note_on_c, 0, 70, 0
2, 158153, Note_on_c, 0, 50, 86
2, 158165, Note_on_c, 0, 78, 91
2, 158190, Note_on_c, 0, 50, 0
2, 158268, Note_on_c, 0, 49, 84
2, 158315, Note_on_c, 0, 49, 0
2, 158370, Note_on_c, 0, 78, 0
2, 158375, Note_on_c, 0, 47, 85
2, 158386, Note_on_c, 0, 71, 91
2, 158386, Note_on_c, 0, 74, 87
2, 158407, Note_on_c, 0, 71, 0
2, 158415, Note_on_c, 0, 74, 0
2, 158427, Note_on_c, 0, 47, 0
2, 158492, Note_on_c, 0, 49, 81
2, 158548, Note_on_c, 0, 49, 0
2, 158602, Note_on_c, 0, 50, 80
2, 158608, Note_on_c, 0, 71, 93
2, 158636, Note_on_c, 0, 50, 0
2, 158638, Note_on_c, 0, 71, 0
2, 158703, Note_on_c, 0, 52, 78
2, 158754, Note_on_c, 0, 52, 0
2, 158767, Control_c, 0, 64, 10
2, 158783, Control_c, 0, 64, 0
2, 158813, Note_on_c, 0, 54, 78
2, 158829, Note_on_c, 0, 70, 92
2, 158844, Control_c, 0, 64, 15
2, 158859, Control_c, 0, 64, 21
2, 158859, Note_on_c, 0, 70, 0
2, 158863, Note_on_c, 0, 54, 0
2, 158874, Control_c, 0, 64, 0
2, 158931, Note_on_c, 0, 52, 82
2, 158985, Note_on_c, 0, 52, 0
2, 159033, Note_on_c, 0, 50, 78
2, 159050, Note_on_c, 0, 71, 84
2, 159080, Note_on_c, 0, 50, 0
2, 159081, Note_on_c, 0, 71, 0
2, 159144, Note_on_c, 0, 54, 77
2, 159183, Note_on_c, 0, 54, 0
2, 159252, Note_on_c, 0, 73, 85
2, 159253, Note_on_c, 0, 52, 81
2, 159283, Note_on_c, 0, 73, 0
2, 159288, Note_on_c, 0, 52, 0
2, 159352, Note_on_c, 0, 50, 70
2, 159357, Note_on_c, 0, 74, 82
2, 159393, Note_on_c, 0, 74, 0
2, 159400, Note_on_c, 0, 50, 0
2, 159464, Note_on_c, 0, 49, 74
2, 159465, Note_on_c, 0, 76, 87
2, 159512, Note_on_c, 0, 76, 0
2, 159527, Note_on_c, 0, 49, 0
2, 159570, Note_on_c, 0, 78, 90
2, 159574, Note_on_c, 0, 47, 73
2, 159607, Note_on_c, 0, 47, 0
2, 159616, Note_on_c, 0, 78, 0
2, 159684, Note_on_c, 0, 52, 88
2, 159687, Note_on_c, 0, 79, 92
2, 159709, Note_on_c, 0, 52, 0
2, 159729, Note_on_c, 0, 79, 0
2, 159792, Note_on_c, 0, 74, 77
2, 159807, Control_c, 0, 64, 10
2, 159822, Note_on_c, 0, 74, 0
2, 159823, Control_c, 0, 64, 0
2, 159898, Control_c, 0, 64, 10
2, 159911, Note_on_c, 0, 67, 84
2, 159914, Control_c, 0, 64, 0
2, 159914, Note_on_c, 0, 64, 70
2, 159943, Note_on_c, 0, 64, 0
2, 159951, Note_on_c, 0, 67, 0
2, 159975, Control_c, 0, 64, 24
2, 159991, Control_c, 0, 64, 15
2, 160005, Control_c, 0, 64, 0
2, 160011, Note_on_c, 0, 74, 78
2, 160048, Note_on_c, 0, 74, 0
2, 160122, Note_on_c, 0, 79, 86
2, 160123, Note_on_c, 0, 64, 77
2, 160127, Note_on_c, 0, 57, 72
2, 160143, Control_c, 0, 64, 32
2, 160148, Note_on_c, 0, 64, 0
2, 160153, Note_on_c, 0, 57, 0
2, 160158, Control_c, 0, 64, 34
2, 160170, Note_on_c, 0, 79, 0
2, 160172, Control_c, 0, 64, 21
2, 160188, Control_c, 0, 64, 0
2, 160234, Control_c, 0, 64, 13
2, 160238, Note_on_c, 0, 73, 73
2, 160272, Control_c, 0, 64, 0
2, 160278, Note_on_c, 0, 73, 0
2, 160318, Control_c, 0, 64, 15
2, 160332, Control_c, 0, 64, 32
2, 160348, Control_c, 0, 64, 29
2, 160357, Note_on_c, 0, 78, 86
2, 160362, Note_on_c, 0, 62, 78
2, 160363, Control_c, 0, 64, 0
2, 160363, Note_on_c, 0, 50, 73
2, 160392, Note_on_c, 0, 62, 0
2, 160395, Note_on_c, 0, 50, 0
2, 160409, Control_c, 0, 64, 21
2, 160413, Note_on_c, 0, 78, 0
2, 160425, Control_c, 0, 64, 23
2, 160440, Control_c, 0, 64, 0
2, 160467, Note_on_c, 0, 73, 79
2, 160509, Note_on_c, 0, 73, 0
2, 160577, Control_c, 0, 64, 24
2, 160585, Note_on_c, 0, 66, 87
2, 160590, Note_on_c, 0, 62, 73
2, 160593, Control_c, 0, 64, 23
2, 160608, Control_c, 0, 64, 0
2, 160615, Note_on_c, 0, 66, 0
2, 160626, Note_on_c, 0, 62, 0
2, 160682, Note_on_c, 0, 73, 78
2, 160732, Note_on_c, 0, 73, 0
2, 160793, Note_on_c, 0, 78, 83
2, 160799, Note_on_c, 0, 62, 72
2, 160809, Note_on_c, 0, 55, 58
2, 160829, Note_on_c, 0, 62, 0
2, 160837, Note_on_c, 0, 55, 0
2, 160855, Note_on_c, 0, 78, 0
2, 160902, Note_on_c, 0, 71, 82
2, 160935, Note_on_c, 0, 71, 0
2, 161008, Note_on_c, 0, 61, 69
2, 161011, Note_on_c, 0, 49, 67
2, 161014, Note_on_c, 0, 76, 83
2, 161048, Note_on_c, 0, 61, 0
2, 161055, Note_on_c, 0, 49, 0
2, 161064, Note_on_c, 0, 76, 0
2, 161134, Note_on_c, 0, 59, 75
2, 161159, Note_on_c, 0, 59, 0
2, 161240, Note_on_c, 0, 78, 75
2, 161244, Note_on_c, 0, 73, 73
2, 161254, Note_on_c, 0, 58, 77
2, 161271, Note_on_c, 0, 73, 0
2, 161289, Note_on_c, 0, 58, 0
2, 161353, Note_on_c, 0, 61, 70
2, 161355, Note_on_c, 0, 76, 69
2, 161385, Note_on_c, 0, 61, 0
2, 161412, Note_on_c, 0, 76, 0
2, 161425, Note_on_c, 0, 78, 0
2, 161462, Note_on_c, 0, 74, 77
2, 161467, Note_on_c, 0, 54, 63
2, 161501, Note_on_c, 0, 54, 0
2, 161501, Note_on_c, 0, 74, 0
2, 161561, Note_on_c, 0, 73, 81
2, 161563, Note_on_c, 0, 58, 64
2, 161593, Note_on_c, 0, 58, 0
2, 161593, Note_on_c, 0, 73, 0
2, 161674, Note_on_c, 0, 47, 77
2, 161681, Note_on_c, 0, 74, 76
2, 161702, Note_on_c, 0, 74, 0
2, 161706, Note_on_c, 0, 47, 0
2, 161778, Note_on_c, 0, 59, 58
2, 161822, Note_on_c, 0, 59, 0
2, 161898, Note_on_c, 0, 49, 66
2, 161902, Note_on_c, 0, 76, 77
2, 161903, Note_on_c, 0, 71, 71
2, 161923, Note_on_c, 0, 76, 0
2, 161927, Note_on_c, 0, 71, 0
2, 161944, Note_on_c, 0, 49, 0
2, 162001, Note_on_c, 0, 59, 61
2, 162040, Note_on_c, 0, 59, 0
2, 162120, Note_on_c, 0, 50, 66
2, 162123, Note_on_c, 0, 78, 78
2, 162129, Note_on_c, 0, 69, 75
2, 162155, Note_on_c, 0, 69, 0
2, 162170, Note_on_c, 0, 50, 0
2, 162229, Note_on_c, 0, 59, 57
2, 162270, Note_on_c, 0, 59, 0
2, 162339, Note_on_c, 0, 52, 70
2, 162342, Note_on_c, 0, 67, 83
2, 162375, Note_on_c, 0, 67, 0
2, 162384, Note_on_c, 0, 52, 0
2, 162451, Note_on_c, 0, 59, 58
2, 162463, Control_c, 0, 64, 25
2, 162478, Control_c, 0, 64, 24
2, 162492, Control_c, 0, 64, 0
2, 162538, Control_c, 0, 64, 24
2, 162542, Note_on_c, 0, 59, 0
2, 162554, Control_c, 0, 64, 28
2, 162561, Note_on_c, 0, 54, 68
2, 162562, Note_on_c, 0, 69, 73
2, 162566, Note_on_c, 0, 76, 70
2, 162576, Control_c, 0, 64, 18
2, 162590, Note_on_c, 0, 78, 0
2, 162592, Control_c, 0, 64, 0
2, 162592, Note_on_c, 0, 69, 0
2, 162597, Note_on_c, 0, 76, 0
2, 162616, Note_on_c, 0, 54, 0
2, 162623, Control_c, 0, 64, 15
2, 162637, Control_c, 0, 64, 24
2, 162652, Control_c, 0, 64, 20
2, 162668, Control_c, 0, 64, 0
2, 162690, Note_on_c, 0, 59, 52
2, 162728, Control_c, 0, 64, 10
2, 162744, Control_c, 0, 64, 0
2, 162757, Note_on_c, 0, 59, 0
2, 162782, Note_on_c, 0, 55, 62
2, 162785, Note_on_c, 0, 71, 66
2, 162785, Note_on_c, 0, 74, 68
2, 162812, Note_on_c, 0, 74, 0
2, 162816, Note_on_c, 0, 55, 0
2, 162882, Note_on_c, 0, 59, 60
2, 162925, Note_on_c, 0, 59, 0
2, 163002, Note_on_c, 0, 73, 70
2, 163008, Note_on_c, 0, 45, 64
2, 163028, Note_on_c, 0, 73, 0
2, 163050, Note_on_c, 0, 45, 0
2, 163114, Note_on_c, 0, 57, 57
2, 163157, Note_on_c, 0, 57, 0
2, 163212, Note_on_c, 0, 71, 0
2, 163223, Note_on_c, 0, 47, 64
2, 163228, Note_on_c, 0, 74, 69
2, 163230, Note_on_c, 0, 69, 73
2, 163252, Note_on_c, 0, 74, 0
2, 163255, Note_on_c, 0, 69, 0
2, 163267, Note_on_c, 0, 47, 0
2, 163329, Note_on_c, 0, 57, 58
2, 163411, Note_on_c, 0, 57, 0
2, 163448, Note_on_c, 0, 49, 62
2, 163457, Note_on_c, 0, 76, 72
2, 163458, Note_on_c, 0, 67, 66
2, 163485, Note_on_c, 0, 67, 0
2, 163515, Note_on_c, 0, 49, 0
2, 163555, Note_on_c, 0, 57, 58
2, 163608, Note_on_c, 0, 57, 0
2, 163675, Note_on_c, 0, 66, 80
2, 163676, Note_on_c, 0, 50, 67
2, 163694, Note_on_c, 0, 76, 0
2, 163705, Note_on_c, 0, 66, 0
2, 163730, Note_on_c, 0, 50, 0
2, 163785, Note_on_c, 0, 57, 57
2, 163838, Note_on_c, 0, 57, 0
2, 163888, Note_on_c, 0, 52, 65
2, 163889, Note_on_c, 0, 67, 76
2, 163891, Note_on_c, 0, 74, 68
2, 163912, Note_on_c, 0, 67, 0
2, 163920, Note_on_c, 0, 74, 0
2, 163934, Note_on_c, 0, 52, 0
2, 163997, Note_on_c, 0, 57, 60
2, 164058, Note_on_c, 0, 57, 0
2, 164112, Note_on_c, 0, 69, 72
2, 164116, Note_on_c, 0, 73, 68
2, 164119, Note_on_c, 0, 54, 63
2, 164157, Note_on_c, 0, 73, 0
2, 164172, Note_on_c, 0, 54, 0
2, 164217, Note_on_c, 0, 57, 61
2, 164278, Note_on_c, 0, 57, 0
2, 164328, Note_on_c, 0, 71, 67
2, 164333, Note_on_c, 0, 55, 70
2, 164388, Note_on_c, 0, 55, 0
2, 164439, Note_on_c, 0, 59, 65
2, 164480, Note_on_c, 0, 59, 0
2, 164546, Note_on_c, 0, 57, 67
2, 164550, Note_on_c, 0, 62, 69
2, 164581, Note_on_c, 0, 62, 0
2, 164590, Note_on_c, 0, 57, 0
2, 164647, Note_on_c, 0, 55, 69
2, 164674, Note_on_c, 0, 69, 0
2, 164705, Note_on_c, 0, 55, 0
2, 164758, Note_on_c, 0, 73, 66
2, 164763, Note_on_c, 0, 67, 62
2, 164767, Note_on_c, 0, 54, 65
2, 164784, Note_on_c, 0, 71, 0
2, 164795, Note_on_c, 0, 73, 0
2, 164804, Note_on_c, 0, 54, 0
2, 164883, Note_on_c, 0, 52, 69
2, 164931, Note_on_c, 0, 52, 0
2, 164993, Note_on_c, 0, 74, 69
2, 165000, Note_on_c, 0, 54, 70
2, 165014, Note_on_c, 0, 67, 0
2, 165047, Note_on_c, 0, 54, 0
2, 165103, Note_on_c, 0, 57, 68
2, 165144, Note_on_c, 0, 57, 0
2, 165220, Note_on_c, 0, 62, 68
2, 165220, Note_on_c, 0, 69, 74
2, 165222, Note_on_c, 0, 66, 76
2, 165229, Control_c, 0, 64, 10
2, 165244, Control_c, 0, 64, 17
2, 165247, Note_on_c, 0, 66, 0
2, 165249, Note_on_c, 0, 74, 0
2, 165256, Note_on_c, 0, 69, 0
2, 165259, Control_c, 0, 64, 0
2, 165262, Note_on_c, 0, 62, 0
2, 165321, Control_c, 0, 64, 17
2, 165322, Note_on_c, 0, 57, 65
2, 165335, Control_c, 0, 64, 0
2, 165360, Note_on_c, 0, 57, 0
2, 165412, Control_c, 0, 64, 10
2, 165428, Control_c, 0, 64, 0
2, 165434, Note_on_c, 0, 71, 75
2, 165438, Note_on_c, 0, 56, 70
2, 165439, Note_on_c, 0, 65, 71
2, 165476, Note_on_c, 0, 71, 0
2, 165485, Note_on_c, 0, 56, 0
2, 165488, Control_c, 0, 64, 10
2, 165518, Control_c, 0, 64, 0
2, 165543, Note_on_c, 0, 62, 70
2, 165564, Control_c, 0, 64, 10
2, 165579, Control_c, 0, 64, 25
2, 165592, Note_on_c, 0, 62, 0
2, 165594, Control_c, 0, 64, 13
2, 165609, Control_c, 0, 64, 0
2, 165652, Note_on_c, 0, 57, 76
2, 165657, Note_on_c, 0, 72, 82
2, 165662, Control_c, 0, 64, 23
2, 165678, Control_c, 0, 64, 21
2, 165687, Note_on_c, 0, 72, 0
2, 165689, Note_on_c, 0, 65, 0
2, 165693, Control_c, 0, 64, 0
2, 165709, Note_on_c, 0, 57, 0
2, 165758, Note_on_c, 0, 60, 74
2, 165799, Note_on_c, 0, 60, 0
2, 165863, Note_on_c, 0, 59, 69
2, 165873, Note_on_c, 0, 73, 75
2, 165875, Note_on_c, 0, 64, 72
2, 165901, Note_on_c, 0, 64, 0
2, 165914, Note_on_c, 0, 73, 0
2, 165917, Note_on_c, 0, 59, 0
2, 165962, Note_on_c, 0, 57, 76
2, 166030, Note_on_c, 0, 57, 0
2, 166074, Note_on_c, 0, 69, 59
2, 166076, Note_on_c, 0, 55, 70
2, 166088, Note_on_c, 0, 75, 73
2, 166121, Note_on_c, 0, 75, 0
2, 166126, Note_on_c, 0, 55, 0
2, 166185, Note_on_c, 0, 54, 74
2, 166244, Note_on_c, 0, 54, 0
2, 166298, Note_on_c, 0, 69, 0
2, 166304, Note_on_c, 0, 55, 76
2, 166309, Note_on_c, 0, 76, 81
2, 166352, Note_on_c, 0, 55, 0
2, 166407, Note_on_c, 0, 59, 82
2, 166451, Note_on_c, 0, 59, 0
2, 166528, Note_on_c, 0, 64, 75
2, 166533, Note_on_c, 0, 68, 82
2, 166533, Note_on_c, 0, 71, 79
2, 166557, Note_on_c, 0, 68, 0
2, 166562, Note_on_c, 0, 76, 0
2, 166567, Note_on_c, 0, 71, 0
2, 166585, Note_on_c, 0, 64, 0
2, 166629, Note_on_c, 0, 59, 75
2, 166684, Note_on_c, 0, 59, 0
2, 166738, Note_on_c, 0, 67, 82
2, 166741, Note_on_c, 0, 58, 80
2, 166741, Note_on_c, 0, 73, 81
2, 166790, Note_on_c, 0, 73, 0
2, 166794, Control_c, 0, 64, 17
2, 166800, Note_on_c, 0, 58, 0
2, 166809, Control_c, 0, 64, 10
2, 166824, Control_c, 0, 64, 0
2, 166848, Note_on_c, 0, 64, 80
2, 166871, Control_c, 0, 64, 18
2, 166885, Control_c, 0, 64, 21
2, 166901, Control_c, 0, 64, 0
2, 166913, Note_on_c, 0, 64, 0
2, 166950, Note_on_c, 0, 59, 86
2, 166962, Control_c, 0, 64, 23
2, 166969, Note_on_c, 0, 74, 80
2, 166993, Control_c, 0, 64, 0
2, 167003, Note_on_c, 0, 59, 0
2, 167005, Note_on_c, 0, 67, 0
2, 167015, Note_on_c, 0, 74, 0
2, 167053, Control_c, 0, 64, 20
2, 167057, Note_on_c, 0, 62, 84
2, 167069, Control_c, 0, 64, 18
2, 167084, Control_c, 0, 64, 0
2, 167122, Note_on_c, 0, 62, 0
2, 167130, Control_c, 0, 64, 17
2, 167145, Control_c, 0, 64, 24
2, 167160, Control_c, 0, 64, 17
2, 167167, Note_on_c, 0, 61, 88
2, 167173, Note_on_c, 0, 66, 89
2, 167182, Control_c, 0, 64, 0
2, 167184, Note_on_c, 0, 75, 81
2, 167210, Note_on_c, 0, 66, 0
2, 167212, Note_on_c, 0, 75, 0
2, 167222, Note_on_c, 0, 61, 0
2, 167228, Control_c, 0, 64, 20
2, 167258, Control_c, 0, 64, 0
2, 167280, Note_on_c, 0, 59, 87
2, 167334, Note_on_c, 0, 59, 0
2, 167389, Note_on_c, 0, 58, 92
2, 167389, Note_on_c, 0, 77, 79
2, 167392, Note_on_c, 0, 71, 78
2, 167412, Control_c, 0, 64, 18
2, 167429, Control_c, 0, 64, 0
2, 167444, Note_on_c, 0, 58, 0
2, 167446, Note_on_c, 0, 77, 0
2, 167490, Control_c, 0, 64, 18
2, 167497, Note_on_c, 0, 56, 88
2, 167505, Control_c, 0, 64, 30
2, 167520, Control_c, 0, 64, 23
2, 167535, Control_c, 0, 64, 0
2, 167553, Note_on_c, 0, 56, 0
2, 167581, Control_c, 0, 64, 33
2, 167596, Control_c, 0, 64, 37
2, 167599, Note_on_c, 0, 71, 0
2, 167607, Note_on_c, 0, 78, 86
2, 167608, Note_on_c, 0, 54, 85
2, 167611, Control_c, 0, 64, 27
2, 167626, Control_c, 0, 64, 0
2, 167668, Note_on_c, 0, 54, 0
2, 167672, Control_c, 0, 64, 27
2, 167687, Control_c, 0, 64, 24
2, 167702, Control_c, 0, 64, 0
2, 167716, Note_on_c, 0, 55, 93
2, 167757, Note_on_c, 0, 55, 0
2, 167764, Control_c, 0, 64, 18
2, 167779, Control_c, 0, 64, 0
2, 167828, Note_on_c, 0, 70, 84
2, 167832, Note_on_c, 0, 54, 90
2, 167846, Note_on_c, 0, 78, 0
2, 167866, Note_on_c, 0, 70, 0
2, 167881, Note_on_c, 0, 54, 0
2, 167937, Note_on_c, 0, 52, 90
2, 167992, Note_on_c, 0, 52, 0
2, 168051, Note_on_c, 0, 50, 95
2, 168058, Note_on_c, 0, 66, 90
2, 168098, Note_on_c, 0, 50, 0
2, 168159, Note_on_c, 0, 49, 90
2, 168212, Note_on_c, 0, 49, 0
2, 168272, Note_on_c, 0, 47, 92
2, 168278, Note_on_c, 0, 62, 96
2, 168305, Note_on_c, 0, 66, 0
2, 168315, Note_on_c, 0, 62, 0
2, 168332, Note_on_c, 0, 47, 0
2, 168386, Note_on_c, 0, 49, 89
2, 168441, Note_on_c, 0, 49, 0
2, 168493, Note_on_c, 0, 50, 91
2, 168505, Note_on_c, 0, 59, 93
2, 168535, Note_on_c, 0, 59, 0
2, 168543, Note_on_c, 0, 50, 0
2, 168603, Note_on_c, 0, 52, 86
2, 168642, Note_on_c, 0, 52, 0
2, 168719, Note_on_c, 0, 54, 88
2, 168726, Note_on_c, 0, 58, 92
2, 168762, Note_on_c, 0, 58, 0
2, 168769, Note_on_c, 0, 54, 0
2, 168828, Note_on_c, 0, 52, 90
2, 168867, Note_on_c, 0, 52, 0
2, 168939, Note_on_c, 0, 59, 87
2, 168949, Note_on_c, 0, 50, 94
2, 168971, Note_on_c, 0, 59, 0
2, 168987, Note_on_c, 0, 50, 0
2, 169058, Note_on_c, 0, 71, 89
2, 169089, Note_on_c, 0, 71, 0
2, 169172, Note_on_c, 0, 70, 92
2, 169177, Note_on_c, 0, 47, 98
2, 169214, Note_on_c, 0, 47, 0
2, 169214, Note_on_c, 0, 70, 0
2, 169287, Note_on_c, 0, 71, 88
2, 169334, Note_on_c, 0, 71, 0
2, 169414, Note_on_c, 0, 73, 94
2, 169416, Note_on_c, 0, 46, 97
2, 169455, Note_on_c, 0, 73, 0
2, 169465, Note_on_c, 0, 46, 0
2, 169547, Note_on_c, 0, 78, 93
2, 169602, Note_on_c, 0, 78, 0
2, 169675, Note_on_c, 0, 47, 96
2, 169682, Note_on_c, 0, 76, 93
2, 169722, Note_on_c, 0, 47, 0
2, 169734, Note_on_c, 0, 76, 0
2, 169813, Note_on_c, 0, 74, 93
2, 169857, Note_on_c, 0, 74, 0
2, 169960, Note_on_c, 0, 66, 98
2, 169960, Note_on_c, 0, 73, 95
2, 169962, Note_on_c, 0, 38, 89
2, 169989, Note_on_c, 0, 66, 0
2, 170000, Note_on_c, 0, 38, 0
2, 170029, Note_on_c, 0, 73, 0
2, 170114, Note_on_c, 0, 71, 88
2, 170162, Note_on_c, 0, 71, 0
2, 170287, Note_on_c, 0, 42, 89
2, 170289, Note_on_c, 0, 64, 86
2, 170290, Note_on_c, 0, 73, 98
2, 170318, Note_on_c, 0, 64, 0
2, 170338, Note_on_c, 0, 73, 0
2, 170339, Note_on_c, 0, 42, 0
2, 170483, Note_on_c, 0, 70, 96
2, 170528, Note_on_c, 0, 70, 0
2, 170781, Note_on_c, 0, 70, 90
2, 170785, Note_on_c, 0, 64, 80
2, 170786, Note_on_c, 0, 35, 75
2, 170857, Control_c, 0, 64, 62
2, 170872, Control_c, 0, 64, 67
2, 170886, Control_c, 0, 64, 72
2, 170902, Control_c, 0, 64, 79
2, 170917, Control_c, 0, 64, 84
2, 170933, Control_c, 0, 64, 87
2, 170948, Control_c, 0, 64, 89
2, 170963, Control_c, 0, 64, 91
2, 170970, Note_on_c, 0, 64, 0
2, 170979, Control_c, 0, 64, 93
2, 170994, Control_c, 0, 64, 94
2, 171017, Control_c, 0, 64, 95
2, 171032, Control_c, 0, 64, 97
2, 171047, Control_c, 0, 64, 98
2, 171063, Control_c, 0, 64, 99
2, 171075, Control_c, 0, 64, 100
2, 171088, Control_c, 0, 64, 101
2, 171104, Control_c, 0, 64, 101
2, 171119, Control_c, 0, 64, 102
2, 171134, Control_c, 0, 64, 103
2, 171149, Control_c, 0, 64, 103
2, 171179, Control_c, 0, 64, 104
2, 171255, Control_c, 0, 64, 104
2, 171286, Control_c, 0, 64, 105
2, 171404, Control_c, 0, 64, 105
2, 171455, Note_on_c, 0, 71, 81
2, 171462, Note_on_c, 0, 63, 70
2, 171464, Control_c, 0, 64, 105
2, 171479, Control_c, 0, 64, 102
2, 171481, Note_on_c, 0, 70, 0
2, 171494, Control_c, 0, 64, 99
2, 171509, Control_c, 0, 64, 94
2, 171525, Control_c, 0, 64, 87
2, 171539, Control_c, 0, 64, 77
2, 171554, Control_c, 0, 64, 66
2, 171570, Control_c, 0, 64, 47
2, 171585, Control_c, 0, 64, 0
2, 172754, Note_on_c, 0, 35, 0
2, 172761, Note_on_c, 0, 63, 0
2, 172762, Note_on_c, 0, 71, 0
2, 172763, End_track
0, 0, End_of_file
