0, 0, Header, 1, 2, 384
1, 0, Start_track
1, 0, Tempo, 500000
1, 0, Time_signature, 4, 2, 24, 8
1, 1, End_track
2, 0, Start_track
2, 0, Title_t," ""7.6.13 Group 3"""
2, 0, Program_c, 0, 0
2, 0, Control_c, 0, 64, 0
2, 0, Control_c, 0, 67, 0
2, 804, Note_on_c, 0, 62, 36
2, 808, Note_on_c, 0, 47, 32
2, 999, Note_on_c, 0, 47, 0
2, 1041, Note_on_c, 0, 66, 48
2, 1066, Note_on_c, 0, 62, 0
2, 1235, Note_on_c, 0, 50, 51
2, 1239, Note_on_c, 0, 59, 50
2, 1376, Note_on_c, 0, 50, 0
2, 1408, Note_on_c, 0, 61, 66
2, 1433, Note_on_c, 0, 66, 0
2, 1602, Note_on_c, 0, 62, 64
2, 1603, Note_on_c, 0, 54, 52
2, 1621, Note_on_c, 0, 59, 0
2, 1786, Note_on_c, 0, 61, 0
2, 1793, Note_on_c, 0, 66, 59
2, 1807, Note_on_c, 0, 62, 0
2, 1977, Note_on_c, 0, 59, 54
2, 2016, Note_on_c, 0, 54, 0
2, 2055, Note_on_c, 0, 55, 56
2, 2140, Note_on_c, 0, 55, 0
2, 2148, Note_on_c, 0, 54, 61
2, 2151, Note_on_c, 0, 66, 0
2, 2161, Note_on_c, 0, 62, 62
2, 2213, Note_on_c, 0, 59, 0
2, 2220, Note_on_c, 0, 54, 0
2, 2239, Note_on_c, 0, 53, 56
2, 2355, Note_on_c, 0, 53, 0
2, 2367, Note_on_c, 0, 54, 50
2, 2371, Note_on_c, 0, 62, 0
2, 2388, Note_on_c, 0, 61, 60
2, 2549, Note_on_c, 0, 54, 0
2, 2585, Note_on_c, 0, 66, 69
2, 2647, Note_on_c, 0, 61, 0
2, 2756, Note_on_c, 0, 66, 0
2, 2763, Note_on_c, 0, 67, 61
2, 2767, Note_on_c, 0, 46, 46
2, 2845, Note_on_c, 0, 67, 0
2, 2859, Note_on_c, 0, 66, 73
2, 2895, Note_on_c, 0, 46, 0
2, 2920, Note_on_c, 0, 66, 0
2, 2931, Note_on_c, 0, 65, 74
2, 3016, Note_on_c, 0, 66, 78
2, 3026, Note_on_c, 0, 65, 0
2, 3128, Note_on_c, 0, 70, 78
2, 3133, Note_on_c, 0, 49, 53
2, 3179, Note_on_c, 0, 66, 0
2, 3316, Note_on_c, 0, 49, 0
2, 3319, Note_on_c, 0, 66, 78
2, 3356, Note_on_c, 0, 70, 0
2, 3511, Note_on_c, 0, 73, 72
2, 3523, Note_on_c, 0, 54, 50
2, 3664, Note_on_c, 0, 66, 0
2, 3676, Note_on_c, 0, 54, 0
2, 3685, Note_on_c, 0, 73, 0
2, 3696, Note_on_c, 0, 64, 61
2, 3896, Note_on_c, 0, 64, 0
2, 3916, Note_on_c, 0, 62, 57
2, 3923, Note_on_c, 0, 47, 36
2, 4073, Note_on_c, 0, 47, 0
2, 4100, Note_on_c, 0, 66, 61
2, 4149, Note_on_c, 0, 62, 0
2, 4293, Note_on_c, 0, 59, 55
2, 4304, Note_on_c, 0, 50, 46
2, 4440, Note_on_c, 0, 50, 0
2, 4473, Note_on_c, 0, 61, 65
2, 4541, Note_on_c, 0, 66, 0
2, 4668, Note_on_c, 0, 59, 0
2, 4673, Note_on_c, 0, 62, 64
2, 4674, Note_on_c, 0, 54, 59
2, 4776, Note_on_c, 0, 61, 0
2, 4864, Note_on_c, 0, 66, 62
2, 4871, Note_on_c, 0, 62, 0
2, 5057, Note_on_c, 0, 59, 58
2, 5071, Note_on_c, 0, 54, 0
2, 5133, Note_on_c, 0, 55, 49
2, 5202, Note_on_c, 0, 55, 0
2, 5210, Note_on_c, 0, 54, 60
2, 5229, Note_on_c, 0, 59, 0
2, 5229, Note_on_c, 0, 62, 60
2, 5278, Note_on_c, 0, 54, 0
2, 5305, Note_on_c, 0, 53, 53
2, 5369, Note_on_c, 0, 66, 0
2, 5404, Note_on_c, 0, 53, 0
2, 5423, Note_on_c, 0, 54, 52
2, 5435, Note_on_c, 0, 62, 0
2, 5443, Note_on_c, 0, 61, 57
2, 5587, Note_on_c, 0, 54, 0
2, 5629, Note_on_c, 0, 61, 0
2, 5641, Note_on_c, 0, 66, 57
2, 5837, Note_on_c, 0, 61, 55
2, 5838, Note_on_c, 0, 42, 35
2, 5924, Note_on_c, 0, 66, 0
2, 6026, Note_on_c, 0, 58, 54
2, 6030, Note_on_c, 0, 61, 0
2, 6039, Note_on_c, 0, 42, 0
2, 6226, Note_on_c, 0, 58, 0
2, 6244, Note_on_c, 0, 54, 50
2, 6427, Note_on_c, 0, 52, 49
2, 6484, Note_on_c, 0, 54, 0
2, 6617, Note_on_c, 0, 50, 61
2, 6620, Note_on_c, 0, 52, 0
2, 6818, Note_on_c, 0, 49, 61
2, 6826, Note_on_c, 0, 50, 0
2, 7037, Note_on_c, 0, 50, 69
2, 7048, Note_on_c, 0, 49, 0
2, 7213, Note_on_c, 0, 50, 0
2, 7233, Note_on_c, 0, 54, 61
2, 7427, Note_on_c, 0, 47, 44
2, 7427, Note_on_c, 0, 74, 71
2, 7616, Note_on_c, 0, 49, 64
2, 7648, Note_on_c, 0, 54, 0
2, 7817, Note_on_c, 0, 71, 66
2, 7825, Note_on_c, 0, 50, 57
2, 7858, Note_on_c, 0, 47, 0
2, 7859, Note_on_c, 0, 49, 0
2, 7995, Note_on_c, 0, 50, 0
2, 8007, Note_on_c, 0, 54, 53
2, 8152, Note_on_c, 0, 74, 0
2, 8187, Note_on_c, 0, 71, 0
2, 8198, Note_on_c, 0, 66, 56
2, 8209, Note_on_c, 0, 47, 46
2, 8286, Note_on_c, 0, 54, 0
2, 8397, Note_on_c, 0, 50, 53
2, 8405, Note_on_c, 0, 47, 0
2, 8601, Note_on_c, 0, 66, 0
2, 8604, Note_on_c, 0, 50, 0
2, 8608, Note_on_c, 0, 49, 56
2, 8802, Note_on_c, 0, 54, 64
2, 8859, Note_on_c, 0, 49, 0
2, 8968, Note_on_c, 0, 54, 0
2, 8988, Note_on_c, 0, 55, 58
2, 8991, Note_on_c, 0, 76, 73
2, 9069, Note_on_c, 0, 55, 0
2, 9086, Note_on_c, 0, 54, 65
2, 9158, Note_on_c, 0, 54, 0
2, 9169, Note_on_c, 0, 53, 68
2, 9276, Note_on_c, 0, 53, 0
2, 9280, Note_on_c, 0, 54, 74
2, 9370, Note_on_c, 0, 73, 78
2, 9400, Note_on_c, 0, 58, 70
2, 9404, Note_on_c, 0, 54, 0
2, 9528, Note_on_c, 0, 76, 0
2, 9570, Note_on_c, 0, 58, 0
2, 9573, Note_on_c, 0, 54, 68
2, 9783, Note_on_c, 0, 54, 0
2, 9790, Note_on_c, 0, 66, 57
2, 9793, Note_on_c, 0, 61, 53
2, 9833, Note_on_c, 0, 73, 0
2, 9966, Note_on_c, 0, 52, 56
2, 9978, Note_on_c, 0, 61, 0
2, 10183, Note_on_c, 0, 66, 0
2, 10192, Note_on_c, 0, 50, 63
2, 10227, Note_on_c, 0, 52, 0
2, 10361, Note_on_c, 0, 50, 0
2, 10379, Note_on_c, 0, 54, 66
2, 10577, Note_on_c, 0, 78, 81
2, 10591, Note_on_c, 0, 47, 52
2, 10777, Note_on_c, 0, 49, 60
2, 10778, Note_on_c, 0, 54, 0
2, 10964, Note_on_c, 0, 47, 0
2, 10968, Note_on_c, 0, 50, 61
2, 10989, Note_on_c, 0, 49, 0
2, 11155, Note_on_c, 0, 50, 0
2, 11163, Note_on_c, 0, 76, 63
2, 11168, Note_on_c, 0, 54, 58
2, 11176, Note_on_c, 0, 78, 0
2, 11235, Note_on_c, 0, 76, 0
2, 11255, Note_on_c, 0, 74, 68
2, 11334, Note_on_c, 0, 74, 0
2, 11344, Note_on_c, 0, 47, 53
2, 11344, Note_on_c, 0, 76, 73
2, 11426, Note_on_c, 0, 74, 74
2, 11474, Note_on_c, 0, 76, 0
2, 11506, Note_on_c, 0, 73, 73
2, 11526, Note_on_c, 0, 50, 54
2, 11537, Note_on_c, 0, 74, 0
2, 11550, Note_on_c, 0, 54, 0
2, 11591, Note_on_c, 0, 71, 75
2, 11595, Note_on_c, 0, 73, 0
2, 11622, Note_on_c, 0, 71, 0
2, 11706, Note_on_c, 0, 71, 71
2, 11723, Note_on_c, 0, 49, 50
2, 11734, Note_on_c, 0, 50, 0
2, 11758, Note_on_c, 0, 47, 0
2, 11885, Note_on_c, 0, 49, 0
2, 11913, Note_on_c, 0, 54, 55
2, 12044, Note_on_c, 0, 71, 0
2, 12077, Note_on_c, 0, 70, 60
2, 12086, Note_on_c, 0, 49, 45
2, 12111, Note_on_c, 0, 54, 0
2, 12118, Note_on_c, 0, 70, 0
2, 12151, Note_on_c, 0, 71, 63
2, 12184, Note_on_c, 0, 71, 0
2, 12202, Note_on_c, 0, 70, 67
2, 12233, Note_on_c, 0, 70, 0
2, 12251, Note_on_c, 0, 71, 75
2, 12256, Note_on_c, 0, 46, 45
2, 12259, Note_on_c, 0, 49, 0
2, 12302, Note_on_c, 0, 71, 0
2, 12321, Note_on_c, 0, 70, 72
2, 12442, Note_on_c, 0, 46, 0
2, 12469, Control_c, 0, 64, 45
2, 12484, Control_c, 0, 64, 62
2, 12484, Note_on_c, 0, 42, 50
2, 12498, Control_c, 0, 64, 69
2, 12508, Note_on_c, 0, 70, 0
2, 12514, Control_c, 0, 64, 87
2, 12529, Control_c, 0, 64, 127
2, 12566, Note_on_c, 0, 42, 0
2, 12695, Note_on_c, 0, 64, 55
2, 12762, Note_on_c, 0, 64, 0
2, 12773, Note_on_c, 0, 62, 57
2, 12848, Note_on_c, 0, 62, 0
2, 12870, Note_on_c, 0, 61, 60
2, 12891, Note_on_c, 0, 58, 49
2, 12909, Control_c, 0, 64, 106
2, 12924, Control_c, 0, 64, 79
2, 12939, Control_c, 0, 64, 62
2, 12955, Control_c, 0, 64, 0
2, 12975, Note_on_c, 0, 61, 0
2, 12984, Note_on_c, 0, 62, 55
2, 13092, Note_on_c, 0, 62, 0
2, 13095, Note_on_c, 0, 64, 63
2, 13262, Note_on_c, 0, 64, 0
2, 13301, Note_on_c, 0, 58, 0
2, 13310, Note_on_c, 0, 62, 50
2, 13319, Note_on_c, 0, 47, 39
2, 13492, Note_on_c, 0, 62, 0
2, 13523, Note_on_c, 0, 71, 59
2, 13611, Note_on_c, 0, 73, 63
2, 13667, Note_on_c, 0, 47, 0
2, 13687, Note_on_c, 0, 71, 0
2, 13694, Note_on_c, 0, 59, 45
2, 13694, Note_on_c, 0, 73, 0
2, 13704, Note_on_c, 0, 74, 63
2, 13779, Note_on_c, 0, 73, 78
2, 13792, Note_on_c, 0, 74, 0
2, 13878, Note_on_c, 0, 73, 0
2, 13881, Note_on_c, 0, 71, 74
2, 14087, Note_on_c, 0, 61, 71
2, 14157, Note_on_c, 0, 59, 0
2, 14296, Note_on_c, 0, 78, 80
2, 14412, Note_on_c, 0, 71, 0
2, 14505, Note_on_c, 0, 63, 60
2, 14643, Note_on_c, 0, 61, 0
2, 14698, Note_on_c, 0, 69, 67
2, 14750, Note_on_c, 0, 78, 0
2, 14909, Note_on_c, 0, 64, 59
2, 14920, Note_on_c, 0, 63, 0
2, 15051, Note_on_c, 0, 69, 0
2, 15078, Note_on_c, 0, 71, 57
2, 15153, Note_on_c, 0, 69, 58
2, 15156, Note_on_c, 0, 71, 0
2, 15214, Note_on_c, 0, 69, 0
2, 15243, Note_on_c, 0, 68, 59
2, 15271, Note_on_c, 0, 52, 42
2, 15278, Note_on_c, 0, 64, 0
2, 15324, Note_on_c, 0, 68, 0
2, 15336, Note_on_c, 0, 69, 55
2, 15436, Note_on_c, 0, 69, 0
2, 15436, Note_on_c, 0, 71, 62
2, 15647, Note_on_c, 0, 54, 47
2, 15710, Note_on_c, 0, 52, 0
2, 15830, Note_on_c, 0, 71, 0
2, 15847, Note_on_c, 0, 62, 46
2, 16042, Note_on_c, 0, 54, 0
2, 16045, Note_on_c, 0, 56, 40
2, 16191, Note_on_c, 0, 62, 0
2, 16232, Note_on_c, 0, 71, 52
2, 16421, Note_on_c, 0, 56, 0
2, 16421, Note_on_c, 0, 71, 0
2, 16443, Note_on_c, 0, 45, 38
2, 16444, Note_on_c, 0, 61, 48
2, 16608, Note_on_c, 0, 61, 0
2, 16634, Note_on_c, 0, 69, 49
2, 16707, Note_on_c, 0, 71, 58
2, 16757, Note_on_c, 0, 69, 0
2, 16788, Note_on_c, 0, 45, 0
2, 16798, Note_on_c, 0, 73, 76
2, 16803, Note_on_c, 0, 71, 0
2, 16826, Note_on_c, 0, 57, 54
2, 16899, Note_on_c, 0, 71, 74
2, 16935, Note_on_c, 0, 73, 0
2, 16987, Note_on_c, 0, 69, 73
2, 16997, Note_on_c, 0, 71, 0
2, 17185, Note_on_c, 0, 59, 62
2, 17226, Note_on_c, 0, 57, 0
2, 17391, Note_on_c, 0, 76, 77
2, 17593, Note_on_c, 0, 61, 63
2, 17798, Note_on_c, 0, 67, 69
2, 17802, Note_on_c, 0, 59, 0
2, 17815, Note_on_c, 0, 69, 0
2, 17849, Note_on_c, 0, 76, 0
2, 17990, Note_on_c, 0, 61, 0
2, 17996, Note_on_c, 0, 62, 54
2, 18174, Note_on_c, 0, 67, 0
2, 18191, Note_on_c, 0, 69, 57
2, 18289, Note_on_c, 0, 67, 61
2, 18290, Note_on_c, 0, 69, 0
2, 18329, Note_on_c, 0, 62, 0
2, 18334, Note_on_c, 0, 50, 48
2, 18346, Note_on_c, 0, 67, 0
2, 18365, Note_on_c, 0, 66, 66
2, 18462, Note_on_c, 0, 66, 0
2, 18472, Note_on_c, 0, 67, 63
2, 18551, Note_on_c, 0, 67, 0
2, 18553, Note_on_c, 0, 69, 60
2, 18753, Note_on_c, 0, 52, 45
2, 18872, Note_on_c, 0, 50, 0
2, 18956, Note_on_c, 0, 61, 51
2, 18956, Note_on_c, 0, 69, 0
2, 19155, Note_on_c, 0, 54, 45
2, 19162, Note_on_c, 0, 52, 0
2, 19365, Note_on_c, 0, 61, 0
2, 19369, Note_on_c, 0, 69, 43
2, 19631, Note_on_c, 0, 59, 35
2, 19633, Note_on_c, 0, 43, 22
2, 19689, Note_on_c, 0, 54, 0
2, 19848, Note_on_c, 0, 69, 0
2, 19873, Note_on_c, 0, 66, 50
2, 20029, Note_on_c, 0, 59, 0
2, 20070, Note_on_c, 0, 47, 38
2, 20149, Note_on_c, 0, 43, 0
2, 20252, Note_on_c, 0, 66, 0
2, 20252, Note_on_c, 0, 69, 54
2, 20456, Note_on_c, 0, 50, 45
2, 20539, Note_on_c, 0, 47, 0
2, 20642, Note_on_c, 0, 67, 43
2, 20692, Note_on_c, 0, 69, 0
2, 20693, Note_on_c, 0, 67, 0
2, 20717, Note_on_c, 0, 66, 59
2, 20792, Note_on_c, 0, 66, 0
2, 20820, Note_on_c, 0, 67, 61
2, 20830, Note_on_c, 0, 52, 46
2, 20910, Note_on_c, 0, 66, 73
2, 20911, Note_on_c, 0, 50, 0
2, 20973, Note_on_c, 0, 67, 0
2, 20986, Note_on_c, 0, 64, 71
2, 21022, Note_on_c, 0, 66, 0
2, 21054, Note_on_c, 0, 64, 0
2, 21066, Note_on_c, 0, 62, 71
2, 21179, Note_on_c, 0, 45, 39
2, 21186, Note_on_c, 0, 61, 67
2, 21200, Note_on_c, 0, 62, 0
2, 21387, Note_on_c, 0, 67, 68
2, 21478, Note_on_c, 0, 52, 0
2, 21575, Note_on_c, 0, 49, 54
2, 21582, Note_on_c, 0, 61, 0
2, 21711, Note_on_c, 0, 45, 0
2, 21772, Note_on_c, 0, 71, 75
2, 21836, Note_on_c, 0, 67, 0
2, 21996, Note_on_c, 0, 52, 52
2, 22014, Note_on_c, 0, 49, 0
2, 22199, Note_on_c, 0, 69, 52
2, 22236, Note_on_c, 0, 71, 0
2, 22264, Note_on_c, 0, 69, 0
2, 22277, Note_on_c, 0, 67, 62
2, 22361, Note_on_c, 0, 67, 0
2, 22381, Note_on_c, 0, 69, 72
2, 22388, Note_on_c, 0, 54, 63
2, 22426, Note_on_c, 0, 52, 0
2, 22474, Note_on_c, 0, 67, 76
2, 22530, Note_on_c, 0, 69, 0
2, 22547, Note_on_c, 0, 66, 73
2, 22573, Note_on_c, 0, 67, 0
2, 22628, Note_on_c, 0, 64, 79
2, 22631, Note_on_c, 0, 66, 0
2, 22745, Note_on_c, 0, 62, 74
2, 22752, Note_on_c, 0, 47, 50
2, 22762, Note_on_c, 0, 64, 0
2, 22799, Note_on_c, 0, 54, 0
2, 22955, Note_on_c, 0, 69, 76
2, 23123, Note_on_c, 0, 62, 0
2, 23162, Note_on_c, 0, 50, 64
2, 23365, Note_on_c, 0, 72, 77
2, 23413, Note_on_c, 0, 69, 0
2, 23541, Note_on_c, 0, 47, 0
2, 23562, Note_on_c, 0, 54, 62
2, 23584, Note_on_c, 0, 50, 0
2, 23752, Note_on_c, 0, 71, 61
2, 23802, Note_on_c, 0, 72, 0
2, 23827, Note_on_c, 0, 71, 0
2, 23839, Note_on_c, 0, 69, 66
2, 23920, Note_on_c, 0, 55, 61
2, 23920, Note_on_c, 0, 69, 0
2, 23927, Note_on_c, 0, 54, 0
2, 23935, Note_on_c, 0, 71, 74
2, 24013, Note_on_c, 0, 69, 73
2, 24052, Note_on_c, 0, 71, 0
2, 24107, Note_on_c, 0, 69, 0
2, 24112, Note_on_c, 0, 67, 73
2, 24173, Note_on_c, 0, 67, 0
2, 24176, Note_on_c, 0, 66, 74
2, 24287, Note_on_c, 0, 64, 75
2, 24295, Note_on_c, 0, 66, 0
2, 24296, Note_on_c, 0, 49, 55
2, 24313, Note_on_c, 0, 55, 0
2, 24515, Note_on_c, 0, 71, 76
2, 24744, Note_on_c, 0, 52, 49
2, 24802, Note_on_c, 0, 64, 0
2, 24927, Note_on_c, 0, 49, 0
2, 24966, Note_on_c, 0, 74, 62
2, 25045, Note_on_c, 0, 71, 0
2, 25228, Note_on_c, 0, 55, 37
2, 25393, Note_on_c, 0, 52, 0
2, 25498, Note_on_c, 0, 73, 54
2, 25554, Note_on_c, 0, 74, 0
2, 25595, Note_on_c, 0, 73, 0
2, 25617, Note_on_c, 0, 71, 59
2, 25690, Note_on_c, 0, 71, 0
2, 25734, Note_on_c, 0, 73, 56
2, 25747, Note_on_c, 0, 57, 37
2, 25823, Note_on_c, 0, 71, 63
2, 25828, Note_on_c, 0, 55, 0
2, 25879, Note_on_c, 0, 73, 0
2, 25927, Note_on_c, 0, 69, 51
2, 25927, Note_on_c, 0, 71, 0
2, 25973, Note_on_c, 0, 69, 0
2, 26014, Note_on_c, 0, 67, 51
2, 26117, Note_on_c, 0, 67, 0
2, 26141, Note_on_c, 0, 50, 32
2, 26151, Note_on_c, 0, 66, 54
2, 26275, Note_on_c, 0, 57, 0
2, 26303, Note_on_c, 0, 50, 0
2, 26328, Note_on_c, 0, 66, 0
2, 26337, Note_on_c, 0, 69, 55
2, 26534, Note_on_c, 0, 62, 55
2, 26542, Note_on_c, 0, 54, 53
2, 26632, Note_on_c, 0, 54, 0
2, 26693, Note_on_c, 0, 69, 0
2, 26725, Note_on_c, 0, 64, 57
2, 26760, Note_on_c, 0, 62, 0
2, 26922, Note_on_c, 0, 66, 66
2, 26941, Note_on_c, 0, 57, 44
2, 27038, Note_on_c, 0, 64, 0
2, 27086, Note_on_c, 0, 66, 0
2, 27095, Note_on_c, 0, 69, 57
2, 27188, Note_on_c, 0, 69, 0
2, 27188, Note_on_c, 0, 69, 6
2, 27288, Note_on_c, 0, 62, 57
2, 27349, Note_on_c, 0, 57, 0
2, 27373, Note_on_c, 0, 59, 51
2, 27428, Note_on_c, 0, 59, 0
2, 27446, Note_on_c, 0, 62, 0
2, 27453, Note_on_c, 0, 57, 51
2, 27458, Note_on_c, 0, 66, 64
2, 27481, Note_on_c, 0, 69, 0
2, 27515, Note_on_c, 0, 57, 0
2, 27556, Note_on_c, 0, 56, 51
2, 27605, Note_on_c, 0, 66, 0
2, 27619, Note_on_c, 0, 56, 0
2, 27641, Note_on_c, 0, 64, 58
2, 27655, Note_on_c, 0, 57, 52
2, 27828, Note_on_c, 0, 57, 0
2, 27843, Note_on_c, 0, 69, 64
2, 27874, Note_on_c, 0, 64, 0
2, 28019, Note_on_c, 0, 69, 0
2, 28026, Note_on_c, 0, 49, 55
2, 28027, Note_on_c, 0, 71, 71
2, 28120, Note_on_c, 0, 69, 74
2, 28126, Note_on_c, 0, 49, 0
2, 28174, Note_on_c, 0, 71, 0
2, 28201, Note_on_c, 0, 68, 69
2, 28202, Note_on_c, 0, 69, 0
2, 28262, Note_on_c, 0, 68, 0
2, 28266, Note_on_c, 0, 69, 70
2, 28373, Note_on_c, 0, 52, 52
2, 28384, Note_on_c, 0, 73, 80
2, 28404, Note_on_c, 0, 69, 0
2, 28498, Note_on_c, 0, 52, 0
2, 28569, Note_on_c, 0, 69, 68
2, 28574, Note_on_c, 0, 73, 0
2, 28763, Note_on_c, 0, 76, 71
2, 28765, Note_on_c, 0, 57, 49
2, 28828, Note_on_c, 0, 69, 0
2, 28886, Note_on_c, 0, 57, 0
2, 28912, Note_on_c, 0, 76, 0
2, 28942, Note_on_c, 0, 67, 61
2, 29147, Note_on_c, 0, 50, 47
2, 29149, Note_on_c, 0, 66, 58
2, 29155, Note_on_c, 0, 67, 0
2, 29272, Note_on_c, 0, 50, 0
2, 29324, Note_on_c, 0, 69, 58
2, 29327, Note_on_c, 0, 66, 0
2, 29524, Note_on_c, 0, 54, 54
2, 29528, Note_on_c, 0, 62, 58
2, 29612, Note_on_c, 0, 54, 0
2, 29691, Note_on_c, 0, 69, 0
2, 29714, Note_on_c, 0, 64, 55
2, 29754, Note_on_c, 0, 62, 0
2, 29902, Note_on_c, 0, 66, 66
2, 29923, Note_on_c, 0, 57, 52
2, 29934, Note_on_c, 0, 64, 0
2, 30098, Note_on_c, 0, 69, 54
2, 30113, Note_on_c, 0, 66, 0
2, 30281, Note_on_c, 0, 62, 53
2, 30315, Note_on_c, 0, 57, 0
2, 30336, Note_on_c, 0, 59, 46
2, 30401, Note_on_c, 0, 59, 0
2, 30415, Note_on_c, 0, 57, 54
2, 30433, Note_on_c, 0, 66, 62
2, 30456, Note_on_c, 0, 62, 0
2, 30465, Note_on_c, 0, 69, 0
2, 30471, Note_on_c, 0, 57, 0
2, 30502, Note_on_c, 0, 56, 52
2, 30548, Note_on_c, 0, 56, 0
2, 30610, Note_on_c, 0, 64, 61
2, 30611, Note_on_c, 0, 57, 45
2, 30622, Note_on_c, 0, 66, 0
2, 30794, Note_on_c, 0, 64, 0
2, 30822, Note_on_c, 0, 69, 59
2, 30891, Note_on_c, 0, 57, 0
2, 31024, Note_on_c, 0, 64, 54
2, 31033, Note_on_c, 0, 45, 35
2, 31193, Note_on_c, 0, 61, 57
2, 31202, Note_on_c, 0, 64, 0
2, 31205, Note_on_c, 0, 45, 0
2, 31211, Note_on_c, 0, 69, 0
2, 31384, Note_on_c, 0, 61, 0
2, 31400, Note_on_c, 0, 57, 47
2, 31597, Note_on_c, 0, 55, 47
2, 31657, Note_on_c, 0, 57, 0
2, 31782, Note_on_c, 0, 54, 65
2, 31981, Note_on_c, 0, 52, 61
2, 31983, Note_on_c, 0, 54, 0
2, 32000, Note_on_c, 0, 55, 0
2, 32176, Note_on_c, 0, 54, 66
2, 32225, Note_on_c, 0, 52, 0
2, 32347, Note_on_c, 0, 54, 0
2, 32363, Note_on_c, 0, 57, 58
2, 32566, Note_on_c, 0, 50, 51
2, 32567, Note_on_c, 0, 69, 60
2, 32764, Note_on_c, 0, 52, 59
2, 32839, Note_on_c, 0, 57, 0
2, 32907, Note_on_c, 0, 69, 0
2, 32923, Note_on_c, 0, 50, 0
2, 32932, Note_on_c, 0, 71, 67
2, 32945, Note_on_c, 0, 54, 62
2, 32984, Note_on_c, 0, 52, 0
2, 33026, Note_on_c, 0, 69, 69
2, 33057, Note_on_c, 0, 71, 0
2, 33106, Note_on_c, 0, 54, 0
2, 33108, Note_on_c, 0, 69, 0
2, 33109, Note_on_c, 0, 68, 66
2, 33125, Note_on_c, 0, 57, 55
2, 33167, Note_on_c, 0, 68, 0
2, 33195, Note_on_c, 0, 69, 69
2, 33320, Note_on_c, 0, 50, 54
2, 33341, Note_on_c, 0, 78, 70
2, 33507, Note_on_c, 0, 54, 59
2, 33531, Note_on_c, 0, 57, 0
2, 33570, Note_on_c, 0, 50, 0
2, 33599, Note_on_c, 0, 69, 0
2, 33717, Note_on_c, 0, 52, 57
2, 33736, Note_on_c, 0, 78, 0
2, 33855, Note_on_c, 0, 54, 0
2, 33894, Note_on_c, 0, 52, 0
2, 33898, Note_on_c, 0, 57, 65
2, 34048, Note_on_c, 0, 57, 0
2, 34074, Note_on_c, 0, 69, 73
2, 34076, Note_on_c, 0, 59, 62
2, 34148, Note_on_c, 0, 59, 0
2, 34167, Note_on_c, 0, 57, 67
2, 34256, Note_on_c, 0, 57, 0
2, 34261, Note_on_c, 0, 56, 70
2, 34341, Note_on_c, 0, 56, 0
2, 34357, Note_on_c, 0, 57, 70
2, 34435, Note_on_c, 0, 71, 80
2, 34454, Note_on_c, 0, 69, 0
2, 34458, Note_on_c, 0, 57, 0
2, 34460, Note_on_c, 0, 61, 72
2, 34538, Note_on_c, 0, 69, 73
2, 34607, Note_on_c, 0, 61, 0
2, 34610, Note_on_c, 0, 71, 0
2, 34618, Note_on_c, 0, 57, 65
2, 34621, Note_on_c, 0, 68, 76
2, 34639, Note_on_c, 0, 69, 0
2, 34690, Note_on_c, 0, 68, 0
2, 34718, Note_on_c, 0, 69, 66
2, 34831, Note_on_c, 0, 64, 64
2, 34842, Note_on_c, 0, 79, 74
2, 34973, Note_on_c, 0, 57, 0
2, 34996, Note_on_c, 0, 64, 0
2, 35014, Note_on_c, 0, 55, 57
2, 35048, Note_on_c, 0, 69, 0
2, 35142, Note_on_c, 0, 79, 0
2, 35207, Note_on_c, 0, 54, 65
2, 35239, Note_on_c, 0, 55, 0
2, 35399, Note_on_c, 0, 54, 0
2, 35408, Note_on_c, 0, 57, 59
2, 35591, Note_on_c, 0, 69, 70
2, 35608, Note_on_c, 0, 50, 58
2, 35791, Note_on_c, 0, 52, 60
2, 35835, Note_on_c, 0, 57, 0
2, 35933, Note_on_c, 0, 69, 0
2, 35947, Note_on_c, 0, 71, 70
2, 35955, Note_on_c, 0, 50, 0
2, 35956, Note_on_c, 0, 54, 69
2, 35993, Note_on_c, 0, 52, 0
2, 36040, Note_on_c, 0, 69, 75
2, 36075, Note_on_c, 0, 71, 0
2, 36109, Note_on_c, 0, 54, 0
2, 36109, Note_on_c, 0, 57, 56
2, 36113, Note_on_c, 0, 68, 74
2, 36128, Note_on_c, 0, 69, 0
2, 36177, Note_on_c, 0, 68, 0
2, 36208, Note_on_c, 0, 69, 71
2, 36307, Note_on_c, 0, 50, 62
2, 36328, Note_on_c, 0, 81, 78
2, 36490, Note_on_c, 0, 54, 67
2, 36502, Note_on_c, 0, 74, 74
2, 36517, Note_on_c, 0, 69, 0
2, 36525, Note_on_c, 0, 81, 0
2, 36542, Note_on_c, 0, 57, 0
2, 36567, Note_on_c, 0, 74, 0
2, 36698, Note_on_c, 0, 52, 61
2, 36698, Note_on_c, 0, 74, 75
2, 36719, Note_on_c, 0, 54, 0
2, 36748, Note_on_c, 0, 50, 0
2, 36868, Note_on_c, 0, 52, 0
2, 36906, Note_on_c, 0, 57, 59
2, 37056, Note_on_c, 0, 74, 0
2, 37078, Note_on_c, 0, 73, 66
2, 37081, Note_on_c, 0, 52, 55
2, 37102, Note_on_c, 0, 57, 0
2, 37124, Note_on_c, 0, 73, 0
2, 37157, Note_on_c, 0, 74, 68
2, 37194, Note_on_c, 0, 74, 0
2, 37218, Note_on_c, 0, 73, 76
2, 37252, Note_on_c, 0, 73, 0
2, 37255, Note_on_c, 0, 49, 48
2, 37277, Note_on_c, 0, 74, 72
2, 37314, Note_on_c, 0, 74, 0
2, 37327, Note_on_c, 0, 73, 84
2, 37330, Note_on_c, 0, 52, 0
2, 37376, Note_on_c, 0, 73, 0
2, 37380, Note_on_c, 0, 74, 73
2, 37440, Note_on_c, 0, 73, 77
2, 37462, Note_on_c, 0, 74, 0
2, 37479, Note_on_c, 0, 49, 0
2, 37496, Note_on_c, 0, 45, 65
2, 37637, Note_on_c, 0, 73, 0
2, 37671, Note_on_c, 0, 71, 66
2, 37760, Note_on_c, 0, 71, 0
2, 37765, Note_on_c, 0, 73, 72
2, 37769, Note_on_c, 0, 45, 0
2, 37771, Note_on_c, 0, 57, 59
2, 37851, Note_on_c, 0, 75, 73
2, 37869, Note_on_c, 0, 73, 0
2, 37936, Note_on_c, 0, 75, 0
2, 37942, Note_on_c, 0, 55, 64
2, 37943, Note_on_c, 0, 57, 0
2, 37943, Note_on_c, 0, 76, 71
2, 38033, Note_on_c, 0, 75, 81
2, 38080, Note_on_c, 0, 76, 0
2, 38101, Note_on_c, 0, 54, 69
2, 38107, Note_on_c, 0, 75, 0
2, 38114, Note_on_c, 0, 73, 82
2, 38115, Note_on_c, 0, 55, 0
2, 38207, Note_on_c, 0, 75, 84
2, 38251, Note_on_c, 0, 73, 0
2, 38301, Note_on_c, 0, 55, 64
2, 38322, Note_on_c, 0, 76, 77
2, 38330, Note_on_c, 0, 54, 0
2, 38366, Note_on_c, 0, 75, 0
2, 38525, Note_on_c, 0, 59, 57
2, 38527, Note_on_c, 0, 79, 81
2, 38532, Note_on_c, 0, 55, 0
2, 38561, Note_on_c, 0, 76, 0
2, 38722, Note_on_c, 0, 52, 57
2, 38728, Note_on_c, 0, 71, 77
2, 38905, Note_on_c, 0, 54, 67
2, 38923, Note_on_c, 0, 75, 75
2, 38942, Note_on_c, 0, 52, 0
2, 38942, Note_on_c, 0, 59, 0
2, 39028, Note_on_c, 0, 79, 0
2, 39113, Note_on_c, 0, 55, 65
2, 39118, Note_on_c, 0, 76, 74
2, 39137, Note_on_c, 0, 71, 0
2, 39157, Note_on_c, 0, 54, 0
2, 39237, Note_on_c, 0, 75, 0
2, 39317, Note_on_c, 0, 55, 0
2, 39317, Note_on_c, 0, 79, 72
2, 39321, Note_on_c, 0, 76, 0
2, 39326, Note_on_c, 0, 59, 54
2, 39506, Note_on_c, 0, 71, 65
2, 39516, Note_on_c, 0, 52, 54
2, 39698, Note_on_c, 0, 55, 57
2, 39701, Note_on_c, 0, 59, 0
2, 39706, Note_on_c, 0, 76, 69
2, 39710, Note_on_c, 0, 52, 0
2, 39712, Note_on_c, 0, 79, 0
2, 39732, Note_on_c, 0, 71, 0
2, 39743, Note_on_c, 0, 76, 0
2, 39894, Note_on_c, 0, 76, 71
2, 39896, Note_on_c, 0, 55, 0
2, 39900, Note_on_c, 0, 54, 67
2, 40094, Note_on_c, 0, 59, 65
2, 40123, Note_on_c, 0, 54, 0
2, 40249, Note_on_c, 0, 59, 0
2, 40271, Note_on_c, 0, 60, 63
2, 40272, Note_on_c, 0, 75, 71
2, 40289, Note_on_c, 0, 76, 0
2, 40330, Note_on_c, 0, 75, 0
2, 40337, Note_on_c, 0, 60, 0
2, 40367, Note_on_c, 0, 59, 62
2, 40437, Note_on_c, 0, 59, 0
2, 40442, Note_on_c, 0, 58, 76
2, 40460, Note_on_c, 0, 78, 73
2, 40507, Note_on_c, 0, 78, 0
2, 40519, Note_on_c, 0, 58, 0
2, 40528, Note_on_c, 0, 59, 68
2, 40641, Note_on_c, 0, 71, 79
2, 40643, Note_on_c, 0, 59, 0
2, 40643, Note_on_c, 0, 63, 69
2, 40850, Note_on_c, 0, 63, 0
2, 40852, Note_on_c, 0, 59, 67
2, 41048, Note_on_c, 0, 69, 61
2, 41057, Note_on_c, 0, 66, 62
2, 41076, Note_on_c, 0, 71, 0
2, 41118, Note_on_c, 0, 69, 0
2, 41229, Note_on_c, 0, 66, 0
2, 41232, Note_on_c, 0, 57, 63
2, 41241, Note_on_c, 0, 78, 72
2, 41262, Note_on_c, 0, 59, 0
2, 41299, Note_on_c, 0, 78, 0
2, 41428, Note_on_c, 0, 78, 75
2, 41443, Note_on_c, 0, 55, 59
2, 41461, Note_on_c, 0, 57, 0
2, 41529, Note_on_c, 0, 76, 75
2, 41594, Note_on_c, 0, 78, 0
2, 41611, Note_on_c, 0, 75, 82
2, 41623, Note_on_c, 0, 76, 0
2, 41627, Note_on_c, 0, 55, 0
2, 41638, Note_on_c, 0, 59, 68
2, 41830, Note_on_c, 0, 76, 74
2, 41831, Note_on_c, 0, 52, 57
2, 41854, Note_on_c, 0, 75, 0
2, 42011, Note_on_c, 0, 54, 62
2, 42011, Note_on_c, 0, 76, 0
2, 42020, Note_on_c, 0, 69, 66
2, 42048, Note_on_c, 0, 59, 0
2, 42080, Note_on_c, 0, 69, 0
2, 42089, Note_on_c, 0, 52, 0
2, 42213, Note_on_c, 0, 55, 59
2, 42219, Note_on_c, 0, 69, 75
2, 42249, Note_on_c, 0, 54, 0
2, 42422, Note_on_c, 0, 59, 63
2, 42425, Note_on_c, 0, 55, 0
2, 42615, Note_on_c, 0, 67, 62
2, 42616, Note_on_c, 0, 52, 55
2, 42805, Note_on_c, 0, 55, 61
2, 42807, Note_on_c, 0, 76, 71
2, 42818, Note_on_c, 0, 67, 0
2, 42842, Note_on_c, 0, 69, 0
2, 42882, Note_on_c, 0, 76, 0
2, 42968, Note_on_c, 0, 59, 0
2, 42999, Note_on_c, 0, 54, 66
2, 43009, Note_on_c, 0, 76, 78
2, 43046, Note_on_c, 0, 52, 0
2, 43089, Note_on_c, 0, 55, 0
2, 43195, Note_on_c, 0, 54, 0
2, 43207, Note_on_c, 0, 75, 87
2, 43217, Note_on_c, 0, 59, 63
2, 43228, Note_on_c, 0, 76, 0
2, 43466, Note_on_c, 0, 54, 47
2, 43469, Note_on_c, 0, 81, 78
2, 43605, Note_on_c, 0, 75, 0
2, 43608, Note_on_c, 0, 59, 0
2, 43685, Note_on_c, 0, 51, 49
2, 43753, Note_on_c, 0, 54, 0
2, 43960, Note_on_c, 0, 47, 42
2, 44094, Note_on_c, 0, 51, 0
2, 44103, Note_on_c, 0, 79, 42
2, 44171, Note_on_c, 0, 81, 0
2, 44180, Note_on_c, 0, 78, 63
2, 44185, Note_on_c, 0, 79, 0
2, 44247, Note_on_c, 0, 78, 0
2, 44275, Note_on_c, 0, 76, 59
2, 44345, Note_on_c, 0, 76, 0
2, 44362, Note_on_c, 0, 74, 67
2, 44441, Note_on_c, 0, 73, 78
2, 44459, Note_on_c, 0, 47, 0
2, 44529, Note_on_c, 0, 74, 0
2, 44537, Note_on_c, 0, 71, 78
2, 44580, Note_on_c, 0, 73, 0
2, 44605, Note_on_c, 0, 71, 0
2, 44612, Note_on_c, 0, 69, 75
2, 44718, Note_on_c, 0, 69, 0
2, 44724, Note_on_c, 0, 67, 72
2, 44929, Note_on_c, 0, 71, 69
2, 44938, Note_on_c, 0, 67, 0
2, 45134, Note_on_c, 0, 64, 68
2, 45143, Note_on_c, 0, 55, 48
2, 45350, Note_on_c, 0, 66, 74
2, 45394, Note_on_c, 0, 71, 0
2, 45539, Note_on_c, 0, 52, 43
2, 45565, Note_on_c, 0, 67, 62
2, 45583, Note_on_c, 0, 64, 0
2, 45608, Note_on_c, 0, 66, 0
2, 45670, Note_on_c, 0, 55, 0
2, 45745, Note_on_c, 0, 71, 62
2, 45747, Note_on_c, 0, 67, 0
2, 45933, Note_on_c, 0, 64, 58
2, 45940, Note_on_c, 0, 47, 40
2, 46070, Note_on_c, 0, 52, 0
2, 46121, Note_on_c, 0, 71, 0
2, 46139, Note_on_c, 0, 67, 63
2, 46197, Note_on_c, 0, 47, 0
2, 46267, Note_on_c, 0, 64, 0
2, 46316, Note_on_c, 0, 67, 0
2, 46341, Note_on_c, 0, 66, 67
2, 46530, Note_on_c, 0, 71, 65
2, 46562, Note_on_c, 0, 66, 0
2, 46696, Note_on_c, 0, 71, 0
2, 46714, Note_on_c, 0, 72, 69
2, 46724, Note_on_c, 0, 57, 51
2, 46806, Note_on_c, 0, 71, 77
2, 46806, Note_on_c, 0, 72, 0
2, 46884, Note_on_c, 0, 71, 0
2, 46889, Note_on_c, 0, 70, 74
2, 46965, Note_on_c, 0, 70, 0
2, 46971, Note_on_c, 0, 71, 81
2, 47061, Note_on_c, 0, 54, 56
2, 47084, Note_on_c, 0, 75, 81
2, 47112, Note_on_c, 0, 71, 0
2, 47219, Note_on_c, 0, 57, 0
2, 47261, Note_on_c, 0, 71, 76
2, 47287, Note_on_c, 0, 75, 0
2, 47482, Note_on_c, 0, 78, 73
2, 47488, Note_on_c, 0, 47, 42
2, 47565, Note_on_c, 0, 54, 0
2, 47669, Note_on_c, 0, 47, 0
2, 47672, Note_on_c, 0, 71, 0
2, 47680, Note_on_c, 0, 78, 0
2, 47686, Note_on_c, 0, 69, 65
2, 47875, Note_on_c, 0, 69, 0
2, 47878, Note_on_c, 0, 67, 70
2, 48049, Note_on_c, 0, 71, 73
2, 48076, Note_on_c, 0, 67, 0
2, 48219, Note_on_c, 0, 59, 58
2, 48227, Note_on_c, 0, 64, 74
2, 48265, Note_on_c, 0, 59, 0
2, 48291, Note_on_c, 0, 57, 63
2, 48355, Note_on_c, 0, 59, 76
2, 48356, Note_on_c, 0, 57, 0
2, 48368, Note_on_c, 0, 71, 0
2, 48374, Note_on_c, 0, 66, 75
2, 48433, Note_on_c, 0, 64, 0
2, 48564, Note_on_c, 0, 67, 76
2, 48607, Note_on_c, 0, 66, 0
2, 48738, Note_on_c, 0, 59, 0
2, 48757, Note_on_c, 0, 71, 74
2, 48766, Note_on_c, 0, 60, 62
2, 48773, Note_on_c, 0, 67, 0
2, 48845, Note_on_c, 0, 60, 0
2, 48857, Note_on_c, 0, 59, 63
2, 48912, Note_on_c, 0, 64, 67
2, 48922, Note_on_c, 0, 71, 0
2, 48936, Note_on_c, 0, 59, 0
2, 48950, Note_on_c, 0, 57, 60
2, 49010, Note_on_c, 0, 57, 0
2, 49056, Note_on_c, 0, 57, 49
2, 49087, Note_on_c, 0, 67, 69
2, 49149, Note_on_c, 0, 64, 0
2, 49203, Note_on_c, 0, 57, 0
2, 49219, Note_on_c, 0, 66, 72
2, 49237, Note_on_c, 0, 67, 0
2, 49268, Control_c, 0, 64, 22
2, 49283, Control_c, 0, 64, 29
2, 49298, Control_c, 0, 64, 32
2, 49329, Control_c, 0, 64, 0
2, 49420, Control_c, 0, 64, 29
2, 49426, Note_on_c, 0, 51, 57
2, 49436, Control_c, 0, 64, 50
2, 49451, Control_c, 0, 64, 56
2, 49466, Control_c, 0, 64, 59
2, 49481, Control_c, 0, 64, 61
2, 49496, Control_c, 0, 64, 62
2, 49512, Control_c, 0, 64, 64
2, 49527, Control_c, 0, 64, 66
2, 49542, Control_c, 0, 64, 68
2, 49557, Control_c, 0, 64, 69
2, 49572, Control_c, 0, 64, 71
2, 49587, Control_c, 0, 64, 71
2, 49598, Note_on_c, 0, 71, 79
2, 49601, Note_on_c, 0, 66, 0
2, 49633, Control_c, 0, 64, 72
2, 49677, Note_on_c, 0, 51, 0
2, 49745, Note_on_c, 0, 51, 21
2, 49769, Control_c, 0, 64, 71
2, 49784, Control_c, 0, 64, 68
2, 49799, Note_on_c, 0, 66, 60
2, 49800, Control_c, 0, 64, 63
2, 49814, Control_c, 0, 64, 60
2, 49845, Control_c, 0, 64, 61
2, 49860, Control_c, 0, 64, 63
2, 49876, Control_c, 0, 64, 65
2, 49891, Control_c, 0, 64, 67
2, 49906, Control_c, 0, 64, 69
2, 49922, Control_c, 0, 64, 70
2, 49937, Control_c, 0, 64, 72
2, 49961, Control_c, 0, 64, 74
2, 49974, Note_on_c, 0, 63, 52
2, 49976, Control_c, 0, 64, 77
2, 49992, Control_c, 0, 64, 84
2, 50006, Control_c, 0, 64, 103
2, 50021, Control_c, 0, 64, 127
2, 50087, Note_on_c, 0, 71, 0
2, 50096, Note_on_c, 0, 51, 0
2, 50178, Note_on_c, 0, 59, 69
2, 50178, Note_on_c, 0, 63, 0
2, 50206, Note_on_c, 0, 59, 0
2, 50221, Note_on_c, 0, 66, 0
2, 50383, Note_on_c, 0, 57, 62
2, 50388, Note_on_c, 0, 75, 70
2, 50416, Control_c, 0, 64, 117
2, 50432, Control_c, 0, 64, 81
2, 50447, Control_c, 0, 64, 65
2, 50461, Control_c, 0, 64, 0
2, 50462, Note_on_c, 0, 57, 0
2, 50463, Note_on_c, 0, 75, 0
2, 50472, Note_on_c, 0, 76, 68
2, 50477, Note_on_c, 0, 55, 63
2, 50545, Note_on_c, 0, 55, 0
2, 50559, Note_on_c, 0, 75, 76
2, 50564, Note_on_c, 0, 54, 70
2, 50588, Note_on_c, 0, 76, 0
2, 50630, Note_on_c, 0, 75, 0
2, 50637, Note_on_c, 0, 73, 80
2, 50659, Note_on_c, 0, 54, 0
2, 50667, Note_on_c, 0, 55, 67
2, 50741, Note_on_c, 0, 75, 83
2, 50757, Note_on_c, 0, 55, 0
2, 50763, Note_on_c, 0, 73, 0
2, 50768, Note_on_c, 0, 57, 63
2, 50926, Control_c, 0, 64, 31
2, 50941, Control_c, 0, 64, 59
2, 50941, Note_on_c, 0, 57, 0
2, 50952, Note_on_c, 0, 55, 53
2, 50957, Control_c, 0, 64, 66
2, 50958, Note_on_c, 0, 76, 74
2, 50971, Control_c, 0, 64, 76
2, 50977, Note_on_c, 0, 75, 0
2, 50981, Note_on_c, 0, 55, 0
2, 50986, Control_c, 0, 64, 102
2, 51002, Control_c, 0, 64, 127
2, 51155, Note_on_c, 0, 64, 65
2, 51184, Control_c, 0, 64, 122
2, 51200, Control_c, 0, 64, 83
2, 51215, Control_c, 0, 64, 69
2, 51229, Control_c, 0, 64, 57
2, 51232, Note_on_c, 0, 64, 0
2, 51237, Note_on_c, 0, 66, 67
2, 51245, Control_c, 0, 64, 0
2, 51306, Note_on_c, 0, 66, 0
2, 51325, Note_on_c, 0, 67, 75
2, 51332, Note_on_c, 0, 76, 0
2, 51350, Note_on_c, 0, 71, 73
2, 51417, Note_on_c, 0, 67, 0
2, 51419, Note_on_c, 0, 66, 75
2, 51506, Note_on_c, 0, 66, 0
2, 51510, Note_on_c, 0, 64, 75
2, 51670, Note_on_c, 0, 71, 0
2, 51707, Note_on_c, 0, 79, 74
2, 51804, Note_on_c, 0, 78, 78
2, 51853, Note_on_c, 0, 79, 0
2, 51886, Note_on_c, 0, 76, 78
2, 51888, Note_on_c, 0, 78, 0
2, 51893, Note_on_c, 0, 64, 0
2, 51914, Note_on_c, 0, 71, 72
2, 51979, Note_on_c, 0, 78, 85
2, 52013, Note_on_c, 0, 76, 0
2, 52079, Note_on_c, 0, 79, 81
2, 52120, Note_on_c, 0, 78, 0
2, 52202, Note_on_c, 0, 71, 0
2, 52239, Note_on_c, 0, 79, 0
2, 52280, Note_on_c, 0, 71, 62
2, 52290, Note_on_c, 0, 62, 62
2, 52430, Note_on_c, 0, 71, 0
2, 52482, Note_on_c, 0, 69, 51
2, 52509, Note_on_c, 0, 69, 0
2, 52532, Note_on_c, 0, 71, 60
2, 52588, Note_on_c, 0, 69, 73
2, 52590, Note_on_c, 0, 71, 0
2, 52714, Note_on_c, 0, 62, 0
2, 52734, Note_on_c, 0, 69, 0
2, 52749, Note_on_c, 0, 68, 70
2, 52755, Note_on_c, 0, 64, 62
2, 52846, Note_on_c, 0, 64, 0
2, 52847, Note_on_c, 0, 62, 66
2, 52914, Note_on_c, 0, 68, 0
2, 52921, Note_on_c, 0, 62, 0
2, 52932, Note_on_c, 0, 61, 70
2, 52941, Note_on_c, 0, 69, 63
2, 53036, Note_on_c, 0, 62, 69
2, 53076, Note_on_c, 0, 61, 0
2, 53113, Note_on_c, 0, 62, 0
2, 53118, Note_on_c, 0, 73, 73
2, 53130, Note_on_c, 0, 69, 0
2, 53132, Note_on_c, 0, 64, 74
2, 53166, Note_on_c, 0, 73, 0
2, 53325, Note_on_c, 0, 73, 73
2, 53528, Note_on_c, 0, 76, 78
2, 53530, Note_on_c, 0, 55, 58
2, 53568, Note_on_c, 0, 64, 0
2, 53714, Note_on_c, 0, 73, 0
2, 53733, Note_on_c, 0, 81, 79
2, 53792, Note_on_c, 0, 76, 0
2, 53905, Note_on_c, 0, 55, 0
2, 53929, Note_on_c, 0, 73, 75
2, 53929, Note_on_c, 0, 81, 0
2, 53934, Note_on_c, 0, 64, 61
2, 54079, Note_on_c, 0, 64, 0
2, 54121, Control_c, 0, 64, 36
2, 54133, Note_on_c, 0, 54, 62
2, 54136, Control_c, 0, 64, 57
2, 54141, Note_on_c, 0, 74, 70
2, 54149, Note_on_c, 0, 73, 0
2, 54151, Control_c, 0, 64, 66
2, 54166, Control_c, 0, 64, 77
2, 54178, Note_on_c, 0, 54, 0
2, 54181, Control_c, 0, 64, 94
2, 54197, Control_c, 0, 64, 127
2, 54357, Note_on_c, 0, 62, 54
2, 54394, Control_c, 0, 64, 92
2, 54409, Control_c, 0, 64, 78
2, 54425, Control_c, 0, 64, 67
2, 54428, Note_on_c, 0, 64, 68
2, 54439, Control_c, 0, 64, 53
2, 54454, Control_c, 0, 64, 0
2, 54467, Note_on_c, 0, 74, 0
2, 54470, Note_on_c, 0, 62, 0
2, 54487, Note_on_c, 0, 69, 64
2, 54506, Note_on_c, 0, 64, 0
2, 54510, Note_on_c, 0, 66, 77
2, 54601, Note_on_c, 0, 66, 0
2, 54602, Note_on_c, 0, 64, 73
2, 54685, Note_on_c, 0, 62, 73
2, 54685, Note_on_c, 0, 64, 0
2, 54797, Note_on_c, 0, 69, 0
2, 54851, Note_on_c, 0, 78, 70
2, 54950, Note_on_c, 0, 76, 71
2, 54999, Note_on_c, 0, 78, 0
2, 55026, Note_on_c, 0, 76, 0
2, 55031, Note_on_c, 0, 74, 78
2, 55054, Note_on_c, 0, 62, 0
2, 55058, Note_on_c, 0, 69, 69
2, 55127, Note_on_c, 0, 76, 76
2, 55229, Note_on_c, 0, 78, 77
2, 55237, Note_on_c, 0, 74, 0
2, 55265, Note_on_c, 0, 76, 0
2, 55365, Note_on_c, 0, 69, 0
2, 55403, Note_on_c, 0, 78, 0
2, 55428, Note_on_c, 0, 69, 57
2, 55430, Note_on_c, 0, 60, 67
2, 55590, Note_on_c, 0, 69, 0
2, 55633, Note_on_c, 0, 67, 54
2, 55662, Note_on_c, 0, 67, 0
2, 55689, Note_on_c, 0, 69, 52
2, 55748, Note_on_c, 0, 67, 68
2, 55750, Note_on_c, 0, 69, 0
2, 55869, Note_on_c, 0, 60, 0
2, 55891, Note_on_c, 0, 67, 0
2, 55903, Note_on_c, 0, 66, 70
2, 55907, Note_on_c, 0, 62, 60
2, 55993, Note_on_c, 0, 62, 0
2, 55999, Note_on_c, 0, 60, 67
2, 56059, Note_on_c, 0, 66, 0
2, 56073, Note_on_c, 0, 60, 0
2, 56076, Note_on_c, 0, 67, 65
2, 56094, Note_on_c, 0, 59, 65
2, 56177, Note_on_c, 0, 59, 0
2, 56182, Note_on_c, 0, 60, 70
2, 56252, Note_on_c, 0, 60, 0
2, 56262, Note_on_c, 0, 71, 70
2, 56269, Note_on_c, 0, 67, 0
2, 56280, Note_on_c, 0, 62, 71
2, 56321, Note_on_c, 0, 71, 0
2, 56475, Note_on_c, 0, 71, 76
2, 56672, Note_on_c, 0, 54, 59
2, 56684, Note_on_c, 0, 74, 70
2, 56748, Note_on_c, 0, 71, 0
2, 56769, Note_on_c, 0, 62, 0
2, 56896, Note_on_c, 0, 79, 79
2, 56899, Note_on_c, 0, 74, 0
2, 57047, Note_on_c, 0, 54, 0
2, 57075, Note_on_c, 0, 71, 77
2, 57081, Note_on_c, 0, 62, 68
2, 57134, Note_on_c, 0, 79, 0
2, 57259, Note_on_c, 0, 62, 0
2, 57289, Note_on_c, 0, 73, 74
2, 57301, Note_on_c, 0, 52, 53
2, 57377, Note_on_c, 0, 71, 0
2, 57499, Note_on_c, 0, 79, 80
2, 57527, Note_on_c, 0, 73, 0
2, 57699, Note_on_c, 0, 50, 67
2, 57848, Note_on_c, 0, 52, 0
2, 57894, Note_on_c, 0, 78, 81
2, 58069, Note_on_c, 0, 79, 0
2, 58092, Note_on_c, 0, 70, 76
2, 58102, Note_on_c, 0, 49, 53
2, 58136, Note_on_c, 0, 78, 0
2, 58168, Note_on_c, 0, 50, 0
2, 58303, Note_on_c, 0, 76, 73
2, 58407, Note_on_c, 0, 70, 0
2, 58498, Control_c, 0, 64, 45
2, 58514, Control_c, 0, 64, 60
2, 58523, Note_on_c, 0, 49, 0
2, 58524, Note_on_c, 0, 47, 50
2, 58529, Control_c, 0, 64, 65
2, 58544, Control_c, 0, 64, 73
2, 58560, Control_c, 0, 64, 90
2, 58574, Control_c, 0, 64, 127
2, 58701, Note_on_c, 0, 74, 68
2, 58827, Note_on_c, 0, 47, 0
2, 58909, Note_on_c, 0, 65, 66
2, 58916, Note_on_c, 0, 76, 0
2, 58943, Note_on_c, 0, 74, 0
2, 58986, Control_c, 0, 64, 111
2, 59001, Control_c, 0, 64, 99
2, 59016, Control_c, 0, 64, 87
2, 59032, Control_c, 0, 64, 79
2, 59047, Control_c, 0, 64, 71
2, 59061, Control_c, 0, 64, 65
2, 59077, Control_c, 0, 64, 55
2, 59092, Control_c, 0, 64, 10
2, 59107, Control_c, 0, 64, 0
2, 59107, Note_on_c, 0, 62, 61
2, 59323, Note_on_c, 0, 66, 73
2, 59530, Note_on_c, 0, 62, 0
2, 59539, Note_on_c, 0, 61, 56
2, 59565, Note_on_c, 0, 65, 0
2, 59724, Note_on_c, 0, 53, 58
2, 59726, Note_on_c, 0, 68, 72
2, 59763, Note_on_c, 0, 61, 0
2, 59806, Note_on_c, 0, 66, 0
2, 59935, Note_on_c, 0, 59, 59
2, 60027, Note_on_c, 0, 53, 0
2, 60114, Note_on_c, 0, 68, 0
2, 60131, Note_on_c, 0, 69, 80
2, 60315, Note_on_c, 0, 57, 65
2, 60393, Note_on_c, 0, 59, 0
2, 60529, Note_on_c, 0, 71, 78
2, 60534, Note_on_c, 0, 50, 64
2, 60558, Note_on_c, 0, 69, 0
2, 60564, Note_on_c, 0, 57, 0
2, 60727, Note_on_c, 0, 56, 72
2, 60733, Note_on_c, 0, 50, 0
2, 60936, Note_on_c, 0, 73, 83
2, 60978, Note_on_c, 0, 71, 0
2, 61105, Note_on_c, 0, 54, 68
2, 61121, Note_on_c, 0, 56, 0
2, 61325, Note_on_c, 0, 74, 74
2, 61328, Note_on_c, 0, 47, 57
2, 61360, Note_on_c, 0, 54, 0
2, 61398, Note_on_c, 0, 73, 0
2, 61532, Note_on_c, 0, 65, 76
2, 61564, Note_on_c, 0, 74, 0
2, 61735, Note_on_c, 0, 59, 66
2, 61880, Note_on_c, 0, 47, 0
2, 61929, Note_on_c, 0, 66, 79
2, 62087, Note_on_c, 0, 65, 0
2, 62126, Note_on_c, 0, 53, 59
2, 62146, Note_on_c, 0, 68, 72
2, 62155, Note_on_c, 0, 59, 0
2, 62215, Note_on_c, 0, 66, 0
2, 62349, Note_on_c, 0, 59, 67
2, 62362, Note_on_c, 0, 68, 0
2, 62547, Note_on_c, 0, 56, 55
2, 62570, Note_on_c, 0, 53, 0
2, 62726, Note_on_c, 0, 62, 67
2, 62807, Note_on_c, 0, 59, 0
2, 62939, Note_on_c, 0, 49, 45
2, 63004, Note_on_c, 0, 56, 0
2, 63163, Note_on_c, 0, 61, 55
2, 63172, Note_on_c, 0, 62, 0
2, 63387, Note_on_c, 0, 53, 46
2, 63444, Note_on_c, 0, 49, 0
2, 63579, Note_on_c, 0, 61, 0
2, 63615, Note_on_c, 0, 59, 48
2, 63924, Note_on_c, 0, 42, 38
2, 63956, Note_on_c, 0, 59, 0
2, 63957, Note_on_c, 0, 57, 39
2, 63987, Note_on_c, 0, 53, 0
2, 64131, Note_on_c, 0, 42, 0
2, 64160, Note_on_c, 0, 61, 58
2, 64203, Note_on_c, 0, 57, 0
2, 64332, Note_on_c, 0, 61, 0
2, 64351, Note_on_c, 0, 45, 49
2, 64356, Note_on_c, 0, 54, 61
2, 64479, Note_on_c, 0, 45, 0
2, 64542, Note_on_c, 0, 56, 67
2, 64730, Note_on_c, 0, 57, 66
2, 64734, Note_on_c, 0, 49, 53
2, 64746, Note_on_c, 0, 54, 0
2, 64764, Note_on_c, 0, 56, 0
2, 64932, Note_on_c, 0, 61, 58
2, 64938, Note_on_c, 0, 57, 0
2, 65122, Note_on_c, 0, 54, 62
2, 65138, Note_on_c, 0, 49, 0
2, 65180, Note_on_c, 0, 50, 53
2, 65245, Note_on_c, 0, 50, 0
2, 65263, Note_on_c, 0, 49, 61
2, 65327, Note_on_c, 0, 57, 60
2, 65333, Note_on_c, 0, 49, 0
2, 65336, Note_on_c, 0, 54, 0
2, 65348, Note_on_c, 0, 48, 66
2, 65373, Note_on_c, 0, 61, 0
2, 65465, Note_on_c, 0, 48, 0
2, 65495, Note_on_c, 0, 49, 59
2, 65507, Note_on_c, 0, 57, 0
2, 65514, Note_on_c, 0, 56, 63
2, 65709, Note_on_c, 0, 49, 0
2, 65716, Note_on_c, 0, 61, 67
2, 65762, Note_on_c, 0, 56, 0
2, 65900, Note_on_c, 0, 61, 0
2, 65904, Note_on_c, 0, 41, 46
2, 65907, Note_on_c, 0, 62, 61
2, 66003, Note_on_c, 0, 62, 0
2, 66010, Note_on_c, 0, 61, 76
2, 66046, Note_on_c, 0, 41, 0
2, 66089, Note_on_c, 0, 61, 0
2, 66094, Note_on_c, 0, 60, 78
2, 66173, Note_on_c, 0, 61, 75
2, 66191, Note_on_c, 0, 60, 0
2, 66267, Note_on_c, 0, 44, 58
2, 66273, Note_on_c, 0, 65, 76
2, 66298, Note_on_c, 0, 61, 0
2, 66446, Note_on_c, 0, 44, 0
2, 66470, Note_on_c, 0, 61, 70
2, 66483, Note_on_c, 0, 65, 0
2, 66661, Note_on_c, 0, 68, 63
2, 66662, Note_on_c, 0, 61, 0
2, 66663, Note_on_c, 0, 49, 47
2, 66800, Note_on_c, 0, 49, 0
2, 66863, Note_on_c, 0, 59, 57
2, 66944, Note_on_c, 0, 68, 0
2, 67022, Note_on_c, 0, 59, 0
2, 67053, Note_on_c, 0, 57, 51
2, 67079, Note_on_c, 0, 42, 42
2, 67190, Note_on_c, 0, 57, 0
2, 67234, Note_on_c, 0, 49, 53
2, 67323, Note_on_c, 0, 42, 0
2, 67441, Note_on_c, 0, 49, 0
2, 67442, Note_on_c, 0, 61, 70
2, 67443, Note_on_c, 0, 54, 63
2, 67628, Note_on_c, 0, 54, 0
2, 67633, Note_on_c, 0, 56, 62
2, 67640, Note_on_c, 0, 61, 0
2, 67834, Note_on_c, 0, 66, 80
2, 67837, Note_on_c, 0, 57, 59
2, 67858, Note_on_c, 0, 56, 0
2, 68021, Note_on_c, 0, 66, 0
2, 68027, Note_on_c, 0, 57, 0
2, 68036, Note_on_c, 0, 61, 67
2, 68228, Note_on_c, 0, 54, 58
2, 68233, Note_on_c, 0, 69, 79
2, 68296, Note_on_c, 0, 61, 0
2, 68418, Note_on_c, 0, 69, 0
2, 68428, Note_on_c, 0, 57, 61
2, 68440, Note_on_c, 0, 54, 0
2, 68620, Note_on_c, 0, 65, 78
2, 68633, Note_on_c, 0, 57, 0
2, 68636, Note_on_c, 0, 56, 61
2, 68814, Note_on_c, 0, 65, 0
2, 68817, Note_on_c, 0, 61, 69
2, 68870, Note_on_c, 0, 56, 0
2, 68985, Note_on_c, 0, 61, 0
2, 68994, Note_on_c, 0, 68, 77
2, 69010, Note_on_c, 0, 62, 64
2, 69091, Note_on_c, 0, 62, 0
2, 69094, Note_on_c, 0, 61, 74
2, 69160, Note_on_c, 0, 68, 0
2, 69176, Note_on_c, 0, 61, 0
2, 69189, Note_on_c, 0, 60, 74
2, 69280, Note_on_c, 0, 61, 75
2, 69288, Note_on_c, 0, 60, 0
2, 69370, Note_on_c, 0, 71, 85
2, 69390, Note_on_c, 0, 65, 70
2, 69403, Note_on_c, 0, 61, 0
2, 69539, Note_on_c, 0, 65, 0
2, 69544, Note_on_c, 0, 71, 0
2, 69566, Note_on_c, 0, 61, 69
2, 69773, Note_on_c, 0, 74, 83
2, 69785, Note_on_c, 0, 68, 65
2, 69953, Note_on_c, 0, 68, 0
2, 69966, Note_on_c, 0, 59, 62
2, 69980, Note_on_c, 0, 61, 0
2, 70169, Note_on_c, 0, 73, 68
2, 70171, Note_on_c, 0, 57, 55
2, 70216, Note_on_c, 0, 59, 0
2, 70286, Note_on_c, 0, 74, 0
2, 70348, Note_on_c, 0, 73, 0
2, 70373, Note_on_c, 0, 66, 63
2, 70461, Note_on_c, 0, 68, 64
2, 70480, Note_on_c, 0, 66, 0
2, 70527, Note_on_c, 0, 54, 60
2, 70534, Note_on_c, 0, 68, 0
2, 70537, Note_on_c, 0, 57, 0
2, 70542, Note_on_c, 0, 69, 71
2, 70622, Note_on_c, 0, 68, 77
2, 70658, Note_on_c, 0, 69, 0
2, 70708, Note_on_c, 0, 66, 82
2, 70719, Note_on_c, 0, 68, 0
2, 70920, Note_on_c, 0, 56, 62
2, 70995, Note_on_c, 0, 54, 0
2, 71118, Note_on_c, 0, 73, 82
2, 71155, Note_on_c, 0, 66, 0
2, 71325, Note_on_c, 0, 58, 60
2, 71509, Note_on_c, 0, 64, 68
2, 71509, Note_on_c, 0, 73, 0
2, 71682, Note_on_c, 0, 56, 0
2, 71704, Note_on_c, 0, 58, 0
2, 71719, Note_on_c, 0, 59, 55
2, 71919, Note_on_c, 0, 64, 0
2, 71925, Note_on_c, 0, 66, 60
2, 72020, Note_on_c, 0, 64, 67
2, 72092, Note_on_c, 0, 64, 0
2, 72094, Note_on_c, 0, 59, 0
2, 72097, Note_on_c, 0, 66, 0
2, 72098, Note_on_c, 0, 47, 53
2, 72111, Note_on_c, 0, 62, 65
2, 72216, Note_on_c, 0, 62, 0
2, 72216, Note_on_c, 0, 64, 67
2, 72305, Note_on_c, 0, 66, 65
2, 72310, Note_on_c, 0, 64, 0
2, 72485, Note_on_c, 0, 49, 49
2, 72511, Note_on_c, 0, 47, 0
2, 72676, Note_on_c, 0, 66, 0
2, 72692, Note_on_c, 0, 57, 49
2, 72882, Note_on_c, 0, 49, 0
2, 72904, Note_on_c, 0, 51, 47
2, 73086, Note_on_c, 0, 66, 52
2, 73087, Note_on_c, 0, 57, 0
2, 73310, Note_on_c, 0, 66, 0
2, 73312, Note_on_c, 0, 51, 0
2, 73313, Note_on_c, 0, 55, 47
2, 73316, Note_on_c, 0, 40, 33
2, 73483, Note_on_c, 0, 55, 0
2, 73493, Note_on_c, 0, 64, 60
2, 73575, Note_on_c, 0, 66, 62
2, 73624, Note_on_c, 0, 64, 0
2, 73650, Note_on_c, 0, 66, 0
2, 73654, Note_on_c, 0, 40, 0
2, 73657, Note_on_c, 0, 67, 68
2, 73685, Note_on_c, 0, 52, 61
2, 73762, Note_on_c, 0, 66, 78
2, 73809, Note_on_c, 0, 67, 0
2, 73843, Note_on_c, 0, 64, 75
2, 73853, Note_on_c, 0, 66, 0
2, 74050, Note_on_c, 0, 54, 70
2, 74085, Note_on_c, 0, 52, 0
2, 74258, Note_on_c, 0, 71, 81
2, 74353, Note_on_c, 0, 64, 0
2, 74448, Note_on_c, 0, 56, 67
2, 74548, Note_on_c, 0, 54, 0
2, 74651, Note_on_c, 0, 62, 76
2, 74679, Note_on_c, 0, 71, 0
2, 74866, Note_on_c, 0, 57, 62
2, 74889, Note_on_c, 0, 56, 0
2, 75046, Note_on_c, 0, 62, 0
2, 75046, Note_on_c, 0, 64, 68
2, 75152, Note_on_c, 0, 62, 60
2, 75198, Note_on_c, 0, 64, 0
2, 75213, Note_on_c, 0, 62, 0
2, 75227, Note_on_c, 0, 61, 68
2, 75228, Note_on_c, 0, 45, 54
2, 75248, Note_on_c, 0, 57, 0
2, 75326, Note_on_c, 0, 61, 0
2, 75328, Note_on_c, 0, 62, 70
2, 75444, Note_on_c, 0, 64, 60
2, 75446, Note_on_c, 0, 62, 0
2, 75618, Note_on_c, 0, 47, 50
2, 75660, Note_on_c, 0, 45, 0
2, 75812, Note_on_c, 0, 64, 0
2, 75832, Note_on_c, 0, 55, 47
2, 76018, Note_on_c, 0, 47, 0
2, 76031, Note_on_c, 0, 49, 46
2, 76196, Note_on_c, 0, 55, 0
2, 76238, Note_on_c, 0, 64, 52
2, 76443, Note_on_c, 0, 49, 0
2, 76458, Note_on_c, 0, 38, 35
2, 76458, Note_on_c, 0, 54, 44
2, 76523, Note_on_c, 0, 64, 0
2, 76659, Note_on_c, 0, 61, 53
2, 76691, Note_on_c, 0, 54, 0
2, 76864, Note_on_c, 0, 42, 46
2, 77057, Note_on_c, 0, 61, 0
2, 77058, Note_on_c, 0, 64, 63
2, 77251, Note_on_c, 0, 45, 47
2, 77302, Note_on_c, 0, 38, 0
2, 77399, Note_on_c, 0, 42, 0
2, 77437, Note_on_c, 0, 62, 54
2, 77512, Note_on_c, 0, 62, 0
2, 77526, Note_on_c, 0, 61, 60
2, 77543, Note_on_c, 0, 64, 0
2, 77611, Note_on_c, 0, 61, 0
2, 77631, Note_on_c, 0, 50, 55
2, 77631, Note_on_c, 0, 62, 66
2, 77634, Note_on_c, 0, 45, 0
2, 77724, Note_on_c, 0, 61, 68
2, 77733, Note_on_c, 0, 62, 0
2, 77784, Note_on_c, 0, 61, 0
2, 77804, Note_on_c, 0, 59, 65
2, 77861, Note_on_c, 0, 59, 0
2, 77886, Note_on_c, 0, 58, 65
2, 77974, Note_on_c, 0, 58, 0
2, 77987, Note_on_c, 0, 43, 46
2, 77994, Note_on_c, 0, 59, 69
2, 78012, Note_on_c, 0, 50, 0
2, 78200, Note_on_c, 0, 66, 73
2, 78278, Note_on_c, 0, 59, 0
2, 78393, Note_on_c, 0, 47, 58
2, 78567, Note_on_c, 0, 43, 0
2, 78571, Note_on_c, 0, 69, 70
2, 78590, Note_on_c, 0, 66, 0
2, 78773, Note_on_c, 0, 50, 63
2, 78777, Note_on_c, 0, 47, 0
2, 78963, Note_on_c, 0, 67, 61
2, 79042, Note_on_c, 0, 67, 0
2, 79045, Note_on_c, 0, 69, 0
2, 79048, Note_on_c, 0, 66, 71
2, 79121, Note_on_c, 0, 66, 0
2, 79142, Note_on_c, 0, 67, 71
2, 79157, Note_on_c, 0, 50, 0
2, 79164, Note_on_c, 0, 55, 59
2, 79219, Note_on_c, 0, 66, 76
2, 79241, Note_on_c, 0, 67, 0
2, 79288, Note_on_c, 0, 66, 0
2, 79301, Note_on_c, 0, 64, 71
2, 79384, Note_on_c, 0, 64, 0
2, 79394, Note_on_c, 0, 62, 72
2, 79491, Note_on_c, 0, 62, 0
2, 79507, Note_on_c, 0, 49, 58
2, 79507, Note_on_c, 0, 64, 83
2, 79511, Note_on_c, 0, 55, 0
2, 79724, Note_on_c, 0, 71, 82
2, 79828, Note_on_c, 0, 64, 0
2, 79907, Note_on_c, 0, 52, 65
2, 80097, Note_on_c, 0, 74, 80
2, 80123, Note_on_c, 0, 71, 0
2, 80276, Note_on_c, 0, 49, 0
2, 80286, Note_on_c, 0, 55, 61
2, 80453, Note_on_c, 0, 52, 0
2, 80474, Note_on_c, 0, 73, 78
2, 80487, Note_on_c, 0, 74, 0
2, 80552, Note_on_c, 0, 73, 0
2, 80571, Note_on_c, 0, 71, 75
2, 80628, Note_on_c, 0, 61, 63
2, 80631, Note_on_c, 0, 55, 0
2, 80656, Note_on_c, 0, 71, 0
2, 80659, Note_on_c, 0, 73, 81
2, 80740, Note_on_c, 0, 73, 0
2, 80751, Note_on_c, 0, 71, 78
2, 80830, Note_on_c, 0, 71, 0
2, 80831, Note_on_c, 0, 70, 81
2, 80915, Note_on_c, 0, 70, 0
2, 80923, Note_on_c, 0, 68, 78
2, 81001, Note_on_c, 0, 61, 0
2, 81010, Note_on_c, 0, 54, 60
2, 81037, Note_on_c, 0, 70, 76
2, 81097, Note_on_c, 0, 68, 0
2, 81232, Note_on_c, 0, 76, 79
2, 81263, Note_on_c, 0, 70, 0
2, 81411, Note_on_c, 0, 58, 70
2, 81622, Note_on_c, 0, 79, 83
2, 81664, Note_on_c, 0, 76, 0
2, 81827, Note_on_c, 0, 61, 66
2, 81863, Note_on_c, 0, 54, 0
2, 81962, Note_on_c, 0, 58, 0
2, 82012, Note_on_c, 0, 78, 75
2, 82067, Note_on_c, 0, 79, 0
2, 82091, Note_on_c, 0, 78, 0
2, 82103, Note_on_c, 0, 76, 71
2, 82209, Note_on_c, 0, 78, 81
2, 82210, Note_on_c, 0, 76, 0
2, 82222, Note_on_c, 0, 66, 66
2, 82270, Note_on_c, 0, 61, 0
2, 82286, Note_on_c, 0, 78, 0
2, 82302, Note_on_c, 0, 76, 76
2, 82379, Note_on_c, 0, 76, 0
2, 82381, Note_on_c, 0, 74, 76
2, 82469, Note_on_c, 0, 73, 82
2, 82471, Note_on_c, 0, 74, 0
2, 82531, Note_on_c, 0, 66, 0
2, 82559, Note_on_c, 0, 59, 59
2, 82569, Note_on_c, 0, 74, 82
2, 82584, Note_on_c, 0, 73, 0
2, 82751, Note_on_c, 0, 70, 78
2, 82801, Note_on_c, 0, 74, 0
2, 82948, Note_on_c, 0, 67, 70
2, 83068, Note_on_c, 0, 59, 0
2, 83107, Note_on_c, 0, 70, 0
2, 83116, Note_on_c, 0, 71, 76
2, 83316, Note_on_c, 0, 67, 0
2, 83316, Note_on_c, 0, 73, 79
2, 83322, Note_on_c, 0, 57, 52
2, 83378, Note_on_c, 0, 71, 0
2, 83512, Note_on_c, 0, 67, 69
2, 83592, Note_on_c, 0, 75, 73
2, 83609, Note_on_c, 0, 73, 0
2, 83678, Note_on_c, 0, 75, 0
2, 83686, Note_on_c, 0, 76, 69
2, 83697, Note_on_c, 0, 66, 76
2, 83702, Note_on_c, 0, 57, 0
2, 83716, Note_on_c, 0, 67, 0
2, 83777, Note_on_c, 0, 75, 80
2, 83793, Note_on_c, 0, 66, 0
2, 83853, Note_on_c, 0, 75, 0
2, 83872, Note_on_c, 0, 73, 80
2, 83872, Note_on_c, 0, 76, 0
2, 83885, Note_on_c, 0, 57, 51
2, 83966, Note_on_c, 0, 75, 77
2, 84064, Note_on_c, 0, 73, 0
2, 84069, Note_on_c, 0, 57, 0
2, 84075, Note_on_c, 0, 55, 61
2, 84076, Note_on_c, 0, 76, 80
2, 84097, Note_on_c, 0, 75, 0
2, 84263, Note_on_c, 0, 70, 75
2, 84277, Note_on_c, 0, 76, 0
2, 84456, Note_on_c, 0, 64, 70
2, 84549, Note_on_c, 0, 55, 0
2, 84648, Note_on_c, 0, 70, 0
2, 84648, Note_on_c, 0, 71, 73
2, 84851, Note_on_c, 0, 64, 0
2, 84853, Note_on_c, 0, 54, 60
2, 84855, Note_on_c, 0, 74, 72
2, 84894, Note_on_c, 0, 71, 0
2, 85029, Note_on_c, 0, 70, 78
2, 85044, Note_on_c, 0, 64, 69
2, 85214, Note_on_c, 0, 62, 75
2, 85229, Note_on_c, 0, 64, 0
2, 85233, Note_on_c, 0, 54, 0
2, 85360, Note_on_c, 0, 74, 0
2, 85386, Note_on_c, 0, 70, 0
2, 85397, Note_on_c, 0, 62, 0
2, 85408, Note_on_c, 0, 54, 58
2, 85409, Note_on_c, 0, 71, 77
2, 85614, Note_on_c, 0, 52, 62
2, 85615, Note_on_c, 0, 79, 77
2, 85616, Note_on_c, 0, 54, 0
2, 85670, Note_on_c, 0, 71, 0
2, 85694, Note_on_c, 0, 78, 75
2, 85777, Note_on_c, 0, 76, 80
2, 85783, Note_on_c, 0, 79, 0
2, 85799, Note_on_c, 0, 62, 71
2, 85824, Note_on_c, 0, 78, 0
2, 85941, Control_c, 0, 64, 46
2, 85957, Control_c, 0, 64, 61
2, 85972, Control_c, 0, 64, 67
2, 85984, Note_on_c, 0, 60, 74
2, 85988, Control_c, 0, 64, 72
2, 85992, Note_on_c, 0, 62, 0
2, 85995, Note_on_c, 0, 52, 0
2, 86003, Control_c, 0, 64, 77
2, 86018, Control_c, 0, 64, 85
2, 86027, Note_on_c, 0, 76, 0
2, 86034, Control_c, 0, 64, 94
2, 86056, Control_c, 0, 64, 103
2, 86072, Control_c, 0, 64, 107
2, 86087, Control_c, 0, 64, 108
2, 86126, Note_on_c, 0, 60, 0
2, 86148, Control_c, 0, 64, 106
2, 86163, Control_c, 0, 64, 92
2, 86174, Note_on_c, 0, 76, 81
2, 86177, Control_c, 0, 64, 77
2, 86182, Note_on_c, 0, 52, 54
2, 86193, Control_c, 0, 64, 61
2, 86208, Control_c, 0, 64, 0
2, 86381, Note_on_c, 0, 52, 0
2, 86392, Note_on_c, 0, 50, 61
2, 86470, Note_on_c, 0, 76, 0
2, 86474, Note_on_c, 0, 78, 76
2, 86569, Note_on_c, 0, 76, 81
2, 86576, Note_on_c, 0, 60, 75
2, 86658, Note_on_c, 0, 75, 86
2, 86664, Note_on_c, 0, 76, 0
2, 86675, Note_on_c, 0, 78, 0
2, 86731, Note_on_c, 0, 50, 0
2, 86743, Note_on_c, 0, 59, 61
2, 86767, Note_on_c, 0, 76, 78
2, 86776, Note_on_c, 0, 60, 0
2, 86782, Note_on_c, 0, 75, 0
2, 86820, Note_on_c, 0, 76, 0
2, 86969, Note_on_c, 0, 76, 79
2, 86987, Note_on_c, 0, 50, 61
2, 86987, Note_on_c, 0, 59, 0
2, 87150, Note_on_c, 0, 50, 0
2, 87192, Note_on_c, 0, 49, 69
2, 87283, Note_on_c, 0, 69, 77
2, 87362, Note_on_c, 0, 76, 0
2, 87375, Note_on_c, 0, 69, 0
2, 87384, Note_on_c, 0, 67, 83
2, 87409, Note_on_c, 0, 58, 63
2, 87501, Note_on_c, 0, 66, 79
2, 87517, Note_on_c, 0, 67, 0
2, 87631, Note_on_c, 0, 66, 0
2, 87636, Note_on_c, 0, 58, 0
2, 87636, Note_on_c, 0, 67, 81
2, 87637, Note_on_c, 0, 59, 69
2, 87646, Note_on_c, 0, 49, 0
2, 87729, Control_c, 0, 64, 30
2, 87744, Control_c, 0, 64, 49
2, 87760, Control_c, 0, 64, 56
2, 87775, Control_c, 0, 64, 59
2, 87790, Control_c, 0, 64, 61
2, 87805, Control_c, 0, 64, 63
2, 87820, Control_c, 0, 64, 64
2, 87836, Control_c, 0, 64, 65
2, 87841, Note_on_c, 0, 76, 80
2, 87851, Control_c, 0, 64, 66
2, 87854, Note_on_c, 0, 49, 69
2, 87862, Note_on_c, 0, 67, 0
2, 87865, Control_c, 0, 64, 67
2, 87887, Note_on_c, 0, 59, 0
2, 88034, Control_c, 0, 64, 66
2, 88049, Control_c, 0, 64, 62
2, 88049, Note_on_c, 0, 49, 0
2, 88063, Control_c, 0, 64, 32
2, 88073, Note_on_c, 0, 47, 71
2, 88079, Control_c, 0, 64, 0
2, 88139, Control_c, 0, 64, 51
2, 88155, Control_c, 0, 64, 60
2, 88170, Control_c, 0, 64, 63
2, 88185, Control_c, 0, 64, 65
2, 88200, Control_c, 0, 64, 69
2, 88215, Control_c, 0, 64, 74
2, 88231, Control_c, 0, 64, 81
2, 88246, Control_c, 0, 64, 92
2, 88261, Control_c, 0, 64, 110
2, 88276, Control_c, 0, 64, 127
2, 88299, Note_on_c, 0, 64, 80
2, 88299, Note_on_c, 0, 67, 81
2, 88314, Note_on_c, 0, 58, 72
2, 88464, Note_on_c, 0, 76, 0
2, 88513, Note_on_c, 0, 58, 0
2, 88541, Note_on_c, 0, 67, 0
2, 88545, Note_on_c, 0, 47, 0
2, 88545, Note_on_c, 0, 64, 0
2, 88557, Note_on_c, 0, 59, 73
2, 88585, Note_on_c, 0, 59, 0
2, 88785, Note_on_c, 0, 67, 82
2, 88788, Note_on_c, 0, 47, 61
2, 88792, Note_on_c, 0, 64, 79
2, 88832, Control_c, 0, 64, 87
2, 88847, Control_c, 0, 64, 66
2, 88862, Control_c, 0, 64, 0
2, 89129, Note_on_c, 0, 46, 60
2, 89162, Note_on_c, 0, 47, 0
2, 89554, Control_c, 0, 64, 49
2, 89557, Note_on_c, 0, 66, 75
2, 89569, Control_c, 0, 64, 63
2, 89584, Control_c, 0, 64, 68
2, 89585, Note_on_c, 0, 67, 0
2, 89599, Control_c, 0, 64, 75
2, 89614, Control_c, 0, 64, 88
2, 89630, Control_c, 0, 64, 127
2, 89775, Note_on_c, 0, 74, 86
2, 89801, Note_on_c, 0, 66, 0
2, 89839, Note_on_c, 0, 74, 0
2, 90110, Control_c, 0, 64, 117
2, 90114, Note_on_c, 0, 74, 84
2, 90125, Control_c, 0, 64, 88
2, 90139, Control_c, 0, 64, 71
2, 90155, Control_c, 0, 64, 57
2, 90170, Control_c, 0, 64, 0
2, 90387, Note_on_c, 0, 73, 84
2, 90476, Note_on_c, 0, 74, 0
2, 92014, Note_on_c, 0, 64, 0
2, 92089, Note_on_c, 0, 46, 0
2, 92102, Note_on_c, 0, 73, 0
2, 93060, Note_on_c, 0, 64, 42
2, 93191, Note_on_c, 0, 66, 48
2, 93205, Note_on_c, 0, 64, 0
2, 93274, Note_on_c, 0, 66, 0
2, 93318, Note_on_c, 0, 58, 45
2, 93319, Note_on_c, 0, 67, 46
2, 93406, Note_on_c, 0, 66, 62
2, 93488, Note_on_c, 0, 67, 0
2, 93514, Note_on_c, 0, 64, 62
2, 93609, Note_on_c, 0, 66, 0
2, 93674, Note_on_c, 0, 58, 0
2, 93687, Note_on_c, 0, 64, 0
2, 93708, Note_on_c, 0, 59, 56
2, 93723, Note_on_c, 0, 62, 62
2, 93923, Note_on_c, 0, 66, 73
2, 94118, Note_on_c, 0, 55, 55
2, 94124, Note_on_c, 0, 70, 69
2, 94136, Note_on_c, 0, 62, 0
2, 94163, Note_on_c, 0, 59, 0
2, 94307, Note_on_c, 0, 71, 75
2, 94371, Note_on_c, 0, 70, 0
2, 94389, Note_on_c, 0, 66, 0
2, 94503, Note_on_c, 0, 52, 56
2, 94509, Note_on_c, 0, 55, 0
2, 94521, Note_on_c, 0, 71, 0
2, 94521, Note_on_c, 0, 74, 72
2, 94702, Note_on_c, 0, 73, 69
2, 94723, Note_on_c, 0, 74, 0
2, 94877, Note_on_c, 0, 73, 0
2, 94882, Note_on_c, 0, 52, 0
2, 94888, Note_on_c, 0, 71, 62
2, 94905, Note_on_c, 0, 54, 51
2, 95080, Note_on_c, 0, 70, 59
2, 95081, Note_on_c, 0, 71, 0
2, 95304, Note_on_c, 0, 71, 57
2, 95314, Note_on_c, 0, 70, 0
2, 95315, Note_on_c, 0, 50, 47
2, 95328, Note_on_c, 0, 54, 0
2, 95499, Note_on_c, 0, 50, 0
2, 95502, Note_on_c, 0, 54, 46
2, 95700, Note_on_c, 0, 47, 46
2, 95704, Note_on_c, 0, 66, 60
2, 95768, Note_on_c, 0, 71, 0
2, 95892, Note_on_c, 0, 49, 63
2, 95921, Note_on_c, 0, 54, 0
2, 95996, Note_on_c, 0, 47, 0
2, 96073, Note_on_c, 0, 66, 0
2, 96088, Note_on_c, 0, 50, 61
2, 96104, Note_on_c, 0, 67, 58
2, 96117, Note_on_c, 0, 49, 0
2, 96178, Note_on_c, 0, 67, 0
2, 96191, Note_on_c, 0, 66, 64
2, 96233, Note_on_c, 0, 66, 0
2, 96253, Note_on_c, 0, 65, 68
2, 96278, Note_on_c, 0, 50, 0
2, 96297, Note_on_c, 0, 54, 57
2, 96325, Note_on_c, 0, 65, 0
2, 96337, Note_on_c, 0, 66, 64
2, 96478, Note_on_c, 0, 74, 62
2, 96495, Note_on_c, 0, 47, 44
2, 96579, Note_on_c, 0, 54, 0
2, 96614, Note_on_c, 0, 66, 0
2, 96696, Note_on_c, 0, 47, 0
2, 96697, Note_on_c, 0, 50, 53
2, 96907, Note_on_c, 0, 49, 55
2, 96909, Note_on_c, 0, 50, 0
2, 96915, Note_on_c, 0, 74, 0
2, 97089, Note_on_c, 0, 54, 64
2, 97143, Note_on_c, 0, 49, 0
2, 97253, Note_on_c, 0, 54, 0
2, 97260, Note_on_c, 0, 66, 66
2, 97276, Note_on_c, 0, 55, 59
2, 97328, Note_on_c, 0, 55, 0
2, 97356, Note_on_c, 0, 54, 65
2, 97407, Note_on_c, 0, 54, 0
2, 97434, Note_on_c, 0, 53, 67
2, 97530, Note_on_c, 0, 54, 66
2, 97532, Note_on_c, 0, 53, 0
2, 97636, Note_on_c, 0, 66, 0
2, 97652, Note_on_c, 0, 54, 0
2, 97652, Note_on_c, 0, 58, 68
2, 97653, Note_on_c, 0, 67, 70
2, 97743, Note_on_c, 0, 66, 80
2, 97754, Note_on_c, 0, 67, 0
2, 97815, Note_on_c, 0, 66, 0
2, 97817, Note_on_c, 0, 58, 0
2, 97828, Note_on_c, 0, 65, 76
2, 97832, Note_on_c, 0, 54, 68
2, 97909, Note_on_c, 0, 65, 0
2, 97919, Note_on_c, 0, 66, 71
2, 98045, Note_on_c, 0, 61, 57
2, 98051, Note_on_c, 0, 76, 61
2, 98077, Note_on_c, 0, 54, 0
2, 98239, Note_on_c, 0, 61, 0
2, 98247, Note_on_c, 0, 66, 0
2, 98248, Note_on_c, 0, 52, 60
2, 98416, Note_on_c, 0, 76, 0
2, 98443, Note_on_c, 0, 50, 68
2, 98478, Note_on_c, 0, 52, 0
2, 98637, Note_on_c, 0, 50, 0
2, 98648, Note_on_c, 0, 54, 66
2, 98840, Note_on_c, 0, 66, 77
2, 98854, Note_on_c, 0, 47, 56
2, 99041, Note_on_c, 0, 49, 66
2, 99044, Note_on_c, 0, 54, 0
2, 99227, Note_on_c, 0, 66, 0
2, 99234, Note_on_c, 0, 50, 69
2, 99242, Note_on_c, 0, 67, 72
2, 99250, Note_on_c, 0, 47, 0
2, 99272, Note_on_c, 0, 49, 0
2, 99338, Note_on_c, 0, 66, 80
2, 99365, Note_on_c, 0, 67, 0
2, 99410, Note_on_c, 0, 66, 0
2, 99416, Note_on_c, 0, 54, 65
2, 99424, Note_on_c, 0, 65, 69
2, 99444, Note_on_c, 0, 50, 0
2, 99494, Note_on_c, 0, 66, 77
2, 99498, Note_on_c, 0, 65, 0
2, 99533, Note_on_c, 0, 66, 0
2, 99619, Note_on_c, 0, 47, 64
2, 99627, Note_on_c, 0, 78, 86
2, 99630, Control_c, 0, 64, 37
2, 99643, Note_on_c, 0, 54, 0
2, 99645, Control_c, 0, 64, 58
2, 99659, Control_c, 0, 64, 64
2, 99675, Control_c, 0, 64, 70
2, 99690, Control_c, 0, 64, 78
2, 99705, Control_c, 0, 64, 95
2, 99721, Control_c, 0, 64, 127
2, 99804, Note_on_c, 0, 69, 81
2, 99804, Note_on_c, 0, 78, 0
2, 99815, Note_on_c, 0, 49, 70
2, 99816, Note_on_c, 0, 47, 0
2, 99842, Note_on_c, 0, 69, 0
2, 100033, Note_on_c, 0, 49, 0
2, 100038, Note_on_c, 0, 50, 69
2, 100049, Note_on_c, 0, 59, 68
2, 100119, Note_on_c, 0, 64, 78
2, 100121, Control_c, 0, 64, 99
2, 100136, Control_c, 0, 64, 81
2, 100151, Control_c, 0, 64, 68
2, 100166, Control_c, 0, 64, 51
2, 100181, Control_c, 0, 64, 0
2, 100198, Note_on_c, 0, 69, 80
2, 100709, Note_on_c, 0, 50, 0
2, 100712, Note_on_c, 0, 68, 53
2, 100715, Note_on_c, 0, 38, 35
2, 100828, Note_on_c, 0, 69, 0
2, 100947, Control_c, 0, 64, 50
2, 100963, Control_c, 0, 64, 60
2, 100978, Control_c, 0, 64, 64
2, 100993, Control_c, 0, 64, 69
2, 101008, Control_c, 0, 64, 77
2, 101023, Control_c, 0, 64, 91
2, 101038, Control_c, 0, 64, 105
2, 101054, Control_c, 0, 64, 122
2, 101069, Control_c, 0, 64, 127
2, 101077, Note_on_c, 0, 59, 0
2, 101169, Note_on_c, 0, 64, 0
2, 101181, Note_on_c, 0, 38, 0
2, 101189, Note_on_c, 0, 68, 0
2, 101252, Control_c, 0, 64, 114
2, 101267, Control_c, 0, 64, 105
2, 101283, Control_c, 0, 64, 97
2, 101297, Control_c, 0, 64, 87
2, 101312, Control_c, 0, 64, 79
2, 101328, Control_c, 0, 64, 72
2, 101342, Control_c, 0, 64, 66
2, 101357, Control_c, 0, 64, 61
2, 101373, Control_c, 0, 64, 49
2, 101388, Control_c, 0, 64, 31
2, 101411, Control_c, 0, 64, 0
2, 101637, Note_on_c, 0, 68, 70
2, 101741, Note_on_c, 0, 70, 74
2, 101752, Note_on_c, 0, 68, 0
2, 101787, Note_on_c, 0, 70, 0
2, 101818, Note_on_c, 0, 50, 61
2, 101833, Note_on_c, 0, 71, 81
2, 101907, Note_on_c, 0, 73, 83
2, 101939, Note_on_c, 0, 71, 0
2, 101991, Note_on_c, 0, 75, 72
2, 102056, Note_on_c, 0, 76, 79
2, 102069, Note_on_c, 0, 73, 0
2, 102087, Note_on_c, 0, 75, 0
2, 102096, Note_on_c, 0, 50, 0
2, 102129, Note_on_c, 0, 49, 67
2, 102178, Note_on_c, 0, 76, 0
2, 102199, Note_on_c, 0, 64, 76
2, 102266, Note_on_c, 0, 67, 73
2, 102331, Note_on_c, 0, 71, 80
2, 102793, Note_on_c, 0, 61, 42
2, 102805, Note_on_c, 0, 70, 63
2, 102869, Note_on_c, 0, 71, 0
2, 103059, Note_on_c, 0, 49, 0
2, 103132, Note_on_c, 0, 64, 0
2, 103173, Note_on_c, 0, 61, 0
2, 103191, Note_on_c, 0, 67, 0
2, 103236, Note_on_c, 0, 70, 0
2, 103528, Note_on_c, 0, 61, 66
2, 103531, Note_on_c, 0, 70, 73
2, 103619, Note_on_c, 0, 71, 79
2, 103621, Note_on_c, 0, 62, 71
2, 103647, Note_on_c, 0, 61, 0
2, 103658, Note_on_c, 0, 70, 0
2, 103695, Note_on_c, 0, 62, 0
2, 103710, Note_on_c, 0, 71, 0
2, 103718, Note_on_c, 0, 64, 75
2, 103723, Note_on_c, 0, 73, 77
2, 103792, Note_on_c, 0, 64, 0
2, 103797, Note_on_c, 0, 62, 71
2, 103804, Note_on_c, 0, 71, 82
2, 103881, Note_on_c, 0, 61, 71
2, 103884, Note_on_c, 0, 73, 0
2, 103888, Note_on_c, 0, 62, 0
2, 103891, Note_on_c, 0, 70, 79
2, 103909, Note_on_c, 0, 71, 0
2, 103958, Note_on_c, 0, 61, 0
2, 103959, Note_on_c, 0, 59, 74
2, 104062, Note_on_c, 0, 68, 76
2, 104074, Note_on_c, 0, 70, 0
2, 104118, Note_on_c, 0, 71, 75
2, 104212, Note_on_c, 0, 74, 79
2, 104224, Note_on_c, 0, 59, 0
2, 104232, Control_c, 0, 64, 54
2, 104248, Control_c, 0, 64, 66
2, 104263, Control_c, 0, 64, 74
2, 104278, Control_c, 0, 64, 86
2, 104294, Control_c, 0, 64, 112
2, 104301, Note_on_c, 0, 77, 86
2, 104309, Control_c, 0, 64, 127
2, 104315, Note_on_c, 0, 71, 0
2, 104473, Note_on_c, 0, 58, 68
2, 104484, Note_on_c, 0, 68, 0
2, 104575, Control_c, 0, 64, 118
2, 104590, Control_c, 0, 64, 95
2, 104605, Control_c, 0, 64, 83
2, 104620, Control_c, 0, 64, 72
2, 104624, Note_on_c, 0, 61, 69
2, 104635, Control_c, 0, 64, 63
2, 104650, Control_c, 0, 64, 35
2, 104665, Control_c, 0, 64, 0
2, 104765, Note_on_c, 0, 66, 74
2, 104805, Note_on_c, 0, 77, 0
2, 104911, Note_on_c, 0, 73, 81
2, 104915, Note_on_c, 0, 74, 0
2, 105330, Note_on_c, 0, 78, 74
2, 105910, Note_on_c, 0, 61, 0
2, 105990, Note_on_c, 0, 66, 0
2, 105991, Note_on_c, 0, 58, 0
2, 105995, Note_on_c, 0, 78, 0
2, 106107, Note_on_c, 0, 73, 0
2, 106478, Note_on_c, 0, 54, 59
2, 106599, Note_on_c, 0, 56, 60
2, 106698, Note_on_c, 0, 58, 63
2, 106709, Note_on_c, 0, 54, 0
2, 106808, Note_on_c, 0, 56, 0
2, 106813, Note_on_c, 0, 59, 61
2, 106846, Note_on_c, 0, 58, 0
2, 106915, Note_on_c, 0, 59, 0
2, 106931, Note_on_c, 0, 61, 63
2, 107173, Note_on_c, 0, 50, 57
2, 107207, Note_on_c, 0, 61, 0
2, 107404, Note_on_c, 0, 71, 68
2, 107507, Note_on_c, 0, 69, 70
2, 107556, Note_on_c, 0, 71, 0
2, 107614, Note_on_c, 0, 69, 0
2, 107631, Note_on_c, 0, 67, 72
2, 107639, Note_on_c, 0, 52, 52
2, 107715, Note_on_c, 0, 50, 0
2, 107756, Note_on_c, 0, 66, 73
2, 107763, Note_on_c, 0, 67, 0
2, 107883, Note_on_c, 0, 64, 74
2, 107894, Note_on_c, 0, 66, 0
2, 108202, Note_on_c, 0, 54, 48
2, 108206, Note_on_c, 0, 62, 65
2, 108227, Note_on_c, 0, 64, 0
2, 108246, Note_on_c, 0, 52, 0
2, 108567, Note_on_c, 0, 71, 66
2, 108589, Note_on_c, 0, 62, 0
2, 109022, Note_on_c, 0, 64, 57
2, 109036, Note_on_c, 0, 61, 49
2, 109040, Note_on_c, 0, 42, 35
2, 109064, Note_on_c, 0, 71, 0
2, 109137, Note_on_c, 0, 54, 0
2, 109631, Note_on_c, 0, 70, 58
2, 109642, Control_c, 0, 64, 26
2, 109657, Control_c, 0, 64, 52
2, 109671, Control_c, 0, 64, 62
2, 109687, Control_c, 0, 64, 66
2, 109702, Control_c, 0, 64, 73
2, 109717, Control_c, 0, 64, 86
2, 109732, Control_c, 0, 64, 112
2, 109748, Control_c, 0, 64, 127
2, 109771, Note_on_c, 0, 61, 0
2, 109818, Note_on_c, 0, 70, 0
2, 109821, Note_on_c, 0, 64, 0
2, 110440, Control_c, 0, 64, 111
2, 110455, Control_c, 0, 64, 100
2, 110464, Note_on_c, 0, 47, 25
2, 110468, Control_c, 0, 64, 92
2, 110484, Control_c, 0, 64, 85
2, 110499, Control_c, 0, 64, 77
2, 110501, Note_on_c, 0, 71, 56
2, 110509, Note_on_c, 0, 66, 49
2, 110513, Control_c, 0, 64, 69
2, 110518, Note_on_c, 0, 62, 40
2, 110522, Note_on_c, 0, 59, 38
2, 110529, Control_c, 0, 64, 61
2, 110544, Control_c, 0, 64, 19
2, 110561, Control_c, 0, 64, 0
2, 110601, Note_on_c, 0, 42, 0
2, 113053, Note_on_c, 0, 71, 0
2, 113074, Note_on_c, 0, 59, 0
2, 113119, Note_on_c, 0, 66, 0
2, 113129, Note_on_c, 0, 47, 0
2, 113142, Note_on_c, 0, 62, 0
2, 115339,End_track
0, 0, End_of_file
