0, 0, Header, 1, 2, 384
1, 0, Start_track
1, 0, Tempo, 500000
1, 0, Time_signature, 4, 2, 24, 8
1, 1, End_track
2,0,Start_track
2,0, Note_on_c, 0, 66, 78
2,29, Note_on_c, 0, 66, 0
2,235, Note_on_c, 0, 62, 82
2,267, Note_on_c, 0, 62, 0
2,481, Note_on_c, 0, 59, 80
2,508, Note_on_c, 0, 59, 0
2,729, Note_on_c, 0, 58, 81
2,753, Note_on_c, 0, 58, 0
2,993, Note_on_c, 0, 59, 84
2,1254, Note_on_c, 0, 59, 0
2,1264, Note_on_c, 0, 61, 79
2,1361, Note_on_c, 0, 62, 78
2,1392, Note_on_c, 0, 61, 0
2,1474, Note_on_c, 0, 62, 0
2,1482, Note_on_c, 0, 64, 78
2,1588, Note_on_c, 0, 64, 0
2,1590, Note_on_c, 0, 66, 78
2,1712, Note_on_c, 0, 66, 0
2,1726, Note_on_c, 0, 67, 88
2,1816, Note_on_c, 0, 67, 0
2,1979, Note_on_c, 0, 55, 68
2,2031, Note_on_c, 0, 55, 0
2,2212, Note_on_c, 0, 67, 77
2,2248, Note_on_c, 0, 67, 0
2,2452, Note_on_c, 0, 66, 86
2,2566, Note_on_c, 0, 66, 0
2,2683, Note_on_c, 0, 54, 72
2,2710, Note_on_c, 0, 54, 0
2,2928, Note_on_c, 0, 66, 84
2,2971, Note_on_c, 0, 66, 0
2,3181, Note_on_c, 0, 64, 80
2,3392, Note_on_c, 0, 64, 0
2,3416, Note_on_c, 0, 66, 66
2,3505, Note_on_c, 0, 66, 0
2,3512, Note_on_c, 0, 64, 75
2,3633, Note_on_c, 0, 62, 72
2,3636, Note_on_c, 0, 64, 0
2,3747, Note_on_c, 0, 61, 75
2,3749, Note_on_c, 0, 62, 0
2,3878, Note_on_c, 0, 62, 75
2,3924, Note_on_c, 0, 61, 0
2,3983, Note_on_c, 0, 66, 76
2,3997, Note_on_c, 0, 62, 0
2,4055, Note_on_c, 0, 66, 0
2,4082, Note_on_c, 0, 64, 73
2,4193, Note_on_c, 0, 64, 0
2,4212, Note_on_c, 0, 62, 64
2,4326, Note_on_c, 0, 61, 69
2,4326, Note_on_c, 0, 62, 0
2,4330, Note_on_c, 0, 71, 85
2,4374, Note_on_c, 0, 71, 0
2,4439, Note_on_c, 0, 61, 0
2,4452, Note_on_c, 0, 59, 59
2,4554, Note_on_c, 0, 69, 78
2,4565, Note_on_c, 0, 61, 70
2,4584, Note_on_c, 0, 59, 0
2,4587, Note_on_c, 0, 69, 0
2,4678, Note_on_c, 0, 61, 0
2,4698, Note_on_c, 0, 59, 57
2,4783, Note_on_c, 0, 66, 85
2,4798, Note_on_c, 0, 61, 70
2,4832, Note_on_c, 0, 66, 0
2,4907, Note_on_c, 0, 62, 69
2,4911, Note_on_c, 0, 61, 0
2,4928, Note_on_c, 0, 59, 0
2,5013, Note_on_c, 0, 65, 80
2,5024, Note_on_c, 0, 61, 74
2,5046, Note_on_c, 0, 65, 0
2,5048, Note_on_c, 0, 62, 0
2,5143, Note_on_c, 0, 59, 63
2,5145, Note_on_c, 0, 61, 0
2,5240, Note_on_c, 0, 59, 0
2,5260, Note_on_c, 0, 66, 79
2,5281, Note_on_c, 0, 57, 67
2,5310, Note_on_c, 0, 57, 0
2,5516, Note_on_c, 0, 68, 71
2,5520, Note_on_c, 0, 54, 67
2,5543, Note_on_c, 0, 66, 0
2,5547, Note_on_c, 0, 54, 0
2,5601, Note_on_c, 0, 68, 0
2,5627, Note_on_c, 0, 69, 75
2,5751, Note_on_c, 0, 53, 66
2,5752, Note_on_c, 0, 71, 81
2,5773, Note_on_c, 0, 69, 0
2,5783, Note_on_c, 0, 53, 0
2,5863, Note_on_c, 0, 73, 86
2,5898, Note_on_c, 0, 71, 0
2,5981, Note_on_c, 0, 74, 80
2,5991, Note_on_c, 0, 73, 0
2,6000, Note_on_c, 0, 54, 65
2,6054, Note_on_c, 0, 74, 0
2,6097, Note_on_c, 0, 54, 0
2,6104, Note_on_c, 0, 56, 65
2,6189, Note_on_c, 0, 56, 0
2,6217, Note_on_c, 0, 57, 66
2,6230, Note_on_c, 0, 62, 73
2,6257, Note_on_c, 0, 57, 0
2,6264, Note_on_c, 0, 62, 0
2,6294, Note_on_c, 0, 56, 65
2,6332, Note_on_c, 0, 56, 0
2,6357, Note_on_c, 0, 57, 68
2,6398, Note_on_c, 0, 57, 0
2,6412, Note_on_c, 0, 56, 69
2,6473, Note_on_c, 0, 74, 75
2,6474, Note_on_c, 0, 56, 0
2,6483, Note_on_c, 0, 57, 77
2,6516, Note_on_c, 0, 74, 0
2,6555, Note_on_c, 0, 57, 0
2,6556, Note_on_c, 0, 54, 70
2,6602, Note_on_c, 0, 56, 66
2,6628, Note_on_c, 0, 54, 0
2,6686, Note_on_c, 0, 56, 0
2,6712, Note_on_c, 0, 57, 76
2,6727, Note_on_c, 0, 73, 88
2,6831, Note_on_c, 0, 73, 0
2,6848, Note_on_c, 0, 57, 0
2,6851, Note_on_c, 0, 59, 74
2,6940, Note_on_c, 0, 59, 0
2,6979, Note_on_c, 0, 57, 67
2,6979, Note_on_c, 0, 61, 76
2,7019, Note_on_c, 0, 61, 0
2,7097, Note_on_c, 0, 57, 0
2,7099, Note_on_c, 0, 56, 66
2,7228, Note_on_c, 0, 54, 70
2,7232, Note_on_c, 0, 56, 0
2,7235, Note_on_c, 0, 73, 85
2,7292, Note_on_c, 0, 73, 0
2,7327, Note_on_c, 0, 54, 0
2,7360, Note_on_c, 0, 52, 54
2,7454, Note_on_c, 0, 52, 0
2,7465, Note_on_c, 0, 71, 77
2,7473, Note_on_c, 0, 51, 61
2,7579, Note_on_c, 0, 51, 0
2,7605, Note_on_c, 0, 53, 59
2,7707, Note_on_c, 0, 53, 0
2,7722, Note_on_c, 0, 54, 66
2,7726, Note_on_c, 0, 71, 0
2,7730, Note_on_c, 0, 73, 77
2,7757, Note_on_c, 0, 54, 0
2,7790, Note_on_c, 0, 53, 59
2,7832, Note_on_c, 0, 53, 0
2,7840, Note_on_c, 0, 54, 74
2,7843, Note_on_c, 0, 71, 75
2,7885, Note_on_c, 0, 54, 0
2,7903, Note_on_c, 0, 73, 0
2,7911, Note_on_c, 0, 53, 71
2,7936, Note_on_c, 0, 71, 0
2,7949, Note_on_c, 0, 53, 0
2,7965, Note_on_c, 0, 69, 66
2,7990, Note_on_c, 0, 51, 64
2,8027, Note_on_c, 0, 51, 0
2,8046, Note_on_c, 0, 53, 68
2,8048, Note_on_c, 0, 69, 0
2,8070, Note_on_c, 0, 68, 71
2,8092, Note_on_c, 0, 53, 0
2,8133, Note_on_c, 0, 54, 70
2,8186, Note_on_c, 0, 68, 0
2,8204, Note_on_c, 0, 69, 74
2,8215, Note_on_c, 0, 54, 0
2,8340, Note_on_c, 0, 73, 81
2,8356, Note_on_c, 0, 69, 0
2,8460, Note_on_c, 0, 56, 66
2,8467, Note_on_c, 0, 71, 82
2,8499, Note_on_c, 0, 56, 0
2,8552, Note_on_c, 0, 73, 0
2,8583, Note_on_c, 0, 71, 0
2,8585, Note_on_c, 0, 69, 76
2,8708, Note_on_c, 0, 68, 78
2,8710, Note_on_c, 0, 57, 60
2,8718, Note_on_c, 0, 69, 0
2,8746, Note_on_c, 0, 57, 0
2,8815, Note_on_c, 0, 66, 81
2,8829, Note_on_c, 0, 68, 0
2,8952, Note_on_c, 0, 67, 79
2,8953, Note_on_c, 0, 59, 62
2,8992, Note_on_c, 0, 66, 0
2,9042, Note_on_c, 0, 61, 66
2,9044, Note_on_c, 0, 59, 0
2,9158, Note_on_c, 0, 61, 0
2,9176, Note_on_c, 0, 62, 67
2,9186, Note_on_c, 0, 67, 0
2,9198, Note_on_c, 0, 69, 73
2,9216, Note_on_c, 0, 62, 0
2,9254, Note_on_c, 0, 61, 67
2,9295, Note_on_c, 0, 67, 73
2,9306, Note_on_c, 0, 61, 0
2,9320, Note_on_c, 0, 62, 74
2,9371, Note_on_c, 0, 69, 0
2,9377, Note_on_c, 0, 66, 74
2,9384, Note_on_c, 0, 62, 0
2,9393, Note_on_c, 0, 61, 74
2,9423, Note_on_c, 0, 67, 0
2,9470, Note_on_c, 0, 61, 0
2,9470, Note_on_c, 0, 62, 65
2,9487, Note_on_c, 0, 64, 77
2,9493, Note_on_c, 0, 66, 0
2,9503, Note_on_c, 0, 59, 64
2,9527, Note_on_c, 0, 62, 0
2,9588, Note_on_c, 0, 61, 67
2,9614, Note_on_c, 0, 66, 79
2,9637, Note_on_c, 0, 64, 0
2,9652, Note_on_c, 0, 59, 0
2,9666, Note_on_c, 0, 62, 68
2,9689, Note_on_c, 0, 61, 0
2,9694, Note_on_c, 0, 62, 0
2,9766, Note_on_c, 0, 69, 79
2,9771, Note_on_c, 0, 66, 0
2,9903, Note_on_c, 0, 67, 79
2,9906, Note_on_c, 0, 58, 70
2,9930, Note_on_c, 0, 58, 0
2,10003, Note_on_c, 0, 66, 76
2,10023, Note_on_c, 0, 69, 0
2,10056, Note_on_c, 0, 67, 0
2,10139, Note_on_c, 0, 64, 75
2,10156, Note_on_c, 0, 59, 70
2,10161, Note_on_c, 0, 66, 0
2,10252, Note_on_c, 0, 64, 0
2,10255, Note_on_c, 0, 62, 73
2,10414, Note_on_c, 0, 64, 74
2,10430, Note_on_c, 0, 62, 0
2,10653, Note_on_c, 0, 59, 0
2,10661, Note_on_c, 0, 58, 59
2,10664, Note_on_c, 0, 66, 65
2,10673, Note_on_c, 0, 64, 0
2,10758, Note_on_c, 0, 58, 0
2,10773, Note_on_c, 0, 56, 60
2,10799, Note_on_c, 0, 64, 63
2,10829, Note_on_c, 0, 66, 0
2,10875, Note_on_c, 0, 64, 0
2,10905, Note_on_c, 0, 62, 71
2,10909, Note_on_c, 0, 54, 80
2,10931, Note_on_c, 0, 56, 0
2,10962, Note_on_c, 0, 54, 0
2,11016, Note_on_c, 0, 62, 0
2,11030, Note_on_c, 0, 61, 68
2,11105, Note_on_c, 0, 61, 0
2,11156, Note_on_c, 0, 50, 80
2,11159, Note_on_c, 0, 59, 72
2,11163, Note_on_c, 0, 62, 73
2,11203, Note_on_c, 0, 50, 0
2,11276, Note_on_c, 0, 64, 77
2,11371, Note_on_c, 0, 59, 0
2,11412, Note_on_c, 0, 66, 77
2,11415, Note_on_c, 0, 47, 79
2,11417, Note_on_c, 0, 62, 0
2,11450, Note_on_c, 0, 47, 0
2,11523, Note_on_c, 0, 67, 77
2,11528, Note_on_c, 0, 64, 0
2,11530, Note_on_c, 0, 66, 0
2,11661, Note_on_c, 0, 46, 77
2,11664, Note_on_c, 0, 66, 78
2,11695, Note_on_c, 0, 46, 0
2,11697, Note_on_c, 0, 67, 0
2,11774, Note_on_c, 0, 64, 77
2,11824, Note_on_c, 0, 66, 0
2,11880, Note_on_c, 0, 66, 38
2,11920, Note_on_c, 0, 47, 81
2,11922, Note_on_c, 0, 62, 70
2,11973, Note_on_c, 0, 64, 0
2,12021, Note_on_c, 0, 62, 0
2,12191, Note_on_c, 0, 49, 74
2,12191, Note_on_c, 0, 59, 66
2,12210, Note_on_c, 0, 47, 0
2,12241, Note_on_c, 0, 59, 0
2,12313, Note_on_c, 0, 50, 78
2,12353, Note_on_c, 0, 49, 0
2,12428, Note_on_c, 0, 50, 0
2,12437, Note_on_c, 0, 58, 69
2,12438, Note_on_c, 0, 52, 75
2,12488, Note_on_c, 0, 58, 0
2,12526, Note_on_c, 0, 52, 0
2,12549, Note_on_c, 0, 54, 73
2,12650, Note_on_c, 0, 54, 0
2,12679, Note_on_c, 0, 55, 82
2,12680, Note_on_c, 0, 59, 68
2,12732, Note_on_c, 0, 55, 0
2,12786, Note_on_c, 0, 61, 68
2,12786, Note_on_c, 0, 66, 0
2,12787, Note_on_c, 0, 59, 0
2,12903, Note_on_c, 0, 61, 0
2,12921, Note_on_c, 0, 43, 69
2,12929, Note_on_c, 0, 64, 64
2,12953, Note_on_c, 0, 62, 52
2,12976, Note_on_c, 0, 43, 0
2,12989, Note_on_c, 0, 62, 0
2,12989, Note_on_c, 0, 64, 0
2,13005, Note_on_c, 0, 61, 78
2,13060, Note_on_c, 0, 61, 0
2,13066, Note_on_c, 0, 62, 78
2,13133, Note_on_c, 0, 62, 0
2,13149, Note_on_c, 0, 61, 51
2,13156, Note_on_c, 0, 69, 81
2,13166, Note_on_c, 0, 55, 62
2,13174, Note_on_c, 0, 61, 0
2,13192, Note_on_c, 0, 55, 0
2,13197, Note_on_c, 0, 62, 65
2,13249, Note_on_c, 0, 61, 82
2,13272, Note_on_c, 0, 62, 0
2,13320, Note_on_c, 0, 61, 0
2,13323, Note_on_c, 0, 59, 74
2,13357, Note_on_c, 0, 59, 0
2,13378, Note_on_c, 0, 61, 75
2,13429, Note_on_c, 0, 54, 80
2,13459, Note_on_c, 0, 62, 81
2,13464, Note_on_c, 0, 61, 0
2,13527, Note_on_c, 0, 54, 0
2,13567, Note_on_c, 0, 62, 0
2,13569, Note_on_c, 0, 64, 85
2,13578, Note_on_c, 0, 69, 0
2,13681, Note_on_c, 0, 42, 73
2,13690, Note_on_c, 0, 66, 76
2,13692, Note_on_c, 0, 62, 66
2,13697, Note_on_c, 0, 64, 0
2,13734, Note_on_c, 0, 42, 0
2,13756, Note_on_c, 0, 66, 0
2,13814, Note_on_c, 0, 62, 0
2,13817, Note_on_c, 0, 61, 77
2,13930, Note_on_c, 0, 62, 71
2,13933, Note_on_c, 0, 54, 77
2,13946, Note_on_c, 0, 59, 65
2,13949, Note_on_c, 0, 61, 0
2,13964, Note_on_c, 0, 54, 0
2,14036, Note_on_c, 0, 59, 0
2,14051, Note_on_c, 0, 57, 63
2,14191, Note_on_c, 0, 52, 69
2,14198, Note_on_c, 0, 57, 0
2,14208, Note_on_c, 0, 56, 60
2,14301, Note_on_c, 0, 62, 0
2,14316, Note_on_c, 0, 58, 65
2,14329, Note_on_c, 0, 56, 0
2,14391, Note_on_c, 0, 52, 0
2,14425, Note_on_c, 0, 58, 0
2,14439, Note_on_c, 0, 61, 62
2,14443, Note_on_c, 0, 54, 67
2,14494, Note_on_c, 0, 59, 6
2,14496, Note_on_c, 0, 59, 0
2,14531, Note_on_c, 0, 58, 68
2,14536, Note_on_c, 0, 61, 0
2,14538, Note_on_c, 0, 54, 0
2,14568, Note_on_c, 0, 52, 61
2,14568, Note_on_c, 0, 58, 0
2,14590, Note_on_c, 0, 59, 64
2,14647, Note_on_c, 0, 58, 76
2,14648, Note_on_c, 0, 59, 0
2,14697, Note_on_c, 0, 52, 0
2,14698, Note_on_c, 0, 50, 69
2,14703, Note_on_c, 0, 58, 0
2,14718, Note_on_c, 0, 66, 74
2,14727, Note_on_c, 0, 59, 37
2,14750, Note_on_c, 0, 59, 0
2,14789, Note_on_c, 0, 58, 73
2,14809, Note_on_c, 0, 50, 0
2,14827, Note_on_c, 0, 49, 70
2,14865, Note_on_c, 0, 58, 0
2,14883, Note_on_c, 0, 56, 71
2,14948, Note_on_c, 0, 56, 0
2,14952, Note_on_c, 0, 58, 65
2,14972, Note_on_c, 0, 50, 74
2,15021, Note_on_c, 0, 49, 0
2,15024, Note_on_c, 0, 58, 0
2,15057, Note_on_c, 0, 59, 69
2,15126, Note_on_c, 0, 54, 81
2,15150, Note_on_c, 0, 50, 0
2,15163, Note_on_c, 0, 59, 0
2,15179, Note_on_c, 0, 66, 0
2,15200, Note_on_c, 0, 68, 66
2,15249, Note_on_c, 0, 54, 0
2,15273, Note_on_c, 0, 52, 69
2,15285, Note_on_c, 0, 68, 0
2,15303, Note_on_c, 0, 70, 50
2,15304, Note_on_c, 0, 70, 0
2,15313, Note_on_c, 0, 69, 75
2,15381, Note_on_c, 0, 69, 0
2,15387, Note_on_c, 0, 68, 73
2,15391, Note_on_c, 0, 52, 0
2,15396, Note_on_c, 0, 50, 68
2,15456, Note_on_c, 0, 68, 0
2,15459, Note_on_c, 0, 69, 73
2,15517, Note_on_c, 0, 69, 0
2,15528, Note_on_c, 0, 68, 75
2,15534, Note_on_c, 0, 49, 61
2,15544, Note_on_c, 0, 50, 0
2,15574, Note_on_c, 0, 68, 0
2,15574, Note_on_c, 0, 69, 72
2,15627, Note_on_c, 0, 68, 74
2,15653, Note_on_c, 0, 49, 0
2,15666, Note_on_c, 0, 47, 62
2,15685, Note_on_c, 0, 68, 0
2,15690, Note_on_c, 0, 69, 0
2,15693, Note_on_c, 0, 66, 73
2,15750, Note_on_c, 0, 68, 79
2,15758, Note_on_c, 0, 66, 0
2,15840, Note_on_c, 0, 49, 65
2,15840, Note_on_c, 0, 69, 80
2,15859, Note_on_c, 0, 47, 0
2,15867, Note_on_c, 0, 68, 0
2,15979, Note_on_c, 0, 51, 64
2,15982, Note_on_c, 0, 49, 0
2,15985, Note_on_c, 0, 73, 89
2,15998, Note_on_c, 0, 69, 0
2,16091, Note_on_c, 0, 51, 0
2,16123, Note_on_c, 0, 52, 55
2,16128, Note_on_c, 0, 71, 77
2,16156, Note_on_c, 0, 52, 0
2,16200, Note_on_c, 0, 51, 56
2,16227, Note_on_c, 0, 69, 71
2,16236, Note_on_c, 0, 51, 0
2,16245, Note_on_c, 0, 52, 67
2,16286, Note_on_c, 0, 52, 0
2,16292, Note_on_c, 0, 73, 0
2,16318, Note_on_c, 0, 51, 69
2,16357, Note_on_c, 0, 68, 72
2,16367, Note_on_c, 0, 51, 0
2,16372, Note_on_c, 0, 69, 0
2,16376, Note_on_c, 0, 52, 65
2,16386, Note_on_c, 0, 71, 0
2,16448, Note_on_c, 0, 51, 69
2,16450, Note_on_c, 0, 52, 0
2,16483, Note_on_c, 0, 66, 75
2,16487, Note_on_c, 0, 68, 0
2,16498, Note_on_c, 0, 51, 0
2,16507, Note_on_c, 0, 49, 71
2,16574, Note_on_c, 0, 51, 72
2,16586, Note_on_c, 0, 49, 0
2,16638, Note_on_c, 0, 68, 74
2,16651, Note_on_c, 0, 51, 0
2,16662, Note_on_c, 0, 52, 73
2,16678, Note_on_c, 0, 66, 0
2,16793, Note_on_c, 0, 70, 68
2,16800, Note_on_c, 0, 52, 0
2,16800, Note_on_c, 0, 55, 72
2,16837, Note_on_c, 0, 68, 0
2,16888, Note_on_c, 0, 70, 0
2,16925, Note_on_c, 0, 71, 44
2,16939, Note_on_c, 0, 54, 70
2,16953, Note_on_c, 0, 71, 0
2,16966, Note_on_c, 0, 55, 0
2,16988, Note_on_c, 0, 70, 69
2,17007, Note_on_c, 0, 54, 0
2,17040, Note_on_c, 0, 70, 0
2,17040, Note_on_c, 0, 71, 76
2,17052, Note_on_c, 0, 52, 60
2,17109, Note_on_c, 0, 71, 0
2,17122, Note_on_c, 0, 70, 71
2,17158, Note_on_c, 0, 52, 0
2,17166, Note_on_c, 0, 71, 71
2,17167, Note_on_c, 0, 70, 0
2,17187, Note_on_c, 0, 50, 56
2,17237, Note_on_c, 0, 70, 77
2,17268, Note_on_c, 0, 71, 0
2,17275, Note_on_c, 0, 50, 0
2,17291, Note_on_c, 0, 68, 72
2,17291, Note_on_c, 0, 70, 0
2,17292, Note_on_c, 0, 49, 59
2,17361, Note_on_c, 0, 70, 74
2,17374, Note_on_c, 0, 68, 0
2,17430, Note_on_c, 0, 71, 80
2,17453, Note_on_c, 0, 51, 62
2,17454, Note_on_c, 0, 70, 0
2,17522, Note_on_c, 0, 49, 0
2,17578, Note_on_c, 0, 71, 0
2,17580, Note_on_c, 0, 51, 0
2,17589, Note_on_c, 0, 74, 76
2,17604, Note_on_c, 0, 53, 58
2,17699, Note_on_c, 0, 53, 0
2,17724, Note_on_c, 0, 54, 59
2,17736, Note_on_c, 0, 73, 69
2,17756, Note_on_c, 0, 54, 0
2,17796, Note_on_c, 0, 53, 62
2,17811, Note_on_c, 0, 74, 0
2,17832, Note_on_c, 0, 53, 0
2,17839, Note_on_c, 0, 71, 67
2,17850, Note_on_c, 0, 54, 66
2,17894, Note_on_c, 0, 54, 0
2,17910, Note_on_c, 0, 73, 0
2,17923, Note_on_c, 0, 53, 60
2,17941, Note_on_c, 0, 71, 0
2,17960, Note_on_c, 0, 53, 0
2,17967, Note_on_c, 0, 69, 68
2,17969, Note_on_c, 0, 54, 74
2,18005, Note_on_c, 0, 54, 0
2,18040, Note_on_c, 0, 53, 67
2,18079, Note_on_c, 0, 53, 0
2,18098, Note_on_c, 0, 69, 0
2,18113, Note_on_c, 0, 68, 63
2,18115, Note_on_c, 0, 51, 67
2,18155, Note_on_c, 0, 51, 0
2,18177, Note_on_c, 0, 53, 61
2,18248, Note_on_c, 0, 68, 0
2,18269, Note_on_c, 0, 69, 67
2,18275, Note_on_c, 0, 53, 0
2,18287, Note_on_c, 0, 54, 63
2,18407, Note_on_c, 0, 54, 0
2,18432, Note_on_c, 0, 69, 0
2,18441, Note_on_c, 0, 71, 72
2,18443, Note_on_c, 0, 57, 61
2,18521, Note_on_c, 0, 71, 0
2,18560, Note_on_c, 0, 73, 61
2,18587, Note_on_c, 0, 56, 60
2,18596, Note_on_c, 0, 57, 0
2,18609, Note_on_c, 0, 73, 0
2,18636, Note_on_c, 0, 71, 71
2,18672, Note_on_c, 0, 71, 0
2,18706, Note_on_c, 0, 73, 74
2,18707, Note_on_c, 0, 54, 61
2,18726, Note_on_c, 0, 56, 0
2,18736, Note_on_c, 0, 73, 0
2,18762, Note_on_c, 0, 71, 75
2,18795, Note_on_c, 0, 71, 0
2,18804, Note_on_c, 0, 54, 0
2,18813, Note_on_c, 0, 73, 81
2,18827, Note_on_c, 0, 53, 63
2,18868, Note_on_c, 0, 71, 77
2,18924, Note_on_c, 0, 53, 0
2,18927, Note_on_c, 0, 71, 0
2,18933, Note_on_c, 0, 69, 73
2,18950, Note_on_c, 0, 51, 60
2,18994, Note_on_c, 0, 69, 0
2,19000, Note_on_c, 0, 73, 0
2,19004, Note_on_c, 0, 71, 79
2,19091, Note_on_c, 0, 53, 49
2,19125, Note_on_c, 0, 73, 72
2,19146, Note_on_c, 0, 51, 0
2,19158, Note_on_c, 0, 71, 0
2,19244, Note_on_c, 0, 53, 0
2,19264, Note_on_c, 0, 56, 58
2,19401, Note_on_c, 0, 56, 0
2,19410, Note_on_c, 0, 54, 62
2,19520, Note_on_c, 0, 54, 0
2,19547, Note_on_c, 0, 53, 56
2,19672, Note_on_c, 0, 53, 0
2,19690, Note_on_c, 0, 61, 77
2,19692, Note_on_c, 0, 51, 59
2,19764, Note_on_c, 0, 61, 0
2,19805, Note_on_c, 0, 51, 0
2,19821, Note_on_c, 0, 49, 63
2,19984, Note_on_c, 0, 57, 73
2,19994, Note_on_c, 0, 54, 68
2,20048, Note_on_c, 0, 57, 0
2,20073, Note_on_c, 0, 54, 0
2,20087, Note_on_c, 0, 49, 0
2,20094, Note_on_c, 0, 73, 0
2,20115, Note_on_c, 0, 74, 75
2,20259, Note_on_c, 0, 54, 78
2,20259, Note_on_c, 0, 73, 77
2,20265, Note_on_c, 0, 45, 56
2,20305, Note_on_c, 0, 74, 0
2,20322, Note_on_c, 0, 45, 0
2,20323, Note_on_c, 0, 54, 0
2,20388, Note_on_c, 0, 71, 75
2,20435, Note_on_c, 0, 73, 0
2,20504, Note_on_c, 0, 71, 0
2,20514, Note_on_c, 0, 69, 75
2,20523, Note_on_c, 0, 53, 72
2,20531, Note_on_c, 0, 49, 70
2,20556, Note_on_c, 0, 53, 0
2,20564, Note_on_c, 0, 49, 0
2,20651, Note_on_c, 0, 68, 71
2,20667, Note_on_c, 0, 69, 0
2,20799, Note_on_c, 0, 42, 66
2,20800, Note_on_c, 0, 54, 73
2,20800, Note_on_c, 0, 69, 69
2,20843, Note_on_c, 0, 68, 0
2,20851, Note_on_c, 0, 42, 0
2,20860, Note_on_c, 0, 69, 0
2,21078, Note_on_c, 0, 56, 70
2,21081, Note_on_c, 0, 66, 75
2,21091, Note_on_c, 0, 54, 0
2,21139, Note_on_c, 0, 66, 0
2,21213, Note_on_c, 0, 57, 73
2,21252, Note_on_c, 0, 56, 0
2,21328, Note_on_c, 0, 57, 0
2,21338, Note_on_c, 0, 65, 75
2,21340, Note_on_c, 0, 59, 72
2,21407, Note_on_c, 0, 65, 0
2,21473, Note_on_c, 0, 61, 75
2,21495, Note_on_c, 0, 59, 0
2,21587, Note_on_c, 0, 61, 0
2,21607, Note_on_c, 0, 66, 78
2,21615, Note_on_c, 0, 62, 69
2,21693, Note_on_c, 0, 62, 0
2,21749, Note_on_c, 0, 57, 67
2,21870, Note_on_c, 0, 50, 77
2,21873, Note_on_c, 0, 57, 0
2,21876, Note_on_c, 0, 66, 0
2,21892, Note_on_c, 0, 47, 55
2,21964, Note_on_c, 0, 47, 0
2,21970, Note_on_c, 0, 50, 0
2,22002, Note_on_c, 0, 57, 61
2,22130, Note_on_c, 0, 47, 53
2,22134, Note_on_c, 0, 71, 80
2,22138, Note_on_c, 0, 57, 0
2,22139, Note_on_c, 0, 62, 70
2,22217, Note_on_c, 0, 62, 0
2,22246, Note_on_c, 0, 47, 0
2,22268, Note_on_c, 0, 57, 61
2,22360, Note_on_c, 0, 57, 0
2,22404, Note_on_c, 0, 61, 74
2,22412, Note_on_c, 0, 45, 65
2,22469, Note_on_c, 0, 61, 0
2,22503, Note_on_c, 0, 45, 0
2,22520, Note_on_c, 0, 56, 63
2,22659, Note_on_c, 0, 49, 65
2,22659, Note_on_c, 0, 65, 72
2,22671, Note_on_c, 0, 56, 0
2,22673, Note_on_c, 0, 71, 0
2,22711, Note_on_c, 0, 65, 0
2,22766, Note_on_c, 0, 49, 0
2,22779, Note_on_c, 0, 56, 62
2,22907, Note_on_c, 0, 56, 0
2,22912, Note_on_c, 0, 66, 74
2,22919, Note_on_c, 0, 45, 57
2,22922, Note_on_c, 0, 61, 61
2,22972, Note_on_c, 0, 61, 0
2,22980, Note_on_c, 0, 66, 0
2,23024, Note_on_c, 0, 45, 0
2,23049, Note_on_c, 0, 54, 63
2,23188, Note_on_c, 0, 54, 0
2,23197, Note_on_c, 0, 59, 62
2,23197, Note_on_c, 0, 62, 63
2,23198, Note_on_c, 0, 44, 56
2,23246, Note_on_c, 0, 62, 0
2,23277, Note_on_c, 0, 44, 0
2,23307, Note_on_c, 0, 54, 58
2,23457, Note_on_c, 0, 61, 66
2,23460, Note_on_c, 0, 59, 0
2,23489, Note_on_c, 0, 54, 0
2,23507, Note_on_c, 0, 53, 39
2,23555, Note_on_c, 0, 53, 0
2,23584, Note_on_c, 0, 59, 64
2,23585, Note_on_c, 0, 56, 57
2,23686, Note_on_c, 0, 56, 0
2,23691, Note_on_c, 0, 59, 0
2,23715, Note_on_c, 0, 57, 59
2,23728, Note_on_c, 0, 49, 46
2,23830, Note_on_c, 0, 49, 0
2,23842, Note_on_c, 0, 57, 0
2,23853, Note_on_c, 0, 56, 58
2,24004, Note_on_c, 0, 56, 0
2,24008, Note_on_c, 0, 42, 58
2,24011, Note_on_c, 0, 57, 61
2,24143, Note_on_c, 0, 54, 53
2,24243, Note_on_c, 0, 54, 0
2,24265, Control_c, 0, 64, 44
2,24280, Control_c, 0, 64, 61
2,24285, Note_on_c, 0, 44, 55
2,24285, Note_on_c, 0, 59, 68
2,24295, Control_c, 0, 64, 66
2,24298, Note_on_c, 0, 57, 0
2,24310, Control_c, 0, 64, 71
2,24321, Note_on_c, 0, 42, 0
2,24325, Control_c, 0, 64, 84
2,24340, Control_c, 0, 64, 117
2,24343, Note_on_c, 0, 61, 0
2,24354, Note_on_c, 0, 59, 0
2,24356, Control_c, 0, 64, 127
2,24376, Note_on_c, 0, 44, 0
2,24391, Note_on_c, 0, 54, 66
2,24544, Note_on_c, 0, 54, 0
2,24547, Control_c, 0, 64, 78
2,24553, Note_on_c, 0, 45, 59
2,24555, Note_on_c, 0, 66, 76
2,24562, Control_c, 0, 64, 62
2,24564, Note_on_c, 0, 61, 66
2,24577, Control_c, 0, 64, 17
2,24592, Control_c, 0, 64, 0
2,24607, Control_c, 0, 64, 26
2,24623, Control_c, 0, 64, 49
2,24638, Control_c, 0, 64, 57
2,24653, Control_c, 0, 64, 63
2,24668, Control_c, 0, 64, 66
2,24680, Note_on_c, 0, 54, 64
2,24683, Control_c, 0, 64, 72
2,24683, Note_on_c, 0, 45, 0
2,24698, Control_c, 0, 64, 79
2,24715, Control_c, 0, 64, 83
2,24730, Control_c, 0, 64, 85
2,24745, Control_c, 0, 64, 85
2,24760, Control_c, 0, 64, 87
2,24775, Control_c, 0, 64, 88
2,24791, Control_c, 0, 64, 89
2,24820, Control_c, 0, 64, 78
2,24829, Note_on_c, 0, 47, 64
2,24830, Note_on_c, 0, 62, 77
2,24835, Note_on_c, 0, 54, 0
2,24836, Control_c, 0, 64, 65
2,24851, Control_c, 0, 64, 60
2,24854, Note_on_c, 0, 66, 0
2,24867, Control_c, 0, 64, 65
2,24882, Control_c, 0, 64, 73
2,24897, Control_c, 0, 64, 101
2,24900, Note_on_c, 0, 61, 0
2,24912, Control_c, 0, 64, 127
2,24913, Note_on_c, 0, 62, 0
2,24955, Note_on_c, 0, 47, 0
2,24956, Note_on_c, 0, 54, 70
2,25091, Note_on_c, 0, 64, 81
2,25095, Control_c, 0, 64, 78
2,25095, Note_on_c, 0, 49, 66
2,25098, Note_on_c, 0, 59, 69
2,25108, Note_on_c, 0, 54, 0
2,25110, Control_c, 0, 64, 68
2,25125, Control_c, 0, 64, 68
2,25140, Control_c, 0, 64, 70
2,25155, Control_c, 0, 64, 76
2,25170, Control_c, 0, 64, 92
2,25184, Note_on_c, 0, 59, 0
2,25186, Control_c, 0, 64, 127
2,25200, Note_on_c, 0, 49, 0
2,25213, Note_on_c, 0, 54, 70
2,25330, Control_c, 0, 64, 90
2,25346, Control_c, 0, 64, 61
2,25360, Control_c, 0, 64, 0
2,25365, Note_on_c, 0, 66, 81
2,25366, Note_on_c, 0, 54, 0
2,25371, Note_on_c, 0, 50, 61
2,25374, Note_on_c, 0, 57, 69
2,25391, Control_c, 0, 64, 43
2,25406, Control_c, 0, 64, 61
2,25417, Note_on_c, 0, 64, 0
2,25421, Control_c, 0, 64, 70
2,25436, Control_c, 0, 64, 88
2,25451, Control_c, 0, 64, 127
2,25463, Note_on_c, 0, 50, 0
2,25463, Note_on_c, 0, 57, 0
2,25484, Note_on_c, 0, 54, 72
2,25539, Note_on_c, 0, 54, 0
2,25604, Control_c, 0, 64, 92
2,25619, Control_c, 0, 64, 63
2,25635, Control_c, 0, 64, 0
2,25647, Note_on_c, 0, 55, 67
2,25651, Note_on_c, 0, 40, 60
2,25680, Control_c, 0, 64, 58
2,25695, Control_c, 0, 64, 72
2,25711, Control_c, 0, 64, 103
2,25725, Note_on_c, 0, 55, 0
2,25726, Control_c, 0, 64, 127
2,25748, Note_on_c, 0, 66, 0
2,25771, Note_on_c, 0, 52, 57
2,25903, Note_on_c, 0, 52, 0
2,25906, Note_on_c, 0, 64, 72
2,25909, Control_c, 0, 64, 85
2,25921, Note_on_c, 0, 42, 62
2,25924, Control_c, 0, 64, 55
2,25924, Note_on_c, 0, 57, 56
2,25939, Control_c, 0, 64, 0
2,25946, Note_on_c, 0, 40, 0
2,25969, Control_c, 0, 64, 41
2,25971, Note_on_c, 0, 57, 0
2,25985, Control_c, 0, 64, 61
2,26007, Control_c, 0, 64, 67
2,26023, Control_c, 0, 64, 76
2,26024, Note_on_c, 0, 42, 0
2,26037, Control_c, 0, 64, 84
2,26044, Note_on_c, 0, 52, 57
2,26052, Control_c, 0, 64, 86
2,26158, Control_c, 0, 64, 85
2,26173, Control_c, 0, 64, 72
2,26184, Note_on_c, 0, 62, 67
2,26187, Note_on_c, 0, 59, 59
2,26189, Control_c, 0, 64, 47
2,26190, Note_on_c, 0, 52, 0
2,26203, Control_c, 0, 64, 0
2,26204, Note_on_c, 0, 64, 0
2,26205, Note_on_c, 0, 43, 50
2,26234, Control_c, 0, 64, 32
2,26249, Control_c, 0, 64, 56
2,26259, Note_on_c, 0, 62, 0
2,26265, Control_c, 0, 64, 65
2,26279, Control_c, 0, 64, 72
2,26279, Note_on_c, 0, 43, 0
2,26294, Control_c, 0, 64, 83
2,26307, Note_on_c, 0, 52, 62
2,26310, Control_c, 0, 64, 90
2,26340, Control_c, 0, 64, 91
2,26417, Control_c, 0, 64, 90
2,26432, Control_c, 0, 64, 78
2,26447, Control_c, 0, 64, 56
2,26447, Note_on_c, 0, 52, 0
2,26461, Note_on_c, 0, 61, 68
2,26463, Control_c, 0, 64, 0
2,26466, Note_on_c, 0, 45, 56
2,26528, Note_on_c, 0, 59, 0
2,26548, Note_on_c, 0, 45, 0
2,26575, Note_on_c, 0, 52, 58
2,26719, Note_on_c, 0, 52, 0
2,26734, Note_on_c, 0, 47, 48
2,26735, Note_on_c, 0, 57, 65
2,26789, Note_on_c, 0, 57, 0
2,26791, Note_on_c, 0, 61, 0
2,26803, Note_on_c, 0, 47, 0
2,26855, Note_on_c, 0, 52, 55
2,26959, Note_on_c, 0, 52, 0
2,26982, Note_on_c, 0, 49, 52
2,27000, Note_on_c, 0, 81, 77
2,27031, Note_on_c, 0, 81, 0
2,27082, Note_on_c, 0, 49, 0
2,27106, Note_on_c, 0, 52, 61
2,27253, Note_on_c, 0, 78, 83
2,27258, Note_on_c, 0, 50, 64
2,27266, Note_on_c, 0, 52, 0
2,27289, Note_on_c, 0, 78, 0
2,27385, Note_on_c, 0, 52, 56
2,27502, Note_on_c, 0, 54, 64
2,27507, Note_on_c, 0, 50, 0
2,27518, Note_on_c, 0, 74, 68
2,27535, Note_on_c, 0, 72, 68
2,27545, Note_on_c, 0, 52, 0
2,27554, Note_on_c, 0, 72, 0
2,27559, Note_on_c, 0, 74, 0
2,27624, Note_on_c, 0, 55, 65
2,27630, Note_on_c, 0, 54, 0
2,27762, Note_on_c, 0, 55, 0
2,27768, Note_on_c, 0, 73, 83
2,27774, Note_on_c, 0, 57, 67
2,27804, Note_on_c, 0, 73, 0
2,27887, Note_on_c, 0, 57, 0
2,27894, Note_on_c, 0, 55, 62
2,28030, Note_on_c, 0, 55, 0
2,28032, Note_on_c, 0, 54, 62
2,28037, Note_on_c, 0, 74, 81
2,28156, Note_on_c, 0, 54, 0
2,28174, Note_on_c, 0, 57, 67
2,28308, Note_on_c, 0, 55, 65
2,28312, Note_on_c, 0, 57, 0
2,28315, Note_on_c, 0, 76, 77
2,28334, Note_on_c, 0, 74, 0
2,28436, Note_on_c, 0, 54, 69
2,28443, Note_on_c, 0, 55, 0
2,28455, Note_on_c, 0, 78, 80
2,28480, Note_on_c, 0, 76, 0
2,28570, Note_on_c, 0, 78, 0
2,28577, Note_on_c, 0, 54, 0
2,28579, Note_on_c, 0, 79, 84
2,28581, Note_on_c, 0, 52, 61
2,28673, Note_on_c, 0, 52, 0
2,28690, Note_on_c, 0, 50, 66
2,28698, Note_on_c, 0, 81, 79
2,28704, Note_on_c, 0, 79, 0
2,28820, Note_on_c, 0, 50, 0
2,28830, Note_on_c, 0, 81, 0
2,28830, Note_on_c, 0, 83, 85
2,28832, Note_on_c, 0, 55, 71
2,28932, Note_on_c, 0, 83, 0
2,28933, Note_on_c, 0, 55, 0
2,28971, Note_on_c, 0, 66, 73
2,29070, Note_on_c, 0, 66, 0
2,29087, Note_on_c, 0, 71, 77
2,29097, Note_on_c, 0, 55, 59
2,29125, Note_on_c, 0, 71, 0
2,29205, Note_on_c, 0, 55, 0
2,29225, Note_on_c, 0, 66, 61
2,29259, Note_on_c, 0, 66, 0
2,29339, Note_on_c, 0, 83, 81
2,29349, Note_on_c, 0, 55, 56
2,29351, Note_on_c, 0, 52, 55
2,29385, Note_on_c, 0, 83, 0
2,29421, Note_on_c, 0, 55, 0
2,29450, Note_on_c, 0, 52, 0
2,29467, Note_on_c, 0, 64, 64
2,29604, Note_on_c, 0, 54, 67
2,29604, Note_on_c, 0, 81, 83
2,29615, Note_on_c, 0, 64, 0
2,29679, Note_on_c, 0, 81, 0
2,29709, Note_on_c, 0, 54, 0
2,29732, Note_on_c, 0, 64, 66
2,29856, Note_on_c, 0, 64, 0
2,29878, Note_on_c, 0, 54, 69
2,29880, Note_on_c, 0, 69, 77
2,29914, Note_on_c, 0, 69, 0
2,29970, Note_on_c, 0, 54, 0
2,29988, Note_on_c, 0, 64, 71
2,30064, Note_on_c, 0, 64, 0
2,30123, Note_on_c, 0, 54, 55
2,30133, Note_on_c, 0, 81, 77
2,30149, Note_on_c, 0, 50, 54
2,30186, Note_on_c, 0, 81, 0
2,30214, Note_on_c, 0, 50, 0
2,30215, Note_on_c, 0, 54, 0
2,30249, Note_on_c, 0, 62, 67
2,30350, Note_on_c, 0, 62, 0
2,30393, Note_on_c, 0, 52, 63
2,30393, Note_on_c, 0, 79, 81
2,30472, Note_on_c, 0, 52, 0
2,30511, Note_on_c, 0, 62, 64
2,30659, Note_on_c, 0, 62, 0
2,30661, Note_on_c, 0, 81, 77
2,30669, Note_on_c, 0, 61, 52
2,30671, Note_on_c, 0, 57, 57
2,30674, Note_on_c, 0, 79, 0
2,30739, Note_on_c, 0, 61, 0
2,30781, Note_on_c, 0, 57, 0
2,30789, Note_on_c, 0, 64, 68
2,30791, Note_on_c, 0, 79, 81
2,30912, Note_on_c, 0, 57, 66
2,30916, Note_on_c, 0, 78, 82
2,30930, Note_on_c, 0, 81, 0
2,30981, Note_on_c, 0, 64, 0
2,31027, Note_on_c, 0, 61, 71
2,31029, Note_on_c, 0, 76, 80
2,31031, Note_on_c, 0, 79, 0
2,31040, Note_on_c, 0, 57, 0
2,31051, Note_on_c, 0, 78, 0
2,31063, Note_on_c, 0, 61, 0
2,31166, Note_on_c, 0, 78, 85
2,31175, Note_on_c, 0, 50, 71
2,31179, Note_on_c, 0, 62, 74
2,31203, Note_on_c, 0, 50, 0
2,31277, Note_on_c, 0, 76, 0
2,31281, Note_on_c, 0, 62, 0
2,31292, Note_on_c, 0, 81, 82
2,31299, Note_on_c, 0, 61, 81
2,31315, Note_on_c, 0, 78, 0
2,31427, Note_on_c, 0, 79, 81
2,31428, Note_on_c, 0, 62, 69
2,31461, Note_on_c, 0, 61, 0
2,31536, Note_on_c, 0, 62, 0
2,31540, Note_on_c, 0, 64, 75
2,31547, Note_on_c, 0, 78, 81
2,31559, Note_on_c, 0, 81, 0
2,31660, Note_on_c, 0, 64, 0
2,31676, Note_on_c, 0, 59, 58
2,31680, Note_on_c, 0, 76, 77
2,31688, Note_on_c, 0, 66, 66
2,31693, Note_on_c, 0, 79, 0
2,31722, Note_on_c, 0, 59, 0
2,31731, Note_on_c, 0, 78, 0
2,31782, Note_on_c, 0, 66, 0
2,31784, Note_on_c, 0, 76, 0
2,31790, Note_on_c, 0, 74, 72
2,31795, Note_on_c, 0, 68, 69
2,31898, Note_on_c, 0, 74, 0
2,31929, Note_on_c, 0, 73, 76
2,31938, Note_on_c, 0, 66, 53
2,31950, Note_on_c, 0, 69, 57
2,31958, Note_on_c, 0, 68, 0
2,32036, Note_on_c, 0, 69, 0
2,32049, Note_on_c, 0, 68, 74
2,32054, Note_on_c, 0, 66, 0
2,32055, Note_on_c, 0, 73, 0
2,32167, Note_on_c, 0, 68, 0
2,32192, Note_on_c, 0, 69, 69
2,32207, Note_on_c, 0, 74, 69
2,32306, Note_on_c, 0, 69, 0
2,32318, Note_on_c, 0, 71, 69
2,32366, Note_on_c, 0, 74, 0
2,32428, Note_on_c, 0, 71, 0
2,32444, Note_on_c, 0, 76, 78
2,32445, Note_on_c, 0, 69, 70
2,32449, Note_on_c, 0, 61, 51
2,32566, Note_on_c, 0, 69, 0
2,32571, Note_on_c, 0, 67, 69
2,32699, Note_on_c, 0, 62, 51
2,32712, Note_on_c, 0, 66, 66
2,32725, Note_on_c, 0, 76, 0
2,32741, Note_on_c, 0, 67, 0
2,32761, Note_on_c, 0, 62, 0
2,32822, Note_on_c, 0, 66, 0
2,32826, Note_on_c, 0, 64, 67
2,32841, Note_on_c, 0, 61, 0
2,32941, Note_on_c, 0, 74, 67
2,32993, Note_on_c, 0, 64, 0
2,33002, Note_on_c, 0, 66, 53
2,33065, Note_on_c, 0, 74, 0
2,33115, Note_on_c, 0, 68, 64
2,33134, Note_on_c, 0, 66, 0
2,33220, Note_on_c, 0, 73, 79
2,33231, Note_on_c, 0, 63, 61
2,33264, Note_on_c, 0, 68, 0
2,33272, Note_on_c, 0, 69, 45
2,33328, Control_c, 0, 64, 17
2,33334, Note_on_c, 0, 73, 0
2,33344, Control_c, 0, 64, 39
2,33359, Control_c, 0, 64, 50
2,33374, Control_c, 0, 64, 59
2,33389, Control_c, 0, 64, 62
2,33404, Control_c, 0, 64, 63
2,33411, Note_on_c, 0, 69, 0
2,33419, Control_c, 0, 64, 65
2,33435, Control_c, 0, 64, 66
2,33450, Control_c, 0, 64, 68
2,33465, Control_c, 0, 64, 69
2,33477, Note_on_c, 0, 68, 53
2,33480, Control_c, 0, 64, 70
2,33481, Note_on_c, 0, 71, 76
2,33491, Note_on_c, 0, 63, 0
2,33491, Note_on_c, 0, 63, 23
2,33494, Note_on_c, 0, 64, 75
2,33520, Note_on_c, 0, 64, 0
2,33523, Note_on_c, 0, 63, 0
2,33525, Control_c, 0, 64, 67
2,33540, Control_c, 0, 64, 64
2,33556, Control_c, 0, 64, 62
2,33571, Control_c, 0, 64, 59
2,33587, Control_c, 0, 64, 54
2,33601, Control_c, 0, 64, 45
2,33611, Note_on_c, 0, 64, 62
2,33616, Control_c, 0, 64, 0
2,33619, Note_on_c, 0, 68, 0
2,33649, Note_on_c, 0, 71, 0
2,33728, Note_on_c, 0, 64, 0
2,33764, Note_on_c, 0, 69, 67
2,33766, Note_on_c, 0, 66, 70
2,33845, Note_on_c, 0, 69, 0
2,33878, Note_on_c, 0, 66, 0
2,33892, Note_on_c, 0, 64, 68
2,34015, Note_on_c, 0, 52, 66
2,34017, Note_on_c, 0, 64, 0
2,34020, Note_on_c, 0, 71, 67
2,34025, Note_on_c, 0, 68, 67
2,34044, Note_on_c, 0, 52, 0
2,34062, Note_on_c, 0, 71, 0
2,34078, Note_on_c, 0, 68, 0
2,34120, Note_on_c, 0, 64, 69
2,34264, Note_on_c, 0, 64, 0
2,34264, Note_on_c, 0, 69, 68
2,34265, Note_on_c, 0, 49, 72
2,34271, Note_on_c, 0, 73, 75
2,34305, Note_on_c, 0, 49, 0
2,34334, Note_on_c, 0, 69, 0
2,34350, Note_on_c, 0, 73, 0
2,34380, Note_on_c, 0, 64, 72
2,34526, Note_on_c, 0, 73, 73
2,34527, Note_on_c, 0, 76, 75
2,34528, Note_on_c, 0, 45, 79
2,34549, Note_on_c, 0, 64, 0
2,34568, Note_on_c, 0, 45, 0
2,34604, Note_on_c, 0, 76, 0
2,34629, Note_on_c, 0, 73, 0
2,34653, Note_on_c, 0, 64, 71
2,34772, Note_on_c, 0, 74, 70
2,34778, Note_on_c, 0, 44, 78
2,34778, Note_on_c, 0, 71, 77
2,34790, Note_on_c, 0, 64, 0
2,34812, Note_on_c, 0, 44, 0
2,34851, Note_on_c, 0, 74, 0
2,34879, Note_on_c, 0, 71, 0
2,34900, Note_on_c, 0, 64, 72
2,35000, Note_on_c, 0, 71, 74
2,35041, Note_on_c, 0, 45, 77
2,35072, Note_on_c, 0, 69, 64
2,35078, Note_on_c, 0, 73, 80
2,35095, Note_on_c, 0, 71, 0
2,35130, Note_on_c, 0, 64, 0
2,35268, Control_c, 0, 64, 35
2,35275, Note_on_c, 0, 69, 0
2,35283, Control_c, 0, 64, 52
2,35298, Control_c, 0, 64, 56
2,35313, Control_c, 0, 64, 58
2,35319, Note_on_c, 0, 45, 0
2,35328, Control_c, 0, 64, 60
2,35340, Note_on_c, 0, 47, 70
2,35344, Control_c, 0, 64, 62
2,35359, Control_c, 0, 64, 63
2,35375, Control_c, 0, 64, 65
2,35390, Control_c, 0, 64, 65
2,35436, Control_c, 0, 64, 63
2,35448, Note_on_c, 0, 68, 72
2,35451, Control_c, 0, 64, 54
2,35457, Note_on_c, 0, 49, 76
2,35467, Control_c, 0, 64, 0
2,35468, Note_on_c, 0, 47, 0
2,35579, Note_on_c, 0, 66, 76
2,35586, Note_on_c, 0, 50, 80
2,35612, Note_on_c, 0, 49, 0
2,35628, Note_on_c, 0, 68, 0
2,35689, Note_on_c, 0, 73, 0
2,35697, Note_on_c, 0, 66, 0
2,35701, Note_on_c, 0, 64, 75
2,35713, Note_on_c, 0, 52, 74
2,35717, Note_on_c, 0, 50, 0
2,35856, Note_on_c, 0, 62, 73
2,35865, Note_on_c, 0, 52, 0
2,35867, Note_on_c, 0, 54, 75
2,35879, Note_on_c, 0, 64, 0
2,35918, Note_on_c, 0, 54, 0
2,35944, Note_on_c, 0, 62, 0
2,35990, Note_on_c, 0, 73, 78
2,36107, Note_on_c, 0, 42, 75
2,36120, Note_on_c, 0, 69, 72
2,36128, Note_on_c, 0, 62, 68
2,36145, Note_on_c, 0, 73, 0
2,36160, Note_on_c, 0, 42, 0
2,36197, Note_on_c, 0, 62, 0
2,36243, Note_on_c, 0, 73, 81
2,36301, Note_on_c, 0, 69, 0
2,36359, Note_on_c, 0, 54, 79
2,36369, Note_on_c, 0, 68, 76
2,36372, Note_on_c, 0, 62, 67
2,36374, Note_on_c, 0, 73, 0
2,36409, Note_on_c, 0, 54, 0
2,36427, Note_on_c, 0, 62, 0
2,36490, Note_on_c, 0, 71, 76
2,36497, Note_on_c, 0, 68, 0
2,36615, Note_on_c, 0, 71, 0
2,36618, Note_on_c, 0, 61, 71
2,36625, Note_on_c, 0, 52, 73
2,36674, Note_on_c, 0, 52, 0
2,36698, Note_on_c, 0, 61, 0
2,36748, Note_on_c, 0, 71, 72
2,36872, Note_on_c, 0, 71, 0
2,36886, Note_on_c, 0, 40, 60
2,36886, Note_on_c, 0, 68, 72
2,36894, Note_on_c, 0, 61, 64
2,36934, Note_on_c, 0, 40, 0
2,36955, Note_on_c, 0, 61, 0
2,37003, Note_on_c, 0, 71, 70
2,37038, Note_on_c, 0, 68, 0
2,37109, Note_on_c, 0, 71, 0
2,37137, Note_on_c, 0, 61, 61
2,37137, Note_on_c, 0, 66, 65
2,37154, Note_on_c, 0, 52, 62
2,37193, Note_on_c, 0, 52, 0
2,37210, Note_on_c, 0, 61, 0
2,37269, Note_on_c, 0, 66, 0
2,37269, Note_on_c, 0, 69, 67
2,37400, Note_on_c, 0, 69, 0
2,37413, Note_on_c, 0, 50, 61
2,37418, Note_on_c, 0, 59, 62
2,37549, Note_on_c, 0, 69, 66
2,37632, Note_on_c, 0, 59, 0
2,37644, Note_on_c, 0, 50, 0
2,37676, Note_on_c, 0, 52, 62
2,37682, Note_on_c, 0, 69, 0
2,37685, Note_on_c, 0, 68, 67
2,37688, Note_on_c, 0, 64, 67
2,37770, Note_on_c, 0, 52, 0
2,37781, Note_on_c, 0, 50, 61
2,37798, Note_on_c, 0, 64, 0
2,37805, Note_on_c, 0, 71, 74
2,37810, Note_on_c, 0, 68, 0
2,37912, Note_on_c, 0, 50, 0
2,37914, Note_on_c, 0, 49, 62
2,37926, Note_on_c, 0, 64, 69
2,37932, Note_on_c, 0, 62, 65
2,37943, Note_on_c, 0, 71, 0
2,38013, Note_on_c, 0, 49, 0
2,38037, Note_on_c, 0, 47, 60
2,38051, Note_on_c, 0, 68, 67
2,38069, Note_on_c, 0, 64, 0
2,38174, Note_on_c, 0, 68, 0
2,38190, Note_on_c, 0, 69, 69
2,38197, Note_on_c, 0, 49, 54
2,38249, Note_on_c, 0, 47, 0
2,38273, Control_c, 0, 64, 45
2,38297, Control_c, 0, 64, 60
2,38311, Control_c, 0, 64, 64
2,38326, Control_c, 0, 64, 67
2,38327, Note_on_c, 0, 52, 58
2,38335, Note_on_c, 0, 49, 0
2,38343, Control_c, 0, 64, 72
2,38357, Control_c, 0, 64, 79
2,38372, Control_c, 0, 64, 84
2,38378, Note_on_c, 0, 62, 0
2,38388, Control_c, 0, 64, 85
2,38453, Note_on_c, 0, 61, 69
2,38454, Note_on_c, 0, 69, 0
2,38455, Note_on_c, 0, 64, 74
2,38461, Note_on_c, 0, 52, 0
2,38465, Control_c, 0, 64, 84
2,38472, Note_on_c, 0, 57, 66
2,38479, Control_c, 0, 64, 74
2,38494, Control_c, 0, 64, 57
2,38510, Control_c, 0, 64, 0
2,38555, Control_c, 0, 64, 46
2,38570, Control_c, 0, 64, 56
2,38586, Control_c, 0, 64, 59
2,38587, Note_on_c, 0, 52, 65
2,38589, Note_on_c, 0, 57, 0
2,38600, Control_c, 0, 64, 62
2,38615, Control_c, 0, 64, 62
2,38692, Control_c, 0, 64, 60
2,38708, Control_c, 0, 64, 0
2,38710, Note_on_c, 0, 61, 0
2,38717, Note_on_c, 0, 64, 0
2,38717, Note_on_c, 0, 66, 75
2,38722, Note_on_c, 0, 60, 72
2,38724, Note_on_c, 0, 51, 66
2,38726, Note_on_c, 0, 52, 0
2,38784, Control_c, 0, 64, 37
2,38799, Control_c, 0, 64, 59
2,38817, Control_c, 0, 64, 64
2,38818, Note_on_c, 0, 51, 0
2,38831, Control_c, 0, 64, 67
2,38839, Note_on_c, 0, 57, 61
2,38846, Control_c, 0, 64, 70
2,38862, Control_c, 0, 64, 72
2,38893, Control_c, 0, 64, 73
2,38953, Control_c, 0, 64, 72
2,38965, Note_on_c, 0, 57, 0
2,38968, Control_c, 0, 64, 64
2,38984, Control_c, 0, 64, 0
2,38986, Note_on_c, 0, 52, 59
2,38987, Note_on_c, 0, 67, 74
2,39014, Control_c, 0, 64, 24
2,39029, Control_c, 0, 64, 55
2,39032, Note_on_c, 0, 60, 0
2,39044, Control_c, 0, 64, 63
2,39067, Control_c, 0, 64, 69
2,39082, Control_c, 0, 64, 83
2,39090, Note_on_c, 0, 66, 0
2,39098, Control_c, 0, 64, 127
2,39109, Note_on_c, 0, 67, 0
2,39118, Note_on_c, 0, 52, 0
2,39123, Note_on_c, 0, 55, 74
2,39234, Control_c, 0, 64, 86
2,39250, Control_c, 0, 64, 63
2,39250, Note_on_c, 0, 54, 75
2,39251, Note_on_c, 0, 55, 0
2,39262, Note_on_c, 0, 68, 80
2,39265, Control_c, 0, 64, 46
2,39266, Note_on_c, 0, 59, 69
2,39280, Control_c, 0, 64, 58
2,39296, Control_c, 0, 64, 64
2,39310, Control_c, 0, 64, 70
2,39310, Note_on_c, 0, 59, 0
2,39325, Control_c, 0, 64, 81
2,39341, Control_c, 0, 64, 101
2,39356, Control_c, 0, 64, 127
2,39356, Note_on_c, 0, 68, 0
2,39376, Note_on_c, 0, 54, 0
2,39386, Note_on_c, 0, 52, 73
2,39478, Control_c, 0, 64, 120
2,39494, Control_c, 0, 64, 90
2,39509, Control_c, 0, 64, 71
2,39524, Control_c, 0, 64, 52
2,39524, Note_on_c, 0, 52, 0
2,39531, Note_on_c, 0, 50, 66
2,39532, Note_on_c, 0, 70, 81
2,39535, Note_on_c, 0, 64, 78
2,39539, Control_c, 0, 64, 0
2,39625, Note_on_c, 0, 50, 0
2,39646, Note_on_c, 0, 49, 66
2,39791, Note_on_c, 0, 71, 81
2,39802, Note_on_c, 0, 70, 0
2,39804, Note_on_c, 0, 51, 64
2,39874, Note_on_c, 0, 49, 0
2,39935, Note_on_c, 0, 54, 73
2,39952, Note_on_c, 0, 51, 0
2,40064, Note_on_c, 0, 66, 77
2,40065, Note_on_c, 0, 63, 73
2,40072, Note_on_c, 0, 59, 71
2,40073, Note_on_c, 0, 54, 0
2,40078, Note_on_c, 0, 64, 0
2,40098, Note_on_c, 0, 71, 0
2,40191, Note_on_c, 0, 54, 74
2,40210, Note_on_c, 0, 59, 0
2,40344, Note_on_c, 0, 68, 81
2,40348, Note_on_c, 0, 53, 63
2,40349, Note_on_c, 0, 62, 80
2,40355, Note_on_c, 0, 54, 0
2,40359, Note_on_c, 0, 63, 0
2,40393, Note_on_c, 0, 66, 0
2,40443, Control_c, 0, 64, 45
2,40455, Note_on_c, 0, 53, 0
2,40459, Control_c, 0, 64, 59
2,40474, Control_c, 0, 64, 60
2,40475, Note_on_c, 0, 59, 69
2,40581, Control_c, 0, 64, 55
2,40603, Control_c, 0, 64, 0
2,40622, Note_on_c, 0, 59, 0
2,40629, Note_on_c, 0, 54, 70
2,40633, Note_on_c, 0, 69, 80
2,40674, Note_on_c, 0, 68, 0
2,40691, Note_on_c, 0, 62, 0
2,40694, Control_c, 0, 64, 59
2,40709, Control_c, 0, 64, 66
2,40723, Control_c, 0, 64, 75
2,40728, Note_on_c, 0, 69, 0
2,40739, Control_c, 0, 64, 84
2,40746, Note_on_c, 0, 54, 0
2,40754, Control_c, 0, 64, 92
2,40756, Note_on_c, 0, 57, 75
2,40770, Control_c, 0, 64, 96
2,40785, Control_c, 0, 64, 96
2,40876, Control_c, 0, 64, 89
2,40892, Control_c, 0, 64, 69
2,40907, Control_c, 0, 64, 40
2,40907, Note_on_c, 0, 56, 74
2,40910, Note_on_c, 0, 57, 0
2,40912, Note_on_c, 0, 61, 77
2,40913, Note_on_c, 0, 70, 86
2,40921, Control_c, 0, 64, 0
2,40937, Control_c, 0, 64, 48
2,40952, Control_c, 0, 64, 60
2,40967, Control_c, 0, 64, 64
2,40974, Note_on_c, 0, 61, 0
2,40983, Control_c, 0, 64, 67
2,40993, Note_on_c, 0, 70, 0
2,40997, Control_c, 0, 64, 74
2,41013, Control_c, 0, 64, 83
2,41028, Control_c, 0, 64, 87
2,41036, Note_on_c, 0, 54, 73
2,41043, Control_c, 0, 64, 87
2,41067, Note_on_c, 0, 56, 0
2,41120, Control_c, 0, 64, 87
2,41136, Control_c, 0, 64, 78
2,41147, Note_on_c, 0, 54, 0
2,41151, Control_c, 0, 64, 62
2,41165, Control_c, 0, 64, 0
2,41170, Note_on_c, 0, 53, 75
2,41182, Note_on_c, 0, 72, 81
2,41185, Note_on_c, 0, 66, 78
2,41212, Control_c, 0, 64, 41
2,41227, Control_c, 0, 64, 58
2,41241, Control_c, 0, 64, 64
2,41257, Control_c, 0, 64, 67
2,41272, Control_c, 0, 64, 70
2,41286, Control_c, 0, 64, 73
2,41292, Note_on_c, 0, 51, 70
2,41292, Note_on_c, 0, 53, 0
2,41302, Control_c, 0, 64, 74
2,41386, Control_c, 0, 64, 73
2,41401, Control_c, 0, 64, 67
2,41417, Control_c, 0, 64, 49
2,41432, Control_c, 0, 64, 0
2,41447, Note_on_c, 0, 51, 0
2,41447, Note_on_c, 0, 73, 86
2,41450, Note_on_c, 0, 72, 0
2,41452, Note_on_c, 0, 49, 65
2,41573, Note_on_c, 0, 50, 76
2,41585, Note_on_c, 0, 49, 0
2,41712, Note_on_c, 0, 49, 68
2,41718, Note_on_c, 0, 65, 78
2,41732, Note_on_c, 0, 50, 0
2,41761, Note_on_c, 0, 66, 0
2,41768, Note_on_c, 0, 73, 0
2,41813, Note_on_c, 0, 49, 0
2,41830, Note_on_c, 0, 47, 70
2,41961, Note_on_c, 0, 47, 0
2,41968, Note_on_c, 0, 45, 72
2,41974, Note_on_c, 0, 73, 85
2,42091, Note_on_c, 0, 45, 0
2,42094, Note_on_c, 0, 44, 71
2,42216, Note_on_c, 0, 44, 0
2,42226, Note_on_c, 0, 42, 69
2,42244, Note_on_c, 0, 69, 76
2,42300, Note_on_c, 0, 73, 0
2,42326, Note_on_c, 0, 69, 0
2,42327, Note_on_c, 0, 65, 0
2,42346, Note_on_c, 0, 42, 0
2,42357, Note_on_c, 0, 54, 71
2,42500, Note_on_c, 0, 69, 78
2,42505, Note_on_c, 0, 66, 78
2,42511, Note_on_c, 0, 56, 69
2,42531, Note_on_c, 0, 54, 0
2,42553, Note_on_c, 0, 69, 0
2,42574, Note_on_c, 0, 66, 0
2,42627, Note_on_c, 0, 57, 71
2,42667, Note_on_c, 0, 56, 0
2,42746, Note_on_c, 0, 57, 0
2,42764, Note_on_c, 0, 65, 73
2,42764, Note_on_c, 0, 68, 78
2,42766, Note_on_c, 0, 59, 73
2,42801, Note_on_c, 0, 65, 0
2,42813, Note_on_c, 0, 68, 0
2,42880, Note_on_c, 0, 59, 0
2,42895, Note_on_c, 0, 61, 67
2,43026, Note_on_c, 0, 66, 79
2,43032, Note_on_c, 0, 62, 70
2,43034, Note_on_c, 0, 61, 0
2,43140, Note_on_c, 0, 62, 0
2,43153, Note_on_c, 0, 64, 66
2,43285, Note_on_c, 0, 62, 66
2,43289, Note_on_c, 0, 64, 0
2,43296, Note_on_c, 0, 68, 75
2,43363, Note_on_c, 0, 66, 0
2,43413, Note_on_c, 0, 61, 72
2,43413, Note_on_c, 0, 62, 0
2,43425, Note_on_c, 0, 70, 76
2,43453, Note_on_c, 0, 68, 0
2,43516, Note_on_c, 0, 61, 0
2,43523, Note_on_c, 0, 70, 0
2,43542, Note_on_c, 0, 59, 77
2,43556, Note_on_c, 0, 71, 76
2,43678, Note_on_c, 0, 58, 72
2,43685, Note_on_c, 0, 59, 0
2,43687, Note_on_c, 0, 73, 79
2,43740, Note_on_c, 0, 71, 0
2,43815, Note_on_c, 0, 59, 75
2,43820, Note_on_c, 0, 74, 77
2,43833, Note_on_c, 0, 58, 0
2,43844, Note_on_c, 0, 73, 0
2,43883, Note_on_c, 0, 59, 0
2,43927, Note_on_c, 0, 74, 0
2,43949, Note_on_c, 0, 81, 73
2,44072, Note_on_c, 0, 62, 73
2,44072, Note_on_c, 0, 81, 0
2,44079, Note_on_c, 0, 71, 73
2,44105, Note_on_c, 0, 62, 0
2,44174, Note_on_c, 0, 71, 0
2,44195, Note_on_c, 0, 81, 69
2,44322, Note_on_c, 0, 81, 0
2,44326, Note_on_c, 0, 52, 64
2,44332, Note_on_c, 0, 71, 62
2,44338, Note_on_c, 0, 74, 69
2,44363, Note_on_c, 0, 52, 0
2,44402, Note_on_c, 0, 71, 0
2,44436, Note_on_c, 0, 74, 0
2,44454, Note_on_c, 0, 80, 68
2,44582, Note_on_c, 0, 80, 0
2,44607, Note_on_c, 0, 57, 69
2,44611, Note_on_c, 0, 73, 68
2,44614, Note_on_c, 0, 69, 62
2,44639, Note_on_c, 0, 57, 0
2,44685, Note_on_c, 0, 73, 0
2,44688, Note_on_c, 0, 69, 0
2,44721, Note_on_c, 0, 80, 66
2,44857, Note_on_c, 0, 80, 0
2,44858, Note_on_c, 0, 61, 77
2,44860, Note_on_c, 0, 69, 58
2,44889, Note_on_c, 0, 61, 0
2,44940, Note_on_c, 0, 69, 0
2,44985, Note_on_c, 0, 80, 65
2,45130, Note_on_c, 0, 62, 77
2,45135, Note_on_c, 0, 69, 64
2,45135, Note_on_c, 0, 80, 0
2,45142, Note_on_c, 0, 73, 70
2,45244, Note_on_c, 0, 69, 0
2,45275, Note_on_c, 0, 78, 74
2,45280, Note_on_c, 0, 73, 0
2,45405, Note_on_c, 0, 78, 0
2,45412, Note_on_c, 0, 68, 69
2,45413, Note_on_c, 0, 71, 69
2,45523, Note_on_c, 0, 78, 81
2,45525, Note_on_c, 0, 71, 0
2,45534, Note_on_c, 0, 68, 0
2,45650, Note_on_c, 0, 62, 0
2,45654, Note_on_c, 0, 61, 73
2,45659, Note_on_c, 0, 73, 75
2,45665, Note_on_c, 0, 77, 75
2,45691, Note_on_c, 0, 78, 0
2,45775, Note_on_c, 0, 71, 79
2,45782, Note_on_c, 0, 80, 78
2,45791, Note_on_c, 0, 73, 0
2,45817, Note_on_c, 0, 77, 0
2,45861, Note_on_c, 0, 71, 0
2,45901, Note_on_c, 0, 69, 82
2,45904, Note_on_c, 0, 73, 83
2,45922, Note_on_c, 0, 80, 0
2,45940, Note_on_c, 0, 69, 0
2,46021, Note_on_c, 0, 68, 84
2,46027, Note_on_c, 0, 77, 80
2,46028, Note_on_c, 0, 73, 0
2,46078, Note_on_c, 0, 68, 0
2,46149, Note_on_c, 0, 77, 0
2,46156, Note_on_c, 0, 78, 79
2,46157, Note_on_c, 0, 69, 79
2,46218, Note_on_c, 0, 78, 0
2,46231, Note_on_c, 0, 61, 0
2,46272, Note_on_c, 0, 59, 74
2,46406, Note_on_c, 0, 57, 68
2,46411, Note_on_c, 0, 73, 82
2,46419, Note_on_c, 0, 59, 0
2,46491, Note_on_c, 0, 73, 0
2,46536, Note_on_c, 0, 56, 67
2,46552, Note_on_c, 0, 57, 0
2,46659, Note_on_c, 0, 78, 83
2,46666, Note_on_c, 0, 54, 63
2,46674, Note_on_c, 0, 56, 0
2,46751, Note_on_c, 0, 54, 0
2,46793, Note_on_c, 0, 52, 58
2,46932, Note_on_c, 0, 51, 63
2,46937, Note_on_c, 0, 52, 0
2,46984, Note_on_c, 0, 51, 0
2,47047, Note_on_c, 0, 76, 71
2,47124, Note_on_c, 0, 78, 0
2,47192, Note_on_c, 0, 59, 76
2,47200, Note_on_c, 0, 75, 79
2,47239, Note_on_c, 0, 76, 0
2,47311, Note_on_c, 0, 73, 78
2,47337, Note_on_c, 0, 75, 0
2,47367, Note_on_c, 0, 73, 0
2,47403, Note_on_c, 0, 69, 0
2,47439, Note_on_c, 0, 71, 81
2,47599, Note_on_c, 0, 69, 74
2,47671, Note_on_c, 0, 71, 0
2,47702, Note_on_c, 0, 67, 74
2,47723, Note_on_c, 0, 69, 0
2,47809, Note_on_c, 0, 57, 59
2,47814, Note_on_c, 0, 67, 0
2,47820, Note_on_c, 0, 66, 77
2,47834, Note_on_c, 0, 59, 0
2,47959, Note_on_c, 0, 64, 73
2,47961, Note_on_c, 0, 66, 0
2,47961, Note_on_c, 0, 71, 74
2,47964, Note_on_c, 0, 55, 68
2,47977, Note_on_c, 0, 57, 0
2,47992, Note_on_c, 0, 64, 0
2,48009, Note_on_c, 0, 71, 0
2,48071, Note_on_c, 0, 54, 63
2,48076, Note_on_c, 0, 55, 0
2,48162, Note_on_c, 0, 54, 0
2,48192, Note_on_c, 0, 76, 74
2,48203, Note_on_c, 0, 67, 64
2,48214, Note_on_c, 0, 52, 61
2,48322, Note_on_c, 0, 52, 0
2,48342, Note_on_c, 0, 50, 58
2,48477, Note_on_c, 0, 49, 61
2,48496, Note_on_c, 0, 50, 0
2,48532, Note_on_c, 0, 49, 0
2,48567, Note_on_c, 0, 74, 59
2,48711, Note_on_c, 0, 73, 67
2,48731, Note_on_c, 0, 57, 64
2,48745, Note_on_c, 0, 76, 0
2,48796, Note_on_c, 0, 74, 0
2,48830, Note_on_c, 0, 71, 71
2,48849, Note_on_c, 0, 73, 0
2,48885, Note_on_c, 0, 71, 0
2,48952, Note_on_c, 0, 67, 0
2,48967, Note_on_c, 0, 69, 70
2,49108, Note_on_c, 0, 67, 67
2,49166, Note_on_c, 0, 69, 0
2,49230, Note_on_c, 0, 66, 71
2,49251, Note_on_c, 0, 67, 0
2,49322, Note_on_c, 0, 55, 52
2,49334, Note_on_c, 0, 66, 0
2,49345, Note_on_c, 0, 64, 72
2,49347, Note_on_c, 0, 57, 0
2,49476, Note_on_c, 0, 55, 0
2,49478, Note_on_c, 0, 54, 66
2,49485, Note_on_c, 0, 62, 64
2,49485, Note_on_c, 0, 64, 0
2,49487, Note_on_c, 0, 69, 64
2,49519, Note_on_c, 0, 62, 0
2,49523, Note_on_c, 0, 69, 0
2,49555, Note_on_c, 0, 54, 0
2,49606, Note_on_c, 0, 52, 60
2,49725, Note_on_c, 0, 52, 0
2,49725, Note_on_c, 0, 74, 70
2,49731, Note_on_c, 0, 66, 66
2,49735, Note_on_c, 0, 50, 61
2,49871, Note_on_c, 0, 49, 54
2,49899, Note_on_c, 0, 50, 0
2,49988, Note_on_c, 0, 66, 0
2,50013, Note_on_c, 0, 47, 60
2,50046, Note_on_c, 0, 49, 0
2,50065, Note_on_c, 0, 47, 0
2,50126, Note_on_c, 0, 66, 67
2,50208, Note_on_c, 0, 74, 0
2,50268, Note_on_c, 0, 64, 68
2,50269, Note_on_c, 0, 55, 56
2,50286, Note_on_c, 0, 66, 0
2,50402, Note_on_c, 0, 74, 69
2,50529, Note_on_c, 0, 73, 76
2,50654, Note_on_c, 0, 71, 74
2,50685, Note_on_c, 0, 74, 0
2,50697, Note_on_c, 0, 64, 0
2,50747, Note_on_c, 0, 55, 0
2,50779, Note_on_c, 0, 70, 78
2,50809, Note_on_c, 0, 73, 0
2,50834, Note_on_c, 0, 71, 0
2,50899, Note_on_c, 0, 64, 78
2,50906, Note_on_c, 0, 70, 0
2,51031, Note_on_c, 0, 71, 80
2,51034, Note_on_c, 0, 62, 73
2,51036, Note_on_c, 0, 54, 66
2,51109, Note_on_c, 0, 71, 0
2,51149, Note_on_c, 0, 61, 76
2,51151, Note_on_c, 0, 62, 0
2,51273, Note_on_c, 0, 73, 87
2,51283, Note_on_c, 0, 61, 0
2,51285, Note_on_c, 0, 59, 82
2,51364, Note_on_c, 0, 73, 0
2,51407, Note_on_c, 0, 58, 72
2,51418, Note_on_c, 0, 59, 0
2,51509, Note_on_c, 0, 58, 0
2,51520, Note_on_c, 0, 54, 0
2,51541, Note_on_c, 0, 59, 80
2,51546, Note_on_c, 0, 64, 0
2,51546, Note_on_c, 0, 74, 78
2,51682, Note_on_c, 0, 52, 72
2,51779, Note_on_c, 0, 59, 0
2,51804, Note_on_c, 0, 66, 84
2,51818, Note_on_c, 0, 50, 75
2,51869, Note_on_c, 0, 52, 0
2,51897, Note_on_c, 0, 66, 0
2,51933, Note_on_c, 0, 49, 77
2,52055, Note_on_c, 0, 71, 78
2,52061, Note_on_c, 0, 50, 0
2,52071, Note_on_c, 0, 47, 75
2,52082, Note_on_c, 0, 49, 0
2,52200, Note_on_c, 0, 47, 0
2,52202, Note_on_c, 0, 45, 73
2,52336, Note_on_c, 0, 43, 83
2,52367, Note_on_c, 0, 45, 0
2,52392, Note_on_c, 0, 43, 0
2,52432, Note_on_c, 0, 71, 0
2,52449, Note_on_c, 0, 73, 81
2,52458, Note_on_c, 0, 74, 0
2,52585, Note_on_c, 0, 74, 78
2,52600, Note_on_c, 0, 55, 68
2,52602, Note_on_c, 0, 59, 71
2,52613, Note_on_c, 0, 73, 0
2,52639, Note_on_c, 0, 59, 0
2,52700, Note_on_c, 0, 76, 79
2,52734, Note_on_c, 0, 74, 0
2,52845, Note_on_c, 0, 78, 85
2,52850, Note_on_c, 0, 64, 78
2,52974, Note_on_c, 0, 79, 86
2,53007, Note_on_c, 0, 76, 0
2,53118, Note_on_c, 0, 54, 57
2,53126, Note_on_c, 0, 70, 75
2,53134, Note_on_c, 0, 55, 0
2,53140, Note_on_c, 0, 78, 0
2,53156, Note_on_c, 0, 79, 0
2,53186, Note_on_c, 0, 64, 0
2,53239, Note_on_c, 0, 70, 0
2,53241, Note_on_c, 0, 67, 69
2,53347, Note_on_c, 0, 54, 0
2,53357, Note_on_c, 0, 66, 76
2,53360, Note_on_c, 0, 67, 0
2,53476, Note_on_c, 0, 64, 76
2,53521, Note_on_c, 0, 66, 0
2,53572, Note_on_c, 0, 64, 0
2,53599, Note_on_c, 0, 62, 71
2,53726, Note_on_c, 0, 61, 72
2,53727, Note_on_c, 0, 62, 0
2,53871, Note_on_c, 0, 62, 75
2,53907, Note_on_c, 0, 61, 0
2,53953, Note_on_c, 0, 62, 0
2,53978, Note_on_c, 0, 47, 57
2,54119, Note_on_c, 0, 49, 65
2,54120, Note_on_c, 0, 59, 77
2,54169, Note_on_c, 0, 47, 0
2,54186, Note_on_c, 0, 59, 0
2,54247, Note_on_c, 0, 50, 70
2,54306, Note_on_c, 0, 49, 0
2,54353, Note_on_c, 0, 50, 0
2,54363, Note_on_c, 0, 58, 79
2,54369, Note_on_c, 0, 52, 73
2,54424, Note_on_c, 0, 58, 0
2,54493, Note_on_c, 0, 52, 0
2,54496, Note_on_c, 0, 54, 68
2,54639, Note_on_c, 0, 55, 68
2,54641, Note_on_c, 0, 59, 75
2,54678, Note_on_c, 0, 54, 0
2,54691, Note_on_c, 0, 55, 0
2,54891, Note_on_c, 0, 59, 0
2,54904, Note_on_c, 0, 61, 72
2,54915, Note_on_c, 0, 52, 59
2,54956, Note_on_c, 0, 52, 0
2,55038, Note_on_c, 0, 63, 72
2,55053, Note_on_c, 0, 61, 0
2,55149, Note_on_c, 0, 63, 0
2,55158, Note_on_c, 0, 64, 82
2,55161, Note_on_c, 0, 51, 70
2,55207, Note_on_c, 0, 51, 0
2,55276, Note_on_c, 0, 66, 81
2,55307, Note_on_c, 0, 64, 0
2,55426, Note_on_c, 0, 67, 80
2,55438, Note_on_c, 0, 52, 66
2,55465, Note_on_c, 0, 66, 0
2,55487, Note_on_c, 0, 67, 0
2,55699, Note_on_c, 0, 64, 77
2,55703, Note_on_c, 0, 54, 67
2,55756, Note_on_c, 0, 64, 0
2,55758, Note_on_c, 0, 52, 0
2,55822, Note_on_c, 0, 55, 66
2,55874, Note_on_c, 0, 54, 0
2,55955, Note_on_c, 0, 55, 0
2,55956, Note_on_c, 0, 63, 74
2,55966, Note_on_c, 0, 57, 74
2,55995, Note_on_c, 0, 63, 0
2,56079, Note_on_c, 0, 57, 0
2,56090, Note_on_c, 0, 59, 68
2,56201, Note_on_c, 0, 59, 0
2,56224, Note_on_c, 0, 60, 81
2,56233, Note_on_c, 0, 64, 81
2,56262, Note_on_c, 0, 64, 0
2,56276, Note_on_c, 0, 60, 0
2,56342, Note_on_c, 0, 79, 82
2,56477, Note_on_c, 0, 48, 72
2,56483, Note_on_c, 0, 69, 81
2,56484, Note_on_c, 0, 79, 0
2,56514, Note_on_c, 0, 48, 0
2,56590, Note_on_c, 0, 69, 0
2,56593, Note_on_c, 0, 79, 80
2,56732, Note_on_c, 0, 60, 78
2,56734, Note_on_c, 0, 64, 71
2,56737, Note_on_c, 0, 69, 70
2,56745, Note_on_c, 0, 79, 0
2,56764, Note_on_c, 0, 64, 0
2,56768, Note_on_c, 0, 60, 0
2,56840, Note_on_c, 0, 69, 0
2,56862, Note_on_c, 0, 78, 80
2,56977, Note_on_c, 0, 78, 0
2,56994, Note_on_c, 0, 59, 75
2,56994, Note_on_c, 0, 63, 68
2,57004, Note_on_c, 0, 67, 76
2,57020, Note_on_c, 0, 59, 0
2,57023, Note_on_c, 0, 63, 0
2,57116, Note_on_c, 0, 67, 0
2,57116, Note_on_c, 0, 78, 72
2,57232, Note_on_c, 0, 78, 0
2,57246, Note_on_c, 0, 47, 70
2,57254, Note_on_c, 0, 67, 73
2,57291, Note_on_c, 0, 47, 0
2,57362, Note_on_c, 0, 78, 71
2,57366, Note_on_c, 0, 67, 0
2,57502, Note_on_c, 0, 59, 72
2,57506, Note_on_c, 0, 64, 69
2,57506, Note_on_c, 0, 67, 76
2,57534, Note_on_c, 0, 59, 0
2,57535, Note_on_c, 0, 64, 0
2,57595, Note_on_c, 0, 67, 0
2,57638, Note_on_c, 0, 76, 74
2,57675, Note_on_c, 0, 78, 0
2,57768, Note_on_c, 0, 76, 0
2,57774, Note_on_c, 0, 66, 71
2,57779, Note_on_c, 0, 57, 64
2,57896, Note_on_c, 0, 76, 70
2,57998, Note_on_c, 0, 57, 0
2,58019, Note_on_c, 0, 75, 77
2,58025, Note_on_c, 0, 59, 69
2,58038, Note_on_c, 0, 76, 0
2,58137, Note_on_c, 0, 78, 79
2,58138, Note_on_c, 0, 59, 0
2,58143, Note_on_c, 0, 57, 67
2,58177, Note_on_c, 0, 75, 0
2,58273, Note_on_c, 0, 71, 76
2,58275, Note_on_c, 0, 54, 37
2,58276, Note_on_c, 0, 54, 0
2,58284, Note_on_c, 0, 55, 69
2,58305, Note_on_c, 0, 66, 0
2,58346, Note_on_c, 0, 57, 0
2,58377, Note_on_c, 0, 55, 0
2,58390, Note_on_c, 0, 54, 73
2,58397, Note_on_c, 0, 75, 77
2,58400, Note_on_c, 0, 78, 0
2,58418, Note_on_c, 0, 71, 0
2,58523, Note_on_c, 0, 59, 67
2,58524, Note_on_c, 0, 55, 67
2,58531, Note_on_c, 0, 76, 70
2,58534, Note_on_c, 0, 75, 0
2,58560, Note_on_c, 0, 59, 0
2,58586, Note_on_c, 0, 55, 0
2,58595, Note_on_c, 0, 54, 0
2,58649, Note_on_c, 0, 75, 79
2,58659, Note_on_c, 0, 76, 0
2,58781, Note_on_c, 0, 76, 81
2,58782, Note_on_c, 0, 75, 0
2,58790, Note_on_c, 0, 43, 75
2,58834, Note_on_c, 0, 43, 0
2,58903, Note_on_c, 0, 79, 80
2,58932, Note_on_c, 0, 76, 0
2,59048, Note_on_c, 0, 55, 74
2,59051, Note_on_c, 0, 83, 83
2,59052, Note_on_c, 0, 64, 73
2,59137, Note_on_c, 0, 64, 0
2,59156, Note_on_c, 0, 79, 0
2,59183, Note_on_c, 0, 74, 75
2,59183, Note_on_c, 0, 83, 0
2,59211, Note_on_c, 0, 74, 0
2,59324, Note_on_c, 0, 73, 71
2,59332, Note_on_c, 0, 69, 64
2,59440, Note_on_c, 0, 71, 76
2,59440, Note_on_c, 0, 73, 0
2,59457, Note_on_c, 0, 69, 0
2,59548, Note_on_c, 0, 55, 0
2,59570, Note_on_c, 0, 73, 73
2,59577, Note_on_c, 0, 57, 69
2,59624, Note_on_c, 0, 71, 0
2,59675, Note_on_c, 0, 57, 0
2,59681, Note_on_c, 0, 76, 72
2,59689, Note_on_c, 0, 55, 69
2,59696, Note_on_c, 0, 73, 0
2,59807, Note_on_c, 0, 69, 70
2,59826, Note_on_c, 0, 54, 66
2,59837, Note_on_c, 0, 55, 0
2,59936, Note_on_c, 0, 73, 72
2,59940, Note_on_c, 0, 52, 58
2,59940, Note_on_c, 0, 54, 0
2,59997, Note_on_c, 0, 76, 0
2,60002, Note_on_c, 0, 69, 0
2,60074, Note_on_c, 0, 57, 62
2,60080, Note_on_c, 0, 54, 66
2,60085, Note_on_c, 0, 74, 65
2,60091, Note_on_c, 0, 73, 0
2,60115, Note_on_c, 0, 57, 0
2,60130, Note_on_c, 0, 52, 0
2,60136, Note_on_c, 0, 54, 0
2,60204, Note_on_c, 0, 74, 0
2,60210, Note_on_c, 0, 73, 74
2,60336, Note_on_c, 0, 73, 0
2,60343, Note_on_c, 0, 74, 71
2,60346, Note_on_c, 0, 42, 63
2,60381, Note_on_c, 0, 42, 0
2,60470, Note_on_c, 0, 78, 75
2,60517, Note_on_c, 0, 74, 0
2,60604, Note_on_c, 0, 62, 50
2,60613, Note_on_c, 0, 54, 64
2,60615, Note_on_c, 0, 81, 71
2,60704, Note_on_c, 0, 81, 0
2,60717, Note_on_c, 0, 78, 0
2,60721, Note_on_c, 0, 73, 70
2,60753, Note_on_c, 0, 62, 0
2,60754, Note_on_c, 0, 73, 0
2,60869, Note_on_c, 0, 71, 68
2,60885, Note_on_c, 0, 67, 58
2,60986, Note_on_c, 0, 71, 0
2,60996, Note_on_c, 0, 70, 69
2,61056, Note_on_c, 0, 54, 0
2,61123, Note_on_c, 0, 71, 70
2,61126, Note_on_c, 0, 52, 67
2,61151, Note_on_c, 0, 70, 0
2,61161, Note_on_c, 0, 52, 0
2,61234, Note_on_c, 0, 71, 0
2,61236, Note_on_c, 0, 74, 66
2,61382, Note_on_c, 0, 73, 74
2,61390, Note_on_c, 0, 50, 66
2,61422, Note_on_c, 0, 50, 0
2,61487, Note_on_c, 0, 74, 0
2,61500, Note_on_c, 0, 71, 69
2,61629, Note_on_c, 0, 71, 0
2,61644, Note_on_c, 0, 49, 68
2,61646, Note_on_c, 0, 70, 72
2,61653, Note_on_c, 0, 73, 0
2,61758, Note_on_c, 0, 50, 73
2,61765, Note_on_c, 0, 71, 65
2,61791, Note_on_c, 0, 70, 0
2,61791, Note_on_c, 0, 70, 3
2,61814, Note_on_c, 0, 49, 0
2,61818, Note_on_c, 0, 70, 0
2,61871, Note_on_c, 0, 50, 0
2,61879, Note_on_c, 0, 73, 78
2,61882, Note_on_c, 0, 52, 79
2,61933, Note_on_c, 0, 71, 0
2,61958, Note_on_c, 0, 67, 0
2,61998, Note_on_c, 0, 74, 75
2,61999, Note_on_c, 0, 54, 75
2,62007, Note_on_c, 0, 52, 0
2,62139, Note_on_c, 0, 76, 80
2,62141, Note_on_c, 0, 55, 75
2,62143, Note_on_c, 0, 73, 0
2,62149, Note_on_c, 0, 54, 0
2,62157, Note_on_c, 0, 74, 0
2,62245, Note_on_c, 0, 67, 76
2,62248, Note_on_c, 0, 55, 0
2,62267, Note_on_c, 0, 47, 63
2,62397, Note_on_c, 0, 47, 0
2,62403, Note_on_c, 0, 46, 65
2,62403, Note_on_c, 0, 66, 80
2,62426, Note_on_c, 0, 67, 0
2,62436, Note_on_c, 0, 76, 0
2,62457, Note_on_c, 0, 66, 0
2,62499, Note_on_c, 0, 46, 0
2,62521, Note_on_c, 0, 55, 68
2,62648, Note_on_c, 0, 55, 0
2,62652, Note_on_c, 0, 54, 72
2,62653, Note_on_c, 0, 73, 83
2,62658, Note_on_c, 0, 70, 74
2,62686, Note_on_c, 0, 70, 0
2,62701, Note_on_c, 0, 73, 0
2,62734, Note_on_c, 0, 54, 0
2,62768, Note_on_c, 0, 52, 70
2,62899, Note_on_c, 0, 52, 0
2,62903, Note_on_c, 0, 50, 76
2,62910, Note_on_c, 0, 78, 87
2,62975, Note_on_c, 0, 78, 0
2,63031, Note_on_c, 0, 49, 73
2,63050, Note_on_c, 0, 50, 0
2,63164, Note_on_c, 0, 49, 0
2,63166, Note_on_c, 0, 47, 74
2,63166, Note_on_c, 0, 71, 80
2,63166, Note_on_c, 0, 74, 81
2,63199, Note_on_c, 0, 71, 0
2,63226, Note_on_c, 0, 74, 0
2,63288, Note_on_c, 0, 49, 75
2,63410, Note_on_c, 0, 50, 75
2,63411, Note_on_c, 0, 71, 86
2,63436, Note_on_c, 0, 47, 0
2,63466, Note_on_c, 0, 71, 0
2,63468, Note_on_c, 0, 49, 0
2,63522, Note_on_c, 0, 50, 0
2,63525, Note_on_c, 0, 52, 74
2,63674, Note_on_c, 0, 54, 75
2,63677, Note_on_c, 0, 70, 82
2,63690, Note_on_c, 0, 52, 0
2,63731, Note_on_c, 0, 70, 0
2,63792, Note_on_c, 0, 52, 75
2,63802, Note_on_c, 0, 54, 0
2,63929, Note_on_c, 0, 50, 68
2,63930, Note_on_c, 0, 71, 77
2,63936, Note_on_c, 0, 52, 0
2,64052, Note_on_c, 0, 54, 72
2,64089, Note_on_c, 0, 50, 0
2,64163, Note_on_c, 0, 54, 0
2,64163, Note_on_c, 0, 71, 0
2,64187, Note_on_c, 0, 73, 80
2,64189, Note_on_c, 0, 52, 68
2,64303, Note_on_c, 0, 50, 73
2,64303, Note_on_c, 0, 52, 0
2,64303, Note_on_c, 0, 73, 0
2,64305, Note_on_c, 0, 74, 80
2,64432, Note_on_c, 0, 49, 69
2,64435, Note_on_c, 0, 50, 0
2,64437, Note_on_c, 0, 76, 75
2,64453, Note_on_c, 0, 74, 0
2,64551, Note_on_c, 0, 47, 71
2,64558, Note_on_c, 0, 49, 0
2,64558, Note_on_c, 0, 78, 82
2,64602, Note_on_c, 0, 76, 0
2,64686, Note_on_c, 0, 79, 84
2,64693, Note_on_c, 0, 52, 69
2,64713, Note_on_c, 0, 78, 0
2,64747, Note_on_c, 0, 47, 0
2,64779, Note_on_c, 0, 52, 0
2,64798, Note_on_c, 0, 74, 79
2,64862, Note_on_c, 0, 79, 0
2,64948, Note_on_c, 0, 64, 76
2,64951, Note_on_c, 0, 67, 79
2,64970, Note_on_c, 0, 74, 0
2,65001, Note_on_c, 0, 64, 0
2,65082, Note_on_c, 0, 74, 78
2,65119, Note_on_c, 0, 67, 0
2,65213, Note_on_c, 0, 57, 70
2,65214, Note_on_c, 0, 79, 79
2,65215, Note_on_c, 0, 64, 72
2,65243, Note_on_c, 0, 57, 0
2,65247, Note_on_c, 0, 64, 0
2,65284, Note_on_c, 0, 74, 0
2,65333, Note_on_c, 0, 73, 81
2,65351, Note_on_c, 0, 79, 0
2,65474, Note_on_c, 0, 78, 79
2,65475, Note_on_c, 0, 50, 69
2,65475, Note_on_c, 0, 62, 67
2,65489, Note_on_c, 0, 73, 0
2,65514, Note_on_c, 0, 62, 0
2,65530, Note_on_c, 0, 50, 0
2,65593, Note_on_c, 0, 73, 82
2,65599, Note_on_c, 0, 78, 0
2,65717, Note_on_c, 0, 73, 0
2,65722, Note_on_c, 0, 66, 74
2,65725, Note_on_c, 0, 62, 72
2,65761, Note_on_c, 0, 62, 0
2,65828, Note_on_c, 0, 66, 0
2,65833, Note_on_c, 0, 73, 76
2,65983, Note_on_c, 0, 78, 70
2,65991, Note_on_c, 0, 62, 70
2,65998, Note_on_c, 0, 55, 64
2,66001, Note_on_c, 0, 73, 0
2,66020, Note_on_c, 0, 62, 0
2,66026, Note_on_c, 0, 55, 0
2,66103, Note_on_c, 0, 71, 69
2,66119, Note_on_c, 0, 78, 0
2,66250, Note_on_c, 0, 76, 76
2,66251, Note_on_c, 0, 61, 72
2,66253, Note_on_c, 0, 49, 54
2,66259, Note_on_c, 0, 71, 0
2,66278, Note_on_c, 0, 49, 0
2,66365, Note_on_c, 0, 59, 69
2,66366, Note_on_c, 0, 61, 0
2,66487, Note_on_c, 0, 76, 0
2,66498, Note_on_c, 0, 59, 0
2,66501, Note_on_c, 0, 58, 66
2,66502, Note_on_c, 0, 73, 68
2,66505, Note_on_c, 0, 78, 68
2,66586, Note_on_c, 0, 58, 0
2,66620, Note_on_c, 0, 61, 67
2,66627, Note_on_c, 0, 76, 64
2,66670, Note_on_c, 0, 73, 0
2,66758, Note_on_c, 0, 54, 55
2,66763, Note_on_c, 0, 74, 63
2,66813, Note_on_c, 0, 78, 0
2,66830, Note_on_c, 0, 61, 0
2,66855, Note_on_c, 0, 76, 0
2,66875, Note_on_c, 0, 74, 0
2,66879, Note_on_c, 0, 58, 64
2,66884, Note_on_c, 0, 73, 68
2,66886, Note_on_c, 0, 54, 0
2,66916, Note_on_c, 0, 58, 0
2,67026, Note_on_c, 0, 73, 0
2,67030, Note_on_c, 0, 47, 59
2,67033, Note_on_c, 0, 74, 64
2,67119, Control_c, 0, 64, 42
2,67134, Control_c, 0, 64, 52
2,67150, Control_c, 0, 64, 60
2,67152, Note_on_c, 0, 59, 57
2,67165, Control_c, 0, 64, 63
2,67180, Control_c, 0, 64, 65
2,67195, Control_c, 0, 64, 67
2,67210, Control_c, 0, 64, 69
2,67226, Control_c, 0, 64, 71
2,67241, Control_c, 0, 64, 74
2,67256, Control_c, 0, 64, 75
2,67286, Note_on_c, 0, 71, 74
2,67290, Note_on_c, 0, 49, 58
2,67292, Note_on_c, 0, 76, 72
2,67301, Note_on_c, 0, 59, 0
2,67302, Control_c, 0, 64, 72
2,67318, Control_c, 0, 64, 67
2,67333, Control_c, 0, 64, 64
2,67337, Note_on_c, 0, 47, 0
2,67337, Note_on_c, 0, 74, 0
2,67364, Control_c, 0, 64, 67
2,67379, Control_c, 0, 64, 73
2,67395, Control_c, 0, 64, 87
2,67404, Note_on_c, 0, 49, 0
2,67410, Control_c, 0, 64, 122
2,67412, Note_on_c, 0, 59, 68
2,67425, Control_c, 0, 64, 127
2,67554, Control_c, 0, 64, 72
2,67555, Note_on_c, 0, 78, 82
2,67560, Note_on_c, 0, 69, 73
2,67564, Note_on_c, 0, 50, 69
2,67569, Control_c, 0, 64, 39
2,67574, Note_on_c, 0, 59, 0
2,67585, Control_c, 0, 64, 0
2,67590, Note_on_c, 0, 71, 0
2,67599, Note_on_c, 0, 76, 0
2,67645, Control_c, 0, 64, 49
2,67660, Control_c, 0, 64, 61
2,67675, Control_c, 0, 64, 62
2,67676, Note_on_c, 0, 50, 0
2,67677, Note_on_c, 0, 69, 0
2,67690, Control_c, 0, 64, 62
2,67693, Note_on_c, 0, 59, 69
2,67782, Control_c, 0, 64, 60
2,67798, Control_c, 0, 64, 35
2,67812, Control_c, 0, 64, 0
2,67832, Note_on_c, 0, 67, 76
2,67838, Note_on_c, 0, 59, 0
2,67840, Note_on_c, 0, 52, 39
2,67858, Control_c, 0, 64, 43
2,67873, Note_on_c, 0, 53, 26
2,67874, Control_c, 0, 64, 62
2,67888, Control_c, 0, 64, 67
2,67903, Control_c, 0, 64, 78
2,67915, Note_on_c, 0, 53, 0
2,67919, Control_c, 0, 64, 93
2,67923, Note_on_c, 0, 78, 0
2,67934, Control_c, 0, 64, 105
2,67938, Note_on_c, 0, 52, 0
2,67950, Control_c, 0, 64, 107
2,67956, Note_on_c, 0, 67, 0
2,67958, Note_on_c, 0, 59, 67
2,68055, Control_c, 0, 64, 105
2,68071, Control_c, 0, 64, 99
2,68083, Note_on_c, 0, 54, 68
2,68084, Note_on_c, 0, 76, 80
2,68085, Control_c, 0, 64, 82
2,68097, Note_on_c, 0, 69, 73
2,68100, Control_c, 0, 64, 64
2,68107, Note_on_c, 0, 59, 0
2,68116, Control_c, 0, 64, 0
2,68192, Note_on_c, 0, 54, 0
2,68201, Note_on_c, 0, 69, 0
2,68220, Note_on_c, 0, 59, 62
2,68262, Control_c, 0, 64, 38
2,68277, Control_c, 0, 64, 63
2,68292, Control_c, 0, 64, 68
2,68308, Control_c, 0, 64, 72
2,68322, Control_c, 0, 64, 73
2,68337, Control_c, 0, 64, 74
2,68350, Note_on_c, 0, 59, 0
2,68352, Note_on_c, 0, 55, 58
2,68353, Control_c, 0, 64, 74
2,68361, Note_on_c, 0, 71, 75
2,68369, Note_on_c, 0, 74, 71
2,68383, Control_c, 0, 64, 72
2,68398, Control_c, 0, 64, 61
2,68413, Control_c, 0, 64, 0
2,68427, Note_on_c, 0, 76, 0
2,68444, Control_c, 0, 64, 50
2,68457, Note_on_c, 0, 55, 0
2,68459, Control_c, 0, 64, 60
2,68460, Note_on_c, 0, 74, 0
2,68474, Control_c, 0, 64, 65
2,68482, Note_on_c, 0, 59, 63
2,68489, Control_c, 0, 64, 73
2,68505, Control_c, 0, 64, 92
2,68519, Control_c, 0, 64, 111
2,68525, Note_on_c, 0, 59, 0
2,68534, Control_c, 0, 64, 115
2,68611, Control_c, 0, 64, 94
2,68626, Control_c, 0, 64, 70
2,68632, Note_on_c, 0, 73, 74
2,68641, Control_c, 0, 64, 50
2,68641, Note_on_c, 0, 45, 55
2,68656, Control_c, 0, 64, 0
2,68672, Control_c, 0, 64, 46
2,68687, Control_c, 0, 64, 63
2,68702, Control_c, 0, 64, 71
2,68702, Note_on_c, 0, 71, 0
2,68717, Control_c, 0, 64, 108
2,68732, Control_c, 0, 64, 127
2,68751, Note_on_c, 0, 45, 0
2,68752, Note_on_c, 0, 73, 0
2,68756, Note_on_c, 0, 57, 61
2,68884, Control_c, 0, 64, 87
2,68889, Note_on_c, 0, 47, 62
2,68889, Note_on_c, 0, 74, 74
2,68894, Note_on_c, 0, 57, 0
2,68896, Note_on_c, 0, 69, 62
2,68899, Control_c, 0, 64, 66
2,68915, Control_c, 0, 64, 55
2,68929, Control_c, 0, 64, 53
2,68940, Note_on_c, 0, 69, 0
2,68945, Control_c, 0, 64, 58
2,68961, Control_c, 0, 64, 64
2,68976, Control_c, 0, 64, 71
2,68992, Control_c, 0, 64, 80
2,69014, Control_c, 0, 64, 87
2,69021, Note_on_c, 0, 57, 63
2,69030, Control_c, 0, 64, 88
2,69043, Note_on_c, 0, 47, 0
2,69106, Control_c, 0, 64, 87
2,69121, Control_c, 0, 64, 75
2,69136, Control_c, 0, 64, 60
2,69139, Note_on_c, 0, 74, 0
2,69147, Note_on_c, 0, 76, 76
2,69152, Control_c, 0, 64, 0
2,69152, Note_on_c, 0, 57, 0
2,69155, Note_on_c, 0, 49, 61
2,69162, Note_on_c, 0, 67, 66
2,69197, Control_c, 0, 64, 41
2,69212, Control_c, 0, 64, 61
2,69228, Control_c, 0, 64, 66
2,69242, Control_c, 0, 64, 72
2,69257, Control_c, 0, 64, 82
2,69260, Note_on_c, 0, 49, 0
2,69273, Control_c, 0, 64, 84
2,69280, Note_on_c, 0, 57, 65
2,69288, Control_c, 0, 64, 85
2,69363, Control_c, 0, 64, 84
2,69378, Control_c, 0, 64, 83
2,69394, Control_c, 0, 64, 72
2,69409, Control_c, 0, 64, 58
2,69410, Note_on_c, 0, 76, 0
2,69422, Note_on_c, 0, 67, 0
2,69423, Note_on_c, 0, 66, 69
2,69425, Control_c, 0, 64, 0
2,69433, Note_on_c, 0, 50, 55
2,69439, Control_c, 0, 64, 24
2,69439, Note_on_c, 0, 57, 0
2,69454, Control_c, 0, 64, 58
2,69470, Control_c, 0, 64, 64
2,69485, Control_c, 0, 64, 69
2,69500, Control_c, 0, 64, 84
2,69516, Control_c, 0, 64, 118
2,69531, Control_c, 0, 64, 127
2,69540, Note_on_c, 0, 50, 0
2,69547, Note_on_c, 0, 57, 62
2,69652, Control_c, 0, 64, 111
2,69668, Control_c, 0, 64, 72
2,69675, Note_on_c, 0, 57, 0
2,69678, Note_on_c, 0, 66, 0
2,69683, Control_c, 0, 64, 54
2,69687, Note_on_c, 0, 74, 68
2,69694, Note_on_c, 0, 52, 56
2,69697, Control_c, 0, 64, 37
2,69698, Note_on_c, 0, 67, 59
2,69713, Control_c, 0, 64, 52
2,69728, Control_c, 0, 64, 61
2,69741, Note_on_c, 0, 67, 0
2,69743, Control_c, 0, 64, 65
2,69759, Control_c, 0, 64, 69
2,69782, Control_c, 0, 64, 75
2,69788, Note_on_c, 0, 52, 0
2,69798, Control_c, 0, 64, 78
2,69807, Note_on_c, 0, 57, 60
2,69812, Control_c, 0, 64, 78
2,69828, Control_c, 0, 64, 79
2,69843, Control_c, 0, 64, 82
2,69858, Control_c, 0, 64, 84
2,69874, Control_c, 0, 64, 86
2,69889, Control_c, 0, 64, 87
2,69915, Note_on_c, 0, 57, 0
2,69934, Control_c, 0, 64, 85
2,69936, Note_on_c, 0, 74, 0
2,69947, Note_on_c, 0, 54, 57
2,69950, Control_c, 0, 64, 72
2,69951, Note_on_c, 0, 73, 70
2,69965, Control_c, 0, 64, 53
2,69965, Note_on_c, 0, 69, 59
2,69980, Control_c, 0, 64, 0
2,70027, Note_on_c, 0, 54, 0
2,70049, Note_on_c, 0, 57, 55
2,70161, Note_on_c, 0, 69, 0
2,70189, Note_on_c, 0, 57, 0
2,70199, Note_on_c, 0, 55, 55
2,70213, Note_on_c, 0, 71, 70
2,70254, Note_on_c, 0, 73, 0
2,70305, Note_on_c, 0, 71, 0
2,70326, Note_on_c, 0, 55, 0
2,70351, Note_on_c, 0, 59, 66
2,70470, Note_on_c, 0, 57, 64
2,70473, Note_on_c, 0, 62, 68
2,70475, Note_on_c, 0, 59, 0
2,70508, Note_on_c, 0, 62, 0
2,70606, Note_on_c, 0, 55, 63
2,70613, Note_on_c, 0, 57, 0
2,70733, Note_on_c, 0, 73, 79
2,70734, Note_on_c, 0, 54, 63
2,70738, Note_on_c, 0, 67, 73
2,70757, Note_on_c, 0, 55, 0
2,70857, Note_on_c, 0, 54, 0
2,70865, Note_on_c, 0, 52, 61
2,70997, Note_on_c, 0, 74, 70
2,71002, Note_on_c, 0, 54, 58
2,71011, Note_on_c, 0, 73, 0
2,71087, Note_on_c, 0, 74, 0
2,71098, Note_on_c, 0, 67, 0
2,71124, Note_on_c, 0, 57, 65
2,71194, Note_on_c, 0, 52, 0
2,71219, Note_on_c, 0, 54, 0
2,71258, Note_on_c, 0, 69, 77
2,71260, Note_on_c, 0, 66, 75
2,71261, Note_on_c, 0, 57, 0
2,71261, Note_on_c, 0, 62, 70
2,71326, Note_on_c, 0, 69, 0
2,71336, Note_on_c, 0, 66, 0
2,71388, Note_on_c, 0, 57, 74
2,71397, Note_on_c, 0, 62, 0
2,71527, Note_on_c, 0, 56, 69
2,71528, Note_on_c, 0, 71, 82
2,71533, Note_on_c, 0, 65, 77
2,71549, Note_on_c, 0, 57, 0
2,71622, Note_on_c, 0, 56, 0
2,71637, Note_on_c, 0, 62, 66
2,71781, Note_on_c, 0, 57, 64
2,71789, Note_on_c, 0, 62, 0
2,71796, Note_on_c, 0, 72, 74
2,71831, Note_on_c, 0, 71, 0
2,71839, Note_on_c, 0, 65, 0
2,71872, Note_on_c, 0, 72, 0
2,71908, Note_on_c, 0, 57, 0
2,71918, Note_on_c, 0, 60, 71
2,72039, Note_on_c, 0, 60, 0
2,72040, Note_on_c, 0, 73, 89
2,72043, Note_on_c, 0, 64, 77
2,72044, Note_on_c, 0, 59, 74
2,72081, Note_on_c, 0, 64, 0
2,72114, Note_on_c, 0, 73, 0
2,72156, Note_on_c, 0, 59, 0
2,72178, Note_on_c, 0, 57, 67
2,72313, Note_on_c, 0, 69, 84
2,72313, Note_on_c, 0, 75, 84
2,72316, Note_on_c, 0, 55, 68
2,72330, Note_on_c, 0, 57, 0
2,72420, Note_on_c, 0, 55, 0
2,72436, Note_on_c, 0, 54, 72
2,72588, Note_on_c, 0, 56, 70
2,72589, Note_on_c, 0, 76, 78
2,72628, Note_on_c, 0, 75, 0
2,72657, Note_on_c, 0, 69, 0
2,72657, Note_on_c, 0, 76, 0
2,72688, Note_on_c, 0, 54, 0
2,72705, Note_on_c, 0, 59, 76
2,72726, Note_on_c, 0, 56, 0
2,72836, Note_on_c, 0, 59, 0
2,72839, Note_on_c, 0, 64, 76
2,72851, Note_on_c, 0, 68, 82
2,72851, Note_on_c, 0, 71, 84
2,72884, Note_on_c, 0, 71, 0
2,72886, Note_on_c, 0, 68, 0
2,72965, Note_on_c, 0, 59, 75
2,72968, Note_on_c, 0, 64, 0
2,73106, Note_on_c, 0, 58, 72
2,73110, Note_on_c, 0, 73, 93
2,73114, Note_on_c, 0, 67, 85
2,73126, Note_on_c, 0, 59, 0
2,73231, Note_on_c, 0, 58, 0
2,73236, Note_on_c, 0, 64, 75
2,73377, Note_on_c, 0, 64, 0
2,73381, Note_on_c, 0, 59, 70
2,73381, Note_on_c, 0, 74, 77
2,73415, Note_on_c, 0, 67, 0
2,73421, Note_on_c, 0, 73, 0
2,73440, Note_on_c, 0, 74, 0
2,73508, Note_on_c, 0, 62, 72
2,73518, Note_on_c, 0, 59, 0
2,73635, Note_on_c, 0, 75, 87
2,73637, Note_on_c, 0, 66, 77
2,73639, Note_on_c, 0, 62, 0
2,73643, Note_on_c, 0, 61, 76
2,73665, Note_on_c, 0, 66, 0
2,73690, Note_on_c, 0, 75, 0
2,73751, Note_on_c, 0, 61, 0
2,73766, Note_on_c, 0, 59, 76
2,73892, Note_on_c, 0, 58, 77
2,73896, Note_on_c, 0, 59, 0
2,73896, Note_on_c, 0, 71, 85
2,73902, Note_on_c, 0, 77, 88
2,74010, Note_on_c, 0, 56, 71
2,74038, Note_on_c, 0, 58, 0
2,74145, Note_on_c, 0, 54, 72
2,74149, Note_on_c, 0, 56, 0
2,74152, Note_on_c, 0, 78, 86
2,74175, Note_on_c, 0, 77, 0
2,74267, Note_on_c, 0, 55, 74
2,74268, Note_on_c, 0, 54, 0
2,74389, Note_on_c, 0, 71, 0
2,74414, Note_on_c, 0, 54, 71
2,74427, Note_on_c, 0, 70, 80
2,74433, Note_on_c, 0, 55, 0
2,74509, Note_on_c, 0, 70, 0
2,74516, Note_on_c, 0, 54, 0
2,74538, Note_on_c, 0, 52, 71
2,74661, Note_on_c, 0, 50, 79
2,74668, Note_on_c, 0, 52, 0
2,74675, Note_on_c, 0, 66, 83
2,74723, Note_on_c, 0, 78, 0
2,74759, Note_on_c, 0, 66, 0
2,74790, Note_on_c, 0, 49, 77
2,74818, Note_on_c, 0, 50, 0
2,74929, Note_on_c, 0, 49, 0
2,74930, Note_on_c, 0, 47, 78
2,74930, Note_on_c, 0, 62, 83
2,74996, Note_on_c, 0, 62, 0
2,75046, Note_on_c, 0, 49, 77
2,75134, Note_on_c, 0, 47, 0
2,75186, Note_on_c, 0, 50, 73
2,75192, Note_on_c, 0, 59, 79
2,75225, Note_on_c, 0, 49, 0
2,75243, Note_on_c, 0, 59, 0
2,75298, Note_on_c, 0, 50, 0
2,75306, Note_on_c, 0, 52, 69
2,75439, Note_on_c, 0, 58, 80
2,75442, Note_on_c, 0, 54, 76
2,75457, Note_on_c, 0, 52, 0
2,75499, Note_on_c, 0, 58, 0
2,75563, Note_on_c, 0, 52, 76
2,75570, Note_on_c, 0, 54, 0
2,75690, Note_on_c, 0, 50, 82
2,75695, Note_on_c, 0, 59, 77
2,75717, Note_on_c, 0, 52, 0
2,75761, Note_on_c, 0, 59, 0
2,75768, Note_on_c, 0, 50, 0
2,75811, Note_on_c, 0, 71, 76
2,75946, Note_on_c, 0, 71, 0
2,75955, Note_on_c, 0, 70, 84
2,75959, Note_on_c, 0, 47, 75
2,76007, Note_on_c, 0, 47, 0
2,76057, Note_on_c, 0, 70, 0
2,76067, Note_on_c, 0, 71, 81
2,76211, Note_on_c, 0, 46, 78
2,76211, Note_on_c, 0, 73, 87
2,76241, Note_on_c, 0, 46, 0
2,76255, Note_on_c, 0, 71, 0
2,76335, Note_on_c, 0, 78, 86
2,76357, Note_on_c, 0, 73, 0
2,76479, Note_on_c, 0, 76, 79
2,76481, Note_on_c, 0, 47, 83
2,76539, Note_on_c, 0, 47, 0
2,76608, Note_on_c, 0, 74, 80
2,76616, Note_on_c, 0, 78, 0
2,76639, Note_on_c, 0, 76, 0
2,76670, Note_on_c, 0, 74, 0
2,76776, Note_on_c, 0, 38, 79
2,76778, Note_on_c, 0, 66, 77
2,76787, Note_on_c, 0, 73, 79
2,76836, Note_on_c, 0, 38, 0
2,76866, Note_on_c, 0, 66, 0
2,76917, Note_on_c, 0, 71, 80
2,76957, Note_on_c, 0, 73, 0
2,77100, Note_on_c, 0, 73, 87
2,77101, Note_on_c, 0, 42, 90
2,77121, Note_on_c, 0, 64, 82
2,77127, Note_on_c, 0, 71, 0
2,77194, Note_on_c, 0, 42, 0
2,77283, Control_c, 0, 64, 54
2,77298, Control_c, 0, 64, 62
2,77300, Note_on_c, 0, 70, 88
2,77313, Control_c, 0, 64, 66
2,77328, Control_c, 0, 64, 73
2,77332, Note_on_c, 0, 64, 0
2,77334, Note_on_c, 0, 73, 0
2,77343, Control_c, 0, 64, 87
2,77359, Control_c, 0, 64, 118
2,77360, Note_on_c, 0, 70, 0
2,77374, Control_c, 0, 64, 127
2,77609, Control_c, 0, 64, 89
2,77618, Note_on_c, 0, 70, 87
2,77619, Note_on_c, 0, 64, 85
2,77624, Control_c, 0, 64, 66
2,77628, Note_on_c, 0, 35, 78
2,77640, Control_c, 0, 64, 0
2,78502, Note_on_c, 0, 71, 82
2,78503, Note_on_c, 0, 63, 74
2,78541, Note_on_c, 0, 70, 0
2,78547, Note_on_c, 0, 64, 0
2,80216, Note_on_c, 0, 71, 0
2,80223, Note_on_c, 0, 35, 0
2,80255, Note_on_c, 0, 63, 0
2,80256, End_track
0, 0, End_of_file
