0, 0, Header, 1, 2, 480
1, 0, Start_track
1, 0, Tempo, 500000
1, 0, Time_signature, 4, 2, 24, 8
1, 1, End_track
2,0,Start_track
2,0, Note_on_c, 0, 58, 72
2,696, Note_on_c, 0, 58, 0
2,1043, Note_on_c, 0, 60, 80
2,1974, Note_on_c, 0, 60, 0
2,2771, Note_on_c, 0, 61, 62
2,3127, Note_on_c, 0, 61, 0
2,3384, Note_on_c, 0, 63, 63
2,3805, Control_c, 0, 64, 16
2,3899, Note_on_c, 0, 57, 62
2,3962, Note_on_c, 0, 63, 0
2,4202, Control_c, 0, 64, 20
2,4420, Note_on_c, 0, 58, 58
2,4477, Note_on_c, 0, 57, 0
2,5331, Note_on_c, 0, 58, 0
2,5854, Note_on_c, 0, 60, 61
2,6147, Note_on_c, 0, 60, 0
2,6333, Control_c, 0, 64, 24
2,6372, Note_on_c, 0, 61, 61
2,6609, Note_on_c, 0, 58, 61
2,6690, Note_on_c, 0, 61, 0
2,6851, Note_on_c, 0, 60, 68
2,6918, Note_on_c, 0, 58, 0
2,7009, Control_c, 0, 64, 28
2,7064, Note_on_c, 0, 61, 69
2,7112, Note_on_c, 0, 60, 0
2,7296, Note_on_c, 0, 63, 71
2,7378, Note_on_c, 0, 61, 0
2,7498, Note_on_c, 0, 60, 66
2,7584, Note_on_c, 0, 63, 0
2,7737, Note_on_c, 0, 61, 73
2,7824, Note_on_c, 0, 60, 0
2,7950, Note_on_c, 0, 63, 71
2,8030, Note_on_c, 0, 61, 0
2,8181, Note_on_c, 0, 65, 72
2,8242, Note_on_c, 0, 63, 0
2,8377, Note_on_c, 0, 61, 71
2,8436, Note_on_c, 0, 65, 0
2,8607, Note_on_c, 0, 63, 71
2,8687, Note_on_c, 0, 61, 0
2,8822, Note_on_c, 0, 65, 68
2,8868, Note_on_c, 0, 63, 0
2,9047, Note_on_c, 0, 66, 69
2,9125, Note_on_c, 0, 65, 0
2,9255, Note_on_c, 0, 63, 69
2,9314, Note_on_c, 0, 66, 0
2,9563, Note_on_c, 0, 65, 69
2,9654, Note_on_c, 0, 63, 0
2,10197, Note_on_c, 0, 65, 0
2,10592, Note_on_c, 0, 66, 70
2,11112, Note_on_c, 0, 60, 73
2,11232, Note_on_c, 0, 66, 0
2,11599, Note_on_c, 0, 61, 63
2,11672, Note_on_c, 0, 60, 0
2,11791, Note_on_c, 0, 63, 72
2,11844, Note_on_c, 0, 61, 0
2,12051, Note_on_c, 0, 61, 54
2,12072, Note_on_c, 0, 65, 80
2,12152, Note_on_c, 0, 63, 0
2,12267, Note_on_c, 0, 61, 0
2,12607, Note_on_c, 0, 57, 77
2,12758, Note_on_c, 0, 65, 0
2,13085, Note_on_c, 0, 67, 78
2,13089, Note_on_c, 0, 58, 58
2,13193, Note_on_c, 0, 57, 0
2,13574, Note_on_c, 0, 59, 73
2,13636, Note_on_c, 0, 58, 0
2,14046, Control_c, 0, 64, 32
2,14055, Note_on_c, 0, 60, 70
2,14133, Note_on_c, 0, 67, 0
2,14173, Note_on_c, 0, 59, 0
2,14567, Note_on_c, 0, 68, 72
2,14724, Control_c, 0, 64, 36
2,14847, Note_on_c, 0, 68, 0
2,15087, Note_on_c, 0, 70, 72
2,15157, Note_on_c, 0, 60, 0
2,15551, Note_on_c, 0, 64, 65
2,15559, Note_on_c, 0, 60, 50
2,15703, Note_on_c, 0, 70, 0
2,16007, Note_on_c, 0, 65, 66
2,16021, Note_on_c, 0, 61, 57
2,16074, Note_on_c, 0, 60, 0
2,16106, Note_on_c, 0, 64, 0
2,16497, Note_on_c, 0, 62, 67
2,16566, Note_on_c, 0, 61, 0
2,16953, Note_on_c, 0, 63, 71
2,17020, Note_on_c, 0, 62, 0
2,17062, Note_on_c, 0, 65, 0
2,17411, Note_on_c, 0, 67, 73
2,17421, Note_on_c, 0, 64, 64
2,17478, Note_on_c, 0, 63, 0
2,17672, Note_on_c, 0, 67, 0
2,17903, Note_on_c, 0, 68, 63
2,17907, Note_on_c, 0, 65, 58
2,17951, Note_on_c, 0, 64, 0
2,17990, Note_on_c, 0, 65, 0
2,18111, Note_on_c, 0, 65, 73
2,18218, Note_on_c, 0, 68, 0
2,18338, Note_on_c, 0, 67, 73
2,18547, Note_on_c, 0, 68, 73
2,18602, Note_on_c, 0, 67, 0
2,18762, Note_on_c, 0, 70, 73
2,18809, Note_on_c, 0, 68, 0
2,18950, Note_on_c, 0, 67, 68
2,19000, Note_on_c, 0, 70, 0
2,19184, Note_on_c, 0, 68, 69
2,19233, Note_on_c, 0, 67, 0
2,19399, Note_on_c, 0, 70, 72
2,19486, Note_on_c, 0, 68, 0
2,19606, Note_on_c, 0, 72, 71
2,19671, Note_on_c, 0, 70, 0
2,19821, Note_on_c, 0, 68, 73
2,19867, Note_on_c, 0, 72, 0
2,20028, Note_on_c, 0, 70, 73
2,20122, Note_on_c, 0, 68, 0
2,20241, Note_on_c, 0, 72, 75
2,20321, Note_on_c, 0, 70, 0
2,20464, Note_on_c, 0, 73, 73
2,20507, Note_on_c, 0, 72, 0
2,20673, Note_on_c, 0, 70, 73
2,20738, Note_on_c, 0, 73, 0
2,20893, Note_on_c, 0, 72, 66
2,20912, Note_on_c, 0, 64, 50
2,20962, Note_on_c, 0, 65, 0
2,21044, Note_on_c, 0, 70, 0
2,21127, Note_on_c, 0, 62, 58
2,21135, Note_on_c, 0, 64, 0
2,21388, Note_on_c, 0, 64, 70
2,21419, Note_on_c, 0, 72, 0
2,21425, Note_on_c, 0, 62, 0
2,21928, Note_on_c, 0, 73, 67
2,22403, Note_on_c, 0, 67, 65
2,22463, Note_on_c, 0, 64, 0
2,22569, Note_on_c, 0, 73, 0
2,22856, Note_on_c, 0, 69, 63
2,22860, Note_on_c, 0, 63, 58
2,23041, Note_on_c, 0, 67, 0
2,23075, Note_on_c, 0, 70, 66
2,23206, Note_on_c, 0, 69, 0
2,23345, Note_on_c, 0, 69, 74
2,23411, Note_on_c, 0, 70, 0
2,23785, Note_on_c, 0, 77, 63
2,23797, Note_on_c, 0, 62, 51
2,23864, Note_on_c, 0, 63, 0
2,23885, Note_on_c, 0, 69, 0
2,24025, Note_on_c, 0, 60, 55
2,24037, Note_on_c, 0, 62, 0
2,24265, Note_on_c, 0, 62, 60
2,24288, Note_on_c, 0, 60, 0
2,24291, Note_on_c, 0, 77, 0
2,24750, Note_on_c, 0, 70, 67
2,25098, Note_on_c, 0, 62, 0
2,25222, Note_on_c, 0, 65, 73
2,25341, Note_on_c, 0, 70, 0
2,25653, Note_on_c, 0, 61, 64
2,25656, Note_on_c, 0, 67, 66
2,25780, Note_on_c, 0, 65, 0
2,25874, Note_on_c, 0, 68, 69
2,25974, Note_on_c, 0, 67, 0
2,26127, Note_on_c, 0, 67, 70
2,26199, Note_on_c, 0, 68, 0
2,26590, Note_on_c, 0, 75, 68
2,26606, Note_on_c, 0, 60, 58
2,26688, Note_on_c, 0, 61, 0
2,26732, Note_on_c, 0, 67, 0
2,26792, Note_on_c, 0, 58, 66
2,26814, Note_on_c, 0, 60, 0
2,27057, Note_on_c, 0, 60, 78
2,27119, Note_on_c, 0, 58, 0
2,27361, Control_c, 0, 64, 40
2,27507, Note_on_c, 0, 69, 75
2,27526, Note_on_c, 0, 66, 63
2,27580, Note_on_c, 0, 60, 0
2,27590, Note_on_c, 0, 75, 0
2,27973, Note_on_c, 0, 65, 71
2,28030, Note_on_c, 0, 66, 0
2,28429, Note_on_c, 0, 65, 0
2,28431, Note_on_c, 0, 70, 71
2,28433, Note_on_c, 0, 63, 59
2,28530, Note_on_c, 0, 69, 0
2,28629, Note_on_c, 0, 72, 68
2,28696, Note_on_c, 0, 70, 0
2,28904, Note_on_c, 0, 46, 75
2,28909, Note_on_c, 0, 65, 73
2,28918, Note_on_c, 0, 72, 0
2,29209, Note_on_c, 0, 63, 0
2,29433, Note_on_c, 0, 70, 73
2,29444, Note_on_c, 0, 62, 67
2,29508, Note_on_c, 0, 65, 0
2,29565, Note_on_c, 0, 46, 0
2,29909, Note_on_c, 0, 63, 63
2,29912, Note_on_c, 0, 48, 80
2,30013, Note_on_c, 0, 62, 0
2,30374, Note_on_c, 0, 64, 76
2,30389, Note_on_c, 0, 69, 66
2,30390, Note_on_c, 0, 63, 0
2,30443, Note_on_c, 0, 70, 0
2,30570, Note_on_c, 0, 67, 81
2,30580, Note_on_c, 0, 69, 0
2,30595, Note_on_c, 0, 64, 0
2,30845, Note_on_c, 0, 69, 76
2,30852, Note_on_c, 0, 65, 73
2,30877, Note_on_c, 0, 48, 0
2,30886, Note_on_c, 0, 67, 0
2,31029, Control_c, 0, 64, 36
2,31286, Note_on_c, 0, 49, 77
2,31287, Note_on_c, 0, 70, 75
2,31366, Note_on_c, 0, 69, 0
2,31446, Control_c, 0, 64, 43
2,31465, Control_c, 0, 64, 47
2,31485, Control_c, 0, 64, 50
2,31498, Note_on_c, 0, 49, 0
2,31502, Control_c, 0, 64, 52
2,31522, Control_c, 0, 64, 56
2,31542, Control_c, 0, 64, 60
2,31558, Control_c, 0, 64, 64
2,31578, Control_c, 0, 64, 69
2,31596, Control_c, 0, 64, 75
2,31617, Control_c, 0, 64, 83
2,31649, Control_c, 0, 64, 91
2,31668, Control_c, 0, 64, 98
2,31745, Note_on_c, 0, 51, 76
2,31754, Note_on_c, 0, 72, 72
2,31764, Control_c, 0, 64, 86
2,31767, Note_on_c, 0, 70, 0
2,31782, Control_c, 0, 64, 76
2,31798, Control_c, 0, 64, 66
2,31817, Control_c, 0, 64, 56
2,31837, Control_c, 0, 64, 50
2,31873, Control_c, 0, 64, 48
2,31912, Control_c, 0, 64, 45
2,31940, Note_on_c, 0, 73, 76
2,31941, Note_on_c, 0, 72, 0
2,31947, Control_c, 0, 64, 43
2,31983, Note_on_c, 0, 65, 0
2,32171, Note_on_c, 0, 75, 77
2,32173, Note_on_c, 0, 65, 67
2,32178, Note_on_c, 0, 45, 65
2,32217, Note_on_c, 0, 73, 0
2,32232, Control_c, 0, 64, 41
2,32253, Note_on_c, 0, 51, 0
2,32345, Control_c, 0, 64, 37
2,32632, Note_on_c, 0, 46, 76
2,32632, Note_on_c, 0, 66, 73
2,32670, Note_on_c, 0, 65, 0
2,32712, Note_on_c, 0, 45, 0
2,32873, Control_c, 0, 64, 33
2,32912, Control_c, 0, 64, 28
2,32929, Control_c, 0, 64, 22
2,32969, Control_c, 0, 64, 17
2,33075, Note_on_c, 0, 67, 68
2,33081, Note_on_c, 0, 73, 73
2,33105, Note_on_c, 0, 66, 0
2,33538, Note_on_c, 0, 72, 75
2,33540, Note_on_c, 0, 68, 65
2,33556, Note_on_c, 0, 75, 0
2,33588, Note_on_c, 0, 73, 0
2,33591, Note_on_c, 0, 67, 0
2,33643, Note_on_c, 0, 46, 0
2,33743, Note_on_c, 0, 75, 72
2,33827, Note_on_c, 0, 72, 0
2,33963, Note_on_c, 0, 48, 70
2,33967, Control_c, 0, 64, 13
2,33979, Note_on_c, 0, 78, 78
2,33984, Note_on_c, 0, 69, 68
2,34023, Note_on_c, 0, 72, 10
2,34024, Note_on_c, 0, 68, 0
2,34098, Control_c, 0, 64, 22
2,34109, Note_on_c, 0, 72, 0
2,34115, Control_c, 0, 64, 30
2,34136, Control_c, 0, 64, 34
2,34168, Note_on_c, 0, 75, 0
2,34173, Control_c, 0, 64, 44
2,34192, Control_c, 0, 64, 51
2,34198, Note_on_c, 0, 48, 0
2,34213, Control_c, 0, 64, 54
2,34267, Note_on_c, 0, 78, 0
2,34399, Control_c, 0, 64, 52
2,34419, Control_c, 0, 64, 48
2,34438, Control_c, 0, 64, 43
2,34452, Note_on_c, 0, 77, 75
2,34455, Note_on_c, 0, 70, 60
2,34458, Control_c, 0, 64, 37
2,34466, Note_on_c, 0, 49, 63
2,34498, Control_c, 0, 64, 33
2,34529, Note_on_c, 0, 69, 0
2,34548, Control_c, 0, 64, 29
2,34587, Control_c, 0, 64, 24
2,34665, Note_on_c, 0, 46, 67
2,34692, Note_on_c, 0, 49, 0
2,34883, Note_on_c, 0, 48, 70
2,34937, Note_on_c, 0, 77, 0
2,34939, Note_on_c, 0, 46, 0
2,35093, Note_on_c, 0, 49, 74
2,35119, Note_on_c, 0, 48, 0
2,35312, Note_on_c, 0, 72, 79
2,35325, Note_on_c, 0, 51, 69
2,35376, Note_on_c, 0, 49, 0
2,35532, Note_on_c, 0, 48, 67
2,35580, Note_on_c, 0, 51, 0
2,35741, Note_on_c, 0, 72, 0
2,35758, Note_on_c, 0, 49, 76
2,35788, Note_on_c, 0, 48, 0
2,35964, Note_on_c, 0, 51, 77
2,36018, Note_on_c, 0, 49, 0
2,36177, Note_on_c, 0, 73, 80
2,36200, Note_on_c, 0, 53, 64
2,36270, Note_on_c, 0, 51, 0
2,36377, Note_on_c, 0, 49, 71
2,36399, Note_on_c, 0, 53, 0
2,36612, Note_on_c, 0, 51, 72
2,36639, Note_on_c, 0, 73, 0
2,36650, Note_on_c, 0, 49, 0
2,36824, Note_on_c, 0, 53, 71
2,36865, Note_on_c, 0, 51, 0
2,37045, Note_on_c, 0, 75, 72
2,37060, Note_on_c, 0, 54, 66
2,37113, Note_on_c, 0, 53, 0
2,37249, Note_on_c, 0, 51, 65
2,37269, Note_on_c, 0, 54, 0
2,37492, Note_on_c, 0, 70, 0
2,37500, Note_on_c, 0, 69, 68
2,37502, Note_on_c, 0, 53, 72
2,37575, Note_on_c, 0, 51, 0
2,37693, Note_on_c, 0, 67, 71
2,37710, Note_on_c, 0, 69, 0
2,37895, Control_c, 0, 64, 32
2,37913, Control_c, 0, 64, 42
2,37929, Note_on_c, 0, 69, 79
2,37930, Note_on_c, 0, 67, 0
2,37932, Control_c, 0, 64, 44
2,37981, Note_on_c, 0, 53, 0
2,38026, Control_c, 0, 64, 41
2,38068, Control_c, 0, 64, 37
2,38121, Note_on_c, 0, 73, 76
2,38265, Note_on_c, 0, 75, 0
2,38314, Control_c, 0, 64, 33
2,38338, Note_on_c, 0, 72, 72
2,38390, Note_on_c, 0, 55, 75
2,38393, Note_on_c, 0, 54, 43
2,38407, Note_on_c, 0, 73, 0
2,38546, Note_on_c, 0, 73, 77
2,38594, Note_on_c, 0, 72, 0
2,38684, Note_on_c, 0, 54, 0
2,38773, Note_on_c, 0, 55, 0
2,38794, Note_on_c, 0, 48, 75
2,38803, Note_on_c, 0, 75, 77
2,38856, Note_on_c, 0, 73, 0
2,38952, Control_c, 0, 64, 29
2,39231, Note_on_c, 0, 72, 75
2,39248, Note_on_c, 0, 50, 75
2,39250, Note_on_c, 0, 68, 64
2,39264, Note_on_c, 0, 69, 0
2,39288, Note_on_c, 0, 48, 0
2,39289, Note_on_c, 0, 75, 0
2,39430, Note_on_c, 0, 51, 77
2,39440, Note_on_c, 0, 50, 0
2,39456, Control_c, 0, 64, 25
2,39684, Note_on_c, 0, 50, 70
2,39696, Note_on_c, 0, 77, 75
2,39703, Note_on_c, 0, 51, 0
2,39731, Note_on_c, 0, 72, 0
2,40133, Note_on_c, 0, 58, 65
2,40135, Note_on_c, 0, 74, 70
2,40159, Note_on_c, 0, 67, 55
2,40188, Note_on_c, 0, 50, 0
2,40244, Note_on_c, 0, 68, 0
2,40305, Note_on_c, 0, 67, 0
2,40326, Note_on_c, 0, 77, 0
2,40348, Note_on_c, 0, 65, 63
2,40522, Note_on_c, 0, 65, 0
2,40560, Note_on_c, 0, 70, 77
2,40564, Note_on_c, 0, 58, 0
2,40568, Note_on_c, 0, 67, 71
2,40618, Note_on_c, 0, 74, 0
2,40767, Note_on_c, 0, 68, 75
2,40803, Note_on_c, 0, 70, 0
2,40980, Note_on_c, 0, 51, 80
2,40980, Note_on_c, 0, 70, 74
2,41081, Note_on_c, 0, 68, 0
2,41156, Note_on_c, 0, 72, 75
2,41218, Note_on_c, 0, 70, 0
2,41412, Note_on_c, 0, 73, 79
2,41419, Note_on_c, 0, 46, 70
2,41436, Note_on_c, 0, 72, 0
2,41489, Note_on_c, 0, 51, 0
2,41847, Note_on_c, 0, 70, 78
2,41858, Note_on_c, 0, 48, 68
2,41869, Note_on_c, 0, 66, 65
2,41896, Note_on_c, 0, 46, 0
2,41925, Note_on_c, 0, 67, 0
2,41927, Note_on_c, 0, 73, 0
2,42031, Note_on_c, 0, 49, 77
2,42048, Note_on_c, 0, 48, 0
2,42261, Control_c, 0, 64, 20
2,42279, Control_c, 0, 64, 9
2,42297, Control_c, 0, 64, 0
2,42297, Note_on_c, 0, 75, 80
2,42298, Note_on_c, 0, 48, 74
2,42319, Note_on_c, 0, 49, 0
2,42413, Control_c, 0, 64, 17
2,42433, Control_c, 0, 64, 41
2,42449, Control_c, 0, 64, 61
2,42469, Control_c, 0, 64, 75
2,42488, Control_c, 0, 64, 90
2,42493, Note_on_c, 0, 70, 0
2,42507, Control_c, 0, 64, 106
2,42520, Note_on_c, 0, 75, 0
2,42523, Control_c, 0, 64, 117
2,42542, Control_c, 0, 64, 122
2,42581, Control_c, 0, 64, 127
2,42733, Note_on_c, 0, 72, 80
2,42741, Note_on_c, 0, 44, 75
2,42742, Note_on_c, 0, 65, 68
2,42750, Control_c, 0, 64, 121
2,42756, Note_on_c, 0, 66, 0
2,42770, Control_c, 0, 64, 114
2,42789, Control_c, 0, 64, 105
2,42807, Note_on_c, 0, 48, 0
2,42808, Control_c, 0, 64, 96
2,42829, Control_c, 0, 64, 85
2,42846, Control_c, 0, 64, 75
2,42867, Control_c, 0, 64, 67
2,42884, Control_c, 0, 64, 63
2,42924, Note_on_c, 0, 65, 0
2,42927, Note_on_c, 0, 63, 75
2,42941, Control_c, 0, 64, 60
2,42996, Control_c, 0, 64, 61
2,43053, Control_c, 0, 64, 60
2,43111, Control_c, 0, 64, 56
2,43130, Control_c, 0, 64, 51
2,43163, Control_c, 0, 64, 42
2,43182, Control_c, 0, 64, 29
2,43187, Note_on_c, 0, 72, 0
2,43189, Note_on_c, 0, 68, 75
2,43195, Note_on_c, 0, 49, 75
2,43196, Note_on_c, 0, 65, 74
2,43201, Control_c, 0, 64, 17
2,43207, Note_on_c, 0, 63, 0
2,43220, Control_c, 0, 64, 8
2,43238, Control_c, 0, 64, 0
2,43238, Note_on_c, 0, 44, 0
2,43372, Control_c, 0, 64, 12
2,43392, Control_c, 0, 64, 25
2,43409, Control_c, 0, 64, 40
2,43428, Control_c, 0, 64, 54
2,43447, Control_c, 0, 64, 62
2,43467, Control_c, 0, 64, 67
2,43484, Control_c, 0, 64, 69
2,43502, Control_c, 0, 64, 72
2,43522, Control_c, 0, 64, 77
2,43542, Control_c, 0, 64, 79
2,43579, Control_c, 0, 64, 72
2,43600, Control_c, 0, 64, 62
2,43618, Control_c, 0, 64, 49
2,43618, Note_on_c, 0, 73, 81
2,43634, Control_c, 0, 64, 33
2,43639, Note_on_c, 0, 48, 73
2,43648, Note_on_c, 0, 49, 0
2,43654, Control_c, 0, 64, 12
2,43666, Note_on_c, 0, 68, 0
2,43673, Control_c, 0, 64, 0
2,43729, Control_c, 0, 64, 21
2,43749, Control_c, 0, 64, 46
2,43768, Control_c, 0, 64, 65
2,43787, Control_c, 0, 64, 77
2,43802, Note_on_c, 0, 46, 76
2,43804, Note_on_c, 0, 73, 0
2,43807, Control_c, 0, 64, 87
2,43825, Note_on_c, 0, 48, 0
2,43826, Control_c, 0, 64, 94
2,43844, Control_c, 0, 64, 100
2,43864, Control_c, 0, 64, 106
2,43881, Control_c, 0, 64, 113
2,43900, Control_c, 0, 64, 119
2,43919, Control_c, 0, 64, 123
2,44013, Control_c, 0, 64, 108
2,44033, Control_c, 0, 64, 87
2,44039, Note_on_c, 0, 72, 84
2,44048, Note_on_c, 0, 44, 74
2,44052, Control_c, 0, 64, 60
2,44071, Control_c, 0, 64, 8
2,44090, Control_c, 0, 64, 0
2,44096, Note_on_c, 0, 46, 0
2,44198, Control_c, 0, 64, 26
2,44214, Note_on_c, 0, 65, 0
2,44218, Control_c, 0, 64, 53
2,44237, Control_c, 0, 64, 73
2,44245, Note_on_c, 0, 72, 0
2,44255, Control_c, 0, 64, 91
2,44275, Control_c, 0, 64, 109
2,44294, Control_c, 0, 64, 119
2,44312, Control_c, 0, 64, 126
2,44513, Note_on_c, 0, 64, 82
2,44514, Note_on_c, 0, 43, 76
2,44520, Control_c, 0, 64, 121
2,44525, Note_on_c, 0, 58, 69
2,44539, Control_c, 0, 64, 93
2,44557, Control_c, 0, 64, 53
2,44557, Note_on_c, 0, 44, 0
2,44577, Control_c, 0, 64, 0
2,44633, Control_c, 0, 64, 11
2,44653, Control_c, 0, 64, 55
2,44669, Control_c, 0, 64, 83
2,44689, Control_c, 0, 64, 109
2,44698, Note_on_c, 0, 64, 0
2,44708, Control_c, 0, 64, 127
2,44726, Note_on_c, 0, 58, 0
2,44987, Note_on_c, 0, 65, 68
2,44990, Note_on_c, 0, 53, 86
2,44995, Note_on_c, 0, 60, 70
2,45011, Control_c, 0, 64, 120
2,45031, Control_c, 0, 64, 101
2,45042, Note_on_c, 0, 44, 51
2,45050, Control_c, 0, 64, 75
2,45083, Control_c, 0, 64, 44
2,45085, Note_on_c, 0, 43, 0
2,45101, Control_c, 0, 64, 14
2,45421, Control_c, 0, 64, 9
2,45478, Note_on_c, 0, 61, 73
2,45481, Note_on_c, 0, 45, 75
2,45498, Control_c, 0, 64, 28
2,45519, Control_c, 0, 64, 45
2,45538, Control_c, 0, 64, 57
2,45548, Note_on_c, 0, 60, 0
2,45554, Control_c, 0, 64, 63
2,45563, Note_on_c, 0, 44, 0
2,45572, Control_c, 0, 64, 67
2,45592, Control_c, 0, 64, 72
2,45610, Control_c, 0, 64, 78
2,45625, Note_on_c, 0, 53, 0
2,45627, Control_c, 0, 64, 85
2,45662, Note_on_c, 0, 63, 77
2,45667, Control_c, 0, 64, 89
2,45680, Note_on_c, 0, 61, 0
2,45838, Control_c, 0, 64, 94
2,45894, Control_c, 0, 64, 90
2,45913, Control_c, 0, 64, 82
2,45913, Note_on_c, 0, 55, 89
2,45931, Control_c, 0, 64, 69
2,45933, Note_on_c, 0, 61, 70
2,45944, Note_on_c, 0, 46, 67
2,45952, Control_c, 0, 64, 53
2,45958, Note_on_c, 0, 63, 0
2,45971, Control_c, 0, 64, 37
2,45979, Note_on_c, 0, 45, 0
2,45990, Control_c, 0, 64, 29
2,46319, Note_on_c, 0, 61, 0
2,46365, Note_on_c, 0, 47, 80
2,46365, Note_on_c, 0, 64, 72
2,46421, Note_on_c, 0, 46, 0
2,46532, Control_c, 0, 64, 25
2,46558, Note_on_c, 0, 62, 78
2,46628, Note_on_c, 0, 64, 0
2,46686, Note_on_c, 0, 65, 0
2,46781, Note_on_c, 0, 62, 0
2,46785, Note_on_c, 0, 48, 75
2,46797, Note_on_c, 0, 47, 0
2,46809, Note_on_c, 0, 64, 68
2,46891, Note_on_c, 0, 55, 0
2,47235, Note_on_c, 0, 56, 82
2,47240, Note_on_c, 0, 72, 75
2,47257, Note_on_c, 0, 64, 0
2,47323, Control_c, 0, 64, 33
2,47342, Control_c, 0, 64, 49
2,47363, Control_c, 0, 64, 61
2,47381, Control_c, 0, 64, 68
2,47400, Control_c, 0, 64, 73
2,47419, Control_c, 0, 64, 78
2,47422, Note_on_c, 0, 56, 0
2,47440, Control_c, 0, 64, 83
2,47457, Control_c, 0, 64, 86
2,47628, Control_c, 0, 64, 81
2,47646, Control_c, 0, 64, 71
2,47666, Control_c, 0, 64, 58
2,47683, Control_c, 0, 64, 43
2,47688, Note_on_c, 0, 58, 78
2,47693, Note_on_c, 0, 73, 79
2,47704, Control_c, 0, 64, 27
2,47720, Control_c, 0, 64, 19
2,47720, Note_on_c, 0, 72, 0
2,47769, Note_on_c, 0, 48, 0
2,47778, Control_c, 0, 64, 15
2,48137, Note_on_c, 0, 48, 63
2,48138, Note_on_c, 0, 72, 74
2,48139, Note_on_c, 0, 52, 73
2,48151, Note_on_c, 0, 68, 69
2,48196, Note_on_c, 0, 58, 0
2,48202, Note_on_c, 0, 73, 0
2,48611, Note_on_c, 0, 53, 74
2,48618, Note_on_c, 0, 49, 71
2,48639, Note_on_c, 0, 48, 0
2,48656, Note_on_c, 0, 52, 0
2,48718, Control_c, 0, 64, 19
2,48739, Control_c, 0, 64, 32
2,48755, Control_c, 0, 64, 49
2,48775, Control_c, 0, 64, 61
2,48793, Control_c, 0, 64, 66
2,48813, Control_c, 0, 64, 69
2,48852, Control_c, 0, 64, 73
2,48870, Control_c, 0, 64, 75
2,48890, Control_c, 0, 64, 78
2,48922, Control_c, 0, 64, 82
2,48941, Control_c, 0, 64, 87
2,48960, Control_c, 0, 64, 91
2,49053, Control_c, 0, 64, 81
2,49053, Note_on_c, 0, 71, 73
2,49057, Note_on_c, 0, 67, 75
2,49060, Note_on_c, 0, 68, 0
2,49073, Control_c, 0, 64, 67
2,49075, Note_on_c, 0, 50, 68
2,49093, Control_c, 0, 64, 51
2,49097, Note_on_c, 0, 72, 0
2,49112, Control_c, 0, 64, 35
2,49126, Note_on_c, 0, 49, 0
2,49131, Control_c, 0, 64, 24
2,49226, Control_c, 0, 64, 20
2,49245, Note_on_c, 0, 65, 76
2,49251, Note_on_c, 0, 67, 0
2,49466, Note_on_c, 0, 65, 0
2,49471, Note_on_c, 0, 51, 75
2,49473, Note_on_c, 0, 67, 78
2,49475, Note_on_c, 0, 72, 76
2,49490, Note_on_c, 0, 53, 0
2,49509, Control_c, 0, 64, 16
2,49511, Note_on_c, 0, 71, 0
2,49516, Note_on_c, 0, 50, 0
2,49654, Note_on_c, 0, 68, 78
2,49686, Note_on_c, 0, 67, 0
2,49891, Note_on_c, 0, 55, 80
2,49896, Note_on_c, 0, 70, 78
2,49907, Note_on_c, 0, 52, 71
2,49928, Note_on_c, 0, 68, 0
2,49933, Note_on_c, 0, 51, 0
2,50103, Note_on_c, 0, 55, 0
2,50150, Note_on_c, 0, 70, 0
2,50241, Control_c, 0, 64, 8
2,50260, Control_c, 0, 64, 0
2,50321, Note_on_c, 0, 53, 70
2,50335, Note_on_c, 0, 68, 78
2,50338, Note_on_c, 0, 56, 70
2,50365, Note_on_c, 0, 52, 0
2,50411, Control_c, 0, 64, 32
2,50421, Note_on_c, 0, 53, 0
2,50428, Control_c, 0, 64, 55
2,50448, Control_c, 0, 64, 72
2,50466, Note_on_c, 0, 56, 0
2,50467, Control_c, 0, 64, 84
2,50486, Control_c, 0, 64, 95
2,50506, Control_c, 0, 64, 103
2,50520, Note_on_c, 0, 53, 77
2,50525, Control_c, 0, 64, 108
2,50535, Note_on_c, 0, 72, 0
2,50550, Note_on_c, 0, 68, 0
2,50733, Control_c, 0, 64, 94
2,50749, Note_on_c, 0, 55, 75
2,50753, Control_c, 0, 64, 76
2,50771, Control_c, 0, 64, 53
2,50790, Control_c, 0, 64, 27
2,50809, Control_c, 0, 64, 17
2,50951, Note_on_c, 0, 56, 75
2,50982, Note_on_c, 0, 55, 0
2,51165, Note_on_c, 0, 76, 83
2,51191, Note_on_c, 0, 67, 60
2,51207, Note_on_c, 0, 58, 58
2,51243, Note_on_c, 0, 56, 0
2,51378, Note_on_c, 0, 58, 0
2,51382, Note_on_c, 0, 55, 71
2,51566, Note_on_c, 0, 67, 0
2,51599, Note_on_c, 0, 76, 0
2,51604, Note_on_c, 0, 56, 72
2,51641, Note_on_c, 0, 55, 0
2,51821, Note_on_c, 0, 58, 69
2,51874, Note_on_c, 0, 56, 0
2,52033, Note_on_c, 0, 77, 80
2,52055, Note_on_c, 0, 68, 69
2,52066, Note_on_c, 0, 60, 67
2,52106, Note_on_c, 0, 58, 0
2,52247, Note_on_c, 0, 56, 73
2,52293, Note_on_c, 0, 60, 0
2,52368, Note_on_c, 0, 68, 0
2,52405, Note_on_c, 0, 77, 0
2,52459, Note_on_c, 0, 58, 74
2,52522, Note_on_c, 0, 56, 0
2,52656, Note_on_c, 0, 60, 74
2,52688, Note_on_c, 0, 58, 0
2,52888, Note_on_c, 0, 79, 80
2,52913, Note_on_c, 0, 70, 70
2,52917, Note_on_c, 0, 61, 54
2,52927, Note_on_c, 0, 60, 0
2,53049, Control_c, 0, 64, 21
2,53067, Control_c, 0, 64, 25
2,53084, Control_c, 0, 64, 34
2,53102, Note_on_c, 0, 58, 70
2,53103, Control_c, 0, 64, 46
2,53113, Note_on_c, 0, 61, 0
2,53122, Control_c, 0, 64, 55
2,53141, Control_c, 0, 64, 60
2,53161, Control_c, 0, 64, 62
2,53179, Control_c, 0, 64, 65
2,53200, Control_c, 0, 64, 67
2,53218, Control_c, 0, 64, 70
2,53236, Control_c, 0, 64, 72
2,53245, Note_on_c, 0, 70, 0
2,53272, Note_on_c, 0, 53, 0
2,53310, Note_on_c, 0, 52, 62
2,53324, Note_on_c, 0, 60, 76
2,53336, Note_on_c, 0, 58, 0
2,53369, Control_c, 0, 64, 70
2,53427, Control_c, 0, 64, 68
2,53484, Control_c, 0, 64, 67
2,53502, Control_c, 0, 64, 65
2,53517, Note_on_c, 0, 50, 76
2,53521, Control_c, 0, 64, 64
2,53536, Note_on_c, 0, 52, 0
2,53656, Control_c, 0, 64, 65
2,53693, Control_c, 0, 64, 64
2,53729, Control_c, 0, 64, 61
2,53747, Control_c, 0, 64, 56
2,53765, Control_c, 0, 64, 49
2,53769, Note_on_c, 0, 52, 71
2,53785, Control_c, 0, 64, 43
2,53785, Note_on_c, 0, 67, 78
2,53789, Note_on_c, 0, 50, 0
2,53804, Control_c, 0, 64, 36
2,53822, Control_c, 0, 64, 29
2,53841, Control_c, 0, 64, 24
2,53860, Control_c, 0, 64, 19
2,53922, Note_on_c, 0, 60, 0
2,53956, Control_c, 0, 64, 14
2,54144, Control_c, 0, 64, 10
2,54238, Control_c, 0, 64, 0
2,54264, Note_on_c, 0, 61, 73
2,54283, Note_on_c, 0, 67, 0
2,54390, Control_c, 0, 64, 28
2,54411, Control_c, 0, 64, 44
2,54428, Control_c, 0, 64, 54
2,54446, Control_c, 0, 64, 57
2,54465, Control_c, 0, 64, 59
2,54484, Control_c, 0, 64, 60
2,54503, Control_c, 0, 64, 61
2,54520, Control_c, 0, 64, 62
2,54540, Control_c, 0, 64, 63
2,54558, Control_c, 0, 64, 65
2,54578, Control_c, 0, 64, 67
2,54597, Control_c, 0, 64, 69
2,54688, Control_c, 0, 64, 67
2,54705, Control_c, 0, 64, 61
2,54708, Note_on_c, 0, 55, 71
2,54710, Note_on_c, 0, 72, 71
2,54725, Control_c, 0, 64, 55
2,54744, Control_c, 0, 64, 47
2,54764, Control_c, 0, 64, 36
2,54781, Control_c, 0, 64, 19
2,54800, Control_c, 0, 64, 0
2,54812, Note_on_c, 0, 61, 0
2,54916, Control_c, 0, 64, 31
2,54933, Control_c, 0, 64, 55
2,54953, Control_c, 0, 64, 71
2,54972, Control_c, 0, 64, 82
2,54980, Note_on_c, 0, 72, 0
2,54991, Control_c, 0, 64, 92
2,55006, Control_c, 0, 64, 100
2,55027, Control_c, 0, 64, 106
2,55046, Control_c, 0, 64, 111
2,55084, Control_c, 0, 64, 117
2,55131, Note_on_c, 0, 55, 0
2,55178, Note_on_c, 0, 56, 68
2,55349, Control_c, 0, 64, 112
2,55368, Control_c, 0, 64, 103
2,55368, Note_on_c, 0, 58, 63
2,55389, Control_c, 0, 64, 89
2,55404, Control_c, 0, 64, 70
2,55416, Note_on_c, 0, 56, 0
2,55424, Control_c, 0, 64, 46
2,55443, Control_c, 0, 64, 22
2,55454, Note_on_c, 0, 58, 0
2,55461, Control_c, 0, 64, 11
2,55499, Control_c, 0, 64, 0
2,55556, Control_c, 0, 64, 9
2,55577, Control_c, 0, 64, 36
2,55594, Control_c, 0, 64, 58
2,55606, Note_on_c, 0, 56, 59
2,55611, Note_on_c, 0, 60, 68
2,55615, Control_c, 0, 64, 69
2,55626, Note_on_c, 0, 53, 58
2,55646, Control_c, 0, 64, 76
2,55652, Note_on_c, 0, 52, 0
2,55667, Control_c, 0, 64, 80
2,55685, Control_c, 0, 64, 85
2,55704, Control_c, 0, 64, 89
2,55741, Control_c, 0, 64, 94
2,55812, Note_on_c, 0, 60, 0
2,55816, Control_c, 0, 64, 89
2,55823, Note_on_c, 0, 52, 68
2,55828, Note_on_c, 0, 56, 0
2,55831, Note_on_c, 0, 53, 0
2,55834, Control_c, 0, 64, 83
2,55854, Control_c, 0, 64, 76
2,55875, Control_c, 0, 64, 70
2,55892, Control_c, 0, 64, 65
2,55912, Control_c, 0, 64, 60
2,55932, Control_c, 0, 64, 56
2,56005, Control_c, 0, 64, 52
2,56026, Control_c, 0, 64, 45
2,56042, Control_c, 0, 64, 40
2,56042, Note_on_c, 0, 77, 70
2,56048, Note_on_c, 0, 53, 60
2,56071, Note_on_c, 0, 52, 0
2,56083, Control_c, 0, 64, 36
2,56102, Control_c, 0, 64, 31
2,56118, Control_c, 0, 64, 25
2,56195, Control_c, 0, 64, 21
2,56236, Note_on_c, 0, 79, 0
2,56238, Note_on_c, 0, 76, 74
2,56246, Note_on_c, 0, 55, 58
2,56255, Note_on_c, 0, 53, 0
2,56318, Note_on_c, 0, 77, 0
2,56458, Note_on_c, 0, 55, 0
2,56480, Note_on_c, 0, 56, 60
2,56483, Note_on_c, 0, 77, 70
2,56505, Note_on_c, 0, 72, 71
2,56520, Note_on_c, 0, 76, 0
2,56852, Control_c, 0, 64, 16
2,56870, Control_c, 0, 64, 12
2,56909, Control_c, 0, 64, 0
2,56960, Note_on_c, 0, 65, 73
2,56965, Note_on_c, 0, 72, 0
2,57053, Note_on_c, 0, 56, 0
2,57062, Control_c, 0, 64, 35
2,57078, Control_c, 0, 64, 56
2,57098, Control_c, 0, 64, 69
2,57118, Control_c, 0, 64, 78
2,57137, Control_c, 0, 64, 88
2,57155, Control_c, 0, 64, 97
2,57162, Note_on_c, 0, 65, 0
2,57172, Control_c, 0, 64, 105
2,57212, Control_c, 0, 64, 109
2,57393, Note_on_c, 0, 57, 60
2,57393, Note_on_c, 0, 60, 68
2,57393, Note_on_c, 0, 65, 69
2,57427, Control_c, 0, 64, 99
2,57447, Control_c, 0, 64, 87
2,57467, Control_c, 0, 64, 71
2,57486, Control_c, 0, 64, 50
2,57504, Control_c, 0, 64, 31
2,57524, Control_c, 0, 64, 24
2,57634, Control_c, 0, 64, 20
2,57743, Note_on_c, 0, 57, 0
2,57829, Note_on_c, 0, 65, 0
2,57860, Note_on_c, 0, 61, 68
2,57920, Note_on_c, 0, 60, 0
2,58060, Note_on_c, 0, 63, 64
2,58088, Note_on_c, 0, 61, 0
2,58278, Control_c, 0, 64, 12
2,58296, Control_c, 0, 64, 0
2,58305, Note_on_c, 0, 70, 63
2,58309, Note_on_c, 0, 61, 58
2,58315, Note_on_c, 0, 58, 57
2,58382, Note_on_c, 0, 63, 0
2,58409, Control_c, 0, 64, 15
2,58426, Control_c, 0, 64, 43
2,58448, Control_c, 0, 64, 63
2,58453, Note_on_c, 0, 61, 0
2,58464, Control_c, 0, 64, 72
2,58479, Note_on_c, 0, 58, 0
2,58484, Control_c, 0, 64, 79
2,58496, Note_on_c, 0, 72, 68
2,58519, Control_c, 0, 64, 83
2,58535, Note_on_c, 0, 70, 0
2,58537, Control_c, 0, 64, 86
2,58576, Control_c, 0, 64, 93
2,58596, Control_c, 0, 64, 97
2,58633, Control_c, 0, 64, 102
2,58721, Note_on_c, 0, 46, 62
2,58725, Control_c, 0, 64, 91
2,58735, Note_on_c, 0, 73, 67
2,58746, Control_c, 0, 64, 78
2,58748, Note_on_c, 0, 72, 0
2,58764, Control_c, 0, 64, 62
2,58770, Note_on_c, 0, 53, 46
2,58783, Control_c, 0, 64, 41
2,58803, Control_c, 0, 64, 26
2,58896, Control_c, 0, 64, 21
2,58902, Note_on_c, 0, 53, 0
2,58922, Note_on_c, 0, 48, 64
2,58994, Note_on_c, 0, 46, 0
2,59181, Note_on_c, 0, 58, 58
2,59184, Note_on_c, 0, 49, 63
2,59229, Note_on_c, 0, 73, 0
2,59237, Note_on_c, 0, 48, 0
2,59621, Note_on_c, 0, 58, 0
2,59624, Note_on_c, 0, 49, 0
2,59644, Note_on_c, 0, 70, 64
2,60044, Control_c, 0, 64, 17
2,60063, Control_c, 0, 64, 12
2,60077, Note_on_c, 0, 50, 50
2,60079, Note_on_c, 0, 65, 67
2,60082, Control_c, 0, 64, 0
2,60085, Note_on_c, 0, 58, 48
2,60115, Note_on_c, 0, 70, 0
2,60195, Control_c, 0, 64, 21
2,60215, Control_c, 0, 64, 45
2,60233, Control_c, 0, 64, 63
2,60237, Note_on_c, 0, 65, 0
2,60253, Control_c, 0, 64, 74
2,60270, Control_c, 0, 64, 85
2,60289, Control_c, 0, 64, 97
2,60308, Control_c, 0, 64, 109
2,60327, Control_c, 0, 64, 118
2,60345, Control_c, 0, 64, 123
2,60364, Control_c, 0, 64, 127
2,60377, Note_on_c, 0, 50, 0
2,60381, Note_on_c, 0, 58, 0
2,60527, Note_on_c, 0, 66, 60
2,60643, Control_c, 0, 64, 119
2,60664, Control_c, 0, 64, 103
2,60683, Control_c, 0, 64, 82
2,60702, Control_c, 0, 64, 61
2,60704, Note_on_c, 0, 66, 0
2,60721, Control_c, 0, 64, 46
2,60740, Control_c, 0, 64, 42
2,60744, Note_on_c, 0, 68, 63
2,60815, Control_c, 0, 64, 34
2,60832, Control_c, 0, 64, 29
2,60890, Control_c, 0, 64, 22
2,60932, Note_on_c, 0, 68, 0
2,60957, Note_on_c, 0, 66, 59
2,60971, Note_on_c, 0, 51, 51
2,60974, Note_on_c, 0, 58, 52
2,60986, Control_c, 0, 64, 39
2,61003, Control_c, 0, 64, 53
2,61024, Control_c, 0, 64, 61
2,61042, Control_c, 0, 64, 65
2,61061, Control_c, 0, 64, 67
2,61080, Control_c, 0, 64, 69
2,61118, Control_c, 0, 64, 71
2,61134, Note_on_c, 0, 58, 0
2,61142, Note_on_c, 0, 51, 0
2,61149, Note_on_c, 0, 66, 0
2,61158, Note_on_c, 0, 50, 56
2,61305, Control_c, 0, 64, 68
2,61324, Control_c, 0, 64, 63
2,61343, Control_c, 0, 64, 56
2,61353, Note_on_c, 0, 51, 48
2,61360, Control_c, 0, 64, 49
2,61373, Note_on_c, 0, 78, 63
2,61380, Control_c, 0, 64, 44
2,61396, Note_on_c, 0, 63, 56
2,61410, Note_on_c, 0, 50, 0
2,61416, Control_c, 0, 64, 39
2,61425, Note_on_c, 0, 77, 0
2,61435, Control_c, 0, 64, 33
2,61473, Control_c, 0, 64, 29
2,61503, Note_on_c, 0, 63, 0
2,61574, Note_on_c, 0, 77, 69
2,61626, Note_on_c, 0, 51, 0
2,61630, Note_on_c, 0, 78, 0
2,61632, Note_on_c, 0, 53, 20
2,61799, Note_on_c, 0, 53, 0
2,61806, Note_on_c, 0, 54, 56
2,61823, Note_on_c, 0, 75, 70
2,61833, Note_on_c, 0, 70, 54
2,61848, Note_on_c, 0, 77, 0
2,62056, Control_c, 0, 64, 25
2,62134, Control_c, 0, 64, 19
2,62152, Control_c, 0, 64, 13
2,62172, Control_c, 0, 64, 0
2,62247, Note_on_c, 0, 70, 0
2,62261, Note_on_c, 0, 54, 0
2,62270, Note_on_c, 0, 63, 59
2,62324, Control_c, 0, 64, 17
2,62344, Control_c, 0, 64, 28
2,62377, Control_c, 0, 64, 41
2,62396, Control_c, 0, 64, 57
2,62415, Control_c, 0, 64, 69
2,62435, Control_c, 0, 64, 77
2,62451, Control_c, 0, 64, 83
2,62451, Note_on_c, 0, 63, 0
2,62471, Control_c, 0, 64, 87
2,62718, Control_c, 0, 64, 85
2,62721, Note_on_c, 0, 63, 56
2,62726, Note_on_c, 0, 58, 52
2,62737, Control_c, 0, 64, 79
2,62752, Control_c, 0, 64, 70
2,62752, Note_on_c, 0, 55, 44
2,62772, Control_c, 0, 64, 59
2,62793, Control_c, 0, 64, 44
2,62811, Control_c, 0, 64, 32
2,62831, Control_c, 0, 64, 24
2,62849, Control_c, 0, 64, 17
2,62870, Control_c, 0, 64, 8
2,62887, Control_c, 0, 64, 0
2,62962, Control_c, 0, 64, 31
2,62984, Control_c, 0, 64, 51
2,62999, Control_c, 0, 64, 63
2,63020, Control_c, 0, 64, 69
2,63034, Note_on_c, 0, 63, 0
2,63037, Control_c, 0, 64, 73
2,63057, Control_c, 0, 64, 79
2,63076, Control_c, 0, 64, 88
2,63095, Control_c, 0, 64, 97
2,63113, Control_c, 0, 64, 103
2,63169, Control_c, 0, 64, 96
2,63189, Control_c, 0, 64, 83
2,63202, Note_on_c, 0, 60, 56
2,63208, Control_c, 0, 64, 63
2,63222, Note_on_c, 0, 58, 0
2,63226, Control_c, 0, 64, 34
2,63244, Control_c, 0, 64, 0
2,63244, Note_on_c, 0, 55, 0
2,63404, Note_on_c, 0, 61, 62
2,63413, Note_on_c, 0, 60, 0
2,63645, Note_on_c, 0, 68, 58
2,63658, Note_on_c, 0, 56, 50
2,63667, Note_on_c, 0, 61, 0
2,63672, Note_on_c, 0, 60, 55
2,63696, Control_c, 0, 64, 21
2,63713, Control_c, 0, 64, 41
2,63732, Control_c, 0, 64, 60
2,63753, Control_c, 0, 64, 74
2,63766, Note_on_c, 0, 60, 0
2,63772, Control_c, 0, 64, 88
2,63782, Note_on_c, 0, 56, 0
2,63790, Control_c, 0, 64, 99
2,63809, Control_c, 0, 64, 105
2,63847, Control_c, 0, 64, 110
2,63850, Note_on_c, 0, 70, 62
2,63954, Note_on_c, 0, 68, 0
2,64036, Control_c, 0, 64, 105
2,64045, Note_on_c, 0, 44, 58
2,64055, Control_c, 0, 64, 95
2,64057, Note_on_c, 0, 72, 62
2,64074, Control_c, 0, 64, 78
2,64086, Note_on_c, 0, 51, 51
2,64092, Control_c, 0, 64, 54
2,64111, Control_c, 0, 64, 23
2,64116, Note_on_c, 0, 70, 0
2,64130, Control_c, 0, 64, 0
2,64252, Note_on_c, 0, 46, 62
2,64286, Note_on_c, 0, 51, 0
2,64426, Note_on_c, 0, 44, 0
2,64527, Note_on_c, 0, 56, 53
2,64528, Note_on_c, 0, 48, 52
2,64538, Note_on_c, 0, 72, 0
2,64544, Note_on_c, 0, 46, 0
2,64905, Note_on_c, 0, 56, 0
2,64918, Note_on_c, 0, 48, 0
2,64948, Note_on_c, 0, 68, 61
2,65398, Note_on_c, 0, 63, 56
2,65406, Note_on_c, 0, 44, 43
2,65410, Note_on_c, 0, 48, 45
2,65420, Control_c, 0, 64, 24
2,65439, Control_c, 0, 64, 50
2,65460, Control_c, 0, 64, 69
2,65476, Control_c, 0, 64, 80
2,65486, Note_on_c, 0, 68, 0
2,65490, Note_on_c, 0, 48, 0
2,65494, Control_c, 0, 64, 91
2,65496, Note_on_c, 0, 44, 0
2,65515, Control_c, 0, 64, 99
2,65535, Control_c, 0, 64, 106
2,65551, Control_c, 0, 64, 111
2,65561, Note_on_c, 0, 63, 0
2,65571, Control_c, 0, 64, 115
2,65703, Control_c, 0, 64, 119
2,65834, Control_c, 0, 64, 111
2,65839, Note_on_c, 0, 65, 50
2,65855, Control_c, 0, 64, 99
2,65872, Control_c, 0, 64, 83
2,65892, Control_c, 0, 64, 62
2,65911, Control_c, 0, 64, 38
2,65929, Control_c, 0, 64, 23
2,66010, Note_on_c, 0, 65, 0
2,66023, Control_c, 0, 64, 15
2,66031, Note_on_c, 0, 66, 51
2,66062, Control_c, 0, 64, 11
2,66119, Control_c, 0, 64, 0
2,66319, Note_on_c, 0, 65, 50
2,66321, Note_on_c, 0, 66, 0
2,66327, Note_on_c, 0, 37, 45
2,66335, Note_on_c, 0, 49, 39
2,66361, Control_c, 0, 64, 9
2,66379, Control_c, 0, 64, 38
2,66399, Control_c, 0, 64, 58
2,66418, Control_c, 0, 64, 69
2,66430, Note_on_c, 0, 65, 0
2,66435, Control_c, 0, 64, 78
2,66457, Control_c, 0, 64, 90
2,66459, Note_on_c, 0, 37, 0
2,66474, Control_c, 0, 64, 101
2,66495, Control_c, 0, 64, 111
2,66511, Control_c, 0, 64, 117
2,66531, Control_c, 0, 64, 121
2,66570, Control_c, 0, 64, 127
2,66787, Note_on_c, 0, 73, 63
2,66788, Note_on_c, 0, 51, 45
2,66806, Note_on_c, 0, 66, 48
2,66812, Note_on_c, 0, 49, 0
2,66851, Control_c, 0, 64, 118
2,66870, Control_c, 0, 64, 106
2,66889, Control_c, 0, 64, 88
2,66909, Control_c, 0, 64, 67
2,66926, Note_on_c, 0, 75, 0
2,66928, Control_c, 0, 64, 46
2,66946, Control_c, 0, 64, 33
2,66991, Note_on_c, 0, 72, 51
2,67041, Control_c, 0, 64, 29
2,67063, Note_on_c, 0, 73, 0
2,67245, Note_on_c, 0, 73, 61
2,67248, Note_on_c, 0, 66, 0
2,67259, Note_on_c, 0, 72, 0
2,67268, Note_on_c, 0, 68, 52
2,67273, Note_on_c, 0, 53, 45
2,67288, Note_on_c, 0, 51, 0
2,67661, Note_on_c, 0, 49, 38
2,67685, Note_on_c, 0, 77, 59
2,67688, Note_on_c, 0, 73, 0
2,67709, Note_on_c, 0, 53, 0
2,68118, Note_on_c, 0, 77, 0
2,68141, Note_on_c, 0, 70, 55
2,68168, Note_on_c, 0, 54, 33
2,68246, Note_on_c, 0, 49, 0
2,68568, Note_on_c, 0, 73, 55
2,68576, Note_on_c, 0, 66, 41
2,68582, Note_on_c, 0, 58, 38
2,68618, Note_on_c, 0, 54, 0
2,68651, Note_on_c, 0, 68, 0
2,68714, Note_on_c, 0, 66, 0
2,68753, Note_on_c, 0, 65, 56
2,68770, Note_on_c, 0, 70, 0
2,68973, Note_on_c, 0, 65, 0
2,68979, Control_c, 0, 64, 25
2,68998, Control_c, 0, 64, 20
2,69006, Note_on_c, 0, 66, 56
2,69015, Control_c, 0, 64, 13
2,69027, Note_on_c, 0, 51, 37
2,69032, Control_c, 0, 64, 0
2,69032, Note_on_c, 0, 58, 0
2,69127, Control_c, 0, 64, 17
2,69146, Control_c, 0, 64, 44
2,69164, Control_c, 0, 64, 65
2,69182, Control_c, 0, 64, 78
2,69203, Control_c, 0, 64, 92
2,69219, Note_on_c, 0, 66, 0
2,69221, Control_c, 0, 64, 105
2,69239, Control_c, 0, 64, 115
2,69257, Control_c, 0, 64, 122
2,69276, Control_c, 0, 64, 127
2,69450, Note_on_c, 0, 72, 60
2,69457, Note_on_c, 0, 54, 53
2,69458, Note_on_c, 0, 73, 0
2,69466, Note_on_c, 0, 63, 41
2,69504, Control_c, 0, 64, 117
2,69523, Control_c, 0, 64, 104
2,69538, Note_on_c, 0, 51, 0
2,69541, Control_c, 0, 64, 86
2,69561, Control_c, 0, 64, 66
2,69580, Control_c, 0, 64, 46
2,69601, Control_c, 0, 64, 36
2,69631, Note_on_c, 0, 73, 61
2,69671, Note_on_c, 0, 72, 0
2,69710, Control_c, 0, 64, 32
2,69887, Note_on_c, 0, 75, 60
2,69918, Note_on_c, 0, 48, 42
2,69935, Note_on_c, 0, 73, 0
2,69939, Note_on_c, 0, 54, 0
2,69952, Note_on_c, 0, 63, 0
2,70335, Note_on_c, 0, 51, 44
2,70342, Note_on_c, 0, 72, 55
2,70348, Note_on_c, 0, 66, 40
2,70356, Note_on_c, 0, 48, 0
2,70406, Note_on_c, 0, 75, 0
2,70728, Control_c, 0, 64, 25
2,70748, Control_c, 0, 64, 18
2,70766, Control_c, 0, 64, 12
2,70805, Note_on_c, 0, 53, 47
2,70817, Note_on_c, 0, 69, 51
2,70873, Note_on_c, 0, 51, 0
2,70878, Control_c, 0, 64, 28
2,70899, Control_c, 0, 64, 50
2,70915, Control_c, 0, 64, 63
2,70936, Control_c, 0, 64, 69
2,70953, Control_c, 0, 64, 74
2,70968, Note_on_c, 0, 72, 0
2,70973, Control_c, 0, 64, 80
2,71008, Control_c, 0, 64, 87
2,71023, Note_on_c, 0, 66, 0
2,71026, Control_c, 0, 64, 97
2,71047, Control_c, 0, 64, 105
2,71102, Control_c, 0, 64, 109
2,71219, Note_on_c, 0, 69, 0
2,71261, Note_on_c, 0, 53, 0
2,71271, Note_on_c, 0, 65, 48
2,71286, Note_on_c, 0, 57, 49
2,71289, Note_on_c, 0, 72, 51
2,71375, Note_on_c, 0, 65, 0
2,71379, Note_on_c, 0, 57, 0
2,71468, Note_on_c, 0, 63, 56
2,71500, Note_on_c, 0, 72, 0
2,71537, Note_on_c, 0, 63, 0
2,71707, Control_c, 0, 64, 103
2,71725, Control_c, 0, 64, 95
2,71727, Note_on_c, 0, 58, 65
2,71745, Control_c, 0, 64, 81
2,71761, Note_on_c, 0, 61, 49
2,71763, Control_c, 0, 64, 63
2,71782, Control_c, 0, 64, 41
2,71801, Control_c, 0, 64, 23
2,71819, Control_c, 0, 64, 17
2,71840, Control_c, 0, 64, 11
2,71857, Control_c, 0, 64, 0
2,72230, Note_on_c, 0, 70, 45
2,72252, Control_c, 0, 64, 8
2,72270, Control_c, 0, 64, 34
2,72289, Control_c, 0, 64, 52
2,72293, Note_on_c, 0, 61, 0
2,72296, Note_on_c, 0, 70, 0
2,72307, Control_c, 0, 64, 63
2,72326, Control_c, 0, 64, 70
2,72346, Control_c, 0, 64, 79
2,72362, Control_c, 0, 64, 89
2,72382, Control_c, 0, 64, 98
2,72402, Control_c, 0, 64, 105
2,72421, Control_c, 0, 64, 110
2,72459, Control_c, 0, 64, 114
2,72475, Note_on_c, 0, 58, 0
2,72666, Control_c, 0, 64, 105
2,72666, Note_on_c, 0, 60, 49
2,72686, Control_c, 0, 64, 91
2,72699, Note_on_c, 0, 69, 50
2,72701, Note_on_c, 0, 67, 44
2,72704, Control_c, 0, 64, 73
2,72723, Control_c, 0, 64, 55
2,72737, Note_on_c, 0, 67, 0
2,72741, Control_c, 0, 64, 39
2,72762, Control_c, 0, 64, 31
2,72779, Control_c, 0, 64, 27
2,72797, Control_c, 0, 64, 20
2,72817, Control_c, 0, 64, 12
2,72834, Control_c, 0, 64, 0
2,73156, Note_on_c, 0, 78, 61
2,73173, Control_c, 0, 64, 21
2,73191, Control_c, 0, 64, 43
2,73212, Control_c, 0, 64, 60
2,73228, Control_c, 0, 64, 68
2,73247, Note_on_c, 0, 60, 0
2,73248, Control_c, 0, 64, 73
2,73266, Control_c, 0, 64, 79
2,73286, Control_c, 0, 64, 88
2,73306, Control_c, 0, 64, 99
2,73323, Control_c, 0, 64, 108
2,73342, Control_c, 0, 64, 113
2,73356, Note_on_c, 0, 69, 0
2,73381, Control_c, 0, 64, 117
2,73419, Control_c, 0, 64, 122
2,73512, Control_c, 0, 64, 127
2,73603, Note_on_c, 0, 70, 59
2,73606, Note_on_c, 0, 78, 0
2,73645, Control_c, 0, 64, 113
2,73664, Control_c, 0, 64, 99
2,73684, Control_c, 0, 64, 80
2,73702, Control_c, 0, 64, 59
2,73720, Control_c, 0, 64, 42
2,73739, Control_c, 0, 64, 35
2,73797, Note_on_c, 0, 77, 54
2,73832, Control_c, 0, 64, 31
2,73944, Control_c, 0, 64, 26
2,74021, Note_on_c, 0, 61, 61
2,74024, Note_on_c, 0, 75, 62
2,74051, Note_on_c, 0, 70, 0
2,74174, Note_on_c, 0, 61, 0
2,74180, Note_on_c, 0, 77, 0
2,74225, Control_c, 0, 64, 22
2,74225, Note_on_c, 0, 73, 59
2,74327, Note_on_c, 0, 75, 0
2,74444, Note_on_c, 0, 72, 66
2,74447, Note_on_c, 0, 63, 62
2,74464, Note_on_c, 0, 73, 0
2,74636, Note_on_c, 0, 72, 0
2,74637, Note_on_c, 0, 73, 63
2,74811, Control_c, 0, 64, 12
2,74846, Control_c, 0, 64, 0
2,74858, Note_on_c, 0, 63, 0
2,74888, Note_on_c, 0, 72, 72
2,74889, Note_on_c, 0, 57, 59
2,74890, Note_on_c, 0, 73, 0
2,74898, Note_on_c, 0, 75, 56
2,74959, Control_c, 0, 64, 21
2,74979, Control_c, 0, 64, 47
2,74996, Control_c, 0, 64, 66
2,75010, Note_on_c, 0, 72, 0
2,75015, Control_c, 0, 64, 78
2,75031, Note_on_c, 0, 75, 0
2,75032, Control_c, 0, 64, 92
2,75054, Control_c, 0, 64, 105
2,75073, Control_c, 0, 64, 113
2,75092, Control_c, 0, 64, 117
2,75185, Control_c, 0, 64, 121
2,75332, Note_on_c, 0, 73, 73
2,75335, Note_on_c, 0, 58, 59
2,75356, Control_c, 0, 64, 114
2,75377, Control_c, 0, 64, 102
2,75387, Note_on_c, 0, 57, 0
2,75391, Control_c, 0, 64, 85
2,75413, Control_c, 0, 64, 65
2,75431, Control_c, 0, 64, 44
2,75451, Control_c, 0, 64, 30
2,75713, Control_c, 0, 64, 26
2,75760, Note_on_c, 0, 67, 62
2,75762, Note_on_c, 0, 82, 71
2,75882, Control_c, 0, 64, 38
2,75900, Control_c, 0, 64, 44
2,75955, Control_c, 0, 64, 50
2,75976, Control_c, 0, 64, 56
2,75991, Note_on_c, 0, 67, 0
2,75992, Control_c, 0, 64, 60
2,76013, Control_c, 0, 64, 62
2,76032, Control_c, 0, 64, 65
2,76052, Control_c, 0, 64, 68
2,76070, Control_c, 0, 64, 74
2,76083, Note_on_c, 0, 73, 0
2,76091, Control_c, 0, 64, 80
2,76110, Control_c, 0, 64, 86
2,76127, Control_c, 0, 64, 92
2,76202, Control_c, 0, 64, 87
2,76218, Note_on_c, 0, 84, 70
2,76221, Control_c, 0, 64, 75
2,76240, Control_c, 0, 64, 61
2,76240, Note_on_c, 0, 69, 64
2,76260, Control_c, 0, 64, 48
2,76279, Control_c, 0, 64, 41
2,76281, Note_on_c, 0, 82, 0
2,76297, Control_c, 0, 64, 35
2,76319, Control_c, 0, 64, 29
2,76328, Note_on_c, 0, 58, 0
2,76335, Control_c, 0, 64, 25
2,76392, Control_c, 0, 64, 21
2,76630, Note_on_c, 0, 75, 66
2,76634, Note_on_c, 0, 60, 69
2,76680, Note_on_c, 0, 84, 0
2,76841, Control_c, 0, 64, 17
2,76857, Note_on_c, 0, 60, 0
2,77044, Note_on_c, 0, 75, 0
2,77095, Note_on_c, 0, 61, 70
2,77212, Note_on_c, 0, 69, 0
2,77288, Note_on_c, 0, 58, 66
2,77333, Note_on_c, 0, 61, 0
2,77506, Note_on_c, 0, 73, 69
2,77521, Note_on_c, 0, 60, 62
2,77527, Note_on_c, 0, 70, 61
2,77576, Note_on_c, 0, 58, 0
2,77677, Note_on_c, 0, 70, 0
2,77699, Note_on_c, 0, 73, 0
2,77731, Note_on_c, 0, 61, 65
2,77734, Note_on_c, 0, 60, 0
2,77942, Note_on_c, 0, 78, 73
2,77951, Note_on_c, 0, 72, 63
2,77964, Note_on_c, 0, 63, 58
2,77990, Note_on_c, 0, 61, 0
2,78154, Note_on_c, 0, 69, 61
2,78159, Note_on_c, 0, 60, 58
2,78163, Note_on_c, 0, 72, 0
2,78179, Note_on_c, 0, 63, 0
2,78349, Note_on_c, 0, 69, 0
2,78364, Note_on_c, 0, 61, 64
2,78372, Note_on_c, 0, 60, 0
2,78376, Note_on_c, 0, 70, 68
2,78431, Note_on_c, 0, 78, 0
2,78567, Note_on_c, 0, 70, 0
2,78568, Note_on_c, 0, 72, 64
2,78571, Note_on_c, 0, 63, 57
2,78630, Note_on_c, 0, 61, 0
2,78791, Note_on_c, 0, 77, 74
2,78810, Note_on_c, 0, 73, 58
2,78814, Note_on_c, 0, 65, 62
2,78836, Note_on_c, 0, 72, 0
2,78861, Note_on_c, 0, 63, 0
2,78996, Note_on_c, 0, 61, 63
2,78997, Note_on_c, 0, 70, 69
2,79004, Note_on_c, 0, 65, 0
2,79064, Note_on_c, 0, 77, 0
2,79067, Note_on_c, 0, 73, 0
2,79176, Note_on_c, 0, 70, 0
2,79203, Note_on_c, 0, 63, 64
2,79209, Note_on_c, 0, 72, 73
2,79245, Note_on_c, 0, 61, 0
2,79388, Note_on_c, 0, 65, 67
2,79391, Note_on_c, 0, 73, 75
2,79423, Note_on_c, 0, 72, 0
2,79429, Note_on_c, 0, 63, 0
2,79633, Note_on_c, 0, 82, 77
2,79641, Note_on_c, 0, 66, 63
2,79648, Note_on_c, 0, 73, 0
2,79652, Note_on_c, 0, 75, 60
2,79668, Note_on_c, 0, 65, 0
2,79830, Note_on_c, 0, 72, 69
2,79831, Note_on_c, 0, 63, 63
2,79844, Note_on_c, 0, 66, 0
2,79928, Note_on_c, 0, 75, 0
2,79962, Control_c, 0, 64, 0
2,79993, Note_on_c, 0, 72, 0
2,80050, Note_on_c, 0, 73, 71
2,80052, Note_on_c, 0, 65, 69
2,80054, Control_c, 0, 64, 13
2,80075, Control_c, 0, 64, 38
2,80077, Note_on_c, 0, 63, 0
2,80095, Control_c, 0, 64, 57
2,80112, Control_c, 0, 64, 67
2,80120, Note_on_c, 0, 82, 0
2,80130, Control_c, 0, 64, 74
2,80150, Control_c, 0, 64, 81
2,80169, Control_c, 0, 64, 88
2,80189, Control_c, 0, 64, 93
2,80191, Note_on_c, 0, 73, 0
2,80240, Note_on_c, 0, 75, 74
2,80308, Note_on_c, 0, 65, 0
2,80453, Control_c, 0, 64, 81
2,80469, Note_on_c, 0, 81, 70
2,80473, Control_c, 0, 64, 69
2,80476, Note_on_c, 0, 77, 71
2,80484, Note_on_c, 0, 75, 0
2,80492, Control_c, 0, 64, 55
2,80509, Control_c, 0, 64, 43
2,80529, Control_c, 0, 64, 33
2,80548, Control_c, 0, 64, 28
2,80676, Control_c, 0, 64, 24
2,80683, Note_on_c, 0, 73, 66
2,80691, Note_on_c, 0, 77, 0
2,80923, Note_on_c, 0, 66, 67
2,80924, Note_on_c, 0, 75, 72
2,80981, Note_on_c, 0, 73, 0
2,81036, Control_c, 0, 64, 19
2,81074, Control_c, 0, 64, 13
2,81092, Control_c, 0, 64, 0
2,81261, Control_c, 0, 64, 30
2,81280, Control_c, 0, 64, 51
2,81299, Control_c, 0, 64, 61
2,81318, Control_c, 0, 64, 66
2,81338, Control_c, 0, 64, 69
2,81357, Control_c, 0, 64, 75
2,81369, Note_on_c, 0, 60, 68
2,81374, Note_on_c, 0, 75, 0
2,81376, Control_c, 0, 64, 84
2,81394, Control_c, 0, 64, 93
2,81414, Control_c, 0, 64, 100
2,81423, Note_on_c, 0, 66, 0
2,81450, Control_c, 0, 64, 105
2,81801, Note_on_c, 0, 77, 72
2,81807, Control_c, 0, 64, 101
2,81812, Note_on_c, 0, 61, 59
2,81824, Control_c, 0, 64, 91
2,81845, Control_c, 0, 64, 75
2,81854, Note_on_c, 0, 60, 0
2,81862, Control_c, 0, 64, 55
2,81882, Control_c, 0, 64, 35
2,81899, Control_c, 0, 64, 19
2,81914, Note_on_c, 0, 81, 0
2,81938, Control_c, 0, 64, 15
2,81957, Control_c, 0, 64, 0
2,82004, Note_on_c, 0, 63, 66
2,82026, Note_on_c, 0, 61, 0
2,82236, Note_on_c, 0, 82, 70
2,82246, Note_on_c, 0, 61, 65
2,82249, Note_on_c, 0, 70, 61
2,82279, Note_on_c, 0, 63, 0
2,82308, Note_on_c, 0, 77, 0
2,82411, Control_c, 0, 64, 34
2,82428, Control_c, 0, 64, 60
2,82447, Control_c, 0, 64, 72
2,82466, Control_c, 0, 64, 77
2,82478, Note_on_c, 0, 70, 0
2,82484, Control_c, 0, 64, 81
2,82521, Control_c, 0, 64, 84
2,82539, Control_c, 0, 64, 87
2,82578, Control_c, 0, 64, 94
2,82709, Note_on_c, 0, 58, 52
2,82709, Note_on_c, 0, 72, 68
2,82759, Note_on_c, 0, 61, 0
2,82857, Control_c, 0, 64, 89
2,82901, Note_on_c, 0, 73, 72
2,82903, Note_on_c, 0, 72, 0
2,83111, Note_on_c, 0, 82, 0
2,83125, Control_c, 0, 64, 85
2,83141, Control_c, 0, 64, 76
2,83141, Note_on_c, 0, 63, 62
2,83145, Note_on_c, 0, 72, 75
2,83160, Control_c, 0, 64, 63
2,83179, Control_c, 0, 64, 44
2,83181, Note_on_c, 0, 73, 0
2,83199, Control_c, 0, 64, 24
2,83217, Control_c, 0, 64, 14
2,83253, Control_c, 0, 64, 10
2,83254, Note_on_c, 0, 58, 0
2,83291, Control_c, 0, 64, 0
2,83598, Note_on_c, 0, 70, 67
2,83606, Note_on_c, 0, 65, 60
2,83666, Note_on_c, 0, 72, 0
2,83681, Note_on_c, 0, 63, 0
2,83800, Note_on_c, 0, 66, 56
2,83826, Note_on_c, 0, 65, 0
2,84031, Note_on_c, 0, 69, 75
2,84042, Note_on_c, 0, 65, 63
2,84077, Note_on_c, 0, 66, 0
2,84097, Note_on_c, 0, 70, 0
2,84478, Note_on_c, 0, 70, 72
2,84480, Note_on_c, 0, 63, 61
2,84552, Note_on_c, 0, 65, 0
2,84590, Note_on_c, 0, 69, 0
2,84677, Note_on_c, 0, 72, 71
2,84739, Note_on_c, 0, 70, 0
2,84914, Note_on_c, 0, 62, 61
2,84915, Note_on_c, 0, 70, 74
2,84919, Note_on_c, 0, 63, 0
2,85035, Note_on_c, 0, 72, 0
2,85360, Note_on_c, 0, 63, 62
2,85365, Note_on_c, 0, 68, 70
2,85418, Note_on_c, 0, 62, 0
2,85471, Note_on_c, 0, 70, 0
2,85571, Note_on_c, 0, 65, 62
2,85587, Note_on_c, 0, 63, 0
2,85811, Note_on_c, 0, 67, 73
2,85813, Note_on_c, 0, 63, 65
2,85823, Note_on_c, 0, 65, 0
2,85883, Note_on_c, 0, 68, 0
2,86253, Note_on_c, 0, 68, 70
2,86254, Note_on_c, 0, 61, 62
2,86335, Note_on_c, 0, 63, 0
2,86366, Note_on_c, 0, 67, 0
2,86459, Note_on_c, 0, 70, 79
2,86518, Note_on_c, 0, 68, 0
2,86677, Note_on_c, 0, 68, 75
2,86683, Note_on_c, 0, 60, 70
2,86705, Note_on_c, 0, 61, 0
2,86748, Note_on_c, 0, 70, 0
2,86908, Control_c, 0, 64, 8
2,86948, Control_c, 0, 64, 16
2,86964, Control_c, 0, 64, 22
2,86983, Control_c, 0, 64, 27
2,87076, Control_c, 0, 64, 22
2,87096, Control_c, 0, 64, 14
2,87117, Note_on_c, 0, 61, 64
2,87119, Note_on_c, 0, 66, 78
2,87134, Control_c, 0, 64, 0
2,87162, Note_on_c, 0, 60, 0
2,87219, Note_on_c, 0, 68, 0
2,87267, Control_c, 0, 64, 32
2,87287, Control_c, 0, 64, 51
2,87316, Note_on_c, 0, 63, 70
2,87318, Control_c, 0, 64, 64
2,87324, Note_on_c, 0, 61, 0
2,87338, Control_c, 0, 64, 71
2,87355, Control_c, 0, 64, 78
2,87356, Note_on_c, 0, 63, 0
2,87376, Control_c, 0, 64, 84
2,87395, Control_c, 0, 64, 89
2,87415, Control_c, 0, 64, 93
2,87453, Control_c, 0, 64, 100
2,87490, Control_c, 0, 64, 105
2,87599, Note_on_c, 0, 73, 81
2,87620, Note_on_c, 0, 65, 59
2,87623, Control_c, 0, 64, 94
2,87623, Note_on_c, 0, 61, 68
2,87640, Control_c, 0, 64, 82
2,87644, Note_on_c, 0, 66, 0
2,87660, Control_c, 0, 64, 66
2,87679, Control_c, 0, 64, 46
2,87699, Control_c, 0, 64, 30
2,87714, Control_c, 0, 64, 22
2,87754, Control_c, 0, 64, 14
2,87774, Control_c, 0, 64, 0
2,87960, Control_c, 0, 64, 20
2,87981, Control_c, 0, 64, 32
2,87998, Control_c, 0, 64, 45
2,88019, Control_c, 0, 64, 57
2,88035, Control_c, 0, 64, 66
2,88049, Note_on_c, 0, 60, 69
2,88050, Note_on_c, 0, 63, 75
2,88055, Control_c, 0, 64, 71
2,88059, Note_on_c, 0, 61, 0
2,88068, Note_on_c, 0, 65, 0
2,88073, Control_c, 0, 64, 75
2,88094, Control_c, 0, 64, 80
2,88112, Control_c, 0, 64, 88
2,88133, Control_c, 0, 64, 95
2,88134, Note_on_c, 0, 73, 0
2,88151, Control_c, 0, 64, 101
2,88188, Control_c, 0, 64, 105
2,88204, Note_on_c, 0, 63, 0
2,88221, Note_on_c, 0, 60, 0
2,88227, Note_on_c, 0, 65, 75
2,88230, Note_on_c, 0, 58, 72
2,88311, Note_on_c, 0, 58, 0
2,88467, Control_c, 0, 64, 101
2,88488, Control_c, 0, 64, 94
2,88501, Note_on_c, 0, 48, 76
2,88507, Control_c, 0, 64, 81
2,88507, Note_on_c, 0, 75, 77
2,88512, Note_on_c, 0, 56, 61
2,88521, Note_on_c, 0, 66, 59
2,88523, Control_c, 0, 64, 63
2,88543, Control_c, 0, 64, 37
2,88561, Control_c, 0, 64, 0
2,88598, Note_on_c, 0, 65, 0
2,88728, Note_on_c, 0, 66, 0
2,88733, Control_c, 0, 64, 26
2,88749, Control_c, 0, 64, 47
2,88769, Control_c, 0, 64, 61
2,88788, Control_c, 0, 64, 69
2,88809, Control_c, 0, 64, 74
2,88827, Control_c, 0, 64, 81
2,88846, Control_c, 0, 64, 90
2,88867, Control_c, 0, 64, 101
2,88883, Control_c, 0, 64, 111
2,88902, Control_c, 0, 64, 117
2,88941, Control_c, 0, 64, 121
2,88960, Note_on_c, 0, 65, 73
2,88984, Note_on_c, 0, 48, 0
2,89033, Control_c, 0, 64, 113
2,89053, Control_c, 0, 64, 102
2,89072, Control_c, 0, 64, 88
2,89093, Control_c, 0, 64, 69
2,89110, Control_c, 0, 64, 46
2,89129, Control_c, 0, 64, 27
2,89143, Note_on_c, 0, 63, 74
2,89148, Control_c, 0, 64, 22
2,89150, Note_on_c, 0, 65, 0
2,89241, Control_c, 0, 64, 17
2,89279, Control_c, 0, 64, 9
2,89300, Control_c, 0, 64, 0
2,89397, Note_on_c, 0, 61, 76
2,89399, Note_on_c, 0, 63, 0
2,89403, Note_on_c, 0, 49, 72
2,89423, Note_on_c, 0, 75, 0
2,89814, Note_on_c, 0, 77, 77
2,89835, Note_on_c, 0, 73, 67
2,89889, Note_on_c, 0, 61, 0
2,89920, Control_c, 0, 64, 8
2,89940, Control_c, 0, 64, 37
2,89957, Control_c, 0, 64, 57
2,89977, Control_c, 0, 64, 65
2,89994, Control_c, 0, 64, 66
2,90002, Note_on_c, 0, 77, 0
2,90015, Control_c, 0, 64, 65
2,90034, Control_c, 0, 64, 64
2,90054, Control_c, 0, 64, 63
2,90061, Note_on_c, 0, 73, 0
2,90072, Control_c, 0, 64, 60
2,90091, Control_c, 0, 64, 56
2,90109, Control_c, 0, 64, 51
2,90128, Control_c, 0, 64, 47
2,90147, Control_c, 0, 64, 43
2,90165, Control_c, 0, 64, 40
2,90199, Control_c, 0, 64, 34
2,90218, Control_c, 0, 64, 25
2,90237, Control_c, 0, 64, 19
2,90252, Note_on_c, 0, 78, 80
2,90262, Note_on_c, 0, 72, 69
2,90324, Note_on_c, 0, 49, 0
2,90427, Control_c, 0, 64, 24
2,90444, Control_c, 0, 64, 33
2,90455, Note_on_c, 0, 70, 76
2,90500, Note_on_c, 0, 78, 0
2,90519, Note_on_c, 0, 72, 0
2,90540, Control_c, 0, 64, 38
2,90561, Control_c, 0, 64, 41
2,90654, Control_c, 0, 64, 36
2,90662, Note_on_c, 0, 72, 76
2,90668, Note_on_c, 0, 51, 75
2,90673, Note_on_c, 0, 68, 70
2,90692, Control_c, 0, 64, 31
2,90729, Note_on_c, 0, 70, 0
2,90805, Control_c, 0, 64, 37
2,90824, Control_c, 0, 64, 51
2,90842, Control_c, 0, 64, 61
2,90859, Control_c, 0, 64, 64
2,90859, Note_on_c, 0, 66, 67
2,90879, Control_c, 0, 64, 65
2,90884, Note_on_c, 0, 68, 0
2,90887, Note_on_c, 0, 51, 0
2,90899, Control_c, 0, 64, 66
2,90915, Control_c, 0, 64, 67
2,90935, Control_c, 0, 64, 69
2,90953, Control_c, 0, 64, 71
2,90972, Note_on_c, 0, 66, 0
2,90974, Control_c, 0, 64, 74
2,90992, Control_c, 0, 64, 76
2,91052, Control_c, 0, 64, 74
2,91067, Control_c, 0, 64, 67
2,91078, Note_on_c, 0, 73, 75
2,91087, Control_c, 0, 64, 58
2,91088, Note_on_c, 0, 53, 75
2,91092, Note_on_c, 0, 65, 62
2,91105, Control_c, 0, 64, 48
2,91107, Note_on_c, 0, 72, 0
2,91124, Control_c, 0, 64, 38
2,91157, Control_c, 0, 64, 29
2,91177, Control_c, 0, 64, 25
2,91247, Note_on_c, 0, 65, 0
2,91298, Note_on_c, 0, 63, 57
2,91479, Control_c, 0, 64, 21
2,91499, Control_c, 0, 64, 13
2,91505, Note_on_c, 0, 63, 0
2,91520, Control_c, 0, 64, 0
2,91523, Note_on_c, 0, 46, 76
2,91537, Note_on_c, 0, 61, 72
2,91598, Note_on_c, 0, 53, 0
2,91649, Control_c, 0, 64, 35
2,91667, Control_c, 0, 64, 60
2,91688, Control_c, 0, 64, 74
2,91705, Control_c, 0, 64, 85
2,91725, Control_c, 0, 64, 91
2,91746, Control_c, 0, 64, 95
2,91763, Control_c, 0, 64, 100
2,91801, Control_c, 0, 64, 107
2,91807, Note_on_c, 0, 61, 0
2,91817, Note_on_c, 0, 46, 0
2,91819, Control_c, 0, 64, 112
2,91839, Control_c, 0, 64, 118
2,91858, Control_c, 0, 64, 124
2,91944, Note_on_c, 0, 68, 76
2,91951, Control_c, 0, 64, 117
2,91959, Note_on_c, 0, 48, 70
2,91972, Control_c, 0, 64, 100
2,91991, Control_c, 0, 64, 78
2,92011, Control_c, 0, 64, 50
2,92022, Note_on_c, 0, 73, 0
2,92026, Control_c, 0, 64, 22
2,92045, Control_c, 0, 64, 16
2,92078, Note_on_c, 0, 56, 0
2,92144, Note_on_c, 0, 54, 63
2,92374, Note_on_c, 0, 75, 78
2,92386, Note_on_c, 0, 53, 75
2,92390, Note_on_c, 0, 54, 0
2,92553, Note_on_c, 0, 75, 0
2,92566, Note_on_c, 0, 51, 75
2,92574, Note_on_c, 0, 53, 0
2,92605, Note_on_c, 0, 48, 0
2,92800, Note_on_c, 0, 49, 74
2,92800, Note_on_c, 0, 77, 77
2,92853, Note_on_c, 0, 51, 0
2,92970, Note_on_c, 0, 49, 0
2,92994, Note_on_c, 0, 73, 77
2,93034, Note_on_c, 0, 77, 0
2,93227, Note_on_c, 0, 75, 75
2,93229, Note_on_c, 0, 61, 78
2,93234, Note_on_c, 0, 49, 76
2,93369, Note_on_c, 0, 61, 0
2,93379, Note_on_c, 0, 49, 0
2,93426, Note_on_c, 0, 77, 72
2,93478, Note_on_c, 0, 73, 0
2,93502, Note_on_c, 0, 75, 0
2,93655, Note_on_c, 0, 78, 78
2,93656, Note_on_c, 0, 60, 73
2,93666, Note_on_c, 0, 51, 66
2,93669, Note_on_c, 0, 77, 0
2,93849, Note_on_c, 0, 75, 75
2,93851, Note_on_c, 0, 48, 74
2,93889, Note_on_c, 0, 51, 0
2,93896, Note_on_c, 0, 78, 0
2,94004, Note_on_c, 0, 68, 0
2,94068, Note_on_c, 0, 77, 73
2,94080, Note_on_c, 0, 49, 74
2,94085, Note_on_c, 0, 60, 0
2,94150, Note_on_c, 0, 48, 0
2,94177, Note_on_c, 0, 75, 0
2,94264, Note_on_c, 0, 78, 76
2,94265, Note_on_c, 0, 51, 69
2,94328, Note_on_c, 0, 49, 0
2,94337, Note_on_c, 0, 77, 0
2,94477, Note_on_c, 0, 80, 76
2,94481, Note_on_c, 0, 53, 68
2,94483, Note_on_c, 0, 73, 70
2,94494, Note_on_c, 0, 56, 61
2,94504, Note_on_c, 0, 78, 0
2,94512, Note_on_c, 0, 51, 0
2,94685, Note_on_c, 0, 49, 71
2,94686, Note_on_c, 0, 77, 77
2,94698, Note_on_c, 0, 53, 0
2,94706, Note_on_c, 0, 80, 0
2,94882, Note_on_c, 0, 51, 70
2,94893, Note_on_c, 0, 78, 75
2,94947, Note_on_c, 0, 56, 0
2,94952, Note_on_c, 0, 77, 0
2,94954, Note_on_c, 0, 49, 0
2,95092, Note_on_c, 0, 53, 68
2,95100, Note_on_c, 0, 80, 79
2,95137, Note_on_c, 0, 51, 0
2,95165, Note_on_c, 0, 78, 0
2,95314, Note_on_c, 0, 82, 80
2,95317, Note_on_c, 0, 54, 68
2,95322, Note_on_c, 0, 53, 0
2,95337, Note_on_c, 0, 63, 66
2,95378, Note_on_c, 0, 80, 0
2,95507, Note_on_c, 0, 78, 80
2,95511, Note_on_c, 0, 51, 71
2,95553, Note_on_c, 0, 82, 0
2,95554, Note_on_c, 0, 54, 0
2,95715, Note_on_c, 0, 53, 66
2,95721, Note_on_c, 0, 80, 81
2,95733, Control_c, 0, 64, 20
2,95755, Note_on_c, 0, 51, 0
2,95812, Note_on_c, 0, 63, 0
2,95828, Control_c, 0, 64, 24
2,95919, Note_on_c, 0, 54, 70
2,95921, Note_on_c, 0, 53, 0
2,96143, Note_on_c, 0, 78, 0
2,96153, Note_on_c, 0, 56, 70
2,96155, Note_on_c, 0, 65, 76
2,96210, Note_on_c, 0, 54, 0
2,96213, Note_on_c, 0, 73, 0
2,96307, Note_on_c, 0, 65, 0
2,96348, Note_on_c, 0, 53, 75
2,96371, Control_c, 0, 64, 31
2,96373, Note_on_c, 0, 56, 0
2,96391, Control_c, 0, 64, 38
2,96411, Control_c, 0, 64, 42
2,96484, Control_c, 0, 64, 36
2,96504, Control_c, 0, 64, 26
2,96522, Control_c, 0, 64, 15
2,96559, Note_on_c, 0, 82, 83
2,96560, Control_c, 0, 64, 0
2,96562, Note_on_c, 0, 54, 70
2,96579, Note_on_c, 0, 63, 72
2,96594, Note_on_c, 0, 53, 0
2,96617, Note_on_c, 0, 80, 0
2,96656, Control_c, 0, 64, 34
2,96673, Control_c, 0, 64, 57
2,96690, Note_on_c, 0, 82, 0
2,96692, Control_c, 0, 64, 70
2,96712, Control_c, 0, 64, 82
2,96730, Control_c, 0, 64, 97
2,96749, Control_c, 0, 64, 114
2,96754, Note_on_c, 0, 54, 0
2,96758, Note_on_c, 0, 61, 76
2,96767, Control_c, 0, 64, 126
2,96796, Note_on_c, 0, 63, 0
2,96828, Note_on_c, 0, 61, 0
2,97024, Note_on_c, 0, 75, 75
2,97030, Note_on_c, 0, 68, 69
2,97034, Note_on_c, 0, 72, 75
2,97083, Control_c, 0, 64, 113
2,97101, Control_c, 0, 64, 90
2,97122, Control_c, 0, 64, 61
2,97140, Control_c, 0, 64, 26
2,97158, Control_c, 0, 64, 8
2,97490, Note_on_c, 0, 77, 74
2,97519, Note_on_c, 0, 56, 69
2,97678, Note_on_c, 0, 78, 76
2,97702, Note_on_c, 0, 77, 0
2,97944, Note_on_c, 0, 49, 71
2,97950, Note_on_c, 0, 77, 73
2,97982, Note_on_c, 0, 72, 0
2,98013, Note_on_c, 0, 56, 0
2,98064, Note_on_c, 0, 75, 0
2,98143, Note_on_c, 0, 68, 0
2,98396, Note_on_c, 0, 73, 71
2,98408, Note_on_c, 0, 51, 54
2,98473, Note_on_c, 0, 78, 0
2,98488, Note_on_c, 0, 77, 0
2,98507, Note_on_c, 0, 49, 0
2,98577, Note_on_c, 0, 53, 51
2,98578, Note_on_c, 0, 51, 0
2,98831, Note_on_c, 0, 78, 61
2,98840, Note_on_c, 0, 72, 68
2,98852, Note_on_c, 0, 51, 54
2,98855, Note_on_c, 0, 53, 0
2,98925, Note_on_c, 0, 73, 0
2,99269, Note_on_c, 0, 53, 55
2,99278, Note_on_c, 0, 71, 68
2,99282, Note_on_c, 0, 51, 0
2,99318, Note_on_c, 0, 78, 0
2,99331, Note_on_c, 0, 72, 0
2,99449, Note_on_c, 0, 53, 0
2,99461, Note_on_c, 0, 54, 49
2,99708, Note_on_c, 0, 80, 60
2,99709, Note_on_c, 0, 54, 0
2,99711, Note_on_c, 0, 53, 56
2,99812, Control_c, 0, 64, 20
2,99830, Control_c, 0, 64, 34
2,99850, Control_c, 0, 64, 47
2,99869, Control_c, 0, 64, 55
2,99889, Control_c, 0, 64, 59
2,99907, Control_c, 0, 64, 61
2,99926, Control_c, 0, 64, 64
2,99946, Control_c, 0, 64, 67
2,99963, Control_c, 0, 64, 70
2,99982, Control_c, 0, 64, 72
2,100001, Control_c, 0, 64, 74
2,100021, Control_c, 0, 64, 76
2,100057, Control_c, 0, 64, 79
2,100154, Note_on_c, 0, 49, 47
2,100173, Control_c, 0, 64, 76
2,100173, Note_on_c, 0, 71, 0
2,100175, Note_on_c, 0, 70, 57
2,100189, Control_c, 0, 64, 74
2,100194, Note_on_c, 0, 53, 0
2,100228, Control_c, 0, 64, 72
2,100250, Note_on_c, 0, 80, 0
2,100264, Control_c, 0, 64, 68
2,100283, Control_c, 0, 64, 65
2,100303, Control_c, 0, 64, 63
2,100341, Control_c, 0, 64, 62
2,100360, Control_c, 0, 64, 59
2,100380, Control_c, 0, 64, 54
2,100384, Note_on_c, 0, 70, 0
2,100386, Note_on_c, 0, 68, 60
2,100399, Control_c, 0, 64, 51
2,100455, Control_c, 0, 64, 48
2,100474, Control_c, 0, 64, 42
2,100493, Control_c, 0, 64, 36
2,100568, Control_c, 0, 64, 32
2,100599, Note_on_c, 0, 68, 0
2,100614, Note_on_c, 0, 54, 51
2,100625, Note_on_c, 0, 70, 61
2,100662, Control_c, 0, 64, 28
2,100697, Note_on_c, 0, 49, 0
2,101046, Note_on_c, 0, 78, 69
2,101060, Note_on_c, 0, 56, 48
2,101074, Control_c, 0, 64, 33
2,101093, Control_c, 0, 64, 42
2,101098, Note_on_c, 0, 54, 0
2,101112, Control_c, 0, 64, 49
2,101133, Control_c, 0, 64, 51
2,101149, Control_c, 0, 64, 54
2,101170, Control_c, 0, 64, 59
2,101187, Control_c, 0, 64, 65
2,101208, Control_c, 0, 64, 68
2,101217, Note_on_c, 0, 70, 0
2,101223, Control_c, 0, 64, 71
2,101241, Note_on_c, 0, 58, 46
2,101243, Control_c, 0, 64, 73
2,101251, Note_on_c, 0, 56, 0
2,101263, Control_c, 0, 64, 75
2,101281, Control_c, 0, 64, 77
2,101377, Control_c, 0, 64, 79
2,101395, Control_c, 0, 64, 81
2,101414, Control_c, 0, 64, 84
2,101434, Control_c, 0, 64, 86
2,101484, Note_on_c, 0, 77, 73
2,101488, Note_on_c, 0, 56, 65
2,101508, Control_c, 0, 64, 82
2,101514, Note_on_c, 0, 71, 44
2,101528, Control_c, 0, 64, 76
2,101535, Note_on_c, 0, 58, 0
2,101548, Control_c, 0, 64, 69
2,101564, Control_c, 0, 64, 59
2,101571, Note_on_c, 0, 78, 0
2,101582, Control_c, 0, 64, 51
2,101601, Control_c, 0, 64, 44
2,101619, Control_c, 0, 64, 36
2,101638, Control_c, 0, 64, 28
2,101728, Control_c, 0, 64, 24
2,101947, Note_on_c, 0, 76, 78
2,101962, Note_on_c, 0, 58, 56
2,102017, Note_on_c, 0, 56, 0
2,102081, Note_on_c, 0, 77, 0
2,102132, Note_on_c, 0, 59, 56
2,102160, Note_on_c, 0, 58, 0
2,102371, Control_c, 0, 64, 20
2,102383, Note_on_c, 0, 58, 65
2,102390, Control_c, 0, 64, 16
2,102393, Note_on_c, 0, 73, 70
2,102402, Note_on_c, 0, 59, 0
2,102409, Note_on_c, 0, 71, 0
2,102426, Control_c, 0, 64, 10
2,102523, Control_c, 0, 64, 30
2,102540, Note_on_c, 0, 76, 0
2,102542, Control_c, 0, 64, 47
2,102561, Control_c, 0, 64, 58
2,102578, Control_c, 0, 64, 63
2,102598, Control_c, 0, 64, 68
2,102617, Control_c, 0, 64, 76
2,102635, Control_c, 0, 64, 86
2,102655, Control_c, 0, 64, 94
2,102687, Control_c, 0, 64, 100
2,102726, Control_c, 0, 64, 106
2,102803, Control_c, 0, 64, 99
2,102821, Control_c, 0, 64, 90
2,102826, Note_on_c, 0, 75, 71
2,102831, Note_on_c, 0, 73, 0
2,102832, Note_on_c, 0, 54, 57
2,102838, Control_c, 0, 64, 77
2,102842, Note_on_c, 0, 70, 60
2,102857, Control_c, 0, 64, 62
2,102870, Note_on_c, 0, 58, 0
2,102878, Control_c, 0, 64, 50
2,102897, Control_c, 0, 64, 46
2,102990, Control_c, 0, 64, 44
2,103025, Note_on_c, 0, 73, 70
2,103034, Note_on_c, 0, 70, 0
2,103034, Note_on_c, 0, 75, 0
2,103123, Control_c, 0, 64, 46
2,103217, Control_c, 0, 64, 44
2,103237, Control_c, 0, 64, 40
2,103255, Control_c, 0, 64, 32
2,103270, Note_on_c, 0, 59, 73
2,103274, Control_c, 0, 64, 17
2,103282, Note_on_c, 0, 75, 68
2,103285, Note_on_c, 0, 66, 65
2,103293, Control_c, 0, 64, 11
2,103326, Note_on_c, 0, 54, 0
2,103425, Control_c, 0, 64, 27
2,103443, Control_c, 0, 64, 41
2,103463, Control_c, 0, 64, 52
2,103482, Control_c, 0, 64, 57
2,103502, Control_c, 0, 64, 60
2,103520, Control_c, 0, 64, 61
2,103537, Control_c, 0, 64, 64
2,103538, Note_on_c, 0, 73, 0
2,103558, Control_c, 0, 64, 68
2,103576, Control_c, 0, 64, 71
2,103595, Control_c, 0, 64, 73
2,103714, Note_on_c, 0, 63, 74
2,103730, Note_on_c, 0, 77, 70
2,103777, Note_on_c, 0, 75, 0
2,103824, Note_on_c, 0, 59, 0
2,103895, Note_on_c, 0, 66, 0
2,103908, Note_on_c, 0, 78, 73
2,103923, Note_on_c, 0, 77, 0
2,104119, Control_c, 0, 64, 68
2,104134, Note_on_c, 0, 62, 76
2,104136, Control_c, 0, 64, 61
2,104136, Note_on_c, 0, 77, 68
2,104141, Note_on_c, 0, 59, 62
2,104150, Note_on_c, 0, 78, 0
2,104154, Note_on_c, 0, 68, 59
2,104157, Control_c, 0, 64, 53
2,104177, Control_c, 0, 64, 46
2,104188, Note_on_c, 0, 63, 0
2,104194, Control_c, 0, 64, 40
2,104215, Control_c, 0, 64, 33
2,104234, Control_c, 0, 64, 26
2,104253, Control_c, 0, 64, 20
2,104270, Control_c, 0, 64, 12
2,104328, Control_c, 0, 64, 0
2,104480, Control_c, 0, 64, 23
2,104497, Control_c, 0, 64, 43
2,104517, Control_c, 0, 64, 57
2,104536, Control_c, 0, 64, 61
2,104554, Control_c, 0, 64, 62
2,104585, Control_c, 0, 64, 63
2,104587, Note_on_c, 0, 79, 74
2,104590, Note_on_c, 0, 61, 73
2,104607, Control_c, 0, 64, 65
2,104625, Control_c, 0, 64, 67
2,104625, Note_on_c, 0, 62, 0
2,104633, Note_on_c, 0, 68, 0
2,104645, Note_on_c, 0, 59, 0
2,104663, Control_c, 0, 64, 69
2,104663, Note_on_c, 0, 77, 0
2,104770, Note_on_c, 0, 80, 79
2,104806, Note_on_c, 0, 79, 0
2,104871, Control_c, 0, 64, 71
2,104929, Control_c, 0, 64, 74
2,104985, Control_c, 0, 64, 69
2,105000, Note_on_c, 0, 79, 66
2,105003, Control_c, 0, 64, 61
2,105020, Note_on_c, 0, 70, 69
2,105022, Control_c, 0, 64, 52
2,105023, Note_on_c, 0, 58, 62
2,105042, Control_c, 0, 64, 44
2,105049, Note_on_c, 0, 80, 0
2,105062, Control_c, 0, 64, 35
2,105079, Control_c, 0, 64, 26
2,105098, Control_c, 0, 64, 20
2,105118, Control_c, 0, 64, 16
2,105137, Control_c, 0, 64, 12
2,105155, Control_c, 0, 64, 8
2,105174, Control_c, 0, 64, 0
2,105382, Control_c, 0, 64, 16
2,105402, Control_c, 0, 64, 35
2,105412, Note_on_c, 0, 70, 0
2,105419, Control_c, 0, 64, 50
2,105439, Control_c, 0, 64, 59
2,105443, Note_on_c, 0, 60, 73
2,105445, Note_on_c, 0, 61, 0
2,105455, Control_c, 0, 64, 63
2,105458, Note_on_c, 0, 51, 60
2,105477, Control_c, 0, 64, 65
2,105482, Note_on_c, 0, 58, 0
2,105496, Control_c, 0, 64, 66
2,105514, Control_c, 0, 64, 71
2,105533, Control_c, 0, 64, 75
2,105567, Control_c, 0, 64, 77
2,105637, Note_on_c, 0, 58, 75
2,105642, Note_on_c, 0, 60, 0
2,105677, Note_on_c, 0, 51, 0
2,105812, Control_c, 0, 64, 69
2,105831, Control_c, 0, 64, 60
2,105850, Control_c, 0, 64, 49
2,105869, Control_c, 0, 64, 35
2,105887, Control_c, 0, 64, 11
2,105893, Note_on_c, 0, 80, 80
2,105901, Note_on_c, 0, 60, 68
2,105904, Note_on_c, 0, 56, 67
2,105907, Control_c, 0, 64, 0
2,105919, Note_on_c, 0, 58, 0
2,105922, Note_on_c, 0, 79, 0
2,106003, Control_c, 0, 64, 36
2,106021, Control_c, 0, 64, 63
2,106021, Note_on_c, 0, 80, 0
2,106039, Control_c, 0, 64, 81
2,106058, Control_c, 0, 64, 102
2,106077, Control_c, 0, 64, 117
2,106097, Control_c, 0, 64, 124
2,106132, Note_on_c, 0, 56, 0
2,106322, Note_on_c, 0, 68, 78
2,106330, Note_on_c, 0, 53, 62
2,106340, Note_on_c, 0, 58, 75
2,106380, Control_c, 0, 64, 118
2,106397, Note_on_c, 0, 60, 0
2,106417, Control_c, 0, 64, 114
2,106456, Control_c, 0, 64, 107
2,106474, Note_on_c, 0, 53, 0
2,106525, Control_c, 0, 64, 103
2,106527, Note_on_c, 0, 56, 72
2,106564, Control_c, 0, 64, 97
2,106568, Note_on_c, 0, 58, 0
2,106715, Control_c, 0, 64, 92
2,106736, Control_c, 0, 64, 80
2,106752, Control_c, 0, 64, 62
2,106762, Note_on_c, 0, 67, 75
2,106772, Control_c, 0, 64, 37
2,106773, Note_on_c, 0, 56, 0
2,106775, Note_on_c, 0, 61, 71
2,106778, Note_on_c, 0, 46, 80
2,106810, Control_c, 0, 64, 0
2,106832, Note_on_c, 0, 68, 0
2,106905, Control_c, 0, 64, 25
2,106907, Note_on_c, 0, 67, 0
2,106923, Control_c, 0, 64, 57
2,106942, Control_c, 0, 64, 78
2,106964, Control_c, 0, 64, 97
2,106981, Control_c, 0, 64, 114
2,106997, Control_c, 0, 64, 122
2,107017, Control_c, 0, 64, 126
2,107191, Note_on_c, 0, 66, 64
2,107209, Note_on_c, 0, 51, 77
2,107210, Note_on_c, 0, 60, 70
2,107252, Note_on_c, 0, 61, 0
2,107301, Control_c, 0, 64, 109
2,107321, Control_c, 0, 64, 91
2,107334, Note_on_c, 0, 46, 0
2,107340, Control_c, 0, 64, 70
2,107359, Control_c, 0, 64, 48
2,107378, Control_c, 0, 64, 31
2,107385, Note_on_c, 0, 58, 71
2,107394, Note_on_c, 0, 60, 0
2,107433, Control_c, 0, 64, 27
2,107505, Control_c, 0, 64, 22
2,107543, Control_c, 0, 64, 15
2,107561, Control_c, 0, 64, 0
2,107651, Note_on_c, 0, 63, 77
2,107654, Note_on_c, 0, 48, 77
2,107727, Note_on_c, 0, 66, 0
2,107737, Note_on_c, 0, 58, 0
2,107749, Control_c, 0, 64, 39
2,107764, Note_on_c, 0, 51, 0
2,107768, Control_c, 0, 64, 64
2,107786, Control_c, 0, 64, 81
2,107807, Control_c, 0, 64, 99
2,107824, Control_c, 0, 64, 111
2,107845, Control_c, 0, 64, 117
2,107883, Control_c, 0, 64, 122
2,107922, Control_c, 0, 64, 127
2,108065, Note_on_c, 0, 61, 73
2,108078, Note_on_c, 0, 65, 81
2,108087, Note_on_c, 0, 44, 68
2,108108, Control_c, 0, 64, 115
2,108115, Note_on_c, 0, 63, 0
2,108122, Note_on_c, 0, 48, 0
2,108127, Control_c, 0, 64, 99
2,108148, Control_c, 0, 64, 79
2,108167, Control_c, 0, 64, 58
2,108184, Control_c, 0, 64, 37
2,108203, Control_c, 0, 64, 28
2,108226, Note_on_c, 0, 61, 0
2,108242, Control_c, 0, 64, 23
2,108257, Note_on_c, 0, 60, 73
2,108259, Note_on_c, 0, 63, 77
2,108260, Control_c, 0, 64, 17
2,108280, Control_c, 0, 64, 12
2,108296, Note_on_c, 0, 65, 0
2,108318, Control_c, 0, 64, 8
2,108338, Control_c, 0, 64, 0
2,108522, Note_on_c, 0, 49, 66
2,108526, Note_on_c, 0, 65, 81
2,108530, Note_on_c, 0, 61, 82
2,108536, Note_on_c, 0, 44, 0
2,108552, Note_on_c, 0, 60, 0
2,108558, Control_c, 0, 64, 14
2,108570, Note_on_c, 0, 63, 0
2,108577, Control_c, 0, 64, 51
2,108598, Control_c, 0, 64, 75
2,108616, Control_c, 0, 64, 96
2,108635, Control_c, 0, 64, 125
2,108637, Note_on_c, 0, 61, 0
2,108661, Note_on_c, 0, 65, 0
2,108975, Note_on_c, 0, 77, 90
2,108976, Note_on_c, 0, 61, 73
2,108983, Note_on_c, 0, 67, 80
2,109013, Control_c, 0, 64, 103
2,109033, Control_c, 0, 64, 74
2,109046, Note_on_c, 0, 49, 0
2,109051, Control_c, 0, 64, 35
2,109068, Control_c, 0, 64, 0
2,109143, Control_c, 0, 64, 36
2,109163, Control_c, 0, 64, 63
2,109171, Note_on_c, 0, 68, 78
2,109182, Control_c, 0, 64, 82
2,109199, Note_on_c, 0, 67, 0
2,109203, Control_c, 0, 64, 102
2,109221, Control_c, 0, 64, 116
2,109239, Control_c, 0, 64, 123
2,109250, Note_on_c, 0, 77, 0
2,109258, Control_c, 0, 64, 127
2,109426, Note_on_c, 0, 76, 86
2,109436, Note_on_c, 0, 67, 82
2,109461, Control_c, 0, 64, 106
2,109475, Note_on_c, 0, 68, 0
2,109481, Control_c, 0, 64, 77
2,109501, Control_c, 0, 64, 43
2,109520, Control_c, 0, 64, 0
2,109631, Control_c, 0, 64, 21
2,109651, Control_c, 0, 64, 42
2,109669, Control_c, 0, 64, 62
2,109689, Control_c, 0, 64, 75
2,109707, Control_c, 0, 64, 87
2,109727, Control_c, 0, 64, 98
2,109745, Control_c, 0, 64, 106
2,109766, Control_c, 0, 64, 110
2,109802, Control_c, 0, 64, 105
2,109820, Control_c, 0, 64, 92
2,109841, Control_c, 0, 64, 77
2,109856, Note_on_c, 0, 75, 82
2,109860, Control_c, 0, 64, 64
2,109861, Note_on_c, 0, 67, 0
2,109864, Note_on_c, 0, 69, 72
2,109866, Note_on_c, 0, 60, 78
2,109896, Control_c, 0, 64, 75
2,109897, Note_on_c, 0, 76, 0
2,109913, Note_on_c, 0, 61, 0
2,109915, Control_c, 0, 64, 92
2,109936, Control_c, 0, 64, 111
2,109954, Control_c, 0, 64, 116
2,109954, Note_on_c, 0, 69, 0
2,110051, Note_on_c, 0, 60, 0
2,110052, Note_on_c, 0, 58, 80
2,110066, Note_on_c, 0, 70, 83
2,110163, Note_on_c, 0, 58, 0
2,110219, Control_c, 0, 64, 107
2,110239, Control_c, 0, 64, 91
2,110257, Control_c, 0, 64, 63
2,110274, Control_c, 0, 64, 0
2,110297, Note_on_c, 0, 57, 89
2,110302, Note_on_c, 0, 72, 80
2,110334, Note_on_c, 0, 70, 0
2,110440, Control_c, 0, 64, 15
2,110459, Control_c, 0, 64, 54
2,110478, Control_c, 0, 64, 72
2,110482, Note_on_c, 0, 72, 0
2,110497, Control_c, 0, 64, 88
2,110518, Control_c, 0, 64, 106
2,110528, Note_on_c, 0, 57, 0
2,110535, Control_c, 0, 64, 119
2,110554, Control_c, 0, 64, 127
2,110740, Control_c, 0, 64, 100
2,110755, Control_c, 0, 64, 52
2,110757, Note_on_c, 0, 53, 85
2,110761, Note_on_c, 0, 73, 79
2,110767, Note_on_c, 0, 69, 76
2,110775, Control_c, 0, 64, 0
2,110831, Control_c, 0, 64, 40
2,110846, Note_on_c, 0, 53, 0
2,110848, Control_c, 0, 64, 82
2,110870, Control_c, 0, 64, 125
2,110921, Note_on_c, 0, 75, 0
2,110973, Note_on_c, 0, 72, 83
2,110976, Note_on_c, 0, 73, 0
2,111044, Note_on_c, 0, 72, 0
2,111379, Note_on_c, 0, 65, 97
2,111381, Note_on_c, 0, 73, 62
2,111393, Control_c, 0, 64, 111
2,111396, Note_on_c, 0, 58, 80
2,111399, Note_on_c, 0, 70, 56
2,111413, Control_c, 0, 64, 77
2,111431, Control_c, 0, 64, 31
2,111451, Control_c, 0, 64, 0
2,111486, Note_on_c, 0, 69, 0
2,111620, Control_c, 0, 64, 25
2,111638, Control_c, 0, 64, 57
2,111658, Control_c, 0, 64, 86
2,111662, Note_on_c, 0, 70, 0
2,111677, Control_c, 0, 64, 116
2,111684, Note_on_c, 0, 73, 0
2,111697, Control_c, 0, 64, 127
2,111983, Note_on_c, 0, 82, 90
2,111998, Note_on_c, 0, 73, 79
2,112055, Note_on_c, 0, 65, 0
2,112207, Note_on_c, 0, 73, 0
2,112235, Note_on_c, 0, 82, 0
2,112494, Note_on_c, 0, 63, 88
2,112494, Note_on_c, 0, 81, 78
2,112499, Note_on_c, 0, 72, 73
2,112524, Control_c, 0, 64, 100
2,112543, Control_c, 0, 64, 64
2,112561, Control_c, 0, 64, 0
2,112656, Control_c, 0, 64, 30
2,112675, Control_c, 0, 64, 58
2,112694, Control_c, 0, 64, 79
2,112714, Control_c, 0, 64, 100
2,112734, Control_c, 0, 64, 118
2,112737, Note_on_c, 0, 72, 0
2,112749, Control_c, 0, 64, 127
2,112838, Note_on_c, 0, 63, 0
2,112867, Note_on_c, 0, 58, 0
2,112961, Note_on_c, 0, 80, 85
2,112965, Note_on_c, 0, 71, 80
2,113007, Note_on_c, 0, 81, 0
2,113052, Note_on_c, 0, 71, 0
2,113132, Note_on_c, 0, 78, 50
2,113166, Note_on_c, 0, 78, 0
2,113391, Note_on_c, 0, 78, 83
2,113406, Note_on_c, 0, 70, 77
2,113411, Control_c, 0, 64, 94
2,113431, Control_c, 0, 64, 56
2,113451, Control_c, 0, 64, 0
2,113484, Note_on_c, 0, 80, 0
2,113596, Note_on_c, 0, 75, 81
2,113625, Note_on_c, 0, 78, 0
2,113798, Note_on_c, 0, 58, 74
2,113800, Note_on_c, 0, 61, 81
2,113809, Note_on_c, 0, 77, 77
2,113846, Control_c, 0, 64, 20
2,113851, Note_on_c, 0, 75, 0
2,113864, Control_c, 0, 64, 45
2,113870, Note_on_c, 0, 60, 35
2,113885, Control_c, 0, 64, 62
2,113903, Control_c, 0, 64, 78
2,113916, Note_on_c, 0, 60, 0
2,113921, Control_c, 0, 64, 101
2,113928, Note_on_c, 0, 61, 0
2,113939, Control_c, 0, 64, 124
2,113943, Note_on_c, 0, 58, 0
2,114239, Control_c, 0, 64, 119
2,114240, Note_on_c, 0, 60, 83
2,114256, Note_on_c, 0, 51, 78
2,114256, Note_on_c, 0, 78, 85
2,114258, Control_c, 0, 64, 92
2,114278, Control_c, 0, 64, 58
2,114296, Control_c, 0, 64, 0
2,114333, Note_on_c, 0, 77, 0
2,114371, Control_c, 0, 64, 47
2,114375, Note_on_c, 0, 78, 0
2,114389, Control_c, 0, 64, 79
2,114389, Note_on_c, 0, 70, 0
2,114412, Control_c, 0, 64, 108
2,114427, Control_c, 0, 64, 127
2,114428, Note_on_c, 0, 49, 78
2,114433, Note_on_c, 0, 51, 0
2,114549, Note_on_c, 0, 60, 0
2,114654, Control_c, 0, 64, 113
2,114658, Note_on_c, 0, 66, 84
2,114659, Note_on_c, 0, 51, 81
2,114660, Note_on_c, 0, 72, 82
2,114663, Note_on_c, 0, 70, 78
2,114676, Control_c, 0, 64, 80
2,114694, Control_c, 0, 64, 34
2,114712, Control_c, 0, 64, 0
2,114715, Note_on_c, 0, 49, 0
2,114769, Control_c, 0, 64, 24
2,114787, Control_c, 0, 64, 62
2,114807, Control_c, 0, 64, 90
2,114825, Note_on_c, 0, 51, 0
2,114826, Control_c, 0, 64, 122
2,114828, Note_on_c, 0, 70, 0
2,114832, Note_on_c, 0, 66, 0
2,114845, Control_c, 0, 64, 127
2,114855, Note_on_c, 0, 72, 0
2,115121, Note_on_c, 0, 65, 83
2,115121, Note_on_c, 0, 73, 81
2,115122, Note_on_c, 0, 53, 80
2,115142, Control_c, 0, 64, 112
2,115146, Note_on_c, 0, 69, 76
2,115164, Control_c, 0, 64, 83
2,115180, Control_c, 0, 64, 45
2,115198, Control_c, 0, 64, 0
2,115313, Control_c, 0, 64, 26
2,115333, Control_c, 0, 64, 55
2,115351, Control_c, 0, 64, 75
2,115372, Control_c, 0, 64, 96
2,115375, Note_on_c, 0, 69, 0
2,115388, Control_c, 0, 64, 120
2,115402, Note_on_c, 0, 53, 0
2,115405, Note_on_c, 0, 73, 0
2,115408, Control_c, 0, 64, 127
2,115596, Control_c, 0, 64, 123
2,115598, Note_on_c, 0, 41, 89
2,115600, Note_on_c, 0, 68, 72
2,115601, Note_on_c, 0, 74, 80
2,115616, Control_c, 0, 64, 92
2,115632, Control_c, 0, 64, 49
2,115653, Control_c, 0, 64, 0
2,115747, Control_c, 0, 64, 30
2,115766, Control_c, 0, 64, 60
2,115775, Note_on_c, 0, 74, 0
2,115785, Control_c, 0, 64, 82
2,115787, Note_on_c, 0, 68, 0
2,115805, Control_c, 0, 64, 106
2,115823, Control_c, 0, 64, 126
2,115859, Note_on_c, 0, 41, 0
2,116026, Note_on_c, 0, 75, 82
2,116028, Note_on_c, 0, 67, 78
2,116032, Note_on_c, 0, 43, 88
2,116044, Control_c, 0, 64, 103
2,116065, Control_c, 0, 64, 61
2,116083, Control_c, 0, 64, 0
2,116175, Note_on_c, 0, 65, 0
2,116193, Control_c, 0, 64, 52
2,116201, Note_on_c, 0, 75, 0
2,116209, Control_c, 0, 64, 78
2,116231, Control_c, 0, 64, 100
2,116235, Note_on_c, 0, 67, 0
2,116250, Control_c, 0, 64, 125
2,116292, Note_on_c, 0, 43, 0
2,116478, Note_on_c, 0, 72, 69
2,116480, Note_on_c, 0, 63, 84
2,116485, Note_on_c, 0, 45, 85
2,116489, Note_on_c, 0, 66, 75
2,116493, Control_c, 0, 64, 104
2,116521, Control_c, 0, 64, 65
2,116541, Control_c, 0, 64, 0
2,116636, Control_c, 0, 64, 22
2,116652, Control_c, 0, 64, 57
2,116661, Note_on_c, 0, 66, 0
2,116670, Control_c, 0, 64, 80
2,116680, Note_on_c, 0, 63, 0
2,116688, Control_c, 0, 64, 102
2,116701, Note_on_c, 0, 72, 0
2,116708, Control_c, 0, 64, 123
2,116723, Note_on_c, 0, 45, 0
2,116726, Control_c, 0, 64, 127
2,116955, Control_c, 0, 64, 121
2,116972, Control_c, 0, 64, 82
2,116978, Note_on_c, 0, 73, 78
2,116979, Note_on_c, 0, 61, 80
2,116980, Note_on_c, 0, 46, 84
2,116987, Note_on_c, 0, 65, 76
2,116992, Control_c, 0, 64, 24
2,117011, Control_c, 0, 64, 0
2,117050, Control_c, 0, 64, 46
2,117084, Control_c, 0, 64, 87
2,117088, Note_on_c, 0, 46, 0
2,117089, Note_on_c, 0, 61, 0
2,117102, Control_c, 0, 64, 127
2,117131, Note_on_c, 0, 65, 0
2,117186, Note_on_c, 0, 73, 0
2,117229, Note_on_c, 0, 65, 86
2,117404, Control_c, 0, 64, 123
2,117422, Control_c, 0, 64, 99
2,117425, Note_on_c, 0, 63, 87
2,117442, Control_c, 0, 64, 72
2,117462, Control_c, 0, 64, 45
2,117480, Control_c, 0, 64, 27
2,117500, Control_c, 0, 64, 23
2,117519, Control_c, 0, 64, 13
2,117538, Control_c, 0, 64, 0
2,117619, Note_on_c, 0, 61, 79
2,117631, Control_c, 0, 64, 25
2,117648, Control_c, 0, 64, 45
2,117669, Control_c, 0, 64, 61
2,117686, Control_c, 0, 64, 74
2,117702, Note_on_c, 0, 63, 0
2,117706, Control_c, 0, 64, 89
2,117726, Control_c, 0, 64, 106
2,117745, Control_c, 0, 64, 120
2,117745, Note_on_c, 0, 61, 0
2,117764, Control_c, 0, 64, 127
2,117846, Note_on_c, 0, 69, 81
2,117848, Note_on_c, 0, 51, 77
2,117858, Control_c, 0, 64, 109
2,117866, Note_on_c, 0, 60, 79
2,117876, Control_c, 0, 64, 84
2,117897, Control_c, 0, 64, 55
2,117914, Control_c, 0, 64, 19
2,117932, Control_c, 0, 64, 0
2,118056, Note_on_c, 0, 63, 84
2,118061, Note_on_c, 0, 60, 0
2,118111, Note_on_c, 0, 51, 0
2,118137, Control_c, 0, 64, 26
2,118156, Control_c, 0, 64, 45
2,118174, Control_c, 0, 64, 62
2,118195, Control_c, 0, 64, 73
2,118212, Control_c, 0, 64, 85
2,118233, Control_c, 0, 64, 97
2,118248, Note_on_c, 0, 69, 0
2,118251, Control_c, 0, 64, 107
2,118257, Note_on_c, 0, 61, 81
2,118270, Control_c, 0, 64, 115
2,118274, Note_on_c, 0, 63, 0
2,118288, Control_c, 0, 64, 121
2,118308, Control_c, 0, 64, 127
2,118439, Control_c, 0, 64, 121
2,118445, Note_on_c, 0, 61, 0
2,118452, Note_on_c, 0, 60, 82
2,118571, Control_c, 0, 64, 116
2,118590, Control_c, 0, 64, 104
2,118608, Control_c, 0, 64, 83
2,118629, Control_c, 0, 64, 53
2,118646, Control_c, 0, 64, 0
2,118667, Note_on_c, 0, 60, 0
2,118668, Note_on_c, 0, 49, 71
2,118669, Note_on_c, 0, 58, 78
2,118676, Note_on_c, 0, 70, 80
2,118781, Control_c, 0, 64, 23
2,118798, Control_c, 0, 64, 49
2,118820, Control_c, 0, 64, 69
2,118836, Control_c, 0, 64, 82
2,118856, Control_c, 0, 64, 96
2,118866, Note_on_c, 0, 58, 0
2,118867, Note_on_c, 0, 61, 81
2,118874, Control_c, 0, 64, 105
2,118883, Note_on_c, 0, 70, 0
2,118891, Control_c, 0, 64, 112
2,118912, Control_c, 0, 64, 120
2,118931, Control_c, 0, 64, 127
2,118958, Note_on_c, 0, 49, 0
2,119009, Note_on_c, 0, 61, 0
2,119091, Note_on_c, 0, 60, 81
2,119096, Control_c, 0, 64, 111
2,119116, Control_c, 0, 64, 91
2,119134, Control_c, 0, 64, 72
2,119154, Control_c, 0, 64, 57
2,119172, Control_c, 0, 64, 55
2,119192, Control_c, 0, 64, 59
2,119211, Control_c, 0, 64, 66
2,119229, Control_c, 0, 64, 71
2,119247, Control_c, 0, 64, 74
2,119279, Note_on_c, 0, 58, 75
2,119285, Control_c, 0, 64, 77
2,119307, Control_c, 0, 64, 81
2,119322, Note_on_c, 0, 60, 0
2,119324, Control_c, 0, 64, 88
2,119345, Control_c, 0, 64, 99
2,119364, Control_c, 0, 64, 110
2,119377, Note_on_c, 0, 58, 0
2,119382, Control_c, 0, 64, 115
2,119491, Control_c, 0, 64, 102
2,119510, Control_c, 0, 64, 83
2,119513, Note_on_c, 0, 75, 78
2,119517, Note_on_c, 0, 48, 71
2,119517, Note_on_c, 0, 57, 77
2,119529, Control_c, 0, 64, 58
2,119547, Control_c, 0, 64, 25
2,119566, Control_c, 0, 64, 0
2,119694, Note_on_c, 0, 48, 0
2,119723, Note_on_c, 0, 57, 0
2,119723, Note_on_c, 0, 60, 77
2,119741, Note_on_c, 0, 75, 0
2,119812, Control_c, 0, 64, 11
2,119850, Control_c, 0, 64, 15
2,119957, Note_on_c, 0, 58, 75
2,119958, Note_on_c, 0, 73, 76
2,119960, Note_on_c, 0, 49, 74
2,120002, Note_on_c, 0, 60, 0
2,120145, Note_on_c, 0, 51, 73
2,120228, Note_on_c, 0, 49, 0
2,120301, Control_c, 0, 64, 0
2,120378, Note_on_c, 0, 53, 80
2,120421, Note_on_c, 0, 51, 0
2,120421, Note_on_c, 0, 58, 0
2,120590, Note_on_c, 0, 72, 77
2,120700, Note_on_c, 0, 73, 0
2,120793, Note_on_c, 0, 72, 0
2,120797, Note_on_c, 0, 73, 79
2,120810, Note_on_c, 0, 57, 76
2,120866, Control_c, 0, 64, 36
2,120886, Control_c, 0, 64, 58
2,120919, Control_c, 0, 64, 71
2,120938, Control_c, 0, 64, 81
2,120954, Note_on_c, 0, 57, 0
2,120956, Control_c, 0, 64, 91
2,120977, Control_c, 0, 64, 101
2,120996, Control_c, 0, 64, 110
2,121014, Control_c, 0, 64, 118
2,121032, Control_c, 0, 64, 123
2,121036, Note_on_c, 0, 75, 80
2,121053, Control_c, 0, 64, 127
2,121056, Note_on_c, 0, 73, 0
2,121070, Note_on_c, 0, 65, 0
2,121087, Note_on_c, 0, 75, 0
2,121304, Note_on_c, 0, 41, 78
2,121310, Note_on_c, 0, 63, 77
2,121311, Note_on_c, 0, 69, 79
2,121335, Control_c, 0, 64, 111
2,121354, Control_c, 0, 64, 90
2,121374, Control_c, 0, 64, 65
2,121391, Control_c, 0, 64, 31
2,121411, Control_c, 0, 64, 0
2,121500, Note_on_c, 0, 53, 0
2,121745, Note_on_c, 0, 61, 82
2,121781, Note_on_c, 0, 69, 0
2,121787, Note_on_c, 0, 41, 0
2,121822, Note_on_c, 0, 63, 0
2,121943, Note_on_c, 0, 60, 80
2,121943, Note_on_c, 0, 61, 0
2,122213, Note_on_c, 0, 61, 77
2,122213, Note_on_c, 0, 70, 84
2,122214, Note_on_c, 0, 46, 72
2,122259, Note_on_c, 0, 60, 0
2,122370, Control_c, 0, 64, 12
2,122389, Control_c, 0, 64, 34
2,122409, Control_c, 0, 64, 54
2,122424, Control_c, 0, 64, 67
2,122445, Control_c, 0, 64, 75
2,122463, Control_c, 0, 64, 81
2,122483, Control_c, 0, 64, 87
2,122501, Control_c, 0, 64, 94
2,122521, Control_c, 0, 64, 101
2,122541, Control_c, 0, 64, 108
2,122558, Control_c, 0, 64, 112
2,122558, Note_on_c, 0, 61, 0
2,122596, Control_c, 0, 64, 119
2,122613, Note_on_c, 0, 46, 0
2,122615, Control_c, 0, 64, 124
2,122704, Note_on_c, 0, 66, 75
2,122803, Note_on_c, 0, 70, 0
2,122813, Note_on_c, 0, 66, 0
2,123158, Note_on_c, 0, 68, 81
2,123166, Note_on_c, 0, 65, 76
2,123178, Control_c, 0, 64, 114
2,123196, Control_c, 0, 64, 95
2,123218, Control_c, 0, 64, 70
2,123235, Control_c, 0, 64, 40
2,123254, Control_c, 0, 64, 12
2,123582, Note_on_c, 0, 46, 64
2,123589, Note_on_c, 0, 64, 66
2,123650, Note_on_c, 0, 65, 0
2,124035, Note_on_c, 0, 47, 68
2,124038, Note_on_c, 0, 63, 75
2,124074, Note_on_c, 0, 64, 0
2,124118, Note_on_c, 0, 46, 0
2,124215, Control_c, 0, 64, 27
2,124233, Control_c, 0, 64, 45
2,124253, Control_c, 0, 64, 60
2,124259, Note_on_c, 0, 68, 0
2,124271, Control_c, 0, 64, 67
2,124289, Control_c, 0, 64, 71
2,124308, Control_c, 0, 64, 76
2,124325, Control_c, 0, 64, 84
2,124341, Control_c, 0, 64, 95
2,124359, Control_c, 0, 64, 104
2,124380, Control_c, 0, 64, 108
2,124437, Control_c, 0, 64, 100
2,124452, Note_on_c, 0, 66, 80
2,124455, Control_c, 0, 64, 87
2,124466, Note_on_c, 0, 48, 67
2,124474, Control_c, 0, 64, 69
2,124496, Control_c, 0, 64, 44
2,124501, Note_on_c, 0, 47, 0
2,124512, Control_c, 0, 64, 12
2,124531, Control_c, 0, 64, 0
2,124587, Control_c, 0, 64, 21
2,124607, Control_c, 0, 64, 42
2,124625, Control_c, 0, 64, 60
2,124643, Control_c, 0, 64, 71
2,124663, Control_c, 0, 64, 79
2,124663, Note_on_c, 0, 66, 0
2,124685, Control_c, 0, 64, 85
2,124702, Control_c, 0, 64, 91
2,124721, Control_c, 0, 64, 96
2,124753, Control_c, 0, 64, 101
2,124774, Control_c, 0, 64, 106
2,124791, Control_c, 0, 64, 111
2,124812, Control_c, 0, 64, 115
2,124882, Note_on_c, 0, 50, 59
2,124885, Control_c, 0, 64, 104
2,124903, Note_on_c, 0, 48, 0
2,124904, Note_on_c, 0, 65, 79
2,124905, Control_c, 0, 64, 88
2,124926, Control_c, 0, 64, 67
2,124944, Control_c, 0, 64, 40
2,124953, Note_on_c, 0, 63, 0
2,124962, Control_c, 0, 64, 17
2,125089, Note_on_c, 0, 50, 0
2,125091, Note_on_c, 0, 53, 57
2,125301, Note_on_c, 0, 53, 0
2,125310, Note_on_c, 0, 71, 69
2,125319, Note_on_c, 0, 56, 59
2,125323, Note_on_c, 0, 63, 62
2,125360, Note_on_c, 0, 65, 0
2,125760, Note_on_c, 0, 70, 69
2,125779, Note_on_c, 0, 62, 66
2,125784, Note_on_c, 0, 63, 0
2,125792, Note_on_c, 0, 71, 0
2,126220, Note_on_c, 0, 61, 62
2,126224, Note_on_c, 0, 55, 61
2,126250, Note_on_c, 0, 62, 0
2,126275, Note_on_c, 0, 56, 0
2,126668, Note_on_c, 0, 56, 64
2,126677, Note_on_c, 0, 60, 60
2,126690, Note_on_c, 0, 55, 0
2,126708, Note_on_c, 0, 61, 0
2,126748, Control_c, 0, 64, 25
2,126768, Control_c, 0, 64, 33
2,126786, Control_c, 0, 64, 42
2,126804, Control_c, 0, 64, 51
2,126825, Control_c, 0, 64, 56
2,126882, Control_c, 0, 64, 59
2,126901, Control_c, 0, 64, 60
2,126913, Note_on_c, 0, 60, 0
2,126918, Control_c, 0, 64, 61
2,126938, Control_c, 0, 64, 63
2,126977, Control_c, 0, 64, 62
2,126994, Control_c, 0, 64, 58
2,127014, Control_c, 0, 64, 53
2,127031, Control_c, 0, 64, 48
2,127052, Control_c, 0, 64, 42
2,127070, Control_c, 0, 64, 34
2,127088, Control_c, 0, 64, 23
2,127088, Note_on_c, 0, 50, 57
2,127088, Note_on_c, 0, 68, 66
2,127093, Note_on_c, 0, 59, 66
2,127109, Control_c, 0, 64, 15
2,127141, Note_on_c, 0, 70, 0
2,127201, Note_on_c, 0, 56, 0
2,127235, Note_on_c, 0, 59, 0
2,127350, Note_on_c, 0, 68, 0
2,127535, Note_on_c, 0, 66, 62
2,127536, Note_on_c, 0, 51, 53
2,127539, Note_on_c, 0, 58, 54
2,127612, Note_on_c, 0, 50, 0
2,127755, Note_on_c, 0, 70, 63
2,127817, Note_on_c, 0, 66, 0
2,127923, Note_on_c, 0, 51, 0
2,127974, Note_on_c, 0, 68, 60
2,128046, Note_on_c, 0, 70, 0
2,128178, Note_on_c, 0, 66, 57
2,128241, Note_on_c, 0, 68, 0
2,128403, Note_on_c, 0, 53, 51
2,128406, Note_on_c, 0, 65, 57
2,128418, Note_on_c, 0, 66, 0
2,128617, Note_on_c, 0, 68, 64
2,128662, Note_on_c, 0, 65, 0
2,128788, Note_on_c, 0, 53, 0
2,128843, Note_on_c, 0, 66, 63
2,128915, Note_on_c, 0, 68, 0
2,129049, Note_on_c, 0, 65, 61
2,129122, Note_on_c, 0, 66, 0
2,129261, Note_on_c, 0, 54, 54
2,129274, Note_on_c, 0, 63, 60
2,129294, Note_on_c, 0, 65, 0
2,129477, Note_on_c, 0, 66, 60
2,129569, Note_on_c, 0, 63, 0
2,129582, Note_on_c, 0, 54, 0
2,129711, Note_on_c, 0, 65, 65
2,129906, Note_on_c, 0, 63, 63
2,129928, Note_on_c, 0, 66, 0
2,129948, Note_on_c, 0, 65, 0
2,130115, Note_on_c, 0, 62, 58
2,130133, Note_on_c, 0, 56, 55
2,130146, Note_on_c, 0, 63, 0
2,130228, Note_on_c, 0, 58, 0
2,130266, Note_on_c, 0, 56, 0
2,130330, Note_on_c, 0, 65, 56
2,130344, Note_on_c, 0, 62, 0
2,130552, Control_c, 0, 64, 8
2,130570, Control_c, 0, 64, 0
2,130570, Note_on_c, 0, 63, 58
2,130583, Note_on_c, 0, 54, 46
2,130587, Note_on_c, 0, 58, 46
2,130626, Note_on_c, 0, 65, 0
2,130722, Control_c, 0, 64, 27
2,130742, Control_c, 0, 64, 47
2,130759, Control_c, 0, 64, 65
2,130778, Control_c, 0, 64, 76
2,130798, Control_c, 0, 64, 86
2,130817, Control_c, 0, 64, 96
2,130822, Note_on_c, 0, 63, 0
2,130834, Control_c, 0, 64, 103
2,130853, Control_c, 0, 64, 109
2,130872, Control_c, 0, 64, 113
2,130892, Control_c, 0, 64, 118
2,130910, Control_c, 0, 64, 123
2,131000, Note_on_c, 0, 58, 0
2,131001, Note_on_c, 0, 56, 67
2,131016, Note_on_c, 0, 53, 55
2,131034, Note_on_c, 0, 54, 0
2,131156, Control_c, 0, 64, 116
2,131181, Note_on_c, 0, 53, 0
2,131183, Note_on_c, 0, 58, 60
2,131189, Note_on_c, 0, 54, 62
2,131193, Control_c, 0, 64, 111
2,131242, Note_on_c, 0, 56, 0
2,131347, Note_on_c, 0, 58, 0
2,131402, Control_c, 0, 64, 101
2,131421, Control_c, 0, 64, 89
2,131435, Note_on_c, 0, 56, 61
2,131436, Note_on_c, 0, 62, 72
2,131439, Control_c, 0, 64, 70
2,131451, Note_on_c, 0, 54, 0
2,131472, Control_c, 0, 64, 47
2,131473, Note_on_c, 0, 59, 62
2,131493, Control_c, 0, 64, 22
2,131510, Control_c, 0, 64, 11
2,131530, Control_c, 0, 64, 0
2,131598, Note_on_c, 0, 56, 0
2,131643, Control_c, 0, 64, 19
2,131663, Control_c, 0, 64, 43
2,131682, Control_c, 0, 64, 64
2,131702, Control_c, 0, 64, 77
2,131719, Control_c, 0, 64, 88
2,131737, Control_c, 0, 64, 94
2,131777, Control_c, 0, 64, 98
2,131813, Control_c, 0, 64, 105
2,131865, Note_on_c, 0, 59, 0
2,131904, Note_on_c, 0, 68, 69
2,131907, Control_c, 0, 64, 98
2,131924, Note_on_c, 0, 50, 52
2,131928, Control_c, 0, 64, 86
2,131936, Note_on_c, 0, 53, 46
2,131946, Control_c, 0, 64, 67
2,131963, Control_c, 0, 64, 40
2,131982, Note_on_c, 0, 62, 0
2,131983, Control_c, 0, 64, 0
2,132038, Control_c, 0, 64, 10
2,132049, Note_on_c, 0, 50, 0
2,132058, Control_c, 0, 64, 35
2,132077, Control_c, 0, 64, 53
2,132096, Control_c, 0, 64, 64
2,132115, Control_c, 0, 64, 69
2,132135, Control_c, 0, 64, 72
2,132154, Control_c, 0, 64, 75
2,132173, Control_c, 0, 64, 79
2,132190, Control_c, 0, 64, 84
2,132210, Control_c, 0, 64, 89
2,132230, Control_c, 0, 64, 94
2,132266, Control_c, 0, 64, 100
2,132342, Control_c, 0, 64, 95
2,132350, Note_on_c, 0, 66, 62
2,132356, Note_on_c, 0, 62, 57
2,132361, Control_c, 0, 64, 86
2,132372, Note_on_c, 0, 46, 53
2,132381, Control_c, 0, 64, 71
2,132393, Note_on_c, 0, 68, 0
2,132398, Control_c, 0, 64, 53
2,132432, Control_c, 0, 64, 34
2,132452, Control_c, 0, 64, 24
2,132467, Note_on_c, 0, 62, 0
2,132503, Note_on_c, 0, 53, 0
2,132529, Control_c, 0, 64, 19
2,132568, Note_on_c, 0, 65, 61
2,132630, Note_on_c, 0, 66, 0
2,132791, Note_on_c, 0, 66, 61
2,132796, Note_on_c, 0, 51, 55
2,132799, Note_on_c, 0, 65, 0
2,132801, Note_on_c, 0, 63, 58
2,132831, Note_on_c, 0, 46, 0
2,132981, Note_on_c, 0, 68, 65
2,133007, Note_on_c, 0, 66, 0
2,133216, Note_on_c, 0, 63, 0
2,133234, Note_on_c, 0, 65, 60
2,133236, Note_on_c, 0, 70, 61
2,133237, Note_on_c, 0, 49, 53
2,133249, Note_on_c, 0, 51, 0
2,133266, Note_on_c, 0, 68, 0
2,133675, Note_on_c, 0, 65, 0
2,133686, Note_on_c, 0, 66, 60
2,133691, Note_on_c, 0, 48, 59
2,133698, Note_on_c, 0, 49, 0
2,133871, Note_on_c, 0, 48, 0
2,133879, Note_on_c, 0, 49, 56
2,134095, Note_on_c, 0, 66, 0
2,134111, Note_on_c, 0, 69, 66
2,134116, Note_on_c, 0, 51, 57
2,134122, Note_on_c, 0, 60, 60
2,134146, Note_on_c, 0, 70, 0
2,134211, Note_on_c, 0, 49, 0
2,134261, Note_on_c, 0, 60, 0
2,134298, Note_on_c, 0, 61, 69
2,134299, Note_on_c, 0, 70, 73
2,134304, Note_on_c, 0, 69, 0
2,134400, Note_on_c, 0, 61, 0
2,134517, Note_on_c, 0, 51, 0
2,134523, Control_c, 0, 64, 0
2,134537, Note_on_c, 0, 70, 0
2,134539, Note_on_c, 0, 45, 53
2,134539, Note_on_c, 0, 72, 73
2,134549, Note_on_c, 0, 63, 58
2,134655, Control_c, 0, 64, 13
2,134673, Control_c, 0, 64, 41
2,134684, Note_on_c, 0, 72, 0
2,134691, Control_c, 0, 64, 63
2,134710, Control_c, 0, 64, 74
2,134731, Control_c, 0, 64, 83
2,134732, Note_on_c, 0, 63, 0
2,134736, Note_on_c, 0, 48, 58
2,134738, Note_on_c, 0, 45, 0
2,134751, Control_c, 0, 64, 87
2,134787, Control_c, 0, 64, 94
2,134881, Control_c, 0, 64, 98
2,134941, Note_on_c, 0, 48, 0
2,134957, Note_on_c, 0, 63, 74
2,134967, Note_on_c, 0, 53, 55
2,134974, Control_c, 0, 64, 94
2,134976, Note_on_c, 0, 57, 58
2,134992, Control_c, 0, 64, 87
2,135012, Control_c, 0, 64, 75
2,135031, Control_c, 0, 64, 58
2,135051, Control_c, 0, 64, 36
2,135069, Control_c, 0, 64, 23
2,135143, Control_c, 0, 64, 19
2,135150, Note_on_c, 0, 51, 55
2,135171, Note_on_c, 0, 53, 0
2,135239, Control_c, 0, 64, 15
2,135375, Note_on_c, 0, 49, 60
2,135377, Note_on_c, 0, 57, 0
2,135386, Note_on_c, 0, 58, 64
2,135424, Note_on_c, 0, 51, 0
2,135582, Note_on_c, 0, 58, 0
2,135585, Note_on_c, 0, 60, 68
2,135592, Note_on_c, 0, 53, 54
2,135633, Note_on_c, 0, 49, 0
2,135805, Note_on_c, 0, 53, 0
2,135807, Note_on_c, 0, 63, 0
2,135813, Note_on_c, 0, 61, 76
2,135815, Note_on_c, 0, 58, 49
2,135917, Note_on_c, 0, 60, 0
2,136025, Note_on_c, 0, 56, 53
2,136036, Note_on_c, 0, 58, 0
2,136224, Note_on_c, 0, 70, 65
2,136245, Note_on_c, 0, 56, 0
2,136270, Note_on_c, 0, 54, 53
2,136454, Note_on_c, 0, 54, 0
2,136475, Note_on_c, 0, 53, 49
2,136657, Note_on_c, 0, 53, 0
2,136663, Note_on_c, 0, 51, 53
2,136672, Note_on_c, 0, 60, 56
2,136680, Note_on_c, 0, 61, 0
2,136688, Control_c, 0, 64, 19
2,136709, Control_c, 0, 64, 31
2,136729, Control_c, 0, 64, 41
2,136745, Control_c, 0, 64, 48
2,136783, Control_c, 0, 64, 50
2,136821, Control_c, 0, 64, 54
2,136838, Control_c, 0, 64, 56
2,136839, Note_on_c, 0, 60, 0
2,136865, Note_on_c, 0, 49, 62
2,136867, Note_on_c, 0, 61, 62
2,136877, Control_c, 0, 64, 58
2,136879, Note_on_c, 0, 51, 0
2,136914, Control_c, 0, 64, 62
2,136934, Control_c, 0, 64, 65
2,136952, Control_c, 0, 64, 66
2,136990, Control_c, 0, 64, 62
2,137011, Control_c, 0, 64, 58
2,137028, Control_c, 0, 64, 56
2,137028, Note_on_c, 0, 49, 0
2,137065, Control_c, 0, 64, 52
2,137065, Note_on_c, 0, 48, 53
2,137072, Note_on_c, 0, 61, 0
2,137084, Control_c, 0, 64, 48
2,137095, Note_on_c, 0, 63, 69
2,137104, Control_c, 0, 64, 46
2,137142, Control_c, 0, 64, 48
2,137276, Note_on_c, 0, 48, 0
2,137288, Note_on_c, 0, 49, 55
2,137308, Note_on_c, 0, 70, 0
2,137346, Control_c, 0, 64, 52
2,137421, Control_c, 0, 64, 48
2,137439, Control_c, 0, 64, 43
2,137460, Control_c, 0, 64, 35
2,137474, Note_on_c, 0, 49, 0
2,137476, Control_c, 0, 64, 22
2,137496, Control_c, 0, 64, 0
2,137503, Note_on_c, 0, 68, 68
2,137514, Note_on_c, 0, 51, 35
2,137514, Note_on_c, 0, 53, 53
2,137613, Control_c, 0, 64, 29
2,137630, Control_c, 0, 64, 49
2,137631, Note_on_c, 0, 53, 0
2,137648, Control_c, 0, 64, 65
2,137668, Control_c, 0, 64, 71
2,137687, Control_c, 0, 64, 73
2,137687, Note_on_c, 0, 49, 61
2,137723, Control_c, 0, 64, 76
2,137724, Note_on_c, 0, 51, 0
2,137735, Note_on_c, 0, 49, 0
2,137762, Note_on_c, 0, 63, 0
2,137894, Control_c, 0, 64, 72
2,137914, Control_c, 0, 64, 67
2,137934, Control_c, 0, 64, 60
2,137948, Control_c, 0, 64, 49
2,137953, Note_on_c, 0, 73, 63
2,137961, Note_on_c, 0, 53, 63
2,137968, Control_c, 0, 64, 35
2,137984, Note_on_c, 0, 46, 47
2,137988, Control_c, 0, 64, 21
2,138008, Control_c, 0, 64, 14
2,138016, Note_on_c, 0, 68, 0
2,138063, Control_c, 0, 64, 26
2,138082, Control_c, 0, 64, 46
2,138100, Control_c, 0, 64, 61
2,138109, Control_c, 0, 64, 69
2,138109, Note_on_c, 0, 46, 0
2,138131, Control_c, 0, 64, 71
2,138142, Note_on_c, 0, 53, 0
2,138146, Note_on_c, 0, 65, 55
2,138183, Control_c, 0, 64, 73
2,138203, Control_c, 0, 64, 77
2,138222, Control_c, 0, 64, 83
2,138241, Control_c, 0, 64, 91
2,138260, Control_c, 0, 64, 96
2,138298, Note_on_c, 0, 65, 0
2,138336, Control_c, 0, 64, 91
2,138353, Control_c, 0, 64, 81
2,138372, Control_c, 0, 64, 65
2,138390, Control_c, 0, 64, 40
2,138396, Note_on_c, 0, 55, 51
2,138400, Note_on_c, 0, 48, 52
2,138402, Note_on_c, 0, 70, 63
2,138411, Control_c, 0, 64, 11
2,138431, Control_c, 0, 64, 0
2,138466, Note_on_c, 0, 73, 0
2,138487, Control_c, 0, 64, 25
2,138489, Note_on_c, 0, 55, 0
2,138505, Control_c, 0, 64, 44
2,138522, Control_c, 0, 64, 61
2,138543, Control_c, 0, 64, 71
2,138561, Control_c, 0, 64, 76
2,138582, Control_c, 0, 64, 79
2,138599, Control_c, 0, 64, 81
2,138620, Control_c, 0, 64, 84
2,138639, Control_c, 0, 64, 87
2,138656, Control_c, 0, 64, 91
2,138694, Control_c, 0, 64, 96
2,138788, Control_c, 0, 64, 92
2,138808, Control_c, 0, 64, 84
2,138826, Note_on_c, 0, 72, 69
2,138828, Control_c, 0, 64, 73
2,138838, Note_on_c, 0, 53, 58
2,138847, Control_c, 0, 64, 59
2,138848, Note_on_c, 0, 69, 64
2,138865, Control_c, 0, 64, 42
2,138871, Note_on_c, 0, 70, 0
2,138882, Note_on_c, 0, 69, 0
2,138883, Control_c, 0, 64, 26
2,138901, Control_c, 0, 64, 17
2,138958, Control_c, 0, 64, 24
2,138977, Control_c, 0, 64, 38
2,138995, Control_c, 0, 64, 54
2,139015, Control_c, 0, 64, 64
2,139035, Control_c, 0, 64, 70
2,139047, Note_on_c, 0, 53, 0
2,139049, Control_c, 0, 64, 73
2,139070, Control_c, 0, 64, 75
2,139090, Control_c, 0, 64, 78
2,139108, Control_c, 0, 64, 81
2,139143, Control_c, 0, 64, 86
2,139162, Control_c, 0, 64, 91
2,139257, Control_c, 0, 64, 88
2,139275, Control_c, 0, 64, 79
2,139294, Control_c, 0, 64, 65
2,139295, Note_on_c, 0, 68, 63
2,139308, Note_on_c, 0, 52, 53
2,139309, Control_c, 0, 64, 42
2,139331, Control_c, 0, 64, 16
2,139408, Control_c, 0, 64, 0
2,139724, Note_on_c, 0, 52, 0
2,139733, Note_on_c, 0, 67, 65
2,139743, Note_on_c, 0, 72, 0
2,139771, Note_on_c, 0, 68, 0
2,139786, Control_c, 0, 64, 15
2,139807, Control_c, 0, 64, 29
2,139825, Control_c, 0, 64, 40
2,139842, Control_c, 0, 64, 47
2,139861, Control_c, 0, 64, 49
2,139879, Control_c, 0, 64, 51
2,139900, Control_c, 0, 64, 54
2,140012, Control_c, 0, 64, 50
2,140032, Control_c, 0, 64, 47
2,140051, Control_c, 0, 64, 44
2,140121, Control_c, 0, 64, 47
2,140142, Control_c, 0, 64, 51
2,140158, Note_on_c, 0, 70, 64
2,140160, Control_c, 0, 64, 54
2,140179, Control_c, 0, 64, 58
2,140180, Note_on_c, 0, 52, 55
2,140197, Control_c, 0, 64, 60
2,140217, Control_c, 0, 64, 63
2,140221, Note_on_c, 0, 48, 0
2,140234, Control_c, 0, 64, 65
2,140255, Control_c, 0, 64, 67
2,140260, Note_on_c, 0, 52, 0
2,140292, Control_c, 0, 64, 69
2,140367, Note_on_c, 0, 70, 0
2,140405, Control_c, 0, 64, 67
2,140425, Control_c, 0, 64, 66
2,140442, Control_c, 0, 64, 63
2,140462, Control_c, 0, 64, 61
2,140480, Control_c, 0, 64, 58
2,140499, Control_c, 0, 64, 55
2,140517, Control_c, 0, 64, 50
2,140537, Control_c, 0, 64, 42
2,140555, Control_c, 0, 64, 29
2,140576, Control_c, 0, 64, 14
2,140593, Control_c, 0, 64, 0
2,140629, Note_on_c, 0, 69, 60
2,140633, Note_on_c, 0, 67, 0
2,140639, Note_on_c, 0, 41, 43
2,140666, Note_on_c, 0, 53, 34
2,140708, Control_c, 0, 64, 12
2,140727, Control_c, 0, 64, 40
2,140746, Control_c, 0, 64, 63
2,140752, Note_on_c, 0, 41, 0
2,140764, Control_c, 0, 64, 77
2,140786, Control_c, 0, 64, 88
2,140802, Control_c, 0, 64, 96
2,140839, Control_c, 0, 64, 100
2,141062, Control_c, 0, 64, 94
2,141082, Control_c, 0, 64, 83
2,141089, Note_on_c, 0, 75, 61
2,141101, Note_on_c, 0, 57, 49
2,141102, Control_c, 0, 64, 69
2,141103, Note_on_c, 0, 53, 0
2,141118, Control_c, 0, 64, 51
2,141125, Note_on_c, 0, 66, 38
2,141140, Control_c, 0, 64, 34
2,141156, Control_c, 0, 64, 26
2,141267, Note_on_c, 0, 66, 0
2,141267, Note_on_c, 0, 69, 0
2,141536, Note_on_c, 0, 73, 66
2,141560, Note_on_c, 0, 58, 37
2,141568, Note_on_c, 0, 65, 39
2,141571, Note_on_c, 0, 75, 0
2,141572, Note_on_c, 0, 57, 0
2,141934, Note_on_c, 0, 65, 0
2,141988, Note_on_c, 0, 56, 44
2,141996, Note_on_c, 0, 64, 52
2,142034, Note_on_c, 0, 58, 0
2,142060, Control_c, 0, 64, 22
2,142167, Note_on_c, 0, 56, 0
2,142195, Note_on_c, 0, 55, 50
2,142362, Note_on_c, 0, 64, 0
2,142425, Note_on_c, 0, 73, 0
2,142427, Note_on_c, 0, 55, 0
2,142429, Note_on_c, 0, 63, 55
2,142451, Note_on_c, 0, 56, 44
2,142705, Note_on_c, 0, 63, 0
2,142849, Note_on_c, 0, 71, 57
2,142859, Note_on_c, 0, 54, 45
2,142877, Note_on_c, 0, 62, 49
2,142896, Note_on_c, 0, 56, 0
2,142987, Note_on_c, 0, 62, 0
2,143023, Note_on_c, 0, 71, 0
2,143033, Note_on_c, 0, 54, 0
2,143068, Note_on_c, 0, 53, 49
2,143316, Note_on_c, 0, 70, 56
2,143322, Note_on_c, 0, 54, 33
2,143325, Note_on_c, 0, 61, 40
2,143393, Note_on_c, 0, 53, 0
2,143514, Note_on_c, 0, 73, 60
2,143524, Note_on_c, 0, 54, 0
2,143581, Note_on_c, 0, 70, 0
2,143715, Note_on_c, 0, 71, 53
2,143764, Note_on_c, 0, 73, 0
2,143922, Note_on_c, 0, 70, 57
2,143952, Note_on_c, 0, 71, 0
2,144153, Note_on_c, 0, 68, 55
2,144158, Note_on_c, 0, 70, 0
2,144160, Note_on_c, 0, 53, 52
2,144357, Note_on_c, 0, 71, 53
2,144401, Note_on_c, 0, 68, 0
2,144521, Note_on_c, 0, 53, 0
2,144578, Note_on_c, 0, 70, 64
2,144598, Note_on_c, 0, 71, 0
2,144786, Note_on_c, 0, 68, 61
2,144803, Note_on_c, 0, 70, 0
2,145004, Note_on_c, 0, 51, 56
2,145009, Note_on_c, 0, 66, 61
2,145015, Note_on_c, 0, 68, 0
2,145224, Note_on_c, 0, 70, 61
2,145234, Note_on_c, 0, 66, 0
2,145239, Note_on_c, 0, 61, 0
2,145443, Note_on_c, 0, 68, 63
2,145445, Note_on_c, 0, 59, 55
2,145482, Note_on_c, 0, 51, 0
2,145533, Note_on_c, 0, 70, 0
2,145637, Note_on_c, 0, 66, 64
2,145664, Note_on_c, 0, 68, 0
2,145837, Note_on_c, 0, 66, 0
2,145849, Note_on_c, 0, 65, 61
2,145876, Note_on_c, 0, 49, 57
2,146055, Note_on_c, 0, 68, 62
2,146076, Note_on_c, 0, 65, 0
2,146149, Note_on_c, 0, 59, 0
2,146298, Note_on_c, 0, 66, 59
2,146314, Note_on_c, 0, 58, 49
2,146352, Note_on_c, 0, 68, 0
2,146372, Control_c, 0, 64, 18
2,146496, Note_on_c, 0, 56, 49
2,146556, Note_on_c, 0, 58, 0
2,146728, Control_c, 0, 64, 26
2,146733, Note_on_c, 0, 54, 51
2,146748, Control_c, 0, 64, 35
2,146754, Note_on_c, 0, 66, 0
2,146760, Note_on_c, 0, 56, 0
2,146806, Control_c, 0, 64, 39
2,146841, Control_c, 0, 64, 44
2,146861, Control_c, 0, 64, 52
2,146878, Control_c, 0, 64, 54
2,146899, Control_c, 0, 64, 52
2,146915, Control_c, 0, 64, 50
2,146935, Note_on_c, 0, 58, 60
2,146991, Note_on_c, 0, 54, 0
2,147088, Control_c, 0, 64, 47
2,147105, Control_c, 0, 64, 45
2,147141, Control_c, 0, 64, 43
2,147141, Note_on_c, 0, 65, 69
2,147170, Note_on_c, 0, 56, 51
2,147180, Control_c, 0, 64, 39
2,147225, Note_on_c, 0, 58, 0
2,147274, Control_c, 0, 64, 34
2,147361, Note_on_c, 0, 54, 44
2,147572, Note_on_c, 0, 71, 68
2,147609, Note_on_c, 0, 53, 34
2,147619, Note_on_c, 0, 54, 0
2,147621, Note_on_c, 0, 56, 0
2,147682, Note_on_c, 0, 65, 0
2,147806, Note_on_c, 0, 56, 55
2,147815, Note_on_c, 0, 53, 0
2,147976, Note_on_c, 0, 56, 0
2,148005, Note_on_c, 0, 55, 55
2,148017, Note_on_c, 0, 70, 64
2,148071, Note_on_c, 0, 71, 0
2,148201, Note_on_c, 0, 53, 56
2,148201, Note_on_c, 0, 55, 0
2,148208, Note_on_c, 0, 68, 68
2,148255, Note_on_c, 0, 70, 0
2,148455, Note_on_c, 0, 70, 65
2,148470, Note_on_c, 0, 55, 59
2,148494, Note_on_c, 0, 53, 0
2,148517, Note_on_c, 0, 49, 0
2,148517, Note_on_c, 0, 68, 0
2,148910, Note_on_c, 0, 47, 55
2,148917, Note_on_c, 0, 75, 66
2,149030, Note_on_c, 0, 55, 0
2,149043, Note_on_c, 0, 70, 0
2,149112, Note_on_c, 0, 46, 65
2,149140, Note_on_c, 0, 47, 0
2,149355, Note_on_c, 0, 56, 58
2,149366, Note_on_c, 0, 47, 64
2,149413, Note_on_c, 0, 46, 0
2,149802, Note_on_c, 0, 73, 72
2,149815, Note_on_c, 0, 52, 56
2,149916, Note_on_c, 0, 56, 0
2,149956, Note_on_c, 0, 75, 0
2,149983, Note_on_c, 0, 71, 74
2,149995, Note_on_c, 0, 47, 0
2,150055, Note_on_c, 0, 73, 0
2,150223, Note_on_c, 0, 73, 74
2,150227, Note_on_c, 0, 58, 65
2,150324, Note_on_c, 0, 71, 0
2,150400, Control_c, 0, 64, 39
2,150418, Control_c, 0, 64, 48
2,150437, Control_c, 0, 64, 54
2,150457, Control_c, 0, 64, 57
2,150476, Control_c, 0, 64, 59
2,150493, Control_c, 0, 64, 62
2,150512, Control_c, 0, 64, 66
2,150532, Control_c, 0, 64, 69
2,150648, Note_on_c, 0, 78, 73
2,150697, Control_c, 0, 64, 67
2,150699, Note_on_c, 0, 51, 58
2,150738, Control_c, 0, 64, 66
2,150745, Note_on_c, 0, 73, 0
2,150760, Note_on_c, 0, 52, 0
2,150811, Control_c, 0, 64, 64
2,150849, Note_on_c, 0, 58, 0
2,150866, Note_on_c, 0, 49, 60
2,150888, Note_on_c, 0, 51, 0
2,150906, Control_c, 0, 64, 63
2,150966, Control_c, 0, 64, 64
2,151021, Control_c, 0, 64, 63
2,151041, Control_c, 0, 64, 62
2,151060, Control_c, 0, 64, 59
2,151078, Control_c, 0, 64, 56
2,151095, Control_c, 0, 64, 49
2,151111, Note_on_c, 0, 59, 73
2,151115, Control_c, 0, 64, 42
2,151120, Note_on_c, 0, 51, 52
2,151135, Control_c, 0, 64, 32
2,151154, Control_c, 0, 64, 25
2,151184, Note_on_c, 0, 49, 0
2,151190, Control_c, 0, 64, 17
2,151212, Control_c, 0, 64, 12
2,151229, Control_c, 0, 64, 8
2,151571, Note_on_c, 0, 76, 48
2,151577, Note_on_c, 0, 56, 55
2,151643, Note_on_c, 0, 77, 10
2,151671, Note_on_c, 0, 51, 0
2,151679, Note_on_c, 0, 59, 0
2,151717, Note_on_c, 0, 77, 0
2,151768, Note_on_c, 0, 75, 63
2,151876, Note_on_c, 0, 76, 0
2,151883, Note_on_c, 0, 78, 0
2,151993, Note_on_c, 0, 73, 65
2,152004, Note_on_c, 0, 58, 57
2,152077, Note_on_c, 0, 75, 0
2,152185, Note_on_c, 0, 73, 0
2,152189, Note_on_c, 0, 71, 62
2,152396, Note_on_c, 0, 70, 59
2,152401, Note_on_c, 0, 55, 53
2,152415, Control_c, 0, 64, 12
2,152431, Note_on_c, 0, 71, 0
2,152531, Note_on_c, 0, 56, 0
2,152596, Note_on_c, 0, 55, 0
2,152597, Note_on_c, 0, 53, 55
2,152598, Note_on_c, 0, 68, 64
2,152631, Note_on_c, 0, 70, 0
2,152715, Control_c, 0, 64, 17
2,152852, Note_on_c, 0, 70, 65
2,152866, Note_on_c, 0, 55, 57
2,152875, Note_on_c, 0, 68, 0
2,152896, Note_on_c, 0, 53, 0
2,152902, Control_c, 0, 64, 21
2,152941, Note_on_c, 0, 58, 0
2,152996, Control_c, 0, 64, 26
2,153015, Control_c, 0, 64, 30
2,153092, Control_c, 0, 64, 35
2,153112, Control_c, 0, 64, 41
2,153130, Control_c, 0, 64, 45
2,153206, Control_c, 0, 64, 48
2,153278, Note_on_c, 0, 55, 0
2,153283, Note_on_c, 0, 56, 60
2,153287, Note_on_c, 0, 64, 59
2,153393, Control_c, 0, 64, 50
2,153483, Note_on_c, 0, 56, 0
2,153486, Note_on_c, 0, 58, 52
2,153568, Note_on_c, 0, 58, 0
2,153766, Control_c, 0, 64, 45
2,153766, Note_on_c, 0, 51, 68
2,153786, Control_c, 0, 64, 39
2,153790, Note_on_c, 0, 63, 47
2,153793, Note_on_c, 0, 59, 48
2,153807, Control_c, 0, 64, 34
2,153810, Note_on_c, 0, 64, 0
2,153844, Control_c, 0, 64, 26
2,153882, Control_c, 0, 64, 19
2,154254, Note_on_c, 0, 68, 57
2,154262, Note_on_c, 0, 59, 0
2,154293, Note_on_c, 0, 70, 0
2,154354, Note_on_c, 0, 51, 0
2,154710, Note_on_c, 0, 49, 62
2,154730, Note_on_c, 0, 58, 50
2,155010, Note_on_c, 0, 68, 0
2,155156, Note_on_c, 0, 67, 59
2,155163, Note_on_c, 0, 58, 0
2,155351, Note_on_c, 0, 67, 0
2,155607, Note_on_c, 0, 68, 56
2,155613, Note_on_c, 0, 56, 49
2,155691, Note_on_c, 0, 63, 0
2,155711, Note_on_c, 0, 49, 0
2,156047, Note_on_c, 0, 47, 63
2,156053, Note_on_c, 0, 58, 54
2,156214, Note_on_c, 0, 58, 0
2,156239, Note_on_c, 0, 59, 63
2,156284, Note_on_c, 0, 47, 0
2,156288, Note_on_c, 0, 56, 0
2,156337, Note_on_c, 0, 59, 0
2,156477, Control_c, 0, 64, 0
2,156493, Note_on_c, 0, 46, 71
2,156512, Note_on_c, 0, 61, 67
2,156591, Control_c, 0, 64, 29
2,156610, Control_c, 0, 64, 51
2,156630, Control_c, 0, 64, 65
2,156636, Note_on_c, 0, 61, 0
2,156648, Control_c, 0, 64, 70
2,156669, Control_c, 0, 64, 74
2,156681, Note_on_c, 0, 68, 0
2,156685, Control_c, 0, 64, 79
2,156706, Control_c, 0, 64, 85
2,156724, Control_c, 0, 64, 91
2,156745, Control_c, 0, 64, 96
2,156781, Control_c, 0, 64, 102
2,156818, Control_c, 0, 64, 108
2,156949, Note_on_c, 0, 80, 75
2,156952, Control_c, 0, 64, 98
2,156952, Note_on_c, 0, 52, 59
2,156971, Control_c, 0, 64, 85
2,156975, Note_on_c, 0, 74, 46
2,156989, Control_c, 0, 64, 68
2,157006, Control_c, 0, 64, 46
2,157024, Note_on_c, 0, 46, 0
2,157028, Control_c, 0, 64, 28
2,157102, Control_c, 0, 64, 47
2,157120, Control_c, 0, 64, 61
2,157136, Note_on_c, 0, 80, 0
2,157140, Control_c, 0, 64, 67
2,157178, Control_c, 0, 64, 70
2,157199, Control_c, 0, 64, 72
2,157216, Control_c, 0, 64, 76
2,157216, Note_on_c, 0, 51, 42
2,157233, Control_c, 0, 64, 81
2,157254, Control_c, 0, 64, 85
2,157265, Note_on_c, 0, 52, 0
2,157328, Control_c, 0, 64, 79
2,157348, Control_c, 0, 64, 75
2,157365, Control_c, 0, 64, 72
2,157372, Note_on_c, 0, 79, 67
2,157410, Note_on_c, 0, 75, 61
2,157414, Note_on_c, 0, 74, 0
2,157420, Control_c, 0, 64, 74
2,157440, Control_c, 0, 64, 80
2,157458, Control_c, 0, 64, 87
2,157476, Control_c, 0, 64, 93
2,157514, Control_c, 0, 64, 97
2,157534, Note_on_c, 0, 79, 0
2,157550, Control_c, 0, 64, 102
2,157564, Note_on_c, 0, 78, 19
2,157600, Note_on_c, 0, 75, 0
2,157622, Note_on_c, 0, 78, 0
2,157666, Control_c, 0, 64, 107
2,157741, Control_c, 0, 64, 101
2,157759, Control_c, 0, 64, 92
2,157780, Control_c, 0, 64, 78
2,157797, Control_c, 0, 64, 61
2,157804, Control_c, 0, 64, 42
2,157809, Note_on_c, 0, 78, 68
2,157822, Control_c, 0, 64, 25
2,157827, Note_on_c, 0, 75, 59
2,157828, Note_on_c, 0, 63, 58
2,157843, Control_c, 0, 64, 11
2,157864, Control_c, 0, 64, 0
2,157921, Control_c, 0, 64, 20
2,157937, Control_c, 0, 64, 48
2,157957, Control_c, 0, 64, 69
2,157973, Note_on_c, 0, 78, 0
2,157975, Control_c, 0, 64, 82
2,157995, Control_c, 0, 64, 91
2,158013, Control_c, 0, 64, 98
2,158014, Note_on_c, 0, 63, 0
2,158021, Note_on_c, 0, 75, 0
2,158032, Control_c, 0, 64, 106
2,158050, Control_c, 0, 64, 116
2,158074, Control_c, 0, 64, 127
2,158186, Control_c, 0, 64, 121
2,158205, Control_c, 0, 64, 102
2,158224, Control_c, 0, 64, 78
2,158230, Note_on_c, 0, 77, 74
2,158239, Note_on_c, 0, 65, 57
2,158243, Control_c, 0, 64, 55
2,158247, Note_on_c, 0, 73, 50
2,158260, Control_c, 0, 64, 48
2,158266, Note_on_c, 0, 65, 0
2,158280, Control_c, 0, 64, 56
2,158299, Control_c, 0, 64, 72
2,158300, Note_on_c, 0, 51, 0
2,158319, Control_c, 0, 64, 87
2,158353, Control_c, 0, 64, 102
2,158373, Control_c, 0, 64, 107
2,158374, Note_on_c, 0, 77, 0
2,158427, Control_c, 0, 64, 113
2,158447, Control_c, 0, 64, 117
2,158456, Note_on_c, 0, 73, 0
2,158465, Control_c, 0, 64, 122
2,158483, Note_on_c, 0, 71, 40
2,158503, Control_c, 0, 64, 127
2,158599, Control_c, 0, 64, 114
2,158618, Control_c, 0, 64, 100
2,158637, Control_c, 0, 64, 81
2,158652, Note_on_c, 0, 49, 67
2,158654, Control_c, 0, 64, 58
2,158659, Note_on_c, 0, 67, 64
2,158663, Note_on_c, 0, 76, 70
2,158666, Note_on_c, 0, 71, 0
2,158674, Control_c, 0, 64, 30
2,158693, Control_c, 0, 64, 13
2,158746, Control_c, 0, 64, 27
2,158768, Control_c, 0, 64, 51
2,158773, Note_on_c, 0, 67, 0
2,158786, Control_c, 0, 64, 68
2,158804, Note_on_c, 0, 76, 0
2,158805, Control_c, 0, 64, 77
2,158825, Control_c, 0, 64, 85
2,158844, Control_c, 0, 64, 92
2,158845, Note_on_c, 0, 49, 0
2,158863, Control_c, 0, 64, 100
2,158868, Note_on_c, 0, 71, 48
2,158883, Control_c, 0, 64, 109
2,158900, Control_c, 0, 64, 113
2,158906, Note_on_c, 0, 71, 0
2,158958, Control_c, 0, 64, 117
2,158995, Control_c, 0, 64, 123
2,159033, Control_c, 0, 64, 127
2,159108, Note_on_c, 0, 47, 62
2,159109, Note_on_c, 0, 71, 47
2,159109, Note_on_c, 0, 75, 74
2,159127, Control_c, 0, 64, 115
2,159129, Note_on_c, 0, 68, 46
2,159145, Control_c, 0, 64, 102
2,159165, Control_c, 0, 64, 84
2,159184, Control_c, 0, 64, 62
2,159203, Control_c, 0, 64, 39
2,159220, Control_c, 0, 64, 27
2,159329, Note_on_c, 0, 51, 55
2,159353, Note_on_c, 0, 47, 0
2,159438, Note_on_c, 0, 68, 0
2,159455, Note_on_c, 0, 71, 0
2,159526, Note_on_c, 0, 49, 63
2,159530, Note_on_c, 0, 51, 0
2,159735, Note_on_c, 0, 47, 61
2,159786, Note_on_c, 0, 49, 0
2,159963, Note_on_c, 0, 73, 65
2,159975, Note_on_c, 0, 46, 62
2,159975, Note_on_c, 0, 67, 53
2,159983, Note_on_c, 0, 47, 0
2,160163, Note_on_c, 0, 49, 57
2,160181, Note_on_c, 0, 46, 0
2,160187, Note_on_c, 0, 67, 0
2,160292, Note_on_c, 0, 73, 0
2,160392, Note_on_c, 0, 47, 63
2,160401, Note_on_c, 0, 49, 0
2,160601, Note_on_c, 0, 46, 63
2,160627, Note_on_c, 0, 47, 0
2,160798, Note_on_c, 0, 71, 64
2,160810, Note_on_c, 0, 68, 56
2,160832, Note_on_c, 0, 44, 58
2,160874, Note_on_c, 0, 46, 0
2,161041, Note_on_c, 0, 47, 53
2,161070, Note_on_c, 0, 44, 0
2,161119, Note_on_c, 0, 68, 0
2,161142, Control_c, 0, 64, 31
2,161200, Control_c, 0, 64, 35
2,161206, Note_on_c, 0, 71, 0
2,161246, Note_on_c, 0, 46, 64
2,161256, Note_on_c, 0, 47, 0
2,161450, Note_on_c, 0, 44, 60
2,161490, Note_on_c, 0, 46, 0
2,161666, Note_on_c, 0, 70, 60
2,161676, Note_on_c, 0, 43, 60
2,161677, Note_on_c, 0, 63, 60
2,161678, Note_on_c, 0, 44, 0
2,161885, Note_on_c, 0, 46, 59
2,161886, Note_on_c, 0, 63, 0
2,161912, Note_on_c, 0, 43, 0
2,161920, Note_on_c, 0, 70, 0
2,162116, Note_on_c, 0, 73, 67
2,162129, Note_on_c, 0, 44, 57
2,162193, Note_on_c, 0, 46, 0
2,162322, Note_on_c, 0, 71, 69
2,162344, Note_on_c, 0, 75, 0
2,162358, Note_on_c, 0, 73, 0
2,162543, Note_on_c, 0, 73, 66
2,162596, Note_on_c, 0, 44, 0
2,162599, Note_on_c, 0, 71, 0
2,162746, Note_on_c, 0, 76, 66
2,162800, Note_on_c, 0, 73, 0
2,162954, Note_on_c, 0, 43, 61
2,162967, Note_on_c, 0, 75, 60
2,163033, Note_on_c, 0, 76, 0
2,163178, Note_on_c, 0, 73, 64
2,163212, Note_on_c, 0, 75, 0
2,163384, Note_on_c, 0, 73, 0
2,163402, Note_on_c, 0, 71, 68
2,163408, Note_on_c, 0, 64, 55
2,163412, Note_on_c, 0, 49, 53
2,163593, Note_on_c, 0, 70, 64
2,163638, Note_on_c, 0, 71, 0
2,163660, Note_on_c, 0, 43, 0
2,163807, Note_on_c, 0, 68, 60
2,163826, Note_on_c, 0, 47, 52
2,163877, Note_on_c, 0, 49, 0
2,163898, Note_on_c, 0, 70, 0
2,163995, Note_on_c, 0, 67, 65
2,164005, Note_on_c, 0, 46, 55
2,164011, Note_on_c, 0, 47, 0
2,164022, Note_on_c, 0, 68, 0
2,164255, Note_on_c, 0, 47, 58
2,164255, Note_on_c, 0, 67, 0
2,164263, Note_on_c, 0, 68, 58
2,164284, Note_on_c, 0, 46, 0
2,164410, Control_c, 0, 64, 31
2,164688, Note_on_c, 0, 47, 0
2,164698, Note_on_c, 0, 63, 54
2,164720, Note_on_c, 0, 59, 44
2,164728, Note_on_c, 0, 64, 0
2,164889, Note_on_c, 0, 61, 57
2,164901, Note_on_c, 0, 58, 53
2,164910, Note_on_c, 0, 63, 0
2,164916, Note_on_c, 0, 59, 0
2,165141, Note_on_c, 0, 63, 58
2,165143, Note_on_c, 0, 59, 59
2,165144, Note_on_c, 0, 61, 0
2,165181, Note_on_c, 0, 58, 0
2,165315, Note_on_c, 0, 63, 0
2,165328, Note_on_c, 0, 65, 62
2,165559, Note_on_c, 0, 66, 63
2,165562, Note_on_c, 0, 63, 61
2,165606, Note_on_c, 0, 65, 0
2,165674, Note_on_c, 0, 59, 0
2,165999, Note_on_c, 0, 60, 69
2,166183, Note_on_c, 0, 63, 0
2,166438, Note_on_c, 0, 65, 62
2,166450, Note_on_c, 0, 56, 61
2,166570, Note_on_c, 0, 60, 0
2,166629, Note_on_c, 0, 63, 69
2,166635, Note_on_c, 0, 65, 0
2,166867, Note_on_c, 0, 65, 62
2,166868, Note_on_c, 0, 66, 0
2,166869, Note_on_c, 0, 68, 0
2,166880, Note_on_c, 0, 61, 64
2,166883, Note_on_c, 0, 63, 0
2,166954, Note_on_c, 0, 56, 0
2,167081, Note_on_c, 0, 70, 61
2,167293, Note_on_c, 0, 68, 64
2,167298, Note_on_c, 0, 56, 61
2,167348, Note_on_c, 0, 70, 0
2,167384, Note_on_c, 0, 61, 0
2,167474, Note_on_c, 0, 66, 64
2,167534, Note_on_c, 0, 68, 0
2,167702, Note_on_c, 0, 53, 58
2,167704, Note_on_c, 0, 68, 66
2,167765, Note_on_c, 0, 56, 0
2,167782, Note_on_c, 0, 66, 0
2,167894, Note_on_c, 0, 70, 69
2,167988, Note_on_c, 0, 68, 0
2,168146, Note_on_c, 0, 71, 70
2,168150, Note_on_c, 0, 49, 57
2,168205, Note_on_c, 0, 53, 0
2,168208, Note_on_c, 0, 70, 0
2,168560, Note_on_c, 0, 53, 61
2,168586, Note_on_c, 0, 49, 0
2,169010, Note_on_c, 0, 56, 59
2,169013, Note_on_c, 0, 70, 69
2,169104, Note_on_c, 0, 53, 0
2,169117, Note_on_c, 0, 71, 0
2,169205, Note_on_c, 0, 68, 64
2,169267, Note_on_c, 0, 70, 0
2,169435, Note_on_c, 0, 70, 62
2,169443, Note_on_c, 0, 50, 63
2,169456, Control_c, 0, 64, 36
2,169476, Control_c, 0, 64, 45
2,169494, Control_c, 0, 64, 56
2,169511, Note_on_c, 0, 56, 0
2,169514, Control_c, 0, 64, 62
2,169520, Note_on_c, 0, 65, 0
2,169521, Note_on_c, 0, 68, 0
2,169531, Control_c, 0, 64, 66
2,169551, Control_c, 0, 64, 69
2,169571, Control_c, 0, 64, 75
2,169589, Control_c, 0, 64, 86
2,169607, Note_on_c, 0, 50, 0
2,169608, Control_c, 0, 64, 97
2,169626, Control_c, 0, 64, 101
2,169643, Note_on_c, 0, 66, 66
2,169836, Control_c, 0, 64, 97
2,169859, Note_on_c, 0, 62, 78
2,169866, Note_on_c, 0, 65, 66
2,169869, Control_c, 0, 64, 91
2,169874, Note_on_c, 0, 66, 0
2,169886, Control_c, 0, 64, 81
2,169906, Control_c, 0, 64, 70
2,169925, Control_c, 0, 64, 58
2,169944, Control_c, 0, 64, 48
2,169962, Control_c, 0, 64, 44
2,170045, Note_on_c, 0, 60, 80
2,170052, Note_on_c, 0, 63, 69
2,170056, Note_on_c, 0, 62, 0
2,170069, Note_on_c, 0, 65, 0
2,170264, Note_on_c, 0, 63, 0
2,170269, Note_on_c, 0, 65, 71
2,170283, Note_on_c, 0, 62, 78
2,170310, Note_on_c, 0, 60, 0
2,170456, Note_on_c, 0, 66, 75
2,170480, Note_on_c, 0, 65, 0
2,170691, Note_on_c, 0, 68, 72
2,170706, Note_on_c, 0, 65, 66
2,170714, Note_on_c, 0, 66, 0
2,170732, Note_on_c, 0, 62, 0
2,171132, Note_on_c, 0, 62, 72
2,171212, Note_on_c, 0, 65, 0
2,171395, Control_c, 0, 64, 47
2,171470, Control_c, 0, 64, 49
2,171488, Control_c, 0, 64, 51
2,171550, Note_on_c, 0, 58, 59
2,171560, Note_on_c, 0, 66, 73
2,171562, Control_c, 0, 64, 53
2,171583, Control_c, 0, 64, 55
2,171603, Control_c, 0, 64, 58
2,171610, Note_on_c, 0, 62, 0
2,171620, Control_c, 0, 64, 61
2,171640, Control_c, 0, 64, 64
2,171659, Control_c, 0, 64, 66
2,171679, Control_c, 0, 64, 69
2,171695, Control_c, 0, 64, 73
2,171715, Control_c, 0, 64, 79
2,171734, Control_c, 0, 64, 87
2,171742, Note_on_c, 0, 65, 69
2,171754, Control_c, 0, 64, 97
2,171786, Control_c, 0, 64, 106
2,171795, Note_on_c, 0, 66, 0
2,171805, Control_c, 0, 64, 110
2,171815, Note_on_c, 0, 58, 0
2,171825, Note_on_c, 0, 65, 0
2,171902, Control_c, 0, 64, 114
2,171990, Note_on_c, 0, 68, 0
2,171999, Note_on_c, 0, 70, 0
2,172004, Note_on_c, 0, 66, 76
2,172011, Note_on_c, 0, 63, 80
2,172110, Control_c, 0, 64, 110
2,172146, Control_c, 0, 64, 100
2,172166, Control_c, 0, 64, 86
2,172185, Control_c, 0, 64, 71
2,172195, Note_on_c, 0, 72, 70
2,172204, Control_c, 0, 64, 57
2,172222, Control_c, 0, 64, 49
2,172240, Control_c, 0, 64, 47
2,172414, Note_on_c, 0, 70, 68
2,172415, Note_on_c, 0, 51, 69
2,172444, Note_on_c, 0, 72, 0
2,172539, Note_on_c, 0, 63, 0
2,172596, Note_on_c, 0, 69, 74
2,172627, Note_on_c, 0, 70, 0
2,172838, Note_on_c, 0, 70, 74
2,172839, Note_on_c, 0, 54, 70
2,172886, Note_on_c, 0, 69, 0
2,172937, Note_on_c, 0, 51, 0
2,173020, Note_on_c, 0, 72, 77
2,173089, Note_on_c, 0, 70, 0
2,173240, Note_on_c, 0, 73, 79
2,173255, Note_on_c, 0, 58, 75
2,173276, Note_on_c, 0, 72, 0
2,173313, Note_on_c, 0, 54, 0
2,173687, Note_on_c, 0, 51, 73
2,173764, Control_c, 0, 64, 49
2,173782, Note_on_c, 0, 58, 0
2,173802, Control_c, 0, 64, 51
2,173820, Control_c, 0, 64, 53
2,173858, Control_c, 0, 64, 56
2,173877, Control_c, 0, 64, 59
2,173895, Control_c, 0, 64, 62
2,173916, Control_c, 0, 64, 64
2,173933, Control_c, 0, 64, 66
2,173952, Control_c, 0, 64, 67
2,173970, Control_c, 0, 64, 69
2,173989, Control_c, 0, 64, 72
2,174009, Control_c, 0, 64, 76
2,174027, Control_c, 0, 64, 80
2,174047, Control_c, 0, 64, 83
2,174066, Control_c, 0, 64, 86
2,174084, Control_c, 0, 64, 90
2,174103, Control_c, 0, 64, 95
2,174122, Control_c, 0, 64, 100
2,174125, Note_on_c, 0, 72, 79
2,174134, Note_on_c, 0, 54, 72
2,174140, Control_c, 0, 64, 105
2,174177, Control_c, 0, 64, 111
2,174189, Note_on_c, 0, 73, 0
2,174201, Note_on_c, 0, 51, 0
2,174235, Control_c, 0, 64, 115
2,174249, Note_on_c, 0, 54, 0
2,174313, Note_on_c, 0, 70, 81
2,174368, Note_on_c, 0, 72, 0
2,174499, Control_c, 0, 64, 111
2,174519, Control_c, 0, 64, 102
2,174537, Control_c, 0, 64, 87
2,174546, Note_on_c, 0, 45, 85
2,174553, Note_on_c, 0, 72, 67
2,174558, Control_c, 0, 64, 67
2,174574, Control_c, 0, 64, 42
2,174594, Control_c, 0, 64, 16
2,174612, Control_c, 0, 64, 11
2,174662, Note_on_c, 0, 70, 0
2,174683, Control_c, 0, 64, 35
2,174704, Control_c, 0, 64, 57
2,174722, Control_c, 0, 64, 69
2,174735, Note_on_c, 0, 45, 0
2,174740, Control_c, 0, 64, 74
2,174772, Note_on_c, 0, 73, 76
2,174780, Control_c, 0, 64, 77
2,174814, Note_on_c, 0, 72, 0
2,174818, Control_c, 0, 64, 83
2,174836, Control_c, 0, 64, 90
2,174855, Control_c, 0, 64, 97
2,174875, Control_c, 0, 64, 102
2,174950, Control_c, 0, 64, 94
2,174967, Control_c, 0, 64, 83
2,174985, Note_on_c, 0, 57, 91
2,174988, Control_c, 0, 64, 69
2,174993, Note_on_c, 0, 72, 72
2,175007, Control_c, 0, 64, 51
2,175026, Control_c, 0, 64, 32
2,175046, Note_on_c, 0, 73, 0
2,175062, Control_c, 0, 64, 0
2,175175, Control_c, 0, 64, 33
2,175179, Note_on_c, 0, 70, 80
2,175194, Control_c, 0, 64, 55
2,175214, Control_c, 0, 64, 69
2,175216, Note_on_c, 0, 72, 0
2,175230, Note_on_c, 0, 66, 0
2,175232, Control_c, 0, 64, 76
2,175252, Control_c, 0, 64, 83
2,175272, Control_c, 0, 64, 91
2,175290, Control_c, 0, 64, 100
2,175310, Control_c, 0, 64, 107
2,175408, Note_on_c, 0, 72, 80
2,175411, Note_on_c, 0, 65, 81
2,175456, Note_on_c, 0, 70, 0
2,175572, Control_c, 0, 64, 100
2,175596, Note_on_c, 0, 58, 78
2,175596, Note_on_c, 0, 73, 80
2,175625, Control_c, 0, 64, 95
2,175634, Note_on_c, 0, 57, 0
2,175654, Note_on_c, 0, 72, 0
2,175662, Control_c, 0, 64, 91
2,175804, Note_on_c, 0, 75, 83
2,175809, Control_c, 0, 64, 84
2,175816, Note_on_c, 0, 57, 74
2,175828, Note_on_c, 0, 58, 0
2,175831, Control_c, 0, 64, 71
2,175849, Control_c, 0, 64, 49
2,175856, Note_on_c, 0, 73, 0
2,175868, Control_c, 0, 64, 11
2,175887, Control_c, 0, 64, 0
2,176013, Note_on_c, 0, 55, 83
2,176028, Note_on_c, 0, 57, 0
2,176253, Note_on_c, 0, 57, 88
2,176283, Note_on_c, 0, 55, 0
2,176291, Note_on_c, 0, 65, 0
2,176474, Control_c, 0, 64, 21
2,176492, Control_c, 0, 64, 33
2,176510, Control_c, 0, 64, 47
2,176529, Control_c, 0, 64, 52
2,176697, Control_c, 0, 64, 54
2,176702, Note_on_c, 0, 53, 72
2,176713, Note_on_c, 0, 73, 79
2,176716, Control_c, 0, 64, 57
2,176716, Note_on_c, 0, 69, 72
2,176735, Control_c, 0, 64, 61
2,176751, Control_c, 0, 64, 67
2,176772, Control_c, 0, 64, 73
2,176773, Note_on_c, 0, 57, 0
2,176791, Control_c, 0, 64, 80
2,176798, Note_on_c, 0, 53, 0
2,176812, Control_c, 0, 64, 86
2,176827, Control_c, 0, 64, 92
2,176839, Note_on_c, 0, 75, 0
2,176845, Control_c, 0, 64, 98
2,176865, Control_c, 0, 64, 103
2,176901, Note_on_c, 0, 72, 77
2,176927, Note_on_c, 0, 73, 0
2,176962, Control_c, 0, 64, 107
2,176973, Note_on_c, 0, 72, 0
2,177224, Control_c, 0, 64, 100
2,177234, Note_on_c, 0, 65, 96
2,177234, Note_on_c, 0, 73, 72
2,177243, Control_c, 0, 64, 90
2,177245, Note_on_c, 0, 58, 80
2,177246, Note_on_c, 0, 70, 67
2,177263, Control_c, 0, 64, 77
2,177264, Note_on_c, 0, 69, 0
2,177281, Control_c, 0, 64, 61
2,177300, Control_c, 0, 64, 43
2,177319, Control_c, 0, 64, 24
2,177338, Control_c, 0, 64, 13
2,177357, Control_c, 0, 64, 8
2,177376, Control_c, 0, 64, 0
2,177449, Note_on_c, 0, 70, 0
2,177465, Note_on_c, 0, 72, 66
2,177470, Note_on_c, 0, 73, 0
2,177542, Control_c, 0, 64, 27
2,177559, Control_c, 0, 64, 46
2,177580, Control_c, 0, 64, 62
2,177599, Control_c, 0, 64, 71
2,177618, Control_c, 0, 64, 76
2,177636, Control_c, 0, 64, 81
2,177658, Control_c, 0, 64, 88
2,177675, Control_c, 0, 64, 96
2,177694, Control_c, 0, 64, 104
2,177712, Control_c, 0, 64, 108
2,177737, Note_on_c, 0, 73, 81
2,177750, Control_c, 0, 64, 115
2,177768, Control_c, 0, 64, 120
2,177777, Note_on_c, 0, 65, 0
2,177788, Control_c, 0, 64, 126
2,178190, Note_on_c, 0, 78, 92
2,178214, Note_on_c, 0, 63, 72
2,178225, Note_on_c, 0, 73, 0
2,178302, Note_on_c, 0, 72, 0
2,178383, Note_on_c, 0, 58, 0
2,178391, Note_on_c, 0, 60, 69
2,178579, Control_c, 0, 64, 115
2,178598, Control_c, 0, 64, 101
2,178614, Note_on_c, 0, 58, 72
2,178618, Control_c, 0, 64, 85
2,178618, Note_on_c, 0, 72, 78
2,178636, Control_c, 0, 64, 74
2,178636, Note_on_c, 0, 60, 0
2,178656, Control_c, 0, 64, 70
2,178674, Control_c, 0, 64, 74
2,178693, Control_c, 0, 64, 83
2,178712, Control_c, 0, 64, 93
2,178731, Control_c, 0, 64, 100
2,178733, Note_on_c, 0, 78, 0
2,178787, Control_c, 0, 64, 104
2,178802, Note_on_c, 0, 57, 76
2,178808, Note_on_c, 0, 58, 0
2,178938, Control_c, 0, 64, 111
2,178956, Control_c, 0, 64, 115
2,179032, Control_c, 0, 64, 111
2,179046, Note_on_c, 0, 77, 82
2,179050, Control_c, 0, 64, 100
2,179057, Note_on_c, 0, 58, 80
2,179068, Note_on_c, 0, 73, 73
2,179070, Control_c, 0, 64, 86
2,179090, Control_c, 0, 64, 69
2,179100, Note_on_c, 0, 72, 0
2,179108, Note_on_c, 0, 63, 0
2,179111, Control_c, 0, 64, 51
2,179111, Note_on_c, 0, 57, 0
2,179128, Control_c, 0, 64, 40
2,179355, Control_c, 0, 64, 44
2,179372, Control_c, 0, 64, 46
2,179409, Control_c, 0, 64, 44
2,179499, Control_c, 0, 64, 42
2,179502, Note_on_c, 0, 61, 87
2,179507, Note_on_c, 0, 65, 76
2,179519, Control_c, 0, 64, 40
2,179577, Control_c, 0, 64, 49
2,179598, Control_c, 0, 64, 57
2,179615, Control_c, 0, 64, 61
2,179632, Control_c, 0, 64, 67
2,179635, Note_on_c, 0, 65, 0
2,179653, Control_c, 0, 64, 75
2,179671, Control_c, 0, 64, 86
2,179675, Note_on_c, 0, 73, 0
2,179690, Control_c, 0, 64, 98
2,179707, Control_c, 0, 64, 106
2,179712, Note_on_c, 0, 61, 0
2,179748, Control_c, 0, 64, 110
2,179784, Control_c, 0, 64, 116
2,179805, Control_c, 0, 64, 123
2,179823, Control_c, 0, 64, 127
2,179898, Control_c, 0, 64, 121
2,179916, Control_c, 0, 64, 102
2,179927, Note_on_c, 0, 63, 86
2,179933, Control_c, 0, 64, 76
2,179936, Note_on_c, 0, 60, 79
2,179953, Control_c, 0, 64, 48
2,179973, Control_c, 0, 64, 29
2,179981, Note_on_c, 0, 58, 0
2,180007, Note_on_c, 0, 60, 0
2,180009, Control_c, 0, 64, 51
2,180030, Control_c, 0, 64, 76
2,180049, Control_c, 0, 64, 100
2,180068, Control_c, 0, 64, 125
2,180099, Note_on_c, 0, 77, 0
2,180100, Note_on_c, 0, 63, 0
2,180129, Note_on_c, 0, 60, 80
2,180317, Note_on_c, 0, 75, 88
2,180332, Control_c, 0, 64, 104
2,180336, Note_on_c, 0, 72, 80
2,180337, Note_on_c, 0, 58, 75
2,180350, Control_c, 0, 64, 76
2,180351, Note_on_c, 0, 66, 75
2,180369, Control_c, 0, 64, 45
2,180387, Note_on_c, 0, 60, 0
2,180388, Control_c, 0, 64, 13
2,180422, Control_c, 0, 64, 8
2,180460, Control_c, 0, 64, 21
2,180479, Control_c, 0, 64, 47
2,180494, Note_on_c, 0, 66, 0
2,180498, Control_c, 0, 64, 70
2,180502, Note_on_c, 0, 72, 0
2,180518, Control_c, 0, 64, 88
2,180528, Note_on_c, 0, 58, 0
2,180536, Control_c, 0, 64, 105
2,180538, Note_on_c, 0, 75, 0
2,180542, Note_on_c, 0, 57, 70
2,180557, Control_c, 0, 64, 114
2,180592, Control_c, 0, 64, 120
2,180631, Control_c, 0, 64, 125
2,180792, Note_on_c, 0, 58, 71
2,180793, Note_on_c, 0, 74, 86
2,180802, Control_c, 0, 64, 114
2,180802, Note_on_c, 0, 70, 79
2,180806, Note_on_c, 0, 65, 79
2,180820, Control_c, 0, 64, 89
2,180839, Control_c, 0, 64, 59
2,180844, Note_on_c, 0, 57, 0
2,180858, Control_c, 0, 64, 17
2,180876, Control_c, 0, 64, 0
2,180950, Control_c, 0, 64, 11
2,180970, Control_c, 0, 64, 37
2,180989, Control_c, 0, 64, 58
2,180993, Note_on_c, 0, 74, 0
2,181008, Control_c, 0, 64, 72
2,181028, Control_c, 0, 64, 84
2,181047, Control_c, 0, 64, 96
2,181065, Control_c, 0, 64, 106
2,181083, Control_c, 0, 64, 115
2,181103, Control_c, 0, 64, 123
2,181121, Control_c, 0, 64, 127
2,181235, Note_on_c, 0, 80, 85
2,181255, Note_on_c, 0, 74, 73
2,181324, Note_on_c, 0, 81, 51
2,181356, Note_on_c, 0, 70, 0
2,181359, Note_on_c, 0, 81, 0
2,181400, Note_on_c, 0, 74, 0
2,181415, Note_on_c, 0, 80, 0
2,181684, Control_c, 0, 64, 120
2,181685, Note_on_c, 0, 78, 85
2,181699, Note_on_c, 0, 75, 77
2,181703, Control_c, 0, 64, 101
2,181722, Control_c, 0, 64, 78
2,181743, Control_c, 0, 64, 53
2,181760, Control_c, 0, 64, 36
2,181797, Control_c, 0, 64, 41
2,181814, Note_on_c, 0, 65, 0
2,181817, Control_c, 0, 64, 59
2,181835, Control_c, 0, 64, 72
2,181854, Control_c, 0, 64, 84
2,181872, Control_c, 0, 64, 95
2,181873, Note_on_c, 0, 60, 70
2,181893, Control_c, 0, 64, 103
2,181893, Note_on_c, 0, 58, 0
2,181911, Control_c, 0, 64, 112
2,181930, Control_c, 0, 64, 121
2,181949, Control_c, 0, 64, 127
2,182078, Note_on_c, 0, 75, 0
2,182079, Note_on_c, 0, 72, 81
2,182080, Control_c, 0, 64, 111
2,182081, Note_on_c, 0, 58, 67
2,182095, Note_on_c, 0, 63, 74
2,182099, Control_c, 0, 64, 86
2,182115, Note_on_c, 0, 60, 0
2,182118, Control_c, 0, 64, 60
2,182139, Control_c, 0, 64, 33
2,182158, Control_c, 0, 64, 25
2,182268, Note_on_c, 0, 58, 0
2,182282, Note_on_c, 0, 57, 72
2,182293, Note_on_c, 0, 63, 0
2,182512, Note_on_c, 0, 61, 76
2,182514, Note_on_c, 0, 58, 72
2,182545, Note_on_c, 0, 57, 0
2,182551, Control_c, 0, 64, 33
2,182569, Control_c, 0, 64, 46
2,182588, Control_c, 0, 64, 56
2,182608, Control_c, 0, 64, 58
2,182681, Note_on_c, 0, 72, 0
2,182685, Note_on_c, 0, 78, 0
2,182706, Note_on_c, 0, 65, 74
2,182720, Note_on_c, 0, 69, 72
2,182725, Note_on_c, 0, 61, 0
2,182797, Control_c, 0, 64, 52
2,182815, Control_c, 0, 64, 45
2,182834, Control_c, 0, 64, 39
2,182853, Control_c, 0, 64, 34
2,182873, Control_c, 0, 64, 24
2,182892, Control_c, 0, 64, 9
2,182911, Control_c, 0, 64, 0
2,182918, Note_on_c, 0, 77, 85
2,182920, Note_on_c, 0, 65, 0
2,182928, Note_on_c, 0, 63, 75
2,182933, Note_on_c, 0, 70, 72
2,182936, Note_on_c, 0, 69, 0
2,183024, Control_c, 0, 64, 9
2,183043, Control_c, 0, 64, 15
2,183097, Note_on_c, 0, 63, 0
2,183113, Note_on_c, 0, 61, 76
2,183122, Note_on_c, 0, 77, 0
2,183321, Note_on_c, 0, 61, 0
2,183350, Note_on_c, 0, 60, 73
2,183356, Note_on_c, 0, 75, 81
2,183372, Note_on_c, 0, 58, 0
2,183424, Note_on_c, 0, 70, 0
2,183558, Note_on_c, 0, 78, 76
2,183561, Note_on_c, 0, 60, 0
2,183563, Note_on_c, 0, 63, 74
2,183604, Note_on_c, 0, 75, 0
2,183757, Note_on_c, 0, 53, 76
2,183765, Note_on_c, 0, 77, 73
2,183766, Note_on_c, 0, 69, 76
2,183767, Note_on_c, 0, 61, 72
2,183770, Note_on_c, 0, 63, 0
2,183872, Note_on_c, 0, 69, 0
2,183938, Note_on_c, 0, 78, 0
2,183955, Note_on_c, 0, 75, 80
2,183957, Note_on_c, 0, 61, 0
2,183958, Note_on_c, 0, 60, 78
2,183998, Note_on_c, 0, 53, 0
2,183999, Note_on_c, 0, 77, 0
2,184004, Control_c, 0, 64, 19
2,184117, Control_c, 0, 64, 8
2,184137, Control_c, 0, 64, 0
2,184162, Note_on_c, 0, 54, 66
2,184168, Note_on_c, 0, 58, 69
2,184170, Note_on_c, 0, 73, 80
2,184179, Note_on_c, 0, 70, 79
2,184180, Note_on_c, 0, 60, 0
2,184220, Note_on_c, 0, 75, 0
2,184232, Control_c, 0, 64, 11
2,184265, Control_c, 0, 64, 24
2,184282, Control_c, 0, 64, 40
2,184302, Control_c, 0, 64, 55
2,184321, Control_c, 0, 64, 61
2,184385, Note_on_c, 0, 77, 78
2,184386, Note_on_c, 0, 61, 74
2,184391, Note_on_c, 0, 58, 0
2,184398, Control_c, 0, 64, 62
2,184434, Control_c, 0, 64, 64
2,184439, Note_on_c, 0, 70, 0
2,184473, Control_c, 0, 64, 65
2,184481, Note_on_c, 0, 73, 0
2,184493, Control_c, 0, 64, 63
2,184509, Control_c, 0, 64, 59
2,184528, Control_c, 0, 64, 52
2,184548, Control_c, 0, 64, 46
2,184563, Note_on_c, 0, 60, 74
2,184565, Control_c, 0, 64, 41
2,184569, Note_on_c, 0, 61, 0
2,184578, Note_on_c, 0, 75, 77
2,184606, Control_c, 0, 64, 36
2,184634, Note_on_c, 0, 77, 0
2,184661, Control_c, 0, 64, 42
2,184680, Control_c, 0, 64, 48
2,184699, Control_c, 0, 64, 52
2,184718, Control_c, 0, 64, 55
2,184738, Control_c, 0, 64, 58
2,184755, Note_on_c, 0, 60, 0
2,184769, Note_on_c, 0, 58, 71
2,184773, Control_c, 0, 64, 60
2,184779, Note_on_c, 0, 73, 77
2,184813, Control_c, 0, 64, 61
2,184831, Control_c, 0, 64, 62
2,184850, Control_c, 0, 64, 64
2,184863, Note_on_c, 0, 75, 0
2,184869, Control_c, 0, 64, 65
2,184907, Control_c, 0, 64, 64
2,184925, Control_c, 0, 64, 62
2,184945, Control_c, 0, 64, 60
2,184978, Note_on_c, 0, 72, 77
2,184980, Note_on_c, 0, 57, 72
2,184983, Control_c, 0, 64, 55
2,185000, Note_on_c, 0, 73, 0
2,185001, Control_c, 0, 64, 53
2,185017, Note_on_c, 0, 58, 0
2,185167, Note_on_c, 0, 75, 78
2,185173, Note_on_c, 0, 60, 73
2,185192, Control_c, 0, 64, 51
2,185196, Note_on_c, 0, 57, 0
2,185205, Note_on_c, 0, 72, 0
2,185242, Control_c, 0, 64, 53
2,185263, Control_c, 0, 64, 56
2,185340, Control_c, 0, 64, 54
2,185370, Control_c, 0, 64, 50
2,185370, Note_on_c, 0, 53, 63
2,185370, Note_on_c, 0, 58, 68
2,185384, Control_c, 0, 64, 46
2,185384, Note_on_c, 0, 73, 76
2,185403, Control_c, 0, 64, 44
2,185414, Note_on_c, 0, 54, 0
2,185422, Note_on_c, 0, 60, 0
2,185481, Control_c, 0, 64, 42
2,185490, Note_on_c, 0, 75, 0
2,185499, Control_c, 0, 64, 40
2,185576, Control_c, 0, 64, 36
2,185576, Note_on_c, 0, 72, 78
2,185579, Note_on_c, 0, 51, 80
2,185589, Note_on_c, 0, 73, 0
2,185607, Note_on_c, 0, 53, 0
2,185614, Control_c, 0, 64, 31
2,185796, Note_on_c, 0, 53, 72
2,185800, Note_on_c, 0, 70, 74
2,185814, Note_on_c, 0, 51, 0
2,185839, Note_on_c, 0, 72, 0
2,185952, Control_c, 0, 64, 27
2,185973, Note_on_c, 0, 73, 73
2,185999, Note_on_c, 0, 58, 0
2,186026, Note_on_c, 0, 70, 0
2,186142, Control_c, 0, 64, 16
2,186161, Control_c, 0, 64, 0
2,186225, Note_on_c, 0, 72, 78
2,186232, Note_on_c, 0, 57, 81
2,186294, Note_on_c, 0, 73, 0
2,186329, Control_c, 0, 64, 20
2,186346, Control_c, 0, 64, 43
2,186366, Control_c, 0, 64, 64
2,186385, Control_c, 0, 64, 80
2,186396, Note_on_c, 0, 72, 0
2,186404, Control_c, 0, 64, 96
2,186422, Control_c, 0, 64, 109
2,186440, Control_c, 0, 64, 116
2,186459, Control_c, 0, 64, 120
2,186497, Control_c, 0, 64, 125
2,186687, Note_on_c, 0, 63, 86
2,186724, Control_c, 0, 64, 115
2,186744, Control_c, 0, 64, 100
2,186751, Note_on_c, 0, 57, 0
2,186762, Control_c, 0, 64, 82
2,186781, Control_c, 0, 64, 61
2,186802, Control_c, 0, 64, 40
2,186818, Control_c, 0, 64, 28
2,187101, Note_on_c, 0, 70, 82
2,187105, Note_on_c, 0, 61, 68
2,187120, Note_on_c, 0, 63, 0
2,187296, Note_on_c, 0, 60, 76
2,187313, Note_on_c, 0, 61, 0
2,187554, Note_on_c, 0, 77, 77
2,187572, Note_on_c, 0, 61, 72
2,187599, Note_on_c, 0, 60, 0
2,187673, Note_on_c, 0, 70, 0
2,187698, Note_on_c, 0, 53, 0
2,187990, Note_on_c, 0, 53, 64
2,187996, Note_on_c, 0, 75, 67
2,188066, Note_on_c, 0, 77, 0
2,188185, Note_on_c, 0, 73, 72
2,188230, Note_on_c, 0, 75, 0
2,188419, Note_on_c, 0, 75, 72
2,188428, Note_on_c, 0, 54, 67
2,188468, Note_on_c, 0, 53, 0
2,188605, Note_on_c, 0, 73, 0
2,188859, Note_on_c, 0, 55, 67
2,188874, Note_on_c, 0, 60, 69
2,188914, Note_on_c, 0, 54, 0
2,188914, Note_on_c, 0, 61, 0
2,189070, Note_on_c, 0, 58, 74
2,189091, Note_on_c, 0, 60, 0
2,189314, Note_on_c, 0, 60, 73
2,189319, Note_on_c, 0, 56, 76
2,189360, Note_on_c, 0, 55, 0
2,189363, Note_on_c, 0, 58, 0
2,189719, Note_on_c, 0, 60, 0
2,189722, Note_on_c, 0, 73, 79
2,189724, Note_on_c, 0, 65, 68
2,189728, Note_on_c, 0, 57, 74
2,189868, Note_on_c, 0, 56, 0
2,189894, Note_on_c, 0, 75, 0
2,189914, Note_on_c, 0, 72, 81
2,189953, Note_on_c, 0, 73, 0
2,190148, Control_c, 0, 64, 24
2,190160, Note_on_c, 0, 73, 81
2,190164, Note_on_c, 0, 58, 70
2,190177, Note_on_c, 0, 57, 0
2,190198, Note_on_c, 0, 72, 0
2,190258, Control_c, 0, 64, 40
2,190279, Control_c, 0, 64, 58
2,190297, Control_c, 0, 64, 69
2,190316, Control_c, 0, 64, 76
2,190333, Control_c, 0, 64, 82
2,190350, Note_on_c, 0, 75, 83
2,190354, Control_c, 0, 64, 87
2,190365, Note_on_c, 0, 73, 0
2,190372, Control_c, 0, 64, 94
2,190381, Note_on_c, 0, 65, 0
2,190390, Control_c, 0, 64, 101
2,190413, Control_c, 0, 64, 107
2,190435, Control_c, 0, 64, 111
2,190452, Control_c, 0, 64, 116
2,190471, Control_c, 0, 64, 121
2,190527, Control_c, 0, 64, 117
2,190544, Control_c, 0, 64, 107
2,190549, Note_on_c, 0, 46, 73
2,190564, Control_c, 0, 64, 94
2,190564, Note_on_c, 0, 73, 80
2,190565, Note_on_c, 0, 64, 77
2,190585, Control_c, 0, 64, 79
2,190603, Control_c, 0, 64, 62
2,190623, Control_c, 0, 64, 48
2,190643, Control_c, 0, 64, 45
2,190661, Note_on_c, 0, 75, 0
2,190699, Control_c, 0, 64, 43
2,190717, Control_c, 0, 64, 40
2,190737, Note_on_c, 0, 48, 71
2,190739, Note_on_c, 0, 72, 81
2,190751, Note_on_c, 0, 58, 0
2,190756, Note_on_c, 0, 64, 0
2,190783, Note_on_c, 0, 73, 0
2,190811, Note_on_c, 0, 46, 0
2,190907, Control_c, 0, 64, 33
2,190926, Control_c, 0, 64, 25
2,190945, Control_c, 0, 64, 12
2,190966, Control_c, 0, 64, 0
2,190993, Note_on_c, 0, 49, 77
2,190994, Note_on_c, 0, 70, 84
2,190998, Note_on_c, 0, 65, 79
2,191039, Note_on_c, 0, 72, 0
2,191040, Note_on_c, 0, 48, 0
2,191073, Control_c, 0, 64, 25
2,191093, Control_c, 0, 64, 53
2,191097, Note_on_c, 0, 65, 0
2,191112, Control_c, 0, 64, 76
2,191131, Control_c, 0, 64, 100
2,191141, Note_on_c, 0, 70, 0
2,191146, Control_c, 0, 64, 127
2,191429, Note_on_c, 0, 82, 86
2,191431, Control_c, 0, 64, 122
2,191441, Note_on_c, 0, 50, 60
2,191451, Control_c, 0, 64, 102
2,191451, Note_on_c, 0, 56, 72
2,191469, Control_c, 0, 64, 78
2,191487, Control_c, 0, 64, 50
2,191507, Control_c, 0, 64, 24
2,191527, Control_c, 0, 64, 18
2,191543, Note_on_c, 0, 49, 0
2,191562, Control_c, 0, 64, 24
2,191582, Control_c, 0, 64, 48
2,191602, Control_c, 0, 64, 68
2,191621, Control_c, 0, 64, 80
2,191626, Note_on_c, 0, 56, 0
2,191640, Control_c, 0, 64, 88
2,191659, Control_c, 0, 64, 94
2,191679, Control_c, 0, 64, 100
2,191696, Control_c, 0, 64, 107
2,191714, Control_c, 0, 64, 114
2,191733, Control_c, 0, 64, 119
2,191754, Control_c, 0, 64, 124
2,191859, Note_on_c, 0, 55, 80
2,191863, Note_on_c, 0, 51, 69
2,191892, Note_on_c, 0, 50, 0
2,191905, Control_c, 0, 64, 114
2,191924, Control_c, 0, 64, 99
2,191957, Control_c, 0, 64, 81
2,191976, Control_c, 0, 64, 63
2,191996, Control_c, 0, 64, 48
2,192013, Control_c, 0, 64, 43
2,192043, Note_on_c, 0, 55, 0
2,192052, Note_on_c, 0, 56, 73
2,192089, Control_c, 0, 64, 41
2,192222, Control_c, 0, 64, 37
2,192240, Control_c, 0, 64, 32
2,192258, Control_c, 0, 64, 22
2,192277, Control_c, 0, 64, 10
2,192284, Note_on_c, 0, 52, 76
2,192285, Note_on_c, 0, 80, 86
2,192287, Note_on_c, 0, 51, 0
2,192288, Note_on_c, 0, 58, 72
2,192310, Note_on_c, 0, 56, 0
2,192313, Control_c, 0, 64, 0
2,192403, Note_on_c, 0, 82, 0
2,192411, Control_c, 0, 64, 27
2,192429, Control_c, 0, 64, 52
2,192447, Control_c, 0, 64, 70
2,192467, Control_c, 0, 64, 84
2,192478, Note_on_c, 0, 79, 86
2,192478, Note_on_c, 0, 80, 0
2,192487, Control_c, 0, 64, 99
2,192503, Control_c, 0, 64, 109
2,192523, Control_c, 0, 64, 115
2,192529, Note_on_c, 0, 79, 0
2,192543, Control_c, 0, 64, 119
2,192580, Control_c, 0, 64, 127
2,192728, Note_on_c, 0, 72, 93
2,192731, Control_c, 0, 64, 115
2,192738, Note_on_c, 0, 58, 0
2,192739, Note_on_c, 0, 53, 68
2,192747, Note_on_c, 0, 56, 69
2,192750, Control_c, 0, 64, 95
2,192760, Note_on_c, 0, 80, 65
2,192768, Note_on_c, 0, 52, 0
2,192769, Control_c, 0, 64, 71
2,192789, Control_c, 0, 64, 44
2,192799, Note_on_c, 0, 81, 44
2,192808, Control_c, 0, 64, 20
2,192826, Control_c, 0, 64, 13
2,192830, Note_on_c, 0, 80, 0
2,192831, Note_on_c, 0, 80, 29
2,192845, Control_c, 0, 64, 8
2,192864, Control_c, 0, 64, 0
2,192956, Control_c, 0, 64, 10
2,192968, Note_on_c, 0, 58, 73
2,192973, Note_on_c, 0, 56, 0
2,192974, Control_c, 0, 64, 43
2,192992, Control_c, 0, 64, 68
2,193012, Control_c, 0, 64, 85
2,193031, Control_c, 0, 64, 100
2,193032, Note_on_c, 0, 81, 0
2,193033, Note_on_c, 0, 78, 22
2,193050, Control_c, 0, 64, 109
2,193106, Control_c, 0, 64, 99
2,193125, Control_c, 0, 64, 83
2,193142, Control_c, 0, 64, 65
2,193154, Note_on_c, 0, 56, 70
2,193162, Control_c, 0, 64, 48
2,193162, Note_on_c, 0, 58, 0
2,193164, Note_on_c, 0, 51, 80
2,193174, Note_on_c, 0, 53, 0
2,193180, Control_c, 0, 64, 45
2,193201, Control_c, 0, 64, 51
2,193217, Control_c, 0, 64, 67
2,193232, Note_on_c, 0, 72, 0
2,193237, Control_c, 0, 64, 82
2,193256, Control_c, 0, 64, 99
2,193274, Control_c, 0, 64, 112
2,193294, Control_c, 0, 64, 119
2,193302, Note_on_c, 0, 78, 0
2,193332, Control_c, 0, 64, 123
2,193338, Note_on_c, 0, 56, 0
2,193347, Note_on_c, 0, 55, 81
2,193370, Note_on_c, 0, 51, 0
2,193394, Note_on_c, 0, 55, 0
2,193445, Control_c, 0, 64, 127
2,193587, Note_on_c, 0, 80, 0
2,193596, Note_on_c, 0, 49, 85
2,193607, Note_on_c, 0, 70, 78
2,193611, Note_on_c, 0, 53, 68
2,193615, Control_c, 0, 64, 117
2,193633, Control_c, 0, 64, 100
2,193654, Control_c, 0, 64, 80
2,193669, Note_on_c, 0, 53, 0
2,193671, Control_c, 0, 64, 58
2,193692, Control_c, 0, 64, 34
2,193710, Control_c, 0, 64, 22
2,193749, Control_c, 0, 64, 15
2,193768, Control_c, 0, 64, 8
2,193786, Control_c, 0, 64, 0
2,193796, Note_on_c, 0, 52, 73
2,193823, Control_c, 0, 64, 25
2,193843, Control_c, 0, 64, 54
2,193874, Control_c, 0, 64, 74
2,193895, Control_c, 0, 64, 93
2,193914, Control_c, 0, 64, 115
2,193933, Control_c, 0, 64, 127
2,194008, Control_c, 0, 64, 109
2,194011, Note_on_c, 0, 53, 78
2,194018, Note_on_c, 0, 79, 87
2,194027, Control_c, 0, 64, 83
2,194048, Control_c, 0, 64, 51
2,194050, Note_on_c, 0, 52, 0
2,194066, Control_c, 0, 64, 15
2,194085, Control_c, 0, 64, 11
2,194121, Control_c, 0, 64, 37
2,194141, Control_c, 0, 64, 64
2,194160, Control_c, 0, 64, 83
2,194177, Control_c, 0, 64, 105
2,194187, Note_on_c, 0, 49, 0
2,194196, Control_c, 0, 64, 119
2,194215, Control_c, 0, 64, 123
2,194217, Note_on_c, 0, 55, 80
2,194220, Note_on_c, 0, 53, 0
2,194254, Control_c, 0, 64, 127
2,194266, Note_on_c, 0, 55, 0
2,194412, Note_on_c, 0, 48, 87
2,194451, Note_on_c, 0, 79, 0
2,194459, Note_on_c, 0, 70, 0
2,194461, Control_c, 0, 64, 120
2,194481, Control_c, 0, 64, 111
2,194498, Control_c, 0, 64, 98
2,194504, Note_on_c, 0, 55, 28
2,194518, Control_c, 0, 64, 84
2,194538, Control_c, 0, 64, 71
2,194557, Control_c, 0, 64, 57
2,194575, Control_c, 0, 64, 45
2,194593, Control_c, 0, 64, 36
2,194594, Note_on_c, 0, 55, 0
2,194613, Control_c, 0, 64, 32
2,194625, Note_on_c, 0, 55, 31
2,194819, Note_on_c, 0, 55, 0
2,194837, Note_on_c, 0, 56, 76
2,194839, Note_on_c, 0, 77, 89
2,194841, Note_on_c, 0, 68, 84
2,195041, Note_on_c, 0, 58, 82
2,195066, Note_on_c, 0, 68, 0
2,195077, Note_on_c, 0, 77, 0
2,195084, Note_on_c, 0, 56, 0
2,195228, Control_c, 0, 64, 28
2,195246, Control_c, 0, 64, 23
2,195266, Control_c, 0, 64, 11
2,195283, Control_c, 0, 64, 0
2,195290, Note_on_c, 0, 76, 81
2,195300, Note_on_c, 0, 67, 77
2,195304, Note_on_c, 0, 60, 85
2,195312, Note_on_c, 0, 58, 0
2,195361, Control_c, 0, 64, 31
2,195379, Control_c, 0, 64, 55
2,195398, Control_c, 0, 64, 72
2,195417, Control_c, 0, 64, 84
2,195422, Note_on_c, 0, 60, 0
2,195436, Control_c, 0, 64, 94
2,195458, Note_on_c, 0, 48, 0
2,195549, Control_c, 0, 64, 99
2,195588, Control_c, 0, 64, 103
2,195626, Control_c, 0, 64, 99
2,195646, Control_c, 0, 64, 88
2,195665, Control_c, 0, 64, 71
2,195683, Control_c, 0, 64, 49
2,195701, Control_c, 0, 64, 22
2,195714, Note_on_c, 0, 46, 89
2,195718, Note_on_c, 0, 73, 80
2,195719, Control_c, 0, 64, 0
2,195741, Note_on_c, 0, 67, 0
2,195868, Control_c, 0, 64, 45
2,195888, Control_c, 0, 64, 69
2,195907, Control_c, 0, 64, 85
2,195925, Control_c, 0, 64, 100
2,195936, Note_on_c, 0, 46, 0
2,195942, Control_c, 0, 64, 104
2,196133, Control_c, 0, 64, 91
2,196151, Control_c, 0, 64, 73
2,196171, Control_c, 0, 64, 50
2,196189, Control_c, 0, 64, 20
2,196196, Note_on_c, 0, 45, 92
2,196202, Note_on_c, 0, 75, 81
2,196207, Control_c, 0, 64, 0
2,196213, Note_on_c, 0, 72, 70
2,196231, Note_on_c, 0, 76, 0
2,196248, Note_on_c, 0, 73, 0
2,196320, Control_c, 0, 64, 16
2,196339, Control_c, 0, 64, 48
2,196357, Control_c, 0, 64, 68
2,196377, Control_c, 0, 64, 81
2,196395, Control_c, 0, 64, 96
2,196416, Control_c, 0, 64, 107
2,196434, Control_c, 0, 64, 114
2,196454, Control_c, 0, 64, 119
2,196473, Control_c, 0, 64, 125
2,196584, Control_c, 0, 64, 120
2,196602, Control_c, 0, 64, 99
2,196623, Control_c, 0, 64, 68
2,196633, Note_on_c, 0, 81, 81
2,196640, Note_on_c, 0, 54, 80
2,196641, Control_c, 0, 64, 21
2,196649, Note_on_c, 0, 51, 80
2,196660, Control_c, 0, 64, 0
2,196665, Note_on_c, 0, 75, 0
2,196713, Note_on_c, 0, 45, 0
2,196752, Control_c, 0, 64, 44
2,196769, Control_c, 0, 64, 70
2,196790, Control_c, 0, 64, 87
2,196808, Control_c, 0, 64, 104
2,196816, Note_on_c, 0, 54, 0
2,196823, Note_on_c, 0, 72, 0
2,196824, Control_c, 0, 64, 110
2,196864, Control_c, 0, 64, 114
2,196867, Note_on_c, 0, 51, 0
2,196902, Control_c, 0, 64, 119
2,196922, Control_c, 0, 64, 126
2,197035, Control_c, 0, 64, 112
2,197054, Control_c, 0, 64, 86
2,197062, Note_on_c, 0, 82, 86
2,197063, Note_on_c, 0, 49, 74
2,197066, Note_on_c, 0, 53, 80
2,197071, Control_c, 0, 64, 54
2,197091, Control_c, 0, 64, 0
2,197159, Note_on_c, 0, 81, 0
2,197205, Control_c, 0, 64, 24
2,197224, Control_c, 0, 64, 59
2,197232, Note_on_c, 0, 82, 0
2,197241, Control_c, 0, 64, 76
2,197262, Control_c, 0, 64, 89
2,197280, Control_c, 0, 64, 99
2,197299, Control_c, 0, 64, 106
2,197317, Control_c, 0, 64, 113
2,197336, Control_c, 0, 64, 117
2,197355, Control_c, 0, 64, 122
2,197376, Control_c, 0, 64, 127
2,197450, Control_c, 0, 64, 122
2,197468, Control_c, 0, 64, 104
2,197484, Note_on_c, 0, 70, 87
2,197488, Control_c, 0, 64, 75
2,197494, Note_on_c, 0, 76, 81
2,197507, Note_on_c, 0, 55, 78
2,197508, Control_c, 0, 64, 35
2,197525, Control_c, 0, 64, 0
2,197548, Note_on_c, 0, 53, 0
2,197561, Note_on_c, 0, 49, 0
2,197639, Control_c, 0, 64, 36
2,197659, Control_c, 0, 64, 67
2,197670, Note_on_c, 0, 76, 0
2,197677, Control_c, 0, 64, 85
2,197677, Note_on_c, 0, 70, 0
2,197710, Control_c, 0, 64, 99
2,197729, Control_c, 0, 64, 104
2,197919, Control_c, 0, 64, 100
2,197930, Note_on_c, 0, 68, 80
2,197936, Note_on_c, 0, 77, 82
2,197937, Control_c, 0, 64, 89
2,197950, Note_on_c, 0, 56, 76
2,197956, Control_c, 0, 64, 73
2,197965, Note_on_c, 0, 55, 0
2,197976, Control_c, 0, 64, 54
2,197994, Control_c, 0, 64, 35
2,198014, Control_c, 0, 64, 24
2,198069, Control_c, 0, 64, 20
2,198108, Control_c, 0, 64, 14
2,198119, Note_on_c, 0, 58, 81
2,198123, Note_on_c, 0, 72, 75
2,198128, Note_on_c, 0, 56, 0
2,198160, Note_on_c, 0, 68, 0
2,198220, Control_c, 0, 64, 9
2,198257, Control_c, 0, 64, 0
2,198339, Note_on_c, 0, 48, 81
2,198344, Note_on_c, 0, 58, 0
2,198345, Note_on_c, 0, 70, 79
2,198346, Note_on_c, 0, 60, 72
2,198421, Note_on_c, 0, 60, 0
2,198421, Note_on_c, 0, 77, 0
2,198427, Note_on_c, 0, 72, 0
2,198428, Control_c, 0, 64, 42
2,198446, Control_c, 0, 64, 62
2,198467, Control_c, 0, 64, 72
2,198485, Control_c, 0, 64, 80
2,198503, Control_c, 0, 64, 88
2,198517, Note_on_c, 0, 48, 0
2,198521, Control_c, 0, 64, 92
2,198522, Note_on_c, 0, 68, 78
2,198542, Note_on_c, 0, 70, 0
2,198610, Note_on_c, 0, 68, 0
2,198618, Control_c, 0, 64, 97
2,198669, Control_c, 0, 64, 102
2,198726, Control_c, 0, 64, 92
2,198746, Control_c, 0, 64, 80
2,198758, Note_on_c, 0, 76, 78
2,198764, Control_c, 0, 64, 64
2,198769, Note_on_c, 0, 46, 77
2,198776, Note_on_c, 0, 67, 71
2,198785, Control_c, 0, 64, 46
2,198801, Control_c, 0, 64, 29
2,198822, Control_c, 0, 64, 21
2,198953, Note_on_c, 0, 49, 67
2,198963, Note_on_c, 0, 70, 78
2,198988, Note_on_c, 0, 46, 0
2,199000, Note_on_c, 0, 67, 0
2,199161, Control_c, 0, 64, 16
2,199161, Note_on_c, 0, 48, 77
2,199161, Note_on_c, 0, 49, 0
2,199161, Note_on_c, 0, 68, 83
2,199196, Control_c, 0, 64, 10
2,199214, Control_c, 0, 64, 0
2,199328, Control_c, 0, 64, 30
2,199346, Control_c, 0, 64, 55
2,199349, Note_on_c, 0, 46, 76
2,199353, Note_on_c, 0, 67, 78
2,199364, Control_c, 0, 64, 71
2,199371, Note_on_c, 0, 48, 0
2,199380, Note_on_c, 0, 68, 0
2,199382, Control_c, 0, 64, 81
2,199386, Note_on_c, 0, 76, 0
2,199397, Note_on_c, 0, 70, 0
2,199401, Control_c, 0, 64, 92
2,199422, Control_c, 0, 64, 103
2,199432, Note_on_c, 0, 67, 0
2,199440, Control_c, 0, 64, 113
2,199460, Control_c, 0, 64, 120
2,199479, Control_c, 0, 64, 126
2,199554, Control_c, 0, 64, 116
2,199573, Control_c, 0, 64, 102
2,199581, Note_on_c, 0, 77, 83
2,199584, Note_on_c, 0, 44, 74
2,199590, Note_on_c, 0, 65, 86
2,199591, Control_c, 0, 64, 82
2,199624, Control_c, 0, 64, 59
2,199624, Note_on_c, 0, 46, 0
2,199644, Control_c, 0, 64, 32
2,199664, Control_c, 0, 64, 19
2,199720, Control_c, 0, 64, 14
2,199738, Control_c, 0, 64, 0
2,199788, Note_on_c, 0, 68, 76
2,199795, Note_on_c, 0, 48, 71
2,199798, Note_on_c, 0, 65, 0
2,199815, Control_c, 0, 64, 14
2,199834, Control_c, 0, 64, 41
2,199843, Note_on_c, 0, 44, 0
2,199852, Control_c, 0, 64, 62
2,199870, Control_c, 0, 64, 75
2,199891, Control_c, 0, 64, 87
2,199908, Control_c, 0, 64, 92
2,199928, Control_c, 0, 64, 87
2,199946, Control_c, 0, 64, 75
2,199965, Control_c, 0, 64, 59
2,199984, Control_c, 0, 64, 46
2,199995, Note_on_c, 0, 46, 75
2,200002, Note_on_c, 0, 77, 0
2,200009, Note_on_c, 0, 67, 80
2,200015, Note_on_c, 0, 68, 0
2,200022, Note_on_c, 0, 48, 0
2,200023, Control_c, 0, 64, 62
2,200041, Control_c, 0, 64, 77
2,200061, Control_c, 0, 64, 91
2,200080, Control_c, 0, 64, 100
2,200186, Note_on_c, 0, 67, 0
2,200190, Note_on_c, 0, 44, 72
2,200190, Note_on_c, 0, 65, 79
2,200241, Note_on_c, 0, 46, 0
2,200342, Control_c, 0, 64, 94
2,200361, Control_c, 0, 64, 80
2,200381, Control_c, 0, 64, 58
2,200398, Note_on_c, 0, 43, 76
2,200401, Control_c, 0, 64, 22
2,200402, Note_on_c, 0, 70, 81
2,200404, Note_on_c, 0, 44, 0
2,200409, Note_on_c, 0, 64, 80
2,200415, Control_c, 0, 64, 0
2,200457, Note_on_c, 0, 65, 0
2,200531, Control_c, 0, 64, 27
2,200551, Control_c, 0, 64, 50
2,200582, Control_c, 0, 64, 63
2,200603, Control_c, 0, 64, 67
2,200608, Note_on_c, 0, 64, 0
2,200612, Note_on_c, 0, 67, 77
2,200622, Control_c, 0, 64, 70
2,200623, Note_on_c, 0, 46, 76
2,200625, Note_on_c, 0, 70, 0
2,200627, Note_on_c, 0, 43, 0
2,200641, Control_c, 0, 64, 75
2,200658, Control_c, 0, 64, 85
2,200678, Control_c, 0, 64, 98
2,200697, Control_c, 0, 64, 110
2,200772, Control_c, 0, 64, 99
2,200793, Control_c, 0, 64, 80
2,200810, Control_c, 0, 64, 52
2,200820, Note_on_c, 0, 65, 76
2,200821, Note_on_c, 0, 72, 80
2,200822, Note_on_c, 0, 60, 79
2,200823, Note_on_c, 0, 44, 74
2,200827, Note_on_c, 0, 67, 0
2,200829, Control_c, 0, 64, 0
2,200875, Note_on_c, 0, 46, 0
2,200905, Control_c, 0, 64, 19
2,200922, Control_c, 0, 64, 45
2,200936, Note_on_c, 0, 60, 0
2,200942, Control_c, 0, 64, 64
2,200959, Note_on_c, 0, 72, 0
2,200961, Control_c, 0, 64, 73
2,200980, Control_c, 0, 64, 77
2,200999, Control_c, 0, 64, 79
2,201004, Note_on_c, 0, 43, 73
2,201018, Control_c, 0, 64, 82
2,201019, Note_on_c, 0, 70, 74
2,201039, Control_c, 0, 64, 89
2,201039, Note_on_c, 0, 44, 0
2,201055, Control_c, 0, 64, 99
2,201075, Control_c, 0, 64, 108
2,201169, Control_c, 0, 64, 101
2,201189, Control_c, 0, 64, 86
2,201207, Control_c, 0, 64, 63
2,201226, Control_c, 0, 64, 29
2,201234, Note_on_c, 0, 61, 79
2,201234, Note_on_c, 0, 68, 81
2,201237, Note_on_c, 0, 65, 0
2,201245, Control_c, 0, 64, 0
2,201251, Note_on_c, 0, 41, 73
2,201268, Note_on_c, 0, 43, 0
2,201305, Note_on_c, 0, 70, 0
2,201358, Control_c, 0, 64, 39
2,201376, Control_c, 0, 64, 66
2,201395, Control_c, 0, 64, 81
2,201398, Note_on_c, 0, 61, 0
2,201404, Note_on_c, 0, 68, 0
2,201415, Control_c, 0, 64, 94
2,201431, Note_on_c, 0, 44, 77
2,201434, Control_c, 0, 64, 103
2,201451, Control_c, 0, 64, 107
2,201451, Note_on_c, 0, 41, 0
2,201472, Control_c, 0, 64, 111
2,201510, Control_c, 0, 64, 119
2,201542, Control_c, 0, 64, 126
2,201657, Note_on_c, 0, 70, 79
2,201660, Note_on_c, 0, 64, 73
2,201661, Note_on_c, 0, 43, 80
2,201666, Note_on_c, 0, 58, 72
2,201711, Note_on_c, 0, 44, 0
2,201714, Control_c, 0, 64, 109
2,201732, Control_c, 0, 64, 91
2,201752, Control_c, 0, 64, 67
2,201771, Control_c, 0, 64, 41
2,201789, Control_c, 0, 64, 27
2,201799, Note_on_c, 0, 43, 0
2,201855, Note_on_c, 0, 68, 78
2,201926, Note_on_c, 0, 70, 0
2,202101, Note_on_c, 0, 67, 70
2,202106, Note_on_c, 0, 52, 77
2,202107, Note_on_c, 0, 70, 71
2,202143, Note_on_c, 0, 68, 0
2,202149, Note_on_c, 0, 64, 0
2,202318, Control_c, 0, 64, 23
2,202556, Note_on_c, 0, 41, 79
2,202556, Note_on_c, 0, 68, 73
2,202566, Note_on_c, 0, 67, 0
2,202575, Note_on_c, 0, 53, 53
2,202587, Note_on_c, 0, 52, 0
2,202650, Note_on_c, 0, 70, 0
2,202674, Control_c, 0, 64, 19
2,202737, Note_on_c, 0, 67, 77
2,202782, Note_on_c, 0, 68, 0
2,202968, Note_on_c, 0, 48, 78
2,202977, Note_on_c, 0, 68, 78
2,203038, Note_on_c, 0, 67, 0
2,203055, Note_on_c, 0, 58, 0
2,203082, Note_on_c, 0, 41, 0
2,203169, Note_on_c, 0, 65, 79
2,203210, Note_on_c, 0, 68, 0
2,203370, Note_on_c, 0, 67, 78
2,203371, Note_on_c, 0, 46, 81
2,203381, Note_on_c, 0, 61, 77
2,203412, Note_on_c, 0, 53, 0
2,203434, Note_on_c, 0, 48, 0
2,203456, Note_on_c, 0, 65, 0
2,203560, Note_on_c, 0, 44, 75
2,203568, Note_on_c, 0, 46, 0
2,203811, Note_on_c, 0, 73, 80
2,203818, Note_on_c, 0, 52, 67
2,203821, Note_on_c, 0, 46, 73
2,203843, Note_on_c, 0, 44, 0
2,203848, Note_on_c, 0, 61, 0
2,203853, Note_on_c, 0, 67, 0
2,204239, Note_on_c, 0, 72, 70
2,204255, Note_on_c, 0, 67, 65
2,204261, Note_on_c, 0, 43, 70
2,204312, Note_on_c, 0, 46, 0
2,204313, Note_on_c, 0, 73, 0
2,204454, Note_on_c, 0, 70, 79
2,204470, Note_on_c, 0, 72, 0
2,204702, Note_on_c, 0, 72, 71
2,204715, Note_on_c, 0, 44, 64
2,204731, Note_on_c, 0, 70, 0
2,204741, Note_on_c, 0, 67, 0
2,204745, Note_on_c, 0, 52, 0
2,204753, Note_on_c, 0, 43, 0
2,205148, Note_on_c, 0, 65, 57
2,205155, Note_on_c, 0, 50, 47
2,205321, Note_on_c, 0, 65, 0
2,205323, Note_on_c, 0, 50, 0
2,205336, Note_on_c, 0, 64, 57
2,205346, Note_on_c, 0, 48, 53
2,205577, Note_on_c, 0, 64, 0
2,205581, Note_on_c, 0, 68, 64
2,205586, Note_on_c, 0, 53, 60
2,205606, Control_c, 0, 64, 28
2,205624, Control_c, 0, 64, 41
2,205643, Control_c, 0, 64, 56
2,205663, Control_c, 0, 64, 66
2,205673, Note_on_c, 0, 44, 0
2,205681, Control_c, 0, 64, 72
2,205700, Control_c, 0, 64, 78
2,205705, Note_on_c, 0, 48, 0
2,205719, Control_c, 0, 64, 84
2,205737, Control_c, 0, 64, 90
2,205757, Control_c, 0, 64, 96
2,205795, Control_c, 0, 64, 101
2,205982, Control_c, 0, 64, 97
2,205987, Note_on_c, 0, 43, 68
2,205995, Note_on_c, 0, 70, 76
2,206001, Control_c, 0, 64, 89
2,206022, Control_c, 0, 64, 78
2,206034, Note_on_c, 0, 68, 0
2,206037, Note_on_c, 0, 72, 0
2,206040, Control_c, 0, 64, 65
2,206060, Control_c, 0, 64, 51
2,206079, Control_c, 0, 64, 45
2,206096, Control_c, 0, 64, 42
2,206135, Control_c, 0, 64, 35
2,206162, Note_on_c, 0, 41, 75
2,206171, Control_c, 0, 64, 31
2,206176, Note_on_c, 0, 68, 77
2,206192, Note_on_c, 0, 43, 0
2,206425, Note_on_c, 0, 46, 75
2,206432, Note_on_c, 0, 73, 79
2,206453, Note_on_c, 0, 53, 0
2,206472, Note_on_c, 0, 68, 0
2,206474, Note_on_c, 0, 41, 0
2,206480, Note_on_c, 0, 70, 0
2,206491, Control_c, 0, 64, 26
2,206860, Note_on_c, 0, 67, 70
2,206883, Note_on_c, 0, 51, 67
2,207034, Note_on_c, 0, 49, 67
2,207039, Note_on_c, 0, 65, 72
2,207055, Note_on_c, 0, 51, 0
2,207088, Note_on_c, 0, 67, 0
2,207249, Control_c, 0, 64, 19
2,207269, Control_c, 0, 64, 8
2,207300, Control_c, 0, 64, 0
2,207300, Note_on_c, 0, 55, 80
2,207303, Note_on_c, 0, 70, 77
2,207310, Note_on_c, 0, 49, 0
2,207453, Control_c, 0, 64, 18
2,207464, Note_on_c, 0, 65, 0
2,207472, Control_c, 0, 64, 46
2,207473, Note_on_c, 0, 73, 0
2,207491, Control_c, 0, 64, 64
2,207510, Control_c, 0, 64, 75
2,207529, Control_c, 0, 64, 86
2,207548, Control_c, 0, 64, 99
2,207565, Control_c, 0, 64, 110
2,207586, Control_c, 0, 64, 114
2,207623, Control_c, 0, 64, 109
2,207640, Control_c, 0, 64, 95
2,207661, Control_c, 0, 64, 70
2,207679, Control_c, 0, 64, 31
2,207698, Control_c, 0, 64, 0
2,207699, Note_on_c, 0, 72, 85
2,207704, Note_on_c, 0, 44, 74
2,207715, Note_on_c, 0, 70, 0
2,207793, Note_on_c, 0, 46, 0
2,207877, Note_on_c, 0, 43, 76
2,207877, Note_on_c, 0, 70, 81
2,207899, Note_on_c, 0, 72, 0
2,207922, Note_on_c, 0, 44, 0
2,208125, Note_on_c, 0, 48, 79
2,208131, Note_on_c, 0, 75, 83
2,208145, Note_on_c, 0, 55, 0
2,208188, Note_on_c, 0, 43, 0
2,208345, Note_on_c, 0, 70, 0
2,208554, Note_on_c, 0, 68, 75
2,208562, Note_on_c, 0, 53, 77
2,208672, Note_on_c, 0, 67, 19
2,208673, Note_on_c, 0, 67, 0
2,208716, Note_on_c, 0, 53, 0
2,208724, Note_on_c, 0, 51, 72
2,208732, Note_on_c, 0, 68, 0
2,208740, Note_on_c, 0, 67, 60
2,208965, Note_on_c, 0, 56, 83
2,208973, Note_on_c, 0, 72, 80
2,208978, Note_on_c, 0, 51, 0
2,208997, Note_on_c, 0, 67, 0
2,209095, Control_c, 0, 64, 33
2,209114, Control_c, 0, 64, 43
2,209132, Control_c, 0, 64, 52
2,209139, Note_on_c, 0, 75, 0
2,209152, Control_c, 0, 64, 63
2,209170, Control_c, 0, 64, 75
2,209190, Control_c, 0, 64, 88
2,209222, Control_c, 0, 64, 100
2,209237, Control_c, 0, 64, 105
2,209389, Note_on_c, 0, 73, 87
2,209399, Note_on_c, 0, 46, 78
2,209433, Note_on_c, 0, 48, 0
2,209444, Control_c, 0, 64, 97
2,209461, Control_c, 0, 64, 92
2,209494, Note_on_c, 0, 72, 0
2,209535, Control_c, 0, 64, 83
2,209552, Control_c, 0, 64, 73
2,209558, Note_on_c, 0, 44, 81
2,209558, Note_on_c, 0, 72, 80
2,209571, Note_on_c, 0, 73, 0
2,209572, Control_c, 0, 64, 66
2,209577, Note_on_c, 0, 46, 0
2,209592, Control_c, 0, 64, 64
2,209631, Control_c, 0, 64, 65
2,209686, Control_c, 0, 64, 67
2,209706, Control_c, 0, 64, 69
2,209744, Control_c, 0, 64, 67
2,209761, Control_c, 0, 64, 59
2,209779, Control_c, 0, 64, 43
2,209800, Control_c, 0, 64, 14
2,209821, Control_c, 0, 64, 0
2,209826, Note_on_c, 0, 49, 80
2,209827, Note_on_c, 0, 77, 89
2,209874, Note_on_c, 0, 75, 31
2,209876, Note_on_c, 0, 44, 0
2,209876, Note_on_c, 0, 56, 0
2,209877, Note_on_c, 0, 72, 0
2,209906, Note_on_c, 0, 75, 0
2,210266, Note_on_c, 0, 70, 81
2,210277, Note_on_c, 0, 55, 79
2,210281, Note_on_c, 0, 77, 0
2,210326, Control_c, 0, 64, 18
2,210345, Control_c, 0, 64, 26
2,210383, Control_c, 0, 64, 35
2,210399, Note_on_c, 0, 55, 0
2,210401, Control_c, 0, 64, 44
2,210419, Control_c, 0, 64, 55
2,210437, Control_c, 0, 64, 63
2,210441, Note_on_c, 0, 53, 78
2,210446, Note_on_c, 0, 68, 82
2,210458, Control_c, 0, 64, 67
2,210475, Note_on_c, 0, 70, 0
2,210476, Control_c, 0, 64, 69
2,210513, Control_c, 0, 64, 72
2,210533, Control_c, 0, 64, 74
2,210551, Control_c, 0, 64, 77
2,210551, Note_on_c, 0, 53, 0
2,210557, Note_on_c, 0, 68, 0
2,210571, Control_c, 0, 64, 80
2,210591, Control_c, 0, 64, 82
2,210629, Control_c, 0, 64, 84
2,210665, Control_c, 0, 64, 82
2,210684, Control_c, 0, 64, 73
2,210704, Control_c, 0, 64, 59
2,210721, Control_c, 0, 64, 35
2,210730, Note_on_c, 0, 75, 89
2,210737, Note_on_c, 0, 67, 84
2,210739, Control_c, 0, 64, 0
2,210751, Note_on_c, 0, 58, 85
2,210874, Control_c, 0, 64, 47
2,210891, Control_c, 0, 64, 70
2,210911, Control_c, 0, 64, 84
2,210922, Note_on_c, 0, 58, 0
2,210926, Note_on_c, 0, 49, 0
2,210930, Control_c, 0, 64, 105
2,210938, Note_on_c, 0, 67, 0
2,210948, Control_c, 0, 64, 124
2,211191, Control_c, 0, 64, 100
2,211205, Note_on_c, 0, 68, 82
2,211209, Note_on_c, 0, 60, 87
2,211210, Note_on_c, 0, 48, 78
2,211211, Control_c, 0, 64, 62
2,211230, Control_c, 0, 64, 0
2,211276, Note_on_c, 0, 60, 0
2,211287, Control_c, 0, 64, 27
2,211289, Note_on_c, 0, 48, 0
2,211307, Control_c, 0, 64, 67
2,211327, Control_c, 0, 64, 101
2,211336, Note_on_c, 0, 68, 0
2,211347, Control_c, 0, 64, 127
2,211515, Note_on_c, 0, 75, 0
2,211726, Note_on_c, 0, 55, 92
2,211733, Note_on_c, 0, 70, 80
2,211740, Note_on_c, 0, 73, 76
2,211747, Control_c, 0, 64, 96
2,211756, Note_on_c, 0, 46, 66
2,211766, Control_c, 0, 64, 59
2,211787, Control_c, 0, 64, 0
2,211881, Control_c, 0, 64, 12
2,211900, Control_c, 0, 64, 50
2,211920, Control_c, 0, 64, 75
2,211936, Control_c, 0, 64, 100
2,211955, Control_c, 0, 64, 127
2,211960, Note_on_c, 0, 55, 0
2,212230, Note_on_c, 0, 51, 78
2,212232, Note_on_c, 0, 58, 80
2,212262, Note_on_c, 0, 58, 0
2,212264, Note_on_c, 0, 46, 0
2,212283, Note_on_c, 0, 51, 0
2,212616, Note_on_c, 0, 70, 0
2,212627, Note_on_c, 0, 73, 0
2,212698, Note_on_c, 0, 56, 85
2,212708, Note_on_c, 0, 60, 76
2,212746, Control_c, 0, 64, 115
2,212766, Control_c, 0, 64, 89
2,212785, Control_c, 0, 64, 61
2,212804, Control_c, 0, 64, 32
2,212821, Control_c, 0, 64, 19
2,213142, Note_on_c, 0, 50, 74
2,213142, Note_on_c, 0, 72, 86
2,213156, Note_on_c, 0, 68, 72
2,213251, Control_c, 0, 64, 15
2,213268, Note_on_c, 0, 60, 0
2,213327, Note_on_c, 0, 50, 0
2,213358, Note_on_c, 0, 72, 0
2,213532, Control_c, 0, 64, 0
2,213594, Note_on_c, 0, 70, 84
2,213597, Note_on_c, 0, 51, 73
2,213615, Note_on_c, 0, 56, 0
2,213664, Control_c, 0, 64, 23
2,213684, Control_c, 0, 64, 47
2,213703, Control_c, 0, 64, 67
2,213722, Control_c, 0, 64, 86
2,213742, Control_c, 0, 64, 115
2,213759, Control_c, 0, 64, 127
2,213768, Note_on_c, 0, 51, 0
2,214018, Note_on_c, 0, 77, 81
2,214028, Note_on_c, 0, 58, 94
2,214030, Note_on_c, 0, 67, 74
2,214038, Control_c, 0, 64, 120
2,214056, Control_c, 0, 64, 90
2,214057, Note_on_c, 0, 49, 75
2,214077, Control_c, 0, 64, 55
2,214087, Note_on_c, 0, 68, 0
2,214093, Control_c, 0, 64, 0
2,214094, Note_on_c, 0, 70, 0
2,214151, Control_c, 0, 64, 21
2,214170, Control_c, 0, 64, 56
2,214174, Note_on_c, 0, 67, 0
2,214189, Control_c, 0, 64, 82
2,214209, Control_c, 0, 64, 108
2,214219, Note_on_c, 0, 58, 0
2,214227, Control_c, 0, 64, 127
2,214244, Note_on_c, 0, 49, 0
2,214456, Control_c, 0, 64, 117
2,214460, Note_on_c, 0, 60, 87
2,214460, Note_on_c, 0, 75, 78
2,214463, Note_on_c, 0, 68, 80
2,214466, Note_on_c, 0, 48, 78
2,214474, Control_c, 0, 64, 87
2,214491, Control_c, 0, 64, 50
2,214509, Control_c, 0, 64, 0
2,214515, Note_on_c, 0, 77, 0
2,214623, Control_c, 0, 64, 30
2,214643, Control_c, 0, 64, 55
2,214651, Note_on_c, 0, 60, 0
2,214657, Note_on_c, 0, 51, 72
2,214661, Control_c, 0, 64, 76
2,214682, Control_c, 0, 64, 94
2,214701, Control_c, 0, 64, 118
2,214707, Note_on_c, 0, 48, 0
2,214719, Control_c, 0, 64, 127
2,214844, Note_on_c, 0, 68, 0
2,214849, Control_c, 0, 64, 121
2,214855, Note_on_c, 0, 53, 87
2,214860, Note_on_c, 0, 49, 81
2,214867, Control_c, 0, 64, 88
2,214889, Control_c, 0, 64, 42
2,214907, Control_c, 0, 64, 0
2,214922, Note_on_c, 0, 51, 0
2,214998, Control_c, 0, 64, 20
2,215017, Control_c, 0, 64, 51
2,215036, Control_c, 0, 64, 70
2,215053, Control_c, 0, 64, 83
2,215063, Note_on_c, 0, 49, 0
2,215071, Control_c, 0, 64, 97
2,215076, Note_on_c, 0, 48, 76
2,215083, Note_on_c, 0, 53, 0
2,215090, Control_c, 0, 64, 108
2,215110, Control_c, 0, 64, 118
2,215130, Control_c, 0, 64, 127
2,215282, Control_c, 0, 64, 112
2,215290, Note_on_c, 0, 70, 90
2,215300, Control_c, 0, 64, 86
2,215303, Note_on_c, 0, 55, 80
2,215305, Note_on_c, 0, 46, 76
2,215310, Note_on_c, 0, 48, 0
2,215320, Control_c, 0, 64, 50
2,215339, Control_c, 0, 64, 0
2,215452, Control_c, 0, 64, 19
2,215456, Note_on_c, 0, 75, 0
2,215473, Control_c, 0, 64, 50
2,215491, Control_c, 0, 64, 66
2,215507, Note_on_c, 0, 49, 72
2,215509, Control_c, 0, 64, 78
2,215515, Note_on_c, 0, 46, 0
2,215528, Control_c, 0, 64, 92
2,215546, Control_c, 0, 64, 108
2,215566, Control_c, 0, 64, 125
2,215652, Note_on_c, 0, 55, 0
2,215717, Control_c, 0, 64, 104
2,215718, Note_on_c, 0, 48, 74
2,215719, Note_on_c, 0, 73, 87
2,215737, Control_c, 0, 64, 71
2,215756, Control_c, 0, 64, 22
2,215773, Control_c, 0, 64, 0
2,215829, Control_c, 0, 64, 19
2,215850, Control_c, 0, 64, 51
2,215868, Control_c, 0, 64, 69
2,215875, Note_on_c, 0, 49, 0
2,215888, Control_c, 0, 64, 75
2,215891, Note_on_c, 0, 70, 0
2,215911, Note_on_c, 0, 73, 0
2,215938, Note_on_c, 0, 46, 76
2,215944, Note_on_c, 0, 48, 0
2,216052, Control_c, 0, 64, 77
2,216109, Control_c, 0, 64, 73
2,216130, Control_c, 0, 64, 63
2,216148, Control_c, 0, 64, 45
2,216160, Note_on_c, 0, 72, 76
2,216162, Note_on_c, 0, 46, 0
2,216166, Note_on_c, 0, 44, 78
2,216167, Control_c, 0, 64, 22
2,216167, Note_on_c, 0, 63, 75
2,216186, Control_c, 0, 64, 0
2,216281, Control_c, 0, 64, 14
2,216300, Control_c, 0, 64, 51
2,216319, Control_c, 0, 64, 67
2,216329, Note_on_c, 0, 44, 0
2,216337, Control_c, 0, 64, 73
2,216358, Control_c, 0, 64, 77
2,216376, Control_c, 0, 64, 83
2,216382, Note_on_c, 0, 75, 77
2,216396, Control_c, 0, 64, 95
2,216404, Note_on_c, 0, 72, 0
2,216413, Control_c, 0, 64, 107
2,216434, Control_c, 0, 64, 114
2,216507, Control_c, 0, 64, 104
2,216526, Control_c, 0, 64, 86
2,216546, Control_c, 0, 64, 59
2,216565, Control_c, 0, 64, 9
2,216583, Control_c, 0, 64, 0
2,216589, Note_on_c, 0, 73, 72
2,216597, Note_on_c, 0, 56, 81
2,216609, Note_on_c, 0, 63, 0
2,216613, Note_on_c, 0, 68, 59
2,216637, Note_on_c, 0, 75, 0
2,216659, Control_c, 0, 64, 26
2,216678, Control_c, 0, 64, 52
2,216697, Control_c, 0, 64, 67
2,216716, Control_c, 0, 64, 72
2,216745, Note_on_c, 0, 56, 0
2,216767, Note_on_c, 0, 73, 0
2,216771, Control_c, 0, 64, 75
2,216784, Note_on_c, 0, 72, 74
2,216789, Control_c, 0, 64, 79
2,216808, Control_c, 0, 64, 87
2,216827, Control_c, 0, 64, 96
2,216846, Control_c, 0, 64, 102
2,216938, Control_c, 0, 64, 91
2,216959, Control_c, 0, 64, 70
2,216975, Control_c, 0, 64, 43
2,216995, Control_c, 0, 64, 0
2,217011, Note_on_c, 0, 72, 0
2,217012, Note_on_c, 0, 67, 66
2,217014, Note_on_c, 0, 58, 80
2,217020, Note_on_c, 0, 70, 72
2,217031, Note_on_c, 0, 68, 0
2,217091, Control_c, 0, 64, 10
2,217110, Control_c, 0, 64, 30
2,217129, Control_c, 0, 64, 47
2,217145, Control_c, 0, 64, 59
2,217165, Control_c, 0, 64, 63
2,217200, Note_on_c, 0, 55, 67
2,217212, Note_on_c, 0, 73, 77
2,217216, Note_on_c, 0, 58, 0
2,217219, Control_c, 0, 64, 60
2,217234, Note_on_c, 0, 70, 0
2,217240, Control_c, 0, 64, 56
2,217260, Control_c, 0, 64, 48
2,217279, Control_c, 0, 64, 35
2,217297, Control_c, 0, 64, 18
2,217317, Control_c, 0, 64, 0
2,217403, Note_on_c, 0, 56, 75
2,217422, Note_on_c, 0, 55, 0
2,217424, Note_on_c, 0, 72, 71
2,217425, Note_on_c, 0, 66, 66
2,217429, Control_c, 0, 64, 36
2,217446, Note_on_c, 0, 67, 0
2,217447, Control_c, 0, 64, 60
2,217465, Control_c, 0, 64, 75
2,217486, Control_c, 0, 64, 88
2,217493, Note_on_c, 0, 73, 0
2,217504, Control_c, 0, 64, 97
2,217547, Note_on_c, 0, 66, 0
2,217563, Control_c, 0, 64, 92
2,217597, Note_on_c, 0, 58, 80
2,217608, Note_on_c, 0, 70, 77
2,217618, Control_c, 0, 64, 96
2,217626, Note_on_c, 0, 56, 0
2,217654, Note_on_c, 0, 72, 0
2,217655, Control_c, 0, 64, 101
2,217675, Control_c, 0, 64, 109
2,217693, Control_c, 0, 64, 120
2,217711, Control_c, 0, 64, 127
2,217789, Control_c, 0, 64, 108
2,217802, Note_on_c, 0, 68, 72
2,217806, Note_on_c, 0, 56, 71
2,217808, Control_c, 0, 64, 84
2,217816, Note_on_c, 0, 60, 72
2,217817, Note_on_c, 0, 65, 64
2,217819, Note_on_c, 0, 58, 0
2,217827, Control_c, 0, 64, 59
2,217835, Note_on_c, 0, 70, 0
2,217862, Control_c, 0, 64, 39
2,217876, Note_on_c, 0, 56, 0
2,217879, Note_on_c, 0, 60, 0
2,217900, Control_c, 0, 64, 56
2,217920, Control_c, 0, 64, 71
2,217937, Control_c, 0, 64, 76
2,217957, Control_c, 0, 64, 73
2,217976, Control_c, 0, 64, 67
2,217995, Control_c, 0, 64, 60
2,218016, Control_c, 0, 64, 57
2,218028, Note_on_c, 0, 72, 70
2,218032, Control_c, 0, 64, 59
2,218038, Note_on_c, 0, 65, 0
2,218042, Note_on_c, 0, 56, 75
2,218042, Note_on_c, 0, 68, 0
2,218050, Control_c, 0, 64, 62
2,218146, Control_c, 0, 64, 61
2,218167, Control_c, 0, 64, 55
2,218182, Control_c, 0, 64, 48
2,218233, Note_on_c, 0, 70, 76
2,218235, Note_on_c, 0, 58, 71
2,218249, Note_on_c, 0, 64, 65
2,218281, Note_on_c, 0, 72, 0
2,218298, Control_c, 0, 64, 53
2,218317, Control_c, 0, 64, 63
2,218334, Control_c, 0, 64, 68
2,218392, Control_c, 0, 64, 70
2,218393, Note_on_c, 0, 64, 0
2,218411, Control_c, 0, 64, 73
2,218416, Note_on_c, 0, 60, 70
2,218432, Control_c, 0, 64, 78
2,218440, Note_on_c, 0, 68, 75
2,218443, Note_on_c, 0, 58, 0
2,218454, Control_c, 0, 64, 82
2,218471, Control_c, 0, 64, 86
2,218490, Control_c, 0, 64, 90
2,218506, Note_on_c, 0, 70, 0
2,218586, Control_c, 0, 64, 80
2,218604, Control_c, 0, 64, 66
2,218623, Control_c, 0, 64, 47
2,218635, Note_on_c, 0, 61, 70
2,218635, Note_on_c, 0, 68, 0
2,218636, Note_on_c, 0, 60, 0
2,218641, Control_c, 0, 64, 15
2,218646, Note_on_c, 0, 67, 77
2,218660, Control_c, 0, 64, 0
2,218660, Note_on_c, 0, 63, 69
2,218703, Note_on_c, 0, 56, 0
2,218736, Control_c, 0, 64, 29
2,218755, Control_c, 0, 64, 53
2,218772, Control_c, 0, 64, 68
2,218794, Control_c, 0, 64, 75
2,218827, Control_c, 0, 64, 77
2,218846, Note_on_c, 0, 63, 0
2,218847, Control_c, 0, 64, 80
2,218847, Note_on_c, 0, 58, 69
2,218847, Note_on_c, 0, 61, 0
2,218847, Note_on_c, 0, 70, 76
2,218865, Note_on_c, 0, 67, 0
2,218868, Control_c, 0, 64, 82
2,218887, Control_c, 0, 64, 86
2,218905, Control_c, 0, 64, 92
2,218923, Control_c, 0, 64, 96
2,218998, Control_c, 0, 64, 87
2,219018, Control_c, 0, 64, 74
2,219037, Control_c, 0, 64, 57
2,219053, Note_on_c, 0, 60, 62
2,219053, Note_on_c, 0, 68, 76
2,219056, Control_c, 0, 64, 36
2,219060, Note_on_c, 0, 56, 59
2,219075, Control_c, 0, 64, 20
2,219091, Note_on_c, 0, 70, 0
2,219093, Note_on_c, 0, 58, 0
2,219130, Control_c, 0, 64, 16
2,219239, Note_on_c, 0, 60, 0
2,219263, Note_on_c, 0, 61, 64
2,219472, Note_on_c, 0, 56, 0
2,219481, Note_on_c, 0, 55, 62
2,219483, Note_on_c, 0, 63, 64
2,219494, Note_on_c, 0, 61, 0
2,219609, Note_on_c, 0, 68, 0
2,219648, Note_on_c, 0, 63, 0
2,219668, Note_on_c, 0, 56, 57
2,219673, Note_on_c, 0, 55, 0
2,219680, Note_on_c, 0, 60, 52
2,219711, Note_on_c, 0, 59, 34
2,219780, Note_on_c, 0, 59, 0
2,219903, Note_on_c, 0, 67, 73
2,219913, Note_on_c, 0, 60, 0
2,219915, Note_on_c, 0, 58, 65
2,219923, Note_on_c, 0, 56, 0
2,219924, Note_on_c, 0, 61, 57
2,220384, Note_on_c, 0, 51, 54
2,220397, Note_on_c, 0, 61, 0
2,220403, Note_on_c, 0, 73, 58
2,220433, Note_on_c, 0, 58, 0
2,220454, Note_on_c, 0, 67, 0
2,220852, Note_on_c, 0, 72, 60
2,220854, Note_on_c, 0, 63, 65
2,220857, Note_on_c, 0, 54, 60
2,220940, Note_on_c, 0, 51, 0
2,220941, Note_on_c, 0, 73, 0
2,221049, Note_on_c, 0, 70, 63
2,221060, Note_on_c, 0, 72, 0
2,221280, Note_on_c, 0, 72, 65
2,221285, Note_on_c, 0, 70, 0
2,221293, Note_on_c, 0, 56, 58
2,221365, Note_on_c, 0, 63, 0
2,221709, Note_on_c, 0, 73, 65
2,221725, Note_on_c, 0, 72, 0
2,221728, Note_on_c, 0, 58, 53
2,221729, Note_on_c, 0, 53, 53
2,221774, Note_on_c, 0, 54, 0
2,221778, Note_on_c, 0, 56, 0
2,221899, Note_on_c, 0, 60, 64
2,221906, Note_on_c, 0, 58, 0
2,222055, Control_c, 0, 64, 0
2,222126, Note_on_c, 0, 60, 0
2,222147, Note_on_c, 0, 58, 63
2,222148, Note_on_c, 0, 73, 0
2,222152, Note_on_c, 0, 66, 65
2,222188, Control_c, 0, 64, 26
2,222208, Control_c, 0, 64, 49
2,222226, Control_c, 0, 64, 66
2,222246, Control_c, 0, 64, 77
2,222263, Control_c, 0, 64, 86
2,222273, Note_on_c, 0, 53, 0
2,222276, Note_on_c, 0, 58, 0
2,222284, Control_c, 0, 64, 92
2,222547, Control_c, 0, 64, 86
2,222564, Control_c, 0, 64, 78
2,222584, Control_c, 0, 64, 67
2,222602, Control_c, 0, 64, 54
2,222605, Note_on_c, 0, 60, 45
2,222606, Note_on_c, 0, 51, 63
2,222623, Control_c, 0, 64, 43
2,222641, Control_c, 0, 64, 35
2,222675, Control_c, 0, 64, 31
2,222727, Note_on_c, 0, 60, 0
2,222789, Note_on_c, 0, 61, 50
2,222980, Note_on_c, 0, 61, 0
2,223036, Note_on_c, 0, 46, 62
2,223039, Note_on_c, 0, 63, 52
2,223057, Note_on_c, 0, 66, 0
2,223114, Note_on_c, 0, 51, 0
2,223460, Note_on_c, 0, 66, 72
2,223468, Note_on_c, 0, 48, 62
2,223489, Note_on_c, 0, 46, 0
2,223655, Note_on_c, 0, 48, 0
2,223667, Note_on_c, 0, 49, 67
2,223917, Note_on_c, 0, 48, 65
2,223919, Note_on_c, 0, 75, 71
2,223926, Note_on_c, 0, 49, 0
2,223933, Control_c, 0, 64, 27
2,223966, Note_on_c, 0, 63, 0
2,223979, Note_on_c, 0, 66, 0
2,224047, Control_c, 0, 64, 33
2,224066, Control_c, 0, 64, 38
2,224085, Control_c, 0, 64, 48
2,224104, Control_c, 0, 64, 57
2,224124, Control_c, 0, 64, 61
2,224142, Control_c, 0, 64, 64
2,224162, Control_c, 0, 64, 66
2,224179, Control_c, 0, 64, 69
2,224199, Control_c, 0, 64, 72
2,224216, Control_c, 0, 64, 77
2,224237, Control_c, 0, 64, 81
2,224294, Control_c, 0, 64, 76
2,224314, Control_c, 0, 64, 69
2,224331, Control_c, 0, 64, 60
2,224331, Note_on_c, 0, 73, 71
2,224346, Note_on_c, 0, 44, 59
2,224351, Control_c, 0, 64, 50
2,224357, Note_on_c, 0, 66, 52
2,224369, Control_c, 0, 64, 39
2,224389, Control_c, 0, 64, 27
2,224397, Note_on_c, 0, 48, 0
2,224406, Control_c, 0, 64, 18
2,224479, Note_on_c, 0, 75, 0
2,224520, Control_c, 0, 64, 30
2,224527, Note_on_c, 0, 72, 77
2,224541, Control_c, 0, 64, 44
2,224560, Control_c, 0, 64, 57
2,224576, Note_on_c, 0, 73, 0
2,224594, Control_c, 0, 64, 61
2,224648, Control_c, 0, 64, 62
2,224705, Control_c, 0, 64, 60
2,224723, Control_c, 0, 64, 53
2,224741, Control_c, 0, 64, 44
2,224759, Control_c, 0, 64, 36
2,224773, Note_on_c, 0, 46, 71
2,224780, Control_c, 0, 64, 25
2,224784, Note_on_c, 0, 73, 77
2,224787, Note_on_c, 0, 44, 0
2,224798, Control_c, 0, 64, 12
2,224818, Control_c, 0, 64, 0
2,224857, Note_on_c, 0, 72, 0
2,224911, Control_c, 0, 64, 28
2,224931, Control_c, 0, 64, 47
2,224950, Control_c, 0, 64, 62
2,224967, Control_c, 0, 64, 69
2,224979, Note_on_c, 0, 66, 0
2,224986, Control_c, 0, 64, 74
2,225005, Control_c, 0, 64, 78
2,225025, Control_c, 0, 64, 85
2,225044, Control_c, 0, 64, 93
2,225063, Control_c, 0, 64, 100
2,225083, Control_c, 0, 64, 105
2,225157, Control_c, 0, 64, 92
2,225177, Control_c, 0, 64, 76
2,225187, Note_on_c, 0, 75, 77
2,225196, Control_c, 0, 64, 56
2,225199, Note_on_c, 0, 65, 72
2,225204, Note_on_c, 0, 48, 67
2,225208, Note_on_c, 0, 73, 0
2,225215, Control_c, 0, 64, 36
2,225233, Control_c, 0, 64, 30
2,225234, Note_on_c, 0, 46, 0
2,225252, Note_on_c, 0, 65, 0
2,225273, Control_c, 0, 64, 46
2,225291, Control_c, 0, 64, 64
2,225311, Control_c, 0, 64, 74
2,225329, Control_c, 0, 64, 80
2,225350, Control_c, 0, 64, 83
2,225366, Control_c, 0, 64, 86
2,225371, Note_on_c, 0, 63, 72
2,225405, Control_c, 0, 64, 91
2,225441, Control_c, 0, 64, 96
2,225446, Note_on_c, 0, 63, 0
2,225479, Control_c, 0, 64, 100
2,225621, Note_on_c, 0, 48, 0
2,225627, Control_c, 0, 64, 87
2,225644, Note_on_c, 0, 49, 68
2,225645, Note_on_c, 0, 68, 72
2,225646, Control_c, 0, 64, 71
2,225650, Note_on_c, 0, 65, 72
2,225666, Control_c, 0, 64, 49
2,225686, Control_c, 0, 64, 25
2,225702, Control_c, 0, 64, 8
2,225722, Control_c, 0, 64, 0
2,225759, Note_on_c, 0, 75, 0
2,225836, Control_c, 0, 64, 26
2,225845, Note_on_c, 0, 68, 0
2,225854, Control_c, 0, 64, 46
2,225873, Control_c, 0, 64, 64
2,225892, Control_c, 0, 64, 75
2,225911, Control_c, 0, 64, 84
2,225928, Control_c, 0, 64, 91
2,225949, Control_c, 0, 64, 97
2,225967, Control_c, 0, 64, 105
2,225987, Control_c, 0, 64, 112
2,226006, Control_c, 0, 64, 116
2,226086, Note_on_c, 0, 68, 78
2,226101, Control_c, 0, 64, 110
2,226103, Note_on_c, 0, 47, 69
2,226120, Control_c, 0, 64, 101
2,226141, Control_c, 0, 64, 86
2,226144, Note_on_c, 0, 65, 0
2,226146, Note_on_c, 0, 49, 0
2,226159, Control_c, 0, 64, 69
2,226179, Control_c, 0, 64, 52
2,226196, Control_c, 0, 64, 43
2,226217, Control_c, 0, 64, 40
2,226311, Control_c, 0, 64, 36
2,226514, Control_c, 0, 64, 29
2,226533, Control_c, 0, 64, 18
2,226550, Note_on_c, 0, 46, 68
2,226553, Control_c, 0, 64, 0
2,226553, Note_on_c, 0, 62, 80
2,226567, Note_on_c, 0, 47, 0
2,226665, Control_c, 0, 64, 24
2,226683, Control_c, 0, 64, 50
2,226704, Control_c, 0, 64, 71
2,226705, Note_on_c, 0, 68, 0
2,226720, Control_c, 0, 64, 86
2,226720, Note_on_c, 0, 62, 0
2,226741, Control_c, 0, 64, 100
2,226760, Control_c, 0, 64, 105
2,226817, Control_c, 0, 64, 109
2,226980, Note_on_c, 0, 68, 86
2,226987, Note_on_c, 0, 44, 65
2,227068, Note_on_c, 0, 46, 0
2,227077, Control_c, 0, 64, 105
2,227151, Control_c, 0, 64, 101
2,227157, Note_on_c, 0, 42, 76
2,227185, Note_on_c, 0, 44, 0
2,227342, Control_c, 0, 64, 97
2,227360, Control_c, 0, 64, 87
2,227378, Control_c, 0, 64, 71
2,227398, Control_c, 0, 64, 46
2,227408, Note_on_c, 0, 77, 84
2,227415, Note_on_c, 0, 44, 77
2,227418, Control_c, 0, 64, 16
2,227435, Control_c, 0, 64, 0
2,227470, Note_on_c, 0, 42, 0
2,227476, Note_on_c, 0, 68, 0
2,227546, Control_c, 0, 64, 20
2,227547, Note_on_c, 0, 46, 6
2,227564, Control_c, 0, 64, 42
2,227585, Control_c, 0, 64, 62
2,227602, Control_c, 0, 64, 74
2,227620, Control_c, 0, 64, 83
2,227630, Note_on_c, 0, 46, 0
2,227638, Control_c, 0, 64, 90
2,227660, Control_c, 0, 64, 98
2,227677, Control_c, 0, 64, 107
2,227698, Control_c, 0, 64, 116
2,227716, Control_c, 0, 64, 126
2,227757, Note_on_c, 0, 44, 0
2,227848, Control_c, 0, 64, 117
2,227859, Note_on_c, 0, 58, 80
2,227862, Note_on_c, 0, 75, 85
2,227867, Control_c, 0, 64, 93
2,227873, Note_on_c, 0, 46, 66
2,227887, Control_c, 0, 64, 66
2,227902, Note_on_c, 0, 77, 0
2,227904, Control_c, 0, 64, 39
2,227923, Control_c, 0, 64, 32
2,227944, Control_c, 0, 64, 39
2,227961, Control_c, 0, 64, 61
2,227981, Control_c, 0, 64, 77
2,228000, Control_c, 0, 64, 91
2,228018, Control_c, 0, 64, 100
2,228020, Note_on_c, 0, 46, 0
2,228039, Note_on_c, 0, 74, 85
2,228073, Note_on_c, 0, 75, 0
2,228074, Control_c, 0, 64, 106
2,228093, Control_c, 0, 64, 111
2,228111, Control_c, 0, 64, 116
2,228131, Control_c, 0, 64, 124
2,228246, Note_on_c, 0, 58, 0
2,228265, Control_c, 0, 64, 111
2,228276, Note_on_c, 0, 75, 82
2,228282, Note_on_c, 0, 48, 79
2,228283, Note_on_c, 0, 68, 80
2,228284, Control_c, 0, 64, 89
2,228302, Control_c, 0, 64, 61
2,228319, Control_c, 0, 64, 25
2,228323, Note_on_c, 0, 74, 0
2,228338, Control_c, 0, 64, 0
2,228395, Control_c, 0, 64, 28
2,228432, Control_c, 0, 64, 54
2,228450, Control_c, 0, 64, 73
2,228470, Control_c, 0, 64, 87
2,228489, Control_c, 0, 64, 100
2,228497, Note_on_c, 0, 68, 0
2,228504, Control_c, 0, 64, 109
2,228526, Control_c, 0, 64, 117
2,228544, Control_c, 0, 64, 127
2,228676, Control_c, 0, 64, 122
2,228689, Note_on_c, 0, 77, 78
2,228696, Control_c, 0, 64, 97
2,228696, Note_on_c, 0, 50, 80
2,228701, Note_on_c, 0, 66, 76
2,228715, Control_c, 0, 64, 64
2,228732, Control_c, 0, 64, 22
2,228751, Control_c, 0, 64, 0
2,228775, Note_on_c, 0, 75, 0
2,228777, Note_on_c, 0, 48, 0
2,228790, Control_c, 0, 64, 31
2,228799, Note_on_c, 0, 66, 0
2,228806, Control_c, 0, 64, 61
2,228811, Note_on_c, 0, 77, 0
2,228826, Control_c, 0, 64, 82
2,228846, Control_c, 0, 64, 100
2,228864, Control_c, 0, 64, 109
2,228887, Note_on_c, 0, 65, 76
2,228959, Control_c, 0, 64, 115
2,228978, Control_c, 0, 64, 120
2,228996, Control_c, 0, 64, 126
2,229104, Note_on_c, 0, 70, 80
2,229111, Note_on_c, 0, 66, 75
2,229121, Note_on_c, 0, 51, 75
2,229129, Control_c, 0, 64, 112
2,229141, Note_on_c, 0, 50, 0
2,229144, Note_on_c, 0, 65, 0
2,229146, Control_c, 0, 64, 96
2,229168, Control_c, 0, 64, 78
2,229187, Control_c, 0, 64, 58
2,229204, Control_c, 0, 64, 45
2,229223, Control_c, 0, 64, 41
2,229290, Note_on_c, 0, 50, 75
2,229298, Note_on_c, 0, 66, 0
2,229299, Note_on_c, 0, 65, 82
2,229305, Note_on_c, 0, 51, 0
2,229503, Control_c, 0, 64, 37
2,229518, Note_on_c, 0, 51, 75
2,229520, Note_on_c, 0, 66, 85
2,229541, Note_on_c, 0, 65, 0
2,229559, Note_on_c, 0, 50, 0
2,229701, Note_on_c, 0, 53, 77
2,229727, Note_on_c, 0, 51, 0
2,229862, Control_c, 0, 64, 32
2,229881, Control_c, 0, 64, 24
2,229900, Control_c, 0, 64, 16
2,229937, Control_c, 0, 64, 0
2,229945, Note_on_c, 0, 60, 84
2,229947, Note_on_c, 0, 54, 72
2,229981, Note_on_c, 0, 53, 0
2,229983, Note_on_c, 0, 66, 0
2,230042, Note_on_c, 0, 70, 0
2,230049, Control_c, 0, 64, 26
2,230069, Control_c, 0, 64, 48
2,230090, Control_c, 0, 64, 67
2,230107, Control_c, 0, 64, 81
2,230127, Control_c, 0, 64, 96
2,230146, Control_c, 0, 64, 108
2,230163, Control_c, 0, 64, 115
2,230182, Control_c, 0, 64, 122
2,230201, Control_c, 0, 64, 127
2,230400, Note_on_c, 0, 69, 83
2,230415, Note_on_c, 0, 53, 68
2,230453, Note_on_c, 0, 54, 0
2,230481, Control_c, 0, 64, 122
2,230499, Control_c, 0, 64, 113
2,230519, Control_c, 0, 64, 103
2,230538, Control_c, 0, 64, 94
2,230587, Note_on_c, 0, 67, 88
2,230615, Control_c, 0, 64, 100
2,230630, Note_on_c, 0, 69, 0
2,230651, Control_c, 0, 64, 105
2,230726, Control_c, 0, 64, 100
2,230745, Control_c, 0, 64, 88
2,230766, Control_c, 0, 64, 69
2,230783, Control_c, 0, 64, 42
2,230802, Control_c, 0, 64, 0
2,230818, Note_on_c, 0, 69, 91
2,230822, Note_on_c, 0, 51, 76
2,230842, Note_on_c, 0, 53, 0
2,230869, Note_on_c, 0, 67, 0
2,230897, Control_c, 0, 64, 10
2,230915, Control_c, 0, 64, 43
2,230928, Note_on_c, 0, 60, 0
2,230935, Control_c, 0, 64, 70
2,230954, Control_c, 0, 64, 92
2,230959, Note_on_c, 0, 69, 0
2,230972, Control_c, 0, 64, 121
2,230990, Control_c, 0, 64, 127
2,231254, Note_on_c, 0, 58, 84
2,231255, Note_on_c, 0, 70, 88
2,231271, Note_on_c, 0, 49, 77
2,231309, Control_c, 0, 64, 105
2,231329, Control_c, 0, 64, 77
2,231342, Note_on_c, 0, 51, 0
2,231347, Control_c, 0, 64, 45
2,231367, Control_c, 0, 64, 18
2,231403, Control_c, 0, 64, 29
2,231423, Control_c, 0, 64, 59
2,231432, Note_on_c, 0, 70, 0
2,231440, Control_c, 0, 64, 84
2,231459, Control_c, 0, 64, 114
2,231478, Control_c, 0, 64, 127
2,231722, Note_on_c, 0, 63, 86
2,231747, Note_on_c, 0, 48, 74
2,231782, Control_c, 0, 64, 102
2,231796, Note_on_c, 0, 49, 0
2,231800, Control_c, 0, 64, 69
2,231819, Control_c, 0, 64, 27
2,231839, Control_c, 0, 64, 0
2,231913, Control_c, 0, 64, 34
2,231932, Control_c, 0, 64, 62
2,231951, Control_c, 0, 64, 81
2,231970, Control_c, 0, 64, 103
2,231974, Note_on_c, 0, 58, 0
2,231988, Control_c, 0, 64, 126
2,232159, Note_on_c, 0, 49, 75
2,232164, Note_on_c, 0, 57, 81
2,232195, Note_on_c, 0, 48, 0
2,232198, Control_c, 0, 64, 102
2,232218, Control_c, 0, 64, 69
2,232236, Control_c, 0, 64, 20
2,232270, Control_c, 0, 64, 0
2,232309, Control_c, 0, 64, 31
2,232328, Control_c, 0, 64, 67
2,232345, Control_c, 0, 64, 94
2,232363, Note_on_c, 0, 55, 83
2,232366, Control_c, 0, 64, 126
2,232390, Note_on_c, 0, 57, 0
2,232573, Control_c, 0, 64, 96
2,232590, Control_c, 0, 64, 55
2,232592, Note_on_c, 0, 57, 89
2,232597, Note_on_c, 0, 48, 79
2,232611, Control_c, 0, 64, 0
2,232628, Note_on_c, 0, 55, 0
2,232631, Note_on_c, 0, 49, 0
2,232686, Control_c, 0, 64, 42
2,232704, Control_c, 0, 64, 77
2,232726, Control_c, 0, 64, 108
2,232743, Control_c, 0, 64, 127
2,232752, Note_on_c, 0, 57, 0
2,232778, Note_on_c, 0, 48, 0
2,233043, Note_on_c, 0, 60, 92
2,233044, Control_c, 0, 64, 123
2,233054, Note_on_c, 0, 47, 79
2,233063, Control_c, 0, 64, 86
2,233082, Control_c, 0, 64, 41
2,233088, Note_on_c, 0, 46, 24
2,233102, Control_c, 0, 64, 0
2,233108, Note_on_c, 0, 46, 0
2,233120, Control_c, 0, 64, 19
2,233127, Note_on_c, 0, 47, 0
2,233138, Control_c, 0, 64, 60
2,233159, Control_c, 0, 64, 95
2,233177, Control_c, 0, 64, 127
2,233544, Note_on_c, 0, 53, 92
2,233551, Control_c, 0, 64, 107
2,233564, Note_on_c, 0, 45, 76
2,233570, Control_c, 0, 64, 70
2,233573, Note_on_c, 0, 43, 73
2,233589, Control_c, 0, 64, 17
2,233608, Control_c, 0, 64, 0
2,233646, Note_on_c, 0, 60, 0
2,233702, Control_c, 0, 64, 23
2,233721, Control_c, 0, 64, 57
2,233740, Control_c, 0, 64, 78
2,233751, Note_on_c, 0, 43, 0
2,233758, Control_c, 0, 64, 97
2,233778, Control_c, 0, 64, 117
2,233795, Control_c, 0, 64, 127
2,234022, Control_c, 0, 64, 103
2,234039, Note_on_c, 0, 41, 84
2,234041, Control_c, 0, 64, 57
2,234044, Note_on_c, 0, 61, 89
2,234061, Control_c, 0, 64, 0
2,234067, Note_on_c, 0, 45, 0
2,234190, Control_c, 0, 64, 24
2,234209, Control_c, 0, 64, 42
2,234219, Note_on_c, 0, 41, 0
2,234228, Control_c, 0, 64, 66
2,234247, Control_c, 0, 64, 90
2,234264, Control_c, 0, 64, 119
2,234276, Note_on_c, 0, 60, 86
2,234283, Control_c, 0, 64, 127
2,234287, Note_on_c, 0, 61, 0
2,234305, Note_on_c, 0, 63, 0
2,234597, Note_on_c, 0, 46, 97
2,234612, Note_on_c, 0, 61, 87
2,234624, Control_c, 0, 64, 112
2,234642, Control_c, 0, 64, 73
2,234658, Note_on_c, 0, 60, 0
2,234660, Control_c, 0, 64, 22
2,234680, Control_c, 0, 64, 0
2,234745, Note_on_c, 0, 53, 0
2,234794, Control_c, 0, 64, 33
2,234812, Control_c, 0, 64, 63
2,234831, Control_c, 0, 64, 80
2,234851, Control_c, 0, 64, 97
2,234869, Control_c, 0, 64, 109
2,234888, Control_c, 0, 64, 115
2,234928, Control_c, 0, 64, 121
2,234964, Control_c, 0, 64, 126
2,235173, Note_on_c, 0, 70, 88
2,235201, Note_on_c, 0, 51, 72
2,235327, Note_on_c, 0, 46, 0
2,235355, Note_on_c, 0, 61, 0
2,235362, Note_on_c, 0, 49, 80
2,235369, Note_on_c, 0, 51, 0
2,235581, Note_on_c, 0, 49, 0
2,235602, Note_on_c, 0, 48, 74
2,235611, Note_on_c, 0, 66, 92
2,235619, Note_on_c, 0, 51, 70
2,235638, Control_c, 0, 64, 117
2,235657, Control_c, 0, 64, 87
2,235677, Control_c, 0, 64, 49
2,235694, Control_c, 0, 64, 0
2,235827, Control_c, 0, 64, 18
2,235846, Control_c, 0, 64, 51
2,235864, Control_c, 0, 64, 66
2,235884, Control_c, 0, 64, 75
2,235890, Note_on_c, 0, 70, 0
2,235903, Control_c, 0, 64, 85
2,235920, Control_c, 0, 64, 97
2,235939, Control_c, 0, 64, 107
2,235958, Control_c, 0, 64, 113
2,236053, Control_c, 0, 64, 119
2,236053, Note_on_c, 0, 69, 84
2,236056, Note_on_c, 0, 63, 80
2,236107, Control_c, 0, 64, 125
2,236109, Note_on_c, 0, 66, 0
2,236219, Note_on_c, 0, 69, 0
2,236464, Control_c, 0, 64, 111
2,236485, Control_c, 0, 64, 77
2,236485, Note_on_c, 0, 70, 82
2,236492, Note_on_c, 0, 65, 83
2,236504, Control_c, 0, 64, 32
2,236523, Control_c, 0, 64, 0
2,236551, Note_on_c, 0, 63, 0
2,236581, Control_c, 0, 64, 13
2,236599, Control_c, 0, 64, 47
2,236619, Control_c, 0, 64, 72
2,236638, Control_c, 0, 64, 91
2,236655, Control_c, 0, 64, 113
2,236675, Control_c, 0, 64, 126
2,236676, Note_on_c, 0, 51, 0
2,236679, Note_on_c, 0, 48, 0
2,236883, Control_c, 0, 64, 119
2,236900, Note_on_c, 0, 49, 87
2,236901, Control_c, 0, 64, 91
2,236906, Note_on_c, 0, 61, 84
2,236921, Control_c, 0, 64, 52
2,236939, Control_c, 0, 64, 0
2,237013, Control_c, 0, 64, 29
2,237032, Control_c, 0, 64, 60
2,237067, Control_c, 0, 64, 78
2,237074, Note_on_c, 0, 49, 0
2,237088, Control_c, 0, 64, 90
2,237106, Control_c, 0, 64, 95
2,237120, Note_on_c, 0, 67, 78
2,237142, Control_c, 0, 64, 99
2,237163, Control_c, 0, 64, 103
2,237181, Control_c, 0, 64, 111
2,237200, Control_c, 0, 64, 124
2,237282, Note_on_c, 0, 67, 0
2,237284, Note_on_c, 0, 70, 0
2,237309, Note_on_c, 0, 65, 0
2,237333, Control_c, 0, 64, 103
2,237351, Control_c, 0, 64, 70
2,237352, Note_on_c, 0, 66, 80
2,237362, Note_on_c, 0, 51, 93
2,237370, Control_c, 0, 64, 21
2,237388, Control_c, 0, 64, 0
2,237446, Control_c, 0, 64, 33
2,237462, Control_c, 0, 64, 62
2,237483, Control_c, 0, 64, 82
2,237501, Control_c, 0, 64, 101
2,237520, Control_c, 0, 64, 109
2,237542, Note_on_c, 0, 61, 0
2,237690, Control_c, 0, 64, 115
2,237728, Control_c, 0, 64, 119
2,237767, Control_c, 0, 64, 106
2,237785, Control_c, 0, 64, 87
2,237801, Note_on_c, 0, 63, 87
2,237804, Control_c, 0, 64, 61
2,237804, Note_on_c, 0, 45, 69
2,237807, Note_on_c, 0, 60, 82
2,237825, Control_c, 0, 64, 16
2,237833, Note_on_c, 0, 51, 0
2,237841, Control_c, 0, 64, 0
2,237873, Note_on_c, 0, 66, 0
2,237973, Control_c, 0, 64, 48
2,237992, Control_c, 0, 64, 70
2,238023, Note_on_c, 0, 63, 0
2,238025, Control_c, 0, 64, 86
2,238047, Control_c, 0, 64, 105
2,238066, Control_c, 0, 64, 118
2,238085, Control_c, 0, 64, 127
2,238271, Note_on_c, 0, 46, 71
2,238274, Note_on_c, 0, 62, 90
2,238280, Note_on_c, 0, 65, 81
2,238293, Control_c, 0, 64, 98
2,238311, Control_c, 0, 64, 63
2,238317, Note_on_c, 0, 45, 0
2,238330, Control_c, 0, 64, 0
2,238406, Control_c, 0, 64, 11
2,238423, Control_c, 0, 64, 50
2,238430, Note_on_c, 0, 62, 0
2,238442, Control_c, 0, 64, 78
2,238446, Note_on_c, 0, 65, 0
2,238461, Control_c, 0, 64, 103
2,238480, Control_c, 0, 64, 127
2,238694, Note_on_c, 0, 74, 88
2,238705, Control_c, 0, 64, 120
2,238706, Note_on_c, 0, 59, 88
2,238708, Note_on_c, 0, 68, 81
2,238727, Control_c, 0, 64, 86
2,238744, Control_c, 0, 64, 42
2,238764, Control_c, 0, 64, 0
2,238772, Note_on_c, 0, 60, 0
2,238808, Note_on_c, 0, 59, 0
2,238819, Control_c, 0, 64, 26
2,238840, Control_c, 0, 64, 61
2,238854, Note_on_c, 0, 68, 0
2,238857, Control_c, 0, 64, 86
2,238858, Note_on_c, 0, 46, 0
2,238864, Note_on_c, 0, 74, 0
2,238878, Control_c, 0, 64, 112
2,238895, Control_c, 0, 64, 127
2,239050, Note_on_c, 0, 75, 22
2,239064, Note_on_c, 0, 75, 0
2,239150, Note_on_c, 0, 66, 83
2,239153, Note_on_c, 0, 75, 92
2,239154, Control_c, 0, 64, 103
2,239164, Note_on_c, 0, 58, 75
2,239165, Note_on_c, 0, 48, 81
2,239174, Control_c, 0, 64, 65
2,239193, Control_c, 0, 64, 0
2,239230, Note_on_c, 0, 56, 22
2,239231, Note_on_c, 0, 56, 0
2,239245, Note_on_c, 0, 76, 32
2,239270, Control_c, 0, 64, 35
2,239279, Note_on_c, 0, 58, 0
2,239289, Control_c, 0, 64, 67
2,239298, Note_on_c, 0, 76, 0
2,239305, Note_on_c, 0, 48, 0
2,239307, Control_c, 0, 64, 89
2,239327, Control_c, 0, 64, 113
2,239345, Control_c, 0, 64, 126
2,239534, Control_c, 0, 64, 118
2,239553, Control_c, 0, 64, 87
2,239568, Note_on_c, 0, 48, 76
2,239570, Note_on_c, 0, 73, 87
2,239572, Control_c, 0, 64, 49
2,239586, Note_on_c, 0, 58, 63
2,239590, Control_c, 0, 64, 0
2,239621, Note_on_c, 0, 75, 0
2,239628, Control_c, 0, 64, 23
2,239648, Control_c, 0, 64, 62
2,239666, Control_c, 0, 64, 92
2,239686, Control_c, 0, 64, 124
2,239686, Note_on_c, 0, 48, 0
2,239686, Note_on_c, 0, 58, 0
2,239771, Note_on_c, 0, 72, 87
2,239804, Note_on_c, 0, 73, 0
2,239839, Note_on_c, 0, 66, 0
2,239946, Note_on_c, 0, 72, 0
2,239985, Control_c, 0, 64, 100
2,239991, Note_on_c, 0, 77, 88
2,240002, Note_on_c, 0, 48, 70
2,240004, Control_c, 0, 64, 65
2,240021, Control_c, 0, 64, 23
2,240042, Control_c, 0, 64, 10
2,240060, Control_c, 0, 64, 29
2,240078, Control_c, 0, 64, 66
2,240096, Control_c, 0, 64, 93
2,240114, Control_c, 0, 64, 125
2,240186, Note_on_c, 0, 58, 51
2,240207, Note_on_c, 0, 46, 66
2,240207, Note_on_c, 0, 48, 0
2,240259, Note_on_c, 0, 58, 0
2,240363, Control_c, 0, 64, 115
2,240379, Control_c, 0, 64, 90
2,240379, Note_on_c, 0, 48, 80
2,240394, Note_on_c, 0, 77, 0
2,240399, Control_c, 0, 64, 73
2,240419, Control_c, 0, 64, 78
2,240438, Control_c, 0, 64, 107
2,240456, Control_c, 0, 64, 127
2,240457, Note_on_c, 0, 46, 0
2,240544, Note_on_c, 0, 48, 0
2,240551, Note_on_c, 0, 49, 79
2,240770, Note_on_c, 0, 51, 80
2,240773, Note_on_c, 0, 66, 80
2,240775, Note_on_c, 0, 63, 82
2,240778, Control_c, 0, 64, 122
2,240797, Control_c, 0, 64, 88
2,240812, Note_on_c, 0, 49, 0
2,240815, Control_c, 0, 64, 52
2,240832, Control_c, 0, 64, 20
2,240872, Control_c, 0, 64, 38
2,240905, Control_c, 0, 64, 72
2,240926, Control_c, 0, 64, 100
2,240945, Control_c, 0, 64, 127
2,240971, Note_on_c, 0, 53, 73
2,241005, Note_on_c, 0, 51, 0
2,241118, Note_on_c, 0, 53, 0
2,241179, Note_on_c, 0, 49, 65
2,241184, Note_on_c, 0, 63, 0
2,241251, Note_on_c, 0, 66, 0
2,241264, Note_on_c, 0, 51, 64
2,241278, Note_on_c, 0, 49, 0
2,241296, Note_on_c, 0, 51, 0
2,241648, Note_on_c, 0, 51, 84
2,241659, Note_on_c, 0, 55, 80
2,241667, Control_c, 0, 64, 123
2,241687, Control_c, 0, 64, 118
2,241723, Control_c, 0, 64, 127
2,241786, Note_on_c, 0, 55, 0
2,241834, Note_on_c, 0, 58, 85
2,242020, Note_on_c, 0, 58, 0
2,242100, Note_on_c, 0, 63, 93
2,242116, Control_c, 0, 64, 103
2,242120, Note_on_c, 0, 55, 80
2,242136, Control_c, 0, 64, 78
2,242156, Control_c, 0, 64, 65
2,242174, Control_c, 0, 64, 76
2,242192, Control_c, 0, 64, 106
2,242199, Note_on_c, 0, 63, 0
2,242211, Control_c, 0, 64, 127
2,242230, Note_on_c, 0, 55, 0
2,242493, Control_c, 0, 64, 101
2,242510, Note_on_c, 0, 55, 84
2,242512, Control_c, 0, 64, 69
2,242512, Note_on_c, 0, 48, 84
2,242520, Note_on_c, 0, 63, 89
2,242530, Control_c, 0, 64, 58
2,242536, Note_on_c, 0, 73, 66
2,242537, Note_on_c, 0, 74, 70
2,242543, Note_on_c, 0, 55, 0
2,242547, Note_on_c, 0, 51, 0
2,242550, Control_c, 0, 64, 69
2,242558, Note_on_c, 0, 48, 0
2,242562, Note_on_c, 0, 73, 0
2,242569, Control_c, 0, 64, 95
2,242573, Note_on_c, 0, 74, 0
2,242575, Note_on_c, 0, 63, 0
2,242589, Control_c, 0, 64, 127
2,243150, Note_on_c, 0, 70, 93
2,243156, Note_on_c, 0, 61, 88
2,243188, Note_on_c, 0, 54, 42
2,243189, Control_c, 0, 64, 103
2,243189, Note_on_c, 0, 53, 74
2,243209, Control_c, 0, 64, 66
2,243227, Control_c, 0, 64, 22
2,243245, Control_c, 0, 64, 0
2,243356, Note_on_c, 0, 53, 0
2,243356, Note_on_c, 0, 54, 0
2,243368, Note_on_c, 0, 56, 76
2,243549, Control_c, 0, 64, 16
2,243567, Control_c, 0, 64, 40
2,243570, Note_on_c, 0, 54, 83
2,243587, Control_c, 0, 64, 68
2,243597, Note_on_c, 0, 61, 0
2,243606, Control_c, 0, 64, 87
2,243610, Note_on_c, 0, 56, 0
2,243624, Control_c, 0, 64, 103
2,243643, Control_c, 0, 64, 109
2,243660, Note_on_c, 0, 70, 0
2,243662, Control_c, 0, 64, 114
2,243681, Control_c, 0, 64, 121
2,243699, Control_c, 0, 64, 127
2,243752, Note_on_c, 0, 54, 0
2,243764, Note_on_c, 0, 53, 80
2,243893, Note_on_c, 0, 53, 0
2,244023, Note_on_c, 0, 73, 98
2,244025, Control_c, 0, 64, 107
2,244030, Note_on_c, 0, 54, 84
2,244032, Note_on_c, 0, 51, 85
2,244032, Note_on_c, 0, 63, 89
2,244044, Control_c, 0, 64, 72
2,244063, Control_c, 0, 64, 29
2,244081, Control_c, 0, 64, 0
2,244287, Control_c, 0, 64, 33
2,244307, Control_c, 0, 64, 54
2,244325, Control_c, 0, 64, 68
2,244346, Control_c, 0, 64, 81
2,244363, Control_c, 0, 64, 99
2,244384, Control_c, 0, 64, 113
2,244402, Control_c, 0, 64, 120
2,244439, Control_c, 0, 64, 127
2,244496, Note_on_c, 0, 51, 0
2,244499, Note_on_c, 0, 54, 0
2,244745, Note_on_c, 0, 63, 0
2,244799, Note_on_c, 0, 73, 0
2,244987, Note_on_c, 0, 53, 85
2,244992, Note_on_c, 0, 49, 90
2,245004, Control_c, 0, 64, 123
2,245023, Control_c, 0, 64, 95
2,245042, Control_c, 0, 64, 65
2,245059, Control_c, 0, 64, 30
2,245078, Control_c, 0, 64, 0
2,245392, Note_on_c, 0, 73, 91
2,245397, Note_on_c, 0, 65, 83
2,245399, Control_c, 0, 64, 23
2,245419, Control_c, 0, 64, 43
2,245437, Control_c, 0, 64, 59
2,245444, Note_on_c, 0, 65, 0
2,245457, Control_c, 0, 64, 70
2,245476, Control_c, 0, 64, 83
2,245495, Control_c, 0, 64, 100
2,245504, Note_on_c, 0, 73, 0
2,245514, Control_c, 0, 64, 113
2,245531, Control_c, 0, 64, 117
2,245531, Note_on_c, 0, 53, 0
2,245542, Note_on_c, 0, 49, 0
2,245606, Control_c, 0, 64, 122
2,245625, Control_c, 0, 64, 127
2,245811, Control_c, 0, 64, 111
2,245831, Control_c, 0, 64, 81
2,245844, Note_on_c, 0, 75, 92
2,245846, Note_on_c, 0, 66, 87
2,245849, Control_c, 0, 64, 44
2,245869, Control_c, 0, 64, 0
2,245908, Control_c, 0, 64, 33
2,245927, Control_c, 0, 64, 70
2,245946, Control_c, 0, 64, 102
2,245965, Control_c, 0, 64, 127
2,245967, Note_on_c, 0, 66, 0
2,245967, Note_on_c, 0, 75, 0
2,246242, Note_on_c, 0, 51, 83
2,246248, Note_on_c, 0, 48, 81
2,246251, Note_on_c, 0, 62, 84
2,246255, Note_on_c, 0, 70, 84
2,246265, Control_c, 0, 64, 113
2,246279, Control_c, 0, 64, 79
2,246298, Control_c, 0, 64, 41
2,246316, Control_c, 0, 64, 0
2,246317, Note_on_c, 0, 62, 0
2,246353, Control_c, 0, 64, 13
2,246373, Control_c, 0, 64, 46
2,246384, Note_on_c, 0, 70, 0
2,246392, Control_c, 0, 64, 75
2,246403, Note_on_c, 0, 48, 0
2,246408, Control_c, 0, 64, 98
2,246429, Control_c, 0, 64, 120
2,246447, Control_c, 0, 64, 127
2,246450, Note_on_c, 0, 51, 0
2,246706, Note_on_c, 0, 46, 80
2,246711, Control_c, 0, 64, 121
2,246716, Note_on_c, 0, 50, 74
2,246717, Note_on_c, 0, 72, 87
2,246724, Note_on_c, 0, 63, 86
2,246730, Control_c, 0, 64, 91
2,246750, Control_c, 0, 64, 54
2,246768, Control_c, 0, 64, 0
2,246844, Control_c, 0, 64, 19
2,246862, Control_c, 0, 64, 43
2,246882, Control_c, 0, 64, 61
2,246902, Control_c, 0, 64, 71
2,246920, Control_c, 0, 64, 76
2,246933, Note_on_c, 0, 50, 0
2,246938, Control_c, 0, 64, 82
2,246958, Control_c, 0, 64, 92
2,246975, Control_c, 0, 64, 106
2,246994, Control_c, 0, 64, 118
2,247013, Control_c, 0, 64, 123
2,247127, Note_on_c, 0, 51, 80
2,247129, Note_on_c, 0, 54, 86
2,247172, Note_on_c, 0, 46, 0
2,247212, Note_on_c, 0, 63, 0
2,247261, Control_c, 0, 64, 127
2,247354, Note_on_c, 0, 54, 0
2,247559, Note_on_c, 0, 72, 0
2,247568, Note_on_c, 0, 50, 81
2,247583, Note_on_c, 0, 46, 91
2,247618, Note_on_c, 0, 51, 0
2,247644, Note_on_c, 0, 50, 0
2,247665, Note_on_c, 0, 46, 0
2,248117, Note_on_c, 0, 69, 81
2,248118, Note_on_c, 0, 60, 76
2,248124, Note_on_c, 0, 41, 101
2,248132, Note_on_c, 0, 29, 97
2,248144, Control_c, 0, 64, 99
2,248162, Control_c, 0, 64, 61
2,248180, Control_c, 0, 64, 0
2,248232, Note_on_c, 0, 69, 0
2,248242, Note_on_c, 0, 70, 74
2,248314, Control_c, 0, 64, 20
2,248330, Control_c, 0, 64, 36
2,248337, Note_on_c, 0, 70, 0
2,248347, Note_on_c, 0, 69, 70
2,248351, Control_c, 0, 64, 50
2,248366, Control_c, 0, 64, 65
2,248386, Control_c, 0, 64, 80
2,248404, Control_c, 0, 64, 95
2,248409, Note_on_c, 0, 69, 0
2,248424, Control_c, 0, 64, 108
2,248428, Note_on_c, 0, 70, 63
2,248444, Control_c, 0, 64, 115
2,248462, Control_c, 0, 64, 123
2,248479, Control_c, 0, 64, 127
2,248491, Note_on_c, 0, 70, 0
2,248492, Note_on_c, 0, 69, 70
2,248589, Note_on_c, 0, 70, 74
2,248590, Note_on_c, 0, 69, 0
2,248649, Note_on_c, 0, 69, 64
2,248665, Note_on_c, 0, 70, 0
2,248717, Note_on_c, 0, 69, 0
2,248728, Note_on_c, 0, 70, 68
2,248799, Note_on_c, 0, 69, 70
2,248801, Note_on_c, 0, 70, 0
2,248875, Note_on_c, 0, 69, 0
2,248879, Note_on_c, 0, 70, 69
2,248925, Note_on_c, 0, 69, 66
2,248959, Note_on_c, 0, 70, 0
2,249017, Note_on_c, 0, 67, 84
2,249026, Note_on_c, 0, 69, 0
2,249192, Note_on_c, 0, 69, 94
2,249230, Note_on_c, 0, 67, 0
2,249252, Control_c, 0, 64, 123
2,249273, Control_c, 0, 64, 97
2,249288, Control_c, 0, 64, 63
2,249308, Control_c, 0, 64, 0
2,249461, Control_c, 0, 64, 26
2,249479, Control_c, 0, 64, 57
2,249497, Control_c, 0, 64, 81
2,249531, Control_c, 0, 64, 106
2,249550, Control_c, 0, 64, 127
2,249582, Note_on_c, 0, 29, 0
2,249608, Note_on_c, 0, 41, 0
2,249686, Note_on_c, 0, 60, 0
2,249695, Note_on_c, 0, 69, 0
2,250246, Note_on_c, 0, 70, 97
2,250349, Note_on_c, 0, 70, 0
2,250967, Note_on_c, 0, 70, 87
2,250969, Note_on_c, 0, 34, 87
2,250969, Note_on_c, 0, 62, 85
2,250970, Note_on_c, 0, 46, 89
2,250973, Note_on_c, 0, 65, 83
2,251044, Control_c, 0, 64, 117
2,251062, Control_c, 0, 64, 92
2,251083, Control_c, 0, 64, 67
2,251102, Control_c, 0, 64, 40
2,251119, Control_c, 0, 64, 23
2,251232, Control_c, 0, 64, 19
2,253373, Control_c, 0, 64, 23
2,253416, Note_on_c, 0, 34, 0
2,253426, Note_on_c, 0, 46, 0
2,253443, Note_on_c, 0, 62, 0
2,253446, Note_on_c, 0, 70, 0
2,253454, Note_on_c, 0, 65, 0
2,253455, End_track
0, 0, End_of_file
