0, 0, Header, 1, 2, 480
1, 0, Start_track
1, 0, Tempo, 500000
1, 0, Time_signature, 4, 2, 24, 8
1, 1, End_track
2, 0, Start_track
2, 0, Program_c, 0, 0
2, 0, Control_c, 0, 64, 0
2, 1019, Note_on_c, 0, 73, 49
2, 1029, Note_on_c, 0, 46, 39
2, 1266, Note_on_c, 0, 72, 57
2, 1503, Note_on_c, 0, 70, 65
2, 1648, Note_on_c, 0, 72, 0
2, 1693, Note_on_c, 0, 73, 0
2, 1715, Note_on_c, 0, 69, 68
2, 1764, Note_on_c, 0, 46, 0
2, 1795, Note_on_c, 0, 70, 0
2, 1988, Note_on_c, 0, 70, 61
2, 1998, Note_on_c, 0, 58, 51
2, 2082, Note_on_c, 0, 69, 0
2, 2490, Note_on_c, 0, 65, 57
2, 2631, Note_on_c, 0, 70, 0
2, 2993, Note_on_c, 0, 66, 63
2, 3200, Note_on_c, 0, 65, 0
2, 3475, Note_on_c, 0, 63, 64
2, 3759, Note_on_c, 0, 66, 0
2, 3804, Note_on_c, 0, 58, 0
2, 3943, Note_on_c, 0, 60, 63
2, 3964, Note_on_c, 0, 57, 44
2, 4130, Note_on_c, 0, 63, 0
2, 4446, Note_on_c, 0, 65, 56
2, 4637, Note_on_c, 0, 57, 0
2, 4640, Note_on_c, 0, 60, 0
2, 4921, Note_on_c, 0, 61, 59
2, 4953, Note_on_c, 0, 58, 41
2, 5115, Note_on_c, 0, 65, 0
2, 5148, Note_on_c, 0, 56, 52
2, 5156, Note_on_c, 0, 58, 0
2, 5391, Note_on_c, 0, 58, 63
2, 5400, Note_on_c, 0, 54, 55
2, 5471, Note_on_c, 0, 61, 0
2, 5503, Note_on_c, 0, 56, 0
2, 5559, Note_on_c, 0, 58, 0
2, 5609, Note_on_c, 0, 53, 61
2, 5626, Note_on_c, 0, 54, 0
2, 5835, Note_on_c, 0, 82, 53
2, 5858, Note_on_c, 0, 70, 55
2, 5865, Note_on_c, 0, 54, 51
2, 5879, Note_on_c, 0, 53, 0
2, 6046, Note_on_c, 0, 53, 56
2, 6047, Note_on_c, 0, 54, 0
2, 6055, Note_on_c, 0, 70, 0
2, 6055, Note_on_c, 0, 80, 71
2, 6261, Note_on_c, 0, 82, 0
2, 6284, Note_on_c, 0, 78, 66
2, 6287, Note_on_c, 0, 70, 70
2, 6289, Note_on_c, 0, 51, 57
2, 6312, Note_on_c, 0, 53, 0
2, 6436, Note_on_c, 0, 80, 0
2, 6477, Note_on_c, 0, 49, 59
2, 6495, Note_on_c, 0, 77, 70
2, 6511, Note_on_c, 0, 51, 0
2, 6541, Note_on_c, 0, 78, 0
2, 6553, Note_on_c, 0, 70, 0
2, 6722, Note_on_c, 0, 51, 60
2, 6723, Note_on_c, 0, 78, 67
2, 6724, Note_on_c, 0, 70, 65
2, 6737, Note_on_c, 0, 49, 0
2, 6767, Note_on_c, 0, 77, 0
2, 6935, Note_on_c, 0, 49, 53
2, 6941, Note_on_c, 0, 77, 55
2, 6947, Note_on_c, 0, 78, 0
2, 6979, Note_on_c, 0, 51, 0
2, 7148, Note_on_c, 0, 70, 0
2, 7156, Note_on_c, 0, 75, 62
2, 7168, Note_on_c, 0, 69, 68
2, 7170, Note_on_c, 0, 49, 0
2, 7174, Note_on_c, 0, 48, 55
2, 7207, Note_on_c, 0, 77, 0
2, 7364, Note_on_c, 0, 73, 65
2, 7373, Note_on_c, 0, 46, 64
2, 7375, Note_on_c, 0, 70, 69
2, 7378, Note_on_c, 0, 69, 0
2, 7404, Note_on_c, 0, 48, 0
2, 7484, Note_on_c, 0, 75, 0
2, 7595, Note_on_c, 0, 72, 77
2, 7606, Note_on_c, 0, 45, 63
2, 7622, Note_on_c, 0, 46, 0
2, 7645, Note_on_c, 0, 70, 0
2, 7657, Note_on_c, 0, 73, 0
2, 7813, Note_on_c, 0, 41, 58
2, 7815, Note_on_c, 0, 77, 65
2, 7826, Note_on_c, 0, 45, 0
2, 7844, Note_on_c, 0, 72, 0
2, 8038, Note_on_c, 0, 75, 68
2, 8044, Note_on_c, 0, 72, 68
2, 8048, Note_on_c, 0, 43, 60
2, 8104, Note_on_c, 0, 77, 0
2, 8151, Note_on_c, 0, 41, 0
2, 8247, Note_on_c, 0, 75, 0
2, 8254, Note_on_c, 0, 77, 68
2, 8266, Note_on_c, 0, 45, 55
2, 8274, Note_on_c, 0, 43, 0
2, 8277, Note_on_c, 0, 72, 0
2, 8498, Note_on_c, 0, 72, 71
2, 8502, Note_on_c, 0, 73, 68
2, 8506, Note_on_c, 0, 46, 51
2, 8514, Note_on_c, 0, 45, 0
2, 8567, Note_on_c, 0, 77, 0
2, 8722, Note_on_c, 0, 46, 0
2, 8726, Note_on_c, 0, 48, 56
2, 8938, Note_on_c, 0, 70, 67
2, 8945, Note_on_c, 0, 49, 57
2, 8947, Note_on_c, 0, 73, 0
2, 8951, Note_on_c, 0, 48, 0
2, 8958, Note_on_c, 0, 72, 0
2, 8961, Note_on_c, 0, 65, 57
2, 9133, Note_on_c, 0, 70, 0
2, 9140, Note_on_c, 0, 69, 66
2, 9146, Note_on_c, 0, 51, 60
2, 9148, Note_on_c, 0, 49, 0
2, 9373, Note_on_c, 0, 69, 0
2, 9390, Note_on_c, 0, 70, 71
2, 9413, Note_on_c, 0, 49, 60
2, 9446, Note_on_c, 0, 51, 0
2, 9471, Note_on_c, 0, 65, 0
2, 9584, Note_on_c, 0, 49, 0
2, 9599, Note_on_c, 0, 73, 71
2, 9815, Note_on_c, 0, 72, 71
2, 9827, Note_on_c, 0, 54, 52
2, 9855, Note_on_c, 0, 73, 0
2, 10029, Note_on_c, 0, 73, 73
2, 10046, Note_on_c, 0, 54, 0
2, 10118, Note_on_c, 0, 72, 0
2, 10255, Note_on_c, 0, 75, 68
2, 10270, Note_on_c, 0, 48, 45
2, 10354, Note_on_c, 0, 73, 0
2, 10458, Note_on_c, 0, 49, 54
2, 10473, Note_on_c, 0, 68, 63
2, 10483, Note_on_c, 0, 70, 0
2, 10488, Note_on_c, 0, 48, 0
2, 10540, Note_on_c, 0, 75, 0
2, 10668, Note_on_c, 0, 70, 68
2, 10676, Note_on_c, 0, 68, 0
2, 10678, Note_on_c, 0, 66, 53
2, 10692, Note_on_c, 0, 51, 47
2, 10730, Note_on_c, 0, 49, 0
2, 10874, Note_on_c, 0, 65, 69
2, 10879, Note_on_c, 0, 51, 0
2, 10880, Note_on_c, 0, 70, 0
2, 10889, Note_on_c, 0, 53, 57
2, 10897, Note_on_c, 0, 66, 0
2, 11129, Note_on_c, 0, 72, 74
2, 11150, Note_on_c, 0, 51, 51
2, 11154, Note_on_c, 0, 53, 0
2, 11168, Note_on_c, 0, 66, 41
2, 11209, Note_on_c, 0, 65, 0
2, 11321, Note_on_c, 0, 51, 0
2, 11334, Note_on_c, 0, 66, 0
2, 11351, Note_on_c, 0, 63, 53
2, 11553, Note_on_c, 0, 63, 0
2, 11587, Note_on_c, 0, 65, 52
2, 11591, Note_on_c, 0, 56, 46
2, 11814, Note_on_c, 0, 66, 55
2, 11839, Note_on_c, 0, 56, 0
2, 11855, Note_on_c, 0, 65, 0
2, 12059, Note_on_c, 0, 73, 60
2, 12063, Note_on_c, 0, 49, 49
2, 12102, Note_on_c, 0, 72, 0
2, 12248, Note_on_c, 0, 49, 0
2, 12258, Note_on_c, 0, 65, 60
2, 12309, Note_on_c, 0, 66, 0
2, 12475, Note_on_c, 0, 48, 57
2, 12475, Note_on_c, 0, 67, 73
2, 12495, Note_on_c, 0, 73, 0
2, 12584, Note_on_c, 0, 65, 0
2, 12681, Note_on_c, 0, 69, 72
2, 12698, Note_on_c, 0, 48, 0
2, 12779, Note_on_c, 0, 67, 0
2, 12914, Note_on_c, 0, 49, 64
2, 12923, Note_on_c, 0, 70, 70
2, 13010, Note_on_c, 0, 69, 0
2, 13124, Note_on_c, 0, 72, 75
2, 13129, Note_on_c, 0, 70, 0
2, 13174, Note_on_c, 0, 49, 0
2, 13345, Note_on_c, 0, 73, 71
2, 13347, Note_on_c, 0, 46, 58
2, 13434, Note_on_c, 0, 72, 0
2, 13505, Note_on_c, 0, 46, 0
2, 13549, Note_on_c, 0, 70, 73
2, 13604, Note_on_c, 0, 73, 0
2, 13799, Note_on_c, 0, 80, 70
2, 13819, Note_on_c, 0, 70, 0
2, 13839, Note_on_c, 0, 72, 59
2, 13889, Note_on_c, 0, 53, 33
2, 13913, Note_on_c, 0, 55, 14
2, 13991, Note_on_c, 0, 55, 0
2, 14024, Note_on_c, 0, 79, 72
2, 14083, Note_on_c, 0, 80, 0
2, 14173, Note_on_c, 0, 53, 0
2, 14243, Note_on_c, 0, 77, 79
2, 14247, Note_on_c, 0, 56, 53
2, 14268, Note_on_c, 0, 60, 44
2, 14270, Note_on_c, 0, 72, 0
2, 14306, Note_on_c, 0, 79, 0
2, 14403, Note_on_c, 0, 56, 0
2, 14451, Note_on_c, 0, 60, 0
2, 14455, Note_on_c, 0, 76, 77
2, 14506, Note_on_c, 0, 77, 0
2, 14674, Note_on_c, 0, 61, 51
2, 14677, Note_on_c, 0, 77, 71
2, 14704, Note_on_c, 0, 65, 64
2, 14743, Note_on_c, 0, 76, 0
2, 14894, Note_on_c, 0, 61, 0
2, 14909, Note_on_c, 0, 60, 57
2, 15118, Note_on_c, 0, 72, 74
2, 15125, Note_on_c, 0, 60, 0
2, 15127, Note_on_c, 0, 58, 56
2, 15203, Note_on_c, 0, 77, 0
2, 15319, Note_on_c, 0, 56, 54
2, 15321, Note_on_c, 0, 58, 0
2, 15542, Note_on_c, 0, 73, 71
2, 15547, Note_on_c, 0, 58, 55
2, 15549, Note_on_c, 0, 56, 0
2, 15661, Note_on_c, 0, 72, 0
2, 15772, Note_on_c, 0, 55, 57
2, 15786, Note_on_c, 0, 58, 0
2, 15989, Note_on_c, 0, 70, 70
2, 15998, Note_on_c, 0, 56, 51
2, 16027, Note_on_c, 0, 55, 0
2, 16143, Note_on_c, 0, 65, 0
2, 16207, Note_on_c, 0, 58, 50
2, 16253, Note_on_c, 0, 56, 0
2, 16275, Note_on_c, 0, 73, 0
2, 16430, Note_on_c, 0, 67, 75
2, 16466, Note_on_c, 0, 60, 43
2, 16498, Note_on_c, 0, 64, 25
2, 16501, Note_on_c, 0, 58, 0
2, 16577, Note_on_c, 0, 70, 0
2, 16659, Note_on_c, 0, 58, 52
2, 16691, Note_on_c, 0, 60, 0
2, 16871, Note_on_c, 0, 72, 69
2, 16877, Note_on_c, 0, 56, 54
2, 16910, Note_on_c, 0, 58, 0
2, 16954, Note_on_c, 0, 67, 0
2, 17092, Note_on_c, 0, 55, 53
2, 17112, Note_on_c, 0, 56, 0
2, 17334, Note_on_c, 0, 68, 53
2, 17339, Note_on_c, 0, 53, 60
2, 17343, Note_on_c, 0, 65, 46
2, 17360, Note_on_c, 0, 55, 0
2, 17392, Note_on_c, 0, 64, 0
2, 17475, Note_on_c, 0, 72, 0
2, 17516, Note_on_c, 0, 65, 0
2, 17549, Note_on_c, 0, 64, 50
2, 17758, Note_on_c, 0, 64, 0
2, 17791, Note_on_c, 0, 65, 60
2, 17847, Note_on_c, 0, 68, 0
2, 17969, Note_on_c, 0, 65, 0
2, 17994, Note_on_c, 0, 67, 61
2, 18186, Note_on_c, 0, 67, 0
2, 18212, Note_on_c, 0, 77, 69
2, 18228, Note_on_c, 0, 68, 48
2, 18393, Note_on_c, 0, 68, 0
2, 18429, Note_on_c, 0, 55, 51
2, 18431, Note_on_c, 0, 70, 58
2, 18475, Note_on_c, 0, 53, 0
2, 18478, Note_on_c, 0, 77, 0
2, 18656, Note_on_c, 0, 77, 73
2, 18663, Note_on_c, 0, 70, 0
2, 18676, Note_on_c, 0, 56, 51
2, 18680, Note_on_c, 0, 72, 53
2, 18706, Note_on_c, 0, 55, 0
2, 18884, Note_on_c, 0, 68, 58
2, 18904, Note_on_c, 0, 56, 0
2, 18912, Note_on_c, 0, 72, 0
2, 18922, Note_on_c, 0, 53, 51
2, 18930, Note_on_c, 0, 77, 0
2, 19109, Note_on_c, 0, 77, 63
2, 19134, Note_on_c, 0, 55, 58
2, 19141, Note_on_c, 0, 70, 60
2, 19150, Note_on_c, 0, 68, 0
2, 19165, Note_on_c, 0, 53, 0
2, 19303, Note_on_c, 0, 70, 0
2, 19321, Note_on_c, 0, 68, 57
2, 19330, Note_on_c, 0, 55, 0
2, 19344, Note_on_c, 0, 56, 51
2, 19547, Note_on_c, 0, 76, 73
2, 19569, Note_on_c, 0, 68, 0
2, 19570, Note_on_c, 0, 67, 45
2, 19574, Note_on_c, 0, 58, 52
2, 19628, Note_on_c, 0, 56, 0
2, 19635, Note_on_c, 0, 77, 0
2, 19759, Note_on_c, 0, 77, 74
2, 19780, Note_on_c, 0, 68, 66
2, 19787, Note_on_c, 0, 76, 0
2, 19835, Note_on_c, 0, 67, 0
2, 19960, Note_on_c, 0, 68, 0
2, 19988, Note_on_c, 0, 79, 78
2, 20007, Note_on_c, 0, 52, 58
2, 20033, Note_on_c, 0, 70, 42
2, 20036, Note_on_c, 0, 77, 0
2, 20084, Note_on_c, 0, 58, 0
2, 20204, Note_on_c, 0, 70, 0
2, 20218, Note_on_c, 0, 72, 68
2, 20266, Note_on_c, 0, 79, 0
2, 20426, Note_on_c, 0, 79, 76
2, 20458, Note_on_c, 0, 73, 56
2, 20461, Note_on_c, 0, 53, 51
2, 20478, Note_on_c, 0, 72, 0
2, 20650, Note_on_c, 0, 73, 0
2, 20652, Note_on_c, 0, 70, 67
2, 20664, Note_on_c, 0, 52, 0
2, 20669, Note_on_c, 0, 55, 48
2, 20692, Note_on_c, 0, 53, 0
2, 20729, Note_on_c, 0, 79, 0
2, 20872, Note_on_c, 0, 79, 75
2, 20892, Note_on_c, 0, 72, 70
2, 20899, Note_on_c, 0, 56, 58
2, 20925, Note_on_c, 0, 55, 0
2, 20942, Note_on_c, 0, 70, 0
2, 21089, Note_on_c, 0, 58, 59
2, 21115, Note_on_c, 0, 56, 0
2, 21301, Note_on_c, 0, 56, 56
2, 21312, Note_on_c, 0, 77, 77
2, 21348, Note_on_c, 0, 58, 0
2, 21353, Note_on_c, 0, 79, 0
2, 21496, Note_on_c, 0, 79, 75
2, 21506, Note_on_c, 0, 55, 66
2, 21555, Note_on_c, 0, 56, 0
2, 21565, Note_on_c, 0, 77, 0
2, 21740, Note_on_c, 0, 55, 0
2, 21750, Note_on_c, 0, 80, 79
2, 21757, Note_on_c, 0, 53, 58
2, 21794, Note_on_c, 0, 79, 0
2, 21961, Note_on_c, 0, 51, 68
2, 21989, Note_on_c, 0, 80, 0
2, 22015, Note_on_c, 0, 53, 0
2, 22172, Note_on_c, 0, 80, 80
2, 22180, Note_on_c, 0, 77, 58
2, 22185, Note_on_c, 0, 49, 63
2, 22227, Note_on_c, 0, 72, 0
2, 22236, Note_on_c, 0, 51, 0
2, 22380, Note_on_c, 0, 77, 0
2, 22384, Note_on_c, 0, 72, 75
2, 22397, Note_on_c, 0, 53, 60
2, 22442, Note_on_c, 0, 80, 0
2, 22491, Note_on_c, 0, 49, 0
2, 22630, Note_on_c, 0, 80, 73
2, 22643, Note_on_c, 0, 46, 63
2, 22651, Note_on_c, 0, 73, 58
2, 22680, Note_on_c, 0, 53, 0
2, 22701, Note_on_c, 0, 72, 0
2, 22770, Control_c, 0, 64, 13
2, 22789, Control_c, 0, 64, 30
2, 22805, Control_c, 0, 64, 44
2, 22824, Control_c, 0, 64, 56
2, 22824, Note_on_c, 0, 75, 70
2, 22826, Note_on_c, 0, 73, 0
2, 22844, Control_c, 0, 64, 63
2, 22863, Control_c, 0, 64, 68
2, 22882, Control_c, 0, 64, 72
2, 22901, Control_c, 0, 64, 76
2, 22921, Control_c, 0, 64, 82
2, 22940, Control_c, 0, 64, 89
2, 22957, Control_c, 0, 64, 93
2, 22996, Control_c, 0, 64, 98
2, 23015, Note_on_c, 0, 46, 0
2, 23032, Control_c, 0, 64, 103
2, 23057, Note_on_c, 0, 73, 58
2, 23057, Note_on_c, 0, 77, 74
2, 23120, Note_on_c, 0, 75, 0
2, 23182, Note_on_c, 0, 80, 0
2, 23203, Control_c, 0, 64, 97
2, 23222, Control_c, 0, 64, 84
2, 23242, Control_c, 0, 64, 64
2, 23252, Note_on_c, 0, 73, 0
2, 23262, Control_c, 0, 64, 25
2, 23264, Note_on_c, 0, 72, 72
2, 23279, Control_c, 0, 64, 0
2, 23492, Note_on_c, 0, 79, 78
2, 23520, Note_on_c, 0, 70, 58
2, 23531, Note_on_c, 0, 77, 0
2, 23570, Note_on_c, 0, 72, 0
2, 23703, Note_on_c, 0, 67, 71
2, 23740, Note_on_c, 0, 70, 0
2, 23910, Note_on_c, 0, 82, 78
2, 23928, Note_on_c, 0, 68, 63
2, 23968, Note_on_c, 0, 79, 0
2, 23979, Note_on_c, 0, 67, 0
2, 24126, Note_on_c, 0, 70, 69
2, 24140, Note_on_c, 0, 68, 0
2, 24147, Note_on_c, 0, 82, 0
2, 24348, Note_on_c, 0, 82, 72
2, 24356, Note_on_c, 0, 64, 68
2, 24376, Control_c, 0, 64, 20
2, 24383, Note_on_c, 0, 70, 0
2, 24408, Control_c, 0, 64, 40
2, 24426, Control_c, 0, 64, 56
2, 24426, Note_on_c, 0, 64, 0
2, 24444, Control_c, 0, 64, 66
2, 24465, Control_c, 0, 64, 74
2, 24483, Control_c, 0, 64, 83
2, 24503, Note_on_c, 0, 82, 0
2, 24504, Control_c, 0, 64, 93
2, 24521, Control_c, 0, 64, 100
2, 24541, Control_c, 0, 64, 105
2, 24557, Control_c, 0, 64, 109
2, 24585, Note_on_c, 0, 61, 62
2, 24595, Control_c, 0, 64, 113
2, 24784, Control_c, 0, 64, 106
2, 24784, Note_on_c, 0, 76, 78
2, 24802, Control_c, 0, 64, 94
2, 24808, Note_on_c, 0, 67, 56
2, 24813, Note_on_c, 0, 61, 0
2, 24821, Note_on_c, 0, 60, 56
2, 24822, Control_c, 0, 64, 75
2, 24842, Control_c, 0, 64, 50
2, 24860, Control_c, 0, 64, 17
2, 24878, Control_c, 0, 64, 0
2, 24953, Control_c, 0, 64, 11
2, 24972, Control_c, 0, 64, 25
2, 24972, Note_on_c, 0, 67, 0
2, 24991, Control_c, 0, 64, 35
2, 25003, Note_on_c, 0, 58, 62
2, 25010, Control_c, 0, 64, 42
2, 25024, Note_on_c, 0, 60, 0
2, 25029, Control_c, 0, 64, 46
2, 25048, Control_c, 0, 64, 50
2, 25069, Control_c, 0, 64, 53
2, 25085, Note_on_c, 0, 76, 0
2, 25087, Control_c, 0, 64, 56
2, 25105, Control_c, 0, 64, 59
2, 25123, Control_c, 0, 64, 60
2, 25144, Control_c, 0, 64, 61
2, 25198, Control_c, 0, 64, 60
2, 25219, Control_c, 0, 64, 56
2, 25225, Note_on_c, 0, 77, 74
2, 25237, Control_c, 0, 64, 51
2, 25254, Note_on_c, 0, 60, 40
2, 25255, Note_on_c, 0, 56, 49
2, 25257, Control_c, 0, 64, 42
2, 25268, Note_on_c, 0, 58, 0
2, 25274, Control_c, 0, 64, 28
2, 25295, Control_c, 0, 64, 0
2, 25459, Note_on_c, 0, 55, 61
2, 25476, Note_on_c, 0, 56, 0
2, 25584, Note_on_c, 0, 60, 0
2, 25664, Note_on_c, 0, 72, 78
2, 25678, Note_on_c, 0, 53, 60
2, 25718, Note_on_c, 0, 55, 0
2, 25868, Note_on_c, 0, 72, 0
2, 25870, Note_on_c, 0, 53, 0
2, 25886, Note_on_c, 0, 56, 55
2, 26120, Note_on_c, 0, 70, 67
2, 26121, Note_on_c, 0, 49, 71
2, 26175, Note_on_c, 0, 56, 0
2, 26343, Note_on_c, 0, 49, 0
2, 26352, Note_on_c, 0, 72, 73
2, 26369, Note_on_c, 0, 70, 0
2, 26561, Note_on_c, 0, 73, 68
2, 26575, Note_on_c, 0, 46, 76
2, 26579, Note_on_c, 0, 72, 0
2, 26763, Note_on_c, 0, 70, 72
2, 26768, Note_on_c, 0, 73, 0
2, 26788, Note_on_c, 0, 46, 0
2, 26996, Note_on_c, 0, 76, 71
2, 27007, Note_on_c, 0, 48, 70
2, 27029, Note_on_c, 0, 67, 60
2, 27039, Note_on_c, 0, 70, 0
2, 27191, Note_on_c, 0, 77, 0
2, 27212, Note_on_c, 0, 67, 0
2, 27213, Note_on_c, 0, 73, 77
2, 27216, Note_on_c, 0, 48, 0
2, 27426, Note_on_c, 0, 36, 78
2, 27449, Note_on_c, 0, 72, 71
2, 27487, Note_on_c, 0, 73, 0
2, 27593, Note_on_c, 0, 36, 0
2, 27623, Note_on_c, 0, 72, 0
2, 27653, Note_on_c, 0, 70, 73
2, 27910, Note_on_c, 0, 77, 68
2, 27918, Note_on_c, 0, 68, 58
2, 27925, Note_on_c, 0, 41, 61
2, 27964, Note_on_c, 0, 70, 0
2, 27995, Note_on_c, 0, 76, 0
2, 28144, Note_on_c, 0, 41, 0
2, 28150, Note_on_c, 0, 48, 50
2, 28372, Note_on_c, 0, 72, 59
2, 28376, Note_on_c, 0, 50, 54
2, 28379, Note_on_c, 0, 48, 0
2, 28402, Note_on_c, 0, 68, 0
2, 28449, Note_on_c, 0, 77, 0
2, 28587, Note_on_c, 0, 50, 0
2, 28587, Note_on_c, 0, 52, 52
2, 28802, Note_on_c, 0, 52, 0
2, 28807, Note_on_c, 0, 68, 54
2, 28816, Note_on_c, 0, 53, 54
2, 28833, Note_on_c, 0, 72, 0
2, 28998, Note_on_c, 0, 75, 56
2, 29005, Note_on_c, 0, 53, 0
2, 29005, Note_on_c, 0, 55, 55
2, 29053, Note_on_c, 0, 68, 0
2, 29226, Note_on_c, 0, 75, 0
2, 29228, Note_on_c, 0, 55, 0
2, 29233, Note_on_c, 0, 74, 67
2, 29238, Note_on_c, 0, 59, 70
2, 29242, Note_on_c, 0, 56, 52
2, 29430, Note_on_c, 0, 75, 66
2, 29431, Note_on_c, 0, 59, 0
2, 29434, Note_on_c, 0, 53, 61
2, 29436, Note_on_c, 0, 74, 0
2, 29448, Note_on_c, 0, 56, 0
2, 29673, Note_on_c, 0, 53, 0
2, 29678, Note_on_c, 0, 77, 63
2, 29687, Note_on_c, 0, 50, 48
2, 29700, Note_on_c, 0, 58, 54
2, 29715, Note_on_c, 0, 75, 0
2, 29775, Control_c, 0, 64, 15
2, 29793, Control_c, 0, 64, 33
2, 29812, Control_c, 0, 64, 48
2, 29833, Control_c, 0, 64, 59
2, 29851, Control_c, 0, 64, 66
2, 29859, Note_on_c, 0, 77, 0
2, 29870, Control_c, 0, 64, 73
2, 29891, Control_c, 0, 64, 80
2, 29908, Control_c, 0, 64, 88
2, 29920, Note_on_c, 0, 60, 53
2, 29928, Control_c, 0, 64, 92
2, 29966, Control_c, 0, 64, 97
2, 30003, Control_c, 0, 64, 101
2, 30075, Note_on_c, 0, 58, 0
2, 30106, Note_on_c, 0, 50, 0
2, 30110, Note_on_c, 0, 70, 66
2, 30119, Note_on_c, 0, 62, 56
2, 30137, Control_c, 0, 64, 89
2, 30168, Control_c, 0, 64, 76
2, 30168, Note_on_c, 0, 60, 0
2, 30188, Control_c, 0, 64, 57
2, 30207, Control_c, 0, 64, 32
2, 30227, Control_c, 0, 64, 12
2, 30283, Control_c, 0, 64, 8
2, 30342, Note_on_c, 0, 62, 0
2, 30343, Note_on_c, 0, 63, 66
2, 30368, Note_on_c, 0, 70, 0
2, 30571, Note_on_c, 0, 68, 69
2, 30575, Note_on_c, 0, 65, 66
2, 30606, Note_on_c, 0, 63, 0
2, 30755, Note_on_c, 0, 65, 0
2, 30764, Note_on_c, 0, 68, 0
2, 30773, Note_on_c, 0, 66, 67
2, 30973, Note_on_c, 0, 66, 0
2, 30998, Note_on_c, 0, 77, 67
2, 31008, Note_on_c, 0, 68, 55
2, 31033, Note_on_c, 0, 46, 56
2, 31057, Control_c, 0, 64, 12
2, 31148, Control_c, 0, 64, 19
2, 31166, Control_c, 0, 64, 28
2, 31187, Control_c, 0, 64, 38
2, 31203, Control_c, 0, 64, 45
2, 31203, Note_on_c, 0, 68, 0
2, 31215, Note_on_c, 0, 65, 63
2, 31223, Control_c, 0, 64, 50
2, 31242, Control_c, 0, 64, 54
2, 31261, Control_c, 0, 64, 58
2, 31276, Note_on_c, 0, 65, 0
2, 31279, Control_c, 0, 64, 61
2, 31300, Control_c, 0, 64, 64
2, 31319, Control_c, 0, 64, 66
2, 31341, Control_c, 0, 64, 68
2, 31360, Control_c, 0, 64, 70
2, 31377, Control_c, 0, 64, 72
2, 31415, Control_c, 0, 64, 75
2, 31459, Note_on_c, 0, 46, 0
2, 31470, Note_on_c, 0, 39, 46
2, 31475, Note_on_c, 0, 66, 58
2, 31511, Control_c, 0, 64, 72
2, 31529, Control_c, 0, 64, 68
2, 31549, Control_c, 0, 64, 62
2, 31567, Control_c, 0, 64, 54
2, 31587, Control_c, 0, 64, 44
2, 31604, Control_c, 0, 64, 35
2, 31625, Control_c, 0, 64, 27
2, 31642, Control_c, 0, 64, 22
2, 31674, Note_on_c, 0, 46, 48
2, 31678, Control_c, 0, 64, 17
2, 31793, Note_on_c, 0, 39, 0
2, 31887, Note_on_c, 0, 48, 57
2, 31888, Note_on_c, 0, 75, 67
2, 31928, Note_on_c, 0, 77, 0
2, 31929, Note_on_c, 0, 46, 0
2, 32107, Note_on_c, 0, 77, 66
2, 32122, Note_on_c, 0, 50, 53
2, 32124, Note_on_c, 0, 48, 0
2, 32163, Note_on_c, 0, 75, 0
2, 32332, Note_on_c, 0, 50, 0
2, 32332, Note_on_c, 0, 51, 59
2, 32332, Note_on_c, 0, 78, 66
2, 32380, Note_on_c, 0, 77, 0
2, 32537, Note_on_c, 0, 53, 61
2, 32540, Note_on_c, 0, 78, 0
2, 32551, Note_on_c, 0, 51, 0
2, 32552, Note_on_c, 0, 66, 0
2, 32747, Note_on_c, 0, 70, 69
2, 32749, Note_on_c, 0, 66, 52
2, 32769, Note_on_c, 0, 54, 50
2, 32783, Note_on_c, 0, 53, 0
2, 32960, Note_on_c, 0, 70, 0
2, 32989, Note_on_c, 0, 51, 58
2, 33055, Note_on_c, 0, 54, 0
2, 33211, Note_on_c, 0, 68, 67
2, 33236, Note_on_c, 0, 48, 56
2, 33274, Note_on_c, 0, 51, 0
2, 33381, Control_c, 0, 64, 22
2, 33382, Note_on_c, 0, 48, 0
2, 33417, Note_on_c, 0, 70, 70
2, 33465, Note_on_c, 0, 68, 0
2, 33626, Note_on_c, 0, 51, 60
2, 33628, Note_on_c, 0, 57, 62
2, 33640, Note_on_c, 0, 72, 69
2, 33648, Note_on_c, 0, 70, 0
2, 33749, Note_on_c, 0, 57, 0
2, 33817, Note_on_c, 0, 51, 0
2, 33821, Note_on_c, 0, 72, 0
2, 33834, Note_on_c, 0, 73, 72
2, 33910, Control_c, 0, 64, 26
2, 34071, Note_on_c, 0, 48, 62
2, 34073, Note_on_c, 0, 56, 60
2, 34078, Note_on_c, 0, 75, 74
2, 34128, Note_on_c, 0, 66, 0
2, 34199, Note_on_c, 0, 56, 0
2, 34209, Note_on_c, 0, 73, 0
2, 34269, Note_on_c, 0, 48, 0
2, 34278, Note_on_c, 0, 77, 74
2, 34337, Note_on_c, 0, 75, 0
2, 34494, Note_on_c, 0, 44, 60
2, 34495, Note_on_c, 0, 78, 67
2, 34508, Note_on_c, 0, 72, 64
2, 34543, Note_on_c, 0, 77, 0
2, 34604, Note_on_c, 0, 44, 0
2, 34693, Note_on_c, 0, 75, 70
2, 34728, Note_on_c, 0, 72, 0
2, 34822, Note_on_c, 0, 78, 0
2, 34854, Control_c, 0, 64, 21
2, 34871, Control_c, 0, 64, 13
2, 34892, Control_c, 0, 64, 0
2, 34926, Note_on_c, 0, 37, 55
2, 34933, Note_on_c, 0, 73, 56
2, 34935, Note_on_c, 0, 77, 65
2, 34989, Note_on_c, 0, 75, 0
2, 35037, Control_c, 0, 64, 23
2, 35058, Control_c, 0, 64, 45
2, 35076, Control_c, 0, 64, 61
2, 35082, Note_on_c, 0, 77, 0
2, 35094, Control_c, 0, 64, 69
2, 35106, Note_on_c, 0, 73, 0
2, 35114, Control_c, 0, 64, 75
2, 35133, Control_c, 0, 64, 82
2, 35154, Control_c, 0, 64, 91
2, 35171, Control_c, 0, 64, 100
2, 35176, Note_on_c, 0, 44, 52
2, 35190, Control_c, 0, 64, 105
2, 35227, Control_c, 0, 64, 111
2, 35265, Control_c, 0, 64, 115
2, 35374, Note_on_c, 0, 66, 68
2, 35379, Note_on_c, 0, 46, 56
2, 35385, Note_on_c, 0, 63, 63
2, 35394, Note_on_c, 0, 37, 0
2, 35438, Note_on_c, 0, 44, 0
2, 35454, Control_c, 0, 64, 107
2, 35472, Control_c, 0, 64, 97
2, 35492, Control_c, 0, 64, 83
2, 35509, Control_c, 0, 64, 65
2, 35529, Control_c, 0, 64, 46
2, 35547, Control_c, 0, 64, 33
2, 35589, Note_on_c, 0, 66, 0
2, 35592, Note_on_c, 0, 48, 61
2, 35609, Note_on_c, 0, 46, 0
2, 35654, Note_on_c, 0, 63, 0
2, 35810, Note_on_c, 0, 65, 68
2, 35811, Control_c, 0, 64, 29
2, 35826, Note_on_c, 0, 61, 66
2, 35828, Note_on_c, 0, 49, 59
2, 35843, Note_on_c, 0, 48, 0
2, 35999, Note_on_c, 0, 65, 0
2, 36041, Note_on_c, 0, 51, 63
2, 36099, Note_on_c, 0, 49, 0
2, 36255, Note_on_c, 0, 73, 73
2, 36280, Note_on_c, 0, 53, 57
2, 36287, Note_on_c, 0, 51, 0
2, 36365, Note_on_c, 0, 61, 0
2, 36460, Note_on_c, 0, 73, 0
2, 36469, Note_on_c, 0, 49, 63
2, 36519, Note_on_c, 0, 53, 0
2, 36703, Note_on_c, 0, 70, 76
2, 36712, Note_on_c, 0, 54, 57
2, 36769, Note_on_c, 0, 49, 0
2, 36941, Note_on_c, 0, 56, 58
2, 36963, Note_on_c, 0, 54, 0
2, 37150, Note_on_c, 0, 61, 70
2, 37159, Note_on_c, 0, 54, 52
2, 37200, Note_on_c, 0, 56, 0
2, 37300, Note_on_c, 0, 61, 0
2, 37362, Note_on_c, 0, 53, 60
2, 37373, Note_on_c, 0, 54, 0
2, 37583, Note_on_c, 0, 66, 73
2, 37588, Note_on_c, 0, 51, 60
2, 37620, Note_on_c, 0, 53, 0
2, 37803, Note_on_c, 0, 49, 60
2, 37900, Note_on_c, 0, 51, 0
2, 38036, Note_on_c, 0, 75, 75
2, 38046, Note_on_c, 0, 48, 59
2, 38053, Note_on_c, 0, 49, 0
2, 38214, Note_on_c, 0, 51, 57
2, 38223, Note_on_c, 0, 48, 0
2, 38240, Note_on_c, 0, 73, 72
2, 38282, Note_on_c, 0, 75, 0
2, 38463, Note_on_c, 0, 45, 57
2, 38464, Note_on_c, 0, 72, 72
2, 38508, Note_on_c, 0, 51, 0
2, 38526, Note_on_c, 0, 70, 0
2, 38526, Note_on_c, 0, 73, 0
2, 38670, Note_on_c, 0, 41, 63
2, 38675, Note_on_c, 0, 45, 0
2, 38888, Note_on_c, 0, 65, 65
2, 38914, Note_on_c, 0, 43, 59
2, 38920, Note_on_c, 0, 66, 0
2, 38970, Note_on_c, 0, 41, 0
2, 39088, Note_on_c, 0, 65, 0
2, 39091, Note_on_c, 0, 63, 71
2, 39112, Note_on_c, 0, 45, 60
2, 39154, Note_on_c, 0, 43, 0
2, 39324, Note_on_c, 0, 61, 65
2, 39335, Note_on_c, 0, 46, 58
2, 39343, Note_on_c, 0, 45, 0
2, 39373, Note_on_c, 0, 63, 0
2, 39519, Note_on_c, 0, 46, 0
2, 39529, Note_on_c, 0, 48, 60
2, 39772, Note_on_c, 0, 70, 74
2, 39851, Note_on_c, 0, 72, 0
2, 39854, Control_c, 0, 64, 36
2, 39875, Control_c, 0, 64, 47
2, 39894, Control_c, 0, 64, 55
2, 39914, Control_c, 0, 64, 61
2, 39933, Control_c, 0, 64, 66
2, 39942, Note_on_c, 0, 48, 0
2, 39950, Control_c, 0, 64, 71
2, 39970, Control_c, 0, 64, 77
2, 39990, Control_c, 0, 64, 85
2, 40009, Control_c, 0, 64, 92
2, 40009, Note_on_c, 0, 46, 19
2, 40027, Control_c, 0, 64, 97
2, 40066, Control_c, 0, 64, 102
2, 40067, Note_on_c, 0, 46, 0
2, 40102, Control_c, 0, 64, 106
2, 40167, Note_on_c, 0, 61, 0
2, 40216, Control_c, 0, 64, 100
2, 40235, Control_c, 0, 64, 91
2, 40253, Control_c, 0, 64, 78
2, 40254, Note_on_c, 0, 60, 64
2, 40256, Note_on_c, 0, 51, 66
2, 40272, Control_c, 0, 64, 61
2, 40291, Control_c, 0, 64, 43
2, 40311, Control_c, 0, 64, 33
2, 40366, Control_c, 0, 64, 29
2, 40455, Note_on_c, 0, 51, 0
2, 40467, Note_on_c, 0, 72, 72
2, 40483, Note_on_c, 0, 70, 0
2, 40641, Note_on_c, 0, 60, 0
2, 40665, Note_on_c, 0, 48, 66
2, 40691, Note_on_c, 0, 73, 73
2, 40733, Note_on_c, 0, 72, 0
2, 40854, Note_on_c, 0, 48, 0
2, 40915, Note_on_c, 0, 75, 74
2, 40977, Note_on_c, 0, 73, 0
2, 41119, Note_on_c, 0, 53, 68
2, 41122, Note_on_c, 0, 69, 74
2, 41185, Note_on_c, 0, 75, 0
2, 41319, Note_on_c, 0, 78, 77
2, 41351, Note_on_c, 0, 53, 0
2, 41478, Control_c, 0, 64, 25
2, 41498, Control_c, 0, 64, 17
2, 41514, Control_c, 0, 64, 0
2, 41546, Note_on_c, 0, 41, 73
2, 41548, Note_on_c, 0, 77, 67
2, 41680, Control_c, 0, 64, 33
2, 41700, Control_c, 0, 64, 53
2, 41712, Note_on_c, 0, 41, 0
2, 41719, Control_c, 0, 64, 64
2, 41739, Control_c, 0, 64, 68
2, 41743, Note_on_c, 0, 69, 0
2, 41772, Note_on_c, 0, 75, 74
2, 41777, Control_c, 0, 64, 70
2, 41805, Note_on_c, 0, 78, 0
2, 41814, Control_c, 0, 64, 72
2, 41821, Note_on_c, 0, 77, 0
2, 41966, Control_c, 0, 64, 69
2, 41981, Control_c, 0, 64, 64
2, 41992, Note_on_c, 0, 73, 65
2, 41999, Note_on_c, 0, 46, 59
2, 42001, Control_c, 0, 64, 58
2, 42018, Control_c, 0, 64, 49
2, 42033, Note_on_c, 0, 75, 0
2, 42035, Control_c, 0, 64, 41
2, 42056, Control_c, 0, 64, 34
2, 42076, Control_c, 0, 64, 27
2, 42094, Control_c, 0, 64, 23
2, 42183, Note_on_c, 0, 77, 71
2, 42193, Note_on_c, 0, 58, 68
2, 42214, Note_on_c, 0, 46, 0
2, 42242, Note_on_c, 0, 73, 0
2, 42292, Note_on_c, 0, 58, 0
2, 42383, Note_on_c, 0, 60, 77
2, 42394, Note_on_c, 0, 75, 72
2, 42504, Note_on_c, 0, 77, 0
2, 42581, Note_on_c, 0, 61, 76
2, 42597, Note_on_c, 0, 73, 72
2, 42657, Note_on_c, 0, 60, 0
2, 42714, Note_on_c, 0, 75, 0
2, 42813, Note_on_c, 0, 63, 75
2, 42823, Note_on_c, 0, 72, 72
2, 42843, Note_on_c, 0, 73, 0
2, 42861, Note_on_c, 0, 61, 0
2, 43010, Note_on_c, 0, 65, 71
2, 43016, Note_on_c, 0, 70, 69
2, 43049, Note_on_c, 0, 63, 0
2, 43064, Note_on_c, 0, 72, 0
2, 43212, Note_on_c, 0, 60, 76
2, 43233, Note_on_c, 0, 69, 74
2, 43257, Note_on_c, 0, 65, 0
2, 43273, Note_on_c, 0, 70, 0
2, 43280, Note_on_c, 0, 66, 47
2, 43374, Control_c, 0, 64, 27
2, 43414, Control_c, 0, 64, 33
2, 43429, Note_on_c, 0, 63, 70
2, 43435, Note_on_c, 0, 72, 70
2, 43442, Note_on_c, 0, 60, 0
2, 43447, Control_c, 0, 64, 41
2, 43467, Note_on_c, 0, 66, 0
2, 43469, Control_c, 0, 64, 48
2, 43470, Note_on_c, 0, 69, 0
2, 43487, Control_c, 0, 64, 54
2, 43506, Control_c, 0, 64, 56
2, 43545, Control_c, 0, 64, 60
2, 43563, Control_c, 0, 64, 62
2, 43583, Control_c, 0, 64, 64
2, 43616, Control_c, 0, 64, 65
2, 43654, Control_c, 0, 64, 66
2, 43688, Note_on_c, 0, 61, 72
2, 43689, Control_c, 0, 64, 64
2, 43706, Note_on_c, 0, 70, 69
2, 43709, Control_c, 0, 64, 61
2, 43722, Note_on_c, 0, 65, 60
2, 43728, Control_c, 0, 64, 57
2, 43749, Control_c, 0, 64, 52
2, 43755, Note_on_c, 0, 63, 0
2, 43765, Control_c, 0, 64, 45
2, 43778, Note_on_c, 0, 72, 0
2, 43785, Control_c, 0, 64, 40
2, 43803, Control_c, 0, 64, 35
2, 43880, Control_c, 0, 64, 31
2, 43905, Note_on_c, 0, 60, 72
2, 43919, Note_on_c, 0, 61, 0
2, 44103, Note_on_c, 0, 73, 72
2, 44118, Note_on_c, 0, 58, 74
2, 44190, Note_on_c, 0, 60, 0
2, 44302, Note_on_c, 0, 57, 73
2, 44313, Note_on_c, 0, 72, 74
2, 44350, Note_on_c, 0, 73, 0
2, 44352, Note_on_c, 0, 58, 0
2, 44436, Note_on_c, 0, 70, 0
2, 44504, Control_c, 0, 64, 25
2, 44522, Control_c, 0, 64, 19
2, 44564, Note_on_c, 0, 73, 73
2, 44574, Note_on_c, 0, 58, 77
2, 44574, Note_on_c, 0, 72, 0
2, 44576, Control_c, 0, 64, 0
2, 44599, Note_on_c, 0, 57, 0
2, 44670, Control_c, 0, 64, 19
2, 44688, Control_c, 0, 64, 38
2, 44707, Control_c, 0, 64, 53
2, 44725, Control_c, 0, 64, 61
2, 44744, Control_c, 0, 64, 64
2, 44763, Control_c, 0, 64, 67
2, 44782, Control_c, 0, 64, 72
2, 44800, Control_c, 0, 64, 80
2, 44804, Note_on_c, 0, 72, 57
2, 44822, Control_c, 0, 64, 89
2, 44835, Note_on_c, 0, 73, 0
2, 44839, Control_c, 0, 64, 94
2, 44876, Control_c, 0, 64, 100
2, 44897, Control_c, 0, 64, 104
2, 44910, Note_on_c, 0, 72, 0
2, 44914, Control_c, 0, 64, 108
2, 45010, Note_on_c, 0, 73, 76
2, 45015, Note_on_c, 0, 53, 67
2, 45026, Note_on_c, 0, 70, 67
2, 45030, Control_c, 0, 64, 97
2, 45046, Note_on_c, 0, 65, 0
2, 45048, Control_c, 0, 64, 81
2, 45067, Control_c, 0, 64, 59
2, 45086, Control_c, 0, 64, 27
2, 45099, Note_on_c, 0, 58, 0
2, 45106, Control_c, 0, 64, 0
2, 45142, Control_c, 0, 64, 15
2, 45160, Control_c, 0, 64, 37
2, 45181, Control_c, 0, 64, 56
2, 45197, Control_c, 0, 64, 64
2, 45217, Control_c, 0, 64, 67
2, 45228, Note_on_c, 0, 69, 70
2, 45255, Control_c, 0, 64, 68
2, 45257, Note_on_c, 0, 70, 0
2, 45274, Control_c, 0, 64, 70
2, 45277, Note_on_c, 0, 73, 0
2, 45295, Control_c, 0, 64, 75
2, 45312, Control_c, 0, 64, 79
2, 45332, Control_c, 0, 64, 83
2, 45348, Control_c, 0, 64, 85
2, 45450, Note_on_c, 0, 73, 71
2, 45464, Note_on_c, 0, 70, 64
2, 45469, Note_on_c, 0, 54, 64
2, 45482, Control_c, 0, 64, 78
2, 45501, Control_c, 0, 64, 66
2, 45517, Note_on_c, 0, 69, 0
2, 45535, Control_c, 0, 64, 50
2, 45538, Note_on_c, 0, 53, 0
2, 45554, Control_c, 0, 64, 30
2, 45574, Control_c, 0, 64, 8
2, 45593, Control_c, 0, 64, 0
2, 45899, Note_on_c, 0, 72, 72
2, 45910, Note_on_c, 0, 51, 55
2, 45937, Note_on_c, 0, 73, 0
2, 46064, Note_on_c, 0, 54, 0
2, 46083, Note_on_c, 0, 73, 73
2, 46152, Note_on_c, 0, 72, 0
2, 46337, Note_on_c, 0, 75, 74
2, 46339, Note_on_c, 0, 48, 62
2, 46388, Note_on_c, 0, 51, 0
2, 46402, Control_c, 0, 64, 20
2, 46422, Control_c, 0, 64, 34
2, 46442, Control_c, 0, 64, 44
2, 46460, Control_c, 0, 64, 52
2, 46488, Note_on_c, 0, 73, 0
2, 46493, Control_c, 0, 64, 57
2, 46514, Control_c, 0, 64, 62
2, 46530, Control_c, 0, 64, 66
2, 46549, Control_c, 0, 64, 70
2, 46565, Note_on_c, 0, 69, 64
2, 46567, Control_c, 0, 64, 73
2, 46573, Note_on_c, 0, 70, 0
2, 46585, Control_c, 0, 64, 75
2, 46602, Note_on_c, 0, 75, 0
2, 46606, Control_c, 0, 64, 78
2, 46624, Control_c, 0, 64, 80
2, 46662, Control_c, 0, 64, 83
2, 46681, Control_c, 0, 64, 85
2, 46699, Control_c, 0, 64, 87
2, 46775, Control_c, 0, 64, 84
2, 46781, Note_on_c, 0, 75, 68
2, 46787, Note_on_c, 0, 67, 63
2, 46789, Note_on_c, 0, 53, 60
2, 46793, Control_c, 0, 64, 79
2, 46814, Control_c, 0, 64, 72
2, 46828, Note_on_c, 0, 69, 0
2, 46832, Control_c, 0, 64, 63
2, 46852, Control_c, 0, 64, 54
2, 46866, Note_on_c, 0, 48, 0
2, 46869, Control_c, 0, 64, 48
2, 46890, Control_c, 0, 64, 45
2, 46939, Note_on_c, 0, 67, 0
2, 46946, Control_c, 0, 64, 43
2, 46986, Note_on_c, 0, 69, 51
2, 47008, Note_on_c, 0, 75, 0
2, 47232, Note_on_c, 0, 75, 62
2, 47244, Note_on_c, 0, 70, 56
2, 47245, Note_on_c, 0, 49, 60
2, 47266, Control_c, 0, 64, 40
2, 47277, Note_on_c, 0, 69, 0
2, 47305, Control_c, 0, 64, 33
2, 47326, Note_on_c, 0, 53, 0
2, 47381, Control_c, 0, 64, 28
2, 47492, Control_c, 0, 64, 23
2, 47528, Control_c, 0, 64, 16
2, 47547, Control_c, 0, 64, 11
2, 47567, Control_c, 0, 64, 0
2, 47689, Note_on_c, 0, 73, 65
2, 47692, Note_on_c, 0, 46, 56
2, 47699, Note_on_c, 0, 75, 0
2, 47738, Control_c, 0, 64, 17
2, 47755, Control_c, 0, 64, 33
2, 47758, Note_on_c, 0, 49, 0
2, 47775, Control_c, 0, 64, 52
2, 47792, Control_c, 0, 64, 66
2, 47792, Note_on_c, 0, 70, 0
2, 47806, Note_on_c, 0, 46, 0
2, 47812, Control_c, 0, 64, 74
2, 47830, Control_c, 0, 64, 80
2, 47850, Control_c, 0, 64, 83
2, 47868, Control_c, 0, 64, 86
2, 47897, Note_on_c, 0, 75, 58
2, 47905, Control_c, 0, 64, 91
2, 47953, Note_on_c, 0, 73, 0
2, 48105, Note_on_c, 0, 75, 0
2, 48116, Control_c, 0, 64, 87
2, 48126, Note_on_c, 0, 77, 61
2, 48135, Control_c, 0, 64, 81
2, 48150, Control_c, 0, 64, 71
2, 48151, Note_on_c, 0, 58, 53
2, 48157, Note_on_c, 0, 61, 49
2, 48171, Control_c, 0, 64, 59
2, 48187, Control_c, 0, 64, 47
2, 48207, Control_c, 0, 64, 41
2, 48242, Control_c, 0, 64, 36
2, 48313, Note_on_c, 0, 58, 0
2, 48332, Note_on_c, 0, 80, 64
2, 48396, Note_on_c, 0, 77, 0
2, 48561, Note_on_c, 0, 63, 58
2, 48562, Note_on_c, 0, 61, 0
2, 48563, Note_on_c, 0, 78, 62
2, 48578, Note_on_c, 0, 58, 57
2, 48654, Note_on_c, 0, 80, 0
2, 48745, Note_on_c, 0, 58, 0
2, 48772, Note_on_c, 0, 77, 65
2, 48780, Note_on_c, 0, 78, 0
2, 48781, Note_on_c, 0, 65, 56
2, 48788, Note_on_c, 0, 63, 0
2, 48988, Note_on_c, 0, 75, 68
2, 49001, Note_on_c, 0, 65, 0
2, 49002, Note_on_c, 0, 58, 62
2, 49004, Note_on_c, 0, 77, 0
2, 49027, Note_on_c, 0, 66, 39
2, 49092, Control_c, 0, 64, 32
2, 49194, Note_on_c, 0, 73, 69
2, 49241, Note_on_c, 0, 75, 0
2, 49408, Control_c, 0, 64, 28
2, 49427, Note_on_c, 0, 72, 65
2, 49434, Note_on_c, 0, 56, 61
2, 49435, Note_on_c, 0, 73, 0
2, 49449, Note_on_c, 0, 58, 0
2, 49623, Note_on_c, 0, 75, 66
2, 49630, Note_on_c, 0, 58, 62
2, 49690, Note_on_c, 0, 72, 0
2, 49695, Note_on_c, 0, 56, 0
2, 49854, Note_on_c, 0, 60, 68
2, 49856, Note_on_c, 0, 68, 59
2, 49868, Note_on_c, 0, 75, 0
2, 49913, Note_on_c, 0, 58, 0
2, 49932, Note_on_c, 0, 66, 0
2, 50052, Note_on_c, 0, 65, 62
2, 50060, Note_on_c, 0, 60, 0
2, 50271, Note_on_c, 0, 60, 68
2, 50283, Note_on_c, 0, 63, 66
2, 50283, Note_on_c, 0, 65, 0
2, 50492, Note_on_c, 0, 66, 66
2, 50499, Note_on_c, 0, 60, 0
2, 50516, Note_on_c, 0, 63, 0
2, 50726, Note_on_c, 0, 73, 68
2, 50732, Note_on_c, 0, 60, 60
2, 50732, Note_on_c, 0, 65, 54
2, 50744, Note_on_c, 0, 66, 0
2, 50774, Note_on_c, 0, 68, 0
2, 50891, Note_on_c, 0, 65, 0
2, 50931, Note_on_c, 0, 63, 64
2, 51139, Note_on_c, 0, 58, 57
2, 51150, Note_on_c, 0, 61, 66
2, 51157, Note_on_c, 0, 63, 0
2, 51178, Note_on_c, 0, 60, 0
2, 51353, Note_on_c, 0, 63, 62
2, 51359, Note_on_c, 0, 61, 0
2, 51360, Note_on_c, 0, 60, 66
2, 51371, Note_on_c, 0, 58, 0
2, 51582, Note_on_c, 0, 61, 66
2, 51586, Note_on_c, 0, 65, 67
2, 51587, Note_on_c, 0, 63, 0
2, 51635, Note_on_c, 0, 60, 0
2, 51795, Note_on_c, 0, 66, 69
2, 51810, Note_on_c, 0, 61, 0
2, 51882, Note_on_c, 0, 65, 0
2, 52010, Note_on_c, 0, 61, 66
2, 52017, Note_on_c, 0, 68, 71
2, 52043, Note_on_c, 0, 66, 0
2, 52194, Note_on_c, 0, 61, 0
2, 52247, Note_on_c, 0, 65, 73
2, 52271, Note_on_c, 0, 68, 0
2, 52475, Note_on_c, 0, 61, 65
2, 52480, Note_on_c, 0, 66, 67
2, 52505, Note_on_c, 0, 65, 0
2, 52674, Note_on_c, 0, 70, 70
2, 52736, Note_on_c, 0, 73, 0
2, 52885, Note_on_c, 0, 60, 60
2, 52888, Note_on_c, 0, 72, 70
2, 52895, Note_on_c, 0, 70, 0
2, 53017, Note_on_c, 0, 61, 0
2, 53079, Note_on_c, 0, 58, 65
2, 53083, Note_on_c, 0, 73, 72
2, 53087, Note_on_c, 0, 60, 0
2, 53196, Note_on_c, 0, 72, 0
2, 53317, Note_on_c, 0, 75, 77
2, 53319, Note_on_c, 0, 60, 68
2, 53436, Note_on_c, 0, 73, 0
2, 53438, Note_on_c, 0, 58, 0
2, 53452, Note_on_c, 0, 66, 0
2, 53522, Note_on_c, 0, 77, 74
2, 53540, Note_on_c, 0, 60, 0
2, 53608, Note_on_c, 0, 75, 0
2, 53746, Note_on_c, 0, 63, 61
2, 53753, Note_on_c, 0, 61, 64
2, 53757, Note_on_c, 0, 78, 73
2, 53792, Note_on_c, 0, 77, 0
2, 53797, Control_c, 0, 64, 32
2, 53907, Note_on_c, 0, 63, 0
2, 53933, Note_on_c, 0, 61, 0
2, 53945, Note_on_c, 0, 75, 71
2, 54001, Note_on_c, 0, 78, 0
2, 54209, Note_on_c, 0, 77, 69
2, 54210, Note_on_c, 0, 60, 53
2, 54211, Note_on_c, 0, 56, 45
2, 54262, Note_on_c, 0, 75, 0
2, 54426, Note_on_c, 0, 66, 59
2, 54431, Note_on_c, 0, 74, 68
2, 54565, Note_on_c, 0, 66, 0
2, 54609, Note_on_c, 0, 73, 80
2, 54619, Note_on_c, 0, 65, 64
2, 54624, Note_on_c, 0, 74, 0
2, 54633, Note_on_c, 0, 60, 0
2, 54648, Note_on_c, 0, 77, 0
2, 54732, Note_on_c, 0, 65, 0
2, 54733, Control_c, 0, 64, 38
2, 54754, Control_c, 0, 64, 45
2, 54773, Control_c, 0, 64, 51
2, 54790, Control_c, 0, 64, 55
2, 54808, Control_c, 0, 64, 59
2, 54810, Note_on_c, 0, 63, 66
2, 54817, Note_on_c, 0, 72, 73
2, 54821, Note_on_c, 0, 73, 0
2, 54829, Control_c, 0, 64, 63
2, 54848, Control_c, 0, 64, 68
2, 54868, Control_c, 0, 64, 74
2, 54886, Control_c, 0, 64, 82
2, 54906, Control_c, 0, 64, 90
2, 54911, Note_on_c, 0, 72, 0
2, 54925, Control_c, 0, 64, 96
2, 54935, Note_on_c, 0, 63, 0
2, 54962, Control_c, 0, 64, 101
2, 54985, Note_on_c, 0, 56, 0
2, 55057, Note_on_c, 0, 73, 75
2, 55071, Note_on_c, 0, 65, 58
2, 55166, Control_c, 0, 64, 94
2, 55186, Control_c, 0, 64, 86
2, 55203, Control_c, 0, 64, 73
2, 55222, Control_c, 0, 64, 55
2, 55241, Control_c, 0, 64, 32
2, 55261, Control_c, 0, 64, 17
2, 55309, Note_on_c, 0, 49, 58
2, 55518, Note_on_c, 0, 68, 66
2, 55519, Note_on_c, 0, 51, 61
2, 55564, Note_on_c, 0, 49, 0
2, 55565, Note_on_c, 0, 73, 0
2, 55736, Note_on_c, 0, 51, 0
2, 55745, Note_on_c, 0, 53, 58
2, 55789, Control_c, 0, 64, 21
2, 55945, Note_on_c, 0, 54, 51
2, 55947, Note_on_c, 0, 70, 68
2, 55968, Note_on_c, 0, 68, 0
2, 55980, Note_on_c, 0, 53, 0
2, 56162, Control_c, 0, 64, 25
2, 56175, Note_on_c, 0, 56, 56
2, 56189, Note_on_c, 0, 54, 0
2, 56400, Note_on_c, 0, 63, 52
2, 56409, Note_on_c, 0, 66, 64
2, 56420, Note_on_c, 0, 58, 58
2, 56425, Note_on_c, 0, 56, 0
2, 56432, Note_on_c, 0, 70, 0
2, 56500, Note_on_c, 0, 65, 0
2, 56503, Control_c, 0, 64, 29
2, 56602, Note_on_c, 0, 61, 63
2, 56610, Note_on_c, 0, 54, 56
2, 56612, Note_on_c, 0, 63, 0
2, 56625, Note_on_c, 0, 58, 0
2, 56828, Note_on_c, 0, 63, 64
2, 56836, Note_on_c, 0, 61, 0
2, 56845, Note_on_c, 0, 56, 52
2, 56846, Note_on_c, 0, 60, 58
2, 56855, Note_on_c, 0, 54, 0
2, 56880, Note_on_c, 0, 66, 0
2, 57040, Note_on_c, 0, 60, 0
2, 57049, Note_on_c, 0, 61, 63
2, 57277, Note_on_c, 0, 68, 60
2, 57281, Note_on_c, 0, 58, 54
2, 57304, Note_on_c, 0, 63, 0
2, 57306, Note_on_c, 0, 56, 0
2, 57327, Note_on_c, 0, 61, 0
2, 57478, Note_on_c, 0, 58, 0
2, 57509, Note_on_c, 0, 60, 43
2, 57728, Note_on_c, 0, 65, 56
2, 57729, Note_on_c, 0, 49, 43
2, 57732, Note_on_c, 0, 61, 42
2, 57781, Note_on_c, 0, 60, 0
2, 57790, Note_on_c, 0, 68, 0
2, 57908, Note_on_c, 0, 61, 0
2, 57946, Note_on_c, 0, 53, 55
2, 57955, Note_on_c, 0, 49, 0
2, 58171, Note_on_c, 0, 61, 56
2, 58182, Note_on_c, 0, 54, 51
2, 58183, Note_on_c, 0, 53, 0
2, 58184, Note_on_c, 0, 65, 0
2, 58374, Note_on_c, 0, 54, 0
2, 58400, Note_on_c, 0, 56, 46
2, 58550, Note_on_c, 0, 61, 0
2, 58615, Note_on_c, 0, 73, 65
2, 58617, Note_on_c, 0, 70, 49
2, 58621, Note_on_c, 0, 58, 54
2, 58636, Note_on_c, 0, 56, 0
2, 58814, Note_on_c, 0, 73, 0
2, 58833, Note_on_c, 0, 60, 54
2, 58842, Note_on_c, 0, 70, 0
2, 58845, Note_on_c, 0, 68, 48
2, 58855, Note_on_c, 0, 58, 0
2, 59064, Note_on_c, 0, 73, 69
2, 59077, Note_on_c, 0, 60, 0
2, 59077, Note_on_c, 0, 66, 51
2, 59078, Note_on_c, 0, 68, 0
2, 59094, Note_on_c, 0, 61, 51
2, 59182, Note_on_c, 0, 66, 0
2, 59279, Note_on_c, 0, 65, 52
2, 59281, Note_on_c, 0, 61, 0
2, 59281, Note_on_c, 0, 73, 0
2, 59283, Note_on_c, 0, 58, 51
2, 59495, Note_on_c, 0, 65, 0
2, 59518, Note_on_c, 0, 73, 67
2, 59519, Note_on_c, 0, 63, 53
2, 59528, Note_on_c, 0, 66, 39
2, 59553, Note_on_c, 0, 58, 0
2, 59746, Note_on_c, 0, 63, 0
2, 59746, Note_on_c, 0, 65, 45
2, 59961, Note_on_c, 0, 63, 50
2, 59968, Note_on_c, 0, 66, 0
2, 59978, Note_on_c, 0, 72, 61
2, 59988, Note_on_c, 0, 65, 0
2, 60005, Note_on_c, 0, 73, 0
2, 60172, Note_on_c, 0, 73, 61
2, 60176, Note_on_c, 0, 72, 0
2, 60180, Note_on_c, 0, 61, 55
2, 60191, Note_on_c, 0, 63, 0
2, 60405, Note_on_c, 0, 75, 66
2, 60422, Note_on_c, 0, 68, 46
2, 60427, Note_on_c, 0, 61, 0
2, 60430, Note_on_c, 0, 60, 55
2, 60475, Note_on_c, 0, 73, 0
2, 60610, Note_on_c, 0, 66, 62
2, 60626, Note_on_c, 0, 68, 0
2, 60626, Note_on_c, 0, 75, 0
2, 60830, Note_on_c, 0, 75, 67
2, 60847, Note_on_c, 0, 60, 0
2, 60850, Note_on_c, 0, 65, 49
2, 60856, Note_on_c, 0, 56, 46
2, 60922, Note_on_c, 0, 66, 0
2, 61044, Note_on_c, 0, 75, 0
2, 61051, Note_on_c, 0, 65, 0
2, 61066, Note_on_c, 0, 63, 56
2, 61288, Note_on_c, 0, 75, 72
2, 61299, Note_on_c, 0, 56, 0
2, 61322, Note_on_c, 0, 65, 43
2, 61327, Note_on_c, 0, 63, 0
2, 61328, Note_on_c, 0, 61, 50
2, 61472, Note_on_c, 0, 65, 0
2, 61491, Note_on_c, 0, 63, 57
2, 61724, Note_on_c, 0, 73, 72
2, 61734, Note_on_c, 0, 65, 54
2, 61755, Note_on_c, 0, 63, 0
2, 61794, Note_on_c, 0, 75, 0
2, 61913, Note_on_c, 0, 65, 0
2, 61936, Note_on_c, 0, 75, 78
2, 61943, Note_on_c, 0, 66, 59
2, 62066, Note_on_c, 0, 73, 0
2, 62150, Note_on_c, 0, 66, 0
2, 62162, Note_on_c, 0, 77, 72
2, 62177, Note_on_c, 0, 68, 60
2, 62272, Note_on_c, 0, 75, 0
2, 62333, Note_on_c, 0, 68, 0
2, 62362, Note_on_c, 0, 61, 0
2, 62369, Note_on_c, 0, 70, 66
2, 62406, Note_on_c, 0, 77, 0
2, 62580, Note_on_c, 0, 77, 70
2, 62589, Note_on_c, 0, 72, 65
2, 62591, Note_on_c, 0, 70, 0
2, 62596, Note_on_c, 0, 56, 62
2, 62797, Note_on_c, 0, 72, 0
2, 62806, Note_on_c, 0, 68, 64
2, 62837, Note_on_c, 0, 77, 0
2, 62922, Note_on_c, 0, 68, 0
2, 63041, Note_on_c, 0, 77, 69
2, 63047, Note_on_c, 0, 73, 60
2, 63054, Note_on_c, 0, 58, 58
2, 63086, Note_on_c, 0, 56, 0
2, 63257, Note_on_c, 0, 56, 52
2, 63306, Note_on_c, 0, 58, 0
2, 63457, Note_on_c, 0, 75, 65
2, 63466, Note_on_c, 0, 56, 0
2, 63469, Note_on_c, 0, 55, 56
2, 63506, Note_on_c, 0, 77, 0
2, 63667, Note_on_c, 0, 53, 60
2, 63673, Note_on_c, 0, 77, 68
2, 63680, Note_on_c, 0, 55, 0
2, 63736, Note_on_c, 0, 75, 0
2, 63880, Note_on_c, 0, 77, 0
2, 63887, Note_on_c, 0, 51, 57
2, 63888, Note_on_c, 0, 79, 69
2, 63932, Note_on_c, 0, 53, 0
2, 64082, Note_on_c, 0, 80, 72
2, 64104, Note_on_c, 0, 79, 0
2, 64109, Note_on_c, 0, 49, 48
2, 64174, Note_on_c, 0, 51, 0
2, 64301, Note_on_c, 0, 49, 0
2, 64304, Note_on_c, 0, 82, 65
2, 64322, Note_on_c, 0, 48, 48
2, 64373, Note_on_c, 0, 80, 0
2, 64511, Note_on_c, 0, 79, 66
2, 64526, Note_on_c, 0, 46, 56
2, 64547, Note_on_c, 0, 48, 0
2, 64548, Note_on_c, 0, 82, 0
2, 64761, Note_on_c, 0, 79, 0
2, 64762, Note_on_c, 0, 80, 67
2, 64777, Note_on_c, 0, 44, 50
2, 64789, Note_on_c, 0, 46, 0
2, 64974, Note_on_c, 0, 46, 47
2, 64976, Note_on_c, 0, 44, 0
2, 65173, Note_on_c, 0, 46, 0
2, 65205, Note_on_c, 0, 48, 49
2, 65206, Note_on_c, 0, 73, 0
2, 65207, Note_on_c, 0, 75, 50
2, 65406, Note_on_c, 0, 49, 50
2, 65409, Note_on_c, 0, 48, 0
2, 65411, Note_on_c, 0, 73, 49
2, 65441, Note_on_c, 0, 75, 0
2, 65621, Note_on_c, 0, 51, 47
2, 65630, Note_on_c, 0, 72, 54
2, 65632, Note_on_c, 0, 49, 0
2, 65697, Note_on_c, 0, 73, 0
2, 65776, Note_on_c, 0, 72, 0
2, 65852, Note_on_c, 0, 53, 51
2, 65861, Note_on_c, 0, 51, 0
2, 66067, Note_on_c, 0, 75, 62
2, 66086, Note_on_c, 0, 54, 47
2, 66087, Note_on_c, 0, 53, 0
2, 66198, Note_on_c, 0, 75, 0
2, 66269, Note_on_c, 0, 51, 51
2, 66272, Note_on_c, 0, 54, 0
2, 66504, Note_on_c, 0, 68, 62
2, 66527, Note_on_c, 0, 53, 43
2, 66538, Note_on_c, 0, 51, 0
2, 66737, Note_on_c, 0, 51, 48
2, 66760, Note_on_c, 0, 53, 0
2, 66941, Note_on_c, 0, 77, 64
2, 66950, Note_on_c, 0, 51, 0
2, 66959, Note_on_c, 0, 49, 51
2, 67060, Note_on_c, 0, 68, 0
2, 67132, Note_on_c, 0, 51, 47
2, 67140, Note_on_c, 0, 75, 65
2, 67172, Note_on_c, 0, 49, 0
2, 67345, Note_on_c, 0, 77, 0
2, 67357, Note_on_c, 0, 73, 67
2, 67366, Note_on_c, 0, 53, 50
2, 67393, Note_on_c, 0, 51, 0
2, 67463, Note_on_c, 0, 75, 0
2, 67507, Note_on_c, 0, 73, 0
2, 67555, Note_on_c, 0, 53, 0
2, 67565, Note_on_c, 0, 55, 56
2, 67787, Note_on_c, 0, 72, 67
2, 67810, Note_on_c, 0, 56, 55
2, 67811, Note_on_c, 0, 55, 0
2, 67956, Note_on_c, 0, 72, 0
2, 68000, Note_on_c, 0, 56, 0
2, 68013, Note_on_c, 0, 53, 57
2, 68234, Note_on_c, 0, 70, 65
2, 68237, Note_on_c, 0, 61, 60
2, 68264, Note_on_c, 0, 53, 0
2, 68384, Note_on_c, 0, 80, 0
2, 68432, Note_on_c, 0, 61, 0
2, 68439, Note_on_c, 0, 60, 64
2, 68663, Note_on_c, 0, 79, 72
2, 68673, Note_on_c, 0, 58, 61
2, 68690, Note_on_c, 0, 60, 0
2, 68789, Control_c, 0, 64, 33
2, 68870, Note_on_c, 0, 56, 63
2, 68875, Note_on_c, 0, 80, 78
2, 68903, Note_on_c, 0, 58, 0
2, 69083, Note_on_c, 0, 56, 0
2, 69088, Note_on_c, 0, 55, 64
2, 69091, Control_c, 0, 64, 26
2, 69095, Note_on_c, 0, 82, 77
2, 69110, Control_c, 0, 64, 21
2, 69130, Control_c, 0, 64, 15
2, 69138, Note_on_c, 0, 79, 0
2, 69149, Control_c, 0, 64, 11
2, 69161, Note_on_c, 0, 80, 0
2, 69223, Control_c, 0, 64, 27
2, 69243, Control_c, 0, 64, 40
2, 69260, Control_c, 0, 64, 50
2, 69260, Note_on_c, 0, 82, 0
2, 69282, Control_c, 0, 64, 57
2, 69299, Control_c, 0, 64, 62
2, 69301, Note_on_c, 0, 53, 64
2, 69319, Control_c, 0, 64, 67
2, 69338, Control_c, 0, 64, 73
2, 69356, Control_c, 0, 64, 78
2, 69360, Note_on_c, 0, 55, 0
2, 69376, Control_c, 0, 64, 82
2, 69394, Control_c, 0, 64, 84
2, 69431, Control_c, 0, 64, 86
2, 69441, Note_on_c, 0, 70, 0
2, 69541, Note_on_c, 0, 51, 64
2, 69541, Note_on_c, 0, 73, 79
2, 69551, Note_on_c, 0, 70, 48
2, 69580, Control_c, 0, 64, 84
2, 69591, Note_on_c, 0, 53, 0
2, 69598, Control_c, 0, 64, 80
2, 69617, Control_c, 0, 64, 76
2, 69638, Control_c, 0, 64, 70
2, 69655, Control_c, 0, 64, 61
2, 69674, Control_c, 0, 64, 49
2, 69692, Control_c, 0, 64, 37
2, 69711, Control_c, 0, 64, 29
2, 69749, Note_on_c, 0, 55, 66
2, 69791, Note_on_c, 0, 51, 0
2, 69968, Note_on_c, 0, 48, 69
2, 70051, Note_on_c, 0, 55, 0
2, 70179, Note_on_c, 0, 53, 75
2, 70241, Note_on_c, 0, 48, 0
2, 70373, Note_on_c, 0, 72, 77
2, 70384, Note_on_c, 0, 68, 63
2, 70389, Note_on_c, 0, 51, 68
2, 70415, Note_on_c, 0, 73, 0
2, 70444, Note_on_c, 0, 53, 0
2, 70452, Note_on_c, 0, 70, 0
2, 70594, Note_on_c, 0, 73, 76
2, 70606, Note_on_c, 0, 49, 65
2, 70612, Note_on_c, 0, 51, 0
2, 70655, Note_on_c, 0, 72, 0
2, 70747, Control_c, 0, 64, 24
2, 70767, Control_c, 0, 64, 17
2, 70785, Control_c, 0, 64, 0
2, 70795, Note_on_c, 0, 49, 0
2, 70817, Note_on_c, 0, 75, 78
2, 70823, Note_on_c, 0, 48, 67
2, 70865, Note_on_c, 0, 73, 0
2, 70897, Control_c, 0, 64, 11
2, 70917, Control_c, 0, 64, 31
2, 70935, Control_c, 0, 64, 50
2, 70953, Control_c, 0, 64, 63
2, 70965, Note_on_c, 0, 75, 0
2, 70970, Control_c, 0, 64, 74
2, 70991, Control_c, 0, 64, 85
2, 71010, Control_c, 0, 64, 99
2, 71010, Note_on_c, 0, 68, 0
2, 71027, Note_on_c, 0, 46, 67
2, 71029, Control_c, 0, 64, 109
2, 71048, Control_c, 0, 64, 116
2, 71063, Note_on_c, 0, 48, 0
2, 71069, Control_c, 0, 64, 120
2, 71104, Control_c, 0, 64, 125
2, 71243, Note_on_c, 0, 66, 78
2, 71258, Note_on_c, 0, 63, 70
2, 71269, Note_on_c, 0, 44, 66
2, 71294, Control_c, 0, 64, 111
2, 71299, Note_on_c, 0, 46, 0
2, 71315, Control_c, 0, 64, 94
2, 71332, Control_c, 0, 64, 73
2, 71350, Control_c, 0, 64, 50
2, 71370, Control_c, 0, 64, 28
2, 71388, Control_c, 0, 64, 21
2, 71442, Control_c, 0, 64, 13
2, 71454, Note_on_c, 0, 48, 59
2, 71461, Control_c, 0, 64, 0
2, 71477, Note_on_c, 0, 44, 0
2, 71609, Note_on_c, 0, 63, 0
2, 71707, Control_c, 0, 64, 29
2, 71709, Note_on_c, 0, 37, 75
2, 71722, Control_c, 0, 64, 51
2, 71741, Control_c, 0, 64, 67
2, 71743, Note_on_c, 0, 48, 0
2, 71759, Control_c, 0, 64, 79
2, 71777, Control_c, 0, 64, 95
2, 71797, Control_c, 0, 64, 111
2, 71816, Control_c, 0, 64, 124
2, 71820, Note_on_c, 0, 37, 0
2, 71916, Note_on_c, 0, 65, 70
2, 71979, Note_on_c, 0, 66, 0
2, 72125, Note_on_c, 0, 65, 0
2, 72126, Note_on_c, 0, 53, 58
2, 72135, Control_c, 0, 64, 117
2, 72135, Note_on_c, 0, 61, 75
2, 72140, Note_on_c, 0, 67, 74
2, 72156, Control_c, 0, 64, 102
2, 72175, Control_c, 0, 64, 82
2, 72194, Control_c, 0, 64, 61
2, 72214, Control_c, 0, 64, 39
2, 72234, Control_c, 0, 64, 27
2, 72289, Note_on_c, 0, 61, 0
2, 72332, Note_on_c, 0, 60, 73
2, 72338, Note_on_c, 0, 68, 76
2, 72344, Control_c, 0, 64, 23
2, 72400, Note_on_c, 0, 53, 0
2, 72559, Note_on_c, 0, 58, 65
2, 72559, Note_on_c, 0, 60, 0
2, 72570, Note_on_c, 0, 49, 67
2, 72571, Note_on_c, 0, 70, 77
2, 72677, Note_on_c, 0, 67, 0
2, 72707, Note_on_c, 0, 68, 0
2, 72745, Note_on_c, 0, 58, 0
2, 72763, Note_on_c, 0, 56, 67
2, 72764, Note_on_c, 0, 72, 75
2, 72831, Note_on_c, 0, 49, 0
2, 72839, Note_on_c, 0, 70, 0
2, 72972, Note_on_c, 0, 55, 68
2, 72981, Note_on_c, 0, 51, 60
2, 72990, Note_on_c, 0, 73, 76
2, 72993, Note_on_c, 0, 56, 0
2, 73002, Note_on_c, 0, 72, 0
2, 73181, Note_on_c, 0, 58, 74
2, 73182, Note_on_c, 0, 70, 77
2, 73211, Note_on_c, 0, 51, 0
2, 73217, Note_on_c, 0, 55, 0
2, 73218, Note_on_c, 0, 73, 0
2, 73453, Note_on_c, 0, 72, 70
2, 73460, Note_on_c, 0, 56, 75
2, 73473, Note_on_c, 0, 70, 0
2, 73526, Note_on_c, 0, 58, 0
2, 73669, Note_on_c, 0, 55, 80
2, 73673, Note_on_c, 0, 63, 71
2, 73694, Note_on_c, 0, 56, 0
2, 73850, Note_on_c, 0, 63, 0
2, 73876, Note_on_c, 0, 53, 80
2, 73879, Note_on_c, 0, 65, 69
2, 73917, Note_on_c, 0, 55, 0
2, 74070, Note_on_c, 0, 51, 76
2, 74075, Note_on_c, 0, 67, 74
2, 74096, Note_on_c, 0, 65, 0
2, 74110, Note_on_c, 0, 53, 0
2, 74300, Note_on_c, 0, 68, 70
2, 74323, Note_on_c, 0, 53, 80
2, 74354, Note_on_c, 0, 51, 0
2, 74354, Note_on_c, 0, 67, 0
2, 74414, Control_c, 0, 64, 29
2, 74434, Control_c, 0, 64, 34
2, 74453, Control_c, 0, 64, 40
2, 74473, Control_c, 0, 64, 47
2, 74490, Control_c, 0, 64, 54
2, 74509, Control_c, 0, 64, 59
2, 74528, Control_c, 0, 64, 60
2, 74531, Note_on_c, 0, 72, 0
2, 74538, Note_on_c, 0, 70, 71
2, 74548, Control_c, 0, 64, 62
2, 74566, Control_c, 0, 64, 63
2, 74585, Control_c, 0, 64, 65
2, 74606, Control_c, 0, 64, 68
2, 74617, Note_on_c, 0, 68, 0
2, 74622, Control_c, 0, 64, 71
2, 74642, Control_c, 0, 64, 74
2, 74660, Control_c, 0, 64, 77
2, 74735, Control_c, 0, 64, 72
2, 74746, Note_on_c, 0, 48, 79
2, 74751, Note_on_c, 0, 72, 78
2, 74755, Control_c, 0, 64, 65
2, 74773, Control_c, 0, 64, 53
2, 74793, Control_c, 0, 64, 36
2, 74811, Control_c, 0, 64, 0
2, 74838, Note_on_c, 0, 53, 0
2, 74887, Control_c, 0, 64, 19
2, 74900, Note_on_c, 0, 70, 0
2, 74905, Control_c, 0, 64, 50
2, 74924, Control_c, 0, 64, 71
2, 74944, Control_c, 0, 64, 85
2, 74953, Note_on_c, 0, 68, 75
2, 74955, Note_on_c, 0, 72, 0
2, 74962, Control_c, 0, 64, 99
2, 74980, Control_c, 0, 64, 106
2, 75013, Note_on_c, 0, 68, 0
2, 75017, Control_c, 0, 64, 112
2, 75113, Control_c, 0, 64, 116
2, 75181, Note_on_c, 0, 77, 77
2, 75200, Note_on_c, 0, 49, 66
2, 75225, Control_c, 0, 64, 107
2, 75246, Control_c, 0, 64, 95
2, 75278, Control_c, 0, 64, 78
2, 75298, Control_c, 0, 64, 56
2, 75305, Note_on_c, 0, 48, 0
2, 75318, Control_c, 0, 64, 30
2, 75336, Control_c, 0, 64, 14
2, 75399, Note_on_c, 0, 75, 70
2, 75613, Note_on_c, 0, 46, 69
2, 75623, Note_on_c, 0, 73, 69
2, 75678, Note_on_c, 0, 49, 0
2, 75774, Note_on_c, 0, 75, 0
2, 75822, Note_on_c, 0, 72, 72
2, 75832, Note_on_c, 0, 73, 0
2, 76041, Note_on_c, 0, 43, 65
2, 76052, Note_on_c, 0, 70, 70
2, 76103, Note_on_c, 0, 72, 0
2, 76111, Note_on_c, 0, 46, 0
2, 76123, Note_on_c, 0, 77, 0
2, 76256, Note_on_c, 0, 68, 76
2, 76337, Note_on_c, 0, 70, 0
2, 76466, Note_on_c, 0, 51, 60
2, 76471, Note_on_c, 0, 67, 68
2, 76479, Note_on_c, 0, 68, 0
2, 76551, Note_on_c, 0, 43, 0
2, 76675, Control_c, 0, 64, 20
2, 76678, Note_on_c, 0, 70, 64
2, 76694, Control_c, 0, 64, 33
2, 76714, Control_c, 0, 64, 48
2, 76733, Control_c, 0, 64, 59
2, 76742, Note_on_c, 0, 67, 0
2, 76746, Note_on_c, 0, 70, 0
2, 76752, Control_c, 0, 64, 67
2, 76771, Control_c, 0, 64, 76
2, 76791, Control_c, 0, 64, 87
2, 76808, Control_c, 0, 64, 97
2, 76828, Control_c, 0, 64, 105
2, 76846, Control_c, 0, 64, 110
2, 76902, Control_c, 0, 64, 114
2, 76917, Note_on_c, 0, 63, 66
2, 76925, Note_on_c, 0, 48, 56
2, 77015, Control_c, 0, 64, 105
2, 77035, Control_c, 0, 64, 94
2, 77054, Control_c, 0, 64, 79
2, 77065, Note_on_c, 0, 51, 0
2, 77072, Control_c, 0, 64, 59
2, 77092, Control_c, 0, 64, 34
2, 77109, Control_c, 0, 64, 20
2, 77112, Note_on_c, 0, 46, 48
2, 77143, Note_on_c, 0, 48, 0
2, 77366, Note_on_c, 0, 56, 58
2, 77373, Note_on_c, 0, 46, 0
2, 77381, Note_on_c, 0, 44, 47
2, 77405, Note_on_c, 0, 63, 0
2, 77561, Note_on_c, 0, 46, 51
2, 77575, Note_on_c, 0, 44, 0
2, 77786, Note_on_c, 0, 48, 51
2, 77788, Note_on_c, 0, 46, 0
2, 77790, Note_on_c, 0, 63, 60
2, 77888, Note_on_c, 0, 56, 0
2, 77989, Note_on_c, 0, 48, 0
2, 77998, Note_on_c, 0, 50, 53
2, 78065, Note_on_c, 0, 63, 0
2, 78233, Note_on_c, 0, 50, 0
2, 78236, Note_on_c, 0, 51, 55
2, 78245, Note_on_c, 0, 66, 61
2, 78249, Note_on_c, 0, 63, 64
2, 78462, Note_on_c, 0, 51, 0
2, 78475, Note_on_c, 0, 48, 52
2, 78485, Note_on_c, 0, 63, 0
2, 78487, Note_on_c, 0, 66, 0
2, 78691, Note_on_c, 0, 48, 0
2, 78693, Note_on_c, 0, 65, 63
2, 78698, Note_on_c, 0, 63, 51
2, 78708, Note_on_c, 0, 50, 52
2, 78917, Note_on_c, 0, 48, 49
2, 78953, Note_on_c, 0, 50, 0
2, 79128, Note_on_c, 0, 70, 61
2, 79132, Note_on_c, 0, 48, 0
2, 79142, Note_on_c, 0, 46, 59
2, 79150, Note_on_c, 0, 62, 57
2, 79180, Note_on_c, 0, 63, 0
2, 79199, Note_on_c, 0, 65, 0
2, 79337, Note_on_c, 0, 63, 66
2, 79347, Note_on_c, 0, 46, 0
2, 79349, Note_on_c, 0, 48, 50
2, 79417, Note_on_c, 0, 62, 0
2, 79555, Note_on_c, 0, 48, 0
2, 79568, Note_on_c, 0, 50, 53
2, 79571, Note_on_c, 0, 65, 68
2, 79623, Note_on_c, 0, 63, 0
2, 79671, Note_on_c, 0, 70, 0
2, 79772, Note_on_c, 0, 65, 0
2, 79775, Note_on_c, 0, 51, 58
2, 79788, Note_on_c, 0, 50, 0
2, 79985, Note_on_c, 0, 53, 51
2, 79989, Note_on_c, 0, 65, 67
2, 79990, Note_on_c, 0, 68, 65
2, 80038, Note_on_c, 0, 51, 0
2, 80215, Note_on_c, 0, 50, 58
2, 80238, Note_on_c, 0, 68, 0
2, 80250, Note_on_c, 0, 65, 0
2, 80258, Note_on_c, 0, 53, 0
2, 80450, Note_on_c, 0, 65, 61
2, 80451, Note_on_c, 0, 66, 62
2, 80460, Note_on_c, 0, 51, 52
2, 80491, Note_on_c, 0, 50, 0
2, 80663, Note_on_c, 0, 53, 61
2, 80670, Note_on_c, 0, 51, 0
2, 80877, Note_on_c, 0, 71, 61
2, 80883, Note_on_c, 0, 54, 61
2, 80883, Note_on_c, 0, 63, 61
2, 80886, Note_on_c, 0, 53, 0
2, 80926, Note_on_c, 0, 66, 0
2, 80927, Control_c, 0, 64, 24
2, 80935, Note_on_c, 0, 65, 0
2, 81094, Note_on_c, 0, 54, 0
2, 81099, Note_on_c, 0, 65, 74
2, 81107, Note_on_c, 0, 53, 60
2, 81164, Note_on_c, 0, 63, 0
2, 81318, Note_on_c, 0, 66, 75
2, 81321, Note_on_c, 0, 51, 68
2, 81341, Note_on_c, 0, 53, 0
2, 81365, Note_on_c, 0, 65, 0
2, 81505, Note_on_c, 0, 66, 0
2, 81507, Note_on_c, 0, 49, 70
2, 81512, Note_on_c, 0, 71, 0
2, 81607, Note_on_c, 0, 51, 0
2, 81721, Note_on_c, 0, 70, 73
2, 81725, Note_on_c, 0, 66, 66
2, 81740, Note_on_c, 0, 47, 67
2, 81797, Note_on_c, 0, 49, 0
2, 81831, Control_c, 0, 64, 28
2, 81937, Note_on_c, 0, 66, 0
2, 81940, Note_on_c, 0, 70, 0
2, 81943, Note_on_c, 0, 46, 63
2, 81968, Note_on_c, 0, 47, 0
2, 82162, Note_on_c, 0, 47, 59
2, 82177, Note_on_c, 0, 68, 72
2, 82181, Note_on_c, 0, 66, 67
2, 82384, Note_on_c, 0, 51, 68
2, 82385, Note_on_c, 0, 46, 0
2, 82400, Note_on_c, 0, 47, 0
2, 82602, Note_on_c, 0, 73, 72
2, 82614, Note_on_c, 0, 49, 61
2, 82625, Note_on_c, 0, 65, 61
2, 82643, Note_on_c, 0, 51, 0
2, 82662, Note_on_c, 0, 66, 0
2, 82684, Note_on_c, 0, 68, 0
2, 82790, Note_on_c, 0, 49, 0
2, 82802, Note_on_c, 0, 47, 61
2, 82807, Note_on_c, 0, 66, 73
2, 82867, Note_on_c, 0, 65, 0
2, 83028, Note_on_c, 0, 46, 68
2, 83038, Note_on_c, 0, 47, 0
2, 83042, Note_on_c, 0, 68, 80
2, 83118, Note_on_c, 0, 73, 0
2, 83120, Note_on_c, 0, 66, 0
2, 83183, Control_c, 0, 64, 32
2, 83240, Note_on_c, 0, 44, 73
2, 83282, Note_on_c, 0, 68, 0
2, 83303, Note_on_c, 0, 46, 0
2, 83466, Control_c, 0, 64, 28
2, 83467, Note_on_c, 0, 68, 61
2, 83475, Note_on_c, 0, 71, 74
2, 83498, Note_on_c, 0, 42, 62
2, 83503, Control_c, 0, 64, 22
2, 83542, Control_c, 0, 64, 14
2, 83555, Note_on_c, 0, 44, 0
2, 83560, Control_c, 0, 64, 8
2, 83581, Control_c, 0, 64, 0
2, 83656, Control_c, 0, 64, 23
2, 83673, Control_c, 0, 64, 39
2, 83692, Control_c, 0, 64, 55
2, 83696, Note_on_c, 0, 41, 69
2, 83702, Note_on_c, 0, 42, 0
2, 83703, Note_on_c, 0, 71, 0
2, 83710, Control_c, 0, 64, 66
2, 83731, Control_c, 0, 64, 73
2, 83750, Control_c, 0, 64, 81
2, 83770, Control_c, 0, 64, 89
2, 83787, Control_c, 0, 64, 95
2, 83796, Note_on_c, 0, 68, 0
2, 83808, Control_c, 0, 64, 100
2, 83824, Control_c, 0, 64, 104
2, 83882, Control_c, 0, 64, 108
2, 83990, Note_on_c, 0, 70, 76
2, 84011, Note_on_c, 0, 42, 63
2, 84065, Note_on_c, 0, 41, 0
2, 84067, Control_c, 0, 64, 96
2, 84084, Control_c, 0, 64, 83
2, 84106, Control_c, 0, 64, 66
2, 84123, Control_c, 0, 64, 46
2, 84143, Control_c, 0, 64, 31
2, 84235, Note_on_c, 0, 68, 56
2, 84237, Control_c, 0, 64, 27
2, 84442, Note_on_c, 0, 44, 60
2, 84458, Note_on_c, 0, 66, 65
2, 84497, Note_on_c, 0, 42, 0
2, 84563, Note_on_c, 0, 68, 0
2, 84656, Note_on_c, 0, 65, 66
2, 84694, Note_on_c, 0, 66, 0
2, 84898, Note_on_c, 0, 66, 65
2, 84906, Note_on_c, 0, 46, 55
2, 84942, Note_on_c, 0, 44, 0
2, 84943, Note_on_c, 0, 65, 0
2, 85112, Note_on_c, 0, 46, 0
2, 85113, Note_on_c, 0, 42, 54
2, 85318, Note_on_c, 0, 61, 65
2, 85336, Note_on_c, 0, 44, 49
2, 85361, Note_on_c, 0, 42, 0
2, 85431, Note_on_c, 0, 66, 0
2, 85537, Control_c, 0, 64, 31
2, 85539, Note_on_c, 0, 46, 49
2, 85548, Note_on_c, 0, 44, 0
2, 85761, Note_on_c, 0, 63, 65
2, 85763, Note_on_c, 0, 46, 0
2, 85777, Note_on_c, 0, 47, 51
2, 85844, Note_on_c, 0, 70, 0
2, 85894, Note_on_c, 0, 61, 0
2, 85964, Note_on_c, 0, 47, 0
2, 85982, Note_on_c, 0, 49, 48
2, 86212, Note_on_c, 0, 59, 63
2, 86213, Note_on_c, 0, 49, 0
2, 86227, Note_on_c, 0, 51, 45
2, 86307, Note_on_c, 0, 63, 0
2, 86421, Note_on_c, 0, 51, 0
2, 86422, Note_on_c, 0, 47, 48
2, 86643, Note_on_c, 0, 49, 46
2, 86648, Note_on_c, 0, 56, 56
2, 86689, Note_on_c, 0, 47, 0
2, 86746, Note_on_c, 0, 59, 0
2, 86876, Note_on_c, 0, 51, 40
2, 86877, Note_on_c, 0, 49, 0
2, 87085, Note_on_c, 0, 61, 55
2, 87087, Note_on_c, 0, 51, 0
2, 87101, Note_on_c, 0, 53, 39
2, 87172, Note_on_c, 0, 56, 0
2, 87253, Note_on_c, 0, 53, 0
2, 87282, Note_on_c, 0, 49, 49
2, 87496, Note_on_c, 0, 61, 0
2, 87534, Note_on_c, 0, 58, 57
2, 87546, Note_on_c, 0, 54, 43
2, 87618, Note_on_c, 0, 49, 0
2, 87697, Note_on_c, 0, 54, 0
2, 87779, Note_on_c, 0, 56, 33
2, 87810, Control_c, 0, 64, 35
2, 87992, Note_on_c, 0, 73, 53
2, 88013, Note_on_c, 0, 54, 40
2, 88052, Note_on_c, 0, 56, 0
2, 88202, Note_on_c, 0, 54, 0
2, 88205, Note_on_c, 0, 53, 44
2, 88413, Note_on_c, 0, 58, 0
2, 88427, Note_on_c, 0, 78, 60
2, 88443, Note_on_c, 0, 53, 0
2, 88446, Note_on_c, 0, 51, 44
2, 88565, Note_on_c, 0, 73, 0
2, 88631, Note_on_c, 0, 78, 0
2, 88632, Note_on_c, 0, 53, 51
2, 88651, Note_on_c, 0, 51, 0
2, 88884, Note_on_c, 0, 78, 63
2, 88891, Note_on_c, 0, 53, 0
2, 88897, Note_on_c, 0, 54, 47
2, 88916, Note_on_c, 0, 70, 39
2, 89078, Note_on_c, 0, 78, 0
2, 89090, Note_on_c, 0, 54, 0
2, 89094, Note_on_c, 0, 51, 49
2, 89119, Note_on_c, 0, 70, 0
2, 89321, Note_on_c, 0, 78, 59
2, 89345, Note_on_c, 0, 71, 36
2, 89347, Note_on_c, 0, 56, 45
2, 89422, Note_on_c, 0, 51, 0
2, 89564, Note_on_c, 0, 58, 40
2, 89577, Note_on_c, 0, 56, 0
2, 89769, Note_on_c, 0, 56, 46
2, 89778, Note_on_c, 0, 77, 57
2, 89801, Note_on_c, 0, 78, 0
2, 89818, Note_on_c, 0, 58, 0
2, 89978, Note_on_c, 0, 54, 47
2, 89978, Note_on_c, 0, 78, 57
2, 90014, Note_on_c, 0, 56, 0
2, 90021, Note_on_c, 0, 77, 0
2, 90196, Note_on_c, 0, 80, 61
2, 90197, Note_on_c, 0, 54, 0
2, 90221, Note_on_c, 0, 53, 46
2, 90260, Note_on_c, 0, 78, 0
2, 90371, Note_on_c, 0, 71, 0
2, 90396, Note_on_c, 0, 80, 0
2, 90426, Note_on_c, 0, 53, 0
2, 90426, Note_on_c, 0, 54, 42
2, 90646, Note_on_c, 0, 80, 64
2, 90672, Note_on_c, 0, 71, 44
2, 90686, Note_on_c, 0, 56, 43
2, 90690, Control_c, 0, 64, 39
2, 90702, Note_on_c, 0, 54, 0
2, 90827, Note_on_c, 0, 80, 0
2, 90843, Control_c, 0, 64, 41
2, 90871, Note_on_c, 0, 56, 0
2, 90901, Note_on_c, 0, 53, 38
2, 90920, Note_on_c, 0, 71, 0
2, 91118, Note_on_c, 0, 80, 59
2, 91125, Note_on_c, 0, 70, 45
2, 91135, Note_on_c, 0, 50, 47
2, 91203, Note_on_c, 0, 53, 0
2, 91331, Note_on_c, 0, 46, 55
2, 91350, Note_on_c, 0, 50, 0
2, 91553, Note_on_c, 0, 78, 58
2, 91565, Note_on_c, 0, 48, 50
2, 91613, Note_on_c, 0, 46, 0
2, 91749, Note_on_c, 0, 80, 0
2, 91767, Note_on_c, 0, 50, 51
2, 91771, Note_on_c, 0, 77, 66
2, 91777, Note_on_c, 0, 48, 0
2, 91802, Note_on_c, 0, 78, 0
2, 91993, Note_on_c, 0, 51, 47
2, 91994, Note_on_c, 0, 78, 63
2, 91997, Note_on_c, 0, 50, 0
2, 92066, Note_on_c, 0, 77, 0
2, 92071, Note_on_c, 0, 70, 0
2, 92177, Note_on_c, 0, 51, 0
2, 92207, Note_on_c, 0, 53, 49
2, 92413, Note_on_c, 0, 75, 63
2, 92424, Note_on_c, 0, 54, 47
2, 92430, Note_on_c, 0, 53, 0
2, 92571, Note_on_c, 0, 75, 0
2, 92643, Note_on_c, 0, 54, 0
2, 92654, Note_on_c, 0, 51, 47
2, 92871, Note_on_c, 0, 68, 57
2, 92880, Note_on_c, 0, 59, 52
2, 92912, Control_c, 0, 64, 44
2, 92919, Note_on_c, 0, 78, 0
2, 92929, Control_c, 0, 64, 52
2, 92948, Control_c, 0, 64, 60
2, 92966, Control_c, 0, 64, 67
2, 92985, Control_c, 0, 64, 75
2, 93004, Control_c, 0, 64, 85
2, 93013, Note_on_c, 0, 51, 0
2, 93022, Control_c, 0, 64, 94
2, 93040, Control_c, 0, 64, 101
2, 93072, Note_on_c, 0, 68, 0
2, 93078, Control_c, 0, 64, 106
2, 93092, Note_on_c, 0, 58, 45
2, 93104, Note_on_c, 0, 59, 0
2, 93175, Control_c, 0, 64, 110
2, 93306, Note_on_c, 0, 83, 65
2, 93307, Note_on_c, 0, 56, 51
2, 93344, Control_c, 0, 64, 104
2, 93359, Control_c, 0, 64, 99
2, 93359, Note_on_c, 0, 58, 0
2, 93378, Control_c, 0, 64, 91
2, 93399, Control_c, 0, 64, 81
2, 93417, Control_c, 0, 64, 68
2, 93435, Control_c, 0, 64, 54
2, 93453, Control_c, 0, 64, 44
2, 93474, Control_c, 0, 64, 41
2, 93509, Note_on_c, 0, 82, 70
2, 93531, Note_on_c, 0, 58, 47
2, 93588, Note_on_c, 0, 83, 0
2, 93597, Note_on_c, 0, 56, 0
2, 93719, Note_on_c, 0, 59, 61
2, 93725, Note_on_c, 0, 58, 0
2, 93731, Note_on_c, 0, 80, 68
2, 93811, Note_on_c, 0, 82, 0
2, 93933, Note_on_c, 0, 78, 62
2, 94034, Note_on_c, 0, 80, 0
2, 94145, Note_on_c, 0, 68, 61
2, 94156, Note_on_c, 0, 77, 60
2, 94187, Control_c, 0, 64, 46
2, 94206, Control_c, 0, 64, 54
2, 94208, Note_on_c, 0, 78, 0
2, 94224, Control_c, 0, 64, 59
2, 94243, Control_c, 0, 64, 61
2, 94262, Control_c, 0, 64, 63
2, 94281, Control_c, 0, 64, 68
2, 94300, Control_c, 0, 64, 75
2, 94304, Note_on_c, 0, 59, 0
2, 94319, Control_c, 0, 64, 84
2, 94337, Control_c, 0, 64, 91
2, 94357, Control_c, 0, 64, 96
2, 94362, Note_on_c, 0, 80, 67
2, 94394, Control_c, 0, 64, 102
2, 94395, Note_on_c, 0, 77, 0
2, 94604, Note_on_c, 0, 58, 57
2, 94604, Note_on_c, 0, 74, 61
2, 94650, Note_on_c, 0, 80, 0
2, 94653, Control_c, 0, 64, 93
2, 94674, Control_c, 0, 64, 86
2, 94694, Control_c, 0, 64, 76
2, 94710, Control_c, 0, 64, 65
2, 94730, Control_c, 0, 64, 53
2, 94749, Control_c, 0, 64, 45
2, 94769, Control_c, 0, 64, 42
2, 94804, Note_on_c, 0, 72, 65
2, 94831, Note_on_c, 0, 70, 49
2, 94835, Note_on_c, 0, 74, 0
2, 94858, Note_on_c, 0, 68, 0
2, 94920, Control_c, 0, 64, 40
2, 95010, Note_on_c, 0, 74, 65
2, 95018, Note_on_c, 0, 68, 59
2, 95055, Note_on_c, 0, 72, 0
2, 95057, Note_on_c, 0, 70, 0
2, 95223, Note_on_c, 0, 75, 64
2, 95226, Note_on_c, 0, 66, 55
2, 95270, Note_on_c, 0, 68, 0
2, 95285, Note_on_c, 0, 74, 0
2, 95454, Note_on_c, 0, 77, 62
2, 95461, Note_on_c, 0, 75, 0
2, 95465, Note_on_c, 0, 66, 0
2, 95477, Note_on_c, 0, 65, 47
2, 95657, Note_on_c, 0, 78, 58
2, 95665, Note_on_c, 0, 65, 0
2, 95670, Note_on_c, 0, 63, 49
2, 95803, Note_on_c, 0, 77, 0
2, 95843, Control_c, 0, 64, 36
2, 95859, Note_on_c, 0, 63, 0
2, 95879, Control_c, 0, 64, 29
2, 95883, Note_on_c, 0, 62, 54
2, 95884, Note_on_c, 0, 80, 61
2, 95947, Note_on_c, 0, 78, 0
2, 95994, Control_c, 0, 64, 39
2, 96012, Control_c, 0, 64, 49
2, 96031, Control_c, 0, 64, 58
2, 96050, Control_c, 0, 64, 64
2, 96068, Control_c, 0, 64, 69
2, 96086, Control_c, 0, 64, 74
2, 96089, Note_on_c, 0, 65, 52
2, 96089, Note_on_c, 0, 77, 59
2, 96090, Note_on_c, 0, 62, 0
2, 96103, Note_on_c, 0, 80, 0
2, 96106, Control_c, 0, 64, 79
2, 96119, Note_on_c, 0, 58, 0
2, 96121, Note_on_c, 0, 65, 0
2, 96125, Control_c, 0, 64, 85
2, 96143, Control_c, 0, 64, 89
2, 96162, Control_c, 0, 64, 94
2, 96201, Control_c, 0, 64, 98
2, 96432, Note_on_c, 0, 78, 57
2, 96456, Note_on_c, 0, 77, 0
2, 96462, Note_on_c, 0, 63, 42
2, 96481, Control_c, 0, 64, 88
2, 96499, Control_c, 0, 64, 79
2, 96519, Control_c, 0, 64, 67
2, 96539, Control_c, 0, 64, 52
2, 96555, Control_c, 0, 64, 39
2, 96573, Control_c, 0, 64, 32
2, 96657, Note_on_c, 0, 77, 57
2, 96733, Note_on_c, 0, 78, 0
2, 96857, Note_on_c, 0, 51, 47
2, 96874, Note_on_c, 0, 75, 55
2, 96932, Note_on_c, 0, 77, 0
2, 97068, Note_on_c, 0, 51, 0
2, 97070, Note_on_c, 0, 53, 43
2, 97075, Note_on_c, 0, 74, 56
2, 97083, Note_on_c, 0, 75, 0
2, 97098, Note_on_c, 0, 63, 0
2, 97285, Note_on_c, 0, 53, 0
2, 97307, Note_on_c, 0, 75, 60
2, 97315, Note_on_c, 0, 54, 45
2, 97356, Note_on_c, 0, 74, 0
2, 97505, Note_on_c, 0, 54, 0
2, 97538, Note_on_c, 0, 51, 49
2, 97750, Note_on_c, 0, 54, 46
2, 97760, Note_on_c, 0, 70, 59
2, 97808, Note_on_c, 0, 51, 0
2, 97809, Note_on_c, 0, 75, 0
2, 97946, Note_on_c, 0, 58, 51
2, 97961, Note_on_c, 0, 54, 0
2, 98164, Note_on_c, 0, 71, 58
2, 98170, Note_on_c, 0, 58, 0
2, 98227, Note_on_c, 0, 70, 0
2, 98435, Note_on_c, 0, 62, 34
2, 98610, Note_on_c, 0, 68, 53
2, 98628, Note_on_c, 0, 62, 0
2, 98634, Note_on_c, 0, 63, 51
2, 98651, Note_on_c, 0, 71, 0
2, 98907, Control_c, 0, 64, 36
2, 99004, Control_c, 0, 64, 41
2, 99019, Control_c, 0, 64, 43
2, 99057, Control_c, 0, 64, 46
2, 99076, Note_on_c, 0, 65, 60
2, 99077, Control_c, 0, 64, 48
2, 99097, Control_c, 0, 64, 51
2, 99116, Control_c, 0, 64, 55
2, 99124, Note_on_c, 0, 68, 0
2, 99135, Control_c, 0, 64, 58
2, 99174, Control_c, 0, 64, 60
2, 99201, Note_on_c, 0, 63, 0
2, 99207, Control_c, 0, 64, 61
2, 99229, Control_c, 0, 64, 63
2, 99249, Control_c, 0, 64, 65
2, 99281, Control_c, 0, 64, 66
2, 99320, Control_c, 0, 64, 67
2, 99472, Control_c, 0, 64, 65
2, 99490, Control_c, 0, 64, 63
2, 99508, Control_c, 0, 64, 61
2, 99525, Control_c, 0, 64, 56
2, 99536, Note_on_c, 0, 70, 56
2, 99540, Note_on_c, 0, 62, 49
2, 99545, Control_c, 0, 64, 49
2, 99557, Note_on_c, 0, 65, 0
2, 99565, Control_c, 0, 64, 40
2, 99581, Control_c, 0, 64, 32
2, 99601, Control_c, 0, 64, 27
2, 99679, Control_c, 0, 64, 39
2, 99697, Control_c, 0, 64, 53
2, 99716, Note_on_c, 0, 62, 0
2, 99719, Control_c, 0, 64, 63
2, 99735, Control_c, 0, 64, 69
2, 99753, Control_c, 0, 64, 73
2, 99772, Control_c, 0, 64, 76
2, 99791, Control_c, 0, 64, 78
2, 99810, Control_c, 0, 64, 80
2, 99830, Control_c, 0, 64, 82
2, 100009, Note_on_c, 0, 66, 52
2, 100010, Note_on_c, 0, 63, 45
2, 100017, Control_c, 0, 64, 78
2, 100038, Control_c, 0, 64, 75
2, 100056, Control_c, 0, 64, 69
2, 100072, Note_on_c, 0, 70, 0
2, 100076, Control_c, 0, 64, 63
2, 100094, Control_c, 0, 64, 54
2, 100114, Control_c, 0, 64, 46
2, 100133, Control_c, 0, 64, 41
2, 100169, Control_c, 0, 64, 37
2, 100196, Note_on_c, 0, 63, 0
2, 100232, Note_on_c, 0, 61, 54
2, 100451, Note_on_c, 0, 61, 0
2, 100456, Note_on_c, 0, 59, 50
2, 100465, Note_on_c, 0, 63, 60
2, 100482, Note_on_c, 0, 66, 0
2, 100561, Control_c, 0, 64, 43
2, 100580, Control_c, 0, 64, 51
2, 100599, Control_c, 0, 64, 57
2, 100618, Control_c, 0, 64, 60
2, 100637, Control_c, 0, 64, 62
2, 100657, Control_c, 0, 64, 63
2, 100657, Note_on_c, 0, 59, 0
2, 100676, Control_c, 0, 64, 64
2, 100677, Note_on_c, 0, 58, 53
2, 100696, Control_c, 0, 64, 65
2, 100714, Control_c, 0, 64, 66
2, 100768, Note_on_c, 0, 63, 0
2, 100826, Control_c, 0, 64, 65
2, 100845, Control_c, 0, 64, 62
2, 100863, Control_c, 0, 64, 59
2, 100874, Note_on_c, 0, 58, 0
2, 100875, Note_on_c, 0, 75, 72
2, 100883, Control_c, 0, 64, 55
2, 100901, Control_c, 0, 64, 49
2, 100909, Note_on_c, 0, 59, 44
2, 100922, Control_c, 0, 64, 43
2, 100939, Control_c, 0, 64, 37
2, 100959, Control_c, 0, 64, 30
2, 101036, Control_c, 0, 64, 34
2, 101054, Control_c, 0, 64, 46
2, 101075, Control_c, 0, 64, 57
2, 101093, Control_c, 0, 64, 62
2, 101098, Note_on_c, 0, 59, 0
2, 101106, Note_on_c, 0, 73, 53
2, 101111, Control_c, 0, 64, 65
2, 101111, Note_on_c, 0, 58, 47
2, 101116, Note_on_c, 0, 75, 0
2, 101129, Control_c, 0, 64, 67
2, 101149, Control_c, 0, 64, 69
2, 101168, Control_c, 0, 64, 73
2, 101201, Control_c, 0, 64, 77
2, 101219, Control_c, 0, 64, 82
2, 101236, Control_c, 0, 64, 85
2, 101306, Note_on_c, 0, 73, 0
2, 101330, Control_c, 0, 64, 79
2, 101341, Note_on_c, 0, 75, 70
2, 101349, Control_c, 0, 64, 72
2, 101350, Note_on_c, 0, 71, 51
2, 101361, Note_on_c, 0, 56, 50
2, 101368, Control_c, 0, 64, 62
2, 101387, Note_on_c, 0, 58, 0
2, 101388, Control_c, 0, 64, 52
2, 101406, Control_c, 0, 64, 43
2, 101422, Control_c, 0, 64, 37
2, 101481, Control_c, 0, 64, 42
2, 101500, Control_c, 0, 64, 54
2, 101518, Control_c, 0, 64, 60
2, 101529, Note_on_c, 0, 56, 0
2, 101535, Control_c, 0, 64, 61
2, 101540, Note_on_c, 0, 54, 52
2, 101540, Note_on_c, 0, 71, 0
2, 101545, Note_on_c, 0, 70, 55
2, 101556, Control_c, 0, 64, 63
2, 101575, Control_c, 0, 64, 66
2, 101595, Control_c, 0, 64, 71
2, 101596, Note_on_c, 0, 75, 0
2, 101613, Control_c, 0, 64, 77
2, 101633, Control_c, 0, 64, 83
2, 101651, Control_c, 0, 64, 86
2, 101726, Control_c, 0, 64, 82
2, 101745, Control_c, 0, 64, 75
2, 101763, Control_c, 0, 64, 66
2, 101766, Note_on_c, 0, 75, 67
2, 101779, Note_on_c, 0, 54, 0
2, 101781, Control_c, 0, 64, 53
2, 101786, Note_on_c, 0, 71, 52
2, 101791, Note_on_c, 0, 56, 53
2, 101801, Control_c, 0, 64, 44
2, 101804, Note_on_c, 0, 70, 0
2, 101820, Control_c, 0, 64, 41
2, 101858, Control_c, 0, 64, 45
2, 101878, Control_c, 0, 64, 57
2, 101895, Control_c, 0, 64, 65
2, 101915, Control_c, 0, 64, 70
2, 101933, Control_c, 0, 64, 75
2, 101953, Control_c, 0, 64, 80
2, 101971, Control_c, 0, 64, 86
2, 101978, Note_on_c, 0, 71, 0
2, 101979, Note_on_c, 0, 70, 56
2, 101983, Note_on_c, 0, 54, 49
2, 101991, Control_c, 0, 64, 93
2, 102010, Control_c, 0, 64, 99
2, 102049, Control_c, 0, 64, 105
2, 102050, Note_on_c, 0, 56, 0
2, 102081, Note_on_c, 0, 75, 0
2, 102086, Control_c, 0, 64, 109
2, 102197, Control_c, 0, 64, 103
2, 102214, Note_on_c, 0, 74, 68
2, 102215, Control_c, 0, 64, 93
2, 102220, Note_on_c, 0, 54, 0
2, 102231, Note_on_c, 0, 70, 0
2, 102235, Control_c, 0, 64, 79
2, 102243, Note_on_c, 0, 53, 46
2, 102254, Control_c, 0, 64, 62
2, 102254, Note_on_c, 0, 68, 47
2, 102276, Control_c, 0, 64, 46
2, 102292, Control_c, 0, 64, 43
2, 102311, Control_c, 0, 64, 45
2, 102329, Control_c, 0, 64, 55
2, 102350, Control_c, 0, 64, 64
2, 102367, Control_c, 0, 64, 68
2, 102377, Note_on_c, 0, 68, 0
2, 102403, Control_c, 0, 64, 71
2, 102405, Note_on_c, 0, 74, 0
2, 102409, Note_on_c, 0, 53, 0
2, 102410, Note_on_c, 0, 75, 66
2, 102422, Control_c, 0, 64, 73
2, 102422, Note_on_c, 0, 51, 53
2, 102423, Note_on_c, 0, 66, 54
2, 102442, Control_c, 0, 64, 78
2, 102462, Control_c, 0, 64, 84
2, 102480, Control_c, 0, 64, 89
2, 102500, Note_on_c, 0, 66, 0
2, 102594, Control_c, 0, 64, 83
2, 102613, Control_c, 0, 64, 77
2, 102631, Control_c, 0, 64, 67
2, 102638, Note_on_c, 0, 75, 0
2, 102640, Note_on_c, 0, 51, 0
2, 102642, Note_on_c, 0, 77, 67
2, 102651, Control_c, 0, 64, 54
2, 102653, Note_on_c, 0, 50, 43
2, 102662, Note_on_c, 0, 65, 48
2, 102668, Control_c, 0, 64, 38
2, 102688, Control_c, 0, 64, 21
2, 102707, Control_c, 0, 64, 14
2, 102782, Control_c, 0, 64, 18
2, 102801, Control_c, 0, 64, 33
2, 102808, Note_on_c, 0, 65, 0
2, 102820, Control_c, 0, 64, 50
2, 102840, Control_c, 0, 64, 62
2, 102851, Note_on_c, 0, 77, 0
2, 102856, Note_on_c, 0, 46, 58
2, 102857, Control_c, 0, 64, 68
2, 102865, Note_on_c, 0, 50, 0
2, 102876, Control_c, 0, 64, 71
2, 102896, Control_c, 0, 64, 73
2, 102915, Control_c, 0, 64, 77
2, 102934, Control_c, 0, 64, 82
2, 102952, Control_c, 0, 64, 89
2, 103028, Control_c, 0, 64, 83
2, 103046, Control_c, 0, 64, 75
2, 103066, Control_c, 0, 64, 64
2, 103086, Control_c, 0, 64, 47
2, 103086, Note_on_c, 0, 77, 70
2, 103105, Note_on_c, 0, 46, 0
2, 103110, Note_on_c, 0, 48, 53
2, 103119, Control_c, 0, 64, 29
2, 103127, Note_on_c, 0, 70, 56
2, 103137, Control_c, 0, 64, 13
2, 103157, Control_c, 0, 64, 8
2, 103175, Control_c, 0, 64, 0
2, 103251, Control_c, 0, 64, 14
2, 103270, Control_c, 0, 64, 36
2, 103284, Note_on_c, 0, 48, 0
2, 103287, Note_on_c, 0, 77, 0
2, 103288, Control_c, 0, 64, 55
2, 103290, Note_on_c, 0, 50, 56
2, 103307, Control_c, 0, 64, 67
2, 103307, Note_on_c, 0, 70, 0
2, 103327, Control_c, 0, 64, 73
2, 103344, Control_c, 0, 64, 77
2, 103363, Control_c, 0, 64, 80
2, 103384, Control_c, 0, 64, 84
2, 103401, Control_c, 0, 64, 89
2, 103421, Control_c, 0, 64, 94
2, 103523, Note_on_c, 0, 77, 71
2, 103539, Note_on_c, 0, 66, 64
2, 103544, Note_on_c, 0, 50, 0
2, 103544, Note_on_c, 0, 51, 54
2, 103553, Control_c, 0, 64, 83
2, 103573, Control_c, 0, 64, 70
2, 103592, Control_c, 0, 64, 54
2, 103610, Control_c, 0, 64, 37
2, 103629, Control_c, 0, 64, 27
2, 103739, Note_on_c, 0, 51, 0
2, 103756, Note_on_c, 0, 53, 51
2, 103959, Note_on_c, 0, 53, 0
2, 103967, Note_on_c, 0, 75, 65
2, 103973, Note_on_c, 0, 54, 52
2, 104034, Note_on_c, 0, 77, 0
2, 104191, Note_on_c, 0, 54, 0
2, 104196, Note_on_c, 0, 74, 66
2, 104208, Note_on_c, 0, 56, 55
2, 104218, Note_on_c, 0, 75, 0
2, 104414, Note_on_c, 0, 75, 64
2, 104427, Note_on_c, 0, 74, 0
2, 104444, Note_on_c, 0, 54, 55
2, 104481, Note_on_c, 0, 66, 0
2, 104489, Note_on_c, 0, 56, 0
2, 104560, Note_on_c, 0, 54, 0
2, 104630, Note_on_c, 0, 66, 63
2, 104852, Note_on_c, 0, 65, 68
2, 104861, Note_on_c, 0, 59, 62
2, 104863, Note_on_c, 0, 66, 0
2, 105052, Note_on_c, 0, 59, 0
2, 105060, Note_on_c, 0, 65, 0
2, 105064, Note_on_c, 0, 66, 69
2, 105283, Note_on_c, 0, 66, 0
2, 105290, Note_on_c, 0, 53, 52
2, 105290, Note_on_c, 0, 68, 69
2, 105475, Note_on_c, 0, 73, 71
2, 105482, Note_on_c, 0, 68, 0
2, 105488, Note_on_c, 0, 54, 56
2, 105504, Note_on_c, 0, 53, 0
2, 105696, Note_on_c, 0, 71, 70
2, 105701, Note_on_c, 0, 63, 65
2, 105711, Note_on_c, 0, 75, 0
2, 105716, Note_on_c, 0, 56, 58
2, 105733, Note_on_c, 0, 54, 0
2, 105752, Note_on_c, 0, 73, 0
2, 105871, Note_on_c, 0, 63, 0
2, 105891, Note_on_c, 0, 70, 77
2, 105901, Note_on_c, 0, 58, 63
2, 105906, Note_on_c, 0, 71, 0
2, 105910, Note_on_c, 0, 56, 0
2, 106126, Note_on_c, 0, 56, 57
2, 106127, Note_on_c, 0, 71, 74
2, 106138, Note_on_c, 0, 58, 0
2, 106138, Note_on_c, 0, 65, 62
2, 106139, Note_on_c, 0, 70, 0
2, 106254, Note_on_c, 0, 56, 0
2, 106332, Note_on_c, 0, 68, 69
2, 106362, Note_on_c, 0, 71, 0
2, 106553, Note_on_c, 0, 61, 67
2, 106566, Note_on_c, 0, 70, 68
2, 106604, Control_c, 0, 64, 31
2, 106622, Control_c, 0, 64, 38
2, 106640, Note_on_c, 0, 68, 0
2, 106641, Control_c, 0, 64, 45
2, 106660, Control_c, 0, 64, 52
2, 106680, Control_c, 0, 64, 57
2, 106700, Control_c, 0, 64, 61
2, 106716, Control_c, 0, 64, 64
2, 106725, Note_on_c, 0, 61, 0
2, 106736, Control_c, 0, 64, 66
2, 106737, Note_on_c, 0, 65, 0
2, 106754, Control_c, 0, 64, 67
2, 106760, Note_on_c, 0, 71, 70
2, 106809, Control_c, 0, 64, 69
2, 106883, Note_on_c, 0, 70, 0
2, 106907, Control_c, 0, 64, 71
2, 106957, Control_c, 0, 64, 69
2, 106977, Control_c, 0, 64, 65
2, 106997, Control_c, 0, 64, 60
2, 107009, Note_on_c, 0, 66, 67
2, 107014, Note_on_c, 0, 54, 63
2, 107016, Control_c, 0, 64, 52
2, 107035, Control_c, 0, 64, 44
2, 107054, Control_c, 0, 64, 36
2, 107074, Control_c, 0, 64, 28
2, 107092, Control_c, 0, 64, 24
2, 107171, Note_on_c, 0, 71, 0
2, 107197, Note_on_c, 0, 70, 73
2, 107216, Note_on_c, 0, 54, 0
2, 107404, Note_on_c, 0, 53, 71
2, 107424, Note_on_c, 0, 72, 78
2, 107467, Note_on_c, 0, 70, 0
2, 107468, Note_on_c, 0, 66, 0
2, 107592, Note_on_c, 0, 53, 0
2, 107631, Note_on_c, 0, 74, 78
2, 107641, Note_on_c, 0, 72, 0
2, 107840, Note_on_c, 0, 54, 62
2, 107849, Note_on_c, 0, 75, 72
2, 107880, Note_on_c, 0, 74, 0
2, 108058, Note_on_c, 0, 54, 0
2, 108071, Note_on_c, 0, 77, 75
2, 108128, Note_on_c, 0, 75, 0
2, 108270, Note_on_c, 0, 51, 65
2, 108279, Note_on_c, 0, 72, 78
2, 108279, Note_on_c, 0, 78, 68
2, 108300, Note_on_c, 0, 77, 0
2, 108384, Note_on_c, 0, 51, 0
2, 108487, Note_on_c, 0, 75, 75
2, 108520, Note_on_c, 0, 78, 0
2, 108555, Note_on_c, 0, 72, 0
2, 108730, Note_on_c, 0, 58, 66
2, 108733, Control_c, 0, 64, 17
2, 108733, Note_on_c, 0, 77, 70
2, 108734, Note_on_c, 0, 73, 64
2, 108772, Control_c, 0, 64, 0
2, 108787, Note_on_c, 0, 75, 0
2, 108880, Control_c, 0, 64, 24
2, 108899, Control_c, 0, 64, 44
2, 108919, Control_c, 0, 64, 61
2, 108938, Control_c, 0, 64, 70
2, 108947, Note_on_c, 0, 77, 0
2, 108957, Note_on_c, 0, 72, 74
2, 108958, Control_c, 0, 64, 77
2, 108969, Note_on_c, 0, 73, 0
2, 108975, Control_c, 0, 64, 84
2, 108995, Control_c, 0, 64, 91
2, 109014, Control_c, 0, 64, 97
2, 109033, Control_c, 0, 64, 103
2, 109096, Note_on_c, 0, 58, 0
2, 109148, Control_c, 0, 64, 96
2, 109165, Note_on_c, 0, 70, 76
2, 109166, Control_c, 0, 64, 85
2, 109182, Note_on_c, 0, 65, 65
2, 109184, Note_on_c, 0, 61, 56
2, 109185, Control_c, 0, 64, 69
2, 109203, Control_c, 0, 64, 47
2, 109209, Note_on_c, 0, 72, 0
2, 109222, Control_c, 0, 64, 28
2, 109243, Control_c, 0, 64, 24
2, 109282, Control_c, 0, 64, 39
2, 109302, Control_c, 0, 64, 59
2, 109316, Note_on_c, 0, 65, 0
2, 109319, Control_c, 0, 64, 71
2, 109340, Control_c, 0, 64, 77
2, 109358, Control_c, 0, 64, 79
2, 109379, Note_on_c, 0, 69, 76
2, 109385, Note_on_c, 0, 61, 0
2, 109444, Note_on_c, 0, 70, 0
2, 109583, Note_on_c, 0, 54, 48
2, 109601, Note_on_c, 0, 70, 70
2, 109602, Control_c, 0, 64, 77
2, 109622, Control_c, 0, 64, 72
2, 109641, Control_c, 0, 64, 66
2, 109662, Control_c, 0, 64, 58
2, 109676, Control_c, 0, 64, 49
2, 109680, Note_on_c, 0, 69, 0
2, 109697, Control_c, 0, 64, 42
2, 109736, Control_c, 0, 64, 38
2, 109777, Note_on_c, 0, 54, 0
2, 109796, Note_on_c, 0, 53, 62
2, 110017, Note_on_c, 0, 65, 73
2, 110028, Note_on_c, 0, 51, 62
2, 110041, Note_on_c, 0, 53, 0
2, 110231, Note_on_c, 0, 49, 62
2, 110241, Note_on_c, 0, 51, 0
2, 110450, Note_on_c, 0, 66, 75
2, 110470, Note_on_c, 0, 51, 60
2, 110485, Note_on_c, 0, 49, 0
2, 110503, Note_on_c, 0, 65, 0
2, 110666, Note_on_c, 0, 48, 62
2, 110674, Note_on_c, 0, 51, 0
2, 110892, Note_on_c, 0, 63, 71
2, 110893, Note_on_c, 0, 49, 62
2, 110920, Note_on_c, 0, 48, 0
2, 110969, Note_on_c, 0, 66, 0
2, 111086, Note_on_c, 0, 51, 57
2, 111138, Note_on_c, 0, 49, 0
2, 111314, Note_on_c, 0, 69, 65
2, 111315, Note_on_c, 0, 60, 64
2, 111333, Control_c, 0, 64, 34
2, 111342, Note_on_c, 0, 53, 48
2, 111347, Note_on_c, 0, 63, 0
2, 111381, Note_on_c, 0, 51, 0
2, 111420, Note_on_c, 0, 70, 0
2, 111517, Note_on_c, 0, 53, 0
2, 111518, Note_on_c, 0, 51, 62
2, 111726, Note_on_c, 0, 49, 59
2, 111731, Note_on_c, 0, 65, 66
2, 111770, Note_on_c, 0, 60, 0
2, 111785, Note_on_c, 0, 51, 0
2, 111949, Note_on_c, 0, 48, 57
2, 111967, Note_on_c, 0, 49, 0
2, 112186, Note_on_c, 0, 70, 64
2, 112200, Note_on_c, 0, 46, 56
2, 112212, Note_on_c, 0, 48, 0
2, 112212, Note_on_c, 0, 61, 41
2, 112220, Note_on_c, 0, 65, 0
2, 112244, Note_on_c, 0, 69, 0
2, 112367, Control_c, 0, 64, 39
2, 112388, Control_c, 0, 64, 50
2, 112403, Note_on_c, 0, 69, 65
2, 112403, Note_on_c, 0, 70, 0
2, 112406, Control_c, 0, 64, 57
2, 112416, Note_on_c, 0, 61, 0
2, 112425, Control_c, 0, 64, 61
2, 112445, Control_c, 0, 64, 64
2, 112464, Control_c, 0, 64, 67
2, 112481, Control_c, 0, 64, 71
2, 112500, Control_c, 0, 64, 76
2, 112520, Control_c, 0, 64, 82
2, 112540, Control_c, 0, 64, 87
2, 112595, Control_c, 0, 64, 85
2, 112614, Control_c, 0, 64, 80
2, 112617, Note_on_c, 0, 58, 59
2, 112629, Note_on_c, 0, 70, 63
2, 112632, Control_c, 0, 64, 76
2, 112640, Note_on_c, 0, 69, 0
2, 112691, Control_c, 0, 64, 80
2, 112723, Control_c, 0, 64, 87
2, 112743, Control_c, 0, 64, 92
2, 112762, Control_c, 0, 64, 98
2, 112781, Control_c, 0, 64, 102
2, 112791, Note_on_c, 0, 70, 0
2, 112817, Control_c, 0, 64, 106
2, 112827, Note_on_c, 0, 72, 66
2, 112870, Note_on_c, 0, 72, 0
2, 113057, Note_on_c, 0, 70, 73
2, 113057, Note_on_c, 0, 73, 65
2, 113069, Control_c, 0, 64, 94
2, 113080, Note_on_c, 0, 58, 0
2, 113087, Control_c, 0, 64, 82
2, 113110, Control_c, 0, 64, 68
2, 113127, Control_c, 0, 64, 53
2, 113146, Control_c, 0, 64, 45
2, 113165, Control_c, 0, 64, 43
2, 113234, Note_on_c, 0, 73, 0
2, 113243, Note_on_c, 0, 75, 67
2, 113253, Note_on_c, 0, 48, 58
2, 113307, Note_on_c, 0, 70, 0
2, 113332, Note_on_c, 0, 46, 0
2, 113456, Note_on_c, 0, 48, 0
2, 113462, Note_on_c, 0, 49, 66
2, 113468, Note_on_c, 0, 77, 72
2, 113478, Note_on_c, 0, 70, 66
2, 113511, Note_on_c, 0, 75, 0
2, 113676, Note_on_c, 0, 77, 0
2, 113694, Note_on_c, 0, 46, 65
2, 113698, Note_on_c, 0, 73, 66
2, 113725, Note_on_c, 0, 70, 0
2, 113739, Note_on_c, 0, 49, 0
2, 113861, Control_c, 0, 64, 41
2, 113910, Note_on_c, 0, 70, 67
2, 113913, Note_on_c, 0, 75, 75
2, 113914, Note_on_c, 0, 73, 0
2, 113921, Note_on_c, 0, 48, 62
2, 113977, Note_on_c, 0, 46, 0
2, 114110, Note_on_c, 0, 73, 63
2, 114113, Note_on_c, 0, 49, 56
2, 114122, Note_on_c, 0, 48, 0
2, 114204, Note_on_c, 0, 75, 0
2, 114319, Control_c, 0, 64, 36
2, 114336, Control_c, 0, 64, 28
2, 114342, Note_on_c, 0, 72, 69
2, 114353, Note_on_c, 0, 69, 69
2, 114356, Control_c, 0, 64, 14
2, 114357, Note_on_c, 0, 51, 71
2, 114373, Note_on_c, 0, 70, 0
2, 114375, Control_c, 0, 64, 0
2, 114378, Note_on_c, 0, 73, 0
2, 114401, Note_on_c, 0, 49, 0
2, 114452, Control_c, 0, 64, 30
2, 114470, Control_c, 0, 64, 53
2, 114488, Control_c, 0, 64, 69
2, 114509, Control_c, 0, 64, 82
2, 114527, Control_c, 0, 64, 93
2, 114530, Note_on_c, 0, 70, 77
2, 114535, Note_on_c, 0, 69, 0
2, 114538, Note_on_c, 0, 72, 0
2, 114541, Note_on_c, 0, 73, 75
2, 114546, Control_c, 0, 64, 102
2, 114565, Control_c, 0, 64, 108
2, 114586, Control_c, 0, 64, 112
2, 114587, Note_on_c, 0, 70, 0
2, 114608, Note_on_c, 0, 73, 0
2, 114637, Control_c, 0, 64, 118
2, 114676, Control_c, 0, 64, 122
2, 114767, Control_c, 0, 64, 112
2, 114775, Note_on_c, 0, 45, 60
2, 114775, Note_on_c, 0, 72, 75
2, 114777, Note_on_c, 0, 75, 74
2, 114788, Control_c, 0, 64, 101
2, 114807, Control_c, 0, 64, 84
2, 114829, Control_c, 0, 64, 64
2, 114849, Control_c, 0, 64, 44
2, 114867, Control_c, 0, 64, 35
2, 114869, Note_on_c, 0, 51, 0
2, 114973, Note_on_c, 0, 77, 72
2, 115023, Note_on_c, 0, 72, 0
2, 115032, Note_on_c, 0, 75, 0
2, 115179, Note_on_c, 0, 78, 76
2, 115184, Note_on_c, 0, 46, 62
2, 115189, Note_on_c, 0, 72, 67
2, 115211, Note_on_c, 0, 77, 0
2, 115249, Note_on_c, 0, 45, 0
2, 115390, Note_on_c, 0, 75, 75
2, 115392, Note_on_c, 0, 48, 67
2, 115414, Note_on_c, 0, 78, 0
2, 115438, Note_on_c, 0, 46, 0
2, 115439, Note_on_c, 0, 72, 0
2, 115625, Note_on_c, 0, 49, 67
2, 115629, Note_on_c, 0, 72, 67
2, 115630, Note_on_c, 0, 48, 0
2, 115635, Note_on_c, 0, 77, 77
2, 115680, Note_on_c, 0, 75, 0
2, 115836, Note_on_c, 0, 51, 64
2, 115851, Note_on_c, 0, 49, 0
2, 116057, Note_on_c, 0, 49, 67
2, 116060, Note_on_c, 0, 70, 74
2, 116070, Note_on_c, 0, 72, 0
2, 116072, Note_on_c, 0, 51, 0
2, 116250, Note_on_c, 0, 48, 72
2, 116255, Note_on_c, 0, 72, 78
2, 116256, Note_on_c, 0, 70, 0
2, 116261, Note_on_c, 0, 49, 0
2, 116447, Control_c, 0, 64, 28
2, 116465, Control_c, 0, 64, 19
2, 116482, Note_on_c, 0, 46, 76
2, 116482, Note_on_c, 0, 73, 81
2, 116485, Control_c, 0, 64, 8
2, 116504, Control_c, 0, 64, 0
2, 116516, Note_on_c, 0, 48, 0
2, 116537, Note_on_c, 0, 72, 0
2, 116608, Note_on_c, 0, 77, 0
2, 116613, Control_c, 0, 64, 21
2, 116630, Control_c, 0, 64, 43
2, 116650, Control_c, 0, 64, 64
2, 116658, Note_on_c, 0, 73, 0
2, 116668, Control_c, 0, 64, 78
2, 116689, Control_c, 0, 64, 92
2, 116706, Note_on_c, 0, 44, 75
2, 116707, Control_c, 0, 64, 105
2, 116726, Control_c, 0, 64, 114
2, 116745, Control_c, 0, 64, 121
2, 116762, Note_on_c, 0, 46, 0
2, 116764, Control_c, 0, 64, 125
2, 116919, Note_on_c, 0, 82, 78
2, 116922, Note_on_c, 0, 73, 73
2, 116935, Note_on_c, 0, 42, 71
2, 116972, Note_on_c, 0, 44, 0
2, 116992, Control_c, 0, 64, 119
2, 117011, Control_c, 0, 64, 109
2, 117027, Control_c, 0, 64, 98
2, 117047, Control_c, 0, 64, 85
2, 117065, Control_c, 0, 64, 72
2, 117086, Control_c, 0, 64, 60
2, 117102, Control_c, 0, 64, 52
2, 117117, Note_on_c, 0, 46, 73
2, 117121, Control_c, 0, 64, 50
2, 117123, Note_on_c, 0, 77, 81
2, 117137, Note_on_c, 0, 42, 0
2, 117160, Control_c, 0, 64, 48
2, 117163, Note_on_c, 0, 73, 0
2, 117165, Note_on_c, 0, 82, 0
2, 117200, Control_c, 0, 64, 43
2, 117217, Control_c, 0, 64, 37
2, 117238, Control_c, 0, 64, 30
2, 117257, Control_c, 0, 64, 22
2, 117292, Control_c, 0, 64, 0
2, 117344, Note_on_c, 0, 39, 72
2, 117349, Note_on_c, 0, 73, 73
2, 117352, Note_on_c, 0, 78, 78
2, 117385, Note_on_c, 0, 77, 0
2, 117407, Control_c, 0, 64, 11
2, 117410, Note_on_c, 0, 46, 0
2, 117424, Control_c, 0, 64, 38
2, 117444, Control_c, 0, 64, 59
2, 117463, Control_c, 0, 64, 76
2, 117473, Note_on_c, 0, 39, 0
2, 117482, Control_c, 0, 64, 94
2, 117515, Control_c, 0, 64, 114
2, 117534, Control_c, 0, 64, 126
2, 117577, Note_on_c, 0, 80, 76
2, 117616, Note_on_c, 0, 73, 0
2, 117622, Note_on_c, 0, 78, 0
2, 117783, Note_on_c, 0, 78, 75
2, 117792, Note_on_c, 0, 58, 80
2, 117799, Control_c, 0, 64, 122
2, 117818, Control_c, 0, 64, 111
2, 117836, Control_c, 0, 64, 97
2, 117857, Control_c, 0, 64, 79
2, 117874, Control_c, 0, 64, 60
2, 117894, Control_c, 0, 64, 48
2, 117914, Control_c, 0, 64, 46
2, 117942, Note_on_c, 0, 80, 0
2, 117975, Note_on_c, 0, 77, 74
2, 117976, Note_on_c, 0, 78, 0
2, 118021, Note_on_c, 0, 76, 42
2, 118065, Note_on_c, 0, 76, 0
2, 118200, Note_on_c, 0, 75, 71
2, 118201, Note_on_c, 0, 60, 80
2, 118216, Note_on_c, 0, 77, 0
2, 118243, Note_on_c, 0, 58, 0
2, 118407, Note_on_c, 0, 73, 77
2, 118471, Control_c, 0, 64, 48
2, 118484, Note_on_c, 0, 75, 0
2, 118566, Control_c, 0, 64, 46
2, 118586, Control_c, 0, 64, 42
2, 118598, Note_on_c, 0, 60, 0
2, 118604, Control_c, 0, 64, 32
2, 118621, Note_on_c, 0, 72, 69
2, 118623, Control_c, 0, 64, 16
2, 118623, Note_on_c, 0, 63, 81
2, 118643, Control_c, 0, 64, 0
2, 118659, Note_on_c, 0, 73, 0
2, 118719, Control_c, 0, 64, 27
2, 118737, Control_c, 0, 64, 52
2, 118756, Control_c, 0, 64, 72
2, 118776, Control_c, 0, 64, 87
2, 118793, Control_c, 0, 64, 102
2, 118810, Note_on_c, 0, 75, 81
2, 118811, Control_c, 0, 64, 110
2, 118813, Note_on_c, 0, 63, 0
2, 118817, Note_on_c, 0, 72, 0
2, 118830, Control_c, 0, 64, 114
2, 118888, Control_c, 0, 64, 118
2, 118963, Control_c, 0, 64, 123
2, 119046, Note_on_c, 0, 63, 74
2, 119056, Control_c, 0, 64, 116
2, 119056, Note_on_c, 0, 69, 80
2, 119076, Control_c, 0, 64, 108
2, 119096, Control_c, 0, 64, 95
2, 119111, Note_on_c, 0, 75, 0
2, 119114, Control_c, 0, 64, 78
2, 119134, Control_c, 0, 64, 59
2, 119153, Control_c, 0, 64, 41
2, 119173, Control_c, 0, 64, 33
2, 119228, Note_on_c, 0, 54, 69
2, 119433, Control_c, 0, 64, 25
2, 119450, Control_c, 0, 64, 16
2, 119452, Note_on_c, 0, 63, 0
2, 119470, Control_c, 0, 64, 0
2, 119477, Note_on_c, 0, 72, 80
2, 119478, Note_on_c, 0, 57, 68
2, 119484, Note_on_c, 0, 53, 69
2, 119507, Note_on_c, 0, 54, 0
2, 119546, Note_on_c, 0, 69, 0
2, 119583, Control_c, 0, 64, 16
2, 119603, Control_c, 0, 64, 35
2, 119621, Control_c, 0, 64, 55
2, 119621, Note_on_c, 0, 57, 0
2, 119640, Control_c, 0, 64, 67
2, 119659, Control_c, 0, 64, 74
2, 119676, Control_c, 0, 64, 81
2, 119679, Note_on_c, 0, 51, 70
2, 119696, Control_c, 0, 64, 89
2, 119697, Note_on_c, 0, 53, 0
2, 119716, Control_c, 0, 64, 95
2, 119734, Control_c, 0, 64, 102
2, 119753, Control_c, 0, 64, 108
2, 119771, Control_c, 0, 64, 114
2, 119809, Control_c, 0, 64, 118
2, 119867, Control_c, 0, 64, 110
2, 119882, Note_on_c, 0, 51, 0
2, 119885, Control_c, 0, 64, 97
2, 119893, Note_on_c, 0, 77, 80
2, 119894, Note_on_c, 0, 58, 64
2, 119901, Note_on_c, 0, 49, 67
2, 119903, Control_c, 0, 64, 77
2, 119923, Control_c, 0, 64, 48
2, 119941, Control_c, 0, 64, 0
2, 119996, Note_on_c, 0, 72, 0
2, 120016, Control_c, 0, 64, 16
2, 120035, Control_c, 0, 64, 47
2, 120055, Control_c, 0, 64, 70
2, 120074, Control_c, 0, 64, 85
2, 120075, Note_on_c, 0, 77, 0
2, 120092, Control_c, 0, 64, 98
2, 120098, Note_on_c, 0, 48, 71
2, 120113, Control_c, 0, 64, 104
2, 120141, Note_on_c, 0, 49, 0
2, 120148, Control_c, 0, 64, 111
2, 120188, Control_c, 0, 64, 115
2, 120243, Control_c, 0, 64, 105
2, 120263, Control_c, 0, 64, 91
2, 120282, Control_c, 0, 64, 73
2, 120298, Control_c, 0, 64, 47
2, 120305, Note_on_c, 0, 73, 71
2, 120317, Note_on_c, 0, 70, 78
2, 120319, Note_on_c, 0, 46, 73
2, 120339, Control_c, 0, 64, 0
2, 120353, Note_on_c, 0, 48, 0
2, 120396, Note_on_c, 0, 58, 0
2, 120466, Control_c, 0, 64, 17
2, 120485, Control_c, 0, 64, 54
2, 120505, Control_c, 0, 64, 75
2, 120521, Note_on_c, 0, 70, 0
2, 120524, Control_c, 0, 64, 93
2, 120535, Note_on_c, 0, 49, 72
2, 120543, Control_c, 0, 64, 109
2, 120543, Note_on_c, 0, 46, 0
2, 120562, Control_c, 0, 64, 116
2, 120567, Note_on_c, 0, 73, 0
2, 120599, Control_c, 0, 64, 123
2, 120636, Control_c, 0, 64, 127
2, 120772, Note_on_c, 0, 70, 76
2, 120772, Note_on_c, 0, 75, 74
2, 120783, Note_on_c, 0, 42, 80
2, 120788, Control_c, 0, 64, 123
2, 120808, Control_c, 0, 64, 108
2, 120826, Control_c, 0, 64, 89
2, 120836, Note_on_c, 0, 49, 0
2, 120844, Control_c, 0, 64, 64
2, 120863, Control_c, 0, 64, 35
2, 120883, Control_c, 0, 64, 18
2, 120973, Note_on_c, 0, 77, 69
2, 121041, Note_on_c, 0, 75, 0
2, 121045, Note_on_c, 0, 42, 0
2, 121050, Control_c, 0, 64, 14
2, 121184, Control_c, 0, 64, 0
2, 121198, Note_on_c, 0, 39, 73
2, 121212, Note_on_c, 0, 78, 73
2, 121246, Note_on_c, 0, 77, 0
2, 121424, Note_on_c, 0, 39, 0
2, 121425, Note_on_c, 0, 75, 80
2, 121474, Note_on_c, 0, 70, 0
2, 121496, Note_on_c, 0, 78, 0
2, 121623, Note_on_c, 0, 41, 75
2, 121638, Note_on_c, 0, 69, 68
2, 121639, Note_on_c, 0, 72, 74
2, 121677, Note_on_c, 0, 75, 0
2, 121785, Control_c, 0, 64, 11
2, 121836, Note_on_c, 0, 78, 73
2, 121920, Note_on_c, 0, 41, 0
2, 121954, Control_c, 0, 64, 0
2, 122052, Note_on_c, 0, 77, 66
2, 122066, Control_c, 0, 64, 14
2, 122066, Note_on_c, 0, 53, 65
2, 122086, Control_c, 0, 64, 42
2, 122107, Control_c, 0, 64, 64
2, 122125, Control_c, 0, 64, 80
2, 122133, Note_on_c, 0, 72, 0
2, 122142, Control_c, 0, 64, 98
2, 122156, Note_on_c, 0, 53, 0
2, 122161, Control_c, 0, 64, 114
2, 122182, Control_c, 0, 64, 124
2, 122211, Note_on_c, 0, 78, 0
2, 122223, Note_on_c, 0, 69, 0
2, 122234, Note_on_c, 0, 75, 68
2, 122239, Note_on_c, 0, 77, 0
2, 122266, Note_on_c, 0, 75, 0
2, 122480, Control_c, 0, 64, 118
2, 122500, Control_c, 0, 64, 114
2, 122518, Control_c, 0, 64, 109
2, 122538, Control_c, 0, 64, 101
2, 122555, Control_c, 0, 64, 88
2, 122576, Control_c, 0, 64, 71
2, 122592, Control_c, 0, 64, 53
2, 122598, Note_on_c, 0, 46, 44
2, 122606, Note_on_c, 0, 73, 56
2, 122611, Control_c, 0, 64, 42
2, 122631, Control_c, 0, 64, 37
2, 122634, Note_on_c, 0, 70, 43
2, 122669, Control_c, 0, 64, 31
2, 122766, Control_c, 0, 64, 27
2, 122819, Note_on_c, 0, 70, 0
2, 122824, Note_on_c, 0, 65, 43
2, 122829, Note_on_c, 0, 48, 49
2, 122863, Note_on_c, 0, 46, 0
2, 122896, Control_c, 0, 64, 22
2, 123001, Note_on_c, 0, 65, 0
2, 123018, Note_on_c, 0, 48, 0
2, 123044, Note_on_c, 0, 70, 48
2, 123046, Note_on_c, 0, 49, 52
2, 123047, Control_c, 0, 64, 18
2, 123277, Note_on_c, 0, 49, 0
2, 123277, Note_on_c, 0, 51, 53
2, 123470, Note_on_c, 0, 51, 0
2, 123487, Note_on_c, 0, 72, 60
2, 123494, Note_on_c, 0, 53, 39
2, 123534, Note_on_c, 0, 73, 0
2, 123675, Note_on_c, 0, 53, 0
2, 123680, Note_on_c, 0, 54, 50
2, 123892, Note_on_c, 0, 54, 0
2, 123902, Note_on_c, 0, 70, 0
2, 123910, Note_on_c, 0, 56, 47
2, 123910, Note_on_c, 0, 68, 47
2, 123921, Note_on_c, 0, 77, 62
2, 123956, Note_on_c, 0, 72, 0
2, 124057, Note_on_c, 0, 77, 0
2, 124106, Note_on_c, 0, 56, 0
2, 124127, Note_on_c, 0, 53, 43
2, 124351, Note_on_c, 0, 53, 0
2, 124352, Note_on_c, 0, 54, 43
2, 124359, Note_on_c, 0, 70, 58
2, 124546, Note_on_c, 0, 68, 0
2, 124555, Note_on_c, 0, 61, 49
2, 124560, Note_on_c, 0, 54, 0
2, 124569, Note_on_c, 0, 56, 39
2, 124789, Note_on_c, 0, 56, 0
2, 124790, Note_on_c, 0, 66, 57
2, 124792, Note_on_c, 0, 61, 0
2, 124801, Note_on_c, 0, 58, 45
2, 124995, Note_on_c, 0, 58, 0
2, 125007, Note_on_c, 0, 60, 51
2, 125215, Note_on_c, 0, 60, 0
2, 125227, Note_on_c, 0, 68, 62
2, 125236, Note_on_c, 0, 61, 47
2, 125296, Note_on_c, 0, 70, 0
2, 125411, Note_on_c, 0, 61, 0
2, 125450, Note_on_c, 0, 63, 48
2, 125661, Note_on_c, 0, 73, 66
2, 125686, Note_on_c, 0, 61, 54
2, 125687, Note_on_c, 0, 63, 0
2, 125692, Note_on_c, 0, 65, 43
2, 125725, Note_on_c, 0, 68, 0
2, 125753, Note_on_c, 0, 66, 0
2, 125843, Note_on_c, 0, 73, 0
2, 125845, Note_on_c, 0, 61, 0
2, 125883, Note_on_c, 0, 60, 48
2, 126087, Note_on_c, 0, 66, 63
2, 126100, Note_on_c, 0, 60, 0
2, 126113, Note_on_c, 0, 58, 40
2, 126326, Note_on_c, 0, 56, 44
2, 126360, Note_on_c, 0, 58, 0
2, 126525, Note_on_c, 0, 56, 0
2, 126534, Note_on_c, 0, 63, 53
2, 126548, Note_on_c, 0, 54, 41
2, 126548, Note_on_c, 0, 65, 0
2, 126713, Note_on_c, 0, 54, 0
2, 126738, Note_on_c, 0, 61, 48
2, 126771, Note_on_c, 0, 53, 32
2, 126804, Note_on_c, 0, 63, 0
2, 126955, Note_on_c, 0, 53, 0
2, 126967, Note_on_c, 0, 60, 51
2, 126980, Note_on_c, 0, 51, 42
2, 127025, Note_on_c, 0, 61, 0
2, 127148, Note_on_c, 0, 60, 0
2, 127202, Note_on_c, 0, 51, 0
2, 127217, Note_on_c, 0, 53, 34
2, 127417, Note_on_c, 0, 58, 52
2, 127424, Note_on_c, 0, 54, 40
2, 127428, Note_on_c, 0, 53, 0
2, 127530, Note_on_c, 0, 58, 0
2, 127606, Note_on_c, 0, 54, 0
2, 127614, Note_on_c, 0, 51, 44
2, 127850, Note_on_c, 0, 57, 55
2, 127868, Note_on_c, 0, 53, 48
2, 127871, Note_on_c, 0, 51, 0
2, 128046, Note_on_c, 0, 65, 45
2, 128125, Note_on_c, 0, 66, 0
2, 128131, Note_on_c, 0, 57, 0
2, 128291, Note_on_c, 0, 63, 57
2, 128295, Note_on_c, 0, 58, 56
2, 128346, Note_on_c, 0, 65, 0
2, 128497, Note_on_c, 0, 61, 53
2, 128551, Note_on_c, 0, 63, 0
2, 128732, Note_on_c, 0, 60, 61
2, 128760, Note_on_c, 0, 61, 0
2, 128922, Note_on_c, 0, 61, 55
2, 128967, Note_on_c, 0, 60, 0
2, 128989, Note_on_c, 0, 58, 0
2, 129161, Note_on_c, 0, 63, 53
2, 129174, Note_on_c, 0, 57, 44
2, 129174, Note_on_c, 0, 61, 0
2, 129351, Note_on_c, 0, 57, 0
2, 129369, Note_on_c, 0, 60, 54
2, 129381, Note_on_c, 0, 63, 0
2, 129593, Note_on_c, 0, 60, 0
2, 129595, Note_on_c, 0, 61, 59
2, 129605, Note_on_c, 0, 58, 42
2, 129797, Note_on_c, 0, 63, 61
2, 129800, Note_on_c, 0, 60, 52
2, 129823, Note_on_c, 0, 61, 0
2, 129832, Note_on_c, 0, 58, 0
2, 130028, Note_on_c, 0, 61, 54
2, 130029, Note_on_c, 0, 63, 0
2, 130038, Note_on_c, 0, 65, 61
2, 130061, Note_on_c, 0, 60, 0
2, 130233, Note_on_c, 0, 67, 64
2, 130236, Note_on_c, 0, 58, 59
2, 130244, Note_on_c, 0, 61, 0
2, 130286, Note_on_c, 0, 65, 0
2, 130461, Note_on_c, 0, 60, 56
2, 130461, Note_on_c, 0, 69, 63
2, 130476, Control_c, 0, 64, 22
2, 130483, Note_on_c, 0, 58, 0
2, 130513, Note_on_c, 0, 67, 0
2, 130618, Note_on_c, 0, 60, 0
2, 130637, Note_on_c, 0, 61, 64
2, 130657, Note_on_c, 0, 70, 66
2, 130703, Note_on_c, 0, 69, 0
2, 130864, Note_on_c, 0, 72, 66
2, 130872, Note_on_c, 0, 63, 57
2, 130875, Note_on_c, 0, 61, 0
2, 130903, Note_on_c, 0, 70, 0
2, 131073, Note_on_c, 0, 69, 64
2, 131078, Note_on_c, 0, 63, 0
2, 131081, Note_on_c, 0, 60, 65
2, 131082, Note_on_c, 0, 72, 0
2, 131292, Note_on_c, 0, 70, 70
2, 131293, Note_on_c, 0, 60, 0
2, 131295, Note_on_c, 0, 61, 66
2, 131351, Note_on_c, 0, 69, 0
2, 131490, Note_on_c, 0, 63, 71
2, 131501, Note_on_c, 0, 61, 0
2, 131511, Note_on_c, 0, 72, 70
2, 131565, Note_on_c, 0, 70, 0
2, 131642, Control_c, 0, 64, 16
2, 131660, Control_c, 0, 64, 11
2, 131678, Control_c, 0, 64, 0
2, 131717, Note_on_c, 0, 65, 72
2, 131721, Note_on_c, 0, 73, 72
2, 131729, Note_on_c, 0, 72, 0
2, 131800, Note_on_c, 0, 63, 0
2, 131827, Control_c, 0, 64, 16
2, 131827, Note_on_c, 0, 53, 0
2, 131848, Control_c, 0, 64, 38
2, 131866, Control_c, 0, 64, 57
2, 131886, Control_c, 0, 64, 67
2, 131889, Note_on_c, 0, 65, 0
2, 131917, Control_c, 0, 64, 73
2, 131927, Note_on_c, 0, 70, 76
2, 131935, Note_on_c, 0, 67, 69
2, 131938, Control_c, 0, 64, 80
2, 131938, Note_on_c, 0, 73, 0
2, 131957, Control_c, 0, 64, 88
2, 131975, Control_c, 0, 64, 95
2, 131992, Control_c, 0, 64, 100
2, 132032, Control_c, 0, 64, 104
2, 132057, Note_on_c, 0, 67, 0
2, 132154, Note_on_c, 0, 72, 68
2, 132157, Note_on_c, 0, 69, 77
2, 132164, Note_on_c, 0, 65, 69
2, 132183, Note_on_c, 0, 70, 0
2, 132201, Control_c, 0, 64, 95
2, 132219, Control_c, 0, 64, 87
2, 132239, Control_c, 0, 64, 75
2, 132258, Control_c, 0, 64, 60
2, 132277, Control_c, 0, 64, 44
2, 132294, Control_c, 0, 64, 33
2, 132332, Control_c, 0, 64, 29
2, 132350, Note_on_c, 0, 73, 72
2, 132365, Note_on_c, 0, 72, 0
2, 132385, Note_on_c, 0, 70, 76
2, 132409, Note_on_c, 0, 69, 0
2, 132562, Note_on_c, 0, 75, 75
2, 132583, Note_on_c, 0, 72, 69
2, 132594, Note_on_c, 0, 73, 0
2, 132613, Note_on_c, 0, 70, 0
2, 132616, Control_c, 0, 64, 25
2, 132666, Note_on_c, 0, 72, 0
2, 132765, Note_on_c, 0, 72, 74
2, 132774, Note_on_c, 0, 69, 69
2, 132796, Note_on_c, 0, 75, 0
2, 132827, Control_c, 0, 64, 29
2, 132978, Note_on_c, 0, 73, 77
2, 132983, Note_on_c, 0, 70, 69
2, 133018, Note_on_c, 0, 69, 0
2, 133020, Note_on_c, 0, 72, 0
2, 133187, Note_on_c, 0, 75, 75
2, 133189, Note_on_c, 0, 72, 70
2, 133222, Note_on_c, 0, 70, 0
2, 133267, Note_on_c, 0, 73, 0
2, 133401, Note_on_c, 0, 77, 77
2, 133405, Note_on_c, 0, 73, 75
2, 133408, Note_on_c, 0, 75, 0
2, 133428, Note_on_c, 0, 72, 0
2, 133592, Note_on_c, 0, 79, 81
2, 133599, Note_on_c, 0, 70, 69
2, 133610, Note_on_c, 0, 73, 0
2, 133643, Note_on_c, 0, 77, 0
2, 133819, Note_on_c, 0, 81, 80
2, 133825, Note_on_c, 0, 72, 68
2, 133861, Note_on_c, 0, 70, 0
2, 133902, Note_on_c, 0, 79, 0
2, 134001, Note_on_c, 0, 72, 0
2, 134009, Note_on_c, 0, 82, 81
2, 134013, Note_on_c, 0, 73, 69
2, 134081, Note_on_c, 0, 81, 0
2, 134221, Note_on_c, 0, 84, 81
2, 134223, Note_on_c, 0, 75, 70
2, 134225, Note_on_c, 0, 73, 0
2, 134236, Control_c, 0, 64, 22
2, 134256, Control_c, 0, 64, 16
2, 134274, Control_c, 0, 64, 12
2, 134277, Note_on_c, 0, 82, 0
2, 134370, Control_c, 0, 64, 19
2, 134388, Control_c, 0, 64, 44
2, 134405, Note_on_c, 0, 75, 0
2, 134406, Control_c, 0, 64, 65
2, 134419, Note_on_c, 0, 72, 66
2, 134421, Note_on_c, 0, 81, 81
2, 134426, Control_c, 0, 64, 78
2, 134433, Note_on_c, 0, 84, 0
2, 134446, Control_c, 0, 64, 91
2, 134463, Control_c, 0, 64, 102
2, 134471, Note_on_c, 0, 81, 0
2, 134481, Control_c, 0, 64, 110
2, 134501, Control_c, 0, 64, 116
2, 134520, Control_c, 0, 64, 120
2, 134558, Control_c, 0, 64, 125
2, 134672, Note_on_c, 0, 82, 81
2, 134689, Note_on_c, 0, 72, 0
2, 134689, Note_on_c, 0, 74, 61
2, 134728, Control_c, 0, 64, 120
2, 134755, Note_on_c, 0, 74, 0
2, 134767, Control_c, 0, 64, 114
2, 134802, Control_c, 0, 64, 108
2, 134821, Control_c, 0, 64, 98
2, 134841, Control_c, 0, 64, 86
2, 134859, Control_c, 0, 64, 71
2, 134876, Control_c, 0, 64, 56
2, 134888, Note_on_c, 0, 66, 64
2, 134890, Note_on_c, 0, 72, 67
2, 134896, Control_c, 0, 64, 49
2, 134914, Control_c, 0, 64, 47
2, 134929, Note_on_c, 0, 65, 0
2, 134932, Control_c, 0, 64, 44
2, 134951, Control_c, 0, 64, 39
2, 134970, Control_c, 0, 64, 33
2, 135066, Control_c, 0, 64, 28
2, 135075, Note_on_c, 0, 66, 0
2, 135083, Note_on_c, 0, 65, 70
2, 135092, Note_on_c, 0, 74, 80
2, 135166, Note_on_c, 0, 72, 0
2, 135285, Note_on_c, 0, 63, 73
2, 135288, Note_on_c, 0, 75, 76
2, 135332, Note_on_c, 0, 65, 0
2, 135359, Note_on_c, 0, 74, 0
2, 135493, Note_on_c, 0, 62, 69
2, 135513, Note_on_c, 0, 77, 77
2, 135524, Note_on_c, 0, 63, 0
2, 135540, Note_on_c, 0, 75, 0
2, 135706, Note_on_c, 0, 60, 65
2, 135708, Note_on_c, 0, 78, 73
2, 135772, Note_on_c, 0, 77, 0
2, 135778, Note_on_c, 0, 62, 0
2, 135924, Note_on_c, 0, 58, 60
2, 135932, Note_on_c, 0, 80, 76
2, 135952, Note_on_c, 0, 60, 0
2, 135978, Note_on_c, 0, 78, 0
2, 136107, Note_on_c, 0, 58, 0
2, 136127, Note_on_c, 0, 77, 69
2, 136143, Note_on_c, 0, 62, 61
2, 136163, Note_on_c, 0, 80, 0
2, 136354, Note_on_c, 0, 78, 67
2, 136362, Note_on_c, 0, 51, 56
2, 136394, Note_on_c, 0, 77, 0
2, 136459, Note_on_c, 0, 62, 0
2, 136558, Note_on_c, 0, 53, 52
2, 136595, Note_on_c, 0, 51, 0
2, 136779, Note_on_c, 0, 54, 53
2, 136782, Note_on_c, 0, 53, 0
2, 136785, Note_on_c, 0, 77, 66
2, 136976, Note_on_c, 0, 75, 68
2, 136986, Note_on_c, 0, 54, 0
2, 136986, Note_on_c, 0, 56, 61
2, 137021, Note_on_c, 0, 77, 0
2, 137040, Control_c, 0, 64, 24
2, 137042, Note_on_c, 0, 78, 0
2, 137173, Control_c, 0, 64, 20
2, 137187, Note_on_c, 0, 56, 0
2, 137193, Note_on_c, 0, 74, 65
2, 137205, Note_on_c, 0, 58, 51
2, 137252, Note_on_c, 0, 75, 0
2, 137356, Note_on_c, 0, 74, 0
2, 137410, Note_on_c, 0, 58, 0
2, 137420, Note_on_c, 0, 60, 49
2, 137608, Note_on_c, 0, 77, 63
2, 137610, Note_on_c, 0, 60, 0
2, 137618, Note_on_c, 0, 62, 57
2, 137814, Note_on_c, 0, 77, 0
2, 137823, Note_on_c, 0, 62, 0
2, 137832, Note_on_c, 0, 58, 56
2, 138058, Note_on_c, 0, 70, 73
2, 138082, Note_on_c, 0, 58, 0
2, 138098, Note_on_c, 0, 66, 41
2, 138274, Note_on_c, 0, 66, 0
2, 138280, Note_on_c, 0, 65, 59
2, 138478, Note_on_c, 0, 78, 64
2, 138491, Note_on_c, 0, 65, 0
2, 138496, Note_on_c, 0, 63, 58
2, 138576, Note_on_c, 0, 70, 0
2, 138694, Note_on_c, 0, 77, 70
2, 138719, Note_on_c, 0, 63, 0
2, 138723, Note_on_c, 0, 65, 48
2, 138870, Note_on_c, 0, 78, 0
2, 138909, Note_on_c, 0, 75, 71
2, 138912, Note_on_c, 0, 66, 57
2, 138923, Note_on_c, 0, 65, 0
2, 138952, Note_on_c, 0, 77, 0
2, 139062, Note_on_c, 0, 75, 0
2, 139122, Note_on_c, 0, 68, 57
2, 139135, Note_on_c, 0, 66, 0
2, 139299, Control_c, 0, 64, 16
2, 139327, Note_on_c, 0, 73, 71
2, 139337, Control_c, 0, 64, 11
2, 139341, Note_on_c, 0, 68, 0
2, 139350, Note_on_c, 0, 70, 55
2, 139355, Control_c, 0, 64, 0
2, 139460, Note_on_c, 0, 73, 0
2, 139535, Note_on_c, 0, 70, 0
2, 139544, Note_on_c, 0, 66, 58
2, 139774, Note_on_c, 0, 72, 72
2, 139788, Note_on_c, 0, 63, 60
2, 139806, Note_on_c, 0, 66, 0
2, 139822, Control_c, 0, 64, 9
2, 139842, Control_c, 0, 64, 22
2, 139859, Control_c, 0, 64, 28
2, 139859, Note_on_c, 0, 82, 0
2, 139880, Control_c, 0, 64, 33
2, 139896, Control_c, 0, 64, 40
2, 139917, Control_c, 0, 64, 50
2, 139934, Control_c, 0, 64, 56
2, 139954, Control_c, 0, 64, 58
2, 139972, Note_on_c, 0, 61, 58
2, 139987, Note_on_c, 0, 63, 0
2, 140011, Control_c, 0, 64, 60
2, 140028, Control_c, 0, 64, 61
2, 140049, Control_c, 0, 64, 62
2, 140106, Control_c, 0, 64, 61
2, 140126, Control_c, 0, 64, 60
2, 140161, Control_c, 0, 64, 57
2, 140181, Control_c, 0, 64, 53
2, 140187, Note_on_c, 0, 61, 0
2, 140199, Note_on_c, 0, 81, 76
2, 140200, Control_c, 0, 64, 50
2, 140218, Note_on_c, 0, 60, 49
2, 140276, Control_c, 0, 64, 47
2, 140397, Note_on_c, 0, 82, 73
2, 140406, Note_on_c, 0, 58, 55
2, 140427, Control_c, 0, 64, 50
2, 140427, Note_on_c, 0, 60, 0
2, 140437, Note_on_c, 0, 81, 0
2, 140520, Control_c, 0, 64, 48
2, 140556, Control_c, 0, 64, 45
2, 140575, Control_c, 0, 64, 39
2, 140593, Control_c, 0, 64, 30
2, 140612, Control_c, 0, 64, 18
2, 140633, Note_on_c, 0, 58, 0
2, 140638, Note_on_c, 0, 84, 79
2, 140640, Note_on_c, 0, 57, 60
2, 140649, Control_c, 0, 64, 0
2, 140650, Note_on_c, 0, 82, 0
2, 140762, Control_c, 0, 64, 9
2, 140769, Note_on_c, 0, 84, 0
2, 140783, Control_c, 0, 64, 26
2, 140801, Control_c, 0, 64, 38
2, 140820, Control_c, 0, 64, 45
2, 140834, Note_on_c, 0, 72, 0
2, 140841, Note_on_c, 0, 57, 0
2, 140854, Note_on_c, 0, 55, 59
2, 141085, Control_c, 0, 64, 42
2, 141089, Note_on_c, 0, 75, 74
2, 141102, Control_c, 0, 64, 37
2, 141114, Note_on_c, 0, 53, 46
2, 141116, Note_on_c, 0, 55, 0
2, 141131, Note_on_c, 0, 72, 48
2, 141142, Control_c, 0, 64, 30
2, 141177, Control_c, 0, 64, 25
2, 141215, Control_c, 0, 64, 20
2, 141276, Note_on_c, 0, 53, 0
2, 141317, Note_on_c, 0, 57, 42
2, 141405, Control_c, 0, 64, 16
2, 141551, Note_on_c, 0, 49, 56
2, 141600, Note_on_c, 0, 57, 0
2, 141774, Note_on_c, 0, 54, 60
2, 141783, Note_on_c, 0, 49, 0
2, 141991, Note_on_c, 0, 73, 71
2, 142008, Note_on_c, 0, 70, 49
2, 142012, Note_on_c, 0, 53, 46
2, 142014, Note_on_c, 0, 54, 0
2, 142056, Note_on_c, 0, 75, 0
2, 142061, Note_on_c, 0, 72, 0
2, 142213, Note_on_c, 0, 75, 66
2, 142240, Note_on_c, 0, 53, 0
2, 142243, Note_on_c, 0, 51, 49
2, 142296, Note_on_c, 0, 73, 0
2, 142481, Note_on_c, 0, 77, 68
2, 142500, Note_on_c, 0, 49, 53
2, 142509, Note_on_c, 0, 51, 0
2, 142519, Note_on_c, 0, 75, 0
2, 142664, Note_on_c, 0, 77, 0
2, 142694, Note_on_c, 0, 70, 0
2, 142718, Note_on_c, 0, 48, 57
2, 142738, Note_on_c, 0, 49, 0
2, 142954, Note_on_c, 0, 75, 70
2, 142964, Note_on_c, 0, 46, 56
2, 142974, Note_on_c, 0, 48, 0
2, 142976, Note_on_c, 0, 66, 51
2, 143188, Note_on_c, 0, 69, 68
2, 143190, Note_on_c, 0, 48, 54
2, 143197, Note_on_c, 0, 46, 0
2, 143225, Note_on_c, 0, 75, 0
2, 143233, Note_on_c, 0, 66, 0
2, 143500, Note_on_c, 0, 48, 0
2, 143506, Note_on_c, 0, 70, 67
2, 143508, Note_on_c, 0, 49, 52
2, 143512, Note_on_c, 0, 65, 56
2, 143529, Note_on_c, 0, 69, 0
2, 143757, Note_on_c, 0, 49, 0
2, 143768, Note_on_c, 0, 48, 58
2, 144042, Note_on_c, 0, 49, 57
2, 144070, Note_on_c, 0, 48, 0
2, 144277, Note_on_c, 0, 65, 0
2, 144283, Note_on_c, 0, 66, 57
2, 144284, Note_on_c, 0, 72, 63
2, 144290, Note_on_c, 0, 51, 56
2, 144323, Note_on_c, 0, 70, 0
2, 144329, Note_on_c, 0, 49, 0
2, 144479, Note_on_c, 0, 72, 0
2, 144660, Note_on_c, 0, 69, 66
2, 144667, Note_on_c, 0, 60, 51
2, 144670, Note_on_c, 0, 53, 44
2, 144709, Note_on_c, 0, 66, 0
2, 144713, Note_on_c, 0, 51, 0
2, 144976, Note_on_c, 0, 51, 49
2, 144980, Note_on_c, 0, 53, 0
2, 145219, Control_c, 0, 64, 20
2, 145355, Note_on_c, 0, 53, 52
2, 145356, Note_on_c, 0, 51, 0
2, 145653, Control_c, 0, 64, 12
2, 145669, Control_c, 0, 64, 0
2, 145711, Note_on_c, 0, 69, 0
2, 145718, Note_on_c, 0, 70, 60
2, 145727, Note_on_c, 0, 41, 52
2, 145781, Note_on_c, 0, 53, 0
2, 145820, Control_c, 0, 64, 17
2, 145839, Control_c, 0, 64, 41
2, 145860, Control_c, 0, 64, 61
2, 145878, Control_c, 0, 64, 73
2, 145884, Note_on_c, 0, 70, 0
2, 145892, Note_on_c, 0, 60, 0
2, 145894, Control_c, 0, 64, 83
2, 145914, Control_c, 0, 64, 93
2, 145934, Control_c, 0, 64, 101
2, 145953, Control_c, 0, 64, 108
2, 145970, Control_c, 0, 64, 115
2, 145988, Control_c, 0, 64, 121
2, 146010, Control_c, 0, 64, 126
2, 146429, Note_on_c, 0, 70, 56
2, 146435, Note_on_c, 0, 62, 51
2, 146447, Note_on_c, 0, 46, 44
2, 146477, Control_c, 0, 64, 119
2, 146496, Control_c, 0, 64, 104
2, 146511, Control_c, 0, 64, 85
2, 146529, Note_on_c, 0, 41, 0
2, 146530, Control_c, 0, 64, 64
2, 146551, Control_c, 0, 64, 42
2, 146570, Control_c, 0, 64, 28
2, 146685, Control_c, 0, 64, 24
2, 147718, Control_c, 0, 64, 28
2, 149264, Note_on_c, 0, 70, 0
2, 149283, Note_on_c, 0, 62, 0
2, 149323, Note_on_c, 0, 46, 0
2, 149352, Control_c, 0, 64, 21
2, 149373, Control_c, 0, 64, 16
2, 149390, Control_c, 0, 64, 11
2, 150178,End_track
0, 0, End_of_file
