0, 0, Header, 1, 2, 480
1, 0, Start_track
1, 0, Tempo, 500000
1, 0, Time_signature, 4, 2, 24, 8
1, 1, End_track
2, 0, Start_track
2, 0, Program_c, 0, 0
2, 0, Control_c, 0, 64, 0
2, 1019, Note_on_c, 0, 73, 49
2, 1029, Note_on_c, 0, 46, 39
2, 1266, Note_on_c, 0, 72, 57
2, 1503, Note_on_c, 0, 70, 65
2, 1648, Note_on_c, 0, 72, 0
2, 1693, Note_on_c, 0, 73, 0
2, 1715, Note_on_c, 0, 69, 68
2, 1764, Note_on_c, 0, 46, 0
2, 1795, Note_on_c, 0, 70, 0
2, 1988, Note_on_c, 0, 70, 61
2, 1998, Note_on_c, 0, 58, 51
2, 2082, Note_on_c, 0, 69, 0
2, 2490, Note_on_c, 0, 65, 57
2, 2631, Note_on_c, 0, 70, 0
2, 2993, Note_on_c, 0, 66, 63
2, 3200, Note_on_c, 0, 65, 0
2, 3475, Note_on_c, 0, 63, 64
2, 3759, Note_on_c, 0, 66, 0
2, 3804, Note_on_c, 0, 58, 0
2, 3943, Note_on_c, 0, 60, 63
2, 3964, Note_on_c, 0, 57, 44
2, 4130, Note_on_c, 0, 63, 0
2, 4446, Note_on_c, 0, 65, 56
2, 4637, Note_on_c, 0, 57, 0
2, 4640, Note_on_c, 0, 60, 0
2, 4921, Note_on_c, 0, 61, 59
2, 4953, Note_on_c, 0, 58, 41
2, 5115, Note_on_c, 0, 65, 0
2, 5148, Note_on_c, 0, 56, 52
2, 5156, Note_on_c, 0, 58, 0
2, 5391, Note_on_c, 0, 58, 63
2, 5400, Note_on_c, 0, 54, 55
2, 5471, Note_on_c, 0, 61, 0
2, 5503, Note_on_c, 0, 56, 0
2, 5559, Note_on_c, 0, 58, 0
2, 5609, Note_on_c, 0, 53, 61
2, 5626, Note_on_c, 0, 54, 0
2, 5835, Note_on_c, 0, 82, 53
2, 5858, Note_on_c, 0, 70, 55
2, 5865, Note_on_c, 0, 54, 51
2, 5879, Note_on_c, 0, 53, 0
2, 6046, Note_on_c, 0, 53, 56
2, 6047, Note_on_c, 0, 54, 0
2, 6055, Note_on_c, 0, 70, 0
2, 6055, Note_on_c, 0, 80, 71
2, 6261, Note_on_c, 0, 82, 0
2, 6284, Note_on_c, 0, 78, 66
2, 6287, Note_on_c, 0, 70, 70
2, 6289, Note_on_c, 0, 51, 57
2, 6312, Note_on_c, 0, 53, 0
2, 6436, Note_on_c, 0, 80, 0
2, 6477, Note_on_c, 0, 49, 59
2, 6495, Note_on_c, 0, 77, 70
2, 6511, Note_on_c, 0, 51, 0
2, 6541, Note_on_c, 0, 78, 0
2, 6553, Note_on_c, 0, 70, 0
2, 6722, Note_on_c, 0, 51, 60
2, 6723, Note_on_c, 0, 78, 67
2, 6724, Note_on_c, 0, 70, 65
2, 6737, Note_on_c, 0, 49, 0
2, 6767, Note_on_c, 0, 77, 0
2, 6935, Note_on_c, 0, 49, 53
2, 6941, Note_on_c, 0, 77, 55
2, 6947, Note_on_c, 0, 78, 0
2, 6979, Note_on_c, 0, 51, 0
2, 7148, Note_on_c, 0, 70, 0
2, 7156, Note_on_c, 0, 75, 62
2, 7168, Note_on_c, 0, 69, 68
2, 7170, Note_on_c, 0, 49, 0
2, 7174, Note_on_c, 0, 48, 55
2, 7207, Note_on_c, 0, 77, 0
2, 7364, Note_on_c, 0, 73, 65
2, 7373, Note_on_c, 0, 46, 64
2, 7375, Note_on_c, 0, 70, 69
2, 7378, Note_on_c, 0, 69, 0
2, 7404, Note_on_c, 0, 48, 0
2, 7484, Note_on_c, 0, 75, 0
2, 7595, Note_on_c, 0, 72, 77
2, 7606, Note_on_c, 0, 45, 63
2, 7622, Note_on_c, 0, 46, 0
2, 7645, Note_on_c, 0, 70, 0
2, 7657, Note_on_c, 0, 73, 0
2, 7813, Note_on_c, 0, 41, 58
2, 7815, Note_on_c, 0, 77, 65
2, 7826, Note_on_c, 0, 45, 0
2, 7844, Note_on_c, 0, 72, 0
2, 8038, Note_on_c, 0, 75, 68
2, 8044, Note_on_c, 0, 72, 68
2, 8048, Note_on_c, 0, 43, 60
2, 8104, Note_on_c, 0, 77, 0
2, 8151, Note_on_c, 0, 41, 0
2, 8247, Note_on_c, 0, 75, 0
2, 8254, Note_on_c, 0, 77, 68
2, 8266, Note_on_c, 0, 45, 55
2, 8274, Note_on_c, 0, 43, 0
2, 8277, Note_on_c, 0, 72, 0
2, 8498, Note_on_c, 0, 72, 71
2, 8502, Note_on_c, 0, 73, 68
2, 8506, Note_on_c, 0, 46, 51
2, 8514, Note_on_c, 0, 45, 0
2, 8567, Note_on_c, 0, 77, 0
2, 8722, Note_on_c, 0, 46, 0
2, 8726, Note_on_c, 0, 48, 56
2, 8938, Note_on_c, 0, 70, 67
2, 8945, Note_on_c, 0, 49, 57
2, 8947, Note_on_c, 0, 73, 0
2, 8951, Note_on_c, 0, 48, 0
2, 8958, Note_on_c, 0, 72, 0
2, 8961, Note_on_c, 0, 65, 57
2, 9133, Note_on_c, 0, 70, 0
2, 9140, Note_on_c, 0, 69, 66
2, 9146, Note_on_c, 0, 51, 60
2, 9148, Note_on_c, 0, 49, 0
2, 9373, Note_on_c, 0, 69, 0
2, 9390, Note_on_c, 0, 70, 71
2, 9413, Note_on_c, 0, 49, 60
2, 9446, Note_on_c, 0, 51, 0
2, 9471, Note_on_c, 0, 65, 0
2, 9584, Note_on_c, 0, 49, 0
2, 9599, Note_on_c, 0, 73, 71
2, 9815, Note_on_c, 0, 72, 71
2, 9827, Note_on_c, 0, 54, 52
2, 9855, Note_on_c, 0, 73, 0
2, 10029, Note_on_c, 0, 73, 73
2, 10046, Note_on_c, 0, 54, 0
2, 10118, Note_on_c, 0, 72, 0
2, 10255, Note_on_c, 0, 75, 68
2, 10270, Note_on_c, 0, 48, 45
2, 10354, Note_on_c, 0, 73, 0
2, 10458, Note_on_c, 0, 49, 54
2, 10473, Note_on_c, 0, 68, 63
2, 10483, Note_on_c, 0, 70, 0
2, 10488, Note_on_c, 0, 48, 0
2, 10540, Note_on_c, 0, 75, 0
2, 10668, Note_on_c, 0, 70, 68
2, 10676, Note_on_c, 0, 68, 0
2, 10678, Note_on_c, 0, 66, 53
2, 10692, Note_on_c, 0, 51, 47
2, 10730, Note_on_c, 0, 49, 0
2, 10874, Note_on_c, 0, 65, 69
2, 10879, Note_on_c, 0, 51, 0
2, 10880, Note_on_c, 0, 70, 0
2, 10889, Note_on_c, 0, 53, 57
2, 10897, Note_on_c, 0, 66, 0
2, 11129, Note_on_c, 0, 72, 74
2, 11150, Note_on_c, 0, 51, 51
2, 11154, Note_on_c, 0, 53, 0
2, 11168, Note_on_c, 0, 66, 41
2, 11209, Note_on_c, 0, 65, 0
2, 11321, Note_on_c, 0, 51, 0
2, 11334, Note_on_c, 0, 66, 0
2, 11351, Note_on_c, 0, 63, 53
2, 11553, Note_on_c, 0, 63, 0
2, 11587, Note_on_c, 0, 65, 52
2, 11591, Note_on_c, 0, 56, 46
2, 11814, Note_on_c, 0, 66, 55
2, 11839, Note_on_c, 0, 56, 0
2, 11855, Note_on_c, 0, 65, 0
2, 12059, Note_on_c, 0, 73, 60
2, 12063, Note_on_c, 0, 49, 49
2, 12102, Note_on_c, 0, 72, 0
2, 12248, Note_on_c, 0, 49, 0
2, 12258, Note_on_c, 0, 65, 60
2, 12309, Note_on_c, 0, 66, 0
2, 12475, Note_on_c, 0, 48, 57
2, 12475, Note_on_c, 0, 67, 73
2, 12495, Note_on_c, 0, 73, 0
2, 12584, Note_on_c, 0, 65, 0
2, 12681, Note_on_c, 0, 69, 72
2, 12698, Note_on_c, 0, 48, 0
2, 12779, Note_on_c, 0, 67, 0
2, 12914, Note_on_c, 0, 49, 64
2, 12923, Note_on_c, 0, 70, 70
2, 13010, Note_on_c, 0, 69, 0
2, 13124, Note_on_c, 0, 72, 75
2, 13129, Note_on_c, 0, 70, 0
2, 13174, Note_on_c, 0, 49, 0
2, 13345, Note_on_c, 0, 73, 71
2, 13347, Note_on_c, 0, 46, 58
2, 13434, Note_on_c, 0, 72, 0
2, 13505, Note_on_c, 0, 46, 0
2, 13549, Note_on_c, 0, 70, 73
2, 13604, Note_on_c, 0, 73, 0
2, 13799, Note_on_c, 0, 80, 70
2, 13819, Note_on_c, 0, 70, 0
2, 13839, Note_on_c, 0, 72, 59
2, 13889, Note_on_c, 0, 53, 33
2, 13913, Note_on_c, 0, 55, 14
2, 13991, Note_on_c, 0, 55, 0
2, 14024, Note_on_c, 0, 79, 72
2, 14083, Note_on_c, 0, 80, 0
2, 14173, Note_on_c, 0, 53, 0
2, 14243, Note_on_c, 0, 77, 79
2, 14247, Note_on_c, 0, 56, 53
2, 14268, Note_on_c, 0, 60, 44
2, 14270, Note_on_c, 0, 72, 0
2, 14306, Note_on_c, 0, 79, 0
2, 14403, Note_on_c, 0, 56, 0
2, 14451, Note_on_c, 0, 60, 0
2, 14455, Note_on_c, 0, 76, 77
2, 14506, Note_on_c, 0, 77, 0
2, 14674, Note_on_c, 0, 61, 51
2, 14677, Note_on_c, 0, 77, 71
2, 14704, Note_on_c, 0, 65, 64
2, 14743, Note_on_c, 0, 76, 0
2, 14894, Note_on_c, 0, 61, 0
2, 14909, Note_on_c, 0, 60, 57
2, 15118, Note_on_c, 0, 72, 74
2, 15125, Note_on_c, 0, 60, 0
2, 15127, Note_on_c, 0, 58, 56
2, 15203, Note_on_c, 0, 77, 0
2, 15319, Note_on_c, 0, 56, 54
2, 15321, Note_on_c, 0, 58, 0
2, 15542, Note_on_c, 0, 73, 71
2, 15547, Note_on_c, 0, 58, 55
2, 15549, Note_on_c, 0, 56, 0
2, 15661, Note_on_c, 0, 72, 0
2, 15772, Note_on_c, 0, 55, 57
2, 15786, Note_on_c, 0, 58, 0
2, 15989, Note_on_c, 0, 70, 70
2, 15998, Note_on_c, 0, 56, 51
2, 16027, Note_on_c, 0, 55, 0
2, 16143, Note_on_c, 0, 65, 0
2, 16207, Note_on_c, 0, 58, 50
2, 16253, Note_on_c, 0, 56, 0
2, 16275, Note_on_c, 0, 73, 0
2, 16430, Note_on_c, 0, 67, 75
2, 16466, Note_on_c, 0, 60, 43
2, 16498, Note_on_c, 0, 64, 25
2, 16501, Note_on_c, 0, 58, 0
2, 16577, Note_on_c, 0, 70, 0
2, 16659, Note_on_c, 0, 58, 52
2, 16691, Note_on_c, 0, 60, 0
2, 16871, Note_on_c, 0, 72, 69
2, 16877, Note_on_c, 0, 56, 54
2, 16910, Note_on_c, 0, 58, 0
2, 16954, Note_on_c, 0, 67, 0
2, 17092, Note_on_c, 0, 55, 53
2, 17112, Note_on_c, 0, 56, 0
2, 17334, Note_on_c, 0, 68, 53
2, 17339, Note_on_c, 0, 53, 60
2, 17343, Note_on_c, 0, 65, 46
2, 17360, Note_on_c, 0, 55, 0
2, 17392, Note_on_c, 0, 64, 0
2, 17475, Note_on_c, 0, 72, 0
2, 17516, Note_on_c, 0, 65, 0
2, 17549, Note_on_c, 0, 64, 50
2, 17758, Note_on_c, 0, 64, 0
2, 17791, Note_on_c, 0, 65, 60
2, 17847, Note_on_c, 0, 68, 0
2, 17969, Note_on_c, 0, 65, 0
2, 17994, Note_on_c, 0, 67, 61
2, 18186, Note_on_c, 0, 67, 0
2, 18212, Note_on_c, 0, 77, 69
2, 18228, Note_on_c, 0, 68, 48
2, 18393, Note_on_c, 0, 68, 0
2, 18429, Note_on_c, 0, 55, 51
2, 18431, Note_on_c, 0, 70, 58
2, 18475, Note_on_c, 0, 53, 0
2, 18478, Note_on_c, 0, 77, 0
2, 18656, Note_on_c, 0, 77, 73
2, 18663, Note_on_c, 0, 70, 0
2, 18676, Note_on_c, 0, 56, 51
2, 18680, Note_on_c, 0, 72, 53
2, 18706, Note_on_c, 0, 55, 0
2, 18884, Note_on_c, 0, 68, 58
2, 18904, Note_on_c, 0, 56, 0
2, 18912, Note_on_c, 0, 72, 0
2, 18922, Note_on_c, 0, 53, 51
2, 18930, Note_on_c, 0, 77, 0
2, 19109, Note_on_c, 0, 77, 63
2, 19134, Note_on_c, 0, 55, 58
2, 19141, Note_on_c, 0, 70, 60
2, 19150, Note_on_c, 0, 68, 0
2, 19165, Note_on_c, 0, 53, 0
2, 19303, Note_on_c, 0, 70, 0
2, 19321, Note_on_c, 0, 68, 57
2, 19330, Note_on_c, 0, 55, 0
2, 19344, Note_on_c, 0, 56, 51
2, 19547, Note_on_c, 0, 76, 73
2, 19569, Note_on_c, 0, 68, 0
2, 19570, Note_on_c, 0, 67, 45
2, 19574, Note_on_c, 0, 58, 52
2, 19628, Note_on_c, 0, 56, 0
2, 19635, Note_on_c, 0, 77, 0
2, 19759, Note_on_c, 0, 77, 74
2, 19780, Note_on_c, 0, 68, 66
2, 19787, Note_on_c, 0, 76, 0
2, 19835, Note_on_c, 0, 67, 0
2, 19960, Note_on_c, 0, 68, 0
2, 19988, Note_on_c, 0, 79, 78
2, 20007, Note_on_c, 0, 52, 58
2, 20033, Note_on_c, 0, 70, 42
2, 20036, Note_on_c, 0, 77, 0
2, 20084, Note_on_c, 0, 58, 0
2, 20204, Note_on_c, 0, 70, 0
2, 20218, Note_on_c, 0, 72, 68
2, 20266, Note_on_c, 0, 79, 0
2, 20426, Note_on_c, 0, 79, 76
2, 20458, Note_on_c, 0, 73, 56
2, 20461, Note_on_c, 0, 53, 51
2, 20478, Note_on_c, 0, 72, 0
2, 20650, Note_on_c, 0, 73, 0
2, 20652, Note_on_c, 0, 70, 67
2, 20664, Note_on_c, 0, 52, 0
2, 20669, Note_on_c, 0, 55, 48
2, 20692, Note_on_c, 0, 53, 0
2, 20729, Note_on_c, 0, 79, 0
2, 20872, Note_on_c, 0, 79, 75
2, 20892, Note_on_c, 0, 72, 70
2, 20899, Note_on_c, 0, 56, 58
2, 20925, Note_on_c, 0, 55, 0
2, 20942, Note_on_c, 0, 70, 0
2, 21089, Note_on_c, 0, 58, 59
2, 21115, Note_on_c, 0, 56, 0
2, 21301, Note_on_c, 0, 56, 56
2, 21312, Note_on_c, 0, 77, 77
2, 21348, Note_on_c, 0, 58, 0
2, 21353, Note_on_c, 0, 79, 0
2, 21496, Note_on_c, 0, 79, 75
2, 21506, Note_on_c, 0, 55, 66
2, 21555, Note_on_c, 0, 56, 0
2, 21565, Note_on_c, 0, 77, 0
2, 21740, Note_on_c, 0, 55, 0
2, 21750, Note_on_c, 0, 80, 79
2, 21757, Note_on_c, 0, 53, 58
2, 21794, Note_on_c, 0, 79, 0
2, 21961, Note_on_c, 0, 51, 68
2, 21989, Note_on_c, 0, 80, 0
2, 22015, Note_on_c, 0, 53, 0
2, 22172, Note_on_c, 0, 80, 80
2, 22180, Note_on_c, 0, 77, 58
2, 22185, Note_on_c, 0, 49, 63
2, 22227, Note_on_c, 0, 72, 0
2, 22236, Note_on_c, 0, 51, 0
2, 22380, Note_on_c, 0, 77, 0
2, 22384, Note_on_c, 0, 72, 75
2, 22397, Note_on_c, 0, 53, 60
2, 22442, Note_on_c, 0, 80, 0
2, 22491, Note_on_c, 0, 49, 0
2, 22630, Note_on_c, 0, 80, 73
2, 22643, Note_on_c, 0, 46, 63
2, 22651, Note_on_c, 0, 73, 58
2, 22680, Note_on_c, 0, 53, 0
2, 22701, Note_on_c, 0, 72, 0
2, 22770, Control_c, 0, 64, 13
2, 22789, Control_c, 0, 64, 30
2, 22805, Control_c, 0, 64, 44
2, 22824, Control_c, 0, 64, 56
2, 22824, Note_on_c, 0, 75, 70
2, 22826, Note_on_c, 0, 73, 0
2, 22844, Control_c, 0, 64, 63
2, 22863, Control_c, 0, 64, 68
2, 22882, Control_c, 0, 64, 72
2, 22901, Control_c, 0, 64, 76
2, 22921, Control_c, 0, 64, 82
2, 22940, Control_c, 0, 64, 89
2, 22957, Control_c, 0, 64, 93
2, 22996, Control_c, 0, 64, 98
2, 23015, Note_on_c, 0, 46, 0
2, 23032, Control_c, 0, 64, 103
2, 23057, Note_on_c, 0, 73, 58
2, 23057, Note_on_c, 0, 77, 74
2, 23120, Note_on_c, 0, 75, 0
2, 23182, Note_on_c, 0, 80, 0
2, 23203, Control_c, 0, 64, 97
2, 23222, Control_c, 0, 64, 84
2, 23242, Control_c, 0, 64, 64
2, 23252, Note_on_c, 0, 73, 0
2, 23262, Control_c, 0, 64, 25
2, 23264, Note_on_c, 0, 72, 72
2, 23279, Control_c, 0, 64, 0
2, 23492, Note_on_c, 0, 79, 78
2, 23520, Note_on_c, 0, 70, 58
2, 23531, Note_on_c, 0, 77, 0
2, 23570, Note_on_c, 0, 72, 0
2, 23703, Note_on_c, 0, 67, 71
2, 23740, Note_on_c, 0, 70, 0
2, 23910, Note_on_c, 0, 82, 78
2, 23928, Note_on_c, 0, 68, 63
2, 23968, Note_on_c, 0, 79, 0
2, 23979, Note_on_c, 0, 67, 0
2, 24126, Note_on_c, 0, 70, 69
2, 24140, Note_on_c, 0, 68, 0
2, 24147, Note_on_c, 0, 82, 0
2, 24348, Note_on_c, 0, 82, 72
2, 24356, Note_on_c, 0, 64, 68
2, 24376, Control_c, 0, 64, 20
2, 24383, Note_on_c, 0, 70, 0
2, 24408, Control_c, 0, 64, 40
2, 24426, Control_c, 0, 64, 56
2, 24426, Note_on_c, 0, 64, 0
2, 24444, Control_c, 0, 64, 66
2, 24465, Control_c, 0, 64, 74
2, 24483, Control_c, 0, 64, 83
2, 24503, Note_on_c, 0, 82, 0
2, 24504, Control_c, 0, 64, 93
2, 24521, Control_c, 0, 64, 100
2, 24541, Control_c, 0, 64, 105
2, 24557, Control_c, 0, 64, 109
2, 24585, Note_on_c, 0, 61, 62
2, 24595, Control_c, 0, 64, 113
2, 24784, Control_c, 0, 64, 106
2, 24784, Note_on_c, 0, 76, 78
2, 24802, Control_c, 0, 64, 94
2, 24808, Note_on_c, 0, 67, 56
2, 24813, Note_on_c, 0, 61, 0
2, 24821, Note_on_c, 0, 60, 56
2, 24822, Control_c, 0, 64, 75
2, 24842, Control_c, 0, 64, 50
2, 24860, Control_c, 0, 64, 17
2, 24878, Control_c, 0, 64, 0
2, 24953, Control_c, 0, 64, 11
2, 24972, Control_c, 0, 64, 25
2, 24972, Note_on_c, 0, 67, 0
2, 24991, Control_c, 0, 64, 35
2, 25003, Note_on_c, 0, 58, 62
2, 25010, Control_c, 0, 64, 42
2, 25024, Note_on_c, 0, 60, 0
2, 25029, Control_c, 0, 64, 46
2, 25048, Control_c, 0, 64, 50
2, 25069, Control_c, 0, 64, 53
2, 25085, Note_on_c, 0, 76, 0
2, 25087, Control_c, 0, 64, 56
2, 25105, Control_c, 0, 64, 59
2, 25123, Control_c, 0, 64, 60
2, 25144, Control_c, 0, 64, 61
2, 25198, Control_c, 0, 64, 60
2, 25219, Control_c, 0, 64, 56
2, 25225, Note_on_c, 0, 77, 74
2, 25237, Control_c, 0, 64, 51
2, 25254, Note_on_c, 0, 60, 40
2, 25255, Note_on_c, 0, 56, 49
2, 25257, Control_c, 0, 64, 42
2, 25268, Note_on_c, 0, 58, 0
2, 25274, Control_c, 0, 64, 28
2, 25295, Control_c, 0, 64, 0
2, 25459, Note_on_c, 0, 55, 61
2, 25476, Note_on_c, 0, 56, 0
2, 25584, Note_on_c, 0, 60, 0
2, 25664, Note_on_c, 0, 72, 78
2, 25678, Note_on_c, 0, 53, 60
2, 25718, Note_on_c, 0, 55, 0
2, 25868, Note_on_c, 0, 72, 0
2, 25870, Note_on_c, 0, 53, 0
2, 25886, Note_on_c, 0, 56, 55
2, 26120, Note_on_c, 0, 70, 67
2, 26121, Note_on_c, 0, 49, 71
2, 26175, Note_on_c, 0, 56, 0
2, 26343, Note_on_c, 0, 49, 0
2, 26352, Note_on_c, 0, 72, 73
2, 26369, Note_on_c, 0, 70, 0
2, 26561, Note_on_c, 0, 73, 68
2, 26575, Note_on_c, 0, 46, 76
2, 26579, Note_on_c, 0, 72, 0
2, 26763, Note_on_c, 0, 70, 72
2, 26768, Note_on_c, 0, 73, 0
2, 26788, Note_on_c, 0, 46, 0
2, 26996, Note_on_c, 0, 76, 71
2, 27007, Note_on_c, 0, 48, 70
2, 27029, Note_on_c, 0, 67, 60
2, 27039, Note_on_c, 0, 70, 0
2, 27191, Note_on_c, 0, 77, 0
2, 27212, Note_on_c, 0, 67, 0
2, 27213, Note_on_c, 0, 73, 77
2, 27216, Note_on_c, 0, 48, 0
2, 27426, Note_on_c, 0, 36, 78
2, 27449, Note_on_c, 0, 72, 71
2, 27487, Note_on_c, 0, 73, 0
2, 27593, Note_on_c, 0, 36, 0
2, 27623, Note_on_c, 0, 72, 0
2, 27653, Note_on_c, 0, 70, 73
2, 27910, Note_on_c, 0, 77, 68
2, 27918, Note_on_c, 0, 68, 58
2, 27925, Note_on_c, 0, 41, 61
2, 27964, Note_on_c, 0, 70, 0
2, 27995, Note_on_c, 0, 76, 0
2, 28144, Note_on_c, 0, 41, 0
2, 28150, Note_on_c, 0, 48, 50
2, 28372, Note_on_c, 0, 72, 59
2, 28376, Note_on_c, 0, 50, 54
2, 28379, Note_on_c, 0, 48, 0
2, 28402, Note_on_c, 0, 68, 0
2, 28449, Note_on_c, 0, 77, 0
2, 28587, Note_on_c, 0, 50, 0
2, 28587, Note_on_c, 0, 52, 52
2, 28802, Note_on_c, 0, 52, 0
2, 28807, Note_on_c, 0, 68, 54
2, 28816, Note_on_c, 0, 53, 54
2, 28833, Note_on_c, 0, 72, 0
2, 28998, Note_on_c, 0, 75, 56
2, 29005, Note_on_c, 0, 53, 0
2, 29005, Note_on_c, 0, 55, 55
2, 29053, Note_on_c, 0, 68, 0
2, 29226, Note_on_c, 0, 75, 0
2, 29228, Note_on_c, 0, 55, 0
2, 29233, Note_on_c, 0, 74, 67
2, 29238, Note_on_c, 0, 59, 70
2, 29242, Note_on_c, 0, 56, 52
2, 29430, Note_on_c, 0, 75, 66
2, 29431, Note_on_c, 0, 59, 0
2, 29434, Note_on_c, 0, 53, 61
2, 29436, Note_on_c, 0, 74, 0
2, 29448, Note_on_c, 0, 56, 0
2, 29673, Note_on_c, 0, 53, 0
2, 29678, Note_on_c, 0, 77, 63
2, 29687, Note_on_c, 0, 50, 48
2, 29700, Note_on_c, 0, 58, 54
2, 29715, Note_on_c, 0, 75, 0
2, 29775, Control_c, 0, 64, 15
2, 29793, Control_c, 0, 64, 33
2, 29812, Control_c, 0, 64, 48
2, 29833, Control_c, 0, 64, 59
2, 29851, Control_c, 0, 64, 66
2, 29859, Note_on_c, 0, 77, 0
2, 29870, Control_c, 0, 64, 73
2, 29891, Control_c, 0, 64, 80
2, 29908, Control_c, 0, 64, 88
2, 29920, Note_on_c, 0, 60, 53
2, 29928, Control_c, 0, 64, 92
2, 29966, Control_c, 0, 64, 97
2, 30003, Control_c, 0, 64, 101
2, 30075, Note_on_c, 0, 58, 0
2, 30106, Note_on_c, 0, 50, 0
2, 30110, Note_on_c, 0, 70, 66
2, 30119, Note_on_c, 0, 62, 56
2, 30137, Control_c, 0, 64, 89
2, 30168, Control_c, 0, 64, 76
2, 30168, Note_on_c, 0, 60, 0
2, 30188, Control_c, 0, 64, 57
2, 30207, Control_c, 0, 64, 32
2, 30227, Control_c, 0, 64, 12
2, 30283, Control_c, 0, 64, 8
2, 30342, Note_on_c, 0, 62, 0
2, 30343, Note_on_c, 0, 63, 66
2, 30368, Note_on_c, 0, 70, 0
2, 30571, Note_on_c, 0, 68, 69
2, 30575, Note_on_c, 0, 65, 66
2, 30606, Note_on_c, 0, 63, 0
2, 30755, Note_on_c, 0, 65, 0
2, 30764, Note_on_c, 0, 68, 0
2, 30773, Note_on_c, 0, 66, 67
2, 30973, Note_on_c, 0, 66, 0
2, 30998, Note_on_c, 0, 77, 67
2, 31008, Note_on_c, 0, 68, 55
2, 31033, Note_on_c, 0, 46, 56
2, 31057, Control_c, 0, 64, 12
2, 31148, Control_c, 0, 64, 19
2, 31166, Control_c, 0, 64, 28
2, 31187, Control_c, 0, 64, 38
2, 31203, Control_c, 0, 64, 45
2, 31203, Note_on_c, 0, 68, 0
2, 31215, Note_on_c, 0, 65, 63
2, 31223, Control_c, 0, 64, 50
2, 31242, Control_c, 0, 64, 54
2, 31261, Control_c, 0, 64, 58
2, 31276, Note_on_c, 0, 65, 0
2, 31279, Control_c, 0, 64, 61
2, 31300, Control_c, 0, 64, 64
2, 31319, Control_c, 0, 64, 66
2, 31341, Control_c, 0, 64, 68
2, 31360, Control_c, 0, 64, 70
2, 31377, Control_c, 0, 64, 72
2, 31415, Control_c, 0, 64, 75
2, 31459, Note_on_c, 0, 46, 0
2, 31470, Note_on_c, 0, 39, 46
2, 31475, Note_on_c, 0, 66, 58
2, 31511, Control_c, 0, 64, 72
2, 31529, Control_c, 0, 64, 68
2, 31549, Control_c, 0, 64, 62
2, 31567, Control_c, 0, 64, 54
2, 31587, Control_c, 0, 64, 44
2, 31604, Control_c, 0, 64, 35
2, 31625, Control_c, 0, 64, 27
2, 31642, Control_c, 0, 64, 22
2, 31674, Note_on_c, 0, 46, 48
2, 31678, Control_c, 0, 64, 17
2, 31793, Note_on_c, 0, 39, 0
2, 31887, Note_on_c, 0, 48, 57
2, 31888, Note_on_c, 0, 75, 67
2, 31928, Note_on_c, 0, 77, 0
2, 31929, Note_on_c, 0, 46, 0
2, 32107, Note_on_c, 0, 77, 66
2, 32122, Note_on_c, 0, 50, 53
2, 32124, Note_on_c, 0, 48, 0
2, 32163, Note_on_c, 0, 75, 0
2, 32332, Note_on_c, 0, 50, 0
2, 32332, Note_on_c, 0, 51, 59
2, 32332, Note_on_c, 0, 78, 66
2, 32380, Note_on_c, 0, 77, 0
2, 32537, Note_on_c, 0, 53, 61
2, 32540, Note_on_c, 0, 78, 0
2, 32551, Note_on_c, 0, 51, 0
2, 32552, Note_on_c, 0, 66, 0
2, 32747, Note_on_c, 0, 70, 69
2, 32749, Note_on_c, 0, 66, 52
2, 32769, Note_on_c, 0, 54, 50
2, 32783, Note_on_c, 0, 53, 0
2, 32960, Note_on_c, 0, 70, 0
2, 32989, Note_on_c, 0, 51, 58
2, 33055, Note_on_c, 0, 54, 0
2, 33211, Note_on_c, 0, 68, 67
2, 33236, Note_on_c, 0, 48, 56
2, 33274, Note_on_c, 0, 51, 0
2, 33381, Control_c, 0, 64, 22
2, 33382, Note_on_c, 0, 48, 0
2, 33417, Note_on_c, 0, 70, 70
2, 33465, Note_on_c, 0, 68, 0
2, 33626, Note_on_c, 0, 51, 60
2, 33628, Note_on_c, 0, 57, 62
2, 33640, Note_on_c, 0, 72, 69
2, 33648, Note_on_c, 0, 70, 0
2, 33749, Note_on_c, 0, 57, 0
2, 33817, Note_on_c, 0, 51, 0
2, 33821, Note_on_c, 0, 72, 0
2, 33834, Note_on_c, 0, 73, 72
2, 33910, Control_c, 0, 64, 26
2, 34071, Note_on_c, 0, 48, 62
2, 34073, Note_on_c, 0, 56, 60
2, 34078, Note_on_c, 0, 75, 74
2, 34128, Note_on_c, 0, 66, 0
2, 34199, Note_on_c, 0, 56, 0
2, 34209, Note_on_c, 0, 73, 0
2, 34269, Note_on_c, 0, 48, 0
2, 34278, Note_on_c, 0, 77, 74
2, 34337, Note_on_c, 0, 75, 0
2, 34494, Note_on_c, 0, 44, 60
2, 34495, Note_on_c, 0, 78, 67
2, 34508, Note_on_c, 0, 72, 64
2, 34543, Note_on_c, 0, 77, 0
2, 34604, Note_on_c, 0, 44, 0
2, 34693, Note_on_c, 0, 75, 70
2, 34728, Note_on_c, 0, 72, 0
2, 34822, Note_on_c, 0, 78, 0
2, 34854, Control_c, 0, 64, 21
2, 34871, Control_c, 0, 64, 13
2, 34892, Control_c, 0, 64, 0
2, 34926, Note_on_c, 0, 37, 55
2, 34933, Note_on_c, 0, 73, 56
2, 34935, Note_on_c, 0, 77, 65
2, 34989, Note_on_c, 0, 75, 0
2, 35037, Control_c, 0, 64, 23
2, 35058, Control_c, 0, 64, 45
2, 35076, Control_c, 0, 64, 61
2, 35082, Note_on_c, 0, 77, 0
2, 35094, Control_c, 0, 64, 69
2, 35106, Note_on_c, 0, 73, 0
2, 35114, Control_c, 0, 64, 75
2, 35133, Control_c, 0, 64, 82
2, 35154, Control_c, 0, 64, 91
2, 35171, Control_c, 0, 64, 100
2, 35176, Note_on_c, 0, 44, 52
2, 35190, Control_c, 0, 64, 105
2, 35227, Control_c, 0, 64, 111
2, 35265, Control_c, 0, 64, 115
2, 35374, Note_on_c, 0, 66, 68
2, 35379, Note_on_c, 0, 46, 56
2, 35385, Note_on_c, 0, 63, 63
2, 35394, Note_on_c, 0, 37, 0
2, 35438, Note_on_c, 0, 44, 0
2, 35454, Control_c, 0, 64, 107
2, 35472, Control_c, 0, 64, 97
2, 35492, Control_c, 0, 64, 83
2, 35509, Control_c, 0, 64, 65
2, 35529, Control_c, 0, 64, 46
2, 35547, Control_c, 0, 64, 33
2, 35589, Note_on_c, 0, 66, 0
2, 35592, Note_on_c, 0, 48, 61
2, 35609, Note_on_c, 0, 46, 0
2, 35654, Note_on_c, 0, 63, 0
2, 35810, Note_on_c, 0, 65, 68
2, 35811, Control_c, 0, 64, 29
2, 35826, Note_on_c, 0, 61, 66
2, 35828, Note_on_c, 0, 49, 59
2, 35843, Note_on_c, 0, 48, 0
2, 35999, Note_on_c, 0, 65, 0
2, 36041, Note_on_c, 0, 51, 63
2, 36099, Note_on_c, 0, 49, 0
2, 36255, Note_on_c, 0, 73, 73
2, 36280, Note_on_c, 0, 53, 57
2, 36287, Note_on_c, 0, 51, 0
2, 36365, Note_on_c, 0, 61, 0
2, 36460, Note_on_c, 0, 73, 0
2, 36469, Note_on_c, 0, 49, 63
2, 36519, Note_on_c, 0, 53, 0
2, 36703, Note_on_c, 0, 70, 76
2, 36712, Note_on_c, 0, 54, 57
2, 36769, Note_on_c, 0, 49, 0
2, 36941, Note_on_c, 0, 56, 58
2, 36963, Note_on_c, 0, 54, 0
2, 37150, Note_on_c, 0, 61, 70
2, 37159, Note_on_c, 0, 54, 52
2, 37200, Note_on_c, 0, 56, 0
2, 37300, Note_on_c, 0, 61, 0
2, 37362, Note_on_c, 0, 53, 60
2, 37373, Note_on_c, 0, 54, 0
2, 37583, Note_on_c, 0, 66, 73
2, 37588, Note_on_c, 0, 51, 60
2, 37620, Note_on_c, 0, 53, 0
2, 37803, Note_on_c, 0, 49, 60
2, 37900, Note_on_c, 0, 51, 0
2, 38036, Note_on_c, 0, 75, 75
2, 38046, Note_on_c, 0, 48, 59
2, 38053, Note_on_c, 0, 49, 0
2, 38214, Note_on_c, 0, 51, 57
2, 38223, Note_on_c, 0, 48, 0
2, 38240, Note_on_c, 0, 73, 72
2, 38282, Note_on_c, 0, 75, 0
2, 38463, Note_on_c, 0, 45, 57
2, 38464, Note_on_c, 0, 72, 72
2, 38508, Note_on_c, 0, 51, 0
2, 38526, Note_on_c, 0, 70, 0
2, 38526, Note_on_c, 0, 73, 0
2, 38670, Note_on_c, 0, 41, 63
2, 38675, Note_on_c, 0, 45, 0
2, 38888, Note_on_c, 0, 65, 65
2, 38914, Note_on_c, 0, 43, 59
2, 38920, Note_on_c, 0, 66, 0
2, 38970, Note_on_c, 0, 41, 0
2, 39088, Note_on_c, 0, 65, 0
2, 39091, Note_on_c, 0, 63, 71
2, 39112, Note_on_c, 0, 45, 60
2, 39154, Note_on_c, 0, 43, 0
2, 39324, Note_on_c, 0, 61, 65
2, 39335, Note_on_c, 0, 46, 58
2, 39343, Note_on_c, 0, 45, 0
2, 39373, Note_on_c, 0, 63, 0
2, 39519, Note_on_c, 0, 46, 0
2, 39529, Note_on_c, 0, 48, 60
2, 39772, Note_on_c, 0, 70, 74
2, 39851, Note_on_c, 0, 72, 0
2, 39854, Control_c, 0, 64, 36
2, 39875, Control_c, 0, 64, 47
2, 39894, Control_c, 0, 64, 55
2, 39914, Control_c, 0, 64, 61
2, 39933, Control_c, 0, 64, 66
2, 39942, Note_on_c, 0, 48, 0
2, 39950, Control_c, 0, 64, 71
2, 39970, Control_c, 0, 64, 77
2, 39990, Control_c, 0, 64, 85
2, 40009, Control_c, 0, 64, 92
2, 40009, Note_on_c, 0, 46, 19
2, 40027, Control_c, 0, 64, 97
2, 40066, Control_c, 0, 64, 102
2, 40067, Note_on_c, 0, 46, 0
2, 40102, Control_c, 0, 64, 106
2, 40167, Note_on_c, 0, 61, 0
2, 40216, Control_c, 0, 64, 100
2, 40235, Control_c, 0, 64, 91
2, 40253, Control_c, 0, 64, 78
2, 40254, Note_on_c, 0, 60, 64
2, 40256, Note_on_c, 0, 51, 66
2, 40272, Control_c, 0, 64, 61
2, 40291, Control_c, 0, 64, 43
2, 40311, Control_c, 0, 64, 33
2, 40366, Control_c, 0, 64, 29
2, 40455, Note_on_c, 0, 51, 0
2, 40467, Note_on_c, 0, 72, 72
2, 40483, Note_on_c, 0, 70, 0
2, 40641, Note_on_c, 0, 60, 0
2, 40665, Note_on_c, 0, 48, 66
2, 40691, Note_on_c, 0, 73, 73
2, 40733, Note_on_c, 0, 72, 0
2, 40854, Note_on_c, 0, 48, 0
2, 40915, Note_on_c, 0, 75, 74
2, 40977, Note_on_c, 0, 73, 0
2, 41119, Note_on_c, 0, 53, 68
2, 41122, Note_on_c, 0, 69, 74
2, 41185, Note_on_c, 0, 75, 0
2, 41319, Note_on_c, 0, 78, 77
2, 41351, Note_on_c, 0, 53, 0
2, 41478, Control_c, 0, 64, 25
2, 41498, Control_c, 0, 64, 17
2, 41514, Control_c, 0, 64, 0
2, 41546, Note_on_c, 0, 41, 73
2, 41548, Note_on_c, 0, 77, 67
2, 41680, Control_c, 0, 64, 33
2, 41700, Control_c, 0, 64, 53
2, 41712, Note_on_c, 0, 41, 0
2, 41719, Control_c, 0, 64, 64
2, 41739, Control_c, 0, 64, 68
2, 41743, Note_on_c, 0, 69, 0
2, 41772, Note_on_c, 0, 75, 74
2, 41777, Control_c, 0, 64, 70
2, 41805, Note_on_c, 0, 78, 0
2, 41814, Control_c, 0, 64, 72
2, 41821, Note_on_c, 0, 77, 0
2, 41966, Control_c, 0, 64, 69
2, 41981, Control_c, 0, 64, 64
2, 41992, Note_on_c, 0, 73, 65
2, 41999, Note_on_c, 0, 46, 59
2, 42001, Control_c, 0, 64, 58
2, 42018, Control_c, 0, 64, 49
2, 42033, Note_on_c, 0, 75, 0
2, 42035, Control_c, 0, 64, 41
2, 42056, Control_c, 0, 64, 34
2, 42076, Control_c, 0, 64, 27
2, 42094, Control_c, 0, 64, 23
2, 42183, Note_on_c, 0, 77, 71
2, 42193, Note_on_c, 0, 58, 68
2, 42214, Note_on_c, 0, 46, 0
2, 42242, Note_on_c, 0, 73, 0
2, 42292, Note_on_c, 0, 58, 0
2, 42383, Note_on_c, 0, 60, 77
2, 42394, Note_on_c, 0, 75, 72
2, 42504, Note_on_c, 0, 77, 0
2, 42581, Note_on_c, 0, 61, 76
2, 42597, Note_on_c, 0, 73, 72
2, 42657, Note_on_c, 0, 60, 0
2, 42714, Note_on_c, 0, 75, 0
2, 42813, Note_on_c, 0, 63, 75
2, 42823, Note_on_c, 0, 72, 72
2, 42843, Note_on_c, 0, 73, 0
2, 42861, Note_on_c, 0, 61, 0
2, 43010, Note_on_c, 0, 65, 71
2, 43016, Note_on_c, 0, 70, 69
2, 43049, Note_on_c, 0, 63, 0
2, 43064, Note_on_c, 0, 72, 0
2, 43212, Note_on_c, 0, 60, 76
2, 43233, Note_on_c, 0, 69, 74
2, 43257, Note_on_c, 0, 65, 0
2, 43273, Note_on_c, 0, 70, 0
2, 43280, Note_on_c, 0, 66, 47
2, 43374, Control_c, 0, 64, 27
2, 43414, Control_c, 0, 64, 33
2, 43429, Note_on_c, 0, 63, 70
2, 43435, Note_on_c, 0, 72, 70
2, 43442, Note_on_c, 0, 60, 0
2, 43447, Control_c, 0, 64, 41
2, 43467, Note_on_c, 0, 66, 0
2, 43469, Control_c, 0, 64, 48
2, 43470, Note_on_c, 0, 69, 0
2, 43487, Control_c, 0, 64, 54
2, 43506, Control_c, 0, 64, 56
2, 43545, Control_c, 0, 64, 60
2, 43563, Control_c, 0, 64, 62
2, 43583, Control_c, 0, 64, 64
2, 43616, Control_c, 0, 64, 65
2, 43654, Control_c, 0, 64, 66
2, 43688, Note_on_c, 0, 61, 72
2, 43689, Control_c, 0, 64, 64
2, 43706, Note_on_c, 0, 70, 69
2, 43709, Control_c, 0, 64, 61
2, 43722, Note_on_c, 0, 65, 60
2, 43728, Control_c, 0, 64, 57
2, 43749, Control_c, 0, 64, 52
2, 43755, Note_on_c, 0, 63, 0
2, 43765, Control_c, 0, 64, 45
2, 43778, Note_on_c, 0, 72, 0
2, 43785, Control_c, 0, 64, 40
2, 43803, Control_c, 0, 64, 35
2, 43880, Control_c, 0, 64, 31
2, 43905, Note_on_c, 0, 60, 72
2, 43919, Note_on_c, 0, 61, 0
2, 44103, Note_on_c, 0, 73, 72
2, 44118, Note_on_c, 0, 58, 74
2, 44190, Note_on_c, 0, 60, 0
2, 44302, Note_on_c, 0, 57, 73
2, 44313, Note_on_c, 0, 72, 74
2, 44350, Note_on_c, 0, 73, 0
2, 44352, Note_on_c, 0, 58, 0
2, 44436, Note_on_c, 0, 70, 0
2, 44504, Control_c, 0, 64, 25
2, 44522, Control_c, 0, 64, 19
2, 44564, Note_on_c, 0, 73, 73
2, 44574, Note_on_c, 0, 58, 77
2, 44574, Note_on_c, 0, 72, 0
2, 44576, Control_c, 0, 64, 0
2, 44599, Note_on_c, 0, 57, 0
2, 44670, Control_c, 0, 64, 19
2, 44688, Control_c, 0, 64, 38
2, 44707, Control_c, 0, 64, 53
2, 44725, Control_c, 0, 64, 61
2, 44744, Control_c, 0, 64, 64
2, 44763, Control_c, 0, 64, 67
2, 44782, Control_c, 0, 64, 72
2, 44800, Control_c, 0, 64, 80
2, 44804, Note_on_c, 0, 72, 57
2, 44822, Control_c, 0, 64, 89
2, 44835, Note_on_c, 0, 73, 0
2, 44839, Control_c, 0, 64, 94
2, 44876, Control_c, 0, 64, 100
2, 44897, Control_c, 0, 64, 104
2, 44910, Note_on_c, 0, 72, 0
2, 44914, Control_c, 0, 64, 108
2, 45010, Note_on_c, 0, 73, 76
2, 45015, Note_on_c, 0, 53, 67
2, 45026, Note_on_c, 0, 70, 67
2, 45030, Control_c, 0, 64, 97
2, 45046, Note_on_c, 0, 65, 0
2, 45048, Control_c, 0, 64, 81
2, 45067, Control_c, 0, 64, 59
2, 45086, Control_c, 0, 64, 27
2, 45099, Note_on_c, 0, 58, 0
2, 45106, Control_c, 0, 64, 0
2, 45142, Control_c, 0, 64, 15
2, 45160, Control_c, 0, 64, 37
2, 45181, Control_c, 0, 64, 56
2, 45197, Control_c, 0, 64, 64
2, 45217, Control_c, 0, 64, 67
2, 45228, Note_on_c, 0, 69, 70
2, 45255, Control_c, 0, 64, 68
2, 45257, Note_on_c, 0, 70, 0
2, 45274, Control_c, 0, 64, 70
2, 45277, Note_on_c, 0, 73, 0
2, 45295, Control_c, 0, 64, 75
2, 45312, Control_c, 0, 64, 79
2, 45332, Control_c, 0, 64, 83
2, 45348, Control_c, 0, 64, 85
2, 45450, Note_on_c, 0, 73, 71
2, 45464, Note_on_c, 0, 70, 64
2, 45469, Note_on_c, 0, 54, 64
2, 45482, Control_c, 0, 64, 78
2, 45501, Control_c, 0, 64, 66
2, 45517, Note_on_c, 0, 69, 0
2, 45535, Control_c, 0, 64, 50
2, 45538, Note_on_c, 0, 53, 0
2, 45554, Control_c, 0, 64, 30
2, 45574, Control_c, 0, 64, 8
2, 45593, Control_c, 0, 64, 0
2, 45899, Note_on_c, 0, 72, 72
2, 45910, Note_on_c, 0, 51, 55
2, 45937, Note_on_c, 0, 73, 0
2, 46064, Note_on_c, 0, 54, 0
2, 46083, Note_on_c, 0, 73, 73
2, 46152, Note_on_c, 0, 72, 0
2, 46337, Note_on_c, 0, 75, 74
2, 46339, Note_on_c, 0, 48, 62
2, 46388, Note_on_c, 0, 51, 0
2, 46402, Control_c, 0, 64, 20
2, 46422, Control_c, 0, 64, 34
2, 46442, Control_c, 0, 64, 44
2, 46460, Control_c, 0, 64, 52
2, 46488, Note_on_c, 0, 73, 0
2, 46493, Control_c, 0, 64, 57
2, 46514, Control_c, 0, 64, 62
2, 46530, Control_c, 0, 64, 66
2, 46549, Control_c, 0, 64, 70
2, 46565, Note_on_c, 0, 69, 64
2, 46567, Control_c, 0, 64, 73
2, 46573, Note_on_c, 0, 70, 0
2, 46585, Control_c, 0, 64, 75
2, 46602, Note_on_c, 0, 75, 0
2, 46606, Control_c, 0, 64, 78
2, 46624, Control_c, 0, 64, 80
2, 46662, Control_c, 0, 64, 83
2, 46681, Control_c, 0, 64, 85
2, 46699, Control_c, 0, 64, 87
2, 46775, Control_c, 0, 64, 84
2, 46781, Note_on_c, 0, 75, 68
2, 46787, Note_on_c, 0, 67, 63
2, 46789, Note_on_c, 0, 53, 60
2, 46793, Control_c, 0, 64, 79
2, 46814, Control_c, 0, 64, 72
2, 46828, Note_on_c, 0, 69, 0
2, 46832, Control_c, 0, 64, 63
2, 46852, Control_c, 0, 64, 54
2, 46866, Note_on_c, 0, 48, 0
2, 46869, Control_c, 0, 64, 48
2, 46890, Control_c, 0, 64, 45
2, 46939, Note_on_c, 0, 67, 0
2, 46946, Control_c, 0, 64, 43
2, 46986, Note_on_c, 0, 69, 51
2, 47008, Note_on_c, 0, 75, 0
2, 47232, Note_on_c, 0, 75, 62
2, 47244, Note_on_c, 0, 70, 56
2, 47245, Note_on_c, 0, 49, 60
2, 47266, Control_c, 0, 64, 40
2, 47277, Note_on_c, 0, 69, 0
2, 47305, Control_c, 0, 64, 33
2, 47326, Note_on_c, 0, 53, 0
2, 47381, Control_c, 0, 64, 28
2, 47492, Control_c, 0, 64, 23
2, 47528, Control_c, 0, 64, 16
2, 47547, Control_c, 0, 64, 11
2, 47567, Control_c, 0, 64, 0
2, 47689, Note_on_c, 0, 73, 65
2, 47692, Note_on_c, 0, 46, 56
2, 47699, Note_on_c, 0, 75, 0
2, 47738, Control_c, 0, 64, 17
2, 47755, Control_c, 0, 64, 33
2, 47758, Note_on_c, 0, 49, 0
2, 47775, Control_c, 0, 64, 52
2, 47792, Control_c, 0, 64, 66
2, 47792, Note_on_c, 0, 70, 0
2, 47806, Note_on_c, 0, 46, 0
2, 47812, Control_c, 0, 64, 74
2, 47830, Control_c, 0, 64, 80
2, 47850, Control_c, 0, 64, 83
2, 47868, Control_c, 0, 64, 86
2, 47897, Note_on_c, 0, 75, 58
2, 47905, Control_c, 0, 64, 91
2, 47953, Note_on_c, 0, 73, 0
2, 48105, Note_on_c, 0, 75, 0
2, 48116, Control_c, 0, 64, 87
2, 48126, Note_on_c, 0, 77, 61
2, 48135, Control_c, 0, 64, 81
2, 48150, Control_c, 0, 64, 71
2, 48151, Note_on_c, 0, 58, 53
2, 48157, Note_on_c, 0, 61, 49
2, 48171, Control_c, 0, 64, 59
2, 48187, Control_c, 0, 64, 47
2, 48207, Control_c, 0, 64, 41
2, 48242, Control_c, 0, 64, 36
2, 48313, Note_on_c, 0, 58, 0
2, 48332, Note_on_c, 0, 80, 64
2, 48396, Note_on_c, 0, 77, 0
2, 48561, Note_on_c, 0, 63, 58
2, 48562, Note_on_c, 0, 61, 0
2, 48563, Note_on_c, 0, 78, 62
2, 48578, Note_on_c, 0, 58, 57
2, 48654, Note_on_c, 0, 80, 0
2, 48745, Note_on_c, 0, 58, 0
2, 48772, Note_on_c, 0, 77, 65
2, 48780, Note_on_c, 0, 78, 0
2, 48781, Note_on_c, 0, 65, 56
2, 48788, Note_on_c, 0, 63, 0
2, 48988, Note_on_c, 0, 75, 68
2, 49001, Note_on_c, 0, 65, 0
2, 49002, Note_on_c, 0, 58, 62
2, 49004, Note_on_c, 0, 77, 0
2, 49027, Note_on_c, 0, 66, 39
2, 49092, Control_c, 0, 64, 32
2, 49194, Note_on_c, 0, 73, 69
2, 49241, Note_on_c, 0, 75, 0
2, 49408, Control_c, 0, 64, 28
2, 49427, Note_on_c, 0, 72, 65
2, 49434, Note_on_c, 0, 56, 61
2, 49435, Note_on_c, 0, 73, 0
2, 49449, Note_on_c, 0, 58, 0
2, 49623, Note_on_c, 0, 75, 66
2, 49630, Note_on_c, 0, 58, 62
2, 49690, Note_on_c, 0, 72, 0
2, 49695, Note_on_c, 0, 56, 0
2, 49854, Note_on_c, 0, 60, 68
2, 49856, Note_on_c, 0, 68, 59
2, 49868, Note_on_c, 0, 75, 0
2, 49913, Note_on_c, 0, 58, 0
2, 49932, Note_on_c, 0, 66, 0
2, 50052, Note_on_c, 0, 65, 62
2, 50060, Note_on_c, 0, 60, 0
2, 50271, Note_on_c, 0, 60, 68
2, 50283, Note_on_c, 0, 63, 66
2, 50283, Note_on_c, 0, 65, 0
2, 50492, Note_on_c, 0, 66, 66
2, 50499, Note_on_c, 0, 60, 0
2, 50516, Note_on_c, 0, 63, 0
2, 50726, Note_on_c, 0, 73, 68
2, 50732, Note_on_c, 0, 60, 60
2, 50732, Note_on_c, 0, 65, 54
2, 50744, Note_on_c, 0, 66, 0
2, 50774, Note_on_c, 0, 68, 0
2, 50891, Note_on_c, 0, 65, 0
2, 50931, Note_on_c, 0, 63, 64
2, 51139, Note_on_c, 0, 58, 57
2, 51150, Note_on_c, 0, 61, 66
2, 51157, Note_on_c, 0, 63, 0
2, 51178, Note_on_c, 0, 60, 0
2, 51353, Note_on_c, 0, 63, 62
2, 51359, Note_on_c, 0, 61, 0
2, 51360, Note_on_c, 0, 60, 66
2, 51371, Note_on_c, 0, 58, 0
2, 51582, Note_on_c, 0, 61, 66
2, 51586, Note_on_c, 0, 65, 67
2, 51587, Note_on_c, 0, 63, 0
2, 51635, Note_on_c, 0, 60, 0
2, 51795, Note_on_c, 0, 66, 69
2, 51810, Note_on_c, 0, 61, 0
2, 51882, Note_on_c, 0, 65, 0
2, 52010, Note_on_c, 0, 61, 66
2, 52017, Note_on_c, 0, 68, 71
2, 52043, Note_on_c, 0, 66, 0
2, 52194, Note_on_c, 0, 61, 0
2, 52247, Note_on_c, 0, 65, 73
2, 52271, Note_on_c, 0, 68, 0
2, 52475, Note_on_c, 0, 61, 65
2, 52480, Note_on_c, 0, 66, 67
2, 52505, Note_on_c, 0, 65, 0
2, 52674, Note_on_c, 0, 70, 70
2, 52736, Note_on_c, 0, 73, 0
2, 52885, Note_on_c, 0, 60, 60
2, 52888, Note_on_c, 0, 72, 70
2, 52895, Note_on_c, 0, 70, 0
2, 53017, Note_on_c, 0, 61, 0
2, 53079, Note_on_c, 0, 58, 65
2, 53083, Note_on_c, 0, 73, 72
2, 53087, Note_on_c, 0, 60, 0
2, 53196, Note_on_c, 0, 72, 0
2, 53317, Note_on_c, 0, 75, 77
2, 53319, Note_on_c, 0, 60, 68
2, 53436, Note_on_c, 0, 73, 0
2, 53438, Note_on_c, 0, 58, 0
2, 53452, Note_on_c, 0, 66, 0
2, 53522, Note_on_c, 0, 77, 74
2, 53540, Note_on_c, 0, 60, 0
2, 53608, Note_on_c, 0, 75, 0
2, 53746, Note_on_c, 0, 63, 61
2, 53753, Note_on_c, 0, 61, 64
2, 53757, Note_on_c, 0, 78, 73
2, 53792, Note_on_c, 0, 77, 0
2, 53797, Control_c, 0, 64, 32
2, 53907, Note_on_c, 0, 63, 0
2, 53933, Note_on_c, 0, 61, 0
2, 53945, Note_on_c, 0, 75, 71
2, 54001, Note_on_c, 0, 78, 0
2, 54209, Note_on_c, 0, 77, 69
2, 54210, Note_on_c, 0, 60, 53
2, 54211, Note_on_c, 0, 56, 45
2, 54262, Note_on_c, 0, 75, 0
2, 54426, Note_on_c, 0, 66, 59
2, 54431, Note_on_c, 0, 74, 68
2, 54565, Note_on_c, 0, 66, 0
2, 54609, Note_on_c, 0, 73, 80
2, 54619, Note_on_c, 0, 65, 64
2, 54624, Note_on_c, 0, 74, 0
2, 54633, Note_on_c, 0, 60, 0
2, 54648, Note_on_c, 0, 77, 0
2, 54732, Note_on_c, 0, 65, 0
2, 54733, Control_c, 0, 64, 38
2, 54754, Control_c, 0, 64, 45
2, 54773, Control_c, 0, 64, 51
2, 54790, Control_c, 0, 64, 55
2, 54808, Control_c, 0, 64, 59
2, 54810, Note_on_c, 0, 63, 66
2, 54817, Note_on_c, 0, 72, 73
2, 54821, Note_on_c, 0, 73, 0
2, 54829, Control_c, 0, 64, 63
2, 54848, Control_c, 0, 64, 68
2, 54868, Control_c, 0, 64, 74
2, 54886, Control_c, 0, 64, 82
2, 54906, Control_c, 0, 64, 90
2, 54911, Note_on_c, 0, 72, 0
2, 54925, Control_c, 0, 64, 96
2, 54935, Note_on_c, 0, 63, 0
2, 54962, Control_c, 0, 64, 101
2, 54985, Note_on_c, 0, 56, 0
2, 55057, Note_on_c, 0, 73, 75
2, 55071, Note_on_c, 0, 65, 58
2, 55166, Control_c, 0, 64, 94
2, 55186, Control_c, 0, 64, 86
2, 55203, Control_c, 0, 64, 73
2, 55222, Control_c, 0, 64, 55
2, 55241, Control_c, 0, 64, 32
2, 55261, Control_c, 0, 64, 17
2, 55309, Note_on_c, 0, 49, 58
2, 55518, Note_on_c, 0, 68, 66
2, 55519, Note_on_c, 0, 51, 61
2, 55564, Note_on_c, 0, 49, 0
2, 55565, Note_on_c, 0, 73, 0
2, 55736, Note_on_c, 0, 51, 0
2, 55745, Note_on_c, 0, 53, 58
2, 55789, Control_c, 0, 64, 21
2, 55945, Note_on_c, 0, 54, 51
2, 55947, Note_on_c, 0, 70, 68
2, 55968, Note_on_c, 0, 68, 0
2, 55980, Note_on_c, 0, 53, 0
2, 56162, Control_c, 0, 64, 25
2, 56175, Note_on_c, 0, 56, 56
2, 56189, Note_on_c, 0, 54, 0
2, 56400, Note_on_c, 0, 63, 52
2, 56409, Note_on_c, 0, 66, 64
2, 56420, Note_on_c, 0, 58, 58
2, 56425, Note_on_c, 0, 56, 0
2, 56432, Note_on_c, 0, 70, 0
2, 56500, Note_on_c, 0, 65, 0
2, 56503, Control_c, 0, 64, 29
2, 56602, Note_on_c, 0, 61, 63
2, 56610, Note_on_c, 0, 54, 56
2, 56612, Note_on_c, 0, 63, 0
2, 56625, Note_on_c, 0, 58, 0
2, 56828, Note_on_c, 0, 63, 64
2, 56836, Note_on_c, 0, 61, 0
2, 56845, Note_on_c, 0, 56, 52
2, 56846, Note_on_c, 0, 60, 58
2, 56855, Note_on_c, 0, 54, 0
2, 56880, Note_on_c, 0, 66, 0
2, 57040, Note_on_c, 0, 60, 0
2, 57049, Note_on_c, 0, 61, 63
2, 57277, Note_on_c, 0, 68, 60
2, 57281, Note_on_c, 0, 58, 54
2, 57304, Note_on_c, 0, 63, 0
2, 57306, Note_on_c, 0, 56, 0
2, 57327, Note_on_c, 0, 61, 0
2, 57478, Note_on_c, 0, 58, 0
2, 57509, Note_on_c, 0, 60, 43
2, 57728, Note_on_c, 0, 65, 56
2, 57729, Note_on_c, 0, 49, 43
2, 57732, Note_on_c, 0, 61, 42
2, 57781, Note_on_c, 0, 60, 0
2, 57790, Note_on_c, 0, 68, 0
2, 57908, Note_on_c, 0, 61, 0
2, 57946, Note_on_c, 0, 53, 55
2, 57955, Note_on_c, 0, 49, 0
2, 58171, Note_on_c, 0, 61, 56
2, 58182, Note_on_c, 0, 54, 51
2, 58183, Note_on_c, 0, 53, 0
2, 58184, Note_on_c, 0, 65, 0
2, 58374, Note_on_c, 0, 54, 0
2, 58400, Note_on_c, 0, 56, 46
2, 58550, Note_on_c, 0, 61, 0
2, 58615, Note_on_c, 0, 73, 65
2, 58617, Note_on_c, 0, 70, 49
2, 58621, Note_on_c, 0, 58, 54
2, 58636, Note_on_c, 0, 56, 0
2, 58814, Note_on_c, 0, 73, 0
2, 58833, Note_on_c, 0, 60, 54
2, 58842, Note_on_c, 0, 70, 0
2, 58845, Note_on_c, 0, 68, 48
2, 58855, Note_on_c, 0, 58, 0
2, 59064, Note_on_c, 0, 73, 69
2, 59077, Note_on_c, 0, 60, 0
2, 59077, Note_on_c, 0, 66, 51
2, 59078, Note_on_c, 0, 68, 0
2, 59094, Note_on_c, 0, 61, 51
2, 59182, Note_on_c, 0, 66, 0
2, 59279, Note_on_c, 0, 65, 52
2, 59281, Note_on_c, 0, 61, 0
2, 59281, Note_on_c, 0, 73, 0
2, 59283, Note_on_c, 0, 58, 51
2, 59495, Note_on_c, 0, 65, 0
2, 59518, Note_on_c, 0, 73, 67
2, 59519, Note_on_c, 0, 63, 53
2, 59528, Note_on_c, 0, 66, 39
2, 59553, Note_on_c, 0, 58, 0
2, 59746, Note_on_c, 0, 63, 0
2, 59746, Note_on_c, 0, 65, 45
2, 59961, Note_on_c, 0, 63, 50
2, 59968, Note_on_c, 0, 66, 0
2, 59978, Note_on_c, 0, 72, 61
2, 59988, Note_on_c, 0, 65, 0
2, 60005, Note_on_c, 0, 73, 0
2, 60172, Note_on_c, 0, 73, 61
2, 60176, Note_on_c, 0, 72, 0
2, 60180, Note_on_c, 0, 61, 55
2, 60191, Note_on_c, 0, 63, 0
2, 60405, Note_on_c, 0, 75, 66
2, 60422, Note_on_c, 0, 68, 46
2, 60427, Note_on_c, 0, 61, 0
2, 60430, Note_on_c, 0, 60, 55
2, 60475, Note_on_c, 0, 73, 0
2, 60610, Note_on_c, 0, 66, 62
2, 60626, Note_on_c, 0, 68, 0
2, 60626, Note_on_c, 0, 75, 0
2, 60830, Note_on_c, 0, 75, 67
2, 60847, Note_on_c, 0, 60, 0
2, 60850, Note_on_c, 0, 65, 49
2, 60856, Note_on_c, 0, 56, 46
2, 60922, Note_on_c, 0, 66, 0
2, 61044, Note_on_c, 0, 75, 0
2, 61051, Note_on_c, 0, 65, 0
2, 61066, Note_on_c, 0, 63, 56
2, 61288, Note_on_c, 0, 75, 72
2, 61299, Note_on_c, 0, 56, 0
2, 61322, Note_on_c, 0, 65, 43
2, 61327, Note_on_c, 0, 63, 0
2, 61328, Note_on_c, 0, 61, 50
2, 61472, Note_on_c, 0, 65, 0
2, 61491, Note_on_c, 0, 63, 57
2, 61724, Note_on_c, 0, 73, 72
2, 61734, Note_on_c, 0, 65, 54
2, 61755, Note_on_c, 0, 63, 0
2, 61794, Note_on_c, 0, 75, 0
2, 61913, Note_on_c, 0, 65, 0
2, 61936, Note_on_c, 0, 75, 78
2, 61943, Note_on_c, 0, 66, 59
2, 62066, Note_on_c, 0, 73, 0
2, 62150, Note_on_c, 0, 66, 0
2, 62162, Note_on_c, 0, 77, 72
2, 62177, Note_on_c, 0, 68, 60
2, 62272, Note_on_c, 0, 75, 0
2, 62333, Note_on_c, 0, 68, 0
2, 62362, Note_on_c, 0, 61, 0
2, 62369, Note_on_c, 0, 70, 66
2, 62406, Note_on_c, 0, 77, 0
2, 62580, Note_on_c, 0, 77, 70
2, 62589, Note_on_c, 0, 72, 65
2, 62591, Note_on_c, 0, 70, 0
2, 62596, Note_on_c, 0, 56, 62
2, 62797, Note_on_c, 0, 72, 0
2, 62806, Note_on_c, 0, 68, 64
2, 62837, Note_on_c, 0, 77, 0
2, 62922, Note_on_c, 0, 68, 0
2, 63041, Note_on_c, 0, 77, 69
2, 63047, Note_on_c, 0, 73, 60
2, 63054, Note_on_c, 0, 58, 58
2, 63086, Note_on_c, 0, 56, 0
2, 63257, Note_on_c, 0, 56, 52
2, 63306, Note_on_c, 0, 58, 0
2, 63457, Note_on_c, 0, 75, 65
2, 63466, Note_on_c, 0, 56, 0
2, 63469, Note_on_c, 0, 55, 56
2, 63506, Note_on_c, 0, 77, 0
2, 63667, Note_on_c, 0, 53, 60
2, 63673, Note_on_c, 0, 77, 68
2, 63680, Note_on_c, 0, 55, 0
2, 63736, Note_on_c, 0, 75, 0
2, 63880, Note_on_c, 0, 77, 0
2, 63887, Note_on_c, 0, 51, 57
2, 63888, Note_on_c, 0, 79, 69
2, 63932, Note_on_c, 0, 53, 0
2, 64082, Note_on_c, 0, 80, 72
2, 64104, Note_on_c, 0, 79, 0
2, 64109, Note_on_c, 0, 49, 48
2, 64174, Note_on_c, 0, 51, 0
2, 64301, Note_on_c, 0, 49, 0
2, 64304, Note_on_c, 0, 82, 65
2, 64322, Note_on_c, 0, 48, 48
2, 64373, Note_on_c, 0, 80, 0
2, 64511, Note_on_c, 0, 79, 66
2, 64526, Note_on_c, 0, 46, 56
2, 64547, Note_on_c, 0, 48, 0
2, 64548, Note_on_c, 0, 82, 0
2, 64761, Note_on_c, 0, 79, 0
2, 64762, Note_on_c, 0, 80, 67
2, 64777, Note_on_c, 0, 44, 50
2, 64789, Note_on_c, 0, 46, 0
2, 64974, Note_on_c, 0, 46, 47
2, 64976, Note_on_c, 0, 44, 0
2, 65173, Note_on_c, 0, 46, 0
2, 65205, Note_on_c, 0, 48, 49
2, 65206, Note_on_c, 0, 73, 0
2, 65207, Note_on_c, 0, 75, 50
2, 65406, Note_on_c, 0, 49, 50
2, 65409, Note_on_c, 0, 48, 0
2, 65411, Note_on_c, 0, 73, 49
2, 65441, Note_on_c, 0, 75, 0
2, 65621, Note_on_c, 0, 51, 47
2, 65630, Note_on_c, 0, 72, 54
2, 65632, Note_on_c, 0, 49, 0
2, 65697, Note_on_c, 0, 73, 0
2, 65776, Note_on_c, 0, 72, 0
2, 65852, Note_on_c, 0, 53, 51
2, 65861, Note_on_c, 0, 51, 0
2, 66067, Note_on_c, 0, 75, 62
2, 66086, Note_on_c, 0, 54, 47
2, 66087, Note_on_c, 0, 53, 0
2, 66198, Note_on_c, 0, 75, 0
2, 66269, Note_on_c, 0, 51, 51
2, 66272, Note_on_c, 0, 54, 0
2, 66504, Note_on_c, 0, 68, 62
2, 66527, Note_on_c, 0, 53, 43
2, 66538, Note_on_c, 0, 51, 0
2, 66737, Note_on_c, 0, 51, 48
2, 66760, Note_on_c, 0, 53, 0
2, 66941, Note_on_c, 0, 77, 64
2, 66950, Note_on_c, 0, 51, 0
2, 66959, Note_on_c, 0, 49, 51
2, 67060, Note_on_c, 0, 68, 0
2, 67132, Note_on_c, 0, 51, 47
2, 67140, Note_on_c, 0, 75, 65
2, 67172, Note_on_c, 0, 49, 0
2, 67345, Note_on_c, 0, 77, 0
2, 67357, Note_on_c, 0, 73, 67
2, 67366, Note_on_c, 0, 53, 50
2, 67393, Note_on_c, 0, 51, 0
2, 67463, Note_on_c, 0, 75, 0
2, 67507, Note_on_c, 0, 73, 0
2, 67555, Note_on_c, 0, 53, 0
2, 67565, Note_on_c, 0, 55, 56
2, 67787, Note_on_c, 0, 72, 67
2, 67810, Note_on_c, 0, 56, 55
2, 67811, Note_on_c, 0, 55, 0
2, 67956, Note_on_c, 0, 72, 0
2, 68000, Note_on_c, 0, 56, 0
2, 68013, Note_on_c, 0, 53, 57
2, 68234, Note_on_c, 0, 70, 65
2, 68237, Note_on_c, 0, 61, 60
2, 68264, Note_on_c, 0, 53, 0
2, 68384, Note_on_c, 0, 80, 0
2, 68432, Note_on_c, 0, 61, 0
2, 68439, Note_on_c, 0, 60, 64
2, 68663, Note_on_c, 0, 79, 72
2, 68673, Note_on_c, 0, 58, 61
2, 68690, Note_on_c, 0, 60, 0
2, 68789, Control_c, 0, 64, 33
2, 68870, Note_on_c, 0, 56, 63
2, 68875, Note_on_c, 0, 80, 78
2, 68903, Note_on_c, 0, 58, 0
2, 69083, Note_on_c, 0, 56, 0
2, 69088, Note_on_c, 0, 55, 64
2, 69091, Control_c, 0, 64, 26
2, 69095, Note_on_c, 0, 82, 77
2, 69110, Control_c, 0, 64, 21
2, 69130, Control_c, 0, 64, 15
2, 69138, Note_on_c, 0, 79, 0
2, 69149, Control_c, 0, 64, 11
2, 69161, Note_on_c, 0, 80, 0
2, 69223, Control_c, 0, 64, 27
2, 69243, Control_c, 0, 64, 40
2, 69260, Control_c, 0, 64, 50
2, 69260, Note_on_c, 0, 82, 0
2, 69282, Control_c, 0, 64, 57
2, 69299, Control_c, 0, 64, 62
2, 69301, Note_on_c, 0, 53, 64
2, 69319, Control_c, 0, 64, 67
2, 69338, Control_c, 0, 64, 73
2, 69356, Control_c, 0, 64, 78
2, 69360, Note_on_c, 0, 55, 0
2, 69376, Control_c, 0, 64, 82
2, 69394, Control_c, 0, 64, 84
2, 69431, Control_c, 0, 64, 86
2, 69441, Note_on_c, 0, 70, 0
2, 69541, Note_on_c, 0, 51, 64
2, 69541, Note_on_c, 0, 73, 79
2, 69551, Note_on_c, 0, 70, 48
2, 69580, Control_c, 0, 64, 84
2, 69591, Note_on_c, 0, 53, 0
2, 69598, Control_c, 0, 64, 80
2, 69617, Control_c, 0, 64, 76
2, 69638, Control_c, 0, 64, 70
2, 69655, Control_c, 0, 64, 61
2, 69674, Control_c, 0, 64, 49
2, 69692, Control_c, 0, 64, 37
2, 69711, Control_c, 0, 64, 29
2, 69749, Note_on_c, 0, 55, 66
2, 69791, Note_on_c, 0, 51, 0
2, 69968, Note_on_c, 0, 48, 69
2, 70051, Note_on_c, 0, 55, 0
2, 70179, Note_on_c, 0, 53, 75
2, 70241, Note_on_c, 0, 48, 0
2, 70373, Note_on_c, 0, 72, 77
2, 70384, Note_on_c, 0, 68, 63
2, 70389, Note_on_c, 0, 51, 68
2, 70415, Note_on_c, 0, 73, 0
2, 70444, Note_on_c, 0, 53, 0
2, 70452, Note_on_c, 0, 70, 0
2, 70594, Note_on_c, 0, 73, 76
2, 70606, Note_on_c, 0, 49, 65
2, 70612, Note_on_c, 0, 51, 0
2, 70655, Note_on_c, 0, 72, 0
2, 70747, Control_c, 0, 64, 24
2, 70767, Control_c, 0, 64, 17
2, 70785, Control_c, 0, 64, 0
2, 70795, Note_on_c, 0, 49, 0
2, 70817, Note_on_c, 0, 75, 78
2, 70823, Note_on_c, 0, 48, 67
2, 70865, Note_on_c, 0, 73, 0
2, 70897, Control_c, 0, 64, 11
2, 70917, Control_c, 0, 64, 31
2, 70935, Control_c, 0, 64, 50
2, 70953, Control_c, 0, 64, 63
2, 70965, Note_on_c, 0, 75, 0
2, 70970, Control_c, 0, 64, 74
2, 70991, Control_c, 0, 64, 85
2, 71010, Control_c, 0, 64, 99
2, 71010, Note_on_c, 0, 68, 0
2, 71027, Note_on_c, 0, 46, 67
2, 71029, Control_c, 0, 64, 109
2, 71048, Control_c, 0, 64, 116
2, 71063, Note_on_c, 0, 48, 0
2, 71069, Control_c, 0, 64, 120
2, 71104, Control_c, 0, 64, 125
2, 71243, Note_on_c, 0, 66, 78
2, 71258, Note_on_c, 0, 63, 70
2, 71269, Note_on_c, 0, 44, 66
2, 71294, Control_c, 0, 64, 111
2, 71299, Note_on_c, 0, 46, 0
2, 71315, Control_c, 0, 64, 94
2, 71332, Control_c, 0, 64, 73
2, 71350, Control_c, 0, 64, 50
2, 71370, Control_c, 0, 64, 28
2, 71388, Control_c, 0, 64, 21
2, 71442, Control_c, 0, 64, 13
2, 71454, Note_on_c, 0, 48, 59
2, 71461, Control_c, 0, 64, 0
2, 71477, Note_on_c, 0, 44, 0
2, 71609, Note_on_c, 0, 63, 0
2, 71707, Control_c, 0, 64, 29
2, 71709, Note_on_c, 0, 37, 75
2, 71722, Control_c, 0, 64, 51
2, 71741, Control_c, 0, 64, 67
2, 71743, Note_on_c, 0, 48, 0
2, 71759, Control_c, 0, 64, 79
2, 71777, Control_c, 0, 64, 95
2, 71797, Control_c, 0, 64, 111
2, 71816, Control_c, 0, 64, 124
2, 71820, Note_on_c, 0, 37, 0
2, 71916, Note_on_c, 0, 65, 70
2, 71979, Note_on_c, 0, 66, 0
2, 72125, Note_on_c, 0, 65, 0
2, 72126, Note_on_c, 0, 53, 58
2, 72135, Control_c, 0, 64, 117
2, 72135, Note_on_c, 0, 61, 75
2, 72140, Note_on_c, 0, 67, 74
2, 72156, Control_c, 0, 64, 102
2, 72175, Control_c, 0, 64, 82
2, 72194, Control_c, 0, 64, 61
2, 72214, Control_c, 0, 64, 39
2, 72234, Control_c, 0, 64, 27
2, 72289, Note_on_c, 0, 61, 0
2, 72332, Note_on_c, 0, 60, 73
2, 72338, Note_on_c, 0, 68, 76
2, 72344, Control_c, 0, 64, 23
2, 72400, Note_on_c, 0, 53, 0
2, 72559, Note_on_c, 0, 58, 65
2, 72559, Note_on_c, 0, 60, 0
2, 72570, Note_on_c, 0, 49, 67
2, 72571, Note_on_c, 0, 70, 77
2, 72677, Note_on_c, 0, 67, 0
2, 72707, Note_on_c, 0, 68, 0
2, 72745, Note_on_c, 0, 58, 0
2, 72763, Note_on_c, 0, 56, 67
2, 72764, Note_on_c, 0, 72, 75
2, 72831, Note_on_c, 0, 49, 0
2, 72839, Note_on_c, 0, 70, 0
2, 72972, Note_on_c, 0, 55, 68
2, 72981, Note_on_c, 0, 51, 60
2, 72990, Note_on_c, 0, 73, 76
2, 72993, Note_on_c, 0, 56, 0
2, 73002, Note_on_c, 0, 72, 0
2, 73181, Note_on_c, 0, 58, 74
2, 73182, Note_on_c, 0, 70, 77
2, 73211, Note_on_c, 0, 51, 0
2, 73217, Note_on_c, 0, 55, 0
2, 73218, Note_on_c, 0, 73, 0
2, 73453, Note_on_c, 0, 72, 70
2, 73460, Note_on_c, 0, 56, 75
2, 73473, Note_on_c, 0, 70, 0
2, 73526, Note_on_c, 0, 58, 0
2, 73669, Note_on_c, 0, 55, 80
2, 73673, Note_on_c, 0, 63, 71
2, 73694, Note_on_c, 0, 56, 0
2, 73850, Note_on_c, 0, 63, 0
2, 73876, Note_on_c, 0, 53, 80
2, 73879, Note_on_c, 0, 65, 69
2, 73917, Note_on_c, 0, 55, 0
2, 74070, Note_on_c, 0, 51, 76
2, 74075, Note_on_c, 0, 67, 74
2, 74096, Note_on_c, 0, 65, 0
2, 74110, Note_on_c, 0, 53, 0
2, 74300, Note_on_c, 0, 68, 70
2, 74323, Note_on_c, 0, 53, 80
2, 74354, Note_on_c, 0, 51, 0
2, 74354, Note_on_c, 0, 67, 0
2, 74414, Control_c, 0, 64, 29
2, 74434, Control_c, 0, 64, 34
2, 74453, Control_c, 0, 64, 40
2, 74473, Control_c, 0, 64, 47
2, 74490, Control_c, 0, 64, 54
2, 74509, Control_c, 0, 64, 59
2, 74528, Control_c, 0, 64, 60
2, 74531, Note_on_c, 0, 72, 0
2, 74538, Note_on_c, 0, 70, 71
2, 74548, Control_c, 0, 64, 62
2, 74566, Control_c, 0, 64, 63
2, 74585, Control_c, 0, 64, 65
2, 74606, Control_c, 0, 64, 68
2, 74617, Note_on_c, 0, 68, 0
2, 74622, Control_c, 0, 64, 71
2, 74642, Control_c, 0, 64, 74
2, 74660, Control_c, 0, 64, 77
2, 74735, Control_c, 0, 64, 72
2, 74746, Note_on_c, 0, 48, 79
2, 74751, Note_on_c, 0, 72, 78
2, 74755, Control_c, 0, 64, 65
2, 74773, Control_c, 0, 64, 53
2, 74793, Control_c, 0, 64, 36
2, 74811, Control_c, 0, 64, 0
2, 74838, Note_on_c, 0, 53, 0
2, 74887, Control_c, 0, 64, 19
2, 74900, Note_on_c, 0, 70, 0
2, 74905, Control_c, 0, 64, 50
2, 74924, Control_c, 0, 64, 71
2, 74944, Control_c, 0, 64, 85
2, 74953, Note_on_c, 0, 68, 75
2, 74955, Note_on_c, 0, 72, 0
2, 74962, Control_c, 0, 64, 99
2, 74980, Control_c, 0, 64, 106
2, 75013, Note_on_c, 0, 68, 0
2, 75017, Control_c, 0, 64, 112
2, 75113, Control_c, 0, 64, 116
2, 75181, Note_on_c, 0, 77, 77
2, 75200, Note_on_c, 0, 49, 66
2, 75225, Control_c, 0, 64, 107
2, 75246, Control_c, 0, 64, 95
2, 75278, Control_c, 0, 64, 78
2, 75298, Control_c, 0, 64, 56
2, 75305, Note_on_c, 0, 48, 0
2, 75318, Control_c, 0, 64, 30
2, 75336, Control_c, 0, 64, 14
2, 75399, Note_on_c, 0, 75, 70
2, 75613, Note_on_c, 0, 46, 69
2, 75623, Note_on_c, 0, 73, 69
2, 75678, Note_on_c, 0, 49, 0
2, 75774, Note_on_c, 0, 75, 0
2, 75822, Note_on_c, 0, 72, 72
2, 75832, Note_on_c, 0, 73, 0
2, 76041, Note_on_c, 0, 43, 65
2, 76052, Note_on_c, 0, 70, 70
2, 76103, Note_on_c, 0, 72, 0
2, 76111, Note_on_c, 0, 46, 0
2, 76123, Note_on_c, 0, 77, 0
2, 76256, Note_on_c, 0, 68, 76
2, 76337, Note_on_c, 0, 70, 0
2, 76466, Note_on_c, 0, 51, 60
2, 76471, Note_on_c, 0, 67, 68
2, 76479, Note_on_c, 0, 68, 0
2, 76551, Note_on_c, 0, 43, 0
2, 76675, Control_c, 0, 64, 20
2, 76678, Note_on_c, 0, 70, 64
2, 76694, Control_c, 0, 64, 33
2, 76714, Control_c, 0, 64, 48
2, 76733, Control_c, 0, 64, 59
2, 76742, Note_on_c, 0, 67, 0
2, 76746, Note_on_c, 0, 70, 0
2, 76752, Control_c, 0, 64, 67
2, 76771, Control_c, 0, 64, 76
2, 76791, Control_c, 0, 64, 87
2, 76808, Control_c, 0, 64, 97
2, 76828, Control_c, 0, 64, 105
2, 76846, Control_c, 0, 64, 110
2, 76902, Control_c, 0, 64, 114
2, 76917, Note_on_c, 0, 63, 66
2, 76925, Note_on_c, 0, 48, 56
2, 77015, Control_c, 0, 64, 105
2, 77035, Control_c, 0, 64, 94
2, 77054, Control_c, 0, 64, 79
2, 77065, Note_on_c, 0, 51, 0
2, 77072, Control_c, 0, 64, 59
2, 77092, Control_c, 0, 64, 34
2, 77109, Control_c, 0, 64, 20
2, 77112, Note_on_c, 0, 46, 48
2, 77143, Note_on_c, 0, 48, 0
2, 77366, Note_on_c, 0, 56, 58
2, 77373, Note_on_c, 0, 46, 0
2, 77381, Note_on_c, 0, 44, 47
2, 77405, Note_on_c, 0, 63, 0
2, 77561, Note_on_c, 0, 46, 51
2, 77575, Note_on_c, 0, 44, 0
2, 77786, Note_on_c, 0, 48, 51
2, 77788, Note_on_c, 0, 46, 0
2, 77790, Note_on_c, 0, 63, 60
2, 77888, Note_on_c, 0, 56, 0
2, 77989, Note_on_c, 0, 48, 0
2, 77998, Note_on_c, 0, 50, 53
2, 78065, Note_on_c, 0, 63, 0
2, 78233, Note_on_c, 0, 50, 0
2, 78236, Note_on_c, 0, 51, 55
2, 78245, Note_on_c, 0, 66, 61
2, 78249, Note_on_c, 0, 63, 64
2, 78462, Note_on_c, 0, 51, 0
2, 78475, Note_on_c, 0, 48, 52
2, 78485, Note_on_c, 0, 63, 0
2, 78487, Note_on_c, 0, 66, 0
2, 78691, Note_on_c, 0, 48, 0
2, 78693, Note_on_c, 0, 65, 63
2, 78698, Note_on_c, 0, 63, 51
2, 78708, Note_on_c, 0, 50, 52
2, 78917, Note_on_c, 0, 48, 49
2, 78953, Note_on_c, 0, 50, 0
2, 79128, Note_on_c, 0, 70, 61
2, 79132, Note_on_c, 0, 48, 0
2, 79142, Note_on_c, 0, 46, 59
2, 79150, Note_on_c, 0, 62, 57
2, 79180, Note_on_c, 0, 63, 0
2, 79199, Note_on_c, 0, 65, 0
2, 79337, Note_on_c, 0, 63, 66
2, 79347, Note_on_c, 0, 46, 0
2, 79349, Note_on_c, 0, 48, 50
2, 79417, Note_on_c, 0, 62, 0
2, 79555, Note_on_c, 0, 48, 0
2, 79568, Note_on_c, 0, 50, 53
2, 79571, Note_on_c, 0, 65, 68
2, 79623, Note_on_c, 0, 63, 0
2, 79671, Note_on_c, 0, 70, 0
2, 79772, Note_on_c, 0, 65, 0
2, 79775, Note_on_c, 0, 51, 58
2, 79788, Note_on_c, 0, 50, 0
2, 79985, Note_on_c, 0, 53, 51
2, 79989, Note_on_c, 0, 65, 67
2, 79990, Note_on_c, 0, 68, 65
2, 80038, Note_on_c, 0, 51, 0
2, 80215, Note_on_c, 0, 50, 58
2, 80238, Note_on_c, 0, 68, 0
2, 80250, Note_on_c, 0, 65, 0
2, 80258, Note_on_c, 0, 53, 0
2, 80450, Note_on_c, 0, 65, 61
2, 80451, Note_on_c, 0, 66, 62
2, 80460, Note_on_c, 0, 51, 52
2, 80491, Note_on_c, 0, 50, 0
2, 80663, Note_on_c, 0, 53, 61
2, 80670, Note_on_c, 0, 51, 0
2, 80877, Note_on_c, 0, 71, 61
2, 80883, Note_on_c, 0, 54, 61
2, 80883, Note_on_c, 0, 63, 61
2, 80886, Note_on_c, 0, 53, 0
2, 80926, Note_on_c, 0, 66, 0
2, 80927, Control_c, 0, 64, 24
2, 80935, Note_on_c, 0, 65, 0
2, 81094, Note_on_c, 0, 54, 0
2, 81099, Note_on_c, 0, 65, 74
2, 81107, Note_on_c, 0, 53, 60
2, 81164, Note_on_c, 0, 63, 0
2, 81318, Note_on_c, 0, 66, 75
2, 81321, Note_on_c, 0, 51, 68
2, 81341, Note_on_c, 0, 53, 0
2, 81365, Note_on_c, 0, 65, 0
2, 81505, Note_on_c, 0, 66, 0
2, 81507, Note_on_c, 0, 49, 70
2, 81512, Note_on_c, 0, 71, 0
2, 81607, Note_on_c, 0, 51, 0
2, 81721, Note_on_c, 0, 70, 73
2, 81725, Note_on_c, 0, 66, 66
2, 81740, Note_on_c, 0, 47, 67
2, 81797, Note_on_c, 0, 49, 0
2, 81831, Control_c, 0, 64, 28
2, 81937, Note_on_c, 0, 66, 0
2, 81940, Note_on_c, 0, 70, 0
2, 81943, Note_on_c, 0, 46, 63
2, 81968, Note_on_c, 0, 47, 0
2, 82162, Note_on_c, 0, 47, 59
2, 82177, Note_on_c, 0, 68, 72
2, 82181, Note_on_c, 0, 66, 67
2, 82384, Note_on_c, 0, 51, 68
2, 82385, Note_on_c, 0, 46, 0
2, 82400, Note_on_c, 0, 47, 0
2, 82602, Note_on_c, 0, 73, 72
2, 82614, Note_on_c, 0, 49, 61
2, 82625, Note_on_c, 0, 65, 61
2, 82643, Note_on_c, 0, 51, 0
2, 82662, Note_on_c, 0, 66, 0
2, 82684, Note_on_c, 0, 68, 0
2, 82790, Note_on_c, 0, 49, 0
2, 82802, Note_on_c, 0, 47, 61
2, 82807, Note_on_c, 0, 66, 73
2, 82867, Note_on_c, 0, 65, 0
2, 83028, Note_on_c, 0, 46, 68
2, 83038, Note_on_c, 0, 47, 0
2, 83042, Note_on_c, 0, 68, 80
2, 83118, Note_on_c, 0, 73, 0
2, 83120, Note_on_c, 0, 66, 0
2, 83183, Control_c, 0, 64, 32
2, 83240, Note_on_c, 0, 44, 73
2, 83282, Note_on_c, 0, 68, 0
2, 83303, Note_on_c, 0, 46, 0
2, 83466, Control_c, 0, 64, 28
2, 83467, Note_on_c, 0, 68, 61
2, 83475, Note_on_c, 0, 71, 74
2, 83498, Note_on_c, 0, 42, 62
2, 83503, Control_c, 0, 64, 22
2, 83542, Control_c, 0, 64, 14
2, 83555, Note_on_c, 0, 44, 0
2, 83560, Control_c, 0, 64, 8
2, 83581, Control_c, 0, 64, 0
2, 83656, Control_c, 0, 64, 23
2, 83673, Control_c, 0, 64, 39
2, 83692, Control_c, 0, 64, 55
2, 83696, Note_on_c, 0, 41, 69
2, 83702, Note_on_c, 0, 42, 0
2, 83703, Note_on_c, 0, 71, 0
2, 83710, Control_c, 0, 64, 66
2, 83731, Control_c, 0, 64, 73
2, 83750, Control_c, 0, 64, 81
2, 83770, Control_c, 0, 64, 89
2, 83787, Control_c, 0, 64, 95
2, 83796, Note_on_c, 0, 68, 0
2, 83808, Control_c, 0, 64, 100
2, 83824, Control_c, 0, 64, 104
2, 83882, Control_c, 0, 64, 108
2, 83990, Note_on_c, 0, 70, 76
2, 84011, Note_on_c, 0, 42, 63
2, 84065, Note_on_c, 0, 41, 0
2, 84067, Control_c, 0, 64, 96
2, 84084, Control_c, 0, 64, 83
2, 84106, Control_c, 0, 64, 66
2, 84123, Control_c, 0, 64, 46
2, 84143, Control_c, 0, 64, 31
2, 84235, Note_on_c, 0, 68, 56
2, 84237, Control_c, 0, 64, 27
2, 84442, Note_on_c, 0, 44, 60
2, 84458, Note_on_c, 0, 66, 65
2, 84497, Note_on_c, 0, 42, 0
2, 84563, Note_on_c, 0, 68, 0
2, 84656, Note_on_c, 0, 65, 66
2, 84694, Note_on_c, 0, 66, 0
2, 84898, Note_on_c, 0, 66, 65
2, 84906, Note_on_c, 0, 46, 55
2, 84942, Note_on_c, 0, 44, 0
2, 84943, Note_on_c, 0, 65, 0
2, 85112, Note_on_c, 0, 46, 0
2, 85113, Note_on_c, 0, 42, 54
2, 85318, Note_on_c, 0, 61, 65
2, 85336, Note_on_c, 0, 44, 49
2, 85361, Note_on_c, 0, 42, 0
2, 85431, Note_on_c, 0, 66, 0
2, 85537, Control_c, 0, 64, 31
2, 85539, Note_on_c, 0, 46, 49
2, 85548, Note_on_c, 0, 44, 0
2, 85761, Note_on_c, 0, 63, 65
2, 85763, Note_on_c, 0, 46, 0
2, 85777, Note_on_c, 0, 47, 51
2, 85844, Note_on_c, 0, 70, 0
2, 85894, Note_on_c, 0, 61, 0
2, 85964, Note_on_c, 0, 47, 0
2, 85982, Note_on_c, 0, 49, 48
2, 86212, Note_on_c, 0, 59, 63
2, 86213, Note_on_c, 0, 49, 0
2, 86227, Note_on_c, 0, 51, 45
2, 86307, Note_on_c, 0, 63, 0
2, 86421, Note_on_c, 0, 51, 0
2, 86422, Note_on_c, 0, 47, 48
2, 86643, Note_on_c, 0, 49, 46
2, 86648, Note_on_c, 0, 56, 56
2, 86689, Note_on_c, 0, 47, 0
2, 86746, Note_on_c, 0, 59, 0
2, 86876, Note_on_c, 0, 51, 40
2, 86877, Note_on_c, 0, 49, 0
2, 87085, Note_on_c, 0, 61, 55
2, 87087, Note_on_c, 0, 51, 0
2, 87101, Note_on_c, 0, 53, 39
2, 87172, Note_on_c, 0, 56, 0
2, 87253, Note_on_c, 0, 53, 0
2, 87282, Note_on_c, 0, 49, 49
2, 87496, Note_on_c, 0, 61, 0
2, 87534, Note_on_c, 0, 58, 57
2, 87546, Note_on_c, 0, 54, 43
2, 87618, Note_on_c, 0, 49, 0
2, 87697, Note_on_c, 0, 54, 0
2, 87779, Note_on_c, 0, 56, 33
2, 87810, Control_c, 0, 64, 35
2, 87992, Note_on_c, 0, 73, 53
2, 88013, Note_on_c, 0, 54, 40
2, 88052, Note_on_c, 0, 56, 0
2, 88202, Note_on_c, 0, 54, 0
2, 88205, Note_on_c, 0, 53, 44
2, 88413, Note_on_c, 0, 58, 0
2, 88427, Note_on_c, 0, 78, 60
2, 88443, Note_on_c, 0, 53, 0
2, 88446, Note_on_c, 0, 51, 44
2, 88565, Note_on_c, 0, 73, 0
2, 88631, Note_on_c, 0, 78, 0
2, 88632, Note_on_c, 0, 53, 51
2, 88651, Note_on_c, 0, 51, 0
2, 88884, Note_on_c, 0, 78, 63
2, 88891, Note_on_c, 0, 53, 0
2, 88897, Note_on_c, 0, 54, 47
2, 88916, Note_on_c, 0, 70, 39
2, 89078, Note_on_c, 0, 78, 0
2, 89090, Note_on_c, 0, 54, 0
2, 89094, Note_on_c, 0, 51, 49
2, 89119, Note_on_c, 0, 70, 0
2, 89321, Note_on_c, 0, 78, 59
2, 89345, Note_on_c, 0, 71, 36
2, 89347, Note_on_c, 0, 56, 45
2, 89422, Note_on_c, 0, 51, 0
2, 89564, Note_on_c, 0, 58, 40
2, 89577, Note_on_c, 0, 56, 0
2, 89769, Note_on_c, 0, 56, 46
2, 89778, Note_on_c, 0, 77, 57
2, 89801, Note_on_c, 0, 78, 0
2, 89818, Note_on_c, 0, 58, 0
2, 89978, Note_on_c, 0, 54, 47
2, 89978, Note_on_c, 0, 78, 57
2, 90014, Note_on_c, 0, 56, 0
2, 90021, Note_on_c, 0, 77, 0
2, 90196, Note_on_c, 0, 80, 61
2, 90197, Note_on_c, 0, 54, 0
2, 90221, Note_on_c, 0, 53, 46
2, 90260, Note_on_c, 0, 78, 0
2, 90371, Note_on_c, 0, 71, 0
2, 90396, Note_on_c, 0, 80, 0
2, 90426, Note_on_c, 0, 53, 0
2, 90426, Note_on_c, 0, 54, 42
2, 90646, Note_on_c, 0, 80, 64
2, 90672, Note_on_c, 0, 71, 44
2, 90686, Note_on_c, 0, 56, 43
2, 90690, Control_c, 0, 64, 39
2, 90702, Note_on_c, 0, 54, 0
2, 90827, Note_on_c, 0, 80, 0
2, 90843, Control_c, 0, 64, 41
2, 90871, Note_on_c, 0, 56, 0
2, 90901, Note_on_c, 0, 53, 38
2, 90920, Note_on_c, 0, 71, 0
2, 91118, Note_on_c, 0, 80, 59
2, 91125, Note_on_c, 0, 70, 45
2, 91135, Note_on_c, 0, 50, 47
2, 91203, Note_on_c, 0, 53, 0
2, 91331, Note_on_c, 0, 46, 55
2, 91350, Note_on_c, 0, 50, 0
2, 91553, Note_on_c, 0, 78, 58
2, 91565, Note_on_c, 0, 48, 50
2, 91613, Note_on_c, 0, 46, 0
2, 91749, Note_on_c, 0, 80, 0
2, 91767, Note_on_c, 0, 50, 51
2, 91771, Note_on_c, 0, 77, 66
2, 91777, Note_on_c, 0, 48, 0
2, 91802, Note_on_c, 0, 78, 0
2, 91993, Note_on_c, 0, 51, 47
2, 91994, Note_on_c, 0, 78, 63
2, 91997, Note_on_c, 0, 50, 0
2, 92066, Note_on_c, 0, 77, 0
2, 92071, Note_on_c, 0, 70, 0
2, 92177, Note_on_c, 0, 51, 0
2, 92207, Note_on_c, 0, 53, 49
2, 92413, Note_on_c, 0, 75, 63
2, 92424, Note_on_c, 0, 54, 47
2, 92430, Note_on_c, 0, 53, 0
2, 92571, Note_on_c, 0, 75, 0
2, 92643, Note_on_c, 0, 54, 0
2, 92654, Note_on_c, 0, 51, 47
2, 92871, Note_on_c, 0, 68, 57
2, 92880, Note_on_c, 0, 59, 52
2, 92912, Control_c, 0, 64, 44
2, 92919, Note_on_c, 0, 78, 0
2, 92929, Control_c, 0, 64, 52
2, 92948, Control_c, 0, 64, 60
2, 92966, Control_c, 0, 64, 67
2, 92985, Control_c, 0, 64, 75
2, 93004, Control_c, 0, 64, 85
2, 93013, Note_on_c, 0, 51, 0
2, 93022, Control_c, 0, 64, 94
2, 93040, Control_c, 0, 64, 101
2, 93072, Note_on_c, 0, 68, 0
2, 93078, Control_c, 0, 64, 106
2, 93092, Note_on_c, 0, 58, 45
2, 93104, Note_on_c, 0, 59, 0
2, 93175, Control_c, 0, 64, 110
2, 93306, Note_on_c, 0, 83, 65
2, 93307, Note_on_c, 0, 56, 51
2, 93344, Control_c, 0, 64, 104
2, 93359, Control_c, 0, 64, 99
2, 93359, Note_on_c, 0, 58, 0
2, 93378, Control_c, 0, 64, 91
2, 93399, Control_c, 0, 64, 81
2, 93417, Control_c, 0, 64, 68
2, 93435, Control_c, 0, 64, 54
2, 93453, Control_c, 0, 64, 44
2, 93474, Control_c, 0, 64, 41
2, 93509, Note_on_c, 0, 82, 70
2, 93531, Note_on_c, 0, 58, 47
2, 93588, Note_on_c, 0, 83, 0
2, 93597, Note_on_c, 0, 56, 0
2, 93719, Note_on_c, 0, 59, 61
2, 93725, Note_on_c, 0, 58, 0
2, 93731, Note_on_c, 0, 80, 68
2, 93811, Note_on_c, 0, 82, 0
2, 93933, Note_on_c, 0, 78, 62
2, 94034, Note_on_c, 0, 80, 0
2, 94145, Note_on_c, 0, 68, 61
2, 94156, Note_on_c, 0, 77, 60
2, 94187, Control_c, 0, 64, 46
2, 94206, Control_c, 0, 64, 54
2, 94208, Note_on_c, 0, 78, 0
2, 94224, Control_c, 0, 64, 59
2, 94243, Control_c, 0, 64, 61
2, 94262, Control_c, 0, 64, 63
2, 94281, Control_c, 0, 64, 68
2, 94300, Control_c, 0, 64, 75
2, 94304, Note_on_c, 0, 59, 0
2, 94319, Control_c, 0, 64, 84
2, 94337, Control_c, 0, 64, 91
2, 94357, Control_c, 0, 64, 96
2, 94362, Note_on_c, 0, 80, 67
2, 94394, Control_c, 0, 64, 102
2, 94395, Note_on_c, 0, 77, 0
2, 94604, Note_on_c, 0, 58, 57
2, 94604, Note_on_c, 0, 74, 61
2, 94650, Note_on_c, 0, 80, 0
2, 94653, Control_c, 0, 64, 93
2, 94674, Control_c, 0, 64, 86
2, 94694, Control_c, 0, 64, 76
2, 94710, Control_c, 0, 64, 65
2, 94730, Control_c, 0, 64, 53
2, 94749, Control_c, 0, 64, 45
2, 94769, Control_c, 0, 64, 42
2, 94804, Note_on_c, 0, 72, 65
2, 94831, Note_on_c, 0, 70, 49
2, 94835, Note_on_c, 0, 74, 0
2, 94858, Note_on_c, 0, 68, 0
2, 94920, Control_c, 0, 64, 40
2, 95010, Note_on_c, 0, 74, 65
2, 95018, Note_on_c, 0, 68, 59
2, 95055, Note_on_c, 0, 72, 0
2, 95057, Note_on_c, 0, 70, 0
2, 95223, Note_on_c, 0, 75, 64
2, 95226, Note_on_c, 0, 66, 55
2, 95270, Note_on_c, 0, 68, 0
2, 95285, Note_on_c, 0, 74, 0
2, 95454, Note_on_c, 0, 77, 62
2, 95461, Note_on_c, 0, 75, 0
2, 95465, Note_on_c, 0, 66, 0
2, 95477, Note_on_c, 0, 65, 47
2, 95657, Note_on_c, 0, 78, 58
2, 95665, Note_on_c, 0, 65, 0
2, 95670, Note_on_c, 0, 63, 49
2, 95803, Note_on_c, 0, 77, 0
2, 95843, Control_c, 0, 64, 36
2, 95859, Note_on_c, 0, 63, 0
2, 95879, Control_c, 0, 64, 29
2, 95883, Note_on_c, 0, 62, 54
2, 95884, Note_on_c, 0, 80, 61
2, 95947, Note_on_c, 0, 78, 0
2, 95994, Control_c, 0, 64, 39
2, 96012, Control_c, 0, 64, 49
2, 96031, Control_c, 0, 64, 58
2, 96050, Control_c, 0, 64, 64
2, 96068, Control_c, 0, 64, 69
2, 96086, Control_c, 0, 64, 74
2, 96089, Note_on_c, 0, 65, 52
2, 96089, Note_on_c, 0, 77, 59
2, 96090, Note_on_c, 0, 62, 0
2, 96103, Note_on_c, 0, 80, 0
2, 96106, Control_c, 0, 64, 79
2, 96119, Note_on_c, 0, 58, 0
2, 96121, Note_on_c, 0, 65, 0
2, 96125, Control_c, 0, 64, 85
2, 96143, Control_c, 0, 64, 89
2, 96162, Control_c, 0, 64, 94
2, 96201, Control_c, 0, 64, 98
2, 96432, Note_on_c, 0, 78, 57
2, 96456, Note_on_c, 0, 77, 0
2, 96462, Note_on_c, 0, 63, 42
2, 96481, Control_c, 0, 64, 88
2, 96499, Control_c, 0, 64, 79
2, 96519, Control_c, 0, 64, 67
2, 96539, Control_c, 0, 64, 52
2, 96555, Control_c, 0, 64, 39
2, 96573, Control_c, 0, 64, 32
2, 96657, Note_on_c, 0, 77, 57
2, 96733, Note_on_c, 0, 78, 0
2, 96857, Note_on_c, 0, 51, 47
2, 96874, Note_on_c, 0, 75, 55
2, 96932, Note_on_c, 0, 77, 0
2, 97068, Note_on_c, 0, 51, 0
2, 97070, Note_on_c, 0, 53, 43
2, 97075, Note_on_c, 0, 74, 56
2, 97083, Note_on_c, 0, 75, 0
2, 97098, Note_on_c, 0, 63, 0
2, 97285, Note_on_c, 0, 53, 0
2, 97307, Note_on_c, 0, 75, 60
2, 97315, Note_on_c, 0, 54, 45
2, 97356, Note_on_c, 0, 74, 0
2, 97505, Note_on_c, 0, 54, 0
2, 97538, Note_on_c, 0, 51, 49
2, 97750, Note_on_c, 0, 54, 46
2, 97760, Note_on_c, 0, 70, 59
2, 97808, Note_on_c, 0, 51, 0
2, 97809, Note_on_c, 0, 75, 0
2, 97946, Note_on_c, 0, 58, 51
2, 97961, Note_on_c, 0, 54, 0
2, 98164, Note_on_c, 0, 71, 58
2, 98170, Note_on_c, 0, 58, 0
2, 98227, Note_on_c, 0, 70, 0
2, 98435, Note_on_c, 0, 62, 34
2, 98610, Note_on_c, 0, 68, 53
2, 98628, Note_on_c, 0, 62, 0
2, 98634, Note_on_c, 0, 63, 51
2, 98651, Note_on_c, 0, 71, 0
2, 98907, Control_c, 0, 64, 36
2, 99004, Control_c, 0, 64, 41
2, 99019, Control_c, 0, 64, 43
2, 99057, Control_c, 0, 64, 46
2, 99076, Note_on_c, 0, 65, 60
2, 99077, Control_c, 0, 64, 48
2, 99097, Control_c, 0, 64, 51
2, 99116, Control_c, 0, 64, 55
2, 99124, Note_on_c, 0, 68, 0
2, 99135, Control_c, 0, 64, 58
2, 99174, Control_c, 0, 64, 60
2, 99201, Note_on_c, 0, 63, 0
2, 99207, Control_c, 0, 64, 61
2, 99229, Control_c, 0, 64, 63
2, 99249, Control_c, 0, 64, 65
2, 99281, Control_c, 0, 64, 66
2, 99320, Control_c, 0, 64, 67
2, 99472, Control_c, 0, 64, 65
2, 99490, Control_c, 0, 64, 63
2, 99508, Control_c, 0, 64, 61
2, 99525, Control_c, 0, 64, 56
2, 99536, Note_on_c, 0, 70, 56
2, 99540, Note_on_c, 0, 62, 49
2, 99545, Control_c, 0, 64, 49
2, 99557, Note_on_c, 0, 65, 0
2, 99565, Control_c, 0, 64, 40
2, 99581, Control_c, 0, 64, 32
2, 99601, Control_c, 0, 64, 27
2, 99679, Control_c, 0, 64, 39
2, 99697, Control_c, 0, 64, 53
2, 99716, Note_on_c, 0, 62, 0
2, 99719, Control_c, 0, 64, 63
2, 99735, Control_c, 0, 64, 69
2, 99753, Control_c, 0, 64, 73
2, 99772, Control_c, 0, 64, 76
2, 99791, Control_c, 0, 64, 78
2, 99810, Control_c, 0, 64, 80
2, 99830, Control_c, 0, 64, 82
2, 100009, Note_on_c, 0, 66, 52
2, 100010, Note_on_c, 0, 63, 45
2, 100017, Control_c, 0, 64, 78
2, 100038, Control_c, 0, 64, 75
2, 100056, Control_c, 0, 64, 69
2, 100072, Note_on_c, 0, 70, 0
2, 100076, Control_c, 0, 64, 63
2, 100094, Control_c, 0, 64, 54
2, 100114, Control_c, 0, 64, 46
2, 100133, Control_c, 0, 64, 41
2, 100169, Control_c, 0, 64, 37
2, 100196, Note_on_c, 0, 63, 0
2, 100232, Note_on_c, 0, 61, 54
2, 100451, Note_on_c, 0, 61, 0
2, 100456, Note_on_c, 0, 59, 50
2, 100465, Note_on_c, 0, 63, 60
2, 100482, Note_on_c, 0, 66, 0
2, 100561, Control_c, 0, 64, 43
2, 100580, Control_c, 0, 64, 51
2, 100599, Control_c, 0, 64, 57
2, 100618, Control_c, 0, 64, 60
2, 100637, Control_c, 0, 64, 62
2, 100657, Control_c, 0, 64, 63
2, 100657, Note_on_c, 0, 59, 0
2, 100676, Control_c, 0, 64, 64
2, 100677, Note_on_c, 0, 58, 53
2, 100696, Control_c, 0, 64, 65
2, 100714, Control_c, 0, 64, 66
2, 100768, Note_on_c, 0, 63, 0
2, 100826, Control_c, 0, 64, 65
2, 100845, Control_c, 0, 64, 62
2, 100863, Control_c, 0, 64, 59
2, 100874, Note_on_c, 0, 58, 0
2, 100875, Note_on_c, 0, 75, 72
2, 100883, Control_c, 0, 64, 55
2, 100901, Control_c, 0, 64, 49
2, 100909, Note_on_c, 0, 59, 44
2, 100922, Control_c, 0, 64, 43
2, 100939, Control_c, 0, 64, 37
2, 100959, Control_c, 0, 64, 30
2, 101036, Control_c, 0, 64, 34
2, 101054, Control_c, 0, 64, 46
2, 101075, Control_c, 0, 64, 57
2, 101093, Control_c, 0, 64, 62
2, 101098, Note_on_c, 0, 59, 0
2, 101106, Note_on_c, 0, 73, 53
2, 101111, Control_c, 0, 64, 65
2, 101111, Note_on_c, 0, 58, 47
2, 101116, Note_on_c, 0, 75, 0
2, 101129, Control_c, 0, 64, 67
2, 101149, Control_c, 0, 64, 69
2, 101168, Control_c, 0, 64, 73
2, 101201, Control_c, 0, 64, 77
2, 101219, Control_c, 0, 64, 82
2, 101236, Control_c, 0, 64, 85
2, 101306, Note_on_c, 0, 73, 0
2, 101330, Control_c, 0, 64, 79
2, 101341, Note_on_c, 0, 75, 70
2, 101349, Control_c, 0, 64, 72
2, 101350, Note_on_c, 0, 71, 51
2, 101361, Note_on_c, 0, 56, 50
2, 101368, Control_c, 0, 64, 62
2, 101387, Note_on_c, 0, 58, 0
2, 101388, Control_c, 0, 64, 52
2, 101406, Control_c, 0, 64, 43
2, 101422, Control_c, 0, 64, 37
2, 101481, Control_c, 0, 64, 42
2, 101500, Control_c, 0, 64, 54
2, 101518, Control_c, 0, 64, 60
2, 101529, Note_on_c, 0, 56, 0
2, 101535, Control_c, 0, 64, 61
2, 101540, Note_on_c, 0, 54, 52
2, 101540, Note_on_c, 0, 71, 0
2, 101545, Note_on_c, 0, 70, 55
2, 101556, Control_c, 0, 64, 63
2, 101575, Control_c, 0, 64, 66
2, 101595, Control_c, 0, 64, 71
2, 101596, Note_on_c, 0, 75, 0
2, 101613, Control_c, 0, 64, 77
2, 101633, Control_c, 0, 64, 83
2, 101651, Control_c, 0, 64, 86
2, 101726, Control_c, 0, 64, 82
2, 101745, Control_c, 0, 64, 75
2, 101763, Control_c, 0, 64, 66
2, 101766, Note_on_c, 0, 75, 67
2, 101779, Note_on_c, 0, 54, 0
2, 101781, Control_c, 0, 64, 53
2, 101786, Note_on_c, 0, 71, 52
2, 101791, Note_on_c, 0, 56, 53
2, 101801, Control_c, 0, 64, 44
2, 101804, Note_on_c, 0, 70, 0
2, 101820, Control_c, 0, 64, 41
2, 101858, Control_c, 0, 64, 45
2, 101878, Control_c, 0, 64, 57
2, 101895, Control_c, 0, 64, 65
2, 101915, Control_c, 0, 64, 70
2, 101933, Control_c, 0, 64, 75
2, 101953, Control_c, 0, 64, 80
2, 101971, Control_c, 0, 64, 86
2, 101978, Note_on_c, 0, 71, 0
2, 101979, Note_on_c, 0, 70, 56
2, 101983, Note_on_c, 0, 54, 49
2, 101991, Control_c, 0, 64, 93
2, 102010, Control_c, 0, 64, 99
2, 102049, Control_c, 0, 64, 105
2, 102050, Note_on_c, 0, 56, 0
2, 102081, Note_on_c, 0, 75, 0
2, 102086, Control_c, 0, 64, 109
2, 102197, Control_c, 0, 64, 103
2, 102214, Note_on_c, 0, 74, 68
2, 102215, Control_c, 0, 64, 93
2, 102220, Note_on_c, 0, 54, 0
2, 102231, Note_on_c, 0, 70, 0
2, 102235, Control_c, 0, 64, 79
2, 102243, Note_on_c, 0, 53, 46
2, 102254, Control_c, 0, 64, 62
2, 102254, Note_on_c, 0, 68, 47
2, 102276, Control_c, 0, 64, 46
2, 102292, Control_c, 0, 64, 43
2, 102311, Control_c, 0, 64, 45
2, 102329, Control_c, 0, 64, 55
2, 102350, Control_c, 0, 64, 64
2, 102367, Control_c, 0, 64, 68
2, 102377, Note_on_c, 0, 68, 0
2, 102403, Control_c, 0, 64, 71
2, 102405, Note_on_c, 0, 74, 0
2, 102409, Note_on_c, 0, 53, 0
2, 102410, Note_on_c, 0, 75, 66
2, 102422, Control_c, 0, 64, 73
2, 102422, Note_on_c, 0, 51, 53
2, 102423, Note_on_c, 0, 66, 54
2, 102442, Control_c, 0, 64, 78
2, 102462, Control_c, 0, 64, 84
2, 102480, Control_c, 0, 64, 89
2, 102500, Note_on_c, 0, 66, 0
2, 102594, Control_c, 0, 64, 83
2, 102613, Control_c, 0, 64, 77
2, 102631, Control_c, 0, 64, 67
2, 102638, Note_on_c, 0, 75, 0
2, 102640, Note_on_c, 0, 51, 0
2, 102642, Note_on_c, 0, 77, 67
2, 102651, Control_c, 0, 64, 54
2, 102653, Note_on_c, 0, 50, 43
2, 102662, Note_on_c, 0, 65, 48
2, 102668, Control_c, 0, 64, 38
2, 102688, Control_c, 0, 64, 21
2, 102707, Control_c, 0, 64, 14
2, 102782, Control_c, 0, 64, 18
2, 102801, Control_c, 0, 64, 33
2, 102808, Note_on_c, 0, 65, 0
2, 102820, Control_c, 0, 64, 50
2, 102840, Control_c, 0, 64, 62
2, 102851, Note_on_c, 0, 77, 0
2, 102856, Note_on_c, 0, 46, 58
2, 102857, Control_c, 0, 64, 68
2, 102865, Note_on_c, 0, 50, 0
2, 102876, Control_c, 0, 64, 71
2, 102896, Control_c, 0, 64, 73
2, 102915, Control_c, 0, 64, 77
2, 102934, Control_c, 0, 64, 82
2, 102952, Control_c, 0, 64, 89
2, 103028, Control_c, 0, 64, 83
2, 103046, Control_c, 0, 64, 75
2, 103066, Control_c, 0, 64, 64
2, 103086, Control_c, 0, 64, 47
2, 103086, Note_on_c, 0, 77, 70
2, 103105, Note_on_c, 0, 46, 0
2, 103110, Note_on_c, 0, 48, 53
2, 103119, Control_c, 0, 64, 29
2, 103127, Note_on_c, 0, 70, 56
2, 103137, Control_c, 0, 64, 13
2, 103157, Control_c, 0, 64, 8
2, 103175, Control_c, 0, 64, 0
2, 103251, Control_c, 0, 64, 14
2, 103270, Control_c, 0, 64, 36
2, 103284, Note_on_c, 0, 48, 0
2, 103287, Note_on_c, 0, 77, 0
2, 103288, Control_c, 0, 64, 55
2, 103290, Note_on_c, 0, 50, 56
2, 103307, Control_c, 0, 64, 67
2, 103307, Note_on_c, 0, 70, 0
2, 103327, Control_c, 0, 64, 73
2, 103344, Control_c, 0, 64, 77
2, 103363, Control_c, 0, 64, 80
2, 103384, Control_c, 0, 64, 84
2, 103401, Control_c, 0, 64, 89
2, 103421, Control_c, 0, 64, 94
2, 103523, Note_on_c, 0, 77, 71
2, 103539, Note_on_c, 0, 66, 64
2, 103544, Note_on_c, 0, 50, 0
2, 103544, Note_on_c, 0, 51, 54
2, 103553, Control_c, 0, 64, 83
2, 103573, Control_c, 0, 64, 70
2, 103592, Control_c, 0, 64, 54
2, 103610, Control_c, 0, 64, 37
2, 103629, Control_c, 0, 64, 27
2, 103739, Note_on_c, 0, 51, 0
2, 103756, Note_on_c, 0, 53, 51
2, 103959, Note_on_c, 0, 53, 0
2, 103967, Note_on_c, 0, 75, 65
2, 103973, Note_on_c, 0, 54, 52
2, 104034, Note_on_c, 0, 77, 0
2, 104191, Note_on_c, 0, 54, 0
2, 104196, Note_on_c, 0, 74, 66
2, 104208, Note_on_c, 0, 56, 55
2, 104218, Note_on_c, 0, 75, 0
2, 104414, Note_on_c, 0, 75, 64
2, 104427, Note_on_c, 0, 74, 0
2, 104444, Note_on_c, 0, 54, 55
2, 104481, Note_on_c, 0, 66, 0
2, 104489, Note_on_c, 0, 56, 0
2, 104560, Note_on_c, 0, 54, 0
2, 104630, Note_on_c, 0, 66, 63
2, 104852, Note_on_c, 0, 65, 68
2, 104861, Note_on_c, 0, 59, 62
2, 104863, Note_on_c, 0, 66, 0
2, 105052, Note_on_c, 0, 59, 0
2, 105060, Note_on_c, 0, 65, 0
2, 105064, Note_on_c, 0, 66, 69
2, 105283, Note_on_c, 0, 66, 0
2, 105290, Note_on_c, 0, 53, 52
2, 105290, Note_on_c, 0, 68, 69
2, 105475, Note_on_c, 0, 73, 71
2, 105482, Note_on_c, 0, 68, 0
2, 105488, Note_on_c, 0, 54, 56
2, 105504, Note_on_c, 0, 53, 0
2, 105696, Note_on_c, 0, 71, 70
2, 105701, Note_on_c, 0, 63, 65
2, 105711, Note_on_c, 0, 75, 0
2, 105716, Note_on_c, 0, 56, 58
2, 105733, Note_on_c, 0, 54, 0
2, 105752, Note_on_c, 0, 73, 0
2, 105871, Note_on_c, 0, 63, 0
2, 105891, Note_on_c, 0, 70, 77
2, 105901, Note_on_c, 0, 58, 63
2, 105906, Note_on_c, 0, 71, 0
2, 105910, Note_on_c, 0, 56, 0
2, 106126, Note_on_c, 0, 56, 57
2, 106127, Note_on_c, 0, 71, 74
2, 106138, Note_on_c, 0, 58, 0
2, 106138, Note_on_c, 0, 65, 62
2, 106139, Note_on_c, 0, 70, 0
2, 106254, Note_on_c, 0, 56, 0
2, 106332, Note_on_c, 0, 68, 69
2, 106362, Note_on_c, 0, 71, 0
2, 106553, Note_on_c, 0, 61, 67
2, 106566, Note_on_c, 0, 70, 68
2, 106604, Control_c, 0, 64, 31
2, 106622, Control_c, 0, 64, 38
2, 106640, Note_on_c, 0, 68, 0
2, 106641, Control_c, 0, 64, 45
2, 106660, Control_c, 0, 64, 52
2, 106680, Control_c, 0, 64, 57
2, 106700, Control_c, 0, 64, 61
2, 106716, Control_c, 0, 64, 64
2, 106725, Note_on_c, 0, 61, 0
2, 106736, Control_c, 0, 64, 66
2, 106737, Note_on_c, 0, 65, 0
2, 106754, Control_c, 0, 64, 67
2, 106760, Note_on_c, 0, 71, 70
2, 106809, Control_c, 0, 64, 69
2, 106883, Note_on_c, 0, 70, 0
2, 106907, Control_c, 0, 64, 71
2, 106957, Control_c, 0, 64, 69
2, 106977, Control_c, 0, 64, 65
2, 106997, Control_c, 0, 64, 60
2, 107009, Note_on_c, 0, 66, 67
2, 107014, Note_on_c, 0, 54, 63
2, 107016, Control_c, 0, 64, 52
2, 107035, Control_c, 0, 64, 44
2, 107054, Control_c, 0, 64, 36
2, 107074, Control_c, 0, 64, 28
2, 107092, Control_c, 0, 64, 24
2, 107171, Note_on_c, 0, 71, 0
2, 107197, Note_on_c, 0, 70, 73
2, 107216, Note_on_c, 0, 54, 0
2, 107404, Note_on_c, 0, 53, 71
2, 107424, Note_on_c, 0, 72, 78
2, 107467, Note_on_c, 0, 70, 0
2, 107468, Note_on_c, 0, 66, 0
2, 107592, Note_on_c, 0, 53, 0
2, 107631, Note_on_c, 0, 74, 78
2, 107641, Note_on_c, 0, 72, 0
2, 107840, Note_on_c, 0, 54, 62
2, 107849, Note_on_c, 0, 75, 72
2, 107880, Note_on_c, 0, 74, 0
2, 108058, Note_on_c, 0, 54, 0
2, 108071, Note_on_c, 0, 77, 75
2, 108128, Note_on_c, 0, 75, 0
2, 108270, Note_on_c, 0, 51, 65
2, 108279, Note_on_c, 0, 72, 78
2, 108279, Note_on_c, 0, 78, 68
2, 108300, Note_on_c, 0, 77, 0
2, 108384, Note_on_c, 0, 51, 0
2, 108487, Note_on_c, 0, 75, 75
2, 108520, Note_on_c, 0, 78, 0
2, 108555, Note_on_c, 0, 72, 0
2, 108730, Note_on_c, 0, 58, 66
2, 108733, Control_c, 0, 64, 17
2, 108733, Note_on_c, 0, 77, 70
2, 108734, Note_on_c, 0, 73, 64
2, 108772, Control_c, 0, 64, 0
2, 108787, Note_on_c, 0, 75, 0
2, 108880, Control_c, 0, 64, 24
2, 108899, Control_c, 0, 64, 44
2, 108919, Control_c, 0, 64, 61
2, 108938, Control_c, 0, 64, 70
2, 108947, Note_on_c, 0, 77, 0
2, 108957, Note_on_c, 0, 72, 74
2, 108958, Control_c, 0, 64, 77
2, 108969, Note_on_c, 0, 73, 0
2, 108975, Control_c, 0, 64, 84
2, 108995, Control_c, 0, 64, 91
2, 109014, Control_c, 0, 64, 97
2, 109033, Control_c, 0, 64, 103
2, 109096, Note_on_c, 0, 58, 0
2, 109148, Control_c, 0, 64, 96
2, 109165, Note_on_c, 0, 70, 76
2, 109166, Control_c, 0, 64, 85
2, 109182, Note_on_c, 0, 65, 65
2, 109184, Note_on_c, 0, 61, 56
2, 109185, Control_c, 0, 64, 69
2, 109203, Control_c, 0, 64, 47
2, 109209, Note_on_c, 0, 72, 0
2, 109222, Control_c, 0, 64, 28
2, 109243, Control_c, 0, 64, 24
2, 109282, Control_c, 0, 64, 39
2, 109302, Control_c, 0, 64, 59
2, 109316, Note_on_c, 0, 65, 0
2, 109319, Control_c, 0, 64, 71
2, 109340, Control_c, 0, 64, 77
2, 109358, Control_c, 0, 64, 79
2, 109379, Note_on_c, 0, 69, 76
2, 109385, Note_on_c, 0, 61, 0
2, 109444, Note_on_c, 0, 70, 0
2, 109583, Note_on_c, 0, 54, 48
2, 109601, Note_on_c, 0, 70, 70
2, 109602, Control_c, 0, 64, 77
2, 109622, Control_c, 0, 64, 72
2, 109641, Control_c, 0, 64, 66
2, 109662, Control_c, 0, 64, 58
2, 109676, Control_c, 0, 64, 49
2, 109680, Note_on_c, 0, 69, 0
2, 109697, Control_c, 0, 64, 42
2, 109736, Control_c, 0, 64, 38
2, 109777, Note_on_c, 0, 54, 0
2, 109796, Note_on_c, 0, 53, 62
2, 110017, Note_on_c, 0, 65, 73
2, 110028, Note_on_c, 0, 51, 62
2, 110041, Note_on_c, 0, 53, 0
2, 110231, Note_on_c, 0, 49, 62
2, 110241, Note_on_c, 0, 51, 0
2, 110450, Note_on_c, 0, 66, 75
2, 110470, Note_on_c, 0, 51, 60
2, 110485, Note_on_c, 0, 49, 0
2, 110503, Note_on_c, 0, 65, 0
2, 110666, Note_on_c, 0, 48, 62
2, 110674, Note_on_c, 0, 51, 0
2, 110892, Note_on_c, 0, 63, 71
2, 110893, Note_on_c, 0, 49, 62
2, 110920, Note_on_c, 0, 48, 0
2, 110969, Note_on_c, 0, 66, 0
2, 111086, Note_on_c, 0, 51, 57
2, 111138, Note_on_c, 0, 49, 0
2, 111314, Note_on_c, 0, 69, 65
2, 111315, Note_on_c, 0, 60, 64
2, 111333, Control_c, 0, 64, 34
2, 111342, Note_on_c, 0, 53, 48
2, 111347, Note_on_c, 0, 63, 0
2, 111381, Note_on_c, 0, 51, 0
2, 111420, Note_on_c, 0, 70, 0
2, 111517, Note_on_c, 0, 53, 0
2, 111518, Note_on_c, 0, 51, 62
2, 111726, Note_on_c, 0, 49, 59
2, 111731, Note_on_c, 0, 65, 66
2, 111770, Note_on_c, 0, 60, 0
2, 111785, Note_on_c, 0, 51, 0
2, 111949, Note_on_c, 0, 48, 57
2, 111967, Note_on_c, 0, 49, 0
2, 112186, Note_on_c, 0, 70, 64
2, 112200, Note_on_c, 0, 46, 56
2, 112212, Note_on_c, 0, 48, 0
2, 112212, Note_on_c, 0, 61, 41
2, 112220, Note_on_c, 0, 65, 0
2, 112244, Note_on_c, 0, 69, 0
2, 112367, Control_c, 0, 64, 39
2, 112388, Control_c, 0, 64, 50
2, 112403, Note_on_c, 0, 69, 65
2, 112403, Note_on_c, 0, 70, 0
2, 112406, Control_c, 0, 64, 57
2, 112416, Note_on_c, 0, 61, 0
2, 112425, Control_c, 0, 64, 61
2, 112445, Control_c, 0, 64, 64
2, 112464, Control_c, 0, 64, 67
2, 112481, Control_c, 0, 64, 71
2, 112500, Control_c, 0, 64, 76
2, 112520, Control_c, 0, 64, 82
2, 112540, Control_c, 0, 64, 87
2, 112595, Control_c, 0, 64, 85
2, 112614, Control_c, 0, 64, 80
2, 112617, Note_on_c, 0, 58, 59
2, 112629, Note_on_c, 0, 70, 63
2, 112632, Control_c, 0, 64, 76
2, 112640, Note_on_c, 0, 69, 0
2, 112691, Control_c, 0, 64, 80
2, 112723, Control_c, 0, 64, 87
2, 112743, Control_c, 0, 64, 92
2, 112762, Control_c, 0, 64, 98
2, 112781, Control_c, 0, 64, 102
2, 112791, Note_on_c, 0, 70, 0
2, 112817, Control_c, 0, 64, 106
2, 112827, Note_on_c, 0, 72, 66
2, 112870, Note_on_c, 0, 72, 0
2, 113057, Note_on_c, 0, 70, 73
2, 113057, Note_on_c, 0, 73, 65
2, 113069, Control_c, 0, 64, 94
2, 113080, Note_on_c, 0, 58, 0
2, 113087, Control_c, 0, 64, 82
2, 113110, Control_c, 0, 64, 68
2, 113127, Control_c, 0, 64, 53
2, 113146, Control_c, 0, 64, 45
2, 113165, Control_c, 0, 64, 43
2, 113234, Note_on_c, 0, 73, 0
2, 113243, Note_on_c, 0, 75, 67
2, 113253, Note_on_c, 0, 48, 58
2, 113307, Note_on_c, 0, 70, 0
2, 113332, Note_on_c, 0, 46, 0
2, 113456, Note_on_c, 0, 48, 0
2, 113462, Note_on_c, 0, 49, 66
2, 113468, Note_on_c, 0, 77, 72
2, 113478, Note_on_c, 0, 70, 66
2, 113511, Note_on_c, 0, 75, 0
2, 113676, Note_on_c, 0, 77, 0
2, 113694, Note_on_c, 0, 46, 65
2, 113698, Note_on_c, 0, 73, 66
2, 113725, Note_on_c, 0, 70, 0
2, 113739, Note_on_c, 0, 49, 0
2, 113861, Control_c, 0, 64, 41
2, 113910, Note_on_c, 0, 70, 67
2, 113913, Note_on_c, 0, 75, 75
2, 113914, Note_on_c, 0, 73, 0
2, 113921, Note_on_c, 0, 48, 62
2, 113977, Note_on_c, 0, 46, 0
2, 114110, Note_on_c, 0, 73, 63
2, 114113, Note_on_c, 0, 49, 56
2, 114122, Note_on_c, 0, 48, 0
2, 114204, Note_on_c, 0, 75, 0
2, 114319, Control_c, 0, 64, 36
2, 114336, Control_c, 0, 64, 28
2, 114342, Note_on_c, 0, 72, 69
2, 114353, Note_on_c, 0, 69, 69
2, 114356, Control_c, 0, 64, 14
2, 114357, Note_on_c, 0, 51, 71
2, 114373, Note_on_c, 0, 70, 0
2, 114375, Control_c, 0, 64, 0
2, 114378, Note_on_c, 0, 73, 0
2, 114401, Note_on_c, 0, 49, 0
2, 114452, Control_c, 0, 64, 30
2, 114470, Control_c, 0, 64, 53
2, 114488, Control_c, 0, 64, 69
2, 114509, Control_c, 0, 64, 82
2, 114527, Control_c, 0, 64, 93
2, 114530, Note_on_c, 0, 70, 77
2, 114535, Note_on_c, 0, 69, 0
2, 114538, Note_on_c, 0, 72, 0
2, 114541, Note_on_c, 0, 73, 75
2, 114546, Control_c, 0, 64, 102
2, 114565, Control_c, 0, 64, 108
2, 114586, Control_c, 0, 64, 112
2, 114587, Note_on_c, 0, 70, 0
2, 114608, Note_on_c, 0, 73, 0
2, 114637, Control_c, 0, 64, 118
2, 114676, Control_c, 0, 64, 122
2, 114767, Control_c, 0, 64, 112
2, 114775, Note_on_c, 0, 45, 60
2, 114775, Note_on_c, 0, 72, 75
2, 114777, Note_on_c, 0, 75, 74
2, 114788, Control_c, 0, 64, 101
2, 114807, Control_c, 0, 64, 84
2, 114829, Control_c, 0, 64, 64
2, 114849, Control_c, 0, 64, 44
2, 114867, Control_c, 0, 64, 35
2, 114869, Note_on_c, 0, 51, 0
2, 114973, Note_on_c, 0, 77, 72
2, 115023, Note_on_c, 0, 72, 0
2, 115032, Note_on_c, 0, 75, 0
2, 115179, Note_on_c, 0, 78, 76
2, 115184, Note_on_c, 0, 46, 62
2, 115189, Note_on_c, 0, 72, 67
2, 115211, Note_on_c, 0, 77, 0
2, 115249, Note_on_c, 0, 45, 0
2, 115390, Note_on_c, 0, 75, 75
2, 115392, Note_on_c, 0, 48, 67
2, 115414, Note_on_c, 0, 78, 0
2, 115438, Note_on_c, 0, 46, 0
2, 115439, Note_on_c, 0, 72, 0
2, 115625, Note_on_c, 0, 49, 67
2, 115629, Note_on_c, 0, 72, 67
2, 115630, Note_on_c, 0, 48, 0
2, 115635, Note_on_c, 0, 77, 77
2, 115680, Note_on_c, 0, 75, 0
2, 115836, Note_on_c, 0, 51, 64
2, 115851, Note_on_c, 0, 49, 0
2, 116057, Note_on_c, 0, 49, 67
2, 116060, Note_on_c, 0, 70, 74
2, 116070, Note_on_c, 0, 72, 0
2, 116072, Note_on_c, 0, 51, 0
2, 116250, Note_on_c, 0, 48, 72
2, 116255, Note_on_c, 0, 72, 78
2, 116256, Note_on_c, 0, 70, 0
2, 116261, Note_on_c, 0, 49, 0
2, 116447, Control_c, 0, 64, 28
2, 116465, Control_c, 0, 64, 19
2, 116482, Note_on_c, 0, 46, 76
2, 116482, Note_on_c, 0, 73, 81
2, 116485, Control_c, 0, 64, 8
2, 116504, Control_c, 0, 64, 0
2, 116516, Note_on_c, 0, 48, 0
2, 116537, Note_on_c, 0, 72, 0
2, 116608, Note_on_c, 0, 77, 0
2, 116613, Control_c, 0, 64, 21
2, 116630, Control_c, 0, 64, 43
2, 116650, Control_c, 0, 64, 64
2, 116658, Note_on_c, 0, 73, 0
2, 116668, Control_c, 0, 64, 78
2, 116689, Control_c, 0, 64, 92
2, 116706, Note_on_c, 0, 44, 75
2, 116707, Control_c, 0, 64, 105
2, 116726, Control_c, 0, 64, 114
2, 116745, Control_c, 0, 64, 121
2, 116762, Note_on_c, 0, 46, 0
2, 116764, Control_c, 0, 64, 125
2, 116919, Note_on_c, 0, 82, 78
2, 116922, Note_on_c, 0, 73, 73
2, 116935, Note_on_c, 0, 42, 71
2, 116972, Note_on_c, 0, 44, 0
2, 116992, Control_c, 0, 64, 119
2, 117011, Control_c, 0, 64, 109
2, 117027, Control_c, 0, 64, 98
2, 117047, Control_c, 0, 64, 85
2, 117065, Control_c, 0, 64, 72
2, 117086, Control_c, 0, 64, 60
2, 117102, Control_c, 0, 64, 52
2, 117117, Note_on_c, 0, 46, 73
2, 117121, Control_c, 0, 64, 50
2, 117123, Note_on_c, 0, 77, 81
2, 117137, Note_on_c, 0, 42, 0
2, 117160, Control_c, 0, 64, 48
2, 117163, Note_on_c, 0, 73, 0
2, 117165, Note_on_c, 0, 82, 0
2, 117200, Control_c, 0, 64, 43
2, 117217, Control_c, 0, 64, 37
2, 117238, Control_c, 0, 64, 30
2, 117257, Control_c, 0, 64, 22
2, 117292, Control_c, 0, 64, 0
2, 117344, Note_on_c, 0, 39, 72
2, 117349, Note_on_c, 0, 73, 73
2, 117352, Note_on_c, 0, 78, 78
2, 117385, Note_on_c, 0, 77, 0
2, 117407, Control_c, 0, 64, 11
2, 117410, Note_on_c, 0, 46, 0
2, 117424, Control_c, 0, 64, 38
2, 117444, Control_c, 0, 64, 59
2, 117463, Control_c, 0, 64, 76
2, 117473, Note_on_c, 0, 39, 0
2, 117482, Control_c, 0, 64, 94
2, 117515, Control_c, 0, 64, 114
2, 117534, Control_c, 0, 64, 126
2, 117577, Note_on_c, 0, 80, 76
2, 117616, Note_on_c, 0, 73, 0
2, 117622, Note_on_c, 0, 78, 0
2, 117783, Note_on_c, 0, 78, 75
2, 117792, Note_on_c, 0, 58, 80
2, 117799, Control_c, 0, 64, 122
2, 117818, Control_c, 0, 64, 111
2, 117836, Control_c, 0, 64, 97
2, 117857, Control_c, 0, 64, 79
2, 117874, Control_c, 0, 64, 60
2, 117894, Control_c, 0, 64, 48
2, 117914, Control_c, 0, 64, 46
2, 117942, Note_on_c, 0, 80, 0
2, 117975, Note_on_c, 0, 77, 74
2, 117976, Note_on_c, 0, 78, 0
2, 118021, Note_on_c, 0, 76, 42
2, 118065, Note_on_c, 0, 76, 0
2, 118200, Note_on_c, 0, 75, 71
2, 118201, Note_on_c, 0, 60, 80
2, 118216, Note_on_c, 0, 77, 0
2, 118243, Note_on_c, 0, 58, 0
2, 118407, Note_on_c, 0, 73, 77
2, 118471, Control_c, 0, 64, 48
2, 118484, Note_on_c, 0, 75, 0
2, 118566, Control_c, 0, 64, 46
2, 118586, Control_c, 0, 64, 42
2, 118598, Note_on_c, 0, 60, 0
2, 118604, Control_c, 0, 64, 32
2, 118621, Note_on_c, 0, 72, 69
2, 118623, Control_c, 0, 64, 16
2, 118623, Note_on_c, 0, 63, 81
2, 118643, Control_c, 0, 64, 0
2, 118659, Note_on_c, 0, 73, 0
2, 118719, Control_c, 0, 64, 27
2, 118737, Control_c, 0, 64, 52
2, 118756, Control_c, 0, 64, 72
2, 118776, Control_c, 0, 64, 87
2, 118793, Control_c, 0, 64, 102
2, 118810, Note_on_c, 0, 75, 81
2, 118811, Control_c, 0, 64, 110
2, 118813, Note_on_c, 0, 63, 0
2, 118817, Note_on_c, 0, 72, 0
2, 118830, Control_c, 0, 64, 114
2, 118888, Control_c, 0, 64, 118
2, 118963, Control_c, 0, 64, 123
2, 119046, Note_on_c, 0, 63, 74
2, 119056, Control_c, 0, 64, 116
2, 119056, Note_on_c, 0, 69, 80
2, 119076, Control_c, 0, 64, 108
2, 119096, Control_c, 0, 64, 95
2, 119111, Note_on_c, 0, 75, 0
2, 119114, Control_c, 0, 64, 78
2, 119134, Control_c, 0, 64, 59
2, 119153, Control_c, 0, 64, 41
2, 119173, Control_c, 0, 64, 33
2, 119228, Note_on_c, 0, 54, 69
2, 119433, Control_c, 0, 64, 25
2, 119450, Control_c, 0, 64, 16
2, 119452, Note_on_c, 0, 63, 0
2, 119470, Control_c, 0, 64, 0
2, 119477, Note_on_c, 0, 72, 80
2, 119478, Note_on_c, 0, 57, 68
2, 119484, Note_on_c, 0, 53, 69
2, 119507, Note_on_c, 0, 54, 0
2, 119546, Note_on_c, 0, 69, 0
2, 119583, Control_c, 0, 64, 16
2, 119603, Control_c, 0, 64, 35
2, 119621, Control_c, 0, 64, 55
2, 119621, Note_on_c, 0, 57, 0
2, 119640, Control_c, 0, 64, 67
2, 119659, Control_c, 0, 64, 74
2, 119676, Control_c, 0, 64, 81
2, 119679, Note_on_c, 0, 51, 70
2, 119696, Control_c, 0, 64, 89
2, 119697, Note_on_c, 0, 53, 0
2, 119716, Control_c, 0, 64, 95
2, 119734, Control_c, 0, 64, 102
2, 119753, Control_c, 0, 64, 108
2, 119771, Control_c, 0, 64, 114
2, 119809, Control_c, 0, 64, 118
2, 119867, Control_c, 0, 64, 110
2, 119882, Note_on_c, 0, 51, 0
2, 119885, Control_c, 0, 64, 97
2, 119893, Note_on_c, 0, 77, 80
2, 119894, Note_on_c, 0, 58, 64
2, 119901, Note_on_c, 0, 49, 67
2, 119903, Control_c, 0, 64, 77
2, 119923, Control_c, 0, 64, 48
2, 119941, Control_c, 0, 64, 0
2, 119996, Note_on_c, 0, 72, 0
2, 120016, Control_c, 0, 64, 16
2, 120035, Control_c, 0, 64, 47
2, 120055, Control_c, 0, 64, 70
2, 120074, Control_c, 0, 64, 85
2, 120075, Note_on_c, 0, 77, 0
2, 120092, Control_c, 0, 64, 98
2, 120098, Note_on_c, 0, 48, 71
2, 120113, Control_c, 0, 64, 104
2, 120141, Note_on_c, 0, 49, 0
2, 120148, Control_c, 0, 64, 111
2, 120188, Control_c, 0, 64, 115
2, 120243, Control_c, 0, 64, 105
2, 120263, Control_c, 0, 64, 91
2, 120282, Control_c, 0, 64, 73
2, 120298, Control_c, 0, 64, 47
2, 120305, Note_on_c, 0, 73, 71
2, 120317, Note_on_c, 0, 70, 78
2, 120319, Note_on_c, 0, 46, 73
2, 120339, Control_c, 0, 64, 0
2, 120353, Note_on_c, 0, 48, 0
2, 120396, Note_on_c, 0, 58, 0
2, 120466, Control_c, 0, 64, 17
2, 120485, Control_c, 0, 64, 54
2, 120505, Control_c, 0, 64, 75
2, 120521, Note_on_c, 0, 70, 0
2, 120524, Control_c, 0, 64, 93
2, 120535, Note_on_c, 0, 49, 72
2, 120543, Control_c, 0, 64, 109
2, 120543, Note_on_c, 0, 46, 0
2, 120562, Control_c, 0, 64, 116
2, 120567, Note_on_c, 0, 73, 0
2, 120599, Control_c, 0, 64, 123
2, 120636, Control_c, 0, 64, 127
2, 120772, Note_on_c, 0, 70, 76
2, 120772, Note_on_c, 0, 75, 74
2, 120783, Note_on_c, 0, 42, 80
2, 120788, Control_c, 0, 64, 123
2, 120808, Control_c, 0, 64, 108
2, 120826, Control_c, 0, 64, 89
2, 120836, Note_on_c, 0, 49, 0
2, 120844, Control_c, 0, 64, 64
2, 120863, Control_c, 0, 64, 35
2, 120883, Control_c, 0, 64, 18
2, 120973, Note_on_c, 0, 77, 69
2, 121041, Note_on_c, 0, 75, 0
2, 121045, Note_on_c, 0, 42, 0
2, 121050, Control_c, 0, 64, 14
2, 121184, Control_c, 0, 64, 0
2, 121198, Note_on_c, 0, 39, 73
2, 121212, Note_on_c, 0, 78, 73
2, 121246, Note_on_c, 0, 77, 0
2, 121424, Note_on_c, 0, 39, 0
2, 121425, Note_on_c, 0, 75, 80
2, 121474, Note_on_c, 0, 70, 0
2, 121496, Note_on_c, 0, 78, 0
2, 121623, Note_on_c, 0, 41, 75
2, 121638, Note_on_c, 0, 69, 68
2, 121639, Note_on_c, 0, 72, 74
2, 121677, Note_on_c, 0, 75, 0
2, 121785, Control_c, 0, 64, 11
2, 121836, Note_on_c, 0, 78, 73
2, 121920, Note_on_c, 0, 41, 0
2, 121954, Control_c, 0, 64, 0
2, 122052, Note_on_c, 0, 77, 66
2, 122066, Control_c, 0, 64, 14
2, 122066, Note_on_c, 0, 53, 65
2, 122086, Control_c, 0, 64, 42
2, 122107, Control_c, 0, 64, 64
2, 122125, Control_c, 0, 64, 80
2, 122133, Note_on_c, 0, 72, 0
2, 122142, Control_c, 0, 64, 98
2, 122156, Note_on_c, 0, 53, 0
2, 122161, Control_c, 0, 64, 114
2, 122182, Control_c, 0, 64, 124
2, 122211, Note_on_c, 0, 78, 0
2, 122223, Note_on_c, 0, 69, 0
2, 122234, Note_on_c, 0, 75, 68
2, 122239, Note_on_c, 0, 77, 0
2, 122266, Note_on_c, 0, 75, 0
2, 122480, Control_c, 0, 64, 118
2, 122500, Control_c, 0, 64, 114
2, 122518, Control_c, 0, 64, 109
2, 122538, Control_c, 0, 64, 101
2, 122555, Control_c, 0, 64, 88
2, 122576, Control_c, 0, 64, 71
2, 122592, Control_c, 0, 64, 53
2, 122598, Note_on_c, 0, 46, 44
2, 122606, Note_on_c, 0, 73, 56
2, 122611, Control_c, 0, 64, 42
2, 122631, Control_c, 0, 64, 37
2, 122634, Note_on_c, 0, 70, 43
2, 122669, Control_c, 0, 64, 31
2, 122766, Control_c, 0, 64, 27
2, 122819, Note_on_c, 0, 70, 0
2, 122824, Note_on_c, 0, 65, 43
2, 122829, Note_on_c, 0, 48, 49
2, 122863, Note_on_c, 0, 46, 0
2, 122896, Control_c, 0, 64, 22
2, 123001, Note_on_c, 0, 65, 0
2, 123018, Note_on_c, 0, 48, 0
2, 123044, Note_on_c, 0, 70, 48
2, 123046, Note_on_c, 0, 49, 52
2, 123047, Control_c, 0, 64, 18
2, 123277, Note_on_c, 0, 49, 0
2, 123277, Note_on_c, 0, 51, 53
2, 123470, Note_on_c, 0, 51, 0
2, 123487, Note_on_c, 0, 72, 60
2, 123494, Note_on_c, 0, 53, 39
2, 123534, Note_on_c, 0, 73, 0
2, 123675, Note_on_c, 0, 53, 0
2, 123680, Note_on_c, 0, 54, 50
2, 123892, Note_on_c, 0, 54, 0
2, 123902, Note_on_c, 0, 70, 0
2, 123910, Note_on_c, 0, 56, 47
2, 123910, Note_on_c, 0, 68, 47
2, 123921, Note_on_c, 0, 77, 62
2, 123956, Note_on_c, 0, 72, 0
2, 124057, Note_on_c, 0, 77, 0
2, 124106, Note_on_c, 0, 56, 0
2, 124127, Note_on_c, 0, 53, 43
2, 124351, Note_on_c, 0, 53, 0
2, 124352, Note_on_c, 0, 54, 43
2, 124359, Note_on_c, 0, 70, 58
2, 124546, Note_on_c, 0, 68, 0
2, 124555, Note_on_c, 0, 61, 49
2, 124560, Note_on_c, 0, 54, 0
2, 124569, Note_on_c, 0, 56, 39
2, 124789, Note_on_c, 0, 56, 0
2, 124790, Note_on_c, 0, 66, 57
2, 124792, Note_on_c, 0, 61, 0
2, 124801, Note_on_c, 0, 58, 45
2, 124995, Note_on_c, 0, 58, 0
2, 125007, Note_on_c, 0, 60, 51
2, 125215, Note_on_c, 0, 60, 0
2, 125227, Note_on_c, 0, 68, 62
2, 125236, Note_on_c, 0, 61, 47
2, 125296, Note_on_c, 0, 70, 0
2, 125411, Note_on_c, 0, 61, 0
2, 125450, Note_on_c, 0, 63, 48
2, 125661, Note_on_c, 0, 73, 66
2, 125686, Note_on_c, 0, 61, 54
2, 125687, Note_on_c, 0, 63, 0
2, 125692, Note_on_c, 0, 65, 43
2, 125725, Note_on_c, 0, 68, 0
2, 125753, Note_on_c, 0, 66, 0
2, 125843, Note_on_c, 0, 73, 0
2, 125845, Note_on_c, 0, 61, 0
2, 125883, Note_on_c, 0, 60, 48
2, 126087, Note_on_c, 0, 66, 63
2, 126100, Note_on_c, 0, 60, 0
2, 126113, Note_on_c, 0, 58, 40
2, 126326, Note_on_c, 0, 56, 44
2, 126360, Note_on_c, 0, 58, 0
2, 126525, Note_on_c, 0, 56, 0
2, 126534, Note_on_c, 0, 63, 53
2, 126548, Note_on_c, 0, 54, 41
2, 126548, Note_on_c, 0, 65, 0
2, 126713, Note_on_c, 0, 54, 0
2, 126738, Note_on_c, 0, 61, 48
2, 126771, Note_on_c, 0, 53, 32
2, 126804, Note_on_c, 0, 63, 0
2, 126955, Note_on_c, 0, 53, 0
2, 126967, Note_on_c, 0, 60, 51
2, 126980, Note_on_c, 0, 51, 42
2, 127025, Note_on_c, 0, 61, 0
2, 127148, Note_on_c, 0, 60, 0
2, 127202, Note_on_c, 0, 51, 0
2, 127217, Note_on_c, 0, 53, 34
2, 127417, Note_on_c, 0, 58, 52
2, 127424, Note_on_c, 0, 54, 40
2, 127428, Note_on_c, 0, 53, 0
2, 127530, Note_on_c, 0, 58, 0
2, 127606, Note_on_c, 0, 54, 0
2, 127614, Note_on_c, 0, 51, 44
2, 127850, Note_on_c, 0, 57, 55
2, 127868, Note_on_c, 0, 53, 48
2, 127871, Note_on_c, 0, 51, 0
2, 128046, Note_on_c, 0, 65, 45
2, 128125, Note_on_c, 0, 66, 0
2, 128131, Note_on_c, 0, 57, 0
2, 128291, Note_on_c, 0, 63, 57
2, 128295, Note_on_c, 0, 58, 56
2, 128346, Note_on_c, 0, 65, 0
2, 128497, Note_on_c, 0, 61, 53
2, 128551, Note_on_c, 0, 63, 0
2, 128732, Note_on_c, 0, 60, 61
2, 128760, Note_on_c, 0, 61, 0
2, 128922, Note_on_c, 0, 61, 55
2, 128967, Note_on_c, 0, 60, 0
2, 128989, Note_on_c, 0, 58, 0
2, 129161, Note_on_c, 0, 63, 53
2, 129174, Note_on_c, 0, 57, 44
2, 129174, Note_on_c, 0, 61, 0
2, 129351, Note_on_c, 0, 57, 0
2, 129369, Note_on_c, 0, 60, 54
2, 129381, Note_on_c, 0, 63, 0
2, 129593, Note_on_c, 0, 60, 0
2, 129595, Note_on_c, 0, 61, 59
2, 129605, Note_on_c, 0, 58, 42
2, 129797, Note_on_c, 0, 63, 61
2, 129800, Note_on_c, 0, 60, 52
2, 129823, Note_on_c, 0, 61, 0
2, 129832, Note_on_c, 0, 58, 0
2, 130028, Note_on_c, 0, 61, 54
2, 130029, Note_on_c, 0, 63, 0
2, 130038, Note_on_c, 0, 65, 61
2, 130061, Note_on_c, 0, 60, 0
2, 130233, Note_on_c, 0, 67, 64
2, 130236, Note_on_c, 0, 58, 59
2, 130244, Note_on_c, 0, 61, 0
2, 130286, Note_on_c, 0, 65, 0
2, 130461, Note_on_c, 0, 60, 56
2, 130461, Note_on_c, 0, 69, 63
2, 130476, Control_c, 0, 64, 22
2, 130483, Note_on_c, 0, 58, 0
2, 130513, Note_on_c, 0, 67, 0
2, 130618, Note_on_c, 0, 60, 0
2, 130637, Note_on_c, 0, 61, 64
2, 130657, Note_on_c, 0, 70, 66
2, 130703, Note_on_c, 0, 69, 0
2, 130864, Note_on_c, 0, 72, 66
2, 130872, Note_on_c, 0, 63, 57
2, 130875, Note_on_c, 0, 61, 0
2, 130903, Note_on_c, 0, 70, 0
2, 131073, Note_on_c, 0, 69, 64
2, 131078, Note_on_c, 0, 63, 0
2, 131081, Note_on_c, 0, 60, 65
2, 131082, Note_on_c, 0, 72, 0
2, 131292, Note_on_c, 0, 70, 70
2, 131293, Note_on_c, 0, 60, 0
2, 131295, Note_on_c, 0, 61, 66
2, 131351, Note_on_c, 0, 69, 0
2, 131490, Note_on_c, 0, 63, 71
2, 131501, Note_on_c, 0, 61, 0
2, 131511, Note_on_c, 0, 72, 70
2, 131565, Note_on_c, 0, 70, 0
2, 131642, Control_c, 0, 64, 16
2, 131660, Control_c, 0, 64, 11
2, 131678, Control_c, 0, 64, 0
2, 131717, Note_on_c, 0, 65, 72
2, 131721, Note_on_c, 0, 73, 72
2, 131729, Note_on_c, 0, 72, 0
2, 131800, Note_on_c, 0, 63, 0
2, 131827, Control_c, 0, 64, 16
2, 131827, Note_on_c, 0, 53, 0
2, 131848, Control_c, 0, 64, 38
2, 131866, Control_c, 0, 64, 57
2, 131886, Control_c, 0, 64, 67
2, 131889, Note_on_c, 0, 65, 0
2, 131917, Control_c, 0, 64, 73
2, 131927, Note_on_c, 0, 70, 76
2, 131935, Note_on_c, 0, 67, 69
2, 131938, Control_c, 0, 64, 80
2, 131938, Note_on_c, 0, 73, 0
2, 131957, Control_c, 0, 64, 88
2, 131975, Control_c, 0, 64, 95
2, 131992, Control_c, 0, 64, 100
2, 132032, Control_c, 0, 64, 104
2, 132057, Note_on_c, 0, 67, 0
2, 132154, Note_on_c, 0, 72, 68
2, 132157, Note_on_c, 0, 69, 77
2, 132164, Note_on_c, 0, 65, 69
2, 132183, Note_on_c, 0, 70, 0
2, 132201, Control_c, 0, 64, 95
2, 132219, Control_c, 0, 64, 87
2, 132239, Control_c, 0, 64, 75
2, 132258, Control_c, 0, 64, 60
2, 132277, Control_c, 0, 64, 44
2, 132294, Control_c, 0, 64, 33
2, 132332, Control_c, 0, 64, 29
2, 132350, Note_on_c, 0, 73, 72
2, 132365, Note_on_c, 0, 72, 0
2, 132385, Note_on_c, 0, 70, 76
2, 132409, Note_on_c, 0, 69, 0
2, 132562, Note_on_c, 0, 75, 75
2, 132583, Note_on_c, 0, 72, 69
2, 132594, Note_on_c, 0, 73, 0
2, 132613, Note_on_c, 0, 70, 0
2, 132616, Control_c, 0, 64, 25
2, 132666, Note_on_c, 0, 72, 0
2, 132765, Note_on_c, 0, 72, 74
2, 132774, Note_on_c, 0, 69, 69
2, 132796, Note_on_c, 0, 75, 0
2, 132827, Control_c, 0, 64, 29
2, 132978, Note_on_c, 0, 73, 77
2, 132983, Note_on_c, 0, 70, 69
2, 133018, Note_on_c, 0, 69, 0
2, 133020, Note_on_c, 0, 72, 0
2, 133187, Note_on_c, 0, 75, 75
2, 133189, Note_on_c, 0, 72, 70
2, 133222, Note_on_c, 0, 70, 0
2, 133267, Note_on_c, 0, 73, 0
2, 133401, Note_on_c, 0, 77, 77
2, 133405, Note_on_c, 0, 73, 75
2, 133408, Note_on_c, 0, 75, 0
2, 133428, Note_on_c, 0, 72, 0
2, 133592, Note_on_c, 0, 79, 81
2, 133599, Note_on_c, 0, 70, 69
2, 133610, Note_on_c, 0, 73, 0
2, 133643, Note_on_c, 0, 77, 0
2, 133819, Note_on_c, 0, 81, 80
2, 133825, Note_on_c, 0, 72, 68
2, 133861, Note_on_c, 0, 70, 0
2, 133902, Note_on_c, 0, 79, 0
2, 134001, Note_on_c, 0, 72, 0
2, 134009, Note_on_c, 0, 82, 81
2, 134013, Note_on_c, 0, 73, 69
2, 134081, Note_on_c, 0, 81, 0
2, 134221, Note_on_c, 0, 84, 81
2, 134223, Note_on_c, 0, 75, 70
2, 134225, Note_on_c, 0, 73, 0
2, 134236, Control_c, 0, 64, 22
2, 134256, Control_c, 0, 64, 16
2, 134274, Control_c, 0, 64, 12
2, 134277, Note_on_c, 0, 82, 0
2, 134370, Control_c, 0, 64, 19
2, 134388, Control_c, 0, 64, 44
2, 134405, Note_on_c, 0, 75, 0
2, 134406, Control_c, 0, 64, 65
2, 134419, Note_on_c, 0, 72, 66
2, 134421, Note_on_c, 0, 81, 81
2, 134426, Control_c, 0, 64, 78
2, 134433, Note_on_c, 0, 84, 0
2, 134446, Control_c, 0, 64, 91
2, 134463, Control_c, 0, 64, 102
2, 134471, Note_on_c, 0, 81, 0
2, 134481, Control_c, 0, 64, 110
2, 134501, Control_c, 0, 64, 116
2, 134520, Control_c, 0, 64, 120
2, 134558, Control_c, 0, 64, 125
2, 134672, Note_on_c, 0, 82, 81
2, 134689, Note_on_c, 0, 72, 0
2, 134689, Note_on_c, 0, 74, 61
2, 134728, Control_c, 0, 64, 120
2, 134755, Note_on_c, 0, 74, 0
2, 134767, Control_c, 0, 64, 114
2, 134802, Control_c, 0, 64, 108
2, 134821, Control_c, 0, 64, 98
2, 134841, Control_c, 0, 64, 86
2, 134859, Control_c, 0, 64, 71
2, 134876, Control_c, 0, 64, 56
2, 134888, Note_on_c, 0, 66, 64
2, 134890, Note_on_c, 0, 72, 67
2, 134896, Control_c, 0, 64, 49
2, 134914, Control_c, 0, 64, 47
2, 134929, Note_on_c, 0, 65, 0
2, 134932, Control_c, 0, 64, 44
2, 134951, Control_c, 0, 64, 39
2, 134970, Control_c, 0, 64, 33
2, 135066, Control_c, 0, 64, 28
2, 135075, Note_on_c, 0, 66, 0
2, 135083, Note_on_c, 0, 65, 70
2, 135092, Note_on_c, 0, 74, 80
2, 135166, Note_on_c, 0, 72, 0
2, 135285, Note_on_c, 0, 63, 73
2, 135288, Note_on_c, 0, 75, 76
2, 135332, Note_on_c, 0, 65, 0
2, 135359, Note_on_c, 0, 74, 0
2, 135493, Note_on_c, 0, 62, 69
2, 135513, Note_on_c, 0, 77, 77
2, 135524, Note_on_c, 0, 63, 0
2, 135540, Note_on_c, 0, 75, 0
2, 135706, Note_on_c, 0, 60, 65
2, 135708, Note_on_c, 0, 78, 73
2, 135772, Note_on_c, 0, 77, 0
2, 135778, Note_on_c, 0, 62, 0
2, 135924, Note_on_c, 0, 58, 60
2, 135932, Note_on_c, 0, 80, 76
2, 135952, Note_on_c, 0, 60, 0
2, 135978, Note_on_c, 0, 78, 0
2, 136107, Note_on_c, 0, 58, 0
2, 136127, Note_on_c, 0, 77, 69
2, 136143, Note_on_c, 0, 62, 61
2, 136163, Note_on_c, 0, 80, 0
2, 136354, Note_on_c, 0, 78, 67
2, 136362, Note_on_c, 0, 51, 56
2, 136394, Note_on_c, 0, 77, 0
2, 136459, Note_on_c, 0, 62, 0
2, 136558, Note_on_c, 0, 53, 52
2, 136595, Note_on_c, 0, 51, 0
2, 136779, Note_on_c, 0, 54, 53
2, 136782, Note_on_c, 0, 53, 0
2, 136785, Note_on_c, 0, 77, 66
2, 136976, Note_on_c, 0, 75, 68
2, 136986, Note_on_c, 0, 54, 0
2, 136986, Note_on_c, 0, 56, 61
2, 137021, Note_on_c, 0, 77, 0
2, 137040, Control_c, 0, 64, 24
2, 137042, Note_on_c, 0, 78, 0
2, 137173, Control_c, 0, 64, 20
2, 137187, Note_on_c, 0, 56, 0
2, 137193, Note_on_c, 0, 74, 65
2, 137205, Note_on_c, 0, 58, 51
2, 137252, Note_on_c, 0, 75, 0
2, 137356, Note_on_c, 0, 74, 0
2, 137410, Note_on_c, 0, 58, 0
2, 137420, Note_on_c, 0, 60, 49
2, 137608, Note_on_c, 0, 77, 63
2, 137610, Note_on_c, 0, 60, 0
2, 137618, Note_on_c, 0, 62, 57
2, 137814, Note_on_c, 0, 77, 0
2, 137823, Note_on_c, 0, 62, 0
2, 137832, Note_on_c, 0, 58, 56
2, 138058, Note_on_c, 0, 70, 73
2, 138082, Note_on_c, 0, 58, 0
2, 138098, Note_on_c, 0, 66, 41
2, 138274, Note_on_c, 0, 66, 0
2, 138280, Note_on_c, 0, 65, 59
2, 138478, Note_on_c, 0, 78, 64
2, 138491, Note_on_c, 0, 65, 0
2, 138496, Note_on_c, 0, 63, 58
2, 138576, Note_on_c, 0, 70, 0
2, 138694, Note_on_c, 0, 77, 70
2, 138719, Note_on_c, 0, 63, 0
2, 138723, Note_on_c, 0, 65, 48
2, 138870, Note_on_c, 0, 78, 0
2, 138909, Note_on_c, 0, 75, 71
2, 138912, Note_on_c, 0, 66, 57
2, 138923, Note_on_c, 0, 65, 0
2, 138952, Note_on_c, 0, 77, 0
2, 139062, Note_on_c, 0, 75, 0
2, 139122, Note_on_c, 0, 68, 57
2, 139135, Note_on_c, 0, 66, 0
2, 139299, Control_c, 0, 64, 16
2, 139327, Note_on_c, 0, 73, 71
2, 139337, Control_c, 0, 64, 11
2, 139341, Note_on_c, 0, 68, 0
2, 139350, Note_on_c, 0, 70, 55
2, 139355, Control_c, 0, 64, 0
2, 139460, Note_on_c, 0, 73, 0
2, 139535, Note_on_c, 0, 70, 0
2, 139544, Note_on_c, 0, 66, 58
2, 139774, Note_on_c, 0, 72, 72
2, 139788, Note_on_c, 0, 63, 60
2, 139806, Note_on_c, 0, 66, 0
2, 139822, Control_c, 0, 64, 9
2, 139842, Control_c, 0, 64, 22
2, 139859, Control_c, 0, 64, 28
2, 139859, Note_on_c, 0, 82, 0
2, 139880, Control_c, 0, 64, 33
2, 139896, Control_c, 0, 64, 40
2, 139917, Control_c, 0, 64, 50
2, 139934, Control_c, 0, 64, 56
2, 139954, Control_c, 0, 64, 58
2, 139972, Note_on_c, 0, 61, 58
2, 139987, Note_on_c, 0, 63, 0
2, 140011, Control_c, 0, 64, 60
2, 140028, Control_c, 0, 64, 61
2, 140049, Control_c, 0, 64, 62
2, 140106, Control_c, 0, 64, 61
2, 140126, Control_c, 0, 64, 60
2, 140161, Control_c, 0, 64, 57
2, 140181, Control_c, 0, 64, 53
2, 140187, Note_on_c, 0, 61, 0
2, 140199, Note_on_c, 0, 81, 76
2, 140200, Control_c, 0, 64, 50
2, 140218, Note_on_c, 0, 60, 49
2, 140276, Control_c, 0, 64, 47
2, 140397, Note_on_c, 0, 82, 73
2, 140406, Note_on_c, 0, 58, 55
2, 140427, Control_c, 0, 64, 50
2, 140427, Note_on_c, 0, 60, 0
2, 140437, Note_on_c, 0, 81, 0
2, 140520, Control_c, 0, 64, 48
2, 140556, Control_c, 0, 64, 45
2, 140575, Control_c, 0, 64, 39
2, 140593, Control_c, 0, 64, 30
2, 140612, Control_c, 0, 64, 18
2, 140633, Note_on_c, 0, 58, 0
2, 140638, Note_on_c, 0, 84, 79
2, 140640, Note_on_c, 0, 57, 60
2, 140649, Control_c, 0, 64, 0
2, 140650, Note_on_c, 0, 82, 0
2, 140762, Control_c, 0, 64, 9
2, 140769, Note_on_c, 0, 84, 0
2, 140783, Control_c, 0, 64, 26
2, 140801, Control_c, 0, 64, 38
2, 140820, Control_c, 0, 64, 45
2, 140834, Note_on_c, 0, 72, 0
2, 140841, Note_on_c, 0, 57, 0
2, 140854, Note_on_c, 0, 55, 59
2, 141085, Control_c, 0, 64, 42
2, 141089, Note_on_c, 0, 75, 74
2, 141102, Control_c, 0, 64, 37
2, 141114, Note_on_c, 0, 53, 46
2, 141116, Note_on_c, 0, 55, 0
2, 141131, Note_on_c, 0, 72, 48
2, 141142, Control_c, 0, 64, 30
2, 141177, Control_c, 0, 64, 25
2, 141215, Control_c, 0, 64, 20
2, 141276, Note_on_c, 0, 53, 0
2, 141317, Note_on_c, 0, 57, 42
2, 141405, Control_c, 0, 64, 16
2, 141551, Note_on_c, 0, 49, 56
2, 141600, Note_on_c, 0, 57, 0
2, 141774, Note_on_c, 0, 54, 60
2, 141783, Note_on_c, 0, 49, 0
2, 141991, Note_on_c, 0, 73, 71
2, 142008, Note_on_c, 0, 70, 49
2, 142012, Note_on_c, 0, 53, 46
2, 142014, Note_on_c, 0, 54, 0
2, 142056, Note_on_c, 0, 75, 0
2, 142061, Note_on_c, 0, 72, 0
2, 142213, Note_on_c, 0, 75, 66
2, 142240, Note_on_c, 0, 53, 0
2, 142243, Note_on_c, 0, 51, 49
2, 142296, Note_on_c, 0, 73, 0
2, 142481, Note_on_c, 0, 77, 68
2, 142500, Note_on_c, 0, 49, 53
2, 142509, Note_on_c, 0, 51, 0
2, 142519, Note_on_c, 0, 75, 0
2, 142664, Note_on_c, 0, 77, 0
2, 142694, Note_on_c, 0, 70, 0
2, 142718, Note_on_c, 0, 48, 57
2, 142738, Note_on_c, 0, 49, 0
2, 142954, Note_on_c, 0, 75, 70
2, 142964, Note_on_c, 0, 46, 56
2, 142974, Note_on_c, 0, 48, 0
2, 142976, Note_on_c, 0, 66, 51
2, 143188, Note_on_c, 0, 69, 68
2, 143190, Note_on_c, 0, 48, 54
2, 143197, Note_on_c, 0, 46, 0
2, 143225, Note_on_c, 0, 75, 0
2, 143233, Note_on_c, 0, 66, 0
2, 143500, Note_on_c, 0, 48, 0
2, 143506, Note_on_c, 0, 70, 67
2, 143508, Note_on_c, 0, 49, 52
2, 143512, Note_on_c, 0, 65, 56
2, 143529, Note_on_c, 0, 69, 0
2, 143757, Note_on_c, 0, 49, 0
2, 143768, Note_on_c, 0, 48, 58
2, 144042, Note_on_c, 0, 49, 57
2, 144070, Note_on_c, 0, 48, 0
2, 144277, Note_on_c, 0, 65, 0
2, 144283, Note_on_c, 0, 66, 57
2, 144284, Note_on_c, 0, 72, 63
2, 144290, Note_on_c, 0, 51, 56
2, 144323, Note_on_c, 0, 70, 0
2, 144329, Note_on_c, 0, 49, 0
2, 144479, Note_on_c, 0, 72, 0
2, 144660, Note_on_c, 0, 69, 66
2, 144667, Note_on_c, 0, 60, 51
2, 144670, Note_on_c, 0, 53, 44
2, 144709, Note_on_c, 0, 66, 0
2, 144713, Note_on_c, 0, 51, 0
2, 144976, Note_on_c, 0, 51, 49
2, 144980, Note_on_c, 0, 53, 0
2, 145219, Control_c, 0, 64, 20
2, 145355, Note_on_c, 0, 53, 52
2, 145356, Note_on_c, 0, 51, 0
2, 145653, Control_c, 0, 64, 12
2, 145669, Control_c, 0, 64, 0
2, 145711, Note_on_c, 0, 69, 0
2, 145718, Note_on_c, 0, 70, 60
2, 145727, Note_on_c, 0, 41, 52
2, 145781, Note_on_c, 0, 53, 0
2, 145820, Control_c, 0, 64, 17
2, 145839, Control_c, 0, 64, 41
2, 145860, Control_c, 0, 64, 61
2, 145878, Control_c, 0, 64, 73
2, 145884, Note_on_c, 0, 70, 0
2, 145892, Note_on_c, 0, 60, 0
2, 145894, Control_c, 0, 64, 83
2, 145914, Control_c, 0, 64, 93
2, 145934, Control_c, 0, 64, 101
2, 145953, Control_c, 0, 64, 108
2, 145970, Control_c, 0, 64, 115
2, 145988, Control_c, 0, 64, 121
2, 146010, Control_c, 0, 64, 126
2, 146429, Note_on_c, 0, 70, 56
2, 146435, Note_on_c, 0, 62, 51
2, 146447, Note_on_c, 0, 46, 44
2, 146477, Control_c, 0, 64, 119
2, 146496, Control_c, 0, 64, 104
2, 146511, Control_c, 0, 64, 85
2, 146529, Note_on_c, 0, 41, 0
2, 146530, Control_c, 0, 64, 64
2, 146551, Control_c, 0, 64, 42
2, 146570, Control_c, 0, 64, 28
2, 146685, Control_c, 0, 64, 24
2, 147718, Control_c, 0, 64, 28
2, 149264, Note_on_c, 0, 70, 0
2, 149283, Note_on_c, 0, 62, 0
2, 149323, Note_on_c, 0, 46, 0
2, 149352, Control_c, 0, 64, 21
2, 149373, Control_c, 0, 64, 16
2, 149390, Control_c, 0, 64, 11
2, 150178, Note_on_c, 0, 58, 72
2, 150874, Note_on_c, 0, 58, 0
2, 151221, Note_on_c, 0, 60, 80
2, 152152, Note_on_c, 0, 60, 0
2, 152949, Note_on_c, 0, 61, 62
2, 153305, Note_on_c, 0, 61, 0
2, 153562, Note_on_c, 0, 63, 63
2, 153983, Control_c, 0, 64, 16
2, 154077, Note_on_c, 0, 57, 62
2, 154140, Note_on_c, 0, 63, 0
2, 154380, Control_c, 0, 64, 20
2, 154598, Note_on_c, 0, 58, 58
2, 154655, Note_on_c, 0, 57, 0
2, 155509, Note_on_c, 0, 58, 0
2, 156032, Note_on_c, 0, 60, 61
2, 156325, Note_on_c, 0, 60, 0
2, 156511, Control_c, 0, 64, 24
2, 156550, Note_on_c, 0, 61, 61
2, 156787, Note_on_c, 0, 58, 61
2, 156868, Note_on_c, 0, 61, 0
2, 157029, Note_on_c, 0, 60, 68
2, 157096, Note_on_c, 0, 58, 0
2, 157187, Control_c, 0, 64, 28
2, 157242, Note_on_c, 0, 61, 69
2, 157290, Note_on_c, 0, 60, 0
2, 157474, Note_on_c, 0, 63, 71
2, 157556, Note_on_c, 0, 61, 0
2, 157676, Note_on_c, 0, 60, 66
2, 157762, Note_on_c, 0, 63, 0
2, 157915, Note_on_c, 0, 61, 73
2, 158002, Note_on_c, 0, 60, 0
2, 158128, Note_on_c, 0, 63, 71
2, 158208, Note_on_c, 0, 61, 0
2, 158359, Note_on_c, 0, 65, 72
2, 158420, Note_on_c, 0, 63, 0
2, 158555, Note_on_c, 0, 61, 71
2, 158614, Note_on_c, 0, 65, 0
2, 158785, Note_on_c, 0, 63, 71
2, 158865, Note_on_c, 0, 61, 0
2, 159000, Note_on_c, 0, 65, 68
2, 159046, Note_on_c, 0, 63, 0
2, 159225, Note_on_c, 0, 66, 69
2, 159303, Note_on_c, 0, 65, 0
2, 159433, Note_on_c, 0, 63, 69
2, 159492, Note_on_c, 0, 66, 0
2, 159741, Note_on_c, 0, 65, 69
2, 159832, Note_on_c, 0, 63, 0
2, 160375, Note_on_c, 0, 65, 0
2, 160770, Note_on_c, 0, 66, 70
2, 161290, Note_on_c, 0, 60, 73
2, 161410, Note_on_c, 0, 66, 0
2, 161777, Note_on_c, 0, 61, 63
2, 161850, Note_on_c, 0, 60, 0
2, 161969, Note_on_c, 0, 63, 72
2, 162022, Note_on_c, 0, 61, 0
2, 162229, Note_on_c, 0, 61, 54
2, 162250, Note_on_c, 0, 65, 80
2, 162330, Note_on_c, 0, 63, 0
2, 162445, Note_on_c, 0, 61, 0
2, 162785, Note_on_c, 0, 57, 77
2, 162936, Note_on_c, 0, 65, 0
2, 163263, Note_on_c, 0, 67, 78
2, 163267, Note_on_c, 0, 58, 58
2, 163371, Note_on_c, 0, 57, 0
2, 163752, Note_on_c, 0, 59, 73
2, 163814, Note_on_c, 0, 58, 0
2, 164224, Control_c, 0, 64, 32
2, 164233, Note_on_c, 0, 60, 70
2, 164311, Note_on_c, 0, 67, 0
2, 164351, Note_on_c, 0, 59, 0
2, 164745, Note_on_c, 0, 68, 72
2, 164902, Control_c, 0, 64, 36
2, 165025, Note_on_c, 0, 68, 0
2, 165265, Note_on_c, 0, 70, 72
2, 165335, Note_on_c, 0, 60, 0
2, 165729, Note_on_c, 0, 64, 65
2, 165737, Note_on_c, 0, 60, 50
2, 165881, Note_on_c, 0, 70, 0
2, 166185, Note_on_c, 0, 65, 66
2, 166199, Note_on_c, 0, 61, 57
2, 166252, Note_on_c, 0, 60, 0
2, 166284, Note_on_c, 0, 64, 0
2, 166675, Note_on_c, 0, 62, 67
2, 166744, Note_on_c, 0, 61, 0
2, 167131, Note_on_c, 0, 63, 71
2, 167198, Note_on_c, 0, 62, 0
2, 167240, Note_on_c, 0, 65, 0
2, 167589, Note_on_c, 0, 67, 73
2, 167599, Note_on_c, 0, 64, 64
2, 167656, Note_on_c, 0, 63, 0
2, 167850, Note_on_c, 0, 67, 0
2, 168081, Note_on_c, 0, 68, 63
2, 168085, Note_on_c, 0, 65, 58
2, 168129, Note_on_c, 0, 64, 0
2, 168168, Note_on_c, 0, 65, 0
2, 168289, Note_on_c, 0, 65, 73
2, 168396, Note_on_c, 0, 68, 0
2, 168516, Note_on_c, 0, 67, 73
2, 168725, Note_on_c, 0, 68, 73
2, 168780, Note_on_c, 0, 67, 0
2, 168940, Note_on_c, 0, 70, 73
2, 168987, Note_on_c, 0, 68, 0
2, 169128, Note_on_c, 0, 67, 68
2, 169178, Note_on_c, 0, 70, 0
2, 169362, Note_on_c, 0, 68, 69
2, 169411, Note_on_c, 0, 67, 0
2, 169577, Note_on_c, 0, 70, 72
2, 169664, Note_on_c, 0, 68, 0
2, 169784, Note_on_c, 0, 72, 71
2, 169849, Note_on_c, 0, 70, 0
2, 169999, Note_on_c, 0, 68, 73
2, 170045, Note_on_c, 0, 72, 0
2, 170206, Note_on_c, 0, 70, 73
2, 170300, Note_on_c, 0, 68, 0
2, 170419, Note_on_c, 0, 72, 75
2, 170499, Note_on_c, 0, 70, 0
2, 170642, Note_on_c, 0, 73, 73
2, 170685, Note_on_c, 0, 72, 0
2, 170851, Note_on_c, 0, 70, 73
2, 170916, Note_on_c, 0, 73, 0
2, 171071, Note_on_c, 0, 72, 66
2, 171090, Note_on_c, 0, 64, 50
2, 171140, Note_on_c, 0, 65, 0
2, 171222, Note_on_c, 0, 70, 0
2, 171305, Note_on_c, 0, 62, 58
2, 171313, Note_on_c, 0, 64, 0
2, 171566, Note_on_c, 0, 64, 70
2, 171597, Note_on_c, 0, 72, 0
2, 171603, Note_on_c, 0, 62, 0
2, 172106, Note_on_c, 0, 73, 67
2, 172581, Note_on_c, 0, 67, 65
2, 172641, Note_on_c, 0, 64, 0
2, 172747, Note_on_c, 0, 73, 0
2, 173034, Note_on_c, 0, 69, 63
2, 173038, Note_on_c, 0, 63, 58
2, 173219, Note_on_c, 0, 67, 0
2, 173253, Note_on_c, 0, 70, 66
2, 173384, Note_on_c, 0, 69, 0
2, 173523, Note_on_c, 0, 69, 74
2, 173589, Note_on_c, 0, 70, 0
2, 173963, Note_on_c, 0, 77, 63
2, 173975, Note_on_c, 0, 62, 51
2, 174042, Note_on_c, 0, 63, 0
2, 174063, Note_on_c, 0, 69, 0
2, 174203, Note_on_c, 0, 60, 55
2, 174215, Note_on_c, 0, 62, 0
2, 174443, Note_on_c, 0, 62, 60
2, 174466, Note_on_c, 0, 60, 0
2, 174469, Note_on_c, 0, 77, 0
2, 174928, Note_on_c, 0, 70, 67
2, 175276, Note_on_c, 0, 62, 0
2, 175400, Note_on_c, 0, 65, 73
2, 175519, Note_on_c, 0, 70, 0
2, 175831, Note_on_c, 0, 61, 64
2, 175834, Note_on_c, 0, 67, 66
2, 175958, Note_on_c, 0, 65, 0
2, 176052, Note_on_c, 0, 68, 69
2, 176152, Note_on_c, 0, 67, 0
2, 176305, Note_on_c, 0, 67, 70
2, 176377, Note_on_c, 0, 68, 0
2, 176768, Note_on_c, 0, 75, 68
2, 176784, Note_on_c, 0, 60, 58
2, 176866, Note_on_c, 0, 61, 0
2, 176910, Note_on_c, 0, 67, 0
2, 176970, Note_on_c, 0, 58, 66
2, 176992, Note_on_c, 0, 60, 0
2, 177235, Note_on_c, 0, 60, 78
2, 177297, Note_on_c, 0, 58, 0
2, 177539, Control_c, 0, 64, 40
2, 177685, Note_on_c, 0, 69, 75
2, 177704, Note_on_c, 0, 66, 63
2, 177758, Note_on_c, 0, 60, 0
2, 177768, Note_on_c, 0, 75, 0
2, 178151, Note_on_c, 0, 65, 71
2, 178208, Note_on_c, 0, 66, 0
2, 178607, Note_on_c, 0, 65, 0
2, 178609, Note_on_c, 0, 70, 71
2, 178611, Note_on_c, 0, 63, 59
2, 178708, Note_on_c, 0, 69, 0
2, 178807, Note_on_c, 0, 72, 68
2, 178874, Note_on_c, 0, 70, 0
2, 179082, Note_on_c, 0, 46, 75
2, 179087, Note_on_c, 0, 65, 73
2, 179096, Note_on_c, 0, 72, 0
2, 179387, Note_on_c, 0, 63, 0
2, 179611, Note_on_c, 0, 70, 73
2, 179622, Note_on_c, 0, 62, 67
2, 179686, Note_on_c, 0, 65, 0
2, 179743, Note_on_c, 0, 46, 0
2, 180087, Note_on_c, 0, 63, 63
2, 180090, Note_on_c, 0, 48, 80
2, 180191, Note_on_c, 0, 62, 0
2, 180552, Note_on_c, 0, 64, 76
2, 180567, Note_on_c, 0, 69, 66
2, 180568, Note_on_c, 0, 63, 0
2, 180621, Note_on_c, 0, 70, 0
2, 180748, Note_on_c, 0, 67, 81
2, 180758, Note_on_c, 0, 69, 0
2, 180773, Note_on_c, 0, 64, 0
2, 181023, Note_on_c, 0, 69, 76
2, 181030, Note_on_c, 0, 65, 73
2, 181055, Note_on_c, 0, 48, 0
2, 181064, Note_on_c, 0, 67, 0
2, 181207, Control_c, 0, 64, 36
2, 181464, Note_on_c, 0, 49, 77
2, 181465, Note_on_c, 0, 70, 75
2, 181544, Note_on_c, 0, 69, 0
2, 181624, Control_c, 0, 64, 43
2, 181643, Control_c, 0, 64, 47
2, 181663, Control_c, 0, 64, 50
2, 181676, Note_on_c, 0, 49, 0
2, 181680, Control_c, 0, 64, 52
2, 181700, Control_c, 0, 64, 56
2, 181720, Control_c, 0, 64, 60
2, 181736, Control_c, 0, 64, 64
2, 181756, Control_c, 0, 64, 69
2, 181774, Control_c, 0, 64, 75
2, 181795, Control_c, 0, 64, 83
2, 181827, Control_c, 0, 64, 91
2, 181846, Control_c, 0, 64, 98
2, 181923, Note_on_c, 0, 51, 76
2, 181932, Note_on_c, 0, 72, 72
2, 181942, Control_c, 0, 64, 86
2, 181945, Note_on_c, 0, 70, 0
2, 181960, Control_c, 0, 64, 76
2, 181976, Control_c, 0, 64, 66
2, 181995, Control_c, 0, 64, 56
2, 182015, Control_c, 0, 64, 50
2, 182051, Control_c, 0, 64, 48
2, 182090, Control_c, 0, 64, 45
2, 182118, Note_on_c, 0, 73, 76
2, 182119, Note_on_c, 0, 72, 0
2, 182125, Control_c, 0, 64, 43
2, 182161, Note_on_c, 0, 65, 0
2, 182349, Note_on_c, 0, 75, 77
2, 182351, Note_on_c, 0, 65, 67
2, 182356, Note_on_c, 0, 45, 65
2, 182395, Note_on_c, 0, 73, 0
2, 182410, Control_c, 0, 64, 41
2, 182431, Note_on_c, 0, 51, 0
2, 182523, Control_c, 0, 64, 37
2, 182810, Note_on_c, 0, 46, 76
2, 182810, Note_on_c, 0, 66, 73
2, 182848, Note_on_c, 0, 65, 0
2, 182890, Note_on_c, 0, 45, 0
2, 183051, Control_c, 0, 64, 33
2, 183090, Control_c, 0, 64, 28
2, 183107, Control_c, 0, 64, 22
2, 183147, Control_c, 0, 64, 17
2, 183253, Note_on_c, 0, 67, 68
2, 183259, Note_on_c, 0, 73, 73
2, 183283, Note_on_c, 0, 66, 0
2, 183716, Note_on_c, 0, 72, 75
2, 183718, Note_on_c, 0, 68, 65
2, 183734, Note_on_c, 0, 75, 0
2, 183766, Note_on_c, 0, 73, 0
2, 183769, Note_on_c, 0, 67, 0
2, 183821, Note_on_c, 0, 46, 0
2, 183921, Note_on_c, 0, 75, 72
2, 184005, Note_on_c, 0, 72, 0
2, 184141, Note_on_c, 0, 48, 70
2, 184145, Control_c, 0, 64, 13
2, 184157, Note_on_c, 0, 78, 78
2, 184162, Note_on_c, 0, 69, 68
2, 184201, Note_on_c, 0, 72, 10
2, 184202, Note_on_c, 0, 68, 0
2, 184276, Control_c, 0, 64, 22
2, 184287, Note_on_c, 0, 72, 0
2, 184293, Control_c, 0, 64, 30
2, 184314, Control_c, 0, 64, 34
2, 184346, Note_on_c, 0, 75, 0
2, 184351, Control_c, 0, 64, 44
2, 184370, Control_c, 0, 64, 51
2, 184376, Note_on_c, 0, 48, 0
2, 184391, Control_c, 0, 64, 54
2, 184445, Note_on_c, 0, 78, 0
2, 184577, Control_c, 0, 64, 52
2, 184597, Control_c, 0, 64, 48
2, 184616, Control_c, 0, 64, 43
2, 184630, Note_on_c, 0, 77, 75
2, 184633, Note_on_c, 0, 70, 60
2, 184636, Control_c, 0, 64, 37
2, 184644, Note_on_c, 0, 49, 63
2, 184676, Control_c, 0, 64, 33
2, 184707, Note_on_c, 0, 69, 0
2, 184726, Control_c, 0, 64, 29
2, 184765, Control_c, 0, 64, 24
2, 184843, Note_on_c, 0, 46, 67
2, 184870, Note_on_c, 0, 49, 0
2, 185061, Note_on_c, 0, 48, 70
2, 185115, Note_on_c, 0, 77, 0
2, 185117, Note_on_c, 0, 46, 0
2, 185271, Note_on_c, 0, 49, 74
2, 185297, Note_on_c, 0, 48, 0
2, 185490, Note_on_c, 0, 72, 79
2, 185503, Note_on_c, 0, 51, 69
2, 185554, Note_on_c, 0, 49, 0
2, 185710, Note_on_c, 0, 48, 67
2, 185758, Note_on_c, 0, 51, 0
2, 185919, Note_on_c, 0, 72, 0
2, 185936, Note_on_c, 0, 49, 76
2, 185966, Note_on_c, 0, 48, 0
2, 186142, Note_on_c, 0, 51, 77
2, 186196, Note_on_c, 0, 49, 0
2, 186355, Note_on_c, 0, 73, 80
2, 186378, Note_on_c, 0, 53, 64
2, 186448, Note_on_c, 0, 51, 0
2, 186555, Note_on_c, 0, 49, 71
2, 186577, Note_on_c, 0, 53, 0
2, 186790, Note_on_c, 0, 51, 72
2, 186817, Note_on_c, 0, 73, 0
2, 186828, Note_on_c, 0, 49, 0
2, 187002, Note_on_c, 0, 53, 71
2, 187043, Note_on_c, 0, 51, 0
2, 187223, Note_on_c, 0, 75, 72
2, 187238, Note_on_c, 0, 54, 66
2, 187291, Note_on_c, 0, 53, 0
2, 187427, Note_on_c, 0, 51, 65
2, 187447, Note_on_c, 0, 54, 0
2, 187670, Note_on_c, 0, 70, 0
2, 187678, Note_on_c, 0, 69, 68
2, 187680, Note_on_c, 0, 53, 72
2, 187753, Note_on_c, 0, 51, 0
2, 187871, Note_on_c, 0, 67, 71
2, 187888, Note_on_c, 0, 69, 0
2, 188073, Control_c, 0, 64, 32
2, 188091, Control_c, 0, 64, 42
2, 188107, Note_on_c, 0, 69, 79
2, 188108, Note_on_c, 0, 67, 0
2, 188110, Control_c, 0, 64, 44
2, 188159, Note_on_c, 0, 53, 0
2, 188204, Control_c, 0, 64, 41
2, 188246, Control_c, 0, 64, 37
2, 188299, Note_on_c, 0, 73, 76
2, 188443, Note_on_c, 0, 75, 0
2, 188492, Control_c, 0, 64, 33
2, 188516, Note_on_c, 0, 72, 72
2, 188568, Note_on_c, 0, 55, 75
2, 188571, Note_on_c, 0, 54, 43
2, 188585, Note_on_c, 0, 73, 0
2, 188724, Note_on_c, 0, 73, 77
2, 188772, Note_on_c, 0, 72, 0
2, 188862, Note_on_c, 0, 54, 0
2, 188951, Note_on_c, 0, 55, 0
2, 188972, Note_on_c, 0, 48, 75
2, 188981, Note_on_c, 0, 75, 77
2, 189034, Note_on_c, 0, 73, 0
2, 189130, Control_c, 0, 64, 29
2, 189409, Note_on_c, 0, 72, 75
2, 189426, Note_on_c, 0, 50, 75
2, 189428, Note_on_c, 0, 68, 64
2, 189442, Note_on_c, 0, 69, 0
2, 189466, Note_on_c, 0, 48, 0
2, 189467, Note_on_c, 0, 75, 0
2, 189608, Note_on_c, 0, 51, 77
2, 189618, Note_on_c, 0, 50, 0
2, 189634, Control_c, 0, 64, 25
2, 189862, Note_on_c, 0, 50, 70
2, 189874, Note_on_c, 0, 77, 75
2, 189881, Note_on_c, 0, 51, 0
2, 189909, Note_on_c, 0, 72, 0
2, 190311, Note_on_c, 0, 58, 65
2, 190313, Note_on_c, 0, 74, 70
2, 190337, Note_on_c, 0, 67, 55
2, 190366, Note_on_c, 0, 50, 0
2, 190422, Note_on_c, 0, 68, 0
2, 190483, Note_on_c, 0, 67, 0
2, 190504, Note_on_c, 0, 77, 0
2, 190526, Note_on_c, 0, 65, 63
2, 190700, Note_on_c, 0, 65, 0
2, 190738, Note_on_c, 0, 70, 77
2, 190742, Note_on_c, 0, 58, 0
2, 190746, Note_on_c, 0, 67, 71
2, 190796, Note_on_c, 0, 74, 0
2, 190945, Note_on_c, 0, 68, 75
2, 190981, Note_on_c, 0, 70, 0
2, 191158, Note_on_c, 0, 51, 80
2, 191158, Note_on_c, 0, 70, 74
2, 191259, Note_on_c, 0, 68, 0
2, 191334, Note_on_c, 0, 72, 75
2, 191396, Note_on_c, 0, 70, 0
2, 191590, Note_on_c, 0, 73, 79
2, 191597, Note_on_c, 0, 46, 70
2, 191614, Note_on_c, 0, 72, 0
2, 191667, Note_on_c, 0, 51, 0
2, 192025, Note_on_c, 0, 70, 78
2, 192036, Note_on_c, 0, 48, 68
2, 192047, Note_on_c, 0, 66, 65
2, 192074, Note_on_c, 0, 46, 0
2, 192103, Note_on_c, 0, 67, 0
2, 192105, Note_on_c, 0, 73, 0
2, 192209, Note_on_c, 0, 49, 77
2, 192226, Note_on_c, 0, 48, 0
2, 192439, Control_c, 0, 64, 20
2, 192457, Control_c, 0, 64, 9
2, 192475, Control_c, 0, 64, 0
2, 192475, Note_on_c, 0, 75, 80
2, 192476, Note_on_c, 0, 48, 74
2, 192497, Note_on_c, 0, 49, 0
2, 192591, Control_c, 0, 64, 17
2, 192611, Control_c, 0, 64, 41
2, 192627, Control_c, 0, 64, 61
2, 192647, Control_c, 0, 64, 75
2, 192666, Control_c, 0, 64, 90
2, 192671, Note_on_c, 0, 70, 0
2, 192685, Control_c, 0, 64, 106
2, 192698, Note_on_c, 0, 75, 0
2, 192701, Control_c, 0, 64, 117
2, 192720, Control_c, 0, 64, 122
2, 192759, Control_c, 0, 64, 127
2, 192911, Note_on_c, 0, 72, 80
2, 192919, Note_on_c, 0, 44, 75
2, 192920, Note_on_c, 0, 65, 68
2, 192928, Control_c, 0, 64, 121
2, 192934, Note_on_c, 0, 66, 0
2, 192948, Control_c, 0, 64, 114
2, 192967, Control_c, 0, 64, 105
2, 192985, Note_on_c, 0, 48, 0
2, 192986, Control_c, 0, 64, 96
2, 193007, Control_c, 0, 64, 85
2, 193024, Control_c, 0, 64, 75
2, 193045, Control_c, 0, 64, 67
2, 193062, Control_c, 0, 64, 63
2, 193102, Note_on_c, 0, 65, 0
2, 193105, Note_on_c, 0, 63, 75
2, 193119, Control_c, 0, 64, 60
2, 193174, Control_c, 0, 64, 61
2, 193231, Control_c, 0, 64, 60
2, 193289, Control_c, 0, 64, 56
2, 193308, Control_c, 0, 64, 51
2, 193341, Control_c, 0, 64, 42
2, 193360, Control_c, 0, 64, 29
2, 193365, Note_on_c, 0, 72, 0
2, 193367, Note_on_c, 0, 68, 75
2, 193373, Note_on_c, 0, 49, 75
2, 193374, Note_on_c, 0, 65, 74
2, 193379, Control_c, 0, 64, 17
2, 193385, Note_on_c, 0, 63, 0
2, 193398, Control_c, 0, 64, 8
2, 193416, Control_c, 0, 64, 0
2, 193416, Note_on_c, 0, 44, 0
2, 193550, Control_c, 0, 64, 12
2, 193570, Control_c, 0, 64, 25
2, 193587, Control_c, 0, 64, 40
2, 193606, Control_c, 0, 64, 54
2, 193625, Control_c, 0, 64, 62
2, 193645, Control_c, 0, 64, 67
2, 193662, Control_c, 0, 64, 69
2, 193680, Control_c, 0, 64, 72
2, 193700, Control_c, 0, 64, 77
2, 193720, Control_c, 0, 64, 79
2, 193757, Control_c, 0, 64, 72
2, 193778, Control_c, 0, 64, 62
2, 193796, Control_c, 0, 64, 49
2, 193796, Note_on_c, 0, 73, 81
2, 193812, Control_c, 0, 64, 33
2, 193817, Note_on_c, 0, 48, 73
2, 193826, Note_on_c, 0, 49, 0
2, 193832, Control_c, 0, 64, 12
2, 193844, Note_on_c, 0, 68, 0
2, 193851, Control_c, 0, 64, 0
2, 193907, Control_c, 0, 64, 21
2, 193927, Control_c, 0, 64, 46
2, 193946, Control_c, 0, 64, 65
2, 193965, Control_c, 0, 64, 77
2, 193980, Note_on_c, 0, 46, 76
2, 193982, Note_on_c, 0, 73, 0
2, 193985, Control_c, 0, 64, 87
2, 194003, Note_on_c, 0, 48, 0
2, 194004, Control_c, 0, 64, 94
2, 194022, Control_c, 0, 64, 100
2, 194042, Control_c, 0, 64, 106
2, 194059, Control_c, 0, 64, 113
2, 194078, Control_c, 0, 64, 119
2, 194097, Control_c, 0, 64, 123
2, 194191, Control_c, 0, 64, 108
2, 194211, Control_c, 0, 64, 87
2, 194217, Note_on_c, 0, 72, 84
2, 194226, Note_on_c, 0, 44, 74
2, 194230, Control_c, 0, 64, 60
2, 194249, Control_c, 0, 64, 8
2, 194268, Control_c, 0, 64, 0
2, 194274, Note_on_c, 0, 46, 0
2, 194376, Control_c, 0, 64, 26
2, 194392, Note_on_c, 0, 65, 0
2, 194396, Control_c, 0, 64, 53
2, 194415, Control_c, 0, 64, 73
2, 194423, Note_on_c, 0, 72, 0
2, 194433, Control_c, 0, 64, 91
2, 194453, Control_c, 0, 64, 109
2, 194472, Control_c, 0, 64, 119
2, 194490, Control_c, 0, 64, 126
2, 194691, Note_on_c, 0, 64, 82
2, 194692, Note_on_c, 0, 43, 76
2, 194698, Control_c, 0, 64, 121
2, 194703, Note_on_c, 0, 58, 69
2, 194717, Control_c, 0, 64, 93
2, 194735, Control_c, 0, 64, 53
2, 194735, Note_on_c, 0, 44, 0
2, 194755, Control_c, 0, 64, 0
2, 194811, Control_c, 0, 64, 11
2, 194831, Control_c, 0, 64, 55
2, 194847, Control_c, 0, 64, 83
2, 194867, Control_c, 0, 64, 109
2, 194876, Note_on_c, 0, 64, 0
2, 194886, Control_c, 0, 64, 127
2, 194904, Note_on_c, 0, 58, 0
2, 195165, Note_on_c, 0, 65, 68
2, 195168, Note_on_c, 0, 53, 86
2, 195173, Note_on_c, 0, 60, 70
2, 195189, Control_c, 0, 64, 120
2, 195209, Control_c, 0, 64, 101
2, 195220, Note_on_c, 0, 44, 51
2, 195228, Control_c, 0, 64, 75
2, 195261, Control_c, 0, 64, 44
2, 195263, Note_on_c, 0, 43, 0
2, 195279, Control_c, 0, 64, 14
2, 195599, Control_c, 0, 64, 9
2, 195656, Note_on_c, 0, 61, 73
2, 195659, Note_on_c, 0, 45, 75
2, 195676, Control_c, 0, 64, 28
2, 195697, Control_c, 0, 64, 45
2, 195716, Control_c, 0, 64, 57
2, 195726, Note_on_c, 0, 60, 0
2, 195732, Control_c, 0, 64, 63
2, 195741, Note_on_c, 0, 44, 0
2, 195750, Control_c, 0, 64, 67
2, 195770, Control_c, 0, 64, 72
2, 195788, Control_c, 0, 64, 78
2, 195803, Note_on_c, 0, 53, 0
2, 195805, Control_c, 0, 64, 85
2, 195840, Note_on_c, 0, 63, 77
2, 195845, Control_c, 0, 64, 89
2, 195858, Note_on_c, 0, 61, 0
2, 196016, Control_c, 0, 64, 94
2, 196072, Control_c, 0, 64, 90
2, 196091, Control_c, 0, 64, 82
2, 196091, Note_on_c, 0, 55, 89
2, 196109, Control_c, 0, 64, 69
2, 196111, Note_on_c, 0, 61, 70
2, 196122, Note_on_c, 0, 46, 67
2, 196130, Control_c, 0, 64, 53
2, 196136, Note_on_c, 0, 63, 0
2, 196149, Control_c, 0, 64, 37
2, 196157, Note_on_c, 0, 45, 0
2, 196168, Control_c, 0, 64, 29
2, 196497, Note_on_c, 0, 61, 0
2, 196543, Note_on_c, 0, 47, 80
2, 196543, Note_on_c, 0, 64, 72
2, 196599, Note_on_c, 0, 46, 0
2, 196710, Control_c, 0, 64, 25
2, 196736, Note_on_c, 0, 62, 78
2, 196806, Note_on_c, 0, 64, 0
2, 196864, Note_on_c, 0, 65, 0
2, 196959, Note_on_c, 0, 62, 0
2, 196963, Note_on_c, 0, 48, 75
2, 196975, Note_on_c, 0, 47, 0
2, 196987, Note_on_c, 0, 64, 68
2, 197069, Note_on_c, 0, 55, 0
2, 197413, Note_on_c, 0, 56, 82
2, 197418, Note_on_c, 0, 72, 75
2, 197435, Note_on_c, 0, 64, 0
2, 197501, Control_c, 0, 64, 33
2, 197520, Control_c, 0, 64, 49
2, 197541, Control_c, 0, 64, 61
2, 197559, Control_c, 0, 64, 68
2, 197578, Control_c, 0, 64, 73
2, 197597, Control_c, 0, 64, 78
2, 197600, Note_on_c, 0, 56, 0
2, 197618, Control_c, 0, 64, 83
2, 197635, Control_c, 0, 64, 86
2, 197806, Control_c, 0, 64, 81
2, 197824, Control_c, 0, 64, 71
2, 197844, Control_c, 0, 64, 58
2, 197861, Control_c, 0, 64, 43
2, 197866, Note_on_c, 0, 58, 78
2, 197871, Note_on_c, 0, 73, 79
2, 197882, Control_c, 0, 64, 27
2, 197898, Control_c, 0, 64, 19
2, 197898, Note_on_c, 0, 72, 0
2, 197947, Note_on_c, 0, 48, 0
2, 197956, Control_c, 0, 64, 15
2, 198315, Note_on_c, 0, 48, 63
2, 198316, Note_on_c, 0, 72, 74
2, 198317, Note_on_c, 0, 52, 73
2, 198329, Note_on_c, 0, 68, 69
2, 198374, Note_on_c, 0, 58, 0
2, 198380, Note_on_c, 0, 73, 0
2, 198789, Note_on_c, 0, 53, 74
2, 198796, Note_on_c, 0, 49, 71
2, 198817, Note_on_c, 0, 48, 0
2, 198834, Note_on_c, 0, 52, 0
2, 198896, Control_c, 0, 64, 19
2, 198917, Control_c, 0, 64, 32
2, 198933, Control_c, 0, 64, 49
2, 198953, Control_c, 0, 64, 61
2, 198971, Control_c, 0, 64, 66
2, 198991, Control_c, 0, 64, 69
2, 199030, Control_c, 0, 64, 73
2, 199048, Control_c, 0, 64, 75
2, 199068, Control_c, 0, 64, 78
2, 199100, Control_c, 0, 64, 82
2, 199119, Control_c, 0, 64, 87
2, 199138, Control_c, 0, 64, 91
2, 199231, Control_c, 0, 64, 81
2, 199231, Note_on_c, 0, 71, 73
2, 199235, Note_on_c, 0, 67, 75
2, 199238, Note_on_c, 0, 68, 0
2, 199251, Control_c, 0, 64, 67
2, 199253, Note_on_c, 0, 50, 68
2, 199271, Control_c, 0, 64, 51
2, 199275, Note_on_c, 0, 72, 0
2, 199290, Control_c, 0, 64, 35
2, 199304, Note_on_c, 0, 49, 0
2, 199309, Control_c, 0, 64, 24
2, 199404, Control_c, 0, 64, 20
2, 199423, Note_on_c, 0, 65, 76
2, 199429, Note_on_c, 0, 67, 0
2, 199644, Note_on_c, 0, 65, 0
2, 199649, Note_on_c, 0, 51, 75
2, 199651, Note_on_c, 0, 67, 78
2, 199653, Note_on_c, 0, 72, 76
2, 199668, Note_on_c, 0, 53, 0
2, 199687, Control_c, 0, 64, 16
2, 199689, Note_on_c, 0, 71, 0
2, 199694, Note_on_c, 0, 50, 0
2, 199832, Note_on_c, 0, 68, 78
2, 199864, Note_on_c, 0, 67, 0
2, 200069, Note_on_c, 0, 55, 80
2, 200074, Note_on_c, 0, 70, 78
2, 200085, Note_on_c, 0, 52, 71
2, 200106, Note_on_c, 0, 68, 0
2, 200111, Note_on_c, 0, 51, 0
2, 200281, Note_on_c, 0, 55, 0
2, 200328, Note_on_c, 0, 70, 0
2, 200419, Control_c, 0, 64, 8
2, 200438, Control_c, 0, 64, 0
2, 200499, Note_on_c, 0, 53, 70
2, 200513, Note_on_c, 0, 68, 78
2, 200516, Note_on_c, 0, 56, 70
2, 200543, Note_on_c, 0, 52, 0
2, 200589, Control_c, 0, 64, 32
2, 200599, Note_on_c, 0, 53, 0
2, 200606, Control_c, 0, 64, 55
2, 200626, Control_c, 0, 64, 72
2, 200644, Note_on_c, 0, 56, 0
2, 200645, Control_c, 0, 64, 84
2, 200664, Control_c, 0, 64, 95
2, 200684, Control_c, 0, 64, 103
2, 200698, Note_on_c, 0, 53, 77
2, 200703, Control_c, 0, 64, 108
2, 200713, Note_on_c, 0, 72, 0
2, 200728, Note_on_c, 0, 68, 0
2, 200911, Control_c, 0, 64, 94
2, 200927, Note_on_c, 0, 55, 75
2, 200931, Control_c, 0, 64, 76
2, 200949, Control_c, 0, 64, 53
2, 200968, Control_c, 0, 64, 27
2, 200987, Control_c, 0, 64, 17
2, 201129, Note_on_c, 0, 56, 75
2, 201160, Note_on_c, 0, 55, 0
2, 201343, Note_on_c, 0, 76, 83
2, 201369, Note_on_c, 0, 67, 60
2, 201385, Note_on_c, 0, 58, 58
2, 201421, Note_on_c, 0, 56, 0
2, 201556, Note_on_c, 0, 58, 0
2, 201560, Note_on_c, 0, 55, 71
2, 201744, Note_on_c, 0, 67, 0
2, 201777, Note_on_c, 0, 76, 0
2, 201782, Note_on_c, 0, 56, 72
2, 201819, Note_on_c, 0, 55, 0
2, 201999, Note_on_c, 0, 58, 69
2, 202052, Note_on_c, 0, 56, 0
2, 202211, Note_on_c, 0, 77, 80
2, 202233, Note_on_c, 0, 68, 69
2, 202244, Note_on_c, 0, 60, 67
2, 202284, Note_on_c, 0, 58, 0
2, 202425, Note_on_c, 0, 56, 73
2, 202471, Note_on_c, 0, 60, 0
2, 202546, Note_on_c, 0, 68, 0
2, 202583, Note_on_c, 0, 77, 0
2, 202637, Note_on_c, 0, 58, 74
2, 202700, Note_on_c, 0, 56, 0
2, 202834, Note_on_c, 0, 60, 74
2, 202866, Note_on_c, 0, 58, 0
2, 203066, Note_on_c, 0, 79, 80
2, 203091, Note_on_c, 0, 70, 70
2, 203095, Note_on_c, 0, 61, 54
2, 203105, Note_on_c, 0, 60, 0
2, 203227, Control_c, 0, 64, 21
2, 203245, Control_c, 0, 64, 25
2, 203262, Control_c, 0, 64, 34
2, 203280, Note_on_c, 0, 58, 70
2, 203281, Control_c, 0, 64, 46
2, 203291, Note_on_c, 0, 61, 0
2, 203300, Control_c, 0, 64, 55
2, 203319, Control_c, 0, 64, 60
2, 203339, Control_c, 0, 64, 62
2, 203357, Control_c, 0, 64, 65
2, 203378, Control_c, 0, 64, 67
2, 203396, Control_c, 0, 64, 70
2, 203414, Control_c, 0, 64, 72
2, 203423, Note_on_c, 0, 70, 0
2, 203450, Note_on_c, 0, 53, 0
2, 203488, Note_on_c, 0, 52, 62
2, 203502, Note_on_c, 0, 60, 76
2, 203514, Note_on_c, 0, 58, 0
2, 203547, Control_c, 0, 64, 70
2, 203605, Control_c, 0, 64, 68
2, 203662, Control_c, 0, 64, 67
2, 203680, Control_c, 0, 64, 65
2, 203695, Note_on_c, 0, 50, 76
2, 203699, Control_c, 0, 64, 64
2, 203714, Note_on_c, 0, 52, 0
2, 203834, Control_c, 0, 64, 65
2, 203871, Control_c, 0, 64, 64
2, 203907, Control_c, 0, 64, 61
2, 203925, Control_c, 0, 64, 56
2, 203943, Control_c, 0, 64, 49
2, 203947, Note_on_c, 0, 52, 71
2, 203963, Control_c, 0, 64, 43
2, 203963, Note_on_c, 0, 67, 78
2, 203967, Note_on_c, 0, 50, 0
2, 203982, Control_c, 0, 64, 36
2, 204000, Control_c, 0, 64, 29
2, 204019, Control_c, 0, 64, 24
2, 204038, Control_c, 0, 64, 19
2, 204100, Note_on_c, 0, 60, 0
2, 204134, Control_c, 0, 64, 14
2, 204322, Control_c, 0, 64, 10
2, 204416, Control_c, 0, 64, 0
2, 204442, Note_on_c, 0, 61, 73
2, 204461, Note_on_c, 0, 67, 0
2, 204568, Control_c, 0, 64, 28
2, 204589, Control_c, 0, 64, 44
2, 204606, Control_c, 0, 64, 54
2, 204624, Control_c, 0, 64, 57
2, 204643, Control_c, 0, 64, 59
2, 204662, Control_c, 0, 64, 60
2, 204681, Control_c, 0, 64, 61
2, 204698, Control_c, 0, 64, 62
2, 204718, Control_c, 0, 64, 63
2, 204736, Control_c, 0, 64, 65
2, 204756, Control_c, 0, 64, 67
2, 204775, Control_c, 0, 64, 69
2, 204866, Control_c, 0, 64, 67
2, 204883, Control_c, 0, 64, 61
2, 204886, Note_on_c, 0, 55, 71
2, 204888, Note_on_c, 0, 72, 71
2, 204903, Control_c, 0, 64, 55
2, 204922, Control_c, 0, 64, 47
2, 204942, Control_c, 0, 64, 36
2, 204959, Control_c, 0, 64, 19
2, 204978, Control_c, 0, 64, 0
2, 204990, Note_on_c, 0, 61, 0
2, 205094, Control_c, 0, 64, 31
2, 205111, Control_c, 0, 64, 55
2, 205131, Control_c, 0, 64, 71
2, 205150, Control_c, 0, 64, 82
2, 205158, Note_on_c, 0, 72, 0
2, 205169, Control_c, 0, 64, 92
2, 205184, Control_c, 0, 64, 100
2, 205205, Control_c, 0, 64, 106
2, 205224, Control_c, 0, 64, 111
2, 205262, Control_c, 0, 64, 117
2, 205309, Note_on_c, 0, 55, 0
2, 205356, Note_on_c, 0, 56, 68
2, 205527, Control_c, 0, 64, 112
2, 205546, Control_c, 0, 64, 103
2, 205546, Note_on_c, 0, 58, 63
2, 205567, Control_c, 0, 64, 89
2, 205582, Control_c, 0, 64, 70
2, 205594, Note_on_c, 0, 56, 0
2, 205602, Control_c, 0, 64, 46
2, 205621, Control_c, 0, 64, 22
2, 205632, Note_on_c, 0, 58, 0
2, 205639, Control_c, 0, 64, 11
2, 205677, Control_c, 0, 64, 0
2, 205734, Control_c, 0, 64, 9
2, 205755, Control_c, 0, 64, 36
2, 205772, Control_c, 0, 64, 58
2, 205784, Note_on_c, 0, 56, 59
2, 205789, Note_on_c, 0, 60, 68
2, 205793, Control_c, 0, 64, 69
2, 205804, Note_on_c, 0, 53, 58
2, 205824, Control_c, 0, 64, 76
2, 205830, Note_on_c, 0, 52, 0
2, 205845, Control_c, 0, 64, 80
2, 205863, Control_c, 0, 64, 85
2, 205882, Control_c, 0, 64, 89
2, 205919, Control_c, 0, 64, 94
2, 205990, Note_on_c, 0, 60, 0
2, 205994, Control_c, 0, 64, 89
2, 206001, Note_on_c, 0, 52, 68
2, 206006, Note_on_c, 0, 56, 0
2, 206009, Note_on_c, 0, 53, 0
2, 206012, Control_c, 0, 64, 83
2, 206032, Control_c, 0, 64, 76
2, 206053, Control_c, 0, 64, 70
2, 206070, Control_c, 0, 64, 65
2, 206090, Control_c, 0, 64, 60
2, 206110, Control_c, 0, 64, 56
2, 206183, Control_c, 0, 64, 52
2, 206204, Control_c, 0, 64, 45
2, 206220, Control_c, 0, 64, 40
2, 206220, Note_on_c, 0, 77, 70
2, 206226, Note_on_c, 0, 53, 60
2, 206249, Note_on_c, 0, 52, 0
2, 206261, Control_c, 0, 64, 36
2, 206280, Control_c, 0, 64, 31
2, 206296, Control_c, 0, 64, 25
2, 206373, Control_c, 0, 64, 21
2, 206414, Note_on_c, 0, 79, 0
2, 206416, Note_on_c, 0, 76, 74
2, 206424, Note_on_c, 0, 55, 58
2, 206433, Note_on_c, 0, 53, 0
2, 206496, Note_on_c, 0, 77, 0
2, 206636, Note_on_c, 0, 55, 0
2, 206658, Note_on_c, 0, 56, 60
2, 206661, Note_on_c, 0, 77, 70
2, 206683, Note_on_c, 0, 72, 71
2, 206698, Note_on_c, 0, 76, 0
2, 207030, Control_c, 0, 64, 16
2, 207048, Control_c, 0, 64, 12
2, 207087, Control_c, 0, 64, 0
2, 207138, Note_on_c, 0, 65, 73
2, 207143, Note_on_c, 0, 72, 0
2, 207231, Note_on_c, 0, 56, 0
2, 207240, Control_c, 0, 64, 35
2, 207256, Control_c, 0, 64, 56
2, 207276, Control_c, 0, 64, 69
2, 207296, Control_c, 0, 64, 78
2, 207315, Control_c, 0, 64, 88
2, 207333, Control_c, 0, 64, 97
2, 207340, Note_on_c, 0, 65, 0
2, 207350, Control_c, 0, 64, 105
2, 207390, Control_c, 0, 64, 109
2, 207571, Note_on_c, 0, 57, 60
2, 207571, Note_on_c, 0, 60, 68
2, 207571, Note_on_c, 0, 65, 69
2, 207605, Control_c, 0, 64, 99
2, 207625, Control_c, 0, 64, 87
2, 207645, Control_c, 0, 64, 71
2, 207664, Control_c, 0, 64, 50
2, 207682, Control_c, 0, 64, 31
2, 207702, Control_c, 0, 64, 24
2, 207812, Control_c, 0, 64, 20
2, 207921, Note_on_c, 0, 57, 0
2, 208007, Note_on_c, 0, 65, 0
2, 208038, Note_on_c, 0, 61, 68
2, 208098, Note_on_c, 0, 60, 0
2, 208238, Note_on_c, 0, 63, 64
2, 208266, Note_on_c, 0, 61, 0
2, 208456, Control_c, 0, 64, 12
2, 208474, Control_c, 0, 64, 0
2, 208483, Note_on_c, 0, 70, 63
2, 208487, Note_on_c, 0, 61, 58
2, 208493, Note_on_c, 0, 58, 57
2, 208560, Note_on_c, 0, 63, 0
2, 208587, Control_c, 0, 64, 15
2, 208604, Control_c, 0, 64, 43
2, 208626, Control_c, 0, 64, 63
2, 208631, Note_on_c, 0, 61, 0
2, 208642, Control_c, 0, 64, 72
2, 208657, Note_on_c, 0, 58, 0
2, 208662, Control_c, 0, 64, 79
2, 208674, Note_on_c, 0, 72, 68
2, 208697, Control_c, 0, 64, 83
2, 208713, Note_on_c, 0, 70, 0
2, 208715, Control_c, 0, 64, 86
2, 208754, Control_c, 0, 64, 93
2, 208774, Control_c, 0, 64, 97
2, 208811, Control_c, 0, 64, 102
2, 208899, Note_on_c, 0, 46, 62
2, 208903, Control_c, 0, 64, 91
2, 208913, Note_on_c, 0, 73, 67
2, 208924, Control_c, 0, 64, 78
2, 208926, Note_on_c, 0, 72, 0
2, 208942, Control_c, 0, 64, 62
2, 208948, Note_on_c, 0, 53, 46
2, 208961, Control_c, 0, 64, 41
2, 208981, Control_c, 0, 64, 26
2, 209074, Control_c, 0, 64, 21
2, 209080, Note_on_c, 0, 53, 0
2, 209100, Note_on_c, 0, 48, 64
2, 209172, Note_on_c, 0, 46, 0
2, 209359, Note_on_c, 0, 58, 58
2, 209362, Note_on_c, 0, 49, 63
2, 209407, Note_on_c, 0, 73, 0
2, 209415, Note_on_c, 0, 48, 0
2, 209799, Note_on_c, 0, 58, 0
2, 209802, Note_on_c, 0, 49, 0
2, 209822, Note_on_c, 0, 70, 64
2, 210222, Control_c, 0, 64, 17
2, 210241, Control_c, 0, 64, 12
2, 210255, Note_on_c, 0, 50, 50
2, 210257, Note_on_c, 0, 65, 67
2, 210260, Control_c, 0, 64, 0
2, 210263, Note_on_c, 0, 58, 48
2, 210293, Note_on_c, 0, 70, 0
2, 210373, Control_c, 0, 64, 21
2, 210393, Control_c, 0, 64, 45
2, 210411, Control_c, 0, 64, 63
2, 210415, Note_on_c, 0, 65, 0
2, 210431, Control_c, 0, 64, 74
2, 210448, Control_c, 0, 64, 85
2, 210467, Control_c, 0, 64, 97
2, 210486, Control_c, 0, 64, 109
2, 210505, Control_c, 0, 64, 118
2, 210523, Control_c, 0, 64, 123
2, 210542, Control_c, 0, 64, 127
2, 210555, Note_on_c, 0, 50, 0
2, 210559, Note_on_c, 0, 58, 0
2, 210705, Note_on_c, 0, 66, 60
2, 210821, Control_c, 0, 64, 119
2, 210842, Control_c, 0, 64, 103
2, 210861, Control_c, 0, 64, 82
2, 210880, Control_c, 0, 64, 61
2, 210882, Note_on_c, 0, 66, 0
2, 210899, Control_c, 0, 64, 46
2, 210918, Control_c, 0, 64, 42
2, 210922, Note_on_c, 0, 68, 63
2, 210993, Control_c, 0, 64, 34
2, 211010, Control_c, 0, 64, 29
2, 211068, Control_c, 0, 64, 22
2, 211110, Note_on_c, 0, 68, 0
2, 211135, Note_on_c, 0, 66, 59
2, 211149, Note_on_c, 0, 51, 51
2, 211152, Note_on_c, 0, 58, 52
2, 211164, Control_c, 0, 64, 39
2, 211181, Control_c, 0, 64, 53
2, 211202, Control_c, 0, 64, 61
2, 211220, Control_c, 0, 64, 65
2, 211239, Control_c, 0, 64, 67
2, 211258, Control_c, 0, 64, 69
2, 211296, Control_c, 0, 64, 71
2, 211312, Note_on_c, 0, 58, 0
2, 211320, Note_on_c, 0, 51, 0
2, 211327, Note_on_c, 0, 66, 0
2, 211336, Note_on_c, 0, 50, 56
2, 211483, Control_c, 0, 64, 68
2, 211502, Control_c, 0, 64, 63
2, 211521, Control_c, 0, 64, 56
2, 211531, Note_on_c, 0, 51, 48
2, 211538, Control_c, 0, 64, 49
2, 211551, Note_on_c, 0, 78, 63
2, 211558, Control_c, 0, 64, 44
2, 211574, Note_on_c, 0, 63, 56
2, 211588, Note_on_c, 0, 50, 0
2, 211594, Control_c, 0, 64, 39
2, 211603, Note_on_c, 0, 77, 0
2, 211613, Control_c, 0, 64, 33
2, 211651, Control_c, 0, 64, 29
2, 211681, Note_on_c, 0, 63, 0
2, 211752, Note_on_c, 0, 77, 69
2, 211804, Note_on_c, 0, 51, 0
2, 211808, Note_on_c, 0, 78, 0
2, 211810, Note_on_c, 0, 53, 20
2, 211977, Note_on_c, 0, 53, 0
2, 211984, Note_on_c, 0, 54, 56
2, 212001, Note_on_c, 0, 75, 70
2, 212011, Note_on_c, 0, 70, 54
2, 212026, Note_on_c, 0, 77, 0
2, 212234, Control_c, 0, 64, 25
2, 212312, Control_c, 0, 64, 19
2, 212330, Control_c, 0, 64, 13
2, 212350, Control_c, 0, 64, 0
2, 212425, Note_on_c, 0, 70, 0
2, 212439, Note_on_c, 0, 54, 0
2, 212448, Note_on_c, 0, 63, 59
2, 212502, Control_c, 0, 64, 17
2, 212522, Control_c, 0, 64, 28
2, 212555, Control_c, 0, 64, 41
2, 212574, Control_c, 0, 64, 57
2, 212593, Control_c, 0, 64, 69
2, 212613, Control_c, 0, 64, 77
2, 212629, Control_c, 0, 64, 83
2, 212629, Note_on_c, 0, 63, 0
2, 212649, Control_c, 0, 64, 87
2, 212896, Control_c, 0, 64, 85
2, 212899, Note_on_c, 0, 63, 56
2, 212904, Note_on_c, 0, 58, 52
2, 212915, Control_c, 0, 64, 79
2, 212930, Control_c, 0, 64, 70
2, 212930, Note_on_c, 0, 55, 44
2, 212950, Control_c, 0, 64, 59
2, 212971, Control_c, 0, 64, 44
2, 212989, Control_c, 0, 64, 32
2, 213009, Control_c, 0, 64, 24
2, 213027, Control_c, 0, 64, 17
2, 213048, Control_c, 0, 64, 8
2, 213065, Control_c, 0, 64, 0
2, 213140, Control_c, 0, 64, 31
2, 213162, Control_c, 0, 64, 51
2, 213177, Control_c, 0, 64, 63
2, 213198, Control_c, 0, 64, 69
2, 213212, Note_on_c, 0, 63, 0
2, 213215, Control_c, 0, 64, 73
2, 213235, Control_c, 0, 64, 79
2, 213254, Control_c, 0, 64, 88
2, 213273, Control_c, 0, 64, 97
2, 213291, Control_c, 0, 64, 103
2, 213347, Control_c, 0, 64, 96
2, 213367, Control_c, 0, 64, 83
2, 213380, Note_on_c, 0, 60, 56
2, 213386, Control_c, 0, 64, 63
2, 213400, Note_on_c, 0, 58, 0
2, 213404, Control_c, 0, 64, 34
2, 213422, Control_c, 0, 64, 0
2, 213422, Note_on_c, 0, 55, 0
2, 213582, Note_on_c, 0, 61, 62
2, 213591, Note_on_c, 0, 60, 0
2, 213823, Note_on_c, 0, 68, 58
2, 213836, Note_on_c, 0, 56, 50
2, 213845, Note_on_c, 0, 61, 0
2, 213850, Note_on_c, 0, 60, 55
2, 213874, Control_c, 0, 64, 21
2, 213891, Control_c, 0, 64, 41
2, 213910, Control_c, 0, 64, 60
2, 213931, Control_c, 0, 64, 74
2, 213944, Note_on_c, 0, 60, 0
2, 213950, Control_c, 0, 64, 88
2, 213960, Note_on_c, 0, 56, 0
2, 213968, Control_c, 0, 64, 99
2, 213987, Control_c, 0, 64, 105
2, 214025, Control_c, 0, 64, 110
2, 214028, Note_on_c, 0, 70, 62
2, 214132, Note_on_c, 0, 68, 0
2, 214214, Control_c, 0, 64, 105
2, 214223, Note_on_c, 0, 44, 58
2, 214233, Control_c, 0, 64, 95
2, 214235, Note_on_c, 0, 72, 62
2, 214252, Control_c, 0, 64, 78
2, 214264, Note_on_c, 0, 51, 51
2, 214270, Control_c, 0, 64, 54
2, 214289, Control_c, 0, 64, 23
2, 214294, Note_on_c, 0, 70, 0
2, 214308, Control_c, 0, 64, 0
2, 214430, Note_on_c, 0, 46, 62
2, 214464, Note_on_c, 0, 51, 0
2, 214604, Note_on_c, 0, 44, 0
2, 214705, Note_on_c, 0, 56, 53
2, 214706, Note_on_c, 0, 48, 52
2, 214716, Note_on_c, 0, 72, 0
2, 214722, Note_on_c, 0, 46, 0
2, 215083, Note_on_c, 0, 56, 0
2, 215096, Note_on_c, 0, 48, 0
2, 215126, Note_on_c, 0, 68, 61
2, 215576, Note_on_c, 0, 63, 56
2, 215584, Note_on_c, 0, 44, 43
2, 215588, Note_on_c, 0, 48, 45
2, 215598, Control_c, 0, 64, 24
2, 215617, Control_c, 0, 64, 50
2, 215638, Control_c, 0, 64, 69
2, 215654, Control_c, 0, 64, 80
2, 215664, Note_on_c, 0, 68, 0
2, 215668, Note_on_c, 0, 48, 0
2, 215672, Control_c, 0, 64, 91
2, 215674, Note_on_c, 0, 44, 0
2, 215693, Control_c, 0, 64, 99
2, 215713, Control_c, 0, 64, 106
2, 215729, Control_c, 0, 64, 111
2, 215739, Note_on_c, 0, 63, 0
2, 215749, Control_c, 0, 64, 115
2, 215881, Control_c, 0, 64, 119
2, 216012, Control_c, 0, 64, 111
2, 216017, Note_on_c, 0, 65, 50
2, 216033, Control_c, 0, 64, 99
2, 216050, Control_c, 0, 64, 83
2, 216070, Control_c, 0, 64, 62
2, 216089, Control_c, 0, 64, 38
2, 216107, Control_c, 0, 64, 23
2, 216188, Note_on_c, 0, 65, 0
2, 216201, Control_c, 0, 64, 15
2, 216209, Note_on_c, 0, 66, 51
2, 216240, Control_c, 0, 64, 11
2, 216297, Control_c, 0, 64, 0
2, 216497, Note_on_c, 0, 65, 50
2, 216499, Note_on_c, 0, 66, 0
2, 216505, Note_on_c, 0, 37, 45
2, 216513, Note_on_c, 0, 49, 39
2, 216539, Control_c, 0, 64, 9
2, 216557, Control_c, 0, 64, 38
2, 216577, Control_c, 0, 64, 58
2, 216596, Control_c, 0, 64, 69
2, 216608, Note_on_c, 0, 65, 0
2, 216613, Control_c, 0, 64, 78
2, 216635, Control_c, 0, 64, 90
2, 216637, Note_on_c, 0, 37, 0
2, 216652, Control_c, 0, 64, 101
2, 216673, Control_c, 0, 64, 111
2, 216689, Control_c, 0, 64, 117
2, 216709, Control_c, 0, 64, 121
2, 216748, Control_c, 0, 64, 127
2, 216965, Note_on_c, 0, 73, 63
2, 216966, Note_on_c, 0, 51, 45
2, 216984, Note_on_c, 0, 66, 48
2, 216990, Note_on_c, 0, 49, 0
2, 217029, Control_c, 0, 64, 118
2, 217048, Control_c, 0, 64, 106
2, 217067, Control_c, 0, 64, 88
2, 217087, Control_c, 0, 64, 67
2, 217104, Note_on_c, 0, 75, 0
2, 217106, Control_c, 0, 64, 46
2, 217124, Control_c, 0, 64, 33
2, 217169, Note_on_c, 0, 72, 51
2, 217219, Control_c, 0, 64, 29
2, 217241, Note_on_c, 0, 73, 0
2, 217423, Note_on_c, 0, 73, 61
2, 217426, Note_on_c, 0, 66, 0
2, 217437, Note_on_c, 0, 72, 0
2, 217446, Note_on_c, 0, 68, 52
2, 217451, Note_on_c, 0, 53, 45
2, 217466, Note_on_c, 0, 51, 0
2, 217839, Note_on_c, 0, 49, 38
2, 217863, Note_on_c, 0, 77, 59
2, 217866, Note_on_c, 0, 73, 0
2, 217887, Note_on_c, 0, 53, 0
2, 218296, Note_on_c, 0, 77, 0
2, 218319, Note_on_c, 0, 70, 55
2, 218346, Note_on_c, 0, 54, 33
2, 218424, Note_on_c, 0, 49, 0
2, 218746, Note_on_c, 0, 73, 55
2, 218754, Note_on_c, 0, 66, 41
2, 218760, Note_on_c, 0, 58, 38
2, 218796, Note_on_c, 0, 54, 0
2, 218829, Note_on_c, 0, 68, 0
2, 218892, Note_on_c, 0, 66, 0
2, 218931, Note_on_c, 0, 65, 56
2, 218948, Note_on_c, 0, 70, 0
2, 219151, Note_on_c, 0, 65, 0
2, 219157, Control_c, 0, 64, 25
2, 219176, Control_c, 0, 64, 20
2, 219184, Note_on_c, 0, 66, 56
2, 219193, Control_c, 0, 64, 13
2, 219205, Note_on_c, 0, 51, 37
2, 219210, Control_c, 0, 64, 0
2, 219210, Note_on_c, 0, 58, 0
2, 219305, Control_c, 0, 64, 17
2, 219324, Control_c, 0, 64, 44
2, 219342, Control_c, 0, 64, 65
2, 219360, Control_c, 0, 64, 78
2, 219381, Control_c, 0, 64, 92
2, 219397, Note_on_c, 0, 66, 0
2, 219399, Control_c, 0, 64, 105
2, 219417, Control_c, 0, 64, 115
2, 219435, Control_c, 0, 64, 122
2, 219454, Control_c, 0, 64, 127
2, 219628, Note_on_c, 0, 72, 60
2, 219635, Note_on_c, 0, 54, 53
2, 219636, Note_on_c, 0, 73, 0
2, 219644, Note_on_c, 0, 63, 41
2, 219682, Control_c, 0, 64, 117
2, 219701, Control_c, 0, 64, 104
2, 219716, Note_on_c, 0, 51, 0
2, 219719, Control_c, 0, 64, 86
2, 219739, Control_c, 0, 64, 66
2, 219758, Control_c, 0, 64, 46
2, 219779, Control_c, 0, 64, 36
2, 219809, Note_on_c, 0, 73, 61
2, 219849, Note_on_c, 0, 72, 0
2, 219888, Control_c, 0, 64, 32
2, 220065, Note_on_c, 0, 75, 60
2, 220096, Note_on_c, 0, 48, 42
2, 220113, Note_on_c, 0, 73, 0
2, 220117, Note_on_c, 0, 54, 0
2, 220130, Note_on_c, 0, 63, 0
2, 220513, Note_on_c, 0, 51, 44
2, 220520, Note_on_c, 0, 72, 55
2, 220526, Note_on_c, 0, 66, 40
2, 220534, Note_on_c, 0, 48, 0
2, 220584, Note_on_c, 0, 75, 0
2, 220906, Control_c, 0, 64, 25
2, 220926, Control_c, 0, 64, 18
2, 220944, Control_c, 0, 64, 12
2, 220983, Note_on_c, 0, 53, 47
2, 220995, Note_on_c, 0, 69, 51
2, 221051, Note_on_c, 0, 51, 0
2, 221056, Control_c, 0, 64, 28
2, 221077, Control_c, 0, 64, 50
2, 221093, Control_c, 0, 64, 63
2, 221114, Control_c, 0, 64, 69
2, 221131, Control_c, 0, 64, 74
2, 221146, Note_on_c, 0, 72, 0
2, 221151, Control_c, 0, 64, 80
2, 221186, Control_c, 0, 64, 87
2, 221201, Note_on_c, 0, 66, 0
2, 221204, Control_c, 0, 64, 97
2, 221225, Control_c, 0, 64, 105
2, 221280, Control_c, 0, 64, 109
2, 221397, Note_on_c, 0, 69, 0
2, 221439, Note_on_c, 0, 53, 0
2, 221449, Note_on_c, 0, 65, 48
2, 221464, Note_on_c, 0, 57, 49
2, 221467, Note_on_c, 0, 72, 51
2, 221553, Note_on_c, 0, 65, 0
2, 221557, Note_on_c, 0, 57, 0
2, 221646, Note_on_c, 0, 63, 56
2, 221678, Note_on_c, 0, 72, 0
2, 221715, Note_on_c, 0, 63, 0
2, 221885, Control_c, 0, 64, 103
2, 221903, Control_c, 0, 64, 95
2, 221905, Note_on_c, 0, 58, 65
2, 221923, Control_c, 0, 64, 81
2, 221939, Note_on_c, 0, 61, 49
2, 221941, Control_c, 0, 64, 63
2, 221960, Control_c, 0, 64, 41
2, 221979, Control_c, 0, 64, 23
2, 221997, Control_c, 0, 64, 17
2, 222018, Control_c, 0, 64, 11
2, 222035, Control_c, 0, 64, 0
2, 222408, Note_on_c, 0, 70, 45
2, 222430, Control_c, 0, 64, 8
2, 222448, Control_c, 0, 64, 34
2, 222467, Control_c, 0, 64, 52
2, 222471, Note_on_c, 0, 61, 0
2, 222474, Note_on_c, 0, 70, 0
2, 222485, Control_c, 0, 64, 63
2, 222504, Control_c, 0, 64, 70
2, 222524, Control_c, 0, 64, 79
2, 222540, Control_c, 0, 64, 89
2, 222560, Control_c, 0, 64, 98
2, 222580, Control_c, 0, 64, 105
2, 222599, Control_c, 0, 64, 110
2, 222637, Control_c, 0, 64, 114
2, 222653, Note_on_c, 0, 58, 0
2, 222844, Control_c, 0, 64, 105
2, 222844, Note_on_c, 0, 60, 49
2, 222864, Control_c, 0, 64, 91
2, 222877, Note_on_c, 0, 69, 50
2, 222879, Note_on_c, 0, 67, 44
2, 222882, Control_c, 0, 64, 73
2, 222901, Control_c, 0, 64, 55
2, 222915, Note_on_c, 0, 67, 0
2, 222919, Control_c, 0, 64, 39
2, 222940, Control_c, 0, 64, 31
2, 222957, Control_c, 0, 64, 27
2, 222975, Control_c, 0, 64, 20
2, 222995, Control_c, 0, 64, 12
2, 223012, Control_c, 0, 64, 0
2, 223334, Note_on_c, 0, 78, 61
2, 223351, Control_c, 0, 64, 21
2, 223369, Control_c, 0, 64, 43
2, 223390, Control_c, 0, 64, 60
2, 223406, Control_c, 0, 64, 68
2, 223425, Note_on_c, 0, 60, 0
2, 223426, Control_c, 0, 64, 73
2, 223444, Control_c, 0, 64, 79
2, 223464, Control_c, 0, 64, 88
2, 223484, Control_c, 0, 64, 99
2, 223501, Control_c, 0, 64, 108
2, 223520, Control_c, 0, 64, 113
2, 223534, Note_on_c, 0, 69, 0
2, 223559, Control_c, 0, 64, 117
2, 223597, Control_c, 0, 64, 122
2, 223690, Control_c, 0, 64, 127
2, 223781, Note_on_c, 0, 70, 59
2, 223784, Note_on_c, 0, 78, 0
2, 223823, Control_c, 0, 64, 113
2, 223842, Control_c, 0, 64, 99
2, 223862, Control_c, 0, 64, 80
2, 223880, Control_c, 0, 64, 59
2, 223898, Control_c, 0, 64, 42
2, 223917, Control_c, 0, 64, 35
2, 223975, Note_on_c, 0, 77, 54
2, 224010, Control_c, 0, 64, 31
2, 224122, Control_c, 0, 64, 26
2, 224199, Note_on_c, 0, 61, 61
2, 224202, Note_on_c, 0, 75, 62
2, 224229, Note_on_c, 0, 70, 0
2, 224352, Note_on_c, 0, 61, 0
2, 224358, Note_on_c, 0, 77, 0
2, 224403, Control_c, 0, 64, 22
2, 224403, Note_on_c, 0, 73, 59
2, 224505, Note_on_c, 0, 75, 0
2, 224622, Note_on_c, 0, 72, 66
2, 224625, Note_on_c, 0, 63, 62
2, 224642, Note_on_c, 0, 73, 0
2, 224814, Note_on_c, 0, 72, 0
2, 224815, Note_on_c, 0, 73, 63
2, 224989, Control_c, 0, 64, 12
2, 225024, Control_c, 0, 64, 0
2, 225036, Note_on_c, 0, 63, 0
2, 225066, Note_on_c, 0, 72, 72
2, 225067, Note_on_c, 0, 57, 59
2, 225068, Note_on_c, 0, 73, 0
2, 225076, Note_on_c, 0, 75, 56
2, 225137, Control_c, 0, 64, 21
2, 225157, Control_c, 0, 64, 47
2, 225174, Control_c, 0, 64, 66
2, 225188, Note_on_c, 0, 72, 0
2, 225193, Control_c, 0, 64, 78
2, 225209, Note_on_c, 0, 75, 0
2, 225210, Control_c, 0, 64, 92
2, 225232, Control_c, 0, 64, 105
2, 225251, Control_c, 0, 64, 113
2, 225270, Control_c, 0, 64, 117
2, 225363, Control_c, 0, 64, 121
2, 225510, Note_on_c, 0, 73, 73
2, 225513, Note_on_c, 0, 58, 59
2, 225534, Control_c, 0, 64, 114
2, 225555, Control_c, 0, 64, 102
2, 225565, Note_on_c, 0, 57, 0
2, 225569, Control_c, 0, 64, 85
2, 225591, Control_c, 0, 64, 65
2, 225609, Control_c, 0, 64, 44
2, 225629, Control_c, 0, 64, 30
2, 225891, Control_c, 0, 64, 26
2, 225938, Note_on_c, 0, 67, 62
2, 225940, Note_on_c, 0, 82, 71
2, 226060, Control_c, 0, 64, 38
2, 226078, Control_c, 0, 64, 44
2, 226133, Control_c, 0, 64, 50
2, 226154, Control_c, 0, 64, 56
2, 226169, Note_on_c, 0, 67, 0
2, 226170, Control_c, 0, 64, 60
2, 226191, Control_c, 0, 64, 62
2, 226210, Control_c, 0, 64, 65
2, 226230, Control_c, 0, 64, 68
2, 226248, Control_c, 0, 64, 74
2, 226261, Note_on_c, 0, 73, 0
2, 226269, Control_c, 0, 64, 80
2, 226288, Control_c, 0, 64, 86
2, 226305, Control_c, 0, 64, 92
2, 226380, Control_c, 0, 64, 87
2, 226396, Note_on_c, 0, 84, 70
2, 226399, Control_c, 0, 64, 75
2, 226418, Control_c, 0, 64, 61
2, 226418, Note_on_c, 0, 69, 64
2, 226438, Control_c, 0, 64, 48
2, 226457, Control_c, 0, 64, 41
2, 226459, Note_on_c, 0, 82, 0
2, 226475, Control_c, 0, 64, 35
2, 226497, Control_c, 0, 64, 29
2, 226506, Note_on_c, 0, 58, 0
2, 226513, Control_c, 0, 64, 25
2, 226570, Control_c, 0, 64, 21
2, 226808, Note_on_c, 0, 75, 66
2, 226812, Note_on_c, 0, 60, 69
2, 226858, Note_on_c, 0, 84, 0
2, 227019, Control_c, 0, 64, 17
2, 227035, Note_on_c, 0, 60, 0
2, 227222, Note_on_c, 0, 75, 0
2, 227273, Note_on_c, 0, 61, 70
2, 227390, Note_on_c, 0, 69, 0
2, 227466, Note_on_c, 0, 58, 66
2, 227511, Note_on_c, 0, 61, 0
2, 227684, Note_on_c, 0, 73, 69
2, 227699, Note_on_c, 0, 60, 62
2, 227705, Note_on_c, 0, 70, 61
2, 227754, Note_on_c, 0, 58, 0
2, 227855, Note_on_c, 0, 70, 0
2, 227877, Note_on_c, 0, 73, 0
2, 227909, Note_on_c, 0, 61, 65
2, 227912, Note_on_c, 0, 60, 0
2, 228120, Note_on_c, 0, 78, 73
2, 228129, Note_on_c, 0, 72, 63
2, 228142, Note_on_c, 0, 63, 58
2, 228168, Note_on_c, 0, 61, 0
2, 228332, Note_on_c, 0, 69, 61
2, 228337, Note_on_c, 0, 60, 58
2, 228341, Note_on_c, 0, 72, 0
2, 228357, Note_on_c, 0, 63, 0
2, 228527, Note_on_c, 0, 69, 0
2, 228542, Note_on_c, 0, 61, 64
2, 228550, Note_on_c, 0, 60, 0
2, 228554, Note_on_c, 0, 70, 68
2, 228609, Note_on_c, 0, 78, 0
2, 228745, Note_on_c, 0, 70, 0
2, 228746, Note_on_c, 0, 72, 64
2, 228749, Note_on_c, 0, 63, 57
2, 228808, Note_on_c, 0, 61, 0
2, 228969, Note_on_c, 0, 77, 74
2, 228988, Note_on_c, 0, 73, 58
2, 228992, Note_on_c, 0, 65, 62
2, 229014, Note_on_c, 0, 72, 0
2, 229039, Note_on_c, 0, 63, 0
2, 229174, Note_on_c, 0, 61, 63
2, 229175, Note_on_c, 0, 70, 69
2, 229182, Note_on_c, 0, 65, 0
2, 229242, Note_on_c, 0, 77, 0
2, 229245, Note_on_c, 0, 73, 0
2, 229354, Note_on_c, 0, 70, 0
2, 229381, Note_on_c, 0, 63, 64
2, 229387, Note_on_c, 0, 72, 73
2, 229423, Note_on_c, 0, 61, 0
2, 229566, Note_on_c, 0, 65, 67
2, 229569, Note_on_c, 0, 73, 75
2, 229601, Note_on_c, 0, 72, 0
2, 229607, Note_on_c, 0, 63, 0
2, 229811, Note_on_c, 0, 82, 77
2, 229819, Note_on_c, 0, 66, 63
2, 229826, Note_on_c, 0, 73, 0
2, 229830, Note_on_c, 0, 75, 60
2, 229846, Note_on_c, 0, 65, 0
2, 230008, Note_on_c, 0, 72, 69
2, 230009, Note_on_c, 0, 63, 63
2, 230022, Note_on_c, 0, 66, 0
2, 230106, Note_on_c, 0, 75, 0
2, 230140, Control_c, 0, 64, 0
2, 230171, Note_on_c, 0, 72, 0
2, 230228, Note_on_c, 0, 73, 71
2, 230230, Note_on_c, 0, 65, 69
2, 230232, Control_c, 0, 64, 13
2, 230253, Control_c, 0, 64, 38
2, 230255, Note_on_c, 0, 63, 0
2, 230273, Control_c, 0, 64, 57
2, 230290, Control_c, 0, 64, 67
2, 230298, Note_on_c, 0, 82, 0
2, 230308, Control_c, 0, 64, 74
2, 230328, Control_c, 0, 64, 81
2, 230347, Control_c, 0, 64, 88
2, 230367, Control_c, 0, 64, 93
2, 230369, Note_on_c, 0, 73, 0
2, 230418, Note_on_c, 0, 75, 74
2, 230486, Note_on_c, 0, 65, 0
2, 230631, Control_c, 0, 64, 81
2, 230647, Note_on_c, 0, 81, 70
2, 230651, Control_c, 0, 64, 69
2, 230654, Note_on_c, 0, 77, 71
2, 230662, Note_on_c, 0, 75, 0
2, 230670, Control_c, 0, 64, 55
2, 230687, Control_c, 0, 64, 43
2, 230707, Control_c, 0, 64, 33
2, 230726, Control_c, 0, 64, 28
2, 230854, Control_c, 0, 64, 24
2, 230861, Note_on_c, 0, 73, 66
2, 230869, Note_on_c, 0, 77, 0
2, 231101, Note_on_c, 0, 66, 67
2, 231102, Note_on_c, 0, 75, 72
2, 231159, Note_on_c, 0, 73, 0
2, 231214, Control_c, 0, 64, 19
2, 231252, Control_c, 0, 64, 13
2, 231270, Control_c, 0, 64, 0
2, 231439, Control_c, 0, 64, 30
2, 231458, Control_c, 0, 64, 51
2, 231477, Control_c, 0, 64, 61
2, 231496, Control_c, 0, 64, 66
2, 231516, Control_c, 0, 64, 69
2, 231535, Control_c, 0, 64, 75
2, 231547, Note_on_c, 0, 60, 68
2, 231552, Note_on_c, 0, 75, 0
2, 231554, Control_c, 0, 64, 84
2, 231572, Control_c, 0, 64, 93
2, 231592, Control_c, 0, 64, 100
2, 231601, Note_on_c, 0, 66, 0
2, 231628, Control_c, 0, 64, 105
2, 231979, Note_on_c, 0, 77, 72
2, 231985, Control_c, 0, 64, 101
2, 231990, Note_on_c, 0, 61, 59
2, 232002, Control_c, 0, 64, 91
2, 232023, Control_c, 0, 64, 75
2, 232032, Note_on_c, 0, 60, 0
2, 232040, Control_c, 0, 64, 55
2, 232060, Control_c, 0, 64, 35
2, 232077, Control_c, 0, 64, 19
2, 232092, Note_on_c, 0, 81, 0
2, 232116, Control_c, 0, 64, 15
2, 232135, Control_c, 0, 64, 0
2, 232182, Note_on_c, 0, 63, 66
2, 232204, Note_on_c, 0, 61, 0
2, 232414, Note_on_c, 0, 82, 70
2, 232424, Note_on_c, 0, 61, 65
2, 232427, Note_on_c, 0, 70, 61
2, 232457, Note_on_c, 0, 63, 0
2, 232486, Note_on_c, 0, 77, 0
2, 232589, Control_c, 0, 64, 34
2, 232606, Control_c, 0, 64, 60
2, 232625, Control_c, 0, 64, 72
2, 232644, Control_c, 0, 64, 77
2, 232656, Note_on_c, 0, 70, 0
2, 232662, Control_c, 0, 64, 81
2, 232699, Control_c, 0, 64, 84
2, 232717, Control_c, 0, 64, 87
2, 232756, Control_c, 0, 64, 94
2, 232887, Note_on_c, 0, 58, 52
2, 232887, Note_on_c, 0, 72, 68
2, 232937, Note_on_c, 0, 61, 0
2, 233035, Control_c, 0, 64, 89
2, 233079, Note_on_c, 0, 73, 72
2, 233081, Note_on_c, 0, 72, 0
2, 233289, Note_on_c, 0, 82, 0
2, 233303, Control_c, 0, 64, 85
2, 233319, Control_c, 0, 64, 76
2, 233319, Note_on_c, 0, 63, 62
2, 233323, Note_on_c, 0, 72, 75
2, 233338, Control_c, 0, 64, 63
2, 233357, Control_c, 0, 64, 44
2, 233359, Note_on_c, 0, 73, 0
2, 233377, Control_c, 0, 64, 24
2, 233395, Control_c, 0, 64, 14
2, 233431, Control_c, 0, 64, 10
2, 233432, Note_on_c, 0, 58, 0
2, 233469, Control_c, 0, 64, 0
2, 233776, Note_on_c, 0, 70, 67
2, 233784, Note_on_c, 0, 65, 60
2, 233844, Note_on_c, 0, 72, 0
2, 233859, Note_on_c, 0, 63, 0
2, 233978, Note_on_c, 0, 66, 56
2, 234004, Note_on_c, 0, 65, 0
2, 234209, Note_on_c, 0, 69, 75
2, 234220, Note_on_c, 0, 65, 63
2, 234255, Note_on_c, 0, 66, 0
2, 234275, Note_on_c, 0, 70, 0
2, 234656, Note_on_c, 0, 70, 72
2, 234658, Note_on_c, 0, 63, 61
2, 234730, Note_on_c, 0, 65, 0
2, 234768, Note_on_c, 0, 69, 0
2, 234855, Note_on_c, 0, 72, 71
2, 234917, Note_on_c, 0, 70, 0
2, 235092, Note_on_c, 0, 62, 61
2, 235093, Note_on_c, 0, 70, 74
2, 235097, Note_on_c, 0, 63, 0
2, 235213, Note_on_c, 0, 72, 0
2, 235538, Note_on_c, 0, 63, 62
2, 235543, Note_on_c, 0, 68, 70
2, 235596, Note_on_c, 0, 62, 0
2, 235649, Note_on_c, 0, 70, 0
2, 235749, Note_on_c, 0, 65, 62
2, 235765, Note_on_c, 0, 63, 0
2, 235989, Note_on_c, 0, 67, 73
2, 235991, Note_on_c, 0, 63, 65
2, 236001, Note_on_c, 0, 65, 0
2, 236061, Note_on_c, 0, 68, 0
2, 236431, Note_on_c, 0, 68, 70
2, 236432, Note_on_c, 0, 61, 62
2, 236513, Note_on_c, 0, 63, 0
2, 236544, Note_on_c, 0, 67, 0
2, 236637, Note_on_c, 0, 70, 79
2, 236696, Note_on_c, 0, 68, 0
2, 236855, Note_on_c, 0, 68, 75
2, 236861, Note_on_c, 0, 60, 70
2, 236883, Note_on_c, 0, 61, 0
2, 236926, Note_on_c, 0, 70, 0
2, 237086, Control_c, 0, 64, 8
2, 237126, Control_c, 0, 64, 16
2, 237142, Control_c, 0, 64, 22
2, 237161, Control_c, 0, 64, 27
2, 237254, Control_c, 0, 64, 22
2, 237274, Control_c, 0, 64, 14
2, 237295, Note_on_c, 0, 61, 64
2, 237297, Note_on_c, 0, 66, 78
2, 237312, Control_c, 0, 64, 0
2, 237340, Note_on_c, 0, 60, 0
2, 237397, Note_on_c, 0, 68, 0
2, 237445, Control_c, 0, 64, 32
2, 237465, Control_c, 0, 64, 51
2, 237494, Note_on_c, 0, 63, 70
2, 237496, Control_c, 0, 64, 64
2, 237502, Note_on_c, 0, 61, 0
2, 237516, Control_c, 0, 64, 71
2, 237533, Control_c, 0, 64, 78
2, 237534, Note_on_c, 0, 63, 0
2, 237554, Control_c, 0, 64, 84
2, 237573, Control_c, 0, 64, 89
2, 237593, Control_c, 0, 64, 93
2, 237631, Control_c, 0, 64, 100
2, 237668, Control_c, 0, 64, 105
2, 237777, Note_on_c, 0, 73, 81
2, 237798, Note_on_c, 0, 65, 59
2, 237801, Control_c, 0, 64, 94
2, 237801, Note_on_c, 0, 61, 68
2, 237818, Control_c, 0, 64, 82
2, 237822, Note_on_c, 0, 66, 0
2, 237838, Control_c, 0, 64, 66
2, 237857, Control_c, 0, 64, 46
2, 237877, Control_c, 0, 64, 30
2, 237892, Control_c, 0, 64, 22
2, 237932, Control_c, 0, 64, 14
2, 237952, Control_c, 0, 64, 0
2, 238138, Control_c, 0, 64, 20
2, 238159, Control_c, 0, 64, 32
2, 238176, Control_c, 0, 64, 45
2, 238197, Control_c, 0, 64, 57
2, 238213, Control_c, 0, 64, 66
2, 238227, Note_on_c, 0, 60, 69
2, 238228, Note_on_c, 0, 63, 75
2, 238233, Control_c, 0, 64, 71
2, 238237, Note_on_c, 0, 61, 0
2, 238246, Note_on_c, 0, 65, 0
2, 238251, Control_c, 0, 64, 75
2, 238272, Control_c, 0, 64, 80
2, 238290, Control_c, 0, 64, 88
2, 238311, Control_c, 0, 64, 95
2, 238312, Note_on_c, 0, 73, 0
2, 238329, Control_c, 0, 64, 101
2, 238366, Control_c, 0, 64, 105
2, 238382, Note_on_c, 0, 63, 0
2, 238399, Note_on_c, 0, 60, 0
2, 238405, Note_on_c, 0, 65, 75
2, 238408, Note_on_c, 0, 58, 72
2, 238489, Note_on_c, 0, 58, 0
2, 238645, Control_c, 0, 64, 101
2, 238666, Control_c, 0, 64, 94
2, 238679, Note_on_c, 0, 48, 76
2, 238685, Control_c, 0, 64, 81
2, 238685, Note_on_c, 0, 75, 77
2, 238690, Note_on_c, 0, 56, 61
2, 238699, Note_on_c, 0, 66, 59
2, 238701, Control_c, 0, 64, 63
2, 238721, Control_c, 0, 64, 37
2, 238739, Control_c, 0, 64, 0
2, 238776, Note_on_c, 0, 65, 0
2, 238906, Note_on_c, 0, 66, 0
2, 238911, Control_c, 0, 64, 26
2, 238927, Control_c, 0, 64, 47
2, 238947, Control_c, 0, 64, 61
2, 238966, Control_c, 0, 64, 69
2, 238987, Control_c, 0, 64, 74
2, 239005, Control_c, 0, 64, 81
2, 239024, Control_c, 0, 64, 90
2, 239045, Control_c, 0, 64, 101
2, 239061, Control_c, 0, 64, 111
2, 239080, Control_c, 0, 64, 117
2, 239119, Control_c, 0, 64, 121
2, 239138, Note_on_c, 0, 65, 73
2, 239162, Note_on_c, 0, 48, 0
2, 239211, Control_c, 0, 64, 113
2, 239231, Control_c, 0, 64, 102
2, 239250, Control_c, 0, 64, 88
2, 239271, Control_c, 0, 64, 69
2, 239288, Control_c, 0, 64, 46
2, 239307, Control_c, 0, 64, 27
2, 239321, Note_on_c, 0, 63, 74
2, 239326, Control_c, 0, 64, 22
2, 239328, Note_on_c, 0, 65, 0
2, 239419, Control_c, 0, 64, 17
2, 239457, Control_c, 0, 64, 9
2, 239478, Control_c, 0, 64, 0
2, 239575, Note_on_c, 0, 61, 76
2, 239577, Note_on_c, 0, 63, 0
2, 239581, Note_on_c, 0, 49, 72
2, 239601, Note_on_c, 0, 75, 0
2, 239992, Note_on_c, 0, 77, 77
2, 240013, Note_on_c, 0, 73, 67
2, 240067, Note_on_c, 0, 61, 0
2, 240098, Control_c, 0, 64, 8
2, 240118, Control_c, 0, 64, 37
2, 240135, Control_c, 0, 64, 57
2, 240155, Control_c, 0, 64, 65
2, 240172, Control_c, 0, 64, 66
2, 240180, Note_on_c, 0, 77, 0
2, 240193, Control_c, 0, 64, 65
2, 240212, Control_c, 0, 64, 64
2, 240232, Control_c, 0, 64, 63
2, 240239, Note_on_c, 0, 73, 0
2, 240250, Control_c, 0, 64, 60
2, 240269, Control_c, 0, 64, 56
2, 240287, Control_c, 0, 64, 51
2, 240306, Control_c, 0, 64, 47
2, 240325, Control_c, 0, 64, 43
2, 240343, Control_c, 0, 64, 40
2, 240377, Control_c, 0, 64, 34
2, 240396, Control_c, 0, 64, 25
2, 240415, Control_c, 0, 64, 19
2, 240430, Note_on_c, 0, 78, 80
2, 240440, Note_on_c, 0, 72, 69
2, 240502, Note_on_c, 0, 49, 0
2, 240605, Control_c, 0, 64, 24
2, 240622, Control_c, 0, 64, 33
2, 240633, Note_on_c, 0, 70, 76
2, 240678, Note_on_c, 0, 78, 0
2, 240697, Note_on_c, 0, 72, 0
2, 240718, Control_c, 0, 64, 38
2, 240739, Control_c, 0, 64, 41
2, 240832, Control_c, 0, 64, 36
2, 240840, Note_on_c, 0, 72, 76
2, 240846, Note_on_c, 0, 51, 75
2, 240851, Note_on_c, 0, 68, 70
2, 240870, Control_c, 0, 64, 31
2, 240907, Note_on_c, 0, 70, 0
2, 240983, Control_c, 0, 64, 37
2, 241002, Control_c, 0, 64, 51
2, 241020, Control_c, 0, 64, 61
2, 241037, Control_c, 0, 64, 64
2, 241037, Note_on_c, 0, 66, 67
2, 241057, Control_c, 0, 64, 65
2, 241062, Note_on_c, 0, 68, 0
2, 241065, Note_on_c, 0, 51, 0
2, 241077, Control_c, 0, 64, 66
2, 241093, Control_c, 0, 64, 67
2, 241113, Control_c, 0, 64, 69
2, 241131, Control_c, 0, 64, 71
2, 241150, Note_on_c, 0, 66, 0
2, 241152, Control_c, 0, 64, 74
2, 241170, Control_c, 0, 64, 76
2, 241230, Control_c, 0, 64, 74
2, 241245, Control_c, 0, 64, 67
2, 241256, Note_on_c, 0, 73, 75
2, 241265, Control_c, 0, 64, 58
2, 241266, Note_on_c, 0, 53, 75
2, 241270, Note_on_c, 0, 65, 62
2, 241283, Control_c, 0, 64, 48
2, 241285, Note_on_c, 0, 72, 0
2, 241302, Control_c, 0, 64, 38
2, 241335, Control_c, 0, 64, 29
2, 241355, Control_c, 0, 64, 25
2, 241425, Note_on_c, 0, 65, 0
2, 241476, Note_on_c, 0, 63, 57
2, 241657, Control_c, 0, 64, 21
2, 241677, Control_c, 0, 64, 13
2, 241683, Note_on_c, 0, 63, 0
2, 241698, Control_c, 0, 64, 0
2, 241701, Note_on_c, 0, 46, 76
2, 241715, Note_on_c, 0, 61, 72
2, 241776, Note_on_c, 0, 53, 0
2, 241827, Control_c, 0, 64, 35
2, 241845, Control_c, 0, 64, 60
2, 241866, Control_c, 0, 64, 74
2, 241883, Control_c, 0, 64, 85
2, 241903, Control_c, 0, 64, 91
2, 241924, Control_c, 0, 64, 95
2, 241941, Control_c, 0, 64, 100
2, 241979, Control_c, 0, 64, 107
2, 241985, Note_on_c, 0, 61, 0
2, 241995, Note_on_c, 0, 46, 0
2, 241997, Control_c, 0, 64, 112
2, 242017, Control_c, 0, 64, 118
2, 242036, Control_c, 0, 64, 124
2, 242122, Note_on_c, 0, 68, 76
2, 242129, Control_c, 0, 64, 117
2, 242137, Note_on_c, 0, 48, 70
2, 242150, Control_c, 0, 64, 100
2, 242169, Control_c, 0, 64, 78
2, 242189, Control_c, 0, 64, 50
2, 242200, Note_on_c, 0, 73, 0
2, 242204, Control_c, 0, 64, 22
2, 242223, Control_c, 0, 64, 16
2, 242256, Note_on_c, 0, 56, 0
2, 242322, Note_on_c, 0, 54, 63
2, 242552, Note_on_c, 0, 75, 78
2, 242564, Note_on_c, 0, 53, 75
2, 242568, Note_on_c, 0, 54, 0
2, 242731, Note_on_c, 0, 75, 0
2, 242744, Note_on_c, 0, 51, 75
2, 242752, Note_on_c, 0, 53, 0
2, 242783, Note_on_c, 0, 48, 0
2, 242978, Note_on_c, 0, 49, 74
2, 242978, Note_on_c, 0, 77, 77
2, 243031, Note_on_c, 0, 51, 0
2, 243148, Note_on_c, 0, 49, 0
2, 243172, Note_on_c, 0, 73, 77
2, 243212, Note_on_c, 0, 77, 0
2, 243405, Note_on_c, 0, 75, 75
2, 243407, Note_on_c, 0, 61, 78
2, 243412, Note_on_c, 0, 49, 76
2, 243547, Note_on_c, 0, 61, 0
2, 243557, Note_on_c, 0, 49, 0
2, 243604, Note_on_c, 0, 77, 72
2, 243656, Note_on_c, 0, 73, 0
2, 243680, Note_on_c, 0, 75, 0
2, 243833, Note_on_c, 0, 78, 78
2, 243834, Note_on_c, 0, 60, 73
2, 243844, Note_on_c, 0, 51, 66
2, 243847, Note_on_c, 0, 77, 0
2, 244027, Note_on_c, 0, 75, 75
2, 244029, Note_on_c, 0, 48, 74
2, 244067, Note_on_c, 0, 51, 0
2, 244074, Note_on_c, 0, 78, 0
2, 244182, Note_on_c, 0, 68, 0
2, 244246, Note_on_c, 0, 77, 73
2, 244258, Note_on_c, 0, 49, 74
2, 244263, Note_on_c, 0, 60, 0
2, 244328, Note_on_c, 0, 48, 0
2, 244355, Note_on_c, 0, 75, 0
2, 244442, Note_on_c, 0, 78, 76
2, 244443, Note_on_c, 0, 51, 69
2, 244506, Note_on_c, 0, 49, 0
2, 244515, Note_on_c, 0, 77, 0
2, 244655, Note_on_c, 0, 80, 76
2, 244659, Note_on_c, 0, 53, 68
2, 244661, Note_on_c, 0, 73, 70
2, 244672, Note_on_c, 0, 56, 61
2, 244682, Note_on_c, 0, 78, 0
2, 244690, Note_on_c, 0, 51, 0
2, 244863, Note_on_c, 0, 49, 71
2, 244864, Note_on_c, 0, 77, 77
2, 244876, Note_on_c, 0, 53, 0
2, 244884, Note_on_c, 0, 80, 0
2, 245060, Note_on_c, 0, 51, 70
2, 245071, Note_on_c, 0, 78, 75
2, 245125, Note_on_c, 0, 56, 0
2, 245130, Note_on_c, 0, 77, 0
2, 245132, Note_on_c, 0, 49, 0
2, 245270, Note_on_c, 0, 53, 68
2, 245278, Note_on_c, 0, 80, 79
2, 245315, Note_on_c, 0, 51, 0
2, 245343, Note_on_c, 0, 78, 0
2, 245492, Note_on_c, 0, 82, 80
2, 245495, Note_on_c, 0, 54, 68
2, 245500, Note_on_c, 0, 53, 0
2, 245515, Note_on_c, 0, 63, 66
2, 245556, Note_on_c, 0, 80, 0
2, 245685, Note_on_c, 0, 78, 80
2, 245689, Note_on_c, 0, 51, 71
2, 245731, Note_on_c, 0, 82, 0
2, 245732, Note_on_c, 0, 54, 0
2, 245893, Note_on_c, 0, 53, 66
2, 245899, Note_on_c, 0, 80, 81
2, 245911, Control_c, 0, 64, 20
2, 245933, Note_on_c, 0, 51, 0
2, 245990, Note_on_c, 0, 63, 0
2, 246006, Control_c, 0, 64, 24
2, 246097, Note_on_c, 0, 54, 70
2, 246099, Note_on_c, 0, 53, 0
2, 246321, Note_on_c, 0, 78, 0
2, 246331, Note_on_c, 0, 56, 70
2, 246333, Note_on_c, 0, 65, 76
2, 246388, Note_on_c, 0, 54, 0
2, 246391, Note_on_c, 0, 73, 0
2, 246485, Note_on_c, 0, 65, 0
2, 246526, Note_on_c, 0, 53, 75
2, 246549, Control_c, 0, 64, 31
2, 246551, Note_on_c, 0, 56, 0
2, 246569, Control_c, 0, 64, 38
2, 246589, Control_c, 0, 64, 42
2, 246662, Control_c, 0, 64, 36
2, 246682, Control_c, 0, 64, 26
2, 246700, Control_c, 0, 64, 15
2, 246737, Note_on_c, 0, 82, 83
2, 246738, Control_c, 0, 64, 0
2, 246740, Note_on_c, 0, 54, 70
2, 246757, Note_on_c, 0, 63, 72
2, 246772, Note_on_c, 0, 53, 0
2, 246795, Note_on_c, 0, 80, 0
2, 246834, Control_c, 0, 64, 34
2, 246851, Control_c, 0, 64, 57
2, 246868, Note_on_c, 0, 82, 0
2, 246870, Control_c, 0, 64, 70
2, 246890, Control_c, 0, 64, 82
2, 246908, Control_c, 0, 64, 97
2, 246927, Control_c, 0, 64, 114
2, 246932, Note_on_c, 0, 54, 0
2, 246936, Note_on_c, 0, 61, 76
2, 246945, Control_c, 0, 64, 126
2, 246974, Note_on_c, 0, 63, 0
2, 247006, Note_on_c, 0, 61, 0
2, 247202, Note_on_c, 0, 75, 75
2, 247208, Note_on_c, 0, 68, 69
2, 247212, Note_on_c, 0, 72, 75
2, 247261, Control_c, 0, 64, 113
2, 247279, Control_c, 0, 64, 90
2, 247300, Control_c, 0, 64, 61
2, 247318, Control_c, 0, 64, 26
2, 247336, Control_c, 0, 64, 8
2, 247668, Note_on_c, 0, 77, 74
2, 247697, Note_on_c, 0, 56, 69
2, 247856, Note_on_c, 0, 78, 76
2, 247880, Note_on_c, 0, 77, 0
2, 248122, Note_on_c, 0, 49, 71
2, 248128, Note_on_c, 0, 77, 73
2, 248160, Note_on_c, 0, 72, 0
2, 248191, Note_on_c, 0, 56, 0
2, 248242, Note_on_c, 0, 75, 0
2, 248321, Note_on_c, 0, 68, 0
2, 248574, Note_on_c, 0, 73, 71
2, 248586, Note_on_c, 0, 51, 54
2, 248651, Note_on_c, 0, 78, 0
2, 248666, Note_on_c, 0, 77, 0
2, 248685, Note_on_c, 0, 49, 0
2, 248755, Note_on_c, 0, 53, 51
2, 248756, Note_on_c, 0, 51, 0
2, 249009, Note_on_c, 0, 78, 61
2, 249018, Note_on_c, 0, 72, 68
2, 249030, Note_on_c, 0, 51, 54
2, 249033, Note_on_c, 0, 53, 0
2, 249103, Note_on_c, 0, 73, 0
2, 249447, Note_on_c, 0, 53, 55
2, 249456, Note_on_c, 0, 71, 68
2, 249460, Note_on_c, 0, 51, 0
2, 249496, Note_on_c, 0, 78, 0
2, 249509, Note_on_c, 0, 72, 0
2, 249627, Note_on_c, 0, 53, 0
2, 249639, Note_on_c, 0, 54, 49
2, 249886, Note_on_c, 0, 80, 60
2, 249887, Note_on_c, 0, 54, 0
2, 249889, Note_on_c, 0, 53, 56
2, 249990, Control_c, 0, 64, 20
2, 250008, Control_c, 0, 64, 34
2, 250028, Control_c, 0, 64, 47
2, 250047, Control_c, 0, 64, 55
2, 250067, Control_c, 0, 64, 59
2, 250085, Control_c, 0, 64, 61
2, 250104, Control_c, 0, 64, 64
2, 250124, Control_c, 0, 64, 67
2, 250141, Control_c, 0, 64, 70
2, 250160, Control_c, 0, 64, 72
2, 250179, Control_c, 0, 64, 74
2, 250199, Control_c, 0, 64, 76
2, 250235, Control_c, 0, 64, 79
2, 250332, Note_on_c, 0, 49, 47
2, 250351, Control_c, 0, 64, 76
2, 250351, Note_on_c, 0, 71, 0
2, 250353, Note_on_c, 0, 70, 57
2, 250367, Control_c, 0, 64, 74
2, 250372, Note_on_c, 0, 53, 0
2, 250406, Control_c, 0, 64, 72
2, 250428, Note_on_c, 0, 80, 0
2, 250442, Control_c, 0, 64, 68
2, 250461, Control_c, 0, 64, 65
2, 250481, Control_c, 0, 64, 63
2, 250519, Control_c, 0, 64, 62
2, 250538, Control_c, 0, 64, 59
2, 250558, Control_c, 0, 64, 54
2, 250562, Note_on_c, 0, 70, 0
2, 250564, Note_on_c, 0, 68, 60
2, 250577, Control_c, 0, 64, 51
2, 250633, Control_c, 0, 64, 48
2, 250652, Control_c, 0, 64, 42
2, 250671, Control_c, 0, 64, 36
2, 250746, Control_c, 0, 64, 32
2, 250777, Note_on_c, 0, 68, 0
2, 250792, Note_on_c, 0, 54, 51
2, 250803, Note_on_c, 0, 70, 61
2, 250840, Control_c, 0, 64, 28
2, 250875, Note_on_c, 0, 49, 0
2, 251224, Note_on_c, 0, 78, 69
2, 251238, Note_on_c, 0, 56, 48
2, 251252, Control_c, 0, 64, 33
2, 251271, Control_c, 0, 64, 42
2, 251276, Note_on_c, 0, 54, 0
2, 251290, Control_c, 0, 64, 49
2, 251311, Control_c, 0, 64, 51
2, 251327, Control_c, 0, 64, 54
2, 251348, Control_c, 0, 64, 59
2, 251365, Control_c, 0, 64, 65
2, 251386, Control_c, 0, 64, 68
2, 251395, Note_on_c, 0, 70, 0
2, 251401, Control_c, 0, 64, 71
2, 251419, Note_on_c, 0, 58, 46
2, 251421, Control_c, 0, 64, 73
2, 251429, Note_on_c, 0, 56, 0
2, 251441, Control_c, 0, 64, 75
2, 251459, Control_c, 0, 64, 77
2, 251555, Control_c, 0, 64, 79
2, 251573, Control_c, 0, 64, 81
2, 251592, Control_c, 0, 64, 84
2, 251612, Control_c, 0, 64, 86
2, 251662, Note_on_c, 0, 77, 73
2, 251666, Note_on_c, 0, 56, 65
2, 251686, Control_c, 0, 64, 82
2, 251692, Note_on_c, 0, 71, 44
2, 251706, Control_c, 0, 64, 76
2, 251713, Note_on_c, 0, 58, 0
2, 251726, Control_c, 0, 64, 69
2, 251742, Control_c, 0, 64, 59
2, 251749, Note_on_c, 0, 78, 0
2, 251760, Control_c, 0, 64, 51
2, 251779, Control_c, 0, 64, 44
2, 251797, Control_c, 0, 64, 36
2, 251816, Control_c, 0, 64, 28
2, 251906, Control_c, 0, 64, 24
2, 252125, Note_on_c, 0, 76, 78
2, 252140, Note_on_c, 0, 58, 56
2, 252195, Note_on_c, 0, 56, 0
2, 252259, Note_on_c, 0, 77, 0
2, 252310, Note_on_c, 0, 59, 56
2, 252338, Note_on_c, 0, 58, 0
2, 252549, Control_c, 0, 64, 20
2, 252561, Note_on_c, 0, 58, 65
2, 252568, Control_c, 0, 64, 16
2, 252571, Note_on_c, 0, 73, 70
2, 252580, Note_on_c, 0, 59, 0
2, 252587, Note_on_c, 0, 71, 0
2, 252604, Control_c, 0, 64, 10
2, 252701, Control_c, 0, 64, 30
2, 252718, Note_on_c, 0, 76, 0
2, 252720, Control_c, 0, 64, 47
2, 252739, Control_c, 0, 64, 58
2, 252756, Control_c, 0, 64, 63
2, 252776, Control_c, 0, 64, 68
2, 252795, Control_c, 0, 64, 76
2, 252813, Control_c, 0, 64, 86
2, 252833, Control_c, 0, 64, 94
2, 252865, Control_c, 0, 64, 100
2, 252904, Control_c, 0, 64, 106
2, 252981, Control_c, 0, 64, 99
2, 252999, Control_c, 0, 64, 90
2, 253004, Note_on_c, 0, 75, 71
2, 253009, Note_on_c, 0, 73, 0
2, 253010, Note_on_c, 0, 54, 57
2, 253016, Control_c, 0, 64, 77
2, 253020, Note_on_c, 0, 70, 60
2, 253035, Control_c, 0, 64, 62
2, 253048, Note_on_c, 0, 58, 0
2, 253056, Control_c, 0, 64, 50
2, 253075, Control_c, 0, 64, 46
2, 253168, Control_c, 0, 64, 44
2, 253203, Note_on_c, 0, 73, 70
2, 253212, Note_on_c, 0, 70, 0
2, 253212, Note_on_c, 0, 75, 0
2, 253301, Control_c, 0, 64, 46
2, 253395, Control_c, 0, 64, 44
2, 253415, Control_c, 0, 64, 40
2, 253433, Control_c, 0, 64, 32
2, 253448, Note_on_c, 0, 59, 73
2, 253452, Control_c, 0, 64, 17
2, 253460, Note_on_c, 0, 75, 68
2, 253463, Note_on_c, 0, 66, 65
2, 253471, Control_c, 0, 64, 11
2, 253504, Note_on_c, 0, 54, 0
2, 253603, Control_c, 0, 64, 27
2, 253621, Control_c, 0, 64, 41
2, 253641, Control_c, 0, 64, 52
2, 253660, Control_c, 0, 64, 57
2, 253680, Control_c, 0, 64, 60
2, 253698, Control_c, 0, 64, 61
2, 253715, Control_c, 0, 64, 64
2, 253716, Note_on_c, 0, 73, 0
2, 253736, Control_c, 0, 64, 68
2, 253754, Control_c, 0, 64, 71
2, 253773, Control_c, 0, 64, 73
2, 253892, Note_on_c, 0, 63, 74
2, 253908, Note_on_c, 0, 77, 70
2, 253955, Note_on_c, 0, 75, 0
2, 254002, Note_on_c, 0, 59, 0
2, 254073, Note_on_c, 0, 66, 0
2, 254086, Note_on_c, 0, 78, 73
2, 254101, Note_on_c, 0, 77, 0
2, 254297, Control_c, 0, 64, 68
2, 254312, Note_on_c, 0, 62, 76
2, 254314, Control_c, 0, 64, 61
2, 254314, Note_on_c, 0, 77, 68
2, 254319, Note_on_c, 0, 59, 62
2, 254328, Note_on_c, 0, 78, 0
2, 254332, Note_on_c, 0, 68, 59
2, 254335, Control_c, 0, 64, 53
2, 254355, Control_c, 0, 64, 46
2, 254366, Note_on_c, 0, 63, 0
2, 254372, Control_c, 0, 64, 40
2, 254393, Control_c, 0, 64, 33
2, 254412, Control_c, 0, 64, 26
2, 254431, Control_c, 0, 64, 20
2, 254448, Control_c, 0, 64, 12
2, 254506, Control_c, 0, 64, 0
2, 254658, Control_c, 0, 64, 23
2, 254675, Control_c, 0, 64, 43
2, 254695, Control_c, 0, 64, 57
2, 254714, Control_c, 0, 64, 61
2, 254732, Control_c, 0, 64, 62
2, 254763, Control_c, 0, 64, 63
2, 254765, Note_on_c, 0, 79, 74
2, 254768, Note_on_c, 0, 61, 73
2, 254785, Control_c, 0, 64, 65
2, 254803, Control_c, 0, 64, 67
2, 254803, Note_on_c, 0, 62, 0
2, 254811, Note_on_c, 0, 68, 0
2, 254823, Note_on_c, 0, 59, 0
2, 254841, Control_c, 0, 64, 69
2, 254841, Note_on_c, 0, 77, 0
2, 254948, Note_on_c, 0, 80, 79
2, 254984, Note_on_c, 0, 79, 0
2, 255049, Control_c, 0, 64, 71
2, 255107, Control_c, 0, 64, 74
2, 255163, Control_c, 0, 64, 69
2, 255178, Note_on_c, 0, 79, 66
2, 255181, Control_c, 0, 64, 61
2, 255198, Note_on_c, 0, 70, 69
2, 255200, Control_c, 0, 64, 52
2, 255201, Note_on_c, 0, 58, 62
2, 255220, Control_c, 0, 64, 44
2, 255227, Note_on_c, 0, 80, 0
2, 255240, Control_c, 0, 64, 35
2, 255257, Control_c, 0, 64, 26
2, 255276, Control_c, 0, 64, 20
2, 255296, Control_c, 0, 64, 16
2, 255315, Control_c, 0, 64, 12
2, 255333, Control_c, 0, 64, 8
2, 255352, Control_c, 0, 64, 0
2, 255560, Control_c, 0, 64, 16
2, 255580, Control_c, 0, 64, 35
2, 255590, Note_on_c, 0, 70, 0
2, 255597, Control_c, 0, 64, 50
2, 255617, Control_c, 0, 64, 59
2, 255621, Note_on_c, 0, 60, 73
2, 255623, Note_on_c, 0, 61, 0
2, 255633, Control_c, 0, 64, 63
2, 255636, Note_on_c, 0, 51, 60
2, 255655, Control_c, 0, 64, 65
2, 255660, Note_on_c, 0, 58, 0
2, 255674, Control_c, 0, 64, 66
2, 255692, Control_c, 0, 64, 71
2, 255711, Control_c, 0, 64, 75
2, 255745, Control_c, 0, 64, 77
2, 255815, Note_on_c, 0, 58, 75
2, 255820, Note_on_c, 0, 60, 0
2, 255855, Note_on_c, 0, 51, 0
2, 255990, Control_c, 0, 64, 69
2, 256009, Control_c, 0, 64, 60
2, 256028, Control_c, 0, 64, 49
2, 256047, Control_c, 0, 64, 35
2, 256065, Control_c, 0, 64, 11
2, 256071, Note_on_c, 0, 80, 80
2, 256079, Note_on_c, 0, 60, 68
2, 256082, Note_on_c, 0, 56, 67
2, 256085, Control_c, 0, 64, 0
2, 256097, Note_on_c, 0, 58, 0
2, 256100, Note_on_c, 0, 79, 0
2, 256181, Control_c, 0, 64, 36
2, 256199, Control_c, 0, 64, 63
2, 256199, Note_on_c, 0, 80, 0
2, 256217, Control_c, 0, 64, 81
2, 256236, Control_c, 0, 64, 102
2, 256255, Control_c, 0, 64, 117
2, 256275, Control_c, 0, 64, 124
2, 256310, Note_on_c, 0, 56, 0
2, 256500, Note_on_c, 0, 68, 78
2, 256508, Note_on_c, 0, 53, 62
2, 256518, Note_on_c, 0, 58, 75
2, 256558, Control_c, 0, 64, 118
2, 256575, Note_on_c, 0, 60, 0
2, 256595, Control_c, 0, 64, 114
2, 256634, Control_c, 0, 64, 107
2, 256652, Note_on_c, 0, 53, 0
2, 256703, Control_c, 0, 64, 103
2, 256705, Note_on_c, 0, 56, 72
2, 256742, Control_c, 0, 64, 97
2, 256746, Note_on_c, 0, 58, 0
2, 256893, Control_c, 0, 64, 92
2, 256914, Control_c, 0, 64, 80
2, 256930, Control_c, 0, 64, 62
2, 256940, Note_on_c, 0, 67, 75
2, 256950, Control_c, 0, 64, 37
2, 256951, Note_on_c, 0, 56, 0
2, 256953, Note_on_c, 0, 61, 71
2, 256956, Note_on_c, 0, 46, 80
2, 256988, Control_c, 0, 64, 0
2, 257010, Note_on_c, 0, 68, 0
2, 257083, Control_c, 0, 64, 25
2, 257085, Note_on_c, 0, 67, 0
2, 257101, Control_c, 0, 64, 57
2, 257120, Control_c, 0, 64, 78
2, 257142, Control_c, 0, 64, 97
2, 257159, Control_c, 0, 64, 114
2, 257175, Control_c, 0, 64, 122
2, 257195, Control_c, 0, 64, 126
2, 257369, Note_on_c, 0, 66, 64
2, 257387, Note_on_c, 0, 51, 77
2, 257388, Note_on_c, 0, 60, 70
2, 257430, Note_on_c, 0, 61, 0
2, 257479, Control_c, 0, 64, 109
2, 257499, Control_c, 0, 64, 91
2, 257512, Note_on_c, 0, 46, 0
2, 257518, Control_c, 0, 64, 70
2, 257537, Control_c, 0, 64, 48
2, 257556, Control_c, 0, 64, 31
2, 257563, Note_on_c, 0, 58, 71
2, 257572, Note_on_c, 0, 60, 0
2, 257611, Control_c, 0, 64, 27
2, 257683, Control_c, 0, 64, 22
2, 257721, Control_c, 0, 64, 15
2, 257739, Control_c, 0, 64, 0
2, 257829, Note_on_c, 0, 63, 77
2, 257832, Note_on_c, 0, 48, 77
2, 257905, Note_on_c, 0, 66, 0
2, 257915, Note_on_c, 0, 58, 0
2, 257927, Control_c, 0, 64, 39
2, 257942, Note_on_c, 0, 51, 0
2, 257946, Control_c, 0, 64, 64
2, 257964, Control_c, 0, 64, 81
2, 257985, Control_c, 0, 64, 99
2, 258002, Control_c, 0, 64, 111
2, 258023, Control_c, 0, 64, 117
2, 258061, Control_c, 0, 64, 122
2, 258100, Control_c, 0, 64, 127
2, 258243, Note_on_c, 0, 61, 73
2, 258256, Note_on_c, 0, 65, 81
2, 258265, Note_on_c, 0, 44, 68
2, 258286, Control_c, 0, 64, 115
2, 258293, Note_on_c, 0, 63, 0
2, 258300, Note_on_c, 0, 48, 0
2, 258305, Control_c, 0, 64, 99
2, 258326, Control_c, 0, 64, 79
2, 258345, Control_c, 0, 64, 58
2, 258362, Control_c, 0, 64, 37
2, 258381, Control_c, 0, 64, 28
2, 258404, Note_on_c, 0, 61, 0
2, 258420, Control_c, 0, 64, 23
2, 258435, Note_on_c, 0, 60, 73
2, 258437, Note_on_c, 0, 63, 77
2, 258438, Control_c, 0, 64, 17
2, 258458, Control_c, 0, 64, 12
2, 258474, Note_on_c, 0, 65, 0
2, 258496, Control_c, 0, 64, 8
2, 258516, Control_c, 0, 64, 0
2, 258700, Note_on_c, 0, 49, 66
2, 258704, Note_on_c, 0, 65, 81
2, 258708, Note_on_c, 0, 61, 82
2, 258714, Note_on_c, 0, 44, 0
2, 258730, Note_on_c, 0, 60, 0
2, 258736, Control_c, 0, 64, 14
2, 258748, Note_on_c, 0, 63, 0
2, 258755, Control_c, 0, 64, 51
2, 258776, Control_c, 0, 64, 75
2, 258794, Control_c, 0, 64, 96
2, 258813, Control_c, 0, 64, 125
2, 258815, Note_on_c, 0, 61, 0
2, 258839, Note_on_c, 0, 65, 0
2, 259153, Note_on_c, 0, 77, 90
2, 259154, Note_on_c, 0, 61, 73
2, 259161, Note_on_c, 0, 67, 80
2, 259191, Control_c, 0, 64, 103
2, 259211, Control_c, 0, 64, 74
2, 259224, Note_on_c, 0, 49, 0
2, 259229, Control_c, 0, 64, 35
2, 259246, Control_c, 0, 64, 0
2, 259321, Control_c, 0, 64, 36
2, 259341, Control_c, 0, 64, 63
2, 259349, Note_on_c, 0, 68, 78
2, 259360, Control_c, 0, 64, 82
2, 259377, Note_on_c, 0, 67, 0
2, 259381, Control_c, 0, 64, 102
2, 259399, Control_c, 0, 64, 116
2, 259417, Control_c, 0, 64, 123
2, 259428, Note_on_c, 0, 77, 0
2, 259436, Control_c, 0, 64, 127
2, 259604, Note_on_c, 0, 76, 86
2, 259614, Note_on_c, 0, 67, 82
2, 259639, Control_c, 0, 64, 106
2, 259653, Note_on_c, 0, 68, 0
2, 259659, Control_c, 0, 64, 77
2, 259679, Control_c, 0, 64, 43
2, 259698, Control_c, 0, 64, 0
2, 259809, Control_c, 0, 64, 21
2, 259829, Control_c, 0, 64, 42
2, 259847, Control_c, 0, 64, 62
2, 259867, Control_c, 0, 64, 75
2, 259885, Control_c, 0, 64, 87
2, 259905, Control_c, 0, 64, 98
2, 259923, Control_c, 0, 64, 106
2, 259944, Control_c, 0, 64, 110
2, 259980, Control_c, 0, 64, 105
2, 259998, Control_c, 0, 64, 92
2, 260019, Control_c, 0, 64, 77
2, 260034, Note_on_c, 0, 75, 82
2, 260038, Control_c, 0, 64, 64
2, 260039, Note_on_c, 0, 67, 0
2, 260042, Note_on_c, 0, 69, 72
2, 260044, Note_on_c, 0, 60, 78
2, 260074, Control_c, 0, 64, 75
2, 260075, Note_on_c, 0, 76, 0
2, 260091, Note_on_c, 0, 61, 0
2, 260093, Control_c, 0, 64, 92
2, 260114, Control_c, 0, 64, 111
2, 260132, Control_c, 0, 64, 116
2, 260132, Note_on_c, 0, 69, 0
2, 260229, Note_on_c, 0, 60, 0
2, 260230, Note_on_c, 0, 58, 80
2, 260244, Note_on_c, 0, 70, 83
2, 260341, Note_on_c, 0, 58, 0
2, 260397, Control_c, 0, 64, 107
2, 260417, Control_c, 0, 64, 91
2, 260435, Control_c, 0, 64, 63
2, 260452, Control_c, 0, 64, 0
2, 260475, Note_on_c, 0, 57, 89
2, 260480, Note_on_c, 0, 72, 80
2, 260512, Note_on_c, 0, 70, 0
2, 260618, Control_c, 0, 64, 15
2, 260637, Control_c, 0, 64, 54
2, 260656, Control_c, 0, 64, 72
2, 260660, Note_on_c, 0, 72, 0
2, 260675, Control_c, 0, 64, 88
2, 260696, Control_c, 0, 64, 106
2, 260706, Note_on_c, 0, 57, 0
2, 260713, Control_c, 0, 64, 119
2, 260732, Control_c, 0, 64, 127
2, 260918, Control_c, 0, 64, 100
2, 260933, Control_c, 0, 64, 52
2, 260935, Note_on_c, 0, 53, 85
2, 260939, Note_on_c, 0, 73, 79
2, 260945, Note_on_c, 0, 69, 76
2, 260953, Control_c, 0, 64, 0
2, 261009, Control_c, 0, 64, 40
2, 261024, Note_on_c, 0, 53, 0
2, 261026, Control_c, 0, 64, 82
2, 261048, Control_c, 0, 64, 125
2, 261099, Note_on_c, 0, 75, 0
2, 261151, Note_on_c, 0, 72, 83
2, 261154, Note_on_c, 0, 73, 0
2, 261222, Note_on_c, 0, 72, 0
2, 261557, Note_on_c, 0, 65, 97
2, 261559, Note_on_c, 0, 73, 62
2, 261571, Control_c, 0, 64, 111
2, 261574, Note_on_c, 0, 58, 80
2, 261577, Note_on_c, 0, 70, 56
2, 261591, Control_c, 0, 64, 77
2, 261609, Control_c, 0, 64, 31
2, 261629, Control_c, 0, 64, 0
2, 261664, Note_on_c, 0, 69, 0
2, 261798, Control_c, 0, 64, 25
2, 261816, Control_c, 0, 64, 57
2, 261836, Control_c, 0, 64, 86
2, 261840, Note_on_c, 0, 70, 0
2, 261855, Control_c, 0, 64, 116
2, 261862, Note_on_c, 0, 73, 0
2, 261875, Control_c, 0, 64, 127
2, 262161, Note_on_c, 0, 82, 90
2, 262176, Note_on_c, 0, 73, 79
2, 262233, Note_on_c, 0, 65, 0
2, 262385, Note_on_c, 0, 73, 0
2, 262413, Note_on_c, 0, 82, 0
2, 262672, Note_on_c, 0, 63, 88
2, 262672, Note_on_c, 0, 81, 78
2, 262677, Note_on_c, 0, 72, 73
2, 262702, Control_c, 0, 64, 100
2, 262721, Control_c, 0, 64, 64
2, 262739, Control_c, 0, 64, 0
2, 262834, Control_c, 0, 64, 30
2, 262853, Control_c, 0, 64, 58
2, 262872, Control_c, 0, 64, 79
2, 262892, Control_c, 0, 64, 100
2, 262912, Control_c, 0, 64, 118
2, 262915, Note_on_c, 0, 72, 0
2, 262927, Control_c, 0, 64, 127
2, 263016, Note_on_c, 0, 63, 0
2, 263045, Note_on_c, 0, 58, 0
2, 263139, Note_on_c, 0, 80, 85
2, 263143, Note_on_c, 0, 71, 80
2, 263185, Note_on_c, 0, 81, 0
2, 263230, Note_on_c, 0, 71, 0
2, 263310, Note_on_c, 0, 78, 50
2, 263344, Note_on_c, 0, 78, 0
2, 263569, Note_on_c, 0, 78, 83
2, 263584, Note_on_c, 0, 70, 77
2, 263589, Control_c, 0, 64, 94
2, 263609, Control_c, 0, 64, 56
2, 263629, Control_c, 0, 64, 0
2, 263662, Note_on_c, 0, 80, 0
2, 263774, Note_on_c, 0, 75, 81
2, 263803, Note_on_c, 0, 78, 0
2, 263976, Note_on_c, 0, 58, 74
2, 263978, Note_on_c, 0, 61, 81
2, 263987, Note_on_c, 0, 77, 77
2, 264024, Control_c, 0, 64, 20
2, 264029, Note_on_c, 0, 75, 0
2, 264042, Control_c, 0, 64, 45
2, 264048, Note_on_c, 0, 60, 35
2, 264063, Control_c, 0, 64, 62
2, 264081, Control_c, 0, 64, 78
2, 264094, Note_on_c, 0, 60, 0
2, 264099, Control_c, 0, 64, 101
2, 264106, Note_on_c, 0, 61, 0
2, 264117, Control_c, 0, 64, 124
2, 264121, Note_on_c, 0, 58, 0
2, 264417, Control_c, 0, 64, 119
2, 264418, Note_on_c, 0, 60, 83
2, 264434, Note_on_c, 0, 51, 78
2, 264434, Note_on_c, 0, 78, 85
2, 264436, Control_c, 0, 64, 92
2, 264456, Control_c, 0, 64, 58
2, 264474, Control_c, 0, 64, 0
2, 264511, Note_on_c, 0, 77, 0
2, 264549, Control_c, 0, 64, 47
2, 264553, Note_on_c, 0, 78, 0
2, 264567, Control_c, 0, 64, 79
2, 264567, Note_on_c, 0, 70, 0
2, 264590, Control_c, 0, 64, 108
2, 264605, Control_c, 0, 64, 127
2, 264606, Note_on_c, 0, 49, 78
2, 264611, Note_on_c, 0, 51, 0
2, 264727, Note_on_c, 0, 60, 0
2, 264832, Control_c, 0, 64, 113
2, 264836, Note_on_c, 0, 66, 84
2, 264837, Note_on_c, 0, 51, 81
2, 264838, Note_on_c, 0, 72, 82
2, 264841, Note_on_c, 0, 70, 78
2, 264854, Control_c, 0, 64, 80
2, 264872, Control_c, 0, 64, 34
2, 264890, Control_c, 0, 64, 0
2, 264893, Note_on_c, 0, 49, 0
2, 264947, Control_c, 0, 64, 24
2, 264965, Control_c, 0, 64, 62
2, 264985, Control_c, 0, 64, 90
2, 265003, Note_on_c, 0, 51, 0
2, 265004, Control_c, 0, 64, 122
2, 265006, Note_on_c, 0, 70, 0
2, 265010, Note_on_c, 0, 66, 0
2, 265023, Control_c, 0, 64, 127
2, 265033, Note_on_c, 0, 72, 0
2, 265299, Note_on_c, 0, 65, 83
2, 265299, Note_on_c, 0, 73, 81
2, 265300, Note_on_c, 0, 53, 80
2, 265320, Control_c, 0, 64, 112
2, 265324, Note_on_c, 0, 69, 76
2, 265342, Control_c, 0, 64, 83
2, 265358, Control_c, 0, 64, 45
2, 265376, Control_c, 0, 64, 0
2, 265491, Control_c, 0, 64, 26
2, 265511, Control_c, 0, 64, 55
2, 265529, Control_c, 0, 64, 75
2, 265550, Control_c, 0, 64, 96
2, 265553, Note_on_c, 0, 69, 0
2, 265566, Control_c, 0, 64, 120
2, 265580, Note_on_c, 0, 53, 0
2, 265583, Note_on_c, 0, 73, 0
2, 265586, Control_c, 0, 64, 127
2, 265774, Control_c, 0, 64, 123
2, 265776, Note_on_c, 0, 41, 89
2, 265778, Note_on_c, 0, 68, 72
2, 265779, Note_on_c, 0, 74, 80
2, 265794, Control_c, 0, 64, 92
2, 265810, Control_c, 0, 64, 49
2, 265831, Control_c, 0, 64, 0
2, 265925, Control_c, 0, 64, 30
2, 265944, Control_c, 0, 64, 60
2, 265953, Note_on_c, 0, 74, 0
2, 265963, Control_c, 0, 64, 82
2, 265965, Note_on_c, 0, 68, 0
2, 265983, Control_c, 0, 64, 106
2, 266001, Control_c, 0, 64, 126
2, 266037, Note_on_c, 0, 41, 0
2, 266204, Note_on_c, 0, 75, 82
2, 266206, Note_on_c, 0, 67, 78
2, 266210, Note_on_c, 0, 43, 88
2, 266222, Control_c, 0, 64, 103
2, 266243, Control_c, 0, 64, 61
2, 266261, Control_c, 0, 64, 0
2, 266353, Note_on_c, 0, 65, 0
2, 266371, Control_c, 0, 64, 52
2, 266379, Note_on_c, 0, 75, 0
2, 266387, Control_c, 0, 64, 78
2, 266409, Control_c, 0, 64, 100
2, 266413, Note_on_c, 0, 67, 0
2, 266428, Control_c, 0, 64, 125
2, 266470, Note_on_c, 0, 43, 0
2, 266656, Note_on_c, 0, 72, 69
2, 266658, Note_on_c, 0, 63, 84
2, 266663, Note_on_c, 0, 45, 85
2, 266667, Note_on_c, 0, 66, 75
2, 266671, Control_c, 0, 64, 104
2, 266699, Control_c, 0, 64, 65
2, 266719, Control_c, 0, 64, 0
2, 266814, Control_c, 0, 64, 22
2, 266830, Control_c, 0, 64, 57
2, 266839, Note_on_c, 0, 66, 0
2, 266848, Control_c, 0, 64, 80
2, 266858, Note_on_c, 0, 63, 0
2, 266866, Control_c, 0, 64, 102
2, 266879, Note_on_c, 0, 72, 0
2, 266886, Control_c, 0, 64, 123
2, 266901, Note_on_c, 0, 45, 0
2, 266904, Control_c, 0, 64, 127
2, 267133, Control_c, 0, 64, 121
2, 267150, Control_c, 0, 64, 82
2, 267156, Note_on_c, 0, 73, 78
2, 267157, Note_on_c, 0, 61, 80
2, 267158, Note_on_c, 0, 46, 84
2, 267165, Note_on_c, 0, 65, 76
2, 267170, Control_c, 0, 64, 24
2, 267189, Control_c, 0, 64, 0
2, 267228, Control_c, 0, 64, 46
2, 267262, Control_c, 0, 64, 87
2, 267266, Note_on_c, 0, 46, 0
2, 267267, Note_on_c, 0, 61, 0
2, 267280, Control_c, 0, 64, 127
2, 267309, Note_on_c, 0, 65, 0
2, 267364, Note_on_c, 0, 73, 0
2, 267407, Note_on_c, 0, 65, 86
2, 267582, Control_c, 0, 64, 123
2, 267600, Control_c, 0, 64, 99
2, 267603, Note_on_c, 0, 63, 87
2, 267620, Control_c, 0, 64, 72
2, 267640, Control_c, 0, 64, 45
2, 267658, Control_c, 0, 64, 27
2, 267678, Control_c, 0, 64, 23
2, 267697, Control_c, 0, 64, 13
2, 267716, Control_c, 0, 64, 0
2, 267797, Note_on_c, 0, 61, 79
2, 267809, Control_c, 0, 64, 25
2, 267826, Control_c, 0, 64, 45
2, 267847, Control_c, 0, 64, 61
2, 267864, Control_c, 0, 64, 74
2, 267880, Note_on_c, 0, 63, 0
2, 267884, Control_c, 0, 64, 89
2, 267904, Control_c, 0, 64, 106
2, 267923, Control_c, 0, 64, 120
2, 267923, Note_on_c, 0, 61, 0
2, 267942, Control_c, 0, 64, 127
2, 268024, Note_on_c, 0, 69, 81
2, 268026, Note_on_c, 0, 51, 77
2, 268036, Control_c, 0, 64, 109
2, 268044, Note_on_c, 0, 60, 79
2, 268054, Control_c, 0, 64, 84
2, 268075, Control_c, 0, 64, 55
2, 268092, Control_c, 0, 64, 19
2, 268110, Control_c, 0, 64, 0
2, 268234, Note_on_c, 0, 63, 84
2, 268239, Note_on_c, 0, 60, 0
2, 268289, Note_on_c, 0, 51, 0
2, 268315, Control_c, 0, 64, 26
2, 268334, Control_c, 0, 64, 45
2, 268352, Control_c, 0, 64, 62
2, 268373, Control_c, 0, 64, 73
2, 268390, Control_c, 0, 64, 85
2, 268411, Control_c, 0, 64, 97
2, 268426, Note_on_c, 0, 69, 0
2, 268429, Control_c, 0, 64, 107
2, 268435, Note_on_c, 0, 61, 81
2, 268448, Control_c, 0, 64, 115
2, 268452, Note_on_c, 0, 63, 0
2, 268466, Control_c, 0, 64, 121
2, 268486, Control_c, 0, 64, 127
2, 268617, Control_c, 0, 64, 121
2, 268623, Note_on_c, 0, 61, 0
2, 268630, Note_on_c, 0, 60, 82
2, 268749, Control_c, 0, 64, 116
2, 268768, Control_c, 0, 64, 104
2, 268786, Control_c, 0, 64, 83
2, 268807, Control_c, 0, 64, 53
2, 268824, Control_c, 0, 64, 0
2, 268845, Note_on_c, 0, 60, 0
2, 268846, Note_on_c, 0, 49, 71
2, 268847, Note_on_c, 0, 58, 78
2, 268854, Note_on_c, 0, 70, 80
2, 268959, Control_c, 0, 64, 23
2, 268976, Control_c, 0, 64, 49
2, 268998, Control_c, 0, 64, 69
2, 269014, Control_c, 0, 64, 82
2, 269034, Control_c, 0, 64, 96
2, 269044, Note_on_c, 0, 58, 0
2, 269045, Note_on_c, 0, 61, 81
2, 269052, Control_c, 0, 64, 105
2, 269061, Note_on_c, 0, 70, 0
2, 269069, Control_c, 0, 64, 112
2, 269090, Control_c, 0, 64, 120
2, 269109, Control_c, 0, 64, 127
2, 269136, Note_on_c, 0, 49, 0
2, 269187, Note_on_c, 0, 61, 0
2, 269269, Note_on_c, 0, 60, 81
2, 269274, Control_c, 0, 64, 111
2, 269294, Control_c, 0, 64, 91
2, 269312, Control_c, 0, 64, 72
2, 269332, Control_c, 0, 64, 57
2, 269350, Control_c, 0, 64, 55
2, 269370, Control_c, 0, 64, 59
2, 269389, Control_c, 0, 64, 66
2, 269407, Control_c, 0, 64, 71
2, 269425, Control_c, 0, 64, 74
2, 269457, Note_on_c, 0, 58, 75
2, 269463, Control_c, 0, 64, 77
2, 269485, Control_c, 0, 64, 81
2, 269500, Note_on_c, 0, 60, 0
2, 269502, Control_c, 0, 64, 88
2, 269523, Control_c, 0, 64, 99
2, 269542, Control_c, 0, 64, 110
2, 269555, Note_on_c, 0, 58, 0
2, 269560, Control_c, 0, 64, 115
2, 269669, Control_c, 0, 64, 102
2, 269688, Control_c, 0, 64, 83
2, 269691, Note_on_c, 0, 75, 78
2, 269695, Note_on_c, 0, 48, 71
2, 269695, Note_on_c, 0, 57, 77
2, 269707, Control_c, 0, 64, 58
2, 269725, Control_c, 0, 64, 25
2, 269744, Control_c, 0, 64, 0
2, 269872, Note_on_c, 0, 48, 0
2, 269901, Note_on_c, 0, 57, 0
2, 269901, Note_on_c, 0, 60, 77
2, 269919, Note_on_c, 0, 75, 0
2, 269990, Control_c, 0, 64, 11
2, 270028, Control_c, 0, 64, 15
2, 270135, Note_on_c, 0, 58, 75
2, 270136, Note_on_c, 0, 73, 76
2, 270138, Note_on_c, 0, 49, 74
2, 270180, Note_on_c, 0, 60, 0
2, 270323, Note_on_c, 0, 51, 73
2, 270406, Note_on_c, 0, 49, 0
2, 270479, Control_c, 0, 64, 0
2, 270556, Note_on_c, 0, 53, 80
2, 270599, Note_on_c, 0, 51, 0
2, 270599, Note_on_c, 0, 58, 0
2, 270768, Note_on_c, 0, 72, 77
2, 270878, Note_on_c, 0, 73, 0
2, 270971, Note_on_c, 0, 72, 0
2, 270975, Note_on_c, 0, 73, 79
2, 270988, Note_on_c, 0, 57, 76
2, 271044, Control_c, 0, 64, 36
2, 271064, Control_c, 0, 64, 58
2, 271097, Control_c, 0, 64, 71
2, 271116, Control_c, 0, 64, 81
2, 271132, Note_on_c, 0, 57, 0
2, 271134, Control_c, 0, 64, 91
2, 271155, Control_c, 0, 64, 101
2, 271174, Control_c, 0, 64, 110
2, 271192, Control_c, 0, 64, 118
2, 271210, Control_c, 0, 64, 123
2, 271214, Note_on_c, 0, 75, 80
2, 271231, Control_c, 0, 64, 127
2, 271234, Note_on_c, 0, 73, 0
2, 271248, Note_on_c, 0, 65, 0
2, 271265, Note_on_c, 0, 75, 0
2, 271482, Note_on_c, 0, 41, 78
2, 271488, Note_on_c, 0, 63, 77
2, 271489, Note_on_c, 0, 69, 79
2, 271513, Control_c, 0, 64, 111
2, 271532, Control_c, 0, 64, 90
2, 271552, Control_c, 0, 64, 65
2, 271569, Control_c, 0, 64, 31
2, 271589, Control_c, 0, 64, 0
2, 271678, Note_on_c, 0, 53, 0
2, 271923, Note_on_c, 0, 61, 82
2, 271959, Note_on_c, 0, 69, 0
2, 271965, Note_on_c, 0, 41, 0
2, 272000, Note_on_c, 0, 63, 0
2, 272121, Note_on_c, 0, 60, 80
2, 272121, Note_on_c, 0, 61, 0
2, 272391, Note_on_c, 0, 61, 77
2, 272391, Note_on_c, 0, 70, 84
2, 272392, Note_on_c, 0, 46, 72
2, 272437, Note_on_c, 0, 60, 0
2, 272548, Control_c, 0, 64, 12
2, 272567, Control_c, 0, 64, 34
2, 272587, Control_c, 0, 64, 54
2, 272602, Control_c, 0, 64, 67
2, 272623, Control_c, 0, 64, 75
2, 272641, Control_c, 0, 64, 81
2, 272661, Control_c, 0, 64, 87
2, 272679, Control_c, 0, 64, 94
2, 272699, Control_c, 0, 64, 101
2, 272719, Control_c, 0, 64, 108
2, 272736, Control_c, 0, 64, 112
2, 272736, Note_on_c, 0, 61, 0
2, 272774, Control_c, 0, 64, 119
2, 272791, Note_on_c, 0, 46, 0
2, 272793, Control_c, 0, 64, 124
2, 272882, Note_on_c, 0, 66, 75
2, 272981, Note_on_c, 0, 70, 0
2, 272991, Note_on_c, 0, 66, 0
2, 273336, Note_on_c, 0, 68, 81
2, 273344, Note_on_c, 0, 65, 76
2, 273356, Control_c, 0, 64, 114
2, 273374, Control_c, 0, 64, 95
2, 273396, Control_c, 0, 64, 70
2, 273413, Control_c, 0, 64, 40
2, 273432, Control_c, 0, 64, 12
2, 273760, Note_on_c, 0, 46, 64
2, 273767, Note_on_c, 0, 64, 66
2, 273828, Note_on_c, 0, 65, 0
2, 274213, Note_on_c, 0, 47, 68
2, 274216, Note_on_c, 0, 63, 75
2, 274252, Note_on_c, 0, 64, 0
2, 274296, Note_on_c, 0, 46, 0
2, 274393, Control_c, 0, 64, 27
2, 274411, Control_c, 0, 64, 45
2, 274431, Control_c, 0, 64, 60
2, 274437, Note_on_c, 0, 68, 0
2, 274449, Control_c, 0, 64, 67
2, 274467, Control_c, 0, 64, 71
2, 274486, Control_c, 0, 64, 76
2, 274503, Control_c, 0, 64, 84
2, 274519, Control_c, 0, 64, 95
2, 274537, Control_c, 0, 64, 104
2, 274558, Control_c, 0, 64, 108
2, 274615, Control_c, 0, 64, 100
2, 274630, Note_on_c, 0, 66, 80
2, 274633, Control_c, 0, 64, 87
2, 274644, Note_on_c, 0, 48, 67
2, 274652, Control_c, 0, 64, 69
2, 274674, Control_c, 0, 64, 44
2, 274679, Note_on_c, 0, 47, 0
2, 274690, Control_c, 0, 64, 12
2, 274709, Control_c, 0, 64, 0
2, 274765, Control_c, 0, 64, 21
2, 274785, Control_c, 0, 64, 42
2, 274803, Control_c, 0, 64, 60
2, 274821, Control_c, 0, 64, 71
2, 274841, Control_c, 0, 64, 79
2, 274841, Note_on_c, 0, 66, 0
2, 274863, Control_c, 0, 64, 85
2, 274880, Control_c, 0, 64, 91
2, 274899, Control_c, 0, 64, 96
2, 274931, Control_c, 0, 64, 101
2, 274952, Control_c, 0, 64, 106
2, 274969, Control_c, 0, 64, 111
2, 274990, Control_c, 0, 64, 115
2, 275060, Note_on_c, 0, 50, 59
2, 275063, Control_c, 0, 64, 104
2, 275081, Note_on_c, 0, 48, 0
2, 275082, Note_on_c, 0, 65, 79
2, 275083, Control_c, 0, 64, 88
2, 275104, Control_c, 0, 64, 67
2, 275122, Control_c, 0, 64, 40
2, 275131, Note_on_c, 0, 63, 0
2, 275140, Control_c, 0, 64, 17
2, 275267, Note_on_c, 0, 50, 0
2, 275269, Note_on_c, 0, 53, 57
2, 275479, Note_on_c, 0, 53, 0
2, 275488, Note_on_c, 0, 71, 69
2, 275497, Note_on_c, 0, 56, 59
2, 275501, Note_on_c, 0, 63, 62
2, 275538, Note_on_c, 0, 65, 0
2, 275938, Note_on_c, 0, 70, 69
2, 275957, Note_on_c, 0, 62, 66
2, 275962, Note_on_c, 0, 63, 0
2, 275970, Note_on_c, 0, 71, 0
2, 276398, Note_on_c, 0, 61, 62
2, 276402, Note_on_c, 0, 55, 61
2, 276428, Note_on_c, 0, 62, 0
2, 276453, Note_on_c, 0, 56, 0
2, 276846, Note_on_c, 0, 56, 64
2, 276855, Note_on_c, 0, 60, 60
2, 276868, Note_on_c, 0, 55, 0
2, 276886, Note_on_c, 0, 61, 0
2, 276926, Control_c, 0, 64, 25
2, 276946, Control_c, 0, 64, 33
2, 276964, Control_c, 0, 64, 42
2, 276982, Control_c, 0, 64, 51
2, 277003, Control_c, 0, 64, 56
2, 277060, Control_c, 0, 64, 59
2, 277079, Control_c, 0, 64, 60
2, 277091, Note_on_c, 0, 60, 0
2, 277096, Control_c, 0, 64, 61
2, 277116, Control_c, 0, 64, 63
2, 277155, Control_c, 0, 64, 62
2, 277172, Control_c, 0, 64, 58
2, 277192, Control_c, 0, 64, 53
2, 277209, Control_c, 0, 64, 48
2, 277230, Control_c, 0, 64, 42
2, 277248, Control_c, 0, 64, 34
2, 277266, Control_c, 0, 64, 23
2, 277266, Note_on_c, 0, 50, 57
2, 277266, Note_on_c, 0, 68, 66
2, 277271, Note_on_c, 0, 59, 66
2, 277287, Control_c, 0, 64, 15
2, 277319, Note_on_c, 0, 70, 0
2, 277379, Note_on_c, 0, 56, 0
2, 277413, Note_on_c, 0, 59, 0
2, 277528, Note_on_c, 0, 68, 0
2, 277713, Note_on_c, 0, 66, 62
2, 277714, Note_on_c, 0, 51, 53
2, 277717, Note_on_c, 0, 58, 54
2, 277790, Note_on_c, 0, 50, 0
2, 277933, Note_on_c, 0, 70, 63
2, 277995, Note_on_c, 0, 66, 0
2, 278101, Note_on_c, 0, 51, 0
2, 278152, Note_on_c, 0, 68, 60
2, 278224, Note_on_c, 0, 70, 0
2, 278356, Note_on_c, 0, 66, 57
2, 278419, Note_on_c, 0, 68, 0
2, 278581, Note_on_c, 0, 53, 51
2, 278584, Note_on_c, 0, 65, 57
2, 278596, Note_on_c, 0, 66, 0
2, 278795, Note_on_c, 0, 68, 64
2, 278840, Note_on_c, 0, 65, 0
2, 278966, Note_on_c, 0, 53, 0
2, 279021, Note_on_c, 0, 66, 63
2, 279093, Note_on_c, 0, 68, 0
2, 279227, Note_on_c, 0, 65, 61
2, 279300, Note_on_c, 0, 66, 0
2, 279439, Note_on_c, 0, 54, 54
2, 279452, Note_on_c, 0, 63, 60
2, 279472, Note_on_c, 0, 65, 0
2, 279655, Note_on_c, 0, 66, 60
2, 279747, Note_on_c, 0, 63, 0
2, 279760, Note_on_c, 0, 54, 0
2, 279889, Note_on_c, 0, 65, 65
2, 280084, Note_on_c, 0, 63, 63
2, 280106, Note_on_c, 0, 66, 0
2, 280126, Note_on_c, 0, 65, 0
2, 280293, Note_on_c, 0, 62, 58
2, 280311, Note_on_c, 0, 56, 55
2, 280324, Note_on_c, 0, 63, 0
2, 280406, Note_on_c, 0, 58, 0
2, 280444, Note_on_c, 0, 56, 0
2, 280508, Note_on_c, 0, 65, 56
2, 280522, Note_on_c, 0, 62, 0
2, 280730, Control_c, 0, 64, 8
2, 280748, Control_c, 0, 64, 0
2, 280748, Note_on_c, 0, 63, 58
2, 280761, Note_on_c, 0, 54, 46
2, 280765, Note_on_c, 0, 58, 46
2, 280804, Note_on_c, 0, 65, 0
2, 280900, Control_c, 0, 64, 27
2, 280920, Control_c, 0, 64, 47
2, 280937, Control_c, 0, 64, 65
2, 280956, Control_c, 0, 64, 76
2, 280976, Control_c, 0, 64, 86
2, 280995, Control_c, 0, 64, 96
2, 281000, Note_on_c, 0, 63, 0
2, 281012, Control_c, 0, 64, 103
2, 281031, Control_c, 0, 64, 109
2, 281050, Control_c, 0, 64, 113
2, 281070, Control_c, 0, 64, 118
2, 281088, Control_c, 0, 64, 123
2, 281178, Note_on_c, 0, 58, 0
2, 281179, Note_on_c, 0, 56, 67
2, 281194, Note_on_c, 0, 53, 55
2, 281212, Note_on_c, 0, 54, 0
2, 281334, Control_c, 0, 64, 116
2, 281359, Note_on_c, 0, 53, 0
2, 281361, Note_on_c, 0, 58, 60
2, 281367, Note_on_c, 0, 54, 62
2, 281371, Control_c, 0, 64, 111
2, 281420, Note_on_c, 0, 56, 0
2, 281525, Note_on_c, 0, 58, 0
2, 281580, Control_c, 0, 64, 101
2, 281599, Control_c, 0, 64, 89
2, 281613, Note_on_c, 0, 56, 61
2, 281614, Note_on_c, 0, 62, 72
2, 281617, Control_c, 0, 64, 70
2, 281629, Note_on_c, 0, 54, 0
2, 281650, Control_c, 0, 64, 47
2, 281651, Note_on_c, 0, 59, 62
2, 281671, Control_c, 0, 64, 22
2, 281688, Control_c, 0, 64, 11
2, 281708, Control_c, 0, 64, 0
2, 281776, Note_on_c, 0, 56, 0
2, 281821, Control_c, 0, 64, 19
2, 281841, Control_c, 0, 64, 43
2, 281860, Control_c, 0, 64, 64
2, 281880, Control_c, 0, 64, 77
2, 281897, Control_c, 0, 64, 88
2, 281915, Control_c, 0, 64, 94
2, 281955, Control_c, 0, 64, 98
2, 281991, Control_c, 0, 64, 105
2, 282043, Note_on_c, 0, 59, 0
2, 282082, Note_on_c, 0, 68, 69
2, 282085, Control_c, 0, 64, 98
2, 282102, Note_on_c, 0, 50, 52
2, 282106, Control_c, 0, 64, 86
2, 282114, Note_on_c, 0, 53, 46
2, 282124, Control_c, 0, 64, 67
2, 282141, Control_c, 0, 64, 40
2, 282160, Note_on_c, 0, 62, 0
2, 282161, Control_c, 0, 64, 0
2, 282216, Control_c, 0, 64, 10
2, 282227, Note_on_c, 0, 50, 0
2, 282236, Control_c, 0, 64, 35
2, 282255, Control_c, 0, 64, 53
2, 282274, Control_c, 0, 64, 64
2, 282293, Control_c, 0, 64, 69
2, 282313, Control_c, 0, 64, 72
2, 282332, Control_c, 0, 64, 75
2, 282351, Control_c, 0, 64, 79
2, 282368, Control_c, 0, 64, 84
2, 282388, Control_c, 0, 64, 89
2, 282408, Control_c, 0, 64, 94
2, 282444, Control_c, 0, 64, 100
2, 282520, Control_c, 0, 64, 95
2, 282528, Note_on_c, 0, 66, 62
2, 282534, Note_on_c, 0, 62, 57
2, 282539, Control_c, 0, 64, 86
2, 282550, Note_on_c, 0, 46, 53
2, 282559, Control_c, 0, 64, 71
2, 282571, Note_on_c, 0, 68, 0
2, 282576, Control_c, 0, 64, 53
2, 282610, Control_c, 0, 64, 34
2, 282630, Control_c, 0, 64, 24
2, 282645, Note_on_c, 0, 62, 0
2, 282681, Note_on_c, 0, 53, 0
2, 282707, Control_c, 0, 64, 19
2, 282746, Note_on_c, 0, 65, 61
2, 282808, Note_on_c, 0, 66, 0
2, 282969, Note_on_c, 0, 66, 61
2, 282974, Note_on_c, 0, 51, 55
2, 282977, Note_on_c, 0, 65, 0
2, 282979, Note_on_c, 0, 63, 58
2, 283009, Note_on_c, 0, 46, 0
2, 283159, Note_on_c, 0, 68, 65
2, 283185, Note_on_c, 0, 66, 0
2, 283394, Note_on_c, 0, 63, 0
2, 283412, Note_on_c, 0, 65, 60
2, 283414, Note_on_c, 0, 70, 61
2, 283415, Note_on_c, 0, 49, 53
2, 283427, Note_on_c, 0, 51, 0
2, 283444, Note_on_c, 0, 68, 0
2, 283853, Note_on_c, 0, 65, 0
2, 283864, Note_on_c, 0, 66, 60
2, 283869, Note_on_c, 0, 48, 59
2, 283876, Note_on_c, 0, 49, 0
2, 284049, Note_on_c, 0, 48, 0
2, 284057, Note_on_c, 0, 49, 56
2, 284273, Note_on_c, 0, 66, 0
2, 284289, Note_on_c, 0, 69, 66
2, 284294, Note_on_c, 0, 51, 57
2, 284300, Note_on_c, 0, 60, 60
2, 284324, Note_on_c, 0, 70, 0
2, 284389, Note_on_c, 0, 49, 0
2, 284439, Note_on_c, 0, 60, 0
2, 284476, Note_on_c, 0, 61, 69
2, 284477, Note_on_c, 0, 70, 73
2, 284482, Note_on_c, 0, 69, 0
2, 284578, Note_on_c, 0, 61, 0
2, 284695, Note_on_c, 0, 51, 0
2, 284701, Control_c, 0, 64, 0
2, 284715, Note_on_c, 0, 70, 0
2, 284717, Note_on_c, 0, 45, 53
2, 284717, Note_on_c, 0, 72, 73
2, 284727, Note_on_c, 0, 63, 58
2, 284833, Control_c, 0, 64, 13
2, 284851, Control_c, 0, 64, 41
2, 284862, Note_on_c, 0, 72, 0
2, 284869, Control_c, 0, 64, 63
2, 284888, Control_c, 0, 64, 74
2, 284909, Control_c, 0, 64, 83
2, 284910, Note_on_c, 0, 63, 0
2, 284914, Note_on_c, 0, 48, 58
2, 284916, Note_on_c, 0, 45, 0
2, 284929, Control_c, 0, 64, 87
2, 284965, Control_c, 0, 64, 94
2, 285059, Control_c, 0, 64, 98
2, 285119, Note_on_c, 0, 48, 0
2, 285135, Note_on_c, 0, 63, 74
2, 285145, Note_on_c, 0, 53, 55
2, 285152, Control_c, 0, 64, 94
2, 285154, Note_on_c, 0, 57, 58
2, 285170, Control_c, 0, 64, 87
2, 285190, Control_c, 0, 64, 75
2, 285209, Control_c, 0, 64, 58
2, 285229, Control_c, 0, 64, 36
2, 285247, Control_c, 0, 64, 23
2, 285321, Control_c, 0, 64, 19
2, 285328, Note_on_c, 0, 51, 55
2, 285349, Note_on_c, 0, 53, 0
2, 285417, Control_c, 0, 64, 15
2, 285553, Note_on_c, 0, 49, 60
2, 285555, Note_on_c, 0, 57, 0
2, 285564, Note_on_c, 0, 58, 64
2, 285602, Note_on_c, 0, 51, 0
2, 285760, Note_on_c, 0, 58, 0
2, 285763, Note_on_c, 0, 60, 68
2, 285770, Note_on_c, 0, 53, 54
2, 285811, Note_on_c, 0, 49, 0
2, 285983, Note_on_c, 0, 53, 0
2, 285985, Note_on_c, 0, 63, 0
2, 285991, Note_on_c, 0, 61, 76
2, 285993, Note_on_c, 0, 58, 49
2, 286095, Note_on_c, 0, 60, 0
2, 286203, Note_on_c, 0, 56, 53
2, 286214, Note_on_c, 0, 58, 0
2, 286402, Note_on_c, 0, 70, 65
2, 286423, Note_on_c, 0, 56, 0
2, 286448, Note_on_c, 0, 54, 53
2, 286632, Note_on_c, 0, 54, 0
2, 286653, Note_on_c, 0, 53, 49
2, 286835, Note_on_c, 0, 53, 0
2, 286841, Note_on_c, 0, 51, 53
2, 286850, Note_on_c, 0, 60, 56
2, 286858, Note_on_c, 0, 61, 0
2, 286866, Control_c, 0, 64, 19
2, 286887, Control_c, 0, 64, 31
2, 286907, Control_c, 0, 64, 41
2, 286923, Control_c, 0, 64, 48
2, 286961, Control_c, 0, 64, 50
2, 286999, Control_c, 0, 64, 54
2, 287016, Control_c, 0, 64, 56
2, 287017, Note_on_c, 0, 60, 0
2, 287043, Note_on_c, 0, 49, 62
2, 287045, Note_on_c, 0, 61, 62
2, 287055, Control_c, 0, 64, 58
2, 287057, Note_on_c, 0, 51, 0
2, 287092, Control_c, 0, 64, 62
2, 287112, Control_c, 0, 64, 65
2, 287130, Control_c, 0, 64, 66
2, 287168, Control_c, 0, 64, 62
2, 287189, Control_c, 0, 64, 58
2, 287206, Control_c, 0, 64, 56
2, 287206, Note_on_c, 0, 49, 0
2, 287243, Control_c, 0, 64, 52
2, 287243, Note_on_c, 0, 48, 53
2, 287250, Note_on_c, 0, 61, 0
2, 287262, Control_c, 0, 64, 48
2, 287273, Note_on_c, 0, 63, 69
2, 287282, Control_c, 0, 64, 46
2, 287320, Control_c, 0, 64, 48
2, 287454, Note_on_c, 0, 48, 0
2, 287466, Note_on_c, 0, 49, 55
2, 287486, Note_on_c, 0, 70, 0
2, 287524, Control_c, 0, 64, 52
2, 287599, Control_c, 0, 64, 48
2, 287617, Control_c, 0, 64, 43
2, 287638, Control_c, 0, 64, 35
2, 287652, Note_on_c, 0, 49, 0
2, 287654, Control_c, 0, 64, 22
2, 287674, Control_c, 0, 64, 0
2, 287681, Note_on_c, 0, 68, 68
2, 287692, Note_on_c, 0, 51, 35
2, 287692, Note_on_c, 0, 53, 53
2, 287791, Control_c, 0, 64, 29
2, 287808, Control_c, 0, 64, 49
2, 287809, Note_on_c, 0, 53, 0
2, 287826, Control_c, 0, 64, 65
2, 287846, Control_c, 0, 64, 71
2, 287865, Control_c, 0, 64, 73
2, 287865, Note_on_c, 0, 49, 61
2, 287901, Control_c, 0, 64, 76
2, 287902, Note_on_c, 0, 51, 0
2, 287913, Note_on_c, 0, 49, 0
2, 287940, Note_on_c, 0, 63, 0
2, 288072, Control_c, 0, 64, 72
2, 288092, Control_c, 0, 64, 67
2, 288112, Control_c, 0, 64, 60
2, 288126, Control_c, 0, 64, 49
2, 288131, Note_on_c, 0, 73, 63
2, 288139, Note_on_c, 0, 53, 63
2, 288146, Control_c, 0, 64, 35
2, 288162, Note_on_c, 0, 46, 47
2, 288166, Control_c, 0, 64, 21
2, 288186, Control_c, 0, 64, 14
2, 288194, Note_on_c, 0, 68, 0
2, 288241, Control_c, 0, 64, 26
2, 288260, Control_c, 0, 64, 46
2, 288278, Control_c, 0, 64, 61
2, 288287, Control_c, 0, 64, 69
2, 288287, Note_on_c, 0, 46, 0
2, 288309, Control_c, 0, 64, 71
2, 288320, Note_on_c, 0, 53, 0
2, 288324, Note_on_c, 0, 65, 55
2, 288361, Control_c, 0, 64, 73
2, 288381, Control_c, 0, 64, 77
2, 288400, Control_c, 0, 64, 83
2, 288419, Control_c, 0, 64, 91
2, 288438, Control_c, 0, 64, 96
2, 288476, Note_on_c, 0, 65, 0
2, 288514, Control_c, 0, 64, 91
2, 288531, Control_c, 0, 64, 81
2, 288550, Control_c, 0, 64, 65
2, 288568, Control_c, 0, 64, 40
2, 288574, Note_on_c, 0, 55, 51
2, 288578, Note_on_c, 0, 48, 52
2, 288580, Note_on_c, 0, 70, 63
2, 288589, Control_c, 0, 64, 11
2, 288609, Control_c, 0, 64, 0
2, 288644, Note_on_c, 0, 73, 0
2, 288665, Control_c, 0, 64, 25
2, 288667, Note_on_c, 0, 55, 0
2, 288683, Control_c, 0, 64, 44
2, 288700, Control_c, 0, 64, 61
2, 288721, Control_c, 0, 64, 71
2, 288739, Control_c, 0, 64, 76
2, 288760, Control_c, 0, 64, 79
2, 288777, Control_c, 0, 64, 81
2, 288798, Control_c, 0, 64, 84
2, 288817, Control_c, 0, 64, 87
2, 288834, Control_c, 0, 64, 91
2, 288872, Control_c, 0, 64, 96
2, 288966, Control_c, 0, 64, 92
2, 288986, Control_c, 0, 64, 84
2, 289004, Note_on_c, 0, 72, 69
2, 289006, Control_c, 0, 64, 73
2, 289016, Note_on_c, 0, 53, 58
2, 289025, Control_c, 0, 64, 59
2, 289026, Note_on_c, 0, 69, 64
2, 289043, Control_c, 0, 64, 42
2, 289049, Note_on_c, 0, 70, 0
2, 289060, Note_on_c, 0, 69, 0
2, 289061, Control_c, 0, 64, 26
2, 289079, Control_c, 0, 64, 17
2, 289136, Control_c, 0, 64, 24
2, 289155, Control_c, 0, 64, 38
2, 289173, Control_c, 0, 64, 54
2, 289193, Control_c, 0, 64, 64
2, 289213, Control_c, 0, 64, 70
2, 289225, Note_on_c, 0, 53, 0
2, 289227, Control_c, 0, 64, 73
2, 289248, Control_c, 0, 64, 75
2, 289268, Control_c, 0, 64, 78
2, 289286, Control_c, 0, 64, 81
2, 289321, Control_c, 0, 64, 86
2, 289340, Control_c, 0, 64, 91
2, 289435, Control_c, 0, 64, 88
2, 289453, Control_c, 0, 64, 79
2, 289472, Control_c, 0, 64, 65
2, 289473, Note_on_c, 0, 68, 63
2, 289486, Note_on_c, 0, 52, 53
2, 289487, Control_c, 0, 64, 42
2, 289509, Control_c, 0, 64, 16
2, 289586, Control_c, 0, 64, 0
2, 289902, Note_on_c, 0, 52, 0
2, 289911, Note_on_c, 0, 67, 65
2, 289921, Note_on_c, 0, 72, 0
2, 289949, Note_on_c, 0, 68, 0
2, 289964, Control_c, 0, 64, 15
2, 289985, Control_c, 0, 64, 29
2, 290003, Control_c, 0, 64, 40
2, 290020, Control_c, 0, 64, 47
2, 290039, Control_c, 0, 64, 49
2, 290057, Control_c, 0, 64, 51
2, 290078, Control_c, 0, 64, 54
2, 290190, Control_c, 0, 64, 50
2, 290210, Control_c, 0, 64, 47
2, 290229, Control_c, 0, 64, 44
2, 290299, Control_c, 0, 64, 47
2, 290320, Control_c, 0, 64, 51
2, 290336, Note_on_c, 0, 70, 64
2, 290338, Control_c, 0, 64, 54
2, 290357, Control_c, 0, 64, 58
2, 290358, Note_on_c, 0, 52, 55
2, 290375, Control_c, 0, 64, 60
2, 290395, Control_c, 0, 64, 63
2, 290399, Note_on_c, 0, 48, 0
2, 290412, Control_c, 0, 64, 65
2, 290433, Control_c, 0, 64, 67
2, 290438, Note_on_c, 0, 52, 0
2, 290470, Control_c, 0, 64, 69
2, 290545, Note_on_c, 0, 70, 0
2, 290583, Control_c, 0, 64, 67
2, 290603, Control_c, 0, 64, 66
2, 290620, Control_c, 0, 64, 63
2, 290640, Control_c, 0, 64, 61
2, 290658, Control_c, 0, 64, 58
2, 290677, Control_c, 0, 64, 55
2, 290695, Control_c, 0, 64, 50
2, 290715, Control_c, 0, 64, 42
2, 290733, Control_c, 0, 64, 29
2, 290754, Control_c, 0, 64, 14
2, 290771, Control_c, 0, 64, 0
2, 290807, Note_on_c, 0, 69, 60
2, 290811, Note_on_c, 0, 67, 0
2, 290817, Note_on_c, 0, 41, 43
2, 290844, Note_on_c, 0, 53, 34
2, 290886, Control_c, 0, 64, 12
2, 290905, Control_c, 0, 64, 40
2, 290924, Control_c, 0, 64, 63
2, 290930, Note_on_c, 0, 41, 0
2, 290942, Control_c, 0, 64, 77
2, 290964, Control_c, 0, 64, 88
2, 290980, Control_c, 0, 64, 96
2, 291017, Control_c, 0, 64, 100
2, 291240, Control_c, 0, 64, 94
2, 291260, Control_c, 0, 64, 83
2, 291267, Note_on_c, 0, 75, 61
2, 291279, Note_on_c, 0, 57, 49
2, 291280, Control_c, 0, 64, 69
2, 291281, Note_on_c, 0, 53, 0
2, 291296, Control_c, 0, 64, 51
2, 291303, Note_on_c, 0, 66, 38
2, 291318, Control_c, 0, 64, 34
2, 291334, Control_c, 0, 64, 26
2, 291445, Note_on_c, 0, 66, 0
2, 291445, Note_on_c, 0, 69, 0
2, 291714, Note_on_c, 0, 73, 66
2, 291738, Note_on_c, 0, 58, 37
2, 291746, Note_on_c, 0, 65, 39
2, 291749, Note_on_c, 0, 75, 0
2, 291750, Note_on_c, 0, 57, 0
2, 292112, Note_on_c, 0, 65, 0
2, 292166, Note_on_c, 0, 56, 44
2, 292174, Note_on_c, 0, 64, 52
2, 292212, Note_on_c, 0, 58, 0
2, 292238, Control_c, 0, 64, 22
2, 292345, Note_on_c, 0, 56, 0
2, 292373, Note_on_c, 0, 55, 50
2, 292540, Note_on_c, 0, 64, 0
2, 292603, Note_on_c, 0, 73, 0
2, 292605, Note_on_c, 0, 55, 0
2, 292607, Note_on_c, 0, 63, 55
2, 292629, Note_on_c, 0, 56, 44
2, 292883, Note_on_c, 0, 63, 0
2, 293027, Note_on_c, 0, 71, 57
2, 293037, Note_on_c, 0, 54, 45
2, 293055, Note_on_c, 0, 62, 49
2, 293074, Note_on_c, 0, 56, 0
2, 293165, Note_on_c, 0, 62, 0
2, 293201, Note_on_c, 0, 71, 0
2, 293211, Note_on_c, 0, 54, 0
2, 293246, Note_on_c, 0, 53, 49
2, 293494, Note_on_c, 0, 70, 56
2, 293500, Note_on_c, 0, 54, 33
2, 293503, Note_on_c, 0, 61, 40
2, 293571, Note_on_c, 0, 53, 0
2, 293692, Note_on_c, 0, 73, 60
2, 293702, Note_on_c, 0, 54, 0
2, 293759, Note_on_c, 0, 70, 0
2, 293893, Note_on_c, 0, 71, 53
2, 293942, Note_on_c, 0, 73, 0
2, 294100, Note_on_c, 0, 70, 57
2, 294130, Note_on_c, 0, 71, 0
2, 294331, Note_on_c, 0, 68, 55
2, 294336, Note_on_c, 0, 70, 0
2, 294338, Note_on_c, 0, 53, 52
2, 294535, Note_on_c, 0, 71, 53
2, 294579, Note_on_c, 0, 68, 0
2, 294699, Note_on_c, 0, 53, 0
2, 294756, Note_on_c, 0, 70, 64
2, 294776, Note_on_c, 0, 71, 0
2, 294964, Note_on_c, 0, 68, 61
2, 294981, Note_on_c, 0, 70, 0
2, 295182, Note_on_c, 0, 51, 56
2, 295187, Note_on_c, 0, 66, 61
2, 295193, Note_on_c, 0, 68, 0
2, 295402, Note_on_c, 0, 70, 61
2, 295412, Note_on_c, 0, 66, 0
2, 295417, Note_on_c, 0, 61, 0
2, 295621, Note_on_c, 0, 68, 63
2, 295623, Note_on_c, 0, 59, 55
2, 295660, Note_on_c, 0, 51, 0
2, 295711, Note_on_c, 0, 70, 0
2, 295815, Note_on_c, 0, 66, 64
2, 295842, Note_on_c, 0, 68, 0
2, 296015, Note_on_c, 0, 66, 0
2, 296027, Note_on_c, 0, 65, 61
2, 296054, Note_on_c, 0, 49, 57
2, 296233, Note_on_c, 0, 68, 62
2, 296254, Note_on_c, 0, 65, 0
2, 296327, Note_on_c, 0, 59, 0
2, 296476, Note_on_c, 0, 66, 59
2, 296492, Note_on_c, 0, 58, 49
2, 296530, Note_on_c, 0, 68, 0
2, 296550, Control_c, 0, 64, 18
2, 296674, Note_on_c, 0, 56, 49
2, 296734, Note_on_c, 0, 58, 0
2, 296906, Control_c, 0, 64, 26
2, 296911, Note_on_c, 0, 54, 51
2, 296926, Control_c, 0, 64, 35
2, 296932, Note_on_c, 0, 66, 0
2, 296938, Note_on_c, 0, 56, 0
2, 296984, Control_c, 0, 64, 39
2, 297019, Control_c, 0, 64, 44
2, 297039, Control_c, 0, 64, 52
2, 297056, Control_c, 0, 64, 54
2, 297077, Control_c, 0, 64, 52
2, 297093, Control_c, 0, 64, 50
2, 297113, Note_on_c, 0, 58, 60
2, 297169, Note_on_c, 0, 54, 0
2, 297266, Control_c, 0, 64, 47
2, 297283, Control_c, 0, 64, 45
2, 297319, Control_c, 0, 64, 43
2, 297319, Note_on_c, 0, 65, 69
2, 297348, Note_on_c, 0, 56, 51
2, 297358, Control_c, 0, 64, 39
2, 297403, Note_on_c, 0, 58, 0
2, 297452, Control_c, 0, 64, 34
2, 297539, Note_on_c, 0, 54, 44
2, 297750, Note_on_c, 0, 71, 68
2, 297787, Note_on_c, 0, 53, 34
2, 297797, Note_on_c, 0, 54, 0
2, 297799, Note_on_c, 0, 56, 0
2, 297860, Note_on_c, 0, 65, 0
2, 297984, Note_on_c, 0, 56, 55
2, 297993, Note_on_c, 0, 53, 0
2, 298154, Note_on_c, 0, 56, 0
2, 298183, Note_on_c, 0, 55, 55
2, 298195, Note_on_c, 0, 70, 64
2, 298249, Note_on_c, 0, 71, 0
2, 298379, Note_on_c, 0, 53, 56
2, 298379, Note_on_c, 0, 55, 0
2, 298386, Note_on_c, 0, 68, 68
2, 298433, Note_on_c, 0, 70, 0
2, 298633, Note_on_c, 0, 70, 65
2, 298648, Note_on_c, 0, 55, 59
2, 298672, Note_on_c, 0, 53, 0
2, 298695, Note_on_c, 0, 49, 0
2, 298695, Note_on_c, 0, 68, 0
2, 299088, Note_on_c, 0, 47, 55
2, 299095, Note_on_c, 0, 75, 66
2, 299208, Note_on_c, 0, 55, 0
2, 299221, Note_on_c, 0, 70, 0
2, 299290, Note_on_c, 0, 46, 65
2, 299318, Note_on_c, 0, 47, 0
2, 299533, Note_on_c, 0, 56, 58
2, 299544, Note_on_c, 0, 47, 64
2, 299591, Note_on_c, 0, 46, 0
2, 299980, Note_on_c, 0, 73, 72
2, 299993, Note_on_c, 0, 52, 56
2, 300094, Note_on_c, 0, 56, 0
2, 300134, Note_on_c, 0, 75, 0
2, 300161, Note_on_c, 0, 71, 74
2, 300173, Note_on_c, 0, 47, 0
2, 300233, Note_on_c, 0, 73, 0
2, 300401, Note_on_c, 0, 73, 74
2, 300405, Note_on_c, 0, 58, 65
2, 300502, Note_on_c, 0, 71, 0
2, 300578, Control_c, 0, 64, 39
2, 300596, Control_c, 0, 64, 48
2, 300615, Control_c, 0, 64, 54
2, 300635, Control_c, 0, 64, 57
2, 300654, Control_c, 0, 64, 59
2, 300671, Control_c, 0, 64, 62
2, 300690, Control_c, 0, 64, 66
2, 300710, Control_c, 0, 64, 69
2, 300826, Note_on_c, 0, 78, 73
2, 300875, Control_c, 0, 64, 67
2, 300877, Note_on_c, 0, 51, 58
2, 300916, Control_c, 0, 64, 66
2, 300923, Note_on_c, 0, 73, 0
2, 300938, Note_on_c, 0, 52, 0
2, 300989, Control_c, 0, 64, 64
2, 301027, Note_on_c, 0, 58, 0
2, 301044, Note_on_c, 0, 49, 60
2, 301066, Note_on_c, 0, 51, 0
2, 301084, Control_c, 0, 64, 63
2, 301144, Control_c, 0, 64, 64
2, 301199, Control_c, 0, 64, 63
2, 301219, Control_c, 0, 64, 62
2, 301238, Control_c, 0, 64, 59
2, 301256, Control_c, 0, 64, 56
2, 301273, Control_c, 0, 64, 49
2, 301289, Note_on_c, 0, 59, 73
2, 301293, Control_c, 0, 64, 42
2, 301298, Note_on_c, 0, 51, 52
2, 301313, Control_c, 0, 64, 32
2, 301332, Control_c, 0, 64, 25
2, 301362, Note_on_c, 0, 49, 0
2, 301368, Control_c, 0, 64, 17
2, 301390, Control_c, 0, 64, 12
2, 301407, Control_c, 0, 64, 8
2, 301749, Note_on_c, 0, 76, 48
2, 301755, Note_on_c, 0, 56, 55
2, 301821, Note_on_c, 0, 77, 10
2, 301849, Note_on_c, 0, 51, 0
2, 301857, Note_on_c, 0, 59, 0
2, 301895, Note_on_c, 0, 77, 0
2, 301946, Note_on_c, 0, 75, 63
2, 302054, Note_on_c, 0, 76, 0
2, 302061, Note_on_c, 0, 78, 0
2, 302171, Note_on_c, 0, 73, 65
2, 302182, Note_on_c, 0, 58, 57
2, 302255, Note_on_c, 0, 75, 0
2, 302363, Note_on_c, 0, 73, 0
2, 302367, Note_on_c, 0, 71, 62
2, 302574, Note_on_c, 0, 70, 59
2, 302579, Note_on_c, 0, 55, 53
2, 302593, Control_c, 0, 64, 12
2, 302609, Note_on_c, 0, 71, 0
2, 302709, Note_on_c, 0, 56, 0
2, 302774, Note_on_c, 0, 55, 0
2, 302775, Note_on_c, 0, 53, 55
2, 302776, Note_on_c, 0, 68, 64
2, 302809, Note_on_c, 0, 70, 0
2, 302893, Control_c, 0, 64, 17
2, 303030, Note_on_c, 0, 70, 65
2, 303044, Note_on_c, 0, 55, 57
2, 303053, Note_on_c, 0, 68, 0
2, 303074, Note_on_c, 0, 53, 0
2, 303080, Control_c, 0, 64, 21
2, 303119, Note_on_c, 0, 58, 0
2, 303174, Control_c, 0, 64, 26
2, 303193, Control_c, 0, 64, 30
2, 303270, Control_c, 0, 64, 35
2, 303290, Control_c, 0, 64, 41
2, 303308, Control_c, 0, 64, 45
2, 303384, Control_c, 0, 64, 48
2, 303456, Note_on_c, 0, 55, 0
2, 303461, Note_on_c, 0, 56, 60
2, 303465, Note_on_c, 0, 64, 59
2, 303571, Control_c, 0, 64, 50
2, 303661, Note_on_c, 0, 56, 0
2, 303664, Note_on_c, 0, 58, 52
2, 303746, Note_on_c, 0, 58, 0
2, 303944, Control_c, 0, 64, 45
2, 303944, Note_on_c, 0, 51, 68
2, 303964, Control_c, 0, 64, 39
2, 303968, Note_on_c, 0, 63, 47
2, 303971, Note_on_c, 0, 59, 48
2, 303985, Control_c, 0, 64, 34
2, 303988, Note_on_c, 0, 64, 0
2, 304022, Control_c, 0, 64, 26
2, 304060, Control_c, 0, 64, 19
2, 304432, Note_on_c, 0, 68, 57
2, 304440, Note_on_c, 0, 59, 0
2, 304471, Note_on_c, 0, 70, 0
2, 304532, Note_on_c, 0, 51, 0
2, 304888, Note_on_c, 0, 49, 62
2, 304908, Note_on_c, 0, 58, 50
2, 305188, Note_on_c, 0, 68, 0
2, 305334, Note_on_c, 0, 67, 59
2, 305341, Note_on_c, 0, 58, 0
2, 305529, Note_on_c, 0, 67, 0
2, 305785, Note_on_c, 0, 68, 56
2, 305791, Note_on_c, 0, 56, 49
2, 305869, Note_on_c, 0, 63, 0
2, 305889, Note_on_c, 0, 49, 0
2, 306225, Note_on_c, 0, 47, 63
2, 306231, Note_on_c, 0, 58, 54
2, 306392, Note_on_c, 0, 58, 0
2, 306417, Note_on_c, 0, 59, 63
2, 306462, Note_on_c, 0, 47, 0
2, 306466, Note_on_c, 0, 56, 0
2, 306515, Note_on_c, 0, 59, 0
2, 306655, Control_c, 0, 64, 0
2, 306671, Note_on_c, 0, 46, 71
2, 306690, Note_on_c, 0, 61, 67
2, 306769, Control_c, 0, 64, 29
2, 306788, Control_c, 0, 64, 51
2, 306808, Control_c, 0, 64, 65
2, 306814, Note_on_c, 0, 61, 0
2, 306826, Control_c, 0, 64, 70
2, 306847, Control_c, 0, 64, 74
2, 306859, Note_on_c, 0, 68, 0
2, 306863, Control_c, 0, 64, 79
2, 306884, Control_c, 0, 64, 85
2, 306902, Control_c, 0, 64, 91
2, 306923, Control_c, 0, 64, 96
2, 306959, Control_c, 0, 64, 102
2, 306996, Control_c, 0, 64, 108
2, 307127, Note_on_c, 0, 80, 75
2, 307130, Control_c, 0, 64, 98
2, 307130, Note_on_c, 0, 52, 59
2, 307149, Control_c, 0, 64, 85
2, 307153, Note_on_c, 0, 74, 46
2, 307167, Control_c, 0, 64, 68
2, 307184, Control_c, 0, 64, 46
2, 307202, Note_on_c, 0, 46, 0
2, 307206, Control_c, 0, 64, 28
2, 307280, Control_c, 0, 64, 47
2, 307298, Control_c, 0, 64, 61
2, 307314, Note_on_c, 0, 80, 0
2, 307318, Control_c, 0, 64, 67
2, 307356, Control_c, 0, 64, 70
2, 307377, Control_c, 0, 64, 72
2, 307394, Control_c, 0, 64, 76
2, 307394, Note_on_c, 0, 51, 42
2, 307411, Control_c, 0, 64, 81
2, 307432, Control_c, 0, 64, 85
2, 307443, Note_on_c, 0, 52, 0
2, 307506, Control_c, 0, 64, 79
2, 307526, Control_c, 0, 64, 75
2, 307543, Control_c, 0, 64, 72
2, 307550, Note_on_c, 0, 79, 67
2, 307588, Note_on_c, 0, 75, 61
2, 307592, Note_on_c, 0, 74, 0
2, 307598, Control_c, 0, 64, 74
2, 307618, Control_c, 0, 64, 80
2, 307636, Control_c, 0, 64, 87
2, 307654, Control_c, 0, 64, 93
2, 307692, Control_c, 0, 64, 97
2, 307712, Note_on_c, 0, 79, 0
2, 307728, Control_c, 0, 64, 102
2, 307742, Note_on_c, 0, 78, 19
2, 307778, Note_on_c, 0, 75, 0
2, 307800, Note_on_c, 0, 78, 0
2, 307844, Control_c, 0, 64, 107
2, 307919, Control_c, 0, 64, 101
2, 307937, Control_c, 0, 64, 92
2, 307958, Control_c, 0, 64, 78
2, 307975, Control_c, 0, 64, 61
2, 307982, Control_c, 0, 64, 42
2, 307987, Note_on_c, 0, 78, 68
2, 308000, Control_c, 0, 64, 25
2, 308005, Note_on_c, 0, 75, 59
2, 308006, Note_on_c, 0, 63, 58
2, 308021, Control_c, 0, 64, 11
2, 308042, Control_c, 0, 64, 0
2, 308099, Control_c, 0, 64, 20
2, 308115, Control_c, 0, 64, 48
2, 308135, Control_c, 0, 64, 69
2, 308151, Note_on_c, 0, 78, 0
2, 308153, Control_c, 0, 64, 82
2, 308173, Control_c, 0, 64, 91
2, 308191, Control_c, 0, 64, 98
2, 308192, Note_on_c, 0, 63, 0
2, 308199, Note_on_c, 0, 75, 0
2, 308210, Control_c, 0, 64, 106
2, 308228, Control_c, 0, 64, 116
2, 308252, Control_c, 0, 64, 127
2, 308364, Control_c, 0, 64, 121
2, 308383, Control_c, 0, 64, 102
2, 308402, Control_c, 0, 64, 78
2, 308408, Note_on_c, 0, 77, 74
2, 308417, Note_on_c, 0, 65, 57
2, 308421, Control_c, 0, 64, 55
2, 308425, Note_on_c, 0, 73, 50
2, 308438, Control_c, 0, 64, 48
2, 308444, Note_on_c, 0, 65, 0
2, 308458, Control_c, 0, 64, 56
2, 308477, Control_c, 0, 64, 72
2, 308478, Note_on_c, 0, 51, 0
2, 308497, Control_c, 0, 64, 87
2, 308531, Control_c, 0, 64, 102
2, 308551, Control_c, 0, 64, 107
2, 308552, Note_on_c, 0, 77, 0
2, 308605, Control_c, 0, 64, 113
2, 308625, Control_c, 0, 64, 117
2, 308634, Note_on_c, 0, 73, 0
2, 308643, Control_c, 0, 64, 122
2, 308661, Note_on_c, 0, 71, 40
2, 308681, Control_c, 0, 64, 127
2, 308777, Control_c, 0, 64, 114
2, 308796, Control_c, 0, 64, 100
2, 308815, Control_c, 0, 64, 81
2, 308830, Note_on_c, 0, 49, 67
2, 308832, Control_c, 0, 64, 58
2, 308837, Note_on_c, 0, 67, 64
2, 308841, Note_on_c, 0, 76, 70
2, 308844, Note_on_c, 0, 71, 0
2, 308852, Control_c, 0, 64, 30
2, 308871, Control_c, 0, 64, 13
2, 308924, Control_c, 0, 64, 27
2, 308946, Control_c, 0, 64, 51
2, 308951, Note_on_c, 0, 67, 0
2, 308964, Control_c, 0, 64, 68
2, 308982, Note_on_c, 0, 76, 0
2, 308983, Control_c, 0, 64, 77
2, 309003, Control_c, 0, 64, 85
2, 309022, Control_c, 0, 64, 92
2, 309023, Note_on_c, 0, 49, 0
2, 309041, Control_c, 0, 64, 100
2, 309046, Note_on_c, 0, 71, 48
2, 309061, Control_c, 0, 64, 109
2, 309078, Control_c, 0, 64, 113
2, 309084, Note_on_c, 0, 71, 0
2, 309136, Control_c, 0, 64, 117
2, 309173, Control_c, 0, 64, 123
2, 309211, Control_c, 0, 64, 127
2, 309286, Note_on_c, 0, 47, 62
2, 309287, Note_on_c, 0, 71, 47
2, 309287, Note_on_c, 0, 75, 74
2, 309305, Control_c, 0, 64, 115
2, 309307, Note_on_c, 0, 68, 46
2, 309323, Control_c, 0, 64, 102
2, 309343, Control_c, 0, 64, 84
2, 309362, Control_c, 0, 64, 62
2, 309381, Control_c, 0, 64, 39
2, 309398, Control_c, 0, 64, 27
2, 309507, Note_on_c, 0, 51, 55
2, 309531, Note_on_c, 0, 47, 0
2, 309616, Note_on_c, 0, 68, 0
2, 309633, Note_on_c, 0, 71, 0
2, 309704, Note_on_c, 0, 49, 63
2, 309708, Note_on_c, 0, 51, 0
2, 309913, Note_on_c, 0, 47, 61
2, 309964, Note_on_c, 0, 49, 0
2, 310141, Note_on_c, 0, 73, 65
2, 310153, Note_on_c, 0, 46, 62
2, 310153, Note_on_c, 0, 67, 53
2, 310161, Note_on_c, 0, 47, 0
2, 310341, Note_on_c, 0, 49, 57
2, 310359, Note_on_c, 0, 46, 0
2, 310365, Note_on_c, 0, 67, 0
2, 310470, Note_on_c, 0, 73, 0
2, 310570, Note_on_c, 0, 47, 63
2, 310579, Note_on_c, 0, 49, 0
2, 310779, Note_on_c, 0, 46, 63
2, 310805, Note_on_c, 0, 47, 0
2, 310976, Note_on_c, 0, 71, 64
2, 310988, Note_on_c, 0, 68, 56
2, 311010, Note_on_c, 0, 44, 58
2, 311052, Note_on_c, 0, 46, 0
2, 311219, Note_on_c, 0, 47, 53
2, 311248, Note_on_c, 0, 44, 0
2, 311297, Note_on_c, 0, 68, 0
2, 311320, Control_c, 0, 64, 31
2, 311378, Control_c, 0, 64, 35
2, 311384, Note_on_c, 0, 71, 0
2, 311424, Note_on_c, 0, 46, 64
2, 311434, Note_on_c, 0, 47, 0
2, 311628, Note_on_c, 0, 44, 60
2, 311668, Note_on_c, 0, 46, 0
2, 311844, Note_on_c, 0, 70, 60
2, 311854, Note_on_c, 0, 43, 60
2, 311855, Note_on_c, 0, 63, 60
2, 311856, Note_on_c, 0, 44, 0
2, 312063, Note_on_c, 0, 46, 59
2, 312064, Note_on_c, 0, 63, 0
2, 312090, Note_on_c, 0, 43, 0
2, 312098, Note_on_c, 0, 70, 0
2, 312294, Note_on_c, 0, 73, 67
2, 312307, Note_on_c, 0, 44, 57
2, 312371, Note_on_c, 0, 46, 0
2, 312500, Note_on_c, 0, 71, 69
2, 312522, Note_on_c, 0, 75, 0
2, 312536, Note_on_c, 0, 73, 0
2, 312721, Note_on_c, 0, 73, 66
2, 312774, Note_on_c, 0, 44, 0
2, 312777, Note_on_c, 0, 71, 0
2, 312924, Note_on_c, 0, 76, 66
2, 312978, Note_on_c, 0, 73, 0
2, 313132, Note_on_c, 0, 43, 61
2, 313145, Note_on_c, 0, 75, 60
2, 313211, Note_on_c, 0, 76, 0
2, 313356, Note_on_c, 0, 73, 64
2, 313390, Note_on_c, 0, 75, 0
2, 313562, Note_on_c, 0, 73, 0
2, 313580, Note_on_c, 0, 71, 68
2, 313586, Note_on_c, 0, 64, 55
2, 313590, Note_on_c, 0, 49, 53
2, 313771, Note_on_c, 0, 70, 64
2, 313816, Note_on_c, 0, 71, 0
2, 313838, Note_on_c, 0, 43, 0
2, 313985, Note_on_c, 0, 68, 60
2, 314004, Note_on_c, 0, 47, 52
2, 314055, Note_on_c, 0, 49, 0
2, 314076, Note_on_c, 0, 70, 0
2, 314173, Note_on_c, 0, 67, 65
2, 314183, Note_on_c, 0, 46, 55
2, 314189, Note_on_c, 0, 47, 0
2, 314200, Note_on_c, 0, 68, 0
2, 314433, Note_on_c, 0, 47, 58
2, 314433, Note_on_c, 0, 67, 0
2, 314441, Note_on_c, 0, 68, 58
2, 314462, Note_on_c, 0, 46, 0
2, 314588, Control_c, 0, 64, 31
2, 314866, Note_on_c, 0, 47, 0
2, 314876, Note_on_c, 0, 63, 54
2, 314898, Note_on_c, 0, 59, 44
2, 314906, Note_on_c, 0, 64, 0
2, 315067, Note_on_c, 0, 61, 57
2, 315079, Note_on_c, 0, 58, 53
2, 315088, Note_on_c, 0, 63, 0
2, 315094, Note_on_c, 0, 59, 0
2, 315319, Note_on_c, 0, 63, 58
2, 315321, Note_on_c, 0, 59, 59
2, 315322, Note_on_c, 0, 61, 0
2, 315359, Note_on_c, 0, 58, 0
2, 315493, Note_on_c, 0, 63, 0
2, 315506, Note_on_c, 0, 65, 62
2, 315737, Note_on_c, 0, 66, 63
2, 315740, Note_on_c, 0, 63, 61
2, 315784, Note_on_c, 0, 65, 0
2, 315852, Note_on_c, 0, 59, 0
2, 316177, Note_on_c, 0, 60, 69
2, 316361, Note_on_c, 0, 63, 0
2, 316616, Note_on_c, 0, 65, 62
2, 316628, Note_on_c, 0, 56, 61
2, 316748, Note_on_c, 0, 60, 0
2, 316807, Note_on_c, 0, 63, 69
2, 316813, Note_on_c, 0, 65, 0
2, 317045, Note_on_c, 0, 65, 62
2, 317046, Note_on_c, 0, 66, 0
2, 317047, Note_on_c, 0, 68, 0
2, 317058, Note_on_c, 0, 61, 64
2, 317061, Note_on_c, 0, 63, 0
2, 317132, Note_on_c, 0, 56, 0
2, 317259, Note_on_c, 0, 70, 61
2, 317471, Note_on_c, 0, 68, 64
2, 317476, Note_on_c, 0, 56, 61
2, 317526, Note_on_c, 0, 70, 0
2, 317562, Note_on_c, 0, 61, 0
2, 317652, Note_on_c, 0, 66, 64
2, 317712, Note_on_c, 0, 68, 0
2, 317880, Note_on_c, 0, 53, 58
2, 317882, Note_on_c, 0, 68, 66
2, 317943, Note_on_c, 0, 56, 0
2, 317960, Note_on_c, 0, 66, 0
2, 318072, Note_on_c, 0, 70, 69
2, 318166, Note_on_c, 0, 68, 0
2, 318324, Note_on_c, 0, 71, 70
2, 318328, Note_on_c, 0, 49, 57
2, 318383, Note_on_c, 0, 53, 0
2, 318386, Note_on_c, 0, 70, 0
2, 318738, Note_on_c, 0, 53, 61
2, 318764, Note_on_c, 0, 49, 0
2, 319188, Note_on_c, 0, 56, 59
2, 319191, Note_on_c, 0, 70, 69
2, 319282, Note_on_c, 0, 53, 0
2, 319295, Note_on_c, 0, 71, 0
2, 319383, Note_on_c, 0, 68, 64
2, 319445, Note_on_c, 0, 70, 0
2, 319613, Note_on_c, 0, 70, 62
2, 319621, Note_on_c, 0, 50, 63
2, 319634, Control_c, 0, 64, 36
2, 319654, Control_c, 0, 64, 45
2, 319672, Control_c, 0, 64, 56
2, 319689, Note_on_c, 0, 56, 0
2, 319692, Control_c, 0, 64, 62
2, 319698, Note_on_c, 0, 65, 0
2, 319699, Note_on_c, 0, 68, 0
2, 319709, Control_c, 0, 64, 66
2, 319729, Control_c, 0, 64, 69
2, 319749, Control_c, 0, 64, 75
2, 319767, Control_c, 0, 64, 86
2, 319785, Note_on_c, 0, 50, 0
2, 319786, Control_c, 0, 64, 97
2, 319804, Control_c, 0, 64, 101
2, 319821, Note_on_c, 0, 66, 66
2, 320014, Control_c, 0, 64, 97
2, 320037, Note_on_c, 0, 62, 78
2, 320044, Note_on_c, 0, 65, 66
2, 320047, Control_c, 0, 64, 91
2, 320052, Note_on_c, 0, 66, 0
2, 320064, Control_c, 0, 64, 81
2, 320084, Control_c, 0, 64, 70
2, 320103, Control_c, 0, 64, 58
2, 320122, Control_c, 0, 64, 48
2, 320140, Control_c, 0, 64, 44
2, 320223, Note_on_c, 0, 60, 80
2, 320230, Note_on_c, 0, 63, 69
2, 320234, Note_on_c, 0, 62, 0
2, 320247, Note_on_c, 0, 65, 0
2, 320442, Note_on_c, 0, 63, 0
2, 320447, Note_on_c, 0, 65, 71
2, 320461, Note_on_c, 0, 62, 78
2, 320488, Note_on_c, 0, 60, 0
2, 320634, Note_on_c, 0, 66, 75
2, 320658, Note_on_c, 0, 65, 0
2, 320869, Note_on_c, 0, 68, 72
2, 320884, Note_on_c, 0, 65, 66
2, 320892, Note_on_c, 0, 66, 0
2, 320910, Note_on_c, 0, 62, 0
2, 321310, Note_on_c, 0, 62, 72
2, 321390, Note_on_c, 0, 65, 0
2, 321573, Control_c, 0, 64, 47
2, 321648, Control_c, 0, 64, 49
2, 321666, Control_c, 0, 64, 51
2, 321728, Note_on_c, 0, 58, 59
2, 321738, Note_on_c, 0, 66, 73
2, 321740, Control_c, 0, 64, 53
2, 321761, Control_c, 0, 64, 55
2, 321781, Control_c, 0, 64, 58
2, 321788, Note_on_c, 0, 62, 0
2, 321798, Control_c, 0, 64, 61
2, 321818, Control_c, 0, 64, 64
2, 321837, Control_c, 0, 64, 66
2, 321857, Control_c, 0, 64, 69
2, 321873, Control_c, 0, 64, 73
2, 321893, Control_c, 0, 64, 79
2, 321912, Control_c, 0, 64, 87
2, 321920, Note_on_c, 0, 65, 69
2, 321932, Control_c, 0, 64, 97
2, 321964, Control_c, 0, 64, 106
2, 321973, Note_on_c, 0, 66, 0
2, 321983, Control_c, 0, 64, 110
2, 321993, Note_on_c, 0, 58, 0
2, 322003, Note_on_c, 0, 65, 0
2, 322080, Control_c, 0, 64, 114
2, 322168, Note_on_c, 0, 68, 0
2, 322177, Note_on_c, 0, 70, 0
2, 322182, Note_on_c, 0, 66, 76
2, 322189, Note_on_c, 0, 63, 80
2, 322288, Control_c, 0, 64, 110
2, 322324, Control_c, 0, 64, 100
2, 322344, Control_c, 0, 64, 86
2, 322363, Control_c, 0, 64, 71
2, 322373, Note_on_c, 0, 72, 70
2, 322382, Control_c, 0, 64, 57
2, 322400, Control_c, 0, 64, 49
2, 322418, Control_c, 0, 64, 47
2, 322592, Note_on_c, 0, 70, 68
2, 322593, Note_on_c, 0, 51, 69
2, 322622, Note_on_c, 0, 72, 0
2, 322717, Note_on_c, 0, 63, 0
2, 322774, Note_on_c, 0, 69, 74
2, 322805, Note_on_c, 0, 70, 0
2, 323016, Note_on_c, 0, 70, 74
2, 323017, Note_on_c, 0, 54, 70
2, 323064, Note_on_c, 0, 69, 0
2, 323115, Note_on_c, 0, 51, 0
2, 323198, Note_on_c, 0, 72, 77
2, 323267, Note_on_c, 0, 70, 0
2, 323418, Note_on_c, 0, 73, 79
2, 323433, Note_on_c, 0, 58, 75
2, 323454, Note_on_c, 0, 72, 0
2, 323491, Note_on_c, 0, 54, 0
2, 323865, Note_on_c, 0, 51, 73
2, 323942, Control_c, 0, 64, 49
2, 323960, Note_on_c, 0, 58, 0
2, 323980, Control_c, 0, 64, 51
2, 323998, Control_c, 0, 64, 53
2, 324036, Control_c, 0, 64, 56
2, 324055, Control_c, 0, 64, 59
2, 324073, Control_c, 0, 64, 62
2, 324094, Control_c, 0, 64, 64
2, 324111, Control_c, 0, 64, 66
2, 324130, Control_c, 0, 64, 67
2, 324148, Control_c, 0, 64, 69
2, 324167, Control_c, 0, 64, 72
2, 324187, Control_c, 0, 64, 76
2, 324205, Control_c, 0, 64, 80
2, 324225, Control_c, 0, 64, 83
2, 324244, Control_c, 0, 64, 86
2, 324262, Control_c, 0, 64, 90
2, 324281, Control_c, 0, 64, 95
2, 324300, Control_c, 0, 64, 100
2, 324303, Note_on_c, 0, 72, 79
2, 324312, Note_on_c, 0, 54, 72
2, 324318, Control_c, 0, 64, 105
2, 324355, Control_c, 0, 64, 111
2, 324367, Note_on_c, 0, 73, 0
2, 324379, Note_on_c, 0, 51, 0
2, 324413, Control_c, 0, 64, 115
2, 324427, Note_on_c, 0, 54, 0
2, 324491, Note_on_c, 0, 70, 81
2, 324546, Note_on_c, 0, 72, 0
2, 324677, Control_c, 0, 64, 111
2, 324697, Control_c, 0, 64, 102
2, 324715, Control_c, 0, 64, 87
2, 324724, Note_on_c, 0, 45, 85
2, 324731, Note_on_c, 0, 72, 67
2, 324736, Control_c, 0, 64, 67
2, 324752, Control_c, 0, 64, 42
2, 324772, Control_c, 0, 64, 16
2, 324790, Control_c, 0, 64, 11
2, 324840, Note_on_c, 0, 70, 0
2, 324861, Control_c, 0, 64, 35
2, 324882, Control_c, 0, 64, 57
2, 324900, Control_c, 0, 64, 69
2, 324913, Note_on_c, 0, 45, 0
2, 324918, Control_c, 0, 64, 74
2, 324950, Note_on_c, 0, 73, 76
2, 324958, Control_c, 0, 64, 77
2, 324992, Note_on_c, 0, 72, 0
2, 324996, Control_c, 0, 64, 83
2, 325014, Control_c, 0, 64, 90
2, 325033, Control_c, 0, 64, 97
2, 325053, Control_c, 0, 64, 102
2, 325128, Control_c, 0, 64, 94
2, 325145, Control_c, 0, 64, 83
2, 325163, Note_on_c, 0, 57, 91
2, 325166, Control_c, 0, 64, 69
2, 325171, Note_on_c, 0, 72, 72
2, 325185, Control_c, 0, 64, 51
2, 325204, Control_c, 0, 64, 32
2, 325224, Note_on_c, 0, 73, 0
2, 325240, Control_c, 0, 64, 0
2, 325353, Control_c, 0, 64, 33
2, 325357, Note_on_c, 0, 70, 80
2, 325372, Control_c, 0, 64, 55
2, 325392, Control_c, 0, 64, 69
2, 325394, Note_on_c, 0, 72, 0
2, 325408, Note_on_c, 0, 66, 0
2, 325410, Control_c, 0, 64, 76
2, 325430, Control_c, 0, 64, 83
2, 325450, Control_c, 0, 64, 91
2, 325468, Control_c, 0, 64, 100
2, 325488, Control_c, 0, 64, 107
2, 325586, Note_on_c, 0, 72, 80
2, 325589, Note_on_c, 0, 65, 81
2, 325634, Note_on_c, 0, 70, 0
2, 325750, Control_c, 0, 64, 100
2, 325774, Note_on_c, 0, 58, 78
2, 325774, Note_on_c, 0, 73, 80
2, 325803, Control_c, 0, 64, 95
2, 325812, Note_on_c, 0, 57, 0
2, 325832, Note_on_c, 0, 72, 0
2, 325840, Control_c, 0, 64, 91
2, 325982, Note_on_c, 0, 75, 83
2, 325987, Control_c, 0, 64, 84
2, 325994, Note_on_c, 0, 57, 74
2, 326006, Note_on_c, 0, 58, 0
2, 326009, Control_c, 0, 64, 71
2, 326027, Control_c, 0, 64, 49
2, 326034, Note_on_c, 0, 73, 0
2, 326046, Control_c, 0, 64, 11
2, 326065, Control_c, 0, 64, 0
2, 326191, Note_on_c, 0, 55, 83
2, 326206, Note_on_c, 0, 57, 0
2, 326431, Note_on_c, 0, 57, 88
2, 326461, Note_on_c, 0, 55, 0
2, 326469, Note_on_c, 0, 65, 0
2, 326652, Control_c, 0, 64, 21
2, 326670, Control_c, 0, 64, 33
2, 326688, Control_c, 0, 64, 47
2, 326707, Control_c, 0, 64, 52
2, 326875, Control_c, 0, 64, 54
2, 326880, Note_on_c, 0, 53, 72
2, 326891, Note_on_c, 0, 73, 79
2, 326894, Control_c, 0, 64, 57
2, 326894, Note_on_c, 0, 69, 72
2, 326913, Control_c, 0, 64, 61
2, 326929, Control_c, 0, 64, 67
2, 326950, Control_c, 0, 64, 73
2, 326951, Note_on_c, 0, 57, 0
2, 326969, Control_c, 0, 64, 80
2, 326976, Note_on_c, 0, 53, 0
2, 326990, Control_c, 0, 64, 86
2, 327005, Control_c, 0, 64, 92
2, 327017, Note_on_c, 0, 75, 0
2, 327023, Control_c, 0, 64, 98
2, 327043, Control_c, 0, 64, 103
2, 327079, Note_on_c, 0, 72, 77
2, 327105, Note_on_c, 0, 73, 0
2, 327140, Control_c, 0, 64, 107
2, 327151, Note_on_c, 0, 72, 0
2, 327402, Control_c, 0, 64, 100
2, 327412, Note_on_c, 0, 65, 96
2, 327412, Note_on_c, 0, 73, 72
2, 327421, Control_c, 0, 64, 90
2, 327423, Note_on_c, 0, 58, 80
2, 327424, Note_on_c, 0, 70, 67
2, 327441, Control_c, 0, 64, 77
2, 327442, Note_on_c, 0, 69, 0
2, 327459, Control_c, 0, 64, 61
2, 327478, Control_c, 0, 64, 43
2, 327497, Control_c, 0, 64, 24
2, 327516, Control_c, 0, 64, 13
2, 327535, Control_c, 0, 64, 8
2, 327554, Control_c, 0, 64, 0
2, 327627, Note_on_c, 0, 70, 0
2, 327643, Note_on_c, 0, 72, 66
2, 327648, Note_on_c, 0, 73, 0
2, 327720, Control_c, 0, 64, 27
2, 327737, Control_c, 0, 64, 46
2, 327758, Control_c, 0, 64, 62
2, 327777, Control_c, 0, 64, 71
2, 327796, Control_c, 0, 64, 76
2, 327814, Control_c, 0, 64, 81
2, 327836, Control_c, 0, 64, 88
2, 327853, Control_c, 0, 64, 96
2, 327872, Control_c, 0, 64, 104
2, 327890, Control_c, 0, 64, 108
2, 327915, Note_on_c, 0, 73, 81
2, 327928, Control_c, 0, 64, 115
2, 327946, Control_c, 0, 64, 120
2, 327955, Note_on_c, 0, 65, 0
2, 327966, Control_c, 0, 64, 126
2, 328368, Note_on_c, 0, 78, 92
2, 328392, Note_on_c, 0, 63, 72
2, 328403, Note_on_c, 0, 73, 0
2, 328480, Note_on_c, 0, 72, 0
2, 328561, Note_on_c, 0, 58, 0
2, 328569, Note_on_c, 0, 60, 69
2, 328757, Control_c, 0, 64, 115
2, 328776, Control_c, 0, 64, 101
2, 328792, Note_on_c, 0, 58, 72
2, 328796, Control_c, 0, 64, 85
2, 328796, Note_on_c, 0, 72, 78
2, 328814, Control_c, 0, 64, 74
2, 328814, Note_on_c, 0, 60, 0
2, 328834, Control_c, 0, 64, 70
2, 328852, Control_c, 0, 64, 74
2, 328871, Control_c, 0, 64, 83
2, 328890, Control_c, 0, 64, 93
2, 328909, Control_c, 0, 64, 100
2, 328911, Note_on_c, 0, 78, 0
2, 328965, Control_c, 0, 64, 104
2, 328980, Note_on_c, 0, 57, 76
2, 328986, Note_on_c, 0, 58, 0
2, 329116, Control_c, 0, 64, 111
2, 329134, Control_c, 0, 64, 115
2, 329210, Control_c, 0, 64, 111
2, 329224, Note_on_c, 0, 77, 82
2, 329228, Control_c, 0, 64, 100
2, 329235, Note_on_c, 0, 58, 80
2, 329246, Note_on_c, 0, 73, 73
2, 329248, Control_c, 0, 64, 86
2, 329268, Control_c, 0, 64, 69
2, 329278, Note_on_c, 0, 72, 0
2, 329286, Note_on_c, 0, 63, 0
2, 329289, Control_c, 0, 64, 51
2, 329289, Note_on_c, 0, 57, 0
2, 329306, Control_c, 0, 64, 40
2, 329533, Control_c, 0, 64, 44
2, 329550, Control_c, 0, 64, 46
2, 329587, Control_c, 0, 64, 44
2, 329677, Control_c, 0, 64, 42
2, 329680, Note_on_c, 0, 61, 87
2, 329685, Note_on_c, 0, 65, 76
2, 329697, Control_c, 0, 64, 40
2, 329755, Control_c, 0, 64, 49
2, 329776, Control_c, 0, 64, 57
2, 329793, Control_c, 0, 64, 61
2, 329810, Control_c, 0, 64, 67
2, 329813, Note_on_c, 0, 65, 0
2, 329831, Control_c, 0, 64, 75
2, 329849, Control_c, 0, 64, 86
2, 329853, Note_on_c, 0, 73, 0
2, 329868, Control_c, 0, 64, 98
2, 329885, Control_c, 0, 64, 106
2, 329890, Note_on_c, 0, 61, 0
2, 329926, Control_c, 0, 64, 110
2, 329962, Control_c, 0, 64, 116
2, 329983, Control_c, 0, 64, 123
2, 330001, Control_c, 0, 64, 127
2, 330076, Control_c, 0, 64, 121
2, 330094, Control_c, 0, 64, 102
2, 330105, Note_on_c, 0, 63, 86
2, 330111, Control_c, 0, 64, 76
2, 330114, Note_on_c, 0, 60, 79
2, 330131, Control_c, 0, 64, 48
2, 330151, Control_c, 0, 64, 29
2, 330159, Note_on_c, 0, 58, 0
2, 330185, Note_on_c, 0, 60, 0
2, 330187, Control_c, 0, 64, 51
2, 330208, Control_c, 0, 64, 76
2, 330227, Control_c, 0, 64, 100
2, 330246, Control_c, 0, 64, 125
2, 330277, Note_on_c, 0, 77, 0
2, 330278, Note_on_c, 0, 63, 0
2, 330307, Note_on_c, 0, 60, 80
2, 330495, Note_on_c, 0, 75, 88
2, 330510, Control_c, 0, 64, 104
2, 330514, Note_on_c, 0, 72, 80
2, 330515, Note_on_c, 0, 58, 75
2, 330528, Control_c, 0, 64, 76
2, 330529, Note_on_c, 0, 66, 75
2, 330547, Control_c, 0, 64, 45
2, 330565, Note_on_c, 0, 60, 0
2, 330566, Control_c, 0, 64, 13
2, 330600, Control_c, 0, 64, 8
2, 330638, Control_c, 0, 64, 21
2, 330657, Control_c, 0, 64, 47
2, 330672, Note_on_c, 0, 66, 0
2, 330676, Control_c, 0, 64, 70
2, 330680, Note_on_c, 0, 72, 0
2, 330696, Control_c, 0, 64, 88
2, 330706, Note_on_c, 0, 58, 0
2, 330714, Control_c, 0, 64, 105
2, 330716, Note_on_c, 0, 75, 0
2, 330720, Note_on_c, 0, 57, 70
2, 330735, Control_c, 0, 64, 114
2, 330770, Control_c, 0, 64, 120
2, 330809, Control_c, 0, 64, 125
2, 330970, Note_on_c, 0, 58, 71
2, 330971, Note_on_c, 0, 74, 86
2, 330980, Control_c, 0, 64, 114
2, 330980, Note_on_c, 0, 70, 79
2, 330984, Note_on_c, 0, 65, 79
2, 330998, Control_c, 0, 64, 89
2, 331017, Control_c, 0, 64, 59
2, 331022, Note_on_c, 0, 57, 0
2, 331036, Control_c, 0, 64, 17
2, 331054, Control_c, 0, 64, 0
2, 331128, Control_c, 0, 64, 11
2, 331148, Control_c, 0, 64, 37
2, 331167, Control_c, 0, 64, 58
2, 331171, Note_on_c, 0, 74, 0
2, 331186, Control_c, 0, 64, 72
2, 331206, Control_c, 0, 64, 84
2, 331225, Control_c, 0, 64, 96
2, 331243, Control_c, 0, 64, 106
2, 331261, Control_c, 0, 64, 115
2, 331281, Control_c, 0, 64, 123
2, 331299, Control_c, 0, 64, 127
2, 331413, Note_on_c, 0, 80, 85
2, 331433, Note_on_c, 0, 74, 73
2, 331502, Note_on_c, 0, 81, 51
2, 331534, Note_on_c, 0, 70, 0
2, 331537, Note_on_c, 0, 81, 0
2, 331578, Note_on_c, 0, 74, 0
2, 331593, Note_on_c, 0, 80, 0
2, 331862, Control_c, 0, 64, 120
2, 331863, Note_on_c, 0, 78, 85
2, 331877, Note_on_c, 0, 75, 77
2, 331881, Control_c, 0, 64, 101
2, 331900, Control_c, 0, 64, 78
2, 331921, Control_c, 0, 64, 53
2, 331938, Control_c, 0, 64, 36
2, 331975, Control_c, 0, 64, 41
2, 331992, Note_on_c, 0, 65, 0
2, 331995, Control_c, 0, 64, 59
2, 332013, Control_c, 0, 64, 72
2, 332032, Control_c, 0, 64, 84
2, 332050, Control_c, 0, 64, 95
2, 332051, Note_on_c, 0, 60, 70
2, 332071, Control_c, 0, 64, 103
2, 332071, Note_on_c, 0, 58, 0
2, 332089, Control_c, 0, 64, 112
2, 332108, Control_c, 0, 64, 121
2, 332127, Control_c, 0, 64, 127
2, 332256, Note_on_c, 0, 75, 0
2, 332257, Note_on_c, 0, 72, 81
2, 332258, Control_c, 0, 64, 111
2, 332259, Note_on_c, 0, 58, 67
2, 332273, Note_on_c, 0, 63, 74
2, 332277, Control_c, 0, 64, 86
2, 332293, Note_on_c, 0, 60, 0
2, 332296, Control_c, 0, 64, 60
2, 332317, Control_c, 0, 64, 33
2, 332336, Control_c, 0, 64, 25
2, 332446, Note_on_c, 0, 58, 0
2, 332460, Note_on_c, 0, 57, 72
2, 332471, Note_on_c, 0, 63, 0
2, 332690, Note_on_c, 0, 61, 76
2, 332692, Note_on_c, 0, 58, 72
2, 332723, Note_on_c, 0, 57, 0
2, 332729, Control_c, 0, 64, 33
2, 332747, Control_c, 0, 64, 46
2, 332766, Control_c, 0, 64, 56
2, 332786, Control_c, 0, 64, 58
2, 332859, Note_on_c, 0, 72, 0
2, 332863, Note_on_c, 0, 78, 0
2, 332884, Note_on_c, 0, 65, 74
2, 332898, Note_on_c, 0, 69, 72
2, 332903, Note_on_c, 0, 61, 0
2, 332975, Control_c, 0, 64, 52
2, 332993, Control_c, 0, 64, 45
2, 333012, Control_c, 0, 64, 39
2, 333031, Control_c, 0, 64, 34
2, 333051, Control_c, 0, 64, 24
2, 333070, Control_c, 0, 64, 9
2, 333089, Control_c, 0, 64, 0
2, 333096, Note_on_c, 0, 77, 85
2, 333098, Note_on_c, 0, 65, 0
2, 333106, Note_on_c, 0, 63, 75
2, 333111, Note_on_c, 0, 70, 72
2, 333114, Note_on_c, 0, 69, 0
2, 333202, Control_c, 0, 64, 9
2, 333221, Control_c, 0, 64, 15
2, 333275, Note_on_c, 0, 63, 0
2, 333291, Note_on_c, 0, 61, 76
2, 333300, Note_on_c, 0, 77, 0
2, 333499, Note_on_c, 0, 61, 0
2, 333528, Note_on_c, 0, 60, 73
2, 333534, Note_on_c, 0, 75, 81
2, 333550, Note_on_c, 0, 58, 0
2, 333602, Note_on_c, 0, 70, 0
2, 333736, Note_on_c, 0, 78, 76
2, 333739, Note_on_c, 0, 60, 0
2, 333741, Note_on_c, 0, 63, 74
2, 333782, Note_on_c, 0, 75, 0
2, 333935, Note_on_c, 0, 53, 76
2, 333943, Note_on_c, 0, 77, 73
2, 333944, Note_on_c, 0, 69, 76
2, 333945, Note_on_c, 0, 61, 72
2, 333948, Note_on_c, 0, 63, 0
2, 334050, Note_on_c, 0, 69, 0
2, 334116, Note_on_c, 0, 78, 0
2, 334133, Note_on_c, 0, 75, 80
2, 334135, Note_on_c, 0, 61, 0
2, 334136, Note_on_c, 0, 60, 78
2, 334176, Note_on_c, 0, 53, 0
2, 334177, Note_on_c, 0, 77, 0
2, 334182, Control_c, 0, 64, 19
2, 334295, Control_c, 0, 64, 8
2, 334315, Control_c, 0, 64, 0
2, 334340, Note_on_c, 0, 54, 66
2, 334346, Note_on_c, 0, 58, 69
2, 334348, Note_on_c, 0, 73, 80
2, 334357, Note_on_c, 0, 70, 79
2, 334358, Note_on_c, 0, 60, 0
2, 334398, Note_on_c, 0, 75, 0
2, 334410, Control_c, 0, 64, 11
2, 334443, Control_c, 0, 64, 24
2, 334460, Control_c, 0, 64, 40
2, 334480, Control_c, 0, 64, 55
2, 334499, Control_c, 0, 64, 61
2, 334563, Note_on_c, 0, 77, 78
2, 334564, Note_on_c, 0, 61, 74
2, 334569, Note_on_c, 0, 58, 0
2, 334576, Control_c, 0, 64, 62
2, 334612, Control_c, 0, 64, 64
2, 334617, Note_on_c, 0, 70, 0
2, 334651, Control_c, 0, 64, 65
2, 334659, Note_on_c, 0, 73, 0
2, 334671, Control_c, 0, 64, 63
2, 334687, Control_c, 0, 64, 59
2, 334706, Control_c, 0, 64, 52
2, 334726, Control_c, 0, 64, 46
2, 334741, Note_on_c, 0, 60, 74
2, 334743, Control_c, 0, 64, 41
2, 334747, Note_on_c, 0, 61, 0
2, 334756, Note_on_c, 0, 75, 77
2, 334784, Control_c, 0, 64, 36
2, 334812, Note_on_c, 0, 77, 0
2, 334839, Control_c, 0, 64, 42
2, 334858, Control_c, 0, 64, 48
2, 334877, Control_c, 0, 64, 52
2, 334896, Control_c, 0, 64, 55
2, 334916, Control_c, 0, 64, 58
2, 334933, Note_on_c, 0, 60, 0
2, 334947, Note_on_c, 0, 58, 71
2, 334951, Control_c, 0, 64, 60
2, 334957, Note_on_c, 0, 73, 77
2, 334991, Control_c, 0, 64, 61
2, 335009, Control_c, 0, 64, 62
2, 335028, Control_c, 0, 64, 64
2, 335041, Note_on_c, 0, 75, 0
2, 335047, Control_c, 0, 64, 65
2, 335085, Control_c, 0, 64, 64
2, 335103, Control_c, 0, 64, 62
2, 335123, Control_c, 0, 64, 60
2, 335156, Note_on_c, 0, 72, 77
2, 335158, Note_on_c, 0, 57, 72
2, 335161, Control_c, 0, 64, 55
2, 335178, Note_on_c, 0, 73, 0
2, 335179, Control_c, 0, 64, 53
2, 335195, Note_on_c, 0, 58, 0
2, 335345, Note_on_c, 0, 75, 78
2, 335351, Note_on_c, 0, 60, 73
2, 335370, Control_c, 0, 64, 51
2, 335374, Note_on_c, 0, 57, 0
2, 335383, Note_on_c, 0, 72, 0
2, 335420, Control_c, 0, 64, 53
2, 335441, Control_c, 0, 64, 56
2, 335518, Control_c, 0, 64, 54
2, 335548, Control_c, 0, 64, 50
2, 335548, Note_on_c, 0, 53, 63
2, 335548, Note_on_c, 0, 58, 68
2, 335562, Control_c, 0, 64, 46
2, 335562, Note_on_c, 0, 73, 76
2, 335581, Control_c, 0, 64, 44
2, 335592, Note_on_c, 0, 54, 0
2, 335600, Note_on_c, 0, 60, 0
2, 335659, Control_c, 0, 64, 42
2, 335668, Note_on_c, 0, 75, 0
2, 335677, Control_c, 0, 64, 40
2, 335754, Control_c, 0, 64, 36
2, 335754, Note_on_c, 0, 72, 78
2, 335757, Note_on_c, 0, 51, 80
2, 335767, Note_on_c, 0, 73, 0
2, 335785, Note_on_c, 0, 53, 0
2, 335792, Control_c, 0, 64, 31
2, 335974, Note_on_c, 0, 53, 72
2, 335978, Note_on_c, 0, 70, 74
2, 335992, Note_on_c, 0, 51, 0
2, 336017, Note_on_c, 0, 72, 0
2, 336130, Control_c, 0, 64, 27
2, 336151, Note_on_c, 0, 73, 73
2, 336177, Note_on_c, 0, 58, 0
2, 336204, Note_on_c, 0, 70, 0
2, 336320, Control_c, 0, 64, 16
2, 336339, Control_c, 0, 64, 0
2, 336403, Note_on_c, 0, 72, 78
2, 336410, Note_on_c, 0, 57, 81
2, 336472, Note_on_c, 0, 73, 0
2, 336507, Control_c, 0, 64, 20
2, 336524, Control_c, 0, 64, 43
2, 336544, Control_c, 0, 64, 64
2, 336563, Control_c, 0, 64, 80
2, 336574, Note_on_c, 0, 72, 0
2, 336582, Control_c, 0, 64, 96
2, 336600, Control_c, 0, 64, 109
2, 336618, Control_c, 0, 64, 116
2, 336637, Control_c, 0, 64, 120
2, 336675, Control_c, 0, 64, 125
2, 336865, Note_on_c, 0, 63, 86
2, 336902, Control_c, 0, 64, 115
2, 336922, Control_c, 0, 64, 100
2, 336929, Note_on_c, 0, 57, 0
2, 336940, Control_c, 0, 64, 82
2, 336959, Control_c, 0, 64, 61
2, 336980, Control_c, 0, 64, 40
2, 336996, Control_c, 0, 64, 28
2, 337279, Note_on_c, 0, 70, 82
2, 337283, Note_on_c, 0, 61, 68
2, 337298, Note_on_c, 0, 63, 0
2, 337474, Note_on_c, 0, 60, 76
2, 337491, Note_on_c, 0, 61, 0
2, 337732, Note_on_c, 0, 77, 77
2, 337750, Note_on_c, 0, 61, 72
2, 337777, Note_on_c, 0, 60, 0
2, 337851, Note_on_c, 0, 70, 0
2, 337876, Note_on_c, 0, 53, 0
2, 338168, Note_on_c, 0, 53, 64
2, 338174, Note_on_c, 0, 75, 67
2, 338244, Note_on_c, 0, 77, 0
2, 338363, Note_on_c, 0, 73, 72
2, 338408, Note_on_c, 0, 75, 0
2, 338597, Note_on_c, 0, 75, 72
2, 338606, Note_on_c, 0, 54, 67
2, 338646, Note_on_c, 0, 53, 0
2, 338783, Note_on_c, 0, 73, 0
2, 339037, Note_on_c, 0, 55, 67
2, 339052, Note_on_c, 0, 60, 69
2, 339092, Note_on_c, 0, 54, 0
2, 339092, Note_on_c, 0, 61, 0
2, 339248, Note_on_c, 0, 58, 74
2, 339269, Note_on_c, 0, 60, 0
2, 339492, Note_on_c, 0, 60, 73
2, 339497, Note_on_c, 0, 56, 76
2, 339538, Note_on_c, 0, 55, 0
2, 339541, Note_on_c, 0, 58, 0
2, 339897, Note_on_c, 0, 60, 0
2, 339900, Note_on_c, 0, 73, 79
2, 339902, Note_on_c, 0, 65, 68
2, 339906, Note_on_c, 0, 57, 74
2, 340046, Note_on_c, 0, 56, 0
2, 340072, Note_on_c, 0, 75, 0
2, 340092, Note_on_c, 0, 72, 81
2, 340131, Note_on_c, 0, 73, 0
2, 340326, Control_c, 0, 64, 24
2, 340338, Note_on_c, 0, 73, 81
2, 340342, Note_on_c, 0, 58, 70
2, 340355, Note_on_c, 0, 57, 0
2, 340376, Note_on_c, 0, 72, 0
2, 340436, Control_c, 0, 64, 40
2, 340457, Control_c, 0, 64, 58
2, 340475, Control_c, 0, 64, 69
2, 340494, Control_c, 0, 64, 76
2, 340511, Control_c, 0, 64, 82
2, 340528, Note_on_c, 0, 75, 83
2, 340532, Control_c, 0, 64, 87
2, 340543, Note_on_c, 0, 73, 0
2, 340550, Control_c, 0, 64, 94
2, 340559, Note_on_c, 0, 65, 0
2, 340568, Control_c, 0, 64, 101
2, 340591, Control_c, 0, 64, 107
2, 340613, Control_c, 0, 64, 111
2, 340630, Control_c, 0, 64, 116
2, 340649, Control_c, 0, 64, 121
2, 340705, Control_c, 0, 64, 117
2, 340722, Control_c, 0, 64, 107
2, 340727, Note_on_c, 0, 46, 73
2, 340742, Control_c, 0, 64, 94
2, 340742, Note_on_c, 0, 73, 80
2, 340743, Note_on_c, 0, 64, 77
2, 340763, Control_c, 0, 64, 79
2, 340781, Control_c, 0, 64, 62
2, 340801, Control_c, 0, 64, 48
2, 340821, Control_c, 0, 64, 45
2, 340839, Note_on_c, 0, 75, 0
2, 340877, Control_c, 0, 64, 43
2, 340895, Control_c, 0, 64, 40
2, 340915, Note_on_c, 0, 48, 71
2, 340917, Note_on_c, 0, 72, 81
2, 340929, Note_on_c, 0, 58, 0
2, 340934, Note_on_c, 0, 64, 0
2, 340961, Note_on_c, 0, 73, 0
2, 340989, Note_on_c, 0, 46, 0
2, 341085, Control_c, 0, 64, 33
2, 341104, Control_c, 0, 64, 25
2, 341123, Control_c, 0, 64, 12
2, 341144, Control_c, 0, 64, 0
2, 341171, Note_on_c, 0, 49, 77
2, 341172, Note_on_c, 0, 70, 84
2, 341176, Note_on_c, 0, 65, 79
2, 341217, Note_on_c, 0, 72, 0
2, 341218, Note_on_c, 0, 48, 0
2, 341251, Control_c, 0, 64, 25
2, 341271, Control_c, 0, 64, 53
2, 341275, Note_on_c, 0, 65, 0
2, 341290, Control_c, 0, 64, 76
2, 341309, Control_c, 0, 64, 100
2, 341319, Note_on_c, 0, 70, 0
2, 341324, Control_c, 0, 64, 127
2, 341607, Note_on_c, 0, 82, 86
2, 341609, Control_c, 0, 64, 122
2, 341619, Note_on_c, 0, 50, 60
2, 341629, Control_c, 0, 64, 102
2, 341629, Note_on_c, 0, 56, 72
2, 341647, Control_c, 0, 64, 78
2, 341665, Control_c, 0, 64, 50
2, 341685, Control_c, 0, 64, 24
2, 341705, Control_c, 0, 64, 18
2, 341721, Note_on_c, 0, 49, 0
2, 341740, Control_c, 0, 64, 24
2, 341760, Control_c, 0, 64, 48
2, 341780, Control_c, 0, 64, 68
2, 341799, Control_c, 0, 64, 80
2, 341804, Note_on_c, 0, 56, 0
2, 341818, Control_c, 0, 64, 88
2, 341837, Control_c, 0, 64, 94
2, 341857, Control_c, 0, 64, 100
2, 341874, Control_c, 0, 64, 107
2, 341892, Control_c, 0, 64, 114
2, 341911, Control_c, 0, 64, 119
2, 341932, Control_c, 0, 64, 124
2, 342037, Note_on_c, 0, 55, 80
2, 342041, Note_on_c, 0, 51, 69
2, 342070, Note_on_c, 0, 50, 0
2, 342083, Control_c, 0, 64, 114
2, 342102, Control_c, 0, 64, 99
2, 342135, Control_c, 0, 64, 81
2, 342154, Control_c, 0, 64, 63
2, 342174, Control_c, 0, 64, 48
2, 342191, Control_c, 0, 64, 43
2, 342221, Note_on_c, 0, 55, 0
2, 342230, Note_on_c, 0, 56, 73
2, 342267, Control_c, 0, 64, 41
2, 342400, Control_c, 0, 64, 37
2, 342418, Control_c, 0, 64, 32
2, 342436, Control_c, 0, 64, 22
2, 342455, Control_c, 0, 64, 10
2, 342462, Note_on_c, 0, 52, 76
2, 342463, Note_on_c, 0, 80, 86
2, 342465, Note_on_c, 0, 51, 0
2, 342466, Note_on_c, 0, 58, 72
2, 342488, Note_on_c, 0, 56, 0
2, 342491, Control_c, 0, 64, 0
2, 342581, Note_on_c, 0, 82, 0
2, 342589, Control_c, 0, 64, 27
2, 342607, Control_c, 0, 64, 52
2, 342625, Control_c, 0, 64, 70
2, 342645, Control_c, 0, 64, 84
2, 342656, Note_on_c, 0, 79, 86
2, 342656, Note_on_c, 0, 80, 0
2, 342665, Control_c, 0, 64, 99
2, 342681, Control_c, 0, 64, 109
2, 342701, Control_c, 0, 64, 115
2, 342707, Note_on_c, 0, 79, 0
2, 342721, Control_c, 0, 64, 119
2, 342758, Control_c, 0, 64, 127
2, 342906, Note_on_c, 0, 72, 93
2, 342909, Control_c, 0, 64, 115
2, 342916, Note_on_c, 0, 58, 0
2, 342917, Note_on_c, 0, 53, 68
2, 342925, Note_on_c, 0, 56, 69
2, 342928, Control_c, 0, 64, 95
2, 342938, Note_on_c, 0, 80, 65
2, 342946, Note_on_c, 0, 52, 0
2, 342947, Control_c, 0, 64, 71
2, 342967, Control_c, 0, 64, 44
2, 342977, Note_on_c, 0, 81, 44
2, 342986, Control_c, 0, 64, 20
2, 343004, Control_c, 0, 64, 13
2, 343008, Note_on_c, 0, 80, 0
2, 343009, Note_on_c, 0, 80, 29
2, 343023, Control_c, 0, 64, 8
2, 343042, Control_c, 0, 64, 0
2, 343134, Control_c, 0, 64, 10
2, 343146, Note_on_c, 0, 58, 73
2, 343151, Note_on_c, 0, 56, 0
2, 343152, Control_c, 0, 64, 43
2, 343170, Control_c, 0, 64, 68
2, 343190, Control_c, 0, 64, 85
2, 343209, Control_c, 0, 64, 100
2, 343210, Note_on_c, 0, 81, 0
2, 343211, Note_on_c, 0, 78, 22
2, 343228, Control_c, 0, 64, 109
2, 343284, Control_c, 0, 64, 99
2, 343303, Control_c, 0, 64, 83
2, 343320, Control_c, 0, 64, 65
2, 343332, Note_on_c, 0, 56, 70
2, 343340, Control_c, 0, 64, 48
2, 343340, Note_on_c, 0, 58, 0
2, 343342, Note_on_c, 0, 51, 80
2, 343352, Note_on_c, 0, 53, 0
2, 343358, Control_c, 0, 64, 45
2, 343379, Control_c, 0, 64, 51
2, 343395, Control_c, 0, 64, 67
2, 343410, Note_on_c, 0, 72, 0
2, 343415, Control_c, 0, 64, 82
2, 343434, Control_c, 0, 64, 99
2, 343452, Control_c, 0, 64, 112
2, 343472, Control_c, 0, 64, 119
2, 343480, Note_on_c, 0, 78, 0
2, 343510, Control_c, 0, 64, 123
2, 343516, Note_on_c, 0, 56, 0
2, 343525, Note_on_c, 0, 55, 81
2, 343548, Note_on_c, 0, 51, 0
2, 343572, Note_on_c, 0, 55, 0
2, 343623, Control_c, 0, 64, 127
2, 343765, Note_on_c, 0, 80, 0
2, 343774, Note_on_c, 0, 49, 85
2, 343785, Note_on_c, 0, 70, 78
2, 343789, Note_on_c, 0, 53, 68
2, 343793, Control_c, 0, 64, 117
2, 343811, Control_c, 0, 64, 100
2, 343832, Control_c, 0, 64, 80
2, 343847, Note_on_c, 0, 53, 0
2, 343849, Control_c, 0, 64, 58
2, 343870, Control_c, 0, 64, 34
2, 343888, Control_c, 0, 64, 22
2, 343927, Control_c, 0, 64, 15
2, 343946, Control_c, 0, 64, 8
2, 343964, Control_c, 0, 64, 0
2, 343974, Note_on_c, 0, 52, 73
2, 344001, Control_c, 0, 64, 25
2, 344021, Control_c, 0, 64, 54
2, 344052, Control_c, 0, 64, 74
2, 344073, Control_c, 0, 64, 93
2, 344092, Control_c, 0, 64, 115
2, 344111, Control_c, 0, 64, 127
2, 344186, Control_c, 0, 64, 109
2, 344189, Note_on_c, 0, 53, 78
2, 344196, Note_on_c, 0, 79, 87
2, 344205, Control_c, 0, 64, 83
2, 344226, Control_c, 0, 64, 51
2, 344228, Note_on_c, 0, 52, 0
2, 344244, Control_c, 0, 64, 15
2, 344263, Control_c, 0, 64, 11
2, 344299, Control_c, 0, 64, 37
2, 344319, Control_c, 0, 64, 64
2, 344338, Control_c, 0, 64, 83
2, 344355, Control_c, 0, 64, 105
2, 344365, Note_on_c, 0, 49, 0
2, 344374, Control_c, 0, 64, 119
2, 344393, Control_c, 0, 64, 123
2, 344395, Note_on_c, 0, 55, 80
2, 344398, Note_on_c, 0, 53, 0
2, 344432, Control_c, 0, 64, 127
2, 344444, Note_on_c, 0, 55, 0
2, 344590, Note_on_c, 0, 48, 87
2, 344629, Note_on_c, 0, 79, 0
2, 344637, Note_on_c, 0, 70, 0
2, 344639, Control_c, 0, 64, 120
2, 344659, Control_c, 0, 64, 111
2, 344676, Control_c, 0, 64, 98
2, 344682, Note_on_c, 0, 55, 28
2, 344696, Control_c, 0, 64, 84
2, 344716, Control_c, 0, 64, 71
2, 344735, Control_c, 0, 64, 57
2, 344753, Control_c, 0, 64, 45
2, 344771, Control_c, 0, 64, 36
2, 344772, Note_on_c, 0, 55, 0
2, 344791, Control_c, 0, 64, 32
2, 344803, Note_on_c, 0, 55, 31
2, 344997, Note_on_c, 0, 55, 0
2, 345015, Note_on_c, 0, 56, 76
2, 345017, Note_on_c, 0, 77, 89
2, 345019, Note_on_c, 0, 68, 84
2, 345219, Note_on_c, 0, 58, 82
2, 345244, Note_on_c, 0, 68, 0
2, 345255, Note_on_c, 0, 77, 0
2, 345262, Note_on_c, 0, 56, 0
2, 345406, Control_c, 0, 64, 28
2, 345424, Control_c, 0, 64, 23
2, 345444, Control_c, 0, 64, 11
2, 345461, Control_c, 0, 64, 0
2, 345468, Note_on_c, 0, 76, 81
2, 345478, Note_on_c, 0, 67, 77
2, 345482, Note_on_c, 0, 60, 85
2, 345490, Note_on_c, 0, 58, 0
2, 345539, Control_c, 0, 64, 31
2, 345557, Control_c, 0, 64, 55
2, 345576, Control_c, 0, 64, 72
2, 345595, Control_c, 0, 64, 84
2, 345600, Note_on_c, 0, 60, 0
2, 345614, Control_c, 0, 64, 94
2, 345636, Note_on_c, 0, 48, 0
2, 345727, Control_c, 0, 64, 99
2, 345766, Control_c, 0, 64, 103
2, 345804, Control_c, 0, 64, 99
2, 345824, Control_c, 0, 64, 88
2, 345843, Control_c, 0, 64, 71
2, 345861, Control_c, 0, 64, 49
2, 345879, Control_c, 0, 64, 22
2, 345892, Note_on_c, 0, 46, 89
2, 345896, Note_on_c, 0, 73, 80
2, 345897, Control_c, 0, 64, 0
2, 345919, Note_on_c, 0, 67, 0
2, 346046, Control_c, 0, 64, 45
2, 346066, Control_c, 0, 64, 69
2, 346085, Control_c, 0, 64, 85
2, 346103, Control_c, 0, 64, 100
2, 346114, Note_on_c, 0, 46, 0
2, 346120, Control_c, 0, 64, 104
2, 346311, Control_c, 0, 64, 91
2, 346329, Control_c, 0, 64, 73
2, 346349, Control_c, 0, 64, 50
2, 346367, Control_c, 0, 64, 20
2, 346374, Note_on_c, 0, 45, 92
2, 346380, Note_on_c, 0, 75, 81
2, 346385, Control_c, 0, 64, 0
2, 346391, Note_on_c, 0, 72, 70
2, 346409, Note_on_c, 0, 76, 0
2, 346426, Note_on_c, 0, 73, 0
2, 346498, Control_c, 0, 64, 16
2, 346517, Control_c, 0, 64, 48
2, 346535, Control_c, 0, 64, 68
2, 346555, Control_c, 0, 64, 81
2, 346573, Control_c, 0, 64, 96
2, 346594, Control_c, 0, 64, 107
2, 346612, Control_c, 0, 64, 114
2, 346632, Control_c, 0, 64, 119
2, 346651, Control_c, 0, 64, 125
2, 346762, Control_c, 0, 64, 120
2, 346780, Control_c, 0, 64, 99
2, 346801, Control_c, 0, 64, 68
2, 346811, Note_on_c, 0, 81, 81
2, 346818, Note_on_c, 0, 54, 80
2, 346819, Control_c, 0, 64, 21
2, 346827, Note_on_c, 0, 51, 80
2, 346838, Control_c, 0, 64, 0
2, 346843, Note_on_c, 0, 75, 0
2, 346891, Note_on_c, 0, 45, 0
2, 346930, Control_c, 0, 64, 44
2, 346947, Control_c, 0, 64, 70
2, 346968, Control_c, 0, 64, 87
2, 346986, Control_c, 0, 64, 104
2, 346994, Note_on_c, 0, 54, 0
2, 347001, Note_on_c, 0, 72, 0
2, 347002, Control_c, 0, 64, 110
2, 347042, Control_c, 0, 64, 114
2, 347045, Note_on_c, 0, 51, 0
2, 347080, Control_c, 0, 64, 119
2, 347100, Control_c, 0, 64, 126
2, 347213, Control_c, 0, 64, 112
2, 347232, Control_c, 0, 64, 86
2, 347240, Note_on_c, 0, 82, 86
2, 347241, Note_on_c, 0, 49, 74
2, 347244, Note_on_c, 0, 53, 80
2, 347249, Control_c, 0, 64, 54
2, 347269, Control_c, 0, 64, 0
2, 347337, Note_on_c, 0, 81, 0
2, 347383, Control_c, 0, 64, 24
2, 347402, Control_c, 0, 64, 59
2, 347410, Note_on_c, 0, 82, 0
2, 347419, Control_c, 0, 64, 76
2, 347440, Control_c, 0, 64, 89
2, 347458, Control_c, 0, 64, 99
2, 347477, Control_c, 0, 64, 106
2, 347495, Control_c, 0, 64, 113
2, 347514, Control_c, 0, 64, 117
2, 347533, Control_c, 0, 64, 122
2, 347554, Control_c, 0, 64, 127
2, 347628, Control_c, 0, 64, 122
2, 347646, Control_c, 0, 64, 104
2, 347662, Note_on_c, 0, 70, 87
2, 347666, Control_c, 0, 64, 75
2, 347672, Note_on_c, 0, 76, 81
2, 347685, Note_on_c, 0, 55, 78
2, 347686, Control_c, 0, 64, 35
2, 347703, Control_c, 0, 64, 0
2, 347726, Note_on_c, 0, 53, 0
2, 347739, Note_on_c, 0, 49, 0
2, 347817, Control_c, 0, 64, 36
2, 347837, Control_c, 0, 64, 67
2, 347848, Note_on_c, 0, 76, 0
2, 347855, Control_c, 0, 64, 85
2, 347855, Note_on_c, 0, 70, 0
2, 347888, Control_c, 0, 64, 99
2, 347907, Control_c, 0, 64, 104
2, 348097, Control_c, 0, 64, 100
2, 348108, Note_on_c, 0, 68, 80
2, 348114, Note_on_c, 0, 77, 82
2, 348115, Control_c, 0, 64, 89
2, 348128, Note_on_c, 0, 56, 76
2, 348134, Control_c, 0, 64, 73
2, 348143, Note_on_c, 0, 55, 0
2, 348154, Control_c, 0, 64, 54
2, 348172, Control_c, 0, 64, 35
2, 348192, Control_c, 0, 64, 24
2, 348247, Control_c, 0, 64, 20
2, 348286, Control_c, 0, 64, 14
2, 348297, Note_on_c, 0, 58, 81
2, 348301, Note_on_c, 0, 72, 75
2, 348306, Note_on_c, 0, 56, 0
2, 348338, Note_on_c, 0, 68, 0
2, 348398, Control_c, 0, 64, 9
2, 348435, Control_c, 0, 64, 0
2, 348517, Note_on_c, 0, 48, 81
2, 348522, Note_on_c, 0, 58, 0
2, 348523, Note_on_c, 0, 70, 79
2, 348524, Note_on_c, 0, 60, 72
2, 348599, Note_on_c, 0, 60, 0
2, 348599, Note_on_c, 0, 77, 0
2, 348605, Note_on_c, 0, 72, 0
2, 348606, Control_c, 0, 64, 42
2, 348624, Control_c, 0, 64, 62
2, 348645, Control_c, 0, 64, 72
2, 348663, Control_c, 0, 64, 80
2, 348681, Control_c, 0, 64, 88
2, 348695, Note_on_c, 0, 48, 0
2, 348699, Control_c, 0, 64, 92
2, 348700, Note_on_c, 0, 68, 78
2, 348720, Note_on_c, 0, 70, 0
2, 348788, Note_on_c, 0, 68, 0
2, 348796, Control_c, 0, 64, 97
2, 348847, Control_c, 0, 64, 102
2, 348904, Control_c, 0, 64, 92
2, 348924, Control_c, 0, 64, 80
2, 348936, Note_on_c, 0, 76, 78
2, 348942, Control_c, 0, 64, 64
2, 348947, Note_on_c, 0, 46, 77
2, 348954, Note_on_c, 0, 67, 71
2, 348963, Control_c, 0, 64, 46
2, 348979, Control_c, 0, 64, 29
2, 349000, Control_c, 0, 64, 21
2, 349131, Note_on_c, 0, 49, 67
2, 349141, Note_on_c, 0, 70, 78
2, 349166, Note_on_c, 0, 46, 0
2, 349178, Note_on_c, 0, 67, 0
2, 349339, Control_c, 0, 64, 16
2, 349339, Note_on_c, 0, 48, 77
2, 349339, Note_on_c, 0, 49, 0
2, 349339, Note_on_c, 0, 68, 83
2, 349374, Control_c, 0, 64, 10
2, 349392, Control_c, 0, 64, 0
2, 349506, Control_c, 0, 64, 30
2, 349524, Control_c, 0, 64, 55
2, 349527, Note_on_c, 0, 46, 76
2, 349531, Note_on_c, 0, 67, 78
2, 349542, Control_c, 0, 64, 71
2, 349549, Note_on_c, 0, 48, 0
2, 349558, Note_on_c, 0, 68, 0
2, 349560, Control_c, 0, 64, 81
2, 349564, Note_on_c, 0, 76, 0
2, 349575, Note_on_c, 0, 70, 0
2, 349579, Control_c, 0, 64, 92
2, 349600, Control_c, 0, 64, 103
2, 349610, Note_on_c, 0, 67, 0
2, 349618, Control_c, 0, 64, 113
2, 349638, Control_c, 0, 64, 120
2, 349657, Control_c, 0, 64, 126
2, 349732, Control_c, 0, 64, 116
2, 349751, Control_c, 0, 64, 102
2, 349759, Note_on_c, 0, 77, 83
2, 349762, Note_on_c, 0, 44, 74
2, 349768, Note_on_c, 0, 65, 86
2, 349769, Control_c, 0, 64, 82
2, 349802, Control_c, 0, 64, 59
2, 349802, Note_on_c, 0, 46, 0
2, 349822, Control_c, 0, 64, 32
2, 349842, Control_c, 0, 64, 19
2, 349898, Control_c, 0, 64, 14
2, 349916, Control_c, 0, 64, 0
2, 349966, Note_on_c, 0, 68, 76
2, 349973, Note_on_c, 0, 48, 71
2, 349976, Note_on_c, 0, 65, 0
2, 349993, Control_c, 0, 64, 14
2, 350012, Control_c, 0, 64, 41
2, 350021, Note_on_c, 0, 44, 0
2, 350030, Control_c, 0, 64, 62
2, 350048, Control_c, 0, 64, 75
2, 350069, Control_c, 0, 64, 87
2, 350086, Control_c, 0, 64, 92
2, 350106, Control_c, 0, 64, 87
2, 350124, Control_c, 0, 64, 75
2, 350143, Control_c, 0, 64, 59
2, 350162, Control_c, 0, 64, 46
2, 350173, Note_on_c, 0, 46, 75
2, 350180, Note_on_c, 0, 77, 0
2, 350187, Note_on_c, 0, 67, 80
2, 350193, Note_on_c, 0, 68, 0
2, 350200, Note_on_c, 0, 48, 0
2, 350201, Control_c, 0, 64, 62
2, 350219, Control_c, 0, 64, 77
2, 350239, Control_c, 0, 64, 91
2, 350258, Control_c, 0, 64, 100
2, 350364, Note_on_c, 0, 67, 0
2, 350368, Note_on_c, 0, 44, 72
2, 350368, Note_on_c, 0, 65, 79
2, 350419, Note_on_c, 0, 46, 0
2, 350520, Control_c, 0, 64, 94
2, 350539, Control_c, 0, 64, 80
2, 350559, Control_c, 0, 64, 58
2, 350576, Note_on_c, 0, 43, 76
2, 350579, Control_c, 0, 64, 22
2, 350580, Note_on_c, 0, 70, 81
2, 350582, Note_on_c, 0, 44, 0
2, 350587, Note_on_c, 0, 64, 80
2, 350593, Control_c, 0, 64, 0
2, 350635, Note_on_c, 0, 65, 0
2, 350709, Control_c, 0, 64, 27
2, 350729, Control_c, 0, 64, 50
2, 350760, Control_c, 0, 64, 63
2, 350781, Control_c, 0, 64, 67
2, 350786, Note_on_c, 0, 64, 0
2, 350790, Note_on_c, 0, 67, 77
2, 350800, Control_c, 0, 64, 70
2, 350801, Note_on_c, 0, 46, 76
2, 350803, Note_on_c, 0, 70, 0
2, 350805, Note_on_c, 0, 43, 0
2, 350819, Control_c, 0, 64, 75
2, 350836, Control_c, 0, 64, 85
2, 350856, Control_c, 0, 64, 98
2, 350875, Control_c, 0, 64, 110
2, 350950, Control_c, 0, 64, 99
2, 350971, Control_c, 0, 64, 80
2, 350988, Control_c, 0, 64, 52
2, 350998, Note_on_c, 0, 65, 76
2, 350999, Note_on_c, 0, 72, 80
2, 351000, Note_on_c, 0, 60, 79
2, 351001, Note_on_c, 0, 44, 74
2, 351005, Note_on_c, 0, 67, 0
2, 351007, Control_c, 0, 64, 0
2, 351053, Note_on_c, 0, 46, 0
2, 351083, Control_c, 0, 64, 19
2, 351100, Control_c, 0, 64, 45
2, 351114, Note_on_c, 0, 60, 0
2, 351120, Control_c, 0, 64, 64
2, 351137, Note_on_c, 0, 72, 0
2, 351139, Control_c, 0, 64, 73
2, 351158, Control_c, 0, 64, 77
2, 351177, Control_c, 0, 64, 79
2, 351182, Note_on_c, 0, 43, 73
2, 351196, Control_c, 0, 64, 82
2, 351197, Note_on_c, 0, 70, 74
2, 351217, Control_c, 0, 64, 89
2, 351217, Note_on_c, 0, 44, 0
2, 351233, Control_c, 0, 64, 99
2, 351253, Control_c, 0, 64, 108
2, 351347, Control_c, 0, 64, 101
2, 351367, Control_c, 0, 64, 86
2, 351385, Control_c, 0, 64, 63
2, 351404, Control_c, 0, 64, 29
2, 351412, Note_on_c, 0, 61, 79
2, 351412, Note_on_c, 0, 68, 81
2, 351415, Note_on_c, 0, 65, 0
2, 351423, Control_c, 0, 64, 0
2, 351429, Note_on_c, 0, 41, 73
2, 351446, Note_on_c, 0, 43, 0
2, 351483, Note_on_c, 0, 70, 0
2, 351536, Control_c, 0, 64, 39
2, 351554, Control_c, 0, 64, 66
2, 351573, Control_c, 0, 64, 81
2, 351576, Note_on_c, 0, 61, 0
2, 351582, Note_on_c, 0, 68, 0
2, 351593, Control_c, 0, 64, 94
2, 351609, Note_on_c, 0, 44, 77
2, 351612, Control_c, 0, 64, 103
2, 351629, Control_c, 0, 64, 107
2, 351629, Note_on_c, 0, 41, 0
2, 351650, Control_c, 0, 64, 111
2, 351688, Control_c, 0, 64, 119
2, 351720, Control_c, 0, 64, 126
2, 351835, Note_on_c, 0, 70, 79
2, 351838, Note_on_c, 0, 64, 73
2, 351839, Note_on_c, 0, 43, 80
2, 351844, Note_on_c, 0, 58, 72
2, 351889, Note_on_c, 0, 44, 0
2, 351892, Control_c, 0, 64, 109
2, 351910, Control_c, 0, 64, 91
2, 351930, Control_c, 0, 64, 67
2, 351949, Control_c, 0, 64, 41
2, 351967, Control_c, 0, 64, 27
2, 351977, Note_on_c, 0, 43, 0
2, 352033, Note_on_c, 0, 68, 78
2, 352104, Note_on_c, 0, 70, 0
2, 352279, Note_on_c, 0, 67, 70
2, 352284, Note_on_c, 0, 52, 77
2, 352285, Note_on_c, 0, 70, 71
2, 352321, Note_on_c, 0, 68, 0
2, 352327, Note_on_c, 0, 64, 0
2, 352496, Control_c, 0, 64, 23
2, 352734, Note_on_c, 0, 41, 79
2, 352734, Note_on_c, 0, 68, 73
2, 352744, Note_on_c, 0, 67, 0
2, 352753, Note_on_c, 0, 53, 53
2, 352765, Note_on_c, 0, 52, 0
2, 352828, Note_on_c, 0, 70, 0
2, 352852, Control_c, 0, 64, 19
2, 352915, Note_on_c, 0, 67, 77
2, 352960, Note_on_c, 0, 68, 0
2, 353146, Note_on_c, 0, 48, 78
2, 353155, Note_on_c, 0, 68, 78
2, 353216, Note_on_c, 0, 67, 0
2, 353233, Note_on_c, 0, 58, 0
2, 353260, Note_on_c, 0, 41, 0
2, 353347, Note_on_c, 0, 65, 79
2, 353388, Note_on_c, 0, 68, 0
2, 353548, Note_on_c, 0, 67, 78
2, 353549, Note_on_c, 0, 46, 81
2, 353559, Note_on_c, 0, 61, 77
2, 353590, Note_on_c, 0, 53, 0
2, 353612, Note_on_c, 0, 48, 0
2, 353634, Note_on_c, 0, 65, 0
2, 353738, Note_on_c, 0, 44, 75
2, 353746, Note_on_c, 0, 46, 0
2, 353989, Note_on_c, 0, 73, 80
2, 353996, Note_on_c, 0, 52, 67
2, 353999, Note_on_c, 0, 46, 73
2, 354021, Note_on_c, 0, 44, 0
2, 354026, Note_on_c, 0, 61, 0
2, 354031, Note_on_c, 0, 67, 0
2, 354417, Note_on_c, 0, 72, 70
2, 354433, Note_on_c, 0, 67, 65
2, 354439, Note_on_c, 0, 43, 70
2, 354490, Note_on_c, 0, 46, 0
2, 354491, Note_on_c, 0, 73, 0
2, 354632, Note_on_c, 0, 70, 79
2, 354648, Note_on_c, 0, 72, 0
2, 354880, Note_on_c, 0, 72, 71
2, 354893, Note_on_c, 0, 44, 64
2, 354909, Note_on_c, 0, 70, 0
2, 354919, Note_on_c, 0, 67, 0
2, 354923, Note_on_c, 0, 52, 0
2, 354931, Note_on_c, 0, 43, 0
2, 355326, Note_on_c, 0, 65, 57
2, 355333, Note_on_c, 0, 50, 47
2, 355499, Note_on_c, 0, 65, 0
2, 355501, Note_on_c, 0, 50, 0
2, 355514, Note_on_c, 0, 64, 57
2, 355524, Note_on_c, 0, 48, 53
2, 355755, Note_on_c, 0, 64, 0
2, 355759, Note_on_c, 0, 68, 64
2, 355764, Note_on_c, 0, 53, 60
2, 355784, Control_c, 0, 64, 28
2, 355802, Control_c, 0, 64, 41
2, 355821, Control_c, 0, 64, 56
2, 355841, Control_c, 0, 64, 66
2, 355851, Note_on_c, 0, 44, 0
2, 355859, Control_c, 0, 64, 72
2, 355878, Control_c, 0, 64, 78
2, 355883, Note_on_c, 0, 48, 0
2, 355897, Control_c, 0, 64, 84
2, 355915, Control_c, 0, 64, 90
2, 355935, Control_c, 0, 64, 96
2, 355973, Control_c, 0, 64, 101
2, 356160, Control_c, 0, 64, 97
2, 356165, Note_on_c, 0, 43, 68
2, 356173, Note_on_c, 0, 70, 76
2, 356179, Control_c, 0, 64, 89
2, 356200, Control_c, 0, 64, 78
2, 356212, Note_on_c, 0, 68, 0
2, 356215, Note_on_c, 0, 72, 0
2, 356218, Control_c, 0, 64, 65
2, 356238, Control_c, 0, 64, 51
2, 356257, Control_c, 0, 64, 45
2, 356274, Control_c, 0, 64, 42
2, 356313, Control_c, 0, 64, 35
2, 356340, Note_on_c, 0, 41, 75
2, 356349, Control_c, 0, 64, 31
2, 356354, Note_on_c, 0, 68, 77
2, 356370, Note_on_c, 0, 43, 0
2, 356603, Note_on_c, 0, 46, 75
2, 356610, Note_on_c, 0, 73, 79
2, 356631, Note_on_c, 0, 53, 0
2, 356650, Note_on_c, 0, 68, 0
2, 356652, Note_on_c, 0, 41, 0
2, 356658, Note_on_c, 0, 70, 0
2, 356669, Control_c, 0, 64, 26
2, 357038, Note_on_c, 0, 67, 70
2, 357061, Note_on_c, 0, 51, 67
2, 357212, Note_on_c, 0, 49, 67
2, 357217, Note_on_c, 0, 65, 72
2, 357233, Note_on_c, 0, 51, 0
2, 357266, Note_on_c, 0, 67, 0
2, 357427, Control_c, 0, 64, 19
2, 357447, Control_c, 0, 64, 8
2, 357478, Control_c, 0, 64, 0
2, 357478, Note_on_c, 0, 55, 80
2, 357481, Note_on_c, 0, 70, 77
2, 357488, Note_on_c, 0, 49, 0
2, 357631, Control_c, 0, 64, 18
2, 357642, Note_on_c, 0, 65, 0
2, 357650, Control_c, 0, 64, 46
2, 357651, Note_on_c, 0, 73, 0
2, 357669, Control_c, 0, 64, 64
2, 357688, Control_c, 0, 64, 75
2, 357707, Control_c, 0, 64, 86
2, 357726, Control_c, 0, 64, 99
2, 357743, Control_c, 0, 64, 110
2, 357764, Control_c, 0, 64, 114
2, 357801, Control_c, 0, 64, 109
2, 357818, Control_c, 0, 64, 95
2, 357839, Control_c, 0, 64, 70
2, 357857, Control_c, 0, 64, 31
2, 357876, Control_c, 0, 64, 0
2, 357877, Note_on_c, 0, 72, 85
2, 357882, Note_on_c, 0, 44, 74
2, 357893, Note_on_c, 0, 70, 0
2, 357971, Note_on_c, 0, 46, 0
2, 358055, Note_on_c, 0, 43, 76
2, 358055, Note_on_c, 0, 70, 81
2, 358077, Note_on_c, 0, 72, 0
2, 358100, Note_on_c, 0, 44, 0
2, 358303, Note_on_c, 0, 48, 79
2, 358309, Note_on_c, 0, 75, 83
2, 358323, Note_on_c, 0, 55, 0
2, 358366, Note_on_c, 0, 43, 0
2, 358523, Note_on_c, 0, 70, 0
2, 358732, Note_on_c, 0, 68, 75
2, 358740, Note_on_c, 0, 53, 77
2, 358850, Note_on_c, 0, 67, 19
2, 358851, Note_on_c, 0, 67, 0
2, 358894, Note_on_c, 0, 53, 0
2, 358902, Note_on_c, 0, 51, 72
2, 358910, Note_on_c, 0, 68, 0
2, 358918, Note_on_c, 0, 67, 60
2, 359143, Note_on_c, 0, 56, 83
2, 359151, Note_on_c, 0, 72, 80
2, 359156, Note_on_c, 0, 51, 0
2, 359175, Note_on_c, 0, 67, 0
2, 359273, Control_c, 0, 64, 33
2, 359292, Control_c, 0, 64, 43
2, 359310, Control_c, 0, 64, 52
2, 359317, Note_on_c, 0, 75, 0
2, 359330, Control_c, 0, 64, 63
2, 359348, Control_c, 0, 64, 75
2, 359368, Control_c, 0, 64, 88
2, 359400, Control_c, 0, 64, 100
2, 359415, Control_c, 0, 64, 105
2, 359567, Note_on_c, 0, 73, 87
2, 359577, Note_on_c, 0, 46, 78
2, 359611, Note_on_c, 0, 48, 0
2, 359622, Control_c, 0, 64, 97
2, 359639, Control_c, 0, 64, 92
2, 359672, Note_on_c, 0, 72, 0
2, 359713, Control_c, 0, 64, 83
2, 359730, Control_c, 0, 64, 73
2, 359736, Note_on_c, 0, 44, 81
2, 359736, Note_on_c, 0, 72, 80
2, 359749, Note_on_c, 0, 73, 0
2, 359750, Control_c, 0, 64, 66
2, 359755, Note_on_c, 0, 46, 0
2, 359770, Control_c, 0, 64, 64
2, 359809, Control_c, 0, 64, 65
2, 359864, Control_c, 0, 64, 67
2, 359884, Control_c, 0, 64, 69
2, 359922, Control_c, 0, 64, 67
2, 359939, Control_c, 0, 64, 59
2, 359957, Control_c, 0, 64, 43
2, 359978, Control_c, 0, 64, 14
2, 359999, Control_c, 0, 64, 0
2, 360004, Note_on_c, 0, 49, 80
2, 360005, Note_on_c, 0, 77, 89
2, 360052, Note_on_c, 0, 75, 31
2, 360054, Note_on_c, 0, 44, 0
2, 360054, Note_on_c, 0, 56, 0
2, 360055, Note_on_c, 0, 72, 0
2, 360084, Note_on_c, 0, 75, 0
2, 360444, Note_on_c, 0, 70, 81
2, 360455, Note_on_c, 0, 55, 79
2, 360459, Note_on_c, 0, 77, 0
2, 360504, Control_c, 0, 64, 18
2, 360523, Control_c, 0, 64, 26
2, 360561, Control_c, 0, 64, 35
2, 360577, Note_on_c, 0, 55, 0
2, 360579, Control_c, 0, 64, 44
2, 360597, Control_c, 0, 64, 55
2, 360615, Control_c, 0, 64, 63
2, 360619, Note_on_c, 0, 53, 78
2, 360624, Note_on_c, 0, 68, 82
2, 360636, Control_c, 0, 64, 67
2, 360653, Note_on_c, 0, 70, 0
2, 360654, Control_c, 0, 64, 69
2, 360691, Control_c, 0, 64, 72
2, 360711, Control_c, 0, 64, 74
2, 360729, Control_c, 0, 64, 77
2, 360729, Note_on_c, 0, 53, 0
2, 360735, Note_on_c, 0, 68, 0
2, 360749, Control_c, 0, 64, 80
2, 360769, Control_c, 0, 64, 82
2, 360807, Control_c, 0, 64, 84
2, 360843, Control_c, 0, 64, 82
2, 360862, Control_c, 0, 64, 73
2, 360882, Control_c, 0, 64, 59
2, 360899, Control_c, 0, 64, 35
2, 360908, Note_on_c, 0, 75, 89
2, 360915, Note_on_c, 0, 67, 84
2, 360917, Control_c, 0, 64, 0
2, 360929, Note_on_c, 0, 58, 85
2, 361052, Control_c, 0, 64, 47
2, 361069, Control_c, 0, 64, 70
2, 361089, Control_c, 0, 64, 84
2, 361100, Note_on_c, 0, 58, 0
2, 361104, Note_on_c, 0, 49, 0
2, 361108, Control_c, 0, 64, 105
2, 361116, Note_on_c, 0, 67, 0
2, 361126, Control_c, 0, 64, 124
2, 361369, Control_c, 0, 64, 100
2, 361383, Note_on_c, 0, 68, 82
2, 361387, Note_on_c, 0, 60, 87
2, 361388, Note_on_c, 0, 48, 78
2, 361389, Control_c, 0, 64, 62
2, 361408, Control_c, 0, 64, 0
2, 361454, Note_on_c, 0, 60, 0
2, 361465, Control_c, 0, 64, 27
2, 361467, Note_on_c, 0, 48, 0
2, 361485, Control_c, 0, 64, 67
2, 361505, Control_c, 0, 64, 101
2, 361514, Note_on_c, 0, 68, 0
2, 361525, Control_c, 0, 64, 127
2, 361693, Note_on_c, 0, 75, 0
2, 361904, Note_on_c, 0, 55, 92
2, 361911, Note_on_c, 0, 70, 80
2, 361918, Note_on_c, 0, 73, 76
2, 361925, Control_c, 0, 64, 96
2, 361934, Note_on_c, 0, 46, 66
2, 361944, Control_c, 0, 64, 59
2, 361965, Control_c, 0, 64, 0
2, 362059, Control_c, 0, 64, 12
2, 362078, Control_c, 0, 64, 50
2, 362098, Control_c, 0, 64, 75
2, 362114, Control_c, 0, 64, 100
2, 362133, Control_c, 0, 64, 127
2, 362138, Note_on_c, 0, 55, 0
2, 362408, Note_on_c, 0, 51, 78
2, 362410, Note_on_c, 0, 58, 80
2, 362440, Note_on_c, 0, 58, 0
2, 362442, Note_on_c, 0, 46, 0
2, 362461, Note_on_c, 0, 51, 0
2, 362794, Note_on_c, 0, 70, 0
2, 362805, Note_on_c, 0, 73, 0
2, 362876, Note_on_c, 0, 56, 85
2, 362886, Note_on_c, 0, 60, 76
2, 362924, Control_c, 0, 64, 115
2, 362944, Control_c, 0, 64, 89
2, 362963, Control_c, 0, 64, 61
2, 362982, Control_c, 0, 64, 32
2, 362999, Control_c, 0, 64, 19
2, 363320, Note_on_c, 0, 50, 74
2, 363320, Note_on_c, 0, 72, 86
2, 363334, Note_on_c, 0, 68, 72
2, 363429, Control_c, 0, 64, 15
2, 363446, Note_on_c, 0, 60, 0
2, 363505, Note_on_c, 0, 50, 0
2, 363536, Note_on_c, 0, 72, 0
2, 363710, Control_c, 0, 64, 0
2, 363772, Note_on_c, 0, 70, 84
2, 363775, Note_on_c, 0, 51, 73
2, 363793, Note_on_c, 0, 56, 0
2, 363842, Control_c, 0, 64, 23
2, 363862, Control_c, 0, 64, 47
2, 363881, Control_c, 0, 64, 67
2, 363900, Control_c, 0, 64, 86
2, 363920, Control_c, 0, 64, 115
2, 363937, Control_c, 0, 64, 127
2, 363946, Note_on_c, 0, 51, 0
2, 364196, Note_on_c, 0, 77, 81
2, 364206, Note_on_c, 0, 58, 94
2, 364208, Note_on_c, 0, 67, 74
2, 364216, Control_c, 0, 64, 120
2, 364234, Control_c, 0, 64, 90
2, 364235, Note_on_c, 0, 49, 75
2, 364255, Control_c, 0, 64, 55
2, 364265, Note_on_c, 0, 68, 0
2, 364271, Control_c, 0, 64, 0
2, 364272, Note_on_c, 0, 70, 0
2, 364329, Control_c, 0, 64, 21
2, 364348, Control_c, 0, 64, 56
2, 364352, Note_on_c, 0, 67, 0
2, 364367, Control_c, 0, 64, 82
2, 364387, Control_c, 0, 64, 108
2, 364397, Note_on_c, 0, 58, 0
2, 364405, Control_c, 0, 64, 127
2, 364422, Note_on_c, 0, 49, 0
2, 364634, Control_c, 0, 64, 117
2, 364638, Note_on_c, 0, 60, 87
2, 364638, Note_on_c, 0, 75, 78
2, 364641, Note_on_c, 0, 68, 80
2, 364644, Note_on_c, 0, 48, 78
2, 364652, Control_c, 0, 64, 87
2, 364669, Control_c, 0, 64, 50
2, 364687, Control_c, 0, 64, 0
2, 364693, Note_on_c, 0, 77, 0
2, 364801, Control_c, 0, 64, 30
2, 364821, Control_c, 0, 64, 55
2, 364829, Note_on_c, 0, 60, 0
2, 364835, Note_on_c, 0, 51, 72
2, 364839, Control_c, 0, 64, 76
2, 364860, Control_c, 0, 64, 94
2, 364879, Control_c, 0, 64, 118
2, 364885, Note_on_c, 0, 48, 0
2, 364897, Control_c, 0, 64, 127
2, 365022, Note_on_c, 0, 68, 0
2, 365027, Control_c, 0, 64, 121
2, 365033, Note_on_c, 0, 53, 87
2, 365038, Note_on_c, 0, 49, 81
2, 365045, Control_c, 0, 64, 88
2, 365067, Control_c, 0, 64, 42
2, 365085, Control_c, 0, 64, 0
2, 365100, Note_on_c, 0, 51, 0
2, 365176, Control_c, 0, 64, 20
2, 365195, Control_c, 0, 64, 51
2, 365214, Control_c, 0, 64, 70
2, 365231, Control_c, 0, 64, 83
2, 365241, Note_on_c, 0, 49, 0
2, 365249, Control_c, 0, 64, 97
2, 365254, Note_on_c, 0, 48, 76
2, 365261, Note_on_c, 0, 53, 0
2, 365268, Control_c, 0, 64, 108
2, 365288, Control_c, 0, 64, 118
2, 365308, Control_c, 0, 64, 127
2, 365460, Control_c, 0, 64, 112
2, 365468, Note_on_c, 0, 70, 90
2, 365478, Control_c, 0, 64, 86
2, 365481, Note_on_c, 0, 55, 80
2, 365483, Note_on_c, 0, 46, 76
2, 365488, Note_on_c, 0, 48, 0
2, 365498, Control_c, 0, 64, 50
2, 365517, Control_c, 0, 64, 0
2, 365630, Control_c, 0, 64, 19
2, 365634, Note_on_c, 0, 75, 0
2, 365651, Control_c, 0, 64, 50
2, 365669, Control_c, 0, 64, 66
2, 365685, Note_on_c, 0, 49, 72
2, 365687, Control_c, 0, 64, 78
2, 365693, Note_on_c, 0, 46, 0
2, 365706, Control_c, 0, 64, 92
2, 365724, Control_c, 0, 64, 108
2, 365744, Control_c, 0, 64, 125
2, 365830, Note_on_c, 0, 55, 0
2, 365895, Control_c, 0, 64, 104
2, 365896, Note_on_c, 0, 48, 74
2, 365897, Note_on_c, 0, 73, 87
2, 365915, Control_c, 0, 64, 71
2, 365934, Control_c, 0, 64, 22
2, 365951, Control_c, 0, 64, 0
2, 366007, Control_c, 0, 64, 19
2, 366028, Control_c, 0, 64, 51
2, 366046, Control_c, 0, 64, 69
2, 366053, Note_on_c, 0, 49, 0
2, 366066, Control_c, 0, 64, 75
2, 366069, Note_on_c, 0, 70, 0
2, 366089, Note_on_c, 0, 73, 0
2, 366116, Note_on_c, 0, 46, 76
2, 366122, Note_on_c, 0, 48, 0
2, 366230, Control_c, 0, 64, 77
2, 366287, Control_c, 0, 64, 73
2, 366308, Control_c, 0, 64, 63
2, 366326, Control_c, 0, 64, 45
2, 366338, Note_on_c, 0, 72, 76
2, 366340, Note_on_c, 0, 46, 0
2, 366344, Note_on_c, 0, 44, 78
2, 366345, Control_c, 0, 64, 22
2, 366345, Note_on_c, 0, 63, 75
2, 366364, Control_c, 0, 64, 0
2, 366459, Control_c, 0, 64, 14
2, 366478, Control_c, 0, 64, 51
2, 366497, Control_c, 0, 64, 67
2, 366507, Note_on_c, 0, 44, 0
2, 366515, Control_c, 0, 64, 73
2, 366536, Control_c, 0, 64, 77
2, 366554, Control_c, 0, 64, 83
2, 366560, Note_on_c, 0, 75, 77
2, 366574, Control_c, 0, 64, 95
2, 366582, Note_on_c, 0, 72, 0
2, 366591, Control_c, 0, 64, 107
2, 366612, Control_c, 0, 64, 114
2, 366685, Control_c, 0, 64, 104
2, 366704, Control_c, 0, 64, 86
2, 366724, Control_c, 0, 64, 59
2, 366743, Control_c, 0, 64, 9
2, 366761, Control_c, 0, 64, 0
2, 366767, Note_on_c, 0, 73, 72
2, 366775, Note_on_c, 0, 56, 81
2, 366787, Note_on_c, 0, 63, 0
2, 366791, Note_on_c, 0, 68, 59
2, 366815, Note_on_c, 0, 75, 0
2, 366837, Control_c, 0, 64, 26
2, 366856, Control_c, 0, 64, 52
2, 366875, Control_c, 0, 64, 67
2, 366894, Control_c, 0, 64, 72
2, 366923, Note_on_c, 0, 56, 0
2, 366945, Note_on_c, 0, 73, 0
2, 366949, Control_c, 0, 64, 75
2, 366962, Note_on_c, 0, 72, 74
2, 366967, Control_c, 0, 64, 79
2, 366986, Control_c, 0, 64, 87
2, 367005, Control_c, 0, 64, 96
2, 367024, Control_c, 0, 64, 102
2, 367116, Control_c, 0, 64, 91
2, 367137, Control_c, 0, 64, 70
2, 367153, Control_c, 0, 64, 43
2, 367173, Control_c, 0, 64, 0
2, 367189, Note_on_c, 0, 72, 0
2, 367190, Note_on_c, 0, 67, 66
2, 367192, Note_on_c, 0, 58, 80
2, 367198, Note_on_c, 0, 70, 72
2, 367209, Note_on_c, 0, 68, 0
2, 367269, Control_c, 0, 64, 10
2, 367288, Control_c, 0, 64, 30
2, 367307, Control_c, 0, 64, 47
2, 367323, Control_c, 0, 64, 59
2, 367343, Control_c, 0, 64, 63
2, 367378, Note_on_c, 0, 55, 67
2, 367390, Note_on_c, 0, 73, 77
2, 367394, Note_on_c, 0, 58, 0
2, 367397, Control_c, 0, 64, 60
2, 367412, Note_on_c, 0, 70, 0
2, 367418, Control_c, 0, 64, 56
2, 367438, Control_c, 0, 64, 48
2, 367457, Control_c, 0, 64, 35
2, 367475, Control_c, 0, 64, 18
2, 367495, Control_c, 0, 64, 0
2, 367581, Note_on_c, 0, 56, 75
2, 367600, Note_on_c, 0, 55, 0
2, 367602, Note_on_c, 0, 72, 71
2, 367603, Note_on_c, 0, 66, 66
2, 367607, Control_c, 0, 64, 36
2, 367624, Note_on_c, 0, 67, 0
2, 367625, Control_c, 0, 64, 60
2, 367643, Control_c, 0, 64, 75
2, 367664, Control_c, 0, 64, 88
2, 367671, Note_on_c, 0, 73, 0
2, 367682, Control_c, 0, 64, 97
2, 367725, Note_on_c, 0, 66, 0
2, 367741, Control_c, 0, 64, 92
2, 367775, Note_on_c, 0, 58, 80
2, 367786, Note_on_c, 0, 70, 77
2, 367796, Control_c, 0, 64, 96
2, 367804, Note_on_c, 0, 56, 0
2, 367832, Note_on_c, 0, 72, 0
2, 367833, Control_c, 0, 64, 101
2, 367853, Control_c, 0, 64, 109
2, 367871, Control_c, 0, 64, 120
2, 367889, Control_c, 0, 64, 127
2, 367967, Control_c, 0, 64, 108
2, 367980, Note_on_c, 0, 68, 72
2, 367984, Note_on_c, 0, 56, 71
2, 367986, Control_c, 0, 64, 84
2, 367994, Note_on_c, 0, 60, 72
2, 367995, Note_on_c, 0, 65, 64
2, 367997, Note_on_c, 0, 58, 0
2, 368005, Control_c, 0, 64, 59
2, 368013, Note_on_c, 0, 70, 0
2, 368040, Control_c, 0, 64, 39
2, 368054, Note_on_c, 0, 56, 0
2, 368057, Note_on_c, 0, 60, 0
2, 368078, Control_c, 0, 64, 56
2, 368098, Control_c, 0, 64, 71
2, 368115, Control_c, 0, 64, 76
2, 368135, Control_c, 0, 64, 73
2, 368154, Control_c, 0, 64, 67
2, 368173, Control_c, 0, 64, 60
2, 368194, Control_c, 0, 64, 57
2, 368206, Note_on_c, 0, 72, 70
2, 368210, Control_c, 0, 64, 59
2, 368216, Note_on_c, 0, 65, 0
2, 368220, Note_on_c, 0, 56, 75
2, 368220, Note_on_c, 0, 68, 0
2, 368228, Control_c, 0, 64, 62
2, 368324, Control_c, 0, 64, 61
2, 368345, Control_c, 0, 64, 55
2, 368360, Control_c, 0, 64, 48
2, 368411, Note_on_c, 0, 70, 76
2, 368413, Note_on_c, 0, 58, 71
2, 368427, Note_on_c, 0, 64, 65
2, 368459, Note_on_c, 0, 72, 0
2, 368476, Control_c, 0, 64, 53
2, 368495, Control_c, 0, 64, 63
2, 368512, Control_c, 0, 64, 68
2, 368570, Control_c, 0, 64, 70
2, 368571, Note_on_c, 0, 64, 0
2, 368589, Control_c, 0, 64, 73
2, 368594, Note_on_c, 0, 60, 70
2, 368610, Control_c, 0, 64, 78
2, 368618, Note_on_c, 0, 68, 75
2, 368621, Note_on_c, 0, 58, 0
2, 368632, Control_c, 0, 64, 82
2, 368649, Control_c, 0, 64, 86
2, 368668, Control_c, 0, 64, 90
2, 368684, Note_on_c, 0, 70, 0
2, 368764, Control_c, 0, 64, 80
2, 368782, Control_c, 0, 64, 66
2, 368801, Control_c, 0, 64, 47
2, 368813, Note_on_c, 0, 61, 70
2, 368813, Note_on_c, 0, 68, 0
2, 368814, Note_on_c, 0, 60, 0
2, 368819, Control_c, 0, 64, 15
2, 368824, Note_on_c, 0, 67, 77
2, 368838, Control_c, 0, 64, 0
2, 368838, Note_on_c, 0, 63, 69
2, 368881, Note_on_c, 0, 56, 0
2, 368914, Control_c, 0, 64, 29
2, 368933, Control_c, 0, 64, 53
2, 368950, Control_c, 0, 64, 68
2, 368972, Control_c, 0, 64, 75
2, 369005, Control_c, 0, 64, 77
2, 369024, Note_on_c, 0, 63, 0
2, 369025, Control_c, 0, 64, 80
2, 369025, Note_on_c, 0, 58, 69
2, 369025, Note_on_c, 0, 61, 0
2, 369025, Note_on_c, 0, 70, 76
2, 369043, Note_on_c, 0, 67, 0
2, 369046, Control_c, 0, 64, 82
2, 369065, Control_c, 0, 64, 86
2, 369083, Control_c, 0, 64, 92
2, 369101, Control_c, 0, 64, 96
2, 369176, Control_c, 0, 64, 87
2, 369196, Control_c, 0, 64, 74
2, 369215, Control_c, 0, 64, 57
2, 369231, Note_on_c, 0, 60, 62
2, 369231, Note_on_c, 0, 68, 76
2, 369234, Control_c, 0, 64, 36
2, 369238, Note_on_c, 0, 56, 59
2, 369253, Control_c, 0, 64, 20
2, 369269, Note_on_c, 0, 70, 0
2, 369271, Note_on_c, 0, 58, 0
2, 369308, Control_c, 0, 64, 16
2, 369417, Note_on_c, 0, 60, 0
2, 369441, Note_on_c, 0, 61, 64
2, 369650, Note_on_c, 0, 56, 0
2, 369659, Note_on_c, 0, 55, 62
2, 369661, Note_on_c, 0, 63, 64
2, 369672, Note_on_c, 0, 61, 0
2, 369787, Note_on_c, 0, 68, 0
2, 369826, Note_on_c, 0, 63, 0
2, 369846, Note_on_c, 0, 56, 57
2, 369851, Note_on_c, 0, 55, 0
2, 369858, Note_on_c, 0, 60, 52
2, 369889, Note_on_c, 0, 59, 34
2, 369958, Note_on_c, 0, 59, 0
2, 370081, Note_on_c, 0, 67, 73
2, 370091, Note_on_c, 0, 60, 0
2, 370093, Note_on_c, 0, 58, 65
2, 370101, Note_on_c, 0, 56, 0
2, 370102, Note_on_c, 0, 61, 57
2, 370562, Note_on_c, 0, 51, 54
2, 370575, Note_on_c, 0, 61, 0
2, 370581, Note_on_c, 0, 73, 58
2, 370611, Note_on_c, 0, 58, 0
2, 370632, Note_on_c, 0, 67, 0
2, 371030, Note_on_c, 0, 72, 60
2, 371032, Note_on_c, 0, 63, 65
2, 371035, Note_on_c, 0, 54, 60
2, 371118, Note_on_c, 0, 51, 0
2, 371119, Note_on_c, 0, 73, 0
2, 371227, Note_on_c, 0, 70, 63
2, 371238, Note_on_c, 0, 72, 0
2, 371458, Note_on_c, 0, 72, 65
2, 371463, Note_on_c, 0, 70, 0
2, 371471, Note_on_c, 0, 56, 58
2, 371543, Note_on_c, 0, 63, 0
2, 371887, Note_on_c, 0, 73, 65
2, 371903, Note_on_c, 0, 72, 0
2, 371906, Note_on_c, 0, 58, 53
2, 371907, Note_on_c, 0, 53, 53
2, 371952, Note_on_c, 0, 54, 0
2, 371956, Note_on_c, 0, 56, 0
2, 372077, Note_on_c, 0, 60, 64
2, 372084, Note_on_c, 0, 58, 0
2, 372233, Control_c, 0, 64, 0
2, 372304, Note_on_c, 0, 60, 0
2, 372325, Note_on_c, 0, 58, 63
2, 372326, Note_on_c, 0, 73, 0
2, 372330, Note_on_c, 0, 66, 65
2, 372366, Control_c, 0, 64, 26
2, 372386, Control_c, 0, 64, 49
2, 372404, Control_c, 0, 64, 66
2, 372424, Control_c, 0, 64, 77
2, 372441, Control_c, 0, 64, 86
2, 372451, Note_on_c, 0, 53, 0
2, 372454, Note_on_c, 0, 58, 0
2, 372462, Control_c, 0, 64, 92
2, 372725, Control_c, 0, 64, 86
2, 372742, Control_c, 0, 64, 78
2, 372762, Control_c, 0, 64, 67
2, 372780, Control_c, 0, 64, 54
2, 372783, Note_on_c, 0, 60, 45
2, 372784, Note_on_c, 0, 51, 63
2, 372801, Control_c, 0, 64, 43
2, 372819, Control_c, 0, 64, 35
2, 372853, Control_c, 0, 64, 31
2, 372905, Note_on_c, 0, 60, 0
2, 372967, Note_on_c, 0, 61, 50
2, 373158, Note_on_c, 0, 61, 0
2, 373214, Note_on_c, 0, 46, 62
2, 373217, Note_on_c, 0, 63, 52
2, 373235, Note_on_c, 0, 66, 0
2, 373292, Note_on_c, 0, 51, 0
2, 373638, Note_on_c, 0, 66, 72
2, 373646, Note_on_c, 0, 48, 62
2, 373667, Note_on_c, 0, 46, 0
2, 373833, Note_on_c, 0, 48, 0
2, 373845, Note_on_c, 0, 49, 67
2, 374095, Note_on_c, 0, 48, 65
2, 374097, Note_on_c, 0, 75, 71
2, 374104, Note_on_c, 0, 49, 0
2, 374111, Control_c, 0, 64, 27
2, 374144, Note_on_c, 0, 63, 0
2, 374157, Note_on_c, 0, 66, 0
2, 374225, Control_c, 0, 64, 33
2, 374244, Control_c, 0, 64, 38
2, 374263, Control_c, 0, 64, 48
2, 374282, Control_c, 0, 64, 57
2, 374302, Control_c, 0, 64, 61
2, 374320, Control_c, 0, 64, 64
2, 374340, Control_c, 0, 64, 66
2, 374357, Control_c, 0, 64, 69
2, 374377, Control_c, 0, 64, 72
2, 374394, Control_c, 0, 64, 77
2, 374415, Control_c, 0, 64, 81
2, 374472, Control_c, 0, 64, 76
2, 374492, Control_c, 0, 64, 69
2, 374509, Control_c, 0, 64, 60
2, 374509, Note_on_c, 0, 73, 71
2, 374524, Note_on_c, 0, 44, 59
2, 374529, Control_c, 0, 64, 50
2, 374535, Note_on_c, 0, 66, 52
2, 374547, Control_c, 0, 64, 39
2, 374567, Control_c, 0, 64, 27
2, 374575, Note_on_c, 0, 48, 0
2, 374584, Control_c, 0, 64, 18
2, 374657, Note_on_c, 0, 75, 0
2, 374698, Control_c, 0, 64, 30
2, 374705, Note_on_c, 0, 72, 77
2, 374719, Control_c, 0, 64, 44
2, 374738, Control_c, 0, 64, 57
2, 374754, Note_on_c, 0, 73, 0
2, 374772, Control_c, 0, 64, 61
2, 374826, Control_c, 0, 64, 62
2, 374883, Control_c, 0, 64, 60
2, 374901, Control_c, 0, 64, 53
2, 374919, Control_c, 0, 64, 44
2, 374937, Control_c, 0, 64, 36
2, 374951, Note_on_c, 0, 46, 71
2, 374958, Control_c, 0, 64, 25
2, 374962, Note_on_c, 0, 73, 77
2, 374965, Note_on_c, 0, 44, 0
2, 374976, Control_c, 0, 64, 12
2, 374996, Control_c, 0, 64, 0
2, 375035, Note_on_c, 0, 72, 0
2, 375089, Control_c, 0, 64, 28
2, 375109, Control_c, 0, 64, 47
2, 375128, Control_c, 0, 64, 62
2, 375145, Control_c, 0, 64, 69
2, 375157, Note_on_c, 0, 66, 0
2, 375164, Control_c, 0, 64, 74
2, 375183, Control_c, 0, 64, 78
2, 375203, Control_c, 0, 64, 85
2, 375222, Control_c, 0, 64, 93
2, 375241, Control_c, 0, 64, 100
2, 375261, Control_c, 0, 64, 105
2, 375335, Control_c, 0, 64, 92
2, 375355, Control_c, 0, 64, 76
2, 375365, Note_on_c, 0, 75, 77
2, 375374, Control_c, 0, 64, 56
2, 375377, Note_on_c, 0, 65, 72
2, 375382, Note_on_c, 0, 48, 67
2, 375386, Note_on_c, 0, 73, 0
2, 375393, Control_c, 0, 64, 36
2, 375411, Control_c, 0, 64, 30
2, 375412, Note_on_c, 0, 46, 0
2, 375430, Note_on_c, 0, 65, 0
2, 375451, Control_c, 0, 64, 46
2, 375469, Control_c, 0, 64, 64
2, 375489, Control_c, 0, 64, 74
2, 375507, Control_c, 0, 64, 80
2, 375528, Control_c, 0, 64, 83
2, 375544, Control_c, 0, 64, 86
2, 375549, Note_on_c, 0, 63, 72
2, 375583, Control_c, 0, 64, 91
2, 375619, Control_c, 0, 64, 96
2, 375624, Note_on_c, 0, 63, 0
2, 375657, Control_c, 0, 64, 100
2, 375799, Note_on_c, 0, 48, 0
2, 375805, Control_c, 0, 64, 87
2, 375822, Note_on_c, 0, 49, 68
2, 375823, Note_on_c, 0, 68, 72
2, 375824, Control_c, 0, 64, 71
2, 375828, Note_on_c, 0, 65, 72
2, 375844, Control_c, 0, 64, 49
2, 375864, Control_c, 0, 64, 25
2, 375880, Control_c, 0, 64, 8
2, 375900, Control_c, 0, 64, 0
2, 375937, Note_on_c, 0, 75, 0
2, 376014, Control_c, 0, 64, 26
2, 376023, Note_on_c, 0, 68, 0
2, 376032, Control_c, 0, 64, 46
2, 376051, Control_c, 0, 64, 64
2, 376070, Control_c, 0, 64, 75
2, 376089, Control_c, 0, 64, 84
2, 376106, Control_c, 0, 64, 91
2, 376127, Control_c, 0, 64, 97
2, 376145, Control_c, 0, 64, 105
2, 376165, Control_c, 0, 64, 112
2, 376184, Control_c, 0, 64, 116
2, 376264, Note_on_c, 0, 68, 78
2, 376279, Control_c, 0, 64, 110
2, 376281, Note_on_c, 0, 47, 69
2, 376298, Control_c, 0, 64, 101
2, 376319, Control_c, 0, 64, 86
2, 376322, Note_on_c, 0, 65, 0
2, 376324, Note_on_c, 0, 49, 0
2, 376337, Control_c, 0, 64, 69
2, 376357, Control_c, 0, 64, 52
2, 376374, Control_c, 0, 64, 43
2, 376395, Control_c, 0, 64, 40
2, 376489, Control_c, 0, 64, 36
2, 376692, Control_c, 0, 64, 29
2, 376711, Control_c, 0, 64, 18
2, 376728, Note_on_c, 0, 46, 68
2, 376731, Control_c, 0, 64, 0
2, 376731, Note_on_c, 0, 62, 80
2, 376745, Note_on_c, 0, 47, 0
2, 376843, Control_c, 0, 64, 24
2, 376861, Control_c, 0, 64, 50
2, 376882, Control_c, 0, 64, 71
2, 376883, Note_on_c, 0, 68, 0
2, 376898, Control_c, 0, 64, 86
2, 376898, Note_on_c, 0, 62, 0
2, 376919, Control_c, 0, 64, 100
2, 376938, Control_c, 0, 64, 105
2, 376995, Control_c, 0, 64, 109
2, 377158, Note_on_c, 0, 68, 86
2, 377165, Note_on_c, 0, 44, 65
2, 377246, Note_on_c, 0, 46, 0
2, 377255, Control_c, 0, 64, 105
2, 377329, Control_c, 0, 64, 101
2, 377335, Note_on_c, 0, 42, 76
2, 377363, Note_on_c, 0, 44, 0
2, 377520, Control_c, 0, 64, 97
2, 377538, Control_c, 0, 64, 87
2, 377556, Control_c, 0, 64, 71
2, 377576, Control_c, 0, 64, 46
2, 377586, Note_on_c, 0, 77, 84
2, 377593, Note_on_c, 0, 44, 77
2, 377596, Control_c, 0, 64, 16
2, 377613, Control_c, 0, 64, 0
2, 377648, Note_on_c, 0, 42, 0
2, 377654, Note_on_c, 0, 68, 0
2, 377724, Control_c, 0, 64, 20
2, 377725, Note_on_c, 0, 46, 6
2, 377742, Control_c, 0, 64, 42
2, 377763, Control_c, 0, 64, 62
2, 377780, Control_c, 0, 64, 74
2, 377798, Control_c, 0, 64, 83
2, 377808, Note_on_c, 0, 46, 0
2, 377816, Control_c, 0, 64, 90
2, 377838, Control_c, 0, 64, 98
2, 377855, Control_c, 0, 64, 107
2, 377876, Control_c, 0, 64, 116
2, 377894, Control_c, 0, 64, 126
2, 377935, Note_on_c, 0, 44, 0
2, 378026, Control_c, 0, 64, 117
2, 378037, Note_on_c, 0, 58, 80
2, 378040, Note_on_c, 0, 75, 85
2, 378045, Control_c, 0, 64, 93
2, 378051, Note_on_c, 0, 46, 66
2, 378065, Control_c, 0, 64, 66
2, 378080, Note_on_c, 0, 77, 0
2, 378082, Control_c, 0, 64, 39
2, 378101, Control_c, 0, 64, 32
2, 378122, Control_c, 0, 64, 39
2, 378139, Control_c, 0, 64, 61
2, 378159, Control_c, 0, 64, 77
2, 378178, Control_c, 0, 64, 91
2, 378196, Control_c, 0, 64, 100
2, 378198, Note_on_c, 0, 46, 0
2, 378217, Note_on_c, 0, 74, 85
2, 378251, Note_on_c, 0, 75, 0
2, 378252, Control_c, 0, 64, 106
2, 378271, Control_c, 0, 64, 111
2, 378289, Control_c, 0, 64, 116
2, 378309, Control_c, 0, 64, 124
2, 378424, Note_on_c, 0, 58, 0
2, 378443, Control_c, 0, 64, 111
2, 378454, Note_on_c, 0, 75, 82
2, 378460, Note_on_c, 0, 48, 79
2, 378461, Note_on_c, 0, 68, 80
2, 378462, Control_c, 0, 64, 89
2, 378480, Control_c, 0, 64, 61
2, 378497, Control_c, 0, 64, 25
2, 378501, Note_on_c, 0, 74, 0
2, 378516, Control_c, 0, 64, 0
2, 378573, Control_c, 0, 64, 28
2, 378610, Control_c, 0, 64, 54
2, 378628, Control_c, 0, 64, 73
2, 378648, Control_c, 0, 64, 87
2, 378667, Control_c, 0, 64, 100
2, 378675, Note_on_c, 0, 68, 0
2, 378682, Control_c, 0, 64, 109
2, 378704, Control_c, 0, 64, 117
2, 378722, Control_c, 0, 64, 127
2, 378854, Control_c, 0, 64, 122
2, 378867, Note_on_c, 0, 77, 78
2, 378874, Control_c, 0, 64, 97
2, 378874, Note_on_c, 0, 50, 80
2, 378879, Note_on_c, 0, 66, 76
2, 378893, Control_c, 0, 64, 64
2, 378910, Control_c, 0, 64, 22
2, 378929, Control_c, 0, 64, 0
2, 378953, Note_on_c, 0, 75, 0
2, 378955, Note_on_c, 0, 48, 0
2, 378968, Control_c, 0, 64, 31
2, 378977, Note_on_c, 0, 66, 0
2, 378984, Control_c, 0, 64, 61
2, 378989, Note_on_c, 0, 77, 0
2, 379004, Control_c, 0, 64, 82
2, 379024, Control_c, 0, 64, 100
2, 379042, Control_c, 0, 64, 109
2, 379065, Note_on_c, 0, 65, 76
2, 379137, Control_c, 0, 64, 115
2, 379156, Control_c, 0, 64, 120
2, 379174, Control_c, 0, 64, 126
2, 379282, Note_on_c, 0, 70, 80
2, 379289, Note_on_c, 0, 66, 75
2, 379299, Note_on_c, 0, 51, 75
2, 379307, Control_c, 0, 64, 112
2, 379319, Note_on_c, 0, 50, 0
2, 379322, Note_on_c, 0, 65, 0
2, 379324, Control_c, 0, 64, 96
2, 379346, Control_c, 0, 64, 78
2, 379365, Control_c, 0, 64, 58
2, 379382, Control_c, 0, 64, 45
2, 379401, Control_c, 0, 64, 41
2, 379468, Note_on_c, 0, 50, 75
2, 379476, Note_on_c, 0, 66, 0
2, 379477, Note_on_c, 0, 65, 82
2, 379483, Note_on_c, 0, 51, 0
2, 379681, Control_c, 0, 64, 37
2, 379696, Note_on_c, 0, 51, 75
2, 379698, Note_on_c, 0, 66, 85
2, 379719, Note_on_c, 0, 65, 0
2, 379737, Note_on_c, 0, 50, 0
2, 379879, Note_on_c, 0, 53, 77
2, 379905, Note_on_c, 0, 51, 0
2, 380040, Control_c, 0, 64, 32
2, 380059, Control_c, 0, 64, 24
2, 380078, Control_c, 0, 64, 16
2, 380115, Control_c, 0, 64, 0
2, 380123, Note_on_c, 0, 60, 84
2, 380125, Note_on_c, 0, 54, 72
2, 380159, Note_on_c, 0, 53, 0
2, 380161, Note_on_c, 0, 66, 0
2, 380220, Note_on_c, 0, 70, 0
2, 380227, Control_c, 0, 64, 26
2, 380247, Control_c, 0, 64, 48
2, 380268, Control_c, 0, 64, 67
2, 380285, Control_c, 0, 64, 81
2, 380305, Control_c, 0, 64, 96
2, 380324, Control_c, 0, 64, 108
2, 380341, Control_c, 0, 64, 115
2, 380360, Control_c, 0, 64, 122
2, 380379, Control_c, 0, 64, 127
2, 380578, Note_on_c, 0, 69, 83
2, 380593, Note_on_c, 0, 53, 68
2, 380631, Note_on_c, 0, 54, 0
2, 380659, Control_c, 0, 64, 122
2, 380677, Control_c, 0, 64, 113
2, 380697, Control_c, 0, 64, 103
2, 380716, Control_c, 0, 64, 94
2, 380765, Note_on_c, 0, 67, 88
2, 380793, Control_c, 0, 64, 100
2, 380808, Note_on_c, 0, 69, 0
2, 380829, Control_c, 0, 64, 105
2, 380904, Control_c, 0, 64, 100
2, 380923, Control_c, 0, 64, 88
2, 380944, Control_c, 0, 64, 69
2, 380961, Control_c, 0, 64, 42
2, 380980, Control_c, 0, 64, 0
2, 380996, Note_on_c, 0, 69, 91
2, 381000, Note_on_c, 0, 51, 76
2, 381020, Note_on_c, 0, 53, 0
2, 381047, Note_on_c, 0, 67, 0
2, 381075, Control_c, 0, 64, 10
2, 381093, Control_c, 0, 64, 43
2, 381106, Note_on_c, 0, 60, 0
2, 381113, Control_c, 0, 64, 70
2, 381132, Control_c, 0, 64, 92
2, 381137, Note_on_c, 0, 69, 0
2, 381150, Control_c, 0, 64, 121
2, 381168, Control_c, 0, 64, 127
2, 381432, Note_on_c, 0, 58, 84
2, 381433, Note_on_c, 0, 70, 88
2, 381449, Note_on_c, 0, 49, 77
2, 381487, Control_c, 0, 64, 105
2, 381507, Control_c, 0, 64, 77
2, 381520, Note_on_c, 0, 51, 0
2, 381525, Control_c, 0, 64, 45
2, 381545, Control_c, 0, 64, 18
2, 381581, Control_c, 0, 64, 29
2, 381601, Control_c, 0, 64, 59
2, 381610, Note_on_c, 0, 70, 0
2, 381618, Control_c, 0, 64, 84
2, 381637, Control_c, 0, 64, 114
2, 381656, Control_c, 0, 64, 127
2, 381900, Note_on_c, 0, 63, 86
2, 381925, Note_on_c, 0, 48, 74
2, 381960, Control_c, 0, 64, 102
2, 381974, Note_on_c, 0, 49, 0
2, 381978, Control_c, 0, 64, 69
2, 381997, Control_c, 0, 64, 27
2, 382017, Control_c, 0, 64, 0
2, 382091, Control_c, 0, 64, 34
2, 382110, Control_c, 0, 64, 62
2, 382129, Control_c, 0, 64, 81
2, 382148, Control_c, 0, 64, 103
2, 382152, Note_on_c, 0, 58, 0
2, 382166, Control_c, 0, 64, 126
2, 382337, Note_on_c, 0, 49, 75
2, 382342, Note_on_c, 0, 57, 81
2, 382373, Note_on_c, 0, 48, 0
2, 382376, Control_c, 0, 64, 102
2, 382396, Control_c, 0, 64, 69
2, 382414, Control_c, 0, 64, 20
2, 382448, Control_c, 0, 64, 0
2, 382487, Control_c, 0, 64, 31
2, 382506, Control_c, 0, 64, 67
2, 382523, Control_c, 0, 64, 94
2, 382541, Note_on_c, 0, 55, 83
2, 382544, Control_c, 0, 64, 126
2, 382568, Note_on_c, 0, 57, 0
2, 382751, Control_c, 0, 64, 96
2, 382768, Control_c, 0, 64, 55
2, 382770, Note_on_c, 0, 57, 89
2, 382775, Note_on_c, 0, 48, 79
2, 382789, Control_c, 0, 64, 0
2, 382806, Note_on_c, 0, 55, 0
2, 382809, Note_on_c, 0, 49, 0
2, 382864, Control_c, 0, 64, 42
2, 382882, Control_c, 0, 64, 77
2, 382904, Control_c, 0, 64, 108
2, 382921, Control_c, 0, 64, 127
2, 382930, Note_on_c, 0, 57, 0
2, 382956, Note_on_c, 0, 48, 0
2, 383221, Note_on_c, 0, 60, 92
2, 383222, Control_c, 0, 64, 123
2, 383232, Note_on_c, 0, 47, 79
2, 383241, Control_c, 0, 64, 86
2, 383260, Control_c, 0, 64, 41
2, 383266, Note_on_c, 0, 46, 24
2, 383280, Control_c, 0, 64, 0
2, 383286, Note_on_c, 0, 46, 0
2, 383298, Control_c, 0, 64, 19
2, 383305, Note_on_c, 0, 47, 0
2, 383316, Control_c, 0, 64, 60
2, 383337, Control_c, 0, 64, 95
2, 383355, Control_c, 0, 64, 127
2, 383722, Note_on_c, 0, 53, 92
2, 383729, Control_c, 0, 64, 107
2, 383742, Note_on_c, 0, 45, 76
2, 383748, Control_c, 0, 64, 70
2, 383751, Note_on_c, 0, 43, 73
2, 383767, Control_c, 0, 64, 17
2, 383786, Control_c, 0, 64, 0
2, 383824, Note_on_c, 0, 60, 0
2, 383880, Control_c, 0, 64, 23
2, 383899, Control_c, 0, 64, 57
2, 383918, Control_c, 0, 64, 78
2, 383929, Note_on_c, 0, 43, 0
2, 383936, Control_c, 0, 64, 97
2, 383956, Control_c, 0, 64, 117
2, 383973, Control_c, 0, 64, 127
2, 384200, Control_c, 0, 64, 103
2, 384217, Note_on_c, 0, 41, 84
2, 384219, Control_c, 0, 64, 57
2, 384222, Note_on_c, 0, 61, 89
2, 384239, Control_c, 0, 64, 0
2, 384245, Note_on_c, 0, 45, 0
2, 384368, Control_c, 0, 64, 24
2, 384387, Control_c, 0, 64, 42
2, 384397, Note_on_c, 0, 41, 0
2, 384406, Control_c, 0, 64, 66
2, 384425, Control_c, 0, 64, 90
2, 384442, Control_c, 0, 64, 119
2, 384454, Note_on_c, 0, 60, 86
2, 384461, Control_c, 0, 64, 127
2, 384465, Note_on_c, 0, 61, 0
2, 384483, Note_on_c, 0, 63, 0
2, 384775, Note_on_c, 0, 46, 97
2, 384790, Note_on_c, 0, 61, 87
2, 384802, Control_c, 0, 64, 112
2, 384820, Control_c, 0, 64, 73
2, 384836, Note_on_c, 0, 60, 0
2, 384838, Control_c, 0, 64, 22
2, 384858, Control_c, 0, 64, 0
2, 384923, Note_on_c, 0, 53, 0
2, 384972, Control_c, 0, 64, 33
2, 384990, Control_c, 0, 64, 63
2, 385009, Control_c, 0, 64, 80
2, 385029, Control_c, 0, 64, 97
2, 385047, Control_c, 0, 64, 109
2, 385066, Control_c, 0, 64, 115
2, 385106, Control_c, 0, 64, 121
2, 385142, Control_c, 0, 64, 126
2, 385351, Note_on_c, 0, 70, 88
2, 385379, Note_on_c, 0, 51, 72
2, 385505, Note_on_c, 0, 46, 0
2, 385533, Note_on_c, 0, 61, 0
2, 385540, Note_on_c, 0, 49, 80
2, 385547, Note_on_c, 0, 51, 0
2, 385759, Note_on_c, 0, 49, 0
2, 385780, Note_on_c, 0, 48, 74
2, 385789, Note_on_c, 0, 66, 92
2, 385797, Note_on_c, 0, 51, 70
2, 385816, Control_c, 0, 64, 117
2, 385835, Control_c, 0, 64, 87
2, 385855, Control_c, 0, 64, 49
2, 385872, Control_c, 0, 64, 0
2, 386005, Control_c, 0, 64, 18
2, 386024, Control_c, 0, 64, 51
2, 386042, Control_c, 0, 64, 66
2, 386062, Control_c, 0, 64, 75
2, 386068, Note_on_c, 0, 70, 0
2, 386081, Control_c, 0, 64, 85
2, 386098, Control_c, 0, 64, 97
2, 386117, Control_c, 0, 64, 107
2, 386136, Control_c, 0, 64, 113
2, 386231, Control_c, 0, 64, 119
2, 386231, Note_on_c, 0, 69, 84
2, 386234, Note_on_c, 0, 63, 80
2, 386285, Control_c, 0, 64, 125
2, 386287, Note_on_c, 0, 66, 0
2, 386397, Note_on_c, 0, 69, 0
2, 386642, Control_c, 0, 64, 111
2, 386663, Control_c, 0, 64, 77
2, 386663, Note_on_c, 0, 70, 82
2, 386670, Note_on_c, 0, 65, 83
2, 386682, Control_c, 0, 64, 32
2, 386701, Control_c, 0, 64, 0
2, 386729, Note_on_c, 0, 63, 0
2, 386759, Control_c, 0, 64, 13
2, 386777, Control_c, 0, 64, 47
2, 386797, Control_c, 0, 64, 72
2, 386816, Control_c, 0, 64, 91
2, 386833, Control_c, 0, 64, 113
2, 386853, Control_c, 0, 64, 126
2, 386854, Note_on_c, 0, 51, 0
2, 386857, Note_on_c, 0, 48, 0
2, 387061, Control_c, 0, 64, 119
2, 387078, Note_on_c, 0, 49, 87
2, 387079, Control_c, 0, 64, 91
2, 387084, Note_on_c, 0, 61, 84
2, 387099, Control_c, 0, 64, 52
2, 387117, Control_c, 0, 64, 0
2, 387191, Control_c, 0, 64, 29
2, 387210, Control_c, 0, 64, 60
2, 387245, Control_c, 0, 64, 78
2, 387252, Note_on_c, 0, 49, 0
2, 387266, Control_c, 0, 64, 90
2, 387284, Control_c, 0, 64, 95
2, 387298, Note_on_c, 0, 67, 78
2, 387320, Control_c, 0, 64, 99
2, 387341, Control_c, 0, 64, 103
2, 387359, Control_c, 0, 64, 111
2, 387378, Control_c, 0, 64, 124
2, 387460, Note_on_c, 0, 67, 0
2, 387462, Note_on_c, 0, 70, 0
2, 387487, Note_on_c, 0, 65, 0
2, 387511, Control_c, 0, 64, 103
2, 387529, Control_c, 0, 64, 70
2, 387530, Note_on_c, 0, 66, 80
2, 387540, Note_on_c, 0, 51, 93
2, 387548, Control_c, 0, 64, 21
2, 387566, Control_c, 0, 64, 0
2, 387624, Control_c, 0, 64, 33
2, 387640, Control_c, 0, 64, 62
2, 387661, Control_c, 0, 64, 82
2, 387679, Control_c, 0, 64, 101
2, 387698, Control_c, 0, 64, 109
2, 387720, Note_on_c, 0, 61, 0
2, 387868, Control_c, 0, 64, 115
2, 387906, Control_c, 0, 64, 119
2, 387945, Control_c, 0, 64, 106
2, 387963, Control_c, 0, 64, 87
2, 387979, Note_on_c, 0, 63, 87
2, 387982, Control_c, 0, 64, 61
2, 387982, Note_on_c, 0, 45, 69
2, 387985, Note_on_c, 0, 60, 82
2, 388003, Control_c, 0, 64, 16
2, 388011, Note_on_c, 0, 51, 0
2, 388019, Control_c, 0, 64, 0
2, 388051, Note_on_c, 0, 66, 0
2, 388151, Control_c, 0, 64, 48
2, 388170, Control_c, 0, 64, 70
2, 388201, Note_on_c, 0, 63, 0
2, 388203, Control_c, 0, 64, 86
2, 388225, Control_c, 0, 64, 105
2, 388244, Control_c, 0, 64, 118
2, 388263, Control_c, 0, 64, 127
2, 388449, Note_on_c, 0, 46, 71
2, 388452, Note_on_c, 0, 62, 90
2, 388458, Note_on_c, 0, 65, 81
2, 388471, Control_c, 0, 64, 98
2, 388489, Control_c, 0, 64, 63
2, 388495, Note_on_c, 0, 45, 0
2, 388508, Control_c, 0, 64, 0
2, 388584, Control_c, 0, 64, 11
2, 388601, Control_c, 0, 64, 50
2, 388608, Note_on_c, 0, 62, 0
2, 388620, Control_c, 0, 64, 78
2, 388624, Note_on_c, 0, 65, 0
2, 388639, Control_c, 0, 64, 103
2, 388658, Control_c, 0, 64, 127
2, 388872, Note_on_c, 0, 74, 88
2, 388883, Control_c, 0, 64, 120
2, 388884, Note_on_c, 0, 59, 88
2, 388886, Note_on_c, 0, 68, 81
2, 388905, Control_c, 0, 64, 86
2, 388922, Control_c, 0, 64, 42
2, 388942, Control_c, 0, 64, 0
2, 388950, Note_on_c, 0, 60, 0
2, 388986, Note_on_c, 0, 59, 0
2, 388997, Control_c, 0, 64, 26
2, 389018, Control_c, 0, 64, 61
2, 389032, Note_on_c, 0, 68, 0
2, 389035, Control_c, 0, 64, 86
2, 389036, Note_on_c, 0, 46, 0
2, 389042, Note_on_c, 0, 74, 0
2, 389056, Control_c, 0, 64, 112
2, 389073, Control_c, 0, 64, 127
2, 389228, Note_on_c, 0, 75, 22
2, 389242, Note_on_c, 0, 75, 0
2, 389328, Note_on_c, 0, 66, 83
2, 389331, Note_on_c, 0, 75, 92
2, 389332, Control_c, 0, 64, 103
2, 389342, Note_on_c, 0, 58, 75
2, 389343, Note_on_c, 0, 48, 81
2, 389352, Control_c, 0, 64, 65
2, 389371, Control_c, 0, 64, 0
2, 389408, Note_on_c, 0, 56, 22
2, 389409, Note_on_c, 0, 56, 0
2, 389423, Note_on_c, 0, 76, 32
2, 389448, Control_c, 0, 64, 35
2, 389457, Note_on_c, 0, 58, 0
2, 389467, Control_c, 0, 64, 67
2, 389476, Note_on_c, 0, 76, 0
2, 389483, Note_on_c, 0, 48, 0
2, 389485, Control_c, 0, 64, 89
2, 389505, Control_c, 0, 64, 113
2, 389523, Control_c, 0, 64, 126
2, 389712, Control_c, 0, 64, 118
2, 389731, Control_c, 0, 64, 87
2, 389746, Note_on_c, 0, 48, 76
2, 389748, Note_on_c, 0, 73, 87
2, 389750, Control_c, 0, 64, 49
2, 389764, Note_on_c, 0, 58, 63
2, 389768, Control_c, 0, 64, 0
2, 389799, Note_on_c, 0, 75, 0
2, 389806, Control_c, 0, 64, 23
2, 389826, Control_c, 0, 64, 62
2, 389844, Control_c, 0, 64, 92
2, 389864, Control_c, 0, 64, 124
2, 389864, Note_on_c, 0, 48, 0
2, 389864, Note_on_c, 0, 58, 0
2, 389949, Note_on_c, 0, 72, 87
2, 389982, Note_on_c, 0, 73, 0
2, 390017, Note_on_c, 0, 66, 0
2, 390124, Note_on_c, 0, 72, 0
2, 390163, Control_c, 0, 64, 100
2, 390169, Note_on_c, 0, 77, 88
2, 390180, Note_on_c, 0, 48, 70
2, 390182, Control_c, 0, 64, 65
2, 390199, Control_c, 0, 64, 23
2, 390220, Control_c, 0, 64, 10
2, 390238, Control_c, 0, 64, 29
2, 390256, Control_c, 0, 64, 66
2, 390274, Control_c, 0, 64, 93
2, 390292, Control_c, 0, 64, 125
2, 390364, Note_on_c, 0, 58, 51
2, 390385, Note_on_c, 0, 46, 66
2, 390385, Note_on_c, 0, 48, 0
2, 390437, Note_on_c, 0, 58, 0
2, 390541, Control_c, 0, 64, 115
2, 390557, Control_c, 0, 64, 90
2, 390557, Note_on_c, 0, 48, 80
2, 390572, Note_on_c, 0, 77, 0
2, 390577, Control_c, 0, 64, 73
2, 390597, Control_c, 0, 64, 78
2, 390616, Control_c, 0, 64, 107
2, 390634, Control_c, 0, 64, 127
2, 390635, Note_on_c, 0, 46, 0
2, 390722, Note_on_c, 0, 48, 0
2, 390729, Note_on_c, 0, 49, 79
2, 390948, Note_on_c, 0, 51, 80
2, 390951, Note_on_c, 0, 66, 80
2, 390953, Note_on_c, 0, 63, 82
2, 390956, Control_c, 0, 64, 122
2, 390975, Control_c, 0, 64, 88
2, 390990, Note_on_c, 0, 49, 0
2, 390993, Control_c, 0, 64, 52
2, 391010, Control_c, 0, 64, 20
2, 391050, Control_c, 0, 64, 38
2, 391083, Control_c, 0, 64, 72
2, 391104, Control_c, 0, 64, 100
2, 391123, Control_c, 0, 64, 127
2, 391149, Note_on_c, 0, 53, 73
2, 391183, Note_on_c, 0, 51, 0
2, 391296, Note_on_c, 0, 53, 0
2, 391357, Note_on_c, 0, 49, 65
2, 391362, Note_on_c, 0, 63, 0
2, 391429, Note_on_c, 0, 66, 0
2, 391442, Note_on_c, 0, 51, 64
2, 391456, Note_on_c, 0, 49, 0
2, 391474, Note_on_c, 0, 51, 0
2, 391826, Note_on_c, 0, 51, 84
2, 391837, Note_on_c, 0, 55, 80
2, 391845, Control_c, 0, 64, 123
2, 391865, Control_c, 0, 64, 118
2, 391901, Control_c, 0, 64, 127
2, 391964, Note_on_c, 0, 55, 0
2, 392012, Note_on_c, 0, 58, 85
2, 392198, Note_on_c, 0, 58, 0
2, 392278, Note_on_c, 0, 63, 93
2, 392294, Control_c, 0, 64, 103
2, 392298, Note_on_c, 0, 55, 80
2, 392314, Control_c, 0, 64, 78
2, 392334, Control_c, 0, 64, 65
2, 392352, Control_c, 0, 64, 76
2, 392370, Control_c, 0, 64, 106
2, 392377, Note_on_c, 0, 63, 0
2, 392389, Control_c, 0, 64, 127
2, 392408, Note_on_c, 0, 55, 0
2, 392671, Control_c, 0, 64, 101
2, 392688, Note_on_c, 0, 55, 84
2, 392690, Control_c, 0, 64, 69
2, 392690, Note_on_c, 0, 48, 84
2, 392698, Note_on_c, 0, 63, 89
2, 392708, Control_c, 0, 64, 58
2, 392714, Note_on_c, 0, 73, 66
2, 392715, Note_on_c, 0, 74, 70
2, 392721, Note_on_c, 0, 55, 0
2, 392725, Note_on_c, 0, 51, 0
2, 392728, Control_c, 0, 64, 69
2, 392736, Note_on_c, 0, 48, 0
2, 392740, Note_on_c, 0, 73, 0
2, 392747, Control_c, 0, 64, 95
2, 392751, Note_on_c, 0, 74, 0
2, 392753, Note_on_c, 0, 63, 0
2, 392767, Control_c, 0, 64, 127
2, 393328, Note_on_c, 0, 70, 93
2, 393334, Note_on_c, 0, 61, 88
2, 393366, Note_on_c, 0, 54, 42
2, 393367, Control_c, 0, 64, 103
2, 393367, Note_on_c, 0, 53, 74
2, 393387, Control_c, 0, 64, 66
2, 393405, Control_c, 0, 64, 22
2, 393423, Control_c, 0, 64, 0
2, 393534, Note_on_c, 0, 53, 0
2, 393534, Note_on_c, 0, 54, 0
2, 393546, Note_on_c, 0, 56, 76
2, 393727, Control_c, 0, 64, 16
2, 393745, Control_c, 0, 64, 40
2, 393748, Note_on_c, 0, 54, 83
2, 393765, Control_c, 0, 64, 68
2, 393775, Note_on_c, 0, 61, 0
2, 393784, Control_c, 0, 64, 87
2, 393788, Note_on_c, 0, 56, 0
2, 393802, Control_c, 0, 64, 103
2, 393821, Control_c, 0, 64, 109
2, 393838, Note_on_c, 0, 70, 0
2, 393840, Control_c, 0, 64, 114
2, 393859, Control_c, 0, 64, 121
2, 393877, Control_c, 0, 64, 127
2, 393930, Note_on_c, 0, 54, 0
2, 393942, Note_on_c, 0, 53, 80
2, 394071, Note_on_c, 0, 53, 0
2, 394201, Note_on_c, 0, 73, 98
2, 394203, Control_c, 0, 64, 107
2, 394208, Note_on_c, 0, 54, 84
2, 394210, Note_on_c, 0, 51, 85
2, 394210, Note_on_c, 0, 63, 89
2, 394222, Control_c, 0, 64, 72
2, 394241, Control_c, 0, 64, 29
2, 394259, Control_c, 0, 64, 0
2, 394465, Control_c, 0, 64, 33
2, 394485, Control_c, 0, 64, 54
2, 394503, Control_c, 0, 64, 68
2, 394524, Control_c, 0, 64, 81
2, 394541, Control_c, 0, 64, 99
2, 394562, Control_c, 0, 64, 113
2, 394580, Control_c, 0, 64, 120
2, 394617, Control_c, 0, 64, 127
2, 394674, Note_on_c, 0, 51, 0
2, 394677, Note_on_c, 0, 54, 0
2, 394923, Note_on_c, 0, 63, 0
2, 394977, Note_on_c, 0, 73, 0
2, 395165, Note_on_c, 0, 53, 85
2, 395170, Note_on_c, 0, 49, 90
2, 395182, Control_c, 0, 64, 123
2, 395201, Control_c, 0, 64, 95
2, 395220, Control_c, 0, 64, 65
2, 395237, Control_c, 0, 64, 30
2, 395256, Control_c, 0, 64, 0
2, 395570, Note_on_c, 0, 73, 91
2, 395575, Note_on_c, 0, 65, 83
2, 395577, Control_c, 0, 64, 23
2, 395597, Control_c, 0, 64, 43
2, 395615, Control_c, 0, 64, 59
2, 395622, Note_on_c, 0, 65, 0
2, 395635, Control_c, 0, 64, 70
2, 395654, Control_c, 0, 64, 83
2, 395673, Control_c, 0, 64, 100
2, 395682, Note_on_c, 0, 73, 0
2, 395692, Control_c, 0, 64, 113
2, 395709, Control_c, 0, 64, 117
2, 395709, Note_on_c, 0, 53, 0
2, 395720, Note_on_c, 0, 49, 0
2, 395784, Control_c, 0, 64, 122
2, 395803, Control_c, 0, 64, 127
2, 395989, Control_c, 0, 64, 111
2, 396009, Control_c, 0, 64, 81
2, 396022, Note_on_c, 0, 75, 92
2, 396024, Note_on_c, 0, 66, 87
2, 396027, Control_c, 0, 64, 44
2, 396047, Control_c, 0, 64, 0
2, 396086, Control_c, 0, 64, 33
2, 396105, Control_c, 0, 64, 70
2, 396124, Control_c, 0, 64, 102
2, 396143, Control_c, 0, 64, 127
2, 396145, Note_on_c, 0, 66, 0
2, 396145, Note_on_c, 0, 75, 0
2, 396420, Note_on_c, 0, 51, 83
2, 396426, Note_on_c, 0, 48, 81
2, 396429, Note_on_c, 0, 62, 84
2, 396433, Note_on_c, 0, 70, 84
2, 396443, Control_c, 0, 64, 113
2, 396457, Control_c, 0, 64, 79
2, 396476, Control_c, 0, 64, 41
2, 396494, Control_c, 0, 64, 0
2, 396495, Note_on_c, 0, 62, 0
2, 396531, Control_c, 0, 64, 13
2, 396551, Control_c, 0, 64, 46
2, 396562, Note_on_c, 0, 70, 0
2, 396570, Control_c, 0, 64, 75
2, 396581, Note_on_c, 0, 48, 0
2, 396586, Control_c, 0, 64, 98
2, 396607, Control_c, 0, 64, 120
2, 396625, Control_c, 0, 64, 127
2, 396628, Note_on_c, 0, 51, 0
2, 396884, Note_on_c, 0, 46, 80
2, 396889, Control_c, 0, 64, 121
2, 396894, Note_on_c, 0, 50, 74
2, 396895, Note_on_c, 0, 72, 87
2, 396902, Note_on_c, 0, 63, 86
2, 396908, Control_c, 0, 64, 91
2, 396928, Control_c, 0, 64, 54
2, 396946, Control_c, 0, 64, 0
2, 397022, Control_c, 0, 64, 19
2, 397040, Control_c, 0, 64, 43
2, 397060, Control_c, 0, 64, 61
2, 397080, Control_c, 0, 64, 71
2, 397098, Control_c, 0, 64, 76
2, 397111, Note_on_c, 0, 50, 0
2, 397116, Control_c, 0, 64, 82
2, 397136, Control_c, 0, 64, 92
2, 397153, Control_c, 0, 64, 106
2, 397172, Control_c, 0, 64, 118
2, 397191, Control_c, 0, 64, 123
2, 397305, Note_on_c, 0, 51, 80
2, 397307, Note_on_c, 0, 54, 86
2, 397350, Note_on_c, 0, 46, 0
2, 397390, Note_on_c, 0, 63, 0
2, 397439, Control_c, 0, 64, 127
2, 397532, Note_on_c, 0, 54, 0
2, 397737, Note_on_c, 0, 72, 0
2, 397746, Note_on_c, 0, 50, 81
2, 397761, Note_on_c, 0, 46, 91
2, 397796, Note_on_c, 0, 51, 0
2, 397822, Note_on_c, 0, 50, 0
2, 397843, Note_on_c, 0, 46, 0
2, 398295, Note_on_c, 0, 69, 81
2, 398296, Note_on_c, 0, 60, 76
2, 398302, Note_on_c, 0, 41, 101
2, 398310, Note_on_c, 0, 29, 97
2, 398322, Control_c, 0, 64, 99
2, 398340, Control_c, 0, 64, 61
2, 398358, Control_c, 0, 64, 0
2, 398410, Note_on_c, 0, 69, 0
2, 398420, Note_on_c, 0, 70, 74
2, 398492, Control_c, 0, 64, 20
2, 398508, Control_c, 0, 64, 36
2, 398515, Note_on_c, 0, 70, 0
2, 398525, Note_on_c, 0, 69, 70
2, 398529, Control_c, 0, 64, 50
2, 398544, Control_c, 0, 64, 65
2, 398564, Control_c, 0, 64, 80
2, 398582, Control_c, 0, 64, 95
2, 398587, Note_on_c, 0, 69, 0
2, 398602, Control_c, 0, 64, 108
2, 398606, Note_on_c, 0, 70, 63
2, 398622, Control_c, 0, 64, 115
2, 398640, Control_c, 0, 64, 123
2, 398657, Control_c, 0, 64, 127
2, 398669, Note_on_c, 0, 70, 0
2, 398670, Note_on_c, 0, 69, 70
2, 398767, Note_on_c, 0, 70, 74
2, 398768, Note_on_c, 0, 69, 0
2, 398827, Note_on_c, 0, 69, 64
2, 398843, Note_on_c, 0, 70, 0
2, 398895, Note_on_c, 0, 69, 0
2, 398906, Note_on_c, 0, 70, 68
2, 398977, Note_on_c, 0, 69, 70
2, 398979, Note_on_c, 0, 70, 0
2, 399053, Note_on_c, 0, 69, 0
2, 399057, Note_on_c, 0, 70, 69
2, 399103, Note_on_c, 0, 69, 66
2, 399137, Note_on_c, 0, 70, 0
2, 399195, Note_on_c, 0, 67, 84
2, 399204, Note_on_c, 0, 69, 0
2, 399370, Note_on_c, 0, 69, 94
2, 399408, Note_on_c, 0, 67, 0
2, 399430, Control_c, 0, 64, 123
2, 399451, Control_c, 0, 64, 97
2, 399466, Control_c, 0, 64, 63
2, 399486, Control_c, 0, 64, 0
2, 399639, Control_c, 0, 64, 26
2, 399657, Control_c, 0, 64, 57
2, 399675, Control_c, 0, 64, 81
2, 399709, Control_c, 0, 64, 106
2, 399728, Control_c, 0, 64, 127
2, 399760, Note_on_c, 0, 29, 0
2, 399786, Note_on_c, 0, 41, 0
2, 399864, Note_on_c, 0, 60, 0
2, 399873, Note_on_c, 0, 69, 0
2, 400424, Note_on_c, 0, 70, 97
2, 400527, Note_on_c, 0, 70, 0
2, 401145, Note_on_c, 0, 70, 87
2, 401147, Note_on_c, 0, 34, 87
2, 401147, Note_on_c, 0, 62, 85
2, 401148, Note_on_c, 0, 46, 89
2, 401151, Note_on_c, 0, 65, 83
2, 401222, Control_c, 0, 64, 117
2, 401240, Control_c, 0, 64, 92
2, 401261, Control_c, 0, 64, 67
2, 401280, Control_c, 0, 64, 40
2, 401297, Control_c, 0, 64, 23
2, 401410, Control_c, 0, 64, 19
2, 403551, Control_c, 0, 64, 23
2, 403594, Note_on_c, 0, 34, 0
2, 403604, Note_on_c, 0, 46, 0
2, 403621, Note_on_c, 0, 62, 0
2, 403624, Note_on_c, 0, 70, 0
2, 403632, Note_on_c, 0, 65, 0
2, 403633, End_track
0, 0, End_of_file
