0, 0, Header, 1, 2, 480
1, 0, Start_track
1, 0, Tempo, 500000
1, 0, Time_signature, 4, 2, 24, 8
1, 1, End_track
2, 0, Start_track
2, 0, Program_c, 0, 0
2, 0, Control_c, 0, 64, 127
2, 0, Control_c, 0, 66, 0
2, 0, Control_c, 0, 67, 0
2, 960, Note_on_c, 0, 58, 45
2, 960, Note_on_c, 0, 61, 41
2, 1413, Note_on_c, 0, 58, 0
2, 1890, Note_on_c, 0, 70, 46
2, 1899, Note_on_c, 0, 58, 31
2, 1912, Note_on_c, 0, 65, 39
2, 1996, Control_c, 0, 64, 99
2, 2014, Control_c, 0, 64, 72
2, 2033, Control_c, 0, 64, 58
2, 2056, Control_c, 0, 64, 40
2, 2072, Control_c, 0, 64, 28
2, 2111, Control_c, 0, 64, 31
2, 2131, Control_c, 0, 64, 36
2, 2148, Control_c, 0, 64, 45
2, 2171, Control_c, 0, 64, 55
2, 2189, Control_c, 0, 64, 62
2, 2208, Control_c, 0, 64, 65
2, 2226, Control_c, 0, 64, 68
2, 2246, Control_c, 0, 64, 72
2, 2268, Control_c, 0, 64, 81
2, 2272, Note_on_c, 0, 58, 0
2, 2285, Control_c, 0, 64, 97
2, 2290, Note_on_c, 0, 72, 55
2, 2302, Control_c, 0, 64, 127
2, 2339, Note_on_c, 0, 70, 0
2, 2507, Note_on_c, 0, 65, 0
2, 2676, Note_on_c, 0, 72, 0
2, 2695, Note_on_c, 0, 73, 54
2, 2722, Note_on_c, 0, 70, 39
2, 2743, Note_on_c, 0, 58, 28
2, 2783, Control_c, 0, 64, 116
2, 2803, Control_c, 0, 64, 84
2, 2821, Control_c, 0, 64, 66
2, 2841, Control_c, 0, 64, 52
2, 2859, Control_c, 0, 64, 33
2, 2879, Control_c, 0, 64, 24
2, 2898, Control_c, 0, 64, 25
2, 2920, Control_c, 0, 64, 30
2, 2938, Control_c, 0, 64, 37
2, 2955, Control_c, 0, 64, 47
2, 2973, Control_c, 0, 64, 57
2, 2997, Control_c, 0, 64, 63
2, 3016, Control_c, 0, 64, 66
2, 3020, Note_on_c, 0, 70, 0
2, 3031, Note_on_c, 0, 73, 0
2, 3035, Control_c, 0, 64, 68
2, 3053, Control_c, 0, 64, 74
2, 3060, Note_on_c, 0, 58, 0
2, 3073, Control_c, 0, 64, 84
2, 3090, Control_c, 0, 64, 103
2, 3112, Control_c, 0, 64, 127
2, 3152, Note_on_c, 0, 61, 0
2, 3540, Note_on_c, 0, 73, 67
2, 3576, Note_on_c, 0, 65, 37
2, 3576, Note_on_c, 0, 70, 53
2, 3582, Note_on_c, 0, 58, 36
2, 3582, Note_on_c, 0, 61, 37
2, 3980, Note_on_c, 0, 58, 0
2, 3984, Note_on_c, 0, 73, 0
2, 4002, Note_on_c, 0, 61, 0
2, 4002, Note_on_c, 0, 70, 0
2, 4405, Note_on_c, 0, 65, 0
2, 4429, Note_on_c, 0, 73, 73
2, 4442, Note_on_c, 0, 70, 65
2, 4446, Note_on_c, 0, 66, 45
2, 4460, Note_on_c, 0, 58, 40
2, 4460, Note_on_c, 0, 63, 44
2, 4588, Control_c, 0, 64, 94
2, 4607, Control_c, 0, 64, 74
2, 4627, Control_c, 0, 64, 59
2, 4645, Control_c, 0, 64, 34
2, 4664, Control_c, 0, 64, 0
2, 4760, Control_c, 0, 64, 25
2, 4781, Control_c, 0, 64, 43
2, 4799, Control_c, 0, 64, 57
2, 4821, Control_c, 0, 64, 64
2, 4840, Control_c, 0, 64, 67
2, 4858, Control_c, 0, 64, 70
2, 4877, Control_c, 0, 64, 76
2, 4897, Control_c, 0, 64, 88
2, 4915, Control_c, 0, 64, 127
2, 5035, Note_on_c, 0, 58, 0
2, 5104, Note_on_c, 0, 73, 0
2, 5298, Note_on_c, 0, 72, 62
2, 5307, Note_on_c, 0, 69, 45
2, 5340, Note_on_c, 0, 70, 0
2, 5347, Note_on_c, 0, 58, 37
2, 5378, Control_c, 0, 64, 103
2, 5394, Control_c, 0, 64, 76
2, 5414, Control_c, 0, 64, 61
2, 5431, Control_c, 0, 64, 40
2, 5452, Control_c, 0, 64, 0
2, 5548, Control_c, 0, 64, 13
2, 5567, Control_c, 0, 64, 31
2, 5585, Control_c, 0, 64, 45
2, 5605, Control_c, 0, 64, 57
2, 5625, Control_c, 0, 64, 63
2, 5645, Control_c, 0, 64, 65
2, 5664, Control_c, 0, 64, 67
2, 5684, Control_c, 0, 64, 70
2, 5688, Note_on_c, 0, 73, 65
2, 5699, Note_on_c, 0, 70, 58
2, 5704, Control_c, 0, 64, 75
2, 5724, Control_c, 0, 64, 82
2, 5739, Control_c, 0, 64, 92
2, 5759, Control_c, 0, 64, 102
2, 5768, Note_on_c, 0, 58, 0
2, 5772, Note_on_c, 0, 72, 0
2, 5778, Control_c, 0, 64, 110
2, 5794, Note_on_c, 0, 69, 0
2, 5798, Control_c, 0, 64, 115
2, 5913, Control_c, 0, 64, 112
2, 5933, Control_c, 0, 64, 108
2, 5950, Control_c, 0, 64, 102
2, 5971, Control_c, 0, 64, 95
2, 5988, Control_c, 0, 64, 89
2, 6009, Control_c, 0, 64, 83
2, 6029, Control_c, 0, 64, 78
2, 6046, Control_c, 0, 64, 72
2, 6066, Control_c, 0, 64, 65
2, 6075, Note_on_c, 0, 58, 39
2, 6086, Control_c, 0, 64, 58
2, 6105, Control_c, 0, 64, 51
2, 6105, Note_on_c, 0, 75, 66
2, 6118, Note_on_c, 0, 72, 60
2, 6125, Control_c, 0, 64, 41
2, 6144, Control_c, 0, 64, 17
2, 6151, Note_on_c, 0, 73, 0
2, 6163, Control_c, 0, 64, 0
2, 6198, Note_on_c, 0, 70, 0
2, 6375, Control_c, 0, 64, 35
2, 6393, Control_c, 0, 64, 47
2, 6411, Control_c, 0, 64, 54
2, 6431, Control_c, 0, 64, 61
2, 6451, Control_c, 0, 64, 65
2, 6470, Control_c, 0, 64, 70
2, 6487, Control_c, 0, 64, 85
2, 6500, Note_on_c, 0, 72, 0
2, 6509, Control_c, 0, 64, 127
2, 6539, Note_on_c, 0, 75, 0
2, 6617, Note_on_c, 0, 66, 0
2, 6623, Note_on_c, 0, 58, 0
2, 6623, Note_on_c, 0, 63, 0
2, 6905, Note_on_c, 0, 75, 70
2, 6921, Note_on_c, 0, 66, 45
2, 6923, Note_on_c, 0, 72, 66
2, 6932, Note_on_c, 0, 60, 48
2, 6942, Note_on_c, 0, 63, 47
2, 6967, Note_on_c, 0, 58, 43
2, 7009, Control_c, 0, 64, 82
2, 7026, Control_c, 0, 64, 62
2, 7046, Control_c, 0, 64, 20
2, 7064, Control_c, 0, 64, 0
2, 7198, Control_c, 0, 64, 33
2, 7220, Control_c, 0, 64, 49
2, 7239, Control_c, 0, 64, 61
2, 7256, Control_c, 0, 64, 68
2, 7274, Control_c, 0, 64, 81
2, 7296, Control_c, 0, 64, 127
2, 7312, Note_on_c, 0, 60, 0
2, 7343, Note_on_c, 0, 72, 0
2, 7343, Note_on_c, 0, 75, 0
2, 7425, Note_on_c, 0, 58, 0
2, 7784, Note_on_c, 0, 75, 68
2, 7795, Note_on_c, 0, 72, 62
2, 7813, Note_on_c, 0, 61, 40
2, 7822, Note_on_c, 0, 58, 38
2, 7822, Note_on_c, 0, 65, 40
2, 7844, Note_on_c, 0, 66, 0
2, 7875, Control_c, 0, 64, 99
2, 7897, Control_c, 0, 64, 78
2, 7913, Control_c, 0, 64, 64
2, 7931, Control_c, 0, 64, 52
2, 7951, Control_c, 0, 64, 35
2, 7966, Note_on_c, 0, 63, 0
2, 7972, Control_c, 0, 64, 0
2, 8442, Note_on_c, 0, 58, 0
2, 8636, Note_on_c, 0, 73, 60
2, 8645, Note_on_c, 0, 70, 46
2, 8666, Note_on_c, 0, 58, 30
2, 8772, Note_on_c, 0, 72, 0
2, 8787, Note_on_c, 0, 75, 0
2, 9012, Note_on_c, 0, 75, 65
2, 9021, Note_on_c, 0, 72, 59
2, 9114, Note_on_c, 0, 58, 0
2, 9125, Note_on_c, 0, 73, 0
2, 9423, Note_on_c, 0, 58, 42
2, 9436, Note_on_c, 0, 73, 63
2, 9436, Note_on_c, 0, 77, 66
2, 9495, Note_on_c, 0, 75, 0
2, 9500, Note_on_c, 0, 72, 0
2, 9506, Note_on_c, 0, 70, 0
2, 9603, Control_c, 0, 64, 21
2, 9621, Control_c, 0, 64, 38
2, 9643, Control_c, 0, 64, 51
2, 9659, Control_c, 0, 64, 60
2, 9679, Control_c, 0, 64, 63
2, 9699, Control_c, 0, 64, 65
2, 9717, Control_c, 0, 64, 70
2, 9724, Note_on_c, 0, 58, 0
2, 9724, Note_on_c, 0, 65, 0
2, 9734, Note_on_c, 0, 77, 0
2, 9737, Control_c, 0, 64, 84
2, 9755, Control_c, 0, 64, 127
2, 9780, Note_on_c, 0, 61, 0
2, 9799, Note_on_c, 0, 73, 0
2, 10225, Note_on_c, 0, 77, 77
2, 10231, Note_on_c, 0, 73, 69
2, 10247, Note_on_c, 0, 65, 41
2, 10254, Note_on_c, 0, 61, 45
2, 10256, Note_on_c, 0, 58, 43
2, 10658, Note_on_c, 0, 61, 0
2, 10665, Note_on_c, 0, 77, 0
2, 10714, Note_on_c, 0, 73, 0
2, 10749, Note_on_c, 0, 58, 0
2, 10948, Control_c, 0, 64, 120
2, 10964, Control_c, 0, 64, 113
2, 10985, Control_c, 0, 64, 108
2, 11003, Control_c, 0, 64, 104
2, 11023, Control_c, 0, 64, 101
2, 11041, Control_c, 0, 64, 98
2, 11061, Control_c, 0, 64, 96
2, 11070, Note_on_c, 0, 77, 81
2, 11081, Control_c, 0, 64, 93
2, 11086, Note_on_c, 0, 69, 49
2, 11088, Note_on_c, 0, 73, 65
2, 11099, Control_c, 0, 64, 90
2, 11103, Note_on_c, 0, 60, 46
2, 11108, Note_on_c, 0, 58, 49
2, 11119, Control_c, 0, 64, 85
2, 11137, Control_c, 0, 64, 78
2, 11153, Note_on_c, 0, 65, 0
2, 11157, Control_c, 0, 64, 71
2, 11180, Control_c, 0, 64, 62
2, 11196, Control_c, 0, 64, 50
2, 11217, Control_c, 0, 64, 17
2, 11233, Control_c, 0, 64, 0
2, 11368, Control_c, 0, 64, 31
2, 11388, Control_c, 0, 64, 49
2, 11406, Control_c, 0, 64, 61
2, 11427, Control_c, 0, 64, 66
2, 11447, Control_c, 0, 64, 70
2, 11464, Control_c, 0, 64, 78
2, 11483, Control_c, 0, 64, 90
2, 11503, Control_c, 0, 64, 122
2, 11523, Control_c, 0, 64, 127
2, 11708, Note_on_c, 0, 58, 0
2, 11925, Control_c, 0, 64, 107
2, 11932, Note_on_c, 0, 58, 31
2, 11946, Control_c, 0, 64, 95
2, 11951, Note_on_c, 0, 75, 62
2, 11964, Note_on_c, 0, 72, 53
2, 11967, Control_c, 0, 64, 85
2, 11983, Control_c, 0, 64, 75
2, 12002, Control_c, 0, 64, 63
2, 12020, Control_c, 0, 64, 49
2, 12040, Control_c, 0, 64, 0
2, 12049, Note_on_c, 0, 77, 0
2, 12053, Note_on_c, 0, 73, 0
2, 12304, Note_on_c, 0, 77, 79
2, 12313, Note_on_c, 0, 73, 70
2, 12411, Note_on_c, 0, 75, 0
2, 12427, Note_on_c, 0, 72, 0
2, 12478, Note_on_c, 0, 58, 0
2, 12732, Note_on_c, 0, 58, 42
2, 12732, Note_on_c, 0, 78, 82
2, 12751, Note_on_c, 0, 75, 64
2, 12789, Note_on_c, 0, 77, 0
2, 12849, Note_on_c, 0, 69, 0
2, 12885, Control_c, 0, 64, 27
2, 12896, Note_on_c, 0, 73, 0
2, 12904, Control_c, 0, 64, 44
2, 12923, Control_c, 0, 64, 58
2, 12943, Control_c, 0, 64, 64
2, 12961, Control_c, 0, 64, 68
2, 12980, Control_c, 0, 64, 75
2, 13001, Control_c, 0, 64, 93
2, 13005, Note_on_c, 0, 60, 0
2, 13019, Control_c, 0, 64, 127
2, 13019, Note_on_c, 0, 58, 0
2, 13037, Note_on_c, 0, 78, 0
2, 13082, Note_on_c, 0, 75, 0
2, 13548, Note_on_c, 0, 69, 73
2, 13548, Note_on_c, 0, 78, 80
2, 13562, Note_on_c, 0, 75, 69
2, 13580, Note_on_c, 0, 60, 53
2, 13584, Note_on_c, 0, 58, 45
2, 13652, Control_c, 0, 64, 80
2, 13671, Control_c, 0, 64, 58
2, 13693, Control_c, 0, 64, 18
2, 13711, Control_c, 0, 64, 0
2, 13826, Control_c, 0, 64, 18
2, 13845, Control_c, 0, 64, 40
2, 13864, Control_c, 0, 64, 55
2, 13881, Control_c, 0, 64, 63
2, 13905, Control_c, 0, 64, 66
2, 13925, Control_c, 0, 64, 69
2, 13940, Control_c, 0, 64, 76
2, 13960, Control_c, 0, 64, 90
2, 13980, Control_c, 0, 64, 127
2, 14016, Note_on_c, 0, 78, 0
2, 14029, Note_on_c, 0, 75, 0
2, 14124, Note_on_c, 0, 58, 0
2, 14234, Note_on_c, 0, 60, 0
2, 14242, Note_on_c, 0, 69, 0
2, 14469, Note_on_c, 0, 78, 80
2, 14481, Control_c, 0, 64, 100
2, 14486, Note_on_c, 0, 70, 60
2, 14486, Note_on_c, 0, 75, 65
2, 14490, Note_on_c, 0, 58, 48
2, 14499, Control_c, 0, 64, 79
2, 14518, Control_c, 0, 64, 66
2, 14538, Control_c, 0, 64, 53
2, 14555, Control_c, 0, 64, 25
2, 14577, Control_c, 0, 64, 0
2, 14690, Control_c, 0, 64, 18
2, 14707, Control_c, 0, 64, 40
2, 14729, Control_c, 0, 64, 56
2, 14747, Control_c, 0, 64, 65
2, 14765, Control_c, 0, 64, 74
2, 14788, Control_c, 0, 64, 92
2, 14808, Control_c, 0, 64, 127
2, 14841, Note_on_c, 0, 58, 0
2, 14991, Note_on_c, 0, 78, 0
2, 15368, Note_on_c, 0, 75, 0
2, 15373, Note_on_c, 0, 77, 61
2, 15390, Note_on_c, 0, 58, 46
2, 15399, Control_c, 0, 64, 109
2, 15408, Note_on_c, 0, 73, 56
2, 15420, Control_c, 0, 64, 96
2, 15437, Control_c, 0, 64, 87
2, 15458, Control_c, 0, 64, 76
2, 15476, Control_c, 0, 64, 69
2, 15496, Control_c, 0, 64, 64
2, 15517, Control_c, 0, 64, 60
2, 15537, Control_c, 0, 64, 58
2, 15575, Control_c, 0, 64, 57
2, 15592, Control_c, 0, 64, 54
2, 15610, Control_c, 0, 64, 50
2, 15630, Control_c, 0, 64, 45
2, 15653, Control_c, 0, 64, 40
2, 15672, Control_c, 0, 64, 34
2, 15688, Control_c, 0, 64, 27
2, 15709, Control_c, 0, 64, 14
2, 15727, Control_c, 0, 64, 0
2, 15759, Note_on_c, 0, 75, 59
2, 15771, Note_on_c, 0, 60, 55
2, 15818, Note_on_c, 0, 77, 0
2, 15890, Note_on_c, 0, 58, 0
2, 16172, Note_on_c, 0, 61, 54
2, 16177, Note_on_c, 0, 75, 0
2, 16177, Note_on_c, 0, 77, 61
2, 16220, Note_on_c, 0, 60, 0
2, 16379, Control_c, 0, 64, 19
2, 16399, Control_c, 0, 64, 31
2, 16417, Control_c, 0, 64, 45
2, 16438, Control_c, 0, 64, 57
2, 16456, Control_c, 0, 64, 63
2, 16475, Control_c, 0, 64, 67
2, 16495, Control_c, 0, 64, 73
2, 16513, Control_c, 0, 64, 85
2, 16534, Control_c, 0, 64, 127
2, 16605, Note_on_c, 0, 70, 0
2, 16623, Note_on_c, 0, 77, 0
2, 16634, Note_on_c, 0, 61, 0
2, 16712, Note_on_c, 0, 73, 0
2, 16973, Note_on_c, 0, 61, 66
2, 16988, Note_on_c, 0, 77, 62
2, 17002, Note_on_c, 0, 70, 52
2, 17002, Note_on_c, 0, 73, 56
2, 17347, Note_on_c, 0, 61, 0
2, 17369, Note_on_c, 0, 77, 0
2, 17422, Note_on_c, 0, 70, 0
2, 17779, Note_on_c, 0, 61, 63
2, 17782, Control_c, 0, 64, 115
2, 17793, Note_on_c, 0, 67, 61
2, 17793, Note_on_c, 0, 77, 70
2, 17798, Note_on_c, 0, 70, 56
2, 17802, Control_c, 0, 64, 84
2, 17817, Control_c, 0, 64, 67
2, 17839, Control_c, 0, 64, 51
2, 17859, Control_c, 0, 64, 0
2, 18008, Note_on_c, 0, 73, 0
2, 18031, Control_c, 0, 64, 29
2, 18049, Control_c, 0, 64, 41
2, 18069, Control_c, 0, 64, 55
2, 18088, Control_c, 0, 64, 64
2, 18106, Control_c, 0, 64, 69
2, 18126, Control_c, 0, 64, 80
2, 18146, Control_c, 0, 64, 111
2, 18166, Control_c, 0, 64, 127
2, 18218, Note_on_c, 0, 67, 0
2, 18569, Control_c, 0, 64, 103
2, 18587, Control_c, 0, 64, 89
2, 18609, Control_c, 0, 64, 78
2, 18613, Note_on_c, 0, 61, 0
2, 18613, Note_on_c, 0, 66, 50
2, 18613, Note_on_c, 0, 75, 60
2, 18626, Control_c, 0, 64, 69
2, 18646, Control_c, 0, 64, 62
2, 18646, Note_on_c, 0, 60, 44
2, 18669, Control_c, 0, 64, 57
2, 18669, Note_on_c, 0, 77, 0
2, 18683, Control_c, 0, 64, 52
2, 18703, Control_c, 0, 64, 49
2, 18722, Control_c, 0, 64, 46
2, 18740, Control_c, 0, 64, 39
2, 18760, Control_c, 0, 64, 22
2, 18779, Control_c, 0, 64, 0
2, 18981, Note_on_c, 0, 73, 64
2, 18985, Note_on_c, 0, 61, 51
2, 18989, Note_on_c, 0, 75, 0
2, 19018, Note_on_c, 0, 60, 0
2, 19373, Note_on_c, 0, 72, 63
2, 19388, Note_on_c, 0, 63, 45
2, 19392, Note_on_c, 0, 61, 0
2, 19413, Note_on_c, 0, 73, 0
2, 19445, Note_on_c, 0, 70, 0
2, 19534, Note_on_c, 0, 66, 0
2, 19569, Control_c, 0, 64, 29
2, 19585, Control_c, 0, 64, 47
2, 19607, Control_c, 0, 64, 59
2, 19624, Control_c, 0, 64, 63
2, 19644, Control_c, 0, 64, 64
2, 19662, Control_c, 0, 64, 66
2, 19681, Control_c, 0, 64, 72
2, 19703, Control_c, 0, 64, 89
2, 19710, Note_on_c, 0, 63, 0
2, 19720, Control_c, 0, 64, 127
2, 20141, Note_on_c, 0, 73, 71
2, 20145, Note_on_c, 0, 63, 61
2, 20153, Note_on_c, 0, 66, 52
2, 20153, Note_on_c, 0, 70, 60
2, 20226, Note_on_c, 0, 72, 0
2, 20447, Note_on_c, 0, 63, 0
2, 20526, Note_on_c, 0, 75, 77
2, 20681, Note_on_c, 0, 73, 0
2, 20723, Note_on_c, 0, 70, 0
2, 20760, Note_on_c, 0, 66, 0
2, 20873, Control_c, 0, 64, 109
2, 20892, Control_c, 0, 64, 94
2, 20912, Control_c, 0, 64, 84
2, 20930, Control_c, 0, 64, 76
2, 20949, Control_c, 0, 64, 69
2, 20967, Control_c, 0, 64, 64
2, 20976, Note_on_c, 0, 63, 56
2, 20980, Note_on_c, 0, 69, 69
2, 20989, Control_c, 0, 64, 60
2, 21006, Note_on_c, 0, 65, 55
2, 21010, Control_c, 0, 64, 54
2, 21025, Control_c, 0, 64, 45
2, 21044, Control_c, 0, 64, 20
2, 21065, Control_c, 0, 64, 0
2, 21125, Note_on_c, 0, 75, 0
2, 21217, Control_c, 0, 64, 34
2, 21235, Control_c, 0, 64, 52
2, 21257, Control_c, 0, 64, 64
2, 21275, Control_c, 0, 64, 72
2, 21283, Note_on_c, 0, 65, 0
2, 21294, Control_c, 0, 64, 87
2, 21314, Control_c, 0, 64, 127
2, 21372, Note_on_c, 0, 69, 0
2, 21812, Control_c, 0, 64, 106
2, 21831, Control_c, 0, 64, 93
2, 21840, Note_on_c, 0, 61, 47
2, 21840, Note_on_c, 0, 77, 72
2, 21847, Note_on_c, 0, 70, 61
2, 21851, Control_c, 0, 64, 83
2, 21873, Control_c, 0, 64, 76
2, 21889, Control_c, 0, 64, 69
2, 21908, Control_c, 0, 64, 63
2, 21917, Note_on_c, 0, 63, 0
2, 21930, Control_c, 0, 64, 58
2, 21947, Control_c, 0, 64, 56
2, 21965, Control_c, 0, 64, 55
2, 21985, Control_c, 0, 64, 53
2, 22007, Control_c, 0, 64, 48
2, 22024, Control_c, 0, 64, 38
2, 22042, Control_c, 0, 64, 12
2, 22062, Control_c, 0, 64, 0
2, 22222, Note_on_c, 0, 72, 69
2, 22235, Note_on_c, 0, 63, 49
2, 22294, Note_on_c, 0, 61, 0
2, 22444, Note_on_c, 0, 70, 0
2, 22613, Note_on_c, 0, 63, 0
2, 22645, Note_on_c, 0, 73, 67
2, 22655, Note_on_c, 0, 65, 38
2, 22673, Note_on_c, 0, 72, 0
2, 22717, Note_on_c, 0, 77, 0
2, 22737, Control_c, 0, 64, 18
2, 22753, Control_c, 0, 64, 34
2, 22775, Control_c, 0, 64, 46
2, 22792, Control_c, 0, 64, 57
2, 22811, Control_c, 0, 64, 63
2, 22829, Control_c, 0, 64, 67
2, 22849, Control_c, 0, 64, 73
2, 22869, Control_c, 0, 64, 87
2, 22889, Control_c, 0, 64, 127
2, 23013, Note_on_c, 0, 65, 0
2, 23473, Note_on_c, 0, 79, 70
2, 23493, Note_on_c, 0, 65, 32
2, 23762, Note_on_c, 0, 65, 0
2, 23773, Control_c, 0, 64, 122
2, 23788, Control_c, 0, 64, 113
2, 23810, Control_c, 0, 64, 108
2, 23829, Control_c, 0, 64, 104
2, 23847, Control_c, 0, 64, 100
2, 23863, Note_on_c, 0, 81, 73
2, 23868, Control_c, 0, 64, 97
2, 23885, Control_c, 0, 64, 96
2, 23908, Control_c, 0, 64, 95
2, 23928, Control_c, 0, 64, 94
2, 23965, Control_c, 0, 64, 93
2, 23983, Control_c, 0, 64, 92
2, 23999, Note_on_c, 0, 79, 0
2, 24004, Control_c, 0, 64, 91
2, 24040, Control_c, 0, 64, 90
2, 24057, Control_c, 0, 64, 89
2, 24116, Control_c, 0, 64, 88
2, 24195, Control_c, 0, 64, 87
2, 24253, Control_c, 0, 64, 86
2, 24271, Control_c, 0, 64, 84
2, 24288, Control_c, 0, 64, 83
2, 24308, Control_c, 0, 64, 81
2, 24325, Note_on_c, 0, 66, 50
2, 24329, Control_c, 0, 64, 80
2, 24334, Note_on_c, 0, 65, 43
2, 24338, Note_on_c, 0, 82, 76
2, 24347, Control_c, 0, 64, 78
2, 24367, Control_c, 0, 64, 75
2, 24385, Control_c, 0, 64, 70
2, 24392, Note_on_c, 0, 81, 0
2, 24405, Control_c, 0, 64, 64
2, 24425, Control_c, 0, 64, 57
2, 24444, Control_c, 0, 64, 46
2, 24462, Control_c, 0, 64, 0
2, 24542, Note_on_c, 0, 73, 0
2, 24635, Control_c, 0, 64, 31
2, 24653, Control_c, 0, 64, 48
2, 24673, Control_c, 0, 64, 62
2, 24692, Control_c, 0, 64, 66
2, 24712, Control_c, 0, 64, 68
2, 24730, Control_c, 0, 64, 71
2, 24749, Control_c, 0, 64, 77
2, 24770, Control_c, 0, 64, 92
2, 24779, Note_on_c, 0, 65, 0
2, 24789, Control_c, 0, 64, 127
2, 25189, Note_on_c, 0, 72, 53
2, 25225, Note_on_c, 0, 63, 33
2, 25231, Control_c, 0, 64, 118
2, 25251, Control_c, 0, 64, 106
2, 25269, Control_c, 0, 64, 100
2, 25289, Control_c, 0, 64, 94
2, 25307, Control_c, 0, 64, 89
2, 25326, Control_c, 0, 64, 86
2, 25347, Control_c, 0, 64, 83
2, 25365, Control_c, 0, 64, 80
2, 25382, Control_c, 0, 64, 77
2, 25403, Control_c, 0, 64, 74
2, 25423, Control_c, 0, 64, 71
2, 25441, Control_c, 0, 64, 68
2, 25461, Control_c, 0, 64, 66
2, 25480, Control_c, 0, 64, 64
2, 25499, Control_c, 0, 64, 62
2, 25518, Control_c, 0, 64, 61
2, 25555, Control_c, 0, 64, 60
2, 25571, Note_on_c, 0, 73, 64
2, 25575, Control_c, 0, 64, 59
2, 25580, Note_on_c, 0, 61, 35
2, 25595, Control_c, 0, 64, 58
2, 25615, Control_c, 0, 64, 56
2, 25635, Control_c, 0, 64, 54
2, 25653, Control_c, 0, 64, 51
2, 25674, Control_c, 0, 64, 47
2, 25691, Control_c, 0, 64, 41
2, 25711, Control_c, 0, 64, 35
2, 25731, Control_c, 0, 64, 29
2, 25736, Note_on_c, 0, 63, 0
2, 25749, Control_c, 0, 64, 21
2, 25767, Control_c, 0, 64, 0
2, 25813, Note_on_c, 0, 72, 0
2, 25965, Note_on_c, 0, 75, 53
2, 25983, Note_on_c, 0, 60, 36
2, 26041, Note_on_c, 0, 61, 0
2, 26046, Note_on_c, 0, 73, 0
2, 26211, Control_c, 0, 64, 13
2, 26229, Control_c, 0, 64, 27
2, 26247, Control_c, 0, 64, 38
2, 26266, Control_c, 0, 64, 48
2, 26285, Control_c, 0, 64, 56
2, 26308, Control_c, 0, 64, 60
2, 26323, Control_c, 0, 64, 61
2, 26343, Control_c, 0, 64, 62
2, 26364, Control_c, 0, 64, 63
2, 26384, Control_c, 0, 64, 65
2, 26403, Control_c, 0, 64, 67
2, 26421, Control_c, 0, 64, 72
2, 26441, Control_c, 0, 64, 80
2, 26459, Control_c, 0, 64, 94
2, 26478, Control_c, 0, 64, 113
2, 26497, Control_c, 0, 64, 127
2, 26768, Note_on_c, 0, 81, 63
2, 26787, Note_on_c, 0, 58, 42
2, 26848, Note_on_c, 0, 82, 0
2, 26861, Control_c, 0, 64, 109
2, 26884, Control_c, 0, 64, 101
2, 26902, Control_c, 0, 64, 95
2, 26920, Control_c, 0, 64, 90
2, 26920, Note_on_c, 0, 60, 0
2, 26940, Control_c, 0, 64, 86
2, 26961, Control_c, 0, 64, 83
2, 26977, Control_c, 0, 64, 81
2, 26997, Control_c, 0, 64, 79
2, 27016, Control_c, 0, 64, 76
2, 27035, Control_c, 0, 64, 73
2, 27055, Control_c, 0, 64, 69
2, 27073, Control_c, 0, 64, 65
2, 27094, Control_c, 0, 64, 62
2, 27112, Control_c, 0, 64, 60
2, 27131, Control_c, 0, 64, 59
2, 27135, Note_on_c, 0, 82, 73
2, 27169, Control_c, 0, 64, 57
2, 27189, Control_c, 0, 64, 55
2, 27207, Control_c, 0, 64, 50
2, 27227, Control_c, 0, 64, 44
2, 27247, Control_c, 0, 64, 37
2, 27265, Control_c, 0, 64, 28
2, 27285, Control_c, 0, 64, 11
2, 27303, Control_c, 0, 64, 0
2, 27346, Note_on_c, 0, 81, 0
2, 27599, Note_on_c, 0, 57, 46
2, 27633, Note_on_c, 0, 84, 71
2, 27662, Note_on_c, 0, 58, 0
2, 27757, Note_on_c, 0, 82, 0
2, 27794, Note_on_c, 0, 75, 0
2, 27957, Control_c, 0, 64, 18
2, 27975, Control_c, 0, 64, 35
2, 27993, Control_c, 0, 64, 47
2, 28017, Control_c, 0, 64, 57
2, 28033, Control_c, 0, 64, 61
2, 28054, Control_c, 0, 64, 62
2, 28071, Control_c, 0, 64, 63
2, 28090, Control_c, 0, 64, 65
2, 28110, Control_c, 0, 64, 70
2, 28131, Control_c, 0, 64, 85
2, 28147, Control_c, 0, 64, 127
2, 28489, Note_on_c, 0, 78, 53
2, 28500, Note_on_c, 0, 75, 49
2, 28533, Control_c, 0, 64, 99
2, 28552, Control_c, 0, 64, 70
2, 28571, Control_c, 0, 64, 55
2, 28591, Control_c, 0, 64, 37
2, 28611, Control_c, 0, 64, 38
2, 28629, Control_c, 0, 64, 47
2, 28649, Control_c, 0, 64, 58
2, 28667, Control_c, 0, 64, 66
2, 28685, Control_c, 0, 64, 71
2, 28702, Note_on_c, 0, 75, 0
2, 28706, Control_c, 0, 64, 82
2, 28711, Note_on_c, 0, 78, 0
2, 28726, Control_c, 0, 64, 102
2, 28744, Control_c, 0, 64, 127
2, 28882, Note_on_c, 0, 77, 51
2, 28891, Note_on_c, 0, 73, 51
2, 28919, Control_c, 0, 64, 116
2, 28936, Control_c, 0, 64, 76
2, 28957, Control_c, 0, 64, 59
2, 28975, Control_c, 0, 64, 51
2, 28997, Control_c, 0, 64, 55
2, 29012, Control_c, 0, 64, 60
2, 29028, Note_on_c, 0, 77, 0
2, 29033, Control_c, 0, 64, 63
2, 29053, Control_c, 0, 64, 66
2, 29058, Note_on_c, 0, 84, 0
2, 29069, Control_c, 0, 64, 71
2, 29091, Control_c, 0, 64, 81
2, 29108, Control_c, 0, 64, 101
2, 29128, Control_c, 0, 64, 127
2, 29139, Note_on_c, 0, 73, 0
2, 29293, Note_on_c, 0, 75, 43
2, 29317, Note_on_c, 0, 72, 46
2, 29362, Control_c, 0, 64, 120
2, 29379, Control_c, 0, 64, 82
2, 29397, Control_c, 0, 64, 66
2, 29415, Control_c, 0, 64, 56
2, 29436, Control_c, 0, 64, 48
2, 29454, Control_c, 0, 64, 47
2, 29473, Control_c, 0, 64, 50
2, 29491, Control_c, 0, 64, 55
2, 29512, Control_c, 0, 64, 60
2, 29529, Control_c, 0, 64, 63
2, 29549, Control_c, 0, 64, 65
2, 29569, Control_c, 0, 64, 68
2, 29591, Control_c, 0, 64, 74
2, 29608, Control_c, 0, 64, 86
2, 29628, Control_c, 0, 64, 127
2, 29684, Note_on_c, 0, 57, 0
2, 29801, Note_on_c, 0, 75, 0
2, 30128, Note_on_c, 0, 84, 68
2, 30166, Note_on_c, 0, 57, 46
2, 30312, Note_on_c, 0, 72, 0
2, 30492, Note_on_c, 0, 82, 72
2, 30516, Note_on_c, 0, 58, 56
2, 30526, Note_on_c, 0, 66, 0
2, 30530, Control_c, 0, 64, 115
2, 30547, Control_c, 0, 64, 110
2, 30570, Control_c, 0, 64, 106
2, 30579, Note_on_c, 0, 57, 0
2, 30588, Control_c, 0, 64, 101
2, 30606, Control_c, 0, 64, 96
2, 30628, Control_c, 0, 64, 92
2, 30643, Control_c, 0, 64, 88
2, 30666, Control_c, 0, 64, 85
2, 30670, Note_on_c, 0, 84, 0
2, 30687, Control_c, 0, 64, 83
2, 30702, Control_c, 0, 64, 79
2, 30722, Control_c, 0, 64, 76
2, 30740, Control_c, 0, 64, 72
2, 30761, Control_c, 0, 64, 69
2, 30779, Control_c, 0, 64, 67
2, 30796, Control_c, 0, 64, 66
2, 30816, Control_c, 0, 64, 65
2, 30854, Control_c, 0, 64, 64
2, 30894, Control_c, 0, 64, 63
2, 30915, Control_c, 0, 64, 61
2, 30934, Control_c, 0, 64, 60
2, 30939, Note_on_c, 0, 81, 69
2, 30953, Control_c, 0, 64, 58
2, 30967, Note_on_c, 0, 60, 43
2, 30971, Control_c, 0, 64, 56
2, 30989, Control_c, 0, 64, 53
2, 31008, Control_c, 0, 64, 49
2, 31030, Control_c, 0, 64, 43
2, 31034, Note_on_c, 0, 82, 0
2, 31047, Control_c, 0, 64, 34
2, 31068, Control_c, 0, 64, 11
2, 31075, Note_on_c, 0, 58, 0
2, 31087, Control_c, 0, 64, 0
2, 31846, Note_on_c, 0, 75, 51
2, 31864, Note_on_c, 0, 72, 38
2, 32222, Note_on_c, 0, 73, 54
2, 32249, Note_on_c, 0, 70, 32
2, 32271, Note_on_c, 0, 72, 0
2, 32307, Note_on_c, 0, 75, 0
2, 32575, Note_on_c, 0, 81, 0
2, 32619, Note_on_c, 0, 69, 37
2, 32624, Note_on_c, 0, 72, 49
2, 32710, Note_on_c, 0, 70, 0
2, 32757, Note_on_c, 0, 73, 0
2, 32815, Control_c, 0, 64, 11
2, 32835, Control_c, 0, 64, 27
2, 32853, Control_c, 0, 64, 39
2, 32870, Control_c, 0, 64, 49
2, 32890, Control_c, 0, 64, 56
2, 32910, Control_c, 0, 64, 60
2, 32932, Control_c, 0, 64, 61
2, 32936, Note_on_c, 0, 60, 0
2, 32948, Control_c, 0, 64, 63
2, 32968, Control_c, 0, 64, 65
2, 32985, Control_c, 0, 64, 68
2, 33008, Control_c, 0, 64, 73
2, 33024, Control_c, 0, 64, 83
2, 33045, Control_c, 0, 64, 98
2, 33067, Control_c, 0, 64, 127
2, 33412, Note_on_c, 0, 81, 69
2, 33424, Note_on_c, 0, 60, 44
2, 33707, Note_on_c, 0, 69, 0
2, 33782, Note_on_c, 0, 84, 75
2, 33791, Note_on_c, 0, 61, 45
2, 33858, Note_on_c, 0, 81, 0
2, 33935, Note_on_c, 0, 60, 0
2, 33949, Control_c, 0, 64, 104
2, 33965, Control_c, 0, 64, 92
2, 33987, Control_c, 0, 64, 84
2, 34005, Control_c, 0, 64, 78
2, 34024, Control_c, 0, 64, 74
2, 34043, Control_c, 0, 64, 71
2, 34061, Control_c, 0, 64, 68
2, 34084, Control_c, 0, 64, 66
2, 34101, Control_c, 0, 64, 64
2, 34120, Control_c, 0, 64, 62
2, 34139, Control_c, 0, 64, 61
2, 34158, Control_c, 0, 64, 60
2, 34179, Control_c, 0, 64, 59
2, 34197, Control_c, 0, 64, 57
2, 34199, Note_on_c, 0, 77, 75
2, 34218, Control_c, 0, 64, 54
2, 34223, Note_on_c, 0, 63, 45
2, 34232, Note_on_c, 0, 61, 0
2, 34236, Control_c, 0, 64, 50
2, 34255, Control_c, 0, 64, 43
2, 34255, Note_on_c, 0, 72, 0
2, 34275, Control_c, 0, 64, 33
2, 34292, Control_c, 0, 64, 19
2, 34312, Control_c, 0, 64, 0
2, 34317, Note_on_c, 0, 84, 0
2, 35004, Note_on_c, 0, 69, 46
2, 35027, Note_on_c, 0, 65, 31
2, 35366, Note_on_c, 0, 70, 57
2, 35385, Note_on_c, 0, 67, 40
2, 35411, Note_on_c, 0, 69, 0
2, 35473, Note_on_c, 0, 65, 0
2, 35785, Note_on_c, 0, 72, 54
2, 35802, Note_on_c, 0, 69, 36
2, 35806, Note_on_c, 0, 70, 0
2, 35825, Note_on_c, 0, 67, 0
2, 35944, Control_c, 0, 64, 9
2, 35963, Control_c, 0, 64, 28
2, 35981, Control_c, 0, 64, 40
2, 36000, Control_c, 0, 64, 52
2, 36022, Control_c, 0, 64, 60
2, 36038, Control_c, 0, 64, 62
2, 36058, Control_c, 0, 64, 63
2, 36077, Control_c, 0, 64, 64
2, 36097, Control_c, 0, 64, 66
2, 36117, Control_c, 0, 64, 69
2, 36134, Control_c, 0, 64, 74
2, 36154, Control_c, 0, 64, 82
2, 36174, Control_c, 0, 64, 93
2, 36194, Control_c, 0, 64, 109
2, 36205, Note_on_c, 0, 72, 0
2, 36215, Control_c, 0, 64, 127
2, 36215, Note_on_c, 0, 63, 0
2, 36594, Note_on_c, 0, 72, 58
2, 36607, Note_on_c, 0, 63, 37
2, 36655, Control_c, 0, 64, 116
2, 36672, Control_c, 0, 64, 112
2, 36693, Control_c, 0, 64, 109
2, 36711, Control_c, 0, 64, 106
2, 36733, Control_c, 0, 64, 104
2, 36750, Control_c, 0, 64, 103
2, 36770, Control_c, 0, 64, 101
2, 36791, Control_c, 0, 64, 100
2, 36806, Control_c, 0, 64, 99
2, 36827, Control_c, 0, 64, 98
2, 36864, Control_c, 0, 64, 97
2, 36883, Control_c, 0, 64, 95
2, 36903, Control_c, 0, 64, 94
2, 36924, Control_c, 0, 64, 92
2, 36937, Note_on_c, 0, 73, 68
2, 36941, Control_c, 0, 64, 91
2, 36952, Note_on_c, 0, 61, 42
2, 36961, Control_c, 0, 64, 89
2, 36981, Control_c, 0, 64, 88
2, 36995, Note_on_c, 0, 63, 0
2, 37001, Control_c, 0, 64, 86
2, 37019, Control_c, 0, 64, 85
2, 37035, Note_on_c, 0, 72, 0
2, 37039, Control_c, 0, 64, 83
2, 37057, Control_c, 0, 64, 82
2, 37078, Control_c, 0, 64, 80
2, 37095, Control_c, 0, 64, 79
2, 37115, Control_c, 0, 64, 77
2, 37133, Control_c, 0, 64, 75
2, 37155, Control_c, 0, 64, 73
2, 37173, Control_c, 0, 64, 71
2, 37190, Control_c, 0, 64, 68
2, 37212, Control_c, 0, 64, 66
2, 37230, Control_c, 0, 64, 65
2, 37251, Note_on_c, 0, 69, 0
2, 37268, Control_c, 0, 64, 64
2, 37308, Control_c, 0, 64, 63
2, 37326, Control_c, 0, 64, 61
2, 37345, Control_c, 0, 64, 59
2, 37364, Control_c, 0, 64, 57
2, 37368, Note_on_c, 0, 60, 37
2, 37384, Control_c, 0, 64, 54
2, 37384, Note_on_c, 0, 75, 61
2, 37402, Control_c, 0, 64, 46
2, 37423, Control_c, 0, 64, 23
2, 37443, Control_c, 0, 64, 0
2, 37447, Note_on_c, 0, 61, 0
2, 37481, Note_on_c, 0, 73, 0
2, 37576, Control_c, 0, 64, 11
2, 37595, Control_c, 0, 64, 33
2, 37612, Control_c, 0, 64, 50
2, 37634, Control_c, 0, 64, 60
2, 37652, Control_c, 0, 64, 65
2, 37673, Control_c, 0, 64, 67
2, 37690, Control_c, 0, 64, 71
2, 37709, Control_c, 0, 64, 78
2, 37732, Control_c, 0, 64, 91
2, 37747, Control_c, 0, 64, 127
2, 37810, Note_on_c, 0, 60, 0
2, 38145, Note_on_c, 0, 72, 65
2, 38170, Note_on_c, 0, 60, 51
2, 38170, Note_on_c, 0, 69, 52
2, 38323, Note_on_c, 0, 69, 0
2, 38384, Control_c, 0, 64, 122
2, 38399, Control_c, 0, 64, 113
2, 38420, Control_c, 0, 64, 109
2, 38441, Control_c, 0, 64, 105
2, 38458, Control_c, 0, 64, 102
2, 38477, Control_c, 0, 64, 99
2, 38496, Control_c, 0, 64, 97
2, 38516, Control_c, 0, 64, 96
2, 38521, Note_on_c, 0, 73, 77
2, 38525, Note_on_c, 0, 58, 56
2, 38529, Note_on_c, 0, 70, 61
2, 38539, Control_c, 0, 64, 95
2, 38554, Control_c, 0, 64, 94
2, 38572, Control_c, 0, 64, 92
2, 38596, Control_c, 0, 64, 90
2, 38596, Note_on_c, 0, 72, 0
2, 38612, Control_c, 0, 64, 87
2, 38617, Note_on_c, 0, 75, 0
2, 38630, Control_c, 0, 64, 85
2, 38649, Control_c, 0, 64, 83
2, 38671, Control_c, 0, 64, 81
2, 38689, Control_c, 0, 64, 80
2, 38700, Note_on_c, 0, 60, 0
2, 38709, Control_c, 0, 64, 78
2, 38727, Control_c, 0, 64, 76
2, 38747, Control_c, 0, 64, 74
2, 38765, Control_c, 0, 64, 72
2, 38786, Control_c, 0, 64, 71
2, 38807, Control_c, 0, 64, 70
2, 38824, Control_c, 0, 64, 69
2, 38841, Control_c, 0, 64, 68
2, 38862, Control_c, 0, 64, 67
2, 38881, Control_c, 0, 64, 66
2, 38901, Control_c, 0, 64, 65
2, 38919, Control_c, 0, 64, 63
2, 38939, Control_c, 0, 64, 62
2, 38958, Control_c, 0, 64, 61
2, 38977, Control_c, 0, 64, 60
2, 38986, Note_on_c, 0, 75, 66
2, 39010, Note_on_c, 0, 57, 48
2, 39010, Note_on_c, 0, 72, 46
2, 39014, Control_c, 0, 64, 59
2, 39036, Control_c, 0, 64, 57
2, 39036, Note_on_c, 0, 70, 0
2, 39055, Control_c, 0, 64, 55
2, 39073, Control_c, 0, 64, 53
2, 39092, Control_c, 0, 64, 49
2, 39112, Control_c, 0, 64, 45
2, 39123, Note_on_c, 0, 73, 0
2, 39132, Control_c, 0, 64, 37
2, 39152, Control_c, 0, 64, 28
2, 39155, Note_on_c, 0, 58, 0
2, 39170, Control_c, 0, 64, 15
2, 39190, Control_c, 0, 64, 0
2, 39793, Note_on_c, 0, 69, 40
2, 39804, Note_on_c, 0, 55, 39
2, 39932, Note_on_c, 0, 57, 0
2, 40188, Note_on_c, 0, 53, 50
2, 40218, Note_on_c, 0, 55, 0
2, 40665, Note_on_c, 0, 77, 0
2, 40683, Note_on_c, 0, 65, 50
2, 40721, Note_on_c, 0, 58, 36
2, 40728, Note_on_c, 0, 69, 0
2, 40790, Note_on_c, 0, 72, 0
2, 40790, Note_on_c, 0, 75, 0
2, 40870, Note_on_c, 0, 53, 0
2, 41316, Control_c, 0, 64, 17
2, 41336, Control_c, 0, 64, 27
2, 41354, Control_c, 0, 64, 31
2, 41374, Control_c, 0, 64, 35
2, 41394, Control_c, 0, 64, 40
2, 41412, Control_c, 0, 64, 47
2, 41431, Control_c, 0, 64, 54
2, 41449, Control_c, 0, 64, 58
2, 41469, Control_c, 0, 64, 59
2, 41508, Control_c, 0, 64, 60
2, 41528, Control_c, 0, 64, 61
2, 41546, Control_c, 0, 64, 62
2, 41565, Control_c, 0, 64, 63
2, 41588, Control_c, 0, 64, 64
2, 41623, Control_c, 0, 64, 65
2, 41639, Note_on_c, 0, 77, 49
2, 41643, Control_c, 0, 64, 67
2, 41665, Control_c, 0, 64, 70
2, 41679, Control_c, 0, 64, 75
2, 41701, Control_c, 0, 64, 83
2, 41701, Note_on_c, 0, 73, 38
2, 41722, Control_c, 0, 64, 96
2, 41738, Control_c, 0, 64, 127
2, 42040, Note_on_c, 0, 75, 58
2, 42044, Note_on_c, 0, 72, 57
2, 42093, Note_on_c, 0, 73, 0
2, 42353, Control_c, 0, 64, 113
2, 42373, Control_c, 0, 64, 108
2, 42392, Control_c, 0, 64, 104
2, 42410, Control_c, 0, 64, 100
2, 42430, Control_c, 0, 64, 95
2, 42450, Control_c, 0, 64, 90
2, 42455, Note_on_c, 0, 73, 68
2, 42459, Note_on_c, 0, 70, 51
2, 42468, Control_c, 0, 64, 81
2, 42486, Control_c, 0, 64, 70
2, 42508, Control_c, 0, 64, 61
2, 42526, Control_c, 0, 64, 47
2, 42531, Note_on_c, 0, 72, 0
2, 42545, Control_c, 0, 64, 24
2, 42565, Control_c, 0, 64, 0
2, 42642, Control_c, 0, 64, 22
2, 42660, Control_c, 0, 64, 38
2, 42682, Control_c, 0, 64, 52
2, 42687, Note_on_c, 0, 77, 0
2, 42689, Note_on_c, 0, 75, 0
2, 42697, Control_c, 0, 64, 62
2, 42718, Control_c, 0, 64, 66
2, 42738, Control_c, 0, 64, 67
2, 42756, Control_c, 0, 64, 69
2, 42775, Control_c, 0, 64, 72
2, 42796, Control_c, 0, 64, 79
2, 42816, Control_c, 0, 64, 91
2, 42833, Control_c, 0, 64, 122
2, 42851, Control_c, 0, 64, 127
2, 42967, Note_on_c, 0, 70, 0
2, 43297, Note_on_c, 0, 65, 0
2, 43300, Note_on_c, 0, 75, 63
2, 43315, Note_on_c, 0, 66, 40
2, 43315, Note_on_c, 0, 69, 48
2, 43352, Control_c, 0, 64, 109
2, 43369, Control_c, 0, 64, 101
2, 43387, Note_on_c, 0, 73, 0
2, 43391, Control_c, 0, 64, 94
2, 43408, Control_c, 0, 64, 89
2, 43426, Control_c, 0, 64, 85
2, 43449, Control_c, 0, 64, 82
2, 43468, Control_c, 0, 64, 80
2, 43485, Control_c, 0, 64, 78
2, 43505, Control_c, 0, 64, 74
2, 43525, Control_c, 0, 64, 71
2, 43543, Control_c, 0, 64, 67
2, 43563, Control_c, 0, 64, 64
2, 43581, Control_c, 0, 64, 62
2, 43602, Control_c, 0, 64, 61
2, 43639, Control_c, 0, 64, 60
2, 43659, Control_c, 0, 64, 59
2, 43677, Control_c, 0, 64, 57
2, 43696, Control_c, 0, 64, 54
2, 43716, Control_c, 0, 64, 50
2, 43721, Note_on_c, 0, 72, 61
2, 43735, Control_c, 0, 64, 44
2, 43750, Note_on_c, 0, 63, 38
2, 43756, Control_c, 0, 64, 38
2, 43774, Note_on_c, 0, 69, 0
2, 43778, Control_c, 0, 64, 32
2, 43791, Control_c, 0, 64, 25
2, 43802, Note_on_c, 0, 66, 0
2, 43813, Control_c, 0, 64, 0
2, 43826, Note_on_c, 0, 75, 0
2, 44172, Note_on_c, 0, 72, 0
2, 44189, Note_on_c, 0, 63, 0
2, 44189, Note_on_c, 0, 73, 50
2, 44211, Note_on_c, 0, 65, 31
2, 44215, Note_on_c, 0, 70, 40
2, 44292, Control_c, 0, 64, 14
2, 44310, Control_c, 0, 64, 29
2, 44331, Control_c, 0, 64, 41
2, 44350, Control_c, 0, 64, 53
2, 44368, Control_c, 0, 64, 60
2, 44390, Control_c, 0, 64, 62
2, 44428, Control_c, 0, 64, 63
2, 44446, Control_c, 0, 64, 65
2, 44466, Control_c, 0, 64, 68
2, 44485, Note_on_c, 0, 70, 0
2, 44489, Control_c, 0, 64, 73
2, 44504, Control_c, 0, 64, 82
2, 44522, Control_c, 0, 64, 90
2, 44541, Control_c, 0, 64, 97
2, 44561, Control_c, 0, 64, 102
2, 44579, Note_on_c, 0, 73, 0
2, 44583, Control_c, 0, 64, 109
2, 44600, Control_c, 0, 64, 127
2, 45103, Note_on_c, 0, 70, 58
2, 45145, Note_on_c, 0, 61, 36
2, 45328, Control_c, 0, 64, 113
2, 45351, Control_c, 0, 64, 106
2, 45367, Control_c, 0, 64, 101
2, 45386, Control_c, 0, 64, 98
2, 45406, Control_c, 0, 64, 97
2, 45442, Note_on_c, 0, 58, 0
2, 45444, Control_c, 0, 64, 96
2, 45464, Control_c, 0, 64, 95
2, 45479, Note_on_c, 0, 72, 74
2, 45484, Control_c, 0, 64, 92
2, 45488, Note_on_c, 0, 60, 48
2, 45502, Control_c, 0, 64, 89
2, 45522, Control_c, 0, 64, 86
2, 45539, Control_c, 0, 64, 84
2, 45560, Control_c, 0, 64, 82
2, 45577, Control_c, 0, 64, 81
2, 45616, Control_c, 0, 64, 80
2, 45620, Note_on_c, 0, 61, 0
2, 45635, Control_c, 0, 64, 78
2, 45645, Note_on_c, 0, 70, 0
2, 45657, Control_c, 0, 64, 76
2, 45677, Control_c, 0, 64, 73
2, 45693, Control_c, 0, 64, 70
2, 45710, Note_on_c, 0, 65, 0
2, 45714, Control_c, 0, 64, 67
2, 45737, Control_c, 0, 64, 65
2, 45751, Control_c, 0, 64, 63
2, 45770, Control_c, 0, 64, 62
2, 45846, Control_c, 0, 64, 61
2, 45866, Control_c, 0, 64, 60
2, 45884, Note_on_c, 0, 60, 0
2, 45886, Control_c, 0, 64, 57
2, 45904, Control_c, 0, 64, 53
2, 45910, Note_on_c, 0, 73, 74
2, 45926, Control_c, 0, 64, 44
2, 45926, Note_on_c, 0, 58, 41
2, 45944, Control_c, 0, 64, 18
2, 45963, Control_c, 0, 64, 0
2, 46020, Note_on_c, 0, 72, 0
2, 46118, Control_c, 0, 64, 18
2, 46138, Control_c, 0, 64, 36
2, 46156, Control_c, 0, 64, 53
2, 46173, Control_c, 0, 64, 62
2, 46193, Control_c, 0, 64, 64
2, 46213, Control_c, 0, 64, 65
2, 46235, Control_c, 0, 64, 67
2, 46250, Control_c, 0, 64, 71
2, 46272, Control_c, 0, 64, 80
2, 46289, Control_c, 0, 64, 103
2, 46309, Control_c, 0, 64, 127
2, 46365, Note_on_c, 0, 73, 0
2, 46718, Note_on_c, 0, 73, 76
2, 46730, Control_c, 0, 64, 104
2, 46734, Note_on_c, 0, 70, 59
2, 46747, Note_on_c, 0, 56, 43
2, 46747, Note_on_c, 0, 65, 54
2, 46752, Control_c, 0, 64, 93
2, 46765, Note_on_c, 0, 58, 0
2, 46772, Control_c, 0, 64, 77
2, 46789, Control_c, 0, 64, 63
2, 46808, Control_c, 0, 64, 42
2, 46828, Control_c, 0, 64, 0
2, 46904, Control_c, 0, 64, 11
2, 46921, Control_c, 0, 64, 37
2, 46942, Control_c, 0, 64, 54
2, 46961, Control_c, 0, 64, 65
2, 46981, Control_c, 0, 64, 73
2, 46998, Control_c, 0, 64, 88
2, 47021, Control_c, 0, 64, 127
2, 47021, Note_on_c, 0, 65, 0
2, 47060, Note_on_c, 0, 70, 0
2, 47107, Note_on_c, 0, 73, 0
2, 47515, Note_on_c, 0, 73, 82
2, 47542, Note_on_c, 0, 70, 63
2, 47548, Note_on_c, 0, 55, 47
2, 47553, Note_on_c, 0, 56, 0
2, 47553, Note_on_c, 0, 63, 58
2, 47633, Control_c, 0, 64, 84
2, 47652, Control_c, 0, 64, 63
2, 47674, Control_c, 0, 64, 38
2, 47689, Control_c, 0, 64, 0
2, 47805, Control_c, 0, 64, 32
2, 47826, Control_c, 0, 64, 46
2, 47846, Control_c, 0, 64, 58
2, 47850, Note_on_c, 0, 63, 0
2, 47863, Control_c, 0, 64, 64
2, 47885, Control_c, 0, 64, 68
2, 47903, Control_c, 0, 64, 73
2, 47923, Control_c, 0, 64, 85
2, 47923, Note_on_c, 0, 70, 0
2, 47941, Control_c, 0, 64, 127
2, 48309, Note_on_c, 0, 72, 76
2, 48331, Note_on_c, 0, 55, 0
2, 48331, Note_on_c, 0, 68, 59
2, 48342, Note_on_c, 0, 56, 51
2, 48344, Note_on_c, 0, 63, 51
2, 48400, Control_c, 0, 64, 95
2, 48420, Control_c, 0, 64, 80
2, 48438, Control_c, 0, 64, 71
2, 48458, Control_c, 0, 64, 65
2, 48478, Control_c, 0, 64, 60
2, 48496, Control_c, 0, 64, 53
2, 48515, Control_c, 0, 64, 47
2, 48534, Control_c, 0, 64, 37
2, 48557, Control_c, 0, 64, 19
2, 48575, Control_c, 0, 64, 0
2, 48692, Note_on_c, 0, 70, 71
2, 48697, Note_on_c, 0, 55, 55
2, 48701, Note_on_c, 0, 56, 0
2, 48705, Note_on_c, 0, 73, 0
2, 48762, Note_on_c, 0, 72, 0
2, 49076, Note_on_c, 0, 72, 78
2, 49099, Note_on_c, 0, 53, 54
2, 49141, Note_on_c, 0, 70, 0
2, 49147, Note_on_c, 0, 55, 0
2, 49228, Control_c, 0, 64, 32
2, 49248, Control_c, 0, 64, 50
2, 49265, Control_c, 0, 64, 61
2, 49276, Note_on_c, 0, 63, 0
2, 49285, Control_c, 0, 64, 64
2, 49304, Control_c, 0, 64, 65
2, 49322, Control_c, 0, 64, 70
2, 49340, Control_c, 0, 64, 83
2, 49360, Control_c, 0, 64, 127
2, 49373, Note_on_c, 0, 68, 0
2, 49400, Note_on_c, 0, 72, 0
2, 49849, Note_on_c, 0, 72, 80
2, 49865, Note_on_c, 0, 51, 57
2, 49865, Note_on_c, 0, 68, 70
2, 49916, Control_c, 0, 64, 89
2, 49936, Control_c, 0, 64, 65
2, 49956, Control_c, 0, 64, 50
2, 49965, Note_on_c, 0, 53, 0
2, 49976, Control_c, 0, 64, 41
2, 50015, Control_c, 0, 64, 46
2, 50033, Control_c, 0, 64, 56
2, 50051, Control_c, 0, 64, 66
2, 50070, Control_c, 0, 64, 77
2, 50090, Control_c, 0, 64, 127
2, 50172, Note_on_c, 0, 72, 0
2, 50199, Note_on_c, 0, 68, 0
2, 50596, Note_on_c, 0, 72, 84
2, 50609, Note_on_c, 0, 68, 70
2, 50611, Note_on_c, 0, 65, 62
2, 50620, Note_on_c, 0, 51, 0
2, 50624, Note_on_c, 0, 50, 61
2, 50626, Control_c, 0, 64, 92
2, 50648, Control_c, 0, 64, 66
2, 50668, Control_c, 0, 64, 42
2, 50685, Control_c, 0, 64, 0
2, 50781, Control_c, 0, 64, 36
2, 50801, Control_c, 0, 64, 55
2, 50819, Control_c, 0, 64, 66
2, 50838, Control_c, 0, 64, 74
2, 50859, Control_c, 0, 64, 86
2, 50871, Note_on_c, 0, 65, 0
2, 50877, Control_c, 0, 64, 105
2, 50900, Control_c, 0, 64, 127
2, 50918, Note_on_c, 0, 50, 0
2, 50984, Note_on_c, 0, 68, 0
2, 51396, Note_on_c, 0, 70, 71
2, 51398, Note_on_c, 0, 55, 54
2, 51416, Control_c, 0, 64, 116
2, 51420, Note_on_c, 0, 67, 58
2, 51422, Note_on_c, 0, 65, 44
2, 51433, Control_c, 0, 64, 102
2, 51453, Control_c, 0, 64, 92
2, 51473, Control_c, 0, 64, 82
2, 51493, Control_c, 0, 64, 73
2, 51510, Control_c, 0, 64, 66
2, 51530, Control_c, 0, 64, 61
2, 51552, Control_c, 0, 64, 58
2, 51568, Control_c, 0, 64, 56
2, 51590, Control_c, 0, 64, 53
2, 51595, Note_on_c, 0, 72, 0
2, 51606, Control_c, 0, 64, 49
2, 51626, Control_c, 0, 64, 41
2, 51648, Control_c, 0, 64, 26
2, 51664, Control_c, 0, 64, 0
2, 51764, Note_on_c, 0, 68, 74
2, 51778, Note_on_c, 0, 53, 54
2, 51833, Note_on_c, 0, 55, 0
2, 51844, Note_on_c, 0, 70, 0
2, 52167, Note_on_c, 0, 53, 0
2, 52185, Note_on_c, 0, 70, 68
2, 52186, Note_on_c, 0, 52, 50
2, 52193, Note_on_c, 0, 68, 0
2, 52339, Control_c, 0, 64, 13
2, 52359, Control_c, 0, 64, 25
2, 52380, Control_c, 0, 64, 36
2, 52396, Control_c, 0, 64, 47
2, 52418, Control_c, 0, 64, 57
2, 52436, Control_c, 0, 64, 62
2, 52454, Control_c, 0, 64, 63
2, 52473, Control_c, 0, 64, 64
2, 52480, Note_on_c, 0, 65, 0
2, 52493, Control_c, 0, 64, 66
2, 52497, Note_on_c, 0, 67, 0
2, 52515, Control_c, 0, 64, 70
2, 52531, Control_c, 0, 64, 77
2, 52551, Control_c, 0, 64, 88
2, 52555, Note_on_c, 0, 70, 0
2, 52570, Control_c, 0, 64, 110
2, 52588, Control_c, 0, 64, 127
2, 52965, Note_on_c, 0, 67, 60
2, 52965, Note_on_c, 0, 70, 71
2, 52974, Note_on_c, 0, 52, 0
2, 52974, Note_on_c, 0, 55, 49
2, 52988, Note_on_c, 0, 65, 52
2, 53030, Control_c, 0, 64, 96
2, 53050, Control_c, 0, 64, 70
2, 53070, Control_c, 0, 64, 52
2, 53089, Control_c, 0, 64, 8
2, 53108, Control_c, 0, 64, 0
2, 53186, Control_c, 0, 64, 35
2, 53203, Control_c, 0, 64, 52
2, 53224, Control_c, 0, 64, 63
2, 53245, Control_c, 0, 64, 68
2, 53260, Control_c, 0, 64, 74
2, 53280, Control_c, 0, 64, 84
2, 53299, Control_c, 0, 64, 107
2, 53319, Control_c, 0, 64, 127
2, 53353, Note_on_c, 0, 67, 0
2, 53357, Note_on_c, 0, 70, 0
2, 53748, Note_on_c, 0, 55, 0
2, 53802, Note_on_c, 0, 70, 78
2, 53822, Note_on_c, 0, 67, 61
2, 53825, Note_on_c, 0, 48, 48
2, 53831, Note_on_c, 0, 64, 59
2, 53836, Control_c, 0, 64, 120
2, 53845, Note_on_c, 0, 65, 0
2, 53855, Control_c, 0, 64, 99
2, 53875, Control_c, 0, 64, 82
2, 53897, Control_c, 0, 64, 68
2, 53915, Control_c, 0, 64, 53
2, 53935, Control_c, 0, 64, 0
2, 54048, Control_c, 0, 64, 25
2, 54067, Control_c, 0, 64, 43
2, 54090, Control_c, 0, 64, 57
2, 54105, Control_c, 0, 64, 64
2, 54125, Control_c, 0, 64, 68
2, 54134, Note_on_c, 0, 64, 0
2, 54145, Control_c, 0, 64, 75
2, 54156, Note_on_c, 0, 67, 0
2, 54165, Control_c, 0, 64, 86
2, 54182, Control_c, 0, 64, 107
2, 54200, Control_c, 0, 64, 127
2, 54213, Note_on_c, 0, 48, 0
2, 54606, Note_on_c, 0, 68, 75
2, 54617, Note_on_c, 0, 65, 52
2, 54628, Note_on_c, 0, 53, 47
2, 54628, Note_on_c, 0, 60, 52
2, 54684, Control_c, 0, 64, 108
2, 54704, Control_c, 0, 64, 94
2, 54720, Control_c, 0, 64, 86
2, 54738, Control_c, 0, 64, 79
2, 54758, Control_c, 0, 64, 73
2, 54778, Control_c, 0, 64, 68
2, 54800, Control_c, 0, 64, 63
2, 54818, Control_c, 0, 64, 60
2, 54835, Control_c, 0, 64, 57
2, 54855, Control_c, 0, 64, 55
2, 54874, Control_c, 0, 64, 54
2, 54894, Control_c, 0, 64, 52
2, 54912, Control_c, 0, 64, 45
2, 54932, Control_c, 0, 64, 32
2, 54950, Control_c, 0, 64, 0
2, 54963, Note_on_c, 0, 67, 73
2, 54986, Note_on_c, 0, 70, 0
2, 54990, Note_on_c, 0, 51, 48
2, 55037, Note_on_c, 0, 68, 0
2, 55077, Note_on_c, 0, 53, 0
2, 55371, Note_on_c, 0, 68, 72
2, 55377, Note_on_c, 0, 49, 45
2, 55386, Note_on_c, 0, 51, 0
2, 55460, Note_on_c, 0, 67, 0
2, 55526, Control_c, 0, 64, 20
2, 55546, Control_c, 0, 64, 34
2, 55567, Control_c, 0, 64, 46
2, 55581, Note_on_c, 0, 60, 0
2, 55585, Control_c, 0, 64, 56
2, 55602, Control_c, 0, 64, 61
2, 55621, Control_c, 0, 64, 63
2, 55626, Note_on_c, 0, 65, 0
2, 55641, Control_c, 0, 64, 64
2, 55663, Control_c, 0, 64, 65
2, 55680, Control_c, 0, 64, 67
2, 55703, Control_c, 0, 64, 70
2, 55719, Control_c, 0, 64, 77
2, 55739, Control_c, 0, 64, 86
2, 55757, Control_c, 0, 64, 98
2, 55779, Control_c, 0, 64, 115
2, 55795, Control_c, 0, 64, 127
2, 55920, Note_on_c, 0, 68, 0
2, 56118, Note_on_c, 0, 68, 65
2, 56123, Control_c, 0, 64, 118
2, 56129, Note_on_c, 0, 48, 52
2, 56142, Control_c, 0, 64, 86
2, 56151, Note_on_c, 0, 65, 50
2, 56153, Note_on_c, 0, 49, 0
2, 56162, Control_c, 0, 64, 67
2, 56175, Note_on_c, 0, 60, 27
2, 56179, Control_c, 0, 64, 50
2, 56198, Control_c, 0, 64, 0
2, 56257, Control_c, 0, 64, 24
2, 56275, Control_c, 0, 64, 40
2, 56295, Control_c, 0, 64, 56
2, 56314, Control_c, 0, 64, 65
2, 56334, Control_c, 0, 64, 70
2, 56352, Control_c, 0, 64, 78
2, 56372, Control_c, 0, 64, 91
2, 56391, Control_c, 0, 64, 127
2, 56576, Note_on_c, 0, 65, 0
2, 56583, Note_on_c, 0, 60, 0
2, 56640, Note_on_c, 0, 68, 0
2, 56990, Note_on_c, 0, 68, 66
2, 56994, Note_on_c, 0, 46, 42
2, 57001, Note_on_c, 0, 65, 46
2, 57006, Control_c, 0, 64, 110
2, 57010, Note_on_c, 0, 48, 0
2, 57015, Note_on_c, 0, 61, 38
2, 57024, Control_c, 0, 64, 80
2, 57046, Control_c, 0, 64, 64
2, 57063, Control_c, 0, 64, 48
2, 57081, Control_c, 0, 64, 0
2, 57197, Control_c, 0, 64, 27
2, 57219, Control_c, 0, 64, 44
2, 57235, Control_c, 0, 64, 57
2, 57255, Control_c, 0, 64, 64
2, 57273, Control_c, 0, 64, 67
2, 57292, Control_c, 0, 64, 70
2, 57312, Control_c, 0, 64, 77
2, 57330, Control_c, 0, 64, 88
2, 57344, Note_on_c, 0, 65, 0
2, 57350, Note_on_c, 0, 61, 0
2, 57355, Control_c, 0, 64, 113
2, 57368, Control_c, 0, 64, 127
2, 57478, Note_on_c, 0, 46, 0
2, 57746, Note_on_c, 0, 67, 64
2, 57779, Note_on_c, 0, 46, 33
2, 57784, Note_on_c, 0, 58, 36
2, 57790, Note_on_c, 0, 61, 43
2, 57857, Note_on_c, 0, 68, 0
2, 58082, Control_c, 0, 64, 116
2, 58098, Note_on_c, 0, 68, 80
2, 58102, Control_c, 0, 64, 105
2, 58120, Control_c, 0, 64, 99
2, 58136, Control_c, 0, 64, 95
2, 58161, Control_c, 0, 64, 93
2, 58161, Note_on_c, 0, 46, 0
2, 58175, Control_c, 0, 64, 91
2, 58196, Control_c, 0, 64, 90
2, 58214, Control_c, 0, 64, 87
2, 58223, Note_on_c, 0, 67, 0
2, 58236, Control_c, 0, 64, 85
2, 58255, Control_c, 0, 64, 83
2, 58275, Control_c, 0, 64, 81
2, 58370, Control_c, 0, 64, 80
2, 58408, Control_c, 0, 64, 79
2, 58428, Control_c, 0, 64, 78
2, 58445, Control_c, 0, 64, 76
2, 58465, Control_c, 0, 64, 73
2, 58474, Note_on_c, 0, 46, 45
2, 58485, Control_c, 0, 64, 70
2, 58503, Note_on_c, 0, 58, 0
2, 58508, Control_c, 0, 64, 66
2, 58524, Control_c, 0, 64, 61
2, 58524, Note_on_c, 0, 70, 75
2, 58544, Control_c, 0, 64, 47
2, 58560, Control_c, 0, 64, 0
2, 58571, Note_on_c, 0, 61, 0
2, 58628, Note_on_c, 0, 68, 0
2, 58717, Control_c, 0, 64, 35
2, 58734, Control_c, 0, 64, 50
2, 58752, Control_c, 0, 64, 62
2, 58770, Control_c, 0, 64, 67
2, 58792, Control_c, 0, 64, 71
2, 58810, Control_c, 0, 64, 78
2, 58830, Control_c, 0, 64, 93
2, 58847, Control_c, 0, 64, 127
2, 58978, Note_on_c, 0, 46, 0
2, 59266, Note_on_c, 0, 67, 61
2, 59295, Note_on_c, 0, 61, 48
2, 59308, Note_on_c, 0, 46, 34
2, 59310, Note_on_c, 0, 58, 42
2, 59330, Control_c, 0, 64, 93
2, 59351, Control_c, 0, 64, 72
2, 59366, Control_c, 0, 64, 58
2, 59387, Control_c, 0, 64, 25
2, 59406, Control_c, 0, 64, 0
2, 59481, Control_c, 0, 64, 30
2, 59501, Control_c, 0, 64, 48
2, 59520, Control_c, 0, 64, 62
2, 59541, Control_c, 0, 64, 66
2, 59559, Control_c, 0, 64, 71
2, 59577, Control_c, 0, 64, 78
2, 59596, Control_c, 0, 64, 91
2, 59616, Control_c, 0, 64, 127
2, 59640, Note_on_c, 0, 58, 0
2, 59667, Note_on_c, 0, 46, 0
2, 59704, Note_on_c, 0, 70, 0
2, 59833, Note_on_c, 0, 61, 0
2, 60059, Note_on_c, 0, 64, 59
2, 60066, Note_on_c, 0, 46, 41
2, 60070, Note_on_c, 0, 55, 40
2, 60070, Note_on_c, 0, 60, 51
2, 60098, Control_c, 0, 64, 110
2, 60117, Control_c, 0, 64, 76
2, 60134, Control_c, 0, 64, 58
2, 60155, Control_c, 0, 64, 20
2, 60175, Control_c, 0, 64, 0
2, 60175, Note_on_c, 0, 67, 0
2, 60269, Control_c, 0, 64, 34
2, 60288, Control_c, 0, 64, 53
2, 60309, Control_c, 0, 64, 65
2, 60326, Control_c, 0, 64, 73
2, 60344, Control_c, 0, 64, 93
2, 60364, Control_c, 0, 64, 127
2, 60402, Note_on_c, 0, 60, 0
2, 60426, Note_on_c, 0, 64, 0
2, 60435, Note_on_c, 0, 55, 0
2, 60893, Note_on_c, 0, 56, 39
2, 60910, Note_on_c, 0, 44, 43
2, 60947, Note_on_c, 0, 72, 70
2, 60973, Note_on_c, 0, 65, 50
2, 60999, Control_c, 0, 64, 104
2, 61017, Control_c, 0, 64, 82
2, 61026, Note_on_c, 0, 46, 0
2, 61039, Control_c, 0, 64, 69
2, 61055, Control_c, 0, 64, 60
2, 61075, Control_c, 0, 64, 49
2, 61095, Control_c, 0, 64, 32
2, 61115, Control_c, 0, 64, 0
2, 61282, Note_on_c, 0, 65, 0
2, 61294, Note_on_c, 0, 64, 53
2, 61307, Control_c, 0, 64, 32
2, 61324, Control_c, 0, 64, 47
2, 61345, Control_c, 0, 64, 59
2, 61363, Control_c, 0, 64, 64
2, 61383, Control_c, 0, 64, 65
2, 61441, Control_c, 0, 64, 66
2, 61461, Control_c, 0, 64, 67
2, 61479, Control_c, 0, 64, 68
2, 61497, Control_c, 0, 64, 69
2, 61517, Control_c, 0, 64, 70
2, 61536, Control_c, 0, 64, 69
2, 61573, Control_c, 0, 64, 68
2, 61593, Control_c, 0, 64, 67
2, 61613, Control_c, 0, 64, 66
2, 61631, Control_c, 0, 64, 65
2, 61651, Control_c, 0, 64, 64
2, 61669, Control_c, 0, 64, 62
2, 61676, Note_on_c, 0, 65, 43
2, 61682, Note_on_c, 0, 49, 37
2, 61691, Control_c, 0, 64, 59
2, 61708, Control_c, 0, 64, 48
2, 61730, Control_c, 0, 64, 23
2, 61740, Note_on_c, 0, 64, 0
2, 61749, Control_c, 0, 64, 0
2, 61765, Note_on_c, 0, 44, 0
2, 61780, Note_on_c, 0, 56, 0
2, 61862, Control_c, 0, 64, 25
2, 61882, Control_c, 0, 64, 43
2, 61901, Control_c, 0, 64, 57
2, 61919, Control_c, 0, 64, 65
2, 61938, Control_c, 0, 64, 69
2, 61958, Control_c, 0, 64, 74
2, 61978, Control_c, 0, 64, 81
2, 61997, Control_c, 0, 64, 94
2, 62011, Note_on_c, 0, 65, 0
2, 62015, Control_c, 0, 64, 127
2, 62102, Note_on_c, 0, 49, 0
2, 62427, Note_on_c, 0, 70, 56
2, 62438, Control_c, 0, 64, 120
2, 62447, Note_on_c, 0, 49, 36
2, 62451, Note_on_c, 0, 65, 40
2, 62458, Control_c, 0, 64, 93
2, 62474, Note_on_c, 0, 55, 33
2, 62479, Control_c, 0, 64, 76
2, 62496, Control_c, 0, 64, 64
2, 62516, Control_c, 0, 64, 50
2, 62533, Control_c, 0, 64, 18
2, 62553, Control_c, 0, 64, 0
2, 62630, Control_c, 0, 64, 25
2, 62652, Control_c, 0, 64, 39
2, 62670, Control_c, 0, 64, 53
2, 62688, Control_c, 0, 64, 61
2, 62708, Control_c, 0, 64, 64
2, 62746, Control_c, 0, 64, 65
2, 62765, Control_c, 0, 64, 66
2, 62783, Control_c, 0, 64, 70
2, 62801, Note_on_c, 0, 68, 66
2, 62806, Control_c, 0, 64, 77
2, 62823, Control_c, 0, 64, 88
2, 62823, Note_on_c, 0, 53, 46
2, 62842, Control_c, 0, 64, 103
2, 62860, Control_c, 0, 64, 127
2, 62875, Note_on_c, 0, 70, 0
2, 62918, Note_on_c, 0, 49, 0
2, 62925, Note_on_c, 0, 65, 0
2, 62925, Note_on_c, 0, 72, 0
2, 62986, Note_on_c, 0, 55, 0
2, 63150, Control_c, 0, 64, 109
2, 63168, Control_c, 0, 64, 99
2, 63190, Control_c, 0, 64, 90
2, 63190, Note_on_c, 0, 70, 73
2, 63208, Control_c, 0, 64, 78
2, 63212, Note_on_c, 0, 65, 51
2, 63216, Note_on_c, 0, 49, 41
2, 63227, Control_c, 0, 64, 64
2, 63227, Note_on_c, 0, 55, 34
2, 63245, Note_on_c, 0, 53, 0
2, 63249, Control_c, 0, 64, 49
2, 63266, Control_c, 0, 64, 0
2, 63266, Note_on_c, 0, 68, 0
2, 63403, Note_on_c, 0, 65, 0
2, 63418, Control_c, 0, 64, 22
2, 63436, Control_c, 0, 64, 41
2, 63457, Control_c, 0, 64, 55
2, 63479, Control_c, 0, 64, 64
2, 63495, Control_c, 0, 64, 70
2, 63512, Control_c, 0, 64, 82
2, 63523, Note_on_c, 0, 70, 0
2, 63530, Note_on_c, 0, 55, 0
2, 63534, Control_c, 0, 64, 116
2, 63553, Control_c, 0, 64, 127
2, 63969, Note_on_c, 0, 70, 73
2, 63978, Note_on_c, 0, 64, 69
2, 63985, Note_on_c, 0, 48, 46
2, 64009, Note_on_c, 0, 49, 0
2, 64009, Note_on_c, 0, 55, 46
2, 64131, Control_c, 0, 64, 101
2, 64149, Control_c, 0, 64, 86
2, 64166, Control_c, 0, 64, 77
2, 64184, Control_c, 0, 64, 70
2, 64204, Control_c, 0, 64, 64
2, 64226, Control_c, 0, 64, 61
2, 64242, Control_c, 0, 64, 59
2, 64262, Control_c, 0, 64, 58
2, 64282, Control_c, 0, 64, 57
2, 64302, Control_c, 0, 64, 55
2, 64322, Control_c, 0, 64, 51
2, 64326, Note_on_c, 0, 62, 70
2, 64339, Control_c, 0, 64, 43
2, 64350, Note_on_c, 0, 46, 46
2, 64360, Control_c, 0, 64, 33
2, 64367, Note_on_c, 0, 48, 0
2, 64377, Control_c, 0, 64, 21
2, 64397, Control_c, 0, 64, 0
2, 64415, Note_on_c, 0, 64, 0
2, 64762, Note_on_c, 0, 64, 59
2, 64766, Note_on_c, 0, 48, 36
2, 64790, Note_on_c, 0, 46, 0
2, 64790, Note_on_c, 0, 62, 0
2, 64822, Control_c, 0, 64, 28
2, 64839, Control_c, 0, 64, 42
2, 64861, Control_c, 0, 64, 54
2, 64876, Control_c, 0, 64, 62
2, 64896, Control_c, 0, 64, 65
2, 64914, Control_c, 0, 64, 67
2, 64936, Control_c, 0, 64, 71
2, 64955, Control_c, 0, 64, 83
2, 64973, Control_c, 0, 64, 127
2, 65072, Note_on_c, 0, 55, 0
2, 65128, Note_on_c, 0, 48, 0
2, 65166, Note_on_c, 0, 64, 0
2, 65528, Note_on_c, 0, 68, 54
2, 65532, Note_on_c, 0, 60, 43
2, 65538, Note_on_c, 0, 48, 41
2, 65545, Note_on_c, 0, 64, 46
2, 65728, Note_on_c, 0, 70, 0
2, 65877, Note_on_c, 0, 67, 67
2, 65903, Note_on_c, 0, 48, 0
2, 65926, Note_on_c, 0, 68, 0
2, 65970, Note_on_c, 0, 60, 0
2, 65986, Note_on_c, 0, 64, 0
2, 66292, Note_on_c, 0, 68, 77
2, 66297, Control_c, 0, 64, 102
2, 66297, Note_on_c, 0, 64, 64
2, 66317, Control_c, 0, 64, 89
2, 66321, Note_on_c, 0, 48, 41
2, 66332, Note_on_c, 0, 60, 44
2, 66337, Control_c, 0, 64, 76
2, 66341, Note_on_c, 0, 67, 0
2, 66357, Control_c, 0, 64, 64
2, 66375, Control_c, 0, 64, 47
2, 66395, Control_c, 0, 64, 0
2, 66489, Control_c, 0, 64, 11
2, 66507, Control_c, 0, 64, 38
2, 66531, Control_c, 0, 64, 56
2, 66550, Control_c, 0, 64, 66
2, 66567, Control_c, 0, 64, 72
2, 66574, Note_on_c, 0, 60, 0
2, 66585, Control_c, 0, 64, 82
2, 66605, Control_c, 0, 64, 99
2, 66625, Control_c, 0, 64, 127
2, 66648, Note_on_c, 0, 64, 0
2, 66680, Note_on_c, 0, 68, 0
2, 67119, Note_on_c, 0, 41, 38
2, 67128, Note_on_c, 0, 65, 66
2, 67128, Note_on_c, 0, 68, 72
2, 67153, Note_on_c, 0, 60, 49
2, 67219, Control_c, 0, 64, 116
2, 67234, Note_on_c, 0, 48, 0
2, 67241, Control_c, 0, 64, 99
2, 67256, Control_c, 0, 64, 90
2, 67277, Control_c, 0, 64, 82
2, 67297, Control_c, 0, 64, 75
2, 67315, Control_c, 0, 64, 69
2, 67335, Control_c, 0, 64, 65
2, 67354, Control_c, 0, 64, 61
2, 67371, Control_c, 0, 64, 59
2, 67391, Control_c, 0, 64, 58
2, 67411, Control_c, 0, 64, 57
2, 67449, Control_c, 0, 64, 55
2, 67469, Control_c, 0, 64, 51
2, 67489, Control_c, 0, 64, 46
2, 67493, Note_on_c, 0, 63, 69
2, 67506, Control_c, 0, 64, 39
2, 67526, Control_c, 0, 64, 35
2, 67546, Control_c, 0, 64, 32
2, 67564, Control_c, 0, 64, 29
2, 67583, Control_c, 0, 64, 23
2, 67604, Control_c, 0, 64, 0
2, 67728, Note_on_c, 0, 65, 0
2, 67904, Note_on_c, 0, 61, 63
2, 67933, Note_on_c, 0, 46, 41
2, 67951, Note_on_c, 0, 41, 0
2, 67951, Note_on_c, 0, 60, 0
2, 68036, Note_on_c, 0, 63, 0
2, 68141, Control_c, 0, 64, 18
2, 68160, Control_c, 0, 64, 36
2, 68177, Control_c, 0, 64, 51
2, 68200, Control_c, 0, 64, 60
2, 68218, Control_c, 0, 64, 63
2, 68236, Control_c, 0, 64, 65
2, 68256, Control_c, 0, 64, 66
2, 68275, Control_c, 0, 64, 70
2, 68295, Control_c, 0, 64, 79
2, 68299, Note_on_c, 0, 61, 0
2, 68316, Control_c, 0, 64, 100
2, 68336, Control_c, 0, 64, 127
2, 68362, Note_on_c, 0, 46, 0
2, 68773, Note_on_c, 0, 66, 51
2, 68791, Note_on_c, 0, 58, 39
2, 68797, Note_on_c, 0, 61, 34
2, 68825, Note_on_c, 0, 46, 34
2, 69147, Note_on_c, 0, 65, 62
2, 69166, Note_on_c, 0, 58, 0
2, 69192, Note_on_c, 0, 57, 50
2, 69216, Note_on_c, 0, 66, 0
2, 69277, Note_on_c, 0, 61, 0
2, 69338, Note_on_c, 0, 46, 0
2, 69348, Note_on_c, 0, 57, 0
2, 69381, Note_on_c, 0, 68, 0
2, 69506, Control_c, 0, 64, 102
2, 69522, Control_c, 0, 64, 83
2, 69538, Note_on_c, 0, 66, 74
2, 69542, Control_c, 0, 64, 71
2, 69559, Note_on_c, 0, 58, 47
2, 69559, Note_on_c, 0, 61, 50
2, 69564, Control_c, 0, 64, 60
2, 69571, Note_on_c, 0, 46, 44
2, 69583, Control_c, 0, 64, 43
2, 69601, Control_c, 0, 64, 0
2, 69715, Control_c, 0, 64, 30
2, 69736, Control_c, 0, 64, 52
2, 69736, Note_on_c, 0, 65, 0
2, 69754, Control_c, 0, 64, 67
2, 69771, Control_c, 0, 64, 90
2, 69790, Control_c, 0, 64, 127
2, 69795, Note_on_c, 0, 61, 0
2, 69852, Note_on_c, 0, 46, 0
2, 69870, Note_on_c, 0, 58, 0
2, 69886, Note_on_c, 0, 66, 0
2, 70311, Note_on_c, 0, 70, 72
2, 70311, Note_on_c, 0, 73, 75
2, 70328, Note_on_c, 0, 54, 53
2, 70340, Note_on_c, 0, 46, 47
2, 70522, Control_c, 0, 64, 112
2, 70543, Control_c, 0, 64, 101
2, 70563, Control_c, 0, 64, 93
2, 70580, Control_c, 0, 64, 86
2, 70598, Control_c, 0, 64, 79
2, 70618, Control_c, 0, 64, 73
2, 70636, Control_c, 0, 64, 67
2, 70656, Control_c, 0, 64, 63
2, 70661, Note_on_c, 0, 69, 75
2, 70667, Note_on_c, 0, 53, 61
2, 70674, Control_c, 0, 64, 61
2, 70722, Note_on_c, 0, 70, 0
2, 70735, Control_c, 0, 64, 60
2, 70752, Control_c, 0, 64, 59
2, 70757, Note_on_c, 0, 54, 0
2, 70766, Note_on_c, 0, 46, 0
2, 70771, Control_c, 0, 64, 57
2, 70789, Control_c, 0, 64, 56
2, 70808, Control_c, 0, 64, 54
2, 70828, Control_c, 0, 64, 52
2, 70847, Control_c, 0, 64, 48
2, 70867, Control_c, 0, 64, 41
2, 70887, Control_c, 0, 64, 31
2, 70906, Control_c, 0, 64, 0
2, 71082, Note_on_c, 0, 54, 55
2, 71086, Note_on_c, 0, 70, 78
2, 71099, Note_on_c, 0, 46, 45
2, 71180, Note_on_c, 0, 53, 0
2, 71252, Control_c, 0, 64, 30
2, 71270, Control_c, 0, 64, 48
2, 71274, Note_on_c, 0, 69, 0
2, 71289, Control_c, 0, 64, 61
2, 71308, Control_c, 0, 64, 67
2, 71327, Control_c, 0, 64, 72
2, 71348, Control_c, 0, 64, 84
2, 71365, Control_c, 0, 64, 127
2, 71391, Note_on_c, 0, 46, 0
2, 71515, Note_on_c, 0, 73, 0
2, 71860, Note_on_c, 0, 46, 48
2, 71873, Note_on_c, 0, 72, 72
2, 71950, Note_on_c, 0, 70, 0
2, 72104, Note_on_c, 0, 54, 0
2, 72112, Note_on_c, 0, 46, 0
2, 72217, Note_on_c, 0, 70, 81
2, 72277, Note_on_c, 0, 72, 0
2, 72659, Note_on_c, 0, 55, 49
2, 72672, Note_on_c, 0, 46, 47
2, 72676, Note_on_c, 0, 76, 85
2, 72681, Note_on_c, 0, 72, 68
2, 72731, Control_c, 0, 64, 108
2, 72749, Control_c, 0, 64, 75
2, 72764, Note_on_c, 0, 70, 0
2, 72768, Control_c, 0, 64, 57
2, 72789, Control_c, 0, 64, 0
2, 72901, Control_c, 0, 64, 32
2, 72920, Control_c, 0, 64, 54
2, 72940, Control_c, 0, 64, 66
2, 72959, Control_c, 0, 64, 75
2, 72977, Control_c, 0, 64, 93
2, 72997, Control_c, 0, 64, 127
2, 73041, Note_on_c, 0, 55, 0
2, 73041, Note_on_c, 0, 72, 0
2, 73124, Note_on_c, 0, 46, 0
2, 73467, Note_on_c, 0, 72, 79
2, 73480, Note_on_c, 0, 65, 66
2, 73484, Note_on_c, 0, 56, 59
2, 73500, Note_on_c, 0, 44, 51
2, 73536, Control_c, 0, 64, 86
2, 73556, Control_c, 0, 64, 58
2, 73573, Control_c, 0, 64, 0
2, 73673, Control_c, 0, 64, 15
2, 73691, Control_c, 0, 64, 44
2, 73700, Note_on_c, 0, 65, 0
2, 73700, Note_on_c, 0, 76, 0
2, 73708, Control_c, 0, 64, 60
2, 73727, Control_c, 0, 64, 67
2, 73748, Control_c, 0, 64, 73
2, 73753, Note_on_c, 0, 56, 0
2, 73766, Control_c, 0, 64, 85
2, 73784, Control_c, 0, 64, 120
2, 73805, Control_c, 0, 64, 127
2, 73833, Note_on_c, 0, 55, 65
2, 73837, Note_on_c, 0, 67, 77
2, 73928, Note_on_c, 0, 44, 0
2, 74018, Note_on_c, 0, 67, 0
2, 74047, Note_on_c, 0, 55, 0
2, 74063, Note_on_c, 0, 72, 0
2, 74338, Note_on_c, 0, 53, 50
2, 74354, Note_on_c, 0, 49, 52
2, 74354, Note_on_c, 0, 68, 76
2, 74354, Note_on_c, 0, 77, 87
2, 74421, Control_c, 0, 64, 94
2, 74439, Control_c, 0, 64, 74
2, 74458, Control_c, 0, 64, 60
2, 74476, Control_c, 0, 64, 27
2, 74496, Control_c, 0, 64, 0
2, 74610, Control_c, 0, 64, 20
2, 74631, Control_c, 0, 64, 34
2, 74649, Control_c, 0, 64, 46
2, 74668, Control_c, 0, 64, 59
2, 74688, Control_c, 0, 64, 65
2, 74706, Control_c, 0, 64, 69
2, 74724, Control_c, 0, 64, 76
2, 74744, Control_c, 0, 64, 90
2, 74753, Note_on_c, 0, 68, 0
2, 74765, Control_c, 0, 64, 127
2, 74918, Note_on_c, 0, 49, 0
2, 75184, Note_on_c, 0, 72, 67
2, 75193, Note_on_c, 0, 68, 59
2, 75197, Note_on_c, 0, 48, 46
2, 75247, Control_c, 0, 64, 80
2, 75264, Control_c, 0, 64, 60
2, 75282, Control_c, 0, 64, 28
2, 75303, Control_c, 0, 64, 0
2, 75378, Control_c, 0, 64, 16
2, 75398, Control_c, 0, 64, 39
2, 75418, Control_c, 0, 64, 55
2, 75436, Control_c, 0, 64, 64
2, 75456, Control_c, 0, 64, 67
2, 75476, Control_c, 0, 64, 71
2, 75476, Note_on_c, 0, 68, 0
2, 75494, Control_c, 0, 64, 77
2, 75514, Control_c, 0, 64, 90
2, 75534, Control_c, 0, 64, 127
2, 75606, Note_on_c, 0, 72, 0
2, 75618, Note_on_c, 0, 48, 0
2, 75993, Note_on_c, 0, 73, 68
2, 76006, Note_on_c, 0, 68, 45
2, 76020, Note_on_c, 0, 46, 45
2, 76051, Control_c, 0, 64, 92
2, 76071, Control_c, 0, 64, 71
2, 76091, Control_c, 0, 64, 58
2, 76108, Control_c, 0, 64, 32
2, 76129, Control_c, 0, 64, 0
2, 76182, Note_on_c, 0, 77, 0
2, 76224, Control_c, 0, 64, 21
2, 76241, Control_c, 0, 64, 41
2, 76260, Control_c, 0, 64, 55
2, 76277, Control_c, 0, 64, 64
2, 76297, Control_c, 0, 64, 67
2, 76317, Control_c, 0, 64, 71
2, 76335, Control_c, 0, 64, 77
2, 76357, Control_c, 0, 64, 93
2, 76357, Note_on_c, 0, 53, 0
2, 76375, Note_on_c, 0, 46, 0
2, 76380, Control_c, 0, 64, 127
2, 76789, Note_on_c, 0, 52, 55
2, 76789, Note_on_c, 0, 70, 68
2, 76793, Note_on_c, 0, 67, 56
2, 76802, Note_on_c, 0, 49, 45
2, 76823, Note_on_c, 0, 68, 0
2, 76873, Control_c, 0, 64, 102
2, 76894, Control_c, 0, 64, 86
2, 76911, Control_c, 0, 64, 74
2, 76920, Note_on_c, 0, 73, 0
2, 76931, Control_c, 0, 64, 64
2, 76954, Control_c, 0, 64, 55
2, 76969, Control_c, 0, 64, 36
2, 76989, Control_c, 0, 64, 0
2, 77122, Control_c, 0, 64, 18
2, 77143, Control_c, 0, 64, 36
2, 77158, Note_on_c, 0, 68, 77
2, 77163, Control_c, 0, 64, 50
2, 77163, Note_on_c, 0, 53, 64
2, 77180, Control_c, 0, 64, 60
2, 77202, Control_c, 0, 64, 65
2, 77219, Control_c, 0, 64, 67
2, 77241, Control_c, 0, 64, 70
2, 77241, Note_on_c, 0, 67, 0
2, 77245, Note_on_c, 0, 70, 0
2, 77258, Control_c, 0, 64, 73
2, 77279, Control_c, 0, 64, 80
2, 77296, Control_c, 0, 64, 90
2, 77300, Note_on_c, 0, 52, 0
2, 77315, Control_c, 0, 64, 109
2, 77335, Control_c, 0, 64, 127
2, 77438, Note_on_c, 0, 53, 0
2, 77453, Note_on_c, 0, 49, 0
2, 77595, Note_on_c, 0, 76, 84
2, 77604, Note_on_c, 0, 48, 67
2, 77608, Note_on_c, 0, 70, 69
2, 77612, Note_on_c, 0, 55, 60
2, 77641, Control_c, 0, 64, 94
2, 77660, Control_c, 0, 64, 73
2, 77682, Control_c, 0, 64, 54
2, 77700, Control_c, 0, 64, 0
2, 77747, Note_on_c, 0, 68, 0
2, 77852, Control_c, 0, 64, 44
2, 77872, Control_c, 0, 64, 58
2, 77892, Control_c, 0, 64, 64
2, 77910, Control_c, 0, 64, 69
2, 77928, Control_c, 0, 64, 78
2, 77928, Note_on_c, 0, 55, 0
2, 77949, Control_c, 0, 64, 100
2, 77952, Note_on_c, 0, 48, 0
2, 77967, Control_c, 0, 64, 127
2, 78003, Note_on_c, 0, 70, 0
2, 78411, Note_on_c, 0, 55, 62
2, 78413, Note_on_c, 0, 48, 60
2, 78420, Note_on_c, 0, 72, 78
2, 78427, Note_on_c, 0, 70, 75
2, 78468, Control_c, 0, 64, 78
2, 78487, Control_c, 0, 64, 56
2, 78505, Control_c, 0, 64, 0
2, 78621, Control_c, 0, 64, 32
2, 78641, Control_c, 0, 64, 54
2, 78657, Control_c, 0, 64, 69
2, 78673, Note_on_c, 0, 55, 0
2, 78678, Control_c, 0, 64, 90
2, 78697, Control_c, 0, 64, 127
2, 78704, Note_on_c, 0, 76, 0
2, 78713, Note_on_c, 0, 48, 0
2, 78763, Note_on_c, 0, 70, 0
2, 78767, Note_on_c, 0, 72, 0
2, 79497, Note_on_c, 0, 77, 87
2, 79503, Note_on_c, 0, 41, 56
2, 79506, Note_on_c, 0, 53, 62
2, 79510, Note_on_c, 0, 70, 65
2, 79514, Note_on_c, 0, 72, 73
2, 79561, Control_c, 0, 64, 97
2, 79580, Control_c, 0, 64, 76
2, 79603, Control_c, 0, 64, 61
2, 79618, Control_c, 0, 64, 46
2, 79638, Control_c, 0, 64, 0
2, 79793, Control_c, 0, 64, 34
2, 79810, Control_c, 0, 64, 55
2, 79831, Control_c, 0, 64, 64
2, 79849, Control_c, 0, 64, 68
2, 79869, Control_c, 0, 64, 73
2, 79888, Control_c, 0, 64, 83
2, 79905, Control_c, 0, 64, 109
2, 79927, Control_c, 0, 64, 127
2, 80103, Note_on_c, 0, 70, 0
2, 80123, Note_on_c, 0, 72, 0
2, 80509, Note_on_c, 0, 68, 57
2, 80509, Note_on_c, 0, 72, 67
2, 80540, Control_c, 0, 64, 99
2, 80562, Control_c, 0, 64, 65
2, 80579, Control_c, 0, 64, 36
2, 80599, Control_c, 0, 64, 0
2, 80658, Control_c, 0, 64, 25
2, 80676, Control_c, 0, 64, 46
2, 80695, Control_c, 0, 64, 62
2, 80713, Control_c, 0, 64, 74
2, 80733, Control_c, 0, 64, 99
2, 80752, Control_c, 0, 64, 127
2, 80918, Note_on_c, 0, 70, 64
2, 80925, Control_c, 0, 64, 92
2, 80934, Note_on_c, 0, 72, 0
2, 80939, Note_on_c, 0, 67, 48
2, 80946, Control_c, 0, 64, 63
2, 80959, Note_on_c, 0, 68, 0
2, 80963, Control_c, 0, 64, 40
2, 80981, Control_c, 0, 64, 0
2, 81001, Control_c, 0, 64, 16
2, 81021, Control_c, 0, 64, 32
2, 81039, Control_c, 0, 64, 50
2, 81059, Control_c, 0, 64, 64
2, 81078, Control_c, 0, 64, 74
2, 81096, Control_c, 0, 64, 96
2, 81117, Control_c, 0, 64, 127
2, 81341, Note_on_c, 0, 77, 0
2, 81406, Note_on_c, 0, 67, 0
2, 81410, Control_c, 0, 64, 108
2, 81410, Note_on_c, 0, 68, 48
2, 81414, Note_on_c, 0, 72, 55
2, 81425, Control_c, 0, 64, 79
2, 81433, Note_on_c, 0, 70, 0
2, 81444, Control_c, 0, 64, 63
2, 81462, Control_c, 0, 64, 43
2, 81479, Control_c, 0, 64, 0
2, 81598, Control_c, 0, 64, 31
2, 81616, Control_c, 0, 64, 48
2, 81634, Control_c, 0, 64, 60
2, 81654, Control_c, 0, 64, 66
2, 81679, Control_c, 0, 64, 73
2, 81679, Note_on_c, 0, 41, 0
2, 81679, Note_on_c, 0, 53, 0
2, 81694, Control_c, 0, 64, 82
2, 81715, Control_c, 0, 64, 102
2, 81732, Control_c, 0, 64, 127
2, 81945, Note_on_c, 0, 68, 0
2, 81962, Note_on_c, 0, 72, 0
2, 82406, Control_c, 0, 64, 122
2, 82423, Control_c, 0, 64, 107
2, 82439, Control_c, 0, 64, 99
2, 82461, Control_c, 0, 64, 92
2, 82483, Control_c, 0, 64, 88
2, 82498, Control_c, 0, 64, 82
2, 82518, Control_c, 0, 64, 77
2, 82536, Control_c, 0, 64, 72
2, 82557, Control_c, 0, 64, 68
2, 82577, Control_c, 0, 64, 65
2, 82591, Note_on_c, 0, 77, 47
2, 82595, Control_c, 0, 64, 63
2, 82612, Note_on_c, 0, 53, 25
2, 82617, Control_c, 0, 64, 62
2, 82636, Control_c, 0, 64, 60
2, 82651, Control_c, 0, 64, 58
2, 82672, Control_c, 0, 64, 54
2, 82692, Control_c, 0, 64, 52
2, 82710, Control_c, 0, 64, 50
2, 82730, Control_c, 0, 64, 47
2, 82749, Control_c, 0, 64, 42
2, 82768, Control_c, 0, 64, 35
2, 82789, Control_c, 0, 64, 18
2, 82805, Control_c, 0, 64, 0
2, 83010, Note_on_c, 0, 75, 42
2, 83116, Note_on_c, 0, 77, 0
2, 83447, Note_on_c, 0, 58, 36
2, 83447, Note_on_c, 0, 74, 51
2, 83578, Note_on_c, 0, 53, 0
2, 83599, Note_on_c, 0, 75, 0
2, 84130, Control_c, 0, 64, 21
2, 84153, Control_c, 0, 64, 33
2, 84169, Control_c, 0, 64, 39
2, 84187, Control_c, 0, 64, 43
2, 84207, Control_c, 0, 64, 49
2, 84227, Control_c, 0, 64, 56
2, 84248, Control_c, 0, 64, 60
2, 84264, Control_c, 0, 64, 61
2, 84270, Note_on_c, 0, 71, 54
2, 84277, Note_on_c, 0, 68, 42
2, 84287, Control_c, 0, 64, 62
2, 84304, Control_c, 0, 64, 63
2, 84324, Control_c, 0, 64, 65
2, 84342, Control_c, 0, 64, 68
2, 84363, Control_c, 0, 64, 74
2, 84381, Control_c, 0, 64, 83
2, 84400, Control_c, 0, 64, 97
2, 84418, Control_c, 0, 64, 127
2, 84656, Note_on_c, 0, 70, 66
2, 84662, Note_on_c, 0, 66, 50
2, 84748, Note_on_c, 0, 71, 0
2, 84766, Note_on_c, 0, 68, 0
2, 84898, Control_c, 0, 64, 122
2, 84917, Control_c, 0, 64, 116
2, 84937, Control_c, 0, 64, 110
2, 84956, Control_c, 0, 64, 103
2, 84973, Control_c, 0, 64, 96
2, 84995, Control_c, 0, 64, 92
2, 85015, Control_c, 0, 64, 89
2, 85033, Control_c, 0, 64, 86
2, 85053, Control_c, 0, 64, 83
2, 85057, Note_on_c, 0, 74, 0
2, 85071, Control_c, 0, 64, 80
2, 85082, Note_on_c, 0, 68, 58
2, 85090, Control_c, 0, 64, 77
2, 85104, Note_on_c, 0, 65, 44
2, 85110, Control_c, 0, 64, 73
2, 85128, Control_c, 0, 64, 68
2, 85149, Control_c, 0, 64, 63
2, 85166, Control_c, 0, 64, 58
2, 85185, Note_on_c, 0, 70, 0
2, 85190, Control_c, 0, 64, 53
2, 85199, Note_on_c, 0, 66, 0
2, 85207, Control_c, 0, 64, 47
2, 85226, Control_c, 0, 64, 31
2, 85244, Control_c, 0, 64, 0
2, 85455, Control_c, 0, 64, 21
2, 85471, Note_on_c, 0, 58, 0
2, 85475, Control_c, 0, 64, 40
2, 85493, Control_c, 0, 64, 55
2, 85513, Control_c, 0, 64, 62
2, 85532, Control_c, 0, 64, 63
2, 85569, Control_c, 0, 64, 64
2, 85588, Control_c, 0, 64, 65
2, 85609, Control_c, 0, 64, 68
2, 85628, Control_c, 0, 64, 72
2, 85646, Control_c, 0, 64, 81
2, 85667, Control_c, 0, 64, 95
2, 85689, Control_c, 0, 64, 113
2, 85705, Control_c, 0, 64, 127
2, 85885, Note_on_c, 0, 75, 51
2, 85894, Note_on_c, 0, 58, 40
2, 86021, Note_on_c, 0, 65, 0
2, 86258, Note_on_c, 0, 77, 66
2, 86299, Control_c, 0, 64, 113
2, 86319, Control_c, 0, 64, 106
2, 86338, Control_c, 0, 64, 102
2, 86357, Control_c, 0, 64, 98
2, 86375, Control_c, 0, 64, 96
2, 86395, Control_c, 0, 64, 95
2, 86414, Control_c, 0, 64, 93
2, 86432, Note_on_c, 0, 75, 0
2, 86436, Control_c, 0, 64, 92
2, 86449, Note_on_c, 0, 68, 0
2, 86454, Control_c, 0, 64, 91
2, 86492, Control_c, 0, 64, 90
2, 86503, Note_on_c, 0, 58, 0
2, 86512, Control_c, 0, 64, 89
2, 86532, Control_c, 0, 64, 87
2, 86551, Control_c, 0, 64, 85
2, 86571, Control_c, 0, 64, 83
2, 86591, Control_c, 0, 64, 81
2, 86608, Control_c, 0, 64, 80
2, 86630, Control_c, 0, 64, 79
2, 86647, Control_c, 0, 64, 78
2, 86666, Control_c, 0, 64, 76
2, 86684, Control_c, 0, 64, 74
2, 86684, Note_on_c, 0, 51, 44
2, 86703, Control_c, 0, 64, 71
2, 86716, Note_on_c, 0, 78, 67
2, 86723, Control_c, 0, 64, 67
2, 86742, Control_c, 0, 64, 63
2, 86753, Note_on_c, 0, 77, 0
2, 86760, Control_c, 0, 64, 60
2, 86781, Control_c, 0, 64, 55
2, 86798, Control_c, 0, 64, 50
2, 86818, Control_c, 0, 64, 36
2, 86840, Control_c, 0, 64, 0
2, 87203, Control_c, 0, 64, 16
2, 87223, Control_c, 0, 64, 30
2, 87241, Control_c, 0, 64, 41
2, 87259, Control_c, 0, 64, 50
2, 87279, Control_c, 0, 64, 56
2, 87301, Control_c, 0, 64, 59
2, 87316, Control_c, 0, 64, 61
2, 87338, Control_c, 0, 64, 62
2, 87356, Control_c, 0, 64, 63
2, 87374, Control_c, 0, 64, 65
2, 87396, Control_c, 0, 64, 66
2, 87415, Control_c, 0, 64, 69
2, 87434, Control_c, 0, 64, 72
2, 87452, Control_c, 0, 64, 81
2, 87472, Control_c, 0, 64, 94
2, 87494, Control_c, 0, 64, 127
2, 87549, Note_on_c, 0, 66, 51
2, 87594, Note_on_c, 0, 63, 30
2, 87649, Note_on_c, 0, 78, 0
2, 87653, Note_on_c, 0, 51, 0
2, 87906, Note_on_c, 0, 68, 66
2, 87908, Note_on_c, 0, 66, 0
2, 87947, Note_on_c, 0, 65, 45
2, 88012, Control_c, 0, 64, 104
2, 88031, Control_c, 0, 64, 98
2, 88042, Note_on_c, 0, 63, 0
2, 88047, Control_c, 0, 64, 95
2, 88067, Control_c, 0, 64, 94
2, 88085, Control_c, 0, 64, 93
2, 88105, Control_c, 0, 64, 91
2, 88124, Control_c, 0, 64, 88
2, 88146, Control_c, 0, 64, 85
2, 88166, Control_c, 0, 64, 81
2, 88181, Control_c, 0, 64, 76
2, 88201, Control_c, 0, 64, 72
2, 88219, Control_c, 0, 64, 68
2, 88240, Control_c, 0, 64, 65
2, 88261, Control_c, 0, 64, 63
2, 88278, Control_c, 0, 64, 62
2, 88297, Control_c, 0, 64, 61
2, 88319, Control_c, 0, 64, 59
2, 88334, Control_c, 0, 64, 55
2, 88343, Note_on_c, 0, 70, 58
2, 88356, Control_c, 0, 64, 44
2, 88361, Note_on_c, 0, 65, 0
2, 88374, Control_c, 0, 64, 11
2, 88392, Control_c, 0, 64, 0
2, 88398, Note_on_c, 0, 66, 30
2, 88408, Note_on_c, 0, 68, 0
2, 88605, Control_c, 0, 64, 13
2, 88621, Control_c, 0, 64, 33
2, 88645, Control_c, 0, 64, 48
2, 88660, Control_c, 0, 64, 60
2, 88681, Control_c, 0, 64, 65
2, 88701, Control_c, 0, 64, 68
2, 88705, Note_on_c, 0, 66, 0
2, 88720, Control_c, 0, 64, 71
2, 88742, Control_c, 0, 64, 77
2, 88756, Control_c, 0, 64, 91
2, 88780, Control_c, 0, 64, 127
2, 88784, Note_on_c, 0, 70, 0
2, 89158, Note_on_c, 0, 75, 66
2, 89175, Note_on_c, 0, 51, 40
2, 89373, Control_c, 0, 64, 109
2, 89391, Control_c, 0, 64, 104
2, 89412, Control_c, 0, 64, 103
2, 89430, Control_c, 0, 64, 102
2, 89449, Control_c, 0, 64, 101
2, 89467, Control_c, 0, 64, 100
2, 89490, Control_c, 0, 64, 98
2, 89504, Control_c, 0, 64, 96
2, 89526, Control_c, 0, 64, 93
2, 89541, Note_on_c, 0, 73, 74
2, 89545, Control_c, 0, 64, 91
2, 89563, Control_c, 0, 64, 88
2, 89586, Control_c, 0, 64, 85
2, 89603, Control_c, 0, 64, 82
2, 89622, Control_c, 0, 64, 80
2, 89639, Control_c, 0, 64, 78
2, 89659, Control_c, 0, 64, 77
2, 89679, Control_c, 0, 64, 75
2, 89699, Control_c, 0, 64, 73
2, 89717, Control_c, 0, 64, 72
2, 89736, Control_c, 0, 64, 71
2, 89756, Control_c, 0, 64, 70
2, 89775, Control_c, 0, 64, 68
2, 89794, Control_c, 0, 64, 67
2, 89814, Control_c, 0, 64, 66
2, 89853, Control_c, 0, 64, 65
2, 89873, Control_c, 0, 64, 64
2, 89890, Control_c, 0, 64, 63
2, 89930, Control_c, 0, 64, 62
2, 89947, Control_c, 0, 64, 61
2, 89969, Control_c, 0, 64, 59
2, 89979, Note_on_c, 0, 56, 41
2, 89985, Control_c, 0, 64, 57
2, 89994, Note_on_c, 0, 72, 71
2, 90005, Control_c, 0, 64, 56
2, 90021, Note_on_c, 0, 51, 0
2, 90026, Control_c, 0, 64, 54
2, 90047, Control_c, 0, 64, 50
2, 90063, Control_c, 0, 64, 45
2, 90072, Note_on_c, 0, 75, 0
2, 90082, Control_c, 0, 64, 34
2, 90102, Control_c, 0, 64, 16
2, 90122, Control_c, 0, 64, 0
2, 90136, Note_on_c, 0, 73, 0
2, 90620, Control_c, 0, 64, 13
2, 90642, Control_c, 0, 64, 22
2, 90658, Control_c, 0, 64, 30
2, 90678, Control_c, 0, 64, 39
2, 90696, Control_c, 0, 64, 48
2, 90716, Control_c, 0, 64, 55
2, 90735, Control_c, 0, 64, 58
2, 90755, Control_c, 0, 64, 59
2, 90794, Control_c, 0, 64, 60
2, 90812, Control_c, 0, 64, 62
2, 90830, Control_c, 0, 64, 63
2, 90841, Note_on_c, 0, 60, 28
2, 90841, Note_on_c, 0, 63, 42
2, 90850, Control_c, 0, 64, 65
2, 90868, Control_c, 0, 64, 66
2, 90890, Control_c, 0, 64, 69
2, 90907, Control_c, 0, 64, 72
2, 90928, Control_c, 0, 64, 76
2, 90947, Control_c, 0, 64, 80
2, 90966, Control_c, 0, 64, 83
2, 90986, Control_c, 0, 64, 84
2, 91062, Control_c, 0, 64, 83
2, 91098, Control_c, 0, 64, 82
2, 91121, Control_c, 0, 64, 81
2, 91160, Control_c, 0, 64, 80
2, 91179, Control_c, 0, 64, 78
2, 91195, Control_c, 0, 64, 77
2, 91214, Control_c, 0, 64, 76
2, 91225, Note_on_c, 0, 61, 41
2, 91225, Note_on_c, 0, 65, 50
2, 91234, Control_c, 0, 64, 75
2, 91251, Control_c, 0, 64, 74
2, 91258, Note_on_c, 0, 63, 0
2, 91273, Control_c, 0, 64, 73
2, 91294, Control_c, 0, 64, 71
2, 91313, Control_c, 0, 64, 70
2, 91328, Note_on_c, 0, 60, 0
2, 91332, Control_c, 0, 64, 68
2, 91352, Control_c, 0, 64, 67
2, 91372, Control_c, 0, 64, 65
2, 91387, Control_c, 0, 64, 64
2, 91407, Control_c, 0, 64, 62
2, 91427, Control_c, 0, 64, 61
2, 91449, Control_c, 0, 64, 59
2, 91465, Control_c, 0, 64, 58
2, 91483, Control_c, 0, 64, 56
2, 91503, Control_c, 0, 64, 55
2, 91523, Control_c, 0, 64, 53
2, 91541, Control_c, 0, 64, 50
2, 91560, Control_c, 0, 64, 42
2, 91581, Control_c, 0, 64, 24
2, 91600, Control_c, 0, 64, 0
2, 91628, Note_on_c, 0, 65, 0
2, 91636, Note_on_c, 0, 61, 0
2, 91636, Note_on_c, 0, 66, 43
2, 91661, Note_on_c, 0, 63, 28
2, 91752, Note_on_c, 0, 72, 0
2, 91811, Control_c, 0, 64, 26
2, 91828, Control_c, 0, 64, 40
2, 91850, Control_c, 0, 64, 54
2, 91868, Control_c, 0, 64, 64
2, 91890, Control_c, 0, 64, 67
2, 91908, Control_c, 0, 64, 72
2, 91928, Control_c, 0, 64, 79
2, 91928, Note_on_c, 0, 56, 0
2, 91946, Control_c, 0, 64, 97
2, 91964, Control_c, 0, 64, 127
2, 92401, Note_on_c, 0, 73, 64
2, 92430, Note_on_c, 0, 56, 40
2, 92620, Note_on_c, 0, 63, 0
2, 92786, Note_on_c, 0, 75, 71
2, 92804, Note_on_c, 0, 56, 0
2, 92878, Note_on_c, 0, 66, 0
2, 92972, Note_on_c, 0, 73, 0
2, 93243, Note_on_c, 0, 49, 42
2, 93250, Control_c, 0, 64, 110
2, 93270, Control_c, 0, 64, 95
2, 93284, Note_on_c, 0, 77, 72
2, 93288, Control_c, 0, 64, 79
2, 93309, Control_c, 0, 64, 66
2, 93327, Control_c, 0, 64, 53
2, 93333, Note_on_c, 0, 75, 0
2, 93348, Control_c, 0, 64, 30
2, 93365, Control_c, 0, 64, 0
2, 93465, Control_c, 0, 64, 33
2, 93481, Control_c, 0, 64, 52
2, 93500, Control_c, 0, 64, 64
2, 93520, Control_c, 0, 64, 74
2, 93539, Control_c, 0, 64, 92
2, 93558, Control_c, 0, 64, 127
2, 93620, Note_on_c, 0, 49, 0
2, 93895, Note_on_c, 0, 77, 0
2, 94144, Note_on_c, 0, 68, 48
2, 94169, Note_on_c, 0, 65, 27
2, 94526, Note_on_c, 0, 68, 0
2, 94545, Note_on_c, 0, 66, 40
2, 94556, Note_on_c, 0, 63, 36
2, 94600, Note_on_c, 0, 65, 0
2, 94654, Control_c, 0, 64, 122
2, 94670, Control_c, 0, 64, 116
2, 94690, Control_c, 0, 64, 112
2, 94708, Control_c, 0, 64, 109
2, 94728, Control_c, 0, 64, 106
2, 94748, Control_c, 0, 64, 104
2, 94769, Control_c, 0, 64, 102
2, 94788, Control_c, 0, 64, 99
2, 94802, Note_on_c, 0, 66, 0
2, 94806, Control_c, 0, 64, 95
2, 94824, Control_c, 0, 64, 91
2, 94844, Control_c, 0, 64, 88
2, 94864, Control_c, 0, 64, 84
2, 94882, Control_c, 0, 64, 80
2, 94901, Control_c, 0, 64, 76
2, 94922, Control_c, 0, 64, 72
2, 94942, Control_c, 0, 64, 68
2, 94948, Note_on_c, 0, 63, 0
2, 94948, Note_on_c, 0, 65, 39
2, 94960, Note_on_c, 0, 61, 34
2, 94964, Control_c, 0, 64, 64
2, 94977, Control_c, 0, 64, 62
2, 94997, Control_c, 0, 64, 61
2, 95017, Control_c, 0, 64, 60
2, 95034, Control_c, 0, 64, 58
2, 95055, Control_c, 0, 64, 55
2, 95075, Control_c, 0, 64, 48
2, 95096, Control_c, 0, 64, 38
2, 95111, Control_c, 0, 64, 25
2, 95134, Control_c, 0, 64, 0
2, 95763, Note_on_c, 0, 73, 50
2, 95767, Note_on_c, 0, 49, 33
2, 96131, Note_on_c, 0, 72, 59
2, 96201, Note_on_c, 0, 73, 0
2, 96576, Note_on_c, 0, 49, 0
2, 96578, Note_on_c, 0, 54, 31
2, 96578, Note_on_c, 0, 70, 43
2, 96598, Note_on_c, 0, 66, 38
2, 96620, Note_on_c, 0, 65, 0
2, 96627, Note_on_c, 0, 72, 0
2, 96727, Control_c, 0, 64, 21
2, 96744, Control_c, 0, 64, 32
2, 96763, Control_c, 0, 64, 42
2, 96783, Control_c, 0, 64, 51
2, 96803, Control_c, 0, 64, 59
2, 96821, Control_c, 0, 64, 62
2, 96844, Control_c, 0, 64, 63
2, 96858, Control_c, 0, 64, 64
2, 96879, Control_c, 0, 64, 66
2, 96897, Control_c, 0, 64, 71
2, 96918, Control_c, 0, 64, 79
2, 96927, Note_on_c, 0, 66, 0
2, 96940, Control_c, 0, 64, 94
2, 96960, Control_c, 0, 64, 127
2, 97045, Note_on_c, 0, 54, 0
2, 97050, Note_on_c, 0, 70, 0
2, 97401, Note_on_c, 0, 70, 62
2, 97416, Note_on_c, 0, 66, 51
2, 97436, Note_on_c, 0, 54, 39
2, 97777, Note_on_c, 0, 61, 0
2, 97797, Note_on_c, 0, 53, 56
2, 97810, Note_on_c, 0, 70, 0
2, 97846, Note_on_c, 0, 54, 0
2, 97996, Note_on_c, 0, 53, 0
2, 98016, Note_on_c, 0, 66, 0
2, 98188, Control_c, 0, 64, 122
2, 98202, Control_c, 0, 64, 106
2, 98211, Note_on_c, 0, 78, 71
2, 98224, Control_c, 0, 64, 90
2, 98224, Note_on_c, 0, 70, 58
2, 98246, Control_c, 0, 64, 72
2, 98246, Note_on_c, 0, 51, 45
2, 98250, Note_on_c, 0, 63, 40
2, 98263, Control_c, 0, 64, 57
2, 98280, Control_c, 0, 64, 18
2, 98299, Control_c, 0, 64, 0
2, 98415, Control_c, 0, 64, 27
2, 98435, Control_c, 0, 64, 44
2, 98455, Control_c, 0, 64, 58
2, 98473, Control_c, 0, 64, 66
2, 98491, Control_c, 0, 64, 70
2, 98511, Control_c, 0, 64, 75
2, 98529, Control_c, 0, 64, 86
2, 98549, Control_c, 0, 64, 118
2, 98571, Control_c, 0, 64, 127
2, 98676, Note_on_c, 0, 70, 0
2, 98695, Note_on_c, 0, 78, 0
2, 98730, Note_on_c, 0, 51, 0
2, 98751, Note_on_c, 0, 63, 0
2, 99025, Note_on_c, 0, 51, 43
2, 99029, Note_on_c, 0, 78, 73
2, 99037, Note_on_c, 0, 70, 60
2, 99044, Note_on_c, 0, 63, 45
2, 99156, Note_on_c, 0, 51, 0
2, 99407, Note_on_c, 0, 77, 81
2, 99436, Note_on_c, 0, 65, 59
2, 99482, Note_on_c, 0, 63, 0
2, 99608, Note_on_c, 0, 65, 0
2, 99683, Control_c, 0, 64, 113
2, 99700, Control_c, 0, 64, 101
2, 99721, Control_c, 0, 64, 91
2, 99740, Control_c, 0, 64, 83
2, 99759, Control_c, 0, 64, 78
2, 99778, Control_c, 0, 64, 73
2, 99797, Control_c, 0, 64, 67
2, 99817, Control_c, 0, 64, 61
2, 99829, Note_on_c, 0, 60, 51
2, 99836, Control_c, 0, 64, 52
2, 99842, Note_on_c, 0, 66, 47
2, 99846, Note_on_c, 0, 75, 70
2, 99855, Control_c, 0, 64, 36
2, 99873, Control_c, 0, 64, 0
2, 99882, Note_on_c, 0, 78, 0
2, 100007, Note_on_c, 0, 77, 0
2, 100029, Control_c, 0, 64, 39
2, 100047, Control_c, 0, 64, 55
2, 100066, Control_c, 0, 64, 65
2, 100086, Control_c, 0, 64, 73
2, 100103, Note_on_c, 0, 70, 0
2, 100108, Control_c, 0, 64, 94
2, 100123, Control_c, 0, 64, 127
2, 100187, Note_on_c, 0, 66, 0
2, 100220, Note_on_c, 0, 75, 0
2, 100298, Note_on_c, 0, 60, 0
2, 100595, Note_on_c, 0, 75, 80
2, 100611, Note_on_c, 0, 66, 47
2, 100616, Note_on_c, 0, 60, 52
2, 100630, Note_on_c, 0, 69, 59
2, 100970, Note_on_c, 0, 70, 81
2, 100977, Note_on_c, 0, 58, 61
2, 101015, Note_on_c, 0, 69, 0
2, 101026, Note_on_c, 0, 60, 0
2, 101026, Note_on_c, 0, 75, 0
2, 101060, Note_on_c, 0, 70, 0
2, 101082, Note_on_c, 0, 66, 0
2, 101325, Note_on_c, 0, 58, 0
2, 101372, Note_on_c, 0, 84, 81
2, 101381, Note_on_c, 0, 57, 52
2, 101381, Note_on_c, 0, 66, 47
2, 101392, Control_c, 0, 64, 104
2, 101392, Note_on_c, 0, 72, 71
2, 101410, Control_c, 0, 64, 74
2, 101430, Control_c, 0, 64, 56
2, 101449, Control_c, 0, 64, 0
2, 101564, Control_c, 0, 64, 31
2, 101582, Control_c, 0, 64, 54
2, 101603, Control_c, 0, 64, 67
2, 101621, Control_c, 0, 64, 80
2, 101640, Control_c, 0, 64, 127
2, 101667, Note_on_c, 0, 72, 0
2, 101717, Note_on_c, 0, 66, 0
2, 101731, Note_on_c, 0, 84, 0
2, 101779, Note_on_c, 0, 57, 0
2, 102217, Note_on_c, 0, 84, 77
2, 102243, Note_on_c, 0, 65, 38
2, 102257, Note_on_c, 0, 72, 50
2, 102272, Note_on_c, 0, 57, 35
2, 102314, Note_on_c, 0, 72, 0
2, 102318, Note_on_c, 0, 72, 35
2, 102410, Control_c, 0, 64, 71
2, 102430, Control_c, 0, 64, 51
2, 102447, Control_c, 0, 64, 0
2, 102505, Control_c, 0, 64, 12
2, 102525, Control_c, 0, 64, 39
2, 102543, Control_c, 0, 64, 57
2, 102561, Control_c, 0, 64, 66
2, 102581, Control_c, 0, 64, 72
2, 102588, Note_on_c, 0, 82, 75
2, 102601, Control_c, 0, 64, 83
2, 102619, Control_c, 0, 64, 98
2, 102639, Control_c, 0, 64, 127
2, 102709, Note_on_c, 0, 72, 0
2, 102887, Note_on_c, 0, 65, 0
2, 103014, Note_on_c, 0, 81, 63
2, 103047, Note_on_c, 0, 77, 54
2, 103051, Note_on_c, 0, 84, 0
2, 103056, Note_on_c, 0, 63, 41
2, 103081, Note_on_c, 0, 72, 44
2, 103102, Control_c, 0, 64, 79
2, 103102, Note_on_c, 0, 82, 0
2, 103118, Control_c, 0, 64, 61
2, 103140, Control_c, 0, 64, 33
2, 103158, Control_c, 0, 64, 0
2, 103174, Note_on_c, 0, 57, 0
2, 103212, Note_on_c, 0, 72, 0
2, 103212, Note_on_c, 0, 72, 6
2, 103254, Control_c, 0, 64, 11
2, 103271, Control_c, 0, 64, 38
2, 103293, Control_c, 0, 64, 57
2, 103293, Note_on_c, 0, 72, 0
2, 103310, Control_c, 0, 64, 66
2, 103330, Control_c, 0, 64, 73
2, 103352, Control_c, 0, 64, 93
2, 103368, Control_c, 0, 64, 127
2, 103407, Note_on_c, 0, 81, 0
2, 103418, Note_on_c, 0, 77, 0
2, 103776, Note_on_c, 0, 81, 68
2, 103795, Note_on_c, 0, 77, 55
2, 103796, Note_on_c, 0, 65, 46
2, 103804, Note_on_c, 0, 63, 0
2, 103807, Note_on_c, 0, 72, 55
2, 104141, Note_on_c, 0, 72, 0
2, 104157, Note_on_c, 0, 63, 60
2, 104233, Note_on_c, 0, 77, 0
2, 104360, Note_on_c, 0, 65, 0
2, 104543, Note_on_c, 0, 81, 0
2, 104552, Note_on_c, 0, 82, 66
2, 104561, Note_on_c, 0, 62, 58
2, 104565, Note_on_c, 0, 70, 52
2, 104574, Note_on_c, 0, 77, 57
2, 104578, Control_c, 0, 64, 92
2, 104596, Control_c, 0, 64, 71
2, 104618, Control_c, 0, 64, 57
2, 104629, Note_on_c, 0, 63, 0
2, 104635, Control_c, 0, 64, 25
2, 104654, Control_c, 0, 64, 0
2, 104770, Control_c, 0, 64, 20
2, 104788, Control_c, 0, 64, 41
2, 104809, Control_c, 0, 64, 57
2, 104828, Control_c, 0, 64, 65
2, 104846, Control_c, 0, 64, 70
2, 104867, Control_c, 0, 64, 78
2, 104887, Control_c, 0, 64, 91
2, 104904, Control_c, 0, 64, 127
2, 104937, Note_on_c, 0, 82, 0
2, 104951, Note_on_c, 0, 70, 0
2, 104971, Note_on_c, 0, 62, 0
2, 104991, Note_on_c, 0, 77, 0
2, 105294, Note_on_c, 0, 82, 70
2, 105315, Note_on_c, 0, 62, 54
2, 105318, Note_on_c, 0, 77, 61
2, 105321, Note_on_c, 0, 70, 48
2, 105361, Control_c, 0, 64, 122
2, 105381, Control_c, 0, 64, 81
2, 105403, Control_c, 0, 64, 64
2, 105419, Control_c, 0, 64, 47
2, 105440, Control_c, 0, 64, 0
2, 105553, Control_c, 0, 64, 24
2, 105574, Control_c, 0, 64, 42
2, 105592, Control_c, 0, 64, 56
2, 105612, Control_c, 0, 64, 64
2, 105631, Control_c, 0, 64, 66
2, 105650, Control_c, 0, 64, 67
2, 105654, Note_on_c, 0, 80, 75
2, 105670, Control_c, 0, 64, 70
2, 105690, Control_c, 0, 64, 76
2, 105708, Control_c, 0, 64, 89
2, 105727, Control_c, 0, 64, 127
2, 105782, Note_on_c, 0, 77, 0
2, 105825, Note_on_c, 0, 70, 0
2, 106035, Control_c, 0, 64, 109
2, 106044, Note_on_c, 0, 63, 43
2, 106044, Note_on_c, 0, 78, 69
2, 106056, Control_c, 0, 64, 95
2, 106062, Note_on_c, 0, 77, 57
2, 106073, Note_on_c, 0, 70, 40
2, 106078, Control_c, 0, 64, 84
2, 106078, Note_on_c, 0, 62, 0
2, 106096, Control_c, 0, 64, 72
2, 106112, Control_c, 0, 64, 61
2, 106131, Control_c, 0, 64, 38
2, 106149, Control_c, 0, 64, 0
2, 106154, Note_on_c, 0, 82, 0
2, 106172, Note_on_c, 0, 80, 0
2, 106265, Control_c, 0, 64, 28
2, 106285, Control_c, 0, 64, 47
2, 106302, Control_c, 0, 64, 60
2, 106322, Control_c, 0, 64, 67
2, 106344, Control_c, 0, 64, 73
2, 106361, Control_c, 0, 64, 83
2, 106372, Note_on_c, 0, 70, 0
2, 106372, Note_on_c, 0, 77, 0
2, 106381, Control_c, 0, 64, 106
2, 106401, Control_c, 0, 64, 127
2, 106517, Note_on_c, 0, 63, 0
2, 106524, Note_on_c, 0, 78, 0
2, 106797, Note_on_c, 0, 78, 74
2, 106822, Note_on_c, 0, 70, 55
2, 106822, Note_on_c, 0, 75, 61
2, 106831, Note_on_c, 0, 63, 53
2, 107108, Note_on_c, 0, 75, 0
2, 107133, Note_on_c, 0, 78, 0
2, 107180, Note_on_c, 0, 70, 0
2, 107193, Note_on_c, 0, 61, 64
2, 107344, Note_on_c, 0, 63, 0
2, 107571, Control_c, 0, 64, 116
2, 107580, Note_on_c, 0, 61, 0
2, 107585, Note_on_c, 0, 78, 71
2, 107589, Control_c, 0, 64, 94
2, 107599, Note_on_c, 0, 75, 68
2, 107600, Note_on_c, 0, 70, 57
2, 107608, Control_c, 0, 64, 81
2, 107608, Note_on_c, 0, 60, 57
2, 107626, Control_c, 0, 64, 70
2, 107646, Control_c, 0, 64, 60
2, 107666, Control_c, 0, 64, 43
2, 107684, Control_c, 0, 64, 0
2, 107819, Control_c, 0, 64, 29
2, 107839, Control_c, 0, 64, 45
2, 107857, Control_c, 0, 64, 58
2, 107877, Control_c, 0, 64, 64
2, 107895, Control_c, 0, 64, 67
2, 107908, Note_on_c, 0, 60, 0
2, 107917, Control_c, 0, 64, 70
2, 107934, Control_c, 0, 64, 76
2, 107954, Control_c, 0, 64, 89
2, 107974, Control_c, 0, 64, 127
2, 108051, Note_on_c, 0, 78, 0
2, 108105, Note_on_c, 0, 75, 0
2, 108363, Note_on_c, 0, 60, 64
2, 108363, Note_on_c, 0, 69, 65
2, 108363, Note_on_c, 0, 78, 70
2, 108372, Note_on_c, 0, 75, 66
2, 108401, Note_on_c, 0, 70, 0
2, 108724, Note_on_c, 0, 70, 78
2, 108726, Note_on_c, 0, 58, 64
2, 108782, Note_on_c, 0, 75, 0
2, 108830, Note_on_c, 0, 78, 0
2, 108845, Note_on_c, 0, 60, 0
2, 108852, Note_on_c, 0, 69, 0
2, 108932, Control_c, 0, 64, 110
2, 108952, Control_c, 0, 64, 101
2, 108974, Control_c, 0, 64, 95
2, 108991, Control_c, 0, 64, 92
2, 109009, Control_c, 0, 64, 88
2, 109028, Control_c, 0, 64, 85
2, 109050, Control_c, 0, 64, 80
2, 109070, Control_c, 0, 64, 74
2, 109070, Note_on_c, 0, 58, 0
2, 109087, Control_c, 0, 64, 69
2, 109107, Control_c, 0, 64, 65
2, 109128, Control_c, 0, 64, 60
2, 109128, Note_on_c, 0, 78, 79
2, 109137, Note_on_c, 0, 57, 58
2, 109137, Note_on_c, 0, 72, 71
2, 109145, Control_c, 0, 64, 53
2, 109149, Note_on_c, 0, 75, 67
2, 109165, Control_c, 0, 64, 36
2, 109184, Control_c, 0, 64, 0
2, 109243, Note_on_c, 0, 70, 0
2, 109317, Control_c, 0, 64, 27
2, 109337, Control_c, 0, 64, 49
2, 109354, Control_c, 0, 64, 63
2, 109375, Control_c, 0, 64, 70
2, 109393, Control_c, 0, 64, 80
2, 109413, Control_c, 0, 64, 110
2, 109431, Control_c, 0, 64, 127
2, 109484, Note_on_c, 0, 72, 0
2, 109489, Note_on_c, 0, 57, 0
2, 109556, Note_on_c, 0, 78, 0
2, 109890, Note_on_c, 0, 77, 81
2, 109906, Note_on_c, 0, 65, 43
2, 109917, Note_on_c, 0, 73, 69
2, 109928, Note_on_c, 0, 57, 33
2, 109932, Control_c, 0, 64, 94
2, 109950, Control_c, 0, 64, 74
2, 109954, Note_on_c, 0, 75, 0
2, 109970, Control_c, 0, 64, 61
2, 109990, Control_c, 0, 64, 40
2, 110008, Control_c, 0, 64, 0
2, 110162, Control_c, 0, 64, 28
2, 110180, Control_c, 0, 64, 34
2, 110200, Control_c, 0, 64, 43
2, 110220, Control_c, 0, 64, 53
2, 110238, Control_c, 0, 64, 61
2, 110259, Control_c, 0, 64, 64
2, 110273, Note_on_c, 0, 72, 69
2, 110277, Control_c, 0, 64, 65
2, 110285, Note_on_c, 0, 63, 47
2, 110296, Control_c, 0, 64, 66
2, 110313, Note_on_c, 0, 77, 0
2, 110318, Control_c, 0, 64, 69
2, 110333, Control_c, 0, 64, 76
2, 110338, Note_on_c, 0, 73, 0
2, 110347, Note_on_c, 0, 65, 0
2, 110353, Control_c, 0, 64, 89
2, 110376, Control_c, 0, 64, 127
2, 110463, Note_on_c, 0, 63, 0
2, 110662, Note_on_c, 0, 72, 0
2, 110682, Note_on_c, 0, 77, 63
2, 110690, Note_on_c, 0, 70, 53
2, 110697, Control_c, 0, 64, 101
2, 110704, Note_on_c, 0, 58, 43
2, 110713, Note_on_c, 0, 61, 37
2, 110717, Control_c, 0, 64, 88
2, 110734, Control_c, 0, 64, 78
2, 110755, Control_c, 0, 64, 69
2, 110775, Control_c, 0, 64, 59
2, 110775, Note_on_c, 0, 57, 0
2, 110795, Control_c, 0, 64, 37
2, 110812, Control_c, 0, 64, 0
2, 110927, Control_c, 0, 64, 21
2, 110947, Control_c, 0, 64, 40
2, 110967, Control_c, 0, 64, 54
2, 110985, Control_c, 0, 64, 63
2, 110997, Note_on_c, 0, 70, 0
2, 111004, Control_c, 0, 64, 67
2, 111022, Control_c, 0, 64, 70
2, 111042, Control_c, 0, 64, 75
2, 111062, Control_c, 0, 64, 85
2, 111079, Note_on_c, 0, 61, 0
2, 111084, Control_c, 0, 64, 104
2, 111099, Control_c, 0, 64, 127
2, 111130, Note_on_c, 0, 58, 0
2, 111480, Note_on_c, 0, 78, 65
2, 111483, Note_on_c, 0, 61, 37
2, 111501, Note_on_c, 0, 70, 44
2, 111520, Note_on_c, 0, 77, 0
2, 111532, Note_on_c, 0, 58, 38
2, 111600, Control_c, 0, 64, 104
2, 111618, Control_c, 0, 64, 81
2, 111636, Control_c, 0, 64, 66
2, 111656, Control_c, 0, 64, 54
2, 111676, Control_c, 0, 64, 40
2, 111693, Control_c, 0, 64, 36
2, 111714, Control_c, 0, 64, 41
2, 111736, Control_c, 0, 64, 48
2, 111752, Control_c, 0, 64, 57
2, 111772, Control_c, 0, 64, 63
2, 111792, Control_c, 0, 64, 66
2, 111811, Control_c, 0, 64, 69
2, 111832, Control_c, 0, 64, 75
2, 111832, Note_on_c, 0, 58, 0
2, 111848, Control_c, 0, 64, 86
2, 111868, Control_c, 0, 64, 120
2, 111873, Note_on_c, 0, 56, 50
2, 111882, Note_on_c, 0, 77, 67
2, 111887, Control_c, 0, 64, 127
2, 111935, Note_on_c, 0, 56, 0
2, 111944, Note_on_c, 0, 70, 0
2, 111955, Note_on_c, 0, 61, 0
2, 112271, Control_c, 0, 64, 100
2, 112283, Note_on_c, 0, 61, 35
2, 112287, Note_on_c, 0, 75, 58
2, 112291, Control_c, 0, 64, 84
2, 112291, Note_on_c, 0, 70, 47
2, 112298, Note_on_c, 0, 54, 37
2, 112309, Control_c, 0, 64, 70
2, 112329, Control_c, 0, 64, 59
2, 112347, Control_c, 0, 64, 41
2, 112367, Control_c, 0, 64, 0
2, 112423, Note_on_c, 0, 78, 0
2, 112451, Note_on_c, 0, 77, 0
2, 112464, Control_c, 0, 64, 13
2, 112482, Control_c, 0, 64, 35
2, 112500, Control_c, 0, 64, 50
2, 112519, Control_c, 0, 64, 62
2, 112539, Control_c, 0, 64, 66
2, 112561, Control_c, 0, 64, 68
2, 112578, Control_c, 0, 64, 70
2, 112597, Control_c, 0, 64, 74
2, 112612, Note_on_c, 0, 70, 0
2, 112620, Control_c, 0, 64, 82
2, 112620, Note_on_c, 0, 54, 0
2, 112627, Note_on_c, 0, 75, 0
2, 112635, Control_c, 0, 64, 96
2, 112657, Control_c, 0, 64, 127
2, 112691, Note_on_c, 0, 61, 0
2, 113103, Note_on_c, 0, 75, 55
2, 113117, Control_c, 0, 64, 106
2, 113131, Note_on_c, 0, 69, 41
2, 113135, Control_c, 0, 64, 93
2, 113135, Note_on_c, 0, 54, 33
2, 113149, Note_on_c, 0, 60, 38
2, 113153, Control_c, 0, 64, 82
2, 113173, Control_c, 0, 64, 71
2, 113192, Control_c, 0, 64, 60
2, 113212, Control_c, 0, 64, 45
2, 113231, Control_c, 0, 64, 18
2, 113250, Control_c, 0, 64, 0
2, 113306, Control_c, 0, 64, 13
2, 113328, Control_c, 0, 64, 30
2, 113346, Control_c, 0, 64, 46
2, 113364, Control_c, 0, 64, 58
2, 113383, Control_c, 0, 64, 63
2, 113404, Control_c, 0, 64, 64
2, 113422, Control_c, 0, 64, 65
2, 113441, Control_c, 0, 64, 66
2, 113441, Note_on_c, 0, 54, 0
2, 113461, Control_c, 0, 64, 71
2, 113481, Control_c, 0, 64, 79
2, 113487, Note_on_c, 0, 61, 40
2, 113487, Note_on_c, 0, 73, 73
2, 113491, Note_on_c, 0, 70, 62
2, 113505, Control_c, 0, 64, 96
2, 113505, Note_on_c, 0, 53, 45
2, 113505, Note_on_c, 0, 69, 0
2, 113519, Control_c, 0, 64, 127
2, 113543, Note_on_c, 0, 60, 0
2, 113643, Note_on_c, 0, 53, 0
2, 113683, Note_on_c, 0, 70, 0
2, 113699, Note_on_c, 0, 61, 0
2, 113898, Note_on_c, 0, 72, 74
2, 113902, Note_on_c, 0, 70, 69
2, 113906, Control_c, 0, 64, 100
2, 113911, Note_on_c, 0, 63, 55
2, 113924, Control_c, 0, 64, 76
2, 113928, Note_on_c, 0, 51, 53
2, 113941, Control_c, 0, 64, 60
2, 113961, Control_c, 0, 64, 27
2, 113981, Control_c, 0, 64, 0
2, 114028, Note_on_c, 0, 73, 0
2, 114097, Control_c, 0, 64, 28
2, 114097, Note_on_c, 0, 75, 0
2, 114113, Control_c, 0, 64, 45
2, 114134, Control_c, 0, 64, 58
2, 114142, Note_on_c, 0, 63, 0
2, 114154, Control_c, 0, 64, 65
2, 114172, Control_c, 0, 64, 72
2, 114190, Control_c, 0, 64, 85
2, 114210, Control_c, 0, 64, 127
2, 114309, Note_on_c, 0, 72, 0
2, 114319, Note_on_c, 0, 51, 0
2, 114330, Note_on_c, 0, 70, 0
2, 114657, Note_on_c, 0, 72, 74
2, 114661, Note_on_c, 0, 69, 60
2, 114665, Note_on_c, 0, 66, 60
2, 114676, Note_on_c, 0, 51, 53
2, 114692, Control_c, 0, 64, 84
2, 114712, Control_c, 0, 64, 61
2, 114730, Control_c, 0, 64, 31
2, 114746, Control_c, 0, 64, 0
2, 114844, Control_c, 0, 64, 21
2, 114862, Control_c, 0, 64, 44
2, 114882, Control_c, 0, 64, 58
2, 114901, Control_c, 0, 64, 65
2, 114922, Control_c, 0, 64, 68
2, 114940, Control_c, 0, 64, 73
2, 114959, Control_c, 0, 64, 80
2, 114981, Control_c, 0, 64, 94
2, 114998, Control_c, 0, 64, 127
2, 115041, Note_on_c, 0, 49, 61
2, 115041, Note_on_c, 0, 73, 85
2, 115045, Note_on_c, 0, 70, 75
2, 115084, Note_on_c, 0, 72, 0
2, 115129, Note_on_c, 0, 66, 0
2, 115129, Note_on_c, 0, 69, 0
2, 115137, Note_on_c, 0, 51, 0
2, 115281, Note_on_c, 0, 73, 0
2, 115382, Control_c, 0, 64, 101
2, 115399, Control_c, 0, 64, 86
2, 115419, Control_c, 0, 64, 76
2, 115439, Control_c, 0, 64, 65
2, 115453, Note_on_c, 0, 75, 82
2, 115457, Note_on_c, 0, 48, 64
2, 115462, Control_c, 0, 64, 54
2, 115462, Note_on_c, 0, 49, 0
2, 115473, Note_on_c, 0, 69, 51
2, 115477, Control_c, 0, 64, 29
2, 115482, Note_on_c, 0, 66, 64
2, 115498, Control_c, 0, 64, 0
2, 115529, Note_on_c, 0, 70, 0
2, 115630, Control_c, 0, 64, 8
2, 115652, Control_c, 0, 64, 39
2, 115669, Control_c, 0, 64, 52
2, 115689, Control_c, 0, 64, 60
2, 115708, Control_c, 0, 64, 64
2, 115729, Control_c, 0, 64, 66
2, 115729, Note_on_c, 0, 48, 0
2, 115747, Control_c, 0, 64, 70
2, 115764, Control_c, 0, 64, 77
2, 115784, Control_c, 0, 64, 94
2, 115803, Control_c, 0, 64, 127
2, 115871, Note_on_c, 0, 66, 0
2, 115900, Note_on_c, 0, 69, 0
2, 116244, Note_on_c, 0, 48, 73
2, 116252, Note_on_c, 0, 69, 67
2, 116252, Note_on_c, 0, 72, 82
2, 116261, Note_on_c, 0, 66, 64
2, 116274, Note_on_c, 0, 75, 0
2, 116325, Control_c, 0, 64, 107
2, 116345, Control_c, 0, 64, 69
2, 116366, Control_c, 0, 64, 41
2, 116386, Control_c, 0, 64, 0
2, 116502, Control_c, 0, 64, 38
2, 116520, Control_c, 0, 64, 52
2, 116539, Control_c, 0, 64, 61
2, 116557, Control_c, 0, 64, 64
2, 116578, Control_c, 0, 64, 66
2, 116597, Control_c, 0, 64, 69
2, 116617, Control_c, 0, 64, 75
2, 116635, Control_c, 0, 64, 85
2, 116639, Note_on_c, 0, 73, 85
2, 116649, Note_on_c, 0, 46, 71
2, 116656, Control_c, 0, 64, 104
2, 116656, Note_on_c, 0, 70, 77
2, 116674, Control_c, 0, 64, 127
2, 116683, Note_on_c, 0, 72, 0
2, 116709, Note_on_c, 0, 48, 0
2, 116731, Note_on_c, 0, 66, 0
2, 116735, Note_on_c, 0, 69, 0
2, 116870, Note_on_c, 0, 73, 0
2, 116962, Control_c, 0, 64, 122
2, 116985, Control_c, 0, 64, 112
2, 117001, Control_c, 0, 64, 104
2, 117021, Control_c, 0, 64, 98
2, 117039, Control_c, 0, 64, 93
2, 117058, Control_c, 0, 64, 89
2, 117076, Control_c, 0, 64, 88
2, 117117, Control_c, 0, 64, 86
2, 117117, Note_on_c, 0, 45, 56
2, 117134, Control_c, 0, 64, 84
2, 117141, Note_on_c, 0, 75, 76
2, 117154, Control_c, 0, 64, 80
2, 117158, Note_on_c, 0, 72, 77
2, 117167, Note_on_c, 0, 66, 62
2, 117173, Control_c, 0, 64, 75
2, 117195, Control_c, 0, 64, 68
2, 117195, Note_on_c, 0, 46, 0
2, 117211, Control_c, 0, 64, 60
2, 117220, Note_on_c, 0, 70, 0
2, 117229, Control_c, 0, 64, 42
2, 117250, Control_c, 0, 64, 0
2, 117385, Control_c, 0, 64, 22
2, 117403, Control_c, 0, 64, 43
2, 117423, Control_c, 0, 64, 54
2, 117442, Control_c, 0, 64, 61
2, 117460, Control_c, 0, 64, 64
2, 117480, Control_c, 0, 64, 67
2, 117501, Control_c, 0, 64, 72
2, 117505, Note_on_c, 0, 75, 0
2, 117508, Note_on_c, 0, 66, 0
2, 117518, Control_c, 0, 64, 82
2, 117538, Control_c, 0, 64, 105
2, 117556, Control_c, 0, 64, 127
2, 117703, Note_on_c, 0, 72, 0
2, 117970, Note_on_c, 0, 73, 75
2, 117979, Note_on_c, 0, 41, 49
2, 117984, Note_on_c, 0, 65, 60
2, 117984, Note_on_c, 0, 70, 64
2, 118017, Control_c, 0, 64, 96
2, 118038, Control_c, 0, 64, 83
2, 118058, Control_c, 0, 64, 74
2, 118058, Note_on_c, 0, 45, 0
2, 118075, Control_c, 0, 64, 65
2, 118093, Control_c, 0, 64, 54
2, 118112, Control_c, 0, 64, 26
2, 118134, Control_c, 0, 64, 0
2, 118286, Control_c, 0, 64, 20
2, 118305, Control_c, 0, 64, 33
2, 118324, Control_c, 0, 64, 46
2, 118346, Control_c, 0, 64, 57
2, 118364, Control_c, 0, 64, 63
2, 118368, Note_on_c, 0, 72, 71
2, 118383, Control_c, 0, 64, 64
2, 118383, Note_on_c, 0, 69, 60
2, 118420, Control_c, 0, 64, 66
2, 118426, Note_on_c, 0, 70, 0
2, 118442, Control_c, 0, 64, 68
2, 118447, Note_on_c, 0, 73, 0
2, 118458, Control_c, 0, 64, 73
2, 118465, Note_on_c, 0, 65, 0
2, 118479, Control_c, 0, 64, 80
2, 118499, Control_c, 0, 64, 92
2, 118517, Control_c, 0, 64, 112
2, 118536, Control_c, 0, 64, 127
2, 118809, Note_on_c, 0, 69, 0
2, 118821, Note_on_c, 0, 73, 67
2, 118825, Control_c, 0, 64, 106
2, 118840, Note_on_c, 0, 70, 59
2, 118844, Control_c, 0, 64, 94
2, 118848, Note_on_c, 0, 46, 46
2, 118848, Note_on_c, 0, 65, 43
2, 118855, Note_on_c, 0, 72, 0
2, 118862, Control_c, 0, 64, 82
2, 118871, Note_on_c, 0, 41, 0
2, 118884, Control_c, 0, 64, 70
2, 118899, Control_c, 0, 64, 60
2, 118921, Control_c, 0, 64, 43
2, 118939, Control_c, 0, 64, 0
2, 119095, Control_c, 0, 64, 29
2, 119114, Control_c, 0, 64, 37
2, 119132, Control_c, 0, 64, 48
2, 119152, Control_c, 0, 64, 59
2, 119173, Control_c, 0, 64, 64
2, 119188, Control_c, 0, 64, 66
2, 119210, Control_c, 0, 64, 69
2, 119230, Control_c, 0, 64, 74
2, 119248, Control_c, 0, 64, 84
2, 119266, Control_c, 0, 64, 110
2, 119285, Control_c, 0, 64, 127
2, 119296, Note_on_c, 0, 46, 0
2, 119686, Note_on_c, 0, 46, 59
2, 119937, Control_c, 0, 64, 113
2, 119957, Control_c, 0, 64, 101
2, 119976, Control_c, 0, 64, 95
2, 119995, Control_c, 0, 64, 90
2, 120014, Control_c, 0, 64, 87
2, 120034, Control_c, 0, 64, 83
2, 120047, Note_on_c, 0, 44, 71
2, 120053, Control_c, 0, 64, 81
2, 120072, Control_c, 0, 64, 78
2, 120092, Control_c, 0, 64, 76
2, 120110, Control_c, 0, 64, 74
2, 120128, Control_c, 0, 64, 72
2, 120149, Control_c, 0, 64, 70
2, 120167, Control_c, 0, 64, 67
2, 120187, Control_c, 0, 64, 64
2, 120205, Control_c, 0, 64, 62
2, 120209, Note_on_c, 0, 46, 0
2, 120228, Control_c, 0, 64, 60
2, 120244, Control_c, 0, 64, 59
2, 120263, Control_c, 0, 64, 58
2, 120282, Control_c, 0, 64, 55
2, 120302, Control_c, 0, 64, 50
2, 120320, Control_c, 0, 64, 44
2, 120341, Control_c, 0, 64, 38
2, 120358, Control_c, 0, 64, 31
2, 120378, Control_c, 0, 64, 22
2, 120400, Control_c, 0, 64, 0
2, 120459, Note_on_c, 0, 42, 65
2, 120552, Note_on_c, 0, 44, 0
2, 120724, Control_c, 0, 64, 32
2, 120742, Control_c, 0, 64, 50
2, 120760, Note_on_c, 0, 65, 0
2, 120764, Control_c, 0, 64, 60
2, 120786, Control_c, 0, 64, 64
2, 120801, Control_c, 0, 64, 66
2, 120821, Control_c, 0, 64, 68
2, 120840, Control_c, 0, 64, 76
2, 120859, Control_c, 0, 64, 100
2, 120882, Control_c, 0, 64, 127
2, 120882, Note_on_c, 0, 42, 0
2, 120960, Note_on_c, 0, 70, 0
2, 121277, Note_on_c, 0, 42, 61
2, 121277, Note_on_c, 0, 70, 66
2, 121288, Note_on_c, 0, 65, 59
2, 121377, Control_c, 0, 64, 97
2, 121397, Control_c, 0, 64, 76
2, 121416, Control_c, 0, 64, 63
2, 121434, Control_c, 0, 64, 49
2, 121453, Control_c, 0, 64, 15
2, 121473, Control_c, 0, 64, 0
2, 121606, Control_c, 0, 64, 28
2, 121626, Control_c, 0, 64, 42
2, 121646, Control_c, 0, 64, 54
2, 121655, Note_on_c, 0, 41, 68
2, 121664, Control_c, 0, 64, 60
2, 121684, Control_c, 0, 64, 62
2, 121725, Note_on_c, 0, 65, 0
2, 121746, Note_on_c, 0, 42, 0
2, 121762, Control_c, 0, 64, 63
2, 121780, Control_c, 0, 64, 64
2, 121798, Control_c, 0, 64, 65
2, 121807, Note_on_c, 0, 70, 0
2, 121820, Control_c, 0, 64, 66
2, 121838, Control_c, 0, 64, 68
2, 121855, Control_c, 0, 64, 69
2, 121873, Control_c, 0, 64, 70
2, 121893, Control_c, 0, 64, 69
2, 121933, Control_c, 0, 64, 68
2, 121968, Control_c, 0, 64, 67
2, 121988, Control_c, 0, 64, 66
2, 122007, Control_c, 0, 64, 65
2, 122049, Control_c, 0, 64, 64
2, 122087, Control_c, 0, 64, 63
2, 122103, Control_c, 0, 64, 62
2, 122116, Note_on_c, 0, 39, 41
2, 122116, Note_on_c, 0, 70, 60
2, 122124, Control_c, 0, 64, 61
2, 122124, Note_on_c, 0, 66, 48
2, 122144, Control_c, 0, 64, 57
2, 122148, Note_on_c, 0, 41, 0
2, 122161, Control_c, 0, 64, 50
2, 122181, Control_c, 0, 64, 31
2, 122201, Control_c, 0, 64, 0
2, 122244, Note_on_c, 0, 73, 0
2, 122354, Control_c, 0, 64, 24
2, 122374, Control_c, 0, 64, 42
2, 122390, Control_c, 0, 64, 56
2, 122413, Control_c, 0, 64, 63
2, 122431, Control_c, 0, 64, 66
2, 122451, Control_c, 0, 64, 69
2, 122469, Control_c, 0, 64, 75
2, 122487, Control_c, 0, 64, 88
2, 122506, Control_c, 0, 64, 127
2, 122524, Note_on_c, 0, 39, 0
2, 122992, Note_on_c, 0, 78, 62
2, 123008, Note_on_c, 0, 39, 41
2, 123193, Note_on_c, 0, 78, 0
2, 123276, Note_on_c, 0, 39, 0
2, 123423, Note_on_c, 0, 77, 74
2, 123816, Note_on_c, 0, 39, 46
2, 123839, Note_on_c, 0, 75, 71
2, 123894, Control_c, 0, 64, 118
2, 123908, Control_c, 0, 64, 73
2, 123928, Control_c, 0, 64, 55
2, 123948, Control_c, 0, 64, 0
2, 124044, Control_c, 0, 64, 35
2, 124062, Control_c, 0, 64, 53
2, 124083, Control_c, 0, 64, 66
2, 124100, Control_c, 0, 64, 74
2, 124108, Note_on_c, 0, 39, 0
2, 124120, Control_c, 0, 64, 90
2, 124133, Note_on_c, 0, 77, 0
2, 124138, Control_c, 0, 64, 127
2, 124218, Note_on_c, 0, 73, 79
2, 124278, Note_on_c, 0, 66, 0
2, 124309, Note_on_c, 0, 70, 0
2, 124320, Note_on_c, 0, 75, 0
2, 124368, Note_on_c, 0, 73, 0
2, 124695, Note_on_c, 0, 72, 82
2, 124716, Note_on_c, 0, 66, 69
2, 124725, Note_on_c, 0, 39, 46
2, 124736, Note_on_c, 0, 63, 57
2, 124753, Control_c, 0, 64, 101
2, 124771, Control_c, 0, 64, 64
2, 124792, Control_c, 0, 64, 41
2, 124814, Control_c, 0, 64, 0
2, 124849, Control_c, 0, 64, 8
2, 124869, Control_c, 0, 64, 34
2, 124887, Control_c, 0, 64, 53
2, 124907, Control_c, 0, 64, 65
2, 124925, Control_c, 0, 64, 71
2, 124947, Control_c, 0, 64, 79
2, 124947, Note_on_c, 0, 63, 0
2, 124965, Control_c, 0, 64, 87
2, 124982, Control_c, 0, 64, 103
2, 124999, Control_c, 0, 64, 127
2, 125155, Control_c, 0, 64, 81
2, 125175, Control_c, 0, 64, 59
2, 125175, Note_on_c, 0, 70, 76
2, 125194, Control_c, 0, 64, 36
2, 125198, Note_on_c, 0, 61, 52
2, 125211, Control_c, 0, 64, 10
2, 125231, Control_c, 0, 64, 26
2, 125249, Control_c, 0, 64, 46
2, 125269, Control_c, 0, 64, 62
2, 125287, Control_c, 0, 64, 74
2, 125300, Note_on_c, 0, 72, 0
2, 125307, Control_c, 0, 64, 127
2, 125375, Note_on_c, 0, 66, 0
2, 125422, Note_on_c, 0, 61, 0
2, 125459, Note_on_c, 0, 70, 0
2, 125593, Note_on_c, 0, 39, 0
2, 126013, Note_on_c, 0, 69, 67
2, 126017, Control_c, 0, 64, 110
2, 126035, Note_on_c, 0, 65, 53
2, 126039, Control_c, 0, 64, 97
2, 126043, Note_on_c, 0, 41, 39
2, 126043, Note_on_c, 0, 60, 46
2, 126060, Control_c, 0, 64, 87
2, 126079, Control_c, 0, 64, 77
2, 126095, Control_c, 0, 64, 68
2, 126115, Control_c, 0, 64, 59
2, 126136, Control_c, 0, 64, 43
2, 126153, Control_c, 0, 64, 0
2, 126307, Control_c, 0, 64, 42
2, 126327, Control_c, 0, 64, 57
2, 126343, Control_c, 0, 64, 65
2, 126363, Control_c, 0, 64, 68
2, 126383, Control_c, 0, 64, 74
2, 126400, Control_c, 0, 64, 84
2, 126421, Control_c, 0, 64, 127
2, 126541, Note_on_c, 0, 41, 0
2, 126588, Note_on_c, 0, 60, 0
2, 126641, Note_on_c, 0, 69, 0
2, 126645, Note_on_c, 0, 65, 0
2, 126977, Control_c, 0, 64, 115
2, 126999, Control_c, 0, 64, 103
2, 127018, Control_c, 0, 64, 96
2, 127037, Control_c, 0, 64, 92
2, 127054, Control_c, 0, 64, 89
2, 127073, Control_c, 0, 64, 86
2, 127095, Control_c, 0, 64, 85
2, 127112, Control_c, 0, 64, 83
2, 127149, Control_c, 0, 64, 82
2, 127170, Control_c, 0, 64, 81
2, 127188, Control_c, 0, 64, 79
2, 127208, Control_c, 0, 64, 77
2, 127226, Control_c, 0, 64, 75
2, 127246, Control_c, 0, 64, 73
2, 127264, Control_c, 0, 64, 70
2, 127284, Control_c, 0, 64, 67
2, 127306, Control_c, 0, 64, 65
2, 127323, Control_c, 0, 64, 63
2, 127343, Control_c, 0, 64, 61
2, 127347, Note_on_c, 0, 65, 34
2, 127362, Control_c, 0, 64, 60
2, 127385, Control_c, 0, 64, 59
2, 127385, Note_on_c, 0, 53, 25
2, 127385, Note_on_c, 0, 57, 27
2, 127399, Control_c, 0, 64, 57
2, 127419, Control_c, 0, 64, 53
2, 127439, Control_c, 0, 64, 46
2, 127458, Control_c, 0, 64, 35
2, 127476, Control_c, 0, 64, 19
2, 127494, Control_c, 0, 64, 0
2, 127750, Note_on_c, 0, 67, 50
2, 127764, Note_on_c, 0, 58, 39
2, 127838, Note_on_c, 0, 57, 0
2, 127842, Note_on_c, 0, 65, 0
2, 127911, Note_on_c, 0, 53, 0
2, 128148, Note_on_c, 0, 67, 0
2, 128159, Note_on_c, 0, 58, 0
2, 128163, Note_on_c, 0, 69, 49
2, 128176, Note_on_c, 0, 60, 35
2, 128181, Note_on_c, 0, 53, 30
2, 128341, Control_c, 0, 64, 20
2, 128361, Control_c, 0, 64, 37
2, 128379, Control_c, 0, 64, 51
2, 128401, Control_c, 0, 64, 62
2, 128416, Control_c, 0, 64, 67
2, 128438, Control_c, 0, 64, 71
2, 128456, Control_c, 0, 64, 77
2, 128475, Control_c, 0, 64, 95
2, 128493, Control_c, 0, 64, 127
2, 128564, Note_on_c, 0, 53, 0
2, 128581, Note_on_c, 0, 69, 0
2, 128620, Note_on_c, 0, 60, 0
2, 128957, Note_on_c, 0, 69, 61
2, 128961, Note_on_c, 0, 63, 60
2, 128989, Note_on_c, 0, 65, 48
2, 128993, Note_on_c, 0, 53, 33
2, 128996, Note_on_c, 0, 60, 36
2, 129284, Note_on_c, 0, 65, 0
2, 129364, Note_on_c, 0, 69, 0
2, 129372, Note_on_c, 0, 53, 0
2, 129648, Note_on_c, 0, 63, 0
2, 129736, Note_on_c, 0, 60, 0
2, 129785, Control_c, 0, 64, 103
2, 129791, Note_on_c, 0, 69, 53
2, 129796, Note_on_c, 0, 61, 51
2, 129805, Control_c, 0, 64, 85
2, 129823, Control_c, 0, 64, 71
2, 129823, Note_on_c, 0, 65, 43
2, 129827, Note_on_c, 0, 58, 33
2, 129841, Control_c, 0, 64, 61
2, 129850, Note_on_c, 0, 53, 19
2, 129861, Control_c, 0, 64, 47
2, 129882, Control_c, 0, 64, 25
2, 129897, Control_c, 0, 64, 0
2, 130034, Control_c, 0, 64, 20
2, 130054, Control_c, 0, 64, 34
2, 130073, Control_c, 0, 64, 47
2, 130091, Control_c, 0, 64, 59
2, 130112, Control_c, 0, 64, 65
2, 130129, Control_c, 0, 64, 70
2, 130149, Control_c, 0, 64, 76
2, 130170, Control_c, 0, 64, 86
2, 130186, Control_c, 0, 64, 115
2, 130206, Control_c, 0, 64, 127
2, 130217, Note_on_c, 0, 69, 0
2, 130291, Note_on_c, 0, 53, 0
2, 130293, Note_on_c, 0, 65, 0
2, 130397, Note_on_c, 0, 61, 0
2, 130581, Note_on_c, 0, 67, 49
2, 130596, Note_on_c, 0, 53, 30
2, 130605, Note_on_c, 0, 64, 45
2, 130647, Control_c, 0, 64, 122
2, 130666, Control_c, 0, 64, 85
2, 130685, Control_c, 0, 64, 65
2, 130707, Control_c, 0, 64, 51
2, 130725, Control_c, 0, 64, 28
2, 130742, Control_c, 0, 64, 0
2, 130820, Control_c, 0, 64, 26
2, 130840, Control_c, 0, 64, 39
2, 130860, Control_c, 0, 64, 51
2, 130878, Control_c, 0, 64, 61
2, 130896, Control_c, 0, 64, 66
2, 130916, Control_c, 0, 64, 68
2, 130925, Note_on_c, 0, 67, 0
2, 130936, Control_c, 0, 64, 72
2, 130941, Note_on_c, 0, 69, 61
2, 130956, Control_c, 0, 64, 80
2, 130961, Note_on_c, 0, 64, 0
2, 130965, Note_on_c, 0, 65, 47
2, 130974, Control_c, 0, 64, 97
2, 130993, Control_c, 0, 64, 127
2, 131009, Note_on_c, 0, 53, 0
2, 131075, Note_on_c, 0, 69, 0
2, 131340, Note_on_c, 0, 53, 35
2, 131351, Note_on_c, 0, 70, 66
2, 131374, Note_on_c, 0, 65, 0
2, 131378, Control_c, 0, 64, 106
2, 131392, Note_on_c, 0, 67, 50
2, 131398, Control_c, 0, 64, 77
2, 131415, Control_c, 0, 64, 61
2, 131435, Control_c, 0, 64, 38
2, 131456, Control_c, 0, 64, 0
2, 131550, Control_c, 0, 64, 23
2, 131570, Control_c, 0, 64, 45
2, 131588, Control_c, 0, 64, 61
2, 131592, Note_on_c, 0, 53, 0
2, 131608, Control_c, 0, 64, 70
2, 131627, Control_c, 0, 64, 88
2, 131646, Control_c, 0, 64, 127
2, 131646, Note_on_c, 0, 67, 0
2, 131657, Note_on_c, 0, 58, 0
2, 131663, Note_on_c, 0, 70, 0
2, 132143, Note_on_c, 0, 70, 70
2, 132159, Note_on_c, 0, 65, 59
2, 132170, Note_on_c, 0, 67, 56
2, 132174, Note_on_c, 0, 61, 45
2, 132196, Note_on_c, 0, 53, 45
2, 132241, Control_c, 0, 64, 102
2, 132264, Control_c, 0, 64, 72
2, 132281, Control_c, 0, 64, 54
2, 132299, Control_c, 0, 64, 0
2, 132414, Control_c, 0, 64, 24
2, 132431, Control_c, 0, 64, 46
2, 132451, Control_c, 0, 64, 60
2, 132471, Control_c, 0, 64, 68
2, 132489, Note_on_c, 0, 67, 0
2, 132493, Control_c, 0, 64, 74
2, 132511, Control_c, 0, 64, 86
2, 132528, Control_c, 0, 64, 127
2, 132554, Note_on_c, 0, 70, 0
2, 132653, Note_on_c, 0, 53, 0
2, 132941, Note_on_c, 0, 61, 0
2, 132958, Note_on_c, 0, 64, 69
2, 132958, Note_on_c, 0, 70, 71
2, 132966, Note_on_c, 0, 60, 46
2, 132973, Note_on_c, 0, 53, 35
2, 132981, Note_on_c, 0, 67, 57
2, 133012, Control_c, 0, 64, 108
2, 133012, Note_on_c, 0, 65, 0
2, 133028, Control_c, 0, 64, 80
2, 133048, Control_c, 0, 64, 64
2, 133068, Control_c, 0, 64, 44
2, 133086, Control_c, 0, 64, 0
2, 133202, Control_c, 0, 64, 35
2, 133222, Control_c, 0, 64, 55
2, 133239, Control_c, 0, 64, 67
2, 133259, Control_c, 0, 64, 76
2, 133278, Control_c, 0, 64, 102
2, 133298, Control_c, 0, 64, 127
2, 133355, Note_on_c, 0, 60, 0
2, 133367, Note_on_c, 0, 53, 0
2, 133396, Note_on_c, 0, 70, 0
2, 133498, Note_on_c, 0, 67, 0
2, 133766, Note_on_c, 0, 65, 62
2, 133775, Note_on_c, 0, 69, 65
2, 133784, Note_on_c, 0, 60, 52
2, 133814, Note_on_c, 0, 53, 31
2, 133836, Control_c, 0, 64, 122
2, 133846, Note_on_c, 0, 64, 0
2, 133853, Control_c, 0, 64, 93
2, 133872, Control_c, 0, 64, 73
2, 133892, Control_c, 0, 64, 59
2, 133911, Control_c, 0, 64, 28
2, 133931, Control_c, 0, 64, 0
2, 134046, Control_c, 0, 64, 29
2, 134064, Control_c, 0, 64, 47
2, 134085, Control_c, 0, 64, 60
2, 134105, Control_c, 0, 64, 66
2, 134123, Control_c, 0, 64, 70
2, 134131, Note_on_c, 0, 70, 79
2, 134144, Control_c, 0, 64, 75
2, 134144, Note_on_c, 0, 61, 54
2, 134155, Note_on_c, 0, 67, 62
2, 134159, Note_on_c, 0, 69, 0
2, 134163, Control_c, 0, 64, 85
2, 134179, Control_c, 0, 64, 105
2, 134188, Note_on_c, 0, 60, 0
2, 134199, Control_c, 0, 64, 127
2, 134265, Note_on_c, 0, 65, 0
2, 134273, Note_on_c, 0, 53, 0
2, 134273, Note_on_c, 0, 70, 0
2, 134332, Note_on_c, 0, 61, 0
2, 134354, Note_on_c, 0, 67, 0
2, 134508, Control_c, 0, 64, 118
2, 134526, Control_c, 0, 64, 102
2, 134545, Control_c, 0, 64, 93
2, 134545, Note_on_c, 0, 53, 49
2, 134558, Note_on_c, 0, 63, 52
2, 134562, Note_on_c, 0, 72, 71
2, 134567, Control_c, 0, 64, 87
2, 134573, Note_on_c, 0, 69, 56
2, 134585, Control_c, 0, 64, 78
2, 134606, Control_c, 0, 64, 65
2, 134621, Control_c, 0, 64, 49
2, 134642, Control_c, 0, 64, 0
2, 134757, Control_c, 0, 64, 28
2, 134777, Control_c, 0, 64, 50
2, 134786, Note_on_c, 0, 53, 0
2, 134797, Control_c, 0, 64, 63
2, 134815, Control_c, 0, 64, 71
2, 134833, Control_c, 0, 64, 83
2, 134853, Control_c, 0, 64, 109
2, 134874, Control_c, 0, 64, 127
2, 134879, Note_on_c, 0, 63, 0
2, 134912, Note_on_c, 0, 69, 0
2, 134983, Note_on_c, 0, 72, 0
2, 135371, Note_on_c, 0, 72, 68
2, 135392, Note_on_c, 0, 63, 48
2, 135397, Note_on_c, 0, 53, 45
2, 135397, Note_on_c, 0, 69, 50
2, 135406, Note_on_c, 0, 65, 42
2, 135734, Note_on_c, 0, 53, 0
2, 135772, Note_on_c, 0, 72, 0
2, 135789, Note_on_c, 0, 69, 0
2, 135836, Note_on_c, 0, 63, 0
2, 136231, Note_on_c, 0, 72, 83
2, 136242, Note_on_c, 0, 61, 50
2, 136249, Note_on_c, 0, 69, 62
2, 136253, Note_on_c, 0, 53, 50
2, 136292, Control_c, 0, 64, 104
2, 136313, Control_c, 0, 64, 90
2, 136333, Control_c, 0, 64, 70
2, 136352, Control_c, 0, 64, 56
2, 136361, Note_on_c, 0, 65, 0
2, 136368, Control_c, 0, 64, 9
2, 136387, Control_c, 0, 64, 0
2, 136486, Control_c, 0, 64, 26
2, 136506, Control_c, 0, 64, 50
2, 136523, Control_c, 0, 64, 65
2, 136543, Control_c, 0, 64, 77
2, 136561, Control_c, 0, 64, 127
2, 136601, Note_on_c, 0, 53, 0
2, 136608, Note_on_c, 0, 61, 0
2, 137040, Note_on_c, 0, 53, 35
2, 137046, Note_on_c, 0, 70, 59
2, 137060, Note_on_c, 0, 65, 43
2, 137069, Note_on_c, 0, 61, 39
2, 137083, Note_on_c, 0, 69, 0
2, 137125, Note_on_c, 0, 72, 0
2, 137408, Note_on_c, 0, 72, 66
2, 137421, Note_on_c, 0, 69, 52
2, 137430, Note_on_c, 0, 60, 46
2, 137448, Note_on_c, 0, 70, 0
2, 137457, Note_on_c, 0, 61, 0
2, 137502, Note_on_c, 0, 53, 0
2, 137561, Control_c, 0, 64, 109
2, 137578, Control_c, 0, 64, 95
2, 137598, Control_c, 0, 64, 89
2, 137618, Control_c, 0, 64, 87
2, 137636, Control_c, 0, 64, 86
2, 137676, Control_c, 0, 64, 85
2, 137693, Control_c, 0, 64, 83
2, 137713, Control_c, 0, 64, 78
2, 137732, Control_c, 0, 64, 74
2, 137751, Control_c, 0, 64, 70
2, 137769, Control_c, 0, 64, 67
2, 137792, Control_c, 0, 64, 63
2, 137809, Control_c, 0, 64, 59
2, 137829, Control_c, 0, 64, 53
2, 137830, Note_on_c, 0, 73, 68
2, 137834, Note_on_c, 0, 58, 45
2, 137843, Note_on_c, 0, 70, 54
2, 137851, Control_c, 0, 64, 43
2, 137851, Note_on_c, 0, 60, 0
2, 137856, Note_on_c, 0, 69, 0
2, 137856, Note_on_c, 0, 72, 0
2, 137869, Control_c, 0, 64, 22
2, 137888, Note_on_c, 0, 53, 31
2, 137888, Note_on_c, 0, 65, 0
2, 137892, Control_c, 0, 64, 0
2, 138039, Control_c, 0, 64, 21
2, 138059, Control_c, 0, 64, 35
2, 138077, Control_c, 0, 64, 47
2, 138097, Control_c, 0, 64, 59
2, 138115, Control_c, 0, 64, 67
2, 138134, Control_c, 0, 64, 77
2, 138155, Control_c, 0, 64, 110
2, 138173, Control_c, 0, 64, 127
2, 138179, Note_on_c, 0, 58, 0
2, 138188, Note_on_c, 0, 53, 0
2, 138278, Note_on_c, 0, 73, 0
2, 138285, Note_on_c, 0, 70, 0
2, 138556, Note_on_c, 0, 73, 79
2, 138568, Note_on_c, 0, 70, 64
2, 138572, Note_on_c, 0, 58, 55
2, 138574, Note_on_c, 0, 65, 60
2, 138613, Note_on_c, 0, 53, 37
2, 138867, Note_on_c, 0, 70, 0
2, 138884, Note_on_c, 0, 73, 0
2, 138923, Note_on_c, 0, 56, 73
2, 139071, Note_on_c, 0, 58, 0
2, 139080, Note_on_c, 0, 53, 0
2, 139311, Note_on_c, 0, 56, 0
2, 139323, Note_on_c, 0, 73, 87
2, 139335, Note_on_c, 0, 70, 73
2, 139339, Note_on_c, 0, 66, 72
2, 139349, Note_on_c, 0, 53, 61
2, 139349, Note_on_c, 0, 54, 59
2, 139399, Control_c, 0, 64, 78
2, 139417, Control_c, 0, 64, 58
2, 139437, Control_c, 0, 64, 0
2, 139474, Note_on_c, 0, 65, 0
2, 139572, Control_c, 0, 64, 47
2, 139592, Control_c, 0, 64, 63
2, 139612, Control_c, 0, 64, 78
2, 139629, Control_c, 0, 64, 127
2, 139669, Note_on_c, 0, 53, 0
2, 139692, Note_on_c, 0, 54, 0
2, 139735, Note_on_c, 0, 66, 0
2, 139783, Note_on_c, 0, 70, 0
2, 139786, Note_on_c, 0, 73, 0
2, 140111, Note_on_c, 0, 54, 68
2, 140111, Note_on_c, 0, 72, 83
2, 140123, Note_on_c, 0, 69, 66
2, 140133, Note_on_c, 0, 51, 70
2, 140141, Note_on_c, 0, 66, 70
2, 140206, Control_c, 0, 64, 94
2, 140226, Control_c, 0, 64, 64
2, 140244, Control_c, 0, 64, 32
2, 140263, Control_c, 0, 64, 0
2, 140399, Control_c, 0, 64, 44
2, 140419, Control_c, 0, 64, 56
2, 140437, Control_c, 0, 64, 61
2, 140457, Control_c, 0, 64, 64
2, 140474, Control_c, 0, 64, 65
2, 140487, Note_on_c, 0, 53, 72
2, 140487, Note_on_c, 0, 73, 90
2, 140496, Control_c, 0, 64, 67
2, 140501, Note_on_c, 0, 49, 64
2, 140501, Note_on_c, 0, 70, 78
2, 140505, Note_on_c, 0, 54, 0
2, 140518, Control_c, 0, 64, 72
2, 140518, Note_on_c, 0, 51, 0
2, 140518, Note_on_c, 0, 72, 0
2, 140533, Control_c, 0, 64, 81
2, 140538, Note_on_c, 0, 69, 0
2, 140553, Note_on_c, 0, 66, 0
2, 140557, Control_c, 0, 64, 100
2, 140570, Control_c, 0, 64, 127
2, 140683, Note_on_c, 0, 73, 0
2, 140698, Note_on_c, 0, 53, 0
2, 140766, Note_on_c, 0, 49, 0
2, 140904, Control_c, 0, 64, 104
2, 140922, Control_c, 0, 64, 94
2, 140931, Note_on_c, 0, 75, 82
2, 140944, Note_on_c, 0, 48, 59
2, 140944, Note_on_c, 0, 51, 60
2, 140944, Note_on_c, 0, 72, 79
2, 140949, Control_c, 0, 64, 84
2, 140949, Note_on_c, 0, 54, 60
2, 140957, Note_on_c, 0, 66, 69
2, 140961, Control_c, 0, 64, 72
2, 140980, Control_c, 0, 64, 61
2, 140990, Note_on_c, 0, 70, 0
2, 140995, Note_on_c, 0, 69, 17
2, 140999, Control_c, 0, 64, 33
2, 141019, Control_c, 0, 64, 0
2, 141170, Control_c, 0, 64, 51
2, 141192, Control_c, 0, 64, 63
2, 141212, Control_c, 0, 64, 68
2, 141230, Control_c, 0, 64, 75
2, 141248, Control_c, 0, 64, 88
2, 141270, Control_c, 0, 64, 127
2, 141270, Note_on_c, 0, 48, 0
2, 141274, Note_on_c, 0, 54, 0
2, 141310, Note_on_c, 0, 51, 0
2, 141314, Note_on_c, 0, 66, 0
2, 141339, Note_on_c, 0, 69, 0
2, 141348, Note_on_c, 0, 75, 0
2, 141352, Note_on_c, 0, 72, 0
2, 141760, Note_on_c, 0, 75, 87
2, 141768, Note_on_c, 0, 69, 74
2, 141771, Note_on_c, 0, 51, 76
2, 141776, Note_on_c, 0, 54, 78
2, 141781, Note_on_c, 0, 48, 73
2, 141781, Note_on_c, 0, 66, 76
2, 141781, Note_on_c, 0, 72, 81
2, 141788, Control_c, 0, 64, 76
2, 141806, Control_c, 0, 64, 50
2, 141827, Control_c, 0, 64, 0
2, 141921, Control_c, 0, 64, 45
2, 141941, Control_c, 0, 64, 62
2, 141961, Control_c, 0, 64, 74
2, 141978, Control_c, 0, 64, 127
2, 141978, Note_on_c, 0, 72, 0
2, 142004, Note_on_c, 0, 75, 0
2, 142026, Note_on_c, 0, 66, 0
2, 142084, Note_on_c, 0, 48, 0
2, 142161, Note_on_c, 0, 51, 0
2, 142263, Note_on_c, 0, 77, 93
2, 142268, Note_on_c, 0, 49, 73
2, 142272, Note_on_c, 0, 46, 78
2, 142277, Note_on_c, 0, 73, 89
2, 142285, Control_c, 0, 64, 83
2, 142305, Control_c, 0, 64, 52
2, 142322, Control_c, 0, 64, 0
2, 142418, Control_c, 0, 64, 17
2, 142438, Control_c, 0, 64, 54
2, 142458, Control_c, 0, 64, 66
2, 142463, Note_on_c, 0, 54, 0
2, 142476, Control_c, 0, 64, 79
2, 142496, Control_c, 0, 64, 127
2, 142500, Note_on_c, 0, 69, 0
2, 142514, Note_on_c, 0, 46, 0
2, 142565, Note_on_c, 0, 49, 0
2, 142630, Note_on_c, 0, 73, 0
2, 142758, Note_on_c, 0, 45, 74
2, 142882, Control_c, 0, 64, 87
2, 142899, Control_c, 0, 64, 68
2, 142919, Control_c, 0, 64, 55
2, 142937, Control_c, 0, 64, 11
2, 142956, Control_c, 0, 64, 0
2, 143002, Note_on_c, 0, 48, 66
2, 143091, Note_on_c, 0, 51, 72
2, 143113, Control_c, 0, 64, 44
2, 143130, Control_c, 0, 64, 57
2, 143150, Control_c, 0, 64, 62
2, 143171, Control_c, 0, 64, 64
2, 143189, Control_c, 0, 64, 66
2, 143204, Note_on_c, 0, 54, 75
2, 143208, Control_c, 0, 64, 68
2, 143228, Control_c, 0, 64, 73
2, 143245, Control_c, 0, 64, 84
2, 143265, Control_c, 0, 64, 127
2, 143316, Note_on_c, 0, 66, 78
2, 143327, Note_on_c, 0, 77, 0
2, 143387, Note_on_c, 0, 69, 72
2, 143494, Note_on_c, 0, 72, 88
2, 143597, Note_on_c, 0, 75, 89
2, 143877, Note_on_c, 0, 78, 93
2, 145717, Note_on_c, 0, 66, 0
2, 145919, Note_on_c, 0, 48, 0
2, 145919, Note_on_c, 0, 51, 0
2, 145947, Note_on_c, 0, 45, 0
2, 145954, Note_on_c, 0, 69, 0
2, 145986, Note_on_c, 0, 72, 0
2, 145999, Note_on_c, 0, 78, 0
2, 146008, Note_on_c, 0, 54, 0
2, 146012, Control_c, 0, 64, 104
2, 146029, Control_c, 0, 64, 96
2, 146041, Note_on_c, 0, 75, 0
2, 146050, Control_c, 0, 64, 92
2, 146067, Control_c, 0, 64, 90
2, 146087, Control_c, 0, 64, 88
2, 146109, Control_c, 0, 64, 85
2, 146125, Control_c, 0, 64, 81
2, 146145, Control_c, 0, 64, 76
2, 146166, Control_c, 0, 64, 71
2, 146183, Control_c, 0, 64, 67
2, 146204, Control_c, 0, 64, 63
2, 146220, Control_c, 0, 64, 61
2, 146241, Control_c, 0, 64, 59
2, 146259, Control_c, 0, 64, 58
2, 146278, Control_c, 0, 64, 55
2, 146298, Control_c, 0, 64, 51
2, 146318, Control_c, 0, 64, 42
2, 146335, Control_c, 0, 64, 28
2, 146356, Control_c, 0, 64, 0
2, 146855, Control_c, 0, 64, 26
2, 146873, Control_c, 0, 64, 35
2, 146892, Control_c, 0, 64, 42
2, 146912, Control_c, 0, 64, 49
2, 146934, Control_c, 0, 64, 58
2, 146954, Control_c, 0, 64, 61
2, 146972, Control_c, 0, 64, 62
2, 147007, Control_c, 0, 64, 63
2, 147027, Control_c, 0, 64, 65
2, 147048, Control_c, 0, 64, 69
2, 147068, Control_c, 0, 64, 76
2, 147085, Control_c, 0, 64, 95
2, 147105, Control_c, 0, 64, 127
2, 147188, Note_on_c, 0, 77, 69
2, 147206, Note_on_c, 0, 65, 36
2, 147210, Note_on_c, 0, 72, 51
2, 147221, Note_on_c, 0, 57, 42
2, 147554, Note_on_c, 0, 72, 0
2, 147679, Note_on_c, 0, 65, 0
2, 147970, Note_on_c, 0, 57, 0
2, 148028, Control_c, 0, 64, 116
2, 148046, Control_c, 0, 64, 101
2, 148063, Control_c, 0, 64, 93
2, 148083, Control_c, 0, 64, 88
2, 148087, Note_on_c, 0, 73, 52
2, 148103, Control_c, 0, 64, 84
2, 148103, Note_on_c, 0, 70, 44
2, 148122, Control_c, 0, 64, 83
2, 148132, Note_on_c, 0, 58, 27
2, 148143, Control_c, 0, 64, 81
2, 148160, Control_c, 0, 64, 79
2, 148166, Note_on_c, 0, 65, 23
2, 148181, Control_c, 0, 64, 71
2, 148181, Note_on_c, 0, 77, 0
2, 148200, Control_c, 0, 64, 61
2, 148218, Control_c, 0, 64, 37
2, 148237, Control_c, 0, 64, 0
2, 148336, Control_c, 0, 64, 34
2, 148353, Control_c, 0, 64, 51
2, 148370, Control_c, 0, 64, 63
2, 148390, Control_c, 0, 64, 68
2, 148412, Control_c, 0, 64, 75
2, 148416, Note_on_c, 0, 65, 0
2, 148416, Note_on_c, 0, 70, 0
2, 148432, Control_c, 0, 64, 86
2, 148447, Control_c, 0, 64, 127
2, 148503, Note_on_c, 0, 58, 0
2, 148945, Note_on_c, 0, 75, 60
2, 148952, Note_on_c, 0, 58, 36
2, 148958, Note_on_c, 0, 73, 0
2, 148970, Note_on_c, 0, 70, 50
2, 148989, Note_on_c, 0, 54, 18
2, 149315, Note_on_c, 0, 72, 71
2, 149344, Note_on_c, 0, 66, 57
2, 149353, Note_on_c, 0, 51, 42
2, 149379, Note_on_c, 0, 54, 0
2, 149379, Note_on_c, 0, 70, 0
2, 149471, Note_on_c, 0, 58, 0
2, 149525, Control_c, 0, 64, 122
2, 149544, Control_c, 0, 64, 118
2, 149565, Control_c, 0, 64, 116
2, 149576, Note_on_c, 0, 66, 0
2, 149582, Control_c, 0, 64, 115
2, 149602, Control_c, 0, 64, 111
2, 149620, Control_c, 0, 64, 108
2, 149640, Note_on_c, 0, 75, 0
2, 149642, Control_c, 0, 64, 104
2, 149660, Control_c, 0, 64, 101
2, 149679, Control_c, 0, 64, 99
2, 149697, Control_c, 0, 64, 96
2, 149715, Control_c, 0, 64, 93
2, 149734, Control_c, 0, 64, 89
2, 149753, Control_c, 0, 64, 84
2, 149766, Note_on_c, 0, 73, 67
2, 149775, Control_c, 0, 64, 78
2, 149782, Note_on_c, 0, 70, 52
2, 149795, Control_c, 0, 64, 72
2, 149795, Note_on_c, 0, 53, 39
2, 149807, Note_on_c, 0, 65, 31
2, 149811, Control_c, 0, 64, 65
2, 149825, Note_on_c, 0, 51, 0
2, 149829, Control_c, 0, 64, 54
2, 149849, Control_c, 0, 64, 24
2, 149866, Note_on_c, 0, 72, 0
2, 149871, Control_c, 0, 64, 0
2, 149985, Control_c, 0, 64, 21
2, 150005, Control_c, 0, 64, 41
2, 150024, Control_c, 0, 64, 55
2, 150041, Control_c, 0, 64, 64
2, 150062, Control_c, 0, 64, 68
2, 150081, Control_c, 0, 64, 73
2, 150094, Note_on_c, 0, 65, 0
2, 150101, Control_c, 0, 64, 82
2, 150121, Control_c, 0, 64, 99
2, 150139, Control_c, 0, 64, 127
2, 150202, Note_on_c, 0, 70, 0
2, 150408, Note_on_c, 0, 73, 0
2, 150714, Note_on_c, 0, 72, 53
2, 150718, Note_on_c, 0, 41, 25
2, 150735, Note_on_c, 0, 69, 41
2, 150755, Note_on_c, 0, 63, 26
2, 150795, Control_c, 0, 64, 101
2, 150810, Control_c, 0, 64, 88
2, 150829, Control_c, 0, 64, 77
2, 150848, Control_c, 0, 64, 68
2, 150867, Control_c, 0, 64, 59
2, 150888, Control_c, 0, 64, 44
2, 150906, Control_c, 0, 64, 0
2, 151042, Control_c, 0, 64, 26
2, 151058, Control_c, 0, 64, 41
2, 151078, Control_c, 0, 64, 52
2, 151098, Control_c, 0, 64, 61
2, 151119, Control_c, 0, 64, 64
2, 151156, Control_c, 0, 64, 65
2, 151174, Control_c, 0, 64, 66
2, 151196, Control_c, 0, 64, 69
2, 151196, Note_on_c, 0, 70, 50
2, 151211, Control_c, 0, 64, 74
2, 151232, Control_c, 0, 64, 84
2, 151237, Note_on_c, 0, 72, 0
2, 151250, Note_on_c, 0, 69, 0
2, 151254, Control_c, 0, 64, 103
2, 151270, Control_c, 0, 64, 127
2, 151294, Note_on_c, 0, 70, 0
2, 151341, Note_on_c, 0, 63, 0
2, 151635, Note_on_c, 0, 53, 0
2, 151729, Note_on_c, 0, 70, 50
2, 151742, Note_on_c, 0, 46, 33
2, 151755, Note_on_c, 0, 62, 47
2, 151831, Note_on_c, 0, 41, 0
2, 151849, Control_c, 0, 64, 81
2, 151868, Control_c, 0, 64, 62
2, 151886, Control_c, 0, 64, 42
2, 151907, Control_c, 0, 64, 0
2, 152000, Control_c, 0, 64, 9
2, 152020, Control_c, 0, 64, 30
2, 152038, Control_c, 0, 64, 45
2, 152059, Control_c, 0, 64, 57
2, 152077, Control_c, 0, 64, 64
2, 152094, Control_c, 0, 64, 68
2, 152118, Control_c, 0, 64, 73
2, 152137, Control_c, 0, 64, 78
2, 152155, Control_c, 0, 64, 89
2, 152162, Note_on_c, 0, 62, 0
2, 152173, Control_c, 0, 64, 127
2, 152213, Note_on_c, 0, 46, 0
2, 152678, Note_on_c, 0, 65, 40
2, 152682, Note_on_c, 0, 62, 44
2, 152706, Note_on_c, 0, 53, 34
2, 152715, Note_on_c, 0, 46, 30
2, 152806, Note_on_c, 0, 62, 0
2, 153072, Note_on_c, 0, 66, 55
2, 153085, Note_on_c, 0, 51, 46
2, 153085, Note_on_c, 0, 65, 0
2, 153098, Note_on_c, 0, 63, 38
2, 153209, Note_on_c, 0, 46, 0
2, 153263, Note_on_c, 0, 53, 0
2, 153289, Control_c, 0, 64, 122
2, 153307, Control_c, 0, 64, 102
2, 153327, Control_c, 0, 64, 93
2, 153343, Control_c, 0, 64, 85
2, 153363, Control_c, 0, 64, 79
2, 153384, Control_c, 0, 64, 74
2, 153401, Control_c, 0, 64, 69
2, 153421, Control_c, 0, 64, 65
2, 153441, Control_c, 0, 64, 61
2, 153459, Control_c, 0, 64, 57
2, 153463, Note_on_c, 0, 51, 0
2, 153481, Control_c, 0, 64, 49
2, 153492, Note_on_c, 0, 68, 44
2, 153499, Control_c, 0, 64, 30
2, 153503, Note_on_c, 0, 50, 25
2, 153506, Note_on_c, 0, 63, 0
2, 153510, Note_on_c, 0, 65, 31
2, 153519, Control_c, 0, 64, 0
2, 153523, Note_on_c, 0, 46, 17
2, 153562, Note_on_c, 0, 66, 0
2, 153652, Control_c, 0, 64, 11
2, 153673, Control_c, 0, 64, 27
2, 153690, Control_c, 0, 64, 41
2, 153708, Control_c, 0, 64, 52
2, 153728, Control_c, 0, 64, 62
2, 153749, Control_c, 0, 64, 68
2, 153765, Control_c, 0, 64, 75
2, 153787, Control_c, 0, 64, 92
2, 153804, Control_c, 0, 64, 127
2, 153816, Note_on_c, 0, 65, 0
2, 153849, Note_on_c, 0, 68, 0
2, 153869, Note_on_c, 0, 48, 42
2, 153880, Note_on_c, 0, 50, 0
2, 153965, Note_on_c, 0, 46, 0
2, 154212, Note_on_c, 0, 68, 63
2, 154223, Note_on_c, 0, 65, 47
2, 154248, Note_on_c, 0, 46, 28
2, 154248, Note_on_c, 0, 51, 40
2, 154281, Note_on_c, 0, 48, 0
2, 154285, Control_c, 0, 64, 115
2, 154307, Control_c, 0, 64, 84
2, 154322, Control_c, 0, 64, 66
2, 154342, Control_c, 0, 64, 51
2, 154364, Control_c, 0, 64, 0
2, 154497, Control_c, 0, 64, 32
2, 154515, Control_c, 0, 64, 52
2, 154535, Control_c, 0, 64, 62
2, 154555, Control_c, 0, 64, 66
2, 154555, Note_on_c, 0, 65, 0
2, 154575, Control_c, 0, 64, 69
2, 154585, Note_on_c, 0, 50, 55
2, 154585, Note_on_c, 0, 68, 0
2, 154593, Control_c, 0, 64, 75
2, 154602, Note_on_c, 0, 51, 0
2, 154613, Control_c, 0, 64, 88
2, 154631, Control_c, 0, 64, 127
2, 154718, Note_on_c, 0, 50, 0
2, 154731, Note_on_c, 0, 46, 0
2, 155053, Control_c, 0, 64, 106
2, 155070, Control_c, 0, 64, 95
2, 155081, Note_on_c, 0, 68, 66
2, 155092, Control_c, 0, 64, 85
2, 155105, Note_on_c, 0, 65, 50
2, 155112, Control_c, 0, 64, 75
2, 155114, Note_on_c, 0, 50, 40
2, 155121, Note_on_c, 0, 46, 33
2, 155130, Control_c, 0, 64, 66
2, 155149, Control_c, 0, 64, 57
2, 155169, Control_c, 0, 64, 43
2, 155187, Control_c, 0, 64, 0
2, 155400, Control_c, 0, 64, 32
2, 155418, Control_c, 0, 64, 35
2, 155435, Control_c, 0, 64, 41
2, 155458, Control_c, 0, 64, 49
2, 155476, Control_c, 0, 64, 58
2, 155496, Control_c, 0, 64, 62
2, 155533, Control_c, 0, 64, 63
2, 155552, Control_c, 0, 64, 65
2, 155574, Control_c, 0, 64, 70
2, 155589, Control_c, 0, 64, 85
2, 155612, Control_c, 0, 64, 127
2, 155650, Note_on_c, 0, 46, 0
2, 156050, Note_on_c, 0, 50, 0
2, 156081, Note_on_c, 0, 51, 37
2, 156084, Note_on_c, 0, 66, 52
2, 156090, Control_c, 0, 64, 109
2, 156095, Note_on_c, 0, 46, 40
2, 156110, Control_c, 0, 64, 99
2, 156114, Note_on_c, 0, 63, 40
2, 156128, Control_c, 0, 64, 91
2, 156147, Control_c, 0, 64, 85
2, 156167, Control_c, 0, 64, 78
2, 156187, Control_c, 0, 64, 73
2, 156187, Note_on_c, 0, 65, 0
2, 156207, Control_c, 0, 64, 66
2, 156222, Control_c, 0, 64, 61
2, 156242, Control_c, 0, 64, 56
2, 156264, Control_c, 0, 64, 53
2, 156282, Control_c, 0, 64, 47
2, 156303, Control_c, 0, 64, 30
2, 156303, Note_on_c, 0, 68, 0
2, 156321, Control_c, 0, 64, 0
2, 156471, Note_on_c, 0, 53, 53
2, 156599, Note_on_c, 0, 51, 0
2, 156702, Note_on_c, 0, 46, 0
2, 156954, Note_on_c, 0, 54, 48
2, 157005, Note_on_c, 0, 46, 29
2, 157047, Note_on_c, 0, 53, 0
2, 157261, Control_c, 0, 64, 14
2, 157280, Control_c, 0, 64, 34
2, 157300, Control_c, 0, 64, 48
2, 157319, Control_c, 0, 64, 59
2, 157339, Control_c, 0, 64, 63
2, 157358, Control_c, 0, 64, 64
2, 157378, Control_c, 0, 64, 65
2, 157394, Control_c, 0, 64, 67
2, 157415, Control_c, 0, 64, 73
2, 157435, Control_c, 0, 64, 83
2, 157453, Control_c, 0, 64, 106
2, 157457, Note_on_c, 0, 46, 0
2, 157474, Control_c, 0, 64, 127
2, 157530, Note_on_c, 0, 54, 0
2, 157541, Note_on_c, 0, 66, 0
2, 157591, Note_on_c, 0, 63, 0
2, 158025, Note_on_c, 0, 54, 35
2, 158025, Note_on_c, 0, 65, 38
2, 158029, Control_c, 0, 64, 92
2, 158034, Note_on_c, 0, 46, 36
2, 158034, Note_on_c, 0, 62, 41
2, 158050, Control_c, 0, 64, 71
2, 158067, Control_c, 0, 64, 57
2, 158086, Control_c, 0, 64, 17
2, 158106, Control_c, 0, 64, 0
2, 158183, Control_c, 0, 64, 21
2, 158201, Control_c, 0, 64, 37
2, 158223, Control_c, 0, 64, 52
2, 158242, Control_c, 0, 64, 61
2, 158259, Control_c, 0, 64, 64
2, 158279, Control_c, 0, 64, 65
2, 158297, Control_c, 0, 64, 66
2, 158318, Control_c, 0, 64, 67
2, 158332, Note_on_c, 0, 62, 0
2, 158337, Control_c, 0, 64, 69
2, 158354, Control_c, 0, 64, 72
2, 158375, Control_c, 0, 64, 78
2, 158394, Control_c, 0, 64, 85
2, 158412, Control_c, 0, 64, 94
2, 158433, Control_c, 0, 64, 102
2, 158450, Control_c, 0, 64, 109
2, 158489, Control_c, 0, 64, 110
2, 158509, Control_c, 0, 64, 111
2, 158585, Control_c, 0, 64, 106
2, 158605, Control_c, 0, 64, 101
2, 158625, Control_c, 0, 64, 92
2, 158645, Control_c, 0, 64, 75
2, 158660, Note_on_c, 0, 60, 30
2, 158664, Control_c, 0, 64, 62
2, 158667, Note_on_c, 0, 63, 37
2, 158680, Note_on_c, 0, 65, 0
2, 158685, Control_c, 0, 64, 43
2, 158700, Control_c, 0, 64, 0
2, 158777, Control_c, 0, 64, 16
2, 158798, Control_c, 0, 64, 35
2, 158817, Control_c, 0, 64, 49
2, 158837, Control_c, 0, 64, 59
2, 158852, Control_c, 0, 64, 64
2, 158872, Control_c, 0, 64, 66
2, 158889, Control_c, 0, 64, 68
2, 158908, Control_c, 0, 64, 73
2, 158929, Control_c, 0, 64, 83
2, 158949, Control_c, 0, 64, 106
2, 158966, Control_c, 0, 64, 127
2, 159012, Note_on_c, 0, 60, 0
2, 159059, Note_on_c, 0, 46, 0
2, 159804, Note_on_c, 0, 65, 40
2, 159822, Note_on_c, 0, 53, 37
2, 159828, Note_on_c, 0, 46, 32
2, 159829, Note_on_c, 0, 62, 36
2, 159875, Note_on_c, 0, 54, 0
2, 159965, Control_c, 0, 64, 106
2, 159985, Control_c, 0, 64, 93
2, 160003, Control_c, 0, 64, 83
2, 160025, Control_c, 0, 64, 76
2, 160025, Note_on_c, 0, 63, 0
2, 160042, Control_c, 0, 64, 70
2, 160062, Control_c, 0, 64, 64
2, 160079, Control_c, 0, 64, 60
2, 160099, Control_c, 0, 64, 57
2, 160118, Control_c, 0, 64, 55
2, 160138, Control_c, 0, 64, 52
2, 160158, Control_c, 0, 64, 43
2, 160178, Control_c, 0, 64, 27
2, 160197, Control_c, 0, 64, 0
2, 160503, Control_c, 0, 64, 15
2, 160521, Control_c, 0, 64, 26
2, 160541, Control_c, 0, 64, 34
2, 160560, Control_c, 0, 64, 43
2, 160579, Control_c, 0, 64, 50
2, 160598, Control_c, 0, 64, 55
2, 160618, Control_c, 0, 64, 58
2, 160637, Control_c, 0, 64, 59
2, 160676, Control_c, 0, 64, 60
2, 160693, Control_c, 0, 64, 62
2, 160712, Control_c, 0, 64, 63
2, 160735, Control_c, 0, 64, 64
2, 160772, Control_c, 0, 64, 65
2, 160791, Control_c, 0, 64, 66
2, 160809, Control_c, 0, 64, 67
2, 160829, Control_c, 0, 64, 70
2, 160849, Control_c, 0, 64, 73
2, 160869, Control_c, 0, 64, 77
2, 160886, Control_c, 0, 64, 82
2, 160908, Control_c, 0, 64, 87
2, 160925, Control_c, 0, 64, 92
2, 160947, Control_c, 0, 64, 98
2, 160965, Control_c, 0, 64, 105
2, 160985, Control_c, 0, 64, 116
2, 161003, Control_c, 0, 64, 127
2, 161867, Note_on_c, 0, 46, 0
2, 162020, Control_c, 0, 64, 116
2, 162039, Control_c, 0, 64, 112
2, 162058, Control_c, 0, 64, 107
2, 162076, Control_c, 0, 64, 102
2, 162096, Control_c, 0, 64, 98
2, 162115, Control_c, 0, 64, 94
2, 162135, Control_c, 0, 64, 91
2, 162154, Control_c, 0, 64, 90
2, 162173, Control_c, 0, 64, 88
2, 162192, Control_c, 0, 64, 86
2, 162196, Note_on_c, 0, 53, 0
2, 162212, Control_c, 0, 64, 84
2, 162230, Control_c, 0, 64, 82
2, 162250, Control_c, 0, 64, 80
2, 162270, Control_c, 0, 64, 79
2, 162287, Control_c, 0, 64, 78
2, 162309, Control_c, 0, 64, 76
2, 162329, Control_c, 0, 64, 75
2, 162366, Control_c, 0, 64, 74
2, 162384, Control_c, 0, 64, 73
2, 162404, Control_c, 0, 64, 72
2, 162421, Control_c, 0, 64, 71
2, 162441, Control_c, 0, 64, 70
2, 162462, Control_c, 0, 64, 68
2, 162480, Control_c, 0, 64, 67
2, 162500, Control_c, 0, 64, 66
2, 162531, Note_on_c, 0, 62, 0
2, 162540, Control_c, 0, 64, 65
2, 162573, Note_on_c, 0, 65, 0
2, 162615, Control_c, 0, 64, 64
2, 162653, Control_c, 0, 64, 63
2, 162712, Control_c, 0, 64, 62
2, 162721, Note_on_c, 0, 70, 0
2, 162750, Control_c, 0, 64, 61
2, 162770, Control_c, 0, 64, 60
2, 162806, Control_c, 0, 64, 59
2, 162883, Control_c, 0, 64, 58
2, 162903, Control_c, 0, 64, 57
2, 162923, Control_c, 0, 64, 55
2, 162942, Control_c, 0, 64, 54
2, 162963, Control_c, 0, 64, 53
2, 162980, Control_c, 0, 64, 52
2, 162998, Control_c, 0, 64, 51
2, 163020, Control_c, 0, 64, 50
2, 163040, Control_c, 0, 64, 49
2, 163057, Control_c, 0, 64, 48
2, 163074, Control_c, 0, 64, 47
2, 163094, Control_c, 0, 64, 46
2, 163114, Control_c, 0, 64, 45
2, 163132, Control_c, 0, 64, 43
2, 163152, Control_c, 0, 64, 42
2, 163174, Control_c, 0, 64, 40
2, 163190, Control_c, 0, 64, 39
2, 163247, Control_c, 0, 64, 38
2, 163267, Control_c, 0, 64, 37
2, 163289, Control_c, 0, 64, 36
2, 163304, Control_c, 0, 64, 35
2, 163325, Control_c, 0, 64, 34
2, 163345, Control_c, 0, 64, 32
2, 163362, Control_c, 0, 64, 31
2, 163382, Control_c, 0, 64, 30
2, 164189, Control_c, 0, 64, 29
2, 164207, Control_c, 0, 64, 27
2, 164227, Control_c, 0, 64, 25
2, 164247, Control_c, 0, 64, 22
2, 164265, Control_c, 0, 64, 15
2, 164285, Control_c, 0, 64, 0
2, 165320, Control_c, 0, 64, 9
2, 165341, Control_c, 0, 64, 18
2, 165361, Control_c, 0, 64, 24
2, 165381, Control_c, 0, 64, 32
2, 165397, Control_c, 0, 64, 40
2, 165417, Control_c, 0, 64, 48
2, 165437, Control_c, 0, 64, 55
2, 165455, Control_c, 0, 64, 58
2, 165493, Control_c, 0, 64, 59
2, 165513, Control_c, 0, 64, 60
2, 165533, Control_c, 0, 64, 61
2, 165553, Control_c, 0, 64, 62
2, 165570, Control_c, 0, 64, 63
2, 165590, Control_c, 0, 64, 64
2, 165610, Control_c, 0, 64, 65
2, 165631, Control_c, 0, 64, 67
2, 165649, Control_c, 0, 64, 71
2, 165669, Control_c, 0, 64, 75
2, 165686, Control_c, 0, 64, 81
2, 165706, Control_c, 0, 64, 89
2, 165724, Control_c, 0, 64, 101
2, 165744, Control_c, 0, 64, 127
2, 167159, Note_on_c, 0, 70, 69
2, 168186, Note_on_c, 0, 65, 61
2, 168221, Control_c, 0, 64, 116
2, 168240, Control_c, 0, 64, 101
2, 168259, Control_c, 0, 64, 92
2, 168281, Control_c, 0, 64, 83
2, 168297, Control_c, 0, 64, 73
2, 168318, Control_c, 0, 64, 64
2, 168337, Control_c, 0, 64, 55
2, 168356, Control_c, 0, 64, 44
2, 168374, Control_c, 0, 64, 23
2, 168384, Note_on_c, 0, 70, 0
2, 168396, Control_c, 0, 64, 0
2, 168644, Control_c, 0, 64, 22
2, 168664, Control_c, 0, 64, 38
2, 168681, Control_c, 0, 64, 54
2, 168703, Control_c, 0, 64, 63
2, 168721, Control_c, 0, 64, 65
2, 168740, Control_c, 0, 64, 67
2, 168758, Control_c, 0, 64, 69
2, 168778, Control_c, 0, 64, 75
2, 168798, Control_c, 0, 64, 88
2, 168816, Control_c, 0, 64, 127
2, 169037, Note_on_c, 0, 65, 0
2, 169142, Control_c, 0, 64, 113
2, 169162, Control_c, 0, 64, 102
2, 169182, Control_c, 0, 64, 101
2, 169256, Control_c, 0, 64, 97
2, 169276, Control_c, 0, 64, 90
2, 169296, Control_c, 0, 64, 81
2, 169316, Control_c, 0, 64, 72
2, 169334, Control_c, 0, 64, 65
2, 169352, Control_c, 0, 64, 61
2, 169450, Control_c, 0, 64, 60
2, 169468, Control_c, 0, 64, 58
2, 169487, Control_c, 0, 64, 56
2, 169507, Control_c, 0, 64, 54
2, 169548, Control_c, 0, 64, 53
2, 169565, Control_c, 0, 64, 52
2, 169583, Control_c, 0, 64, 49
2, 169605, Control_c, 0, 64, 46
2, 169623, Control_c, 0, 64, 42
2, 169641, Control_c, 0, 64, 40
2, 169660, Control_c, 0, 64, 38
2, 169680, Control_c, 0, 64, 35
2, 169684, Note_on_c, 0, 78, 73
2, 169699, Control_c, 0, 64, 28
2, 169719, Control_c, 0, 64, 18
2, 169737, Control_c, 0, 64, 0
2, 170151, Note_on_c, 0, 77, 70
2, 170228, Note_on_c, 0, 78, 0
2, 170611, Note_on_c, 0, 75, 64
2, 170711, Note_on_c, 0, 77, 0
2, 171084, Note_on_c, 0, 65, 65
2, 171088, Note_on_c, 0, 73, 63
2, 171154, Note_on_c, 0, 75, 0
2, 171567, Note_on_c, 0, 73, 0
2, 171571, Note_on_c, 0, 72, 69
2, 172022, Note_on_c, 0, 58, 62
2, 172040, Note_on_c, 0, 73, 62
2, 172053, Note_on_c, 0, 72, 0
2, 172109, Note_on_c, 0, 65, 0
2, 172446, Control_c, 0, 64, 22
2, 172464, Control_c, 0, 64, 42
2, 172481, Control_c, 0, 64, 57
2, 172490, Note_on_c, 0, 75, 62
2, 172494, Note_on_c, 0, 58, 0
2, 172503, Control_c, 0, 64, 64
2, 172521, Control_c, 0, 64, 67
2, 172538, Control_c, 0, 64, 70
2, 172554, Note_on_c, 0, 73, 0
2, 172561, Control_c, 0, 64, 74
2, 172581, Control_c, 0, 64, 81
2, 172597, Control_c, 0, 64, 91
2, 172618, Control_c, 0, 64, 109
2, 172640, Control_c, 0, 64, 127
2, 172809, Control_c, 0, 64, 120
2, 172828, Control_c, 0, 64, 95
2, 172848, Control_c, 0, 64, 81
2, 172868, Control_c, 0, 64, 69
2, 172885, Control_c, 0, 64, 59
2, 172905, Control_c, 0, 64, 47
2, 172923, Control_c, 0, 64, 33
2, 172927, Note_on_c, 0, 77, 71
2, 172945, Control_c, 0, 64, 16
2, 172953, Note_on_c, 0, 75, 0
2, 172964, Control_c, 0, 64, 0
2, 173381, Note_on_c, 0, 73, 52
2, 173386, Note_on_c, 0, 77, 0
2, 173393, Note_on_c, 0, 76, 61
2, 173565, Note_on_c, 0, 77, 69
2, 173665, Note_on_c, 0, 76, 0
2, 173809, Note_on_c, 0, 72, 58
2, 173818, Note_on_c, 0, 79, 80
2, 173896, Note_on_c, 0, 73, 0
2, 173961, Note_on_c, 0, 77, 0
2, 174240, Note_on_c, 0, 70, 68
2, 174320, Note_on_c, 0, 72, 0
2, 174540, Note_on_c, 0, 79, 0
2, 174668, Note_on_c, 0, 68, 69
2, 174772, Note_on_c, 0, 70, 0
2, 175087, Note_on_c, 0, 80, 71
2, 175097, Note_on_c, 0, 67, 56
2, 175189, Note_on_c, 0, 68, 0
2, 175287, Note_on_c, 0, 79, 76
2, 175524, Note_on_c, 0, 68, 61
2, 175533, Note_on_c, 0, 77, 68
2, 175537, Note_on_c, 0, 80, 0
2, 175569, Note_on_c, 0, 67, 0
2, 175630, Note_on_c, 0, 79, 0
2, 175955, Note_on_c, 0, 70, 58
2, 175984, Note_on_c, 0, 68, 0
2, 176389, Note_on_c, 0, 72, 62
2, 176458, Note_on_c, 0, 70, 0
2, 176831, Note_on_c, 0, 75, 50
2, 176859, Note_on_c, 0, 77, 0
2, 177022, Note_on_c, 0, 75, 0
2, 177031, Note_on_c, 0, 73, 51
2, 177269, Note_on_c, 0, 75, 56
2, 177365, Note_on_c, 0, 73, 0
2, 177655, Note_on_c, 0, 77, 66
2, 177657, Note_on_c, 0, 70, 44
2, 177809, Note_on_c, 0, 72, 0
2, 177820, Note_on_c, 0, 75, 0
2, 177833, Note_on_c, 0, 69, 54
2, 177871, Note_on_c, 0, 70, 0
2, 178118, Note_on_c, 0, 78, 75
2, 178127, Note_on_c, 0, 70, 55
2, 178168, Note_on_c, 0, 69, 0
2, 178257, Note_on_c, 0, 77, 0
2, 178526, Note_on_c, 0, 70, 0
2, 178546, Note_on_c, 0, 72, 66
2, 178961, Note_on_c, 0, 73, 67
2, 178986, Note_on_c, 0, 72, 0
2, 179412, Note_on_c, 0, 77, 63
2, 179460, Note_on_c, 0, 78, 0
2, 179616, Note_on_c, 0, 75, 64
2, 179635, Note_on_c, 0, 77, 0
2, 179822, Note_on_c, 0, 77, 72
2, 179919, Note_on_c, 0, 75, 0
2, 180236, Note_on_c, 0, 79, 76
2, 180245, Note_on_c, 0, 72, 56
2, 180308, Note_on_c, 0, 73, 0
2, 180401, Note_on_c, 0, 77, 0
2, 180435, Note_on_c, 0, 70, 65
2, 180454, Note_on_c, 0, 72, 0
2, 180680, Note_on_c, 0, 80, 80
2, 180697, Note_on_c, 0, 72, 70
2, 180732, Note_on_c, 0, 70, 0
2, 180779, Note_on_c, 0, 79, 0
2, 181087, Note_on_c, 0, 74, 72
2, 181153, Note_on_c, 0, 72, 0
2, 181548, Note_on_c, 0, 75, 73
2, 181693, Note_on_c, 0, 74, 0
2, 181926, Control_c, 0, 64, 13
2, 181946, Control_c, 0, 64, 35
2, 181967, Control_c, 0, 64, 52
2, 181967, Note_on_c, 0, 79, 73
2, 181983, Control_c, 0, 64, 62
2, 182003, Control_c, 0, 64, 64
2, 182016, Note_on_c, 0, 80, 0
2, 182025, Control_c, 0, 64, 66
2, 182040, Control_c, 0, 64, 70
2, 182061, Control_c, 0, 64, 84
2, 182081, Control_c, 0, 64, 127
2, 182166, Note_on_c, 0, 77, 82
2, 182219, Note_on_c, 0, 79, 0
2, 182230, Note_on_c, 0, 75, 0
2, 182405, Note_on_c, 0, 79, 80
2, 182547, Note_on_c, 0, 77, 0
2, 182674, Control_c, 0, 64, 92
2, 182694, Control_c, 0, 64, 70
2, 182712, Control_c, 0, 64, 59
2, 182731, Control_c, 0, 64, 49
2, 182751, Control_c, 0, 64, 52
2, 182772, Control_c, 0, 64, 59
2, 182785, Note_on_c, 0, 81, 79
2, 182789, Control_c, 0, 64, 64
2, 182800, Note_on_c, 0, 73, 71
2, 182811, Control_c, 0, 64, 70
2, 182829, Control_c, 0, 64, 83
2, 182850, Control_c, 0, 64, 127
2, 182862, Note_on_c, 0, 79, 0
2, 182884, Note_on_c, 0, 73, 0
2, 182949, Note_on_c, 0, 81, 0
2, 182997, Note_on_c, 0, 72, 73
2, 183148, Note_on_c, 0, 72, 0
2, 183303, Note_on_c, 0, 58, 77
2, 183309, Note_on_c, 0, 82, 64
2, 183327, Control_c, 0, 64, 102
2, 183344, Note_on_c, 0, 73, 56
2, 183348, Control_c, 0, 64, 82
2, 183368, Control_c, 0, 64, 69
2, 183384, Control_c, 0, 64, 59
2, 183404, Control_c, 0, 64, 44
2, 183425, Control_c, 0, 64, 0
2, 183796, Note_on_c, 0, 75, 60
2, 183856, Note_on_c, 0, 73, 0
2, 184197, Note_on_c, 0, 53, 74
2, 184204, Note_on_c, 0, 75, 0
2, 184231, Note_on_c, 0, 77, 60
2, 184269, Note_on_c, 0, 58, 0
2, 184302, Note_on_c, 0, 82, 0
2, 184576, Control_c, 0, 64, 13
2, 184596, Control_c, 0, 64, 32
2, 184615, Control_c, 0, 64, 46
2, 184633, Control_c, 0, 64, 57
2, 184652, Control_c, 0, 64, 63
2, 184673, Note_on_c, 0, 81, 63
2, 184686, Note_on_c, 0, 53, 0
2, 184693, Control_c, 0, 64, 64
2, 184729, Control_c, 0, 64, 66
2, 184747, Control_c, 0, 64, 68
2, 184767, Control_c, 0, 64, 72
2, 184787, Control_c, 0, 64, 79
2, 184807, Control_c, 0, 64, 86
2, 184824, Control_c, 0, 64, 91
2, 184844, Control_c, 0, 64, 93
2, 184853, Note_on_c, 0, 79, 77
2, 184892, Note_on_c, 0, 81, 0
2, 184940, Control_c, 0, 64, 92
2, 184952, Note_on_c, 0, 77, 0
2, 184979, Control_c, 0, 64, 91
2, 184997, Control_c, 0, 64, 90
2, 185019, Control_c, 0, 64, 89
2, 185036, Control_c, 0, 64, 87
2, 185055, Control_c, 0, 64, 85
2, 185075, Note_on_c, 0, 81, 76
2, 185079, Control_c, 0, 64, 84
2, 185090, Note_on_c, 0, 79, 0
2, 185093, Control_c, 0, 64, 82
2, 185114, Control_c, 0, 64, 77
2, 185134, Control_c, 0, 64, 71
2, 185152, Control_c, 0, 64, 67
2, 185172, Control_c, 0, 64, 64
2, 185190, Control_c, 0, 64, 61
2, 185209, Control_c, 0, 64, 57
2, 185229, Control_c, 0, 64, 51
2, 185249, Control_c, 0, 64, 43
2, 185266, Control_c, 0, 64, 29
2, 185285, Control_c, 0, 64, 0
2, 185478, Note_on_c, 0, 66, 71
2, 185499, Note_on_c, 0, 82, 73
2, 185515, Note_on_c, 0, 75, 62
2, 185537, Control_c, 0, 64, 31
2, 185541, Note_on_c, 0, 81, 0
2, 185555, Control_c, 0, 64, 47
2, 185573, Control_c, 0, 64, 58
2, 185597, Control_c, 0, 64, 63
2, 185650, Control_c, 0, 64, 65
2, 185664, Note_on_c, 0, 82, 0
2, 185671, Control_c, 0, 64, 68
2, 185689, Control_c, 0, 64, 75
2, 185696, Note_on_c, 0, 75, 0
2, 185701, Note_on_c, 0, 73, 72
2, 185709, Control_c, 0, 64, 87
2, 185731, Control_c, 0, 64, 107
2, 185746, Control_c, 0, 64, 127
2, 185910, Note_on_c, 0, 66, 0
2, 185919, Control_c, 0, 64, 111
2, 185924, Note_on_c, 0, 65, 54
2, 185941, Control_c, 0, 64, 102
2, 185948, Note_on_c, 0, 84, 79
2, 185957, Control_c, 0, 64, 92
2, 185961, Note_on_c, 0, 75, 66
2, 185966, Note_on_c, 0, 73, 0
2, 185977, Control_c, 0, 64, 78
2, 185995, Control_c, 0, 64, 66
2, 186015, Control_c, 0, 64, 53
2, 186035, Control_c, 0, 64, 15
2, 186055, Control_c, 0, 64, 0
2, 186227, Control_c, 0, 64, 18
2, 186246, Control_c, 0, 64, 29
2, 186268, Control_c, 0, 64, 39
2, 186282, Control_c, 0, 64, 49
2, 186304, Control_c, 0, 64, 58
2, 186322, Control_c, 0, 64, 62
2, 186347, Note_on_c, 0, 65, 0
2, 186351, Note_on_c, 0, 63, 68
2, 186360, Control_c, 0, 64, 63
2, 186380, Control_c, 0, 64, 65
2, 186399, Control_c, 0, 64, 71
2, 186419, Control_c, 0, 64, 86
2, 186428, Note_on_c, 0, 84, 0
2, 186437, Control_c, 0, 64, 127
2, 186437, Note_on_c, 0, 63, 0
2, 186458, Note_on_c, 0, 75, 0
2, 186784, Note_on_c, 0, 53, 78
2, 186792, Note_on_c, 0, 61, 66
2, 186821, Control_c, 0, 64, 85
2, 186840, Control_c, 0, 64, 64
2, 186860, Control_c, 0, 64, 35
2, 186881, Control_c, 0, 64, 0
2, 186977, Control_c, 0, 64, 9
2, 186995, Control_c, 0, 64, 38
2, 187014, Control_c, 0, 64, 52
2, 187033, Control_c, 0, 64, 61
2, 187054, Control_c, 0, 64, 64
2, 187090, Control_c, 0, 64, 65
2, 187112, Control_c, 0, 64, 67
2, 187130, Control_c, 0, 64, 73
2, 187151, Control_c, 0, 64, 83
2, 187167, Control_c, 0, 64, 102
2, 187189, Control_c, 0, 64, 127
2, 187193, Note_on_c, 0, 61, 0
2, 187221, Note_on_c, 0, 60, 77
2, 187221, Note_on_c, 0, 82, 76
2, 187246, Note_on_c, 0, 77, 69
2, 187259, Note_on_c, 0, 53, 0
2, 187282, Note_on_c, 0, 60, 0
2, 187397, Note_on_c, 0, 75, 77
2, 187409, Note_on_c, 0, 81, 79
2, 187440, Note_on_c, 0, 77, 0
2, 187450, Note_on_c, 0, 82, 0
2, 187463, Note_on_c, 0, 75, 0
2, 187592, Control_c, 0, 64, 102
2, 187609, Control_c, 0, 64, 73
2, 187628, Control_c, 0, 64, 54
2, 187650, Control_c, 0, 64, 0
2, 187650, Note_on_c, 0, 46, 79
2, 187658, Note_on_c, 0, 82, 81
2, 187660, Note_on_c, 0, 73, 73
2, 187665, Note_on_c, 0, 58, 62
2, 187698, Note_on_c, 0, 81, 0
2, 187764, Control_c, 0, 64, 21
2, 187782, Control_c, 0, 64, 43
2, 187802, Control_c, 0, 64, 58
2, 187821, Control_c, 0, 64, 65
2, 187827, Note_on_c, 0, 73, 0
2, 187841, Control_c, 0, 64, 70
2, 187841, Note_on_c, 0, 46, 0
2, 187845, Note_on_c, 0, 58, 0
2, 187860, Control_c, 0, 64, 76
2, 187877, Control_c, 0, 64, 86
2, 187896, Control_c, 0, 64, 112
2, 187918, Control_c, 0, 64, 127
2, 188076, Note_on_c, 0, 60, 66
2, 188096, Note_on_c, 0, 80, 73
2, 188100, Note_on_c, 0, 72, 65
2, 188185, Note_on_c, 0, 82, 0
2, 188187, Note_on_c, 0, 72, 0
2, 188267, Note_on_c, 0, 61, 63
2, 188287, Note_on_c, 0, 60, 0
2, 188341, Control_c, 0, 64, 122
2, 188358, Control_c, 0, 64, 101
2, 188378, Control_c, 0, 64, 86
2, 188396, Control_c, 0, 64, 76
2, 188416, Control_c, 0, 64, 69
2, 188436, Control_c, 0, 64, 64
2, 188454, Control_c, 0, 64, 60
2, 188471, Control_c, 0, 64, 57
2, 188492, Control_c, 0, 64, 53
2, 188503, Note_on_c, 0, 63, 66
2, 188507, Note_on_c, 0, 78, 68
2, 188511, Control_c, 0, 64, 41
2, 188518, Note_on_c, 0, 70, 46
2, 188525, Note_on_c, 0, 61, 0
2, 188533, Control_c, 0, 64, 0
2, 188574, Note_on_c, 0, 80, 0
2, 188884, Note_on_c, 0, 63, 0
2, 188897, Note_on_c, 0, 61, 65
2, 188902, Note_on_c, 0, 65, 55
2, 188902, Note_on_c, 0, 77, 74
2, 188931, Note_on_c, 0, 78, 0
2, 189232, Note_on_c, 0, 61, 0
2, 189315, Note_on_c, 0, 75, 69
2, 189317, Note_on_c, 0, 60, 66
2, 189326, Note_on_c, 0, 65, 0
2, 189401, Note_on_c, 0, 70, 0
2, 189428, Note_on_c, 0, 77, 0
2, 189728, Note_on_c, 0, 58, 59
2, 189732, Note_on_c, 0, 60, 0
2, 189732, Note_on_c, 0, 69, 59
2, 189909, Note_on_c, 0, 69, 0
2, 189918, Note_on_c, 0, 70, 63
2, 190032, Note_on_c, 0, 58, 0
2, 190127, Note_on_c, 0, 72, 66
2, 190129, Note_on_c, 0, 57, 56
2, 190134, Note_on_c, 0, 70, 0
2, 190138, Note_on_c, 0, 65, 48
2, 190182, Control_c, 0, 64, 13
2, 190204, Control_c, 0, 64, 31
2, 190220, Control_c, 0, 64, 44
2, 190242, Control_c, 0, 64, 55
2, 190259, Control_c, 0, 64, 62
2, 190268, Note_on_c, 0, 57, 0
2, 190281, Control_c, 0, 64, 65
2, 190298, Control_c, 0, 64, 66
2, 190316, Control_c, 0, 64, 69
2, 190335, Control_c, 0, 64, 73
2, 190355, Control_c, 0, 64, 79
2, 190365, Note_on_c, 0, 65, 0
2, 190374, Control_c, 0, 64, 86
2, 190394, Control_c, 0, 64, 92
2, 190412, Control_c, 0, 64, 93
2, 190432, Note_on_c, 0, 72, 0
2, 190450, Control_c, 0, 64, 92
2, 190507, Control_c, 0, 64, 88
2, 190527, Control_c, 0, 64, 75
2, 190549, Control_c, 0, 64, 63
2, 190554, Note_on_c, 0, 53, 44
2, 190554, Note_on_c, 0, 75, 0
2, 190554, Note_on_c, 0, 77, 69
2, 190558, Note_on_c, 0, 69, 57
2, 190567, Control_c, 0, 64, 50
2, 190582, Note_on_c, 0, 63, 31
2, 190584, Control_c, 0, 64, 36
2, 190604, Control_c, 0, 64, 38
2, 190623, Control_c, 0, 64, 45
2, 190643, Control_c, 0, 64, 56
2, 190661, Control_c, 0, 64, 64
2, 190680, Control_c, 0, 64, 67
2, 190701, Control_c, 0, 64, 71
2, 190716, Note_on_c, 0, 63, 0
2, 190721, Control_c, 0, 64, 78
2, 190739, Control_c, 0, 64, 87
2, 190744, Note_on_c, 0, 69, 0
2, 190748, Note_on_c, 0, 78, 75
2, 190757, Control_c, 0, 64, 99
2, 190780, Control_c, 0, 64, 106
2, 190780, Note_on_c, 0, 77, 0
2, 190873, Control_c, 0, 64, 98
2, 190892, Control_c, 0, 64, 77
2, 190914, Control_c, 0, 64, 61
2, 190930, Control_c, 0, 64, 38
2, 190948, Note_on_c, 0, 53, 0
2, 190952, Control_c, 0, 64, 0
2, 190963, Note_on_c, 0, 77, 78
2, 190963, Note_on_c, 0, 78, 0
2, 190977, Note_on_c, 0, 55, 43
2, 190995, Control_c, 0, 64, 12
2, 190995, Note_on_c, 0, 61, 38
2, 190995, Note_on_c, 0, 70, 50
2, 191006, Control_c, 0, 64, 35
2, 191028, Control_c, 0, 64, 53
2, 191046, Control_c, 0, 64, 63
2, 191064, Control_c, 0, 64, 68
2, 191083, Control_c, 0, 64, 73
2, 191102, Control_c, 0, 64, 80
2, 191123, Control_c, 0, 64, 94
2, 191140, Control_c, 0, 64, 127
2, 191220, Control_c, 0, 64, 79
2, 191238, Control_c, 0, 64, 62
2, 191260, Control_c, 0, 64, 43
2, 191280, Control_c, 0, 64, 35
2, 191295, Control_c, 0, 64, 41
2, 191313, Control_c, 0, 64, 54
2, 191325, Note_on_c, 0, 61, 0
2, 191336, Control_c, 0, 64, 64
2, 191342, Note_on_c, 0, 75, 75
2, 191350, Note_on_c, 0, 60, 51
2, 191355, Control_c, 0, 64, 71
2, 191359, Note_on_c, 0, 57, 59
2, 191368, Note_on_c, 0, 70, 0
2, 191368, Note_on_c, 0, 72, 68
2, 191368, Note_on_c, 0, 77, 0
2, 191375, Control_c, 0, 64, 82
2, 191375, Note_on_c, 0, 55, 0
2, 191395, Control_c, 0, 64, 103
2, 191406, Note_on_c, 0, 60, 0
2, 191410, Control_c, 0, 64, 127
2, 191419, Note_on_c, 0, 72, 0
2, 191439, Note_on_c, 0, 75, 0
2, 191444, Note_on_c, 0, 57, 0
2, 191758, Control_c, 0, 64, 106
2, 191780, Control_c, 0, 64, 83
2, 191797, Control_c, 0, 64, 67
2, 191817, Note_on_c, 0, 46, 80
2, 191822, Control_c, 0, 64, 53
2, 191833, Note_on_c, 0, 73, 82
2, 191837, Control_c, 0, 64, 26
2, 191842, Note_on_c, 0, 58, 64
2, 191849, Note_on_c, 0, 61, 55
2, 191855, Control_c, 0, 64, 0
2, 192013, Control_c, 0, 64, 13
2, 192032, Control_c, 0, 64, 32
2, 192049, Control_c, 0, 64, 39
2, 192069, Control_c, 0, 64, 49
2, 192091, Control_c, 0, 64, 57
2, 192095, Note_on_c, 0, 61, 0
2, 192108, Control_c, 0, 64, 62
2, 192129, Control_c, 0, 64, 64
2, 192149, Control_c, 0, 64, 65
2, 192167, Control_c, 0, 64, 67
2, 192184, Control_c, 0, 64, 70
2, 192204, Control_c, 0, 64, 76
2, 192212, Note_on_c, 0, 58, 0
2, 192227, Control_c, 0, 64, 85
2, 192242, Control_c, 0, 64, 100
2, 192260, Control_c, 0, 64, 127
2, 192308, Note_on_c, 0, 48, 53
2, 192321, Note_on_c, 0, 70, 64
2, 192345, Note_on_c, 0, 63, 48
2, 192365, Note_on_c, 0, 48, 0
2, 192384, Note_on_c, 0, 46, 0
2, 192431, Note_on_c, 0, 63, 0
2, 192457, Note_on_c, 0, 73, 0
2, 192477, Note_on_c, 0, 70, 0
2, 192506, Note_on_c, 0, 69, 60
2, 192666, Control_c, 0, 64, 103
2, 192682, Control_c, 0, 64, 91
2, 192704, Control_c, 0, 64, 80
2, 192712, Note_on_c, 0, 41, 80
2, 192726, Control_c, 0, 64, 67
2, 192733, Note_on_c, 0, 49, 62
2, 192742, Note_on_c, 0, 70, 77
2, 192744, Control_c, 0, 64, 54
2, 192757, Control_c, 0, 64, 21
2, 192761, Note_on_c, 0, 69, 0
2, 192779, Control_c, 0, 64, 0
2, 192779, Note_on_c, 0, 65, 35
2, 192866, Note_on_c, 0, 65, 0
2, 192866, Note_on_c, 0, 65, 12
2, 193007, Control_c, 0, 64, 21
2, 193027, Control_c, 0, 64, 37
2, 193047, Control_c, 0, 64, 50
2, 193064, Control_c, 0, 64, 59
2, 193085, Control_c, 0, 64, 61
2, 193089, Note_on_c, 0, 65, 0
2, 193095, Note_on_c, 0, 49, 0
2, 193122, Control_c, 0, 64, 62
2, 193142, Control_c, 0, 64, 63
2, 193146, Note_on_c, 0, 66, 64
2, 193160, Control_c, 0, 64, 64
2, 193164, Note_on_c, 0, 51, 57
2, 193180, Control_c, 0, 64, 65
2, 193195, Control_c, 0, 64, 67
2, 193217, Control_c, 0, 64, 68
2, 193226, Note_on_c, 0, 43, 23
2, 193235, Control_c, 0, 64, 70
2, 193255, Control_c, 0, 64, 71
2, 193272, Control_c, 0, 64, 72
2, 193284, Note_on_c, 0, 43, 0
2, 193313, Note_on_c, 0, 41, 0
2, 193426, Control_c, 0, 64, 73
2, 193503, Control_c, 0, 64, 72
2, 193545, Control_c, 0, 64, 71
2, 193558, Note_on_c, 0, 51, 0
2, 193566, Note_on_c, 0, 72, 71
2, 193575, Note_on_c, 0, 53, 53
2, 193583, Control_c, 0, 64, 70
2, 193590, Note_on_c, 0, 60, 45
2, 193601, Control_c, 0, 64, 69
2, 193622, Control_c, 0, 64, 68
2, 193637, Control_c, 0, 64, 67
2, 193657, Control_c, 0, 64, 66
2, 193675, Control_c, 0, 64, 65
2, 193695, Control_c, 0, 64, 64
2, 193700, Note_on_c, 0, 66, 0
2, 193717, Control_c, 0, 64, 63
2, 193732, Control_c, 0, 64, 62
2, 193753, Control_c, 0, 64, 60
2, 193774, Control_c, 0, 64, 58
2, 193790, Control_c, 0, 64, 55
2, 193809, Control_c, 0, 64, 51
2, 193832, Control_c, 0, 64, 46
2, 193853, Control_c, 0, 64, 39
2, 193871, Control_c, 0, 64, 30
2, 193891, Control_c, 0, 64, 15
2, 193911, Control_c, 0, 64, 0
2, 193967, Note_on_c, 0, 53, 0
2, 193983, Note_on_c, 0, 54, 67
2, 194431, Note_on_c, 0, 56, 54
2, 194446, Note_on_c, 0, 68, 64
2, 194451, Note_on_c, 0, 53, 52
2, 194473, Note_on_c, 0, 65, 43
2, 194529, Note_on_c, 0, 54, 0
2, 194531, Note_on_c, 0, 60, 0
2, 194634, Note_on_c, 0, 70, 0
2, 194685, Note_on_c, 0, 72, 0
2, 194855, Note_on_c, 0, 53, 0
2, 194861, Note_on_c, 0, 51, 62
2, 195275, Note_on_c, 0, 56, 0
2, 195299, Note_on_c, 0, 50, 43
2, 195299, Note_on_c, 0, 70, 60
2, 195308, Note_on_c, 0, 51, 0
2, 195308, Note_on_c, 0, 58, 35
2, 195717, Note_on_c, 0, 62, 58
2, 195717, Note_on_c, 0, 65, 0
2, 195721, Note_on_c, 0, 46, 44
2, 195766, Note_on_c, 0, 50, 0
2, 196126, Note_on_c, 0, 48, 56
2, 196126, Note_on_c, 0, 63, 60
2, 196153, Note_on_c, 0, 62, 0
2, 196178, Note_on_c, 0, 46, 0
2, 196533, Note_on_c, 0, 50, 59
2, 196542, Note_on_c, 0, 63, 0
2, 196555, Note_on_c, 0, 65, 54
2, 196609, Note_on_c, 0, 48, 0
2, 196874, Note_on_c, 0, 68, 0
2, 196954, Note_on_c, 0, 65, 0
2, 196965, Note_on_c, 0, 66, 57
2, 196972, Note_on_c, 0, 50, 0
2, 196972, Note_on_c, 0, 51, 53
2, 197041, Note_on_c, 0, 70, 0
2, 197388, Note_on_c, 0, 63, 49
2, 197401, Note_on_c, 0, 51, 0
2, 197405, Note_on_c, 0, 53, 43
2, 197521, Note_on_c, 0, 63, 0
2, 197548, Note_on_c, 0, 62, 63
2, 197660, Note_on_c, 0, 58, 0
2, 197756, Note_on_c, 0, 62, 0
2, 197765, Note_on_c, 0, 63, 67
2, 197783, Note_on_c, 0, 51, 52
2, 197798, Note_on_c, 0, 53, 0
2, 198115, Control_c, 0, 64, 21
2, 198132, Control_c, 0, 64, 36
2, 198150, Control_c, 0, 64, 49
2, 198171, Control_c, 0, 64, 60
2, 198189, Note_on_c, 0, 75, 66
2, 198195, Control_c, 0, 64, 67
2, 198195, Note_on_c, 0, 51, 0
2, 198200, Note_on_c, 0, 49, 43
2, 198209, Control_c, 0, 64, 77
2, 198229, Control_c, 0, 64, 110
2, 198248, Control_c, 0, 64, 127
2, 198309, Note_on_c, 0, 75, 0
2, 198576, Control_c, 0, 64, 77
2, 198585, Note_on_c, 0, 49, 0
2, 198594, Control_c, 0, 64, 58
2, 198604, Note_on_c, 0, 68, 68
2, 198615, Control_c, 0, 64, 22
2, 198634, Control_c, 0, 64, 0
2, 198643, Note_on_c, 0, 48, 32
2, 198643, Note_on_c, 0, 60, 42
2, 198691, Control_c, 0, 64, 27
2, 198710, Control_c, 0, 64, 51
2, 198727, Control_c, 0, 64, 65
2, 198744, Note_on_c, 0, 60, 0
2, 198749, Control_c, 0, 64, 73
2, 198767, Control_c, 0, 64, 87
2, 198771, Note_on_c, 0, 48, 0
2, 198788, Control_c, 0, 64, 102
2, 198805, Control_c, 0, 64, 127
2, 199054, Control_c, 0, 64, 112
2, 199063, Note_on_c, 0, 48, 60
2, 199070, Note_on_c, 0, 44, 60
2, 199077, Control_c, 0, 64, 101
2, 199093, Control_c, 0, 64, 91
2, 199114, Control_c, 0, 64, 83
2, 199133, Control_c, 0, 64, 77
2, 199152, Control_c, 0, 64, 72
2, 199170, Control_c, 0, 64, 66
2, 199188, Control_c, 0, 64, 60
2, 199208, Control_c, 0, 64, 54
2, 199231, Control_c, 0, 64, 51
2, 199247, Control_c, 0, 64, 49
2, 199266, Control_c, 0, 64, 45
2, 199287, Control_c, 0, 64, 37
2, 199305, Control_c, 0, 64, 21
2, 199325, Control_c, 0, 64, 0
2, 199476, Note_on_c, 0, 49, 58
2, 199494, Note_on_c, 0, 46, 62
2, 199516, Note_on_c, 0, 48, 0
2, 199579, Note_on_c, 0, 44, 0
2, 199783, Note_on_c, 0, 63, 0
2, 199872, Note_on_c, 0, 49, 0
2, 199914, Note_on_c, 0, 48, 44
2, 199914, Note_on_c, 0, 51, 44
2, 199937, Note_on_c, 0, 46, 0
2, 200141, Note_on_c, 0, 48, 0
2, 200319, Note_on_c, 0, 61, 43
2, 200327, Note_on_c, 0, 65, 50
2, 200336, Note_on_c, 0, 53, 47
2, 200341, Note_on_c, 0, 49, 37
2, 200432, Note_on_c, 0, 66, 0
2, 200437, Note_on_c, 0, 51, 0
2, 200781, Note_on_c, 0, 53, 0
2, 200785, Note_on_c, 0, 51, 60
2, 200790, Note_on_c, 0, 61, 0
2, 201204, Note_on_c, 0, 73, 75
2, 201209, Note_on_c, 0, 70, 70
2, 201224, Note_on_c, 0, 46, 36
2, 201224, Note_on_c, 0, 53, 40
2, 201259, Note_on_c, 0, 51, 0
2, 201276, Note_on_c, 0, 68, 0
2, 201283, Note_on_c, 0, 49, 0
2, 201552, Control_c, 0, 64, 13
2, 201569, Control_c, 0, 64, 19
2, 201589, Control_c, 0, 64, 29
2, 201609, Control_c, 0, 64, 41
2, 201628, Control_c, 0, 64, 54
2, 201628, Note_on_c, 0, 53, 0
2, 201641, Note_on_c, 0, 54, 65
2, 201650, Control_c, 0, 64, 63
2, 201667, Control_c, 0, 64, 67
2, 201685, Control_c, 0, 64, 74
2, 201699, Note_on_c, 0, 46, 0
2, 201704, Control_c, 0, 64, 86
2, 201725, Control_c, 0, 64, 127
2, 201823, Note_on_c, 0, 73, 0
2, 201904, Note_on_c, 0, 54, 0
2, 201997, Note_on_c, 0, 70, 0
2, 202007, Note_on_c, 0, 53, 51
2, 202011, Control_c, 0, 64, 122
2, 202031, Note_on_c, 0, 56, 50
2, 202035, Control_c, 0, 64, 102
2, 202049, Control_c, 0, 64, 90
2, 202049, Note_on_c, 0, 72, 80
2, 202060, Note_on_c, 0, 68, 68
2, 202069, Control_c, 0, 64, 76
2, 202088, Control_c, 0, 64, 63
2, 202108, Control_c, 0, 64, 43
2, 202129, Control_c, 0, 64, 0
2, 202182, Note_on_c, 0, 65, 0
2, 202264, Control_c, 0, 64, 23
2, 202282, Control_c, 0, 64, 40
2, 202302, Control_c, 0, 64, 50
2, 202319, Control_c, 0, 64, 59
2, 202339, Control_c, 0, 64, 63
2, 202356, Control_c, 0, 64, 65
2, 202374, Control_c, 0, 64, 67
2, 202396, Control_c, 0, 64, 70
2, 202402, Note_on_c, 0, 56, 0
2, 202415, Control_c, 0, 64, 78
2, 202435, Control_c, 0, 64, 91
2, 202455, Control_c, 0, 64, 127
2, 202455, Note_on_c, 0, 58, 70
2, 202573, Note_on_c, 0, 53, 0
2, 202588, Note_on_c, 0, 58, 0
2, 202608, Note_on_c, 0, 60, 74
2, 202676, Note_on_c, 0, 60, 0
2, 202916, Note_on_c, 0, 49, 37
2, 202933, Control_c, 0, 64, 97
2, 202938, Note_on_c, 0, 58, 40
2, 202947, Note_on_c, 0, 77, 86
2, 202956, Control_c, 0, 64, 73
2, 202962, Note_on_c, 0, 73, 75
2, 202967, Note_on_c, 0, 72, 0
2, 202972, Control_c, 0, 64, 61
2, 202994, Control_c, 0, 64, 45
2, 203010, Control_c, 0, 64, 0
2, 203205, Control_c, 0, 64, 11
2, 203222, Control_c, 0, 64, 30
2, 203240, Control_c, 0, 64, 51
2, 203247, Note_on_c, 0, 68, 0
2, 203261, Control_c, 0, 64, 64
2, 203280, Control_c, 0, 64, 71
2, 203301, Control_c, 0, 64, 83
2, 203319, Control_c, 0, 64, 99
2, 203337, Control_c, 0, 64, 127
2, 203357, Note_on_c, 0, 58, 0
2, 203361, Note_on_c, 0, 56, 59
2, 203644, Control_c, 0, 64, 122
2, 203662, Control_c, 0, 64, 108
2, 203680, Control_c, 0, 64, 101
2, 203701, Control_c, 0, 64, 95
2, 203721, Control_c, 0, 64, 89
2, 203743, Control_c, 0, 64, 83
2, 203748, Note_on_c, 0, 49, 0
2, 203748, Note_on_c, 0, 51, 46
2, 203748, Note_on_c, 0, 56, 0
2, 203764, Control_c, 0, 64, 76
2, 203764, Note_on_c, 0, 70, 60
2, 203779, Control_c, 0, 64, 70
2, 203779, Note_on_c, 0, 54, 42
2, 203798, Control_c, 0, 64, 62
2, 203816, Control_c, 0, 64, 50
2, 203834, Control_c, 0, 64, 14
2, 203854, Control_c, 0, 64, 0
2, 203989, Control_c, 0, 64, 32
2, 204009, Control_c, 0, 64, 44
2, 204031, Control_c, 0, 64, 57
2, 204046, Control_c, 0, 64, 64
2, 204068, Control_c, 0, 64, 69
2, 204084, Control_c, 0, 64, 77
2, 204104, Control_c, 0, 64, 93
2, 204123, Control_c, 0, 64, 127
2, 204139, Note_on_c, 0, 73, 0
2, 204159, Note_on_c, 0, 54, 0
2, 204159, Note_on_c, 0, 72, 73
2, 204164, Control_c, 0, 64, 106
2, 204176, Note_on_c, 0, 68, 56
2, 204181, Control_c, 0, 64, 67
2, 204181, Note_on_c, 0, 53, 49
2, 204181, Note_on_c, 0, 56, 46
2, 204198, Control_c, 0, 64, 40
2, 204220, Control_c, 0, 64, 0
2, 204220, Note_on_c, 0, 70, 0
2, 204233, Note_on_c, 0, 77, 0
2, 204282, Control_c, 0, 64, 42
2, 204282, Note_on_c, 0, 51, 0
2, 204297, Control_c, 0, 64, 62
2, 204317, Control_c, 0, 64, 73
2, 204317, Note_on_c, 0, 68, 0
2, 204334, Control_c, 0, 64, 98
2, 204356, Control_c, 0, 64, 127
2, 204585, Control_c, 0, 64, 94
2, 204598, Note_on_c, 0, 53, 0
2, 204600, Control_c, 0, 64, 67
2, 204604, Note_on_c, 0, 75, 66
2, 204620, Control_c, 0, 64, 41
2, 204631, Note_on_c, 0, 56, 0
2, 204641, Note_on_c, 0, 66, 38
2, 204645, Control_c, 0, 64, 0
2, 204645, Note_on_c, 0, 54, 33
2, 204645, Note_on_c, 0, 70, 41
2, 204659, Note_on_c, 0, 58, 28
2, 204670, Note_on_c, 0, 72, 0
2, 204715, Control_c, 0, 64, 27
2, 204735, Control_c, 0, 64, 46
2, 204753, Control_c, 0, 64, 60
2, 204775, Control_c, 0, 64, 65
2, 204793, Control_c, 0, 64, 67
2, 204814, Control_c, 0, 64, 69
2, 204829, Control_c, 0, 64, 73
2, 204849, Control_c, 0, 64, 82
2, 204871, Control_c, 0, 64, 101
2, 204889, Control_c, 0, 64, 127
2, 204901, Note_on_c, 0, 66, 0
2, 205010, Note_on_c, 0, 73, 75
2, 205023, Control_c, 0, 64, 113
2, 205032, Note_on_c, 0, 58, 0
2, 205042, Control_c, 0, 64, 70
2, 205042, Note_on_c, 0, 60, 47
2, 205050, Note_on_c, 0, 65, 37
2, 205061, Control_c, 0, 64, 54
2, 205066, Note_on_c, 0, 75, 0
2, 205081, Control_c, 0, 64, 35
2, 205099, Control_c, 0, 64, 32
2, 205118, Control_c, 0, 64, 42
2, 205123, Note_on_c, 0, 65, 0
2, 205136, Control_c, 0, 64, 55
2, 205158, Control_c, 0, 64, 65
2, 205165, Note_on_c, 0, 60, 0
2, 205177, Control_c, 0, 64, 75
2, 205196, Control_c, 0, 64, 89
2, 205200, Note_on_c, 0, 70, 0
2, 205210, Note_on_c, 0, 61, 57
2, 205214, Control_c, 0, 64, 105
2, 205234, Control_c, 0, 64, 127
2, 205293, Control_c, 0, 64, 115
2, 205311, Control_c, 0, 64, 108
2, 205333, Control_c, 0, 64, 104
2, 205349, Control_c, 0, 64, 101
2, 205368, Control_c, 0, 64, 98
2, 205388, Control_c, 0, 64, 95
2, 205407, Control_c, 0, 64, 91
2, 205425, Control_c, 0, 64, 88
2, 205449, Control_c, 0, 64, 85
2, 205449, Note_on_c, 0, 61, 0
2, 205467, Control_c, 0, 64, 81
2, 205467, Note_on_c, 0, 72, 78
2, 205476, Note_on_c, 0, 56, 51
2, 205484, Control_c, 0, 64, 75
2, 205493, Note_on_c, 0, 68, 62
2, 205502, Control_c, 0, 64, 68
2, 205514, Note_on_c, 0, 63, 43
2, 205520, Control_c, 0, 64, 63
2, 205540, Control_c, 0, 64, 57
2, 205558, Note_on_c, 0, 54, 0
2, 205562, Control_c, 0, 64, 52
2, 205579, Control_c, 0, 64, 46
2, 205600, Control_c, 0, 64, 40
2, 205621, Control_c, 0, 64, 30
2, 205621, Note_on_c, 0, 73, 0
2, 205636, Control_c, 0, 64, 0
2, 205890, Note_on_c, 0, 53, 48
2, 206073, Note_on_c, 0, 63, 0
2, 206305, Note_on_c, 0, 73, 78
2, 206325, Note_on_c, 0, 51, 43
2, 206349, Note_on_c, 0, 65, 34
2, 206361, Note_on_c, 0, 53, 0
2, 206407, Note_on_c, 0, 72, 0
2, 206593, Note_on_c, 0, 65, 0
2, 206655, Control_c, 0, 64, 27
2, 206672, Control_c, 0, 64, 42
2, 206692, Control_c, 0, 64, 55
2, 206712, Control_c, 0, 64, 61
2, 206730, Control_c, 0, 64, 62
2, 206748, Note_on_c, 0, 49, 51
2, 206762, Note_on_c, 0, 56, 0
2, 206770, Control_c, 0, 64, 63
2, 206783, Note_on_c, 0, 51, 0
2, 206790, Control_c, 0, 64, 65
2, 206807, Control_c, 0, 64, 68
2, 206829, Control_c, 0, 64, 72
2, 206846, Control_c, 0, 64, 78
2, 206865, Control_c, 0, 64, 85
2, 206885, Control_c, 0, 64, 89
2, 206906, Control_c, 0, 64, 91
2, 207001, Control_c, 0, 64, 90
2, 207021, Control_c, 0, 64, 88
2, 207037, Control_c, 0, 64, 86
2, 207057, Control_c, 0, 64, 84
2, 207077, Control_c, 0, 64, 82
2, 207095, Control_c, 0, 64, 78
2, 207115, Control_c, 0, 64, 74
2, 207134, Control_c, 0, 64, 68
2, 207154, Control_c, 0, 64, 60
2, 207173, Control_c, 0, 64, 48
2, 207173, Note_on_c, 0, 63, 51
2, 207175, Note_on_c, 0, 56, 47
2, 207191, Control_c, 0, 64, 25
2, 207212, Control_c, 0, 64, 0
2, 207284, Note_on_c, 0, 73, 0
2, 207305, Note_on_c, 0, 68, 0
2, 207346, Control_c, 0, 64, 31
2, 207359, Note_on_c, 0, 49, 0
2, 207368, Control_c, 0, 64, 50
2, 207384, Control_c, 0, 64, 63
2, 207403, Control_c, 0, 64, 68
2, 207426, Control_c, 0, 64, 72
2, 207443, Control_c, 0, 64, 77
2, 207463, Control_c, 0, 64, 84
2, 207482, Control_c, 0, 64, 99
2, 207499, Control_c, 0, 64, 127
2, 207594, Note_on_c, 0, 70, 71
2, 207958, Note_on_c, 0, 56, 0
2, 208018, Control_c, 0, 64, 118
2, 208038, Control_c, 0, 64, 106
2, 208042, Note_on_c, 0, 72, 76
2, 208049, Note_on_c, 0, 44, 45
2, 208058, Control_c, 0, 64, 92
2, 208075, Control_c, 0, 64, 78
2, 208082, Note_on_c, 0, 68, 58
2, 208086, Note_on_c, 0, 70, 0
2, 208095, Control_c, 0, 64, 66
2, 208115, Control_c, 0, 64, 54
2, 208131, Control_c, 0, 64, 32
2, 208151, Control_c, 0, 64, 0
2, 208248, Control_c, 0, 64, 29
2, 208270, Control_c, 0, 64, 45
2, 208286, Control_c, 0, 64, 58
2, 208306, Control_c, 0, 64, 64
2, 208320, Note_on_c, 0, 63, 0
2, 208324, Control_c, 0, 64, 65
2, 208343, Control_c, 0, 64, 66
2, 208363, Control_c, 0, 64, 67
2, 208385, Control_c, 0, 64, 70
2, 208401, Control_c, 0, 64, 75
2, 208410, Note_on_c, 0, 72, 0
2, 208421, Control_c, 0, 64, 84
2, 208440, Control_c, 0, 64, 94
2, 208461, Control_c, 0, 64, 103
2, 208481, Control_c, 0, 64, 104
2, 208489, Note_on_c, 0, 68, 0
2, 208494, Note_on_c, 0, 66, 54
2, 208499, Control_c, 0, 64, 105
2, 208517, Control_c, 0, 64, 106
2, 208521, Note_on_c, 0, 66, 0
2, 208536, Control_c, 0, 64, 109
2, 208593, Control_c, 0, 64, 110
2, 208614, Control_c, 0, 64, 112
2, 208728, Control_c, 0, 64, 111
2, 208940, Control_c, 0, 64, 110
2, 208944, Note_on_c, 0, 44, 0
2, 208960, Control_c, 0, 64, 108
2, 208978, Control_c, 0, 64, 106
2, 208995, Control_c, 0, 64, 104
2, 209015, Control_c, 0, 64, 102
2, 209034, Control_c, 0, 64, 95
2, 209054, Control_c, 0, 64, 87
2, 209067, Note_on_c, 0, 73, 81
2, 209076, Control_c, 0, 64, 78
2, 209087, Note_on_c, 0, 49, 42
2, 209094, Control_c, 0, 64, 67
2, 209101, Note_on_c, 0, 61, 43
2, 209101, Note_on_c, 0, 65, 54
2, 209116, Control_c, 0, 64, 56
2, 209130, Control_c, 0, 64, 18
2, 209149, Control_c, 0, 64, 0
2, 209267, Control_c, 0, 64, 14
2, 209286, Control_c, 0, 64, 32
2, 209303, Control_c, 0, 64, 43
2, 209323, Control_c, 0, 64, 54
2, 209343, Control_c, 0, 64, 61
2, 209348, Note_on_c, 0, 61, 0
2, 209361, Control_c, 0, 64, 65
2, 209383, Control_c, 0, 64, 67
2, 209403, Control_c, 0, 64, 68
2, 209419, Control_c, 0, 64, 70
2, 209437, Control_c, 0, 64, 73
2, 209457, Control_c, 0, 64, 74
2, 209477, Control_c, 0, 64, 75
2, 209540, Note_on_c, 0, 65, 0
2, 209544, Note_on_c, 0, 49, 0
2, 209555, Control_c, 0, 64, 74
2, 209567, Note_on_c, 0, 63, 47
2, 209572, Note_on_c, 0, 60, 40
2, 209632, Control_c, 0, 64, 73
2, 209650, Control_c, 0, 64, 72
2, 209654, Note_on_c, 0, 63, 0
2, 209659, Note_on_c, 0, 63, 27
2, 209670, Control_c, 0, 64, 71
2, 209709, Control_c, 0, 64, 70
2, 209764, Control_c, 0, 64, 69
2, 209803, Control_c, 0, 64, 68
2, 209823, Control_c, 0, 64, 67
2, 209862, Control_c, 0, 64, 66
2, 209899, Control_c, 0, 64, 65
2, 209919, Control_c, 0, 64, 64
2, 209937, Control_c, 0, 64, 63
2, 209957, Control_c, 0, 64, 62
2, 209979, Control_c, 0, 64, 60
2, 209986, Note_on_c, 0, 68, 76
2, 209995, Control_c, 0, 64, 58
2, 210009, Note_on_c, 0, 61, 41
2, 210009, Note_on_c, 0, 65, 50
2, 210017, Control_c, 0, 64, 53
2, 210017, Note_on_c, 0, 60, 0
2, 210017, Note_on_c, 0, 63, 0
2, 210034, Control_c, 0, 64, 47
2, 210053, Control_c, 0, 64, 37
2, 210074, Control_c, 0, 64, 20
2, 210091, Control_c, 0, 64, 0
2, 210352, Note_on_c, 0, 65, 0
2, 210446, Note_on_c, 0, 66, 50
2, 210450, Note_on_c, 0, 63, 45
2, 210455, Note_on_c, 0, 61, 0
2, 210591, Control_c, 0, 64, 11
2, 210610, Control_c, 0, 64, 24
2, 210630, Control_c, 0, 64, 34
2, 210647, Control_c, 0, 64, 44
2, 210665, Control_c, 0, 64, 54
2, 210685, Control_c, 0, 64, 62
2, 210694, Note_on_c, 0, 66, 0
2, 210710, Control_c, 0, 64, 63
2, 210725, Control_c, 0, 64, 64
2, 210743, Note_on_c, 0, 68, 0
2, 210763, Control_c, 0, 64, 65
2, 210771, Note_on_c, 0, 73, 0
2, 210782, Control_c, 0, 64, 67
2, 210801, Control_c, 0, 64, 68
2, 210821, Control_c, 0, 64, 71
2, 210840, Control_c, 0, 64, 72
2, 210879, Control_c, 0, 64, 71
2, 210895, Note_on_c, 0, 65, 32
2, 210899, Control_c, 0, 64, 70
2, 210903, Note_on_c, 0, 68, 41
2, 210918, Control_c, 0, 64, 69
2, 210936, Control_c, 0, 64, 67
2, 210954, Control_c, 0, 64, 65
2, 210976, Control_c, 0, 64, 63
2, 210991, Note_on_c, 0, 63, 0
2, 210995, Control_c, 0, 64, 60
2, 211016, Control_c, 0, 64, 58
2, 211033, Control_c, 0, 64, 55
2, 211051, Control_c, 0, 64, 51
2, 211071, Control_c, 0, 64, 44
2, 211090, Control_c, 0, 64, 32
2, 211107, Control_c, 0, 64, 0
2, 211336, Note_on_c, 0, 83, 61
2, 211416, Control_c, 0, 64, 15
2, 211436, Control_c, 0, 64, 21
2, 211454, Control_c, 0, 64, 23
2, 211464, Note_on_c, 0, 65, 0
2, 211607, Control_c, 0, 64, 22
2, 211645, Control_c, 0, 64, 21
2, 211665, Control_c, 0, 64, 20
2, 211705, Control_c, 0, 64, 18
2, 211723, Control_c, 0, 64, 17
2, 211741, Control_c, 0, 64, 16
2, 211762, Control_c, 0, 64, 15
2, 211766, Note_on_c, 0, 65, 35
2, 211770, Note_on_c, 0, 82, 63
2, 211784, Control_c, 0, 64, 13
2, 211800, Control_c, 0, 64, 11
2, 211800, Note_on_c, 0, 62, 35
2, 211857, Note_on_c, 0, 68, 0
2, 211875, Note_on_c, 0, 83, 0
2, 211934, Control_c, 0, 64, 12
2, 211954, Control_c, 0, 64, 13
2, 211973, Control_c, 0, 64, 15
2, 212030, Control_c, 0, 64, 16
2, 212047, Control_c, 0, 64, 17
2, 212068, Control_c, 0, 64, 20
2, 212090, Control_c, 0, 64, 22
2, 212165, Control_c, 0, 64, 23
2, 212185, Control_c, 0, 64, 25
2, 212203, Control_c, 0, 64, 27
2, 212218, Note_on_c, 0, 80, 68
2, 212222, Control_c, 0, 64, 30
2, 212242, Control_c, 0, 64, 33
2, 212260, Control_c, 0, 64, 35
2, 212280, Control_c, 0, 64, 38
2, 212300, Control_c, 0, 64, 40
2, 212318, Control_c, 0, 64, 41
2, 212330, Note_on_c, 0, 82, 0
2, 212455, Control_c, 0, 64, 40
2, 212625, Control_c, 0, 64, 41
2, 212660, Note_on_c, 0, 70, 64
2, 212665, Control_c, 0, 64, 42
2, 212687, Control_c, 0, 64, 43
2, 212691, Note_on_c, 0, 78, 62
2, 212697, Note_on_c, 0, 63, 50
2, 212702, Control_c, 0, 64, 45
2, 212721, Control_c, 0, 64, 49
2, 212741, Control_c, 0, 64, 55
2, 212761, Control_c, 0, 64, 58
2, 212766, Note_on_c, 0, 62, 0
2, 212766, Note_on_c, 0, 80, 0
2, 212770, Note_on_c, 0, 65, 0
2, 212779, Control_c, 0, 64, 60
2, 212818, Control_c, 0, 64, 62
2, 212838, Control_c, 0, 64, 65
2, 212857, Control_c, 0, 64, 70
2, 212875, Control_c, 0, 64, 91
2, 212895, Control_c, 0, 64, 127
2, 213128, Note_on_c, 0, 63, 0
2, 213135, Note_on_c, 0, 78, 0
2, 213139, Note_on_c, 0, 77, 68
2, 213570, Note_on_c, 0, 63, 65
2, 213574, Note_on_c, 0, 78, 68
2, 213585, Control_c, 0, 64, 113
2, 213591, Note_on_c, 0, 77, 0
2, 213606, Control_c, 0, 64, 87
2, 213624, Control_c, 0, 64, 73
2, 213642, Control_c, 0, 64, 66
2, 213662, Control_c, 0, 64, 61
2, 213681, Control_c, 0, 64, 58
2, 213701, Control_c, 0, 64, 54
2, 213719, Control_c, 0, 64, 47
2, 213734, Note_on_c, 0, 70, 0
2, 213739, Control_c, 0, 64, 37
2, 213758, Control_c, 0, 64, 20
2, 213777, Control_c, 0, 64, 0
2, 214008, Note_on_c, 0, 80, 73
2, 214024, Note_on_c, 0, 65, 52
2, 214218, Note_on_c, 0, 78, 0
2, 214443, Note_on_c, 0, 65, 0
2, 214454, Note_on_c, 0, 82, 73
2, 214459, Note_on_c, 0, 66, 56
2, 214499, Note_on_c, 0, 80, 0
2, 214512, Note_on_c, 0, 63, 0
2, 214875, Control_c, 0, 64, 32
2, 214875, Note_on_c, 0, 63, 54
2, 214890, Control_c, 0, 64, 48
2, 214894, Note_on_c, 0, 81, 65
2, 214900, Note_on_c, 0, 82, 0
2, 214911, Control_c, 0, 64, 59
2, 214915, Note_on_c, 0, 78, 61
2, 214933, Control_c, 0, 64, 64
2, 214933, Note_on_c, 0, 66, 0
2, 214949, Control_c, 0, 64, 65
2, 214966, Control_c, 0, 64, 68
2, 214987, Control_c, 0, 64, 74
2, 215007, Control_c, 0, 64, 90
2, 215025, Control_c, 0, 64, 127
2, 215079, Note_on_c, 0, 82, 75
2, 215154, Note_on_c, 0, 81, 0
2, 215255, Control_c, 0, 64, 90
2, 215275, Control_c, 0, 64, 64
2, 215288, Note_on_c, 0, 69, 58
2, 215295, Control_c, 0, 64, 34
2, 215304, Note_on_c, 0, 78, 0
2, 215304, Note_on_c, 0, 84, 77
2, 215312, Control_c, 0, 64, 0
2, 215321, Note_on_c, 0, 77, 66
2, 215337, Note_on_c, 0, 63, 0
2, 215337, Note_on_c, 0, 82, 0
2, 215389, Control_c, 0, 64, 37
2, 215409, Control_c, 0, 64, 57
2, 215428, Control_c, 0, 64, 66
2, 215448, Control_c, 0, 64, 72
2, 215466, Control_c, 0, 64, 80
2, 215487, Control_c, 0, 64, 90
2, 215507, Control_c, 0, 64, 116
2, 215524, Control_c, 0, 64, 127
2, 215640, Control_c, 0, 64, 74
2, 215652, Note_on_c, 0, 69, 0
2, 215661, Control_c, 0, 64, 58
2, 215678, Control_c, 0, 64, 43
2, 215698, Control_c, 0, 64, 44
2, 215698, Note_on_c, 0, 75, 64
2, 215703, Note_on_c, 0, 67, 46
2, 215713, Note_on_c, 0, 77, 0
2, 215718, Control_c, 0, 64, 54
2, 215725, Note_on_c, 0, 84, 0
2, 215737, Control_c, 0, 64, 65
2, 215758, Control_c, 0, 64, 76
2, 215776, Control_c, 0, 64, 127
2, 215820, Note_on_c, 0, 67, 0
2, 215865, Note_on_c, 0, 65, 56
2, 215892, Note_on_c, 0, 65, 0
2, 216161, Note_on_c, 0, 58, 80
2, 216178, Control_c, 0, 64, 108
2, 216189, Note_on_c, 0, 70, 58
2, 216189, Note_on_c, 0, 73, 70
2, 216196, Control_c, 0, 64, 81
2, 216212, Note_on_c, 0, 75, 0
2, 216216, Control_c, 0, 64, 66
2, 216236, Control_c, 0, 64, 57
2, 216254, Control_c, 0, 64, 44
2, 216275, Control_c, 0, 64, 14
2, 216292, Control_c, 0, 64, 0
2, 216450, Control_c, 0, 64, 8
2, 216465, Control_c, 0, 64, 27
2, 216485, Control_c, 0, 64, 42
2, 216505, Control_c, 0, 64, 56
2, 216522, Control_c, 0, 64, 64
2, 216545, Control_c, 0, 64, 66
2, 216560, Note_on_c, 0, 70, 0
2, 216581, Control_c, 0, 64, 67
2, 216600, Control_c, 0, 64, 70
2, 216620, Control_c, 0, 64, 77
2, 216624, Note_on_c, 0, 77, 69
2, 216624, Note_on_c, 0, 82, 78
2, 216638, Note_on_c, 0, 73, 0
2, 216642, Control_c, 0, 64, 91
2, 216656, Control_c, 0, 64, 127
2, 217003, Note_on_c, 0, 58, 0
2, 217050, Note_on_c, 0, 53, 71
2, 217075, Note_on_c, 0, 75, 61
2, 217075, Note_on_c, 0, 77, 0
2, 217075, Note_on_c, 0, 82, 0
2, 217095, Note_on_c, 0, 72, 57
2, 217100, Control_c, 0, 64, 97
2, 217119, Control_c, 0, 64, 77
2, 217136, Control_c, 0, 64, 63
2, 217156, Control_c, 0, 64, 42
2, 217176, Control_c, 0, 64, 0
2, 217289, Control_c, 0, 64, 15
2, 217312, Control_c, 0, 64, 40
2, 217331, Control_c, 0, 64, 56
2, 217348, Control_c, 0, 64, 66
2, 217368, Control_c, 0, 64, 73
2, 217390, Control_c, 0, 64, 93
2, 217406, Control_c, 0, 64, 127
2, 217453, Note_on_c, 0, 53, 0
2, 217496, Note_on_c, 0, 81, 75
2, 217509, Note_on_c, 0, 72, 0
2, 217608, Note_on_c, 0, 81, 0
2, 217633, Note_on_c, 0, 75, 0
2, 217868, Control_c, 0, 64, 109
2, 217885, Control_c, 0, 64, 91
2, 217898, Note_on_c, 0, 82, 77
2, 217905, Control_c, 0, 64, 81
2, 217914, Note_on_c, 0, 74, 65
2, 217927, Control_c, 0, 64, 74
2, 217932, Note_on_c, 0, 70, 54
2, 217943, Control_c, 0, 64, 68
2, 217966, Control_c, 0, 64, 64
2, 217982, Control_c, 0, 64, 60
2, 218002, Control_c, 0, 64, 57
2, 218019, Control_c, 0, 64, 53
2, 218039, Control_c, 0, 64, 47
2, 218058, Control_c, 0, 64, 39
2, 218077, Control_c, 0, 64, 27
2, 218097, Control_c, 0, 64, 8
2, 218116, Control_c, 0, 64, 0
2, 218310, Note_on_c, 0, 66, 72
2, 218428, Note_on_c, 0, 74, 0
2, 218776, Note_on_c, 0, 75, 66
2, 218797, Note_on_c, 0, 65, 53
2, 218806, Note_on_c, 0, 66, 0
2, 219198, Note_on_c, 0, 63, 60
2, 219252, Note_on_c, 0, 65, 0
2, 219628, Note_on_c, 0, 77, 68
2, 219644, Note_on_c, 0, 62, 53
2, 219673, Note_on_c, 0, 63, 0
2, 219752, Note_on_c, 0, 82, 0
2, 219763, Note_on_c, 0, 75, 0
2, 220030, Note_on_c, 0, 62, 0
2, 220045, Note_on_c, 0, 58, 62
2, 220486, Note_on_c, 0, 60, 55
2, 220490, Note_on_c, 0, 80, 73
2, 220538, Note_on_c, 0, 58, 0
2, 220601, Note_on_c, 0, 77, 0
2, 220651, Control_c, 0, 64, 13
2, 220669, Control_c, 0, 64, 14
2, 220688, Note_on_c, 0, 70, 0
2, 220692, Control_c, 0, 64, 17
2, 220707, Control_c, 0, 64, 23
2, 220727, Control_c, 0, 64, 33
2, 220747, Control_c, 0, 64, 44
2, 220765, Control_c, 0, 64, 54
2, 220784, Control_c, 0, 64, 60
2, 220807, Control_c, 0, 64, 62
2, 220825, Control_c, 0, 64, 63
2, 220842, Control_c, 0, 64, 64
2, 220862, Control_c, 0, 64, 70
2, 220879, Note_on_c, 0, 60, 0
2, 220883, Control_c, 0, 64, 82
2, 220903, Control_c, 0, 64, 127
2, 220903, Note_on_c, 0, 62, 72
2, 220955, Note_on_c, 0, 62, 0
2, 221338, Note_on_c, 0, 51, 80
2, 221343, Control_c, 0, 64, 90
2, 221360, Control_c, 0, 64, 67
2, 221360, Note_on_c, 0, 63, 65
2, 221366, Note_on_c, 0, 78, 74
2, 221382, Control_c, 0, 64, 48
2, 221382, Note_on_c, 0, 70, 57
2, 221400, Control_c, 0, 64, 0
2, 221532, Control_c, 0, 64, 28
2, 221556, Control_c, 0, 64, 47
2, 221574, Control_c, 0, 64, 59
2, 221591, Control_c, 0, 64, 66
2, 221613, Control_c, 0, 64, 71
2, 221613, Note_on_c, 0, 63, 0
2, 221630, Control_c, 0, 64, 83
2, 221650, Control_c, 0, 64, 113
2, 221668, Control_c, 0, 64, 127
2, 221816, Note_on_c, 0, 75, 68
2, 221821, Note_on_c, 0, 53, 61
2, 221840, Note_on_c, 0, 80, 0
2, 221856, Note_on_c, 0, 51, 0
2, 221863, Note_on_c, 0, 53, 0
2, 221892, Note_on_c, 0, 70, 0
2, 222000, Note_on_c, 0, 74, 77
2, 222004, Note_on_c, 0, 75, 0
2, 222163, Note_on_c, 0, 78, 0
2, 222189, Control_c, 0, 64, 109
2, 222203, Note_on_c, 0, 46, 78
2, 222207, Control_c, 0, 64, 87
2, 222225, Control_c, 0, 64, 69
2, 222229, Note_on_c, 0, 54, 59
2, 222233, Note_on_c, 0, 75, 79
2, 222244, Control_c, 0, 64, 49
2, 222249, Note_on_c, 0, 70, 59
2, 222265, Control_c, 0, 64, 0
2, 222276, Note_on_c, 0, 74, 0
2, 222475, Control_c, 0, 64, 29
2, 222493, Control_c, 0, 64, 39
2, 222512, Control_c, 0, 64, 52
2, 222532, Control_c, 0, 64, 60
2, 222552, Control_c, 0, 64, 63
2, 222571, Control_c, 0, 64, 64
2, 222590, Control_c, 0, 64, 65
2, 222612, Control_c, 0, 64, 66
2, 222617, Note_on_c, 0, 54, 0
2, 222628, Control_c, 0, 64, 67
2, 222632, Note_on_c, 0, 56, 67
2, 222648, Control_c, 0, 64, 69
2, 222666, Control_c, 0, 64, 73
2, 222687, Control_c, 0, 64, 79
2, 222707, Control_c, 0, 64, 85
2, 222724, Control_c, 0, 64, 90
2, 222744, Control_c, 0, 64, 92
2, 222775, Note_on_c, 0, 46, 0
2, 222879, Control_c, 0, 64, 91
2, 222896, Control_c, 0, 64, 90
2, 222918, Control_c, 0, 64, 89
2, 222935, Control_c, 0, 64, 88
2, 222957, Control_c, 0, 64, 87
2, 222973, Control_c, 0, 64, 85
2, 222993, Control_c, 0, 64, 82
2, 223013, Control_c, 0, 64, 79
2, 223032, Control_c, 0, 64, 77
2, 223051, Control_c, 0, 64, 74
2, 223060, Note_on_c, 0, 77, 78
2, 223067, Note_on_c, 0, 56, 0
2, 223067, Note_on_c, 0, 58, 65
2, 223073, Control_c, 0, 64, 70
2, 223091, Control_c, 0, 64, 66
2, 223109, Control_c, 0, 64, 62
2, 223128, Control_c, 0, 64, 57
2, 223146, Control_c, 0, 64, 50
2, 223169, Control_c, 0, 64, 41
2, 223185, Control_c, 0, 64, 26
2, 223203, Control_c, 0, 64, 0
2, 223464, Note_on_c, 0, 59, 75
2, 223469, Note_on_c, 0, 58, 0
2, 223873, Note_on_c, 0, 59, 0
2, 223886, Note_on_c, 0, 61, 56
2, 223890, Note_on_c, 0, 58, 58
2, 223902, Note_on_c, 0, 76, 74
2, 223919, Note_on_c, 0, 73, 60
2, 223944, Note_on_c, 0, 75, 0
2, 223955, Note_on_c, 0, 77, 0
2, 224265, Note_on_c, 0, 58, 0
2, 224292, Note_on_c, 0, 56, 65
2, 224626, Note_on_c, 0, 61, 0
2, 224671, Note_on_c, 0, 56, 0
2, 224698, Note_on_c, 0, 63, 33
2, 224718, Note_on_c, 0, 55, 43
2, 224722, Control_c, 0, 64, 11
2, 224722, Note_on_c, 0, 75, 61
2, 224732, Note_on_c, 0, 73, 0
2, 224741, Control_c, 0, 64, 16
2, 224758, Control_c, 0, 64, 26
2, 224767, Note_on_c, 0, 76, 0
2, 224778, Control_c, 0, 64, 37
2, 224796, Control_c, 0, 64, 49
2, 224818, Control_c, 0, 64, 59
2, 224822, Note_on_c, 0, 55, 0
2, 224835, Control_c, 0, 64, 62
2, 224857, Note_on_c, 0, 75, 0
2, 224875, Control_c, 0, 64, 64
2, 224893, Control_c, 0, 64, 67
2, 224911, Control_c, 0, 64, 75
2, 224933, Control_c, 0, 64, 98
2, 224949, Control_c, 0, 64, 127
2, 225003, Note_on_c, 0, 63, 0
2, 225137, Note_on_c, 0, 55, 43
2, 225141, Note_on_c, 0, 75, 61
2, 225161, Control_c, 0, 64, 96
2, 225177, Note_on_c, 0, 51, 34
2, 225184, Control_c, 0, 64, 72
2, 225199, Control_c, 0, 64, 60
2, 225219, Control_c, 0, 64, 52
2, 225237, Control_c, 0, 64, 53
2, 225259, Control_c, 0, 64, 59
2, 225276, Control_c, 0, 64, 64
2, 225294, Control_c, 0, 64, 68
2, 225314, Control_c, 0, 64, 75
2, 225336, Control_c, 0, 64, 91
2, 225348, Note_on_c, 0, 76, 72
2, 225358, Control_c, 0, 64, 127
2, 225358, Note_on_c, 0, 75, 0
2, 225545, Control_c, 0, 64, 94
2, 225558, Note_on_c, 0, 55, 0
2, 225558, Note_on_c, 0, 75, 77
2, 225565, Control_c, 0, 64, 67
2, 225565, Note_on_c, 0, 53, 55
2, 225565, Note_on_c, 0, 56, 56
2, 225583, Control_c, 0, 64, 51
2, 225596, Note_on_c, 0, 51, 0
2, 225602, Control_c, 0, 64, 29
2, 225625, Control_c, 0, 64, 19
2, 225639, Control_c, 0, 64, 24
2, 225661, Control_c, 0, 64, 35
2, 225679, Control_c, 0, 64, 49
2, 225698, Control_c, 0, 64, 59
2, 225714, Note_on_c, 0, 76, 0
2, 225716, Control_c, 0, 64, 64
2, 225735, Control_c, 0, 64, 67
2, 225757, Control_c, 0, 64, 70
2, 225775, Control_c, 0, 64, 76
2, 225794, Control_c, 0, 64, 83
2, 225814, Control_c, 0, 64, 97
2, 225831, Control_c, 0, 64, 127
2, 225929, Control_c, 0, 64, 89
2, 225946, Note_on_c, 0, 73, 83
2, 225948, Control_c, 0, 64, 62
2, 225953, Note_on_c, 0, 53, 0
2, 225953, Note_on_c, 0, 56, 0
2, 225962, Note_on_c, 0, 55, 59
2, 225962, Note_on_c, 0, 58, 50
2, 225966, Control_c, 0, 64, 41
2, 225988, Control_c, 0, 64, 18
2, 226005, Control_c, 0, 64, 27
2, 226025, Control_c, 0, 64, 43
2, 226045, Control_c, 0, 64, 59
2, 226059, Note_on_c, 0, 75, 0
2, 226063, Control_c, 0, 64, 69
2, 226083, Control_c, 0, 64, 82
2, 226104, Control_c, 0, 64, 127
2, 226104, Note_on_c, 0, 70, 0
2, 226135, Note_on_c, 0, 55, 0
2, 226344, Note_on_c, 0, 58, 0
2, 226353, Note_on_c, 0, 71, 82
2, 226357, Control_c, 0, 64, 78
2, 226357, Note_on_c, 0, 59, 66
2, 226362, Note_on_c, 0, 68, 69
2, 226373, Control_c, 0, 64, 49
2, 226373, Note_on_c, 0, 56, 59
2, 226389, Control_c, 0, 64, 0
2, 226467, Control_c, 0, 64, 33
2, 226486, Control_c, 0, 64, 55
2, 226509, Control_c, 0, 64, 68
2, 226509, Note_on_c, 0, 73, 0
2, 226523, Control_c, 0, 64, 79
2, 226533, Note_on_c, 0, 59, 0
2, 226544, Control_c, 0, 64, 107
2, 226550, Note_on_c, 0, 68, 0
2, 226566, Control_c, 0, 64, 127
2, 226589, Note_on_c, 0, 56, 0
2, 226769, Note_on_c, 0, 54, 63
2, 226769, Note_on_c, 0, 58, 68
2, 226769, Note_on_c, 0, 70, 86
2, 226774, Control_c, 0, 64, 79
2, 226794, Control_c, 0, 64, 47
2, 226813, Control_c, 0, 64, 0
2, 226813, Note_on_c, 0, 71, 0
2, 226869, Control_c, 0, 64, 30
2, 226888, Control_c, 0, 64, 55
2, 226907, Control_c, 0, 64, 71
2, 226929, Control_c, 0, 64, 113
2, 226947, Control_c, 0, 64, 127
2, 226960, Note_on_c, 0, 54, 0
2, 227032, Note_on_c, 0, 58, 0
2, 227203, Note_on_c, 0, 70, 0
2, 227224, Note_on_c, 0, 52, 59
2, 227224, Note_on_c, 0, 56, 57
2, 227239, Note_on_c, 0, 80, 77
2, 227255, Note_on_c, 0, 76, 70
2, 227268, Note_on_c, 0, 71, 58
2, 227273, Control_c, 0, 64, 83
2, 227292, Control_c, 0, 64, 60
2, 227312, Control_c, 0, 64, 0
2, 227426, Control_c, 0, 64, 29
2, 227448, Control_c, 0, 64, 45
2, 227463, Control_c, 0, 64, 57
2, 227483, Control_c, 0, 64, 63
2, 227503, Control_c, 0, 64, 65
2, 227524, Control_c, 0, 64, 66
2, 227540, Control_c, 0, 64, 67
2, 227561, Control_c, 0, 64, 71
2, 227580, Control_c, 0, 64, 80
2, 227593, Note_on_c, 0, 56, 0
2, 227602, Control_c, 0, 64, 96
2, 227618, Control_c, 0, 64, 127
2, 227622, Note_on_c, 0, 52, 0
2, 227627, Note_on_c, 0, 51, 70
2, 227631, Note_on_c, 0, 54, 66
2, 227713, Note_on_c, 0, 54, 0
2, 227717, Note_on_c, 0, 51, 0
2, 228002, Control_c, 0, 64, 105
2, 228020, Control_c, 0, 64, 83
2, 228040, Control_c, 0, 64, 72
2, 228058, Note_on_c, 0, 52, 71
2, 228062, Control_c, 0, 64, 64
2, 228069, Note_on_c, 0, 49, 56
2, 228079, Control_c, 0, 64, 57
2, 228099, Control_c, 0, 64, 50
2, 228099, Note_on_c, 0, 70, 65
2, 228117, Control_c, 0, 64, 41
2, 228126, Note_on_c, 0, 71, 0
2, 228135, Control_c, 0, 64, 23
2, 228155, Control_c, 0, 64, 0
2, 228278, Note_on_c, 0, 75, 73
2, 228480, Note_on_c, 0, 80, 0
2, 228485, Note_on_c, 0, 73, 78
2, 228485, Note_on_c, 0, 76, 0
2, 228496, Note_on_c, 0, 46, 65
2, 228536, Note_on_c, 0, 49, 0
2, 228541, Note_on_c, 0, 75, 0
2, 228876, Note_on_c, 0, 51, 62
2, 228881, Note_on_c, 0, 52, 0
2, 228931, Note_on_c, 0, 79, 88
2, 228962, Control_c, 0, 64, 24
2, 228982, Control_c, 0, 64, 35
2, 228986, Note_on_c, 0, 46, 0
2, 229004, Control_c, 0, 64, 42
2, 229018, Control_c, 0, 64, 49
2, 229038, Control_c, 0, 64, 56
2, 229058, Control_c, 0, 64, 60
2, 229080, Control_c, 0, 64, 62
2, 229096, Control_c, 0, 64, 64
2, 229116, Control_c, 0, 64, 66
2, 229134, Control_c, 0, 64, 70
2, 229154, Control_c, 0, 64, 78
2, 229177, Control_c, 0, 64, 95
2, 229177, Note_on_c, 0, 76, 58
2, 229193, Control_c, 0, 64, 127
2, 229285, Note_on_c, 0, 73, 0
2, 229355, Note_on_c, 0, 39, 48
2, 229359, Note_on_c, 0, 75, 67
2, 229420, Note_on_c, 0, 70, 0
2, 229459, Note_on_c, 0, 79, 0
2, 229470, Note_on_c, 0, 76, 0
2, 229532, Note_on_c, 0, 73, 74
2, 229552, Note_on_c, 0, 75, 0
2, 229577, Note_on_c, 0, 73, 0
2, 229622, Note_on_c, 0, 51, 0
2, 229961, Control_c, 0, 64, 86
2, 229981, Control_c, 0, 64, 66
2, 229985, Note_on_c, 0, 39, 0
2, 229989, Note_on_c, 0, 44, 54
2, 229989, Note_on_c, 0, 80, 84
2, 230000, Control_c, 0, 64, 48
2, 230011, Note_on_c, 0, 72, 58
2, 230019, Control_c, 0, 64, 0
2, 230030, Note_on_c, 0, 68, 72
2, 230174, Control_c, 0, 64, 35
2, 230190, Control_c, 0, 64, 45
2, 230212, Control_c, 0, 64, 53
2, 230229, Control_c, 0, 64, 61
2, 230249, Control_c, 0, 64, 65
2, 230268, Control_c, 0, 64, 69
2, 230286, Control_c, 0, 64, 79
2, 230305, Control_c, 0, 64, 106
2, 230326, Control_c, 0, 64, 127
2, 230352, Note_on_c, 0, 68, 0
2, 230411, Note_on_c, 0, 80, 0
2, 230431, Note_on_c, 0, 72, 0
2, 230548, Note_on_c, 0, 44, 0
2, 230548, Note_on_c, 0, 56, 56
2, 230975, Note_on_c, 0, 61, 74
2, 230994, Note_on_c, 0, 46, 47
2, 230994, Note_on_c, 0, 54, 53
2, 230998, Note_on_c, 0, 56, 0
2, 231020, Control_c, 0, 64, 102
2, 231037, Control_c, 0, 64, 91
2, 231055, Control_c, 0, 64, 80
2, 231073, Control_c, 0, 64, 72
2, 231096, Control_c, 0, 64, 65
2, 231114, Control_c, 0, 64, 60
2, 231132, Control_c, 0, 64, 56
2, 231150, Control_c, 0, 64, 54
2, 231170, Control_c, 0, 64, 52
2, 231190, Control_c, 0, 64, 47
2, 231207, Control_c, 0, 64, 40
2, 231228, Control_c, 0, 64, 29
2, 231232, Note_on_c, 0, 46, 0
2, 231249, Control_c, 0, 64, 15
2, 231269, Control_c, 0, 64, 0
2, 231380, Note_on_c, 0, 44, 52
2, 231394, Note_on_c, 0, 53, 53
2, 231416, Note_on_c, 0, 54, 0
2, 231588, Note_on_c, 0, 44, 0
2, 231780, Note_on_c, 0, 61, 0
2, 231802, Note_on_c, 0, 51, 48
2, 231813, Note_on_c, 0, 42, 46
2, 231817, Note_on_c, 0, 53, 0
2, 232181, Note_on_c, 0, 51, 0
2, 232260, Note_on_c, 0, 42, 0
2, 232290, Note_on_c, 0, 49, 36
2, 232295, Note_on_c, 0, 77, 58
2, 232705, Note_on_c, 0, 58, 36
2, 232716, Note_on_c, 0, 75, 52
2, 232740, Note_on_c, 0, 54, 35
2, 232763, Note_on_c, 0, 77, 0
2, 232776, Note_on_c, 0, 49, 0
2, 233138, Note_on_c, 0, 73, 60
2, 233185, Note_on_c, 0, 75, 0
2, 233571, Note_on_c, 0, 56, 34
2, 233580, Note_on_c, 0, 72, 56
2, 233580, Note_on_c, 0, 73, 0
2, 233673, Note_on_c, 0, 58, 0
2, 233992, Note_on_c, 0, 68, 60
2, 234018, Note_on_c, 0, 54, 0
2, 234036, Note_on_c, 0, 53, 26
2, 234036, Note_on_c, 0, 66, 37
2, 234075, Note_on_c, 0, 72, 0
2, 234381, Note_on_c, 0, 56, 0
2, 234414, Note_on_c, 0, 66, 0
2, 234417, Note_on_c, 0, 70, 69
2, 234430, Note_on_c, 0, 54, 42
2, 234448, Note_on_c, 0, 53, 0
2, 234481, Note_on_c, 0, 68, 0
2, 234485, Note_on_c, 0, 65, 23
2, 234771, Note_on_c, 0, 65, 0
2, 234780, Control_c, 0, 64, 16
2, 234800, Control_c, 0, 64, 25
2, 234817, Control_c, 0, 64, 35
2, 234826, Note_on_c, 0, 72, 75
2, 234831, Note_on_c, 0, 63, 55
2, 234838, Control_c, 0, 64, 47
2, 234842, Note_on_c, 0, 70, 0
2, 234860, Control_c, 0, 64, 59
2, 234860, Note_on_c, 0, 56, 39
2, 234878, Control_c, 0, 64, 64
2, 234895, Control_c, 0, 64, 67
2, 234900, Note_on_c, 0, 54, 0
2, 234913, Control_c, 0, 64, 72
2, 234932, Control_c, 0, 64, 79
2, 234953, Control_c, 0, 64, 93
2, 234962, Note_on_c, 0, 72, 0
2, 234970, Control_c, 0, 64, 127
2, 234991, Note_on_c, 0, 63, 0
2, 235221, Control_c, 0, 64, 120
2, 235241, Control_c, 0, 64, 104
2, 235259, Control_c, 0, 64, 95
2, 235270, Note_on_c, 0, 73, 72
2, 235281, Control_c, 0, 64, 86
2, 235293, Note_on_c, 0, 58, 45
2, 235300, Control_c, 0, 64, 78
2, 235302, Note_on_c, 0, 61, 48
2, 235317, Control_c, 0, 64, 69
2, 235337, Control_c, 0, 64, 64
2, 235354, Control_c, 0, 64, 58
2, 235375, Control_c, 0, 64, 50
2, 235393, Note_on_c, 0, 56, 0
2, 235397, Control_c, 0, 64, 41
2, 235412, Control_c, 0, 64, 27
2, 235433, Control_c, 0, 64, 0
2, 235704, Note_on_c, 0, 66, 69
2, 235715, Note_on_c, 0, 61, 0
2, 236122, Note_on_c, 0, 58, 0
2, 236131, Note_on_c, 0, 54, 41
2, 236554, Note_on_c, 0, 65, 48
2, 236672, Note_on_c, 0, 66, 0
2, 237000, Note_on_c, 0, 63, 46
2, 237005, Note_on_c, 0, 56, 33
2, 237058, Note_on_c, 0, 54, 0
2, 237120, Note_on_c, 0, 65, 0
2, 237398, Note_on_c, 0, 56, 0
2, 237398, Note_on_c, 0, 58, 45
2, 237814, Note_on_c, 0, 56, 40
2, 237832, Note_on_c, 0, 72, 55
2, 237884, Note_on_c, 0, 58, 0
2, 237934, Note_on_c, 0, 63, 0
2, 237950, Note_on_c, 0, 73, 0
2, 238226, Note_on_c, 0, 54, 41
2, 238253, Note_on_c, 0, 56, 0
2, 238685, Note_on_c, 0, 73, 62
2, 238699, Note_on_c, 0, 72, 0
2, 238708, Note_on_c, 0, 53, 40
2, 238727, Note_on_c, 0, 54, 0
2, 238733, Note_on_c, 0, 56, 21
2, 239116, Note_on_c, 0, 71, 50
2, 239173, Note_on_c, 0, 73, 0
2, 239277, Note_on_c, 0, 70, 63
2, 239280, Note_on_c, 0, 71, 0
2, 239488, Note_on_c, 0, 70, 0
2, 239488, Note_on_c, 0, 71, 62
2, 239502, Note_on_c, 0, 68, 56
2, 239829, Note_on_c, 0, 53, 0
2, 239867, Note_on_c, 0, 51, 38
2, 239882, Note_on_c, 0, 66, 49
2, 239947, Note_on_c, 0, 68, 0
2, 240050, Note_on_c, 0, 51, 0
2, 240055, Note_on_c, 0, 66, 0
2, 240063, Note_on_c, 0, 49, 34
2, 240079, Note_on_c, 0, 65, 43
2, 240246, Note_on_c, 0, 65, 0
2, 240257, Note_on_c, 0, 49, 0
2, 240261, Note_on_c, 0, 51, 42
2, 240284, Note_on_c, 0, 66, 52
2, 240649, Note_on_c, 0, 61, 47
2, 240656, Note_on_c, 0, 70, 60
2, 240663, Note_on_c, 0, 53, 43
2, 240667, Note_on_c, 0, 66, 0
2, 240700, Note_on_c, 0, 51, 0
2, 240828, Note_on_c, 0, 68, 71
2, 240845, Note_on_c, 0, 71, 0
2, 240854, Note_on_c, 0, 70, 0
2, 241046, Note_on_c, 0, 56, 0
2, 241057, Note_on_c, 0, 53, 0
2, 241057, Note_on_c, 0, 70, 70
2, 241077, Note_on_c, 0, 61, 0
2, 241079, Note_on_c, 0, 54, 40
2, 241097, Note_on_c, 0, 68, 0
2, 241191, Control_c, 0, 64, 15
2, 241211, Control_c, 0, 64, 29
2, 241230, Control_c, 0, 64, 40
2, 241250, Control_c, 0, 64, 50
2, 241272, Control_c, 0, 64, 59
2, 241287, Control_c, 0, 64, 64
2, 241307, Control_c, 0, 64, 66
2, 241328, Control_c, 0, 64, 68
2, 241346, Control_c, 0, 64, 73
2, 241363, Control_c, 0, 64, 84
2, 241385, Control_c, 0, 64, 127
2, 241420, Note_on_c, 0, 72, 73
2, 241449, Note_on_c, 0, 63, 45
2, 241449, Note_on_c, 0, 70, 0
2, 241487, Note_on_c, 0, 72, 0
2, 241875, Note_on_c, 0, 73, 76
2, 241890, Note_on_c, 0, 56, 46
2, 241923, Control_c, 0, 64, 106
2, 241941, Control_c, 0, 64, 95
2, 241945, Note_on_c, 0, 63, 0
2, 241959, Control_c, 0, 64, 85
2, 241978, Control_c, 0, 64, 76
2, 241999, Control_c, 0, 64, 67
2, 242005, Note_on_c, 0, 54, 0
2, 242018, Control_c, 0, 64, 60
2, 242036, Control_c, 0, 64, 50
2, 242056, Control_c, 0, 64, 38
2, 242076, Control_c, 0, 64, 24
2, 242093, Control_c, 0, 64, 0
2, 242263, Note_on_c, 0, 53, 41
2, 242276, Note_on_c, 0, 68, 61
2, 242395, Note_on_c, 0, 53, 0
2, 242432, Note_on_c, 0, 51, 47
2, 242449, Note_on_c, 0, 66, 65
2, 242456, Note_on_c, 0, 68, 0
2, 242641, Note_on_c, 0, 51, 0
2, 242666, Note_on_c, 0, 68, 67
2, 242674, Control_c, 0, 64, 19
2, 242678, Note_on_c, 0, 53, 47
2, 242683, Note_on_c, 0, 66, 0
2, 242692, Control_c, 0, 64, 32
2, 242709, Control_c, 0, 64, 40
2, 242729, Control_c, 0, 64, 45
2, 242747, Control_c, 0, 64, 48
2, 242765, Control_c, 0, 64, 49
2, 242785, Control_c, 0, 64, 48
2, 242806, Control_c, 0, 64, 47
2, 242825, Control_c, 0, 64, 46
2, 242864, Control_c, 0, 64, 45
2, 242900, Control_c, 0, 64, 43
2, 242938, Control_c, 0, 64, 42
2, 242958, Control_c, 0, 64, 41
2, 242981, Control_c, 0, 64, 39
2, 242996, Control_c, 0, 64, 35
2, 243016, Control_c, 0, 64, 29
2, 243029, Note_on_c, 0, 68, 0
2, 243038, Control_c, 0, 64, 18
2, 243049, Note_on_c, 0, 63, 65
2, 243058, Control_c, 0, 64, 0
2, 243058, Note_on_c, 0, 72, 70
2, 243075, Note_on_c, 0, 56, 0
2, 243079, Note_on_c, 0, 55, 45
2, 243126, Note_on_c, 0, 53, 0
2, 243163, Note_on_c, 0, 73, 0
2, 243241, Note_on_c, 0, 70, 75
2, 243273, Note_on_c, 0, 72, 0
2, 243453, Note_on_c, 0, 72, 73
2, 243465, Note_on_c, 0, 55, 0
2, 243477, Note_on_c, 0, 56, 55
2, 243528, Note_on_c, 0, 70, 0
2, 243576, Control_c, 0, 64, 13
2, 243592, Control_c, 0, 64, 36
2, 243610, Control_c, 0, 64, 51
2, 243630, Control_c, 0, 64, 61
2, 243644, Note_on_c, 0, 63, 0
2, 243650, Control_c, 0, 64, 65
2, 243669, Control_c, 0, 64, 67
2, 243687, Control_c, 0, 64, 70
2, 243707, Control_c, 0, 64, 77
2, 243727, Control_c, 0, 64, 101
2, 243746, Control_c, 0, 64, 127
2, 243834, Note_on_c, 0, 74, 75
2, 243845, Note_on_c, 0, 72, 0
2, 243849, Note_on_c, 0, 65, 66
2, 243898, Note_on_c, 0, 74, 0
2, 244265, Control_c, 0, 64, 97
2, 244283, Control_c, 0, 64, 83
2, 244300, Note_on_c, 0, 58, 63
2, 244300, Note_on_c, 0, 75, 79
2, 244305, Control_c, 0, 64, 73
2, 244324, Control_c, 0, 64, 65
2, 244344, Control_c, 0, 64, 60
2, 244360, Control_c, 0, 64, 56
2, 244379, Control_c, 0, 64, 53
2, 244396, Note_on_c, 0, 65, 0
2, 244401, Control_c, 0, 64, 49
2, 244407, Note_on_c, 0, 56, 0
2, 244418, Control_c, 0, 64, 39
2, 244437, Control_c, 0, 64, 17
2, 244458, Control_c, 0, 64, 0
2, 244690, Note_on_c, 0, 55, 56
2, 244844, Note_on_c, 0, 53, 62
2, 244858, Note_on_c, 0, 55, 0
2, 245094, Note_on_c, 0, 55, 59
2, 245103, Note_on_c, 0, 53, 0
2, 245411, Note_on_c, 0, 58, 0
2, 245463, Note_on_c, 0, 57, 61
2, 245465, Note_on_c, 0, 65, 80
2, 245473, Note_on_c, 0, 73, 75
2, 245482, Note_on_c, 0, 55, 0
2, 245493, Control_c, 0, 64, 13
2, 245511, Control_c, 0, 64, 30
2, 245531, Control_c, 0, 64, 45
2, 245536, Note_on_c, 0, 75, 0
2, 245551, Control_c, 0, 64, 59
2, 245571, Control_c, 0, 64, 65
2, 245589, Control_c, 0, 64, 68
2, 245609, Control_c, 0, 64, 70
2, 245627, Control_c, 0, 64, 73
2, 245647, Control_c, 0, 64, 79
2, 245664, Control_c, 0, 64, 87
2, 245686, Control_c, 0, 64, 99
2, 245686, Note_on_c, 0, 72, 62
2, 245702, Note_on_c, 0, 73, 0
2, 245704, Control_c, 0, 64, 127
2, 245859, Control_c, 0, 64, 120
2, 245884, Note_on_c, 0, 73, 57
2, 245888, Note_on_c, 0, 58, 51
2, 245892, Note_on_c, 0, 57, 0
2, 245916, Control_c, 0, 64, 115
2, 245916, Note_on_c, 0, 72, 0
2, 245934, Control_c, 0, 64, 106
2, 245954, Control_c, 0, 64, 97
2, 245971, Control_c, 0, 64, 87
2, 245993, Control_c, 0, 64, 81
2, 246012, Control_c, 0, 64, 76
2, 246032, Control_c, 0, 64, 72
2, 246032, Note_on_c, 0, 58, 0
2, 246052, Control_c, 0, 64, 66
2, 246052, Note_on_c, 0, 73, 0
2, 246061, Note_on_c, 0, 60, 62
2, 246068, Control_c, 0, 64, 62
2, 246077, Note_on_c, 0, 75, 63
2, 246088, Control_c, 0, 64, 59
2, 246146, Control_c, 0, 64, 58
2, 246166, Control_c, 0, 64, 56
2, 246184, Control_c, 0, 64, 54
2, 246203, Control_c, 0, 64, 51
2, 246223, Control_c, 0, 64, 48
2, 246242, Control_c, 0, 64, 43
2, 246260, Control_c, 0, 64, 31
2, 246280, Note_on_c, 0, 58, 80
2, 246284, Control_c, 0, 64, 0
2, 246291, Note_on_c, 0, 75, 0
2, 246307, Note_on_c, 0, 73, 70
2, 246310, Note_on_c, 0, 60, 0
2, 246321, Note_on_c, 0, 65, 0
2, 246501, Note_on_c, 0, 75, 56
2, 246512, Note_on_c, 0, 60, 53
2, 246657, Note_on_c, 0, 73, 0
2, 246710, Note_on_c, 0, 60, 0
2, 246714, Note_on_c, 0, 61, 61
2, 246714, Note_on_c, 0, 77, 75
2, 246747, Note_on_c, 0, 75, 0
2, 246760, Control_c, 0, 64, 10
2, 246779, Control_c, 0, 64, 19
2, 246797, Control_c, 0, 64, 26
2, 246819, Control_c, 0, 64, 29
2, 246835, Control_c, 0, 64, 31
2, 246855, Control_c, 0, 64, 32
2, 246875, Control_c, 0, 64, 33
2, 246884, Note_on_c, 0, 60, 64
2, 246884, Note_on_c, 0, 61, 0
2, 246902, Note_on_c, 0, 58, 0
2, 247087, Control_c, 0, 64, 32
2, 247087, Note_on_c, 0, 73, 78
2, 247091, Note_on_c, 0, 58, 61
2, 247124, Control_c, 0, 64, 30
2, 247136, Note_on_c, 0, 60, 0
2, 247143, Control_c, 0, 64, 29
2, 247183, Control_c, 0, 64, 27
2, 247203, Control_c, 0, 64, 22
2, 247220, Control_c, 0, 64, 15
2, 247240, Control_c, 0, 64, 0
2, 247270, Note_on_c, 0, 56, 73
2, 247303, Note_on_c, 0, 58, 0
2, 247477, Note_on_c, 0, 75, 75
2, 247490, Note_on_c, 0, 54, 57
2, 247495, Note_on_c, 0, 56, 0
2, 247495, Note_on_c, 0, 72, 56
2, 247574, Note_on_c, 0, 73, 0
2, 247648, Note_on_c, 0, 54, 0
2, 247660, Note_on_c, 0, 53, 68
2, 247669, Note_on_c, 0, 77, 0
2, 247797, Control_c, 0, 64, 9
2, 247817, Control_c, 0, 64, 13
2, 247833, Note_on_c, 0, 53, 0
2, 247835, Control_c, 0, 64, 14
2, 247853, Note_on_c, 0, 70, 67
2, 247858, Control_c, 0, 64, 22
2, 247860, Note_on_c, 0, 54, 62
2, 247875, Control_c, 0, 64, 35
2, 247892, Note_on_c, 0, 72, 0
2, 247896, Control_c, 0, 64, 51
2, 247912, Control_c, 0, 64, 62
2, 247930, Control_c, 0, 64, 65
2, 247969, Control_c, 0, 64, 66
2, 247985, Note_on_c, 0, 70, 0
2, 247989, Control_c, 0, 64, 69
2, 248010, Control_c, 0, 64, 77
2, 248010, Note_on_c, 0, 54, 0
2, 248028, Note_on_c, 0, 51, 70
2, 248032, Control_c, 0, 64, 93
2, 248048, Control_c, 0, 64, 127
2, 248099, Note_on_c, 0, 75, 0
2, 248182, Control_c, 0, 64, 110
2, 248198, Control_c, 0, 64, 100
2, 248218, Control_c, 0, 64, 90
2, 248239, Control_c, 0, 64, 78
2, 248258, Control_c, 0, 64, 65
2, 248263, Note_on_c, 0, 53, 82
2, 248281, Control_c, 0, 64, 54
2, 248281, Note_on_c, 0, 69, 60
2, 248297, Control_c, 0, 64, 30
2, 248304, Note_on_c, 0, 51, 0
2, 248315, Control_c, 0, 64, 0
2, 248448, Note_on_c, 0, 70, 69
2, 248468, Note_on_c, 0, 69, 0
2, 248488, Control_c, 0, 64, 13
2, 248506, Control_c, 0, 64, 26
2, 248525, Control_c, 0, 64, 40
2, 248547, Control_c, 0, 64, 53
2, 248564, Control_c, 0, 64, 60
2, 248584, Control_c, 0, 64, 62
2, 248622, Control_c, 0, 64, 63
2, 248633, Note_on_c, 0, 70, 0
2, 248663, Control_c, 0, 64, 64
2, 248663, Note_on_c, 0, 72, 67
2, 248663, Note_on_c, 0, 75, 75
2, 248679, Control_c, 0, 64, 65
2, 248718, Control_c, 0, 64, 66
2, 248843, Note_on_c, 0, 72, 0
2, 248852, Control_c, 0, 64, 65
2, 248859, Note_on_c, 0, 69, 61
2, 248931, Control_c, 0, 64, 64
2, 248968, Control_c, 0, 64, 62
2, 248986, Control_c, 0, 64, 59
2, 249007, Control_c, 0, 64, 55
2, 249023, Control_c, 0, 64, 44
2, 249037, Note_on_c, 0, 53, 0
2, 249046, Control_c, 0, 64, 0
2, 249051, Note_on_c, 0, 46, 79
2, 249076, Note_on_c, 0, 73, 70
2, 249080, Note_on_c, 0, 69, 0
2, 249080, Note_on_c, 0, 75, 0
2, 249100, Note_on_c, 0, 65, 54
2, 249220, Control_c, 0, 64, 22
2, 249237, Control_c, 0, 64, 43
2, 249257, Control_c, 0, 64, 52
2, 249277, Control_c, 0, 64, 60
2, 249297, Control_c, 0, 64, 63
2, 249314, Control_c, 0, 64, 64
2, 249333, Control_c, 0, 64, 66
2, 249355, Control_c, 0, 64, 69
2, 249373, Control_c, 0, 64, 77
2, 249393, Note_on_c, 0, 46, 0
2, 249397, Control_c, 0, 64, 93
2, 249410, Control_c, 0, 64, 127
2, 249469, Note_on_c, 0, 72, 73
2, 249484, Note_on_c, 0, 68, 68
2, 249488, Note_on_c, 0, 65, 0
2, 249528, Note_on_c, 0, 73, 0
2, 249797, Control_c, 0, 64, 115
2, 249817, Control_c, 0, 64, 105
2, 249835, Control_c, 0, 64, 99
2, 249842, Note_on_c, 0, 72, 0
2, 249853, Control_c, 0, 64, 94
2, 249860, Note_on_c, 0, 66, 65
2, 249860, Note_on_c, 0, 70, 72
2, 249873, Note_on_c, 0, 68, 0
2, 249877, Control_c, 0, 64, 90
2, 249892, Control_c, 0, 64, 86
2, 249910, Control_c, 0, 64, 82
2, 249934, Control_c, 0, 64, 78
2, 249951, Control_c, 0, 64, 74
2, 249968, Control_c, 0, 64, 69
2, 249988, Control_c, 0, 64, 66
2, 250007, Control_c, 0, 64, 65
2, 250023, Note_on_c, 0, 66, 0
2, 250027, Control_c, 0, 64, 63
2, 250046, Control_c, 0, 64, 62
2, 250060, Note_on_c, 0, 72, 69
2, 250064, Control_c, 0, 64, 61
2, 250085, Control_c, 0, 64, 60
2, 250100, Note_on_c, 0, 70, 0
2, 250104, Control_c, 0, 64, 59
2, 250121, Control_c, 0, 64, 58
2, 250141, Control_c, 0, 64, 57
2, 250160, Control_c, 0, 64, 54
2, 250179, Control_c, 0, 64, 52
2, 250199, Control_c, 0, 64, 49
2, 250217, Control_c, 0, 64, 47
2, 250238, Control_c, 0, 64, 45
2, 250247, Note_on_c, 0, 65, 66
2, 250250, Note_on_c, 0, 61, 65
2, 250255, Control_c, 0, 64, 39
2, 250277, Control_c, 0, 64, 30
2, 250277, Note_on_c, 0, 73, 77
2, 250288, Note_on_c, 0, 72, 0
2, 250295, Control_c, 0, 64, 12
2, 250315, Control_c, 0, 64, 0
2, 250452, Note_on_c, 0, 73, 0
2, 250459, Note_on_c, 0, 70, 58
2, 250630, Note_on_c, 0, 70, 0
2, 250649, Note_on_c, 0, 63, 66
2, 250654, Note_on_c, 0, 65, 0
2, 250654, Note_on_c, 0, 68, 69
2, 250667, Note_on_c, 0, 60, 63
2, 250675, Note_on_c, 0, 61, 0
2, 250702, Note_on_c, 0, 68, 0
2, 250745, Note_on_c, 0, 66, 61
2, 250781, Note_on_c, 0, 66, 0
2, 250830, Note_on_c, 0, 68, 68
2, 250876, Note_on_c, 0, 68, 0
2, 250903, Note_on_c, 0, 66, 55
2, 250949, Note_on_c, 0, 66, 0
2, 250980, Note_on_c, 0, 68, 66
2, 250991, Note_on_c, 0, 60, 0
2, 251007, Note_on_c, 0, 58, 48
2, 251016, Note_on_c, 0, 68, 0
2, 251039, Note_on_c, 0, 61, 43
2, 251048, Note_on_c, 0, 66, 64
2, 251081, Note_on_c, 0, 63, 0
2, 251090, Note_on_c, 0, 66, 0
2, 251090, Note_on_c, 0, 68, 73
2, 251133, Note_on_c, 0, 68, 0
2, 251139, Control_c, 0, 64, 9
2, 251161, Control_c, 0, 64, 35
2, 251167, Note_on_c, 0, 66, 64
2, 251178, Control_c, 0, 64, 49
2, 251197, Control_c, 0, 64, 58
2, 251201, Note_on_c, 0, 66, 0
2, 251217, Control_c, 0, 64, 61
2, 251230, Note_on_c, 0, 65, 63
2, 251268, Note_on_c, 0, 66, 77
2, 251273, Control_c, 0, 64, 63
2, 251277, Note_on_c, 0, 65, 0
2, 251292, Control_c, 0, 64, 67
2, 251305, Note_on_c, 0, 66, 0
2, 251312, Control_c, 0, 64, 73
2, 251319, Note_on_c, 0, 58, 0
2, 251336, Control_c, 0, 64, 87
2, 251351, Control_c, 0, 64, 127
2, 251527, Note_on_c, 0, 57, 57
2, 251606, Note_on_c, 0, 61, 0
2, 251606, Note_on_c, 0, 77, 93
2, 251616, Note_on_c, 0, 65, 71
2, 251619, Control_c, 0, 64, 86
2, 251639, Control_c, 0, 64, 66
2, 251661, Control_c, 0, 64, 48
2, 251679, Control_c, 0, 64, 0
2, 251811, Control_c, 0, 64, 27
2, 251832, Control_c, 0, 64, 42
2, 251849, Control_c, 0, 64, 55
2, 251869, Control_c, 0, 64, 61
2, 251888, Control_c, 0, 64, 63
2, 251945, Control_c, 0, 64, 64
2, 251985, Control_c, 0, 64, 65
2, 252016, Note_on_c, 0, 62, 52
2, 252176, Note_on_c, 0, 62, 0
2, 252191, Note_on_c, 0, 60, 59
2, 252330, Control_c, 0, 64, 64
2, 252386, Control_c, 0, 64, 63
2, 252407, Control_c, 0, 64, 62
2, 252411, Note_on_c, 0, 70, 80
2, 252427, Control_c, 0, 64, 61
2, 252431, Note_on_c, 0, 62, 68
2, 252443, Note_on_c, 0, 57, 0
2, 252448, Control_c, 0, 64, 59
2, 252448, Note_on_c, 0, 60, 0
2, 252463, Control_c, 0, 64, 57
2, 252485, Control_c, 0, 64, 54
2, 252503, Control_c, 0, 64, 48
2, 252521, Control_c, 0, 64, 33
2, 252541, Control_c, 0, 64, 0
2, 252737, Note_on_c, 0, 77, 0
2, 252778, Note_on_c, 0, 65, 0
2, 252817, Note_on_c, 0, 54, 58
2, 252928, Note_on_c, 0, 62, 0
2, 252966, Note_on_c, 0, 53, 60
2, 252985, Note_on_c, 0, 54, 0
2, 253129, Note_on_c, 0, 70, 0
2, 253219, Note_on_c, 0, 54, 63
2, 253223, Note_on_c, 0, 53, 0
2, 253223, Note_on_c, 0, 63, 66
2, 253647, Note_on_c, 0, 56, 50
2, 253651, Note_on_c, 0, 83, 79
2, 253705, Note_on_c, 0, 54, 0
2, 253848, Note_on_c, 0, 63, 0
2, 254077, Note_on_c, 0, 58, 55
2, 254081, Note_on_c, 0, 82, 79
2, 254097, Note_on_c, 0, 62, 53
2, 254102, Note_on_c, 0, 56, 0
2, 254229, Control_c, 0, 64, 17
2, 254247, Control_c, 0, 64, 31
2, 254267, Control_c, 0, 64, 40
2, 254289, Control_c, 0, 64, 48
2, 254309, Control_c, 0, 64, 56
2, 254325, Control_c, 0, 64, 61
2, 254345, Control_c, 0, 64, 63
2, 254363, Control_c, 0, 64, 64
2, 254374, Note_on_c, 0, 83, 0
2, 254382, Control_c, 0, 64, 67
2, 254400, Control_c, 0, 64, 75
2, 254414, Note_on_c, 0, 62, 0
2, 254421, Control_c, 0, 64, 99
2, 254439, Control_c, 0, 64, 127
2, 254474, Note_on_c, 0, 80, 83
2, 254488, Note_on_c, 0, 77, 72
2, 254514, Note_on_c, 0, 82, 0
2, 254523, Note_on_c, 0, 77, 0
2, 254547, Note_on_c, 0, 80, 0
2, 254920, Control_c, 0, 64, 82
2, 254920, Note_on_c, 0, 78, 88
2, 254926, Note_on_c, 0, 51, 79
2, 254926, Note_on_c, 0, 63, 80
2, 254933, Note_on_c, 0, 58, 0
2, 254938, Note_on_c, 0, 75, 72
2, 254943, Control_c, 0, 64, 57
2, 254958, Control_c, 0, 64, 0
2, 255072, Control_c, 0, 64, 17
2, 255093, Control_c, 0, 64, 37
2, 255113, Control_c, 0, 64, 50
2, 255131, Control_c, 0, 64, 60
2, 255153, Control_c, 0, 64, 66
2, 255153, Note_on_c, 0, 63, 0
2, 255171, Control_c, 0, 64, 69
2, 255189, Control_c, 0, 64, 77
2, 255208, Control_c, 0, 64, 96
2, 255226, Control_c, 0, 64, 127
2, 255353, Note_on_c, 0, 73, 79
2, 255368, Note_on_c, 0, 75, 0
2, 255368, Note_on_c, 0, 78, 0
2, 255377, Note_on_c, 0, 70, 68
2, 255465, Note_on_c, 0, 70, 0
2, 255606, Note_on_c, 0, 51, 0
2, 255765, Control_c, 0, 64, 77
2, 255770, Note_on_c, 0, 44, 81
2, 255786, Control_c, 0, 64, 51
2, 255786, Note_on_c, 0, 73, 0
2, 255790, Note_on_c, 0, 76, 82
2, 255803, Control_c, 0, 64, 0
2, 255803, Note_on_c, 0, 68, 72
2, 255808, Note_on_c, 0, 71, 70
2, 255900, Control_c, 0, 64, 25
2, 255917, Control_c, 0, 64, 51
2, 255935, Control_c, 0, 64, 65
2, 255956, Control_c, 0, 64, 75
2, 255978, Control_c, 0, 64, 127
2, 255995, Note_on_c, 0, 68, 0
2, 256063, Note_on_c, 0, 44, 0
2, 256192, Note_on_c, 0, 75, 79
2, 256204, Note_on_c, 0, 66, 76
2, 256214, Note_on_c, 0, 76, 0
2, 256290, Note_on_c, 0, 71, 0
2, 256373, Note_on_c, 0, 66, 0
2, 256609, Control_c, 0, 64, 96
2, 256628, Control_c, 0, 64, 72
2, 256637, Note_on_c, 0, 53, 81
2, 256650, Control_c, 0, 64, 58
2, 256656, Note_on_c, 0, 70, 59
2, 256656, Note_on_c, 0, 74, 72
2, 256661, Note_on_c, 0, 65, 64
2, 256666, Control_c, 0, 64, 28
2, 256683, Note_on_c, 0, 75, 0
2, 256688, Control_c, 0, 64, 0
2, 256859, Control_c, 0, 64, 15
2, 256878, Control_c, 0, 64, 32
2, 256898, Control_c, 0, 64, 47
2, 256919, Control_c, 0, 64, 59
2, 256935, Control_c, 0, 64, 64
2, 256955, Control_c, 0, 64, 66
2, 256959, Note_on_c, 0, 65, 0
2, 256975, Control_c, 0, 64, 67
2, 256995, Control_c, 0, 64, 71
2, 257012, Control_c, 0, 64, 83
2, 257031, Control_c, 0, 64, 127
2, 257042, Note_on_c, 0, 53, 0
2, 257049, Note_on_c, 0, 42, 76
2, 257101, Note_on_c, 0, 70, 0
2, 257393, Note_on_c, 0, 42, 0
2, 257445, Note_on_c, 0, 41, 59
2, 257468, Note_on_c, 0, 46, 70
2, 257473, Control_c, 0, 64, 92
2, 257477, Note_on_c, 0, 75, 84
2, 257489, Control_c, 0, 64, 65
2, 257494, Note_on_c, 0, 66, 65
2, 257498, Note_on_c, 0, 70, 68
2, 257511, Control_c, 0, 64, 46
2, 257520, Note_on_c, 0, 74, 0
2, 257527, Control_c, 0, 64, 0
2, 257683, Control_c, 0, 64, 22
2, 257683, Note_on_c, 0, 41, 0
2, 257699, Control_c, 0, 64, 41
2, 257720, Control_c, 0, 64, 51
2, 257740, Control_c, 0, 64, 60
2, 257757, Control_c, 0, 64, 64
2, 257778, Control_c, 0, 64, 65
2, 257798, Control_c, 0, 64, 67
2, 257817, Control_c, 0, 64, 71
2, 257837, Control_c, 0, 64, 78
2, 257839, Note_on_c, 0, 66, 0
2, 257854, Control_c, 0, 64, 91
2, 257870, Note_on_c, 0, 39, 72
2, 257876, Control_c, 0, 64, 127
2, 257895, Note_on_c, 0, 46, 0
2, 258238, Control_c, 0, 64, 105
2, 258260, Control_c, 0, 64, 93
2, 258276, Control_c, 0, 64, 82
2, 258296, Control_c, 0, 64, 72
2, 258304, Note_on_c, 0, 46, 63
2, 258315, Note_on_c, 0, 39, 0
2, 258320, Control_c, 0, 64, 61
2, 258329, Note_on_c, 0, 65, 63
2, 258333, Control_c, 0, 64, 45
2, 258352, Control_c, 0, 64, 0
2, 258486, Control_c, 0, 64, 37
2, 258506, Control_c, 0, 64, 52
2, 258526, Control_c, 0, 64, 62
2, 258546, Control_c, 0, 64, 66
2, 258564, Control_c, 0, 64, 67
2, 258584, Control_c, 0, 64, 70
2, 258603, Control_c, 0, 64, 75
2, 258626, Control_c, 0, 64, 85
2, 258641, Control_c, 0, 64, 109
2, 258663, Control_c, 0, 64, 127
2, 258737, Note_on_c, 0, 59, 77
2, 258933, Note_on_c, 0, 59, 0
2, 258933, Note_on_c, 0, 65, 0
2, 259174, Note_on_c, 0, 58, 73
2, 259180, Note_on_c, 0, 74, 77
2, 259218, Control_c, 0, 64, 81
2, 259236, Control_c, 0, 64, 61
2, 259255, Control_c, 0, 64, 32
2, 259275, Control_c, 0, 64, 0
2, 259290, Note_on_c, 0, 75, 0
2, 259352, Control_c, 0, 64, 22
2, 259370, Control_c, 0, 64, 44
2, 259393, Control_c, 0, 64, 59
2, 259410, Control_c, 0, 64, 67
2, 259419, Note_on_c, 0, 70, 0
2, 259427, Control_c, 0, 64, 71
2, 259448, Control_c, 0, 64, 77
2, 259469, Control_c, 0, 64, 83
2, 259489, Control_c, 0, 64, 92
2, 259506, Control_c, 0, 64, 103
2, 259524, Control_c, 0, 64, 127
2, 259558, Note_on_c, 0, 56, 74
2, 259565, Note_on_c, 0, 58, 0
2, 259779, Note_on_c, 0, 56, 0
2, 260022, Note_on_c, 0, 51, 58
2, 260024, Control_c, 0, 64, 107
2, 260036, Note_on_c, 0, 54, 60
2, 260044, Control_c, 0, 64, 86
2, 260051, Note_on_c, 0, 46, 0
2, 260064, Control_c, 0, 64, 65
2, 260081, Control_c, 0, 64, 39
2, 260089, Note_on_c, 0, 75, 90
2, 260103, Control_c, 0, 64, 0
2, 260107, Note_on_c, 0, 70, 71
2, 260112, Note_on_c, 0, 63, 77
2, 260167, Note_on_c, 0, 74, 0
2, 260253, Control_c, 0, 64, 37
2, 260273, Control_c, 0, 64, 53
2, 260293, Control_c, 0, 64, 57
2, 260310, Control_c, 0, 64, 60
2, 260331, Control_c, 0, 64, 64
2, 260351, Control_c, 0, 64, 68
2, 260369, Control_c, 0, 64, 83
2, 260389, Control_c, 0, 64, 127
2, 260404, Note_on_c, 0, 63, 0
2, 260432, Note_on_c, 0, 75, 0
2, 260474, Note_on_c, 0, 70, 0
2, 260507, Note_on_c, 0, 54, 0
2, 260511, Note_on_c, 0, 53, 78
2, 260926, Control_c, 0, 64, 109
2, 260939, Note_on_c, 0, 54, 64
2, 260943, Note_on_c, 0, 63, 80
2, 260948, Control_c, 0, 64, 90
2, 260952, Note_on_c, 0, 58, 74
2, 260965, Control_c, 0, 64, 78
2, 260985, Control_c, 0, 64, 69
2, 261003, Control_c, 0, 64, 62
2, 261022, Control_c, 0, 64, 52
2, 261028, Note_on_c, 0, 53, 0
2, 261040, Control_c, 0, 64, 36
2, 261060, Control_c, 0, 64, 0
2, 261064, Note_on_c, 0, 51, 0
2, 261341, Note_on_c, 0, 54, 0
2, 261353, Note_on_c, 0, 56, 70
2, 261361, Note_on_c, 0, 53, 67
2, 261546, Note_on_c, 0, 58, 0
2, 261610, Note_on_c, 0, 63, 0
2, 261750, Note_on_c, 0, 54, 71
2, 261750, Note_on_c, 0, 56, 0
2, 261754, Note_on_c, 0, 58, 72
2, 261770, Note_on_c, 0, 53, 0
2, 262155, Note_on_c, 0, 58, 0
2, 262161, Note_on_c, 0, 60, 61
2, 262161, Note_on_c, 0, 77, 83
2, 262172, Note_on_c, 0, 73, 73
2, 262333, Note_on_c, 0, 60, 0
2, 262338, Note_on_c, 0, 61, 70
2, 262575, Note_on_c, 0, 63, 66
2, 262579, Note_on_c, 0, 72, 70
2, 262584, Note_on_c, 0, 75, 75
2, 262619, Note_on_c, 0, 61, 0
2, 262621, Note_on_c, 0, 73, 0
2, 262713, Note_on_c, 0, 77, 0
2, 262807, Control_c, 0, 64, 22
2, 262828, Control_c, 0, 64, 34
2, 262845, Control_c, 0, 64, 44
2, 262864, Control_c, 0, 64, 54
2, 262884, Control_c, 0, 64, 59
2, 262903, Control_c, 0, 64, 60
2, 262921, Control_c, 0, 64, 61
2, 262943, Control_c, 0, 64, 62
2, 262965, Control_c, 0, 64, 63
2, 262979, Note_on_c, 0, 63, 0
2, 262983, Control_c, 0, 64, 66
2, 262999, Control_c, 0, 64, 69
2, 263005, Note_on_c, 0, 73, 77
2, 263010, Note_on_c, 0, 70, 64
2, 263020, Control_c, 0, 64, 74
2, 263039, Control_c, 0, 64, 83
2, 263043, Note_on_c, 0, 72, 0
2, 263057, Control_c, 0, 64, 96
2, 263064, Note_on_c, 0, 75, 0
2, 263077, Control_c, 0, 64, 118
2, 263095, Control_c, 0, 64, 127
2, 263103, Note_on_c, 0, 54, 0
2, 263339, Note_on_c, 0, 70, 0
2, 263420, Note_on_c, 0, 72, 67
2, 263425, Note_on_c, 0, 73, 0
2, 263429, Note_on_c, 0, 69, 51
2, 263463, Control_c, 0, 64, 112
2, 263480, Control_c, 0, 64, 105
2, 263499, Control_c, 0, 64, 102
2, 263517, Control_c, 0, 64, 98
2, 263538, Control_c, 0, 64, 94
2, 263556, Control_c, 0, 64, 89
2, 263574, Control_c, 0, 64, 85
2, 263595, Control_c, 0, 64, 81
2, 263614, Control_c, 0, 64, 79
2, 263633, Control_c, 0, 64, 78
2, 263671, Control_c, 0, 64, 77
2, 263691, Control_c, 0, 64, 76
2, 263711, Control_c, 0, 64, 73
2, 263730, Control_c, 0, 64, 67
2, 263750, Control_c, 0, 64, 58
2, 263768, Control_c, 0, 64, 36
2, 263787, Control_c, 0, 64, 0
2, 263837, Note_on_c, 0, 61, 42
2, 263837, Note_on_c, 0, 70, 60
2, 263848, Note_on_c, 0, 67, 53
2, 263848, Note_on_c, 0, 69, 0
2, 263854, Note_on_c, 0, 53, 43
2, 263861, Note_on_c, 0, 72, 0
2, 263886, Control_c, 0, 64, 22
2, 263901, Control_c, 0, 64, 40
2, 263921, Control_c, 0, 64, 54
2, 263940, Control_c, 0, 64, 62
2, 263960, Control_c, 0, 64, 64
2, 263980, Control_c, 0, 64, 65
2, 263998, Control_c, 0, 64, 66
2, 264017, Control_c, 0, 64, 68
2, 264037, Control_c, 0, 64, 72
2, 264055, Control_c, 0, 64, 79
2, 264075, Control_c, 0, 64, 89
2, 264093, Control_c, 0, 64, 100
2, 264113, Control_c, 0, 64, 106
2, 264133, Control_c, 0, 64, 109
2, 264140, Note_on_c, 0, 61, 0
2, 264208, Control_c, 0, 64, 103
2, 264224, Note_on_c, 0, 53, 0
2, 264228, Note_on_c, 0, 67, 0
2, 264232, Control_c, 0, 64, 87
2, 264250, Control_c, 0, 64, 70
2, 264259, Note_on_c, 0, 70, 0
2, 264268, Control_c, 0, 64, 59
2, 264273, Note_on_c, 0, 69, 51
2, 264273, Note_on_c, 0, 72, 61
2, 264279, Note_on_c, 0, 51, 50
2, 264284, Note_on_c, 0, 60, 46
2, 264285, Control_c, 0, 64, 46
2, 264306, Control_c, 0, 64, 41
2, 264326, Control_c, 0, 64, 45
2, 264346, Control_c, 0, 64, 51
2, 264362, Control_c, 0, 64, 60
2, 264384, Control_c, 0, 64, 65
2, 264402, Control_c, 0, 64, 68
2, 264422, Control_c, 0, 64, 73
2, 264440, Control_c, 0, 64, 81
2, 264460, Control_c, 0, 64, 96
2, 264468, Note_on_c, 0, 51, 0
2, 264477, Control_c, 0, 64, 127
2, 264558, Note_on_c, 0, 60, 0
2, 264605, Note_on_c, 0, 72, 0
2, 264642, Note_on_c, 0, 73, 74
2, 264651, Control_c, 0, 64, 73
2, 264657, Note_on_c, 0, 58, 61
2, 264657, Note_on_c, 0, 70, 68
2, 264672, Control_c, 0, 64, 59
2, 264676, Note_on_c, 0, 49, 52
2, 264690, Control_c, 0, 64, 47
2, 264694, Note_on_c, 0, 69, 0
2, 264729, Control_c, 0, 64, 54
2, 264746, Control_c, 0, 64, 62
2, 264767, Control_c, 0, 64, 67
2, 264785, Control_c, 0, 64, 76
2, 264806, Control_c, 0, 64, 91
2, 264826, Control_c, 0, 64, 127
2, 264884, Note_on_c, 0, 49, 0
2, 264898, Note_on_c, 0, 58, 0
2, 265054, Control_c, 0, 64, 84
2, 265057, Note_on_c, 0, 75, 77
2, 265062, Note_on_c, 0, 70, 0
2, 265066, Note_on_c, 0, 72, 73
2, 265070, Note_on_c, 0, 57, 63
2, 265074, Control_c, 0, 64, 63
2, 265083, Note_on_c, 0, 73, 0
2, 265087, Note_on_c, 0, 48, 50
2, 265093, Control_c, 0, 64, 46
2, 265111, Control_c, 0, 64, 34
2, 265131, Control_c, 0, 64, 39
2, 265151, Control_c, 0, 64, 51
2, 265168, Control_c, 0, 64, 63
2, 265191, Control_c, 0, 64, 72
2, 265209, Control_c, 0, 64, 88
2, 265228, Control_c, 0, 64, 127
2, 265230, Note_on_c, 0, 75, 0
2, 265362, Note_on_c, 0, 48, 0
2, 265509, Note_on_c, 0, 72, 0
2, 265513, Note_on_c, 0, 78, 86
2, 265544, Note_on_c, 0, 75, 63
2, 265557, Note_on_c, 0, 57, 0
2, 265927, Note_on_c, 0, 77, 73
2, 265942, Note_on_c, 0, 73, 74
2, 265956, Note_on_c, 0, 75, 0
2, 265960, Note_on_c, 0, 56, 47
2, 265964, Control_c, 0, 64, 93
2, 265964, Note_on_c, 0, 53, 50
2, 265977, Control_c, 0, 64, 67
2, 265997, Note_on_c, 0, 78, 0
2, 266001, Control_c, 0, 64, 50
2, 266019, Control_c, 0, 64, 0
2, 266074, Control_c, 0, 64, 20
2, 266094, Control_c, 0, 64, 37
2, 266112, Control_c, 0, 64, 51
2, 266132, Control_c, 0, 64, 62
2, 266154, Control_c, 0, 64, 67
2, 266172, Control_c, 0, 64, 75
2, 266189, Control_c, 0, 64, 88
2, 266211, Control_c, 0, 64, 127
2, 266333, Note_on_c, 0, 77, 0
2, 266349, Note_on_c, 0, 75, 64
2, 266356, Note_on_c, 0, 71, 50
2, 266396, Note_on_c, 0, 73, 0
2, 266477, Note_on_c, 0, 53, 0
2, 266708, Control_c, 0, 64, 118
2, 266728, Control_c, 0, 64, 81
2, 266732, Note_on_c, 0, 46, 46
2, 266745, Note_on_c, 0, 74, 63
2, 266749, Control_c, 0, 64, 63
2, 266754, Note_on_c, 0, 71, 0
2, 266762, Note_on_c, 0, 70, 48
2, 266766, Control_c, 0, 64, 42
2, 266775, Note_on_c, 0, 75, 0
2, 266786, Control_c, 0, 64, 0
2, 266846, Control_c, 0, 64, 9
2, 266861, Control_c, 0, 64, 37
2, 266882, Control_c, 0, 64, 56
2, 266900, Control_c, 0, 64, 67
2, 266919, Control_c, 0, 64, 79
2, 266924, Note_on_c, 0, 74, 0
2, 266939, Control_c, 0, 64, 127
2, 267147, Note_on_c, 0, 56, 0
2, 267185, Note_on_c, 0, 77, 81
2, 267196, Note_on_c, 0, 74, 71
2, 267298, Note_on_c, 0, 70, 0
2, 267618, Note_on_c, 0, 51, 46
2, 267620, Note_on_c, 0, 72, 63
2, 267625, Note_on_c, 0, 46, 0
2, 267625, Note_on_c, 0, 54, 44
2, 267627, Note_on_c, 0, 75, 64
2, 267652, Control_c, 0, 64, 104
2, 267652, Note_on_c, 0, 74, 0
2, 267668, Control_c, 0, 64, 83
2, 267687, Control_c, 0, 64, 64
2, 267706, Control_c, 0, 64, 43
2, 267711, Note_on_c, 0, 77, 0
2, 267724, Control_c, 0, 64, 0
2, 267821, Control_c, 0, 64, 12
2, 267842, Control_c, 0, 64, 35
2, 267862, Control_c, 0, 64, 49
2, 267880, Control_c, 0, 64, 60
2, 267897, Control_c, 0, 64, 64
2, 267917, Control_c, 0, 64, 67
2, 267935, Control_c, 0, 64, 70
2, 267955, Control_c, 0, 64, 77
2, 267966, Note_on_c, 0, 51, 0
2, 267975, Control_c, 0, 64, 95
2, 267996, Control_c, 0, 64, 127
2, 268003, Note_on_c, 0, 54, 0
2, 268032, Note_on_c, 0, 73, 70
2, 268036, Note_on_c, 0, 70, 62
2, 268100, Note_on_c, 0, 72, 0
2, 268135, Note_on_c, 0, 75, 0
2, 268198, Note_on_c, 0, 73, 0
2, 268299, Note_on_c, 0, 70, 0
2, 268449, Note_on_c, 0, 72, 78
2, 268460, Note_on_c, 0, 69, 67
2, 268724, Control_c, 0, 64, 118
2, 268746, Control_c, 0, 64, 101
2, 268765, Control_c, 0, 64, 94
2, 268782, Control_c, 0, 64, 88
2, 268802, Control_c, 0, 64, 84
2, 268819, Control_c, 0, 64, 81
2, 268828, Note_on_c, 0, 53, 62
2, 268838, Control_c, 0, 64, 75
2, 268843, Note_on_c, 0, 49, 57
2, 268858, Control_c, 0, 64, 70
2, 268879, Control_c, 0, 64, 65
2, 268896, Control_c, 0, 64, 62
2, 268917, Control_c, 0, 64, 60
2, 268934, Control_c, 0, 64, 58
2, 268955, Control_c, 0, 64, 55
2, 268974, Control_c, 0, 64, 47
2, 268995, Control_c, 0, 64, 36
2, 269013, Control_c, 0, 64, 24
2, 269032, Control_c, 0, 64, 0
2, 269258, Note_on_c, 0, 69, 0
2, 269281, Note_on_c, 0, 73, 71
2, 269286, Note_on_c, 0, 51, 51
2, 269307, Note_on_c, 0, 48, 47
2, 269313, Note_on_c, 0, 70, 51
2, 269316, Note_on_c, 0, 53, 0
2, 269316, Note_on_c, 0, 72, 0
2, 269320, Note_on_c, 0, 49, 0
2, 269644, Note_on_c, 0, 51, 0
2, 269670, Note_on_c, 0, 48, 0
2, 269686, Note_on_c, 0, 49, 48
2, 269714, Note_on_c, 0, 46, 45
2, 270098, Note_on_c, 0, 46, 0
2, 270109, Control_c, 0, 64, 18
2, 270116, Note_on_c, 0, 58, 37
2, 270125, Control_c, 0, 64, 28
2, 270129, Note_on_c, 0, 54, 38
2, 270134, Note_on_c, 0, 63, 51
2, 270143, Note_on_c, 0, 49, 0
2, 270144, Control_c, 0, 64, 38
2, 270163, Control_c, 0, 64, 50
2, 270184, Control_c, 0, 64, 58
2, 270201, Control_c, 0, 64, 62
2, 270222, Control_c, 0, 64, 63
2, 270240, Control_c, 0, 64, 64
2, 270279, Control_c, 0, 64, 66
2, 270299, Control_c, 0, 64, 70
2, 270317, Control_c, 0, 64, 76
2, 270337, Control_c, 0, 64, 84
2, 270357, Control_c, 0, 64, 92
2, 270378, Control_c, 0, 64, 98
2, 270394, Control_c, 0, 64, 100
2, 270432, Control_c, 0, 64, 102
2, 270473, Control_c, 0, 64, 103
2, 270528, Control_c, 0, 64, 102
2, 270540, Note_on_c, 0, 72, 70
2, 270548, Control_c, 0, 64, 101
2, 270568, Control_c, 0, 64, 99
2, 270586, Control_c, 0, 64, 97
2, 270608, Control_c, 0, 64, 96
2, 270625, Control_c, 0, 64, 95
2, 270663, Control_c, 0, 64, 94
2, 270726, Note_on_c, 0, 70, 0
2, 270735, Note_on_c, 0, 73, 0
2, 270741, Control_c, 0, 64, 93
2, 270818, Control_c, 0, 64, 92
2, 270818, Note_on_c, 0, 63, 0
2, 270835, Control_c, 0, 64, 91
2, 270858, Control_c, 0, 64, 90
2, 270873, Control_c, 0, 64, 89
2, 270895, Control_c, 0, 64, 87
2, 270913, Control_c, 0, 64, 85
2, 270933, Control_c, 0, 64, 82
2, 270935, Note_on_c, 0, 55, 45
2, 270935, Note_on_c, 0, 64, 48
2, 270947, Note_on_c, 0, 58, 0
2, 270952, Control_c, 0, 64, 77
2, 270972, Control_c, 0, 64, 69
2, 270990, Control_c, 0, 64, 58
2, 270994, Note_on_c, 0, 54, 0
2, 271010, Control_c, 0, 64, 45
2, 271027, Control_c, 0, 64, 30
2, 271047, Control_c, 0, 64, 28
2, 271066, Control_c, 0, 64, 30
2, 271083, Control_c, 0, 64, 35
2, 271105, Control_c, 0, 64, 43
2, 271125, Control_c, 0, 64, 52
2, 271142, Control_c, 0, 64, 60
2, 271161, Control_c, 0, 64, 62
2, 271181, Control_c, 0, 64, 63
2, 271201, Control_c, 0, 64, 64
2, 271220, Control_c, 0, 64, 65
2, 271239, Control_c, 0, 64, 66
2, 271260, Control_c, 0, 64, 70
2, 271278, Control_c, 0, 64, 76
2, 271297, Control_c, 0, 64, 83
2, 271317, Control_c, 0, 64, 89
2, 271335, Control_c, 0, 64, 92
2, 271369, Note_on_c, 0, 70, 61
2, 271378, Note_on_c, 0, 60, 37
2, 271396, Note_on_c, 0, 64, 0
2, 271494, Note_on_c, 0, 72, 0
2, 271565, Control_c, 0, 64, 91
2, 271584, Control_c, 0, 64, 90
2, 271643, Control_c, 0, 64, 89
2, 271662, Control_c, 0, 64, 87
2, 271680, Control_c, 0, 64, 86
2, 271741, Control_c, 0, 64, 85
2, 271757, Control_c, 0, 64, 84
2, 271777, Control_c, 0, 64, 78
2, 271796, Control_c, 0, 64, 68
2, 271800, Note_on_c, 0, 53, 46
2, 271800, Note_on_c, 0, 61, 38
2, 271805, Note_on_c, 0, 55, 0
2, 271809, Note_on_c, 0, 69, 49
2, 271816, Control_c, 0, 64, 55
2, 271821, Note_on_c, 0, 60, 0
2, 271821, Note_on_c, 0, 70, 0
2, 271825, Note_on_c, 0, 65, 27
2, 271834, Control_c, 0, 64, 31
2, 271854, Control_c, 0, 64, 0
2, 271910, Control_c, 0, 64, 13
2, 271930, Control_c, 0, 64, 32
2, 271951, Control_c, 0, 64, 49
2, 271951, Note_on_c, 0, 65, 0
2, 271967, Control_c, 0, 64, 60
2, 271989, Control_c, 0, 64, 64
2, 272008, Control_c, 0, 64, 65
2, 272025, Control_c, 0, 64, 66
2, 272046, Control_c, 0, 64, 68
2, 272066, Control_c, 0, 64, 73
2, 272071, Note_on_c, 0, 69, 0
2, 272084, Control_c, 0, 64, 83
2, 272106, Control_c, 0, 64, 97
2, 272122, Control_c, 0, 64, 115
2, 272142, Control_c, 0, 64, 127
2, 272224, Note_on_c, 0, 78, 70
2, 272245, Note_on_c, 0, 69, 45
2, 272258, Control_c, 0, 64, 100
2, 272262, Note_on_c, 0, 60, 47
2, 272277, Control_c, 0, 64, 77
2, 272281, Note_on_c, 0, 61, 0
2, 272296, Control_c, 0, 64, 63
2, 272314, Control_c, 0, 64, 50
2, 272334, Control_c, 0, 64, 43
2, 272352, Control_c, 0, 64, 46
2, 272372, Control_c, 0, 64, 51
2, 272391, Control_c, 0, 64, 59
2, 272409, Control_c, 0, 64, 64
2, 272429, Control_c, 0, 64, 69
2, 272450, Control_c, 0, 64, 76
2, 272467, Control_c, 0, 64, 90
2, 272486, Control_c, 0, 64, 127
2, 272527, Note_on_c, 0, 78, 0
2, 272652, Note_on_c, 0, 77, 82
2, 272669, Note_on_c, 0, 61, 56
2, 272671, Note_on_c, 0, 70, 66
2, 272680, Control_c, 0, 64, 86
2, 272700, Control_c, 0, 64, 64
2, 272717, Control_c, 0, 64, 46
2, 272730, Note_on_c, 0, 69, 0
2, 272739, Control_c, 0, 64, 0
2, 272743, Note_on_c, 0, 60, 0
2, 272775, Control_c, 0, 64, 14
2, 272795, Control_c, 0, 64, 31
2, 272813, Control_c, 0, 64, 44
2, 272831, Control_c, 0, 64, 55
2, 272851, Note_on_c, 0, 70, 0
2, 272856, Control_c, 0, 64, 62
2, 272871, Control_c, 0, 64, 64
2, 272889, Control_c, 0, 64, 67
2, 272908, Control_c, 0, 64, 75
2, 272931, Control_c, 0, 64, 100
2, 272949, Control_c, 0, 64, 127
2, 272949, Note_on_c, 0, 61, 0
2, 273066, Control_c, 0, 64, 104
2, 273067, Note_on_c, 0, 75, 80
2, 273078, Note_on_c, 0, 63, 63
2, 273082, Note_on_c, 0, 72, 78
2, 273083, Control_c, 0, 64, 69
2, 273103, Control_c, 0, 64, 54
2, 273103, Note_on_c, 0, 77, 0
2, 273121, Control_c, 0, 64, 39
2, 273141, Control_c, 0, 64, 41
2, 273162, Control_c, 0, 64, 52
2, 273177, Control_c, 0, 64, 65
2, 273197, Control_c, 0, 64, 76
2, 273220, Control_c, 0, 64, 118
2, 273235, Control_c, 0, 64, 127
2, 273265, Note_on_c, 0, 63, 0
2, 273265, Note_on_c, 0, 72, 0
2, 273265, Note_on_c, 0, 75, 0
2, 273513, Note_on_c, 0, 73, 89
2, 273517, Note_on_c, 0, 65, 71
2, 273524, Control_c, 0, 64, 86
2, 273544, Control_c, 0, 64, 62
2, 273561, Control_c, 0, 64, 38
2, 273581, Control_c, 0, 64, 0
2, 273603, Control_c, 0, 64, 14
2, 273619, Control_c, 0, 64, 35
2, 273638, Control_c, 0, 64, 53
2, 273658, Note_on_c, 0, 53, 0
2, 273659, Control_c, 0, 64, 67
2, 273678, Control_c, 0, 64, 80
2, 273689, Note_on_c, 0, 65, 0
2, 273698, Control_c, 0, 64, 127
2, 273956, Note_on_c, 0, 70, 84
2, 274028, Note_on_c, 0, 73, 0
2, 274070, Note_on_c, 0, 70, 0
2, 274409, Note_on_c, 0, 72, 86
2, 274413, Note_on_c, 0, 41, 75
2, 274525, Control_c, 0, 64, 104
2, 274543, Control_c, 0, 64, 76
2, 274562, Control_c, 0, 64, 59
2, 274581, Control_c, 0, 64, 37
2, 274601, Control_c, 0, 64, 0
2, 274735, Control_c, 0, 64, 23
2, 274754, Control_c, 0, 64, 33
2, 274776, Control_c, 0, 64, 41
2, 274792, Control_c, 0, 64, 50
2, 274812, Control_c, 0, 64, 61
2, 274831, Control_c, 0, 64, 67
2, 274842, Note_on_c, 0, 69, 76
2, 274849, Control_c, 0, 64, 71
2, 274869, Control_c, 0, 64, 78
2, 274888, Control_c, 0, 64, 89
2, 274908, Control_c, 0, 64, 127
2, 275405, Note_on_c, 0, 70, 78
2, 275410, Note_on_c, 0, 42, 75
2, 275441, Note_on_c, 0, 69, 0
2, 275524, Control_c, 0, 64, 103
2, 275528, Note_on_c, 0, 72, 0
2, 275541, Control_c, 0, 64, 81
2, 275559, Note_on_c, 0, 41, 0
2, 275564, Control_c, 0, 64, 68
2, 275583, Control_c, 0, 64, 60
2, 275599, Control_c, 0, 64, 51
2, 275619, Control_c, 0, 64, 38
2, 275637, Control_c, 0, 64, 0
2, 275964, Control_c, 0, 64, 20
2, 275984, Control_c, 0, 64, 38
2, 275993, Note_on_c, 0, 65, 56
2, 275997, Note_on_c, 0, 68, 70
2, 276001, Control_c, 0, 64, 55
2, 276023, Control_c, 0, 64, 65
2, 276040, Control_c, 0, 64, 69
2, 276059, Control_c, 0, 64, 74
2, 276082, Control_c, 0, 64, 84
2, 276101, Control_c, 0, 64, 127
2, 276194, Note_on_c, 0, 65, 0
2, 276427, Control_c, 0, 64, 108
2, 276444, Control_c, 0, 64, 71
2, 276449, Note_on_c, 0, 66, 69
2, 276466, Control_c, 0, 64, 56
2, 276466, Note_on_c, 0, 63, 51
2, 276484, Note_on_c, 0, 68, 0
2, 276485, Control_c, 0, 64, 44
2, 276503, Control_c, 0, 64, 48
2, 276520, Control_c, 0, 64, 55
2, 276540, Control_c, 0, 64, 62
2, 276561, Control_c, 0, 64, 69
2, 276581, Control_c, 0, 64, 84
2, 276597, Control_c, 0, 64, 127
2, 276649, Note_on_c, 0, 63, 0
2, 276827, Control_c, 0, 64, 95
2, 276848, Control_c, 0, 64, 68
2, 276865, Note_on_c, 0, 65, 62
2, 276868, Control_c, 0, 64, 56
2, 276885, Control_c, 0, 64, 51
2, 276905, Control_c, 0, 64, 57
2, 276914, Note_on_c, 0, 61, 42
2, 276918, Note_on_c, 0, 70, 0
2, 276927, Control_c, 0, 64, 63
2, 276948, Control_c, 0, 64, 70
2, 276962, Control_c, 0, 64, 88
2, 276971, Note_on_c, 0, 66, 0
2, 276981, Control_c, 0, 64, 127
2, 277021, Note_on_c, 0, 65, 0
2, 277059, Note_on_c, 0, 61, 0
2, 277266, Note_on_c, 0, 68, 67
2, 277283, Note_on_c, 0, 63, 59
2, 277290, Control_c, 0, 64, 116
2, 277303, Note_on_c, 0, 59, 55
2, 277312, Control_c, 0, 64, 69
2, 277326, Control_c, 0, 64, 54
2, 277350, Control_c, 0, 64, 36
2, 277367, Control_c, 0, 64, 32
2, 277386, Control_c, 0, 64, 37
2, 277405, Control_c, 0, 64, 48
2, 277424, Control_c, 0, 64, 59
2, 277442, Control_c, 0, 64, 65
2, 277463, Control_c, 0, 64, 70
2, 277480, Control_c, 0, 64, 73
2, 277501, Control_c, 0, 64, 76
2, 277520, Control_c, 0, 64, 80
2, 277541, Control_c, 0, 64, 86
2, 277557, Control_c, 0, 64, 93
2, 277577, Control_c, 0, 64, 101
2, 277596, Control_c, 0, 64, 109
2, 277614, Control_c, 0, 64, 116
2, 277634, Control_c, 0, 64, 122
2, 277654, Control_c, 0, 64, 127
2, 277714, Note_on_c, 0, 41, 58
2, 277738, Note_on_c, 0, 63, 0
2, 277755, Note_on_c, 0, 62, 61
2, 277809, Control_c, 0, 64, 115
2, 277820, Note_on_c, 0, 42, 0
2, 277827, Control_c, 0, 64, 110
2, 277846, Control_c, 0, 64, 107
2, 277866, Control_c, 0, 64, 103
2, 277885, Control_c, 0, 64, 97
2, 277902, Control_c, 0, 64, 89
2, 277924, Control_c, 0, 64, 81
2, 277937, Note_on_c, 0, 63, 56
2, 277941, Control_c, 0, 64, 75
2, 277963, Control_c, 0, 64, 71
2, 277982, Control_c, 0, 64, 68
2, 277982, Note_on_c, 0, 62, 0
2, 277999, Control_c, 0, 64, 65
2, 278017, Control_c, 0, 64, 62
2, 278037, Control_c, 0, 64, 60
2, 278057, Control_c, 0, 64, 58
2, 278077, Control_c, 0, 64, 57
2, 278094, Control_c, 0, 64, 55
2, 278114, Control_c, 0, 64, 54
2, 278135, Control_c, 0, 64, 51
2, 278154, Control_c, 0, 64, 47
2, 278163, Note_on_c, 0, 39, 49
2, 278175, Control_c, 0, 64, 43
2, 278175, Note_on_c, 0, 65, 54
2, 278190, Control_c, 0, 64, 38
2, 278210, Control_c, 0, 64, 29
2, 278231, Control_c, 0, 64, 8
2, 278238, Note_on_c, 0, 41, 0
2, 278252, Control_c, 0, 64, 0
2, 278252, Note_on_c, 0, 63, 0
2, 278350, Note_on_c, 0, 68, 0
2, 278518, Note_on_c, 0, 59, 0
2, 278591, Note_on_c, 0, 38, 53
2, 278622, Note_on_c, 0, 39, 0
2, 279023, Note_on_c, 0, 66, 62
2, 279032, Note_on_c, 0, 39, 51
2, 279047, Note_on_c, 0, 58, 48
2, 279061, Note_on_c, 0, 65, 0
2, 279126, Note_on_c, 0, 38, 0
2, 279247, Control_c, 0, 64, 22
2, 279266, Control_c, 0, 64, 34
2, 279286, Control_c, 0, 64, 43
2, 279304, Control_c, 0, 64, 50
2, 279323, Control_c, 0, 64, 55
2, 279344, Control_c, 0, 64, 57
2, 279364, Control_c, 0, 64, 59
2, 279380, Control_c, 0, 64, 62
2, 279402, Control_c, 0, 64, 63
2, 279422, Control_c, 0, 64, 65
2, 279440, Control_c, 0, 64, 67
2, 279458, Control_c, 0, 64, 70
2, 279475, Note_on_c, 0, 61, 49
2, 279480, Control_c, 0, 64, 77
2, 279480, Note_on_c, 0, 65, 60
2, 279497, Control_c, 0, 64, 91
2, 279517, Control_c, 0, 64, 127
2, 279571, Note_on_c, 0, 58, 0
2, 279875, Note_on_c, 0, 51, 55
2, 279880, Control_c, 0, 64, 107
2, 279897, Note_on_c, 0, 63, 64
2, 279901, Control_c, 0, 64, 80
2, 279901, Note_on_c, 0, 60, 48
2, 279923, Control_c, 0, 64, 62
2, 279934, Note_on_c, 0, 61, 0
2, 279938, Control_c, 0, 64, 28
2, 279938, Note_on_c, 0, 39, 0
2, 279958, Control_c, 0, 64, 0
2, 280037, Note_on_c, 0, 65, 0
2, 280053, Note_on_c, 0, 60, 0
2, 280057, Control_c, 0, 64, 19
2, 280073, Control_c, 0, 64, 37
2, 280091, Control_c, 0, 64, 48
2, 280111, Control_c, 0, 64, 58
2, 280131, Control_c, 0, 64, 62
2, 280151, Control_c, 0, 64, 63
2, 280187, Control_c, 0, 64, 64
2, 280207, Control_c, 0, 64, 65
2, 280227, Control_c, 0, 64, 68
2, 280247, Control_c, 0, 64, 74
2, 280265, Control_c, 0, 64, 84
2, 280284, Control_c, 0, 64, 101
2, 280293, Note_on_c, 0, 61, 56
2, 280309, Note_on_c, 0, 51, 0
2, 280309, Note_on_c, 0, 51, 3
2, 280309, Note_on_c, 0, 58, 50
2, 280313, Control_c, 0, 64, 127
2, 280314, Note_on_c, 0, 63, 0
2, 280332, Note_on_c, 0, 66, 0
2, 280388, Note_on_c, 0, 58, 0
2, 280552, Control_c, 0, 64, 112
2, 280572, Control_c, 0, 64, 107
2, 280592, Control_c, 0, 64, 105
2, 280608, Control_c, 0, 64, 104
2, 280631, Control_c, 0, 64, 100
2, 280648, Control_c, 0, 64, 94
2, 280668, Control_c, 0, 64, 89
2, 280686, Control_c, 0, 64, 83
2, 280706, Control_c, 0, 64, 78
2, 280721, Note_on_c, 0, 57, 48
2, 280726, Control_c, 0, 64, 72
2, 280744, Control_c, 0, 64, 65
2, 280763, Control_c, 0, 64, 58
2, 280771, Note_on_c, 0, 65, 50
2, 280785, Control_c, 0, 64, 49
2, 280789, Note_on_c, 0, 60, 36
2, 280794, Note_on_c, 0, 51, 0
2, 280804, Control_c, 0, 64, 32
2, 280820, Control_c, 0, 64, 0
2, 280829, Note_on_c, 0, 61, 0
2, 281033, Control_c, 0, 64, 22
2, 281051, Control_c, 0, 64, 34
2, 281071, Control_c, 0, 64, 44
2, 281089, Control_c, 0, 64, 52
2, 281111, Control_c, 0, 64, 58
2, 281127, Control_c, 0, 64, 59
2, 281147, Control_c, 0, 64, 60
2, 281165, Note_on_c, 0, 49, 36
2, 281170, Control_c, 0, 64, 61
2, 281187, Control_c, 0, 64, 62
2, 281192, Note_on_c, 0, 63, 49
2, 281208, Note_on_c, 0, 65, 0
2, 281284, Control_c, 0, 64, 63
2, 281298, Note_on_c, 0, 57, 0
2, 281359, Control_c, 0, 64, 62
2, 281370, Note_on_c, 0, 48, 44
2, 281375, Note_on_c, 0, 49, 0
2, 281455, Control_c, 0, 64, 61
2, 281511, Control_c, 0, 64, 60
2, 281551, Control_c, 0, 64, 59
2, 281569, Control_c, 0, 64, 57
2, 281590, Control_c, 0, 64, 55
2, 281596, Note_on_c, 0, 60, 0
2, 281609, Control_c, 0, 64, 52
2, 281626, Control_c, 0, 64, 49
2, 281648, Control_c, 0, 64, 39
2, 281669, Control_c, 0, 64, 9
2, 281685, Note_on_c, 0, 48, 0
2, 281689, Control_c, 0, 64, 0
2, 281693, Note_on_c, 0, 70, 72
2, 281706, Note_on_c, 0, 49, 35
2, 281706, Note_on_c, 0, 58, 34
2, 281715, Note_on_c, 0, 63, 0
2, 282148, Note_on_c, 0, 61, 45
2, 282153, Note_on_c, 0, 51, 47
2, 282193, Note_on_c, 0, 58, 0
2, 282210, Note_on_c, 0, 49, 0
2, 282556, Note_on_c, 0, 51, 0
2, 282584, Note_on_c, 0, 65, 58
2, 282589, Note_on_c, 0, 61, 0
2, 282606, Note_on_c, 0, 53, 37
2, 282633, Note_on_c, 0, 57, 32
2, 282638, Note_on_c, 0, 60, 31
2, 282680, Note_on_c, 0, 70, 0
2, 282685, Control_c, 0, 64, 13
2, 282704, Control_c, 0, 64, 26
2, 282723, Control_c, 0, 64, 34
2, 282744, Control_c, 0, 64, 39
2, 282761, Control_c, 0, 64, 42
2, 282781, Control_c, 0, 64, 47
2, 282799, Control_c, 0, 64, 54
2, 282818, Control_c, 0, 64, 60
2, 282838, Control_c, 0, 64, 62
2, 282875, Control_c, 0, 64, 64
2, 282898, Control_c, 0, 64, 65
2, 282917, Control_c, 0, 64, 68
2, 282932, Control_c, 0, 64, 74
2, 282956, Control_c, 0, 64, 88
2, 282972, Control_c, 0, 64, 127
2, 282995, Note_on_c, 0, 51, 61
2, 283014, Note_on_c, 0, 57, 0
2, 283053, Note_on_c, 0, 53, 0
2, 283133, Note_on_c, 0, 51, 0
2, 283230, Note_on_c, 0, 65, 0
2, 283272, Note_on_c, 0, 60, 0
2, 283411, Note_on_c, 0, 58, 77
2, 283448, Note_on_c, 0, 49, 53
2, 283468, Control_c, 0, 64, 90
2, 283487, Control_c, 0, 64, 66
2, 283504, Control_c, 0, 64, 41
2, 283524, Control_c, 0, 64, 0
2, 283603, Control_c, 0, 64, 16
2, 283619, Control_c, 0, 64, 38
2, 283639, Control_c, 0, 64, 57
2, 283657, Control_c, 0, 64, 65
2, 283677, Control_c, 0, 64, 69
2, 283697, Control_c, 0, 64, 76
2, 283715, Control_c, 0, 64, 88
2, 283735, Control_c, 0, 64, 127
2, 283819, Note_on_c, 0, 49, 0
2, 283828, Note_on_c, 0, 48, 58
2, 283853, Note_on_c, 0, 58, 0
2, 283853, Note_on_c, 0, 78, 81
2, 283933, Note_on_c, 0, 48, 0
2, 284255, Note_on_c, 0, 53, 83
2, 284282, Note_on_c, 0, 49, 63
2, 284292, Control_c, 0, 64, 78
2, 284296, Note_on_c, 0, 77, 73
2, 284310, Control_c, 0, 64, 59
2, 284329, Control_c, 0, 64, 0
2, 284524, Control_c, 0, 64, 28
2, 284540, Control_c, 0, 64, 36
2, 284560, Control_c, 0, 64, 42
2, 284581, Control_c, 0, 64, 51
2, 284585, Note_on_c, 0, 49, 0
2, 284599, Control_c, 0, 64, 61
2, 284619, Control_c, 0, 64, 66
2, 284636, Control_c, 0, 64, 72
2, 284656, Control_c, 0, 64, 86
2, 284676, Control_c, 0, 64, 127
2, 284685, Note_on_c, 0, 45, 72
2, 284685, Note_on_c, 0, 75, 69
2, 284689, Note_on_c, 0, 72, 71
2, 284696, Note_on_c, 0, 53, 0
2, 284700, Note_on_c, 0, 78, 0
2, 284711, Note_on_c, 0, 77, 0
2, 284726, Note_on_c, 0, 45, 0
2, 284746, Note_on_c, 0, 72, 0
2, 284758, Note_on_c, 0, 75, 0
2, 285126, Note_on_c, 0, 46, 89
2, 285155, Note_on_c, 0, 73, 83
2, 285160, Control_c, 0, 64, 80
2, 285160, Note_on_c, 0, 70, 70
2, 285175, Control_c, 0, 64, 58
2, 285193, Control_c, 0, 64, 0
2, 285199, Note_on_c, 0, 66, 53
2, 285283, Note_on_c, 0, 66, 0
2, 285348, Control_c, 0, 64, 43
2, 285366, Control_c, 0, 64, 54
2, 285387, Control_c, 0, 64, 61
2, 285404, Control_c, 0, 64, 63
2, 285425, Control_c, 0, 64, 65
2, 285445, Control_c, 0, 64, 69
2, 285463, Control_c, 0, 64, 80
2, 285480, Control_c, 0, 64, 127
2, 285542, Note_on_c, 0, 72, 84
2, 285551, Note_on_c, 0, 69, 67
2, 285557, Note_on_c, 0, 66, 75
2, 285557, Note_on_c, 0, 70, 0
2, 285585, Note_on_c, 0, 73, 0
2, 285692, Note_on_c, 0, 46, 0
2, 285756, Note_on_c, 0, 66, 0
2, 285923, Control_c, 0, 64, 81
2, 285939, Note_on_c, 0, 41, 85
2, 285944, Control_c, 0, 64, 52
2, 285962, Control_c, 0, 64, 0
2, 285966, Note_on_c, 0, 73, 86
2, 285989, Note_on_c, 0, 65, 65
2, 285993, Note_on_c, 0, 70, 62
2, 286004, Note_on_c, 0, 72, 0
2, 286039, Control_c, 0, 64, 22
2, 286039, Note_on_c, 0, 69, 0
2, 286058, Control_c, 0, 64, 52
2, 286077, Control_c, 0, 64, 70
2, 286088, Note_on_c, 0, 41, 0
2, 286099, Control_c, 0, 64, 118
2, 286117, Control_c, 0, 64, 127
2, 286144, Note_on_c, 0, 73, 0
2, 286303, Note_on_c, 0, 70, 0
2, 286391, Note_on_c, 0, 75, 82
2, 286396, Note_on_c, 0, 65, 0
2, 286400, Note_on_c, 0, 60, 82
2, 286400, Note_on_c, 0, 69, 71
2, 286424, Control_c, 0, 64, 82
2, 286442, Control_c, 0, 64, 60
2, 286461, Control_c, 0, 64, 42
2, 286499, Control_c, 0, 64, 54
2, 286515, Note_on_c, 0, 69, 0
2, 286519, Control_c, 0, 64, 67
2, 286526, Note_on_c, 0, 75, 0
2, 286539, Control_c, 0, 64, 110
2, 286558, Control_c, 0, 64, 127
2, 286827, Note_on_c, 0, 61, 66
2, 286832, Note_on_c, 0, 58, 69
2, 286832, Note_on_c, 0, 77, 88
2, 286836, Note_on_c, 0, 70, 82
2, 286846, Control_c, 0, 64, 103
2, 286850, Note_on_c, 0, 60, 0
2, 286867, Control_c, 0, 64, 65
2, 286885, Control_c, 0, 64, 39
2, 286903, Control_c, 0, 64, 0
2, 286942, Control_c, 0, 64, 30
2, 286961, Control_c, 0, 64, 55
2, 286981, Control_c, 0, 64, 71
2, 287001, Control_c, 0, 64, 101
2, 287018, Control_c, 0, 64, 127
2, 287018, Note_on_c, 0, 70, 0
2, 287164, Note_on_c, 0, 58, 0
2, 287166, Note_on_c, 0, 61, 0
2, 287252, Note_on_c, 0, 60, 76
2, 287256, Note_on_c, 0, 54, 70
2, 287256, Note_on_c, 0, 57, 71
2, 287256, Note_on_c, 0, 72, 91
2, 287256, Note_on_c, 0, 75, 87
2, 287267, Control_c, 0, 64, 88
2, 287287, Control_c, 0, 64, 63
2, 287292, Note_on_c, 0, 77, 0
2, 287310, Control_c, 0, 64, 39
2, 287325, Control_c, 0, 64, 28
2, 287343, Note_on_c, 0, 72, 0
2, 287347, Control_c, 0, 64, 45
2, 287362, Control_c, 0, 64, 64
2, 287367, Note_on_c, 0, 75, 0
2, 287382, Control_c, 0, 64, 82
2, 287402, Control_c, 0, 64, 127
2, 287406, Note_on_c, 0, 60, 0
2, 287411, Note_on_c, 0, 57, 0
2, 287427, Note_on_c, 0, 54, 0
2, 287654, Note_on_c, 0, 73, 94
2, 287658, Note_on_c, 0, 61, 78
2, 287663, Note_on_c, 0, 53, 75
2, 287663, Note_on_c, 0, 70, 81
2, 287673, Note_on_c, 0, 58, 73
2, 287692, Control_c, 0, 64, 78
2, 287709, Control_c, 0, 64, 54
2, 287729, Control_c, 0, 64, 0
2, 287787, Control_c, 0, 64, 22
2, 287805, Control_c, 0, 64, 47
2, 287810, Note_on_c, 0, 53, 0
2, 287823, Control_c, 0, 64, 63
2, 287844, Control_c, 0, 64, 73
2, 287866, Control_c, 0, 64, 88
2, 287877, Note_on_c, 0, 63, 79
2, 287881, Control_c, 0, 64, 127
2, 287925, Note_on_c, 0, 58, 0
2, 287938, Note_on_c, 0, 73, 0
2, 287953, Note_on_c, 0, 63, 0
2, 288017, Note_on_c, 0, 70, 0
2, 288026, Note_on_c, 0, 61, 0
2, 288096, Control_c, 0, 64, 88
2, 288105, Note_on_c, 0, 51, 72
2, 288107, Note_on_c, 0, 60, 67
2, 288107, Note_on_c, 0, 72, 96
2, 288112, Control_c, 0, 64, 59
2, 288118, Note_on_c, 0, 65, 83
2, 288123, Note_on_c, 0, 69, 75
2, 288134, Control_c, 0, 64, 0
2, 288189, Control_c, 0, 64, 28
2, 288209, Control_c, 0, 64, 52
2, 288226, Control_c, 0, 64, 66
2, 288237, Note_on_c, 0, 60, 0
2, 288242, Note_on_c, 0, 51, 0
2, 288248, Control_c, 0, 64, 78
2, 288267, Control_c, 0, 64, 115
2, 288285, Control_c, 0, 64, 127
2, 288552, Control_c, 0, 64, 99
2, 288559, Note_on_c, 0, 70, 88
2, 288568, Note_on_c, 0, 61, 83
2, 288576, Control_c, 0, 64, 63
2, 288576, Note_on_c, 0, 49, 75
2, 288599, Control_c, 0, 64, 0
2, 288599, Note_on_c, 0, 65, 0
2, 288599, Note_on_c, 0, 72, 0
2, 288608, Note_on_c, 0, 69, 0
2, 288688, Control_c, 0, 64, 32
2, 288708, Control_c, 0, 64, 51
2, 288728, Control_c, 0, 64, 63
2, 288748, Control_c, 0, 64, 69
2, 288765, Control_c, 0, 64, 77
2, 288786, Control_c, 0, 64, 88
2, 288803, Control_c, 0, 64, 113
2, 288822, Control_c, 0, 64, 127
2, 288952, Note_on_c, 0, 49, 0
2, 288969, Note_on_c, 0, 61, 0
2, 289029, Note_on_c, 0, 66, 76
2, 289034, Note_on_c, 0, 63, 76
2, 289038, Note_on_c, 0, 48, 74
2, 289053, Control_c, 0, 64, 110
2, 289076, Control_c, 0, 64, 69
2, 289094, Control_c, 0, 64, 44
2, 289109, Control_c, 0, 64, 0
2, 289169, Control_c, 0, 64, 35
2, 289187, Control_c, 0, 64, 57
2, 289207, Control_c, 0, 64, 71
2, 289226, Control_c, 0, 64, 97
2, 289246, Control_c, 0, 64, 127
2, 289291, Note_on_c, 0, 63, 0
2, 289480, Note_on_c, 0, 50, 74
2, 289491, Note_on_c, 0, 58, 68
2, 289495, Note_on_c, 0, 68, 87
2, 289499, Note_on_c, 0, 65, 69
2, 289517, Control_c, 0, 64, 98
2, 289521, Note_on_c, 0, 48, 0
2, 289535, Control_c, 0, 64, 63
2, 289543, Note_on_c, 0, 70, 0
2, 289552, Control_c, 0, 64, 27
2, 289566, Note_on_c, 0, 66, 0
2, 289574, Control_c, 0, 64, 0
2, 289604, Note_on_c, 0, 65, 0
2, 289614, Control_c, 0, 64, 29
2, 289633, Control_c, 0, 64, 54
2, 289652, Control_c, 0, 64, 69
2, 289672, Control_c, 0, 64, 94
2, 289692, Control_c, 0, 64, 127
2, 289954, Note_on_c, 0, 58, 0
2, 289958, Control_c, 0, 64, 93
2, 289966, Note_on_c, 0, 51, 77
2, 289977, Control_c, 0, 64, 55
2, 289977, Note_on_c, 0, 72, 93
2, 289988, Note_on_c, 0, 66, 73
2, 289992, Note_on_c, 0, 63, 72
2, 289997, Control_c, 0, 64, 0
2, 290017, Note_on_c, 0, 68, 0
2, 290041, Note_on_c, 0, 50, 0
2, 290055, Control_c, 0, 64, 34
2, 290073, Control_c, 0, 64, 56
2, 290093, Control_c, 0, 64, 73
2, 290113, Control_c, 0, 64, 127
2, 290122, Note_on_c, 0, 63, 0
2, 290161, Note_on_c, 0, 72, 0
2, 290209, Note_on_c, 0, 66, 0
2, 290530, Note_on_c, 0, 73, 93
2, 290534, Note_on_c, 0, 53, 79
2, 290541, Note_on_c, 0, 61, 79
2, 290541, Note_on_c, 0, 65, 77
2, 290576, Note_on_c, 0, 51, 0
2, 290593, Control_c, 0, 64, 94
2, 290612, Control_c, 0, 64, 73
2, 290631, Control_c, 0, 64, 61
2, 290649, Control_c, 0, 64, 46
2, 290670, Control_c, 0, 64, 0
2, 290825, Note_on_c, 0, 54, 81
2, 290851, Note_on_c, 0, 53, 0
2, 291057, Note_on_c, 0, 52, 85
2, 291060, Note_on_c, 0, 54, 0
2, 291306, Note_on_c, 0, 52, 0
2, 291324, Note_on_c, 0, 53, 87
2, 291342, Control_c, 0, 64, 22
2, 291360, Control_c, 0, 64, 36
2, 291380, Control_c, 0, 64, 54
2, 291401, Control_c, 0, 64, 66
2, 291401, Note_on_c, 0, 73, 0
2, 291418, Control_c, 0, 64, 81
2, 291437, Control_c, 0, 64, 127
2, 291494, Note_on_c, 0, 61, 0
2, 291555, Note_on_c, 0, 53, 0
2, 291858, Note_on_c, 0, 40, 79
2, 291872, Note_on_c, 0, 67, 83
2, 291957, Control_c, 0, 64, 89
2, 291976, Control_c, 0, 64, 68
2, 291994, Control_c, 0, 64, 54
2, 292016, Control_c, 0, 64, 22
2, 292034, Control_c, 0, 64, 0
2, 292053, Note_on_c, 0, 65, 0
2, 292574, Control_c, 0, 64, 30
2, 292591, Control_c, 0, 64, 43
2, 292609, Control_c, 0, 64, 52
2, 292630, Control_c, 0, 64, 60
2, 292650, Note_on_c, 0, 73, 87
2, 292654, Control_c, 0, 64, 65
2, 292668, Control_c, 0, 64, 70
2, 292688, Control_c, 0, 64, 79
2, 292705, Control_c, 0, 64, 106
2, 292728, Control_c, 0, 64, 127
2, 292850, Note_on_c, 0, 73, 0
2, 293149, Note_on_c, 0, 72, 87
2, 293160, Note_on_c, 0, 60, 72
2, 293225, Control_c, 0, 64, 101
2, 293243, Control_c, 0, 64, 68
2, 293265, Control_c, 0, 64, 48
2, 293281, Control_c, 0, 64, 0
2, 293379, Control_c, 0, 64, 32
2, 293399, Control_c, 0, 64, 46
2, 293417, Control_c, 0, 64, 59
2, 293436, Control_c, 0, 64, 63
2, 293456, Control_c, 0, 64, 65
2, 293474, Control_c, 0, 64, 66
2, 293494, Control_c, 0, 64, 69
2, 293512, Control_c, 0, 64, 76
2, 293532, Control_c, 0, 64, 97
2, 293550, Control_c, 0, 64, 127
2, 293688, Note_on_c, 0, 70, 76
2, 293737, Note_on_c, 0, 72, 0
2, 293749, Note_on_c, 0, 67, 0
2, 293753, Note_on_c, 0, 60, 0
2, 293845, Note_on_c, 0, 70, 0
2, 294268, Note_on_c, 0, 41, 72
2, 294282, Note_on_c, 0, 70, 76
2, 294294, Note_on_c, 0, 65, 64
2, 294306, Note_on_c, 0, 60, 59
2, 294360, Note_on_c, 0, 40, 0
2, 294397, Control_c, 0, 64, 81
2, 294417, Control_c, 0, 64, 65
2, 294433, Control_c, 0, 64, 52
2, 294454, Control_c, 0, 64, 20
2, 294472, Control_c, 0, 64, 0
2, 294723, Control_c, 0, 64, 26
2, 294740, Control_c, 0, 64, 37
2, 294761, Control_c, 0, 64, 47
2, 294780, Control_c, 0, 64, 56
2, 294798, Control_c, 0, 64, 61
2, 294818, Control_c, 0, 64, 63
2, 294838, Control_c, 0, 64, 64
2, 294858, Control_c, 0, 64, 65
2, 294876, Control_c, 0, 64, 68
2, 294894, Control_c, 0, 64, 75
2, 294913, Control_c, 0, 64, 91
2, 294931, Note_on_c, 0, 66, 72
2, 294935, Control_c, 0, 64, 127
2, 294970, Note_on_c, 0, 60, 0
2, 295023, Note_on_c, 0, 65, 0
2, 295038, Note_on_c, 0, 70, 0
2, 295074, Note_on_c, 0, 66, 0
2, 295577, Note_on_c, 0, 69, 73
2, 295586, Note_on_c, 0, 53, 50
2, 295599, Note_on_c, 0, 65, 61
2, 295681, Control_c, 0, 64, 91
2, 295701, Control_c, 0, 64, 68
2, 295723, Control_c, 0, 64, 51
2, 295738, Control_c, 0, 64, 0
2, 295911, Control_c, 0, 64, 15
2, 295931, Control_c, 0, 64, 28
2, 295952, Control_c, 0, 64, 40
2, 295969, Control_c, 0, 64, 52
2, 295989, Control_c, 0, 64, 61
2, 296009, Control_c, 0, 64, 65
2, 296029, Control_c, 0, 64, 67
2, 296047, Control_c, 0, 64, 70
2, 296067, Control_c, 0, 64, 79
2, 296087, Control_c, 0, 64, 106
2, 296105, Control_c, 0, 64, 127
2, 296279, Note_on_c, 0, 63, 70
2, 296363, Note_on_c, 0, 69, 0
2, 296394, Note_on_c, 0, 65, 0
2, 296544, Note_on_c, 0, 63, 0
2, 297261, Note_on_c, 0, 70, 81
2, 297275, Note_on_c, 0, 46, 53
2, 297275, Note_on_c, 0, 62, 70
2, 297279, Note_on_c, 0, 58, 56
2, 297411, Control_c, 0, 64, 88
2, 297429, Control_c, 0, 64, 67
2, 297451, Control_c, 0, 64, 54
2, 297467, Control_c, 0, 64, 30
2, 297485, Control_c, 0, 64, 0
2, 297563, Note_on_c, 0, 41, 0
2, 297850, Control_c, 0, 64, 17
2, 297870, Control_c, 0, 64, 30
2, 297889, Control_c, 0, 64, 38
2, 297911, Control_c, 0, 64, 43
2, 297928, Control_c, 0, 64, 46
2, 297946, Control_c, 0, 64, 51
2, 297966, Control_c, 0, 64, 58
2, 297986, Control_c, 0, 64, 62
2, 298004, Control_c, 0, 64, 64
2, 298024, Control_c, 0, 64, 65
2, 298042, Control_c, 0, 64, 67
2, 298063, Control_c, 0, 64, 71
2, 298080, Control_c, 0, 64, 81
2, 298102, Control_c, 0, 64, 122
2, 298120, Control_c, 0, 64, 127
2, 300309, Note_on_c, 0, 53, 0
2, 300478, Note_on_c, 0, 58, 0
2, 300491, Note_on_c, 0, 70, 0
2, 300540, Note_on_c, 0, 62, 0
2, 300635, Note_on_c, 0, 46, 0
2, 300846, Control_c, 0, 64, 112
2, 300866, Control_c, 0, 64, 106
2, 300884, Control_c, 0, 64, 102
2, 300904, Control_c, 0, 64, 99
2, 300923, Control_c, 0, 64, 96
2, 300943, Control_c, 0, 64, 91
2, 300962, Control_c, 0, 64, 86
2, 300979, Control_c, 0, 64, 82
2, 301001, Control_c, 0, 64, 78
2, 301021, Control_c, 0, 64, 75
2, 301039, Control_c, 0, 64, 73
2, 301058, Control_c, 0, 64, 71
2, 301076, Control_c, 0, 64, 68
2, 301096, Control_c, 0, 64, 65
2, 301116, Control_c, 0, 64, 63
2, 301134, Control_c, 0, 64, 62
2, 301191, Control_c, 0, 64, 61
2, 301211, Control_c, 0, 64, 59
2, 301230, Control_c, 0, 64, 57
2, 301250, Control_c, 0, 64, 55
2, 301268, Control_c, 0, 64, 54
2, 301307, Control_c, 0, 64, 53
2, 301328, Control_c, 0, 64, 51
2, 301346, Control_c, 0, 64, 49
2, 301363, Control_c, 0, 64, 47
2, 301383, Control_c, 0, 64, 46
2, 301406, Control_c, 0, 64, 45
2, 301423, Control_c, 0, 64, 43
2, 301441, Control_c, 0, 64, 41
2, 301463, Control_c, 0, 64, 38
2, 301480, Control_c, 0, 64, 34
2, 301498, Control_c, 0, 64, 32
2, 301518, Control_c, 0, 64, 29
2, 301538, Control_c, 0, 64, 25
2, 301558, Control_c, 0, 64, 15
2, 301576, Control_c, 0, 64, 0
2, 301577, End_track
0, 0, End_of_file
