0, 0, Header, 1, 2, 480
1, 0, Start_track
1, 0, Tempo, 500000
1, 0, Time_signature, 4, 2, 24, 8
1, 1, End_track
2,0,Start_track
2,0, Note_on_c, 0, 70, 69
2,1027, Note_on_c, 0, 65, 61
2,1062, Control_c, 0, 64, 116
2,1081, Control_c, 0, 64, 101
2,1100, Control_c, 0, 64, 92
2,1122, Control_c, 0, 64, 83
2,1138, Control_c, 0, 64, 73
2,1159, Control_c, 0, 64, 64
2,1178, Control_c, 0, 64, 55
2,1197, Control_c, 0, 64, 44
2,1215, Control_c, 0, 64, 23
2,1225, Note_on_c, 0, 70, 0
2,1237, Control_c, 0, 64, 0
2,1485, Control_c, 0, 64, 22
2,1505, Control_c, 0, 64, 38
2,1522, Control_c, 0, 64, 54
2,1544, Control_c, 0, 64, 63
2,1562, Control_c, 0, 64, 65
2,1581, Control_c, 0, 64, 67
2,1599, Control_c, 0, 64, 69
2,1619, Control_c, 0, 64, 75
2,1639, Control_c, 0, 64, 88
2,1657, Control_c, 0, 64, 127
2,1878, Note_on_c, 0, 65, 0
2,1983, Control_c, 0, 64, 113
2,2003, Control_c, 0, 64, 102
2,2023, Control_c, 0, 64, 101
2,2097, Control_c, 0, 64, 97
2,2117, Control_c, 0, 64, 90
2,2137, Control_c, 0, 64, 81
2,2157, Control_c, 0, 64, 72
2,2175, Control_c, 0, 64, 65
2,2193, Control_c, 0, 64, 61
2,2291, Control_c, 0, 64, 60
2,2309, Control_c, 0, 64, 58
2,2328, Control_c, 0, 64, 56
2,2348, Control_c, 0, 64, 54
2,2389, Control_c, 0, 64, 53
2,2406, Control_c, 0, 64, 52
2,2424, Control_c, 0, 64, 49
2,2446, Control_c, 0, 64, 46
2,2464, Control_c, 0, 64, 42
2,2482, Control_c, 0, 64, 40
2,2501, Control_c, 0, 64, 38
2,2521, Control_c, 0, 64, 35
2,2525, Note_on_c, 0, 78, 73
2,2540, Control_c, 0, 64, 28
2,2560, Control_c, 0, 64, 18
2,2578, Control_c, 0, 64, 0
2,2992, Note_on_c, 0, 77, 70
2,3069, Note_on_c, 0, 78, 0
2,3452, Note_on_c, 0, 75, 64
2,3552, Note_on_c, 0, 77, 0
2,3925, Note_on_c, 0, 65, 65
2,3929, Note_on_c, 0, 73, 63
2,3995, Note_on_c, 0, 75, 0
2,4408, Note_on_c, 0, 73, 0
2,4412, Note_on_c, 0, 72, 69
2,4863, Note_on_c, 0, 58, 62
2,4881, Note_on_c, 0, 73, 62
2,4894, Note_on_c, 0, 72, 0
2,4950, Note_on_c, 0, 65, 0
2,5287, Control_c, 0, 64, 22
2,5305, Control_c, 0, 64, 42
2,5322, Control_c, 0, 64, 57
2,5331, Note_on_c, 0, 75, 62
2,5335, Note_on_c, 0, 58, 0
2,5344, Control_c, 0, 64, 64
2,5362, Control_c, 0, 64, 67
2,5379, Control_c, 0, 64, 70
2,5395, Note_on_c, 0, 73, 0
2,5402, Control_c, 0, 64, 74
2,5422, Control_c, 0, 64, 81
2,5438, Control_c, 0, 64, 91
2,5459, Control_c, 0, 64, 109
2,5481, Control_c, 0, 64, 127
2,5650, Control_c, 0, 64, 120
2,5669, Control_c, 0, 64, 95
2,5689, Control_c, 0, 64, 81
2,5709, Control_c, 0, 64, 69
2,5726, Control_c, 0, 64, 59
2,5746, Control_c, 0, 64, 47
2,5764, Control_c, 0, 64, 33
2,5768, Note_on_c, 0, 77, 71
2,5786, Control_c, 0, 64, 16
2,5794, Note_on_c, 0, 75, 0
2,5805, Control_c, 0, 64, 0
2,6222, Note_on_c, 0, 73, 52
2,6227, Note_on_c, 0, 77, 0
2,6234, Note_on_c, 0, 76, 61
2,6406, Note_on_c, 0, 77, 69
2,6506, Note_on_c, 0, 76, 0
2,6650, Note_on_c, 0, 72, 58
2,6659, Note_on_c, 0, 79, 80
2,6737, Note_on_c, 0, 73, 0
2,6802, Note_on_c, 0, 77, 0
2,7081, Note_on_c, 0, 70, 68
2,7161, Note_on_c, 0, 72, 0
2,7381, Note_on_c, 0, 79, 0
2,7509, Note_on_c, 0, 68, 69
2,7613, Note_on_c, 0, 70, 0
2,7928, Note_on_c, 0, 80, 71
2,7938, Note_on_c, 0, 67, 56
2,8030, Note_on_c, 0, 68, 0
2,8128, Note_on_c, 0, 79, 76
2,8365, Note_on_c, 0, 68, 61
2,8374, Note_on_c, 0, 77, 68
2,8378, Note_on_c, 0, 80, 0
2,8410, Note_on_c, 0, 67, 0
2,8471, Note_on_c, 0, 79, 0
2,8796, Note_on_c, 0, 70, 58
2,8825, Note_on_c, 0, 68, 0
2,9230, Note_on_c, 0, 72, 62
2,9299, Note_on_c, 0, 70, 0
2,9672, Note_on_c, 0, 75, 50
2,9700, Note_on_c, 0, 77, 0
2,9863, Note_on_c, 0, 75, 0
2,9872, Note_on_c, 0, 73, 51
2,10110, Note_on_c, 0, 75, 56
2,10206, Note_on_c, 0, 73, 0
2,10496, Note_on_c, 0, 77, 66
2,10498, Note_on_c, 0, 70, 44
2,10650, Note_on_c, 0, 72, 0
2,10661, Note_on_c, 0, 75, 0
2,10674, Note_on_c, 0, 69, 54
2,10712, Note_on_c, 0, 70, 0
2,10959, Note_on_c, 0, 78, 75
2,10968, Note_on_c, 0, 70, 55
2,11009, Note_on_c, 0, 69, 0
2,11098, Note_on_c, 0, 77, 0
2,11367, Note_on_c, 0, 70, 0
2,11387, Note_on_c, 0, 72, 66
2,11802, Note_on_c, 0, 73, 67
2,11827, Note_on_c, 0, 72, 0
2,12253, Note_on_c, 0, 77, 63
2,12301, Note_on_c, 0, 78, 0
2,12457, Note_on_c, 0, 75, 64
2,12476, Note_on_c, 0, 77, 0
2,12663, Note_on_c, 0, 77, 72
2,12760, Note_on_c, 0, 75, 0
2,13077, Note_on_c, 0, 79, 76
2,13086, Note_on_c, 0, 72, 56
2,13149, Note_on_c, 0, 73, 0
2,13242, Note_on_c, 0, 77, 0
2,13276, Note_on_c, 0, 70, 65
2,13295, Note_on_c, 0, 72, 0
2,13521, Note_on_c, 0, 80, 80
2,13538, Note_on_c, 0, 72, 70
2,13573, Note_on_c, 0, 70, 0
2,13620, Note_on_c, 0, 79, 0
2,13928, Note_on_c, 0, 74, 72
2,13994, Note_on_c, 0, 72, 0
2,14389, Note_on_c, 0, 75, 73
2,14534, Note_on_c, 0, 74, 0
2,14767, Control_c, 0, 64, 13
2,14787, Control_c, 0, 64, 35
2,14808, Control_c, 0, 64, 52
2,14808, Note_on_c, 0, 79, 73
2,14824, Control_c, 0, 64, 62
2,14844, Control_c, 0, 64, 64
2,14857, Note_on_c, 0, 80, 0
2,14866, Control_c, 0, 64, 66
2,14881, Control_c, 0, 64, 70
2,14902, Control_c, 0, 64, 84
2,14922, Control_c, 0, 64, 127
2,15007, Note_on_c, 0, 77, 82
2,15060, Note_on_c, 0, 79, 0
2,15071, Note_on_c, 0, 75, 0
2,15246, Note_on_c, 0, 79, 80
2,15388, Note_on_c, 0, 77, 0
2,15515, Control_c, 0, 64, 92
2,15535, Control_c, 0, 64, 70
2,15553, Control_c, 0, 64, 59
2,15572, Control_c, 0, 64, 49
2,15592, Control_c, 0, 64, 52
2,15613, Control_c, 0, 64, 59
2,15626, Note_on_c, 0, 81, 79
2,15630, Control_c, 0, 64, 64
2,15641, Note_on_c, 0, 73, 71
2,15652, Control_c, 0, 64, 70
2,15670, Control_c, 0, 64, 83
2,15691, Control_c, 0, 64, 127
2,15703, Note_on_c, 0, 79, 0
2,15725, Note_on_c, 0, 73, 0
2,15790, Note_on_c, 0, 81, 0
2,15838, Note_on_c, 0, 72, 73
2,15989, Note_on_c, 0, 72, 0
2,16144, Note_on_c, 0, 58, 77
2,16150, Note_on_c, 0, 82, 64
2,16168, Control_c, 0, 64, 102
2,16185, Note_on_c, 0, 73, 56
2,16189, Control_c, 0, 64, 82
2,16209, Control_c, 0, 64, 69
2,16225, Control_c, 0, 64, 59
2,16245, Control_c, 0, 64, 44
2,16266, Control_c, 0, 64, 0
2,16637, Note_on_c, 0, 75, 60
2,16697, Note_on_c, 0, 73, 0
2,17038, Note_on_c, 0, 53, 74
2,17045, Note_on_c, 0, 75, 0
2,17072, Note_on_c, 0, 77, 60
2,17110, Note_on_c, 0, 58, 0
2,17143, Note_on_c, 0, 82, 0
2,17417, Control_c, 0, 64, 13
2,17437, Control_c, 0, 64, 32
2,17456, Control_c, 0, 64, 46
2,17474, Control_c, 0, 64, 57
2,17493, Control_c, 0, 64, 63
2,17514, Note_on_c, 0, 81, 63
2,17527, Note_on_c, 0, 53, 0
2,17534, Control_c, 0, 64, 64
2,17570, Control_c, 0, 64, 66
2,17588, Control_c, 0, 64, 68
2,17608, Control_c, 0, 64, 72
2,17628, Control_c, 0, 64, 79
2,17648, Control_c, 0, 64, 86
2,17665, Control_c, 0, 64, 91
2,17685, Control_c, 0, 64, 93
2,17694, Note_on_c, 0, 79, 77
2,17733, Note_on_c, 0, 81, 0
2,17781, Control_c, 0, 64, 92
2,17793, Note_on_c, 0, 77, 0
2,17820, Control_c, 0, 64, 91
2,17838, Control_c, 0, 64, 90
2,17860, Control_c, 0, 64, 89
2,17877, Control_c, 0, 64, 87
2,17896, Control_c, 0, 64, 85
2,17916, Note_on_c, 0, 81, 76
2,17920, Control_c, 0, 64, 84
2,17931, Note_on_c, 0, 79, 0
2,17934, Control_c, 0, 64, 82
2,17955, Control_c, 0, 64, 77
2,17975, Control_c, 0, 64, 71
2,17993, Control_c, 0, 64, 67
2,18013, Control_c, 0, 64, 64
2,18031, Control_c, 0, 64, 61
2,18050, Control_c, 0, 64, 57
2,18070, Control_c, 0, 64, 51
2,18090, Control_c, 0, 64, 43
2,18107, Control_c, 0, 64, 29
2,18126, Control_c, 0, 64, 0
2,18319, Note_on_c, 0, 66, 71
2,18340, Note_on_c, 0, 82, 73
2,18356, Note_on_c, 0, 75, 62
2,18378, Control_c, 0, 64, 31
2,18382, Note_on_c, 0, 81, 0
2,18396, Control_c, 0, 64, 47
2,18414, Control_c, 0, 64, 58
2,18438, Control_c, 0, 64, 63
2,18491, Control_c, 0, 64, 65
2,18505, Note_on_c, 0, 82, 0
2,18512, Control_c, 0, 64, 68
2,18530, Control_c, 0, 64, 75
2,18537, Note_on_c, 0, 75, 0
2,18542, Note_on_c, 0, 73, 72
2,18550, Control_c, 0, 64, 87
2,18572, Control_c, 0, 64, 107
2,18587, Control_c, 0, 64, 127
2,18751, Note_on_c, 0, 66, 0
2,18760, Control_c, 0, 64, 111
2,18765, Note_on_c, 0, 65, 54
2,18782, Control_c, 0, 64, 102
2,18789, Note_on_c, 0, 84, 79
2,18798, Control_c, 0, 64, 92
2,18802, Note_on_c, 0, 75, 66
2,18807, Note_on_c, 0, 73, 0
2,18818, Control_c, 0, 64, 78
2,18836, Control_c, 0, 64, 66
2,18856, Control_c, 0, 64, 53
2,18876, Control_c, 0, 64, 15
2,18896, Control_c, 0, 64, 0
2,19068, Control_c, 0, 64, 18
2,19087, Control_c, 0, 64, 29
2,19109, Control_c, 0, 64, 39
2,19123, Control_c, 0, 64, 49
2,19145, Control_c, 0, 64, 58
2,19163, Control_c, 0, 64, 62
2,19188, Note_on_c, 0, 65, 0
2,19192, Note_on_c, 0, 63, 68
2,19201, Control_c, 0, 64, 63
2,19221, Control_c, 0, 64, 65
2,19240, Control_c, 0, 64, 71
2,19260, Control_c, 0, 64, 86
2,19269, Note_on_c, 0, 84, 0
2,19278, Control_c, 0, 64, 127
2,19278, Note_on_c, 0, 63, 0
2,19299, Note_on_c, 0, 75, 0
2,19625, Note_on_c, 0, 53, 78
2,19633, Note_on_c, 0, 61, 66
2,19662, Control_c, 0, 64, 85
2,19681, Control_c, 0, 64, 64
2,19701, Control_c, 0, 64, 35
2,19722, Control_c, 0, 64, 0
2,19818, Control_c, 0, 64, 9
2,19836, Control_c, 0, 64, 38
2,19855, Control_c, 0, 64, 52
2,19874, Control_c, 0, 64, 61
2,19895, Control_c, 0, 64, 64
2,19931, Control_c, 0, 64, 65
2,19953, Control_c, 0, 64, 67
2,19971, Control_c, 0, 64, 73
2,19992, Control_c, 0, 64, 83
2,20008, Control_c, 0, 64, 102
2,20030, Control_c, 0, 64, 127
2,20034, Note_on_c, 0, 61, 0
2,20062, Note_on_c, 0, 60, 77
2,20062, Note_on_c, 0, 82, 76
2,20087, Note_on_c, 0, 77, 69
2,20100, Note_on_c, 0, 53, 0
2,20123, Note_on_c, 0, 60, 0
2,20238, Note_on_c, 0, 75, 77
2,20250, Note_on_c, 0, 81, 79
2,20281, Note_on_c, 0, 77, 0
2,20291, Note_on_c, 0, 82, 0
2,20304, Note_on_c, 0, 75, 0
2,20433, Control_c, 0, 64, 102
2,20450, Control_c, 0, 64, 73
2,20469, Control_c, 0, 64, 54
2,20491, Control_c, 0, 64, 0
2,20491, Note_on_c, 0, 46, 79
2,20499, Note_on_c, 0, 82, 81
2,20501, Note_on_c, 0, 73, 73
2,20506, Note_on_c, 0, 58, 62
2,20539, Note_on_c, 0, 81, 0
2,20605, Control_c, 0, 64, 21
2,20623, Control_c, 0, 64, 43
2,20643, Control_c, 0, 64, 58
2,20662, Control_c, 0, 64, 65
2,20668, Note_on_c, 0, 73, 0
2,20682, Control_c, 0, 64, 70
2,20682, Note_on_c, 0, 46, 0
2,20686, Note_on_c, 0, 58, 0
2,20701, Control_c, 0, 64, 76
2,20718, Control_c, 0, 64, 86
2,20737, Control_c, 0, 64, 112
2,20759, Control_c, 0, 64, 127
2,20917, Note_on_c, 0, 60, 66
2,20937, Note_on_c, 0, 80, 73
2,20941, Note_on_c, 0, 72, 65
2,21026, Note_on_c, 0, 82, 0
2,21028, Note_on_c, 0, 72, 0
2,21108, Note_on_c, 0, 61, 63
2,21128, Note_on_c, 0, 60, 0
2,21182, Control_c, 0, 64, 122
2,21199, Control_c, 0, 64, 101
2,21219, Control_c, 0, 64, 86
2,21237, Control_c, 0, 64, 76
2,21257, Control_c, 0, 64, 69
2,21277, Control_c, 0, 64, 64
2,21295, Control_c, 0, 64, 60
2,21312, Control_c, 0, 64, 57
2,21333, Control_c, 0, 64, 53
2,21344, Note_on_c, 0, 63, 66
2,21348, Note_on_c, 0, 78, 68
2,21352, Control_c, 0, 64, 41
2,21359, Note_on_c, 0, 70, 46
2,21366, Note_on_c, 0, 61, 0
2,21374, Control_c, 0, 64, 0
2,21415, Note_on_c, 0, 80, 0
2,21725, Note_on_c, 0, 63, 0
2,21738, Note_on_c, 0, 61, 65
2,21743, Note_on_c, 0, 65, 55
2,21743, Note_on_c, 0, 77, 74
2,21772, Note_on_c, 0, 78, 0
2,22073, Note_on_c, 0, 61, 0
2,22156, Note_on_c, 0, 75, 69
2,22158, Note_on_c, 0, 60, 66
2,22167, Note_on_c, 0, 65, 0
2,22242, Note_on_c, 0, 70, 0
2,22269, Note_on_c, 0, 77, 0
2,22569, Note_on_c, 0, 58, 59
2,22573, Note_on_c, 0, 60, 0
2,22573, Note_on_c, 0, 69, 59
2,22750, Note_on_c, 0, 69, 0
2,22759, Note_on_c, 0, 70, 63
2,22873, Note_on_c, 0, 58, 0
2,22968, Note_on_c, 0, 72, 66
2,22970, Note_on_c, 0, 57, 56
2,22975, Note_on_c, 0, 70, 0
2,22979, Note_on_c, 0, 65, 48
2,23023, Control_c, 0, 64, 13
2,23045, Control_c, 0, 64, 31
2,23061, Control_c, 0, 64, 44
2,23083, Control_c, 0, 64, 55
2,23100, Control_c, 0, 64, 62
2,23109, Note_on_c, 0, 57, 0
2,23122, Control_c, 0, 64, 65
2,23139, Control_c, 0, 64, 66
2,23157, Control_c, 0, 64, 69
2,23176, Control_c, 0, 64, 73
2,23196, Control_c, 0, 64, 79
2,23206, Note_on_c, 0, 65, 0
2,23215, Control_c, 0, 64, 86
2,23235, Control_c, 0, 64, 92
2,23253, Control_c, 0, 64, 93
2,23273, Note_on_c, 0, 72, 0
2,23291, Control_c, 0, 64, 92
2,23348, Control_c, 0, 64, 88
2,23368, Control_c, 0, 64, 75
2,23390, Control_c, 0, 64, 63
2,23395, Note_on_c, 0, 53, 44
2,23395, Note_on_c, 0, 75, 0
2,23395, Note_on_c, 0, 77, 69
2,23399, Note_on_c, 0, 69, 57
2,23408, Control_c, 0, 64, 50
2,23423, Note_on_c, 0, 63, 31
2,23425, Control_c, 0, 64, 36
2,23445, Control_c, 0, 64, 38
2,23464, Control_c, 0, 64, 45
2,23484, Control_c, 0, 64, 56
2,23502, Control_c, 0, 64, 64
2,23521, Control_c, 0, 64, 67
2,23542, Control_c, 0, 64, 71
2,23557, Note_on_c, 0, 63, 0
2,23562, Control_c, 0, 64, 78
2,23580, Control_c, 0, 64, 87
2,23585, Note_on_c, 0, 69, 0
2,23589, Note_on_c, 0, 78, 75
2,23598, Control_c, 0, 64, 99
2,23621, Control_c, 0, 64, 106
2,23621, Note_on_c, 0, 77, 0
2,23714, Control_c, 0, 64, 98
2,23733, Control_c, 0, 64, 77
2,23755, Control_c, 0, 64, 61
2,23771, Control_c, 0, 64, 38
2,23789, Note_on_c, 0, 53, 0
2,23793, Control_c, 0, 64, 0
2,23804, Note_on_c, 0, 77, 78
2,23804, Note_on_c, 0, 78, 0
2,23818, Note_on_c, 0, 55, 43
2,23836, Control_c, 0, 64, 12
2,23836, Note_on_c, 0, 61, 38
2,23836, Note_on_c, 0, 70, 50
2,23847, Control_c, 0, 64, 35
2,23869, Control_c, 0, 64, 53
2,23887, Control_c, 0, 64, 63
2,23905, Control_c, 0, 64, 68
2,23924, Control_c, 0, 64, 73
2,23943, Control_c, 0, 64, 80
2,23964, Control_c, 0, 64, 94
2,23981, Control_c, 0, 64, 127
2,24061, Control_c, 0, 64, 79
2,24079, Control_c, 0, 64, 62
2,24101, Control_c, 0, 64, 43
2,24121, Control_c, 0, 64, 35
2,24136, Control_c, 0, 64, 41
2,24154, Control_c, 0, 64, 54
2,24166, Note_on_c, 0, 61, 0
2,24177, Control_c, 0, 64, 64
2,24183, Note_on_c, 0, 75, 75
2,24191, Note_on_c, 0, 60, 51
2,24196, Control_c, 0, 64, 71
2,24200, Note_on_c, 0, 57, 59
2,24209, Note_on_c, 0, 70, 0
2,24209, Note_on_c, 0, 72, 68
2,24209, Note_on_c, 0, 77, 0
2,24216, Control_c, 0, 64, 82
2,24216, Note_on_c, 0, 55, 0
2,24236, Control_c, 0, 64, 103
2,24247, Note_on_c, 0, 60, 0
2,24251, Control_c, 0, 64, 127
2,24260, Note_on_c, 0, 72, 0
2,24280, Note_on_c, 0, 75, 0
2,24285, Note_on_c, 0, 57, 0
2,24599, Control_c, 0, 64, 106
2,24621, Control_c, 0, 64, 83
2,24638, Control_c, 0, 64, 67
2,24658, Note_on_c, 0, 46, 80
2,24663, Control_c, 0, 64, 53
2,24674, Note_on_c, 0, 73, 82
2,24678, Control_c, 0, 64, 26
2,24683, Note_on_c, 0, 58, 64
2,24690, Note_on_c, 0, 61, 55
2,24696, Control_c, 0, 64, 0
2,24854, Control_c, 0, 64, 13
2,24873, Control_c, 0, 64, 32
2,24890, Control_c, 0, 64, 39
2,24910, Control_c, 0, 64, 49
2,24932, Control_c, 0, 64, 57
2,24936, Note_on_c, 0, 61, 0
2,24949, Control_c, 0, 64, 62
2,24970, Control_c, 0, 64, 64
2,24990, Control_c, 0, 64, 65
2,25008, Control_c, 0, 64, 67
2,25025, Control_c, 0, 64, 70
2,25045, Control_c, 0, 64, 76
2,25053, Note_on_c, 0, 58, 0
2,25068, Control_c, 0, 64, 85
2,25083, Control_c, 0, 64, 100
2,25101, Control_c, 0, 64, 127
2,25149, Note_on_c, 0, 48, 53
2,25162, Note_on_c, 0, 70, 64
2,25186, Note_on_c, 0, 63, 48
2,25206, Note_on_c, 0, 48, 0
2,25225, Note_on_c, 0, 46, 0
2,25272, Note_on_c, 0, 63, 0
2,25298, Note_on_c, 0, 73, 0
2,25318, Note_on_c, 0, 70, 0
2,25347, Note_on_c, 0, 69, 60
2,25507, Control_c, 0, 64, 103
2,25523, Control_c, 0, 64, 91
2,25545, Control_c, 0, 64, 80
2,25553, Note_on_c, 0, 41, 80
2,25567, Control_c, 0, 64, 67
2,25574, Note_on_c, 0, 49, 62
2,25583, Note_on_c, 0, 70, 77
2,25585, Control_c, 0, 64, 54
2,25598, Control_c, 0, 64, 21
2,25602, Note_on_c, 0, 69, 0
2,25620, Control_c, 0, 64, 0
2,25620, Note_on_c, 0, 65, 35
2,25707, Note_on_c, 0, 65, 0
2,25707, Note_on_c, 0, 65, 12
2,25848, Control_c, 0, 64, 21
2,25868, Control_c, 0, 64, 37
2,25888, Control_c, 0, 64, 50
2,25905, Control_c, 0, 64, 59
2,25926, Control_c, 0, 64, 61
2,25930, Note_on_c, 0, 65, 0
2,25936, Note_on_c, 0, 49, 0
2,25963, Control_c, 0, 64, 62
2,25983, Control_c, 0, 64, 63
2,25987, Note_on_c, 0, 66, 64
2,26001, Control_c, 0, 64, 64
2,26005, Note_on_c, 0, 51, 57
2,26021, Control_c, 0, 64, 65
2,26036, Control_c, 0, 64, 67
2,26058, Control_c, 0, 64, 68
2,26067, Note_on_c, 0, 43, 23
2,26076, Control_c, 0, 64, 70
2,26096, Control_c, 0, 64, 71
2,26113, Control_c, 0, 64, 72
2,26125, Note_on_c, 0, 43, 0
2,26154, Note_on_c, 0, 41, 0
2,26267, Control_c, 0, 64, 73
2,26344, Control_c, 0, 64, 72
2,26386, Control_c, 0, 64, 71
2,26399, Note_on_c, 0, 51, 0
2,26407, Note_on_c, 0, 72, 71
2,26416, Note_on_c, 0, 53, 53
2,26424, Control_c, 0, 64, 70
2,26431, Note_on_c, 0, 60, 45
2,26442, Control_c, 0, 64, 69
2,26463, Control_c, 0, 64, 68
2,26478, Control_c, 0, 64, 67
2,26498, Control_c, 0, 64, 66
2,26516, Control_c, 0, 64, 65
2,26536, Control_c, 0, 64, 64
2,26541, Note_on_c, 0, 66, 0
2,26558, Control_c, 0, 64, 63
2,26573, Control_c, 0, 64, 62
2,26594, Control_c, 0, 64, 60
2,26615, Control_c, 0, 64, 58
2,26631, Control_c, 0, 64, 55
2,26650, Control_c, 0, 64, 51
2,26673, Control_c, 0, 64, 46
2,26694, Control_c, 0, 64, 39
2,26712, Control_c, 0, 64, 30
2,26732, Control_c, 0, 64, 15
2,26752, Control_c, 0, 64, 0
2,26808, Note_on_c, 0, 53, 0
2,26824, Note_on_c, 0, 54, 67
2,27272, Note_on_c, 0, 56, 54
2,27287, Note_on_c, 0, 68, 64
2,27292, Note_on_c, 0, 53, 52
2,27314, Note_on_c, 0, 65, 43
2,27370, Note_on_c, 0, 54, 0
2,27372, Note_on_c, 0, 60, 0
2,27475, Note_on_c, 0, 70, 0
2,27526, Note_on_c, 0, 72, 0
2,27696, Note_on_c, 0, 53, 0
2,27702, Note_on_c, 0, 51, 62
2,28116, Note_on_c, 0, 56, 0
2,28140, Note_on_c, 0, 50, 43
2,28140, Note_on_c, 0, 70, 60
2,28149, Note_on_c, 0, 51, 0
2,28149, Note_on_c, 0, 58, 35
2,28558, Note_on_c, 0, 62, 58
2,28558, Note_on_c, 0, 65, 0
2,28562, Note_on_c, 0, 46, 44
2,28607, Note_on_c, 0, 50, 0
2,28967, Note_on_c, 0, 48, 56
2,28967, Note_on_c, 0, 63, 60
2,28994, Note_on_c, 0, 62, 0
2,29019, Note_on_c, 0, 46, 0
2,29374, Note_on_c, 0, 50, 59
2,29383, Note_on_c, 0, 63, 0
2,29396, Note_on_c, 0, 65, 54
2,29450, Note_on_c, 0, 48, 0
2,29715, Note_on_c, 0, 68, 0
2,29795, Note_on_c, 0, 65, 0
2,29806, Note_on_c, 0, 66, 57
2,29813, Note_on_c, 0, 50, 0
2,29813, Note_on_c, 0, 51, 53
2,29882, Note_on_c, 0, 70, 0
2,30229, Note_on_c, 0, 63, 49
2,30242, Note_on_c, 0, 51, 0
2,30246, Note_on_c, 0, 53, 43
2,30362, Note_on_c, 0, 63, 0
2,30389, Note_on_c, 0, 62, 63
2,30501, Note_on_c, 0, 58, 0
2,30597, Note_on_c, 0, 62, 0
2,30606, Note_on_c, 0, 63, 67
2,30624, Note_on_c, 0, 51, 52
2,30639, Note_on_c, 0, 53, 0
2,30956, Control_c, 0, 64, 21
2,30973, Control_c, 0, 64, 36
2,30991, Control_c, 0, 64, 49
2,31012, Control_c, 0, 64, 60
2,31030, Note_on_c, 0, 75, 66
2,31036, Control_c, 0, 64, 67
2,31036, Note_on_c, 0, 51, 0
2,31041, Note_on_c, 0, 49, 43
2,31050, Control_c, 0, 64, 77
2,31070, Control_c, 0, 64, 110
2,31089, Control_c, 0, 64, 127
2,31150, Note_on_c, 0, 75, 0
2,31417, Control_c, 0, 64, 77
2,31426, Note_on_c, 0, 49, 0
2,31435, Control_c, 0, 64, 58
2,31445, Note_on_c, 0, 68, 68
2,31456, Control_c, 0, 64, 22
2,31475, Control_c, 0, 64, 0
2,31484, Note_on_c, 0, 48, 32
2,31484, Note_on_c, 0, 60, 42
2,31532, Control_c, 0, 64, 27
2,31551, Control_c, 0, 64, 51
2,31568, Control_c, 0, 64, 65
2,31585, Note_on_c, 0, 60, 0
2,31590, Control_c, 0, 64, 73
2,31608, Control_c, 0, 64, 87
2,31612, Note_on_c, 0, 48, 0
2,31629, Control_c, 0, 64, 102
2,31646, Control_c, 0, 64, 127
2,31895, Control_c, 0, 64, 112
2,31904, Note_on_c, 0, 48, 60
2,31911, Note_on_c, 0, 44, 60
2,31918, Control_c, 0, 64, 101
2,31934, Control_c, 0, 64, 91
2,31955, Control_c, 0, 64, 83
2,31974, Control_c, 0, 64, 77
2,31993, Control_c, 0, 64, 72
2,32011, Control_c, 0, 64, 66
2,32029, Control_c, 0, 64, 60
2,32049, Control_c, 0, 64, 54
2,32072, Control_c, 0, 64, 51
2,32088, Control_c, 0, 64, 49
2,32107, Control_c, 0, 64, 45
2,32128, Control_c, 0, 64, 37
2,32146, Control_c, 0, 64, 21
2,32166, Control_c, 0, 64, 0
2,32317, Note_on_c, 0, 49, 58
2,32335, Note_on_c, 0, 46, 62
2,32357, Note_on_c, 0, 48, 0
2,32420, Note_on_c, 0, 44, 0
2,32624, Note_on_c, 0, 63, 0
2,32713, Note_on_c, 0, 49, 0
2,32755, Note_on_c, 0, 48, 44
2,32755, Note_on_c, 0, 51, 44
2,32778, Note_on_c, 0, 46, 0
2,32982, Note_on_c, 0, 48, 0
2,33160, Note_on_c, 0, 61, 43
2,33168, Note_on_c, 0, 65, 50
2,33177, Note_on_c, 0, 53, 47
2,33182, Note_on_c, 0, 49, 37
2,33273, Note_on_c, 0, 66, 0
2,33278, Note_on_c, 0, 51, 0
2,33622, Note_on_c, 0, 53, 0
2,33626, Note_on_c, 0, 51, 60
2,33631, Note_on_c, 0, 61, 0
2,34045, Note_on_c, 0, 73, 75
2,34050, Note_on_c, 0, 70, 70
2,34065, Note_on_c, 0, 46, 36
2,34065, Note_on_c, 0, 53, 40
2,34100, Note_on_c, 0, 51, 0
2,34117, Note_on_c, 0, 68, 0
2,34124, Note_on_c, 0, 49, 0
2,34393, Control_c, 0, 64, 13
2,34410, Control_c, 0, 64, 19
2,34430, Control_c, 0, 64, 29
2,34450, Control_c, 0, 64, 41
2,34469, Control_c, 0, 64, 54
2,34469, Note_on_c, 0, 53, 0
2,34482, Note_on_c, 0, 54, 65
2,34491, Control_c, 0, 64, 63
2,34508, Control_c, 0, 64, 67
2,34526, Control_c, 0, 64, 74
2,34540, Note_on_c, 0, 46, 0
2,34545, Control_c, 0, 64, 86
2,34566, Control_c, 0, 64, 127
2,34664, Note_on_c, 0, 73, 0
2,34745, Note_on_c, 0, 54, 0
2,34838, Note_on_c, 0, 70, 0
2,34848, Note_on_c, 0, 53, 51
2,34852, Control_c, 0, 64, 122
2,34872, Note_on_c, 0, 56, 50
2,34876, Control_c, 0, 64, 102
2,34890, Control_c, 0, 64, 90
2,34890, Note_on_c, 0, 72, 80
2,34901, Note_on_c, 0, 68, 68
2,34910, Control_c, 0, 64, 76
2,34929, Control_c, 0, 64, 63
2,34949, Control_c, 0, 64, 43
2,34970, Control_c, 0, 64, 0
2,35023, Note_on_c, 0, 65, 0
2,35105, Control_c, 0, 64, 23
2,35123, Control_c, 0, 64, 40
2,35143, Control_c, 0, 64, 50
2,35160, Control_c, 0, 64, 59
2,35180, Control_c, 0, 64, 63
2,35197, Control_c, 0, 64, 65
2,35215, Control_c, 0, 64, 67
2,35237, Control_c, 0, 64, 70
2,35243, Note_on_c, 0, 56, 0
2,35256, Control_c, 0, 64, 78
2,35276, Control_c, 0, 64, 91
2,35296, Control_c, 0, 64, 127
2,35296, Note_on_c, 0, 58, 70
2,35414, Note_on_c, 0, 53, 0
2,35429, Note_on_c, 0, 58, 0
2,35449, Note_on_c, 0, 60, 74
2,35517, Note_on_c, 0, 60, 0
2,35757, Note_on_c, 0, 49, 37
2,35774, Control_c, 0, 64, 97
2,35779, Note_on_c, 0, 58, 40
2,35788, Note_on_c, 0, 77, 86
2,35797, Control_c, 0, 64, 73
2,35803, Note_on_c, 0, 73, 75
2,35808, Note_on_c, 0, 72, 0
2,35813, Control_c, 0, 64, 61
2,35835, Control_c, 0, 64, 45
2,35851, Control_c, 0, 64, 0
2,36046, Control_c, 0, 64, 11
2,36063, Control_c, 0, 64, 30
2,36081, Control_c, 0, 64, 51
2,36088, Note_on_c, 0, 68, 0
2,36102, Control_c, 0, 64, 64
2,36121, Control_c, 0, 64, 71
2,36142, Control_c, 0, 64, 83
2,36160, Control_c, 0, 64, 99
2,36178, Control_c, 0, 64, 127
2,36198, Note_on_c, 0, 58, 0
2,36202, Note_on_c, 0, 56, 59
2,36485, Control_c, 0, 64, 122
2,36503, Control_c, 0, 64, 108
2,36521, Control_c, 0, 64, 101
2,36542, Control_c, 0, 64, 95
2,36562, Control_c, 0, 64, 89
2,36584, Control_c, 0, 64, 83
2,36589, Note_on_c, 0, 49, 0
2,36589, Note_on_c, 0, 51, 46
2,36589, Note_on_c, 0, 56, 0
2,36605, Control_c, 0, 64, 76
2,36605, Note_on_c, 0, 70, 60
2,36620, Control_c, 0, 64, 70
2,36620, Note_on_c, 0, 54, 42
2,36639, Control_c, 0, 64, 62
2,36657, Control_c, 0, 64, 50
2,36675, Control_c, 0, 64, 14
2,36695, Control_c, 0, 64, 0
2,36830, Control_c, 0, 64, 32
2,36850, Control_c, 0, 64, 44
2,36872, Control_c, 0, 64, 57
2,36887, Control_c, 0, 64, 64
2,36909, Control_c, 0, 64, 69
2,36925, Control_c, 0, 64, 77
2,36945, Control_c, 0, 64, 93
2,36964, Control_c, 0, 64, 127
2,36980, Note_on_c, 0, 73, 0
2,37000, Note_on_c, 0, 54, 0
2,37000, Note_on_c, 0, 72, 73
2,37005, Control_c, 0, 64, 106
2,37017, Note_on_c, 0, 68, 56
2,37022, Control_c, 0, 64, 67
2,37022, Note_on_c, 0, 53, 49
2,37022, Note_on_c, 0, 56, 46
2,37039, Control_c, 0, 64, 40
2,37061, Control_c, 0, 64, 0
2,37061, Note_on_c, 0, 70, 0
2,37074, Note_on_c, 0, 77, 0
2,37123, Control_c, 0, 64, 42
2,37123, Note_on_c, 0, 51, 0
2,37138, Control_c, 0, 64, 62
2,37158, Control_c, 0, 64, 73
2,37158, Note_on_c, 0, 68, 0
2,37175, Control_c, 0, 64, 98
2,37197, Control_c, 0, 64, 127
2,37426, Control_c, 0, 64, 94
2,37439, Note_on_c, 0, 53, 0
2,37441, Control_c, 0, 64, 67
2,37445, Note_on_c, 0, 75, 66
2,37461, Control_c, 0, 64, 41
2,37472, Note_on_c, 0, 56, 0
2,37482, Note_on_c, 0, 66, 38
2,37486, Control_c, 0, 64, 0
2,37486, Note_on_c, 0, 54, 33
2,37486, Note_on_c, 0, 70, 41
2,37500, Note_on_c, 0, 58, 28
2,37511, Note_on_c, 0, 72, 0
2,37556, Control_c, 0, 64, 27
2,37576, Control_c, 0, 64, 46
2,37594, Control_c, 0, 64, 60
2,37616, Control_c, 0, 64, 65
2,37634, Control_c, 0, 64, 67
2,37655, Control_c, 0, 64, 69
2,37670, Control_c, 0, 64, 73
2,37690, Control_c, 0, 64, 82
2,37712, Control_c, 0, 64, 101
2,37730, Control_c, 0, 64, 127
2,37742, Note_on_c, 0, 66, 0
2,37851, Note_on_c, 0, 73, 75
2,37864, Control_c, 0, 64, 113
2,37873, Note_on_c, 0, 58, 0
2,37883, Control_c, 0, 64, 70
2,37883, Note_on_c, 0, 60, 47
2,37891, Note_on_c, 0, 65, 37
2,37902, Control_c, 0, 64, 54
2,37907, Note_on_c, 0, 75, 0
2,37922, Control_c, 0, 64, 35
2,37940, Control_c, 0, 64, 32
2,37959, Control_c, 0, 64, 42
2,37964, Note_on_c, 0, 65, 0
2,37977, Control_c, 0, 64, 55
2,37999, Control_c, 0, 64, 65
2,38006, Note_on_c, 0, 60, 0
2,38018, Control_c, 0, 64, 75
2,38037, Control_c, 0, 64, 89
2,38041, Note_on_c, 0, 70, 0
2,38051, Note_on_c, 0, 61, 57
2,38055, Control_c, 0, 64, 105
2,38075, Control_c, 0, 64, 127
2,38134, Control_c, 0, 64, 115
2,38152, Control_c, 0, 64, 108
2,38174, Control_c, 0, 64, 104
2,38190, Control_c, 0, 64, 101
2,38209, Control_c, 0, 64, 98
2,38229, Control_c, 0, 64, 95
2,38248, Control_c, 0, 64, 91
2,38266, Control_c, 0, 64, 88
2,38290, Control_c, 0, 64, 85
2,38290, Note_on_c, 0, 61, 0
2,38308, Control_c, 0, 64, 81
2,38308, Note_on_c, 0, 72, 78
2,38317, Note_on_c, 0, 56, 51
2,38325, Control_c, 0, 64, 75
2,38334, Note_on_c, 0, 68, 62
2,38343, Control_c, 0, 64, 68
2,38355, Note_on_c, 0, 63, 43
2,38361, Control_c, 0, 64, 63
2,38381, Control_c, 0, 64, 57
2,38399, Note_on_c, 0, 54, 0
2,38403, Control_c, 0, 64, 52
2,38420, Control_c, 0, 64, 46
2,38441, Control_c, 0, 64, 40
2,38462, Control_c, 0, 64, 30
2,38462, Note_on_c, 0, 73, 0
2,38477, Control_c, 0, 64, 0
2,38731, Note_on_c, 0, 53, 48
2,38914, Note_on_c, 0, 63, 0
2,39146, Note_on_c, 0, 73, 78
2,39166, Note_on_c, 0, 51, 43
2,39190, Note_on_c, 0, 65, 34
2,39202, Note_on_c, 0, 53, 0
2,39248, Note_on_c, 0, 72, 0
2,39434, Note_on_c, 0, 65, 0
2,39496, Control_c, 0, 64, 27
2,39513, Control_c, 0, 64, 42
2,39533, Control_c, 0, 64, 55
2,39553, Control_c, 0, 64, 61
2,39571, Control_c, 0, 64, 62
2,39589, Note_on_c, 0, 49, 51
2,39603, Note_on_c, 0, 56, 0
2,39611, Control_c, 0, 64, 63
2,39624, Note_on_c, 0, 51, 0
2,39631, Control_c, 0, 64, 65
2,39648, Control_c, 0, 64, 68
2,39670, Control_c, 0, 64, 72
2,39687, Control_c, 0, 64, 78
2,39706, Control_c, 0, 64, 85
2,39726, Control_c, 0, 64, 89
2,39747, Control_c, 0, 64, 91
2,39842, Control_c, 0, 64, 90
2,39862, Control_c, 0, 64, 88
2,39878, Control_c, 0, 64, 86
2,39898, Control_c, 0, 64, 84
2,39918, Control_c, 0, 64, 82
2,39936, Control_c, 0, 64, 78
2,39956, Control_c, 0, 64, 74
2,39975, Control_c, 0, 64, 68
2,39995, Control_c, 0, 64, 60
2,40014, Control_c, 0, 64, 48
2,40014, Note_on_c, 0, 63, 51
2,40016, Note_on_c, 0, 56, 47
2,40032, Control_c, 0, 64, 25
2,40053, Control_c, 0, 64, 0
2,40125, Note_on_c, 0, 73, 0
2,40146, Note_on_c, 0, 68, 0
2,40187, Control_c, 0, 64, 31
2,40200, Note_on_c, 0, 49, 0
2,40209, Control_c, 0, 64, 50
2,40225, Control_c, 0, 64, 63
2,40244, Control_c, 0, 64, 68
2,40267, Control_c, 0, 64, 72
2,40284, Control_c, 0, 64, 77
2,40304, Control_c, 0, 64, 84
2,40323, Control_c, 0, 64, 99
2,40340, Control_c, 0, 64, 127
2,40435, Note_on_c, 0, 70, 71
2,40799, Note_on_c, 0, 56, 0
2,40859, Control_c, 0, 64, 118
2,40879, Control_c, 0, 64, 106
2,40883, Note_on_c, 0, 72, 76
2,40890, Note_on_c, 0, 44, 45
2,40899, Control_c, 0, 64, 92
2,40916, Control_c, 0, 64, 78
2,40923, Note_on_c, 0, 68, 58
2,40927, Note_on_c, 0, 70, 0
2,40936, Control_c, 0, 64, 66
2,40956, Control_c, 0, 64, 54
2,40972, Control_c, 0, 64, 32
2,40992, Control_c, 0, 64, 0
2,41089, Control_c, 0, 64, 29
2,41111, Control_c, 0, 64, 45
2,41127, Control_c, 0, 64, 58
2,41147, Control_c, 0, 64, 64
2,41161, Note_on_c, 0, 63, 0
2,41165, Control_c, 0, 64, 65
2,41184, Control_c, 0, 64, 66
2,41204, Control_c, 0, 64, 67
2,41226, Control_c, 0, 64, 70
2,41242, Control_c, 0, 64, 75
2,41251, Note_on_c, 0, 72, 0
2,41262, Control_c, 0, 64, 84
2,41281, Control_c, 0, 64, 94
2,41302, Control_c, 0, 64, 103
2,41322, Control_c, 0, 64, 104
2,41330, Note_on_c, 0, 68, 0
2,41335, Note_on_c, 0, 66, 54
2,41340, Control_c, 0, 64, 105
2,41358, Control_c, 0, 64, 106
2,41362, Note_on_c, 0, 66, 0
2,41377, Control_c, 0, 64, 109
2,41434, Control_c, 0, 64, 110
2,41455, Control_c, 0, 64, 112
2,41569, Control_c, 0, 64, 111
2,41781, Control_c, 0, 64, 110
2,41785, Note_on_c, 0, 44, 0
2,41801, Control_c, 0, 64, 108
2,41819, Control_c, 0, 64, 106
2,41836, Control_c, 0, 64, 104
2,41856, Control_c, 0, 64, 102
2,41875, Control_c, 0, 64, 95
2,41895, Control_c, 0, 64, 87
2,41908, Note_on_c, 0, 73, 81
2,41917, Control_c, 0, 64, 78
2,41928, Note_on_c, 0, 49, 42
2,41935, Control_c, 0, 64, 67
2,41942, Note_on_c, 0, 61, 43
2,41942, Note_on_c, 0, 65, 54
2,41957, Control_c, 0, 64, 56
2,41971, Control_c, 0, 64, 18
2,41990, Control_c, 0, 64, 0
2,42108, Control_c, 0, 64, 14
2,42127, Control_c, 0, 64, 32
2,42144, Control_c, 0, 64, 43
2,42164, Control_c, 0, 64, 54
2,42184, Control_c, 0, 64, 61
2,42189, Note_on_c, 0, 61, 0
2,42202, Control_c, 0, 64, 65
2,42224, Control_c, 0, 64, 67
2,42244, Control_c, 0, 64, 68
2,42260, Control_c, 0, 64, 70
2,42278, Control_c, 0, 64, 73
2,42298, Control_c, 0, 64, 74
2,42318, Control_c, 0, 64, 75
2,42381, Note_on_c, 0, 65, 0
2,42385, Note_on_c, 0, 49, 0
2,42396, Control_c, 0, 64, 74
2,42408, Note_on_c, 0, 63, 47
2,42413, Note_on_c, 0, 60, 40
2,42473, Control_c, 0, 64, 73
2,42491, Control_c, 0, 64, 72
2,42495, Note_on_c, 0, 63, 0
2,42500, Note_on_c, 0, 63, 27
2,42511, Control_c, 0, 64, 71
2,42550, Control_c, 0, 64, 70
2,42605, Control_c, 0, 64, 69
2,42644, Control_c, 0, 64, 68
2,42664, Control_c, 0, 64, 67
2,42703, Control_c, 0, 64, 66
2,42740, Control_c, 0, 64, 65
2,42760, Control_c, 0, 64, 64
2,42778, Control_c, 0, 64, 63
2,42798, Control_c, 0, 64, 62
2,42820, Control_c, 0, 64, 60
2,42827, Note_on_c, 0, 68, 76
2,42836, Control_c, 0, 64, 58
2,42850, Note_on_c, 0, 61, 41
2,42850, Note_on_c, 0, 65, 50
2,42858, Control_c, 0, 64, 53
2,42858, Note_on_c, 0, 60, 0
2,42858, Note_on_c, 0, 63, 0
2,42875, Control_c, 0, 64, 47
2,42894, Control_c, 0, 64, 37
2,42915, Control_c, 0, 64, 20
2,42932, Control_c, 0, 64, 0
2,43193, Note_on_c, 0, 65, 0
2,43287, Note_on_c, 0, 66, 50
2,43291, Note_on_c, 0, 63, 45
2,43296, Note_on_c, 0, 61, 0
2,43432, Control_c, 0, 64, 11
2,43451, Control_c, 0, 64, 24
2,43471, Control_c, 0, 64, 34
2,43488, Control_c, 0, 64, 44
2,43506, Control_c, 0, 64, 54
2,43526, Control_c, 0, 64, 62
2,43535, Note_on_c, 0, 66, 0
2,43551, Control_c, 0, 64, 63
2,43566, Control_c, 0, 64, 64
2,43584, Note_on_c, 0, 68, 0
2,43604, Control_c, 0, 64, 65
2,43612, Note_on_c, 0, 73, 0
2,43623, Control_c, 0, 64, 67
2,43642, Control_c, 0, 64, 68
2,43662, Control_c, 0, 64, 71
2,43681, Control_c, 0, 64, 72
2,43720, Control_c, 0, 64, 71
2,43736, Note_on_c, 0, 65, 32
2,43740, Control_c, 0, 64, 70
2,43744, Note_on_c, 0, 68, 41
2,43759, Control_c, 0, 64, 69
2,43777, Control_c, 0, 64, 67
2,43795, Control_c, 0, 64, 65
2,43817, Control_c, 0, 64, 63
2,43832, Note_on_c, 0, 63, 0
2,43836, Control_c, 0, 64, 60
2,43857, Control_c, 0, 64, 58
2,43874, Control_c, 0, 64, 55
2,43892, Control_c, 0, 64, 51
2,43912, Control_c, 0, 64, 44
2,43931, Control_c, 0, 64, 32
2,43948, Control_c, 0, 64, 0
2,44177, Note_on_c, 0, 83, 61
2,44257, Control_c, 0, 64, 15
2,44277, Control_c, 0, 64, 21
2,44295, Control_c, 0, 64, 23
2,44305, Note_on_c, 0, 65, 0
2,44448, Control_c, 0, 64, 22
2,44486, Control_c, 0, 64, 21
2,44506, Control_c, 0, 64, 20
2,44546, Control_c, 0, 64, 18
2,44564, Control_c, 0, 64, 17
2,44582, Control_c, 0, 64, 16
2,44603, Control_c, 0, 64, 15
2,44607, Note_on_c, 0, 65, 35
2,44611, Note_on_c, 0, 82, 63
2,44625, Control_c, 0, 64, 13
2,44641, Control_c, 0, 64, 11
2,44641, Note_on_c, 0, 62, 35
2,44698, Note_on_c, 0, 68, 0
2,44716, Note_on_c, 0, 83, 0
2,44775, Control_c, 0, 64, 12
2,44795, Control_c, 0, 64, 13
2,44814, Control_c, 0, 64, 15
2,44871, Control_c, 0, 64, 16
2,44888, Control_c, 0, 64, 17
2,44909, Control_c, 0, 64, 20
2,44931, Control_c, 0, 64, 22
2,45006, Control_c, 0, 64, 23
2,45026, Control_c, 0, 64, 25
2,45044, Control_c, 0, 64, 27
2,45059, Note_on_c, 0, 80, 68
2,45063, Control_c, 0, 64, 30
2,45083, Control_c, 0, 64, 33
2,45101, Control_c, 0, 64, 35
2,45121, Control_c, 0, 64, 38
2,45141, Control_c, 0, 64, 40
2,45159, Control_c, 0, 64, 41
2,45171, Note_on_c, 0, 82, 0
2,45296, Control_c, 0, 64, 40
2,45466, Control_c, 0, 64, 41
2,45501, Note_on_c, 0, 70, 64
2,45506, Control_c, 0, 64, 42
2,45528, Control_c, 0, 64, 43
2,45532, Note_on_c, 0, 78, 62
2,45538, Note_on_c, 0, 63, 50
2,45543, Control_c, 0, 64, 45
2,45562, Control_c, 0, 64, 49
2,45582, Control_c, 0, 64, 55
2,45602, Control_c, 0, 64, 58
2,45607, Note_on_c, 0, 62, 0
2,45607, Note_on_c, 0, 80, 0
2,45611, Note_on_c, 0, 65, 0
2,45620, Control_c, 0, 64, 60
2,45659, Control_c, 0, 64, 62
2,45679, Control_c, 0, 64, 65
2,45698, Control_c, 0, 64, 70
2,45716, Control_c, 0, 64, 91
2,45736, Control_c, 0, 64, 127
2,45969, Note_on_c, 0, 63, 0
2,45976, Note_on_c, 0, 78, 0
2,45980, Note_on_c, 0, 77, 68
2,46411, Note_on_c, 0, 63, 65
2,46415, Note_on_c, 0, 78, 68
2,46426, Control_c, 0, 64, 113
2,46432, Note_on_c, 0, 77, 0
2,46447, Control_c, 0, 64, 87
2,46465, Control_c, 0, 64, 73
2,46483, Control_c, 0, 64, 66
2,46503, Control_c, 0, 64, 61
2,46522, Control_c, 0, 64, 58
2,46542, Control_c, 0, 64, 54
2,46560, Control_c, 0, 64, 47
2,46575, Note_on_c, 0, 70, 0
2,46580, Control_c, 0, 64, 37
2,46599, Control_c, 0, 64, 20
2,46618, Control_c, 0, 64, 0
2,46849, Note_on_c, 0, 80, 73
2,46865, Note_on_c, 0, 65, 52
2,47059, Note_on_c, 0, 78, 0
2,47284, Note_on_c, 0, 65, 0
2,47295, Note_on_c, 0, 82, 73
2,47300, Note_on_c, 0, 66, 56
2,47340, Note_on_c, 0, 80, 0
2,47353, Note_on_c, 0, 63, 0
2,47716, Control_c, 0, 64, 32
2,47716, Note_on_c, 0, 63, 54
2,47731, Control_c, 0, 64, 48
2,47735, Note_on_c, 0, 81, 65
2,47741, Note_on_c, 0, 82, 0
2,47752, Control_c, 0, 64, 59
2,47756, Note_on_c, 0, 78, 61
2,47774, Control_c, 0, 64, 64
2,47774, Note_on_c, 0, 66, 0
2,47790, Control_c, 0, 64, 65
2,47807, Control_c, 0, 64, 68
2,47828, Control_c, 0, 64, 74
2,47848, Control_c, 0, 64, 90
2,47866, Control_c, 0, 64, 127
2,47920, Note_on_c, 0, 82, 75
2,47995, Note_on_c, 0, 81, 0
2,48096, Control_c, 0, 64, 90
2,48116, Control_c, 0, 64, 64
2,48129, Note_on_c, 0, 69, 58
2,48136, Control_c, 0, 64, 34
2,48145, Note_on_c, 0, 78, 0
2,48145, Note_on_c, 0, 84, 77
2,48153, Control_c, 0, 64, 0
2,48162, Note_on_c, 0, 77, 66
2,48178, Note_on_c, 0, 63, 0
2,48178, Note_on_c, 0, 82, 0
2,48230, Control_c, 0, 64, 37
2,48250, Control_c, 0, 64, 57
2,48269, Control_c, 0, 64, 66
2,48289, Control_c, 0, 64, 72
2,48307, Control_c, 0, 64, 80
2,48328, Control_c, 0, 64, 90
2,48348, Control_c, 0, 64, 116
2,48365, Control_c, 0, 64, 127
2,48481, Control_c, 0, 64, 74
2,48493, Note_on_c, 0, 69, 0
2,48502, Control_c, 0, 64, 58
2,48519, Control_c, 0, 64, 43
2,48539, Control_c, 0, 64, 44
2,48539, Note_on_c, 0, 75, 64
2,48544, Note_on_c, 0, 67, 46
2,48554, Note_on_c, 0, 77, 0
2,48559, Control_c, 0, 64, 54
2,48566, Note_on_c, 0, 84, 0
2,48578, Control_c, 0, 64, 65
2,48599, Control_c, 0, 64, 76
2,48617, Control_c, 0, 64, 127
2,48661, Note_on_c, 0, 67, 0
2,48706, Note_on_c, 0, 65, 56
2,48733, Note_on_c, 0, 65, 0
2,49002, Note_on_c, 0, 58, 80
2,49019, Control_c, 0, 64, 108
2,49030, Note_on_c, 0, 70, 58
2,49030, Note_on_c, 0, 73, 70
2,49037, Control_c, 0, 64, 81
2,49053, Note_on_c, 0, 75, 0
2,49057, Control_c, 0, 64, 66
2,49077, Control_c, 0, 64, 57
2,49095, Control_c, 0, 64, 44
2,49116, Control_c, 0, 64, 14
2,49133, Control_c, 0, 64, 0
2,49291, Control_c, 0, 64, 8
2,49306, Control_c, 0, 64, 27
2,49326, Control_c, 0, 64, 42
2,49346, Control_c, 0, 64, 56
2,49363, Control_c, 0, 64, 64
2,49386, Control_c, 0, 64, 66
2,49401, Note_on_c, 0, 70, 0
2,49422, Control_c, 0, 64, 67
2,49441, Control_c, 0, 64, 70
2,49461, Control_c, 0, 64, 77
2,49465, Note_on_c, 0, 77, 69
2,49465, Note_on_c, 0, 82, 78
2,49479, Note_on_c, 0, 73, 0
2,49483, Control_c, 0, 64, 91
2,49497, Control_c, 0, 64, 127
2,49844, Note_on_c, 0, 58, 0
2,49891, Note_on_c, 0, 53, 71
2,49916, Note_on_c, 0, 75, 61
2,49916, Note_on_c, 0, 77, 0
2,49916, Note_on_c, 0, 82, 0
2,49936, Note_on_c, 0, 72, 57
2,49941, Control_c, 0, 64, 97
2,49960, Control_c, 0, 64, 77
2,49977, Control_c, 0, 64, 63
2,49997, Control_c, 0, 64, 42
2,50017, Control_c, 0, 64, 0
2,50130, Control_c, 0, 64, 15
2,50153, Control_c, 0, 64, 40
2,50172, Control_c, 0, 64, 56
2,50189, Control_c, 0, 64, 66
2,50209, Control_c, 0, 64, 73
2,50231, Control_c, 0, 64, 93
2,50247, Control_c, 0, 64, 127
2,50294, Note_on_c, 0, 53, 0
2,50337, Note_on_c, 0, 81, 75
2,50350, Note_on_c, 0, 72, 0
2,50449, Note_on_c, 0, 81, 0
2,50474, Note_on_c, 0, 75, 0
2,50709, Control_c, 0, 64, 109
2,50726, Control_c, 0, 64, 91
2,50739, Note_on_c, 0, 82, 77
2,50746, Control_c, 0, 64, 81
2,50755, Note_on_c, 0, 74, 65
2,50768, Control_c, 0, 64, 74
2,50773, Note_on_c, 0, 70, 54
2,50784, Control_c, 0, 64, 68
2,50807, Control_c, 0, 64, 64
2,50823, Control_c, 0, 64, 60
2,50843, Control_c, 0, 64, 57
2,50860, Control_c, 0, 64, 53
2,50880, Control_c, 0, 64, 47
2,50899, Control_c, 0, 64, 39
2,50918, Control_c, 0, 64, 27
2,50938, Control_c, 0, 64, 8
2,50957, Control_c, 0, 64, 0
2,51151, Note_on_c, 0, 66, 72
2,51269, Note_on_c, 0, 74, 0
2,51617, Note_on_c, 0, 75, 66
2,51638, Note_on_c, 0, 65, 53
2,51647, Note_on_c, 0, 66, 0
2,52039, Note_on_c, 0, 63, 60
2,52093, Note_on_c, 0, 65, 0
2,52469, Note_on_c, 0, 77, 68
2,52485, Note_on_c, 0, 62, 53
2,52514, Note_on_c, 0, 63, 0
2,52593, Note_on_c, 0, 82, 0
2,52604, Note_on_c, 0, 75, 0
2,52871, Note_on_c, 0, 62, 0
2,52886, Note_on_c, 0, 58, 62
2,53327, Note_on_c, 0, 60, 55
2,53331, Note_on_c, 0, 80, 73
2,53379, Note_on_c, 0, 58, 0
2,53442, Note_on_c, 0, 77, 0
2,53492, Control_c, 0, 64, 13
2,53510, Control_c, 0, 64, 14
2,53529, Note_on_c, 0, 70, 0
2,53533, Control_c, 0, 64, 17
2,53548, Control_c, 0, 64, 23
2,53568, Control_c, 0, 64, 33
2,53588, Control_c, 0, 64, 44
2,53606, Control_c, 0, 64, 54
2,53625, Control_c, 0, 64, 60
2,53648, Control_c, 0, 64, 62
2,53666, Control_c, 0, 64, 63
2,53683, Control_c, 0, 64, 64
2,53703, Control_c, 0, 64, 70
2,53720, Note_on_c, 0, 60, 0
2,53724, Control_c, 0, 64, 82
2,53744, Control_c, 0, 64, 127
2,53744, Note_on_c, 0, 62, 72
2,53796, Note_on_c, 0, 62, 0
2,54179, Note_on_c, 0, 51, 80
2,54184, Control_c, 0, 64, 90
2,54201, Control_c, 0, 64, 67
2,54201, Note_on_c, 0, 63, 65
2,54207, Note_on_c, 0, 78, 74
2,54223, Control_c, 0, 64, 48
2,54223, Note_on_c, 0, 70, 57
2,54241, Control_c, 0, 64, 0
2,54373, Control_c, 0, 64, 28
2,54397, Control_c, 0, 64, 47
2,54415, Control_c, 0, 64, 59
2,54432, Control_c, 0, 64, 66
2,54454, Control_c, 0, 64, 71
2,54454, Note_on_c, 0, 63, 0
2,54471, Control_c, 0, 64, 83
2,54491, Control_c, 0, 64, 113
2,54509, Control_c, 0, 64, 127
2,54657, Note_on_c, 0, 75, 68
2,54662, Note_on_c, 0, 53, 61
2,54681, Note_on_c, 0, 80, 0
2,54697, Note_on_c, 0, 51, 0
2,54704, Note_on_c, 0, 53, 0
2,54733, Note_on_c, 0, 70, 0
2,54841, Note_on_c, 0, 74, 77
2,54845, Note_on_c, 0, 75, 0
2,55004, Note_on_c, 0, 78, 0
2,55030, Control_c, 0, 64, 109
2,55044, Note_on_c, 0, 46, 78
2,55048, Control_c, 0, 64, 87
2,55066, Control_c, 0, 64, 69
2,55070, Note_on_c, 0, 54, 59
2,55074, Note_on_c, 0, 75, 79
2,55085, Control_c, 0, 64, 49
2,55090, Note_on_c, 0, 70, 59
2,55106, Control_c, 0, 64, 0
2,55117, Note_on_c, 0, 74, 0
2,55316, Control_c, 0, 64, 29
2,55334, Control_c, 0, 64, 39
2,55353, Control_c, 0, 64, 52
2,55373, Control_c, 0, 64, 60
2,55393, Control_c, 0, 64, 63
2,55412, Control_c, 0, 64, 64
2,55431, Control_c, 0, 64, 65
2,55453, Control_c, 0, 64, 66
2,55458, Note_on_c, 0, 54, 0
2,55469, Control_c, 0, 64, 67
2,55473, Note_on_c, 0, 56, 67
2,55489, Control_c, 0, 64, 69
2,55507, Control_c, 0, 64, 73
2,55528, Control_c, 0, 64, 79
2,55548, Control_c, 0, 64, 85
2,55565, Control_c, 0, 64, 90
2,55585, Control_c, 0, 64, 92
2,55616, Note_on_c, 0, 46, 0
2,55720, Control_c, 0, 64, 91
2,55737, Control_c, 0, 64, 90
2,55759, Control_c, 0, 64, 89
2,55776, Control_c, 0, 64, 88
2,55798, Control_c, 0, 64, 87
2,55814, Control_c, 0, 64, 85
2,55834, Control_c, 0, 64, 82
2,55854, Control_c, 0, 64, 79
2,55873, Control_c, 0, 64, 77
2,55892, Control_c, 0, 64, 74
2,55901, Note_on_c, 0, 77, 78
2,55908, Note_on_c, 0, 56, 0
2,55908, Note_on_c, 0, 58, 65
2,55914, Control_c, 0, 64, 70
2,55932, Control_c, 0, 64, 66
2,55950, Control_c, 0, 64, 62
2,55969, Control_c, 0, 64, 57
2,55987, Control_c, 0, 64, 50
2,56010, Control_c, 0, 64, 41
2,56026, Control_c, 0, 64, 26
2,56044, Control_c, 0, 64, 0
2,56305, Note_on_c, 0, 59, 75
2,56310, Note_on_c, 0, 58, 0
2,56714, Note_on_c, 0, 59, 0
2,56727, Note_on_c, 0, 61, 56
2,56731, Note_on_c, 0, 58, 58
2,56743, Note_on_c, 0, 76, 74
2,56760, Note_on_c, 0, 73, 60
2,56785, Note_on_c, 0, 75, 0
2,56796, Note_on_c, 0, 77, 0
2,57106, Note_on_c, 0, 58, 0
2,57133, Note_on_c, 0, 56, 65
2,57467, Note_on_c, 0, 61, 0
2,57512, Note_on_c, 0, 56, 0
2,57539, Note_on_c, 0, 63, 33
2,57559, Note_on_c, 0, 55, 43
2,57563, Control_c, 0, 64, 11
2,57563, Note_on_c, 0, 75, 61
2,57573, Note_on_c, 0, 73, 0
2,57582, Control_c, 0, 64, 16
2,57599, Control_c, 0, 64, 26
2,57608, Note_on_c, 0, 76, 0
2,57619, Control_c, 0, 64, 37
2,57637, Control_c, 0, 64, 49
2,57659, Control_c, 0, 64, 59
2,57663, Note_on_c, 0, 55, 0
2,57676, Control_c, 0, 64, 62
2,57698, Note_on_c, 0, 75, 0
2,57716, Control_c, 0, 64, 64
2,57734, Control_c, 0, 64, 67
2,57752, Control_c, 0, 64, 75
2,57774, Control_c, 0, 64, 98
2,57790, Control_c, 0, 64, 127
2,57844, Note_on_c, 0, 63, 0
2,57978, Note_on_c, 0, 55, 43
2,57982, Note_on_c, 0, 75, 61
2,58002, Control_c, 0, 64, 96
2,58018, Note_on_c, 0, 51, 34
2,58025, Control_c, 0, 64, 72
2,58040, Control_c, 0, 64, 60
2,58060, Control_c, 0, 64, 52
2,58078, Control_c, 0, 64, 53
2,58100, Control_c, 0, 64, 59
2,58117, Control_c, 0, 64, 64
2,58135, Control_c, 0, 64, 68
2,58155, Control_c, 0, 64, 75
2,58177, Control_c, 0, 64, 91
2,58189, Note_on_c, 0, 76, 72
2,58199, Control_c, 0, 64, 127
2,58199, Note_on_c, 0, 75, 0
2,58386, Control_c, 0, 64, 94
2,58399, Note_on_c, 0, 55, 0
2,58399, Note_on_c, 0, 75, 77
2,58406, Control_c, 0, 64, 67
2,58406, Note_on_c, 0, 53, 55
2,58406, Note_on_c, 0, 56, 56
2,58424, Control_c, 0, 64, 51
2,58437, Note_on_c, 0, 51, 0
2,58443, Control_c, 0, 64, 29
2,58466, Control_c, 0, 64, 19
2,58480, Control_c, 0, 64, 24
2,58502, Control_c, 0, 64, 35
2,58520, Control_c, 0, 64, 49
2,58539, Control_c, 0, 64, 59
2,58555, Note_on_c, 0, 76, 0
2,58557, Control_c, 0, 64, 64
2,58576, Control_c, 0, 64, 67
2,58598, Control_c, 0, 64, 70
2,58616, Control_c, 0, 64, 76
2,58635, Control_c, 0, 64, 83
2,58655, Control_c, 0, 64, 97
2,58672, Control_c, 0, 64, 127
2,58770, Control_c, 0, 64, 89
2,58787, Note_on_c, 0, 73, 83
2,58789, Control_c, 0, 64, 62
2,58794, Note_on_c, 0, 53, 0
2,58794, Note_on_c, 0, 56, 0
2,58803, Note_on_c, 0, 55, 59
2,58803, Note_on_c, 0, 58, 50
2,58807, Control_c, 0, 64, 41
2,58829, Control_c, 0, 64, 18
2,58846, Control_c, 0, 64, 27
2,58866, Control_c, 0, 64, 43
2,58886, Control_c, 0, 64, 59
2,58900, Note_on_c, 0, 75, 0
2,58904, Control_c, 0, 64, 69
2,58924, Control_c, 0, 64, 82
2,58945, Control_c, 0, 64, 127
2,58945, Note_on_c, 0, 70, 0
2,58976, Note_on_c, 0, 55, 0
2,59185, Note_on_c, 0, 58, 0
2,59194, Note_on_c, 0, 71, 82
2,59198, Control_c, 0, 64, 78
2,59198, Note_on_c, 0, 59, 66
2,59203, Note_on_c, 0, 68, 69
2,59214, Control_c, 0, 64, 49
2,59214, Note_on_c, 0, 56, 59
2,59230, Control_c, 0, 64, 0
2,59308, Control_c, 0, 64, 33
2,59327, Control_c, 0, 64, 55
2,59350, Control_c, 0, 64, 68
2,59350, Note_on_c, 0, 73, 0
2,59364, Control_c, 0, 64, 79
2,59374, Note_on_c, 0, 59, 0
2,59385, Control_c, 0, 64, 107
2,59391, Note_on_c, 0, 68, 0
2,59407, Control_c, 0, 64, 127
2,59430, Note_on_c, 0, 56, 0
2,59610, Note_on_c, 0, 54, 63
2,59610, Note_on_c, 0, 58, 68
2,59610, Note_on_c, 0, 70, 86
2,59615, Control_c, 0, 64, 79
2,59635, Control_c, 0, 64, 47
2,59654, Control_c, 0, 64, 0
2,59654, Note_on_c, 0, 71, 0
2,59710, Control_c, 0, 64, 30
2,59729, Control_c, 0, 64, 55
2,59748, Control_c, 0, 64, 71
2,59770, Control_c, 0, 64, 113
2,59788, Control_c, 0, 64, 127
2,59801, Note_on_c, 0, 54, 0
2,59873, Note_on_c, 0, 58, 0
2,60044, Note_on_c, 0, 70, 0
2,60065, Note_on_c, 0, 52, 59
2,60065, Note_on_c, 0, 56, 57
2,60080, Note_on_c, 0, 80, 77
2,60096, Note_on_c, 0, 76, 70
2,60109, Note_on_c, 0, 71, 58
2,60114, Control_c, 0, 64, 83
2,60133, Control_c, 0, 64, 60
2,60153, Control_c, 0, 64, 0
2,60267, Control_c, 0, 64, 29
2,60289, Control_c, 0, 64, 45
2,60304, Control_c, 0, 64, 57
2,60324, Control_c, 0, 64, 63
2,60344, Control_c, 0, 64, 65
2,60365, Control_c, 0, 64, 66
2,60381, Control_c, 0, 64, 67
2,60402, Control_c, 0, 64, 71
2,60421, Control_c, 0, 64, 80
2,60434, Note_on_c, 0, 56, 0
2,60443, Control_c, 0, 64, 96
2,60459, Control_c, 0, 64, 127
2,60463, Note_on_c, 0, 52, 0
2,60468, Note_on_c, 0, 51, 70
2,60472, Note_on_c, 0, 54, 66
2,60554, Note_on_c, 0, 54, 0
2,60558, Note_on_c, 0, 51, 0
2,60843, Control_c, 0, 64, 105
2,60861, Control_c, 0, 64, 83
2,60881, Control_c, 0, 64, 72
2,60899, Note_on_c, 0, 52, 71
2,60903, Control_c, 0, 64, 64
2,60910, Note_on_c, 0, 49, 56
2,60920, Control_c, 0, 64, 57
2,60940, Control_c, 0, 64, 50
2,60940, Note_on_c, 0, 70, 65
2,60958, Control_c, 0, 64, 41
2,60967, Note_on_c, 0, 71, 0
2,60976, Control_c, 0, 64, 23
2,60996, Control_c, 0, 64, 0
2,61119, Note_on_c, 0, 75, 73
2,61321, Note_on_c, 0, 80, 0
2,61326, Note_on_c, 0, 73, 78
2,61326, Note_on_c, 0, 76, 0
2,61337, Note_on_c, 0, 46, 65
2,61377, Note_on_c, 0, 49, 0
2,61382, Note_on_c, 0, 75, 0
2,61717, Note_on_c, 0, 51, 62
2,61722, Note_on_c, 0, 52, 0
2,61772, Note_on_c, 0, 79, 88
2,61803, Control_c, 0, 64, 24
2,61823, Control_c, 0, 64, 35
2,61827, Note_on_c, 0, 46, 0
2,61845, Control_c, 0, 64, 42
2,61859, Control_c, 0, 64, 49
2,61879, Control_c, 0, 64, 56
2,61899, Control_c, 0, 64, 60
2,61921, Control_c, 0, 64, 62
2,61937, Control_c, 0, 64, 64
2,61957, Control_c, 0, 64, 66
2,61975, Control_c, 0, 64, 70
2,61995, Control_c, 0, 64, 78
2,62018, Control_c, 0, 64, 95
2,62018, Note_on_c, 0, 76, 58
2,62034, Control_c, 0, 64, 127
2,62126, Note_on_c, 0, 73, 0
2,62196, Note_on_c, 0, 39, 48
2,62200, Note_on_c, 0, 75, 67
2,62261, Note_on_c, 0, 70, 0
2,62300, Note_on_c, 0, 79, 0
2,62311, Note_on_c, 0, 76, 0
2,62373, Note_on_c, 0, 73, 74
2,62393, Note_on_c, 0, 75, 0
2,62418, Note_on_c, 0, 73, 0
2,62463, Note_on_c, 0, 51, 0
2,62802, Control_c, 0, 64, 86
2,62822, Control_c, 0, 64, 66
2,62826, Note_on_c, 0, 39, 0
2,62830, Note_on_c, 0, 44, 54
2,62830, Note_on_c, 0, 80, 84
2,62841, Control_c, 0, 64, 48
2,62852, Note_on_c, 0, 72, 58
2,62860, Control_c, 0, 64, 0
2,62871, Note_on_c, 0, 68, 72
2,63015, Control_c, 0, 64, 35
2,63031, Control_c, 0, 64, 45
2,63053, Control_c, 0, 64, 53
2,63070, Control_c, 0, 64, 61
2,63090, Control_c, 0, 64, 65
2,63109, Control_c, 0, 64, 69
2,63127, Control_c, 0, 64, 79
2,63146, Control_c, 0, 64, 106
2,63167, Control_c, 0, 64, 127
2,63193, Note_on_c, 0, 68, 0
2,63252, Note_on_c, 0, 80, 0
2,63272, Note_on_c, 0, 72, 0
2,63389, Note_on_c, 0, 44, 0
2,63389, Note_on_c, 0, 56, 56
2,63816, Note_on_c, 0, 61, 74
2,63835, Note_on_c, 0, 46, 47
2,63835, Note_on_c, 0, 54, 53
2,63839, Note_on_c, 0, 56, 0
2,63861, Control_c, 0, 64, 102
2,63878, Control_c, 0, 64, 91
2,63896, Control_c, 0, 64, 80
2,63914, Control_c, 0, 64, 72
2,63937, Control_c, 0, 64, 65
2,63955, Control_c, 0, 64, 60
2,63973, Control_c, 0, 64, 56
2,63991, Control_c, 0, 64, 54
2,64011, Control_c, 0, 64, 52
2,64031, Control_c, 0, 64, 47
2,64048, Control_c, 0, 64, 40
2,64069, Control_c, 0, 64, 29
2,64073, Note_on_c, 0, 46, 0
2,64090, Control_c, 0, 64, 15
2,64110, Control_c, 0, 64, 0
2,64221, Note_on_c, 0, 44, 52
2,64235, Note_on_c, 0, 53, 53
2,64257, Note_on_c, 0, 54, 0
2,64429, Note_on_c, 0, 44, 0
2,64621, Note_on_c, 0, 61, 0
2,64643, Note_on_c, 0, 51, 48
2,64654, Note_on_c, 0, 42, 46
2,64658, Note_on_c, 0, 53, 0
2,65022, Note_on_c, 0, 51, 0
2,65101, Note_on_c, 0, 42, 0
2,65131, Note_on_c, 0, 49, 36
2,65136, Note_on_c, 0, 77, 58
2,65546, Note_on_c, 0, 58, 36
2,65557, Note_on_c, 0, 75, 52
2,65581, Note_on_c, 0, 54, 35
2,65604, Note_on_c, 0, 77, 0
2,65617, Note_on_c, 0, 49, 0
2,65979, Note_on_c, 0, 73, 60
2,66026, Note_on_c, 0, 75, 0
2,66412, Note_on_c, 0, 56, 34
2,66421, Note_on_c, 0, 72, 56
2,66421, Note_on_c, 0, 73, 0
2,66514, Note_on_c, 0, 58, 0
2,66833, Note_on_c, 0, 68, 60
2,66859, Note_on_c, 0, 54, 0
2,66877, Note_on_c, 0, 53, 26
2,66877, Note_on_c, 0, 66, 37
2,66916, Note_on_c, 0, 72, 0
2,67222, Note_on_c, 0, 56, 0
2,67255, Note_on_c, 0, 66, 0
2,67258, Note_on_c, 0, 70, 69
2,67271, Note_on_c, 0, 54, 42
2,67289, Note_on_c, 0, 53, 0
2,67322, Note_on_c, 0, 68, 0
2,67326, Note_on_c, 0, 65, 23
2,67612, Note_on_c, 0, 65, 0
2,67621, Control_c, 0, 64, 16
2,67641, Control_c, 0, 64, 25
2,67658, Control_c, 0, 64, 35
2,67667, Note_on_c, 0, 72, 75
2,67672, Note_on_c, 0, 63, 55
2,67679, Control_c, 0, 64, 47
2,67683, Note_on_c, 0, 70, 0
2,67701, Control_c, 0, 64, 59
2,67701, Note_on_c, 0, 56, 39
2,67719, Control_c, 0, 64, 64
2,67736, Control_c, 0, 64, 67
2,67741, Note_on_c, 0, 54, 0
2,67754, Control_c, 0, 64, 72
2,67773, Control_c, 0, 64, 79
2,67794, Control_c, 0, 64, 93
2,67803, Note_on_c, 0, 72, 0
2,67811, Control_c, 0, 64, 127
2,67832, Note_on_c, 0, 63, 0
2,68062, Control_c, 0, 64, 120
2,68082, Control_c, 0, 64, 104
2,68100, Control_c, 0, 64, 95
2,68111, Note_on_c, 0, 73, 72
2,68122, Control_c, 0, 64, 86
2,68134, Note_on_c, 0, 58, 45
2,68141, Control_c, 0, 64, 78
2,68143, Note_on_c, 0, 61, 48
2,68158, Control_c, 0, 64, 69
2,68178, Control_c, 0, 64, 64
2,68195, Control_c, 0, 64, 58
2,68216, Control_c, 0, 64, 50
2,68234, Note_on_c, 0, 56, 0
2,68238, Control_c, 0, 64, 41
2,68253, Control_c, 0, 64, 27
2,68274, Control_c, 0, 64, 0
2,68545, Note_on_c, 0, 66, 69
2,68556, Note_on_c, 0, 61, 0
2,68963, Note_on_c, 0, 58, 0
2,68972, Note_on_c, 0, 54, 41
2,69395, Note_on_c, 0, 65, 48
2,69513, Note_on_c, 0, 66, 0
2,69841, Note_on_c, 0, 63, 46
2,69846, Note_on_c, 0, 56, 33
2,69899, Note_on_c, 0, 54, 0
2,69961, Note_on_c, 0, 65, 0
2,70239, Note_on_c, 0, 56, 0
2,70239, Note_on_c, 0, 58, 45
2,70655, Note_on_c, 0, 56, 40
2,70673, Note_on_c, 0, 72, 55
2,70725, Note_on_c, 0, 58, 0
2,70775, Note_on_c, 0, 63, 0
2,70791, Note_on_c, 0, 73, 0
2,71067, Note_on_c, 0, 54, 41
2,71094, Note_on_c, 0, 56, 0
2,71526, Note_on_c, 0, 73, 62
2,71540, Note_on_c, 0, 72, 0
2,71549, Note_on_c, 0, 53, 40
2,71568, Note_on_c, 0, 54, 0
2,71574, Note_on_c, 0, 56, 21
2,71957, Note_on_c, 0, 71, 50
2,72014, Note_on_c, 0, 73, 0
2,72118, Note_on_c, 0, 70, 63
2,72121, Note_on_c, 0, 71, 0
2,72329, Note_on_c, 0, 70, 0
2,72329, Note_on_c, 0, 71, 62
2,72343, Note_on_c, 0, 68, 56
2,72670, Note_on_c, 0, 53, 0
2,72708, Note_on_c, 0, 51, 38
2,72723, Note_on_c, 0, 66, 49
2,72788, Note_on_c, 0, 68, 0
2,72891, Note_on_c, 0, 51, 0
2,72896, Note_on_c, 0, 66, 0
2,72904, Note_on_c, 0, 49, 34
2,72920, Note_on_c, 0, 65, 43
2,73087, Note_on_c, 0, 65, 0
2,73098, Note_on_c, 0, 49, 0
2,73102, Note_on_c, 0, 51, 42
2,73125, Note_on_c, 0, 66, 52
2,73490, Note_on_c, 0, 61, 47
2,73497, Note_on_c, 0, 70, 60
2,73504, Note_on_c, 0, 53, 43
2,73508, Note_on_c, 0, 66, 0
2,73541, Note_on_c, 0, 51, 0
2,73669, Note_on_c, 0, 68, 71
2,73686, Note_on_c, 0, 71, 0
2,73695, Note_on_c, 0, 70, 0
2,73887, Note_on_c, 0, 56, 0
2,73898, Note_on_c, 0, 53, 0
2,73898, Note_on_c, 0, 70, 70
2,73918, Note_on_c, 0, 61, 0
2,73920, Note_on_c, 0, 54, 40
2,73938, Note_on_c, 0, 68, 0
2,74032, Control_c, 0, 64, 15
2,74052, Control_c, 0, 64, 29
2,74071, Control_c, 0, 64, 40
2,74091, Control_c, 0, 64, 50
2,74113, Control_c, 0, 64, 59
2,74128, Control_c, 0, 64, 64
2,74148, Control_c, 0, 64, 66
2,74169, Control_c, 0, 64, 68
2,74187, Control_c, 0, 64, 73
2,74204, Control_c, 0, 64, 84
2,74226, Control_c, 0, 64, 127
2,74261, Note_on_c, 0, 72, 73
2,74290, Note_on_c, 0, 63, 45
2,74290, Note_on_c, 0, 70, 0
2,74328, Note_on_c, 0, 72, 0
2,74716, Note_on_c, 0, 73, 76
2,74731, Note_on_c, 0, 56, 46
2,74764, Control_c, 0, 64, 106
2,74782, Control_c, 0, 64, 95
2,74786, Note_on_c, 0, 63, 0
2,74800, Control_c, 0, 64, 85
2,74819, Control_c, 0, 64, 76
2,74840, Control_c, 0, 64, 67
2,74846, Note_on_c, 0, 54, 0
2,74859, Control_c, 0, 64, 60
2,74877, Control_c, 0, 64, 50
2,74897, Control_c, 0, 64, 38
2,74917, Control_c, 0, 64, 24
2,74934, Control_c, 0, 64, 0
2,75104, Note_on_c, 0, 53, 41
2,75117, Note_on_c, 0, 68, 61
2,75236, Note_on_c, 0, 53, 0
2,75273, Note_on_c, 0, 51, 47
2,75290, Note_on_c, 0, 66, 65
2,75297, Note_on_c, 0, 68, 0
2,75482, Note_on_c, 0, 51, 0
2,75507, Note_on_c, 0, 68, 67
2,75515, Control_c, 0, 64, 19
2,75519, Note_on_c, 0, 53, 47
2,75524, Note_on_c, 0, 66, 0
2,75533, Control_c, 0, 64, 32
2,75550, Control_c, 0, 64, 40
2,75570, Control_c, 0, 64, 45
2,75588, Control_c, 0, 64, 48
2,75606, Control_c, 0, 64, 49
2,75626, Control_c, 0, 64, 48
2,75647, Control_c, 0, 64, 47
2,75666, Control_c, 0, 64, 46
2,75705, Control_c, 0, 64, 45
2,75741, Control_c, 0, 64, 43
2,75779, Control_c, 0, 64, 42
2,75799, Control_c, 0, 64, 41
2,75822, Control_c, 0, 64, 39
2,75837, Control_c, 0, 64, 35
2,75857, Control_c, 0, 64, 29
2,75870, Note_on_c, 0, 68, 0
2,75879, Control_c, 0, 64, 18
2,75890, Note_on_c, 0, 63, 65
2,75899, Control_c, 0, 64, 0
2,75899, Note_on_c, 0, 72, 70
2,75916, Note_on_c, 0, 56, 0
2,75920, Note_on_c, 0, 55, 45
2,75967, Note_on_c, 0, 53, 0
2,76004, Note_on_c, 0, 73, 0
2,76082, Note_on_c, 0, 70, 75
2,76114, Note_on_c, 0, 72, 0
2,76294, Note_on_c, 0, 72, 73
2,76306, Note_on_c, 0, 55, 0
2,76318, Note_on_c, 0, 56, 55
2,76369, Note_on_c, 0, 70, 0
2,76417, Control_c, 0, 64, 13
2,76433, Control_c, 0, 64, 36
2,76451, Control_c, 0, 64, 51
2,76471, Control_c, 0, 64, 61
2,76485, Note_on_c, 0, 63, 0
2,76491, Control_c, 0, 64, 65
2,76510, Control_c, 0, 64, 67
2,76528, Control_c, 0, 64, 70
2,76548, Control_c, 0, 64, 77
2,76568, Control_c, 0, 64, 101
2,76587, Control_c, 0, 64, 127
2,76675, Note_on_c, 0, 74, 75
2,76686, Note_on_c, 0, 72, 0
2,76690, Note_on_c, 0, 65, 66
2,76739, Note_on_c, 0, 74, 0
2,77106, Control_c, 0, 64, 97
2,77124, Control_c, 0, 64, 83
2,77141, Note_on_c, 0, 58, 63
2,77141, Note_on_c, 0, 75, 79
2,77146, Control_c, 0, 64, 73
2,77165, Control_c, 0, 64, 65
2,77185, Control_c, 0, 64, 60
2,77201, Control_c, 0, 64, 56
2,77220, Control_c, 0, 64, 53
2,77237, Note_on_c, 0, 65, 0
2,77242, Control_c, 0, 64, 49
2,77248, Note_on_c, 0, 56, 0
2,77259, Control_c, 0, 64, 39
2,77278, Control_c, 0, 64, 17
2,77299, Control_c, 0, 64, 0
2,77531, Note_on_c, 0, 55, 56
2,77685, Note_on_c, 0, 53, 62
2,77699, Note_on_c, 0, 55, 0
2,77935, Note_on_c, 0, 55, 59
2,77944, Note_on_c, 0, 53, 0
2,78252, Note_on_c, 0, 58, 0
2,78304, Note_on_c, 0, 57, 61
2,78306, Note_on_c, 0, 65, 80
2,78314, Note_on_c, 0, 73, 75
2,78323, Note_on_c, 0, 55, 0
2,78334, Control_c, 0, 64, 13
2,78352, Control_c, 0, 64, 30
2,78372, Control_c, 0, 64, 45
2,78377, Note_on_c, 0, 75, 0
2,78392, Control_c, 0, 64, 59
2,78412, Control_c, 0, 64, 65
2,78430, Control_c, 0, 64, 68
2,78450, Control_c, 0, 64, 70
2,78468, Control_c, 0, 64, 73
2,78488, Control_c, 0, 64, 79
2,78505, Control_c, 0, 64, 87
2,78527, Control_c, 0, 64, 99
2,78527, Note_on_c, 0, 72, 62
2,78543, Note_on_c, 0, 73, 0
2,78545, Control_c, 0, 64, 127
2,78700, Control_c, 0, 64, 120
2,78725, Note_on_c, 0, 73, 57
2,78729, Note_on_c, 0, 58, 51
2,78733, Note_on_c, 0, 57, 0
2,78757, Control_c, 0, 64, 115
2,78757, Note_on_c, 0, 72, 0
2,78775, Control_c, 0, 64, 106
2,78795, Control_c, 0, 64, 97
2,78812, Control_c, 0, 64, 87
2,78834, Control_c, 0, 64, 81
2,78853, Control_c, 0, 64, 76
2,78873, Control_c, 0, 64, 72
2,78873, Note_on_c, 0, 58, 0
2,78893, Control_c, 0, 64, 66
2,78893, Note_on_c, 0, 73, 0
2,78902, Note_on_c, 0, 60, 62
2,78909, Control_c, 0, 64, 62
2,78918, Note_on_c, 0, 75, 63
2,78929, Control_c, 0, 64, 59
2,78987, Control_c, 0, 64, 58
2,79007, Control_c, 0, 64, 56
2,79025, Control_c, 0, 64, 54
2,79044, Control_c, 0, 64, 51
2,79064, Control_c, 0, 64, 48
2,79083, Control_c, 0, 64, 43
2,79101, Control_c, 0, 64, 31
2,79121, Note_on_c, 0, 58, 80
2,79125, Control_c, 0, 64, 0
2,79132, Note_on_c, 0, 75, 0
2,79148, Note_on_c, 0, 73, 70
2,79151, Note_on_c, 0, 60, 0
2,79162, Note_on_c, 0, 65, 0
2,79342, Note_on_c, 0, 75, 56
2,79353, Note_on_c, 0, 60, 53
2,79498, Note_on_c, 0, 73, 0
2,79551, Note_on_c, 0, 60, 0
2,79555, Note_on_c, 0, 61, 61
2,79555, Note_on_c, 0, 77, 75
2,79588, Note_on_c, 0, 75, 0
2,79601, Control_c, 0, 64, 10
2,79620, Control_c, 0, 64, 19
2,79638, Control_c, 0, 64, 26
2,79660, Control_c, 0, 64, 29
2,79676, Control_c, 0, 64, 31
2,79696, Control_c, 0, 64, 32
2,79716, Control_c, 0, 64, 33
2,79725, Note_on_c, 0, 60, 64
2,79725, Note_on_c, 0, 61, 0
2,79743, Note_on_c, 0, 58, 0
2,79928, Control_c, 0, 64, 32
2,79928, Note_on_c, 0, 73, 78
2,79932, Note_on_c, 0, 58, 61
2,79965, Control_c, 0, 64, 30
2,79977, Note_on_c, 0, 60, 0
2,79984, Control_c, 0, 64, 29
2,80024, Control_c, 0, 64, 27
2,80044, Control_c, 0, 64, 22
2,80061, Control_c, 0, 64, 15
2,80081, Control_c, 0, 64, 0
2,80111, Note_on_c, 0, 56, 73
2,80144, Note_on_c, 0, 58, 0
2,80318, Note_on_c, 0, 75, 75
2,80331, Note_on_c, 0, 54, 57
2,80336, Note_on_c, 0, 56, 0
2,80336, Note_on_c, 0, 72, 56
2,80415, Note_on_c, 0, 73, 0
2,80489, Note_on_c, 0, 54, 0
2,80501, Note_on_c, 0, 53, 68
2,80510, Note_on_c, 0, 77, 0
2,80638, Control_c, 0, 64, 9
2,80658, Control_c, 0, 64, 13
2,80674, Note_on_c, 0, 53, 0
2,80676, Control_c, 0, 64, 14
2,80694, Note_on_c, 0, 70, 67
2,80699, Control_c, 0, 64, 22
2,80701, Note_on_c, 0, 54, 62
2,80716, Control_c, 0, 64, 35
2,80733, Note_on_c, 0, 72, 0
2,80737, Control_c, 0, 64, 51
2,80753, Control_c, 0, 64, 62
2,80771, Control_c, 0, 64, 65
2,80810, Control_c, 0, 64, 66
2,80826, Note_on_c, 0, 70, 0
2,80830, Control_c, 0, 64, 69
2,80851, Control_c, 0, 64, 77
2,80851, Note_on_c, 0, 54, 0
2,80869, Note_on_c, 0, 51, 70
2,80873, Control_c, 0, 64, 93
2,80889, Control_c, 0, 64, 127
2,80940, Note_on_c, 0, 75, 0
2,81023, Control_c, 0, 64, 110
2,81039, Control_c, 0, 64, 100
2,81059, Control_c, 0, 64, 90
2,81080, Control_c, 0, 64, 78
2,81099, Control_c, 0, 64, 65
2,81104, Note_on_c, 0, 53, 82
2,81122, Control_c, 0, 64, 54
2,81122, Note_on_c, 0, 69, 60
2,81138, Control_c, 0, 64, 30
2,81145, Note_on_c, 0, 51, 0
2,81156, Control_c, 0, 64, 0
2,81289, Note_on_c, 0, 70, 69
2,81309, Note_on_c, 0, 69, 0
2,81329, Control_c, 0, 64, 13
2,81347, Control_c, 0, 64, 26
2,81366, Control_c, 0, 64, 40
2,81388, Control_c, 0, 64, 53
2,81405, Control_c, 0, 64, 60
2,81425, Control_c, 0, 64, 62
2,81463, Control_c, 0, 64, 63
2,81474, Note_on_c, 0, 70, 0
2,81504, Control_c, 0, 64, 64
2,81504, Note_on_c, 0, 72, 67
2,81504, Note_on_c, 0, 75, 75
2,81520, Control_c, 0, 64, 65
2,81559, Control_c, 0, 64, 66
2,81684, Note_on_c, 0, 72, 0
2,81693, Control_c, 0, 64, 65
2,81700, Note_on_c, 0, 69, 61
2,81772, Control_c, 0, 64, 64
2,81809, Control_c, 0, 64, 62
2,81827, Control_c, 0, 64, 59
2,81848, Control_c, 0, 64, 55
2,81864, Control_c, 0, 64, 44
2,81878, Note_on_c, 0, 53, 0
2,81887, Control_c, 0, 64, 0
2,81892, Note_on_c, 0, 46, 79
2,81917, Note_on_c, 0, 73, 70
2,81921, Note_on_c, 0, 69, 0
2,81921, Note_on_c, 0, 75, 0
2,81941, Note_on_c, 0, 65, 54
2,82061, Control_c, 0, 64, 22
2,82078, Control_c, 0, 64, 43
2,82098, Control_c, 0, 64, 52
2,82118, Control_c, 0, 64, 60
2,82138, Control_c, 0, 64, 63
2,82155, Control_c, 0, 64, 64
2,82174, Control_c, 0, 64, 66
2,82196, Control_c, 0, 64, 69
2,82214, Control_c, 0, 64, 77
2,82234, Note_on_c, 0, 46, 0
2,82238, Control_c, 0, 64, 93
2,82251, Control_c, 0, 64, 127
2,82310, Note_on_c, 0, 72, 73
2,82325, Note_on_c, 0, 68, 68
2,82329, Note_on_c, 0, 65, 0
2,82369, Note_on_c, 0, 73, 0
2,82638, Control_c, 0, 64, 115
2,82658, Control_c, 0, 64, 105
2,82676, Control_c, 0, 64, 99
2,82683, Note_on_c, 0, 72, 0
2,82694, Control_c, 0, 64, 94
2,82701, Note_on_c, 0, 66, 65
2,82701, Note_on_c, 0, 70, 72
2,82714, Note_on_c, 0, 68, 0
2,82718, Control_c, 0, 64, 90
2,82733, Control_c, 0, 64, 86
2,82751, Control_c, 0, 64, 82
2,82775, Control_c, 0, 64, 78
2,82792, Control_c, 0, 64, 74
2,82809, Control_c, 0, 64, 69
2,82829, Control_c, 0, 64, 66
2,82848, Control_c, 0, 64, 65
2,82864, Note_on_c, 0, 66, 0
2,82868, Control_c, 0, 64, 63
2,82887, Control_c, 0, 64, 62
2,82901, Note_on_c, 0, 72, 69
2,82905, Control_c, 0, 64, 61
2,82926, Control_c, 0, 64, 60
2,82941, Note_on_c, 0, 70, 0
2,82945, Control_c, 0, 64, 59
2,82962, Control_c, 0, 64, 58
2,82982, Control_c, 0, 64, 57
2,83001, Control_c, 0, 64, 54
2,83020, Control_c, 0, 64, 52
2,83040, Control_c, 0, 64, 49
2,83058, Control_c, 0, 64, 47
2,83079, Control_c, 0, 64, 45
2,83088, Note_on_c, 0, 65, 66
2,83091, Note_on_c, 0, 61, 65
2,83096, Control_c, 0, 64, 39
2,83118, Control_c, 0, 64, 30
2,83118, Note_on_c, 0, 73, 77
2,83129, Note_on_c, 0, 72, 0
2,83136, Control_c, 0, 64, 12
2,83156, Control_c, 0, 64, 0
2,83293, Note_on_c, 0, 73, 0
2,83300, Note_on_c, 0, 70, 58
2,83471, Note_on_c, 0, 70, 0
2,83490, Note_on_c, 0, 63, 66
2,83495, Note_on_c, 0, 65, 0
2,83495, Note_on_c, 0, 68, 69
2,83508, Note_on_c, 0, 60, 63
2,83516, Note_on_c, 0, 61, 0
2,83543, Note_on_c, 0, 68, 0
2,83586, Note_on_c, 0, 66, 61
2,83622, Note_on_c, 0, 66, 0
2,83671, Note_on_c, 0, 68, 68
2,83717, Note_on_c, 0, 68, 0
2,83744, Note_on_c, 0, 66, 55
2,83790, Note_on_c, 0, 66, 0
2,83821, Note_on_c, 0, 68, 66
2,83832, Note_on_c, 0, 60, 0
2,83848, Note_on_c, 0, 58, 48
2,83857, Note_on_c, 0, 68, 0
2,83880, Note_on_c, 0, 61, 43
2,83889, Note_on_c, 0, 66, 64
2,83922, Note_on_c, 0, 63, 0
2,83931, Note_on_c, 0, 66, 0
2,83931, Note_on_c, 0, 68, 73
2,83974, Note_on_c, 0, 68, 0
2,83980, Control_c, 0, 64, 9
2,84002, Control_c, 0, 64, 35
2,84008, Note_on_c, 0, 66, 64
2,84019, Control_c, 0, 64, 49
2,84038, Control_c, 0, 64, 58
2,84042, Note_on_c, 0, 66, 0
2,84058, Control_c, 0, 64, 61
2,84071, Note_on_c, 0, 65, 63
2,84109, Note_on_c, 0, 66, 77
2,84114, Control_c, 0, 64, 63
2,84118, Note_on_c, 0, 65, 0
2,84133, Control_c, 0, 64, 67
2,84146, Note_on_c, 0, 66, 0
2,84153, Control_c, 0, 64, 73
2,84160, Note_on_c, 0, 58, 0
2,84177, Control_c, 0, 64, 87
2,84192, Control_c, 0, 64, 127
2,84368, Note_on_c, 0, 57, 57
2,84447, Note_on_c, 0, 61, 0
2,84447, Note_on_c, 0, 77, 93
2,84457, Note_on_c, 0, 65, 71
2,84460, Control_c, 0, 64, 86
2,84480, Control_c, 0, 64, 66
2,84502, Control_c, 0, 64, 48
2,84520, Control_c, 0, 64, 0
2,84652, Control_c, 0, 64, 27
2,84673, Control_c, 0, 64, 42
2,84690, Control_c, 0, 64, 55
2,84710, Control_c, 0, 64, 61
2,84729, Control_c, 0, 64, 63
2,84786, Control_c, 0, 64, 64
2,84826, Control_c, 0, 64, 65
2,84857, Note_on_c, 0, 62, 52
2,85017, Note_on_c, 0, 62, 0
2,85032, Note_on_c, 0, 60, 59
2,85171, Control_c, 0, 64, 64
2,85227, Control_c, 0, 64, 63
2,85248, Control_c, 0, 64, 62
2,85252, Note_on_c, 0, 70, 80
2,85268, Control_c, 0, 64, 61
2,85272, Note_on_c, 0, 62, 68
2,85284, Note_on_c, 0, 57, 0
2,85289, Control_c, 0, 64, 59
2,85289, Note_on_c, 0, 60, 0
2,85304, Control_c, 0, 64, 57
2,85326, Control_c, 0, 64, 54
2,85344, Control_c, 0, 64, 48
2,85362, Control_c, 0, 64, 33
2,85382, Control_c, 0, 64, 0
2,85578, Note_on_c, 0, 77, 0
2,85619, Note_on_c, 0, 65, 0
2,85658, Note_on_c, 0, 54, 58
2,85769, Note_on_c, 0, 62, 0
2,85807, Note_on_c, 0, 53, 60
2,85826, Note_on_c, 0, 54, 0
2,85970, Note_on_c, 0, 70, 0
2,86060, Note_on_c, 0, 54, 63
2,86064, Note_on_c, 0, 53, 0
2,86064, Note_on_c, 0, 63, 66
2,86488, Note_on_c, 0, 56, 50
2,86492, Note_on_c, 0, 83, 79
2,86546, Note_on_c, 0, 54, 0
2,86689, Note_on_c, 0, 63, 0
2,86918, Note_on_c, 0, 58, 55
2,86922, Note_on_c, 0, 82, 79
2,86938, Note_on_c, 0, 62, 53
2,86943, Note_on_c, 0, 56, 0
2,87070, Control_c, 0, 64, 17
2,87088, Control_c, 0, 64, 31
2,87108, Control_c, 0, 64, 40
2,87130, Control_c, 0, 64, 48
2,87150, Control_c, 0, 64, 56
2,87166, Control_c, 0, 64, 61
2,87186, Control_c, 0, 64, 63
2,87204, Control_c, 0, 64, 64
2,87215, Note_on_c, 0, 83, 0
2,87223, Control_c, 0, 64, 67
2,87241, Control_c, 0, 64, 75
2,87255, Note_on_c, 0, 62, 0
2,87262, Control_c, 0, 64, 99
2,87280, Control_c, 0, 64, 127
2,87315, Note_on_c, 0, 80, 83
2,87329, Note_on_c, 0, 77, 72
2,87355, Note_on_c, 0, 82, 0
2,87364, Note_on_c, 0, 77, 0
2,87388, Note_on_c, 0, 80, 0
2,87761, Control_c, 0, 64, 82
2,87761, Note_on_c, 0, 78, 88
2,87767, Note_on_c, 0, 51, 79
2,87767, Note_on_c, 0, 63, 80
2,87774, Note_on_c, 0, 58, 0
2,87779, Note_on_c, 0, 75, 72
2,87784, Control_c, 0, 64, 57
2,87799, Control_c, 0, 64, 0
2,87913, Control_c, 0, 64, 17
2,87934, Control_c, 0, 64, 37
2,87954, Control_c, 0, 64, 50
2,87972, Control_c, 0, 64, 60
2,87994, Control_c, 0, 64, 66
2,87994, Note_on_c, 0, 63, 0
2,88012, Control_c, 0, 64, 69
2,88030, Control_c, 0, 64, 77
2,88049, Control_c, 0, 64, 96
2,88067, Control_c, 0, 64, 127
2,88194, Note_on_c, 0, 73, 79
2,88209, Note_on_c, 0, 75, 0
2,88209, Note_on_c, 0, 78, 0
2,88218, Note_on_c, 0, 70, 68
2,88306, Note_on_c, 0, 70, 0
2,88447, Note_on_c, 0, 51, 0
2,88606, Control_c, 0, 64, 77
2,88611, Note_on_c, 0, 44, 81
2,88627, Control_c, 0, 64, 51
2,88627, Note_on_c, 0, 73, 0
2,88631, Note_on_c, 0, 76, 82
2,88644, Control_c, 0, 64, 0
2,88644, Note_on_c, 0, 68, 72
2,88649, Note_on_c, 0, 71, 70
2,88741, Control_c, 0, 64, 25
2,88758, Control_c, 0, 64, 51
2,88776, Control_c, 0, 64, 65
2,88797, Control_c, 0, 64, 75
2,88819, Control_c, 0, 64, 127
2,88836, Note_on_c, 0, 68, 0
2,88904, Note_on_c, 0, 44, 0
2,89033, Note_on_c, 0, 75, 79
2,89045, Note_on_c, 0, 66, 76
2,89055, Note_on_c, 0, 76, 0
2,89131, Note_on_c, 0, 71, 0
2,89214, Note_on_c, 0, 66, 0
2,89450, Control_c, 0, 64, 96
2,89469, Control_c, 0, 64, 72
2,89478, Note_on_c, 0, 53, 81
2,89491, Control_c, 0, 64, 58
2,89497, Note_on_c, 0, 70, 59
2,89497, Note_on_c, 0, 74, 72
2,89502, Note_on_c, 0, 65, 64
2,89507, Control_c, 0, 64, 28
2,89524, Note_on_c, 0, 75, 0
2,89529, Control_c, 0, 64, 0
2,89700, Control_c, 0, 64, 15
2,89719, Control_c, 0, 64, 32
2,89739, Control_c, 0, 64, 47
2,89760, Control_c, 0, 64, 59
2,89776, Control_c, 0, 64, 64
2,89796, Control_c, 0, 64, 66
2,89800, Note_on_c, 0, 65, 0
2,89816, Control_c, 0, 64, 67
2,89836, Control_c, 0, 64, 71
2,89853, Control_c, 0, 64, 83
2,89872, Control_c, 0, 64, 127
2,89883, Note_on_c, 0, 53, 0
2,89890, Note_on_c, 0, 42, 76
2,89942, Note_on_c, 0, 70, 0
2,90234, Note_on_c, 0, 42, 0
2,90286, Note_on_c, 0, 41, 59
2,90309, Note_on_c, 0, 46, 70
2,90314, Control_c, 0, 64, 92
2,90318, Note_on_c, 0, 75, 84
2,90330, Control_c, 0, 64, 65
2,90335, Note_on_c, 0, 66, 65
2,90339, Note_on_c, 0, 70, 68
2,90352, Control_c, 0, 64, 46
2,90361, Note_on_c, 0, 74, 0
2,90368, Control_c, 0, 64, 0
2,90524, Control_c, 0, 64, 22
2,90524, Note_on_c, 0, 41, 0
2,90540, Control_c, 0, 64, 41
2,90561, Control_c, 0, 64, 51
2,90581, Control_c, 0, 64, 60
2,90598, Control_c, 0, 64, 64
2,90619, Control_c, 0, 64, 65
2,90639, Control_c, 0, 64, 67
2,90658, Control_c, 0, 64, 71
2,90678, Control_c, 0, 64, 78
2,90680, Note_on_c, 0, 66, 0
2,90695, Control_c, 0, 64, 91
2,90711, Note_on_c, 0, 39, 72
2,90717, Control_c, 0, 64, 127
2,90736, Note_on_c, 0, 46, 0
2,91079, Control_c, 0, 64, 105
2,91101, Control_c, 0, 64, 93
2,91117, Control_c, 0, 64, 82
2,91137, Control_c, 0, 64, 72
2,91145, Note_on_c, 0, 46, 63
2,91156, Note_on_c, 0, 39, 0
2,91161, Control_c, 0, 64, 61
2,91170, Note_on_c, 0, 65, 63
2,91174, Control_c, 0, 64, 45
2,91193, Control_c, 0, 64, 0
2,91327, Control_c, 0, 64, 37
2,91347, Control_c, 0, 64, 52
2,91367, Control_c, 0, 64, 62
2,91387, Control_c, 0, 64, 66
2,91405, Control_c, 0, 64, 67
2,91425, Control_c, 0, 64, 70
2,91444, Control_c, 0, 64, 75
2,91467, Control_c, 0, 64, 85
2,91482, Control_c, 0, 64, 109
2,91504, Control_c, 0, 64, 127
2,91578, Note_on_c, 0, 59, 77
2,91774, Note_on_c, 0, 59, 0
2,91774, Note_on_c, 0, 65, 0
2,92015, Note_on_c, 0, 58, 73
2,92021, Note_on_c, 0, 74, 77
2,92059, Control_c, 0, 64, 81
2,92077, Control_c, 0, 64, 61
2,92096, Control_c, 0, 64, 32
2,92116, Control_c, 0, 64, 0
2,92131, Note_on_c, 0, 75, 0
2,92193, Control_c, 0, 64, 22
2,92211, Control_c, 0, 64, 44
2,92234, Control_c, 0, 64, 59
2,92251, Control_c, 0, 64, 67
2,92260, Note_on_c, 0, 70, 0
2,92268, Control_c, 0, 64, 71
2,92289, Control_c, 0, 64, 77
2,92310, Control_c, 0, 64, 83
2,92330, Control_c, 0, 64, 92
2,92347, Control_c, 0, 64, 103
2,92365, Control_c, 0, 64, 127
2,92399, Note_on_c, 0, 56, 74
2,92406, Note_on_c, 0, 58, 0
2,92620, Note_on_c, 0, 56, 0
2,92863, Note_on_c, 0, 51, 58
2,92865, Control_c, 0, 64, 107
2,92877, Note_on_c, 0, 54, 60
2,92885, Control_c, 0, 64, 86
2,92892, Note_on_c, 0, 46, 0
2,92905, Control_c, 0, 64, 65
2,92922, Control_c, 0, 64, 39
2,92930, Note_on_c, 0, 75, 90
2,92944, Control_c, 0, 64, 0
2,92948, Note_on_c, 0, 70, 71
2,92953, Note_on_c, 0, 63, 77
2,93008, Note_on_c, 0, 74, 0
2,93094, Control_c, 0, 64, 37
2,93114, Control_c, 0, 64, 53
2,93134, Control_c, 0, 64, 57
2,93151, Control_c, 0, 64, 60
2,93172, Control_c, 0, 64, 64
2,93192, Control_c, 0, 64, 68
2,93210, Control_c, 0, 64, 83
2,93230, Control_c, 0, 64, 127
2,93245, Note_on_c, 0, 63, 0
2,93273, Note_on_c, 0, 75, 0
2,93315, Note_on_c, 0, 70, 0
2,93348, Note_on_c, 0, 54, 0
2,93352, Note_on_c, 0, 53, 78
2,93767, Control_c, 0, 64, 109
2,93780, Note_on_c, 0, 54, 64
2,93784, Note_on_c, 0, 63, 80
2,93789, Control_c, 0, 64, 90
2,93793, Note_on_c, 0, 58, 74
2,93806, Control_c, 0, 64, 78
2,93826, Control_c, 0, 64, 69
2,93844, Control_c, 0, 64, 62
2,93863, Control_c, 0, 64, 52
2,93869, Note_on_c, 0, 53, 0
2,93881, Control_c, 0, 64, 36
2,93901, Control_c, 0, 64, 0
2,93905, Note_on_c, 0, 51, 0
2,94182, Note_on_c, 0, 54, 0
2,94194, Note_on_c, 0, 56, 70
2,94202, Note_on_c, 0, 53, 67
2,94387, Note_on_c, 0, 58, 0
2,94451, Note_on_c, 0, 63, 0
2,94591, Note_on_c, 0, 54, 71
2,94591, Note_on_c, 0, 56, 0
2,94595, Note_on_c, 0, 58, 72
2,94611, Note_on_c, 0, 53, 0
2,94996, Note_on_c, 0, 58, 0
2,95002, Note_on_c, 0, 60, 61
2,95002, Note_on_c, 0, 77, 83
2,95013, Note_on_c, 0, 73, 73
2,95174, Note_on_c, 0, 60, 0
2,95179, Note_on_c, 0, 61, 70
2,95416, Note_on_c, 0, 63, 66
2,95420, Note_on_c, 0, 72, 70
2,95425, Note_on_c, 0, 75, 75
2,95460, Note_on_c, 0, 61, 0
2,95462, Note_on_c, 0, 73, 0
2,95554, Note_on_c, 0, 77, 0
2,95648, Control_c, 0, 64, 22
2,95669, Control_c, 0, 64, 34
2,95686, Control_c, 0, 64, 44
2,95705, Control_c, 0, 64, 54
2,95725, Control_c, 0, 64, 59
2,95744, Control_c, 0, 64, 60
2,95762, Control_c, 0, 64, 61
2,95784, Control_c, 0, 64, 62
2,95806, Control_c, 0, 64, 63
2,95820, Note_on_c, 0, 63, 0
2,95824, Control_c, 0, 64, 66
2,95840, Control_c, 0, 64, 69
2,95846, Note_on_c, 0, 73, 77
2,95851, Note_on_c, 0, 70, 64
2,95861, Control_c, 0, 64, 74
2,95880, Control_c, 0, 64, 83
2,95884, Note_on_c, 0, 72, 0
2,95898, Control_c, 0, 64, 96
2,95905, Note_on_c, 0, 75, 0
2,95918, Control_c, 0, 64, 118
2,95936, Control_c, 0, 64, 127
2,95944, Note_on_c, 0, 54, 0
2,96180, Note_on_c, 0, 70, 0
2,96261, Note_on_c, 0, 72, 67
2,96266, Note_on_c, 0, 73, 0
2,96270, Note_on_c, 0, 69, 51
2,96304, Control_c, 0, 64, 112
2,96321, Control_c, 0, 64, 105
2,96340, Control_c, 0, 64, 102
2,96358, Control_c, 0, 64, 98
2,96379, Control_c, 0, 64, 94
2,96397, Control_c, 0, 64, 89
2,96415, Control_c, 0, 64, 85
2,96436, Control_c, 0, 64, 81
2,96455, Control_c, 0, 64, 79
2,96474, Control_c, 0, 64, 78
2,96512, Control_c, 0, 64, 77
2,96532, Control_c, 0, 64, 76
2,96552, Control_c, 0, 64, 73
2,96571, Control_c, 0, 64, 67
2,96591, Control_c, 0, 64, 58
2,96609, Control_c, 0, 64, 36
2,96628, Control_c, 0, 64, 0
2,96678, Note_on_c, 0, 61, 42
2,96678, Note_on_c, 0, 70, 60
2,96689, Note_on_c, 0, 67, 53
2,96689, Note_on_c, 0, 69, 0
2,96695, Note_on_c, 0, 53, 43
2,96702, Note_on_c, 0, 72, 0
2,96727, Control_c, 0, 64, 22
2,96742, Control_c, 0, 64, 40
2,96762, Control_c, 0, 64, 54
2,96781, Control_c, 0, 64, 62
2,96801, Control_c, 0, 64, 64
2,96821, Control_c, 0, 64, 65
2,96839, Control_c, 0, 64, 66
2,96858, Control_c, 0, 64, 68
2,96878, Control_c, 0, 64, 72
2,96896, Control_c, 0, 64, 79
2,96916, Control_c, 0, 64, 89
2,96934, Control_c, 0, 64, 100
2,96954, Control_c, 0, 64, 106
2,96974, Control_c, 0, 64, 109
2,96981, Note_on_c, 0, 61, 0
2,97049, Control_c, 0, 64, 103
2,97065, Note_on_c, 0, 53, 0
2,97069, Note_on_c, 0, 67, 0
2,97073, Control_c, 0, 64, 87
2,97091, Control_c, 0, 64, 70
2,97100, Note_on_c, 0, 70, 0
2,97109, Control_c, 0, 64, 59
2,97114, Note_on_c, 0, 69, 51
2,97114, Note_on_c, 0, 72, 61
2,97120, Note_on_c, 0, 51, 50
2,97125, Note_on_c, 0, 60, 46
2,97126, Control_c, 0, 64, 46
2,97147, Control_c, 0, 64, 41
2,97167, Control_c, 0, 64, 45
2,97187, Control_c, 0, 64, 51
2,97203, Control_c, 0, 64, 60
2,97225, Control_c, 0, 64, 65
2,97243, Control_c, 0, 64, 68
2,97263, Control_c, 0, 64, 73
2,97281, Control_c, 0, 64, 81
2,97301, Control_c, 0, 64, 96
2,97309, Note_on_c, 0, 51, 0
2,97318, Control_c, 0, 64, 127
2,97399, Note_on_c, 0, 60, 0
2,97446, Note_on_c, 0, 72, 0
2,97483, Note_on_c, 0, 73, 74
2,97492, Control_c, 0, 64, 73
2,97498, Note_on_c, 0, 58, 61
2,97498, Note_on_c, 0, 70, 68
2,97513, Control_c, 0, 64, 59
2,97517, Note_on_c, 0, 49, 52
2,97531, Control_c, 0, 64, 47
2,97535, Note_on_c, 0, 69, 0
2,97570, Control_c, 0, 64, 54
2,97587, Control_c, 0, 64, 62
2,97608, Control_c, 0, 64, 67
2,97626, Control_c, 0, 64, 76
2,97647, Control_c, 0, 64, 91
2,97667, Control_c, 0, 64, 127
2,97725, Note_on_c, 0, 49, 0
2,97739, Note_on_c, 0, 58, 0
2,97895, Control_c, 0, 64, 84
2,97898, Note_on_c, 0, 75, 77
2,97903, Note_on_c, 0, 70, 0
2,97907, Note_on_c, 0, 72, 73
2,97911, Note_on_c, 0, 57, 63
2,97915, Control_c, 0, 64, 63
2,97924, Note_on_c, 0, 73, 0
2,97928, Note_on_c, 0, 48, 50
2,97934, Control_c, 0, 64, 46
2,97952, Control_c, 0, 64, 34
2,97972, Control_c, 0, 64, 39
2,97992, Control_c, 0, 64, 51
2,98009, Control_c, 0, 64, 63
2,98032, Control_c, 0, 64, 72
2,98050, Control_c, 0, 64, 88
2,98069, Control_c, 0, 64, 127
2,98071, Note_on_c, 0, 75, 0
2,98203, Note_on_c, 0, 48, 0
2,98350, Note_on_c, 0, 72, 0
2,98354, Note_on_c, 0, 78, 86
2,98385, Note_on_c, 0, 75, 63
2,98398, Note_on_c, 0, 57, 0
2,98768, Note_on_c, 0, 77, 73
2,98783, Note_on_c, 0, 73, 74
2,98797, Note_on_c, 0, 75, 0
2,98801, Note_on_c, 0, 56, 47
2,98805, Control_c, 0, 64, 93
2,98805, Note_on_c, 0, 53, 50
2,98818, Control_c, 0, 64, 67
2,98838, Note_on_c, 0, 78, 0
2,98842, Control_c, 0, 64, 50
2,98860, Control_c, 0, 64, 0
2,98915, Control_c, 0, 64, 20
2,98935, Control_c, 0, 64, 37
2,98953, Control_c, 0, 64, 51
2,98973, Control_c, 0, 64, 62
2,98995, Control_c, 0, 64, 67
2,99013, Control_c, 0, 64, 75
2,99030, Control_c, 0, 64, 88
2,99052, Control_c, 0, 64, 127
2,99174, Note_on_c, 0, 77, 0
2,99190, Note_on_c, 0, 75, 64
2,99197, Note_on_c, 0, 71, 50
2,99237, Note_on_c, 0, 73, 0
2,99318, Note_on_c, 0, 53, 0
2,99549, Control_c, 0, 64, 118
2,99569, Control_c, 0, 64, 81
2,99573, Note_on_c, 0, 46, 46
2,99586, Note_on_c, 0, 74, 63
2,99590, Control_c, 0, 64, 63
2,99595, Note_on_c, 0, 71, 0
2,99603, Note_on_c, 0, 70, 48
2,99607, Control_c, 0, 64, 42
2,99616, Note_on_c, 0, 75, 0
2,99627, Control_c, 0, 64, 0
2,99687, Control_c, 0, 64, 9
2,99702, Control_c, 0, 64, 37
2,99723, Control_c, 0, 64, 56
2,99741, Control_c, 0, 64, 67
2,99760, Control_c, 0, 64, 79
2,99765, Note_on_c, 0, 74, 0
2,99780, Control_c, 0, 64, 127
2,99988, Note_on_c, 0, 56, 0
2,100026, Note_on_c, 0, 77, 81
2,100037, Note_on_c, 0, 74, 71
2,100139, Note_on_c, 0, 70, 0
2,100459, Note_on_c, 0, 51, 46
2,100461, Note_on_c, 0, 72, 63
2,100466, Note_on_c, 0, 46, 0
2,100466, Note_on_c, 0, 54, 44
2,100468, Note_on_c, 0, 75, 64
2,100493, Control_c, 0, 64, 104
2,100493, Note_on_c, 0, 74, 0
2,100509, Control_c, 0, 64, 83
2,100528, Control_c, 0, 64, 64
2,100547, Control_c, 0, 64, 43
2,100552, Note_on_c, 0, 77, 0
2,100565, Control_c, 0, 64, 0
2,100662, Control_c, 0, 64, 12
2,100683, Control_c, 0, 64, 35
2,100703, Control_c, 0, 64, 49
2,100721, Control_c, 0, 64, 60
2,100738, Control_c, 0, 64, 64
2,100758, Control_c, 0, 64, 67
2,100776, Control_c, 0, 64, 70
2,100796, Control_c, 0, 64, 77
2,100807, Note_on_c, 0, 51, 0
2,100816, Control_c, 0, 64, 95
2,100837, Control_c, 0, 64, 127
2,100844, Note_on_c, 0, 54, 0
2,100873, Note_on_c, 0, 73, 70
2,100877, Note_on_c, 0, 70, 62
2,100941, Note_on_c, 0, 72, 0
2,100976, Note_on_c, 0, 75, 0
2,101039, Note_on_c, 0, 73, 0
2,101140, Note_on_c, 0, 70, 0
2,101290, Note_on_c, 0, 72, 78
2,101301, Note_on_c, 0, 69, 67
2,101565, Control_c, 0, 64, 118
2,101587, Control_c, 0, 64, 101
2,101606, Control_c, 0, 64, 94
2,101623, Control_c, 0, 64, 88
2,101643, Control_c, 0, 64, 84
2,101660, Control_c, 0, 64, 81
2,101669, Note_on_c, 0, 53, 62
2,101679, Control_c, 0, 64, 75
2,101684, Note_on_c, 0, 49, 57
2,101699, Control_c, 0, 64, 70
2,101720, Control_c, 0, 64, 65
2,101737, Control_c, 0, 64, 62
2,101758, Control_c, 0, 64, 60
2,101775, Control_c, 0, 64, 58
2,101796, Control_c, 0, 64, 55
2,101815, Control_c, 0, 64, 47
2,101836, Control_c, 0, 64, 36
2,101854, Control_c, 0, 64, 24
2,101873, Control_c, 0, 64, 0
2,102099, Note_on_c, 0, 69, 0
2,102122, Note_on_c, 0, 73, 71
2,102127, Note_on_c, 0, 51, 51
2,102148, Note_on_c, 0, 48, 47
2,102154, Note_on_c, 0, 70, 51
2,102157, Note_on_c, 0, 53, 0
2,102157, Note_on_c, 0, 72, 0
2,102161, Note_on_c, 0, 49, 0
2,102485, Note_on_c, 0, 51, 0
2,102511, Note_on_c, 0, 48, 0
2,102527, Note_on_c, 0, 49, 48
2,102555, Note_on_c, 0, 46, 45
2,102939, Note_on_c, 0, 46, 0
2,102950, Control_c, 0, 64, 18
2,102957, Note_on_c, 0, 58, 37
2,102966, Control_c, 0, 64, 28
2,102970, Note_on_c, 0, 54, 38
2,102975, Note_on_c, 0, 63, 51
2,102984, Note_on_c, 0, 49, 0
2,102985, Control_c, 0, 64, 38
2,103004, Control_c, 0, 64, 50
2,103025, Control_c, 0, 64, 58
2,103042, Control_c, 0, 64, 62
2,103063, Control_c, 0, 64, 63
2,103081, Control_c, 0, 64, 64
2,103120, Control_c, 0, 64, 66
2,103140, Control_c, 0, 64, 70
2,103158, Control_c, 0, 64, 76
2,103178, Control_c, 0, 64, 84
2,103198, Control_c, 0, 64, 92
2,103219, Control_c, 0, 64, 98
2,103235, Control_c, 0, 64, 100
2,103273, Control_c, 0, 64, 102
2,103314, Control_c, 0, 64, 103
2,103369, Control_c, 0, 64, 102
2,103381, Note_on_c, 0, 72, 70
2,103389, Control_c, 0, 64, 101
2,103409, Control_c, 0, 64, 99
2,103427, Control_c, 0, 64, 97
2,103449, Control_c, 0, 64, 96
2,103466, Control_c, 0, 64, 95
2,103504, Control_c, 0, 64, 94
2,103567, Note_on_c, 0, 70, 0
2,103576, Note_on_c, 0, 73, 0
2,103582, Control_c, 0, 64, 93
2,103659, Control_c, 0, 64, 92
2,103659, Note_on_c, 0, 63, 0
2,103676, Control_c, 0, 64, 91
2,103699, Control_c, 0, 64, 90
2,103714, Control_c, 0, 64, 89
2,103736, Control_c, 0, 64, 87
2,103754, Control_c, 0, 64, 85
2,103774, Control_c, 0, 64, 82
2,103776, Note_on_c, 0, 55, 45
2,103776, Note_on_c, 0, 64, 48
2,103788, Note_on_c, 0, 58, 0
2,103793, Control_c, 0, 64, 77
2,103813, Control_c, 0, 64, 69
2,103831, Control_c, 0, 64, 58
2,103835, Note_on_c, 0, 54, 0
2,103851, Control_c, 0, 64, 45
2,103868, Control_c, 0, 64, 30
2,103888, Control_c, 0, 64, 28
2,103907, Control_c, 0, 64, 30
2,103924, Control_c, 0, 64, 35
2,103946, Control_c, 0, 64, 43
2,103966, Control_c, 0, 64, 52
2,103983, Control_c, 0, 64, 60
2,104002, Control_c, 0, 64, 62
2,104022, Control_c, 0, 64, 63
2,104042, Control_c, 0, 64, 64
2,104061, Control_c, 0, 64, 65
2,104080, Control_c, 0, 64, 66
2,104101, Control_c, 0, 64, 70
2,104119, Control_c, 0, 64, 76
2,104138, Control_c, 0, 64, 83
2,104158, Control_c, 0, 64, 89
2,104176, Control_c, 0, 64, 92
2,104210, Note_on_c, 0, 70, 61
2,104219, Note_on_c, 0, 60, 37
2,104237, Note_on_c, 0, 64, 0
2,104335, Note_on_c, 0, 72, 0
2,104406, Control_c, 0, 64, 91
2,104425, Control_c, 0, 64, 90
2,104484, Control_c, 0, 64, 89
2,104503, Control_c, 0, 64, 87
2,104521, Control_c, 0, 64, 86
2,104582, Control_c, 0, 64, 85
2,104598, Control_c, 0, 64, 84
2,104618, Control_c, 0, 64, 78
2,104637, Control_c, 0, 64, 68
2,104641, Note_on_c, 0, 53, 46
2,104641, Note_on_c, 0, 61, 38
2,104646, Note_on_c, 0, 55, 0
2,104650, Note_on_c, 0, 69, 49
2,104657, Control_c, 0, 64, 55
2,104662, Note_on_c, 0, 60, 0
2,104662, Note_on_c, 0, 70, 0
2,104666, Note_on_c, 0, 65, 27
2,104675, Control_c, 0, 64, 31
2,104695, Control_c, 0, 64, 0
2,104751, Control_c, 0, 64, 13
2,104771, Control_c, 0, 64, 32
2,104792, Control_c, 0, 64, 49
2,104792, Note_on_c, 0, 65, 0
2,104808, Control_c, 0, 64, 60
2,104830, Control_c, 0, 64, 64
2,104849, Control_c, 0, 64, 65
2,104866, Control_c, 0, 64, 66
2,104887, Control_c, 0, 64, 68
2,104907, Control_c, 0, 64, 73
2,104912, Note_on_c, 0, 69, 0
2,104925, Control_c, 0, 64, 83
2,104947, Control_c, 0, 64, 97
2,104963, Control_c, 0, 64, 115
2,104983, Control_c, 0, 64, 127
2,105065, Note_on_c, 0, 78, 70
2,105086, Note_on_c, 0, 69, 45
2,105099, Control_c, 0, 64, 100
2,105103, Note_on_c, 0, 60, 47
2,105118, Control_c, 0, 64, 77
2,105122, Note_on_c, 0, 61, 0
2,105137, Control_c, 0, 64, 63
2,105155, Control_c, 0, 64, 50
2,105175, Control_c, 0, 64, 43
2,105193, Control_c, 0, 64, 46
2,105213, Control_c, 0, 64, 51
2,105232, Control_c, 0, 64, 59
2,105250, Control_c, 0, 64, 64
2,105270, Control_c, 0, 64, 69
2,105291, Control_c, 0, 64, 76
2,105308, Control_c, 0, 64, 90
2,105327, Control_c, 0, 64, 127
2,105368, Note_on_c, 0, 78, 0
2,105493, Note_on_c, 0, 77, 82
2,105510, Note_on_c, 0, 61, 56
2,105512, Note_on_c, 0, 70, 66
2,105521, Control_c, 0, 64, 86
2,105541, Control_c, 0, 64, 64
2,105558, Control_c, 0, 64, 46
2,105571, Note_on_c, 0, 69, 0
2,105580, Control_c, 0, 64, 0
2,105584, Note_on_c, 0, 60, 0
2,105616, Control_c, 0, 64, 14
2,105636, Control_c, 0, 64, 31
2,105654, Control_c, 0, 64, 44
2,105672, Control_c, 0, 64, 55
2,105692, Note_on_c, 0, 70, 0
2,105697, Control_c, 0, 64, 62
2,105712, Control_c, 0, 64, 64
2,105730, Control_c, 0, 64, 67
2,105749, Control_c, 0, 64, 75
2,105772, Control_c, 0, 64, 100
2,105790, Control_c, 0, 64, 127
2,105790, Note_on_c, 0, 61, 0
2,105907, Control_c, 0, 64, 104
2,105908, Note_on_c, 0, 75, 80
2,105919, Note_on_c, 0, 63, 63
2,105923, Note_on_c, 0, 72, 78
2,105924, Control_c, 0, 64, 69
2,105944, Control_c, 0, 64, 54
2,105944, Note_on_c, 0, 77, 0
2,105962, Control_c, 0, 64, 39
2,105982, Control_c, 0, 64, 41
2,106003, Control_c, 0, 64, 52
2,106018, Control_c, 0, 64, 65
2,106038, Control_c, 0, 64, 76
2,106061, Control_c, 0, 64, 118
2,106076, Control_c, 0, 64, 127
2,106106, Note_on_c, 0, 63, 0
2,106106, Note_on_c, 0, 72, 0
2,106106, Note_on_c, 0, 75, 0
2,106354, Note_on_c, 0, 73, 89
2,106358, Note_on_c, 0, 65, 71
2,106365, Control_c, 0, 64, 86
2,106385, Control_c, 0, 64, 62
2,106402, Control_c, 0, 64, 38
2,106422, Control_c, 0, 64, 0
2,106444, Control_c, 0, 64, 14
2,106460, Control_c, 0, 64, 35
2,106479, Control_c, 0, 64, 53
2,106499, Note_on_c, 0, 53, 0
2,106500, Control_c, 0, 64, 67
2,106519, Control_c, 0, 64, 80
2,106530, Note_on_c, 0, 65, 0
2,106539, Control_c, 0, 64, 127
2,106797, Note_on_c, 0, 70, 84
2,106869, Note_on_c, 0, 73, 0
2,106911, Note_on_c, 0, 70, 0
2,107250, Note_on_c, 0, 72, 86
2,107254, Note_on_c, 0, 41, 75
2,107366, Control_c, 0, 64, 104
2,107384, Control_c, 0, 64, 76
2,107403, Control_c, 0, 64, 59
2,107422, Control_c, 0, 64, 37
2,107442, Control_c, 0, 64, 0
2,107576, Control_c, 0, 64, 23
2,107595, Control_c, 0, 64, 33
2,107617, Control_c, 0, 64, 41
2,107633, Control_c, 0, 64, 50
2,107653, Control_c, 0, 64, 61
2,107672, Control_c, 0, 64, 67
2,107683, Note_on_c, 0, 69, 76
2,107690, Control_c, 0, 64, 71
2,107710, Control_c, 0, 64, 78
2,107729, Control_c, 0, 64, 89
2,107749, Control_c, 0, 64, 127
2,108246, Note_on_c, 0, 70, 78
2,108251, Note_on_c, 0, 42, 75
2,108282, Note_on_c, 0, 69, 0
2,108365, Control_c, 0, 64, 103
2,108369, Note_on_c, 0, 72, 0
2,108382, Control_c, 0, 64, 81
2,108400, Note_on_c, 0, 41, 0
2,108405, Control_c, 0, 64, 68
2,108424, Control_c, 0, 64, 60
2,108440, Control_c, 0, 64, 51
2,108460, Control_c, 0, 64, 38
2,108478, Control_c, 0, 64, 0
2,108805, Control_c, 0, 64, 20
2,108825, Control_c, 0, 64, 38
2,108834, Note_on_c, 0, 65, 56
2,108838, Note_on_c, 0, 68, 70
2,108842, Control_c, 0, 64, 55
2,108864, Control_c, 0, 64, 65
2,108881, Control_c, 0, 64, 69
2,108900, Control_c, 0, 64, 74
2,108923, Control_c, 0, 64, 84
2,108942, Control_c, 0, 64, 127
2,109035, Note_on_c, 0, 65, 0
2,109268, Control_c, 0, 64, 108
2,109285, Control_c, 0, 64, 71
2,109290, Note_on_c, 0, 66, 69
2,109307, Control_c, 0, 64, 56
2,109307, Note_on_c, 0, 63, 51
2,109325, Note_on_c, 0, 68, 0
2,109326, Control_c, 0, 64, 44
2,109344, Control_c, 0, 64, 48
2,109361, Control_c, 0, 64, 55
2,109381, Control_c, 0, 64, 62
2,109402, Control_c, 0, 64, 69
2,109422, Control_c, 0, 64, 84
2,109438, Control_c, 0, 64, 127
2,109490, Note_on_c, 0, 63, 0
2,109668, Control_c, 0, 64, 95
2,109689, Control_c, 0, 64, 68
2,109706, Note_on_c, 0, 65, 62
2,109709, Control_c, 0, 64, 56
2,109726, Control_c, 0, 64, 51
2,109746, Control_c, 0, 64, 57
2,109755, Note_on_c, 0, 61, 42
2,109759, Note_on_c, 0, 70, 0
2,109768, Control_c, 0, 64, 63
2,109789, Control_c, 0, 64, 70
2,109803, Control_c, 0, 64, 88
2,109812, Note_on_c, 0, 66, 0
2,109822, Control_c, 0, 64, 127
2,109862, Note_on_c, 0, 65, 0
2,109900, Note_on_c, 0, 61, 0
2,110107, Note_on_c, 0, 68, 67
2,110124, Note_on_c, 0, 63, 59
2,110131, Control_c, 0, 64, 116
2,110144, Note_on_c, 0, 59, 55
2,110153, Control_c, 0, 64, 69
2,110167, Control_c, 0, 64, 54
2,110191, Control_c, 0, 64, 36
2,110208, Control_c, 0, 64, 32
2,110227, Control_c, 0, 64, 37
2,110246, Control_c, 0, 64, 48
2,110265, Control_c, 0, 64, 59
2,110283, Control_c, 0, 64, 65
2,110304, Control_c, 0, 64, 70
2,110321, Control_c, 0, 64, 73
2,110342, Control_c, 0, 64, 76
2,110361, Control_c, 0, 64, 80
2,110382, Control_c, 0, 64, 86
2,110398, Control_c, 0, 64, 93
2,110418, Control_c, 0, 64, 101
2,110437, Control_c, 0, 64, 109
2,110455, Control_c, 0, 64, 116
2,110475, Control_c, 0, 64, 122
2,110495, Control_c, 0, 64, 127
2,110555, Note_on_c, 0, 41, 58
2,110579, Note_on_c, 0, 63, 0
2,110596, Note_on_c, 0, 62, 61
2,110650, Control_c, 0, 64, 115
2,110661, Note_on_c, 0, 42, 0
2,110668, Control_c, 0, 64, 110
2,110687, Control_c, 0, 64, 107
2,110707, Control_c, 0, 64, 103
2,110726, Control_c, 0, 64, 97
2,110743, Control_c, 0, 64, 89
2,110765, Control_c, 0, 64, 81
2,110778, Note_on_c, 0, 63, 56
2,110782, Control_c, 0, 64, 75
2,110804, Control_c, 0, 64, 71
2,110823, Control_c, 0, 64, 68
2,110823, Note_on_c, 0, 62, 0
2,110840, Control_c, 0, 64, 65
2,110858, Control_c, 0, 64, 62
2,110878, Control_c, 0, 64, 60
2,110898, Control_c, 0, 64, 58
2,110918, Control_c, 0, 64, 57
2,110935, Control_c, 0, 64, 55
2,110955, Control_c, 0, 64, 54
2,110976, Control_c, 0, 64, 51
2,110995, Control_c, 0, 64, 47
2,111004, Note_on_c, 0, 39, 49
2,111016, Control_c, 0, 64, 43
2,111016, Note_on_c, 0, 65, 54
2,111031, Control_c, 0, 64, 38
2,111051, Control_c, 0, 64, 29
2,111072, Control_c, 0, 64, 8
2,111079, Note_on_c, 0, 41, 0
2,111093, Control_c, 0, 64, 0
2,111093, Note_on_c, 0, 63, 0
2,111191, Note_on_c, 0, 68, 0
2,111359, Note_on_c, 0, 59, 0
2,111432, Note_on_c, 0, 38, 53
2,111463, Note_on_c, 0, 39, 0
2,111864, Note_on_c, 0, 66, 62
2,111873, Note_on_c, 0, 39, 51
2,111888, Note_on_c, 0, 58, 48
2,111902, Note_on_c, 0, 65, 0
2,111967, Note_on_c, 0, 38, 0
2,112088, Control_c, 0, 64, 22
2,112107, Control_c, 0, 64, 34
2,112127, Control_c, 0, 64, 43
2,112145, Control_c, 0, 64, 50
2,112164, Control_c, 0, 64, 55
2,112185, Control_c, 0, 64, 57
2,112205, Control_c, 0, 64, 59
2,112221, Control_c, 0, 64, 62
2,112243, Control_c, 0, 64, 63
2,112263, Control_c, 0, 64, 65
2,112281, Control_c, 0, 64, 67
2,112299, Control_c, 0, 64, 70
2,112316, Note_on_c, 0, 61, 49
2,112321, Control_c, 0, 64, 77
2,112321, Note_on_c, 0, 65, 60
2,112338, Control_c, 0, 64, 91
2,112358, Control_c, 0, 64, 127
2,112412, Note_on_c, 0, 58, 0
2,112716, Note_on_c, 0, 51, 55
2,112721, Control_c, 0, 64, 107
2,112738, Note_on_c, 0, 63, 64
2,112742, Control_c, 0, 64, 80
2,112742, Note_on_c, 0, 60, 48
2,112764, Control_c, 0, 64, 62
2,112775, Note_on_c, 0, 61, 0
2,112779, Control_c, 0, 64, 28
2,112779, Note_on_c, 0, 39, 0
2,112799, Control_c, 0, 64, 0
2,112878, Note_on_c, 0, 65, 0
2,112894, Note_on_c, 0, 60, 0
2,112898, Control_c, 0, 64, 19
2,112914, Control_c, 0, 64, 37
2,112932, Control_c, 0, 64, 48
2,112952, Control_c, 0, 64, 58
2,112972, Control_c, 0, 64, 62
2,112992, Control_c, 0, 64, 63
2,113028, Control_c, 0, 64, 64
2,113048, Control_c, 0, 64, 65
2,113068, Control_c, 0, 64, 68
2,113088, Control_c, 0, 64, 74
2,113106, Control_c, 0, 64, 84
2,113125, Control_c, 0, 64, 101
2,113134, Note_on_c, 0, 61, 56
2,113150, Note_on_c, 0, 51, 0
2,113150, Note_on_c, 0, 51, 3
2,113150, Note_on_c, 0, 58, 50
2,113154, Control_c, 0, 64, 127
2,113155, Note_on_c, 0, 63, 0
2,113173, Note_on_c, 0, 66, 0
2,113229, Note_on_c, 0, 58, 0
2,113393, Control_c, 0, 64, 112
2,113413, Control_c, 0, 64, 107
2,113433, Control_c, 0, 64, 105
2,113449, Control_c, 0, 64, 104
2,113472, Control_c, 0, 64, 100
2,113489, Control_c, 0, 64, 94
2,113509, Control_c, 0, 64, 89
2,113527, Control_c, 0, 64, 83
2,113547, Control_c, 0, 64, 78
2,113562, Note_on_c, 0, 57, 48
2,113567, Control_c, 0, 64, 72
2,113585, Control_c, 0, 64, 65
2,113604, Control_c, 0, 64, 58
2,113612, Note_on_c, 0, 65, 50
2,113626, Control_c, 0, 64, 49
2,113630, Note_on_c, 0, 60, 36
2,113635, Note_on_c, 0, 51, 0
2,113645, Control_c, 0, 64, 32
2,113661, Control_c, 0, 64, 0
2,113670, Note_on_c, 0, 61, 0
2,113874, Control_c, 0, 64, 22
2,113892, Control_c, 0, 64, 34
2,113912, Control_c, 0, 64, 44
2,113930, Control_c, 0, 64, 52
2,113952, Control_c, 0, 64, 58
2,113968, Control_c, 0, 64, 59
2,113988, Control_c, 0, 64, 60
2,114006, Note_on_c, 0, 49, 36
2,114011, Control_c, 0, 64, 61
2,114028, Control_c, 0, 64, 62
2,114033, Note_on_c, 0, 63, 49
2,114049, Note_on_c, 0, 65, 0
2,114125, Control_c, 0, 64, 63
2,114139, Note_on_c, 0, 57, 0
2,114200, Control_c, 0, 64, 62
2,114211, Note_on_c, 0, 48, 44
2,114216, Note_on_c, 0, 49, 0
2,114296, Control_c, 0, 64, 61
2,114352, Control_c, 0, 64, 60
2,114392, Control_c, 0, 64, 59
2,114410, Control_c, 0, 64, 57
2,114431, Control_c, 0, 64, 55
2,114437, Note_on_c, 0, 60, 0
2,114450, Control_c, 0, 64, 52
2,114467, Control_c, 0, 64, 49
2,114489, Control_c, 0, 64, 39
2,114510, Control_c, 0, 64, 9
2,114526, Note_on_c, 0, 48, 0
2,114530, Control_c, 0, 64, 0
2,114534, Note_on_c, 0, 70, 72
2,114547, Note_on_c, 0, 49, 35
2,114547, Note_on_c, 0, 58, 34
2,114556, Note_on_c, 0, 63, 0
2,114989, Note_on_c, 0, 61, 45
2,114994, Note_on_c, 0, 51, 47
2,115034, Note_on_c, 0, 58, 0
2,115051, Note_on_c, 0, 49, 0
2,115397, Note_on_c, 0, 51, 0
2,115425, Note_on_c, 0, 65, 58
2,115430, Note_on_c, 0, 61, 0
2,115447, Note_on_c, 0, 53, 37
2,115474, Note_on_c, 0, 57, 32
2,115479, Note_on_c, 0, 60, 31
2,115521, Note_on_c, 0, 70, 0
2,115526, Control_c, 0, 64, 13
2,115545, Control_c, 0, 64, 26
2,115564, Control_c, 0, 64, 34
2,115585, Control_c, 0, 64, 39
2,115602, Control_c, 0, 64, 42
2,115622, Control_c, 0, 64, 47
2,115640, Control_c, 0, 64, 54
2,115659, Control_c, 0, 64, 60
2,115679, Control_c, 0, 64, 62
2,115716, Control_c, 0, 64, 64
2,115739, Control_c, 0, 64, 65
2,115758, Control_c, 0, 64, 68
2,115773, Control_c, 0, 64, 74
2,115797, Control_c, 0, 64, 88
2,115813, Control_c, 0, 64, 127
2,115836, Note_on_c, 0, 51, 61
2,115855, Note_on_c, 0, 57, 0
2,115894, Note_on_c, 0, 53, 0
2,115974, Note_on_c, 0, 51, 0
2,116071, Note_on_c, 0, 65, 0
2,116113, Note_on_c, 0, 60, 0
2,116252, Note_on_c, 0, 58, 77
2,116289, Note_on_c, 0, 49, 53
2,116309, Control_c, 0, 64, 90
2,116328, Control_c, 0, 64, 66
2,116345, Control_c, 0, 64, 41
2,116365, Control_c, 0, 64, 0
2,116444, Control_c, 0, 64, 16
2,116460, Control_c, 0, 64, 38
2,116480, Control_c, 0, 64, 57
2,116498, Control_c, 0, 64, 65
2,116518, Control_c, 0, 64, 69
2,116538, Control_c, 0, 64, 76
2,116556, Control_c, 0, 64, 88
2,116576, Control_c, 0, 64, 127
2,116660, Note_on_c, 0, 49, 0
2,116669, Note_on_c, 0, 48, 58
2,116694, Note_on_c, 0, 58, 0
2,116694, Note_on_c, 0, 78, 81
2,116774, Note_on_c, 0, 48, 0
2,117096, Note_on_c, 0, 53, 83
2,117123, Note_on_c, 0, 49, 63
2,117133, Control_c, 0, 64, 78
2,117137, Note_on_c, 0, 77, 73
2,117151, Control_c, 0, 64, 59
2,117170, Control_c, 0, 64, 0
2,117365, Control_c, 0, 64, 28
2,117381, Control_c, 0, 64, 36
2,117401, Control_c, 0, 64, 42
2,117422, Control_c, 0, 64, 51
2,117426, Note_on_c, 0, 49, 0
2,117440, Control_c, 0, 64, 61
2,117460, Control_c, 0, 64, 66
2,117477, Control_c, 0, 64, 72
2,117497, Control_c, 0, 64, 86
2,117517, Control_c, 0, 64, 127
2,117526, Note_on_c, 0, 45, 72
2,117526, Note_on_c, 0, 75, 69
2,117530, Note_on_c, 0, 72, 71
2,117537, Note_on_c, 0, 53, 0
2,117541, Note_on_c, 0, 78, 0
2,117552, Note_on_c, 0, 77, 0
2,117567, Note_on_c, 0, 45, 0
2,117587, Note_on_c, 0, 72, 0
2,117599, Note_on_c, 0, 75, 0
2,117967, Note_on_c, 0, 46, 89
2,117996, Note_on_c, 0, 73, 83
2,118001, Control_c, 0, 64, 80
2,118001, Note_on_c, 0, 70, 70
2,118016, Control_c, 0, 64, 58
2,118034, Control_c, 0, 64, 0
2,118040, Note_on_c, 0, 66, 53
2,118124, Note_on_c, 0, 66, 0
2,118189, Control_c, 0, 64, 43
2,118207, Control_c, 0, 64, 54
2,118228, Control_c, 0, 64, 61
2,118245, Control_c, 0, 64, 63
2,118266, Control_c, 0, 64, 65
2,118286, Control_c, 0, 64, 69
2,118304, Control_c, 0, 64, 80
2,118321, Control_c, 0, 64, 127
2,118383, Note_on_c, 0, 72, 84
2,118392, Note_on_c, 0, 69, 67
2,118398, Note_on_c, 0, 66, 75
2,118398, Note_on_c, 0, 70, 0
2,118426, Note_on_c, 0, 73, 0
2,118533, Note_on_c, 0, 46, 0
2,118597, Note_on_c, 0, 66, 0
2,118764, Control_c, 0, 64, 81
2,118780, Note_on_c, 0, 41, 85
2,118785, Control_c, 0, 64, 52
2,118803, Control_c, 0, 64, 0
2,118807, Note_on_c, 0, 73, 86
2,118830, Note_on_c, 0, 65, 65
2,118834, Note_on_c, 0, 70, 62
2,118845, Note_on_c, 0, 72, 0
2,118880, Control_c, 0, 64, 22
2,118880, Note_on_c, 0, 69, 0
2,118899, Control_c, 0, 64, 52
2,118918, Control_c, 0, 64, 70
2,118929, Note_on_c, 0, 41, 0
2,118940, Control_c, 0, 64, 118
2,118958, Control_c, 0, 64, 127
2,118985, Note_on_c, 0, 73, 0
2,119144, Note_on_c, 0, 70, 0
2,119232, Note_on_c, 0, 75, 82
2,119237, Note_on_c, 0, 65, 0
2,119241, Note_on_c, 0, 60, 82
2,119241, Note_on_c, 0, 69, 71
2,119265, Control_c, 0, 64, 82
2,119283, Control_c, 0, 64, 60
2,119302, Control_c, 0, 64, 42
2,119340, Control_c, 0, 64, 54
2,119356, Note_on_c, 0, 69, 0
2,119360, Control_c, 0, 64, 67
2,119367, Note_on_c, 0, 75, 0
2,119380, Control_c, 0, 64, 110
2,119399, Control_c, 0, 64, 127
2,119668, Note_on_c, 0, 61, 66
2,119673, Note_on_c, 0, 58, 69
2,119673, Note_on_c, 0, 77, 88
2,119677, Note_on_c, 0, 70, 82
2,119687, Control_c, 0, 64, 103
2,119691, Note_on_c, 0, 60, 0
2,119708, Control_c, 0, 64, 65
2,119726, Control_c, 0, 64, 39
2,119744, Control_c, 0, 64, 0
2,119783, Control_c, 0, 64, 30
2,119802, Control_c, 0, 64, 55
2,119822, Control_c, 0, 64, 71
2,119842, Control_c, 0, 64, 101
2,119859, Control_c, 0, 64, 127
2,119859, Note_on_c, 0, 70, 0
2,120005, Note_on_c, 0, 58, 0
2,120007, Note_on_c, 0, 61, 0
2,120093, Note_on_c, 0, 60, 76
2,120097, Note_on_c, 0, 54, 70
2,120097, Note_on_c, 0, 57, 71
2,120097, Note_on_c, 0, 72, 91
2,120097, Note_on_c, 0, 75, 87
2,120108, Control_c, 0, 64, 88
2,120128, Control_c, 0, 64, 63
2,120133, Note_on_c, 0, 77, 0
2,120151, Control_c, 0, 64, 39
2,120166, Control_c, 0, 64, 28
2,120184, Note_on_c, 0, 72, 0
2,120188, Control_c, 0, 64, 45
2,120203, Control_c, 0, 64, 64
2,120208, Note_on_c, 0, 75, 0
2,120223, Control_c, 0, 64, 82
2,120243, Control_c, 0, 64, 127
2,120247, Note_on_c, 0, 60, 0
2,120252, Note_on_c, 0, 57, 0
2,120268, Note_on_c, 0, 54, 0
2,120495, Note_on_c, 0, 73, 94
2,120499, Note_on_c, 0, 61, 78
2,120504, Note_on_c, 0, 53, 75
2,120504, Note_on_c, 0, 70, 81
2,120514, Note_on_c, 0, 58, 73
2,120533, Control_c, 0, 64, 78
2,120550, Control_c, 0, 64, 54
2,120570, Control_c, 0, 64, 0
2,120628, Control_c, 0, 64, 22
2,120646, Control_c, 0, 64, 47
2,120651, Note_on_c, 0, 53, 0
2,120664, Control_c, 0, 64, 63
2,120685, Control_c, 0, 64, 73
2,120707, Control_c, 0, 64, 88
2,120718, Note_on_c, 0, 63, 79
2,120722, Control_c, 0, 64, 127
2,120766, Note_on_c, 0, 58, 0
2,120779, Note_on_c, 0, 73, 0
2,120794, Note_on_c, 0, 63, 0
2,120858, Note_on_c, 0, 70, 0
2,120867, Note_on_c, 0, 61, 0
2,120937, Control_c, 0, 64, 88
2,120946, Note_on_c, 0, 51, 72
2,120948, Note_on_c, 0, 60, 67
2,120948, Note_on_c, 0, 72, 96
2,120953, Control_c, 0, 64, 59
2,120959, Note_on_c, 0, 65, 83
2,120964, Note_on_c, 0, 69, 75
2,120975, Control_c, 0, 64, 0
2,121030, Control_c, 0, 64, 28
2,121050, Control_c, 0, 64, 52
2,121067, Control_c, 0, 64, 66
2,121078, Note_on_c, 0, 60, 0
2,121083, Note_on_c, 0, 51, 0
2,121089, Control_c, 0, 64, 78
2,121108, Control_c, 0, 64, 115
2,121126, Control_c, 0, 64, 127
2,121393, Control_c, 0, 64, 99
2,121400, Note_on_c, 0, 70, 88
2,121409, Note_on_c, 0, 61, 83
2,121417, Control_c, 0, 64, 63
2,121417, Note_on_c, 0, 49, 75
2,121440, Control_c, 0, 64, 0
2,121440, Note_on_c, 0, 65, 0
2,121440, Note_on_c, 0, 72, 0
2,121449, Note_on_c, 0, 69, 0
2,121529, Control_c, 0, 64, 32
2,121549, Control_c, 0, 64, 51
2,121569, Control_c, 0, 64, 63
2,121589, Control_c, 0, 64, 69
2,121606, Control_c, 0, 64, 77
2,121627, Control_c, 0, 64, 88
2,121644, Control_c, 0, 64, 113
2,121663, Control_c, 0, 64, 127
2,121793, Note_on_c, 0, 49, 0
2,121810, Note_on_c, 0, 61, 0
2,121870, Note_on_c, 0, 66, 76
2,121875, Note_on_c, 0, 63, 76
2,121879, Note_on_c, 0, 48, 74
2,121894, Control_c, 0, 64, 110
2,121917, Control_c, 0, 64, 69
2,121935, Control_c, 0, 64, 44
2,121950, Control_c, 0, 64, 0
2,122010, Control_c, 0, 64, 35
2,122028, Control_c, 0, 64, 57
2,122048, Control_c, 0, 64, 71
2,122067, Control_c, 0, 64, 97
2,122087, Control_c, 0, 64, 127
2,122132, Note_on_c, 0, 63, 0
2,122321, Note_on_c, 0, 50, 74
2,122332, Note_on_c, 0, 58, 68
2,122336, Note_on_c, 0, 68, 87
2,122340, Note_on_c, 0, 65, 69
2,122358, Control_c, 0, 64, 98
2,122362, Note_on_c, 0, 48, 0
2,122376, Control_c, 0, 64, 63
2,122384, Note_on_c, 0, 70, 0
2,122393, Control_c, 0, 64, 27
2,122407, Note_on_c, 0, 66, 0
2,122415, Control_c, 0, 64, 0
2,122445, Note_on_c, 0, 65, 0
2,122455, Control_c, 0, 64, 29
2,122474, Control_c, 0, 64, 54
2,122493, Control_c, 0, 64, 69
2,122513, Control_c, 0, 64, 94
2,122533, Control_c, 0, 64, 127
2,122795, Note_on_c, 0, 58, 0
2,122799, Control_c, 0, 64, 93
2,122807, Note_on_c, 0, 51, 77
2,122818, Control_c, 0, 64, 55
2,122818, Note_on_c, 0, 72, 93
2,122829, Note_on_c, 0, 66, 73
2,122833, Note_on_c, 0, 63, 72
2,122838, Control_c, 0, 64, 0
2,122858, Note_on_c, 0, 68, 0
2,122882, Note_on_c, 0, 50, 0
2,122896, Control_c, 0, 64, 34
2,122914, Control_c, 0, 64, 56
2,122934, Control_c, 0, 64, 73
2,122954, Control_c, 0, 64, 127
2,122963, Note_on_c, 0, 63, 0
2,123002, Note_on_c, 0, 72, 0
2,123050, Note_on_c, 0, 66, 0
2,123371, Note_on_c, 0, 73, 93
2,123375, Note_on_c, 0, 53, 79
2,123382, Note_on_c, 0, 61, 79
2,123382, Note_on_c, 0, 65, 77
2,123417, Note_on_c, 0, 51, 0
2,123434, Control_c, 0, 64, 94
2,123453, Control_c, 0, 64, 73
2,123472, Control_c, 0, 64, 61
2,123490, Control_c, 0, 64, 46
2,123511, Control_c, 0, 64, 0
2,123666, Note_on_c, 0, 54, 81
2,123692, Note_on_c, 0, 53, 0
2,123898, Note_on_c, 0, 52, 85
2,123901, Note_on_c, 0, 54, 0
2,124147, Note_on_c, 0, 52, 0
2,124165, Note_on_c, 0, 53, 87
2,124183, Control_c, 0, 64, 22
2,124201, Control_c, 0, 64, 36
2,124221, Control_c, 0, 64, 54
2,124242, Control_c, 0, 64, 66
2,124242, Note_on_c, 0, 73, 0
2,124259, Control_c, 0, 64, 81
2,124278, Control_c, 0, 64, 127
2,124335, Note_on_c, 0, 61, 0
2,124396, Note_on_c, 0, 53, 0
2,124699, Note_on_c, 0, 40, 79
2,124713, Note_on_c, 0, 67, 83
2,124798, Control_c, 0, 64, 89
2,124817, Control_c, 0, 64, 68
2,124835, Control_c, 0, 64, 54
2,124857, Control_c, 0, 64, 22
2,124875, Control_c, 0, 64, 0
2,124894, Note_on_c, 0, 65, 0
2,125415, Control_c, 0, 64, 30
2,125432, Control_c, 0, 64, 43
2,125450, Control_c, 0, 64, 52
2,125471, Control_c, 0, 64, 60
2,125491, Note_on_c, 0, 73, 87
2,125495, Control_c, 0, 64, 65
2,125509, Control_c, 0, 64, 70
2,125529, Control_c, 0, 64, 79
2,125546, Control_c, 0, 64, 106
2,125569, Control_c, 0, 64, 127
2,125691, Note_on_c, 0, 73, 0
2,125990, Note_on_c, 0, 72, 87
2,126001, Note_on_c, 0, 60, 72
2,126066, Control_c, 0, 64, 101
2,126084, Control_c, 0, 64, 68
2,126106, Control_c, 0, 64, 48
2,126122, Control_c, 0, 64, 0
2,126220, Control_c, 0, 64, 32
2,126240, Control_c, 0, 64, 46
2,126258, Control_c, 0, 64, 59
2,126277, Control_c, 0, 64, 63
2,126297, Control_c, 0, 64, 65
2,126315, Control_c, 0, 64, 66
2,126335, Control_c, 0, 64, 69
2,126353, Control_c, 0, 64, 76
2,126373, Control_c, 0, 64, 97
2,126391, Control_c, 0, 64, 127
2,126529, Note_on_c, 0, 70, 76
2,126578, Note_on_c, 0, 72, 0
2,126590, Note_on_c, 0, 67, 0
2,126594, Note_on_c, 0, 60, 0
2,126686, Note_on_c, 0, 70, 0
2,127109, Note_on_c, 0, 41, 72
2,127123, Note_on_c, 0, 70, 76
2,127135, Note_on_c, 0, 65, 64
2,127147, Note_on_c, 0, 60, 59
2,127201, Note_on_c, 0, 40, 0
2,127238, Control_c, 0, 64, 81
2,127258, Control_c, 0, 64, 65
2,127274, Control_c, 0, 64, 52
2,127295, Control_c, 0, 64, 20
2,127313, Control_c, 0, 64, 0
2,127564, Control_c, 0, 64, 26
2,127581, Control_c, 0, 64, 37
2,127602, Control_c, 0, 64, 47
2,127621, Control_c, 0, 64, 56
2,127639, Control_c, 0, 64, 61
2,127659, Control_c, 0, 64, 63
2,127679, Control_c, 0, 64, 64
2,127699, Control_c, 0, 64, 65
2,127717, Control_c, 0, 64, 68
2,127735, Control_c, 0, 64, 75
2,127754, Control_c, 0, 64, 91
2,127772, Note_on_c, 0, 66, 72
2,127776, Control_c, 0, 64, 127
2,127811, Note_on_c, 0, 60, 0
2,127864, Note_on_c, 0, 65, 0
2,127879, Note_on_c, 0, 70, 0
2,127915, Note_on_c, 0, 66, 0
2,128418, Note_on_c, 0, 69, 73
2,128427, Note_on_c, 0, 53, 50
2,128440, Note_on_c, 0, 65, 61
2,128522, Control_c, 0, 64, 91
2,128542, Control_c, 0, 64, 68
2,128564, Control_c, 0, 64, 51
2,128579, Control_c, 0, 64, 0
2,128752, Control_c, 0, 64, 15
2,128772, Control_c, 0, 64, 28
2,128793, Control_c, 0, 64, 40
2,128810, Control_c, 0, 64, 52
2,128830, Control_c, 0, 64, 61
2,128850, Control_c, 0, 64, 65
2,128870, Control_c, 0, 64, 67
2,128888, Control_c, 0, 64, 70
2,128908, Control_c, 0, 64, 79
2,128928, Control_c, 0, 64, 106
2,128946, Control_c, 0, 64, 127
2,129120, Note_on_c, 0, 63, 70
2,129204, Note_on_c, 0, 69, 0
2,129235, Note_on_c, 0, 65, 0
2,129385, Note_on_c, 0, 63, 0
2,130102, Note_on_c, 0, 70, 81
2,130116, Note_on_c, 0, 46, 53
2,130116, Note_on_c, 0, 62, 70
2,130120, Note_on_c, 0, 58, 56
2,130252, Control_c, 0, 64, 88
2,130270, Control_c, 0, 64, 67
2,130292, Control_c, 0, 64, 54
2,130308, Control_c, 0, 64, 30
2,130326, Control_c, 0, 64, 0
2,130404, Note_on_c, 0, 41, 0
2,130691, Control_c, 0, 64, 17
2,130711, Control_c, 0, 64, 30
2,130730, Control_c, 0, 64, 38
2,130752, Control_c, 0, 64, 43
2,130769, Control_c, 0, 64, 46
2,130787, Control_c, 0, 64, 51
2,130807, Control_c, 0, 64, 58
2,130827, Control_c, 0, 64, 62
2,130845, Control_c, 0, 64, 64
2,130865, Control_c, 0, 64, 65
2,130883, Control_c, 0, 64, 67
2,130904, Control_c, 0, 64, 71
2,130921, Control_c, 0, 64, 81
2,130943, Control_c, 0, 64, 122
2,130961, Control_c, 0, 64, 127
2,133150, Note_on_c, 0, 53, 0
2,133319, Note_on_c, 0, 58, 0
2,133332, Note_on_c, 0, 70, 0
2,133381, Note_on_c, 0, 62, 0
2,133476, Note_on_c, 0, 46, 0
2,133687, Control_c, 0, 64, 112
2,133707, Control_c, 0, 64, 106
2,133725, Control_c, 0, 64, 102
2,133745, Control_c, 0, 64, 99
2,133764, Control_c, 0, 64, 96
2,133784, Control_c, 0, 64, 91
2,133803, Control_c, 0, 64, 86
2,133820, Control_c, 0, 64, 82
2,133842, Control_c, 0, 64, 78
2,133862, Control_c, 0, 64, 75
2,133880, Control_c, 0, 64, 73
2,133899, Control_c, 0, 64, 71
2,133917, Control_c, 0, 64, 68
2,133937, Control_c, 0, 64, 65
2,133957, Control_c, 0, 64, 63
2,133975, Control_c, 0, 64, 62
2,134032, Control_c, 0, 64, 61
2,134052, Control_c, 0, 64, 59
2,134071, Control_c, 0, 64, 57
2,134091, Control_c, 0, 64, 55
2,134109, Control_c, 0, 64, 54
2,134148, Control_c, 0, 64, 53
2,134169, Control_c, 0, 64, 51
2,134187, Control_c, 0, 64, 49
2,134204, Control_c, 0, 64, 47
2,134224, Control_c, 0, 64, 46
2,134247, Control_c, 0, 64, 45
2,134264, Control_c, 0, 64, 43
2,134282, Control_c, 0, 64, 41
2,134304, Control_c, 0, 64, 38
2,134321, Control_c, 0, 64, 34
2,134339, Control_c, 0, 64, 32
2,134359, Control_c, 0, 64, 29
2,134379, Control_c, 0, 64, 25
2,134399, Control_c, 0, 64, 15
2,134417, Control_c, 0, 64, 0
2,134418, End_track
0, 0, End_of_file
