0, 0, Header, 1, 2, 480
1, 0, Start_track
1, 0, Tempo, 500000
1, 0, Time_signature, 4, 2, 24, 8
1, 1, End_track
2, 0, Start_track
2, 0, Program_c, 0, 0
2, 0, Control_c, 0, 64, 127
2, 0, Control_c, 0, 66, 0
2, 0, Control_c, 0, 67, 0
2, 960, Note_on_c, 0, 58, 45
2, 960, Note_on_c, 0, 61, 41
2, 1413, Note_on_c, 0, 58, 0
2, 1890, Note_on_c, 0, 70, 46
2, 1899, Note_on_c, 0, 58, 31
2, 1912, Note_on_c, 0, 65, 39
2, 1996, Control_c, 0, 64, 99
2, 2014, Control_c, 0, 64, 72
2, 2033, Control_c, 0, 64, 58
2, 2056, Control_c, 0, 64, 40
2, 2072, Control_c, 0, 64, 28
2, 2111, Control_c, 0, 64, 31
2, 2131, Control_c, 0, 64, 36
2, 2148, Control_c, 0, 64, 45
2, 2171, Control_c, 0, 64, 55
2, 2189, Control_c, 0, 64, 62
2, 2208, Control_c, 0, 64, 65
2, 2226, Control_c, 0, 64, 68
2, 2246, Control_c, 0, 64, 72
2, 2268, Control_c, 0, 64, 81
2, 2272, Note_on_c, 0, 58, 0
2, 2285, Control_c, 0, 64, 97
2, 2290, Note_on_c, 0, 72, 55
2, 2302, Control_c, 0, 64, 127
2, 2339, Note_on_c, 0, 70, 0
2, 2507, Note_on_c, 0, 65, 0
2, 2676, Note_on_c, 0, 72, 0
2, 2695, Note_on_c, 0, 73, 54
2, 2722, Note_on_c, 0, 70, 39
2, 2743, Note_on_c, 0, 58, 28
2, 2783, Control_c, 0, 64, 116
2, 2803, Control_c, 0, 64, 84
2, 2821, Control_c, 0, 64, 66
2, 2841, Control_c, 0, 64, 52
2, 2859, Control_c, 0, 64, 33
2, 2879, Control_c, 0, 64, 24
2, 2898, Control_c, 0, 64, 25
2, 2920, Control_c, 0, 64, 30
2, 2938, Control_c, 0, 64, 37
2, 2955, Control_c, 0, 64, 47
2, 2973, Control_c, 0, 64, 57
2, 2997, Control_c, 0, 64, 63
2, 3016, Control_c, 0, 64, 66
2, 3020, Note_on_c, 0, 70, 0
2, 3031, Note_on_c, 0, 73, 0
2, 3035, Control_c, 0, 64, 68
2, 3053, Control_c, 0, 64, 74
2, 3060, Note_on_c, 0, 58, 0
2, 3073, Control_c, 0, 64, 84
2, 3090, Control_c, 0, 64, 103
2, 3112, Control_c, 0, 64, 127
2, 3152, Note_on_c, 0, 61, 0
2, 3540, Note_on_c, 0, 73, 67
2, 3576, Note_on_c, 0, 65, 37
2, 3576, Note_on_c, 0, 70, 53
2, 3582, Note_on_c, 0, 58, 36
2, 3582, Note_on_c, 0, 61, 37
2, 3980, Note_on_c, 0, 58, 0
2, 3984, Note_on_c, 0, 73, 0
2, 4002, Note_on_c, 0, 61, 0
2, 4002, Note_on_c, 0, 70, 0
2, 4405, Note_on_c, 0, 65, 0
2, 4429, Note_on_c, 0, 73, 73
2, 4442, Note_on_c, 0, 70, 65
2, 4446, Note_on_c, 0, 66, 45
2, 4460, Note_on_c, 0, 58, 40
2, 4460, Note_on_c, 0, 63, 44
2, 4588, Control_c, 0, 64, 94
2, 4607, Control_c, 0, 64, 74
2, 4627, Control_c, 0, 64, 59
2, 4645, Control_c, 0, 64, 34
2, 4664, Control_c, 0, 64, 0
2, 4760, Control_c, 0, 64, 25
2, 4781, Control_c, 0, 64, 43
2, 4799, Control_c, 0, 64, 57
2, 4821, Control_c, 0, 64, 64
2, 4840, Control_c, 0, 64, 67
2, 4858, Control_c, 0, 64, 70
2, 4877, Control_c, 0, 64, 76
2, 4897, Control_c, 0, 64, 88
2, 4915, Control_c, 0, 64, 127
2, 5035, Note_on_c, 0, 58, 0
2, 5104, Note_on_c, 0, 73, 0
2, 5298, Note_on_c, 0, 72, 62
2, 5307, Note_on_c, 0, 69, 45
2, 5340, Note_on_c, 0, 70, 0
2, 5347, Note_on_c, 0, 58, 37
2, 5378, Control_c, 0, 64, 103
2, 5394, Control_c, 0, 64, 76
2, 5414, Control_c, 0, 64, 61
2, 5431, Control_c, 0, 64, 40
2, 5452, Control_c, 0, 64, 0
2, 5548, Control_c, 0, 64, 13
2, 5567, Control_c, 0, 64, 31
2, 5585, Control_c, 0, 64, 45
2, 5605, Control_c, 0, 64, 57
2, 5625, Control_c, 0, 64, 63
2, 5645, Control_c, 0, 64, 65
2, 5664, Control_c, 0, 64, 67
2, 5684, Control_c, 0, 64, 70
2, 5688, Note_on_c, 0, 73, 65
2, 5699, Note_on_c, 0, 70, 58
2, 5704, Control_c, 0, 64, 75
2, 5724, Control_c, 0, 64, 82
2, 5739, Control_c, 0, 64, 92
2, 5759, Control_c, 0, 64, 102
2, 5768, Note_on_c, 0, 58, 0
2, 5772, Note_on_c, 0, 72, 0
2, 5778, Control_c, 0, 64, 110
2, 5794, Note_on_c, 0, 69, 0
2, 5798, Control_c, 0, 64, 115
2, 5913, Control_c, 0, 64, 112
2, 5933, Control_c, 0, 64, 108
2, 5950, Control_c, 0, 64, 102
2, 5971, Control_c, 0, 64, 95
2, 5988, Control_c, 0, 64, 89
2, 6009, Control_c, 0, 64, 83
2, 6029, Control_c, 0, 64, 78
2, 6046, Control_c, 0, 64, 72
2, 6066, Control_c, 0, 64, 65
2, 6075, Note_on_c, 0, 58, 39
2, 6086, Control_c, 0, 64, 58
2, 6105, Control_c, 0, 64, 51
2, 6105, Note_on_c, 0, 75, 66
2, 6118, Note_on_c, 0, 72, 60
2, 6125, Control_c, 0, 64, 41
2, 6144, Control_c, 0, 64, 17
2, 6151, Note_on_c, 0, 73, 0
2, 6163, Control_c, 0, 64, 0
2, 6198, Note_on_c, 0, 70, 0
2, 6375, Control_c, 0, 64, 35
2, 6393, Control_c, 0, 64, 47
2, 6411, Control_c, 0, 64, 54
2, 6431, Control_c, 0, 64, 61
2, 6451, Control_c, 0, 64, 65
2, 6470, Control_c, 0, 64, 70
2, 6487, Control_c, 0, 64, 85
2, 6500, Note_on_c, 0, 72, 0
2, 6509, Control_c, 0, 64, 127
2, 6539, Note_on_c, 0, 75, 0
2, 6617, Note_on_c, 0, 66, 0
2, 6623, Note_on_c, 0, 58, 0
2, 6623, Note_on_c, 0, 63, 0
2, 6905, Note_on_c, 0, 75, 70
2, 6921, Note_on_c, 0, 66, 45
2, 6923, Note_on_c, 0, 72, 66
2, 6932, Note_on_c, 0, 60, 48
2, 6942, Note_on_c, 0, 63, 47
2, 6967, Note_on_c, 0, 58, 43
2, 7009, Control_c, 0, 64, 82
2, 7026, Control_c, 0, 64, 62
2, 7046, Control_c, 0, 64, 20
2, 7064, Control_c, 0, 64, 0
2, 7198, Control_c, 0, 64, 33
2, 7220, Control_c, 0, 64, 49
2, 7239, Control_c, 0, 64, 61
2, 7256, Control_c, 0, 64, 68
2, 7274, Control_c, 0, 64, 81
2, 7296, Control_c, 0, 64, 127
2, 7312, Note_on_c, 0, 60, 0
2, 7343, Note_on_c, 0, 72, 0
2, 7343, Note_on_c, 0, 75, 0
2, 7425, Note_on_c, 0, 58, 0
2, 7784, Note_on_c, 0, 75, 68
2, 7795, Note_on_c, 0, 72, 62
2, 7813, Note_on_c, 0, 61, 40
2, 7822, Note_on_c, 0, 58, 38
2, 7822, Note_on_c, 0, 65, 40
2, 7844, Note_on_c, 0, 66, 0
2, 7875, Control_c, 0, 64, 99
2, 7897, Control_c, 0, 64, 78
2, 7913, Control_c, 0, 64, 64
2, 7931, Control_c, 0, 64, 52
2, 7951, Control_c, 0, 64, 35
2, 7966, Note_on_c, 0, 63, 0
2, 7972, Control_c, 0, 64, 0
2, 8442, Note_on_c, 0, 58, 0
2, 8636, Note_on_c, 0, 73, 60
2, 8645, Note_on_c, 0, 70, 46
2, 8666, Note_on_c, 0, 58, 30
2, 8772, Note_on_c, 0, 72, 0
2, 8787, Note_on_c, 0, 75, 0
2, 9012, Note_on_c, 0, 75, 65
2, 9021, Note_on_c, 0, 72, 59
2, 9114, Note_on_c, 0, 58, 0
2, 9125, Note_on_c, 0, 73, 0
2, 9423, Note_on_c, 0, 58, 42
2, 9436, Note_on_c, 0, 73, 63
2, 9436, Note_on_c, 0, 77, 66
2, 9495, Note_on_c, 0, 75, 0
2, 9500, Note_on_c, 0, 72, 0
2, 9506, Note_on_c, 0, 70, 0
2, 9603, Control_c, 0, 64, 21
2, 9621, Control_c, 0, 64, 38
2, 9643, Control_c, 0, 64, 51
2, 9659, Control_c, 0, 64, 60
2, 9679, Control_c, 0, 64, 63
2, 9699, Control_c, 0, 64, 65
2, 9717, Control_c, 0, 64, 70
2, 9724, Note_on_c, 0, 58, 0
2, 9724, Note_on_c, 0, 65, 0
2, 9734, Note_on_c, 0, 77, 0
2, 9737, Control_c, 0, 64, 84
2, 9755, Control_c, 0, 64, 127
2, 9780, Note_on_c, 0, 61, 0
2, 9799, Note_on_c, 0, 73, 0
2, 10225, Note_on_c, 0, 77, 77
2, 10231, Note_on_c, 0, 73, 69
2, 10247, Note_on_c, 0, 65, 41
2, 10254, Note_on_c, 0, 61, 45
2, 10256, Note_on_c, 0, 58, 43
2, 10658, Note_on_c, 0, 61, 0
2, 10665, Note_on_c, 0, 77, 0
2, 10714, Note_on_c, 0, 73, 0
2, 10749, Note_on_c, 0, 58, 0
2, 10948, Control_c, 0, 64, 120
2, 10964, Control_c, 0, 64, 113
2, 10985, Control_c, 0, 64, 108
2, 11003, Control_c, 0, 64, 104
2, 11023, Control_c, 0, 64, 101
2, 11041, Control_c, 0, 64, 98
2, 11061, Control_c, 0, 64, 96
2, 11070, Note_on_c, 0, 77, 81
2, 11081, Control_c, 0, 64, 93
2, 11086, Note_on_c, 0, 69, 49
2, 11088, Note_on_c, 0, 73, 65
2, 11099, Control_c, 0, 64, 90
2, 11103, Note_on_c, 0, 60, 46
2, 11108, Note_on_c, 0, 58, 49
2, 11119, Control_c, 0, 64, 85
2, 11137, Control_c, 0, 64, 78
2, 11153, Note_on_c, 0, 65, 0
2, 11157, Control_c, 0, 64, 71
2, 11180, Control_c, 0, 64, 62
2, 11196, Control_c, 0, 64, 50
2, 11217, Control_c, 0, 64, 17
2, 11233, Control_c, 0, 64, 0
2, 11368, Control_c, 0, 64, 31
2, 11388, Control_c, 0, 64, 49
2, 11406, Control_c, 0, 64, 61
2, 11427, Control_c, 0, 64, 66
2, 11447, Control_c, 0, 64, 70
2, 11464, Control_c, 0, 64, 78
2, 11483, Control_c, 0, 64, 90
2, 11503, Control_c, 0, 64, 122
2, 11523, Control_c, 0, 64, 127
2, 11708, Note_on_c, 0, 58, 0
2, 11925, Control_c, 0, 64, 107
2, 11932, Note_on_c, 0, 58, 31
2, 11946, Control_c, 0, 64, 95
2, 11951, Note_on_c, 0, 75, 62
2, 11964, Note_on_c, 0, 72, 53
2, 11967, Control_c, 0, 64, 85
2, 11983, Control_c, 0, 64, 75
2, 12002, Control_c, 0, 64, 63
2, 12020, Control_c, 0, 64, 49
2, 12040, Control_c, 0, 64, 0
2, 12049, Note_on_c, 0, 77, 0
2, 12053, Note_on_c, 0, 73, 0
2, 12304, Note_on_c, 0, 77, 79
2, 12313, Note_on_c, 0, 73, 70
2, 12411, Note_on_c, 0, 75, 0
2, 12427, Note_on_c, 0, 72, 0
2, 12478, Note_on_c, 0, 58, 0
2, 12732, Note_on_c, 0, 58, 42
2, 12732, Note_on_c, 0, 78, 82
2, 12751, Note_on_c, 0, 75, 64
2, 12789, Note_on_c, 0, 77, 0
2, 12849, Note_on_c, 0, 69, 0
2, 12885, Control_c, 0, 64, 27
2, 12896, Note_on_c, 0, 73, 0
2, 12904, Control_c, 0, 64, 44
2, 12923, Control_c, 0, 64, 58
2, 12943, Control_c, 0, 64, 64
2, 12961, Control_c, 0, 64, 68
2, 12980, Control_c, 0, 64, 75
2, 13001, Control_c, 0, 64, 93
2, 13005, Note_on_c, 0, 60, 0
2, 13019, Control_c, 0, 64, 127
2, 13019, Note_on_c, 0, 58, 0
2, 13037, Note_on_c, 0, 78, 0
2, 13082, Note_on_c, 0, 75, 0
2, 13548, Note_on_c, 0, 69, 73
2, 13548, Note_on_c, 0, 78, 80
2, 13562, Note_on_c, 0, 75, 69
2, 13580, Note_on_c, 0, 60, 53
2, 13584, Note_on_c, 0, 58, 45
2, 13652, Control_c, 0, 64, 80
2, 13671, Control_c, 0, 64, 58
2, 13693, Control_c, 0, 64, 18
2, 13711, Control_c, 0, 64, 0
2, 13826, Control_c, 0, 64, 18
2, 13845, Control_c, 0, 64, 40
2, 13864, Control_c, 0, 64, 55
2, 13881, Control_c, 0, 64, 63
2, 13905, Control_c, 0, 64, 66
2, 13925, Control_c, 0, 64, 69
2, 13940, Control_c, 0, 64, 76
2, 13960, Control_c, 0, 64, 90
2, 13980, Control_c, 0, 64, 127
2, 14016, Note_on_c, 0, 78, 0
2, 14029, Note_on_c, 0, 75, 0
2, 14124, Note_on_c, 0, 58, 0
2, 14234, Note_on_c, 0, 60, 0
2, 14242, Note_on_c, 0, 69, 0
2, 14469, Note_on_c, 0, 78, 80
2, 14481, Control_c, 0, 64, 100
2, 14486, Note_on_c, 0, 70, 60
2, 14486, Note_on_c, 0, 75, 65
2, 14490, Note_on_c, 0, 58, 48
2, 14499, Control_c, 0, 64, 79
2, 14518, Control_c, 0, 64, 66
2, 14538, Control_c, 0, 64, 53
2, 14555, Control_c, 0, 64, 25
2, 14577, Control_c, 0, 64, 0
2, 14690, Control_c, 0, 64, 18
2, 14707, Control_c, 0, 64, 40
2, 14729, Control_c, 0, 64, 56
2, 14747, Control_c, 0, 64, 65
2, 14765, Control_c, 0, 64, 74
2, 14788, Control_c, 0, 64, 92
2, 14808, Control_c, 0, 64, 127
2, 14841, Note_on_c, 0, 58, 0
2, 14991, Note_on_c, 0, 78, 0
2, 15368, Note_on_c, 0, 75, 0
2, 15373, Note_on_c, 0, 77, 61
2, 15390, Note_on_c, 0, 58, 46
2, 15399, Control_c, 0, 64, 109
2, 15408, Note_on_c, 0, 73, 56
2, 15420, Control_c, 0, 64, 96
2, 15437, Control_c, 0, 64, 87
2, 15458, Control_c, 0, 64, 76
2, 15476, Control_c, 0, 64, 69
2, 15496, Control_c, 0, 64, 64
2, 15517, Control_c, 0, 64, 60
2, 15537, Control_c, 0, 64, 58
2, 15575, Control_c, 0, 64, 57
2, 15592, Control_c, 0, 64, 54
2, 15610, Control_c, 0, 64, 50
2, 15630, Control_c, 0, 64, 45
2, 15653, Control_c, 0, 64, 40
2, 15672, Control_c, 0, 64, 34
2, 15688, Control_c, 0, 64, 27
2, 15709, Control_c, 0, 64, 14
2, 15727, Control_c, 0, 64, 0
2, 15759, Note_on_c, 0, 75, 59
2, 15771, Note_on_c, 0, 60, 55
2, 15818, Note_on_c, 0, 77, 0
2, 15890, Note_on_c, 0, 58, 0
2, 16172, Note_on_c, 0, 61, 54
2, 16177, Note_on_c, 0, 75, 0
2, 16177, Note_on_c, 0, 77, 61
2, 16220, Note_on_c, 0, 60, 0
2, 16379, Control_c, 0, 64, 19
2, 16399, Control_c, 0, 64, 31
2, 16417, Control_c, 0, 64, 45
2, 16438, Control_c, 0, 64, 57
2, 16456, Control_c, 0, 64, 63
2, 16475, Control_c, 0, 64, 67
2, 16495, Control_c, 0, 64, 73
2, 16513, Control_c, 0, 64, 85
2, 16534, Control_c, 0, 64, 127
2, 16605, Note_on_c, 0, 70, 0
2, 16623, Note_on_c, 0, 77, 0
2, 16634, Note_on_c, 0, 61, 0
2, 16712, Note_on_c, 0, 73, 0
2, 16973, Note_on_c, 0, 61, 66
2, 16988, Note_on_c, 0, 77, 62
2, 17002, Note_on_c, 0, 70, 52
2, 17002, Note_on_c, 0, 73, 56
2, 17347, Note_on_c, 0, 61, 0
2, 17369, Note_on_c, 0, 77, 0
2, 17422, Note_on_c, 0, 70, 0
2, 17779, Note_on_c, 0, 61, 63
2, 17782, Control_c, 0, 64, 115
2, 17793, Note_on_c, 0, 67, 61
2, 17793, Note_on_c, 0, 77, 70
2, 17798, Note_on_c, 0, 70, 56
2, 17802, Control_c, 0, 64, 84
2, 17817, Control_c, 0, 64, 67
2, 17839, Control_c, 0, 64, 51
2, 17859, Control_c, 0, 64, 0
2, 18008, Note_on_c, 0, 73, 0
2, 18031, Control_c, 0, 64, 29
2, 18049, Control_c, 0, 64, 41
2, 18069, Control_c, 0, 64, 55
2, 18088, Control_c, 0, 64, 64
2, 18106, Control_c, 0, 64, 69
2, 18126, Control_c, 0, 64, 80
2, 18146, Control_c, 0, 64, 111
2, 18166, Control_c, 0, 64, 127
2, 18218, Note_on_c, 0, 67, 0
2, 18569, Control_c, 0, 64, 103
2, 18587, Control_c, 0, 64, 89
2, 18609, Control_c, 0, 64, 78
2, 18613, Note_on_c, 0, 61, 0
2, 18613, Note_on_c, 0, 66, 50
2, 18613, Note_on_c, 0, 75, 60
2, 18626, Control_c, 0, 64, 69
2, 18646, Control_c, 0, 64, 62
2, 18646, Note_on_c, 0, 60, 44
2, 18669, Control_c, 0, 64, 57
2, 18669, Note_on_c, 0, 77, 0
2, 18683, Control_c, 0, 64, 52
2, 18703, Control_c, 0, 64, 49
2, 18722, Control_c, 0, 64, 46
2, 18740, Control_c, 0, 64, 39
2, 18760, Control_c, 0, 64, 22
2, 18779, Control_c, 0, 64, 0
2, 18981, Note_on_c, 0, 73, 64
2, 18985, Note_on_c, 0, 61, 51
2, 18989, Note_on_c, 0, 75, 0
2, 19018, Note_on_c, 0, 60, 0
2, 19373, Note_on_c, 0, 72, 63
2, 19388, Note_on_c, 0, 63, 45
2, 19392, Note_on_c, 0, 61, 0
2, 19413, Note_on_c, 0, 73, 0
2, 19445, Note_on_c, 0, 70, 0
2, 19534, Note_on_c, 0, 66, 0
2, 19569, Control_c, 0, 64, 29
2, 19585, Control_c, 0, 64, 47
2, 19607, Control_c, 0, 64, 59
2, 19624, Control_c, 0, 64, 63
2, 19644, Control_c, 0, 64, 64
2, 19662, Control_c, 0, 64, 66
2, 19681, Control_c, 0, 64, 72
2, 19703, Control_c, 0, 64, 89
2, 19710, Note_on_c, 0, 63, 0
2, 19720, Control_c, 0, 64, 127
2, 20141, Note_on_c, 0, 73, 71
2, 20145, Note_on_c, 0, 63, 61
2, 20153, Note_on_c, 0, 66, 52
2, 20153, Note_on_c, 0, 70, 60
2, 20226, Note_on_c, 0, 72, 0
2, 20447, Note_on_c, 0, 63, 0
2, 20526, Note_on_c, 0, 75, 77
2, 20681, Note_on_c, 0, 73, 0
2, 20723, Note_on_c, 0, 70, 0
2, 20760, Note_on_c, 0, 66, 0
2, 20873, Control_c, 0, 64, 109
2, 20892, Control_c, 0, 64, 94
2, 20912, Control_c, 0, 64, 84
2, 20930, Control_c, 0, 64, 76
2, 20949, Control_c, 0, 64, 69
2, 20967, Control_c, 0, 64, 64
2, 20976, Note_on_c, 0, 63, 56
2, 20980, Note_on_c, 0, 69, 69
2, 20989, Control_c, 0, 64, 60
2, 21006, Note_on_c, 0, 65, 55
2, 21010, Control_c, 0, 64, 54
2, 21025, Control_c, 0, 64, 45
2, 21044, Control_c, 0, 64, 20
2, 21065, Control_c, 0, 64, 0
2, 21125, Note_on_c, 0, 75, 0
2, 21217, Control_c, 0, 64, 34
2, 21235, Control_c, 0, 64, 52
2, 21257, Control_c, 0, 64, 64
2, 21275, Control_c, 0, 64, 72
2, 21283, Note_on_c, 0, 65, 0
2, 21294, Control_c, 0, 64, 87
2, 21314, Control_c, 0, 64, 127
2, 21372, Note_on_c, 0, 69, 0
2, 21812, Control_c, 0, 64, 106
2, 21831, Control_c, 0, 64, 93
2, 21840, Note_on_c, 0, 61, 47
2, 21840, Note_on_c, 0, 77, 72
2, 21847, Note_on_c, 0, 70, 61
2, 21851, Control_c, 0, 64, 83
2, 21873, Control_c, 0, 64, 76
2, 21889, Control_c, 0, 64, 69
2, 21908, Control_c, 0, 64, 63
2, 21917, Note_on_c, 0, 63, 0
2, 21930, Control_c, 0, 64, 58
2, 21947, Control_c, 0, 64, 56
2, 21965, Control_c, 0, 64, 55
2, 21985, Control_c, 0, 64, 53
2, 22007, Control_c, 0, 64, 48
2, 22024, Control_c, 0, 64, 38
2, 22042, Control_c, 0, 64, 12
2, 22062, Control_c, 0, 64, 0
2, 22222, Note_on_c, 0, 72, 69
2, 22235, Note_on_c, 0, 63, 49
2, 22294, Note_on_c, 0, 61, 0
2, 22444, Note_on_c, 0, 70, 0
2, 22613, Note_on_c, 0, 63, 0
2, 22645, Note_on_c, 0, 73, 67
2, 22655, Note_on_c, 0, 65, 38
2, 22673, Note_on_c, 0, 72, 0
2, 22717, Note_on_c, 0, 77, 0
2, 22737, Control_c, 0, 64, 18
2, 22753, Control_c, 0, 64, 34
2, 22775, Control_c, 0, 64, 46
2, 22792, Control_c, 0, 64, 57
2, 22811, Control_c, 0, 64, 63
2, 22829, Control_c, 0, 64, 67
2, 22849, Control_c, 0, 64, 73
2, 22869, Control_c, 0, 64, 87
2, 22889, Control_c, 0, 64, 127
2, 23013, Note_on_c, 0, 65, 0
2, 23473, Note_on_c, 0, 79, 70
2, 23493, Note_on_c, 0, 65, 32
2, 23762, Note_on_c, 0, 65, 0
2, 23773, Control_c, 0, 64, 122
2, 23788, Control_c, 0, 64, 113
2, 23810, Control_c, 0, 64, 108
2, 23829, Control_c, 0, 64, 104
2, 23847, Control_c, 0, 64, 100
2, 23863, Note_on_c, 0, 81, 73
2, 23868, Control_c, 0, 64, 97
2, 23885, Control_c, 0, 64, 96
2, 23908, Control_c, 0, 64, 95
2, 23928, Control_c, 0, 64, 94
2, 23965, Control_c, 0, 64, 93
2, 23983, Control_c, 0, 64, 92
2, 23999, Note_on_c, 0, 79, 0
2, 24004, Control_c, 0, 64, 91
2, 24040, Control_c, 0, 64, 90
2, 24057, Control_c, 0, 64, 89
2, 24116, Control_c, 0, 64, 88
2, 24195, Control_c, 0, 64, 87
2, 24253, Control_c, 0, 64, 86
2, 24271, Control_c, 0, 64, 84
2, 24288, Control_c, 0, 64, 83
2, 24308, Control_c, 0, 64, 81
2, 24325, Note_on_c, 0, 66, 50
2, 24329, Control_c, 0, 64, 80
2, 24334, Note_on_c, 0, 65, 43
2, 24338, Note_on_c, 0, 82, 76
2, 24347, Control_c, 0, 64, 78
2, 24367, Control_c, 0, 64, 75
2, 24385, Control_c, 0, 64, 70
2, 24392, Note_on_c, 0, 81, 0
2, 24405, Control_c, 0, 64, 64
2, 24425, Control_c, 0, 64, 57
2, 24444, Control_c, 0, 64, 46
2, 24462, Control_c, 0, 64, 0
2, 24542, Note_on_c, 0, 73, 0
2, 24635, Control_c, 0, 64, 31
2, 24653, Control_c, 0, 64, 48
2, 24673, Control_c, 0, 64, 62
2, 24692, Control_c, 0, 64, 66
2, 24712, Control_c, 0, 64, 68
2, 24730, Control_c, 0, 64, 71
2, 24749, Control_c, 0, 64, 77
2, 24770, Control_c, 0, 64, 92
2, 24779, Note_on_c, 0, 65, 0
2, 24789, Control_c, 0, 64, 127
2, 25189, Note_on_c, 0, 72, 53
2, 25225, Note_on_c, 0, 63, 33
2, 25231, Control_c, 0, 64, 118
2, 25251, Control_c, 0, 64, 106
2, 25269, Control_c, 0, 64, 100
2, 25289, Control_c, 0, 64, 94
2, 25307, Control_c, 0, 64, 89
2, 25326, Control_c, 0, 64, 86
2, 25347, Control_c, 0, 64, 83
2, 25365, Control_c, 0, 64, 80
2, 25382, Control_c, 0, 64, 77
2, 25403, Control_c, 0, 64, 74
2, 25423, Control_c, 0, 64, 71
2, 25441, Control_c, 0, 64, 68
2, 25461, Control_c, 0, 64, 66
2, 25480, Control_c, 0, 64, 64
2, 25499, Control_c, 0, 64, 62
2, 25518, Control_c, 0, 64, 61
2, 25555, Control_c, 0, 64, 60
2, 25571, Note_on_c, 0, 73, 64
2, 25575, Control_c, 0, 64, 59
2, 25580, Note_on_c, 0, 61, 35
2, 25595, Control_c, 0, 64, 58
2, 25615, Control_c, 0, 64, 56
2, 25635, Control_c, 0, 64, 54
2, 25653, Control_c, 0, 64, 51
2, 25674, Control_c, 0, 64, 47
2, 25691, Control_c, 0, 64, 41
2, 25711, Control_c, 0, 64, 35
2, 25731, Control_c, 0, 64, 29
2, 25736, Note_on_c, 0, 63, 0
2, 25749, Control_c, 0, 64, 21
2, 25767, Control_c, 0, 64, 0
2, 25813, Note_on_c, 0, 72, 0
2, 25965, Note_on_c, 0, 75, 53
2, 25983, Note_on_c, 0, 60, 36
2, 26041, Note_on_c, 0, 61, 0
2, 26046, Note_on_c, 0, 73, 0
2, 26211, Control_c, 0, 64, 13
2, 26229, Control_c, 0, 64, 27
2, 26247, Control_c, 0, 64, 38
2, 26266, Control_c, 0, 64, 48
2, 26285, Control_c, 0, 64, 56
2, 26308, Control_c, 0, 64, 60
2, 26323, Control_c, 0, 64, 61
2, 26343, Control_c, 0, 64, 62
2, 26364, Control_c, 0, 64, 63
2, 26384, Control_c, 0, 64, 65
2, 26403, Control_c, 0, 64, 67
2, 26421, Control_c, 0, 64, 72
2, 26441, Control_c, 0, 64, 80
2, 26459, Control_c, 0, 64, 94
2, 26478, Control_c, 0, 64, 113
2, 26497, Control_c, 0, 64, 127
2, 26768, Note_on_c, 0, 81, 63
2, 26787, Note_on_c, 0, 58, 42
2, 26848, Note_on_c, 0, 82, 0
2, 26861, Control_c, 0, 64, 109
2, 26884, Control_c, 0, 64, 101
2, 26902, Control_c, 0, 64, 95
2, 26920, Control_c, 0, 64, 90
2, 26920, Note_on_c, 0, 60, 0
2, 26940, Control_c, 0, 64, 86
2, 26961, Control_c, 0, 64, 83
2, 26977, Control_c, 0, 64, 81
2, 26997, Control_c, 0, 64, 79
2, 27016, Control_c, 0, 64, 76
2, 27035, Control_c, 0, 64, 73
2, 27055, Control_c, 0, 64, 69
2, 27073, Control_c, 0, 64, 65
2, 27094, Control_c, 0, 64, 62
2, 27112, Control_c, 0, 64, 60
2, 27131, Control_c, 0, 64, 59
2, 27135, Note_on_c, 0, 82, 73
2, 27169, Control_c, 0, 64, 57
2, 27189, Control_c, 0, 64, 55
2, 27207, Control_c, 0, 64, 50
2, 27227, Control_c, 0, 64, 44
2, 27247, Control_c, 0, 64, 37
2, 27265, Control_c, 0, 64, 28
2, 27285, Control_c, 0, 64, 11
2, 27303, Control_c, 0, 64, 0
2, 27346, Note_on_c, 0, 81, 0
2, 27599, Note_on_c, 0, 57, 46
2, 27633, Note_on_c, 0, 84, 71
2, 27662, Note_on_c, 0, 58, 0
2, 27757, Note_on_c, 0, 82, 0
2, 27794, Note_on_c, 0, 75, 0
2, 27957, Control_c, 0, 64, 18
2, 27975, Control_c, 0, 64, 35
2, 27993, Control_c, 0, 64, 47
2, 28017, Control_c, 0, 64, 57
2, 28033, Control_c, 0, 64, 61
2, 28054, Control_c, 0, 64, 62
2, 28071, Control_c, 0, 64, 63
2, 28090, Control_c, 0, 64, 65
2, 28110, Control_c, 0, 64, 70
2, 28131, Control_c, 0, 64, 85
2, 28147, Control_c, 0, 64, 127
2, 28489, Note_on_c, 0, 78, 53
2, 28500, Note_on_c, 0, 75, 49
2, 28533, Control_c, 0, 64, 99
2, 28552, Control_c, 0, 64, 70
2, 28571, Control_c, 0, 64, 55
2, 28591, Control_c, 0, 64, 37
2, 28611, Control_c, 0, 64, 38
2, 28629, Control_c, 0, 64, 47
2, 28649, Control_c, 0, 64, 58
2, 28667, Control_c, 0, 64, 66
2, 28685, Control_c, 0, 64, 71
2, 28702, Note_on_c, 0, 75, 0
2, 28706, Control_c, 0, 64, 82
2, 28711, Note_on_c, 0, 78, 0
2, 28726, Control_c, 0, 64, 102
2, 28744, Control_c, 0, 64, 127
2, 28882, Note_on_c, 0, 77, 51
2, 28891, Note_on_c, 0, 73, 51
2, 28919, Control_c, 0, 64, 116
2, 28936, Control_c, 0, 64, 76
2, 28957, Control_c, 0, 64, 59
2, 28975, Control_c, 0, 64, 51
2, 28997, Control_c, 0, 64, 55
2, 29012, Control_c, 0, 64, 60
2, 29028, Note_on_c, 0, 77, 0
2, 29033, Control_c, 0, 64, 63
2, 29053, Control_c, 0, 64, 66
2, 29058, Note_on_c, 0, 84, 0
2, 29069, Control_c, 0, 64, 71
2, 29091, Control_c, 0, 64, 81
2, 29108, Control_c, 0, 64, 101
2, 29128, Control_c, 0, 64, 127
2, 29139, Note_on_c, 0, 73, 0
2, 29293, Note_on_c, 0, 75, 43
2, 29317, Note_on_c, 0, 72, 46
2, 29362, Control_c, 0, 64, 120
2, 29379, Control_c, 0, 64, 82
2, 29397, Control_c, 0, 64, 66
2, 29415, Control_c, 0, 64, 56
2, 29436, Control_c, 0, 64, 48
2, 29454, Control_c, 0, 64, 47
2, 29473, Control_c, 0, 64, 50
2, 29491, Control_c, 0, 64, 55
2, 29512, Control_c, 0, 64, 60
2, 29529, Control_c, 0, 64, 63
2, 29549, Control_c, 0, 64, 65
2, 29569, Control_c, 0, 64, 68
2, 29591, Control_c, 0, 64, 74
2, 29608, Control_c, 0, 64, 86
2, 29628, Control_c, 0, 64, 127
2, 29684, Note_on_c, 0, 57, 0
2, 29801, Note_on_c, 0, 75, 0
2, 30128, Note_on_c, 0, 84, 68
2, 30166, Note_on_c, 0, 57, 46
2, 30312, Note_on_c, 0, 72, 0
2, 30492, Note_on_c, 0, 82, 72
2, 30516, Note_on_c, 0, 58, 56
2, 30526, Note_on_c, 0, 66, 0
2, 30530, Control_c, 0, 64, 115
2, 30547, Control_c, 0, 64, 110
2, 30570, Control_c, 0, 64, 106
2, 30579, Note_on_c, 0, 57, 0
2, 30588, Control_c, 0, 64, 101
2, 30606, Control_c, 0, 64, 96
2, 30628, Control_c, 0, 64, 92
2, 30643, Control_c, 0, 64, 88
2, 30666, Control_c, 0, 64, 85
2, 30670, Note_on_c, 0, 84, 0
2, 30687, Control_c, 0, 64, 83
2, 30702, Control_c, 0, 64, 79
2, 30722, Control_c, 0, 64, 76
2, 30740, Control_c, 0, 64, 72
2, 30761, Control_c, 0, 64, 69
2, 30779, Control_c, 0, 64, 67
2, 30796, Control_c, 0, 64, 66
2, 30816, Control_c, 0, 64, 65
2, 30854, Control_c, 0, 64, 64
2, 30894, Control_c, 0, 64, 63
2, 30915, Control_c, 0, 64, 61
2, 30934, Control_c, 0, 64, 60
2, 30939, Note_on_c, 0, 81, 69
2, 30953, Control_c, 0, 64, 58
2, 30967, Note_on_c, 0, 60, 43
2, 30971, Control_c, 0, 64, 56
2, 30989, Control_c, 0, 64, 53
2, 31008, Control_c, 0, 64, 49
2, 31030, Control_c, 0, 64, 43
2, 31034, Note_on_c, 0, 82, 0
2, 31047, Control_c, 0, 64, 34
2, 31068, Control_c, 0, 64, 11
2, 31075, Note_on_c, 0, 58, 0
2, 31087, Control_c, 0, 64, 0
2, 31846, Note_on_c, 0, 75, 51
2, 31864, Note_on_c, 0, 72, 38
2, 32222, Note_on_c, 0, 73, 54
2, 32249, Note_on_c, 0, 70, 32
2, 32271, Note_on_c, 0, 72, 0
2, 32307, Note_on_c, 0, 75, 0
2, 32575, Note_on_c, 0, 81, 0
2, 32619, Note_on_c, 0, 69, 37
2, 32624, Note_on_c, 0, 72, 49
2, 32710, Note_on_c, 0, 70, 0
2, 32757, Note_on_c, 0, 73, 0
2, 32815, Control_c, 0, 64, 11
2, 32835, Control_c, 0, 64, 27
2, 32853, Control_c, 0, 64, 39
2, 32870, Control_c, 0, 64, 49
2, 32890, Control_c, 0, 64, 56
2, 32910, Control_c, 0, 64, 60
2, 32932, Control_c, 0, 64, 61
2, 32936, Note_on_c, 0, 60, 0
2, 32948, Control_c, 0, 64, 63
2, 32968, Control_c, 0, 64, 65
2, 32985, Control_c, 0, 64, 68
2, 33008, Control_c, 0, 64, 73
2, 33024, Control_c, 0, 64, 83
2, 33045, Control_c, 0, 64, 98
2, 33067, Control_c, 0, 64, 127
2, 33412, Note_on_c, 0, 81, 69
2, 33424, Note_on_c, 0, 60, 44
2, 33707, Note_on_c, 0, 69, 0
2, 33782, Note_on_c, 0, 84, 75
2, 33791, Note_on_c, 0, 61, 45
2, 33858, Note_on_c, 0, 81, 0
2, 33935, Note_on_c, 0, 60, 0
2, 33949, Control_c, 0, 64, 104
2, 33965, Control_c, 0, 64, 92
2, 33987, Control_c, 0, 64, 84
2, 34005, Control_c, 0, 64, 78
2, 34024, Control_c, 0, 64, 74
2, 34043, Control_c, 0, 64, 71
2, 34061, Control_c, 0, 64, 68
2, 34084, Control_c, 0, 64, 66
2, 34101, Control_c, 0, 64, 64
2, 34120, Control_c, 0, 64, 62
2, 34139, Control_c, 0, 64, 61
2, 34158, Control_c, 0, 64, 60
2, 34179, Control_c, 0, 64, 59
2, 34197, Control_c, 0, 64, 57
2, 34199, Note_on_c, 0, 77, 75
2, 34218, Control_c, 0, 64, 54
2, 34223, Note_on_c, 0, 63, 45
2, 34232, Note_on_c, 0, 61, 0
2, 34236, Control_c, 0, 64, 50
2, 34255, Control_c, 0, 64, 43
2, 34255, Note_on_c, 0, 72, 0
2, 34275, Control_c, 0, 64, 33
2, 34292, Control_c, 0, 64, 19
2, 34312, Control_c, 0, 64, 0
2, 34317, Note_on_c, 0, 84, 0
2, 35004, Note_on_c, 0, 69, 46
2, 35027, Note_on_c, 0, 65, 31
2, 35366, Note_on_c, 0, 70, 57
2, 35385, Note_on_c, 0, 67, 40
2, 35411, Note_on_c, 0, 69, 0
2, 35473, Note_on_c, 0, 65, 0
2, 35785, Note_on_c, 0, 72, 54
2, 35802, Note_on_c, 0, 69, 36
2, 35806, Note_on_c, 0, 70, 0
2, 35825, Note_on_c, 0, 67, 0
2, 35944, Control_c, 0, 64, 9
2, 35963, Control_c, 0, 64, 28
2, 35981, Control_c, 0, 64, 40
2, 36000, Control_c, 0, 64, 52
2, 36022, Control_c, 0, 64, 60
2, 36038, Control_c, 0, 64, 62
2, 36058, Control_c, 0, 64, 63
2, 36077, Control_c, 0, 64, 64
2, 36097, Control_c, 0, 64, 66
2, 36117, Control_c, 0, 64, 69
2, 36134, Control_c, 0, 64, 74
2, 36154, Control_c, 0, 64, 82
2, 36174, Control_c, 0, 64, 93
2, 36194, Control_c, 0, 64, 109
2, 36205, Note_on_c, 0, 72, 0
2, 36215, Control_c, 0, 64, 127
2, 36215, Note_on_c, 0, 63, 0
2, 36594, Note_on_c, 0, 72, 58
2, 36607, Note_on_c, 0, 63, 37
2, 36655, Control_c, 0, 64, 116
2, 36672, Control_c, 0, 64, 112
2, 36693, Control_c, 0, 64, 109
2, 36711, Control_c, 0, 64, 106
2, 36733, Control_c, 0, 64, 104
2, 36750, Control_c, 0, 64, 103
2, 36770, Control_c, 0, 64, 101
2, 36791, Control_c, 0, 64, 100
2, 36806, Control_c, 0, 64, 99
2, 36827, Control_c, 0, 64, 98
2, 36864, Control_c, 0, 64, 97
2, 36883, Control_c, 0, 64, 95
2, 36903, Control_c, 0, 64, 94
2, 36924, Control_c, 0, 64, 92
2, 36937, Note_on_c, 0, 73, 68
2, 36941, Control_c, 0, 64, 91
2, 36952, Note_on_c, 0, 61, 42
2, 36961, Control_c, 0, 64, 89
2, 36981, Control_c, 0, 64, 88
2, 36995, Note_on_c, 0, 63, 0
2, 37001, Control_c, 0, 64, 86
2, 37019, Control_c, 0, 64, 85
2, 37035, Note_on_c, 0, 72, 0
2, 37039, Control_c, 0, 64, 83
2, 37057, Control_c, 0, 64, 82
2, 37078, Control_c, 0, 64, 80
2, 37095, Control_c, 0, 64, 79
2, 37115, Control_c, 0, 64, 77
2, 37133, Control_c, 0, 64, 75
2, 37155, Control_c, 0, 64, 73
2, 37173, Control_c, 0, 64, 71
2, 37190, Control_c, 0, 64, 68
2, 37212, Control_c, 0, 64, 66
2, 37230, Control_c, 0, 64, 65
2, 37251, Note_on_c, 0, 69, 0
2, 37268, Control_c, 0, 64, 64
2, 37308, Control_c, 0, 64, 63
2, 37326, Control_c, 0, 64, 61
2, 37345, Control_c, 0, 64, 59
2, 37364, Control_c, 0, 64, 57
2, 37368, Note_on_c, 0, 60, 37
2, 37384, Control_c, 0, 64, 54
2, 37384, Note_on_c, 0, 75, 61
2, 37402, Control_c, 0, 64, 46
2, 37423, Control_c, 0, 64, 23
2, 37443, Control_c, 0, 64, 0
2, 37447, Note_on_c, 0, 61, 0
2, 37481, Note_on_c, 0, 73, 0
2, 37576, Control_c, 0, 64, 11
2, 37595, Control_c, 0, 64, 33
2, 37612, Control_c, 0, 64, 50
2, 37634, Control_c, 0, 64, 60
2, 37652, Control_c, 0, 64, 65
2, 37673, Control_c, 0, 64, 67
2, 37690, Control_c, 0, 64, 71
2, 37709, Control_c, 0, 64, 78
2, 37732, Control_c, 0, 64, 91
2, 37747, Control_c, 0, 64, 127
2, 37810, Note_on_c, 0, 60, 0
2, 38145, Note_on_c, 0, 72, 65
2, 38170, Note_on_c, 0, 60, 51
2, 38170, Note_on_c, 0, 69, 52
2, 38323, Note_on_c, 0, 69, 0
2, 38384, Control_c, 0, 64, 122
2, 38399, Control_c, 0, 64, 113
2, 38420, Control_c, 0, 64, 109
2, 38441, Control_c, 0, 64, 105
2, 38458, Control_c, 0, 64, 102
2, 38477, Control_c, 0, 64, 99
2, 38496, Control_c, 0, 64, 97
2, 38516, Control_c, 0, 64, 96
2, 38521, Note_on_c, 0, 73, 77
2, 38525, Note_on_c, 0, 58, 56
2, 38529, Note_on_c, 0, 70, 61
2, 38539, Control_c, 0, 64, 95
2, 38554, Control_c, 0, 64, 94
2, 38572, Control_c, 0, 64, 92
2, 38596, Control_c, 0, 64, 90
2, 38596, Note_on_c, 0, 72, 0
2, 38612, Control_c, 0, 64, 87
2, 38617, Note_on_c, 0, 75, 0
2, 38630, Control_c, 0, 64, 85
2, 38649, Control_c, 0, 64, 83
2, 38671, Control_c, 0, 64, 81
2, 38689, Control_c, 0, 64, 80
2, 38700, Note_on_c, 0, 60, 0
2, 38709, Control_c, 0, 64, 78
2, 38727, Control_c, 0, 64, 76
2, 38747, Control_c, 0, 64, 74
2, 38765, Control_c, 0, 64, 72
2, 38786, Control_c, 0, 64, 71
2, 38807, Control_c, 0, 64, 70
2, 38824, Control_c, 0, 64, 69
2, 38841, Control_c, 0, 64, 68
2, 38862, Control_c, 0, 64, 67
2, 38881, Control_c, 0, 64, 66
2, 38901, Control_c, 0, 64, 65
2, 38919, Control_c, 0, 64, 63
2, 38939, Control_c, 0, 64, 62
2, 38958, Control_c, 0, 64, 61
2, 38977, Control_c, 0, 64, 60
2, 38986, Note_on_c, 0, 75, 66
2, 39010, Note_on_c, 0, 57, 48
2, 39010, Note_on_c, 0, 72, 46
2, 39014, Control_c, 0, 64, 59
2, 39036, Control_c, 0, 64, 57
2, 39036, Note_on_c, 0, 70, 0
2, 39055, Control_c, 0, 64, 55
2, 39073, Control_c, 0, 64, 53
2, 39092, Control_c, 0, 64, 49
2, 39112, Control_c, 0, 64, 45
2, 39123, Note_on_c, 0, 73, 0
2, 39132, Control_c, 0, 64, 37
2, 39152, Control_c, 0, 64, 28
2, 39155, Note_on_c, 0, 58, 0
2, 39170, Control_c, 0, 64, 15
2, 39190, Control_c, 0, 64, 0
2, 39793, Note_on_c, 0, 69, 40
2, 39804, Note_on_c, 0, 55, 39
2, 39932, Note_on_c, 0, 57, 0
2, 40188, Note_on_c, 0, 53, 50
2, 40218, Note_on_c, 0, 55, 0
2, 40665, Note_on_c, 0, 77, 0
2, 40683, Note_on_c, 0, 65, 50
2, 40721, Note_on_c, 0, 58, 36
2, 40728, Note_on_c, 0, 69, 0
2, 40790, Note_on_c, 0, 72, 0
2, 40790, Note_on_c, 0, 75, 0
2, 40870, Note_on_c, 0, 53, 0
2, 41316, Control_c, 0, 64, 17
2, 41336, Control_c, 0, 64, 27
2, 41354, Control_c, 0, 64, 31
2, 41374, Control_c, 0, 64, 35
2, 41394, Control_c, 0, 64, 40
2, 41412, Control_c, 0, 64, 47
2, 41431, Control_c, 0, 64, 54
2, 41449, Control_c, 0, 64, 58
2, 41469, Control_c, 0, 64, 59
2, 41508, Control_c, 0, 64, 60
2, 41528, Control_c, 0, 64, 61
2, 41546, Control_c, 0, 64, 62
2, 41565, Control_c, 0, 64, 63
2, 41588, Control_c, 0, 64, 64
2, 41623, Control_c, 0, 64, 65
2, 41639, Note_on_c, 0, 77, 49
2, 41643, Control_c, 0, 64, 67
2, 41665, Control_c, 0, 64, 70
2, 41679, Control_c, 0, 64, 75
2, 41701, Control_c, 0, 64, 83
2, 41701, Note_on_c, 0, 73, 38
2, 41722, Control_c, 0, 64, 96
2, 41738, Control_c, 0, 64, 127
2, 42040, Note_on_c, 0, 75, 58
2, 42044, Note_on_c, 0, 72, 57
2, 42093, Note_on_c, 0, 73, 0
2, 42353, Control_c, 0, 64, 113
2, 42373, Control_c, 0, 64, 108
2, 42392, Control_c, 0, 64, 104
2, 42410, Control_c, 0, 64, 100
2, 42430, Control_c, 0, 64, 95
2, 42450, Control_c, 0, 64, 90
2, 42455, Note_on_c, 0, 73, 68
2, 42459, Note_on_c, 0, 70, 51
2, 42468, Control_c, 0, 64, 81
2, 42486, Control_c, 0, 64, 70
2, 42508, Control_c, 0, 64, 61
2, 42526, Control_c, 0, 64, 47
2, 42531, Note_on_c, 0, 72, 0
2, 42545, Control_c, 0, 64, 24
2, 42565, Control_c, 0, 64, 0
2, 42642, Control_c, 0, 64, 22
2, 42660, Control_c, 0, 64, 38
2, 42682, Control_c, 0, 64, 52
2, 42687, Note_on_c, 0, 77, 0
2, 42689, Note_on_c, 0, 75, 0
2, 42697, Control_c, 0, 64, 62
2, 42718, Control_c, 0, 64, 66
2, 42738, Control_c, 0, 64, 67
2, 42756, Control_c, 0, 64, 69
2, 42775, Control_c, 0, 64, 72
2, 42796, Control_c, 0, 64, 79
2, 42816, Control_c, 0, 64, 91
2, 42833, Control_c, 0, 64, 122
2, 42851, Control_c, 0, 64, 127
2, 42967, Note_on_c, 0, 70, 0
2, 43297, Note_on_c, 0, 65, 0
2, 43300, Note_on_c, 0, 75, 63
2, 43315, Note_on_c, 0, 66, 40
2, 43315, Note_on_c, 0, 69, 48
2, 43352, Control_c, 0, 64, 109
2, 43369, Control_c, 0, 64, 101
2, 43387, Note_on_c, 0, 73, 0
2, 43391, Control_c, 0, 64, 94
2, 43408, Control_c, 0, 64, 89
2, 43426, Control_c, 0, 64, 85
2, 43449, Control_c, 0, 64, 82
2, 43468, Control_c, 0, 64, 80
2, 43485, Control_c, 0, 64, 78
2, 43505, Control_c, 0, 64, 74
2, 43525, Control_c, 0, 64, 71
2, 43543, Control_c, 0, 64, 67
2, 43563, Control_c, 0, 64, 64
2, 43581, Control_c, 0, 64, 62
2, 43602, Control_c, 0, 64, 61
2, 43639, Control_c, 0, 64, 60
2, 43659, Control_c, 0, 64, 59
2, 43677, Control_c, 0, 64, 57
2, 43696, Control_c, 0, 64, 54
2, 43716, Control_c, 0, 64, 50
2, 43721, Note_on_c, 0, 72, 61
2, 43735, Control_c, 0, 64, 44
2, 43750, Note_on_c, 0, 63, 38
2, 43756, Control_c, 0, 64, 38
2, 43774, Note_on_c, 0, 69, 0
2, 43778, Control_c, 0, 64, 32
2, 43791, Control_c, 0, 64, 25
2, 43802, Note_on_c, 0, 66, 0
2, 43813, Control_c, 0, 64, 0
2, 43826, Note_on_c, 0, 75, 0
2, 44172, Note_on_c, 0, 72, 0
2, 44189, Note_on_c, 0, 63, 0
2, 44189, Note_on_c, 0, 73, 50
2, 44211, Note_on_c, 0, 65, 31
2, 44215, Note_on_c, 0, 70, 40
2, 44292, Control_c, 0, 64, 14
2, 44310, Control_c, 0, 64, 29
2, 44331, Control_c, 0, 64, 41
2, 44350, Control_c, 0, 64, 53
2, 44368, Control_c, 0, 64, 60
2, 44390, Control_c, 0, 64, 62
2, 44428, Control_c, 0, 64, 63
2, 44446, Control_c, 0, 64, 65
2, 44466, Control_c, 0, 64, 68
2, 44485, Note_on_c, 0, 70, 0
2, 44489, Control_c, 0, 64, 73
2, 44504, Control_c, 0, 64, 82
2, 44522, Control_c, 0, 64, 90
2, 44541, Control_c, 0, 64, 97
2, 44561, Control_c, 0, 64, 102
2, 44579, Note_on_c, 0, 73, 0
2, 44583, Control_c, 0, 64, 109
2, 44600, Control_c, 0, 64, 127
2, 45103, Note_on_c, 0, 70, 58
2, 45145, Note_on_c, 0, 61, 36
2, 45328, Control_c, 0, 64, 113
2, 45351, Control_c, 0, 64, 106
2, 45367, Control_c, 0, 64, 101
2, 45386, Control_c, 0, 64, 98
2, 45406, Control_c, 0, 64, 97
2, 45442, Note_on_c, 0, 58, 0
2, 45444, Control_c, 0, 64, 96
2, 45464, Control_c, 0, 64, 95
2, 45479, Note_on_c, 0, 72, 74
2, 45484, Control_c, 0, 64, 92
2, 45488, Note_on_c, 0, 60, 48
2, 45502, Control_c, 0, 64, 89
2, 45522, Control_c, 0, 64, 86
2, 45539, Control_c, 0, 64, 84
2, 45560, Control_c, 0, 64, 82
2, 45577, Control_c, 0, 64, 81
2, 45616, Control_c, 0, 64, 80
2, 45620, Note_on_c, 0, 61, 0
2, 45635, Control_c, 0, 64, 78
2, 45645, Note_on_c, 0, 70, 0
2, 45657, Control_c, 0, 64, 76
2, 45677, Control_c, 0, 64, 73
2, 45693, Control_c, 0, 64, 70
2, 45710, Note_on_c, 0, 65, 0
2, 45714, Control_c, 0, 64, 67
2, 45737, Control_c, 0, 64, 65
2, 45751, Control_c, 0, 64, 63
2, 45770, Control_c, 0, 64, 62
2, 45846, Control_c, 0, 64, 61
2, 45866, Control_c, 0, 64, 60
2, 45884, Note_on_c, 0, 60, 0
2, 45886, Control_c, 0, 64, 57
2, 45904, Control_c, 0, 64, 53
2, 45910, Note_on_c, 0, 73, 74
2, 45926, Control_c, 0, 64, 44
2, 45926, Note_on_c, 0, 58, 41
2, 45944, Control_c, 0, 64, 18
2, 45963, Control_c, 0, 64, 0
2, 46020, Note_on_c, 0, 72, 0
2, 46118, Control_c, 0, 64, 18
2, 46138, Control_c, 0, 64, 36
2, 46156, Control_c, 0, 64, 53
2, 46173, Control_c, 0, 64, 62
2, 46193, Control_c, 0, 64, 64
2, 46213, Control_c, 0, 64, 65
2, 46235, Control_c, 0, 64, 67
2, 46250, Control_c, 0, 64, 71
2, 46272, Control_c, 0, 64, 80
2, 46289, Control_c, 0, 64, 103
2, 46309, Control_c, 0, 64, 127
2, 46365, Note_on_c, 0, 73, 0
2, 46718, Note_on_c, 0, 73, 76
2, 46730, Control_c, 0, 64, 104
2, 46734, Note_on_c, 0, 70, 59
2, 46747, Note_on_c, 0, 56, 43
2, 46747, Note_on_c, 0, 65, 54
2, 46752, Control_c, 0, 64, 93
2, 46765, Note_on_c, 0, 58, 0
2, 46772, Control_c, 0, 64, 77
2, 46789, Control_c, 0, 64, 63
2, 46808, Control_c, 0, 64, 42
2, 46828, Control_c, 0, 64, 0
2, 46904, Control_c, 0, 64, 11
2, 46921, Control_c, 0, 64, 37
2, 46942, Control_c, 0, 64, 54
2, 46961, Control_c, 0, 64, 65
2, 46981, Control_c, 0, 64, 73
2, 46998, Control_c, 0, 64, 88
2, 47021, Control_c, 0, 64, 127
2, 47021, Note_on_c, 0, 65, 0
2, 47060, Note_on_c, 0, 70, 0
2, 47107, Note_on_c, 0, 73, 0
2, 47515, Note_on_c, 0, 73, 82
2, 47542, Note_on_c, 0, 70, 63
2, 47548, Note_on_c, 0, 55, 47
2, 47553, Note_on_c, 0, 56, 0
2, 47553, Note_on_c, 0, 63, 58
2, 47633, Control_c, 0, 64, 84
2, 47652, Control_c, 0, 64, 63
2, 47674, Control_c, 0, 64, 38
2, 47689, Control_c, 0, 64, 0
2, 47805, Control_c, 0, 64, 32
2, 47826, Control_c, 0, 64, 46
2, 47846, Control_c, 0, 64, 58
2, 47850, Note_on_c, 0, 63, 0
2, 47863, Control_c, 0, 64, 64
2, 47885, Control_c, 0, 64, 68
2, 47903, Control_c, 0, 64, 73
2, 47923, Control_c, 0, 64, 85
2, 47923, Note_on_c, 0, 70, 0
2, 47941, Control_c, 0, 64, 127
2, 48309, Note_on_c, 0, 72, 76
2, 48331, Note_on_c, 0, 55, 0
2, 48331, Note_on_c, 0, 68, 59
2, 48342, Note_on_c, 0, 56, 51
2, 48344, Note_on_c, 0, 63, 51
2, 48400, Control_c, 0, 64, 95
2, 48420, Control_c, 0, 64, 80
2, 48438, Control_c, 0, 64, 71
2, 48458, Control_c, 0, 64, 65
2, 48478, Control_c, 0, 64, 60
2, 48496, Control_c, 0, 64, 53
2, 48515, Control_c, 0, 64, 47
2, 48534, Control_c, 0, 64, 37
2, 48557, Control_c, 0, 64, 19
2, 48575, Control_c, 0, 64, 0
2, 48692, Note_on_c, 0, 70, 71
2, 48697, Note_on_c, 0, 55, 55
2, 48701, Note_on_c, 0, 56, 0
2, 48705, Note_on_c, 0, 73, 0
2, 48762, Note_on_c, 0, 72, 0
2, 49076, Note_on_c, 0, 72, 78
2, 49099, Note_on_c, 0, 53, 54
2, 49141, Note_on_c, 0, 70, 0
2, 49147, Note_on_c, 0, 55, 0
2, 49228, Control_c, 0, 64, 32
2, 49248, Control_c, 0, 64, 50
2, 49265, Control_c, 0, 64, 61
2, 49276, Note_on_c, 0, 63, 0
2, 49285, Control_c, 0, 64, 64
2, 49304, Control_c, 0, 64, 65
2, 49322, Control_c, 0, 64, 70
2, 49340, Control_c, 0, 64, 83
2, 49360, Control_c, 0, 64, 127
2, 49373, Note_on_c, 0, 68, 0
2, 49400, Note_on_c, 0, 72, 0
2, 49849, Note_on_c, 0, 72, 80
2, 49865, Note_on_c, 0, 51, 57
2, 49865, Note_on_c, 0, 68, 70
2, 49916, Control_c, 0, 64, 89
2, 49936, Control_c, 0, 64, 65
2, 49956, Control_c, 0, 64, 50
2, 49965, Note_on_c, 0, 53, 0
2, 49976, Control_c, 0, 64, 41
2, 50015, Control_c, 0, 64, 46
2, 50033, Control_c, 0, 64, 56
2, 50051, Control_c, 0, 64, 66
2, 50070, Control_c, 0, 64, 77
2, 50090, Control_c, 0, 64, 127
2, 50172, Note_on_c, 0, 72, 0
2, 50199, Note_on_c, 0, 68, 0
2, 50596, Note_on_c, 0, 72, 84
2, 50609, Note_on_c, 0, 68, 70
2, 50611, Note_on_c, 0, 65, 62
2, 50620, Note_on_c, 0, 51, 0
2, 50624, Note_on_c, 0, 50, 61
2, 50626, Control_c, 0, 64, 92
2, 50648, Control_c, 0, 64, 66
2, 50668, Control_c, 0, 64, 42
2, 50685, Control_c, 0, 64, 0
2, 50781, Control_c, 0, 64, 36
2, 50801, Control_c, 0, 64, 55
2, 50819, Control_c, 0, 64, 66
2, 50838, Control_c, 0, 64, 74
2, 50859, Control_c, 0, 64, 86
2, 50871, Note_on_c, 0, 65, 0
2, 50877, Control_c, 0, 64, 105
2, 50900, Control_c, 0, 64, 127
2, 50918, Note_on_c, 0, 50, 0
2, 50984, Note_on_c, 0, 68, 0
2, 51396, Note_on_c, 0, 70, 71
2, 51398, Note_on_c, 0, 55, 54
2, 51416, Control_c, 0, 64, 116
2, 51420, Note_on_c, 0, 67, 58
2, 51422, Note_on_c, 0, 65, 44
2, 51433, Control_c, 0, 64, 102
2, 51453, Control_c, 0, 64, 92
2, 51473, Control_c, 0, 64, 82
2, 51493, Control_c, 0, 64, 73
2, 51510, Control_c, 0, 64, 66
2, 51530, Control_c, 0, 64, 61
2, 51552, Control_c, 0, 64, 58
2, 51568, Control_c, 0, 64, 56
2, 51590, Control_c, 0, 64, 53
2, 51595, Note_on_c, 0, 72, 0
2, 51606, Control_c, 0, 64, 49
2, 51626, Control_c, 0, 64, 41
2, 51648, Control_c, 0, 64, 26
2, 51664, Control_c, 0, 64, 0
2, 51764, Note_on_c, 0, 68, 74
2, 51778, Note_on_c, 0, 53, 54
2, 51833, Note_on_c, 0, 55, 0
2, 51844, Note_on_c, 0, 70, 0
2, 52167, Note_on_c, 0, 53, 0
2, 52185, Note_on_c, 0, 70, 68
2, 52186, Note_on_c, 0, 52, 50
2, 52193, Note_on_c, 0, 68, 0
2, 52339, Control_c, 0, 64, 13
2, 52359, Control_c, 0, 64, 25
2, 52380, Control_c, 0, 64, 36
2, 52396, Control_c, 0, 64, 47
2, 52418, Control_c, 0, 64, 57
2, 52436, Control_c, 0, 64, 62
2, 52454, Control_c, 0, 64, 63
2, 52473, Control_c, 0, 64, 64
2, 52480, Note_on_c, 0, 65, 0
2, 52493, Control_c, 0, 64, 66
2, 52497, Note_on_c, 0, 67, 0
2, 52515, Control_c, 0, 64, 70
2, 52531, Control_c, 0, 64, 77
2, 52551, Control_c, 0, 64, 88
2, 52555, Note_on_c, 0, 70, 0
2, 52570, Control_c, 0, 64, 110
2, 52588, Control_c, 0, 64, 127
2, 52965, Note_on_c, 0, 67, 60
2, 52965, Note_on_c, 0, 70, 71
2, 52974, Note_on_c, 0, 52, 0
2, 52974, Note_on_c, 0, 55, 49
2, 52988, Note_on_c, 0, 65, 52
2, 53030, Control_c, 0, 64, 96
2, 53050, Control_c, 0, 64, 70
2, 53070, Control_c, 0, 64, 52
2, 53089, Control_c, 0, 64, 8
2, 53108, Control_c, 0, 64, 0
2, 53186, Control_c, 0, 64, 35
2, 53203, Control_c, 0, 64, 52
2, 53224, Control_c, 0, 64, 63
2, 53245, Control_c, 0, 64, 68
2, 53260, Control_c, 0, 64, 74
2, 53280, Control_c, 0, 64, 84
2, 53299, Control_c, 0, 64, 107
2, 53319, Control_c, 0, 64, 127
2, 53353, Note_on_c, 0, 67, 0
2, 53357, Note_on_c, 0, 70, 0
2, 53748, Note_on_c, 0, 55, 0
2, 53802, Note_on_c, 0, 70, 78
2, 53822, Note_on_c, 0, 67, 61
2, 53825, Note_on_c, 0, 48, 48
2, 53831, Note_on_c, 0, 64, 59
2, 53836, Control_c, 0, 64, 120
2, 53845, Note_on_c, 0, 65, 0
2, 53855, Control_c, 0, 64, 99
2, 53875, Control_c, 0, 64, 82
2, 53897, Control_c, 0, 64, 68
2, 53915, Control_c, 0, 64, 53
2, 53935, Control_c, 0, 64, 0
2, 54048, Control_c, 0, 64, 25
2, 54067, Control_c, 0, 64, 43
2, 54090, Control_c, 0, 64, 57
2, 54105, Control_c, 0, 64, 64
2, 54125, Control_c, 0, 64, 68
2, 54134, Note_on_c, 0, 64, 0
2, 54145, Control_c, 0, 64, 75
2, 54156, Note_on_c, 0, 67, 0
2, 54165, Control_c, 0, 64, 86
2, 54182, Control_c, 0, 64, 107
2, 54200, Control_c, 0, 64, 127
2, 54213, Note_on_c, 0, 48, 0
2, 54606, Note_on_c, 0, 68, 75
2, 54617, Note_on_c, 0, 65, 52
2, 54628, Note_on_c, 0, 53, 47
2, 54628, Note_on_c, 0, 60, 52
2, 54684, Control_c, 0, 64, 108
2, 54704, Control_c, 0, 64, 94
2, 54720, Control_c, 0, 64, 86
2, 54738, Control_c, 0, 64, 79
2, 54758, Control_c, 0, 64, 73
2, 54778, Control_c, 0, 64, 68
2, 54800, Control_c, 0, 64, 63
2, 54818, Control_c, 0, 64, 60
2, 54835, Control_c, 0, 64, 57
2, 54855, Control_c, 0, 64, 55
2, 54874, Control_c, 0, 64, 54
2, 54894, Control_c, 0, 64, 52
2, 54912, Control_c, 0, 64, 45
2, 54932, Control_c, 0, 64, 32
2, 54950, Control_c, 0, 64, 0
2, 54963, Note_on_c, 0, 67, 73
2, 54986, Note_on_c, 0, 70, 0
2, 54990, Note_on_c, 0, 51, 48
2, 55037, Note_on_c, 0, 68, 0
2, 55077, Note_on_c, 0, 53, 0
2, 55371, Note_on_c, 0, 68, 72
2, 55377, Note_on_c, 0, 49, 45
2, 55386, Note_on_c, 0, 51, 0
2, 55460, Note_on_c, 0, 67, 0
2, 55526, Control_c, 0, 64, 20
2, 55546, Control_c, 0, 64, 34
2, 55567, Control_c, 0, 64, 46
2, 55581, Note_on_c, 0, 60, 0
2, 55585, Control_c, 0, 64, 56
2, 55602, Control_c, 0, 64, 61
2, 55621, Control_c, 0, 64, 63
2, 55626, Note_on_c, 0, 65, 0
2, 55641, Control_c, 0, 64, 64
2, 55663, Control_c, 0, 64, 65
2, 55680, Control_c, 0, 64, 67
2, 55703, Control_c, 0, 64, 70
2, 55719, Control_c, 0, 64, 77
2, 55739, Control_c, 0, 64, 86
2, 55757, Control_c, 0, 64, 98
2, 55779, Control_c, 0, 64, 115
2, 55795, Control_c, 0, 64, 127
2, 55920, Note_on_c, 0, 68, 0
2, 56118, Note_on_c, 0, 68, 65
2, 56123, Control_c, 0, 64, 118
2, 56129, Note_on_c, 0, 48, 52
2, 56142, Control_c, 0, 64, 86
2, 56151, Note_on_c, 0, 65, 50
2, 56153, Note_on_c, 0, 49, 0
2, 56162, Control_c, 0, 64, 67
2, 56175, Note_on_c, 0, 60, 27
2, 56179, Control_c, 0, 64, 50
2, 56198, Control_c, 0, 64, 0
2, 56257, Control_c, 0, 64, 24
2, 56275, Control_c, 0, 64, 40
2, 56295, Control_c, 0, 64, 56
2, 56314, Control_c, 0, 64, 65
2, 56334, Control_c, 0, 64, 70
2, 56352, Control_c, 0, 64, 78
2, 56372, Control_c, 0, 64, 91
2, 56391, Control_c, 0, 64, 127
2, 56576, Note_on_c, 0, 65, 0
2, 56583, Note_on_c, 0, 60, 0
2, 56640, Note_on_c, 0, 68, 0
2, 56990, Note_on_c, 0, 68, 66
2, 56994, Note_on_c, 0, 46, 42
2, 57001, Note_on_c, 0, 65, 46
2, 57006, Control_c, 0, 64, 110
2, 57010, Note_on_c, 0, 48, 0
2, 57015, Note_on_c, 0, 61, 38
2, 57024, Control_c, 0, 64, 80
2, 57046, Control_c, 0, 64, 64
2, 57063, Control_c, 0, 64, 48
2, 57081, Control_c, 0, 64, 0
2, 57197, Control_c, 0, 64, 27
2, 57219, Control_c, 0, 64, 44
2, 57235, Control_c, 0, 64, 57
2, 57255, Control_c, 0, 64, 64
2, 57273, Control_c, 0, 64, 67
2, 57292, Control_c, 0, 64, 70
2, 57312, Control_c, 0, 64, 77
2, 57330, Control_c, 0, 64, 88
2, 57344, Note_on_c, 0, 65, 0
2, 57350, Note_on_c, 0, 61, 0
2, 57355, Control_c, 0, 64, 113
2, 57368, Control_c, 0, 64, 127
2, 57478, Note_on_c, 0, 46, 0
2, 57746, Note_on_c, 0, 67, 64
2, 57779, Note_on_c, 0, 46, 33
2, 57784, Note_on_c, 0, 58, 36
2, 57790, Note_on_c, 0, 61, 43
2, 57857, Note_on_c, 0, 68, 0
2, 58082, Control_c, 0, 64, 116
2, 58098, Note_on_c, 0, 68, 80
2, 58102, Control_c, 0, 64, 105
2, 58120, Control_c, 0, 64, 99
2, 58136, Control_c, 0, 64, 95
2, 58161, Control_c, 0, 64, 93
2, 58161, Note_on_c, 0, 46, 0
2, 58175, Control_c, 0, 64, 91
2, 58196, Control_c, 0, 64, 90
2, 58214, Control_c, 0, 64, 87
2, 58223, Note_on_c, 0, 67, 0
2, 58236, Control_c, 0, 64, 85
2, 58255, Control_c, 0, 64, 83
2, 58275, Control_c, 0, 64, 81
2, 58370, Control_c, 0, 64, 80
2, 58408, Control_c, 0, 64, 79
2, 58428, Control_c, 0, 64, 78
2, 58445, Control_c, 0, 64, 76
2, 58465, Control_c, 0, 64, 73
2, 58474, Note_on_c, 0, 46, 45
2, 58485, Control_c, 0, 64, 70
2, 58503, Note_on_c, 0, 58, 0
2, 58508, Control_c, 0, 64, 66
2, 58524, Control_c, 0, 64, 61
2, 58524, Note_on_c, 0, 70, 75
2, 58544, Control_c, 0, 64, 47
2, 58560, Control_c, 0, 64, 0
2, 58571, Note_on_c, 0, 61, 0
2, 58628, Note_on_c, 0, 68, 0
2, 58717, Control_c, 0, 64, 35
2, 58734, Control_c, 0, 64, 50
2, 58752, Control_c, 0, 64, 62
2, 58770, Control_c, 0, 64, 67
2, 58792, Control_c, 0, 64, 71
2, 58810, Control_c, 0, 64, 78
2, 58830, Control_c, 0, 64, 93
2, 58847, Control_c, 0, 64, 127
2, 58978, Note_on_c, 0, 46, 0
2, 59266, Note_on_c, 0, 67, 61
2, 59295, Note_on_c, 0, 61, 48
2, 59308, Note_on_c, 0, 46, 34
2, 59310, Note_on_c, 0, 58, 42
2, 59330, Control_c, 0, 64, 93
2, 59351, Control_c, 0, 64, 72
2, 59366, Control_c, 0, 64, 58
2, 59387, Control_c, 0, 64, 25
2, 59406, Control_c, 0, 64, 0
2, 59481, Control_c, 0, 64, 30
2, 59501, Control_c, 0, 64, 48
2, 59520, Control_c, 0, 64, 62
2, 59541, Control_c, 0, 64, 66
2, 59559, Control_c, 0, 64, 71
2, 59577, Control_c, 0, 64, 78
2, 59596, Control_c, 0, 64, 91
2, 59616, Control_c, 0, 64, 127
2, 59640, Note_on_c, 0, 58, 0
2, 59667, Note_on_c, 0, 46, 0
2, 59704, Note_on_c, 0, 70, 0
2, 59833, Note_on_c, 0, 61, 0
2, 60059, Note_on_c, 0, 64, 59
2, 60066, Note_on_c, 0, 46, 41
2, 60070, Note_on_c, 0, 55, 40
2, 60070, Note_on_c, 0, 60, 51
2, 60098, Control_c, 0, 64, 110
2, 60117, Control_c, 0, 64, 76
2, 60134, Control_c, 0, 64, 58
2, 60155, Control_c, 0, 64, 20
2, 60175, Control_c, 0, 64, 0
2, 60175, Note_on_c, 0, 67, 0
2, 60269, Control_c, 0, 64, 34
2, 60288, Control_c, 0, 64, 53
2, 60309, Control_c, 0, 64, 65
2, 60326, Control_c, 0, 64, 73
2, 60344, Control_c, 0, 64, 93
2, 60364, Control_c, 0, 64, 127
2, 60402, Note_on_c, 0, 60, 0
2, 60426, Note_on_c, 0, 64, 0
2, 60435, Note_on_c, 0, 55, 0
2, 60893, Note_on_c, 0, 56, 39
2, 60910, Note_on_c, 0, 44, 43
2, 60947, Note_on_c, 0, 72, 70
2, 60973, Note_on_c, 0, 65, 50
2, 60999, Control_c, 0, 64, 104
2, 61017, Control_c, 0, 64, 82
2, 61026, Note_on_c, 0, 46, 0
2, 61039, Control_c, 0, 64, 69
2, 61055, Control_c, 0, 64, 60
2, 61075, Control_c, 0, 64, 49
2, 61095, Control_c, 0, 64, 32
2, 61115, Control_c, 0, 64, 0
2, 61282, Note_on_c, 0, 65, 0
2, 61294, Note_on_c, 0, 64, 53
2, 61307, Control_c, 0, 64, 32
2, 61324, Control_c, 0, 64, 47
2, 61345, Control_c, 0, 64, 59
2, 61363, Control_c, 0, 64, 64
2, 61383, Control_c, 0, 64, 65
2, 61441, Control_c, 0, 64, 66
2, 61461, Control_c, 0, 64, 67
2, 61479, Control_c, 0, 64, 68
2, 61497, Control_c, 0, 64, 69
2, 61517, Control_c, 0, 64, 70
2, 61536, Control_c, 0, 64, 69
2, 61573, Control_c, 0, 64, 68
2, 61593, Control_c, 0, 64, 67
2, 61613, Control_c, 0, 64, 66
2, 61631, Control_c, 0, 64, 65
2, 61651, Control_c, 0, 64, 64
2, 61669, Control_c, 0, 64, 62
2, 61676, Note_on_c, 0, 65, 43
2, 61682, Note_on_c, 0, 49, 37
2, 61691, Control_c, 0, 64, 59
2, 61708, Control_c, 0, 64, 48
2, 61730, Control_c, 0, 64, 23
2, 61740, Note_on_c, 0, 64, 0
2, 61749, Control_c, 0, 64, 0
2, 61765, Note_on_c, 0, 44, 0
2, 61780, Note_on_c, 0, 56, 0
2, 61862, Control_c, 0, 64, 25
2, 61882, Control_c, 0, 64, 43
2, 61901, Control_c, 0, 64, 57
2, 61919, Control_c, 0, 64, 65
2, 61938, Control_c, 0, 64, 69
2, 61958, Control_c, 0, 64, 74
2, 61978, Control_c, 0, 64, 81
2, 61997, Control_c, 0, 64, 94
2, 62011, Note_on_c, 0, 65, 0
2, 62015, Control_c, 0, 64, 127
2, 62102, Note_on_c, 0, 49, 0
2, 62427, Note_on_c, 0, 70, 56
2, 62438, Control_c, 0, 64, 120
2, 62447, Note_on_c, 0, 49, 36
2, 62451, Note_on_c, 0, 65, 40
2, 62458, Control_c, 0, 64, 93
2, 62474, Note_on_c, 0, 55, 33
2, 62479, Control_c, 0, 64, 76
2, 62496, Control_c, 0, 64, 64
2, 62516, Control_c, 0, 64, 50
2, 62533, Control_c, 0, 64, 18
2, 62553, Control_c, 0, 64, 0
2, 62630, Control_c, 0, 64, 25
2, 62652, Control_c, 0, 64, 39
2, 62670, Control_c, 0, 64, 53
2, 62688, Control_c, 0, 64, 61
2, 62708, Control_c, 0, 64, 64
2, 62746, Control_c, 0, 64, 65
2, 62765, Control_c, 0, 64, 66
2, 62783, Control_c, 0, 64, 70
2, 62801, Note_on_c, 0, 68, 66
2, 62806, Control_c, 0, 64, 77
2, 62823, Control_c, 0, 64, 88
2, 62823, Note_on_c, 0, 53, 46
2, 62842, Control_c, 0, 64, 103
2, 62860, Control_c, 0, 64, 127
2, 62875, Note_on_c, 0, 70, 0
2, 62918, Note_on_c, 0, 49, 0
2, 62925, Note_on_c, 0, 65, 0
2, 62925, Note_on_c, 0, 72, 0
2, 62986, Note_on_c, 0, 55, 0
2, 63150, Control_c, 0, 64, 109
2, 63168, Control_c, 0, 64, 99
2, 63190, Control_c, 0, 64, 90
2, 63190, Note_on_c, 0, 70, 73
2, 63208, Control_c, 0, 64, 78
2, 63212, Note_on_c, 0, 65, 51
2, 63216, Note_on_c, 0, 49, 41
2, 63227, Control_c, 0, 64, 64
2, 63227, Note_on_c, 0, 55, 34
2, 63245, Note_on_c, 0, 53, 0
2, 63249, Control_c, 0, 64, 49
2, 63266, Control_c, 0, 64, 0
2, 63266, Note_on_c, 0, 68, 0
2, 63403, Note_on_c, 0, 65, 0
2, 63418, Control_c, 0, 64, 22
2, 63436, Control_c, 0, 64, 41
2, 63457, Control_c, 0, 64, 55
2, 63479, Control_c, 0, 64, 64
2, 63495, Control_c, 0, 64, 70
2, 63512, Control_c, 0, 64, 82
2, 63523, Note_on_c, 0, 70, 0
2, 63530, Note_on_c, 0, 55, 0
2, 63534, Control_c, 0, 64, 116
2, 63553, Control_c, 0, 64, 127
2, 63969, Note_on_c, 0, 70, 73
2, 63978, Note_on_c, 0, 64, 69
2, 63985, Note_on_c, 0, 48, 46
2, 64009, Note_on_c, 0, 49, 0
2, 64009, Note_on_c, 0, 55, 46
2, 64131, Control_c, 0, 64, 101
2, 64149, Control_c, 0, 64, 86
2, 64166, Control_c, 0, 64, 77
2, 64184, Control_c, 0, 64, 70
2, 64204, Control_c, 0, 64, 64
2, 64226, Control_c, 0, 64, 61
2, 64242, Control_c, 0, 64, 59
2, 64262, Control_c, 0, 64, 58
2, 64282, Control_c, 0, 64, 57
2, 64302, Control_c, 0, 64, 55
2, 64322, Control_c, 0, 64, 51
2, 64326, Note_on_c, 0, 62, 70
2, 64339, Control_c, 0, 64, 43
2, 64350, Note_on_c, 0, 46, 46
2, 64360, Control_c, 0, 64, 33
2, 64367, Note_on_c, 0, 48, 0
2, 64377, Control_c, 0, 64, 21
2, 64397, Control_c, 0, 64, 0
2, 64415, Note_on_c, 0, 64, 0
2, 64762, Note_on_c, 0, 64, 59
2, 64766, Note_on_c, 0, 48, 36
2, 64790, Note_on_c, 0, 46, 0
2, 64790, Note_on_c, 0, 62, 0
2, 64822, Control_c, 0, 64, 28
2, 64839, Control_c, 0, 64, 42
2, 64861, Control_c, 0, 64, 54
2, 64876, Control_c, 0, 64, 62
2, 64896, Control_c, 0, 64, 65
2, 64914, Control_c, 0, 64, 67
2, 64936, Control_c, 0, 64, 71
2, 64955, Control_c, 0, 64, 83
2, 64973, Control_c, 0, 64, 127
2, 65072, Note_on_c, 0, 55, 0
2, 65128, Note_on_c, 0, 48, 0
2, 65166, Note_on_c, 0, 64, 0
2, 65528, Note_on_c, 0, 68, 54
2, 65532, Note_on_c, 0, 60, 43
2, 65538, Note_on_c, 0, 48, 41
2, 65545, Note_on_c, 0, 64, 46
2, 65728, Note_on_c, 0, 70, 0
2, 65877, Note_on_c, 0, 67, 67
2, 65903, Note_on_c, 0, 48, 0
2, 65926, Note_on_c, 0, 68, 0
2, 65970, Note_on_c, 0, 60, 0
2, 65986, Note_on_c, 0, 64, 0
2, 66292, Note_on_c, 0, 68, 77
2, 66297, Control_c, 0, 64, 102
2, 66297, Note_on_c, 0, 64, 64
2, 66317, Control_c, 0, 64, 89
2, 66321, Note_on_c, 0, 48, 41
2, 66332, Note_on_c, 0, 60, 44
2, 66337, Control_c, 0, 64, 76
2, 66341, Note_on_c, 0, 67, 0
2, 66357, Control_c, 0, 64, 64
2, 66375, Control_c, 0, 64, 47
2, 66395, Control_c, 0, 64, 0
2, 66489, Control_c, 0, 64, 11
2, 66507, Control_c, 0, 64, 38
2, 66531, Control_c, 0, 64, 56
2, 66550, Control_c, 0, 64, 66
2, 66567, Control_c, 0, 64, 72
2, 66574, Note_on_c, 0, 60, 0
2, 66585, Control_c, 0, 64, 82
2, 66605, Control_c, 0, 64, 99
2, 66625, Control_c, 0, 64, 127
2, 66648, Note_on_c, 0, 64, 0
2, 66680, Note_on_c, 0, 68, 0
2, 67119, Note_on_c, 0, 41, 38
2, 67128, Note_on_c, 0, 65, 66
2, 67128, Note_on_c, 0, 68, 72
2, 67153, Note_on_c, 0, 60, 49
2, 67219, Control_c, 0, 64, 116
2, 67234, Note_on_c, 0, 48, 0
2, 67241, Control_c, 0, 64, 99
2, 67256, Control_c, 0, 64, 90
2, 67277, Control_c, 0, 64, 82
2, 67297, Control_c, 0, 64, 75
2, 67315, Control_c, 0, 64, 69
2, 67335, Control_c, 0, 64, 65
2, 67354, Control_c, 0, 64, 61
2, 67371, Control_c, 0, 64, 59
2, 67391, Control_c, 0, 64, 58
2, 67411, Control_c, 0, 64, 57
2, 67449, Control_c, 0, 64, 55
2, 67469, Control_c, 0, 64, 51
2, 67489, Control_c, 0, 64, 46
2, 67493, Note_on_c, 0, 63, 69
2, 67506, Control_c, 0, 64, 39
2, 67526, Control_c, 0, 64, 35
2, 67546, Control_c, 0, 64, 32
2, 67564, Control_c, 0, 64, 29
2, 67583, Control_c, 0, 64, 23
2, 67604, Control_c, 0, 64, 0
2, 67728, Note_on_c, 0, 65, 0
2, 67904, Note_on_c, 0, 61, 63
2, 67933, Note_on_c, 0, 46, 41
2, 67951, Note_on_c, 0, 41, 0
2, 67951, Note_on_c, 0, 60, 0
2, 68036, Note_on_c, 0, 63, 0
2, 68141, Control_c, 0, 64, 18
2, 68160, Control_c, 0, 64, 36
2, 68177, Control_c, 0, 64, 51
2, 68200, Control_c, 0, 64, 60
2, 68218, Control_c, 0, 64, 63
2, 68236, Control_c, 0, 64, 65
2, 68256, Control_c, 0, 64, 66
2, 68275, Control_c, 0, 64, 70
2, 68295, Control_c, 0, 64, 79
2, 68299, Note_on_c, 0, 61, 0
2, 68316, Control_c, 0, 64, 100
2, 68336, Control_c, 0, 64, 127
2, 68362, Note_on_c, 0, 46, 0
2, 68773, Note_on_c, 0, 66, 51
2, 68791, Note_on_c, 0, 58, 39
2, 68797, Note_on_c, 0, 61, 34
2, 68825, Note_on_c, 0, 46, 34
2, 69147, Note_on_c, 0, 65, 62
2, 69166, Note_on_c, 0, 58, 0
2, 69192, Note_on_c, 0, 57, 50
2, 69216, Note_on_c, 0, 66, 0
2, 69277, Note_on_c, 0, 61, 0
2, 69338, Note_on_c, 0, 46, 0
2, 69348, Note_on_c, 0, 57, 0
2, 69381, Note_on_c, 0, 68, 0
2, 69506, Control_c, 0, 64, 102
2, 69522, Control_c, 0, 64, 83
2, 69538, Note_on_c, 0, 66, 74
2, 69542, Control_c, 0, 64, 71
2, 69559, Note_on_c, 0, 58, 47
2, 69559, Note_on_c, 0, 61, 50
2, 69564, Control_c, 0, 64, 60
2, 69571, Note_on_c, 0, 46, 44
2, 69583, Control_c, 0, 64, 43
2, 69601, Control_c, 0, 64, 0
2, 69715, Control_c, 0, 64, 30
2, 69736, Control_c, 0, 64, 52
2, 69736, Note_on_c, 0, 65, 0
2, 69754, Control_c, 0, 64, 67
2, 69771, Control_c, 0, 64, 90
2, 69790, Control_c, 0, 64, 127
2, 69795, Note_on_c, 0, 61, 0
2, 69852, Note_on_c, 0, 46, 0
2, 69870, Note_on_c, 0, 58, 0
2, 69886, Note_on_c, 0, 66, 0
2, 70311, Note_on_c, 0, 70, 72
2, 70311, Note_on_c, 0, 73, 75
2, 70328, Note_on_c, 0, 54, 53
2, 70340, Note_on_c, 0, 46, 47
2, 70522, Control_c, 0, 64, 112
2, 70543, Control_c, 0, 64, 101
2, 70563, Control_c, 0, 64, 93
2, 70580, Control_c, 0, 64, 86
2, 70598, Control_c, 0, 64, 79
2, 70618, Control_c, 0, 64, 73
2, 70636, Control_c, 0, 64, 67
2, 70656, Control_c, 0, 64, 63
2, 70661, Note_on_c, 0, 69, 75
2, 70667, Note_on_c, 0, 53, 61
2, 70674, Control_c, 0, 64, 61
2, 70722, Note_on_c, 0, 70, 0
2, 70735, Control_c, 0, 64, 60
2, 70752, Control_c, 0, 64, 59
2, 70757, Note_on_c, 0, 54, 0
2, 70766, Note_on_c, 0, 46, 0
2, 70771, Control_c, 0, 64, 57
2, 70789, Control_c, 0, 64, 56
2, 70808, Control_c, 0, 64, 54
2, 70828, Control_c, 0, 64, 52
2, 70847, Control_c, 0, 64, 48
2, 70867, Control_c, 0, 64, 41
2, 70887, Control_c, 0, 64, 31
2, 70906, Control_c, 0, 64, 0
2, 71082, Note_on_c, 0, 54, 55
2, 71086, Note_on_c, 0, 70, 78
2, 71099, Note_on_c, 0, 46, 45
2, 71180, Note_on_c, 0, 53, 0
2, 71252, Control_c, 0, 64, 30
2, 71270, Control_c, 0, 64, 48
2, 71274, Note_on_c, 0, 69, 0
2, 71289, Control_c, 0, 64, 61
2, 71308, Control_c, 0, 64, 67
2, 71327, Control_c, 0, 64, 72
2, 71348, Control_c, 0, 64, 84
2, 71365, Control_c, 0, 64, 127
2, 71391, Note_on_c, 0, 46, 0
2, 71515, Note_on_c, 0, 73, 0
2, 71860, Note_on_c, 0, 46, 48
2, 71873, Note_on_c, 0, 72, 72
2, 71950, Note_on_c, 0, 70, 0
2, 72104, Note_on_c, 0, 54, 0
2, 72112, Note_on_c, 0, 46, 0
2, 72217, Note_on_c, 0, 70, 81
2, 72277, Note_on_c, 0, 72, 0
2, 72659, Note_on_c, 0, 55, 49
2, 72672, Note_on_c, 0, 46, 47
2, 72676, Note_on_c, 0, 76, 85
2, 72681, Note_on_c, 0, 72, 68
2, 72731, Control_c, 0, 64, 108
2, 72749, Control_c, 0, 64, 75
2, 72764, Note_on_c, 0, 70, 0
2, 72768, Control_c, 0, 64, 57
2, 72789, Control_c, 0, 64, 0
2, 72901, Control_c, 0, 64, 32
2, 72920, Control_c, 0, 64, 54
2, 72940, Control_c, 0, 64, 66
2, 72959, Control_c, 0, 64, 75
2, 72977, Control_c, 0, 64, 93
2, 72997, Control_c, 0, 64, 127
2, 73041, Note_on_c, 0, 55, 0
2, 73041, Note_on_c, 0, 72, 0
2, 73124, Note_on_c, 0, 46, 0
2, 73467, Note_on_c, 0, 72, 79
2, 73480, Note_on_c, 0, 65, 66
2, 73484, Note_on_c, 0, 56, 59
2, 73500, Note_on_c, 0, 44, 51
2, 73536, Control_c, 0, 64, 86
2, 73556, Control_c, 0, 64, 58
2, 73573, Control_c, 0, 64, 0
2, 73673, Control_c, 0, 64, 15
2, 73691, Control_c, 0, 64, 44
2, 73700, Note_on_c, 0, 65, 0
2, 73700, Note_on_c, 0, 76, 0
2, 73708, Control_c, 0, 64, 60
2, 73727, Control_c, 0, 64, 67
2, 73748, Control_c, 0, 64, 73
2, 73753, Note_on_c, 0, 56, 0
2, 73766, Control_c, 0, 64, 85
2, 73784, Control_c, 0, 64, 120
2, 73805, Control_c, 0, 64, 127
2, 73833, Note_on_c, 0, 55, 65
2, 73837, Note_on_c, 0, 67, 77
2, 73928, Note_on_c, 0, 44, 0
2, 74018, Note_on_c, 0, 67, 0
2, 74047, Note_on_c, 0, 55, 0
2, 74063, Note_on_c, 0, 72, 0
2, 74338, Note_on_c, 0, 53, 50
2, 74354, Note_on_c, 0, 49, 52
2, 74354, Note_on_c, 0, 68, 76
2, 74354, Note_on_c, 0, 77, 87
2, 74421, Control_c, 0, 64, 94
2, 74439, Control_c, 0, 64, 74
2, 74458, Control_c, 0, 64, 60
2, 74476, Control_c, 0, 64, 27
2, 74496, Control_c, 0, 64, 0
2, 74610, Control_c, 0, 64, 20
2, 74631, Control_c, 0, 64, 34
2, 74649, Control_c, 0, 64, 46
2, 74668, Control_c, 0, 64, 59
2, 74688, Control_c, 0, 64, 65
2, 74706, Control_c, 0, 64, 69
2, 74724, Control_c, 0, 64, 76
2, 74744, Control_c, 0, 64, 90
2, 74753, Note_on_c, 0, 68, 0
2, 74765, Control_c, 0, 64, 127
2, 74918, Note_on_c, 0, 49, 0
2, 75184, Note_on_c, 0, 72, 67
2, 75193, Note_on_c, 0, 68, 59
2, 75197, Note_on_c, 0, 48, 46
2, 75247, Control_c, 0, 64, 80
2, 75264, Control_c, 0, 64, 60
2, 75282, Control_c, 0, 64, 28
2, 75303, Control_c, 0, 64, 0
2, 75378, Control_c, 0, 64, 16
2, 75398, Control_c, 0, 64, 39
2, 75418, Control_c, 0, 64, 55
2, 75436, Control_c, 0, 64, 64
2, 75456, Control_c, 0, 64, 67
2, 75476, Control_c, 0, 64, 71
2, 75476, Note_on_c, 0, 68, 0
2, 75494, Control_c, 0, 64, 77
2, 75514, Control_c, 0, 64, 90
2, 75534, Control_c, 0, 64, 127
2, 75606, Note_on_c, 0, 72, 0
2, 75618, Note_on_c, 0, 48, 0
2, 75993, Note_on_c, 0, 73, 68
2, 76006, Note_on_c, 0, 68, 45
2, 76020, Note_on_c, 0, 46, 45
2, 76051, Control_c, 0, 64, 92
2, 76071, Control_c, 0, 64, 71
2, 76091, Control_c, 0, 64, 58
2, 76108, Control_c, 0, 64, 32
2, 76129, Control_c, 0, 64, 0
2, 76182, Note_on_c, 0, 77, 0
2, 76224, Control_c, 0, 64, 21
2, 76241, Control_c, 0, 64, 41
2, 76260, Control_c, 0, 64, 55
2, 76277, Control_c, 0, 64, 64
2, 76297, Control_c, 0, 64, 67
2, 76317, Control_c, 0, 64, 71
2, 76335, Control_c, 0, 64, 77
2, 76357, Control_c, 0, 64, 93
2, 76357, Note_on_c, 0, 53, 0
2, 76375, Note_on_c, 0, 46, 0
2, 76380, Control_c, 0, 64, 127
2, 76789, Note_on_c, 0, 52, 55
2, 76789, Note_on_c, 0, 70, 68
2, 76793, Note_on_c, 0, 67, 56
2, 76802, Note_on_c, 0, 49, 45
2, 76823, Note_on_c, 0, 68, 0
2, 76873, Control_c, 0, 64, 102
2, 76894, Control_c, 0, 64, 86
2, 76911, Control_c, 0, 64, 74
2, 76920, Note_on_c, 0, 73, 0
2, 76931, Control_c, 0, 64, 64
2, 76954, Control_c, 0, 64, 55
2, 76969, Control_c, 0, 64, 36
2, 76989, Control_c, 0, 64, 0
2, 77122, Control_c, 0, 64, 18
2, 77143, Control_c, 0, 64, 36
2, 77158, Note_on_c, 0, 68, 77
2, 77163, Control_c, 0, 64, 50
2, 77163, Note_on_c, 0, 53, 64
2, 77180, Control_c, 0, 64, 60
2, 77202, Control_c, 0, 64, 65
2, 77219, Control_c, 0, 64, 67
2, 77241, Control_c, 0, 64, 70
2, 77241, Note_on_c, 0, 67, 0
2, 77245, Note_on_c, 0, 70, 0
2, 77258, Control_c, 0, 64, 73
2, 77279, Control_c, 0, 64, 80
2, 77296, Control_c, 0, 64, 90
2, 77300, Note_on_c, 0, 52, 0
2, 77315, Control_c, 0, 64, 109
2, 77335, Control_c, 0, 64, 127
2, 77438, Note_on_c, 0, 53, 0
2, 77453, Note_on_c, 0, 49, 0
2, 77595, Note_on_c, 0, 76, 84
2, 77604, Note_on_c, 0, 48, 67
2, 77608, Note_on_c, 0, 70, 69
2, 77612, Note_on_c, 0, 55, 60
2, 77641, Control_c, 0, 64, 94
2, 77660, Control_c, 0, 64, 73
2, 77682, Control_c, 0, 64, 54
2, 77700, Control_c, 0, 64, 0
2, 77747, Note_on_c, 0, 68, 0
2, 77852, Control_c, 0, 64, 44
2, 77872, Control_c, 0, 64, 58
2, 77892, Control_c, 0, 64, 64
2, 77910, Control_c, 0, 64, 69
2, 77928, Control_c, 0, 64, 78
2, 77928, Note_on_c, 0, 55, 0
2, 77949, Control_c, 0, 64, 100
2, 77952, Note_on_c, 0, 48, 0
2, 77967, Control_c, 0, 64, 127
2, 78003, Note_on_c, 0, 70, 0
2, 78411, Note_on_c, 0, 55, 62
2, 78413, Note_on_c, 0, 48, 60
2, 78420, Note_on_c, 0, 72, 78
2, 78427, Note_on_c, 0, 70, 75
2, 78468, Control_c, 0, 64, 78
2, 78487, Control_c, 0, 64, 56
2, 78505, Control_c, 0, 64, 0
2, 78621, Control_c, 0, 64, 32
2, 78641, Control_c, 0, 64, 54
2, 78657, Control_c, 0, 64, 69
2, 78673, Note_on_c, 0, 55, 0
2, 78678, Control_c, 0, 64, 90
2, 78697, Control_c, 0, 64, 127
2, 78704, Note_on_c, 0, 76, 0
2, 78713, Note_on_c, 0, 48, 0
2, 78763, Note_on_c, 0, 70, 0
2, 78767, Note_on_c, 0, 72, 0
2, 79497, Note_on_c, 0, 77, 87
2, 79503, Note_on_c, 0, 41, 56
2, 79506, Note_on_c, 0, 53, 62
2, 79510, Note_on_c, 0, 70, 65
2, 79514, Note_on_c, 0, 72, 73
2, 79561, Control_c, 0, 64, 97
2, 79580, Control_c, 0, 64, 76
2, 79603, Control_c, 0, 64, 61
2, 79618, Control_c, 0, 64, 46
2, 79638, Control_c, 0, 64, 0
2, 79793, Control_c, 0, 64, 34
2, 79810, Control_c, 0, 64, 55
2, 79831, Control_c, 0, 64, 64
2, 79849, Control_c, 0, 64, 68
2, 79869, Control_c, 0, 64, 73
2, 79888, Control_c, 0, 64, 83
2, 79905, Control_c, 0, 64, 109
2, 79927, Control_c, 0, 64, 127
2, 80103, Note_on_c, 0, 70, 0
2, 80123, Note_on_c, 0, 72, 0
2, 80509, Note_on_c, 0, 68, 57
2, 80509, Note_on_c, 0, 72, 67
2, 80540, Control_c, 0, 64, 99
2, 80562, Control_c, 0, 64, 65
2, 80579, Control_c, 0, 64, 36
2, 80599, Control_c, 0, 64, 0
2, 80658, Control_c, 0, 64, 25
2, 80676, Control_c, 0, 64, 46
2, 80695, Control_c, 0, 64, 62
2, 80713, Control_c, 0, 64, 74
2, 80733, Control_c, 0, 64, 99
2, 80752, Control_c, 0, 64, 127
2, 80918, Note_on_c, 0, 70, 64
2, 80925, Control_c, 0, 64, 92
2, 80934, Note_on_c, 0, 72, 0
2, 80939, Note_on_c, 0, 67, 48
2, 80946, Control_c, 0, 64, 63
2, 80959, Note_on_c, 0, 68, 0
2, 80963, Control_c, 0, 64, 40
2, 80981, Control_c, 0, 64, 0
2, 81001, Control_c, 0, 64, 16
2, 81021, Control_c, 0, 64, 32
2, 81039, Control_c, 0, 64, 50
2, 81059, Control_c, 0, 64, 64
2, 81078, Control_c, 0, 64, 74
2, 81096, Control_c, 0, 64, 96
2, 81117, Control_c, 0, 64, 127
2, 81341, Note_on_c, 0, 77, 0
2, 81406, Note_on_c, 0, 67, 0
2, 81410, Control_c, 0, 64, 108
2, 81410, Note_on_c, 0, 68, 48
2, 81414, Note_on_c, 0, 72, 55
2, 81425, Control_c, 0, 64, 79
2, 81433, Note_on_c, 0, 70, 0
2, 81444, Control_c, 0, 64, 63
2, 81462, Control_c, 0, 64, 43
2, 81479, Control_c, 0, 64, 0
2, 81598, Control_c, 0, 64, 31
2, 81616, Control_c, 0, 64, 48
2, 81634, Control_c, 0, 64, 60
2, 81654, Control_c, 0, 64, 66
2, 81679, Control_c, 0, 64, 73
2, 81679, Note_on_c, 0, 41, 0
2, 81679, Note_on_c, 0, 53, 0
2, 81694, Control_c, 0, 64, 82
2, 81715, Control_c, 0, 64, 102
2, 81732, Control_c, 0, 64, 127
2, 81945, Note_on_c, 0, 68, 0
2, 81962, Note_on_c, 0, 72, 0
2, 82406, Control_c, 0, 64, 122
2, 82423, Control_c, 0, 64, 107
2, 82439, Control_c, 0, 64, 99
2, 82461, Control_c, 0, 64, 92
2, 82483, Control_c, 0, 64, 88
2, 82498, Control_c, 0, 64, 82
2, 82518, Control_c, 0, 64, 77
2, 82536, Control_c, 0, 64, 72
2, 82557, Control_c, 0, 64, 68
2, 82577, Control_c, 0, 64, 65
2, 82591, Note_on_c, 0, 77, 47
2, 82595, Control_c, 0, 64, 63
2, 82612, Note_on_c, 0, 53, 25
2, 82617, Control_c, 0, 64, 62
2, 82636, Control_c, 0, 64, 60
2, 82651, Control_c, 0, 64, 58
2, 82672, Control_c, 0, 64, 54
2, 82692, Control_c, 0, 64, 52
2, 82710, Control_c, 0, 64, 50
2, 82730, Control_c, 0, 64, 47
2, 82749, Control_c, 0, 64, 42
2, 82768, Control_c, 0, 64, 35
2, 82789, Control_c, 0, 64, 18
2, 82805, Control_c, 0, 64, 0
2, 83010, Note_on_c, 0, 75, 42
2, 83116, Note_on_c, 0, 77, 0
2, 83447, Note_on_c, 0, 58, 36
2, 83447, Note_on_c, 0, 74, 51
2, 83578, Note_on_c, 0, 53, 0
2, 83599, Note_on_c, 0, 75, 0
2, 84130, Control_c, 0, 64, 21
2, 84153, Control_c, 0, 64, 33
2, 84169, Control_c, 0, 64, 39
2, 84187, Control_c, 0, 64, 43
2, 84207, Control_c, 0, 64, 49
2, 84227, Control_c, 0, 64, 56
2, 84248, Control_c, 0, 64, 60
2, 84264, Control_c, 0, 64, 61
2, 84270, Note_on_c, 0, 71, 54
2, 84277, Note_on_c, 0, 68, 42
2, 84287, Control_c, 0, 64, 62
2, 84304, Control_c, 0, 64, 63
2, 84324, Control_c, 0, 64, 65
2, 84342, Control_c, 0, 64, 68
2, 84363, Control_c, 0, 64, 74
2, 84381, Control_c, 0, 64, 83
2, 84400, Control_c, 0, 64, 97
2, 84418, Control_c, 0, 64, 127
2, 84656, Note_on_c, 0, 70, 66
2, 84662, Note_on_c, 0, 66, 50
2, 84748, Note_on_c, 0, 71, 0
2, 84766, Note_on_c, 0, 68, 0
2, 84898, Control_c, 0, 64, 122
2, 84917, Control_c, 0, 64, 116
2, 84937, Control_c, 0, 64, 110
2, 84956, Control_c, 0, 64, 103
2, 84973, Control_c, 0, 64, 96
2, 84995, Control_c, 0, 64, 92
2, 85015, Control_c, 0, 64, 89
2, 85033, Control_c, 0, 64, 86
2, 85053, Control_c, 0, 64, 83
2, 85057, Note_on_c, 0, 74, 0
2, 85071, Control_c, 0, 64, 80
2, 85082, Note_on_c, 0, 68, 58
2, 85090, Control_c, 0, 64, 77
2, 85104, Note_on_c, 0, 65, 44
2, 85110, Control_c, 0, 64, 73
2, 85128, Control_c, 0, 64, 68
2, 85149, Control_c, 0, 64, 63
2, 85166, Control_c, 0, 64, 58
2, 85185, Note_on_c, 0, 70, 0
2, 85190, Control_c, 0, 64, 53
2, 85199, Note_on_c, 0, 66, 0
2, 85207, Control_c, 0, 64, 47
2, 85226, Control_c, 0, 64, 31
2, 85244, Control_c, 0, 64, 0
2, 85455, Control_c, 0, 64, 21
2, 85471, Note_on_c, 0, 58, 0
2, 85475, Control_c, 0, 64, 40
2, 85493, Control_c, 0, 64, 55
2, 85513, Control_c, 0, 64, 62
2, 85532, Control_c, 0, 64, 63
2, 85569, Control_c, 0, 64, 64
2, 85588, Control_c, 0, 64, 65
2, 85609, Control_c, 0, 64, 68
2, 85628, Control_c, 0, 64, 72
2, 85646, Control_c, 0, 64, 81
2, 85667, Control_c, 0, 64, 95
2, 85689, Control_c, 0, 64, 113
2, 85705, Control_c, 0, 64, 127
2, 85885, Note_on_c, 0, 75, 51
2, 85894, Note_on_c, 0, 58, 40
2, 86021, Note_on_c, 0, 65, 0
2, 86258, Note_on_c, 0, 77, 66
2, 86299, Control_c, 0, 64, 113
2, 86319, Control_c, 0, 64, 106
2, 86338, Control_c, 0, 64, 102
2, 86357, Control_c, 0, 64, 98
2, 86375, Control_c, 0, 64, 96
2, 86395, Control_c, 0, 64, 95
2, 86414, Control_c, 0, 64, 93
2, 86432, Note_on_c, 0, 75, 0
2, 86436, Control_c, 0, 64, 92
2, 86449, Note_on_c, 0, 68, 0
2, 86454, Control_c, 0, 64, 91
2, 86492, Control_c, 0, 64, 90
2, 86503, Note_on_c, 0, 58, 0
2, 86512, Control_c, 0, 64, 89
2, 86532, Control_c, 0, 64, 87
2, 86551, Control_c, 0, 64, 85
2, 86571, Control_c, 0, 64, 83
2, 86591, Control_c, 0, 64, 81
2, 86608, Control_c, 0, 64, 80
2, 86630, Control_c, 0, 64, 79
2, 86647, Control_c, 0, 64, 78
2, 86666, Control_c, 0, 64, 76
2, 86684, Control_c, 0, 64, 74
2, 86684, Note_on_c, 0, 51, 44
2, 86703, Control_c, 0, 64, 71
2, 86716, Note_on_c, 0, 78, 67
2, 86723, Control_c, 0, 64, 67
2, 86742, Control_c, 0, 64, 63
2, 86753, Note_on_c, 0, 77, 0
2, 86760, Control_c, 0, 64, 60
2, 86781, Control_c, 0, 64, 55
2, 86798, Control_c, 0, 64, 50
2, 86818, Control_c, 0, 64, 36
2, 86840, Control_c, 0, 64, 0
2, 87203, Control_c, 0, 64, 16
2, 87223, Control_c, 0, 64, 30
2, 87241, Control_c, 0, 64, 41
2, 87259, Control_c, 0, 64, 50
2, 87279, Control_c, 0, 64, 56
2, 87301, Control_c, 0, 64, 59
2, 87316, Control_c, 0, 64, 61
2, 87338, Control_c, 0, 64, 62
2, 87356, Control_c, 0, 64, 63
2, 87374, Control_c, 0, 64, 65
2, 87396, Control_c, 0, 64, 66
2, 87415, Control_c, 0, 64, 69
2, 87434, Control_c, 0, 64, 72
2, 87452, Control_c, 0, 64, 81
2, 87472, Control_c, 0, 64, 94
2, 87494, Control_c, 0, 64, 127
2, 87549, Note_on_c, 0, 66, 51
2, 87594, Note_on_c, 0, 63, 30
2, 87649, Note_on_c, 0, 78, 0
2, 87653, Note_on_c, 0, 51, 0
2, 87906, Note_on_c, 0, 68, 66
2, 87908, Note_on_c, 0, 66, 0
2, 87947, Note_on_c, 0, 65, 45
2, 88012, Control_c, 0, 64, 104
2, 88031, Control_c, 0, 64, 98
2, 88042, Note_on_c, 0, 63, 0
2, 88047, Control_c, 0, 64, 95
2, 88067, Control_c, 0, 64, 94
2, 88085, Control_c, 0, 64, 93
2, 88105, Control_c, 0, 64, 91
2, 88124, Control_c, 0, 64, 88
2, 88146, Control_c, 0, 64, 85
2, 88166, Control_c, 0, 64, 81
2, 88181, Control_c, 0, 64, 76
2, 88201, Control_c, 0, 64, 72
2, 88219, Control_c, 0, 64, 68
2, 88240, Control_c, 0, 64, 65
2, 88261, Control_c, 0, 64, 63
2, 88278, Control_c, 0, 64, 62
2, 88297, Control_c, 0, 64, 61
2, 88319, Control_c, 0, 64, 59
2, 88334, Control_c, 0, 64, 55
2, 88343, Note_on_c, 0, 70, 58
2, 88356, Control_c, 0, 64, 44
2, 88361, Note_on_c, 0, 65, 0
2, 88374, Control_c, 0, 64, 11
2, 88392, Control_c, 0, 64, 0
2, 88398, Note_on_c, 0, 66, 30
2, 88408, Note_on_c, 0, 68, 0
2, 88605, Control_c, 0, 64, 13
2, 88621, Control_c, 0, 64, 33
2, 88645, Control_c, 0, 64, 48
2, 88660, Control_c, 0, 64, 60
2, 88681, Control_c, 0, 64, 65
2, 88701, Control_c, 0, 64, 68
2, 88705, Note_on_c, 0, 66, 0
2, 88720, Control_c, 0, 64, 71
2, 88742, Control_c, 0, 64, 77
2, 88756, Control_c, 0, 64, 91
2, 88780, Control_c, 0, 64, 127
2, 88784, Note_on_c, 0, 70, 0
2, 89158, Note_on_c, 0, 75, 66
2, 89175, Note_on_c, 0, 51, 40
2, 89373, Control_c, 0, 64, 109
2, 89391, Control_c, 0, 64, 104
2, 89412, Control_c, 0, 64, 103
2, 89430, Control_c, 0, 64, 102
2, 89449, Control_c, 0, 64, 101
2, 89467, Control_c, 0, 64, 100
2, 89490, Control_c, 0, 64, 98
2, 89504, Control_c, 0, 64, 96
2, 89526, Control_c, 0, 64, 93
2, 89541, Note_on_c, 0, 73, 74
2, 89545, Control_c, 0, 64, 91
2, 89563, Control_c, 0, 64, 88
2, 89586, Control_c, 0, 64, 85
2, 89603, Control_c, 0, 64, 82
2, 89622, Control_c, 0, 64, 80
2, 89639, Control_c, 0, 64, 78
2, 89659, Control_c, 0, 64, 77
2, 89679, Control_c, 0, 64, 75
2, 89699, Control_c, 0, 64, 73
2, 89717, Control_c, 0, 64, 72
2, 89736, Control_c, 0, 64, 71
2, 89756, Control_c, 0, 64, 70
2, 89775, Control_c, 0, 64, 68
2, 89794, Control_c, 0, 64, 67
2, 89814, Control_c, 0, 64, 66
2, 89853, Control_c, 0, 64, 65
2, 89873, Control_c, 0, 64, 64
2, 89890, Control_c, 0, 64, 63
2, 89930, Control_c, 0, 64, 62
2, 89947, Control_c, 0, 64, 61
2, 89969, Control_c, 0, 64, 59
2, 89979, Note_on_c, 0, 56, 41
2, 89985, Control_c, 0, 64, 57
2, 89994, Note_on_c, 0, 72, 71
2, 90005, Control_c, 0, 64, 56
2, 90021, Note_on_c, 0, 51, 0
2, 90026, Control_c, 0, 64, 54
2, 90047, Control_c, 0, 64, 50
2, 90063, Control_c, 0, 64, 45
2, 90072, Note_on_c, 0, 75, 0
2, 90082, Control_c, 0, 64, 34
2, 90102, Control_c, 0, 64, 16
2, 90122, Control_c, 0, 64, 0
2, 90136, Note_on_c, 0, 73, 0
2, 90620, Control_c, 0, 64, 13
2, 90642, Control_c, 0, 64, 22
2, 90658, Control_c, 0, 64, 30
2, 90678, Control_c, 0, 64, 39
2, 90696, Control_c, 0, 64, 48
2, 90716, Control_c, 0, 64, 55
2, 90735, Control_c, 0, 64, 58
2, 90755, Control_c, 0, 64, 59
2, 90794, Control_c, 0, 64, 60
2, 90812, Control_c, 0, 64, 62
2, 90830, Control_c, 0, 64, 63
2, 90841, Note_on_c, 0, 60, 28
2, 90841, Note_on_c, 0, 63, 42
2, 90850, Control_c, 0, 64, 65
2, 90868, Control_c, 0, 64, 66
2, 90890, Control_c, 0, 64, 69
2, 90907, Control_c, 0, 64, 72
2, 90928, Control_c, 0, 64, 76
2, 90947, Control_c, 0, 64, 80
2, 90966, Control_c, 0, 64, 83
2, 90986, Control_c, 0, 64, 84
2, 91062, Control_c, 0, 64, 83
2, 91098, Control_c, 0, 64, 82
2, 91121, Control_c, 0, 64, 81
2, 91160, Control_c, 0, 64, 80
2, 91179, Control_c, 0, 64, 78
2, 91195, Control_c, 0, 64, 77
2, 91214, Control_c, 0, 64, 76
2, 91225, Note_on_c, 0, 61, 41
2, 91225, Note_on_c, 0, 65, 50
2, 91234, Control_c, 0, 64, 75
2, 91251, Control_c, 0, 64, 74
2, 91258, Note_on_c, 0, 63, 0
2, 91273, Control_c, 0, 64, 73
2, 91294, Control_c, 0, 64, 71
2, 91313, Control_c, 0, 64, 70
2, 91328, Note_on_c, 0, 60, 0
2, 91332, Control_c, 0, 64, 68
2, 91352, Control_c, 0, 64, 67
2, 91372, Control_c, 0, 64, 65
2, 91387, Control_c, 0, 64, 64
2, 91407, Control_c, 0, 64, 62
2, 91427, Control_c, 0, 64, 61
2, 91449, Control_c, 0, 64, 59
2, 91465, Control_c, 0, 64, 58
2, 91483, Control_c, 0, 64, 56
2, 91503, Control_c, 0, 64, 55
2, 91523, Control_c, 0, 64, 53
2, 91541, Control_c, 0, 64, 50
2, 91560, Control_c, 0, 64, 42
2, 91581, Control_c, 0, 64, 24
2, 91600, Control_c, 0, 64, 0
2, 91628, Note_on_c, 0, 65, 0
2, 91636, Note_on_c, 0, 61, 0
2, 91636, Note_on_c, 0, 66, 43
2, 91661, Note_on_c, 0, 63, 28
2, 91752, Note_on_c, 0, 72, 0
2, 91811, Control_c, 0, 64, 26
2, 91828, Control_c, 0, 64, 40
2, 91850, Control_c, 0, 64, 54
2, 91868, Control_c, 0, 64, 64
2, 91890, Control_c, 0, 64, 67
2, 91908, Control_c, 0, 64, 72
2, 91928, Control_c, 0, 64, 79
2, 91928, Note_on_c, 0, 56, 0
2, 91946, Control_c, 0, 64, 97
2, 91964, Control_c, 0, 64, 127
2, 92401, Note_on_c, 0, 73, 64
2, 92430, Note_on_c, 0, 56, 40
2, 92620, Note_on_c, 0, 63, 0
2, 92786, Note_on_c, 0, 75, 71
2, 92804, Note_on_c, 0, 56, 0
2, 92878, Note_on_c, 0, 66, 0
2, 92972, Note_on_c, 0, 73, 0
2, 93243, Note_on_c, 0, 49, 42
2, 93250, Control_c, 0, 64, 110
2, 93270, Control_c, 0, 64, 95
2, 93284, Note_on_c, 0, 77, 72
2, 93288, Control_c, 0, 64, 79
2, 93309, Control_c, 0, 64, 66
2, 93327, Control_c, 0, 64, 53
2, 93333, Note_on_c, 0, 75, 0
2, 93348, Control_c, 0, 64, 30
2, 93365, Control_c, 0, 64, 0
2, 93465, Control_c, 0, 64, 33
2, 93481, Control_c, 0, 64, 52
2, 93500, Control_c, 0, 64, 64
2, 93520, Control_c, 0, 64, 74
2, 93539, Control_c, 0, 64, 92
2, 93558, Control_c, 0, 64, 127
2, 93620, Note_on_c, 0, 49, 0
2, 93895, Note_on_c, 0, 77, 0
2, 94144, Note_on_c, 0, 68, 48
2, 94169, Note_on_c, 0, 65, 27
2, 94526, Note_on_c, 0, 68, 0
2, 94545, Note_on_c, 0, 66, 40
2, 94556, Note_on_c, 0, 63, 36
2, 94600, Note_on_c, 0, 65, 0
2, 94654, Control_c, 0, 64, 122
2, 94670, Control_c, 0, 64, 116
2, 94690, Control_c, 0, 64, 112
2, 94708, Control_c, 0, 64, 109
2, 94728, Control_c, 0, 64, 106
2, 94748, Control_c, 0, 64, 104
2, 94769, Control_c, 0, 64, 102
2, 94788, Control_c, 0, 64, 99
2, 94802, Note_on_c, 0, 66, 0
2, 94806, Control_c, 0, 64, 95
2, 94824, Control_c, 0, 64, 91
2, 94844, Control_c, 0, 64, 88
2, 94864, Control_c, 0, 64, 84
2, 94882, Control_c, 0, 64, 80
2, 94901, Control_c, 0, 64, 76
2, 94922, Control_c, 0, 64, 72
2, 94942, Control_c, 0, 64, 68
2, 94948, Note_on_c, 0, 63, 0
2, 94948, Note_on_c, 0, 65, 39
2, 94960, Note_on_c, 0, 61, 34
2, 94964, Control_c, 0, 64, 64
2, 94977, Control_c, 0, 64, 62
2, 94997, Control_c, 0, 64, 61
2, 95017, Control_c, 0, 64, 60
2, 95034, Control_c, 0, 64, 58
2, 95055, Control_c, 0, 64, 55
2, 95075, Control_c, 0, 64, 48
2, 95096, Control_c, 0, 64, 38
2, 95111, Control_c, 0, 64, 25
2, 95134, Control_c, 0, 64, 0
2, 95763, Note_on_c, 0, 73, 50
2, 95767, Note_on_c, 0, 49, 33
2, 96131, Note_on_c, 0, 72, 59
2, 96201, Note_on_c, 0, 73, 0
2, 96576, Note_on_c, 0, 49, 0
2, 96578, Note_on_c, 0, 54, 31
2, 96578, Note_on_c, 0, 70, 43
2, 96598, Note_on_c, 0, 66, 38
2, 96620, Note_on_c, 0, 65, 0
2, 96627, Note_on_c, 0, 72, 0
2, 96727, Control_c, 0, 64, 21
2, 96744, Control_c, 0, 64, 32
2, 96763, Control_c, 0, 64, 42
2, 96783, Control_c, 0, 64, 51
2, 96803, Control_c, 0, 64, 59
2, 96821, Control_c, 0, 64, 62
2, 96844, Control_c, 0, 64, 63
2, 96858, Control_c, 0, 64, 64
2, 96879, Control_c, 0, 64, 66
2, 96897, Control_c, 0, 64, 71
2, 96918, Control_c, 0, 64, 79
2, 96927, Note_on_c, 0, 66, 0
2, 96940, Control_c, 0, 64, 94
2, 96960, Control_c, 0, 64, 127
2, 97045, Note_on_c, 0, 54, 0
2, 97050, Note_on_c, 0, 70, 0
2, 97401, Note_on_c, 0, 70, 62
2, 97416, Note_on_c, 0, 66, 51
2, 97436, Note_on_c, 0, 54, 39
2, 97777, Note_on_c, 0, 61, 0
2, 97797, Note_on_c, 0, 53, 56
2, 97810, Note_on_c, 0, 70, 0
2, 97846, Note_on_c, 0, 54, 0
2, 97996, Note_on_c, 0, 53, 0
2, 98016, Note_on_c, 0, 66, 0
2, 98188, Control_c, 0, 64, 122
2, 98202, Control_c, 0, 64, 106
2, 98211, Note_on_c, 0, 78, 71
2, 98224, Control_c, 0, 64, 90
2, 98224, Note_on_c, 0, 70, 58
2, 98246, Control_c, 0, 64, 72
2, 98246, Note_on_c, 0, 51, 45
2, 98250, Note_on_c, 0, 63, 40
2, 98263, Control_c, 0, 64, 57
2, 98280, Control_c, 0, 64, 18
2, 98299, Control_c, 0, 64, 0
2, 98415, Control_c, 0, 64, 27
2, 98435, Control_c, 0, 64, 44
2, 98455, Control_c, 0, 64, 58
2, 98473, Control_c, 0, 64, 66
2, 98491, Control_c, 0, 64, 70
2, 98511, Control_c, 0, 64, 75
2, 98529, Control_c, 0, 64, 86
2, 98549, Control_c, 0, 64, 118
2, 98571, Control_c, 0, 64, 127
2, 98676, Note_on_c, 0, 70, 0
2, 98695, Note_on_c, 0, 78, 0
2, 98730, Note_on_c, 0, 51, 0
2, 98751, Note_on_c, 0, 63, 0
2, 99025, Note_on_c, 0, 51, 43
2, 99029, Note_on_c, 0, 78, 73
2, 99037, Note_on_c, 0, 70, 60
2, 99044, Note_on_c, 0, 63, 45
2, 99156, Note_on_c, 0, 51, 0
2, 99407, Note_on_c, 0, 77, 81
2, 99436, Note_on_c, 0, 65, 59
2, 99482, Note_on_c, 0, 63, 0
2, 99608, Note_on_c, 0, 65, 0
2, 99683, Control_c, 0, 64, 113
2, 99700, Control_c, 0, 64, 101
2, 99721, Control_c, 0, 64, 91
2, 99740, Control_c, 0, 64, 83
2, 99759, Control_c, 0, 64, 78
2, 99778, Control_c, 0, 64, 73
2, 99797, Control_c, 0, 64, 67
2, 99817, Control_c, 0, 64, 61
2, 99829, Note_on_c, 0, 60, 51
2, 99836, Control_c, 0, 64, 52
2, 99842, Note_on_c, 0, 66, 47
2, 99846, Note_on_c, 0, 75, 70
2, 99855, Control_c, 0, 64, 36
2, 99873, Control_c, 0, 64, 0
2, 99882, Note_on_c, 0, 78, 0
2, 100007, Note_on_c, 0, 77, 0
2, 100029, Control_c, 0, 64, 39
2, 100047, Control_c, 0, 64, 55
2, 100066, Control_c, 0, 64, 65
2, 100086, Control_c, 0, 64, 73
2, 100103, Note_on_c, 0, 70, 0
2, 100108, Control_c, 0, 64, 94
2, 100123, Control_c, 0, 64, 127
2, 100187, Note_on_c, 0, 66, 0
2, 100220, Note_on_c, 0, 75, 0
2, 100298, Note_on_c, 0, 60, 0
2, 100595, Note_on_c, 0, 75, 80
2, 100611, Note_on_c, 0, 66, 47
2, 100616, Note_on_c, 0, 60, 52
2, 100630, Note_on_c, 0, 69, 59
2, 100970, Note_on_c, 0, 70, 81
2, 100977, Note_on_c, 0, 58, 61
2, 101015, Note_on_c, 0, 69, 0
2, 101026, Note_on_c, 0, 60, 0
2, 101026, Note_on_c, 0, 75, 0
2, 101060, Note_on_c, 0, 70, 0
2, 101082, Note_on_c, 0, 66, 0
2, 101325, Note_on_c, 0, 58, 0
2, 101372, Note_on_c, 0, 84, 81
2, 101381, Note_on_c, 0, 57, 52
2, 101381, Note_on_c, 0, 66, 47
2, 101392, Control_c, 0, 64, 104
2, 101392, Note_on_c, 0, 72, 71
2, 101410, Control_c, 0, 64, 74
2, 101430, Control_c, 0, 64, 56
2, 101449, Control_c, 0, 64, 0
2, 101564, Control_c, 0, 64, 31
2, 101582, Control_c, 0, 64, 54
2, 101603, Control_c, 0, 64, 67
2, 101621, Control_c, 0, 64, 80
2, 101640, Control_c, 0, 64, 127
2, 101667, Note_on_c, 0, 72, 0
2, 101717, Note_on_c, 0, 66, 0
2, 101731, Note_on_c, 0, 84, 0
2, 101779, Note_on_c, 0, 57, 0
2, 102217, Note_on_c, 0, 84, 77
2, 102243, Note_on_c, 0, 65, 38
2, 102257, Note_on_c, 0, 72, 50
2, 102272, Note_on_c, 0, 57, 35
2, 102314, Note_on_c, 0, 72, 0
2, 102318, Note_on_c, 0, 72, 35
2, 102410, Control_c, 0, 64, 71
2, 102430, Control_c, 0, 64, 51
2, 102447, Control_c, 0, 64, 0
2, 102505, Control_c, 0, 64, 12
2, 102525, Control_c, 0, 64, 39
2, 102543, Control_c, 0, 64, 57
2, 102561, Control_c, 0, 64, 66
2, 102581, Control_c, 0, 64, 72
2, 102588, Note_on_c, 0, 82, 75
2, 102601, Control_c, 0, 64, 83
2, 102619, Control_c, 0, 64, 98
2, 102639, Control_c, 0, 64, 127
2, 102709, Note_on_c, 0, 72, 0
2, 102887, Note_on_c, 0, 65, 0
2, 103014, Note_on_c, 0, 81, 63
2, 103047, Note_on_c, 0, 77, 54
2, 103051, Note_on_c, 0, 84, 0
2, 103056, Note_on_c, 0, 63, 41
2, 103081, Note_on_c, 0, 72, 44
2, 103102, Control_c, 0, 64, 79
2, 103102, Note_on_c, 0, 82, 0
2, 103118, Control_c, 0, 64, 61
2, 103140, Control_c, 0, 64, 33
2, 103158, Control_c, 0, 64, 0
2, 103174, Note_on_c, 0, 57, 0
2, 103212, Note_on_c, 0, 72, 0
2, 103212, Note_on_c, 0, 72, 6
2, 103254, Control_c, 0, 64, 11
2, 103271, Control_c, 0, 64, 38
2, 103293, Control_c, 0, 64, 57
2, 103293, Note_on_c, 0, 72, 0
2, 103310, Control_c, 0, 64, 66
2, 103330, Control_c, 0, 64, 73
2, 103352, Control_c, 0, 64, 93
2, 103368, Control_c, 0, 64, 127
2, 103407, Note_on_c, 0, 81, 0
2, 103418, Note_on_c, 0, 77, 0
2, 103776, Note_on_c, 0, 81, 68
2, 103795, Note_on_c, 0, 77, 55
2, 103796, Note_on_c, 0, 65, 46
2, 103804, Note_on_c, 0, 63, 0
2, 103807, Note_on_c, 0, 72, 55
2, 104141, Note_on_c, 0, 72, 0
2, 104157, Note_on_c, 0, 63, 60
2, 104233, Note_on_c, 0, 77, 0
2, 104360, Note_on_c, 0, 65, 0
2, 104543, Note_on_c, 0, 81, 0
2, 104552, Note_on_c, 0, 82, 66
2, 104561, Note_on_c, 0, 62, 58
2, 104565, Note_on_c, 0, 70, 52
2, 104574, Note_on_c, 0, 77, 57
2, 104578, Control_c, 0, 64, 92
2, 104596, Control_c, 0, 64, 71
2, 104618, Control_c, 0, 64, 57
2, 104629, Note_on_c, 0, 63, 0
2, 104635, Control_c, 0, 64, 25
2, 104654, Control_c, 0, 64, 0
2, 104770, Control_c, 0, 64, 20
2, 104788, Control_c, 0, 64, 41
2, 104809, Control_c, 0, 64, 57
2, 104828, Control_c, 0, 64, 65
2, 104846, Control_c, 0, 64, 70
2, 104867, Control_c, 0, 64, 78
2, 104887, Control_c, 0, 64, 91
2, 104904, Control_c, 0, 64, 127
2, 104937, Note_on_c, 0, 82, 0
2, 104951, Note_on_c, 0, 70, 0
2, 104971, Note_on_c, 0, 62, 0
2, 104991, Note_on_c, 0, 77, 0
2, 105294, Note_on_c, 0, 82, 70
2, 105315, Note_on_c, 0, 62, 54
2, 105318, Note_on_c, 0, 77, 61
2, 105321, Note_on_c, 0, 70, 48
2, 105361, Control_c, 0, 64, 122
2, 105381, Control_c, 0, 64, 81
2, 105403, Control_c, 0, 64, 64
2, 105419, Control_c, 0, 64, 47
2, 105440, Control_c, 0, 64, 0
2, 105553, Control_c, 0, 64, 24
2, 105574, Control_c, 0, 64, 42
2, 105592, Control_c, 0, 64, 56
2, 105612, Control_c, 0, 64, 64
2, 105631, Control_c, 0, 64, 66
2, 105650, Control_c, 0, 64, 67
2, 105654, Note_on_c, 0, 80, 75
2, 105670, Control_c, 0, 64, 70
2, 105690, Control_c, 0, 64, 76
2, 105708, Control_c, 0, 64, 89
2, 105727, Control_c, 0, 64, 127
2, 105782, Note_on_c, 0, 77, 0
2, 105825, Note_on_c, 0, 70, 0
2, 106035, Control_c, 0, 64, 109
2, 106044, Note_on_c, 0, 63, 43
2, 106044, Note_on_c, 0, 78, 69
2, 106056, Control_c, 0, 64, 95
2, 106062, Note_on_c, 0, 77, 57
2, 106073, Note_on_c, 0, 70, 40
2, 106078, Control_c, 0, 64, 84
2, 106078, Note_on_c, 0, 62, 0
2, 106096, Control_c, 0, 64, 72
2, 106112, Control_c, 0, 64, 61
2, 106131, Control_c, 0, 64, 38
2, 106149, Control_c, 0, 64, 0
2, 106154, Note_on_c, 0, 82, 0
2, 106172, Note_on_c, 0, 80, 0
2, 106265, Control_c, 0, 64, 28
2, 106285, Control_c, 0, 64, 47
2, 106302, Control_c, 0, 64, 60
2, 106322, Control_c, 0, 64, 67
2, 106344, Control_c, 0, 64, 73
2, 106361, Control_c, 0, 64, 83
2, 106372, Note_on_c, 0, 70, 0
2, 106372, Note_on_c, 0, 77, 0
2, 106381, Control_c, 0, 64, 106
2, 106401, Control_c, 0, 64, 127
2, 106517, Note_on_c, 0, 63, 0
2, 106524, Note_on_c, 0, 78, 0
2, 106797, Note_on_c, 0, 78, 74
2, 106822, Note_on_c, 0, 70, 55
2, 106822, Note_on_c, 0, 75, 61
2, 106831, Note_on_c, 0, 63, 53
2, 107108, Note_on_c, 0, 75, 0
2, 107133, Note_on_c, 0, 78, 0
2, 107180, Note_on_c, 0, 70, 0
2, 107193, Note_on_c, 0, 61, 64
2, 107344, Note_on_c, 0, 63, 0
2, 107571, Control_c, 0, 64, 116
2, 107580, Note_on_c, 0, 61, 0
2, 107585, Note_on_c, 0, 78, 71
2, 107589, Control_c, 0, 64, 94
2, 107599, Note_on_c, 0, 75, 68
2, 107600, Note_on_c, 0, 70, 57
2, 107608, Control_c, 0, 64, 81
2, 107608, Note_on_c, 0, 60, 57
2, 107626, Control_c, 0, 64, 70
2, 107646, Control_c, 0, 64, 60
2, 107666, Control_c, 0, 64, 43
2, 107684, Control_c, 0, 64, 0
2, 107819, Control_c, 0, 64, 29
2, 107839, Control_c, 0, 64, 45
2, 107857, Control_c, 0, 64, 58
2, 107877, Control_c, 0, 64, 64
2, 107895, Control_c, 0, 64, 67
2, 107908, Note_on_c, 0, 60, 0
2, 107917, Control_c, 0, 64, 70
2, 107934, Control_c, 0, 64, 76
2, 107954, Control_c, 0, 64, 89
2, 107974, Control_c, 0, 64, 127
2, 108051, Note_on_c, 0, 78, 0
2, 108105, Note_on_c, 0, 75, 0
2, 108363, Note_on_c, 0, 60, 64
2, 108363, Note_on_c, 0, 69, 65
2, 108363, Note_on_c, 0, 78, 70
2, 108372, Note_on_c, 0, 75, 66
2, 108401, Note_on_c, 0, 70, 0
2, 108724, Note_on_c, 0, 70, 78
2, 108726, Note_on_c, 0, 58, 64
2, 108782, Note_on_c, 0, 75, 0
2, 108830, Note_on_c, 0, 78, 0
2, 108845, Note_on_c, 0, 60, 0
2, 108852, Note_on_c, 0, 69, 0
2, 108932, Control_c, 0, 64, 110
2, 108952, Control_c, 0, 64, 101
2, 108974, Control_c, 0, 64, 95
2, 108991, Control_c, 0, 64, 92
2, 109009, Control_c, 0, 64, 88
2, 109028, Control_c, 0, 64, 85
2, 109050, Control_c, 0, 64, 80
2, 109070, Control_c, 0, 64, 74
2, 109070, Note_on_c, 0, 58, 0
2, 109087, Control_c, 0, 64, 69
2, 109107, Control_c, 0, 64, 65
2, 109128, Control_c, 0, 64, 60
2, 109128, Note_on_c, 0, 78, 79
2, 109137, Note_on_c, 0, 57, 58
2, 109137, Note_on_c, 0, 72, 71
2, 109145, Control_c, 0, 64, 53
2, 109149, Note_on_c, 0, 75, 67
2, 109165, Control_c, 0, 64, 36
2, 109184, Control_c, 0, 64, 0
2, 109243, Note_on_c, 0, 70, 0
2, 109317, Control_c, 0, 64, 27
2, 109337, Control_c, 0, 64, 49
2, 109354, Control_c, 0, 64, 63
2, 109375, Control_c, 0, 64, 70
2, 109393, Control_c, 0, 64, 80
2, 109413, Control_c, 0, 64, 110
2, 109431, Control_c, 0, 64, 127
2, 109484, Note_on_c, 0, 72, 0
2, 109489, Note_on_c, 0, 57, 0
2, 109556, Note_on_c, 0, 78, 0
2, 109890, Note_on_c, 0, 77, 81
2, 109906, Note_on_c, 0, 65, 43
2, 109917, Note_on_c, 0, 73, 69
2, 109928, Note_on_c, 0, 57, 33
2, 109932, Control_c, 0, 64, 94
2, 109950, Control_c, 0, 64, 74
2, 109954, Note_on_c, 0, 75, 0
2, 109970, Control_c, 0, 64, 61
2, 109990, Control_c, 0, 64, 40
2, 110008, Control_c, 0, 64, 0
2, 110162, Control_c, 0, 64, 28
2, 110180, Control_c, 0, 64, 34
2, 110200, Control_c, 0, 64, 43
2, 110220, Control_c, 0, 64, 53
2, 110238, Control_c, 0, 64, 61
2, 110259, Control_c, 0, 64, 64
2, 110273, Note_on_c, 0, 72, 69
2, 110277, Control_c, 0, 64, 65
2, 110285, Note_on_c, 0, 63, 47
2, 110296, Control_c, 0, 64, 66
2, 110313, Note_on_c, 0, 77, 0
2, 110318, Control_c, 0, 64, 69
2, 110333, Control_c, 0, 64, 76
2, 110338, Note_on_c, 0, 73, 0
2, 110347, Note_on_c, 0, 65, 0
2, 110353, Control_c, 0, 64, 89
2, 110376, Control_c, 0, 64, 127
2, 110463, Note_on_c, 0, 63, 0
2, 110662, Note_on_c, 0, 72, 0
2, 110682, Note_on_c, 0, 77, 63
2, 110690, Note_on_c, 0, 70, 53
2, 110697, Control_c, 0, 64, 101
2, 110704, Note_on_c, 0, 58, 43
2, 110713, Note_on_c, 0, 61, 37
2, 110717, Control_c, 0, 64, 88
2, 110734, Control_c, 0, 64, 78
2, 110755, Control_c, 0, 64, 69
2, 110775, Control_c, 0, 64, 59
2, 110775, Note_on_c, 0, 57, 0
2, 110795, Control_c, 0, 64, 37
2, 110812, Control_c, 0, 64, 0
2, 110927, Control_c, 0, 64, 21
2, 110947, Control_c, 0, 64, 40
2, 110967, Control_c, 0, 64, 54
2, 110985, Control_c, 0, 64, 63
2, 110997, Note_on_c, 0, 70, 0
2, 111004, Control_c, 0, 64, 67
2, 111022, Control_c, 0, 64, 70
2, 111042, Control_c, 0, 64, 75
2, 111062, Control_c, 0, 64, 85
2, 111079, Note_on_c, 0, 61, 0
2, 111084, Control_c, 0, 64, 104
2, 111099, Control_c, 0, 64, 127
2, 111130, Note_on_c, 0, 58, 0
2, 111480, Note_on_c, 0, 78, 65
2, 111483, Note_on_c, 0, 61, 37
2, 111501, Note_on_c, 0, 70, 44
2, 111520, Note_on_c, 0, 77, 0
2, 111532, Note_on_c, 0, 58, 38
2, 111600, Control_c, 0, 64, 104
2, 111618, Control_c, 0, 64, 81
2, 111636, Control_c, 0, 64, 66
2, 111656, Control_c, 0, 64, 54
2, 111676, Control_c, 0, 64, 40
2, 111693, Control_c, 0, 64, 36
2, 111714, Control_c, 0, 64, 41
2, 111736, Control_c, 0, 64, 48
2, 111752, Control_c, 0, 64, 57
2, 111772, Control_c, 0, 64, 63
2, 111792, Control_c, 0, 64, 66
2, 111811, Control_c, 0, 64, 69
2, 111832, Control_c, 0, 64, 75
2, 111832, Note_on_c, 0, 58, 0
2, 111848, Control_c, 0, 64, 86
2, 111868, Control_c, 0, 64, 120
2, 111873, Note_on_c, 0, 56, 50
2, 111882, Note_on_c, 0, 77, 67
2, 111887, Control_c, 0, 64, 127
2, 111935, Note_on_c, 0, 56, 0
2, 111944, Note_on_c, 0, 70, 0
2, 111955, Note_on_c, 0, 61, 0
2, 112271, Control_c, 0, 64, 100
2, 112283, Note_on_c, 0, 61, 35
2, 112287, Note_on_c, 0, 75, 58
2, 112291, Control_c, 0, 64, 84
2, 112291, Note_on_c, 0, 70, 47
2, 112298, Note_on_c, 0, 54, 37
2, 112309, Control_c, 0, 64, 70
2, 112329, Control_c, 0, 64, 59
2, 112347, Control_c, 0, 64, 41
2, 112367, Control_c, 0, 64, 0
2, 112423, Note_on_c, 0, 78, 0
2, 112451, Note_on_c, 0, 77, 0
2, 112464, Control_c, 0, 64, 13
2, 112482, Control_c, 0, 64, 35
2, 112500, Control_c, 0, 64, 50
2, 112519, Control_c, 0, 64, 62
2, 112539, Control_c, 0, 64, 66
2, 112561, Control_c, 0, 64, 68
2, 112578, Control_c, 0, 64, 70
2, 112597, Control_c, 0, 64, 74
2, 112612, Note_on_c, 0, 70, 0
2, 112620, Control_c, 0, 64, 82
2, 112620, Note_on_c, 0, 54, 0
2, 112627, Note_on_c, 0, 75, 0
2, 112635, Control_c, 0, 64, 96
2, 112657, Control_c, 0, 64, 127
2, 112691, Note_on_c, 0, 61, 0
2, 113103, Note_on_c, 0, 75, 55
2, 113117, Control_c, 0, 64, 106
2, 113131, Note_on_c, 0, 69, 41
2, 113135, Control_c, 0, 64, 93
2, 113135, Note_on_c, 0, 54, 33
2, 113149, Note_on_c, 0, 60, 38
2, 113153, Control_c, 0, 64, 82
2, 113173, Control_c, 0, 64, 71
2, 113192, Control_c, 0, 64, 60
2, 113212, Control_c, 0, 64, 45
2, 113231, Control_c, 0, 64, 18
2, 113250, Control_c, 0, 64, 0
2, 113306, Control_c, 0, 64, 13
2, 113328, Control_c, 0, 64, 30
2, 113346, Control_c, 0, 64, 46
2, 113364, Control_c, 0, 64, 58
2, 113383, Control_c, 0, 64, 63
2, 113404, Control_c, 0, 64, 64
2, 113422, Control_c, 0, 64, 65
2, 113441, Control_c, 0, 64, 66
2, 113441, Note_on_c, 0, 54, 0
2, 113461, Control_c, 0, 64, 71
2, 113481, Control_c, 0, 64, 79
2, 113487, Note_on_c, 0, 61, 40
2, 113487, Note_on_c, 0, 73, 73
2, 113491, Note_on_c, 0, 70, 62
2, 113505, Control_c, 0, 64, 96
2, 113505, Note_on_c, 0, 53, 45
2, 113505, Note_on_c, 0, 69, 0
2, 113519, Control_c, 0, 64, 127
2, 113543, Note_on_c, 0, 60, 0
2, 113643, Note_on_c, 0, 53, 0
2, 113683, Note_on_c, 0, 70, 0
2, 113699, Note_on_c, 0, 61, 0
2, 113898, Note_on_c, 0, 72, 74
2, 113902, Note_on_c, 0, 70, 69
2, 113906, Control_c, 0, 64, 100
2, 113911, Note_on_c, 0, 63, 55
2, 113924, Control_c, 0, 64, 76
2, 113928, Note_on_c, 0, 51, 53
2, 113941, Control_c, 0, 64, 60
2, 113961, Control_c, 0, 64, 27
2, 113981, Control_c, 0, 64, 0
2, 114028, Note_on_c, 0, 73, 0
2, 114097, Control_c, 0, 64, 28
2, 114097, Note_on_c, 0, 75, 0
2, 114113, Control_c, 0, 64, 45
2, 114134, Control_c, 0, 64, 58
2, 114142, Note_on_c, 0, 63, 0
2, 114154, Control_c, 0, 64, 65
2, 114172, Control_c, 0, 64, 72
2, 114190, Control_c, 0, 64, 85
2, 114210, Control_c, 0, 64, 127
2, 114309, Note_on_c, 0, 72, 0
2, 114319, Note_on_c, 0, 51, 0
2, 114330, Note_on_c, 0, 70, 0
2, 114657, Note_on_c, 0, 72, 74
2, 114661, Note_on_c, 0, 69, 60
2, 114665, Note_on_c, 0, 66, 60
2, 114676, Note_on_c, 0, 51, 53
2, 114692, Control_c, 0, 64, 84
2, 114712, Control_c, 0, 64, 61
2, 114730, Control_c, 0, 64, 31
2, 114746, Control_c, 0, 64, 0
2, 114844, Control_c, 0, 64, 21
2, 114862, Control_c, 0, 64, 44
2, 114882, Control_c, 0, 64, 58
2, 114901, Control_c, 0, 64, 65
2, 114922, Control_c, 0, 64, 68
2, 114940, Control_c, 0, 64, 73
2, 114959, Control_c, 0, 64, 80
2, 114981, Control_c, 0, 64, 94
2, 114998, Control_c, 0, 64, 127
2, 115041, Note_on_c, 0, 49, 61
2, 115041, Note_on_c, 0, 73, 85
2, 115045, Note_on_c, 0, 70, 75
2, 115084, Note_on_c, 0, 72, 0
2, 115129, Note_on_c, 0, 66, 0
2, 115129, Note_on_c, 0, 69, 0
2, 115137, Note_on_c, 0, 51, 0
2, 115281, Note_on_c, 0, 73, 0
2, 115382, Control_c, 0, 64, 101
2, 115399, Control_c, 0, 64, 86
2, 115419, Control_c, 0, 64, 76
2, 115439, Control_c, 0, 64, 65
2, 115453, Note_on_c, 0, 75, 82
2, 115457, Note_on_c, 0, 48, 64
2, 115462, Control_c, 0, 64, 54
2, 115462, Note_on_c, 0, 49, 0
2, 115473, Note_on_c, 0, 69, 51
2, 115477, Control_c, 0, 64, 29
2, 115482, Note_on_c, 0, 66, 64
2, 115498, Control_c, 0, 64, 0
2, 115529, Note_on_c, 0, 70, 0
2, 115630, Control_c, 0, 64, 8
2, 115652, Control_c, 0, 64, 39
2, 115669, Control_c, 0, 64, 52
2, 115689, Control_c, 0, 64, 60
2, 115708, Control_c, 0, 64, 64
2, 115729, Control_c, 0, 64, 66
2, 115729, Note_on_c, 0, 48, 0
2, 115747, Control_c, 0, 64, 70
2, 115764, Control_c, 0, 64, 77
2, 115784, Control_c, 0, 64, 94
2, 115803, Control_c, 0, 64, 127
2, 115871, Note_on_c, 0, 66, 0
2, 115900, Note_on_c, 0, 69, 0
2, 116244, Note_on_c, 0, 48, 73
2, 116252, Note_on_c, 0, 69, 67
2, 116252, Note_on_c, 0, 72, 82
2, 116261, Note_on_c, 0, 66, 64
2, 116274, Note_on_c, 0, 75, 0
2, 116325, Control_c, 0, 64, 107
2, 116345, Control_c, 0, 64, 69
2, 116366, Control_c, 0, 64, 41
2, 116386, Control_c, 0, 64, 0
2, 116502, Control_c, 0, 64, 38
2, 116520, Control_c, 0, 64, 52
2, 116539, Control_c, 0, 64, 61
2, 116557, Control_c, 0, 64, 64
2, 116578, Control_c, 0, 64, 66
2, 116597, Control_c, 0, 64, 69
2, 116617, Control_c, 0, 64, 75
2, 116635, Control_c, 0, 64, 85
2, 116639, Note_on_c, 0, 73, 85
2, 116649, Note_on_c, 0, 46, 71
2, 116656, Control_c, 0, 64, 104
2, 116656, Note_on_c, 0, 70, 77
2, 116674, Control_c, 0, 64, 127
2, 116683, Note_on_c, 0, 72, 0
2, 116709, Note_on_c, 0, 48, 0
2, 116731, Note_on_c, 0, 66, 0
2, 116735, Note_on_c, 0, 69, 0
2, 116870, Note_on_c, 0, 73, 0
2, 116962, Control_c, 0, 64, 122
2, 116985, Control_c, 0, 64, 112
2, 117001, Control_c, 0, 64, 104
2, 117021, Control_c, 0, 64, 98
2, 117039, Control_c, 0, 64, 93
2, 117058, Control_c, 0, 64, 89
2, 117076, Control_c, 0, 64, 88
2, 117117, Control_c, 0, 64, 86
2, 117117, Note_on_c, 0, 45, 56
2, 117134, Control_c, 0, 64, 84
2, 117141, Note_on_c, 0, 75, 76
2, 117154, Control_c, 0, 64, 80
2, 117158, Note_on_c, 0, 72, 77
2, 117167, Note_on_c, 0, 66, 62
2, 117173, Control_c, 0, 64, 75
2, 117195, Control_c, 0, 64, 68
2, 117195, Note_on_c, 0, 46, 0
2, 117211, Control_c, 0, 64, 60
2, 117220, Note_on_c, 0, 70, 0
2, 117229, Control_c, 0, 64, 42
2, 117250, Control_c, 0, 64, 0
2, 117385, Control_c, 0, 64, 22
2, 117403, Control_c, 0, 64, 43
2, 117423, Control_c, 0, 64, 54
2, 117442, Control_c, 0, 64, 61
2, 117460, Control_c, 0, 64, 64
2, 117480, Control_c, 0, 64, 67
2, 117501, Control_c, 0, 64, 72
2, 117505, Note_on_c, 0, 75, 0
2, 117508, Note_on_c, 0, 66, 0
2, 117518, Control_c, 0, 64, 82
2, 117538, Control_c, 0, 64, 105
2, 117556, Control_c, 0, 64, 127
2, 117703, Note_on_c, 0, 72, 0
2, 117970, Note_on_c, 0, 73, 75
2, 117979, Note_on_c, 0, 41, 49
2, 117984, Note_on_c, 0, 65, 60
2, 117984, Note_on_c, 0, 70, 64
2, 118017, Control_c, 0, 64, 96
2, 118038, Control_c, 0, 64, 83
2, 118058, Control_c, 0, 64, 74
2, 118058, Note_on_c, 0, 45, 0
2, 118075, Control_c, 0, 64, 65
2, 118093, Control_c, 0, 64, 54
2, 118112, Control_c, 0, 64, 26
2, 118134, Control_c, 0, 64, 0
2, 118286, Control_c, 0, 64, 20
2, 118305, Control_c, 0, 64, 33
2, 118324, Control_c, 0, 64, 46
2, 118346, Control_c, 0, 64, 57
2, 118364, Control_c, 0, 64, 63
2, 118368, Note_on_c, 0, 72, 71
2, 118383, Control_c, 0, 64, 64
2, 118383, Note_on_c, 0, 69, 60
2, 118420, Control_c, 0, 64, 66
2, 118426, Note_on_c, 0, 70, 0
2, 118442, Control_c, 0, 64, 68
2, 118447, Note_on_c, 0, 73, 0
2, 118458, Control_c, 0, 64, 73
2, 118465, Note_on_c, 0, 65, 0
2, 118479, Control_c, 0, 64, 80
2, 118499, Control_c, 0, 64, 92
2, 118517, Control_c, 0, 64, 112
2, 118536, Control_c, 0, 64, 127
2, 118809, Note_on_c, 0, 69, 0
2, 118821, Note_on_c, 0, 73, 67
2, 118825, Control_c, 0, 64, 106
2, 118840, Note_on_c, 0, 70, 59
2, 118844, Control_c, 0, 64, 94
2, 118848, Note_on_c, 0, 46, 46
2, 118848, Note_on_c, 0, 65, 43
2, 118855, Note_on_c, 0, 72, 0
2, 118862, Control_c, 0, 64, 82
2, 118871, Note_on_c, 0, 41, 0
2, 118884, Control_c, 0, 64, 70
2, 118899, Control_c, 0, 64, 60
2, 118921, Control_c, 0, 64, 43
2, 118939, Control_c, 0, 64, 0
2, 119095, Control_c, 0, 64, 29
2, 119114, Control_c, 0, 64, 37
2, 119132, Control_c, 0, 64, 48
2, 119152, Control_c, 0, 64, 59
2, 119173, Control_c, 0, 64, 64
2, 119188, Control_c, 0, 64, 66
2, 119210, Control_c, 0, 64, 69
2, 119230, Control_c, 0, 64, 74
2, 119248, Control_c, 0, 64, 84
2, 119266, Control_c, 0, 64, 110
2, 119285, Control_c, 0, 64, 127
2, 119296, Note_on_c, 0, 46, 0
2, 119686, Note_on_c, 0, 46, 59
2, 119937, Control_c, 0, 64, 113
2, 119957, Control_c, 0, 64, 101
2, 119976, Control_c, 0, 64, 95
2, 119995, Control_c, 0, 64, 90
2, 120014, Control_c, 0, 64, 87
2, 120034, Control_c, 0, 64, 83
2, 120047, Note_on_c, 0, 44, 71
2, 120053, Control_c, 0, 64, 81
2, 120072, Control_c, 0, 64, 78
2, 120092, Control_c, 0, 64, 76
2, 120110, Control_c, 0, 64, 74
2, 120128, Control_c, 0, 64, 72
2, 120149, Control_c, 0, 64, 70
2, 120167, Control_c, 0, 64, 67
2, 120187, Control_c, 0, 64, 64
2, 120205, Control_c, 0, 64, 62
2, 120209, Note_on_c, 0, 46, 0
2, 120228, Control_c, 0, 64, 60
2, 120244, Control_c, 0, 64, 59
2, 120263, Control_c, 0, 64, 58
2, 120282, Control_c, 0, 64, 55
2, 120302, Control_c, 0, 64, 50
2, 120320, Control_c, 0, 64, 44
2, 120341, Control_c, 0, 64, 38
2, 120358, Control_c, 0, 64, 31
2, 120378, Control_c, 0, 64, 22
2, 120400, Control_c, 0, 64, 0
2, 120459, Note_on_c, 0, 42, 65
2, 120552, Note_on_c, 0, 44, 0
2, 120724, Control_c, 0, 64, 32
2, 120742, Control_c, 0, 64, 50
2, 120760, Note_on_c, 0, 65, 0
2, 120764, Control_c, 0, 64, 60
2, 120786, Control_c, 0, 64, 64
2, 120801, Control_c, 0, 64, 66
2, 120821, Control_c, 0, 64, 68
2, 120840, Control_c, 0, 64, 76
2, 120859, Control_c, 0, 64, 100
2, 120882, Control_c, 0, 64, 127
2, 120882, Note_on_c, 0, 42, 0
2, 120960, Note_on_c, 0, 70, 0
2, 121277, Note_on_c, 0, 42, 61
2, 121277, Note_on_c, 0, 70, 66
2, 121288, Note_on_c, 0, 65, 59
2, 121377, Control_c, 0, 64, 97
2, 121397, Control_c, 0, 64, 76
2, 121416, Control_c, 0, 64, 63
2, 121434, Control_c, 0, 64, 49
2, 121453, Control_c, 0, 64, 15
2, 121473, Control_c, 0, 64, 0
2, 121606, Control_c, 0, 64, 28
2, 121626, Control_c, 0, 64, 42
2, 121646, Control_c, 0, 64, 54
2, 121655, Note_on_c, 0, 41, 68
2, 121664, Control_c, 0, 64, 60
2, 121684, Control_c, 0, 64, 62
2, 121725, Note_on_c, 0, 65, 0
2, 121746, Note_on_c, 0, 42, 0
2, 121762, Control_c, 0, 64, 63
2, 121780, Control_c, 0, 64, 64
2, 121798, Control_c, 0, 64, 65
2, 121807, Note_on_c, 0, 70, 0
2, 121820, Control_c, 0, 64, 66
2, 121838, Control_c, 0, 64, 68
2, 121855, Control_c, 0, 64, 69
2, 121873, Control_c, 0, 64, 70
2, 121893, Control_c, 0, 64, 69
2, 121933, Control_c, 0, 64, 68
2, 121968, Control_c, 0, 64, 67
2, 121988, Control_c, 0, 64, 66
2, 122007, Control_c, 0, 64, 65
2, 122049, Control_c, 0, 64, 64
2, 122087, Control_c, 0, 64, 63
2, 122103, Control_c, 0, 64, 62
2, 122116, Note_on_c, 0, 39, 41
2, 122116, Note_on_c, 0, 70, 60
2, 122124, Control_c, 0, 64, 61
2, 122124, Note_on_c, 0, 66, 48
2, 122144, Control_c, 0, 64, 57
2, 122148, Note_on_c, 0, 41, 0
2, 122161, Control_c, 0, 64, 50
2, 122181, Control_c, 0, 64, 31
2, 122201, Control_c, 0, 64, 0
2, 122244, Note_on_c, 0, 73, 0
2, 122354, Control_c, 0, 64, 24
2, 122374, Control_c, 0, 64, 42
2, 122390, Control_c, 0, 64, 56
2, 122413, Control_c, 0, 64, 63
2, 122431, Control_c, 0, 64, 66
2, 122451, Control_c, 0, 64, 69
2, 122469, Control_c, 0, 64, 75
2, 122487, Control_c, 0, 64, 88
2, 122506, Control_c, 0, 64, 127
2, 122524, Note_on_c, 0, 39, 0
2, 122992, Note_on_c, 0, 78, 62
2, 123008, Note_on_c, 0, 39, 41
2, 123193, Note_on_c, 0, 78, 0
2, 123276, Note_on_c, 0, 39, 0
2, 123423, Note_on_c, 0, 77, 74
2, 123816, Note_on_c, 0, 39, 46
2, 123839, Note_on_c, 0, 75, 71
2, 123894, Control_c, 0, 64, 118
2, 123908, Control_c, 0, 64, 73
2, 123928, Control_c, 0, 64, 55
2, 123948, Control_c, 0, 64, 0
2, 124044, Control_c, 0, 64, 35
2, 124062, Control_c, 0, 64, 53
2, 124083, Control_c, 0, 64, 66
2, 124100, Control_c, 0, 64, 74
2, 124108, Note_on_c, 0, 39, 0
2, 124120, Control_c, 0, 64, 90
2, 124133, Note_on_c, 0, 77, 0
2, 124138, Control_c, 0, 64, 127
2, 124218, Note_on_c, 0, 73, 79
2, 124278, Note_on_c, 0, 66, 0
2, 124309, Note_on_c, 0, 70, 0
2, 124320, Note_on_c, 0, 75, 0
2, 124368, Note_on_c, 0, 73, 0
2, 124695, Note_on_c, 0, 72, 82
2, 124716, Note_on_c, 0, 66, 69
2, 124725, Note_on_c, 0, 39, 46
2, 124736, Note_on_c, 0, 63, 57
2, 124753, Control_c, 0, 64, 101
2, 124771, Control_c, 0, 64, 64
2, 124792, Control_c, 0, 64, 41
2, 124814, Control_c, 0, 64, 0
2, 124849, Control_c, 0, 64, 8
2, 124869, Control_c, 0, 64, 34
2, 124887, Control_c, 0, 64, 53
2, 124907, Control_c, 0, 64, 65
2, 124925, Control_c, 0, 64, 71
2, 124947, Control_c, 0, 64, 79
2, 124947, Note_on_c, 0, 63, 0
2, 124965, Control_c, 0, 64, 87
2, 124982, Control_c, 0, 64, 103
2, 124999, Control_c, 0, 64, 127
2, 125155, Control_c, 0, 64, 81
2, 125175, Control_c, 0, 64, 59
2, 125175, Note_on_c, 0, 70, 76
2, 125194, Control_c, 0, 64, 36
2, 125198, Note_on_c, 0, 61, 52
2, 125211, Control_c, 0, 64, 10
2, 125231, Control_c, 0, 64, 26
2, 125249, Control_c, 0, 64, 46
2, 125269, Control_c, 0, 64, 62
2, 125287, Control_c, 0, 64, 74
2, 125300, Note_on_c, 0, 72, 0
2, 125307, Control_c, 0, 64, 127
2, 125375, Note_on_c, 0, 66, 0
2, 125422, Note_on_c, 0, 61, 0
2, 125459, Note_on_c, 0, 70, 0
2, 125593, Note_on_c, 0, 39, 0
2, 126013, Note_on_c, 0, 69, 67
2, 126017, Control_c, 0, 64, 110
2, 126035, Note_on_c, 0, 65, 53
2, 126039, Control_c, 0, 64, 97
2, 126043, Note_on_c, 0, 41, 39
2, 126043, Note_on_c, 0, 60, 46
2, 126060, Control_c, 0, 64, 87
2, 126079, Control_c, 0, 64, 77
2, 126095, Control_c, 0, 64, 68
2, 126115, Control_c, 0, 64, 59
2, 126136, Control_c, 0, 64, 43
2, 126153, Control_c, 0, 64, 0
2, 126307, Control_c, 0, 64, 42
2, 126327, Control_c, 0, 64, 57
2, 126343, Control_c, 0, 64, 65
2, 126363, Control_c, 0, 64, 68
2, 126383, Control_c, 0, 64, 74
2, 126400, Control_c, 0, 64, 84
2, 126421, Control_c, 0, 64, 127
2, 126541, Note_on_c, 0, 41, 0
2, 126588, Note_on_c, 0, 60, 0
2, 126641, Note_on_c, 0, 69, 0
2, 126645, Note_on_c, 0, 65, 0
2, 126977, Control_c, 0, 64, 115
2, 126999, Control_c, 0, 64, 103
2, 127018, Control_c, 0, 64, 96
2, 127037, Control_c, 0, 64, 92
2, 127054, Control_c, 0, 64, 89
2, 127073, Control_c, 0, 64, 86
2, 127095, Control_c, 0, 64, 85
2, 127112, Control_c, 0, 64, 83
2, 127149, Control_c, 0, 64, 82
2, 127170, Control_c, 0, 64, 81
2, 127188, Control_c, 0, 64, 79
2, 127208, Control_c, 0, 64, 77
2, 127226, Control_c, 0, 64, 75
2, 127246, Control_c, 0, 64, 73
2, 127264, Control_c, 0, 64, 70
2, 127284, Control_c, 0, 64, 67
2, 127306, Control_c, 0, 64, 65
2, 127323, Control_c, 0, 64, 63
2, 127343, Control_c, 0, 64, 61
2, 127347, Note_on_c, 0, 65, 34
2, 127362, Control_c, 0, 64, 60
2, 127385, Control_c, 0, 64, 59
2, 127385, Note_on_c, 0, 53, 25
2, 127385, Note_on_c, 0, 57, 27
2, 127399, Control_c, 0, 64, 57
2, 127419, Control_c, 0, 64, 53
2, 127439, Control_c, 0, 64, 46
2, 127458, Control_c, 0, 64, 35
2, 127476, Control_c, 0, 64, 19
2, 127494, Control_c, 0, 64, 0
2, 127750, Note_on_c, 0, 67, 50
2, 127764, Note_on_c, 0, 58, 39
2, 127838, Note_on_c, 0, 57, 0
2, 127842, Note_on_c, 0, 65, 0
2, 127911, Note_on_c, 0, 53, 0
2, 128148, Note_on_c, 0, 67, 0
2, 128159, Note_on_c, 0, 58, 0
2, 128163, Note_on_c, 0, 69, 49
2, 128176, Note_on_c, 0, 60, 35
2, 128181, Note_on_c, 0, 53, 30
2, 128341, Control_c, 0, 64, 20
2, 128361, Control_c, 0, 64, 37
2, 128379, Control_c, 0, 64, 51
2, 128401, Control_c, 0, 64, 62
2, 128416, Control_c, 0, 64, 67
2, 128438, Control_c, 0, 64, 71
2, 128456, Control_c, 0, 64, 77
2, 128475, Control_c, 0, 64, 95
2, 128493, Control_c, 0, 64, 127
2, 128564, Note_on_c, 0, 53, 0
2, 128581, Note_on_c, 0, 69, 0
2, 128620, Note_on_c, 0, 60, 0
2, 128957, Note_on_c, 0, 69, 61
2, 128961, Note_on_c, 0, 63, 60
2, 128989, Note_on_c, 0, 65, 48
2, 128993, Note_on_c, 0, 53, 33
2, 128996, Note_on_c, 0, 60, 36
2, 129284, Note_on_c, 0, 65, 0
2, 129364, Note_on_c, 0, 69, 0
2, 129372, Note_on_c, 0, 53, 0
2, 129648, Note_on_c, 0, 63, 0
2, 129736, Note_on_c, 0, 60, 0
2, 129785, Control_c, 0, 64, 103
2, 129791, Note_on_c, 0, 69, 53
2, 129796, Note_on_c, 0, 61, 51
2, 129805, Control_c, 0, 64, 85
2, 129823, Control_c, 0, 64, 71
2, 129823, Note_on_c, 0, 65, 43
2, 129827, Note_on_c, 0, 58, 33
2, 129841, Control_c, 0, 64, 61
2, 129850, Note_on_c, 0, 53, 19
2, 129861, Control_c, 0, 64, 47
2, 129882, Control_c, 0, 64, 25
2, 129897, Control_c, 0, 64, 0
2, 130034, Control_c, 0, 64, 20
2, 130054, Control_c, 0, 64, 34
2, 130073, Control_c, 0, 64, 47
2, 130091, Control_c, 0, 64, 59
2, 130112, Control_c, 0, 64, 65
2, 130129, Control_c, 0, 64, 70
2, 130149, Control_c, 0, 64, 76
2, 130170, Control_c, 0, 64, 86
2, 130186, Control_c, 0, 64, 115
2, 130206, Control_c, 0, 64, 127
2, 130217, Note_on_c, 0, 69, 0
2, 130291, Note_on_c, 0, 53, 0
2, 130293, Note_on_c, 0, 65, 0
2, 130397, Note_on_c, 0, 61, 0
2, 130581, Note_on_c, 0, 67, 49
2, 130596, Note_on_c, 0, 53, 30
2, 130605, Note_on_c, 0, 64, 45
2, 130647, Control_c, 0, 64, 122
2, 130666, Control_c, 0, 64, 85
2, 130685, Control_c, 0, 64, 65
2, 130707, Control_c, 0, 64, 51
2, 130725, Control_c, 0, 64, 28
2, 130742, Control_c, 0, 64, 0
2, 130820, Control_c, 0, 64, 26
2, 130840, Control_c, 0, 64, 39
2, 130860, Control_c, 0, 64, 51
2, 130878, Control_c, 0, 64, 61
2, 130896, Control_c, 0, 64, 66
2, 130916, Control_c, 0, 64, 68
2, 130925, Note_on_c, 0, 67, 0
2, 130936, Control_c, 0, 64, 72
2, 130941, Note_on_c, 0, 69, 61
2, 130956, Control_c, 0, 64, 80
2, 130961, Note_on_c, 0, 64, 0
2, 130965, Note_on_c, 0, 65, 47
2, 130974, Control_c, 0, 64, 97
2, 130993, Control_c, 0, 64, 127
2, 131009, Note_on_c, 0, 53, 0
2, 131075, Note_on_c, 0, 69, 0
2, 131340, Note_on_c, 0, 53, 35
2, 131351, Note_on_c, 0, 70, 66
2, 131374, Note_on_c, 0, 65, 0
2, 131378, Control_c, 0, 64, 106
2, 131392, Note_on_c, 0, 67, 50
2, 131398, Control_c, 0, 64, 77
2, 131415, Control_c, 0, 64, 61
2, 131435, Control_c, 0, 64, 38
2, 131456, Control_c, 0, 64, 0
2, 131550, Control_c, 0, 64, 23
2, 131570, Control_c, 0, 64, 45
2, 131588, Control_c, 0, 64, 61
2, 131592, Note_on_c, 0, 53, 0
2, 131608, Control_c, 0, 64, 70
2, 131627, Control_c, 0, 64, 88
2, 131646, Control_c, 0, 64, 127
2, 131646, Note_on_c, 0, 67, 0
2, 131657, Note_on_c, 0, 58, 0
2, 131663, Note_on_c, 0, 70, 0
2, 132143, Note_on_c, 0, 70, 70
2, 132159, Note_on_c, 0, 65, 59
2, 132170, Note_on_c, 0, 67, 56
2, 132174, Note_on_c, 0, 61, 45
2, 132196, Note_on_c, 0, 53, 45
2, 132241, Control_c, 0, 64, 102
2, 132264, Control_c, 0, 64, 72
2, 132281, Control_c, 0, 64, 54
2, 132299, Control_c, 0, 64, 0
2, 132414, Control_c, 0, 64, 24
2, 132431, Control_c, 0, 64, 46
2, 132451, Control_c, 0, 64, 60
2, 132471, Control_c, 0, 64, 68
2, 132489, Note_on_c, 0, 67, 0
2, 132493, Control_c, 0, 64, 74
2, 132511, Control_c, 0, 64, 86
2, 132528, Control_c, 0, 64, 127
2, 132554, Note_on_c, 0, 70, 0
2, 132653, Note_on_c, 0, 53, 0
2, 132941, Note_on_c, 0, 61, 0
2, 132958, Note_on_c, 0, 64, 69
2, 132958, Note_on_c, 0, 70, 71
2, 132966, Note_on_c, 0, 60, 46
2, 132973, Note_on_c, 0, 53, 35
2, 132981, Note_on_c, 0, 67, 57
2, 133012, Control_c, 0, 64, 108
2, 133012, Note_on_c, 0, 65, 0
2, 133028, Control_c, 0, 64, 80
2, 133048, Control_c, 0, 64, 64
2, 133068, Control_c, 0, 64, 44
2, 133086, Control_c, 0, 64, 0
2, 133202, Control_c, 0, 64, 35
2, 133222, Control_c, 0, 64, 55
2, 133239, Control_c, 0, 64, 67
2, 133259, Control_c, 0, 64, 76
2, 133278, Control_c, 0, 64, 102
2, 133298, Control_c, 0, 64, 127
2, 133355, Note_on_c, 0, 60, 0
2, 133367, Note_on_c, 0, 53, 0
2, 133396, Note_on_c, 0, 70, 0
2, 133498, Note_on_c, 0, 67, 0
2, 133766, Note_on_c, 0, 65, 62
2, 133775, Note_on_c, 0, 69, 65
2, 133784, Note_on_c, 0, 60, 52
2, 133814, Note_on_c, 0, 53, 31
2, 133836, Control_c, 0, 64, 122
2, 133846, Note_on_c, 0, 64, 0
2, 133853, Control_c, 0, 64, 93
2, 133872, Control_c, 0, 64, 73
2, 133892, Control_c, 0, 64, 59
2, 133911, Control_c, 0, 64, 28
2, 133931, Control_c, 0, 64, 0
2, 134046, Control_c, 0, 64, 29
2, 134064, Control_c, 0, 64, 47
2, 134085, Control_c, 0, 64, 60
2, 134105, Control_c, 0, 64, 66
2, 134123, Control_c, 0, 64, 70
2, 134131, Note_on_c, 0, 70, 79
2, 134144, Control_c, 0, 64, 75
2, 134144, Note_on_c, 0, 61, 54
2, 134155, Note_on_c, 0, 67, 62
2, 134159, Note_on_c, 0, 69, 0
2, 134163, Control_c, 0, 64, 85
2, 134179, Control_c, 0, 64, 105
2, 134188, Note_on_c, 0, 60, 0
2, 134199, Control_c, 0, 64, 127
2, 134265, Note_on_c, 0, 65, 0
2, 134273, Note_on_c, 0, 53, 0
2, 134273, Note_on_c, 0, 70, 0
2, 134332, Note_on_c, 0, 61, 0
2, 134354, Note_on_c, 0, 67, 0
2, 134508, Control_c, 0, 64, 118
2, 134526, Control_c, 0, 64, 102
2, 134545, Control_c, 0, 64, 93
2, 134545, Note_on_c, 0, 53, 49
2, 134558, Note_on_c, 0, 63, 52
2, 134562, Note_on_c, 0, 72, 71
2, 134567, Control_c, 0, 64, 87
2, 134573, Note_on_c, 0, 69, 56
2, 134585, Control_c, 0, 64, 78
2, 134606, Control_c, 0, 64, 65
2, 134621, Control_c, 0, 64, 49
2, 134642, Control_c, 0, 64, 0
2, 134757, Control_c, 0, 64, 28
2, 134777, Control_c, 0, 64, 50
2, 134786, Note_on_c, 0, 53, 0
2, 134797, Control_c, 0, 64, 63
2, 134815, Control_c, 0, 64, 71
2, 134833, Control_c, 0, 64, 83
2, 134853, Control_c, 0, 64, 109
2, 134874, Control_c, 0, 64, 127
2, 134879, Note_on_c, 0, 63, 0
2, 134912, Note_on_c, 0, 69, 0
2, 134983, Note_on_c, 0, 72, 0
2, 135371, Note_on_c, 0, 72, 68
2, 135392, Note_on_c, 0, 63, 48
2, 135397, Note_on_c, 0, 53, 45
2, 135397, Note_on_c, 0, 69, 50
2, 135406, Note_on_c, 0, 65, 42
2, 135734, Note_on_c, 0, 53, 0
2, 135772, Note_on_c, 0, 72, 0
2, 135789, Note_on_c, 0, 69, 0
2, 135836, Note_on_c, 0, 63, 0
2, 136231, Note_on_c, 0, 72, 83
2, 136242, Note_on_c, 0, 61, 50
2, 136249, Note_on_c, 0, 69, 62
2, 136253, Note_on_c, 0, 53, 50
2, 136292, Control_c, 0, 64, 104
2, 136313, Control_c, 0, 64, 90
2, 136333, Control_c, 0, 64, 70
2, 136352, Control_c, 0, 64, 56
2, 136361, Note_on_c, 0, 65, 0
2, 136368, Control_c, 0, 64, 9
2, 136387, Control_c, 0, 64, 0
2, 136486, Control_c, 0, 64, 26
2, 136506, Control_c, 0, 64, 50
2, 136523, Control_c, 0, 64, 65
2, 136543, Control_c, 0, 64, 77
2, 136561, Control_c, 0, 64, 127
2, 136601, Note_on_c, 0, 53, 0
2, 136608, Note_on_c, 0, 61, 0
2, 137040, Note_on_c, 0, 53, 35
2, 137046, Note_on_c, 0, 70, 59
2, 137060, Note_on_c, 0, 65, 43
2, 137069, Note_on_c, 0, 61, 39
2, 137083, Note_on_c, 0, 69, 0
2, 137125, Note_on_c, 0, 72, 0
2, 137408, Note_on_c, 0, 72, 66
2, 137421, Note_on_c, 0, 69, 52
2, 137430, Note_on_c, 0, 60, 46
2, 137448, Note_on_c, 0, 70, 0
2, 137457, Note_on_c, 0, 61, 0
2, 137502, Note_on_c, 0, 53, 0
2, 137561, Control_c, 0, 64, 109
2, 137578, Control_c, 0, 64, 95
2, 137598, Control_c, 0, 64, 89
2, 137618, Control_c, 0, 64, 87
2, 137636, Control_c, 0, 64, 86
2, 137676, Control_c, 0, 64, 85
2, 137693, Control_c, 0, 64, 83
2, 137713, Control_c, 0, 64, 78
2, 137732, Control_c, 0, 64, 74
2, 137751, Control_c, 0, 64, 70
2, 137769, Control_c, 0, 64, 67
2, 137792, Control_c, 0, 64, 63
2, 137809, Control_c, 0, 64, 59
2, 137829, Control_c, 0, 64, 53
2, 137830, Note_on_c, 0, 73, 68
2, 137834, Note_on_c, 0, 58, 45
2, 137843, Note_on_c, 0, 70, 54
2, 137851, Control_c, 0, 64, 43
2, 137851, Note_on_c, 0, 60, 0
2, 137856, Note_on_c, 0, 69, 0
2, 137856, Note_on_c, 0, 72, 0
2, 137869, Control_c, 0, 64, 22
2, 137888, Note_on_c, 0, 53, 31
2, 137888, Note_on_c, 0, 65, 0
2, 137892, Control_c, 0, 64, 0
2, 138039, Control_c, 0, 64, 21
2, 138059, Control_c, 0, 64, 35
2, 138077, Control_c, 0, 64, 47
2, 138097, Control_c, 0, 64, 59
2, 138115, Control_c, 0, 64, 67
2, 138134, Control_c, 0, 64, 77
2, 138155, Control_c, 0, 64, 110
2, 138173, Control_c, 0, 64, 127
2, 138179, Note_on_c, 0, 58, 0
2, 138188, Note_on_c, 0, 53, 0
2, 138278, Note_on_c, 0, 73, 0
2, 138285, Note_on_c, 0, 70, 0
2, 138556, Note_on_c, 0, 73, 79
2, 138568, Note_on_c, 0, 70, 64
2, 138572, Note_on_c, 0, 58, 55
2, 138574, Note_on_c, 0, 65, 60
2, 138613, Note_on_c, 0, 53, 37
2, 138867, Note_on_c, 0, 70, 0
2, 138884, Note_on_c, 0, 73, 0
2, 138923, Note_on_c, 0, 56, 73
2, 139071, Note_on_c, 0, 58, 0
2, 139080, Note_on_c, 0, 53, 0
2, 139311, Note_on_c, 0, 56, 0
2, 139323, Note_on_c, 0, 73, 87
2, 139335, Note_on_c, 0, 70, 73
2, 139339, Note_on_c, 0, 66, 72
2, 139349, Note_on_c, 0, 53, 61
2, 139349, Note_on_c, 0, 54, 59
2, 139399, Control_c, 0, 64, 78
2, 139417, Control_c, 0, 64, 58
2, 139437, Control_c, 0, 64, 0
2, 139474, Note_on_c, 0, 65, 0
2, 139572, Control_c, 0, 64, 47
2, 139592, Control_c, 0, 64, 63
2, 139612, Control_c, 0, 64, 78
2, 139629, Control_c, 0, 64, 127
2, 139669, Note_on_c, 0, 53, 0
2, 139692, Note_on_c, 0, 54, 0
2, 139735, Note_on_c, 0, 66, 0
2, 139783, Note_on_c, 0, 70, 0
2, 139786, Note_on_c, 0, 73, 0
2, 140111, Note_on_c, 0, 54, 68
2, 140111, Note_on_c, 0, 72, 83
2, 140123, Note_on_c, 0, 69, 66
2, 140133, Note_on_c, 0, 51, 70
2, 140141, Note_on_c, 0, 66, 70
2, 140206, Control_c, 0, 64, 94
2, 140226, Control_c, 0, 64, 64
2, 140244, Control_c, 0, 64, 32
2, 140263, Control_c, 0, 64, 0
2, 140399, Control_c, 0, 64, 44
2, 140419, Control_c, 0, 64, 56
2, 140437, Control_c, 0, 64, 61
2, 140457, Control_c, 0, 64, 64
2, 140474, Control_c, 0, 64, 65
2, 140487, Note_on_c, 0, 53, 72
2, 140487, Note_on_c, 0, 73, 90
2, 140496, Control_c, 0, 64, 67
2, 140501, Note_on_c, 0, 49, 64
2, 140501, Note_on_c, 0, 70, 78
2, 140505, Note_on_c, 0, 54, 0
2, 140518, Control_c, 0, 64, 72
2, 140518, Note_on_c, 0, 51, 0
2, 140518, Note_on_c, 0, 72, 0
2, 140533, Control_c, 0, 64, 81
2, 140538, Note_on_c, 0, 69, 0
2, 140553, Note_on_c, 0, 66, 0
2, 140557, Control_c, 0, 64, 100
2, 140570, Control_c, 0, 64, 127
2, 140683, Note_on_c, 0, 73, 0
2, 140698, Note_on_c, 0, 53, 0
2, 140766, Note_on_c, 0, 49, 0
2, 140904, Control_c, 0, 64, 104
2, 140922, Control_c, 0, 64, 94
2, 140931, Note_on_c, 0, 75, 82
2, 140944, Note_on_c, 0, 48, 59
2, 140944, Note_on_c, 0, 51, 60
2, 140944, Note_on_c, 0, 72, 79
2, 140949, Control_c, 0, 64, 84
2, 140949, Note_on_c, 0, 54, 60
2, 140957, Note_on_c, 0, 66, 69
2, 140961, Control_c, 0, 64, 72
2, 140980, Control_c, 0, 64, 61
2, 140990, Note_on_c, 0, 70, 0
2, 140995, Note_on_c, 0, 69, 17
2, 140999, Control_c, 0, 64, 33
2, 141019, Control_c, 0, 64, 0
2, 141170, Control_c, 0, 64, 51
2, 141192, Control_c, 0, 64, 63
2, 141212, Control_c, 0, 64, 68
2, 141230, Control_c, 0, 64, 75
2, 141248, Control_c, 0, 64, 88
2, 141270, Control_c, 0, 64, 127
2, 141270, Note_on_c, 0, 48, 0
2, 141274, Note_on_c, 0, 54, 0
2, 141310, Note_on_c, 0, 51, 0
2, 141314, Note_on_c, 0, 66, 0
2, 141339, Note_on_c, 0, 69, 0
2, 141348, Note_on_c, 0, 75, 0
2, 141352, Note_on_c, 0, 72, 0
2, 141760, Note_on_c, 0, 75, 87
2, 141768, Note_on_c, 0, 69, 74
2, 141771, Note_on_c, 0, 51, 76
2, 141776, Note_on_c, 0, 54, 78
2, 141781, Note_on_c, 0, 48, 73
2, 141781, Note_on_c, 0, 66, 76
2, 141781, Note_on_c, 0, 72, 81
2, 141788, Control_c, 0, 64, 76
2, 141806, Control_c, 0, 64, 50
2, 141827, Control_c, 0, 64, 0
2, 141921, Control_c, 0, 64, 45
2, 141941, Control_c, 0, 64, 62
2, 141961, Control_c, 0, 64, 74
2, 141978, Control_c, 0, 64, 127
2, 141978, Note_on_c, 0, 72, 0
2, 142004, Note_on_c, 0, 75, 0
2, 142026, Note_on_c, 0, 66, 0
2, 142084, Note_on_c, 0, 48, 0
2, 142161, Note_on_c, 0, 51, 0
2, 142263, Note_on_c, 0, 77, 93
2, 142268, Note_on_c, 0, 49, 73
2, 142272, Note_on_c, 0, 46, 78
2, 142277, Note_on_c, 0, 73, 89
2, 142285, Control_c, 0, 64, 83
2, 142305, Control_c, 0, 64, 52
2, 142322, Control_c, 0, 64, 0
2, 142418, Control_c, 0, 64, 17
2, 142438, Control_c, 0, 64, 54
2, 142458, Control_c, 0, 64, 66
2, 142463, Note_on_c, 0, 54, 0
2, 142476, Control_c, 0, 64, 79
2, 142496, Control_c, 0, 64, 127
2, 142500, Note_on_c, 0, 69, 0
2, 142514, Note_on_c, 0, 46, 0
2, 142565, Note_on_c, 0, 49, 0
2, 142630, Note_on_c, 0, 73, 0
2, 142758, Note_on_c, 0, 45, 74
2, 142882, Control_c, 0, 64, 87
2, 142899, Control_c, 0, 64, 68
2, 142919, Control_c, 0, 64, 55
2, 142937, Control_c, 0, 64, 11
2, 142956, Control_c, 0, 64, 0
2, 143002, Note_on_c, 0, 48, 66
2, 143091, Note_on_c, 0, 51, 72
2, 143113, Control_c, 0, 64, 44
2, 143130, Control_c, 0, 64, 57
2, 143150, Control_c, 0, 64, 62
2, 143171, Control_c, 0, 64, 64
2, 143189, Control_c, 0, 64, 66
2, 143204, Note_on_c, 0, 54, 75
2, 143208, Control_c, 0, 64, 68
2, 143228, Control_c, 0, 64, 73
2, 143245, Control_c, 0, 64, 84
2, 143265, Control_c, 0, 64, 127
2, 143316, Note_on_c, 0, 66, 78
2, 143327, Note_on_c, 0, 77, 0
2, 143387, Note_on_c, 0, 69, 72
2, 143494, Note_on_c, 0, 72, 88
2, 143597, Note_on_c, 0, 75, 89
2, 143877, Note_on_c, 0, 78, 93
2, 145717, Note_on_c, 0, 66, 0
2, 145919, Note_on_c, 0, 48, 0
2, 145919, Note_on_c, 0, 51, 0
2, 145947, Note_on_c, 0, 45, 0
2, 145954, Note_on_c, 0, 69, 0
2, 145986, Note_on_c, 0, 72, 0
2, 145999, Note_on_c, 0, 78, 0
2, 146008, Note_on_c, 0, 54, 0
2, 146012, Control_c, 0, 64, 104
2, 146029, Control_c, 0, 64, 96
2, 146041, Note_on_c, 0, 75, 0
2, 146050, Control_c, 0, 64, 92
2, 146067, Control_c, 0, 64, 90
2, 146087, Control_c, 0, 64, 88
2, 146109, Control_c, 0, 64, 85
2, 146125, Control_c, 0, 64, 81
2, 146145, Control_c, 0, 64, 76
2, 146166, Control_c, 0, 64, 71
2, 146183, Control_c, 0, 64, 67
2, 146204, Control_c, 0, 64, 63
2, 146220, Control_c, 0, 64, 61
2, 146241, Control_c, 0, 64, 59
2, 146259, Control_c, 0, 64, 58
2, 146278, Control_c, 0, 64, 55
2, 146298, Control_c, 0, 64, 51
2, 146318, Control_c, 0, 64, 42
2, 146335, Control_c, 0, 64, 28
2, 146356, Control_c, 0, 64, 0
2, 146855, Control_c, 0, 64, 26
2, 146873, Control_c, 0, 64, 35
2, 146892, Control_c, 0, 64, 42
2, 146912, Control_c, 0, 64, 49
2, 146934, Control_c, 0, 64, 58
2, 146954, Control_c, 0, 64, 61
2, 146972, Control_c, 0, 64, 62
2, 147007, Control_c, 0, 64, 63
2, 147027, Control_c, 0, 64, 65
2, 147048, Control_c, 0, 64, 69
2, 147068, Control_c, 0, 64, 76
2, 147085, Control_c, 0, 64, 95
2, 147105, Control_c, 0, 64, 127
2, 147188, Note_on_c, 0, 77, 69
2, 147206, Note_on_c, 0, 65, 36
2, 147210, Note_on_c, 0, 72, 51
2, 147221, Note_on_c, 0, 57, 42
2, 147554, Note_on_c, 0, 72, 0
2, 147679, Note_on_c, 0, 65, 0
2, 147970, Note_on_c, 0, 57, 0
2, 148028, Control_c, 0, 64, 116
2, 148046, Control_c, 0, 64, 101
2, 148063, Control_c, 0, 64, 93
2, 148083, Control_c, 0, 64, 88
2, 148087, Note_on_c, 0, 73, 52
2, 148103, Control_c, 0, 64, 84
2, 148103, Note_on_c, 0, 70, 44
2, 148122, Control_c, 0, 64, 83
2, 148132, Note_on_c, 0, 58, 27
2, 148143, Control_c, 0, 64, 81
2, 148160, Control_c, 0, 64, 79
2, 148166, Note_on_c, 0, 65, 23
2, 148181, Control_c, 0, 64, 71
2, 148181, Note_on_c, 0, 77, 0
2, 148200, Control_c, 0, 64, 61
2, 148218, Control_c, 0, 64, 37
2, 148237, Control_c, 0, 64, 0
2, 148336, Control_c, 0, 64, 34
2, 148353, Control_c, 0, 64, 51
2, 148370, Control_c, 0, 64, 63
2, 148390, Control_c, 0, 64, 68
2, 148412, Control_c, 0, 64, 75
2, 148416, Note_on_c, 0, 65, 0
2, 148416, Note_on_c, 0, 70, 0
2, 148432, Control_c, 0, 64, 86
2, 148447, Control_c, 0, 64, 127
2, 148503, Note_on_c, 0, 58, 0
2, 148945, Note_on_c, 0, 75, 60
2, 148952, Note_on_c, 0, 58, 36
2, 148958, Note_on_c, 0, 73, 0
2, 148970, Note_on_c, 0, 70, 50
2, 148989, Note_on_c, 0, 54, 18
2, 149315, Note_on_c, 0, 72, 71
2, 149344, Note_on_c, 0, 66, 57
2, 149353, Note_on_c, 0, 51, 42
2, 149379, Note_on_c, 0, 54, 0
2, 149379, Note_on_c, 0, 70, 0
2, 149471, Note_on_c, 0, 58, 0
2, 149525, Control_c, 0, 64, 122
2, 149544, Control_c, 0, 64, 118
2, 149565, Control_c, 0, 64, 116
2, 149576, Note_on_c, 0, 66, 0
2, 149582, Control_c, 0, 64, 115
2, 149602, Control_c, 0, 64, 111
2, 149620, Control_c, 0, 64, 108
2, 149640, Note_on_c, 0, 75, 0
2, 149642, Control_c, 0, 64, 104
2, 149660, Control_c, 0, 64, 101
2, 149679, Control_c, 0, 64, 99
2, 149697, Control_c, 0, 64, 96
2, 149715, Control_c, 0, 64, 93
2, 149734, Control_c, 0, 64, 89
2, 149753, Control_c, 0, 64, 84
2, 149766, Note_on_c, 0, 73, 67
2, 149775, Control_c, 0, 64, 78
2, 149782, Note_on_c, 0, 70, 52
2, 149795, Control_c, 0, 64, 72
2, 149795, Note_on_c, 0, 53, 39
2, 149807, Note_on_c, 0, 65, 31
2, 149811, Control_c, 0, 64, 65
2, 149825, Note_on_c, 0, 51, 0
2, 149829, Control_c, 0, 64, 54
2, 149849, Control_c, 0, 64, 24
2, 149866, Note_on_c, 0, 72, 0
2, 149871, Control_c, 0, 64, 0
2, 149985, Control_c, 0, 64, 21
2, 150005, Control_c, 0, 64, 41
2, 150024, Control_c, 0, 64, 55
2, 150041, Control_c, 0, 64, 64
2, 150062, Control_c, 0, 64, 68
2, 150081, Control_c, 0, 64, 73
2, 150094, Note_on_c, 0, 65, 0
2, 150101, Control_c, 0, 64, 82
2, 150121, Control_c, 0, 64, 99
2, 150139, Control_c, 0, 64, 127
2, 150202, Note_on_c, 0, 70, 0
2, 150408, Note_on_c, 0, 73, 0
2, 150714, Note_on_c, 0, 72, 53
2, 150718, Note_on_c, 0, 41, 25
2, 150735, Note_on_c, 0, 69, 41
2, 150755, Note_on_c, 0, 63, 26
2, 150795, Control_c, 0, 64, 101
2, 150810, Control_c, 0, 64, 88
2, 150829, Control_c, 0, 64, 77
2, 150848, Control_c, 0, 64, 68
2, 150867, Control_c, 0, 64, 59
2, 150888, Control_c, 0, 64, 44
2, 150906, Control_c, 0, 64, 0
2, 151042, Control_c, 0, 64, 26
2, 151058, Control_c, 0, 64, 41
2, 151078, Control_c, 0, 64, 52
2, 151098, Control_c, 0, 64, 61
2, 151119, Control_c, 0, 64, 64
2, 151156, Control_c, 0, 64, 65
2, 151174, Control_c, 0, 64, 66
2, 151196, Control_c, 0, 64, 69
2, 151196, Note_on_c, 0, 70, 50
2, 151211, Control_c, 0, 64, 74
2, 151232, Control_c, 0, 64, 84
2, 151237, Note_on_c, 0, 72, 0
2, 151250, Note_on_c, 0, 69, 0
2, 151254, Control_c, 0, 64, 103
2, 151270, Control_c, 0, 64, 127
2, 151294, Note_on_c, 0, 70, 0
2, 151341, Note_on_c, 0, 63, 0
2, 151635, Note_on_c, 0, 53, 0
2, 151729, Note_on_c, 0, 70, 50
2, 151742, Note_on_c, 0, 46, 33
2, 151755, Note_on_c, 0, 62, 47
2, 151831, Note_on_c, 0, 41, 0
2, 151849, Control_c, 0, 64, 81
2, 151868, Control_c, 0, 64, 62
2, 151886, Control_c, 0, 64, 42
2, 151907, Control_c, 0, 64, 0
2, 152000, Control_c, 0, 64, 9
2, 152020, Control_c, 0, 64, 30
2, 152038, Control_c, 0, 64, 45
2, 152059, Control_c, 0, 64, 57
2, 152077, Control_c, 0, 64, 64
2, 152094, Control_c, 0, 64, 68
2, 152118, Control_c, 0, 64, 73
2, 152137, Control_c, 0, 64, 78
2, 152155, Control_c, 0, 64, 89
2, 152162, Note_on_c, 0, 62, 0
2, 152173, Control_c, 0, 64, 127
2, 152213, Note_on_c, 0, 46, 0
2, 152678, Note_on_c, 0, 65, 40
2, 152682, Note_on_c, 0, 62, 44
2, 152706, Note_on_c, 0, 53, 34
2, 152715, Note_on_c, 0, 46, 30
2, 152806, Note_on_c, 0, 62, 0
2, 153072, Note_on_c, 0, 66, 55
2, 153085, Note_on_c, 0, 51, 46
2, 153085, Note_on_c, 0, 65, 0
2, 153098, Note_on_c, 0, 63, 38
2, 153209, Note_on_c, 0, 46, 0
2, 153263, Note_on_c, 0, 53, 0
2, 153289, Control_c, 0, 64, 122
2, 153307, Control_c, 0, 64, 102
2, 153327, Control_c, 0, 64, 93
2, 153343, Control_c, 0, 64, 85
2, 153363, Control_c, 0, 64, 79
2, 153384, Control_c, 0, 64, 74
2, 153401, Control_c, 0, 64, 69
2, 153421, Control_c, 0, 64, 65
2, 153441, Control_c, 0, 64, 61
2, 153459, Control_c, 0, 64, 57
2, 153463, Note_on_c, 0, 51, 0
2, 153481, Control_c, 0, 64, 49
2, 153492, Note_on_c, 0, 68, 44
2, 153499, Control_c, 0, 64, 30
2, 153503, Note_on_c, 0, 50, 25
2, 153506, Note_on_c, 0, 63, 0
2, 153510, Note_on_c, 0, 65, 31
2, 153519, Control_c, 0, 64, 0
2, 153523, Note_on_c, 0, 46, 17
2, 153562, Note_on_c, 0, 66, 0
2, 153652, Control_c, 0, 64, 11
2, 153673, Control_c, 0, 64, 27
2, 153690, Control_c, 0, 64, 41
2, 153708, Control_c, 0, 64, 52
2, 153728, Control_c, 0, 64, 62
2, 153749, Control_c, 0, 64, 68
2, 153765, Control_c, 0, 64, 75
2, 153787, Control_c, 0, 64, 92
2, 153804, Control_c, 0, 64, 127
2, 153816, Note_on_c, 0, 65, 0
2, 153849, Note_on_c, 0, 68, 0
2, 153869, Note_on_c, 0, 48, 42
2, 153880, Note_on_c, 0, 50, 0
2, 153965, Note_on_c, 0, 46, 0
2, 154212, Note_on_c, 0, 68, 63
2, 154223, Note_on_c, 0, 65, 47
2, 154248, Note_on_c, 0, 46, 28
2, 154248, Note_on_c, 0, 51, 40
2, 154281, Note_on_c, 0, 48, 0
2, 154285, Control_c, 0, 64, 115
2, 154307, Control_c, 0, 64, 84
2, 154322, Control_c, 0, 64, 66
2, 154342, Control_c, 0, 64, 51
2, 154364, Control_c, 0, 64, 0
2, 154497, Control_c, 0, 64, 32
2, 154515, Control_c, 0, 64, 52
2, 154535, Control_c, 0, 64, 62
2, 154555, Control_c, 0, 64, 66
2, 154555, Note_on_c, 0, 65, 0
2, 154575, Control_c, 0, 64, 69
2, 154585, Note_on_c, 0, 50, 55
2, 154585, Note_on_c, 0, 68, 0
2, 154593, Control_c, 0, 64, 75
2, 154602, Note_on_c, 0, 51, 0
2, 154613, Control_c, 0, 64, 88
2, 154631, Control_c, 0, 64, 127
2, 154718, Note_on_c, 0, 50, 0
2, 154731, Note_on_c, 0, 46, 0
2, 155053, Control_c, 0, 64, 106
2, 155070, Control_c, 0, 64, 95
2, 155081, Note_on_c, 0, 68, 66
2, 155092, Control_c, 0, 64, 85
2, 155105, Note_on_c, 0, 65, 50
2, 155112, Control_c, 0, 64, 75
2, 155114, Note_on_c, 0, 50, 40
2, 155121, Note_on_c, 0, 46, 33
2, 155130, Control_c, 0, 64, 66
2, 155149, Control_c, 0, 64, 57
2, 155169, Control_c, 0, 64, 43
2, 155187, Control_c, 0, 64, 0
2, 155400, Control_c, 0, 64, 32
2, 155418, Control_c, 0, 64, 35
2, 155435, Control_c, 0, 64, 41
2, 155458, Control_c, 0, 64, 49
2, 155476, Control_c, 0, 64, 58
2, 155496, Control_c, 0, 64, 62
2, 155533, Control_c, 0, 64, 63
2, 155552, Control_c, 0, 64, 65
2, 155574, Control_c, 0, 64, 70
2, 155589, Control_c, 0, 64, 85
2, 155612, Control_c, 0, 64, 127
2, 155650, Note_on_c, 0, 46, 0
2, 156050, Note_on_c, 0, 50, 0
2, 156081, Note_on_c, 0, 51, 37
2, 156084, Note_on_c, 0, 66, 52
2, 156090, Control_c, 0, 64, 109
2, 156095, Note_on_c, 0, 46, 40
2, 156110, Control_c, 0, 64, 99
2, 156114, Note_on_c, 0, 63, 40
2, 156128, Control_c, 0, 64, 91
2, 156147, Control_c, 0, 64, 85
2, 156167, Control_c, 0, 64, 78
2, 156187, Control_c, 0, 64, 73
2, 156187, Note_on_c, 0, 65, 0
2, 156207, Control_c, 0, 64, 66
2, 156222, Control_c, 0, 64, 61
2, 156242, Control_c, 0, 64, 56
2, 156264, Control_c, 0, 64, 53
2, 156282, Control_c, 0, 64, 47
2, 156303, Control_c, 0, 64, 30
2, 156303, Note_on_c, 0, 68, 0
2, 156321, Control_c, 0, 64, 0
2, 156471, Note_on_c, 0, 53, 53
2, 156599, Note_on_c, 0, 51, 0
2, 156702, Note_on_c, 0, 46, 0
2, 156954, Note_on_c, 0, 54, 48
2, 157005, Note_on_c, 0, 46, 29
2, 157047, Note_on_c, 0, 53, 0
2, 157261, Control_c, 0, 64, 14
2, 157280, Control_c, 0, 64, 34
2, 157300, Control_c, 0, 64, 48
2, 157319, Control_c, 0, 64, 59
2, 157339, Control_c, 0, 64, 63
2, 157358, Control_c, 0, 64, 64
2, 157378, Control_c, 0, 64, 65
2, 157394, Control_c, 0, 64, 67
2, 157415, Control_c, 0, 64, 73
2, 157435, Control_c, 0, 64, 83
2, 157453, Control_c, 0, 64, 106
2, 157457, Note_on_c, 0, 46, 0
2, 157474, Control_c, 0, 64, 127
2, 157530, Note_on_c, 0, 54, 0
2, 157541, Note_on_c, 0, 66, 0
2, 157591, Note_on_c, 0, 63, 0
2, 158025, Note_on_c, 0, 54, 35
2, 158025, Note_on_c, 0, 65, 38
2, 158029, Control_c, 0, 64, 92
2, 158034, Note_on_c, 0, 46, 36
2, 158034, Note_on_c, 0, 62, 41
2, 158050, Control_c, 0, 64, 71
2, 158067, Control_c, 0, 64, 57
2, 158086, Control_c, 0, 64, 17
2, 158106, Control_c, 0, 64, 0
2, 158183, Control_c, 0, 64, 21
2, 158201, Control_c, 0, 64, 37
2, 158223, Control_c, 0, 64, 52
2, 158242, Control_c, 0, 64, 61
2, 158259, Control_c, 0, 64, 64
2, 158279, Control_c, 0, 64, 65
2, 158297, Control_c, 0, 64, 66
2, 158318, Control_c, 0, 64, 67
2, 158332, Note_on_c, 0, 62, 0
2, 158337, Control_c, 0, 64, 69
2, 158354, Control_c, 0, 64, 72
2, 158375, Control_c, 0, 64, 78
2, 158394, Control_c, 0, 64, 85
2, 158412, Control_c, 0, 64, 94
2, 158433, Control_c, 0, 64, 102
2, 158450, Control_c, 0, 64, 109
2, 158489, Control_c, 0, 64, 110
2, 158509, Control_c, 0, 64, 111
2, 158585, Control_c, 0, 64, 106
2, 158605, Control_c, 0, 64, 101
2, 158625, Control_c, 0, 64, 92
2, 158645, Control_c, 0, 64, 75
2, 158660, Note_on_c, 0, 60, 30
2, 158664, Control_c, 0, 64, 62
2, 158667, Note_on_c, 0, 63, 37
2, 158680, Note_on_c, 0, 65, 0
2, 158685, Control_c, 0, 64, 43
2, 158700, Control_c, 0, 64, 0
2, 158777, Control_c, 0, 64, 16
2, 158798, Control_c, 0, 64, 35
2, 158817, Control_c, 0, 64, 49
2, 158837, Control_c, 0, 64, 59
2, 158852, Control_c, 0, 64, 64
2, 158872, Control_c, 0, 64, 66
2, 158889, Control_c, 0, 64, 68
2, 158908, Control_c, 0, 64, 73
2, 158929, Control_c, 0, 64, 83
2, 158949, Control_c, 0, 64, 106
2, 158966, Control_c, 0, 64, 127
2, 159012, Note_on_c, 0, 60, 0
2, 159059, Note_on_c, 0, 46, 0
2, 159804, Note_on_c, 0, 65, 40
2, 159822, Note_on_c, 0, 53, 37
2, 159828, Note_on_c, 0, 46, 32
2, 159829, Note_on_c, 0, 62, 36
2, 159875, Note_on_c, 0, 54, 0
2, 159965, Control_c, 0, 64, 106
2, 159985, Control_c, 0, 64, 93
2, 160003, Control_c, 0, 64, 83
2, 160025, Control_c, 0, 64, 76
2, 160025, Note_on_c, 0, 63, 0
2, 160042, Control_c, 0, 64, 70
2, 160062, Control_c, 0, 64, 64
2, 160079, Control_c, 0, 64, 60
2, 160099, Control_c, 0, 64, 57
2, 160118, Control_c, 0, 64, 55
2, 160138, Control_c, 0, 64, 52
2, 160158, Control_c, 0, 64, 43
2, 160178, Control_c, 0, 64, 27
2, 160197, Control_c, 0, 64, 0
2, 160503, Control_c, 0, 64, 15
2, 160521, Control_c, 0, 64, 26
2, 160541, Control_c, 0, 64, 34
2, 160560, Control_c, 0, 64, 43
2, 160579, Control_c, 0, 64, 50
2, 160598, Control_c, 0, 64, 55
2, 160618, Control_c, 0, 64, 58
2, 160637, Control_c, 0, 64, 59
2, 160676, Control_c, 0, 64, 60
2, 160693, Control_c, 0, 64, 62
2, 160712, Control_c, 0, 64, 63
2, 160735, Control_c, 0, 64, 64
2, 160772, Control_c, 0, 64, 65
2, 160791, Control_c, 0, 64, 66
2, 160809, Control_c, 0, 64, 67
2, 160829, Control_c, 0, 64, 70
2, 160849, Control_c, 0, 64, 73
2, 160869, Control_c, 0, 64, 77
2, 160886, Control_c, 0, 64, 82
2, 160908, Control_c, 0, 64, 87
2, 160925, Control_c, 0, 64, 92
2, 160947, Control_c, 0, 64, 98
2, 160965, Control_c, 0, 64, 105
2, 160985, Control_c, 0, 64, 116
2, 161003, Control_c, 0, 64, 127
2, 161867, Note_on_c, 0, 46, 0
2, 162020, Control_c, 0, 64, 116
2, 162039, Control_c, 0, 64, 112
2, 162058, Control_c, 0, 64, 107
2, 162076, Control_c, 0, 64, 102
2, 162096, Control_c, 0, 64, 98
2, 162115, Control_c, 0, 64, 94
2, 162135, Control_c, 0, 64, 91
2, 162154, Control_c, 0, 64, 90
2, 162173, Control_c, 0, 64, 88
2, 162192, Control_c, 0, 64, 86
2, 162196, Note_on_c, 0, 53, 0
2, 162212, Control_c, 0, 64, 84
2, 162230, Control_c, 0, 64, 82
2, 162250, Control_c, 0, 64, 80
2, 162270, Control_c, 0, 64, 79
2, 162287, Control_c, 0, 64, 78
2, 162309, Control_c, 0, 64, 76
2, 162329, Control_c, 0, 64, 75
2, 162366, Control_c, 0, 64, 74
2, 162384, Control_c, 0, 64, 73
2, 162404, Control_c, 0, 64, 72
2, 162421, Control_c, 0, 64, 71
2, 162441, Control_c, 0, 64, 70
2, 162462, Control_c, 0, 64, 68
2, 162480, Control_c, 0, 64, 67
2, 162500, Control_c, 0, 64, 66
2, 162531, Note_on_c, 0, 62, 0
2, 162540, Control_c, 0, 64, 65
2, 162573, Note_on_c, 0, 65, 0
2, 162615, Control_c, 0, 64, 64
2, 162653, Control_c, 0, 64, 63
2, 162712, Control_c, 0, 64, 62
2, 162721, Note_on_c, 0, 70, 0
2, 162750, Control_c, 0, 64, 61
2, 162770, Control_c, 0, 64, 60
2, 162806, Control_c, 0, 64, 59
2, 162883, Control_c, 0, 64, 58
2, 162903, Control_c, 0, 64, 57
2, 162923, Control_c, 0, 64, 55
2, 162942, Control_c, 0, 64, 54
2, 162963, Control_c, 0, 64, 53
2, 162980, Control_c, 0, 64, 52
2, 162998, Control_c, 0, 64, 51
2, 163020, Control_c, 0, 64, 50
2, 163040, Control_c, 0, 64, 49
2, 163057, Control_c, 0, 64, 48
2, 163074, Control_c, 0, 64, 47
2, 163094, Control_c, 0, 64, 46
2, 163114, Control_c, 0, 64, 45
2, 163132, Control_c, 0, 64, 43
2, 163152, Control_c, 0, 64, 42
2, 163174, Control_c, 0, 64, 40
2, 163190, Control_c, 0, 64, 39
2, 163247, Control_c, 0, 64, 38
2, 163267, Control_c, 0, 64, 37
2, 163289, Control_c, 0, 64, 36
2, 163304, Control_c, 0, 64, 35
2, 163325, Control_c, 0, 64, 34
2, 163345, Control_c, 0, 64, 32
2, 163362, Control_c, 0, 64, 31
2, 163382, Control_c, 0, 64, 30
2, 164189, Control_c, 0, 64, 29
2, 164207, Control_c, 0, 64, 27
2, 164227, Control_c, 0, 64, 25
2, 164247, Control_c, 0, 64, 22
2, 164265, Control_c, 0, 64, 15
2, 164285, Control_c, 0, 64, 0
2, 165320, Control_c, 0, 64, 9
2, 165341, Control_c, 0, 64, 18
2, 165361, Control_c, 0, 64, 24
2, 165381, Control_c, 0, 64, 32
2, 165397, Control_c, 0, 64, 40
2, 165417, Control_c, 0, 64, 48
2, 165437, Control_c, 0, 64, 55
2, 165455, Control_c, 0, 64, 58
2, 165493, Control_c, 0, 64, 59
2, 165513, Control_c, 0, 64, 60
2, 165533, Control_c, 0, 64, 61
2, 165553, Control_c, 0, 64, 62
2, 165570, Control_c, 0, 64, 63
2, 165590, Control_c, 0, 64, 64
2, 165610, Control_c, 0, 64, 65
2, 165631, Control_c, 0, 64, 67
2, 165649, Control_c, 0, 64, 71
2, 165669, Control_c, 0, 64, 75
2, 165686, Control_c, 0, 64, 81
2, 165706, Control_c, 0, 64, 89
2, 165724, Control_c, 0, 64, 101
2, 165744, Control_c, 0, 64, 127
2, 167159,End_track
0, 0, End_of_file
