0, 0, Header, 1, 2, 384
1, 0, Start_track
1, 0, Tempo, 500000
1, 0, Time_signature, 4, 2, 24, 8
1, 1, End_track
2, 0, Start_track
2, 0, Title_t, "7.7.13 Group 2"
2, 0, Program_c, 0, 0
2, 0, Control_c, 0, 64, 127
2, 0, Control_c, 0, 67, 127
2, 795, Note_on_c, 0, 61, 44
2, 806, Note_on_c, 0, 58, 41
2, 1066, Note_on_c, 0, 58, 0
2, 1370, Note_on_c, 0, 70, 55
2, 1375, Note_on_c, 0, 58, 31
2, 1376, Note_on_c, 0, 65, 36
2, 1403, Control_c, 0, 64, 89
2, 1419, Control_c, 0, 64, 72
2, 1434, Control_c, 0, 64, 63
2, 1449, Control_c, 0, 64, 59
2, 1464, Control_c, 0, 64, 61
2, 1479, Control_c, 0, 64, 64
2, 1494, Control_c, 0, 64, 67
2, 1510, Control_c, 0, 64, 71
2, 1524, Control_c, 0, 64, 80
2, 1547, Control_c, 0, 64, 97
2, 1562, Control_c, 0, 64, 127
2, 1641, Note_on_c, 0, 72, 63
2, 1713, Note_on_c, 0, 70, 0
2, 1715, Note_on_c, 0, 58, 0
2, 1726, Note_on_c, 0, 65, 0
2, 1920, Note_on_c, 0, 73, 65
2, 1923, Note_on_c, 0, 70, 50
2, 1924, Note_on_c, 0, 58, 35
2, 1932, Note_on_c, 0, 72, 0
2, 1942, Control_c, 0, 64, 102
2, 1957, Control_c, 0, 64, 77
2, 1972, Control_c, 0, 64, 63
2, 1988, Control_c, 0, 64, 31
2, 2003, Control_c, 0, 64, 0
2, 2033, Control_c, 0, 64, 36
2, 2048, Control_c, 0, 64, 53
2, 2064, Control_c, 0, 64, 64
2, 2079, Control_c, 0, 64, 76
2, 2094, Control_c, 0, 64, 127
2, 2130, Note_on_c, 0, 70, 0
2, 2146, Note_on_c, 0, 61, 0
2, 2175, Note_on_c, 0, 73, 0
2, 2259, Note_on_c, 0, 58, 0
2, 2480, Note_on_c, 0, 65, 54
2, 2484, Note_on_c, 0, 61, 39
2, 2484, Note_on_c, 0, 73, 62
2, 2490, Note_on_c, 0, 70, 56
2, 2508, Note_on_c, 0, 58, 37
2, 2516, Control_c, 0, 64, 96
2, 2532, Control_c, 0, 64, 75
2, 2547, Control_c, 0, 64, 64
2, 2562, Control_c, 0, 64, 53
2, 2577, Control_c, 0, 64, 54
2, 2592, Control_c, 0, 64, 60
2, 2608, Control_c, 0, 64, 64
2, 2623, Control_c, 0, 64, 68
2, 2638, Control_c, 0, 64, 83
2, 2653, Control_c, 0, 64, 127
2, 2676, Note_on_c, 0, 65, 0
2, 2717, Note_on_c, 0, 58, 0
2, 2741, Note_on_c, 0, 73, 0
2, 2759, Note_on_c, 0, 70, 0
2, 3016, Note_on_c, 0, 61, 0
2, 3045, Note_on_c, 0, 70, 60
2, 3045, Note_on_c, 0, 73, 65
2, 3047, Note_on_c, 0, 63, 44
2, 3049, Note_on_c, 0, 66, 53
2, 3065, Note_on_c, 0, 58, 41
2, 3067, Control_c, 0, 64, 86
2, 3089, Control_c, 0, 64, 67
2, 3104, Control_c, 0, 64, 0
2, 3256, Control_c, 0, 64, 61
2, 3271, Control_c, 0, 64, 67
2, 3287, Control_c, 0, 64, 74
2, 3301, Control_c, 0, 64, 85
2, 3317, Control_c, 0, 64, 105
2, 3332, Control_c, 0, 64, 127
2, 3354, Note_on_c, 0, 70, 0
2, 3377, Note_on_c, 0, 58, 0
2, 3582, Note_on_c, 0, 72, 64
2, 3590, Note_on_c, 0, 58, 39
2, 3590, Note_on_c, 0, 69, 54
2, 3620, Control_c, 0, 64, 95
2, 3620, Note_on_c, 0, 73, 0
2, 3635, Control_c, 0, 64, 72
2, 3651, Control_c, 0, 64, 62
2, 3666, Control_c, 0, 64, 53
2, 3682, Control_c, 0, 64, 55
2, 3697, Control_c, 0, 64, 61
2, 3709, Note_on_c, 0, 69, 0
2, 3711, Control_c, 0, 64, 64
2, 3727, Control_c, 0, 64, 68
2, 3742, Control_c, 0, 64, 84
2, 3759, Control_c, 0, 64, 127
2, 3838, Note_on_c, 0, 73, 73
2, 3855, Note_on_c, 0, 70, 60
2, 3862, Note_on_c, 0, 72, 0
2, 3925, Note_on_c, 0, 58, 0
2, 4131, Note_on_c, 0, 58, 40
2, 4136, Note_on_c, 0, 72, 62
2, 4141, Note_on_c, 0, 75, 65
2, 4143, Note_on_c, 0, 73, 0
2, 4162, Control_c, 0, 64, 79
2, 4177, Control_c, 0, 64, 63
2, 4183, Note_on_c, 0, 70, 0
2, 4191, Control_c, 0, 64, 13
2, 4207, Control_c, 0, 64, 0
2, 4267, Control_c, 0, 64, 44
2, 4283, Control_c, 0, 64, 58
2, 4298, Control_c, 0, 64, 65
2, 4305, Note_on_c, 0, 66, 0
2, 4313, Control_c, 0, 64, 72
2, 4329, Control_c, 0, 64, 102
2, 4343, Control_c, 0, 64, 127
2, 4354, Note_on_c, 0, 75, 0
2, 4385, Note_on_c, 0, 72, 0
2, 4414, Note_on_c, 0, 63, 0
2, 4430, Note_on_c, 0, 58, 0
2, 4696, Note_on_c, 0, 75, 67
2, 4700, Note_on_c, 0, 72, 61
2, 4704, Note_on_c, 0, 66, 46
2, 4709, Note_on_c, 0, 69, 46
2, 4712, Note_on_c, 0, 63, 44
2, 4715, Control_c, 0, 64, 112
2, 4730, Note_on_c, 0, 58, 34
2, 4731, Control_c, 0, 64, 79
2, 4734, Note_on_c, 0, 60, 42
2, 4746, Control_c, 0, 64, 64
2, 4762, Control_c, 0, 64, 37
2, 4776, Control_c, 0, 64, 0
2, 4807, Control_c, 0, 64, 39
2, 4810, Note_on_c, 0, 60, 0
2, 4822, Control_c, 0, 64, 54
2, 4838, Control_c, 0, 64, 63
2, 4853, Control_c, 0, 64, 75
2, 4868, Control_c, 0, 64, 127
2, 4894, Note_on_c, 0, 63, 0
2, 4930, Note_on_c, 0, 69, 0
2, 4933, Note_on_c, 0, 72, 0
2, 4978, Note_on_c, 0, 66, 0
2, 4979, Note_on_c, 0, 75, 0
2, 4998, Note_on_c, 0, 58, 0
2, 5259, Note_on_c, 0, 61, 44
2, 5261, Note_on_c, 0, 75, 71
2, 5262, Note_on_c, 0, 65, 47
2, 5262, Note_on_c, 0, 72, 64
2, 5275, Note_on_c, 0, 58, 38
2, 5308, Control_c, 0, 64, 82
2, 5324, Control_c, 0, 64, 63
2, 5339, Control_c, 0, 64, 27
2, 5354, Control_c, 0, 64, 0
2, 5409, Control_c, 0, 64, 44
2, 5423, Control_c, 0, 64, 57
2, 5439, Control_c, 0, 64, 66
2, 5454, Control_c, 0, 64, 80
2, 5468, Control_c, 0, 64, 127
2, 5543, Note_on_c, 0, 58, 0
2, 5813, Note_on_c, 0, 73, 69
2, 5821, Note_on_c, 0, 70, 52
2, 5833, Control_c, 0, 64, 85
2, 5834, Note_on_c, 0, 58, 42
2, 5846, Note_on_c, 0, 72, 0
2, 5849, Control_c, 0, 64, 64
2, 5864, Control_c, 0, 64, 33
2, 5879, Control_c, 0, 64, 0
2, 5893, Note_on_c, 0, 75, 0
2, 5909, Control_c, 0, 64, 36
2, 5925, Control_c, 0, 64, 56
2, 5940, Control_c, 0, 64, 64
2, 5954, Control_c, 0, 64, 74
2, 5970, Control_c, 0, 64, 98
2, 5985, Control_c, 0, 64, 127
2, 6079, Note_on_c, 0, 72, 72
2, 6091, Note_on_c, 0, 75, 72
2, 6103, Note_on_c, 0, 58, 0
2, 6118, Note_on_c, 0, 73, 0
2, 6201, Note_on_c, 0, 70, 0
2, 6357, Note_on_c, 0, 75, 0
2, 6364, Note_on_c, 0, 77, 75
2, 6365, Note_on_c, 0, 73, 65
2, 6376, Note_on_c, 0, 58, 40
2, 6388, Control_c, 0, 64, 94
2, 6397, Note_on_c, 0, 72, 0
2, 6404, Control_c, 0, 64, 70
2, 6419, Control_c, 0, 64, 51
2, 6434, Control_c, 0, 64, 0
2, 6471, Note_on_c, 0, 61, 0
2, 6480, Control_c, 0, 64, 30
2, 6495, Control_c, 0, 64, 58
2, 6503, Note_on_c, 0, 65, 0
2, 6510, Control_c, 0, 64, 66
2, 6525, Control_c, 0, 64, 78
2, 6540, Control_c, 0, 64, 110
2, 6555, Control_c, 0, 64, 127
2, 6614, Note_on_c, 0, 77, 0
2, 6625, Note_on_c, 0, 58, 0
2, 6635, Note_on_c, 0, 73, 0
2, 6907, Note_on_c, 0, 73, 72
2, 6907, Note_on_c, 0, 77, 78
2, 6908, Note_on_c, 0, 70, 69
2, 6910, Note_on_c, 0, 65, 47
2, 6917, Note_on_c, 0, 61, 45
2, 6927, Note_on_c, 0, 58, 39
2, 6956, Control_c, 0, 64, 78
2, 6972, Control_c, 0, 64, 60
2, 6987, Control_c, 0, 64, 0
2, 7049, Control_c, 0, 64, 47
2, 7064, Control_c, 0, 64, 63
2, 7079, Control_c, 0, 64, 73
2, 7095, Control_c, 0, 64, 107
2, 7109, Control_c, 0, 64, 127
2, 7136, Note_on_c, 0, 65, 0
2, 7175, Note_on_c, 0, 58, 0
2, 7195, Note_on_c, 0, 70, 0
2, 7220, Note_on_c, 0, 73, 0
2, 7229, Note_on_c, 0, 77, 0
2, 7269, Note_on_c, 0, 61, 0
2, 7472, Note_on_c, 0, 60, 52
2, 7476, Note_on_c, 0, 77, 77
2, 7479, Note_on_c, 0, 69, 66
2, 7479, Note_on_c, 0, 73, 75
2, 7482, Note_on_c, 0, 58, 43
2, 7535, Control_c, 0, 64, 75
2, 7550, Control_c, 0, 64, 60
2, 7565, Control_c, 0, 64, 10
2, 7580, Control_c, 0, 64, 0
2, 7580, Control_c, 0, 67, 117
2, 7595, Control_c, 0, 64, 24
2, 7595, Control_c, 0, 67, 95
2, 7611, Control_c, 0, 64, 49
2, 7611, Control_c, 0, 67, 74
2, 7626, Control_c, 0, 64, 60
2, 7626, Control_c, 0, 67, 54
2, 7640, Control_c, 0, 64, 67
2, 7640, Control_c, 0, 67, 33
2, 7656, Control_c, 0, 64, 82
2, 7656, Control_c, 0, 67, 13
2, 7671, Control_c, 0, 64, 127
2, 7671, Control_c, 0, 67, 0
2, 7787, Note_on_c, 0, 58, 0
2, 7795, Note_on_c, 0, 73, 0
2, 8018, Note_on_c, 0, 58, 45
2, 8027, Note_on_c, 0, 72, 66
2, 8028, Note_on_c, 0, 75, 74
2, 8075, Control_c, 0, 64, 80
2, 8091, Control_c, 0, 64, 64
2, 8094, Note_on_c, 0, 77, 0
2, 8106, Control_c, 0, 64, 50
2, 8121, Control_c, 0, 64, 53
2, 8135, Note_on_c, 0, 72, 0
2, 8137, Control_c, 0, 64, 61
2, 8151, Control_c, 0, 64, 66
2, 8167, Control_c, 0, 64, 77
2, 8182, Control_c, 0, 64, 127
2, 8295, Note_on_c, 0, 73, 70
2, 8295, Note_on_c, 0, 77, 79
2, 8313, Note_on_c, 0, 58, 0
2, 8341, Note_on_c, 0, 75, 0
2, 8362, Note_on_c, 0, 73, 0
2, 8583, Note_on_c, 0, 58, 48
2, 8595, Note_on_c, 0, 75, 71
2, 8595, Note_on_c, 0, 78, 74
2, 8626, Note_on_c, 0, 77, 0
2, 8645, Control_c, 0, 64, 105
2, 8660, Control_c, 0, 64, 72
2, 8676, Control_c, 0, 64, 51
2, 8692, Control_c, 0, 64, 0
2, 8734, Note_on_c, 0, 60, 0
2, 8737, Control_c, 0, 64, 47
2, 8752, Control_c, 0, 64, 62
2, 8768, Control_c, 0, 64, 72
2, 8774, Note_on_c, 0, 69, 0
2, 8783, Control_c, 0, 64, 91
2, 8797, Control_c, 0, 64, 127
2, 8877, Note_on_c, 0, 75, 0
2, 8880, Note_on_c, 0, 78, 0
2, 8904, Note_on_c, 0, 58, 0
2, 9158, Note_on_c, 0, 69, 66
2, 9158, Note_on_c, 0, 75, 70
2, 9158, Note_on_c, 0, 78, 74
2, 9165, Note_on_c, 0, 58, 38
2, 9165, Note_on_c, 0, 60, 48
2, 9208, Control_c, 0, 64, 86
2, 9230, Control_c, 0, 64, 66
2, 9246, Control_c, 0, 64, 48
2, 9260, Control_c, 0, 64, 0
2, 9291, Control_c, 0, 64, 42
2, 9306, Control_c, 0, 64, 53
2, 9321, Control_c, 0, 64, 61
2, 9336, Control_c, 0, 64, 67
2, 9351, Control_c, 0, 64, 82
2, 9367, Control_c, 0, 64, 127
2, 9399, Note_on_c, 0, 69, 0
2, 9485, Note_on_c, 0, 58, 0
2, 9488, Note_on_c, 0, 78, 0
2, 9511, Note_on_c, 0, 75, 0
2, 9793, Note_on_c, 0, 70, 56
2, 9794, Note_on_c, 0, 75, 69
2, 9794, Note_on_c, 0, 78, 62
2, 9800, Note_on_c, 0, 58, 46
2, 9838, Control_c, 0, 64, 93
2, 9854, Control_c, 0, 64, 69
2, 9869, Control_c, 0, 64, 35
2, 9869, Note_on_c, 0, 60, 0
2, 9885, Control_c, 0, 64, 0
2, 9945, Control_c, 0, 64, 16
2, 9960, Control_c, 0, 64, 52
2, 9975, Control_c, 0, 64, 61
2, 9998, Control_c, 0, 64, 67
2, 10014, Control_c, 0, 64, 77
2, 10028, Control_c, 0, 64, 103
2, 10044, Control_c, 0, 64, 127
2, 10053, Note_on_c, 0, 78, 0
2, 10106, Note_on_c, 0, 75, 0
2, 10148, Note_on_c, 0, 58, 0
2, 10402, Note_on_c, 0, 77, 43
2, 10407, Note_on_c, 0, 73, 44
2, 10416, Note_on_c, 0, 58, 42
2, 10439, Control_c, 0, 64, 110
2, 10455, Control_c, 0, 64, 92
2, 10470, Control_c, 0, 64, 81
2, 10486, Control_c, 0, 64, 73
2, 10500, Control_c, 0, 64, 65
2, 10515, Control_c, 0, 64, 59
2, 10531, Control_c, 0, 64, 48
2, 10546, Control_c, 0, 64, 38
2, 10561, Control_c, 0, 64, 33
2, 10577, Control_c, 0, 64, 30
2, 10592, Control_c, 0, 64, 26
2, 10607, Control_c, 0, 64, 15
2, 10622, Control_c, 0, 64, 0
2, 10668, Note_on_c, 0, 60, 56
2, 10682, Note_on_c, 0, 75, 44
2, 10686, Note_on_c, 0, 77, 0
2, 10732, Note_on_c, 0, 73, 0
2, 10770, Note_on_c, 0, 58, 0
2, 10967, Note_on_c, 0, 61, 52
2, 10971, Note_on_c, 0, 77, 45
2, 10972, Note_on_c, 0, 75, 0
2, 10974, Note_on_c, 0, 60, 0
2, 11070, Control_c, 0, 64, 39
2, 11086, Control_c, 0, 64, 50
2, 11101, Control_c, 0, 64, 57
2, 11116, Control_c, 0, 64, 61
2, 11133, Control_c, 0, 64, 65
2, 11139, Note_on_c, 0, 70, 0
2, 11148, Control_c, 0, 64, 74
2, 11164, Control_c, 0, 64, 95
2, 11174, Note_on_c, 0, 77, 0
2, 11178, Control_c, 0, 64, 127
2, 11399, Note_on_c, 0, 61, 0
2, 11514, Note_on_c, 0, 61, 62
2, 11542, Note_on_c, 0, 77, 48
2, 11550, Note_on_c, 0, 73, 44
2, 11558, Note_on_c, 0, 70, 38
2, 11595, Control_c, 0, 64, 95
2, 11611, Control_c, 0, 64, 81
2, 11626, Control_c, 0, 64, 79
2, 11657, Control_c, 0, 64, 81
2, 11671, Control_c, 0, 64, 92
2, 11687, Control_c, 0, 64, 119
2, 11702, Control_c, 0, 64, 127
2, 11747, Note_on_c, 0, 73, 0
2, 11769, Note_on_c, 0, 70, 0
2, 11778, Note_on_c, 0, 77, 0
2, 12001, Note_on_c, 0, 61, 0
2, 12111, Note_on_c, 0, 61, 55
2, 12127, Note_on_c, 0, 70, 46
2, 12130, Note_on_c, 0, 77, 51
2, 12134, Note_on_c, 0, 67, 43
2, 12174, Control_c, 0, 64, 90
2, 12189, Control_c, 0, 64, 71
2, 12205, Control_c, 0, 64, 62
2, 12219, Control_c, 0, 64, 52
2, 12234, Control_c, 0, 64, 53
2, 12250, Control_c, 0, 64, 59
2, 12265, Control_c, 0, 64, 63
2, 12280, Control_c, 0, 64, 67
2, 12295, Control_c, 0, 64, 74
2, 12316, Control_c, 0, 64, 93
2, 12332, Control_c, 0, 64, 127
2, 12356, Note_on_c, 0, 67, 0
2, 12389, Note_on_c, 0, 77, 0
2, 12659, Note_on_c, 0, 75, 60
2, 12662, Note_on_c, 0, 66, 52
2, 12665, Note_on_c, 0, 60, 54
2, 12733, Note_on_c, 0, 70, 0
2, 12767, Note_on_c, 0, 61, 0
2, 12819, Control_c, 0, 64, 110
2, 12834, Control_c, 0, 64, 97
2, 12850, Control_c, 0, 64, 90
2, 12864, Control_c, 0, 64, 84
2, 12879, Control_c, 0, 64, 80
2, 12895, Control_c, 0, 64, 77
2, 12910, Control_c, 0, 64, 75
2, 12920, Note_on_c, 0, 73, 58
2, 12926, Control_c, 0, 64, 72
2, 12931, Note_on_c, 0, 61, 62
2, 12940, Control_c, 0, 64, 69
2, 12955, Control_c, 0, 64, 66
2, 12968, Note_on_c, 0, 75, 0
2, 12971, Control_c, 0, 64, 63
2, 12986, Control_c, 0, 64, 59
2, 13001, Control_c, 0, 64, 55
2, 13001, Note_on_c, 0, 60, 0
2, 13017, Control_c, 0, 64, 52
2, 13032, Control_c, 0, 64, 50
2, 13048, Control_c, 0, 64, 47
2, 13069, Control_c, 0, 64, 45
2, 13085, Control_c, 0, 64, 41
2, 13100, Control_c, 0, 64, 37
2, 13115, Control_c, 0, 64, 34
2, 13131, Control_c, 0, 64, 29
2, 13145, Control_c, 0, 64, 17
2, 13160, Control_c, 0, 64, 0
2, 13233, Note_on_c, 0, 72, 52
2, 13242, Note_on_c, 0, 63, 51
2, 13254, Note_on_c, 0, 73, 0
2, 13267, Note_on_c, 0, 61, 0
2, 13295, Note_on_c, 0, 66, 0
2, 13358, Control_c, 0, 64, 31
2, 13374, Control_c, 0, 64, 50
2, 13389, Control_c, 0, 64, 59
2, 13404, Control_c, 0, 64, 64
2, 13419, Control_c, 0, 64, 73
2, 13434, Control_c, 0, 64, 97
2, 13450, Control_c, 0, 64, 127
2, 13492, Note_on_c, 0, 72, 0
2, 13577, Note_on_c, 0, 63, 0
2, 13788, Note_on_c, 0, 73, 59
2, 13793, Note_on_c, 0, 63, 49
2, 13794, Note_on_c, 0, 70, 48
2, 13795, Note_on_c, 0, 66, 48
2, 13837, Control_c, 0, 64, 90
2, 13853, Control_c, 0, 64, 72
2, 13868, Control_c, 0, 64, 62
2, 13884, Control_c, 0, 64, 49
2, 13899, Control_c, 0, 64, 53
2, 13913, Control_c, 0, 64, 60
2, 13929, Control_c, 0, 64, 64
2, 13944, Control_c, 0, 64, 69
2, 13959, Control_c, 0, 64, 79
2, 13975, Control_c, 0, 64, 110
2, 13990, Control_c, 0, 64, 127
2, 14077, Note_on_c, 0, 75, 64
2, 14105, Note_on_c, 0, 66, 0
2, 14138, Note_on_c, 0, 73, 0
2, 14139, Note_on_c, 0, 70, 0
2, 14174, Note_on_c, 0, 63, 0
2, 14359, Note_on_c, 0, 63, 39
2, 14365, Note_on_c, 0, 69, 60
2, 14372, Note_on_c, 0, 65, 51
2, 14401, Control_c, 0, 64, 92
2, 14417, Control_c, 0, 64, 66
2, 14429, Note_on_c, 0, 75, 0
2, 14431, Control_c, 0, 64, 29
2, 14447, Control_c, 0, 64, 0
2, 14492, Control_c, 0, 64, 49
2, 14507, Control_c, 0, 64, 64
2, 14522, Control_c, 0, 64, 71
2, 14538, Control_c, 0, 64, 89
2, 14552, Control_c, 0, 64, 127
2, 14554, Note_on_c, 0, 65, 0
2, 14631, Note_on_c, 0, 69, 0
2, 14913, Note_on_c, 0, 70, 64
2, 14918, Note_on_c, 0, 77, 63
2, 14922, Note_on_c, 0, 61, 55
2, 15053, Note_on_c, 0, 63, 0
2, 15167, Note_on_c, 0, 63, 61
2, 15175, Note_on_c, 0, 72, 72
2, 15199, Control_c, 0, 64, 115
2, 15215, Control_c, 0, 64, 105
2, 15227, Note_on_c, 0, 70, 0
2, 15230, Control_c, 0, 64, 97
2, 15246, Control_c, 0, 64, 90
2, 15261, Control_c, 0, 64, 84
2, 15276, Control_c, 0, 64, 79
2, 15289, Note_on_c, 0, 61, 0
2, 15292, Control_c, 0, 64, 76
2, 15306, Control_c, 0, 64, 72
2, 15321, Control_c, 0, 64, 67
2, 15337, Control_c, 0, 64, 62
2, 15352, Control_c, 0, 64, 52
2, 15374, Control_c, 0, 64, 35
2, 15389, Control_c, 0, 64, 25
2, 15405, Control_c, 0, 64, 15
2, 15420, Control_c, 0, 64, 0
2, 15476, Note_on_c, 0, 65, 52
2, 15478, Note_on_c, 0, 73, 69
2, 15520, Note_on_c, 0, 72, 0
2, 15556, Note_on_c, 0, 63, 0
2, 15563, Note_on_c, 0, 77, 0
2, 15677, Control_c, 0, 64, 40
2, 15693, Control_c, 0, 64, 58
2, 15708, Control_c, 0, 64, 59
2, 15723, Control_c, 0, 64, 61
2, 15738, Control_c, 0, 64, 65
2, 15753, Control_c, 0, 64, 72
2, 15769, Control_c, 0, 64, 91
2, 15784, Control_c, 0, 64, 127
2, 15866, Note_on_c, 0, 65, 0
2, 15988, Note_on_c, 0, 79, 76
2, 15993, Note_on_c, 0, 65, 64
2, 16012, Control_c, 0, 64, 86
2, 16027, Control_c, 0, 64, 69
2, 16043, Control_c, 0, 64, 63
2, 16074, Control_c, 0, 64, 65
2, 16090, Control_c, 0, 64, 69
2, 16104, Control_c, 0, 64, 76
2, 16119, Control_c, 0, 64, 99
2, 16135, Control_c, 0, 64, 127
2, 16260, Note_on_c, 0, 81, 80
2, 16314, Note_on_c, 0, 79, 0
2, 16358, Note_on_c, 0, 65, 0
2, 16598, Note_on_c, 0, 66, 54
2, 16599, Note_on_c, 0, 65, 56
2, 16612, Note_on_c, 0, 82, 79
2, 16655, Note_on_c, 0, 81, 0
2, 16658, Control_c, 0, 64, 110
2, 16673, Control_c, 0, 64, 83
2, 16689, Control_c, 0, 64, 68
2, 16704, Control_c, 0, 64, 54
2, 16719, Control_c, 0, 64, 0
2, 16780, Control_c, 0, 64, 22
2, 16795, Control_c, 0, 64, 43
2, 16811, Control_c, 0, 64, 56
2, 16826, Control_c, 0, 64, 67
2, 16838, Note_on_c, 0, 73, 0
2, 16841, Control_c, 0, 64, 86
2, 16857, Control_c, 0, 64, 127
2, 17130, Note_on_c, 0, 63, 54
2, 17140, Note_on_c, 0, 72, 58
2, 17218, Note_on_c, 0, 65, 0
2, 17403, Note_on_c, 0, 73, 71
2, 17419, Note_on_c, 0, 61, 56
2, 17436, Note_on_c, 0, 63, 0
2, 17470, Note_on_c, 0, 72, 0
2, 17721, Note_on_c, 0, 60, 55
2, 17734, Note_on_c, 0, 75, 66
2, 17801, Control_c, 0, 64, 103
2, 17801, Note_on_c, 0, 73, 0
2, 17816, Control_c, 0, 64, 85
2, 17822, Note_on_c, 0, 61, 0
2, 17831, Control_c, 0, 64, 73
2, 17847, Control_c, 0, 64, 64
2, 17861, Control_c, 0, 64, 51
2, 17876, Control_c, 0, 64, 0
2, 17898, Note_on_c, 0, 82, 0
2, 18195, Control_c, 0, 64, 23
2, 18211, Control_c, 0, 64, 41
2, 18226, Control_c, 0, 64, 49
2, 18241, Control_c, 0, 64, 55
2, 18255, Note_on_c, 0, 81, 74
2, 18257, Control_c, 0, 64, 59
2, 18261, Note_on_c, 0, 58, 40
2, 18271, Control_c, 0, 64, 62
2, 18287, Control_c, 0, 64, 67
2, 18302, Control_c, 0, 64, 79
2, 18317, Control_c, 0, 64, 116
2, 18333, Control_c, 0, 64, 127
2, 18538, Note_on_c, 0, 82, 79
2, 18625, Note_on_c, 0, 81, 0
2, 18843, Note_on_c, 0, 60, 0
2, 18851, Note_on_c, 0, 57, 42
2, 18892, Note_on_c, 0, 84, 76
2, 18923, Note_on_c, 0, 82, 0
2, 18948, Control_c, 0, 64, 104
2, 18963, Control_c, 0, 64, 80
2, 18979, Control_c, 0, 64, 66
2, 18989, Note_on_c, 0, 58, 0
2, 18993, Control_c, 0, 64, 49
2, 19009, Control_c, 0, 64, 0
2, 19027, Note_on_c, 0, 75, 0
2, 19131, Control_c, 0, 64, 39
2, 19146, Control_c, 0, 64, 52
2, 19161, Control_c, 0, 64, 59
2, 19177, Control_c, 0, 64, 63
2, 19191, Control_c, 0, 64, 69
2, 19207, Control_c, 0, 64, 81
2, 19229, Control_c, 0, 64, 104
2, 19245, Control_c, 0, 64, 127
2, 19393, Note_on_c, 0, 78, 64
2, 19417, Note_on_c, 0, 75, 32
2, 19483, Note_on_c, 0, 75, 0
2, 19679, Note_on_c, 0, 77, 65
2, 19690, Note_on_c, 0, 73, 45
2, 19728, Note_on_c, 0, 78, 0
2, 19746, Note_on_c, 0, 73, 0
2, 19782, Note_on_c, 0, 77, 0
2, 20005, Note_on_c, 0, 75, 53
2, 20041, Note_on_c, 0, 72, 31
2, 20073, Control_c, 0, 64, 93
2, 20088, Control_c, 0, 64, 74
2, 20103, Control_c, 0, 64, 63
2, 20118, Control_c, 0, 64, 25
2, 20134, Control_c, 0, 64, 0
2, 20192, Note_on_c, 0, 84, 0
2, 20195, Control_c, 0, 64, 28
2, 20211, Control_c, 0, 64, 48
2, 20226, Control_c, 0, 64, 58
2, 20237, Note_on_c, 0, 57, 0
2, 20241, Control_c, 0, 64, 65
2, 20257, Control_c, 0, 64, 75
2, 20271, Control_c, 0, 64, 95
2, 20287, Control_c, 0, 64, 127
2, 20343, Note_on_c, 0, 75, 0
2, 20539, Note_on_c, 0, 84, 72
2, 20546, Note_on_c, 0, 57, 47
2, 20702, Note_on_c, 0, 66, 0
2, 20810, Note_on_c, 0, 58, 60
2, 20826, Note_on_c, 0, 82, 79
2, 20837, Note_on_c, 0, 57, 0
2, 20929, Note_on_c, 0, 84, 0
2, 20991, Note_on_c, 0, 58, 0
2, 20993, Note_on_c, 0, 72, 0
2, 21106, Note_on_c, 0, 60, 61
2, 21167, Note_on_c, 0, 81, 75
2, 21241, Note_on_c, 0, 82, 0
2, 21341, Control_c, 0, 64, 95
2, 21355, Control_c, 0, 64, 81
2, 21370, Control_c, 0, 64, 69
2, 21386, Control_c, 0, 64, 59
2, 21401, Control_c, 0, 64, 39
2, 21417, Control_c, 0, 64, 0
2, 21678, Note_on_c, 0, 72, 51
2, 21687, Note_on_c, 0, 75, 51
2, 21952, Note_on_c, 0, 73, 57
2, 21957, Note_on_c, 0, 70, 39
2, 21986, Note_on_c, 0, 75, 0
2, 21993, Note_on_c, 0, 72, 0
2, 22256, Note_on_c, 0, 69, 46
2, 22272, Note_on_c, 0, 72, 42
2, 22327, Note_on_c, 0, 73, 0
2, 22340, Note_on_c, 0, 70, 0
2, 22421, Note_on_c, 0, 81, 0
2, 22467, Note_on_c, 0, 60, 0
2, 22797, Note_on_c, 0, 60, 44
2, 22822, Note_on_c, 0, 81, 57
2, 22907, Control_c, 0, 64, 34
2, 22921, Control_c, 0, 64, 47
2, 22937, Control_c, 0, 64, 54
2, 22952, Control_c, 0, 64, 58
2, 22967, Control_c, 0, 64, 63
2, 22983, Control_c, 0, 64, 70
2, 22997, Control_c, 0, 64, 82
2, 23013, Control_c, 0, 64, 104
2, 23028, Control_c, 0, 64, 127
2, 23094, Note_on_c, 0, 84, 66
2, 23096, Note_on_c, 0, 61, 38
2, 23147, Note_on_c, 0, 81, 0
2, 23168, Note_on_c, 0, 60, 0
2, 23436, Note_on_c, 0, 63, 40
2, 23441, Note_on_c, 0, 77, 57
2, 23477, Control_c, 0, 64, 108
2, 23482, Note_on_c, 0, 84, 0
2, 23485, Note_on_c, 0, 72, 0
2, 23492, Control_c, 0, 64, 87
2, 23507, Control_c, 0, 64, 77
2, 23522, Control_c, 0, 64, 68
2, 23538, Control_c, 0, 64, 61
2, 23553, Control_c, 0, 64, 46
2, 23560, Note_on_c, 0, 61, 0
2, 23568, Control_c, 0, 64, 0
2, 23588, Note_on_c, 0, 69, 0
2, 23962, Note_on_c, 0, 65, 45
2, 23968, Note_on_c, 0, 69, 43
2, 23972, Control_c, 0, 64, 16
2, 23986, Control_c, 0, 64, 33
2, 24001, Control_c, 0, 64, 42
2, 24017, Control_c, 0, 64, 49
2, 24031, Control_c, 0, 64, 55
2, 24046, Control_c, 0, 64, 60
2, 24062, Control_c, 0, 64, 63
2, 24077, Control_c, 0, 64, 65
2, 24093, Control_c, 0, 64, 71
2, 24107, Control_c, 0, 64, 85
2, 24122, Control_c, 0, 64, 111
2, 24138, Control_c, 0, 64, 127
2, 24238, Note_on_c, 0, 65, 0
2, 24238, Note_on_c, 0, 70, 55
2, 24239, Note_on_c, 0, 67, 56
2, 24271, Note_on_c, 0, 69, 0
2, 24329, Note_on_c, 0, 67, 0
2, 24518, Note_on_c, 0, 70, 0
2, 24530, Note_on_c, 0, 72, 57
2, 24543, Note_on_c, 0, 69, 46
2, 24549, Control_c, 0, 64, 99
2, 24564, Control_c, 0, 64, 74
2, 24588, Control_c, 0, 64, 59
2, 24603, Control_c, 0, 64, 0
2, 24617, Note_on_c, 0, 63, 0
2, 24679, Control_c, 0, 64, 48
2, 24694, Control_c, 0, 64, 60
2, 24709, Control_c, 0, 64, 65
2, 24724, Control_c, 0, 64, 72
2, 24740, Control_c, 0, 64, 106
2, 24754, Control_c, 0, 64, 127
2, 24769, Note_on_c, 0, 72, 0
2, 25097, Note_on_c, 0, 72, 62
2, 25105, Note_on_c, 0, 63, 52
2, 25360, Note_on_c, 0, 73, 70
2, 25386, Note_on_c, 0, 61, 57
2, 25425, Note_on_c, 0, 72, 0
2, 25518, Note_on_c, 0, 63, 0
2, 25521, Note_on_c, 0, 69, 0
2, 25672, Note_on_c, 0, 75, 72
2, 25699, Note_on_c, 0, 60, 48
2, 25705, Control_c, 0, 64, 86
2, 25710, Note_on_c, 0, 61, 0
2, 25711, Note_on_c, 0, 73, 0
2, 25720, Control_c, 0, 64, 65
2, 25736, Control_c, 0, 64, 26
2, 25751, Control_c, 0, 64, 0
2, 25842, Control_c, 0, 64, 47
2, 25858, Control_c, 0, 64, 61
2, 25873, Control_c, 0, 64, 71
2, 25888, Control_c, 0, 64, 96
2, 25904, Control_c, 0, 64, 127
2, 25946, Note_on_c, 0, 60, 0
2, 26220, Note_on_c, 0, 60, 58
2, 26230, Note_on_c, 0, 72, 65
2, 26234, Note_on_c, 0, 69, 59
2, 26244, Control_c, 0, 64, 92
2, 26260, Control_c, 0, 64, 71
2, 26260, Note_on_c, 0, 75, 0
2, 26275, Control_c, 0, 64, 59
2, 26290, Control_c, 0, 64, 51
2, 26305, Control_c, 0, 64, 57
2, 26320, Control_c, 0, 64, 62
2, 26324, Note_on_c, 0, 69, 0
2, 26336, Control_c, 0, 64, 66
2, 26350, Control_c, 0, 64, 76
2, 26365, Control_c, 0, 64, 105
2, 26381, Control_c, 0, 64, 127
2, 26497, Note_on_c, 0, 70, 71
2, 26499, Note_on_c, 0, 73, 77
2, 26501, Note_on_c, 0, 58, 59
2, 26518, Note_on_c, 0, 72, 0
2, 26693, Note_on_c, 0, 60, 0
2, 26819, Note_on_c, 0, 70, 0
2, 26820, Note_on_c, 0, 72, 71
2, 26821, Note_on_c, 0, 57, 58
2, 26824, Note_on_c, 0, 75, 72
2, 26861, Note_on_c, 0, 73, 0
2, 26868, Control_c, 0, 64, 86
2, 26892, Control_c, 0, 64, 64
2, 26907, Control_c, 0, 64, 0
2, 26935, Note_on_c, 0, 58, 0
2, 27013, Control_c, 0, 64, 50
2, 27028, Control_c, 0, 64, 63
2, 27043, Control_c, 0, 64, 72
2, 27059, Control_c, 0, 64, 110
2, 27073, Control_c, 0, 64, 127
2, 27397, Note_on_c, 0, 69, 66
2, 27405, Note_on_c, 0, 55, 64
2, 27423, Control_c, 0, 64, 111
2, 27429, Note_on_c, 0, 72, 0
2, 27438, Control_c, 0, 64, 73
2, 27454, Control_c, 0, 64, 50
2, 27461, Note_on_c, 0, 57, 0
2, 27469, Control_c, 0, 64, 0
2, 27515, Control_c, 0, 64, 41
2, 27530, Control_c, 0, 64, 63
2, 27546, Control_c, 0, 64, 73
2, 27561, Control_c, 0, 64, 127
2, 27694, Note_on_c, 0, 53, 73
2, 27718, Note_on_c, 0, 55, 0
2, 27845, Note_on_c, 0, 53, 0
2, 28080, Note_on_c, 0, 65, 72
2, 28088, Note_on_c, 0, 58, 63
2, 28146, Control_c, 0, 64, 105
2, 28161, Control_c, 0, 64, 73
2, 28177, Control_c, 0, 64, 50
2, 28191, Control_c, 0, 64, 0
2, 28225, Note_on_c, 0, 69, 0
2, 28230, Note_on_c, 0, 77, 0
2, 28313, Control_c, 0, 64, 25
2, 28329, Control_c, 0, 64, 53
2, 28344, Control_c, 0, 64, 62
2, 28359, Control_c, 0, 64, 67
2, 28375, Control_c, 0, 64, 79
2, 28390, Control_c, 0, 64, 127
2, 28479, Note_on_c, 0, 75, 0
2, 28605, Note_on_c, 0, 77, 73
2, 28612, Note_on_c, 0, 73, 67
2, 28885, Note_on_c, 0, 75, 79
2, 28892, Note_on_c, 0, 72, 64
2, 28936, Note_on_c, 0, 73, 0
2, 28992, Note_on_c, 0, 77, 0
2, 29225, Note_on_c, 0, 73, 70
2, 29232, Note_on_c, 0, 70, 57
2, 29258, Control_c, 0, 64, 93
2, 29272, Control_c, 0, 64, 74
2, 29272, Note_on_c, 0, 72, 0
2, 29287, Control_c, 0, 64, 60
2, 29297, Note_on_c, 0, 75, 0
2, 29303, Control_c, 0, 64, 0
2, 29394, Control_c, 0, 64, 31
2, 29408, Control_c, 0, 64, 54
2, 29424, Control_c, 0, 64, 62
2, 29432, Note_on_c, 0, 65, 0
2, 29439, Control_c, 0, 64, 65
2, 29455, Control_c, 0, 64, 70
2, 29470, Control_c, 0, 64, 81
2, 29484, Control_c, 0, 64, 102
2, 29500, Control_c, 0, 64, 127
2, 29816, Note_on_c, 0, 66, 41
2, 29825, Note_on_c, 0, 75, 53
2, 29829, Note_on_c, 0, 69, 43
2, 29833, Note_on_c, 0, 70, 0
2, 29834, Control_c, 0, 64, 92
2, 29849, Control_c, 0, 64, 70
2, 29865, Control_c, 0, 64, 56
2, 29869, Note_on_c, 0, 73, 0
2, 29879, Control_c, 0, 64, 0
2, 29964, Control_c, 0, 64, 24
2, 29980, Control_c, 0, 64, 50
2, 29995, Control_c, 0, 64, 59
2, 30010, Control_c, 0, 64, 63
2, 30025, Control_c, 0, 64, 67
2, 30040, Control_c, 0, 64, 71
2, 30056, Control_c, 0, 64, 84
2, 30071, Control_c, 0, 64, 109
2, 30086, Control_c, 0, 64, 127
2, 30116, Note_on_c, 0, 75, 0
2, 30118, Note_on_c, 0, 72, 50
2, 30137, Note_on_c, 0, 63, 37
2, 30155, Note_on_c, 0, 69, 0
2, 30180, Note_on_c, 0, 66, 0
2, 30466, Note_on_c, 0, 72, 0
2, 30470, Note_on_c, 0, 65, 36
2, 30500, Note_on_c, 0, 73, 48
2, 30508, Note_on_c, 0, 70, 42
2, 30511, Control_c, 0, 64, 112
2, 30519, Note_on_c, 0, 63, 0
2, 30526, Control_c, 0, 64, 91
2, 30542, Control_c, 0, 64, 78
2, 30557, Control_c, 0, 64, 67
2, 30573, Control_c, 0, 64, 55
2, 30587, Control_c, 0, 64, 0
2, 30722, Control_c, 0, 64, 31
2, 30745, Control_c, 0, 64, 45
2, 30760, Control_c, 0, 64, 52
2, 30776, Control_c, 0, 64, 57
2, 30781, Note_on_c, 0, 70, 0
2, 30792, Control_c, 0, 64, 60
2, 30806, Control_c, 0, 64, 63
2, 30822, Control_c, 0, 64, 65
2, 30837, Control_c, 0, 64, 68
2, 30853, Control_c, 0, 64, 71
2, 30868, Control_c, 0, 64, 75
2, 30882, Control_c, 0, 64, 80
2, 30898, Control_c, 0, 64, 86
2, 30913, Control_c, 0, 64, 96
2, 30928, Control_c, 0, 64, 111
2, 30944, Control_c, 0, 64, 127
2, 31087, Note_on_c, 0, 70, 45
2, 31093, Note_on_c, 0, 61, 52
2, 31139, Note_on_c, 0, 73, 0
2, 31223, Note_on_c, 0, 58, 0
2, 31334, Note_on_c, 0, 65, 0
2, 31351, Note_on_c, 0, 72, 58
2, 31360, Note_on_c, 0, 60, 68
2, 31421, Note_on_c, 0, 70, 0
2, 31489, Note_on_c, 0, 61, 0
2, 31663, Note_on_c, 0, 58, 50
2, 31667, Note_on_c, 0, 73, 66
2, 31694, Note_on_c, 0, 60, 0
2, 31696, Note_on_c, 0, 72, 0
2, 31698, Control_c, 0, 64, 92
2, 31713, Control_c, 0, 64, 72
2, 31727, Control_c, 0, 64, 58
2, 31743, Control_c, 0, 64, 0
2, 31819, Control_c, 0, 64, 40
2, 31834, Control_c, 0, 64, 56
2, 31849, Control_c, 0, 64, 63
2, 31864, Control_c, 0, 64, 68
2, 31879, Control_c, 0, 64, 80
2, 31894, Note_on_c, 0, 73, 0
2, 31895, Control_c, 0, 64, 127
2, 32239, Note_on_c, 0, 56, 41
2, 32242, Note_on_c, 0, 70, 54
2, 32242, Note_on_c, 0, 73, 58
2, 32244, Note_on_c, 0, 65, 51
2, 32281, Control_c, 0, 64, 88
2, 32297, Control_c, 0, 64, 70
2, 32311, Note_on_c, 0, 58, 0
2, 32312, Control_c, 0, 64, 57
2, 32327, Control_c, 0, 64, 0
2, 32374, Control_c, 0, 64, 44
2, 32389, Control_c, 0, 64, 58
2, 32403, Control_c, 0, 64, 63
2, 32419, Control_c, 0, 64, 68
2, 32435, Control_c, 0, 64, 79
2, 32437, Note_on_c, 0, 65, 0
2, 32449, Control_c, 0, 64, 111
2, 32465, Control_c, 0, 64, 127
2, 32509, Note_on_c, 0, 70, 0
2, 32554, Note_on_c, 0, 73, 0
2, 32810, Note_on_c, 0, 55, 43
2, 32814, Note_on_c, 0, 70, 59
2, 32815, Note_on_c, 0, 73, 61
2, 32818, Note_on_c, 0, 63, 51
2, 32845, Control_c, 0, 64, 105
2, 32850, Note_on_c, 0, 56, 0
2, 32860, Control_c, 0, 64, 78
2, 32875, Control_c, 0, 64, 65
2, 32890, Control_c, 0, 64, 44
2, 32905, Control_c, 0, 64, 0
2, 32936, Control_c, 0, 64, 35
2, 32951, Control_c, 0, 64, 53
2, 32966, Control_c, 0, 64, 60
2, 32982, Control_c, 0, 64, 64
2, 32997, Control_c, 0, 64, 69
2, 33013, Control_c, 0, 64, 84
2, 33027, Control_c, 0, 64, 127
2, 33073, Note_on_c, 0, 73, 0
2, 33152, Note_on_c, 0, 63, 0
2, 33185, Note_on_c, 0, 70, 0
2, 33355, Note_on_c, 0, 56, 52
2, 33364, Note_on_c, 0, 72, 56
2, 33366, Note_on_c, 0, 68, 56
2, 33369, Control_c, 0, 64, 111
2, 33374, Note_on_c, 0, 63, 48
2, 33385, Control_c, 0, 64, 92
2, 33400, Control_c, 0, 64, 80
2, 33416, Control_c, 0, 64, 68
2, 33419, Note_on_c, 0, 55, 0
2, 33430, Control_c, 0, 64, 53
2, 33445, Control_c, 0, 64, 0
2, 33644, Note_on_c, 0, 70, 63
2, 33645, Note_on_c, 0, 55, 47
2, 33682, Note_on_c, 0, 72, 0
2, 33724, Note_on_c, 0, 68, 0
2, 33729, Note_on_c, 0, 56, 0
2, 33923, Note_on_c, 0, 72, 66
2, 33935, Note_on_c, 0, 53, 53
2, 33945, Note_on_c, 0, 55, 0
2, 33954, Note_on_c, 0, 70, 0
2, 34016, Control_c, 0, 64, 49
2, 34030, Control_c, 0, 64, 63
2, 34045, Control_c, 0, 64, 65
2, 34061, Control_c, 0, 64, 68
2, 34069, Note_on_c, 0, 63, 0
2, 34076, Control_c, 0, 64, 78
2, 34092, Control_c, 0, 64, 104
2, 34107, Control_c, 0, 64, 127
2, 34145, Note_on_c, 0, 72, 0
2, 34471, Note_on_c, 0, 72, 58
2, 34474, Note_on_c, 0, 51, 40
2, 34474, Note_on_c, 0, 65, 51
2, 34476, Note_on_c, 0, 68, 55
2, 34486, Control_c, 0, 64, 81
2, 34486, Note_on_c, 0, 53, 0
2, 34502, Control_c, 0, 64, 63
2, 34516, Control_c, 0, 64, 40
2, 34532, Control_c, 0, 64, 0
2, 34563, Control_c, 0, 64, 32
2, 34587, Control_c, 0, 64, 51
2, 34601, Control_c, 0, 64, 61
2, 34617, Control_c, 0, 64, 67
2, 34632, Control_c, 0, 64, 86
2, 34647, Control_c, 0, 64, 127
2, 34675, Note_on_c, 0, 68, 0
2, 34683, Note_on_c, 0, 65, 0
2, 34709, Note_on_c, 0, 72, 0
2, 35038, Note_on_c, 0, 72, 56
2, 35043, Note_on_c, 0, 65, 49
2, 35046, Note_on_c, 0, 50, 47
2, 35046, Note_on_c, 0, 68, 54
2, 35058, Control_c, 0, 64, 108
2, 35073, Control_c, 0, 64, 78
2, 35076, Note_on_c, 0, 51, 0
2, 35088, Control_c, 0, 64, 64
2, 35104, Control_c, 0, 64, 45
2, 35119, Control_c, 0, 64, 0
2, 35149, Control_c, 0, 64, 31
2, 35164, Control_c, 0, 64, 49
2, 35180, Control_c, 0, 64, 57
2, 35195, Control_c, 0, 64, 63
2, 35210, Control_c, 0, 64, 69
2, 35226, Control_c, 0, 64, 81
2, 35240, Control_c, 0, 64, 127
2, 35275, Note_on_c, 0, 72, 0
2, 35299, Note_on_c, 0, 65, 0
2, 35304, Note_on_c, 0, 68, 0
2, 35595, Note_on_c, 0, 55, 45
2, 35600, Note_on_c, 0, 65, 51
2, 35601, Note_on_c, 0, 70, 60
2, 35603, Note_on_c, 0, 67, 59
2, 35781, Control_c, 0, 64, 115
2, 35795, Control_c, 0, 64, 108
2, 35810, Control_c, 0, 64, 103
2, 35826, Control_c, 0, 64, 100
2, 35841, Control_c, 0, 64, 96
2, 35857, Control_c, 0, 64, 92
2, 35869, Note_on_c, 0, 68, 72
2, 35871, Control_c, 0, 64, 87
2, 35871, Note_on_c, 0, 53, 58
2, 35886, Control_c, 0, 64, 83
2, 35902, Control_c, 0, 64, 78
2, 35917, Control_c, 0, 64, 74
2, 35926, Note_on_c, 0, 50, 0
2, 35933, Control_c, 0, 64, 69
2, 35947, Control_c, 0, 64, 65
2, 35962, Control_c, 0, 64, 62
2, 35962, Note_on_c, 0, 70, 0
2, 35978, Control_c, 0, 64, 55
2, 35986, Note_on_c, 0, 55, 0
2, 35993, Control_c, 0, 64, 48
2, 36008, Control_c, 0, 64, 41
2, 36009, Note_on_c, 0, 67, 0
2, 36024, Control_c, 0, 64, 34
2, 36039, Control_c, 0, 64, 25
2, 36055, Control_c, 0, 64, 0
2, 36170, Note_on_c, 0, 52, 40
2, 36170, Note_on_c, 0, 70, 69
2, 36204, Note_on_c, 0, 68, 0
2, 36230, Note_on_c, 0, 53, 0
2, 36243, Note_on_c, 0, 65, 0
2, 36351, Control_c, 0, 64, 47
2, 36365, Control_c, 0, 64, 60
2, 36381, Control_c, 0, 64, 65
2, 36396, Control_c, 0, 64, 74
2, 36412, Control_c, 0, 64, 90
2, 36417, Note_on_c, 0, 70, 0
2, 36426, Control_c, 0, 64, 127
2, 36734, Note_on_c, 0, 55, 39
2, 36734, Note_on_c, 0, 67, 51
2, 36735, Note_on_c, 0, 65, 47
2, 36736, Note_on_c, 0, 70, 55
2, 36746, Control_c, 0, 64, 100
2, 36761, Control_c, 0, 64, 77
2, 36777, Control_c, 0, 64, 65
2, 36791, Note_on_c, 0, 52, 0
2, 36792, Control_c, 0, 64, 55
2, 36806, Control_c, 0, 64, 41
2, 36822, Control_c, 0, 64, 41
2, 36837, Control_c, 0, 64, 51
2, 36853, Control_c, 0, 64, 59
2, 36867, Control_c, 0, 64, 63
2, 36889, Control_c, 0, 64, 66
2, 36905, Control_c, 0, 64, 72
2, 36920, Control_c, 0, 64, 86
2, 36935, Control_c, 0, 64, 109
2, 36943, Note_on_c, 0, 65, 0
2, 36950, Control_c, 0, 64, 127
2, 36963, Note_on_c, 0, 67, 0
2, 36970, Note_on_c, 0, 70, 0
2, 37315, Note_on_c, 0, 64, 52
2, 37318, Note_on_c, 0, 70, 52
2, 37320, Note_on_c, 0, 67, 53
2, 37326, Note_on_c, 0, 48, 44
2, 37361, Control_c, 0, 64, 95
2, 37377, Control_c, 0, 64, 78
2, 37392, Control_c, 0, 64, 67
2, 37407, Control_c, 0, 64, 60
2, 37423, Control_c, 0, 64, 52
2, 37453, Control_c, 0, 64, 58
2, 37468, Control_c, 0, 64, 62
2, 37477, Note_on_c, 0, 55, 0
2, 37482, Control_c, 0, 64, 64
2, 37498, Control_c, 0, 64, 68
2, 37513, Control_c, 0, 64, 74
2, 37528, Control_c, 0, 64, 86
2, 37537, Note_on_c, 0, 67, 0
2, 37544, Control_c, 0, 64, 127
2, 37595, Note_on_c, 0, 70, 0
2, 37604, Note_on_c, 0, 64, 0
2, 37876, Note_on_c, 0, 68, 60
2, 37878, Note_on_c, 0, 65, 58
2, 37879, Note_on_c, 0, 53, 57
2, 37888, Note_on_c, 0, 60, 52
2, 38105, Note_on_c, 0, 48, 0
2, 38128, Control_c, 0, 64, 114
2, 38144, Control_c, 0, 64, 107
2, 38156, Note_on_c, 0, 67, 68
2, 38160, Control_c, 0, 64, 102
2, 38163, Note_on_c, 0, 51, 66
2, 38176, Control_c, 0, 64, 97
2, 38178, Note_on_c, 0, 68, 0
2, 38191, Control_c, 0, 64, 93
2, 38205, Control_c, 0, 64, 89
2, 38221, Control_c, 0, 64, 86
2, 38233, Note_on_c, 0, 65, 0
2, 38236, Control_c, 0, 64, 83
2, 38252, Control_c, 0, 64, 80
2, 38267, Control_c, 0, 64, 76
2, 38281, Control_c, 0, 64, 73
2, 38297, Control_c, 0, 64, 69
2, 38312, Control_c, 0, 64, 65
2, 38314, Note_on_c, 0, 53, 0
2, 38326, Control_c, 0, 64, 61
2, 38342, Control_c, 0, 64, 56
2, 38357, Control_c, 0, 64, 49
2, 38373, Control_c, 0, 64, 45
2, 38388, Control_c, 0, 64, 39
2, 38404, Control_c, 0, 64, 28
2, 38427, Control_c, 0, 64, 0
2, 38464, Note_on_c, 0, 49, 63
2, 38469, Note_on_c, 0, 68, 72
2, 38497, Note_on_c, 0, 67, 0
2, 38517, Note_on_c, 0, 60, 0
2, 38567, Note_on_c, 0, 51, 0
2, 38594, Control_c, 0, 64, 15
2, 38609, Control_c, 0, 64, 46
2, 38624, Control_c, 0, 64, 58
2, 38639, Control_c, 0, 64, 62
2, 38655, Control_c, 0, 64, 66
2, 38670, Control_c, 0, 64, 72
2, 38685, Control_c, 0, 64, 87
2, 38700, Control_c, 0, 64, 127
2, 38762, Note_on_c, 0, 68, 0
2, 39026, Note_on_c, 0, 48, 63
2, 39030, Note_on_c, 0, 68, 68
2, 39031, Note_on_c, 0, 65, 69
2, 39035, Note_on_c, 0, 60, 64
2, 39084, Note_on_c, 0, 49, 0
2, 39097, Control_c, 0, 64, 87
2, 39112, Control_c, 0, 64, 69
2, 39126, Control_c, 0, 64, 58
2, 39142, Control_c, 0, 64, 26
2, 39157, Control_c, 0, 64, 8
2, 39173, Control_c, 0, 64, 30
2, 39194, Control_c, 0, 64, 46
2, 39209, Control_c, 0, 64, 55
2, 39225, Control_c, 0, 64, 60
2, 39240, Control_c, 0, 64, 64
2, 39256, Control_c, 0, 64, 72
2, 39271, Control_c, 0, 64, 97
2, 39286, Control_c, 0, 64, 127
2, 39297, Note_on_c, 0, 60, 0
2, 39364, Note_on_c, 0, 68, 0
2, 39381, Note_on_c, 0, 65, 0
2, 39627, Note_on_c, 0, 65, 68
2, 39629, Note_on_c, 0, 68, 71
2, 39630, Note_on_c, 0, 61, 63
2, 39631, Note_on_c, 0, 46, 62
2, 39666, Note_on_c, 0, 48, 0
2, 39680, Control_c, 0, 64, 97
2, 39696, Control_c, 0, 64, 71
2, 39711, Control_c, 0, 64, 52
2, 39726, Control_c, 0, 64, 0
2, 39803, Control_c, 0, 64, 15
2, 39818, Control_c, 0, 64, 45
2, 39833, Control_c, 0, 64, 56
2, 39848, Control_c, 0, 64, 62
2, 39864, Control_c, 0, 64, 66
2, 39879, Control_c, 0, 64, 72
2, 39880, Note_on_c, 0, 65, 0
2, 39895, Control_c, 0, 64, 92
2, 39910, Control_c, 0, 64, 127
2, 39936, Note_on_c, 0, 61, 0
2, 40023, Note_on_c, 0, 46, 0
2, 40206, Control_c, 0, 64, 114
2, 40216, Note_on_c, 0, 58, 65
2, 40217, Note_on_c, 0, 67, 72
2, 40219, Note_on_c, 0, 46, 57
2, 40222, Control_c, 0, 64, 83
2, 40223, Note_on_c, 0, 61, 62
2, 40236, Control_c, 0, 64, 67
2, 40249, Note_on_c, 0, 68, 0
2, 40252, Control_c, 0, 64, 50
2, 40267, Control_c, 0, 64, 0
2, 40501, Note_on_c, 0, 68, 74
2, 40574, Note_on_c, 0, 67, 0
2, 40614, Note_on_c, 0, 46, 0
2, 40668, Note_on_c, 0, 58, 0
2, 40825, Note_on_c, 0, 46, 50
2, 40827, Note_on_c, 0, 70, 65
2, 40917, Note_on_c, 0, 68, 0
2, 40958, Note_on_c, 0, 61, 0
2, 41213, Note_on_c, 0, 46, 0
2, 41414, Note_on_c, 0, 58, 46
2, 41414, Note_on_c, 0, 67, 57
2, 41423, Note_on_c, 0, 61, 47
2, 41435, Note_on_c, 0, 46, 15
2, 41444, Control_c, 0, 64, 15
2, 41460, Control_c, 0, 64, 41
2, 41483, Control_c, 0, 64, 55
2, 41499, Control_c, 0, 64, 61
2, 41513, Control_c, 0, 64, 65
2, 41528, Control_c, 0, 64, 71
2, 41544, Control_c, 0, 64, 83
2, 41559, Control_c, 0, 64, 110
2, 41569, Note_on_c, 0, 70, 0
2, 41575, Control_c, 0, 64, 127
2, 41640, Note_on_c, 0, 46, 0
2, 41659, Note_on_c, 0, 58, 0
2, 41725, Note_on_c, 0, 61, 0
2, 42060, Note_on_c, 0, 67, 0
2, 42082, Note_on_c, 0, 64, 51
2, 42083, Note_on_c, 0, 55, 38
2, 42093, Note_on_c, 0, 60, 42
2, 42098, Note_on_c, 0, 46, 38
2, 42106, Control_c, 0, 64, 90
2, 42120, Control_c, 0, 64, 70
2, 42136, Control_c, 0, 64, 57
2, 42151, Control_c, 0, 64, 0
2, 42196, Control_c, 0, 64, 21
2, 42212, Control_c, 0, 64, 45
2, 42227, Control_c, 0, 64, 54
2, 42252, Control_c, 0, 64, 60
2, 42267, Control_c, 0, 64, 64
2, 42282, Control_c, 0, 64, 68
2, 42298, Control_c, 0, 64, 84
2, 42301, Note_on_c, 0, 55, 0
2, 42312, Control_c, 0, 64, 127
2, 42406, Note_on_c, 0, 60, 0
2, 42446, Note_on_c, 0, 64, 0
2, 42557, Note_on_c, 0, 46, 0
2, 42637, Note_on_c, 0, 56, 47
2, 42639, Note_on_c, 0, 72, 71
2, 42643, Note_on_c, 0, 44, 39
2, 42648, Note_on_c, 0, 65, 55
2, 42662, Control_c, 0, 64, 111
2, 42676, Control_c, 0, 64, 80
2, 42691, Control_c, 0, 64, 65
2, 42707, Control_c, 0, 64, 49
2, 42722, Control_c, 0, 64, 0
2, 42767, Control_c, 0, 64, 33
2, 42783, Control_c, 0, 64, 50
2, 42798, Control_c, 0, 64, 58
2, 42814, Control_c, 0, 64, 63
2, 42829, Control_c, 0, 64, 68
2, 42843, Control_c, 0, 64, 89
2, 42859, Control_c, 0, 64, 127
2, 42923, Note_on_c, 0, 64, 66
2, 42962, Note_on_c, 0, 65, 0
2, 43219, Note_on_c, 0, 49, 46
2, 43221, Note_on_c, 0, 65, 61
2, 43247, Control_c, 0, 64, 91
2, 43253, Note_on_c, 0, 64, 0
2, 43263, Control_c, 0, 64, 71
2, 43277, Control_c, 0, 64, 56
2, 43288, Note_on_c, 0, 56, 0
2, 43293, Control_c, 0, 64, 0
2, 43294, Note_on_c, 0, 44, 0
2, 43339, Control_c, 0, 64, 24
2, 43353, Control_c, 0, 64, 48
2, 43368, Control_c, 0, 64, 58
2, 43382, Note_on_c, 0, 72, 0
2, 43384, Control_c, 0, 64, 64
2, 43398, Control_c, 0, 64, 72
2, 43414, Control_c, 0, 64, 94
2, 43429, Control_c, 0, 64, 127
2, 43545, Note_on_c, 0, 65, 0
2, 43583, Note_on_c, 0, 49, 0
2, 43765, Note_on_c, 0, 70, 66
2, 43768, Note_on_c, 0, 55, 44
2, 43769, Note_on_c, 0, 65, 62
2, 43789, Note_on_c, 0, 49, 29
2, 43816, Control_c, 0, 64, 97
2, 43831, Control_c, 0, 64, 74
2, 43846, Control_c, 0, 64, 62
2, 43862, Control_c, 0, 64, 45
2, 43877, Control_c, 0, 64, 37
2, 43894, Control_c, 0, 64, 50
2, 43909, Control_c, 0, 64, 61
2, 43923, Control_c, 0, 64, 66
2, 43939, Control_c, 0, 64, 78
2, 43954, Control_c, 0, 64, 127
2, 44051, Note_on_c, 0, 68, 72
2, 44057, Note_on_c, 0, 53, 58
2, 44146, Note_on_c, 0, 70, 0
2, 44148, Note_on_c, 0, 55, 0
2, 44150, Note_on_c, 0, 65, 0
2, 44190, Note_on_c, 0, 49, 0
2, 44348, Note_on_c, 0, 70, 74
2, 44351, Control_c, 0, 64, 101
2, 44354, Note_on_c, 0, 55, 51
2, 44354, Note_on_c, 0, 65, 64
2, 44360, Note_on_c, 0, 49, 39
2, 44367, Control_c, 0, 64, 80
2, 44381, Control_c, 0, 64, 65
2, 44386, Note_on_c, 0, 53, 0
2, 44389, Note_on_c, 0, 68, 0
2, 44396, Control_c, 0, 64, 29
2, 44412, Control_c, 0, 64, 0
2, 44488, Control_c, 0, 64, 38
2, 44503, Control_c, 0, 64, 59
2, 44518, Control_c, 0, 64, 66
2, 44533, Control_c, 0, 64, 85
2, 44548, Control_c, 0, 64, 127
2, 44582, Note_on_c, 0, 70, 0
2, 44601, Note_on_c, 0, 55, 0
2, 44691, Note_on_c, 0, 65, 0
2, 44883, Note_on_c, 0, 55, 52
2, 44886, Note_on_c, 0, 64, 71
2, 44887, Note_on_c, 0, 70, 70
2, 44892, Note_on_c, 0, 48, 51
2, 44921, Control_c, 0, 64, 85
2, 44935, Note_on_c, 0, 49, 0
2, 44937, Control_c, 0, 64, 64
2, 44952, Control_c, 0, 64, 0
2, 45013, Control_c, 0, 64, 8
2, 45027, Control_c, 0, 64, 56
2, 45042, Control_c, 0, 64, 65
2, 45058, Control_c, 0, 64, 77
2, 45073, Control_c, 0, 64, 127
2, 45160, Note_on_c, 0, 46, 62
2, 45162, Note_on_c, 0, 62, 70
2, 45196, Note_on_c, 0, 48, 0
2, 45201, Note_on_c, 0, 64, 0
2, 45228, Note_on_c, 0, 55, 0
2, 45263, Note_on_c, 0, 46, 0
2, 45473, Note_on_c, 0, 55, 51
2, 45474, Note_on_c, 0, 48, 45
2, 45478, Note_on_c, 0, 64, 70
2, 45492, Control_c, 0, 64, 73
2, 45507, Control_c, 0, 64, 49
2, 45522, Control_c, 0, 64, 0
2, 45522, Note_on_c, 0, 62, 0
2, 45614, Control_c, 0, 64, 52
2, 45629, Control_c, 0, 64, 64
2, 45644, Control_c, 0, 64, 72
2, 45660, Control_c, 0, 64, 98
2, 45666, Note_on_c, 0, 55, 0
2, 45675, Control_c, 0, 64, 127
2, 45683, Note_on_c, 0, 70, 0
2, 45798, Note_on_c, 0, 64, 0
2, 45829, Note_on_c, 0, 48, 0
2, 46017, Note_on_c, 0, 60, 57
2, 46023, Note_on_c, 0, 48, 40
2, 46023, Note_on_c, 0, 68, 61
2, 46027, Note_on_c, 0, 64, 62
2, 46069, Control_c, 0, 64, 81
2, 46084, Control_c, 0, 64, 63
2, 46108, Control_c, 0, 64, 0
2, 46169, Control_c, 0, 64, 36
2, 46184, Control_c, 0, 64, 60
2, 46199, Control_c, 0, 64, 67
2, 46215, Control_c, 0, 64, 78
2, 46229, Control_c, 0, 64, 127
2, 46292, Note_on_c, 0, 67, 73
2, 46367, Note_on_c, 0, 68, 0
2, 46387, Note_on_c, 0, 64, 0
2, 46397, Note_on_c, 0, 48, 0
2, 46419, Note_on_c, 0, 60, 0
2, 46609, Note_on_c, 0, 60, 43
2, 46618, Note_on_c, 0, 68, 66
2, 46625, Note_on_c, 0, 64, 62
2, 46626, Control_c, 0, 64, 81
2, 46641, Control_c, 0, 64, 63
2, 46650, Note_on_c, 0, 67, 0
2, 46654, Note_on_c, 0, 48, 33
2, 46656, Control_c, 0, 64, 0
2, 46747, Control_c, 0, 64, 41
2, 46762, Control_c, 0, 64, 58
2, 46778, Control_c, 0, 64, 63
2, 46792, Control_c, 0, 64, 67
2, 46808, Control_c, 0, 64, 77
2, 46819, Note_on_c, 0, 60, 0
2, 46823, Control_c, 0, 64, 100
2, 46826, Note_on_c, 0, 68, 0
2, 46838, Control_c, 0, 64, 127
2, 46873, Note_on_c, 0, 64, 0
2, 46880, Note_on_c, 0, 48, 0
2, 47169, Note_on_c, 0, 65, 59
2, 47172, Note_on_c, 0, 41, 65
2, 47175, Note_on_c, 0, 68, 59
2, 47180, Note_on_c, 0, 60, 46
2, 47212, Control_c, 0, 64, 112
2, 47226, Control_c, 0, 64, 96
2, 47241, Control_c, 0, 64, 86
2, 47257, Control_c, 0, 64, 80
2, 47272, Control_c, 0, 64, 74
2, 47288, Control_c, 0, 64, 69
2, 47302, Control_c, 0, 64, 64
2, 47317, Control_c, 0, 64, 59
2, 47333, Control_c, 0, 64, 48
2, 47347, Control_c, 0, 64, 37
2, 47362, Control_c, 0, 64, 31
2, 47378, Control_c, 0, 64, 28
2, 47393, Control_c, 0, 64, 21
2, 47409, Control_c, 0, 64, 0
2, 47454, Note_on_c, 0, 63, 66
2, 47542, Note_on_c, 0, 65, 0
2, 47788, Note_on_c, 0, 61, 54
2, 47790, Note_on_c, 0, 46, 41
2, 47823, Note_on_c, 0, 63, 0
2, 47832, Note_on_c, 0, 60, 0
2, 47878, Note_on_c, 0, 41, 0
2, 47932, Control_c, 0, 64, 56
2, 47947, Control_c, 0, 64, 61
2, 47961, Control_c, 0, 64, 63
2, 47970, Note_on_c, 0, 68, 0
2, 47977, Control_c, 0, 64, 67
2, 47993, Control_c, 0, 64, 75
2, 48009, Control_c, 0, 64, 93
2, 48024, Control_c, 0, 64, 127
2, 48136, Note_on_c, 0, 61, 0
2, 48149, Note_on_c, 0, 46, 0
2, 48323, Note_on_c, 0, 58, 60
2, 48327, Note_on_c, 0, 66, 65
2, 48336, Note_on_c, 0, 61, 56
2, 48343, Note_on_c, 0, 46, 44
2, 48358, Control_c, 0, 64, 119
2, 48374, Control_c, 0, 64, 87
2, 48390, Control_c, 0, 64, 74
2, 48412, Control_c, 0, 64, 68
2, 48427, Control_c, 0, 64, 67
2, 48442, Control_c, 0, 64, 68
2, 48458, Control_c, 0, 64, 72
2, 48473, Control_c, 0, 64, 79
2, 48488, Control_c, 0, 64, 87
2, 48492, Note_on_c, 0, 58, 0
2, 48503, Control_c, 0, 64, 104
2, 48518, Control_c, 0, 64, 127
2, 48601, Note_on_c, 0, 65, 76
2, 48614, Note_on_c, 0, 57, 63
2, 48668, Note_on_c, 0, 66, 0
2, 48702, Note_on_c, 0, 57, 0
2, 48704, Note_on_c, 0, 61, 0
2, 48728, Note_on_c, 0, 46, 0
2, 48901, Note_on_c, 0, 58, 60
2, 48910, Note_on_c, 0, 66, 77
2, 48916, Note_on_c, 0, 61, 61
2, 48919, Note_on_c, 0, 46, 48
2, 48939, Note_on_c, 0, 65, 0
2, 48960, Control_c, 0, 64, 72
2, 48976, Control_c, 0, 64, 0
2, 49066, Control_c, 0, 64, 17
2, 49081, Control_c, 0, 64, 58
2, 49097, Control_c, 0, 64, 66
2, 49111, Control_c, 0, 64, 80
2, 49127, Control_c, 0, 64, 127
2, 49134, Note_on_c, 0, 61, 0
2, 49151, Note_on_c, 0, 58, 0
2, 49209, Note_on_c, 0, 46, 0
2, 49211, Note_on_c, 0, 66, 0
2, 49454, Note_on_c, 0, 54, 68
2, 49460, Note_on_c, 0, 73, 82
2, 49463, Note_on_c, 0, 46, 56
2, 49464, Note_on_c, 0, 70, 74
2, 49484, Control_c, 0, 64, 112
2, 49500, Control_c, 0, 64, 74
2, 49515, Control_c, 0, 64, 54
2, 49530, Control_c, 0, 64, 0
2, 49575, Control_c, 0, 64, 24
2, 49590, Control_c, 0, 64, 48
2, 49606, Control_c, 0, 64, 58
2, 49621, Control_c, 0, 64, 65
2, 49637, Control_c, 0, 64, 80
2, 49653, Control_c, 0, 64, 127
2, 49718, Note_on_c, 0, 53, 73
2, 49739, Note_on_c, 0, 69, 77
2, 49756, Note_on_c, 0, 70, 0
2, 49766, Note_on_c, 0, 54, 0
2, 49828, Note_on_c, 0, 46, 0
2, 50030, Note_on_c, 0, 54, 69
2, 50037, Control_c, 0, 64, 95
2, 50039, Note_on_c, 0, 70, 76
2, 50050, Note_on_c, 0, 46, 51
2, 50053, Control_c, 0, 64, 67
2, 50068, Control_c, 0, 64, 0
2, 50072, Note_on_c, 0, 69, 0
2, 50074, Note_on_c, 0, 53, 0
2, 50175, Control_c, 0, 64, 41
2, 50190, Control_c, 0, 64, 61
2, 50206, Control_c, 0, 64, 67
2, 50220, Control_c, 0, 64, 75
2, 50235, Control_c, 0, 64, 95
2, 50251, Control_c, 0, 64, 127
2, 50346, Note_on_c, 0, 73, 0
2, 50428, Note_on_c, 0, 46, 0
2, 50594, Note_on_c, 0, 46, 57
2, 50600, Note_on_c, 0, 72, 65
2, 50616, Control_c, 0, 64, 78
2, 50631, Control_c, 0, 64, 60
2, 50647, Control_c, 0, 64, 0
2, 50713, Note_on_c, 0, 70, 0
2, 50715, Control_c, 0, 64, 48
2, 50730, Control_c, 0, 64, 61
2, 50745, Control_c, 0, 64, 68
2, 50760, Control_c, 0, 64, 80
2, 50776, Control_c, 0, 64, 127
2, 50809, Note_on_c, 0, 54, 0
2, 50903, Note_on_c, 0, 46, 0
2, 50903, Note_on_c, 0, 70, 74
2, 50943, Note_on_c, 0, 72, 0
2, 51249, Note_on_c, 0, 76, 69
2, 51251, Note_on_c, 0, 46, 39
2, 51253, Note_on_c, 0, 55, 42
2, 51253, Note_on_c, 0, 72, 61
2, 51278, Control_c, 0, 64, 100
2, 51289, Note_on_c, 0, 70, 0
2, 51294, Control_c, 0, 64, 72
2, 51309, Control_c, 0, 64, 48
2, 51323, Control_c, 0, 64, 0
2, 51399, Control_c, 0, 64, 40
2, 51415, Control_c, 0, 64, 59
2, 51430, Control_c, 0, 64, 65
2, 51444, Control_c, 0, 64, 74
2, 51460, Control_c, 0, 64, 103
2, 51483, Control_c, 0, 64, 127
2, 51539, Note_on_c, 0, 55, 0
2, 51545, Note_on_c, 0, 76, 0
2, 51573, Note_on_c, 0, 72, 0
2, 51756, Note_on_c, 0, 46, 0
2, 51793, Note_on_c, 0, 56, 59
2, 51812, Note_on_c, 0, 44, 39
2, 51823, Note_on_c, 0, 65, 85
2, 51832, Note_on_c, 0, 72, 72
2, 51848, Control_c, 0, 64, 106
2, 51863, Control_c, 0, 64, 77
2, 51878, Control_c, 0, 64, 64
2, 51894, Control_c, 0, 64, 51
2, 51908, Control_c, 0, 64, 52
2, 51923, Control_c, 0, 64, 60
2, 51939, Control_c, 0, 64, 66
2, 51954, Control_c, 0, 64, 75
2, 51970, Control_c, 0, 64, 103
2, 51984, Control_c, 0, 64, 127
2, 51997, Note_on_c, 0, 65, 0
2, 52000, Note_on_c, 0, 56, 0
2, 52087, Note_on_c, 0, 67, 85
2, 52091, Note_on_c, 0, 55, 68
2, 52208, Note_on_c, 0, 55, 0
2, 52271, Note_on_c, 0, 67, 0
2, 52284, Note_on_c, 0, 44, 0
2, 52404, Note_on_c, 0, 53, 47
2, 52416, Note_on_c, 0, 49, 43
2, 52420, Note_on_c, 0, 77, 83
2, 52421, Note_on_c, 0, 68, 77
2, 52450, Note_on_c, 0, 72, 0
2, 52495, Control_c, 0, 64, 82
2, 52510, Control_c, 0, 64, 63
2, 52526, Control_c, 0, 64, 8
2, 52541, Control_c, 0, 64, 0
2, 52601, Control_c, 0, 64, 44
2, 52617, Control_c, 0, 64, 59
2, 52631, Control_c, 0, 64, 66
2, 52647, Control_c, 0, 64, 77
2, 52662, Control_c, 0, 64, 112
2, 52677, Control_c, 0, 64, 127
2, 52756, Note_on_c, 0, 49, 0
2, 52782, Note_on_c, 0, 68, 0
2, 52995, Note_on_c, 0, 68, 79
2, 53006, Note_on_c, 0, 72, 76
2, 53015, Note_on_c, 0, 48, 55
2, 53065, Control_c, 0, 64, 94
2, 53080, Control_c, 0, 64, 70
2, 53096, Control_c, 0, 64, 55
2, 53111, Control_c, 0, 64, 0
2, 53141, Control_c, 0, 64, 42
2, 53156, Control_c, 0, 64, 55
2, 53172, Control_c, 0, 64, 62
2, 53187, Control_c, 0, 64, 67
2, 53188, Note_on_c, 0, 77, 0
2, 53202, Control_c, 0, 64, 77
2, 53218, Control_c, 0, 64, 127
2, 53459, Note_on_c, 0, 68, 0
2, 53517, Note_on_c, 0, 72, 0
2, 53589, Note_on_c, 0, 46, 57
2, 53595, Note_on_c, 0, 73, 82
2, 53599, Note_on_c, 0, 48, 0
2, 53599, Note_on_c, 0, 68, 72
2, 53658, Control_c, 0, 64, 94
2, 53673, Control_c, 0, 64, 70
2, 53689, Control_c, 0, 64, 56
2, 53704, Control_c, 0, 64, 10
2, 53719, Control_c, 0, 64, 0
2, 53735, Control_c, 0, 64, 35
2, 53750, Control_c, 0, 64, 52
2, 53773, Control_c, 0, 64, 60
2, 53788, Control_c, 0, 64, 66
2, 53803, Control_c, 0, 64, 77
2, 53819, Control_c, 0, 64, 127
2, 53841, Note_on_c, 0, 53, 0
2, 53902, Note_on_c, 0, 73, 0
2, 53950, Note_on_c, 0, 46, 0
2, 54100, Note_on_c, 0, 68, 0
2, 54168, Note_on_c, 0, 52, 62
2, 54180, Note_on_c, 0, 49, 53
2, 54183, Note_on_c, 0, 70, 82
2, 54189, Note_on_c, 0, 67, 77
2, 54239, Control_c, 0, 64, 92
2, 54254, Control_c, 0, 64, 67
2, 54270, Control_c, 0, 64, 22
2, 54285, Control_c, 0, 64, 0
2, 54330, Control_c, 0, 64, 52
2, 54346, Control_c, 0, 64, 64
2, 54361, Control_c, 0, 64, 81
2, 54376, Control_c, 0, 64, 127
2, 54456, Note_on_c, 0, 68, 87
2, 54458, Note_on_c, 0, 53, 76
2, 54470, Note_on_c, 0, 52, 0
2, 54494, Note_on_c, 0, 67, 0
2, 54525, Note_on_c, 0, 70, 0
2, 54584, Note_on_c, 0, 49, 0
2, 54614, Note_on_c, 0, 68, 0
2, 54635, Note_on_c, 0, 53, 0
2, 54800, Note_on_c, 0, 55, 72
2, 54803, Note_on_c, 0, 76, 81
2, 54804, Note_on_c, 0, 70, 83
2, 54810, Note_on_c, 0, 48, 57
2, 54870, Control_c, 0, 64, 107
2, 54885, Control_c, 0, 64, 67
2, 54901, Control_c, 0, 64, 0
2, 55022, Control_c, 0, 64, 60
2, 55037, Control_c, 0, 64, 70
2, 55052, Control_c, 0, 64, 94
2, 55068, Control_c, 0, 64, 127
2, 55106, Note_on_c, 0, 70, 0
2, 55280, Note_on_c, 0, 55, 0
2, 55287, Note_on_c, 0, 48, 0
2, 55402, Note_on_c, 0, 55, 73
2, 55406, Note_on_c, 0, 72, 83
2, 55408, Note_on_c, 0, 70, 79
2, 55420, Note_on_c, 0, 48, 64
2, 55457, Control_c, 0, 64, 86
2, 55472, Control_c, 0, 64, 65
2, 55487, Control_c, 0, 64, 43
2, 55503, Control_c, 0, 64, 37
2, 55517, Control_c, 0, 64, 55
2, 55527, Note_on_c, 0, 76, 0
2, 55532, Control_c, 0, 64, 64
2, 55548, Control_c, 0, 64, 73
2, 55563, Control_c, 0, 64, 127
2, 55639, Note_on_c, 0, 55, 0
2, 55674, Note_on_c, 0, 48, 0
2, 55693, Note_on_c, 0, 70, 0
2, 55723, Note_on_c, 0, 72, 0
2, 56080, Note_on_c, 0, 72, 83
2, 56082, Note_on_c, 0, 53, 66
2, 56082, Note_on_c, 0, 77, 82
2, 56083, Note_on_c, 0, 70, 81
2, 56088, Note_on_c, 0, 41, 57
2, 56148, Control_c, 0, 64, 83
2, 56163, Control_c, 0, 64, 60
2, 56178, Control_c, 0, 64, 0
2, 56271, Control_c, 0, 64, 32
2, 56285, Control_c, 0, 64, 56
2, 56301, Control_c, 0, 64, 65
2, 56316, Control_c, 0, 64, 79
2, 56331, Control_c, 0, 64, 127
2, 56423, Note_on_c, 0, 72, 0
2, 56478, Note_on_c, 0, 70, 0
2, 56662, Note_on_c, 0, 68, 65
2, 56662, Note_on_c, 0, 72, 71
2, 56726, Control_c, 0, 64, 91
2, 56742, Control_c, 0, 64, 70
2, 56756, Control_c, 0, 64, 57
2, 56771, Control_c, 0, 64, 33
2, 56787, Control_c, 0, 64, 39
2, 56802, Control_c, 0, 64, 55
2, 56817, Control_c, 0, 64, 62
2, 56833, Control_c, 0, 64, 67
2, 56842, Note_on_c, 0, 68, 0
2, 56854, Control_c, 0, 64, 78
2, 56870, Control_c, 0, 64, 127
2, 56948, Note_on_c, 0, 70, 70
2, 56957, Note_on_c, 0, 67, 52
2, 56971, Note_on_c, 0, 72, 0
2, 57016, Note_on_c, 0, 67, 0
2, 57298, Note_on_c, 0, 72, 61
2, 57312, Control_c, 0, 64, 124
2, 57326, Note_on_c, 0, 68, 46
2, 57327, Control_c, 0, 64, 83
2, 57330, Note_on_c, 0, 70, 0
2, 57343, Control_c, 0, 64, 67
2, 57357, Control_c, 0, 64, 45
2, 57372, Control_c, 0, 64, 0
2, 57374, Note_on_c, 0, 41, 0
2, 57433, Control_c, 0, 64, 21
2, 57433, Note_on_c, 0, 77, 0
2, 57448, Control_c, 0, 64, 52
2, 57464, Control_c, 0, 64, 61
2, 57478, Control_c, 0, 64, 66
2, 57493, Control_c, 0, 64, 74
2, 57509, Control_c, 0, 64, 90
2, 57524, Control_c, 0, 64, 127
2, 57561, Note_on_c, 0, 72, 0
2, 57568, Note_on_c, 0, 53, 0
2, 57894, Note_on_c, 0, 53, 37
2, 57909, Note_on_c, 0, 77, 59
2, 57943, Control_c, 0, 64, 97
2, 57958, Control_c, 0, 64, 83
2, 57973, Control_c, 0, 64, 73
2, 57989, Control_c, 0, 64, 66
2, 58004, Control_c, 0, 64, 59
2, 58020, Control_c, 0, 64, 44
2, 58035, Control_c, 0, 64, 22
2, 58049, Control_c, 0, 64, 0
2, 58176, Note_on_c, 0, 75, 54
2, 58228, Note_on_c, 0, 77, 0
2, 58230, Note_on_c, 0, 53, 0
2, 58302, Note_on_c, 0, 68, 0
2, 58481, Note_on_c, 0, 58, 35
2, 58525, Note_on_c, 0, 74, 52
2, 58575, Note_on_c, 0, 75, 0
2, 59049, Note_on_c, 0, 71, 42
2, 59066, Note_on_c, 0, 68, 42
2, 59325, Note_on_c, 0, 66, 40
2, 59342, Note_on_c, 0, 70, 47
2, 59358, Note_on_c, 0, 68, 0
2, 59386, Note_on_c, 0, 71, 0
2, 59631, Note_on_c, 0, 65, 32
2, 59636, Note_on_c, 0, 68, 44
2, 59695, Note_on_c, 0, 74, 0
2, 59700, Note_on_c, 0, 66, 0
2, 59755, Note_on_c, 0, 70, 0
2, 59791, Note_on_c, 0, 58, 0
2, 60176, Note_on_c, 0, 58, 31
2, 60180, Note_on_c, 0, 75, 57
2, 60324, Control_c, 0, 64, 22
2, 60340, Control_c, 0, 64, 36
2, 60355, Control_c, 0, 64, 43
2, 60370, Control_c, 0, 64, 47
2, 60385, Control_c, 0, 64, 47
2, 60419, Note_on_c, 0, 65, 0
2, 60446, Control_c, 0, 64, 47
2, 60456, Note_on_c, 0, 77, 69
2, 60461, Control_c, 0, 64, 45
2, 60476, Control_c, 0, 64, 43
2, 60491, Control_c, 0, 64, 41
2, 60507, Control_c, 0, 64, 39
2, 60522, Control_c, 0, 64, 38
2, 60529, Note_on_c, 0, 75, 0
2, 60538, Control_c, 0, 64, 37
2, 60553, Control_c, 0, 64, 36
2, 60568, Control_c, 0, 64, 35
2, 60583, Control_c, 0, 64, 34
2, 60590, Note_on_c, 0, 58, 0
2, 60598, Control_c, 0, 64, 33
2, 60614, Control_c, 0, 64, 33
2, 60629, Control_c, 0, 64, 32
2, 60644, Control_c, 0, 64, 31
2, 60659, Control_c, 0, 64, 30
2, 60673, Control_c, 0, 64, 29
2, 60697, Control_c, 0, 64, 27
2, 60711, Control_c, 0, 64, 24
2, 60726, Control_c, 0, 64, 22
2, 60742, Control_c, 0, 64, 19
2, 60757, Control_c, 0, 64, 16
2, 60773, Control_c, 0, 64, 10
2, 60774, Note_on_c, 0, 51, 34
2, 60787, Control_c, 0, 64, 0
2, 60811, Note_on_c, 0, 78, 67
2, 60828, Note_on_c, 0, 77, 0
2, 60889, Note_on_c, 0, 68, 0
2, 60939, Control_c, 0, 64, 20
2, 60954, Control_c, 0, 64, 36
2, 60969, Control_c, 0, 64, 45
2, 60985, Control_c, 0, 64, 52
2, 60999, Control_c, 0, 64, 57
2, 61015, Control_c, 0, 64, 62
2, 61030, Control_c, 0, 64, 65
2, 61045, Control_c, 0, 64, 70
2, 61051, Note_on_c, 0, 51, 0
2, 61061, Control_c, 0, 64, 83
2, 61076, Control_c, 0, 64, 127
2, 61351, Note_on_c, 0, 63, 44
2, 61357, Note_on_c, 0, 66, 42
2, 61480, Note_on_c, 0, 66, 0
2, 61624, Note_on_c, 0, 65, 57
2, 61626, Note_on_c, 0, 68, 57
2, 61712, Note_on_c, 0, 63, 0
2, 61916, Note_on_c, 0, 70, 55
2, 61921, Control_c, 0, 64, 117
2, 61925, Note_on_c, 0, 66, 43
2, 61936, Control_c, 0, 64, 94
2, 61937, Note_on_c, 0, 65, 0
2, 61944, Note_on_c, 0, 68, 0
2, 61951, Control_c, 0, 64, 79
2, 61966, Control_c, 0, 64, 67
2, 61982, Control_c, 0, 64, 44
2, 61997, Control_c, 0, 64, 0
2, 62005, Note_on_c, 0, 78, 0
2, 62087, Control_c, 0, 64, 42
2, 62103, Control_c, 0, 64, 58
2, 62118, Control_c, 0, 64, 64
2, 62134, Control_c, 0, 64, 73
2, 62149, Control_c, 0, 64, 101
2, 62164, Control_c, 0, 64, 127
2, 62189, Note_on_c, 0, 66, 0
2, 62464, Note_on_c, 0, 51, 37
2, 62479, Note_on_c, 0, 75, 61
2, 62654, Note_on_c, 0, 51, 0
2, 62750, Note_on_c, 0, 73, 73
2, 62798, Note_on_c, 0, 75, 0
2, 63031, Note_on_c, 0, 56, 37
2, 63059, Note_on_c, 0, 73, 0
2, 63087, Note_on_c, 0, 72, 64
2, 63122, Control_c, 0, 64, 99
2, 63138, Control_c, 0, 64, 85
2, 63153, Control_c, 0, 64, 73
2, 63168, Control_c, 0, 64, 64
2, 63182, Note_on_c, 0, 70, 0
2, 63184, Control_c, 0, 64, 50
2, 63198, Control_c, 0, 64, 0
2, 63611, Note_on_c, 0, 63, 49
2, 63620, Note_on_c, 0, 60, 38
2, 63886, Note_on_c, 0, 63, 0
2, 63888, Note_on_c, 0, 65, 46
2, 63898, Note_on_c, 0, 61, 46
2, 63953, Note_on_c, 0, 60, 0
2, 64193, Note_on_c, 0, 66, 43
2, 64194, Note_on_c, 0, 63, 42
2, 64213, Note_on_c, 0, 65, 0
2, 64246, Note_on_c, 0, 61, 0
2, 64283, Note_on_c, 0, 72, 0
2, 64352, Note_on_c, 0, 56, 0
2, 64758, Note_on_c, 0, 73, 53
2, 64771, Note_on_c, 0, 56, 32
2, 64901, Note_on_c, 0, 63, 0
2, 65047, Note_on_c, 0, 75, 55
2, 65068, Note_on_c, 0, 73, 0
2, 65072, Note_on_c, 0, 56, 0
2, 65226, Note_on_c, 0, 66, 0
2, 65363, Note_on_c, 0, 49, 28
2, 65379, Note_on_c, 0, 75, 0
2, 65384, Note_on_c, 0, 77, 54
2, 65457, Control_c, 0, 64, 21
2, 65472, Control_c, 0, 64, 48
2, 65487, Control_c, 0, 64, 57
2, 65503, Control_c, 0, 64, 64
2, 65518, Control_c, 0, 64, 74
2, 65534, Control_c, 0, 64, 100
2, 65549, Control_c, 0, 64, 127
2, 65569, Note_on_c, 0, 77, 0
2, 65609, Note_on_c, 0, 49, 0
2, 65941, Note_on_c, 0, 68, 39
2, 65954, Note_on_c, 0, 65, 35
2, 66232, Note_on_c, 0, 66, 46
2, 66237, Note_on_c, 0, 63, 47
2, 66277, Note_on_c, 0, 68, 0
2, 66278, Note_on_c, 0, 65, 0
2, 66539, Note_on_c, 0, 61, 50
2, 66542, Note_on_c, 0, 65, 53
2, 66559, Note_on_c, 0, 66, 0
2, 66566, Note_on_c, 0, 63, 0
2, 66577, Control_c, 0, 64, 99
2, 66592, Control_c, 0, 64, 73
2, 66608, Control_c, 0, 64, 58
2, 66622, Control_c, 0, 64, 0
2, 66668, Control_c, 0, 64, 22
2, 66683, Control_c, 0, 64, 52
2, 66698, Control_c, 0, 64, 62
2, 66713, Control_c, 0, 64, 69
2, 66729, Control_c, 0, 64, 89
2, 66744, Control_c, 0, 64, 127
2, 66788, Note_on_c, 0, 61, 0
2, 66853, Note_on_c, 0, 65, 0
2, 67116, Note_on_c, 0, 73, 65
2, 67118, Note_on_c, 0, 65, 59
2, 67121, Note_on_c, 0, 61, 47
2, 67146, Note_on_c, 0, 49, 40
2, 67147, Control_c, 0, 64, 112
2, 67162, Control_c, 0, 64, 72
2, 67178, Control_c, 0, 64, 53
2, 67192, Control_c, 0, 64, 0
2, 67254, Control_c, 0, 64, 52
2, 67269, Control_c, 0, 64, 65
2, 67284, Control_c, 0, 64, 77
2, 67300, Control_c, 0, 64, 127
2, 67403, Note_on_c, 0, 72, 71
2, 67418, Note_on_c, 0, 49, 0
2, 67419, Note_on_c, 0, 61, 0
2, 67457, Note_on_c, 0, 65, 0
2, 67498, Note_on_c, 0, 73, 0
2, 67725, Note_on_c, 0, 61, 51
2, 67742, Note_on_c, 0, 54, 43
2, 67743, Note_on_c, 0, 70, 67
2, 67750, Note_on_c, 0, 66, 57
2, 67779, Control_c, 0, 64, 87
2, 67794, Control_c, 0, 64, 66
2, 67810, Control_c, 0, 64, 0
2, 67828, Note_on_c, 0, 72, 0
2, 67885, Control_c, 0, 64, 36
2, 67901, Control_c, 0, 64, 61
2, 67915, Control_c, 0, 64, 71
2, 67931, Control_c, 0, 64, 99
2, 67946, Control_c, 0, 64, 127
2, 67986, Note_on_c, 0, 54, 0
2, 67994, Note_on_c, 0, 66, 0
2, 68036, Note_on_c, 0, 70, 0
2, 68070, Note_on_c, 0, 61, 0
2, 68299, Note_on_c, 0, 66, 69
2, 68299, Note_on_c, 0, 70, 75
2, 68314, Note_on_c, 0, 61, 63
2, 68323, Note_on_c, 0, 54, 50
2, 68325, Control_c, 0, 64, 100
2, 68341, Control_c, 0, 64, 71
2, 68356, Control_c, 0, 64, 53
2, 68379, Control_c, 0, 64, 0
2, 68410, Control_c, 0, 64, 45
2, 68425, Control_c, 0, 64, 60
2, 68439, Control_c, 0, 64, 69
2, 68455, Control_c, 0, 64, 94
2, 68471, Control_c, 0, 64, 127
2, 68579, Note_on_c, 0, 53, 68
2, 68607, Note_on_c, 0, 54, 0
2, 68609, Note_on_c, 0, 66, 0
2, 68639, Note_on_c, 0, 70, 0
2, 68696, Note_on_c, 0, 61, 0
2, 68902, Note_on_c, 0, 70, 69
2, 68902, Note_on_c, 0, 78, 79
2, 68905, Note_on_c, 0, 63, 54
2, 68917, Note_on_c, 0, 51, 45
2, 68942, Control_c, 0, 64, 105
2, 68956, Control_c, 0, 64, 68
2, 68962, Note_on_c, 0, 53, 0
2, 68972, Control_c, 0, 64, 36
2, 68987, Control_c, 0, 64, 0
2, 69064, Control_c, 0, 64, 53
2, 69078, Control_c, 0, 64, 66
2, 69094, Control_c, 0, 64, 80
2, 69109, Control_c, 0, 64, 127
2, 69192, Note_on_c, 0, 70, 0
2, 69208, Note_on_c, 0, 78, 0
2, 69271, Note_on_c, 0, 63, 0
2, 69280, Note_on_c, 0, 51, 0
2, 69461, Note_on_c, 0, 78, 77
2, 69465, Note_on_c, 0, 70, 69
2, 69479, Note_on_c, 0, 63, 68
2, 69492, Note_on_c, 0, 51, 56
2, 69497, Control_c, 0, 64, 73
2, 69512, Control_c, 0, 64, 56
2, 69527, Control_c, 0, 64, 36
2, 69542, Control_c, 0, 64, 53
2, 69557, Control_c, 0, 64, 62
2, 69573, Control_c, 0, 64, 67
2, 69578, Note_on_c, 0, 51, 0
2, 69588, Control_c, 0, 64, 77
2, 69602, Control_c, 0, 64, 127
2, 69742, Note_on_c, 0, 65, 76
2, 69745, Note_on_c, 0, 77, 81
2, 69771, Note_on_c, 0, 63, 0
2, 69788, Note_on_c, 0, 78, 0
2, 69825, Note_on_c, 0, 70, 0
2, 70058, Note_on_c, 0, 66, 70
2, 70064, Note_on_c, 0, 70, 68
2, 70066, Control_c, 0, 64, 90
2, 70066, Note_on_c, 0, 75, 80
2, 70072, Note_on_c, 0, 65, 0
2, 70074, Note_on_c, 0, 60, 51
2, 70081, Control_c, 0, 64, 67
2, 70097, Control_c, 0, 64, 0
2, 70146, Note_on_c, 0, 77, 0
2, 70265, Control_c, 0, 64, 48
2, 70280, Control_c, 0, 64, 68
2, 70296, Control_c, 0, 64, 86
2, 70310, Control_c, 0, 64, 127
2, 70345, Note_on_c, 0, 70, 0
2, 70348, Note_on_c, 0, 60, 0
2, 70357, Note_on_c, 0, 75, 0
2, 70368, Note_on_c, 0, 66, 0
2, 70599, Note_on_c, 0, 75, 84
2, 70602, Note_on_c, 0, 69, 67
2, 70608, Note_on_c, 0, 66, 65
2, 70611, Note_on_c, 0, 60, 55
2, 70644, Control_c, 0, 64, 86
2, 70660, Control_c, 0, 64, 66
2, 70682, Control_c, 0, 64, 54
2, 70698, Control_c, 0, 64, 46
2, 70713, Control_c, 0, 64, 54
2, 70728, Control_c, 0, 64, 61
2, 70743, Control_c, 0, 64, 65
2, 70758, Control_c, 0, 64, 78
2, 70773, Control_c, 0, 64, 127
2, 70882, Note_on_c, 0, 70, 82
2, 70884, Note_on_c, 0, 58, 70
2, 70931, Note_on_c, 0, 69, 0
2, 70988, Note_on_c, 0, 60, 0
2, 70993, Note_on_c, 0, 70, 0
2, 70995, Note_on_c, 0, 66, 0
2, 71010, Note_on_c, 0, 75, 0
2, 71224, Note_on_c, 0, 66, 63
2, 71237, Note_on_c, 0, 57, 48
2, 71243, Note_on_c, 0, 84, 85
2, 71245, Note_on_c, 0, 72, 81
2, 71287, Note_on_c, 0, 58, 0
2, 71306, Control_c, 0, 64, 87
2, 71321, Control_c, 0, 64, 63
2, 71337, Control_c, 0, 64, 0
2, 71427, Control_c, 0, 64, 26
2, 71450, Control_c, 0, 64, 57
2, 71465, Control_c, 0, 64, 66
2, 71480, Control_c, 0, 64, 77
2, 71492, Note_on_c, 0, 66, 0
2, 71495, Control_c, 0, 64, 127
2, 71539, Note_on_c, 0, 57, 0
2, 71610, Note_on_c, 0, 72, 0
2, 71661, Note_on_c, 0, 84, 0
2, 71790, Note_on_c, 0, 65, 54
2, 71803, Note_on_c, 0, 57, 46
2, 71809, Note_on_c, 0, 84, 81
2, 71815, Note_on_c, 0, 72, 73
2, 72073, Note_on_c, 0, 82, 84
2, 72091, Note_on_c, 0, 57, 0
2, 72135, Note_on_c, 0, 84, 0
2, 72314, Note_on_c, 0, 72, 0
2, 72320, Note_on_c, 0, 82, 0
2, 72410, Note_on_c, 0, 63, 52
2, 72410, Note_on_c, 0, 81, 76
2, 72416, Note_on_c, 0, 77, 73
2, 72422, Note_on_c, 0, 72, 71
2, 72489, Control_c, 0, 64, 95
2, 72505, Control_c, 0, 64, 69
2, 72520, Control_c, 0, 64, 50
2, 72536, Control_c, 0, 64, 0
2, 72576, Note_on_c, 0, 65, 0
2, 72597, Control_c, 0, 64, 21
2, 72612, Control_c, 0, 64, 48
2, 72628, Control_c, 0, 64, 59
2, 72642, Control_c, 0, 64, 64
2, 72658, Control_c, 0, 64, 71
2, 72673, Control_c, 0, 64, 85
2, 72687, Control_c, 0, 64, 127
2, 72727, Note_on_c, 0, 81, 0
2, 72734, Note_on_c, 0, 72, 0
2, 72737, Note_on_c, 0, 77, 0
2, 72983, Note_on_c, 0, 81, 74
2, 72984, Note_on_c, 0, 65, 56
2, 72984, Note_on_c, 0, 77, 75
2, 72987, Note_on_c, 0, 72, 69
2, 73137, Note_on_c, 0, 63, 0
2, 73250, Note_on_c, 0, 72, 0
2, 73274, Note_on_c, 0, 63, 62
2, 73285, Note_on_c, 0, 77, 0
2, 73442, Note_on_c, 0, 65, 0
2, 73583, Note_on_c, 0, 82, 75
2, 73586, Note_on_c, 0, 77, 72
2, 73590, Note_on_c, 0, 70, 60
2, 73594, Note_on_c, 0, 62, 55
2, 73602, Note_on_c, 0, 81, 0
2, 73617, Note_on_c, 0, 63, 0
2, 73638, Control_c, 0, 64, 85
2, 73654, Control_c, 0, 64, 67
2, 73669, Control_c, 0, 64, 46
2, 73684, Control_c, 0, 64, 0
2, 73783, Control_c, 0, 64, 44
2, 73798, Control_c, 0, 64, 57
2, 73814, Control_c, 0, 64, 63
2, 73828, Control_c, 0, 64, 73
2, 73843, Control_c, 0, 64, 115
2, 73859, Control_c, 0, 64, 127
2, 73886, Note_on_c, 0, 70, 0
2, 73904, Note_on_c, 0, 62, 0
2, 73923, Note_on_c, 0, 77, 0
2, 73955, Note_on_c, 0, 82, 0
2, 74138, Note_on_c, 0, 77, 73
2, 74142, Note_on_c, 0, 70, 66
2, 74143, Note_on_c, 0, 62, 54
2, 74144, Note_on_c, 0, 82, 72
2, 74430, Note_on_c, 0, 80, 79
2, 74499, Note_on_c, 0, 82, 0
2, 74564, Note_on_c, 0, 77, 0
2, 74590, Note_on_c, 0, 70, 0
2, 74758, Note_on_c, 0, 63, 47
2, 74763, Note_on_c, 0, 78, 73
2, 74770, Note_on_c, 0, 77, 71
2, 74782, Note_on_c, 0, 70, 43
2, 74785, Note_on_c, 0, 62, 0
2, 74809, Control_c, 0, 64, 91
2, 74812, Note_on_c, 0, 80, 0
2, 74825, Control_c, 0, 64, 69
2, 74840, Control_c, 0, 64, 53
2, 74855, Control_c, 0, 64, 0
2, 74930, Control_c, 0, 64, 47
2, 74946, Control_c, 0, 64, 59
2, 74961, Control_c, 0, 64, 64
2, 74977, Control_c, 0, 64, 75
2, 74991, Control_c, 0, 64, 127
2, 75000, Note_on_c, 0, 77, 0
2, 75069, Note_on_c, 0, 78, 0
2, 75106, Note_on_c, 0, 70, 0
2, 75125, Note_on_c, 0, 63, 0
2, 75327, Note_on_c, 0, 70, 63
2, 75327, Note_on_c, 0, 75, 71
2, 75327, Note_on_c, 0, 78, 69
2, 75331, Note_on_c, 0, 63, 57
2, 75364, Control_c, 0, 64, 110
2, 75380, Control_c, 0, 64, 79
2, 75395, Control_c, 0, 64, 65
2, 75410, Control_c, 0, 64, 43
2, 75426, Control_c, 0, 64, 0
2, 75456, Control_c, 0, 64, 28
2, 75471, Control_c, 0, 64, 47
2, 75486, Control_c, 0, 64, 55
2, 75502, Control_c, 0, 64, 61
2, 75516, Control_c, 0, 64, 68
2, 75531, Control_c, 0, 64, 82
2, 75547, Control_c, 0, 64, 127
2, 75604, Note_on_c, 0, 61, 70
2, 75662, Note_on_c, 0, 70, 0
2, 75677, Note_on_c, 0, 78, 0
2, 75680, Note_on_c, 0, 75, 0
2, 75696, Note_on_c, 0, 63, 0
2, 75918, Note_on_c, 0, 60, 60
2, 75930, Note_on_c, 0, 75, 66
2, 75931, Note_on_c, 0, 70, 59
2, 75931, Note_on_c, 0, 78, 64
2, 75937, Note_on_c, 0, 61, 0
2, 75958, Control_c, 0, 64, 92
2, 75974, Control_c, 0, 64, 70
2, 75988, Control_c, 0, 64, 53
2, 76003, Control_c, 0, 64, 0
2, 76072, Control_c, 0, 64, 32
2, 76087, Control_c, 0, 64, 52
2, 76103, Control_c, 0, 64, 60
2, 76118, Control_c, 0, 64, 66
2, 76132, Control_c, 0, 64, 80
2, 76148, Control_c, 0, 64, 127
2, 76174, Note_on_c, 0, 75, 0
2, 76210, Note_on_c, 0, 78, 0
2, 76243, Note_on_c, 0, 70, 0
2, 76274, Note_on_c, 0, 60, 0
2, 76505, Note_on_c, 0, 78, 63
2, 76507, Note_on_c, 0, 69, 54
2, 76507, Note_on_c, 0, 75, 64
2, 76508, Note_on_c, 0, 60, 51
2, 76527, Control_c, 0, 64, 108
2, 76543, Control_c, 0, 64, 78
2, 76558, Control_c, 0, 64, 64
2, 76574, Control_c, 0, 64, 30
2, 76589, Control_c, 0, 64, 0
2, 76619, Control_c, 0, 64, 18
2, 76634, Control_c, 0, 64, 47
2, 76649, Control_c, 0, 64, 57
2, 76665, Control_c, 0, 64, 62
2, 76680, Control_c, 0, 64, 70
2, 76696, Control_c, 0, 64, 87
2, 76711, Control_c, 0, 64, 127
2, 76799, Note_on_c, 0, 70, 67
2, 76818, Note_on_c, 0, 58, 46
2, 76829, Note_on_c, 0, 75, 0
2, 76860, Note_on_c, 0, 69, 0
2, 76864, Note_on_c, 0, 78, 0
2, 76866, Note_on_c, 0, 60, 0
2, 77123, Note_on_c, 0, 78, 54
2, 77126, Note_on_c, 0, 57, 42
2, 77127, Note_on_c, 0, 75, 56
2, 77132, Note_on_c, 0, 72, 53
2, 77144, Control_c, 0, 64, 102
2, 77159, Control_c, 0, 64, 76
2, 77163, Note_on_c, 0, 70, 0
2, 77167, Note_on_c, 0, 58, 0
2, 77175, Control_c, 0, 64, 61
2, 77190, Control_c, 0, 64, 0
2, 77265, Control_c, 0, 64, 41
2, 77280, Control_c, 0, 64, 56
2, 77296, Control_c, 0, 64, 63
2, 77311, Control_c, 0, 64, 73
2, 77325, Control_c, 0, 64, 95
2, 77341, Control_c, 0, 64, 127
2, 77370, Note_on_c, 0, 78, 0
2, 77392, Note_on_c, 0, 72, 0
2, 77456, Note_on_c, 0, 57, 0
2, 77689, Note_on_c, 0, 77, 70
2, 77696, Note_on_c, 0, 65, 63
2, 77699, Note_on_c, 0, 73, 68
2, 77709, Note_on_c, 0, 57, 47
2, 77731, Note_on_c, 0, 75, 0
2, 77745, Control_c, 0, 64, 76
2, 77759, Control_c, 0, 64, 61
2, 77775, Control_c, 0, 64, 10
2, 77790, Control_c, 0, 64, 0
2, 77805, Control_c, 0, 64, 30
2, 77821, Control_c, 0, 64, 52
2, 77836, Control_c, 0, 64, 61
2, 77851, Control_c, 0, 64, 70
2, 77867, Control_c, 0, 64, 89
2, 77882, Control_c, 0, 64, 127
2, 77963, Note_on_c, 0, 63, 68
2, 77963, Note_on_c, 0, 72, 71
2, 78047, Note_on_c, 0, 77, 0
2, 78071, Note_on_c, 0, 57, 0
2, 78077, Note_on_c, 0, 72, 0
2, 78142, Note_on_c, 0, 63, 0
2, 78294, Note_on_c, 0, 77, 71
2, 78299, Note_on_c, 0, 61, 54
2, 78307, Note_on_c, 0, 70, 55
2, 78311, Note_on_c, 0, 58, 49
2, 78330, Note_on_c, 0, 73, 0
2, 78337, Control_c, 0, 64, 97
2, 78359, Control_c, 0, 64, 70
2, 78375, Control_c, 0, 64, 27
2, 78376, Note_on_c, 0, 65, 0
2, 78390, Control_c, 0, 64, 0
2, 78466, Control_c, 0, 64, 49
2, 78481, Control_c, 0, 64, 64
2, 78497, Control_c, 0, 64, 73
2, 78512, Control_c, 0, 64, 106
2, 78526, Control_c, 0, 64, 127
2, 78563, Note_on_c, 0, 58, 0
2, 78582, Note_on_c, 0, 77, 0
2, 78611, Note_on_c, 0, 70, 0
2, 78641, Note_on_c, 0, 61, 0
2, 78859, Note_on_c, 0, 78, 79
2, 78861, Note_on_c, 0, 61, 66
2, 78863, Note_on_c, 0, 70, 71
2, 78871, Note_on_c, 0, 58, 60
2, 78890, Control_c, 0, 64, 83
2, 78906, Control_c, 0, 64, 62
2, 78921, Control_c, 0, 64, 0
2, 78983, Control_c, 0, 64, 51
2, 78998, Control_c, 0, 64, 68
2, 79012, Control_c, 0, 64, 90
2, 79028, Control_c, 0, 64, 127
2, 79153, Note_on_c, 0, 56, 71
2, 79153, Note_on_c, 0, 77, 83
2, 79215, Note_on_c, 0, 78, 0
2, 79254, Note_on_c, 0, 70, 0
2, 79296, Note_on_c, 0, 61, 0
2, 79350, Note_on_c, 0, 58, 0
2, 79472, Note_on_c, 0, 75, 80
2, 79475, Note_on_c, 0, 61, 62
2, 79477, Note_on_c, 0, 70, 60
2, 79484, Note_on_c, 0, 54, 56
2, 79523, Control_c, 0, 64, 80
2, 79526, Note_on_c, 0, 56, 0
2, 79539, Control_c, 0, 64, 54
2, 79554, Control_c, 0, 64, 0
2, 79555, Note_on_c, 0, 77, 0
2, 79630, Control_c, 0, 64, 53
2, 79645, Control_c, 0, 64, 67
2, 79660, Control_c, 0, 64, 82
2, 79675, Control_c, 0, 64, 127
2, 79740, Note_on_c, 0, 61, 0
2, 79744, Note_on_c, 0, 75, 0
2, 79758, Note_on_c, 0, 70, 0
2, 79787, Note_on_c, 0, 54, 0
2, 80023, Note_on_c, 0, 60, 71
2, 80026, Note_on_c, 0, 75, 78
2, 80027, Note_on_c, 0, 69, 73
2, 80030, Note_on_c, 0, 54, 64
2, 80048, Control_c, 0, 64, 87
2, 80064, Control_c, 0, 64, 61
2, 80079, Control_c, 0, 64, 0
2, 80140, Control_c, 0, 64, 55
2, 80145, Note_on_c, 0, 60, 0
2, 80155, Control_c, 0, 64, 68
2, 80169, Control_c, 0, 64, 100
2, 80185, Control_c, 0, 64, 127
2, 80302, Note_on_c, 0, 73, 80
2, 80306, Note_on_c, 0, 61, 73
2, 80306, Note_on_c, 0, 70, 75
2, 80313, Note_on_c, 0, 53, 61
2, 80342, Note_on_c, 0, 54, 0
2, 80364, Note_on_c, 0, 69, 0
2, 80385, Note_on_c, 0, 75, 0
2, 80435, Note_on_c, 0, 61, 0
2, 80530, Note_on_c, 0, 70, 0
2, 80554, Note_on_c, 0, 73, 0
2, 80622, Note_on_c, 0, 72, 80
2, 80627, Note_on_c, 0, 53, 0
2, 80627, Note_on_c, 0, 63, 64
2, 80629, Note_on_c, 0, 51, 65
2, 80635, Note_on_c, 0, 70, 75
2, 80679, Control_c, 0, 64, 78
2, 80695, Control_c, 0, 64, 50
2, 80709, Control_c, 0, 64, 0
2, 80771, Control_c, 0, 64, 46
2, 80786, Control_c, 0, 64, 64
2, 80801, Control_c, 0, 64, 82
2, 80817, Control_c, 0, 64, 127
2, 80820, Note_on_c, 0, 63, 0
2, 80894, Note_on_c, 0, 51, 0
2, 80919, Note_on_c, 0, 72, 0
2, 80949, Note_on_c, 0, 70, 0
2, 81175, Note_on_c, 0, 72, 81
2, 81176, Note_on_c, 0, 69, 76
2, 81177, Note_on_c, 0, 65, 72
2, 81181, Note_on_c, 0, 51, 73
2, 81211, Control_c, 0, 64, 112
2, 81227, Control_c, 0, 64, 68
2, 81242, Control_c, 0, 64, 35
2, 81257, Control_c, 0, 64, 0
2, 81272, Control_c, 0, 64, 29
2, 81287, Control_c, 0, 64, 56
2, 81297, Note_on_c, 0, 69, 0
2, 81303, Control_c, 0, 64, 64
2, 81318, Control_c, 0, 64, 75
2, 81334, Control_c, 0, 64, 127
2, 81456, Note_on_c, 0, 73, 86
2, 81458, Note_on_c, 0, 70, 84
2, 81468, Note_on_c, 0, 49, 70
2, 81486, Note_on_c, 0, 72, 0
2, 81520, Note_on_c, 0, 65, 0
2, 81617, Note_on_c, 0, 51, 0
2, 81619, Note_on_c, 0, 73, 0
2, 81785, Note_on_c, 0, 69, 82
2, 81787, Note_on_c, 0, 66, 79
2, 81789, Note_on_c, 0, 75, 82
2, 81795, Note_on_c, 0, 48, 63
2, 81820, Note_on_c, 0, 70, 0
2, 81836, Note_on_c, 0, 49, 0
2, 81843, Control_c, 0, 64, 77
2, 81858, Control_c, 0, 64, 37
2, 81873, Control_c, 0, 64, 0
2, 81949, Control_c, 0, 64, 51
2, 81964, Control_c, 0, 64, 67
2, 81979, Control_c, 0, 64, 86
2, 81994, Control_c, 0, 64, 127
2, 82052, Note_on_c, 0, 66, 0
2, 82095, Note_on_c, 0, 69, 0
2, 82110, Note_on_c, 0, 48, 0
2, 82130, Note_on_c, 0, 75, 0
2, 82342, Note_on_c, 0, 72, 84
2, 82345, Note_on_c, 0, 48, 75
2, 82345, Note_on_c, 0, 66, 75
2, 82346, Note_on_c, 0, 69, 72
2, 82382, Control_c, 0, 64, 82
2, 82398, Control_c, 0, 64, 57
2, 82414, Control_c, 0, 64, 0
2, 82443, Control_c, 0, 64, 33
2, 82457, Note_on_c, 0, 69, 0
2, 82459, Control_c, 0, 64, 61
2, 82474, Control_c, 0, 64, 73
2, 82489, Control_c, 0, 64, 127
2, 82631, Note_on_c, 0, 73, 89
2, 82638, Note_on_c, 0, 70, 84
2, 82644, Note_on_c, 0, 46, 76
2, 82665, Note_on_c, 0, 72, 0
2, 82721, Note_on_c, 0, 66, 0
2, 82801, Note_on_c, 0, 48, 0
2, 82820, Note_on_c, 0, 73, 0
2, 82981, Note_on_c, 0, 72, 77
2, 82982, Note_on_c, 0, 65, 79
2, 82985, Note_on_c, 0, 45, 70
2, 82985, Note_on_c, 0, 75, 81
2, 83016, Note_on_c, 0, 70, 0
2, 83029, Control_c, 0, 64, 66
2, 83043, Control_c, 0, 64, 0
2, 83063, Note_on_c, 0, 46, 0
2, 83180, Control_c, 0, 64, 39
2, 83195, Control_c, 0, 64, 63
2, 83211, Control_c, 0, 64, 75
2, 83227, Control_c, 0, 64, 127
2, 83287, Note_on_c, 0, 65, 0
2, 83294, Note_on_c, 0, 75, 0
2, 83407, Note_on_c, 0, 72, 0
2, 83567, Note_on_c, 0, 41, 69
2, 83567, Note_on_c, 0, 73, 85
2, 83568, Note_on_c, 0, 70, 80
2, 83570, Note_on_c, 0, 65, 79
2, 83586, Note_on_c, 0, 45, 0
2, 83591, Control_c, 0, 64, 79
2, 83606, Control_c, 0, 64, 61
2, 83622, Control_c, 0, 64, 0
2, 83652, Control_c, 0, 64, 50
2, 83667, Control_c, 0, 64, 62
2, 83682, Control_c, 0, 64, 77
2, 83698, Control_c, 0, 64, 127
2, 83785, Note_on_c, 0, 73, 0
2, 83816, Note_on_c, 0, 70, 0
2, 83904, Note_on_c, 0, 69, 83
2, 83904, Note_on_c, 0, 72, 85
2, 83921, Note_on_c, 0, 41, 0
2, 83931, Note_on_c, 0, 65, 0
2, 84051, Note_on_c, 0, 69, 0
2, 84214, Note_on_c, 0, 72, 0
2, 84308, Note_on_c, 0, 46, 82
2, 84314, Note_on_c, 0, 70, 73
2, 84315, Note_on_c, 0, 73, 83
2, 84316, Note_on_c, 0, 65, 71
2, 84390, Control_c, 0, 64, 74
2, 84405, Control_c, 0, 64, 52
2, 84421, Control_c, 0, 64, 0
2, 84519, Control_c, 0, 64, 25
2, 84535, Control_c, 0, 64, 51
2, 84550, Control_c, 0, 64, 61
2, 84564, Control_c, 0, 64, 66
2, 84580, Control_c, 0, 64, 82
2, 84595, Control_c, 0, 64, 127
2, 84766, Note_on_c, 0, 46, 0
2, 84892, Note_on_c, 0, 46, 72
2, 85112, Control_c, 0, 64, 116
2, 85127, Control_c, 0, 64, 108
2, 85143, Control_c, 0, 64, 104
2, 85158, Control_c, 0, 64, 100
2, 85174, Control_c, 0, 64, 96
2, 85188, Note_on_c, 0, 44, 77
2, 85189, Control_c, 0, 64, 92
2, 85203, Control_c, 0, 64, 87
2, 85219, Control_c, 0, 64, 83
2, 85234, Control_c, 0, 64, 77
2, 85249, Control_c, 0, 64, 73
2, 85272, Control_c, 0, 64, 69
2, 85286, Control_c, 0, 64, 65
2, 85298, Note_on_c, 0, 46, 0
2, 85302, Control_c, 0, 64, 61
2, 85317, Control_c, 0, 64, 56
2, 85332, Control_c, 0, 64, 51
2, 85348, Control_c, 0, 64, 45
2, 85363, Control_c, 0, 64, 39
2, 85379, Control_c, 0, 64, 31
2, 85394, Control_c, 0, 64, 13
2, 85409, Control_c, 0, 64, 0
2, 85519, Note_on_c, 0, 42, 76
2, 85553, Note_on_c, 0, 44, 0
2, 85681, Control_c, 0, 64, 35
2, 85696, Control_c, 0, 64, 56
2, 85712, Control_c, 0, 64, 63
2, 85726, Control_c, 0, 64, 71
2, 85742, Control_c, 0, 64, 102
2, 85757, Control_c, 0, 64, 127
2, 85815, Note_on_c, 0, 42, 0
2, 85821, Note_on_c, 0, 65, 0
2, 85842, Note_on_c, 0, 70, 0
2, 86110, Note_on_c, 0, 42, 71
2, 86119, Note_on_c, 0, 65, 75
2, 86120, Note_on_c, 0, 70, 77
2, 86175, Control_c, 0, 64, 124
2, 86191, Control_c, 0, 64, 72
2, 86205, Control_c, 0, 64, 53
2, 86221, Control_c, 0, 64, 0
2, 86312, Control_c, 0, 64, 38
2, 86327, Control_c, 0, 64, 57
2, 86343, Control_c, 0, 64, 63
2, 86358, Control_c, 0, 64, 68
2, 86373, Control_c, 0, 64, 79
2, 86388, Control_c, 0, 64, 127
2, 86422, Note_on_c, 0, 41, 75
2, 86480, Note_on_c, 0, 65, 0
2, 86498, Note_on_c, 0, 70, 0
2, 86521, Note_on_c, 0, 42, 0
2, 86737, Note_on_c, 0, 66, 69
2, 86737, Note_on_c, 0, 70, 74
2, 86748, Note_on_c, 0, 39, 59
2, 86783, Control_c, 0, 64, 86
2, 86783, Note_on_c, 0, 41, 0
2, 86806, Control_c, 0, 64, 59
2, 86816, Note_on_c, 0, 73, 0
2, 86822, Control_c, 0, 64, 0
2, 86943, Control_c, 0, 64, 44
2, 86958, Control_c, 0, 64, 60
2, 86972, Control_c, 0, 64, 67
2, 86988, Control_c, 0, 64, 79
2, 87003, Control_c, 0, 64, 127
2, 87042, Note_on_c, 0, 70, 0
2, 87212, Note_on_c, 0, 39, 0
2, 87317, Note_on_c, 0, 39, 66
2, 87318, Note_on_c, 0, 78, 87
2, 87417, Control_c, 0, 64, 98
2, 87432, Control_c, 0, 64, 91
2, 87447, Control_c, 0, 64, 92
2, 87463, Control_c, 0, 64, 124
2, 87478, Control_c, 0, 64, 127
2, 87554, Note_on_c, 0, 78, 0
2, 87632, Note_on_c, 0, 77, 85
2, 87816, Note_on_c, 0, 39, 0
2, 87922, Note_on_c, 0, 39, 57
2, 87931, Note_on_c, 0, 75, 85
2, 87957, Control_c, 0, 64, 108
2, 87973, Control_c, 0, 64, 79
2, 87988, Control_c, 0, 64, 64
2, 88003, Control_c, 0, 64, 59
2, 88014, Note_on_c, 0, 77, 0
2, 88019, Control_c, 0, 64, 61
2, 88033, Control_c, 0, 64, 65
2, 88049, Control_c, 0, 64, 70
2, 88064, Control_c, 0, 64, 81
2, 88079, Control_c, 0, 64, 127
2, 88232, Note_on_c, 0, 73, 84
2, 88291, Note_on_c, 0, 75, 0
2, 88372, Note_on_c, 0, 73, 0
2, 88390, Note_on_c, 0, 66, 0
2, 88426, Note_on_c, 0, 39, 0
2, 88545, Note_on_c, 0, 39, 55
2, 88546, Note_on_c, 0, 72, 70
2, 88549, Note_on_c, 0, 66, 62
2, 88554, Note_on_c, 0, 63, 60
2, 88589, Control_c, 0, 64, 110
2, 88603, Control_c, 0, 64, 74
2, 88619, Control_c, 0, 64, 57
2, 88634, Control_c, 0, 64, 0
2, 88665, Control_c, 0, 64, 31
2, 88679, Control_c, 0, 64, 51
2, 88695, Control_c, 0, 64, 60
2, 88710, Control_c, 0, 64, 65
2, 88725, Control_c, 0, 64, 81
2, 88725, Note_on_c, 0, 72, 0
2, 88734, Note_on_c, 0, 63, 0
2, 88741, Control_c, 0, 64, 127
2, 88823, Note_on_c, 0, 39, 0
2, 88866, Note_on_c, 0, 70, 71
2, 88878, Note_on_c, 0, 61, 56
2, 88895, Note_on_c, 0, 66, 0
2, 88980, Note_on_c, 0, 61, 0
2, 89016, Note_on_c, 0, 70, 0
2, 89252, Note_on_c, 0, 69, 52
2, 89253, Note_on_c, 0, 65, 53
2, 89262, Note_on_c, 0, 60, 48
2, 89271, Note_on_c, 0, 41, 38
2, 89281, Control_c, 0, 64, 97
2, 89297, Control_c, 0, 64, 73
2, 89311, Control_c, 0, 64, 57
2, 89327, Control_c, 0, 64, 0
2, 89432, Control_c, 0, 64, 45
2, 89448, Control_c, 0, 64, 56
2, 89463, Control_c, 0, 64, 62
2, 89474, Note_on_c, 0, 65, 0
2, 89478, Control_c, 0, 64, 67
2, 89494, Control_c, 0, 64, 76
2, 89508, Control_c, 0, 64, 92
2, 89509, Note_on_c, 0, 41, 0
2, 89523, Control_c, 0, 64, 106
2, 89539, Control_c, 0, 64, 119
2, 89554, Control_c, 0, 64, 127
2, 89584, Note_on_c, 0, 60, 0
2, 89768, Control_c, 0, 64, 116
2, 89783, Control_c, 0, 64, 107
2, 89798, Control_c, 0, 64, 100
2, 89814, Control_c, 0, 64, 94
2, 89829, Control_c, 0, 64, 88
2, 89844, Control_c, 0, 64, 82
2, 89860, Control_c, 0, 64, 76
2, 89881, Control_c, 0, 64, 71
2, 89889, Note_on_c, 0, 57, 40
2, 89897, Control_c, 0, 64, 64
2, 89900, Note_on_c, 0, 53, 35
2, 89908, Note_on_c, 0, 65, 43
2, 89912, Control_c, 0, 64, 55
2, 89918, Note_on_c, 0, 69, 0
2, 89928, Control_c, 0, 64, 37
2, 89943, Control_c, 0, 64, 0
2, 90193, Note_on_c, 0, 57, 0
2, 90194, Note_on_c, 0, 58, 41
2, 90195, Note_on_c, 0, 67, 51
2, 90196, Note_on_c, 0, 65, 0
2, 90241, Note_on_c, 0, 53, 0
2, 90493, Note_on_c, 0, 67, 0
2, 90501, Note_on_c, 0, 60, 44
2, 90502, Note_on_c, 0, 58, 0
2, 90505, Note_on_c, 0, 69, 48
2, 90525, Note_on_c, 0, 53, 26
2, 90550, Control_c, 0, 64, 17
2, 90565, Control_c, 0, 64, 38
2, 90581, Control_c, 0, 64, 49
2, 90596, Control_c, 0, 64, 56
2, 90612, Control_c, 0, 64, 61
2, 90627, Control_c, 0, 64, 64
2, 90651, Control_c, 0, 64, 75
2, 90665, Control_c, 0, 64, 98
2, 90680, Control_c, 0, 64, 127
2, 90764, Note_on_c, 0, 69, 0
2, 90823, Note_on_c, 0, 60, 0
2, 90851, Note_on_c, 0, 53, 0
2, 91104, Note_on_c, 0, 69, 51
2, 91115, Note_on_c, 0, 65, 45
2, 91118, Note_on_c, 0, 60, 40
2, 91134, Note_on_c, 0, 53, 34
2, 91134, Note_on_c, 0, 63, 39
2, 91138, Control_c, 0, 64, 97
2, 91153, Control_c, 0, 64, 76
2, 91169, Control_c, 0, 64, 64
2, 91184, Control_c, 0, 64, 51
2, 91198, Control_c, 0, 64, 47
2, 91214, Control_c, 0, 64, 55
2, 91229, Control_c, 0, 64, 61
2, 91245, Control_c, 0, 64, 64
2, 91259, Control_c, 0, 64, 68
2, 91274, Control_c, 0, 64, 81
2, 91290, Control_c, 0, 64, 127
2, 91377, Note_on_c, 0, 65, 0
2, 91394, Note_on_c, 0, 63, 0
2, 91421, Note_on_c, 0, 69, 0
2, 91434, Note_on_c, 0, 53, 0
2, 91593, Note_on_c, 0, 60, 0
2, 91717, Note_on_c, 0, 69, 54
2, 91722, Note_on_c, 0, 58, 39
2, 91725, Note_on_c, 0, 65, 49
2, 91729, Note_on_c, 0, 61, 40
2, 91748, Note_on_c, 0, 53, 36
2, 91770, Control_c, 0, 64, 91
2, 91785, Control_c, 0, 64, 72
2, 91801, Control_c, 0, 64, 58
2, 91816, Control_c, 0, 64, 19
2, 91830, Control_c, 0, 64, 0
2, 91861, Control_c, 0, 64, 26
2, 91876, Control_c, 0, 64, 49
2, 91891, Control_c, 0, 64, 58
2, 91906, Control_c, 0, 64, 63
2, 91922, Control_c, 0, 64, 71
2, 91937, Control_c, 0, 64, 90
2, 91952, Control_c, 0, 64, 127
2, 91994, Note_on_c, 0, 53, 0
2, 92006, Note_on_c, 0, 65, 0
2, 92281, Note_on_c, 0, 64, 55
2, 92282, Note_on_c, 0, 67, 57
2, 92293, Note_on_c, 0, 53, 39
2, 92326, Control_c, 0, 64, 96
2, 92326, Note_on_c, 0, 69, 0
2, 92340, Control_c, 0, 64, 75
2, 92355, Control_c, 0, 64, 64
2, 92371, Control_c, 0, 64, 48
2, 92386, Control_c, 0, 64, 35
2, 92402, Control_c, 0, 64, 47
2, 92416, Control_c, 0, 64, 57
2, 92431, Control_c, 0, 64, 62
2, 92439, Note_on_c, 0, 64, 0
2, 92447, Control_c, 0, 64, 67
2, 92462, Control_c, 0, 64, 80
2, 92477, Control_c, 0, 64, 127
2, 92561, Note_on_c, 0, 65, 59
2, 92564, Note_on_c, 0, 69, 60
2, 92577, Note_on_c, 0, 67, 0
2, 92643, Note_on_c, 0, 53, 0
2, 92864, Note_on_c, 0, 70, 63
2, 92867, Note_on_c, 0, 67, 60
2, 92872, Control_c, 0, 64, 116
2, 92879, Note_on_c, 0, 53, 39
2, 92886, Note_on_c, 0, 69, 0
2, 92887, Control_c, 0, 64, 80
2, 92902, Control_c, 0, 64, 64
2, 92917, Control_c, 0, 64, 24
2, 92933, Control_c, 0, 64, 0
2, 92966, Note_on_c, 0, 65, 0
2, 93002, Control_c, 0, 64, 45
2, 93017, Control_c, 0, 64, 60
2, 93031, Control_c, 0, 64, 66
2, 93048, Control_c, 0, 64, 78
2, 93063, Control_c, 0, 64, 127
2, 93075, Note_on_c, 0, 70, 0
2, 93087, Note_on_c, 0, 61, 0
2, 93161, Note_on_c, 0, 53, 0
2, 93176, Note_on_c, 0, 67, 0
2, 93469, Note_on_c, 0, 64, 62
2, 93470, Note_on_c, 0, 67, 63
2, 93471, Note_on_c, 0, 70, 63
2, 93476, Note_on_c, 0, 61, 57
2, 93491, Note_on_c, 0, 53, 46
2, 93500, Note_on_c, 0, 58, 0
2, 93503, Control_c, 0, 64, 104
2, 93518, Control_c, 0, 64, 73
2, 93534, Control_c, 0, 64, 56
2, 93549, Control_c, 0, 64, 0
2, 93610, Control_c, 0, 64, 43
2, 93625, Control_c, 0, 64, 59
2, 93641, Control_c, 0, 64, 66
2, 93655, Control_c, 0, 64, 75
2, 93670, Control_c, 0, 64, 127
2, 93721, Note_on_c, 0, 53, 0
2, 93750, Note_on_c, 0, 64, 0
2, 93757, Note_on_c, 0, 70, 0
2, 93759, Note_on_c, 0, 67, 0
2, 93802, Note_on_c, 0, 61, 0
2, 94066, Note_on_c, 0, 64, 64
2, 94067, Note_on_c, 0, 70, 65
2, 94069, Note_on_c, 0, 67, 64
2, 94070, Note_on_c, 0, 60, 54
2, 94081, Note_on_c, 0, 53, 49
2, 94119, Control_c, 0, 64, 92
2, 94135, Control_c, 0, 64, 66
2, 94150, Control_c, 0, 64, 38
2, 94166, Control_c, 0, 64, 0
2, 94211, Control_c, 0, 64, 46
2, 94225, Control_c, 0, 64, 62
2, 94241, Control_c, 0, 64, 67
2, 94256, Control_c, 0, 64, 77
2, 94271, Control_c, 0, 64, 114
2, 94287, Control_c, 0, 64, 127
2, 94394, Note_on_c, 0, 64, 0
2, 94401, Note_on_c, 0, 53, 0
2, 94454, Note_on_c, 0, 60, 0
2, 94613, Control_c, 0, 64, 111
2, 94615, Note_on_c, 0, 69, 69
2, 94620, Note_on_c, 0, 65, 66
2, 94622, Note_on_c, 0, 60, 58
2, 94628, Control_c, 0, 64, 71
2, 94636, Note_on_c, 0, 53, 51
2, 94644, Control_c, 0, 64, 0
2, 94665, Note_on_c, 0, 67, 0
2, 94669, Note_on_c, 0, 70, 0
2, 94766, Control_c, 0, 64, 33
2, 94781, Control_c, 0, 64, 52
2, 94796, Control_c, 0, 64, 61
2, 94812, Control_c, 0, 64, 68
2, 94827, Control_c, 0, 64, 82
2, 94843, Control_c, 0, 64, 127
2, 94894, Note_on_c, 0, 70, 76
2, 94903, Note_on_c, 0, 61, 72
2, 94909, Note_on_c, 0, 67, 73
2, 94925, Note_on_c, 0, 69, 0
2, 94931, Note_on_c, 0, 60, 0
2, 94940, Note_on_c, 0, 65, 0
2, 95030, Note_on_c, 0, 53, 0
2, 95033, Note_on_c, 0, 61, 0
2, 95170, Note_on_c, 0, 70, 0
2, 95196, Note_on_c, 0, 63, 65
2, 95196, Note_on_c, 0, 69, 70
2, 95196, Note_on_c, 0, 72, 76
2, 95206, Note_on_c, 0, 53, 54
2, 95221, Control_c, 0, 64, 72
2, 95222, Note_on_c, 0, 67, 0
2, 95236, Control_c, 0, 64, 22
2, 95260, Control_c, 0, 64, 0
2, 95351, Control_c, 0, 64, 51
2, 95366, Control_c, 0, 64, 67
2, 95381, Control_c, 0, 64, 86
2, 95396, Control_c, 0, 64, 127
2, 95431, Note_on_c, 0, 72, 0
2, 95462, Note_on_c, 0, 53, 0
2, 95464, Note_on_c, 0, 69, 0
2, 95467, Note_on_c, 0, 63, 0
2, 95784, Note_on_c, 0, 65, 72
2, 95784, Note_on_c, 0, 72, 72
2, 95786, Note_on_c, 0, 69, 73
2, 95790, Note_on_c, 0, 63, 69
2, 95797, Note_on_c, 0, 53, 57
2, 95823, Control_c, 0, 64, 114
2, 95838, Control_c, 0, 64, 74
2, 95854, Control_c, 0, 64, 57
2, 95868, Control_c, 0, 64, 0
2, 95913, Control_c, 0, 64, 40
2, 95929, Control_c, 0, 64, 58
2, 95944, Control_c, 0, 64, 67
2, 95959, Control_c, 0, 64, 96
2, 95975, Control_c, 0, 64, 127
2, 96048, Note_on_c, 0, 69, 0
2, 96053, Note_on_c, 0, 72, 0
2, 96063, Note_on_c, 0, 65, 0
2, 96065, Note_on_c, 0, 63, 0
2, 96128, Note_on_c, 0, 53, 0
2, 96372, Note_on_c, 0, 72, 77
2, 96376, Note_on_c, 0, 65, 73
2, 96377, Note_on_c, 0, 69, 74
2, 96378, Note_on_c, 0, 61, 67
2, 96391, Note_on_c, 0, 53, 55
2, 96420, Control_c, 0, 64, 97
2, 96435, Control_c, 0, 64, 69
2, 96450, Control_c, 0, 64, 31
2, 96466, Control_c, 0, 64, 0
2, 96526, Control_c, 0, 64, 42
2, 96542, Control_c, 0, 64, 59
2, 96556, Control_c, 0, 64, 72
2, 96571, Control_c, 0, 64, 127
2, 96705, Note_on_c, 0, 69, 0
2, 96755, Note_on_c, 0, 53, 0
2, 96755, Note_on_c, 0, 61, 0
2, 96918, Note_on_c, 0, 72, 0
2, 96963, Note_on_c, 0, 70, 74
2, 96968, Note_on_c, 0, 61, 66
2, 96968, Note_on_c, 0, 67, 72
2, 96971, Note_on_c, 0, 53, 57
2, 96975, Control_c, 0, 64, 113
2, 96990, Control_c, 0, 64, 69
2, 97005, Control_c, 0, 64, 0
2, 97066, Control_c, 0, 64, 52
2, 97081, Control_c, 0, 64, 72
2, 97097, Control_c, 0, 64, 127
2, 97150, Note_on_c, 0, 67, 0
2, 97242, Note_on_c, 0, 70, 0
2, 97243, Note_on_c, 0, 72, 82
2, 97248, Note_on_c, 0, 69, 80
2, 97255, Note_on_c, 0, 60, 77
2, 97310, Note_on_c, 0, 61, 0
2, 97332, Note_on_c, 0, 53, 0
2, 97351, Note_on_c, 0, 69, 0
2, 97559, Note_on_c, 0, 58, 68
2, 97562, Note_on_c, 0, 73, 88
2, 97563, Note_on_c, 0, 70, 77
2, 97578, Note_on_c, 0, 53, 61
2, 97595, Note_on_c, 0, 72, 0
2, 97620, Control_c, 0, 64, 70
2, 97629, Note_on_c, 0, 60, 0
2, 97635, Control_c, 0, 64, 17
2, 97650, Control_c, 0, 64, 0
2, 97711, Control_c, 0, 64, 30
2, 97726, Control_c, 0, 64, 63
2, 97742, Control_c, 0, 64, 73
2, 97756, Control_c, 0, 64, 127
2, 97767, Note_on_c, 0, 65, 0
2, 97771, Note_on_c, 0, 73, 0
2, 97822, Note_on_c, 0, 58, 0
2, 97837, Note_on_c, 0, 53, 0
2, 97876, Note_on_c, 0, 70, 0
2, 98101, Note_on_c, 0, 58, 67
2, 98103, Note_on_c, 0, 65, 77
2, 98103, Note_on_c, 0, 70, 77
2, 98104, Note_on_c, 0, 73, 87
2, 98106, Note_on_c, 0, 53, 65
2, 98152, Control_c, 0, 64, 92
2, 98167, Control_c, 0, 64, 64
2, 98183, Control_c, 0, 64, 0
2, 98243, Control_c, 0, 64, 43
2, 98259, Control_c, 0, 64, 64
2, 98274, Control_c, 0, 64, 76
2, 98289, Control_c, 0, 64, 127
2, 98393, Note_on_c, 0, 65, 0
2, 98418, Note_on_c, 0, 56, 84
2, 98446, Note_on_c, 0, 70, 0
2, 98469, Note_on_c, 0, 73, 0
2, 98479, Note_on_c, 0, 58, 0
2, 98542, Note_on_c, 0, 53, 0
2, 98714, Note_on_c, 0, 66, 82
2, 98714, Note_on_c, 0, 73, 89
2, 98717, Note_on_c, 0, 70, 84
2, 98730, Note_on_c, 0, 54, 78
2, 98735, Note_on_c, 0, 53, 73
2, 98752, Control_c, 0, 64, 76
2, 98766, Note_on_c, 0, 56, 0
2, 98767, Control_c, 0, 64, 0
2, 98844, Control_c, 0, 64, 38
2, 98860, Control_c, 0, 64, 64
2, 98874, Control_c, 0, 64, 91
2, 98889, Control_c, 0, 64, 127
2, 98945, Note_on_c, 0, 53, 0
2, 98978, Note_on_c, 0, 54, 0
2, 98981, Note_on_c, 0, 66, 0
2, 99007, Note_on_c, 0, 70, 0
2, 99015, Note_on_c, 0, 73, 0
2, 99291, Note_on_c, 0, 72, 87
2, 99294, Note_on_c, 0, 54, 80
2, 99295, Note_on_c, 0, 66, 77
2, 99295, Note_on_c, 0, 69, 74
2, 99296, Note_on_c, 0, 51, 77
2, 99325, Control_c, 0, 64, 69
2, 99341, Control_c, 0, 64, 0
2, 99416, Control_c, 0, 64, 49
2, 99417, Note_on_c, 0, 69, 0
2, 99431, Control_c, 0, 64, 68
2, 99446, Control_c, 0, 64, 127
2, 99472, Note_on_c, 0, 54, 0
2, 99591, Note_on_c, 0, 73, 89
2, 99593, Note_on_c, 0, 70, 90
2, 99597, Note_on_c, 0, 53, 84
2, 99603, Note_on_c, 0, 49, 81
2, 99622, Note_on_c, 0, 66, 0
2, 99627, Note_on_c, 0, 51, 0
2, 99685, Note_on_c, 0, 72, 0
2, 99713, Note_on_c, 0, 53, 0
2, 99719, Note_on_c, 0, 73, 0
2, 99952, Note_on_c, 0, 69, 81
2, 99955, Note_on_c, 0, 51, 78
2, 99956, Note_on_c, 0, 66, 87
2, 99956, Note_on_c, 0, 72, 79
2, 99959, Note_on_c, 0, 75, 88
2, 99960, Note_on_c, 0, 54, 85
2, 99968, Note_on_c, 0, 70, 0
2, 99971, Note_on_c, 0, 48, 75
2, 99972, Note_on_c, 0, 49, 0
2, 100002, Control_c, 0, 64, 73
2, 100017, Control_c, 0, 64, 0
2, 100123, Control_c, 0, 64, 53
2, 100139, Control_c, 0, 64, 66
2, 100153, Control_c, 0, 64, 107
2, 100169, Control_c, 0, 64, 127
2, 100205, Note_on_c, 0, 66, 0
2, 100233, Note_on_c, 0, 69, 0
2, 100245, Note_on_c, 0, 48, 0
2, 100256, Note_on_c, 0, 54, 0
2, 100262, Note_on_c, 0, 72, 0
2, 100292, Note_on_c, 0, 75, 0
2, 100345, Note_on_c, 0, 51, 0
2, 100559, Note_on_c, 0, 66, 86
2, 100559, Note_on_c, 0, 75, 86
2, 100563, Note_on_c, 0, 54, 85
2, 100564, Note_on_c, 0, 51, 77
2, 100564, Note_on_c, 0, 72, 83
2, 100565, Note_on_c, 0, 69, 79
2, 100573, Note_on_c, 0, 48, 71
2, 100584, Control_c, 0, 64, 81
2, 100600, Control_c, 0, 64, 44
2, 100615, Control_c, 0, 64, 0
2, 100668, Control_c, 0, 64, 50
2, 100684, Control_c, 0, 64, 76
2, 100699, Control_c, 0, 64, 127
2, 100734, Note_on_c, 0, 66, 0
2, 100754, Note_on_c, 0, 69, 0
2, 100771, Note_on_c, 0, 72, 0
2, 100792, Note_on_c, 0, 75, 0
2, 100802, Note_on_c, 0, 48, 0
2, 100900, Note_on_c, 0, 51, 0
2, 100968, Note_on_c, 0, 49, 78
2, 100969, Note_on_c, 0, 46, 80
2, 100969, Note_on_c, 0, 73, 95
2, 100969, Note_on_c, 0, 77, 97
2, 101002, Control_c, 0, 64, 94
2, 101019, Control_c, 0, 64, 62
2, 101035, Control_c, 0, 64, 0
2, 101074, Note_on_c, 0, 54, 0
2, 101081, Control_c, 0, 64, 57
2, 101096, Control_c, 0, 64, 70
2, 101110, Note_on_c, 0, 77, 0
2, 101111, Control_c, 0, 64, 127
2, 101235, Note_on_c, 0, 46, 0
2, 101269, Note_on_c, 0, 73, 0
2, 101310, Note_on_c, 0, 49, 0
2, 101601, Note_on_c, 0, 69, 83
2, 101601, Note_on_c, 0, 78, 87
2, 101602, Note_on_c, 0, 72, 87
2, 101602, Note_on_c, 0, 75, 86
2, 101603, Note_on_c, 0, 66, 87
2, 101606, Note_on_c, 0, 51, 79
2, 101607, Note_on_c, 0, 54, 86
2, 101613, Note_on_c, 0, 48, 74
2, 101615, Note_on_c, 0, 45, 76
2, 101727, Control_c, 0, 64, 101
2, 101742, Control_c, 0, 64, 83
2, 101757, Control_c, 0, 64, 72
2, 101772, Control_c, 0, 64, 63
2, 101788, Control_c, 0, 64, 43
2, 101803, Control_c, 0, 64, 0
2, 104138, Note_on_c, 0, 69, 0
2, 104159, Note_on_c, 0, 72, 0
2, 104184, Note_on_c, 0, 48, 0
2, 104209, Note_on_c, 0, 45, 0
2, 104241, Note_on_c, 0, 78, 0
2, 104242, Note_on_c, 0, 54, 0
2, 104248, Note_on_c, 0, 66, 0
2, 104265, Note_on_c, 0, 51, 0
2, 104275, Note_on_c, 0, 75, 0
2, 105286, Control_c, 0, 64, 12
2, 105302, Control_c, 0, 64, 35
2, 105317, Control_c, 0, 64, 43
2, 105333, Control_c, 0, 64, 50
2, 105348, Control_c, 0, 64, 54
2, 105363, Control_c, 0, 64, 58
2, 105379, Control_c, 0, 64, 62
2, 105394, Control_c, 0, 64, 64
2, 105410, Control_c, 0, 64, 66
2, 105425, Control_c, 0, 64, 69
2, 105439, Control_c, 0, 64, 76
2, 105455, Control_c, 0, 64, 89
2, 105462, Note_on_c, 0, 65, 35
2, 105470, Control_c, 0, 64, 127
2, 105476, Note_on_c, 0, 57, 32
2, 105516, Note_on_c, 0, 77, 64
2, 105525, Note_on_c, 0, 72, 41
2, 105619, Note_on_c, 0, 72, 0
2, 105670, Note_on_c, 0, 57, 0
2, 105683, Note_on_c, 0, 65, 0
2, 105760, Note_on_c, 0, 77, 0
2, 106198, Note_on_c, 0, 65, 30
2, 106198, Note_on_c, 0, 73, 62
2, 106204, Note_on_c, 0, 58, 27
2, 106208, Note_on_c, 0, 70, 49
2, 106237, Control_c, 0, 64, 87
2, 106253, Control_c, 0, 64, 71
2, 106268, Control_c, 0, 64, 60
2, 106283, Control_c, 0, 64, 33
2, 106314, Control_c, 0, 64, 49
2, 106330, Control_c, 0, 64, 57
2, 106345, Control_c, 0, 64, 62
2, 106359, Control_c, 0, 64, 65
2, 106375, Control_c, 0, 64, 72
2, 106380, Note_on_c, 0, 65, 0
2, 106390, Control_c, 0, 64, 108
2, 106404, Control_c, 0, 64, 127
2, 106485, Note_on_c, 0, 70, 0
2, 106500, Note_on_c, 0, 58, 0
2, 106561, Note_on_c, 0, 73, 0
2, 106808, Note_on_c, 0, 70, 62
2, 106809, Note_on_c, 0, 58, 42
2, 106810, Note_on_c, 0, 75, 61
2, 106816, Note_on_c, 0, 54, 41
2, 106989, Note_on_c, 0, 75, 0
2, 107084, Note_on_c, 0, 66, 60
2, 107091, Note_on_c, 0, 72, 72
2, 107098, Note_on_c, 0, 51, 40
2, 107122, Note_on_c, 0, 70, 0
2, 107124, Note_on_c, 0, 58, 0
2, 107286, Note_on_c, 0, 66, 0
2, 107306, Note_on_c, 0, 54, 0
2, 107390, Note_on_c, 0, 53, 42
2, 107421, Note_on_c, 0, 65, 50
2, 107426, Note_on_c, 0, 73, 67
2, 107429, Note_on_c, 0, 70, 60
2, 107445, Control_c, 0, 64, 101
2, 107461, Control_c, 0, 64, 75
2, 107467, Note_on_c, 0, 72, 0
2, 107476, Control_c, 0, 64, 60
2, 107492, Control_c, 0, 64, 0
2, 107510, Note_on_c, 0, 51, 0
2, 107589, Control_c, 0, 64, 48
2, 107604, Control_c, 0, 64, 60
2, 107620, Control_c, 0, 64, 64
2, 107635, Control_c, 0, 64, 70
2, 107642, Note_on_c, 0, 73, 0
2, 107651, Control_c, 0, 64, 85
2, 107662, Note_on_c, 0, 65, 0
2, 107666, Control_c, 0, 64, 127
2, 107989, Note_on_c, 0, 41, 45
2, 107993, Note_on_c, 0, 69, 63
2, 107995, Note_on_c, 0, 63, 52
2, 107995, Note_on_c, 0, 70, 0
2, 107995, Note_on_c, 0, 72, 62
2, 108016, Control_c, 0, 64, 102
2, 108031, Control_c, 0, 64, 74
2, 108046, Control_c, 0, 64, 60
2, 108062, Control_c, 0, 64, 0
2, 108107, Control_c, 0, 64, 48
2, 108122, Control_c, 0, 64, 59
2, 108138, Control_c, 0, 64, 65
2, 108153, Control_c, 0, 64, 73
2, 108168, Control_c, 0, 64, 95
2, 108183, Control_c, 0, 64, 127
2, 108228, Note_on_c, 0, 69, 0
2, 108307, Note_on_c, 0, 70, 68
2, 108369, Note_on_c, 0, 72, 0
2, 108378, Note_on_c, 0, 41, 0
2, 108541, Note_on_c, 0, 70, 0
2, 108568, Note_on_c, 0, 63, 0
2, 108739, Note_on_c, 0, 46, 45
2, 108775, Note_on_c, 0, 62, 61
2, 108776, Note_on_c, 0, 70, 63
2, 108815, Control_c, 0, 64, 96
2, 108830, Control_c, 0, 64, 71
2, 108845, Control_c, 0, 64, 49
2, 108852, Note_on_c, 0, 53, 0
2, 108860, Control_c, 0, 64, 0
2, 108936, Control_c, 0, 64, 35
2, 108951, Control_c, 0, 64, 57
2, 108966, Control_c, 0, 64, 64
2, 108982, Control_c, 0, 64, 70
2, 108997, Control_c, 0, 64, 83
2, 109012, Control_c, 0, 64, 127
2, 109084, Note_on_c, 0, 46, 0
2, 109114, Note_on_c, 0, 62, 0
2, 109379, Note_on_c, 0, 65, 58
2, 109397, Note_on_c, 0, 62, 46
2, 109399, Note_on_c, 0, 53, 52
2, 109411, Note_on_c, 0, 46, 46
2, 109431, Control_c, 0, 64, 105
2, 109446, Control_c, 0, 64, 77
2, 109461, Control_c, 0, 64, 64
2, 109476, Control_c, 0, 64, 51
2, 109492, Control_c, 0, 64, 47
2, 109506, Control_c, 0, 64, 57
2, 109521, Control_c, 0, 64, 63
2, 109537, Control_c, 0, 64, 68
2, 109552, Control_c, 0, 64, 79
2, 109557, Note_on_c, 0, 65, 0
2, 109568, Control_c, 0, 64, 112
2, 109583, Control_c, 0, 64, 127
2, 109662, Note_on_c, 0, 51, 62
2, 109662, Note_on_c, 0, 63, 64
2, 109666, Note_on_c, 0, 66, 66
2, 109668, Note_on_c, 0, 62, 0
2, 109719, Note_on_c, 0, 53, 0
2, 109765, Note_on_c, 0, 46, 0
2, 109950, Note_on_c, 0, 50, 58
2, 109955, Control_c, 0, 64, 80
2, 109957, Note_on_c, 0, 68, 64
2, 109960, Note_on_c, 0, 63, 0
2, 109960, Note_on_c, 0, 65, 63
2, 109964, Note_on_c, 0, 66, 0
2, 109968, Note_on_c, 0, 46, 39
2, 109971, Control_c, 0, 64, 62
2, 109980, Note_on_c, 0, 51, 0
2, 109986, Control_c, 0, 64, 0
2, 110093, Control_c, 0, 64, 35
2, 110108, Control_c, 0, 64, 58
2, 110122, Control_c, 0, 64, 65
2, 110138, Control_c, 0, 64, 74
2, 110153, Control_c, 0, 64, 99
2, 110169, Control_c, 0, 64, 127
2, 110191, Note_on_c, 0, 65, 0
2, 110206, Note_on_c, 0, 46, 0
2, 110227, Note_on_c, 0, 48, 61
2, 110240, Note_on_c, 0, 68, 0
2, 110289, Note_on_c, 0, 50, 0
2, 110531, Note_on_c, 0, 51, 58
2, 110537, Note_on_c, 0, 68, 53
2, 110548, Note_on_c, 0, 65, 55
2, 110549, Control_c, 0, 64, 96
2, 110557, Note_on_c, 0, 46, 47
2, 110563, Control_c, 0, 64, 68
2, 110570, Note_on_c, 0, 48, 0
2, 110579, Control_c, 0, 64, 24
2, 110594, Control_c, 0, 64, 0
2, 110693, Control_c, 0, 64, 24
2, 110708, Control_c, 0, 64, 53
2, 110722, Control_c, 0, 64, 63
2, 110738, Control_c, 0, 64, 68
2, 110753, Control_c, 0, 64, 80
2, 110769, Control_c, 0, 64, 127
2, 110839, Note_on_c, 0, 50, 59
2, 110853, Note_on_c, 0, 46, 0
2, 110869, Note_on_c, 0, 51, 0
2, 110875, Note_on_c, 0, 68, 0
2, 110876, Note_on_c, 0, 65, 0
2, 110931, Note_on_c, 0, 50, 0
2, 111186, Note_on_c, 0, 50, 55
2, 111194, Control_c, 0, 64, 96
2, 111194, Note_on_c, 0, 68, 53
2, 111196, Note_on_c, 0, 65, 47
2, 111202, Note_on_c, 0, 46, 43
2, 111210, Control_c, 0, 64, 70
2, 111225, Control_c, 0, 64, 47
2, 111240, Control_c, 0, 64, 0
2, 111332, Control_c, 0, 64, 47
2, 111347, Control_c, 0, 64, 60
2, 111361, Control_c, 0, 64, 65
2, 111385, Control_c, 0, 64, 70
2, 111399, Control_c, 0, 64, 79
2, 111413, Note_on_c, 0, 65, 0
2, 111415, Control_c, 0, 64, 96
2, 111430, Control_c, 0, 64, 127
2, 111442, Note_on_c, 0, 68, 0
2, 111451, Note_on_c, 0, 46, 0
2, 111613, Note_on_c, 0, 50, 0
2, 111805, Note_on_c, 0, 51, 53
2, 111811, Control_c, 0, 64, 85
2, 111817, Note_on_c, 0, 66, 46
2, 111820, Note_on_c, 0, 63, 43
2, 111825, Control_c, 0, 64, 65
2, 111831, Note_on_c, 0, 46, 43
2, 111840, Control_c, 0, 64, 21
2, 111856, Control_c, 0, 64, 0
2, 111933, Control_c, 0, 64, 37
2, 111948, Control_c, 0, 64, 57
2, 111963, Control_c, 0, 64, 63
2, 111979, Control_c, 0, 64, 68
2, 111993, Control_c, 0, 64, 80
2, 112009, Control_c, 0, 64, 104
2, 112024, Control_c, 0, 64, 127
2, 112134, Note_on_c, 0, 53, 54
2, 112200, Note_on_c, 0, 53, 0
2, 112244, Note_on_c, 0, 46, 0
2, 112534, Note_on_c, 0, 54, 50
2, 112538, Note_on_c, 0, 51, 0
2, 112557, Note_on_c, 0, 46, 37
2, 112563, Control_c, 0, 64, 84
2, 112579, Control_c, 0, 64, 64
2, 112594, Control_c, 0, 64, 0
2, 112684, Control_c, 0, 64, 48
2, 112701, Control_c, 0, 64, 62
2, 112716, Control_c, 0, 64, 68
2, 112732, Control_c, 0, 64, 89
2, 112747, Control_c, 0, 64, 127
2, 112753, Note_on_c, 0, 63, 0
2, 112853, Control_c, 0, 67, 40
2, 112868, Control_c, 0, 67, 58
2, 112875, Note_on_c, 0, 46, 0
2, 112875, Note_on_c, 0, 54, 0
2, 112882, Control_c, 0, 67, 70
2, 112898, Control_c, 0, 67, 83
2, 112921, Control_c, 0, 67, 94
2, 112937, Control_c, 0, 67, 105
2, 112952, Control_c, 0, 67, 113
2, 112966, Control_c, 0, 67, 118
2, 112982, Control_c, 0, 67, 119
2, 113028, Control_c, 0, 67, 119
2, 113235, Note_on_c, 0, 54, 45
2, 113254, Note_on_c, 0, 46, 33
2, 113255, Control_c, 0, 64, 82
2, 113255, Note_on_c, 0, 62, 45
2, 113258, Note_on_c, 0, 65, 49
2, 113270, Control_c, 0, 64, 63
2, 113270, Control_c, 0, 67, 119
2, 113285, Control_c, 0, 64, 0
2, 113285, Control_c, 0, 67, 118
2, 113300, Control_c, 0, 67, 118
2, 113315, Control_c, 0, 67, 117
2, 113328, Note_on_c, 0, 66, 0
2, 113361, Control_c, 0, 64, 26
2, 113377, Control_c, 0, 64, 54
2, 113392, Control_c, 0, 64, 62
2, 113408, Control_c, 0, 64, 66
2, 113423, Control_c, 0, 64, 74
2, 113437, Control_c, 0, 64, 99
2, 113450, Note_on_c, 0, 62, 0
2, 113453, Control_c, 0, 64, 127
2, 113605, Control_c, 0, 67, 118
2, 113636, Control_c, 0, 67, 118
2, 113652, Control_c, 0, 67, 119
2, 113667, Control_c, 0, 67, 122
2, 113690, Control_c, 0, 67, 124
2, 113705, Control_c, 0, 67, 127
2, 113772, Note_on_c, 0, 63, 49
2, 113775, Note_on_c, 0, 60, 42
2, 113796, Control_c, 0, 64, 88
2, 113801, Note_on_c, 0, 65, 0
2, 113811, Control_c, 0, 64, 71
2, 113826, Control_c, 0, 64, 58
2, 113841, Control_c, 0, 64, 0
2, 113933, Control_c, 0, 64, 47
2, 113948, Control_c, 0, 64, 58
2, 113963, Control_c, 0, 64, 63
2, 113979, Control_c, 0, 64, 68
2, 113994, Control_c, 0, 64, 74
2, 114009, Control_c, 0, 64, 90
2, 114024, Control_c, 0, 64, 124
2, 114039, Control_c, 0, 64, 127
2, 114058, Note_on_c, 0, 46, 0
2, 114077, Note_on_c, 0, 60, 0
2, 114113, Note_on_c, 0, 54, 0
2, 114317, Note_on_c, 0, 63, 0
2, 115135, Note_on_c, 0, 65, 38
2, 115137, Note_on_c, 0, 62, 31
2, 115144, Note_on_c, 0, 53, 32
2, 115164, Note_on_c, 0, 46, 33
2, 115240, Control_c, 0, 64, 121
2, 115256, Control_c, 0, 64, 103
2, 115271, Control_c, 0, 64, 93
2, 115286, Control_c, 0, 64, 87
2, 115301, Control_c, 0, 64, 82
2, 115316, Control_c, 0, 64, 77
2, 115332, Control_c, 0, 64, 72
2, 115347, Control_c, 0, 64, 68
2, 115362, Control_c, 0, 64, 65
2, 115377, Control_c, 0, 64, 59
2, 115392, Control_c, 0, 64, 52
2, 115408, Control_c, 0, 64, 45
2, 115422, Control_c, 0, 64, 41
2, 115437, Control_c, 0, 64, 38
2, 115453, Control_c, 0, 64, 35
2, 115468, Control_c, 0, 64, 30
2, 115483, Control_c, 0, 64, 21
2, 115499, Control_c, 0, 64, 0
2, 118089, Note_on_c, 0, 53, 0
2, 118134, Note_on_c, 0, 46, 0
2, 118137, Note_on_c, 0, 62, 0
2, 118151, Note_on_c, 0, 65, 0
2, 118219, Note_on_c, 0, 70, 0
2, 119696, Note_on_c, 0, 70, 53
2, 120738, Note_on_c, 0, 65, 41
2, 120957, Note_on_c, 0, 70, 0
2, 121732, Note_on_c, 0, 65, 0
2, 122142, Note_on_c, 0, 78, 64
2, 122559, Note_on_c, 0, 77, 61
2, 122694, Note_on_c, 0, 78, 0
2, 122976, Note_on_c, 0, 75, 62
2, 123089, Note_on_c, 0, 77, 0
2, 123371, Note_on_c, 0, 65, 55
2, 123371, Note_on_c, 0, 73, 55
2, 123426, Note_on_c, 0, 75, 0
2, 123769, Note_on_c, 0, 72, 56
2, 123810, Note_on_c, 0, 73, 0
2, 124182, Note_on_c, 0, 58, 50
2, 124183, Note_on_c, 0, 73, 59
2, 124252, Note_on_c, 0, 72, 0
2, 124338, Note_on_c, 0, 65, 0
2, 124599, Note_on_c, 0, 75, 62
2, 124665, Note_on_c, 0, 73, 0
2, 124984, Note_on_c, 0, 77, 66
2, 125038, Note_on_c, 0, 58, 0
2, 125038, Note_on_c, 0, 75, 0
2, 125387, Note_on_c, 0, 73, 61
2, 125390, Note_on_c, 0, 76, 63
2, 125428, Note_on_c, 0, 77, 0
2, 125570, Note_on_c, 0, 77, 69
2, 125609, Note_on_c, 0, 76, 0
2, 125774, Note_on_c, 0, 72, 50
2, 125781, Note_on_c, 0, 79, 68
2, 125819, Note_on_c, 0, 77, 0
2, 125882, Note_on_c, 0, 73, 0
2, 126183, Note_on_c, 0, 70, 54
2, 126305, Note_on_c, 0, 72, 0
2, 126558, Note_on_c, 0, 68, 56
2, 126674, Note_on_c, 0, 70, 0
2, 126712, Note_on_c, 0, 79, 0
2, 126957, Note_on_c, 0, 80, 63
2, 126968, Note_on_c, 0, 67, 40
2, 127063, Note_on_c, 0, 68, 0
2, 127140, Note_on_c, 0, 79, 66
2, 127198, Note_on_c, 0, 80, 0
2, 127341, Note_on_c, 0, 77, 67
2, 127351, Note_on_c, 0, 68, 45
2, 127405, Note_on_c, 0, 79, 0
2, 127425, Note_on_c, 0, 67, 0
2, 127751, Note_on_c, 0, 70, 50
2, 127812, Note_on_c, 0, 68, 0
2, 128157, Note_on_c, 0, 72, 49
2, 128239, Note_on_c, 0, 77, 0
2, 128245, Note_on_c, 0, 70, 0
2, 128526, Note_on_c, 0, 75, 58
2, 128712, Note_on_c, 0, 73, 63
2, 128765, Note_on_c, 0, 75, 0
2, 128906, Note_on_c, 0, 75, 65
2, 128979, Note_on_c, 0, 73, 0
2, 129290, Note_on_c, 0, 77, 65
2, 129297, Note_on_c, 0, 70, 48
2, 129352, Note_on_c, 0, 75, 0
2, 129450, Note_on_c, 0, 72, 0
2, 129459, Note_on_c, 0, 69, 54
2, 129499, Note_on_c, 0, 70, 0
2, 129667, Note_on_c, 0, 78, 72
2, 129670, Note_on_c, 0, 70, 46
2, 129710, Note_on_c, 0, 69, 0
2, 129737, Note_on_c, 0, 77, 0
2, 130078, Note_on_c, 0, 72, 54
2, 130154, Note_on_c, 0, 70, 0
2, 130454, Note_on_c, 0, 73, 51
2, 130540, Note_on_c, 0, 72, 0
2, 130835, Note_on_c, 0, 77, 63
2, 130878, Note_on_c, 0, 78, 0
2, 131011, Note_on_c, 0, 75, 66
2, 131061, Note_on_c, 0, 77, 0
2, 131228, Note_on_c, 0, 77, 68
2, 131273, Note_on_c, 0, 75, 0
2, 131614, Note_on_c, 0, 79, 74
2, 131629, Note_on_c, 0, 72, 52
2, 131669, Note_on_c, 0, 73, 0
2, 131683, Note_on_c, 0, 77, 0
2, 131792, Note_on_c, 0, 70, 60
2, 131853, Note_on_c, 0, 72, 0
2, 131995, Note_on_c, 0, 72, 51
2, 131998, Note_on_c, 0, 80, 70
2, 132038, Note_on_c, 0, 79, 0
2, 132098, Note_on_c, 0, 70, 0
2, 132379, Note_on_c, 0, 74, 56
2, 132443, Note_on_c, 0, 72, 0
2, 132752, Note_on_c, 0, 75, 55
2, 132795, Note_on_c, 0, 74, 0
2, 133143, Note_on_c, 0, 79, 62
2, 133187, Note_on_c, 0, 80, 0
2, 133320, Note_on_c, 0, 77, 67
2, 133352, Note_on_c, 0, 79, 0
2, 133510, Note_on_c, 0, 79, 65
2, 133524, Control_c, 0, 67, 125
2, 133538, Note_on_c, 0, 77, 0
2, 133540, Control_c, 0, 67, 123
2, 133555, Control_c, 0, 67, 120
2, 133569, Control_c, 0, 67, 118
2, 133585, Control_c, 0, 67, 114
2, 133600, Control_c, 0, 67, 109
2, 133616, Control_c, 0, 67, 105
2, 133631, Control_c, 0, 67, 100
2, 133653, Control_c, 0, 67, 94
2, 133669, Control_c, 0, 67, 86
2, 133684, Control_c, 0, 67, 77
2, 133700, Control_c, 0, 67, 70
2, 133715, Control_c, 0, 67, 63
2, 133730, Control_c, 0, 67, 58
2, 133746, Control_c, 0, 67, 48
2, 133761, Control_c, 0, 67, 37
2, 133776, Control_c, 0, 67, 25
2, 133791, Control_c, 0, 67, 13
2, 133806, Control_c, 0, 67, 0
2, 133922, Note_on_c, 0, 81, 65
2, 133923, Note_on_c, 0, 73, 56
2, 133927, Control_c, 0, 64, 40
2, 133937, Note_on_c, 0, 79, 0
2, 133943, Control_c, 0, 64, 58
2, 133958, Control_c, 0, 64, 72
2, 133971, Note_on_c, 0, 75, 0
2, 133972, Control_c, 0, 64, 108
2, 133988, Control_c, 0, 64, 127
2, 134126, Note_on_c, 0, 72, 58
2, 134140, Note_on_c, 0, 73, 0
2, 134160, Note_on_c, 0, 72, 0
2, 134348, Note_on_c, 0, 58, 74
2, 134352, Note_on_c, 0, 82, 64
2, 134357, Note_on_c, 0, 73, 56
2, 134400, Note_on_c, 0, 81, 0
2, 134436, Control_c, 0, 64, 112
2, 134451, Control_c, 0, 64, 88
2, 134467, Control_c, 0, 64, 74
2, 134482, Control_c, 0, 64, 65
2, 134497, Control_c, 0, 64, 54
2, 134512, Control_c, 0, 64, 34
2, 134527, Control_c, 0, 64, 21
2, 134543, Control_c, 0, 64, 0
2, 134743, Note_on_c, 0, 75, 68
2, 134841, Note_on_c, 0, 73, 0
2, 135131, Note_on_c, 0, 53, 55
2, 135154, Note_on_c, 0, 77, 63
2, 135187, Note_on_c, 0, 75, 0
2, 135225, Note_on_c, 0, 58, 0
2, 135533, Note_on_c, 0, 81, 62
2, 135708, Note_on_c, 0, 82, 0
2, 135711, Note_on_c, 0, 79, 68
2, 135740, Note_on_c, 0, 81, 0
2, 135920, Note_on_c, 0, 81, 66
2, 135928, Note_on_c, 0, 53, 0
2, 135941, Note_on_c, 0, 77, 0
2, 135965, Note_on_c, 0, 79, 0
2, 136285, Note_on_c, 0, 66, 69
2, 136291, Control_c, 0, 64, 30
2, 136292, Note_on_c, 0, 82, 70
2, 136298, Note_on_c, 0, 75, 64
2, 136306, Control_c, 0, 64, 48
2, 136321, Control_c, 0, 64, 56
2, 136337, Control_c, 0, 64, 62
2, 136339, Note_on_c, 0, 81, 0
2, 136352, Control_c, 0, 64, 66
2, 136367, Control_c, 0, 64, 82
2, 136382, Control_c, 0, 64, 127
2, 136464, Note_on_c, 0, 75, 0
2, 136477, Note_on_c, 0, 73, 71
2, 136529, Note_on_c, 0, 82, 0
2, 136530, Note_on_c, 0, 73, 0
2, 136692, Note_on_c, 0, 65, 65
2, 136693, Note_on_c, 0, 75, 73
2, 136693, Note_on_c, 0, 84, 76
2, 136757, Control_c, 0, 64, 79
2, 136773, Control_c, 0, 64, 59
2, 136781, Note_on_c, 0, 66, 0
2, 136788, Control_c, 0, 64, 0
2, 136849, Control_c, 0, 64, 12
2, 136864, Control_c, 0, 64, 54
2, 136879, Control_c, 0, 64, 64
2, 136894, Control_c, 0, 64, 73
2, 136909, Control_c, 0, 64, 127
2, 137110, Note_on_c, 0, 63, 69
2, 137116, Note_on_c, 0, 65, 0
2, 137236, Note_on_c, 0, 63, 0
2, 137510, Note_on_c, 0, 53, 75
2, 137511, Control_c, 0, 64, 104
2, 137512, Note_on_c, 0, 61, 72
2, 137526, Control_c, 0, 64, 66
2, 137542, Control_c, 0, 64, 0
2, 137663, Control_c, 0, 64, 59
2, 137678, Control_c, 0, 64, 68
2, 137685, Note_on_c, 0, 84, 0
2, 137694, Control_c, 0, 64, 80
2, 137709, Control_c, 0, 64, 124
2, 137724, Control_c, 0, 64, 127
2, 137734, Note_on_c, 0, 61, 0
2, 137756, Note_on_c, 0, 75, 0
2, 137902, Note_on_c, 0, 60, 66
2, 137904, Note_on_c, 0, 77, 73
2, 137906, Note_on_c, 0, 82, 74
2, 138028, Note_on_c, 0, 60, 0
2, 138059, Note_on_c, 0, 53, 0
2, 138086, Note_on_c, 0, 77, 0
2, 138087, Note_on_c, 0, 81, 75
2, 138089, Note_on_c, 0, 82, 0
2, 138098, Note_on_c, 0, 75, 70
2, 138153, Note_on_c, 0, 75, 0
2, 138284, Note_on_c, 0, 46, 79
2, 138287, Note_on_c, 0, 58, 75
2, 138306, Note_on_c, 0, 82, 79
2, 138309, Control_c, 0, 64, 91
2, 138316, Note_on_c, 0, 73, 67
2, 138324, Control_c, 0, 64, 63
2, 138340, Control_c, 0, 64, 0
2, 138346, Note_on_c, 0, 81, 0
2, 138431, Control_c, 0, 64, 45
2, 138445, Control_c, 0, 64, 65
2, 138461, Control_c, 0, 64, 82
2, 138474, Note_on_c, 0, 46, 0
2, 138476, Control_c, 0, 64, 127
2, 138548, Note_on_c, 0, 73, 0
2, 138689, Note_on_c, 0, 60, 65
2, 138698, Note_on_c, 0, 80, 74
2, 138700, Note_on_c, 0, 72, 67
2, 138736, Note_on_c, 0, 82, 0
2, 138743, Note_on_c, 0, 58, 0
2, 138862, Note_on_c, 0, 72, 0
2, 138866, Note_on_c, 0, 61, 79
2, 138891, Note_on_c, 0, 60, 0
2, 138994, Control_c, 0, 64, 121
2, 139010, Control_c, 0, 64, 110
2, 139031, Control_c, 0, 64, 103
2, 139046, Control_c, 0, 64, 97
2, 139062, Control_c, 0, 64, 90
2, 139076, Control_c, 0, 64, 83
2, 139085, Note_on_c, 0, 63, 67
2, 139092, Control_c, 0, 64, 76
2, 139098, Note_on_c, 0, 78, 73
2, 139101, Note_on_c, 0, 70, 66
2, 139107, Control_c, 0, 64, 70
2, 139122, Control_c, 0, 64, 64
2, 139130, Note_on_c, 0, 80, 0
2, 139138, Control_c, 0, 64, 55
2, 139153, Control_c, 0, 64, 40
2, 139156, Note_on_c, 0, 61, 0
2, 139169, Control_c, 0, 64, 0
2, 139480, Note_on_c, 0, 65, 65
2, 139484, Note_on_c, 0, 61, 63
2, 139489, Note_on_c, 0, 77, 77
2, 139520, Note_on_c, 0, 78, 0
2, 139570, Note_on_c, 0, 63, 0
2, 139873, Note_on_c, 0, 66, 66
2, 139877, Note_on_c, 0, 60, 61
2, 139880, Note_on_c, 0, 65, 0
2, 139880, Note_on_c, 0, 75, 73
2, 139911, Note_on_c, 0, 77, 0
2, 139913, Note_on_c, 0, 61, 0
2, 140002, Note_on_c, 0, 70, 0
2, 140204, Note_on_c, 0, 66, 0
2, 140250, Note_on_c, 0, 58, 57
2, 140256, Note_on_c, 0, 69, 62
2, 140316, Control_c, 0, 64, 26
2, 140331, Control_c, 0, 64, 50
2, 140344, Note_on_c, 0, 60, 0
2, 140346, Control_c, 0, 64, 59
2, 140361, Control_c, 0, 64, 64
2, 140377, Control_c, 0, 64, 77
2, 140392, Control_c, 0, 64, 127
2, 140447, Note_on_c, 0, 70, 71
2, 140463, Note_on_c, 0, 69, 0
2, 140633, Note_on_c, 0, 75, 0
2, 140654, Note_on_c, 0, 58, 0
2, 140660, Control_c, 0, 64, 91
2, 140668, Note_on_c, 0, 57, 53
2, 140669, Note_on_c, 0, 65, 55
2, 140672, Note_on_c, 0, 72, 67
2, 140675, Control_c, 0, 64, 65
2, 140691, Control_c, 0, 64, 0
2, 140703, Note_on_c, 0, 70, 0
2, 140751, Control_c, 0, 64, 54
2, 140765, Control_c, 0, 64, 69
2, 140781, Control_c, 0, 64, 93
2, 140796, Control_c, 0, 64, 127
2, 140797, Note_on_c, 0, 65, 0
2, 140802, Note_on_c, 0, 72, 0
2, 141061, Note_on_c, 0, 63, 62
2, 141063, Note_on_c, 0, 69, 65
2, 141066, Note_on_c, 0, 77, 71
2, 141072, Note_on_c, 0, 53, 54
2, 141072, Note_on_c, 0, 57, 0
2, 141085, Control_c, 0, 64, 114
2, 141100, Control_c, 0, 64, 75
2, 141115, Control_c, 0, 64, 56
2, 141131, Control_c, 0, 64, 0
2, 141176, Control_c, 0, 64, 29
2, 141191, Control_c, 0, 64, 57
2, 141206, Control_c, 0, 64, 67
2, 141207, Note_on_c, 0, 69, 0
2, 141222, Control_c, 0, 64, 86
2, 141237, Control_c, 0, 64, 127
2, 141243, Note_on_c, 0, 63, 0
2, 141247, Note_on_c, 0, 78, 79
2, 141267, Note_on_c, 0, 77, 0
2, 141454, Note_on_c, 0, 77, 78
2, 141458, Note_on_c, 0, 61, 64
2, 141458, Note_on_c, 0, 70, 66
2, 141460, Note_on_c, 0, 55, 57
2, 141489, Control_c, 0, 64, 81
2, 141496, Note_on_c, 0, 78, 0
2, 141504, Control_c, 0, 64, 61
2, 141510, Note_on_c, 0, 53, 0
2, 141519, Control_c, 0, 64, 0
2, 141564, Control_c, 0, 64, 22
2, 141580, Control_c, 0, 64, 60
2, 141595, Control_c, 0, 64, 74
2, 141610, Control_c, 0, 64, 127
2, 141676, Note_on_c, 0, 70, 0
2, 141690, Note_on_c, 0, 61, 0
2, 141841, Note_on_c, 0, 57, 63
2, 141845, Note_on_c, 0, 60, 69
2, 141849, Note_on_c, 0, 55, 0
2, 141850, Note_on_c, 0, 75, 80
2, 141852, Note_on_c, 0, 72, 71
2, 141868, Control_c, 0, 64, 91
2, 141879, Note_on_c, 0, 77, 0
2, 141883, Control_c, 0, 64, 65
2, 141899, Control_c, 0, 64, 0
2, 141930, Control_c, 0, 64, 34
2, 141944, Control_c, 0, 64, 62
2, 141959, Control_c, 0, 64, 75
2, 141975, Control_c, 0, 64, 127
2, 141985, Note_on_c, 0, 60, 0
2, 141985, Note_on_c, 0, 72, 0
2, 142003, Note_on_c, 0, 75, 0
2, 142006, Note_on_c, 0, 57, 0
2, 142257, Note_on_c, 0, 58, 78
2, 142268, Note_on_c, 0, 73, 78
2, 142269, Note_on_c, 0, 61, 73
2, 142270, Note_on_c, 0, 46, 68
2, 142300, Control_c, 0, 64, 97
2, 142315, Control_c, 0, 64, 67
2, 142330, Control_c, 0, 64, 0
2, 142406, Control_c, 0, 64, 30
2, 142422, Control_c, 0, 64, 59
2, 142437, Control_c, 0, 64, 69
2, 142451, Control_c, 0, 64, 97
2, 142467, Control_c, 0, 64, 127
2, 142508, Note_on_c, 0, 61, 0
2, 142651, Note_on_c, 0, 48, 65
2, 142653, Note_on_c, 0, 70, 75
2, 142661, Note_on_c, 0, 63, 69
2, 142675, Note_on_c, 0, 58, 0
2, 142697, Note_on_c, 0, 46, 0
2, 142709, Note_on_c, 0, 73, 0
2, 142739, Note_on_c, 0, 63, 0
2, 142833, Note_on_c, 0, 69, 81
2, 142839, Note_on_c, 0, 70, 0
2, 143029, Note_on_c, 0, 48, 0
2, 143037, Control_c, 0, 64, 101
2, 143040, Note_on_c, 0, 49, 78
2, 143043, Note_on_c, 0, 70, 78
2, 143046, Note_on_c, 0, 41, 75
2, 143048, Note_on_c, 0, 65, 71
2, 143049, Note_on_c, 0, 69, 0
2, 143052, Control_c, 0, 64, 84
2, 143067, Control_c, 0, 64, 70
2, 143082, Control_c, 0, 64, 61
2, 143098, Control_c, 0, 64, 27
2, 143113, Control_c, 0, 64, 0
2, 143443, Note_on_c, 0, 51, 62
2, 143448, Note_on_c, 0, 66, 64
2, 143462, Note_on_c, 0, 49, 0
2, 143501, Note_on_c, 0, 65, 0
2, 143508, Control_c, 0, 64, 48
2, 143523, Control_c, 0, 64, 56
2, 143538, Control_c, 0, 64, 58
2, 143552, Note_on_c, 0, 41, 0
2, 143553, Control_c, 0, 64, 61
2, 143568, Control_c, 0, 64, 65
2, 143584, Control_c, 0, 64, 70
2, 143599, Control_c, 0, 64, 82
2, 143614, Control_c, 0, 64, 95
2, 143637, Control_c, 0, 64, 112
2, 143652, Control_c, 0, 64, 127
2, 143842, Note_on_c, 0, 53, 56
2, 143843, Note_on_c, 0, 72, 66
2, 143849, Note_on_c, 0, 60, 58
2, 143881, Control_c, 0, 64, 110
2, 143896, Note_on_c, 0, 66, 0
2, 143897, Control_c, 0, 64, 98
2, 143904, Note_on_c, 0, 70, 0
2, 143912, Control_c, 0, 64, 89
2, 143927, Control_c, 0, 64, 83
2, 143934, Note_on_c, 0, 51, 0
2, 143942, Control_c, 0, 64, 77
2, 143957, Control_c, 0, 64, 72
2, 143972, Control_c, 0, 64, 67
2, 143988, Control_c, 0, 64, 63
2, 144003, Control_c, 0, 64, 56
2, 144018, Control_c, 0, 64, 46
2, 144033, Control_c, 0, 64, 37
2, 144048, Control_c, 0, 64, 29
2, 144064, Control_c, 0, 64, 20
2, 144079, Control_c, 0, 64, 0
2, 144235, Note_on_c, 0, 54, 80
2, 144298, Note_on_c, 0, 53, 0
2, 144638, Note_on_c, 0, 56, 67
2, 144642, Note_on_c, 0, 65, 69
2, 144643, Note_on_c, 0, 53, 68
2, 144643, Note_on_c, 0, 68, 76
2, 144678, Note_on_c, 0, 54, 0
2, 144681, Note_on_c, 0, 72, 0
2, 144731, Note_on_c, 0, 60, 0
2, 145046, Note_on_c, 0, 51, 67
2, 145072, Note_on_c, 0, 53, 0
2, 145207, Note_on_c, 0, 56, 0
2, 145446, Note_on_c, 0, 58, 63
2, 145452, Note_on_c, 0, 70, 73
2, 145457, Note_on_c, 0, 50, 56
2, 145507, Note_on_c, 0, 51, 0
2, 145531, Note_on_c, 0, 68, 0
2, 145543, Note_on_c, 0, 65, 0
2, 145850, Note_on_c, 0, 62, 60
2, 145852, Note_on_c, 0, 46, 57
2, 146028, Note_on_c, 0, 50, 0
2, 146237, Note_on_c, 0, 48, 59
2, 146239, Note_on_c, 0, 63, 65
2, 146325, Note_on_c, 0, 62, 0
2, 146337, Note_on_c, 0, 46, 0
2, 146619, Note_on_c, 0, 50, 57
2, 146623, Note_on_c, 0, 48, 0
2, 146628, Note_on_c, 0, 65, 66
2, 146691, Note_on_c, 0, 63, 0
2, 147023, Note_on_c, 0, 66, 63
2, 147032, Note_on_c, 0, 51, 43
2, 147062, Note_on_c, 0, 50, 0
2, 147062, Note_on_c, 0, 65, 0
2, 147122, Note_on_c, 0, 58, 0
2, 147396, Note_on_c, 0, 53, 51
2, 147422, Note_on_c, 0, 63, 61
2, 147555, Note_on_c, 0, 51, 0
2, 147594, Note_on_c, 0, 62, 67
2, 147595, Note_on_c, 0, 63, 0
2, 147788, Note_on_c, 0, 63, 68
2, 147789, Note_on_c, 0, 62, 0
2, 147795, Note_on_c, 0, 51, 51
2, 147821, Note_on_c, 0, 70, 0
2, 147874, Note_on_c, 0, 53, 0
2, 148167, Note_on_c, 0, 49, 49
2, 148182, Note_on_c, 0, 75, 72
2, 148194, Control_c, 0, 64, 40
2, 148210, Control_c, 0, 64, 54
2, 148225, Control_c, 0, 64, 64
2, 148228, Note_on_c, 0, 51, 0
2, 148247, Control_c, 0, 64, 77
2, 148263, Control_c, 0, 64, 127
2, 148318, Note_on_c, 0, 75, 0
2, 148356, Note_on_c, 0, 49, 0
2, 148566, Note_on_c, 0, 60, 61
2, 148567, Note_on_c, 0, 68, 66
2, 148568, Note_on_c, 0, 48, 56
2, 148582, Control_c, 0, 64, 81
2, 148597, Control_c, 0, 64, 60
2, 148613, Control_c, 0, 64, 0
2, 148658, Control_c, 0, 64, 58
2, 148673, Control_c, 0, 64, 77
2, 148679, Note_on_c, 0, 60, 0
2, 148688, Control_c, 0, 64, 127
2, 148715, Note_on_c, 0, 48, 0
2, 148956, Note_on_c, 0, 48, 62
2, 148957, Note_on_c, 0, 44, 55
2, 149012, Control_c, 0, 64, 77
2, 149028, Control_c, 0, 64, 57
2, 149043, Control_c, 0, 64, 0
2, 149088, Control_c, 0, 64, 33
2, 149104, Control_c, 0, 64, 60
2, 149119, Control_c, 0, 64, 71
2, 149133, Control_c, 0, 64, 94
2, 149149, Control_c, 0, 64, 127
2, 149348, Note_on_c, 0, 49, 64
2, 149359, Note_on_c, 0, 46, 60
2, 149362, Control_c, 0, 64, 92
2, 149378, Control_c, 0, 64, 65
2, 149382, Note_on_c, 0, 44, 0
2, 149393, Control_c, 0, 64, 0
2, 149417, Note_on_c, 0, 48, 0
2, 149499, Control_c, 0, 64, 27
2, 149514, Control_c, 0, 64, 60
2, 149529, Control_c, 0, 64, 71
2, 149544, Control_c, 0, 64, 92
2, 149559, Control_c, 0, 64, 127
2, 149748, Note_on_c, 0, 51, 68
2, 149750, Note_on_c, 0, 49, 0
2, 149753, Note_on_c, 0, 48, 69
2, 149758, Control_c, 0, 64, 94
2, 149777, Note_on_c, 0, 46, 0
2, 149781, Control_c, 0, 64, 66
2, 149796, Control_c, 0, 64, 0
2, 149857, Control_c, 0, 64, 41
2, 149859, Note_on_c, 0, 66, 0
2, 149871, Note_on_c, 0, 63, 0
2, 149872, Control_c, 0, 64, 64
2, 149887, Control_c, 0, 64, 80
2, 149888, Note_on_c, 0, 48, 0
2, 149902, Control_c, 0, 64, 127
2, 149978, Note_on_c, 0, 51, 0
2, 150154, Note_on_c, 0, 65, 72
2, 150158, Note_on_c, 0, 61, 66
2, 150165, Note_on_c, 0, 53, 59
2, 150174, Note_on_c, 0, 49, 51
2, 150191, Control_c, 0, 64, 107
2, 150191, Note_on_c, 0, 68, 0
2, 150206, Control_c, 0, 64, 68
2, 150222, Control_c, 0, 64, 0
2, 150327, Control_c, 0, 64, 47
2, 150343, Control_c, 0, 64, 60
2, 150358, Control_c, 0, 64, 65
2, 150373, Control_c, 0, 64, 81
2, 150390, Control_c, 0, 64, 127
2, 150472, Note_on_c, 0, 61, 0
2, 150526, Note_on_c, 0, 65, 0
2, 150553, Note_on_c, 0, 51, 66
2, 150604, Note_on_c, 0, 53, 0
2, 150660, Note_on_c, 0, 49, 0
2, 150920, Note_on_c, 0, 73, 86
2, 150921, Note_on_c, 0, 70, 77
2, 150923, Note_on_c, 0, 65, 75
2, 150925, Note_on_c, 0, 53, 63
2, 150942, Note_on_c, 0, 46, 51
2, 150944, Control_c, 0, 64, 107
2, 150959, Control_c, 0, 64, 70
2, 150974, Control_c, 0, 64, 0
2, 151003, Note_on_c, 0, 51, 0
2, 151111, Control_c, 0, 64, 20
2, 151126, Control_c, 0, 64, 61
2, 151142, Control_c, 0, 64, 69
2, 151157, Control_c, 0, 64, 87
2, 151172, Control_c, 0, 64, 127
2, 151175, Note_on_c, 0, 46, 0
2, 151317, Note_on_c, 0, 54, 74
2, 151350, Note_on_c, 0, 53, 0
2, 151408, Note_on_c, 0, 70, 0
2, 151487, Note_on_c, 0, 54, 0
2, 151707, Note_on_c, 0, 56, 62
2, 151713, Note_on_c, 0, 68, 75
2, 151713, Note_on_c, 0, 72, 80
2, 151722, Note_on_c, 0, 53, 55
2, 151743, Note_on_c, 0, 73, 0
2, 151773, Control_c, 0, 64, 81
2, 151789, Control_c, 0, 64, 51
2, 151803, Control_c, 0, 64, 0
2, 151910, Control_c, 0, 64, 54
2, 151925, Control_c, 0, 64, 67
2, 151941, Control_c, 0, 64, 80
2, 151955, Control_c, 0, 64, 127
2, 152049, Note_on_c, 0, 68, 0
2, 152086, Note_on_c, 0, 58, 75
2, 152117, Note_on_c, 0, 56, 0
2, 152135, Note_on_c, 0, 53, 0
2, 152138, Note_on_c, 0, 72, 0
2, 152265, Note_on_c, 0, 60, 84
2, 152316, Note_on_c, 0, 58, 0
2, 152346, Note_on_c, 0, 60, 0
2, 152453, Note_on_c, 0, 77, 85
2, 152454, Note_on_c, 0, 58, 71
2, 152454, Note_on_c, 0, 73, 79
2, 152469, Note_on_c, 0, 49, 62
2, 152526, Control_c, 0, 64, 73
2, 152542, Control_c, 0, 64, 37
2, 152557, Control_c, 0, 64, 0
2, 152663, Control_c, 0, 64, 51
2, 152678, Control_c, 0, 64, 64
2, 152693, Control_c, 0, 64, 75
2, 152709, Control_c, 0, 64, 101
2, 152723, Control_c, 0, 64, 127
2, 152803, Note_on_c, 0, 49, 0
2, 152846, Note_on_c, 0, 56, 69
2, 152882, Note_on_c, 0, 58, 0
2, 153075, Note_on_c, 0, 56, 0
2, 153215, Note_on_c, 0, 54, 70
2, 153227, Note_on_c, 0, 51, 61
2, 153227, Note_on_c, 0, 70, 86
2, 153230, Note_on_c, 0, 77, 0
2, 153246, Control_c, 0, 64, 84
2, 153261, Control_c, 0, 64, 60
2, 153277, Control_c, 0, 64, 0
2, 153281, Note_on_c, 0, 73, 0
2, 153301, Note_on_c, 0, 65, 0
2, 153337, Control_c, 0, 64, 56
2, 153353, Control_c, 0, 64, 73
2, 153368, Control_c, 0, 64, 127
2, 153386, Note_on_c, 0, 51, 0
2, 153613, Note_on_c, 0, 72, 83
2, 153617, Note_on_c, 0, 68, 76
2, 153618, Note_on_c, 0, 56, 65
2, 153618, Note_on_c, 0, 70, 0
2, 153625, Note_on_c, 0, 53, 54
2, 153647, Control_c, 0, 64, 92
2, 153657, Note_on_c, 0, 54, 0
2, 153664, Control_c, 0, 64, 65
2, 153679, Control_c, 0, 64, 0
2, 153724, Control_c, 0, 64, 18
2, 153739, Control_c, 0, 64, 59
2, 153755, Control_c, 0, 64, 75
2, 153770, Control_c, 0, 64, 127
2, 153770, Note_on_c, 0, 53, 0
2, 153788, Note_on_c, 0, 68, 0
2, 154018, Note_on_c, 0, 58, 56
2, 154021, Note_on_c, 0, 70, 76
2, 154021, Note_on_c, 0, 75, 83
2, 154022, Note_on_c, 0, 54, 53
2, 154022, Note_on_c, 0, 66, 69
2, 154048, Note_on_c, 0, 72, 0
2, 154059, Control_c, 0, 64, 69
2, 154064, Note_on_c, 0, 56, 0
2, 154074, Control_c, 0, 64, 0
2, 154165, Control_c, 0, 64, 50
2, 154180, Control_c, 0, 64, 65
2, 154195, Control_c, 0, 64, 82
2, 154210, Control_c, 0, 64, 127
2, 154286, Note_on_c, 0, 66, 0
2, 154405, Note_on_c, 0, 65, 72
2, 154405, Note_on_c, 0, 73, 79
2, 154408, Note_on_c, 0, 60, 69
2, 154440, Note_on_c, 0, 70, 0
2, 154462, Note_on_c, 0, 75, 0
2, 154509, Note_on_c, 0, 58, 0
2, 154564, Note_on_c, 0, 65, 0
2, 154580, Note_on_c, 0, 60, 0
2, 154580, Note_on_c, 0, 61, 75
2, 154766, Control_c, 0, 64, 108
2, 154781, Control_c, 0, 64, 94
2, 154793, Note_on_c, 0, 56, 64
2, 154796, Note_on_c, 0, 72, 70
2, 154797, Control_c, 0, 64, 82
2, 154797, Note_on_c, 0, 63, 63
2, 154803, Note_on_c, 0, 68, 65
2, 154812, Control_c, 0, 64, 73
2, 154828, Control_c, 0, 64, 66
2, 154842, Control_c, 0, 64, 56
2, 154851, Note_on_c, 0, 54, 0
2, 154851, Note_on_c, 0, 73, 0
2, 154854, Note_on_c, 0, 61, 0
2, 154857, Control_c, 0, 64, 23
2, 154873, Control_c, 0, 64, 0
2, 155191, Note_on_c, 0, 53, 51
2, 155396, Note_on_c, 0, 63, 0
2, 155577, Note_on_c, 0, 65, 53
2, 155577, Note_on_c, 0, 73, 66
2, 155594, Note_on_c, 0, 51, 45
2, 155629, Note_on_c, 0, 72, 0
2, 155650, Note_on_c, 0, 56, 0
2, 155686, Note_on_c, 0, 53, 0
2, 155981, Note_on_c, 0, 49, 46
2, 156121, Note_on_c, 0, 51, 0
2, 156131, Note_on_c, 0, 65, 0
2, 156392, Note_on_c, 0, 63, 46
2, 156396, Note_on_c, 0, 56, 46
2, 156462, Note_on_c, 0, 68, 0
2, 156500, Note_on_c, 0, 49, 0
2, 156803, Note_on_c, 0, 70, 58
2, 156830, Note_on_c, 0, 73, 0
2, 157204, Note_on_c, 0, 72, 56
2, 157205, Note_on_c, 0, 44, 40
2, 157205, Note_on_c, 0, 68, 52
2, 157209, Note_on_c, 0, 70, 0
2, 157313, Control_c, 0, 64, 34
2, 157328, Control_c, 0, 64, 48
2, 157344, Control_c, 0, 64, 57
2, 157359, Control_c, 0, 64, 64
2, 157373, Control_c, 0, 64, 70
2, 157389, Control_c, 0, 64, 76
2, 157404, Control_c, 0, 64, 82
2, 157419, Control_c, 0, 64, 88
2, 157435, Control_c, 0, 64, 97
2, 157458, Control_c, 0, 64, 127
2, 157525, Note_on_c, 0, 44, 0
2, 157584, Note_on_c, 0, 56, 0
2, 157621, Note_on_c, 0, 66, 51
2, 157713, Note_on_c, 0, 72, 0
2, 157747, Note_on_c, 0, 63, 0
2, 157753, Note_on_c, 0, 66, 0
2, 158030, Note_on_c, 0, 49, 45
2, 158067, Note_on_c, 0, 73, 89
2, 158068, Note_on_c, 0, 65, 62
2, 158077, Note_on_c, 0, 61, 55
2, 158097, Control_c, 0, 64, 114
2, 158113, Control_c, 0, 64, 80
2, 158114, Note_on_c, 0, 68, 0
2, 158128, Control_c, 0, 64, 62
2, 158142, Control_c, 0, 64, 0
2, 158272, Control_c, 0, 64, 30
2, 158287, Control_c, 0, 64, 61
2, 158302, Control_c, 0, 64, 69
2, 158318, Control_c, 0, 64, 81
2, 158324, Note_on_c, 0, 49, 0
2, 158333, Control_c, 0, 64, 105
2, 158339, Note_on_c, 0, 61, 0
2, 158348, Control_c, 0, 64, 127
2, 158390, Note_on_c, 0, 65, 0
2, 158486, Note_on_c, 0, 63, 58
2, 158497, Note_on_c, 0, 60, 59
2, 158571, Note_on_c, 0, 63, 0
2, 158579, Note_on_c, 0, 60, 0
2, 158861, Note_on_c, 0, 65, 53
2, 158862, Note_on_c, 0, 61, 51
2, 158880, Note_on_c, 0, 68, 84
2, 158926, Control_c, 0, 64, 102
2, 158941, Control_c, 0, 64, 68
2, 158957, Control_c, 0, 64, 32
2, 158972, Control_c, 0, 64, 0
2, 158993, Note_on_c, 0, 73, 0
2, 159040, Control_c, 0, 64, 45
2, 159055, Control_c, 0, 64, 59
2, 159070, Control_c, 0, 64, 66
2, 159082, Note_on_c, 0, 61, 0
2, 159085, Control_c, 0, 64, 81
2, 159100, Control_c, 0, 64, 127
2, 159254, Note_on_c, 0, 65, 0
2, 159259, Note_on_c, 0, 66, 74
2, 159275, Note_on_c, 0, 63, 54
2, 159395, Note_on_c, 0, 68, 0
2, 159421, Note_on_c, 0, 63, 0
2, 159668, Note_on_c, 0, 68, 65
2, 159678, Note_on_c, 0, 65, 66
2, 159688, Note_on_c, 0, 66, 0
2, 159763, Control_c, 0, 64, 94
2, 159779, Control_c, 0, 64, 75
2, 159794, Control_c, 0, 64, 65
2, 159809, Control_c, 0, 64, 50
2, 159825, Control_c, 0, 64, 0
2, 160037, Control_c, 0, 64, 10
2, 160052, Control_c, 0, 64, 35
2, 160066, Note_on_c, 0, 83, 82
2, 160068, Control_c, 0, 64, 46
2, 160083, Control_c, 0, 64, 54
2, 160099, Control_c, 0, 64, 60
2, 160107, Note_on_c, 0, 65, 0
2, 160113, Control_c, 0, 64, 63
2, 160128, Control_c, 0, 64, 67
2, 160144, Control_c, 0, 64, 78
2, 160159, Control_c, 0, 64, 111
2, 160173, Control_c, 0, 64, 127
2, 160451, Note_on_c, 0, 65, 52
2, 160465, Note_on_c, 0, 62, 46
2, 160480, Note_on_c, 0, 82, 82
2, 160606, Note_on_c, 0, 83, 0
2, 160669, Control_c, 0, 64, 113
2, 160683, Control_c, 0, 64, 106
2, 160699, Control_c, 0, 64, 102
2, 160714, Control_c, 0, 64, 100
2, 160729, Control_c, 0, 64, 98
2, 160745, Control_c, 0, 64, 96
2, 160760, Control_c, 0, 64, 94
2, 160765, Note_on_c, 0, 68, 0
2, 160775, Control_c, 0, 64, 92
2, 160791, Control_c, 0, 64, 90
2, 160805, Control_c, 0, 64, 89
2, 160821, Control_c, 0, 64, 87
2, 160836, Control_c, 0, 64, 86
2, 160851, Control_c, 0, 64, 84
2, 160861, Note_on_c, 0, 80, 80
2, 160867, Control_c, 0, 64, 83
2, 160881, Control_c, 0, 64, 82
2, 160897, Control_c, 0, 64, 82
2, 160912, Control_c, 0, 64, 81
2, 160927, Control_c, 0, 64, 80
2, 160944, Note_on_c, 0, 62, 0
2, 160957, Control_c, 0, 64, 80
2, 160970, Note_on_c, 0, 82, 0
2, 161125, Control_c, 0, 64, 79
2, 161186, Control_c, 0, 64, 79
2, 161232, Control_c, 0, 64, 78
2, 161246, Control_c, 0, 64, 77
2, 161262, Control_c, 0, 64, 75
2, 161274, Note_on_c, 0, 70, 86
2, 161277, Control_c, 0, 64, 72
2, 161280, Note_on_c, 0, 78, 70
2, 161302, Control_c, 0, 64, 69
2, 161306, Note_on_c, 0, 63, 59
2, 161313, Note_on_c, 0, 80, 0
2, 161316, Control_c, 0, 64, 65
2, 161331, Control_c, 0, 64, 59
2, 161347, Control_c, 0, 64, 49
2, 161360, Note_on_c, 0, 65, 0
2, 161362, Control_c, 0, 64, 32
2, 161378, Control_c, 0, 64, 13
2, 161393, Control_c, 0, 64, 0
2, 161677, Note_on_c, 0, 77, 75
2, 161740, Note_on_c, 0, 78, 0
2, 161872, Note_on_c, 0, 63, 0
2, 161925, Control_c, 0, 64, 8
2, 161941, Control_c, 0, 64, 10
2, 161970, Control_c, 0, 64, 12
2, 162031, Control_c, 0, 64, 13
2, 162046, Control_c, 0, 64, 15
2, 162047, Note_on_c, 0, 63, 71
2, 162063, Note_on_c, 0, 78, 70
2, 162069, Control_c, 0, 64, 17
2, 162084, Control_c, 0, 64, 19
2, 162100, Control_c, 0, 64, 22
2, 162114, Control_c, 0, 64, 26
2, 162126, Note_on_c, 0, 77, 0
2, 162129, Control_c, 0, 64, 33
2, 162145, Control_c, 0, 64, 41
2, 162160, Control_c, 0, 64, 48
2, 162175, Control_c, 0, 64, 54
2, 162191, Control_c, 0, 64, 59
2, 162206, Control_c, 0, 64, 63
2, 162222, Control_c, 0, 64, 67
2, 162237, Control_c, 0, 64, 77
2, 162251, Control_c, 0, 64, 124
2, 162267, Control_c, 0, 64, 127
2, 162435, Note_on_c, 0, 65, 59
2, 162441, Note_on_c, 0, 80, 74
2, 162523, Note_on_c, 0, 78, 0
2, 162565, Note_on_c, 0, 63, 0
2, 162726, Note_on_c, 0, 70, 0
2, 162834, Note_on_c, 0, 66, 57
2, 162841, Note_on_c, 0, 82, 77
2, 162851, Control_c, 0, 64, 90
2, 162867, Control_c, 0, 64, 67
2, 162875, Note_on_c, 0, 80, 0
2, 162879, Note_on_c, 0, 65, 0
2, 162881, Control_c, 0, 64, 44
2, 162897, Control_c, 0, 64, 0
2, 162927, Control_c, 0, 64, 39
2, 162942, Control_c, 0, 64, 62
2, 162957, Control_c, 0, 64, 73
2, 162972, Control_c, 0, 64, 127
2, 163225, Note_on_c, 0, 78, 79
2, 163226, Note_on_c, 0, 81, 78
2, 163236, Note_on_c, 0, 63, 53
2, 163261, Control_c, 0, 64, 100
2, 163262, Note_on_c, 0, 82, 0
2, 163276, Control_c, 0, 64, 76
2, 163291, Control_c, 0, 64, 67
2, 163322, Control_c, 0, 64, 71
2, 163337, Control_c, 0, 64, 77
2, 163347, Note_on_c, 0, 66, 0
2, 163352, Control_c, 0, 64, 91
2, 163367, Control_c, 0, 64, 127
2, 163396, Note_on_c, 0, 82, 78
2, 163423, Note_on_c, 0, 81, 0
2, 163613, Note_on_c, 0, 84, 82
2, 163614, Note_on_c, 0, 77, 84
2, 163622, Note_on_c, 0, 69, 78
2, 163634, Control_c, 0, 64, 74
2, 163649, Control_c, 0, 64, 40
2, 163655, Note_on_c, 0, 78, 0
2, 163665, Control_c, 0, 64, 0
2, 163671, Note_on_c, 0, 82, 0
2, 163725, Control_c, 0, 64, 13
2, 163741, Control_c, 0, 64, 62
2, 163754, Note_on_c, 0, 63, 0
2, 163756, Control_c, 0, 64, 80
2, 163770, Control_c, 0, 64, 127
2, 163827, Note_on_c, 0, 84, 0
2, 163998, Note_on_c, 0, 75, 84
2, 164010, Note_on_c, 0, 67, 85
2, 164041, Note_on_c, 0, 77, 0
2, 164058, Note_on_c, 0, 69, 0
2, 164179, Note_on_c, 0, 65, 85
2, 164205, Note_on_c, 0, 67, 0
2, 164264, Note_on_c, 0, 65, 0
2, 164434, Note_on_c, 0, 58, 85
2, 164450, Note_on_c, 0, 70, 80
2, 164452, Note_on_c, 0, 73, 82
2, 164464, Control_c, 0, 64, 94
2, 164479, Control_c, 0, 64, 62
2, 164486, Note_on_c, 0, 75, 0
2, 164493, Control_c, 0, 64, 0
2, 164569, Control_c, 0, 64, 22
2, 164585, Control_c, 0, 64, 61
2, 164600, Control_c, 0, 64, 71
2, 164615, Control_c, 0, 64, 111
2, 164631, Control_c, 0, 64, 127
2, 164742, Note_on_c, 0, 70, 0
2, 164823, Note_on_c, 0, 73, 0
2, 164845, Note_on_c, 0, 82, 80
2, 164847, Note_on_c, 0, 77, 77
2, 165246, Note_on_c, 0, 53, 75
2, 165246, Note_on_c, 0, 75, 75
2, 165248, Note_on_c, 0, 72, 69
2, 165306, Control_c, 0, 64, 84
2, 165313, Note_on_c, 0, 77, 0
2, 165315, Note_on_c, 0, 82, 0
2, 165321, Control_c, 0, 64, 57
2, 165335, Control_c, 0, 64, 0
2, 165353, Note_on_c, 0, 58, 0
2, 165411, Control_c, 0, 64, 46
2, 165427, Control_c, 0, 64, 63
2, 165442, Control_c, 0, 64, 72
2, 165457, Control_c, 0, 64, 119
2, 165472, Control_c, 0, 64, 127
2, 165631, Note_on_c, 0, 81, 81
2, 165758, Note_on_c, 0, 72, 0
2, 165797, Note_on_c, 0, 75, 0
2, 165798, Note_on_c, 0, 81, 0
2, 166053, Note_on_c, 0, 70, 67
2, 166053, Note_on_c, 0, 74, 71
2, 166053, Note_on_c, 0, 82, 76
2, 166090, Note_on_c, 0, 53, 0
2, 166134, Control_c, 0, 64, 99
2, 166150, Control_c, 0, 64, 89
2, 166165, Control_c, 0, 64, 82
2, 166179, Control_c, 0, 64, 75
2, 166195, Control_c, 0, 64, 69
2, 166210, Control_c, 0, 64, 63
2, 166226, Control_c, 0, 64, 54
2, 166240, Control_c, 0, 64, 48
2, 166255, Control_c, 0, 64, 47
2, 166301, Control_c, 0, 64, 46
2, 166316, Control_c, 0, 64, 45
2, 166331, Control_c, 0, 64, 44
2, 166347, Control_c, 0, 64, 42
2, 166362, Control_c, 0, 64, 41
2, 166377, Control_c, 0, 64, 40
2, 166393, Control_c, 0, 64, 38
2, 166408, Control_c, 0, 64, 33
2, 166424, Control_c, 0, 64, 24
2, 166438, Control_c, 0, 64, 0
2, 166450, Note_on_c, 0, 66, 83
2, 166575, Control_c, 0, 64, 24
2, 166590, Control_c, 0, 64, 42
2, 166605, Control_c, 0, 64, 49
2, 166620, Control_c, 0, 64, 55
2, 166635, Control_c, 0, 64, 61
2, 166650, Control_c, 0, 64, 64
2, 166673, Control_c, 0, 64, 69
2, 166688, Control_c, 0, 64, 77
2, 166704, Control_c, 0, 64, 87
2, 166718, Control_c, 0, 64, 95
2, 166720, Note_on_c, 0, 74, 0
2, 166733, Control_c, 0, 64, 101
2, 166749, Control_c, 0, 64, 110
2, 166764, Control_c, 0, 64, 116
2, 166780, Control_c, 0, 64, 117
2, 166855, Note_on_c, 0, 65, 76
2, 166859, Note_on_c, 0, 75, 72
2, 166886, Control_c, 0, 64, 116
2, 166901, Control_c, 0, 64, 113
2, 166917, Control_c, 0, 64, 109
2, 166932, Control_c, 0, 64, 106
2, 166947, Control_c, 0, 64, 103
2, 166962, Control_c, 0, 64, 100
2, 166977, Control_c, 0, 64, 97
2, 166993, Control_c, 0, 64, 94
2, 167002, Note_on_c, 0, 66, 0
2, 167008, Control_c, 0, 64, 92
2, 167022, Control_c, 0, 64, 90
2, 167038, Control_c, 0, 64, 87
2, 167053, Control_c, 0, 64, 85
2, 167069, Control_c, 0, 64, 81
2, 167083, Control_c, 0, 64, 79
2, 167098, Control_c, 0, 64, 76
2, 167114, Control_c, 0, 64, 74
2, 167129, Control_c, 0, 64, 71
2, 167145, Control_c, 0, 64, 68
2, 167160, Control_c, 0, 64, 65
2, 167175, Control_c, 0, 64, 60
2, 167191, Control_c, 0, 64, 53
2, 167206, Control_c, 0, 64, 45
2, 167221, Control_c, 0, 64, 41
2, 167236, Control_c, 0, 64, 38
2, 167248, Note_on_c, 0, 63, 77
2, 167251, Control_c, 0, 64, 35
2, 167267, Control_c, 0, 64, 31
2, 167281, Control_c, 0, 64, 23
2, 167296, Control_c, 0, 64, 16
2, 167312, Control_c, 0, 64, 10
2, 167327, Control_c, 0, 64, 0
2, 167465, Note_on_c, 0, 65, 0
2, 167643, Note_on_c, 0, 62, 71
2, 167646, Note_on_c, 0, 77, 69
2, 167735, Note_on_c, 0, 75, 0
2, 167790, Note_on_c, 0, 63, 0
2, 167811, Note_on_c, 0, 82, 0
2, 168031, Note_on_c, 0, 58, 72
2, 168160, Note_on_c, 0, 62, 0
2, 168426, Note_on_c, 0, 60, 72
2, 168426, Note_on_c, 0, 80, 69
2, 168509, Note_on_c, 0, 58, 0
2, 168818, Control_c, 0, 64, 37
2, 168819, Note_on_c, 0, 62, 71
2, 168834, Control_c, 0, 64, 63
2, 168834, Note_on_c, 0, 60, 0
2, 168848, Control_c, 0, 64, 68
2, 168864, Control_c, 0, 64, 79
2, 168879, Control_c, 0, 64, 115
2, 168894, Control_c, 0, 64, 127
2, 168984, Note_on_c, 0, 62, 0
2, 169012, Note_on_c, 0, 77, 0
2, 169220, Note_on_c, 0, 63, 82
2, 169225, Note_on_c, 0, 51, 82
2, 169233, Note_on_c, 0, 78, 75
2, 169252, Control_c, 0, 64, 77
2, 169268, Control_c, 0, 64, 53
2, 169270, Note_on_c, 0, 80, 0
2, 169282, Control_c, 0, 64, 0
2, 169373, Control_c, 0, 64, 43
2, 169389, Control_c, 0, 64, 65
2, 169404, Control_c, 0, 64, 83
2, 169419, Control_c, 0, 64, 127
2, 169609, Note_on_c, 0, 53, 65
2, 169627, Note_on_c, 0, 51, 0
2, 169627, Note_on_c, 0, 75, 71
2, 169650, Note_on_c, 0, 63, 0
2, 169803, Note_on_c, 0, 74, 74
2, 169825, Note_on_c, 0, 75, 0
2, 170006, Control_c, 0, 64, 112
2, 170011, Note_on_c, 0, 54, 87
2, 170013, Note_on_c, 0, 46, 80
2, 170013, Note_on_c, 0, 75, 79
2, 170021, Control_c, 0, 64, 78
2, 170036, Control_c, 0, 64, 53
2, 170043, Note_on_c, 0, 74, 0
2, 170044, Note_on_c, 0, 53, 0
2, 170052, Control_c, 0, 64, 0
2, 170220, Control_c, 0, 64, 39
2, 170235, Control_c, 0, 64, 58
2, 170250, Control_c, 0, 64, 72
2, 170266, Control_c, 0, 64, 98
2, 170280, Control_c, 0, 64, 127
2, 170412, Note_on_c, 0, 56, 73
2, 170429, Note_on_c, 0, 54, 0
2, 170539, Note_on_c, 0, 78, 0
2, 170578, Note_on_c, 0, 46, 0
2, 170811, Note_on_c, 0, 77, 80
2, 170812, Note_on_c, 0, 58, 68
2, 170834, Control_c, 0, 64, 124
2, 170849, Control_c, 0, 64, 101
2, 170866, Control_c, 0, 64, 91
2, 170881, Control_c, 0, 64, 81
2, 170895, Control_c, 0, 64, 73
2, 170896, Note_on_c, 0, 75, 0
2, 170911, Control_c, 0, 64, 67
2, 170916, Note_on_c, 0, 56, 0
2, 170926, Control_c, 0, 64, 60
2, 170942, Control_c, 0, 64, 49
2, 170957, Control_c, 0, 64, 36
2, 170971, Control_c, 0, 64, 26
2, 170987, Control_c, 0, 64, 12
2, 171002, Control_c, 0, 64, 0
2, 171198, Note_on_c, 0, 59, 84
2, 171265, Note_on_c, 0, 58, 0
2, 171604, Note_on_c, 0, 61, 70
2, 171605, Note_on_c, 0, 58, 66
2, 171607, Note_on_c, 0, 76, 77
2, 171608, Note_on_c, 0, 73, 69
2, 171651, Note_on_c, 0, 77, 0
2, 171667, Note_on_c, 0, 59, 0
2, 171686, Note_on_c, 0, 70, 0
2, 172000, Note_on_c, 0, 56, 68
2, 172053, Note_on_c, 0, 58, 0
2, 172206, Note_on_c, 0, 61, 0
2, 172410, Note_on_c, 0, 55, 60
2, 172411, Note_on_c, 0, 63, 66
2, 172411, Note_on_c, 0, 70, 59
2, 172418, Note_on_c, 0, 75, 72
2, 172455, Note_on_c, 0, 56, 0
2, 172455, Note_on_c, 0, 73, 0
2, 172463, Note_on_c, 0, 76, 0
2, 172477, Control_c, 0, 64, 31
2, 172492, Control_c, 0, 64, 56
2, 172510, Control_c, 0, 64, 65
2, 172524, Control_c, 0, 64, 81
2, 172540, Control_c, 0, 64, 127
2, 172632, Note_on_c, 0, 55, 0
2, 172695, Note_on_c, 0, 75, 0
2, 172782, Note_on_c, 0, 55, 65
2, 172789, Note_on_c, 0, 51, 70
2, 172803, Note_on_c, 0, 75, 82
2, 172849, Control_c, 0, 64, 79
2, 172864, Control_c, 0, 64, 62
2, 172879, Control_c, 0, 64, 31
2, 172894, Control_c, 0, 64, 39
2, 172910, Control_c, 0, 64, 59
2, 172925, Control_c, 0, 64, 67
2, 172941, Control_c, 0, 64, 93
2, 172956, Control_c, 0, 64, 127
2, 172988, Note_on_c, 0, 76, 80
2, 173012, Note_on_c, 0, 70, 0
2, 173023, Note_on_c, 0, 51, 0
2, 173026, Note_on_c, 0, 75, 0
2, 173052, Note_on_c, 0, 63, 0
2, 173183, Note_on_c, 0, 53, 66
2, 173190, Note_on_c, 0, 75, 81
2, 173191, Note_on_c, 0, 56, 69
2, 173213, Control_c, 0, 64, 73
2, 173223, Note_on_c, 0, 55, 0
2, 173229, Control_c, 0, 64, 38
2, 173244, Control_c, 0, 64, 0
2, 173252, Note_on_c, 0, 76, 0
2, 173321, Control_c, 0, 64, 35
2, 173336, Control_c, 0, 64, 64
2, 173352, Control_c, 0, 64, 83
2, 173367, Control_c, 0, 64, 127
2, 173564, Note_on_c, 0, 55, 69
2, 173564, Note_on_c, 0, 56, 0
2, 173566, Note_on_c, 0, 58, 70
2, 173567, Note_on_c, 0, 73, 78
2, 173598, Note_on_c, 0, 53, 0
2, 173602, Control_c, 0, 64, 97
2, 173618, Control_c, 0, 64, 68
2, 173622, Note_on_c, 0, 75, 0
2, 173632, Control_c, 0, 64, 0
2, 173663, Control_c, 0, 64, 38
2, 173678, Control_c, 0, 64, 63
2, 173693, Control_c, 0, 64, 82
2, 173708, Control_c, 0, 64, 127
2, 173791, Note_on_c, 0, 55, 0
2, 173851, Note_on_c, 0, 58, 0
2, 173964, Note_on_c, 0, 56, 77
2, 173966, Note_on_c, 0, 59, 79
2, 173967, Note_on_c, 0, 71, 84
2, 173971, Note_on_c, 0, 68, 75
2, 173982, Control_c, 0, 64, 93
2, 173989, Note_on_c, 0, 73, 0
2, 173997, Control_c, 0, 64, 62
2, 174012, Control_c, 0, 64, 0
2, 174073, Control_c, 0, 64, 57
2, 174088, Control_c, 0, 64, 75
2, 174104, Control_c, 0, 64, 127
2, 174200, Note_on_c, 0, 56, 0
2, 174228, Note_on_c, 0, 71, 0
2, 174360, Note_on_c, 0, 58, 84
2, 174366, Note_on_c, 0, 54, 75
2, 174368, Note_on_c, 0, 70, 86
2, 174370, Note_on_c, 0, 59, 0
2, 174371, Control_c, 0, 64, 84
2, 174387, Control_c, 0, 64, 60
2, 174401, Control_c, 0, 64, 0
2, 174411, Note_on_c, 0, 68, 0
2, 174447, Control_c, 0, 64, 60
2, 174463, Control_c, 0, 64, 77
2, 174477, Control_c, 0, 64, 127
2, 174528, Note_on_c, 0, 58, 0
2, 174533, Note_on_c, 0, 70, 0
2, 174558, Note_on_c, 0, 54, 0
2, 174750, Note_on_c, 0, 56, 76
2, 174754, Note_on_c, 0, 52, 74
2, 174757, Note_on_c, 0, 80, 86
2, 174759, Note_on_c, 0, 71, 83
2, 174759, Note_on_c, 0, 76, 78
2, 174765, Control_c, 0, 64, 117
2, 174781, Control_c, 0, 64, 65
2, 174796, Control_c, 0, 64, 0
2, 174887, Control_c, 0, 64, 37
2, 174903, Control_c, 0, 64, 62
2, 174918, Control_c, 0, 64, 74
2, 174933, Control_c, 0, 64, 127
2, 175008, Note_on_c, 0, 52, 0
2, 175138, Note_on_c, 0, 54, 86
2, 175145, Note_on_c, 0, 51, 71
2, 175156, Note_on_c, 0, 56, 0
2, 175159, Note_on_c, 0, 71, 0
2, 175351, Note_on_c, 0, 54, 0
2, 175362, Note_on_c, 0, 51, 0
2, 175521, Note_on_c, 0, 52, 78
2, 175527, Control_c, 0, 64, 94
2, 175527, Note_on_c, 0, 49, 70
2, 175537, Note_on_c, 0, 70, 80
2, 175542, Control_c, 0, 64, 82
2, 175558, Control_c, 0, 64, 72
2, 175573, Control_c, 0, 64, 63
2, 175583, Note_on_c, 0, 76, 0
2, 175588, Control_c, 0, 64, 41
2, 175603, Control_c, 0, 64, 0
2, 175731, Note_on_c, 0, 75, 79
2, 175929, Note_on_c, 0, 73, 84
2, 175931, Note_on_c, 0, 46, 62
2, 175989, Note_on_c, 0, 70, 0
2, 176072, Note_on_c, 0, 75, 0
2, 176076, Note_on_c, 0, 52, 0
2, 176076, Note_on_c, 0, 80, 0
2, 176101, Note_on_c, 0, 49, 0
2, 176298, Note_on_c, 0, 51, 63
2, 176310, Control_c, 0, 64, 52
2, 176312, Note_on_c, 0, 79, 83
2, 176326, Control_c, 0, 64, 63
2, 176341, Control_c, 0, 64, 75
2, 176356, Control_c, 0, 64, 127
2, 176401, Note_on_c, 0, 46, 0
2, 176401, Note_on_c, 0, 73, 0
2, 176504, Note_on_c, 0, 76, 87
2, 176702, Note_on_c, 0, 39, 70
2, 176705, Note_on_c, 0, 75, 87
2, 176743, Note_on_c, 0, 79, 0
2, 176750, Note_on_c, 0, 76, 0
2, 176806, Note_on_c, 0, 39, 0
2, 176882, Note_on_c, 0, 73, 95
2, 176912, Note_on_c, 0, 51, 0
2, 176929, Note_on_c, 0, 75, 0
2, 177003, Note_on_c, 0, 73, 0
2, 177144, Note_on_c, 0, 44, 75
2, 177162, Note_on_c, 0, 68, 97
2, 177171, Note_on_c, 0, 80, 85
2, 177174, Note_on_c, 0, 72, 66
2, 177215, Control_c, 0, 64, 76
2, 177230, Control_c, 0, 64, 0
2, 177351, Control_c, 0, 64, 43
2, 177367, Control_c, 0, 64, 66
2, 177382, Control_c, 0, 64, 80
2, 177397, Control_c, 0, 64, 127
2, 177462, Note_on_c, 0, 80, 0
2, 177536, Note_on_c, 0, 72, 0
2, 177547, Note_on_c, 0, 68, 0
2, 177555, Note_on_c, 0, 56, 80
2, 177689, Note_on_c, 0, 56, 0
2, 177720, Note_on_c, 0, 44, 0
2, 177924, Note_on_c, 0, 54, 69
2, 177927, Note_on_c, 0, 46, 60
2, 177947, Note_on_c, 0, 61, 90
2, 177982, Control_c, 0, 64, 105
2, 177997, Control_c, 0, 64, 64
2, 178013, Control_c, 0, 64, 0
2, 178120, Control_c, 0, 64, 35
2, 178134, Control_c, 0, 64, 63
2, 178149, Control_c, 0, 64, 70
2, 178165, Control_c, 0, 64, 93
2, 178188, Control_c, 0, 64, 127
2, 178217, Note_on_c, 0, 54, 0
2, 178328, Note_on_c, 0, 53, 73
2, 178343, Note_on_c, 0, 44, 63
2, 178348, Note_on_c, 0, 46, 0
2, 178362, Control_c, 0, 64, 75
2, 178376, Control_c, 0, 64, 56
2, 178392, Control_c, 0, 64, 41
2, 178407, Control_c, 0, 64, 56
2, 178421, Control_c, 0, 64, 64
2, 178437, Control_c, 0, 64, 76
2, 178452, Control_c, 0, 64, 127
2, 178507, Note_on_c, 0, 53, 0
2, 178731, Note_on_c, 0, 44, 0
2, 178750, Note_on_c, 0, 51, 66
2, 178756, Control_c, 0, 64, 76
2, 178756, Note_on_c, 0, 42, 52
2, 178771, Control_c, 0, 64, 35
2, 178787, Control_c, 0, 64, 0
2, 178817, Note_on_c, 0, 61, 0
2, 178892, Control_c, 0, 64, 55
2, 178908, Control_c, 0, 64, 73
2, 178923, Control_c, 0, 64, 127
2, 179134, Note_on_c, 0, 51, 0
2, 179136, Note_on_c, 0, 49, 66
2, 179142, Note_on_c, 0, 77, 89
2, 179160, Control_c, 0, 64, 72
2, 179175, Control_c, 0, 64, 39
2, 179191, Control_c, 0, 64, 0
2, 179218, Note_on_c, 0, 42, 0
2, 179236, Control_c, 0, 64, 57
2, 179251, Control_c, 0, 64, 71
2, 179266, Control_c, 0, 64, 124
2, 179281, Control_c, 0, 64, 127
2, 179325, Note_on_c, 0, 49, 0
2, 179521, Note_on_c, 0, 58, 65
2, 179534, Note_on_c, 0, 75, 84
2, 179535, Note_on_c, 0, 54, 48
2, 179569, Control_c, 0, 64, 94
2, 179585, Control_c, 0, 64, 66
2, 179600, Control_c, 0, 64, 0
2, 179612, Note_on_c, 0, 77, 0
2, 179676, Control_c, 0, 64, 52
2, 179691, Control_c, 0, 64, 64
2, 179707, Control_c, 0, 64, 78
2, 179729, Control_c, 0, 64, 127
2, 179927, Note_on_c, 0, 73, 81
2, 179979, Note_on_c, 0, 75, 0
2, 180310, Note_on_c, 0, 56, 54
2, 180322, Note_on_c, 0, 72, 79
2, 180353, Control_c, 0, 64, 104
2, 180357, Note_on_c, 0, 73, 0
2, 180361, Note_on_c, 0, 54, 0
2, 180368, Control_c, 0, 64, 92
2, 180382, Control_c, 0, 64, 81
2, 180398, Control_c, 0, 64, 74
2, 180413, Control_c, 0, 64, 68
2, 180429, Control_c, 0, 64, 63
2, 180444, Control_c, 0, 64, 59
2, 180459, Control_c, 0, 64, 54
2, 180475, Control_c, 0, 64, 53
2, 180497, Control_c, 0, 64, 52
2, 180527, Control_c, 0, 64, 52
2, 180542, Control_c, 0, 64, 51
2, 180558, Control_c, 0, 64, 50
2, 180573, Control_c, 0, 64, 48
2, 180589, Control_c, 0, 64, 45
2, 180603, Control_c, 0, 64, 39
2, 180618, Control_c, 0, 64, 25
2, 180634, Control_c, 0, 64, 0
2, 180711, Note_on_c, 0, 53, 57
2, 180716, Note_on_c, 0, 68, 77
2, 180719, Note_on_c, 0, 66, 69
2, 180788, Note_on_c, 0, 72, 0
2, 180833, Control_c, 0, 64, 29
2, 180847, Control_c, 0, 64, 42
2, 180854, Note_on_c, 0, 56, 0
2, 180862, Control_c, 0, 64, 51
2, 180878, Control_c, 0, 64, 57
2, 180893, Control_c, 0, 64, 61
2, 180909, Control_c, 0, 64, 63
2, 180924, Control_c, 0, 64, 65
2, 180939, Control_c, 0, 64, 66
2, 180954, Control_c, 0, 64, 70
2, 180958, Note_on_c, 0, 66, 0
2, 180969, Control_c, 0, 64, 76
2, 180985, Control_c, 0, 64, 83
2, 181000, Control_c, 0, 64, 84
2, 181106, Note_on_c, 0, 70, 80
2, 181111, Note_on_c, 0, 65, 77
2, 181121, Control_c, 0, 64, 83
2, 181122, Note_on_c, 0, 54, 61
2, 181135, Note_on_c, 0, 58, 0
2, 181136, Control_c, 0, 64, 81
2, 181151, Control_c, 0, 64, 78
2, 181151, Note_on_c, 0, 68, 0
2, 181166, Control_c, 0, 64, 74
2, 181181, Control_c, 0, 64, 71
2, 181187, Note_on_c, 0, 53, 0
2, 181197, Control_c, 0, 64, 68
2, 181212, Control_c, 0, 64, 66
2, 181227, Control_c, 0, 64, 64
2, 181242, Control_c, 0, 64, 60
2, 181266, Control_c, 0, 64, 52
2, 181281, Control_c, 0, 64, 40
2, 181295, Control_c, 0, 64, 22
2, 181311, Control_c, 0, 64, 0
2, 181386, Note_on_c, 0, 65, 0
2, 181495, Note_on_c, 0, 72, 81
2, 181500, Note_on_c, 0, 63, 69
2, 181505, Note_on_c, 0, 56, 61
2, 181526, Note_on_c, 0, 70, 0
2, 181606, Note_on_c, 0, 54, 0
2, 181660, Control_c, 0, 64, 26
2, 181676, Control_c, 0, 64, 39
2, 181691, Control_c, 0, 64, 48
2, 181707, Control_c, 0, 64, 53
2, 181722, Control_c, 0, 64, 56
2, 181737, Control_c, 0, 64, 59
2, 181753, Control_c, 0, 64, 61
2, 181766, Note_on_c, 0, 63, 0
2, 181768, Control_c, 0, 64, 64
2, 181783, Control_c, 0, 64, 67
2, 181798, Control_c, 0, 64, 70
2, 181813, Control_c, 0, 64, 73
2, 181829, Control_c, 0, 64, 74
2, 181844, Control_c, 0, 64, 75
2, 181902, Note_on_c, 0, 58, 49
2, 181902, Note_on_c, 0, 73, 83
2, 181906, Note_on_c, 0, 61, 62
2, 181919, Control_c, 0, 64, 74
2, 181934, Control_c, 0, 64, 73
2, 181950, Control_c, 0, 64, 72
2, 181962, Note_on_c, 0, 72, 0
2, 181965, Control_c, 0, 64, 69
2, 181971, Note_on_c, 0, 56, 0
2, 181980, Control_c, 0, 64, 67
2, 181995, Control_c, 0, 64, 64
2, 182010, Control_c, 0, 64, 62
2, 182033, Control_c, 0, 64, 59
2, 182048, Control_c, 0, 64, 55
2, 182063, Control_c, 0, 64, 51
2, 182078, Control_c, 0, 64, 47
2, 182093, Control_c, 0, 64, 42
2, 182109, Control_c, 0, 64, 37
2, 182124, Control_c, 0, 64, 32
2, 182138, Control_c, 0, 64, 26
2, 182154, Control_c, 0, 64, 15
2, 182169, Control_c, 0, 64, 0
2, 182307, Note_on_c, 0, 66, 76
2, 182613, Note_on_c, 0, 61, 0
2, 182697, Note_on_c, 0, 54, 61
2, 182884, Note_on_c, 0, 58, 0
2, 183075, Note_on_c, 0, 65, 66
2, 183089, Note_on_c, 0, 66, 0
2, 183442, Note_on_c, 0, 56, 46
2, 183487, Note_on_c, 0, 63, 68
2, 183532, Note_on_c, 0, 65, 0
2, 183574, Note_on_c, 0, 54, 0
2, 183870, Note_on_c, 0, 58, 50
2, 184036, Note_on_c, 0, 56, 0
2, 184243, Note_on_c, 0, 72, 79
2, 184247, Note_on_c, 0, 56, 56
2, 184296, Note_on_c, 0, 73, 0
2, 184394, Note_on_c, 0, 58, 0
2, 184638, Note_on_c, 0, 54, 58
2, 184710, Note_on_c, 0, 56, 0
2, 185012, Note_on_c, 0, 56, 41
2, 185030, Note_on_c, 0, 53, 42
2, 185033, Note_on_c, 0, 73, 78
2, 185069, Note_on_c, 0, 54, 0
2, 185082, Note_on_c, 0, 72, 0
2, 185180, Note_on_c, 0, 63, 0
2, 185449, Note_on_c, 0, 71, 50
2, 185449, Note_on_c, 0, 73, 0
2, 185611, Note_on_c, 0, 71, 0
2, 185628, Note_on_c, 0, 70, 49
2, 185810, Note_on_c, 0, 70, 0
2, 185810, Note_on_c, 0, 71, 53
2, 185821, Note_on_c, 0, 68, 42
2, 186199, Note_on_c, 0, 68, 0
2, 186200, Note_on_c, 0, 66, 44
2, 186203, Note_on_c, 0, 51, 41
2, 186225, Note_on_c, 0, 53, 0
2, 186381, Note_on_c, 0, 66, 0
2, 186382, Note_on_c, 0, 49, 41
2, 186386, Note_on_c, 0, 65, 44
2, 186390, Note_on_c, 0, 51, 0
2, 186545, Note_on_c, 0, 65, 0
2, 186562, Note_on_c, 0, 66, 47
2, 186574, Note_on_c, 0, 56, 0
2, 186585, Note_on_c, 0, 51, 29
2, 186599, Note_on_c, 0, 49, 0
2, 186928, Note_on_c, 0, 53, 45
2, 186939, Note_on_c, 0, 71, 0
2, 186940, Note_on_c, 0, 61, 42
2, 186940, Note_on_c, 0, 70, 55
2, 186965, Note_on_c, 0, 51, 0
2, 186981, Note_on_c, 0, 66, 0
2, 187115, Note_on_c, 0, 70, 0
2, 187118, Note_on_c, 0, 68, 63
2, 187321, Note_on_c, 0, 70, 62
2, 187327, Note_on_c, 0, 54, 39
2, 187376, Note_on_c, 0, 61, 0
2, 187388, Note_on_c, 0, 68, 0
2, 187418, Note_on_c, 0, 53, 0
2, 187687, Note_on_c, 0, 72, 62
2, 187691, Note_on_c, 0, 63, 41
2, 187723, Note_on_c, 0, 70, 0
2, 188059, Note_on_c, 0, 56, 36
2, 188066, Note_on_c, 0, 73, 64
2, 188110, Note_on_c, 0, 72, 0
2, 188176, Note_on_c, 0, 54, 0
2, 188240, Note_on_c, 0, 63, 0
2, 188457, Note_on_c, 0, 68, 48
2, 188458, Note_on_c, 0, 53, 34
2, 188621, Note_on_c, 0, 66, 55
2, 188641, Note_on_c, 0, 68, 0
2, 188645, Note_on_c, 0, 51, 41
2, 188665, Note_on_c, 0, 56, 0
2, 188695, Note_on_c, 0, 53, 0
2, 188818, Note_on_c, 0, 68, 58
2, 188823, Note_on_c, 0, 53, 46
2, 188854, Note_on_c, 0, 66, 0
2, 188897, Note_on_c, 0, 51, 0
2, 188919, Note_on_c, 0, 73, 0
2, 189200, Note_on_c, 0, 53, 0
2, 189200, Note_on_c, 0, 55, 48
2, 189210, Note_on_c, 0, 72, 67
2, 189218, Note_on_c, 0, 63, 56
2, 189234, Note_on_c, 0, 68, 0
2, 189377, Note_on_c, 0, 70, 77
2, 189385, Note_on_c, 0, 72, 0
2, 189577, Note_on_c, 0, 72, 74
2, 189581, Note_on_c, 0, 56, 59
2, 189589, Note_on_c, 0, 63, 0
2, 189660, Note_on_c, 0, 70, 0
2, 189665, Note_on_c, 0, 55, 0
2, 189958, Note_on_c, 0, 74, 77
2, 189959, Note_on_c, 0, 65, 63
2, 189994, Note_on_c, 0, 72, 0
2, 190327, Note_on_c, 0, 58, 60
2, 190328, Note_on_c, 0, 75, 81
2, 190376, Note_on_c, 0, 74, 0
2, 190414, Note_on_c, 0, 56, 0
2, 190475, Note_on_c, 0, 65, 0
2, 190702, Note_on_c, 0, 55, 65
2, 190849, Note_on_c, 0, 58, 0
2, 190870, Note_on_c, 0, 53, 65
2, 190946, Note_on_c, 0, 55, 0
2, 191080, Note_on_c, 0, 55, 72
2, 191126, Note_on_c, 0, 53, 0
2, 191444, Note_on_c, 0, 73, 83
2, 191447, Note_on_c, 0, 65, 83
2, 191453, Note_on_c, 0, 57, 65
2, 191514, Note_on_c, 0, 55, 0
2, 191529, Note_on_c, 0, 75, 0
2, 191538, Control_c, 0, 64, 30
2, 191554, Control_c, 0, 64, 54
2, 191569, Control_c, 0, 64, 67
2, 191583, Control_c, 0, 64, 74
2, 191599, Control_c, 0, 64, 83
2, 191614, Control_c, 0, 64, 87
2, 191630, Control_c, 0, 64, 92
2, 191635, Note_on_c, 0, 72, 75
2, 191635, Note_on_c, 0, 73, 0
2, 191645, Control_c, 0, 64, 94
2, 191659, Control_c, 0, 64, 95
2, 191796, Control_c, 0, 64, 94
2, 191811, Control_c, 0, 64, 92
2, 191812, Note_on_c, 0, 73, 72
2, 191825, Note_on_c, 0, 58, 75
2, 191827, Control_c, 0, 64, 90
2, 191842, Control_c, 0, 64, 88
2, 191848, Note_on_c, 0, 57, 0
2, 191857, Control_c, 0, 64, 86
2, 191873, Control_c, 0, 64, 83
2, 191887, Control_c, 0, 64, 81
2, 191902, Control_c, 0, 64, 79
2, 191911, Note_on_c, 0, 72, 0
2, 191918, Control_c, 0, 64, 76
2, 191921, Note_on_c, 0, 65, 0
2, 191933, Control_c, 0, 64, 74
2, 191949, Control_c, 0, 64, 72
2, 191964, Control_c, 0, 64, 69
2, 191978, Control_c, 0, 64, 67
2, 191988, Note_on_c, 0, 75, 67
2, 191994, Control_c, 0, 64, 65
2, 191994, Note_on_c, 0, 60, 79
2, 192016, Control_c, 0, 64, 62
2, 192021, Note_on_c, 0, 73, 0
2, 192032, Control_c, 0, 64, 59
2, 192046, Control_c, 0, 64, 56
2, 192061, Control_c, 0, 64, 54
2, 192062, Note_on_c, 0, 58, 0
2, 192077, Control_c, 0, 64, 51
2, 192092, Control_c, 0, 64, 48
2, 192108, Control_c, 0, 64, 45
2, 192123, Control_c, 0, 64, 41
2, 192137, Control_c, 0, 64, 36
2, 192153, Control_c, 0, 64, 30
2, 192169, Control_c, 0, 64, 20
2, 192178, Note_on_c, 0, 58, 87
2, 192185, Control_c, 0, 64, 0
2, 192192, Note_on_c, 0, 73, 82
2, 192213, Note_on_c, 0, 60, 0
2, 192216, Note_on_c, 0, 75, 0
2, 192356, Note_on_c, 0, 75, 80
2, 192359, Note_on_c, 0, 60, 71
2, 192429, Note_on_c, 0, 58, 0
2, 192532, Note_on_c, 0, 77, 85
2, 192545, Note_on_c, 0, 61, 75
2, 192583, Note_on_c, 0, 60, 0
2, 192606, Note_on_c, 0, 75, 0
2, 192615, Note_on_c, 0, 73, 0
2, 192708, Note_on_c, 0, 60, 74
2, 192750, Note_on_c, 0, 61, 0
2, 192907, Note_on_c, 0, 73, 90
2, 192910, Note_on_c, 0, 58, 73
2, 192959, Note_on_c, 0, 77, 0
2, 193043, Note_on_c, 0, 60, 0
2, 193068, Note_on_c, 0, 56, 74
2, 193114, Note_on_c, 0, 58, 0
2, 193259, Note_on_c, 0, 54, 73
2, 193263, Note_on_c, 0, 75, 87
2, 193267, Note_on_c, 0, 72, 82
2, 193291, Note_on_c, 0, 73, 0
2, 193302, Note_on_c, 0, 56, 0
2, 193435, Note_on_c, 0, 53, 75
2, 193463, Note_on_c, 0, 54, 0
2, 193630, Note_on_c, 0, 70, 87
2, 193640, Note_on_c, 0, 54, 85
2, 193658, Note_on_c, 0, 72, 0
2, 193690, Note_on_c, 0, 53, 0
2, 193752, Note_on_c, 0, 75, 0
2, 193817, Note_on_c, 0, 51, 84
2, 193846, Note_on_c, 0, 54, 0
2, 194056, Note_on_c, 0, 53, 90
2, 194068, Note_on_c, 0, 69, 82
2, 194095, Note_on_c, 0, 51, 0
2, 194106, Note_on_c, 0, 70, 0
2, 194221, Control_c, 0, 64, 44
2, 194237, Control_c, 0, 64, 61
2, 194252, Control_c, 0, 64, 74
2, 194254, Note_on_c, 0, 70, 78
2, 194267, Control_c, 0, 64, 127
2, 194339, Note_on_c, 0, 69, 0
2, 194432, Note_on_c, 0, 75, 83
2, 194434, Note_on_c, 0, 72, 80
2, 194456, Note_on_c, 0, 70, 0
2, 194605, Note_on_c, 0, 69, 80
2, 194661, Note_on_c, 0, 72, 0
2, 194666, Note_on_c, 0, 75, 0
2, 194671, Note_on_c, 0, 69, 0
2, 194813, Note_on_c, 0, 73, 83
2, 194816, Note_on_c, 0, 65, 72
2, 194819, Note_on_c, 0, 46, 79
2, 194897, Control_c, 0, 64, 92
2, 194913, Control_c, 0, 64, 74
2, 194928, Control_c, 0, 64, 63
2, 194936, Note_on_c, 0, 53, 0
2, 194943, Control_c, 0, 64, 40
2, 194958, Control_c, 0, 64, 0
2, 195220, Note_on_c, 0, 72, 74
2, 195221, Note_on_c, 0, 68, 71
2, 195249, Note_on_c, 0, 73, 0
2, 195278, Note_on_c, 0, 65, 0
2, 195578, Note_on_c, 0, 66, 66
2, 195585, Note_on_c, 0, 70, 75
2, 195601, Note_on_c, 0, 46, 0
2, 195602, Note_on_c, 0, 68, 0
2, 195633, Note_on_c, 0, 72, 0
2, 195772, Note_on_c, 0, 72, 78
2, 195792, Note_on_c, 0, 70, 0
2, 195950, Note_on_c, 0, 61, 83
2, 195950, Note_on_c, 0, 65, 80
2, 195978, Control_c, 0, 64, 26
2, 195991, Note_on_c, 0, 73, 83
2, 195994, Control_c, 0, 64, 53
2, 196008, Control_c, 0, 64, 69
2, 196023, Control_c, 0, 64, 127
2, 196023, Note_on_c, 0, 66, 0
2, 196041, Note_on_c, 0, 72, 0
2, 196089, Note_on_c, 0, 65, 0
2, 196150, Note_on_c, 0, 70, 81
2, 196174, Note_on_c, 0, 73, 0
2, 196199, Note_on_c, 0, 70, 0
2, 196320, Note_on_c, 0, 63, 64
2, 196326, Note_on_c, 0, 60, 71
2, 196346, Note_on_c, 0, 61, 0
2, 196352, Note_on_c, 0, 66, 68
2, 196387, Note_on_c, 0, 66, 0
2, 196389, Control_c, 0, 64, 84
2, 196389, Note_on_c, 0, 68, 62
2, 196404, Control_c, 0, 64, 60
2, 196419, Control_c, 0, 64, 0
2, 196435, Note_on_c, 0, 68, 0
2, 196453, Note_on_c, 0, 66, 70
2, 196465, Control_c, 0, 64, 46
2, 196480, Control_c, 0, 64, 65
2, 196495, Control_c, 0, 64, 87
2, 196505, Note_on_c, 0, 66, 0
2, 196509, Note_on_c, 0, 68, 60
2, 196511, Control_c, 0, 64, 127
2, 196543, Note_on_c, 0, 68, 0
2, 196557, Note_on_c, 0, 66, 60
2, 196611, Note_on_c, 0, 66, 0
2, 196629, Note_on_c, 0, 68, 64
2, 196663, Note_on_c, 0, 68, 0
2, 196675, Note_on_c, 0, 66, 66
2, 196715, Note_on_c, 0, 60, 0
2, 196721, Note_on_c, 0, 58, 68
2, 196733, Note_on_c, 0, 66, 0
2, 196738, Note_on_c, 0, 68, 71
2, 196771, Note_on_c, 0, 68, 0
2, 196786, Note_on_c, 0, 66, 61
2, 196832, Note_on_c, 0, 68, 63
2, 196833, Note_on_c, 0, 66, 0
2, 196870, Note_on_c, 0, 68, 0
2, 196874, Note_on_c, 0, 66, 72
2, 196932, Note_on_c, 0, 66, 0
2, 197092, Note_on_c, 0, 77, 90
2, 197094, Note_on_c, 0, 57, 64
2, 197094, Note_on_c, 0, 65, 85
2, 197127, Control_c, 0, 64, 112
2, 197142, Control_c, 0, 64, 84
2, 197157, Control_c, 0, 64, 69
2, 197159, Note_on_c, 0, 58, 0
2, 197172, Control_c, 0, 64, 59
2, 197182, Note_on_c, 0, 63, 0
2, 197188, Control_c, 0, 64, 31
2, 197203, Control_c, 0, 64, 0
2, 197484, Note_on_c, 0, 56, 61
2, 197487, Note_on_c, 0, 62, 70
2, 197503, Note_on_c, 0, 57, 0
2, 197653, Note_on_c, 0, 60, 73
2, 197674, Note_on_c, 0, 62, 0
2, 197864, Note_on_c, 0, 62, 69
2, 197884, Note_on_c, 0, 70, 91
2, 197928, Note_on_c, 0, 65, 0
2, 197939, Note_on_c, 0, 77, 0
2, 198016, Note_on_c, 0, 56, 0
2, 198016, Note_on_c, 0, 60, 0
2, 198254, Note_on_c, 0, 54, 73
2, 198431, Note_on_c, 0, 53, 75
2, 198464, Note_on_c, 0, 54, 0
2, 198620, Note_on_c, 0, 54, 74
2, 198637, Note_on_c, 0, 63, 90
2, 198644, Note_on_c, 0, 53, 0
2, 198653, Note_on_c, 0, 70, 0
2, 198679, Control_c, 0, 64, 53
2, 198694, Control_c, 0, 64, 62
2, 198710, Control_c, 0, 64, 74
2, 198726, Control_c, 0, 64, 127
2, 198772, Note_on_c, 0, 63, 0
2, 199022, Note_on_c, 0, 56, 75
2, 199023, Note_on_c, 0, 83, 95
2, 199087, Note_on_c, 0, 54, 0
2, 199157, Note_on_c, 0, 62, 0
2, 199402, Control_c, 0, 64, 100
2, 199409, Note_on_c, 0, 82, 92
2, 199410, Note_on_c, 0, 62, 80
2, 199412, Note_on_c, 0, 58, 84
2, 199416, Control_c, 0, 64, 45
2, 199432, Control_c, 0, 64, 0
2, 199439, Note_on_c, 0, 83, 0
2, 199456, Note_on_c, 0, 56, 0
2, 199523, Control_c, 0, 64, 63
2, 199540, Control_c, 0, 64, 88
2, 199555, Control_c, 0, 64, 127
2, 199649, Note_on_c, 0, 82, 0
2, 199653, Note_on_c, 0, 62, 0
2, 199808, Note_on_c, 0, 77, 89
2, 199812, Note_on_c, 0, 80, 88
2, 199977, Note_on_c, 0, 77, 0
2, 199992, Note_on_c, 0, 80, 0
2, 200197, Note_on_c, 0, 78, 86
2, 200199, Note_on_c, 0, 75, 90
2, 200202, Note_on_c, 0, 63, 87
2, 200211, Note_on_c, 0, 51, 76
2, 200244, Note_on_c, 0, 58, 0
2, 200261, Control_c, 0, 64, 91
2, 200276, Control_c, 0, 64, 57
2, 200291, Control_c, 0, 64, 0
2, 200353, Control_c, 0, 64, 58
2, 200368, Control_c, 0, 64, 83
2, 200383, Control_c, 0, 64, 127
2, 200474, Note_on_c, 0, 63, 0
2, 200477, Note_on_c, 0, 78, 0
2, 200607, Note_on_c, 0, 73, 91
2, 200611, Note_on_c, 0, 70, 86
2, 200656, Note_on_c, 0, 75, 0
2, 200830, Note_on_c, 0, 70, 0
2, 200842, Note_on_c, 0, 73, 0
2, 200987, Note_on_c, 0, 71, 83
2, 200988, Note_on_c, 0, 68, 81
2, 200991, Note_on_c, 0, 76, 81
2, 200994, Note_on_c, 0, 44, 76
2, 201059, Control_c, 0, 64, 70
2, 201074, Control_c, 0, 64, 0
2, 201142, Note_on_c, 0, 51, 0
2, 201165, Control_c, 0, 64, 45
2, 201181, Control_c, 0, 64, 63
2, 201196, Control_c, 0, 64, 78
2, 201211, Control_c, 0, 64, 127
2, 201235, Note_on_c, 0, 76, 0
2, 201259, Note_on_c, 0, 68, 0
2, 201382, Note_on_c, 0, 75, 86
2, 201386, Note_on_c, 0, 66, 79
2, 201410, Note_on_c, 0, 71, 0
2, 201628, Note_on_c, 0, 75, 0
2, 201640, Note_on_c, 0, 66, 0
2, 201765, Note_on_c, 0, 53, 92
2, 201786, Note_on_c, 0, 65, 67
2, 201787, Note_on_c, 0, 74, 67
2, 201790, Note_on_c, 0, 70, 63
2, 201826, Control_c, 0, 64, 93
2, 201841, Control_c, 0, 64, 78
2, 201856, Control_c, 0, 64, 66
2, 201857, Note_on_c, 0, 44, 0
2, 201872, Control_c, 0, 64, 56
2, 201887, Control_c, 0, 64, 27
2, 201903, Control_c, 0, 64, 0
2, 202163, Note_on_c, 0, 42, 72
2, 202200, Control_c, 0, 64, 47
2, 202215, Control_c, 0, 64, 58
2, 202230, Control_c, 0, 64, 63
2, 202245, Control_c, 0, 64, 69
2, 202261, Control_c, 0, 64, 88
2, 202276, Control_c, 0, 64, 127
2, 202276, Note_on_c, 0, 53, 0
2, 202342, Note_on_c, 0, 65, 0
2, 202566, Note_on_c, 0, 46, 93
2, 202569, Note_on_c, 0, 66, 72
2, 202574, Note_on_c, 0, 75, 78
2, 202575, Note_on_c, 0, 41, 75
2, 202584, Note_on_c, 0, 42, 0
2, 202598, Note_on_c, 0, 74, 0
2, 202604, Note_on_c, 0, 70, 0
2, 202640, Control_c, 0, 64, 102
2, 202655, Control_c, 0, 64, 87
2, 202671, Control_c, 0, 64, 77
2, 202685, Control_c, 0, 64, 68
2, 202701, Control_c, 0, 64, 58
2, 202716, Control_c, 0, 64, 36
2, 202731, Control_c, 0, 64, 0
2, 202968, Note_on_c, 0, 39, 72
2, 202973, Note_on_c, 0, 41, 0
2, 203200, Note_on_c, 0, 46, 0
2, 203373, Note_on_c, 0, 66, 0
2, 203380, Note_on_c, 0, 65, 66
2, 203384, Note_on_c, 0, 46, 70
2, 203422, Note_on_c, 0, 39, 0
2, 203513, Control_c, 0, 64, 15
2, 203535, Control_c, 0, 64, 58
2, 203551, Control_c, 0, 64, 73
2, 203566, Control_c, 0, 64, 106
2, 203575, Note_on_c, 0, 46, 0
2, 203581, Control_c, 0, 64, 127
2, 203777, Note_on_c, 0, 59, 88
2, 204162, Note_on_c, 0, 74, 81
2, 204172, Note_on_c, 0, 58, 83
2, 204203, Note_on_c, 0, 75, 0
2, 204205, Control_c, 0, 64, 72
2, 204220, Control_c, 0, 64, 0
2, 204261, Note_on_c, 0, 59, 0
2, 204456, Control_c, 0, 64, 45
2, 204472, Control_c, 0, 64, 58
2, 204487, Control_c, 0, 64, 63
2, 204502, Control_c, 0, 64, 69
2, 204518, Control_c, 0, 64, 94
2, 204532, Control_c, 0, 64, 127
2, 204564, Note_on_c, 0, 65, 0
2, 204591, Note_on_c, 0, 56, 82
2, 204643, Note_on_c, 0, 58, 0
2, 204752, Note_on_c, 0, 56, 0
2, 204966, Note_on_c, 0, 54, 66
2, 204969, Note_on_c, 0, 51, 58
2, 204979, Note_on_c, 0, 63, 86
2, 204982, Note_on_c, 0, 70, 88
2, 204986, Note_on_c, 0, 75, 84
2, 205010, Note_on_c, 0, 74, 0
2, 205018, Control_c, 0, 64, 82
2, 205034, Control_c, 0, 64, 58
2, 205049, Control_c, 0, 64, 0
2, 205193, Control_c, 0, 64, 35
2, 205208, Control_c, 0, 64, 57
2, 205223, Control_c, 0, 64, 69
2, 205239, Control_c, 0, 64, 108
2, 205254, Control_c, 0, 64, 127
2, 205323, Note_on_c, 0, 75, 0
2, 205382, Note_on_c, 0, 53, 70
2, 205419, Note_on_c, 0, 70, 0
2, 205426, Note_on_c, 0, 54, 0
2, 205448, Note_on_c, 0, 63, 0
2, 205463, Note_on_c, 0, 51, 0
2, 205753, Note_on_c, 0, 63, 82
2, 205754, Note_on_c, 0, 54, 68
2, 205756, Control_c, 0, 64, 106
2, 205759, Note_on_c, 0, 58, 82
2, 205771, Control_c, 0, 64, 68
2, 205777, Note_on_c, 0, 53, 0
2, 205787, Control_c, 0, 64, 0
2, 205885, Control_c, 0, 64, 28
2, 205900, Control_c, 0, 64, 61
2, 205916, Control_c, 0, 64, 76
2, 205931, Control_c, 0, 64, 127
2, 206143, Note_on_c, 0, 56, 72
2, 206144, Control_c, 0, 64, 102
2, 206150, Note_on_c, 0, 53, 65
2, 206160, Control_c, 0, 64, 68
2, 206160, Note_on_c, 0, 54, 0
2, 206163, Note_on_c, 0, 58, 0
2, 206174, Control_c, 0, 64, 10
2, 206190, Control_c, 0, 64, 0
2, 206220, Control_c, 0, 64, 34
2, 206236, Control_c, 0, 64, 62
2, 206251, Control_c, 0, 64, 80
2, 206267, Control_c, 0, 64, 127
2, 206278, Note_on_c, 0, 53, 0
2, 206554, Note_on_c, 0, 58, 65
2, 206555, Control_c, 0, 64, 77
2, 206560, Note_on_c, 0, 63, 0
2, 206569, Control_c, 0, 64, 38
2, 206569, Note_on_c, 0, 56, 0
2, 206571, Note_on_c, 0, 54, 54
2, 206584, Control_c, 0, 64, 0
2, 206684, Control_c, 0, 64, 43
2, 206699, Control_c, 0, 64, 63
2, 206714, Control_c, 0, 64, 78
2, 206729, Control_c, 0, 64, 127
2, 206941, Note_on_c, 0, 73, 81
2, 206941, Note_on_c, 0, 77, 83
2, 206948, Note_on_c, 0, 60, 67
2, 206978, Note_on_c, 0, 58, 0
2, 207123, Note_on_c, 0, 61, 77
2, 207156, Note_on_c, 0, 60, 0
2, 207187, Note_on_c, 0, 61, 0
2, 207323, Note_on_c, 0, 72, 71
2, 207325, Note_on_c, 0, 75, 80
2, 207333, Note_on_c, 0, 63, 56
2, 207337, Control_c, 0, 64, 94
2, 207353, Control_c, 0, 64, 69
2, 207376, Control_c, 0, 64, 37
2, 207392, Control_c, 0, 64, 0
2, 207395, Note_on_c, 0, 73, 0
2, 207420, Note_on_c, 0, 77, 0
2, 207513, Control_c, 0, 64, 46
2, 207528, Control_c, 0, 64, 56
2, 207543, Control_c, 0, 64, 60
2, 207558, Control_c, 0, 64, 62
2, 207573, Control_c, 0, 64, 65
2, 207589, Control_c, 0, 64, 70
2, 207604, Control_c, 0, 64, 76
2, 207619, Control_c, 0, 64, 81
2, 207634, Control_c, 0, 64, 82
2, 207694, Control_c, 0, 64, 81
2, 207710, Control_c, 0, 64, 78
2, 207716, Note_on_c, 0, 73, 72
2, 207723, Note_on_c, 0, 70, 69
2, 207726, Control_c, 0, 64, 68
2, 207741, Control_c, 0, 64, 55
2, 207757, Control_c, 0, 64, 0
2, 207757, Note_on_c, 0, 72, 0
2, 207761, Note_on_c, 0, 75, 0
2, 207802, Control_c, 0, 64, 35
2, 207817, Control_c, 0, 64, 57
2, 207833, Control_c, 0, 64, 64
2, 207848, Control_c, 0, 64, 75
2, 207862, Control_c, 0, 64, 109
2, 207878, Control_c, 0, 64, 127
2, 208050, Note_on_c, 0, 73, 0
2, 208068, Note_on_c, 0, 70, 0
2, 208100, Note_on_c, 0, 72, 65
2, 208106, Control_c, 0, 64, 90
2, 208107, Note_on_c, 0, 69, 59
2, 208121, Control_c, 0, 64, 70
2, 208143, Control_c, 0, 64, 57
2, 208146, Note_on_c, 0, 63, 0
2, 208159, Control_c, 0, 64, 41
2, 208174, Control_c, 0, 64, 50
2, 208190, Control_c, 0, 64, 59
2, 208205, Control_c, 0, 64, 64
2, 208219, Control_c, 0, 64, 71
2, 208235, Control_c, 0, 64, 89
2, 208250, Control_c, 0, 64, 127
2, 208483, Note_on_c, 0, 61, 55
2, 208484, Note_on_c, 0, 70, 62
2, 208492, Note_on_c, 0, 67, 58
2, 208493, Control_c, 0, 64, 90
2, 208498, Note_on_c, 0, 54, 0
2, 208509, Control_c, 0, 64, 67
2, 208510, Note_on_c, 0, 53, 45
2, 208523, Control_c, 0, 64, 49
2, 208530, Note_on_c, 0, 69, 0
2, 208530, Note_on_c, 0, 72, 0
2, 208538, Control_c, 0, 64, 31
2, 208556, Control_c, 0, 64, 49
2, 208570, Control_c, 0, 64, 60
2, 208586, Control_c, 0, 64, 65
2, 208601, Control_c, 0, 64, 74
2, 208616, Control_c, 0, 64, 108
2, 208631, Control_c, 0, 64, 127
2, 208721, Note_on_c, 0, 61, 0
2, 208871, Note_on_c, 0, 60, 65
2, 208878, Note_on_c, 0, 72, 69
2, 208886, Note_on_c, 0, 69, 67
2, 208888, Note_on_c, 0, 51, 50
2, 208913, Control_c, 0, 64, 85
2, 208917, Note_on_c, 0, 53, 0
2, 208928, Control_c, 0, 64, 67
2, 208932, Note_on_c, 0, 70, 0
2, 208933, Note_on_c, 0, 67, 0
2, 208943, Control_c, 0, 64, 51
2, 208958, Control_c, 0, 64, 55
2, 208973, Control_c, 0, 64, 63
2, 208989, Control_c, 0, 64, 68
2, 209004, Control_c, 0, 64, 84
2, 209019, Control_c, 0, 64, 127
2, 209078, Note_on_c, 0, 60, 0
2, 209156, Note_on_c, 0, 69, 0
2, 209275, Note_on_c, 0, 73, 85
2, 209278, Note_on_c, 0, 58, 66
2, 209278, Note_on_c, 0, 70, 77
2, 209293, Control_c, 0, 64, 88
2, 209294, Note_on_c, 0, 49, 56
2, 209300, Note_on_c, 0, 72, 0
2, 209309, Control_c, 0, 64, 67
2, 209310, Note_on_c, 0, 51, 0
2, 209323, Control_c, 0, 64, 47
2, 209338, Control_c, 0, 64, 46
2, 209354, Control_c, 0, 64, 61
2, 209369, Control_c, 0, 64, 67
2, 209384, Control_c, 0, 64, 80
2, 209400, Control_c, 0, 64, 127
2, 209474, Note_on_c, 0, 70, 0
2, 209486, Note_on_c, 0, 73, 0
2, 209535, Note_on_c, 0, 58, 0
2, 209594, Note_on_c, 0, 49, 0
2, 209682, Note_on_c, 0, 72, 82
2, 209682, Note_on_c, 0, 75, 86
2, 209684, Note_on_c, 0, 57, 69
2, 209695, Note_on_c, 0, 48, 61
2, 209741, Control_c, 0, 64, 77
2, 209756, Control_c, 0, 64, 21
2, 209771, Control_c, 0, 64, 0
2, 209892, Control_c, 0, 64, 60
2, 209908, Control_c, 0, 64, 64
2, 209923, Control_c, 0, 64, 70
2, 209938, Control_c, 0, 64, 85
2, 209954, Control_c, 0, 64, 127
2, 209967, Note_on_c, 0, 75, 0
2, 210060, Note_on_c, 0, 78, 89
2, 210063, Note_on_c, 0, 75, 85
2, 210103, Note_on_c, 0, 72, 0
2, 210110, Note_on_c, 0, 57, 0
2, 210310, Note_on_c, 0, 78, 0
2, 210455, Note_on_c, 0, 56, 67
2, 210461, Note_on_c, 0, 53, 62
2, 210463, Note_on_c, 0, 73, 86
2, 210467, Note_on_c, 0, 77, 82
2, 210498, Note_on_c, 0, 75, 0
2, 210509, Control_c, 0, 64, 76
2, 210523, Control_c, 0, 64, 29
2, 210538, Control_c, 0, 64, 0
2, 210614, Control_c, 0, 64, 63
2, 210629, Note_on_c, 0, 48, 0
2, 210630, Control_c, 0, 64, 90
2, 210645, Control_c, 0, 64, 127
2, 210851, Note_on_c, 0, 75, 88
2, 210856, Note_on_c, 0, 71, 80
2, 210907, Note_on_c, 0, 77, 0
2, 210955, Note_on_c, 0, 73, 0
2, 211234, Note_on_c, 0, 70, 85
2, 211236, Note_on_c, 0, 71, 0
2, 211236, Note_on_c, 0, 74, 84
2, 211250, Note_on_c, 0, 46, 75
2, 211252, Note_on_c, 0, 75, 0
2, 211279, Control_c, 0, 64, 77
2, 211288, Note_on_c, 0, 53, 0
2, 211293, Control_c, 0, 64, 45
2, 211309, Control_c, 0, 64, 0
2, 211369, Control_c, 0, 64, 48
2, 211385, Control_c, 0, 64, 70
2, 211400, Control_c, 0, 64, 119
2, 211415, Control_c, 0, 64, 127
2, 211444, Note_on_c, 0, 70, 0
2, 211454, Note_on_c, 0, 56, 0
2, 211487, Note_on_c, 0, 74, 0
2, 211624, Note_on_c, 0, 74, 85
2, 211625, Note_on_c, 0, 77, 87
2, 211856, Note_on_c, 0, 74, 0
2, 212033, Note_on_c, 0, 54, 69
2, 212036, Note_on_c, 0, 72, 78
2, 212039, Note_on_c, 0, 51, 65
2, 212039, Note_on_c, 0, 75, 83
2, 212110, Control_c, 0, 64, 83
2, 212122, Note_on_c, 0, 77, 0
2, 212125, Control_c, 0, 64, 58
2, 212140, Control_c, 0, 64, 0
2, 212208, Note_on_c, 0, 46, 0
2, 212216, Control_c, 0, 64, 48
2, 212231, Control_c, 0, 64, 63
2, 212246, Control_c, 0, 64, 78
2, 212262, Control_c, 0, 64, 127
2, 212290, Note_on_c, 0, 72, 0
2, 212327, Note_on_c, 0, 75, 0
2, 212416, Note_on_c, 0, 73, 82
2, 212425, Note_on_c, 0, 70, 73
2, 212581, Note_on_c, 0, 54, 0
2, 212752, Note_on_c, 0, 70, 0
2, 212755, Note_on_c, 0, 73, 0
2, 212838, Note_on_c, 0, 72, 79
2, 212841, Note_on_c, 0, 69, 70
2, 212939, Control_c, 0, 64, 103
2, 212954, Control_c, 0, 64, 93
2, 212969, Control_c, 0, 64, 87
2, 212984, Control_c, 0, 64, 82
2, 212999, Control_c, 0, 64, 77
2, 213015, Control_c, 0, 64, 73
2, 213030, Control_c, 0, 64, 70
2, 213045, Control_c, 0, 64, 67
2, 213060, Control_c, 0, 64, 64
2, 213075, Control_c, 0, 64, 62
2, 213090, Control_c, 0, 64, 61
2, 213106, Control_c, 0, 64, 60
2, 213121, Control_c, 0, 64, 59
2, 213136, Control_c, 0, 64, 58
2, 213151, Control_c, 0, 64, 58
2, 213166, Control_c, 0, 64, 57
2, 213207, Note_on_c, 0, 49, 75
2, 213208, Note_on_c, 0, 53, 76
2, 213237, Note_on_c, 0, 51, 0
2, 213242, Control_c, 0, 64, 57
2, 213257, Control_c, 0, 64, 56
2, 213272, Control_c, 0, 64, 56
2, 213287, Control_c, 0, 64, 55
2, 213303, Control_c, 0, 64, 55
2, 213318, Control_c, 0, 64, 54
2, 213334, Control_c, 0, 64, 54
2, 213348, Control_c, 0, 64, 53
2, 213363, Control_c, 0, 64, 53
2, 213379, Control_c, 0, 64, 52
2, 213394, Control_c, 0, 64, 52
2, 213409, Control_c, 0, 64, 51
2, 213425, Control_c, 0, 64, 49
2, 213440, Control_c, 0, 64, 48
2, 213456, Control_c, 0, 64, 48
2, 213471, Control_c, 0, 64, 47
2, 213486, Control_c, 0, 64, 46
2, 213501, Control_c, 0, 64, 45
2, 213524, Control_c, 0, 64, 43
2, 213540, Control_c, 0, 64, 41
2, 213555, Control_c, 0, 64, 39
2, 213569, Control_c, 0, 64, 37
2, 213585, Control_c, 0, 64, 34
2, 213600, Control_c, 0, 64, 30
2, 213615, Note_on_c, 0, 51, 70
2, 213616, Control_c, 0, 64, 24
2, 213618, Note_on_c, 0, 73, 78
2, 213619, Note_on_c, 0, 70, 74
2, 213619, Note_on_c, 0, 72, 0
2, 213621, Note_on_c, 0, 48, 63
2, 213630, Control_c, 0, 64, 17
2, 213641, Note_on_c, 0, 53, 0
2, 213645, Control_c, 0, 64, 0
2, 213659, Note_on_c, 0, 69, 0
2, 213669, Note_on_c, 0, 49, 0
2, 213968, Note_on_c, 0, 48, 0
2, 213999, Note_on_c, 0, 49, 75
2, 214018, Note_on_c, 0, 46, 52
2, 214024, Note_on_c, 0, 51, 0
2, 214056, Control_c, 0, 64, 44
2, 214071, Control_c, 0, 64, 57
2, 214086, Control_c, 0, 64, 64
2, 214101, Control_c, 0, 64, 76
2, 214109, Note_on_c, 0, 46, 0
2, 214116, Control_c, 0, 64, 127
2, 214229, Note_on_c, 0, 49, 0
2, 214351, Note_on_c, 0, 73, 0
2, 214400, Note_on_c, 0, 58, 57
2, 214427, Note_on_c, 0, 54, 43
2, 214453, Note_on_c, 0, 63, 80
2, 214489, Control_c, 0, 64, 102
2, 214501, Note_on_c, 0, 70, 0
2, 214505, Control_c, 0, 64, 74
2, 214520, Control_c, 0, 64, 57
2, 214536, Control_c, 0, 64, 0
2, 214596, Control_c, 0, 64, 43
2, 214612, Control_c, 0, 64, 59
2, 214626, Control_c, 0, 64, 67
2, 214641, Control_c, 0, 64, 89
2, 214657, Control_c, 0, 64, 127
2, 214837, Note_on_c, 0, 72, 73
2, 215146, Note_on_c, 0, 63, 0
2, 215210, Note_on_c, 0, 55, 63
2, 215253, Note_on_c, 0, 64, 84
2, 215288, Control_c, 0, 64, 105
2, 215304, Control_c, 0, 64, 68
2, 215306, Note_on_c, 0, 54, 0
2, 215316, Note_on_c, 0, 58, 0
2, 215318, Control_c, 0, 64, 0
2, 215380, Control_c, 0, 64, 26
2, 215394, Control_c, 0, 64, 61
2, 215409, Control_c, 0, 64, 72
2, 215425, Control_c, 0, 64, 98
2, 215439, Control_c, 0, 64, 127
2, 215607, Note_on_c, 0, 60, 68
2, 215610, Note_on_c, 0, 70, 84
2, 215644, Note_on_c, 0, 72, 0
2, 215686, Note_on_c, 0, 64, 0
2, 215760, Note_on_c, 0, 60, 0
2, 215837, Note_on_c, 0, 55, 0
2, 216002, Note_on_c, 0, 61, 69
2, 216005, Note_on_c, 0, 53, 61
2, 216048, Note_on_c, 0, 65, 76
2, 216048, Note_on_c, 0, 69, 86
2, 216072, Control_c, 0, 64, 67
2, 216072, Note_on_c, 0, 70, 0
2, 216086, Control_c, 0, 64, 0
2, 216178, Control_c, 0, 64, 58
2, 216193, Control_c, 0, 64, 68
2, 216206, Note_on_c, 0, 65, 0
2, 216208, Control_c, 0, 64, 84
2, 216224, Control_c, 0, 64, 127
2, 216249, Note_on_c, 0, 69, 0
2, 216452, Note_on_c, 0, 60, 75
2, 216452, Note_on_c, 0, 78, 91
2, 216458, Note_on_c, 0, 69, 79
2, 216482, Control_c, 0, 64, 91
2, 216497, Control_c, 0, 64, 68
2, 216497, Note_on_c, 0, 61, 0
2, 216512, Control_c, 0, 64, 58
2, 216527, Control_c, 0, 64, 62
2, 216543, Control_c, 0, 64, 69
2, 216557, Control_c, 0, 64, 90
2, 216573, Control_c, 0, 64, 127
2, 216663, Note_on_c, 0, 69, 0
2, 216767, Note_on_c, 0, 78, 0
2, 216854, Note_on_c, 0, 77, 92
2, 216856, Note_on_c, 0, 70, 91
2, 216872, Note_on_c, 0, 61, 73
2, 216901, Control_c, 0, 64, 77
2, 216916, Control_c, 0, 64, 58
2, 216930, Control_c, 0, 64, 0
2, 216934, Note_on_c, 0, 60, 0
2, 216961, Control_c, 0, 64, 39
2, 216977, Control_c, 0, 64, 63
2, 216992, Control_c, 0, 64, 77
2, 217006, Control_c, 0, 64, 127
2, 217071, Note_on_c, 0, 61, 0
2, 217243, Note_on_c, 0, 72, 80
2, 217243, Note_on_c, 0, 75, 88
2, 217248, Note_on_c, 0, 63, 76
2, 217269, Note_on_c, 0, 77, 0
2, 217277, Note_on_c, 0, 70, 0
2, 217280, Control_c, 0, 64, 81
2, 217296, Control_c, 0, 64, 62
2, 217311, Control_c, 0, 64, 59
2, 217326, Control_c, 0, 64, 64
2, 217341, Control_c, 0, 64, 71
2, 217361, Control_c, 0, 64, 91
2, 217376, Control_c, 0, 64, 127
2, 217422, Note_on_c, 0, 63, 0
2, 217437, Note_on_c, 0, 72, 0
2, 217439, Note_on_c, 0, 75, 0
2, 217655, Note_on_c, 0, 73, 87
2, 217661, Note_on_c, 0, 65, 82
2, 217712, Control_c, 0, 64, 102
2, 217727, Control_c, 0, 64, 68
2, 217743, Control_c, 0, 64, 29
2, 217758, Control_c, 0, 64, 0
2, 217803, Control_c, 0, 64, 49
2, 217819, Control_c, 0, 64, 67
2, 217834, Control_c, 0, 64, 88
2, 217848, Control_c, 0, 64, 127
2, 218055, Note_on_c, 0, 70, 86
2, 218332, Note_on_c, 0, 73, 0
2, 218459, Note_on_c, 0, 41, 89
2, 218479, Note_on_c, 0, 72, 90
2, 218490, Note_on_c, 0, 70, 0
2, 218556, Control_c, 0, 64, 84
2, 218571, Control_c, 0, 64, 56
2, 218587, Control_c, 0, 64, 0
2, 218625, Note_on_c, 0, 53, 0
2, 218663, Control_c, 0, 64, 60
2, 218678, Control_c, 0, 64, 68
2, 218692, Control_c, 0, 64, 85
2, 218708, Control_c, 0, 64, 127
2, 218891, Note_on_c, 0, 69, 87
2, 218927, Note_on_c, 0, 65, 0
2, 218996, Note_on_c, 0, 72, 0
2, 219396, Note_on_c, 0, 42, 87
2, 219433, Note_on_c, 0, 70, 91
2, 219470, Note_on_c, 0, 41, 0
2, 219471, Note_on_c, 0, 69, 0
2, 219566, Control_c, 0, 64, 87
2, 219580, Control_c, 0, 64, 70
2, 219596, Control_c, 0, 64, 57
2, 219611, Control_c, 0, 64, 0
2, 219784, Control_c, 0, 64, 42
2, 219800, Control_c, 0, 64, 54
2, 219814, Control_c, 0, 64, 62
2, 219830, Control_c, 0, 64, 69
2, 219845, Control_c, 0, 64, 86
2, 219859, Control_c, 0, 64, 127
2, 219888, Note_on_c, 0, 68, 84
2, 220293, Note_on_c, 0, 63, 73
2, 220293, Note_on_c, 0, 66, 83
2, 220317, Control_c, 0, 64, 109
2, 220332, Control_c, 0, 64, 76
2, 220348, Control_c, 0, 64, 62
2, 220355, Note_on_c, 0, 68, 0
2, 220363, Control_c, 0, 64, 55
2, 220377, Control_c, 0, 64, 60
2, 220393, Control_c, 0, 64, 64
2, 220408, Control_c, 0, 64, 71
2, 220431, Control_c, 0, 64, 92
2, 220446, Control_c, 0, 64, 127
2, 220495, Note_on_c, 0, 63, 0
2, 220566, Note_on_c, 0, 66, 0
2, 220692, Note_on_c, 0, 65, 79
2, 220701, Note_on_c, 0, 61, 65
2, 220734, Control_c, 0, 64, 86
2, 220750, Control_c, 0, 64, 68
2, 220765, Control_c, 0, 64, 61
2, 220779, Control_c, 0, 64, 63
2, 220795, Control_c, 0, 64, 67
2, 220810, Control_c, 0, 64, 74
2, 220826, Control_c, 0, 64, 93
2, 220842, Control_c, 0, 64, 127
2, 220845, Note_on_c, 0, 70, 0
2, 220969, Note_on_c, 0, 61, 0
2, 220997, Note_on_c, 0, 65, 0
2, 221086, Note_on_c, 0, 68, 74
2, 221088, Note_on_c, 0, 63, 75
2, 221094, Note_on_c, 0, 59, 68
2, 221146, Control_c, 0, 64, 112
2, 221161, Control_c, 0, 64, 96
2, 221176, Control_c, 0, 64, 90
2, 221199, Control_c, 0, 64, 86
2, 221214, Control_c, 0, 64, 84
2, 221229, Control_c, 0, 64, 82
2, 221244, Control_c, 0, 64, 79
2, 221259, Control_c, 0, 64, 76
2, 221275, Control_c, 0, 64, 74
2, 221290, Control_c, 0, 64, 72
2, 221306, Control_c, 0, 64, 70
2, 221321, Control_c, 0, 64, 69
2, 221336, Control_c, 0, 64, 68
2, 221351, Control_c, 0, 64, 67
2, 221366, Control_c, 0, 64, 66
2, 221381, Control_c, 0, 64, 64
2, 221397, Control_c, 0, 64, 63
2, 221412, Control_c, 0, 64, 61
2, 221427, Control_c, 0, 64, 60
2, 221442, Control_c, 0, 64, 59
2, 221454, Note_on_c, 0, 41, 75
2, 221457, Control_c, 0, 64, 59
2, 221458, Note_on_c, 0, 62, 69
2, 221472, Control_c, 0, 64, 58
2, 221487, Control_c, 0, 64, 57
2, 221493, Note_on_c, 0, 63, 0
2, 221502, Control_c, 0, 64, 56
2, 221518, Control_c, 0, 64, 54
2, 221533, Control_c, 0, 64, 52
2, 221548, Control_c, 0, 64, 51
2, 221559, Note_on_c, 0, 42, 0
2, 221563, Control_c, 0, 64, 49
2, 221578, Control_c, 0, 64, 46
2, 221594, Control_c, 0, 64, 44
2, 221609, Control_c, 0, 64, 43
2, 221620, Note_on_c, 0, 63, 76
2, 221623, Control_c, 0, 64, 41
2, 221639, Control_c, 0, 64, 37
2, 221655, Control_c, 0, 64, 33
2, 221666, Note_on_c, 0, 62, 0
2, 221671, Control_c, 0, 64, 27
2, 221686, Control_c, 0, 64, 23
2, 221701, Control_c, 0, 64, 20
2, 221717, Control_c, 0, 64, 13
2, 221731, Control_c, 0, 64, 0
2, 221834, Note_on_c, 0, 39, 60
2, 221837, Note_on_c, 0, 65, 70
2, 221872, Note_on_c, 0, 63, 0
2, 221993, Note_on_c, 0, 41, 0
2, 222241, Note_on_c, 0, 38, 63
2, 222275, Note_on_c, 0, 59, 0
2, 222364, Note_on_c, 0, 68, 0
2, 222399, Note_on_c, 0, 39, 0
2, 222641, Note_on_c, 0, 39, 59
2, 222644, Note_on_c, 0, 66, 78
2, 222649, Note_on_c, 0, 58, 68
2, 222682, Note_on_c, 0, 38, 0
2, 222685, Note_on_c, 0, 65, 0
2, 223041, Note_on_c, 0, 65, 72
2, 223053, Note_on_c, 0, 61, 60
2, 223070, Control_c, 0, 64, 22
2, 223085, Control_c, 0, 64, 33
2, 223094, Note_on_c, 0, 58, 0
2, 223100, Control_c, 0, 64, 44
2, 223115, Control_c, 0, 64, 51
2, 223130, Control_c, 0, 64, 56
2, 223146, Control_c, 0, 64, 60
2, 223161, Control_c, 0, 64, 62
2, 223175, Control_c, 0, 64, 64
2, 223191, Control_c, 0, 64, 66
2, 223206, Control_c, 0, 64, 68
2, 223221, Control_c, 0, 64, 70
2, 223236, Control_c, 0, 64, 71
2, 223251, Control_c, 0, 64, 71
2, 223267, Control_c, 0, 64, 72
2, 223282, Control_c, 0, 64, 72
2, 223298, Control_c, 0, 64, 73
2, 223314, Control_c, 0, 64, 73
2, 223419, Control_c, 0, 64, 71
2, 223433, Note_on_c, 0, 63, 67
2, 223435, Control_c, 0, 64, 66
2, 223436, Note_on_c, 0, 60, 59
2, 223446, Note_on_c, 0, 51, 49
2, 223450, Control_c, 0, 64, 58
2, 223455, Note_on_c, 0, 61, 0
2, 223464, Control_c, 0, 64, 0
2, 223522, Note_on_c, 0, 66, 0
2, 223527, Note_on_c, 0, 65, 0
2, 223530, Note_on_c, 0, 39, 0
2, 223579, Control_c, 0, 64, 48
2, 223595, Control_c, 0, 64, 59
2, 223609, Control_c, 0, 64, 64
2, 223624, Control_c, 0, 64, 69
2, 223640, Control_c, 0, 64, 78
2, 223655, Control_c, 0, 64, 93
2, 223671, Control_c, 0, 64, 127
2, 223682, Note_on_c, 0, 63, 0
2, 223822, Note_on_c, 0, 60, 0
2, 223822, Note_on_c, 0, 61, 59
2, 223831, Note_on_c, 0, 58, 52
2, 223937, Note_on_c, 0, 58, 0
2, 224251, Note_on_c, 0, 57, 44
2, 224271, Control_c, 0, 64, 100
2, 224277, Note_on_c, 0, 61, 0
2, 224283, Note_on_c, 0, 65, 63
2, 224286, Control_c, 0, 64, 82
2, 224289, Note_on_c, 0, 60, 48
2, 224301, Control_c, 0, 64, 69
2, 224317, Control_c, 0, 64, 55
2, 224332, Control_c, 0, 64, 0
2, 224387, Note_on_c, 0, 51, 0
2, 224439, Control_c, 0, 64, 28
2, 224453, Control_c, 0, 64, 52
2, 224469, Control_c, 0, 64, 60
2, 224484, Control_c, 0, 64, 65
2, 224499, Control_c, 0, 64, 74
2, 224515, Control_c, 0, 64, 99
2, 224529, Control_c, 0, 64, 127
2, 224673, Note_on_c, 0, 49, 42
2, 224673, Note_on_c, 0, 63, 50
2, 224734, Note_on_c, 0, 60, 0
2, 224773, Note_on_c, 0, 57, 0
2, 224855, Note_on_c, 0, 48, 49
2, 224878, Note_on_c, 0, 49, 0
2, 225062, Note_on_c, 0, 58, 59
2, 225069, Note_on_c, 0, 49, 47
2, 225092, Note_on_c, 0, 65, 0
2, 225110, Note_on_c, 0, 70, 91
2, 225148, Control_c, 0, 64, 89
2, 225163, Control_c, 0, 64, 66
2, 225169, Note_on_c, 0, 48, 0
2, 225173, Note_on_c, 0, 63, 0
2, 225178, Control_c, 0, 64, 26
2, 225193, Control_c, 0, 64, 0
2, 225239, Control_c, 0, 64, 52
2, 225254, Control_c, 0, 64, 64
2, 225270, Control_c, 0, 64, 80
2, 225285, Control_c, 0, 64, 127
2, 225481, Note_on_c, 0, 49, 0
2, 225496, Note_on_c, 0, 51, 45
2, 225508, Note_on_c, 0, 61, 56
2, 225569, Note_on_c, 0, 58, 0
2, 225585, Note_on_c, 0, 70, 0
2, 225661, Note_on_c, 0, 61, 0
2, 225830, Note_on_c, 0, 53, 59
2, 225832, Note_on_c, 0, 57, 59
2, 225893, Note_on_c, 0, 65, 93
2, 225904, Note_on_c, 0, 60, 82
2, 225976, Note_on_c, 0, 51, 0
2, 225980, Control_c, 0, 64, 67
2, 225995, Control_c, 0, 64, 0
2, 226086, Control_c, 0, 64, 42
2, 226101, Control_c, 0, 64, 54
2, 226116, Control_c, 0, 64, 64
2, 226131, Control_c, 0, 64, 73
2, 226147, Control_c, 0, 64, 127
2, 226272, Note_on_c, 0, 51, 54
2, 226593, Note_on_c, 0, 53, 0
2, 226627, Note_on_c, 0, 57, 0
2, 226634, Note_on_c, 0, 49, 70
2, 226641, Control_c, 0, 64, 82
2, 226648, Note_on_c, 0, 58, 97
2, 226656, Control_c, 0, 64, 41
2, 226662, Note_on_c, 0, 60, 0
2, 226671, Control_c, 0, 64, 0
2, 226706, Note_on_c, 0, 51, 0
2, 226731, Control_c, 0, 64, 55
2, 226747, Control_c, 0, 64, 68
2, 226762, Control_c, 0, 64, 97
2, 226770, Note_on_c, 0, 58, 0
2, 226777, Control_c, 0, 64, 127
2, 226785, Note_on_c, 0, 65, 0
2, 227028, Note_on_c, 0, 78, 99
2, 227033, Note_on_c, 0, 48, 76
2, 227050, Note_on_c, 0, 49, 0
2, 227297, Note_on_c, 0, 78, 0
2, 227416, Note_on_c, 0, 53, 85
2, 227419, Note_on_c, 0, 49, 77
2, 227424, Control_c, 0, 64, 89
2, 227425, Note_on_c, 0, 77, 94
2, 227439, Control_c, 0, 64, 39
2, 227455, Control_c, 0, 64, 0
2, 227458, Note_on_c, 0, 48, 0
2, 227546, Control_c, 0, 64, 46
2, 227561, Control_c, 0, 64, 63
2, 227576, Control_c, 0, 64, 75
2, 227591, Control_c, 0, 64, 127
2, 227811, Note_on_c, 0, 45, 78
2, 227813, Note_on_c, 0, 72, 92
2, 227816, Note_on_c, 0, 75, 89
2, 227830, Note_on_c, 0, 49, 0
2, 227841, Note_on_c, 0, 77, 0
2, 227960, Note_on_c, 0, 72, 0
2, 227976, Note_on_c, 0, 75, 0
2, 228223, Note_on_c, 0, 73, 88
2, 228225, Note_on_c, 0, 46, 84
2, 228226, Note_on_c, 0, 70, 87
2, 228261, Note_on_c, 0, 53, 0
2, 228264, Note_on_c, 0, 45, 0
2, 228268, Control_c, 0, 64, 80
2, 228283, Control_c, 0, 64, 0
2, 228390, Control_c, 0, 64, 16
2, 228396, Note_on_c, 0, 73, 0
2, 228405, Control_c, 0, 64, 58
2, 228420, Control_c, 0, 64, 69
2, 228435, Control_c, 0, 64, 127
2, 228610, Note_on_c, 0, 70, 0
2, 228617, Note_on_c, 0, 66, 96
2, 228618, Note_on_c, 0, 72, 87
2, 228857, Note_on_c, 0, 66, 0
2, 229041, Note_on_c, 0, 41, 89
2, 229057, Note_on_c, 0, 65, 91
2, 229060, Note_on_c, 0, 70, 87
2, 229062, Note_on_c, 0, 73, 86
2, 229066, Control_c, 0, 64, 94
2, 229069, Note_on_c, 0, 46, 0
2, 229072, Note_on_c, 0, 72, 0
2, 229081, Control_c, 0, 64, 53
2, 229097, Control_c, 0, 64, 0
2, 229173, Control_c, 0, 64, 57
2, 229187, Control_c, 0, 64, 76
2, 229202, Control_c, 0, 64, 127
2, 229209, Note_on_c, 0, 65, 0
2, 229224, Note_on_c, 0, 41, 0
2, 229233, Note_on_c, 0, 73, 0
2, 229263, Note_on_c, 0, 70, 0
2, 229465, Note_on_c, 0, 60, 94
2, 229467, Note_on_c, 0, 63, 80
2, 229467, Note_on_c, 0, 75, 86
2, 229470, Note_on_c, 0, 69, 78
2, 229491, Control_c, 0, 64, 83
2, 229507, Control_c, 0, 64, 61
2, 229521, Control_c, 0, 64, 39
2, 229537, Control_c, 0, 64, 55
2, 229552, Control_c, 0, 64, 66
2, 229567, Control_c, 0, 64, 88
2, 229577, Note_on_c, 0, 69, 0
2, 229583, Control_c, 0, 64, 127
2, 229629, Note_on_c, 0, 63, 0
2, 229636, Note_on_c, 0, 60, 0
2, 229866, Note_on_c, 0, 75, 0
2, 229882, Note_on_c, 0, 61, 87
2, 229884, Note_on_c, 0, 58, 85
2, 229889, Note_on_c, 0, 70, 90
2, 229891, Note_on_c, 0, 77, 87
2, 229923, Control_c, 0, 64, 75
2, 229938, Control_c, 0, 64, 40
2, 229954, Control_c, 0, 64, 0
2, 229999, Control_c, 0, 64, 54
2, 230014, Control_c, 0, 64, 72
2, 230030, Control_c, 0, 64, 127
2, 230092, Note_on_c, 0, 70, 0
2, 230164, Note_on_c, 0, 61, 0
2, 230173, Note_on_c, 0, 58, 0
2, 230277, Note_on_c, 0, 54, 86
2, 230279, Note_on_c, 0, 60, 90
2, 230282, Note_on_c, 0, 75, 90
2, 230283, Note_on_c, 0, 57, 82
2, 230284, Note_on_c, 0, 72, 83
2, 230313, Note_on_c, 0, 77, 0
2, 230318, Control_c, 0, 64, 71
2, 230333, Control_c, 0, 64, 31
2, 230347, Control_c, 0, 64, 0
2, 230376, Control_c, 0, 64, 21
2, 230392, Control_c, 0, 64, 61
2, 230415, Control_c, 0, 64, 75
2, 230431, Control_c, 0, 64, 127
2, 230447, Note_on_c, 0, 60, 0
2, 230449, Note_on_c, 0, 72, 0
2, 230456, Note_on_c, 0, 57, 0
2, 230465, Note_on_c, 0, 75, 0
2, 230683, Note_on_c, 0, 58, 77
2, 230683, Note_on_c, 0, 61, 87
2, 230685, Note_on_c, 0, 53, 76
2, 230687, Note_on_c, 0, 70, 90
2, 230689, Note_on_c, 0, 73, 94
2, 230702, Control_c, 0, 64, 72
2, 230715, Note_on_c, 0, 54, 0
2, 230718, Control_c, 0, 64, 0
2, 230823, Control_c, 0, 64, 58
2, 230839, Control_c, 0, 64, 72
2, 230854, Control_c, 0, 64, 127
2, 230856, Note_on_c, 0, 73, 0
2, 230888, Note_on_c, 0, 63, 77
2, 230940, Note_on_c, 0, 61, 0
2, 230981, Note_on_c, 0, 63, 0
2, 231038, Note_on_c, 0, 70, 0
2, 231081, Note_on_c, 0, 69, 88
2, 231084, Note_on_c, 0, 60, 89
2, 231085, Note_on_c, 0, 65, 82
2, 231087, Note_on_c, 0, 72, 86
2, 231093, Note_on_c, 0, 51, 77
2, 231097, Control_c, 0, 64, 85
2, 231104, Note_on_c, 0, 53, 0
2, 231112, Control_c, 0, 64, 55
2, 231126, Note_on_c, 0, 58, 0
2, 231127, Control_c, 0, 64, 0
2, 231197, Control_c, 0, 64, 46
2, 231211, Control_c, 0, 64, 70
2, 231226, Control_c, 0, 64, 127
2, 231290, Note_on_c, 0, 60, 0
2, 231345, Note_on_c, 0, 69, 0
2, 231486, Control_c, 0, 64, 124
2, 231499, Note_on_c, 0, 61, 91
2, 231501, Control_c, 0, 64, 67
2, 231503, Note_on_c, 0, 70, 90
2, 231508, Note_on_c, 0, 49, 75
2, 231516, Control_c, 0, 64, 0
2, 231520, Note_on_c, 0, 51, 0
2, 231535, Note_on_c, 0, 72, 0
2, 231570, Note_on_c, 0, 65, 0
2, 231577, Control_c, 0, 64, 41
2, 231591, Control_c, 0, 64, 66
2, 231607, Control_c, 0, 64, 99
2, 231622, Control_c, 0, 64, 127
2, 231792, Note_on_c, 0, 49, 0
2, 231805, Note_on_c, 0, 61, 0
2, 231917, Note_on_c, 0, 66, 85
2, 231919, Note_on_c, 0, 63, 84
2, 231921, Note_on_c, 0, 48, 81
2, 231948, Control_c, 0, 64, 74
2, 231964, Control_c, 0, 64, 39
2, 231979, Control_c, 0, 64, 0
2, 232010, Control_c, 0, 64, 41
2, 232025, Control_c, 0, 64, 65
2, 232041, Control_c, 0, 64, 86
2, 232055, Control_c, 0, 64, 127
2, 232137, Note_on_c, 0, 63, 0
2, 232155, Note_on_c, 0, 66, 0
2, 232171, Note_on_c, 0, 48, 0
2, 232363, Note_on_c, 0, 58, 86
2, 232368, Note_on_c, 0, 68, 86
2, 232369, Note_on_c, 0, 65, 85
2, 232375, Control_c, 0, 64, 121
2, 232380, Note_on_c, 0, 50, 68
2, 232390, Control_c, 0, 64, 66
2, 232405, Control_c, 0, 64, 0
2, 232410, Note_on_c, 0, 70, 0
2, 232481, Control_c, 0, 64, 54
2, 232496, Control_c, 0, 64, 69
2, 232511, Control_c, 0, 64, 127
2, 232549, Note_on_c, 0, 65, 0
2, 232820, Note_on_c, 0, 66, 86
2, 232823, Note_on_c, 0, 72, 90
2, 232824, Note_on_c, 0, 63, 84
2, 232825, Note_on_c, 0, 51, 83
2, 232844, Note_on_c, 0, 68, 0
2, 232854, Control_c, 0, 64, 69
2, 232864, Note_on_c, 0, 50, 0
2, 232869, Control_c, 0, 64, 0
2, 232910, Note_on_c, 0, 58, 0
2, 232930, Control_c, 0, 64, 36
2, 232945, Control_c, 0, 64, 65
2, 232961, Control_c, 0, 64, 84
2, 232976, Control_c, 0, 64, 127
2, 233068, Note_on_c, 0, 72, 0
2, 233069, Note_on_c, 0, 63, 0
2, 233091, Note_on_c, 0, 66, 0
2, 233303, Note_on_c, 0, 53, 87
2, 233316, Note_on_c, 0, 73, 94
2, 233318, Note_on_c, 0, 61, 84
2, 233319, Note_on_c, 0, 65, 85
2, 233327, Note_on_c, 0, 51, 0
2, 233372, Control_c, 0, 64, 64
2, 233387, Control_c, 0, 64, 0
2, 233531, Control_c, 0, 64, 62
2, 233536, Note_on_c, 0, 54, 89
2, 233545, Control_c, 0, 64, 70
2, 233557, Note_on_c, 0, 53, 0
2, 233561, Control_c, 0, 64, 78
2, 233576, Control_c, 0, 64, 84
2, 233591, Control_c, 0, 64, 89
2, 233607, Control_c, 0, 64, 89
2, 233652, Control_c, 0, 64, 86
2, 233666, Control_c, 0, 64, 80
2, 233682, Control_c, 0, 64, 75
2, 233697, Control_c, 0, 64, 72
2, 233712, Control_c, 0, 64, 67
2, 233728, Control_c, 0, 64, 61
2, 233743, Control_c, 0, 64, 0
2, 233776, Note_on_c, 0, 52, 86
2, 233801, Note_on_c, 0, 54, 0
2, 233880, Control_c, 0, 64, 8
2, 233895, Control_c, 0, 64, 47
2, 233910, Control_c, 0, 64, 64
2, 233926, Control_c, 0, 64, 82
2, 233942, Control_c, 0, 64, 127
2, 233973, Note_on_c, 0, 65, 0
2, 233999, Note_on_c, 0, 52, 0
2, 234029, Note_on_c, 0, 53, 97
2, 234089, Note_on_c, 0, 53, 0
2, 234392, Note_on_c, 0, 40, 87
2, 234407, Note_on_c, 0, 67, 93
2, 234432, Note_on_c, 0, 61, 0
2, 234436, Control_c, 0, 64, 114
2, 234444, Note_on_c, 0, 73, 0
2, 234451, Control_c, 0, 64, 72
2, 234465, Control_c, 0, 64, 29
2, 234481, Control_c, 0, 64, 0
2, 234632, Control_c, 0, 64, 46
2, 234648, Control_c, 0, 64, 60
2, 234663, Control_c, 0, 64, 68
2, 234679, Control_c, 0, 64, 90
2, 234694, Control_c, 0, 64, 127
2, 234862, Note_on_c, 0, 73, 99
2, 235143, Note_on_c, 0, 73, 0
2, 235351, Note_on_c, 0, 72, 94
2, 235355, Note_on_c, 0, 60, 88
2, 235401, Control_c, 0, 64, 80
2, 235416, Control_c, 0, 64, 61
2, 235430, Control_c, 0, 64, 0
2, 235461, Control_c, 0, 64, 44
2, 235477, Control_c, 0, 64, 59
2, 235492, Control_c, 0, 64, 67
2, 235507, Control_c, 0, 64, 94
2, 235523, Control_c, 0, 64, 127
2, 235681, Note_on_c, 0, 40, 0
2, 235725, Note_on_c, 0, 67, 0
2, 235878, Note_on_c, 0, 70, 92
2, 235907, Note_on_c, 0, 72, 0
2, 236138, Note_on_c, 0, 60, 0
2, 236167, Note_on_c, 0, 70, 0
2, 236396, Note_on_c, 0, 41, 86
2, 236448, Note_on_c, 0, 65, 92
2, 236450, Note_on_c, 0, 60, 88
2, 236450, Note_on_c, 0, 70, 92
2, 236509, Control_c, 0, 64, 78
2, 236524, Control_c, 0, 64, 0
2, 236624, Control_c, 0, 64, 47
2, 236638, Control_c, 0, 64, 64
2, 236653, Control_c, 0, 64, 75
2, 236669, Control_c, 0, 64, 127
2, 236793, Note_on_c, 0, 65, 0
2, 237009, Note_on_c, 0, 66, 88
2, 237397, Note_on_c, 0, 70, 0
2, 237558, Note_on_c, 0, 66, 0
2, 237625, Note_on_c, 0, 53, 88
2, 237656, Note_on_c, 0, 65, 91
2, 237658, Note_on_c, 0, 69, 87
2, 237668, Note_on_c, 0, 60, 0
2, 237725, Control_c, 0, 64, 87
2, 237741, Control_c, 0, 64, 56
2, 237755, Control_c, 0, 64, 0
2, 237862, Control_c, 0, 64, 53
2, 237877, Control_c, 0, 64, 63
2, 237885, Note_on_c, 0, 41, 0
2, 237891, Control_c, 0, 64, 73
2, 237907, Control_c, 0, 64, 127
2, 238396, Note_on_c, 0, 63, 84
2, 238424, Note_on_c, 0, 65, 0
2, 238586, Note_on_c, 0, 69, 0
2, 238751, Note_on_c, 0, 63, 0
2, 239652, Note_on_c, 0, 58, 80
2, 239653, Note_on_c, 0, 70, 85
2, 239654, Note_on_c, 0, 46, 68
2, 239654, Note_on_c, 0, 62, 82
2, 239815, Control_c, 0, 64, 103
2, 239831, Control_c, 0, 64, 92
2, 239846, Control_c, 0, 64, 84
2, 239862, Control_c, 0, 64, 76
2, 239877, Control_c, 0, 64, 68
2, 239891, Control_c, 0, 64, 62
2, 239907, Control_c, 0, 64, 51
2, 239922, Control_c, 0, 64, 39
2, 239937, Control_c, 0, 64, 22
2, 239953, Control_c, 0, 64, 0
2, 242842, Note_on_c, 0, 46, 0
2, 242842, Note_on_c, 0, 53, 0
2, 242853, Note_on_c, 0, 70, 0
2, 242857, Note_on_c, 0, 62, 0
2, 242863, Note_on_c, 0, 58, 0
2, 242864, End_track
0, 0, End_of_file
