0, 0, Header, 1, 2, 384
1, 0, Start_track
1, 0, Tempo, 500000
1, 0, Time_signature, 4, 2, 24, 8
1, 1, End_track
2,0,Start_track
2,0, Note_on_c, 0, 70, 53
2,1042, Note_on_c, 0, 65, 41
2,1261, Note_on_c, 0, 70, 0
2,2036, Note_on_c, 0, 65, 0
2,2446, Note_on_c, 0, 78, 64
2,2863, Note_on_c, 0, 77, 61
2,2998, Note_on_c, 0, 78, 0
2,3280, Note_on_c, 0, 75, 62
2,3393, Note_on_c, 0, 77, 0
2,3675, Note_on_c, 0, 65, 55
2,3675, Note_on_c, 0, 73, 55
2,3730, Note_on_c, 0, 75, 0
2,4073, Note_on_c, 0, 72, 56
2,4114, Note_on_c, 0, 73, 0
2,4486, Note_on_c, 0, 58, 50
2,4487, Note_on_c, 0, 73, 59
2,4556, Note_on_c, 0, 72, 0
2,4642, Note_on_c, 0, 65, 0
2,4903, Note_on_c, 0, 75, 62
2,4969, Note_on_c, 0, 73, 0
2,5288, Note_on_c, 0, 77, 66
2,5342, Note_on_c, 0, 58, 0
2,5342, Note_on_c, 0, 75, 0
2,5691, Note_on_c, 0, 73, 61
2,5694, Note_on_c, 0, 76, 63
2,5732, Note_on_c, 0, 77, 0
2,5874, Note_on_c, 0, 77, 69
2,5913, Note_on_c, 0, 76, 0
2,6078, Note_on_c, 0, 72, 50
2,6085, Note_on_c, 0, 79, 68
2,6123, Note_on_c, 0, 77, 0
2,6186, Note_on_c, 0, 73, 0
2,6487, Note_on_c, 0, 70, 54
2,6609, Note_on_c, 0, 72, 0
2,6862, Note_on_c, 0, 68, 56
2,6978, Note_on_c, 0, 70, 0
2,7016, Note_on_c, 0, 79, 0
2,7261, Note_on_c, 0, 80, 63
2,7272, Note_on_c, 0, 67, 40
2,7367, Note_on_c, 0, 68, 0
2,7444, Note_on_c, 0, 79, 66
2,7502, Note_on_c, 0, 80, 0
2,7645, Note_on_c, 0, 77, 67
2,7655, Note_on_c, 0, 68, 45
2,7709, Note_on_c, 0, 79, 0
2,7729, Note_on_c, 0, 67, 0
2,8055, Note_on_c, 0, 70, 50
2,8116, Note_on_c, 0, 68, 0
2,8461, Note_on_c, 0, 72, 49
2,8543, Note_on_c, 0, 77, 0
2,8549, Note_on_c, 0, 70, 0
2,8830, Note_on_c, 0, 75, 58
2,9016, Note_on_c, 0, 73, 63
2,9069, Note_on_c, 0, 75, 0
2,9210, Note_on_c, 0, 75, 65
2,9283, Note_on_c, 0, 73, 0
2,9594, Note_on_c, 0, 77, 65
2,9601, Note_on_c, 0, 70, 48
2,9656, Note_on_c, 0, 75, 0
2,9754, Note_on_c, 0, 72, 0
2,9763, Note_on_c, 0, 69, 54
2,9803, Note_on_c, 0, 70, 0
2,9971, Note_on_c, 0, 78, 72
2,9974, Note_on_c, 0, 70, 46
2,10014, Note_on_c, 0, 69, 0
2,10041, Note_on_c, 0, 77, 0
2,10382, Note_on_c, 0, 72, 54
2,10458, Note_on_c, 0, 70, 0
2,10758, Note_on_c, 0, 73, 51
2,10844, Note_on_c, 0, 72, 0
2,11139, Note_on_c, 0, 77, 63
2,11182, Note_on_c, 0, 78, 0
2,11315, Note_on_c, 0, 75, 66
2,11365, Note_on_c, 0, 77, 0
2,11532, Note_on_c, 0, 77, 68
2,11577, Note_on_c, 0, 75, 0
2,11918, Note_on_c, 0, 79, 74
2,11933, Note_on_c, 0, 72, 52
2,11973, Note_on_c, 0, 73, 0
2,11987, Note_on_c, 0, 77, 0
2,12096, Note_on_c, 0, 70, 60
2,12157, Note_on_c, 0, 72, 0
2,12299, Note_on_c, 0, 72, 51
2,12302, Note_on_c, 0, 80, 70
2,12342, Note_on_c, 0, 79, 0
2,12402, Note_on_c, 0, 70, 0
2,12683, Note_on_c, 0, 74, 56
2,12747, Note_on_c, 0, 72, 0
2,13056, Note_on_c, 0, 75, 55
2,13099, Note_on_c, 0, 74, 0
2,13447, Note_on_c, 0, 79, 62
2,13491, Note_on_c, 0, 80, 0
2,13624, Note_on_c, 0, 77, 67
2,13656, Note_on_c, 0, 79, 0
2,13814, Note_on_c, 0, 79, 65
2,13828, Control_c, 0, 67, 125
2,13842, Note_on_c, 0, 77, 0
2,13844, Control_c, 0, 67, 123
2,13859, Control_c, 0, 67, 120
2,13873, Control_c, 0, 67, 118
2,13889, Control_c, 0, 67, 114
2,13904, Control_c, 0, 67, 109
2,13920, Control_c, 0, 67, 105
2,13935, Control_c, 0, 67, 100
2,13957, Control_c, 0, 67, 94
2,13973, Control_c, 0, 67, 86
2,13988, Control_c, 0, 67, 77
2,14004, Control_c, 0, 67, 70
2,14019, Control_c, 0, 67, 63
2,14034, Control_c, 0, 67, 58
2,14050, Control_c, 0, 67, 48
2,14065, Control_c, 0, 67, 37
2,14080, Control_c, 0, 67, 25
2,14095, Control_c, 0, 67, 13
2,14110, Control_c, 0, 67, 0
2,14226, Note_on_c, 0, 81, 65
2,14227, Note_on_c, 0, 73, 56
2,14231, Control_c, 0, 64, 40
2,14241, Note_on_c, 0, 79, 0
2,14247, Control_c, 0, 64, 58
2,14262, Control_c, 0, 64, 72
2,14275, Note_on_c, 0, 75, 0
2,14276, Control_c, 0, 64, 108
2,14292, Control_c, 0, 64, 127
2,14430, Note_on_c, 0, 72, 58
2,14444, Note_on_c, 0, 73, 0
2,14464, Note_on_c, 0, 72, 0
2,14652, Note_on_c, 0, 58, 74
2,14656, Note_on_c, 0, 82, 64
2,14661, Note_on_c, 0, 73, 56
2,14704, Note_on_c, 0, 81, 0
2,14740, Control_c, 0, 64, 112
2,14755, Control_c, 0, 64, 88
2,14771, Control_c, 0, 64, 74
2,14786, Control_c, 0, 64, 65
2,14801, Control_c, 0, 64, 54
2,14816, Control_c, 0, 64, 34
2,14831, Control_c, 0, 64, 21
2,14847, Control_c, 0, 64, 0
2,15047, Note_on_c, 0, 75, 68
2,15145, Note_on_c, 0, 73, 0
2,15435, Note_on_c, 0, 53, 55
2,15458, Note_on_c, 0, 77, 63
2,15491, Note_on_c, 0, 75, 0
2,15529, Note_on_c, 0, 58, 0
2,15837, Note_on_c, 0, 81, 62
2,16012, Note_on_c, 0, 82, 0
2,16015, Note_on_c, 0, 79, 68
2,16044, Note_on_c, 0, 81, 0
2,16224, Note_on_c, 0, 81, 66
2,16232, Note_on_c, 0, 53, 0
2,16245, Note_on_c, 0, 77, 0
2,16269, Note_on_c, 0, 79, 0
2,16589, Note_on_c, 0, 66, 69
2,16595, Control_c, 0, 64, 30
2,16596, Note_on_c, 0, 82, 70
2,16602, Note_on_c, 0, 75, 64
2,16610, Control_c, 0, 64, 48
2,16625, Control_c, 0, 64, 56
2,16641, Control_c, 0, 64, 62
2,16643, Note_on_c, 0, 81, 0
2,16656, Control_c, 0, 64, 66
2,16671, Control_c, 0, 64, 82
2,16686, Control_c, 0, 64, 127
2,16768, Note_on_c, 0, 75, 0
2,16781, Note_on_c, 0, 73, 71
2,16833, Note_on_c, 0, 82, 0
2,16834, Note_on_c, 0, 73, 0
2,16996, Note_on_c, 0, 65, 65
2,16997, Note_on_c, 0, 75, 73
2,16997, Note_on_c, 0, 84, 76
2,17061, Control_c, 0, 64, 79
2,17077, Control_c, 0, 64, 59
2,17085, Note_on_c, 0, 66, 0
2,17092, Control_c, 0, 64, 0
2,17153, Control_c, 0, 64, 12
2,17168, Control_c, 0, 64, 54
2,17183, Control_c, 0, 64, 64
2,17198, Control_c, 0, 64, 73
2,17213, Control_c, 0, 64, 127
2,17414, Note_on_c, 0, 63, 69
2,17420, Note_on_c, 0, 65, 0
2,17540, Note_on_c, 0, 63, 0
2,17814, Note_on_c, 0, 53, 75
2,17815, Control_c, 0, 64, 104
2,17816, Note_on_c, 0, 61, 72
2,17830, Control_c, 0, 64, 66
2,17846, Control_c, 0, 64, 0
2,17967, Control_c, 0, 64, 59
2,17982, Control_c, 0, 64, 68
2,17989, Note_on_c, 0, 84, 0
2,17998, Control_c, 0, 64, 80
2,18013, Control_c, 0, 64, 124
2,18028, Control_c, 0, 64, 127
2,18038, Note_on_c, 0, 61, 0
2,18060, Note_on_c, 0, 75, 0
2,18206, Note_on_c, 0, 60, 66
2,18208, Note_on_c, 0, 77, 73
2,18210, Note_on_c, 0, 82, 74
2,18332, Note_on_c, 0, 60, 0
2,18363, Note_on_c, 0, 53, 0
2,18390, Note_on_c, 0, 77, 0
2,18391, Note_on_c, 0, 81, 75
2,18393, Note_on_c, 0, 82, 0
2,18402, Note_on_c, 0, 75, 70
2,18457, Note_on_c, 0, 75, 0
2,18588, Note_on_c, 0, 46, 79
2,18591, Note_on_c, 0, 58, 75
2,18610, Note_on_c, 0, 82, 79
2,18613, Control_c, 0, 64, 91
2,18620, Note_on_c, 0, 73, 67
2,18628, Control_c, 0, 64, 63
2,18644, Control_c, 0, 64, 0
2,18650, Note_on_c, 0, 81, 0
2,18735, Control_c, 0, 64, 45
2,18749, Control_c, 0, 64, 65
2,18765, Control_c, 0, 64, 82
2,18778, Note_on_c, 0, 46, 0
2,18780, Control_c, 0, 64, 127
2,18852, Note_on_c, 0, 73, 0
2,18993, Note_on_c, 0, 60, 65
2,19002, Note_on_c, 0, 80, 74
2,19004, Note_on_c, 0, 72, 67
2,19040, Note_on_c, 0, 82, 0
2,19047, Note_on_c, 0, 58, 0
2,19166, Note_on_c, 0, 72, 0
2,19170, Note_on_c, 0, 61, 79
2,19195, Note_on_c, 0, 60, 0
2,19298, Control_c, 0, 64, 121
2,19314, Control_c, 0, 64, 110
2,19335, Control_c, 0, 64, 103
2,19350, Control_c, 0, 64, 97
2,19366, Control_c, 0, 64, 90
2,19380, Control_c, 0, 64, 83
2,19389, Note_on_c, 0, 63, 67
2,19396, Control_c, 0, 64, 76
2,19402, Note_on_c, 0, 78, 73
2,19405, Note_on_c, 0, 70, 66
2,19411, Control_c, 0, 64, 70
2,19426, Control_c, 0, 64, 64
2,19434, Note_on_c, 0, 80, 0
2,19442, Control_c, 0, 64, 55
2,19457, Control_c, 0, 64, 40
2,19460, Note_on_c, 0, 61, 0
2,19473, Control_c, 0, 64, 0
2,19784, Note_on_c, 0, 65, 65
2,19788, Note_on_c, 0, 61, 63
2,19793, Note_on_c, 0, 77, 77
2,19824, Note_on_c, 0, 78, 0
2,19874, Note_on_c, 0, 63, 0
2,20177, Note_on_c, 0, 66, 66
2,20181, Note_on_c, 0, 60, 61
2,20184, Note_on_c, 0, 65, 0
2,20184, Note_on_c, 0, 75, 73
2,20215, Note_on_c, 0, 77, 0
2,20217, Note_on_c, 0, 61, 0
2,20306, Note_on_c, 0, 70, 0
2,20508, Note_on_c, 0, 66, 0
2,20554, Note_on_c, 0, 58, 57
2,20560, Note_on_c, 0, 69, 62
2,20620, Control_c, 0, 64, 26
2,20635, Control_c, 0, 64, 50
2,20648, Note_on_c, 0, 60, 0
2,20650, Control_c, 0, 64, 59
2,20665, Control_c, 0, 64, 64
2,20681, Control_c, 0, 64, 77
2,20696, Control_c, 0, 64, 127
2,20751, Note_on_c, 0, 70, 71
2,20767, Note_on_c, 0, 69, 0
2,20937, Note_on_c, 0, 75, 0
2,20958, Note_on_c, 0, 58, 0
2,20964, Control_c, 0, 64, 91
2,20972, Note_on_c, 0, 57, 53
2,20973, Note_on_c, 0, 65, 55
2,20976, Note_on_c, 0, 72, 67
2,20979, Control_c, 0, 64, 65
2,20995, Control_c, 0, 64, 0
2,21007, Note_on_c, 0, 70, 0
2,21055, Control_c, 0, 64, 54
2,21069, Control_c, 0, 64, 69
2,21085, Control_c, 0, 64, 93
2,21100, Control_c, 0, 64, 127
2,21101, Note_on_c, 0, 65, 0
2,21106, Note_on_c, 0, 72, 0
2,21365, Note_on_c, 0, 63, 62
2,21367, Note_on_c, 0, 69, 65
2,21370, Note_on_c, 0, 77, 71
2,21376, Note_on_c, 0, 53, 54
2,21376, Note_on_c, 0, 57, 0
2,21389, Control_c, 0, 64, 114
2,21404, Control_c, 0, 64, 75
2,21419, Control_c, 0, 64, 56
2,21435, Control_c, 0, 64, 0
2,21480, Control_c, 0, 64, 29
2,21495, Control_c, 0, 64, 57
2,21510, Control_c, 0, 64, 67
2,21511, Note_on_c, 0, 69, 0
2,21526, Control_c, 0, 64, 86
2,21541, Control_c, 0, 64, 127
2,21547, Note_on_c, 0, 63, 0
2,21551, Note_on_c, 0, 78, 79
2,21571, Note_on_c, 0, 77, 0
2,21758, Note_on_c, 0, 77, 78
2,21762, Note_on_c, 0, 61, 64
2,21762, Note_on_c, 0, 70, 66
2,21764, Note_on_c, 0, 55, 57
2,21793, Control_c, 0, 64, 81
2,21800, Note_on_c, 0, 78, 0
2,21808, Control_c, 0, 64, 61
2,21814, Note_on_c, 0, 53, 0
2,21823, Control_c, 0, 64, 0
2,21868, Control_c, 0, 64, 22
2,21884, Control_c, 0, 64, 60
2,21899, Control_c, 0, 64, 74
2,21914, Control_c, 0, 64, 127
2,21980, Note_on_c, 0, 70, 0
2,21994, Note_on_c, 0, 61, 0
2,22145, Note_on_c, 0, 57, 63
2,22149, Note_on_c, 0, 60, 69
2,22153, Note_on_c, 0, 55, 0
2,22154, Note_on_c, 0, 75, 80
2,22156, Note_on_c, 0, 72, 71
2,22172, Control_c, 0, 64, 91
2,22183, Note_on_c, 0, 77, 0
2,22187, Control_c, 0, 64, 65
2,22203, Control_c, 0, 64, 0
2,22234, Control_c, 0, 64, 34
2,22248, Control_c, 0, 64, 62
2,22263, Control_c, 0, 64, 75
2,22279, Control_c, 0, 64, 127
2,22289, Note_on_c, 0, 60, 0
2,22289, Note_on_c, 0, 72, 0
2,22307, Note_on_c, 0, 75, 0
2,22310, Note_on_c, 0, 57, 0
2,22561, Note_on_c, 0, 58, 78
2,22572, Note_on_c, 0, 73, 78
2,22573, Note_on_c, 0, 61, 73
2,22574, Note_on_c, 0, 46, 68
2,22604, Control_c, 0, 64, 97
2,22619, Control_c, 0, 64, 67
2,22634, Control_c, 0, 64, 0
2,22710, Control_c, 0, 64, 30
2,22726, Control_c, 0, 64, 59
2,22741, Control_c, 0, 64, 69
2,22755, Control_c, 0, 64, 97
2,22771, Control_c, 0, 64, 127
2,22812, Note_on_c, 0, 61, 0
2,22955, Note_on_c, 0, 48, 65
2,22957, Note_on_c, 0, 70, 75
2,22965, Note_on_c, 0, 63, 69
2,22979, Note_on_c, 0, 58, 0
2,23001, Note_on_c, 0, 46, 0
2,23013, Note_on_c, 0, 73, 0
2,23043, Note_on_c, 0, 63, 0
2,23137, Note_on_c, 0, 69, 81
2,23143, Note_on_c, 0, 70, 0
2,23333, Note_on_c, 0, 48, 0
2,23341, Control_c, 0, 64, 101
2,23344, Note_on_c, 0, 49, 78
2,23347, Note_on_c, 0, 70, 78
2,23350, Note_on_c, 0, 41, 75
2,23352, Note_on_c, 0, 65, 71
2,23353, Note_on_c, 0, 69, 0
2,23356, Control_c, 0, 64, 84
2,23371, Control_c, 0, 64, 70
2,23386, Control_c, 0, 64, 61
2,23402, Control_c, 0, 64, 27
2,23417, Control_c, 0, 64, 0
2,23747, Note_on_c, 0, 51, 62
2,23752, Note_on_c, 0, 66, 64
2,23766, Note_on_c, 0, 49, 0
2,23805, Note_on_c, 0, 65, 0
2,23812, Control_c, 0, 64, 48
2,23827, Control_c, 0, 64, 56
2,23842, Control_c, 0, 64, 58
2,23856, Note_on_c, 0, 41, 0
2,23857, Control_c, 0, 64, 61
2,23872, Control_c, 0, 64, 65
2,23888, Control_c, 0, 64, 70
2,23903, Control_c, 0, 64, 82
2,23918, Control_c, 0, 64, 95
2,23941, Control_c, 0, 64, 112
2,23956, Control_c, 0, 64, 127
2,24146, Note_on_c, 0, 53, 56
2,24147, Note_on_c, 0, 72, 66
2,24153, Note_on_c, 0, 60, 58
2,24185, Control_c, 0, 64, 110
2,24200, Note_on_c, 0, 66, 0
2,24201, Control_c, 0, 64, 98
2,24208, Note_on_c, 0, 70, 0
2,24216, Control_c, 0, 64, 89
2,24231, Control_c, 0, 64, 83
2,24238, Note_on_c, 0, 51, 0
2,24246, Control_c, 0, 64, 77
2,24261, Control_c, 0, 64, 72
2,24276, Control_c, 0, 64, 67
2,24292, Control_c, 0, 64, 63
2,24307, Control_c, 0, 64, 56
2,24322, Control_c, 0, 64, 46
2,24337, Control_c, 0, 64, 37
2,24352, Control_c, 0, 64, 29
2,24368, Control_c, 0, 64, 20
2,24383, Control_c, 0, 64, 0
2,24539, Note_on_c, 0, 54, 80
2,24602, Note_on_c, 0, 53, 0
2,24942, Note_on_c, 0, 56, 67
2,24946, Note_on_c, 0, 65, 69
2,24947, Note_on_c, 0, 53, 68
2,24947, Note_on_c, 0, 68, 76
2,24982, Note_on_c, 0, 54, 0
2,24985, Note_on_c, 0, 72, 0
2,25035, Note_on_c, 0, 60, 0
2,25350, Note_on_c, 0, 51, 67
2,25376, Note_on_c, 0, 53, 0
2,25511, Note_on_c, 0, 56, 0
2,25750, Note_on_c, 0, 58, 63
2,25756, Note_on_c, 0, 70, 73
2,25761, Note_on_c, 0, 50, 56
2,25811, Note_on_c, 0, 51, 0
2,25835, Note_on_c, 0, 68, 0
2,25847, Note_on_c, 0, 65, 0
2,26154, Note_on_c, 0, 62, 60
2,26156, Note_on_c, 0, 46, 57
2,26332, Note_on_c, 0, 50, 0
2,26541, Note_on_c, 0, 48, 59
2,26543, Note_on_c, 0, 63, 65
2,26629, Note_on_c, 0, 62, 0
2,26641, Note_on_c, 0, 46, 0
2,26923, Note_on_c, 0, 50, 57
2,26927, Note_on_c, 0, 48, 0
2,26932, Note_on_c, 0, 65, 66
2,26995, Note_on_c, 0, 63, 0
2,27327, Note_on_c, 0, 66, 63
2,27336, Note_on_c, 0, 51, 43
2,27366, Note_on_c, 0, 50, 0
2,27366, Note_on_c, 0, 65, 0
2,27426, Note_on_c, 0, 58, 0
2,27700, Note_on_c, 0, 53, 51
2,27726, Note_on_c, 0, 63, 61
2,27859, Note_on_c, 0, 51, 0
2,27898, Note_on_c, 0, 62, 67
2,27899, Note_on_c, 0, 63, 0
2,28092, Note_on_c, 0, 63, 68
2,28093, Note_on_c, 0, 62, 0
2,28099, Note_on_c, 0, 51, 51
2,28125, Note_on_c, 0, 70, 0
2,28178, Note_on_c, 0, 53, 0
2,28471, Note_on_c, 0, 49, 49
2,28486, Note_on_c, 0, 75, 72
2,28498, Control_c, 0, 64, 40
2,28514, Control_c, 0, 64, 54
2,28529, Control_c, 0, 64, 64
2,28532, Note_on_c, 0, 51, 0
2,28551, Control_c, 0, 64, 77
2,28567, Control_c, 0, 64, 127
2,28622, Note_on_c, 0, 75, 0
2,28660, Note_on_c, 0, 49, 0
2,28870, Note_on_c, 0, 60, 61
2,28871, Note_on_c, 0, 68, 66
2,28872, Note_on_c, 0, 48, 56
2,28886, Control_c, 0, 64, 81
2,28901, Control_c, 0, 64, 60
2,28917, Control_c, 0, 64, 0
2,28962, Control_c, 0, 64, 58
2,28977, Control_c, 0, 64, 77
2,28983, Note_on_c, 0, 60, 0
2,28992, Control_c, 0, 64, 127
2,29019, Note_on_c, 0, 48, 0
2,29260, Note_on_c, 0, 48, 62
2,29261, Note_on_c, 0, 44, 55
2,29316, Control_c, 0, 64, 77
2,29332, Control_c, 0, 64, 57
2,29347, Control_c, 0, 64, 0
2,29392, Control_c, 0, 64, 33
2,29408, Control_c, 0, 64, 60
2,29423, Control_c, 0, 64, 71
2,29437, Control_c, 0, 64, 94
2,29453, Control_c, 0, 64, 127
2,29652, Note_on_c, 0, 49, 64
2,29663, Note_on_c, 0, 46, 60
2,29666, Control_c, 0, 64, 92
2,29682, Control_c, 0, 64, 65
2,29686, Note_on_c, 0, 44, 0
2,29697, Control_c, 0, 64, 0
2,29721, Note_on_c, 0, 48, 0
2,29803, Control_c, 0, 64, 27
2,29818, Control_c, 0, 64, 60
2,29833, Control_c, 0, 64, 71
2,29848, Control_c, 0, 64, 92
2,29863, Control_c, 0, 64, 127
2,30052, Note_on_c, 0, 51, 68
2,30054, Note_on_c, 0, 49, 0
2,30057, Note_on_c, 0, 48, 69
2,30062, Control_c, 0, 64, 94
2,30081, Note_on_c, 0, 46, 0
2,30085, Control_c, 0, 64, 66
2,30100, Control_c, 0, 64, 0
2,30161, Control_c, 0, 64, 41
2,30163, Note_on_c, 0, 66, 0
2,30175, Note_on_c, 0, 63, 0
2,30176, Control_c, 0, 64, 64
2,30191, Control_c, 0, 64, 80
2,30192, Note_on_c, 0, 48, 0
2,30206, Control_c, 0, 64, 127
2,30282, Note_on_c, 0, 51, 0
2,30458, Note_on_c, 0, 65, 72
2,30462, Note_on_c, 0, 61, 66
2,30469, Note_on_c, 0, 53, 59
2,30478, Note_on_c, 0, 49, 51
2,30495, Control_c, 0, 64, 107
2,30495, Note_on_c, 0, 68, 0
2,30510, Control_c, 0, 64, 68
2,30526, Control_c, 0, 64, 0
2,30631, Control_c, 0, 64, 47
2,30647, Control_c, 0, 64, 60
2,30662, Control_c, 0, 64, 65
2,30677, Control_c, 0, 64, 81
2,30694, Control_c, 0, 64, 127
2,30776, Note_on_c, 0, 61, 0
2,30830, Note_on_c, 0, 65, 0
2,30857, Note_on_c, 0, 51, 66
2,30908, Note_on_c, 0, 53, 0
2,30964, Note_on_c, 0, 49, 0
2,31224, Note_on_c, 0, 73, 86
2,31225, Note_on_c, 0, 70, 77
2,31227, Note_on_c, 0, 65, 75
2,31229, Note_on_c, 0, 53, 63
2,31246, Note_on_c, 0, 46, 51
2,31248, Control_c, 0, 64, 107
2,31263, Control_c, 0, 64, 70
2,31278, Control_c, 0, 64, 0
2,31307, Note_on_c, 0, 51, 0
2,31415, Control_c, 0, 64, 20
2,31430, Control_c, 0, 64, 61
2,31446, Control_c, 0, 64, 69
2,31461, Control_c, 0, 64, 87
2,31476, Control_c, 0, 64, 127
2,31479, Note_on_c, 0, 46, 0
2,31621, Note_on_c, 0, 54, 74
2,31654, Note_on_c, 0, 53, 0
2,31712, Note_on_c, 0, 70, 0
2,31791, Note_on_c, 0, 54, 0
2,32011, Note_on_c, 0, 56, 62
2,32017, Note_on_c, 0, 68, 75
2,32017, Note_on_c, 0, 72, 80
2,32026, Note_on_c, 0, 53, 55
2,32047, Note_on_c, 0, 73, 0
2,32077, Control_c, 0, 64, 81
2,32093, Control_c, 0, 64, 51
2,32107, Control_c, 0, 64, 0
2,32214, Control_c, 0, 64, 54
2,32229, Control_c, 0, 64, 67
2,32245, Control_c, 0, 64, 80
2,32259, Control_c, 0, 64, 127
2,32353, Note_on_c, 0, 68, 0
2,32390, Note_on_c, 0, 58, 75
2,32421, Note_on_c, 0, 56, 0
2,32439, Note_on_c, 0, 53, 0
2,32442, Note_on_c, 0, 72, 0
2,32569, Note_on_c, 0, 60, 84
2,32620, Note_on_c, 0, 58, 0
2,32650, Note_on_c, 0, 60, 0
2,32757, Note_on_c, 0, 77, 85
2,32758, Note_on_c, 0, 58, 71
2,32758, Note_on_c, 0, 73, 79
2,32773, Note_on_c, 0, 49, 62
2,32830, Control_c, 0, 64, 73
2,32846, Control_c, 0, 64, 37
2,32861, Control_c, 0, 64, 0
2,32967, Control_c, 0, 64, 51
2,32982, Control_c, 0, 64, 64
2,32997, Control_c, 0, 64, 75
2,33013, Control_c, 0, 64, 101
2,33027, Control_c, 0, 64, 127
2,33107, Note_on_c, 0, 49, 0
2,33150, Note_on_c, 0, 56, 69
2,33186, Note_on_c, 0, 58, 0
2,33379, Note_on_c, 0, 56, 0
2,33519, Note_on_c, 0, 54, 70
2,33531, Note_on_c, 0, 51, 61
2,33531, Note_on_c, 0, 70, 86
2,33534, Note_on_c, 0, 77, 0
2,33550, Control_c, 0, 64, 84
2,33565, Control_c, 0, 64, 60
2,33581, Control_c, 0, 64, 0
2,33585, Note_on_c, 0, 73, 0
2,33605, Note_on_c, 0, 65, 0
2,33641, Control_c, 0, 64, 56
2,33657, Control_c, 0, 64, 73
2,33672, Control_c, 0, 64, 127
2,33690, Note_on_c, 0, 51, 0
2,33917, Note_on_c, 0, 72, 83
2,33921, Note_on_c, 0, 68, 76
2,33922, Note_on_c, 0, 56, 65
2,33922, Note_on_c, 0, 70, 0
2,33929, Note_on_c, 0, 53, 54
2,33951, Control_c, 0, 64, 92
2,33961, Note_on_c, 0, 54, 0
2,33968, Control_c, 0, 64, 65
2,33983, Control_c, 0, 64, 0
2,34028, Control_c, 0, 64, 18
2,34043, Control_c, 0, 64, 59
2,34059, Control_c, 0, 64, 75
2,34074, Control_c, 0, 64, 127
2,34074, Note_on_c, 0, 53, 0
2,34092, Note_on_c, 0, 68, 0
2,34322, Note_on_c, 0, 58, 56
2,34325, Note_on_c, 0, 70, 76
2,34325, Note_on_c, 0, 75, 83
2,34326, Note_on_c, 0, 54, 53
2,34326, Note_on_c, 0, 66, 69
2,34352, Note_on_c, 0, 72, 0
2,34363, Control_c, 0, 64, 69
2,34368, Note_on_c, 0, 56, 0
2,34378, Control_c, 0, 64, 0
2,34469, Control_c, 0, 64, 50
2,34484, Control_c, 0, 64, 65
2,34499, Control_c, 0, 64, 82
2,34514, Control_c, 0, 64, 127
2,34590, Note_on_c, 0, 66, 0
2,34709, Note_on_c, 0, 65, 72
2,34709, Note_on_c, 0, 73, 79
2,34712, Note_on_c, 0, 60, 69
2,34744, Note_on_c, 0, 70, 0
2,34766, Note_on_c, 0, 75, 0
2,34813, Note_on_c, 0, 58, 0
2,34868, Note_on_c, 0, 65, 0
2,34884, Note_on_c, 0, 60, 0
2,34884, Note_on_c, 0, 61, 75
2,35070, Control_c, 0, 64, 108
2,35085, Control_c, 0, 64, 94
2,35097, Note_on_c, 0, 56, 64
2,35100, Note_on_c, 0, 72, 70
2,35101, Control_c, 0, 64, 82
2,35101, Note_on_c, 0, 63, 63
2,35107, Note_on_c, 0, 68, 65
2,35116, Control_c, 0, 64, 73
2,35132, Control_c, 0, 64, 66
2,35146, Control_c, 0, 64, 56
2,35155, Note_on_c, 0, 54, 0
2,35155, Note_on_c, 0, 73, 0
2,35158, Note_on_c, 0, 61, 0
2,35161, Control_c, 0, 64, 23
2,35177, Control_c, 0, 64, 0
2,35495, Note_on_c, 0, 53, 51
2,35700, Note_on_c, 0, 63, 0
2,35881, Note_on_c, 0, 65, 53
2,35881, Note_on_c, 0, 73, 66
2,35898, Note_on_c, 0, 51, 45
2,35933, Note_on_c, 0, 72, 0
2,35954, Note_on_c, 0, 56, 0
2,35990, Note_on_c, 0, 53, 0
2,36285, Note_on_c, 0, 49, 46
2,36425, Note_on_c, 0, 51, 0
2,36435, Note_on_c, 0, 65, 0
2,36696, Note_on_c, 0, 63, 46
2,36700, Note_on_c, 0, 56, 46
2,36766, Note_on_c, 0, 68, 0
2,36804, Note_on_c, 0, 49, 0
2,37107, Note_on_c, 0, 70, 58
2,37134, Note_on_c, 0, 73, 0
2,37508, Note_on_c, 0, 72, 56
2,37509, Note_on_c, 0, 44, 40
2,37509, Note_on_c, 0, 68, 52
2,37513, Note_on_c, 0, 70, 0
2,37617, Control_c, 0, 64, 34
2,37632, Control_c, 0, 64, 48
2,37648, Control_c, 0, 64, 57
2,37663, Control_c, 0, 64, 64
2,37677, Control_c, 0, 64, 70
2,37693, Control_c, 0, 64, 76
2,37708, Control_c, 0, 64, 82
2,37723, Control_c, 0, 64, 88
2,37739, Control_c, 0, 64, 97
2,37762, Control_c, 0, 64, 127
2,37829, Note_on_c, 0, 44, 0
2,37888, Note_on_c, 0, 56, 0
2,37925, Note_on_c, 0, 66, 51
2,38017, Note_on_c, 0, 72, 0
2,38051, Note_on_c, 0, 63, 0
2,38057, Note_on_c, 0, 66, 0
2,38334, Note_on_c, 0, 49, 45
2,38371, Note_on_c, 0, 73, 89
2,38372, Note_on_c, 0, 65, 62
2,38381, Note_on_c, 0, 61, 55
2,38401, Control_c, 0, 64, 114
2,38417, Control_c, 0, 64, 80
2,38418, Note_on_c, 0, 68, 0
2,38432, Control_c, 0, 64, 62
2,38446, Control_c, 0, 64, 0
2,38576, Control_c, 0, 64, 30
2,38591, Control_c, 0, 64, 61
2,38606, Control_c, 0, 64, 69
2,38622, Control_c, 0, 64, 81
2,38628, Note_on_c, 0, 49, 0
2,38637, Control_c, 0, 64, 105
2,38643, Note_on_c, 0, 61, 0
2,38652, Control_c, 0, 64, 127
2,38694, Note_on_c, 0, 65, 0
2,38790, Note_on_c, 0, 63, 58
2,38801, Note_on_c, 0, 60, 59
2,38875, Note_on_c, 0, 63, 0
2,38883, Note_on_c, 0, 60, 0
2,39165, Note_on_c, 0, 65, 53
2,39166, Note_on_c, 0, 61, 51
2,39184, Note_on_c, 0, 68, 84
2,39230, Control_c, 0, 64, 102
2,39245, Control_c, 0, 64, 68
2,39261, Control_c, 0, 64, 32
2,39276, Control_c, 0, 64, 0
2,39297, Note_on_c, 0, 73, 0
2,39344, Control_c, 0, 64, 45
2,39359, Control_c, 0, 64, 59
2,39374, Control_c, 0, 64, 66
2,39386, Note_on_c, 0, 61, 0
2,39389, Control_c, 0, 64, 81
2,39404, Control_c, 0, 64, 127
2,39558, Note_on_c, 0, 65, 0
2,39563, Note_on_c, 0, 66, 74
2,39579, Note_on_c, 0, 63, 54
2,39699, Note_on_c, 0, 68, 0
2,39725, Note_on_c, 0, 63, 0
2,39972, Note_on_c, 0, 68, 65
2,39982, Note_on_c, 0, 65, 66
2,39992, Note_on_c, 0, 66, 0
2,40067, Control_c, 0, 64, 94
2,40083, Control_c, 0, 64, 75
2,40098, Control_c, 0, 64, 65
2,40113, Control_c, 0, 64, 50
2,40129, Control_c, 0, 64, 0
2,40341, Control_c, 0, 64, 10
2,40356, Control_c, 0, 64, 35
2,40370, Note_on_c, 0, 83, 82
2,40372, Control_c, 0, 64, 46
2,40387, Control_c, 0, 64, 54
2,40403, Control_c, 0, 64, 60
2,40411, Note_on_c, 0, 65, 0
2,40417, Control_c, 0, 64, 63
2,40432, Control_c, 0, 64, 67
2,40448, Control_c, 0, 64, 78
2,40463, Control_c, 0, 64, 111
2,40477, Control_c, 0, 64, 127
2,40755, Note_on_c, 0, 65, 52
2,40769, Note_on_c, 0, 62, 46
2,40784, Note_on_c, 0, 82, 82
2,40910, Note_on_c, 0, 83, 0
2,40973, Control_c, 0, 64, 113
2,40987, Control_c, 0, 64, 106
2,41003, Control_c, 0, 64, 102
2,41018, Control_c, 0, 64, 100
2,41033, Control_c, 0, 64, 98
2,41049, Control_c, 0, 64, 96
2,41064, Control_c, 0, 64, 94
2,41069, Note_on_c, 0, 68, 0
2,41079, Control_c, 0, 64, 92
2,41095, Control_c, 0, 64, 90
2,41109, Control_c, 0, 64, 89
2,41125, Control_c, 0, 64, 87
2,41140, Control_c, 0, 64, 86
2,41155, Control_c, 0, 64, 84
2,41165, Note_on_c, 0, 80, 80
2,41171, Control_c, 0, 64, 83
2,41185, Control_c, 0, 64, 82
2,41201, Control_c, 0, 64, 82
2,41216, Control_c, 0, 64, 81
2,41231, Control_c, 0, 64, 80
2,41248, Note_on_c, 0, 62, 0
2,41261, Control_c, 0, 64, 80
2,41274, Note_on_c, 0, 82, 0
2,41429, Control_c, 0, 64, 79
2,41490, Control_c, 0, 64, 79
2,41536, Control_c, 0, 64, 78
2,41550, Control_c, 0, 64, 77
2,41566, Control_c, 0, 64, 75
2,41578, Note_on_c, 0, 70, 86
2,41581, Control_c, 0, 64, 72
2,41584, Note_on_c, 0, 78, 70
2,41606, Control_c, 0, 64, 69
2,41610, Note_on_c, 0, 63, 59
2,41617, Note_on_c, 0, 80, 0
2,41620, Control_c, 0, 64, 65
2,41635, Control_c, 0, 64, 59
2,41651, Control_c, 0, 64, 49
2,41664, Note_on_c, 0, 65, 0
2,41666, Control_c, 0, 64, 32
2,41682, Control_c, 0, 64, 13
2,41697, Control_c, 0, 64, 0
2,41981, Note_on_c, 0, 77, 75
2,42044, Note_on_c, 0, 78, 0
2,42176, Note_on_c, 0, 63, 0
2,42229, Control_c, 0, 64, 8
2,42245, Control_c, 0, 64, 10
2,42274, Control_c, 0, 64, 12
2,42335, Control_c, 0, 64, 13
2,42350, Control_c, 0, 64, 15
2,42351, Note_on_c, 0, 63, 71
2,42367, Note_on_c, 0, 78, 70
2,42373, Control_c, 0, 64, 17
2,42388, Control_c, 0, 64, 19
2,42404, Control_c, 0, 64, 22
2,42418, Control_c, 0, 64, 26
2,42430, Note_on_c, 0, 77, 0
2,42433, Control_c, 0, 64, 33
2,42449, Control_c, 0, 64, 41
2,42464, Control_c, 0, 64, 48
2,42479, Control_c, 0, 64, 54
2,42495, Control_c, 0, 64, 59
2,42510, Control_c, 0, 64, 63
2,42526, Control_c, 0, 64, 67
2,42541, Control_c, 0, 64, 77
2,42555, Control_c, 0, 64, 124
2,42571, Control_c, 0, 64, 127
2,42739, Note_on_c, 0, 65, 59
2,42745, Note_on_c, 0, 80, 74
2,42827, Note_on_c, 0, 78, 0
2,42869, Note_on_c, 0, 63, 0
2,43030, Note_on_c, 0, 70, 0
2,43138, Note_on_c, 0, 66, 57
2,43145, Note_on_c, 0, 82, 77
2,43155, Control_c, 0, 64, 90
2,43171, Control_c, 0, 64, 67
2,43179, Note_on_c, 0, 80, 0
2,43183, Note_on_c, 0, 65, 0
2,43185, Control_c, 0, 64, 44
2,43201, Control_c, 0, 64, 0
2,43231, Control_c, 0, 64, 39
2,43246, Control_c, 0, 64, 62
2,43261, Control_c, 0, 64, 73
2,43276, Control_c, 0, 64, 127
2,43529, Note_on_c, 0, 78, 79
2,43530, Note_on_c, 0, 81, 78
2,43540, Note_on_c, 0, 63, 53
2,43565, Control_c, 0, 64, 100
2,43566, Note_on_c, 0, 82, 0
2,43580, Control_c, 0, 64, 76
2,43595, Control_c, 0, 64, 67
2,43626, Control_c, 0, 64, 71
2,43641, Control_c, 0, 64, 77
2,43651, Note_on_c, 0, 66, 0
2,43656, Control_c, 0, 64, 91
2,43671, Control_c, 0, 64, 127
2,43700, Note_on_c, 0, 82, 78
2,43727, Note_on_c, 0, 81, 0
2,43917, Note_on_c, 0, 84, 82
2,43918, Note_on_c, 0, 77, 84
2,43926, Note_on_c, 0, 69, 78
2,43938, Control_c, 0, 64, 74
2,43953, Control_c, 0, 64, 40
2,43959, Note_on_c, 0, 78, 0
2,43969, Control_c, 0, 64, 0
2,43975, Note_on_c, 0, 82, 0
2,44029, Control_c, 0, 64, 13
2,44045, Control_c, 0, 64, 62
2,44058, Note_on_c, 0, 63, 0
2,44060, Control_c, 0, 64, 80
2,44074, Control_c, 0, 64, 127
2,44131, Note_on_c, 0, 84, 0
2,44302, Note_on_c, 0, 75, 84
2,44314, Note_on_c, 0, 67, 85
2,44345, Note_on_c, 0, 77, 0
2,44362, Note_on_c, 0, 69, 0
2,44483, Note_on_c, 0, 65, 85
2,44509, Note_on_c, 0, 67, 0
2,44568, Note_on_c, 0, 65, 0
2,44738, Note_on_c, 0, 58, 85
2,44754, Note_on_c, 0, 70, 80
2,44756, Note_on_c, 0, 73, 82
2,44768, Control_c, 0, 64, 94
2,44783, Control_c, 0, 64, 62
2,44790, Note_on_c, 0, 75, 0
2,44797, Control_c, 0, 64, 0
2,44873, Control_c, 0, 64, 22
2,44889, Control_c, 0, 64, 61
2,44904, Control_c, 0, 64, 71
2,44919, Control_c, 0, 64, 111
2,44935, Control_c, 0, 64, 127
2,45046, Note_on_c, 0, 70, 0
2,45127, Note_on_c, 0, 73, 0
2,45149, Note_on_c, 0, 82, 80
2,45151, Note_on_c, 0, 77, 77
2,45550, Note_on_c, 0, 53, 75
2,45550, Note_on_c, 0, 75, 75
2,45552, Note_on_c, 0, 72, 69
2,45610, Control_c, 0, 64, 84
2,45617, Note_on_c, 0, 77, 0
2,45619, Note_on_c, 0, 82, 0
2,45625, Control_c, 0, 64, 57
2,45639, Control_c, 0, 64, 0
2,45657, Note_on_c, 0, 58, 0
2,45715, Control_c, 0, 64, 46
2,45731, Control_c, 0, 64, 63
2,45746, Control_c, 0, 64, 72
2,45761, Control_c, 0, 64, 119
2,45776, Control_c, 0, 64, 127
2,45935, Note_on_c, 0, 81, 81
2,46062, Note_on_c, 0, 72, 0
2,46101, Note_on_c, 0, 75, 0
2,46102, Note_on_c, 0, 81, 0
2,46357, Note_on_c, 0, 70, 67
2,46357, Note_on_c, 0, 74, 71
2,46357, Note_on_c, 0, 82, 76
2,46394, Note_on_c, 0, 53, 0
2,46438, Control_c, 0, 64, 99
2,46454, Control_c, 0, 64, 89
2,46469, Control_c, 0, 64, 82
2,46483, Control_c, 0, 64, 75
2,46499, Control_c, 0, 64, 69
2,46514, Control_c, 0, 64, 63
2,46530, Control_c, 0, 64, 54
2,46544, Control_c, 0, 64, 48
2,46559, Control_c, 0, 64, 47
2,46605, Control_c, 0, 64, 46
2,46620, Control_c, 0, 64, 45
2,46635, Control_c, 0, 64, 44
2,46651, Control_c, 0, 64, 42
2,46666, Control_c, 0, 64, 41
2,46681, Control_c, 0, 64, 40
2,46697, Control_c, 0, 64, 38
2,46712, Control_c, 0, 64, 33
2,46728, Control_c, 0, 64, 24
2,46742, Control_c, 0, 64, 0
2,46754, Note_on_c, 0, 66, 83
2,46879, Control_c, 0, 64, 24
2,46894, Control_c, 0, 64, 42
2,46909, Control_c, 0, 64, 49
2,46924, Control_c, 0, 64, 55
2,46939, Control_c, 0, 64, 61
2,46954, Control_c, 0, 64, 64
2,46977, Control_c, 0, 64, 69
2,46992, Control_c, 0, 64, 77
2,47008, Control_c, 0, 64, 87
2,47022, Control_c, 0, 64, 95
2,47024, Note_on_c, 0, 74, 0
2,47037, Control_c, 0, 64, 101
2,47053, Control_c, 0, 64, 110
2,47068, Control_c, 0, 64, 116
2,47084, Control_c, 0, 64, 117
2,47159, Note_on_c, 0, 65, 76
2,47163, Note_on_c, 0, 75, 72
2,47190, Control_c, 0, 64, 116
2,47205, Control_c, 0, 64, 113
2,47221, Control_c, 0, 64, 109
2,47236, Control_c, 0, 64, 106
2,47251, Control_c, 0, 64, 103
2,47266, Control_c, 0, 64, 100
2,47281, Control_c, 0, 64, 97
2,47297, Control_c, 0, 64, 94
2,47306, Note_on_c, 0, 66, 0
2,47312, Control_c, 0, 64, 92
2,47326, Control_c, 0, 64, 90
2,47342, Control_c, 0, 64, 87
2,47357, Control_c, 0, 64, 85
2,47373, Control_c, 0, 64, 81
2,47387, Control_c, 0, 64, 79
2,47402, Control_c, 0, 64, 76
2,47418, Control_c, 0, 64, 74
2,47433, Control_c, 0, 64, 71
2,47449, Control_c, 0, 64, 68
2,47464, Control_c, 0, 64, 65
2,47479, Control_c, 0, 64, 60
2,47495, Control_c, 0, 64, 53
2,47510, Control_c, 0, 64, 45
2,47525, Control_c, 0, 64, 41
2,47540, Control_c, 0, 64, 38
2,47552, Note_on_c, 0, 63, 77
2,47555, Control_c, 0, 64, 35
2,47571, Control_c, 0, 64, 31
2,47585, Control_c, 0, 64, 23
2,47600, Control_c, 0, 64, 16
2,47616, Control_c, 0, 64, 10
2,47631, Control_c, 0, 64, 0
2,47769, Note_on_c, 0, 65, 0
2,47947, Note_on_c, 0, 62, 71
2,47950, Note_on_c, 0, 77, 69
2,48039, Note_on_c, 0, 75, 0
2,48094, Note_on_c, 0, 63, 0
2,48115, Note_on_c, 0, 82, 0
2,48335, Note_on_c, 0, 58, 72
2,48464, Note_on_c, 0, 62, 0
2,48730, Note_on_c, 0, 60, 72
2,48730, Note_on_c, 0, 80, 69
2,48813, Note_on_c, 0, 58, 0
2,49122, Control_c, 0, 64, 37
2,49123, Note_on_c, 0, 62, 71
2,49138, Control_c, 0, 64, 63
2,49138, Note_on_c, 0, 60, 0
2,49152, Control_c, 0, 64, 68
2,49168, Control_c, 0, 64, 79
2,49183, Control_c, 0, 64, 115
2,49198, Control_c, 0, 64, 127
2,49288, Note_on_c, 0, 62, 0
2,49316, Note_on_c, 0, 77, 0
2,49524, Note_on_c, 0, 63, 82
2,49529, Note_on_c, 0, 51, 82
2,49537, Note_on_c, 0, 78, 75
2,49556, Control_c, 0, 64, 77
2,49572, Control_c, 0, 64, 53
2,49574, Note_on_c, 0, 80, 0
2,49586, Control_c, 0, 64, 0
2,49677, Control_c, 0, 64, 43
2,49693, Control_c, 0, 64, 65
2,49708, Control_c, 0, 64, 83
2,49723, Control_c, 0, 64, 127
2,49913, Note_on_c, 0, 53, 65
2,49931, Note_on_c, 0, 51, 0
2,49931, Note_on_c, 0, 75, 71
2,49954, Note_on_c, 0, 63, 0
2,50107, Note_on_c, 0, 74, 74
2,50129, Note_on_c, 0, 75, 0
2,50310, Control_c, 0, 64, 112
2,50315, Note_on_c, 0, 54, 87
2,50317, Note_on_c, 0, 46, 80
2,50317, Note_on_c, 0, 75, 79
2,50325, Control_c, 0, 64, 78
2,50340, Control_c, 0, 64, 53
2,50347, Note_on_c, 0, 74, 0
2,50348, Note_on_c, 0, 53, 0
2,50356, Control_c, 0, 64, 0
2,50524, Control_c, 0, 64, 39
2,50539, Control_c, 0, 64, 58
2,50554, Control_c, 0, 64, 72
2,50570, Control_c, 0, 64, 98
2,50584, Control_c, 0, 64, 127
2,50716, Note_on_c, 0, 56, 73
2,50733, Note_on_c, 0, 54, 0
2,50843, Note_on_c, 0, 78, 0
2,50882, Note_on_c, 0, 46, 0
2,51115, Note_on_c, 0, 77, 80
2,51116, Note_on_c, 0, 58, 68
2,51138, Control_c, 0, 64, 124
2,51153, Control_c, 0, 64, 101
2,51170, Control_c, 0, 64, 91
2,51185, Control_c, 0, 64, 81
2,51199, Control_c, 0, 64, 73
2,51200, Note_on_c, 0, 75, 0
2,51215, Control_c, 0, 64, 67
2,51220, Note_on_c, 0, 56, 0
2,51230, Control_c, 0, 64, 60
2,51246, Control_c, 0, 64, 49
2,51261, Control_c, 0, 64, 36
2,51275, Control_c, 0, 64, 26
2,51291, Control_c, 0, 64, 12
2,51306, Control_c, 0, 64, 0
2,51502, Note_on_c, 0, 59, 84
2,51569, Note_on_c, 0, 58, 0
2,51908, Note_on_c, 0, 61, 70
2,51909, Note_on_c, 0, 58, 66
2,51911, Note_on_c, 0, 76, 77
2,51912, Note_on_c, 0, 73, 69
2,51955, Note_on_c, 0, 77, 0
2,51971, Note_on_c, 0, 59, 0
2,51990, Note_on_c, 0, 70, 0
2,52304, Note_on_c, 0, 56, 68
2,52357, Note_on_c, 0, 58, 0
2,52510, Note_on_c, 0, 61, 0
2,52714, Note_on_c, 0, 55, 60
2,52715, Note_on_c, 0, 63, 66
2,52715, Note_on_c, 0, 70, 59
2,52722, Note_on_c, 0, 75, 72
2,52759, Note_on_c, 0, 56, 0
2,52759, Note_on_c, 0, 73, 0
2,52767, Note_on_c, 0, 76, 0
2,52781, Control_c, 0, 64, 31
2,52796, Control_c, 0, 64, 56
2,52814, Control_c, 0, 64, 65
2,52828, Control_c, 0, 64, 81
2,52844, Control_c, 0, 64, 127
2,52936, Note_on_c, 0, 55, 0
2,52999, Note_on_c, 0, 75, 0
2,53086, Note_on_c, 0, 55, 65
2,53093, Note_on_c, 0, 51, 70
2,53107, Note_on_c, 0, 75, 82
2,53153, Control_c, 0, 64, 79
2,53168, Control_c, 0, 64, 62
2,53183, Control_c, 0, 64, 31
2,53198, Control_c, 0, 64, 39
2,53214, Control_c, 0, 64, 59
2,53229, Control_c, 0, 64, 67
2,53245, Control_c, 0, 64, 93
2,53260, Control_c, 0, 64, 127
2,53292, Note_on_c, 0, 76, 80
2,53316, Note_on_c, 0, 70, 0
2,53327, Note_on_c, 0, 51, 0
2,53330, Note_on_c, 0, 75, 0
2,53356, Note_on_c, 0, 63, 0
2,53487, Note_on_c, 0, 53, 66
2,53494, Note_on_c, 0, 75, 81
2,53495, Note_on_c, 0, 56, 69
2,53517, Control_c, 0, 64, 73
2,53527, Note_on_c, 0, 55, 0
2,53533, Control_c, 0, 64, 38
2,53548, Control_c, 0, 64, 0
2,53556, Note_on_c, 0, 76, 0
2,53625, Control_c, 0, 64, 35
2,53640, Control_c, 0, 64, 64
2,53656, Control_c, 0, 64, 83
2,53671, Control_c, 0, 64, 127
2,53868, Note_on_c, 0, 55, 69
2,53868, Note_on_c, 0, 56, 0
2,53870, Note_on_c, 0, 58, 70
2,53871, Note_on_c, 0, 73, 78
2,53902, Note_on_c, 0, 53, 0
2,53906, Control_c, 0, 64, 97
2,53922, Control_c, 0, 64, 68
2,53926, Note_on_c, 0, 75, 0
2,53936, Control_c, 0, 64, 0
2,53967, Control_c, 0, 64, 38
2,53982, Control_c, 0, 64, 63
2,53997, Control_c, 0, 64, 82
2,54012, Control_c, 0, 64, 127
2,54095, Note_on_c, 0, 55, 0
2,54155, Note_on_c, 0, 58, 0
2,54268, Note_on_c, 0, 56, 77
2,54270, Note_on_c, 0, 59, 79
2,54271, Note_on_c, 0, 71, 84
2,54275, Note_on_c, 0, 68, 75
2,54286, Control_c, 0, 64, 93
2,54293, Note_on_c, 0, 73, 0
2,54301, Control_c, 0, 64, 62
2,54316, Control_c, 0, 64, 0
2,54377, Control_c, 0, 64, 57
2,54392, Control_c, 0, 64, 75
2,54408, Control_c, 0, 64, 127
2,54504, Note_on_c, 0, 56, 0
2,54532, Note_on_c, 0, 71, 0
2,54664, Note_on_c, 0, 58, 84
2,54670, Note_on_c, 0, 54, 75
2,54672, Note_on_c, 0, 70, 86
2,54674, Note_on_c, 0, 59, 0
2,54675, Control_c, 0, 64, 84
2,54691, Control_c, 0, 64, 60
2,54705, Control_c, 0, 64, 0
2,54715, Note_on_c, 0, 68, 0
2,54751, Control_c, 0, 64, 60
2,54767, Control_c, 0, 64, 77
2,54781, Control_c, 0, 64, 127
2,54832, Note_on_c, 0, 58, 0
2,54837, Note_on_c, 0, 70, 0
2,54862, Note_on_c, 0, 54, 0
2,55054, Note_on_c, 0, 56, 76
2,55058, Note_on_c, 0, 52, 74
2,55061, Note_on_c, 0, 80, 86
2,55063, Note_on_c, 0, 71, 83
2,55063, Note_on_c, 0, 76, 78
2,55069, Control_c, 0, 64, 117
2,55085, Control_c, 0, 64, 65
2,55100, Control_c, 0, 64, 0
2,55191, Control_c, 0, 64, 37
2,55207, Control_c, 0, 64, 62
2,55222, Control_c, 0, 64, 74
2,55237, Control_c, 0, 64, 127
2,55312, Note_on_c, 0, 52, 0
2,55442, Note_on_c, 0, 54, 86
2,55449, Note_on_c, 0, 51, 71
2,55460, Note_on_c, 0, 56, 0
2,55463, Note_on_c, 0, 71, 0
2,55655, Note_on_c, 0, 54, 0
2,55666, Note_on_c, 0, 51, 0
2,55825, Note_on_c, 0, 52, 78
2,55831, Control_c, 0, 64, 94
2,55831, Note_on_c, 0, 49, 70
2,55841, Note_on_c, 0, 70, 80
2,55846, Control_c, 0, 64, 82
2,55862, Control_c, 0, 64, 72
2,55877, Control_c, 0, 64, 63
2,55887, Note_on_c, 0, 76, 0
2,55892, Control_c, 0, 64, 41
2,55907, Control_c, 0, 64, 0
2,56035, Note_on_c, 0, 75, 79
2,56233, Note_on_c, 0, 73, 84
2,56235, Note_on_c, 0, 46, 62
2,56293, Note_on_c, 0, 70, 0
2,56376, Note_on_c, 0, 75, 0
2,56380, Note_on_c, 0, 52, 0
2,56380, Note_on_c, 0, 80, 0
2,56405, Note_on_c, 0, 49, 0
2,56602, Note_on_c, 0, 51, 63
2,56614, Control_c, 0, 64, 52
2,56616, Note_on_c, 0, 79, 83
2,56630, Control_c, 0, 64, 63
2,56645, Control_c, 0, 64, 75
2,56660, Control_c, 0, 64, 127
2,56705, Note_on_c, 0, 46, 0
2,56705, Note_on_c, 0, 73, 0
2,56808, Note_on_c, 0, 76, 87
2,57006, Note_on_c, 0, 39, 70
2,57009, Note_on_c, 0, 75, 87
2,57047, Note_on_c, 0, 79, 0
2,57054, Note_on_c, 0, 76, 0
2,57110, Note_on_c, 0, 39, 0
2,57186, Note_on_c, 0, 73, 95
2,57216, Note_on_c, 0, 51, 0
2,57233, Note_on_c, 0, 75, 0
2,57307, Note_on_c, 0, 73, 0
2,57448, Note_on_c, 0, 44, 75
2,57466, Note_on_c, 0, 68, 97
2,57475, Note_on_c, 0, 80, 85
2,57478, Note_on_c, 0, 72, 66
2,57519, Control_c, 0, 64, 76
2,57534, Control_c, 0, 64, 0
2,57655, Control_c, 0, 64, 43
2,57671, Control_c, 0, 64, 66
2,57686, Control_c, 0, 64, 80
2,57701, Control_c, 0, 64, 127
2,57766, Note_on_c, 0, 80, 0
2,57840, Note_on_c, 0, 72, 0
2,57851, Note_on_c, 0, 68, 0
2,57859, Note_on_c, 0, 56, 80
2,57993, Note_on_c, 0, 56, 0
2,58024, Note_on_c, 0, 44, 0
2,58228, Note_on_c, 0, 54, 69
2,58231, Note_on_c, 0, 46, 60
2,58251, Note_on_c, 0, 61, 90
2,58286, Control_c, 0, 64, 105
2,58301, Control_c, 0, 64, 64
2,58317, Control_c, 0, 64, 0
2,58424, Control_c, 0, 64, 35
2,58438, Control_c, 0, 64, 63
2,58453, Control_c, 0, 64, 70
2,58469, Control_c, 0, 64, 93
2,58492, Control_c, 0, 64, 127
2,58521, Note_on_c, 0, 54, 0
2,58632, Note_on_c, 0, 53, 73
2,58647, Note_on_c, 0, 44, 63
2,58652, Note_on_c, 0, 46, 0
2,58666, Control_c, 0, 64, 75
2,58680, Control_c, 0, 64, 56
2,58696, Control_c, 0, 64, 41
2,58711, Control_c, 0, 64, 56
2,58725, Control_c, 0, 64, 64
2,58741, Control_c, 0, 64, 76
2,58756, Control_c, 0, 64, 127
2,58811, Note_on_c, 0, 53, 0
2,59035, Note_on_c, 0, 44, 0
2,59054, Note_on_c, 0, 51, 66
2,59060, Control_c, 0, 64, 76
2,59060, Note_on_c, 0, 42, 52
2,59075, Control_c, 0, 64, 35
2,59091, Control_c, 0, 64, 0
2,59121, Note_on_c, 0, 61, 0
2,59196, Control_c, 0, 64, 55
2,59212, Control_c, 0, 64, 73
2,59227, Control_c, 0, 64, 127
2,59438, Note_on_c, 0, 51, 0
2,59440, Note_on_c, 0, 49, 66
2,59446, Note_on_c, 0, 77, 89
2,59464, Control_c, 0, 64, 72
2,59479, Control_c, 0, 64, 39
2,59495, Control_c, 0, 64, 0
2,59522, Note_on_c, 0, 42, 0
2,59540, Control_c, 0, 64, 57
2,59555, Control_c, 0, 64, 71
2,59570, Control_c, 0, 64, 124
2,59585, Control_c, 0, 64, 127
2,59629, Note_on_c, 0, 49, 0
2,59825, Note_on_c, 0, 58, 65
2,59838, Note_on_c, 0, 75, 84
2,59839, Note_on_c, 0, 54, 48
2,59873, Control_c, 0, 64, 94
2,59889, Control_c, 0, 64, 66
2,59904, Control_c, 0, 64, 0
2,59916, Note_on_c, 0, 77, 0
2,59980, Control_c, 0, 64, 52
2,59995, Control_c, 0, 64, 64
2,60011, Control_c, 0, 64, 78
2,60033, Control_c, 0, 64, 127
2,60231, Note_on_c, 0, 73, 81
2,60283, Note_on_c, 0, 75, 0
2,60614, Note_on_c, 0, 56, 54
2,60626, Note_on_c, 0, 72, 79
2,60657, Control_c, 0, 64, 104
2,60661, Note_on_c, 0, 73, 0
2,60665, Note_on_c, 0, 54, 0
2,60672, Control_c, 0, 64, 92
2,60686, Control_c, 0, 64, 81
2,60702, Control_c, 0, 64, 74
2,60717, Control_c, 0, 64, 68
2,60733, Control_c, 0, 64, 63
2,60748, Control_c, 0, 64, 59
2,60763, Control_c, 0, 64, 54
2,60779, Control_c, 0, 64, 53
2,60801, Control_c, 0, 64, 52
2,60831, Control_c, 0, 64, 52
2,60846, Control_c, 0, 64, 51
2,60862, Control_c, 0, 64, 50
2,60877, Control_c, 0, 64, 48
2,60893, Control_c, 0, 64, 45
2,60907, Control_c, 0, 64, 39
2,60922, Control_c, 0, 64, 25
2,60938, Control_c, 0, 64, 0
2,61015, Note_on_c, 0, 53, 57
2,61020, Note_on_c, 0, 68, 77
2,61023, Note_on_c, 0, 66, 69
2,61092, Note_on_c, 0, 72, 0
2,61137, Control_c, 0, 64, 29
2,61151, Control_c, 0, 64, 42
2,61158, Note_on_c, 0, 56, 0
2,61166, Control_c, 0, 64, 51
2,61182, Control_c, 0, 64, 57
2,61197, Control_c, 0, 64, 61
2,61213, Control_c, 0, 64, 63
2,61228, Control_c, 0, 64, 65
2,61243, Control_c, 0, 64, 66
2,61258, Control_c, 0, 64, 70
2,61262, Note_on_c, 0, 66, 0
2,61273, Control_c, 0, 64, 76
2,61289, Control_c, 0, 64, 83
2,61304, Control_c, 0, 64, 84
2,61410, Note_on_c, 0, 70, 80
2,61415, Note_on_c, 0, 65, 77
2,61425, Control_c, 0, 64, 83
2,61426, Note_on_c, 0, 54, 61
2,61439, Note_on_c, 0, 58, 0
2,61440, Control_c, 0, 64, 81
2,61455, Control_c, 0, 64, 78
2,61455, Note_on_c, 0, 68, 0
2,61470, Control_c, 0, 64, 74
2,61485, Control_c, 0, 64, 71
2,61491, Note_on_c, 0, 53, 0
2,61501, Control_c, 0, 64, 68
2,61516, Control_c, 0, 64, 66
2,61531, Control_c, 0, 64, 64
2,61546, Control_c, 0, 64, 60
2,61570, Control_c, 0, 64, 52
2,61585, Control_c, 0, 64, 40
2,61599, Control_c, 0, 64, 22
2,61615, Control_c, 0, 64, 0
2,61690, Note_on_c, 0, 65, 0
2,61799, Note_on_c, 0, 72, 81
2,61804, Note_on_c, 0, 63, 69
2,61809, Note_on_c, 0, 56, 61
2,61830, Note_on_c, 0, 70, 0
2,61910, Note_on_c, 0, 54, 0
2,61964, Control_c, 0, 64, 26
2,61980, Control_c, 0, 64, 39
2,61995, Control_c, 0, 64, 48
2,62011, Control_c, 0, 64, 53
2,62026, Control_c, 0, 64, 56
2,62041, Control_c, 0, 64, 59
2,62057, Control_c, 0, 64, 61
2,62070, Note_on_c, 0, 63, 0
2,62072, Control_c, 0, 64, 64
2,62087, Control_c, 0, 64, 67
2,62102, Control_c, 0, 64, 70
2,62117, Control_c, 0, 64, 73
2,62133, Control_c, 0, 64, 74
2,62148, Control_c, 0, 64, 75
2,62206, Note_on_c, 0, 58, 49
2,62206, Note_on_c, 0, 73, 83
2,62210, Note_on_c, 0, 61, 62
2,62223, Control_c, 0, 64, 74
2,62238, Control_c, 0, 64, 73
2,62254, Control_c, 0, 64, 72
2,62266, Note_on_c, 0, 72, 0
2,62269, Control_c, 0, 64, 69
2,62275, Note_on_c, 0, 56, 0
2,62284, Control_c, 0, 64, 67
2,62299, Control_c, 0, 64, 64
2,62314, Control_c, 0, 64, 62
2,62337, Control_c, 0, 64, 59
2,62352, Control_c, 0, 64, 55
2,62367, Control_c, 0, 64, 51
2,62382, Control_c, 0, 64, 47
2,62397, Control_c, 0, 64, 42
2,62413, Control_c, 0, 64, 37
2,62428, Control_c, 0, 64, 32
2,62442, Control_c, 0, 64, 26
2,62458, Control_c, 0, 64, 15
2,62473, Control_c, 0, 64, 0
2,62611, Note_on_c, 0, 66, 76
2,62917, Note_on_c, 0, 61, 0
2,63001, Note_on_c, 0, 54, 61
2,63188, Note_on_c, 0, 58, 0
2,63379, Note_on_c, 0, 65, 66
2,63393, Note_on_c, 0, 66, 0
2,63746, Note_on_c, 0, 56, 46
2,63791, Note_on_c, 0, 63, 68
2,63836, Note_on_c, 0, 65, 0
2,63878, Note_on_c, 0, 54, 0
2,64174, Note_on_c, 0, 58, 50
2,64340, Note_on_c, 0, 56, 0
2,64547, Note_on_c, 0, 72, 79
2,64551, Note_on_c, 0, 56, 56
2,64600, Note_on_c, 0, 73, 0
2,64698, Note_on_c, 0, 58, 0
2,64942, Note_on_c, 0, 54, 58
2,65014, Note_on_c, 0, 56, 0
2,65316, Note_on_c, 0, 56, 41
2,65334, Note_on_c, 0, 53, 42
2,65337, Note_on_c, 0, 73, 78
2,65373, Note_on_c, 0, 54, 0
2,65386, Note_on_c, 0, 72, 0
2,65484, Note_on_c, 0, 63, 0
2,65753, Note_on_c, 0, 71, 50
2,65753, Note_on_c, 0, 73, 0
2,65915, Note_on_c, 0, 71, 0
2,65932, Note_on_c, 0, 70, 49
2,66114, Note_on_c, 0, 70, 0
2,66114, Note_on_c, 0, 71, 53
2,66125, Note_on_c, 0, 68, 42
2,66503, Note_on_c, 0, 68, 0
2,66504, Note_on_c, 0, 66, 44
2,66507, Note_on_c, 0, 51, 41
2,66529, Note_on_c, 0, 53, 0
2,66685, Note_on_c, 0, 66, 0
2,66686, Note_on_c, 0, 49, 41
2,66690, Note_on_c, 0, 65, 44
2,66694, Note_on_c, 0, 51, 0
2,66849, Note_on_c, 0, 65, 0
2,66866, Note_on_c, 0, 66, 47
2,66878, Note_on_c, 0, 56, 0
2,66889, Note_on_c, 0, 51, 29
2,66903, Note_on_c, 0, 49, 0
2,67232, Note_on_c, 0, 53, 45
2,67243, Note_on_c, 0, 71, 0
2,67244, Note_on_c, 0, 61, 42
2,67244, Note_on_c, 0, 70, 55
2,67269, Note_on_c, 0, 51, 0
2,67285, Note_on_c, 0, 66, 0
2,67419, Note_on_c, 0, 70, 0
2,67422, Note_on_c, 0, 68, 63
2,67625, Note_on_c, 0, 70, 62
2,67631, Note_on_c, 0, 54, 39
2,67680, Note_on_c, 0, 61, 0
2,67692, Note_on_c, 0, 68, 0
2,67722, Note_on_c, 0, 53, 0
2,67991, Note_on_c, 0, 72, 62
2,67995, Note_on_c, 0, 63, 41
2,68027, Note_on_c, 0, 70, 0
2,68363, Note_on_c, 0, 56, 36
2,68370, Note_on_c, 0, 73, 64
2,68414, Note_on_c, 0, 72, 0
2,68480, Note_on_c, 0, 54, 0
2,68544, Note_on_c, 0, 63, 0
2,68761, Note_on_c, 0, 68, 48
2,68762, Note_on_c, 0, 53, 34
2,68925, Note_on_c, 0, 66, 55
2,68945, Note_on_c, 0, 68, 0
2,68949, Note_on_c, 0, 51, 41
2,68969, Note_on_c, 0, 56, 0
2,68999, Note_on_c, 0, 53, 0
2,69122, Note_on_c, 0, 68, 58
2,69127, Note_on_c, 0, 53, 46
2,69158, Note_on_c, 0, 66, 0
2,69201, Note_on_c, 0, 51, 0
2,69223, Note_on_c, 0, 73, 0
2,69504, Note_on_c, 0, 53, 0
2,69504, Note_on_c, 0, 55, 48
2,69514, Note_on_c, 0, 72, 67
2,69522, Note_on_c, 0, 63, 56
2,69538, Note_on_c, 0, 68, 0
2,69681, Note_on_c, 0, 70, 77
2,69689, Note_on_c, 0, 72, 0
2,69881, Note_on_c, 0, 72, 74
2,69885, Note_on_c, 0, 56, 59
2,69893, Note_on_c, 0, 63, 0
2,69964, Note_on_c, 0, 70, 0
2,69969, Note_on_c, 0, 55, 0
2,70262, Note_on_c, 0, 74, 77
2,70263, Note_on_c, 0, 65, 63
2,70298, Note_on_c, 0, 72, 0
2,70631, Note_on_c, 0, 58, 60
2,70632, Note_on_c, 0, 75, 81
2,70680, Note_on_c, 0, 74, 0
2,70718, Note_on_c, 0, 56, 0
2,70779, Note_on_c, 0, 65, 0
2,71006, Note_on_c, 0, 55, 65
2,71153, Note_on_c, 0, 58, 0
2,71174, Note_on_c, 0, 53, 65
2,71250, Note_on_c, 0, 55, 0
2,71384, Note_on_c, 0, 55, 72
2,71430, Note_on_c, 0, 53, 0
2,71748, Note_on_c, 0, 73, 83
2,71751, Note_on_c, 0, 65, 83
2,71757, Note_on_c, 0, 57, 65
2,71818, Note_on_c, 0, 55, 0
2,71833, Note_on_c, 0, 75, 0
2,71842, Control_c, 0, 64, 30
2,71858, Control_c, 0, 64, 54
2,71873, Control_c, 0, 64, 67
2,71887, Control_c, 0, 64, 74
2,71903, Control_c, 0, 64, 83
2,71918, Control_c, 0, 64, 87
2,71934, Control_c, 0, 64, 92
2,71939, Note_on_c, 0, 72, 75
2,71939, Note_on_c, 0, 73, 0
2,71949, Control_c, 0, 64, 94
2,71963, Control_c, 0, 64, 95
2,72100, Control_c, 0, 64, 94
2,72115, Control_c, 0, 64, 92
2,72116, Note_on_c, 0, 73, 72
2,72129, Note_on_c, 0, 58, 75
2,72131, Control_c, 0, 64, 90
2,72146, Control_c, 0, 64, 88
2,72152, Note_on_c, 0, 57, 0
2,72161, Control_c, 0, 64, 86
2,72177, Control_c, 0, 64, 83
2,72191, Control_c, 0, 64, 81
2,72206, Control_c, 0, 64, 79
2,72215, Note_on_c, 0, 72, 0
2,72222, Control_c, 0, 64, 76
2,72225, Note_on_c, 0, 65, 0
2,72237, Control_c, 0, 64, 74
2,72253, Control_c, 0, 64, 72
2,72268, Control_c, 0, 64, 69
2,72282, Control_c, 0, 64, 67
2,72292, Note_on_c, 0, 75, 67
2,72298, Control_c, 0, 64, 65
2,72298, Note_on_c, 0, 60, 79
2,72320, Control_c, 0, 64, 62
2,72325, Note_on_c, 0, 73, 0
2,72336, Control_c, 0, 64, 59
2,72350, Control_c, 0, 64, 56
2,72365, Control_c, 0, 64, 54
2,72366, Note_on_c, 0, 58, 0
2,72381, Control_c, 0, 64, 51
2,72396, Control_c, 0, 64, 48
2,72412, Control_c, 0, 64, 45
2,72427, Control_c, 0, 64, 41
2,72441, Control_c, 0, 64, 36
2,72457, Control_c, 0, 64, 30
2,72473, Control_c, 0, 64, 20
2,72482, Note_on_c, 0, 58, 87
2,72489, Control_c, 0, 64, 0
2,72496, Note_on_c, 0, 73, 82
2,72517, Note_on_c, 0, 60, 0
2,72520, Note_on_c, 0, 75, 0
2,72660, Note_on_c, 0, 75, 80
2,72663, Note_on_c, 0, 60, 71
2,72733, Note_on_c, 0, 58, 0
2,72836, Note_on_c, 0, 77, 85
2,72849, Note_on_c, 0, 61, 75
2,72887, Note_on_c, 0, 60, 0
2,72910, Note_on_c, 0, 75, 0
2,72919, Note_on_c, 0, 73, 0
2,73012, Note_on_c, 0, 60, 74
2,73054, Note_on_c, 0, 61, 0
2,73211, Note_on_c, 0, 73, 90
2,73214, Note_on_c, 0, 58, 73
2,73263, Note_on_c, 0, 77, 0
2,73347, Note_on_c, 0, 60, 0
2,73372, Note_on_c, 0, 56, 74
2,73418, Note_on_c, 0, 58, 0
2,73563, Note_on_c, 0, 54, 73
2,73567, Note_on_c, 0, 75, 87
2,73571, Note_on_c, 0, 72, 82
2,73595, Note_on_c, 0, 73, 0
2,73606, Note_on_c, 0, 56, 0
2,73739, Note_on_c, 0, 53, 75
2,73767, Note_on_c, 0, 54, 0
2,73934, Note_on_c, 0, 70, 87
2,73944, Note_on_c, 0, 54, 85
2,73962, Note_on_c, 0, 72, 0
2,73994, Note_on_c, 0, 53, 0
2,74056, Note_on_c, 0, 75, 0
2,74121, Note_on_c, 0, 51, 84
2,74150, Note_on_c, 0, 54, 0
2,74360, Note_on_c, 0, 53, 90
2,74372, Note_on_c, 0, 69, 82
2,74399, Note_on_c, 0, 51, 0
2,74410, Note_on_c, 0, 70, 0
2,74525, Control_c, 0, 64, 44
2,74541, Control_c, 0, 64, 61
2,74556, Control_c, 0, 64, 74
2,74558, Note_on_c, 0, 70, 78
2,74571, Control_c, 0, 64, 127
2,74643, Note_on_c, 0, 69, 0
2,74736, Note_on_c, 0, 75, 83
2,74738, Note_on_c, 0, 72, 80
2,74760, Note_on_c, 0, 70, 0
2,74909, Note_on_c, 0, 69, 80
2,74965, Note_on_c, 0, 72, 0
2,74970, Note_on_c, 0, 75, 0
2,74975, Note_on_c, 0, 69, 0
2,75117, Note_on_c, 0, 73, 83
2,75120, Note_on_c, 0, 65, 72
2,75123, Note_on_c, 0, 46, 79
2,75201, Control_c, 0, 64, 92
2,75217, Control_c, 0, 64, 74
2,75232, Control_c, 0, 64, 63
2,75240, Note_on_c, 0, 53, 0
2,75247, Control_c, 0, 64, 40
2,75262, Control_c, 0, 64, 0
2,75524, Note_on_c, 0, 72, 74
2,75525, Note_on_c, 0, 68, 71
2,75553, Note_on_c, 0, 73, 0
2,75582, Note_on_c, 0, 65, 0
2,75882, Note_on_c, 0, 66, 66
2,75889, Note_on_c, 0, 70, 75
2,75905, Note_on_c, 0, 46, 0
2,75906, Note_on_c, 0, 68, 0
2,75937, Note_on_c, 0, 72, 0
2,76076, Note_on_c, 0, 72, 78
2,76096, Note_on_c, 0, 70, 0
2,76254, Note_on_c, 0, 61, 83
2,76254, Note_on_c, 0, 65, 80
2,76282, Control_c, 0, 64, 26
2,76295, Note_on_c, 0, 73, 83
2,76298, Control_c, 0, 64, 53
2,76312, Control_c, 0, 64, 69
2,76327, Control_c, 0, 64, 127
2,76327, Note_on_c, 0, 66, 0
2,76345, Note_on_c, 0, 72, 0
2,76393, Note_on_c, 0, 65, 0
2,76454, Note_on_c, 0, 70, 81
2,76478, Note_on_c, 0, 73, 0
2,76503, Note_on_c, 0, 70, 0
2,76624, Note_on_c, 0, 63, 64
2,76630, Note_on_c, 0, 60, 71
2,76650, Note_on_c, 0, 61, 0
2,76656, Note_on_c, 0, 66, 68
2,76691, Note_on_c, 0, 66, 0
2,76693, Control_c, 0, 64, 84
2,76693, Note_on_c, 0, 68, 62
2,76708, Control_c, 0, 64, 60
2,76723, Control_c, 0, 64, 0
2,76739, Note_on_c, 0, 68, 0
2,76757, Note_on_c, 0, 66, 70
2,76769, Control_c, 0, 64, 46
2,76784, Control_c, 0, 64, 65
2,76799, Control_c, 0, 64, 87
2,76809, Note_on_c, 0, 66, 0
2,76813, Note_on_c, 0, 68, 60
2,76815, Control_c, 0, 64, 127
2,76847, Note_on_c, 0, 68, 0
2,76861, Note_on_c, 0, 66, 60
2,76915, Note_on_c, 0, 66, 0
2,76933, Note_on_c, 0, 68, 64
2,76967, Note_on_c, 0, 68, 0
2,76979, Note_on_c, 0, 66, 66
2,77019, Note_on_c, 0, 60, 0
2,77025, Note_on_c, 0, 58, 68
2,77037, Note_on_c, 0, 66, 0
2,77042, Note_on_c, 0, 68, 71
2,77075, Note_on_c, 0, 68, 0
2,77090, Note_on_c, 0, 66, 61
2,77136, Note_on_c, 0, 68, 63
2,77137, Note_on_c, 0, 66, 0
2,77174, Note_on_c, 0, 68, 0
2,77178, Note_on_c, 0, 66, 72
2,77236, Note_on_c, 0, 66, 0
2,77396, Note_on_c, 0, 77, 90
2,77398, Note_on_c, 0, 57, 64
2,77398, Note_on_c, 0, 65, 85
2,77431, Control_c, 0, 64, 112
2,77446, Control_c, 0, 64, 84
2,77461, Control_c, 0, 64, 69
2,77463, Note_on_c, 0, 58, 0
2,77476, Control_c, 0, 64, 59
2,77486, Note_on_c, 0, 63, 0
2,77492, Control_c, 0, 64, 31
2,77507, Control_c, 0, 64, 0
2,77788, Note_on_c, 0, 56, 61
2,77791, Note_on_c, 0, 62, 70
2,77807, Note_on_c, 0, 57, 0
2,77957, Note_on_c, 0, 60, 73
2,77978, Note_on_c, 0, 62, 0
2,78168, Note_on_c, 0, 62, 69
2,78188, Note_on_c, 0, 70, 91
2,78232, Note_on_c, 0, 65, 0
2,78243, Note_on_c, 0, 77, 0
2,78320, Note_on_c, 0, 56, 0
2,78320, Note_on_c, 0, 60, 0
2,78558, Note_on_c, 0, 54, 73
2,78735, Note_on_c, 0, 53, 75
2,78768, Note_on_c, 0, 54, 0
2,78924, Note_on_c, 0, 54, 74
2,78941, Note_on_c, 0, 63, 90
2,78948, Note_on_c, 0, 53, 0
2,78957, Note_on_c, 0, 70, 0
2,78983, Control_c, 0, 64, 53
2,78998, Control_c, 0, 64, 62
2,79014, Control_c, 0, 64, 74
2,79030, Control_c, 0, 64, 127
2,79076, Note_on_c, 0, 63, 0
2,79326, Note_on_c, 0, 56, 75
2,79327, Note_on_c, 0, 83, 95
2,79391, Note_on_c, 0, 54, 0
2,79461, Note_on_c, 0, 62, 0
2,79706, Control_c, 0, 64, 100
2,79713, Note_on_c, 0, 82, 92
2,79714, Note_on_c, 0, 62, 80
2,79716, Note_on_c, 0, 58, 84
2,79720, Control_c, 0, 64, 45
2,79736, Control_c, 0, 64, 0
2,79743, Note_on_c, 0, 83, 0
2,79760, Note_on_c, 0, 56, 0
2,79827, Control_c, 0, 64, 63
2,79844, Control_c, 0, 64, 88
2,79859, Control_c, 0, 64, 127
2,79953, Note_on_c, 0, 82, 0
2,79957, Note_on_c, 0, 62, 0
2,80112, Note_on_c, 0, 77, 89
2,80116, Note_on_c, 0, 80, 88
2,80281, Note_on_c, 0, 77, 0
2,80296, Note_on_c, 0, 80, 0
2,80501, Note_on_c, 0, 78, 86
2,80503, Note_on_c, 0, 75, 90
2,80506, Note_on_c, 0, 63, 87
2,80515, Note_on_c, 0, 51, 76
2,80548, Note_on_c, 0, 58, 0
2,80565, Control_c, 0, 64, 91
2,80580, Control_c, 0, 64, 57
2,80595, Control_c, 0, 64, 0
2,80657, Control_c, 0, 64, 58
2,80672, Control_c, 0, 64, 83
2,80687, Control_c, 0, 64, 127
2,80778, Note_on_c, 0, 63, 0
2,80781, Note_on_c, 0, 78, 0
2,80911, Note_on_c, 0, 73, 91
2,80915, Note_on_c, 0, 70, 86
2,80960, Note_on_c, 0, 75, 0
2,81134, Note_on_c, 0, 70, 0
2,81146, Note_on_c, 0, 73, 0
2,81291, Note_on_c, 0, 71, 83
2,81292, Note_on_c, 0, 68, 81
2,81295, Note_on_c, 0, 76, 81
2,81298, Note_on_c, 0, 44, 76
2,81363, Control_c, 0, 64, 70
2,81378, Control_c, 0, 64, 0
2,81446, Note_on_c, 0, 51, 0
2,81469, Control_c, 0, 64, 45
2,81485, Control_c, 0, 64, 63
2,81500, Control_c, 0, 64, 78
2,81515, Control_c, 0, 64, 127
2,81539, Note_on_c, 0, 76, 0
2,81563, Note_on_c, 0, 68, 0
2,81686, Note_on_c, 0, 75, 86
2,81690, Note_on_c, 0, 66, 79
2,81714, Note_on_c, 0, 71, 0
2,81932, Note_on_c, 0, 75, 0
2,81944, Note_on_c, 0, 66, 0
2,82069, Note_on_c, 0, 53, 92
2,82090, Note_on_c, 0, 65, 67
2,82091, Note_on_c, 0, 74, 67
2,82094, Note_on_c, 0, 70, 63
2,82130, Control_c, 0, 64, 93
2,82145, Control_c, 0, 64, 78
2,82160, Control_c, 0, 64, 66
2,82161, Note_on_c, 0, 44, 0
2,82176, Control_c, 0, 64, 56
2,82191, Control_c, 0, 64, 27
2,82207, Control_c, 0, 64, 0
2,82467, Note_on_c, 0, 42, 72
2,82504, Control_c, 0, 64, 47
2,82519, Control_c, 0, 64, 58
2,82534, Control_c, 0, 64, 63
2,82549, Control_c, 0, 64, 69
2,82565, Control_c, 0, 64, 88
2,82580, Control_c, 0, 64, 127
2,82580, Note_on_c, 0, 53, 0
2,82646, Note_on_c, 0, 65, 0
2,82870, Note_on_c, 0, 46, 93
2,82873, Note_on_c, 0, 66, 72
2,82878, Note_on_c, 0, 75, 78
2,82879, Note_on_c, 0, 41, 75
2,82888, Note_on_c, 0, 42, 0
2,82902, Note_on_c, 0, 74, 0
2,82908, Note_on_c, 0, 70, 0
2,82944, Control_c, 0, 64, 102
2,82959, Control_c, 0, 64, 87
2,82975, Control_c, 0, 64, 77
2,82989, Control_c, 0, 64, 68
2,83005, Control_c, 0, 64, 58
2,83020, Control_c, 0, 64, 36
2,83035, Control_c, 0, 64, 0
2,83272, Note_on_c, 0, 39, 72
2,83277, Note_on_c, 0, 41, 0
2,83504, Note_on_c, 0, 46, 0
2,83677, Note_on_c, 0, 66, 0
2,83684, Note_on_c, 0, 65, 66
2,83688, Note_on_c, 0, 46, 70
2,83726, Note_on_c, 0, 39, 0
2,83817, Control_c, 0, 64, 15
2,83839, Control_c, 0, 64, 58
2,83855, Control_c, 0, 64, 73
2,83870, Control_c, 0, 64, 106
2,83879, Note_on_c, 0, 46, 0
2,83885, Control_c, 0, 64, 127
2,84081, Note_on_c, 0, 59, 88
2,84466, Note_on_c, 0, 74, 81
2,84476, Note_on_c, 0, 58, 83
2,84507, Note_on_c, 0, 75, 0
2,84509, Control_c, 0, 64, 72
2,84524, Control_c, 0, 64, 0
2,84565, Note_on_c, 0, 59, 0
2,84760, Control_c, 0, 64, 45
2,84776, Control_c, 0, 64, 58
2,84791, Control_c, 0, 64, 63
2,84806, Control_c, 0, 64, 69
2,84822, Control_c, 0, 64, 94
2,84836, Control_c, 0, 64, 127
2,84868, Note_on_c, 0, 65, 0
2,84895, Note_on_c, 0, 56, 82
2,84947, Note_on_c, 0, 58, 0
2,85056, Note_on_c, 0, 56, 0
2,85270, Note_on_c, 0, 54, 66
2,85273, Note_on_c, 0, 51, 58
2,85283, Note_on_c, 0, 63, 86
2,85286, Note_on_c, 0, 70, 88
2,85290, Note_on_c, 0, 75, 84
2,85314, Note_on_c, 0, 74, 0
2,85322, Control_c, 0, 64, 82
2,85338, Control_c, 0, 64, 58
2,85353, Control_c, 0, 64, 0
2,85497, Control_c, 0, 64, 35
2,85512, Control_c, 0, 64, 57
2,85527, Control_c, 0, 64, 69
2,85543, Control_c, 0, 64, 108
2,85558, Control_c, 0, 64, 127
2,85627, Note_on_c, 0, 75, 0
2,85686, Note_on_c, 0, 53, 70
2,85723, Note_on_c, 0, 70, 0
2,85730, Note_on_c, 0, 54, 0
2,85752, Note_on_c, 0, 63, 0
2,85767, Note_on_c, 0, 51, 0
2,86057, Note_on_c, 0, 63, 82
2,86058, Note_on_c, 0, 54, 68
2,86060, Control_c, 0, 64, 106
2,86063, Note_on_c, 0, 58, 82
2,86075, Control_c, 0, 64, 68
2,86081, Note_on_c, 0, 53, 0
2,86091, Control_c, 0, 64, 0
2,86189, Control_c, 0, 64, 28
2,86204, Control_c, 0, 64, 61
2,86220, Control_c, 0, 64, 76
2,86235, Control_c, 0, 64, 127
2,86447, Note_on_c, 0, 56, 72
2,86448, Control_c, 0, 64, 102
2,86454, Note_on_c, 0, 53, 65
2,86464, Control_c, 0, 64, 68
2,86464, Note_on_c, 0, 54, 0
2,86467, Note_on_c, 0, 58, 0
2,86478, Control_c, 0, 64, 10
2,86494, Control_c, 0, 64, 0
2,86524, Control_c, 0, 64, 34
2,86540, Control_c, 0, 64, 62
2,86555, Control_c, 0, 64, 80
2,86571, Control_c, 0, 64, 127
2,86582, Note_on_c, 0, 53, 0
2,86858, Note_on_c, 0, 58, 65
2,86859, Control_c, 0, 64, 77
2,86864, Note_on_c, 0, 63, 0
2,86873, Control_c, 0, 64, 38
2,86873, Note_on_c, 0, 56, 0
2,86875, Note_on_c, 0, 54, 54
2,86888, Control_c, 0, 64, 0
2,86988, Control_c, 0, 64, 43
2,87003, Control_c, 0, 64, 63
2,87018, Control_c, 0, 64, 78
2,87033, Control_c, 0, 64, 127
2,87245, Note_on_c, 0, 73, 81
2,87245, Note_on_c, 0, 77, 83
2,87252, Note_on_c, 0, 60, 67
2,87282, Note_on_c, 0, 58, 0
2,87427, Note_on_c, 0, 61, 77
2,87460, Note_on_c, 0, 60, 0
2,87491, Note_on_c, 0, 61, 0
2,87627, Note_on_c, 0, 72, 71
2,87629, Note_on_c, 0, 75, 80
2,87637, Note_on_c, 0, 63, 56
2,87641, Control_c, 0, 64, 94
2,87657, Control_c, 0, 64, 69
2,87680, Control_c, 0, 64, 37
2,87696, Control_c, 0, 64, 0
2,87699, Note_on_c, 0, 73, 0
2,87724, Note_on_c, 0, 77, 0
2,87817, Control_c, 0, 64, 46
2,87832, Control_c, 0, 64, 56
2,87847, Control_c, 0, 64, 60
2,87862, Control_c, 0, 64, 62
2,87877, Control_c, 0, 64, 65
2,87893, Control_c, 0, 64, 70
2,87908, Control_c, 0, 64, 76
2,87923, Control_c, 0, 64, 81
2,87938, Control_c, 0, 64, 82
2,87998, Control_c, 0, 64, 81
2,88014, Control_c, 0, 64, 78
2,88020, Note_on_c, 0, 73, 72
2,88027, Note_on_c, 0, 70, 69
2,88030, Control_c, 0, 64, 68
2,88045, Control_c, 0, 64, 55
2,88061, Control_c, 0, 64, 0
2,88061, Note_on_c, 0, 72, 0
2,88065, Note_on_c, 0, 75, 0
2,88106, Control_c, 0, 64, 35
2,88121, Control_c, 0, 64, 57
2,88137, Control_c, 0, 64, 64
2,88152, Control_c, 0, 64, 75
2,88166, Control_c, 0, 64, 109
2,88182, Control_c, 0, 64, 127
2,88354, Note_on_c, 0, 73, 0
2,88372, Note_on_c, 0, 70, 0
2,88404, Note_on_c, 0, 72, 65
2,88410, Control_c, 0, 64, 90
2,88411, Note_on_c, 0, 69, 59
2,88425, Control_c, 0, 64, 70
2,88447, Control_c, 0, 64, 57
2,88450, Note_on_c, 0, 63, 0
2,88463, Control_c, 0, 64, 41
2,88478, Control_c, 0, 64, 50
2,88494, Control_c, 0, 64, 59
2,88509, Control_c, 0, 64, 64
2,88523, Control_c, 0, 64, 71
2,88539, Control_c, 0, 64, 89
2,88554, Control_c, 0, 64, 127
2,88787, Note_on_c, 0, 61, 55
2,88788, Note_on_c, 0, 70, 62
2,88796, Note_on_c, 0, 67, 58
2,88797, Control_c, 0, 64, 90
2,88802, Note_on_c, 0, 54, 0
2,88813, Control_c, 0, 64, 67
2,88814, Note_on_c, 0, 53, 45
2,88827, Control_c, 0, 64, 49
2,88834, Note_on_c, 0, 69, 0
2,88834, Note_on_c, 0, 72, 0
2,88842, Control_c, 0, 64, 31
2,88860, Control_c, 0, 64, 49
2,88874, Control_c, 0, 64, 60
2,88890, Control_c, 0, 64, 65
2,88905, Control_c, 0, 64, 74
2,88920, Control_c, 0, 64, 108
2,88935, Control_c, 0, 64, 127
2,89025, Note_on_c, 0, 61, 0
2,89175, Note_on_c, 0, 60, 65
2,89182, Note_on_c, 0, 72, 69
2,89190, Note_on_c, 0, 69, 67
2,89192, Note_on_c, 0, 51, 50
2,89217, Control_c, 0, 64, 85
2,89221, Note_on_c, 0, 53, 0
2,89232, Control_c, 0, 64, 67
2,89236, Note_on_c, 0, 70, 0
2,89237, Note_on_c, 0, 67, 0
2,89247, Control_c, 0, 64, 51
2,89262, Control_c, 0, 64, 55
2,89277, Control_c, 0, 64, 63
2,89293, Control_c, 0, 64, 68
2,89308, Control_c, 0, 64, 84
2,89323, Control_c, 0, 64, 127
2,89382, Note_on_c, 0, 60, 0
2,89460, Note_on_c, 0, 69, 0
2,89579, Note_on_c, 0, 73, 85
2,89582, Note_on_c, 0, 58, 66
2,89582, Note_on_c, 0, 70, 77
2,89597, Control_c, 0, 64, 88
2,89598, Note_on_c, 0, 49, 56
2,89604, Note_on_c, 0, 72, 0
2,89613, Control_c, 0, 64, 67
2,89614, Note_on_c, 0, 51, 0
2,89627, Control_c, 0, 64, 47
2,89642, Control_c, 0, 64, 46
2,89658, Control_c, 0, 64, 61
2,89673, Control_c, 0, 64, 67
2,89688, Control_c, 0, 64, 80
2,89704, Control_c, 0, 64, 127
2,89778, Note_on_c, 0, 70, 0
2,89790, Note_on_c, 0, 73, 0
2,89839, Note_on_c, 0, 58, 0
2,89898, Note_on_c, 0, 49, 0
2,89986, Note_on_c, 0, 72, 82
2,89986, Note_on_c, 0, 75, 86
2,89988, Note_on_c, 0, 57, 69
2,89999, Note_on_c, 0, 48, 61
2,90045, Control_c, 0, 64, 77
2,90060, Control_c, 0, 64, 21
2,90075, Control_c, 0, 64, 0
2,90196, Control_c, 0, 64, 60
2,90212, Control_c, 0, 64, 64
2,90227, Control_c, 0, 64, 70
2,90242, Control_c, 0, 64, 85
2,90258, Control_c, 0, 64, 127
2,90271, Note_on_c, 0, 75, 0
2,90364, Note_on_c, 0, 78, 89
2,90367, Note_on_c, 0, 75, 85
2,90407, Note_on_c, 0, 72, 0
2,90414, Note_on_c, 0, 57, 0
2,90614, Note_on_c, 0, 78, 0
2,90759, Note_on_c, 0, 56, 67
2,90765, Note_on_c, 0, 53, 62
2,90767, Note_on_c, 0, 73, 86
2,90771, Note_on_c, 0, 77, 82
2,90802, Note_on_c, 0, 75, 0
2,90813, Control_c, 0, 64, 76
2,90827, Control_c, 0, 64, 29
2,90842, Control_c, 0, 64, 0
2,90918, Control_c, 0, 64, 63
2,90933, Note_on_c, 0, 48, 0
2,90934, Control_c, 0, 64, 90
2,90949, Control_c, 0, 64, 127
2,91155, Note_on_c, 0, 75, 88
2,91160, Note_on_c, 0, 71, 80
2,91211, Note_on_c, 0, 77, 0
2,91259, Note_on_c, 0, 73, 0
2,91538, Note_on_c, 0, 70, 85
2,91540, Note_on_c, 0, 71, 0
2,91540, Note_on_c, 0, 74, 84
2,91554, Note_on_c, 0, 46, 75
2,91556, Note_on_c, 0, 75, 0
2,91583, Control_c, 0, 64, 77
2,91592, Note_on_c, 0, 53, 0
2,91597, Control_c, 0, 64, 45
2,91613, Control_c, 0, 64, 0
2,91673, Control_c, 0, 64, 48
2,91689, Control_c, 0, 64, 70
2,91704, Control_c, 0, 64, 119
2,91719, Control_c, 0, 64, 127
2,91748, Note_on_c, 0, 70, 0
2,91758, Note_on_c, 0, 56, 0
2,91791, Note_on_c, 0, 74, 0
2,91928, Note_on_c, 0, 74, 85
2,91929, Note_on_c, 0, 77, 87
2,92160, Note_on_c, 0, 74, 0
2,92337, Note_on_c, 0, 54, 69
2,92340, Note_on_c, 0, 72, 78
2,92343, Note_on_c, 0, 51, 65
2,92343, Note_on_c, 0, 75, 83
2,92414, Control_c, 0, 64, 83
2,92426, Note_on_c, 0, 77, 0
2,92429, Control_c, 0, 64, 58
2,92444, Control_c, 0, 64, 0
2,92512, Note_on_c, 0, 46, 0
2,92520, Control_c, 0, 64, 48
2,92535, Control_c, 0, 64, 63
2,92550, Control_c, 0, 64, 78
2,92566, Control_c, 0, 64, 127
2,92594, Note_on_c, 0, 72, 0
2,92631, Note_on_c, 0, 75, 0
2,92720, Note_on_c, 0, 73, 82
2,92729, Note_on_c, 0, 70, 73
2,92885, Note_on_c, 0, 54, 0
2,93056, Note_on_c, 0, 70, 0
2,93059, Note_on_c, 0, 73, 0
2,93142, Note_on_c, 0, 72, 79
2,93145, Note_on_c, 0, 69, 70
2,93243, Control_c, 0, 64, 103
2,93258, Control_c, 0, 64, 93
2,93273, Control_c, 0, 64, 87
2,93288, Control_c, 0, 64, 82
2,93303, Control_c, 0, 64, 77
2,93319, Control_c, 0, 64, 73
2,93334, Control_c, 0, 64, 70
2,93349, Control_c, 0, 64, 67
2,93364, Control_c, 0, 64, 64
2,93379, Control_c, 0, 64, 62
2,93394, Control_c, 0, 64, 61
2,93410, Control_c, 0, 64, 60
2,93425, Control_c, 0, 64, 59
2,93440, Control_c, 0, 64, 58
2,93455, Control_c, 0, 64, 58
2,93470, Control_c, 0, 64, 57
2,93511, Note_on_c, 0, 49, 75
2,93512, Note_on_c, 0, 53, 76
2,93541, Note_on_c, 0, 51, 0
2,93546, Control_c, 0, 64, 57
2,93561, Control_c, 0, 64, 56
2,93576, Control_c, 0, 64, 56
2,93591, Control_c, 0, 64, 55
2,93607, Control_c, 0, 64, 55
2,93622, Control_c, 0, 64, 54
2,93638, Control_c, 0, 64, 54
2,93652, Control_c, 0, 64, 53
2,93667, Control_c, 0, 64, 53
2,93683, Control_c, 0, 64, 52
2,93698, Control_c, 0, 64, 52
2,93713, Control_c, 0, 64, 51
2,93729, Control_c, 0, 64, 49
2,93744, Control_c, 0, 64, 48
2,93760, Control_c, 0, 64, 48
2,93775, Control_c, 0, 64, 47
2,93790, Control_c, 0, 64, 46
2,93805, Control_c, 0, 64, 45
2,93828, Control_c, 0, 64, 43
2,93844, Control_c, 0, 64, 41
2,93859, Control_c, 0, 64, 39
2,93873, Control_c, 0, 64, 37
2,93889, Control_c, 0, 64, 34
2,93904, Control_c, 0, 64, 30
2,93919, Note_on_c, 0, 51, 70
2,93920, Control_c, 0, 64, 24
2,93922, Note_on_c, 0, 73, 78
2,93923, Note_on_c, 0, 70, 74
2,93923, Note_on_c, 0, 72, 0
2,93925, Note_on_c, 0, 48, 63
2,93934, Control_c, 0, 64, 17
2,93945, Note_on_c, 0, 53, 0
2,93949, Control_c, 0, 64, 0
2,93963, Note_on_c, 0, 69, 0
2,93973, Note_on_c, 0, 49, 0
2,94272, Note_on_c, 0, 48, 0
2,94303, Note_on_c, 0, 49, 75
2,94322, Note_on_c, 0, 46, 52
2,94328, Note_on_c, 0, 51, 0
2,94360, Control_c, 0, 64, 44
2,94375, Control_c, 0, 64, 57
2,94390, Control_c, 0, 64, 64
2,94405, Control_c, 0, 64, 76
2,94413, Note_on_c, 0, 46, 0
2,94420, Control_c, 0, 64, 127
2,94533, Note_on_c, 0, 49, 0
2,94655, Note_on_c, 0, 73, 0
2,94704, Note_on_c, 0, 58, 57
2,94731, Note_on_c, 0, 54, 43
2,94757, Note_on_c, 0, 63, 80
2,94793, Control_c, 0, 64, 102
2,94805, Note_on_c, 0, 70, 0
2,94809, Control_c, 0, 64, 74
2,94824, Control_c, 0, 64, 57
2,94840, Control_c, 0, 64, 0
2,94900, Control_c, 0, 64, 43
2,94916, Control_c, 0, 64, 59
2,94930, Control_c, 0, 64, 67
2,94945, Control_c, 0, 64, 89
2,94961, Control_c, 0, 64, 127
2,95141, Note_on_c, 0, 72, 73
2,95450, Note_on_c, 0, 63, 0
2,95514, Note_on_c, 0, 55, 63
2,95557, Note_on_c, 0, 64, 84
2,95592, Control_c, 0, 64, 105
2,95608, Control_c, 0, 64, 68
2,95610, Note_on_c, 0, 54, 0
2,95620, Note_on_c, 0, 58, 0
2,95622, Control_c, 0, 64, 0
2,95684, Control_c, 0, 64, 26
2,95698, Control_c, 0, 64, 61
2,95713, Control_c, 0, 64, 72
2,95729, Control_c, 0, 64, 98
2,95743, Control_c, 0, 64, 127
2,95911, Note_on_c, 0, 60, 68
2,95914, Note_on_c, 0, 70, 84
2,95948, Note_on_c, 0, 72, 0
2,95990, Note_on_c, 0, 64, 0
2,96064, Note_on_c, 0, 60, 0
2,96141, Note_on_c, 0, 55, 0
2,96306, Note_on_c, 0, 61, 69
2,96309, Note_on_c, 0, 53, 61
2,96352, Note_on_c, 0, 65, 76
2,96352, Note_on_c, 0, 69, 86
2,96376, Control_c, 0, 64, 67
2,96376, Note_on_c, 0, 70, 0
2,96390, Control_c, 0, 64, 0
2,96482, Control_c, 0, 64, 58
2,96497, Control_c, 0, 64, 68
2,96510, Note_on_c, 0, 65, 0
2,96512, Control_c, 0, 64, 84
2,96528, Control_c, 0, 64, 127
2,96553, Note_on_c, 0, 69, 0
2,96756, Note_on_c, 0, 60, 75
2,96756, Note_on_c, 0, 78, 91
2,96762, Note_on_c, 0, 69, 79
2,96786, Control_c, 0, 64, 91
2,96801, Control_c, 0, 64, 68
2,96801, Note_on_c, 0, 61, 0
2,96816, Control_c, 0, 64, 58
2,96831, Control_c, 0, 64, 62
2,96847, Control_c, 0, 64, 69
2,96861, Control_c, 0, 64, 90
2,96877, Control_c, 0, 64, 127
2,96967, Note_on_c, 0, 69, 0
2,97071, Note_on_c, 0, 78, 0
2,97158, Note_on_c, 0, 77, 92
2,97160, Note_on_c, 0, 70, 91
2,97176, Note_on_c, 0, 61, 73
2,97205, Control_c, 0, 64, 77
2,97220, Control_c, 0, 64, 58
2,97234, Control_c, 0, 64, 0
2,97238, Note_on_c, 0, 60, 0
2,97265, Control_c, 0, 64, 39
2,97281, Control_c, 0, 64, 63
2,97296, Control_c, 0, 64, 77
2,97310, Control_c, 0, 64, 127
2,97375, Note_on_c, 0, 61, 0
2,97547, Note_on_c, 0, 72, 80
2,97547, Note_on_c, 0, 75, 88
2,97552, Note_on_c, 0, 63, 76
2,97573, Note_on_c, 0, 77, 0
2,97581, Note_on_c, 0, 70, 0
2,97584, Control_c, 0, 64, 81
2,97600, Control_c, 0, 64, 62
2,97615, Control_c, 0, 64, 59
2,97630, Control_c, 0, 64, 64
2,97645, Control_c, 0, 64, 71
2,97665, Control_c, 0, 64, 91
2,97680, Control_c, 0, 64, 127
2,97726, Note_on_c, 0, 63, 0
2,97741, Note_on_c, 0, 72, 0
2,97743, Note_on_c, 0, 75, 0
2,97959, Note_on_c, 0, 73, 87
2,97965, Note_on_c, 0, 65, 82
2,98016, Control_c, 0, 64, 102
2,98031, Control_c, 0, 64, 68
2,98047, Control_c, 0, 64, 29
2,98062, Control_c, 0, 64, 0
2,98107, Control_c, 0, 64, 49
2,98123, Control_c, 0, 64, 67
2,98138, Control_c, 0, 64, 88
2,98152, Control_c, 0, 64, 127
2,98359, Note_on_c, 0, 70, 86
2,98636, Note_on_c, 0, 73, 0
2,98763, Note_on_c, 0, 41, 89
2,98783, Note_on_c, 0, 72, 90
2,98794, Note_on_c, 0, 70, 0
2,98860, Control_c, 0, 64, 84
2,98875, Control_c, 0, 64, 56
2,98891, Control_c, 0, 64, 0
2,98929, Note_on_c, 0, 53, 0
2,98967, Control_c, 0, 64, 60
2,98982, Control_c, 0, 64, 68
2,98996, Control_c, 0, 64, 85
2,99012, Control_c, 0, 64, 127
2,99195, Note_on_c, 0, 69, 87
2,99231, Note_on_c, 0, 65, 0
2,99300, Note_on_c, 0, 72, 0
2,99700, Note_on_c, 0, 42, 87
2,99737, Note_on_c, 0, 70, 91
2,99774, Note_on_c, 0, 41, 0
2,99775, Note_on_c, 0, 69, 0
2,99870, Control_c, 0, 64, 87
2,99884, Control_c, 0, 64, 70
2,99900, Control_c, 0, 64, 57
2,99915, Control_c, 0, 64, 0
2,100088, Control_c, 0, 64, 42
2,100104, Control_c, 0, 64, 54
2,100118, Control_c, 0, 64, 62
2,100134, Control_c, 0, 64, 69
2,100149, Control_c, 0, 64, 86
2,100163, Control_c, 0, 64, 127
2,100192, Note_on_c, 0, 68, 84
2,100597, Note_on_c, 0, 63, 73
2,100597, Note_on_c, 0, 66, 83
2,100621, Control_c, 0, 64, 109
2,100636, Control_c, 0, 64, 76
2,100652, Control_c, 0, 64, 62
2,100659, Note_on_c, 0, 68, 0
2,100667, Control_c, 0, 64, 55
2,100681, Control_c, 0, 64, 60
2,100697, Control_c, 0, 64, 64
2,100712, Control_c, 0, 64, 71
2,100735, Control_c, 0, 64, 92
2,100750, Control_c, 0, 64, 127
2,100799, Note_on_c, 0, 63, 0
2,100870, Note_on_c, 0, 66, 0
2,100996, Note_on_c, 0, 65, 79
2,101005, Note_on_c, 0, 61, 65
2,101038, Control_c, 0, 64, 86
2,101054, Control_c, 0, 64, 68
2,101069, Control_c, 0, 64, 61
2,101083, Control_c, 0, 64, 63
2,101099, Control_c, 0, 64, 67
2,101114, Control_c, 0, 64, 74
2,101130, Control_c, 0, 64, 93
2,101146, Control_c, 0, 64, 127
2,101149, Note_on_c, 0, 70, 0
2,101273, Note_on_c, 0, 61, 0
2,101301, Note_on_c, 0, 65, 0
2,101390, Note_on_c, 0, 68, 74
2,101392, Note_on_c, 0, 63, 75
2,101398, Note_on_c, 0, 59, 68
2,101450, Control_c, 0, 64, 112
2,101465, Control_c, 0, 64, 96
2,101480, Control_c, 0, 64, 90
2,101503, Control_c, 0, 64, 86
2,101518, Control_c, 0, 64, 84
2,101533, Control_c, 0, 64, 82
2,101548, Control_c, 0, 64, 79
2,101563, Control_c, 0, 64, 76
2,101579, Control_c, 0, 64, 74
2,101594, Control_c, 0, 64, 72
2,101610, Control_c, 0, 64, 70
2,101625, Control_c, 0, 64, 69
2,101640, Control_c, 0, 64, 68
2,101655, Control_c, 0, 64, 67
2,101670, Control_c, 0, 64, 66
2,101685, Control_c, 0, 64, 64
2,101701, Control_c, 0, 64, 63
2,101716, Control_c, 0, 64, 61
2,101731, Control_c, 0, 64, 60
2,101746, Control_c, 0, 64, 59
2,101758, Note_on_c, 0, 41, 75
2,101761, Control_c, 0, 64, 59
2,101762, Note_on_c, 0, 62, 69
2,101776, Control_c, 0, 64, 58
2,101791, Control_c, 0, 64, 57
2,101797, Note_on_c, 0, 63, 0
2,101806, Control_c, 0, 64, 56
2,101822, Control_c, 0, 64, 54
2,101837, Control_c, 0, 64, 52
2,101852, Control_c, 0, 64, 51
2,101863, Note_on_c, 0, 42, 0
2,101867, Control_c, 0, 64, 49
2,101882, Control_c, 0, 64, 46
2,101898, Control_c, 0, 64, 44
2,101913, Control_c, 0, 64, 43
2,101924, Note_on_c, 0, 63, 76
2,101927, Control_c, 0, 64, 41
2,101943, Control_c, 0, 64, 37
2,101959, Control_c, 0, 64, 33
2,101970, Note_on_c, 0, 62, 0
2,101975, Control_c, 0, 64, 27
2,101990, Control_c, 0, 64, 23
2,102005, Control_c, 0, 64, 20
2,102021, Control_c, 0, 64, 13
2,102035, Control_c, 0, 64, 0
2,102138, Note_on_c, 0, 39, 60
2,102141, Note_on_c, 0, 65, 70
2,102176, Note_on_c, 0, 63, 0
2,102297, Note_on_c, 0, 41, 0
2,102545, Note_on_c, 0, 38, 63
2,102579, Note_on_c, 0, 59, 0
2,102668, Note_on_c, 0, 68, 0
2,102703, Note_on_c, 0, 39, 0
2,102945, Note_on_c, 0, 39, 59
2,102948, Note_on_c, 0, 66, 78
2,102953, Note_on_c, 0, 58, 68
2,102986, Note_on_c, 0, 38, 0
2,102989, Note_on_c, 0, 65, 0
2,103345, Note_on_c, 0, 65, 72
2,103357, Note_on_c, 0, 61, 60
2,103374, Control_c, 0, 64, 22
2,103389, Control_c, 0, 64, 33
2,103398, Note_on_c, 0, 58, 0
2,103404, Control_c, 0, 64, 44
2,103419, Control_c, 0, 64, 51
2,103434, Control_c, 0, 64, 56
2,103450, Control_c, 0, 64, 60
2,103465, Control_c, 0, 64, 62
2,103479, Control_c, 0, 64, 64
2,103495, Control_c, 0, 64, 66
2,103510, Control_c, 0, 64, 68
2,103525, Control_c, 0, 64, 70
2,103540, Control_c, 0, 64, 71
2,103555, Control_c, 0, 64, 71
2,103571, Control_c, 0, 64, 72
2,103586, Control_c, 0, 64, 72
2,103602, Control_c, 0, 64, 73
2,103618, Control_c, 0, 64, 73
2,103723, Control_c, 0, 64, 71
2,103737, Note_on_c, 0, 63, 67
2,103739, Control_c, 0, 64, 66
2,103740, Note_on_c, 0, 60, 59
2,103750, Note_on_c, 0, 51, 49
2,103754, Control_c, 0, 64, 58
2,103759, Note_on_c, 0, 61, 0
2,103768, Control_c, 0, 64, 0
2,103826, Note_on_c, 0, 66, 0
2,103831, Note_on_c, 0, 65, 0
2,103834, Note_on_c, 0, 39, 0
2,103883, Control_c, 0, 64, 48
2,103899, Control_c, 0, 64, 59
2,103913, Control_c, 0, 64, 64
2,103928, Control_c, 0, 64, 69
2,103944, Control_c, 0, 64, 78
2,103959, Control_c, 0, 64, 93
2,103975, Control_c, 0, 64, 127
2,103986, Note_on_c, 0, 63, 0
2,104126, Note_on_c, 0, 60, 0
2,104126, Note_on_c, 0, 61, 59
2,104135, Note_on_c, 0, 58, 52
2,104241, Note_on_c, 0, 58, 0
2,104555, Note_on_c, 0, 57, 44
2,104575, Control_c, 0, 64, 100
2,104581, Note_on_c, 0, 61, 0
2,104587, Note_on_c, 0, 65, 63
2,104590, Control_c, 0, 64, 82
2,104593, Note_on_c, 0, 60, 48
2,104605, Control_c, 0, 64, 69
2,104621, Control_c, 0, 64, 55
2,104636, Control_c, 0, 64, 0
2,104691, Note_on_c, 0, 51, 0
2,104743, Control_c, 0, 64, 28
2,104757, Control_c, 0, 64, 52
2,104773, Control_c, 0, 64, 60
2,104788, Control_c, 0, 64, 65
2,104803, Control_c, 0, 64, 74
2,104819, Control_c, 0, 64, 99
2,104833, Control_c, 0, 64, 127
2,104977, Note_on_c, 0, 49, 42
2,104977, Note_on_c, 0, 63, 50
2,105038, Note_on_c, 0, 60, 0
2,105077, Note_on_c, 0, 57, 0
2,105159, Note_on_c, 0, 48, 49
2,105182, Note_on_c, 0, 49, 0
2,105366, Note_on_c, 0, 58, 59
2,105373, Note_on_c, 0, 49, 47
2,105396, Note_on_c, 0, 65, 0
2,105414, Note_on_c, 0, 70, 91
2,105452, Control_c, 0, 64, 89
2,105467, Control_c, 0, 64, 66
2,105473, Note_on_c, 0, 48, 0
2,105477, Note_on_c, 0, 63, 0
2,105482, Control_c, 0, 64, 26
2,105497, Control_c, 0, 64, 0
2,105543, Control_c, 0, 64, 52
2,105558, Control_c, 0, 64, 64
2,105574, Control_c, 0, 64, 80
2,105589, Control_c, 0, 64, 127
2,105785, Note_on_c, 0, 49, 0
2,105800, Note_on_c, 0, 51, 45
2,105812, Note_on_c, 0, 61, 56
2,105873, Note_on_c, 0, 58, 0
2,105889, Note_on_c, 0, 70, 0
2,105965, Note_on_c, 0, 61, 0
2,106134, Note_on_c, 0, 53, 59
2,106136, Note_on_c, 0, 57, 59
2,106197, Note_on_c, 0, 65, 93
2,106208, Note_on_c, 0, 60, 82
2,106280, Note_on_c, 0, 51, 0
2,106284, Control_c, 0, 64, 67
2,106299, Control_c, 0, 64, 0
2,106390, Control_c, 0, 64, 42
2,106405, Control_c, 0, 64, 54
2,106420, Control_c, 0, 64, 64
2,106435, Control_c, 0, 64, 73
2,106451, Control_c, 0, 64, 127
2,106576, Note_on_c, 0, 51, 54
2,106897, Note_on_c, 0, 53, 0
2,106931, Note_on_c, 0, 57, 0
2,106938, Note_on_c, 0, 49, 70
2,106945, Control_c, 0, 64, 82
2,106952, Note_on_c, 0, 58, 97
2,106960, Control_c, 0, 64, 41
2,106966, Note_on_c, 0, 60, 0
2,106975, Control_c, 0, 64, 0
2,107010, Note_on_c, 0, 51, 0
2,107035, Control_c, 0, 64, 55
2,107051, Control_c, 0, 64, 68
2,107066, Control_c, 0, 64, 97
2,107074, Note_on_c, 0, 58, 0
2,107081, Control_c, 0, 64, 127
2,107089, Note_on_c, 0, 65, 0
2,107332, Note_on_c, 0, 78, 99
2,107337, Note_on_c, 0, 48, 76
2,107354, Note_on_c, 0, 49, 0
2,107601, Note_on_c, 0, 78, 0
2,107720, Note_on_c, 0, 53, 85
2,107723, Note_on_c, 0, 49, 77
2,107728, Control_c, 0, 64, 89
2,107729, Note_on_c, 0, 77, 94
2,107743, Control_c, 0, 64, 39
2,107759, Control_c, 0, 64, 0
2,107762, Note_on_c, 0, 48, 0
2,107850, Control_c, 0, 64, 46
2,107865, Control_c, 0, 64, 63
2,107880, Control_c, 0, 64, 75
2,107895, Control_c, 0, 64, 127
2,108115, Note_on_c, 0, 45, 78
2,108117, Note_on_c, 0, 72, 92
2,108120, Note_on_c, 0, 75, 89
2,108134, Note_on_c, 0, 49, 0
2,108145, Note_on_c, 0, 77, 0
2,108264, Note_on_c, 0, 72, 0
2,108280, Note_on_c, 0, 75, 0
2,108527, Note_on_c, 0, 73, 88
2,108529, Note_on_c, 0, 46, 84
2,108530, Note_on_c, 0, 70, 87
2,108565, Note_on_c, 0, 53, 0
2,108568, Note_on_c, 0, 45, 0
2,108572, Control_c, 0, 64, 80
2,108587, Control_c, 0, 64, 0
2,108694, Control_c, 0, 64, 16
2,108700, Note_on_c, 0, 73, 0
2,108709, Control_c, 0, 64, 58
2,108724, Control_c, 0, 64, 69
2,108739, Control_c, 0, 64, 127
2,108914, Note_on_c, 0, 70, 0
2,108921, Note_on_c, 0, 66, 96
2,108922, Note_on_c, 0, 72, 87
2,109161, Note_on_c, 0, 66, 0
2,109345, Note_on_c, 0, 41, 89
2,109361, Note_on_c, 0, 65, 91
2,109364, Note_on_c, 0, 70, 87
2,109366, Note_on_c, 0, 73, 86
2,109370, Control_c, 0, 64, 94
2,109373, Note_on_c, 0, 46, 0
2,109376, Note_on_c, 0, 72, 0
2,109385, Control_c, 0, 64, 53
2,109401, Control_c, 0, 64, 0
2,109477, Control_c, 0, 64, 57
2,109491, Control_c, 0, 64, 76
2,109506, Control_c, 0, 64, 127
2,109513, Note_on_c, 0, 65, 0
2,109528, Note_on_c, 0, 41, 0
2,109537, Note_on_c, 0, 73, 0
2,109567, Note_on_c, 0, 70, 0
2,109769, Note_on_c, 0, 60, 94
2,109771, Note_on_c, 0, 63, 80
2,109771, Note_on_c, 0, 75, 86
2,109774, Note_on_c, 0, 69, 78
2,109795, Control_c, 0, 64, 83
2,109811, Control_c, 0, 64, 61
2,109825, Control_c, 0, 64, 39
2,109841, Control_c, 0, 64, 55
2,109856, Control_c, 0, 64, 66
2,109871, Control_c, 0, 64, 88
2,109881, Note_on_c, 0, 69, 0
2,109887, Control_c, 0, 64, 127
2,109933, Note_on_c, 0, 63, 0
2,109940, Note_on_c, 0, 60, 0
2,110170, Note_on_c, 0, 75, 0
2,110186, Note_on_c, 0, 61, 87
2,110188, Note_on_c, 0, 58, 85
2,110193, Note_on_c, 0, 70, 90
2,110195, Note_on_c, 0, 77, 87
2,110227, Control_c, 0, 64, 75
2,110242, Control_c, 0, 64, 40
2,110258, Control_c, 0, 64, 0
2,110303, Control_c, 0, 64, 54
2,110318, Control_c, 0, 64, 72
2,110334, Control_c, 0, 64, 127
2,110396, Note_on_c, 0, 70, 0
2,110468, Note_on_c, 0, 61, 0
2,110477, Note_on_c, 0, 58, 0
2,110581, Note_on_c, 0, 54, 86
2,110583, Note_on_c, 0, 60, 90
2,110586, Note_on_c, 0, 75, 90
2,110587, Note_on_c, 0, 57, 82
2,110588, Note_on_c, 0, 72, 83
2,110617, Note_on_c, 0, 77, 0
2,110622, Control_c, 0, 64, 71
2,110637, Control_c, 0, 64, 31
2,110651, Control_c, 0, 64, 0
2,110680, Control_c, 0, 64, 21
2,110696, Control_c, 0, 64, 61
2,110719, Control_c, 0, 64, 75
2,110735, Control_c, 0, 64, 127
2,110751, Note_on_c, 0, 60, 0
2,110753, Note_on_c, 0, 72, 0
2,110760, Note_on_c, 0, 57, 0
2,110769, Note_on_c, 0, 75, 0
2,110987, Note_on_c, 0, 58, 77
2,110987, Note_on_c, 0, 61, 87
2,110989, Note_on_c, 0, 53, 76
2,110991, Note_on_c, 0, 70, 90
2,110993, Note_on_c, 0, 73, 94
2,111006, Control_c, 0, 64, 72
2,111019, Note_on_c, 0, 54, 0
2,111022, Control_c, 0, 64, 0
2,111127, Control_c, 0, 64, 58
2,111143, Control_c, 0, 64, 72
2,111158, Control_c, 0, 64, 127
2,111160, Note_on_c, 0, 73, 0
2,111192, Note_on_c, 0, 63, 77
2,111244, Note_on_c, 0, 61, 0
2,111285, Note_on_c, 0, 63, 0
2,111342, Note_on_c, 0, 70, 0
2,111385, Note_on_c, 0, 69, 88
2,111388, Note_on_c, 0, 60, 89
2,111389, Note_on_c, 0, 65, 82
2,111391, Note_on_c, 0, 72, 86
2,111397, Note_on_c, 0, 51, 77
2,111401, Control_c, 0, 64, 85
2,111408, Note_on_c, 0, 53, 0
2,111416, Control_c, 0, 64, 55
2,111430, Note_on_c, 0, 58, 0
2,111431, Control_c, 0, 64, 0
2,111501, Control_c, 0, 64, 46
2,111515, Control_c, 0, 64, 70
2,111530, Control_c, 0, 64, 127
2,111594, Note_on_c, 0, 60, 0
2,111649, Note_on_c, 0, 69, 0
2,111790, Control_c, 0, 64, 124
2,111803, Note_on_c, 0, 61, 91
2,111805, Control_c, 0, 64, 67
2,111807, Note_on_c, 0, 70, 90
2,111812, Note_on_c, 0, 49, 75
2,111820, Control_c, 0, 64, 0
2,111824, Note_on_c, 0, 51, 0
2,111839, Note_on_c, 0, 72, 0
2,111874, Note_on_c, 0, 65, 0
2,111881, Control_c, 0, 64, 41
2,111895, Control_c, 0, 64, 66
2,111911, Control_c, 0, 64, 99
2,111926, Control_c, 0, 64, 127
2,112096, Note_on_c, 0, 49, 0
2,112109, Note_on_c, 0, 61, 0
2,112221, Note_on_c, 0, 66, 85
2,112223, Note_on_c, 0, 63, 84
2,112225, Note_on_c, 0, 48, 81
2,112252, Control_c, 0, 64, 74
2,112268, Control_c, 0, 64, 39
2,112283, Control_c, 0, 64, 0
2,112314, Control_c, 0, 64, 41
2,112329, Control_c, 0, 64, 65
2,112345, Control_c, 0, 64, 86
2,112359, Control_c, 0, 64, 127
2,112441, Note_on_c, 0, 63, 0
2,112459, Note_on_c, 0, 66, 0
2,112475, Note_on_c, 0, 48, 0
2,112667, Note_on_c, 0, 58, 86
2,112672, Note_on_c, 0, 68, 86
2,112673, Note_on_c, 0, 65, 85
2,112679, Control_c, 0, 64, 121
2,112684, Note_on_c, 0, 50, 68
2,112694, Control_c, 0, 64, 66
2,112709, Control_c, 0, 64, 0
2,112714, Note_on_c, 0, 70, 0
2,112785, Control_c, 0, 64, 54
2,112800, Control_c, 0, 64, 69
2,112815, Control_c, 0, 64, 127
2,112853, Note_on_c, 0, 65, 0
2,113124, Note_on_c, 0, 66, 86
2,113127, Note_on_c, 0, 72, 90
2,113128, Note_on_c, 0, 63, 84
2,113129, Note_on_c, 0, 51, 83
2,113148, Note_on_c, 0, 68, 0
2,113158, Control_c, 0, 64, 69
2,113168, Note_on_c, 0, 50, 0
2,113173, Control_c, 0, 64, 0
2,113214, Note_on_c, 0, 58, 0
2,113234, Control_c, 0, 64, 36
2,113249, Control_c, 0, 64, 65
2,113265, Control_c, 0, 64, 84
2,113280, Control_c, 0, 64, 127
2,113372, Note_on_c, 0, 72, 0
2,113373, Note_on_c, 0, 63, 0
2,113395, Note_on_c, 0, 66, 0
2,113607, Note_on_c, 0, 53, 87
2,113620, Note_on_c, 0, 73, 94
2,113622, Note_on_c, 0, 61, 84
2,113623, Note_on_c, 0, 65, 85
2,113631, Note_on_c, 0, 51, 0
2,113676, Control_c, 0, 64, 64
2,113691, Control_c, 0, 64, 0
2,113835, Control_c, 0, 64, 62
2,113840, Note_on_c, 0, 54, 89
2,113849, Control_c, 0, 64, 70
2,113861, Note_on_c, 0, 53, 0
2,113865, Control_c, 0, 64, 78
2,113880, Control_c, 0, 64, 84
2,113895, Control_c, 0, 64, 89
2,113911, Control_c, 0, 64, 89
2,113956, Control_c, 0, 64, 86
2,113970, Control_c, 0, 64, 80
2,113986, Control_c, 0, 64, 75
2,114001, Control_c, 0, 64, 72
2,114016, Control_c, 0, 64, 67
2,114032, Control_c, 0, 64, 61
2,114047, Control_c, 0, 64, 0
2,114080, Note_on_c, 0, 52, 86
2,114105, Note_on_c, 0, 54, 0
2,114184, Control_c, 0, 64, 8
2,114199, Control_c, 0, 64, 47
2,114214, Control_c, 0, 64, 64
2,114230, Control_c, 0, 64, 82
2,114246, Control_c, 0, 64, 127
2,114277, Note_on_c, 0, 65, 0
2,114303, Note_on_c, 0, 52, 0
2,114333, Note_on_c, 0, 53, 97
2,114393, Note_on_c, 0, 53, 0
2,114696, Note_on_c, 0, 40, 87
2,114711, Note_on_c, 0, 67, 93
2,114736, Note_on_c, 0, 61, 0
2,114740, Control_c, 0, 64, 114
2,114748, Note_on_c, 0, 73, 0
2,114755, Control_c, 0, 64, 72
2,114769, Control_c, 0, 64, 29
2,114785, Control_c, 0, 64, 0
2,114936, Control_c, 0, 64, 46
2,114952, Control_c, 0, 64, 60
2,114967, Control_c, 0, 64, 68
2,114983, Control_c, 0, 64, 90
2,114998, Control_c, 0, 64, 127
2,115166, Note_on_c, 0, 73, 99
2,115447, Note_on_c, 0, 73, 0
2,115655, Note_on_c, 0, 72, 94
2,115659, Note_on_c, 0, 60, 88
2,115705, Control_c, 0, 64, 80
2,115720, Control_c, 0, 64, 61
2,115734, Control_c, 0, 64, 0
2,115765, Control_c, 0, 64, 44
2,115781, Control_c, 0, 64, 59
2,115796, Control_c, 0, 64, 67
2,115811, Control_c, 0, 64, 94
2,115827, Control_c, 0, 64, 127
2,115985, Note_on_c, 0, 40, 0
2,116029, Note_on_c, 0, 67, 0
2,116182, Note_on_c, 0, 70, 92
2,116211, Note_on_c, 0, 72, 0
2,116442, Note_on_c, 0, 60, 0
2,116471, Note_on_c, 0, 70, 0
2,116700, Note_on_c, 0, 41, 86
2,116752, Note_on_c, 0, 65, 92
2,116754, Note_on_c, 0, 60, 88
2,116754, Note_on_c, 0, 70, 92
2,116813, Control_c, 0, 64, 78
2,116828, Control_c, 0, 64, 0
2,116928, Control_c, 0, 64, 47
2,116942, Control_c, 0, 64, 64
2,116957, Control_c, 0, 64, 75
2,116973, Control_c, 0, 64, 127
2,117097, Note_on_c, 0, 65, 0
2,117313, Note_on_c, 0, 66, 88
2,117701, Note_on_c, 0, 70, 0
2,117862, Note_on_c, 0, 66, 0
2,117929, Note_on_c, 0, 53, 88
2,117960, Note_on_c, 0, 65, 91
2,117962, Note_on_c, 0, 69, 87
2,117972, Note_on_c, 0, 60, 0
2,118029, Control_c, 0, 64, 87
2,118045, Control_c, 0, 64, 56
2,118059, Control_c, 0, 64, 0
2,118166, Control_c, 0, 64, 53
2,118181, Control_c, 0, 64, 63
2,118189, Note_on_c, 0, 41, 0
2,118195, Control_c, 0, 64, 73
2,118211, Control_c, 0, 64, 127
2,118700, Note_on_c, 0, 63, 84
2,118728, Note_on_c, 0, 65, 0
2,118890, Note_on_c, 0, 69, 0
2,119055, Note_on_c, 0, 63, 0
2,119956, Note_on_c, 0, 58, 80
2,119957, Note_on_c, 0, 70, 85
2,119958, Note_on_c, 0, 46, 68
2,119958, Note_on_c, 0, 62, 82
2,120119, Control_c, 0, 64, 103
2,120135, Control_c, 0, 64, 92
2,120150, Control_c, 0, 64, 84
2,120166, Control_c, 0, 64, 76
2,120181, Control_c, 0, 64, 68
2,120195, Control_c, 0, 64, 62
2,120211, Control_c, 0, 64, 51
2,120226, Control_c, 0, 64, 39
2,120241, Control_c, 0, 64, 22
2,120257, Control_c, 0, 64, 0
2,123146, Note_on_c, 0, 46, 0
2,123146, Note_on_c, 0, 53, 0
2,123157, Note_on_c, 0, 70, 0
2,123161, Note_on_c, 0, 62, 0
2,123167, Note_on_c, 0, 58, 0
2,123168, End_track
0, 0, End_of_file
