0, 0, Header, 1, 2, 384
1, 0, Start_track
1, 0, Tempo, 500000
1, 0, Time_signature, 4, 2, 24, 8
1, 1, End_track
2,0,Start_track
2,0, Note_on_c, 0, 70, 70
2,851, Note_on_c, 0, 65, 64
2,947, Note_on_c, 0, 70, 0
2,1583, Control_c, 0, 64, 28
2,1598, Control_c, 0, 64, 40
2,1613, Control_c, 0, 64, 47
2,1628, Control_c, 0, 64, 51
2,1643, Control_c, 0, 64, 54
2,1659, Control_c, 0, 64, 56
2,1674, Control_c, 0, 64, 57
2,1689, Control_c, 0, 64, 58
2,1720, Control_c, 0, 64, 58
2,1745, Note_on_c, 0, 65, 0
2,1765, Control_c, 0, 64, 57
2,1780, Control_c, 0, 64, 53
2,1795, Control_c, 0, 64, 45
2,1810, Control_c, 0, 64, 24
2,1833, Control_c, 0, 64, 0
2,2182, Note_on_c, 0, 78, 67
2,2570, Note_on_c, 0, 77, 77
2,2626, Note_on_c, 0, 78, 0
2,2708, Control_c, 0, 64, 15
2,2723, Control_c, 0, 64, 31
2,2739, Control_c, 0, 64, 41
2,2753, Control_c, 0, 64, 50
2,2768, Control_c, 0, 64, 55
2,2784, Control_c, 0, 64, 57
2,2799, Control_c, 0, 64, 59
2,2814, Control_c, 0, 64, 60
2,2829, Control_c, 0, 64, 61
2,2844, Control_c, 0, 64, 62
2,2905, Control_c, 0, 64, 61
2,2920, Control_c, 0, 64, 57
2,2935, Control_c, 0, 64, 39
2,2949, Note_on_c, 0, 75, 73
2,2951, Control_c, 0, 64, 0
2,2989, Note_on_c, 0, 77, 0
2,3074, Control_c, 0, 64, 10
2,3088, Control_c, 0, 64, 45
2,3104, Control_c, 0, 64, 52
2,3119, Control_c, 0, 64, 56
2,3133, Control_c, 0, 64, 60
2,3149, Control_c, 0, 64, 62
2,3164, Control_c, 0, 64, 64
2,3180, Control_c, 0, 64, 66
2,3195, Control_c, 0, 64, 67
2,3209, Control_c, 0, 64, 68
2,3316, Control_c, 0, 64, 67
2,3331, Control_c, 0, 64, 66
2,3334, Note_on_c, 0, 65, 64
2,3344, Note_on_c, 0, 73, 65
2,3347, Control_c, 0, 64, 64
2,3369, Control_c, 0, 64, 61
2,3385, Control_c, 0, 64, 56
2,3385, Note_on_c, 0, 75, 0
2,3400, Control_c, 0, 64, 44
2,3415, Control_c, 0, 64, 0
2,3566, Control_c, 0, 64, 36
2,3582, Control_c, 0, 64, 45
2,3597, Control_c, 0, 64, 49
2,3612, Control_c, 0, 64, 53
2,3628, Control_c, 0, 64, 55
2,3643, Control_c, 0, 64, 56
2,3659, Control_c, 0, 64, 57
2,3734, Control_c, 0, 64, 56
2,3749, Control_c, 0, 64, 52
2,3764, Control_c, 0, 64, 37
2,3768, Note_on_c, 0, 72, 60
2,3780, Control_c, 0, 64, 0
2,3800, Note_on_c, 0, 73, 0
2,3932, Control_c, 0, 64, 39
2,3948, Control_c, 0, 64, 48
2,3963, Control_c, 0, 64, 52
2,3978, Control_c, 0, 64, 55
2,3993, Control_c, 0, 64, 58
2,4008, Control_c, 0, 64, 60
2,4024, Control_c, 0, 64, 62
2,4039, Control_c, 0, 64, 63
2,4053, Control_c, 0, 64, 64
2,4069, Control_c, 0, 64, 64
2,4084, Control_c, 0, 64, 65
2,4100, Control_c, 0, 64, 66
2,4114, Control_c, 0, 64, 66
2,4168, Note_on_c, 0, 73, 62
2,4170, Note_on_c, 0, 58, 59
2,4184, Control_c, 0, 64, 66
2,4198, Control_c, 0, 64, 65
2,4204, Note_on_c, 0, 72, 0
2,4213, Control_c, 0, 64, 62
2,4229, Control_c, 0, 64, 51
2,4244, Control_c, 0, 64, 0
2,4285, Note_on_c, 0, 65, 0
2,4395, Control_c, 0, 64, 31
2,4410, Control_c, 0, 64, 43
2,4426, Control_c, 0, 64, 48
2,4441, Control_c, 0, 64, 51
2,4457, Control_c, 0, 64, 53
2,4472, Control_c, 0, 64, 55
2,4487, Control_c, 0, 64, 55
2,4532, Control_c, 0, 64, 55
2,4548, Control_c, 0, 64, 49
2,4555, Note_on_c, 0, 75, 71
2,4563, Control_c, 0, 64, 22
2,4579, Control_c, 0, 64, 0
2,4618, Note_on_c, 0, 73, 0
2,4731, Control_c, 0, 64, 41
2,4746, Control_c, 0, 64, 49
2,4761, Control_c, 0, 64, 53
2,4777, Control_c, 0, 64, 57
2,4792, Control_c, 0, 64, 60
2,4807, Control_c, 0, 64, 63
2,4822, Control_c, 0, 64, 64
2,4837, Control_c, 0, 64, 66
2,4852, Control_c, 0, 64, 68
2,4868, Control_c, 0, 64, 71
2,4883, Control_c, 0, 64, 73
2,4899, Control_c, 0, 64, 74
2,4912, Note_on_c, 0, 58, 0
2,4951, Control_c, 0, 64, 72
2,4959, Note_on_c, 0, 77, 75
2,4966, Control_c, 0, 64, 67
2,4982, Control_c, 0, 64, 59
2,4997, Control_c, 0, 64, 30
2,5012, Control_c, 0, 64, 0
2,5019, Note_on_c, 0, 75, 0
2,5346, Note_on_c, 0, 76, 63
2,5349, Note_on_c, 0, 73, 73
2,5356, Note_on_c, 0, 77, 0
2,5538, Note_on_c, 0, 77, 83
2,5581, Note_on_c, 0, 76, 0
2,5757, Note_on_c, 0, 79, 79
2,5762, Note_on_c, 0, 72, 65
2,5787, Note_on_c, 0, 77, 0
2,5811, Note_on_c, 0, 73, 0
2,6155, Note_on_c, 0, 70, 67
2,6208, Note_on_c, 0, 72, 0
2,6568, Note_on_c, 0, 68, 64
2,6599, Note_on_c, 0, 70, 0
2,6967, Note_on_c, 0, 80, 69
2,6971, Note_on_c, 0, 67, 50
2,6992, Note_on_c, 0, 79, 0
2,7022, Note_on_c, 0, 68, 0
2,7153, Note_on_c, 0, 79, 82
2,7187, Note_on_c, 0, 80, 0
2,7364, Note_on_c, 0, 68, 61
2,7370, Note_on_c, 0, 77, 76
2,7385, Note_on_c, 0, 79, 0
2,7427, Note_on_c, 0, 67, 0
2,7781, Note_on_c, 0, 70, 71
2,7850, Note_on_c, 0, 68, 0
2,8216, Note_on_c, 0, 72, 64
2,8284, Note_on_c, 0, 70, 0
2,8652, Note_on_c, 0, 75, 58
2,8661, Note_on_c, 0, 77, 0
2,8834, Note_on_c, 0, 73, 75
2,8850, Note_on_c, 0, 75, 0
2,9031, Note_on_c, 0, 75, 70
2,9048, Note_on_c, 0, 73, 0
2,9169, Control_c, 0, 64, 33
2,9184, Control_c, 0, 64, 48
2,9199, Control_c, 0, 64, 54
2,9214, Control_c, 0, 64, 58
2,9230, Control_c, 0, 64, 61
2,9245, Control_c, 0, 64, 63
2,9260, Control_c, 0, 64, 65
2,9276, Control_c, 0, 64, 67
2,9291, Control_c, 0, 64, 69
2,9307, Control_c, 0, 64, 72
2,9321, Control_c, 0, 64, 75
2,9336, Control_c, 0, 64, 78
2,9352, Control_c, 0, 64, 80
2,9367, Control_c, 0, 64, 80
2,9428, Control_c, 0, 64, 78
2,9434, Note_on_c, 0, 77, 78
2,9441, Note_on_c, 0, 70, 57
2,9443, Control_c, 0, 64, 75
2,9457, Control_c, 0, 64, 70
2,9473, Control_c, 0, 64, 64
2,9483, Note_on_c, 0, 75, 0
2,9488, Control_c, 0, 64, 54
2,9511, Control_c, 0, 64, 30
2,9526, Control_c, 0, 64, 0
2,9559, Note_on_c, 0, 72, 0
2,9615, Note_on_c, 0, 69, 73
2,9660, Note_on_c, 0, 70, 0
2,9679, Control_c, 0, 64, 30
2,9694, Control_c, 0, 64, 41
2,9710, Control_c, 0, 64, 44
2,9725, Control_c, 0, 64, 45
2,9740, Control_c, 0, 64, 45
2,9756, Control_c, 0, 64, 45
2,9770, Control_c, 0, 64, 36
2,9786, Control_c, 0, 64, 0
2,9820, Note_on_c, 0, 70, 64
2,9829, Note_on_c, 0, 78, 76
2,9855, Note_on_c, 0, 69, 0
2,9864, Note_on_c, 0, 77, 0
2,9982, Control_c, 0, 64, 25
2,9998, Control_c, 0, 64, 41
2,10013, Control_c, 0, 64, 50
2,10028, Control_c, 0, 64, 55
2,10043, Control_c, 0, 64, 59
2,10058, Control_c, 0, 64, 61
2,10074, Control_c, 0, 64, 63
2,10089, Control_c, 0, 64, 64
2,10105, Control_c, 0, 64, 65
2,10119, Control_c, 0, 64, 66
2,10134, Control_c, 0, 64, 68
2,10150, Control_c, 0, 64, 69
2,10165, Control_c, 0, 64, 70
2,10180, Control_c, 0, 64, 71
2,10241, Control_c, 0, 64, 70
2,10244, Note_on_c, 0, 72, 71
2,10256, Control_c, 0, 64, 66
2,10279, Control_c, 0, 64, 56
2,10294, Control_c, 0, 64, 0
2,10308, Note_on_c, 0, 70, 0
2,10401, Control_c, 0, 64, 20
2,10416, Control_c, 0, 64, 44
2,10431, Control_c, 0, 64, 51
2,10446, Control_c, 0, 64, 55
2,10461, Control_c, 0, 64, 59
2,10477, Control_c, 0, 64, 61
2,10492, Control_c, 0, 64, 63
2,10508, Control_c, 0, 64, 64
2,10523, Control_c, 0, 64, 65
2,10537, Control_c, 0, 64, 67
2,10553, Control_c, 0, 64, 69
2,10568, Control_c, 0, 64, 71
2,10584, Control_c, 0, 64, 73
2,10599, Control_c, 0, 64, 73
2,10613, Control_c, 0, 64, 74
2,10676, Note_on_c, 0, 73, 61
2,10689, Control_c, 0, 64, 72
2,10705, Control_c, 0, 64, 68
2,10720, Control_c, 0, 64, 62
2,10726, Note_on_c, 0, 72, 0
2,10734, Control_c, 0, 64, 45
2,10750, Control_c, 0, 64, 0
2,10887, Control_c, 0, 64, 24
2,10902, Control_c, 0, 64, 45
2,10917, Control_c, 0, 64, 52
2,10932, Control_c, 0, 64, 55
2,10948, Control_c, 0, 64, 58
2,10963, Control_c, 0, 64, 60
2,10978, Control_c, 0, 64, 62
2,10993, Control_c, 0, 64, 63
2,11008, Control_c, 0, 64, 64
2,11110, Note_on_c, 0, 77, 65
2,11114, Note_on_c, 0, 78, 0
2,11122, Control_c, 0, 64, 63
2,11137, Control_c, 0, 64, 62
2,11153, Control_c, 0, 64, 58
2,11168, Control_c, 0, 64, 49
2,11184, Control_c, 0, 64, 28
2,11199, Control_c, 0, 64, 0
2,11296, Note_on_c, 0, 75, 78
2,11315, Note_on_c, 0, 77, 0
2,11505, Note_on_c, 0, 75, 0
2,11507, Note_on_c, 0, 77, 71
2,11730, Control_c, 0, 64, 22
2,11746, Control_c, 0, 64, 37
2,11761, Control_c, 0, 64, 43
2,11776, Control_c, 0, 64, 45
2,11844, Control_c, 0, 64, 44
2,11859, Control_c, 0, 64, 41
2,11875, Control_c, 0, 64, 38
2,11890, Control_c, 0, 64, 35
2,11899, Note_on_c, 0, 72, 59
2,11904, Note_on_c, 0, 79, 74
2,11906, Control_c, 0, 64, 32
2,11920, Control_c, 0, 64, 28
2,11929, Note_on_c, 0, 73, 0
2,11932, Note_on_c, 0, 77, 0
2,11935, Control_c, 0, 64, 23
2,11951, Control_c, 0, 64, 17
2,11966, Control_c, 0, 64, 8
2,11981, Control_c, 0, 64, 0
2,12082, Note_on_c, 0, 70, 79
2,12120, Note_on_c, 0, 72, 0
2,12298, Note_on_c, 0, 72, 75
2,12299, Note_on_c, 0, 80, 79
2,12329, Note_on_c, 0, 70, 0
2,12345, Note_on_c, 0, 79, 0
2,12724, Note_on_c, 0, 74, 79
2,12773, Note_on_c, 0, 72, 0
2,13172, Note_on_c, 0, 75, 73
2,13245, Note_on_c, 0, 74, 0
2,13592, Note_on_c, 0, 79, 71
2,13623, Note_on_c, 0, 80, 0
2,13779, Note_on_c, 0, 77, 79
2,13792, Note_on_c, 0, 79, 0
2,13973, Note_on_c, 0, 77, 0
2,13990, Note_on_c, 0, 79, 68
2,14228, Control_c, 0, 64, 46
2,14243, Control_c, 0, 64, 56
2,14258, Control_c, 0, 64, 60
2,14273, Control_c, 0, 64, 63
2,14288, Control_c, 0, 64, 65
2,14304, Control_c, 0, 64, 67
2,14319, Control_c, 0, 64, 71
2,14333, Control_c, 0, 64, 77
2,14349, Control_c, 0, 64, 83
2,14364, Control_c, 0, 64, 88
2,14365, Note_on_c, 0, 75, 0
2,14379, Control_c, 0, 64, 92
2,14393, Note_on_c, 0, 81, 75
2,14394, Control_c, 0, 64, 95
2,14409, Control_c, 0, 64, 98
2,14425, Control_c, 0, 64, 102
2,14429, Note_on_c, 0, 73, 55
2,14440, Control_c, 0, 64, 104
2,14443, Note_on_c, 0, 79, 0
2,14454, Control_c, 0, 64, 104
2,14582, Note_on_c, 0, 72, 83
2,14626, Note_on_c, 0, 73, 0
2,14745, Control_c, 0, 64, 103
2,14759, Control_c, 0, 64, 100
2,14774, Control_c, 0, 64, 97
2,14790, Control_c, 0, 64, 92
2,14793, Note_on_c, 0, 58, 77
2,14799, Note_on_c, 0, 72, 0
2,14804, Note_on_c, 0, 82, 79
2,14805, Control_c, 0, 64, 87
2,14815, Note_on_c, 0, 73, 65
2,14821, Control_c, 0, 64, 80
2,14836, Control_c, 0, 64, 72
2,14838, Note_on_c, 0, 81, 0
2,14851, Control_c, 0, 64, 65
2,14867, Control_c, 0, 64, 51
2,14888, Control_c, 0, 64, 0
2,15215, Note_on_c, 0, 75, 76
2,15228, Note_on_c, 0, 73, 0
2,15625, Note_on_c, 0, 53, 62
2,15625, Note_on_c, 0, 77, 65
2,15627, Note_on_c, 0, 75, 0
2,15689, Note_on_c, 0, 58, 0
2,16023, Note_on_c, 0, 81, 75
2,16065, Note_on_c, 0, 82, 0
2,16205, Note_on_c, 0, 79, 85
2,16238, Note_on_c, 0, 81, 0
2,16386, Note_on_c, 0, 53, 0
2,16401, Note_on_c, 0, 81, 82
2,16410, Note_on_c, 0, 79, 0
2,16795, Note_on_c, 0, 82, 74
2,16813, Note_on_c, 0, 66, 76
2,16821, Note_on_c, 0, 75, 66
2,16825, Note_on_c, 0, 77, 0
2,16871, Note_on_c, 0, 81, 0
2,17001, Note_on_c, 0, 73, 80
2,17011, Note_on_c, 0, 75, 0
2,17207, Note_on_c, 0, 73, 0
2,17226, Note_on_c, 0, 84, 76
2,17230, Note_on_c, 0, 65, 77
2,17230, Note_on_c, 0, 75, 72
2,17260, Note_on_c, 0, 66, 0
2,17262, Note_on_c, 0, 82, 0
2,17630, Note_on_c, 0, 63, 77
2,17661, Note_on_c, 0, 65, 0
2,17694, Control_c, 0, 64, 37
2,17710, Control_c, 0, 64, 54
2,17725, Control_c, 0, 64, 63
2,17741, Control_c, 0, 64, 67
2,17756, Control_c, 0, 64, 76
2,17771, Control_c, 0, 64, 99
2,17787, Control_c, 0, 64, 127
2,17841, Note_on_c, 0, 63, 0
2,18020, Note_on_c, 0, 84, 0
2,18055, Note_on_c, 0, 53, 72
2,18068, Control_c, 0, 64, 87
2,18077, Note_on_c, 0, 61, 52
2,18083, Control_c, 0, 64, 65
2,18099, Control_c, 0, 64, 0
2,18174, Control_c, 0, 64, 29
2,18190, Control_c, 0, 64, 52
2,18205, Control_c, 0, 64, 60
2,18221, Control_c, 0, 64, 63
2,18236, Control_c, 0, 64, 66
2,18251, Control_c, 0, 64, 69
2,18266, Control_c, 0, 64, 77
2,18281, Control_c, 0, 64, 87
2,18296, Control_c, 0, 64, 100
2,18312, Control_c, 0, 64, 124
2,18315, Note_on_c, 0, 61, 0
2,18326, Control_c, 0, 64, 127
2,18401, Note_on_c, 0, 75, 0
2,18462, Note_on_c, 0, 82, 76
2,18468, Note_on_c, 0, 60, 60
2,18478, Control_c, 0, 64, 80
2,18486, Note_on_c, 0, 77, 55
2,18493, Control_c, 0, 64, 59
2,18509, Control_c, 0, 64, 0
2,18586, Control_c, 0, 64, 52
2,18590, Note_on_c, 0, 77, 0
2,18601, Control_c, 0, 64, 62
2,18616, Control_c, 0, 64, 66
2,18624, Note_on_c, 0, 60, 0
2,18631, Control_c, 0, 64, 70
2,18644, Note_on_c, 0, 81, 78
2,18646, Control_c, 0, 64, 79
2,18649, Note_on_c, 0, 75, 75
2,18662, Control_c, 0, 64, 94
2,18668, Note_on_c, 0, 82, 0
2,18677, Control_c, 0, 64, 127
2,18838, Note_on_c, 0, 75, 0
2,18869, Note_on_c, 0, 82, 76
2,18876, Note_on_c, 0, 46, 68
2,18882, Control_c, 0, 64, 79
2,18887, Note_on_c, 0, 73, 60
2,18898, Control_c, 0, 64, 49
2,18905, Note_on_c, 0, 81, 0
2,18912, Control_c, 0, 64, 0
2,18929, Note_on_c, 0, 58, 22
2,18966, Note_on_c, 0, 53, 0
2,19003, Control_c, 0, 64, 46
2,19019, Control_c, 0, 64, 60
2,19034, Control_c, 0, 64, 64
2,19049, Control_c, 0, 64, 68
2,19062, Note_on_c, 0, 58, 0
2,19065, Control_c, 0, 64, 74
2,19079, Control_c, 0, 64, 83
2,19094, Control_c, 0, 64, 97
2,19108, Note_on_c, 0, 46, 0
2,19110, Control_c, 0, 64, 127
2,19252, Note_on_c, 0, 80, 82
2,19269, Note_on_c, 0, 60, 54
2,19272, Note_on_c, 0, 72, 59
2,19284, Note_on_c, 0, 73, 0
2,19301, Note_on_c, 0, 82, 0
2,19324, Note_on_c, 0, 72, 0
2,19413, Note_on_c, 0, 80, 0
2,19432, Note_on_c, 0, 61, 80
2,19465, Note_on_c, 0, 60, 0
2,19666, Note_on_c, 0, 78, 82
2,19674, Note_on_c, 0, 63, 62
2,19679, Control_c, 0, 64, 97
2,19687, Note_on_c, 0, 70, 57
2,19694, Control_c, 0, 64, 79
2,19710, Control_c, 0, 64, 66
2,19719, Note_on_c, 0, 61, 0
2,19724, Control_c, 0, 64, 41
2,19740, Control_c, 0, 64, 0
2,20062, Note_on_c, 0, 77, 74
2,20063, Note_on_c, 0, 78, 0
2,20064, Note_on_c, 0, 61, 74
2,20079, Note_on_c, 0, 65, 52
2,20104, Note_on_c, 0, 63, 0
2,20165, Control_c, 0, 64, 29
2,20181, Control_c, 0, 64, 52
2,20196, Control_c, 0, 64, 60
2,20211, Control_c, 0, 64, 63
2,20227, Control_c, 0, 64, 66
2,20242, Control_c, 0, 64, 71
2,20265, Control_c, 0, 64, 81
2,20280, Control_c, 0, 64, 99
2,20295, Control_c, 0, 64, 127
2,20330, Note_on_c, 0, 65, 0
2,20398, Note_on_c, 0, 61, 0
2,20473, Note_on_c, 0, 75, 68
2,20479, Note_on_c, 0, 77, 0
2,20481, Note_on_c, 0, 66, 56
2,20495, Note_on_c, 0, 60, 55
2,20508, Control_c, 0, 64, 96
2,20522, Control_c, 0, 64, 69
2,20538, Control_c, 0, 64, 38
2,20553, Control_c, 0, 64, 0
2,20614, Control_c, 0, 64, 42
2,20630, Control_c, 0, 64, 55
2,20644, Control_c, 0, 64, 61
2,20660, Control_c, 0, 64, 64
2,20675, Control_c, 0, 64, 66
2,20690, Control_c, 0, 64, 70
2,20706, Control_c, 0, 64, 76
2,20720, Control_c, 0, 64, 83
2,20735, Control_c, 0, 64, 90
2,20751, Control_c, 0, 64, 94
2,20766, Control_c, 0, 64, 96
2,20782, Control_c, 0, 64, 96
2,20842, Control_c, 0, 64, 96
2,20856, Control_c, 0, 64, 87
2,20856, Note_on_c, 0, 58, 54
2,20871, Note_on_c, 0, 69, 78
2,20872, Control_c, 0, 64, 71
2,20875, Note_on_c, 0, 70, 0
2,20887, Control_c, 0, 64, 55
2,20891, Note_on_c, 0, 60, 0
2,20903, Control_c, 0, 64, 0
2,21008, Control_c, 0, 64, 37
2,21033, Control_c, 0, 64, 52
2,21048, Control_c, 0, 64, 58
2,21060, Note_on_c, 0, 70, 84
2,21062, Note_on_c, 0, 69, 0
2,21064, Control_c, 0, 64, 62
2,21079, Control_c, 0, 64, 64
2,21093, Control_c, 0, 64, 67
2,21107, Note_on_c, 0, 66, 0
2,21109, Control_c, 0, 64, 73
2,21124, Control_c, 0, 64, 84
2,21140, Control_c, 0, 64, 96
2,21155, Control_c, 0, 64, 107
2,21169, Control_c, 0, 64, 112
2,21185, Control_c, 0, 64, 113
2,21238, Note_on_c, 0, 70, 0
2,21261, Control_c, 0, 64, 98
2,21262, Note_on_c, 0, 58, 0
2,21273, Note_on_c, 0, 72, 70
2,21276, Control_c, 0, 64, 77
2,21276, Note_on_c, 0, 65, 53
2,21287, Note_on_c, 0, 57, 46
2,21290, Control_c, 0, 64, 61
2,21306, Control_c, 0, 64, 0
2,21397, Control_c, 0, 64, 10
2,21412, Control_c, 0, 64, 54
2,21428, Control_c, 0, 64, 63
2,21443, Control_c, 0, 64, 67
2,21459, Control_c, 0, 64, 74
2,21474, Control_c, 0, 64, 87
2,21482, Note_on_c, 0, 57, 0
2,21488, Control_c, 0, 64, 121
2,21504, Control_c, 0, 64, 127
2,21541, Note_on_c, 0, 75, 0
2,21566, Note_on_c, 0, 65, 0
2,21588, Note_on_c, 0, 72, 0
2,21678, Note_on_c, 0, 77, 79
2,21686, Note_on_c, 0, 63, 51
2,21693, Note_on_c, 0, 69, 56
2,21698, Note_on_c, 0, 53, 41
2,21716, Control_c, 0, 64, 89
2,21731, Control_c, 0, 64, 69
2,21747, Control_c, 0, 64, 44
2,21762, Control_c, 0, 64, 0
2,21871, Note_on_c, 0, 78, 84
2,21899, Note_on_c, 0, 77, 0
2,22021, Note_on_c, 0, 69, 0
2,22069, Note_on_c, 0, 77, 81
2,22079, Note_on_c, 0, 55, 44
2,22080, Note_on_c, 0, 63, 0
2,22085, Note_on_c, 0, 70, 58
2,22088, Note_on_c, 0, 61, 63
2,22092, Note_on_c, 0, 53, 0
2,22196, Note_on_c, 0, 78, 0
2,22467, Note_on_c, 0, 75, 79
2,22475, Note_on_c, 0, 60, 71
2,22476, Note_on_c, 0, 57, 57
2,22478, Note_on_c, 0, 72, 73
2,22485, Note_on_c, 0, 55, 0
2,22488, Note_on_c, 0, 70, 0
2,22493, Note_on_c, 0, 77, 0
2,22510, Note_on_c, 0, 61, 0
2,22613, Control_c, 0, 64, 49
2,22629, Control_c, 0, 64, 62
2,22644, Control_c, 0, 64, 68
2,22658, Note_on_c, 0, 60, 0
2,22660, Control_c, 0, 64, 79
2,22675, Control_c, 0, 64, 127
2,22680, Note_on_c, 0, 57, 0
2,22710, Note_on_c, 0, 75, 0
2,22961, Note_on_c, 0, 46, 78
2,22962, Note_on_c, 0, 73, 83
2,22969, Note_on_c, 0, 58, 66
2,22974, Note_on_c, 0, 61, 60
2,23009, Control_c, 0, 64, 96
2,23025, Control_c, 0, 64, 64
2,23040, Control_c, 0, 64, 0
2,23161, Control_c, 0, 64, 50
2,23176, Control_c, 0, 64, 59
2,23180, Note_on_c, 0, 72, 0
2,23192, Control_c, 0, 64, 62
2,23207, Control_c, 0, 64, 65
2,23222, Note_on_c, 0, 61, 0
2,23223, Control_c, 0, 64, 70
2,23238, Control_c, 0, 64, 80
2,23252, Control_c, 0, 64, 99
2,23268, Control_c, 0, 64, 127
2,23397, Note_on_c, 0, 58, 0
2,23439, Note_on_c, 0, 70, 80
2,23448, Note_on_c, 0, 48, 57
2,23452, Note_on_c, 0, 63, 67
2,23458, Control_c, 0, 64, 91
2,23473, Control_c, 0, 64, 64
2,23488, Control_c, 0, 64, 0
2,23550, Control_c, 0, 64, 34
2,23564, Control_c, 0, 64, 57
2,23566, Note_on_c, 0, 63, 0
2,23580, Control_c, 0, 64, 64
2,23595, Control_c, 0, 64, 69
2,23610, Control_c, 0, 64, 78
2,23612, Note_on_c, 0, 69, 86
2,23626, Control_c, 0, 64, 94
2,23641, Control_c, 0, 64, 127
2,23643, Note_on_c, 0, 70, 0
2,23783, Note_on_c, 0, 48, 0
2,23831, Note_on_c, 0, 69, 0
2,23831, Note_on_c, 0, 70, 76
2,23834, Note_on_c, 0, 41, 67
2,23837, Note_on_c, 0, 49, 54
2,23842, Note_on_c, 0, 46, 0
2,23855, Note_on_c, 0, 65, 51
2,23869, Control_c, 0, 64, 99
2,23884, Control_c, 0, 64, 73
2,23899, Control_c, 0, 64, 55
2,23914, Control_c, 0, 64, 0
2,24243, Note_on_c, 0, 51, 57
2,24248, Note_on_c, 0, 66, 58
2,24255, Control_c, 0, 64, 23
2,24262, Note_on_c, 0, 49, 0
2,24262, Note_on_c, 0, 65, 0
2,24271, Control_c, 0, 64, 52
2,24286, Control_c, 0, 64, 59
2,24301, Note_on_c, 0, 41, 0
2,24302, Control_c, 0, 64, 62
2,24318, Control_c, 0, 64, 65
2,24332, Control_c, 0, 64, 70
2,24348, Control_c, 0, 64, 79
2,24363, Control_c, 0, 64, 100
2,24379, Control_c, 0, 64, 127
2,24465, Note_on_c, 0, 73, 0
2,24654, Note_on_c, 0, 72, 76
2,24669, Note_on_c, 0, 53, 52
2,24678, Note_on_c, 0, 60, 55
2,24686, Note_on_c, 0, 66, 0
2,24715, Note_on_c, 0, 51, 0
2,24728, Control_c, 0, 64, 103
2,24743, Control_c, 0, 64, 78
2,24758, Control_c, 0, 64, 64
2,24773, Control_c, 0, 64, 12
2,24789, Control_c, 0, 64, 0
2,25081, Note_on_c, 0, 54, 75
2,25118, Note_on_c, 0, 53, 0
2,25486, Note_on_c, 0, 60, 0
2,25504, Note_on_c, 0, 53, 68
2,25510, Note_on_c, 0, 68, 56
2,25512, Note_on_c, 0, 65, 52
2,25518, Note_on_c, 0, 70, 0
2,25521, Note_on_c, 0, 56, 50
2,25530, Note_on_c, 0, 54, 0
2,25914, Note_on_c, 0, 53, 0
2,25919, Note_on_c, 0, 51, 62
2,25978, Control_c, 0, 64, 36
2,25993, Control_c, 0, 64, 55
2,26008, Control_c, 0, 64, 61
2,26023, Control_c, 0, 64, 65
2,26038, Control_c, 0, 64, 69
2,26054, Control_c, 0, 64, 78
2,26069, Control_c, 0, 64, 96
2,26080, Note_on_c, 0, 51, 0
2,26084, Control_c, 0, 64, 127
2,26096, Note_on_c, 0, 56, 0
2,26311, Note_on_c, 0, 70, 65
2,26316, Note_on_c, 0, 50, 52
2,26324, Note_on_c, 0, 72, 0
2,26326, Note_on_c, 0, 58, 44
2,26343, Control_c, 0, 64, 106
2,26357, Control_c, 0, 64, 73
2,26373, Control_c, 0, 64, 53
2,26388, Control_c, 0, 64, 0
2,26486, Control_c, 0, 64, 48
2,26502, Control_c, 0, 64, 59
2,26517, Control_c, 0, 64, 63
2,26533, Control_c, 0, 64, 65
2,26548, Control_c, 0, 64, 67
2,26562, Control_c, 0, 64, 72
2,26578, Control_c, 0, 64, 80
2,26593, Control_c, 0, 64, 91
2,26608, Control_c, 0, 64, 112
2,26624, Control_c, 0, 64, 127
2,26709, Note_on_c, 0, 46, 46
2,26714, Control_c, 0, 64, 96
2,26714, Note_on_c, 0, 50, 0
2,26715, Note_on_c, 0, 62, 59
2,26717, Note_on_c, 0, 65, 0
2,26729, Control_c, 0, 64, 72
2,26745, Control_c, 0, 64, 51
2,26760, Control_c, 0, 64, 0
2,26806, Control_c, 0, 64, 36
2,26822, Control_c, 0, 64, 57
2,26837, Control_c, 0, 64, 62
2,26853, Control_c, 0, 64, 66
2,26867, Control_c, 0, 64, 73
2,26876, Note_on_c, 0, 46, 0
2,26882, Control_c, 0, 64, 85
2,26898, Control_c, 0, 64, 115
2,26913, Control_c, 0, 64, 127
2,27114, Note_on_c, 0, 48, 44
2,27116, Note_on_c, 0, 63, 74
2,27118, Note_on_c, 0, 62, 0
2,27156, Control_c, 0, 64, 87
2,27172, Control_c, 0, 64, 68
2,27194, Control_c, 0, 64, 47
2,27208, Control_c, 0, 64, 0
2,27496, Note_on_c, 0, 50, 44
2,27505, Note_on_c, 0, 48, 0
2,27508, Note_on_c, 0, 65, 75
2,27523, Note_on_c, 0, 63, 0
2,27892, Note_on_c, 0, 66, 65
2,27906, Note_on_c, 0, 51, 41
2,27922, Note_on_c, 0, 50, 0
2,27931, Note_on_c, 0, 68, 0
2,28247, Note_on_c, 0, 65, 0
2,28289, Note_on_c, 0, 51, 0
2,28291, Note_on_c, 0, 53, 39
2,28303, Note_on_c, 0, 63, 54
2,28429, Note_on_c, 0, 63, 0
2,28479, Note_on_c, 0, 62, 55
2,28627, Note_on_c, 0, 62, 0
2,28670, Note_on_c, 0, 51, 41
2,28677, Note_on_c, 0, 63, 56
2,28700, Note_on_c, 0, 53, 0
2,28744, Control_c, 0, 64, 17
2,28759, Control_c, 0, 64, 51
2,28773, Control_c, 0, 64, 60
2,28784, Control_c, 0, 64, 64
2,28795, Note_on_c, 0, 58, 0
2,28800, Control_c, 0, 64, 67
2,28815, Control_c, 0, 64, 72
2,28830, Control_c, 0, 64, 82
2,28846, Control_c, 0, 64, 93
2,28861, Control_c, 0, 64, 107
2,28877, Control_c, 0, 64, 127
2,28966, Note_on_c, 0, 51, 0
2,29079, Note_on_c, 0, 49, 40
2,29080, Note_on_c, 0, 75, 70
2,29092, Note_on_c, 0, 70, 0
2,29119, Control_c, 0, 64, 100
2,29134, Control_c, 0, 64, 72
2,29149, Control_c, 0, 64, 51
2,29165, Control_c, 0, 64, 15
2,29179, Control_c, 0, 64, 37
2,29195, Control_c, 0, 64, 53
2,29210, Control_c, 0, 64, 59
2,29226, Control_c, 0, 64, 62
2,29241, Control_c, 0, 64, 65
2,29256, Control_c, 0, 64, 71
2,29272, Control_c, 0, 64, 79
2,29287, Control_c, 0, 64, 90
2,29302, Control_c, 0, 64, 102
2,29318, Control_c, 0, 64, 117
2,29332, Control_c, 0, 64, 127
2,29388, Note_on_c, 0, 49, 0
2,29492, Note_on_c, 0, 75, 0
2,29500, Note_on_c, 0, 68, 65
2,29507, Control_c, 0, 64, 102
2,29523, Control_c, 0, 64, 71
2,29523, Note_on_c, 0, 60, 48
2,29525, Note_on_c, 0, 48, 39
2,29537, Control_c, 0, 64, 47
2,29553, Control_c, 0, 64, 0
2,29598, Control_c, 0, 64, 41
2,29612, Control_c, 0, 64, 61
2,29627, Control_c, 0, 64, 67
2,29640, Note_on_c, 0, 60, 0
2,29643, Control_c, 0, 64, 75
2,29657, Control_c, 0, 64, 94
2,29657, Note_on_c, 0, 48, 0
2,29673, Control_c, 0, 64, 127
2,29926, Note_on_c, 0, 48, 53
2,29934, Note_on_c, 0, 44, 48
2,29962, Control_c, 0, 64, 102
2,29977, Control_c, 0, 64, 78
2,29993, Control_c, 0, 64, 62
2,30008, Control_c, 0, 64, 0
2,30298, Note_on_c, 0, 46, 50
2,30310, Note_on_c, 0, 48, 0
2,30310, Note_on_c, 0, 49, 62
2,30324, Note_on_c, 0, 44, 0
2,30687, Note_on_c, 0, 49, 0
2,30692, Note_on_c, 0, 46, 0
2,30700, Note_on_c, 0, 48, 51
2,30702, Note_on_c, 0, 51, 47
2,30736, Note_on_c, 0, 66, 0
2,30775, Control_c, 0, 64, 50
2,30790, Control_c, 0, 64, 61
2,30806, Control_c, 0, 64, 65
2,30821, Control_c, 0, 64, 70
2,30827, Note_on_c, 0, 48, 0
2,30837, Control_c, 0, 64, 81
2,30852, Control_c, 0, 64, 105
2,30867, Control_c, 0, 64, 127
2,30880, Note_on_c, 0, 63, 0
2,31083, Note_on_c, 0, 51, 0
2,31095, Note_on_c, 0, 65, 48
2,31108, Note_on_c, 0, 49, 38
2,31117, Note_on_c, 0, 61, 44
2,31121, Note_on_c, 0, 53, 43
2,31164, Control_c, 0, 64, 85
2,31179, Control_c, 0, 64, 67
2,31195, Control_c, 0, 64, 31
2,31210, Control_c, 0, 64, 0
2,31392, Control_c, 0, 64, 26
2,31407, Control_c, 0, 64, 47
2,31421, Control_c, 0, 64, 55
2,31437, Control_c, 0, 64, 58
2,31452, Control_c, 0, 64, 61
2,31467, Control_c, 0, 64, 63
2,31483, Control_c, 0, 64, 65
2,31497, Control_c, 0, 64, 67
2,31509, Note_on_c, 0, 53, 0
2,31513, Control_c, 0, 64, 71
2,31528, Control_c, 0, 64, 77
2,31528, Note_on_c, 0, 51, 43
2,31543, Control_c, 0, 64, 84
2,31553, Note_on_c, 0, 65, 0
2,31559, Control_c, 0, 64, 92
2,31560, Note_on_c, 0, 61, 0
2,31573, Control_c, 0, 64, 105
2,31588, Control_c, 0, 64, 127
2,31705, Note_on_c, 0, 68, 0
2,31782, Note_on_c, 0, 49, 0
2,31787, Note_on_c, 0, 51, 0
2,31904, Note_on_c, 0, 73, 82
2,31941, Note_on_c, 0, 65, 53
2,31943, Note_on_c, 0, 70, 56
2,31949, Note_on_c, 0, 53, 42
2,31961, Note_on_c, 0, 46, 38
2,31978, Control_c, 0, 64, 100
2,31993, Control_c, 0, 64, 73
2,32008, Control_c, 0, 64, 42
2,32023, Control_c, 0, 64, 0
2,32130, Control_c, 0, 64, 19
2,32145, Control_c, 0, 64, 50
2,32161, Control_c, 0, 64, 58
2,32176, Control_c, 0, 64, 61
2,32190, Control_c, 0, 64, 63
2,32206, Control_c, 0, 64, 65
2,32221, Control_c, 0, 64, 68
2,32237, Control_c, 0, 64, 73
2,32252, Control_c, 0, 64, 80
2,32266, Control_c, 0, 64, 88
2,32282, Control_c, 0, 64, 98
2,32297, Control_c, 0, 64, 112
2,32313, Control_c, 0, 64, 127
2,32331, Note_on_c, 0, 54, 61
2,32380, Note_on_c, 0, 46, 0
2,32415, Note_on_c, 0, 54, 0
2,32419, Note_on_c, 0, 53, 0
2,32742, Note_on_c, 0, 72, 74
2,32749, Note_on_c, 0, 56, 56
2,32760, Note_on_c, 0, 68, 53
2,32771, Note_on_c, 0, 53, 46
2,32781, Note_on_c, 0, 70, 0
2,32798, Note_on_c, 0, 73, 0
2,32882, Control_c, 0, 64, 97
2,32897, Control_c, 0, 64, 78
2,32913, Control_c, 0, 64, 65
2,32928, Control_c, 0, 64, 38
2,32943, Control_c, 0, 64, 0
2,33126, Note_on_c, 0, 58, 74
2,33183, Note_on_c, 0, 56, 0
2,33305, Note_on_c, 0, 60, 82
2,33332, Note_on_c, 0, 58, 0
2,33554, Note_on_c, 0, 58, 55
2,33554, Note_on_c, 0, 77, 92
2,33564, Note_on_c, 0, 49, 52
2,33569, Note_on_c, 0, 60, 0
2,33574, Note_on_c, 0, 73, 73
2,33579, Note_on_c, 0, 72, 0
2,33600, Note_on_c, 0, 53, 0
2,33951, Note_on_c, 0, 68, 0
2,33971, Note_on_c, 0, 56, 54
2,33983, Note_on_c, 0, 58, 0
2,34032, Control_c, 0, 64, 29
2,34047, Control_c, 0, 64, 50
2,34062, Control_c, 0, 64, 57
2,34085, Control_c, 0, 64, 61
2,34100, Control_c, 0, 64, 63
2,34116, Control_c, 0, 64, 66
2,34131, Control_c, 0, 64, 69
2,34147, Control_c, 0, 64, 73
2,34162, Control_c, 0, 64, 80
2,34177, Control_c, 0, 64, 89
2,34193, Control_c, 0, 64, 100
2,34208, Control_c, 0, 64, 127
2,34328, Note_on_c, 0, 49, 0
2,34360, Note_on_c, 0, 56, 0
2,34366, Note_on_c, 0, 70, 51
2,34372, Note_on_c, 0, 51, 36
2,34373, Note_on_c, 0, 54, 49
2,34376, Note_on_c, 0, 65, 0
2,34390, Control_c, 0, 64, 79
2,34405, Control_c, 0, 64, 60
2,34420, Control_c, 0, 64, 0
2,34466, Control_c, 0, 64, 19
2,34481, Control_c, 0, 64, 52
2,34496, Control_c, 0, 64, 61
2,34512, Control_c, 0, 64, 65
2,34526, Control_c, 0, 64, 69
2,34541, Control_c, 0, 64, 79
2,34557, Control_c, 0, 64, 96
2,34572, Control_c, 0, 64, 127
2,34761, Note_on_c, 0, 72, 79
2,34765, Note_on_c, 0, 54, 0
2,34765, Note_on_c, 0, 56, 58
2,34774, Note_on_c, 0, 68, 62
2,34777, Note_on_c, 0, 77, 0
2,34786, Control_c, 0, 64, 83
2,34790, Note_on_c, 0, 53, 51
2,34800, Control_c, 0, 64, 61
2,34800, Note_on_c, 0, 70, 0
2,34810, Note_on_c, 0, 51, 0
2,34815, Control_c, 0, 64, 0
2,34821, Note_on_c, 0, 73, 0
2,34884, Control_c, 0, 64, 44
2,34899, Control_c, 0, 64, 60
2,34915, Control_c, 0, 64, 66
2,34920, Note_on_c, 0, 53, 0
2,34929, Control_c, 0, 64, 75
2,34941, Note_on_c, 0, 68, 0
2,34943, Note_on_c, 0, 56, 0
2,34945, Control_c, 0, 64, 100
2,34961, Control_c, 0, 64, 127
2,35140, Note_on_c, 0, 58, 54
2,35152, Note_on_c, 0, 54, 47
2,35207, Note_on_c, 0, 75, 86
2,35218, Note_on_c, 0, 72, 0
2,35234, Note_on_c, 0, 70, 57
2,35235, Control_c, 0, 64, 91
2,35247, Note_on_c, 0, 66, 48
2,35250, Control_c, 0, 64, 67
2,35266, Control_c, 0, 64, 0
2,35387, Control_c, 0, 64, 54
2,35402, Control_c, 0, 64, 62
2,35417, Control_c, 0, 64, 65
2,35433, Control_c, 0, 64, 69
2,35447, Control_c, 0, 64, 77
2,35462, Control_c, 0, 64, 92
2,35478, Control_c, 0, 64, 127
2,35522, Note_on_c, 0, 66, 0
2,35580, Note_on_c, 0, 73, 90
2,35603, Note_on_c, 0, 65, 60
2,35608, Note_on_c, 0, 60, 58
2,35611, Note_on_c, 0, 75, 0
2,35638, Control_c, 0, 64, 98
2,35652, Control_c, 0, 64, 73
2,35668, Control_c, 0, 64, 57
2,35683, Control_c, 0, 64, 0
2,35725, Note_on_c, 0, 70, 0
2,35738, Note_on_c, 0, 65, 0
2,35752, Note_on_c, 0, 58, 0
2,35773, Note_on_c, 0, 61, 77
2,35779, Note_on_c, 0, 60, 0
2,35990, Note_on_c, 0, 72, 78
2,35996, Note_on_c, 0, 56, 56
2,36000, Note_on_c, 0, 73, 0
2,36018, Note_on_c, 0, 61, 0
2,36025, Note_on_c, 0, 63, 51
2,36025, Note_on_c, 0, 68, 49
2,36048, Control_c, 0, 64, 22
2,36063, Control_c, 0, 64, 52
2,36079, Control_c, 0, 64, 61
2,36094, Control_c, 0, 64, 65
2,36094, Note_on_c, 0, 54, 0
2,36110, Control_c, 0, 64, 74
2,36125, Control_c, 0, 64, 101
2,36139, Control_c, 0, 64, 127
2,36398, Note_on_c, 0, 53, 61
2,36406, Control_c, 0, 64, 83
2,36420, Control_c, 0, 64, 62
2,36436, Control_c, 0, 64, 0
2,36526, Control_c, 0, 64, 35
2,36540, Control_c, 0, 64, 53
2,36556, Control_c, 0, 64, 60
2,36571, Control_c, 0, 64, 63
2,36587, Control_c, 0, 64, 65
2,36598, Note_on_c, 0, 63, 0
2,36603, Control_c, 0, 64, 68
2,36618, Control_c, 0, 64, 73
2,36634, Control_c, 0, 64, 80
2,36648, Control_c, 0, 64, 89
2,36663, Control_c, 0, 64, 94
2,36679, Control_c, 0, 64, 96
2,36694, Control_c, 0, 64, 98
2,36710, Control_c, 0, 64, 101
2,36724, Control_c, 0, 64, 102
2,36770, Control_c, 0, 64, 100
2,36786, Control_c, 0, 64, 90
2,36796, Note_on_c, 0, 73, 80
2,36798, Note_on_c, 0, 51, 50
2,36801, Control_c, 0, 64, 75
2,36816, Control_c, 0, 64, 62
2,36826, Note_on_c, 0, 65, 50
2,36832, Control_c, 0, 64, 0
2,36832, Note_on_c, 0, 53, 0
2,36855, Note_on_c, 0, 72, 0
2,36968, Control_c, 0, 64, 43
2,36982, Control_c, 0, 64, 53
2,36998, Control_c, 0, 64, 58
2,37013, Control_c, 0, 64, 61
2,37029, Control_c, 0, 64, 63
2,37044, Control_c, 0, 64, 65
2,37058, Control_c, 0, 64, 67
2,37074, Control_c, 0, 64, 70
2,37089, Control_c, 0, 64, 72
2,37134, Control_c, 0, 64, 71
2,37158, Control_c, 0, 64, 68
2,37173, Control_c, 0, 64, 61
2,37188, Control_c, 0, 64, 0
2,37196, Note_on_c, 0, 51, 0
2,37198, Note_on_c, 0, 49, 48
2,37294, Control_c, 0, 64, 31
2,37310, Control_c, 0, 64, 53
2,37325, Control_c, 0, 64, 60
2,37339, Control_c, 0, 64, 63
2,37355, Control_c, 0, 64, 66
2,37370, Control_c, 0, 64, 70
2,37385, Control_c, 0, 64, 78
2,37400, Control_c, 0, 64, 102
2,37404, Note_on_c, 0, 56, 0
2,37416, Control_c, 0, 64, 127
2,37601, Note_on_c, 0, 63, 71
2,37610, Note_on_c, 0, 65, 0
2,37614, Note_on_c, 0, 56, 47
2,37645, Control_c, 0, 64, 76
2,37650, Note_on_c, 0, 49, 0
2,37659, Control_c, 0, 64, 55
2,37675, Control_c, 0, 64, 0
2,37767, Control_c, 0, 64, 44
2,37781, Control_c, 0, 64, 55
2,37797, Control_c, 0, 64, 59
2,37812, Control_c, 0, 64, 62
2,37827, Control_c, 0, 64, 64
2,37842, Control_c, 0, 64, 66
2,37857, Control_c, 0, 64, 69
2,37873, Control_c, 0, 64, 74
2,37888, Control_c, 0, 64, 80
2,37902, Control_c, 0, 64, 88
2,37926, Control_c, 0, 64, 96
2,37941, Control_c, 0, 64, 101
2,37957, Control_c, 0, 64, 102
2,37971, Control_c, 0, 64, 103
2,38002, Control_c, 0, 64, 101
2,38005, Note_on_c, 0, 70, 80
2,38017, Control_c, 0, 64, 87
2,38032, Control_c, 0, 64, 67
2,38047, Control_c, 0, 64, 40
2,38062, Control_c, 0, 64, 0
2,38095, Note_on_c, 0, 68, 0
2,38108, Control_c, 0, 64, 51
2,38123, Control_c, 0, 64, 60
2,38138, Control_c, 0, 64, 64
2,38154, Control_c, 0, 64, 67
2,38169, Control_c, 0, 64, 72
2,38183, Control_c, 0, 64, 81
2,38199, Control_c, 0, 64, 94
2,38209, Note_on_c, 0, 73, 0
2,38214, Control_c, 0, 64, 112
2,38231, Control_c, 0, 64, 127
2,38443, Note_on_c, 0, 68, 67
2,38445, Note_on_c, 0, 72, 65
2,38447, Note_on_c, 0, 44, 38
2,38457, Control_c, 0, 64, 107
2,38473, Control_c, 0, 64, 84
2,38488, Control_c, 0, 64, 67
2,38503, Control_c, 0, 64, 41
2,38519, Control_c, 0, 64, 0
2,38521, Note_on_c, 0, 70, 0
2,38610, Control_c, 0, 64, 28
2,38626, Control_c, 0, 64, 48
2,38641, Control_c, 0, 64, 55
2,38656, Control_c, 0, 64, 58
2,38671, Control_c, 0, 64, 61
2,38686, Control_c, 0, 64, 64
2,38709, Control_c, 0, 64, 68
2,38724, Control_c, 0, 64, 74
2,38739, Control_c, 0, 64, 83
2,38755, Control_c, 0, 64, 92
2,38769, Control_c, 0, 64, 96
2,38785, Control_c, 0, 64, 96
2,38874, Note_on_c, 0, 66, 66
2,38875, Control_c, 0, 64, 88
2,38890, Control_c, 0, 64, 72
2,38906, Control_c, 0, 64, 56
2,38908, Note_on_c, 0, 68, 0
2,38921, Control_c, 0, 64, 0
2,38997, Control_c, 0, 64, 29
2,39012, Control_c, 0, 64, 54
2,39027, Control_c, 0, 64, 61
2,39042, Control_c, 0, 64, 64
2,39048, Note_on_c, 0, 72, 0
2,39054, Note_on_c, 0, 63, 0
2,39058, Control_c, 0, 64, 66
2,39074, Control_c, 0, 64, 70
2,39089, Control_c, 0, 64, 77
2,39103, Control_c, 0, 64, 86
2,39119, Control_c, 0, 64, 97
2,39134, Control_c, 0, 64, 105
2,39150, Control_c, 0, 64, 108
2,39165, Control_c, 0, 64, 108
2,39179, Control_c, 0, 64, 111
2,39195, Control_c, 0, 64, 117
2,39210, Control_c, 0, 64, 124
2,39241, Note_on_c, 0, 44, 0
2,39326, Note_on_c, 0, 49, 37
2,39363, Control_c, 0, 64, 112
2,39378, Control_c, 0, 64, 91
2,39380, Note_on_c, 0, 73, 85
2,39393, Control_c, 0, 64, 67
2,39408, Control_c, 0, 64, 34
2,39423, Control_c, 0, 64, 0
2,39425, Note_on_c, 0, 65, 50
2,39439, Note_on_c, 0, 61, 36
2,39463, Note_on_c, 0, 66, 0
2,39507, Control_c, 0, 64, 30
2,39522, Control_c, 0, 64, 52
2,39535, Note_on_c, 0, 61, 0
2,39535, Note_on_c, 0, 61, 5
2,39537, Control_c, 0, 64, 60
2,39553, Control_c, 0, 64, 63
2,39568, Control_c, 0, 64, 66
2,39582, Control_c, 0, 64, 70
2,39598, Control_c, 0, 64, 77
2,39613, Control_c, 0, 64, 91
2,39629, Control_c, 0, 64, 110
2,39644, Control_c, 0, 64, 127
2,39667, Note_on_c, 0, 61, 0
2,39795, Control_c, 0, 64, 94
2,39810, Control_c, 0, 64, 70
2,39826, Control_c, 0, 64, 56
2,39833, Note_on_c, 0, 65, 0
2,39835, Note_on_c, 0, 60, 46
2,39836, Note_on_c, 0, 49, 0
2,39841, Control_c, 0, 64, 55
2,39847, Note_on_c, 0, 56, 0
2,39856, Control_c, 0, 64, 60
2,39858, Note_on_c, 0, 63, 49
2,39873, Control_c, 0, 64, 65
2,39888, Control_c, 0, 64, 70
2,39902, Control_c, 0, 64, 79
2,39918, Control_c, 0, 64, 96
2,39933, Control_c, 0, 64, 127
2,39956, Note_on_c, 0, 60, 0
2,40251, Note_on_c, 0, 68, 70
2,40253, Note_on_c, 0, 63, 0
2,40262, Note_on_c, 0, 65, 51
2,40273, Note_on_c, 0, 61, 46
2,40275, Control_c, 0, 64, 112
2,40290, Control_c, 0, 64, 75
2,40304, Control_c, 0, 64, 55
2,40313, Note_on_c, 0, 73, 0
2,40320, Control_c, 0, 64, 0
2,40396, Control_c, 0, 64, 24
2,40411, Control_c, 0, 64, 47
2,40427, Control_c, 0, 64, 56
2,40442, Control_c, 0, 64, 60
2,40457, Control_c, 0, 64, 63
2,40473, Control_c, 0, 64, 66
2,40488, Control_c, 0, 64, 69
2,40503, Control_c, 0, 64, 75
2,40518, Control_c, 0, 64, 85
2,40533, Control_c, 0, 64, 98
2,40549, Control_c, 0, 64, 119
2,40563, Control_c, 0, 64, 127
2,40618, Note_on_c, 0, 65, 0
2,40640, Note_on_c, 0, 66, 55
2,40654, Control_c, 0, 64, 97
2,40654, Note_on_c, 0, 61, 0
2,40670, Control_c, 0, 64, 69
2,40670, Note_on_c, 0, 63, 40
2,40686, Control_c, 0, 64, 45
2,40701, Control_c, 0, 64, 0
2,40747, Control_c, 0, 64, 46
2,40762, Control_c, 0, 64, 60
2,40777, Control_c, 0, 64, 65
2,40792, Control_c, 0, 64, 70
2,40807, Control_c, 0, 64, 78
2,40822, Control_c, 0, 64, 92
2,40838, Control_c, 0, 64, 127
2,40854, Note_on_c, 0, 68, 0
2,40882, Note_on_c, 0, 63, 0
2,40884, Note_on_c, 0, 66, 0
2,41064, Note_on_c, 0, 68, 44
2,41066, Note_on_c, 0, 65, 39
2,41073, Control_c, 0, 64, 96
2,41088, Control_c, 0, 64, 67
2,41103, Control_c, 0, 64, 32
2,41119, Control_c, 0, 64, 0
2,41209, Control_c, 0, 64, 19
2,41224, Control_c, 0, 64, 47
2,41240, Control_c, 0, 64, 53
2,41255, Control_c, 0, 64, 56
2,41271, Control_c, 0, 64, 59
2,41286, Control_c, 0, 64, 62
2,41301, Control_c, 0, 64, 64
2,41317, Control_c, 0, 64, 67
2,41331, Control_c, 0, 64, 71
2,41347, Control_c, 0, 64, 76
2,41362, Control_c, 0, 64, 81
2,41377, Control_c, 0, 64, 85
2,41393, Control_c, 0, 64, 90
2,41407, Control_c, 0, 64, 93
2,41422, Control_c, 0, 64, 95
2,41438, Control_c, 0, 64, 96
2,41453, Control_c, 0, 64, 96
2,41469, Control_c, 0, 64, 97
2,41477, Note_on_c, 0, 83, 82
2,41565, Note_on_c, 0, 65, 0
2,41888, Note_on_c, 0, 82, 86
2,41903, Control_c, 0, 64, 96
2,41907, Note_on_c, 0, 65, 43
2,41911, Note_on_c, 0, 83, 0
2,41916, Note_on_c, 0, 62, 39
2,41918, Control_c, 0, 64, 92
2,41933, Control_c, 0, 64, 81
2,41949, Control_c, 0, 64, 65
2,41964, Control_c, 0, 64, 38
2,41979, Control_c, 0, 64, 0
2,42009, Note_on_c, 0, 68, 0
2,42070, Control_c, 0, 64, 39
2,42085, Control_c, 0, 64, 55
2,42100, Control_c, 0, 64, 59
2,42116, Control_c, 0, 64, 62
2,42130, Control_c, 0, 64, 63
2,42146, Control_c, 0, 64, 65
2,42161, Control_c, 0, 64, 67
2,42175, Control_c, 0, 64, 70
2,42191, Control_c, 0, 64, 76
2,42206, Control_c, 0, 64, 82
2,42221, Control_c, 0, 64, 87
2,42237, Control_c, 0, 64, 89
2,42252, Control_c, 0, 64, 90
2,42294, Note_on_c, 0, 80, 85
2,42313, Control_c, 0, 64, 86
2,42329, Control_c, 0, 64, 73
2,42329, Note_on_c, 0, 82, 0
2,42344, Control_c, 0, 64, 60
2,42359, Control_c, 0, 64, 0
2,42405, Control_c, 0, 64, 45
2,42420, Control_c, 0, 64, 56
2,42436, Control_c, 0, 64, 61
2,42451, Control_c, 0, 64, 64
2,42466, Control_c, 0, 64, 68
2,42481, Control_c, 0, 64, 74
2,42496, Control_c, 0, 64, 80
2,42512, Control_c, 0, 64, 88
2,42534, Control_c, 0, 64, 96
2,42550, Control_c, 0, 64, 104
2,42564, Control_c, 0, 64, 113
2,42579, Control_c, 0, 64, 127
2,42607, Note_on_c, 0, 65, 0
2,42613, Note_on_c, 0, 62, 0
2,42714, Note_on_c, 0, 70, 78
2,42717, Note_on_c, 0, 80, 0
2,42724, Note_on_c, 0, 78, 67
2,42727, Note_on_c, 0, 63, 59
2,42748, Control_c, 0, 64, 96
2,42762, Control_c, 0, 64, 75
2,42777, Control_c, 0, 64, 60
2,42793, Control_c, 0, 64, 0
2,42898, Control_c, 0, 64, 20
2,42914, Control_c, 0, 64, 42
2,42929, Control_c, 0, 64, 49
2,42944, Control_c, 0, 64, 52
2,42960, Control_c, 0, 64, 55
2,42974, Control_c, 0, 64, 57
2,42990, Control_c, 0, 64, 59
2,43005, Control_c, 0, 64, 61
2,43019, Control_c, 0, 64, 62
2,43035, Control_c, 0, 64, 63
2,43050, Control_c, 0, 64, 64
2,43066, Control_c, 0, 64, 65
2,43081, Control_c, 0, 64, 67
2,43095, Control_c, 0, 64, 71
2,43111, Control_c, 0, 64, 74
2,43126, Control_c, 0, 64, 77
2,43131, Note_on_c, 0, 78, 0
2,43142, Control_c, 0, 64, 79
2,43143, Note_on_c, 0, 77, 61
2,43158, Control_c, 0, 64, 80
2,43173, Control_c, 0, 64, 82
2,43189, Control_c, 0, 64, 83
2,43203, Control_c, 0, 64, 83
2,43210, Note_on_c, 0, 63, 0
2,43218, Control_c, 0, 64, 84
2,43544, Control_c, 0, 64, 83
2,43547, Note_on_c, 0, 77, 0
2,43552, Note_on_c, 0, 78, 58
2,43555, Note_on_c, 0, 63, 65
2,43560, Control_c, 0, 64, 79
2,43575, Control_c, 0, 64, 73
2,43584, Note_on_c, 0, 70, 0
2,43591, Control_c, 0, 64, 64
2,43606, Control_c, 0, 64, 51
2,43620, Control_c, 0, 64, 0
2,43961, Note_on_c, 0, 65, 55
2,43966, Note_on_c, 0, 80, 78
2,44003, Note_on_c, 0, 78, 0
2,44070, Control_c, 0, 64, 20
2,44085, Control_c, 0, 64, 44
2,44099, Control_c, 0, 64, 52
2,44115, Control_c, 0, 64, 57
2,44130, Control_c, 0, 64, 61
2,44146, Control_c, 0, 64, 63
2,44161, Control_c, 0, 64, 66
2,44175, Control_c, 0, 64, 69
2,44191, Control_c, 0, 64, 74
2,44206, Control_c, 0, 64, 79
2,44221, Control_c, 0, 64, 84
2,44237, Control_c, 0, 64, 89
2,44251, Control_c, 0, 64, 94
2,44267, Control_c, 0, 64, 99
2,44282, Control_c, 0, 64, 104
2,44297, Control_c, 0, 64, 110
2,44313, Control_c, 0, 64, 113
2,44373, Control_c, 0, 64, 108
2,44376, Note_on_c, 0, 82, 71
2,44377, Note_on_c, 0, 66, 53
2,44389, Control_c, 0, 64, 90
2,44404, Control_c, 0, 64, 72
2,44411, Note_on_c, 0, 80, 0
2,44419, Control_c, 0, 64, 58
2,44431, Note_on_c, 0, 65, 0
2,44435, Control_c, 0, 64, 0
2,44448, Note_on_c, 0, 63, 0
2,44495, Control_c, 0, 64, 43
2,44510, Control_c, 0, 64, 53
2,44525, Control_c, 0, 64, 58
2,44540, Control_c, 0, 64, 61
2,44556, Control_c, 0, 64, 63
2,44571, Control_c, 0, 64, 65
2,44586, Control_c, 0, 64, 67
2,44601, Control_c, 0, 64, 71
2,44616, Control_c, 0, 64, 75
2,44632, Control_c, 0, 64, 81
2,44647, Control_c, 0, 64, 88
2,44661, Control_c, 0, 64, 95
2,44677, Control_c, 0, 64, 100
2,44692, Control_c, 0, 64, 102
2,44753, Control_c, 0, 64, 96
2,44753, Note_on_c, 0, 78, 83
2,44758, Note_on_c, 0, 81, 70
2,44768, Control_c, 0, 64, 81
2,44768, Note_on_c, 0, 63, 45
2,44784, Control_c, 0, 64, 66
2,44791, Note_on_c, 0, 82, 0
2,44800, Control_c, 0, 64, 33
2,44814, Control_c, 0, 64, 0
2,44814, Note_on_c, 0, 66, 0
2,44869, Control_c, 0, 64, 18
2,44884, Control_c, 0, 64, 44
2,44898, Control_c, 0, 64, 53
2,44914, Control_c, 0, 64, 58
2,44929, Control_c, 0, 64, 61
2,44943, Control_c, 0, 64, 63
2,44953, Note_on_c, 0, 82, 67
2,44959, Control_c, 0, 64, 65
2,44974, Control_c, 0, 64, 67
2,44990, Control_c, 0, 64, 71
2,45005, Control_c, 0, 64, 76
2,45019, Control_c, 0, 64, 80
2,45035, Control_c, 0, 64, 83
2,45050, Control_c, 0, 64, 86
2,45066, Control_c, 0, 64, 88
2,45157, Note_on_c, 0, 81, 0
2,45172, Control_c, 0, 64, 87
2,45176, Note_on_c, 0, 77, 86
2,45177, Note_on_c, 0, 84, 74
2,45186, Note_on_c, 0, 69, 59
2,45187, Control_c, 0, 64, 82
2,45193, Note_on_c, 0, 78, 0
2,45200, Note_on_c, 0, 63, 0
2,45202, Control_c, 0, 64, 73
2,45215, Note_on_c, 0, 82, 0
2,45217, Control_c, 0, 64, 62
2,45233, Control_c, 0, 64, 38
2,45248, Control_c, 0, 64, 0
2,45577, Note_on_c, 0, 67, 65
2,45577, Note_on_c, 0, 75, 79
2,45590, Note_on_c, 0, 69, 0
2,45590, Note_on_c, 0, 77, 0
2,45728, Control_c, 0, 64, 29
2,45735, Note_on_c, 0, 67, 0
2,45743, Control_c, 0, 64, 50
2,45759, Control_c, 0, 64, 57
2,45765, Note_on_c, 0, 65, 74
2,45774, Control_c, 0, 64, 61
2,45789, Control_c, 0, 64, 64
2,45804, Control_c, 0, 64, 66
2,45819, Control_c, 0, 64, 70
2,45835, Control_c, 0, 64, 77
2,45850, Control_c, 0, 64, 89
2,45864, Control_c, 0, 64, 106
2,45880, Control_c, 0, 64, 127
2,45939, Note_on_c, 0, 65, 0
2,45939, Note_on_c, 0, 84, 0
2,45959, Note_on_c, 0, 75, 0
2,45974, Note_on_c, 0, 73, 76
2,45988, Note_on_c, 0, 58, 81
2,45992, Note_on_c, 0, 70, 67
2,46032, Control_c, 0, 64, 117
2,46047, Control_c, 0, 64, 78
2,46061, Control_c, 0, 64, 57
2,46077, Control_c, 0, 64, 0
2,46183, Control_c, 0, 64, 16
2,46199, Control_c, 0, 64, 48
2,46214, Control_c, 0, 64, 55
2,46230, Control_c, 0, 64, 59
2,46245, Control_c, 0, 64, 62
2,46260, Control_c, 0, 64, 64
2,46275, Control_c, 0, 64, 66
2,46282, Note_on_c, 0, 70, 0
2,46290, Control_c, 0, 64, 70
2,46306, Control_c, 0, 64, 76
2,46321, Control_c, 0, 64, 83
2,46336, Control_c, 0, 64, 89
2,46351, Control_c, 0, 64, 94
2,46366, Control_c, 0, 64, 97
2,46389, Control_c, 0, 64, 99
2,46401, Note_on_c, 0, 82, 81
2,46404, Control_c, 0, 64, 101
2,46419, Control_c, 0, 64, 102
2,46422, Note_on_c, 0, 77, 63
2,46435, Control_c, 0, 64, 104
2,46450, Control_c, 0, 64, 105
2,46466, Control_c, 0, 64, 105
2,46481, Control_c, 0, 64, 106
2,46511, Note_on_c, 0, 73, 0
2,46633, Control_c, 0, 64, 106
2,46648, Control_c, 0, 64, 107
2,46679, Control_c, 0, 64, 108
2,46782, Note_on_c, 0, 53, 75
2,46782, Note_on_c, 0, 75, 70
2,46790, Note_on_c, 0, 72, 74
2,46800, Control_c, 0, 64, 107
2,46815, Control_c, 0, 64, 96
2,46819, Note_on_c, 0, 58, 0
2,46830, Control_c, 0, 64, 80
2,46845, Control_c, 0, 64, 66
2,46860, Control_c, 0, 64, 37
2,46876, Control_c, 0, 64, 0
2,47012, Control_c, 0, 64, 40
2,47028, Control_c, 0, 64, 53
2,47043, Control_c, 0, 64, 57
2,47058, Control_c, 0, 64, 59
2,47074, Control_c, 0, 64, 61
2,47089, Control_c, 0, 64, 63
2,47103, Control_c, 0, 64, 64
2,47119, Control_c, 0, 64, 67
2,47122, Note_on_c, 0, 82, 0
2,47134, Control_c, 0, 64, 71
2,47157, Control_c, 0, 64, 75
2,47172, Control_c, 0, 64, 81
2,47188, Control_c, 0, 64, 86
2,47188, Note_on_c, 0, 81, 81
2,47202, Control_c, 0, 64, 90
2,47205, Note_on_c, 0, 72, 0
2,47217, Control_c, 0, 64, 91
2,47222, Note_on_c, 0, 53, 0
2,47226, Note_on_c, 0, 75, 0
2,47233, Control_c, 0, 64, 92
2,47248, Control_c, 0, 64, 95
2,47263, Control_c, 0, 64, 98
2,47278, Control_c, 0, 64, 101
2,47293, Control_c, 0, 64, 102
2,47342, Note_on_c, 0, 77, 0
2,47589, Note_on_c, 0, 82, 84
2,47608, Note_on_c, 0, 74, 62
2,47613, Control_c, 0, 64, 101
2,47613, Note_on_c, 0, 70, 60
2,47628, Control_c, 0, 64, 98
2,47643, Control_c, 0, 64, 87
2,47658, Control_c, 0, 64, 76
2,47673, Control_c, 0, 64, 66
2,47687, Note_on_c, 0, 81, 0
2,47688, Control_c, 0, 64, 54
2,47703, Control_c, 0, 64, 0
2,47997, Note_on_c, 0, 66, 73
2,48388, Note_on_c, 0, 75, 85
2,48397, Note_on_c, 0, 65, 59
2,48421, Note_on_c, 0, 74, 0
2,48461, Note_on_c, 0, 66, 0
2,48800, Note_on_c, 0, 63, 68
2,48858, Note_on_c, 0, 65, 0
2,49174, Note_on_c, 0, 77, 81
2,49198, Note_on_c, 0, 62, 67
2,49229, Note_on_c, 0, 75, 0
2,49281, Note_on_c, 0, 63, 0
2,49576, Note_on_c, 0, 58, 65
2,49617, Note_on_c, 0, 62, 0
2,49967, Note_on_c, 0, 80, 78
2,49975, Note_on_c, 0, 60, 69
2,50008, Note_on_c, 0, 58, 0
2,50060, Note_on_c, 0, 82, 0
2,50391, Note_on_c, 0, 62, 78
2,50429, Note_on_c, 0, 60, 0
2,50455, Control_c, 0, 64, 53
2,50471, Control_c, 0, 64, 63
2,50486, Control_c, 0, 64, 69
2,50500, Control_c, 0, 64, 85
2,50517, Control_c, 0, 64, 127
2,50537, Note_on_c, 0, 62, 0
2,50552, Note_on_c, 0, 80, 0
2,50831, Note_on_c, 0, 51, 78
2,50840, Note_on_c, 0, 78, 76
2,50845, Note_on_c, 0, 63, 69
2,50913, Control_c, 0, 64, 90
2,50927, Control_c, 0, 64, 67
2,50942, Control_c, 0, 64, 47
2,50958, Control_c, 0, 64, 0
2,51301, Note_on_c, 0, 75, 77
2,51313, Note_on_c, 0, 53, 45
2,51344, Note_on_c, 0, 63, 0
2,51361, Control_c, 0, 64, 44
2,51376, Control_c, 0, 64, 59
2,51392, Control_c, 0, 64, 64
2,51397, Note_on_c, 0, 77, 0
2,51407, Control_c, 0, 64, 67
2,51422, Control_c, 0, 64, 73
2,51437, Control_c, 0, 64, 85
2,51452, Control_c, 0, 64, 115
2,51468, Control_c, 0, 64, 127
2,51476, Note_on_c, 0, 74, 82
2,51510, Note_on_c, 0, 75, 0
2,51693, Note_on_c, 0, 74, 0
2,51696, Note_on_c, 0, 54, 63
2,51698, Note_on_c, 0, 75, 78
2,51700, Note_on_c, 0, 46, 68
2,51730, Note_on_c, 0, 51, 0
2,51733, Note_on_c, 0, 53, 0
2,51764, Control_c, 0, 64, 90
2,51778, Control_c, 0, 64, 67
2,51794, Control_c, 0, 64, 36
2,51809, Control_c, 0, 64, 0
2,52052, Control_c, 0, 64, 30
2,52068, Control_c, 0, 64, 37
2,52083, Control_c, 0, 64, 42
2,52098, Control_c, 0, 64, 49
2,52113, Control_c, 0, 64, 56
2,52124, Note_on_c, 0, 56, 67
2,52128, Control_c, 0, 64, 61
2,52137, Note_on_c, 0, 54, 0
2,52143, Control_c, 0, 64, 65
2,52155, Note_on_c, 0, 46, 0
2,52160, Control_c, 0, 64, 69
2,52175, Control_c, 0, 64, 75
2,52191, Control_c, 0, 64, 88
2,52205, Control_c, 0, 64, 108
2,52220, Control_c, 0, 64, 127
2,52224, Note_on_c, 0, 78, 0
2,52496, Note_on_c, 0, 77, 86
2,52521, Note_on_c, 0, 58, 56
2,52560, Note_on_c, 0, 56, 0
2,52577, Control_c, 0, 64, 111
2,52593, Control_c, 0, 64, 82
2,52608, Control_c, 0, 64, 66
2,52623, Control_c, 0, 64, 21
2,52639, Control_c, 0, 64, 0
2,52917, Note_on_c, 0, 59, 74
2,52955, Note_on_c, 0, 58, 0
2,53335, Note_on_c, 0, 77, 0
2,53349, Note_on_c, 0, 58, 70
2,53349, Note_on_c, 0, 76, 67
2,53363, Note_on_c, 0, 61, 57
2,53373, Note_on_c, 0, 73, 55
2,53404, Note_on_c, 0, 59, 0
2,53570, Note_on_c, 0, 75, 0
2,53748, Note_on_c, 0, 56, 65
2,53748, Note_on_c, 0, 58, 0
2,53818, Control_c, 0, 64, 50
2,53833, Control_c, 0, 64, 62
2,53848, Control_c, 0, 64, 67
2,53863, Control_c, 0, 64, 74
2,53879, Control_c, 0, 64, 90
2,53894, Control_c, 0, 64, 127
2,53910, Note_on_c, 0, 56, 0
2,53917, Note_on_c, 0, 61, 0
2,54138, Note_on_c, 0, 76, 0
2,54156, Note_on_c, 0, 55, 47
2,54160, Note_on_c, 0, 75, 66
2,54181, Note_on_c, 0, 63, 47
2,54190, Control_c, 0, 64, 87
2,54205, Control_c, 0, 64, 60
2,54220, Control_c, 0, 64, 0
2,54296, Control_c, 0, 64, 48
2,54311, Control_c, 0, 64, 63
2,54326, Control_c, 0, 64, 68
2,54341, Control_c, 0, 64, 79
2,54356, Control_c, 0, 64, 101
2,54368, Note_on_c, 0, 55, 0
2,54371, Control_c, 0, 64, 127
2,54380, Note_on_c, 0, 75, 0
2,54524, Note_on_c, 0, 63, 0
2,54587, Note_on_c, 0, 55, 47
2,54588, Note_on_c, 0, 75, 80
2,54618, Note_on_c, 0, 51, 41
2,54631, Control_c, 0, 64, 89
2,54646, Control_c, 0, 64, 70
2,54661, Control_c, 0, 64, 56
2,54677, Control_c, 0, 64, 0
2,54760, Note_on_c, 0, 76, 85
2,54768, Note_on_c, 0, 73, 0
2,54811, Note_on_c, 0, 75, 0
2,54964, Note_on_c, 0, 56, 55
2,54972, Note_on_c, 0, 75, 83
2,54973, Note_on_c, 0, 53, 46
2,54979, Note_on_c, 0, 51, 0
2,54986, Note_on_c, 0, 76, 0
2,55006, Note_on_c, 0, 55, 0
2,55170, Control_c, 0, 64, 35
2,55186, Control_c, 0, 64, 45
2,55200, Control_c, 0, 64, 48
2,55215, Control_c, 0, 64, 50
2,55231, Control_c, 0, 64, 52
2,55246, Control_c, 0, 64, 53
2,55261, Control_c, 0, 64, 55
2,55276, Control_c, 0, 64, 55
2,55337, Control_c, 0, 64, 54
2,55353, Control_c, 0, 64, 45
2,55354, Note_on_c, 0, 53, 0
2,55365, Note_on_c, 0, 73, 83
2,55368, Control_c, 0, 64, 0
2,55376, Note_on_c, 0, 58, 50
2,55379, Note_on_c, 0, 55, 55
2,55382, Note_on_c, 0, 56, 0
2,55388, Note_on_c, 0, 70, 0
2,55506, Control_c, 0, 64, 33
2,55521, Control_c, 0, 64, 55
2,55536, Control_c, 0, 64, 63
2,55552, Control_c, 0, 64, 67
2,55567, Control_c, 0, 64, 77
2,55567, Note_on_c, 0, 55, 0
2,55589, Control_c, 0, 64, 97
2,55604, Control_c, 0, 64, 127
2,55676, Note_on_c, 0, 58, 0
2,55768, Note_on_c, 0, 71, 82
2,55777, Note_on_c, 0, 68, 71
2,55778, Note_on_c, 0, 56, 61
2,55786, Note_on_c, 0, 73, 0
2,55790, Note_on_c, 0, 59, 60
2,55833, Control_c, 0, 64, 78
2,55848, Control_c, 0, 64, 58
2,55863, Control_c, 0, 64, 0
2,56164, Note_on_c, 0, 70, 85
2,56172, Note_on_c, 0, 56, 0
2,56175, Note_on_c, 0, 54, 49
2,56175, Note_on_c, 0, 75, 0
2,56178, Note_on_c, 0, 58, 65
2,56182, Control_c, 0, 64, 50
2,56188, Note_on_c, 0, 71, 0
2,56197, Control_c, 0, 64, 60
2,56203, Note_on_c, 0, 59, 0
2,56207, Note_on_c, 0, 68, 0
2,56212, Control_c, 0, 64, 64
2,56228, Control_c, 0, 64, 68
2,56243, Control_c, 0, 64, 75
2,56259, Control_c, 0, 64, 91
2,56274, Control_c, 0, 64, 127
2,56314, Note_on_c, 0, 54, 0
2,56321, Note_on_c, 0, 58, 0
2,56529, Note_on_c, 0, 70, 0
2,56562, Note_on_c, 0, 80, 89
2,56575, Note_on_c, 0, 56, 59
2,56581, Note_on_c, 0, 52, 58
2,56582, Note_on_c, 0, 71, 76
2,56590, Note_on_c, 0, 76, 65
2,56632, Control_c, 0, 64, 98
2,56646, Control_c, 0, 64, 77
2,56661, Control_c, 0, 64, 64
2,56677, Control_c, 0, 64, 28
2,56692, Control_c, 0, 64, 0
2,56953, Note_on_c, 0, 52, 0
2,56969, Note_on_c, 0, 54, 76
2,56979, Note_on_c, 0, 51, 62
2,56982, Note_on_c, 0, 56, 0
2,57073, Control_c, 0, 64, 45
2,57088, Control_c, 0, 64, 59
2,57103, Control_c, 0, 64, 64
2,57126, Control_c, 0, 64, 68
2,57141, Control_c, 0, 64, 73
2,57157, Control_c, 0, 64, 82
2,57172, Control_c, 0, 64, 96
2,57175, Note_on_c, 0, 71, 0
2,57187, Control_c, 0, 64, 116
2,57202, Control_c, 0, 64, 127
2,57380, Note_on_c, 0, 51, 0
2,57386, Note_on_c, 0, 52, 60
2,57386, Note_on_c, 0, 70, 87
2,57388, Note_on_c, 0, 54, 0
2,57390, Note_on_c, 0, 49, 60
2,57413, Control_c, 0, 64, 98
2,57429, Control_c, 0, 64, 74
2,57444, Control_c, 0, 64, 59
2,57459, Control_c, 0, 64, 0
2,57501, Note_on_c, 0, 76, 0
2,57563, Note_on_c, 0, 75, 83
2,57760, Note_on_c, 0, 73, 92
2,57761, Note_on_c, 0, 49, 0
2,57768, Note_on_c, 0, 46, 53
2,57797, Note_on_c, 0, 75, 0
2,57838, Control_c, 0, 64, 44
2,57853, Control_c, 0, 64, 59
2,57869, Control_c, 0, 64, 65
2,57893, Control_c, 0, 64, 72
2,57909, Control_c, 0, 64, 91
2,57921, Note_on_c, 0, 80, 0
2,57923, Control_c, 0, 64, 127
2,58151, Note_on_c, 0, 79, 88
2,58157, Note_on_c, 0, 52, 0
2,58165, Note_on_c, 0, 51, 55
2,58188, Note_on_c, 0, 73, 0
2,58211, Control_c, 0, 64, 96
2,58227, Control_c, 0, 64, 68
2,58242, Control_c, 0, 64, 43
2,58257, Control_c, 0, 64, 0
2,58261, Note_on_c, 0, 46, 0
2,58358, Note_on_c, 0, 76, 83
2,58556, Note_on_c, 0, 75, 87
2,58565, Note_on_c, 0, 39, 56
2,58614, Note_on_c, 0, 79, 0
2,58617, Note_on_c, 0, 76, 0
2,58708, Control_c, 0, 64, 26
2,58724, Control_c, 0, 64, 54
2,58732, Note_on_c, 0, 70, 0
2,58740, Control_c, 0, 64, 63
2,58743, Note_on_c, 0, 73, 94
2,58755, Control_c, 0, 64, 72
2,58761, Note_on_c, 0, 75, 0
2,58770, Control_c, 0, 64, 92
2,58785, Control_c, 0, 64, 127
2,58935, Note_on_c, 0, 39, 0
2,58965, Note_on_c, 0, 44, 56
2,59051, Note_on_c, 0, 72, 75
2,59056, Note_on_c, 0, 68, 90
2,59060, Note_on_c, 0, 80, 74
2,59073, Note_on_c, 0, 73, 0
2,59119, Control_c, 0, 64, 79
2,59134, Control_c, 0, 64, 60
2,59149, Control_c, 0, 64, 0
2,59332, Control_c, 0, 64, 33
2,59347, Control_c, 0, 64, 54
2,59362, Control_c, 0, 64, 60
2,59377, Control_c, 0, 64, 63
2,59393, Control_c, 0, 64, 65
2,59408, Control_c, 0, 64, 67
2,59430, Control_c, 0, 64, 73
2,59445, Control_c, 0, 64, 82
2,59447, Note_on_c, 0, 80, 0
2,59461, Control_c, 0, 64, 94
2,59476, Control_c, 0, 64, 116
2,59491, Control_c, 0, 64, 127
2,59515, Note_on_c, 0, 72, 0
2,59520, Note_on_c, 0, 56, 65
2,59551, Note_on_c, 0, 51, 0
2,59584, Note_on_c, 0, 44, 0
2,59953, Note_on_c, 0, 61, 82
2,59981, Note_on_c, 0, 54, 54
2,59983, Note_on_c, 0, 68, 0
2,59998, Note_on_c, 0, 46, 46
2,60008, Control_c, 0, 64, 116
2,60024, Control_c, 0, 64, 79
2,60039, Control_c, 0, 64, 64
2,60050, Note_on_c, 0, 56, 0
2,60054, Control_c, 0, 64, 0
2,60390, Note_on_c, 0, 53, 56
2,60400, Note_on_c, 0, 44, 54
2,60407, Note_on_c, 0, 46, 0
2,60435, Note_on_c, 0, 54, 0
2,60457, Control_c, 0, 64, 46
2,60473, Control_c, 0, 64, 59
2,60488, Control_c, 0, 64, 64
2,60504, Control_c, 0, 64, 67
2,60518, Control_c, 0, 64, 72
2,60533, Control_c, 0, 64, 80
2,60549, Control_c, 0, 64, 93
2,60564, Control_c, 0, 64, 110
2,60580, Control_c, 0, 64, 127
2,60799, Note_on_c, 0, 61, 0
2,60840, Note_on_c, 0, 51, 62
2,60841, Note_on_c, 0, 53, 0
2,60845, Note_on_c, 0, 42, 52
2,60859, Note_on_c, 0, 44, 0
2,60882, Control_c, 0, 64, 84
2,60897, Control_c, 0, 64, 66
2,60913, Control_c, 0, 64, 28
2,60928, Control_c, 0, 64, 0
2,61266, Note_on_c, 0, 49, 50
2,61268, Note_on_c, 0, 77, 86
2,61284, Note_on_c, 0, 51, 0
2,61362, Control_c, 0, 64, 37
2,61377, Control_c, 0, 64, 57
2,61393, Control_c, 0, 64, 64
2,61403, Note_on_c, 0, 42, 0
2,61408, Control_c, 0, 64, 69
2,61424, Control_c, 0, 64, 78
2,61438, Control_c, 0, 64, 95
2,61453, Control_c, 0, 64, 127
2,61728, Note_on_c, 0, 75, 86
2,61747, Note_on_c, 0, 54, 48
2,61755, Note_on_c, 0, 58, 48
2,61779, Note_on_c, 0, 77, 0
2,61815, Note_on_c, 0, 49, 0
2,61855, Control_c, 0, 64, 98
2,61871, Control_c, 0, 64, 75
2,61886, Control_c, 0, 64, 61
2,61901, Control_c, 0, 64, 0
2,62174, Note_on_c, 0, 73, 80
2,62219, Note_on_c, 0, 75, 0
2,62565, Note_on_c, 0, 58, 0
2,62574, Note_on_c, 0, 72, 69
2,62577, Note_on_c, 0, 56, 43
2,62577, Note_on_c, 0, 73, 0
2,62671, Control_c, 0, 64, 41
2,62685, Control_c, 0, 64, 57
2,62701, Control_c, 0, 64, 62
2,62716, Control_c, 0, 64, 65
2,62731, Control_c, 0, 64, 68
2,62746, Control_c, 0, 64, 74
2,62761, Control_c, 0, 64, 86
2,62776, Control_c, 0, 64, 127
2,62977, Note_on_c, 0, 54, 0
2,62989, Note_on_c, 0, 68, 65
2,62993, Note_on_c, 0, 66, 62
2,62995, Note_on_c, 0, 72, 0
2,63004, Note_on_c, 0, 53, 43
2,63038, Note_on_c, 0, 56, 0
2,63050, Control_c, 0, 64, 88
2,63066, Control_c, 0, 64, 70
2,63081, Control_c, 0, 64, 47
2,63096, Control_c, 0, 64, 0
2,63414, Note_on_c, 0, 54, 47
2,63414, Note_on_c, 0, 70, 68
2,63417, Note_on_c, 0, 66, 0
2,63421, Note_on_c, 0, 53, 0
2,63423, Note_on_c, 0, 65, 77
2,63449, Note_on_c, 0, 68, 0
2,63811, Note_on_c, 0, 56, 46
2,63812, Note_on_c, 0, 72, 73
2,63815, Note_on_c, 0, 63, 65
2,63839, Note_on_c, 0, 54, 0
2,63849, Note_on_c, 0, 70, 0
2,63856, Note_on_c, 0, 65, 0
2,64244, Note_on_c, 0, 58, 47
2,64249, Note_on_c, 0, 73, 74
2,64254, Note_on_c, 0, 61, 61
2,64272, Note_on_c, 0, 63, 0
2,64277, Note_on_c, 0, 72, 0
2,64294, Note_on_c, 0, 56, 0
2,64676, Note_on_c, 0, 66, 72
2,64685, Note_on_c, 0, 61, 0
2,65106, Note_on_c, 0, 54, 39
2,65128, Note_on_c, 0, 58, 0
2,65507, Note_on_c, 0, 65, 62
2,65529, Note_on_c, 0, 66, 0
2,65980, Note_on_c, 0, 56, 42
2,65983, Note_on_c, 0, 63, 55
2,65991, Note_on_c, 0, 65, 0
2,66065, Note_on_c, 0, 54, 0
2,66424, Note_on_c, 0, 58, 51
2,66456, Note_on_c, 0, 56, 0
2,66817, Note_on_c, 0, 73, 0
2,66833, Note_on_c, 0, 56, 41
2,66839, Note_on_c, 0, 72, 60
2,66841, Note_on_c, 0, 58, 0
2,67258, Note_on_c, 0, 54, 56
2,67279, Note_on_c, 0, 56, 0
2,67750, Note_on_c, 0, 73, 63
2,67752, Note_on_c, 0, 56, 39
2,67764, Note_on_c, 0, 53, 38
2,67777, Note_on_c, 0, 72, 0
2,67787, Note_on_c, 0, 54, 0
2,67855, Note_on_c, 0, 63, 0
2,68000, Control_c, 0, 64, 33
2,68015, Control_c, 0, 64, 49
2,68030, Control_c, 0, 64, 55
2,68045, Control_c, 0, 64, 59
2,68061, Control_c, 0, 64, 62
2,68076, Control_c, 0, 64, 64
2,68091, Control_c, 0, 64, 67
2,68107, Control_c, 0, 64, 71
2,68121, Control_c, 0, 64, 78
2,68136, Control_c, 0, 64, 86
2,68152, Control_c, 0, 64, 96
2,68166, Control_c, 0, 64, 106
2,68182, Control_c, 0, 64, 112
2,68197, Control_c, 0, 64, 116
2,68199, Note_on_c, 0, 71, 63
2,68216, Note_on_c, 0, 73, 0
2,68304, Control_c, 0, 64, 106
2,68318, Control_c, 0, 64, 88
2,68333, Control_c, 0, 64, 71
2,68349, Control_c, 0, 64, 59
2,68364, Control_c, 0, 64, 0
2,68376, Note_on_c, 0, 70, 77
2,68399, Note_on_c, 0, 71, 0
2,68409, Control_c, 0, 64, 39
2,68425, Control_c, 0, 64, 52
2,68440, Control_c, 0, 64, 59
2,68455, Control_c, 0, 64, 63
2,68471, Control_c, 0, 64, 66
2,68486, Control_c, 0, 64, 69
2,68502, Control_c, 0, 64, 72
2,68516, Control_c, 0, 64, 73
2,68531, Control_c, 0, 64, 72
2,68548, Control_c, 0, 64, 69
2,68562, Control_c, 0, 64, 63
2,68568, Note_on_c, 0, 70, 0
2,68577, Control_c, 0, 64, 38
2,68593, Control_c, 0, 64, 0
2,68593, Note_on_c, 0, 68, 50
2,68596, Note_on_c, 0, 71, 54
2,68737, Control_c, 0, 64, 43
2,68752, Control_c, 0, 64, 54
2,68767, Control_c, 0, 64, 60
2,68783, Control_c, 0, 64, 63
2,68798, Control_c, 0, 64, 66
2,68813, Control_c, 0, 64, 70
2,68829, Control_c, 0, 64, 78
2,68844, Control_c, 0, 64, 88
2,68860, Control_c, 0, 64, 100
2,68874, Control_c, 0, 64, 114
2,68889, Control_c, 0, 64, 127
2,69012, Note_on_c, 0, 66, 56
2,69014, Note_on_c, 0, 68, 0
2,69024, Note_on_c, 0, 51, 48
2,69026, Control_c, 0, 64, 110
2,69041, Control_c, 0, 64, 99
2,69056, Control_c, 0, 64, 95
2,69072, Control_c, 0, 64, 95
2,69102, Control_c, 0, 64, 94
2,69117, Control_c, 0, 64, 89
2,69132, Control_c, 0, 64, 81
2,69136, Note_on_c, 0, 56, 0
2,69148, Control_c, 0, 64, 72
2,69162, Control_c, 0, 64, 66
2,69177, Control_c, 0, 64, 63
2,69184, Note_on_c, 0, 49, 57
2,69189, Note_on_c, 0, 51, 0
2,69192, Note_on_c, 0, 66, 0
2,69193, Control_c, 0, 64, 62
2,69193, Note_on_c, 0, 65, 65
2,69207, Control_c, 0, 64, 61
2,69208, Note_on_c, 0, 53, 0
2,69223, Control_c, 0, 64, 60
2,69238, Control_c, 0, 64, 57
2,69253, Control_c, 0, 64, 45
2,69269, Control_c, 0, 64, 0
2,69388, Note_on_c, 0, 65, 0
2,69409, Note_on_c, 0, 51, 59
2,69422, Note_on_c, 0, 66, 61
2,69424, Note_on_c, 0, 49, 0
2,69567, Control_c, 0, 64, 32
2,69583, Control_c, 0, 64, 45
2,69597, Control_c, 0, 64, 47
2,69688, Control_c, 0, 64, 46
2,69704, Control_c, 0, 64, 44
2,69718, Control_c, 0, 64, 41
2,69733, Control_c, 0, 64, 35
2,69749, Control_c, 0, 64, 19
2,69764, Control_c, 0, 64, 0
2,69788, Note_on_c, 0, 71, 0
2,69824, Note_on_c, 0, 70, 59
2,69825, Note_on_c, 0, 61, 72
2,69829, Note_on_c, 0, 53, 44
2,69847, Note_on_c, 0, 66, 0
2,69876, Note_on_c, 0, 51, 0
2,69993, Control_c, 0, 64, 37
2,70002, Note_on_c, 0, 70, 0
2,70007, Control_c, 0, 64, 44
2,70011, Note_on_c, 0, 68, 59
2,70023, Control_c, 0, 64, 48
2,70038, Control_c, 0, 64, 52
2,70052, Control_c, 0, 64, 56
2,70068, Control_c, 0, 64, 57
2,70083, Control_c, 0, 64, 57
2,70213, Control_c, 0, 64, 55
2,70229, Control_c, 0, 64, 46
2,70241, Note_on_c, 0, 54, 39
2,70244, Control_c, 0, 64, 0
2,70244, Note_on_c, 0, 53, 0
2,70247, Note_on_c, 0, 68, 0
2,70248, Note_on_c, 0, 70, 58
2,70411, Control_c, 0, 64, 34
2,70427, Control_c, 0, 64, 49
2,70441, Control_c, 0, 64, 55
2,70456, Control_c, 0, 64, 59
2,70472, Control_c, 0, 64, 63
2,70486, Control_c, 0, 64, 66
2,70502, Control_c, 0, 64, 70
2,70517, Control_c, 0, 64, 76
2,70532, Control_c, 0, 64, 85
2,70548, Control_c, 0, 64, 98
2,70562, Control_c, 0, 64, 114
2,70577, Control_c, 0, 64, 127
2,70637, Note_on_c, 0, 72, 64
2,70638, Control_c, 0, 64, 124
2,70638, Note_on_c, 0, 63, 59
2,70653, Control_c, 0, 64, 89
2,70669, Control_c, 0, 64, 68
2,70672, Note_on_c, 0, 61, 0
2,70673, Note_on_c, 0, 70, 0
2,70684, Control_c, 0, 64, 46
2,70700, Control_c, 0, 64, 0
2,70775, Control_c, 0, 64, 44
2,70791, Control_c, 0, 64, 57
2,70806, Control_c, 0, 64, 61
2,70822, Control_c, 0, 64, 63
2,70837, Control_c, 0, 64, 65
2,70851, Control_c, 0, 64, 68
2,70867, Control_c, 0, 64, 73
2,70882, Control_c, 0, 64, 80
2,70896, Control_c, 0, 64, 88
2,70912, Control_c, 0, 64, 96
2,70927, Control_c, 0, 64, 100
2,70943, Control_c, 0, 64, 103
2,70965, Control_c, 0, 64, 104
2,70981, Control_c, 0, 64, 105
2,70996, Control_c, 0, 64, 106
2,71095, Note_on_c, 0, 73, 62
2,71103, Control_c, 0, 64, 103
2,71105, Note_on_c, 0, 56, 50
2,71118, Control_c, 0, 64, 87
2,71124, Note_on_c, 0, 63, 0
2,71132, Control_c, 0, 64, 70
2,71136, Note_on_c, 0, 72, 0
2,71148, Control_c, 0, 64, 51
2,71163, Control_c, 0, 64, 0
2,71284, Control_c, 0, 64, 40
2,71300, Control_c, 0, 64, 53
2,71315, Control_c, 0, 64, 59
2,71330, Control_c, 0, 64, 62
2,71345, Control_c, 0, 64, 64
2,71360, Control_c, 0, 64, 67
2,71375, Control_c, 0, 64, 71
2,71391, Control_c, 0, 64, 78
2,71406, Control_c, 0, 64, 86
2,71422, Control_c, 0, 64, 92
2,71436, Control_c, 0, 64, 93
2,71508, Note_on_c, 0, 53, 51
2,71513, Control_c, 0, 64, 93
2,71525, Note_on_c, 0, 68, 54
2,71528, Control_c, 0, 64, 88
2,71541, Note_on_c, 0, 54, 0
2,71543, Control_c, 0, 64, 77
2,71558, Control_c, 0, 64, 68
2,71573, Control_c, 0, 64, 59
2,71589, Control_c, 0, 64, 30
2,71604, Control_c, 0, 64, 0
2,71681, Note_on_c, 0, 53, 0
2,71684, Note_on_c, 0, 68, 0
2,71696, Note_on_c, 0, 51, 61
2,71706, Note_on_c, 0, 66, 63
2,71876, Note_on_c, 0, 66, 0
2,71895, Note_on_c, 0, 51, 0
2,71906, Note_on_c, 0, 53, 70
2,71910, Note_on_c, 0, 68, 61
2,71932, Note_on_c, 0, 56, 0
2,72063, Control_c, 0, 64, 29
2,72079, Control_c, 0, 64, 51
2,72094, Control_c, 0, 64, 58
2,72109, Control_c, 0, 64, 61
2,72124, Control_c, 0, 64, 63
2,72139, Control_c, 0, 64, 65
2,72155, Control_c, 0, 64, 69
2,72170, Control_c, 0, 64, 77
2,72184, Control_c, 0, 64, 86
2,72200, Control_c, 0, 64, 98
2,72215, Control_c, 0, 64, 111
2,72230, Control_c, 0, 64, 124
2,72246, Control_c, 0, 64, 127
2,72248, Note_on_c, 0, 73, 0
2,72292, Note_on_c, 0, 72, 71
2,72294, Note_on_c, 0, 68, 0
2,72295, Note_on_c, 0, 55, 54
2,72300, Note_on_c, 0, 63, 73
2,72306, Control_c, 0, 64, 102
2,72322, Control_c, 0, 64, 80
2,72322, Note_on_c, 0, 53, 0
2,72337, Control_c, 0, 64, 63
2,72352, Control_c, 0, 64, 0
2,72458, Control_c, 0, 64, 37
2,72481, Control_c, 0, 64, 52
2,72486, Note_on_c, 0, 70, 85
2,72496, Control_c, 0, 64, 58
2,72499, Note_on_c, 0, 72, 0
2,72511, Control_c, 0, 64, 60
2,72527, Control_c, 0, 64, 62
2,72542, Control_c, 0, 64, 63
2,72557, Control_c, 0, 64, 64
2,72572, Control_c, 0, 64, 65
2,72681, Control_c, 0, 64, 64
2,72695, Control_c, 0, 64, 60
2,72700, Note_on_c, 0, 72, 80
2,72709, Note_on_c, 0, 70, 0
2,72710, Control_c, 0, 64, 33
2,72711, Note_on_c, 0, 56, 60
2,72725, Note_on_c, 0, 55, 0
2,72726, Control_c, 0, 64, 0
2,72893, Control_c, 0, 64, 47
2,72908, Control_c, 0, 64, 58
2,72924, Control_c, 0, 64, 62
2,72939, Control_c, 0, 64, 64
2,72955, Control_c, 0, 64, 65
2,72969, Control_c, 0, 64, 68
2,72984, Control_c, 0, 64, 71
2,73000, Control_c, 0, 64, 77
2,73015, Control_c, 0, 64, 86
2,73029, Control_c, 0, 64, 94
2,73045, Control_c, 0, 64, 102
2,73060, Control_c, 0, 64, 110
2,73076, Control_c, 0, 64, 113
2,73108, Note_on_c, 0, 74, 81
2,73118, Note_on_c, 0, 65, 71
2,73121, Control_c, 0, 64, 108
2,73136, Control_c, 0, 64, 89
2,73141, Note_on_c, 0, 63, 0
2,73151, Control_c, 0, 64, 69
2,73157, Note_on_c, 0, 66, 30
2,73167, Control_c, 0, 64, 36
2,73181, Control_c, 0, 64, 0
2,73281, Control_c, 0, 64, 38
2,73296, Control_c, 0, 64, 53
2,73310, Control_c, 0, 64, 58
2,73326, Control_c, 0, 64, 60
2,73341, Control_c, 0, 64, 63
2,73357, Control_c, 0, 64, 65
2,73372, Control_c, 0, 64, 68
2,73376, Note_on_c, 0, 72, 0
2,73386, Control_c, 0, 64, 71
2,73402, Control_c, 0, 64, 76
2,73417, Control_c, 0, 64, 80
2,73431, Control_c, 0, 64, 84
2,73447, Control_c, 0, 64, 86
2,73463, Control_c, 0, 64, 87
2,73479, Note_on_c, 0, 66, 0
2,73527, Note_on_c, 0, 58, 70
2,73528, Note_on_c, 0, 75, 80
2,73555, Control_c, 0, 64, 80
2,73570, Control_c, 0, 64, 69
2,73573, Note_on_c, 0, 74, 0
2,73585, Control_c, 0, 64, 53
2,73601, Control_c, 0, 64, 0
2,73768, Control_c, 0, 64, 20
2,73783, Control_c, 0, 64, 35
2,73799, Control_c, 0, 64, 37
2,73838, Note_on_c, 0, 65, 0
2,73844, Control_c, 0, 64, 37
2,73859, Control_c, 0, 64, 30
2,73874, Control_c, 0, 64, 16
2,73889, Control_c, 0, 64, 0
2,73935, Note_on_c, 0, 55, 73
2,73963, Note_on_c, 0, 56, 0
2,74121, Note_on_c, 0, 53, 72
2,74142, Note_on_c, 0, 55, 0
2,74328, Note_on_c, 0, 55, 73
2,74350, Note_on_c, 0, 53, 0
2,74414, Control_c, 0, 64, 48
2,74429, Control_c, 0, 64, 61
2,74445, Control_c, 0, 64, 66
2,74459, Control_c, 0, 64, 75
2,74475, Control_c, 0, 64, 95
2,74490, Control_c, 0, 64, 127
2,74504, Note_on_c, 0, 58, 0
2,74700, Note_on_c, 0, 57, 51
2,74746, Note_on_c, 0, 55, 0
2,74779, Control_c, 0, 64, 99
2,74788, Note_on_c, 0, 65, 89
2,74801, Control_c, 0, 64, 69
2,74804, Note_on_c, 0, 73, 66
2,74816, Control_c, 0, 64, 0
2,74857, Note_on_c, 0, 75, 0
2,74923, Control_c, 0, 64, 39
2,74938, Control_c, 0, 64, 52
2,74954, Control_c, 0, 64, 57
2,74969, Control_c, 0, 64, 59
2,74984, Control_c, 0, 64, 61
2,74999, Control_c, 0, 64, 63
2,75014, Control_c, 0, 64, 65
2,75029, Control_c, 0, 64, 68
2,75037, Note_on_c, 0, 73, 0
2,75044, Control_c, 0, 64, 73
2,75049, Note_on_c, 0, 72, 67
2,75059, Control_c, 0, 64, 80
2,75075, Control_c, 0, 64, 88
2,75091, Control_c, 0, 64, 96
2,75106, Control_c, 0, 64, 101
2,75122, Control_c, 0, 64, 103
2,75137, Control_c, 0, 64, 105
2,75151, Control_c, 0, 64, 106
2,75213, Control_c, 0, 64, 94
2,75227, Control_c, 0, 64, 77
2,75239, Note_on_c, 0, 58, 59
2,75243, Control_c, 0, 64, 61
2,75245, Note_on_c, 0, 72, 0
2,75247, Note_on_c, 0, 57, 0
2,75252, Note_on_c, 0, 73, 63
2,75258, Control_c, 0, 64, 0
2,75319, Control_c, 0, 64, 23
2,75334, Control_c, 0, 64, 50
2,75348, Control_c, 0, 64, 60
2,75364, Control_c, 0, 64, 63
2,75379, Control_c, 0, 64, 66
2,75395, Control_c, 0, 64, 69
2,75410, Control_c, 0, 64, 75
2,75425, Control_c, 0, 64, 83
2,75431, Note_on_c, 0, 75, 70
2,75436, Note_on_c, 0, 60, 69
2,75440, Control_c, 0, 64, 90
2,75452, Note_on_c, 0, 73, 0
2,75455, Control_c, 0, 64, 93
2,75459, Note_on_c, 0, 58, 0
2,75470, Control_c, 0, 64, 94
2,75486, Control_c, 0, 64, 95
2,75501, Control_c, 0, 64, 96
2,75517, Control_c, 0, 64, 99
2,75532, Control_c, 0, 64, 102
2,75547, Control_c, 0, 64, 103
2,75629, Note_on_c, 0, 58, 83
2,75645, Note_on_c, 0, 73, 77
2,75647, Note_on_c, 0, 75, 0
2,75654, Note_on_c, 0, 60, 0
2,75676, Control_c, 0, 64, 102
2,75681, Note_on_c, 0, 65, 0
2,75690, Control_c, 0, 64, 96
2,75705, Control_c, 0, 64, 86
2,75721, Control_c, 0, 64, 74
2,75736, Control_c, 0, 64, 64
2,75751, Control_c, 0, 64, 39
2,75766, Control_c, 0, 64, 0
2,75806, Note_on_c, 0, 60, 71
2,75810, Note_on_c, 0, 75, 87
2,75859, Note_on_c, 0, 73, 0
2,75998, Note_on_c, 0, 77, 89
2,76003, Note_on_c, 0, 61, 65
2,76021, Note_on_c, 0, 60, 0
2,76055, Note_on_c, 0, 75, 0
2,76121, Note_on_c, 0, 58, 0
2,76143, Note_on_c, 0, 61, 0
2,76174, Note_on_c, 0, 60, 70
2,76372, Note_on_c, 0, 73, 93
2,76379, Note_on_c, 0, 58, 66
2,76406, Note_on_c, 0, 60, 0
2,76549, Note_on_c, 0, 56, 75
2,76571, Note_on_c, 0, 58, 0
2,76732, Note_on_c, 0, 54, 60
2,76733, Note_on_c, 0, 75, 92
2,76736, Note_on_c, 0, 72, 88
2,76769, Note_on_c, 0, 73, 0
2,76776, Note_on_c, 0, 77, 0
2,76779, Note_on_c, 0, 56, 0
2,76925, Note_on_c, 0, 53, 69
2,76932, Note_on_c, 0, 54, 0
2,77080, Note_on_c, 0, 72, 0
2,77117, Note_on_c, 0, 70, 88
2,77119, Note_on_c, 0, 54, 71
2,77125, Note_on_c, 0, 53, 0
2,77286, Note_on_c, 0, 51, 74
2,77318, Note_on_c, 0, 54, 0
2,77418, Note_on_c, 0, 51, 0
2,77466, Note_on_c, 0, 70, 0
2,77492, Note_on_c, 0, 53, 82
2,77505, Note_on_c, 0, 69, 61
2,77553, Note_on_c, 0, 75, 0
2,77677, Note_on_c, 0, 70, 88
2,77704, Note_on_c, 0, 69, 0
2,77839, Note_on_c, 0, 70, 0
2,77850, Note_on_c, 0, 75, 88
2,77867, Note_on_c, 0, 72, 75
2,78009, Note_on_c, 0, 72, 0
2,78033, Note_on_c, 0, 69, 84
2,78249, Note_on_c, 0, 73, 87
2,78252, Note_on_c, 0, 46, 67
2,78258, Note_on_c, 0, 69, 0
2,78264, Note_on_c, 0, 65, 67
2,78275, Note_on_c, 0, 53, 0
2,78288, Note_on_c, 0, 75, 0
2,78438, Control_c, 0, 64, 22
2,78452, Control_c, 0, 64, 51
2,78468, Control_c, 0, 64, 58
2,78483, Control_c, 0, 64, 61
2,78498, Control_c, 0, 64, 63
2,78514, Control_c, 0, 64, 66
2,78528, Control_c, 0, 64, 71
2,78543, Control_c, 0, 64, 79
2,78559, Control_c, 0, 64, 89
2,78574, Control_c, 0, 64, 99
2,78590, Control_c, 0, 64, 101
2,78620, Note_on_c, 0, 72, 82
2,78643, Control_c, 0, 64, 97
2,78651, Note_on_c, 0, 73, 0
2,78653, Note_on_c, 0, 68, 63
2,78657, Control_c, 0, 64, 81
2,78673, Control_c, 0, 64, 64
2,78688, Control_c, 0, 64, 0
2,78689, Note_on_c, 0, 65, 0
2,78795, Control_c, 0, 64, 28
2,78809, Control_c, 0, 64, 52
2,78824, Control_c, 0, 64, 58
2,78840, Control_c, 0, 64, 62
2,78855, Control_c, 0, 64, 64
2,78870, Control_c, 0, 64, 68
2,78885, Control_c, 0, 64, 76
2,78899, Note_on_c, 0, 46, 0
2,78900, Control_c, 0, 64, 90
2,78916, Control_c, 0, 64, 114
2,78931, Control_c, 0, 64, 127
2,79030, Note_on_c, 0, 70, 79
2,79039, Note_on_c, 0, 66, 57
2,79053, Control_c, 0, 64, 92
2,79067, Note_on_c, 0, 72, 0
2,79068, Control_c, 0, 64, 68
2,79072, Note_on_c, 0, 68, 0
2,79083, Control_c, 0, 64, 31
2,79098, Control_c, 0, 64, 0
2,79174, Control_c, 0, 64, 40
2,79191, Control_c, 0, 64, 54
2,79206, Control_c, 0, 64, 60
2,79221, Control_c, 0, 64, 63
2,79227, Note_on_c, 0, 72, 82
2,79236, Control_c, 0, 64, 65
2,79251, Control_c, 0, 64, 70
2,79251, Note_on_c, 0, 70, 0
2,79267, Control_c, 0, 64, 77
2,79282, Control_c, 0, 64, 88
2,79296, Control_c, 0, 64, 104
2,79312, Control_c, 0, 64, 121
2,79327, Control_c, 0, 64, 124
2,79396, Control_c, 0, 64, 101
2,79408, Note_on_c, 0, 61, 84
2,79411, Control_c, 0, 64, 79
2,79425, Note_on_c, 0, 73, 68
2,79427, Control_c, 0, 64, 62
2,79439, Note_on_c, 0, 72, 0
2,79441, Control_c, 0, 64, 0
2,79441, Note_on_c, 0, 65, 53
2,79517, Note_on_c, 0, 65, 0
2,79533, Control_c, 0, 64, 49
2,79540, Note_on_c, 0, 66, 0
2,79549, Control_c, 0, 64, 60
2,79564, Control_c, 0, 64, 64
2,79578, Control_c, 0, 64, 66
2,79585, Note_on_c, 0, 70, 77
2,79594, Control_c, 0, 64, 71
2,79609, Control_c, 0, 64, 78
2,79609, Note_on_c, 0, 73, 0
2,79624, Control_c, 0, 64, 90
2,79640, Control_c, 0, 64, 107
2,79654, Control_c, 0, 64, 127
2,79802, Note_on_c, 0, 60, 74
2,79820, Note_on_c, 0, 61, 0
2,79827, Note_on_c, 0, 63, 52
2,79830, Note_on_c, 0, 70, 0
2,79836, Note_on_c, 0, 68, 64
2,79852, Control_c, 0, 64, 108
2,79867, Control_c, 0, 64, 83
2,79882, Control_c, 0, 64, 67
2,79897, Control_c, 0, 64, 43
2,79913, Control_c, 0, 64, 0
2,79944, Note_on_c, 0, 68, 0
2,79960, Note_on_c, 0, 66, 66
2,80008, Note_on_c, 0, 66, 0
2,80032, Note_on_c, 0, 68, 71
2,80086, Note_on_c, 0, 68, 0
2,80098, Note_on_c, 0, 66, 69
2,80142, Note_on_c, 0, 66, 0
2,80147, Note_on_c, 0, 68, 70
2,80191, Note_on_c, 0, 58, 54
2,80212, Note_on_c, 0, 68, 0
2,80222, Note_on_c, 0, 66, 61
2,80231, Note_on_c, 0, 60, 0
2,80255, Note_on_c, 0, 66, 0
2,80260, Note_on_c, 0, 68, 61
2,80321, Note_on_c, 0, 66, 82
2,80333, Note_on_c, 0, 68, 0
2,80377, Note_on_c, 0, 66, 0
2,80389, Note_on_c, 0, 65, 73
2,80460, Note_on_c, 0, 66, 88
2,80491, Note_on_c, 0, 65, 0
2,80569, Note_on_c, 0, 57, 57
2,80575, Note_on_c, 0, 58, 0
2,80602, Note_on_c, 0, 66, 0
2,80637, Note_on_c, 0, 77, 87
2,80661, Note_on_c, 0, 65, 60
2,80756, Control_c, 0, 64, 21
2,80771, Control_c, 0, 64, 52
2,80787, Control_c, 0, 64, 60
2,80802, Control_c, 0, 64, 64
2,80817, Control_c, 0, 64, 67
2,80834, Control_c, 0, 64, 72
2,80849, Control_c, 0, 64, 79
2,80863, Control_c, 0, 64, 87
2,80879, Control_c, 0, 64, 96
2,80894, Control_c, 0, 64, 107
2,80910, Control_c, 0, 64, 127
2,80939, Note_on_c, 0, 57, 0
2,80945, Note_on_c, 0, 63, 0
2,81012, Note_on_c, 0, 62, 64
2,81022, Note_on_c, 0, 56, 53
2,81187, Note_on_c, 0, 60, 71
2,81188, Note_on_c, 0, 62, 0
2,81191, Control_c, 0, 64, 119
2,81205, Control_c, 0, 64, 93
2,81220, Control_c, 0, 64, 77
2,81232, Note_on_c, 0, 59, 27
2,81233, Note_on_c, 0, 59, 0
2,81236, Control_c, 0, 64, 65
2,81251, Control_c, 0, 64, 40
2,81267, Control_c, 0, 64, 0
2,81367, Note_on_c, 0, 60, 0
2,81396, Note_on_c, 0, 70, 87
2,81398, Note_on_c, 0, 62, 64
2,81420, Note_on_c, 0, 65, 0
2,81442, Note_on_c, 0, 77, 0
2,81540, Control_c, 0, 64, 45
2,81555, Control_c, 0, 64, 56
2,81570, Control_c, 0, 64, 62
2,81585, Control_c, 0, 64, 66
2,81600, Control_c, 0, 64, 71
2,81615, Control_c, 0, 64, 80
2,81631, Control_c, 0, 64, 95
2,81647, Control_c, 0, 64, 127
2,81773, Note_on_c, 0, 56, 0
2,81794, Note_on_c, 0, 54, 66
2,81836, Control_c, 0, 64, 90
2,81851, Control_c, 0, 64, 73
2,81867, Control_c, 0, 64, 62
2,81882, Control_c, 0, 64, 28
2,81897, Control_c, 0, 64, 0
2,81970, Note_on_c, 0, 53, 73
2,82001, Note_on_c, 0, 54, 0
2,82117, Note_on_c, 0, 70, 0
2,82170, Note_on_c, 0, 63, 82
2,82175, Note_on_c, 0, 53, 0
2,82182, Note_on_c, 0, 54, 67
2,82210, Note_on_c, 0, 62, 0
2,82560, Note_on_c, 0, 83, 93
2,82564, Note_on_c, 0, 56, 60
2,82587, Note_on_c, 0, 54, 0
2,82936, Note_on_c, 0, 82, 97
2,82942, Note_on_c, 0, 58, 84
2,82949, Note_on_c, 0, 62, 77
2,82963, Note_on_c, 0, 83, 0
2,82975, Note_on_c, 0, 56, 0
2,82979, Note_on_c, 0, 63, 0
2,83324, Note_on_c, 0, 77, 96
2,83324, Note_on_c, 0, 80, 87
2,83362, Note_on_c, 0, 82, 0
2,83389, Control_c, 0, 64, 41
2,83404, Control_c, 0, 64, 58
2,83419, Control_c, 0, 64, 63
2,83435, Control_c, 0, 64, 67
2,83449, Control_c, 0, 64, 74
2,83464, Control_c, 0, 64, 88
2,83480, Control_c, 0, 64, 127
2,83682, Note_on_c, 0, 62, 0
2,83683, Note_on_c, 0, 77, 0
2,83703, Note_on_c, 0, 78, 89
2,83704, Note_on_c, 0, 80, 0
2,83708, Note_on_c, 0, 63, 72
2,83710, Note_on_c, 0, 75, 95
2,83715, Note_on_c, 0, 51, 72
2,83722, Control_c, 0, 64, 82
2,83731, Note_on_c, 0, 80, 20
2,83737, Control_c, 0, 64, 55
2,83740, Note_on_c, 0, 58, 0
2,83752, Note_on_c, 0, 80, 0
2,83753, Control_c, 0, 64, 0
2,83829, Control_c, 0, 64, 43
2,83844, Control_c, 0, 64, 59
2,83859, Control_c, 0, 64, 64
2,83875, Control_c, 0, 64, 67
2,83890, Control_c, 0, 64, 72
2,83905, Control_c, 0, 64, 79
2,83920, Control_c, 0, 64, 85
2,83935, Control_c, 0, 64, 91
2,83951, Control_c, 0, 64, 97
2,83966, Control_c, 0, 64, 102
2,83981, Control_c, 0, 64, 112
2,84003, Control_c, 0, 64, 127
2,84105, Note_on_c, 0, 73, 94
2,84109, Note_on_c, 0, 70, 89
2,84114, Note_on_c, 0, 63, 0
2,84119, Note_on_c, 0, 75, 0
2,84143, Note_on_c, 0, 78, 0
2,84314, Note_on_c, 0, 70, 0
2,84491, Note_on_c, 0, 73, 0
2,84514, Note_on_c, 0, 76, 89
2,84519, Note_on_c, 0, 71, 80
2,84523, Note_on_c, 0, 44, 69
2,84525, Note_on_c, 0, 68, 76
2,84552, Control_c, 0, 64, 78
2,84566, Control_c, 0, 64, 55
2,84568, Note_on_c, 0, 51, 0
2,84581, Control_c, 0, 64, 0
2,84673, Control_c, 0, 64, 38
2,84688, Control_c, 0, 64, 57
2,84703, Control_c, 0, 64, 63
2,84718, Control_c, 0, 64, 66
2,84733, Control_c, 0, 64, 70
2,84745, Note_on_c, 0, 68, 0
2,84749, Control_c, 0, 64, 80
2,84764, Control_c, 0, 64, 95
2,84787, Control_c, 0, 64, 127
2,84926, Note_on_c, 0, 75, 92
2,84947, Note_on_c, 0, 66, 69
2,84952, Note_on_c, 0, 76, 0
2,84970, Control_c, 0, 64, 76
2,84985, Control_c, 0, 64, 55
2,85000, Control_c, 0, 64, 0
2,85046, Control_c, 0, 64, 51
2,85061, Control_c, 0, 64, 62
2,85076, Control_c, 0, 64, 67
2,85091, Control_c, 0, 64, 77
2,85102, Note_on_c, 0, 71, 0
2,85107, Control_c, 0, 64, 104
2,85122, Control_c, 0, 64, 127
2,85172, Note_on_c, 0, 66, 0
2,85324, Note_on_c, 0, 74, 79
2,85330, Note_on_c, 0, 53, 83
2,85330, Note_on_c, 0, 75, 0
2,85338, Note_on_c, 0, 65, 65
2,85339, Note_on_c, 0, 70, 65
2,85350, Control_c, 0, 64, 100
2,85365, Control_c, 0, 64, 69
2,85380, Control_c, 0, 64, 20
2,85396, Control_c, 0, 64, 0
2,85501, Control_c, 0, 64, 45
2,85517, Control_c, 0, 64, 57
2,85532, Control_c, 0, 64, 61
2,85555, Control_c, 0, 64, 64
2,85570, Control_c, 0, 64, 66
2,85585, Control_c, 0, 64, 71
2,85601, Control_c, 0, 64, 83
2,85616, Control_c, 0, 64, 100
2,85631, Control_c, 0, 64, 127
2,85738, Note_on_c, 0, 42, 75
2,85752, Control_c, 0, 64, 88
2,85767, Control_c, 0, 64, 64
2,85779, Note_on_c, 0, 44, 0
2,85782, Control_c, 0, 64, 0
2,85858, Control_c, 0, 64, 45
2,85874, Control_c, 0, 64, 58
2,85889, Control_c, 0, 64, 64
2,85901, Note_on_c, 0, 65, 0
2,85904, Control_c, 0, 64, 67
2,85919, Control_c, 0, 64, 73
2,85934, Control_c, 0, 64, 84
2,85950, Control_c, 0, 64, 100
2,85965, Control_c, 0, 64, 127
2,86131, Note_on_c, 0, 46, 75
2,86131, Note_on_c, 0, 75, 81
2,86142, Note_on_c, 0, 66, 65
2,86143, Note_on_c, 0, 41, 57
2,86147, Control_c, 0, 64, 87
2,86154, Note_on_c, 0, 42, 0
2,86160, Note_on_c, 0, 74, 0
2,86162, Control_c, 0, 64, 65
2,86167, Note_on_c, 0, 53, 0
2,86176, Control_c, 0, 64, 0
2,86269, Control_c, 0, 64, 22
2,86284, Control_c, 0, 64, 53
2,86299, Control_c, 0, 64, 61
2,86322, Control_c, 0, 64, 64
2,86336, Control_c, 0, 64, 66
2,86352, Control_c, 0, 64, 70
2,86367, Control_c, 0, 64, 76
2,86382, Control_c, 0, 64, 87
2,86397, Control_c, 0, 64, 103
2,86413, Control_c, 0, 64, 127
2,86548, Note_on_c, 0, 39, 66
2,86550, Control_c, 0, 64, 113
2,86562, Note_on_c, 0, 41, 0
2,86566, Control_c, 0, 64, 74
2,86581, Control_c, 0, 64, 47
2,86597, Control_c, 0, 64, 0
2,86673, Control_c, 0, 64, 33
2,86688, Control_c, 0, 64, 56
2,86702, Control_c, 0, 64, 62
2,86718, Control_c, 0, 64, 65
2,86721, Note_on_c, 0, 46, 0
2,86733, Control_c, 0, 64, 68
2,86749, Control_c, 0, 64, 75
2,86764, Control_c, 0, 64, 90
2,86779, Control_c, 0, 64, 127
2,86808, Note_on_c, 0, 66, 0
2,86995, Note_on_c, 0, 46, 60
2,86998, Note_on_c, 0, 65, 81
2,87005, Note_on_c, 0, 39, 0
2,87024, Control_c, 0, 64, 100
2,87039, Control_c, 0, 64, 69
2,87054, Control_c, 0, 64, 12
2,87070, Control_c, 0, 64, 0
2,87154, Control_c, 0, 64, 33
2,87169, Control_c, 0, 64, 54
2,87185, Control_c, 0, 64, 61
2,87199, Control_c, 0, 64, 64
2,87214, Control_c, 0, 64, 67
2,87230, Control_c, 0, 64, 71
2,87244, Control_c, 0, 64, 79
2,87260, Control_c, 0, 64, 90
2,87275, Control_c, 0, 64, 104
2,87290, Control_c, 0, 64, 108
2,87382, Control_c, 0, 64, 107
2,87398, Control_c, 0, 64, 99
2,87412, Control_c, 0, 64, 89
2,87418, Note_on_c, 0, 59, 77
2,87428, Control_c, 0, 64, 79
2,87443, Control_c, 0, 64, 70
2,87458, Control_c, 0, 64, 62
2,87473, Control_c, 0, 64, 43
2,87488, Control_c, 0, 64, 0
2,87830, Note_on_c, 0, 58, 75
2,87833, Note_on_c, 0, 74, 74
2,87858, Note_on_c, 0, 75, 0
2,87876, Note_on_c, 0, 59, 0
2,88269, Note_on_c, 0, 56, 73
2,88319, Note_on_c, 0, 58, 0
2,88332, Control_c, 0, 64, 21
2,88346, Note_on_c, 0, 46, 0
2,88348, Control_c, 0, 64, 46
2,88363, Control_c, 0, 64, 55
2,88374, Note_on_c, 0, 65, 0
2,88377, Note_on_c, 0, 74, 0
2,88378, Control_c, 0, 64, 61
2,88393, Control_c, 0, 64, 64
2,88408, Control_c, 0, 64, 70
2,88424, Control_c, 0, 64, 82
2,88439, Control_c, 0, 64, 127
2,88439, Note_on_c, 0, 70, 0
2,88649, Note_on_c, 0, 56, 0
2,88799, Note_on_c, 0, 70, 87
2,88804, Note_on_c, 0, 75, 78
2,88806, Note_on_c, 0, 54, 46
2,88809, Note_on_c, 0, 51, 41
2,88833, Note_on_c, 0, 63, 54
2,88902, Control_c, 0, 64, 101
2,88916, Control_c, 0, 64, 82
2,88931, Control_c, 0, 64, 68
2,88947, Control_c, 0, 64, 50
2,88962, Control_c, 0, 64, 0
2,89115, Control_c, 0, 64, 12
2,89130, Control_c, 0, 64, 43
2,89146, Control_c, 0, 64, 54
2,89160, Control_c, 0, 64, 59
2,89175, Control_c, 0, 64, 62
2,89191, Control_c, 0, 64, 64
2,89206, Control_c, 0, 64, 65
2,89222, Control_c, 0, 64, 68
2,89236, Control_c, 0, 64, 71
2,89251, Control_c, 0, 64, 75
2,89267, Control_c, 0, 64, 79
2,89282, Control_c, 0, 64, 84
2,89285, Note_on_c, 0, 54, 0
2,89288, Note_on_c, 0, 75, 0
2,89297, Control_c, 0, 64, 89
2,89313, Control_c, 0, 64, 94
2,89316, Note_on_c, 0, 53, 41
2,89328, Control_c, 0, 64, 100
2,89344, Control_c, 0, 64, 106
2,89344, Note_on_c, 0, 70, 0
2,89358, Control_c, 0, 64, 110
2,89364, Note_on_c, 0, 63, 0
2,89373, Control_c, 0, 64, 114
2,89747, Control_c, 0, 64, 110
2,89761, Control_c, 0, 64, 106
2,89761, Note_on_c, 0, 63, 74
2,89776, Control_c, 0, 64, 101
2,89788, Note_on_c, 0, 54, 41
2,89792, Control_c, 0, 64, 95
2,89792, Note_on_c, 0, 58, 49
2,89807, Control_c, 0, 64, 89
2,89823, Control_c, 0, 64, 81
2,89839, Control_c, 0, 64, 70
2,89853, Control_c, 0, 64, 62
2,89869, Control_c, 0, 64, 41
2,89870, Note_on_c, 0, 53, 0
2,89884, Control_c, 0, 64, 0
2,90199, Note_on_c, 0, 56, 53
2,90208, Note_on_c, 0, 53, 41
2,90256, Control_c, 0, 64, 45
2,90256, Note_on_c, 0, 54, 0
2,90267, Note_on_c, 0, 51, 0
2,90272, Control_c, 0, 64, 60
2,90286, Control_c, 0, 64, 65
2,90299, Note_on_c, 0, 58, 0
2,90302, Control_c, 0, 64, 69
2,90316, Note_on_c, 0, 53, 0
2,90317, Control_c, 0, 64, 77
2,90328, Note_on_c, 0, 56, 0
2,90332, Control_c, 0, 64, 91
2,90348, Control_c, 0, 64, 127
2,90452, Note_on_c, 0, 63, 0
2,90616, Note_on_c, 0, 58, 56
2,90629, Note_on_c, 0, 54, 53
2,90667, Control_c, 0, 64, 87
2,90682, Control_c, 0, 64, 68
2,90697, Control_c, 0, 64, 52
2,90713, Control_c, 0, 64, 0
2,90999, Note_on_c, 0, 60, 38
2,91081, Note_on_c, 0, 77, 82
2,91128, Note_on_c, 0, 73, 47
2,91221, Note_on_c, 0, 60, 0
2,91250, Note_on_c, 0, 61, 57
2,91316, Note_on_c, 0, 58, 0
2,91519, Note_on_c, 0, 75, 80
2,91529, Note_on_c, 0, 72, 57
2,91546, Note_on_c, 0, 73, 0
2,91548, Note_on_c, 0, 63, 41
2,91550, Note_on_c, 0, 77, 0
2,91581, Note_on_c, 0, 61, 0
2,91958, Note_on_c, 0, 73, 71
2,91969, Note_on_c, 0, 72, 0
2,91984, Note_on_c, 0, 70, 44
2,91999, Note_on_c, 0, 75, 0
2,92358, Note_on_c, 0, 70, 0
2,92364, Note_on_c, 0, 73, 0
2,92372, Note_on_c, 0, 72, 64
2,92386, Note_on_c, 0, 69, 43
2,92470, Control_c, 0, 64, 49
2,92484, Control_c, 0, 64, 61
2,92499, Control_c, 0, 64, 64
2,92515, Control_c, 0, 64, 69
2,92529, Control_c, 0, 64, 77
2,92545, Control_c, 0, 64, 92
2,92548, Note_on_c, 0, 63, 0
2,92560, Control_c, 0, 64, 127
2,92560, Note_on_c, 0, 54, 0
2,92756, Note_on_c, 0, 72, 0
2,92791, Note_on_c, 0, 70, 69
2,92805, Note_on_c, 0, 69, 0
2,92808, Note_on_c, 0, 61, 45
2,92812, Note_on_c, 0, 53, 45
2,92825, Note_on_c, 0, 67, 48
2,92848, Control_c, 0, 64, 76
2,92863, Control_c, 0, 64, 57
2,92878, Control_c, 0, 64, 0
2,92954, Control_c, 0, 64, 48
2,92969, Control_c, 0, 64, 60
2,92985, Control_c, 0, 64, 65
2,93000, Control_c, 0, 64, 71
2,93015, Control_c, 0, 64, 79
2,93031, Control_c, 0, 64, 95
2,93040, Note_on_c, 0, 61, 0
2,93045, Control_c, 0, 64, 127
2,93176, Note_on_c, 0, 67, 0
2,93201, Note_on_c, 0, 53, 0
2,93206, Note_on_c, 0, 72, 84
2,93211, Note_on_c, 0, 60, 62
2,93216, Note_on_c, 0, 51, 51
2,93232, Note_on_c, 0, 70, 0
2,93235, Note_on_c, 0, 69, 66
2,93251, Control_c, 0, 64, 88
2,93267, Control_c, 0, 64, 65
2,93282, Control_c, 0, 64, 0
2,93359, Control_c, 0, 64, 25
2,93374, Control_c, 0, 64, 52
2,93389, Control_c, 0, 64, 60
2,93404, Control_c, 0, 64, 64
2,93419, Control_c, 0, 64, 67
2,93435, Control_c, 0, 64, 73
2,93450, Control_c, 0, 64, 82
2,93465, Control_c, 0, 64, 98
2,93480, Control_c, 0, 64, 127
2,93519, Note_on_c, 0, 51, 0
2,93573, Note_on_c, 0, 60, 0
2,93593, Note_on_c, 0, 69, 0
2,93611, Note_on_c, 0, 72, 0
2,93623, Note_on_c, 0, 73, 84
2,93626, Note_on_c, 0, 58, 58
2,93631, Note_on_c, 0, 70, 77
2,93633, Note_on_c, 0, 49, 53
2,93648, Control_c, 0, 64, 75
2,93663, Control_c, 0, 64, 52
2,93678, Control_c, 0, 64, 0
2,93769, Control_c, 0, 64, 45
2,93783, Note_on_c, 0, 49, 0
2,93784, Control_c, 0, 64, 59
2,93799, Control_c, 0, 64, 63
2,93814, Control_c, 0, 64, 66
2,93830, Control_c, 0, 64, 70
2,93845, Control_c, 0, 64, 79
2,93859, Control_c, 0, 64, 96
2,93875, Control_c, 0, 64, 127
2,94018, Note_on_c, 0, 58, 0
2,94039, Note_on_c, 0, 75, 79
2,94046, Note_on_c, 0, 57, 54
2,94046, Note_on_c, 0, 72, 67
2,94049, Note_on_c, 0, 48, 51
2,94051, Control_c, 0, 64, 94
2,94067, Control_c, 0, 64, 65
2,94072, Note_on_c, 0, 73, 0
2,94078, Note_on_c, 0, 70, 0
2,94082, Control_c, 0, 64, 0
2,94203, Control_c, 0, 64, 42
2,94218, Control_c, 0, 64, 58
2,94233, Control_c, 0, 64, 63
2,94248, Control_c, 0, 64, 67
2,94258, Note_on_c, 0, 75, 0
2,94264, Control_c, 0, 64, 73
2,94279, Control_c, 0, 64, 88
2,94294, Control_c, 0, 64, 127
2,94402, Note_on_c, 0, 72, 0
2,94421, Note_on_c, 0, 57, 0
2,94431, Note_on_c, 0, 48, 0
2,94440, Note_on_c, 0, 78, 86
2,94447, Note_on_c, 0, 75, 75
2,94507, Control_c, 0, 64, 96
2,94522, Control_c, 0, 64, 71
2,94537, Control_c, 0, 64, 47
2,94552, Control_c, 0, 64, 0
2,94862, Note_on_c, 0, 77, 84
2,94867, Note_on_c, 0, 56, 68
2,94868, Note_on_c, 0, 73, 77
2,94879, Note_on_c, 0, 53, 58
2,94882, Note_on_c, 0, 75, 0
2,95002, Note_on_c, 0, 78, 0
2,95280, Note_on_c, 0, 75, 78
2,95281, Note_on_c, 0, 71, 68
2,95292, Note_on_c, 0, 77, 0
2,95317, Note_on_c, 0, 73, 0
2,95650, Note_on_c, 0, 71, 0
2,95693, Note_on_c, 0, 74, 68
2,95695, Note_on_c, 0, 46, 43
2,95698, Note_on_c, 0, 70, 64
2,95724, Note_on_c, 0, 53, 0
2,95774, Note_on_c, 0, 75, 0
2,95858, Control_c, 0, 64, 23
2,95874, Control_c, 0, 64, 54
2,95889, Control_c, 0, 64, 62
2,95905, Control_c, 0, 64, 67
2,95906, Note_on_c, 0, 74, 0
2,95920, Control_c, 0, 64, 73
2,95934, Control_c, 0, 64, 82
2,95950, Control_c, 0, 64, 94
2,95965, Control_c, 0, 64, 111
2,95981, Control_c, 0, 64, 127
2,96054, Note_on_c, 0, 70, 0
2,96096, Note_on_c, 0, 77, 85
2,96102, Note_on_c, 0, 74, 65
2,96132, Control_c, 0, 64, 114
2,96148, Control_c, 0, 64, 89
2,96163, Control_c, 0, 64, 73
2,96178, Control_c, 0, 64, 57
2,96193, Control_c, 0, 64, 0
2,96335, Note_on_c, 0, 46, 0
2,96335, Note_on_c, 0, 56, 0
2,96533, Note_on_c, 0, 75, 88
2,96544, Note_on_c, 0, 72, 77
2,96549, Note_on_c, 0, 54, 60
2,96563, Note_on_c, 0, 51, 49
2,96602, Note_on_c, 0, 77, 0
2,96607, Note_on_c, 0, 74, 0
2,96953, Note_on_c, 0, 73, 89
2,96961, Note_on_c, 0, 70, 65
2,96977, Note_on_c, 0, 72, 0
2,97026, Note_on_c, 0, 75, 0
2,97136, Control_c, 0, 64, 39
2,97152, Control_c, 0, 64, 56
2,97167, Control_c, 0, 64, 61
2,97183, Control_c, 0, 64, 64
2,97198, Control_c, 0, 64, 66
2,97212, Control_c, 0, 64, 71
2,97229, Control_c, 0, 64, 79
2,97244, Control_c, 0, 64, 96
2,97259, Control_c, 0, 64, 127
2,97350, Note_on_c, 0, 70, 0
2,97373, Note_on_c, 0, 72, 76
2,97400, Note_on_c, 0, 69, 54
2,97427, Control_c, 0, 64, 97
2,97442, Control_c, 0, 64, 69
2,97451, Note_on_c, 0, 73, 0
2,97457, Control_c, 0, 64, 47
2,97472, Control_c, 0, 64, 0
2,97510, Note_on_c, 0, 69, 0
2,97510, Note_on_c, 0, 69, 24
2,97563, Control_c, 0, 64, 30
2,97578, Control_c, 0, 64, 54
2,97594, Control_c, 0, 64, 61
2,97608, Control_c, 0, 64, 64
2,97624, Control_c, 0, 64, 66
2,97639, Control_c, 0, 64, 70
2,97654, Control_c, 0, 64, 77
2,97670, Control_c, 0, 64, 85
2,97684, Control_c, 0, 64, 92
2,97699, Control_c, 0, 64, 94
2,97755, Note_on_c, 0, 54, 0
2,97760, Control_c, 0, 64, 87
2,97763, Note_on_c, 0, 53, 63
2,97770, Note_on_c, 0, 49, 55
2,97775, Control_c, 0, 64, 74
2,97791, Control_c, 0, 64, 61
2,97794, Note_on_c, 0, 51, 0
2,97806, Control_c, 0, 64, 0
2,97905, Control_c, 0, 64, 48
2,97920, Control_c, 0, 64, 57
2,97934, Control_c, 0, 64, 61
2,97950, Control_c, 0, 64, 62
2,97965, Control_c, 0, 64, 64
2,97981, Control_c, 0, 64, 66
2,97996, Control_c, 0, 64, 70
2,98010, Control_c, 0, 64, 75
2,98026, Control_c, 0, 64, 81
2,98042, Control_c, 0, 64, 87
2,98057, Control_c, 0, 64, 89
2,98073, Control_c, 0, 64, 90
2,98104, Control_c, 0, 64, 91
2,98118, Control_c, 0, 64, 91
2,98177, Note_on_c, 0, 53, 0
2,98183, Note_on_c, 0, 51, 53
2,98185, Note_on_c, 0, 73, 78
2,98189, Note_on_c, 0, 49, 0
2,98194, Control_c, 0, 64, 84
2,98200, Note_on_c, 0, 48, 51
2,98200, Note_on_c, 0, 72, 0
2,98201, Note_on_c, 0, 70, 61
2,98209, Control_c, 0, 64, 72
2,98211, Note_on_c, 0, 69, 0
2,98225, Control_c, 0, 64, 59
2,98240, Control_c, 0, 64, 0
2,98361, Control_c, 0, 64, 45
2,98376, Control_c, 0, 64, 56
2,98392, Control_c, 0, 64, 60
2,98407, Control_c, 0, 64, 62
2,98423, Control_c, 0, 64, 64
2,98437, Control_c, 0, 64, 64
2,98452, Control_c, 0, 64, 66
2,98468, Control_c, 0, 64, 68
2,98483, Control_c, 0, 64, 71
2,98498, Control_c, 0, 64, 77
2,98514, Control_c, 0, 64, 84
2,98528, Control_c, 0, 64, 91
2,98544, Control_c, 0, 64, 95
2,98612, Control_c, 0, 64, 88
2,98613, Note_on_c, 0, 49, 51
2,98625, Note_on_c, 0, 51, 0
2,98626, Note_on_c, 0, 48, 0
2,98628, Control_c, 0, 64, 74
2,98628, Note_on_c, 0, 46, 50
2,98643, Control_c, 0, 64, 61
2,98657, Control_c, 0, 64, 0
2,98764, Control_c, 0, 64, 17
2,98778, Control_c, 0, 64, 47
2,98794, Control_c, 0, 64, 54
2,98809, Control_c, 0, 64, 58
2,98825, Control_c, 0, 64, 61
2,98840, Control_c, 0, 64, 63
2,98856, Control_c, 0, 64, 65
2,98872, Control_c, 0, 64, 67
2,98886, Control_c, 0, 64, 70
2,98902, Control_c, 0, 64, 73
2,98917, Control_c, 0, 64, 76
2,98932, Control_c, 0, 64, 79
2,98948, Control_c, 0, 64, 82
2,98962, Control_c, 0, 64, 83
2,99043, Note_on_c, 0, 54, 47
2,99044, Note_on_c, 0, 63, 74
2,99053, Control_c, 0, 64, 82
2,99056, Note_on_c, 0, 70, 0
2,99062, Note_on_c, 0, 58, 45
2,99069, Control_c, 0, 64, 76
2,99084, Control_c, 0, 64, 65
2,99093, Note_on_c, 0, 49, 0
2,99099, Control_c, 0, 64, 41
2,99103, Note_on_c, 0, 46, 0
2,99115, Control_c, 0, 64, 0
2,99236, Control_c, 0, 64, 43
2,99251, Control_c, 0, 64, 54
2,99267, Control_c, 0, 64, 59
2,99281, Control_c, 0, 64, 62
2,99296, Control_c, 0, 64, 64
2,99312, Control_c, 0, 64, 68
2,99327, Control_c, 0, 64, 74
2,99342, Control_c, 0, 64, 87
2,99357, Control_c, 0, 64, 100
2,99381, Control_c, 0, 64, 119
2,99396, Control_c, 0, 64, 127
2,99435, Note_on_c, 0, 73, 0
2,99459, Note_on_c, 0, 72, 54
2,99501, Control_c, 0, 64, 111
2,99516, Control_c, 0, 64, 84
2,99531, Control_c, 0, 64, 67
2,99546, Control_c, 0, 64, 41
2,99561, Control_c, 0, 64, 0
2,99652, Control_c, 0, 64, 33
2,99668, Control_c, 0, 64, 50
2,99684, Control_c, 0, 64, 55
2,99699, Control_c, 0, 64, 57
2,99715, Control_c, 0, 64, 59
2,99729, Control_c, 0, 64, 61
2,99745, Control_c, 0, 64, 62
2,99760, Control_c, 0, 64, 64
2,99775, Control_c, 0, 64, 64
2,99859, Note_on_c, 0, 64, 63
2,99867, Control_c, 0, 64, 62
2,99867, Note_on_c, 0, 63, 0
2,99880, Note_on_c, 0, 55, 48
2,99882, Control_c, 0, 64, 46
2,99897, Control_c, 0, 64, 0
2,99907, Note_on_c, 0, 54, 0
2,100034, Control_c, 0, 64, 39
2,100049, Control_c, 0, 64, 48
2,100064, Control_c, 0, 64, 54
2,100079, Control_c, 0, 64, 59
2,100094, Control_c, 0, 64, 61
2,100110, Control_c, 0, 64, 63
2,100125, Control_c, 0, 64, 65
2,100148, Control_c, 0, 64, 66
2,100163, Control_c, 0, 64, 67
2,100178, Control_c, 0, 64, 69
2,100193, Control_c, 0, 64, 72
2,100208, Control_c, 0, 64, 76
2,100224, Control_c, 0, 64, 80
2,100240, Control_c, 0, 64, 81
2,100270, Control_c, 0, 64, 78
2,100285, Control_c, 0, 64, 69
2,100285, Note_on_c, 0, 60, 73
2,100288, Note_on_c, 0, 58, 0
2,100290, Note_on_c, 0, 70, 56
2,100301, Control_c, 0, 64, 57
2,100316, Control_c, 0, 64, 27
2,100331, Control_c, 0, 64, 25
2,100346, Control_c, 0, 64, 45
2,100361, Control_c, 0, 64, 55
2,100373, Note_on_c, 0, 72, 0
2,100376, Control_c, 0, 64, 60
2,100391, Control_c, 0, 64, 63
2,100406, Control_c, 0, 64, 68
2,100421, Note_on_c, 0, 55, 0
2,100422, Control_c, 0, 64, 73
2,100437, Control_c, 0, 64, 81
2,100448, Note_on_c, 0, 64, 0
2,100452, Control_c, 0, 64, 93
2,100467, Control_c, 0, 64, 109
2,100482, Control_c, 0, 64, 127
2,100567, Note_on_c, 0, 70, 0
2,100737, Note_on_c, 0, 61, 70
2,100744, Note_on_c, 0, 60, 0
2,100753, Note_on_c, 0, 69, 59
2,100758, Note_on_c, 0, 53, 52
2,100762, Note_on_c, 0, 65, 49
2,100787, Control_c, 0, 64, 106
2,100802, Control_c, 0, 64, 76
2,100817, Control_c, 0, 64, 53
2,100833, Control_c, 0, 64, 0
2,100916, Control_c, 0, 64, 33
2,100931, Control_c, 0, 64, 53
2,100947, Control_c, 0, 64, 61
2,100947, Note_on_c, 0, 65, 0
2,100962, Control_c, 0, 64, 63
2,100977, Control_c, 0, 64, 65
2,100989, Note_on_c, 0, 69, 0
2,100992, Control_c, 0, 64, 66
2,101007, Control_c, 0, 64, 69
2,101023, Control_c, 0, 64, 73
2,101038, Control_c, 0, 64, 79
2,101052, Control_c, 0, 64, 86
2,101068, Control_c, 0, 64, 92
2,101083, Control_c, 0, 64, 95
2,101098, Control_c, 0, 64, 95
2,101114, Control_c, 0, 64, 96
2,101129, Control_c, 0, 64, 98
2,101145, Control_c, 0, 64, 99
2,101160, Control_c, 0, 64, 100
2,101206, Note_on_c, 0, 78, 84
2,101217, Note_on_c, 0, 61, 0
2,101224, Note_on_c, 0, 69, 64
2,101233, Note_on_c, 0, 60, 56
2,101235, Control_c, 0, 64, 96
2,101250, Control_c, 0, 64, 81
2,101266, Control_c, 0, 64, 66
2,101281, Control_c, 0, 64, 45
2,101296, Control_c, 0, 64, 0
2,101358, Control_c, 0, 64, 47
2,101373, Control_c, 0, 64, 58
2,101389, Control_c, 0, 64, 63
2,101404, Control_c, 0, 64, 66
2,101418, Control_c, 0, 64, 72
2,101434, Control_c, 0, 64, 81
2,101447, Note_on_c, 0, 78, 0
2,101449, Control_c, 0, 64, 94
2,101464, Control_c, 0, 64, 111
2,101479, Control_c, 0, 64, 127
2,101604, Note_on_c, 0, 69, 0
2,101631, Note_on_c, 0, 77, 89
2,101632, Note_on_c, 0, 61, 64
2,101639, Note_on_c, 0, 70, 78
2,101684, Control_c, 0, 64, 117
2,101689, Note_on_c, 0, 60, 0
2,101699, Control_c, 0, 64, 78
2,101715, Control_c, 0, 64, 61
2,101730, Control_c, 0, 64, 0
2,101822, Control_c, 0, 64, 22
2,101836, Control_c, 0, 64, 53
2,101851, Control_c, 0, 64, 61
2,101867, Control_c, 0, 64, 65
2,101881, Control_c, 0, 64, 69
2,101896, Control_c, 0, 64, 75
2,101912, Control_c, 0, 64, 87
2,101927, Control_c, 0, 64, 115
2,101943, Control_c, 0, 64, 127
2,102026, Note_on_c, 0, 75, 88
2,102028, Note_on_c, 0, 72, 88
2,102029, Note_on_c, 0, 63, 73
2,102062, Note_on_c, 0, 77, 0
2,102069, Note_on_c, 0, 70, 0
2,102074, Note_on_c, 0, 61, 0
2,102077, Control_c, 0, 64, 95
2,102092, Control_c, 0, 64, 67
2,102108, Control_c, 0, 64, 38
2,102124, Control_c, 0, 64, 0
2,102423, Note_on_c, 0, 75, 0
2,102426, Note_on_c, 0, 73, 89
2,102442, Note_on_c, 0, 65, 81
2,102496, Note_on_c, 0, 63, 0
2,102723, Control_c, 0, 64, 40
2,102738, Control_c, 0, 64, 50
2,102754, Control_c, 0, 64, 53
2,102769, Control_c, 0, 64, 55
2,102784, Control_c, 0, 64, 57
2,102800, Control_c, 0, 64, 59
2,102814, Control_c, 0, 64, 61
2,102830, Control_c, 0, 64, 64
2,102836, Note_on_c, 0, 65, 0
2,102845, Control_c, 0, 64, 65
2,102849, Note_on_c, 0, 70, 93
2,102860, Control_c, 0, 64, 68
2,102866, Note_on_c, 0, 72, 0
2,102876, Control_c, 0, 64, 71
2,102877, Note_on_c, 0, 65, 12
2,102891, Control_c, 0, 64, 77
2,102906, Control_c, 0, 64, 86
2,102921, Control_c, 0, 64, 98
2,102936, Control_c, 0, 64, 127
2,103253, Note_on_c, 0, 53, 0
2,103262, Note_on_c, 0, 72, 84
2,103266, Note_on_c, 0, 41, 76
2,103312, Note_on_c, 0, 73, 0
2,103353, Control_c, 0, 64, 111
2,103368, Control_c, 0, 64, 79
2,103383, Control_c, 0, 64, 65
2,103399, Control_c, 0, 64, 31
2,103414, Control_c, 0, 64, 0
2,103656, Control_c, 0, 64, 30
2,103671, Control_c, 0, 64, 44
2,103687, Control_c, 0, 64, 50
2,103702, Control_c, 0, 64, 53
2,103718, Control_c, 0, 64, 55
2,103725, Note_on_c, 0, 69, 83
2,103733, Control_c, 0, 64, 57
2,103748, Control_c, 0, 64, 59
2,103764, Control_c, 0, 64, 61
2,103777, Note_on_c, 0, 70, 0
2,103779, Control_c, 0, 64, 63
2,103793, Control_c, 0, 64, 65
2,103809, Control_c, 0, 64, 68
2,103824, Control_c, 0, 64, 71
2,103840, Control_c, 0, 64, 77
2,103855, Control_c, 0, 64, 84
2,103870, Control_c, 0, 64, 93
2,103886, Control_c, 0, 64, 108
2,103901, Control_c, 0, 64, 127
2,104255, Note_on_c, 0, 70, 93
2,104258, Note_on_c, 0, 42, 76
2,104280, Note_on_c, 0, 69, 0
2,104289, Note_on_c, 0, 72, 0
2,104291, Note_on_c, 0, 41, 0
2,104334, Control_c, 0, 64, 91
2,104349, Control_c, 0, 64, 70
2,104364, Control_c, 0, 64, 51
2,104379, Control_c, 0, 64, 0
2,104775, Note_on_c, 0, 68, 87
2,104888, Control_c, 0, 64, 33
2,104903, Control_c, 0, 64, 51
2,104919, Control_c, 0, 64, 57
2,104934, Control_c, 0, 64, 60
2,104949, Control_c, 0, 64, 63
2,104965, Control_c, 0, 64, 66
2,104980, Control_c, 0, 64, 71
2,104995, Control_c, 0, 64, 80
2,105010, Control_c, 0, 64, 98
2,105025, Control_c, 0, 64, 127
2,105172, Note_on_c, 0, 65, 0
2,105198, Note_on_c, 0, 66, 86
2,105212, Note_on_c, 0, 63, 70
2,105233, Note_on_c, 0, 68, 0
2,105267, Control_c, 0, 64, 76
2,105283, Control_c, 0, 64, 57
2,105298, Control_c, 0, 64, 0
2,105389, Control_c, 0, 64, 45
2,105406, Control_c, 0, 64, 56
2,105421, Control_c, 0, 64, 60
2,105436, Control_c, 0, 64, 63
2,105451, Control_c, 0, 64, 65
2,105466, Control_c, 0, 64, 67
2,105482, Control_c, 0, 64, 72
2,105497, Control_c, 0, 64, 78
2,105520, Control_c, 0, 64, 87
2,105535, Control_c, 0, 64, 94
2,105550, Control_c, 0, 64, 95
2,105587, Note_on_c, 0, 63, 0
2,105588, Note_on_c, 0, 65, 88
2,105596, Control_c, 0, 64, 91
2,105610, Control_c, 0, 64, 76
2,105612, Note_on_c, 0, 61, 67
2,105625, Control_c, 0, 64, 61
2,105641, Control_c, 0, 64, 0
2,105654, Note_on_c, 0, 70, 0
2,105717, Control_c, 0, 64, 42
2,105732, Control_c, 0, 64, 59
2,105747, Control_c, 0, 64, 64
2,105752, Note_on_c, 0, 61, 0
2,105762, Control_c, 0, 64, 68
2,105777, Control_c, 0, 64, 74
2,105792, Control_c, 0, 64, 85
2,105808, Control_c, 0, 64, 103
2,105823, Control_c, 0, 64, 127
2,105878, Note_on_c, 0, 66, 0
2,105962, Note_on_c, 0, 68, 90
2,105977, Note_on_c, 0, 63, 70
2,105981, Note_on_c, 0, 59, 62
2,105992, Note_on_c, 0, 65, 0
2,106005, Control_c, 0, 64, 108
2,106020, Control_c, 0, 64, 74
2,106035, Control_c, 0, 64, 53
2,106050, Control_c, 0, 64, 0
2,106099, Note_on_c, 0, 59, 0
2,106099, Note_on_c, 0, 59, 3
2,106127, Control_c, 0, 64, 17
2,106142, Control_c, 0, 64, 51
2,106158, Control_c, 0, 64, 60
2,106172, Control_c, 0, 64, 63
2,106187, Control_c, 0, 64, 64
2,106203, Control_c, 0, 64, 66
2,106218, Control_c, 0, 64, 70
2,106233, Control_c, 0, 64, 74
2,106249, Control_c, 0, 64, 81
2,106264, Control_c, 0, 64, 88
2,106287, Control_c, 0, 64, 93
2,106302, Control_c, 0, 64, 94
2,106332, Control_c, 0, 64, 94
2,106380, Note_on_c, 0, 41, 47
2,106393, Control_c, 0, 64, 94
2,106408, Control_c, 0, 64, 90
2,106423, Control_c, 0, 64, 81
2,106425, Note_on_c, 0, 62, 78
2,106438, Note_on_c, 0, 63, 0
2,106439, Control_c, 0, 64, 70
2,106442, Note_on_c, 0, 42, 0
2,106454, Control_c, 0, 64, 60
2,106469, Control_c, 0, 64, 19
2,106485, Control_c, 0, 64, 0
2,106600, Note_on_c, 0, 63, 89
2,106638, Note_on_c, 0, 62, 0
2,106815, Note_on_c, 0, 65, 77
2,106823, Note_on_c, 0, 39, 50
2,106848, Note_on_c, 0, 63, 0
2,106875, Note_on_c, 0, 41, 0
2,107227, Note_on_c, 0, 38, 60
2,107264, Note_on_c, 0, 39, 0
2,107329, Control_c, 0, 64, 32
2,107344, Control_c, 0, 64, 51
2,107358, Note_on_c, 0, 68, 0
2,107360, Control_c, 0, 64, 58
2,107374, Control_c, 0, 64, 61
2,107389, Control_c, 0, 64, 63
2,107405, Control_c, 0, 64, 65
2,107420, Control_c, 0, 64, 68
2,107436, Control_c, 0, 64, 72
2,107450, Control_c, 0, 64, 79
2,107465, Control_c, 0, 64, 87
2,107481, Control_c, 0, 64, 97
2,107496, Control_c, 0, 64, 107
2,107511, Control_c, 0, 64, 127
2,107673, Note_on_c, 0, 66, 74
2,107678, Note_on_c, 0, 39, 48
2,107680, Note_on_c, 0, 59, 0
2,107700, Note_on_c, 0, 58, 51
2,107713, Note_on_c, 0, 38, 0
2,107724, Control_c, 0, 64, 92
2,107739, Control_c, 0, 64, 69
2,107755, Control_c, 0, 64, 46
2,107757, Note_on_c, 0, 65, 0
2,107770, Control_c, 0, 64, 0
2,107885, Control_c, 0, 64, 32
2,107900, Control_c, 0, 64, 48
2,107916, Control_c, 0, 64, 55
2,107930, Control_c, 0, 64, 59
2,107945, Control_c, 0, 64, 62
2,107961, Control_c, 0, 64, 64
2,107976, Control_c, 0, 64, 66
2,107991, Control_c, 0, 64, 70
2,108007, Control_c, 0, 64, 76
2,108021, Control_c, 0, 64, 85
2,108037, Control_c, 0, 64, 94
2,108052, Control_c, 0, 64, 102
2,108067, Control_c, 0, 64, 108
2,108083, Control_c, 0, 64, 113
2,108099, Control_c, 0, 64, 116
2,108115, Control_c, 0, 64, 117
2,108118, Note_on_c, 0, 65, 71
2,108145, Control_c, 0, 64, 116
2,108149, Note_on_c, 0, 61, 48
2,108161, Control_c, 0, 64, 100
2,108175, Control_c, 0, 64, 81
2,108191, Control_c, 0, 64, 66
2,108206, Control_c, 0, 64, 48
2,108220, Control_c, 0, 64, 0
2,108236, Control_c, 0, 64, 21
2,108251, Control_c, 0, 64, 46
2,108266, Control_c, 0, 64, 55
2,108282, Control_c, 0, 64, 61
2,108296, Control_c, 0, 64, 64
2,108310, Note_on_c, 0, 61, 0
2,108312, Control_c, 0, 64, 67
2,108327, Control_c, 0, 64, 73
2,108342, Control_c, 0, 64, 79
2,108358, Control_c, 0, 64, 87
2,108373, Control_c, 0, 64, 94
2,108389, Control_c, 0, 64, 102
2,108404, Control_c, 0, 64, 108
2,108418, Control_c, 0, 64, 114
2,108434, Control_c, 0, 64, 127
2,108445, Note_on_c, 0, 65, 0
2,108548, Note_on_c, 0, 63, 59
2,108555, Note_on_c, 0, 39, 0
2,108555, Note_on_c, 0, 60, 46
2,108560, Note_on_c, 0, 58, 0
2,108570, Control_c, 0, 64, 113
2,108586, Note_on_c, 0, 51, 37
2,108593, Control_c, 0, 64, 86
2,108608, Control_c, 0, 64, 68
2,108623, Control_c, 0, 64, 45
2,108639, Control_c, 0, 64, 0
2,108716, Control_c, 0, 64, 44
2,108731, Control_c, 0, 64, 56
2,108745, Control_c, 0, 64, 61
2,108761, Control_c, 0, 64, 64
2,108770, Note_on_c, 0, 60, 0
2,108776, Control_c, 0, 64, 66
2,108792, Control_c, 0, 64, 69
2,108807, Control_c, 0, 64, 75
2,108822, Control_c, 0, 64, 83
2,108838, Control_c, 0, 64, 93
2,108853, Control_c, 0, 64, 108
2,108868, Control_c, 0, 64, 127
2,108983, Note_on_c, 0, 61, 52
2,109004, Note_on_c, 0, 58, 43
2,109004, Note_on_c, 0, 63, 0
2,109035, Control_c, 0, 64, 95
2,109050, Control_c, 0, 64, 74
2,109064, Control_c, 0, 64, 58
2,109080, Control_c, 0, 64, 16
2,109095, Control_c, 0, 64, 12
2,109111, Control_c, 0, 64, 39
2,109126, Control_c, 0, 64, 50
2,109140, Control_c, 0, 64, 56
2,109156, Control_c, 0, 64, 60
2,109171, Control_c, 0, 64, 64
2,109186, Control_c, 0, 64, 68
2,109202, Control_c, 0, 64, 73
2,109216, Control_c, 0, 64, 80
2,109230, Note_on_c, 0, 58, 0
2,109232, Control_c, 0, 64, 89
2,109247, Control_c, 0, 64, 100
2,109262, Control_c, 0, 64, 112
2,109278, Control_c, 0, 64, 121
2,109293, Control_c, 0, 64, 124
2,109324, Control_c, 0, 64, 127
2,109446, Note_on_c, 0, 66, 0
2,109468, Note_on_c, 0, 65, 59
2,109483, Control_c, 0, 64, 119
2,109485, Note_on_c, 0, 61, 0
2,109497, Note_on_c, 0, 57, 38
2,109498, Control_c, 0, 64, 102
2,109501, Note_on_c, 0, 60, 39
2,109514, Control_c, 0, 64, 91
2,109529, Control_c, 0, 64, 81
2,109544, Control_c, 0, 64, 72
2,109560, Control_c, 0, 64, 65
2,109575, Control_c, 0, 64, 57
2,109590, Control_c, 0, 64, 37
2,109605, Control_c, 0, 64, 0
2,109897, Note_on_c, 0, 63, 46
2,109898, Note_on_c, 0, 49, 39
2,109900, Note_on_c, 0, 60, 0
2,109914, Note_on_c, 0, 51, 0
2,110085, Note_on_c, 0, 48, 52
2,110088, Note_on_c, 0, 49, 0
2,110313, Note_on_c, 0, 48, 0
2,110336, Note_on_c, 0, 70, 82
2,110339, Note_on_c, 0, 58, 54
2,110349, Note_on_c, 0, 49, 43
2,110406, Note_on_c, 0, 57, 0
2,110525, Control_c, 0, 64, 38
2,110540, Control_c, 0, 64, 52
2,110556, Control_c, 0, 64, 59
2,110571, Control_c, 0, 64, 62
2,110586, Control_c, 0, 64, 64
2,110602, Control_c, 0, 64, 67
2,110617, Control_c, 0, 64, 72
2,110632, Control_c, 0, 64, 78
2,110647, Control_c, 0, 64, 86
2,110662, Control_c, 0, 64, 96
2,110677, Control_c, 0, 64, 103
2,110692, Control_c, 0, 64, 108
2,110708, Control_c, 0, 64, 110
2,110723, Control_c, 0, 64, 111
2,110755, Note_on_c, 0, 65, 0
2,110769, Note_on_c, 0, 61, 53
2,110773, Note_on_c, 0, 51, 45
2,110783, Control_c, 0, 64, 110
2,110799, Control_c, 0, 64, 97
2,110808, Note_on_c, 0, 49, 0
2,110814, Control_c, 0, 64, 79
2,110829, Control_c, 0, 64, 65
2,110844, Control_c, 0, 64, 33
2,110859, Control_c, 0, 64, 0
2,110928, Control_c, 0, 64, 35
2,110943, Control_c, 0, 64, 52
2,110959, Control_c, 0, 64, 59
2,110973, Control_c, 0, 64, 63
2,110989, Control_c, 0, 64, 66
2,111004, Control_c, 0, 64, 69
2,111019, Control_c, 0, 64, 75
2,111035, Control_c, 0, 64, 82
2,111049, Control_c, 0, 64, 92
2,111064, Control_c, 0, 64, 104
2,111080, Control_c, 0, 64, 114
2,111094, Control_c, 0, 64, 116
2,111110, Control_c, 0, 64, 117
2,111168, Note_on_c, 0, 61, 0
2,111214, Note_on_c, 0, 65, 78
2,111217, Control_c, 0, 64, 105
2,111230, Note_on_c, 0, 57, 47
2,111233, Control_c, 0, 64, 88
2,111240, Note_on_c, 0, 60, 56
2,111241, Note_on_c, 0, 70, 0
2,111248, Control_c, 0, 64, 70
2,111248, Note_on_c, 0, 63, 0
2,111250, Note_on_c, 0, 53, 45
2,111263, Control_c, 0, 64, 52
2,111278, Control_c, 0, 64, 0
2,111282, Note_on_c, 0, 51, 0
2,111288, Note_on_c, 0, 58, 0
2,111415, Control_c, 0, 64, 44
2,111431, Control_c, 0, 64, 55
2,111446, Control_c, 0, 64, 58
2,111460, Control_c, 0, 64, 61
2,111476, Control_c, 0, 64, 62
2,111491, Control_c, 0, 64, 64
2,111506, Control_c, 0, 64, 67
2,111521, Control_c, 0, 64, 70
2,111536, Control_c, 0, 64, 74
2,111552, Control_c, 0, 64, 79
2,111567, Control_c, 0, 64, 86
2,111577, Note_on_c, 0, 53, 0
2,111582, Control_c, 0, 64, 92
2,111597, Control_c, 0, 64, 97
2,111612, Control_c, 0, 64, 100
2,111619, Note_on_c, 0, 51, 51
2,111628, Control_c, 0, 64, 101
2,111643, Control_c, 0, 64, 104
2,111665, Control_c, 0, 64, 108
2,111681, Control_c, 0, 64, 111
2,111696, Control_c, 0, 64, 112
2,111712, Control_c, 0, 64, 113
2,111727, Control_c, 0, 64, 114
2,111757, Control_c, 0, 64, 115
2,111770, Note_on_c, 0, 57, 0
2,111788, Control_c, 0, 64, 116
2,111914, Note_on_c, 0, 60, 0
2,111971, Note_on_c, 0, 65, 0
2,112042, Note_on_c, 0, 58, 78
2,112046, Note_on_c, 0, 51, 0
2,112057, Note_on_c, 0, 49, 53
2,112061, Control_c, 0, 64, 115
2,112077, Control_c, 0, 64, 103
2,112092, Control_c, 0, 64, 87
2,112108, Control_c, 0, 64, 72
2,112122, Control_c, 0, 64, 61
2,112137, Control_c, 0, 64, 0
2,112427, Note_on_c, 0, 49, 0
2,112430, Note_on_c, 0, 78, 88
2,112452, Note_on_c, 0, 48, 53
2,112599, Control_c, 0, 64, 47
2,112614, Control_c, 0, 64, 59
2,112629, Control_c, 0, 64, 63
2,112645, Control_c, 0, 64, 66
2,112659, Control_c, 0, 64, 69
2,112675, Control_c, 0, 64, 79
2,112690, Control_c, 0, 64, 94
2,112705, Control_c, 0, 64, 127
2,112847, Note_on_c, 0, 77, 86
2,112862, Note_on_c, 0, 48, 0
2,112863, Note_on_c, 0, 53, 85
2,112882, Note_on_c, 0, 58, 0
2,112888, Control_c, 0, 64, 82
2,112892, Note_on_c, 0, 49, 50
2,112903, Control_c, 0, 64, 62
2,112910, Note_on_c, 0, 78, 0
2,112919, Control_c, 0, 64, 0
2,113009, Control_c, 0, 64, 38
2,113024, Control_c, 0, 64, 53
2,113040, Control_c, 0, 64, 58
2,113055, Control_c, 0, 64, 61
2,113070, Control_c, 0, 64, 63
2,113085, Control_c, 0, 64, 66
2,113100, Control_c, 0, 64, 69
2,113116, Control_c, 0, 64, 74
2,113131, Control_c, 0, 64, 81
2,113146, Control_c, 0, 64, 88
2,113162, Control_c, 0, 64, 94
2,113177, Control_c, 0, 64, 99
2,113200, Control_c, 0, 64, 105
2,113214, Control_c, 0, 64, 108
2,113251, Note_on_c, 0, 49, 0
2,113266, Note_on_c, 0, 75, 83
2,113270, Note_on_c, 0, 45, 67
2,113271, Note_on_c, 0, 72, 94
2,113290, Control_c, 0, 64, 96
2,113297, Note_on_c, 0, 77, 0
2,113305, Control_c, 0, 64, 73
2,113321, Control_c, 0, 64, 56
2,113336, Control_c, 0, 64, 0
2,113427, Control_c, 0, 64, 25
2,113443, Control_c, 0, 64, 51
2,113458, Control_c, 0, 64, 58
2,113473, Control_c, 0, 64, 61
2,113489, Control_c, 0, 64, 63
2,113503, Control_c, 0, 64, 65
2,113519, Control_c, 0, 64, 68
2,113534, Control_c, 0, 64, 73
2,113549, Control_c, 0, 64, 81
2,113565, Control_c, 0, 64, 90
2,113579, Control_c, 0, 64, 100
2,113596, Control_c, 0, 64, 116
2,113611, Control_c, 0, 64, 127
2,113633, Note_on_c, 0, 45, 0
2,113681, Note_on_c, 0, 53, 0
2,113687, Control_c, 0, 64, 110
2,113696, Note_on_c, 0, 70, 96
2,113696, Note_on_c, 0, 73, 91
2,113702, Control_c, 0, 64, 80
2,113702, Note_on_c, 0, 46, 81
2,113715, Note_on_c, 0, 72, 0
2,113718, Control_c, 0, 64, 57
2,113727, Note_on_c, 0, 75, 0
2,113732, Control_c, 0, 64, 0
2,113823, Control_c, 0, 64, 39
2,113839, Control_c, 0, 64, 58
2,113853, Control_c, 0, 64, 63
2,113868, Control_c, 0, 64, 67
2,113884, Control_c, 0, 64, 73
2,113899, Control_c, 0, 64, 84
2,113915, Control_c, 0, 64, 109
2,113918, Note_on_c, 0, 70, 0
2,113929, Control_c, 0, 64, 127
2,114072, Note_on_c, 0, 73, 0
2,114125, Note_on_c, 0, 66, 96
2,114128, Note_on_c, 0, 69, 81
2,114134, Note_on_c, 0, 72, 76
2,114149, Control_c, 0, 64, 78
2,114165, Control_c, 0, 64, 53
2,114179, Control_c, 0, 64, 0
2,114241, Control_c, 0, 64, 38
2,114256, Control_c, 0, 64, 60
2,114270, Control_c, 0, 64, 66
2,114286, Control_c, 0, 64, 72
2,114287, Note_on_c, 0, 69, 0
2,114301, Control_c, 0, 64, 83
2,114317, Control_c, 0, 64, 103
2,114334, Control_c, 0, 64, 127
2,114403, Note_on_c, 0, 66, 0
2,114407, Note_on_c, 0, 72, 0
2,114480, Note_on_c, 0, 46, 0
2,114550, Control_c, 0, 64, 110
2,114560, Note_on_c, 0, 73, 92
2,114561, Note_on_c, 0, 65, 96
2,114565, Control_c, 0, 64, 65
2,114566, Note_on_c, 0, 41, 84
2,114566, Note_on_c, 0, 70, 85
2,114579, Control_c, 0, 64, 0
2,114640, Control_c, 0, 64, 33
2,114655, Control_c, 0, 64, 59
2,114671, Control_c, 0, 64, 68
2,114686, Control_c, 0, 64, 80
2,114701, Control_c, 0, 64, 111
2,114716, Control_c, 0, 64, 127
2,114734, Note_on_c, 0, 41, 0
2,114734, Note_on_c, 0, 65, 0
2,114821, Note_on_c, 0, 70, 0
2,114876, Note_on_c, 0, 73, 0
2,115027, Note_on_c, 0, 75, 90
2,115028, Note_on_c, 0, 60, 92
2,115031, Note_on_c, 0, 69, 84
2,115046, Note_on_c, 0, 63, 71
2,115058, Control_c, 0, 64, 89
2,115074, Control_c, 0, 64, 62
2,115089, Control_c, 0, 64, 0
2,115105, Note_on_c, 0, 58, 41
2,115150, Control_c, 0, 64, 24
2,115156, Note_on_c, 0, 58, 0
2,115165, Control_c, 0, 64, 55
2,115172, Note_on_c, 0, 63, 0
2,115181, Control_c, 0, 64, 62
2,115195, Control_c, 0, 64, 64
2,115210, Control_c, 0, 64, 65
2,115226, Control_c, 0, 64, 67
2,115242, Control_c, 0, 64, 70
2,115257, Control_c, 0, 64, 77
2,115273, Control_c, 0, 64, 87
2,115287, Control_c, 0, 64, 98
2,115303, Control_c, 0, 64, 106
2,115318, Control_c, 0, 64, 109
2,115333, Control_c, 0, 64, 117
2,115338, Note_on_c, 0, 60, 0
2,115348, Control_c, 0, 64, 127
2,115423, Note_on_c, 0, 69, 0
2,115447, Note_on_c, 0, 75, 0
2,115476, Note_on_c, 0, 77, 90
2,115477, Note_on_c, 0, 58, 86
2,115478, Note_on_c, 0, 61, 84
2,115480, Note_on_c, 0, 70, 84
2,115492, Control_c, 0, 64, 94
2,115508, Control_c, 0, 64, 66
2,115523, Control_c, 0, 64, 0
2,115584, Control_c, 0, 64, 42
2,115599, Control_c, 0, 64, 61
2,115608, Note_on_c, 0, 61, 0
2,115614, Control_c, 0, 64, 66
2,115620, Note_on_c, 0, 58, 0
2,115629, Control_c, 0, 64, 75
2,115644, Control_c, 0, 64, 88
2,115659, Control_c, 0, 64, 113
2,115667, Note_on_c, 0, 70, 0
2,115675, Control_c, 0, 64, 127
2,115879, Note_on_c, 0, 77, 0
2,115896, Note_on_c, 0, 54, 89
2,115896, Note_on_c, 0, 75, 86
2,115906, Note_on_c, 0, 72, 83
2,115914, Note_on_c, 0, 60, 76
2,115918, Control_c, 0, 64, 98
2,115920, Note_on_c, 0, 57, 53
2,115933, Control_c, 0, 64, 68
2,115948, Control_c, 0, 64, 0
2,115957, Note_on_c, 0, 57, 0
2,116004, Note_on_c, 0, 60, 0
2,116025, Control_c, 0, 64, 50
2,116039, Control_c, 0, 64, 61
2,116055, Control_c, 0, 64, 66
2,116071, Control_c, 0, 64, 72
2,116081, Note_on_c, 0, 72, 0
2,116086, Control_c, 0, 64, 85
2,116100, Control_c, 0, 64, 127
2,116156, Note_on_c, 0, 54, 0
2,116309, Note_on_c, 0, 73, 94
2,116315, Note_on_c, 0, 58, 72
2,116317, Note_on_c, 0, 53, 72
2,116318, Note_on_c, 0, 70, 82
2,116321, Control_c, 0, 64, 76
2,116327, Note_on_c, 0, 61, 63
2,116336, Control_c, 0, 64, 46
2,116343, Note_on_c, 0, 75, 0
2,116352, Control_c, 0, 64, 0
2,116411, Control_c, 0, 64, 51
2,116426, Note_on_c, 0, 61, 0
2,116427, Control_c, 0, 64, 64
2,116442, Control_c, 0, 64, 70
2,116452, Note_on_c, 0, 70, 0
2,116457, Control_c, 0, 64, 81
2,116464, Note_on_c, 0, 53, 0
2,116465, Note_on_c, 0, 58, 0
2,116472, Control_c, 0, 64, 95
2,116477, Note_on_c, 0, 73, 0
2,116487, Control_c, 0, 64, 113
2,116495, Note_on_c, 0, 63, 87
2,116503, Control_c, 0, 64, 127
2,116596, Note_on_c, 0, 63, 0
2,116692, Note_on_c, 0, 72, 91
2,116700, Note_on_c, 0, 69, 83
2,116703, Note_on_c, 0, 51, 62
2,116704, Note_on_c, 0, 60, 67
2,116709, Note_on_c, 0, 65, 75
2,116730, Control_c, 0, 64, 79
2,116746, Control_c, 0, 64, 59
2,116761, Control_c, 0, 64, 0
2,116852, Control_c, 0, 64, 44
2,116868, Control_c, 0, 64, 60
2,116878, Note_on_c, 0, 60, 0
2,116884, Control_c, 0, 64, 64
2,116898, Control_c, 0, 64, 70
2,116914, Control_c, 0, 64, 78
2,116929, Control_c, 0, 64, 94
2,116945, Control_c, 0, 64, 127
2,116950, Note_on_c, 0, 51, 0
2,117051, Note_on_c, 0, 69, 0
2,117104, Note_on_c, 0, 70, 88
2,117116, Note_on_c, 0, 61, 63
2,117128, Note_on_c, 0, 49, 51
2,117150, Control_c, 0, 64, 100
2,117151, Note_on_c, 0, 72, 0
2,117165, Control_c, 0, 64, 69
2,117180, Control_c, 0, 64, 18
2,117196, Control_c, 0, 64, 0
2,117256, Control_c, 0, 64, 47
2,117265, Note_on_c, 0, 65, 0
2,117272, Control_c, 0, 64, 60
2,117287, Control_c, 0, 64, 64
2,117303, Control_c, 0, 64, 69
2,117317, Control_c, 0, 64, 78
2,117332, Control_c, 0, 64, 95
2,117348, Control_c, 0, 64, 127
2,117355, Note_on_c, 0, 61, 0
2,117391, Note_on_c, 0, 49, 0
2,117512, Note_on_c, 0, 66, 76
2,117519, Note_on_c, 0, 63, 66
2,117524, Note_on_c, 0, 48, 55
2,117526, Note_on_c, 0, 60, 62
2,117545, Control_c, 0, 64, 88
2,117560, Control_c, 0, 64, 64
2,117574, Control_c, 0, 64, 0
2,117651, Control_c, 0, 64, 46
2,117667, Control_c, 0, 64, 62
2,117682, Control_c, 0, 64, 68
2,117697, Control_c, 0, 64, 78
2,117711, Note_on_c, 0, 63, 0
2,117713, Control_c, 0, 64, 94
2,117717, Note_on_c, 0, 48, 0
2,117728, Control_c, 0, 64, 127
2,117747, Note_on_c, 0, 60, 0
2,117935, Note_on_c, 0, 68, 84
2,117943, Note_on_c, 0, 58, 61
2,117946, Note_on_c, 0, 65, 74
2,117963, Note_on_c, 0, 50, 57
2,117971, Note_on_c, 0, 66, 0
2,117994, Control_c, 0, 64, 74
2,118009, Control_c, 0, 64, 49
2,118024, Control_c, 0, 64, 0
2,118099, Note_on_c, 0, 65, 0
2,118100, Control_c, 0, 64, 22
2,118116, Control_c, 0, 64, 53
2,118131, Control_c, 0, 64, 62
2,118147, Control_c, 0, 64, 66
2,118161, Control_c, 0, 64, 70
2,118176, Control_c, 0, 64, 82
2,118192, Control_c, 0, 64, 108
2,118206, Control_c, 0, 64, 127
2,118239, Note_on_c, 0, 70, 0
2,118306, Note_on_c, 0, 50, 0
2,118336, Note_on_c, 0, 68, 0
2,118344, Note_on_c, 0, 51, 61
2,118344, Note_on_c, 0, 72, 87
2,118345, Note_on_c, 0, 66, 82
2,118356, Note_on_c, 0, 63, 76
2,118404, Control_c, 0, 64, 79
2,118418, Control_c, 0, 64, 56
2,118434, Control_c, 0, 64, 0
2,118511, Control_c, 0, 64, 44
2,118526, Control_c, 0, 64, 61
2,118542, Control_c, 0, 64, 68
2,118553, Note_on_c, 0, 66, 0
2,118557, Control_c, 0, 64, 79
2,118580, Control_c, 0, 64, 103
2,118595, Control_c, 0, 64, 127
2,118613, Note_on_c, 0, 63, 0
2,118841, Note_on_c, 0, 73, 93
2,118845, Note_on_c, 0, 53, 66
2,118851, Note_on_c, 0, 65, 80
2,118852, Note_on_c, 0, 61, 76
2,118860, Note_on_c, 0, 51, 0
2,118899, Note_on_c, 0, 72, 0
2,118929, Control_c, 0, 64, 91
2,118945, Control_c, 0, 64, 69
2,118960, Control_c, 0, 64, 45
2,118975, Control_c, 0, 64, 0
2,119125, Note_on_c, 0, 54, 80
2,119149, Note_on_c, 0, 53, 0
2,119340, Note_on_c, 0, 52, 78
2,119360, Note_on_c, 0, 54, 0
2,119364, Note_on_c, 0, 65, 0
2,119470, Control_c, 0, 64, 44
2,119485, Control_c, 0, 64, 59
2,119490, Note_on_c, 0, 58, 0
2,119499, Control_c, 0, 64, 64
2,119515, Control_c, 0, 64, 68
2,119522, Note_on_c, 0, 52, 0
2,119530, Control_c, 0, 64, 76
2,119530, Note_on_c, 0, 53, 89
2,119546, Control_c, 0, 64, 98
2,119547, Note_on_c, 0, 61, 0
2,119561, Control_c, 0, 64, 127
2,119605, Note_on_c, 0, 53, 0
2,119802, Note_on_c, 0, 67, 100
2,119815, Note_on_c, 0, 40, 77
2,119849, Control_c, 0, 64, 75
2,119865, Control_c, 0, 64, 10
2,119880, Control_c, 0, 64, 0
2,119908, Note_on_c, 0, 73, 0
2,120016, Control_c, 0, 64, 39
2,120032, Control_c, 0, 64, 51
2,120046, Control_c, 0, 64, 54
2,120062, Control_c, 0, 64, 57
2,120077, Control_c, 0, 64, 60
2,120095, Control_c, 0, 64, 63
2,120117, Control_c, 0, 64, 65
2,120132, Control_c, 0, 64, 68
2,120148, Control_c, 0, 64, 73
2,120163, Control_c, 0, 64, 77
2,120179, Control_c, 0, 64, 83
2,120194, Control_c, 0, 64, 87
2,120209, Control_c, 0, 64, 92
2,120225, Control_c, 0, 64, 96
2,120240, Control_c, 0, 64, 100
2,120256, Control_c, 0, 64, 105
2,120271, Control_c, 0, 64, 113
2,120285, Control_c, 0, 64, 119
2,120311, Note_on_c, 0, 73, 93
2,120605, Control_c, 0, 64, 121
2,120681, Control_c, 0, 64, 124
2,120742, Control_c, 0, 64, 127
2,120763, Note_on_c, 0, 72, 83
2,120766, Note_on_c, 0, 60, 92
2,120848, Control_c, 0, 64, 108
2,120848, Note_on_c, 0, 73, 0
2,120864, Control_c, 0, 64, 92
2,120886, Control_c, 0, 64, 75
2,120901, Control_c, 0, 64, 61
2,120916, Control_c, 0, 64, 0
2,121068, Control_c, 0, 64, 32
2,121083, Control_c, 0, 64, 46
2,121099, Control_c, 0, 64, 52
2,121114, Control_c, 0, 64, 57
2,121129, Control_c, 0, 64, 61
2,121145, Control_c, 0, 64, 64
2,121160, Control_c, 0, 64, 66
2,121176, Control_c, 0, 64, 71
2,121190, Control_c, 0, 64, 77
2,121205, Control_c, 0, 64, 85
2,121221, Control_c, 0, 64, 93
2,121236, Control_c, 0, 64, 100
2,121243, Note_on_c, 0, 70, 93
2,121250, Control_c, 0, 64, 104
2,121266, Control_c, 0, 64, 113
2,121270, Note_on_c, 0, 72, 0
2,121281, Control_c, 0, 64, 127
2,121295, Note_on_c, 0, 67, 0
2,121450, Note_on_c, 0, 60, 0
2,121470, Note_on_c, 0, 70, 0
2,121780, Note_on_c, 0, 70, 94
2,121788, Note_on_c, 0, 40, 0
2,121796, Note_on_c, 0, 60, 78
2,121798, Note_on_c, 0, 65, 76
2,121800, Note_on_c, 0, 41, 56
2,121867, Control_c, 0, 64, 76
2,121882, Control_c, 0, 64, 52
2,121897, Control_c, 0, 64, 0
2,121989, Control_c, 0, 64, 18
2,122004, Control_c, 0, 64, 55
2,122020, Control_c, 0, 64, 63
2,122034, Control_c, 0, 64, 67
2,122049, Control_c, 0, 64, 75
2,122065, Control_c, 0, 64, 90
2,122080, Control_c, 0, 64, 127
2,122108, Note_on_c, 0, 65, 0
2,122331, Note_on_c, 0, 66, 95
2,122580, Note_on_c, 0, 70, 0
2,122627, Note_on_c, 0, 66, 0
2,122955, Note_on_c, 0, 65, 93
2,122955, Note_on_c, 0, 69, 87
2,122964, Note_on_c, 0, 53, 66
2,123090, Control_c, 0, 64, 89
2,123106, Control_c, 0, 64, 66
2,123121, Control_c, 0, 64, 0
2,123700, Note_on_c, 0, 63, 86
2,123740, Note_on_c, 0, 65, 0
2,123874, Control_c, 0, 64, 31
2,123890, Control_c, 0, 64, 49
2,123905, Control_c, 0, 64, 56
2,123920, Control_c, 0, 64, 59
2,123936, Control_c, 0, 64, 62
2,123958, Control_c, 0, 64, 64
2,123974, Control_c, 0, 64, 66
2,123989, Control_c, 0, 64, 72
2,124003, Control_c, 0, 64, 81
2,124019, Control_c, 0, 64, 95
2,124033, Note_on_c, 0, 69, 0
2,124034, Control_c, 0, 64, 127
2,124075, Note_on_c, 0, 60, 0
2,124699, Note_on_c, 0, 70, 85
2,124702, Note_on_c, 0, 62, 84
2,124704, Note_on_c, 0, 58, 79
2,124719, Note_on_c, 0, 46, 58
2,124731, Note_on_c, 0, 63, 0
2,124800, Note_on_c, 0, 41, 0
2,124803, Control_c, 0, 64, 106
2,124819, Control_c, 0, 64, 80
2,124836, Control_c, 0, 64, 63
2,124851, Control_c, 0, 64, 0
2,129133, Note_on_c, 0, 53, 0
2,129370, Note_on_c, 0, 70, 0
2,129373, Note_on_c, 0, 58, 0
2,129384, Note_on_c, 0, 62, 0
2,129406, Note_on_c, 0, 46, 0
2,129407, End_track
0, 0, End_of_file
