0, 0, Header, 1, 2, 384
1, 0, Start_track
1, 0, Tempo, 500000
1, 0, Time_signature, 4, 2, 24, 8
1, 1, End_track
2, 0, Start_track
2, 0, Title_t," ""7.7.13 Group 2"""
2, 0, Program_c, 0, 0
2, 0, Control_c, 0, 64, 0
2, 0, Control_c, 0, 67, 0
2, 580, Control_c, 0, 64, 17
2, 594, Control_c, 0, 64, 28
2, 610, Control_c, 0, 64, 36
2, 625, Control_c, 0, 64, 41
2, 639, Control_c, 0, 64, 45
2, 655, Control_c, 0, 64, 49
2, 670, Control_c, 0, 64, 52
2, 686, Control_c, 0, 64, 54
2, 700, Control_c, 0, 64, 57
2, 715, Control_c, 0, 64, 59
2, 731, Control_c, 0, 64, 61
2, 737, Control_c, 0, 64, 63
2, 750, Control_c, 0, 64, 64
2, 750, Note_on_c, 0, 61, 50
2, 758, Note_on_c, 0, 58, 41
2, 766, Control_c, 0, 64, 67
2, 780, Control_c, 0, 64, 70
2, 795, Control_c, 0, 64, 74
2, 811, Control_c, 0, 64, 79
2, 826, Control_c, 0, 64, 84
2, 842, Control_c, 0, 64, 91
2, 857, Control_c, 0, 64, 102
2, 871, Control_c, 0, 64, 127
2, 1030, Note_on_c, 0, 58, 0
2, 1429, Note_on_c, 0, 70, 59
2, 1439, Note_on_c, 0, 58, 41
2, 1452, Note_on_c, 0, 65, 41
2, 1487, Control_c, 0, 64, 110
2, 1502, Control_c, 0, 64, 77
2, 1518, Control_c, 0, 64, 61
2, 1533, Control_c, 0, 64, 0
2, 1609, Control_c, 0, 64, 33
2, 1623, Control_c, 0, 64, 46
2, 1639, Control_c, 0, 64, 52
2, 1654, Control_c, 0, 64, 57
2, 1669, Control_c, 0, 64, 61
2, 1685, Control_c, 0, 64, 63
2, 1689, Note_on_c, 0, 58, 0
2, 1700, Control_c, 0, 64, 65
2, 1714, Control_c, 0, 64, 68
2, 1720, Note_on_c, 0, 72, 75
2, 1730, Control_c, 0, 64, 74
2, 1745, Control_c, 0, 64, 85
2, 1761, Control_c, 0, 64, 108
2, 1776, Control_c, 0, 64, 127
2, 1778, Note_on_c, 0, 70, 0
2, 2038, Note_on_c, 0, 73, 70
2, 2043, Note_on_c, 0, 58, 38
2, 2051, Note_on_c, 0, 65, 0
2, 2071, Note_on_c, 0, 70, 45
2, 2077, Note_on_c, 0, 72, 0
2, 2088, Control_c, 0, 64, 101
2, 2103, Control_c, 0, 64, 73
2, 2119, Control_c, 0, 64, 53
2, 2120, Note_on_c, 0, 61, 0
2, 2134, Control_c, 0, 64, 0
2, 2285, Control_c, 0, 64, 43
2, 2300, Control_c, 0, 64, 50
2, 2315, Control_c, 0, 64, 55
2, 2331, Control_c, 0, 64, 60
2, 2346, Control_c, 0, 64, 63
2, 2362, Control_c, 0, 64, 66
2, 2364, Note_on_c, 0, 58, 0
2, 2377, Control_c, 0, 64, 70
2, 2380, Note_on_c, 0, 70, 0
2, 2382, Note_on_c, 0, 73, 0
2, 2392, Control_c, 0, 64, 77
2, 2408, Control_c, 0, 64, 86
2, 2422, Control_c, 0, 64, 99
2, 2438, Control_c, 0, 64, 127
2, 2729, Note_on_c, 0, 73, 76
2, 2746, Note_on_c, 0, 58, 38
2, 2762, Note_on_c, 0, 61, 41
2, 2768, Note_on_c, 0, 70, 43
2, 2771, Control_c, 0, 64, 124
2, 2779, Note_on_c, 0, 65, 42
2, 2786, Control_c, 0, 64, 80
2, 2802, Control_c, 0, 64, 59
2, 2817, Control_c, 0, 64, 0
2, 2933, Control_c, 0, 64, 44
2, 2948, Control_c, 0, 64, 54
2, 2964, Control_c, 0, 64, 59
2, 2979, Control_c, 0, 64, 63
2, 2993, Control_c, 0, 64, 65
2, 3009, Control_c, 0, 64, 69
2, 3024, Control_c, 0, 64, 78
2, 3040, Control_c, 0, 64, 92
2, 3049, Note_on_c, 0, 58, 0
2, 3055, Control_c, 0, 64, 127
2, 3062, Note_on_c, 0, 61, 0
2, 3065, Note_on_c, 0, 65, 0
2, 3084, Note_on_c, 0, 73, 0
2, 3107, Note_on_c, 0, 70, 0
2, 3427, Note_on_c, 0, 73, 80
2, 3444, Note_on_c, 0, 63, 36
2, 3451, Note_on_c, 0, 70, 52
2, 3452, Note_on_c, 0, 58, 40
2, 3461, Note_on_c, 0, 66, 36
2, 3480, Control_c, 0, 64, 87
2, 3495, Control_c, 0, 64, 65
2, 3510, Control_c, 0, 64, 0
2, 3640, Control_c, 0, 64, 42
2, 3655, Control_c, 0, 64, 52
2, 3670, Control_c, 0, 64, 57
2, 3686, Control_c, 0, 64, 61
2, 3701, Control_c, 0, 64, 63
2, 3708, Note_on_c, 0, 58, 0
2, 3717, Control_c, 0, 64, 66
2, 3731, Control_c, 0, 64, 71
2, 3746, Control_c, 0, 64, 80
2, 3762, Control_c, 0, 64, 94
2, 3777, Control_c, 0, 64, 127
2, 4113, Note_on_c, 0, 58, 44
2, 4113, Note_on_c, 0, 73, 0
2, 4120, Note_on_c, 0, 72, 66
2, 4141, Control_c, 0, 64, 95
2, 4142, Note_on_c, 0, 69, 48
2, 4157, Control_c, 0, 64, 69
2, 4172, Control_c, 0, 64, 28
2, 4172, Note_on_c, 0, 70, 0
2, 4187, Control_c, 0, 64, 0
2, 4279, Control_c, 0, 64, 13
2, 4293, Control_c, 0, 64, 44
2, 4308, Control_c, 0, 64, 50
2, 4324, Control_c, 0, 64, 55
2, 4339, Control_c, 0, 64, 59
2, 4354, Control_c, 0, 64, 61
2, 4376, Control_c, 0, 64, 64
2, 4391, Control_c, 0, 64, 66
2, 4403, Note_on_c, 0, 58, 0
2, 4407, Control_c, 0, 64, 70
2, 4417, Note_on_c, 0, 73, 77
2, 4420, Control_c, 0, 64, 76
2, 4435, Control_c, 0, 64, 84
2, 4441, Note_on_c, 0, 70, 56
2, 4451, Control_c, 0, 64, 94
2, 4466, Control_c, 0, 64, 112
2, 4467, Note_on_c, 0, 69, 0
2, 4481, Control_c, 0, 64, 127
2, 4491, Note_on_c, 0, 72, 0
2, 4557, Note_on_c, 0, 66, 0
2, 4759, Note_on_c, 0, 72, 54
2, 4762, Note_on_c, 0, 75, 67
2, 4766, Note_on_c, 0, 58, 35
2, 4776, Note_on_c, 0, 70, 0
2, 4787, Note_on_c, 0, 73, 0
2, 4800, Control_c, 0, 64, 89
2, 4815, Note_on_c, 0, 63, 0
2, 4816, Control_c, 0, 64, 63
2, 4831, Control_c, 0, 64, 0
2, 4968, Control_c, 0, 64, 36
2, 4983, Control_c, 0, 64, 48
2, 4998, Control_c, 0, 64, 54
2, 5013, Control_c, 0, 64, 58
2, 5028, Control_c, 0, 64, 62
2, 5044, Control_c, 0, 64, 65
2, 5044, Note_on_c, 0, 72, 0
2, 5059, Control_c, 0, 64, 68
2, 5074, Control_c, 0, 64, 74
2, 5076, Note_on_c, 0, 58, 0
2, 5090, Control_c, 0, 64, 83
2, 5105, Control_c, 0, 64, 98
2, 5108, Note_on_c, 0, 75, 0
2, 5120, Control_c, 0, 64, 127
2, 5428, Note_on_c, 0, 75, 74
2, 5440, Note_on_c, 0, 63, 36
2, 5444, Note_on_c, 0, 66, 39
2, 5444, Note_on_c, 0, 69, 53
2, 5445, Note_on_c, 0, 58, 43
2, 5445, Note_on_c, 0, 72, 55
2, 5462, Note_on_c, 0, 60, 39
2, 5493, Control_c, 0, 64, 85
2, 5508, Control_c, 0, 64, 64
2, 5524, Control_c, 0, 64, 0
2, 5630, Control_c, 0, 64, 43
2, 5645, Control_c, 0, 64, 55
2, 5660, Control_c, 0, 64, 61
2, 5675, Control_c, 0, 64, 65
2, 5680, Note_on_c, 0, 63, 0
2, 5691, Control_c, 0, 64, 69
2, 5706, Control_c, 0, 64, 77
2, 5720, Control_c, 0, 64, 92
2, 5736, Control_c, 0, 64, 127
2, 5739, Note_on_c, 0, 72, 0
2, 5751, Note_on_c, 0, 69, 0
2, 5753, Note_on_c, 0, 66, 0
2, 5756, Note_on_c, 0, 75, 0
2, 5760, Note_on_c, 0, 58, 0
2, 5775, Note_on_c, 0, 60, 0
2, 6132, Note_on_c, 0, 75, 73
2, 6147, Note_on_c, 0, 65, 36
2, 6147, Note_on_c, 0, 72, 57
2, 6148, Note_on_c, 0, 61, 37
2, 6150, Note_on_c, 0, 58, 39
2, 6200, Control_c, 0, 64, 79
2, 6215, Control_c, 0, 64, 61
2, 6230, Control_c, 0, 64, 0
2, 6398, Control_c, 0, 64, 41
2, 6413, Control_c, 0, 64, 50
2, 6428, Control_c, 0, 64, 56
2, 6444, Control_c, 0, 64, 60
2, 6453, Note_on_c, 0, 58, 0
2, 6459, Control_c, 0, 64, 62
2, 6474, Control_c, 0, 64, 64
2, 6489, Control_c, 0, 64, 67
2, 6504, Control_c, 0, 64, 71
2, 6519, Control_c, 0, 64, 77
2, 6535, Control_c, 0, 64, 84
2, 6550, Control_c, 0, 64, 95
2, 6565, Control_c, 0, 64, 116
2, 6580, Control_c, 0, 64, 127
2, 6817, Note_on_c, 0, 73, 68
2, 6831, Note_on_c, 0, 75, 0
2, 6834, Note_on_c, 0, 70, 51
2, 6835, Note_on_c, 0, 58, 41
2, 6845, Note_on_c, 0, 72, 0
2, 6861, Control_c, 0, 64, 89
2, 6876, Control_c, 0, 64, 69
2, 6892, Control_c, 0, 64, 42
2, 6906, Control_c, 0, 64, 0
2, 7029, Control_c, 0, 64, 25
2, 7045, Control_c, 0, 64, 44
2, 7059, Control_c, 0, 64, 51
2, 7074, Control_c, 0, 64, 55
2, 7090, Control_c, 0, 64, 59
2, 7105, Control_c, 0, 64, 62
2, 7120, Control_c, 0, 64, 64
2, 7125, Note_on_c, 0, 58, 0
2, 7132, Note_on_c, 0, 75, 76
2, 7135, Control_c, 0, 64, 66
2, 7137, Note_on_c, 0, 70, 0
2, 7144, Note_on_c, 0, 72, 57
2, 7150, Control_c, 0, 64, 70
2, 7166, Control_c, 0, 64, 76
2, 7178, Note_on_c, 0, 73, 0
2, 7181, Control_c, 0, 64, 85
2, 7196, Control_c, 0, 64, 97
2, 7212, Control_c, 0, 64, 124
2, 7227, Control_c, 0, 64, 127
2, 7453, Note_on_c, 0, 65, 0
2, 7481, Note_on_c, 0, 77, 75
2, 7490, Note_on_c, 0, 72, 0
2, 7491, Note_on_c, 0, 73, 60
2, 7493, Note_on_c, 0, 58, 40
2, 7544, Note_on_c, 0, 75, 0
2, 7553, Control_c, 0, 64, 89
2, 7569, Control_c, 0, 64, 64
2, 7570, Note_on_c, 0, 61, 0
2, 7584, Control_c, 0, 64, 0
2, 7690, Control_c, 0, 64, 29
2, 7705, Control_c, 0, 64, 49
2, 7720, Control_c, 0, 64, 55
2, 7736, Control_c, 0, 64, 59
2, 7752, Control_c, 0, 64, 61
2, 7758, Note_on_c, 0, 73, 0
2, 7768, Control_c, 0, 64, 64
2, 7782, Control_c, 0, 64, 67
2, 7797, Control_c, 0, 64, 72
2, 7798, Note_on_c, 0, 58, 0
2, 7806, Note_on_c, 0, 77, 0
2, 7813, Control_c, 0, 64, 79
2, 7828, Control_c, 0, 64, 91
2, 7844, Control_c, 0, 64, 127
2, 8187, Note_on_c, 0, 77, 83
2, 8214, Note_on_c, 0, 58, 40
2, 8220, Note_on_c, 0, 73, 57
2, 8222, Note_on_c, 0, 65, 47
2, 8226, Note_on_c, 0, 61, 41
2, 8232, Note_on_c, 0, 70, 46
2, 8275, Control_c, 0, 64, 92
2, 8291, Control_c, 0, 64, 68
2, 8306, Control_c, 0, 64, 0
2, 8397, Control_c, 0, 64, 36
2, 8413, Control_c, 0, 64, 56
2, 8428, Control_c, 0, 64, 62
2, 8444, Control_c, 0, 64, 66
2, 8459, Control_c, 0, 64, 74
2, 8463, Note_on_c, 0, 58, 0
2, 8464, Note_on_c, 0, 70, 0
2, 8473, Control_c, 0, 64, 92
2, 8488, Note_on_c, 0, 65, 0
2, 8489, Control_c, 0, 64, 127
2, 8506, Note_on_c, 0, 77, 0
2, 8511, Note_on_c, 0, 61, 0
2, 8512, Note_on_c, 0, 73, 0
2, 8923, Note_on_c, 0, 77, 82
2, 8945, Note_on_c, 0, 73, 59
2, 8950, Note_on_c, 0, 60, 39
2, 8951, Note_on_c, 0, 69, 54
2, 8963, Note_on_c, 0, 58, 46
2, 9061, Control_c, 0, 64, 91
2, 9077, Control_c, 0, 64, 68
2, 9092, Control_c, 0, 64, 18
2, 9106, Control_c, 0, 64, 0
2, 9213, Control_c, 0, 64, 25
2, 9228, Control_c, 0, 64, 48
2, 9244, Control_c, 0, 64, 55
2, 9259, Control_c, 0, 64, 60
2, 9274, Control_c, 0, 64, 63
2, 9290, Control_c, 0, 64, 66
2, 9305, Control_c, 0, 64, 70
2, 9308, Note_on_c, 0, 58, 0
2, 9320, Control_c, 0, 64, 78
2, 9335, Control_c, 0, 64, 91
2, 9350, Control_c, 0, 64, 116
2, 9365, Control_c, 0, 64, 127
2, 9659, Note_on_c, 0, 75, 75
2, 9668, Note_on_c, 0, 72, 58
2, 9669, Note_on_c, 0, 58, 47
2, 9685, Control_c, 0, 64, 92
2, 9689, Note_on_c, 0, 77, 0
2, 9699, Note_on_c, 0, 73, 0
2, 9700, Control_c, 0, 64, 66
2, 9715, Control_c, 0, 64, 0
2, 9829, Control_c, 0, 64, 40
2, 9845, Control_c, 0, 64, 51
2, 9860, Control_c, 0, 64, 56
2, 9874, Control_c, 0, 64, 59
2, 9890, Control_c, 0, 64, 62
2, 9905, Control_c, 0, 64, 64
2, 9921, Control_c, 0, 64, 67
2, 9935, Note_on_c, 0, 58, 0
2, 9936, Control_c, 0, 64, 71
2, 9950, Control_c, 0, 64, 77
2, 9963, Note_on_c, 0, 77, 83
2, 9966, Control_c, 0, 64, 86
2, 9981, Control_c, 0, 64, 102
2, 9981, Note_on_c, 0, 73, 58
2, 9983, Note_on_c, 0, 72, 0
2, 9997, Control_c, 0, 64, 127
2, 10002, Note_on_c, 0, 75, 0
2, 10257, Note_on_c, 0, 69, 0
2, 10304, Note_on_c, 0, 78, 77
2, 10310, Note_on_c, 0, 58, 38
2, 10313, Note_on_c, 0, 75, 55
2, 10313, Note_on_c, 0, 77, 0
2, 10353, Note_on_c, 0, 60, 0
2, 10366, Note_on_c, 0, 73, 0
2, 10378, Control_c, 0, 64, 90
2, 10392, Control_c, 0, 64, 67
2, 10408, Control_c, 0, 64, 0
2, 10552, Control_c, 0, 64, 30
2, 10568, Control_c, 0, 64, 49
2, 10583, Control_c, 0, 64, 56
2, 10598, Control_c, 0, 64, 60
2, 10612, Control_c, 0, 64, 63
2, 10627, Control_c, 0, 64, 66
2, 10642, Control_c, 0, 64, 73
2, 10657, Control_c, 0, 64, 83
2, 10668, Note_on_c, 0, 78, 0
2, 10670, Note_on_c, 0, 75, 0
2, 10672, Control_c, 0, 64, 100
2, 10675, Note_on_c, 0, 58, 0
2, 10688, Control_c, 0, 64, 127
2, 10986, Note_on_c, 0, 78, 79
2, 11006, Note_on_c, 0, 69, 55
2, 11008, Note_on_c, 0, 58, 40
2, 11014, Note_on_c, 0, 75, 58
2, 11022, Note_on_c, 0, 60, 39
2, 11068, Control_c, 0, 64, 95
2, 11084, Control_c, 0, 64, 70
2, 11099, Control_c, 0, 64, 40
2, 11114, Control_c, 0, 64, 0
2, 11220, Control_c, 0, 64, 37
2, 11235, Control_c, 0, 64, 51
2, 11251, Control_c, 0, 64, 57
2, 11266, Control_c, 0, 64, 61
2, 11289, Control_c, 0, 64, 64
2, 11293, Note_on_c, 0, 69, 0
2, 11304, Control_c, 0, 64, 67
2, 11320, Control_c, 0, 64, 72
2, 11335, Control_c, 0, 64, 80
2, 11335, Note_on_c, 0, 58, 0
2, 11348, Note_on_c, 0, 78, 0
2, 11350, Control_c, 0, 64, 91
2, 11365, Control_c, 0, 64, 110
2, 11365, Note_on_c, 0, 75, 0
2, 11380, Control_c, 0, 64, 127
2, 11720, Note_on_c, 0, 78, 75
2, 11745, Note_on_c, 0, 75, 52
2, 11749, Note_on_c, 0, 58, 38
2, 11750, Note_on_c, 0, 70, 48
2, 11820, Control_c, 0, 64, 82
2, 11837, Control_c, 0, 64, 63
2, 11852, Control_c, 0, 64, 0
2, 11875, Note_on_c, 0, 60, 0
2, 11974, Control_c, 0, 64, 39
2, 11988, Control_c, 0, 64, 50
2, 12004, Control_c, 0, 64, 56
2, 12019, Control_c, 0, 64, 59
2, 12034, Control_c, 0, 64, 62
2, 12057, Control_c, 0, 64, 64
2, 12071, Control_c, 0, 64, 66
2, 12087, Control_c, 0, 64, 69
2, 12102, Control_c, 0, 64, 72
2, 12118, Control_c, 0, 64, 77
2, 12133, Control_c, 0, 64, 80
2, 12147, Control_c, 0, 64, 85
2, 12160, Note_on_c, 0, 58, 0
2, 12163, Control_c, 0, 64, 90
2, 12178, Control_c, 0, 64, 97
2, 12193, Control_c, 0, 64, 103
2, 12208, Control_c, 0, 64, 109
2, 12223, Control_c, 0, 64, 117
2, 12239, Control_c, 0, 64, 127
2, 12448, Note_on_c, 0, 77, 58
2, 12457, Note_on_c, 0, 58, 53
2, 12461, Note_on_c, 0, 73, 52
2, 12489, Note_on_c, 0, 78, 0
2, 12495, Note_on_c, 0, 75, 0
2, 12497, Control_c, 0, 64, 109
2, 12512, Control_c, 0, 64, 93
2, 12528, Control_c, 0, 64, 78
2, 12542, Control_c, 0, 64, 68
2, 12558, Control_c, 0, 64, 59
2, 12573, Control_c, 0, 64, 25
2, 12588, Control_c, 0, 64, 0
2, 12772, Note_on_c, 0, 60, 70
2, 12772, Note_on_c, 0, 75, 61
2, 12778, Note_on_c, 0, 77, 0
2, 12849, Note_on_c, 0, 58, 0
2, 13124, Note_on_c, 0, 61, 52
2, 13130, Note_on_c, 0, 60, 0
2, 13130, Note_on_c, 0, 70, 0
2, 13130, Note_on_c, 0, 77, 57
2, 13135, Note_on_c, 0, 73, 0
2, 13135, Note_on_c, 0, 75, 0
2, 13326, Control_c, 0, 64, 43
2, 13341, Control_c, 0, 64, 54
2, 13357, Control_c, 0, 64, 59
2, 13372, Control_c, 0, 64, 62
2, 13386, Control_c, 0, 64, 65
2, 13402, Control_c, 0, 64, 68
2, 13417, Control_c, 0, 64, 75
2, 13432, Control_c, 0, 64, 85
2, 13448, Control_c, 0, 64, 104
2, 13463, Control_c, 0, 64, 127
2, 13479, Note_on_c, 0, 61, 0
2, 13514, Note_on_c, 0, 77, 0
2, 13784, Note_on_c, 0, 77, 76
2, 13793, Note_on_c, 0, 61, 61
2, 13798, Note_on_c, 0, 70, 55
2, 13803, Note_on_c, 0, 73, 56
2, 13897, Control_c, 0, 64, 91
2, 13912, Control_c, 0, 64, 67
2, 13928, Control_c, 0, 64, 37
2, 13942, Control_c, 0, 64, 0
2, 14004, Control_c, 0, 64, 42
2, 14018, Control_c, 0, 64, 56
2, 14033, Control_c, 0, 64, 62
2, 14049, Control_c, 0, 64, 66
2, 14064, Control_c, 0, 64, 73
2, 14071, Note_on_c, 0, 70, 0
2, 14080, Control_c, 0, 64, 89
2, 14094, Control_c, 0, 64, 127
2, 14095, Note_on_c, 0, 77, 0
2, 14168, Note_on_c, 0, 61, 0
2, 14176, Note_on_c, 0, 73, 0
2, 14446, Note_on_c, 0, 77, 78
2, 14458, Note_on_c, 0, 61, 61
2, 14472, Note_on_c, 0, 70, 53
2, 14480, Note_on_c, 0, 67, 51
2, 14556, Control_c, 0, 64, 91
2, 14572, Control_c, 0, 64, 68
2, 14586, Control_c, 0, 64, 41
2, 14601, Control_c, 0, 64, 0
2, 14693, Control_c, 0, 64, 37
2, 14708, Control_c, 0, 64, 54
2, 14724, Control_c, 0, 64, 60
2, 14739, Control_c, 0, 64, 63
2, 14754, Control_c, 0, 64, 66
2, 14770, Control_c, 0, 64, 70
2, 14784, Control_c, 0, 64, 78
2, 14799, Control_c, 0, 64, 92
2, 14815, Control_c, 0, 64, 127
2, 15027, Note_on_c, 0, 61, 0
2, 15153, Note_on_c, 0, 67, 0
2, 15156, Note_on_c, 0, 75, 65
2, 15168, Note_on_c, 0, 60, 54
2, 15178, Note_on_c, 0, 66, 47
2, 15197, Note_on_c, 0, 77, 0
2, 15264, Control_c, 0, 64, 96
2, 15279, Control_c, 0, 64, 78
2, 15295, Control_c, 0, 64, 67
2, 15309, Control_c, 0, 64, 55
2, 15325, Control_c, 0, 64, 0
2, 15463, Note_on_c, 0, 61, 71
2, 15464, Note_on_c, 0, 73, 71
2, 15502, Note_on_c, 0, 60, 0
2, 15505, Note_on_c, 0, 75, 0
2, 15802, Note_on_c, 0, 72, 57
2, 15808, Note_on_c, 0, 63, 59
2, 15817, Note_on_c, 0, 73, 0
2, 15818, Note_on_c, 0, 61, 0
2, 15827, Note_on_c, 0, 66, 0
2, 15855, Note_on_c, 0, 70, 0
2, 15986, Control_c, 0, 64, 31
2, 16001, Control_c, 0, 64, 45
2, 16017, Control_c, 0, 64, 51
2, 16032, Control_c, 0, 64, 56
2, 16048, Control_c, 0, 64, 60
2, 16062, Control_c, 0, 64, 63
2, 16077, Control_c, 0, 64, 65
2, 16093, Control_c, 0, 64, 68
2, 16108, Control_c, 0, 64, 74
2, 16124, Control_c, 0, 64, 82
2, 16139, Control_c, 0, 64, 97
2, 16153, Control_c, 0, 64, 127
2, 16185, Note_on_c, 0, 63, 0
2, 16488, Note_on_c, 0, 73, 72
2, 16491, Note_on_c, 0, 72, 0
2, 16492, Note_on_c, 0, 63, 58
2, 16497, Note_on_c, 0, 66, 49
2, 16502, Note_on_c, 0, 70, 54
2, 16548, Control_c, 0, 64, 77
2, 16564, Control_c, 0, 64, 59
2, 16579, Control_c, 0, 64, 0
2, 16662, Control_c, 0, 64, 25
2, 16677, Control_c, 0, 64, 43
2, 16692, Control_c, 0, 64, 52
2, 16707, Control_c, 0, 64, 58
2, 16722, Control_c, 0, 64, 61
2, 16738, Control_c, 0, 64, 63
2, 16754, Control_c, 0, 64, 65
2, 16770, Control_c, 0, 64, 68
2, 16784, Control_c, 0, 64, 71
2, 16799, Control_c, 0, 64, 77
2, 16809, Note_on_c, 0, 75, 76
2, 16815, Control_c, 0, 64, 84
2, 16830, Control_c, 0, 64, 94
2, 16846, Control_c, 0, 64, 110
2, 16850, Note_on_c, 0, 63, 0
2, 16855, Note_on_c, 0, 70, 0
2, 16860, Control_c, 0, 64, 127
2, 16863, Note_on_c, 0, 66, 0
2, 16864, Note_on_c, 0, 73, 0
2, 17205, Note_on_c, 0, 69, 69
2, 17213, Note_on_c, 0, 65, 43
2, 17215, Note_on_c, 0, 63, 41
2, 17264, Note_on_c, 0, 75, 0
2, 17270, Control_c, 0, 64, 98
2, 17286, Control_c, 0, 64, 70
2, 17301, Control_c, 0, 64, 48
2, 17316, Control_c, 0, 64, 0
2, 17446, Control_c, 0, 64, 35
2, 17460, Control_c, 0, 64, 49
2, 17475, Control_c, 0, 64, 56
2, 17491, Control_c, 0, 64, 60
2, 17506, Control_c, 0, 64, 63
2, 17521, Control_c, 0, 64, 66
2, 17536, Control_c, 0, 64, 70
2, 17551, Control_c, 0, 64, 76
2, 17567, Control_c, 0, 64, 86
2, 17583, Control_c, 0, 64, 100
2, 17598, Control_c, 0, 64, 127
2, 17884, Note_on_c, 0, 77, 78
2, 17919, Note_on_c, 0, 61, 44
2, 17919, Note_on_c, 0, 70, 58
2, 17928, Note_on_c, 0, 69, 0
2, 17993, Control_c, 0, 64, 97
2, 18009, Control_c, 0, 64, 84
2, 18013, Note_on_c, 0, 63, 0
2, 18024, Control_c, 0, 64, 72
2, 18038, Control_c, 0, 64, 64
2, 18054, Control_c, 0, 64, 45
2, 18069, Control_c, 0, 64, 0
2, 18110, Note_on_c, 0, 65, 0
2, 18209, Note_on_c, 0, 72, 76
2, 18218, Note_on_c, 0, 63, 62
2, 18242, Note_on_c, 0, 70, 0
2, 18279, Note_on_c, 0, 61, 0
2, 18550, Note_on_c, 0, 65, 53
2, 18553, Note_on_c, 0, 73, 63
2, 18564, Note_on_c, 0, 63, 0
2, 18597, Note_on_c, 0, 72, 0
2, 18746, Control_c, 0, 64, 34
2, 18761, Control_c, 0, 64, 50
2, 18777, Control_c, 0, 64, 57
2, 18792, Control_c, 0, 64, 61
2, 18807, Control_c, 0, 64, 64
2, 18822, Control_c, 0, 64, 67
2, 18837, Control_c, 0, 64, 72
2, 18853, Control_c, 0, 64, 82
2, 18868, Control_c, 0, 64, 98
2, 18882, Control_c, 0, 64, 127
2, 18885, Note_on_c, 0, 65, 0
2, 19247, Note_on_c, 0, 79, 69
2, 19251, Note_on_c, 0, 65, 58
2, 19284, Note_on_c, 0, 77, 0
2, 19316, Control_c, 0, 64, 124
2, 19332, Control_c, 0, 64, 78
2, 19347, Control_c, 0, 64, 58
2, 19362, Control_c, 0, 64, 0
2, 19468, Control_c, 0, 64, 43
2, 19484, Control_c, 0, 64, 51
2, 19499, Control_c, 0, 64, 55
2, 19514, Control_c, 0, 64, 58
2, 19530, Control_c, 0, 64, 60
2, 19545, Control_c, 0, 64, 63
2, 19560, Control_c, 0, 64, 64
2, 19567, Note_on_c, 0, 81, 79
2, 19575, Control_c, 0, 64, 67
2, 19590, Control_c, 0, 64, 70
2, 19606, Control_c, 0, 64, 75
2, 19607, Note_on_c, 0, 79, 0
2, 19621, Control_c, 0, 64, 82
2, 19636, Control_c, 0, 64, 90
2, 19651, Control_c, 0, 64, 98
2, 19666, Control_c, 0, 64, 106
2, 19675, Note_on_c, 0, 65, 0
2, 19681, Control_c, 0, 64, 117
2, 19697, Control_c, 0, 64, 127
2, 19976, Note_on_c, 0, 65, 44
2, 19976, Note_on_c, 0, 82, 75
2, 19983, Note_on_c, 0, 66, 46
2, 20038, Control_c, 0, 64, 110
2, 20038, Note_on_c, 0, 81, 0
2, 20054, Control_c, 0, 64, 99
2, 20069, Control_c, 0, 64, 89
2, 20084, Control_c, 0, 64, 79
2, 20099, Control_c, 0, 64, 70
2, 20114, Control_c, 0, 64, 62
2, 20130, Control_c, 0, 64, 44
2, 20145, Control_c, 0, 64, 0
2, 20680, Note_on_c, 0, 72, 60
2, 20681, Note_on_c, 0, 63, 48
2, 20717, Note_on_c, 0, 73, 0
2, 20743, Note_on_c, 0, 65, 0
2, 20988, Note_on_c, 0, 72, 0
2, 20988, Note_on_c, 0, 73, 74
2, 20991, Note_on_c, 0, 61, 49
2, 21051, Note_on_c, 0, 63, 0
2, 21306, Note_on_c, 0, 61, 0
2, 21331, Note_on_c, 0, 75, 61
2, 21337, Note_on_c, 0, 73, 0
2, 21345, Note_on_c, 0, 60, 39
2, 21482, Control_c, 0, 64, 23
2, 21498, Control_c, 0, 64, 45
2, 21513, Control_c, 0, 64, 52
2, 21529, Control_c, 0, 64, 56
2, 21544, Control_c, 0, 64, 59
2, 21558, Control_c, 0, 64, 62
2, 21574, Control_c, 0, 64, 64
2, 21589, Control_c, 0, 64, 65
2, 21605, Control_c, 0, 64, 68
2, 21619, Control_c, 0, 64, 72
2, 21634, Control_c, 0, 64, 79
2, 21650, Control_c, 0, 64, 87
2, 21665, Control_c, 0, 64, 97
2, 21681, Control_c, 0, 64, 111
2, 21697, Control_c, 0, 64, 127
2, 22017, Note_on_c, 0, 81, 72
2, 22018, Note_on_c, 0, 58, 46
2, 22055, Note_on_c, 0, 82, 0
2, 22068, Control_c, 0, 64, 111
2, 22080, Note_on_c, 0, 60, 0
2, 22084, Control_c, 0, 64, 88
2, 22099, Control_c, 0, 64, 74
2, 22113, Control_c, 0, 64, 64
2, 22129, Control_c, 0, 64, 48
2, 22144, Control_c, 0, 64, 0
2, 22345, Note_on_c, 0, 82, 81
2, 22393, Note_on_c, 0, 81, 0
2, 22667, Note_on_c, 0, 57, 30
2, 22677, Note_on_c, 0, 84, 82
2, 22721, Note_on_c, 0, 58, 0
2, 22721, Note_on_c, 0, 82, 0
2, 22987, Control_c, 0, 64, 28
2, 23002, Control_c, 0, 64, 49
2, 23018, Control_c, 0, 64, 55
2, 23024, Note_on_c, 0, 75, 0
2, 23033, Control_c, 0, 64, 59
2, 23049, Control_c, 0, 64, 61
2, 23064, Control_c, 0, 64, 63
2, 23079, Control_c, 0, 64, 65
2, 23095, Control_c, 0, 64, 67
2, 23109, Control_c, 0, 64, 71
2, 23125, Control_c, 0, 64, 75
2, 23140, Control_c, 0, 64, 80
2, 23154, Control_c, 0, 64, 86
2, 23170, Control_c, 0, 64, 92
2, 23185, Control_c, 0, 64, 98
2, 23200, Control_c, 0, 64, 102
2, 23216, Control_c, 0, 64, 103
2, 23230, Control_c, 0, 64, 104
2, 23276, Control_c, 0, 64, 104
2, 23382, Note_on_c, 0, 78, 65
2, 23383, Control_c, 0, 64, 104
2, 23398, Control_c, 0, 64, 103
2, 23408, Note_on_c, 0, 75, 45
2, 23414, Control_c, 0, 64, 98
2, 23429, Control_c, 0, 64, 91
2, 23445, Control_c, 0, 64, 83
2, 23459, Control_c, 0, 64, 75
2, 23474, Control_c, 0, 64, 68
2, 23490, Control_c, 0, 64, 62
2, 23505, Control_c, 0, 64, 47
2, 23520, Control_c, 0, 64, 0
2, 23537, Note_on_c, 0, 66, 0
2, 23731, Note_on_c, 0, 77, 65
2, 23740, Note_on_c, 0, 73, 49
2, 23749, Note_on_c, 0, 75, 0
2, 23861, Note_on_c, 0, 78, 0
2, 24042, Note_on_c, 0, 73, 0
2, 24070, Note_on_c, 0, 75, 52
2, 24070, Note_on_c, 0, 77, 0
2, 24100, Note_on_c, 0, 72, 28
2, 24259, Control_c, 0, 64, 37
2, 24274, Control_c, 0, 64, 47
2, 24290, Control_c, 0, 64, 53
2, 24304, Control_c, 0, 64, 57
2, 24319, Control_c, 0, 64, 60
2, 24342, Control_c, 0, 64, 62
2, 24357, Control_c, 0, 64, 64
2, 24373, Control_c, 0, 64, 65
2, 24387, Control_c, 0, 64, 68
2, 24393, Note_on_c, 0, 57, 0
2, 24402, Control_c, 0, 64, 71
2, 24418, Control_c, 0, 64, 76
2, 24418, Note_on_c, 0, 84, 0
2, 24433, Control_c, 0, 64, 81
2, 24449, Control_c, 0, 64, 88
2, 24464, Control_c, 0, 64, 94
2, 24479, Control_c, 0, 64, 100
2, 24495, Control_c, 0, 64, 103
2, 24509, Control_c, 0, 64, 104
2, 24525, Control_c, 0, 64, 105
2, 24540, Control_c, 0, 64, 106
2, 24585, Control_c, 0, 64, 106
2, 24721, Control_c, 0, 64, 106
2, 24725, Note_on_c, 0, 84, 65
2, 24737, Control_c, 0, 64, 99
2, 24752, Control_c, 0, 64, 88
2, 24756, Note_on_c, 0, 57, 38
2, 24768, Control_c, 0, 64, 75
2, 24783, Control_c, 0, 64, 64
2, 24797, Control_c, 0, 64, 0
2, 24919, Control_c, 0, 64, 32
2, 24935, Control_c, 0, 64, 46
2, 24950, Control_c, 0, 64, 51
2, 24966, Control_c, 0, 64, 55
2, 24981, Control_c, 0, 64, 58
2, 24996, Control_c, 0, 64, 61
2, 25012, Control_c, 0, 64, 63
2, 25026, Control_c, 0, 64, 64
2, 25041, Control_c, 0, 64, 66
2, 25044, Note_on_c, 0, 58, 46
2, 25045, Note_on_c, 0, 82, 75
2, 25057, Control_c, 0, 64, 69
2, 25072, Control_c, 0, 64, 73
2, 25077, Note_on_c, 0, 84, 0
2, 25088, Control_c, 0, 64, 77
2, 25103, Note_on_c, 0, 57, 0
2, 25110, Control_c, 0, 64, 83
2, 25122, Note_on_c, 0, 58, 0
2, 25126, Control_c, 0, 64, 88
2, 25141, Control_c, 0, 64, 93
2, 25155, Control_c, 0, 64, 98
2, 25171, Control_c, 0, 64, 103
2, 25186, Control_c, 0, 64, 111
2, 25201, Control_c, 0, 64, 127
2, 25397, Note_on_c, 0, 81, 68
2, 25427, Note_on_c, 0, 60, 45
2, 25457, Note_on_c, 0, 82, 0
2, 25475, Control_c, 0, 64, 103
2, 25490, Control_c, 0, 64, 88
2, 25505, Control_c, 0, 64, 74
2, 25520, Control_c, 0, 64, 63
2, 25536, Control_c, 0, 64, 0
2, 25584, Note_on_c, 0, 72, 0
2, 25661, Note_on_c, 0, 75, 0
2, 25702, Control_c, 0, 64, 35
2, 25717, Control_c, 0, 64, 47
2, 25733, Control_c, 0, 64, 54
2, 25748, Control_c, 0, 64, 59
2, 25765, Control_c, 0, 64, 62
2, 25780, Control_c, 0, 64, 64
2, 25794, Control_c, 0, 64, 66
2, 25810, Control_c, 0, 64, 68
2, 25825, Control_c, 0, 64, 72
2, 25840, Control_c, 0, 64, 77
2, 25856, Control_c, 0, 64, 82
2, 25878, Control_c, 0, 64, 86
2, 25894, Control_c, 0, 64, 88
2, 25909, Control_c, 0, 64, 90
2, 25924, Control_c, 0, 64, 91
2, 25939, Control_c, 0, 64, 92
2, 26080, Note_on_c, 0, 75, 62
2, 26091, Control_c, 0, 64, 91
2, 26098, Note_on_c, 0, 72, 46
2, 26106, Control_c, 0, 64, 88
2, 26121, Control_c, 0, 64, 83
2, 26137, Control_c, 0, 64, 75
2, 26151, Control_c, 0, 64, 68
2, 26167, Control_c, 0, 64, 60
2, 26182, Control_c, 0, 64, 33
2, 26197, Control_c, 0, 64, 0
2, 26404, Note_on_c, 0, 72, 0
2, 26423, Note_on_c, 0, 73, 63
2, 26437, Note_on_c, 0, 70, 44
2, 26451, Note_on_c, 0, 75, 0
2, 26738, Note_on_c, 0, 73, 0
2, 26754, Note_on_c, 0, 72, 49
2, 26756, Note_on_c, 0, 70, 0
2, 26784, Note_on_c, 0, 69, 34
2, 26920, Control_c, 0, 64, 10
2, 26936, Control_c, 0, 64, 43
2, 26951, Control_c, 0, 64, 51
2, 26967, Control_c, 0, 64, 56
2, 26981, Control_c, 0, 64, 60
2, 26996, Control_c, 0, 64, 63
2, 27012, Control_c, 0, 64, 66
2, 27027, Control_c, 0, 64, 69
2, 27042, Control_c, 0, 64, 74
2, 27057, Control_c, 0, 64, 81
2, 27069, Note_on_c, 0, 60, 0
2, 27072, Control_c, 0, 64, 90
2, 27078, Note_on_c, 0, 81, 0
2, 27088, Control_c, 0, 64, 98
2, 27102, Control_c, 0, 64, 108
2, 27117, Control_c, 0, 64, 127
2, 27430, Note_on_c, 0, 81, 76
2, 27458, Note_on_c, 0, 60, 50
2, 27521, Control_c, 0, 64, 116
2, 27537, Control_c, 0, 64, 93
2, 27552, Control_c, 0, 64, 77
2, 27567, Control_c, 0, 64, 67
2, 27582, Control_c, 0, 64, 58
2, 27597, Control_c, 0, 64, 29
2, 27612, Control_c, 0, 64, 0
2, 27738, Note_on_c, 0, 84, 80
2, 27744, Note_on_c, 0, 61, 58
2, 27759, Note_on_c, 0, 60, 0
2, 27769, Note_on_c, 0, 81, 0
2, 28104, Note_on_c, 0, 77, 78
2, 28109, Note_on_c, 0, 63, 53
2, 28131, Note_on_c, 0, 61, 0
2, 28133, Note_on_c, 0, 84, 0
2, 28319, Control_c, 0, 64, 26
2, 28335, Control_c, 0, 64, 48
2, 28350, Control_c, 0, 64, 55
2, 28366, Control_c, 0, 64, 59
2, 28380, Control_c, 0, 64, 62
2, 28386, Note_on_c, 0, 72, 0
2, 28395, Control_c, 0, 64, 65
2, 28411, Control_c, 0, 64, 67
2, 28426, Control_c, 0, 64, 71
2, 28429, Note_on_c, 0, 69, 0
2, 28441, Control_c, 0, 64, 76
2, 28456, Control_c, 0, 64, 80
2, 28471, Control_c, 0, 64, 84
2, 28487, Control_c, 0, 64, 87
2, 28502, Control_c, 0, 64, 91
2, 28517, Control_c, 0, 64, 94
2, 28532, Control_c, 0, 64, 99
2, 28547, Control_c, 0, 64, 105
2, 28562, Control_c, 0, 64, 112
2, 28578, Control_c, 0, 64, 115
2, 28766, Note_on_c, 0, 69, 60
2, 28772, Note_on_c, 0, 65, 46
2, 28775, Control_c, 0, 64, 114
2, 28790, Control_c, 0, 64, 110
2, 28806, Control_c, 0, 64, 103
2, 28821, Control_c, 0, 64, 95
2, 28836, Control_c, 0, 64, 87
2, 28852, Control_c, 0, 64, 77
2, 28866, Control_c, 0, 64, 69
2, 28881, Control_c, 0, 64, 61
2, 28897, Control_c, 0, 64, 37
2, 28912, Control_c, 0, 64, 0
2, 29083, Note_on_c, 0, 65, 0
2, 29090, Note_on_c, 0, 70, 75
2, 29092, Note_on_c, 0, 67, 59
2, 29134, Note_on_c, 0, 69, 0
2, 29420, Note_on_c, 0, 72, 60
2, 29423, Note_on_c, 0, 69, 53
2, 29426, Note_on_c, 0, 70, 0
2, 29435, Note_on_c, 0, 67, 0
2, 29557, Control_c, 0, 64, 32
2, 29573, Control_c, 0, 64, 49
2, 29588, Control_c, 0, 64, 54
2, 29603, Control_c, 0, 64, 58
2, 29619, Control_c, 0, 64, 60
2, 29633, Control_c, 0, 64, 62
2, 29649, Control_c, 0, 64, 64
2, 29664, Control_c, 0, 64, 66
2, 29679, Control_c, 0, 64, 68
2, 29682, Note_on_c, 0, 72, 0
2, 29695, Control_c, 0, 64, 71
2, 29716, Control_c, 0, 64, 76
2, 29732, Control_c, 0, 64, 81
2, 29747, Control_c, 0, 64, 88
2, 29750, Note_on_c, 0, 63, 0
2, 29762, Control_c, 0, 64, 95
2, 29778, Control_c, 0, 64, 102
2, 29793, Control_c, 0, 64, 110
2, 29808, Control_c, 0, 64, 119
2, 29823, Control_c, 0, 64, 127
2, 30089, Note_on_c, 0, 72, 72
2, 30099, Note_on_c, 0, 63, 60
2, 30173, Control_c, 0, 64, 110
2, 30188, Control_c, 0, 64, 94
2, 30203, Control_c, 0, 64, 81
2, 30218, Control_c, 0, 64, 70
2, 30233, Control_c, 0, 64, 62
2, 30249, Control_c, 0, 64, 35
2, 30264, Control_c, 0, 64, 0
2, 30401, Note_on_c, 0, 73, 80
2, 30408, Note_on_c, 0, 61, 63
2, 30426, Note_on_c, 0, 72, 0
2, 30443, Note_on_c, 0, 63, 0
2, 30742, Note_on_c, 0, 75, 65
2, 30746, Note_on_c, 0, 73, 0
2, 30753, Note_on_c, 0, 60, 54
2, 30756, Note_on_c, 0, 61, 0
2, 30942, Control_c, 0, 64, 37
2, 30957, Control_c, 0, 64, 49
2, 30973, Control_c, 0, 64, 55
2, 30987, Control_c, 0, 64, 58
2, 31002, Control_c, 0, 64, 60
2, 31017, Note_on_c, 0, 69, 0
2, 31018, Control_c, 0, 64, 63
2, 31033, Control_c, 0, 64, 65
2, 31049, Control_c, 0, 64, 67
2, 31063, Control_c, 0, 64, 70
2, 31078, Control_c, 0, 64, 76
2, 31094, Control_c, 0, 64, 83
2, 31108, Control_c, 0, 64, 92
2, 31123, Control_c, 0, 64, 104
2, 31139, Control_c, 0, 64, 127
2, 31218, Note_on_c, 0, 60, 0
2, 31424, Note_on_c, 0, 72, 75
2, 31433, Note_on_c, 0, 69, 62
2, 31435, Control_c, 0, 64, 93
2, 31440, Note_on_c, 0, 60, 58
2, 31449, Note_on_c, 0, 75, 0
2, 31451, Control_c, 0, 64, 69
2, 31466, Control_c, 0, 64, 37
2, 31480, Control_c, 0, 64, 0
2, 31512, Control_c, 0, 64, 29
2, 31528, Control_c, 0, 64, 54
2, 31543, Control_c, 0, 64, 60
2, 31557, Control_c, 0, 64, 63
2, 31560, Note_on_c, 0, 69, 0
2, 31573, Control_c, 0, 64, 67
2, 31588, Control_c, 0, 64, 71
2, 31603, Control_c, 0, 64, 79
2, 31619, Control_c, 0, 64, 88
2, 31633, Control_c, 0, 64, 95
2, 31649, Control_c, 0, 64, 97
2, 31664, Control_c, 0, 64, 97
2, 31695, Control_c, 0, 64, 98
2, 31732, Note_on_c, 0, 73, 82
2, 31734, Note_on_c, 0, 58, 64
2, 31738, Note_on_c, 0, 70, 77
2, 31756, Note_on_c, 0, 72, 0
2, 31771, Control_c, 0, 64, 93
2, 31786, Control_c, 0, 64, 83
2, 31795, Note_on_c, 0, 60, 0
2, 31801, Control_c, 0, 64, 71
2, 31817, Control_c, 0, 64, 60
2, 31831, Control_c, 0, 64, 0
2, 32098, Note_on_c, 0, 75, 73
2, 32101, Note_on_c, 0, 57, 56
2, 32107, Note_on_c, 0, 72, 69
2, 32116, Note_on_c, 0, 70, 0
2, 32135, Note_on_c, 0, 73, 0
2, 32147, Note_on_c, 0, 58, 0
2, 32814, Note_on_c, 0, 69, 69
2, 32814, Note_on_c, 0, 72, 0
2, 32822, Note_on_c, 0, 55, 60
2, 32866, Note_on_c, 0, 57, 0
2, 33163, Note_on_c, 0, 53, 66
2, 33174, Note_on_c, 0, 55, 0
2, 33610, Note_on_c, 0, 65, 70
2, 33622, Note_on_c, 0, 58, 51
2, 33752, Note_on_c, 0, 53, 0
2, 33773, Note_on_c, 0, 69, 0
2, 33984, Control_c, 0, 64, 41
2, 33999, Control_c, 0, 64, 52
2, 34015, Control_c, 0, 64, 57
2, 34029, Control_c, 0, 64, 60
2, 34045, Control_c, 0, 64, 63
2, 34060, Control_c, 0, 64, 65
2, 34067, Note_on_c, 0, 75, 0
2, 34071, Note_on_c, 0, 77, 0
2, 34075, Control_c, 0, 64, 68
2, 34090, Control_c, 0, 64, 72
2, 34105, Control_c, 0, 64, 79
2, 34120, Control_c, 0, 64, 85
2, 34136, Control_c, 0, 64, 92
2, 34151, Control_c, 0, 64, 98
2, 34166, Control_c, 0, 64, 104
2, 34181, Control_c, 0, 64, 110
2, 34196, Control_c, 0, 64, 113
2, 34212, Control_c, 0, 64, 114
2, 34227, Control_c, 0, 64, 115
2, 34360, Note_on_c, 0, 77, 79
2, 34379, Note_on_c, 0, 73, 62
2, 34386, Control_c, 0, 64, 112
2, 34401, Control_c, 0, 64, 105
2, 34417, Control_c, 0, 64, 96
2, 34432, Control_c, 0, 64, 84
2, 34447, Control_c, 0, 64, 74
2, 34462, Control_c, 0, 64, 65
2, 34477, Control_c, 0, 64, 55
2, 34493, Control_c, 0, 64, 0
2, 34669, Note_on_c, 0, 77, 0
2, 34672, Note_on_c, 0, 75, 82
2, 34692, Note_on_c, 0, 72, 61
2, 34711, Note_on_c, 0, 73, 0
2, 35023, Note_on_c, 0, 73, 78
2, 35029, Note_on_c, 0, 72, 0
2, 35042, Note_on_c, 0, 70, 47
2, 35104, Note_on_c, 0, 75, 0
2, 35248, Control_c, 0, 64, 38
2, 35263, Control_c, 0, 64, 50
2, 35279, Control_c, 0, 64, 54
2, 35293, Control_c, 0, 64, 57
2, 35308, Control_c, 0, 64, 60
2, 35324, Control_c, 0, 64, 62
2, 35339, Control_c, 0, 64, 64
2, 35353, Control_c, 0, 64, 66
2, 35369, Control_c, 0, 64, 69
2, 35384, Control_c, 0, 64, 74
2, 35387, Note_on_c, 0, 65, 0
2, 35387, Note_on_c, 0, 73, 0
2, 35400, Control_c, 0, 64, 79
2, 35415, Control_c, 0, 64, 84
2, 35429, Control_c, 0, 64, 89
2, 35445, Control_c, 0, 64, 94
2, 35460, Control_c, 0, 64, 98
2, 35475, Control_c, 0, 64, 104
2, 35491, Control_c, 0, 64, 111
2, 35506, Control_c, 0, 64, 127
2, 35563, Note_on_c, 0, 70, 0
2, 35742, Note_on_c, 0, 66, 50
2, 35743, Note_on_c, 0, 75, 70
2, 35754, Note_on_c, 0, 69, 48
2, 35795, Control_c, 0, 64, 112
2, 35811, Control_c, 0, 64, 95
2, 35826, Control_c, 0, 64, 81
2, 35842, Control_c, 0, 64, 69
2, 35864, Control_c, 0, 64, 60
2, 35880, Control_c, 0, 64, 29
2, 35895, Control_c, 0, 64, 0
2, 36090, Note_on_c, 0, 72, 68
2, 36102, Note_on_c, 0, 63, 41
2, 36103, Note_on_c, 0, 75, 0
2, 36148, Note_on_c, 0, 66, 0
2, 36493, Note_on_c, 0, 73, 61
2, 36500, Note_on_c, 0, 65, 32
2, 36521, Note_on_c, 0, 70, 38
2, 36524, Note_on_c, 0, 63, 0
2, 36528, Note_on_c, 0, 72, 0
2, 36561, Note_on_c, 0, 69, 0
2, 36769, Control_c, 0, 64, 34
2, 36784, Control_c, 0, 64, 45
2, 36800, Control_c, 0, 64, 51
2, 36815, Control_c, 0, 64, 55
2, 36829, Control_c, 0, 64, 57
2, 36845, Control_c, 0, 64, 59
2, 36860, Control_c, 0, 64, 61
2, 36875, Control_c, 0, 64, 63
2, 36891, Control_c, 0, 64, 64
2, 36895, Note_on_c, 0, 70, 0
2, 36905, Control_c, 0, 64, 65
2, 36921, Control_c, 0, 64, 66
2, 36936, Control_c, 0, 64, 68
2, 36951, Control_c, 0, 64, 71
2, 36966, Control_c, 0, 64, 75
2, 36981, Control_c, 0, 64, 79
2, 36996, Control_c, 0, 64, 82
2, 37012, Control_c, 0, 64, 85
2, 37012, Note_on_c, 0, 58, 0
2, 37027, Control_c, 0, 64, 88
2, 37042, Control_c, 0, 64, 89
2, 37057, Control_c, 0, 64, 91
2, 37072, Control_c, 0, 64, 92
2, 37158, Note_on_c, 0, 65, 0
2, 37174, Note_on_c, 0, 73, 0
2, 37319, Note_on_c, 0, 70, 46
2, 37331, Note_on_c, 0, 61, 40
2, 37346, Control_c, 0, 64, 91
2, 37362, Control_c, 0, 64, 90
2, 37377, Control_c, 0, 64, 87
2, 37400, Control_c, 0, 64, 84
2, 37415, Control_c, 0, 64, 81
2, 37430, Control_c, 0, 64, 76
2, 37446, Control_c, 0, 64, 71
2, 37461, Control_c, 0, 64, 67
2, 37475, Control_c, 0, 64, 64
2, 37492, Control_c, 0, 64, 60
2, 37507, Control_c, 0, 64, 56
2, 37523, Control_c, 0, 64, 51
2, 37538, Control_c, 0, 64, 46
2, 37552, Control_c, 0, 64, 38
2, 37568, Control_c, 0, 64, 18
2, 37583, Control_c, 0, 64, 0
2, 37672, Note_on_c, 0, 72, 65
2, 37673, Note_on_c, 0, 60, 36
2, 37725, Note_on_c, 0, 61, 0
2, 38003, Note_on_c, 0, 58, 37
2, 38006, Note_on_c, 0, 73, 69
2, 38013, Note_on_c, 0, 60, 0
2, 38033, Note_on_c, 0, 70, 0
2, 38041, Note_on_c, 0, 72, 0
2, 38184, Control_c, 0, 64, 41
2, 38200, Control_c, 0, 64, 50
2, 38215, Control_c, 0, 64, 54
2, 38230, Control_c, 0, 64, 58
2, 38246, Control_c, 0, 64, 61
2, 38259, Control_c, 0, 64, 63
2, 38273, Control_c, 0, 64, 65
2, 38289, Control_c, 0, 64, 69
2, 38304, Control_c, 0, 64, 73
2, 38319, Control_c, 0, 64, 80
2, 38334, Control_c, 0, 64, 89
2, 38341, Note_on_c, 0, 73, 0
2, 38349, Control_c, 0, 64, 97
2, 38365, Control_c, 0, 64, 108
2, 38380, Control_c, 0, 64, 127
2, 38671, Note_on_c, 0, 73, 64
2, 38695, Note_on_c, 0, 65, 43
2, 38697, Note_on_c, 0, 56, 37
2, 38705, Note_on_c, 0, 70, 40
2, 38737, Note_on_c, 0, 58, 0
2, 38744, Control_c, 0, 64, 98
2, 38760, Control_c, 0, 64, 74
2, 38775, Control_c, 0, 64, 60
2, 38790, Control_c, 0, 64, 0
2, 38897, Control_c, 0, 64, 42
2, 38912, Control_c, 0, 64, 52
2, 38936, Control_c, 0, 64, 56
2, 38951, Control_c, 0, 64, 59
2, 38966, Control_c, 0, 64, 62
2, 38976, Note_on_c, 0, 65, 0
2, 38981, Control_c, 0, 64, 64
2, 38996, Control_c, 0, 64, 67
2, 39001, Note_on_c, 0, 73, 0
2, 39012, Control_c, 0, 64, 70
2, 39027, Control_c, 0, 64, 76
2, 39042, Control_c, 0, 64, 84
2, 39044, Note_on_c, 0, 70, 0
2, 39057, Control_c, 0, 64, 93
2, 39072, Control_c, 0, 64, 109
2, 39087, Control_c, 0, 64, 127
2, 39355, Note_on_c, 0, 73, 63
2, 39375, Note_on_c, 0, 70, 46
2, 39387, Note_on_c, 0, 63, 37
2, 39392, Note_on_c, 0, 55, 38
2, 39444, Note_on_c, 0, 56, 0
2, 39467, Control_c, 0, 64, 97
2, 39483, Control_c, 0, 64, 77
2, 39497, Control_c, 0, 64, 62
2, 39512, Control_c, 0, 64, 0
2, 39634, Control_c, 0, 64, 19
2, 39649, Control_c, 0, 64, 44
2, 39664, Control_c, 0, 64, 52
2, 39680, Control_c, 0, 64, 57
2, 39704, Control_c, 0, 64, 60
2, 39720, Control_c, 0, 64, 62
2, 39734, Control_c, 0, 64, 64
2, 39749, Control_c, 0, 64, 66
2, 39765, Control_c, 0, 64, 69
2, 39775, Note_on_c, 0, 63, 0
2, 39780, Control_c, 0, 64, 74
2, 39795, Control_c, 0, 64, 80
2, 39810, Control_c, 0, 64, 89
2, 39825, Control_c, 0, 64, 97
2, 39841, Control_c, 0, 64, 109
2, 39856, Control_c, 0, 64, 127
2, 40055, Note_on_c, 0, 72, 59
2, 40062, Note_on_c, 0, 73, 0
2, 40068, Note_on_c, 0, 56, 48
2, 40078, Note_on_c, 0, 63, 41
2, 40079, Note_on_c, 0, 68, 45
2, 40086, Note_on_c, 0, 70, 0
2, 40129, Control_c, 0, 64, 110
2, 40136, Note_on_c, 0, 55, 0
2, 40144, Control_c, 0, 64, 92
2, 40160, Control_c, 0, 64, 79
2, 40175, Control_c, 0, 64, 67
2, 40190, Control_c, 0, 64, 56
2, 40205, Control_c, 0, 64, 0
2, 40391, Note_on_c, 0, 70, 64
2, 40395, Note_on_c, 0, 72, 0
2, 40404, Note_on_c, 0, 55, 55
2, 40430, Note_on_c, 0, 56, 0
2, 40737, Note_on_c, 0, 63, 0
2, 40737, Note_on_c, 0, 72, 65
2, 40748, Note_on_c, 0, 53, 50
2, 40751, Note_on_c, 0, 68, 0
2, 40771, Note_on_c, 0, 55, 0
2, 40786, Note_on_c, 0, 70, 0
2, 40988, Control_c, 0, 64, 34
2, 41004, Control_c, 0, 64, 48
2, 41019, Control_c, 0, 64, 53
2, 41033, Control_c, 0, 64, 57
2, 41049, Control_c, 0, 64, 60
2, 41059, Note_on_c, 0, 72, 0
2, 41064, Control_c, 0, 64, 62
2, 41080, Control_c, 0, 64, 64
2, 41095, Control_c, 0, 64, 66
2, 41110, Control_c, 0, 64, 69
2, 41125, Control_c, 0, 64, 73
2, 41140, Control_c, 0, 64, 78
2, 41155, Control_c, 0, 64, 85
2, 41171, Control_c, 0, 64, 93
2, 41185, Control_c, 0, 64, 105
2, 41201, Control_c, 0, 64, 127
2, 41401, Note_on_c, 0, 72, 67
2, 41417, Note_on_c, 0, 51, 43
2, 41425, Note_on_c, 0, 68, 46
2, 41427, Note_on_c, 0, 65, 40
2, 41450, Note_on_c, 0, 53, 0
2, 41529, Control_c, 0, 64, 91
2, 41544, Control_c, 0, 64, 69
2, 41560, Control_c, 0, 64, 51
2, 41574, Control_c, 0, 64, 0
2, 41634, Control_c, 0, 64, 33
2, 41650, Control_c, 0, 64, 47
2, 41665, Control_c, 0, 64, 54
2, 41681, Control_c, 0, 64, 58
2, 41695, Control_c, 0, 64, 61
2, 41710, Control_c, 0, 64, 64
2, 41726, Control_c, 0, 64, 67
2, 41741, Control_c, 0, 64, 72
2, 41756, Control_c, 0, 64, 80
2, 41771, Control_c, 0, 64, 91
2, 41786, Control_c, 0, 64, 106
2, 41786, Note_on_c, 0, 72, 0
2, 41789, Note_on_c, 0, 68, 0
2, 41802, Control_c, 0, 64, 127
2, 41814, Note_on_c, 0, 65, 0
2, 42107, Note_on_c, 0, 72, 71
2, 42134, Note_on_c, 0, 50, 40
2, 42134, Note_on_c, 0, 68, 47
2, 42147, Note_on_c, 0, 65, 43
2, 42175, Control_c, 0, 64, 119
2, 42190, Control_c, 0, 64, 82
2, 42205, Control_c, 0, 64, 65
2, 42209, Note_on_c, 0, 51, 0
2, 42220, Control_c, 0, 64, 35
2, 42235, Control_c, 0, 64, 0
2, 42327, Control_c, 0, 64, 27
2, 42342, Control_c, 0, 64, 47
2, 42358, Control_c, 0, 64, 55
2, 42373, Control_c, 0, 64, 58
2, 42388, Control_c, 0, 64, 61
2, 42404, Control_c, 0, 64, 63
2, 42418, Control_c, 0, 64, 65
2, 42433, Control_c, 0, 64, 69
2, 42449, Control_c, 0, 64, 74
2, 42463, Control_c, 0, 64, 83
2, 42479, Control_c, 0, 64, 94
2, 42494, Control_c, 0, 64, 108
2, 42509, Control_c, 0, 64, 127
2, 42515, Note_on_c, 0, 65, 0
2, 42776, Note_on_c, 0, 72, 0
2, 42803, Note_on_c, 0, 70, 62
2, 42822, Note_on_c, 0, 55, 49
2, 42829, Note_on_c, 0, 67, 40
2, 42834, Note_on_c, 0, 50, 0
2, 42836, Note_on_c, 0, 68, 0
2, 42838, Note_on_c, 0, 65, 42
2, 42866, Control_c, 0, 64, 108
2, 42881, Control_c, 0, 64, 84
2, 42896, Control_c, 0, 64, 69
2, 42911, Control_c, 0, 64, 57
2, 42927, Control_c, 0, 64, 0
2, 43131, Note_on_c, 0, 68, 65
2, 43137, Note_on_c, 0, 53, 60
2, 43137, Note_on_c, 0, 70, 0
2, 43151, Note_on_c, 0, 55, 0
2, 43461, Note_on_c, 0, 65, 0
2, 43468, Note_on_c, 0, 70, 59
2, 43470, Note_on_c, 0, 67, 0
2, 43475, Note_on_c, 0, 52, 54
2, 43495, Note_on_c, 0, 53, 0
2, 43498, Note_on_c, 0, 68, 0
2, 43665, Control_c, 0, 64, 26
2, 43681, Control_c, 0, 64, 45
2, 43696, Control_c, 0, 64, 52
2, 43711, Control_c, 0, 64, 58
2, 43726, Control_c, 0, 64, 62
2, 43741, Control_c, 0, 64, 65
2, 43756, Control_c, 0, 64, 68
2, 43772, Control_c, 0, 64, 74
2, 43787, Control_c, 0, 64, 85
2, 43804, Control_c, 0, 64, 103
2, 43818, Control_c, 0, 64, 127
2, 43844, Note_on_c, 0, 70, 0
2, 44123, Note_on_c, 0, 52, 0
2, 44131, Note_on_c, 0, 70, 61
2, 44143, Note_on_c, 0, 65, 44
2, 44149, Note_on_c, 0, 55, 44
2, 44153, Note_on_c, 0, 67, 43
2, 44199, Control_c, 0, 64, 80
2, 44214, Control_c, 0, 64, 62
2, 44228, Control_c, 0, 64, 0
2, 44327, Control_c, 0, 64, 12
2, 44342, Control_c, 0, 64, 44
2, 44358, Control_c, 0, 64, 53
2, 44373, Control_c, 0, 64, 58
2, 44388, Control_c, 0, 64, 61
2, 44403, Control_c, 0, 64, 63
2, 44418, Control_c, 0, 64, 67
2, 44432, Control_c, 0, 64, 72
2, 44448, Control_c, 0, 64, 83
2, 44450, Note_on_c, 0, 67, 0
2, 44451, Note_on_c, 0, 65, 0
2, 44463, Control_c, 0, 64, 107
2, 44479, Control_c, 0, 64, 127
2, 44486, Note_on_c, 0, 70, 0
2, 44704, Note_on_c, 0, 55, 0
2, 44842, Note_on_c, 0, 70, 61
2, 44855, Note_on_c, 0, 64, 53
2, 44860, Note_on_c, 0, 67, 51
2, 44880, Note_on_c, 0, 48, 32
2, 44935, Control_c, 0, 64, 100
2, 44950, Control_c, 0, 64, 75
2, 44966, Control_c, 0, 64, 61
2, 44981, Control_c, 0, 64, 0
2, 45094, Control_c, 0, 64, 35
2, 45109, Control_c, 0, 64, 50
2, 45125, Control_c, 0, 64, 56
2, 45140, Control_c, 0, 64, 59
2, 45155, Control_c, 0, 64, 62
2, 45165, Note_on_c, 0, 67, 0
2, 45171, Control_c, 0, 64, 64
2, 45179, Note_on_c, 0, 64, 0
2, 45186, Control_c, 0, 64, 66
2, 45201, Control_c, 0, 64, 70
2, 45216, Control_c, 0, 64, 78
2, 45231, Control_c, 0, 64, 89
2, 45247, Control_c, 0, 64, 106
2, 45262, Control_c, 0, 64, 127
2, 45555, Note_on_c, 0, 68, 57
2, 45563, Note_on_c, 0, 70, 0
2, 45565, Note_on_c, 0, 65, 45
2, 45576, Note_on_c, 0, 60, 42
2, 45583, Note_on_c, 0, 53, 39
2, 45612, Note_on_c, 0, 48, 0
2, 45627, Control_c, 0, 64, 104
2, 45642, Control_c, 0, 64, 88
2, 45657, Control_c, 0, 64, 75
2, 45672, Control_c, 0, 64, 65
2, 45688, Control_c, 0, 64, 50
2, 45703, Control_c, 0, 64, 0
2, 45881, Note_on_c, 0, 68, 0
2, 45882, Note_on_c, 0, 51, 58
2, 45882, Note_on_c, 0, 67, 67
2, 45922, Note_on_c, 0, 53, 0
2, 46216, Note_on_c, 0, 60, 0
2, 46224, Note_on_c, 0, 49, 54
2, 46225, Note_on_c, 0, 65, 0
2, 46226, Note_on_c, 0, 68, 58
2, 46229, Note_on_c, 0, 67, 0
2, 46241, Note_on_c, 0, 51, 0
2, 46441, Control_c, 0, 64, 37
2, 46456, Control_c, 0, 64, 51
2, 46471, Control_c, 0, 64, 58
2, 46486, Control_c, 0, 64, 61
2, 46501, Control_c, 0, 64, 64
2, 46516, Control_c, 0, 64, 67
2, 46532, Control_c, 0, 64, 71
2, 46547, Control_c, 0, 64, 79
2, 46559, Note_on_c, 0, 68, 0
2, 46562, Control_c, 0, 64, 90
2, 46577, Control_c, 0, 64, 111
2, 46592, Control_c, 0, 64, 127
2, 46908, Note_on_c, 0, 48, 36
2, 46913, Note_on_c, 0, 68, 62
2, 46916, Note_on_c, 0, 60, 70
2, 46952, Note_on_c, 0, 65, 41
2, 46971, Note_on_c, 0, 49, 0
2, 46980, Control_c, 0, 64, 88
2, 46995, Control_c, 0, 64, 65
2, 47011, Control_c, 0, 64, 0
2, 47118, Control_c, 0, 64, 39
2, 47133, Control_c, 0, 64, 53
2, 47148, Control_c, 0, 64, 58
2, 47164, Control_c, 0, 64, 62
2, 47179, Control_c, 0, 64, 64
2, 47193, Control_c, 0, 64, 68
2, 47209, Control_c, 0, 64, 77
2, 47224, Control_c, 0, 64, 93
2, 47240, Control_c, 0, 64, 127
2, 47247, Note_on_c, 0, 60, 0
2, 47283, Note_on_c, 0, 68, 0
2, 47292, Note_on_c, 0, 65, 0
2, 47452, Note_on_c, 0, 48, 0
2, 47588, Note_on_c, 0, 68, 60
2, 47598, Note_on_c, 0, 61, 61
2, 47602, Note_on_c, 0, 65, 52
2, 47607, Note_on_c, 0, 46, 40
2, 47672, Control_c, 0, 64, 87
2, 47688, Control_c, 0, 64, 67
2, 47703, Control_c, 0, 64, 38
2, 47719, Control_c, 0, 64, 0
2, 47824, Control_c, 0, 64, 32
2, 47840, Control_c, 0, 64, 51
2, 47855, Control_c, 0, 64, 59
2, 47870, Control_c, 0, 64, 62
2, 47886, Control_c, 0, 64, 64
2, 47901, Control_c, 0, 64, 66
2, 47916, Control_c, 0, 64, 71
2, 47932, Control_c, 0, 64, 78
2, 47947, Control_c, 0, 64, 91
2, 47962, Control_c, 0, 64, 108
2, 47977, Control_c, 0, 64, 127
2, 48013, Note_on_c, 0, 46, 0
2, 48087, Note_on_c, 0, 61, 0
2, 48329, Note_on_c, 0, 68, 0
2, 48332, Note_on_c, 0, 67, 66
2, 48351, Note_on_c, 0, 46, 39
2, 48353, Note_on_c, 0, 58, 38
2, 48353, Note_on_c, 0, 61, 50
2, 48364, Control_c, 0, 64, 93
2, 48378, Control_c, 0, 64, 68
2, 48393, Control_c, 0, 64, 47
2, 48396, Note_on_c, 0, 65, 0
2, 48409, Control_c, 0, 64, 0
2, 48500, Control_c, 0, 64, 37
2, 48515, Control_c, 0, 64, 50
2, 48531, Control_c, 0, 64, 56
2, 48546, Control_c, 0, 64, 58
2, 48561, Control_c, 0, 64, 60
2, 48576, Control_c, 0, 64, 62
2, 48591, Control_c, 0, 64, 65
2, 48607, Control_c, 0, 64, 67
2, 48622, Control_c, 0, 64, 71
2, 48638, Control_c, 0, 64, 77
2, 48652, Control_c, 0, 64, 83
2, 48666, Note_on_c, 0, 68, 80
2, 48667, Control_c, 0, 64, 90
2, 48669, Note_on_c, 0, 46, 0
2, 48683, Control_c, 0, 64, 98
2, 48698, Control_c, 0, 64, 114
2, 48707, Note_on_c, 0, 67, 0
2, 48713, Control_c, 0, 64, 127
2, 48949, Note_on_c, 0, 58, 0
2, 49018, Note_on_c, 0, 61, 0
2, 49027, Note_on_c, 0, 70, 73
2, 49045, Note_on_c, 0, 46, 37
2, 49071, Control_c, 0, 64, 98
2, 49078, Note_on_c, 0, 68, 0
2, 49087, Control_c, 0, 64, 79
2, 49101, Control_c, 0, 64, 64
2, 49116, Control_c, 0, 64, 0
2, 49238, Control_c, 0, 64, 21
2, 49253, Control_c, 0, 64, 49
2, 49268, Control_c, 0, 64, 58
2, 49284, Control_c, 0, 64, 62
2, 49298, Control_c, 0, 64, 64
2, 49313, Control_c, 0, 64, 67
2, 49329, Control_c, 0, 64, 73
2, 49338, Note_on_c, 0, 46, 0
2, 49344, Control_c, 0, 64, 82
2, 49359, Control_c, 0, 64, 98
2, 49374, Control_c, 0, 64, 127
2, 49720, Note_on_c, 0, 67, 63
2, 49722, Note_on_c, 0, 70, 0
2, 49739, Note_on_c, 0, 46, 35
2, 49742, Note_on_c, 0, 58, 36
2, 49742, Note_on_c, 0, 61, 48
2, 49747, Control_c, 0, 64, 96
2, 49763, Control_c, 0, 64, 71
2, 49778, Control_c, 0, 64, 51
2, 49793, Control_c, 0, 64, 0
2, 49869, Control_c, 0, 64, 24
2, 49885, Control_c, 0, 64, 44
2, 49900, Control_c, 0, 64, 53
2, 49915, Control_c, 0, 64, 59
2, 49931, Control_c, 0, 64, 62
2, 49945, Control_c, 0, 64, 64
2, 49961, Control_c, 0, 64, 66
2, 49976, Control_c, 0, 64, 69
2, 49987, Note_on_c, 0, 61, 0
2, 49990, Control_c, 0, 64, 74
2, 49990, Note_on_c, 0, 46, 0
2, 49991, Note_on_c, 0, 58, 0
2, 50006, Control_c, 0, 64, 81
2, 50021, Control_c, 0, 64, 91
2, 50036, Control_c, 0, 64, 106
2, 50052, Control_c, 0, 64, 127
2, 50393, Note_on_c, 0, 64, 60
2, 50401, Note_on_c, 0, 67, 0
2, 50412, Note_on_c, 0, 46, 29
2, 50418, Note_on_c, 0, 60, 41
2, 50419, Note_on_c, 0, 55, 33
2, 50470, Control_c, 0, 64, 96
2, 50486, Control_c, 0, 64, 72
2, 50500, Control_c, 0, 64, 59
2, 50515, Control_c, 0, 64, 0
2, 50608, Control_c, 0, 64, 30
2, 50623, Control_c, 0, 64, 49
2, 50638, Control_c, 0, 64, 57
2, 50653, Control_c, 0, 64, 61
2, 50668, Control_c, 0, 64, 64
2, 50684, Control_c, 0, 64, 67
2, 50699, Control_c, 0, 64, 75
2, 50713, Control_c, 0, 64, 86
2, 50716, Note_on_c, 0, 55, 0
2, 50729, Control_c, 0, 64, 105
2, 50741, Note_on_c, 0, 64, 0
2, 50744, Control_c, 0, 64, 127
2, 50758, Note_on_c, 0, 46, 0
2, 50832, Note_on_c, 0, 60, 0
2, 51106, Note_on_c, 0, 72, 78
2, 51130, Note_on_c, 0, 56, 39
2, 51135, Note_on_c, 0, 44, 35
2, 51162, Note_on_c, 0, 65, 43
2, 51240, Control_c, 0, 64, 116
2, 51255, Control_c, 0, 64, 89
2, 51269, Control_c, 0, 64, 73
2, 51285, Control_c, 0, 64, 61
2, 51300, Control_c, 0, 64, 0
2, 51452, Note_on_c, 0, 64, 80
2, 51480, Note_on_c, 0, 65, 0
2, 51806, Note_on_c, 0, 49, 38
2, 51817, Note_on_c, 0, 65, 60
2, 51819, Note_on_c, 0, 64, 0
2, 51837, Note_on_c, 0, 44, 0
2, 51967, Control_c, 0, 64, 16
2, 51991, Control_c, 0, 64, 47
2, 52007, Control_c, 0, 64, 54
2, 52022, Control_c, 0, 64, 58
2, 52037, Control_c, 0, 64, 62
2, 52053, Control_c, 0, 64, 64
2, 52067, Control_c, 0, 64, 68
2, 52083, Control_c, 0, 64, 75
2, 52098, Control_c, 0, 64, 86
2, 52112, Control_c, 0, 64, 101
2, 52113, Note_on_c, 0, 56, 0
2, 52128, Control_c, 0, 64, 127
2, 52156, Note_on_c, 0, 65, 0
2, 52168, Note_on_c, 0, 49, 0
2, 52489, Note_on_c, 0, 70, 75
2, 52495, Note_on_c, 0, 72, 0
2, 52510, Note_on_c, 0, 65, 56
2, 52517, Note_on_c, 0, 55, 50
2, 52538, Note_on_c, 0, 49, 40
2, 52586, Control_c, 0, 64, 113
2, 52601, Control_c, 0, 64, 87
2, 52616, Control_c, 0, 64, 73
2, 52632, Control_c, 0, 64, 63
2, 52646, Control_c, 0, 64, 33
2, 52661, Control_c, 0, 64, 0
2, 52822, Note_on_c, 0, 68, 83
2, 52830, Note_on_c, 0, 53, 59
2, 52841, Note_on_c, 0, 49, 0
2, 52850, Note_on_c, 0, 65, 0
2, 52862, Note_on_c, 0, 70, 0
2, 52867, Note_on_c, 0, 55, 0
2, 53164, Note_on_c, 0, 70, 78
2, 53171, Note_on_c, 0, 65, 66
2, 53181, Note_on_c, 0, 53, 0
2, 53185, Note_on_c, 0, 49, 45
2, 53186, Note_on_c, 0, 55, 46
2, 53193, Note_on_c, 0, 68, 0
2, 53324, Control_c, 0, 64, 47
2, 53339, Control_c, 0, 64, 57
2, 53355, Control_c, 0, 64, 62
2, 53369, Control_c, 0, 64, 64
2, 53384, Control_c, 0, 64, 67
2, 53400, Control_c, 0, 64, 72
2, 53415, Control_c, 0, 64, 82
2, 53430, Control_c, 0, 64, 101
2, 53445, Control_c, 0, 64, 127
2, 53446, Note_on_c, 0, 65, 0
2, 53467, Note_on_c, 0, 70, 0
2, 53487, Note_on_c, 0, 49, 0
2, 53492, Note_on_c, 0, 55, 0
2, 53852, Note_on_c, 0, 70, 78
2, 53860, Note_on_c, 0, 64, 71
2, 53861, Note_on_c, 0, 55, 51
2, 53866, Note_on_c, 0, 48, 48
2, 53925, Control_c, 0, 64, 97
2, 53940, Control_c, 0, 64, 73
2, 53955, Control_c, 0, 64, 58
2, 53970, Control_c, 0, 64, 0
2, 54175, Note_on_c, 0, 46, 48
2, 54181, Note_on_c, 0, 62, 76
2, 54195, Note_on_c, 0, 64, 0
2, 54207, Note_on_c, 0, 48, 0
2, 54253, Note_on_c, 0, 55, 0
2, 54542, Note_on_c, 0, 64, 72
2, 54549, Note_on_c, 0, 62, 0
2, 54556, Note_on_c, 0, 55, 42
2, 54568, Note_on_c, 0, 48, 38
2, 54621, Note_on_c, 0, 46, 0
2, 54739, Control_c, 0, 64, 39
2, 54755, Control_c, 0, 64, 51
2, 54770, Control_c, 0, 64, 57
2, 54784, Control_c, 0, 64, 61
2, 54800, Control_c, 0, 64, 65
2, 54815, Control_c, 0, 64, 69
2, 54830, Control_c, 0, 64, 78
2, 54846, Control_c, 0, 64, 94
2, 54860, Control_c, 0, 64, 127
2, 54889, Note_on_c, 0, 48, 0
2, 54890, Note_on_c, 0, 55, 0
2, 54930, Note_on_c, 0, 64, 0
2, 55246, Note_on_c, 0, 68, 76
2, 55260, Note_on_c, 0, 64, 68
2, 55265, Note_on_c, 0, 60, 59
2, 55266, Note_on_c, 0, 48, 48
2, 55274, Note_on_c, 0, 70, 0
2, 55279, Control_c, 0, 64, 91
2, 55293, Control_c, 0, 64, 67
2, 55308, Control_c, 0, 64, 0
2, 55445, Control_c, 0, 64, 37
2, 55460, Control_c, 0, 64, 52
2, 55476, Control_c, 0, 64, 58
2, 55491, Control_c, 0, 64, 61
2, 55506, Control_c, 0, 64, 63
2, 55522, Control_c, 0, 64, 66
2, 55537, Control_c, 0, 64, 70
2, 55553, Control_c, 0, 64, 76
2, 55567, Control_c, 0, 64, 86
2, 55580, Note_on_c, 0, 67, 85
2, 55582, Control_c, 0, 64, 100
2, 55598, Control_c, 0, 64, 127
2, 55614, Note_on_c, 0, 64, 0
2, 55630, Note_on_c, 0, 48, 0
2, 55632, Note_on_c, 0, 60, 0
2, 55636, Note_on_c, 0, 68, 0
2, 55742, Note_on_c, 0, 67, 0
2, 55930, Note_on_c, 0, 68, 78
2, 55945, Note_on_c, 0, 48, 53
2, 55945, Note_on_c, 0, 64, 68
2, 55949, Note_on_c, 0, 60, 64
2, 55984, Control_c, 0, 64, 74
2, 56000, Control_c, 0, 64, 49
2, 56015, Control_c, 0, 64, 0
2, 56137, Control_c, 0, 64, 44
2, 56153, Control_c, 0, 64, 56
2, 56168, Control_c, 0, 64, 62
2, 56183, Control_c, 0, 64, 64
2, 56199, Control_c, 0, 64, 69
2, 56213, Control_c, 0, 64, 77
2, 56213, Note_on_c, 0, 60, 0
2, 56228, Control_c, 0, 64, 90
2, 56239, Note_on_c, 0, 48, 0
2, 56244, Control_c, 0, 64, 127
2, 56261, Note_on_c, 0, 64, 0
2, 56265, Note_on_c, 0, 68, 0
2, 56579, Note_on_c, 0, 41, 43
2, 56643, Note_on_c, 0, 68, 79
2, 56653, Note_on_c, 0, 65, 78
2, 56672, Note_on_c, 0, 60, 63
2, 56707, Control_c, 0, 64, 112
2, 56723, Control_c, 0, 64, 83
2, 56738, Control_c, 0, 64, 65
2, 56753, Control_c, 0, 64, 26
2, 56768, Control_c, 0, 64, 0
2, 56974, Note_on_c, 0, 63, 79
2, 57027, Note_on_c, 0, 65, 0
2, 57339, Note_on_c, 0, 61, 66
2, 57354, Note_on_c, 0, 46, 39
2, 57370, Note_on_c, 0, 63, 0
2, 57385, Note_on_c, 0, 41, 0
2, 57566, Control_c, 0, 64, 44
2, 57581, Control_c, 0, 64, 56
2, 57596, Control_c, 0, 64, 61
2, 57611, Control_c, 0, 64, 63
2, 57626, Control_c, 0, 64, 66
2, 57642, Control_c, 0, 64, 70
2, 57657, Control_c, 0, 64, 78
2, 57665, Note_on_c, 0, 60, 0
2, 57672, Control_c, 0, 64, 91
2, 57687, Control_c, 0, 64, 127
2, 57688, Note_on_c, 0, 61, 0
2, 57697, Note_on_c, 0, 46, 0
2, 58056, Note_on_c, 0, 66, 58
2, 58084, Note_on_c, 0, 58, 38
2, 58087, Note_on_c, 0, 61, 42
2, 58089, Note_on_c, 0, 68, 0
2, 58091, Note_on_c, 0, 46, 39
2, 58136, Control_c, 0, 64, 91
2, 58152, Control_c, 0, 64, 73
2, 58166, Control_c, 0, 64, 62
2, 58181, Control_c, 0, 64, 0
2, 58398, Note_on_c, 0, 46, 0
2, 58408, Note_on_c, 0, 57, 57
2, 58408, Note_on_c, 0, 65, 65
2, 58439, Note_on_c, 0, 66, 0
2, 58470, Note_on_c, 0, 61, 0
2, 58473, Note_on_c, 0, 58, 0
2, 58757, Note_on_c, 0, 65, 0
2, 58761, Note_on_c, 0, 66, 53
2, 58765, Note_on_c, 0, 58, 39
2, 58777, Note_on_c, 0, 61, 35
2, 58778, Note_on_c, 0, 46, 37
2, 58806, Note_on_c, 0, 57, 0
2, 58920, Control_c, 0, 64, 10
2, 58935, Control_c, 0, 64, 38
2, 58949, Control_c, 0, 64, 47
2, 58965, Control_c, 0, 64, 54
2, 58980, Control_c, 0, 64, 58
2, 58996, Control_c, 0, 64, 61
2, 59010, Control_c, 0, 64, 63
2, 59025, Control_c, 0, 64, 66
2, 59041, Control_c, 0, 64, 70
2, 59056, Control_c, 0, 64, 78
2, 59072, Control_c, 0, 64, 88
2, 59084, Note_on_c, 0, 46, 0
2, 59087, Control_c, 0, 64, 106
2, 59102, Control_c, 0, 64, 127
2, 59119, Note_on_c, 0, 66, 0
2, 59187, Note_on_c, 0, 58, 0
2, 59246, Note_on_c, 0, 61, 0
2, 59429, Note_on_c, 0, 54, 38
2, 59459, Note_on_c, 0, 46, 35
2, 59487, Note_on_c, 0, 73, 86
2, 59525, Note_on_c, 0, 70, 58
2, 59588, Control_c, 0, 64, 97
2, 59604, Control_c, 0, 64, 80
2, 59619, Control_c, 0, 64, 67
2, 59634, Control_c, 0, 64, 52
2, 59649, Control_c, 0, 64, 0
2, 59817, Note_on_c, 0, 69, 74
2, 59819, Note_on_c, 0, 53, 52
2, 59838, Note_on_c, 0, 46, 0
2, 59842, Note_on_c, 0, 70, 0
2, 59875, Note_on_c, 0, 54, 0
2, 60136, Note_on_c, 0, 53, 0
2, 60154, Note_on_c, 0, 69, 0
2, 60163, Note_on_c, 0, 54, 50
2, 60169, Note_on_c, 0, 70, 61
2, 60172, Note_on_c, 0, 46, 41
2, 60312, Control_c, 0, 64, 28
2, 60327, Control_c, 0, 64, 47
2, 60342, Control_c, 0, 64, 53
2, 60357, Control_c, 0, 64, 57
2, 60372, Control_c, 0, 64, 61
2, 60387, Control_c, 0, 64, 63
2, 60403, Control_c, 0, 64, 65
2, 60418, Control_c, 0, 64, 69
2, 60441, Control_c, 0, 64, 76
2, 60456, Control_c, 0, 64, 85
2, 60456, Note_on_c, 0, 46, 0
2, 60472, Control_c, 0, 64, 99
2, 60486, Control_c, 0, 64, 127
2, 60803, Control_c, 0, 64, 109
2, 60810, Note_on_c, 0, 72, 73
2, 60815, Note_on_c, 0, 46, 42
2, 60818, Control_c, 0, 64, 73
2, 60833, Control_c, 0, 64, 49
2, 60845, Note_on_c, 0, 73, 0
2, 60849, Control_c, 0, 64, 0
2, 60891, Note_on_c, 0, 70, 0
2, 60940, Control_c, 0, 64, 22
2, 60955, Control_c, 0, 64, 50
2, 60970, Control_c, 0, 64, 57
2, 60985, Control_c, 0, 64, 60
2, 61002, Control_c, 0, 64, 63
2, 61017, Control_c, 0, 64, 65
2, 61032, Control_c, 0, 64, 68
2, 61047, Control_c, 0, 64, 74
2, 61062, Control_c, 0, 64, 85
2, 61077, Control_c, 0, 64, 98
2, 61093, Control_c, 0, 64, 115
2, 61108, Control_c, 0, 64, 127
2, 61130, Note_on_c, 0, 46, 0
2, 61139, Note_on_c, 0, 70, 87
2, 61182, Note_on_c, 0, 72, 0
2, 61482, Note_on_c, 0, 54, 0
2, 61504, Note_on_c, 0, 76, 86
2, 61519, Note_on_c, 0, 55, 44
2, 61529, Note_on_c, 0, 46, 43
2, 61531, Note_on_c, 0, 72, 63
2, 61533, Note_on_c, 0, 70, 0
2, 61587, Control_c, 0, 64, 96
2, 61603, Control_c, 0, 64, 73
2, 61617, Control_c, 0, 64, 56
2, 61632, Control_c, 0, 64, 0
2, 61738, Control_c, 0, 64, 24
2, 61753, Control_c, 0, 64, 49
2, 61769, Control_c, 0, 64, 56
2, 61784, Control_c, 0, 64, 60
2, 61797, Note_on_c, 0, 55, 0
2, 61800, Control_c, 0, 64, 63
2, 61805, Note_on_c, 0, 72, 0
2, 61816, Control_c, 0, 64, 66
2, 61831, Control_c, 0, 64, 70
2, 61846, Control_c, 0, 64, 77
2, 61861, Control_c, 0, 64, 86
2, 61876, Control_c, 0, 64, 97
2, 61892, Control_c, 0, 64, 109
2, 61907, Control_c, 0, 64, 127
2, 61922, Note_on_c, 0, 46, 0
2, 62200, Note_on_c, 0, 72, 77
2, 62205, Note_on_c, 0, 65, 73
2, 62215, Note_on_c, 0, 56, 48
2, 62221, Note_on_c, 0, 44, 44
2, 62233, Control_c, 0, 64, 97
2, 62248, Control_c, 0, 64, 71
2, 62248, Note_on_c, 0, 76, 0
2, 62263, Control_c, 0, 64, 50
2, 62279, Control_c, 0, 64, 0
2, 62446, Control_c, 0, 64, 29
2, 62460, Control_c, 0, 64, 42
2, 62475, Control_c, 0, 64, 51
2, 62491, Control_c, 0, 64, 57
2, 62505, Control_c, 0, 64, 60
2, 62521, Control_c, 0, 64, 62
2, 62533, Note_on_c, 0, 56, 0
2, 62534, Note_on_c, 0, 67, 86
2, 62536, Control_c, 0, 64, 64
2, 62551, Control_c, 0, 64, 66
2, 62555, Note_on_c, 0, 65, 0
2, 62567, Control_c, 0, 64, 69
2, 62572, Note_on_c, 0, 72, 0
2, 62574, Note_on_c, 0, 55, 49
2, 62582, Control_c, 0, 64, 74
2, 62597, Control_c, 0, 64, 80
2, 62613, Control_c, 0, 64, 86
2, 62628, Control_c, 0, 64, 93
2, 62644, Control_c, 0, 64, 102
2, 62659, Control_c, 0, 64, 117
2, 62674, Control_c, 0, 64, 127
2, 62882, Note_on_c, 0, 77, 84
2, 62885, Note_on_c, 0, 68, 75
2, 62886, Note_on_c, 0, 67, 0
2, 62891, Note_on_c, 0, 55, 0
2, 62895, Note_on_c, 0, 53, 51
2, 62898, Note_on_c, 0, 44, 0
2, 62901, Note_on_c, 0, 49, 47
2, 62925, Control_c, 0, 64, 117
2, 62940, Control_c, 0, 64, 84
2, 62955, Control_c, 0, 64, 66
2, 62970, Control_c, 0, 64, 0
2, 63152, Control_c, 0, 64, 38
2, 63168, Control_c, 0, 64, 49
2, 63183, Control_c, 0, 64, 57
2, 63199, Control_c, 0, 64, 61
2, 63214, Control_c, 0, 64, 63
2, 63228, Control_c, 0, 64, 65
2, 63244, Control_c, 0, 64, 69
2, 63259, Control_c, 0, 64, 75
2, 63274, Control_c, 0, 64, 85
2, 63290, Control_c, 0, 64, 98
2, 63295, Note_on_c, 0, 68, 0
2, 63304, Control_c, 0, 64, 127
2, 63581, Note_on_c, 0, 72, 84
2, 63583, Note_on_c, 0, 68, 79
2, 63586, Note_on_c, 0, 48, 50
2, 63609, Note_on_c, 0, 49, 0
2, 63648, Control_c, 0, 64, 87
2, 63662, Control_c, 0, 64, 67
2, 63677, Control_c, 0, 64, 26
2, 63693, Control_c, 0, 64, 0
2, 63845, Control_c, 0, 64, 32
2, 63860, Control_c, 0, 64, 45
2, 63875, Control_c, 0, 64, 52
2, 63891, Control_c, 0, 64, 57
2, 63906, Control_c, 0, 64, 61
2, 63922, Control_c, 0, 64, 64
2, 63936, Control_c, 0, 64, 66
2, 63951, Control_c, 0, 64, 69
2, 63967, Control_c, 0, 64, 73
2, 63982, Control_c, 0, 64, 80
2, 63996, Control_c, 0, 64, 88
2, 64012, Control_c, 0, 64, 97
2, 64027, Control_c, 0, 64, 112
2, 64034, Note_on_c, 0, 68, 0
2, 64043, Control_c, 0, 64, 127
2, 64293, Note_on_c, 0, 73, 83
2, 64299, Note_on_c, 0, 68, 87
2, 64302, Note_on_c, 0, 46, 51
2, 64345, Note_on_c, 0, 48, 0
2, 64358, Control_c, 0, 64, 111
2, 64358, Note_on_c, 0, 72, 0
2, 64373, Control_c, 0, 64, 81
2, 64388, Control_c, 0, 64, 64
2, 64404, Control_c, 0, 64, 0
2, 64556, Control_c, 0, 64, 41
2, 64571, Control_c, 0, 64, 52
2, 64585, Control_c, 0, 64, 57
2, 64600, Note_on_c, 0, 46, 0
2, 64601, Control_c, 0, 64, 61
2, 64616, Control_c, 0, 64, 64
2, 64630, Control_c, 0, 64, 67
2, 64646, Control_c, 0, 64, 71
2, 64647, Note_on_c, 0, 53, 0
2, 64661, Control_c, 0, 64, 81
2, 64677, Control_c, 0, 64, 94
2, 64692, Control_c, 0, 64, 124
2, 64706, Control_c, 0, 64, 127
2, 65001, Note_on_c, 0, 70, 78
2, 65005, Note_on_c, 0, 52, 53
2, 65011, Note_on_c, 0, 67, 85
2, 65016, Note_on_c, 0, 49, 53
2, 65051, Note_on_c, 0, 68, 0
2, 65077, Note_on_c, 0, 73, 0
2, 65079, Control_c, 0, 64, 98
2, 65095, Control_c, 0, 64, 72
2, 65110, Control_c, 0, 64, 58
2, 65126, Control_c, 0, 64, 0
2, 65291, Note_on_c, 0, 52, 0
2, 65294, Note_on_c, 0, 77, 0
2, 65348, Note_on_c, 0, 68, 89
2, 65358, Note_on_c, 0, 53, 62
2, 65383, Note_on_c, 0, 67, 0
2, 65385, Note_on_c, 0, 70, 0
2, 65686, Note_on_c, 0, 49, 0
2, 65694, Note_on_c, 0, 76, 87
2, 65700, Note_on_c, 0, 70, 81
2, 65702, Note_on_c, 0, 48, 55
2, 65705, Note_on_c, 0, 55, 52
2, 65739, Note_on_c, 0, 68, 0
2, 65761, Note_on_c, 0, 53, 0
2, 65954, Control_c, 0, 64, 41
2, 65969, Control_c, 0, 64, 52
2, 65984, Control_c, 0, 64, 57
2, 66000, Control_c, 0, 64, 61
2, 66014, Control_c, 0, 64, 64
2, 66029, Control_c, 0, 64, 69
2, 66034, Note_on_c, 0, 48, 0
2, 66045, Control_c, 0, 64, 78
2, 66060, Control_c, 0, 64, 92
2, 66074, Note_on_c, 0, 70, 0
2, 66076, Control_c, 0, 64, 127
2, 66078, Note_on_c, 0, 55, 0
2, 66400, Note_on_c, 0, 72, 83
2, 66406, Note_on_c, 0, 70, 83
2, 66409, Control_c, 0, 64, 94
2, 66409, Note_on_c, 0, 55, 57
2, 66412, Note_on_c, 0, 48, 58
2, 66424, Control_c, 0, 64, 70
2, 66440, Control_c, 0, 64, 48
2, 66455, Control_c, 0, 64, 0
2, 66600, Control_c, 0, 64, 28
2, 66614, Control_c, 0, 64, 48
2, 66629, Control_c, 0, 64, 55
2, 66645, Control_c, 0, 64, 59
2, 66655, Note_on_c, 0, 55, 0
2, 66660, Control_c, 0, 64, 62
2, 66675, Control_c, 0, 64, 65
2, 66690, Control_c, 0, 64, 68
2, 66705, Control_c, 0, 64, 72
2, 66717, Note_on_c, 0, 48, 0
2, 66721, Control_c, 0, 64, 78
2, 66723, Note_on_c, 0, 72, 0
2, 66726, Note_on_c, 0, 70, 0
2, 66736, Control_c, 0, 64, 85
2, 66752, Control_c, 0, 64, 93
2, 66767, Control_c, 0, 64, 104
2, 66782, Control_c, 0, 64, 127
2, 66906, Note_on_c, 0, 76, 0
2, 67188, Note_on_c, 0, 77, 90
2, 67213, Note_on_c, 0, 72, 69
2, 67216, Note_on_c, 0, 70, 63
2, 67218, Note_on_c, 0, 53, 47
2, 67226, Note_on_c, 0, 41, 41
2, 67314, Control_c, 0, 64, 106
2, 67329, Control_c, 0, 64, 80
2, 67352, Control_c, 0, 64, 64
2, 67367, Control_c, 0, 64, 0
2, 67519, Control_c, 0, 64, 38
2, 67534, Control_c, 0, 64, 49
2, 67550, Control_c, 0, 64, 56
2, 67566, Control_c, 0, 64, 60
2, 67581, Control_c, 0, 64, 63
2, 67597, Control_c, 0, 64, 66
2, 67611, Control_c, 0, 64, 70
2, 67617, Note_on_c, 0, 72, 0
2, 67626, Control_c, 0, 64, 77
2, 67642, Control_c, 0, 64, 87
2, 67657, Control_c, 0, 64, 100
2, 67672, Note_on_c, 0, 70, 0
2, 67673, Control_c, 0, 64, 127
2, 67966, Note_on_c, 0, 72, 69
2, 67974, Note_on_c, 0, 68, 51
2, 68037, Control_c, 0, 64, 93
2, 68052, Control_c, 0, 64, 77
2, 68067, Control_c, 0, 64, 65
2, 68082, Control_c, 0, 64, 49
2, 68097, Control_c, 0, 64, 0
2, 68299, Note_on_c, 0, 70, 74
2, 68312, Note_on_c, 0, 67, 55
2, 68339, Note_on_c, 0, 72, 0
2, 68354, Note_on_c, 0, 68, 0
2, 68644, Note_on_c, 0, 72, 60
2, 68657, Note_on_c, 0, 68, 49
2, 68705, Note_on_c, 0, 67, 0
2, 68714, Note_on_c, 0, 70, 0
2, 68897, Note_on_c, 0, 41, 0
2, 68897, Note_on_c, 0, 77, 0
2, 68990, Note_on_c, 0, 53, 0
2, 69466, Note_on_c, 0, 77, 69
2, 69480, Note_on_c, 0, 53, 28
2, 69769, Note_on_c, 0, 53, 0
2, 69787, Note_on_c, 0, 77, 0
2, 69811, Note_on_c, 0, 75, 75
2, 70164, Note_on_c, 0, 58, 45
2, 70172, Note_on_c, 0, 74, 70
2, 70182, Note_on_c, 0, 72, 0
2, 70210, Note_on_c, 0, 68, 0
2, 70284, Note_on_c, 0, 75, 0
2, 70880, Note_on_c, 0, 71, 60
2, 70892, Note_on_c, 0, 68, 40
2, 70970, Control_c, 0, 64, 19
2, 70984, Control_c, 0, 64, 45
2, 71000, Control_c, 0, 64, 55
2, 71015, Control_c, 0, 64, 59
2, 71030, Control_c, 0, 64, 61
2, 71046, Control_c, 0, 64, 63
2, 71060, Control_c, 0, 64, 65
2, 71075, Control_c, 0, 64, 67
2, 71091, Control_c, 0, 64, 69
2, 71106, Control_c, 0, 64, 72
2, 71122, Control_c, 0, 64, 75
2, 71136, Control_c, 0, 64, 77
2, 71151, Control_c, 0, 64, 77
2, 71202, Control_c, 0, 64, 76
2, 71216, Note_on_c, 0, 70, 60
2, 71218, Control_c, 0, 64, 69
2, 71233, Control_c, 0, 64, 60
2, 71235, Note_on_c, 0, 66, 39
2, 71239, Note_on_c, 0, 68, 0
2, 71249, Control_c, 0, 64, 34
2, 71263, Control_c, 0, 64, 0
2, 71269, Note_on_c, 0, 71, 0
2, 71309, Control_c, 0, 64, 34
2, 71324, Control_c, 0, 64, 48
2, 71340, Control_c, 0, 64, 54
2, 71355, Control_c, 0, 64, 58
2, 71371, Control_c, 0, 64, 61
2, 71386, Control_c, 0, 64, 63
2, 71400, Control_c, 0, 64, 65
2, 71416, Control_c, 0, 64, 67
2, 71431, Control_c, 0, 64, 70
2, 71447, Control_c, 0, 64, 73
2, 71462, Control_c, 0, 64, 76
2, 71476, Control_c, 0, 64, 77
2, 71541, Note_on_c, 0, 70, 0
2, 71552, Note_on_c, 0, 66, 0
2, 71553, Note_on_c, 0, 68, 48
2, 71569, Control_c, 0, 64, 76
2, 71572, Note_on_c, 0, 65, 34
2, 71584, Control_c, 0, 64, 72
2, 71598, Control_c, 0, 64, 65
2, 71614, Control_c, 0, 64, 52
2, 71629, Control_c, 0, 64, 0
2, 71767, Control_c, 0, 64, 43
2, 71782, Control_c, 0, 64, 54
2, 71797, Control_c, 0, 64, 59
2, 71803, Note_on_c, 0, 74, 0
2, 71813, Control_c, 0, 64, 61
2, 71827, Control_c, 0, 64, 63
2, 71842, Control_c, 0, 64, 65
2, 71843, Note_on_c, 0, 58, 0
2, 71858, Control_c, 0, 64, 68
2, 71873, Control_c, 0, 64, 71
2, 71889, Control_c, 0, 64, 75
2, 71903, Control_c, 0, 64, 79
2, 71918, Control_c, 0, 64, 83
2, 71934, Control_c, 0, 64, 85
2, 72048, Control_c, 0, 64, 83
2, 72063, Control_c, 0, 64, 77
2, 72078, Control_c, 0, 64, 68
2, 72094, Control_c, 0, 64, 61
2, 72108, Control_c, 0, 64, 43
2, 72123, Control_c, 0, 64, 0
2, 72304, Note_on_c, 0, 75, 68
2, 72320, Note_on_c, 0, 58, 34
2, 72519, Control_c, 0, 64, 34
2, 72535, Control_c, 0, 64, 45
2, 72550, Control_c, 0, 64, 52
2, 72566, Control_c, 0, 64, 57
2, 72580, Control_c, 0, 64, 60
2, 72595, Control_c, 0, 64, 62
2, 72611, Control_c, 0, 64, 64
2, 72611, Note_on_c, 0, 77, 80
2, 72626, Control_c, 0, 64, 65
2, 72641, Control_c, 0, 64, 67
2, 72643, Note_on_c, 0, 75, 0
2, 72657, Control_c, 0, 64, 70
2, 72671, Control_c, 0, 64, 74
2, 72673, Note_on_c, 0, 58, 0
2, 72687, Control_c, 0, 64, 80
2, 72702, Control_c, 0, 64, 86
2, 72724, Control_c, 0, 64, 92
2, 72740, Control_c, 0, 64, 99
2, 72754, Control_c, 0, 64, 106
2, 72770, Control_c, 0, 64, 108
2, 72785, Control_c, 0, 64, 109
2, 72951, Control_c, 0, 64, 108
2, 72967, Control_c, 0, 64, 104
2, 72975, Note_on_c, 0, 78, 77
2, 72982, Control_c, 0, 64, 97
2, 72983, Note_on_c, 0, 51, 41
2, 72993, Note_on_c, 0, 65, 0
2, 72996, Control_c, 0, 64, 90
2, 72999, Note_on_c, 0, 77, 0
2, 73012, Control_c, 0, 64, 80
2, 73022, Note_on_c, 0, 68, 0
2, 73027, Control_c, 0, 64, 70
2, 73042, Control_c, 0, 64, 61
2, 73058, Control_c, 0, 64, 29
2, 73072, Control_c, 0, 64, 0
2, 73668, Note_on_c, 0, 63, 40
2, 73668, Note_on_c, 0, 66, 43
2, 73993, Note_on_c, 0, 68, 63
2, 74000, Note_on_c, 0, 66, 0
2, 74002, Note_on_c, 0, 65, 40
2, 74060, Note_on_c, 0, 63, 0
2, 74341, Note_on_c, 0, 70, 52
2, 74363, Note_on_c, 0, 66, 35
2, 74372, Note_on_c, 0, 65, 0
2, 74373, Note_on_c, 0, 68, 0
2, 74418, Note_on_c, 0, 78, 0
2, 74464, Note_on_c, 0, 51, 0
2, 75038, Note_on_c, 0, 51, 25
2, 75040, Note_on_c, 0, 75, 58
2, 75105, Control_c, 0, 64, 26
2, 75120, Control_c, 0, 64, 46
2, 75135, Control_c, 0, 64, 53
2, 75150, Control_c, 0, 64, 58
2, 75166, Control_c, 0, 64, 61
2, 75181, Control_c, 0, 64, 63
2, 75196, Control_c, 0, 64, 65
2, 75211, Control_c, 0, 64, 68
2, 75226, Control_c, 0, 64, 73
2, 75240, Note_on_c, 0, 51, 0
2, 75241, Control_c, 0, 64, 78
2, 75248, Note_on_c, 0, 75, 0
2, 75257, Control_c, 0, 64, 84
2, 75272, Control_c, 0, 64, 89
2, 75287, Control_c, 0, 64, 93
2, 75302, Control_c, 0, 64, 95
2, 75317, Control_c, 0, 64, 96
2, 75362, Control_c, 0, 64, 96
2, 75388, Note_on_c, 0, 73, 71
2, 75475, Note_on_c, 0, 66, 0
2, 75500, Control_c, 0, 64, 96
2, 75515, Control_c, 0, 64, 95
2, 75530, Control_c, 0, 64, 93
2, 75545, Control_c, 0, 64, 91
2, 75560, Control_c, 0, 64, 90
2, 75591, Control_c, 0, 64, 89
2, 75606, Control_c, 0, 64, 88
2, 75621, Control_c, 0, 64, 84
2, 75636, Control_c, 0, 64, 78
2, 75652, Control_c, 0, 64, 68
2, 75667, Control_c, 0, 64, 60
2, 75681, Control_c, 0, 64, 39
2, 75697, Control_c, 0, 64, 0
2, 75726, Note_on_c, 0, 70, 0
2, 75739, Note_on_c, 0, 72, 58
2, 75752, Note_on_c, 0, 56, 40
2, 75802, Note_on_c, 0, 73, 0
2, 76439, Note_on_c, 0, 63, 48
2, 76455, Note_on_c, 0, 60, 39
2, 76750, Note_on_c, 0, 65, 64
2, 76754, Note_on_c, 0, 61, 52
2, 76772, Note_on_c, 0, 63, 0
2, 76782, Note_on_c, 0, 60, 0
2, 77068, Note_on_c, 0, 61, 0
2, 77074, Note_on_c, 0, 65, 0
2, 77095, Note_on_c, 0, 63, 38
2, 77105, Note_on_c, 0, 66, 45
2, 77280, Note_on_c, 0, 72, 0
2, 77298, Note_on_c, 0, 56, 0
2, 77307, Control_c, 0, 64, 41
2, 77331, Control_c, 0, 64, 52
2, 77346, Control_c, 0, 64, 55
2, 77360, Control_c, 0, 64, 56
2, 77408, Control_c, 0, 64, 53
2, 77423, Control_c, 0, 64, 46
2, 77438, Control_c, 0, 64, 33
2, 77453, Control_c, 0, 64, 0
2, 77797, Note_on_c, 0, 73, 63
2, 77811, Note_on_c, 0, 56, 34
2, 78123, Note_on_c, 0, 75, 81
2, 78130, Control_c, 0, 64, 10
2, 78145, Control_c, 0, 64, 47
2, 78159, Control_c, 0, 64, 55
2, 78164, Note_on_c, 0, 73, 0
2, 78175, Control_c, 0, 64, 58
2, 78181, Note_on_c, 0, 56, 0
2, 78190, Control_c, 0, 64, 62
2, 78207, Control_c, 0, 64, 64
2, 78222, Control_c, 0, 64, 65
2, 78237, Control_c, 0, 64, 67
2, 78252, Control_c, 0, 64, 69
2, 78267, Control_c, 0, 64, 71
2, 78282, Control_c, 0, 64, 73
2, 78298, Control_c, 0, 64, 77
2, 78313, Control_c, 0, 64, 80
2, 78329, Control_c, 0, 64, 83
2, 78343, Control_c, 0, 64, 85
2, 78475, Note_on_c, 0, 77, 77
2, 78480, Control_c, 0, 64, 83
2, 78489, Note_on_c, 0, 49, 38
2, 78496, Control_c, 0, 64, 80
2, 78510, Control_c, 0, 64, 73
2, 78526, Control_c, 0, 64, 65
2, 78526, Note_on_c, 0, 75, 0
2, 78532, Note_on_c, 0, 63, 0
2, 78541, Control_c, 0, 64, 50
2, 78556, Control_c, 0, 64, 0
2, 78561, Note_on_c, 0, 66, 0
2, 78693, Control_c, 0, 64, 23
2, 78707, Control_c, 0, 64, 44
2, 78722, Control_c, 0, 64, 53
2, 78738, Control_c, 0, 64, 57
2, 78753, Control_c, 0, 64, 61
2, 78769, Control_c, 0, 64, 63
2, 78784, Control_c, 0, 64, 66
2, 78799, Control_c, 0, 64, 69
2, 78814, Control_c, 0, 64, 75
2, 78829, Control_c, 0, 64, 81
2, 78844, Control_c, 0, 64, 87
2, 78867, Control_c, 0, 64, 91
2, 78882, Control_c, 0, 64, 94
2, 78898, Control_c, 0, 64, 95
2, 78912, Control_c, 0, 64, 96
2, 78928, Control_c, 0, 64, 96
2, 78943, Control_c, 0, 64, 97
2, 79178, Note_on_c, 0, 68, 56
2, 79187, Control_c, 0, 64, 96
2, 79202, Control_c, 0, 64, 93
2, 79204, Note_on_c, 0, 65, 42
2, 79217, Control_c, 0, 64, 90
2, 79232, Control_c, 0, 64, 85
2, 79248, Control_c, 0, 64, 79
2, 79263, Control_c, 0, 64, 73
2, 79277, Control_c, 0, 64, 67
2, 79293, Control_c, 0, 64, 62
2, 79308, Control_c, 0, 64, 54
2, 79323, Control_c, 0, 64, 40
2, 79339, Control_c, 0, 64, 0
2, 79516, Note_on_c, 0, 66, 56
2, 79522, Note_on_c, 0, 68, 0
2, 79523, Note_on_c, 0, 65, 0
2, 79536, Note_on_c, 0, 63, 42
2, 79876, Note_on_c, 0, 77, 0
2, 79877, Note_on_c, 0, 66, 0
2, 79880, Note_on_c, 0, 65, 37
2, 79883, Note_on_c, 0, 61, 41
2, 79892, Note_on_c, 0, 49, 0
2, 79914, Note_on_c, 0, 63, 0
2, 80076, Control_c, 0, 64, 24
2, 80092, Control_c, 0, 64, 46
2, 80107, Control_c, 0, 64, 53
2, 80121, Control_c, 0, 64, 57
2, 80137, Control_c, 0, 64, 60
2, 80152, Control_c, 0, 64, 62
2, 80168, Control_c, 0, 64, 64
2, 80183, Control_c, 0, 64, 67
2, 80197, Control_c, 0, 64, 71
2, 80213, Control_c, 0, 64, 76
2, 80228, Control_c, 0, 64, 84
2, 80243, Control_c, 0, 64, 94
2, 80259, Control_c, 0, 64, 106
2, 80273, Control_c, 0, 64, 127
2, 80284, Note_on_c, 0, 61, 0
2, 80289, Note_on_c, 0, 65, 0
2, 80571, Note_on_c, 0, 73, 58
2, 80587, Note_on_c, 0, 65, 38
2, 80593, Note_on_c, 0, 49, 31
2, 80596, Note_on_c, 0, 61, 35
2, 80615, Control_c, 0, 64, 103
2, 80630, Control_c, 0, 64, 77
2, 80645, Control_c, 0, 64, 63
2, 80662, Control_c, 0, 64, 29
2, 80677, Control_c, 0, 64, 0
2, 80722, Control_c, 0, 64, 28
2, 80738, Control_c, 0, 64, 44
2, 80752, Control_c, 0, 64, 51
2, 80768, Control_c, 0, 64, 55
2, 80783, Control_c, 0, 64, 58
2, 80798, Control_c, 0, 64, 60
2, 80814, Control_c, 0, 64, 62
2, 80829, Control_c, 0, 64, 64
2, 80844, Control_c, 0, 64, 65
2, 80860, Control_c, 0, 64, 68
2, 80875, Control_c, 0, 64, 73
2, 80891, Control_c, 0, 64, 81
2, 80899, Note_on_c, 0, 72, 67
2, 80905, Control_c, 0, 64, 92
2, 80905, Note_on_c, 0, 73, 0
2, 80920, Control_c, 0, 64, 106
2, 80936, Control_c, 0, 64, 127
2, 80956, Note_on_c, 0, 61, 0
2, 80960, Note_on_c, 0, 49, 0
2, 81226, Note_on_c, 0, 72, 0
2, 81265, Note_on_c, 0, 70, 61
2, 81281, Note_on_c, 0, 65, 0
2, 81289, Note_on_c, 0, 61, 35
2, 81292, Note_on_c, 0, 54, 35
2, 81292, Note_on_c, 0, 66, 41
2, 81309, Control_c, 0, 64, 112
2, 81323, Control_c, 0, 64, 83
2, 81339, Control_c, 0, 64, 67
2, 81354, Control_c, 0, 64, 47
2, 81369, Control_c, 0, 64, 0
2, 81460, Control_c, 0, 64, 26
2, 81476, Control_c, 0, 64, 48
2, 81492, Control_c, 0, 64, 55
2, 81507, Control_c, 0, 64, 59
2, 81522, Control_c, 0, 64, 62
2, 81538, Control_c, 0, 64, 64
2, 81552, Control_c, 0, 64, 67
2, 81558, Note_on_c, 0, 66, 0
2, 81568, Control_c, 0, 64, 74
2, 81583, Control_c, 0, 64, 85
2, 81584, Note_on_c, 0, 54, 0
2, 81590, Note_on_c, 0, 70, 0
2, 81597, Control_c, 0, 64, 100
2, 81612, Note_on_c, 0, 61, 0
2, 81613, Control_c, 0, 64, 127
2, 81967, Note_on_c, 0, 70, 62
2, 81970, Control_c, 0, 64, 94
2, 81985, Control_c, 0, 64, 69
2, 81986, Note_on_c, 0, 54, 35
2, 81991, Note_on_c, 0, 61, 33
2, 81991, Note_on_c, 0, 66, 45
2, 82000, Control_c, 0, 64, 32
2, 82015, Control_c, 0, 64, 0
2, 82092, Control_c, 0, 64, 10
2, 82107, Control_c, 0, 64, 46
2, 82122, Control_c, 0, 64, 55
2, 82138, Control_c, 0, 64, 58
2, 82153, Control_c, 0, 64, 60
2, 82168, Control_c, 0, 64, 62
2, 82183, Control_c, 0, 64, 63
2, 82198, Control_c, 0, 64, 65
2, 82213, Control_c, 0, 64, 67
2, 82228, Control_c, 0, 64, 71
2, 82243, Control_c, 0, 64, 75
2, 82259, Control_c, 0, 64, 80
2, 82272, Note_on_c, 0, 53, 56
2, 82274, Control_c, 0, 64, 86
2, 82291, Control_c, 0, 64, 90
2, 82306, Control_c, 0, 64, 94
2, 82320, Control_c, 0, 64, 100
2, 82336, Control_c, 0, 64, 108
2, 82338, Note_on_c, 0, 54, 0
2, 82347, Note_on_c, 0, 70, 0
2, 82351, Control_c, 0, 64, 127
2, 82369, Note_on_c, 0, 61, 0
2, 82478, Note_on_c, 0, 53, 0
2, 82637, Note_on_c, 0, 78, 73
2, 82656, Note_on_c, 0, 63, 49
2, 82661, Note_on_c, 0, 70, 52
2, 82678, Note_on_c, 0, 51, 40
2, 82708, Control_c, 0, 64, 107
2, 82714, Note_on_c, 0, 66, 0
2, 82723, Control_c, 0, 64, 79
2, 82738, Control_c, 0, 64, 61
2, 82753, Control_c, 0, 64, 0
2, 82859, Control_c, 0, 64, 44
2, 82874, Control_c, 0, 64, 57
2, 82890, Control_c, 0, 64, 61
2, 82905, Control_c, 0, 64, 63
2, 82920, Control_c, 0, 64, 65
2, 82930, Note_on_c, 0, 78, 0
2, 82936, Control_c, 0, 64, 68
2, 82942, Note_on_c, 0, 51, 0
2, 82951, Control_c, 0, 64, 74
2, 82967, Control_c, 0, 64, 84
2, 82981, Control_c, 0, 64, 101
2, 82996, Control_c, 0, 64, 127
2, 83007, Note_on_c, 0, 63, 0
2, 83016, Note_on_c, 0, 70, 0
2, 83316, Control_c, 0, 64, 103
2, 83320, Note_on_c, 0, 78, 77
2, 83325, Note_on_c, 0, 51, 45
2, 83332, Control_c, 0, 64, 72
2, 83333, Note_on_c, 0, 63, 59
2, 83347, Control_c, 0, 64, 49
2, 83350, Note_on_c, 0, 70, 46
2, 83361, Control_c, 0, 64, 0
2, 83437, Control_c, 0, 64, 33
2, 83453, Control_c, 0, 64, 55
2, 83476, Control_c, 0, 64, 63
2, 83492, Control_c, 0, 64, 66
2, 83506, Control_c, 0, 64, 70
2, 83521, Control_c, 0, 64, 78
2, 83537, Control_c, 0, 64, 90
2, 83552, Control_c, 0, 64, 115
2, 83567, Control_c, 0, 64, 127
2, 83577, Note_on_c, 0, 51, 0
2, 83655, Note_on_c, 0, 77, 81
2, 83675, Note_on_c, 0, 65, 63
2, 83705, Note_on_c, 0, 70, 0
2, 83712, Note_on_c, 0, 78, 0
2, 83801, Note_on_c, 0, 63, 0
2, 83868, Note_on_c, 0, 65, 0
2, 83992, Note_on_c, 0, 75, 79
2, 84018, Note_on_c, 0, 60, 53
2, 84027, Note_on_c, 0, 70, 46
2, 84029, Note_on_c, 0, 66, 46
2, 84031, Note_on_c, 0, 77, 0
2, 84069, Control_c, 0, 64, 119
2, 84083, Control_c, 0, 64, 80
2, 84099, Control_c, 0, 64, 63
2, 84114, Control_c, 0, 64, 0
2, 84220, Control_c, 0, 64, 44
2, 84243, Control_c, 0, 64, 56
2, 84259, Control_c, 0, 64, 60
2, 84274, Control_c, 0, 64, 63
2, 84289, Control_c, 0, 64, 65
2, 84304, Control_c, 0, 64, 68
2, 84312, Note_on_c, 0, 66, 0
2, 84319, Control_c, 0, 64, 75
2, 84334, Note_on_c, 0, 60, 0
2, 84335, Control_c, 0, 64, 85
2, 84349, Control_c, 0, 64, 97
2, 84364, Control_c, 0, 64, 121
2, 84370, Note_on_c, 0, 75, 0
2, 84380, Control_c, 0, 64, 127
2, 84433, Note_on_c, 0, 70, 0
2, 84669, Note_on_c, 0, 75, 85
2, 84695, Note_on_c, 0, 60, 47
2, 84697, Note_on_c, 0, 66, 45
2, 84710, Note_on_c, 0, 69, 46
2, 84714, Control_c, 0, 64, 82
2, 84730, Control_c, 0, 64, 63
2, 84745, Control_c, 0, 64, 0
2, 84837, Control_c, 0, 64, 13
2, 84852, Control_c, 0, 64, 51
2, 84867, Control_c, 0, 64, 58
2, 84882, Control_c, 0, 64, 61
2, 84898, Control_c, 0, 64, 63
2, 84913, Control_c, 0, 64, 66
2, 84928, Control_c, 0, 64, 70
2, 84943, Control_c, 0, 64, 77
2, 84958, Control_c, 0, 64, 90
2, 84965, Note_on_c, 0, 60, 0
2, 84973, Control_c, 0, 64, 110
2, 84984, Note_on_c, 0, 58, 50
2, 84984, Note_on_c, 0, 70, 69
2, 84988, Control_c, 0, 64, 127
2, 84996, Note_on_c, 0, 69, 0
2, 85026, Note_on_c, 0, 70, 0
2, 85027, Note_on_c, 0, 75, 0
2, 85073, Note_on_c, 0, 66, 0
2, 85084, Note_on_c, 0, 58, 0
2, 85347, Note_on_c, 0, 84, 86
2, 85370, Note_on_c, 0, 66, 43
2, 85379, Note_on_c, 0, 57, 38
2, 85391, Note_on_c, 0, 72, 51
2, 85468, Control_c, 0, 64, 106
2, 85482, Control_c, 0, 64, 73
2, 85498, Control_c, 0, 64, 56
2, 85513, Control_c, 0, 64, 0
2, 85605, Control_c, 0, 64, 22
2, 85620, Control_c, 0, 64, 49
2, 85635, Control_c, 0, 64, 57
2, 85651, Control_c, 0, 64, 60
2, 85666, Control_c, 0, 64, 62
2, 85681, Control_c, 0, 64, 64
2, 85696, Control_c, 0, 64, 66
2, 85711, Control_c, 0, 64, 70
2, 85727, Control_c, 0, 64, 78
2, 85730, Note_on_c, 0, 57, 0
2, 85742, Control_c, 0, 64, 89
2, 85748, Note_on_c, 0, 72, 0
2, 85757, Control_c, 0, 64, 109
2, 85765, Note_on_c, 0, 84, 0
2, 85780, Control_c, 0, 64, 127
2, 85828, Note_on_c, 0, 66, 0
2, 86016, Note_on_c, 0, 84, 80
2, 86042, Note_on_c, 0, 57, 38
2, 86043, Note_on_c, 0, 65, 42
2, 86044, Note_on_c, 0, 72, 58
2, 86067, Control_c, 0, 64, 98
2, 86082, Control_c, 0, 64, 72
2, 86098, Control_c, 0, 64, 53
2, 86112, Control_c, 0, 64, 0
2, 86203, Control_c, 0, 64, 28
2, 86219, Control_c, 0, 64, 51
2, 86234, Control_c, 0, 64, 58
2, 86250, Control_c, 0, 64, 62
2, 86265, Control_c, 0, 64, 64
2, 86280, Control_c, 0, 64, 67
2, 86296, Control_c, 0, 64, 72
2, 86310, Control_c, 0, 64, 79
2, 86325, Control_c, 0, 64, 91
2, 86341, Control_c, 0, 64, 103
2, 86353, Note_on_c, 0, 82, 88
2, 86355, Control_c, 0, 64, 116
2, 86371, Control_c, 0, 64, 127
2, 86384, Note_on_c, 0, 84, 0
2, 86390, Note_on_c, 0, 72, 0
2, 86457, Note_on_c, 0, 65, 0
2, 86465, Note_on_c, 0, 57, 0
2, 86574, Note_on_c, 0, 82, 0
2, 86705, Note_on_c, 0, 81, 88
2, 86720, Note_on_c, 0, 63, 47
2, 86743, Note_on_c, 0, 72, 52
2, 86748, Note_on_c, 0, 77, 49
2, 86775, Control_c, 0, 64, 107
2, 86790, Control_c, 0, 64, 83
2, 86804, Control_c, 0, 64, 69
2, 86820, Control_c, 0, 64, 55
2, 86835, Control_c, 0, 64, 0
2, 86942, Control_c, 0, 64, 35
2, 86956, Control_c, 0, 64, 53
2, 86972, Control_c, 0, 64, 58
2, 86987, Control_c, 0, 64, 61
2, 87001, Control_c, 0, 64, 63
2, 87017, Control_c, 0, 64, 65
2, 87032, Control_c, 0, 64, 68
2, 87048, Control_c, 0, 64, 73
2, 87063, Control_c, 0, 64, 81
2, 87066, Note_on_c, 0, 72, 0
2, 87078, Control_c, 0, 64, 89
2, 87094, Control_c, 0, 64, 95
2, 87109, Control_c, 0, 64, 101
2, 87112, Note_on_c, 0, 81, 0
2, 87124, Control_c, 0, 64, 106
2, 87132, Note_on_c, 0, 77, 0
2, 87139, Control_c, 0, 64, 115
2, 87154, Control_c, 0, 64, 127
2, 87230, Note_on_c, 0, 63, 0
2, 87383, Note_on_c, 0, 81, 78
2, 87403, Note_on_c, 0, 65, 42
2, 87405, Control_c, 0, 64, 95
2, 87413, Note_on_c, 0, 77, 52
2, 87421, Control_c, 0, 64, 73
2, 87424, Note_on_c, 0, 72, 50
2, 87436, Control_c, 0, 64, 60
2, 87452, Control_c, 0, 64, 28
2, 87466, Control_c, 0, 64, 8
2, 87481, Control_c, 0, 64, 33
2, 87499, Control_c, 0, 64, 44
2, 87514, Control_c, 0, 64, 50
2, 87530, Control_c, 0, 64, 56
2, 87545, Control_c, 0, 64, 60
2, 87561, Control_c, 0, 64, 63
2, 87576, Control_c, 0, 64, 65
2, 87591, Control_c, 0, 64, 67
2, 87606, Control_c, 0, 64, 71
2, 87621, Control_c, 0, 64, 77
2, 87631, Note_on_c, 0, 72, 0
2, 87636, Control_c, 0, 64, 84
2, 87651, Control_c, 0, 64, 91
2, 87666, Control_c, 0, 64, 96
2, 87682, Control_c, 0, 64, 100
2, 87697, Control_c, 0, 64, 106
2, 87704, Note_on_c, 0, 63, 66
2, 87708, Note_on_c, 0, 65, 0
2, 87712, Control_c, 0, 64, 115
2, 87727, Control_c, 0, 64, 127
2, 87790, Note_on_c, 0, 77, 0
2, 88044, Note_on_c, 0, 82, 75
2, 88059, Note_on_c, 0, 62, 52
2, 88064, Note_on_c, 0, 77, 54
2, 88065, Note_on_c, 0, 70, 48
2, 88101, Note_on_c, 0, 63, 0
2, 88104, Note_on_c, 0, 81, 0
2, 88115, Control_c, 0, 64, 98
2, 88131, Control_c, 0, 64, 73
2, 88146, Control_c, 0, 64, 59
2, 88161, Control_c, 0, 64, 0
2, 88253, Control_c, 0, 64, 23
2, 88268, Control_c, 0, 64, 48
2, 88283, Control_c, 0, 64, 57
2, 88298, Control_c, 0, 64, 61
2, 88313, Control_c, 0, 64, 63
2, 88329, Control_c, 0, 64, 65
2, 88344, Control_c, 0, 64, 68
2, 88358, Control_c, 0, 64, 73
2, 88374, Control_c, 0, 64, 80
2, 88378, Note_on_c, 0, 82, 0
2, 88389, Control_c, 0, 64, 88
2, 88405, Control_c, 0, 64, 94
2, 88414, Note_on_c, 0, 62, 0
2, 88420, Control_c, 0, 64, 100
2, 88434, Control_c, 0, 64, 105
2, 88434, Note_on_c, 0, 70, 0
2, 88450, Control_c, 0, 64, 110
2, 88462, Note_on_c, 0, 77, 0
2, 88465, Control_c, 0, 64, 117
2, 88481, Control_c, 0, 64, 127
2, 88750, Note_on_c, 0, 82, 72
2, 88754, Control_c, 0, 64, 121
2, 88769, Control_c, 0, 64, 95
2, 88771, Note_on_c, 0, 77, 57
2, 88772, Note_on_c, 0, 62, 47
2, 88777, Note_on_c, 0, 70, 43
2, 88784, Control_c, 0, 64, 76
2, 88800, Control_c, 0, 64, 63
2, 88815, Control_c, 0, 64, 16
2, 88830, Control_c, 0, 64, 0
2, 88899, Control_c, 0, 64, 16
2, 88914, Control_c, 0, 64, 42
2, 88930, Control_c, 0, 64, 50
2, 88945, Control_c, 0, 64, 55
2, 88961, Control_c, 0, 64, 58
2, 88976, Control_c, 0, 64, 61
2, 88991, Control_c, 0, 64, 63
2, 89006, Control_c, 0, 64, 64
2, 89021, Control_c, 0, 64, 66
2, 89036, Control_c, 0, 64, 69
2, 89052, Control_c, 0, 64, 74
2, 89067, Control_c, 0, 64, 79
2, 89082, Control_c, 0, 64, 87
2, 89097, Control_c, 0, 64, 93
2, 89101, Note_on_c, 0, 62, 0
2, 89103, Note_on_c, 0, 80, 74
2, 89112, Control_c, 0, 64, 100
2, 89118, Note_on_c, 0, 82, 0
2, 89127, Control_c, 0, 64, 108
2, 89141, Note_on_c, 0, 77, 0
2, 89142, Control_c, 0, 64, 127
2, 89157, Note_on_c, 0, 70, 0
2, 89403, Note_on_c, 0, 80, 0
2, 89441, Note_on_c, 0, 78, 70
2, 89450, Note_on_c, 0, 77, 66
2, 89456, Note_on_c, 0, 63, 44
2, 89459, Note_on_c, 0, 70, 52
2, 89507, Control_c, 0, 64, 89
2, 89523, Control_c, 0, 64, 69
2, 89537, Control_c, 0, 64, 52
2, 89552, Control_c, 0, 64, 0
2, 89636, Control_c, 0, 64, 18
2, 89652, Control_c, 0, 64, 43
2, 89667, Control_c, 0, 64, 52
2, 89683, Control_c, 0, 64, 58
2, 89698, Control_c, 0, 64, 61
2, 89713, Control_c, 0, 64, 64
2, 89728, Control_c, 0, 64, 66
2, 89743, Control_c, 0, 64, 70
2, 89758, Control_c, 0, 64, 76
2, 89773, Control_c, 0, 64, 84
2, 89780, Note_on_c, 0, 63, 0
2, 89788, Control_c, 0, 64, 92
2, 89795, Note_on_c, 0, 77, 0
2, 89804, Control_c, 0, 64, 102
2, 89819, Control_c, 0, 64, 124
2, 89827, Note_on_c, 0, 78, 0
2, 89834, Control_c, 0, 64, 127
2, 89875, Note_on_c, 0, 70, 0
2, 90138, Note_on_c, 0, 78, 61
2, 90150, Note_on_c, 0, 75, 51
2, 90153, Control_c, 0, 64, 91
2, 90154, Note_on_c, 0, 63, 33
2, 90160, Note_on_c, 0, 70, 42
2, 90169, Control_c, 0, 64, 70
2, 90183, Control_c, 0, 64, 54
2, 90198, Control_c, 0, 64, 0
2, 90259, Control_c, 0, 64, 30
2, 90274, Control_c, 0, 64, 45
2, 90290, Control_c, 0, 64, 53
2, 90305, Control_c, 0, 64, 57
2, 90321, Control_c, 0, 64, 60
2, 90335, Control_c, 0, 64, 62
2, 90350, Control_c, 0, 64, 64
2, 90366, Control_c, 0, 64, 66
2, 90388, Control_c, 0, 64, 68
2, 90404, Control_c, 0, 64, 73
2, 90419, Control_c, 0, 64, 78
2, 90434, Control_c, 0, 64, 84
2, 90450, Control_c, 0, 64, 90
2, 90464, Control_c, 0, 64, 97
2, 90480, Control_c, 0, 64, 102
2, 90480, Note_on_c, 0, 75, 0
2, 90484, Note_on_c, 0, 78, 0
2, 90490, Note_on_c, 0, 61, 56
2, 90496, Control_c, 0, 64, 108
2, 90510, Control_c, 0, 64, 124
2, 90526, Control_c, 0, 64, 127
2, 90535, Note_on_c, 0, 70, 0
2, 90538, Note_on_c, 0, 63, 0
2, 90792, Note_on_c, 0, 61, 0
2, 90837, Note_on_c, 0, 60, 46
2, 90845, Note_on_c, 0, 78, 47
2, 90847, Note_on_c, 0, 75, 46
2, 90861, Note_on_c, 0, 70, 35
2, 90890, Control_c, 0, 64, 91
2, 90905, Control_c, 0, 64, 71
2, 90921, Control_c, 0, 64, 59
2, 90936, Control_c, 0, 64, 0
2, 90981, Control_c, 0, 64, 13
2, 90996, Control_c, 0, 64, 40
2, 91012, Control_c, 0, 64, 50
2, 91027, Control_c, 0, 64, 56
2, 91043, Control_c, 0, 64, 60
2, 91058, Control_c, 0, 64, 63
2, 91073, Control_c, 0, 64, 65
2, 91089, Control_c, 0, 64, 69
2, 91103, Control_c, 0, 64, 75
2, 91118, Control_c, 0, 64, 83
2, 91134, Control_c, 0, 64, 95
2, 91140, Note_on_c, 0, 78, 0
2, 91156, Control_c, 0, 64, 115
2, 91172, Control_c, 0, 64, 127
2, 91205, Note_on_c, 0, 75, 0
2, 91215, Note_on_c, 0, 70, 0
2, 91222, Note_on_c, 0, 60, 0
2, 91520, Note_on_c, 0, 78, 57
2, 91529, Note_on_c, 0, 69, 56
2, 91533, Note_on_c, 0, 60, 42
2, 91541, Note_on_c, 0, 75, 54
2, 91553, Control_c, 0, 64, 108
2, 91569, Control_c, 0, 64, 76
2, 91584, Control_c, 0, 64, 60
2, 91600, Control_c, 0, 64, 0
2, 91705, Control_c, 0, 64, 37
2, 91721, Control_c, 0, 64, 49
2, 91735, Control_c, 0, 64, 53
2, 91750, Control_c, 0, 64, 57
2, 91766, Control_c, 0, 64, 60
2, 91781, Control_c, 0, 64, 62
2, 91796, Control_c, 0, 64, 64
2, 91812, Control_c, 0, 64, 66
2, 91826, Control_c, 0, 64, 69
2, 91842, Control_c, 0, 64, 74
2, 91850, Note_on_c, 0, 70, 80
2, 91855, Note_on_c, 0, 58, 48
2, 91857, Control_c, 0, 64, 81
2, 91870, Note_on_c, 0, 60, 0
2, 91871, Control_c, 0, 64, 91
2, 91875, Note_on_c, 0, 75, 0
2, 91881, Note_on_c, 0, 69, 0
2, 91887, Control_c, 0, 64, 104
2, 91902, Control_c, 0, 64, 127
2, 91925, Note_on_c, 0, 78, 0
2, 92212, Note_on_c, 0, 72, 68
2, 92213, Note_on_c, 0, 78, 67
2, 92215, Note_on_c, 0, 70, 0
2, 92217, Note_on_c, 0, 57, 41
2, 92229, Note_on_c, 0, 75, 54
2, 92239, Note_on_c, 0, 58, 0
2, 92273, Control_c, 0, 64, 110
2, 92289, Control_c, 0, 64, 79
2, 92303, Control_c, 0, 64, 63
2, 92318, Control_c, 0, 64, 0
2, 92425, Control_c, 0, 64, 36
2, 92440, Control_c, 0, 64, 53
2, 92456, Control_c, 0, 64, 60
2, 92471, Control_c, 0, 64, 64
2, 92487, Control_c, 0, 64, 66
2, 92502, Control_c, 0, 64, 71
2, 92504, Note_on_c, 0, 57, 0
2, 92516, Control_c, 0, 64, 80
2, 92532, Control_c, 0, 64, 96
2, 92547, Control_c, 0, 64, 127
2, 92600, Note_on_c, 0, 78, 0
2, 92655, Note_on_c, 0, 72, 0
2, 92861, Note_on_c, 0, 77, 69
2, 92866, Note_on_c, 0, 65, 61
2, 92866, Note_on_c, 0, 73, 68
2, 92875, Note_on_c, 0, 57, 53
2, 92900, Note_on_c, 0, 75, 0
2, 92965, Control_c, 0, 64, 91
2, 92981, Control_c, 0, 64, 73
2, 92996, Control_c, 0, 64, 58
2, 93012, Control_c, 0, 64, 0
2, 93190, Note_on_c, 0, 63, 72
2, 93195, Note_on_c, 0, 72, 68
2, 93216, Note_on_c, 0, 65, 0
2, 93219, Note_on_c, 0, 73, 0
2, 93284, Control_c, 0, 64, 19
2, 93288, Note_on_c, 0, 77, 0
2, 93300, Control_c, 0, 64, 42
2, 93315, Control_c, 0, 64, 50
2, 93331, Control_c, 0, 64, 55
2, 93346, Control_c, 0, 64, 59
2, 93360, Control_c, 0, 64, 62
2, 93376, Control_c, 0, 64, 65
2, 93391, Control_c, 0, 64, 68
2, 93407, Control_c, 0, 64, 76
2, 93422, Control_c, 0, 64, 86
2, 93436, Control_c, 0, 64, 102
2, 93459, Control_c, 0, 64, 127
2, 93527, Note_on_c, 0, 72, 0
2, 93563, Note_on_c, 0, 57, 0
2, 93575, Note_on_c, 0, 77, 84
2, 93591, Note_on_c, 0, 58, 56
2, 93591, Note_on_c, 0, 70, 66
2, 93594, Note_on_c, 0, 61, 60
2, 93604, Note_on_c, 0, 63, 0
2, 93641, Control_c, 0, 64, 116
2, 93657, Control_c, 0, 64, 79
2, 93672, Control_c, 0, 64, 62
2, 93687, Control_c, 0, 64, 0
2, 93780, Control_c, 0, 64, 34
2, 93794, Control_c, 0, 64, 53
2, 93810, Control_c, 0, 64, 60
2, 93825, Control_c, 0, 64, 63
2, 93840, Control_c, 0, 64, 67
2, 93856, Control_c, 0, 64, 72
2, 93870, Control_c, 0, 64, 82
2, 93885, Control_c, 0, 64, 103
2, 93889, Note_on_c, 0, 70, 0
2, 93901, Control_c, 0, 64, 127
2, 93906, Note_on_c, 0, 61, 0
2, 93932, Note_on_c, 0, 58, 0
2, 94029, Note_on_c, 0, 77, 0
2, 94271, Note_on_c, 0, 78, 80
2, 94282, Note_on_c, 0, 61, 58
2, 94291, Note_on_c, 0, 70, 57
2, 94294, Note_on_c, 0, 58, 53
2, 94303, Control_c, 0, 64, 82
2, 94318, Control_c, 0, 64, 63
2, 94333, Control_c, 0, 64, 0
2, 94439, Control_c, 0, 64, 38
2, 94455, Control_c, 0, 64, 45
2, 94470, Control_c, 0, 64, 49
2, 94484, Control_c, 0, 64, 52
2, 94500, Control_c, 0, 64, 55
2, 94515, Control_c, 0, 64, 58
2, 94530, Control_c, 0, 64, 61
2, 94545, Control_c, 0, 64, 62
2, 94560, Control_c, 0, 64, 64
2, 94576, Control_c, 0, 64, 67
2, 94592, Control_c, 0, 64, 71
2, 94608, Control_c, 0, 64, 76
2, 94609, Note_on_c, 0, 77, 81
2, 94621, Note_on_c, 0, 56, 61
2, 94623, Control_c, 0, 64, 83
2, 94624, Note_on_c, 0, 78, 0
2, 94637, Control_c, 0, 64, 91
2, 94653, Control_c, 0, 64, 97
2, 94654, Note_on_c, 0, 58, 0
2, 94661, Note_on_c, 0, 61, 0
2, 94668, Control_c, 0, 64, 100
2, 94683, Control_c, 0, 64, 104
2, 94699, Control_c, 0, 64, 112
2, 94702, Note_on_c, 0, 70, 0
2, 94713, Control_c, 0, 64, 127
2, 94887, Note_on_c, 0, 56, 0
2, 94964, Note_on_c, 0, 75, 72
2, 94976, Note_on_c, 0, 61, 76
2, 94979, Note_on_c, 0, 70, 54
2, 95001, Note_on_c, 0, 77, 0
2, 95003, Note_on_c, 0, 54, 51
2, 95055, Control_c, 0, 64, 92
2, 95070, Control_c, 0, 64, 71
2, 95085, Control_c, 0, 64, 54
2, 95101, Control_c, 0, 64, 0
2, 95223, Control_c, 0, 64, 41
2, 95238, Control_c, 0, 64, 52
2, 95253, Control_c, 0, 64, 58
2, 95268, Control_c, 0, 64, 61
2, 95283, Control_c, 0, 64, 64
2, 95299, Control_c, 0, 64, 67
2, 95302, Note_on_c, 0, 54, 0
2, 95314, Control_c, 0, 64, 73
2, 95329, Control_c, 0, 64, 83
2, 95344, Control_c, 0, 64, 101
2, 95358, Note_on_c, 0, 75, 0
2, 95359, Control_c, 0, 64, 127
2, 95459, Note_on_c, 0, 70, 0
2, 95522, Note_on_c, 0, 61, 0
2, 95663, Note_on_c, 0, 75, 71
2, 95666, Note_on_c, 0, 69, 63
2, 95671, Note_on_c, 0, 60, 79
2, 95678, Control_c, 0, 64, 94
2, 95694, Control_c, 0, 64, 67
2, 95698, Note_on_c, 0, 54, 51
2, 95709, Control_c, 0, 64, 0
2, 95793, Control_c, 0, 64, 33
2, 95808, Control_c, 0, 64, 55
2, 95823, Control_c, 0, 64, 62
2, 95838, Control_c, 0, 64, 65
2, 95854, Control_c, 0, 64, 69
2, 95869, Control_c, 0, 64, 76
2, 95883, Control_c, 0, 64, 86
2, 95899, Control_c, 0, 64, 103
2, 95914, Control_c, 0, 64, 127
2, 95936, Note_on_c, 0, 54, 0
2, 95982, Note_on_c, 0, 61, 84
2, 95987, Note_on_c, 0, 73, 72
2, 95990, Note_on_c, 0, 60, 0
2, 95993, Note_on_c, 0, 69, 0
2, 95998, Note_on_c, 0, 70, 61
2, 96000, Note_on_c, 0, 53, 61
2, 96000, Note_on_c, 0, 75, 0
2, 96005, Control_c, 0, 64, 85
2, 96021, Control_c, 0, 64, 65
2, 96036, Control_c, 0, 64, 17
2, 96052, Control_c, 0, 64, 0
2, 96082, Control_c, 0, 64, 46
2, 96097, Control_c, 0, 64, 58
2, 96112, Control_c, 0, 64, 63
2, 96128, Control_c, 0, 64, 67
2, 96131, Note_on_c, 0, 70, 0
2, 96143, Control_c, 0, 64, 75
2, 96158, Control_c, 0, 64, 99
2, 96173, Control_c, 0, 64, 127
2, 96198, Note_on_c, 0, 61, 0
2, 96212, Note_on_c, 0, 53, 0
2, 96331, Note_on_c, 0, 73, 0
2, 96337, Note_on_c, 0, 72, 61
2, 96339, Note_on_c, 0, 63, 74
2, 96351, Note_on_c, 0, 70, 60
2, 96369, Note_on_c, 0, 51, 48
2, 96372, Control_c, 0, 64, 114
2, 96387, Control_c, 0, 64, 75
2, 96401, Control_c, 0, 64, 54
2, 96417, Control_c, 0, 64, 0
2, 96508, Control_c, 0, 64, 18
2, 96531, Control_c, 0, 64, 50
2, 96546, Control_c, 0, 64, 58
2, 96561, Control_c, 0, 64, 62
2, 96577, Control_c, 0, 64, 64
2, 96592, Control_c, 0, 64, 68
2, 96607, Control_c, 0, 64, 74
2, 96622, Control_c, 0, 64, 86
2, 96636, Control_c, 0, 64, 112
2, 96651, Control_c, 0, 64, 127
2, 96657, Note_on_c, 0, 63, 0
2, 96693, Note_on_c, 0, 51, 0
2, 96703, Note_on_c, 0, 70, 0
2, 96723, Note_on_c, 0, 72, 0
2, 97044, Note_on_c, 0, 72, 82
2, 97055, Note_on_c, 0, 51, 58
2, 97056, Note_on_c, 0, 69, 68
2, 97058, Note_on_c, 0, 65, 65
2, 97063, Control_c, 0, 64, 82
2, 97078, Control_c, 0, 64, 63
2, 97093, Control_c, 0, 64, 0
2, 97154, Control_c, 0, 64, 13
2, 97169, Control_c, 0, 64, 47
2, 97183, Note_on_c, 0, 69, 0
2, 97184, Control_c, 0, 64, 58
2, 97199, Control_c, 0, 64, 63
2, 97215, Control_c, 0, 64, 67
2, 97230, Control_c, 0, 64, 74
2, 97244, Control_c, 0, 64, 89
2, 97260, Control_c, 0, 64, 127
2, 97370, Note_on_c, 0, 73, 90
2, 97373, Note_on_c, 0, 70, 78
2, 97384, Note_on_c, 0, 49, 62
2, 97404, Control_c, 0, 64, 77
2, 97412, Note_on_c, 0, 51, 0
2, 97420, Control_c, 0, 64, 41
2, 97424, Note_on_c, 0, 72, 0
2, 97435, Control_c, 0, 64, 0
2, 97496, Control_c, 0, 64, 26
2, 97510, Control_c, 0, 64, 55
2, 97519, Note_on_c, 0, 65, 0
2, 97522, Note_on_c, 0, 70, 0
2, 97525, Control_c, 0, 64, 63
2, 97541, Control_c, 0, 64, 69
2, 97556, Control_c, 0, 64, 80
2, 97572, Control_c, 0, 64, 117
2, 97586, Control_c, 0, 64, 127
2, 97714, Note_on_c, 0, 75, 84
2, 97718, Note_on_c, 0, 69, 72
2, 97725, Note_on_c, 0, 48, 58
2, 97729, Note_on_c, 0, 66, 68
2, 97737, Note_on_c, 0, 49, 0
2, 97763, Note_on_c, 0, 73, 0
2, 97784, Control_c, 0, 64, 108
2, 97799, Control_c, 0, 64, 75
2, 97815, Control_c, 0, 64, 57
2, 97830, Control_c, 0, 64, 0
2, 97968, Control_c, 0, 64, 39
2, 97983, Control_c, 0, 64, 50
2, 97998, Control_c, 0, 64, 56
2, 98013, Control_c, 0, 64, 59
2, 98028, Control_c, 0, 64, 62
2, 98038, Note_on_c, 0, 66, 0
2, 98039, Note_on_c, 0, 69, 0
2, 98043, Control_c, 0, 64, 65
2, 98066, Control_c, 0, 64, 69
2, 98081, Control_c, 0, 64, 75
2, 98097, Control_c, 0, 64, 86
2, 98112, Control_c, 0, 64, 106
2, 98128, Control_c, 0, 64, 127
2, 98161, Note_on_c, 0, 48, 0
2, 98231, Note_on_c, 0, 75, 0
2, 98396, Note_on_c, 0, 72, 87
2, 98411, Note_on_c, 0, 69, 71
2, 98415, Note_on_c, 0, 66, 66
2, 98420, Note_on_c, 0, 48, 55
2, 98431, Control_c, 0, 64, 84
2, 98447, Control_c, 0, 64, 62
2, 98462, Control_c, 0, 64, 0
2, 98538, Control_c, 0, 64, 44
2, 98543, Note_on_c, 0, 69, 0
2, 98552, Control_c, 0, 64, 58
2, 98568, Control_c, 0, 64, 63
2, 98583, Control_c, 0, 64, 66
2, 98598, Control_c, 0, 64, 73
2, 98614, Control_c, 0, 64, 83
2, 98629, Control_c, 0, 64, 104
2, 98644, Control_c, 0, 64, 127
2, 98720, Note_on_c, 0, 73, 88
2, 98730, Note_on_c, 0, 70, 78
2, 98732, Note_on_c, 0, 46, 63
2, 98751, Control_c, 0, 64, 112
2, 98754, Note_on_c, 0, 48, 0
2, 98767, Control_c, 0, 64, 74
2, 98775, Note_on_c, 0, 66, 0
2, 98782, Control_c, 0, 64, 45
2, 98783, Note_on_c, 0, 72, 0
2, 98797, Control_c, 0, 64, 0
2, 98896, Control_c, 0, 64, 50
2, 98911, Control_c, 0, 64, 61
2, 98927, Control_c, 0, 64, 65
2, 98941, Control_c, 0, 64, 69
2, 98956, Control_c, 0, 64, 78
2, 98972, Control_c, 0, 64, 101
2, 98986, Control_c, 0, 64, 127
2, 99029, Note_on_c, 0, 73, 0
2, 99081, Note_on_c, 0, 75, 85
2, 99089, Note_on_c, 0, 72, 66
2, 99091, Note_on_c, 0, 45, 56
2, 99098, Note_on_c, 0, 46, 0
2, 99098, Note_on_c, 0, 65, 63
2, 99139, Control_c, 0, 64, 95
2, 99154, Control_c, 0, 64, 70
2, 99170, Control_c, 0, 64, 44
2, 99185, Control_c, 0, 64, 0
2, 99304, Note_on_c, 0, 70, 0
2, 99367, Control_c, 0, 64, 36
2, 99382, Control_c, 0, 64, 54
2, 99396, Control_c, 0, 64, 59
2, 99412, Control_c, 0, 64, 62
2, 99427, Control_c, 0, 64, 64
2, 99442, Control_c, 0, 64, 67
2, 99458, Control_c, 0, 64, 73
2, 99472, Control_c, 0, 64, 84
2, 99489, Control_c, 0, 64, 108
2, 99504, Control_c, 0, 64, 127
2, 99517, Note_on_c, 0, 75, 0
2, 99521, Note_on_c, 0, 72, 0
2, 99568, Note_on_c, 0, 65, 0
2, 99754, Note_on_c, 0, 73, 89
2, 99758, Note_on_c, 0, 65, 48
2, 99775, Note_on_c, 0, 41, 59
2, 99777, Note_on_c, 0, 70, 67
2, 99803, Note_on_c, 0, 45, 0
2, 99816, Control_c, 0, 64, 95
2, 99830, Control_c, 0, 64, 71
2, 99845, Control_c, 0, 64, 52
2, 99861, Control_c, 0, 64, 0
2, 100100, Note_on_c, 0, 72, 81
2, 100114, Note_on_c, 0, 69, 71
2, 100125, Note_on_c, 0, 70, 0
2, 100148, Note_on_c, 0, 65, 0
2, 100170, Note_on_c, 0, 73, 0
2, 100482, Note_on_c, 0, 73, 85
2, 100491, Note_on_c, 0, 70, 64
2, 100494, Note_on_c, 0, 65, 59
2, 100500, Note_on_c, 0, 46, 59
2, 100549, Note_on_c, 0, 69, 0
2, 100561, Note_on_c, 0, 72, 0
2, 100567, Note_on_c, 0, 41, 0
2, 100781, Control_c, 0, 64, 34
2, 100796, Control_c, 0, 64, 54
2, 100812, Control_c, 0, 64, 62
2, 100826, Control_c, 0, 64, 65
2, 100841, Control_c, 0, 64, 69
2, 100857, Control_c, 0, 64, 76
2, 100872, Control_c, 0, 64, 91
2, 100887, Control_c, 0, 64, 127
2, 101030, Note_on_c, 0, 46, 0
2, 101184, Note_on_c, 0, 46, 73
2, 101275, Control_c, 0, 64, 83
2, 101291, Control_c, 0, 64, 65
2, 101306, Control_c, 0, 64, 0
2, 101528, Note_on_c, 0, 44, 75
2, 101571, Note_on_c, 0, 46, 0
2, 101852, Note_on_c, 0, 65, 0
2, 101872, Note_on_c, 0, 70, 0
2, 101877, Note_on_c, 0, 42, 71
2, 101931, Note_on_c, 0, 44, 0
2, 102196, Control_c, 0, 64, 28
2, 102212, Control_c, 0, 64, 52
2, 102227, Control_c, 0, 64, 59
2, 102241, Control_c, 0, 64, 63
2, 102257, Control_c, 0, 64, 66
2, 102272, Control_c, 0, 64, 71
2, 102288, Control_c, 0, 64, 85
2, 102303, Control_c, 0, 64, 114
2, 102317, Control_c, 0, 64, 127
2, 102350, Note_on_c, 0, 42, 0
2, 102613, Note_on_c, 0, 70, 84
2, 102619, Note_on_c, 0, 42, 56
2, 102625, Note_on_c, 0, 65, 67
2, 102690, Control_c, 0, 64, 90
2, 102704, Control_c, 0, 64, 71
2, 102719, Control_c, 0, 64, 47
2, 102735, Control_c, 0, 64, 0
2, 102985, Note_on_c, 0, 41, 73
2, 103042, Note_on_c, 0, 42, 0
2, 103057, Note_on_c, 0, 65, 0
2, 103101, Control_c, 0, 64, 40
2, 103116, Control_c, 0, 64, 55
2, 103131, Control_c, 0, 64, 60
2, 103146, Control_c, 0, 64, 63
2, 103161, Control_c, 0, 64, 65
2, 103177, Control_c, 0, 64, 69
2, 103190, Note_on_c, 0, 70, 0
2, 103194, Control_c, 0, 64, 78
2, 103209, Control_c, 0, 64, 94
2, 103224, Control_c, 0, 64, 127
2, 103423, Note_on_c, 0, 66, 78
2, 103426, Note_on_c, 0, 70, 77
2, 103430, Note_on_c, 0, 39, 59
2, 103462, Note_on_c, 0, 41, 0
2, 103490, Control_c, 0, 64, 84
2, 103505, Control_c, 0, 64, 64
2, 103521, Control_c, 0, 64, 0
2, 103673, Control_c, 0, 64, 46
2, 103689, Control_c, 0, 64, 55
2, 103704, Control_c, 0, 64, 60
2, 103719, Control_c, 0, 64, 63
2, 103734, Control_c, 0, 64, 66
2, 103749, Control_c, 0, 64, 71
2, 103765, Control_c, 0, 64, 80
2, 103780, Control_c, 0, 64, 97
2, 103795, Control_c, 0, 64, 127
2, 103825, Note_on_c, 0, 39, 0
2, 103864, Note_on_c, 0, 73, 0
2, 104110, Note_on_c, 0, 39, 38
2, 104179, Note_on_c, 0, 78, 85
2, 104189, Control_c, 0, 64, 108
2, 104213, Control_c, 0, 64, 75
2, 104228, Control_c, 0, 64, 57
2, 104244, Control_c, 0, 64, 0
2, 104517, Control_c, 0, 64, 50
2, 104523, Note_on_c, 0, 77, 86
2, 104533, Control_c, 0, 64, 60
2, 104548, Control_c, 0, 64, 64
2, 104563, Control_c, 0, 64, 67
2, 104578, Control_c, 0, 64, 74
2, 104593, Control_c, 0, 64, 86
2, 104608, Note_on_c, 0, 78, 0
2, 104609, Control_c, 0, 64, 114
2, 104623, Control_c, 0, 64, 127
2, 104662, Note_on_c, 0, 39, 0
2, 104846, Note_on_c, 0, 77, 0
2, 104850, Note_on_c, 0, 75, 86
2, 104853, Note_on_c, 0, 39, 44
2, 104871, Note_on_c, 0, 66, 0
2, 104883, Control_c, 0, 64, 83
2, 104887, Note_on_c, 0, 70, 0
2, 104897, Control_c, 0, 64, 65
2, 104912, Control_c, 0, 64, 0
2, 105192, Control_c, 0, 64, 26
2, 105195, Note_on_c, 0, 73, 81
2, 105208, Control_c, 0, 64, 47
2, 105223, Control_c, 0, 64, 55
2, 105227, Note_on_c, 0, 75, 0
2, 105239, Control_c, 0, 64, 60
2, 105254, Control_c, 0, 64, 63
2, 105267, Note_on_c, 0, 39, 0
2, 105269, Control_c, 0, 64, 66
2, 105285, Control_c, 0, 64, 71
2, 105300, Control_c, 0, 64, 78
2, 105315, Control_c, 0, 64, 91
2, 105330, Control_c, 0, 64, 114
2, 105345, Control_c, 0, 64, 127
2, 105515, Note_on_c, 0, 72, 72
2, 105530, Note_on_c, 0, 66, 54
2, 105538, Note_on_c, 0, 39, 40
2, 105543, Control_c, 0, 64, 94
2, 105544, Note_on_c, 0, 63, 50
2, 105558, Control_c, 0, 64, 69
2, 105574, Control_c, 0, 64, 8
2, 105582, Note_on_c, 0, 73, 0
2, 105589, Control_c, 0, 64, 0
2, 105664, Control_c, 0, 64, 36
2, 105679, Control_c, 0, 64, 52
2, 105691, Note_on_c, 0, 63, 0
2, 105695, Control_c, 0, 64, 59
2, 105710, Control_c, 0, 64, 62
2, 105726, Control_c, 0, 64, 64
2, 105748, Control_c, 0, 64, 67
2, 105764, Control_c, 0, 64, 72
2, 105779, Control_c, 0, 64, 80
2, 105794, Control_c, 0, 64, 95
2, 105810, Control_c, 0, 64, 112
2, 105824, Control_c, 0, 64, 124
2, 105868, Note_on_c, 0, 70, 69
2, 105870, Control_c, 0, 64, 121
2, 105885, Control_c, 0, 64, 94
2, 105891, Note_on_c, 0, 61, 45
2, 105900, Control_c, 0, 64, 72
2, 105907, Note_on_c, 0, 72, 0
2, 105915, Control_c, 0, 64, 56
2, 105926, Note_on_c, 0, 66, 0
2, 105931, Control_c, 0, 64, 0
2, 105961, Control_c, 0, 64, 42
2, 105976, Control_c, 0, 64, 53
2, 105991, Control_c, 0, 64, 59
2, 106007, Control_c, 0, 64, 63
2, 106022, Control_c, 0, 64, 65
2, 106036, Control_c, 0, 64, 68
2, 106053, Control_c, 0, 64, 72
2, 106068, Control_c, 0, 64, 77
2, 106084, Control_c, 0, 64, 82
2, 106099, Control_c, 0, 64, 88
2, 106104, Note_on_c, 0, 61, 0
2, 106113, Control_c, 0, 64, 93
2, 106119, Note_on_c, 0, 70, 0
2, 106129, Control_c, 0, 64, 98
2, 106144, Control_c, 0, 64, 104
2, 106159, Control_c, 0, 64, 111
2, 106174, Control_c, 0, 64, 124
2, 106189, Control_c, 0, 64, 127
2, 106279, Note_on_c, 0, 69, 54
2, 106285, Note_on_c, 0, 60, 49
2, 106292, Note_on_c, 0, 41, 29
2, 106296, Control_c, 0, 64, 107
2, 106296, Note_on_c, 0, 39, 0
2, 106298, Note_on_c, 0, 65, 40
2, 106311, Control_c, 0, 64, 84
2, 106327, Control_c, 0, 64, 68
2, 106342, Control_c, 0, 64, 47
2, 106356, Control_c, 0, 64, 0
2, 106463, Control_c, 0, 64, 17
2, 106478, Control_c, 0, 64, 50
2, 106494, Control_c, 0, 64, 58
2, 106515, Control_c, 0, 64, 61
2, 106531, Control_c, 0, 64, 64
2, 106533, Note_on_c, 0, 65, 0
2, 106546, Control_c, 0, 64, 68
2, 106557, Note_on_c, 0, 41, 0
2, 106562, Control_c, 0, 64, 74
2, 106577, Control_c, 0, 64, 87
2, 106592, Control_c, 0, 64, 110
2, 106608, Control_c, 0, 64, 127
2, 106782, Note_on_c, 0, 60, 0
2, 107030, Note_on_c, 0, 65, 54
2, 107046, Note_on_c, 0, 57, 39
2, 107055, Note_on_c, 0, 53, 29
2, 107094, Note_on_c, 0, 69, 0
2, 107095, Control_c, 0, 64, 104
2, 107109, Control_c, 0, 64, 87
2, 107125, Control_c, 0, 64, 76
2, 107140, Control_c, 0, 64, 68
2, 107154, Control_c, 0, 64, 60
2, 107170, Control_c, 0, 64, 43
2, 107185, Control_c, 0, 64, 0
2, 107366, Note_on_c, 0, 67, 67
2, 107375, Note_on_c, 0, 58, 45
2, 107387, Note_on_c, 0, 53, 0
2, 107424, Note_on_c, 0, 57, 0
2, 107695, Note_on_c, 0, 65, 0
2, 107702, Note_on_c, 0, 69, 51
2, 107708, Note_on_c, 0, 67, 0
2, 107721, Note_on_c, 0, 60, 30
2, 107725, Note_on_c, 0, 58, 0
2, 107727, Note_on_c, 0, 53, 30
2, 107876, Control_c, 0, 64, 30
2, 107892, Control_c, 0, 64, 47
2, 107907, Control_c, 0, 64, 52
2, 107923, Control_c, 0, 64, 56
2, 107938, Control_c, 0, 64, 60
2, 107952, Control_c, 0, 64, 63
2, 107968, Control_c, 0, 64, 65
2, 107983, Control_c, 0, 64, 68
2, 107995, Note_on_c, 0, 69, 0
2, 107998, Control_c, 0, 64, 74
2, 108006, Note_on_c, 0, 53, 0
2, 108014, Control_c, 0, 64, 82
2, 108023, Note_on_c, 0, 60, 0
2, 108029, Control_c, 0, 64, 92
2, 108052, Control_c, 0, 64, 110
2, 108067, Control_c, 0, 64, 127
2, 108412, Note_on_c, 0, 69, 55
2, 108418, Note_on_c, 0, 63, 60
2, 108443, Note_on_c, 0, 53, 30
2, 108443, Note_on_c, 0, 60, 38
2, 108444, Note_on_c, 0, 65, 36
2, 108462, Control_c, 0, 64, 83
2, 108476, Control_c, 0, 64, 64
2, 108492, Control_c, 0, 64, 13
2, 108508, Control_c, 0, 64, 0
2, 108570, Control_c, 0, 64, 29
2, 108584, Control_c, 0, 64, 48
2, 108599, Control_c, 0, 64, 56
2, 108615, Control_c, 0, 64, 61
2, 108616, Note_on_c, 0, 65, 0
2, 108629, Note_on_c, 0, 53, 0
2, 108630, Control_c, 0, 64, 64
2, 108645, Control_c, 0, 64, 66
2, 108647, Note_on_c, 0, 69, 0
2, 108660, Control_c, 0, 64, 69
2, 108675, Control_c, 0, 64, 76
2, 108691, Control_c, 0, 64, 85
2, 108704, Note_on_c, 0, 60, 0
2, 108706, Control_c, 0, 64, 101
2, 108721, Control_c, 0, 64, 127
2, 108773, Note_on_c, 0, 63, 0
2, 109121, Note_on_c, 0, 69, 50
2, 109132, Note_on_c, 0, 61, 51
2, 109140, Note_on_c, 0, 58, 33
2, 109140, Note_on_c, 0, 65, 39
2, 109146, Note_on_c, 0, 53, 35
2, 109187, Control_c, 0, 64, 103
2, 109203, Control_c, 0, 64, 80
2, 109218, Control_c, 0, 64, 66
2, 109234, Control_c, 0, 64, 44
2, 109248, Control_c, 0, 64, 0
2, 109356, Control_c, 0, 64, 38
2, 109371, Control_c, 0, 64, 51
2, 109386, Control_c, 0, 64, 57
2, 109401, Control_c, 0, 64, 60
2, 109416, Control_c, 0, 64, 62
2, 109431, Control_c, 0, 64, 64
2, 109447, Control_c, 0, 64, 66
2, 109462, Control_c, 0, 64, 70
2, 109478, Control_c, 0, 64, 76
2, 109483, Note_on_c, 0, 53, 0
2, 109492, Control_c, 0, 64, 84
2, 109507, Control_c, 0, 64, 93
2, 109523, Control_c, 0, 64, 102
2, 109538, Control_c, 0, 64, 112
2, 109554, Control_c, 0, 64, 127
2, 109768, Note_on_c, 0, 69, 0
2, 109806, Note_on_c, 0, 67, 48
2, 109811, Note_on_c, 0, 65, 0
2, 109819, Control_c, 0, 64, 92
2, 109820, Note_on_c, 0, 64, 46
2, 109835, Control_c, 0, 64, 72
2, 109845, Note_on_c, 0, 53, 25
2, 109849, Control_c, 0, 64, 58
2, 109864, Control_c, 0, 64, 0
2, 109970, Control_c, 0, 64, 41
2, 109985, Control_c, 0, 64, 51
2, 110001, Control_c, 0, 64, 55
2, 110016, Control_c, 0, 64, 59
2, 110031, Control_c, 0, 64, 60
2, 110046, Control_c, 0, 64, 62
2, 110061, Control_c, 0, 64, 64
2, 110077, Control_c, 0, 64, 66
2, 110083, Note_on_c, 0, 53, 0
2, 110092, Control_c, 0, 64, 68
2, 110107, Control_c, 0, 64, 71
2, 110118, Note_on_c, 0, 69, 66
2, 110123, Control_c, 0, 64, 75
2, 110129, Note_on_c, 0, 65, 59
2, 110138, Control_c, 0, 64, 78
2, 110147, Note_on_c, 0, 67, 0
2, 110154, Control_c, 0, 64, 81
2, 110169, Control_c, 0, 64, 83
2, 110184, Control_c, 0, 64, 86
2, 110187, Note_on_c, 0, 64, 0
2, 110199, Control_c, 0, 64, 88
2, 110214, Control_c, 0, 64, 91
2, 110229, Control_c, 0, 64, 94
2, 110245, Control_c, 0, 64, 96
2, 110260, Control_c, 0, 64, 97
2, 110276, Control_c, 0, 64, 99
2, 110291, Control_c, 0, 64, 101
2, 110306, Control_c, 0, 64, 101
2, 110465, Control_c, 0, 64, 97
2, 110465, Note_on_c, 0, 69, 0
2, 110471, Note_on_c, 0, 67, 53
2, 110479, Note_on_c, 0, 70, 56
2, 110481, Control_c, 0, 64, 89
2, 110485, Note_on_c, 0, 65, 0
2, 110490, Note_on_c, 0, 53, 32
2, 110496, Control_c, 0, 64, 78
2, 110511, Control_c, 0, 64, 67
2, 110514, Note_on_c, 0, 58, 0
2, 110526, Control_c, 0, 64, 53
2, 110528, Note_on_c, 0, 61, 0
2, 110541, Control_c, 0, 64, 0
2, 110648, Control_c, 0, 64, 30
2, 110662, Control_c, 0, 64, 48
2, 110678, Control_c, 0, 64, 55
2, 110693, Control_c, 0, 64, 59
2, 110708, Control_c, 0, 64, 61
2, 110724, Control_c, 0, 64, 64
2, 110738, Control_c, 0, 64, 66
2, 110739, Note_on_c, 0, 67, 0
2, 110754, Control_c, 0, 64, 71
2, 110767, Note_on_c, 0, 53, 0
2, 110769, Control_c, 0, 64, 78
2, 110784, Control_c, 0, 64, 87
2, 110800, Control_c, 0, 64, 97
2, 110811, Note_on_c, 0, 70, 0
2, 110814, Control_c, 0, 64, 108
2, 110829, Control_c, 0, 64, 121
2, 110845, Control_c, 0, 64, 127
2, 111141, Note_on_c, 0, 70, 71
2, 111168, Note_on_c, 0, 61, 42
2, 111168, Note_on_c, 0, 67, 51
2, 111170, Note_on_c, 0, 64, 46
2, 111173, Note_on_c, 0, 53, 35
2, 111187, Control_c, 0, 64, 100
2, 111203, Control_c, 0, 64, 78
2, 111218, Control_c, 0, 64, 65
2, 111232, Control_c, 0, 64, 43
2, 111248, Control_c, 0, 64, 0
2, 111294, Control_c, 0, 64, 28
2, 111308, Control_c, 0, 64, 40
2, 111324, Control_c, 0, 64, 46
2, 111339, Control_c, 0, 64, 53
2, 111355, Control_c, 0, 64, 58
2, 111370, Control_c, 0, 64, 62
2, 111373, Note_on_c, 0, 53, 0
2, 111384, Control_c, 0, 64, 64
2, 111400, Control_c, 0, 64, 68
2, 111415, Control_c, 0, 64, 73
2, 111430, Control_c, 0, 64, 83
2, 111446, Control_c, 0, 64, 96
2, 111458, Note_on_c, 0, 61, 0
2, 111460, Control_c, 0, 64, 115
2, 111476, Control_c, 0, 64, 127
2, 111476, Note_on_c, 0, 70, 0
2, 111487, Note_on_c, 0, 67, 0
2, 111495, Note_on_c, 0, 64, 0
2, 111859, Note_on_c, 0, 70, 75
2, 111875, Note_on_c, 0, 60, 40
2, 111894, Note_on_c, 0, 64, 49
2, 111895, Note_on_c, 0, 67, 48
2, 111898, Note_on_c, 0, 53, 30
2, 111939, Control_c, 0, 64, 109
2, 111955, Control_c, 0, 64, 84
2, 111970, Control_c, 0, 64, 68
2, 111985, Control_c, 0, 64, 54
2, 112002, Control_c, 0, 64, 0
2, 112092, Control_c, 0, 64, 25
2, 112107, Control_c, 0, 64, 47
2, 112123, Control_c, 0, 64, 55
2, 112138, Control_c, 0, 64, 59
2, 112152, Control_c, 0, 64, 62
2, 112168, Control_c, 0, 64, 64
2, 112183, Control_c, 0, 64, 67
2, 112199, Control_c, 0, 64, 71
2, 112214, Control_c, 0, 64, 78
2, 112218, Note_on_c, 0, 53, 0
2, 112222, Note_on_c, 0, 60, 0
2, 112227, Note_on_c, 0, 64, 0
2, 112229, Control_c, 0, 64, 89
2, 112245, Control_c, 0, 64, 100
2, 112260, Control_c, 0, 64, 111
2, 112276, Control_c, 0, 64, 127
2, 112581, Note_on_c, 0, 70, 0
2, 112589, Note_on_c, 0, 69, 65
2, 112594, Control_c, 0, 64, 110
2, 112602, Note_on_c, 0, 60, 55
2, 112605, Note_on_c, 0, 65, 52
2, 112610, Control_c, 0, 64, 80
2, 112614, Note_on_c, 0, 53, 42
2, 112625, Control_c, 0, 64, 63
2, 112641, Control_c, 0, 64, 0
2, 112665, Note_on_c, 0, 67, 0
2, 112755, Control_c, 0, 64, 22
2, 112770, Control_c, 0, 64, 47
2, 112785, Control_c, 0, 64, 54
2, 112800, Control_c, 0, 64, 58
2, 112815, Control_c, 0, 64, 61
2, 112830, Control_c, 0, 64, 62
2, 112846, Control_c, 0, 64, 64
2, 112861, Control_c, 0, 64, 65
2, 112876, Control_c, 0, 64, 67
2, 112891, Control_c, 0, 64, 70
2, 112906, Control_c, 0, 64, 73
2, 112916, Note_on_c, 0, 53, 0
2, 112922, Control_c, 0, 64, 77
2, 112935, Note_on_c, 0, 70, 75
2, 112936, Control_c, 0, 64, 82
2, 112944, Note_on_c, 0, 61, 63
2, 112947, Note_on_c, 0, 60, 0
2, 112948, Note_on_c, 0, 67, 66
2, 112951, Control_c, 0, 64, 86
2, 112967, Control_c, 0, 64, 89
2, 112976, Note_on_c, 0, 69, 0
2, 112982, Control_c, 0, 64, 92
2, 112997, Control_c, 0, 64, 97
2, 113012, Control_c, 0, 64, 110
2, 113027, Control_c, 0, 64, 127
2, 113267, Note_on_c, 0, 61, 0
2, 113279, Note_on_c, 0, 70, 0
2, 113287, Note_on_c, 0, 69, 56
2, 113288, Note_on_c, 0, 72, 67
2, 113292, Note_on_c, 0, 63, 58
2, 113300, Note_on_c, 0, 67, 0
2, 113316, Note_on_c, 0, 53, 41
2, 113332, Control_c, 0, 64, 119
2, 113346, Control_c, 0, 64, 80
2, 113362, Control_c, 0, 64, 62
2, 113377, Control_c, 0, 64, 0
2, 113403, Note_on_c, 0, 65, 0
2, 113523, Control_c, 0, 64, 30
2, 113538, Control_c, 0, 64, 47
2, 113554, Control_c, 0, 64, 54
2, 113568, Control_c, 0, 64, 59
2, 113573, Note_on_c, 0, 69, 0
2, 113583, Control_c, 0, 64, 63
2, 113586, Note_on_c, 0, 53, 0
2, 113599, Control_c, 0, 64, 66
2, 113614, Control_c, 0, 64, 72
2, 113629, Control_c, 0, 64, 83
2, 113632, Note_on_c, 0, 72, 0
2, 113644, Control_c, 0, 64, 105
2, 113659, Control_c, 0, 64, 127
2, 113660, Note_on_c, 0, 63, 0
2, 113948, Note_on_c, 0, 72, 82
2, 113963, Note_on_c, 0, 63, 60
2, 113968, Note_on_c, 0, 69, 66
2, 113972, Note_on_c, 0, 53, 48
2, 113974, Note_on_c, 0, 65, 61
2, 113994, Control_c, 0, 64, 115
2, 114009, Control_c, 0, 64, 76
2, 114024, Control_c, 0, 64, 56
2, 114039, Control_c, 0, 64, 0
2, 114130, Control_c, 0, 64, 32
2, 114145, Control_c, 0, 64, 53
2, 114161, Control_c, 0, 64, 59
2, 114176, Control_c, 0, 64, 63
2, 114198, Control_c, 0, 64, 65
2, 114211, Note_on_c, 0, 53, 0
2, 114213, Control_c, 0, 64, 69
2, 114228, Control_c, 0, 64, 76
2, 114236, Note_on_c, 0, 65, 0
2, 114244, Control_c, 0, 64, 93
2, 114247, Note_on_c, 0, 63, 0
2, 114254, Note_on_c, 0, 69, 0
2, 114260, Control_c, 0, 64, 127
2, 114272, Note_on_c, 0, 72, 0
2, 114651, Note_on_c, 0, 72, 86
2, 114661, Note_on_c, 0, 65, 60
2, 114672, Note_on_c, 0, 69, 58
2, 114683, Note_on_c, 0, 61, 54
2, 114684, Note_on_c, 0, 53, 45
2, 114745, Control_c, 0, 64, 89
2, 114760, Control_c, 0, 64, 66
2, 114775, Control_c, 0, 64, 0
2, 114896, Control_c, 0, 64, 38
2, 114897, Note_on_c, 0, 53, 0
2, 114911, Control_c, 0, 64, 53
2, 114927, Control_c, 0, 64, 59
2, 114942, Control_c, 0, 64, 62
2, 114965, Control_c, 0, 64, 65
2, 114980, Control_c, 0, 64, 70
2, 114996, Control_c, 0, 64, 80
2, 115011, Control_c, 0, 64, 101
2, 115026, Control_c, 0, 64, 127
2, 115039, Note_on_c, 0, 61, 0
2, 115349, Note_on_c, 0, 70, 71
2, 115355, Note_on_c, 0, 61, 71
2, 115359, Note_on_c, 0, 67, 61
2, 115360, Note_on_c, 0, 69, 0
2, 115365, Note_on_c, 0, 72, 0
2, 115390, Note_on_c, 0, 53, 46
2, 115452, Control_c, 0, 64, 92
2, 115467, Control_c, 0, 64, 72
2, 115482, Control_c, 0, 64, 59
2, 115497, Control_c, 0, 64, 0
2, 115684, Note_on_c, 0, 60, 76
2, 115685, Note_on_c, 0, 72, 82
2, 115692, Note_on_c, 0, 69, 70
2, 115701, Note_on_c, 0, 67, 0
2, 115704, Note_on_c, 0, 53, 0
2, 115711, Note_on_c, 0, 61, 0
2, 115729, Note_on_c, 0, 70, 0
2, 116035, Note_on_c, 0, 60, 0
2, 116040, Note_on_c, 0, 73, 85
2, 116042, Note_on_c, 0, 58, 64
2, 116049, Note_on_c, 0, 65, 0
2, 116050, Note_on_c, 0, 53, 62
2, 116054, Note_on_c, 0, 70, 66
2, 116075, Note_on_c, 0, 72, 0
2, 116086, Note_on_c, 0, 69, 0
2, 116206, Control_c, 0, 64, 43
2, 116221, Control_c, 0, 64, 55
2, 116237, Control_c, 0, 64, 61
2, 116251, Control_c, 0, 64, 65
2, 116266, Control_c, 0, 64, 69
2, 116282, Control_c, 0, 64, 80
2, 116297, Control_c, 0, 64, 107
2, 116312, Control_c, 0, 64, 127
2, 116321, Note_on_c, 0, 53, 0
2, 116328, Note_on_c, 0, 58, 0
2, 116381, Note_on_c, 0, 70, 0
2, 116390, Note_on_c, 0, 73, 0
2, 116745, Note_on_c, 0, 73, 91
2, 116749, Note_on_c, 0, 58, 68
2, 116767, Note_on_c, 0, 65, 64
2, 116774, Note_on_c, 0, 53, 61
2, 116776, Note_on_c, 0, 70, 60
2, 116789, Control_c, 0, 64, 97
2, 116804, Control_c, 0, 64, 69
2, 116819, Control_c, 0, 64, 26
2, 116834, Control_c, 0, 64, 0
2, 116941, Control_c, 0, 64, 20
2, 116956, Control_c, 0, 64, 45
2, 116972, Control_c, 0, 64, 52
2, 116987, Control_c, 0, 64, 56
2, 117003, Control_c, 0, 64, 58
2, 117017, Control_c, 0, 64, 61
2, 117032, Control_c, 0, 64, 63
2, 117047, Note_on_c, 0, 65, 0
2, 117048, Control_c, 0, 64, 64
2, 117063, Control_c, 0, 64, 66
2, 117074, Note_on_c, 0, 56, 80
2, 117078, Control_c, 0, 64, 69
2, 117093, Control_c, 0, 64, 76
2, 117104, Note_on_c, 0, 53, 0
2, 117108, Control_c, 0, 64, 84
2, 117110, Note_on_c, 0, 58, 0
2, 117124, Control_c, 0, 64, 95
2, 117133, Note_on_c, 0, 73, 0
2, 117139, Control_c, 0, 64, 109
2, 117154, Control_c, 0, 64, 127
2, 117230, Note_on_c, 0, 70, 0
2, 117487, Note_on_c, 0, 73, 93
2, 117497, Note_on_c, 0, 70, 74
2, 117499, Note_on_c, 0, 54, 69
2, 117500, Note_on_c, 0, 53, 66
2, 117506, Note_on_c, 0, 66, 67
2, 117532, Note_on_c, 0, 56, 0
2, 117557, Control_c, 0, 64, 100
2, 117573, Control_c, 0, 64, 76
2, 117588, Control_c, 0, 64, 60
2, 117603, Control_c, 0, 64, 0
2, 117724, Control_c, 0, 64, 42
2, 117739, Control_c, 0, 64, 53
2, 117754, Control_c, 0, 64, 57
2, 117770, Control_c, 0, 64, 60
2, 117785, Control_c, 0, 64, 63
2, 117801, Control_c, 0, 64, 65
2, 117812, Note_on_c, 0, 53, 0
2, 117816, Control_c, 0, 64, 69
2, 117826, Note_on_c, 0, 70, 0
2, 117831, Control_c, 0, 64, 77
2, 117846, Control_c, 0, 64, 89
2, 117861, Control_c, 0, 64, 112
2, 117876, Control_c, 0, 64, 127
2, 117989, Note_on_c, 0, 73, 0
2, 117997, Note_on_c, 0, 54, 0
2, 118150, Note_on_c, 0, 66, 0
2, 118222, Note_on_c, 0, 72, 83
2, 118230, Note_on_c, 0, 54, 65
2, 118235, Note_on_c, 0, 66, 55
2, 118236, Note_on_c, 0, 69, 65
2, 118238, Note_on_c, 0, 51, 63
2, 118262, Control_c, 0, 64, 77
2, 118277, Control_c, 0, 64, 58
2, 118293, Control_c, 0, 64, 0
2, 118370, Control_c, 0, 64, 44
2, 118385, Control_c, 0, 64, 56
2, 118394, Note_on_c, 0, 69, 0
2, 118401, Control_c, 0, 64, 62
2, 118416, Control_c, 0, 64, 64
2, 118431, Control_c, 0, 64, 67
2, 118446, Control_c, 0, 64, 71
2, 118461, Control_c, 0, 64, 80
2, 118476, Control_c, 0, 64, 92
2, 118492, Control_c, 0, 64, 110
2, 118507, Control_c, 0, 64, 127
2, 118551, Note_on_c, 0, 73, 89
2, 118555, Note_on_c, 0, 53, 72
2, 118561, Note_on_c, 0, 51, 0
2, 118562, Note_on_c, 0, 70, 76
2, 118563, Note_on_c, 0, 49, 58
2, 118598, Control_c, 0, 64, 95
2, 118602, Note_on_c, 0, 66, 0
2, 118614, Control_c, 0, 64, 70
2, 118629, Control_c, 0, 64, 42
2, 118644, Control_c, 0, 64, 0
2, 118649, Note_on_c, 0, 72, 0
2, 118704, Control_c, 0, 64, 32
2, 118719, Control_c, 0, 64, 54
2, 118726, Note_on_c, 0, 70, 0
2, 118735, Control_c, 0, 64, 62
2, 118750, Control_c, 0, 64, 67
2, 118750, Note_on_c, 0, 54, 0
2, 118765, Control_c, 0, 64, 75
2, 118780, Control_c, 0, 64, 94
2, 118804, Control_c, 0, 64, 127
2, 118890, Note_on_c, 0, 49, 0
2, 118911, Note_on_c, 0, 75, 92
2, 118921, Note_on_c, 0, 72, 63
2, 118924, Note_on_c, 0, 54, 63
2, 118929, Note_on_c, 0, 51, 61
2, 118930, Note_on_c, 0, 69, 71
2, 118931, Note_on_c, 0, 66, 70
2, 118937, Note_on_c, 0, 48, 60
2, 118953, Note_on_c, 0, 73, 0
2, 118984, Note_on_c, 0, 53, 0
2, 119002, Control_c, 0, 64, 91
2, 119017, Control_c, 0, 64, 68
2, 119031, Control_c, 0, 64, 39
2, 119047, Control_c, 0, 64, 0
2, 119201, Control_c, 0, 64, 38
2, 119215, Control_c, 0, 64, 51
2, 119230, Control_c, 0, 64, 57
2, 119246, Control_c, 0, 64, 61
2, 119261, Control_c, 0, 64, 64
2, 119276, Control_c, 0, 64, 67
2, 119291, Control_c, 0, 64, 72
2, 119306, Control_c, 0, 64, 83
2, 119322, Control_c, 0, 64, 124
2, 119336, Control_c, 0, 64, 127
2, 119370, Note_on_c, 0, 75, 0
2, 119376, Note_on_c, 0, 69, 0
2, 119397, Note_on_c, 0, 72, 0
2, 119399, Note_on_c, 0, 48, 0
2, 119414, Note_on_c, 0, 54, 0
2, 119424, Note_on_c, 0, 66, 0
2, 119426, Note_on_c, 0, 51, 0
2, 119669, Note_on_c, 0, 75, 95
2, 119674, Note_on_c, 0, 54, 66
2, 119687, Note_on_c, 0, 69, 74
2, 119689, Note_on_c, 0, 51, 59
2, 119691, Note_on_c, 0, 66, 72
2, 119693, Note_on_c, 0, 48, 64
2, 119694, Note_on_c, 0, 72, 66
2, 119708, Control_c, 0, 64, 78
2, 119724, Control_c, 0, 64, 58
2, 119739, Control_c, 0, 64, 0
2, 119776, Note_on_c, 0, 72, 0
2, 119799, Control_c, 0, 64, 35
2, 119815, Control_c, 0, 64, 58
2, 119822, Note_on_c, 0, 51, 0
2, 119830, Control_c, 0, 64, 65
2, 119844, Note_on_c, 0, 48, 0
2, 119846, Control_c, 0, 64, 76
2, 119861, Control_c, 0, 64, 99
2, 119875, Control_c, 0, 64, 127
2, 120078, Note_on_c, 0, 77, 93
2, 120081, Note_on_c, 0, 73, 69
2, 120083, Note_on_c, 0, 75, 0
2, 120087, Note_on_c, 0, 69, 0
2, 120087, Note_on_c, 0, 69, 13
2, 120095, Note_on_c, 0, 49, 66
2, 120097, Note_on_c, 0, 46, 67
2, 120135, Control_c, 0, 64, 92
2, 120150, Control_c, 0, 64, 65
2, 120166, Control_c, 0, 64, 0
2, 120256, Control_c, 0, 64, 22
2, 120271, Control_c, 0, 64, 57
2, 120286, Note_on_c, 0, 46, 0
2, 120287, Control_c, 0, 64, 64
2, 120302, Control_c, 0, 64, 68
2, 120302, Note_on_c, 0, 49, 0
2, 120316, Control_c, 0, 64, 73
2, 120340, Control_c, 0, 64, 81
2, 120354, Note_on_c, 0, 73, 0
2, 120355, Control_c, 0, 64, 92
2, 120361, Note_on_c, 0, 54, 0
2, 120361, Note_on_c, 0, 66, 0
2, 120361, Note_on_c, 0, 77, 0
2, 120371, Control_c, 0, 64, 116
2, 120386, Control_c, 0, 64, 127
2, 120409, Note_on_c, 0, 69, 0
2, 120651, Note_on_c, 0, 78, 88
2, 120671, Note_on_c, 0, 75, 77
2, 120676, Note_on_c, 0, 69, 60
2, 120679, Note_on_c, 0, 66, 65
2, 120680, Note_on_c, 0, 54, 62
2, 120683, Note_on_c, 0, 45, 56
2, 120689, Note_on_c, 0, 51, 53
2, 120690, Note_on_c, 0, 72, 57
2, 120693, Note_on_c, 0, 48, 52
2, 120783, Control_c, 0, 64, 97
2, 120799, Control_c, 0, 64, 74
2, 120814, Control_c, 0, 64, 62
2, 120829, Control_c, 0, 64, 0
2, 121689, Control_c, 0, 64, 13
2, 121704, Control_c, 0, 64, 34
2, 121720, Control_c, 0, 64, 43
2, 121734, Control_c, 0, 64, 47
2, 121749, Control_c, 0, 64, 52
2, 121765, Control_c, 0, 64, 54
2, 121780, Control_c, 0, 64, 57
2, 121795, Control_c, 0, 64, 59
2, 121810, Control_c, 0, 64, 61
2, 121825, Control_c, 0, 64, 62
2, 121841, Control_c, 0, 64, 63
2, 121856, Control_c, 0, 64, 65
2, 121879, Control_c, 0, 64, 66
2, 121893, Control_c, 0, 64, 67
2, 121908, Control_c, 0, 64, 68
2, 121924, Control_c, 0, 64, 70
2, 121939, Control_c, 0, 64, 71
2, 121955, Control_c, 0, 64, 72
2, 121970, Control_c, 0, 64, 73
2, 121985, Control_c, 0, 64, 73
2, 122106, Control_c, 0, 64, 73
2, 122122, Control_c, 0, 64, 72
2, 122137, Control_c, 0, 64, 71
2, 122152, Control_c, 0, 64, 70
2, 122167, Control_c, 0, 64, 70
2, 122182, Control_c, 0, 64, 69
2, 122198, Control_c, 0, 64, 68
2, 122212, Control_c, 0, 64, 67
2, 122227, Control_c, 0, 64, 65
2, 122243, Control_c, 0, 64, 63
2, 122258, Control_c, 0, 64, 61
2, 122274, Control_c, 0, 64, 59
2, 122288, Control_c, 0, 64, 57
2, 122303, Control_c, 0, 64, 54
2, 122319, Control_c, 0, 64, 51
2, 122334, Control_c, 0, 64, 47
2, 122349, Control_c, 0, 64, 41
2, 122364, Control_c, 0, 64, 30
2, 122379, Control_c, 0, 64, 0
2, 122754, Note_on_c, 0, 72, 0
2, 122864, Note_on_c, 0, 54, 0
2, 122896, Note_on_c, 0, 75, 0
2, 122902, Note_on_c, 0, 48, 0
2, 122909, Note_on_c, 0, 69, 0
2, 122938, Note_on_c, 0, 66, 0
2, 122986, Note_on_c, 0, 45, 0
2, 123017, Note_on_c, 0, 51, 0
2, 123097, Note_on_c, 0, 78, 0
2, 123642, Control_c, 0, 64, 30
2, 123657, Control_c, 0, 64, 42
2, 123672, Control_c, 0, 64, 47
2, 123687, Control_c, 0, 64, 51
2, 123702, Control_c, 0, 64, 54
2, 123718, Control_c, 0, 64, 57
2, 123733, Control_c, 0, 64, 60
2, 123748, Control_c, 0, 64, 62
2, 123764, Control_c, 0, 64, 64
2, 123778, Control_c, 0, 64, 65
2, 123794, Control_c, 0, 64, 67
2, 123809, Control_c, 0, 64, 69
2, 123824, Control_c, 0, 64, 72
2, 123840, Control_c, 0, 64, 75
2, 123854, Control_c, 0, 64, 77
2, 123858, Note_on_c, 0, 77, 72
2, 123869, Control_c, 0, 64, 80
2, 123875, Note_on_c, 0, 57, 34
2, 123882, Note_on_c, 0, 72, 49
2, 123885, Control_c, 0, 64, 82
2, 123887, Note_on_c, 0, 65, 36
2, 123899, Control_c, 0, 64, 84
2, 123915, Control_c, 0, 64, 86
2, 123930, Control_c, 0, 64, 87
2, 123945, Control_c, 0, 64, 88
2, 123961, Control_c, 0, 64, 89
2, 123975, Control_c, 0, 64, 90
2, 123990, Control_c, 0, 64, 90
2, 124006, Control_c, 0, 64, 91
2, 124021, Control_c, 0, 64, 91
2, 124037, Control_c, 0, 64, 92
2, 124052, Control_c, 0, 64, 92
2, 124067, Control_c, 0, 64, 94
2, 124083, Control_c, 0, 64, 95
2, 124098, Control_c, 0, 64, 97
2, 124114, Control_c, 0, 64, 100
2, 124128, Control_c, 0, 64, 104
2, 124143, Control_c, 0, 64, 108
2, 124159, Control_c, 0, 64, 110
2, 124163, Note_on_c, 0, 65, 0
2, 124182, Control_c, 0, 64, 112
2, 124198, Control_c, 0, 64, 113
2, 124200, Note_on_c, 0, 57, 0
2, 124212, Control_c, 0, 64, 114
2, 124621, Note_on_c, 0, 73, 83
2, 124627, Note_on_c, 0, 77, 0
2, 124638, Note_on_c, 0, 65, 32
2, 124645, Note_on_c, 0, 58, 38
2, 124652, Control_c, 0, 64, 113
2, 124660, Note_on_c, 0, 70, 47
2, 124667, Control_c, 0, 64, 106
2, 124680, Note_on_c, 0, 72, 0
2, 124683, Control_c, 0, 64, 94
2, 124697, Control_c, 0, 64, 77
2, 124712, Control_c, 0, 64, 65
2, 124728, Control_c, 0, 64, 33
2, 124743, Control_c, 0, 64, 0
2, 124835, Control_c, 0, 64, 26
2, 124850, Control_c, 0, 64, 51
2, 124864, Control_c, 0, 64, 59
2, 124880, Control_c, 0, 64, 63
2, 124896, Control_c, 0, 64, 66
2, 124908, Note_on_c, 0, 65, 0
2, 124911, Control_c, 0, 64, 73
2, 124926, Control_c, 0, 64, 85
2, 124949, Control_c, 0, 64, 111
2, 124965, Control_c, 0, 64, 127
2, 124978, Note_on_c, 0, 58, 0
2, 124988, Note_on_c, 0, 70, 0
2, 125362, Note_on_c, 0, 75, 74
2, 125382, Note_on_c, 0, 58, 47
2, 125382, Note_on_c, 0, 70, 54
2, 125382, Note_on_c, 0, 73, 0
2, 125397, Note_on_c, 0, 54, 38
2, 125420, Control_c, 0, 64, 114
2, 125436, Control_c, 0, 64, 85
2, 125450, Control_c, 0, 64, 68
2, 125465, Control_c, 0, 64, 54
2, 125481, Control_c, 0, 64, 0
2, 125714, Note_on_c, 0, 72, 82
2, 125717, Note_on_c, 0, 51, 43
2, 125731, Note_on_c, 0, 66, 52
2, 125736, Note_on_c, 0, 54, 0
2, 125749, Note_on_c, 0, 75, 0
2, 125809, Control_c, 0, 64, 13
2, 125824, Control_c, 0, 64, 51
2, 125825, Note_on_c, 0, 70, 0
2, 125840, Control_c, 0, 64, 59
2, 125855, Control_c, 0, 64, 63
2, 125870, Control_c, 0, 64, 67
2, 125886, Control_c, 0, 64, 73
2, 125900, Control_c, 0, 64, 84
2, 125916, Control_c, 0, 64, 102
2, 125924, Note_on_c, 0, 66, 0
2, 125931, Control_c, 0, 64, 127
2, 125942, Note_on_c, 0, 51, 0
2, 126009, Note_on_c, 0, 58, 0
2, 126013, Note_on_c, 0, 72, 0
2, 126059, Note_on_c, 0, 73, 78
2, 126087, Note_on_c, 0, 70, 51
2, 126091, Note_on_c, 0, 53, 44
2, 126093, Note_on_c, 0, 65, 55
2, 126128, Control_c, 0, 64, 94
2, 126143, Control_c, 0, 64, 71
2, 126159, Control_c, 0, 64, 52
2, 126174, Control_c, 0, 64, 0
2, 126296, Control_c, 0, 64, 22
2, 126310, Control_c, 0, 64, 43
2, 126326, Control_c, 0, 64, 52
2, 126341, Control_c, 0, 64, 57
2, 126356, Control_c, 0, 64, 60
2, 126366, Note_on_c, 0, 65, 0
2, 126371, Control_c, 0, 64, 63
2, 126386, Control_c, 0, 64, 65
2, 126402, Control_c, 0, 64, 69
2, 126417, Control_c, 0, 64, 75
2, 126431, Control_c, 0, 64, 83
2, 126447, Control_c, 0, 64, 94
2, 126462, Control_c, 0, 64, 106
2, 126486, Control_c, 0, 64, 121
2, 126501, Control_c, 0, 64, 127
2, 126794, Note_on_c, 0, 72, 72
2, 126812, Note_on_c, 0, 70, 0
2, 126819, Note_on_c, 0, 41, 35
2, 126821, Note_on_c, 0, 63, 46
2, 126826, Note_on_c, 0, 69, 45
2, 126865, Control_c, 0, 64, 119
2, 126881, Control_c, 0, 64, 96
2, 126896, Control_c, 0, 64, 81
2, 126896, Note_on_c, 0, 73, 0
2, 126911, Control_c, 0, 64, 67
2, 126927, Control_c, 0, 64, 34
2, 126941, Control_c, 0, 64, 0
2, 127125, Control_c, 0, 64, 29
2, 127140, Control_c, 0, 64, 48
2, 127143, Note_on_c, 0, 70, 68
2, 127155, Control_c, 0, 64, 55
2, 127160, Note_on_c, 0, 72, 0
2, 127170, Control_c, 0, 64, 60
2, 127185, Control_c, 0, 64, 63
2, 127200, Control_c, 0, 64, 65
2, 127206, Note_on_c, 0, 69, 0
2, 127215, Control_c, 0, 64, 68
2, 127230, Control_c, 0, 64, 73
2, 127253, Control_c, 0, 64, 82
2, 127268, Control_c, 0, 64, 92
2, 127284, Control_c, 0, 64, 106
2, 127299, Control_c, 0, 64, 127
2, 127322, Note_on_c, 0, 70, 0
2, 127369, Note_on_c, 0, 63, 0
2, 127473, Note_on_c, 0, 46, 34
2, 127488, Note_on_c, 0, 41, 0
2, 127556, Note_on_c, 0, 70, 73
2, 127580, Note_on_c, 0, 62, 47
2, 127649, Control_c, 0, 64, 96
2, 127664, Control_c, 0, 64, 72
2, 127680, Control_c, 0, 64, 58
2, 127695, Control_c, 0, 64, 0
2, 127816, Control_c, 0, 64, 23
2, 127831, Control_c, 0, 64, 47
2, 127846, Control_c, 0, 64, 55
2, 127861, Control_c, 0, 64, 59
2, 127877, Control_c, 0, 64, 62
2, 127892, Control_c, 0, 64, 65
2, 127907, Control_c, 0, 64, 68
2, 127920, Note_on_c, 0, 53, 0
2, 127923, Control_c, 0, 64, 74
2, 127938, Control_c, 0, 64, 84
2, 127953, Control_c, 0, 64, 96
2, 127960, Note_on_c, 0, 46, 0
2, 127968, Control_c, 0, 64, 115
2, 127983, Control_c, 0, 64, 127
2, 127985, Note_on_c, 0, 62, 0
2, 128256, Note_on_c, 0, 65, 65
2, 128271, Note_on_c, 0, 62, 50
2, 128281, Control_c, 0, 64, 81
2, 128281, Note_on_c, 0, 53, 40
2, 128295, Control_c, 0, 64, 63
2, 128299, Note_on_c, 0, 46, 19
2, 128310, Control_c, 0, 64, 0
2, 128412, Note_on_c, 0, 62, 0
2, 128418, Control_c, 0, 64, 48
2, 128432, Control_c, 0, 64, 58
2, 128448, Control_c, 0, 64, 62
2, 128463, Control_c, 0, 64, 64
2, 128478, Control_c, 0, 64, 67
2, 128493, Control_c, 0, 64, 72
2, 128508, Control_c, 0, 64, 80
2, 128524, Control_c, 0, 64, 90
2, 128539, Control_c, 0, 64, 99
2, 128553, Control_c, 0, 64, 106
2, 128569, Control_c, 0, 64, 108
2, 128590, Note_on_c, 0, 66, 81
2, 128610, Note_on_c, 0, 51, 56
2, 128610, Note_on_c, 0, 63, 59
2, 128621, Note_on_c, 0, 65, 0
2, 128629, Control_c, 0, 64, 106
2, 128645, Control_c, 0, 64, 90
2, 128660, Control_c, 0, 64, 72
2, 128676, Control_c, 0, 64, 55
2, 128684, Note_on_c, 0, 46, 0
2, 128690, Control_c, 0, 64, 0
2, 128721, Note_on_c, 0, 53, 0
2, 128751, Control_c, 0, 64, 29
2, 128766, Control_c, 0, 64, 50
2, 128789, Control_c, 0, 64, 58
2, 128805, Control_c, 0, 64, 62
2, 128820, Control_c, 0, 64, 64
2, 128836, Control_c, 0, 64, 66
2, 128850, Control_c, 0, 64, 69
2, 128865, Control_c, 0, 64, 70
2, 128920, Note_on_c, 0, 70, 0
2, 128923, Note_on_c, 0, 63, 0
2, 128926, Control_c, 0, 64, 69
2, 128934, Note_on_c, 0, 70, 38
2, 128941, Control_c, 0, 64, 67
2, 128946, Note_on_c, 0, 68, 75
2, 128957, Control_c, 0, 64, 64
2, 128959, Note_on_c, 0, 50, 55
2, 128964, Note_on_c, 0, 46, 48
2, 128965, Note_on_c, 0, 65, 46
2, 128971, Control_c, 0, 64, 60
2, 128986, Control_c, 0, 64, 45
2, 128987, Note_on_c, 0, 51, 0
2, 129000, Note_on_c, 0, 66, 0
2, 129003, Control_c, 0, 64, 0
2, 129231, Control_c, 0, 64, 28
2, 129246, Control_c, 0, 64, 49
2, 129261, Control_c, 0, 64, 54
2, 129267, Note_on_c, 0, 48, 65
2, 129277, Control_c, 0, 64, 56
2, 129292, Control_c, 0, 64, 59
2, 129294, Note_on_c, 0, 50, 0
2, 129307, Control_c, 0, 64, 61
2, 129322, Control_c, 0, 64, 63
2, 129337, Control_c, 0, 64, 65
2, 129344, Note_on_c, 0, 46, 0
2, 129350, Note_on_c, 0, 68, 0
2, 129351, Note_on_c, 0, 65, 0
2, 129352, Control_c, 0, 64, 67
2, 129368, Control_c, 0, 64, 72
2, 129383, Control_c, 0, 64, 79
2, 129398, Control_c, 0, 64, 88
2, 129413, Control_c, 0, 64, 100
2, 129428, Control_c, 0, 64, 117
2, 129444, Control_c, 0, 64, 127
2, 129616, Note_on_c, 0, 68, 73
2, 129620, Note_on_c, 0, 48, 0
2, 129625, Note_on_c, 0, 51, 58
2, 129629, Note_on_c, 0, 46, 44
2, 129635, Note_on_c, 0, 65, 57
2, 129649, Control_c, 0, 64, 103
2, 129664, Control_c, 0, 64, 84
2, 129680, Control_c, 0, 64, 67
2, 129694, Control_c, 0, 64, 47
2, 129709, Control_c, 0, 64, 0
2, 129953, Control_c, 0, 64, 32
2, 129967, Note_on_c, 0, 51, 0
2, 129968, Control_c, 0, 64, 51
2, 129978, Note_on_c, 0, 50, 50
2, 129983, Control_c, 0, 64, 57
2, 129999, Control_c, 0, 64, 61
2, 130014, Control_c, 0, 64, 63
2, 130029, Control_c, 0, 64, 65
2, 130030, Note_on_c, 0, 65, 0
2, 130045, Control_c, 0, 64, 68
2, 130055, Note_on_c, 0, 68, 0
2, 130059, Control_c, 0, 64, 72
2, 130075, Control_c, 0, 64, 78
2, 130090, Control_c, 0, 64, 87
2, 130105, Control_c, 0, 64, 100
2, 130118, Note_on_c, 0, 46, 0
2, 130121, Control_c, 0, 64, 119
2, 130124, Note_on_c, 0, 50, 0
2, 130136, Control_c, 0, 64, 127
2, 130349, Note_on_c, 0, 68, 76
2, 130375, Note_on_c, 0, 65, 50
2, 130392, Note_on_c, 0, 46, 34
2, 130410, Note_on_c, 0, 50, 43
2, 130432, Control_c, 0, 64, 119
2, 130448, Control_c, 0, 64, 95
2, 130462, Control_c, 0, 64, 78
2, 130478, Control_c, 0, 64, 65
2, 130493, Control_c, 0, 64, 33
2, 130508, Control_c, 0, 64, 0
2, 130630, Control_c, 0, 64, 50
2, 130646, Control_c, 0, 64, 58
2, 130661, Control_c, 0, 64, 61
2, 130677, Control_c, 0, 64, 63
2, 130691, Control_c, 0, 64, 65
2, 130701, Note_on_c, 0, 46, 0
2, 130706, Control_c, 0, 64, 68
2, 130722, Control_c, 0, 64, 73
2, 130737, Control_c, 0, 64, 82
2, 130752, Control_c, 0, 64, 91
2, 130767, Control_c, 0, 64, 100
2, 130782, Control_c, 0, 64, 106
2, 130798, Control_c, 0, 64, 111
2, 130812, Control_c, 0, 64, 121
2, 130827, Control_c, 0, 64, 127
2, 130855, Note_on_c, 0, 50, 0
2, 131129, Note_on_c, 0, 68, 0
2, 131164, Note_on_c, 0, 66, 57
2, 131169, Note_on_c, 0, 51, 48
2, 131178, Note_on_c, 0, 63, 43
2, 131181, Note_on_c, 0, 46, 41
2, 131188, Note_on_c, 0, 65, 0
2, 131200, Control_c, 0, 64, 109
2, 131215, Control_c, 0, 64, 95
2, 131230, Control_c, 0, 64, 84
2, 131246, Control_c, 0, 64, 73
2, 131261, Control_c, 0, 64, 64
2, 131277, Control_c, 0, 64, 50
2, 131291, Control_c, 0, 64, 0
2, 131542, Note_on_c, 0, 53, 62
2, 131601, Note_on_c, 0, 51, 0
2, 131613, Note_on_c, 0, 46, 0
2, 131985, Note_on_c, 0, 54, 61
2, 132001, Note_on_c, 0, 46, 34
2, 132023, Note_on_c, 0, 53, 0
2, 132150, Control_c, 0, 64, 20
2, 132166, Control_c, 0, 64, 45
2, 132181, Control_c, 0, 64, 52
2, 132197, Control_c, 0, 64, 57
2, 132211, Control_c, 0, 64, 60
2, 132226, Control_c, 0, 64, 63
2, 132242, Control_c, 0, 64, 65
2, 132257, Control_c, 0, 64, 67
2, 132273, Control_c, 0, 64, 71
2, 132288, Control_c, 0, 64, 77
2, 132296, Note_on_c, 0, 46, 0
2, 132303, Control_c, 0, 64, 84
2, 132319, Control_c, 0, 64, 92
2, 132334, Control_c, 0, 64, 97
2, 132344, Note_on_c, 0, 66, 0
2, 132349, Control_c, 0, 64, 100
2, 132365, Control_c, 0, 64, 101
2, 132375, Note_on_c, 0, 63, 0
2, 132379, Control_c, 0, 64, 102
2, 132395, Control_c, 0, 64, 105
2, 132410, Control_c, 0, 64, 108
2, 132425, Control_c, 0, 64, 115
2, 132441, Control_c, 0, 64, 121
2, 132442, Note_on_c, 0, 54, 0
2, 132455, Control_c, 0, 64, 127
2, 132949, Note_on_c, 0, 65, 47
2, 132965, Note_on_c, 0, 54, 58
2, 132965, Note_on_c, 0, 62, 45
2, 132986, Note_on_c, 0, 46, 33
2, 132992, Control_c, 0, 64, 117
2, 133008, Control_c, 0, 64, 108
2, 133023, Control_c, 0, 64, 100
2, 133037, Control_c, 0, 64, 93
2, 133053, Control_c, 0, 64, 85
2, 133068, Control_c, 0, 64, 79
2, 133085, Control_c, 0, 64, 73
2, 133099, Control_c, 0, 64, 69
2, 133114, Control_c, 0, 64, 65
2, 133130, Control_c, 0, 64, 62
2, 133145, Control_c, 0, 64, 57
2, 133160, Control_c, 0, 64, 51
2, 133176, Control_c, 0, 64, 45
2, 133191, Control_c, 0, 64, 33
2, 133207, Control_c, 0, 64, 0
2, 133473, Note_on_c, 0, 63, 49
2, 133475, Note_on_c, 0, 60, 44
2, 133484, Note_on_c, 0, 62, 0
2, 133577, Control_c, 0, 64, 36
2, 133577, Note_on_c, 0, 65, 0
2, 133592, Control_c, 0, 64, 48
2, 133608, Control_c, 0, 64, 53
2, 133622, Control_c, 0, 64, 56
2, 133637, Control_c, 0, 64, 58
2, 133650, Note_on_c, 0, 46, 0
2, 133653, Control_c, 0, 64, 61
2, 133668, Control_c, 0, 64, 63
2, 133684, Control_c, 0, 64, 64
2, 133699, Control_c, 0, 64, 66
2, 133714, Control_c, 0, 64, 68
2, 133729, Control_c, 0, 64, 72
2, 133744, Control_c, 0, 64, 77
2, 133759, Control_c, 0, 64, 82
2, 133775, Control_c, 0, 64, 89
2, 133790, Control_c, 0, 64, 96
2, 133806, Control_c, 0, 64, 105
2, 133821, Control_c, 0, 64, 114
2, 133835, Control_c, 0, 64, 127
2, 134194, Note_on_c, 0, 65, 43
2, 134195, Note_on_c, 0, 53, 39
2, 134203, Note_on_c, 0, 62, 39
2, 134208, Note_on_c, 0, 46, 33
2, 134221, Note_on_c, 0, 60, 0
2, 134269, Control_c, 0, 64, 121
2, 134285, Control_c, 0, 64, 104
2, 134292, Note_on_c, 0, 54, 0
2, 134300, Control_c, 0, 64, 93
2, 134309, Note_on_c, 0, 63, 0
2, 134314, Control_c, 0, 64, 83
2, 134330, Control_c, 0, 64, 73
2, 134345, Control_c, 0, 64, 66
2, 134360, Control_c, 0, 64, 58
2, 134376, Control_c, 0, 64, 36
2, 134390, Control_c, 0, 64, 0
2, 135493, Control_c, 0, 64, 13
2, 135508, Control_c, 0, 64, 26
2, 135523, Control_c, 0, 64, 32
2, 135539, Control_c, 0, 64, 36
2, 135554, Control_c, 0, 64, 39
2, 135570, Control_c, 0, 64, 41
2, 135585, Control_c, 0, 64, 43
2, 135600, Control_c, 0, 64, 45
2, 135615, Control_c, 0, 64, 47
2, 135630, Control_c, 0, 64, 49
2, 135646, Control_c, 0, 64, 51
2, 135661, Control_c, 0, 64, 52
2, 135675, Control_c, 0, 64, 53
2, 135698, Control_c, 0, 64, 55
2, 135713, Control_c, 0, 64, 56
2, 135729, Control_c, 0, 64, 57
2, 135744, Control_c, 0, 64, 58
2, 135759, Control_c, 0, 64, 59
2, 135775, Control_c, 0, 64, 59
2, 135790, Control_c, 0, 64, 60
2, 135806, Control_c, 0, 64, 61
2, 135821, Control_c, 0, 64, 61
2, 135835, Control_c, 0, 64, 62
2, 135851, Control_c, 0, 64, 62
2, 135866, Control_c, 0, 64, 63
2, 135882, Control_c, 0, 64, 63
2, 135897, Control_c, 0, 64, 64
2, 135928, Control_c, 0, 64, 64
2, 135943, Control_c, 0, 64, 65
2, 135957, Control_c, 0, 64, 65
2, 135973, Control_c, 0, 64, 66
2, 135988, Control_c, 0, 64, 66
2, 136003, Control_c, 0, 64, 67
2, 136018, Control_c, 0, 64, 68
2, 136033, Control_c, 0, 64, 68
2, 136049, Control_c, 0, 64, 69
2, 136064, Control_c, 0, 64, 70
2, 136078, Control_c, 0, 64, 72
2, 136094, Control_c, 0, 64, 73
2, 136109, Control_c, 0, 64, 74
2, 136125, Control_c, 0, 64, 75
2, 136140, Control_c, 0, 64, 76
2, 136154, Control_c, 0, 64, 77
2, 136170, Control_c, 0, 64, 79
2, 136185, Control_c, 0, 64, 80
2, 136200, Control_c, 0, 64, 82
2, 136215, Control_c, 0, 64, 84
2, 136230, Control_c, 0, 64, 86
2, 136246, Control_c, 0, 64, 88
2, 136261, Control_c, 0, 64, 89
2, 136276, Control_c, 0, 64, 91
2, 136291, Control_c, 0, 64, 91
2, 136306, Control_c, 0, 64, 92
2, 136322, Control_c, 0, 64, 93
2, 136337, Control_c, 0, 64, 94
2, 136352, Control_c, 0, 64, 96
2, 136369, Control_c, 0, 64, 99
2, 136383, Control_c, 0, 64, 102
2, 136398, Control_c, 0, 64, 105
2, 136414, Control_c, 0, 64, 109
2, 136429, Control_c, 0, 64, 114
2, 136445, Control_c, 0, 64, 127
2, 137463, Control_c, 0, 64, 121
2, 137478, Control_c, 0, 64, 114
2, 137493, Control_c, 0, 64, 111
2, 137508, Control_c, 0, 64, 109
2, 137524, Control_c, 0, 64, 108
2, 137539, Control_c, 0, 64, 106
2, 137554, Control_c, 0, 64, 104
2, 137569, Control_c, 0, 64, 102
2, 137584, Control_c, 0, 64, 100
2, 137599, Control_c, 0, 64, 98
2, 137615, Control_c, 0, 64, 97
2, 137630, Control_c, 0, 64, 96
2, 137646, Control_c, 0, 64, 96
2, 137661, Control_c, 0, 64, 95
2, 137676, Control_c, 0, 64, 94
2, 137691, Control_c, 0, 64, 93
2, 137706, Control_c, 0, 64, 91
2, 137722, Control_c, 0, 64, 90
2, 137737, Control_c, 0, 64, 89
2, 137752, Control_c, 0, 64, 89
2, 137767, Control_c, 0, 64, 88
2, 137782, Control_c, 0, 64, 87
2, 137797, Control_c, 0, 64, 85
2, 137813, Control_c, 0, 64, 83
2, 137828, Control_c, 0, 64, 81
2, 137843, Control_c, 0, 64, 80
2, 137858, Control_c, 0, 64, 79
2, 137873, Control_c, 0, 64, 78
2, 137889, Control_c, 0, 64, 77
2, 137903, Control_c, 0, 64, 76
2, 137918, Control_c, 0, 64, 76
2, 137949, Control_c, 0, 64, 75
2, 137964, Control_c, 0, 64, 75
2, 137979, Control_c, 0, 64, 74
2, 138004, Control_c, 0, 64, 74
2, 138034, Control_c, 0, 64, 73
2, 138064, Control_c, 0, 64, 73
2, 138110, Control_c, 0, 64, 72
2, 138140, Control_c, 0, 64, 72
2, 138231, Control_c, 0, 64, 71
2, 138247, Control_c, 0, 64, 71
2, 138323, Control_c, 0, 64, 70
2, 138368, Control_c, 0, 64, 70
2, 138444, Control_c, 0, 64, 69
2, 138505, Control_c, 0, 64, 69
2, 138535, Control_c, 0, 64, 68
2, 138566, Control_c, 0, 64, 68
2, 138642, Control_c, 0, 64, 67
2, 138717, Control_c, 0, 64, 67
2, 138733, Control_c, 0, 64, 66
2, 138771, Control_c, 0, 64, 66
2, 138802, Control_c, 0, 64, 65
2, 138832, Control_c, 0, 64, 65
2, 138862, Control_c, 0, 64, 64
2, 138893, Control_c, 0, 64, 64
2, 138970, Control_c, 0, 64, 63
2, 138999, Control_c, 0, 64, 63
2, 139030, Control_c, 0, 64, 62
2, 139060, Control_c, 0, 64, 62
2, 139091, Control_c, 0, 64, 61
2, 139122, Control_c, 0, 64, 61
2, 139136, Control_c, 0, 64, 60
2, 139167, Control_c, 0, 64, 60
2, 139181, Control_c, 0, 64, 59
2, 139196, Control_c, 0, 64, 58
2, 139212, Control_c, 0, 64, 58
2, 139227, Control_c, 0, 64, 57
2, 139243, Control_c, 0, 64, 56
2, 139257, Control_c, 0, 64, 55
2, 139272, Control_c, 0, 64, 55
2, 139303, Control_c, 0, 64, 54
2, 139318, Control_c, 0, 64, 53
2, 139333, Control_c, 0, 64, 52
2, 139348, Control_c, 0, 64, 51
2, 139364, Control_c, 0, 64, 50
2, 139379, Control_c, 0, 64, 49
2, 139394, Control_c, 0, 64, 48
2, 139410, Control_c, 0, 64, 47
2, 139425, Control_c, 0, 64, 45
2, 139440, Control_c, 0, 64, 44
2, 139455, Control_c, 0, 64, 42
2, 139470, Control_c, 0, 64, 41
2, 139486, Control_c, 0, 64, 39
2, 139501, Control_c, 0, 64, 38
2, 139516, Control_c, 0, 64, 37
2, 139538, Control_c, 0, 64, 36
2, 139553, Control_c, 0, 64, 34
2, 139569, Control_c, 0, 64, 33
2, 139584, Control_c, 0, 64, 30
2, 139588, Note_on_c, 0, 65, 0
2, 139599, Control_c, 0, 64, 28
2, 139615, Control_c, 0, 64, 25
2, 139630, Control_c, 0, 64, 22
2, 139646, Control_c, 0, 64, 18
2, 139656, Note_on_c, 0, 46, 0
2, 139661, Control_c, 0, 64, 13
2, 139676, Control_c, 0, 64, 8
2, 139691, Control_c, 0, 64, 0
2, 139942, Note_on_c, 0, 62, 0
2, 139943, Note_on_c, 0, 53, 0
2, 140055, Note_on_c, 0, 70, 0
2, 141545,End_track
0, 0, End_of_file
