0, 0, Header, 1, 2, 384
1, 0, Start_track
1, 0, Tempo, 500000
1, 0, Time_signature, 4, 2, 24, 8
1, 1, End_track
2,0,Start_track
2,0, Note_on_c, 0, 70, 48
2,913, Note_on_c, 0, 65, 34
2,1135, Note_on_c, 0, 70, 0
2,1765, Control_c, 0, 64, 46
2,1900, Note_on_c, 0, 65, 0
2,2374, Note_on_c, 0, 78, 53
2,2782, Note_on_c, 0, 77, 59
2,2872, Note_on_c, 0, 78, 0
2,3208, Note_on_c, 0, 75, 61
2,3343, Note_on_c, 0, 77, 0
2,3647, Note_on_c, 0, 73, 51
2,3655, Note_on_c, 0, 65, 59
2,3788, Note_on_c, 0, 75, 0
2,4098, Note_on_c, 0, 72, 60
2,4192, Note_on_c, 0, 73, 0
2,4435, Control_c, 0, 64, 46
2,4520, Note_on_c, 0, 73, 53
2,4533, Note_on_c, 0, 58, 39
2,4643, Note_on_c, 0, 72, 0
2,4734, Note_on_c, 0, 65, 0
2,4950, Note_on_c, 0, 75, 52
2,5033, Note_on_c, 0, 73, 0
2,5293, Note_on_c, 0, 58, 0
2,5350, Note_on_c, 0, 77, 58
2,5408, Note_on_c, 0, 75, 0
2,5791, Note_on_c, 0, 77, 0
2,5798, Note_on_c, 0, 76, 53
2,5807, Note_on_c, 0, 73, 42
2,5884, Note_on_c, 0, 76, 0
2,5987, Note_on_c, 0, 77, 65
2,6079, Note_on_c, 0, 77, 0
2,6226, Note_on_c, 0, 79, 65
2,6229, Note_on_c, 0, 72, 47
2,6327, Note_on_c, 0, 73, 0
2,6631, Note_on_c, 0, 70, 58
2,6761, Note_on_c, 0, 72, 0
2,7051, Note_on_c, 0, 68, 57
2,7182, Note_on_c, 0, 70, 0
2,7415, Note_on_c, 0, 67, 40
2,7424, Note_on_c, 0, 80, 58
2,7446, Note_on_c, 0, 79, 0
2,7526, Note_on_c, 0, 80, 0
2,7545, Note_on_c, 0, 68, 0
2,7623, Note_on_c, 0, 79, 60
2,7702, Note_on_c, 0, 79, 0
2,7842, Note_on_c, 0, 68, 49
2,7850, Note_on_c, 0, 77, 64
2,7973, Note_on_c, 0, 67, 0
2,8250, Note_on_c, 0, 70, 56
2,8491, Note_on_c, 0, 68, 0
2,8684, Note_on_c, 0, 72, 51
2,8872, Note_on_c, 0, 70, 0
2,9085, Note_on_c, 0, 75, 48
2,9094, Note_on_c, 0, 77, 0
2,9151, Note_on_c, 0, 75, 0
2,9274, Note_on_c, 0, 73, 52
2,9344, Note_on_c, 0, 73, 0
2,9493, Note_on_c, 0, 75, 55
2,9883, Note_on_c, 0, 77, 65
2,9887, Note_on_c, 0, 72, 0
2,9889, Note_on_c, 0, 70, 45
2,9970, Note_on_c, 0, 70, 0
2,9972, Note_on_c, 0, 75, 0
2,10069, Note_on_c, 0, 69, 55
2,10167, Note_on_c, 0, 69, 0
2,10298, Note_on_c, 0, 70, 51
2,10300, Note_on_c, 0, 78, 66
2,10425, Note_on_c, 0, 77, 0
2,10693, Note_on_c, 0, 72, 58
2,10816, Note_on_c, 0, 70, 0
2,11130, Note_on_c, 0, 73, 50
2,11338, Note_on_c, 0, 72, 0
2,11525, Note_on_c, 0, 77, 46
2,11588, Note_on_c, 0, 78, 0
2,11644, Note_on_c, 0, 77, 0
2,11720, Note_on_c, 0, 75, 57
2,11781, Control_c, 0, 64, 45
2,11793, Note_on_c, 0, 75, 0
2,11934, Note_on_c, 0, 77, 67
2,12310, Note_on_c, 0, 72, 51
2,12315, Note_on_c, 0, 79, 68
2,12373, Note_on_c, 0, 73, 0
2,12427, Note_on_c, 0, 72, 0
2,12427, Note_on_c, 0, 77, 0
2,12505, Note_on_c, 0, 70, 51
2,12665, Note_on_c, 0, 70, 0
2,12710, Note_on_c, 0, 80, 69
2,12735, Note_on_c, 0, 72, 58
2,12845, Note_on_c, 0, 79, 0
2,13089, Note_on_c, 0, 74, 67
2,13195, Note_on_c, 0, 72, 0
2,13511, Note_on_c, 0, 75, 61
2,13700, Note_on_c, 0, 74, 0
2,13925, Note_on_c, 0, 79, 54
2,13967, Note_on_c, 0, 80, 0
2,14015, Note_on_c, 0, 79, 0
2,14100, Control_c, 0, 64, 45
2,14112, Note_on_c, 0, 77, 71
2,14187, Note_on_c, 0, 77, 0
2,14316, Note_on_c, 0, 79, 69
2,14581, Note_on_c, 0, 75, 0
2,14640, Control_c, 0, 64, 44
2,14713, Note_on_c, 0, 81, 72
2,14721, Note_on_c, 0, 73, 67
2,14792, Note_on_c, 0, 79, 0
2,14820, Note_on_c, 0, 73, 0
2,14905, Note_on_c, 0, 72, 71
2,14971, Note_on_c, 0, 72, 0
2,15135, Note_on_c, 0, 82, 70
2,15138, Note_on_c, 0, 58, 67
2,15144, Note_on_c, 0, 73, 62
2,15208, Note_on_c, 0, 81, 0
2,15547, Note_on_c, 0, 75, 69
2,15652, Note_on_c, 0, 73, 0
2,15967, Note_on_c, 0, 53, 45
2,15967, Note_on_c, 0, 77, 62
2,16069, Note_on_c, 0, 75, 0
2,16137, Note_on_c, 0, 58, 0
2,16373, Control_c, 0, 64, 44
2,16373, Note_on_c, 0, 81, 46
2,16409, Note_on_c, 0, 82, 0
2,16438, Note_on_c, 0, 81, 0
2,16549, Note_on_c, 0, 79, 59
2,16614, Note_on_c, 0, 79, 0
2,16684, Note_on_c, 0, 53, 0
2,16766, Note_on_c, 0, 81, 60
2,17140, Note_on_c, 0, 82, 68
2,17142, Note_on_c, 0, 66, 65
2,17150, Note_on_c, 0, 75, 57
2,17171, Note_on_c, 0, 81, 0
2,17177, Note_on_c, 0, 77, 0
2,17232, Control_c, 0, 64, 43
2,17238, Note_on_c, 0, 75, 0
2,17321, Note_on_c, 0, 73, 71
2,17398, Note_on_c, 0, 73, 0
2,17544, Note_on_c, 0, 65, 62
2,17544, Note_on_c, 0, 84, 80
2,17555, Note_on_c, 0, 75, 65
2,17599, Note_on_c, 0, 66, 0
2,17606, Note_on_c, 0, 82, 0
2,17942, Note_on_c, 0, 63, 71
2,18012, Note_on_c, 0, 65, 0
2,18259, Control_c, 0, 64, 43
2,18342, Control_c, 0, 64, 42
2,18359, Note_on_c, 0, 53, 70
2,18359, Note_on_c, 0, 61, 55
2,18414, Note_on_c, 0, 63, 0
2,18433, Control_c, 0, 64, 42
2,18539, Note_on_c, 0, 84, 0
2,18628, Note_on_c, 0, 75, 0
2,18703, Note_on_c, 0, 61, 0
2,18750, Note_on_c, 0, 60, 54
2,18758, Note_on_c, 0, 82, 65
2,18762, Note_on_c, 0, 73, 62
2,18822, Note_on_c, 0, 73, 0
2,18831, Note_on_c, 0, 82, 0
2,18929, Note_on_c, 0, 75, 65
2,18932, Note_on_c, 0, 81, 62
2,18970, Note_on_c, 0, 60, 0
2,19012, Note_on_c, 0, 75, 0
2,19017, Note_on_c, 0, 81, 0
2,19160, Note_on_c, 0, 46, 50
2,19162, Note_on_c, 0, 82, 62
2,19166, Note_on_c, 0, 73, 60
2,19168, Note_on_c, 0, 58, 45
2,19268, Note_on_c, 0, 53, 0
2,19390, Note_on_c, 0, 58, 0
2,19424, Note_on_c, 0, 73, 0
2,19535, Control_c, 0, 64, 41
2,19559, Note_on_c, 0, 80, 68
2,19562, Note_on_c, 0, 60, 64
2,19568, Note_on_c, 0, 72, 60
2,19614, Note_on_c, 0, 60, 0
2,19735, Note_on_c, 0, 61, 75
2,19736, Note_on_c, 0, 72, 0
2,19794, Control_c, 0, 64, 41
2,19794, Note_on_c, 0, 46, 0
2,19816, Note_on_c, 0, 61, 0
2,19948, Note_on_c, 0, 78, 74
2,19951, Note_on_c, 0, 70, 62
2,19956, Note_on_c, 0, 63, 61
2,19969, Note_on_c, 0, 82, 0
2,20048, Note_on_c, 0, 80, 0
2,20198, Control_c, 0, 64, 40
2,20330, Note_on_c, 0, 61, 59
2,20332, Note_on_c, 0, 77, 72
2,20335, Note_on_c, 0, 65, 64
2,20394, Note_on_c, 0, 63, 0
2,20410, Control_c, 0, 64, 40
2,20416, Note_on_c, 0, 78, 0
2,20533, Control_c, 0, 64, 39
2,20740, Control_c, 0, 64, 39
2,20754, Note_on_c, 0, 66, 60
2,20757, Note_on_c, 0, 75, 64
2,20763, Note_on_c, 0, 60, 47
2,20823, Note_on_c, 0, 61, 0
2,20852, Note_on_c, 0, 77, 0
2,20876, Note_on_c, 0, 65, 0
2,20952, Note_on_c, 0, 70, 0
2,21142, Note_on_c, 0, 58, 42
2,21147, Note_on_c, 0, 69, 53
2,21151, Note_on_c, 0, 60, 0
2,21204, Note_on_c, 0, 69, 0
2,21320, Note_on_c, 0, 70, 56
2,21384, Note_on_c, 0, 70, 0
2,21431, Note_on_c, 0, 66, 0
2,21531, Note_on_c, 0, 65, 28
2,21548, Note_on_c, 0, 57, 37
2,21548, Note_on_c, 0, 72, 59
2,21609, Note_on_c, 0, 58, 0
2,21673, Note_on_c, 0, 75, 0
2,21934, Note_on_c, 0, 69, 47
2,21937, Note_on_c, 0, 53, 40
2,21937, Note_on_c, 0, 77, 66
2,21942, Note_on_c, 0, 63, 43
2,21944, Note_on_c, 0, 57, 0
2,21953, Note_on_c, 0, 72, 0
2,22019, Note_on_c, 0, 77, 0
2,22087, Note_on_c, 0, 63, 0
2,22111, Note_on_c, 0, 78, 77
2,22223, Note_on_c, 0, 78, 0
2,22320, Note_on_c, 0, 55, 41
2,22332, Note_on_c, 0, 77, 79
2,22335, Note_on_c, 0, 70, 61
2,22338, Note_on_c, 0, 61, 50
2,22392, Note_on_c, 0, 69, 0
2,22428, Note_on_c, 0, 65, 0
2,22465, Note_on_c, 0, 53, 0
2,22695, Note_on_c, 0, 60, 56
2,22701, Note_on_c, 0, 55, 0
2,22703, Note_on_c, 0, 75, 82
2,22707, Note_on_c, 0, 57, 47
2,22717, Note_on_c, 0, 72, 70
2,22753, Note_on_c, 0, 61, 0
2,22762, Control_c, 0, 64, 39
2,22793, Control_c, 0, 64, 43
2,22796, Note_on_c, 0, 70, 0
2,22796, Note_on_c, 0, 77, 0
2,22808, Control_c, 0, 64, 49
2,22822, Control_c, 0, 64, 57
2,22838, Control_c, 0, 64, 62
2,22845, Note_on_c, 0, 60, 0
2,22853, Control_c, 0, 64, 66
2,22863, Note_on_c, 0, 57, 0
2,22868, Control_c, 0, 64, 72
2,22884, Control_c, 0, 64, 84
2,22905, Control_c, 0, 64, 114
2,22921, Control_c, 0, 64, 127
2,22929, Note_on_c, 0, 75, 0
2,23116, Note_on_c, 0, 46, 74
2,23124, Note_on_c, 0, 58, 63
2,23124, Note_on_c, 0, 73, 86
2,23141, Note_on_c, 0, 61, 65
2,23175, Control_c, 0, 64, 105
2,23190, Control_c, 0, 64, 94
2,23204, Control_c, 0, 64, 85
2,23220, Control_c, 0, 64, 78
2,23235, Control_c, 0, 64, 74
2,23250, Control_c, 0, 64, 70
2,23265, Control_c, 0, 64, 67
2,23280, Control_c, 0, 64, 64
2,23296, Control_c, 0, 64, 60
2,23311, Control_c, 0, 64, 57
2,23326, Control_c, 0, 64, 55
2,23344, Note_on_c, 0, 72, 0
2,23346, Note_on_c, 0, 61, 0
2,23356, Control_c, 0, 64, 54
2,23372, Control_c, 0, 64, 53
2,23387, Control_c, 0, 64, 52
2,23402, Control_c, 0, 64, 50
2,23417, Control_c, 0, 64, 49
2,23432, Control_c, 0, 64, 49
2,23447, Control_c, 0, 64, 48
2,23462, Control_c, 0, 64, 47
2,23477, Control_c, 0, 64, 46
2,23488, Note_on_c, 0, 58, 0
2,23493, Control_c, 0, 64, 45
2,23508, Control_c, 0, 64, 43
2,23523, Control_c, 0, 64, 43
2,23523, Note_on_c, 0, 48, 58
2,23523, Note_on_c, 0, 70, 66
2,23527, Note_on_c, 0, 63, 61
2,23538, Control_c, 0, 64, 42
2,23553, Control_c, 0, 64, 41
2,23568, Control_c, 0, 64, 40
2,23569, Note_on_c, 0, 63, 0
2,23584, Control_c, 0, 64, 38
2,23599, Control_c, 0, 64, 37
2,23604, Note_on_c, 0, 70, 0
2,23615, Control_c, 0, 64, 36
2,23630, Control_c, 0, 64, 35
2,23645, Control_c, 0, 64, 34
2,23667, Control_c, 0, 64, 33
2,23682, Control_c, 0, 64, 31
2,23698, Control_c, 0, 64, 30
2,23700, Note_on_c, 0, 69, 70
2,23713, Control_c, 0, 64, 30
2,23728, Control_c, 0, 64, 29
2,23762, Note_on_c, 0, 69, 0
2,23916, Note_on_c, 0, 49, 48
2,23916, Note_on_c, 0, 70, 63
2,23921, Note_on_c, 0, 65, 54
2,23929, Note_on_c, 0, 41, 51
2,24003, Note_on_c, 0, 48, 0
2,24021, Note_on_c, 0, 46, 0
2,24306, Note_on_c, 0, 51, 57
2,24317, Note_on_c, 0, 66, 61
2,24321, Control_c, 0, 64, 30
2,24337, Control_c, 0, 64, 32
2,24352, Control_c, 0, 64, 35
2,24367, Control_c, 0, 64, 38
2,24382, Control_c, 0, 64, 41
2,24397, Control_c, 0, 64, 46
2,24413, Control_c, 0, 64, 52
2,24422, Note_on_c, 0, 49, 0
2,24435, Control_c, 0, 64, 57
2,24450, Control_c, 0, 64, 61
2,24452, Note_on_c, 0, 65, 0
2,24466, Control_c, 0, 64, 64
2,24481, Control_c, 0, 64, 66
2,24497, Control_c, 0, 64, 70
2,24511, Control_c, 0, 64, 78
2,24526, Control_c, 0, 64, 92
2,24542, Control_c, 0, 64, 114
2,24550, Note_on_c, 0, 73, 0
2,24557, Control_c, 0, 64, 127
2,24721, Note_on_c, 0, 72, 78
2,24729, Note_on_c, 0, 53, 42
2,24733, Note_on_c, 0, 60, 55
2,24755, Control_c, 0, 64, 117
2,24770, Control_c, 0, 64, 106
2,24786, Control_c, 0, 64, 95
2,24801, Control_c, 0, 64, 88
2,24816, Control_c, 0, 64, 83
2,24831, Control_c, 0, 64, 80
2,24846, Control_c, 0, 64, 77
2,24862, Control_c, 0, 64, 73
2,24865, Note_on_c, 0, 41, 0
2,24877, Control_c, 0, 64, 69
2,24893, Control_c, 0, 64, 67
2,24905, Note_on_c, 0, 51, 0
2,24908, Control_c, 0, 64, 64
2,24923, Control_c, 0, 64, 63
2,24939, Control_c, 0, 64, 61
2,24953, Control_c, 0, 64, 59
2,24968, Control_c, 0, 64, 58
2,24977, Note_on_c, 0, 66, 0
2,24984, Control_c, 0, 64, 57
2,24999, Control_c, 0, 64, 56
2,25015, Control_c, 0, 64, 55
2,25029, Control_c, 0, 64, 55
2,25044, Control_c, 0, 64, 54
2,25060, Control_c, 0, 64, 53
2,25074, Control_c, 0, 64, 53
2,25105, Control_c, 0, 64, 52
2,25118, Note_on_c, 0, 54, 63
2,25204, Control_c, 0, 64, 52
2,25207, Note_on_c, 0, 53, 0
2,25530, Note_on_c, 0, 68, 59
2,25532, Note_on_c, 0, 56, 41
2,25534, Note_on_c, 0, 65, 49
2,25535, Note_on_c, 0, 53, 44
2,25681, Note_on_c, 0, 70, 0
2,25687, Note_on_c, 0, 54, 0
2,25746, Note_on_c, 0, 60, 0
2,25904, Note_on_c, 0, 51, 54
2,25909, Note_on_c, 0, 53, 0
2,26316, Note_on_c, 0, 70, 62
2,26325, Note_on_c, 0, 58, 40
2,26328, Note_on_c, 0, 50, 30
2,26385, Note_on_c, 0, 56, 0
2,26396, Note_on_c, 0, 51, 0
2,26516, Note_on_c, 0, 72, 0
2,26533, Note_on_c, 0, 50, 0
2,26570, Control_c, 0, 64, 52
2,26584, Control_c, 0, 64, 54
2,26600, Control_c, 0, 64, 55
2,26615, Control_c, 0, 64, 56
2,26630, Control_c, 0, 64, 57
2,26646, Control_c, 0, 64, 57
2,26661, Control_c, 0, 64, 58
2,26704, Note_on_c, 0, 62, 49
2,26731, Note_on_c, 0, 46, 34
2,26759, Note_on_c, 0, 65, 0
2,26774, Control_c, 0, 64, 57
2,26851, Control_c, 0, 64, 57
2,26882, Control_c, 0, 64, 56
2,26958, Control_c, 0, 64, 56
2,27003, Control_c, 0, 64, 55
2,27079, Control_c, 0, 64, 55
2,27100, Note_on_c, 0, 63, 64
2,27101, Note_on_c, 0, 48, 38
2,27139, Control_c, 0, 64, 54
2,27216, Control_c, 0, 64, 54
2,27232, Note_on_c, 0, 62, 0
2,27254, Note_on_c, 0, 46, 0
2,27478, Note_on_c, 0, 50, 35
2,27484, Note_on_c, 0, 65, 65
2,27630, Note_on_c, 0, 48, 0
2,27644, Note_on_c, 0, 68, 0
2,27676, Note_on_c, 0, 63, 0
2,27694, Control_c, 0, 64, 53
2,27893, Note_on_c, 0, 66, 60
2,27895, Note_on_c, 0, 51, 39
2,27942, Note_on_c, 0, 50, 0
2,28135, Note_on_c, 0, 65, 0
2,28284, Note_on_c, 0, 53, 44
2,28284, Note_on_c, 0, 63, 65
2,28335, Note_on_c, 0, 51, 0
2,28351, Note_on_c, 0, 63, 0
2,28460, Note_on_c, 0, 62, 56
2,28525, Note_on_c, 0, 62, 0
2,28538, Control_c, 0, 64, 53
2,28672, Note_on_c, 0, 63, 50
2,28682, Note_on_c, 0, 51, 42
2,28752, Note_on_c, 0, 53, 0
2,28810, Note_on_c, 0, 58, 0
2,28812, Control_c, 0, 64, 52
2,28827, Control_c, 0, 64, 52
2,28859, Control_c, 0, 64, 51
2,28889, Control_c, 0, 64, 51
2,28904, Control_c, 0, 64, 50
2,28920, Control_c, 0, 64, 50
2,29056, Note_on_c, 0, 49, 34
2,29058, Note_on_c, 0, 75, 55
2,29162, Note_on_c, 0, 70, 0
2,29215, Note_on_c, 0, 51, 0
2,29451, Note_on_c, 0, 68, 52
2,29457, Note_on_c, 0, 60, 29
2,29458, Note_on_c, 0, 48, 28
2,29513, Note_on_c, 0, 49, 0
2,29613, Note_on_c, 0, 60, 0
2,29642, Note_on_c, 0, 48, 0
2,29680, Note_on_c, 0, 75, 0
2,29865, Note_on_c, 0, 48, 43
2,29880, Note_on_c, 0, 44, 26
2,30232, Note_on_c, 0, 49, 40
2,30237, Note_on_c, 0, 46, 34
2,30321, Note_on_c, 0, 48, 0
2,30383, Note_on_c, 0, 44, 0
2,30612, Note_on_c, 0, 49, 0
2,30614, Control_c, 0, 64, 50
2,30629, Control_c, 0, 64, 51
2,30629, Note_on_c, 0, 48, 40
2,30633, Note_on_c, 0, 51, 43
2,30674, Control_c, 0, 64, 51
2,30702, Note_on_c, 0, 66, 0
2,30724, Note_on_c, 0, 46, 0
2,30735, Control_c, 0, 64, 52
2,30750, Control_c, 0, 64, 52
2,30766, Control_c, 0, 64, 54
2,30781, Control_c, 0, 64, 57
2,30793, Note_on_c, 0, 63, 0
2,30795, Control_c, 0, 64, 61
2,30811, Control_c, 0, 64, 65
2,30826, Control_c, 0, 64, 69
2,30841, Control_c, 0, 64, 74
2,30844, Note_on_c, 0, 51, 0
2,30856, Control_c, 0, 64, 81
2,30871, Control_c, 0, 64, 89
2,30887, Control_c, 0, 64, 98
2,30902, Control_c, 0, 64, 114
2,30916, Control_c, 0, 64, 127
2,31024, Control_c, 0, 64, 123
2,31029, Note_on_c, 0, 49, 50
2,31039, Control_c, 0, 64, 110
2,31040, Note_on_c, 0, 61, 38
2,31042, Note_on_c, 0, 65, 47
2,31054, Control_c, 0, 64, 103
2,31063, Note_on_c, 0, 53, 32
2,31069, Control_c, 0, 64, 97
2,31085, Control_c, 0, 64, 88
2,31086, Note_on_c, 0, 48, 0
2,31100, Control_c, 0, 64, 80
2,31114, Control_c, 0, 64, 74
2,31130, Control_c, 0, 64, 70
2,31145, Control_c, 0, 64, 67
2,31161, Control_c, 0, 64, 65
2,31176, Control_c, 0, 64, 62
2,31190, Control_c, 0, 64, 57
2,31206, Control_c, 0, 64, 52
2,31221, Control_c, 0, 64, 47
2,31236, Control_c, 0, 64, 44
2,31251, Control_c, 0, 64, 40
2,31266, Control_c, 0, 64, 36
2,31282, Control_c, 0, 64, 30
2,31294, Note_on_c, 0, 53, 0
2,31298, Control_c, 0, 64, 27
2,31313, Control_c, 0, 64, 26
2,31420, Note_on_c, 0, 51, 58
2,31427, Control_c, 0, 64, 30
2,31443, Control_c, 0, 64, 37
2,31458, Control_c, 0, 64, 45
2,31473, Control_c, 0, 64, 53
2,31488, Control_c, 0, 64, 59
2,31503, Control_c, 0, 64, 64
2,31519, Control_c, 0, 64, 69
2,31527, Note_on_c, 0, 65, 0
2,31534, Control_c, 0, 64, 76
2,31549, Control_c, 0, 64, 88
2,31564, Control_c, 0, 64, 111
2,31579, Control_c, 0, 64, 127
2,31804, Note_on_c, 0, 70, 61
2,31804, Note_on_c, 0, 73, 72
2,31811, Note_on_c, 0, 65, 45
2,31813, Note_on_c, 0, 53, 33
2,31825, Note_on_c, 0, 46, 34
2,31853, Control_c, 0, 64, 104
2,31864, Note_on_c, 0, 68, 0
2,31867, Control_c, 0, 64, 95
2,31883, Control_c, 0, 64, 90
2,31898, Control_c, 0, 64, 85
2,31913, Control_c, 0, 64, 81
2,31929, Control_c, 0, 64, 76
2,31944, Control_c, 0, 64, 71
2,31953, Note_on_c, 0, 49, 0
2,31960, Control_c, 0, 64, 68
2,31960, Note_on_c, 0, 51, 0
2,31974, Control_c, 0, 64, 65
2,31978, Note_on_c, 0, 61, 0
2,31989, Control_c, 0, 64, 64
2,32005, Control_c, 0, 64, 62
2,32020, Control_c, 0, 64, 60
2,32034, Control_c, 0, 64, 58
2,32050, Control_c, 0, 64, 56
2,32065, Control_c, 0, 64, 55
2,32081, Control_c, 0, 64, 53
2,32095, Control_c, 0, 64, 51
2,32119, Control_c, 0, 64, 49
2,32134, Control_c, 0, 64, 48
2,32149, Control_c, 0, 64, 47
2,32166, Control_c, 0, 64, 46
2,32181, Control_c, 0, 64, 45
2,32194, Note_on_c, 0, 54, 61
2,32196, Control_c, 0, 64, 44
2,32211, Control_c, 0, 64, 44
2,32226, Control_c, 0, 64, 43
2,32228, Note_on_c, 0, 53, 0
2,32242, Control_c, 0, 64, 43
2,32257, Control_c, 0, 64, 42
2,32271, Control_c, 0, 64, 42
2,32317, Control_c, 0, 64, 41
2,32333, Control_c, 0, 64, 41
2,32347, Control_c, 0, 64, 40
2,32378, Control_c, 0, 64, 39
2,32393, Control_c, 0, 64, 39
2,32409, Control_c, 0, 64, 38
2,32424, Control_c, 0, 64, 37
2,32440, Control_c, 0, 64, 36
2,32545, Control_c, 0, 64, 36
2,32571, Note_on_c, 0, 53, 60
2,32576, Note_on_c, 0, 72, 67
2,32583, Note_on_c, 0, 68, 57
2,32584, Note_on_c, 0, 56, 45
2,32591, Note_on_c, 0, 54, 0
2,32619, Note_on_c, 0, 70, 0
2,32721, Note_on_c, 0, 46, 0
2,32739, Note_on_c, 0, 73, 0
2,32773, Control_c, 0, 64, 35
2,32782, Note_on_c, 0, 56, 0
2,32917, Control_c, 0, 64, 34
2,32959, Note_on_c, 0, 58, 76
2,33036, Note_on_c, 0, 58, 0
2,33041, Control_c, 0, 64, 34
2,33115, Control_c, 0, 64, 33
2,33123, Note_on_c, 0, 60, 79
2,33191, Control_c, 0, 64, 33
2,33219, Note_on_c, 0, 60, 0
2,33298, Control_c, 0, 64, 32
2,33326, Note_on_c, 0, 73, 69
2,33329, Note_on_c, 0, 58, 56
2,33329, Note_on_c, 0, 77, 82
2,33341, Note_on_c, 0, 49, 40
2,33360, Control_c, 0, 64, 32
2,33397, Note_on_c, 0, 72, 0
2,33435, Control_c, 0, 64, 31
2,33469, Note_on_c, 0, 53, 0
2,33481, Control_c, 0, 64, 31
2,33541, Control_c, 0, 64, 30
2,33555, Note_on_c, 0, 68, 0
2,33729, Note_on_c, 0, 56, 67
2,33768, Note_on_c, 0, 58, 0
2,34103, Note_on_c, 0, 70, 69
2,34111, Note_on_c, 0, 54, 57
2,34133, Note_on_c, 0, 51, 56
2,34145, Note_on_c, 0, 56, 0
2,34196, Note_on_c, 0, 49, 0
2,34219, Note_on_c, 0, 65, 0
2,34294, Control_c, 0, 64, 31
2,34439, Control_c, 0, 64, 31
2,34480, Note_on_c, 0, 56, 63
2,34485, Note_on_c, 0, 68, 66
2,34488, Note_on_c, 0, 72, 76
2,34490, Note_on_c, 0, 53, 48
2,34514, Control_c, 0, 64, 32
2,34529, Note_on_c, 0, 54, 0
2,34543, Note_on_c, 0, 77, 0
2,34561, Note_on_c, 0, 70, 0
2,34603, Note_on_c, 0, 73, 0
2,34607, Control_c, 0, 64, 32
2,34625, Note_on_c, 0, 51, 0
2,34637, Control_c, 0, 64, 33
2,34667, Control_c, 0, 64, 33
2,34728, Control_c, 0, 64, 34
2,34742, Note_on_c, 0, 68, 0
2,34743, Control_c, 0, 64, 34
2,34869, Note_on_c, 0, 54, 56
2,34875, Note_on_c, 0, 70, 67
2,34879, Note_on_c, 0, 75, 78
2,34883, Note_on_c, 0, 58, 52
2,34885, Note_on_c, 0, 66, 67
2,34908, Note_on_c, 0, 53, 0
2,34932, Note_on_c, 0, 56, 0
2,34955, Note_on_c, 0, 72, 0
2,35017, Control_c, 0, 64, 35
2,35044, Note_on_c, 0, 58, 0
2,35093, Control_c, 0, 64, 35
2,35142, Note_on_c, 0, 66, 0
2,35260, Note_on_c, 0, 60, 67
2,35270, Note_on_c, 0, 73, 82
2,35275, Note_on_c, 0, 65, 64
2,35338, Note_on_c, 0, 60, 0
2,35343, Note_on_c, 0, 70, 0
2,35393, Note_on_c, 0, 75, 0
2,35423, Note_on_c, 0, 65, 0
2,35432, Note_on_c, 0, 61, 69
2,35512, Note_on_c, 0, 61, 0
2,35662, Note_on_c, 0, 63, 65
2,35663, Note_on_c, 0, 68, 75
2,35666, Note_on_c, 0, 56, 50
2,35667, Note_on_c, 0, 72, 78
2,35696, Note_on_c, 0, 73, 0
2,35766, Note_on_c, 0, 54, 0
2,36048, Note_on_c, 0, 53, 67
2,36414, Note_on_c, 0, 73, 76
2,36415, Note_on_c, 0, 65, 72
2,36423, Note_on_c, 0, 51, 63
2,36517, Note_on_c, 0, 53, 0
2,36529, Note_on_c, 0, 72, 0
2,36530, Note_on_c, 0, 63, 0
2,36700, Note_on_c, 0, 56, 0
2,36814, Note_on_c, 0, 49, 61
2,36864, Note_on_c, 0, 51, 0
2,37211, Note_on_c, 0, 56, 67
2,37220, Note_on_c, 0, 63, 59
2,37292, Note_on_c, 0, 65, 0
2,37310, Note_on_c, 0, 49, 0
2,37496, Control_c, 0, 64, 41
2,37511, Control_c, 0, 64, 45
2,37526, Control_c, 0, 64, 50
2,37541, Control_c, 0, 64, 54
2,37556, Control_c, 0, 64, 58
2,37572, Control_c, 0, 64, 62
2,37587, Control_c, 0, 64, 67
2,37597, Note_on_c, 0, 70, 77
2,37602, Control_c, 0, 64, 73
2,37617, Control_c, 0, 64, 83
2,37632, Control_c, 0, 64, 104
2,37642, Note_on_c, 0, 73, 0
2,37647, Control_c, 0, 64, 127
2,37700, Note_on_c, 0, 68, 0
2,37952, Control_c, 0, 64, 115
2,37967, Control_c, 0, 64, 96
2,37975, Note_on_c, 0, 72, 81
2,37976, Note_on_c, 0, 44, 51
2,37980, Note_on_c, 0, 68, 74
2,37982, Control_c, 0, 64, 87
2,37997, Control_c, 0, 64, 81
2,38013, Control_c, 0, 64, 75
2,38023, Note_on_c, 0, 70, 0
2,38028, Control_c, 0, 64, 71
2,38044, Control_c, 0, 64, 67
2,38059, Control_c, 0, 64, 63
2,38074, Control_c, 0, 64, 59
2,38089, Control_c, 0, 64, 55
2,38104, Control_c, 0, 64, 49
2,38120, Control_c, 0, 64, 41
2,38135, Control_c, 0, 64, 30
2,38150, Control_c, 0, 64, 15
2,38165, Control_c, 0, 64, 0
2,38226, Control_c, 0, 64, 17
2,38241, Control_c, 0, 64, 38
2,38263, Control_c, 0, 64, 52
2,38279, Control_c, 0, 64, 58
2,38287, Note_on_c, 0, 68, 0
2,38294, Control_c, 0, 64, 63
2,38309, Control_c, 0, 64, 66
2,38325, Control_c, 0, 64, 72
2,38340, Control_c, 0, 64, 82
2,38355, Control_c, 0, 64, 103
2,38370, Control_c, 0, 64, 127
2,38374, Note_on_c, 0, 66, 73
2,38395, Note_on_c, 0, 44, 0
2,38517, Note_on_c, 0, 63, 0
2,38545, Note_on_c, 0, 66, 0
2,38776, Note_on_c, 0, 49, 31
2,38781, Control_c, 0, 64, 109
2,38790, Note_on_c, 0, 73, 74
2,38791, Note_on_c, 0, 61, 44
2,38795, Control_c, 0, 64, 98
2,38795, Note_on_c, 0, 65, 57
2,38811, Control_c, 0, 64, 92
2,38826, Control_c, 0, 64, 86
2,38842, Control_c, 0, 64, 82
2,38857, Control_c, 0, 64, 77
2,38872, Control_c, 0, 64, 71
2,38888, Control_c, 0, 64, 65
2,38902, Control_c, 0, 64, 61
2,38903, Note_on_c, 0, 72, 0
2,38917, Control_c, 0, 64, 56
2,38933, Control_c, 0, 64, 54
2,38948, Control_c, 0, 64, 52
2,38964, Control_c, 0, 64, 52
2,38979, Control_c, 0, 64, 52
2,38994, Control_c, 0, 64, 57
2,39009, Control_c, 0, 64, 63
2,39031, Control_c, 0, 64, 69
2,39047, Control_c, 0, 64, 75
2,39047, Note_on_c, 0, 61, 0
2,39062, Control_c, 0, 64, 80
2,39076, Control_c, 0, 64, 82
2,39107, Control_c, 0, 64, 82
2,39123, Control_c, 0, 64, 81
2,39137, Control_c, 0, 64, 80
2,39152, Control_c, 0, 64, 79
2,39168, Control_c, 0, 64, 78
2,39183, Control_c, 0, 64, 76
2,39187, Note_on_c, 0, 60, 48
2,39199, Control_c, 0, 64, 74
2,39208, Note_on_c, 0, 63, 57
2,39213, Control_c, 0, 64, 73
2,39228, Control_c, 0, 64, 72
2,39244, Control_c, 0, 64, 71
2,39259, Control_c, 0, 64, 69
2,39274, Control_c, 0, 64, 68
2,39289, Control_c, 0, 64, 67
2,39304, Control_c, 0, 64, 66
2,39306, Note_on_c, 0, 65, 0
2,39320, Control_c, 0, 64, 65
2,39334, Control_c, 0, 64, 64
2,39349, Control_c, 0, 64, 64
2,39365, Control_c, 0, 64, 62
2,39380, Control_c, 0, 64, 61
2,39395, Control_c, 0, 64, 61
2,39425, Control_c, 0, 64, 60
2,39441, Control_c, 0, 64, 60
2,39456, Control_c, 0, 64, 59
2,39464, Note_on_c, 0, 49, 0
2,39471, Control_c, 0, 64, 59
2,39503, Control_c, 0, 64, 58
2,39590, Note_on_c, 0, 61, 41
2,39596, Note_on_c, 0, 68, 57
2,39602, Note_on_c, 0, 65, 43
2,39622, Note_on_c, 0, 60, 0
2,39643, Note_on_c, 0, 56, 0
2,39670, Control_c, 0, 64, 58
2,39731, Control_c, 0, 64, 57
2,39735, Note_on_c, 0, 63, 0
2,39762, Note_on_c, 0, 73, 0
2,39776, Control_c, 0, 64, 57
2,39860, Control_c, 0, 64, 56
2,39891, Control_c, 0, 64, 56
2,39922, Control_c, 0, 64, 55
2,39992, Note_on_c, 0, 66, 37
2,40005, Note_on_c, 0, 63, 43
2,40024, Note_on_c, 0, 61, 0
2,40039, Note_on_c, 0, 65, 0
2,40212, Note_on_c, 0, 68, 0
2,40412, Note_on_c, 0, 65, 42
2,40428, Note_on_c, 0, 68, 46
2,40576, Note_on_c, 0, 66, 0
2,40609, Note_on_c, 0, 63, 0
2,40827, Note_on_c, 0, 83, 64
2,41010, Note_on_c, 0, 65, 0
2,41209, Note_on_c, 0, 82, 66
2,41214, Note_on_c, 0, 65, 30
2,41226, Note_on_c, 0, 62, 31
2,41301, Note_on_c, 0, 83, 0
2,41424, Note_on_c, 0, 68, 0
2,41617, Note_on_c, 0, 80, 64
2,41699, Control_c, 0, 64, 55
2,41702, Note_on_c, 0, 82, 0
2,41820, Control_c, 0, 64, 54
2,41943, Control_c, 0, 64, 54
2,42029, Note_on_c, 0, 70, 69
2,42034, Note_on_c, 0, 78, 59
2,42036, Note_on_c, 0, 63, 34
2,42070, Note_on_c, 0, 65, 0
2,42073, Note_on_c, 0, 62, 0
2,42133, Control_c, 0, 64, 53
2,42140, Note_on_c, 0, 80, 0
2,42391, Control_c, 0, 64, 53
2,42428, Note_on_c, 0, 63, 0
2,42429, Note_on_c, 0, 77, 58
2,42513, Note_on_c, 0, 78, 0
2,42832, Note_on_c, 0, 63, 58
2,42848, Note_on_c, 0, 78, 56
2,42960, Note_on_c, 0, 77, 0
2,43122, Note_on_c, 0, 70, 0
2,43222, Note_on_c, 0, 80, 57
2,43227, Note_on_c, 0, 65, 36
2,43309, Note_on_c, 0, 78, 0
2,43620, Note_on_c, 0, 66, 43
2,43623, Note_on_c, 0, 82, 62
2,43683, Note_on_c, 0, 80, 0
2,43771, Note_on_c, 0, 63, 0
2,43898, Note_on_c, 0, 65, 0
2,44009, Note_on_c, 0, 78, 67
2,44019, Note_on_c, 0, 81, 61
2,44032, Note_on_c, 0, 63, 39
2,44034, Note_on_c, 0, 82, 0
2,44091, Note_on_c, 0, 81, 0
2,44146, Note_on_c, 0, 66, 0
2,44193, Note_on_c, 0, 82, 62
2,44264, Note_on_c, 0, 82, 0
2,44415, Note_on_c, 0, 77, 81
2,44423, Note_on_c, 0, 69, 43
2,44423, Note_on_c, 0, 84, 70
2,44454, Note_on_c, 0, 78, 0
2,44572, Note_on_c, 0, 63, 0
2,44711, Control_c, 0, 64, 52
2,44742, Note_on_c, 0, 69, 0
2,44787, Control_c, 0, 64, 52
2,44801, Note_on_c, 0, 67, 56
2,44807, Note_on_c, 0, 75, 83
2,44846, Note_on_c, 0, 77, 0
2,44870, Note_on_c, 0, 67, 0
2,44966, Note_on_c, 0, 65, 62
2,44984, Control_c, 0, 64, 51
2,45019, Note_on_c, 0, 65, 0
2,45200, Note_on_c, 0, 58, 75
2,45202, Note_on_c, 0, 73, 68
2,45203, Note_on_c, 0, 70, 68
2,45251, Note_on_c, 0, 75, 0
2,45265, Control_c, 0, 64, 51
2,45551, Note_on_c, 0, 70, 0
2,45590, Note_on_c, 0, 82, 78
2,45595, Note_on_c, 0, 77, 63
2,45680, Note_on_c, 0, 84, 0
2,45791, Note_on_c, 0, 77, 0
2,45897, Note_on_c, 0, 73, 0
2,45981, Note_on_c, 0, 53, 58
2,45983, Note_on_c, 0, 75, 67
2,45987, Note_on_c, 0, 72, 52
2,46174, Note_on_c, 0, 58, 0
2,46375, Note_on_c, 0, 81, 64
2,46440, Note_on_c, 0, 82, 0
2,46441, Note_on_c, 0, 75, 0
2,46549, Note_on_c, 0, 72, 0
2,46715, Note_on_c, 0, 53, 0
2,46766, Note_on_c, 0, 82, 64
2,46769, Note_on_c, 0, 70, 54
2,46778, Note_on_c, 0, 74, 47
2,46900, Note_on_c, 0, 81, 0
2,47148, Note_on_c, 0, 66, 62
2,47351, Note_on_c, 0, 74, 0
2,47544, Note_on_c, 0, 75, 60
2,47546, Note_on_c, 0, 65, 50
2,47614, Control_c, 0, 64, 50
2,47672, Note_on_c, 0, 66, 0
2,47931, Note_on_c, 0, 63, 44
2,48082, Note_on_c, 0, 65, 0
2,48324, Note_on_c, 0, 77, 47
2,48327, Note_on_c, 0, 62, 36
2,48495, Note_on_c, 0, 63, 0
2,48500, Note_on_c, 0, 75, 0
2,48712, Note_on_c, 0, 58, 43
2,48874, Note_on_c, 0, 62, 0
2,49106, Note_on_c, 0, 60, 47
2,49110, Note_on_c, 0, 80, 62
2,49256, Note_on_c, 0, 58, 0
2,49293, Note_on_c, 0, 82, 0
2,49477, Note_on_c, 0, 62, 59
2,49551, Note_on_c, 0, 60, 0
2,49879, Note_on_c, 0, 78, 66
2,49881, Note_on_c, 0, 51, 68
2,49886, Note_on_c, 0, 63, 48
2,49966, Note_on_c, 0, 80, 0
2,49974, Note_on_c, 0, 62, 0
2,50064, Note_on_c, 0, 77, 0
2,50252, Note_on_c, 0, 63, 0
2,50274, Note_on_c, 0, 75, 64
2,50282, Note_on_c, 0, 53, 48
2,50341, Note_on_c, 0, 75, 0
2,50449, Note_on_c, 0, 74, 55
2,50496, Note_on_c, 0, 74, 0
2,50656, Note_on_c, 0, 75, 61
2,50664, Note_on_c, 0, 54, 49
2,50683, Note_on_c, 0, 46, 42
2,50802, Note_on_c, 0, 53, 0
2,50818, Note_on_c, 0, 51, 0
2,51032, Note_on_c, 0, 78, 0
2,51051, Note_on_c, 0, 56, 55
2,51099, Note_on_c, 0, 54, 0
2,51442, Note_on_c, 0, 77, 66
2,51453, Note_on_c, 0, 58, 48
2,51534, Note_on_c, 0, 46, 0
2,51575, Note_on_c, 0, 56, 0
2,51683, Control_c, 0, 64, 50
2,51790, Control_c, 0, 64, 49
2,51835, Note_on_c, 0, 59, 67
2,51957, Control_c, 0, 64, 49
2,51964, Note_on_c, 0, 58, 0
2,52086, Control_c, 0, 64, 48
2,52245, Note_on_c, 0, 61, 51
2,52247, Note_on_c, 0, 73, 60
2,52248, Note_on_c, 0, 76, 64
2,52251, Note_on_c, 0, 58, 49
2,52366, Note_on_c, 0, 75, 0
2,52401, Note_on_c, 0, 59, 0
2,52442, Note_on_c, 0, 77, 0
2,52510, Control_c, 0, 64, 48
2,52627, Note_on_c, 0, 56, 53
2,52661, Note_on_c, 0, 58, 0
2,53043, Note_on_c, 0, 55, 30
2,53043, Note_on_c, 0, 63, 33
2,53044, Note_on_c, 0, 75, 55
2,53048, Note_on_c, 0, 56, 0
2,53095, Note_on_c, 0, 76, 0
2,53115, Note_on_c, 0, 61, 0
2,53221, Note_on_c, 0, 55, 0
2,53270, Note_on_c, 0, 75, 0
2,53417, Note_on_c, 0, 55, 44
2,53422, Note_on_c, 0, 51, 49
2,53430, Note_on_c, 0, 75, 56
2,53494, Note_on_c, 0, 75, 0
2,53595, Note_on_c, 0, 76, 68
2,53698, Note_on_c, 0, 76, 0
2,53783, Note_on_c, 0, 53, 38
2,53797, Note_on_c, 0, 56, 60
2,53804, Note_on_c, 0, 75, 73
2,53844, Note_on_c, 0, 73, 0
2,53855, Note_on_c, 0, 63, 0
2,53865, Note_on_c, 0, 55, 0
2,53909, Note_on_c, 0, 51, 0
2,53955, Control_c, 0, 64, 47
2,54168, Note_on_c, 0, 73, 77
2,54174, Note_on_c, 0, 58, 50
2,54175, Note_on_c, 0, 55, 60
2,54189, Note_on_c, 0, 53, 0
2,54225, Note_on_c, 0, 56, 0
2,54293, Note_on_c, 0, 75, 0
2,54295, Note_on_c, 0, 70, 0
2,54322, Control_c, 0, 64, 48
2,54336, Control_c, 0, 64, 55
2,54351, Control_c, 0, 64, 61
2,54367, Control_c, 0, 64, 66
2,54382, Control_c, 0, 64, 75
2,54406, Control_c, 0, 64, 127
2,54471, Note_on_c, 0, 58, 0
2,54574, Note_on_c, 0, 56, 56
2,54574, Note_on_c, 0, 59, 52
2,54581, Note_on_c, 0, 71, 75
2,54592, Note_on_c, 0, 68, 62
2,54602, Control_c, 0, 64, 105
2,54615, Note_on_c, 0, 55, 0
2,54617, Control_c, 0, 64, 90
2,54632, Control_c, 0, 64, 79
2,54648, Control_c, 0, 64, 69
2,54658, Note_on_c, 0, 73, 0
2,54663, Control_c, 0, 64, 60
2,54678, Control_c, 0, 64, 40
2,54694, Control_c, 0, 64, 17
2,54740, Control_c, 0, 64, 18
2,54754, Control_c, 0, 64, 39
2,54770, Control_c, 0, 64, 58
2,54779, Note_on_c, 0, 68, 0
2,54785, Control_c, 0, 64, 67
2,54800, Control_c, 0, 64, 76
2,54815, Control_c, 0, 64, 110
2,54821, Note_on_c, 0, 56, 0
2,54830, Control_c, 0, 64, 127
2,54961, Note_on_c, 0, 54, 63
2,54964, Note_on_c, 0, 58, 69
2,54966, Note_on_c, 0, 70, 84
2,54997, Control_c, 0, 64, 104
2,55012, Control_c, 0, 64, 93
2,55027, Control_c, 0, 64, 84
2,55043, Control_c, 0, 64, 77
2,55051, Note_on_c, 0, 71, 0
2,55059, Control_c, 0, 64, 70
2,55074, Control_c, 0, 64, 64
2,55077, Note_on_c, 0, 59, 0
2,55090, Control_c, 0, 64, 58
2,55104, Control_c, 0, 64, 53
2,55120, Control_c, 0, 64, 50
2,55135, Control_c, 0, 64, 49
2,55150, Control_c, 0, 64, 47
2,55174, Control_c, 0, 64, 46
2,55188, Control_c, 0, 64, 45
2,55220, Control_c, 0, 64, 45
2,55250, Control_c, 0, 64, 44
2,55296, Control_c, 0, 64, 44
2,55348, Note_on_c, 0, 56, 66
2,55348, Note_on_c, 0, 71, 76
2,55349, Note_on_c, 0, 80, 86
2,55354, Note_on_c, 0, 76, 69
2,55357, Note_on_c, 0, 52, 51
2,55381, Note_on_c, 0, 54, 0
2,55402, Control_c, 0, 64, 43
2,55410, Note_on_c, 0, 58, 0
2,55447, Control_c, 0, 64, 43
2,55494, Note_on_c, 0, 70, 0
2,55523, Control_c, 0, 64, 42
2,55672, Note_on_c, 0, 52, 0
2,55675, Control_c, 0, 64, 42
2,55723, Note_on_c, 0, 56, 0
2,55730, Note_on_c, 0, 54, 80
2,55738, Note_on_c, 0, 51, 60
2,56104, Note_on_c, 0, 49, 55
2,56104, Note_on_c, 0, 52, 76
2,56113, Note_on_c, 0, 70, 71
2,56118, Note_on_c, 0, 51, 0
2,56152, Note_on_c, 0, 71, 0
2,56153, Note_on_c, 0, 54, 0
2,56210, Note_on_c, 0, 76, 0
2,56271, Note_on_c, 0, 49, 0
2,56276, Note_on_c, 0, 75, 79
2,56322, Control_c, 0, 64, 41
2,56354, Note_on_c, 0, 75, 0
2,56433, Note_on_c, 0, 80, 0
2,56469, Note_on_c, 0, 73, 91
2,56470, Note_on_c, 0, 46, 64
2,56631, Note_on_c, 0, 70, 0
2,56731, Note_on_c, 0, 52, 0
2,56826, Note_on_c, 0, 51, 61
2,56853, Note_on_c, 0, 79, 87
2,56876, Note_on_c, 0, 46, 0
2,56983, Control_c, 0, 64, 41
2,56988, Note_on_c, 0, 73, 0
2,56998, Control_c, 0, 64, 40
2,57013, Control_c, 0, 64, 39
2,57023, Note_on_c, 0, 76, 81
2,57028, Control_c, 0, 64, 39
2,57089, Control_c, 0, 64, 38
2,57103, Note_on_c, 0, 76, 0
2,57104, Control_c, 0, 64, 36
2,57120, Control_c, 0, 64, 31
2,57134, Control_c, 0, 64, 26
2,57149, Control_c, 0, 64, 20
2,57165, Control_c, 0, 64, 0
2,57197, Note_on_c, 0, 39, 67
2,57204, Note_on_c, 0, 75, 91
2,57305, Note_on_c, 0, 75, 0
2,57363, Control_c, 0, 64, 63
2,57372, Note_on_c, 0, 73, 93
2,57378, Control_c, 0, 64, 82
2,57393, Control_c, 0, 64, 127
2,57418, Note_on_c, 0, 79, 0
2,57422, Note_on_c, 0, 39, 0
2,57467, Note_on_c, 0, 73, 0
2,57588, Note_on_c, 0, 72, 62
2,57596, Note_on_c, 0, 44, 54
2,57600, Note_on_c, 0, 68, 90
2,57600, Note_on_c, 0, 80, 87
2,57629, Control_c, 0, 64, 96
2,57644, Control_c, 0, 64, 78
2,57659, Control_c, 0, 64, 69
2,57674, Control_c, 0, 64, 63
2,57690, Control_c, 0, 64, 51
2,57690, Note_on_c, 0, 51, 0
2,57705, Control_c, 0, 64, 30
2,57721, Control_c, 0, 64, 0
2,57957, Note_on_c, 0, 56, 76
2,57962, Note_on_c, 0, 80, 0
2,58009, Note_on_c, 0, 72, 0
2,58332, Note_on_c, 0, 46, 38
2,58340, Note_on_c, 0, 54, 49
2,58349, Note_on_c, 0, 61, 81
2,58418, Note_on_c, 0, 68, 0
2,58432, Note_on_c, 0, 44, 0
2,58476, Note_on_c, 0, 56, 0
2,58702, Note_on_c, 0, 46, 0
2,58712, Note_on_c, 0, 53, 71
2,58717, Note_on_c, 0, 44, 61
2,58732, Note_on_c, 0, 54, 0
2,59050, Note_on_c, 0, 61, 0
2,59104, Note_on_c, 0, 42, 63
2,59105, Note_on_c, 0, 51, 71
2,59160, Note_on_c, 0, 44, 0
2,59209, Note_on_c, 0, 53, 0
2,59512, Note_on_c, 0, 49, 50
2,59513, Note_on_c, 0, 77, 83
2,59588, Note_on_c, 0, 42, 0
2,59591, Note_on_c, 0, 51, 0
2,59874, Note_on_c, 0, 75, 82
2,59880, Note_on_c, 0, 54, 47
2,59885, Note_on_c, 0, 58, 56
2,59950, Note_on_c, 0, 77, 0
2,59965, Note_on_c, 0, 49, 0
2,60257, Note_on_c, 0, 73, 77
2,60326, Note_on_c, 0, 75, 0
2,60653, Note_on_c, 0, 56, 43
2,60653, Note_on_c, 0, 72, 71
2,60700, Note_on_c, 0, 73, 0
2,60710, Note_on_c, 0, 58, 0
2,61036, Note_on_c, 0, 68, 64
2,61040, Note_on_c, 0, 66, 62
2,61049, Note_on_c, 0, 53, 42
2,61150, Note_on_c, 0, 54, 0
2,61224, Note_on_c, 0, 56, 0
2,61225, Note_on_c, 0, 72, 0
2,61414, Note_on_c, 0, 54, 60
2,61420, Note_on_c, 0, 70, 76
2,61421, Note_on_c, 0, 65, 73
2,61458, Note_on_c, 0, 66, 0
2,61493, Note_on_c, 0, 68, 0
2,61606, Note_on_c, 0, 53, 0
2,61792, Note_on_c, 0, 72, 80
2,61798, Note_on_c, 0, 56, 60
2,61800, Note_on_c, 0, 63, 73
2,61818, Note_on_c, 0, 70, 0
2,61833, Note_on_c, 0, 65, 0
2,61852, Note_on_c, 0, 54, 0
2,62182, Note_on_c, 0, 61, 69
2,62182, Note_on_c, 0, 73, 81
2,62186, Note_on_c, 0, 58, 59
2,62215, Note_on_c, 0, 63, 0
2,62245, Note_on_c, 0, 72, 0
2,62257, Note_on_c, 0, 56, 0
2,62285, Note_on_c, 0, 61, 0
2,62557, Note_on_c, 0, 66, 73
2,62965, Note_on_c, 0, 54, 61
2,63089, Note_on_c, 0, 58, 0
2,63323, Note_on_c, 0, 65, 64
2,63463, Note_on_c, 0, 66, 0
2,63710, Note_on_c, 0, 56, 44
2,63715, Note_on_c, 0, 63, 59
2,63838, Note_on_c, 0, 65, 0
2,63866, Note_on_c, 0, 54, 0
2,64108, Note_on_c, 0, 58, 46
2,64213, Note_on_c, 0, 56, 0
2,64473, Note_on_c, 0, 72, 53
2,64489, Note_on_c, 0, 56, 36
2,64575, Note_on_c, 0, 73, 0
2,64587, Note_on_c, 0, 58, 0
2,64847, Note_on_c, 0, 54, 39
2,64896, Note_on_c, 0, 56, 0
2,65243, Note_on_c, 0, 73, 50
2,65245, Note_on_c, 0, 53, 27
2,65248, Note_on_c, 0, 56, 35
2,65288, Note_on_c, 0, 63, 0
2,65312, Note_on_c, 0, 72, 0
2,65468, Note_on_c, 0, 54, 0
2,65604, Note_on_c, 0, 73, 0
2,65622, Note_on_c, 0, 71, 48
2,65691, Note_on_c, 0, 71, 0
2,65797, Note_on_c, 0, 70, 49
2,65844, Note_on_c, 0, 70, 0
2,66003, Note_on_c, 0, 53, 0
2,66013, Note_on_c, 0, 68, 46
2,66015, Note_on_c, 0, 71, 56
2,66018, Note_on_c, 0, 56, 0
2,66377, Note_on_c, 0, 66, 48
2,66394, Note_on_c, 0, 51, 50
2,66436, Note_on_c, 0, 51, 0
2,66436, Note_on_c, 0, 66, 0
2,66446, Note_on_c, 0, 68, 0
2,66566, Note_on_c, 0, 49, 41
2,66566, Note_on_c, 0, 65, 50
2,66598, Note_on_c, 0, 49, 0
2,66610, Note_on_c, 0, 65, 0
2,66769, Note_on_c, 0, 66, 58
2,66773, Note_on_c, 0, 51, 49
2,67073, Note_on_c, 0, 71, 0
2,67129, Note_on_c, 0, 61, 70
2,67142, Note_on_c, 0, 70, 54
2,67143, Note_on_c, 0, 66, 0
2,67144, Note_on_c, 0, 53, 39
2,67183, Note_on_c, 0, 70, 0
2,67271, Note_on_c, 0, 51, 0
2,67298, Note_on_c, 0, 68, 59
2,67366, Note_on_c, 0, 68, 0
2,67509, Note_on_c, 0, 53, 0
2,67510, Note_on_c, 0, 70, 58
2,67528, Note_on_c, 0, 54, 39
2,67877, Note_on_c, 0, 63, 56
2,67886, Note_on_c, 0, 72, 56
2,67954, Note_on_c, 0, 70, 0
2,67966, Note_on_c, 0, 61, 0
2,68269, Note_on_c, 0, 73, 59
2,68277, Note_on_c, 0, 56, 44
2,68354, Note_on_c, 0, 72, 0
2,68446, Note_on_c, 0, 54, 0
2,68470, Note_on_c, 0, 63, 0
2,68651, Note_on_c, 0, 53, 43
2,68651, Note_on_c, 0, 68, 56
2,68698, Note_on_c, 0, 53, 0
2,68699, Note_on_c, 0, 68, 0
2,68808, Note_on_c, 0, 66, 57
2,68814, Note_on_c, 0, 51, 47
2,68851, Note_on_c, 0, 66, 0
2,68869, Note_on_c, 0, 51, 0
2,69029, Note_on_c, 0, 68, 66
2,69042, Note_on_c, 0, 53, 40
2,69374, Note_on_c, 0, 63, 80
2,69384, Note_on_c, 0, 55, 49
2,69393, Note_on_c, 0, 68, 0
2,69394, Note_on_c, 0, 72, 60
2,69402, Note_on_c, 0, 56, 0
2,69418, Note_on_c, 0, 73, 0
2,69436, Note_on_c, 0, 72, 0
2,69454, Note_on_c, 0, 53, 0
2,69548, Note_on_c, 0, 70, 70
2,69635, Note_on_c, 0, 70, 0
2,69742, Note_on_c, 0, 55, 0
2,69742, Note_on_c, 0, 72, 72
2,69743, Note_on_c, 0, 56, 58
2,70114, Note_on_c, 0, 65, 64
2,70124, Note_on_c, 0, 74, 74
2,70177, Note_on_c, 0, 72, 0
2,70207, Note_on_c, 0, 63, 0
2,70491, Note_on_c, 0, 58, 60
2,70491, Note_on_c, 0, 75, 72
2,70601, Note_on_c, 0, 74, 0
2,70655, Note_on_c, 0, 65, 0
2,70711, Note_on_c, 0, 56, 0
2,70850, Note_on_c, 0, 55, 61
2,70899, Note_on_c, 0, 55, 0
2,71018, Note_on_c, 0, 53, 64
2,71075, Note_on_c, 0, 53, 0
2,71219, Note_on_c, 0, 55, 71
2,71509, Note_on_c, 0, 58, 0
2,71566, Note_on_c, 0, 73, 73
2,71567, Note_on_c, 0, 65, 78
2,71574, Note_on_c, 0, 57, 58
2,71628, Note_on_c, 0, 75, 0
2,71687, Note_on_c, 0, 55, 0
2,71687, Note_on_c, 0, 73, 0
2,71742, Note_on_c, 0, 72, 73
2,71816, Note_on_c, 0, 72, 0
2,71909, Note_on_c, 0, 58, 51
2,71918, Note_on_c, 0, 73, 71
2,71934, Note_on_c, 0, 57, 0
2,72081, Note_on_c, 0, 58, 0
2,72093, Note_on_c, 0, 75, 77
2,72104, Note_on_c, 0, 60, 63
2,72111, Note_on_c, 0, 73, 0
2,72144, Note_on_c, 0, 60, 0
2,72265, Note_on_c, 0, 58, 81
2,72270, Note_on_c, 0, 73, 69
2,72293, Note_on_c, 0, 75, 0
2,72425, Note_on_c, 0, 75, 68
2,72431, Note_on_c, 0, 60, 64
2,72506, Note_on_c, 0, 58, 0
2,72520, Note_on_c, 0, 65, 0
2,72526, Note_on_c, 0, 73, 0
2,72603, Note_on_c, 0, 61, 54
2,72608, Note_on_c, 0, 77, 76
2,72617, Note_on_c, 0, 60, 0
2,72677, Note_on_c, 0, 75, 0
2,72704, Note_on_c, 0, 61, 0
2,72778, Note_on_c, 0, 60, 72
2,72856, Note_on_c, 0, 60, 0
2,72950, Note_on_c, 0, 58, 79
2,72958, Note_on_c, 0, 73, 84
2,73014, Note_on_c, 0, 58, 0
2,73114, Note_on_c, 0, 56, 84
2,73181, Note_on_c, 0, 56, 0
2,73266, Note_on_c, 0, 77, 0
2,73292, Note_on_c, 0, 54, 85
2,73298, Note_on_c, 0, 75, 81
2,73300, Note_on_c, 0, 72, 85
2,73343, Note_on_c, 0, 54, 0
2,73349, Note_on_c, 0, 73, 0
2,73461, Note_on_c, 0, 53, 90
2,73509, Note_on_c, 0, 53, 0
2,73641, Note_on_c, 0, 54, 95
2,73647, Note_on_c, 0, 70, 87
2,73655, Note_on_c, 0, 72, 0
2,73694, Note_on_c, 0, 54, 0
2,73800, Note_on_c, 0, 51, 90
2,73845, Note_on_c, 0, 51, 0
2,73997, Note_on_c, 0, 53, 91
2,74004, Note_on_c, 0, 69, 64
2,74022, Note_on_c, 0, 70, 0
2,74178, Note_on_c, 0, 70, 75
2,74196, Note_on_c, 0, 75, 0
2,74236, Note_on_c, 0, 69, 0
2,74281, Note_on_c, 0, 70, 0
2,74342, Note_on_c, 0, 75, 82
2,74361, Note_on_c, 0, 72, 68
2,74442, Note_on_c, 0, 72, 0
2,74514, Note_on_c, 0, 69, 67
2,74613, Note_on_c, 0, 69, 0
2,74713, Note_on_c, 0, 46, 60
2,74716, Note_on_c, 0, 65, 52
2,74720, Note_on_c, 0, 73, 69
2,74791, Note_on_c, 0, 75, 0
2,74865, Note_on_c, 0, 53, 0
2,75061, Note_on_c, 0, 72, 71
2,75066, Note_on_c, 0, 68, 60
2,75132, Note_on_c, 0, 65, 0
2,75196, Note_on_c, 0, 73, 0
2,75243, Note_on_c, 0, 46, 0
2,75434, Note_on_c, 0, 66, 59
2,75438, Note_on_c, 0, 70, 74
2,75479, Note_on_c, 0, 72, 0
2,75544, Note_on_c, 0, 68, 0
2,75596, Note_on_c, 0, 72, 79
2,75621, Note_on_c, 0, 66, 0
2,75633, Note_on_c, 0, 70, 0
2,75766, Note_on_c, 0, 61, 76
2,75775, Note_on_c, 0, 65, 65
2,75777, Note_on_c, 0, 73, 70
2,75791, Note_on_c, 0, 72, 0
2,75932, Note_on_c, 0, 70, 73
2,75966, Note_on_c, 0, 73, 0
2,76123, Note_on_c, 0, 60, 46
2,76123, Note_on_c, 0, 63, 54
2,76131, Note_on_c, 0, 65, 0
2,76154, Note_on_c, 0, 68, 61
2,76156, Note_on_c, 0, 70, 0
2,76236, Note_on_c, 0, 68, 0
2,76248, Note_on_c, 0, 66, 65
2,76274, Note_on_c, 0, 61, 0
2,76314, Note_on_c, 0, 66, 0
2,76329, Note_on_c, 0, 68, 70
2,76388, Note_on_c, 0, 68, 0
2,76389, Note_on_c, 0, 66, 73
2,76460, Note_on_c, 0, 68, 80
2,76461, Note_on_c, 0, 66, 0
2,76480, Note_on_c, 0, 58, 65
2,76480, Note_on_c, 0, 60, 0
2,76531, Note_on_c, 0, 66, 72
2,76531, Note_on_c, 0, 68, 0
2,76604, Note_on_c, 0, 66, 0
2,76607, Note_on_c, 0, 65, 72
2,76684, Note_on_c, 0, 66, 81
2,76727, Note_on_c, 0, 65, 0
2,76736, Note_on_c, 0, 66, 0
2,76791, Note_on_c, 0, 57, 59
2,76791, Note_on_c, 0, 77, 96
2,76801, Note_on_c, 0, 58, 0
2,76801, Note_on_c, 0, 65, 73
2,77100, Note_on_c, 0, 63, 0
2,77136, Note_on_c, 0, 56, 53
2,77155, Note_on_c, 0, 62, 75
2,77166, Note_on_c, 0, 57, 0
2,77188, Note_on_c, 0, 62, 0
2,77301, Note_on_c, 0, 60, 73
2,77339, Note_on_c, 0, 60, 0
2,77523, Note_on_c, 0, 70, 84
2,77540, Note_on_c, 0, 62, 52
2,77693, Note_on_c, 0, 65, 0
2,77717, Note_on_c, 0, 77, 0
2,77877, Note_on_c, 0, 54, 69
2,77893, Note_on_c, 0, 56, 0
2,77933, Note_on_c, 0, 54, 0
2,78036, Note_on_c, 0, 53, 68
2,78076, Note_on_c, 0, 53, 0
2,78264, Note_on_c, 0, 63, 76
2,78266, Note_on_c, 0, 54, 52
2,78296, Note_on_c, 0, 62, 0
2,78345, Note_on_c, 0, 70, 0
2,78348, Control_c, 0, 64, 44
2,78364, Control_c, 0, 64, 64
2,78379, Control_c, 0, 64, 73
2,78394, Control_c, 0, 64, 119
2,78410, Control_c, 0, 64, 127
2,78419, Note_on_c, 0, 63, 0
2,78608, Note_on_c, 0, 56, 62
2,78615, Note_on_c, 0, 83, 91
2,78866, Note_on_c, 0, 54, 0
2,78989, Note_on_c, 0, 62, 59
2,78991, Note_on_c, 0, 58, 64
2,78993, Note_on_c, 0, 82, 96
2,79048, Note_on_c, 0, 83, 0
2,79056, Control_c, 0, 64, 94
2,79064, Note_on_c, 0, 56, 0
2,79070, Control_c, 0, 64, 77
2,79086, Control_c, 0, 64, 64
2,79101, Control_c, 0, 64, 40
2,79116, Control_c, 0, 64, 0
2,79358, Note_on_c, 0, 77, 101
2,79361, Note_on_c, 0, 80, 81
2,79451, Control_c, 0, 64, 63
2,79462, Note_on_c, 0, 82, 0
2,79466, Control_c, 0, 64, 87
2,79481, Control_c, 0, 64, 127
2,79504, Note_on_c, 0, 80, 0
2,79735, Note_on_c, 0, 51, 77
2,79738, Note_on_c, 0, 78, 94
2,79742, Note_on_c, 0, 75, 99
2,79779, Control_c, 0, 64, 89
2,79785, Note_on_c, 0, 62, 0
2,79787, Note_on_c, 0, 77, 0
2,79793, Control_c, 0, 64, 69
2,79798, Note_on_c, 0, 58, 0
2,79809, Control_c, 0, 64, 39
2,79824, Control_c, 0, 64, 0
2,79961, Control_c, 0, 64, 52
2,79976, Control_c, 0, 64, 62
2,79990, Control_c, 0, 64, 69
2,80006, Control_c, 0, 64, 99
2,80021, Control_c, 0, 64, 127
2,80021, Note_on_c, 0, 75, 0
2,80109, Note_on_c, 0, 73, 87
2,80118, Note_on_c, 0, 70, 75
2,80254, Note_on_c, 0, 78, 0
2,80399, Note_on_c, 0, 70, 0
2,80420, Note_on_c, 0, 73, 0
2,80459, Note_on_c, 0, 71, 84
2,80467, Note_on_c, 0, 76, 88
2,80470, Note_on_c, 0, 44, 61
2,80475, Note_on_c, 0, 68, 74
2,80477, Control_c, 0, 64, 88
2,80501, Control_c, 0, 64, 66
2,80516, Control_c, 0, 64, 47
2,80531, Control_c, 0, 64, 20
2,80546, Control_c, 0, 64, 0
2,80553, Note_on_c, 0, 51, 0
2,80701, Note_on_c, 0, 68, 0
2,80834, Note_on_c, 0, 75, 84
2,80844, Note_on_c, 0, 66, 64
2,80881, Control_c, 0, 64, 30
2,80895, Control_c, 0, 64, 59
2,80910, Control_c, 0, 64, 66
2,80926, Control_c, 0, 64, 82
2,80941, Control_c, 0, 64, 127
2,80963, Note_on_c, 0, 76, 0
2,81061, Note_on_c, 0, 71, 0
2,81099, Note_on_c, 0, 66, 0
2,81208, Note_on_c, 0, 53, 80
2,81216, Note_on_c, 0, 70, 71
2,81216, Note_on_c, 0, 74, 80
2,81220, Note_on_c, 0, 65, 70
2,81268, Control_c, 0, 64, 96
2,81281, Note_on_c, 0, 75, 0
2,81284, Control_c, 0, 64, 80
2,81299, Control_c, 0, 64, 69
2,81314, Control_c, 0, 64, 62
2,81329, Control_c, 0, 64, 55
2,81344, Control_c, 0, 64, 47
2,81359, Control_c, 0, 64, 36
2,81375, Control_c, 0, 64, 9
2,81390, Control_c, 0, 64, 0
2,81586, Note_on_c, 0, 44, 0
2,81596, Note_on_c, 0, 42, 77
2,81761, Note_on_c, 0, 65, 0
2,81962, Note_on_c, 0, 75, 86
2,81965, Note_on_c, 0, 46, 74
2,81967, Note_on_c, 0, 66, 75
2,81975, Note_on_c, 0, 41, 67
2,82025, Note_on_c, 0, 42, 0
2,82048, Note_on_c, 0, 53, 0
2,82167, Note_on_c, 0, 74, 0
2,82344, Note_on_c, 0, 39, 68
2,82374, Note_on_c, 0, 46, 0
2,82388, Note_on_c, 0, 41, 0
2,82475, Note_on_c, 0, 66, 0
2,82717, Note_on_c, 0, 46, 66
2,82727, Note_on_c, 0, 65, 67
2,82752, Note_on_c, 0, 39, 0
2,83104, Note_on_c, 0, 59, 80
2,83391, Note_on_c, 0, 75, 0
2,83465, Note_on_c, 0, 74, 80
2,83474, Note_on_c, 0, 58, 72
2,83531, Note_on_c, 0, 59, 0
2,83836, Note_on_c, 0, 56, 75
2,83854, Note_on_c, 0, 65, 0
2,83888, Note_on_c, 0, 58, 0
2,83936, Note_on_c, 0, 70, 0
2,84229, Note_on_c, 0, 63, 63
2,84229, Note_on_c, 0, 75, 75
2,84232, Note_on_c, 0, 70, 68
2,84237, Note_on_c, 0, 51, 53
2,84251, Note_on_c, 0, 54, 51
2,84318, Note_on_c, 0, 46, 0
2,84379, Note_on_c, 0, 74, 0
2,84412, Note_on_c, 0, 56, 0
2,84570, Control_c, 0, 64, 25
2,84584, Control_c, 0, 64, 41
2,84600, Control_c, 0, 64, 50
2,84615, Control_c, 0, 64, 55
2,84630, Control_c, 0, 64, 59
2,84636, Note_on_c, 0, 53, 63
2,84646, Control_c, 0, 64, 62
2,84655, Note_on_c, 0, 54, 0
2,84661, Control_c, 0, 64, 64
2,84677, Control_c, 0, 64, 66
2,84691, Control_c, 0, 64, 69
2,84696, Note_on_c, 0, 75, 0
2,84706, Control_c, 0, 64, 72
2,84722, Control_c, 0, 64, 74
2,84737, Control_c, 0, 64, 74
2,84746, Note_on_c, 0, 63, 0
2,84827, Control_c, 0, 64, 74
2,84843, Control_c, 0, 64, 73
2,84858, Control_c, 0, 64, 72
2,84889, Control_c, 0, 64, 71
2,84903, Control_c, 0, 64, 70
2,84919, Control_c, 0, 64, 69
2,84934, Control_c, 0, 64, 67
2,84949, Control_c, 0, 64, 66
2,84964, Control_c, 0, 64, 65
2,84979, Control_c, 0, 64, 64
2,84995, Control_c, 0, 64, 63
2,85004, Note_on_c, 0, 63, 53
2,85009, Note_on_c, 0, 58, 44
2,85010, Control_c, 0, 64, 62
2,85011, Note_on_c, 0, 54, 44
2,85025, Control_c, 0, 64, 62
2,85040, Control_c, 0, 64, 61
2,85055, Control_c, 0, 64, 60
2,85062, Note_on_c, 0, 53, 0
2,85070, Control_c, 0, 64, 59
2,85086, Control_c, 0, 64, 58
2,85101, Control_c, 0, 64, 58
2,85124, Control_c, 0, 64, 57
2,85139, Control_c, 0, 64, 57
2,85155, Control_c, 0, 64, 56
2,85169, Control_c, 0, 64, 56
2,85180, Note_on_c, 0, 70, 0
2,85184, Control_c, 0, 64, 55
2,85200, Control_c, 0, 64, 54
2,85215, Control_c, 0, 64, 54
2,85245, Control_c, 0, 64, 53
2,85260, Control_c, 0, 64, 52
2,85291, Control_c, 0, 64, 52
2,85322, Control_c, 0, 64, 51
2,85336, Control_c, 0, 64, 51
2,85368, Control_c, 0, 64, 50
2,85379, Note_on_c, 0, 56, 45
2,85383, Control_c, 0, 64, 50
2,85389, Note_on_c, 0, 53, 41
2,85428, Control_c, 0, 64, 49
2,85428, Note_on_c, 0, 54, 0
2,85444, Control_c, 0, 64, 49
2,85475, Control_c, 0, 64, 48
2,85489, Control_c, 0, 64, 48
2,85504, Note_on_c, 0, 58, 0
2,85534, Note_on_c, 0, 63, 0
2,85535, Control_c, 0, 64, 47
2,85581, Control_c, 0, 64, 47
2,85626, Control_c, 0, 64, 46
2,85671, Control_c, 0, 64, 46
2,85718, Control_c, 0, 64, 45
2,85744, Note_on_c, 0, 53, 0
2,85763, Control_c, 0, 64, 45
2,85778, Control_c, 0, 64, 44
2,85779, Note_on_c, 0, 51, 0
2,85782, Note_on_c, 0, 58, 36
2,85786, Note_on_c, 0, 54, 39
2,85808, Control_c, 0, 64, 44
2,85830, Note_on_c, 0, 56, 0
2,85839, Control_c, 0, 64, 43
2,85854, Control_c, 0, 64, 43
2,85892, Control_c, 0, 64, 42
2,85907, Control_c, 0, 64, 41
2,85924, Control_c, 0, 64, 41
2,85955, Control_c, 0, 64, 40
2,85980, Note_on_c, 0, 58, 0
2,85984, Control_c, 0, 64, 39
2,86000, Control_c, 0, 64, 39
2,86014, Control_c, 0, 64, 38
2,86029, Control_c, 0, 64, 36
2,86045, Control_c, 0, 64, 35
2,86060, Control_c, 0, 64, 33
2,86076, Control_c, 0, 64, 32
2,86090, Control_c, 0, 64, 31
2,86105, Control_c, 0, 64, 29
2,86121, Control_c, 0, 64, 25
2,86136, Control_c, 0, 64, 22
2,86151, Control_c, 0, 64, 19
2,86157, Note_on_c, 0, 77, 57
2,86159, Note_on_c, 0, 60, 41
2,86160, Note_on_c, 0, 73, 47
2,86166, Control_c, 0, 64, 17
2,86182, Control_c, 0, 64, 12
2,86198, Control_c, 0, 64, 0
2,86218, Note_on_c, 0, 60, 0
2,86322, Note_on_c, 0, 61, 48
2,86383, Note_on_c, 0, 61, 0
2,86559, Note_on_c, 0, 75, 54
2,86560, Note_on_c, 0, 63, 40
2,86560, Note_on_c, 0, 72, 41
2,86669, Note_on_c, 0, 73, 0
2,86670, Note_on_c, 0, 77, 0
2,86939, Note_on_c, 0, 70, 46
2,86944, Note_on_c, 0, 73, 53
2,87015, Note_on_c, 0, 72, 0
2,87030, Note_on_c, 0, 75, 0
2,87317, Note_on_c, 0, 72, 47
2,87326, Note_on_c, 0, 69, 37
2,87388, Note_on_c, 0, 73, 0
2,87424, Note_on_c, 0, 70, 0
2,87700, Note_on_c, 0, 70, 49
2,87703, Note_on_c, 0, 53, 28
2,87708, Note_on_c, 0, 67, 41
2,87721, Note_on_c, 0, 61, 30
2,87789, Note_on_c, 0, 63, 0
2,87838, Note_on_c, 0, 54, 0
2,87844, Note_on_c, 0, 72, 0
2,87872, Note_on_c, 0, 69, 0
2,88064, Note_on_c, 0, 72, 63
2,88066, Note_on_c, 0, 69, 55
2,88082, Note_on_c, 0, 51, 43
2,88091, Note_on_c, 0, 60, 41
2,88116, Note_on_c, 0, 61, 0
2,88127, Note_on_c, 0, 67, 0
2,88143, Note_on_c, 0, 70, 0
2,88184, Note_on_c, 0, 53, 0
2,88427, Note_on_c, 0, 73, 64
2,88438, Note_on_c, 0, 70, 61
2,88444, Note_on_c, 0, 58, 45
2,88451, Note_on_c, 0, 49, 38
2,88519, Note_on_c, 0, 72, 0
2,88523, Note_on_c, 0, 51, 0
2,88567, Note_on_c, 0, 69, 0
2,88578, Note_on_c, 0, 60, 0
2,88828, Note_on_c, 0, 57, 38
2,88828, Note_on_c, 0, 75, 67
2,88840, Note_on_c, 0, 72, 57
2,88845, Note_on_c, 0, 48, 33
2,88933, Note_on_c, 0, 49, 0
2,88957, Note_on_c, 0, 73, 0
2,88963, Note_on_c, 0, 70, 0
2,88979, Note_on_c, 0, 58, 0
2,89100, Note_on_c, 0, 75, 0
2,89205, Note_on_c, 0, 72, 0
2,89209, Note_on_c, 0, 78, 67
2,89216, Note_on_c, 0, 75, 63
2,89222, Note_on_c, 0, 48, 0
2,89226, Note_on_c, 0, 57, 0
2,89598, Note_on_c, 0, 73, 47
2,89601, Note_on_c, 0, 77, 56
2,89608, Note_on_c, 0, 56, 34
2,89626, Note_on_c, 0, 53, 18
2,89697, Note_on_c, 0, 78, 0
2,89775, Note_on_c, 0, 75, 0
2,89987, Note_on_c, 0, 75, 55
2,89991, Note_on_c, 0, 71, 39
2,90067, Note_on_c, 0, 73, 0
2,90129, Note_on_c, 0, 77, 0
2,90345, Note_on_c, 0, 74, 42
2,90347, Note_on_c, 0, 70, 45
2,90373, Note_on_c, 0, 46, 29
2,90424, Note_on_c, 0, 75, 0
2,90462, Note_on_c, 0, 71, 0
2,90551, Note_on_c, 0, 53, 0
2,90564, Note_on_c, 0, 70, 0
2,90618, Note_on_c, 0, 74, 0
2,90730, Note_on_c, 0, 77, 59
2,90742, Note_on_c, 0, 74, 51
2,91108, Note_on_c, 0, 75, 55
2,91110, Note_on_c, 0, 72, 52
2,91111, Note_on_c, 0, 51, 39
2,91116, Note_on_c, 0, 54, 39
2,91166, Note_on_c, 0, 74, 0
2,91359, Note_on_c, 0, 46, 0
2,91375, Note_on_c, 0, 56, 0
2,91387, Note_on_c, 0, 77, 0
2,91476, Note_on_c, 0, 73, 56
2,91482, Note_on_c, 0, 70, 56
2,91522, Note_on_c, 0, 72, 0
2,91565, Note_on_c, 0, 75, 0
2,91878, Note_on_c, 0, 69, 44
2,91879, Note_on_c, 0, 72, 62
2,91996, Note_on_c, 0, 73, 0
2,91997, Note_on_c, 0, 70, 0
2,92281, Note_on_c, 0, 49, 38
2,92281, Note_on_c, 0, 53, 51
2,92317, Note_on_c, 0, 51, 0
2,92366, Note_on_c, 0, 54, 0
2,92634, Note_on_c, 0, 51, 51
2,92641, Note_on_c, 0, 73, 65
2,92647, Note_on_c, 0, 70, 59
2,92655, Note_on_c, 0, 48, 42
2,92731, Note_on_c, 0, 49, 0
2,92772, Note_on_c, 0, 53, 0
2,92830, Note_on_c, 0, 69, 0
2,92860, Note_on_c, 0, 72, 0
2,93023, Note_on_c, 0, 48, 0
2,93031, Note_on_c, 0, 46, 45
2,93038, Note_on_c, 0, 49, 49
2,93092, Note_on_c, 0, 51, 0
2,93392, Note_on_c, 0, 58, 39
2,93405, Note_on_c, 0, 54, 52
2,93410, Note_on_c, 0, 63, 69
2,93486, Note_on_c, 0, 46, 0
2,93518, Note_on_c, 0, 49, 0
2,93781, Note_on_c, 0, 72, 67
2,94088, Note_on_c, 0, 63, 0
2,94159, Note_on_c, 0, 55, 60
2,94162, Note_on_c, 0, 64, 54
2,94200, Note_on_c, 0, 73, 0
2,94270, Note_on_c, 0, 70, 0
2,94335, Note_on_c, 0, 54, 0
2,94340, Note_on_c, 0, 58, 0
2,94546, Note_on_c, 0, 60, 49
2,94551, Note_on_c, 0, 70, 62
2,94658, Note_on_c, 0, 64, 0
2,94679, Note_on_c, 0, 72, 0
2,94925, Note_on_c, 0, 53, 18
2,94928, Note_on_c, 0, 69, 52
2,94931, Note_on_c, 0, 61, 36
2,94932, Note_on_c, 0, 65, 38
2,94977, Note_on_c, 0, 70, 0
2,95059, Note_on_c, 0, 55, 0
2,95074, Note_on_c, 0, 60, 0
2,95087, Note_on_c, 0, 65, 0
2,95154, Note_on_c, 0, 69, 0
2,95303, Note_on_c, 0, 78, 70
2,95318, Note_on_c, 0, 60, 44
2,95322, Note_on_c, 0, 69, 44
2,95407, Note_on_c, 0, 61, 0
2,95671, Note_on_c, 0, 70, 70
2,95674, Note_on_c, 0, 77, 85
2,95680, Note_on_c, 0, 61, 65
2,95726, Note_on_c, 0, 78, 0
2,95796, Note_on_c, 0, 69, 0
2,95879, Note_on_c, 0, 60, 0
2,96046, Note_on_c, 0, 75, 83
2,96054, Note_on_c, 0, 72, 75
2,96060, Note_on_c, 0, 63, 71
2,96144, Note_on_c, 0, 70, 0
2,96155, Note_on_c, 0, 61, 0
2,96194, Note_on_c, 0, 77, 0
2,96211, Control_c, 0, 64, 33
2,96225, Control_c, 0, 64, 51
2,96241, Control_c, 0, 64, 61
2,96256, Control_c, 0, 64, 68
2,96271, Control_c, 0, 64, 80
2,96287, Control_c, 0, 64, 127
2,96295, Note_on_c, 0, 75, 0
2,96431, Note_on_c, 0, 73, 78
2,96450, Note_on_c, 0, 65, 56
2,96488, Note_on_c, 0, 63, 0
2,96515, Control_c, 0, 64, 115
2,96530, Control_c, 0, 64, 88
2,96544, Control_c, 0, 64, 75
2,96560, Control_c, 0, 64, 66
2,96575, Control_c, 0, 64, 56
2,96590, Control_c, 0, 64, 43
2,96606, Control_c, 0, 64, 38
2,96676, Note_on_c, 0, 72, 0
2,96689, Control_c, 0, 64, 39
2,96704, Control_c, 0, 64, 46
2,96719, Control_c, 0, 64, 57
2,96734, Control_c, 0, 64, 63
2,96749, Control_c, 0, 64, 69
2,96765, Control_c, 0, 64, 83
2,96780, Control_c, 0, 64, 127
2,96801, Note_on_c, 0, 70, 87
2,96942, Note_on_c, 0, 73, 0
2,97175, Note_on_c, 0, 41, 76
2,97183, Note_on_c, 0, 72, 94
2,97282, Control_c, 0, 64, 106
2,97297, Control_c, 0, 64, 90
2,97312, Control_c, 0, 64, 80
2,97328, Control_c, 0, 64, 73
2,97342, Control_c, 0, 64, 67
2,97358, Control_c, 0, 64, 61
2,97364, Note_on_c, 0, 53, 0
2,97373, Control_c, 0, 64, 55
2,97388, Control_c, 0, 64, 51
2,97411, Control_c, 0, 64, 50
2,97426, Control_c, 0, 64, 49
2,97443, Control_c, 0, 64, 47
2,97458, Control_c, 0, 64, 46
2,97474, Control_c, 0, 64, 45
2,97488, Control_c, 0, 64, 45
2,97503, Control_c, 0, 64, 44
2,97519, Control_c, 0, 64, 43
2,97533, Control_c, 0, 64, 42
2,97548, Control_c, 0, 64, 42
2,97606, Note_on_c, 0, 69, 83
2,97624, Control_c, 0, 64, 41
2,97688, Note_on_c, 0, 70, 0
2,97808, Control_c, 0, 64, 41
2,98108, Note_on_c, 0, 42, 72
2,98111, Note_on_c, 0, 70, 80
2,98242, Control_c, 0, 64, 40
2,98299, Note_on_c, 0, 41, 0
2,98302, Control_c, 0, 64, 40
2,98304, Note_on_c, 0, 69, 0
2,98311, Note_on_c, 0, 72, 0
2,98347, Control_c, 0, 64, 39
2,98579, Note_on_c, 0, 68, 74
2,98637, Control_c, 0, 64, 41
2,98652, Control_c, 0, 64, 47
2,98667, Control_c, 0, 64, 53
2,98682, Control_c, 0, 64, 59
2,98697, Control_c, 0, 64, 63
2,98712, Control_c, 0, 64, 68
2,98728, Control_c, 0, 64, 83
2,98743, Control_c, 0, 64, 127
2,98941, Note_on_c, 0, 66, 67
2,98947, Note_on_c, 0, 63, 63
2,98963, Control_c, 0, 64, 106
2,98978, Control_c, 0, 64, 85
2,98994, Control_c, 0, 64, 72
2,98994, Note_on_c, 0, 65, 0
2,99009, Control_c, 0, 64, 62
2,99024, Control_c, 0, 64, 45
2,99040, Control_c, 0, 64, 41
2,99055, Control_c, 0, 64, 43
2,99070, Control_c, 0, 64, 50
2,99086, Control_c, 0, 64, 56
2,99100, Control_c, 0, 64, 61
2,99116, Control_c, 0, 64, 66
2,99131, Control_c, 0, 64, 70
2,99146, Control_c, 0, 64, 80
2,99162, Control_c, 0, 64, 100
2,99176, Control_c, 0, 64, 127
2,99181, Note_on_c, 0, 66, 0
2,99267, Control_c, 0, 64, 119
2,99283, Control_c, 0, 64, 101
2,99294, Note_on_c, 0, 65, 69
2,99296, Note_on_c, 0, 61, 60
2,99299, Control_c, 0, 64, 87
2,99315, Control_c, 0, 64, 76
2,99329, Control_c, 0, 64, 68
2,99344, Control_c, 0, 64, 60
2,99348, Note_on_c, 0, 63, 0
2,99351, Note_on_c, 0, 68, 0
2,99360, Control_c, 0, 64, 49
2,99375, Control_c, 0, 64, 44
2,99436, Control_c, 0, 64, 45
2,99450, Control_c, 0, 64, 51
2,99465, Control_c, 0, 64, 58
2,99481, Control_c, 0, 64, 64
2,99496, Control_c, 0, 64, 68
2,99511, Control_c, 0, 64, 75
2,99526, Control_c, 0, 64, 89
2,99526, Note_on_c, 0, 61, 0
2,99541, Control_c, 0, 64, 127
2,99685, Note_on_c, 0, 68, 78
2,99696, Note_on_c, 0, 63, 50
2,99712, Note_on_c, 0, 59, 55
2,99717, Control_c, 0, 64, 99
2,99732, Control_c, 0, 64, 85
2,99734, Note_on_c, 0, 70, 0
2,99745, Control_c, 0, 64, 77
2,99761, Control_c, 0, 64, 72
2,99776, Control_c, 0, 64, 67
2,99791, Control_c, 0, 64, 61
2,99807, Control_c, 0, 64, 50
2,99822, Control_c, 0, 64, 41
2,99838, Control_c, 0, 64, 41
2,99853, Control_c, 0, 64, 40
2,99863, Note_on_c, 0, 65, 0
2,99867, Control_c, 0, 64, 37
2,99883, Control_c, 0, 64, 27
2,99898, Control_c, 0, 64, 0
2,99899, Note_on_c, 0, 63, 0
2,100020, Note_on_c, 0, 59, 0
2,100072, Note_on_c, 0, 41, 53
2,100080, Note_on_c, 0, 62, 70
2,100149, Note_on_c, 0, 62, 0
2,100156, Note_on_c, 0, 42, 0
2,100256, Note_on_c, 0, 63, 74
2,100320, Note_on_c, 0, 63, 0
2,100479, Note_on_c, 0, 65, 72
2,100487, Note_on_c, 0, 39, 53
2,100517, Note_on_c, 0, 41, 0
2,100838, Note_on_c, 0, 38, 55
2,100903, Note_on_c, 0, 39, 0
2,100940, Control_c, 0, 64, 11
2,100956, Control_c, 0, 64, 30
2,100971, Control_c, 0, 64, 42
2,100986, Control_c, 0, 64, 50
2,101002, Control_c, 0, 64, 54
2,101005, Note_on_c, 0, 68, 0
2,101016, Control_c, 0, 64, 57
2,101031, Control_c, 0, 64, 60
2,101047, Control_c, 0, 64, 63
2,101062, Control_c, 0, 64, 67
2,101078, Control_c, 0, 64, 74
2,101092, Control_c, 0, 64, 81
2,101107, Control_c, 0, 64, 85
2,101123, Control_c, 0, 64, 86
2,101137, Control_c, 0, 64, 86
2,101152, Control_c, 0, 64, 85
2,101168, Control_c, 0, 64, 84
2,101183, Control_c, 0, 64, 83
2,101199, Control_c, 0, 64, 82
2,101213, Control_c, 0, 64, 81
2,101228, Control_c, 0, 64, 78
2,101232, Note_on_c, 0, 66, 64
2,101247, Note_on_c, 0, 39, 44
2,101247, Note_on_c, 0, 58, 50
2,101252, Control_c, 0, 64, 76
2,101267, Control_c, 0, 64, 72
2,101284, Control_c, 0, 64, 69
2,101298, Control_c, 0, 64, 67
2,101314, Control_c, 0, 64, 65
2,101329, Control_c, 0, 64, 62
2,101343, Control_c, 0, 64, 59
2,101344, Note_on_c, 0, 65, 0
2,101359, Control_c, 0, 64, 55
2,101374, Control_c, 0, 64, 51
2,101379, Note_on_c, 0, 38, 0
2,101389, Control_c, 0, 64, 49
2,101405, Control_c, 0, 64, 48
2,101419, Control_c, 0, 64, 47
2,101435, Control_c, 0, 64, 46
2,101450, Control_c, 0, 64, 43
2,101465, Control_c, 0, 64, 41
2,101480, Control_c, 0, 64, 39
2,101495, Control_c, 0, 64, 37
2,101510, Control_c, 0, 64, 37
2,101617, Note_on_c, 0, 65, 61
2,101624, Note_on_c, 0, 61, 49
2,101632, Control_c, 0, 64, 38
2,101648, Control_c, 0, 64, 41
2,101662, Control_c, 0, 64, 44
2,101678, Control_c, 0, 64, 47
2,101693, Control_c, 0, 64, 52
2,101708, Control_c, 0, 64, 55
2,101717, Note_on_c, 0, 58, 0
2,101724, Control_c, 0, 64, 58
2,101739, Control_c, 0, 64, 61
2,101755, Control_c, 0, 64, 63
2,101770, Control_c, 0, 64, 66
2,101785, Control_c, 0, 64, 71
2,101801, Control_c, 0, 64, 80
2,101816, Control_c, 0, 64, 96
2,101830, Control_c, 0, 64, 127
2,101982, Control_c, 0, 64, 109
2,101998, Control_c, 0, 64, 100
2,102014, Note_on_c, 0, 60, 50
2,102017, Note_on_c, 0, 51, 64
2,102018, Note_on_c, 0, 63, 54
2,102020, Control_c, 0, 64, 93
2,102036, Control_c, 0, 64, 88
2,102051, Control_c, 0, 64, 83
2,102057, Note_on_c, 0, 39, 0
2,102066, Control_c, 0, 64, 78
2,102082, Control_c, 0, 64, 74
2,102097, Control_c, 0, 64, 71
2,102100, Note_on_c, 0, 65, 0
2,102111, Control_c, 0, 64, 69
2,102117, Note_on_c, 0, 61, 0
2,102127, Control_c, 0, 64, 67
2,102142, Control_c, 0, 64, 65
2,102158, Control_c, 0, 64, 64
2,102173, Control_c, 0, 64, 62
2,102187, Control_c, 0, 64, 59
2,102203, Control_c, 0, 64, 57
2,102218, Control_c, 0, 64, 56
2,102234, Control_c, 0, 64, 55
2,102249, Control_c, 0, 64, 54
2,102263, Control_c, 0, 64, 53
2,102279, Control_c, 0, 64, 52
2,102294, Control_c, 0, 64, 51
2,102309, Control_c, 0, 64, 50
2,102324, Control_c, 0, 64, 50
2,102339, Control_c, 0, 64, 49
2,102355, Control_c, 0, 64, 48
2,102370, Control_c, 0, 64, 48
2,102385, Control_c, 0, 64, 47
2,102400, Control_c, 0, 64, 47
2,102405, Note_on_c, 0, 61, 52
2,102409, Note_on_c, 0, 58, 45
2,102430, Control_c, 0, 64, 46
2,102446, Control_c, 0, 64, 46
2,102461, Control_c, 0, 64, 45
2,102476, Control_c, 0, 64, 45
2,102491, Control_c, 0, 64, 44
2,102495, Note_on_c, 0, 63, 0
2,102504, Note_on_c, 0, 60, 0
2,102506, Control_c, 0, 64, 44
2,102522, Control_c, 0, 64, 43
2,102537, Control_c, 0, 64, 43
2,102568, Control_c, 0, 64, 42
2,102599, Control_c, 0, 64, 42
2,102614, Control_c, 0, 64, 41
2,102628, Control_c, 0, 64, 41
2,102644, Control_c, 0, 64, 40
2,102675, Control_c, 0, 64, 40
2,102721, Control_c, 0, 64, 39
2,102786, Note_on_c, 0, 65, 58
2,102788, Control_c, 0, 64, 39
2,102789, Note_on_c, 0, 60, 44
2,102790, Note_on_c, 0, 57, 35
2,102850, Note_on_c, 0, 61, 0
2,102866, Control_c, 0, 64, 38
2,102897, Note_on_c, 0, 58, 0
2,102928, Control_c, 0, 64, 38
2,103004, Control_c, 0, 64, 37
2,103034, Control_c, 0, 64, 37
2,103049, Control_c, 0, 64, 36
2,103060, Note_on_c, 0, 66, 0
2,103064, Control_c, 0, 64, 36
2,103080, Control_c, 0, 64, 35
2,103095, Control_c, 0, 64, 34
2,103110, Control_c, 0, 64, 34
2,103125, Control_c, 0, 64, 33
2,103140, Control_c, 0, 64, 32
2,103156, Control_c, 0, 64, 30
2,103166, Note_on_c, 0, 49, 35
2,103166, Note_on_c, 0, 63, 46
2,103170, Control_c, 0, 64, 30
2,103185, Control_c, 0, 64, 29
2,103188, Note_on_c, 0, 51, 0
2,103201, Control_c, 0, 64, 28
2,103211, Note_on_c, 0, 49, 0
2,103215, Note_on_c, 0, 60, 0
2,103216, Control_c, 0, 64, 27
2,103232, Control_c, 0, 64, 26
2,103246, Control_c, 0, 64, 25
2,103261, Control_c, 0, 64, 24
2,103277, Control_c, 0, 64, 24
2,103292, Control_c, 0, 64, 23
2,103328, Note_on_c, 0, 48, 42
2,103359, Note_on_c, 0, 48, 0
2,103539, Note_on_c, 0, 70, 64
2,103553, Note_on_c, 0, 58, 43
2,103558, Note_on_c, 0, 49, 29
2,103559, Control_c, 0, 64, 24
2,103589, Control_c, 0, 64, 25
2,103603, Control_c, 0, 64, 27
2,103618, Control_c, 0, 64, 28
2,103624, Note_on_c, 0, 63, 0
2,103634, Control_c, 0, 64, 30
2,103649, Control_c, 0, 64, 31
2,103664, Control_c, 0, 64, 33
2,103668, Note_on_c, 0, 57, 0
2,103680, Control_c, 0, 64, 34
2,103695, Control_c, 0, 64, 37
2,103711, Control_c, 0, 64, 39
2,103726, Control_c, 0, 64, 40
2,103741, Control_c, 0, 64, 41
2,103756, Control_c, 0, 64, 42
2,103771, Control_c, 0, 64, 43
2,103786, Control_c, 0, 64, 44
2,103801, Control_c, 0, 64, 45
2,103816, Control_c, 0, 64, 46
2,103832, Control_c, 0, 64, 47
2,103847, Control_c, 0, 64, 48
2,103862, Control_c, 0, 64, 48
2,103877, Control_c, 0, 64, 49
2,103892, Control_c, 0, 64, 51
2,103908, Control_c, 0, 64, 53
2,103917, Note_on_c, 0, 51, 40
2,103918, Note_on_c, 0, 61, 50
2,103923, Control_c, 0, 64, 54
2,103938, Control_c, 0, 64, 56
2,103953, Control_c, 0, 64, 58
2,103968, Control_c, 0, 64, 60
2,103983, Control_c, 0, 64, 63
2,103998, Note_on_c, 0, 65, 0
2,103999, Control_c, 0, 64, 65
2,104013, Control_c, 0, 64, 68
2,104029, Control_c, 0, 64, 76
2,104044, Control_c, 0, 64, 93
2,104059, Control_c, 0, 64, 127
2,104296, Note_on_c, 0, 65, 71
2,104298, Note_on_c, 0, 57, 41
2,104302, Note_on_c, 0, 53, 37
2,104318, Note_on_c, 0, 60, 39
2,104372, Control_c, 0, 64, 110
2,104388, Control_c, 0, 64, 97
2,104402, Control_c, 0, 64, 86
2,104417, Control_c, 0, 64, 77
2,104433, Control_c, 0, 64, 69
2,104438, Note_on_c, 0, 61, 0
2,104447, Control_c, 0, 64, 63
2,104458, Note_on_c, 0, 51, 0
2,104462, Control_c, 0, 64, 55
2,104468, Note_on_c, 0, 70, 0
2,104469, Note_on_c, 0, 58, 0
2,104475, Note_on_c, 0, 49, 0
2,104478, Control_c, 0, 64, 49
2,104493, Control_c, 0, 64, 48
2,104584, Control_c, 0, 64, 48
2,104600, Control_c, 0, 64, 51
2,104615, Control_c, 0, 64, 54
2,104631, Control_c, 0, 64, 57
2,104645, Control_c, 0, 64, 61
2,104660, Control_c, 0, 64, 64
2,104674, Note_on_c, 0, 51, 57
2,104676, Control_c, 0, 64, 66
2,104691, Control_c, 0, 64, 71
2,104706, Control_c, 0, 64, 78
2,104721, Control_c, 0, 64, 96
2,104736, Control_c, 0, 64, 127
2,104760, Note_on_c, 0, 60, 0
2,104772, Note_on_c, 0, 53, 0
2,104916, Note_on_c, 0, 57, 0
2,105034, Note_on_c, 0, 58, 76
2,105050, Note_on_c, 0, 49, 44
2,105056, Control_c, 0, 64, 102
2,105072, Control_c, 0, 64, 81
2,105094, Control_c, 0, 64, 67
2,105099, Note_on_c, 0, 51, 0
2,105110, Control_c, 0, 64, 56
2,105126, Control_c, 0, 64, 42
2,105138, Note_on_c, 0, 65, 0
2,105141, Control_c, 0, 64, 43
2,105157, Control_c, 0, 64, 50
2,105171, Control_c, 0, 64, 57
2,105186, Control_c, 0, 64, 62
2,105202, Control_c, 0, 64, 66
2,105217, Control_c, 0, 64, 72
2,105233, Control_c, 0, 64, 88
2,105237, Note_on_c, 0, 58, 0
2,105247, Control_c, 0, 64, 127
2,105416, Note_on_c, 0, 78, 83
2,105419, Note_on_c, 0, 48, 56
2,105516, Note_on_c, 0, 49, 0
2,105777, Note_on_c, 0, 53, 79
2,105791, Note_on_c, 0, 77, 78
2,105799, Note_on_c, 0, 73, 62
2,105800, Note_on_c, 0, 49, 61
2,105809, Control_c, 0, 64, 107
2,105823, Control_c, 0, 64, 98
2,105839, Control_c, 0, 64, 91
2,105854, Note_on_c, 0, 78, 0
2,105863, Control_c, 0, 64, 84
2,105878, Control_c, 0, 64, 76
2,105892, Note_on_c, 0, 48, 0
2,105893, Control_c, 0, 64, 69
2,105909, Control_c, 0, 64, 64
2,105922, Control_c, 0, 64, 60
2,105937, Control_c, 0, 64, 56
2,105952, Control_c, 0, 64, 54
2,105968, Control_c, 0, 64, 51
2,105982, Control_c, 0, 64, 46
2,105998, Control_c, 0, 64, 40
2,106013, Control_c, 0, 64, 33
2,106028, Control_c, 0, 64, 24
2,106044, Control_c, 0, 64, 12
2,106058, Control_c, 0, 64, 0
2,106157, Note_on_c, 0, 45, 64
2,106157, Note_on_c, 0, 49, 0
2,106165, Note_on_c, 0, 72, 72
2,106165, Note_on_c, 0, 75, 80
2,106205, Note_on_c, 0, 73, 0
2,106533, Note_on_c, 0, 46, 74
2,106535, Note_on_c, 0, 73, 79
2,106537, Note_on_c, 0, 70, 71
2,106537, Note_on_c, 0, 77, 0
2,106648, Note_on_c, 0, 72, 0
2,106665, Note_on_c, 0, 53, 0
2,106670, Note_on_c, 0, 45, 0
2,106688, Note_on_c, 0, 75, 0
2,106814, Note_on_c, 0, 70, 0
2,106909, Note_on_c, 0, 72, 84
2,106910, Note_on_c, 0, 69, 59
2,106911, Note_on_c, 0, 66, 69
2,106974, Note_on_c, 0, 73, 0
2,107022, Control_c, 0, 64, 21
2,107038, Control_c, 0, 64, 40
2,107053, Control_c, 0, 64, 51
2,107068, Control_c, 0, 64, 59
2,107084, Control_c, 0, 64, 65
2,107098, Control_c, 0, 64, 71
2,107113, Control_c, 0, 64, 90
2,107129, Control_c, 0, 64, 127
2,107131, Note_on_c, 0, 72, 0
2,107145, Note_on_c, 0, 66, 0
2,107272, Note_on_c, 0, 41, 74
2,107275, Note_on_c, 0, 46, 0
2,107281, Control_c, 0, 64, 117
2,107283, Note_on_c, 0, 70, 72
2,107286, Note_on_c, 0, 73, 81
2,107293, Note_on_c, 0, 65, 70
2,107296, Control_c, 0, 64, 88
2,107310, Control_c, 0, 64, 73
2,107325, Note_on_c, 0, 69, 0
2,107326, Control_c, 0, 64, 61
2,107341, Control_c, 0, 64, 40
2,107357, Control_c, 0, 64, 0
2,107440, Control_c, 0, 64, 32
2,107455, Control_c, 0, 64, 59
2,107460, Note_on_c, 0, 41, 0
2,107470, Control_c, 0, 64, 67
2,107471, Note_on_c, 0, 65, 0
2,107487, Control_c, 0, 64, 79
2,107502, Control_c, 0, 64, 127
2,107513, Note_on_c, 0, 73, 0
2,107521, Note_on_c, 0, 70, 0
2,107655, Note_on_c, 0, 75, 92
2,107658, Note_on_c, 0, 60, 75
2,107664, Note_on_c, 0, 69, 72
2,107669, Note_on_c, 0, 63, 75
2,107699, Control_c, 0, 64, 107
2,107715, Control_c, 0, 64, 87
2,107730, Control_c, 0, 64, 74
2,107744, Control_c, 0, 64, 67
2,107760, Control_c, 0, 64, 62
2,107774, Note_on_c, 0, 69, 0
2,107775, Control_c, 0, 64, 59
2,107790, Control_c, 0, 64, 56
2,107806, Control_c, 0, 64, 52
2,107820, Control_c, 0, 64, 50
2,107836, Control_c, 0, 64, 47
2,107851, Control_c, 0, 64, 44
2,107866, Control_c, 0, 64, 42
2,107882, Control_c, 0, 64, 40
2,107894, Note_on_c, 0, 63, 0
2,107897, Control_c, 0, 64, 39
2,107911, Control_c, 0, 64, 36
2,107927, Control_c, 0, 64, 33
2,107942, Control_c, 0, 64, 30
2,107958, Control_c, 0, 64, 25
2,107973, Control_c, 0, 64, 19
2,107988, Control_c, 0, 64, 0
2,108021, Note_on_c, 0, 61, 69
2,108022, Note_on_c, 0, 58, 67
2,108022, Note_on_c, 0, 77, 88
2,108025, Note_on_c, 0, 70, 76
2,108062, Note_on_c, 0, 75, 0
2,108099, Note_on_c, 0, 60, 0
2,108383, Note_on_c, 0, 60, 84
2,108392, Note_on_c, 0, 54, 71
2,108395, Note_on_c, 0, 57, 64
2,108395, Note_on_c, 0, 75, 82
2,108398, Note_on_c, 0, 72, 84
2,108423, Note_on_c, 0, 61, 0
2,108423, Note_on_c, 0, 70, 0
2,108435, Note_on_c, 0, 58, 0
2,108438, Note_on_c, 0, 77, 0
2,108657, Note_on_c, 0, 54, 0
2,108662, Note_on_c, 0, 72, 0
2,108705, Note_on_c, 0, 57, 0
2,108752, Note_on_c, 0, 73, 85
2,108753, Note_on_c, 0, 70, 77
2,108754, Note_on_c, 0, 58, 74
2,108758, Note_on_c, 0, 61, 75
2,108760, Note_on_c, 0, 75, 0
2,108763, Note_on_c, 0, 53, 68
2,108808, Note_on_c, 0, 60, 0
2,108830, Note_on_c, 0, 70, 0
2,108859, Note_on_c, 0, 73, 0
2,108923, Note_on_c, 0, 58, 0
2,108937, Note_on_c, 0, 63, 89
2,108965, Note_on_c, 0, 61, 0
2,109020, Note_on_c, 0, 63, 0
2,109136, Note_on_c, 0, 65, 84
2,109139, Note_on_c, 0, 51, 71
2,109143, Note_on_c, 0, 72, 88
2,109147, Note_on_c, 0, 69, 73
2,109148, Note_on_c, 0, 60, 67
2,109167, Note_on_c, 0, 53, 0
2,109279, Control_c, 0, 64, 50
2,109295, Control_c, 0, 64, 64
2,109309, Control_c, 0, 64, 78
2,109325, Control_c, 0, 64, 127
2,109348, Note_on_c, 0, 60, 0
2,109417, Note_on_c, 0, 72, 0
2,109524, Note_on_c, 0, 51, 0
2,109528, Note_on_c, 0, 49, 66
2,109529, Note_on_c, 0, 61, 70
2,109529, Note_on_c, 0, 70, 88
2,109582, Control_c, 0, 64, 82
2,109597, Control_c, 0, 64, 61
2,109598, Note_on_c, 0, 69, 0
2,109613, Control_c, 0, 64, 0
2,109931, Note_on_c, 0, 48, 62
2,109934, Note_on_c, 0, 66, 80
2,109941, Note_on_c, 0, 63, 75
2,109979, Note_on_c, 0, 49, 0
2,110004, Note_on_c, 0, 65, 0
2,110056, Note_on_c, 0, 61, 0
2,110383, Note_on_c, 0, 50, 60
2,110391, Note_on_c, 0, 58, 56
2,110398, Note_on_c, 0, 65, 68
2,110398, Note_on_c, 0, 68, 78
2,110477, Note_on_c, 0, 66, 0
2,110491, Note_on_c, 0, 63, 0
2,110555, Control_c, 0, 64, 45
2,110571, Control_c, 0, 64, 61
2,110582, Note_on_c, 0, 48, 0
2,110586, Control_c, 0, 64, 72
2,110602, Control_c, 0, 64, 100
2,110616, Control_c, 0, 64, 127
2,110656, Note_on_c, 0, 70, 0
2,110658, Note_on_c, 0, 65, 0
2,110791, Note_on_c, 0, 72, 86
2,110794, Note_on_c, 0, 66, 72
2,110798, Note_on_c, 0, 63, 77
2,110804, Note_on_c, 0, 51, 73
2,110815, Control_c, 0, 64, 117
2,110823, Note_on_c, 0, 68, 0
2,110830, Control_c, 0, 64, 90
2,110845, Control_c, 0, 64, 74
2,110860, Control_c, 0, 64, 60
2,110869, Note_on_c, 0, 58, 0
2,110875, Control_c, 0, 64, 29
2,110891, Control_c, 0, 64, 0
2,110940, Note_on_c, 0, 50, 0
2,111116, Note_on_c, 0, 63, 0
2,111117, Note_on_c, 0, 66, 0
2,111195, Note_on_c, 0, 53, 77
2,111206, Note_on_c, 0, 73, 91
2,111211, Note_on_c, 0, 65, 76
2,111222, Note_on_c, 0, 61, 76
2,111234, Note_on_c, 0, 51, 0
2,111272, Note_on_c, 0, 72, 0
2,111352, Note_on_c, 0, 53, 0
2,111408, Note_on_c, 0, 54, 85
2,111474, Note_on_c, 0, 54, 0
2,111608, Note_on_c, 0, 52, 91
2,111676, Note_on_c, 0, 52, 0
2,111738, Note_on_c, 0, 65, 0
2,111798, Note_on_c, 0, 53, 93
2,111859, Note_on_c, 0, 53, 0
2,112070, Note_on_c, 0, 40, 76
2,112079, Note_on_c, 0, 67, 88
2,112129, Note_on_c, 0, 61, 0
2,112149, Note_on_c, 0, 73, 0
2,112503, Note_on_c, 0, 73, 89
2,112769, Control_c, 0, 64, 9
2,112784, Control_c, 0, 64, 17
2,112799, Control_c, 0, 64, 20
2,112814, Control_c, 0, 64, 21
2,112917, Note_on_c, 0, 60, 88
2,112917, Note_on_c, 0, 72, 87
2,112972, Note_on_c, 0, 73, 0
2,113038, Note_on_c, 0, 67, 0
2,113302, Note_on_c, 0, 70, 87
2,113363, Control_c, 0, 64, 21
2,113377, Control_c, 0, 64, 28
2,113392, Control_c, 0, 64, 38
2,113408, Control_c, 0, 64, 46
2,113423, Control_c, 0, 64, 54
2,113438, Control_c, 0, 64, 61
2,113453, Control_c, 0, 64, 66
2,113468, Control_c, 0, 64, 74
2,113484, Control_c, 0, 64, 92
2,113499, Control_c, 0, 64, 127
2,113584, Note_on_c, 0, 70, 0
2,113590, Note_on_c, 0, 60, 0
2,113766, Note_on_c, 0, 70, 90
2,113768, Note_on_c, 0, 60, 81
2,113768, Note_on_c, 0, 65, 78
2,113772, Note_on_c, 0, 41, 69
2,113795, Control_c, 0, 64, 111
2,113811, Control_c, 0, 64, 94
2,113826, Control_c, 0, 64, 86
2,113842, Control_c, 0, 64, 81
2,113856, Control_c, 0, 64, 77
2,113873, Control_c, 0, 64, 73
2,113878, Note_on_c, 0, 40, 0
2,113889, Control_c, 0, 64, 69
2,113904, Control_c, 0, 64, 66
2,113920, Control_c, 0, 64, 63
2,113935, Control_c, 0, 64, 61
2,113950, Control_c, 0, 64, 58
2,113966, Control_c, 0, 64, 55
2,113981, Control_c, 0, 64, 52
2,113996, Control_c, 0, 64, 50
2,114000, Note_on_c, 0, 72, 0
2,114011, Control_c, 0, 64, 46
2,114026, Control_c, 0, 64, 43
2,114042, Control_c, 0, 64, 41
2,114057, Control_c, 0, 64, 39
2,114072, Control_c, 0, 64, 36
2,114088, Control_c, 0, 64, 33
2,114103, Control_c, 0, 64, 31
2,114119, Control_c, 0, 64, 30
2,114134, Control_c, 0, 64, 29
2,114148, Control_c, 0, 64, 28
2,114164, Control_c, 0, 64, 27
2,114179, Control_c, 0, 64, 26
2,114195, Control_c, 0, 64, 25
2,114222, Note_on_c, 0, 66, 85
2,114224, Control_c, 0, 64, 25
2,114368, Control_c, 0, 64, 25
2,114383, Control_c, 0, 64, 26
2,114399, Control_c, 0, 64, 31
2,114414, Control_c, 0, 64, 37
2,114416, Note_on_c, 0, 65, 0
2,114423, Note_on_c, 0, 70, 0
2,114428, Control_c, 0, 64, 47
2,114444, Control_c, 0, 64, 55
2,114459, Control_c, 0, 64, 62
2,114475, Control_c, 0, 64, 66
2,114490, Control_c, 0, 64, 75
2,114504, Control_c, 0, 64, 90
2,114520, Control_c, 0, 64, 110
2,114535, Control_c, 0, 64, 127
2,114725, Note_on_c, 0, 69, 82
2,114726, Note_on_c, 0, 65, 79
2,114731, Note_on_c, 0, 53, 73
2,114733, Control_c, 0, 64, 113
2,114748, Control_c, 0, 64, 102
2,114763, Control_c, 0, 64, 91
2,114778, Control_c, 0, 64, 81
2,114783, Note_on_c, 0, 66, 0
2,114793, Control_c, 0, 64, 74
2,114809, Control_c, 0, 64, 70
2,114824, Control_c, 0, 64, 67
2,114839, Control_c, 0, 64, 65
2,114855, Control_c, 0, 64, 63
2,114870, Control_c, 0, 64, 59
2,114877, Note_on_c, 0, 60, 0
2,114886, Control_c, 0, 64, 57
2,114901, Control_c, 0, 64, 55
2,114917, Control_c, 0, 64, 53
2,114932, Control_c, 0, 64, 51
2,114946, Control_c, 0, 64, 49
2,114962, Control_c, 0, 64, 46
2,114977, Control_c, 0, 64, 45
2,114991, Control_c, 0, 64, 44
2,115007, Control_c, 0, 64, 42
2,115022, Control_c, 0, 64, 40
2,115038, Control_c, 0, 64, 38
2,115053, Control_c, 0, 64, 35
2,115076, Control_c, 0, 64, 33
2,115091, Control_c, 0, 64, 30
2,115106, Control_c, 0, 64, 27
2,115121, Control_c, 0, 64, 24
2,115136, Control_c, 0, 64, 23
2,115151, Control_c, 0, 64, 22
2,115167, Control_c, 0, 64, 21
2,115182, Control_c, 0, 64, 20
2,115197, Control_c, 0, 64, 19
2,115212, Control_c, 0, 64, 17
2,115227, Control_c, 0, 64, 16
2,115243, Control_c, 0, 64, 13
2,115258, Control_c, 0, 64, 12
2,115272, Control_c, 0, 64, 11
2,115292, Note_on_c, 0, 63, 67
2,115338, Note_on_c, 0, 65, 0
2,115455, Control_c, 0, 64, 12
2,115516, Control_c, 0, 64, 13
2,115546, Control_c, 0, 64, 15
2,115562, Control_c, 0, 64, 16
2,115577, Control_c, 0, 64, 17
2,115607, Control_c, 0, 64, 17
2,115638, Control_c, 0, 64, 19
2,115653, Control_c, 0, 64, 20
2,115668, Control_c, 0, 64, 21
2,115745, Control_c, 0, 64, 21
2,115806, Control_c, 0, 64, 22
2,115821, Control_c, 0, 64, 23
2,115838, Note_on_c, 0, 63, 0
2,115843, Control_c, 0, 64, 23
2,115867, Note_on_c, 0, 41, 0
2,115904, Control_c, 0, 64, 24
2,115965, Control_c, 0, 64, 24
2,116026, Control_c, 0, 64, 25
2,116102, Control_c, 0, 64, 25
2,116117, Control_c, 0, 64, 26
2,116177, Control_c, 0, 64, 26
2,116192, Control_c, 0, 64, 27
2,116208, Control_c, 0, 64, 27
2,116217, Note_on_c, 0, 58, 51
2,116219, Note_on_c, 0, 62, 50
2,116226, Note_on_c, 0, 70, 61
2,116236, Note_on_c, 0, 46, 31
2,116238, Control_c, 0, 64, 28
2,116253, Control_c, 0, 64, 28
2,116268, Control_c, 0, 64, 29
2,116441, Note_on_c, 0, 69, 0
2,116718, Control_c, 0, 64, 29
2,116793, Control_c, 0, 64, 30
2,116855, Control_c, 0, 64, 30
2,116869, Control_c, 0, 64, 31
2,116885, Control_c, 0, 64, 32
2,116946, Control_c, 0, 64, 33
2,116961, Control_c, 0, 64, 34
2,116976, Control_c, 0, 64, 35
2,117067, Control_c, 0, 64, 36
2,117112, Control_c, 0, 64, 36
2,117159, Control_c, 0, 64, 37
2,117204, Control_c, 0, 64, 37
2,117218, Control_c, 0, 64, 38
2,117249, Control_c, 0, 64, 38
2,117295, Control_c, 0, 64, 39
2,117395, Control_c, 0, 64, 39
2,120046, Note_on_c, 0, 62, 0
2,120059, Note_on_c, 0, 53, 0
2,120065, Note_on_c, 0, 46, 0
2,120073, Note_on_c, 0, 58, 0
2,120123, Note_on_c, 0, 70, 0
2,120124, End_track
0, 0, End_of_file
