0, 0, Header, 1, 2, 384
1, 0, Start_track
1, 0, Tempo, 500000
1, 0, Time_signature, 4, 2, 24, 8
1, 1, End_track
2, 0, Start_track
2, 0, Program_c, 0, 0
2, 0, Control_c, 0, 64, 127
2, 733, Note_on_c, 0, 61, 60
2, 748, Note_on_c, 0, 58, 45
2, 835, Control_c, 0, 64, 93
2, 850, Control_c, 0, 64, 80
2, 866, Control_c, 0, 64, 71
2, 881, Control_c, 0, 64, 66
2, 897, Control_c, 0, 64, 62
2, 912, Control_c, 0, 64, 55
2, 927, Control_c, 0, 64, 49
2, 942, Control_c, 0, 64, 45
2, 957, Control_c, 0, 64, 43
2, 973, Control_c, 0, 64, 43
2, 1018, Control_c, 0, 64, 44
2, 1033, Control_c, 0, 64, 48
2, 1056, Control_c, 0, 64, 56
2, 1071, Control_c, 0, 64, 61
2, 1086, Control_c, 0, 64, 64
2, 1102, Control_c, 0, 64, 66
2, 1117, Control_c, 0, 64, 69
2, 1133, Control_c, 0, 64, 72
2, 1135, Note_on_c, 0, 58, 0
2, 1149, Control_c, 0, 64, 76
2, 1164, Control_c, 0, 64, 83
2, 1179, Control_c, 0, 64, 91
2, 1194, Control_c, 0, 64, 99
2, 1209, Control_c, 0, 64, 102
2, 1255, Control_c, 0, 64, 101
2, 1270, Control_c, 0, 64, 100
2, 1285, Control_c, 0, 64, 99
2, 1300, Control_c, 0, 64, 98
2, 1315, Control_c, 0, 64, 97
2, 1330, Control_c, 0, 64, 95
2, 1343, Note_on_c, 0, 70, 50
2, 1346, Control_c, 0, 64, 93
2, 1360, Note_on_c, 0, 58, 31
2, 1361, Control_c, 0, 64, 90
2, 1365, Note_on_c, 0, 65, 36
2, 1377, Control_c, 0, 64, 87
2, 1392, Control_c, 0, 64, 85
2, 1407, Control_c, 0, 64, 82
2, 1422, Control_c, 0, 64, 81
2, 1437, Control_c, 0, 64, 78
2, 1453, Control_c, 0, 64, 75
2, 1468, Control_c, 0, 64, 73
2, 1483, Control_c, 0, 64, 71
2, 1499, Control_c, 0, 64, 69
2, 1513, Control_c, 0, 64, 69
2, 1528, Control_c, 0, 64, 67
2, 1544, Control_c, 0, 64, 66
2, 1559, Control_c, 0, 64, 64
2, 1575, Control_c, 0, 64, 62
2, 1589, Control_c, 0, 64, 61
2, 1604, Control_c, 0, 64, 60
2, 1620, Control_c, 0, 64, 59
2, 1635, Control_c, 0, 64, 57
2, 1650, Control_c, 0, 64, 55
2, 1653, Note_on_c, 0, 72, 64
2, 1665, Control_c, 0, 64, 54
2, 1680, Control_c, 0, 64, 53
2, 1696, Control_c, 0, 64, 51
2, 1710, Control_c, 0, 64, 49
2, 1725, Control_c, 0, 64, 47
2, 1740, Note_on_c, 0, 58, 0
2, 1741, Control_c, 0, 64, 46
2, 1756, Control_c, 0, 64, 45
2, 1767, Note_on_c, 0, 70, 0
2, 1772, Control_c, 0, 64, 44
2, 1786, Control_c, 0, 64, 42
2, 1801, Control_c, 0, 64, 39
2, 1825, Control_c, 0, 64, 36
2, 1840, Control_c, 0, 64, 34
2, 1856, Control_c, 0, 64, 32
2, 1870, Control_c, 0, 64, 30
2, 1885, Control_c, 0, 64, 27
2, 1901, Control_c, 0, 64, 23
2, 1915, Control_c, 0, 64, 17
2, 1930, Control_c, 0, 64, 11
2, 1946, Control_c, 0, 64, 0
2, 1987, Note_on_c, 0, 73, 55
2, 1998, Note_on_c, 0, 70, 41
2, 1999, Note_on_c, 0, 58, 25
2, 2110, Note_on_c, 0, 72, 0
2, 2260, Note_on_c, 0, 65, 0
2, 2281, Control_c, 0, 64, 36
2, 2297, Control_c, 0, 64, 55
2, 2312, Control_c, 0, 64, 63
2, 2327, Control_c, 0, 64, 69
2, 2343, Control_c, 0, 64, 82
2, 2357, Control_c, 0, 64, 127
2, 2367, Note_on_c, 0, 61, 0
2, 2426, Note_on_c, 0, 73, 0
2, 2431, Note_on_c, 0, 70, 0
2, 2442, Note_on_c, 0, 58, 0
2, 2633, Note_on_c, 0, 65, 71
2, 2639, Note_on_c, 0, 70, 58
2, 2639, Note_on_c, 0, 73, 64
2, 2655, Note_on_c, 0, 61, 55
2, 2659, Note_on_c, 0, 58, 46
2, 2728, Control_c, 0, 64, 104
2, 2744, Control_c, 0, 64, 91
2, 2758, Control_c, 0, 64, 84
2, 2774, Control_c, 0, 64, 78
2, 2790, Control_c, 0, 64, 74
2, 2805, Control_c, 0, 64, 68
2, 2821, Control_c, 0, 64, 63
2, 2836, Control_c, 0, 64, 53
2, 2852, Control_c, 0, 64, 40
2, 2866, Control_c, 0, 64, 25
2, 2881, Control_c, 0, 64, 18
2, 2897, Control_c, 0, 64, 17
2, 2912, Control_c, 0, 64, 16
2, 2973, Control_c, 0, 64, 20
2, 2988, Control_c, 0, 64, 31
2, 3003, Control_c, 0, 64, 44
2, 3003, Note_on_c, 0, 58, 0
2, 3018, Control_c, 0, 64, 55
2, 3033, Control_c, 0, 64, 60
2, 3048, Control_c, 0, 64, 63
2, 3064, Control_c, 0, 64, 67
2, 3079, Control_c, 0, 64, 75
2, 3095, Control_c, 0, 64, 94
2, 3110, Control_c, 0, 64, 127
2, 3138, Note_on_c, 0, 70, 0
2, 3164, Note_on_c, 0, 73, 0
2, 3292, Control_c, 0, 64, 123
2, 3307, Control_c, 0, 64, 107
2, 3322, Control_c, 0, 64, 100
2, 3323, Note_on_c, 0, 73, 56
2, 3326, Note_on_c, 0, 63, 52
2, 3328, Note_on_c, 0, 66, 50
2, 3333, Note_on_c, 0, 70, 47
2, 3336, Note_on_c, 0, 58, 41
2, 3338, Control_c, 0, 64, 94
2, 3360, Control_c, 0, 64, 91
2, 3376, Control_c, 0, 64, 87
2, 3391, Control_c, 0, 64, 83
2, 3405, Control_c, 0, 64, 79
2, 3421, Control_c, 0, 64, 74
2, 3436, Control_c, 0, 64, 70
2, 3452, Control_c, 0, 64, 67
2, 3462, Note_on_c, 0, 61, 0
2, 3467, Control_c, 0, 64, 63
2, 3481, Control_c, 0, 64, 60
2, 3497, Control_c, 0, 64, 54
2, 3512, Control_c, 0, 64, 48
2, 3526, Control_c, 0, 64, 42
2, 3541, Note_on_c, 0, 65, 0
2, 3542, Control_c, 0, 64, 35
2, 3557, Control_c, 0, 64, 32
2, 3573, Control_c, 0, 64, 29
2, 3588, Control_c, 0, 64, 26
2, 3604, Control_c, 0, 64, 24
2, 3620, Control_c, 0, 64, 22
2, 3634, Control_c, 0, 64, 21
2, 3710, Control_c, 0, 64, 24
2, 3725, Control_c, 0, 64, 37
2, 3738, Note_on_c, 0, 58, 0
2, 3741, Control_c, 0, 64, 48
2, 3756, Control_c, 0, 64, 54
2, 3772, Control_c, 0, 64, 58
2, 3786, Control_c, 0, 64, 60
2, 3801, Control_c, 0, 64, 63
2, 3817, Control_c, 0, 64, 67
2, 3831, Control_c, 0, 64, 71
2, 3846, Control_c, 0, 64, 75
2, 3862, Control_c, 0, 64, 78
2, 3893, Control_c, 0, 64, 77
2, 3908, Control_c, 0, 64, 76
2, 3923, Control_c, 0, 64, 74
2, 3939, Control_c, 0, 64, 73
2, 3953, Control_c, 0, 64, 73
2, 3954, Note_on_c, 0, 58, 38
2, 3958, Note_on_c, 0, 72, 48
2, 3963, Note_on_c, 0, 69, 38
2, 3968, Control_c, 0, 64, 72
2, 3984, Control_c, 0, 64, 70
2, 3999, Control_c, 0, 64, 68
2, 4015, Control_c, 0, 64, 67
2, 4029, Control_c, 0, 64, 66
2, 4044, Control_c, 0, 64, 65
2, 4050, Note_on_c, 0, 73, 0
2, 4060, Control_c, 0, 64, 64
2, 4073, Note_on_c, 0, 70, 0
2, 4075, Control_c, 0, 64, 62
2, 4090, Control_c, 0, 64, 61
2, 4113, Control_c, 0, 64, 59
2, 4128, Control_c, 0, 64, 56
2, 4143, Control_c, 0, 64, 54
2, 4158, Control_c, 0, 64, 52
2, 4173, Control_c, 0, 64, 49
2, 4188, Control_c, 0, 64, 45
2, 4203, Control_c, 0, 64, 36
2, 4219, Control_c, 0, 64, 24
2, 4234, Control_c, 0, 64, 9
2, 4248, Control_c, 0, 64, 0
2, 4278, Note_on_c, 0, 73, 65
2, 4283, Note_on_c, 0, 70, 55
2, 4379, Note_on_c, 0, 72, 0
2, 4446, Note_on_c, 0, 58, 0
2, 4605, Note_on_c, 0, 72, 57
2, 4610, Note_on_c, 0, 75, 64
2, 4623, Note_on_c, 0, 58, 41
2, 4724, Note_on_c, 0, 69, 0
2, 4768, Note_on_c, 0, 73, 0
2, 4789, Note_on_c, 0, 70, 0
2, 4941, Control_c, 0, 64, 12
2, 4956, Control_c, 0, 64, 48
2, 4972, Control_c, 0, 64, 63
2, 4987, Control_c, 0, 64, 73
2, 5002, Control_c, 0, 64, 95
2, 5006, Note_on_c, 0, 72, 0
2, 5017, Control_c, 0, 64, 127
2, 5043, Note_on_c, 0, 75, 0
2, 5055, Note_on_c, 0, 63, 0
2, 5067, Note_on_c, 0, 66, 0
2, 5140, Note_on_c, 0, 58, 0
2, 5259, Note_on_c, 0, 66, 70
2, 5262, Note_on_c, 0, 58, 51
2, 5262, Note_on_c, 0, 75, 64
2, 5265, Note_on_c, 0, 72, 56
2, 5269, Note_on_c, 0, 63, 59
2, 5270, Note_on_c, 0, 69, 53
2, 5276, Note_on_c, 0, 60, 58
2, 5321, Control_c, 0, 64, 112
2, 5337, Control_c, 0, 64, 98
2, 5352, Control_c, 0, 64, 88
2, 5367, Control_c, 0, 64, 80
2, 5383, Control_c, 0, 64, 73
2, 5397, Control_c, 0, 64, 68
2, 5413, Control_c, 0, 64, 64
2, 5428, Control_c, 0, 64, 61
2, 5442, Control_c, 0, 64, 58
2, 5458, Control_c, 0, 64, 55
2, 5473, Control_c, 0, 64, 52
2, 5488, Control_c, 0, 64, 49
2, 5504, Control_c, 0, 64, 47
2, 5519, Control_c, 0, 64, 43
2, 5535, Control_c, 0, 64, 34
2, 5550, Control_c, 0, 64, 23
2, 5565, Control_c, 0, 64, 11
2, 5580, Control_c, 0, 64, 0
2, 5620, Note_on_c, 0, 58, 0
2, 5698, Note_on_c, 0, 69, 0
2, 5700, Note_on_c, 0, 63, 0
2, 5761, Note_on_c, 0, 72, 0
2, 5788, Note_on_c, 0, 75, 0
2, 5947, Note_on_c, 0, 65, 49
2, 5956, Note_on_c, 0, 58, 34
2, 5956, Note_on_c, 0, 61, 46
2, 5962, Note_on_c, 0, 72, 49
2, 5962, Note_on_c, 0, 75, 56
2, 6017, Note_on_c, 0, 60, 0
2, 6147, Note_on_c, 0, 66, 0
2, 6389, Note_on_c, 0, 58, 0
2, 6570, Note_on_c, 0, 70, 44
2, 6574, Note_on_c, 0, 73, 53
2, 6586, Note_on_c, 0, 58, 36
2, 6684, Note_on_c, 0, 75, 0
2, 6706, Note_on_c, 0, 72, 0
2, 6875, Note_on_c, 0, 75, 70
2, 6879, Note_on_c, 0, 72, 60
2, 6969, Note_on_c, 0, 73, 0
2, 7001, Note_on_c, 0, 58, 0
2, 7217, Note_on_c, 0, 77, 66
2, 7228, Note_on_c, 0, 73, 56
2, 7235, Note_on_c, 0, 58, 38
2, 7330, Note_on_c, 0, 70, 0
2, 7344, Note_on_c, 0, 72, 0
2, 7406, Note_on_c, 0, 75, 0
2, 7534, Control_c, 0, 64, 32
2, 7549, Control_c, 0, 64, 55
2, 7564, Control_c, 0, 64, 64
2, 7580, Control_c, 0, 64, 75
2, 7595, Control_c, 0, 64, 106
2, 7610, Control_c, 0, 64, 127
2, 7623, Note_on_c, 0, 65, 0
2, 7637, Note_on_c, 0, 61, 0
2, 7641, Note_on_c, 0, 58, 0
2, 7644, Note_on_c, 0, 77, 0
2, 7673, Note_on_c, 0, 73, 0
2, 7846, Note_on_c, 0, 65, 72
2, 7852, Note_on_c, 0, 70, 63
2, 7855, Note_on_c, 0, 77, 69
2, 7861, Note_on_c, 0, 58, 53
2, 7863, Note_on_c, 0, 73, 58
2, 7864, Note_on_c, 0, 61, 60
2, 7901, Control_c, 0, 64, 100
2, 7916, Control_c, 0, 64, 87
2, 7932, Control_c, 0, 64, 74
2, 7955, Control_c, 0, 64, 65
2, 7971, Control_c, 0, 64, 56
2, 7985, Control_c, 0, 64, 44
2, 8000, Control_c, 0, 64, 36
2, 8016, Control_c, 0, 64, 31
2, 8031, Control_c, 0, 64, 19
2, 8047, Control_c, 0, 64, 0
2, 8197, Control_c, 0, 64, 33
2, 8200, Note_on_c, 0, 73, 0
2, 8202, Note_on_c, 0, 58, 0
2, 8213, Control_c, 0, 64, 51
2, 8228, Control_c, 0, 64, 57
2, 8243, Control_c, 0, 64, 61
2, 8259, Control_c, 0, 64, 64
2, 8263, Note_on_c, 0, 77, 0
2, 8273, Control_c, 0, 64, 69
2, 8289, Control_c, 0, 64, 81
2, 8304, Control_c, 0, 64, 127
2, 8591, Note_on_c, 0, 69, 70
2, 8594, Control_c, 0, 64, 105
2, 8595, Note_on_c, 0, 77, 70
2, 8597, Note_on_c, 0, 58, 34
2, 8603, Note_on_c, 0, 73, 54
2, 8610, Control_c, 0, 64, 96
2, 8611, Note_on_c, 0, 60, 42
2, 8624, Control_c, 0, 64, 89
2, 8639, Control_c, 0, 64, 83
2, 8655, Control_c, 0, 64, 78
2, 8670, Control_c, 0, 64, 73
2, 8686, Control_c, 0, 64, 68
2, 8700, Control_c, 0, 64, 64
2, 8715, Control_c, 0, 64, 61
2, 8738, Control_c, 0, 64, 58
2, 8751, Note_on_c, 0, 70, 0
2, 8753, Control_c, 0, 64, 57
2, 8769, Control_c, 0, 64, 55
2, 8783, Control_c, 0, 64, 52
2, 8798, Control_c, 0, 64, 46
2, 8798, Note_on_c, 0, 61, 0
2, 8814, Control_c, 0, 64, 43
2, 8829, Control_c, 0, 64, 40
2, 8845, Control_c, 0, 64, 38
2, 8860, Control_c, 0, 64, 34
2, 8875, Control_c, 0, 64, 24
2, 8891, Control_c, 0, 64, 0
2, 8908, Note_on_c, 0, 65, 0
2, 9036, Note_on_c, 0, 58, 0
2, 9224, Note_on_c, 0, 72, 50
2, 9224, Note_on_c, 0, 75, 58
2, 9234, Note_on_c, 0, 58, 37
2, 9309, Note_on_c, 0, 73, 0
2, 9376, Note_on_c, 0, 77, 0
2, 9538, Note_on_c, 0, 77, 66
2, 9539, Note_on_c, 0, 73, 62
2, 9592, Note_on_c, 0, 72, 0
2, 9633, Note_on_c, 0, 75, 0
2, 9689, Note_on_c, 0, 58, 0
2, 9732, Note_on_c, 0, 73, 0
2, 9889, Note_on_c, 0, 58, 36
2, 9894, Note_on_c, 0, 78, 74
2, 9896, Note_on_c, 0, 75, 63
2, 10042, Note_on_c, 0, 77, 0
2, 10190, Control_c, 0, 64, 25
2, 10206, Control_c, 0, 64, 48
2, 10221, Control_c, 0, 64, 60
2, 10235, Control_c, 0, 64, 66
2, 10251, Control_c, 0, 64, 73
2, 10267, Note_on_c, 0, 75, 0
2, 10274, Control_c, 0, 64, 88
2, 10288, Note_on_c, 0, 69, 0
2, 10290, Control_c, 0, 64, 127
2, 10308, Note_on_c, 0, 78, 0
2, 10336, Note_on_c, 0, 58, 0
2, 10351, Note_on_c, 0, 60, 0
2, 10535, Note_on_c, 0, 58, 43
2, 10538, Note_on_c, 0, 60, 43
2, 10539, Note_on_c, 0, 69, 78
2, 10544, Note_on_c, 0, 78, 72
2, 10547, Control_c, 0, 64, 104
2, 10547, Note_on_c, 0, 75, 61
2, 10562, Control_c, 0, 64, 91
2, 10578, Control_c, 0, 64, 82
2, 10593, Control_c, 0, 64, 76
2, 10609, Control_c, 0, 64, 70
2, 10624, Control_c, 0, 64, 66
2, 10639, Control_c, 0, 64, 63
2, 10654, Control_c, 0, 64, 60
2, 10669, Control_c, 0, 64, 54
2, 10685, Control_c, 0, 64, 45
2, 10700, Control_c, 0, 64, 35
2, 10715, Control_c, 0, 64, 29
2, 10730, Control_c, 0, 64, 26
2, 10745, Control_c, 0, 64, 23
2, 10760, Control_c, 0, 64, 19
2, 10775, Control_c, 0, 64, 15
2, 10790, Control_c, 0, 64, 11
2, 10806, Control_c, 0, 64, 9
2, 10851, Control_c, 0, 64, 0
2, 11036, Note_on_c, 0, 60, 0
2, 11077, Note_on_c, 0, 75, 0
2, 11092, Note_on_c, 0, 58, 0
2, 11104, Note_on_c, 0, 78, 0
2, 11316, Note_on_c, 0, 70, 58
2, 11318, Note_on_c, 0, 78, 55
2, 11320, Note_on_c, 0, 75, 57
2, 11328, Note_on_c, 0, 58, 25
2, 11520, Note_on_c, 0, 69, 0
2, 11602, Control_c, 0, 64, 9
2, 11617, Control_c, 0, 64, 11
2, 11647, Control_c, 0, 64, 12
2, 11693, Control_c, 0, 64, 13
2, 11772, Note_on_c, 0, 58, 0
2, 12007, Note_on_c, 0, 58, 50
2, 12016, Note_on_c, 0, 77, 52
2, 12017, Note_on_c, 0, 73, 31
2, 12132, Note_on_c, 0, 75, 0
2, 12318, Note_on_c, 0, 60, 66
2, 12321, Note_on_c, 0, 75, 62
2, 12380, Note_on_c, 0, 78, 0
2, 12382, Note_on_c, 0, 77, 0
2, 12522, Note_on_c, 0, 58, 0
2, 12670, Note_on_c, 0, 61, 53
2, 12682, Note_on_c, 0, 77, 58
2, 12776, Note_on_c, 0, 75, 0
2, 12810, Note_on_c, 0, 60, 0
2, 12987, Control_c, 0, 64, 23
2, 13002, Control_c, 0, 64, 36
2, 13018, Control_c, 0, 64, 49
2, 13033, Control_c, 0, 64, 58
2, 13047, Control_c, 0, 64, 64
2, 13063, Control_c, 0, 64, 68
2, 13065, Note_on_c, 0, 70, 0
2, 13078, Control_c, 0, 64, 76
2, 13084, Note_on_c, 0, 77, 0
2, 13094, Control_c, 0, 64, 93
2, 13108, Control_c, 0, 64, 127
2, 13124, Note_on_c, 0, 73, 0
2, 13158, Note_on_c, 0, 61, 0
2, 13302, Note_on_c, 0, 70, 71
2, 13304, Note_on_c, 0, 61, 51
2, 13306, Control_c, 0, 64, 105
2, 13306, Note_on_c, 0, 73, 56
2, 13310, Note_on_c, 0, 77, 63
2, 13321, Control_c, 0, 64, 93
2, 13344, Control_c, 0, 64, 83
2, 13359, Control_c, 0, 64, 76
2, 13374, Control_c, 0, 64, 72
2, 13389, Control_c, 0, 64, 69
2, 13404, Control_c, 0, 64, 67
2, 13419, Control_c, 0, 64, 63
2, 13435, Control_c, 0, 64, 57
2, 13450, Control_c, 0, 64, 50
2, 13466, Control_c, 0, 64, 47
2, 13481, Control_c, 0, 64, 47
2, 13615, Note_on_c, 0, 77, 0
2, 13618, Control_c, 0, 64, 47
2, 13763, Note_on_c, 0, 61, 0
2, 13804, Note_on_c, 0, 70, 0
2, 14013, Note_on_c, 0, 67, 50
2, 14024, Note_on_c, 0, 61, 44
2, 14024, Note_on_c, 0, 70, 47
2, 14025, Note_on_c, 0, 77, 52
2, 14291, Note_on_c, 0, 73, 0
2, 14522, Control_c, 0, 64, 47
2, 14659, Note_on_c, 0, 66, 44
2, 14666, Note_on_c, 0, 75, 51
2, 14670, Note_on_c, 0, 60, 40
2, 14778, Note_on_c, 0, 61, 0
2, 14966, Note_on_c, 0, 61, 66
2, 14969, Note_on_c, 0, 73, 57
2, 14988, Note_on_c, 0, 77, 0
2, 15001, Note_on_c, 0, 67, 0
2, 15027, Note_on_c, 0, 75, 0
2, 15139, Note_on_c, 0, 60, 0
2, 15307, Note_on_c, 0, 63, 60
2, 15313, Note_on_c, 0, 72, 54
2, 15423, Note_on_c, 0, 73, 0
2, 15460, Note_on_c, 0, 70, 0
2, 15477, Note_on_c, 0, 66, 0
2, 15485, Note_on_c, 0, 61, 0
2, 15749, Note_on_c, 0, 63, 0
2, 15916, Note_on_c, 0, 73, 66
2, 15921, Note_on_c, 0, 63, 58
2, 15921, Note_on_c, 0, 66, 64
2, 15921, Note_on_c, 0, 70, 54
2, 16062, Note_on_c, 0, 72, 0
2, 16217, Note_on_c, 0, 75, 74
2, 16267, Control_c, 0, 64, 46
2, 16300, Note_on_c, 0, 63, 0
2, 16304, Note_on_c, 0, 73, 0
2, 16343, Control_c, 0, 64, 46
2, 16611, Note_on_c, 0, 63, 63
2, 16616, Note_on_c, 0, 65, 54
2, 16618, Note_on_c, 0, 69, 54
2, 16797, Note_on_c, 0, 70, 0
2, 16869, Note_on_c, 0, 66, 0
2, 17246, Note_on_c, 0, 77, 69
2, 17252, Note_on_c, 0, 61, 44
2, 17256, Note_on_c, 0, 70, 50
2, 17360, Note_on_c, 0, 69, 0
2, 17415, Note_on_c, 0, 63, 0
2, 17449, Note_on_c, 0, 75, 0
2, 17531, Control_c, 0, 64, 45
2, 17538, Note_on_c, 0, 63, 62
2, 17551, Note_on_c, 0, 72, 74
2, 17561, Control_c, 0, 64, 45
2, 17576, Control_c, 0, 64, 44
2, 17592, Control_c, 0, 64, 44
2, 17607, Control_c, 0, 64, 43
2, 17613, Note_on_c, 0, 65, 0
2, 17623, Control_c, 0, 64, 42
2, 17626, Note_on_c, 0, 70, 0
2, 17637, Control_c, 0, 64, 40
2, 17652, Control_c, 0, 64, 39
2, 17668, Control_c, 0, 64, 37
2, 17682, Control_c, 0, 64, 35
2, 17697, Control_c, 0, 64, 32
2, 17713, Control_c, 0, 64, 28
2, 17728, Control_c, 0, 64, 24
2, 17744, Control_c, 0, 64, 17
2, 17758, Control_c, 0, 64, 0
2, 17853, Note_on_c, 0, 61, 0
2, 17875, Note_on_c, 0, 65, 67
2, 17887, Note_on_c, 0, 73, 76
2, 18000, Note_on_c, 0, 72, 0
2, 18030, Note_on_c, 0, 63, 0
2, 18343, Note_on_c, 0, 65, 0
2, 18508, Note_on_c, 0, 65, 68
2, 18508, Note_on_c, 0, 79, 78
2, 18681, Note_on_c, 0, 77, 0
2, 18823, Note_on_c, 0, 81, 77
2, 18957, Note_on_c, 0, 79, 0
2, 18985, Note_on_c, 0, 65, 0
2, 19238, Note_on_c, 0, 65, 54
2, 19238, Note_on_c, 0, 66, 58
2, 19249, Note_on_c, 0, 82, 71
2, 19457, Note_on_c, 0, 81, 0
2, 19898, Note_on_c, 0, 63, 50
2, 19908, Note_on_c, 0, 72, 65
2, 19999, Note_on_c, 0, 65, 0
2, 20001, Note_on_c, 0, 73, 0
2, 20198, Note_on_c, 0, 61, 48
2, 20204, Note_on_c, 0, 73, 67
2, 20304, Note_on_c, 0, 63, 0
2, 20540, Note_on_c, 0, 72, 0
2, 20568, Note_on_c, 0, 75, 57
2, 20569, Note_on_c, 0, 60, 36
2, 20724, Note_on_c, 0, 61, 0
2, 20773, Note_on_c, 0, 73, 0
2, 21202, Note_on_c, 0, 58, 35
2, 21207, Note_on_c, 0, 81, 53
2, 21295, Note_on_c, 0, 82, 0
2, 21318, Note_on_c, 0, 60, 0
2, 21508, Note_on_c, 0, 82, 63
2, 21635, Note_on_c, 0, 81, 0
2, 21924, Note_on_c, 0, 57, 31
2, 21928, Note_on_c, 0, 84, 59
2, 22101, Note_on_c, 0, 58, 0
2, 22137, Note_on_c, 0, 82, 0
2, 22244, Control_c, 0, 64, 23
2, 22260, Control_c, 0, 64, 44
2, 22275, Control_c, 0, 64, 52
2, 22290, Control_c, 0, 64, 57
2, 22305, Control_c, 0, 64, 62
2, 22310, Note_on_c, 0, 75, 0
2, 22320, Control_c, 0, 64, 68
2, 22335, Control_c, 0, 64, 76
2, 22351, Control_c, 0, 64, 94
2, 22366, Control_c, 0, 64, 127
2, 22572, Control_c, 0, 64, 119
2, 22588, Control_c, 0, 64, 107
2, 22593, Note_on_c, 0, 78, 60
2, 22596, Note_on_c, 0, 75, 48
2, 22602, Control_c, 0, 64, 99
2, 22617, Control_c, 0, 64, 94
2, 22633, Control_c, 0, 64, 89
2, 22648, Control_c, 0, 64, 85
2, 22664, Control_c, 0, 64, 82
2, 22678, Control_c, 0, 64, 79
2, 22693, Control_c, 0, 64, 77
2, 22709, Control_c, 0, 64, 76
2, 22724, Control_c, 0, 64, 74
2, 22740, Control_c, 0, 64, 72
2, 22754, Control_c, 0, 64, 70
2, 22769, Control_c, 0, 64, 68
2, 22785, Control_c, 0, 64, 67
2, 22800, Control_c, 0, 64, 66
2, 22815, Control_c, 0, 64, 66
2, 22831, Control_c, 0, 64, 64
2, 22846, Control_c, 0, 64, 63
2, 22861, Control_c, 0, 64, 63
2, 22876, Control_c, 0, 64, 62
2, 22891, Control_c, 0, 64, 61
2, 22897, Note_on_c, 0, 77, 61
2, 22907, Control_c, 0, 64, 59
2, 22910, Note_on_c, 0, 73, 49
2, 22922, Control_c, 0, 64, 57
2, 22937, Control_c, 0, 64, 56
2, 22943, Note_on_c, 0, 75, 0
2, 22952, Control_c, 0, 64, 56
2, 22967, Control_c, 0, 64, 54
2, 22983, Control_c, 0, 64, 51
2, 22998, Control_c, 0, 64, 47
2, 23012, Control_c, 0, 64, 43
2, 23028, Control_c, 0, 64, 41
2, 23043, Control_c, 0, 64, 40
2, 23058, Control_c, 0, 64, 39
2, 23119, Control_c, 0, 64, 42
2, 23134, Control_c, 0, 64, 49
2, 23150, Control_c, 0, 64, 55
2, 23164, Control_c, 0, 64, 58
2, 23177, Note_on_c, 0, 73, 0
2, 23180, Control_c, 0, 64, 61
2, 23195, Control_c, 0, 64, 62
2, 23209, Control_c, 0, 64, 63
2, 23225, Control_c, 0, 64, 64
2, 23256, Control_c, 0, 64, 63
2, 23272, Control_c, 0, 64, 63
2, 23272, Note_on_c, 0, 75, 53
2, 23284, Note_on_c, 0, 72, 42
2, 23303, Control_c, 0, 64, 62
2, 23325, Control_c, 0, 64, 61
2, 23341, Control_c, 0, 64, 60
2, 23356, Control_c, 0, 64, 59
2, 23371, Control_c, 0, 64, 58
2, 23387, Control_c, 0, 64, 56
2, 23401, Control_c, 0, 64, 54
2, 23416, Control_c, 0, 64, 52
2, 23423, Note_on_c, 0, 78, 0
2, 23432, Control_c, 0, 64, 52
2, 23446, Control_c, 0, 64, 51
2, 23462, Control_c, 0, 64, 50
2, 23462, Note_on_c, 0, 84, 0
2, 23471, Note_on_c, 0, 57, 0
2, 23477, Control_c, 0, 64, 48
2, 23492, Control_c, 0, 64, 47
2, 23508, Control_c, 0, 64, 46
2, 23509, Note_on_c, 0, 66, 0
2, 23522, Control_c, 0, 64, 46
2, 23535, Note_on_c, 0, 77, 0
2, 23537, Control_c, 0, 64, 44
2, 23553, Control_c, 0, 64, 42
2, 23568, Control_c, 0, 64, 40
2, 23584, Control_c, 0, 64, 39
2, 23598, Control_c, 0, 64, 38
2, 23613, Control_c, 0, 64, 38
2, 23629, Control_c, 0, 64, 36
2, 23644, Control_c, 0, 64, 34
2, 23658, Control_c, 0, 64, 32
2, 23674, Control_c, 0, 64, 31
2, 23689, Control_c, 0, 64, 30
2, 23705, Control_c, 0, 64, 30
2, 23720, Control_c, 0, 64, 29
2, 23735, Control_c, 0, 64, 28
2, 23751, Control_c, 0, 64, 28
2, 23766, Control_c, 0, 64, 27
2, 23782, Control_c, 0, 64, 26
2, 23796, Control_c, 0, 64, 26
2, 23811, Control_c, 0, 64, 25
2, 23827, Control_c, 0, 64, 25
2, 23842, Control_c, 0, 64, 24
2, 23907, Note_on_c, 0, 84, 63
2, 23918, Control_c, 0, 64, 24
2, 23923, Note_on_c, 0, 57, 37
2, 24078, Control_c, 0, 64, 23
2, 24212, Note_on_c, 0, 58, 45
2, 24212, Note_on_c, 0, 82, 69
2, 24282, Note_on_c, 0, 84, 0
2, 24377, Note_on_c, 0, 57, 0
2, 24581, Note_on_c, 0, 81, 55
2, 24586, Note_on_c, 0, 60, 41
2, 24689, Note_on_c, 0, 82, 0
2, 24731, Control_c, 0, 64, 23
2, 24768, Note_on_c, 0, 58, 0
2, 24837, Note_on_c, 0, 72, 0
2, 24876, Control_c, 0, 64, 22
2, 24909, Note_on_c, 0, 75, 0
2, 24922, Control_c, 0, 64, 21
2, 24937, Control_c, 0, 64, 21
2, 24952, Control_c, 0, 64, 20
2, 24967, Control_c, 0, 64, 19
2, 24983, Control_c, 0, 64, 18
2, 25029, Control_c, 0, 64, 17
2, 25105, Control_c, 0, 64, 17
2, 25134, Control_c, 0, 64, 16
2, 25197, Note_on_c, 0, 72, 47
2, 25198, Note_on_c, 0, 75, 59
2, 25241, Control_c, 0, 64, 15
2, 25347, Control_c, 0, 64, 13
2, 25423, Control_c, 0, 64, 12
2, 25473, Note_on_c, 0, 72, 0
2, 25486, Note_on_c, 0, 70, 49
2, 25490, Note_on_c, 0, 73, 61
2, 25560, Control_c, 0, 64, 11
2, 25766, Control_c, 0, 64, 9
2, 25799, Note_on_c, 0, 75, 0
2, 25844, Note_on_c, 0, 69, 42
2, 25851, Note_on_c, 0, 72, 49
2, 25918, Control_c, 0, 64, 0
2, 25976, Note_on_c, 0, 70, 0
2, 26013, Note_on_c, 0, 73, 0
2, 26122, Note_on_c, 0, 81, 0
2, 26157, Note_on_c, 0, 60, 0
2, 26480, Note_on_c, 0, 81, 53
2, 26485, Note_on_c, 0, 60, 35
2, 26775, Note_on_c, 0, 61, 32
2, 26790, Note_on_c, 0, 84, 57
2, 26906, Note_on_c, 0, 81, 0
2, 26929, Note_on_c, 0, 60, 0
2, 27202, Note_on_c, 0, 63, 32
2, 27214, Note_on_c, 0, 77, 49
2, 27360, Note_on_c, 0, 84, 0
2, 27375, Note_on_c, 0, 61, 0
2, 27422, Note_on_c, 0, 69, 0
2, 27509, Note_on_c, 0, 72, 0
2, 27829, Note_on_c, 0, 69, 37
2, 27831, Note_on_c, 0, 65, 26
2, 28137, Note_on_c, 0, 70, 48
2, 28147, Note_on_c, 0, 67, 36
2, 28247, Note_on_c, 0, 69, 0
2, 28309, Note_on_c, 0, 65, 0
2, 28484, Note_on_c, 0, 72, 53
2, 28489, Note_on_c, 0, 69, 36
2, 28587, Note_on_c, 0, 70, 0
2, 28603, Note_on_c, 0, 67, 0
2, 28677, Control_c, 0, 64, 9
2, 28701, Control_c, 0, 64, 19
2, 28715, Control_c, 0, 64, 28
2, 28730, Control_c, 0, 64, 35
2, 28746, Control_c, 0, 64, 41
2, 28761, Control_c, 0, 64, 48
2, 28775, Control_c, 0, 64, 52
2, 28791, Control_c, 0, 64, 56
2, 28806, Control_c, 0, 64, 59
2, 28813, Note_on_c, 0, 63, 0
2, 28822, Control_c, 0, 64, 61
2, 28837, Control_c, 0, 64, 64
2, 28851, Control_c, 0, 64, 68
2, 28867, Control_c, 0, 64, 73
2, 28867, Note_on_c, 0, 72, 0
2, 28882, Control_c, 0, 64, 80
2, 28897, Control_c, 0, 64, 86
2, 28913, Control_c, 0, 64, 89
2, 28943, Control_c, 0, 64, 87
2, 28958, Control_c, 0, 64, 86
2, 28972, Control_c, 0, 64, 84
2, 28988, Control_c, 0, 64, 83
2, 29004, Control_c, 0, 64, 82
2, 29020, Control_c, 0, 64, 80
2, 29035, Control_c, 0, 64, 78
2, 29050, Control_c, 0, 64, 76
2, 29066, Control_c, 0, 64, 74
2, 29080, Control_c, 0, 64, 73
2, 29095, Control_c, 0, 64, 72
2, 29110, Note_on_c, 0, 72, 53
2, 29111, Control_c, 0, 64, 71
2, 29126, Control_c, 0, 64, 70
2, 29130, Note_on_c, 0, 63, 38
2, 29142, Control_c, 0, 64, 68
2, 29156, Control_c, 0, 64, 67
2, 29171, Control_c, 0, 64, 66
2, 29187, Control_c, 0, 64, 65
2, 29202, Control_c, 0, 64, 65
2, 29217, Control_c, 0, 64, 64
2, 29233, Control_c, 0, 64, 63
2, 29248, Control_c, 0, 64, 62
2, 29263, Control_c, 0, 64, 61
2, 29278, Control_c, 0, 64, 60
2, 29293, Control_c, 0, 64, 60
2, 29309, Control_c, 0, 64, 58
2, 29324, Control_c, 0, 64, 57
2, 29340, Control_c, 0, 64, 57
2, 29354, Control_c, 0, 64, 56
2, 29369, Control_c, 0, 64, 55
2, 29385, Control_c, 0, 64, 54
2, 29399, Control_c, 0, 64, 54
2, 29403, Note_on_c, 0, 73, 66
2, 29406, Note_on_c, 0, 61, 51
2, 29430, Control_c, 0, 64, 53
2, 29445, Control_c, 0, 64, 51
2, 29468, Control_c, 0, 64, 50
2, 29483, Control_c, 0, 64, 49
2, 29498, Control_c, 0, 64, 48
2, 29514, Control_c, 0, 64, 48
2, 29529, Control_c, 0, 64, 47
2, 29545, Control_c, 0, 64, 45
2, 29559, Control_c, 0, 64, 43
2, 29574, Control_c, 0, 64, 42
2, 29586, Note_on_c, 0, 63, 0
2, 29590, Control_c, 0, 64, 41
2, 29605, Control_c, 0, 64, 41
2, 29620, Control_c, 0, 64, 40
2, 29635, Control_c, 0, 64, 39
2, 29639, Note_on_c, 0, 72, 0
2, 29650, Control_c, 0, 64, 38
2, 29666, Control_c, 0, 64, 37
2, 29681, Control_c, 0, 64, 36
2, 29695, Control_c, 0, 64, 36
2, 29711, Control_c, 0, 64, 35
2, 29726, Control_c, 0, 64, 35
2, 29741, Note_on_c, 0, 60, 47
2, 29742, Control_c, 0, 64, 34
2, 29763, Note_on_c, 0, 75, 62
2, 29771, Control_c, 0, 64, 34
2, 29787, Control_c, 0, 64, 33
2, 29802, Control_c, 0, 64, 33
2, 29818, Control_c, 0, 64, 32
2, 29833, Control_c, 0, 64, 32
2, 29864, Control_c, 0, 64, 31
2, 29877, Note_on_c, 0, 61, 0
2, 29879, Control_c, 0, 64, 31
2, 29910, Control_c, 0, 64, 30
2, 29941, Note_on_c, 0, 73, 0
2, 29986, Control_c, 0, 64, 30
2, 30046, Control_c, 0, 64, 29
2, 30091, Control_c, 0, 64, 29
2, 30107, Control_c, 0, 64, 28
2, 30137, Control_c, 0, 64, 28
2, 30168, Control_c, 0, 64, 27
2, 30168, Note_on_c, 0, 60, 0
2, 30173, Note_on_c, 0, 69, 0
2, 30184, Control_c, 0, 64, 26
2, 30213, Control_c, 0, 64, 26
2, 30236, Control_c, 0, 64, 25
2, 30281, Control_c, 0, 64, 25
2, 30312, Control_c, 0, 64, 24
2, 30357, Control_c, 0, 64, 24
2, 30376, Note_on_c, 0, 72, 63
2, 30381, Note_on_c, 0, 69, 51
2, 30388, Note_on_c, 0, 60, 51
2, 30433, Control_c, 0, 64, 23
2, 30509, Control_c, 0, 64, 23
2, 30662, Note_on_c, 0, 73, 66
2, 30665, Note_on_c, 0, 58, 61
2, 30669, Note_on_c, 0, 70, 62
2, 30691, Control_c, 0, 64, 22
2, 30712, Note_on_c, 0, 75, 0
2, 30746, Note_on_c, 0, 72, 0
2, 30886, Note_on_c, 0, 69, 0
2, 30997, Note_on_c, 0, 72, 58
2, 31007, Note_on_c, 0, 75, 68
2, 31010, Note_on_c, 0, 57, 52
2, 31127, Note_on_c, 0, 60, 0
2, 31168, Note_on_c, 0, 73, 0
2, 31169, Note_on_c, 0, 58, 0
2, 31266, Note_on_c, 0, 70, 0
2, 31607, Note_on_c, 0, 55, 61
2, 31621, Note_on_c, 0, 69, 61
2, 31701, Note_on_c, 0, 57, 0
2, 31771, Control_c, 0, 64, 21
2, 31833, Note_on_c, 0, 72, 0
2, 31919, Note_on_c, 0, 53, 57
2, 31924, Control_c, 0, 64, 21
2, 31989, Note_on_c, 0, 55, 0
2, 32305, Note_on_c, 0, 65, 39
2, 32310, Note_on_c, 0, 58, 51
2, 32534, Note_on_c, 0, 53, 0
2, 32541, Control_c, 0, 64, 21
2, 32556, Control_c, 0, 64, 25
2, 32571, Control_c, 0, 64, 29
2, 32586, Control_c, 0, 64, 32
2, 32601, Control_c, 0, 64, 34
2, 32602, Note_on_c, 0, 69, 0
2, 32616, Control_c, 0, 64, 37
2, 32632, Control_c, 0, 64, 39
2, 32647, Control_c, 0, 64, 43
2, 32662, Control_c, 0, 64, 45
2, 32677, Control_c, 0, 64, 48
2, 32692, Control_c, 0, 64, 51
2, 32707, Control_c, 0, 64, 54
2, 32722, Control_c, 0, 64, 59
2, 32722, Note_on_c, 0, 77, 0
2, 32737, Control_c, 0, 64, 61
2, 32753, Control_c, 0, 64, 63
2, 32768, Control_c, 0, 64, 64
2, 32783, Control_c, 0, 64, 65
2, 32798, Control_c, 0, 64, 65
2, 32889, Control_c, 0, 64, 65
2, 32920, Control_c, 0, 64, 64
2, 32934, Note_on_c, 0, 77, 59
2, 32935, Control_c, 0, 64, 64
2, 32943, Note_on_c, 0, 73, 53
2, 32950, Control_c, 0, 64, 63
2, 32965, Control_c, 0, 64, 62
2, 32981, Control_c, 0, 64, 60
2, 32996, Control_c, 0, 64, 59
2, 33011, Control_c, 0, 64, 59
2, 33027, Control_c, 0, 64, 57
2, 33040, Note_on_c, 0, 75, 0
2, 33042, Control_c, 0, 64, 55
2, 33057, Control_c, 0, 64, 53
2, 33072, Control_c, 0, 64, 52
2, 33088, Control_c, 0, 64, 51
2, 33104, Control_c, 0, 64, 49
2, 33118, Control_c, 0, 64, 47
2, 33133, Control_c, 0, 64, 44
2, 33149, Control_c, 0, 64, 42
2, 33164, Control_c, 0, 64, 40
2, 33180, Control_c, 0, 64, 38
2, 33195, Control_c, 0, 64, 36
2, 33210, Control_c, 0, 64, 34
2, 33225, Control_c, 0, 64, 32
2, 33232, Note_on_c, 0, 75, 62
2, 33238, Note_on_c, 0, 72, 57
2, 33240, Control_c, 0, 64, 29
2, 33255, Control_c, 0, 64, 24
2, 33271, Control_c, 0, 64, 17
2, 33286, Control_c, 0, 64, 0
2, 33298, Note_on_c, 0, 73, 0
2, 33376, Note_on_c, 0, 77, 0
2, 33589, Note_on_c, 0, 73, 52
2, 33590, Note_on_c, 0, 70, 39
2, 33678, Note_on_c, 0, 75, 0
2, 33681, Note_on_c, 0, 72, 0
2, 33947, Control_c, 0, 64, 43
2, 33962, Control_c, 0, 64, 59
2, 33977, Control_c, 0, 64, 65
2, 33993, Control_c, 0, 64, 69
2, 33994, Note_on_c, 0, 70, 0
2, 34008, Control_c, 0, 64, 77
2, 34024, Control_c, 0, 64, 89
2, 34039, Control_c, 0, 64, 119
2, 34054, Control_c, 0, 64, 127
2, 34228, Control_c, 0, 64, 113
2, 34242, Note_on_c, 0, 75, 51
2, 34243, Control_c, 0, 64, 102
2, 34249, Note_on_c, 0, 69, 40
2, 34256, Note_on_c, 0, 66, 30
2, 34258, Control_c, 0, 64, 95
2, 34274, Control_c, 0, 64, 88
2, 34289, Control_c, 0, 64, 81
2, 34305, Control_c, 0, 64, 76
2, 34317, Note_on_c, 0, 73, 0
2, 34320, Control_c, 0, 64, 72
2, 34335, Control_c, 0, 64, 69
2, 34350, Control_c, 0, 64, 67
2, 34365, Control_c, 0, 64, 65
2, 34372, Note_on_c, 0, 65, 0
2, 34381, Control_c, 0, 64, 63
2, 34395, Control_c, 0, 64, 61
2, 34410, Control_c, 0, 64, 58
2, 34426, Control_c, 0, 64, 55
2, 34441, Control_c, 0, 64, 54
2, 34456, Control_c, 0, 64, 53
2, 34471, Control_c, 0, 64, 51
2, 34486, Control_c, 0, 64, 47
2, 34502, Control_c, 0, 64, 46
2, 34547, Control_c, 0, 64, 46
2, 34555, Note_on_c, 0, 72, 52
2, 34562, Control_c, 0, 64, 44
2, 34568, Note_on_c, 0, 63, 35
2, 34577, Control_c, 0, 64, 42
2, 34593, Control_c, 0, 64, 40
2, 34638, Control_c, 0, 64, 40
2, 34687, Note_on_c, 0, 66, 0
2, 34714, Control_c, 0, 64, 39
2, 34841, Note_on_c, 0, 75, 0
2, 34923, Note_on_c, 0, 65, 32
2, 34930, Note_on_c, 0, 73, 43
2, 34936, Note_on_c, 0, 70, 31
2, 35007, Note_on_c, 0, 72, 0
2, 35056, Note_on_c, 0, 69, 0
2, 35066, Note_on_c, 0, 63, 0
2, 35148, Control_c, 0, 64, 42
2, 35162, Control_c, 0, 64, 45
2, 35177, Control_c, 0, 64, 47
2, 35193, Control_c, 0, 64, 51
2, 35208, Control_c, 0, 64, 55
2, 35224, Control_c, 0, 64, 59
2, 35238, Control_c, 0, 64, 62
2, 35253, Control_c, 0, 64, 64
2, 35269, Control_c, 0, 64, 66
2, 35284, Control_c, 0, 64, 69
2, 35300, Control_c, 0, 64, 72
2, 35314, Control_c, 0, 64, 75
2, 35326, Note_on_c, 0, 70, 0
2, 35329, Control_c, 0, 64, 77
2, 35329, Note_on_c, 0, 73, 0
2, 35345, Control_c, 0, 64, 80
2, 35360, Control_c, 0, 64, 83
2, 35374, Control_c, 0, 64, 86
2, 35390, Control_c, 0, 64, 87
2, 35405, Control_c, 0, 64, 88
2, 35482, Control_c, 0, 64, 87
2, 35497, Control_c, 0, 64, 87
2, 35512, Control_c, 0, 64, 86
2, 35527, Control_c, 0, 64, 85
2, 35543, Control_c, 0, 64, 85
2, 35558, Control_c, 0, 64, 83
2, 35573, Control_c, 0, 64, 82
2, 35589, Control_c, 0, 64, 80
2, 35611, Control_c, 0, 64, 78
2, 35627, Control_c, 0, 64, 76
2, 35643, Control_c, 0, 64, 75
2, 35648, Note_on_c, 0, 70, 52
2, 35649, Note_on_c, 0, 61, 35
2, 35658, Control_c, 0, 64, 73
2, 35674, Control_c, 0, 64, 72
2, 35688, Control_c, 0, 64, 70
2, 35704, Control_c, 0, 64, 69
2, 35719, Control_c, 0, 64, 68
2, 35734, Control_c, 0, 64, 67
2, 35750, Control_c, 0, 64, 66
2, 35764, Control_c, 0, 64, 65
2, 35780, Control_c, 0, 64, 64
2, 35795, Control_c, 0, 64, 64
2, 35809, Control_c, 0, 64, 63
2, 35825, Control_c, 0, 64, 63
2, 35840, Control_c, 0, 64, 62
2, 35855, Control_c, 0, 64, 61
2, 35871, Control_c, 0, 64, 59
2, 35885, Control_c, 0, 64, 58
2, 35901, Control_c, 0, 64, 57
2, 35916, Control_c, 0, 64, 56
2, 35931, Control_c, 0, 64, 54
2, 35947, Control_c, 0, 64, 50
2, 35955, Note_on_c, 0, 58, 0
2, 35958, Note_on_c, 0, 72, 70
2, 35962, Control_c, 0, 64, 45
2, 35965, Note_on_c, 0, 60, 57
2, 35977, Control_c, 0, 64, 41
2, 35992, Control_c, 0, 64, 37
2, 36007, Control_c, 0, 64, 31
2, 36023, Control_c, 0, 64, 21
2, 36038, Control_c, 0, 64, 0
2, 36071, Note_on_c, 0, 65, 0
2, 36072, Note_on_c, 0, 70, 0
2, 36294, Note_on_c, 0, 73, 63
2, 36297, Note_on_c, 0, 58, 48
2, 36319, Note_on_c, 0, 61, 0
2, 36391, Note_on_c, 0, 60, 0
2, 36393, Note_on_c, 0, 72, 0
2, 36594, Control_c, 0, 64, 28
2, 36608, Control_c, 0, 64, 42
2, 36624, Control_c, 0, 64, 52
2, 36639, Control_c, 0, 64, 57
2, 36653, Control_c, 0, 64, 61
2, 36669, Control_c, 0, 64, 64
2, 36684, Control_c, 0, 64, 71
2, 36700, Control_c, 0, 64, 83
2, 36715, Control_c, 0, 64, 121
2, 36726, Note_on_c, 0, 73, 0
2, 36729, Control_c, 0, 64, 127
2, 36958, Control_c, 0, 64, 108
2, 36960, Note_on_c, 0, 65, 43
2, 36967, Note_on_c, 0, 56, 42
2, 36967, Note_on_c, 0, 70, 53
2, 36970, Note_on_c, 0, 73, 62
2, 36973, Control_c, 0, 64, 97
2, 36989, Control_c, 0, 64, 90
2, 37003, Control_c, 0, 64, 83
2, 37018, Control_c, 0, 64, 76
2, 37034, Control_c, 0, 64, 71
2, 37049, Control_c, 0, 64, 65
2, 37064, Control_c, 0, 64, 59
2, 37064, Note_on_c, 0, 58, 0
2, 37079, Control_c, 0, 64, 51
2, 37094, Control_c, 0, 64, 45
2, 37110, Control_c, 0, 64, 44
2, 37125, Control_c, 0, 64, 42
2, 37148, Control_c, 0, 64, 40
2, 37163, Control_c, 0, 64, 37
2, 37176, Control_c, 0, 64, 35
2, 37193, Control_c, 0, 64, 35
2, 37284, Control_c, 0, 64, 38
2, 37298, Control_c, 0, 64, 44
2, 37314, Control_c, 0, 64, 51
2, 37329, Control_c, 0, 64, 56
2, 37345, Control_c, 0, 64, 61
2, 37360, Control_c, 0, 64, 64
2, 37374, Control_c, 0, 64, 67
2, 37390, Control_c, 0, 64, 71
2, 37405, Control_c, 0, 64, 77
2, 37421, Control_c, 0, 64, 90
2, 37436, Control_c, 0, 64, 118
2, 37450, Control_c, 0, 64, 127
2, 37472, Note_on_c, 0, 73, 0
2, 37477, Note_on_c, 0, 70, 0
2, 37603, Control_c, 0, 64, 110
2, 37618, Control_c, 0, 64, 103
2, 37633, Control_c, 0, 64, 95
2, 37648, Control_c, 0, 64, 89
2, 37653, Note_on_c, 0, 63, 38
2, 37656, Note_on_c, 0, 55, 32
2, 37664, Control_c, 0, 64, 83
2, 37664, Note_on_c, 0, 70, 37
2, 37665, Note_on_c, 0, 73, 48
2, 37679, Control_c, 0, 64, 80
2, 37694, Control_c, 0, 64, 78
2, 37709, Control_c, 0, 64, 75
2, 37724, Control_c, 0, 64, 71
2, 37740, Control_c, 0, 64, 67
2, 37755, Control_c, 0, 64, 64
2, 37770, Control_c, 0, 64, 61
2, 37774, Note_on_c, 0, 65, 0
2, 37777, Note_on_c, 0, 56, 0
2, 37785, Control_c, 0, 64, 57
2, 37800, Control_c, 0, 64, 52
2, 37815, Control_c, 0, 64, 47
2, 37830, Control_c, 0, 64, 46
2, 37845, Control_c, 0, 64, 44
2, 37861, Control_c, 0, 64, 40
2, 37876, Control_c, 0, 64, 35
2, 37891, Control_c, 0, 64, 31
2, 37914, Control_c, 0, 64, 27
2, 37929, Control_c, 0, 64, 22
2, 37945, Control_c, 0, 64, 15
2, 37960, Control_c, 0, 64, 0
2, 38135, Note_on_c, 0, 63, 0
2, 38288, Note_on_c, 0, 72, 61
2, 38290, Note_on_c, 0, 63, 47
2, 38290, Note_on_c, 0, 68, 49
2, 38293, Note_on_c, 0, 56, 44
2, 38400, Note_on_c, 0, 70, 0
2, 38415, Note_on_c, 0, 55, 0
2, 38456, Note_on_c, 0, 73, 0
2, 38595, Note_on_c, 0, 70, 67
2, 38603, Note_on_c, 0, 55, 59
2, 38649, Note_on_c, 0, 72, 0
2, 38704, Note_on_c, 0, 56, 0
2, 38707, Note_on_c, 0, 63, 0
2, 38774, Note_on_c, 0, 68, 0
2, 38942, Note_on_c, 0, 72, 63
2, 38943, Note_on_c, 0, 53, 52
2, 39025, Note_on_c, 0, 55, 0
2, 39077, Note_on_c, 0, 70, 0
2, 39444, Note_on_c, 0, 72, 0
2, 39609, Note_on_c, 0, 65, 49
2, 39611, Note_on_c, 0, 72, 57
2, 39614, Note_on_c, 0, 68, 51
2, 39615, Note_on_c, 0, 51, 46
2, 39753, Note_on_c, 0, 53, 0
2, 39953, Control_c, 0, 64, 26
2, 39968, Control_c, 0, 64, 40
2, 39984, Control_c, 0, 64, 48
2, 39999, Control_c, 0, 64, 54
2, 40014, Control_c, 0, 64, 59
2, 40029, Control_c, 0, 64, 62
2, 40044, Control_c, 0, 64, 64
2, 40060, Control_c, 0, 64, 65
2, 40075, Control_c, 0, 64, 66
2, 40090, Control_c, 0, 64, 66
2, 40105, Control_c, 0, 64, 66
2, 40111, Note_on_c, 0, 68, 0
2, 40112, Note_on_c, 0, 65, 0
2, 40120, Control_c, 0, 64, 65
2, 40125, Note_on_c, 0, 72, 0
2, 40150, Control_c, 0, 64, 65
2, 40181, Control_c, 0, 64, 64
2, 40220, Control_c, 0, 64, 64
2, 40234, Control_c, 0, 64, 63
2, 40249, Control_c, 0, 64, 63
2, 40265, Control_c, 0, 64, 62
2, 40280, Control_c, 0, 64, 61
2, 40295, Control_c, 0, 64, 61
2, 40308, Note_on_c, 0, 50, 32
2, 40310, Note_on_c, 0, 65, 41
2, 40311, Control_c, 0, 64, 60
2, 40311, Note_on_c, 0, 68, 42
2, 40315, Note_on_c, 0, 72, 49
2, 40325, Control_c, 0, 64, 60
2, 40341, Control_c, 0, 64, 59
2, 40356, Control_c, 0, 64, 58
2, 40370, Control_c, 0, 64, 57
2, 40386, Control_c, 0, 64, 56
2, 40401, Control_c, 0, 64, 56
2, 40416, Control_c, 0, 64, 55
2, 40432, Control_c, 0, 64, 54
2, 40434, Note_on_c, 0, 51, 0
2, 40447, Control_c, 0, 64, 52
2, 40463, Control_c, 0, 64, 52
2, 40493, Control_c, 0, 64, 51
2, 40509, Control_c, 0, 64, 51
2, 40524, Control_c, 0, 64, 50
2, 40540, Control_c, 0, 64, 49
2, 40569, Control_c, 0, 64, 49
2, 40600, Control_c, 0, 64, 48
2, 40615, Control_c, 0, 64, 48
2, 40630, Control_c, 0, 64, 47
2, 40707, Control_c, 0, 64, 47
2, 40752, Control_c, 0, 64, 46
2, 40765, Note_on_c, 0, 65, 0
2, 40812, Control_c, 0, 64, 46
2, 40858, Control_c, 0, 64, 45
2, 40919, Control_c, 0, 64, 45
2, 40936, Note_on_c, 0, 67, 43
2, 40938, Note_on_c, 0, 65, 32
2, 40943, Note_on_c, 0, 55, 46
2, 40949, Note_on_c, 0, 70, 52
2, 41002, Control_c, 0, 64, 44
2, 41037, Note_on_c, 0, 68, 0
2, 41108, Control_c, 0, 64, 44
2, 41204, Note_on_c, 0, 50, 0
2, 41214, Note_on_c, 0, 72, 0
2, 41254, Note_on_c, 0, 53, 63
2, 41261, Note_on_c, 0, 68, 62
2, 41275, Control_c, 0, 64, 43
2, 41324, Note_on_c, 0, 70, 0
2, 41397, Note_on_c, 0, 55, 0
2, 41520, Note_on_c, 0, 65, 0
2, 41602, Note_on_c, 0, 52, 55
2, 41610, Note_on_c, 0, 70, 57
2, 41668, Note_on_c, 0, 67, 0
2, 41702, Note_on_c, 0, 53, 0
2, 41714, Note_on_c, 0, 68, 0
2, 41878, Control_c, 0, 64, 44
2, 41894, Control_c, 0, 64, 45
2, 41909, Control_c, 0, 64, 46
2, 41923, Control_c, 0, 64, 48
2, 41939, Control_c, 0, 64, 50
2, 41954, Control_c, 0, 64, 52
2, 41969, Control_c, 0, 64, 55
2, 41984, Control_c, 0, 64, 59
2, 41999, Control_c, 0, 64, 62
2, 42015, Control_c, 0, 64, 64
2, 42030, Control_c, 0, 64, 66
2, 42045, Control_c, 0, 64, 69
2, 42061, Control_c, 0, 64, 75
2, 42075, Control_c, 0, 64, 84
2, 42090, Control_c, 0, 64, 91
2, 42107, Control_c, 0, 64, 92
2, 42122, Control_c, 0, 64, 92
2, 42138, Control_c, 0, 64, 90
2, 42150, Note_on_c, 0, 70, 0
2, 42152, Control_c, 0, 64, 88
2, 42167, Control_c, 0, 64, 87
2, 42183, Control_c, 0, 64, 86
2, 42198, Control_c, 0, 64, 85
2, 42214, Control_c, 0, 64, 83
2, 42229, Control_c, 0, 64, 81
2, 42243, Control_c, 0, 64, 79
2, 42259, Control_c, 0, 64, 78
2, 42270, Note_on_c, 0, 65, 62
2, 42274, Control_c, 0, 64, 76
2, 42277, Note_on_c, 0, 67, 53
2, 42279, Note_on_c, 0, 70, 62
2, 42286, Note_on_c, 0, 55, 40
2, 42289, Control_c, 0, 64, 75
2, 42305, Control_c, 0, 64, 73
2, 42320, Control_c, 0, 64, 71
2, 42336, Control_c, 0, 64, 69
2, 42351, Control_c, 0, 64, 68
2, 42365, Control_c, 0, 64, 67
2, 42381, Control_c, 0, 64, 65
2, 42396, Control_c, 0, 64, 63
2, 42410, Control_c, 0, 64, 62
2, 42417, Note_on_c, 0, 52, 0
2, 42426, Control_c, 0, 64, 60
2, 42441, Control_c, 0, 64, 58
2, 42457, Control_c, 0, 64, 55
2, 42472, Control_c, 0, 64, 53
2, 42486, Control_c, 0, 64, 51
2, 42502, Control_c, 0, 64, 51
2, 42525, Control_c, 0, 64, 50
2, 42541, Control_c, 0, 64, 49
2, 42555, Control_c, 0, 64, 49
2, 42570, Control_c, 0, 64, 48
2, 42601, Control_c, 0, 64, 48
2, 42616, Control_c, 0, 64, 47
2, 42646, Control_c, 0, 64, 47
2, 42692, Control_c, 0, 64, 46
2, 42707, Control_c, 0, 64, 46
2, 42753, Control_c, 0, 64, 45
2, 42812, Note_on_c, 0, 70, 0
2, 42819, Note_on_c, 0, 67, 0
2, 42874, Control_c, 0, 64, 45
2, 42904, Control_c, 0, 64, 44
2, 42978, Note_on_c, 0, 67, 36
2, 42984, Note_on_c, 0, 64, 43
2, 42993, Note_on_c, 0, 70, 42
2, 43005, Note_on_c, 0, 48, 32
2, 43042, Control_c, 0, 64, 44
2, 43134, Control_c, 0, 64, 43
2, 43183, Note_on_c, 0, 55, 0
2, 43196, Note_on_c, 0, 65, 0
2, 43209, Control_c, 0, 64, 43
2, 43354, Control_c, 0, 64, 42
2, 43430, Control_c, 0, 64, 42
2, 43537, Control_c, 0, 64, 41
2, 43592, Note_on_c, 0, 60, 41
2, 43600, Note_on_c, 0, 68, 54
2, 43602, Note_on_c, 0, 53, 38
2, 43605, Note_on_c, 0, 65, 31
2, 43697, Note_on_c, 0, 67, 0
2, 43751, Control_c, 0, 64, 41
2, 43769, Note_on_c, 0, 64, 0
2, 43898, Note_on_c, 0, 51, 62
2, 43911, Note_on_c, 0, 67, 62
2, 43924, Note_on_c, 0, 48, 0
2, 43932, Control_c, 0, 64, 40
2, 43968, Note_on_c, 0, 68, 0
2, 43978, Control_c, 0, 64, 40
2, 44010, Note_on_c, 0, 70, 0
2, 44024, Control_c, 0, 64, 39
2, 44138, Control_c, 0, 64, 39
2, 44193, Note_on_c, 0, 53, 0
2, 44261, Note_on_c, 0, 49, 55
2, 44261, Note_on_c, 0, 68, 60
2, 44305, Control_c, 0, 64, 38
2, 44356, Note_on_c, 0, 67, 0
2, 44416, Note_on_c, 0, 60, 0
2, 44440, Note_on_c, 0, 51, 0
2, 44444, Note_on_c, 0, 65, 0
2, 44564, Control_c, 0, 64, 39
2, 44580, Control_c, 0, 64, 40
2, 44595, Control_c, 0, 64, 44
2, 44609, Control_c, 0, 64, 51
2, 44625, Control_c, 0, 64, 57
2, 44640, Control_c, 0, 64, 61
2, 44656, Control_c, 0, 64, 64
2, 44671, Control_c, 0, 64, 67
2, 44685, Control_c, 0, 64, 74
2, 44701, Control_c, 0, 64, 91
2, 44716, Control_c, 0, 64, 127
2, 44755, Note_on_c, 0, 68, 0
2, 44878, Note_on_c, 0, 60, 59
2, 44883, Note_on_c, 0, 48, 43
2, 44884, Note_on_c, 0, 68, 65
2, 44887, Note_on_c, 0, 65, 51
2, 44906, Control_c, 0, 64, 110
2, 44921, Control_c, 0, 64, 101
2, 44937, Control_c, 0, 64, 94
2, 44951, Control_c, 0, 64, 86
2, 44966, Control_c, 0, 64, 79
2, 44982, Control_c, 0, 64, 73
2, 44997, Control_c, 0, 64, 67
2, 45010, Note_on_c, 0, 49, 0
2, 45012, Control_c, 0, 64, 61
2, 45027, Control_c, 0, 64, 53
2, 45042, Control_c, 0, 64, 45
2, 45058, Control_c, 0, 64, 42
2, 45072, Control_c, 0, 64, 41
2, 45163, Control_c, 0, 64, 44
2, 45179, Control_c, 0, 64, 51
2, 45194, Control_c, 0, 64, 57
2, 45209, Control_c, 0, 64, 62
2, 45225, Control_c, 0, 64, 65
2, 45240, Control_c, 0, 64, 68
2, 45258, Control_c, 0, 64, 74
2, 45273, Control_c, 0, 64, 89
2, 45288, Control_c, 0, 64, 127
2, 45368, Note_on_c, 0, 65, 0
2, 45408, Note_on_c, 0, 68, 0
2, 45471, Control_c, 0, 64, 110
2, 45487, Control_c, 0, 64, 106
2, 45502, Control_c, 0, 64, 102
2, 45516, Control_c, 0, 64, 98
2, 45532, Control_c, 0, 64, 93
2, 45547, Control_c, 0, 64, 90
2, 45562, Control_c, 0, 64, 88
2, 45578, Control_c, 0, 64, 86
2, 45592, Note_on_c, 0, 68, 49
2, 45593, Note_on_c, 0, 65, 39
2, 45595, Note_on_c, 0, 46, 37
2, 45596, Note_on_c, 0, 61, 44
2, 45599, Control_c, 0, 64, 83
2, 45615, Control_c, 0, 64, 81
2, 45630, Control_c, 0, 64, 78
2, 45645, Control_c, 0, 64, 76
2, 45661, Control_c, 0, 64, 72
2, 45675, Control_c, 0, 64, 69
2, 45691, Control_c, 0, 64, 64
2, 45706, Control_c, 0, 64, 58
2, 45720, Control_c, 0, 64, 51
2, 45736, Control_c, 0, 64, 47
2, 45746, Note_on_c, 0, 48, 0
2, 45751, Control_c, 0, 64, 44
2, 45764, Note_on_c, 0, 60, 0
2, 45767, Control_c, 0, 64, 42
2, 45782, Control_c, 0, 64, 40
2, 45796, Control_c, 0, 64, 39
2, 45812, Control_c, 0, 64, 38
2, 45872, Control_c, 0, 64, 39
2, 45888, Control_c, 0, 64, 45
2, 45903, Control_c, 0, 64, 51
2, 45917, Control_c, 0, 64, 57
2, 45933, Control_c, 0, 64, 62
2, 45948, Control_c, 0, 64, 65
2, 45963, Control_c, 0, 64, 69
2, 45979, Control_c, 0, 64, 80
2, 45994, Control_c, 0, 64, 117
2, 46010, Control_c, 0, 64, 127
2, 46010, Note_on_c, 0, 61, 0
2, 46064, Note_on_c, 0, 46, 0
2, 46092, Note_on_c, 0, 65, 0
2, 46232, Note_on_c, 0, 67, 58
2, 46236, Note_on_c, 0, 58, 44
2, 46239, Note_on_c, 0, 61, 47
2, 46241, Note_on_c, 0, 46, 28
2, 46284, Control_c, 0, 64, 101
2, 46300, Control_c, 0, 64, 90
2, 46314, Control_c, 0, 64, 82
2, 46330, Control_c, 0, 64, 74
2, 46345, Control_c, 0, 64, 67
2, 46368, Control_c, 0, 64, 59
2, 46374, Note_on_c, 0, 68, 0
2, 46383, Control_c, 0, 64, 48
2, 46397, Control_c, 0, 64, 43
2, 46545, Note_on_c, 0, 68, 67
2, 46564, Control_c, 0, 64, 42
2, 46636, Note_on_c, 0, 67, 0
2, 46656, Control_c, 0, 64, 42
2, 46671, Control_c, 0, 64, 41
2, 46676, Note_on_c, 0, 46, 0
2, 46687, Control_c, 0, 64, 41
2, 46716, Control_c, 0, 64, 40
2, 46732, Control_c, 0, 64, 39
2, 46747, Control_c, 0, 64, 38
2, 46761, Control_c, 0, 64, 38
2, 46777, Control_c, 0, 64, 37
2, 46792, Control_c, 0, 64, 36
2, 46808, Control_c, 0, 64, 34
2, 46823, Control_c, 0, 64, 33
2, 46838, Control_c, 0, 64, 31
2, 46854, Control_c, 0, 64, 29
2, 46869, Control_c, 0, 64, 26
2, 46870, Note_on_c, 0, 70, 68
2, 46874, Note_on_c, 0, 46, 50
2, 46883, Control_c, 0, 64, 24
2, 46899, Control_c, 0, 64, 18
2, 46914, Control_c, 0, 64, 11
2, 46930, Control_c, 0, 64, 0
2, 46984, Note_on_c, 0, 68, 0
2, 47064, Note_on_c, 0, 61, 0
2, 47069, Note_on_c, 0, 58, 0
2, 47242, Control_c, 0, 64, 32
2, 47258, Control_c, 0, 64, 52
2, 47273, Control_c, 0, 64, 60
2, 47288, Control_c, 0, 64, 67
2, 47303, Control_c, 0, 64, 81
2, 47318, Control_c, 0, 64, 127
2, 47398, Note_on_c, 0, 46, 0
2, 47503, Note_on_c, 0, 67, 71
2, 47508, Note_on_c, 0, 61, 56
2, 47511, Note_on_c, 0, 58, 53
2, 47519, Note_on_c, 0, 46, 53
2, 47547, Control_c, 0, 64, 106
2, 47561, Control_c, 0, 64, 91
2, 47577, Control_c, 0, 64, 79
2, 47592, Control_c, 0, 64, 70
2, 47607, Control_c, 0, 64, 63
2, 47622, Control_c, 0, 64, 48
2, 47637, Control_c, 0, 64, 24
2, 47653, Control_c, 0, 64, 17
2, 47668, Control_c, 0, 64, 15
2, 47678, Note_on_c, 0, 70, 0
2, 47682, Control_c, 0, 64, 0
2, 47758, Control_c, 0, 64, 23
2, 47774, Control_c, 0, 64, 45
2, 47789, Control_c, 0, 64, 57
2, 47804, Control_c, 0, 64, 63
2, 47820, Control_c, 0, 64, 68
2, 47835, Control_c, 0, 64, 78
2, 47851, Control_c, 0, 64, 127
2, 47938, Note_on_c, 0, 46, 0
2, 48158, Note_on_c, 0, 64, 73
2, 48159, Note_on_c, 0, 46, 47
2, 48165, Note_on_c, 0, 55, 49
2, 48171, Note_on_c, 0, 60, 59
2, 48191, Control_c, 0, 64, 112
2, 48207, Control_c, 0, 64, 99
2, 48222, Control_c, 0, 64, 87
2, 48237, Control_c, 0, 64, 75
2, 48252, Control_c, 0, 64, 66
2, 48267, Control_c, 0, 64, 57
2, 48271, Note_on_c, 0, 61, 0
2, 48282, Control_c, 0, 64, 41
2, 48298, Control_c, 0, 64, 29
2, 48303, Note_on_c, 0, 58, 0
2, 48312, Note_on_c, 0, 67, 0
2, 48313, Control_c, 0, 64, 26
2, 48328, Control_c, 0, 64, 23
2, 48343, Control_c, 0, 64, 13
2, 48358, Control_c, 0, 64, 0
2, 48403, Control_c, 0, 64, 9
2, 48419, Control_c, 0, 64, 34
2, 48434, Control_c, 0, 64, 54
2, 48450, Control_c, 0, 64, 62
2, 48465, Control_c, 0, 64, 66
2, 48479, Control_c, 0, 64, 72
2, 48495, Control_c, 0, 64, 81
2, 48510, Control_c, 0, 64, 92
2, 48525, Control_c, 0, 64, 115
2, 48541, Control_c, 0, 64, 127
2, 48569, Note_on_c, 0, 60, 0
2, 48732, Control_c, 0, 64, 119
2, 48747, Control_c, 0, 64, 105
2, 48761, Control_c, 0, 64, 98
2, 48777, Control_c, 0, 64, 93
2, 48784, Note_on_c, 0, 65, 67
2, 48787, Note_on_c, 0, 56, 48
2, 48789, Note_on_c, 0, 72, 84
2, 48792, Control_c, 0, 64, 88
2, 48795, Note_on_c, 0, 44, 50
2, 48808, Control_c, 0, 64, 83
2, 48822, Control_c, 0, 64, 77
2, 48837, Control_c, 0, 64, 72
2, 48853, Control_c, 0, 64, 69
2, 48857, Note_on_c, 0, 55, 0
2, 48868, Control_c, 0, 64, 66
2, 48883, Control_c, 0, 64, 64
2, 48899, Control_c, 0, 64, 61
2, 48914, Control_c, 0, 64, 57
2, 48930, Control_c, 0, 64, 53
2, 48945, Control_c, 0, 64, 48
2, 48947, Note_on_c, 0, 64, 0
2, 48959, Control_c, 0, 64, 40
2, 48975, Control_c, 0, 64, 26
2, 48990, Control_c, 0, 64, 0
2, 48999, Note_on_c, 0, 46, 0
2, 49100, Note_on_c, 0, 64, 66
2, 49177, Note_on_c, 0, 65, 0
2, 49449, Note_on_c, 0, 65, 61
2, 49452, Note_on_c, 0, 49, 39
2, 49559, Note_on_c, 0, 44, 0
2, 49584, Note_on_c, 0, 64, 0
2, 49681, Control_c, 0, 64, 34
2, 49697, Control_c, 0, 64, 46
2, 49712, Control_c, 0, 64, 53
2, 49728, Control_c, 0, 64, 58
2, 49743, Control_c, 0, 64, 62
2, 49758, Control_c, 0, 64, 65
2, 49773, Control_c, 0, 64, 69
2, 49788, Control_c, 0, 64, 76
2, 49803, Control_c, 0, 64, 85
2, 49819, Control_c, 0, 64, 99
2, 49834, Control_c, 0, 64, 127
2, 49841, Note_on_c, 0, 65, 0
2, 49873, Note_on_c, 0, 49, 0
2, 49929, Note_on_c, 0, 56, 0
2, 50074, Note_on_c, 0, 65, 52
2, 50074, Note_on_c, 0, 70, 62
2, 50076, Control_c, 0, 64, 103
2, 50077, Note_on_c, 0, 55, 39
2, 50090, Note_on_c, 0, 49, 30
2, 50092, Control_c, 0, 64, 92
2, 50107, Control_c, 0, 64, 86
2, 50122, Control_c, 0, 64, 81
2, 50138, Control_c, 0, 64, 78
2, 50152, Control_c, 0, 64, 75
2, 50168, Control_c, 0, 64, 72
2, 50183, Control_c, 0, 64, 69
2, 50207, Control_c, 0, 64, 66
2, 50222, Control_c, 0, 64, 65
2, 50236, Control_c, 0, 64, 63
2, 50252, Control_c, 0, 64, 61
2, 50267, Control_c, 0, 64, 60
2, 50281, Control_c, 0, 64, 58
2, 50298, Control_c, 0, 64, 57
2, 50313, Control_c, 0, 64, 55
2, 50329, Control_c, 0, 64, 54
2, 50344, Control_c, 0, 64, 51
2, 50359, Control_c, 0, 64, 49
2, 50374, Control_c, 0, 64, 47
2, 50388, Note_on_c, 0, 53, 45
2, 50389, Control_c, 0, 64, 45
2, 50392, Note_on_c, 0, 68, 65
2, 50404, Control_c, 0, 64, 43
2, 50420, Control_c, 0, 64, 41
2, 50435, Control_c, 0, 64, 39
2, 50450, Control_c, 0, 64, 38
2, 50452, Note_on_c, 0, 72, 0
2, 50465, Control_c, 0, 64, 37
2, 50480, Control_c, 0, 64, 35
2, 50496, Control_c, 0, 64, 32
2, 50501, Note_on_c, 0, 70, 0
2, 50505, Note_on_c, 0, 55, 0
2, 50510, Control_c, 0, 64, 30
2, 50525, Control_c, 0, 64, 27
2, 50525, Note_on_c, 0, 49, 0
2, 50540, Note_on_c, 0, 65, 0
2, 50541, Control_c, 0, 64, 23
2, 50556, Control_c, 0, 64, 17
2, 50572, Control_c, 0, 64, 0
2, 50731, Note_on_c, 0, 70, 60
2, 50736, Note_on_c, 0, 49, 28
2, 50739, Note_on_c, 0, 55, 40
2, 50739, Note_on_c, 0, 65, 48
2, 50854, Note_on_c, 0, 53, 0
2, 50855, Note_on_c, 0, 68, 0
2, 50990, Control_c, 0, 64, 22
2, 51005, Control_c, 0, 64, 41
2, 51021, Control_c, 0, 64, 57
2, 51036, Control_c, 0, 64, 65
2, 51051, Control_c, 0, 64, 75
2, 51054, Note_on_c, 0, 70, 0
2, 51066, Control_c, 0, 64, 127
2, 51105, Note_on_c, 0, 55, 0
2, 51372, Note_on_c, 0, 70, 80
2, 51377, Note_on_c, 0, 55, 41
2, 51383, Note_on_c, 0, 64, 53
2, 51385, Note_on_c, 0, 48, 39
2, 51417, Control_c, 0, 64, 99
2, 51431, Control_c, 0, 64, 86
2, 51432, Note_on_c, 0, 65, 0
2, 51447, Control_c, 0, 64, 79
2, 51462, Control_c, 0, 64, 74
2, 51476, Control_c, 0, 64, 69
2, 51492, Control_c, 0, 64, 64
2, 51507, Control_c, 0, 64, 59
2, 51522, Control_c, 0, 64, 54
2, 51538, Control_c, 0, 64, 52
2, 51552, Control_c, 0, 64, 50
2, 51568, Control_c, 0, 64, 47
2, 51583, Control_c, 0, 64, 40
2, 51598, Control_c, 0, 64, 33
2, 51614, Control_c, 0, 64, 26
2, 51629, Control_c, 0, 64, 21
2, 51644, Control_c, 0, 64, 15
2, 51660, Control_c, 0, 64, 0
2, 51674, Note_on_c, 0, 46, 45
2, 51675, Note_on_c, 0, 62, 64
2, 51763, Note_on_c, 0, 64, 0
2, 51803, Note_on_c, 0, 48, 0
2, 51873, Note_on_c, 0, 55, 0
2, 51928, Note_on_c, 0, 49, 0
2, 52038, Note_on_c, 0, 55, 38
2, 52041, Note_on_c, 0, 64, 53
2, 52050, Note_on_c, 0, 48, 41
2, 52112, Note_on_c, 0, 46, 0
2, 52131, Note_on_c, 0, 62, 0
2, 52274, Control_c, 0, 64, 19
2, 52290, Control_c, 0, 64, 32
2, 52305, Control_c, 0, 64, 45
2, 52320, Control_c, 0, 64, 53
2, 52335, Control_c, 0, 64, 60
2, 52350, Control_c, 0, 64, 66
2, 52365, Control_c, 0, 64, 72
2, 52381, Control_c, 0, 64, 85
2, 52396, Control_c, 0, 64, 108
2, 52412, Control_c, 0, 64, 127
2, 52449, Note_on_c, 0, 48, 0
2, 52464, Note_on_c, 0, 64, 0
2, 52551, Note_on_c, 0, 55, 0
2, 52654, Note_on_c, 0, 68, 58
2, 52656, Note_on_c, 0, 64, 39
2, 52661, Note_on_c, 0, 48, 39
2, 52662, Control_c, 0, 64, 100
2, 52671, Note_on_c, 0, 60, 39
2, 52677, Control_c, 0, 64, 87
2, 52693, Control_c, 0, 64, 81
2, 52708, Control_c, 0, 64, 78
2, 52723, Control_c, 0, 64, 74
2, 52738, Control_c, 0, 64, 70
2, 52754, Control_c, 0, 64, 66
2, 52770, Control_c, 0, 64, 64
2, 52785, Control_c, 0, 64, 62
2, 52800, Control_c, 0, 64, 62
2, 52815, Control_c, 0, 64, 60
2, 52830, Control_c, 0, 64, 58
2, 52845, Control_c, 0, 64, 56
2, 52861, Control_c, 0, 64, 54
2, 52876, Control_c, 0, 64, 53
2, 52892, Control_c, 0, 64, 51
2, 52907, Control_c, 0, 64, 50
2, 52921, Control_c, 0, 64, 49
2, 52937, Control_c, 0, 64, 48
2, 52957, Note_on_c, 0, 67, 60
2, 53025, Note_on_c, 0, 68, 0
2, 53047, Note_on_c, 0, 64, 0
2, 53084, Note_on_c, 0, 60, 0
2, 53104, Control_c, 0, 64, 48
2, 53118, Control_c, 0, 64, 47
2, 53119, Note_on_c, 0, 48, 0
2, 53134, Control_c, 0, 64, 47
2, 53149, Control_c, 0, 64, 46
2, 53163, Control_c, 0, 64, 45
2, 53194, Control_c, 0, 64, 45
2, 53210, Control_c, 0, 64, 44
2, 53225, Control_c, 0, 64, 44
2, 53240, Control_c, 0, 64, 43
2, 53256, Control_c, 0, 64, 43
2, 53296, Note_on_c, 0, 68, 52
2, 53299, Note_on_c, 0, 64, 45
2, 53301, Note_on_c, 0, 60, 39
2, 53315, Note_on_c, 0, 48, 35
2, 53399, Note_on_c, 0, 67, 0
2, 53433, Note_on_c, 0, 70, 0
2, 53506, Control_c, 0, 64, 43
2, 53521, Control_c, 0, 64, 46
2, 53537, Control_c, 0, 64, 50
2, 53552, Control_c, 0, 64, 56
2, 53568, Control_c, 0, 64, 61
2, 53583, Control_c, 0, 64, 65
2, 53588, Note_on_c, 0, 68, 0
2, 53598, Control_c, 0, 64, 71
2, 53613, Control_c, 0, 64, 80
2, 53628, Control_c, 0, 64, 93
2, 53643, Control_c, 0, 64, 123
2, 53643, Note_on_c, 0, 64, 0
2, 53659, Control_c, 0, 64, 127
2, 53675, Note_on_c, 0, 48, 0
2, 53715, Note_on_c, 0, 60, 0
2, 53948, Control_c, 0, 64, 116
2, 53962, Control_c, 0, 64, 107
2, 53977, Note_on_c, 0, 68, 53
2, 53978, Control_c, 0, 64, 100
2, 53986, Note_on_c, 0, 41, 31
2, 53992, Note_on_c, 0, 65, 37
2, 53993, Control_c, 0, 64, 94
2, 53995, Note_on_c, 0, 60, 33
2, 54008, Control_c, 0, 64, 90
2, 54023, Control_c, 0, 64, 87
2, 54047, Control_c, 0, 64, 85
2, 54062, Control_c, 0, 64, 81
2, 54077, Control_c, 0, 64, 77
2, 54092, Control_c, 0, 64, 73
2, 54107, Control_c, 0, 64, 71
2, 54122, Control_c, 0, 64, 69
2, 54138, Control_c, 0, 64, 67
2, 54153, Control_c, 0, 64, 65
2, 54168, Control_c, 0, 64, 63
2, 54183, Control_c, 0, 64, 62
2, 54198, Control_c, 0, 64, 61
2, 54214, Control_c, 0, 64, 60
2, 54228, Control_c, 0, 64, 59
2, 54243, Control_c, 0, 64, 57
2, 54259, Control_c, 0, 64, 56
2, 54274, Control_c, 0, 64, 55
2, 54289, Control_c, 0, 64, 55
2, 54293, Note_on_c, 0, 63, 59
2, 54304, Control_c, 0, 64, 54
2, 54319, Control_c, 0, 64, 53
2, 54335, Control_c, 0, 64, 52
2, 54350, Control_c, 0, 64, 52
2, 54365, Control_c, 0, 64, 51
2, 54381, Control_c, 0, 64, 51
2, 54396, Control_c, 0, 64, 50
2, 54412, Control_c, 0, 64, 50
2, 54427, Control_c, 0, 64, 49
2, 54441, Control_c, 0, 64, 49
2, 54457, Control_c, 0, 64, 48
2, 54472, Control_c, 0, 64, 48
2, 54503, Control_c, 0, 64, 47
2, 54534, Control_c, 0, 64, 47
2, 54579, Control_c, 0, 64, 46
2, 54625, Control_c, 0, 64, 46
2, 54701, Control_c, 0, 64, 45
2, 54737, Note_on_c, 0, 61, 53
2, 54741, Note_on_c, 0, 46, 28
2, 54942, Note_on_c, 0, 41, 0
2, 54954, Note_on_c, 0, 63, 0
2, 54958, Note_on_c, 0, 65, 0
2, 55013, Control_c, 0, 64, 47
2, 55028, Control_c, 0, 64, 48
2, 55043, Control_c, 0, 64, 49
2, 55059, Control_c, 0, 64, 50
2, 55073, Control_c, 0, 64, 53
2, 55089, Control_c, 0, 64, 57
2, 55104, Control_c, 0, 64, 61
2, 55119, Control_c, 0, 64, 64
2, 55134, Control_c, 0, 64, 67
2, 55149, Control_c, 0, 64, 71
2, 55164, Control_c, 0, 64, 77
2, 55164, Note_on_c, 0, 46, 0
2, 55180, Control_c, 0, 64, 83
2, 55193, Note_on_c, 0, 60, 0
2, 55194, Control_c, 0, 64, 92
2, 55212, Control_c, 0, 64, 105
2, 55227, Control_c, 0, 64, 127
2, 55227, Note_on_c, 0, 61, 0
2, 55444, Note_on_c, 0, 66, 56
2, 55450, Note_on_c, 0, 61, 40
2, 55463, Note_on_c, 0, 46, 26
2, 55463, Note_on_c, 0, 58, 32
2, 55469, Control_c, 0, 64, 111
2, 55484, Control_c, 0, 64, 102
2, 55500, Control_c, 0, 64, 92
2, 55515, Control_c, 0, 64, 82
2, 55530, Control_c, 0, 64, 74
2, 55545, Control_c, 0, 64, 67
2, 55560, Control_c, 0, 64, 63
2, 55583, Control_c, 0, 64, 61
2, 55598, Control_c, 0, 64, 60
2, 55628, Control_c, 0, 64, 60
2, 55643, Control_c, 0, 64, 63
2, 55659, Control_c, 0, 64, 66
2, 55674, Control_c, 0, 64, 72
2, 55690, Control_c, 0, 64, 85
2, 55704, Control_c, 0, 64, 104
2, 55719, Control_c, 0, 64, 127
2, 55721, Note_on_c, 0, 58, 0
2, 55764, Note_on_c, 0, 57, 49
2, 55764, Note_on_c, 0, 65, 66
2, 55796, Control_c, 0, 64, 94
2, 55812, Control_c, 0, 64, 77
2, 55827, Control_c, 0, 64, 67
2, 55841, Control_c, 0, 64, 62
2, 55857, Control_c, 0, 64, 61
2, 55858, Note_on_c, 0, 68, 0
2, 55868, Note_on_c, 0, 66, 0
2, 55872, Control_c, 0, 64, 61
2, 55888, Control_c, 0, 64, 63
2, 55903, Control_c, 0, 64, 68
2, 55909, Note_on_c, 0, 61, 0
2, 55917, Control_c, 0, 64, 77
2, 55933, Control_c, 0, 64, 98
2, 55946, Note_on_c, 0, 57, 0
2, 55948, Control_c, 0, 64, 127
2, 56008, Note_on_c, 0, 46, 0
2, 56108, Note_on_c, 0, 66, 68
2, 56116, Control_c, 0, 64, 105
2, 56120, Note_on_c, 0, 58, 47
2, 56123, Note_on_c, 0, 61, 51
2, 56125, Note_on_c, 0, 46, 46
2, 56131, Control_c, 0, 64, 88
2, 56146, Control_c, 0, 64, 78
2, 56161, Control_c, 0, 64, 71
2, 56177, Control_c, 0, 64, 67
2, 56192, Control_c, 0, 64, 64
2, 56207, Control_c, 0, 64, 60
2, 56222, Control_c, 0, 64, 55
2, 56237, Control_c, 0, 64, 51
2, 56247, Note_on_c, 0, 65, 0
2, 56253, Control_c, 0, 64, 47
2, 56267, Control_c, 0, 64, 43
2, 56282, Control_c, 0, 64, 39
2, 56298, Control_c, 0, 64, 36
2, 56313, Control_c, 0, 64, 35
2, 56367, Control_c, 0, 64, 39
2, 56381, Control_c, 0, 64, 46
2, 56396, Control_c, 0, 64, 53
2, 56412, Control_c, 0, 64, 60
2, 56426, Control_c, 0, 64, 65
2, 56441, Control_c, 0, 64, 73
2, 56457, Control_c, 0, 64, 106
2, 56472, Control_c, 0, 64, 127
2, 56562, Note_on_c, 0, 46, 0
2, 56724, Note_on_c, 0, 54, 58
2, 56725, Note_on_c, 0, 73, 77
2, 56729, Note_on_c, 0, 70, 61
2, 56735, Note_on_c, 0, 46, 46
2, 56760, Control_c, 0, 64, 95
2, 56776, Control_c, 0, 64, 81
2, 56791, Control_c, 0, 64, 71
2, 56805, Control_c, 0, 64, 65
2, 56814, Note_on_c, 0, 66, 0
2, 56821, Control_c, 0, 64, 60
2, 56836, Control_c, 0, 64, 56
2, 56853, Control_c, 0, 64, 56
2, 56883, Control_c, 0, 64, 59
2, 56898, Control_c, 0, 64, 64
2, 56913, Control_c, 0, 64, 69
2, 56929, Control_c, 0, 64, 77
2, 56944, Control_c, 0, 64, 79
2, 56959, Control_c, 0, 64, 78
2, 56974, Control_c, 0, 64, 76
2, 56989, Control_c, 0, 64, 75
2, 57004, Control_c, 0, 64, 74
2, 57007, Note_on_c, 0, 58, 0
2, 57020, Control_c, 0, 64, 73
2, 57023, Note_on_c, 0, 53, 64
2, 57034, Note_on_c, 0, 69, 76
2, 57035, Control_c, 0, 64, 71
2, 57050, Control_c, 0, 64, 69
2, 57065, Control_c, 0, 64, 66
2, 57080, Control_c, 0, 64, 66
2, 57087, Note_on_c, 0, 70, 0
2, 57096, Control_c, 0, 64, 65
2, 57118, Control_c, 0, 64, 64
2, 57134, Control_c, 0, 64, 60
2, 57149, Control_c, 0, 64, 58
2, 57164, Control_c, 0, 64, 56
2, 57172, Note_on_c, 0, 54, 0
2, 57180, Control_c, 0, 64, 55
2, 57194, Control_c, 0, 64, 53
2, 57210, Control_c, 0, 64, 50
2, 57225, Control_c, 0, 64, 45
2, 57225, Note_on_c, 0, 46, 0
2, 57240, Control_c, 0, 64, 40
2, 57256, Control_c, 0, 64, 37
2, 57270, Control_c, 0, 64, 34
2, 57285, Control_c, 0, 64, 30
2, 57301, Control_c, 0, 64, 25
2, 57315, Control_c, 0, 64, 17
2, 57331, Control_c, 0, 64, 11
2, 57346, Control_c, 0, 64, 0
2, 57382, Note_on_c, 0, 54, 70
2, 57397, Note_on_c, 0, 70, 62
2, 57409, Note_on_c, 0, 46, 38
2, 57444, Note_on_c, 0, 61, 0
2, 57494, Note_on_c, 0, 69, 0
2, 57586, Note_on_c, 0, 53, 0
2, 57893, Note_on_c, 0, 46, 0
2, 58024, Note_on_c, 0, 46, 46
2, 58035, Note_on_c, 0, 72, 72
2, 58135, Note_on_c, 0, 70, 0
2, 58334, Note_on_c, 0, 70, 82
2, 58427, Note_on_c, 0, 72, 0
2, 58464, Control_c, 0, 64, 24
2, 58479, Control_c, 0, 64, 43
2, 58496, Control_c, 0, 64, 52
2, 58511, Control_c, 0, 64, 57
2, 58514, Note_on_c, 0, 46, 0
2, 58527, Control_c, 0, 64, 61
2, 58541, Control_c, 0, 64, 65
2, 58556, Control_c, 0, 64, 69
2, 58572, Control_c, 0, 64, 73
2, 58587, Control_c, 0, 64, 79
2, 58601, Control_c, 0, 64, 85
2, 58617, Control_c, 0, 64, 92
2, 58632, Control_c, 0, 64, 98
2, 58670, Control_c, 0, 64, 94
2, 58682, Note_on_c, 0, 76, 81
2, 58684, Note_on_c, 0, 55, 48
2, 58685, Control_c, 0, 64, 90
2, 58687, Note_on_c, 0, 72, 66
2, 58696, Note_on_c, 0, 46, 45
2, 58701, Control_c, 0, 64, 85
2, 58716, Control_c, 0, 64, 80
2, 58731, Control_c, 0, 64, 73
2, 58746, Control_c, 0, 64, 68
2, 58761, Control_c, 0, 64, 63
2, 58776, Note_on_c, 0, 73, 0
2, 58777, Control_c, 0, 64, 61
2, 58792, Control_c, 0, 64, 58
2, 58807, Control_c, 0, 64, 52
2, 58809, Note_on_c, 0, 54, 0
2, 58822, Control_c, 0, 64, 30
2, 58824, Note_on_c, 0, 70, 0
2, 58837, Control_c, 0, 64, 0
2, 58958, Control_c, 0, 64, 46
2, 58974, Control_c, 0, 64, 60
2, 58989, Control_c, 0, 64, 66
2, 59003, Control_c, 0, 64, 73
2, 59019, Control_c, 0, 64, 90
2, 59034, Control_c, 0, 64, 127
2, 59085, Note_on_c, 0, 55, 0
2, 59090, Note_on_c, 0, 72, 0
2, 59309, Control_c, 0, 64, 95
2, 59315, Note_on_c, 0, 44, 50
2, 59317, Note_on_c, 0, 56, 49
2, 59324, Control_c, 0, 64, 76
2, 59325, Note_on_c, 0, 72, 83
2, 59333, Note_on_c, 0, 65, 63
2, 59340, Control_c, 0, 64, 65
2, 59355, Control_c, 0, 64, 57
2, 59370, Control_c, 0, 64, 48
2, 59385, Control_c, 0, 64, 47
2, 59385, Note_on_c, 0, 46, 0
2, 59400, Note_on_c, 0, 76, 0
2, 59423, Control_c, 0, 64, 52
2, 59437, Control_c, 0, 64, 59
2, 59453, Control_c, 0, 64, 66
2, 59468, Control_c, 0, 64, 72
2, 59483, Control_c, 0, 64, 83
2, 59493, Note_on_c, 0, 65, 0
2, 59499, Control_c, 0, 64, 97
2, 59514, Control_c, 0, 64, 116
2, 59529, Control_c, 0, 64, 127
2, 59571, Note_on_c, 0, 56, 0
2, 59604, Control_c, 0, 64, 108
2, 59619, Note_on_c, 0, 55, 67
2, 59620, Control_c, 0, 64, 92
2, 59625, Note_on_c, 0, 67, 82
2, 59635, Control_c, 0, 64, 79
2, 59650, Control_c, 0, 64, 67
2, 59665, Control_c, 0, 64, 54
2, 59680, Control_c, 0, 64, 0
2, 59972, Note_on_c, 0, 77, 88
2, 59976, Note_on_c, 0, 49, 40
2, 59976, Note_on_c, 0, 53, 48
2, 59985, Note_on_c, 0, 68, 61
2, 60082, Note_on_c, 0, 67, 0
2, 60116, Note_on_c, 0, 55, 0
2, 60125, Note_on_c, 0, 72, 0
2, 60153, Note_on_c, 0, 44, 0
2, 60297, Control_c, 0, 64, 37
2, 60312, Control_c, 0, 64, 51
2, 60327, Control_c, 0, 64, 60
2, 60342, Control_c, 0, 64, 68
2, 60355, Note_on_c, 0, 68, 0
2, 60357, Control_c, 0, 64, 84
2, 60373, Control_c, 0, 64, 127
2, 60612, Note_on_c, 0, 72, 82
2, 60615, Note_on_c, 0, 48, 59
2, 60615, Note_on_c, 0, 68, 77
2, 60630, Control_c, 0, 64, 107
2, 60645, Control_c, 0, 64, 97
2, 60661, Control_c, 0, 64, 89
2, 60676, Control_c, 0, 64, 82
2, 60691, Control_c, 0, 64, 76
2, 60706, Control_c, 0, 64, 70
2, 60709, Note_on_c, 0, 49, 0
2, 60721, Control_c, 0, 64, 65
2, 60737, Control_c, 0, 64, 60
2, 60752, Control_c, 0, 64, 53
2, 60768, Control_c, 0, 64, 49
2, 60783, Control_c, 0, 64, 45
2, 60798, Control_c, 0, 64, 42
2, 60813, Control_c, 0, 64, 37
2, 60828, Control_c, 0, 64, 31
2, 60843, Control_c, 0, 64, 24
2, 60859, Control_c, 0, 64, 18
2, 60874, Control_c, 0, 64, 15
2, 60890, Control_c, 0, 64, 11
2, 60904, Control_c, 0, 64, 0
2, 61153, Note_on_c, 0, 68, 0
2, 61256, Note_on_c, 0, 73, 78
2, 61259, Note_on_c, 0, 46, 61
2, 61264, Note_on_c, 0, 68, 71
2, 61337, Note_on_c, 0, 48, 0
2, 61344, Note_on_c, 0, 72, 0
2, 61505, Control_c, 0, 64, 23
2, 61520, Control_c, 0, 64, 37
2, 61535, Control_c, 0, 64, 47
2, 61550, Control_c, 0, 64, 54
2, 61565, Control_c, 0, 64, 60
2, 61581, Control_c, 0, 64, 65
2, 61596, Control_c, 0, 64, 73
2, 61611, Control_c, 0, 64, 104
2, 61626, Control_c, 0, 64, 127
2, 61925, Note_on_c, 0, 52, 68
2, 61927, Note_on_c, 0, 49, 64
2, 61931, Note_on_c, 0, 67, 65
2, 61934, Note_on_c, 0, 70, 80
2, 61988, Note_on_c, 0, 53, 0
2, 61999, Control_c, 0, 64, 101
2, 62015, Control_c, 0, 64, 91
2, 62030, Control_c, 0, 64, 83
2, 62045, Control_c, 0, 64, 77
2, 62061, Control_c, 0, 64, 71
2, 62076, Control_c, 0, 64, 65
2, 62091, Control_c, 0, 64, 56
2, 62092, Note_on_c, 0, 68, 0
2, 62106, Control_c, 0, 64, 45
2, 62112, Note_on_c, 0, 46, 0
2, 62121, Control_c, 0, 64, 35
2, 62137, Control_c, 0, 64, 30
2, 62152, Control_c, 0, 64, 26
2, 62168, Control_c, 0, 64, 21
2, 62182, Control_c, 0, 64, 0
2, 62226, Note_on_c, 0, 77, 0
2, 62229, Note_on_c, 0, 68, 84
2, 62232, Note_on_c, 0, 53, 79
2, 62314, Note_on_c, 0, 52, 0
2, 62325, Note_on_c, 0, 67, 0
2, 62333, Note_on_c, 0, 70, 0
2, 62581, Note_on_c, 0, 70, 70
2, 62586, Note_on_c, 0, 76, 84
2, 62595, Note_on_c, 0, 55, 62
2, 62601, Note_on_c, 0, 48, 58
2, 62704, Note_on_c, 0, 68, 0
2, 62717, Note_on_c, 0, 49, 0
2, 62721, Note_on_c, 0, 53, 0
2, 62761, Note_on_c, 0, 73, 0
2, 63085, Note_on_c, 0, 55, 0
2, 63118, Note_on_c, 0, 48, 0
2, 63124, Note_on_c, 0, 70, 0
2, 63252, Note_on_c, 0, 48, 63
2, 63257, Note_on_c, 0, 55, 59
2, 63257, Note_on_c, 0, 72, 86
2, 63258, Note_on_c, 0, 70, 70
2, 63685, Note_on_c, 0, 55, 0
2, 63707, Note_on_c, 0, 72, 0
2, 63712, Note_on_c, 0, 70, 0
2, 63734, Note_on_c, 0, 48, 0
2, 64072, Note_on_c, 0, 70, 53
2, 64080, Note_on_c, 0, 77, 73
2, 64083, Note_on_c, 0, 41, 38
2, 64083, Note_on_c, 0, 72, 57
2, 64085, Note_on_c, 0, 53, 39
2, 64270, Note_on_c, 0, 76, 0
2, 64330, Control_c, 0, 64, 21
2, 64346, Control_c, 0, 64, 29
2, 64360, Control_c, 0, 64, 34
2, 64375, Control_c, 0, 64, 41
2, 64391, Control_c, 0, 64, 46
2, 64406, Control_c, 0, 64, 50
2, 64422, Control_c, 0, 64, 54
2, 64436, Control_c, 0, 64, 57
2, 64451, Control_c, 0, 64, 60
2, 64467, Control_c, 0, 64, 62
2, 64482, Control_c, 0, 64, 65
2, 64497, Control_c, 0, 64, 68
2, 64512, Control_c, 0, 64, 74
2, 64524, Note_on_c, 0, 72, 0
2, 64527, Control_c, 0, 64, 83
2, 64543, Control_c, 0, 64, 93
2, 64557, Control_c, 0, 64, 102
2, 64572, Control_c, 0, 64, 110
2, 64588, Control_c, 0, 64, 113
2, 64679, Control_c, 0, 64, 111
2, 64694, Control_c, 0, 64, 108
2, 64710, Control_c, 0, 64, 107
2, 64741, Control_c, 0, 64, 106
2, 64755, Control_c, 0, 64, 105
2, 64770, Control_c, 0, 64, 102
2, 64793, Control_c, 0, 64, 100
2, 64808, Control_c, 0, 64, 97
2, 64816, Note_on_c, 0, 72, 57
2, 64823, Note_on_c, 0, 68, 51
2, 64824, Control_c, 0, 64, 94
2, 64838, Control_c, 0, 64, 92
2, 64853, Control_c, 0, 64, 89
2, 64869, Control_c, 0, 64, 86
2, 64884, Control_c, 0, 64, 85
2, 64899, Control_c, 0, 64, 83
2, 64915, Control_c, 0, 64, 81
2, 64921, Note_on_c, 0, 70, 0
2, 64930, Control_c, 0, 64, 79
2, 64946, Control_c, 0, 64, 78
2, 64960, Control_c, 0, 64, 77
2, 64975, Control_c, 0, 64, 76
2, 64991, Control_c, 0, 64, 74
2, 65006, Control_c, 0, 64, 72
2, 65022, Control_c, 0, 64, 71
2, 65037, Control_c, 0, 64, 70
2, 65052, Control_c, 0, 64, 69
2, 65068, Control_c, 0, 64, 67
2, 65083, Control_c, 0, 64, 65
2, 65098, Control_c, 0, 64, 64
2, 65114, Control_c, 0, 64, 64
2, 65128, Control_c, 0, 64, 63
2, 65134, Note_on_c, 0, 70, 54
2, 65141, Note_on_c, 0, 67, 43
2, 65144, Control_c, 0, 64, 62
2, 65159, Control_c, 0, 64, 61
2, 65174, Control_c, 0, 64, 60
2, 65190, Control_c, 0, 64, 60
2, 65204, Control_c, 0, 64, 59
2, 65219, Control_c, 0, 64, 59
2, 65232, Note_on_c, 0, 68, 0
2, 65235, Control_c, 0, 64, 57
2, 65250, Control_c, 0, 64, 57
2, 65252, Note_on_c, 0, 72, 0
2, 65280, Control_c, 0, 64, 56
2, 65295, Control_c, 0, 64, 55
2, 65311, Control_c, 0, 64, 55
2, 65325, Control_c, 0, 64, 54
2, 65356, Control_c, 0, 64, 54
2, 65371, Control_c, 0, 64, 53
2, 65387, Control_c, 0, 64, 53
2, 65401, Control_c, 0, 64, 52
2, 65435, Note_on_c, 0, 77, 0
2, 65447, Control_c, 0, 64, 52
2, 65463, Control_c, 0, 64, 51
2, 65477, Control_c, 0, 64, 51
2, 65510, Note_on_c, 0, 72, 48
2, 65523, Control_c, 0, 64, 50
2, 65527, Note_on_c, 0, 68, 22
2, 65538, Control_c, 0, 64, 50
2, 65561, Control_c, 0, 64, 49
2, 65606, Control_c, 0, 64, 49
2, 65622, Control_c, 0, 64, 48
2, 65627, Note_on_c, 0, 70, 0
2, 65637, Control_c, 0, 64, 48
2, 65668, Control_c, 0, 64, 47
2, 65682, Control_c, 0, 64, 47
2, 65697, Control_c, 0, 64, 46
2, 65698, Note_on_c, 0, 67, 0
2, 65713, Control_c, 0, 64, 46
2, 65727, Note_on_c, 0, 53, 0
2, 65728, Control_c, 0, 64, 45
2, 65744, Control_c, 0, 64, 44
2, 65746, Note_on_c, 0, 41, 0
2, 65759, Control_c, 0, 64, 44
2, 65773, Control_c, 0, 64, 43
2, 65789, Control_c, 0, 64, 42
2, 65804, Control_c, 0, 64, 41
2, 65819, Control_c, 0, 64, 41
2, 65835, Control_c, 0, 64, 40
2, 65850, Control_c, 0, 64, 40
2, 65866, Control_c, 0, 64, 39
2, 65881, Control_c, 0, 64, 39
2, 65912, Control_c, 0, 64, 38
2, 65942, Control_c, 0, 64, 38
2, 66003, Control_c, 0, 64, 37
2, 66208, Note_on_c, 0, 77, 45
2, 66213, Note_on_c, 0, 53, 36
2, 66287, Note_on_c, 0, 53, 0
2, 66537, Note_on_c, 0, 75, 54
2, 66558, Note_on_c, 0, 77, 0
2, 66945, Note_on_c, 0, 58, 37
2, 66948, Note_on_c, 0, 74, 48
2, 67057, Note_on_c, 0, 75, 0
2, 67058, Note_on_c, 0, 72, 0
2, 67156, Note_on_c, 0, 68, 0
2, 67401, Control_c, 0, 64, 38
2, 67477, Control_c, 0, 64, 38
2, 67625, Note_on_c, 0, 71, 48
2, 67640, Note_on_c, 0, 68, 27
2, 67935, Note_on_c, 0, 70, 55
2, 67937, Note_on_c, 0, 66, 43
2, 67997, Note_on_c, 0, 68, 0
2, 68074, Note_on_c, 0, 71, 0
2, 68290, Control_c, 0, 64, 39
2, 68309, Note_on_c, 0, 65, 35
2, 68315, Note_on_c, 0, 68, 43
2, 68463, Note_on_c, 0, 66, 0
2, 68504, Note_on_c, 0, 70, 0
2, 68511, Note_on_c, 0, 58, 0
2, 68531, Note_on_c, 0, 74, 0
2, 68977, Note_on_c, 0, 75, 53
2, 68990, Note_on_c, 0, 58, 32
2, 69057, Note_on_c, 0, 58, 0
2, 69293, Note_on_c, 0, 77, 55
2, 69400, Note_on_c, 0, 75, 0
2, 69689, Note_on_c, 0, 51, 37
2, 69696, Note_on_c, 0, 78, 50
2, 69855, Note_on_c, 0, 77, 0
2, 69883, Note_on_c, 0, 68, 0
2, 69926, Note_on_c, 0, 65, 0
2, 69979, Control_c, 0, 64, 39
2, 69995, Control_c, 0, 64, 41
2, 70010, Control_c, 0, 64, 44
2, 70026, Control_c, 0, 64, 47
2, 70041, Control_c, 0, 64, 51
2, 70055, Control_c, 0, 64, 55
2, 70071, Control_c, 0, 64, 58
2, 70086, Control_c, 0, 64, 60
2, 70102, Control_c, 0, 64, 63
2, 70116, Control_c, 0, 64, 65
2, 70131, Control_c, 0, 64, 67
2, 70147, Control_c, 0, 64, 71
2, 70170, Control_c, 0, 64, 78
2, 70186, Control_c, 0, 64, 88
2, 70200, Control_c, 0, 64, 99
2, 70213, Control_c, 0, 64, 104
2, 70229, Control_c, 0, 64, 105
2, 70259, Control_c, 0, 64, 103
2, 70274, Control_c, 0, 64, 102
2, 70289, Control_c, 0, 64, 101
2, 70305, Control_c, 0, 64, 100
2, 70320, Control_c, 0, 64, 99
2, 70335, Control_c, 0, 64, 97
2, 70345, Note_on_c, 0, 66, 47
2, 70351, Control_c, 0, 64, 94
2, 70366, Control_c, 0, 64, 92
2, 70372, Note_on_c, 0, 63, 34
2, 70382, Control_c, 0, 64, 90
2, 70396, Control_c, 0, 64, 88
2, 70411, Control_c, 0, 64, 86
2, 70427, Control_c, 0, 64, 84
2, 70442, Control_c, 0, 64, 81
2, 70457, Control_c, 0, 64, 80
2, 70472, Control_c, 0, 64, 79
2, 70487, Control_c, 0, 64, 78
2, 70503, Control_c, 0, 64, 77
2, 70517, Control_c, 0, 64, 75
2, 70532, Control_c, 0, 64, 74
2, 70548, Control_c, 0, 64, 73
2, 70563, Control_c, 0, 64, 72
2, 70578, Control_c, 0, 64, 71
2, 70593, Control_c, 0, 64, 70
2, 70608, Control_c, 0, 64, 69
2, 70624, Control_c, 0, 64, 68
2, 70639, Control_c, 0, 64, 67
2, 70654, Control_c, 0, 64, 66
2, 70658, Note_on_c, 0, 68, 61
2, 70659, Note_on_c, 0, 65, 44
2, 70669, Control_c, 0, 64, 64
2, 70684, Control_c, 0, 64, 63
2, 70699, Control_c, 0, 64, 63
2, 70715, Control_c, 0, 64, 62
2, 70729, Control_c, 0, 64, 62
2, 70745, Control_c, 0, 64, 60
2, 70760, Control_c, 0, 64, 59
2, 70776, Control_c, 0, 64, 58
2, 70784, Note_on_c, 0, 66, 0
2, 70807, Control_c, 0, 64, 58
2, 70822, Control_c, 0, 64, 57
2, 70837, Control_c, 0, 64, 55
2, 70852, Control_c, 0, 64, 54
2, 70854, Note_on_c, 0, 63, 0
2, 70883, Control_c, 0, 64, 54
2, 70897, Control_c, 0, 64, 53
2, 70913, Control_c, 0, 64, 53
2, 70936, Control_c, 0, 64, 52
2, 70952, Control_c, 0, 64, 51
2, 70983, Control_c, 0, 64, 51
2, 70998, Control_c, 0, 64, 50
2, 71013, Control_c, 0, 64, 50
2, 71043, Control_c, 0, 64, 49
2, 71051, Note_on_c, 0, 70, 50
2, 71057, Note_on_c, 0, 66, 44
2, 71074, Control_c, 0, 64, 49
2, 71089, Control_c, 0, 64, 48
2, 71119, Control_c, 0, 64, 48
2, 71179, Control_c, 0, 64, 47
2, 71192, Note_on_c, 0, 51, 0
2, 71195, Control_c, 0, 64, 47
2, 71238, Note_on_c, 0, 65, 0
2, 71240, Control_c, 0, 64, 46
2, 71243, Note_on_c, 0, 68, 0
2, 71254, Note_on_c, 0, 78, 0
2, 71255, Control_c, 0, 64, 46
2, 71286, Control_c, 0, 64, 45
2, 71317, Control_c, 0, 64, 45
2, 71348, Control_c, 0, 64, 44
2, 71377, Control_c, 0, 64, 44
2, 71408, Control_c, 0, 64, 43
2, 71438, Control_c, 0, 64, 43
2, 71469, Control_c, 0, 64, 42
2, 71498, Control_c, 0, 64, 42
2, 71574, Control_c, 0, 64, 41
2, 71652, Control_c, 0, 64, 41
2, 71709, Note_on_c, 0, 51, 43
2, 71714, Note_on_c, 0, 75, 53
2, 71802, Note_on_c, 0, 51, 0
2, 72035, Note_on_c, 0, 73, 50
2, 72049, Note_on_c, 0, 75, 0
2, 72300, Control_c, 0, 64, 40
2, 72428, Note_on_c, 0, 72, 43
2, 72545, Note_on_c, 0, 73, 0
2, 72594, Note_on_c, 0, 70, 0
2, 72652, Note_on_c, 0, 66, 0
2, 73067, Note_on_c, 0, 60, 41
2, 73071, Note_on_c, 0, 63, 38
2, 73361, Note_on_c, 0, 61, 45
2, 73375, Note_on_c, 0, 65, 46
2, 73492, Note_on_c, 0, 63, 0
2, 73513, Note_on_c, 0, 60, 0
2, 73719, Note_on_c, 0, 63, 36
2, 73720, Note_on_c, 0, 66, 45
2, 73817, Note_on_c, 0, 65, 0
2, 73852, Note_on_c, 0, 61, 0
2, 73881, Note_on_c, 0, 72, 0
2, 74358, Note_on_c, 0, 73, 47
2, 74360, Note_on_c, 0, 56, 36
2, 74439, Note_on_c, 0, 56, 0
2, 74667, Note_on_c, 0, 75, 54
2, 74736, Note_on_c, 0, 73, 0
2, 75057, Note_on_c, 0, 49, 23
2, 75070, Note_on_c, 0, 66, 0
2, 75073, Note_on_c, 0, 77, 47
2, 75172, Note_on_c, 0, 75, 0
2, 75290, Note_on_c, 0, 63, 0
2, 75740, Note_on_c, 0, 68, 44
2, 75753, Note_on_c, 0, 65, 18
2, 76041, Note_on_c, 0, 63, 42
2, 76044, Note_on_c, 0, 66, 48
2, 76125, Note_on_c, 0, 68, 0
2, 76142, Note_on_c, 0, 65, 0
2, 76409, Note_on_c, 0, 61, 22
2, 76418, Note_on_c, 0, 65, 39
2, 76535, Note_on_c, 0, 63, 0
2, 76540, Note_on_c, 0, 66, 0
2, 76575, Control_c, 0, 64, 41
2, 76589, Control_c, 0, 64, 43
2, 76604, Control_c, 0, 64, 46
2, 76620, Control_c, 0, 64, 49
2, 76635, Control_c, 0, 64, 52
2, 76650, Control_c, 0, 64, 56
2, 76665, Control_c, 0, 64, 59
2, 76680, Control_c, 0, 64, 62
2, 76696, Control_c, 0, 64, 64
2, 76711, Control_c, 0, 64, 67
2, 76725, Control_c, 0, 64, 72
2, 76733, Note_on_c, 0, 49, 0
2, 76741, Control_c, 0, 64, 83
2, 76756, Control_c, 0, 64, 106
2, 76771, Control_c, 0, 64, 127
2, 76801, Note_on_c, 0, 61, 0
2, 76803, Note_on_c, 0, 65, 0
2, 77045, Control_c, 0, 64, 121
2, 77061, Control_c, 0, 64, 116
2, 77082, Control_c, 0, 64, 110
2, 77091, Note_on_c, 0, 73, 51
2, 77098, Control_c, 0, 64, 103
2, 77105, Note_on_c, 0, 65, 36
2, 77113, Control_c, 0, 64, 98
2, 77118, Note_on_c, 0, 49, 24
2, 77122, Note_on_c, 0, 61, 19
2, 77128, Control_c, 0, 64, 95
2, 77143, Control_c, 0, 64, 92
2, 77158, Control_c, 0, 64, 90
2, 77173, Control_c, 0, 64, 87
2, 77189, Control_c, 0, 64, 83
2, 77204, Control_c, 0, 64, 80
2, 77220, Control_c, 0, 64, 78
2, 77235, Control_c, 0, 64, 75
2, 77250, Control_c, 0, 64, 73
2, 77266, Control_c, 0, 64, 70
2, 77280, Control_c, 0, 64, 66
2, 77296, Control_c, 0, 64, 64
2, 77311, Control_c, 0, 64, 63
2, 77326, Control_c, 0, 64, 60
2, 77342, Control_c, 0, 64, 58
2, 77357, Control_c, 0, 64, 57
2, 77372, Control_c, 0, 64, 56
2, 77388, Control_c, 0, 64, 56
2, 77400, Note_on_c, 0, 72, 52
2, 77403, Control_c, 0, 64, 55
2, 77419, Control_c, 0, 64, 54
2, 77433, Control_c, 0, 64, 53
2, 77443, Note_on_c, 0, 61, 0
2, 77448, Control_c, 0, 64, 51
2, 77469, Note_on_c, 0, 77, 0
2, 77509, Control_c, 0, 64, 52
2, 77522, Note_on_c, 0, 65, 0
2, 77524, Control_c, 0, 64, 54
2, 77540, Control_c, 0, 64, 56
2, 77555, Control_c, 0, 64, 57
2, 77569, Control_c, 0, 64, 57
2, 77600, Control_c, 0, 64, 57
2, 77645, Control_c, 0, 64, 56
2, 77661, Control_c, 0, 64, 56
2, 77676, Control_c, 0, 64, 55
2, 77707, Control_c, 0, 64, 55
2, 77721, Control_c, 0, 64, 54
2, 77737, Control_c, 0, 64, 53
2, 77752, Control_c, 0, 64, 52
2, 77767, Control_c, 0, 64, 51
2, 77767, Note_on_c, 0, 61, 24
2, 77768, Note_on_c, 0, 70, 49
2, 77782, Control_c, 0, 64, 51
2, 77782, Note_on_c, 0, 54, 27
2, 77787, Note_on_c, 0, 66, 33
2, 77797, Control_c, 0, 64, 50
2, 77812, Control_c, 0, 64, 49
2, 77824, Note_on_c, 0, 73, 0
2, 77828, Control_c, 0, 64, 48
2, 77850, Control_c, 0, 64, 47
2, 77866, Control_c, 0, 64, 46
2, 77881, Control_c, 0, 64, 45
2, 77892, Note_on_c, 0, 72, 0
2, 77896, Control_c, 0, 64, 44
2, 77911, Control_c, 0, 64, 43
2, 77965, Note_on_c, 0, 49, 0
2, 78018, Control_c, 0, 64, 43
2, 78033, Control_c, 0, 64, 46
2, 78047, Control_c, 0, 64, 51
2, 78063, Control_c, 0, 64, 55
2, 78078, Control_c, 0, 64, 59
2, 78093, Control_c, 0, 64, 63
2, 78108, Control_c, 0, 64, 65
2, 78116, Note_on_c, 0, 70, 0
2, 78123, Control_c, 0, 64, 69
2, 78138, Note_on_c, 0, 61, 0
2, 78139, Control_c, 0, 64, 78
2, 78155, Control_c, 0, 64, 93
2, 78170, Control_c, 0, 64, 127
2, 78189, Note_on_c, 0, 66, 0
2, 78218, Note_on_c, 0, 54, 0
2, 78403, Note_on_c, 0, 70, 67
2, 78416, Note_on_c, 0, 61, 27
2, 78416, Note_on_c, 0, 66, 41
2, 78420, Note_on_c, 0, 54, 31
2, 78459, Control_c, 0, 64, 113
2, 78474, Control_c, 0, 64, 105
2, 78488, Control_c, 0, 64, 99
2, 78504, Control_c, 0, 64, 93
2, 78519, Control_c, 0, 64, 88
2, 78535, Control_c, 0, 64, 83
2, 78550, Control_c, 0, 64, 78
2, 78565, Control_c, 0, 64, 72
2, 78580, Control_c, 0, 64, 67
2, 78595, Control_c, 0, 64, 63
2, 78618, Control_c, 0, 64, 57
2, 78633, Control_c, 0, 64, 54
2, 78648, Control_c, 0, 64, 52
2, 78665, Control_c, 0, 64, 52
2, 78680, Control_c, 0, 64, 51
2, 78693, Note_on_c, 0, 53, 46
2, 78695, Control_c, 0, 64, 50
2, 78710, Control_c, 0, 64, 49
2, 78750, Note_on_c, 0, 61, 0
2, 78755, Control_c, 0, 64, 50
2, 78770, Control_c, 0, 64, 52
2, 78786, Control_c, 0, 64, 56
2, 78801, Control_c, 0, 64, 60
2, 78816, Control_c, 0, 64, 63
2, 78831, Control_c, 0, 64, 66
2, 78846, Control_c, 0, 64, 69
2, 78862, Control_c, 0, 64, 73
2, 78877, Control_c, 0, 64, 78
2, 78892, Control_c, 0, 64, 85
2, 78892, Note_on_c, 0, 70, 0
2, 78907, Control_c, 0, 64, 94
2, 78922, Control_c, 0, 64, 98
2, 78938, Control_c, 0, 64, 99
2, 78969, Control_c, 0, 64, 98
2, 78985, Control_c, 0, 64, 98
2, 78999, Control_c, 0, 64, 97
2, 79030, Control_c, 0, 64, 96
2, 79045, Control_c, 0, 64, 94
2, 79057, Note_on_c, 0, 63, 28
2, 79057, Note_on_c, 0, 78, 66
2, 79060, Control_c, 0, 64, 92
2, 79060, Note_on_c, 0, 51, 35
2, 79060, Note_on_c, 0, 70, 44
2, 79075, Control_c, 0, 64, 90
2, 79090, Control_c, 0, 64, 86
2, 79106, Control_c, 0, 64, 82
2, 79121, Control_c, 0, 64, 78
2, 79137, Control_c, 0, 64, 74
2, 79152, Control_c, 0, 64, 70
2, 79161, Note_on_c, 0, 66, 0
2, 79167, Control_c, 0, 64, 66
2, 79180, Note_on_c, 0, 53, 0
2, 79182, Control_c, 0, 64, 60
2, 79197, Control_c, 0, 64, 52
2, 79203, Note_on_c, 0, 54, 0
2, 79212, Control_c, 0, 64, 44
2, 79228, Control_c, 0, 64, 37
2, 79242, Control_c, 0, 64, 34
2, 79258, Control_c, 0, 64, 33
2, 79273, Control_c, 0, 64, 32
2, 79318, Control_c, 0, 64, 34
2, 79333, Control_c, 0, 64, 44
2, 79349, Control_c, 0, 64, 56
2, 79364, Control_c, 0, 64, 62
2, 79387, Control_c, 0, 64, 66
2, 79389, Note_on_c, 0, 78, 0
2, 79402, Control_c, 0, 64, 72
2, 79402, Note_on_c, 0, 70, 0
2, 79418, Control_c, 0, 64, 83
2, 79433, Control_c, 0, 64, 111
2, 79448, Control_c, 0, 64, 127
2, 79449, Note_on_c, 0, 63, 0
2, 79453, Note_on_c, 0, 51, 0
2, 79690, Note_on_c, 0, 78, 71
2, 79695, Note_on_c, 0, 70, 59
2, 79698, Note_on_c, 0, 63, 50
2, 79700, Note_on_c, 0, 51, 65
2, 79736, Control_c, 0, 64, 107
2, 79751, Control_c, 0, 64, 95
2, 79766, Control_c, 0, 64, 85
2, 79782, Control_c, 0, 64, 78
2, 79798, Control_c, 0, 64, 74
2, 79812, Control_c, 0, 64, 70
2, 79828, Control_c, 0, 64, 66
2, 79843, Control_c, 0, 64, 61
2, 79859, Control_c, 0, 64, 54
2, 79874, Control_c, 0, 64, 51
2, 79888, Control_c, 0, 64, 51
2, 79919, Control_c, 0, 64, 50
2, 79935, Control_c, 0, 64, 49
2, 79950, Control_c, 0, 64, 48
2, 79965, Control_c, 0, 64, 47
2, 79981, Control_c, 0, 64, 46
2, 79996, Control_c, 0, 64, 46
2, 80004, Note_on_c, 0, 77, 77
2, 80008, Note_on_c, 0, 65, 55
2, 80041, Control_c, 0, 64, 45
2, 80072, Control_c, 0, 64, 45
2, 80086, Control_c, 0, 64, 44
2, 80117, Control_c, 0, 64, 44
2, 80124, Note_on_c, 0, 63, 0
2, 80127, Note_on_c, 0, 70, 0
2, 80132, Control_c, 0, 64, 43
2, 80155, Control_c, 0, 64, 43
2, 80200, Control_c, 0, 64, 42
2, 80201, Note_on_c, 0, 78, 0
2, 80362, Note_on_c, 0, 75, 66
2, 80365, Note_on_c, 0, 70, 56
2, 80366, Note_on_c, 0, 60, 54
2, 80371, Note_on_c, 0, 66, 46
2, 80489, Control_c, 0, 64, 42
2, 80498, Note_on_c, 0, 65, 0
2, 80504, Control_c, 0, 64, 41
2, 80519, Control_c, 0, 64, 40
2, 80519, Note_on_c, 0, 51, 0
2, 80535, Control_c, 0, 64, 40
2, 80535, Note_on_c, 0, 77, 0
2, 80550, Control_c, 0, 64, 39
2, 80565, Control_c, 0, 64, 38
2, 80580, Control_c, 0, 64, 36
2, 80595, Control_c, 0, 64, 33
2, 80611, Control_c, 0, 64, 33
2, 80672, Control_c, 0, 64, 34
2, 80687, Control_c, 0, 64, 46
2, 80703, Control_c, 0, 64, 58
2, 80704, Note_on_c, 0, 60, 0
2, 80715, Note_on_c, 0, 70, 0
2, 80718, Control_c, 0, 64, 66
2, 80732, Control_c, 0, 64, 74
2, 80748, Control_c, 0, 64, 102
2, 80763, Control_c, 0, 64, 127
2, 80791, Note_on_c, 0, 75, 0
2, 80812, Note_on_c, 0, 66, 0
2, 80989, Note_on_c, 0, 75, 88
2, 80995, Note_on_c, 0, 66, 59
2, 81001, Note_on_c, 0, 60, 53
2, 81003, Note_on_c, 0, 69, 61
2, 81043, Control_c, 0, 64, 113
2, 81059, Control_c, 0, 64, 99
2, 81073, Control_c, 0, 64, 92
2, 81088, Control_c, 0, 64, 88
2, 81104, Control_c, 0, 64, 83
2, 81119, Control_c, 0, 64, 78
2, 81135, Control_c, 0, 64, 72
2, 81149, Control_c, 0, 64, 67
2, 81164, Control_c, 0, 64, 64
2, 81180, Control_c, 0, 64, 62
2, 81195, Control_c, 0, 64, 60
2, 81210, Control_c, 0, 64, 58
2, 81225, Control_c, 0, 64, 56
2, 81240, Control_c, 0, 64, 54
2, 81249, Note_on_c, 0, 69, 0
2, 81256, Control_c, 0, 64, 53
2, 81271, Control_c, 0, 64, 52
2, 81286, Control_c, 0, 64, 49
2, 81289, Note_on_c, 0, 58, 70
2, 81293, Note_on_c, 0, 70, 77
2, 81301, Control_c, 0, 64, 47
2, 81316, Control_c, 0, 64, 44
2, 81319, Note_on_c, 0, 60, 0
2, 81331, Control_c, 0, 64, 41
2, 81345, Note_on_c, 0, 66, 0
2, 81347, Control_c, 0, 64, 39
2, 81362, Control_c, 0, 64, 38
2, 81378, Control_c, 0, 64, 36
2, 81393, Control_c, 0, 64, 35
2, 81407, Control_c, 0, 64, 34
2, 81625, Note_on_c, 0, 70, 0
2, 81668, Note_on_c, 0, 84, 81
2, 81683, Note_on_c, 0, 57, 45
2, 81683, Note_on_c, 0, 66, 50
2, 81683, Note_on_c, 0, 72, 53
2, 81773, Note_on_c, 0, 58, 0
2, 81824, Note_on_c, 0, 75, 0
2, 81858, Control_c, 0, 64, 34
2, 81887, Control_c, 0, 64, 33
2, 81979, Control_c, 0, 64, 34
2, 81993, Control_c, 0, 64, 43
2, 82008, Control_c, 0, 64, 53
2, 82024, Control_c, 0, 64, 60
2, 82038, Control_c, 0, 64, 64
2, 82053, Control_c, 0, 64, 69
2, 82069, Control_c, 0, 64, 81
2, 82081, Note_on_c, 0, 57, 0
2, 82084, Control_c, 0, 64, 127
2, 82096, Note_on_c, 0, 84, 0
2, 82105, Note_on_c, 0, 72, 0
2, 82291, Note_on_c, 0, 65, 49
2, 82297, Note_on_c, 0, 84, 85
2, 82298, Control_c, 0, 64, 112
2, 82306, Note_on_c, 0, 57, 42
2, 82309, Note_on_c, 0, 72, 59
2, 82313, Control_c, 0, 64, 105
2, 82328, Control_c, 0, 64, 100
2, 82344, Control_c, 0, 64, 94
2, 82359, Control_c, 0, 64, 91
2, 82375, Control_c, 0, 64, 87
2, 82390, Control_c, 0, 64, 84
2, 82405, Control_c, 0, 64, 81
2, 82420, Control_c, 0, 64, 78
2, 82435, Control_c, 0, 64, 74
2, 82457, Note_on_c, 0, 66, 0
2, 82458, Control_c, 0, 64, 71
2, 82473, Control_c, 0, 64, 68
2, 82487, Control_c, 0, 64, 65
2, 82504, Control_c, 0, 64, 62
2, 82519, Control_c, 0, 64, 59
2, 82535, Control_c, 0, 64, 58
2, 82550, Control_c, 0, 64, 58
2, 82564, Control_c, 0, 64, 56
2, 82580, Control_c, 0, 64, 55
2, 82595, Control_c, 0, 64, 53
2, 82610, Control_c, 0, 64, 51
2, 82615, Note_on_c, 0, 82, 77
2, 82626, Control_c, 0, 64, 50
2, 82640, Control_c, 0, 64, 49
2, 82656, Control_c, 0, 64, 47
2, 82671, Control_c, 0, 64, 46
2, 82686, Control_c, 0, 64, 44
2, 82702, Control_c, 0, 64, 43
2, 82717, Control_c, 0, 64, 41
2, 82732, Control_c, 0, 64, 40
2, 82747, Control_c, 0, 64, 39
2, 82762, Control_c, 0, 64, 38
2, 82778, Control_c, 0, 64, 37
2, 82793, Control_c, 0, 64, 36
2, 82808, Control_c, 0, 64, 36
2, 82818, Note_on_c, 0, 72, 0
2, 82824, Control_c, 0, 64, 35
2, 82853, Control_c, 0, 64, 35
2, 82869, Control_c, 0, 64, 34
2, 82883, Control_c, 0, 64, 33
2, 82899, Control_c, 0, 64, 33
2, 82914, Control_c, 0, 64, 32
2, 82945, Control_c, 0, 64, 31
2, 82959, Control_c, 0, 64, 31
2, 82990, Control_c, 0, 64, 30
2, 83018, Note_on_c, 0, 81, 66
2, 83021, Control_c, 0, 64, 30
2, 83021, Note_on_c, 0, 72, 58
2, 83026, Note_on_c, 0, 77, 59
2, 83034, Note_on_c, 0, 63, 39
2, 83035, Control_c, 0, 64, 29
2, 83050, Control_c, 0, 64, 28
2, 83067, Control_c, 0, 64, 28
2, 83082, Control_c, 0, 64, 27
2, 83098, Control_c, 0, 64, 26
2, 83112, Control_c, 0, 64, 25
2, 83127, Control_c, 0, 64, 24
2, 83143, Control_c, 0, 64, 22
2, 83158, Control_c, 0, 64, 19
2, 83173, Control_c, 0, 64, 16
2, 83185, Note_on_c, 0, 65, 0
2, 83188, Control_c, 0, 64, 12
2, 83203, Control_c, 0, 64, 0
2, 83203, Note_on_c, 0, 84, 0
2, 83224, Note_on_c, 0, 57, 0
2, 83225, Note_on_c, 0, 82, 0
2, 83394, Control_c, 0, 64, 36
2, 83408, Control_c, 0, 64, 51
2, 83424, Control_c, 0, 64, 58
2, 83439, Control_c, 0, 64, 62
2, 83455, Control_c, 0, 64, 65
2, 83470, Control_c, 0, 64, 74
2, 83484, Control_c, 0, 64, 103
2, 83500, Control_c, 0, 64, 127
2, 83512, Note_on_c, 0, 77, 0
2, 83527, Note_on_c, 0, 81, 0
2, 83538, Note_on_c, 0, 72, 0
2, 83649, Note_on_c, 0, 81, 65
2, 83651, Note_on_c, 0, 77, 59
2, 83663, Note_on_c, 0, 72, 63
2, 83669, Note_on_c, 0, 65, 36
2, 83696, Note_on_c, 0, 63, 0
2, 83698, Control_c, 0, 64, 113
2, 83713, Control_c, 0, 64, 101
2, 83727, Control_c, 0, 64, 92
2, 83743, Control_c, 0, 64, 86
2, 83758, Control_c, 0, 64, 82
2, 83773, Control_c, 0, 64, 78
2, 83789, Control_c, 0, 64, 75
2, 83803, Control_c, 0, 64, 71
2, 83819, Control_c, 0, 64, 68
2, 83834, Control_c, 0, 64, 65
2, 83849, Control_c, 0, 64, 63
2, 83865, Control_c, 0, 64, 62
2, 83881, Control_c, 0, 64, 61
2, 83897, Control_c, 0, 64, 61
2, 83911, Control_c, 0, 64, 59
2, 83926, Control_c, 0, 64, 58
2, 83942, Control_c, 0, 64, 56
2, 83945, Note_on_c, 0, 63, 55
2, 83956, Control_c, 0, 64, 56
2, 83995, Control_c, 0, 64, 54
2, 84010, Control_c, 0, 64, 53
2, 84025, Control_c, 0, 64, 52
2, 84039, Control_c, 0, 64, 52
2, 84045, Note_on_c, 0, 72, 0
2, 84055, Control_c, 0, 64, 51
2, 84070, Control_c, 0, 64, 50
2, 84085, Control_c, 0, 64, 49
2, 84086, Note_on_c, 0, 65, 0
2, 84101, Control_c, 0, 64, 48
2, 84105, Note_on_c, 0, 77, 0
2, 84130, Control_c, 0, 64, 48
2, 84146, Control_c, 0, 64, 47
2, 84161, Control_c, 0, 64, 45
2, 84176, Control_c, 0, 64, 44
2, 84191, Control_c, 0, 64, 44
2, 84206, Control_c, 0, 64, 43
2, 84222, Control_c, 0, 64, 42
2, 84237, Control_c, 0, 64, 40
2, 84251, Control_c, 0, 64, 38
2, 84267, Control_c, 0, 64, 37
2, 84273, Note_on_c, 0, 77, 54
2, 84281, Note_on_c, 0, 62, 41
2, 84281, Note_on_c, 0, 70, 54
2, 84282, Control_c, 0, 64, 36
2, 84288, Note_on_c, 0, 82, 61
2, 84298, Control_c, 0, 64, 35
2, 84313, Control_c, 0, 64, 32
2, 84328, Control_c, 0, 64, 29
2, 84343, Control_c, 0, 64, 23
2, 84358, Control_c, 0, 64, 16
2, 84373, Control_c, 0, 64, 0
2, 84412, Note_on_c, 0, 63, 0
2, 84433, Note_on_c, 0, 81, 0
2, 84556, Control_c, 0, 64, 11
2, 84570, Control_c, 0, 64, 32
2, 84586, Control_c, 0, 64, 47
2, 84601, Control_c, 0, 64, 54
2, 84617, Control_c, 0, 64, 59
2, 84632, Control_c, 0, 64, 64
2, 84646, Control_c, 0, 64, 70
2, 84659, Note_on_c, 0, 77, 0
2, 84662, Control_c, 0, 64, 84
2, 84677, Control_c, 0, 64, 127
2, 84713, Note_on_c, 0, 62, 0
2, 84738, Note_on_c, 0, 70, 0
2, 84760, Note_on_c, 0, 82, 0
2, 84923, Note_on_c, 0, 82, 67
2, 84925, Note_on_c, 0, 77, 57
2, 84927, Note_on_c, 0, 70, 52
2, 84929, Control_c, 0, 64, 123
2, 84933, Note_on_c, 0, 62, 44
2, 84945, Control_c, 0, 64, 107
2, 84959, Control_c, 0, 64, 99
2, 84975, Control_c, 0, 64, 92
2, 84990, Control_c, 0, 64, 85
2, 85004, Control_c, 0, 64, 80
2, 85020, Control_c, 0, 64, 76
2, 85035, Control_c, 0, 64, 74
2, 85050, Control_c, 0, 64, 71
2, 85066, Control_c, 0, 64, 68
2, 85081, Control_c, 0, 64, 66
2, 85096, Control_c, 0, 64, 65
2, 85111, Control_c, 0, 64, 64
2, 85126, Control_c, 0, 64, 62
2, 85141, Control_c, 0, 64, 61
2, 85171, Control_c, 0, 64, 60
2, 85187, Control_c, 0, 64, 59
2, 85202, Control_c, 0, 64, 57
2, 85205, Note_on_c, 0, 80, 69
2, 85218, Control_c, 0, 64, 56
2, 85233, Control_c, 0, 64, 55
2, 85264, Control_c, 0, 64, 55
2, 85279, Control_c, 0, 64, 53
2, 85284, Note_on_c, 0, 77, 0
2, 85293, Control_c, 0, 64, 51
2, 85309, Control_c, 0, 64, 50
2, 85324, Control_c, 0, 64, 49
2, 85339, Control_c, 0, 64, 49
2, 85340, Note_on_c, 0, 70, 0
2, 85354, Control_c, 0, 64, 48
2, 85369, Control_c, 0, 64, 46
2, 85385, Control_c, 0, 64, 45
2, 85400, Control_c, 0, 64, 45
2, 85430, Control_c, 0, 64, 44
2, 85445, Control_c, 0, 64, 43
2, 85461, Control_c, 0, 64, 42
2, 85476, Control_c, 0, 64, 41
2, 85490, Control_c, 0, 64, 41
2, 85506, Control_c, 0, 64, 40
2, 85545, Control_c, 0, 64, 39
2, 85560, Control_c, 0, 64, 39
2, 85576, Control_c, 0, 64, 38
2, 85591, Control_c, 0, 64, 38
2, 85606, Control_c, 0, 64, 37
2, 85617, Note_on_c, 0, 70, 49
2, 85619, Note_on_c, 0, 77, 62
2, 85620, Note_on_c, 0, 78, 62
2, 85621, Control_c, 0, 64, 37
2, 85625, Note_on_c, 0, 63, 34
2, 85636, Control_c, 0, 64, 36
2, 85651, Control_c, 0, 64, 36
2, 85667, Control_c, 0, 64, 35
2, 85698, Control_c, 0, 64, 35
2, 85727, Control_c, 0, 64, 34
2, 85758, Control_c, 0, 64, 34
2, 85773, Control_c, 0, 64, 33
2, 85781, Note_on_c, 0, 82, 0
2, 85803, Note_on_c, 0, 62, 0
2, 85817, Note_on_c, 0, 80, 0
2, 85848, Control_c, 0, 64, 34
2, 85864, Control_c, 0, 64, 38
2, 85879, Control_c, 0, 64, 45
2, 85895, Control_c, 0, 64, 51
2, 85910, Control_c, 0, 64, 56
2, 85924, Control_c, 0, 64, 59
2, 85940, Control_c, 0, 64, 62
2, 85955, Control_c, 0, 64, 65
2, 85970, Control_c, 0, 64, 70
2, 85985, Control_c, 0, 64, 82
2, 86000, Control_c, 0, 64, 113
2, 86009, Note_on_c, 0, 78, 0
2, 86013, Note_on_c, 0, 77, 0
2, 86016, Control_c, 0, 64, 127
2, 86057, Note_on_c, 0, 70, 0
2, 86078, Note_on_c, 0, 63, 0
2, 86260, Note_on_c, 0, 78, 57
2, 86271, Note_on_c, 0, 75, 48
2, 86273, Note_on_c, 0, 70, 45
2, 86274, Control_c, 0, 64, 110
2, 86291, Note_on_c, 0, 63, 42
2, 86297, Control_c, 0, 64, 96
2, 86312, Control_c, 0, 64, 90
2, 86327, Control_c, 0, 64, 87
2, 86345, Control_c, 0, 64, 84
2, 86360, Control_c, 0, 64, 77
2, 86375, Control_c, 0, 64, 70
2, 86390, Control_c, 0, 64, 65
2, 86405, Control_c, 0, 64, 61
2, 86420, Control_c, 0, 64, 58
2, 86435, Control_c, 0, 64, 56
2, 86450, Control_c, 0, 64, 50
2, 86466, Control_c, 0, 64, 43
2, 86481, Control_c, 0, 64, 33
2, 86496, Control_c, 0, 64, 27
2, 86511, Control_c, 0, 64, 25
2, 86526, Control_c, 0, 64, 24
2, 86578, Note_on_c, 0, 61, 42
2, 86602, Control_c, 0, 64, 28
2, 86618, Control_c, 0, 64, 40
2, 86633, Control_c, 0, 64, 49
2, 86648, Control_c, 0, 64, 56
2, 86664, Control_c, 0, 64, 61
2, 86669, Note_on_c, 0, 78, 0
2, 86673, Note_on_c, 0, 75, 0
2, 86679, Control_c, 0, 64, 64
2, 86695, Control_c, 0, 64, 66
2, 86700, Note_on_c, 0, 70, 0
2, 86709, Control_c, 0, 64, 69
2, 86724, Control_c, 0, 64, 75
2, 86740, Control_c, 0, 64, 84
2, 86755, Control_c, 0, 64, 94
2, 86770, Control_c, 0, 64, 107
2, 86785, Control_c, 0, 64, 127
2, 86906, Control_c, 0, 64, 109
2, 86914, Note_on_c, 0, 60, 41
2, 86920, Note_on_c, 0, 75, 47
2, 86921, Control_c, 0, 64, 100
2, 86923, Note_on_c, 0, 63, 0
2, 86923, Note_on_c, 0, 78, 51
2, 86929, Note_on_c, 0, 70, 41
2, 86937, Control_c, 0, 64, 94
2, 86952, Control_c, 0, 64, 89
2, 86967, Control_c, 0, 64, 81
2, 86982, Control_c, 0, 64, 73
2, 86997, Control_c, 0, 64, 67
2, 87012, Control_c, 0, 64, 61
2, 87025, Note_on_c, 0, 61, 0
2, 87028, Control_c, 0, 64, 56
2, 87043, Control_c, 0, 64, 51
2, 87066, Control_c, 0, 64, 47
2, 87081, Control_c, 0, 64, 41
2, 87097, Control_c, 0, 64, 36
2, 87111, Control_c, 0, 64, 33
2, 87126, Control_c, 0, 64, 32
2, 87157, Control_c, 0, 64, 34
2, 87173, Control_c, 0, 64, 43
2, 87189, Control_c, 0, 64, 54
2, 87204, Control_c, 0, 64, 60
2, 87219, Control_c, 0, 64, 64
2, 87234, Control_c, 0, 64, 67
2, 87241, Note_on_c, 0, 70, 0
2, 87249, Control_c, 0, 64, 71
2, 87264, Control_c, 0, 64, 80
2, 87279, Control_c, 0, 64, 99
2, 87295, Control_c, 0, 64, 127
2, 87297, Note_on_c, 0, 60, 0
2, 87349, Note_on_c, 0, 75, 0
2, 87355, Note_on_c, 0, 78, 0
2, 87553, Control_c, 0, 64, 109
2, 87564, Note_on_c, 0, 78, 57
2, 87566, Note_on_c, 0, 75, 45
2, 87567, Note_on_c, 0, 60, 33
2, 87568, Control_c, 0, 64, 96
2, 87568, Note_on_c, 0, 69, 43
2, 87584, Control_c, 0, 64, 89
2, 87599, Control_c, 0, 64, 84
2, 87615, Control_c, 0, 64, 78
2, 87629, Control_c, 0, 64, 70
2, 87644, Control_c, 0, 64, 65
2, 87660, Control_c, 0, 64, 61
2, 87674, Control_c, 0, 64, 60
2, 87689, Control_c, 0, 64, 59
2, 87705, Control_c, 0, 64, 58
2, 87720, Control_c, 0, 64, 56
2, 87736, Control_c, 0, 64, 54
2, 87750, Control_c, 0, 64, 52
2, 87765, Control_c, 0, 64, 51
2, 87781, Control_c, 0, 64, 49
2, 87796, Control_c, 0, 64, 47
2, 87811, Control_c, 0, 64, 45
2, 87834, Control_c, 0, 64, 42
2, 87849, Control_c, 0, 64, 39
2, 87865, Control_c, 0, 64, 36
2, 87877, Note_on_c, 0, 70, 64
2, 87880, Control_c, 0, 64, 33
2, 87887, Note_on_c, 0, 58, 43
2, 87895, Control_c, 0, 64, 28
2, 87910, Control_c, 0, 64, 25
2, 87914, Note_on_c, 0, 60, 0
2, 87925, Control_c, 0, 64, 23
2, 87941, Control_c, 0, 64, 22
2, 87987, Control_c, 0, 64, 24
2, 87994, Note_on_c, 0, 75, 0
2, 87998, Note_on_c, 0, 78, 0
2, 88002, Control_c, 0, 64, 38
2, 88006, Note_on_c, 0, 69, 0
2, 88018, Control_c, 0, 64, 52
2, 88033, Control_c, 0, 64, 60
2, 88048, Control_c, 0, 64, 63
2, 88063, Control_c, 0, 64, 66
2, 88078, Control_c, 0, 64, 72
2, 88093, Control_c, 0, 64, 83
2, 88108, Control_c, 0, 64, 107
2, 88123, Control_c, 0, 64, 127
2, 88196, Note_on_c, 0, 57, 40
2, 88217, Note_on_c, 0, 75, 56
2, 88223, Note_on_c, 0, 72, 58
2, 88226, Note_on_c, 0, 78, 57
2, 88230, Control_c, 0, 64, 118
2, 88245, Control_c, 0, 64, 101
2, 88260, Control_c, 0, 64, 88
2, 88275, Control_c, 0, 64, 79
2, 88290, Control_c, 0, 64, 72
2, 88306, Control_c, 0, 64, 67
2, 88318, Note_on_c, 0, 58, 0
2, 88321, Control_c, 0, 64, 62
2, 88329, Note_on_c, 0, 70, 0
2, 88337, Control_c, 0, 64, 55
2, 88351, Control_c, 0, 64, 44
2, 88366, Control_c, 0, 64, 35
2, 88382, Control_c, 0, 64, 29
2, 88397, Control_c, 0, 64, 27
2, 88412, Control_c, 0, 64, 26
2, 88428, Control_c, 0, 64, 26
2, 88488, Control_c, 0, 64, 30
2, 88504, Control_c, 0, 64, 44
2, 88518, Control_c, 0, 64, 55
2, 88533, Control_c, 0, 64, 62
2, 88549, Control_c, 0, 64, 65
2, 88564, Control_c, 0, 64, 69
2, 88580, Control_c, 0, 64, 77
2, 88593, Note_on_c, 0, 57, 0
2, 88602, Control_c, 0, 64, 94
2, 88618, Control_c, 0, 64, 127
2, 88631, Note_on_c, 0, 75, 0
2, 88652, Note_on_c, 0, 78, 0
2, 88707, Note_on_c, 0, 72, 0
2, 88876, Control_c, 0, 64, 117
2, 88877, Note_on_c, 0, 77, 63
2, 88878, Note_on_c, 0, 73, 54
2, 88891, Control_c, 0, 64, 102
2, 88891, Note_on_c, 0, 65, 37
2, 88898, Note_on_c, 0, 57, 32
2, 88906, Control_c, 0, 64, 92
2, 88921, Control_c, 0, 64, 83
2, 88937, Control_c, 0, 64, 72
2, 88951, Control_c, 0, 64, 66
2, 88966, Control_c, 0, 64, 60
2, 88982, Control_c, 0, 64, 55
2, 88997, Control_c, 0, 64, 53
2, 89012, Control_c, 0, 64, 52
2, 89027, Control_c, 0, 64, 51
2, 89119, Control_c, 0, 64, 49
2, 89135, Control_c, 0, 64, 48
2, 89149, Control_c, 0, 64, 47
2, 89164, Control_c, 0, 64, 46
2, 89180, Control_c, 0, 64, 45
2, 89190, Note_on_c, 0, 63, 52
2, 89190, Note_on_c, 0, 72, 66
2, 89195, Control_c, 0, 64, 43
2, 89210, Control_c, 0, 64, 42
2, 89226, Control_c, 0, 64, 42
2, 89240, Control_c, 0, 64, 41
2, 89278, Note_on_c, 0, 73, 0
2, 89285, Control_c, 0, 64, 41
2, 89287, Note_on_c, 0, 65, 0
2, 89312, Note_on_c, 0, 77, 0
2, 89530, Note_on_c, 0, 61, 48
2, 89533, Note_on_c, 0, 70, 56
2, 89538, Note_on_c, 0, 58, 35
2, 89541, Note_on_c, 0, 77, 63
2, 89636, Note_on_c, 0, 63, 0
2, 89663, Note_on_c, 0, 57, 0
2, 89681, Note_on_c, 0, 72, 0
2, 89765, Control_c, 0, 64, 43
2, 89781, Control_c, 0, 64, 46
2, 89795, Control_c, 0, 64, 51
2, 89810, Control_c, 0, 64, 56
2, 89826, Control_c, 0, 64, 61
2, 89841, Control_c, 0, 64, 65
2, 89857, Control_c, 0, 64, 69
2, 89871, Control_c, 0, 64, 77
2, 89883, Note_on_c, 0, 70, 0
2, 89886, Control_c, 0, 64, 104
2, 89902, Control_c, 0, 64, 127
2, 89913, Note_on_c, 0, 61, 0
2, 89947, Note_on_c, 0, 77, 0
2, 89968, Note_on_c, 0, 58, 0
2, 90152, Control_c, 0, 64, 121
2, 90165, Note_on_c, 0, 78, 70
2, 90167, Control_c, 0, 64, 98
2, 90168, Note_on_c, 0, 70, 63
2, 90173, Note_on_c, 0, 58, 51
2, 90184, Control_c, 0, 64, 82
2, 90192, Note_on_c, 0, 61, 48
2, 90199, Control_c, 0, 64, 74
2, 90213, Control_c, 0, 64, 70
2, 90229, Control_c, 0, 64, 68
2, 90244, Control_c, 0, 64, 67
2, 90260, Control_c, 0, 64, 65
2, 90275, Control_c, 0, 64, 61
2, 90289, Control_c, 0, 64, 58
2, 90305, Control_c, 0, 64, 56
2, 90320, Control_c, 0, 64, 55
2, 90351, Control_c, 0, 64, 54
2, 90366, Control_c, 0, 64, 53
2, 90382, Control_c, 0, 64, 53
2, 90464, Note_on_c, 0, 56, 60
2, 90471, Note_on_c, 0, 77, 79
2, 90473, Control_c, 0, 64, 50
2, 90488, Control_c, 0, 64, 39
2, 90504, Control_c, 0, 64, 0
2, 90522, Note_on_c, 0, 78, 0
2, 90564, Note_on_c, 0, 61, 0
2, 90604, Note_on_c, 0, 70, 0
2, 90686, Control_c, 0, 64, 30
2, 90702, Control_c, 0, 64, 37
2, 90716, Control_c, 0, 64, 42
2, 90731, Control_c, 0, 64, 45
2, 90747, Control_c, 0, 64, 47
2, 90761, Control_c, 0, 64, 48
2, 90790, Note_on_c, 0, 58, 0
2, 90807, Control_c, 0, 64, 47
2, 90822, Note_on_c, 0, 70, 63
2, 90823, Control_c, 0, 64, 44
2, 90824, Note_on_c, 0, 75, 73
2, 90828, Note_on_c, 0, 61, 49
2, 90831, Note_on_c, 0, 54, 44
2, 90838, Control_c, 0, 64, 39
2, 90852, Control_c, 0, 64, 32
2, 90868, Control_c, 0, 64, 20
2, 90883, Control_c, 0, 64, 0
2, 90916, Note_on_c, 0, 56, 0
2, 90947, Note_on_c, 0, 77, 0
2, 91058, Control_c, 0, 64, 40
2, 91073, Control_c, 0, 64, 53
2, 91088, Control_c, 0, 64, 60
2, 91104, Control_c, 0, 64, 64
2, 91119, Control_c, 0, 64, 67
2, 91133, Control_c, 0, 64, 75
2, 91149, Control_c, 0, 64, 89
2, 91164, Control_c, 0, 64, 127
2, 91180, Note_on_c, 0, 75, 0
2, 91243, Note_on_c, 0, 54, 0
2, 91246, Note_on_c, 0, 61, 0
2, 91265, Note_on_c, 0, 70, 0
2, 91507, Note_on_c, 0, 54, 45
2, 91507, Note_on_c, 0, 60, 39
2, 91509, Note_on_c, 0, 69, 70
2, 91513, Note_on_c, 0, 75, 70
2, 91515, Control_c, 0, 64, 113
2, 91530, Control_c, 0, 64, 104
2, 91546, Control_c, 0, 64, 96
2, 91560, Control_c, 0, 64, 90
2, 91576, Control_c, 0, 64, 84
2, 91591, Control_c, 0, 64, 80
2, 91605, Control_c, 0, 64, 74
2, 91621, Control_c, 0, 64, 70
2, 91636, Control_c, 0, 64, 66
2, 91651, Control_c, 0, 64, 61
2, 91675, Control_c, 0, 64, 57
2, 91690, Control_c, 0, 64, 53
2, 91705, Control_c, 0, 64, 51
2, 91718, Control_c, 0, 64, 49
2, 91733, Control_c, 0, 64, 46
2, 91748, Control_c, 0, 64, 39
2, 91763, Control_c, 0, 64, 27
2, 91779, Control_c, 0, 64, 0
2, 91804, Note_on_c, 0, 61, 64
2, 91811, Note_on_c, 0, 73, 77
2, 91813, Note_on_c, 0, 70, 72
2, 91819, Note_on_c, 0, 53, 52
2, 91819, Note_on_c, 0, 60, 0
2, 91858, Note_on_c, 0, 54, 0
2, 91883, Note_on_c, 0, 75, 0
2, 91901, Note_on_c, 0, 69, 0
2, 91961, Control_c, 0, 64, 45
2, 91977, Control_c, 0, 64, 61
2, 91992, Control_c, 0, 64, 66
2, 92007, Control_c, 0, 64, 74
2, 92011, Note_on_c, 0, 70, 0
2, 92022, Control_c, 0, 64, 94
2, 92037, Control_c, 0, 64, 127
2, 92090, Note_on_c, 0, 61, 0
2, 92163, Note_on_c, 0, 63, 60
2, 92168, Note_on_c, 0, 70, 65
2, 92170, Note_on_c, 0, 51, 60
2, 92172, Note_on_c, 0, 72, 77
2, 92191, Control_c, 0, 64, 108
2, 92205, Control_c, 0, 64, 88
2, 92221, Control_c, 0, 64, 76
2, 92229, Note_on_c, 0, 73, 0
2, 92236, Control_c, 0, 64, 68
2, 92250, Control_c, 0, 64, 63
2, 92266, Control_c, 0, 64, 56
2, 92268, Note_on_c, 0, 53, 0
2, 92281, Control_c, 0, 64, 46
2, 92297, Control_c, 0, 64, 37
2, 92312, Control_c, 0, 64, 28
2, 92326, Control_c, 0, 64, 23
2, 92342, Control_c, 0, 64, 21
2, 92357, Control_c, 0, 64, 20
2, 92402, Control_c, 0, 64, 26
2, 92418, Control_c, 0, 64, 43
2, 92441, Control_c, 0, 64, 55
2, 92457, Control_c, 0, 64, 62
2, 92467, Note_on_c, 0, 63, 0
2, 92471, Control_c, 0, 64, 68
2, 92486, Control_c, 0, 64, 77
2, 92502, Control_c, 0, 64, 106
2, 92504, Note_on_c, 0, 72, 0
2, 92517, Control_c, 0, 64, 127
2, 92554, Note_on_c, 0, 51, 0
2, 92569, Note_on_c, 0, 70, 0
2, 92795, Note_on_c, 0, 69, 70
2, 92800, Note_on_c, 0, 65, 69
2, 92800, Note_on_c, 0, 72, 77
2, 92803, Note_on_c, 0, 51, 65
2, 92821, Control_c, 0, 64, 113
2, 92836, Control_c, 0, 64, 86
2, 92851, Control_c, 0, 64, 69
2, 92866, Control_c, 0, 64, 58
2, 92881, Control_c, 0, 64, 35
2, 92898, Control_c, 0, 64, 18
2, 92928, Control_c, 0, 64, 21
2, 92944, Control_c, 0, 64, 40
2, 92959, Control_c, 0, 64, 55
2, 92973, Control_c, 0, 64, 63
2, 92974, Note_on_c, 0, 69, 0
2, 92989, Control_c, 0, 64, 68
2, 93004, Control_c, 0, 64, 76
2, 93019, Control_c, 0, 64, 90
2, 93034, Control_c, 0, 64, 127
2, 93103, Note_on_c, 0, 73, 84
2, 93107, Note_on_c, 0, 70, 79
2, 93117, Note_on_c, 0, 49, 69
2, 93125, Control_c, 0, 64, 90
2, 93141, Control_c, 0, 64, 71
2, 93145, Note_on_c, 0, 72, 0
2, 93156, Control_c, 0, 64, 63
2, 93170, Control_c, 0, 64, 54
2, 93186, Control_c, 0, 64, 47
2, 93209, Control_c, 0, 64, 46
2, 93225, Control_c, 0, 64, 50
2, 93239, Control_c, 0, 64, 60
2, 93254, Control_c, 0, 64, 66
2, 93266, Note_on_c, 0, 70, 0
2, 93270, Control_c, 0, 64, 72
2, 93283, Note_on_c, 0, 51, 0
2, 93285, Control_c, 0, 64, 82
2, 93289, Note_on_c, 0, 65, 0
2, 93301, Control_c, 0, 64, 95
2, 93315, Control_c, 0, 64, 127
2, 93406, Control_c, 0, 64, 107
2, 93422, Control_c, 0, 64, 91
2, 93436, Control_c, 0, 64, 80
2, 93451, Control_c, 0, 64, 73
2, 93453, Note_on_c, 0, 75, 84
2, 93454, Note_on_c, 0, 69, 64
2, 93458, Note_on_c, 0, 66, 64
2, 93467, Control_c, 0, 64, 68
2, 93482, Control_c, 0, 64, 64
2, 93483, Note_on_c, 0, 50, 41
2, 93493, Note_on_c, 0, 48, 54
2, 93498, Control_c, 0, 64, 59
2, 93510, Note_on_c, 0, 73, 0
2, 93512, Control_c, 0, 64, 51
2, 93527, Control_c, 0, 64, 41
2, 93543, Control_c, 0, 64, 28
2, 93544, Note_on_c, 0, 49, 0
2, 93552, Note_on_c, 0, 50, 0
2, 93558, Control_c, 0, 64, 0
2, 93742, Control_c, 0, 64, 41
2, 93757, Control_c, 0, 64, 58
2, 93772, Control_c, 0, 64, 65
2, 93782, Note_on_c, 0, 48, 0
2, 93787, Control_c, 0, 64, 73
2, 93802, Control_c, 0, 64, 97
2, 93805, Note_on_c, 0, 66, 0
2, 93808, Note_on_c, 0, 69, 0
2, 93818, Control_c, 0, 64, 127
2, 93901, Note_on_c, 0, 75, 0
2, 94057, Note_on_c, 0, 72, 86
2, 94060, Note_on_c, 0, 66, 73
2, 94061, Note_on_c, 0, 69, 73
2, 94069, Control_c, 0, 64, 96
2, 94073, Note_on_c, 0, 48, 73
2, 94084, Control_c, 0, 64, 78
2, 94100, Control_c, 0, 64, 64
2, 94114, Control_c, 0, 64, 48
2, 94129, Control_c, 0, 64, 22
2, 94145, Control_c, 0, 64, 12
2, 94176, Control_c, 0, 64, 21
2, 94191, Control_c, 0, 64, 44
2, 94206, Control_c, 0, 64, 57
2, 94214, Note_on_c, 0, 69, 0
2, 94222, Control_c, 0, 64, 64
2, 94236, Control_c, 0, 64, 69
2, 94251, Control_c, 0, 64, 77
2, 94267, Control_c, 0, 64, 91
2, 94281, Control_c, 0, 64, 127
2, 94356, Note_on_c, 0, 46, 72
2, 94359, Note_on_c, 0, 70, 77
2, 94364, Note_on_c, 0, 73, 83
2, 94372, Control_c, 0, 64, 98
2, 94388, Control_c, 0, 64, 83
2, 94403, Control_c, 0, 64, 72
2, 94419, Control_c, 0, 64, 66
2, 94433, Control_c, 0, 64, 61
2, 94448, Control_c, 0, 64, 54
2, 94454, Note_on_c, 0, 72, 0
2, 94464, Control_c, 0, 64, 48
2, 94475, Note_on_c, 0, 48, 0
2, 94478, Control_c, 0, 64, 44
2, 94493, Control_c, 0, 64, 40
2, 94509, Control_c, 0, 64, 36
2, 94514, Note_on_c, 0, 66, 0
2, 94524, Control_c, 0, 64, 31
2, 94541, Control_c, 0, 64, 24
2, 94556, Control_c, 0, 64, 17
2, 94571, Control_c, 0, 64, 0
2, 94714, Note_on_c, 0, 45, 65
2, 94720, Note_on_c, 0, 75, 84
2, 94725, Note_on_c, 0, 65, 67
2, 94725, Note_on_c, 0, 72, 74
2, 94839, Note_on_c, 0, 46, 0
2, 94843, Note_on_c, 0, 73, 0
2, 94888, Note_on_c, 0, 70, 0
2, 95174, Note_on_c, 0, 45, 0
2, 95231, Note_on_c, 0, 65, 0
2, 95353, Note_on_c, 0, 41, 72
2, 95359, Note_on_c, 0, 70, 66
2, 95364, Note_on_c, 0, 73, 75
2, 95368, Note_on_c, 0, 65, 68
2, 95416, Note_on_c, 0, 72, 0
2, 95416, Note_on_c, 0, 75, 0
2, 95674, Note_on_c, 0, 72, 73
2, 95686, Note_on_c, 0, 69, 72
2, 95724, Note_on_c, 0, 70, 0
2, 95779, Note_on_c, 0, 73, 0
2, 95833, Note_on_c, 0, 65, 0
2, 95875, Note_on_c, 0, 41, 0
2, 96076, Note_on_c, 0, 65, 59
2, 96077, Note_on_c, 0, 73, 73
2, 96081, Note_on_c, 0, 46, 54
2, 96081, Note_on_c, 0, 70, 67
2, 96254, Note_on_c, 0, 72, 0
2, 96300, Note_on_c, 0, 69, 0
2, 96502, Note_on_c, 0, 46, 0
2, 96751, Note_on_c, 0, 46, 50
2, 97057, Note_on_c, 0, 44, 70
2, 97195, Note_on_c, 0, 46, 0
2, 97392, Note_on_c, 0, 42, 71
2, 97567, Note_on_c, 0, 44, 0
2, 97714, Note_on_c, 0, 70, 0
2, 97754, Note_on_c, 0, 65, 0
2, 97913, Note_on_c, 0, 42, 0
2, 98021, Note_on_c, 0, 42, 74
2, 98032, Note_on_c, 0, 70, 76
2, 98035, Note_on_c, 0, 65, 62
2, 98323, Note_on_c, 0, 41, 69
2, 98405, Note_on_c, 0, 42, 0
2, 98438, Note_on_c, 0, 65, 0
2, 98473, Note_on_c, 0, 70, 0
2, 98733, Note_on_c, 0, 39, 60
2, 98735, Note_on_c, 0, 70, 68
2, 98736, Note_on_c, 0, 66, 60
2, 98894, Note_on_c, 0, 41, 0
2, 99253, Note_on_c, 0, 39, 0
2, 99390, Note_on_c, 0, 39, 52
2, 99395, Note_on_c, 0, 78, 71
2, 99711, Note_on_c, 0, 77, 73
2, 99803, Note_on_c, 0, 78, 0
2, 99819, Note_on_c, 0, 73, 0
2, 99870, Note_on_c, 0, 39, 0
2, 100024, Note_on_c, 0, 75, 65
2, 100033, Note_on_c, 0, 39, 43
2, 100295, Note_on_c, 0, 77, 0
2, 100354, Note_on_c, 0, 73, 62
2, 100426, Note_on_c, 0, 75, 0
2, 100453, Note_on_c, 0, 39, 0
2, 100491, Note_on_c, 0, 66, 0
2, 100493, Note_on_c, 0, 70, 0
2, 100686, Note_on_c, 0, 66, 50
2, 100687, Note_on_c, 0, 72, 59
2, 100694, Note_on_c, 0, 39, 32
2, 100698, Note_on_c, 0, 63, 44
2, 100757, Note_on_c, 0, 73, 0
2, 100896, Note_on_c, 0, 63, 0
2, 101020, Note_on_c, 0, 70, 54
2, 101031, Note_on_c, 0, 61, 44
2, 101130, Note_on_c, 0, 39, 0
2, 101135, Note_on_c, 0, 66, 0
2, 101180, Note_on_c, 0, 72, 0
2, 101285, Note_on_c, 0, 61, 0
2, 101467, Note_on_c, 0, 69, 49
2, 101471, Note_on_c, 0, 60, 37
2, 101474, Note_on_c, 0, 41, 31
2, 101474, Note_on_c, 0, 65, 34
2, 101606, Note_on_c, 0, 70, 0
2, 101731, Control_c, 0, 64, 31
2, 101747, Control_c, 0, 64, 45
2, 101762, Control_c, 0, 64, 53
2, 101777, Control_c, 0, 64, 58
2, 101792, Control_c, 0, 64, 61
2, 101807, Control_c, 0, 64, 64
2, 101823, Control_c, 0, 64, 67
2, 101828, Note_on_c, 0, 41, 0
2, 101838, Control_c, 0, 64, 75
2, 101852, Control_c, 0, 64, 87
2, 101868, Control_c, 0, 64, 110
2, 101873, Note_on_c, 0, 65, 0
2, 101883, Control_c, 0, 64, 127
2, 101931, Note_on_c, 0, 60, 0
2, 101977, Note_on_c, 0, 69, 0
2, 102308, Note_on_c, 0, 65, 42
2, 102324, Note_on_c, 0, 57, 31
2, 102327, Note_on_c, 0, 53, 30
2, 102339, Control_c, 0, 64, 123
2, 102355, Control_c, 0, 64, 115
2, 102370, Control_c, 0, 64, 108
2, 102386, Control_c, 0, 64, 103
2, 102401, Control_c, 0, 64, 100
2, 102424, Control_c, 0, 64, 100
2, 102439, Control_c, 0, 64, 99
2, 102453, Control_c, 0, 64, 98
2, 102469, Control_c, 0, 64, 95
2, 102484, Control_c, 0, 64, 93
2, 102498, Control_c, 0, 64, 92
2, 102514, Control_c, 0, 64, 91
2, 102529, Control_c, 0, 64, 89
2, 102545, Control_c, 0, 64, 88
2, 102560, Control_c, 0, 64, 87
2, 102575, Control_c, 0, 64, 87
2, 102590, Control_c, 0, 64, 86
2, 102605, Control_c, 0, 64, 84
2, 102620, Control_c, 0, 64, 83
2, 102648, Note_on_c, 0, 58, 41
2, 102651, Control_c, 0, 64, 82
2, 102653, Note_on_c, 0, 67, 53
2, 102682, Control_c, 0, 64, 81
2, 102696, Control_c, 0, 64, 80
2, 102744, Control_c, 0, 64, 79
2, 102758, Control_c, 0, 64, 78
2, 102773, Control_c, 0, 64, 78
2, 102819, Control_c, 0, 64, 77
2, 102829, Note_on_c, 0, 53, 0
2, 102835, Control_c, 0, 64, 76
2, 102866, Control_c, 0, 64, 76
2, 102895, Control_c, 0, 64, 75
2, 102911, Control_c, 0, 64, 74
2, 102925, Control_c, 0, 64, 74
2, 102971, Control_c, 0, 64, 73
2, 102972, Note_on_c, 0, 65, 0
2, 102987, Control_c, 0, 64, 72
2, 103001, Control_c, 0, 64, 71
2, 103015, Note_on_c, 0, 60, 34
2, 103016, Control_c, 0, 64, 70
2, 103018, Note_on_c, 0, 53, 15
2, 103020, Note_on_c, 0, 69, 51
2, 103032, Control_c, 0, 64, 70
2, 103047, Control_c, 0, 64, 69
2, 103063, Control_c, 0, 64, 67
2, 103077, Control_c, 0, 64, 65
2, 103092, Control_c, 0, 64, 64
2, 103108, Control_c, 0, 64, 63
2, 103117, Note_on_c, 0, 67, 0
2, 103123, Control_c, 0, 64, 61
2, 103136, Note_on_c, 0, 57, 0
2, 103137, Control_c, 0, 64, 57
2, 103153, Control_c, 0, 64, 51
2, 103168, Control_c, 0, 64, 43
2, 103192, Control_c, 0, 64, 35
2, 103194, Note_on_c, 0, 58, 0
2, 103207, Control_c, 0, 64, 27
2, 103221, Control_c, 0, 64, 23
2, 103235, Control_c, 0, 64, 21
2, 103266, Control_c, 0, 64, 22
2, 103281, Control_c, 0, 64, 30
2, 103296, Control_c, 0, 64, 42
2, 103312, Control_c, 0, 64, 51
2, 103327, Control_c, 0, 64, 57
2, 103341, Control_c, 0, 64, 61
2, 103357, Control_c, 0, 64, 64
2, 103372, Control_c, 0, 64, 67
2, 103388, Control_c, 0, 64, 71
2, 103403, Control_c, 0, 64, 77
2, 103417, Control_c, 0, 64, 88
2, 103433, Control_c, 0, 64, 123
2, 103444, Note_on_c, 0, 53, 0
2, 103448, Control_c, 0, 64, 127
2, 103452, Note_on_c, 0, 60, 0
2, 103452, Note_on_c, 0, 69, 0
2, 103706, Note_on_c, 0, 63, 66
2, 103724, Note_on_c, 0, 69, 50
2, 103727, Note_on_c, 0, 60, 37
2, 103743, Note_on_c, 0, 65, 36
2, 103751, Note_on_c, 0, 53, 21
2, 103753, Control_c, 0, 64, 114
2, 103767, Control_c, 0, 64, 102
2, 103783, Control_c, 0, 64, 93
2, 103798, Control_c, 0, 64, 84
2, 103813, Control_c, 0, 64, 76
2, 103829, Control_c, 0, 64, 68
2, 103844, Control_c, 0, 64, 62
2, 103859, Control_c, 0, 64, 55
2, 103874, Control_c, 0, 64, 48
2, 103889, Control_c, 0, 64, 47
2, 103905, Control_c, 0, 64, 46
2, 103973, Control_c, 0, 64, 49
2, 103988, Control_c, 0, 64, 56
2, 104003, Control_c, 0, 64, 61
2, 104018, Control_c, 0, 64, 65
2, 104034, Control_c, 0, 64, 68
2, 104049, Control_c, 0, 64, 73
2, 104054, Note_on_c, 0, 65, 0
2, 104064, Control_c, 0, 64, 79
2, 104076, Note_on_c, 0, 69, 0
2, 104079, Control_c, 0, 64, 86
2, 104093, Note_on_c, 0, 53, 0
2, 104094, Control_c, 0, 64, 96
2, 104110, Control_c, 0, 64, 113
2, 104125, Control_c, 0, 64, 127
2, 104455, Note_on_c, 0, 61, 54
2, 104460, Control_c, 0, 64, 117
2, 104463, Note_on_c, 0, 69, 53
2, 104468, Note_on_c, 0, 65, 47
2, 104476, Control_c, 0, 64, 106
2, 104490, Control_c, 0, 64, 99
2, 104496, Note_on_c, 0, 53, 25
2, 104497, Note_on_c, 0, 58, 33
2, 104506, Control_c, 0, 64, 93
2, 104521, Control_c, 0, 64, 89
2, 104536, Control_c, 0, 64, 83
2, 104552, Control_c, 0, 64, 78
2, 104566, Control_c, 0, 64, 73
2, 104581, Control_c, 0, 64, 71
2, 104597, Control_c, 0, 64, 67
2, 104611, Control_c, 0, 64, 63
2, 104617, Note_on_c, 0, 63, 0
2, 104627, Control_c, 0, 64, 57
2, 104642, Control_c, 0, 64, 49
2, 104657, Control_c, 0, 64, 43
2, 104673, Control_c, 0, 64, 39
2, 104687, Control_c, 0, 64, 31
2, 104703, Control_c, 0, 64, 17
2, 104726, Control_c, 0, 64, 0
2, 104727, Note_on_c, 0, 60, 0
2, 104929, Note_on_c, 0, 53, 0
2, 105134, Note_on_c, 0, 53, 31
2, 105134, Note_on_c, 0, 67, 47
2, 105143, Note_on_c, 0, 64, 37
2, 105244, Note_on_c, 0, 69, 0
2, 105268, Note_on_c, 0, 65, 0
2, 105449, Note_on_c, 0, 69, 62
2, 105450, Note_on_c, 0, 65, 55
2, 105536, Note_on_c, 0, 67, 0
2, 105578, Note_on_c, 0, 53, 0
2, 105678, Note_on_c, 0, 64, 0
2, 105809, Note_on_c, 0, 70, 55
2, 105813, Note_on_c, 0, 67, 50
2, 105825, Note_on_c, 0, 53, 38
2, 105935, Note_on_c, 0, 69, 0
2, 106010, Note_on_c, 0, 65, 0
2, 106103, Control_c, 0, 64, 15
2, 106118, Control_c, 0, 64, 43
2, 106133, Control_c, 0, 64, 54
2, 106149, Control_c, 0, 64, 60
2, 106164, Control_c, 0, 64, 65
2, 106171, Note_on_c, 0, 67, 0
2, 106178, Control_c, 0, 64, 69
2, 106194, Control_c, 0, 64, 79
2, 106209, Control_c, 0, 64, 102
2, 106224, Control_c, 0, 64, 127
2, 106256, Note_on_c, 0, 70, 0
2, 106259, Note_on_c, 0, 58, 0
2, 106261, Note_on_c, 0, 61, 0
2, 106292, Note_on_c, 0, 53, 0
2, 106468, Note_on_c, 0, 67, 61
2, 106473, Note_on_c, 0, 64, 57
2, 106474, Note_on_c, 0, 70, 69
2, 106479, Note_on_c, 0, 61, 60
2, 106486, Note_on_c, 0, 53, 50
2, 106535, Control_c, 0, 64, 105
2, 106551, Control_c, 0, 64, 93
2, 106566, Control_c, 0, 64, 85
2, 106581, Control_c, 0, 64, 79
2, 106596, Control_c, 0, 64, 73
2, 106611, Control_c, 0, 64, 67
2, 106627, Control_c, 0, 64, 62
2, 106641, Control_c, 0, 64, 56
2, 106656, Control_c, 0, 64, 52
2, 106672, Control_c, 0, 64, 49
2, 106687, Control_c, 0, 64, 47
2, 106703, Control_c, 0, 64, 44
2, 106718, Control_c, 0, 64, 40
2, 106733, Control_c, 0, 64, 37
2, 106749, Control_c, 0, 64, 33
2, 106763, Control_c, 0, 64, 29
2, 106778, Control_c, 0, 64, 26
2, 106794, Control_c, 0, 64, 23
2, 106809, Control_c, 0, 64, 20
2, 106825, Control_c, 0, 64, 17
2, 106840, Control_c, 0, 64, 13
2, 106855, Control_c, 0, 64, 11
2, 106871, Control_c, 0, 64, 0
2, 106962, Note_on_c, 0, 53, 0
2, 107006, Note_on_c, 0, 64, 0
2, 107010, Note_on_c, 0, 70, 0
2, 107039, Note_on_c, 0, 67, 0
2, 107164, Note_on_c, 0, 67, 61
2, 107166, Note_on_c, 0, 60, 52
2, 107168, Note_on_c, 0, 64, 52
2, 107169, Note_on_c, 0, 53, 34
2, 107169, Note_on_c, 0, 70, 61
2, 107343, Note_on_c, 0, 61, 0
2, 107410, Control_c, 0, 64, 13
2, 107426, Control_c, 0, 64, 22
2, 107440, Control_c, 0, 64, 29
2, 107455, Control_c, 0, 64, 36
2, 107471, Control_c, 0, 64, 44
2, 107485, Control_c, 0, 64, 50
2, 107500, Control_c, 0, 64, 55
2, 107511, Note_on_c, 0, 64, 0
2, 107516, Control_c, 0, 64, 60
2, 107531, Control_c, 0, 64, 63
2, 107547, Control_c, 0, 64, 67
2, 107561, Control_c, 0, 64, 76
2, 107576, Control_c, 0, 64, 94
2, 107592, Control_c, 0, 64, 127
2, 107594, Note_on_c, 0, 60, 0
2, 107657, Note_on_c, 0, 53, 0
2, 107832, Note_on_c, 0, 69, 62
2, 107834, Note_on_c, 0, 65, 45
2, 107843, Note_on_c, 0, 60, 49
2, 107865, Note_on_c, 0, 53, 28
2, 107874, Control_c, 0, 64, 107
2, 107876, Note_on_c, 0, 70, 0
2, 107889, Control_c, 0, 64, 99
2, 107905, Control_c, 0, 64, 92
2, 107919, Control_c, 0, 64, 87
2, 107934, Control_c, 0, 64, 83
2, 107950, Control_c, 0, 64, 78
2, 107958, Note_on_c, 0, 67, 0
2, 107965, Control_c, 0, 64, 75
2, 107980, Control_c, 0, 64, 71
2, 107996, Control_c, 0, 64, 67
2, 108011, Control_c, 0, 64, 64
2, 108027, Control_c, 0, 64, 61
2, 108041, Control_c, 0, 64, 56
2, 108056, Control_c, 0, 64, 50
2, 108072, Control_c, 0, 64, 44
2, 108087, Control_c, 0, 64, 37
2, 108103, Control_c, 0, 64, 28
2, 108118, Control_c, 0, 64, 12
2, 108132, Control_c, 0, 64, 0
2, 108139, Note_on_c, 0, 70, 70
2, 108141, Note_on_c, 0, 67, 64
2, 108145, Note_on_c, 0, 61, 59
2, 108275, Note_on_c, 0, 69, 0
2, 108280, Note_on_c, 0, 60, 0
2, 108282, Note_on_c, 0, 53, 0
2, 108295, Note_on_c, 0, 65, 0
2, 108481, Note_on_c, 0, 63, 58
2, 108494, Note_on_c, 0, 72, 72
2, 108499, Note_on_c, 0, 53, 48
2, 108501, Note_on_c, 0, 69, 65
2, 108612, Note_on_c, 0, 70, 0
2, 108634, Note_on_c, 0, 61, 0
2, 108640, Note_on_c, 0, 67, 0
2, 108827, Control_c, 0, 64, 47
2, 108842, Control_c, 0, 64, 64
2, 108857, Control_c, 0, 64, 70
2, 108872, Control_c, 0, 64, 92
2, 108887, Control_c, 0, 64, 127
2, 108893, Note_on_c, 0, 63, 0
2, 108902, Note_on_c, 0, 69, 0
2, 108965, Note_on_c, 0, 53, 0
2, 108966, Note_on_c, 0, 72, 0
2, 109139, Note_on_c, 0, 63, 66
2, 109139, Note_on_c, 0, 65, 74
2, 109139, Note_on_c, 0, 72, 80
2, 109142, Note_on_c, 0, 53, 60
2, 109143, Note_on_c, 0, 69, 74
2, 109191, Control_c, 0, 64, 98
2, 109206, Control_c, 0, 64, 82
2, 109222, Control_c, 0, 64, 70
2, 109237, Control_c, 0, 64, 61
2, 109251, Control_c, 0, 64, 40
2, 109267, Control_c, 0, 64, 0
2, 109475, Control_c, 0, 64, 42
2, 109489, Control_c, 0, 64, 60
2, 109505, Control_c, 0, 64, 67
2, 109520, Control_c, 0, 64, 81
2, 109534, Control_c, 0, 64, 127
2, 109545, Note_on_c, 0, 69, 0
2, 109620, Note_on_c, 0, 72, 0
2, 109639, Note_on_c, 0, 53, 0
2, 109650, Note_on_c, 0, 65, 0
2, 109809, Note_on_c, 0, 61, 63
2, 109812, Note_on_c, 0, 65, 64
2, 109812, Note_on_c, 0, 72, 78
2, 109816, Note_on_c, 0, 53, 52
2, 109819, Note_on_c, 0, 69, 68
2, 109853, Control_c, 0, 64, 104
2, 109869, Control_c, 0, 64, 86
2, 109884, Control_c, 0, 64, 74
2, 109900, Control_c, 0, 64, 65
2, 109915, Control_c, 0, 64, 51
2, 109930, Control_c, 0, 64, 16
2, 109945, Control_c, 0, 64, 0
2, 109969, Note_on_c, 0, 63, 0
2, 110136, Control_c, 0, 64, 35
2, 110150, Control_c, 0, 64, 60
2, 110165, Control_c, 0, 64, 67
2, 110181, Control_c, 0, 64, 78
2, 110196, Control_c, 0, 64, 127
2, 110208, Note_on_c, 0, 61, 0
2, 110242, Note_on_c, 0, 53, 0
2, 110333, Note_on_c, 0, 72, 0
2, 110464, Note_on_c, 0, 70, 73
2, 110475, Note_on_c, 0, 67, 67
2, 110482, Note_on_c, 0, 61, 55
2, 110483, Note_on_c, 0, 53, 56
2, 110500, Control_c, 0, 64, 115
2, 110515, Control_c, 0, 64, 97
2, 110529, Control_c, 0, 64, 88
2, 110545, Control_c, 0, 64, 81
2, 110546, Note_on_c, 0, 69, 0
2, 110560, Control_c, 0, 64, 76
2, 110576, Control_c, 0, 64, 70
2, 110591, Control_c, 0, 64, 65
2, 110605, Control_c, 0, 64, 59
2, 110621, Control_c, 0, 64, 50
2, 110636, Control_c, 0, 64, 45
2, 110651, Control_c, 0, 64, 42
2, 110667, Control_c, 0, 64, 38
2, 110682, Control_c, 0, 64, 33
2, 110698, Control_c, 0, 64, 25
2, 110713, Control_c, 0, 64, 13
2, 110728, Control_c, 0, 64, 0
2, 110783, Note_on_c, 0, 72, 81
2, 110785, Note_on_c, 0, 60, 71
2, 110789, Note_on_c, 0, 69, 74
2, 110840, Note_on_c, 0, 67, 0
2, 110857, Note_on_c, 0, 70, 0
2, 110893, Note_on_c, 0, 61, 0
2, 111002, Note_on_c, 0, 69, 0
2, 111012, Note_on_c, 0, 53, 0
2, 111130, Note_on_c, 0, 58, 68
2, 111138, Note_on_c, 0, 53, 63
2, 111138, Note_on_c, 0, 73, 81
2, 111143, Note_on_c, 0, 70, 72
2, 111243, Note_on_c, 0, 72, 0
2, 111282, Note_on_c, 0, 60, 0
2, 111480, Control_c, 0, 64, 35
2, 111496, Control_c, 0, 64, 63
2, 111511, Control_c, 0, 64, 81
2, 111511, Note_on_c, 0, 65, 0
2, 111526, Control_c, 0, 64, 127
2, 111557, Note_on_c, 0, 73, 0
2, 111563, Note_on_c, 0, 53, 0
2, 111569, Note_on_c, 0, 58, 0
2, 111569, Note_on_c, 0, 70, 0
2, 111777, Note_on_c, 0, 73, 87
2, 111780, Note_on_c, 0, 70, 75
2, 111782, Note_on_c, 0, 65, 81
2, 111783, Note_on_c, 0, 58, 77
2, 111784, Note_on_c, 0, 53, 67
2, 111869, Control_c, 0, 64, 91
2, 111883, Control_c, 0, 64, 66
2, 111899, Control_c, 0, 64, 0
2, 112085, Note_on_c, 0, 56, 86
2, 112143, Note_on_c, 0, 58, 0
2, 112201, Note_on_c, 0, 65, 0
2, 112229, Note_on_c, 0, 53, 0
2, 112233, Control_c, 0, 64, 21
2, 112244, Note_on_c, 0, 70, 0
2, 112248, Control_c, 0, 64, 56
2, 112264, Control_c, 0, 64, 65
2, 112267, Note_on_c, 0, 73, 0
2, 112278, Control_c, 0, 64, 76
2, 112293, Control_c, 0, 64, 114
2, 112309, Control_c, 0, 64, 127
2, 112490, Note_on_c, 0, 70, 71
2, 112499, Note_on_c, 0, 66, 82
2, 112501, Note_on_c, 0, 73, 85
2, 112509, Note_on_c, 0, 54, 64
2, 112513, Note_on_c, 0, 53, 62
2, 112514, Control_c, 0, 64, 105
2, 112529, Control_c, 0, 64, 90
2, 112545, Control_c, 0, 64, 81
2, 112561, Control_c, 0, 64, 75
2, 112577, Control_c, 0, 64, 71
2, 112591, Control_c, 0, 64, 67
2, 112606, Control_c, 0, 64, 62
2, 112622, Control_c, 0, 64, 50
2, 112632, Note_on_c, 0, 56, 0
2, 112637, Control_c, 0, 64, 33
2, 112652, Control_c, 0, 64, 0
2, 112789, Control_c, 0, 64, 40
2, 112804, Control_c, 0, 64, 61
2, 112820, Control_c, 0, 64, 69
2, 112835, Control_c, 0, 64, 83
2, 112849, Control_c, 0, 64, 127
2, 112877, Note_on_c, 0, 53, 0
2, 112911, Note_on_c, 0, 54, 0
2, 112923, Note_on_c, 0, 66, 0
2, 112938, Note_on_c, 0, 73, 0
2, 112973, Note_on_c, 0, 70, 0
2, 113161, Note_on_c, 0, 54, 70
2, 113164, Note_on_c, 0, 51, 72
2, 113164, Note_on_c, 0, 72, 82
2, 113176, Note_on_c, 0, 69, 73
2, 113177, Note_on_c, 0, 66, 81
2, 113206, Control_c, 0, 64, 93
2, 113223, Control_c, 0, 64, 68
2, 113238, Control_c, 0, 64, 42
2, 113252, Control_c, 0, 64, 0
2, 113314, Control_c, 0, 64, 32
2, 113328, Control_c, 0, 64, 57
2, 113344, Control_c, 0, 64, 65
2, 113359, Control_c, 0, 64, 71
2, 113376, Control_c, 0, 64, 82
2, 113391, Control_c, 0, 64, 113
2, 113406, Control_c, 0, 64, 127
2, 113483, Note_on_c, 0, 53, 81
2, 113484, Note_on_c, 0, 70, 72
2, 113485, Note_on_c, 0, 49, 72
2, 113485, Note_on_c, 0, 73, 88
2, 113512, Control_c, 0, 64, 97
2, 113518, Note_on_c, 0, 54, 0
2, 113518, Note_on_c, 0, 72, 0
2, 113519, Note_on_c, 0, 69, 0
2, 113527, Control_c, 0, 64, 72
2, 113528, Note_on_c, 0, 51, 0
2, 113543, Control_c, 0, 64, 54
2, 113557, Control_c, 0, 64, 0
2, 113633, Control_c, 0, 64, 44
2, 113635, Note_on_c, 0, 70, 0
2, 113648, Control_c, 0, 64, 63
2, 113664, Control_c, 0, 64, 71
2, 113679, Control_c, 0, 64, 97
2, 113693, Control_c, 0, 64, 127
2, 113769, Note_on_c, 0, 66, 0
2, 113861, Note_on_c, 0, 69, 73
2, 113861, Note_on_c, 0, 75, 93
2, 113864, Note_on_c, 0, 66, 83
2, 113864, Note_on_c, 0, 72, 73
2, 113865, Note_on_c, 0, 51, 75
2, 113868, Note_on_c, 0, 54, 73
2, 113871, Note_on_c, 0, 48, 61
2, 113891, Control_c, 0, 64, 107
2, 113907, Control_c, 0, 64, 86
2, 113922, Control_c, 0, 64, 74
2, 113924, Note_on_c, 0, 73, 0
2, 113945, Control_c, 0, 64, 66
2, 113956, Note_on_c, 0, 49, 0
2, 113960, Control_c, 0, 64, 58
2, 113965, Note_on_c, 0, 53, 0
2, 113974, Control_c, 0, 64, 43
2, 113989, Control_c, 0, 64, 0
2, 114156, Control_c, 0, 64, 48
2, 114170, Control_c, 0, 64, 59
2, 114186, Control_c, 0, 64, 65
2, 114202, Control_c, 0, 64, 75
2, 114218, Control_c, 0, 64, 110
2, 114233, Control_c, 0, 64, 127
2, 114283, Note_on_c, 0, 66, 0
2, 114289, Note_on_c, 0, 54, 0
2, 114299, Note_on_c, 0, 51, 0
2, 114306, Note_on_c, 0, 48, 0
2, 114317, Note_on_c, 0, 69, 0
2, 114344, Note_on_c, 0, 75, 0
2, 114353, Note_on_c, 0, 72, 0
2, 114583, Note_on_c, 0, 51, 72
2, 114584, Note_on_c, 0, 75, 95
2, 114585, Note_on_c, 0, 66, 81
2, 114585, Note_on_c, 0, 72, 80
2, 114586, Note_on_c, 0, 54, 79
2, 114586, Note_on_c, 0, 69, 79
2, 114595, Note_on_c, 0, 48, 64
2, 114628, Control_c, 0, 64, 91
2, 114643, Control_c, 0, 64, 76
2, 114659, Control_c, 0, 64, 66
2, 114674, Control_c, 0, 64, 59
2, 114688, Control_c, 0, 64, 43
2, 114712, Control_c, 0, 64, 12
2, 114727, Control_c, 0, 64, 0
2, 114772, Control_c, 0, 64, 28
2, 114788, Control_c, 0, 64, 50
2, 114803, Control_c, 0, 64, 60
2, 114818, Control_c, 0, 64, 68
2, 114818, Note_on_c, 0, 72, 0
2, 114833, Control_c, 0, 64, 77
2, 114848, Control_c, 0, 64, 104
2, 114863, Control_c, 0, 64, 127
2, 115046, Note_on_c, 0, 46, 64
2, 115047, Note_on_c, 0, 49, 60
2, 115054, Note_on_c, 0, 73, 75
2, 115058, Note_on_c, 0, 77, 88
2, 115092, Control_c, 0, 64, 99
2, 115108, Control_c, 0, 64, 82
2, 115119, Note_on_c, 0, 48, 0
2, 115122, Control_c, 0, 64, 74
2, 115138, Control_c, 0, 64, 67
2, 115141, Note_on_c, 0, 75, 0
2, 115153, Control_c, 0, 64, 62
2, 115167, Control_c, 0, 64, 52
2, 115173, Note_on_c, 0, 51, 0
2, 115183, Control_c, 0, 64, 33
2, 115198, Control_c, 0, 64, 0
2, 115259, Control_c, 0, 64, 33
2, 115274, Control_c, 0, 64, 55
2, 115289, Control_c, 0, 64, 64
2, 115305, Control_c, 0, 64, 71
2, 115320, Control_c, 0, 64, 85
2, 115336, Control_c, 0, 64, 127
2, 115386, Note_on_c, 0, 49, 0
2, 115386, Note_on_c, 0, 66, 0
2, 115392, Note_on_c, 0, 54, 0
2, 115394, Note_on_c, 0, 69, 0
2, 115403, Note_on_c, 0, 77, 0
2, 115427, Note_on_c, 0, 73, 0
2, 115497, Note_on_c, 0, 46, 0
2, 115753, Note_on_c, 0, 69, 57
2, 115757, Note_on_c, 0, 78, 81
2, 115760, Note_on_c, 0, 54, 53
2, 115761, Note_on_c, 0, 51, 53
2, 115764, Note_on_c, 0, 72, 61
2, 115766, Note_on_c, 0, 66, 61
2, 115768, Control_c, 0, 64, 119
2, 115769, Note_on_c, 0, 75, 68
2, 115771, Note_on_c, 0, 45, 41
2, 115771, Note_on_c, 0, 48, 49
2, 115783, Control_c, 0, 64, 107
2, 115798, Control_c, 0, 64, 107
2, 115813, Control_c, 0, 64, 104
2, 115830, Control_c, 0, 64, 97
2, 115845, Control_c, 0, 64, 89
2, 115861, Control_c, 0, 64, 81
2, 115876, Control_c, 0, 64, 75
2, 115890, Control_c, 0, 64, 72
2, 115906, Control_c, 0, 64, 69
2, 115921, Control_c, 0, 64, 66
2, 115937, Control_c, 0, 64, 63
2, 115952, Control_c, 0, 64, 59
2, 115966, Control_c, 0, 64, 54
2, 115982, Control_c, 0, 64, 49
2, 115997, Control_c, 0, 64, 45
2, 116011, Control_c, 0, 64, 41
2, 116027, Control_c, 0, 64, 38
2, 116042, Control_c, 0, 64, 36
2, 116058, Control_c, 0, 64, 32
2, 116073, Control_c, 0, 64, 30
2, 116087, Control_c, 0, 64, 29
2, 116278, Control_c, 0, 64, 29
2, 117183, Control_c, 0, 64, 30
2, 119641, Note_on_c, 0, 45, 0
2, 119650, Note_on_c, 0, 48, 0
2, 119655, Note_on_c, 0, 72, 0
2, 119662, Note_on_c, 0, 66, 0
2, 119668, Note_on_c, 0, 51, 0
2, 119677, Note_on_c, 0, 78, 0
2, 119679, Note_on_c, 0, 54, 0
2, 119717, Note_on_c, 0, 69, 0
2, 119755, Note_on_c, 0, 75, 0
2, 120452, Control_c, 0, 64, 30
2, 120528, Control_c, 0, 64, 31
2, 120544, Control_c, 0, 64, 31
2, 120559, Control_c, 0, 64, 32
2, 120604, Control_c, 0, 64, 32
2, 120620, Control_c, 0, 64, 33
2, 120635, Control_c, 0, 64, 33
2, 120680, Control_c, 0, 64, 34
2, 120694, Control_c, 0, 64, 34
2, 120757, Control_c, 0, 64, 35
2, 120802, Control_c, 0, 64, 35
2, 121129, Control_c, 0, 64, 36
2, 121217, Note_on_c, 0, 77, 79
2, 121225, Note_on_c, 0, 65, 40
2, 121227, Note_on_c, 0, 57, 40
2, 121230, Note_on_c, 0, 72, 58
2, 121388, Control_c, 0, 64, 36
2, 121464, Control_c, 0, 64, 38
2, 121479, Control_c, 0, 64, 40
2, 121493, Control_c, 0, 64, 41
2, 121509, Control_c, 0, 64, 44
2, 121524, Control_c, 0, 64, 47
2, 121539, Control_c, 0, 64, 51
2, 121554, Control_c, 0, 64, 55
2, 121570, Control_c, 0, 64, 58
2, 121586, Control_c, 0, 64, 61
2, 121601, Control_c, 0, 64, 63
2, 121625, Control_c, 0, 64, 65
2, 121640, Control_c, 0, 64, 67
2, 121654, Control_c, 0, 64, 70
2, 121670, Control_c, 0, 64, 74
2, 121685, Control_c, 0, 64, 79
2, 121701, Control_c, 0, 64, 86
2, 121716, Control_c, 0, 64, 93
2, 121730, Control_c, 0, 64, 101
2, 121732, Note_on_c, 0, 65, 0
2, 121746, Control_c, 0, 64, 109
2, 121761, Control_c, 0, 64, 115
2, 121775, Control_c, 0, 64, 117
2, 121806, Control_c, 0, 64, 118
2, 121822, Control_c, 0, 64, 119
2, 121837, Control_c, 0, 64, 123
2, 121851, Control_c, 0, 64, 127
2, 121913, Control_c, 0, 64, 123
2, 121927, Control_c, 0, 64, 121
2, 121943, Control_c, 0, 64, 117
2, 121958, Control_c, 0, 64, 114
2, 121972, Control_c, 0, 64, 111
2, 121988, Control_c, 0, 64, 108
2, 122003, Control_c, 0, 64, 105
2, 122009, Note_on_c, 0, 73, 60
2, 122015, Note_on_c, 0, 70, 51
2, 122019, Control_c, 0, 64, 102
2, 122022, Note_on_c, 0, 58, 37
2, 122028, Note_on_c, 0, 65, 39
2, 122034, Control_c, 0, 64, 99
2, 122049, Control_c, 0, 64, 95
2, 122065, Control_c, 0, 64, 91
2, 122080, Control_c, 0, 64, 87
2, 122095, Control_c, 0, 64, 83
2, 122111, Control_c, 0, 64, 79
2, 122112, Note_on_c, 0, 72, 0
2, 122125, Control_c, 0, 64, 74
2, 122141, Control_c, 0, 64, 70
2, 122156, Control_c, 0, 64, 67
2, 122160, Note_on_c, 0, 77, 0
2, 122171, Control_c, 0, 64, 64
2, 122186, Control_c, 0, 64, 60
2, 122187, Note_on_c, 0, 57, 0
2, 122201, Control_c, 0, 64, 55
2, 122217, Control_c, 0, 64, 48
2, 122232, Control_c, 0, 64, 43
2, 122247, Control_c, 0, 64, 41
2, 122292, Control_c, 0, 64, 41
2, 122307, Control_c, 0, 64, 47
2, 122322, Control_c, 0, 64, 54
2, 122338, Control_c, 0, 64, 60
2, 122353, Control_c, 0, 64, 64
2, 122368, Control_c, 0, 64, 68
2, 122392, Control_c, 0, 64, 75
2, 122407, Control_c, 0, 64, 84
2, 122413, Note_on_c, 0, 58, 0
2, 122423, Control_c, 0, 64, 99
2, 122429, Note_on_c, 0, 70, 0
2, 122438, Control_c, 0, 64, 127
2, 122499, Note_on_c, 0, 65, 0
2, 122566, Note_on_c, 0, 73, 0
2, 122683, Note_on_c, 0, 75, 76
2, 122687, Note_on_c, 0, 70, 65
2, 122688, Note_on_c, 0, 58, 66
2, 122697, Note_on_c, 0, 54, 54
2, 122711, Control_c, 0, 64, 117
2, 122726, Control_c, 0, 64, 105
2, 122741, Control_c, 0, 64, 99
2, 122756, Control_c, 0, 64, 94
2, 122771, Control_c, 0, 64, 91
2, 122787, Control_c, 0, 64, 87
2, 122802, Control_c, 0, 64, 84
2, 122817, Control_c, 0, 64, 81
2, 122832, Control_c, 0, 64, 79
2, 122847, Control_c, 0, 64, 77
2, 122863, Control_c, 0, 64, 74
2, 122878, Control_c, 0, 64, 72
2, 122893, Control_c, 0, 64, 71
2, 122909, Control_c, 0, 64, 70
2, 122923, Control_c, 0, 64, 68
2, 122939, Control_c, 0, 64, 65
2, 122954, Control_c, 0, 64, 62
2, 122969, Control_c, 0, 64, 61
2, 122985, Control_c, 0, 64, 60
2, 122988, Note_on_c, 0, 66, 60
2, 122990, Note_on_c, 0, 72, 75
2, 122995, Note_on_c, 0, 51, 62
2, 123000, Control_c, 0, 64, 60
2, 123015, Control_c, 0, 64, 58
2, 123030, Control_c, 0, 64, 56
2, 123045, Control_c, 0, 64, 55
2, 123054, Note_on_c, 0, 54, 0
2, 123076, Control_c, 0, 64, 54
2, 123089, Note_on_c, 0, 70, 0
2, 123091, Control_c, 0, 64, 52
2, 123106, Control_c, 0, 64, 47
2, 123121, Control_c, 0, 64, 40
2, 123137, Control_c, 0, 64, 36
2, 123159, Control_c, 0, 64, 34
2, 123174, Control_c, 0, 64, 33
2, 123199, Note_on_c, 0, 75, 0
2, 123221, Control_c, 0, 64, 33
2, 123266, Control_c, 0, 64, 32
2, 123317, Note_on_c, 0, 66, 0
2, 123327, Control_c, 0, 64, 32
2, 123385, Note_on_c, 0, 70, 58
2, 123385, Note_on_c, 0, 73, 73
2, 123389, Note_on_c, 0, 53, 64
2, 123391, Note_on_c, 0, 65, 54
2, 123508, Note_on_c, 0, 72, 0
2, 123548, Note_on_c, 0, 58, 0
2, 123552, Note_on_c, 0, 51, 0
2, 123646, Control_c, 0, 64, 34
2, 123661, Control_c, 0, 64, 38
2, 123676, Control_c, 0, 64, 43
2, 123691, Control_c, 0, 64, 48
2, 123707, Control_c, 0, 64, 55
2, 123722, Control_c, 0, 64, 60
2, 123737, Control_c, 0, 64, 64
2, 123752, Control_c, 0, 64, 69
2, 123767, Control_c, 0, 64, 76
2, 123783, Control_c, 0, 64, 90
2, 123798, Control_c, 0, 64, 127
2, 123835, Note_on_c, 0, 65, 0
2, 124118, Note_on_c, 0, 72, 62
2, 124119, Note_on_c, 0, 63, 50
2, 124123, Note_on_c, 0, 69, 50
2, 124134, Note_on_c, 0, 41, 40
2, 124156, Control_c, 0, 64, 108
2, 124171, Control_c, 0, 64, 100
2, 124187, Control_c, 0, 64, 94
2, 124187, Note_on_c, 0, 70, 0
2, 124194, Note_on_c, 0, 73, 0
2, 124202, Control_c, 0, 64, 90
2, 124217, Control_c, 0, 64, 85
2, 124232, Control_c, 0, 64, 80
2, 124247, Control_c, 0, 64, 76
2, 124263, Control_c, 0, 64, 73
2, 124278, Control_c, 0, 64, 69
2, 124293, Control_c, 0, 64, 65
2, 124308, Control_c, 0, 64, 60
2, 124323, Control_c, 0, 64, 53
2, 124339, Control_c, 0, 64, 48
2, 124354, Control_c, 0, 64, 45
2, 124369, Control_c, 0, 64, 43
2, 124384, Control_c, 0, 64, 40
2, 124399, Control_c, 0, 64, 35
2, 124414, Control_c, 0, 64, 31
2, 124429, Control_c, 0, 64, 28
2, 124444, Control_c, 0, 64, 28
2, 124460, Control_c, 0, 64, 27
2, 124486, Note_on_c, 0, 70, 60
2, 124535, Control_c, 0, 64, 27
2, 124627, Control_c, 0, 64, 27
2, 124628, Note_on_c, 0, 69, 0
2, 124631, Note_on_c, 0, 72, 0
2, 124642, Control_c, 0, 64, 28
2, 124658, Control_c, 0, 64, 34
2, 124673, Control_c, 0, 64, 42
2, 124695, Control_c, 0, 64, 52
2, 124711, Control_c, 0, 64, 58
2, 124725, Control_c, 0, 64, 62
2, 124740, Control_c, 0, 64, 65
2, 124755, Control_c, 0, 64, 68
2, 124766, Note_on_c, 0, 70, 0
2, 124770, Control_c, 0, 64, 73
2, 124786, Control_c, 0, 64, 79
2, 124801, Control_c, 0, 64, 87
2, 124815, Note_on_c, 0, 63, 0
2, 124817, Control_c, 0, 64, 99
2, 124832, Control_c, 0, 64, 123
2, 124847, Control_c, 0, 64, 127
2, 125005, Note_on_c, 0, 70, 58
2, 125015, Note_on_c, 0, 62, 41
2, 125022, Note_on_c, 0, 46, 31
2, 125030, Control_c, 0, 64, 111
2, 125045, Control_c, 0, 64, 104
2, 125061, Control_c, 0, 64, 99
2, 125075, Control_c, 0, 64, 95
2, 125090, Control_c, 0, 64, 90
2, 125106, Control_c, 0, 64, 85
2, 125121, Control_c, 0, 64, 80
2, 125137, Control_c, 0, 64, 76
2, 125151, Control_c, 0, 64, 72
2, 125166, Control_c, 0, 64, 67
2, 125182, Control_c, 0, 64, 63
2, 125195, Note_on_c, 0, 41, 0
2, 125197, Control_c, 0, 64, 57
2, 125212, Control_c, 0, 64, 50
2, 125227, Control_c, 0, 64, 45
2, 125242, Control_c, 0, 64, 43
2, 125258, Control_c, 0, 64, 41
2, 125273, Control_c, 0, 64, 39
2, 125287, Control_c, 0, 64, 39
2, 125318, Control_c, 0, 64, 40
2, 125333, Control_c, 0, 64, 46
2, 125349, Control_c, 0, 64, 52
2, 125363, Control_c, 0, 64, 57
2, 125379, Control_c, 0, 64, 61
2, 125394, Control_c, 0, 64, 64
2, 125409, Control_c, 0, 64, 66
2, 125425, Control_c, 0, 64, 69
2, 125436, Note_on_c, 0, 53, 0
2, 125440, Control_c, 0, 64, 73
2, 125463, Control_c, 0, 64, 78
2, 125468, Note_on_c, 0, 46, 0
2, 125478, Control_c, 0, 64, 85
2, 125492, Control_c, 0, 64, 94
2, 125508, Control_c, 0, 64, 113
2, 125523, Control_c, 0, 64, 127
2, 125562, Note_on_c, 0, 62, 0
2, 125843, Control_c, 0, 64, 121
2, 125852, Note_on_c, 0, 65, 42
2, 125861, Control_c, 0, 64, 105
2, 125866, Note_on_c, 0, 46, 21
2, 125867, Note_on_c, 0, 62, 36
2, 125871, Note_on_c, 0, 53, 26
2, 125876, Control_c, 0, 64, 97
2, 125892, Control_c, 0, 64, 91
2, 125907, Control_c, 0, 64, 83
2, 125921, Control_c, 0, 64, 75
2, 125937, Control_c, 0, 64, 67
2, 125952, Control_c, 0, 64, 61
2, 125967, Control_c, 0, 64, 56
2, 125983, Control_c, 0, 64, 57
2, 125997, Control_c, 0, 64, 62
2, 126013, Control_c, 0, 64, 65
2, 126024, Note_on_c, 0, 62, 0
2, 126028, Control_c, 0, 64, 69
2, 126043, Control_c, 0, 64, 72
2, 126058, Control_c, 0, 64, 75
2, 126073, Control_c, 0, 64, 77
2, 126088, Control_c, 0, 64, 77
2, 126149, Control_c, 0, 64, 77
2, 126164, Control_c, 0, 64, 76
2, 126185, Note_on_c, 0, 66, 53
2, 126197, Note_on_c, 0, 63, 47
2, 126200, Note_on_c, 0, 51, 47
2, 126210, Control_c, 0, 64, 76
2, 126233, Control_c, 0, 64, 75
2, 126248, Control_c, 0, 64, 73
2, 126263, Control_c, 0, 64, 72
2, 126272, Note_on_c, 0, 65, 0
2, 126278, Control_c, 0, 64, 72
2, 126294, Control_c, 0, 64, 71
2, 126309, Control_c, 0, 64, 69
2, 126324, Control_c, 0, 64, 68
2, 126339, Control_c, 0, 64, 68
2, 126354, Control_c, 0, 64, 67
2, 126354, Note_on_c, 0, 46, 0
2, 126370, Control_c, 0, 64, 67
2, 126385, Control_c, 0, 64, 65
2, 126400, Control_c, 0, 64, 64
2, 126460, Control_c, 0, 64, 63
2, 126475, Control_c, 0, 64, 63
2, 126522, Control_c, 0, 64, 62
2, 126535, Note_on_c, 0, 46, 24
2, 126536, Note_on_c, 0, 65, 47
2, 126536, Note_on_c, 0, 68, 55
2, 126538, Control_c, 0, 64, 61
2, 126542, Note_on_c, 0, 50, 40
2, 126553, Control_c, 0, 64, 61
2, 126598, Control_c, 0, 64, 60
2, 126614, Control_c, 0, 64, 60
2, 126629, Control_c, 0, 64, 58
2, 126630, Note_on_c, 0, 66, 0
2, 126643, Control_c, 0, 64, 57
2, 126643, Note_on_c, 0, 51, 0
2, 126659, Control_c, 0, 64, 57
2, 126690, Control_c, 0, 64, 56
2, 126705, Control_c, 0, 64, 55
2, 126712, Note_on_c, 0, 63, 0
2, 126720, Control_c, 0, 64, 55
2, 126736, Control_c, 0, 64, 54
2, 126751, Control_c, 0, 64, 53
2, 126765, Control_c, 0, 64, 53
2, 126781, Control_c, 0, 64, 52
2, 126796, Control_c, 0, 64, 52
2, 126812, Control_c, 0, 64, 51
2, 126853, Note_on_c, 0, 48, 53
2, 126857, Control_c, 0, 64, 51
2, 126887, Control_c, 0, 64, 50
2, 126917, Control_c, 0, 64, 50
2, 126963, Note_on_c, 0, 53, 0
2, 126978, Control_c, 0, 64, 49
2, 126997, Note_on_c, 0, 65, 0
2, 127017, Note_on_c, 0, 68, 0
2, 127026, Note_on_c, 0, 46, 0
2, 127032, Control_c, 0, 64, 49
2, 127051, Note_on_c, 0, 50, 0
2, 127061, Control_c, 0, 64, 48
2, 127106, Control_c, 0, 64, 48
2, 127137, Control_c, 0, 64, 47
2, 127182, Control_c, 0, 64, 47
2, 127185, Note_on_c, 0, 51, 57
2, 127197, Note_on_c, 0, 68, 56
2, 127203, Note_on_c, 0, 65, 55
2, 127206, Note_on_c, 0, 46, 29
2, 127213, Control_c, 0, 64, 46
2, 127243, Control_c, 0, 64, 46
2, 127273, Control_c, 0, 64, 45
2, 127305, Control_c, 0, 64, 45
2, 127328, Note_on_c, 0, 48, 0
2, 127335, Control_c, 0, 64, 44
2, 127350, Control_c, 0, 64, 44
2, 127381, Control_c, 0, 64, 43
2, 127396, Control_c, 0, 64, 43
2, 127426, Control_c, 0, 64, 42
2, 127457, Control_c, 0, 64, 42
2, 127522, Note_on_c, 0, 50, 49
2, 127638, Note_on_c, 0, 51, 0
2, 127648, Note_on_c, 0, 65, 0
2, 127670, Control_c, 0, 64, 42
2, 127684, Control_c, 0, 64, 45
2, 127687, Note_on_c, 0, 68, 0
2, 127700, Control_c, 0, 64, 49
2, 127715, Control_c, 0, 64, 56
2, 127730, Control_c, 0, 64, 61
2, 127745, Control_c, 0, 64, 64
2, 127768, Control_c, 0, 64, 66
2, 127784, Control_c, 0, 64, 69
2, 127799, Control_c, 0, 64, 73
2, 127805, Note_on_c, 0, 46, 0
2, 127814, Note_on_c, 0, 50, 0
2, 127815, Control_c, 0, 64, 79
2, 127829, Control_c, 0, 64, 86
2, 127844, Control_c, 0, 64, 94
2, 127860, Control_c, 0, 64, 104
2, 127875, Control_c, 0, 64, 115
2, 127891, Control_c, 0, 64, 121
2, 127950, Control_c, 0, 64, 118
2, 127965, Control_c, 0, 64, 112
2, 127981, Control_c, 0, 64, 107
2, 127996, Control_c, 0, 64, 104
2, 128011, Note_on_c, 0, 68, 55
2, 128012, Control_c, 0, 64, 101
2, 128013, Note_on_c, 0, 65, 48
2, 128019, Note_on_c, 0, 50, 35
2, 128026, Control_c, 0, 64, 98
2, 128034, Note_on_c, 0, 46, 33
2, 128041, Control_c, 0, 64, 95
2, 128057, Control_c, 0, 64, 92
2, 128072, Control_c, 0, 64, 87
2, 128087, Control_c, 0, 64, 83
2, 128102, Control_c, 0, 64, 78
2, 128117, Control_c, 0, 64, 75
2, 128134, Control_c, 0, 64, 74
2, 128149, Control_c, 0, 64, 73
2, 128164, Control_c, 0, 64, 70
2, 128179, Control_c, 0, 64, 67
2, 128194, Control_c, 0, 64, 64
2, 128210, Control_c, 0, 64, 63
2, 128225, Control_c, 0, 64, 62
2, 128240, Control_c, 0, 64, 62
2, 128255, Control_c, 0, 64, 60
2, 128270, Control_c, 0, 64, 58
2, 128285, Control_c, 0, 64, 58
2, 128301, Control_c, 0, 64, 57
2, 128316, Control_c, 0, 64, 57
2, 128332, Control_c, 0, 64, 55
2, 128347, Control_c, 0, 64, 54
2, 128362, Control_c, 0, 64, 53
2, 128392, Control_c, 0, 64, 52
2, 128407, Control_c, 0, 64, 52
2, 128423, Control_c, 0, 64, 51
2, 128438, Control_c, 0, 64, 51
2, 128468, Control_c, 0, 64, 50
2, 128476, Note_on_c, 0, 46, 0
2, 128483, Control_c, 0, 64, 50
2, 128499, Control_c, 0, 64, 49
2, 128514, Control_c, 0, 64, 49
2, 128793, Note_on_c, 0, 66, 50
2, 128796, Note_on_c, 0, 51, 35
2, 128802, Note_on_c, 0, 63, 36
2, 128830, Note_on_c, 0, 46, 8
2, 128977, Note_on_c, 0, 65, 0
2, 128979, Note_on_c, 0, 68, 0
2, 128986, Note_on_c, 0, 50, 0
2, 129145, Note_on_c, 0, 53, 48
2, 129319, Note_on_c, 0, 51, 0
2, 129358, Note_on_c, 0, 46, 0
2, 129613, Note_on_c, 0, 54, 40
2, 129631, Note_on_c, 0, 46, 29
2, 129790, Note_on_c, 0, 53, 0
2, 129854, Control_c, 0, 64, 49
2, 129868, Control_c, 0, 64, 50
2, 129883, Control_c, 0, 64, 51
2, 129899, Control_c, 0, 64, 53
2, 129914, Control_c, 0, 64, 55
2, 129930, Control_c, 0, 64, 57
2, 129944, Control_c, 0, 64, 59
2, 129959, Control_c, 0, 64, 61
2, 129975, Control_c, 0, 64, 63
2, 129989, Control_c, 0, 64, 65
2, 130004, Control_c, 0, 64, 69
2, 130020, Control_c, 0, 64, 73
2, 130035, Control_c, 0, 64, 79
2, 130051, Control_c, 0, 64, 86
2, 130073, Control_c, 0, 64, 97
2, 130088, Control_c, 0, 64, 116
2, 130104, Control_c, 0, 64, 127
2, 130124, Note_on_c, 0, 46, 0
2, 130154, Note_on_c, 0, 54, 0
2, 130639, Note_on_c, 0, 65, 42
2, 130642, Note_on_c, 0, 62, 37
2, 130652, Control_c, 0, 64, 123
2, 130652, Note_on_c, 0, 54, 33
2, 130667, Control_c, 0, 64, 115
2, 130675, Note_on_c, 0, 46, 30
2, 130682, Control_c, 0, 64, 107
2, 130698, Control_c, 0, 64, 100
2, 130712, Control_c, 0, 64, 94
2, 130727, Control_c, 0, 64, 90
2, 130743, Control_c, 0, 64, 86
2, 130758, Control_c, 0, 64, 83
2, 130774, Control_c, 0, 64, 77
2, 130788, Control_c, 0, 64, 72
2, 130795, Note_on_c, 0, 63, 0
2, 130803, Control_c, 0, 64, 68
2, 130819, Control_c, 0, 64, 65
2, 130841, Control_c, 0, 64, 62
2, 130856, Control_c, 0, 64, 60
2, 130870, Control_c, 0, 64, 56
2, 130883, Control_c, 0, 64, 54
2, 130898, Control_c, 0, 64, 53
2, 130913, Control_c, 0, 64, 52
2, 130928, Control_c, 0, 64, 51
2, 130944, Control_c, 0, 64, 51
2, 130959, Control_c, 0, 64, 50
2, 130974, Control_c, 0, 64, 49
2, 130989, Control_c, 0, 64, 48
2, 131019, Control_c, 0, 64, 48
2, 131065, Control_c, 0, 64, 47
2, 131160, Note_on_c, 0, 63, 41
2, 131164, Note_on_c, 0, 60, 37
2, 131236, Note_on_c, 0, 66, 0
2, 131317, Note_on_c, 0, 62, 0
2, 131334, Note_on_c, 0, 65, 0
2, 131384, Note_on_c, 0, 46, 0
2, 131995, Note_on_c, 0, 53, 24
2, 132000, Note_on_c, 0, 62, 29
2, 132002, Note_on_c, 0, 65, 33
2, 132032, Note_on_c, 0, 46, 17
2, 132210, Note_on_c, 0, 63, 0
2, 132227, Note_on_c, 0, 54, 0
2, 132232, Note_on_c, 0, 60, 0
2, 136787, Note_on_c, 0, 46, 0
2, 136884, Note_on_c, 0, 53, 0
2, 136910, Note_on_c, 0, 62, 0
2, 136968, Note_on_c, 0, 65, 0
2, 136978, Note_on_c, 0, 70, 0
2, 138447, Control_c, 0, 64, 47
2, 139420, Note_on_c, 0, 70, 48
2, 140333, Note_on_c, 0, 65, 34
2, 140555, Note_on_c, 0, 70, 0
2, 141185, Control_c, 0, 64, 46
2, 141320, Note_on_c, 0, 65, 0
2, 141794, Note_on_c, 0, 78, 53
2, 142202, Note_on_c, 0, 77, 59
2, 142292, Note_on_c, 0, 78, 0
2, 142628, Note_on_c, 0, 75, 61
2, 142763, Note_on_c, 0, 77, 0
2, 143067, Note_on_c, 0, 73, 51
2, 143075, Note_on_c, 0, 65, 59
2, 143208, Note_on_c, 0, 75, 0
2, 143518, Note_on_c, 0, 72, 60
2, 143612, Note_on_c, 0, 73, 0
2, 143855, Control_c, 0, 64, 46
2, 143940, Note_on_c, 0, 73, 53
2, 143953, Note_on_c, 0, 58, 39
2, 144063, Note_on_c, 0, 72, 0
2, 144154, Note_on_c, 0, 65, 0
2, 144370, Note_on_c, 0, 75, 52
2, 144453, Note_on_c, 0, 73, 0
2, 144713, Note_on_c, 0, 58, 0
2, 144770, Note_on_c, 0, 77, 58
2, 144828, Note_on_c, 0, 75, 0
2, 145211, Note_on_c, 0, 77, 0
2, 145218, Note_on_c, 0, 76, 53
2, 145227, Note_on_c, 0, 73, 42
2, 145304, Note_on_c, 0, 76, 0
2, 145407, Note_on_c, 0, 77, 65
2, 145499, Note_on_c, 0, 77, 0
2, 145646, Note_on_c, 0, 79, 65
2, 145649, Note_on_c, 0, 72, 47
2, 145747, Note_on_c, 0, 73, 0
2, 146051, Note_on_c, 0, 70, 58
2, 146181, Note_on_c, 0, 72, 0
2, 146471, Note_on_c, 0, 68, 57
2, 146602, Note_on_c, 0, 70, 0
2, 146835, Note_on_c, 0, 67, 40
2, 146844, Note_on_c, 0, 80, 58
2, 146866, Note_on_c, 0, 79, 0
2, 146946, Note_on_c, 0, 80, 0
2, 146965, Note_on_c, 0, 68, 0
2, 147043, Note_on_c, 0, 79, 60
2, 147122, Note_on_c, 0, 79, 0
2, 147262, Note_on_c, 0, 68, 49
2, 147270, Note_on_c, 0, 77, 64
2, 147393, Note_on_c, 0, 67, 0
2, 147670, Note_on_c, 0, 70, 56
2, 147911, Note_on_c, 0, 68, 0
2, 148104, Note_on_c, 0, 72, 51
2, 148292, Note_on_c, 0, 70, 0
2, 148505, Note_on_c, 0, 75, 48
2, 148514, Note_on_c, 0, 77, 0
2, 148571, Note_on_c, 0, 75, 0
2, 148694, Note_on_c, 0, 73, 52
2, 148764, Note_on_c, 0, 73, 0
2, 148913, Note_on_c, 0, 75, 55
2, 149303, Note_on_c, 0, 77, 65
2, 149307, Note_on_c, 0, 72, 0
2, 149309, Note_on_c, 0, 70, 45
2, 149390, Note_on_c, 0, 70, 0
2, 149392, Note_on_c, 0, 75, 0
2, 149489, Note_on_c, 0, 69, 55
2, 149587, Note_on_c, 0, 69, 0
2, 149718, Note_on_c, 0, 70, 51
2, 149720, Note_on_c, 0, 78, 66
2, 149845, Note_on_c, 0, 77, 0
2, 150113, Note_on_c, 0, 72, 58
2, 150236, Note_on_c, 0, 70, 0
2, 150550, Note_on_c, 0, 73, 50
2, 150758, Note_on_c, 0, 72, 0
2, 150945, Note_on_c, 0, 77, 46
2, 151008, Note_on_c, 0, 78, 0
2, 151064, Note_on_c, 0, 77, 0
2, 151140, Note_on_c, 0, 75, 57
2, 151201, Control_c, 0, 64, 45
2, 151213, Note_on_c, 0, 75, 0
2, 151354, Note_on_c, 0, 77, 67
2, 151730, Note_on_c, 0, 72, 51
2, 151735, Note_on_c, 0, 79, 68
2, 151793, Note_on_c, 0, 73, 0
2, 151847, Note_on_c, 0, 72, 0
2, 151847, Note_on_c, 0, 77, 0
2, 151925, Note_on_c, 0, 70, 51
2, 152085, Note_on_c, 0, 70, 0
2, 152130, Note_on_c, 0, 80, 69
2, 152155, Note_on_c, 0, 72, 58
2, 152265, Note_on_c, 0, 79, 0
2, 152509, Note_on_c, 0, 74, 67
2, 152615, Note_on_c, 0, 72, 0
2, 152931, Note_on_c, 0, 75, 61
2, 153120, Note_on_c, 0, 74, 0
2, 153345, Note_on_c, 0, 79, 54
2, 153387, Note_on_c, 0, 80, 0
2, 153435, Note_on_c, 0, 79, 0
2, 153520, Control_c, 0, 64, 45
2, 153532, Note_on_c, 0, 77, 71
2, 153607, Note_on_c, 0, 77, 0
2, 153736, Note_on_c, 0, 79, 69
2, 154001, Note_on_c, 0, 75, 0
2, 154060, Control_c, 0, 64, 44
2, 154133, Note_on_c, 0, 81, 72
2, 154141, Note_on_c, 0, 73, 67
2, 154212, Note_on_c, 0, 79, 0
2, 154240, Note_on_c, 0, 73, 0
2, 154325, Note_on_c, 0, 72, 71
2, 154391, Note_on_c, 0, 72, 0
2, 154555, Note_on_c, 0, 82, 70
2, 154558, Note_on_c, 0, 58, 67
2, 154564, Note_on_c, 0, 73, 62
2, 154628, Note_on_c, 0, 81, 0
2, 154967, Note_on_c, 0, 75, 69
2, 155072, Note_on_c, 0, 73, 0
2, 155387, Note_on_c, 0, 53, 45
2, 155387, Note_on_c, 0, 77, 62
2, 155489, Note_on_c, 0, 75, 0
2, 155557, Note_on_c, 0, 58, 0
2, 155793, Control_c, 0, 64, 44
2, 155793, Note_on_c, 0, 81, 46
2, 155829, Note_on_c, 0, 82, 0
2, 155858, Note_on_c, 0, 81, 0
2, 155969, Note_on_c, 0, 79, 59
2, 156034, Note_on_c, 0, 79, 0
2, 156104, Note_on_c, 0, 53, 0
2, 156186, Note_on_c, 0, 81, 60
2, 156560, Note_on_c, 0, 82, 68
2, 156562, Note_on_c, 0, 66, 65
2, 156570, Note_on_c, 0, 75, 57
2, 156591, Note_on_c, 0, 81, 0
2, 156597, Note_on_c, 0, 77, 0
2, 156652, Control_c, 0, 64, 43
2, 156658, Note_on_c, 0, 75, 0
2, 156741, Note_on_c, 0, 73, 71
2, 156818, Note_on_c, 0, 73, 0
2, 156964, Note_on_c, 0, 65, 62
2, 156964, Note_on_c, 0, 84, 80
2, 156975, Note_on_c, 0, 75, 65
2, 157019, Note_on_c, 0, 66, 0
2, 157026, Note_on_c, 0, 82, 0
2, 157362, Note_on_c, 0, 63, 71
2, 157432, Note_on_c, 0, 65, 0
2, 157679, Control_c, 0, 64, 43
2, 157762, Control_c, 0, 64, 42
2, 157779, Note_on_c, 0, 53, 70
2, 157779, Note_on_c, 0, 61, 55
2, 157834, Note_on_c, 0, 63, 0
2, 157853, Control_c, 0, 64, 42
2, 157959, Note_on_c, 0, 84, 0
2, 158048, Note_on_c, 0, 75, 0
2, 158123, Note_on_c, 0, 61, 0
2, 158170, Note_on_c, 0, 60, 54
2, 158178, Note_on_c, 0, 82, 65
2, 158182, Note_on_c, 0, 73, 62
2, 158242, Note_on_c, 0, 73, 0
2, 158251, Note_on_c, 0, 82, 0
2, 158349, Note_on_c, 0, 75, 65
2, 158352, Note_on_c, 0, 81, 62
2, 158390, Note_on_c, 0, 60, 0
2, 158432, Note_on_c, 0, 75, 0
2, 158437, Note_on_c, 0, 81, 0
2, 158580, Note_on_c, 0, 46, 50
2, 158582, Note_on_c, 0, 82, 62
2, 158586, Note_on_c, 0, 73, 60
2, 158588, Note_on_c, 0, 58, 45
2, 158688, Note_on_c, 0, 53, 0
2, 158810, Note_on_c, 0, 58, 0
2, 158844, Note_on_c, 0, 73, 0
2, 158955, Control_c, 0, 64, 41
2, 158979, Note_on_c, 0, 80, 68
2, 158982, Note_on_c, 0, 60, 64
2, 158988, Note_on_c, 0, 72, 60
2, 159034, Note_on_c, 0, 60, 0
2, 159155, Note_on_c, 0, 61, 75
2, 159156, Note_on_c, 0, 72, 0
2, 159214, Control_c, 0, 64, 41
2, 159214, Note_on_c, 0, 46, 0
2, 159236, Note_on_c, 0, 61, 0
2, 159368, Note_on_c, 0, 78, 74
2, 159371, Note_on_c, 0, 70, 62
2, 159376, Note_on_c, 0, 63, 61
2, 159389, Note_on_c, 0, 82, 0
2, 159468, Note_on_c, 0, 80, 0
2, 159618, Control_c, 0, 64, 40
2, 159750, Note_on_c, 0, 61, 59
2, 159752, Note_on_c, 0, 77, 72
2, 159755, Note_on_c, 0, 65, 64
2, 159814, Note_on_c, 0, 63, 0
2, 159830, Control_c, 0, 64, 40
2, 159836, Note_on_c, 0, 78, 0
2, 159953, Control_c, 0, 64, 39
2, 160160, Control_c, 0, 64, 39
2, 160174, Note_on_c, 0, 66, 60
2, 160177, Note_on_c, 0, 75, 64
2, 160183, Note_on_c, 0, 60, 47
2, 160243, Note_on_c, 0, 61, 0
2, 160272, Note_on_c, 0, 77, 0
2, 160296, Note_on_c, 0, 65, 0
2, 160372, Note_on_c, 0, 70, 0
2, 160562, Note_on_c, 0, 58, 42
2, 160567, Note_on_c, 0, 69, 53
2, 160571, Note_on_c, 0, 60, 0
2, 160624, Note_on_c, 0, 69, 0
2, 160740, Note_on_c, 0, 70, 56
2, 160804, Note_on_c, 0, 70, 0
2, 160851, Note_on_c, 0, 66, 0
2, 160951, Note_on_c, 0, 65, 28
2, 160968, Note_on_c, 0, 57, 37
2, 160968, Note_on_c, 0, 72, 59
2, 161029, Note_on_c, 0, 58, 0
2, 161093, Note_on_c, 0, 75, 0
2, 161354, Note_on_c, 0, 69, 47
2, 161357, Note_on_c, 0, 53, 40
2, 161357, Note_on_c, 0, 77, 66
2, 161362, Note_on_c, 0, 63, 43
2, 161364, Note_on_c, 0, 57, 0
2, 161373, Note_on_c, 0, 72, 0
2, 161439, Note_on_c, 0, 77, 0
2, 161507, Note_on_c, 0, 63, 0
2, 161531, Note_on_c, 0, 78, 77
2, 161643, Note_on_c, 0, 78, 0
2, 161740, Note_on_c, 0, 55, 41
2, 161752, Note_on_c, 0, 77, 79
2, 161755, Note_on_c, 0, 70, 61
2, 161758, Note_on_c, 0, 61, 50
2, 161812, Note_on_c, 0, 69, 0
2, 161848, Note_on_c, 0, 65, 0
2, 161885, Note_on_c, 0, 53, 0
2, 162115, Note_on_c, 0, 60, 56
2, 162121, Note_on_c, 0, 55, 0
2, 162123, Note_on_c, 0, 75, 82
2, 162127, Note_on_c, 0, 57, 47
2, 162137, Note_on_c, 0, 72, 70
2, 162173, Note_on_c, 0, 61, 0
2, 162182, Control_c, 0, 64, 39
2, 162213, Control_c, 0, 64, 43
2, 162216, Note_on_c, 0, 70, 0
2, 162216, Note_on_c, 0, 77, 0
2, 162228, Control_c, 0, 64, 49
2, 162242, Control_c, 0, 64, 57
2, 162258, Control_c, 0, 64, 62
2, 162265, Note_on_c, 0, 60, 0
2, 162273, Control_c, 0, 64, 66
2, 162283, Note_on_c, 0, 57, 0
2, 162288, Control_c, 0, 64, 72
2, 162304, Control_c, 0, 64, 84
2, 162325, Control_c, 0, 64, 114
2, 162341, Control_c, 0, 64, 127
2, 162349, Note_on_c, 0, 75, 0
2, 162536, Note_on_c, 0, 46, 74
2, 162544, Note_on_c, 0, 58, 63
2, 162544, Note_on_c, 0, 73, 86
2, 162561, Note_on_c, 0, 61, 65
2, 162595, Control_c, 0, 64, 105
2, 162610, Control_c, 0, 64, 94
2, 162624, Control_c, 0, 64, 85
2, 162640, Control_c, 0, 64, 78
2, 162655, Control_c, 0, 64, 74
2, 162670, Control_c, 0, 64, 70
2, 162685, Control_c, 0, 64, 67
2, 162700, Control_c, 0, 64, 64
2, 162716, Control_c, 0, 64, 60
2, 162731, Control_c, 0, 64, 57
2, 162746, Control_c, 0, 64, 55
2, 162764, Note_on_c, 0, 72, 0
2, 162766, Note_on_c, 0, 61, 0
2, 162776, Control_c, 0, 64, 54
2, 162792, Control_c, 0, 64, 53
2, 162807, Control_c, 0, 64, 52
2, 162822, Control_c, 0, 64, 50
2, 162837, Control_c, 0, 64, 49
2, 162852, Control_c, 0, 64, 49
2, 162867, Control_c, 0, 64, 48
2, 162882, Control_c, 0, 64, 47
2, 162897, Control_c, 0, 64, 46
2, 162908, Note_on_c, 0, 58, 0
2, 162913, Control_c, 0, 64, 45
2, 162928, Control_c, 0, 64, 43
2, 162943, Control_c, 0, 64, 43
2, 162943, Note_on_c, 0, 48, 58
2, 162943, Note_on_c, 0, 70, 66
2, 162947, Note_on_c, 0, 63, 61
2, 162958, Control_c, 0, 64, 42
2, 162973, Control_c, 0, 64, 41
2, 162988, Control_c, 0, 64, 40
2, 162989, Note_on_c, 0, 63, 0
2, 163004, Control_c, 0, 64, 38
2, 163019, Control_c, 0, 64, 37
2, 163024, Note_on_c, 0, 70, 0
2, 163035, Control_c, 0, 64, 36
2, 163050, Control_c, 0, 64, 35
2, 163065, Control_c, 0, 64, 34
2, 163087, Control_c, 0, 64, 33
2, 163102, Control_c, 0, 64, 31
2, 163118, Control_c, 0, 64, 30
2, 163120, Note_on_c, 0, 69, 70
2, 163133, Control_c, 0, 64, 30
2, 163148, Control_c, 0, 64, 29
2, 163182, Note_on_c, 0, 69, 0
2, 163336, Note_on_c, 0, 49, 48
2, 163336, Note_on_c, 0, 70, 63
2, 163341, Note_on_c, 0, 65, 54
2, 163349, Note_on_c, 0, 41, 51
2, 163423, Note_on_c, 0, 48, 0
2, 163441, Note_on_c, 0, 46, 0
2, 163726, Note_on_c, 0, 51, 57
2, 163737, Note_on_c, 0, 66, 61
2, 163741, Control_c, 0, 64, 30
2, 163757, Control_c, 0, 64, 32
2, 163772, Control_c, 0, 64, 35
2, 163787, Control_c, 0, 64, 38
2, 163802, Control_c, 0, 64, 41
2, 163817, Control_c, 0, 64, 46
2, 163833, Control_c, 0, 64, 52
2, 163842, Note_on_c, 0, 49, 0
2, 163855, Control_c, 0, 64, 57
2, 163870, Control_c, 0, 64, 61
2, 163872, Note_on_c, 0, 65, 0
2, 163886, Control_c, 0, 64, 64
2, 163901, Control_c, 0, 64, 66
2, 163917, Control_c, 0, 64, 70
2, 163931, Control_c, 0, 64, 78
2, 163946, Control_c, 0, 64, 92
2, 163962, Control_c, 0, 64, 114
2, 163970, Note_on_c, 0, 73, 0
2, 163977, Control_c, 0, 64, 127
2, 164141, Note_on_c, 0, 72, 78
2, 164149, Note_on_c, 0, 53, 42
2, 164153, Note_on_c, 0, 60, 55
2, 164175, Control_c, 0, 64, 117
2, 164190, Control_c, 0, 64, 106
2, 164206, Control_c, 0, 64, 95
2, 164221, Control_c, 0, 64, 88
2, 164236, Control_c, 0, 64, 83
2, 164251, Control_c, 0, 64, 80
2, 164266, Control_c, 0, 64, 77
2, 164282, Control_c, 0, 64, 73
2, 164285, Note_on_c, 0, 41, 0
2, 164297, Control_c, 0, 64, 69
2, 164313, Control_c, 0, 64, 67
2, 164325, Note_on_c, 0, 51, 0
2, 164328, Control_c, 0, 64, 64
2, 164343, Control_c, 0, 64, 63
2, 164359, Control_c, 0, 64, 61
2, 164373, Control_c, 0, 64, 59
2, 164388, Control_c, 0, 64, 58
2, 164397, Note_on_c, 0, 66, 0
2, 164404, Control_c, 0, 64, 57
2, 164419, Control_c, 0, 64, 56
2, 164435, Control_c, 0, 64, 55
2, 164449, Control_c, 0, 64, 55
2, 164464, Control_c, 0, 64, 54
2, 164480, Control_c, 0, 64, 53
2, 164494, Control_c, 0, 64, 53
2, 164525, Control_c, 0, 64, 52
2, 164538, Note_on_c, 0, 54, 63
2, 164624, Control_c, 0, 64, 52
2, 164627, Note_on_c, 0, 53, 0
2, 164950, Note_on_c, 0, 68, 59
2, 164952, Note_on_c, 0, 56, 41
2, 164954, Note_on_c, 0, 65, 49
2, 164955, Note_on_c, 0, 53, 44
2, 165101, Note_on_c, 0, 70, 0
2, 165107, Note_on_c, 0, 54, 0
2, 165166, Note_on_c, 0, 60, 0
2, 165324, Note_on_c, 0, 51, 54
2, 165329, Note_on_c, 0, 53, 0
2, 165736, Note_on_c, 0, 70, 62
2, 165745, Note_on_c, 0, 58, 40
2, 165748, Note_on_c, 0, 50, 30
2, 165805, Note_on_c, 0, 56, 0
2, 165816, Note_on_c, 0, 51, 0
2, 165936, Note_on_c, 0, 72, 0
2, 165953, Note_on_c, 0, 50, 0
2, 165990, Control_c, 0, 64, 52
2, 166004, Control_c, 0, 64, 54
2, 166020, Control_c, 0, 64, 55
2, 166035, Control_c, 0, 64, 56
2, 166050, Control_c, 0, 64, 57
2, 166066, Control_c, 0, 64, 57
2, 166081, Control_c, 0, 64, 58
2, 166124, Note_on_c, 0, 62, 49
2, 166151, Note_on_c, 0, 46, 34
2, 166179, Note_on_c, 0, 65, 0
2, 166194, Control_c, 0, 64, 57
2, 166271, Control_c, 0, 64, 57
2, 166302, Control_c, 0, 64, 56
2, 166378, Control_c, 0, 64, 56
2, 166423, Control_c, 0, 64, 55
2, 166499, Control_c, 0, 64, 55
2, 166520, Note_on_c, 0, 63, 64
2, 166521, Note_on_c, 0, 48, 38
2, 166559, Control_c, 0, 64, 54
2, 166636, Control_c, 0, 64, 54
2, 166652, Note_on_c, 0, 62, 0
2, 166674, Note_on_c, 0, 46, 0
2, 166898, Note_on_c, 0, 50, 35
2, 166904, Note_on_c, 0, 65, 65
2, 167050, Note_on_c, 0, 48, 0
2, 167064, Note_on_c, 0, 68, 0
2, 167096, Note_on_c, 0, 63, 0
2, 167114, Control_c, 0, 64, 53
2, 167313, Note_on_c, 0, 66, 60
2, 167315, Note_on_c, 0, 51, 39
2, 167362, Note_on_c, 0, 50, 0
2, 167555, Note_on_c, 0, 65, 0
2, 167704, Note_on_c, 0, 53, 44
2, 167704, Note_on_c, 0, 63, 65
2, 167755, Note_on_c, 0, 51, 0
2, 167771, Note_on_c, 0, 63, 0
2, 167880, Note_on_c, 0, 62, 56
2, 167945, Note_on_c, 0, 62, 0
2, 167958, Control_c, 0, 64, 53
2, 168092, Note_on_c, 0, 63, 50
2, 168102, Note_on_c, 0, 51, 42
2, 168172, Note_on_c, 0, 53, 0
2, 168230, Note_on_c, 0, 58, 0
2, 168232, Control_c, 0, 64, 52
2, 168247, Control_c, 0, 64, 52
2, 168279, Control_c, 0, 64, 51
2, 168309, Control_c, 0, 64, 51
2, 168324, Control_c, 0, 64, 50
2, 168340, Control_c, 0, 64, 50
2, 168476, Note_on_c, 0, 49, 34
2, 168478, Note_on_c, 0, 75, 55
2, 168582, Note_on_c, 0, 70, 0
2, 168635, Note_on_c, 0, 51, 0
2, 168871, Note_on_c, 0, 68, 52
2, 168877, Note_on_c, 0, 60, 29
2, 168878, Note_on_c, 0, 48, 28
2, 168933, Note_on_c, 0, 49, 0
2, 169033, Note_on_c, 0, 60, 0
2, 169062, Note_on_c, 0, 48, 0
2, 169100, Note_on_c, 0, 75, 0
2, 169285, Note_on_c, 0, 48, 43
2, 169300, Note_on_c, 0, 44, 26
2, 169652, Note_on_c, 0, 49, 40
2, 169657, Note_on_c, 0, 46, 34
2, 169741, Note_on_c, 0, 48, 0
2, 169803, Note_on_c, 0, 44, 0
2, 170032, Note_on_c, 0, 49, 0
2, 170034, Control_c, 0, 64, 50
2, 170049, Control_c, 0, 64, 51
2, 170049, Note_on_c, 0, 48, 40
2, 170053, Note_on_c, 0, 51, 43
2, 170094, Control_c, 0, 64, 51
2, 170122, Note_on_c, 0, 66, 0
2, 170144, Note_on_c, 0, 46, 0
2, 170155, Control_c, 0, 64, 52
2, 170170, Control_c, 0, 64, 52
2, 170186, Control_c, 0, 64, 54
2, 170201, Control_c, 0, 64, 57
2, 170213, Note_on_c, 0, 63, 0
2, 170215, Control_c, 0, 64, 61
2, 170231, Control_c, 0, 64, 65
2, 170246, Control_c, 0, 64, 69
2, 170261, Control_c, 0, 64, 74
2, 170264, Note_on_c, 0, 51, 0
2, 170276, Control_c, 0, 64, 81
2, 170291, Control_c, 0, 64, 89
2, 170307, Control_c, 0, 64, 98
2, 170322, Control_c, 0, 64, 114
2, 170336, Control_c, 0, 64, 127
2, 170444, Control_c, 0, 64, 123
2, 170449, Note_on_c, 0, 49, 50
2, 170459, Control_c, 0, 64, 110
2, 170460, Note_on_c, 0, 61, 38
2, 170462, Note_on_c, 0, 65, 47
2, 170474, Control_c, 0, 64, 103
2, 170483, Note_on_c, 0, 53, 32
2, 170489, Control_c, 0, 64, 97
2, 170505, Control_c, 0, 64, 88
2, 170506, Note_on_c, 0, 48, 0
2, 170520, Control_c, 0, 64, 80
2, 170534, Control_c, 0, 64, 74
2, 170550, Control_c, 0, 64, 70
2, 170565, Control_c, 0, 64, 67
2, 170581, Control_c, 0, 64, 65
2, 170596, Control_c, 0, 64, 62
2, 170610, Control_c, 0, 64, 57
2, 170626, Control_c, 0, 64, 52
2, 170641, Control_c, 0, 64, 47
2, 170656, Control_c, 0, 64, 44
2, 170671, Control_c, 0, 64, 40
2, 170686, Control_c, 0, 64, 36
2, 170702, Control_c, 0, 64, 30
2, 170714, Note_on_c, 0, 53, 0
2, 170718, Control_c, 0, 64, 27
2, 170733, Control_c, 0, 64, 26
2, 170840, Note_on_c, 0, 51, 58
2, 170847, Control_c, 0, 64, 30
2, 170863, Control_c, 0, 64, 37
2, 170878, Control_c, 0, 64, 45
2, 170893, Control_c, 0, 64, 53
2, 170908, Control_c, 0, 64, 59
2, 170923, Control_c, 0, 64, 64
2, 170939, Control_c, 0, 64, 69
2, 170947, Note_on_c, 0, 65, 0
2, 170954, Control_c, 0, 64, 76
2, 170969, Control_c, 0, 64, 88
2, 170984, Control_c, 0, 64, 111
2, 170999, Control_c, 0, 64, 127
2, 171224, Note_on_c, 0, 70, 61
2, 171224, Note_on_c, 0, 73, 72
2, 171231, Note_on_c, 0, 65, 45
2, 171233, Note_on_c, 0, 53, 33
2, 171245, Note_on_c, 0, 46, 34
2, 171273, Control_c, 0, 64, 104
2, 171284, Note_on_c, 0, 68, 0
2, 171287, Control_c, 0, 64, 95
2, 171303, Control_c, 0, 64, 90
2, 171318, Control_c, 0, 64, 85
2, 171333, Control_c, 0, 64, 81
2, 171349, Control_c, 0, 64, 76
2, 171364, Control_c, 0, 64, 71
2, 171373, Note_on_c, 0, 49, 0
2, 171380, Control_c, 0, 64, 68
2, 171380, Note_on_c, 0, 51, 0
2, 171394, Control_c, 0, 64, 65
2, 171398, Note_on_c, 0, 61, 0
2, 171409, Control_c, 0, 64, 64
2, 171425, Control_c, 0, 64, 62
2, 171440, Control_c, 0, 64, 60
2, 171454, Control_c, 0, 64, 58
2, 171470, Control_c, 0, 64, 56
2, 171485, Control_c, 0, 64, 55
2, 171501, Control_c, 0, 64, 53
2, 171515, Control_c, 0, 64, 51
2, 171539, Control_c, 0, 64, 49
2, 171554, Control_c, 0, 64, 48
2, 171569, Control_c, 0, 64, 47
2, 171586, Control_c, 0, 64, 46
2, 171601, Control_c, 0, 64, 45
2, 171614, Note_on_c, 0, 54, 61
2, 171616, Control_c, 0, 64, 44
2, 171631, Control_c, 0, 64, 44
2, 171646, Control_c, 0, 64, 43
2, 171648, Note_on_c, 0, 53, 0
2, 171662, Control_c, 0, 64, 43
2, 171677, Control_c, 0, 64, 42
2, 171691, Control_c, 0, 64, 42
2, 171737, Control_c, 0, 64, 41
2, 171753, Control_c, 0, 64, 41
2, 171767, Control_c, 0, 64, 40
2, 171798, Control_c, 0, 64, 39
2, 171813, Control_c, 0, 64, 39
2, 171829, Control_c, 0, 64, 38
2, 171844, Control_c, 0, 64, 37
2, 171860, Control_c, 0, 64, 36
2, 171965, Control_c, 0, 64, 36
2, 171991, Note_on_c, 0, 53, 60
2, 171996, Note_on_c, 0, 72, 67
2, 172003, Note_on_c, 0, 68, 57
2, 172004, Note_on_c, 0, 56, 45
2, 172011, Note_on_c, 0, 54, 0
2, 172039, Note_on_c, 0, 70, 0
2, 172141, Note_on_c, 0, 46, 0
2, 172159, Note_on_c, 0, 73, 0
2, 172193, Control_c, 0, 64, 35
2, 172202, Note_on_c, 0, 56, 0
2, 172337, Control_c, 0, 64, 34
2, 172379, Note_on_c, 0, 58, 76
2, 172456, Note_on_c, 0, 58, 0
2, 172461, Control_c, 0, 64, 34
2, 172535, Control_c, 0, 64, 33
2, 172543, Note_on_c, 0, 60, 79
2, 172611, Control_c, 0, 64, 33
2, 172639, Note_on_c, 0, 60, 0
2, 172718, Control_c, 0, 64, 32
2, 172746, Note_on_c, 0, 73, 69
2, 172749, Note_on_c, 0, 58, 56
2, 172749, Note_on_c, 0, 77, 82
2, 172761, Note_on_c, 0, 49, 40
2, 172780, Control_c, 0, 64, 32
2, 172817, Note_on_c, 0, 72, 0
2, 172855, Control_c, 0, 64, 31
2, 172889, Note_on_c, 0, 53, 0
2, 172901, Control_c, 0, 64, 31
2, 172961, Control_c, 0, 64, 30
2, 172975, Note_on_c, 0, 68, 0
2, 173149, Note_on_c, 0, 56, 67
2, 173188, Note_on_c, 0, 58, 0
2, 173523, Note_on_c, 0, 70, 69
2, 173531, Note_on_c, 0, 54, 57
2, 173553, Note_on_c, 0, 51, 56
2, 173565, Note_on_c, 0, 56, 0
2, 173616, Note_on_c, 0, 49, 0
2, 173639, Note_on_c, 0, 65, 0
2, 173714, Control_c, 0, 64, 31
2, 173859, Control_c, 0, 64, 31
2, 173900, Note_on_c, 0, 56, 63
2, 173905, Note_on_c, 0, 68, 66
2, 173908, Note_on_c, 0, 72, 76
2, 173910, Note_on_c, 0, 53, 48
2, 173934, Control_c, 0, 64, 32
2, 173949, Note_on_c, 0, 54, 0
2, 173963, Note_on_c, 0, 77, 0
2, 173981, Note_on_c, 0, 70, 0
2, 174023, Note_on_c, 0, 73, 0
2, 174027, Control_c, 0, 64, 32
2, 174045, Note_on_c, 0, 51, 0
2, 174057, Control_c, 0, 64, 33
2, 174087, Control_c, 0, 64, 33
2, 174148, Control_c, 0, 64, 34
2, 174162, Note_on_c, 0, 68, 0
2, 174163, Control_c, 0, 64, 34
2, 174289, Note_on_c, 0, 54, 56
2, 174295, Note_on_c, 0, 70, 67
2, 174299, Note_on_c, 0, 75, 78
2, 174303, Note_on_c, 0, 58, 52
2, 174305, Note_on_c, 0, 66, 67
2, 174328, Note_on_c, 0, 53, 0
2, 174352, Note_on_c, 0, 56, 0
2, 174375, Note_on_c, 0, 72, 0
2, 174437, Control_c, 0, 64, 35
2, 174464, Note_on_c, 0, 58, 0
2, 174513, Control_c, 0, 64, 35
2, 174562, Note_on_c, 0, 66, 0
2, 174680, Note_on_c, 0, 60, 67
2, 174690, Note_on_c, 0, 73, 82
2, 174695, Note_on_c, 0, 65, 64
2, 174758, Note_on_c, 0, 60, 0
2, 174763, Note_on_c, 0, 70, 0
2, 174813, Note_on_c, 0, 75, 0
2, 174843, Note_on_c, 0, 65, 0
2, 174852, Note_on_c, 0, 61, 69
2, 174932, Note_on_c, 0, 61, 0
2, 175082, Note_on_c, 0, 63, 65
2, 175083, Note_on_c, 0, 68, 75
2, 175086, Note_on_c, 0, 56, 50
2, 175087, Note_on_c, 0, 72, 78
2, 175116, Note_on_c, 0, 73, 0
2, 175186, Note_on_c, 0, 54, 0
2, 175468, Note_on_c, 0, 53, 67
2, 175834, Note_on_c, 0, 73, 76
2, 175835, Note_on_c, 0, 65, 72
2, 175843, Note_on_c, 0, 51, 63
2, 175937, Note_on_c, 0, 53, 0
2, 175949, Note_on_c, 0, 72, 0
2, 175950, Note_on_c, 0, 63, 0
2, 176120, Note_on_c, 0, 56, 0
2, 176234, Note_on_c, 0, 49, 61
2, 176284, Note_on_c, 0, 51, 0
2, 176631, Note_on_c, 0, 56, 67
2, 176640, Note_on_c, 0, 63, 59
2, 176712, Note_on_c, 0, 65, 0
2, 176730, Note_on_c, 0, 49, 0
2, 176916, Control_c, 0, 64, 41
2, 176931, Control_c, 0, 64, 45
2, 176946, Control_c, 0, 64, 50
2, 176961, Control_c, 0, 64, 54
2, 176976, Control_c, 0, 64, 58
2, 176992, Control_c, 0, 64, 62
2, 177007, Control_c, 0, 64, 67
2, 177017, Note_on_c, 0, 70, 77
2, 177022, Control_c, 0, 64, 73
2, 177037, Control_c, 0, 64, 83
2, 177052, Control_c, 0, 64, 104
2, 177062, Note_on_c, 0, 73, 0
2, 177067, Control_c, 0, 64, 127
2, 177120, Note_on_c, 0, 68, 0
2, 177372, Control_c, 0, 64, 115
2, 177387, Control_c, 0, 64, 96
2, 177395, Note_on_c, 0, 72, 81
2, 177396, Note_on_c, 0, 44, 51
2, 177400, Note_on_c, 0, 68, 74
2, 177402, Control_c, 0, 64, 87
2, 177417, Control_c, 0, 64, 81
2, 177433, Control_c, 0, 64, 75
2, 177443, Note_on_c, 0, 70, 0
2, 177448, Control_c, 0, 64, 71
2, 177464, Control_c, 0, 64, 67
2, 177479, Control_c, 0, 64, 63
2, 177494, Control_c, 0, 64, 59
2, 177509, Control_c, 0, 64, 55
2, 177524, Control_c, 0, 64, 49
2, 177540, Control_c, 0, 64, 41
2, 177555, Control_c, 0, 64, 30
2, 177570, Control_c, 0, 64, 15
2, 177585, Control_c, 0, 64, 0
2, 177646, Control_c, 0, 64, 17
2, 177661, Control_c, 0, 64, 38
2, 177683, Control_c, 0, 64, 52
2, 177699, Control_c, 0, 64, 58
2, 177707, Note_on_c, 0, 68, 0
2, 177714, Control_c, 0, 64, 63
2, 177729, Control_c, 0, 64, 66
2, 177745, Control_c, 0, 64, 72
2, 177760, Control_c, 0, 64, 82
2, 177775, Control_c, 0, 64, 103
2, 177790, Control_c, 0, 64, 127
2, 177794, Note_on_c, 0, 66, 73
2, 177815, Note_on_c, 0, 44, 0
2, 177937, Note_on_c, 0, 63, 0
2, 177965, Note_on_c, 0, 66, 0
2, 178196, Note_on_c, 0, 49, 31
2, 178201, Control_c, 0, 64, 109
2, 178210, Note_on_c, 0, 73, 74
2, 178211, Note_on_c, 0, 61, 44
2, 178215, Control_c, 0, 64, 98
2, 178215, Note_on_c, 0, 65, 57
2, 178231, Control_c, 0, 64, 92
2, 178246, Control_c, 0, 64, 86
2, 178262, Control_c, 0, 64, 82
2, 178277, Control_c, 0, 64, 77
2, 178292, Control_c, 0, 64, 71
2, 178308, Control_c, 0, 64, 65
2, 178322, Control_c, 0, 64, 61
2, 178323, Note_on_c, 0, 72, 0
2, 178337, Control_c, 0, 64, 56
2, 178353, Control_c, 0, 64, 54
2, 178368, Control_c, 0, 64, 52
2, 178384, Control_c, 0, 64, 52
2, 178399, Control_c, 0, 64, 52
2, 178414, Control_c, 0, 64, 57
2, 178429, Control_c, 0, 64, 63
2, 178451, Control_c, 0, 64, 69
2, 178467, Control_c, 0, 64, 75
2, 178467, Note_on_c, 0, 61, 0
2, 178482, Control_c, 0, 64, 80
2, 178496, Control_c, 0, 64, 82
2, 178527, Control_c, 0, 64, 82
2, 178543, Control_c, 0, 64, 81
2, 178557, Control_c, 0, 64, 80
2, 178572, Control_c, 0, 64, 79
2, 178588, Control_c, 0, 64, 78
2, 178603, Control_c, 0, 64, 76
2, 178607, Note_on_c, 0, 60, 48
2, 178619, Control_c, 0, 64, 74
2, 178628, Note_on_c, 0, 63, 57
2, 178633, Control_c, 0, 64, 73
2, 178648, Control_c, 0, 64, 72
2, 178664, Control_c, 0, 64, 71
2, 178679, Control_c, 0, 64, 69
2, 178694, Control_c, 0, 64, 68
2, 178709, Control_c, 0, 64, 67
2, 178724, Control_c, 0, 64, 66
2, 178726, Note_on_c, 0, 65, 0
2, 178740, Control_c, 0, 64, 65
2, 178754, Control_c, 0, 64, 64
2, 178769, Control_c, 0, 64, 64
2, 178785, Control_c, 0, 64, 62
2, 178800, Control_c, 0, 64, 61
2, 178815, Control_c, 0, 64, 61
2, 178845, Control_c, 0, 64, 60
2, 178861, Control_c, 0, 64, 60
2, 178876, Control_c, 0, 64, 59
2, 178884, Note_on_c, 0, 49, 0
2, 178891, Control_c, 0, 64, 59
2, 178923, Control_c, 0, 64, 58
2, 179010, Note_on_c, 0, 61, 41
2, 179016, Note_on_c, 0, 68, 57
2, 179022, Note_on_c, 0, 65, 43
2, 179042, Note_on_c, 0, 60, 0
2, 179063, Note_on_c, 0, 56, 0
2, 179090, Control_c, 0, 64, 58
2, 179151, Control_c, 0, 64, 57
2, 179155, Note_on_c, 0, 63, 0
2, 179182, Note_on_c, 0, 73, 0
2, 179196, Control_c, 0, 64, 57
2, 179280, Control_c, 0, 64, 56
2, 179311, Control_c, 0, 64, 56
2, 179342, Control_c, 0, 64, 55
2, 179412, Note_on_c, 0, 66, 37
2, 179425, Note_on_c, 0, 63, 43
2, 179444, Note_on_c, 0, 61, 0
2, 179459, Note_on_c, 0, 65, 0
2, 179632, Note_on_c, 0, 68, 0
2, 179832, Note_on_c, 0, 65, 42
2, 179848, Note_on_c, 0, 68, 46
2, 179996, Note_on_c, 0, 66, 0
2, 180029, Note_on_c, 0, 63, 0
2, 180247, Note_on_c, 0, 83, 64
2, 180430, Note_on_c, 0, 65, 0
2, 180629, Note_on_c, 0, 82, 66
2, 180634, Note_on_c, 0, 65, 30
2, 180646, Note_on_c, 0, 62, 31
2, 180721, Note_on_c, 0, 83, 0
2, 180844, Note_on_c, 0, 68, 0
2, 181037, Note_on_c, 0, 80, 64
2, 181119, Control_c, 0, 64, 55
2, 181122, Note_on_c, 0, 82, 0
2, 181240, Control_c, 0, 64, 54
2, 181363, Control_c, 0, 64, 54
2, 181449, Note_on_c, 0, 70, 69
2, 181454, Note_on_c, 0, 78, 59
2, 181456, Note_on_c, 0, 63, 34
2, 181490, Note_on_c, 0, 65, 0
2, 181493, Note_on_c, 0, 62, 0
2, 181553, Control_c, 0, 64, 53
2, 181560, Note_on_c, 0, 80, 0
2, 181811, Control_c, 0, 64, 53
2, 181848, Note_on_c, 0, 63, 0
2, 181849, Note_on_c, 0, 77, 58
2, 181933, Note_on_c, 0, 78, 0
2, 182252, Note_on_c, 0, 63, 58
2, 182268, Note_on_c, 0, 78, 56
2, 182380, Note_on_c, 0, 77, 0
2, 182542, Note_on_c, 0, 70, 0
2, 182642, Note_on_c, 0, 80, 57
2, 182647, Note_on_c, 0, 65, 36
2, 182729, Note_on_c, 0, 78, 0
2, 183040, Note_on_c, 0, 66, 43
2, 183043, Note_on_c, 0, 82, 62
2, 183103, Note_on_c, 0, 80, 0
2, 183191, Note_on_c, 0, 63, 0
2, 183318, Note_on_c, 0, 65, 0
2, 183429, Note_on_c, 0, 78, 67
2, 183439, Note_on_c, 0, 81, 61
2, 183452, Note_on_c, 0, 63, 39
2, 183454, Note_on_c, 0, 82, 0
2, 183511, Note_on_c, 0, 81, 0
2, 183566, Note_on_c, 0, 66, 0
2, 183613, Note_on_c, 0, 82, 62
2, 183684, Note_on_c, 0, 82, 0
2, 183835, Note_on_c, 0, 77, 81
2, 183843, Note_on_c, 0, 69, 43
2, 183843, Note_on_c, 0, 84, 70
2, 183874, Note_on_c, 0, 78, 0
2, 183992, Note_on_c, 0, 63, 0
2, 184131, Control_c, 0, 64, 52
2, 184162, Note_on_c, 0, 69, 0
2, 184207, Control_c, 0, 64, 52
2, 184221, Note_on_c, 0, 67, 56
2, 184227, Note_on_c, 0, 75, 83
2, 184266, Note_on_c, 0, 77, 0
2, 184290, Note_on_c, 0, 67, 0
2, 184386, Note_on_c, 0, 65, 62
2, 184404, Control_c, 0, 64, 51
2, 184439, Note_on_c, 0, 65, 0
2, 184620, Note_on_c, 0, 58, 75
2, 184622, Note_on_c, 0, 73, 68
2, 184623, Note_on_c, 0, 70, 68
2, 184671, Note_on_c, 0, 75, 0
2, 184685, Control_c, 0, 64, 51
2, 184971, Note_on_c, 0, 70, 0
2, 185010, Note_on_c, 0, 82, 78
2, 185015, Note_on_c, 0, 77, 63
2, 185100, Note_on_c, 0, 84, 0
2, 185211, Note_on_c, 0, 77, 0
2, 185317, Note_on_c, 0, 73, 0
2, 185401, Note_on_c, 0, 53, 58
2, 185403, Note_on_c, 0, 75, 67
2, 185407, Note_on_c, 0, 72, 52
2, 185594, Note_on_c, 0, 58, 0
2, 185795, Note_on_c, 0, 81, 64
2, 185860, Note_on_c, 0, 82, 0
2, 185861, Note_on_c, 0, 75, 0
2, 185969, Note_on_c, 0, 72, 0
2, 186135, Note_on_c, 0, 53, 0
2, 186186, Note_on_c, 0, 82, 64
2, 186189, Note_on_c, 0, 70, 54
2, 186198, Note_on_c, 0, 74, 47
2, 186320, Note_on_c, 0, 81, 0
2, 186568, Note_on_c, 0, 66, 62
2, 186771, Note_on_c, 0, 74, 0
2, 186964, Note_on_c, 0, 75, 60
2, 186966, Note_on_c, 0, 65, 50
2, 187034, Control_c, 0, 64, 50
2, 187092, Note_on_c, 0, 66, 0
2, 187351, Note_on_c, 0, 63, 44
2, 187502, Note_on_c, 0, 65, 0
2, 187744, Note_on_c, 0, 77, 47
2, 187747, Note_on_c, 0, 62, 36
2, 187915, Note_on_c, 0, 63, 0
2, 187920, Note_on_c, 0, 75, 0
2, 188132, Note_on_c, 0, 58, 43
2, 188294, Note_on_c, 0, 62, 0
2, 188526, Note_on_c, 0, 60, 47
2, 188530, Note_on_c, 0, 80, 62
2, 188676, Note_on_c, 0, 58, 0
2, 188713, Note_on_c, 0, 82, 0
2, 188897, Note_on_c, 0, 62, 59
2, 188971, Note_on_c, 0, 60, 0
2, 189299, Note_on_c, 0, 78, 66
2, 189301, Note_on_c, 0, 51, 68
2, 189306, Note_on_c, 0, 63, 48
2, 189386, Note_on_c, 0, 80, 0
2, 189394, Note_on_c, 0, 62, 0
2, 189484, Note_on_c, 0, 77, 0
2, 189672, Note_on_c, 0, 63, 0
2, 189694, Note_on_c, 0, 75, 64
2, 189702, Note_on_c, 0, 53, 48
2, 189761, Note_on_c, 0, 75, 0
2, 189869, Note_on_c, 0, 74, 55
2, 189916, Note_on_c, 0, 74, 0
2, 190076, Note_on_c, 0, 75, 61
2, 190084, Note_on_c, 0, 54, 49
2, 190103, Note_on_c, 0, 46, 42
2, 190222, Note_on_c, 0, 53, 0
2, 190238, Note_on_c, 0, 51, 0
2, 190452, Note_on_c, 0, 78, 0
2, 190471, Note_on_c, 0, 56, 55
2, 190519, Note_on_c, 0, 54, 0
2, 190862, Note_on_c, 0, 77, 66
2, 190873, Note_on_c, 0, 58, 48
2, 190954, Note_on_c, 0, 46, 0
2, 190995, Note_on_c, 0, 56, 0
2, 191103, Control_c, 0, 64, 50
2, 191210, Control_c, 0, 64, 49
2, 191255, Note_on_c, 0, 59, 67
2, 191377, Control_c, 0, 64, 49
2, 191384, Note_on_c, 0, 58, 0
2, 191506, Control_c, 0, 64, 48
2, 191665, Note_on_c, 0, 61, 51
2, 191667, Note_on_c, 0, 73, 60
2, 191668, Note_on_c, 0, 76, 64
2, 191671, Note_on_c, 0, 58, 49
2, 191786, Note_on_c, 0, 75, 0
2, 191821, Note_on_c, 0, 59, 0
2, 191862, Note_on_c, 0, 77, 0
2, 191930, Control_c, 0, 64, 48
2, 192047, Note_on_c, 0, 56, 53
2, 192081, Note_on_c, 0, 58, 0
2, 192463, Note_on_c, 0, 55, 30
2, 192463, Note_on_c, 0, 63, 33
2, 192464, Note_on_c, 0, 75, 55
2, 192468, Note_on_c, 0, 56, 0
2, 192515, Note_on_c, 0, 76, 0
2, 192535, Note_on_c, 0, 61, 0
2, 192641, Note_on_c, 0, 55, 0
2, 192690, Note_on_c, 0, 75, 0
2, 192837, Note_on_c, 0, 55, 44
2, 192842, Note_on_c, 0, 51, 49
2, 192850, Note_on_c, 0, 75, 56
2, 192914, Note_on_c, 0, 75, 0
2, 193015, Note_on_c, 0, 76, 68
2, 193118, Note_on_c, 0, 76, 0
2, 193203, Note_on_c, 0, 53, 38
2, 193217, Note_on_c, 0, 56, 60
2, 193224, Note_on_c, 0, 75, 73
2, 193264, Note_on_c, 0, 73, 0
2, 193275, Note_on_c, 0, 63, 0
2, 193285, Note_on_c, 0, 55, 0
2, 193329, Note_on_c, 0, 51, 0
2, 193375, Control_c, 0, 64, 47
2, 193588, Note_on_c, 0, 73, 77
2, 193594, Note_on_c, 0, 58, 50
2, 193595, Note_on_c, 0, 55, 60
2, 193609, Note_on_c, 0, 53, 0
2, 193645, Note_on_c, 0, 56, 0
2, 193713, Note_on_c, 0, 75, 0
2, 193715, Note_on_c, 0, 70, 0
2, 193742, Control_c, 0, 64, 48
2, 193756, Control_c, 0, 64, 55
2, 193771, Control_c, 0, 64, 61
2, 193787, Control_c, 0, 64, 66
2, 193802, Control_c, 0, 64, 75
2, 193826, Control_c, 0, 64, 127
2, 193891, Note_on_c, 0, 58, 0
2, 193994, Note_on_c, 0, 56, 56
2, 193994, Note_on_c, 0, 59, 52
2, 194001, Note_on_c, 0, 71, 75
2, 194012, Note_on_c, 0, 68, 62
2, 194022, Control_c, 0, 64, 105
2, 194035, Note_on_c, 0, 55, 0
2, 194037, Control_c, 0, 64, 90
2, 194052, Control_c, 0, 64, 79
2, 194068, Control_c, 0, 64, 69
2, 194078, Note_on_c, 0, 73, 0
2, 194083, Control_c, 0, 64, 60
2, 194098, Control_c, 0, 64, 40
2, 194114, Control_c, 0, 64, 17
2, 194160, Control_c, 0, 64, 18
2, 194174, Control_c, 0, 64, 39
2, 194190, Control_c, 0, 64, 58
2, 194199, Note_on_c, 0, 68, 0
2, 194205, Control_c, 0, 64, 67
2, 194220, Control_c, 0, 64, 76
2, 194235, Control_c, 0, 64, 110
2, 194241, Note_on_c, 0, 56, 0
2, 194250, Control_c, 0, 64, 127
2, 194381, Note_on_c, 0, 54, 63
2, 194384, Note_on_c, 0, 58, 69
2, 194386, Note_on_c, 0, 70, 84
2, 194417, Control_c, 0, 64, 104
2, 194432, Control_c, 0, 64, 93
2, 194447, Control_c, 0, 64, 84
2, 194463, Control_c, 0, 64, 77
2, 194471, Note_on_c, 0, 71, 0
2, 194479, Control_c, 0, 64, 70
2, 194494, Control_c, 0, 64, 64
2, 194497, Note_on_c, 0, 59, 0
2, 194510, Control_c, 0, 64, 58
2, 194524, Control_c, 0, 64, 53
2, 194540, Control_c, 0, 64, 50
2, 194555, Control_c, 0, 64, 49
2, 194570, Control_c, 0, 64, 47
2, 194594, Control_c, 0, 64, 46
2, 194608, Control_c, 0, 64, 45
2, 194640, Control_c, 0, 64, 45
2, 194670, Control_c, 0, 64, 44
2, 194716, Control_c, 0, 64, 44
2, 194768, Note_on_c, 0, 56, 66
2, 194768, Note_on_c, 0, 71, 76
2, 194769, Note_on_c, 0, 80, 86
2, 194774, Note_on_c, 0, 76, 69
2, 194777, Note_on_c, 0, 52, 51
2, 194801, Note_on_c, 0, 54, 0
2, 194822, Control_c, 0, 64, 43
2, 194830, Note_on_c, 0, 58, 0
2, 194867, Control_c, 0, 64, 43
2, 194914, Note_on_c, 0, 70, 0
2, 194943, Control_c, 0, 64, 42
2, 195092, Note_on_c, 0, 52, 0
2, 195095, Control_c, 0, 64, 42
2, 195143, Note_on_c, 0, 56, 0
2, 195150, Note_on_c, 0, 54, 80
2, 195158, Note_on_c, 0, 51, 60
2, 195524, Note_on_c, 0, 49, 55
2, 195524, Note_on_c, 0, 52, 76
2, 195533, Note_on_c, 0, 70, 71
2, 195538, Note_on_c, 0, 51, 0
2, 195572, Note_on_c, 0, 71, 0
2, 195573, Note_on_c, 0, 54, 0
2, 195630, Note_on_c, 0, 76, 0
2, 195691, Note_on_c, 0, 49, 0
2, 195696, Note_on_c, 0, 75, 79
2, 195742, Control_c, 0, 64, 41
2, 195774, Note_on_c, 0, 75, 0
2, 195853, Note_on_c, 0, 80, 0
2, 195889, Note_on_c, 0, 73, 91
2, 195890, Note_on_c, 0, 46, 64
2, 196051, Note_on_c, 0, 70, 0
2, 196151, Note_on_c, 0, 52, 0
2, 196246, Note_on_c, 0, 51, 61
2, 196273, Note_on_c, 0, 79, 87
2, 196296, Note_on_c, 0, 46, 0
2, 196403, Control_c, 0, 64, 41
2, 196408, Note_on_c, 0, 73, 0
2, 196418, Control_c, 0, 64, 40
2, 196433, Control_c, 0, 64, 39
2, 196443, Note_on_c, 0, 76, 81
2, 196448, Control_c, 0, 64, 39
2, 196509, Control_c, 0, 64, 38
2, 196523, Note_on_c, 0, 76, 0
2, 196524, Control_c, 0, 64, 36
2, 196540, Control_c, 0, 64, 31
2, 196554, Control_c, 0, 64, 26
2, 196569, Control_c, 0, 64, 20
2, 196585, Control_c, 0, 64, 0
2, 196617, Note_on_c, 0, 39, 67
2, 196624, Note_on_c, 0, 75, 91
2, 196725, Note_on_c, 0, 75, 0
2, 196783, Control_c, 0, 64, 63
2, 196792, Note_on_c, 0, 73, 93
2, 196798, Control_c, 0, 64, 82
2, 196813, Control_c, 0, 64, 127
2, 196838, Note_on_c, 0, 79, 0
2, 196842, Note_on_c, 0, 39, 0
2, 196887, Note_on_c, 0, 73, 0
2, 197008, Note_on_c, 0, 72, 62
2, 197016, Note_on_c, 0, 44, 54
2, 197020, Note_on_c, 0, 68, 90
2, 197020, Note_on_c, 0, 80, 87
2, 197049, Control_c, 0, 64, 96
2, 197064, Control_c, 0, 64, 78
2, 197079, Control_c, 0, 64, 69
2, 197094, Control_c, 0, 64, 63
2, 197110, Control_c, 0, 64, 51
2, 197110, Note_on_c, 0, 51, 0
2, 197125, Control_c, 0, 64, 30
2, 197141, Control_c, 0, 64, 0
2, 197377, Note_on_c, 0, 56, 76
2, 197382, Note_on_c, 0, 80, 0
2, 197429, Note_on_c, 0, 72, 0
2, 197752, Note_on_c, 0, 46, 38
2, 197760, Note_on_c, 0, 54, 49
2, 197769, Note_on_c, 0, 61, 81
2, 197838, Note_on_c, 0, 68, 0
2, 197852, Note_on_c, 0, 44, 0
2, 197896, Note_on_c, 0, 56, 0
2, 198122, Note_on_c, 0, 46, 0
2, 198132, Note_on_c, 0, 53, 71
2, 198137, Note_on_c, 0, 44, 61
2, 198152, Note_on_c, 0, 54, 0
2, 198470, Note_on_c, 0, 61, 0
2, 198524, Note_on_c, 0, 42, 63
2, 198525, Note_on_c, 0, 51, 71
2, 198580, Note_on_c, 0, 44, 0
2, 198629, Note_on_c, 0, 53, 0
2, 198932, Note_on_c, 0, 49, 50
2, 198933, Note_on_c, 0, 77, 83
2, 199008, Note_on_c, 0, 42, 0
2, 199011, Note_on_c, 0, 51, 0
2, 199294, Note_on_c, 0, 75, 82
2, 199300, Note_on_c, 0, 54, 47
2, 199305, Note_on_c, 0, 58, 56
2, 199370, Note_on_c, 0, 77, 0
2, 199385, Note_on_c, 0, 49, 0
2, 199677, Note_on_c, 0, 73, 77
2, 199746, Note_on_c, 0, 75, 0
2, 200073, Note_on_c, 0, 56, 43
2, 200073, Note_on_c, 0, 72, 71
2, 200120, Note_on_c, 0, 73, 0
2, 200130, Note_on_c, 0, 58, 0
2, 200456, Note_on_c, 0, 68, 64
2, 200460, Note_on_c, 0, 66, 62
2, 200469, Note_on_c, 0, 53, 42
2, 200570, Note_on_c, 0, 54, 0
2, 200644, Note_on_c, 0, 56, 0
2, 200645, Note_on_c, 0, 72, 0
2, 200834, Note_on_c, 0, 54, 60
2, 200840, Note_on_c, 0, 70, 76
2, 200841, Note_on_c, 0, 65, 73
2, 200878, Note_on_c, 0, 66, 0
2, 200913, Note_on_c, 0, 68, 0
2, 201026, Note_on_c, 0, 53, 0
2, 201212, Note_on_c, 0, 72, 80
2, 201218, Note_on_c, 0, 56, 60
2, 201220, Note_on_c, 0, 63, 73
2, 201238, Note_on_c, 0, 70, 0
2, 201253, Note_on_c, 0, 65, 0
2, 201272, Note_on_c, 0, 54, 0
2, 201602, Note_on_c, 0, 61, 69
2, 201602, Note_on_c, 0, 73, 81
2, 201606, Note_on_c, 0, 58, 59
2, 201635, Note_on_c, 0, 63, 0
2, 201665, Note_on_c, 0, 72, 0
2, 201677, Note_on_c, 0, 56, 0
2, 201705, Note_on_c, 0, 61, 0
2, 201977, Note_on_c, 0, 66, 73
2, 202385, Note_on_c, 0, 54, 61
2, 202509, Note_on_c, 0, 58, 0
2, 202743, Note_on_c, 0, 65, 64
2, 202883, Note_on_c, 0, 66, 0
2, 203130, Note_on_c, 0, 56, 44
2, 203135, Note_on_c, 0, 63, 59
2, 203258, Note_on_c, 0, 65, 0
2, 203286, Note_on_c, 0, 54, 0
2, 203528, Note_on_c, 0, 58, 46
2, 203633, Note_on_c, 0, 56, 0
2, 203893, Note_on_c, 0, 72, 53
2, 203909, Note_on_c, 0, 56, 36
2, 203995, Note_on_c, 0, 73, 0
2, 204007, Note_on_c, 0, 58, 0
2, 204267, Note_on_c, 0, 54, 39
2, 204316, Note_on_c, 0, 56, 0
2, 204663, Note_on_c, 0, 73, 50
2, 204665, Note_on_c, 0, 53, 27
2, 204668, Note_on_c, 0, 56, 35
2, 204708, Note_on_c, 0, 63, 0
2, 204732, Note_on_c, 0, 72, 0
2, 204888, Note_on_c, 0, 54, 0
2, 205024, Note_on_c, 0, 73, 0
2, 205042, Note_on_c, 0, 71, 48
2, 205111, Note_on_c, 0, 71, 0
2, 205217, Note_on_c, 0, 70, 49
2, 205264, Note_on_c, 0, 70, 0
2, 205423, Note_on_c, 0, 53, 0
2, 205433, Note_on_c, 0, 68, 46
2, 205435, Note_on_c, 0, 71, 56
2, 205438, Note_on_c, 0, 56, 0
2, 205797, Note_on_c, 0, 66, 48
2, 205814, Note_on_c, 0, 51, 50
2, 205856, Note_on_c, 0, 51, 0
2, 205856, Note_on_c, 0, 66, 0
2, 205866, Note_on_c, 0, 68, 0
2, 205986, Note_on_c, 0, 49, 41
2, 205986, Note_on_c, 0, 65, 50
2, 206018, Note_on_c, 0, 49, 0
2, 206030, Note_on_c, 0, 65, 0
2, 206189, Note_on_c, 0, 66, 58
2, 206193, Note_on_c, 0, 51, 49
2, 206493, Note_on_c, 0, 71, 0
2, 206549, Note_on_c, 0, 61, 70
2, 206562, Note_on_c, 0, 70, 54
2, 206563, Note_on_c, 0, 66, 0
2, 206564, Note_on_c, 0, 53, 39
2, 206603, Note_on_c, 0, 70, 0
2, 206691, Note_on_c, 0, 51, 0
2, 206718, Note_on_c, 0, 68, 59
2, 206786, Note_on_c, 0, 68, 0
2, 206929, Note_on_c, 0, 53, 0
2, 206930, Note_on_c, 0, 70, 58
2, 206948, Note_on_c, 0, 54, 39
2, 207297, Note_on_c, 0, 63, 56
2, 207306, Note_on_c, 0, 72, 56
2, 207374, Note_on_c, 0, 70, 0
2, 207386, Note_on_c, 0, 61, 0
2, 207689, Note_on_c, 0, 73, 59
2, 207697, Note_on_c, 0, 56, 44
2, 207774, Note_on_c, 0, 72, 0
2, 207866, Note_on_c, 0, 54, 0
2, 207890, Note_on_c, 0, 63, 0
2, 208071, Note_on_c, 0, 53, 43
2, 208071, Note_on_c, 0, 68, 56
2, 208118, Note_on_c, 0, 53, 0
2, 208119, Note_on_c, 0, 68, 0
2, 208228, Note_on_c, 0, 66, 57
2, 208234, Note_on_c, 0, 51, 47
2, 208271, Note_on_c, 0, 66, 0
2, 208289, Note_on_c, 0, 51, 0
2, 208449, Note_on_c, 0, 68, 66
2, 208462, Note_on_c, 0, 53, 40
2, 208794, Note_on_c, 0, 63, 80
2, 208804, Note_on_c, 0, 55, 49
2, 208813, Note_on_c, 0, 68, 0
2, 208814, Note_on_c, 0, 72, 60
2, 208822, Note_on_c, 0, 56, 0
2, 208838, Note_on_c, 0, 73, 0
2, 208856, Note_on_c, 0, 72, 0
2, 208874, Note_on_c, 0, 53, 0
2, 208968, Note_on_c, 0, 70, 70
2, 209055, Note_on_c, 0, 70, 0
2, 209162, Note_on_c, 0, 55, 0
2, 209162, Note_on_c, 0, 72, 72
2, 209163, Note_on_c, 0, 56, 58
2, 209534, Note_on_c, 0, 65, 64
2, 209544, Note_on_c, 0, 74, 74
2, 209597, Note_on_c, 0, 72, 0
2, 209627, Note_on_c, 0, 63, 0
2, 209911, Note_on_c, 0, 58, 60
2, 209911, Note_on_c, 0, 75, 72
2, 210021, Note_on_c, 0, 74, 0
2, 210075, Note_on_c, 0, 65, 0
2, 210131, Note_on_c, 0, 56, 0
2, 210270, Note_on_c, 0, 55, 61
2, 210319, Note_on_c, 0, 55, 0
2, 210438, Note_on_c, 0, 53, 64
2, 210495, Note_on_c, 0, 53, 0
2, 210639, Note_on_c, 0, 55, 71
2, 210929, Note_on_c, 0, 58, 0
2, 210986, Note_on_c, 0, 73, 73
2, 210987, Note_on_c, 0, 65, 78
2, 210994, Note_on_c, 0, 57, 58
2, 211048, Note_on_c, 0, 75, 0
2, 211107, Note_on_c, 0, 55, 0
2, 211107, Note_on_c, 0, 73, 0
2, 211162, Note_on_c, 0, 72, 73
2, 211236, Note_on_c, 0, 72, 0
2, 211329, Note_on_c, 0, 58, 51
2, 211338, Note_on_c, 0, 73, 71
2, 211354, Note_on_c, 0, 57, 0
2, 211501, Note_on_c, 0, 58, 0
2, 211513, Note_on_c, 0, 75, 77
2, 211524, Note_on_c, 0, 60, 63
2, 211531, Note_on_c, 0, 73, 0
2, 211564, Note_on_c, 0, 60, 0
2, 211685, Note_on_c, 0, 58, 81
2, 211690, Note_on_c, 0, 73, 69
2, 211713, Note_on_c, 0, 75, 0
2, 211845, Note_on_c, 0, 75, 68
2, 211851, Note_on_c, 0, 60, 64
2, 211926, Note_on_c, 0, 58, 0
2, 211940, Note_on_c, 0, 65, 0
2, 211946, Note_on_c, 0, 73, 0
2, 212023, Note_on_c, 0, 61, 54
2, 212028, Note_on_c, 0, 77, 76
2, 212037, Note_on_c, 0, 60, 0
2, 212097, Note_on_c, 0, 75, 0
2, 212124, Note_on_c, 0, 61, 0
2, 212198, Note_on_c, 0, 60, 72
2, 212276, Note_on_c, 0, 60, 0
2, 212370, Note_on_c, 0, 58, 79
2, 212378, Note_on_c, 0, 73, 84
2, 212434, Note_on_c, 0, 58, 0
2, 212534, Note_on_c, 0, 56, 84
2, 212601, Note_on_c, 0, 56, 0
2, 212686, Note_on_c, 0, 77, 0
2, 212712, Note_on_c, 0, 54, 85
2, 212718, Note_on_c, 0, 75, 81
2, 212720, Note_on_c, 0, 72, 85
2, 212763, Note_on_c, 0, 54, 0
2, 212769, Note_on_c, 0, 73, 0
2, 212881, Note_on_c, 0, 53, 90
2, 212929, Note_on_c, 0, 53, 0
2, 213061, Note_on_c, 0, 54, 95
2, 213067, Note_on_c, 0, 70, 87
2, 213075, Note_on_c, 0, 72, 0
2, 213114, Note_on_c, 0, 54, 0
2, 213220, Note_on_c, 0, 51, 90
2, 213265, Note_on_c, 0, 51, 0
2, 213417, Note_on_c, 0, 53, 91
2, 213424, Note_on_c, 0, 69, 64
2, 213442, Note_on_c, 0, 70, 0
2, 213598, Note_on_c, 0, 70, 75
2, 213616, Note_on_c, 0, 75, 0
2, 213656, Note_on_c, 0, 69, 0
2, 213701, Note_on_c, 0, 70, 0
2, 213762, Note_on_c, 0, 75, 82
2, 213781, Note_on_c, 0, 72, 68
2, 213862, Note_on_c, 0, 72, 0
2, 213934, Note_on_c, 0, 69, 67
2, 214033, Note_on_c, 0, 69, 0
2, 214133, Note_on_c, 0, 46, 60
2, 214136, Note_on_c, 0, 65, 52
2, 214140, Note_on_c, 0, 73, 69
2, 214211, Note_on_c, 0, 75, 0
2, 214285, Note_on_c, 0, 53, 0
2, 214481, Note_on_c, 0, 72, 71
2, 214486, Note_on_c, 0, 68, 60
2, 214552, Note_on_c, 0, 65, 0
2, 214616, Note_on_c, 0, 73, 0
2, 214663, Note_on_c, 0, 46, 0
2, 214854, Note_on_c, 0, 66, 59
2, 214858, Note_on_c, 0, 70, 74
2, 214899, Note_on_c, 0, 72, 0
2, 214964, Note_on_c, 0, 68, 0
2, 215016, Note_on_c, 0, 72, 79
2, 215041, Note_on_c, 0, 66, 0
2, 215053, Note_on_c, 0, 70, 0
2, 215186, Note_on_c, 0, 61, 76
2, 215195, Note_on_c, 0, 65, 65
2, 215197, Note_on_c, 0, 73, 70
2, 215211, Note_on_c, 0, 72, 0
2, 215352, Note_on_c, 0, 70, 73
2, 215386, Note_on_c, 0, 73, 0
2, 215543, Note_on_c, 0, 60, 46
2, 215543, Note_on_c, 0, 63, 54
2, 215551, Note_on_c, 0, 65, 0
2, 215574, Note_on_c, 0, 68, 61
2, 215576, Note_on_c, 0, 70, 0
2, 215656, Note_on_c, 0, 68, 0
2, 215668, Note_on_c, 0, 66, 65
2, 215694, Note_on_c, 0, 61, 0
2, 215734, Note_on_c, 0, 66, 0
2, 215749, Note_on_c, 0, 68, 70
2, 215808, Note_on_c, 0, 68, 0
2, 215809, Note_on_c, 0, 66, 73
2, 215880, Note_on_c, 0, 68, 80
2, 215881, Note_on_c, 0, 66, 0
2, 215900, Note_on_c, 0, 58, 65
2, 215900, Note_on_c, 0, 60, 0
2, 215951, Note_on_c, 0, 66, 72
2, 215951, Note_on_c, 0, 68, 0
2, 216024, Note_on_c, 0, 66, 0
2, 216027, Note_on_c, 0, 65, 72
2, 216104, Note_on_c, 0, 66, 81
2, 216147, Note_on_c, 0, 65, 0
2, 216156, Note_on_c, 0, 66, 0
2, 216211, Note_on_c, 0, 57, 59
2, 216211, Note_on_c, 0, 77, 96
2, 216221, Note_on_c, 0, 58, 0
2, 216221, Note_on_c, 0, 65, 73
2, 216520, Note_on_c, 0, 63, 0
2, 216556, Note_on_c, 0, 56, 53
2, 216575, Note_on_c, 0, 62, 75
2, 216586, Note_on_c, 0, 57, 0
2, 216608, Note_on_c, 0, 62, 0
2, 216721, Note_on_c, 0, 60, 73
2, 216759, Note_on_c, 0, 60, 0
2, 216943, Note_on_c, 0, 70, 84
2, 216960, Note_on_c, 0, 62, 52
2, 217113, Note_on_c, 0, 65, 0
2, 217137, Note_on_c, 0, 77, 0
2, 217297, Note_on_c, 0, 54, 69
2, 217313, Note_on_c, 0, 56, 0
2, 217353, Note_on_c, 0, 54, 0
2, 217456, Note_on_c, 0, 53, 68
2, 217496, Note_on_c, 0, 53, 0
2, 217684, Note_on_c, 0, 63, 76
2, 217686, Note_on_c, 0, 54, 52
2, 217716, Note_on_c, 0, 62, 0
2, 217765, Note_on_c, 0, 70, 0
2, 217768, Control_c, 0, 64, 44
2, 217784, Control_c, 0, 64, 64
2, 217799, Control_c, 0, 64, 73
2, 217814, Control_c, 0, 64, 119
2, 217830, Control_c, 0, 64, 127
2, 217839, Note_on_c, 0, 63, 0
2, 218028, Note_on_c, 0, 56, 62
2, 218035, Note_on_c, 0, 83, 91
2, 218286, Note_on_c, 0, 54, 0
2, 218409, Note_on_c, 0, 62, 59
2, 218411, Note_on_c, 0, 58, 64
2, 218413, Note_on_c, 0, 82, 96
2, 218468, Note_on_c, 0, 83, 0
2, 218476, Control_c, 0, 64, 94
2, 218484, Note_on_c, 0, 56, 0
2, 218490, Control_c, 0, 64, 77
2, 218506, Control_c, 0, 64, 64
2, 218521, Control_c, 0, 64, 40
2, 218536, Control_c, 0, 64, 0
2, 218778, Note_on_c, 0, 77, 101
2, 218781, Note_on_c, 0, 80, 81
2, 218871, Control_c, 0, 64, 63
2, 218882, Note_on_c, 0, 82, 0
2, 218886, Control_c, 0, 64, 87
2, 218901, Control_c, 0, 64, 127
2, 218924, Note_on_c, 0, 80, 0
2, 219155, Note_on_c, 0, 51, 77
2, 219158, Note_on_c, 0, 78, 94
2, 219162, Note_on_c, 0, 75, 99
2, 219199, Control_c, 0, 64, 89
2, 219205, Note_on_c, 0, 62, 0
2, 219207, Note_on_c, 0, 77, 0
2, 219213, Control_c, 0, 64, 69
2, 219218, Note_on_c, 0, 58, 0
2, 219229, Control_c, 0, 64, 39
2, 219244, Control_c, 0, 64, 0
2, 219381, Control_c, 0, 64, 52
2, 219396, Control_c, 0, 64, 62
2, 219410, Control_c, 0, 64, 69
2, 219426, Control_c, 0, 64, 99
2, 219441, Control_c, 0, 64, 127
2, 219441, Note_on_c, 0, 75, 0
2, 219529, Note_on_c, 0, 73, 87
2, 219538, Note_on_c, 0, 70, 75
2, 219674, Note_on_c, 0, 78, 0
2, 219819, Note_on_c, 0, 70, 0
2, 219840, Note_on_c, 0, 73, 0
2, 219879, Note_on_c, 0, 71, 84
2, 219887, Note_on_c, 0, 76, 88
2, 219890, Note_on_c, 0, 44, 61
2, 219895, Note_on_c, 0, 68, 74
2, 219897, Control_c, 0, 64, 88
2, 219921, Control_c, 0, 64, 66
2, 219936, Control_c, 0, 64, 47
2, 219951, Control_c, 0, 64, 20
2, 219966, Control_c, 0, 64, 0
2, 219973, Note_on_c, 0, 51, 0
2, 220121, Note_on_c, 0, 68, 0
2, 220254, Note_on_c, 0, 75, 84
2, 220264, Note_on_c, 0, 66, 64
2, 220301, Control_c, 0, 64, 30
2, 220315, Control_c, 0, 64, 59
2, 220330, Control_c, 0, 64, 66
2, 220346, Control_c, 0, 64, 82
2, 220361, Control_c, 0, 64, 127
2, 220383, Note_on_c, 0, 76, 0
2, 220481, Note_on_c, 0, 71, 0
2, 220519, Note_on_c, 0, 66, 0
2, 220628, Note_on_c, 0, 53, 80
2, 220636, Note_on_c, 0, 70, 71
2, 220636, Note_on_c, 0, 74, 80
2, 220640, Note_on_c, 0, 65, 70
2, 220688, Control_c, 0, 64, 96
2, 220701, Note_on_c, 0, 75, 0
2, 220704, Control_c, 0, 64, 80
2, 220719, Control_c, 0, 64, 69
2, 220734, Control_c, 0, 64, 62
2, 220749, Control_c, 0, 64, 55
2, 220764, Control_c, 0, 64, 47
2, 220779, Control_c, 0, 64, 36
2, 220795, Control_c, 0, 64, 9
2, 220810, Control_c, 0, 64, 0
2, 221006, Note_on_c, 0, 44, 0
2, 221016, Note_on_c, 0, 42, 77
2, 221181, Note_on_c, 0, 65, 0
2, 221382, Note_on_c, 0, 75, 86
2, 221385, Note_on_c, 0, 46, 74
2, 221387, Note_on_c, 0, 66, 75
2, 221395, Note_on_c, 0, 41, 67
2, 221445, Note_on_c, 0, 42, 0
2, 221468, Note_on_c, 0, 53, 0
2, 221587, Note_on_c, 0, 74, 0
2, 221764, Note_on_c, 0, 39, 68
2, 221794, Note_on_c, 0, 46, 0
2, 221808, Note_on_c, 0, 41, 0
2, 221895, Note_on_c, 0, 66, 0
2, 222137, Note_on_c, 0, 46, 66
2, 222147, Note_on_c, 0, 65, 67
2, 222172, Note_on_c, 0, 39, 0
2, 222524, Note_on_c, 0, 59, 80
2, 222811, Note_on_c, 0, 75, 0
2, 222885, Note_on_c, 0, 74, 80
2, 222894, Note_on_c, 0, 58, 72
2, 222951, Note_on_c, 0, 59, 0
2, 223256, Note_on_c, 0, 56, 75
2, 223274, Note_on_c, 0, 65, 0
2, 223308, Note_on_c, 0, 58, 0
2, 223356, Note_on_c, 0, 70, 0
2, 223649, Note_on_c, 0, 63, 63
2, 223649, Note_on_c, 0, 75, 75
2, 223652, Note_on_c, 0, 70, 68
2, 223657, Note_on_c, 0, 51, 53
2, 223671, Note_on_c, 0, 54, 51
2, 223738, Note_on_c, 0, 46, 0
2, 223799, Note_on_c, 0, 74, 0
2, 223832, Note_on_c, 0, 56, 0
2, 223990, Control_c, 0, 64, 25
2, 224004, Control_c, 0, 64, 41
2, 224020, Control_c, 0, 64, 50
2, 224035, Control_c, 0, 64, 55
2, 224050, Control_c, 0, 64, 59
2, 224056, Note_on_c, 0, 53, 63
2, 224066, Control_c, 0, 64, 62
2, 224075, Note_on_c, 0, 54, 0
2, 224081, Control_c, 0, 64, 64
2, 224097, Control_c, 0, 64, 66
2, 224111, Control_c, 0, 64, 69
2, 224116, Note_on_c, 0, 75, 0
2, 224126, Control_c, 0, 64, 72
2, 224142, Control_c, 0, 64, 74
2, 224157, Control_c, 0, 64, 74
2, 224166, Note_on_c, 0, 63, 0
2, 224247, Control_c, 0, 64, 74
2, 224263, Control_c, 0, 64, 73
2, 224278, Control_c, 0, 64, 72
2, 224309, Control_c, 0, 64, 71
2, 224323, Control_c, 0, 64, 70
2, 224339, Control_c, 0, 64, 69
2, 224354, Control_c, 0, 64, 67
2, 224369, Control_c, 0, 64, 66
2, 224384, Control_c, 0, 64, 65
2, 224399, Control_c, 0, 64, 64
2, 224415, Control_c, 0, 64, 63
2, 224424, Note_on_c, 0, 63, 53
2, 224429, Note_on_c, 0, 58, 44
2, 224430, Control_c, 0, 64, 62
2, 224431, Note_on_c, 0, 54, 44
2, 224445, Control_c, 0, 64, 62
2, 224460, Control_c, 0, 64, 61
2, 224475, Control_c, 0, 64, 60
2, 224482, Note_on_c, 0, 53, 0
2, 224490, Control_c, 0, 64, 59
2, 224506, Control_c, 0, 64, 58
2, 224521, Control_c, 0, 64, 58
2, 224544, Control_c, 0, 64, 57
2, 224559, Control_c, 0, 64, 57
2, 224575, Control_c, 0, 64, 56
2, 224589, Control_c, 0, 64, 56
2, 224600, Note_on_c, 0, 70, 0
2, 224604, Control_c, 0, 64, 55
2, 224620, Control_c, 0, 64, 54
2, 224635, Control_c, 0, 64, 54
2, 224665, Control_c, 0, 64, 53
2, 224680, Control_c, 0, 64, 52
2, 224711, Control_c, 0, 64, 52
2, 224742, Control_c, 0, 64, 51
2, 224756, Control_c, 0, 64, 51
2, 224788, Control_c, 0, 64, 50
2, 224799, Note_on_c, 0, 56, 45
2, 224803, Control_c, 0, 64, 50
2, 224809, Note_on_c, 0, 53, 41
2, 224848, Control_c, 0, 64, 49
2, 224848, Note_on_c, 0, 54, 0
2, 224864, Control_c, 0, 64, 49
2, 224895, Control_c, 0, 64, 48
2, 224909, Control_c, 0, 64, 48
2, 224924, Note_on_c, 0, 58, 0
2, 224954, Note_on_c, 0, 63, 0
2, 224955, Control_c, 0, 64, 47
2, 225001, Control_c, 0, 64, 47
2, 225046, Control_c, 0, 64, 46
2, 225091, Control_c, 0, 64, 46
2, 225138, Control_c, 0, 64, 45
2, 225164, Note_on_c, 0, 53, 0
2, 225183, Control_c, 0, 64, 45
2, 225198, Control_c, 0, 64, 44
2, 225199, Note_on_c, 0, 51, 0
2, 225202, Note_on_c, 0, 58, 36
2, 225206, Note_on_c, 0, 54, 39
2, 225228, Control_c, 0, 64, 44
2, 225250, Note_on_c, 0, 56, 0
2, 225259, Control_c, 0, 64, 43
2, 225274, Control_c, 0, 64, 43
2, 225312, Control_c, 0, 64, 42
2, 225327, Control_c, 0, 64, 41
2, 225344, Control_c, 0, 64, 41
2, 225375, Control_c, 0, 64, 40
2, 225400, Note_on_c, 0, 58, 0
2, 225404, Control_c, 0, 64, 39
2, 225420, Control_c, 0, 64, 39
2, 225434, Control_c, 0, 64, 38
2, 225449, Control_c, 0, 64, 36
2, 225465, Control_c, 0, 64, 35
2, 225480, Control_c, 0, 64, 33
2, 225496, Control_c, 0, 64, 32
2, 225510, Control_c, 0, 64, 31
2, 225525, Control_c, 0, 64, 29
2, 225541, Control_c, 0, 64, 25
2, 225556, Control_c, 0, 64, 22
2, 225571, Control_c, 0, 64, 19
2, 225577, Note_on_c, 0, 77, 57
2, 225579, Note_on_c, 0, 60, 41
2, 225580, Note_on_c, 0, 73, 47
2, 225586, Control_c, 0, 64, 17
2, 225602, Control_c, 0, 64, 12
2, 225618, Control_c, 0, 64, 0
2, 225638, Note_on_c, 0, 60, 0
2, 225742, Note_on_c, 0, 61, 48
2, 225803, Note_on_c, 0, 61, 0
2, 225979, Note_on_c, 0, 75, 54
2, 225980, Note_on_c, 0, 63, 40
2, 225980, Note_on_c, 0, 72, 41
2, 226089, Note_on_c, 0, 73, 0
2, 226090, Note_on_c, 0, 77, 0
2, 226359, Note_on_c, 0, 70, 46
2, 226364, Note_on_c, 0, 73, 53
2, 226435, Note_on_c, 0, 72, 0
2, 226450, Note_on_c, 0, 75, 0
2, 226737, Note_on_c, 0, 72, 47
2, 226746, Note_on_c, 0, 69, 37
2, 226808, Note_on_c, 0, 73, 0
2, 226844, Note_on_c, 0, 70, 0
2, 227120, Note_on_c, 0, 70, 49
2, 227123, Note_on_c, 0, 53, 28
2, 227128, Note_on_c, 0, 67, 41
2, 227141, Note_on_c, 0, 61, 30
2, 227209, Note_on_c, 0, 63, 0
2, 227258, Note_on_c, 0, 54, 0
2, 227264, Note_on_c, 0, 72, 0
2, 227292, Note_on_c, 0, 69, 0
2, 227484, Note_on_c, 0, 72, 63
2, 227486, Note_on_c, 0, 69, 55
2, 227502, Note_on_c, 0, 51, 43
2, 227511, Note_on_c, 0, 60, 41
2, 227536, Note_on_c, 0, 61, 0
2, 227547, Note_on_c, 0, 67, 0
2, 227563, Note_on_c, 0, 70, 0
2, 227604, Note_on_c, 0, 53, 0
2, 227847, Note_on_c, 0, 73, 64
2, 227858, Note_on_c, 0, 70, 61
2, 227864, Note_on_c, 0, 58, 45
2, 227871, Note_on_c, 0, 49, 38
2, 227939, Note_on_c, 0, 72, 0
2, 227943, Note_on_c, 0, 51, 0
2, 227987, Note_on_c, 0, 69, 0
2, 227998, Note_on_c, 0, 60, 0
2, 228248, Note_on_c, 0, 57, 38
2, 228248, Note_on_c, 0, 75, 67
2, 228260, Note_on_c, 0, 72, 57
2, 228265, Note_on_c, 0, 48, 33
2, 228353, Note_on_c, 0, 49, 0
2, 228377, Note_on_c, 0, 73, 0
2, 228383, Note_on_c, 0, 70, 0
2, 228399, Note_on_c, 0, 58, 0
2, 228520, Note_on_c, 0, 75, 0
2, 228625, Note_on_c, 0, 72, 0
2, 228629, Note_on_c, 0, 78, 67
2, 228636, Note_on_c, 0, 75, 63
2, 228642, Note_on_c, 0, 48, 0
2, 228646, Note_on_c, 0, 57, 0
2, 229018, Note_on_c, 0, 73, 47
2, 229021, Note_on_c, 0, 77, 56
2, 229028, Note_on_c, 0, 56, 34
2, 229046, Note_on_c, 0, 53, 18
2, 229117, Note_on_c, 0, 78, 0
2, 229195, Note_on_c, 0, 75, 0
2, 229407, Note_on_c, 0, 75, 55
2, 229411, Note_on_c, 0, 71, 39
2, 229487, Note_on_c, 0, 73, 0
2, 229549, Note_on_c, 0, 77, 0
2, 229765, Note_on_c, 0, 74, 42
2, 229767, Note_on_c, 0, 70, 45
2, 229793, Note_on_c, 0, 46, 29
2, 229844, Note_on_c, 0, 75, 0
2, 229882, Note_on_c, 0, 71, 0
2, 229971, Note_on_c, 0, 53, 0
2, 229984, Note_on_c, 0, 70, 0
2, 230038, Note_on_c, 0, 74, 0
2, 230150, Note_on_c, 0, 77, 59
2, 230162, Note_on_c, 0, 74, 51
2, 230528, Note_on_c, 0, 75, 55
2, 230530, Note_on_c, 0, 72, 52
2, 230531, Note_on_c, 0, 51, 39
2, 230536, Note_on_c, 0, 54, 39
2, 230586, Note_on_c, 0, 74, 0
2, 230779, Note_on_c, 0, 46, 0
2, 230795, Note_on_c, 0, 56, 0
2, 230807, Note_on_c, 0, 77, 0
2, 230896, Note_on_c, 0, 73, 56
2, 230902, Note_on_c, 0, 70, 56
2, 230942, Note_on_c, 0, 72, 0
2, 230985, Note_on_c, 0, 75, 0
2, 231298, Note_on_c, 0, 69, 44
2, 231299, Note_on_c, 0, 72, 62
2, 231416, Note_on_c, 0, 73, 0
2, 231417, Note_on_c, 0, 70, 0
2, 231701, Note_on_c, 0, 49, 38
2, 231701, Note_on_c, 0, 53, 51
2, 231737, Note_on_c, 0, 51, 0
2, 231786, Note_on_c, 0, 54, 0
2, 232054, Note_on_c, 0, 51, 51
2, 232061, Note_on_c, 0, 73, 65
2, 232067, Note_on_c, 0, 70, 59
2, 232075, Note_on_c, 0, 48, 42
2, 232151, Note_on_c, 0, 49, 0
2, 232192, Note_on_c, 0, 53, 0
2, 232250, Note_on_c, 0, 69, 0
2, 232280, Note_on_c, 0, 72, 0
2, 232443, Note_on_c, 0, 48, 0
2, 232451, Note_on_c, 0, 46, 45
2, 232458, Note_on_c, 0, 49, 49
2, 232512, Note_on_c, 0, 51, 0
2, 232812, Note_on_c, 0, 58, 39
2, 232825, Note_on_c, 0, 54, 52
2, 232830, Note_on_c, 0, 63, 69
2, 232906, Note_on_c, 0, 46, 0
2, 232938, Note_on_c, 0, 49, 0
2, 233201, Note_on_c, 0, 72, 67
2, 233508, Note_on_c, 0, 63, 0
2, 233579, Note_on_c, 0, 55, 60
2, 233582, Note_on_c, 0, 64, 54
2, 233620, Note_on_c, 0, 73, 0
2, 233690, Note_on_c, 0, 70, 0
2, 233755, Note_on_c, 0, 54, 0
2, 233760, Note_on_c, 0, 58, 0
2, 233966, Note_on_c, 0, 60, 49
2, 233971, Note_on_c, 0, 70, 62
2, 234078, Note_on_c, 0, 64, 0
2, 234099, Note_on_c, 0, 72, 0
2, 234345, Note_on_c, 0, 53, 18
2, 234348, Note_on_c, 0, 69, 52
2, 234351, Note_on_c, 0, 61, 36
2, 234352, Note_on_c, 0, 65, 38
2, 234397, Note_on_c, 0, 70, 0
2, 234479, Note_on_c, 0, 55, 0
2, 234494, Note_on_c, 0, 60, 0
2, 234507, Note_on_c, 0, 65, 0
2, 234574, Note_on_c, 0, 69, 0
2, 234723, Note_on_c, 0, 78, 70
2, 234738, Note_on_c, 0, 60, 44
2, 234742, Note_on_c, 0, 69, 44
2, 234827, Note_on_c, 0, 61, 0
2, 235091, Note_on_c, 0, 70, 70
2, 235094, Note_on_c, 0, 77, 85
2, 235100, Note_on_c, 0, 61, 65
2, 235146, Note_on_c, 0, 78, 0
2, 235216, Note_on_c, 0, 69, 0
2, 235299, Note_on_c, 0, 60, 0
2, 235466, Note_on_c, 0, 75, 83
2, 235474, Note_on_c, 0, 72, 75
2, 235480, Note_on_c, 0, 63, 71
2, 235564, Note_on_c, 0, 70, 0
2, 235575, Note_on_c, 0, 61, 0
2, 235614, Note_on_c, 0, 77, 0
2, 235631, Control_c, 0, 64, 33
2, 235645, Control_c, 0, 64, 51
2, 235661, Control_c, 0, 64, 61
2, 235676, Control_c, 0, 64, 68
2, 235691, Control_c, 0, 64, 80
2, 235707, Control_c, 0, 64, 127
2, 235715, Note_on_c, 0, 75, 0
2, 235851, Note_on_c, 0, 73, 78
2, 235870, Note_on_c, 0, 65, 56
2, 235908, Note_on_c, 0, 63, 0
2, 235935, Control_c, 0, 64, 115
2, 235950, Control_c, 0, 64, 88
2, 235964, Control_c, 0, 64, 75
2, 235980, Control_c, 0, 64, 66
2, 235995, Control_c, 0, 64, 56
2, 236010, Control_c, 0, 64, 43
2, 236026, Control_c, 0, 64, 38
2, 236096, Note_on_c, 0, 72, 0
2, 236109, Control_c, 0, 64, 39
2, 236124, Control_c, 0, 64, 46
2, 236139, Control_c, 0, 64, 57
2, 236154, Control_c, 0, 64, 63
2, 236169, Control_c, 0, 64, 69
2, 236185, Control_c, 0, 64, 83
2, 236200, Control_c, 0, 64, 127
2, 236221, Note_on_c, 0, 70, 87
2, 236362, Note_on_c, 0, 73, 0
2, 236595, Note_on_c, 0, 41, 76
2, 236603, Note_on_c, 0, 72, 94
2, 236702, Control_c, 0, 64, 106
2, 236717, Control_c, 0, 64, 90
2, 236732, Control_c, 0, 64, 80
2, 236748, Control_c, 0, 64, 73
2, 236762, Control_c, 0, 64, 67
2, 236778, Control_c, 0, 64, 61
2, 236784, Note_on_c, 0, 53, 0
2, 236793, Control_c, 0, 64, 55
2, 236808, Control_c, 0, 64, 51
2, 236831, Control_c, 0, 64, 50
2, 236846, Control_c, 0, 64, 49
2, 236863, Control_c, 0, 64, 47
2, 236878, Control_c, 0, 64, 46
2, 236894, Control_c, 0, 64, 45
2, 236908, Control_c, 0, 64, 45
2, 236923, Control_c, 0, 64, 44
2, 236939, Control_c, 0, 64, 43
2, 236953, Control_c, 0, 64, 42
2, 236968, Control_c, 0, 64, 42
2, 237026, Note_on_c, 0, 69, 83
2, 237044, Control_c, 0, 64, 41
2, 237108, Note_on_c, 0, 70, 0
2, 237228, Control_c, 0, 64, 41
2, 237528, Note_on_c, 0, 42, 72
2, 237531, Note_on_c, 0, 70, 80
2, 237662, Control_c, 0, 64, 40
2, 237719, Note_on_c, 0, 41, 0
2, 237722, Control_c, 0, 64, 40
2, 237724, Note_on_c, 0, 69, 0
2, 237731, Note_on_c, 0, 72, 0
2, 237767, Control_c, 0, 64, 39
2, 237999, Note_on_c, 0, 68, 74
2, 238057, Control_c, 0, 64, 41
2, 238072, Control_c, 0, 64, 47
2, 238087, Control_c, 0, 64, 53
2, 238102, Control_c, 0, 64, 59
2, 238117, Control_c, 0, 64, 63
2, 238132, Control_c, 0, 64, 68
2, 238148, Control_c, 0, 64, 83
2, 238163, Control_c, 0, 64, 127
2, 238361, Note_on_c, 0, 66, 67
2, 238367, Note_on_c, 0, 63, 63
2, 238383, Control_c, 0, 64, 106
2, 238398, Control_c, 0, 64, 85
2, 238414, Control_c, 0, 64, 72
2, 238414, Note_on_c, 0, 65, 0
2, 238429, Control_c, 0, 64, 62
2, 238444, Control_c, 0, 64, 45
2, 238460, Control_c, 0, 64, 41
2, 238475, Control_c, 0, 64, 43
2, 238490, Control_c, 0, 64, 50
2, 238506, Control_c, 0, 64, 56
2, 238520, Control_c, 0, 64, 61
2, 238536, Control_c, 0, 64, 66
2, 238551, Control_c, 0, 64, 70
2, 238566, Control_c, 0, 64, 80
2, 238582, Control_c, 0, 64, 100
2, 238596, Control_c, 0, 64, 127
2, 238601, Note_on_c, 0, 66, 0
2, 238687, Control_c, 0, 64, 119
2, 238703, Control_c, 0, 64, 101
2, 238714, Note_on_c, 0, 65, 69
2, 238716, Note_on_c, 0, 61, 60
2, 238719, Control_c, 0, 64, 87
2, 238735, Control_c, 0, 64, 76
2, 238749, Control_c, 0, 64, 68
2, 238764, Control_c, 0, 64, 60
2, 238768, Note_on_c, 0, 63, 0
2, 238771, Note_on_c, 0, 68, 0
2, 238780, Control_c, 0, 64, 49
2, 238795, Control_c, 0, 64, 44
2, 238856, Control_c, 0, 64, 45
2, 238870, Control_c, 0, 64, 51
2, 238885, Control_c, 0, 64, 58
2, 238901, Control_c, 0, 64, 64
2, 238916, Control_c, 0, 64, 68
2, 238931, Control_c, 0, 64, 75
2, 238946, Control_c, 0, 64, 89
2, 238946, Note_on_c, 0, 61, 0
2, 238961, Control_c, 0, 64, 127
2, 239105, Note_on_c, 0, 68, 78
2, 239116, Note_on_c, 0, 63, 50
2, 239132, Note_on_c, 0, 59, 55
2, 239137, Control_c, 0, 64, 99
2, 239152, Control_c, 0, 64, 85
2, 239154, Note_on_c, 0, 70, 0
2, 239165, Control_c, 0, 64, 77
2, 239181, Control_c, 0, 64, 72
2, 239196, Control_c, 0, 64, 67
2, 239211, Control_c, 0, 64, 61
2, 239227, Control_c, 0, 64, 50
2, 239242, Control_c, 0, 64, 41
2, 239258, Control_c, 0, 64, 41
2, 239273, Control_c, 0, 64, 40
2, 239283, Note_on_c, 0, 65, 0
2, 239287, Control_c, 0, 64, 37
2, 239303, Control_c, 0, 64, 27
2, 239318, Control_c, 0, 64, 0
2, 239319, Note_on_c, 0, 63, 0
2, 239440, Note_on_c, 0, 59, 0
2, 239492, Note_on_c, 0, 41, 53
2, 239500, Note_on_c, 0, 62, 70
2, 239569, Note_on_c, 0, 62, 0
2, 239576, Note_on_c, 0, 42, 0
2, 239676, Note_on_c, 0, 63, 74
2, 239740, Note_on_c, 0, 63, 0
2, 239899, Note_on_c, 0, 65, 72
2, 239907, Note_on_c, 0, 39, 53
2, 239937, Note_on_c, 0, 41, 0
2, 240258, Note_on_c, 0, 38, 55
2, 240323, Note_on_c, 0, 39, 0
2, 240360, Control_c, 0, 64, 11
2, 240376, Control_c, 0, 64, 30
2, 240391, Control_c, 0, 64, 42
2, 240406, Control_c, 0, 64, 50
2, 240422, Control_c, 0, 64, 54
2, 240425, Note_on_c, 0, 68, 0
2, 240436, Control_c, 0, 64, 57
2, 240451, Control_c, 0, 64, 60
2, 240467, Control_c, 0, 64, 63
2, 240482, Control_c, 0, 64, 67
2, 240498, Control_c, 0, 64, 74
2, 240512, Control_c, 0, 64, 81
2, 240527, Control_c, 0, 64, 85
2, 240543, Control_c, 0, 64, 86
2, 240557, Control_c, 0, 64, 86
2, 240572, Control_c, 0, 64, 85
2, 240588, Control_c, 0, 64, 84
2, 240603, Control_c, 0, 64, 83
2, 240619, Control_c, 0, 64, 82
2, 240633, Control_c, 0, 64, 81
2, 240648, Control_c, 0, 64, 78
2, 240652, Note_on_c, 0, 66, 64
2, 240667, Note_on_c, 0, 39, 44
2, 240667, Note_on_c, 0, 58, 50
2, 240672, Control_c, 0, 64, 76
2, 240687, Control_c, 0, 64, 72
2, 240704, Control_c, 0, 64, 69
2, 240718, Control_c, 0, 64, 67
2, 240734, Control_c, 0, 64, 65
2, 240749, Control_c, 0, 64, 62
2, 240763, Control_c, 0, 64, 59
2, 240764, Note_on_c, 0, 65, 0
2, 240779, Control_c, 0, 64, 55
2, 240794, Control_c, 0, 64, 51
2, 240799, Note_on_c, 0, 38, 0
2, 240809, Control_c, 0, 64, 49
2, 240825, Control_c, 0, 64, 48
2, 240839, Control_c, 0, 64, 47
2, 240855, Control_c, 0, 64, 46
2, 240870, Control_c, 0, 64, 43
2, 240885, Control_c, 0, 64, 41
2, 240900, Control_c, 0, 64, 39
2, 240915, Control_c, 0, 64, 37
2, 240930, Control_c, 0, 64, 37
2, 241037, Note_on_c, 0, 65, 61
2, 241044, Note_on_c, 0, 61, 49
2, 241052, Control_c, 0, 64, 38
2, 241068, Control_c, 0, 64, 41
2, 241082, Control_c, 0, 64, 44
2, 241098, Control_c, 0, 64, 47
2, 241113, Control_c, 0, 64, 52
2, 241128, Control_c, 0, 64, 55
2, 241137, Note_on_c, 0, 58, 0
2, 241144, Control_c, 0, 64, 58
2, 241159, Control_c, 0, 64, 61
2, 241175, Control_c, 0, 64, 63
2, 241190, Control_c, 0, 64, 66
2, 241205, Control_c, 0, 64, 71
2, 241221, Control_c, 0, 64, 80
2, 241236, Control_c, 0, 64, 96
2, 241250, Control_c, 0, 64, 127
2, 241402, Control_c, 0, 64, 109
2, 241418, Control_c, 0, 64, 100
2, 241434, Note_on_c, 0, 60, 50
2, 241437, Note_on_c, 0, 51, 64
2, 241438, Note_on_c, 0, 63, 54
2, 241440, Control_c, 0, 64, 93
2, 241456, Control_c, 0, 64, 88
2, 241471, Control_c, 0, 64, 83
2, 241477, Note_on_c, 0, 39, 0
2, 241486, Control_c, 0, 64, 78
2, 241502, Control_c, 0, 64, 74
2, 241517, Control_c, 0, 64, 71
2, 241520, Note_on_c, 0, 65, 0
2, 241531, Control_c, 0, 64, 69
2, 241537, Note_on_c, 0, 61, 0
2, 241547, Control_c, 0, 64, 67
2, 241562, Control_c, 0, 64, 65
2, 241578, Control_c, 0, 64, 64
2, 241593, Control_c, 0, 64, 62
2, 241607, Control_c, 0, 64, 59
2, 241623, Control_c, 0, 64, 57
2, 241638, Control_c, 0, 64, 56
2, 241654, Control_c, 0, 64, 55
2, 241669, Control_c, 0, 64, 54
2, 241683, Control_c, 0, 64, 53
2, 241699, Control_c, 0, 64, 52
2, 241714, Control_c, 0, 64, 51
2, 241729, Control_c, 0, 64, 50
2, 241744, Control_c, 0, 64, 50
2, 241759, Control_c, 0, 64, 49
2, 241775, Control_c, 0, 64, 48
2, 241790, Control_c, 0, 64, 48
2, 241805, Control_c, 0, 64, 47
2, 241820, Control_c, 0, 64, 47
2, 241825, Note_on_c, 0, 61, 52
2, 241829, Note_on_c, 0, 58, 45
2, 241850, Control_c, 0, 64, 46
2, 241866, Control_c, 0, 64, 46
2, 241881, Control_c, 0, 64, 45
2, 241896, Control_c, 0, 64, 45
2, 241911, Control_c, 0, 64, 44
2, 241915, Note_on_c, 0, 63, 0
2, 241924, Note_on_c, 0, 60, 0
2, 241926, Control_c, 0, 64, 44
2, 241942, Control_c, 0, 64, 43
2, 241957, Control_c, 0, 64, 43
2, 241988, Control_c, 0, 64, 42
2, 242019, Control_c, 0, 64, 42
2, 242034, Control_c, 0, 64, 41
2, 242048, Control_c, 0, 64, 41
2, 242064, Control_c, 0, 64, 40
2, 242095, Control_c, 0, 64, 40
2, 242141, Control_c, 0, 64, 39
2, 242206, Note_on_c, 0, 65, 58
2, 242208, Control_c, 0, 64, 39
2, 242209, Note_on_c, 0, 60, 44
2, 242210, Note_on_c, 0, 57, 35
2, 242270, Note_on_c, 0, 61, 0
2, 242286, Control_c, 0, 64, 38
2, 242317, Note_on_c, 0, 58, 0
2, 242348, Control_c, 0, 64, 38
2, 242424, Control_c, 0, 64, 37
2, 242454, Control_c, 0, 64, 37
2, 242469, Control_c, 0, 64, 36
2, 242480, Note_on_c, 0, 66, 0
2, 242484, Control_c, 0, 64, 36
2, 242500, Control_c, 0, 64, 35
2, 242515, Control_c, 0, 64, 34
2, 242530, Control_c, 0, 64, 34
2, 242545, Control_c, 0, 64, 33
2, 242560, Control_c, 0, 64, 32
2, 242576, Control_c, 0, 64, 30
2, 242586, Note_on_c, 0, 49, 35
2, 242586, Note_on_c, 0, 63, 46
2, 242590, Control_c, 0, 64, 30
2, 242605, Control_c, 0, 64, 29
2, 242608, Note_on_c, 0, 51, 0
2, 242621, Control_c, 0, 64, 28
2, 242631, Note_on_c, 0, 49, 0
2, 242635, Note_on_c, 0, 60, 0
2, 242636, Control_c, 0, 64, 27
2, 242652, Control_c, 0, 64, 26
2, 242666, Control_c, 0, 64, 25
2, 242681, Control_c, 0, 64, 24
2, 242697, Control_c, 0, 64, 24
2, 242712, Control_c, 0, 64, 23
2, 242748, Note_on_c, 0, 48, 42
2, 242779, Note_on_c, 0, 48, 0
2, 242959, Note_on_c, 0, 70, 64
2, 242973, Note_on_c, 0, 58, 43
2, 242978, Note_on_c, 0, 49, 29
2, 242979, Control_c, 0, 64, 24
2, 243009, Control_c, 0, 64, 25
2, 243023, Control_c, 0, 64, 27
2, 243038, Control_c, 0, 64, 28
2, 243044, Note_on_c, 0, 63, 0
2, 243054, Control_c, 0, 64, 30
2, 243069, Control_c, 0, 64, 31
2, 243084, Control_c, 0, 64, 33
2, 243088, Note_on_c, 0, 57, 0
2, 243100, Control_c, 0, 64, 34
2, 243115, Control_c, 0, 64, 37
2, 243131, Control_c, 0, 64, 39
2, 243146, Control_c, 0, 64, 40
2, 243161, Control_c, 0, 64, 41
2, 243176, Control_c, 0, 64, 42
2, 243191, Control_c, 0, 64, 43
2, 243206, Control_c, 0, 64, 44
2, 243221, Control_c, 0, 64, 45
2, 243236, Control_c, 0, 64, 46
2, 243252, Control_c, 0, 64, 47
2, 243267, Control_c, 0, 64, 48
2, 243282, Control_c, 0, 64, 48
2, 243297, Control_c, 0, 64, 49
2, 243312, Control_c, 0, 64, 51
2, 243328, Control_c, 0, 64, 53
2, 243337, Note_on_c, 0, 51, 40
2, 243338, Note_on_c, 0, 61, 50
2, 243343, Control_c, 0, 64, 54
2, 243358, Control_c, 0, 64, 56
2, 243373, Control_c, 0, 64, 58
2, 243388, Control_c, 0, 64, 60
2, 243403, Control_c, 0, 64, 63
2, 243418, Note_on_c, 0, 65, 0
2, 243419, Control_c, 0, 64, 65
2, 243433, Control_c, 0, 64, 68
2, 243449, Control_c, 0, 64, 76
2, 243464, Control_c, 0, 64, 93
2, 243479, Control_c, 0, 64, 127
2, 243716, Note_on_c, 0, 65, 71
2, 243718, Note_on_c, 0, 57, 41
2, 243722, Note_on_c, 0, 53, 37
2, 243738, Note_on_c, 0, 60, 39
2, 243792, Control_c, 0, 64, 110
2, 243808, Control_c, 0, 64, 97
2, 243822, Control_c, 0, 64, 86
2, 243837, Control_c, 0, 64, 77
2, 243853, Control_c, 0, 64, 69
2, 243858, Note_on_c, 0, 61, 0
2, 243867, Control_c, 0, 64, 63
2, 243878, Note_on_c, 0, 51, 0
2, 243882, Control_c, 0, 64, 55
2, 243888, Note_on_c, 0, 70, 0
2, 243889, Note_on_c, 0, 58, 0
2, 243895, Note_on_c, 0, 49, 0
2, 243898, Control_c, 0, 64, 49
2, 243913, Control_c, 0, 64, 48
2, 244004, Control_c, 0, 64, 48
2, 244020, Control_c, 0, 64, 51
2, 244035, Control_c, 0, 64, 54
2, 244051, Control_c, 0, 64, 57
2, 244065, Control_c, 0, 64, 61
2, 244080, Control_c, 0, 64, 64
2, 244094, Note_on_c, 0, 51, 57
2, 244096, Control_c, 0, 64, 66
2, 244111, Control_c, 0, 64, 71
2, 244126, Control_c, 0, 64, 78
2, 244141, Control_c, 0, 64, 96
2, 244156, Control_c, 0, 64, 127
2, 244180, Note_on_c, 0, 60, 0
2, 244192, Note_on_c, 0, 53, 0
2, 244336, Note_on_c, 0, 57, 0
2, 244454, Note_on_c, 0, 58, 76
2, 244470, Note_on_c, 0, 49, 44
2, 244476, Control_c, 0, 64, 102
2, 244492, Control_c, 0, 64, 81
2, 244514, Control_c, 0, 64, 67
2, 244519, Note_on_c, 0, 51, 0
2, 244530, Control_c, 0, 64, 56
2, 244546, Control_c, 0, 64, 42
2, 244558, Note_on_c, 0, 65, 0
2, 244561, Control_c, 0, 64, 43
2, 244577, Control_c, 0, 64, 50
2, 244591, Control_c, 0, 64, 57
2, 244606, Control_c, 0, 64, 62
2, 244622, Control_c, 0, 64, 66
2, 244637, Control_c, 0, 64, 72
2, 244653, Control_c, 0, 64, 88
2, 244657, Note_on_c, 0, 58, 0
2, 244667, Control_c, 0, 64, 127
2, 244836, Note_on_c, 0, 78, 83
2, 244839, Note_on_c, 0, 48, 56
2, 244936, Note_on_c, 0, 49, 0
2, 245197, Note_on_c, 0, 53, 79
2, 245211, Note_on_c, 0, 77, 78
2, 245219, Note_on_c, 0, 73, 62
2, 245220, Note_on_c, 0, 49, 61
2, 245229, Control_c, 0, 64, 107
2, 245243, Control_c, 0, 64, 98
2, 245259, Control_c, 0, 64, 91
2, 245274, Note_on_c, 0, 78, 0
2, 245283, Control_c, 0, 64, 84
2, 245298, Control_c, 0, 64, 76
2, 245312, Note_on_c, 0, 48, 0
2, 245313, Control_c, 0, 64, 69
2, 245329, Control_c, 0, 64, 64
2, 245342, Control_c, 0, 64, 60
2, 245357, Control_c, 0, 64, 56
2, 245372, Control_c, 0, 64, 54
2, 245388, Control_c, 0, 64, 51
2, 245402, Control_c, 0, 64, 46
2, 245418, Control_c, 0, 64, 40
2, 245433, Control_c, 0, 64, 33
2, 245448, Control_c, 0, 64, 24
2, 245464, Control_c, 0, 64, 12
2, 245478, Control_c, 0, 64, 0
2, 245577, Note_on_c, 0, 45, 64
2, 245577, Note_on_c, 0, 49, 0
2, 245585, Note_on_c, 0, 72, 72
2, 245585, Note_on_c, 0, 75, 80
2, 245625, Note_on_c, 0, 73, 0
2, 245953, Note_on_c, 0, 46, 74
2, 245955, Note_on_c, 0, 73, 79
2, 245957, Note_on_c, 0, 70, 71
2, 245957, Note_on_c, 0, 77, 0
2, 246068, Note_on_c, 0, 72, 0
2, 246085, Note_on_c, 0, 53, 0
2, 246090, Note_on_c, 0, 45, 0
2, 246108, Note_on_c, 0, 75, 0
2, 246234, Note_on_c, 0, 70, 0
2, 246329, Note_on_c, 0, 72, 84
2, 246330, Note_on_c, 0, 69, 59
2, 246331, Note_on_c, 0, 66, 69
2, 246394, Note_on_c, 0, 73, 0
2, 246442, Control_c, 0, 64, 21
2, 246458, Control_c, 0, 64, 40
2, 246473, Control_c, 0, 64, 51
2, 246488, Control_c, 0, 64, 59
2, 246504, Control_c, 0, 64, 65
2, 246518, Control_c, 0, 64, 71
2, 246533, Control_c, 0, 64, 90
2, 246549, Control_c, 0, 64, 127
2, 246551, Note_on_c, 0, 72, 0
2, 246565, Note_on_c, 0, 66, 0
2, 246692, Note_on_c, 0, 41, 74
2, 246695, Note_on_c, 0, 46, 0
2, 246701, Control_c, 0, 64, 117
2, 246703, Note_on_c, 0, 70, 72
2, 246706, Note_on_c, 0, 73, 81
2, 246713, Note_on_c, 0, 65, 70
2, 246716, Control_c, 0, 64, 88
2, 246730, Control_c, 0, 64, 73
2, 246745, Note_on_c, 0, 69, 0
2, 246746, Control_c, 0, 64, 61
2, 246761, Control_c, 0, 64, 40
2, 246777, Control_c, 0, 64, 0
2, 246860, Control_c, 0, 64, 32
2, 246875, Control_c, 0, 64, 59
2, 246880, Note_on_c, 0, 41, 0
2, 246890, Control_c, 0, 64, 67
2, 246891, Note_on_c, 0, 65, 0
2, 246907, Control_c, 0, 64, 79
2, 246922, Control_c, 0, 64, 127
2, 246933, Note_on_c, 0, 73, 0
2, 246941, Note_on_c, 0, 70, 0
2, 247075, Note_on_c, 0, 75, 92
2, 247078, Note_on_c, 0, 60, 75
2, 247084, Note_on_c, 0, 69, 72
2, 247089, Note_on_c, 0, 63, 75
2, 247119, Control_c, 0, 64, 107
2, 247135, Control_c, 0, 64, 87
2, 247150, Control_c, 0, 64, 74
2, 247164, Control_c, 0, 64, 67
2, 247180, Control_c, 0, 64, 62
2, 247194, Note_on_c, 0, 69, 0
2, 247195, Control_c, 0, 64, 59
2, 247210, Control_c, 0, 64, 56
2, 247226, Control_c, 0, 64, 52
2, 247240, Control_c, 0, 64, 50
2, 247256, Control_c, 0, 64, 47
2, 247271, Control_c, 0, 64, 44
2, 247286, Control_c, 0, 64, 42
2, 247302, Control_c, 0, 64, 40
2, 247314, Note_on_c, 0, 63, 0
2, 247317, Control_c, 0, 64, 39
2, 247331, Control_c, 0, 64, 36
2, 247347, Control_c, 0, 64, 33
2, 247362, Control_c, 0, 64, 30
2, 247378, Control_c, 0, 64, 25
2, 247393, Control_c, 0, 64, 19
2, 247408, Control_c, 0, 64, 0
2, 247441, Note_on_c, 0, 61, 69
2, 247442, Note_on_c, 0, 58, 67
2, 247442, Note_on_c, 0, 77, 88
2, 247445, Note_on_c, 0, 70, 76
2, 247482, Note_on_c, 0, 75, 0
2, 247519, Note_on_c, 0, 60, 0
2, 247803, Note_on_c, 0, 60, 84
2, 247812, Note_on_c, 0, 54, 71
2, 247815, Note_on_c, 0, 57, 64
2, 247815, Note_on_c, 0, 75, 82
2, 247818, Note_on_c, 0, 72, 84
2, 247843, Note_on_c, 0, 61, 0
2, 247843, Note_on_c, 0, 70, 0
2, 247855, Note_on_c, 0, 58, 0
2, 247858, Note_on_c, 0, 77, 0
2, 248077, Note_on_c, 0, 54, 0
2, 248082, Note_on_c, 0, 72, 0
2, 248125, Note_on_c, 0, 57, 0
2, 248172, Note_on_c, 0, 73, 85
2, 248173, Note_on_c, 0, 70, 77
2, 248174, Note_on_c, 0, 58, 74
2, 248178, Note_on_c, 0, 61, 75
2, 248180, Note_on_c, 0, 75, 0
2, 248183, Note_on_c, 0, 53, 68
2, 248228, Note_on_c, 0, 60, 0
2, 248250, Note_on_c, 0, 70, 0
2, 248279, Note_on_c, 0, 73, 0
2, 248343, Note_on_c, 0, 58, 0
2, 248357, Note_on_c, 0, 63, 89
2, 248385, Note_on_c, 0, 61, 0
2, 248440, Note_on_c, 0, 63, 0
2, 248556, Note_on_c, 0, 65, 84
2, 248559, Note_on_c, 0, 51, 71
2, 248563, Note_on_c, 0, 72, 88
2, 248567, Note_on_c, 0, 69, 73
2, 248568, Note_on_c, 0, 60, 67
2, 248587, Note_on_c, 0, 53, 0
2, 248699, Control_c, 0, 64, 50
2, 248715, Control_c, 0, 64, 64
2, 248729, Control_c, 0, 64, 78
2, 248745, Control_c, 0, 64, 127
2, 248768, Note_on_c, 0, 60, 0
2, 248837, Note_on_c, 0, 72, 0
2, 248944, Note_on_c, 0, 51, 0
2, 248948, Note_on_c, 0, 49, 66
2, 248949, Note_on_c, 0, 61, 70
2, 248949, Note_on_c, 0, 70, 88
2, 249002, Control_c, 0, 64, 82
2, 249017, Control_c, 0, 64, 61
2, 249018, Note_on_c, 0, 69, 0
2, 249033, Control_c, 0, 64, 0
2, 249351, Note_on_c, 0, 48, 62
2, 249354, Note_on_c, 0, 66, 80
2, 249361, Note_on_c, 0, 63, 75
2, 249399, Note_on_c, 0, 49, 0
2, 249424, Note_on_c, 0, 65, 0
2, 249476, Note_on_c, 0, 61, 0
2, 249803, Note_on_c, 0, 50, 60
2, 249811, Note_on_c, 0, 58, 56
2, 249818, Note_on_c, 0, 65, 68
2, 249818, Note_on_c, 0, 68, 78
2, 249897, Note_on_c, 0, 66, 0
2, 249911, Note_on_c, 0, 63, 0
2, 249975, Control_c, 0, 64, 45
2, 249991, Control_c, 0, 64, 61
2, 250002, Note_on_c, 0, 48, 0
2, 250006, Control_c, 0, 64, 72
2, 250022, Control_c, 0, 64, 100
2, 250036, Control_c, 0, 64, 127
2, 250076, Note_on_c, 0, 70, 0
2, 250078, Note_on_c, 0, 65, 0
2, 250211, Note_on_c, 0, 72, 86
2, 250214, Note_on_c, 0, 66, 72
2, 250218, Note_on_c, 0, 63, 77
2, 250224, Note_on_c, 0, 51, 73
2, 250235, Control_c, 0, 64, 117
2, 250243, Note_on_c, 0, 68, 0
2, 250250, Control_c, 0, 64, 90
2, 250265, Control_c, 0, 64, 74
2, 250280, Control_c, 0, 64, 60
2, 250289, Note_on_c, 0, 58, 0
2, 250295, Control_c, 0, 64, 29
2, 250311, Control_c, 0, 64, 0
2, 250360, Note_on_c, 0, 50, 0
2, 250536, Note_on_c, 0, 63, 0
2, 250537, Note_on_c, 0, 66, 0
2, 250615, Note_on_c, 0, 53, 77
2, 250626, Note_on_c, 0, 73, 91
2, 250631, Note_on_c, 0, 65, 76
2, 250642, Note_on_c, 0, 61, 76
2, 250654, Note_on_c, 0, 51, 0
2, 250692, Note_on_c, 0, 72, 0
2, 250772, Note_on_c, 0, 53, 0
2, 250828, Note_on_c, 0, 54, 85
2, 250894, Note_on_c, 0, 54, 0
2, 251028, Note_on_c, 0, 52, 91
2, 251096, Note_on_c, 0, 52, 0
2, 251158, Note_on_c, 0, 65, 0
2, 251218, Note_on_c, 0, 53, 93
2, 251279, Note_on_c, 0, 53, 0
2, 251490, Note_on_c, 0, 40, 76
2, 251499, Note_on_c, 0, 67, 88
2, 251549, Note_on_c, 0, 61, 0
2, 251569, Note_on_c, 0, 73, 0
2, 251923, Note_on_c, 0, 73, 89
2, 252189, Control_c, 0, 64, 9
2, 252204, Control_c, 0, 64, 17
2, 252219, Control_c, 0, 64, 20
2, 252234, Control_c, 0, 64, 21
2, 252337, Note_on_c, 0, 60, 88
2, 252337, Note_on_c, 0, 72, 87
2, 252392, Note_on_c, 0, 73, 0
2, 252458, Note_on_c, 0, 67, 0
2, 252722, Note_on_c, 0, 70, 87
2, 252783, Control_c, 0, 64, 21
2, 252797, Control_c, 0, 64, 28
2, 252812, Control_c, 0, 64, 38
2, 252828, Control_c, 0, 64, 46
2, 252843, Control_c, 0, 64, 54
2, 252858, Control_c, 0, 64, 61
2, 252873, Control_c, 0, 64, 66
2, 252888, Control_c, 0, 64, 74
2, 252904, Control_c, 0, 64, 92
2, 252919, Control_c, 0, 64, 127
2, 253004, Note_on_c, 0, 70, 0
2, 253010, Note_on_c, 0, 60, 0
2, 253186, Note_on_c, 0, 70, 90
2, 253188, Note_on_c, 0, 60, 81
2, 253188, Note_on_c, 0, 65, 78
2, 253192, Note_on_c, 0, 41, 69
2, 253215, Control_c, 0, 64, 111
2, 253231, Control_c, 0, 64, 94
2, 253246, Control_c, 0, 64, 86
2, 253262, Control_c, 0, 64, 81
2, 253276, Control_c, 0, 64, 77
2, 253293, Control_c, 0, 64, 73
2, 253298, Note_on_c, 0, 40, 0
2, 253309, Control_c, 0, 64, 69
2, 253324, Control_c, 0, 64, 66
2, 253340, Control_c, 0, 64, 63
2, 253355, Control_c, 0, 64, 61
2, 253370, Control_c, 0, 64, 58
2, 253386, Control_c, 0, 64, 55
2, 253401, Control_c, 0, 64, 52
2, 253416, Control_c, 0, 64, 50
2, 253420, Note_on_c, 0, 72, 0
2, 253431, Control_c, 0, 64, 46
2, 253446, Control_c, 0, 64, 43
2, 253462, Control_c, 0, 64, 41
2, 253477, Control_c, 0, 64, 39
2, 253492, Control_c, 0, 64, 36
2, 253508, Control_c, 0, 64, 33
2, 253523, Control_c, 0, 64, 31
2, 253539, Control_c, 0, 64, 30
2, 253554, Control_c, 0, 64, 29
2, 253568, Control_c, 0, 64, 28
2, 253584, Control_c, 0, 64, 27
2, 253599, Control_c, 0, 64, 26
2, 253615, Control_c, 0, 64, 25
2, 253642, Note_on_c, 0, 66, 85
2, 253644, Control_c, 0, 64, 25
2, 253788, Control_c, 0, 64, 25
2, 253803, Control_c, 0, 64, 26
2, 253819, Control_c, 0, 64, 31
2, 253834, Control_c, 0, 64, 37
2, 253836, Note_on_c, 0, 65, 0
2, 253843, Note_on_c, 0, 70, 0
2, 253848, Control_c, 0, 64, 47
2, 253864, Control_c, 0, 64, 55
2, 253879, Control_c, 0, 64, 62
2, 253895, Control_c, 0, 64, 66
2, 253910, Control_c, 0, 64, 75
2, 253924, Control_c, 0, 64, 90
2, 253940, Control_c, 0, 64, 110
2, 253955, Control_c, 0, 64, 127
2, 254145, Note_on_c, 0, 69, 82
2, 254146, Note_on_c, 0, 65, 79
2, 254151, Note_on_c, 0, 53, 73
2, 254153, Control_c, 0, 64, 113
2, 254168, Control_c, 0, 64, 102
2, 254183, Control_c, 0, 64, 91
2, 254198, Control_c, 0, 64, 81
2, 254203, Note_on_c, 0, 66, 0
2, 254213, Control_c, 0, 64, 74
2, 254229, Control_c, 0, 64, 70
2, 254244, Control_c, 0, 64, 67
2, 254259, Control_c, 0, 64, 65
2, 254275, Control_c, 0, 64, 63
2, 254290, Control_c, 0, 64, 59
2, 254297, Note_on_c, 0, 60, 0
2, 254306, Control_c, 0, 64, 57
2, 254321, Control_c, 0, 64, 55
2, 254337, Control_c, 0, 64, 53
2, 254352, Control_c, 0, 64, 51
2, 254366, Control_c, 0, 64, 49
2, 254382, Control_c, 0, 64, 46
2, 254397, Control_c, 0, 64, 45
2, 254411, Control_c, 0, 64, 44
2, 254427, Control_c, 0, 64, 42
2, 254442, Control_c, 0, 64, 40
2, 254458, Control_c, 0, 64, 38
2, 254473, Control_c, 0, 64, 35
2, 254496, Control_c, 0, 64, 33
2, 254511, Control_c, 0, 64, 30
2, 254526, Control_c, 0, 64, 27
2, 254541, Control_c, 0, 64, 24
2, 254556, Control_c, 0, 64, 23
2, 254571, Control_c, 0, 64, 22
2, 254587, Control_c, 0, 64, 21
2, 254602, Control_c, 0, 64, 20
2, 254617, Control_c, 0, 64, 19
2, 254632, Control_c, 0, 64, 17
2, 254647, Control_c, 0, 64, 16
2, 254663, Control_c, 0, 64, 13
2, 254678, Control_c, 0, 64, 12
2, 254692, Control_c, 0, 64, 11
2, 254712, Note_on_c, 0, 63, 67
2, 254758, Note_on_c, 0, 65, 0
2, 254875, Control_c, 0, 64, 12
2, 254936, Control_c, 0, 64, 13
2, 254966, Control_c, 0, 64, 15
2, 254982, Control_c, 0, 64, 16
2, 254997, Control_c, 0, 64, 17
2, 255027, Control_c, 0, 64, 17
2, 255058, Control_c, 0, 64, 19
2, 255073, Control_c, 0, 64, 20
2, 255088, Control_c, 0, 64, 21
2, 255165, Control_c, 0, 64, 21
2, 255226, Control_c, 0, 64, 22
2, 255241, Control_c, 0, 64, 23
2, 255258, Note_on_c, 0, 63, 0
2, 255263, Control_c, 0, 64, 23
2, 255287, Note_on_c, 0, 41, 0
2, 255324, Control_c, 0, 64, 24
2, 255385, Control_c, 0, 64, 24
2, 255446, Control_c, 0, 64, 25
2, 255522, Control_c, 0, 64, 25
2, 255537, Control_c, 0, 64, 26
2, 255597, Control_c, 0, 64, 26
2, 255612, Control_c, 0, 64, 27
2, 255628, Control_c, 0, 64, 27
2, 255637, Note_on_c, 0, 58, 51
2, 255639, Note_on_c, 0, 62, 50
2, 255646, Note_on_c, 0, 70, 61
2, 255656, Note_on_c, 0, 46, 31
2, 255658, Control_c, 0, 64, 28
2, 255673, Control_c, 0, 64, 28
2, 255688, Control_c, 0, 64, 29
2, 255861, Note_on_c, 0, 69, 0
2, 256138, Control_c, 0, 64, 29
2, 256213, Control_c, 0, 64, 30
2, 256275, Control_c, 0, 64, 30
2, 256289, Control_c, 0, 64, 31
2, 256305, Control_c, 0, 64, 32
2, 256366, Control_c, 0, 64, 33
2, 256381, Control_c, 0, 64, 34
2, 256396, Control_c, 0, 64, 35
2, 256487, Control_c, 0, 64, 36
2, 256532, Control_c, 0, 64, 36
2, 256579, Control_c, 0, 64, 37
2, 256624, Control_c, 0, 64, 37
2, 256638, Control_c, 0, 64, 38
2, 256669, Control_c, 0, 64, 38
2, 256715, Control_c, 0, 64, 39
2, 256815, Control_c, 0, 64, 39
2, 259466, Note_on_c, 0, 62, 0
2, 259479, Note_on_c, 0, 53, 0
2, 259485, Note_on_c, 0, 46, 0
2, 259493, Note_on_c, 0, 58, 0
2, 259543, Note_on_c, 0, 70, 0
2, 259544, End_track
0, 0, End_of_file
