0, 0, Header, 1, 2, 384
1, 0, Start_track
1, 0, Tempo, 500000
1, 0, Time_signature, 4, 2, 24, 8
1, 1, End_track
2, 0, Start_track
2, 0, Title_t," ""Dupree04-07.MID"""
2, 0, Program_c, 0, 0
2, 0, Control_c, 0, 64, 0
2, 822, Note_on_c, 0, 73, 50
2, 836, Note_on_c, 0, 46, 34
2, 981, Note_on_c, 0, 72, 58
2, 1054, Note_on_c, 0, 73, 0
2, 1140, Note_on_c, 0, 70, 62
2, 1148, Note_on_c, 0, 72, 0
2, 1269, Note_on_c, 0, 70, 0
2, 1285, Note_on_c, 0, 69, 61
2, 1398, Note_on_c, 0, 69, 0
2, 1418, Note_on_c, 0, 46, 0
2, 1455, Note_on_c, 0, 70, 61
2, 1473, Note_on_c, 0, 58, 46
2, 1714, Note_on_c, 0, 70, 0
2, 1793, Note_on_c, 0, 65, 55
2, 2012, Note_on_c, 0, 65, 0
2, 2082, Note_on_c, 0, 66, 58
2, 2320, Note_on_c, 0, 66, 0
2, 2411, Note_on_c, 0, 63, 60
2, 2628, Note_on_c, 0, 63, 0
2, 2714, Note_on_c, 0, 57, 45
2, 2725, Note_on_c, 0, 58, 0
2, 2726, Note_on_c, 0, 60, 54
2, 2873, Control_c, 0, 64, 33
2, 2889, Control_c, 0, 64, 52
2, 2904, Control_c, 0, 64, 54
2, 2934, Control_c, 0, 64, 54
2, 2934, Note_on_c, 0, 60, 0
2, 2949, Control_c, 0, 64, 52
2, 2964, Control_c, 0, 64, 49
2, 2980, Control_c, 0, 64, 36
2, 2995, Control_c, 0, 64, 0
2, 3048, Note_on_c, 0, 65, 56
2, 3156, Control_c, 0, 64, 55
2, 3171, Control_c, 0, 64, 64
2, 3186, Control_c, 0, 64, 66
2, 3201, Control_c, 0, 64, 67
2, 3217, Control_c, 0, 64, 68
2, 3232, Control_c, 0, 64, 69
2, 3246, Control_c, 0, 64, 69
2, 3269, Note_on_c, 0, 65, 0
2, 3277, Control_c, 0, 64, 68
2, 3292, Control_c, 0, 64, 64
2, 3307, Control_c, 0, 64, 44
2, 3310, Note_on_c, 0, 57, 0
2, 3322, Control_c, 0, 64, 0
2, 3343, Note_on_c, 0, 61, 57
2, 3364, Note_on_c, 0, 58, 38
2, 3447, Control_c, 0, 64, 37
2, 3462, Control_c, 0, 64, 64
2, 3477, Control_c, 0, 64, 68
2, 3492, Control_c, 0, 64, 72
2, 3507, Control_c, 0, 64, 75
2, 3513, Note_on_c, 0, 56, 51
2, 3516, Note_on_c, 0, 58, 0
2, 3523, Control_c, 0, 64, 77
2, 3538, Control_c, 0, 64, 78
2, 3583, Control_c, 0, 64, 77
2, 3598, Control_c, 0, 64, 73
2, 3614, Control_c, 0, 64, 65
2, 3629, Control_c, 0, 64, 0
2, 3637, Note_on_c, 0, 61, 0
2, 3646, Note_on_c, 0, 56, 0
2, 3659, Note_on_c, 0, 58, 59
2, 3671, Note_on_c, 0, 54, 43
2, 3719, Control_c, 0, 64, 40
2, 3735, Control_c, 0, 64, 65
2, 3750, Control_c, 0, 64, 70
2, 3773, Control_c, 0, 64, 74
2, 3785, Note_on_c, 0, 54, 0
2, 3788, Control_c, 0, 64, 77
2, 3797, Note_on_c, 0, 58, 0
2, 3804, Control_c, 0, 64, 79
2, 3804, Note_on_c, 0, 53, 55
2, 3819, Control_c, 0, 64, 80
2, 3833, Control_c, 0, 64, 81
2, 3849, Control_c, 0, 64, 81
2, 3881, Control_c, 0, 64, 82
2, 3956, Control_c, 0, 64, 81
2, 3963, Note_on_c, 0, 53, 0
2, 3976, Note_on_c, 0, 54, 47
2, 3978, Note_on_c, 0, 82, 64
2, 3987, Control_c, 0, 64, 80
2, 3989, Note_on_c, 0, 70, 46
2, 4003, Control_c, 0, 64, 79
2, 4017, Control_c, 0, 64, 77
2, 4032, Control_c, 0, 64, 74
2, 4048, Control_c, 0, 64, 70
2, 4063, Control_c, 0, 64, 63
2, 4078, Control_c, 0, 64, 46
2, 4093, Control_c, 0, 64, 37
2, 4104, Note_on_c, 0, 54, 0
2, 4108, Control_c, 0, 64, 32
2, 4111, Note_on_c, 0, 80, 71
2, 4124, Control_c, 0, 64, 0
2, 4124, Note_on_c, 0, 53, 49
2, 4172, Note_on_c, 0, 70, 0
2, 4192, Note_on_c, 0, 82, 0
2, 4260, Note_on_c, 0, 53, 0
2, 4270, Note_on_c, 0, 51, 53
2, 4271, Note_on_c, 0, 78, 68
2, 4275, Note_on_c, 0, 70, 57
2, 4291, Note_on_c, 0, 80, 0
2, 4391, Note_on_c, 0, 70, 0
2, 4413, Note_on_c, 0, 77, 70
2, 4416, Note_on_c, 0, 78, 0
2, 4417, Note_on_c, 0, 49, 60
2, 4442, Note_on_c, 0, 51, 0
2, 4566, Note_on_c, 0, 49, 0
2, 4572, Note_on_c, 0, 51, 57
2, 4578, Note_on_c, 0, 77, 0
2, 4581, Note_on_c, 0, 78, 71
2, 4594, Note_on_c, 0, 70, 56
2, 4632, Control_c, 0, 64, 61
2, 4648, Control_c, 0, 64, 66
2, 4678, Control_c, 0, 64, 67
2, 4694, Control_c, 0, 64, 68
2, 4709, Control_c, 0, 64, 70
2, 4713, Note_on_c, 0, 70, 0
2, 4723, Note_on_c, 0, 51, 0
2, 4725, Control_c, 0, 64, 72
2, 4725, Note_on_c, 0, 49, 58
2, 4727, Note_on_c, 0, 77, 71
2, 4739, Note_on_c, 0, 78, 0
2, 4740, Control_c, 0, 64, 73
2, 4801, Control_c, 0, 64, 73
2, 4816, Control_c, 0, 64, 72
2, 4831, Control_c, 0, 64, 71
2, 4837, Note_on_c, 0, 49, 0
2, 4847, Control_c, 0, 64, 68
2, 4861, Control_c, 0, 64, 64
2, 4865, Note_on_c, 0, 48, 55
2, 4876, Note_on_c, 0, 75, 66
2, 4877, Control_c, 0, 64, 58
2, 4881, Note_on_c, 0, 69, 60
2, 4885, Note_on_c, 0, 77, 0
2, 4893, Control_c, 0, 64, 54
2, 4907, Control_c, 0, 64, 53
2, 4923, Control_c, 0, 64, 52
2, 4938, Control_c, 0, 64, 50
2, 4953, Control_c, 0, 64, 44
2, 4969, Control_c, 0, 64, 32
2, 4983, Control_c, 0, 64, 25
2, 4998, Control_c, 0, 64, 24
2, 5006, Note_on_c, 0, 48, 0
2, 5010, Note_on_c, 0, 69, 0
2, 5018, Note_on_c, 0, 73, 65
2, 5020, Note_on_c, 0, 46, 57
2, 5021, Note_on_c, 0, 70, 63
2, 5027, Note_on_c, 0, 75, 0
2, 5029, Control_c, 0, 64, 21
2, 5045, Control_c, 0, 64, 13
2, 5059, Control_c, 0, 64, 0
2, 5157, Note_on_c, 0, 46, 0
2, 5171, Note_on_c, 0, 45, 56
2, 5175, Note_on_c, 0, 72, 69
2, 5177, Note_on_c, 0, 70, 0
2, 5186, Note_on_c, 0, 73, 0
2, 5321, Note_on_c, 0, 77, 74
2, 5325, Control_c, 0, 64, 32
2, 5333, Note_on_c, 0, 45, 0
2, 5335, Note_on_c, 0, 41, 60
2, 5337, Note_on_c, 0, 72, 0
2, 5340, Control_c, 0, 64, 40
2, 5355, Control_c, 0, 64, 37
2, 5371, Control_c, 0, 64, 36
2, 5385, Control_c, 0, 64, 35
2, 5401, Control_c, 0, 64, 32
2, 5416, Control_c, 0, 64, 16
2, 5431, Control_c, 0, 64, 0
2, 5461, Note_on_c, 0, 43, 63
2, 5468, Note_on_c, 0, 75, 71
2, 5473, Note_on_c, 0, 72, 59
2, 5473, Note_on_c, 0, 77, 0
2, 5516, Note_on_c, 0, 41, 0
2, 5538, Control_c, 0, 64, 26
2, 5553, Control_c, 0, 64, 62
2, 5569, Control_c, 0, 64, 66
2, 5584, Control_c, 0, 64, 69
2, 5595, Note_on_c, 0, 45, 63
2, 5599, Control_c, 0, 64, 72
2, 5601, Note_on_c, 0, 77, 81
2, 5606, Note_on_c, 0, 43, 0
2, 5615, Control_c, 0, 64, 74
2, 5620, Note_on_c, 0, 75, 0
2, 5626, Note_on_c, 0, 72, 0
2, 5629, Control_c, 0, 64, 76
2, 5644, Control_c, 0, 64, 77
2, 5659, Control_c, 0, 64, 77
2, 5688, Note_on_c, 0, 77, 0
2, 5719, Control_c, 0, 64, 77
2, 5735, Control_c, 0, 64, 75
2, 5749, Control_c, 0, 64, 71
2, 5759, Note_on_c, 0, 46, 62
2, 5762, Note_on_c, 0, 45, 0
2, 5765, Control_c, 0, 64, 65
2, 5768, Note_on_c, 0, 72, 60
2, 5772, Note_on_c, 0, 73, 66
2, 5780, Control_c, 0, 64, 57
2, 5795, Control_c, 0, 64, 47
2, 5811, Control_c, 0, 64, 46
2, 5841, Control_c, 0, 64, 46
2, 5856, Control_c, 0, 64, 45
2, 5871, Control_c, 0, 64, 45
2, 5871, Note_on_c, 0, 46, 0
2, 5887, Control_c, 0, 64, 46
2, 5899, Note_on_c, 0, 48, 56
2, 5902, Control_c, 0, 64, 48
2, 5916, Control_c, 0, 64, 50
2, 5923, Note_on_c, 0, 72, 0
2, 5932, Control_c, 0, 64, 52
2, 6038, Control_c, 0, 64, 51
2, 6054, Control_c, 0, 64, 50
2, 6067, Note_on_c, 0, 49, 50
2, 6068, Note_on_c, 0, 70, 63
2, 6069, Control_c, 0, 64, 49
2, 6082, Note_on_c, 0, 73, 0
2, 6083, Note_on_c, 0, 65, 51
2, 6091, Control_c, 0, 64, 49
2, 6105, Note_on_c, 0, 48, 0
2, 6106, Control_c, 0, 64, 48
2, 6122, Control_c, 0, 64, 47
2, 6215, Note_on_c, 0, 49, 0
2, 6224, Note_on_c, 0, 69, 65
2, 6228, Note_on_c, 0, 51, 51
2, 6232, Note_on_c, 0, 70, 0
2, 6233, Note_on_c, 0, 65, 0
2, 6289, Control_c, 0, 64, 47
2, 6305, Control_c, 0, 64, 46
2, 6321, Control_c, 0, 64, 43
2, 6336, Control_c, 0, 64, 38
2, 6351, Control_c, 0, 64, 29
2, 6357, Note_on_c, 0, 51, 0
2, 6367, Control_c, 0, 64, 13
2, 6381, Control_c, 0, 64, 0
2, 6381, Note_on_c, 0, 70, 62
2, 6384, Note_on_c, 0, 49, 43
2, 6426, Note_on_c, 0, 69, 0
2, 6443, Control_c, 0, 64, 21
2, 6457, Control_c, 0, 64, 34
2, 6472, Control_c, 0, 64, 48
2, 6488, Control_c, 0, 64, 57
2, 6503, Control_c, 0, 64, 61
2, 6518, Control_c, 0, 64, 63
2, 6533, Control_c, 0, 64, 64
2, 6544, Note_on_c, 0, 73, 55
2, 6548, Control_c, 0, 64, 64
2, 6564, Control_c, 0, 64, 65
2, 6577, Note_on_c, 0, 49, 0
2, 6579, Control_c, 0, 64, 65
2, 6593, Control_c, 0, 64, 65
2, 6609, Control_c, 0, 64, 64
2, 6624, Control_c, 0, 64, 63
2, 6639, Control_c, 0, 64, 58
2, 6655, Control_c, 0, 64, 45
2, 6669, Control_c, 0, 64, 0
2, 6691, Note_on_c, 0, 72, 60
2, 6696, Note_on_c, 0, 54, 42
2, 6706, Note_on_c, 0, 73, 0
2, 6776, Control_c, 0, 64, 53
2, 6791, Control_c, 0, 64, 63
2, 6807, Control_c, 0, 64, 66
2, 6822, Control_c, 0, 64, 70
2, 6834, Note_on_c, 0, 72, 0
2, 6837, Control_c, 0, 64, 73
2, 6838, Note_on_c, 0, 73, 63
2, 6860, Control_c, 0, 64, 75
2, 6874, Control_c, 0, 64, 76
2, 6905, Control_c, 0, 64, 77
2, 6935, Control_c, 0, 64, 76
2, 6950, Control_c, 0, 64, 74
2, 6966, Control_c, 0, 64, 68
2, 6981, Control_c, 0, 64, 56
2, 6986, Note_on_c, 0, 54, 0
2, 6987, Note_on_c, 0, 73, 0
2, 6996, Control_c, 0, 64, 0
2, 7011, Note_on_c, 0, 48, 43
2, 7012, Note_on_c, 0, 75, 69
2, 7072, Control_c, 0, 64, 56
2, 7088, Control_c, 0, 64, 64
2, 7103, Control_c, 0, 64, 68
2, 7118, Control_c, 0, 64, 71
2, 7134, Control_c, 0, 64, 73
2, 7147, Note_on_c, 0, 70, 0
2, 7148, Note_on_c, 0, 75, 0
2, 7149, Control_c, 0, 64, 74
2, 7149, Note_on_c, 0, 49, 58
2, 7155, Note_on_c, 0, 68, 60
2, 7165, Control_c, 0, 64, 75
2, 7173, Note_on_c, 0, 48, 0
2, 7180, Control_c, 0, 64, 76
2, 7194, Control_c, 0, 64, 77
2, 7210, Control_c, 0, 64, 77
2, 7256, Control_c, 0, 64, 77
2, 7271, Control_c, 0, 64, 75
2, 7287, Control_c, 0, 64, 72
2, 7301, Control_c, 0, 64, 64
2, 7308, Note_on_c, 0, 68, 0
2, 7311, Note_on_c, 0, 51, 51
2, 7313, Note_on_c, 0, 70, 66
2, 7316, Control_c, 0, 64, 10
2, 7321, Note_on_c, 0, 66, 55
2, 7332, Control_c, 0, 64, 0
2, 7377, Control_c, 0, 64, 37
2, 7377, Note_on_c, 0, 49, 0
2, 7392, Control_c, 0, 64, 56
2, 7408, Control_c, 0, 64, 64
2, 7423, Control_c, 0, 64, 68
2, 7433, Note_on_c, 0, 51, 0
2, 7434, Note_on_c, 0, 66, 0
2, 7437, Control_c, 0, 64, 71
2, 7453, Control_c, 0, 64, 73
2, 7461, Note_on_c, 0, 65, 59
2, 7467, Note_on_c, 0, 53, 49
2, 7468, Control_c, 0, 64, 74
2, 7484, Control_c, 0, 64, 75
2, 7499, Control_c, 0, 64, 76
2, 7558, Control_c, 0, 64, 75
2, 7574, Control_c, 0, 64, 71
2, 7578, Note_on_c, 0, 53, 0
2, 7587, Note_on_c, 0, 65, 0
2, 7589, Control_c, 0, 64, 64
2, 7605, Control_c, 0, 64, 0
2, 7622, Note_on_c, 0, 72, 69
2, 7635, Note_on_c, 0, 66, 47
2, 7637, Note_on_c, 0, 51, 40
2, 7704, Control_c, 0, 64, 54
2, 7714, Note_on_c, 0, 70, 0
2, 7718, Control_c, 0, 64, 64
2, 7734, Control_c, 0, 64, 66
2, 7749, Control_c, 0, 64, 68
2, 7751, Note_on_c, 0, 66, 0
2, 7765, Control_c, 0, 64, 69
2, 7773, Note_on_c, 0, 63, 62
2, 7779, Control_c, 0, 64, 70
2, 7794, Control_c, 0, 64, 72
2, 7810, Control_c, 0, 64, 74
2, 7825, Control_c, 0, 64, 74
2, 7858, Note_on_c, 0, 51, 0
2, 7870, Control_c, 0, 64, 73
2, 7886, Control_c, 0, 64, 70
2, 7901, Control_c, 0, 64, 64
2, 7905, Note_on_c, 0, 63, 0
2, 7916, Control_c, 0, 64, 54
2, 7926, Note_on_c, 0, 65, 63
2, 7930, Note_on_c, 0, 56, 47
2, 7932, Control_c, 0, 64, 42
2, 7948, Control_c, 0, 64, 38
2, 7964, Control_c, 0, 64, 41
2, 7979, Control_c, 0, 64, 46
2, 7994, Control_c, 0, 64, 51
2, 8009, Control_c, 0, 64, 56
2, 8024, Control_c, 0, 64, 60
2, 8038, Note_on_c, 0, 72, 0
2, 8039, Control_c, 0, 64, 63
2, 8055, Control_c, 0, 64, 64
2, 8070, Control_c, 0, 64, 64
2, 8072, Note_on_c, 0, 66, 62
2, 8115, Control_c, 0, 64, 64
2, 8121, Note_on_c, 0, 56, 0
2, 8131, Control_c, 0, 64, 63
2, 8146, Control_c, 0, 64, 62
2, 8147, Note_on_c, 0, 65, 0
2, 8161, Control_c, 0, 64, 59
2, 8176, Control_c, 0, 64, 52
2, 8191, Control_c, 0, 64, 38
2, 8207, Control_c, 0, 64, 0
2, 8237, Note_on_c, 0, 73, 65
2, 8238, Note_on_c, 0, 49, 51
2, 8393, Note_on_c, 0, 65, 59
2, 8395, Note_on_c, 0, 66, 0
2, 8499, Note_on_c, 0, 49, 0
2, 8528, Note_on_c, 0, 65, 0
2, 8550, Note_on_c, 0, 67, 63
2, 8554, Note_on_c, 0, 48, 52
2, 8684, Note_on_c, 0, 67, 0
2, 8696, Note_on_c, 0, 69, 68
2, 8743, Note_on_c, 0, 48, 0
2, 8764, Note_on_c, 0, 73, 0
2, 8849, Note_on_c, 0, 70, 66
2, 8852, Note_on_c, 0, 49, 57
2, 8869, Note_on_c, 0, 69, 0
2, 8974, Control_c, 0, 64, 55
2, 8989, Control_c, 0, 64, 54
2, 8999, Note_on_c, 0, 72, 63
2, 9005, Control_c, 0, 64, 54
2, 9017, Note_on_c, 0, 70, 0
2, 9020, Control_c, 0, 64, 54
2, 9035, Control_c, 0, 64, 52
2, 9050, Control_c, 0, 64, 47
2, 9065, Control_c, 0, 64, 0
2, 9082, Note_on_c, 0, 49, 0
2, 9148, Note_on_c, 0, 46, 57
2, 9152, Note_on_c, 0, 73, 71
2, 9164, Note_on_c, 0, 72, 0
2, 9270, Control_c, 0, 64, 56
2, 9286, Control_c, 0, 64, 69
2, 9294, Note_on_c, 0, 70, 70
2, 9301, Control_c, 0, 64, 76
2, 9313, Note_on_c, 0, 73, 0
2, 9316, Control_c, 0, 64, 83
2, 9331, Control_c, 0, 64, 85
2, 9344, Note_on_c, 0, 70, 0
2, 9346, Control_c, 0, 64, 87
2, 9352, Note_on_c, 0, 46, 0
2, 9362, Control_c, 0, 64, 88
2, 9376, Control_c, 0, 64, 90
2, 9391, Control_c, 0, 64, 91
2, 9407, Control_c, 0, 64, 92
2, 9453, Control_c, 0, 64, 91
2, 9467, Control_c, 0, 64, 89
2, 9483, Control_c, 0, 64, 81
2, 9486, Note_on_c, 0, 80, 81
2, 9491, Note_on_c, 0, 72, 64
2, 9494, Note_on_c, 0, 53, 61
2, 9498, Control_c, 0, 64, 68
2, 9513, Control_c, 0, 64, 0
2, 9621, Control_c, 0, 64, 48
2, 9635, Control_c, 0, 64, 66
2, 9651, Control_c, 0, 64, 73
2, 9658, Note_on_c, 0, 79, 75
2, 9666, Control_c, 0, 64, 79
2, 9682, Control_c, 0, 64, 83
2, 9684, Note_on_c, 0, 80, 0
2, 9696, Control_c, 0, 64, 83
2, 9711, Control_c, 0, 64, 84
2, 9727, Control_c, 0, 64, 85
2, 9742, Control_c, 0, 64, 85
2, 9772, Control_c, 0, 64, 85
2, 9787, Control_c, 0, 64, 82
2, 9803, Control_c, 0, 64, 75
2, 9803, Note_on_c, 0, 53, 0
2, 9809, Note_on_c, 0, 56, 59
2, 9815, Note_on_c, 0, 60, 64
2, 9818, Control_c, 0, 64, 65
2, 9820, Note_on_c, 0, 77, 71
2, 9833, Control_c, 0, 64, 0
2, 9847, Note_on_c, 0, 79, 0
2, 9867, Note_on_c, 0, 72, 0
2, 9909, Control_c, 0, 64, 31
2, 9932, Control_c, 0, 64, 63
2, 9947, Control_c, 0, 64, 69
2, 9963, Control_c, 0, 64, 74
2, 9971, Note_on_c, 0, 76, 74
2, 9977, Control_c, 0, 64, 78
2, 9977, Note_on_c, 0, 60, 0
2, 9986, Note_on_c, 0, 77, 0
2, 9992, Control_c, 0, 64, 80
2, 10023, Control_c, 0, 64, 80
2, 10114, Control_c, 0, 64, 80
2, 10130, Control_c, 0, 64, 77
2, 10142, Note_on_c, 0, 77, 73
2, 10145, Control_c, 0, 64, 73
2, 10148, Note_on_c, 0, 56, 0
2, 10153, Note_on_c, 0, 61, 54
2, 10155, Note_on_c, 0, 65, 51
2, 10161, Control_c, 0, 64, 68
2, 10175, Control_c, 0, 64, 59
2, 10179, Note_on_c, 0, 76, 0
2, 10190, Control_c, 0, 64, 47
2, 10206, Control_c, 0, 64, 44
2, 10220, Control_c, 0, 64, 41
2, 10235, Control_c, 0, 64, 33
2, 10251, Control_c, 0, 64, 0
2, 10283, Note_on_c, 0, 61, 0
2, 10300, Note_on_c, 0, 60, 57
2, 10369, Note_on_c, 0, 77, 0
2, 10451, Note_on_c, 0, 60, 0
2, 10454, Note_on_c, 0, 72, 63
2, 10464, Note_on_c, 0, 58, 59
2, 10594, Note_on_c, 0, 58, 0
2, 10606, Note_on_c, 0, 56, 57
2, 10629, Control_c, 0, 64, 38
2, 10644, Control_c, 0, 64, 48
2, 10660, Control_c, 0, 64, 53
2, 10675, Control_c, 0, 64, 55
2, 10693, Note_on_c, 0, 72, 0
2, 10698, Control_c, 0, 64, 56
2, 10712, Note_on_c, 0, 56, 0
2, 10713, Control_c, 0, 64, 54
2, 10729, Control_c, 0, 64, 47
2, 10743, Control_c, 0, 64, 22
2, 10758, Control_c, 0, 64, 0
2, 10761, Note_on_c, 0, 73, 71
2, 10773, Note_on_c, 0, 58, 45
2, 10895, Control_c, 0, 64, 57
2, 10899, Note_on_c, 0, 58, 0
2, 10910, Control_c, 0, 64, 64
2, 10910, Note_on_c, 0, 55, 55
2, 10925, Control_c, 0, 64, 67
2, 10941, Control_c, 0, 64, 69
2, 10956, Control_c, 0, 64, 70
2, 10972, Control_c, 0, 64, 71
2, 11001, Control_c, 0, 64, 70
2, 11012, Note_on_c, 0, 73, 0
2, 11017, Control_c, 0, 64, 66
2, 11032, Control_c, 0, 64, 55
2, 11048, Control_c, 0, 64, 0
2, 11052, Note_on_c, 0, 65, 0
2, 11057, Note_on_c, 0, 70, 72
2, 11071, Note_on_c, 0, 56, 54
2, 11110, Note_on_c, 0, 55, 0
2, 11153, Control_c, 0, 64, 50
2, 11169, Control_c, 0, 64, 65
2, 11184, Control_c, 0, 64, 69
2, 11198, Control_c, 0, 64, 72
2, 11210, Note_on_c, 0, 58, 57
2, 11214, Control_c, 0, 64, 75
2, 11231, Control_c, 0, 64, 77
2, 11245, Control_c, 0, 64, 78
2, 11314, Note_on_c, 0, 70, 0
2, 11321, Control_c, 0, 64, 76
2, 11329, Note_on_c, 0, 58, 0
2, 11337, Control_c, 0, 64, 68
2, 11352, Control_c, 0, 64, 31
2, 11366, Note_on_c, 0, 60, 49
2, 11368, Control_c, 0, 64, 0
2, 11368, Note_on_c, 0, 67, 67
2, 11383, Note_on_c, 0, 64, 45
2, 11396, Note_on_c, 0, 56, 0
2, 11466, Control_c, 0, 64, 34
2, 11481, Control_c, 0, 64, 63
2, 11497, Control_c, 0, 64, 67
2, 11511, Control_c, 0, 64, 70
2, 11523, Note_on_c, 0, 58, 52
2, 11526, Control_c, 0, 64, 72
2, 11542, Control_c, 0, 64, 75
2, 11557, Control_c, 0, 64, 77
2, 11559, Note_on_c, 0, 60, 0
2, 11573, Control_c, 0, 64, 78
2, 11587, Control_c, 0, 64, 78
2, 11618, Control_c, 0, 64, 78
2, 11632, Control_c, 0, 64, 76
2, 11648, Control_c, 0, 64, 71
2, 11661, Note_on_c, 0, 67, 0
2, 11663, Control_c, 0, 64, 61
2, 11677, Note_on_c, 0, 72, 65
2, 11678, Control_c, 0, 64, 0
2, 11684, Note_on_c, 0, 56, 52
2, 11692, Note_on_c, 0, 58, 0
2, 11770, Control_c, 0, 64, 52
2, 11785, Control_c, 0, 64, 63
2, 11800, Control_c, 0, 64, 66
2, 11816, Control_c, 0, 64, 69
2, 11831, Control_c, 0, 64, 73
2, 11835, Note_on_c, 0, 55, 50
2, 11845, Control_c, 0, 64, 75
2, 11845, Note_on_c, 0, 56, 0
2, 11861, Control_c, 0, 64, 77
2, 11876, Control_c, 0, 64, 78
2, 11892, Control_c, 0, 64, 78
2, 11909, Note_on_c, 0, 72, 0
2, 11942, Note_on_c, 0, 55, 0
2, 11953, Control_c, 0, 64, 77
2, 11969, Control_c, 0, 64, 74
2, 11982, Note_on_c, 0, 64, 0
2, 11984, Control_c, 0, 64, 69
2, 11988, Note_on_c, 0, 53, 49
2, 11992, Note_on_c, 0, 68, 59
2, 11998, Control_c, 0, 64, 60
2, 12001, Note_on_c, 0, 65, 50
2, 12014, Control_c, 0, 64, 0
2, 12143, Note_on_c, 0, 65, 0
2, 12152, Note_on_c, 0, 64, 52
2, 12312, Note_on_c, 0, 64, 0
2, 12324, Note_on_c, 0, 65, 56
2, 12380, Note_on_c, 0, 68, 0
2, 12448, Note_on_c, 0, 65, 0
2, 12474, Note_on_c, 0, 67, 57
2, 12628, Note_on_c, 0, 67, 0
2, 12629, Note_on_c, 0, 77, 62
2, 12632, Note_on_c, 0, 68, 51
2, 12752, Note_on_c, 0, 77, 0
2, 12756, Note_on_c, 0, 53, 0
2, 12764, Note_on_c, 0, 70, 66
2, 12775, Note_on_c, 0, 55, 53
2, 12792, Note_on_c, 0, 68, 0
2, 12903, Note_on_c, 0, 55, 0
2, 12921, Note_on_c, 0, 56, 55
2, 12925, Note_on_c, 0, 70, 0
2, 12928, Note_on_c, 0, 77, 74
2, 12939, Note_on_c, 0, 72, 62
2, 13063, Note_on_c, 0, 56, 0
2, 13072, Note_on_c, 0, 68, 68
2, 13075, Note_on_c, 0, 53, 51
2, 13078, Note_on_c, 0, 77, 0
2, 13103, Note_on_c, 0, 72, 0
2, 13212, Note_on_c, 0, 53, 0
2, 13225, Note_on_c, 0, 70, 66
2, 13231, Note_on_c, 0, 77, 68
2, 13237, Note_on_c, 0, 55, 56
2, 13250, Note_on_c, 0, 68, 0
2, 13306, Control_c, 0, 64, 52
2, 13320, Control_c, 0, 64, 64
2, 13336, Control_c, 0, 64, 68
2, 13351, Control_c, 0, 64, 72
2, 13365, Note_on_c, 0, 55, 0
2, 13366, Control_c, 0, 64, 77
2, 13379, Note_on_c, 0, 68, 65
2, 13382, Control_c, 0, 64, 79
2, 13384, Note_on_c, 0, 56, 59
2, 13386, Note_on_c, 0, 70, 0
2, 13396, Control_c, 0, 64, 82
2, 13412, Control_c, 0, 64, 83
2, 13427, Control_c, 0, 64, 84
2, 13442, Control_c, 0, 64, 84
2, 13460, Note_on_c, 0, 77, 0
2, 13488, Control_c, 0, 64, 84
2, 13503, Control_c, 0, 64, 79
2, 13511, Note_on_c, 0, 56, 0
2, 13518, Control_c, 0, 64, 69
2, 13534, Control_c, 0, 64, 0
2, 13534, Note_on_c, 0, 76, 70
2, 13537, Note_on_c, 0, 68, 0
2, 13538, Note_on_c, 0, 58, 55
2, 13552, Note_on_c, 0, 67, 56
2, 13610, Control_c, 0, 64, 22
2, 13625, Control_c, 0, 64, 64
2, 13640, Control_c, 0, 64, 69
2, 13655, Control_c, 0, 64, 74
2, 13669, Note_on_c, 0, 67, 0
2, 13670, Control_c, 0, 64, 78
2, 13680, Note_on_c, 0, 77, 77
2, 13682, Note_on_c, 0, 68, 65
2, 13686, Control_c, 0, 64, 80
2, 13702, Control_c, 0, 64, 81
2, 13717, Control_c, 0, 64, 82
2, 13730, Note_on_c, 0, 76, 0
2, 13745, Note_on_c, 0, 58, 0
2, 13747, Note_on_c, 0, 68, 0
2, 13769, Note_on_c, 0, 77, 0
2, 13800, Control_c, 0, 64, 81
2, 13816, Control_c, 0, 64, 79
2, 13831, Control_c, 0, 64, 74
2, 13843, Note_on_c, 0, 79, 75
2, 13845, Control_c, 0, 64, 67
2, 13855, Note_on_c, 0, 52, 56
2, 13855, Note_on_c, 0, 70, 63
2, 13861, Control_c, 0, 64, 52
2, 13876, Control_c, 0, 64, 0
2, 13979, Note_on_c, 0, 79, 0
2, 13989, Note_on_c, 0, 72, 77
2, 14016, Note_on_c, 0, 70, 0
2, 14117, Note_on_c, 0, 52, 0
2, 14138, Note_on_c, 0, 53, 57
2, 14147, Note_on_c, 0, 79, 79
2, 14151, Note_on_c, 0, 73, 72
2, 14159, Note_on_c, 0, 72, 0
2, 14265, Note_on_c, 0, 53, 0
2, 14282, Note_on_c, 0, 70, 76
2, 14288, Note_on_c, 0, 79, 0
2, 14296, Note_on_c, 0, 55, 58
2, 14333, Note_on_c, 0, 73, 0
2, 14451, Note_on_c, 0, 56, 62
2, 14454, Note_on_c, 0, 79, 83
2, 14456, Note_on_c, 0, 72, 73
2, 14467, Note_on_c, 0, 55, 0
2, 14474, Note_on_c, 0, 70, 0
2, 14614, Note_on_c, 0, 58, 63
2, 14616, Control_c, 0, 64, 13
2, 14617, Note_on_c, 0, 56, 0
2, 14631, Control_c, 0, 64, 18
2, 14647, Control_c, 0, 64, 19
2, 14662, Control_c, 0, 64, 21
2, 14764, Note_on_c, 0, 56, 61
2, 14764, Note_on_c, 0, 77, 78
2, 14768, Note_on_c, 0, 58, 0
2, 14773, Note_on_c, 0, 79, 0
2, 14875, Control_c, 0, 64, 26
2, 14890, Control_c, 0, 64, 29
2, 14894, Note_on_c, 0, 56, 0
2, 14905, Control_c, 0, 64, 31
2, 14905, Note_on_c, 0, 79, 82
2, 14913, Note_on_c, 0, 55, 65
2, 14921, Control_c, 0, 64, 32
2, 14934, Note_on_c, 0, 77, 0
2, 14967, Control_c, 0, 64, 32
2, 14997, Control_c, 0, 64, 29
2, 15012, Control_c, 0, 64, 19
2, 15027, Control_c, 0, 64, 0
2, 15062, Note_on_c, 0, 80, 88
2, 15070, Note_on_c, 0, 53, 63
2, 15073, Note_on_c, 0, 79, 0
2, 15089, Note_on_c, 0, 55, 0
2, 15194, Control_c, 0, 64, 62
2, 15205, Note_on_c, 0, 53, 0
2, 15210, Control_c, 0, 64, 68
2, 15214, Note_on_c, 0, 51, 67
2, 15224, Control_c, 0, 64, 73
2, 15239, Control_c, 0, 64, 78
2, 15243, Note_on_c, 0, 72, 0
2, 15255, Control_c, 0, 64, 81
2, 15258, Note_on_c, 0, 80, 0
2, 15269, Control_c, 0, 64, 82
2, 15285, Control_c, 0, 64, 83
2, 15343, Note_on_c, 0, 51, 0
2, 15355, Control_c, 0, 64, 81
2, 15367, Note_on_c, 0, 80, 88
2, 15370, Control_c, 0, 64, 73
2, 15370, Note_on_c, 0, 77, 79
2, 15375, Note_on_c, 0, 49, 70
2, 15385, Control_c, 0, 64, 57
2, 15401, Control_c, 0, 64, 0
2, 15476, Control_c, 0, 64, 59
2, 15492, Control_c, 0, 64, 67
2, 15507, Control_c, 0, 64, 71
2, 15508, Note_on_c, 0, 49, 0
2, 15513, Note_on_c, 0, 72, 70
2, 15523, Control_c, 0, 64, 75
2, 15523, Note_on_c, 0, 53, 66
2, 15537, Control_c, 0, 64, 78
2, 15552, Control_c, 0, 64, 79
2, 15568, Control_c, 0, 64, 80
2, 15577, Note_on_c, 0, 80, 0
2, 15582, Control_c, 0, 64, 81
2, 15597, Control_c, 0, 64, 82
2, 15613, Control_c, 0, 64, 83
2, 15658, Control_c, 0, 64, 83
2, 15667, Note_on_c, 0, 77, 0
2, 15670, Note_on_c, 0, 53, 0
2, 15673, Control_c, 0, 64, 79
2, 15689, Control_c, 0, 64, 70
2, 15691, Note_on_c, 0, 80, 84
2, 15694, Note_on_c, 0, 46, 70
2, 15696, Note_on_c, 0, 73, 77
2, 15703, Control_c, 0, 64, 29
2, 15705, Note_on_c, 0, 72, 0
2, 15718, Control_c, 0, 64, 0
2, 15795, Control_c, 0, 64, 40
2, 15811, Control_c, 0, 64, 64
2, 15826, Control_c, 0, 64, 69
2, 15841, Control_c, 0, 64, 74
2, 15842, Note_on_c, 0, 75, 70
2, 15856, Control_c, 0, 64, 78
2, 15871, Control_c, 0, 64, 81
2, 15887, Control_c, 0, 64, 83
2, 15901, Control_c, 0, 64, 84
2, 15904, Note_on_c, 0, 80, 0
2, 15906, Note_on_c, 0, 73, 0
2, 15916, Control_c, 0, 64, 86
2, 15947, Control_c, 0, 64, 86
2, 15967, Note_on_c, 0, 46, 0
2, 15990, Note_on_c, 0, 77, 82
2, 15992, Control_c, 0, 64, 86
2, 15996, Note_on_c, 0, 73, 75
2, 16036, Note_on_c, 0, 75, 0
2, 16038, Control_c, 0, 64, 85
2, 16061, Control_c, 0, 64, 84
2, 16076, Control_c, 0, 64, 82
2, 16092, Control_c, 0, 64, 79
2, 16107, Control_c, 0, 64, 75
2, 16122, Control_c, 0, 64, 71
2, 16138, Control_c, 0, 64, 65
2, 16148, Note_on_c, 0, 72, 69
2, 16153, Control_c, 0, 64, 59
2, 16159, Note_on_c, 0, 73, 0
2, 16168, Control_c, 0, 64, 54
2, 16183, Control_c, 0, 64, 46
2, 16198, Control_c, 0, 64, 0
2, 16260, Note_on_c, 0, 77, 0
2, 16297, Note_on_c, 0, 79, 82
2, 16303, Note_on_c, 0, 70, 65
2, 16308, Note_on_c, 0, 72, 0
2, 16437, Note_on_c, 0, 68, 69
2, 16530, Note_on_c, 0, 70, 0
2, 16564, Note_on_c, 0, 68, 0
2, 16587, Note_on_c, 0, 67, 65
2, 16589, Note_on_c, 0, 79, 0
2, 16596, Note_on_c, 0, 82, 88
2, 16685, Control_c, 0, 64, 57
2, 16700, Control_c, 0, 64, 64
2, 16704, Note_on_c, 0, 67, 0
2, 16715, Control_c, 0, 64, 67
2, 16731, Control_c, 0, 64, 72
2, 16743, Note_on_c, 0, 70, 64
2, 16745, Control_c, 0, 64, 79
2, 16761, Control_c, 0, 64, 83
2, 16776, Control_c, 0, 64, 85
2, 16791, Control_c, 0, 64, 86
2, 16807, Control_c, 0, 64, 87
2, 16810, Note_on_c, 0, 82, 0
2, 16828, Control_c, 0, 64, 89
2, 16844, Control_c, 0, 64, 90
2, 16874, Control_c, 0, 64, 90
2, 16890, Control_c, 0, 64, 88
2, 16905, Control_c, 0, 64, 82
2, 16914, Note_on_c, 0, 82, 88
2, 16921, Control_c, 0, 64, 72
2, 16921, Note_on_c, 0, 64, 53
2, 16927, Note_on_c, 0, 70, 0
2, 16936, Control_c, 0, 64, 33
2, 16951, Control_c, 0, 64, 0
2, 17012, Control_c, 0, 64, 49
2, 17027, Control_c, 0, 64, 68
2, 17043, Control_c, 0, 64, 76
2, 17058, Control_c, 0, 64, 81
2, 17069, Note_on_c, 0, 64, 0
2, 17072, Note_on_c, 0, 82, 0
2, 17073, Control_c, 0, 64, 82
2, 17073, Note_on_c, 0, 61, 64
2, 17104, Control_c, 0, 64, 82
2, 17207, Note_on_c, 0, 61, 0
2, 17209, Control_c, 0, 64, 82
2, 17220, Note_on_c, 0, 76, 75
2, 17227, Note_on_c, 0, 67, 62
2, 17229, Note_on_c, 0, 60, 58
2, 17239, Control_c, 0, 64, 81
2, 17269, Control_c, 0, 64, 80
2, 17285, Control_c, 0, 64, 79
2, 17300, Control_c, 0, 64, 78
2, 17315, Control_c, 0, 64, 78
2, 17331, Control_c, 0, 64, 77
2, 17345, Control_c, 0, 64, 76
2, 17361, Control_c, 0, 64, 74
2, 17373, Note_on_c, 0, 60, 0
2, 17375, Note_on_c, 0, 58, 63
2, 17376, Control_c, 0, 64, 71
2, 17391, Control_c, 0, 64, 68
2, 17407, Control_c, 0, 64, 64
2, 17422, Control_c, 0, 64, 62
2, 17452, Control_c, 0, 64, 61
2, 17467, Control_c, 0, 64, 60
2, 17483, Control_c, 0, 64, 57
2, 17498, Control_c, 0, 64, 54
2, 17507, Note_on_c, 0, 67, 0
2, 17513, Control_c, 0, 64, 52
2, 17523, Note_on_c, 0, 77, 78
2, 17526, Note_on_c, 0, 58, 0
2, 17528, Control_c, 0, 64, 51
2, 17529, Note_on_c, 0, 60, 48
2, 17534, Note_on_c, 0, 56, 60
2, 17543, Control_c, 0, 64, 45
2, 17558, Control_c, 0, 64, 34
2, 17565, Note_on_c, 0, 76, 0
2, 17574, Control_c, 0, 64, 10
2, 17589, Control_c, 0, 64, 0
2, 17671, Note_on_c, 0, 56, 0
2, 17698, Note_on_c, 0, 55, 51
2, 17811, Note_on_c, 0, 55, 0
2, 17847, Note_on_c, 0, 53, 59
2, 17849, Note_on_c, 0, 72, 65
2, 17941, Note_on_c, 0, 53, 0
2, 17963, Control_c, 0, 64, 40
2, 17978, Control_c, 0, 64, 62
2, 17987, Note_on_c, 0, 56, 61
2, 17992, Control_c, 0, 64, 65
2, 18008, Control_c, 0, 64, 66
2, 18023, Control_c, 0, 64, 66
2, 18037, Control_c, 0, 64, 67
2, 18061, Note_on_c, 0, 60, 0
2, 18084, Control_c, 0, 64, 66
2, 18099, Control_c, 0, 64, 64
2, 18113, Control_c, 0, 64, 56
2, 18129, Control_c, 0, 64, 0
2, 18149, Note_on_c, 0, 72, 0
2, 18151, Note_on_c, 0, 70, 64
2, 18156, Note_on_c, 0, 49, 61
2, 18163, Note_on_c, 0, 56, 0
2, 18250, Control_c, 0, 64, 38
2, 18265, Control_c, 0, 64, 63
2, 18281, Control_c, 0, 64, 66
2, 18296, Control_c, 0, 64, 67
2, 18310, Note_on_c, 0, 72, 64
2, 18311, Control_c, 0, 64, 68
2, 18314, Note_on_c, 0, 49, 0
2, 18327, Control_c, 0, 64, 69
2, 18327, Note_on_c, 0, 70, 0
2, 18342, Control_c, 0, 64, 70
2, 18357, Control_c, 0, 64, 70
2, 18394, Control_c, 0, 64, 70
2, 18410, Control_c, 0, 64, 64
2, 18425, Control_c, 0, 64, 0
2, 18467, Note_on_c, 0, 46, 60
2, 18469, Note_on_c, 0, 73, 67
2, 18498, Note_on_c, 0, 72, 0
2, 18534, Control_c, 0, 64, 39
2, 18549, Control_c, 0, 64, 64
2, 18564, Control_c, 0, 64, 68
2, 18579, Control_c, 0, 64, 70
2, 18595, Control_c, 0, 64, 71
2, 18611, Control_c, 0, 64, 73
2, 18624, Note_on_c, 0, 70, 65
2, 18625, Control_c, 0, 64, 74
2, 18628, Note_on_c, 0, 46, 0
2, 18641, Control_c, 0, 64, 74
2, 18641, Note_on_c, 0, 77, 0
2, 18654, Note_on_c, 0, 73, 0
2, 18687, Control_c, 0, 64, 74
2, 18702, Control_c, 0, 64, 70
2, 18718, Control_c, 0, 64, 62
2, 18732, Control_c, 0, 64, 0
2, 18768, Note_on_c, 0, 70, 0
2, 18769, Note_on_c, 0, 48, 64
2, 18775, Note_on_c, 0, 76, 68
2, 18779, Note_on_c, 0, 67, 59
2, 18854, Control_c, 0, 64, 61
2, 18869, Control_c, 0, 64, 69
2, 18884, Control_c, 0, 64, 73
2, 18899, Control_c, 0, 64, 75
2, 18915, Control_c, 0, 64, 76
2, 18925, Note_on_c, 0, 73, 63
2, 18930, Control_c, 0, 64, 77
2, 18939, Note_on_c, 0, 48, 0
2, 18945, Control_c, 0, 64, 77
2, 18974, Note_on_c, 0, 67, 0
2, 19005, Control_c, 0, 64, 75
2, 19020, Control_c, 0, 64, 70
2, 19036, Control_c, 0, 64, 50
2, 19051, Control_c, 0, 64, 0
2, 19075, Note_on_c, 0, 36, 56
2, 19078, Note_on_c, 0, 72, 60
2, 19089, Note_on_c, 0, 76, 0
2, 19124, Note_on_c, 0, 73, 0
2, 19180, Control_c, 0, 64, 63
2, 19196, Control_c, 0, 64, 71
2, 19211, Control_c, 0, 64, 75
2, 19225, Control_c, 0, 64, 77
2, 19229, Note_on_c, 0, 70, 64
2, 19241, Control_c, 0, 64, 79
2, 19256, Control_c, 0, 64, 80
2, 19271, Control_c, 0, 64, 81
2, 19287, Control_c, 0, 64, 82
2, 19291, Note_on_c, 0, 72, 0
2, 19301, Control_c, 0, 64, 82
2, 19304, Note_on_c, 0, 36, 0
2, 19377, Control_c, 0, 64, 81
2, 19392, Control_c, 0, 64, 77
2, 19408, Control_c, 0, 64, 69
2, 19424, Control_c, 0, 64, 51
2, 19426, Note_on_c, 0, 70, 0
2, 19427, Note_on_c, 0, 77, 65
2, 19434, Note_on_c, 0, 41, 49
2, 19440, Control_c, 0, 64, 0
2, 19447, Note_on_c, 0, 68, 42
2, 19545, Control_c, 0, 64, 13
2, 19561, Control_c, 0, 64, 63
2, 19567, Note_on_c, 0, 41, 0
2, 19576, Control_c, 0, 64, 68
2, 19591, Control_c, 0, 64, 71
2, 19604, Note_on_c, 0, 48, 48
2, 19606, Control_c, 0, 64, 74
2, 19621, Control_c, 0, 64, 75
2, 19637, Control_c, 0, 64, 77
2, 19651, Control_c, 0, 64, 77
2, 19666, Control_c, 0, 64, 78
2, 19742, Control_c, 0, 64, 77
2, 19756, Note_on_c, 0, 50, 45
2, 19757, Note_on_c, 0, 72, 54
2, 19758, Control_c, 0, 64, 76
2, 19764, Note_on_c, 0, 48, 0
2, 19772, Control_c, 0, 64, 73
2, 19787, Control_c, 0, 64, 68
2, 19801, Note_on_c, 0, 68, 0
2, 19803, Control_c, 0, 64, 62
2, 19818, Control_c, 0, 64, 50
2, 19833, Control_c, 0, 64, 42
2, 19848, Control_c, 0, 64, 39
2, 19848, Note_on_c, 0, 77, 0
2, 19863, Control_c, 0, 64, 32
2, 19879, Control_c, 0, 64, 0
2, 19888, Note_on_c, 0, 50, 0
2, 19918, Note_on_c, 0, 52, 45
2, 20043, Note_on_c, 0, 52, 0
2, 20044, Note_on_c, 0, 72, 0
2, 20064, Note_on_c, 0, 68, 54
2, 20070, Note_on_c, 0, 53, 44
2, 20216, Note_on_c, 0, 53, 0
2, 20226, Note_on_c, 0, 75, 50
2, 20233, Note_on_c, 0, 54, 46
2, 20278, Note_on_c, 0, 68, 0
2, 20364, Note_on_c, 0, 75, 0
2, 20368, Note_on_c, 0, 54, 0
2, 20379, Note_on_c, 0, 74, 55
2, 20395, Note_on_c, 0, 59, 37
2, 20402, Note_on_c, 0, 56, 44
2, 20510, Control_c, 0, 64, 51
2, 20521, Note_on_c, 0, 56, 0
2, 20526, Control_c, 0, 64, 58
2, 20541, Control_c, 0, 64, 62
2, 20544, Note_on_c, 0, 75, 66
2, 20552, Note_on_c, 0, 53, 44
2, 20557, Control_c, 0, 64, 65
2, 20571, Control_c, 0, 64, 68
2, 20576, Note_on_c, 0, 74, 0
2, 20586, Control_c, 0, 64, 72
2, 20602, Control_c, 0, 64, 74
2, 20616, Control_c, 0, 64, 76
2, 20631, Control_c, 0, 64, 76
2, 20647, Control_c, 0, 64, 77
2, 20655, Note_on_c, 0, 53, 0
2, 20700, Control_c, 0, 64, 75
2, 20716, Control_c, 0, 64, 69
2, 20720, Note_on_c, 0, 59, 0
2, 20730, Note_on_c, 0, 58, 46
2, 20731, Control_c, 0, 64, 47
2, 20741, Note_on_c, 0, 77, 70
2, 20746, Control_c, 0, 64, 0
2, 20756, Note_on_c, 0, 50, 34
2, 20761, Note_on_c, 0, 75, 0
2, 20837, Control_c, 0, 64, 53
2, 20852, Control_c, 0, 64, 66
2, 20867, Control_c, 0, 64, 71
2, 20875, Note_on_c, 0, 77, 0
2, 20883, Control_c, 0, 64, 73
2, 20898, Control_c, 0, 64, 74
2, 20907, Note_on_c, 0, 58, 0
2, 20912, Control_c, 0, 64, 76
2, 20912, Note_on_c, 0, 60, 45
2, 20928, Control_c, 0, 64, 77
2, 20943, Control_c, 0, 64, 78
2, 20959, Control_c, 0, 64, 79
2, 20974, Control_c, 0, 64, 79
2, 21035, Note_on_c, 0, 60, 0
2, 21050, Note_on_c, 0, 70, 66
2, 21065, Note_on_c, 0, 62, 51
2, 21081, Control_c, 0, 64, 79
2, 21087, Note_on_c, 0, 50, 0
2, 21096, Control_c, 0, 64, 78
2, 21111, Control_c, 0, 64, 76
2, 21127, Control_c, 0, 64, 72
2, 21141, Control_c, 0, 64, 67
2, 21157, Control_c, 0, 64, 60
2, 21172, Control_c, 0, 64, 55
2, 21187, Control_c, 0, 64, 53
2, 21198, Note_on_c, 0, 62, 0
2, 21203, Control_c, 0, 64, 49
2, 21204, Note_on_c, 0, 63, 51
2, 21218, Control_c, 0, 64, 42
2, 21233, Control_c, 0, 64, 19
2, 21249, Control_c, 0, 64, 0
2, 21349, Note_on_c, 0, 70, 0
2, 21357, Note_on_c, 0, 68, 65
2, 21359, Note_on_c, 0, 65, 45
2, 21413, Note_on_c, 0, 63, 0
2, 21417, Note_on_c, 0, 65, 0
2, 21430, Control_c, 0, 64, 18
2, 21453, Control_c, 0, 64, 67
2, 21468, Control_c, 0, 64, 73
2, 21484, Control_c, 0, 64, 77
2, 21499, Control_c, 0, 64, 78
2, 21505, Note_on_c, 0, 68, 0
2, 21515, Control_c, 0, 64, 79
2, 21520, Note_on_c, 0, 66, 70
2, 21530, Control_c, 0, 64, 80
2, 21544, Control_c, 0, 64, 81
2, 21636, Control_c, 0, 64, 80
2, 21643, Note_on_c, 0, 66, 0
2, 21651, Control_c, 0, 64, 76
2, 21665, Control_c, 0, 64, 68
2, 21681, Control_c, 0, 64, 42
2, 21682, Note_on_c, 0, 77, 74
2, 21683, Note_on_c, 0, 46, 52
2, 21696, Control_c, 0, 64, 0
2, 21700, Note_on_c, 0, 68, 51
2, 21788, Control_c, 0, 64, 51
2, 21804, Control_c, 0, 64, 66
2, 21817, Note_on_c, 0, 68, 0
2, 21819, Control_c, 0, 64, 71
2, 21833, Control_c, 0, 64, 74
2, 21843, Note_on_c, 0, 65, 56
2, 21849, Control_c, 0, 64, 76
2, 21881, Control_c, 0, 64, 77
2, 21967, Note_on_c, 0, 46, 0
2, 21972, Control_c, 0, 64, 76
2, 21973, Note_on_c, 0, 65, 0
2, 21976, Note_on_c, 0, 39, 52
2, 21986, Control_c, 0, 64, 74
2, 21998, Note_on_c, 0, 66, 60
2, 22002, Control_c, 0, 64, 67
2, 22017, Control_c, 0, 64, 0
2, 22128, Note_on_c, 0, 46, 53
2, 22197, Note_on_c, 0, 39, 0
2, 22289, Note_on_c, 0, 77, 0
2, 22302, Note_on_c, 0, 75, 63
2, 22304, Note_on_c, 0, 48, 50
2, 22400, Note_on_c, 0, 46, 0
2, 22410, Note_on_c, 0, 48, 0
2, 22453, Note_on_c, 0, 77, 75
2, 22454, Note_on_c, 0, 50, 47
2, 22468, Note_on_c, 0, 66, 0
2, 22491, Note_on_c, 0, 75, 0
2, 22612, Note_on_c, 0, 78, 77
2, 22614, Note_on_c, 0, 50, 0
2, 22621, Note_on_c, 0, 51, 45
2, 22622, Note_on_c, 0, 77, 0
2, 22709, Control_c, 0, 64, 49
2, 22725, Control_c, 0, 64, 67
2, 22739, Control_c, 0, 64, 71
2, 22755, Control_c, 0, 64, 74
2, 22764, Note_on_c, 0, 51, 0
2, 22770, Control_c, 0, 64, 76
2, 22774, Note_on_c, 0, 53, 54
2, 22774, Note_on_c, 0, 78, 0
2, 22785, Control_c, 0, 64, 77
2, 22801, Control_c, 0, 64, 78
2, 22891, Control_c, 0, 64, 77
2, 22897, Note_on_c, 0, 53, 0
2, 22906, Control_c, 0, 64, 76
2, 22922, Control_c, 0, 64, 73
2, 22928, Note_on_c, 0, 54, 55
2, 22933, Note_on_c, 0, 70, 65
2, 22937, Control_c, 0, 64, 70
2, 22941, Note_on_c, 0, 66, 53
2, 22951, Control_c, 0, 64, 66
2, 22967, Control_c, 0, 64, 62
2, 22990, Control_c, 0, 64, 57
2, 22993, Note_on_c, 0, 66, 0
2, 22993, Note_on_c, 0, 66, 20
2, 23006, Control_c, 0, 64, 56
2, 23021, Control_c, 0, 64, 53
2, 23036, Control_c, 0, 64, 51
2, 23044, Note_on_c, 0, 54, 0
2, 23051, Control_c, 0, 64, 49
2, 23064, Note_on_c, 0, 51, 44
2, 23081, Control_c, 0, 64, 50
2, 23111, Control_c, 0, 64, 49
2, 23127, Control_c, 0, 64, 47
2, 23142, Control_c, 0, 64, 45
2, 23157, Control_c, 0, 64, 40
2, 23172, Control_c, 0, 64, 22
2, 23187, Control_c, 0, 64, 0
2, 23209, Note_on_c, 0, 51, 0
2, 23227, Note_on_c, 0, 48, 51
2, 23245, Note_on_c, 0, 68, 61
2, 23258, Note_on_c, 0, 70, 0
2, 23291, Note_on_c, 0, 66, 0
2, 23369, Control_c, 0, 64, 46
2, 23383, Note_on_c, 0, 48, 0
2, 23384, Control_c, 0, 64, 64
2, 23385, Note_on_c, 0, 70, 66
2, 23400, Control_c, 0, 64, 67
2, 23415, Control_c, 0, 64, 68
2, 23430, Control_c, 0, 64, 69
2, 23445, Control_c, 0, 64, 70
2, 23446, Note_on_c, 0, 68, 0
2, 23506, Control_c, 0, 64, 68
2, 23522, Control_c, 0, 64, 64
2, 23535, Note_on_c, 0, 70, 0
2, 23537, Control_c, 0, 64, 49
2, 23544, Note_on_c, 0, 57, 54
2, 23545, Note_on_c, 0, 72, 66
2, 23550, Note_on_c, 0, 51, 55
2, 23552, Control_c, 0, 64, 0
2, 23689, Control_c, 0, 64, 54
2, 23696, Note_on_c, 0, 73, 58
2, 23704, Control_c, 0, 64, 64
2, 23719, Control_c, 0, 64, 67
2, 23719, Note_on_c, 0, 72, 0
2, 23734, Control_c, 0, 64, 69
2, 23758, Control_c, 0, 64, 70
2, 23764, Note_on_c, 0, 51, 0
2, 23773, Control_c, 0, 64, 72
2, 23788, Control_c, 0, 64, 73
2, 23801, Note_on_c, 0, 57, 0
2, 23803, Control_c, 0, 64, 74
2, 23818, Control_c, 0, 64, 73
2, 23833, Control_c, 0, 64, 71
2, 23849, Control_c, 0, 64, 65
2, 23855, Note_on_c, 0, 56, 54
2, 23862, Note_on_c, 0, 75, 62
2, 23864, Control_c, 0, 64, 0
2, 23871, Note_on_c, 0, 48, 40
2, 23902, Note_on_c, 0, 73, 0
2, 23985, Control_c, 0, 64, 54
2, 24001, Control_c, 0, 64, 68
2, 24015, Control_c, 0, 64, 70
2, 24015, Note_on_c, 0, 77, 71
2, 24024, Note_on_c, 0, 75, 0
2, 24030, Control_c, 0, 64, 72
2, 24046, Control_c, 0, 64, 74
2, 24046, Note_on_c, 0, 56, 0
2, 24061, Control_c, 0, 64, 76
2, 24077, Control_c, 0, 64, 78
2, 24092, Control_c, 0, 64, 79
2, 24097, Note_on_c, 0, 48, 0
2, 24123, Control_c, 0, 64, 78
2, 24137, Control_c, 0, 64, 75
2, 24152, Control_c, 0, 64, 66
2, 24164, Note_on_c, 0, 44, 44
2, 24168, Control_c, 0, 64, 0
2, 24171, Note_on_c, 0, 78, 71
2, 24174, Note_on_c, 0, 77, 0
2, 24186, Note_on_c, 0, 72, 49
2, 24258, Control_c, 0, 64, 24
2, 24273, Control_c, 0, 64, 64
2, 24289, Control_c, 0, 64, 70
2, 24299, Note_on_c, 0, 44, 0
2, 24304, Control_c, 0, 64, 73
2, 24320, Control_c, 0, 64, 77
2, 24336, Control_c, 0, 64, 79
2, 24340, Note_on_c, 0, 75, 58
2, 24350, Control_c, 0, 64, 82
2, 24366, Control_c, 0, 64, 84
2, 24381, Control_c, 0, 64, 86
2, 24397, Control_c, 0, 64, 87
2, 24405, Note_on_c, 0, 78, 0
2, 24412, Control_c, 0, 64, 88
2, 24426, Control_c, 0, 64, 89
2, 24472, Control_c, 0, 64, 89
2, 24484, Note_on_c, 0, 72, 0
2, 24488, Control_c, 0, 64, 85
2, 24495, Note_on_c, 0, 75, 0
2, 24510, Control_c, 0, 64, 76
2, 24513, Note_on_c, 0, 37, 46
2, 24521, Note_on_c, 0, 77, 66
2, 24526, Control_c, 0, 64, 61
2, 24529, Note_on_c, 0, 73, 55
2, 24541, Control_c, 0, 64, 0
2, 24617, Control_c, 0, 64, 61
2, 24632, Control_c, 0, 64, 68
2, 24647, Control_c, 0, 64, 72
2, 24650, Note_on_c, 0, 77, 0
2, 24662, Control_c, 0, 64, 76
2, 24675, Note_on_c, 0, 73, 0
2, 24678, Control_c, 0, 64, 78
2, 24678, Note_on_c, 0, 44, 50
2, 24693, Control_c, 0, 64, 79
2, 24708, Control_c, 0, 64, 80
2, 24738, Control_c, 0, 64, 80
2, 24768, Control_c, 0, 64, 81
2, 24829, Control_c, 0, 64, 80
2, 24845, Control_c, 0, 64, 80
2, 24847, Note_on_c, 0, 37, 0
2, 24854, Note_on_c, 0, 46, 50
2, 24859, Note_on_c, 0, 67, 59
2, 24860, Control_c, 0, 64, 79
2, 24876, Control_c, 0, 64, 76
2, 24891, Control_c, 0, 64, 71
2, 24905, Control_c, 0, 64, 64
2, 24921, Control_c, 0, 64, 57
2, 24936, Control_c, 0, 64, 58
2, 24951, Control_c, 0, 64, 60
2, 24958, Note_on_c, 0, 44, 0
2, 24967, Control_c, 0, 64, 59
2, 24981, Control_c, 0, 64, 58
2, 24991, Note_on_c, 0, 46, 0
2, 25009, Note_on_c, 0, 48, 55
2, 25012, Control_c, 0, 64, 59
2, 25027, Control_c, 0, 64, 61
2, 25043, Control_c, 0, 64, 62
2, 25058, Control_c, 0, 64, 61
2, 25073, Control_c, 0, 64, 59
2, 25089, Control_c, 0, 64, 54
2, 25103, Control_c, 0, 64, 40
2, 25113, Note_on_c, 0, 67, 0
2, 25119, Control_c, 0, 64, 0
2, 25143, Note_on_c, 0, 65, 66
2, 25146, Note_on_c, 0, 48, 0
2, 25156, Note_on_c, 0, 61, 56
2, 25160, Note_on_c, 0, 49, 46
2, 25242, Control_c, 0, 64, 35
2, 25257, Control_c, 0, 64, 64
2, 25272, Control_c, 0, 64, 69
2, 25294, Control_c, 0, 64, 73
2, 25309, Control_c, 0, 64, 74
2, 25325, Control_c, 0, 64, 75
2, 25325, Note_on_c, 0, 51, 53
2, 25330, Note_on_c, 0, 65, 0
2, 25339, Control_c, 0, 64, 76
2, 25355, Control_c, 0, 64, 76
2, 25376, Note_on_c, 0, 49, 0
2, 25416, Control_c, 0, 64, 75
2, 25426, Note_on_c, 0, 51, 0
2, 25431, Control_c, 0, 64, 71
2, 25447, Control_c, 0, 64, 63
2, 25461, Control_c, 0, 64, 16
2, 25475, Note_on_c, 0, 53, 48
2, 25477, Control_c, 0, 64, 0
2, 25481, Note_on_c, 0, 73, 64
2, 25507, Note_on_c, 0, 61, 0
2, 25568, Control_c, 0, 64, 58
2, 25583, Control_c, 0, 64, 66
2, 25599, Control_c, 0, 64, 71
2, 25613, Control_c, 0, 64, 75
2, 25617, Note_on_c, 0, 49, 47
2, 25628, Control_c, 0, 64, 76
2, 25644, Control_c, 0, 64, 76
2, 25651, Note_on_c, 0, 53, 0
2, 25735, Control_c, 0, 64, 76
2, 25749, Control_c, 0, 64, 75
2, 25765, Control_c, 0, 64, 72
2, 25780, Control_c, 0, 64, 68
2, 25793, Control_c, 0, 64, 63
2, 25798, Note_on_c, 0, 70, 68
2, 25808, Note_on_c, 0, 54, 49
2, 25809, Control_c, 0, 64, 59
2, 25820, Note_on_c, 0, 49, 0
2, 25823, Control_c, 0, 64, 58
2, 25838, Control_c, 0, 64, 57
2, 25838, Note_on_c, 0, 73, 0
2, 25854, Control_c, 0, 64, 55
2, 25869, Control_c, 0, 64, 50
2, 25885, Control_c, 0, 64, 42
2, 25900, Control_c, 0, 64, 34
2, 25942, Note_on_c, 0, 54, 0
2, 25945, Control_c, 0, 64, 32
2, 25957, Note_on_c, 0, 56, 54
2, 25960, Control_c, 0, 64, 24
2, 25976, Control_c, 0, 64, 19
2, 25991, Control_c, 0, 64, 18
2, 26037, Control_c, 0, 64, 13
2, 26060, Control_c, 0, 64, 0
2, 26112, Note_on_c, 0, 56, 0
2, 26123, Note_on_c, 0, 61, 55
2, 26138, Note_on_c, 0, 54, 51
2, 26247, Note_on_c, 0, 54, 0
2, 26269, Note_on_c, 0, 53, 54
2, 26288, Control_c, 0, 64, 16
2, 26303, Control_c, 0, 64, 25
2, 26318, Control_c, 0, 64, 31
2, 26334, Control_c, 0, 64, 32
2, 26417, Note_on_c, 0, 61, 0
2, 26425, Control_c, 0, 64, 29
2, 26432, Note_on_c, 0, 51, 47
2, 26433, Note_on_c, 0, 53, 0
2, 26434, Note_on_c, 0, 66, 61
2, 26440, Control_c, 0, 64, 24
2, 26455, Control_c, 0, 64, 21
2, 26501, Control_c, 0, 64, 24
2, 26516, Control_c, 0, 64, 28
2, 26531, Control_c, 0, 64, 33
2, 26546, Control_c, 0, 64, 42
2, 26562, Control_c, 0, 64, 53
2, 26577, Control_c, 0, 64, 60
2, 26581, Note_on_c, 0, 49, 54
2, 26581, Note_on_c, 0, 51, 0
2, 26591, Control_c, 0, 64, 63
2, 26607, Control_c, 0, 64, 64
2, 26622, Control_c, 0, 64, 65
2, 26653, Control_c, 0, 64, 66
2, 26683, Control_c, 0, 64, 65
2, 26698, Control_c, 0, 64, 63
2, 26710, Note_on_c, 0, 49, 0
2, 26713, Control_c, 0, 64, 55
2, 26728, Control_c, 0, 64, 0
2, 26736, Note_on_c, 0, 70, 0
2, 26738, Note_on_c, 0, 75, 64
2, 26746, Note_on_c, 0, 48, 50
2, 26844, Control_c, 0, 64, 59
2, 26856, Note_on_c, 0, 48, 0
2, 26859, Control_c, 0, 64, 67
2, 26874, Control_c, 0, 64, 70
2, 26883, Note_on_c, 0, 51, 59
2, 26890, Control_c, 0, 64, 72
2, 26899, Note_on_c, 0, 73, 67
2, 26904, Control_c, 0, 64, 73
2, 26919, Control_c, 0, 64, 74
2, 26920, Note_on_c, 0, 75, 0
2, 26980, Control_c, 0, 64, 73
2, 26995, Control_c, 0, 64, 71
2, 27011, Control_c, 0, 64, 68
2, 27025, Control_c, 0, 64, 65
2, 27040, Control_c, 0, 64, 59
2, 27056, Control_c, 0, 64, 56
2, 27068, Note_on_c, 0, 45, 48
2, 27069, Note_on_c, 0, 51, 0
2, 27071, Control_c, 0, 64, 54
2, 27082, Note_on_c, 0, 72, 64
2, 27087, Control_c, 0, 64, 52
2, 27101, Control_c, 0, 64, 46
2, 27116, Control_c, 0, 64, 29
2, 27130, Note_on_c, 0, 66, 0
2, 27132, Control_c, 0, 64, 0
2, 27145, Note_on_c, 0, 73, 0
2, 27226, Note_on_c, 0, 41, 52
2, 27229, Note_on_c, 0, 45, 0
2, 27382, Note_on_c, 0, 65, 60
2, 27391, Note_on_c, 0, 41, 0
2, 27391, Note_on_c, 0, 43, 51
2, 27519, Note_on_c, 0, 65, 0
2, 27530, Note_on_c, 0, 43, 0
2, 27530, Note_on_c, 0, 63, 60
2, 27547, Note_on_c, 0, 45, 55
2, 27694, Note_on_c, 0, 45, 0
2, 27695, Note_on_c, 0, 61, 66
2, 27698, Note_on_c, 0, 63, 0
2, 27709, Note_on_c, 0, 46, 52
2, 27811, Note_on_c, 0, 46, 0
2, 27839, Control_c, 0, 64, 59
2, 27845, Note_on_c, 0, 48, 55
2, 27855, Control_c, 0, 64, 66
2, 27869, Control_c, 0, 64, 69
2, 27885, Control_c, 0, 64, 72
2, 27900, Control_c, 0, 64, 75
2, 27914, Control_c, 0, 64, 76
2, 27930, Control_c, 0, 64, 77
2, 27945, Control_c, 0, 64, 77
2, 27960, Control_c, 0, 64, 77
2, 27976, Control_c, 0, 64, 74
2, 27985, Note_on_c, 0, 48, 0
2, 27990, Control_c, 0, 64, 68
2, 28000, Note_on_c, 0, 49, 55
2, 28006, Control_c, 0, 64, 38
2, 28008, Note_on_c, 0, 70, 68
2, 28016, Note_on_c, 0, 72, 0
2, 28021, Control_c, 0, 64, 0
2, 28083, Note_on_c, 0, 61, 0
2, 28112, Control_c, 0, 64, 44
2, 28128, Control_c, 0, 64, 67
2, 28129, Note_on_c, 0, 49, 0
2, 28141, Note_on_c, 0, 46, 60
2, 28142, Control_c, 0, 64, 73
2, 28157, Control_c, 0, 64, 77
2, 28173, Control_c, 0, 64, 80
2, 28188, Control_c, 0, 64, 81
2, 28203, Control_c, 0, 64, 82
2, 28221, Note_on_c, 0, 46, 0
2, 28233, Control_c, 0, 64, 82
2, 28264, Control_c, 0, 64, 82
2, 28294, Control_c, 0, 64, 79
2, 28309, Control_c, 0, 64, 73
2, 28310, Note_on_c, 0, 60, 60
2, 28315, Note_on_c, 0, 51, 60
2, 28325, Control_c, 0, 64, 65
2, 28339, Control_c, 0, 64, 39
2, 28363, Control_c, 0, 64, 0
2, 28466, Note_on_c, 0, 70, 0
2, 28483, Note_on_c, 0, 72, 67
2, 28604, Note_on_c, 0, 60, 0
2, 28631, Note_on_c, 0, 51, 0
2, 28634, Note_on_c, 0, 73, 67
2, 28635, Note_on_c, 0, 72, 0
2, 28642, Note_on_c, 0, 48, 59
2, 28744, Control_c, 0, 64, 54
2, 28759, Control_c, 0, 64, 65
2, 28775, Control_c, 0, 64, 68
2, 28787, Note_on_c, 0, 73, 0
2, 28788, Note_on_c, 0, 75, 71
2, 28789, Control_c, 0, 64, 70
2, 28805, Control_c, 0, 64, 72
2, 28820, Control_c, 0, 64, 73
2, 28834, Control_c, 0, 64, 74
2, 28880, Control_c, 0, 64, 73
2, 28889, Note_on_c, 0, 48, 0
2, 28896, Control_c, 0, 64, 69
2, 28911, Control_c, 0, 64, 61
2, 28926, Note_on_c, 0, 75, 0
2, 28927, Control_c, 0, 64, 0
2, 28945, Note_on_c, 0, 53, 55
2, 28945, Note_on_c, 0, 69, 68
2, 29078, Control_c, 0, 64, 61
2, 29094, Control_c, 0, 64, 66
2, 29095, Note_on_c, 0, 78, 69
2, 29109, Control_c, 0, 64, 70
2, 29131, Control_c, 0, 64, 73
2, 29146, Control_c, 0, 64, 75
2, 29149, Note_on_c, 0, 53, 0
2, 29162, Control_c, 0, 64, 77
2, 29177, Control_c, 0, 64, 78
2, 29208, Control_c, 0, 64, 77
2, 29223, Control_c, 0, 64, 75
2, 29235, Note_on_c, 0, 78, 0
2, 29238, Control_c, 0, 64, 67
2, 29254, Control_c, 0, 64, 0
2, 29262, Note_on_c, 0, 77, 68
2, 29268, Note_on_c, 0, 41, 60
2, 29311, Note_on_c, 0, 69, 0
2, 29360, Control_c, 0, 64, 48
2, 29376, Control_c, 0, 64, 67
2, 29391, Control_c, 0, 64, 72
2, 29391, Note_on_c, 0, 41, 0
2, 29407, Control_c, 0, 64, 76
2, 29417, Note_on_c, 0, 75, 65
2, 29422, Control_c, 0, 64, 78
2, 29428, Note_on_c, 0, 77, 0
2, 29436, Control_c, 0, 64, 79
2, 29450, Control_c, 0, 64, 80
2, 29465, Control_c, 0, 64, 81
2, 29479, Control_c, 0, 64, 82
2, 29495, Control_c, 0, 64, 82
2, 29541, Control_c, 0, 64, 81
2, 29555, Control_c, 0, 64, 77
2, 29571, Control_c, 0, 64, 67
2, 29586, Control_c, 0, 64, 0
2, 29587, Note_on_c, 0, 46, 56
2, 29594, Note_on_c, 0, 73, 60
2, 29618, Note_on_c, 0, 75, 0
2, 29676, Control_c, 0, 64, 27
2, 29692, Control_c, 0, 64, 64
2, 29707, Control_c, 0, 64, 68
2, 29722, Control_c, 0, 64, 70
2, 29738, Control_c, 0, 64, 73
2, 29747, Note_on_c, 0, 46, 0
2, 29750, Note_on_c, 0, 77, 64
2, 29753, Control_c, 0, 64, 75
2, 29756, Note_on_c, 0, 58, 60
2, 29767, Control_c, 0, 64, 76
2, 29829, Note_on_c, 0, 73, 0
2, 29844, Control_c, 0, 64, 75
2, 29860, Control_c, 0, 64, 73
2, 29875, Control_c, 0, 64, 69
2, 29897, Control_c, 0, 64, 62
2, 29912, Control_c, 0, 64, 45
2, 29917, Note_on_c, 0, 75, 66
2, 29927, Control_c, 0, 64, 0
2, 29932, Note_on_c, 0, 60, 66
2, 29951, Note_on_c, 0, 58, 0
2, 29969, Note_on_c, 0, 77, 0
2, 30079, Note_on_c, 0, 61, 71
2, 30080, Note_on_c, 0, 73, 68
2, 30092, Note_on_c, 0, 60, 0
2, 30119, Note_on_c, 0, 75, 0
2, 30215, Note_on_c, 0, 61, 0
2, 30228, Note_on_c, 0, 63, 70
2, 30230, Note_on_c, 0, 73, 0
2, 30236, Note_on_c, 0, 72, 70
2, 30375, Note_on_c, 0, 65, 75
2, 30380, Note_on_c, 0, 63, 0
2, 30380, Note_on_c, 0, 70, 71
2, 30401, Note_on_c, 0, 72, 0
2, 30531, Note_on_c, 0, 65, 0
2, 30533, Note_on_c, 0, 66, 68
2, 30534, Note_on_c, 0, 69, 77
2, 30540, Note_on_c, 0, 60, 63
2, 30555, Note_on_c, 0, 70, 0
2, 30665, Control_c, 0, 64, 52
2, 30680, Control_c, 0, 64, 68
2, 30692, Note_on_c, 0, 63, 70
2, 30695, Note_on_c, 0, 69, 0
2, 30696, Control_c, 0, 64, 71
2, 30697, Note_on_c, 0, 72, 73
2, 30711, Control_c, 0, 64, 74
2, 30741, Control_c, 0, 64, 74
2, 30756, Control_c, 0, 64, 75
2, 30786, Note_on_c, 0, 60, 0
2, 30805, Note_on_c, 0, 66, 0
2, 30832, Control_c, 0, 64, 74
2, 30847, Control_c, 0, 64, 73
2, 30863, Control_c, 0, 64, 71
2, 30878, Control_c, 0, 64, 68
2, 30894, Control_c, 0, 64, 64
2, 30909, Control_c, 0, 64, 61
2, 30924, Control_c, 0, 64, 59
2, 30924, Note_on_c, 0, 70, 72
2, 30933, Note_on_c, 0, 61, 63
2, 30937, Note_on_c, 0, 65, 57
2, 30940, Control_c, 0, 64, 59
2, 30950, Note_on_c, 0, 72, 0
2, 30955, Control_c, 0, 64, 56
2, 30970, Control_c, 0, 64, 48
2, 30984, Control_c, 0, 64, 40
2, 30997, Note_on_c, 0, 63, 0
2, 30999, Control_c, 0, 64, 37
2, 31030, Control_c, 0, 64, 34
2, 31044, Control_c, 0, 64, 24
2, 31060, Control_c, 0, 64, 0
2, 31113, Note_on_c, 0, 60, 64
2, 31115, Note_on_c, 0, 61, 0
2, 31236, Note_on_c, 0, 65, 0
2, 31272, Note_on_c, 0, 73, 60
2, 31282, Note_on_c, 0, 58, 59
2, 31297, Note_on_c, 0, 70, 0
2, 31299, Note_on_c, 0, 60, 0
2, 31435, Note_on_c, 0, 72, 70
2, 31437, Note_on_c, 0, 58, 0
2, 31439, Note_on_c, 0, 57, 63
2, 31450, Note_on_c, 0, 73, 0
2, 31571, Note_on_c, 0, 57, 0
2, 31589, Note_on_c, 0, 58, 65
2, 31603, Note_on_c, 0, 73, 61
2, 31618, Note_on_c, 0, 72, 0
2, 31747, Note_on_c, 0, 72, 66
2, 31750, Note_on_c, 0, 73, 0
2, 31783, Control_c, 0, 64, 26
2, 31798, Control_c, 0, 64, 40
2, 31814, Control_c, 0, 64, 45
2, 31829, Control_c, 0, 64, 46
2, 31830, Note_on_c, 0, 58, 0
2, 31844, Control_c, 0, 64, 45
2, 31859, Control_c, 0, 64, 43
2, 31874, Control_c, 0, 64, 36
2, 31890, Control_c, 0, 64, 0
2, 31905, Note_on_c, 0, 70, 62
2, 31905, Note_on_c, 0, 72, 0
2, 31908, Note_on_c, 0, 53, 61
2, 31911, Note_on_c, 0, 73, 61
2, 32041, Control_c, 0, 64, 54
2, 32056, Control_c, 0, 64, 65
2, 32056, Note_on_c, 0, 70, 0
2, 32064, Note_on_c, 0, 69, 64
2, 32071, Control_c, 0, 64, 68
2, 32086, Control_c, 0, 64, 70
2, 32093, Note_on_c, 0, 73, 0
2, 32102, Control_c, 0, 64, 71
2, 32117, Control_c, 0, 64, 71
2, 32151, Note_on_c, 0, 53, 0
2, 32162, Control_c, 0, 64, 71
2, 32186, Control_c, 0, 64, 69
2, 32201, Control_c, 0, 64, 64
2, 32216, Control_c, 0, 64, 42
2, 32228, Note_on_c, 0, 69, 0
2, 32231, Control_c, 0, 64, 0
2, 32233, Note_on_c, 0, 73, 69
2, 32236, Note_on_c, 0, 54, 64
2, 32245, Note_on_c, 0, 70, 62
2, 32337, Control_c, 0, 64, 38
2, 32352, Control_c, 0, 64, 63
2, 32367, Control_c, 0, 64, 66
2, 32383, Control_c, 0, 64, 67
2, 32398, Control_c, 0, 64, 69
2, 32414, Control_c, 0, 64, 71
2, 32428, Control_c, 0, 64, 72
2, 32443, Control_c, 0, 64, 73
2, 32474, Control_c, 0, 64, 72
2, 32489, Control_c, 0, 64, 70
2, 32501, Note_on_c, 0, 54, 0
2, 32504, Control_c, 0, 64, 64
2, 32520, Control_c, 0, 64, 0
2, 32522, Note_on_c, 0, 73, 0
2, 32541, Note_on_c, 0, 72, 63
2, 32546, Note_on_c, 0, 51, 65
2, 32612, Control_c, 0, 64, 33
2, 32627, Control_c, 0, 64, 64
2, 32642, Control_c, 0, 64, 66
2, 32657, Control_c, 0, 64, 68
2, 32663, Note_on_c, 0, 72, 0
2, 32672, Control_c, 0, 64, 69
2, 32687, Control_c, 0, 64, 71
2, 32694, Note_on_c, 0, 73, 68
2, 32703, Control_c, 0, 64, 72
2, 32718, Control_c, 0, 64, 73
2, 32779, Control_c, 0, 64, 71
2, 32779, Note_on_c, 0, 51, 0
2, 32794, Control_c, 0, 64, 65
2, 32810, Control_c, 0, 64, 26
2, 32825, Control_c, 0, 64, 0
2, 32844, Note_on_c, 0, 48, 67
2, 32847, Note_on_c, 0, 75, 73
2, 32853, Note_on_c, 0, 73, 0
2, 32898, Note_on_c, 0, 70, 0
2, 32931, Control_c, 0, 64, 61
2, 32946, Control_c, 0, 64, 67
2, 32969, Control_c, 0, 64, 70
2, 32984, Control_c, 0, 64, 73
2, 32999, Control_c, 0, 64, 76
2, 32999, Note_on_c, 0, 69, 70
2, 33004, Note_on_c, 0, 75, 0
2, 33015, Control_c, 0, 64, 78
2, 33030, Control_c, 0, 64, 79
2, 33052, Note_on_c, 0, 48, 0
2, 33091, Control_c, 0, 64, 77
2, 33106, Control_c, 0, 64, 73
2, 33120, Control_c, 0, 64, 62
2, 33136, Control_c, 0, 64, 0
2, 33144, Note_on_c, 0, 69, 0
2, 33160, Note_on_c, 0, 53, 65
2, 33161, Note_on_c, 0, 67, 71
2, 33166, Note_on_c, 0, 75, 73
2, 33242, Control_c, 0, 64, 50
2, 33258, Control_c, 0, 64, 65
2, 33272, Control_c, 0, 64, 69
2, 33272, Note_on_c, 0, 67, 0
2, 33287, Control_c, 0, 64, 71
2, 33303, Control_c, 0, 64, 73
2, 33309, Note_on_c, 0, 69, 65
2, 33317, Control_c, 0, 64, 75
2, 33333, Control_c, 0, 64, 76
2, 33340, Note_on_c, 0, 75, 0
2, 33349, Control_c, 0, 64, 76
2, 33380, Control_c, 0, 64, 76
2, 33395, Control_c, 0, 64, 74
2, 33406, Note_on_c, 0, 53, 0
2, 33411, Control_c, 0, 64, 69
2, 33425, Control_c, 0, 64, 59
2, 33439, Note_on_c, 0, 69, 0
2, 33440, Control_c, 0, 64, 0
2, 33493, Note_on_c, 0, 75, 69
2, 33495, Note_on_c, 0, 49, 62
2, 33497, Note_on_c, 0, 70, 60
2, 33578, Control_c, 0, 64, 62
2, 33593, Control_c, 0, 64, 67
2, 33599, Note_on_c, 0, 70, 0
2, 33609, Control_c, 0, 64, 72
2, 33623, Control_c, 0, 64, 75
2, 33638, Control_c, 0, 64, 78
2, 33654, Control_c, 0, 64, 79
2, 33668, Control_c, 0, 64, 80
2, 33694, Note_on_c, 0, 75, 0
2, 33695, Note_on_c, 0, 49, 0
2, 33737, Control_c, 0, 64, 79
2, 33752, Control_c, 0, 64, 75
2, 33767, Control_c, 0, 64, 66
2, 33782, Control_c, 0, 64, 0
2, 33803, Note_on_c, 0, 46, 68
2, 33815, Note_on_c, 0, 73, 51
2, 33816, Note_on_c, 0, 65, 51
2, 33859, Control_c, 0, 64, 62
2, 33869, Note_on_c, 0, 46, 0
2, 33874, Control_c, 0, 64, 69
2, 33889, Control_c, 0, 64, 73
2, 33904, Control_c, 0, 64, 75
2, 33919, Control_c, 0, 64, 76
2, 33935, Control_c, 0, 64, 78
2, 33950, Control_c, 0, 64, 79
2, 33950, Note_on_c, 0, 75, 66
2, 33955, Note_on_c, 0, 65, 0
2, 33964, Control_c, 0, 64, 79
2, 34055, Control_c, 0, 64, 77
2, 34070, Control_c, 0, 64, 72
2, 34085, Control_c, 0, 64, 61
2, 34098, Note_on_c, 0, 61, 64
2, 34100, Control_c, 0, 64, 0
2, 34101, Note_on_c, 0, 58, 66
2, 34111, Note_on_c, 0, 77, 66
2, 34114, Note_on_c, 0, 73, 0
2, 34154, Note_on_c, 0, 75, 0
2, 34177, Control_c, 0, 64, 25
2, 34192, Control_c, 0, 64, 62
2, 34207, Control_c, 0, 64, 67
2, 34223, Control_c, 0, 64, 71
2, 34238, Control_c, 0, 64, 74
2, 34254, Control_c, 0, 64, 77
2, 34263, Note_on_c, 0, 80, 77
2, 34266, Note_on_c, 0, 77, 0
2, 34268, Control_c, 0, 64, 79
2, 34275, Note_on_c, 0, 58, 0
2, 34282, Note_on_c, 0, 61, 0
2, 34283, Control_c, 0, 64, 79
2, 34299, Control_c, 0, 64, 80
2, 34360, Control_c, 0, 64, 79
2, 34376, Control_c, 0, 64, 75
2, 34390, Control_c, 0, 64, 65
2, 34402, Note_on_c, 0, 63, 66
2, 34405, Control_c, 0, 64, 0
2, 34406, Note_on_c, 0, 58, 62
2, 34409, Note_on_c, 0, 78, 77
2, 34436, Note_on_c, 0, 80, 0
2, 34504, Control_c, 0, 64, 63
2, 34519, Control_c, 0, 64, 68
2, 34535, Control_c, 0, 64, 71
2, 34539, Note_on_c, 0, 58, 0
2, 34544, Note_on_c, 0, 78, 0
2, 34550, Control_c, 0, 64, 73
2, 34554, Note_on_c, 0, 77, 74
2, 34556, Note_on_c, 0, 63, 0
2, 34565, Control_c, 0, 64, 74
2, 34567, Note_on_c, 0, 65, 66
2, 34580, Control_c, 0, 64, 75
2, 34595, Control_c, 0, 64, 76
2, 34657, Control_c, 0, 64, 75
2, 34671, Control_c, 0, 64, 74
2, 34686, Control_c, 0, 64, 71
2, 34702, Control_c, 0, 64, 66
2, 34702, Note_on_c, 0, 77, 0
2, 34717, Control_c, 0, 64, 62
2, 34720, Note_on_c, 0, 58, 67
2, 34720, Note_on_c, 0, 75, 69
2, 34722, Note_on_c, 0, 66, 66
2, 34732, Control_c, 0, 64, 59
2, 34745, Note_on_c, 0, 65, 0
2, 34747, Control_c, 0, 64, 55
2, 34762, Control_c, 0, 64, 50
2, 34778, Control_c, 0, 64, 44
2, 34793, Control_c, 0, 64, 40
2, 34839, Control_c, 0, 64, 39
2, 34855, Control_c, 0, 64, 37
2, 34870, Control_c, 0, 64, 33
2, 34884, Control_c, 0, 64, 31
2, 34889, Note_on_c, 0, 73, 67
2, 34900, Control_c, 0, 64, 30
2, 34992, Control_c, 0, 64, 29
2, 35007, Control_c, 0, 64, 28
2, 35022, Control_c, 0, 64, 26
2, 35039, Note_on_c, 0, 73, 0
2, 35045, Note_on_c, 0, 72, 66
2, 35050, Note_on_c, 0, 58, 0
2, 35060, Note_on_c, 0, 56, 59
2, 35066, Note_on_c, 0, 75, 0
2, 35083, Control_c, 0, 64, 25
2, 35113, Control_c, 0, 64, 28
2, 35129, Control_c, 0, 64, 31
2, 35144, Control_c, 0, 64, 33
2, 35174, Note_on_c, 0, 72, 0
2, 35189, Note_on_c, 0, 75, 63
2, 35195, Note_on_c, 0, 58, 58
2, 35205, Note_on_c, 0, 56, 0
2, 35250, Control_c, 0, 64, 30
2, 35273, Control_c, 0, 64, 21
2, 35289, Control_c, 0, 64, 0
2, 35355, Note_on_c, 0, 68, 67
2, 35365, Note_on_c, 0, 60, 65
2, 35402, Note_on_c, 0, 58, 0
2, 35430, Note_on_c, 0, 75, 0
2, 35455, Control_c, 0, 64, 53
2, 35470, Control_c, 0, 64, 66
2, 35485, Control_c, 0, 64, 69
2, 35501, Control_c, 0, 64, 73
2, 35510, Note_on_c, 0, 60, 0
2, 35510, Note_on_c, 0, 66, 0
2, 35512, Note_on_c, 0, 65, 71
2, 35516, Control_c, 0, 64, 76
2, 35531, Control_c, 0, 64, 78
2, 35546, Control_c, 0, 64, 79
2, 35561, Control_c, 0, 64, 79
2, 35623, Control_c, 0, 64, 78
2, 35626, Note_on_c, 0, 65, 0
2, 35638, Control_c, 0, 64, 74
2, 35653, Control_c, 0, 64, 66
2, 35668, Control_c, 0, 64, 0
2, 35673, Note_on_c, 0, 60, 68
2, 35675, Note_on_c, 0, 63, 68
2, 35759, Control_c, 0, 64, 46
2, 35774, Control_c, 0, 64, 66
2, 35789, Control_c, 0, 64, 70
2, 35805, Control_c, 0, 64, 74
2, 35816, Note_on_c, 0, 66, 73
2, 35821, Control_c, 0, 64, 76
2, 35822, Note_on_c, 0, 63, 0
2, 35831, Note_on_c, 0, 60, 0
2, 35836, Control_c, 0, 64, 78
2, 35852, Control_c, 0, 64, 78
2, 35867, Control_c, 0, 64, 79
2, 35922, Note_on_c, 0, 68, 0
2, 35927, Control_c, 0, 64, 78
2, 35930, Note_on_c, 0, 66, 0
2, 35942, Control_c, 0, 64, 75
2, 35957, Control_c, 0, 64, 68
2, 35973, Control_c, 0, 64, 36
2, 35973, Note_on_c, 0, 60, 67
2, 35975, Note_on_c, 0, 65, 67
2, 35976, Note_on_c, 0, 73, 69
2, 35988, Control_c, 0, 64, 0
2, 36117, Control_c, 0, 64, 55
2, 36132, Control_c, 0, 64, 64
2, 36137, Note_on_c, 0, 65, 0
2, 36142, Note_on_c, 0, 63, 67
2, 36147, Control_c, 0, 64, 65
2, 36162, Control_c, 0, 64, 65
2, 36223, Control_c, 0, 64, 65
2, 36228, Note_on_c, 0, 60, 0
2, 36238, Control_c, 0, 64, 64
2, 36254, Control_c, 0, 64, 63
2, 36269, Control_c, 0, 64, 59
2, 36283, Control_c, 0, 64, 50
2, 36290, Note_on_c, 0, 63, 0
2, 36292, Note_on_c, 0, 58, 63
2, 36294, Note_on_c, 0, 61, 68
2, 36299, Control_c, 0, 64, 29
2, 36314, Control_c, 0, 64, 0
2, 36422, Note_on_c, 0, 63, 62
2, 36433, Note_on_c, 0, 61, 0
2, 36435, Note_on_c, 0, 60, 76
2, 36464, Note_on_c, 0, 58, 0
2, 36591, Note_on_c, 0, 63, 0
2, 36594, Note_on_c, 0, 65, 74
2, 36598, Note_on_c, 0, 61, 74
2, 36600, Note_on_c, 0, 60, 0
2, 36725, Control_c, 0, 64, 52
2, 36741, Control_c, 0, 64, 62
2, 36743, Note_on_c, 0, 66, 72
2, 36748, Note_on_c, 0, 65, 0
2, 36756, Control_c, 0, 64, 64
2, 36771, Control_c, 0, 64, 64
2, 36786, Control_c, 0, 64, 65
2, 36818, Note_on_c, 0, 61, 0
2, 36870, Control_c, 0, 64, 63
2, 36885, Control_c, 0, 64, 58
2, 36901, Control_c, 0, 64, 22
2, 36907, Note_on_c, 0, 68, 76
2, 36912, Note_on_c, 0, 61, 75
2, 36916, Control_c, 0, 64, 0
2, 36925, Note_on_c, 0, 73, 0
2, 36929, Note_on_c, 0, 66, 0
2, 37022, Control_c, 0, 64, 49
2, 37037, Control_c, 0, 64, 66
2, 37052, Control_c, 0, 64, 71
2, 37067, Control_c, 0, 64, 74
2, 37068, Note_on_c, 0, 65, 73
2, 37082, Control_c, 0, 64, 76
2, 37091, Note_on_c, 0, 65, 0
2, 37095, Note_on_c, 0, 68, 0
2, 37098, Control_c, 0, 64, 77
2, 37113, Control_c, 0, 64, 77
2, 37115, Note_on_c, 0, 61, 0
2, 37127, Control_c, 0, 64, 78
2, 37188, Control_c, 0, 64, 77
2, 37203, Control_c, 0, 64, 76
2, 37219, Control_c, 0, 64, 73
2, 37220, Note_on_c, 0, 61, 72
2, 37220, Note_on_c, 0, 66, 69
2, 37234, Control_c, 0, 64, 68
2, 37250, Control_c, 0, 64, 61
2, 37265, Control_c, 0, 64, 54
2, 37280, Control_c, 0, 64, 51
2, 37295, Control_c, 0, 64, 51
2, 37310, Control_c, 0, 64, 49
2, 37325, Control_c, 0, 64, 42
2, 37341, Control_c, 0, 64, 25
2, 37356, Control_c, 0, 64, 10
2, 37373, Note_on_c, 0, 70, 67
2, 37386, Control_c, 0, 64, 13
2, 37401, Control_c, 0, 64, 10
2, 37417, Control_c, 0, 64, 0
2, 37523, Note_on_c, 0, 60, 59
2, 37532, Note_on_c, 0, 72, 71
2, 37533, Note_on_c, 0, 70, 0
2, 37548, Note_on_c, 0, 61, 0
2, 37683, Control_c, 0, 64, 34
2, 37683, Note_on_c, 0, 60, 0
2, 37686, Note_on_c, 0, 73, 73
2, 37691, Note_on_c, 0, 58, 59
2, 37699, Control_c, 0, 64, 50
2, 37714, Control_c, 0, 64, 57
2, 37730, Control_c, 0, 64, 59
2, 37736, Note_on_c, 0, 72, 0
2, 37745, Control_c, 0, 64, 60
2, 37760, Control_c, 0, 64, 59
2, 37775, Control_c, 0, 64, 57
2, 37790, Control_c, 0, 64, 49
2, 37805, Control_c, 0, 64, 0
2, 37842, Note_on_c, 0, 60, 60
2, 37846, Note_on_c, 0, 75, 75
2, 37862, Note_on_c, 0, 58, 0
2, 37895, Note_on_c, 0, 73, 0
2, 37926, Control_c, 0, 64, 58
2, 37942, Control_c, 0, 64, 67
2, 37957, Control_c, 0, 64, 71
2, 37965, Note_on_c, 0, 66, 0
2, 37973, Control_c, 0, 64, 74
2, 37987, Control_c, 0, 64, 76
2, 37995, Note_on_c, 0, 77, 81
2, 38002, Control_c, 0, 64, 78
2, 38018, Control_c, 0, 64, 79
2, 38024, Note_on_c, 0, 75, 0
2, 38032, Control_c, 0, 64, 80
2, 38057, Note_on_c, 0, 60, 0
2, 38123, Control_c, 0, 64, 78
2, 38139, Control_c, 0, 64, 71
2, 38154, Control_c, 0, 64, 59
2, 38157, Note_on_c, 0, 61, 58
2, 38157, Note_on_c, 0, 63, 62
2, 38159, Note_on_c, 0, 78, 78
2, 38170, Control_c, 0, 64, 0
2, 38183, Note_on_c, 0, 77, 0
2, 38276, Control_c, 0, 64, 56
2, 38292, Control_c, 0, 64, 65
2, 38307, Control_c, 0, 64, 69
2, 38311, Note_on_c, 0, 75, 81
2, 38322, Control_c, 0, 64, 72
2, 38345, Control_c, 0, 64, 75
2, 38358, Note_on_c, 0, 78, 0
2, 38360, Control_c, 0, 64, 77
2, 38376, Control_c, 0, 64, 79
2, 38391, Control_c, 0, 64, 79
2, 38406, Control_c, 0, 64, 80
2, 38436, Note_on_c, 0, 61, 0
2, 38481, Control_c, 0, 64, 79
2, 38497, Control_c, 0, 64, 75
2, 38504, Note_on_c, 0, 77, 78
2, 38505, Note_on_c, 0, 60, 46
2, 38512, Control_c, 0, 64, 65
2, 38513, Note_on_c, 0, 63, 0
2, 38515, Note_on_c, 0, 75, 0
2, 38517, Note_on_c, 0, 56, 43
2, 38527, Control_c, 0, 64, 0
2, 38632, Note_on_c, 0, 60, 0
2, 38634, Control_c, 0, 64, 45
2, 38650, Control_c, 0, 64, 60
2, 38664, Control_c, 0, 64, 63
2, 38668, Note_on_c, 0, 66, 57
2, 38671, Note_on_c, 0, 75, 70
2, 38679, Control_c, 0, 64, 65
2, 38695, Control_c, 0, 64, 65
2, 38710, Control_c, 0, 64, 66
2, 38719, Note_on_c, 0, 77, 0
2, 38725, Control_c, 0, 64, 67
2, 38786, Control_c, 0, 64, 66
2, 38800, Control_c, 0, 64, 63
2, 38816, Control_c, 0, 64, 42
2, 38830, Note_on_c, 0, 73, 67
2, 38831, Control_c, 0, 64, 0
2, 38836, Note_on_c, 0, 65, 50
2, 38845, Note_on_c, 0, 75, 0
2, 38858, Note_on_c, 0, 66, 0
2, 38922, Control_c, 0, 64, 57
2, 38937, Control_c, 0, 64, 67
2, 38952, Control_c, 0, 64, 71
2, 38960, Note_on_c, 0, 65, 0
2, 38965, Note_on_c, 0, 63, 62
2, 38967, Control_c, 0, 64, 75
2, 38976, Note_on_c, 0, 72, 71
2, 38983, Control_c, 0, 64, 77
2, 38992, Note_on_c, 0, 73, 0
2, 38998, Control_c, 0, 64, 78
2, 39014, Control_c, 0, 64, 79
2, 39029, Note_on_c, 0, 63, 0
2, 39045, Note_on_c, 0, 72, 0
2, 39078, Note_on_c, 0, 56, 0
2, 39113, Control_c, 0, 64, 77
2, 39129, Control_c, 0, 64, 74
2, 39141, Note_on_c, 0, 73, 74
2, 39144, Control_c, 0, 64, 68
2, 39156, Note_on_c, 0, 65, 56
2, 39159, Control_c, 0, 64, 60
2, 39175, Control_c, 0, 64, 36
2, 39189, Control_c, 0, 64, 21
2, 39204, Control_c, 0, 64, 0
2, 39301, Note_on_c, 0, 49, 51
2, 39341, Control_c, 0, 64, 22
2, 39356, Control_c, 0, 64, 47
2, 39372, Control_c, 0, 64, 57
2, 39386, Control_c, 0, 64, 59
2, 39400, Note_on_c, 0, 73, 0
2, 39401, Control_c, 0, 64, 56
2, 39417, Control_c, 0, 64, 53
2, 39432, Control_c, 0, 64, 44
2, 39447, Control_c, 0, 64, 0
2, 39459, Note_on_c, 0, 51, 48
2, 39460, Note_on_c, 0, 68, 68
2, 39576, Note_on_c, 0, 51, 0
2, 39588, Note_on_c, 0, 49, 0
2, 39594, Note_on_c, 0, 53, 57
2, 39599, Control_c, 0, 64, 62
2, 39615, Control_c, 0, 64, 67
2, 39630, Control_c, 0, 64, 69
2, 39644, Control_c, 0, 64, 71
2, 39660, Control_c, 0, 64, 72
2, 39675, Control_c, 0, 64, 72
2, 39720, Control_c, 0, 64, 72
2, 39725, Note_on_c, 0, 53, 0
2, 39736, Control_c, 0, 64, 69
2, 39750, Note_on_c, 0, 68, 0
2, 39751, Control_c, 0, 64, 64
2, 39765, Note_on_c, 0, 54, 49
2, 39766, Control_c, 0, 64, 38
2, 39766, Note_on_c, 0, 70, 74
2, 39782, Control_c, 0, 64, 0
2, 39897, Control_c, 0, 64, 57
2, 39907, Note_on_c, 0, 54, 0
2, 39912, Control_c, 0, 64, 64
2, 39927, Control_c, 0, 64, 66
2, 39927, Note_on_c, 0, 56, 55
2, 39943, Control_c, 0, 64, 68
2, 39957, Control_c, 0, 64, 70
2, 39973, Control_c, 0, 64, 72
2, 39988, Control_c, 0, 64, 72
2, 40025, Note_on_c, 0, 70, 0
2, 40049, Control_c, 0, 64, 70
2, 40064, Control_c, 0, 64, 66
2, 40078, Control_c, 0, 64, 48
2, 40080, Note_on_c, 0, 58, 54
2, 40086, Note_on_c, 0, 66, 68
2, 40090, Note_on_c, 0, 63, 55
2, 40094, Control_c, 0, 64, 0
2, 40109, Note_on_c, 0, 65, 0
2, 40143, Note_on_c, 0, 56, 0
2, 40200, Control_c, 0, 64, 54
2, 40214, Note_on_c, 0, 58, 0
2, 40216, Control_c, 0, 64, 64
2, 40230, Control_c, 0, 64, 65
2, 40230, Note_on_c, 0, 54, 49
2, 40240, Note_on_c, 0, 61, 63
2, 40241, Note_on_c, 0, 63, 0
2, 40245, Control_c, 0, 64, 66
2, 40261, Control_c, 0, 64, 66
2, 40292, Control_c, 0, 64, 67
2, 40322, Control_c, 0, 64, 66
2, 40337, Control_c, 0, 64, 65
2, 40352, Control_c, 0, 64, 61
2, 40366, Note_on_c, 0, 54, 0
2, 40367, Control_c, 0, 64, 47
2, 40383, Control_c, 0, 64, 0
2, 40388, Note_on_c, 0, 66, 0
2, 40390, Note_on_c, 0, 61, 0
2, 40394, Note_on_c, 0, 63, 65
2, 40395, Note_on_c, 0, 56, 49
2, 40409, Note_on_c, 0, 60, 51
2, 40520, Note_on_c, 0, 60, 0
2, 40535, Control_c, 0, 64, 54
2, 40545, Note_on_c, 0, 61, 57
2, 40550, Control_c, 0, 64, 64
2, 40564, Control_c, 0, 64, 65
2, 40649, Control_c, 0, 64, 64
2, 40664, Control_c, 0, 64, 60
2, 40679, Control_c, 0, 64, 38
2, 40694, Control_c, 0, 64, 0
2, 40696, Note_on_c, 0, 61, 0
2, 40705, Note_on_c, 0, 63, 0
2, 40709, Note_on_c, 0, 68, 64
2, 40712, Note_on_c, 0, 58, 58
2, 40817, Control_c, 0, 64, 58
2, 40832, Control_c, 0, 64, 65
2, 40847, Control_c, 0, 64, 66
2, 40856, Note_on_c, 0, 60, 61
2, 40863, Control_c, 0, 64, 67
2, 40873, Note_on_c, 0, 58, 0
2, 40877, Control_c, 0, 64, 69
2, 40893, Control_c, 0, 64, 70
2, 40908, Control_c, 0, 64, 71
2, 40922, Control_c, 0, 64, 72
2, 40951, Note_on_c, 0, 68, 0
2, 40969, Control_c, 0, 64, 72
2, 40984, Control_c, 0, 64, 70
2, 40998, Control_c, 0, 64, 65
2, 41012, Note_on_c, 0, 60, 0
2, 41014, Control_c, 0, 64, 32
2, 41020, Note_on_c, 0, 65, 59
2, 41029, Control_c, 0, 64, 0
2, 41029, Note_on_c, 0, 61, 50
2, 41030, Note_on_c, 0, 49, 43
2, 41071, Note_on_c, 0, 56, 0
2, 41135, Control_c, 0, 64, 47
2, 41150, Control_c, 0, 64, 64
2, 41165, Control_c, 0, 64, 69
2, 41169, Note_on_c, 0, 53, 47
2, 41181, Control_c, 0, 64, 71
2, 41196, Control_c, 0, 64, 73
2, 41212, Control_c, 0, 64, 75
2, 41227, Control_c, 0, 64, 76
2, 41246, Note_on_c, 0, 61, 0
2, 41259, Note_on_c, 0, 49, 0
2, 41287, Control_c, 0, 64, 74
2, 41303, Control_c, 0, 64, 68
2, 41315, Note_on_c, 0, 65, 0
2, 41318, Control_c, 0, 64, 41
2, 41323, Note_on_c, 0, 53, 0
2, 41331, Note_on_c, 0, 54, 42
2, 41333, Control_c, 0, 64, 0
2, 41338, Note_on_c, 0, 61, 57
2, 41394, Control_c, 0, 64, 41
2, 41417, Control_c, 0, 64, 64
2, 41432, Control_c, 0, 64, 68
2, 41447, Control_c, 0, 64, 71
2, 41462, Control_c, 0, 64, 73
2, 41473, Note_on_c, 0, 54, 0
2, 41477, Control_c, 0, 64, 74
2, 41493, Control_c, 0, 64, 74
2, 41501, Note_on_c, 0, 56, 45
2, 41600, Control_c, 0, 64, 73
2, 41615, Control_c, 0, 64, 68
2, 41615, Note_on_c, 0, 61, 0
2, 41630, Control_c, 0, 64, 51
2, 41645, Control_c, 0, 64, 0
2, 41653, Note_on_c, 0, 70, 52
2, 41665, Note_on_c, 0, 73, 50
2, 41667, Note_on_c, 0, 58, 45
2, 41676, Note_on_c, 0, 56, 0
2, 41792, Note_on_c, 0, 58, 0
2, 41802, Note_on_c, 0, 70, 0
2, 41807, Note_on_c, 0, 68, 58
2, 41818, Note_on_c, 0, 60, 51
2, 41826, Note_on_c, 0, 73, 0
2, 41918, Note_on_c, 0, 60, 0
2, 41960, Note_on_c, 0, 61, 50
2, 41970, Note_on_c, 0, 68, 0
2, 41970, Note_on_c, 0, 73, 66
2, 41974, Note_on_c, 0, 66, 55
2, 42101, Note_on_c, 0, 66, 0
2, 42110, Note_on_c, 0, 58, 47
2, 42116, Note_on_c, 0, 61, 0
2, 42119, Note_on_c, 0, 65, 61
2, 42148, Note_on_c, 0, 73, 0
2, 42247, Note_on_c, 0, 65, 0
2, 42285, Note_on_c, 0, 58, 0
2, 42289, Note_on_c, 0, 73, 63
2, 42291, Note_on_c, 0, 63, 51
2, 42293, Note_on_c, 0, 66, 61
2, 42425, Note_on_c, 0, 63, 0
2, 42444, Control_c, 0, 64, 16
2, 42444, Note_on_c, 0, 65, 53
2, 42460, Control_c, 0, 64, 58
2, 42475, Control_c, 0, 64, 60
2, 42490, Control_c, 0, 64, 59
2, 42520, Control_c, 0, 64, 59
2, 42535, Control_c, 0, 64, 58
2, 42550, Control_c, 0, 64, 53
2, 42565, Control_c, 0, 64, 37
2, 42573, Note_on_c, 0, 73, 0
2, 42581, Control_c, 0, 64, 0
2, 42594, Note_on_c, 0, 72, 62
2, 42605, Note_on_c, 0, 63, 47
2, 42607, Note_on_c, 0, 65, 0
2, 42717, Control_c, 0, 64, 48
2, 42732, Control_c, 0, 64, 55
2, 42737, Note_on_c, 0, 73, 65
2, 42739, Note_on_c, 0, 63, 0
2, 42739, Note_on_c, 0, 72, 0
2, 42747, Control_c, 0, 64, 56
2, 42752, Note_on_c, 0, 61, 49
2, 42762, Control_c, 0, 64, 57
2, 42778, Control_c, 0, 64, 59
2, 42783, Note_on_c, 0, 66, 0
2, 42793, Control_c, 0, 64, 59
2, 42807, Control_c, 0, 64, 59
2, 42823, Control_c, 0, 64, 57
2, 42838, Control_c, 0, 64, 48
2, 42854, Control_c, 0, 64, 0
2, 42872, Note_on_c, 0, 61, 0
2, 42901, Note_on_c, 0, 75, 68
2, 42910, Note_on_c, 0, 60, 48
2, 42911, Note_on_c, 0, 68, 47
2, 42914, Note_on_c, 0, 73, 0
2, 43014, Control_c, 0, 64, 60
2, 43028, Control_c, 0, 64, 67
2, 43043, Control_c, 0, 64, 69
2, 43059, Control_c, 0, 64, 70
2, 43063, Note_on_c, 0, 68, 0
2, 43064, Note_on_c, 0, 66, 69
2, 43066, Note_on_c, 0, 75, 0
2, 43073, Control_c, 0, 64, 71
2, 43079, Note_on_c, 0, 60, 0
2, 43089, Control_c, 0, 64, 72
2, 43104, Control_c, 0, 64, 73
2, 43119, Control_c, 0, 64, 74
2, 43181, Control_c, 0, 64, 73
2, 43196, Control_c, 0, 64, 69
2, 43212, Control_c, 0, 64, 59
2, 43222, Note_on_c, 0, 75, 75
2, 43223, Note_on_c, 0, 56, 55
2, 43226, Note_on_c, 0, 65, 55
2, 43227, Control_c, 0, 64, 0
2, 43286, Note_on_c, 0, 66, 0
2, 43318, Control_c, 0, 64, 34
2, 43334, Control_c, 0, 64, 62
2, 43349, Control_c, 0, 64, 65
2, 43364, Control_c, 0, 64, 67
2, 43375, Note_on_c, 0, 63, 66
2, 43379, Control_c, 0, 64, 68
2, 43385, Note_on_c, 0, 65, 0
2, 43394, Control_c, 0, 64, 70
2, 43410, Control_c, 0, 64, 72
2, 43425, Control_c, 0, 64, 73
2, 43435, Note_on_c, 0, 75, 0
2, 43470, Control_c, 0, 64, 72
2, 43485, Control_c, 0, 64, 70
2, 43485, Note_on_c, 0, 56, 0
2, 43500, Control_c, 0, 64, 64
2, 43515, Control_c, 0, 64, 27
2, 43518, Note_on_c, 0, 63, 0
2, 43531, Control_c, 0, 64, 0
2, 43532, Note_on_c, 0, 75, 76
2, 43536, Note_on_c, 0, 65, 66
2, 43539, Note_on_c, 0, 61, 63
2, 43637, Control_c, 0, 64, 29
2, 43652, Control_c, 0, 64, 60
2, 43667, Control_c, 0, 64, 64
2, 43682, Control_c, 0, 64, 65
2, 43694, Note_on_c, 0, 63, 65
2, 43697, Note_on_c, 0, 65, 0
2, 43698, Control_c, 0, 64, 67
2, 43720, Control_c, 0, 64, 68
2, 43736, Control_c, 0, 64, 69
2, 43782, Control_c, 0, 64, 69
2, 43796, Control_c, 0, 64, 66
2, 43812, Control_c, 0, 64, 51
2, 43827, Control_c, 0, 64, 0
2, 43852, Note_on_c, 0, 63, 0
2, 43859, Note_on_c, 0, 65, 65
2, 43867, Note_on_c, 0, 73, 75
2, 43871, Note_on_c, 0, 75, 0
2, 43917, Control_c, 0, 64, 39
2, 43933, Control_c, 0, 64, 63
2, 43948, Control_c, 0, 64, 65
2, 43963, Control_c, 0, 64, 67
2, 43979, Control_c, 0, 64, 70
2, 43995, Control_c, 0, 64, 72
2, 43997, Note_on_c, 0, 65, 0
2, 44011, Control_c, 0, 64, 76
2, 44011, Note_on_c, 0, 75, 82
2, 44025, Control_c, 0, 64, 79
2, 44026, Note_on_c, 0, 73, 0
2, 44027, Note_on_c, 0, 66, 67
2, 44039, Control_c, 0, 64, 80
2, 44055, Control_c, 0, 64, 81
2, 44058, Note_on_c, 0, 61, 0
2, 44082, Note_on_c, 0, 66, 0
2, 44132, Control_c, 0, 64, 78
2, 44146, Control_c, 0, 64, 72
2, 44161, Control_c, 0, 64, 59
2, 44165, Note_on_c, 0, 77, 84
2, 44176, Note_on_c, 0, 68, 66
2, 44177, Control_c, 0, 64, 0
2, 44193, Note_on_c, 0, 75, 0
2, 44253, Control_c, 0, 64, 28
2, 44268, Control_c, 0, 64, 64
2, 44283, Control_c, 0, 64, 69
2, 44298, Control_c, 0, 64, 74
2, 44313, Control_c, 0, 64, 80
2, 44315, Note_on_c, 0, 70, 69
2, 44329, Control_c, 0, 64, 84
2, 44343, Control_c, 0, 64, 86
2, 44358, Control_c, 0, 64, 87
2, 44374, Control_c, 0, 64, 88
2, 44378, Note_on_c, 0, 77, 0
2, 44411, Note_on_c, 0, 68, 0
2, 44417, Note_on_c, 0, 70, 0
2, 44434, Control_c, 0, 64, 86
2, 44450, Control_c, 0, 64, 79
2, 44465, Control_c, 0, 64, 67
2, 44471, Note_on_c, 0, 72, 73
2, 44483, Note_on_c, 0, 56, 64
2, 44483, Note_on_c, 0, 77, 82
2, 44489, Control_c, 0, 64, 0
2, 44563, Control_c, 0, 64, 63
2, 44579, Control_c, 0, 64, 69
2, 44594, Control_c, 0, 64, 74
2, 44610, Control_c, 0, 64, 78
2, 44625, Control_c, 0, 64, 81
2, 44627, Note_on_c, 0, 72, 0
2, 44633, Note_on_c, 0, 68, 75
2, 44639, Control_c, 0, 64, 84
2, 44655, Control_c, 0, 64, 85
2, 44669, Note_on_c, 0, 68, 0
2, 44670, Control_c, 0, 64, 86
2, 44683, Note_on_c, 0, 77, 0
2, 44684, Control_c, 0, 64, 86
2, 44746, Control_c, 0, 64, 86
2, 44761, Control_c, 0, 64, 85
2, 44773, Note_on_c, 0, 56, 0
2, 44777, Control_c, 0, 64, 83
2, 44792, Control_c, 0, 64, 77
2, 44795, Note_on_c, 0, 77, 83
2, 44797, Note_on_c, 0, 58, 66
2, 44806, Note_on_c, 0, 73, 66
2, 44807, Control_c, 0, 64, 70
2, 44823, Control_c, 0, 64, 60
2, 44838, Control_c, 0, 64, 0
2, 44966, Note_on_c, 0, 56, 63
2, 44967, Note_on_c, 0, 58, 0
2, 45082, Note_on_c, 0, 56, 0
2, 45095, Note_on_c, 0, 77, 0
2, 45105, Note_on_c, 0, 75, 68
2, 45109, Note_on_c, 0, 55, 59
2, 45256, Note_on_c, 0, 53, 63
2, 45263, Note_on_c, 0, 55, 0
2, 45264, Note_on_c, 0, 77, 81
2, 45266, Note_on_c, 0, 75, 0
2, 45406, Note_on_c, 0, 51, 66
2, 45406, Note_on_c, 0, 79, 79
2, 45410, Note_on_c, 0, 53, 0
2, 45413, Note_on_c, 0, 77, 0
2, 45562, Note_on_c, 0, 80, 85
2, 45569, Note_on_c, 0, 49, 65
2, 45588, Note_on_c, 0, 79, 0
2, 45593, Note_on_c, 0, 51, 0
2, 45718, Note_on_c, 0, 49, 0
2, 45724, Note_on_c, 0, 82, 85
2, 45727, Note_on_c, 0, 48, 62
2, 45739, Note_on_c, 0, 80, 0
2, 45881, Note_on_c, 0, 79, 83
2, 45883, Note_on_c, 0, 48, 0
2, 45893, Note_on_c, 0, 82, 0
2, 45938, Note_on_c, 0, 45, 29
2, 46032, Note_on_c, 0, 45, 0
2, 46076, Note_on_c, 0, 80, 85
2, 46078, Note_on_c, 0, 44, 64
2, 46079, Note_on_c, 0, 79, 0
2, 46102, Note_on_c, 0, 73, 0
2, 46251, Note_on_c, 0, 46, 69
2, 46315, Note_on_c, 0, 44, 0
2, 46384, Note_on_c, 0, 46, 0
2, 46392, Note_on_c, 0, 75, 67
2, 46404, Note_on_c, 0, 48, 59
2, 46547, Note_on_c, 0, 49, 63
2, 46553, Note_on_c, 0, 73, 66
2, 46554, Note_on_c, 0, 48, 0
2, 46591, Note_on_c, 0, 75, 0
2, 46707, Note_on_c, 0, 72, 69
2, 46719, Note_on_c, 0, 51, 60
2, 46720, Note_on_c, 0, 49, 0
2, 46731, Note_on_c, 0, 73, 0
2, 46836, Note_on_c, 0, 51, 0
2, 46869, Note_on_c, 0, 53, 59
2, 46997, Note_on_c, 0, 72, 0
2, 47013, Note_on_c, 0, 75, 75
2, 47027, Note_on_c, 0, 54, 62
2, 47028, Note_on_c, 0, 53, 0
2, 47139, Control_c, 0, 64, 44
2, 47154, Control_c, 0, 64, 67
2, 47169, Control_c, 0, 64, 71
2, 47176, Note_on_c, 0, 51, 64
2, 47184, Note_on_c, 0, 54, 0
2, 47185, Control_c, 0, 64, 74
2, 47200, Control_c, 0, 64, 75
2, 47214, Control_c, 0, 64, 76
2, 47230, Control_c, 0, 64, 77
2, 47277, Control_c, 0, 64, 76
2, 47292, Control_c, 0, 64, 75
2, 47308, Control_c, 0, 64, 73
2, 47309, Note_on_c, 0, 51, 0
2, 47322, Control_c, 0, 64, 69
2, 47330, Note_on_c, 0, 53, 65
2, 47331, Note_on_c, 0, 68, 75
2, 47338, Control_c, 0, 64, 60
2, 47338, Note_on_c, 0, 75, 0
2, 47353, Control_c, 0, 64, 39
2, 47368, Control_c, 0, 64, 18
2, 47384, Control_c, 0, 64, 19
2, 47398, Control_c, 0, 64, 24
2, 47413, Control_c, 0, 64, 19
2, 47429, Control_c, 0, 64, 0
2, 47476, Note_on_c, 0, 53, 0
2, 47477, Note_on_c, 0, 51, 64
2, 47633, Note_on_c, 0, 51, 0
2, 47643, Note_on_c, 0, 77, 73
2, 47645, Note_on_c, 0, 49, 60
2, 47649, Control_c, 0, 64, 10
2, 47710, Control_c, 0, 64, 13
2, 47724, Control_c, 0, 64, 19
2, 47739, Note_on_c, 0, 68, 0
2, 47740, Control_c, 0, 64, 21
2, 47755, Control_c, 0, 64, 22
2, 47793, Note_on_c, 0, 75, 77
2, 47798, Note_on_c, 0, 51, 61
2, 47816, Note_on_c, 0, 49, 0
2, 47818, Note_on_c, 0, 77, 0
2, 47832, Control_c, 0, 64, 24
2, 47944, Note_on_c, 0, 51, 0
2, 47956, Note_on_c, 0, 73, 79
2, 47962, Note_on_c, 0, 53, 66
2, 47984, Control_c, 0, 64, 22
2, 48003, Note_on_c, 0, 75, 0
2, 48090, Control_c, 0, 64, 24
2, 48106, Control_c, 0, 64, 30
2, 48107, Note_on_c, 0, 55, 62
2, 48111, Note_on_c, 0, 53, 0
2, 48121, Control_c, 0, 64, 39
2, 48137, Control_c, 0, 64, 48
2, 48152, Control_c, 0, 64, 52
2, 48166, Control_c, 0, 64, 53
2, 48182, Control_c, 0, 64, 53
2, 48197, Control_c, 0, 64, 52
2, 48206, Note_on_c, 0, 73, 0
2, 48211, Control_c, 0, 64, 51
2, 48227, Control_c, 0, 64, 45
2, 48242, Control_c, 0, 64, 30
2, 48244, Note_on_c, 0, 55, 0
2, 48258, Control_c, 0, 64, 0
2, 48260, Note_on_c, 0, 72, 75
2, 48264, Note_on_c, 0, 56, 66
2, 48391, Note_on_c, 0, 56, 0
2, 48409, Note_on_c, 0, 53, 64
2, 48417, Control_c, 0, 64, 29
2, 48432, Control_c, 0, 64, 64
2, 48447, Control_c, 0, 64, 68
2, 48463, Control_c, 0, 64, 70
2, 48466, Note_on_c, 0, 72, 0
2, 48478, Control_c, 0, 64, 72
2, 48492, Control_c, 0, 64, 72
2, 48554, Control_c, 0, 64, 72
2, 48565, Note_on_c, 0, 61, 66
2, 48566, Note_on_c, 0, 53, 0
2, 48569, Control_c, 0, 64, 71
2, 48570, Note_on_c, 0, 70, 73
2, 48584, Control_c, 0, 64, 68
2, 48599, Control_c, 0, 64, 64
2, 48614, Control_c, 0, 64, 52
2, 48630, Control_c, 0, 64, 30
2, 48645, Control_c, 0, 64, 26
2, 48661, Control_c, 0, 64, 27
2, 48676, Control_c, 0, 64, 24
2, 48691, Control_c, 0, 64, 0
2, 48720, Note_on_c, 0, 61, 0
2, 48737, Note_on_c, 0, 60, 66
2, 48828, Control_c, 0, 64, 10
2, 48880, Note_on_c, 0, 80, 0
2, 48889, Note_on_c, 0, 60, 0
2, 48891, Note_on_c, 0, 58, 60
2, 48899, Note_on_c, 0, 79, 69
2, 48920, Control_c, 0, 64, 0
2, 49027, Control_c, 0, 64, 16
2, 49036, Note_on_c, 0, 80, 79
2, 49038, Note_on_c, 0, 56, 65
2, 49041, Note_on_c, 0, 58, 0
2, 49042, Control_c, 0, 64, 25
2, 49057, Control_c, 0, 64, 34
2, 49072, Control_c, 0, 64, 38
2, 49074, Note_on_c, 0, 79, 0
2, 49094, Control_c, 0, 64, 38
2, 49125, Control_c, 0, 64, 38
2, 49140, Control_c, 0, 64, 33
2, 49155, Control_c, 0, 64, 22
2, 49167, Note_on_c, 0, 56, 0
2, 49170, Control_c, 0, 64, 0
2, 49189, Note_on_c, 0, 55, 64
2, 49207, Note_on_c, 0, 82, 83
2, 49244, Note_on_c, 0, 80, 0
2, 49308, Control_c, 0, 64, 66
2, 49316, Note_on_c, 0, 82, 0
2, 49323, Control_c, 0, 64, 73
2, 49337, Note_on_c, 0, 53, 63
2, 49338, Control_c, 0, 64, 78
2, 49345, Note_on_c, 0, 70, 0
2, 49353, Control_c, 0, 64, 79
2, 49358, Note_on_c, 0, 55, 0
2, 49368, Control_c, 0, 64, 80
2, 49473, Control_c, 0, 64, 79
2, 49488, Control_c, 0, 64, 79
2, 49498, Note_on_c, 0, 53, 0
2, 49504, Control_c, 0, 64, 77
2, 49509, Note_on_c, 0, 73, 79
2, 49513, Note_on_c, 0, 51, 58
2, 49513, Note_on_c, 0, 70, 72
2, 49519, Control_c, 0, 64, 75
2, 49534, Control_c, 0, 64, 72
2, 49550, Control_c, 0, 64, 67
2, 49565, Control_c, 0, 64, 63
2, 49581, Control_c, 0, 64, 60
2, 49595, Control_c, 0, 64, 60
2, 49626, Control_c, 0, 64, 60
2, 49634, Note_on_c, 0, 51, 0
2, 49641, Control_c, 0, 64, 59
2, 49652, Note_on_c, 0, 55, 56
2, 49657, Control_c, 0, 64, 59
2, 49671, Control_c, 0, 64, 58
2, 49702, Control_c, 0, 64, 57
2, 49718, Control_c, 0, 64, 54
2, 49733, Control_c, 0, 64, 52
2, 49749, Control_c, 0, 64, 51
2, 49764, Control_c, 0, 64, 52
2, 49803, Note_on_c, 0, 55, 0
2, 49810, Note_on_c, 0, 48, 62
2, 49839, Control_c, 0, 64, 52
2, 49862, Control_c, 0, 64, 54
2, 49923, Control_c, 0, 64, 54
2, 49938, Control_c, 0, 64, 55
2, 49953, Control_c, 0, 64, 56
2, 49968, Control_c, 0, 64, 56
2, 49968, Note_on_c, 0, 53, 62
2, 49984, Control_c, 0, 64, 56
2, 50004, Note_on_c, 0, 48, 0
2, 50014, Control_c, 0, 64, 56
2, 50060, Control_c, 0, 64, 56
2, 50073, Note_on_c, 0, 73, 0
2, 50124, Note_on_c, 0, 53, 0
2, 50128, Note_on_c, 0, 51, 62
2, 50133, Note_on_c, 0, 72, 61
2, 50143, Note_on_c, 0, 68, 53
2, 50151, Note_on_c, 0, 70, 0
2, 50181, Control_c, 0, 64, 56
2, 50272, Control_c, 0, 64, 57
2, 50282, Note_on_c, 0, 51, 0
2, 50287, Control_c, 0, 64, 58
2, 50291, Note_on_c, 0, 73, 62
2, 50295, Note_on_c, 0, 49, 52
2, 50302, Note_on_c, 0, 72, 0
2, 50303, Control_c, 0, 64, 58
2, 50317, Control_c, 0, 64, 59
2, 50332, Control_c, 0, 64, 58
2, 50348, Control_c, 0, 64, 57
2, 50363, Control_c, 0, 64, 56
2, 50379, Control_c, 0, 64, 53
2, 50394, Control_c, 0, 64, 39
2, 50409, Control_c, 0, 64, 0
2, 50427, Note_on_c, 0, 49, 0
2, 50447, Note_on_c, 0, 73, 0
2, 50447, Note_on_c, 0, 75, 69
2, 50452, Note_on_c, 0, 48, 57
2, 50562, Control_c, 0, 64, 41
2, 50577, Control_c, 0, 64, 66
2, 50592, Control_c, 0, 64, 72
2, 50595, Note_on_c, 0, 48, 0
2, 50605, Note_on_c, 0, 46, 56
2, 50607, Control_c, 0, 64, 75
2, 50630, Control_c, 0, 64, 76
2, 50641, Note_on_c, 0, 68, 0
2, 50645, Control_c, 0, 64, 78
2, 50649, Note_on_c, 0, 75, 0
2, 50661, Control_c, 0, 64, 79
2, 50675, Control_c, 0, 64, 80
2, 50737, Control_c, 0, 64, 77
2, 50751, Control_c, 0, 64, 66
2, 50766, Control_c, 0, 64, 0
2, 50779, Note_on_c, 0, 46, 0
2, 50782, Note_on_c, 0, 66, 70
2, 50795, Note_on_c, 0, 44, 52
2, 50800, Note_on_c, 0, 63, 51
2, 50864, Note_on_c, 0, 63, 0
2, 50864, Note_on_c, 0, 63, 5
2, 50907, Note_on_c, 0, 44, 0
2, 50927, Note_on_c, 0, 48, 51
2, 51060, Note_on_c, 0, 48, 0
2, 51098, Note_on_c, 0, 37, 59
2, 51161, Control_c, 0, 64, 59
2, 51177, Control_c, 0, 64, 64
2, 51189, Note_on_c, 0, 37, 0
2, 51192, Control_c, 0, 64, 68
2, 51207, Control_c, 0, 64, 76
2, 51223, Control_c, 0, 64, 85
2, 51237, Control_c, 0, 64, 90
2, 51243, Note_on_c, 0, 63, 0
2, 51252, Control_c, 0, 64, 91
2, 51263, Note_on_c, 0, 65, 62
2, 51268, Control_c, 0, 64, 92
2, 51283, Control_c, 0, 64, 93
2, 51295, Note_on_c, 0, 66, 0
2, 51299, Control_c, 0, 64, 96
2, 51314, Control_c, 0, 64, 98
2, 51375, Control_c, 0, 64, 97
2, 51398, Control_c, 0, 64, 92
2, 51413, Control_c, 0, 64, 83
2, 51419, Note_on_c, 0, 65, 0
2, 51429, Control_c, 0, 64, 70
2, 51431, Note_on_c, 0, 61, 60
2, 51432, Note_on_c, 0, 67, 62
2, 51441, Note_on_c, 0, 53, 56
2, 51444, Control_c, 0, 64, 0
2, 51550, Control_c, 0, 64, 59
2, 51565, Control_c, 0, 64, 68
2, 51571, Note_on_c, 0, 61, 0
2, 51580, Note_on_c, 0, 60, 62
2, 51581, Control_c, 0, 64, 73
2, 51581, Note_on_c, 0, 68, 65
2, 51595, Control_c, 0, 64, 78
2, 51595, Note_on_c, 0, 53, 0
2, 51610, Control_c, 0, 64, 81
2, 51626, Control_c, 0, 64, 82
2, 51641, Control_c, 0, 64, 83
2, 51657, Control_c, 0, 64, 83
2, 51682, Note_on_c, 0, 60, 0
2, 51690, Note_on_c, 0, 67, 0
2, 51702, Control_c, 0, 64, 82
2, 51717, Control_c, 0, 64, 79
2, 51727, Note_on_c, 0, 58, 68
2, 51732, Control_c, 0, 64, 72
2, 51739, Note_on_c, 0, 70, 69
2, 51741, Note_on_c, 0, 49, 63
2, 51748, Control_c, 0, 64, 57
2, 51763, Control_c, 0, 64, 0
2, 51879, Note_on_c, 0, 56, 71
2, 51885, Control_c, 0, 64, 60
2, 51891, Note_on_c, 0, 68, 0
2, 51891, Note_on_c, 0, 72, 74
2, 51894, Note_on_c, 0, 58, 0
2, 51901, Control_c, 0, 64, 64
2, 51913, Note_on_c, 0, 70, 0
2, 51929, Note_on_c, 0, 49, 0
2, 51977, Control_c, 0, 64, 64
2, 51992, Control_c, 0, 64, 63
2, 52006, Control_c, 0, 64, 61
2, 52022, Control_c, 0, 64, 55
2, 52037, Control_c, 0, 64, 46
2, 52049, Note_on_c, 0, 56, 0
2, 52051, Control_c, 0, 64, 0
2, 52055, Note_on_c, 0, 51, 66
2, 52057, Note_on_c, 0, 73, 69
2, 52059, Note_on_c, 0, 55, 62
2, 52082, Note_on_c, 0, 72, 0
2, 52227, Note_on_c, 0, 58, 67
2, 52228, Control_c, 0, 64, 61
2, 52228, Note_on_c, 0, 70, 66
2, 52243, Control_c, 0, 64, 65
2, 52259, Control_c, 0, 64, 66
2, 52262, Note_on_c, 0, 55, 0
2, 52289, Control_c, 0, 64, 67
2, 52305, Control_c, 0, 64, 68
2, 52328, Note_on_c, 0, 73, 0
2, 52364, Control_c, 0, 64, 67
2, 52379, Note_on_c, 0, 51, 0
2, 52380, Control_c, 0, 64, 67
2, 52395, Control_c, 0, 64, 66
2, 52410, Control_c, 0, 64, 64
2, 52426, Control_c, 0, 64, 61
2, 52440, Control_c, 0, 64, 57
2, 52445, Note_on_c, 0, 72, 67
2, 52446, Note_on_c, 0, 56, 70
2, 52455, Control_c, 0, 64, 52
2, 52467, Note_on_c, 0, 70, 0
2, 52468, Note_on_c, 0, 58, 0
2, 52471, Control_c, 0, 64, 45
2, 52485, Control_c, 0, 64, 36
2, 52501, Control_c, 0, 64, 25
2, 52516, Control_c, 0, 64, 0
2, 52610, Note_on_c, 0, 56, 0
2, 52623, Note_on_c, 0, 55, 63
2, 52629, Note_on_c, 0, 63, 56
2, 52781, Note_on_c, 0, 63, 0
2, 52784, Note_on_c, 0, 53, 57
2, 52788, Note_on_c, 0, 65, 56
2, 52794, Note_on_c, 0, 55, 0
2, 52934, Note_on_c, 0, 53, 0
2, 52941, Note_on_c, 0, 65, 0
2, 52944, Note_on_c, 0, 67, 60
2, 52945, Note_on_c, 0, 51, 61
2, 53077, Note_on_c, 0, 72, 0
2, 53097, Note_on_c, 0, 51, 0
2, 53106, Note_on_c, 0, 68, 66
2, 53115, Note_on_c, 0, 53, 62
2, 53147, Note_on_c, 0, 67, 0
2, 53270, Note_on_c, 0, 70, 65
2, 53292, Note_on_c, 0, 68, 0
2, 53342, Note_on_c, 0, 53, 0
2, 53424, Note_on_c, 0, 70, 0
2, 53427, Note_on_c, 0, 48, 61
2, 53427, Note_on_c, 0, 72, 60
2, 53556, Note_on_c, 0, 72, 0
2, 53582, Note_on_c, 0, 68, 60
2, 53636, Note_on_c, 0, 48, 0
2, 53738, Note_on_c, 0, 77, 64
2, 53743, Note_on_c, 0, 49, 65
2, 53752, Note_on_c, 0, 68, 0
2, 53898, Note_on_c, 0, 75, 59
2, 53975, Note_on_c, 0, 49, 0
2, 54046, Note_on_c, 0, 46, 63
2, 54060, Note_on_c, 0, 73, 59
2, 54079, Note_on_c, 0, 77, 0
2, 54085, Note_on_c, 0, 75, 0
2, 54206, Note_on_c, 0, 73, 0
2, 54214, Note_on_c, 0, 72, 59
2, 54273, Note_on_c, 0, 46, 0
2, 54361, Note_on_c, 0, 43, 52
2, 54367, Note_on_c, 0, 70, 58
2, 54368, Note_on_c, 0, 72, 0
2, 54529, Note_on_c, 0, 68, 59
2, 54537, Note_on_c, 0, 70, 0
2, 54587, Note_on_c, 0, 43, 0
2, 54665, Note_on_c, 0, 68, 0
2, 54680, Note_on_c, 0, 51, 59
2, 54699, Note_on_c, 0, 67, 52
2, 54836, Note_on_c, 0, 70, 57
2, 54900, Note_on_c, 0, 67, 0
2, 54926, Note_on_c, 0, 51, 0
2, 55002, Note_on_c, 0, 63, 61
2, 55023, Note_on_c, 0, 48, 47
2, 55038, Note_on_c, 0, 70, 0
2, 55078, Control_c, 0, 64, 10
2, 55092, Control_c, 0, 64, 44
2, 55108, Control_c, 0, 64, 56
2, 55123, Control_c, 0, 64, 60
2, 55139, Control_c, 0, 64, 62
2, 55154, Control_c, 0, 64, 62
2, 55167, Control_c, 0, 64, 63
2, 55167, Note_on_c, 0, 46, 56
2, 55182, Control_c, 0, 64, 63
2, 55197, Note_on_c, 0, 48, 0
2, 55198, Control_c, 0, 64, 64
2, 55250, Control_c, 0, 64, 63
2, 55266, Control_c, 0, 64, 62
2, 55281, Control_c, 0, 64, 57
2, 55296, Control_c, 0, 64, 30
2, 55311, Control_c, 0, 64, 0
2, 55311, Note_on_c, 0, 46, 0
2, 55338, Note_on_c, 0, 44, 48
2, 55375, Note_on_c, 0, 57, 45
2, 55414, Note_on_c, 0, 57, 0
2, 55448, Control_c, 0, 64, 60
2, 55464, Control_c, 0, 64, 65
2, 55479, Control_c, 0, 64, 67
2, 55482, Note_on_c, 0, 46, 54
2, 55494, Control_c, 0, 64, 69
2, 55510, Control_c, 0, 64, 70
2, 55525, Control_c, 0, 64, 71
2, 55547, Note_on_c, 0, 44, 0
2, 55566, Note_on_c, 0, 63, 0
2, 55571, Control_c, 0, 64, 68
2, 55586, Control_c, 0, 64, 59
2, 55601, Control_c, 0, 64, 0
2, 55650, Note_on_c, 0, 63, 58
2, 55652, Note_on_c, 0, 48, 54
2, 55681, Note_on_c, 0, 46, 0
2, 55708, Control_c, 0, 64, 51
2, 55723, Control_c, 0, 64, 65
2, 55738, Control_c, 0, 64, 69
2, 55752, Note_on_c, 0, 48, 0
2, 55754, Control_c, 0, 64, 71
2, 55769, Control_c, 0, 64, 72
2, 55784, Control_c, 0, 64, 74
2, 55796, Note_on_c, 0, 50, 55
2, 55799, Control_c, 0, 64, 75
2, 55837, Note_on_c, 0, 63, 0
2, 55859, Control_c, 0, 64, 73
2, 55875, Control_c, 0, 64, 66
2, 55890, Control_c, 0, 64, 34
2, 55906, Control_c, 0, 64, 0
2, 55944, Note_on_c, 0, 51, 57
2, 55948, Note_on_c, 0, 66, 60
2, 55951, Note_on_c, 0, 50, 0
2, 55960, Note_on_c, 0, 63, 61
2, 56019, Control_c, 0, 64, 55
2, 56035, Control_c, 0, 64, 67
2, 56050, Control_c, 0, 64, 72
2, 56066, Control_c, 0, 64, 75
2, 56077, Note_on_c, 0, 63, 0
2, 56080, Control_c, 0, 64, 77
2, 56085, Note_on_c, 0, 51, 0
2, 56092, Note_on_c, 0, 48, 61
2, 56095, Control_c, 0, 64, 77
2, 56125, Note_on_c, 0, 66, 0
2, 56171, Control_c, 0, 64, 77
2, 56187, Control_c, 0, 64, 75
2, 56201, Control_c, 0, 64, 73
2, 56216, Control_c, 0, 64, 68
2, 56232, Control_c, 0, 64, 63
2, 56247, Control_c, 0, 64, 53
2, 56253, Note_on_c, 0, 48, 0
2, 56262, Control_c, 0, 64, 47
2, 56274, Note_on_c, 0, 65, 70
2, 56279, Control_c, 0, 64, 46
2, 56287, Note_on_c, 0, 50, 52
2, 56288, Note_on_c, 0, 63, 56
2, 56294, Control_c, 0, 64, 44
2, 56309, Control_c, 0, 64, 38
2, 56324, Control_c, 0, 64, 24
2, 56339, Control_c, 0, 64, 0
2, 56433, Note_on_c, 0, 48, 53
2, 56443, Note_on_c, 0, 50, 0
2, 56577, Note_on_c, 0, 48, 0
2, 56590, Note_on_c, 0, 63, 0
2, 56598, Note_on_c, 0, 70, 64
2, 56602, Note_on_c, 0, 46, 54
2, 56605, Note_on_c, 0, 62, 54
2, 56654, Note_on_c, 0, 65, 0
2, 56739, Note_on_c, 0, 48, 57
2, 56746, Note_on_c, 0, 46, 0
2, 56747, Note_on_c, 0, 62, 0
2, 56754, Note_on_c, 0, 63, 66
2, 56890, Note_on_c, 0, 48, 0
2, 56908, Note_on_c, 0, 65, 73
2, 56911, Note_on_c, 0, 63, 0
2, 56918, Note_on_c, 0, 50, 62
2, 56969, Control_c, 0, 64, 51
2, 56985, Control_c, 0, 64, 64
2, 57000, Control_c, 0, 64, 67
2, 57015, Control_c, 0, 64, 69
2, 57031, Control_c, 0, 64, 71
2, 57045, Control_c, 0, 64, 73
2, 57060, Control_c, 0, 64, 74
2, 57072, Note_on_c, 0, 51, 35
2, 57096, Note_on_c, 0, 65, 0
2, 57107, Note_on_c, 0, 70, 0
2, 57125, Note_on_c, 0, 51, 0
2, 57136, Control_c, 0, 64, 72
2, 57151, Control_c, 0, 64, 68
2, 57166, Control_c, 0, 64, 62
2, 57173, Note_on_c, 0, 50, 0
2, 57181, Control_c, 0, 64, 19
2, 57197, Control_c, 0, 64, 0
2, 57211, Note_on_c, 0, 68, 79
2, 57219, Note_on_c, 0, 65, 70
2, 57225, Note_on_c, 0, 53, 62
2, 57319, Control_c, 0, 64, 64
2, 57334, Control_c, 0, 64, 70
2, 57349, Control_c, 0, 64, 75
2, 57364, Control_c, 0, 64, 78
2, 57364, Note_on_c, 0, 53, 0
2, 57376, Note_on_c, 0, 50, 66
2, 57379, Control_c, 0, 64, 79
2, 57394, Control_c, 0, 64, 80
2, 57409, Control_c, 0, 64, 80
2, 57413, Note_on_c, 0, 65, 0
2, 57485, Control_c, 0, 64, 80
2, 57500, Control_c, 0, 64, 79
2, 57516, Control_c, 0, 64, 77
2, 57536, Note_on_c, 0, 50, 0
2, 57539, Control_c, 0, 64, 75
2, 57546, Note_on_c, 0, 51, 67
2, 57546, Note_on_c, 0, 66, 80
2, 57548, Note_on_c, 0, 65, 74
2, 57554, Control_c, 0, 64, 71
2, 57569, Control_c, 0, 64, 66
2, 57585, Control_c, 0, 64, 59
2, 57595, Note_on_c, 0, 68, 0
2, 57600, Control_c, 0, 64, 48
2, 57614, Control_c, 0, 64, 42
2, 57630, Control_c, 0, 64, 41
2, 57645, Control_c, 0, 64, 35
2, 57660, Control_c, 0, 64, 13
2, 57673, Note_on_c, 0, 51, 0
2, 57676, Control_c, 0, 64, 0
2, 57690, Note_on_c, 0, 53, 67
2, 57835, Note_on_c, 0, 65, 0
2, 57857, Note_on_c, 0, 54, 61
2, 57865, Note_on_c, 0, 53, 0
2, 57873, Note_on_c, 0, 63, 63
2, 57873, Note_on_c, 0, 71, 70
2, 57905, Note_on_c, 0, 66, 0
2, 57996, Note_on_c, 0, 54, 0
2, 58014, Note_on_c, 0, 53, 62
2, 58014, Note_on_c, 0, 63, 0
2, 58025, Note_on_c, 0, 65, 72
2, 58175, Note_on_c, 0, 53, 0
2, 58177, Note_on_c, 0, 51, 61
2, 58183, Note_on_c, 0, 66, 78
2, 58200, Note_on_c, 0, 71, 0
2, 58218, Note_on_c, 0, 65, 0
2, 58286, Control_c, 0, 64, 50
2, 58309, Control_c, 0, 64, 65
2, 58324, Control_c, 0, 64, 69
2, 58327, Note_on_c, 0, 49, 69
2, 58340, Control_c, 0, 64, 73
2, 58351, Note_on_c, 0, 51, 0
2, 58351, Note_on_c, 0, 66, 0
2, 58355, Control_c, 0, 64, 75
2, 58370, Control_c, 0, 64, 76
2, 58386, Control_c, 0, 64, 77
2, 58459, Note_on_c, 0, 49, 0
2, 58461, Control_c, 0, 64, 76
2, 58476, Control_c, 0, 64, 73
2, 58491, Control_c, 0, 64, 66
2, 58495, Note_on_c, 0, 47, 67
2, 58495, Note_on_c, 0, 66, 77
2, 58497, Note_on_c, 0, 70, 78
2, 58507, Control_c, 0, 64, 40
2, 58522, Control_c, 0, 64, 0
2, 58615, Control_c, 0, 64, 60
2, 58620, Note_on_c, 0, 47, 0
2, 58631, Control_c, 0, 64, 68
2, 58634, Note_on_c, 0, 46, 70
2, 58646, Control_c, 0, 64, 72
2, 58661, Control_c, 0, 64, 74
2, 58676, Control_c, 0, 64, 75
2, 58692, Control_c, 0, 64, 75
2, 58697, Note_on_c, 0, 66, 0
2, 58746, Note_on_c, 0, 70, 0
2, 58748, Note_on_c, 0, 46, 0
2, 58754, Control_c, 0, 64, 75
2, 58768, Control_c, 0, 64, 74
2, 58784, Control_c, 0, 64, 71
2, 58799, Control_c, 0, 64, 67
2, 58803, Note_on_c, 0, 47, 68
2, 58810, Note_on_c, 0, 68, 80
2, 58815, Control_c, 0, 64, 60
2, 58815, Note_on_c, 0, 66, 80
2, 58830, Control_c, 0, 64, 48
2, 58844, Control_c, 0, 64, 47
2, 58875, Control_c, 0, 64, 45
2, 58890, Control_c, 0, 64, 38
2, 58905, Control_c, 0, 64, 33
2, 58936, Control_c, 0, 64, 35
2, 58956, Note_on_c, 0, 51, 74
2, 59012, Control_c, 0, 64, 36
2, 59015, Note_on_c, 0, 47, 0
2, 59027, Control_c, 0, 64, 38
2, 59042, Control_c, 0, 64, 38
2, 59106, Note_on_c, 0, 51, 0
2, 59118, Note_on_c, 0, 66, 0
2, 59123, Note_on_c, 0, 49, 67
2, 59125, Control_c, 0, 64, 39
2, 59125, Note_on_c, 0, 65, 76
2, 59131, Note_on_c, 0, 73, 74
2, 59143, Control_c, 0, 64, 39
2, 59149, Note_on_c, 0, 68, 0
2, 59188, Control_c, 0, 64, 42
2, 59204, Control_c, 0, 64, 45
2, 59219, Control_c, 0, 64, 47
2, 59259, Note_on_c, 0, 49, 0
2, 59264, Control_c, 0, 64, 48
2, 59268, Note_on_c, 0, 47, 66
2, 59279, Control_c, 0, 64, 49
2, 59292, Note_on_c, 0, 66, 76
2, 59310, Control_c, 0, 64, 48
2, 59316, Note_on_c, 0, 65, 0
2, 59326, Control_c, 0, 64, 47
2, 59341, Control_c, 0, 64, 45
2, 59356, Control_c, 0, 64, 42
2, 59372, Control_c, 0, 64, 32
2, 59386, Control_c, 0, 64, 0
2, 59448, Note_on_c, 0, 46, 65
2, 59448, Note_on_c, 0, 47, 0
2, 59450, Note_on_c, 0, 68, 76
2, 59469, Note_on_c, 0, 66, 0
2, 59477, Note_on_c, 0, 73, 0
2, 59554, Control_c, 0, 64, 64
2, 59570, Control_c, 0, 64, 70
2, 59585, Control_c, 0, 64, 73
2, 59600, Control_c, 0, 64, 75
2, 59609, Note_on_c, 0, 44, 66
2, 59615, Control_c, 0, 64, 76
2, 59625, Note_on_c, 0, 68, 0
2, 59630, Control_c, 0, 64, 76
2, 59638, Note_on_c, 0, 46, 0
2, 59691, Control_c, 0, 64, 76
2, 59706, Control_c, 0, 64, 75
2, 59721, Control_c, 0, 64, 73
2, 59736, Control_c, 0, 64, 69
2, 59750, Note_on_c, 0, 44, 0
2, 59751, Control_c, 0, 64, 64
2, 59767, Control_c, 0, 64, 58
2, 59778, Note_on_c, 0, 42, 62
2, 59781, Note_on_c, 0, 71, 74
2, 59782, Control_c, 0, 64, 52
2, 59789, Note_on_c, 0, 68, 66
2, 59827, Control_c, 0, 64, 51
2, 59851, Control_c, 0, 64, 47
2, 59865, Control_c, 0, 64, 45
2, 59896, Control_c, 0, 64, 47
2, 59911, Control_c, 0, 64, 48
2, 59927, Control_c, 0, 64, 47
2, 59938, Note_on_c, 0, 42, 0
2, 59941, Control_c, 0, 64, 47
2, 59947, Note_on_c, 0, 41, 59
2, 59987, Control_c, 0, 64, 47
2, 60017, Control_c, 0, 64, 47
2, 60077, Control_c, 0, 64, 46
2, 60108, Control_c, 0, 64, 46
2, 60139, Control_c, 0, 64, 46
2, 60144, Note_on_c, 0, 41, 0
2, 60146, Note_on_c, 0, 70, 63
2, 60152, Note_on_c, 0, 42, 60
2, 60154, Control_c, 0, 64, 46
2, 60169, Control_c, 0, 64, 44
2, 60184, Control_c, 0, 64, 44
2, 60193, Note_on_c, 0, 68, 0
2, 60245, Control_c, 0, 64, 42
2, 60260, Control_c, 0, 64, 40
2, 60265, Note_on_c, 0, 71, 0
2, 60274, Control_c, 0, 64, 38
2, 60290, Control_c, 0, 64, 38
2, 60305, Control_c, 0, 64, 37
2, 60320, Control_c, 0, 64, 36
2, 60326, Note_on_c, 0, 68, 70
2, 60336, Control_c, 0, 64, 34
2, 60350, Control_c, 0, 64, 26
2, 60366, Control_c, 0, 64, 13
2, 60382, Control_c, 0, 64, 0
2, 60458, Note_on_c, 0, 42, 0
2, 60486, Note_on_c, 0, 66, 68
2, 60491, Note_on_c, 0, 44, 54
2, 60554, Note_on_c, 0, 68, 0
2, 60650, Note_on_c, 0, 65, 71
2, 60655, Note_on_c, 0, 70, 0
2, 60673, Note_on_c, 0, 66, 0
2, 60741, Note_on_c, 0, 44, 0
2, 60803, Note_on_c, 0, 46, 54
2, 60809, Note_on_c, 0, 66, 70
2, 60821, Note_on_c, 0, 65, 0
2, 60949, Note_on_c, 0, 46, 0
2, 60950, Note_on_c, 0, 42, 53
2, 61069, Note_on_c, 0, 66, 0
2, 61089, Note_on_c, 0, 42, 0
2, 61113, Note_on_c, 0, 44, 53
2, 61120, Note_on_c, 0, 61, 64
2, 61265, Note_on_c, 0, 46, 60
2, 61276, Note_on_c, 0, 44, 0
2, 61358, Note_on_c, 0, 61, 0
2, 61396, Note_on_c, 0, 46, 0
2, 61428, Note_on_c, 0, 47, 50
2, 61430, Note_on_c, 0, 63, 68
2, 61576, Note_on_c, 0, 49, 57
2, 61579, Note_on_c, 0, 47, 0
2, 61706, Note_on_c, 0, 63, 0
2, 61748, Note_on_c, 0, 49, 0
2, 61750, Note_on_c, 0, 51, 49
2, 61752, Note_on_c, 0, 59, 65
2, 61894, Note_on_c, 0, 51, 0
2, 61901, Note_on_c, 0, 47, 50
2, 62013, Note_on_c, 0, 59, 0
2, 62058, Note_on_c, 0, 47, 0
2, 62062, Note_on_c, 0, 56, 63
2, 62067, Note_on_c, 0, 49, 49
2, 62199, Control_c, 0, 64, 40
2, 62212, Note_on_c, 0, 49, 0
2, 62213, Control_c, 0, 64, 62
2, 62222, Note_on_c, 0, 51, 49
2, 62228, Control_c, 0, 64, 66
2, 62243, Control_c, 0, 64, 67
2, 62259, Control_c, 0, 64, 69
2, 62273, Control_c, 0, 64, 70
2, 62288, Control_c, 0, 64, 71
2, 62304, Control_c, 0, 64, 72
2, 62319, Control_c, 0, 64, 71
2, 62335, Control_c, 0, 64, 66
2, 62335, Note_on_c, 0, 51, 0
2, 62345, Note_on_c, 0, 56, 0
2, 62350, Control_c, 0, 64, 44
2, 62365, Control_c, 0, 64, 0
2, 62374, Note_on_c, 0, 61, 62
2, 62378, Note_on_c, 0, 53, 51
2, 62441, Control_c, 0, 64, 34
2, 62457, Control_c, 0, 64, 65
2, 62471, Control_c, 0, 64, 71
2, 62486, Control_c, 0, 64, 75
2, 62502, Control_c, 0, 64, 77
2, 62502, Note_on_c, 0, 53, 0
2, 62515, Note_on_c, 0, 49, 52
2, 62517, Control_c, 0, 64, 79
2, 62532, Control_c, 0, 64, 79
2, 62547, Control_c, 0, 64, 80
2, 62607, Control_c, 0, 64, 79
2, 62623, Control_c, 0, 64, 78
2, 62637, Note_on_c, 0, 61, 0
2, 62638, Control_c, 0, 64, 75
2, 62653, Control_c, 0, 64, 68
2, 62668, Control_c, 0, 64, 61
2, 62672, Note_on_c, 0, 49, 0
2, 62683, Control_c, 0, 64, 50
2, 62690, Note_on_c, 0, 58, 59
2, 62699, Control_c, 0, 64, 49
2, 62704, Note_on_c, 0, 54, 50
2, 62730, Control_c, 0, 64, 47
2, 62745, Control_c, 0, 64, 41
2, 62759, Control_c, 0, 64, 32
2, 62775, Control_c, 0, 64, 30
2, 62790, Control_c, 0, 64, 32
2, 62805, Control_c, 0, 64, 34
2, 62823, Note_on_c, 0, 54, 0
2, 62839, Note_on_c, 0, 56, 50
2, 62947, Control_c, 0, 64, 32
2, 62961, Control_c, 0, 64, 28
2, 62976, Control_c, 0, 64, 21
2, 62986, Note_on_c, 0, 54, 49
2, 62992, Control_c, 0, 64, 10
2, 63000, Note_on_c, 0, 73, 63
2, 63007, Control_c, 0, 64, 0
2, 63021, Note_on_c, 0, 56, 0
2, 63098, Control_c, 0, 64, 30
2, 63113, Control_c, 0, 64, 38
2, 63115, Note_on_c, 0, 54, 0
2, 63128, Control_c, 0, 64, 44
2, 63144, Control_c, 0, 64, 51
2, 63145, Note_on_c, 0, 53, 52
2, 63159, Control_c, 0, 64, 56
2, 63174, Control_c, 0, 64, 60
2, 63190, Control_c, 0, 64, 62
2, 63220, Control_c, 0, 64, 61
2, 63250, Control_c, 0, 64, 59
2, 63252, Note_on_c, 0, 53, 0
2, 63266, Control_c, 0, 64, 54
2, 63281, Control_c, 0, 64, 37
2, 63295, Control_c, 0, 64, 0
2, 63305, Note_on_c, 0, 78, 73
2, 63309, Note_on_c, 0, 51, 52
2, 63330, Note_on_c, 0, 73, 0
2, 63389, Note_on_c, 0, 58, 0
2, 63417, Control_c, 0, 64, 39
2, 63433, Control_c, 0, 64, 64
2, 63447, Control_c, 0, 64, 67
2, 63452, Note_on_c, 0, 51, 0
2, 63455, Note_on_c, 0, 53, 57
2, 63462, Control_c, 0, 64, 68
2, 63478, Control_c, 0, 64, 70
2, 63492, Control_c, 0, 64, 72
2, 63497, Note_on_c, 0, 78, 0
2, 63508, Control_c, 0, 64, 74
2, 63523, Control_c, 0, 64, 75
2, 63538, Control_c, 0, 64, 75
2, 63584, Control_c, 0, 64, 74
2, 63592, Note_on_c, 0, 53, 0
2, 63599, Control_c, 0, 64, 72
2, 63614, Control_c, 0, 64, 65
2, 63619, Note_on_c, 0, 54, 55
2, 63627, Note_on_c, 0, 78, 71
2, 63630, Control_c, 0, 64, 0
2, 63633, Note_on_c, 0, 70, 62
2, 63746, Control_c, 0, 64, 64
2, 63760, Control_c, 0, 64, 69
2, 63764, Note_on_c, 0, 54, 0
2, 63773, Note_on_c, 0, 51, 55
2, 63775, Control_c, 0, 64, 72
2, 63791, Control_c, 0, 64, 73
2, 63805, Control_c, 0, 64, 74
2, 63820, Control_c, 0, 64, 74
2, 63825, Note_on_c, 0, 78, 0
2, 63851, Control_c, 0, 64, 75
2, 63912, Control_c, 0, 64, 74
2, 63927, Control_c, 0, 64, 71
2, 63941, Control_c, 0, 64, 68
2, 63957, Control_c, 0, 64, 64
2, 63972, Control_c, 0, 64, 60
2, 63972, Note_on_c, 0, 56, 49
2, 63972, Note_on_c, 0, 70, 0
2, 63972, Note_on_c, 0, 78, 70
2, 63973, Note_on_c, 0, 71, 57
2, 63988, Control_c, 0, 64, 57
2, 64002, Control_c, 0, 64, 56
2, 64017, Control_c, 0, 64, 53
2, 64033, Control_c, 0, 64, 49
2, 64048, Control_c, 0, 64, 41
2, 64054, Note_on_c, 0, 51, 0
2, 64064, Control_c, 0, 64, 29
2, 64078, Control_c, 0, 64, 18
2, 64101, Note_on_c, 0, 56, 0
2, 64109, Control_c, 0, 64, 19
2, 64126, Note_on_c, 0, 58, 52
2, 64138, Control_c, 0, 64, 13
2, 64154, Control_c, 0, 64, 0
2, 64280, Note_on_c, 0, 56, 51
2, 64284, Note_on_c, 0, 78, 0
2, 64289, Note_on_c, 0, 77, 62
2, 64301, Note_on_c, 0, 58, 0
2, 64448, Note_on_c, 0, 54, 49
2, 64449, Note_on_c, 0, 56, 0
2, 64462, Note_on_c, 0, 78, 72
2, 64476, Note_on_c, 0, 77, 0
2, 64577, Note_on_c, 0, 54, 0
2, 64612, Note_on_c, 0, 80, 80
2, 64615, Note_on_c, 0, 53, 52
2, 64633, Note_on_c, 0, 78, 0
2, 64690, Note_on_c, 0, 71, 0
2, 64724, Control_c, 0, 64, 60
2, 64739, Control_c, 0, 64, 68
2, 64745, Note_on_c, 0, 53, 0
2, 64755, Control_c, 0, 64, 71
2, 64757, Note_on_c, 0, 54, 58
2, 64770, Control_c, 0, 64, 74
2, 64786, Control_c, 0, 64, 75
2, 64801, Control_c, 0, 64, 77
2, 64806, Note_on_c, 0, 80, 0
2, 64816, Control_c, 0, 64, 78
2, 64831, Control_c, 0, 64, 78
2, 64877, Control_c, 0, 64, 78
2, 64892, Control_c, 0, 64, 75
2, 64908, Control_c, 0, 64, 68
2, 64917, Note_on_c, 0, 80, 75
2, 64919, Note_on_c, 0, 56, 58
2, 64920, Note_on_c, 0, 54, 0
2, 64923, Control_c, 0, 64, 48
2, 64923, Note_on_c, 0, 71, 59
2, 64937, Control_c, 0, 64, 0
2, 65029, Control_c, 0, 64, 57
2, 65044, Control_c, 0, 64, 67
2, 65047, Note_on_c, 0, 56, 0
2, 65058, Control_c, 0, 64, 71
2, 65073, Note_on_c, 0, 53, 56
2, 65074, Control_c, 0, 64, 74
2, 65089, Control_c, 0, 64, 77
2, 65104, Control_c, 0, 64, 78
2, 65109, Note_on_c, 0, 80, 0
2, 65119, Control_c, 0, 64, 79
2, 65179, Control_c, 0, 64, 78
2, 65195, Control_c, 0, 64, 75
2, 65218, Control_c, 0, 64, 70
2, 65224, Note_on_c, 0, 53, 0
2, 65234, Control_c, 0, 64, 62
2, 65241, Note_on_c, 0, 80, 73
2, 65244, Note_on_c, 0, 50, 55
2, 65247, Note_on_c, 0, 71, 0
2, 65248, Note_on_c, 0, 70, 70
2, 65249, Control_c, 0, 64, 43
2, 65264, Control_c, 0, 64, 19
2, 65279, Control_c, 0, 64, 0
2, 65402, Note_on_c, 0, 50, 0
2, 65403, Note_on_c, 0, 46, 56
2, 65544, Note_on_c, 0, 46, 0
2, 65561, Note_on_c, 0, 48, 61
2, 65571, Note_on_c, 0, 78, 74
2, 65652, Note_on_c, 0, 80, 0
2, 65699, Note_on_c, 0, 48, 0
2, 65713, Note_on_c, 0, 77, 77
2, 65718, Note_on_c, 0, 50, 60
2, 65730, Note_on_c, 0, 78, 0
2, 65773, Note_on_c, 0, 70, 0
2, 65874, Note_on_c, 0, 50, 0
2, 65881, Note_on_c, 0, 51, 61
2, 65882, Note_on_c, 0, 78, 79
2, 65895, Note_on_c, 0, 77, 0
2, 66002, Control_c, 0, 64, 47
2, 66006, Note_on_c, 0, 51, 0
2, 66017, Control_c, 0, 64, 62
2, 66033, Control_c, 0, 64, 66
2, 66036, Note_on_c, 0, 53, 65
2, 66048, Control_c, 0, 64, 66
2, 66064, Control_c, 0, 64, 66
2, 66125, Control_c, 0, 64, 65
2, 66139, Control_c, 0, 64, 63
2, 66155, Control_c, 0, 64, 55
2, 66170, Control_c, 0, 64, 0
2, 66188, Note_on_c, 0, 53, 0
2, 66195, Note_on_c, 0, 54, 61
2, 66204, Note_on_c, 0, 75, 75
2, 66323, Control_c, 0, 64, 62
2, 66337, Control_c, 0, 64, 67
2, 66348, Note_on_c, 0, 51, 64
2, 66353, Control_c, 0, 64, 71
2, 66368, Control_c, 0, 64, 76
2, 66382, Control_c, 0, 64, 81
2, 66398, Control_c, 0, 64, 83
2, 66413, Control_c, 0, 64, 84
2, 66474, Control_c, 0, 64, 81
2, 66489, Control_c, 0, 64, 73
2, 66495, Note_on_c, 0, 51, 0
2, 66504, Note_on_c, 0, 54, 0
2, 66505, Control_c, 0, 64, 58
2, 66513, Note_on_c, 0, 59, 66
2, 66519, Note_on_c, 0, 68, 78
2, 66520, Control_c, 0, 64, 0
2, 66562, Note_on_c, 0, 75, 0
2, 66595, Control_c, 0, 64, 58
2, 66610, Control_c, 0, 64, 67
2, 66626, Control_c, 0, 64, 71
2, 66641, Control_c, 0, 64, 75
2, 66656, Control_c, 0, 64, 77
2, 66662, Note_on_c, 0, 58, 70
2, 66672, Control_c, 0, 64, 79
2, 66681, Note_on_c, 0, 59, 0
2, 66687, Control_c, 0, 64, 80
2, 66702, Note_on_c, 0, 68, 0
2, 66800, Control_c, 0, 64, 79
2, 66815, Control_c, 0, 64, 77
2, 66831, Control_c, 0, 64, 73
2, 66831, Note_on_c, 0, 56, 74
2, 66845, Note_on_c, 0, 83, 74
2, 66846, Control_c, 0, 64, 69
2, 66849, Note_on_c, 0, 58, 0
2, 66861, Control_c, 0, 64, 64
2, 66871, Note_on_c, 0, 78, 0
2, 66877, Control_c, 0, 64, 58
2, 66892, Control_c, 0, 64, 57
2, 66923, Control_c, 0, 64, 56
2, 66938, Control_c, 0, 64, 52
2, 66954, Control_c, 0, 64, 48
2, 66969, Control_c, 0, 64, 46
2, 66984, Control_c, 0, 64, 47
2, 66986, Note_on_c, 0, 58, 72
2, 66993, Note_on_c, 0, 82, 78
2, 66999, Control_c, 0, 64, 48
2, 67021, Note_on_c, 0, 83, 0
2, 67045, Control_c, 0, 64, 48
2, 67060, Control_c, 0, 64, 49
2, 67065, Note_on_c, 0, 56, 0
2, 67075, Control_c, 0, 64, 50
2, 67090, Control_c, 0, 64, 49
2, 67106, Control_c, 0, 64, 49
2, 67152, Control_c, 0, 64, 48
2, 67158, Note_on_c, 0, 59, 72
2, 67160, Note_on_c, 0, 80, 75
2, 67167, Control_c, 0, 64, 44
2, 67172, Note_on_c, 0, 82, 0
2, 67181, Control_c, 0, 64, 32
2, 67190, Note_on_c, 0, 58, 0
2, 67197, Control_c, 0, 64, 0
2, 67320, Note_on_c, 0, 78, 73
2, 67329, Note_on_c, 0, 80, 0
2, 67378, Control_c, 0, 64, 33
2, 67394, Control_c, 0, 64, 63
2, 67409, Control_c, 0, 64, 67
2, 67425, Control_c, 0, 64, 69
2, 67439, Control_c, 0, 64, 69
2, 67470, Control_c, 0, 64, 70
2, 67470, Note_on_c, 0, 78, 0
2, 67484, Note_on_c, 0, 68, 74
2, 67485, Note_on_c, 0, 77, 62
2, 67500, Control_c, 0, 64, 68
2, 67523, Control_c, 0, 64, 64
2, 67538, Control_c, 0, 64, 47
2, 67554, Control_c, 0, 64, 0
2, 67630, Control_c, 0, 64, 54
2, 67644, Control_c, 0, 64, 67
2, 67649, Note_on_c, 0, 80, 73
2, 67658, Note_on_c, 0, 77, 0
2, 67659, Control_c, 0, 64, 73
2, 67667, Note_on_c, 0, 59, 0
2, 67675, Control_c, 0, 64, 77
2, 67690, Control_c, 0, 64, 78
2, 67706, Control_c, 0, 64, 78
2, 67720, Control_c, 0, 64, 79
2, 67813, Control_c, 0, 64, 78
2, 67822, Note_on_c, 0, 74, 62
2, 67829, Control_c, 0, 64, 77
2, 67830, Note_on_c, 0, 58, 58
2, 67844, Control_c, 0, 64, 74
2, 67856, Note_on_c, 0, 80, 0
2, 67859, Control_c, 0, 64, 70
2, 67874, Control_c, 0, 64, 66
2, 67881, Note_on_c, 0, 68, 0
2, 67889, Control_c, 0, 64, 62
2, 67905, Control_c, 0, 64, 60
2, 67920, Control_c, 0, 64, 59
2, 67935, Control_c, 0, 64, 59
2, 67950, Control_c, 0, 64, 56
2, 67965, Control_c, 0, 64, 50
2, 67980, Control_c, 0, 64, 48
2, 67987, Note_on_c, 0, 72, 58
2, 67991, Note_on_c, 0, 74, 0
2, 67994, Note_on_c, 0, 70, 52
2, 67996, Control_c, 0, 64, 47
2, 68026, Control_c, 0, 64, 45
2, 68041, Control_c, 0, 64, 40
2, 68056, Control_c, 0, 64, 35
2, 68087, Control_c, 0, 64, 36
2, 68118, Control_c, 0, 64, 35
2, 68132, Note_on_c, 0, 70, 0
2, 68133, Control_c, 0, 64, 34
2, 68146, Note_on_c, 0, 68, 57
2, 68148, Control_c, 0, 64, 33
2, 68149, Note_on_c, 0, 74, 67
2, 68163, Control_c, 0, 64, 34
2, 68178, Control_c, 0, 64, 34
2, 68194, Control_c, 0, 64, 32
2, 68200, Note_on_c, 0, 72, 0
2, 68208, Control_c, 0, 64, 29
2, 68224, Control_c, 0, 64, 28
2, 68270, Control_c, 0, 64, 27
2, 68297, Note_on_c, 0, 75, 73
2, 68299, Note_on_c, 0, 66, 64
2, 68323, Control_c, 0, 64, 26
2, 68352, Note_on_c, 0, 74, 0
2, 68364, Note_on_c, 0, 68, 0
2, 68368, Control_c, 0, 64, 27
2, 68399, Control_c, 0, 64, 28
2, 68451, Note_on_c, 0, 66, 0
2, 68454, Note_on_c, 0, 75, 0
2, 68454, Note_on_c, 0, 77, 78
2, 68458, Note_on_c, 0, 65, 70
2, 68489, Control_c, 0, 64, 30
2, 68505, Control_c, 0, 64, 32
2, 68520, Control_c, 0, 64, 34
2, 68535, Control_c, 0, 64, 39
2, 68551, Control_c, 0, 64, 42
2, 68567, Control_c, 0, 64, 46
2, 68582, Control_c, 0, 64, 49
2, 68597, Control_c, 0, 64, 52
2, 68600, Note_on_c, 0, 63, 63
2, 68612, Control_c, 0, 64, 54
2, 68612, Note_on_c, 0, 78, 79
2, 68635, Note_on_c, 0, 77, 0
2, 68666, Note_on_c, 0, 65, 0
2, 68688, Control_c, 0, 64, 53
2, 68704, Control_c, 0, 64, 51
2, 68718, Control_c, 0, 64, 48
2, 68733, Control_c, 0, 64, 42
2, 68749, Control_c, 0, 64, 33
2, 68761, Note_on_c, 0, 63, 0
2, 68764, Control_c, 0, 64, 0
2, 68770, Note_on_c, 0, 62, 63
2, 68778, Note_on_c, 0, 80, 80
2, 68809, Note_on_c, 0, 78, 0
2, 68931, Control_c, 0, 64, 66
2, 68933, Note_on_c, 0, 77, 77
2, 68939, Note_on_c, 0, 65, 59
2, 68947, Control_c, 0, 64, 72
2, 68952, Note_on_c, 0, 80, 0
2, 68953, Note_on_c, 0, 62, 0
2, 68962, Control_c, 0, 64, 76
2, 68977, Control_c, 0, 64, 77
2, 68978, Note_on_c, 0, 58, 0
2, 68992, Control_c, 0, 64, 78
2, 69022, Control_c, 0, 64, 78
2, 69121, Control_c, 0, 64, 78
2, 69136, Control_c, 0, 64, 76
2, 69151, Control_c, 0, 64, 74
2, 69155, Note_on_c, 0, 65, 0
2, 69163, Note_on_c, 0, 78, 74
2, 69166, Control_c, 0, 64, 72
2, 69173, Note_on_c, 0, 63, 56
2, 69181, Control_c, 0, 64, 68
2, 69194, Note_on_c, 0, 77, 0
2, 69197, Control_c, 0, 64, 64
2, 69212, Control_c, 0, 64, 58
2, 69228, Control_c, 0, 64, 54
2, 69243, Control_c, 0, 64, 53
2, 69257, Control_c, 0, 64, 51
2, 69273, Control_c, 0, 64, 43
2, 69288, Control_c, 0, 64, 24
2, 69304, Control_c, 0, 64, 0
2, 69341, Note_on_c, 0, 77, 66
2, 69359, Note_on_c, 0, 78, 0
2, 69502, Note_on_c, 0, 51, 46
2, 69509, Note_on_c, 0, 75, 63
2, 69515, Note_on_c, 0, 77, 0
2, 69649, Note_on_c, 0, 63, 0
2, 69654, Note_on_c, 0, 51, 0
2, 69654, Note_on_c, 0, 74, 64
2, 69656, Note_on_c, 0, 75, 0
2, 69660, Note_on_c, 0, 53, 53
2, 69803, Note_on_c, 0, 53, 0
2, 69826, Note_on_c, 0, 75, 72
2, 69836, Note_on_c, 0, 54, 51
2, 69839, Note_on_c, 0, 74, 0
2, 69968, Note_on_c, 0, 54, 0
2, 69979, Note_on_c, 0, 51, 53
2, 70081, Note_on_c, 0, 75, 0
2, 70138, Note_on_c, 0, 70, 69
2, 70146, Note_on_c, 0, 54, 51
2, 70212, Note_on_c, 0, 51, 0
2, 70296, Note_on_c, 0, 58, 60
2, 70319, Note_on_c, 0, 54, 0
2, 70432, Note_on_c, 0, 70, 0
2, 70452, Note_on_c, 0, 58, 0
2, 70461, Note_on_c, 0, 71, 65
2, 70466, Note_on_c, 0, 63, 57
2, 70628, Note_on_c, 0, 63, 0
2, 70631, Note_on_c, 0, 62, 57
2, 70687, Note_on_c, 0, 71, 0
2, 70780, Note_on_c, 0, 63, 60
2, 70785, Note_on_c, 0, 68, 61
2, 70787, Note_on_c, 0, 62, 0
2, 71061, Note_on_c, 0, 68, 0
2, 71105, Note_on_c, 0, 65, 58
2, 71356, Note_on_c, 0, 65, 0
2, 71426, Note_on_c, 0, 70, 62
2, 71436, Note_on_c, 0, 62, 43
2, 71444, Note_on_c, 0, 63, 0
2, 71546, Control_c, 0, 64, 33
2, 71560, Control_c, 0, 64, 62
2, 71575, Control_c, 0, 64, 66
2, 71591, Control_c, 0, 64, 68
2, 71606, Control_c, 0, 64, 69
2, 71621, Control_c, 0, 64, 70
2, 71637, Control_c, 0, 64, 72
2, 71671, Note_on_c, 0, 70, 0
2, 71698, Control_c, 0, 64, 69
2, 71713, Control_c, 0, 64, 63
2, 71713, Note_on_c, 0, 62, 0
2, 71728, Control_c, 0, 64, 0
2, 71732, Note_on_c, 0, 63, 47
2, 71742, Note_on_c, 0, 66, 59
2, 71836, Control_c, 0, 64, 40
2, 71851, Control_c, 0, 64, 64
2, 71867, Control_c, 0, 64, 68
2, 71881, Control_c, 0, 64, 70
2, 71896, Control_c, 0, 64, 73
2, 71899, Note_on_c, 0, 61, 49
2, 71912, Control_c, 0, 64, 75
2, 71927, Control_c, 0, 64, 77
2, 71941, Control_c, 0, 64, 78
2, 71970, Note_on_c, 0, 63, 0
2, 72003, Control_c, 0, 64, 76
2, 72017, Control_c, 0, 64, 69
2, 72029, Note_on_c, 0, 66, 0
2, 72033, Control_c, 0, 64, 51
2, 72048, Control_c, 0, 64, 0
2, 72049, Note_on_c, 0, 61, 0
2, 72065, Note_on_c, 0, 59, 48
2, 72065, Note_on_c, 0, 63, 56
2, 72147, Control_c, 0, 64, 56
2, 72162, Control_c, 0, 64, 66
2, 72177, Control_c, 0, 64, 69
2, 72193, Control_c, 0, 64, 71
2, 72206, Note_on_c, 0, 59, 0
2, 72208, Control_c, 0, 64, 72
2, 72220, Note_on_c, 0, 58, 54
2, 72222, Control_c, 0, 64, 73
2, 72238, Control_c, 0, 64, 73
2, 72253, Control_c, 0, 64, 74
2, 72298, Control_c, 0, 64, 73
2, 72314, Control_c, 0, 64, 72
2, 72325, Note_on_c, 0, 63, 0
2, 72329, Control_c, 0, 64, 69
2, 72345, Control_c, 0, 64, 62
2, 72359, Control_c, 0, 64, 43
2, 72364, Note_on_c, 0, 58, 0
2, 72374, Control_c, 0, 64, 19
2, 72377, Note_on_c, 0, 75, 63
2, 72379, Note_on_c, 0, 59, 49
2, 72390, Control_c, 0, 64, 18
2, 72405, Control_c, 0, 64, 16
2, 72420, Control_c, 0, 64, 0
2, 72466, Control_c, 0, 64, 16
2, 72481, Control_c, 0, 64, 22
2, 72496, Control_c, 0, 64, 24
2, 72511, Control_c, 0, 64, 26
2, 72521, Note_on_c, 0, 73, 68
2, 72526, Control_c, 0, 64, 32
2, 72527, Note_on_c, 0, 58, 50
2, 72539, Note_on_c, 0, 59, 0
2, 72541, Control_c, 0, 64, 38
2, 72548, Note_on_c, 0, 75, 0
2, 72557, Control_c, 0, 64, 46
2, 72588, Control_c, 0, 64, 41
2, 72603, Control_c, 0, 64, 36
2, 72618, Control_c, 0, 64, 25
2, 72633, Control_c, 0, 64, 0
2, 72637, Note_on_c, 0, 73, 0
2, 72675, Note_on_c, 0, 56, 59
2, 72679, Note_on_c, 0, 58, 0
2, 72681, Note_on_c, 0, 75, 73
2, 72682, Note_on_c, 0, 71, 61
2, 72771, Control_c, 0, 64, 61
2, 72786, Control_c, 0, 64, 66
2, 72801, Control_c, 0, 64, 67
2, 72816, Control_c, 0, 64, 68
2, 72819, Note_on_c, 0, 56, 0
2, 72831, Note_on_c, 0, 70, 70
2, 72832, Control_c, 0, 64, 69
2, 72834, Note_on_c, 0, 54, 55
2, 72834, Note_on_c, 0, 71, 0
2, 72847, Control_c, 0, 64, 70
2, 72861, Control_c, 0, 64, 71
2, 72873, Note_on_c, 0, 75, 0
2, 72946, Control_c, 0, 64, 70
2, 72959, Note_on_c, 0, 54, 0
2, 72961, Control_c, 0, 64, 65
2, 72963, Note_on_c, 0, 70, 0
2, 72976, Control_c, 0, 64, 41
2, 72989, Note_on_c, 0, 56, 57
2, 72991, Control_c, 0, 64, 0
2, 72999, Note_on_c, 0, 71, 60
2, 73000, Note_on_c, 0, 75, 70
2, 73097, Control_c, 0, 64, 53
2, 73113, Control_c, 0, 64, 65
2, 73127, Control_c, 0, 64, 69
2, 73142, Control_c, 0, 64, 72
2, 73145, Note_on_c, 0, 56, 0
2, 73147, Note_on_c, 0, 54, 58
2, 73150, Note_on_c, 0, 70, 75
2, 73158, Control_c, 0, 64, 73
2, 73173, Control_c, 0, 64, 74
2, 73189, Control_c, 0, 64, 75
2, 73190, Note_on_c, 0, 71, 0
2, 73203, Note_on_c, 0, 75, 0
2, 73249, Control_c, 0, 64, 74
2, 73264, Note_on_c, 0, 54, 0
2, 73265, Control_c, 0, 64, 68
2, 73279, Control_c, 0, 64, 49
2, 73282, Note_on_c, 0, 70, 0
2, 73292, Note_on_c, 0, 74, 74
2, 73293, Note_on_c, 0, 53, 59
2, 73294, Control_c, 0, 64, 0
2, 73306, Note_on_c, 0, 68, 60
2, 73370, Control_c, 0, 64, 59
2, 73386, Control_c, 0, 64, 66
2, 73401, Control_c, 0, 64, 70
2, 73416, Control_c, 0, 64, 73
2, 73422, Note_on_c, 0, 53, 0
2, 73429, Note_on_c, 0, 66, 63
2, 73432, Control_c, 0, 64, 74
2, 73432, Note_on_c, 0, 75, 72
2, 73433, Note_on_c, 0, 51, 61
2, 73438, Note_on_c, 0, 68, 0
2, 73447, Control_c, 0, 64, 75
2, 73456, Note_on_c, 0, 74, 0
2, 73462, Control_c, 0, 64, 76
2, 73478, Control_c, 0, 64, 77
2, 73497, Note_on_c, 0, 66, 0
2, 73538, Control_c, 0, 64, 76
2, 73554, Control_c, 0, 64, 74
2, 73566, Note_on_c, 0, 51, 0
2, 73569, Control_c, 0, 64, 69
2, 73585, Control_c, 0, 64, 56
2, 73597, Note_on_c, 0, 77, 79
2, 73600, Control_c, 0, 64, 0
2, 73602, Note_on_c, 0, 50, 57
2, 73603, Note_on_c, 0, 75, 0
2, 73609, Note_on_c, 0, 65, 68
2, 73713, Control_c, 0, 64, 43
2, 73728, Control_c, 0, 64, 64
2, 73744, Control_c, 0, 64, 69
2, 73749, Note_on_c, 0, 50, 0
2, 73750, Note_on_c, 0, 46, 62
2, 73758, Note_on_c, 0, 77, 0
2, 73759, Control_c, 0, 64, 72
2, 73774, Control_c, 0, 64, 74
2, 73789, Control_c, 0, 64, 76
2, 73804, Control_c, 0, 64, 77
2, 73819, Control_c, 0, 64, 78
2, 73881, Control_c, 0, 64, 77
2, 73896, Control_c, 0, 64, 74
2, 73904, Note_on_c, 0, 77, 85
2, 73910, Note_on_c, 0, 70, 73
2, 73911, Control_c, 0, 64, 67
2, 73913, Note_on_c, 0, 46, 0
2, 73913, Note_on_c, 0, 48, 64
2, 73926, Control_c, 0, 64, 36
2, 73936, Note_on_c, 0, 65, 0
2, 73941, Control_c, 0, 64, 0
2, 74017, Control_c, 0, 64, 57
2, 74022, Note_on_c, 0, 48, 0
2, 74033, Control_c, 0, 64, 67
2, 74047, Control_c, 0, 64, 71
2, 74062, Control_c, 0, 64, 74
2, 74062, Note_on_c, 0, 50, 61
2, 74078, Control_c, 0, 64, 76
2, 74092, Control_c, 0, 64, 78
2, 74108, Control_c, 0, 64, 78
2, 74133, Note_on_c, 0, 77, 0
2, 74184, Control_c, 0, 64, 77
2, 74199, Control_c, 0, 64, 73
2, 74214, Control_c, 0, 64, 68
2, 74220, Note_on_c, 0, 70, 0
2, 74226, Note_on_c, 0, 51, 56
2, 74230, Control_c, 0, 64, 56
2, 74231, Note_on_c, 0, 77, 81
2, 74238, Note_on_c, 0, 66, 65
2, 74244, Note_on_c, 0, 50, 0
2, 74245, Control_c, 0, 64, 43
2, 74260, Control_c, 0, 64, 43
2, 74275, Control_c, 0, 64, 38
2, 74291, Control_c, 0, 64, 28
2, 74307, Control_c, 0, 64, 0
2, 74387, Note_on_c, 0, 53, 62
2, 74404, Note_on_c, 0, 51, 0
2, 74481, Control_c, 0, 64, 10
2, 74496, Control_c, 0, 64, 16
2, 74531, Note_on_c, 0, 53, 0
2, 74551, Note_on_c, 0, 54, 59
2, 74553, Note_on_c, 0, 70, 67
2, 74556, Note_on_c, 0, 75, 68
2, 74572, Control_c, 0, 64, 18
2, 74588, Control_c, 0, 64, 21
2, 74602, Control_c, 0, 64, 25
2, 74617, Control_c, 0, 64, 27
2, 74633, Control_c, 0, 64, 32
2, 74648, Control_c, 0, 64, 32
2, 74653, Note_on_c, 0, 77, 0
2, 74684, Note_on_c, 0, 54, 0
2, 74700, Note_on_c, 0, 74, 70
2, 74707, Note_on_c, 0, 56, 54
2, 74708, Note_on_c, 0, 66, 0
2, 74710, Control_c, 0, 64, 33
2, 74710, Note_on_c, 0, 75, 0
2, 74723, Note_on_c, 0, 70, 0
2, 74725, Control_c, 0, 64, 32
2, 74740, Control_c, 0, 64, 30
2, 74754, Control_c, 0, 64, 29
2, 74769, Control_c, 0, 64, 28
2, 74785, Control_c, 0, 64, 24
2, 74800, Control_c, 0, 64, 0
2, 74876, Note_on_c, 0, 75, 74
2, 74878, Note_on_c, 0, 74, 0
2, 74880, Note_on_c, 0, 56, 0
2, 74887, Note_on_c, 0, 54, 52
2, 75028, Control_c, 0, 64, 50
2, 75034, Note_on_c, 0, 66, 60
2, 75043, Control_c, 0, 64, 64
2, 75058, Control_c, 0, 64, 67
2, 75072, Note_on_c, 0, 54, 0
2, 75073, Control_c, 0, 64, 68
2, 75088, Control_c, 0, 64, 69
2, 75104, Control_c, 0, 64, 70
2, 75119, Control_c, 0, 64, 71
2, 75134, Control_c, 0, 64, 72
2, 75165, Control_c, 0, 64, 71
2, 75180, Control_c, 0, 64, 70
2, 75195, Note_on_c, 0, 66, 0
2, 75203, Control_c, 0, 64, 67
2, 75204, Note_on_c, 0, 65, 57
2, 75211, Note_on_c, 0, 59, 50
2, 75218, Control_c, 0, 64, 58
2, 75234, Control_c, 0, 64, 0
2, 75349, Note_on_c, 0, 65, 0
2, 75352, Note_on_c, 0, 66, 64
2, 75355, Control_c, 0, 64, 57
2, 75370, Control_c, 0, 64, 65
2, 75386, Control_c, 0, 64, 68
2, 75400, Control_c, 0, 64, 70
2, 75415, Control_c, 0, 64, 71
2, 75431, Control_c, 0, 64, 72
2, 75437, Note_on_c, 0, 59, 0
2, 75461, Control_c, 0, 64, 71
2, 75477, Control_c, 0, 64, 68
2, 75491, Note_on_c, 0, 66, 0
2, 75492, Control_c, 0, 64, 59
2, 75508, Control_c, 0, 64, 0
2, 75508, Note_on_c, 0, 53, 56
2, 75513, Note_on_c, 0, 68, 67
2, 75599, Control_c, 0, 64, 60
2, 75614, Control_c, 0, 64, 67
2, 75630, Control_c, 0, 64, 70
2, 75645, Control_c, 0, 64, 73
2, 75653, Note_on_c, 0, 54, 61
2, 75654, Note_on_c, 0, 73, 69
2, 75659, Control_c, 0, 64, 74
2, 75675, Control_c, 0, 64, 76
2, 75690, Control_c, 0, 64, 77
2, 75706, Control_c, 0, 64, 78
2, 75709, Note_on_c, 0, 68, 0
2, 75721, Note_on_c, 0, 53, 0
2, 75754, Note_on_c, 0, 75, 0
2, 75780, Control_c, 0, 64, 76
2, 75795, Note_on_c, 0, 54, 0
2, 75796, Control_c, 0, 64, 69
2, 75811, Control_c, 0, 64, 54
2, 75816, Note_on_c, 0, 63, 66
2, 75817, Note_on_c, 0, 71, 64
2, 75819, Note_on_c, 0, 56, 65
2, 75827, Control_c, 0, 64, 0
2, 75836, Note_on_c, 0, 73, 0
2, 75902, Control_c, 0, 64, 13
2, 75918, Control_c, 0, 64, 63
2, 75934, Control_c, 0, 64, 67
2, 75947, Note_on_c, 0, 71, 0
2, 75950, Control_c, 0, 64, 70
2, 75962, Note_on_c, 0, 63, 0
2, 75963, Note_on_c, 0, 70, 68
2, 75972, Control_c, 0, 64, 73
2, 75978, Note_on_c, 0, 58, 67
2, 75988, Control_c, 0, 64, 75
2, 75997, Note_on_c, 0, 56, 0
2, 76003, Control_c, 0, 64, 78
2, 76017, Control_c, 0, 64, 79
2, 76033, Control_c, 0, 64, 79
2, 76093, Control_c, 0, 64, 76
2, 76094, Note_on_c, 0, 58, 0
2, 76109, Control_c, 0, 64, 70
2, 76124, Control_c, 0, 64, 54
2, 76134, Note_on_c, 0, 70, 0
2, 76137, Note_on_c, 0, 65, 73
2, 76137, Note_on_c, 0, 71, 67
2, 76139, Control_c, 0, 64, 0
2, 76150, Note_on_c, 0, 56, 51
2, 76230, Control_c, 0, 64, 59
2, 76245, Control_c, 0, 64, 66
2, 76260, Control_c, 0, 64, 70
2, 76276, Control_c, 0, 64, 73
2, 76286, Note_on_c, 0, 68, 73
2, 76291, Control_c, 0, 64, 75
2, 76306, Control_c, 0, 64, 77
2, 76321, Control_c, 0, 64, 77
2, 76367, Control_c, 0, 64, 77
2, 76381, Control_c, 0, 64, 73
2, 76397, Control_c, 0, 64, 62
2, 76412, Control_c, 0, 64, 0
2, 76434, Note_on_c, 0, 61, 71
2, 76434, Note_on_c, 0, 68, 0
2, 76440, Note_on_c, 0, 70, 70
2, 76458, Note_on_c, 0, 65, 0
2, 76473, Note_on_c, 0, 71, 0
2, 76504, Control_c, 0, 64, 63
2, 76519, Control_c, 0, 64, 68
2, 76525, Note_on_c, 0, 61, 0
2, 76534, Control_c, 0, 64, 71
2, 76547, Note_on_c, 0, 56, 0
2, 76549, Control_c, 0, 64, 73
2, 76564, Control_c, 0, 64, 75
2, 76579, Control_c, 0, 64, 77
2, 76595, Control_c, 0, 64, 77
2, 76603, Note_on_c, 0, 72, 70
2, 76670, Note_on_c, 0, 70, 0
2, 76686, Control_c, 0, 64, 76
2, 76700, Control_c, 0, 64, 75
2, 76716, Control_c, 0, 64, 72
2, 76739, Control_c, 0, 64, 67
2, 76755, Control_c, 0, 64, 59
2, 76758, Note_on_c, 0, 54, 65
2, 76763, Note_on_c, 0, 72, 0
2, 76764, Note_on_c, 0, 66, 68
2, 76770, Control_c, 0, 64, 39
2, 76786, Control_c, 0, 64, 40
2, 76801, Control_c, 0, 64, 47
2, 76816, Control_c, 0, 64, 56
2, 76831, Control_c, 0, 64, 61
2, 76846, Control_c, 0, 64, 64
2, 76861, Control_c, 0, 64, 66
2, 76877, Control_c, 0, 64, 68
2, 76892, Control_c, 0, 64, 69
2, 76908, Control_c, 0, 64, 70
2, 76919, Note_on_c, 0, 70, 70
2, 76950, Note_on_c, 0, 54, 0
2, 76953, Control_c, 0, 64, 69
2, 76968, Control_c, 0, 64, 67
2, 76984, Control_c, 0, 64, 59
2, 76999, Control_c, 0, 64, 32
2, 77013, Control_c, 0, 64, 0
2, 77042, Note_on_c, 0, 53, 64
2, 77059, Control_c, 0, 64, 38
2, 77074, Control_c, 0, 64, 59
2, 77086, Note_on_c, 0, 72, 60
2, 77089, Control_c, 0, 64, 65
2, 77105, Control_c, 0, 64, 68
2, 77116, Note_on_c, 0, 70, 0
2, 77118, Note_on_c, 0, 66, 0
2, 77120, Control_c, 0, 64, 71
2, 77134, Control_c, 0, 64, 73
2, 77150, Control_c, 0, 64, 75
2, 77165, Control_c, 0, 64, 76
2, 77180, Control_c, 0, 64, 77
2, 77195, Control_c, 0, 64, 77
2, 77207, Note_on_c, 0, 72, 0
2, 77213, Note_on_c, 0, 74, 81
2, 77226, Note_on_c, 0, 53, 0
2, 77256, Control_c, 0, 64, 76
2, 77272, Control_c, 0, 64, 71
2, 77287, Control_c, 0, 64, 63
2, 77302, Control_c, 0, 64, 0
2, 77329, Note_on_c, 0, 74, 0
2, 77354, Note_on_c, 0, 51, 61
2, 77359, Note_on_c, 0, 75, 74
2, 77362, Note_on_c, 0, 72, 67
2, 77408, Control_c, 0, 64, 57
2, 77423, Control_c, 0, 64, 65
2, 77439, Control_c, 0, 64, 69
2, 77454, Control_c, 0, 64, 72
2, 77469, Control_c, 0, 64, 75
2, 77470, Note_on_c, 0, 72, 0
2, 77484, Control_c, 0, 64, 76
2, 77500, Note_on_c, 0, 75, 0
2, 77507, Control_c, 0, 64, 77
2, 77509, Note_on_c, 0, 77, 74
2, 77537, Control_c, 0, 64, 78
2, 77553, Note_on_c, 0, 51, 0
2, 77583, Control_c, 0, 64, 77
2, 77599, Control_c, 0, 64, 77
2, 77614, Control_c, 0, 64, 74
2, 77630, Control_c, 0, 64, 67
2, 77644, Control_c, 0, 64, 41
2, 77659, Control_c, 0, 64, 0
2, 77662, Note_on_c, 0, 78, 83
2, 77668, Note_on_c, 0, 77, 0
2, 77671, Note_on_c, 0, 72, 72
2, 77674, Note_on_c, 0, 51, 76
2, 77721, Control_c, 0, 64, 46
2, 77736, Control_c, 0, 64, 64
2, 77752, Control_c, 0, 64, 69
2, 77767, Control_c, 0, 64, 74
2, 77774, Note_on_c, 0, 51, 0
2, 77781, Control_c, 0, 64, 77
2, 77797, Control_c, 0, 64, 78
2, 77812, Control_c, 0, 64, 80
2, 77815, Note_on_c, 0, 75, 87
2, 77827, Control_c, 0, 64, 80
2, 77842, Control_c, 0, 64, 81
2, 77848, Note_on_c, 0, 72, 0
2, 77855, Note_on_c, 0, 78, 0
2, 77857, Control_c, 0, 64, 81
2, 77873, Control_c, 0, 64, 82
2, 77964, Control_c, 0, 64, 81
2, 77978, Control_c, 0, 64, 79
2, 77994, Control_c, 0, 64, 73
2, 78009, Control_c, 0, 64, 63
2, 78022, Note_on_c, 0, 58, 65
2, 78025, Control_c, 0, 64, 0
2, 78025, Note_on_c, 0, 77, 83
2, 78028, Note_on_c, 0, 73, 74
2, 78054, Note_on_c, 0, 75, 0
2, 78146, Control_c, 0, 64, 18
2, 78161, Control_c, 0, 64, 64
2, 78176, Control_c, 0, 64, 68
2, 78182, Note_on_c, 0, 73, 0
2, 78192, Control_c, 0, 64, 71
2, 78196, Note_on_c, 0, 72, 81
2, 78207, Control_c, 0, 64, 74
2, 78222, Control_c, 0, 64, 76
2, 78237, Control_c, 0, 64, 77
2, 78252, Control_c, 0, 64, 78
2, 78335, Control_c, 0, 64, 75
2, 78351, Control_c, 0, 64, 67
2, 78357, Note_on_c, 0, 65, 67
2, 78360, Note_on_c, 0, 61, 68
2, 78361, Note_on_c, 0, 70, 81
2, 78366, Control_c, 0, 64, 36
2, 78369, Note_on_c, 0, 77, 0
2, 78381, Control_c, 0, 64, 0
2, 78418, Note_on_c, 0, 72, 0
2, 78428, Control_c, 0, 64, 44
2, 78443, Control_c, 0, 64, 64
2, 78458, Control_c, 0, 64, 70
2, 78458, Note_on_c, 0, 65, 0
2, 78473, Control_c, 0, 64, 75
2, 78484, Note_on_c, 0, 61, 0
2, 78488, Control_c, 0, 64, 78
2, 78492, Note_on_c, 0, 58, 0
2, 78503, Control_c, 0, 64, 79
2, 78510, Note_on_c, 0, 69, 82
2, 78519, Control_c, 0, 64, 79
2, 78534, Control_c, 0, 64, 80
2, 78540, Note_on_c, 0, 70, 0
2, 78550, Control_c, 0, 64, 80
2, 78641, Control_c, 0, 64, 79
2, 78656, Control_c, 0, 64, 77
2, 78672, Control_c, 0, 64, 73
2, 78687, Control_c, 0, 64, 69
2, 78687, Note_on_c, 0, 70, 82
2, 78691, Note_on_c, 0, 54, 65
2, 78702, Control_c, 0, 64, 65
2, 78702, Note_on_c, 0, 69, 0
2, 78718, Control_c, 0, 64, 62
2, 78733, Control_c, 0, 64, 61
2, 78748, Control_c, 0, 64, 59
2, 78763, Control_c, 0, 64, 58
2, 78778, Control_c, 0, 64, 56
2, 78794, Control_c, 0, 64, 52
2, 78808, Control_c, 0, 64, 50
2, 78823, Control_c, 0, 64, 49
2, 78840, Note_on_c, 0, 54, 0
2, 78843, Note_on_c, 0, 53, 66
2, 78870, Control_c, 0, 64, 47
2, 78884, Control_c, 0, 64, 45
2, 78899, Control_c, 0, 64, 44
2, 78946, Control_c, 0, 64, 42
2, 78960, Control_c, 0, 64, 35
2, 78975, Control_c, 0, 64, 29
2, 78991, Control_c, 0, 64, 25
2, 78998, Note_on_c, 0, 53, 0
2, 79003, Note_on_c, 0, 51, 59
2, 79005, Control_c, 0, 64, 19
2, 79007, Note_on_c, 0, 65, 75
2, 79020, Control_c, 0, 64, 13
2, 79044, Control_c, 0, 64, 0
2, 79135, Control_c, 0, 64, 10
2, 79151, Control_c, 0, 64, 31
2, 79153, Note_on_c, 0, 49, 65
2, 79158, Note_on_c, 0, 51, 0
2, 79165, Control_c, 0, 64, 38
2, 79180, Control_c, 0, 64, 43
2, 79196, Control_c, 0, 64, 47
2, 79211, Control_c, 0, 64, 50
2, 79228, Control_c, 0, 64, 53
2, 79237, Note_on_c, 0, 65, 0
2, 79243, Control_c, 0, 64, 54
2, 79258, Control_c, 0, 64, 53
2, 79273, Control_c, 0, 64, 51
2, 79288, Control_c, 0, 64, 47
2, 79303, Control_c, 0, 64, 41
2, 79314, Note_on_c, 0, 66, 82
2, 79318, Control_c, 0, 64, 31
2, 79327, Note_on_c, 0, 51, 62
2, 79332, Note_on_c, 0, 49, 0
2, 79333, Control_c, 0, 64, 0
2, 79408, Control_c, 0, 64, 16
2, 79423, Control_c, 0, 64, 28
2, 79439, Control_c, 0, 64, 41
2, 79454, Control_c, 0, 64, 51
2, 79466, Note_on_c, 0, 48, 67
2, 79470, Control_c, 0, 64, 59
2, 79485, Control_c, 0, 64, 61
2, 79491, Note_on_c, 0, 51, 0
2, 79500, Control_c, 0, 64, 60
2, 79515, Control_c, 0, 64, 61
2, 79530, Control_c, 0, 64, 61
2, 79546, Control_c, 0, 64, 62
2, 79576, Control_c, 0, 64, 60
2, 79582, Note_on_c, 0, 66, 0
2, 79592, Control_c, 0, 64, 54
2, 79606, Control_c, 0, 64, 36
2, 79619, Note_on_c, 0, 48, 0
2, 79621, Control_c, 0, 64, 0
2, 79626, Note_on_c, 0, 49, 67
2, 79632, Note_on_c, 0, 63, 78
2, 79758, Control_c, 0, 64, 57
2, 79773, Control_c, 0, 64, 65
2, 79780, Note_on_c, 0, 51, 69
2, 79781, Note_on_c, 0, 49, 0
2, 79789, Control_c, 0, 64, 67
2, 79811, Control_c, 0, 64, 68
2, 79827, Control_c, 0, 64, 70
2, 79842, Control_c, 0, 64, 72
2, 79856, Control_c, 0, 64, 73
2, 79887, Control_c, 0, 64, 72
2, 79902, Control_c, 0, 64, 69
2, 79918, Control_c, 0, 64, 63
2, 79928, Note_on_c, 0, 51, 0
2, 79932, Control_c, 0, 64, 36
2, 79933, Note_on_c, 0, 63, 0
2, 79943, Note_on_c, 0, 53, 63
2, 79948, Control_c, 0, 64, 0
2, 79949, Note_on_c, 0, 69, 80
2, 79952, Note_on_c, 0, 60, 70
2, 79992, Note_on_c, 0, 70, 0
2, 80085, Control_c, 0, 64, 56
2, 80099, Note_on_c, 0, 51, 60
2, 80100, Control_c, 0, 64, 66
2, 80112, Note_on_c, 0, 53, 0
2, 80116, Control_c, 0, 64, 71
2, 80131, Control_c, 0, 64, 75
2, 80147, Control_c, 0, 64, 77
2, 80161, Control_c, 0, 64, 78
2, 80213, Note_on_c, 0, 60, 0
2, 80222, Control_c, 0, 64, 75
2, 80237, Control_c, 0, 64, 68
2, 80252, Control_c, 0, 64, 37
2, 80253, Note_on_c, 0, 49, 62
2, 80254, Note_on_c, 0, 65, 70
2, 80258, Note_on_c, 0, 51, 0
2, 80268, Control_c, 0, 64, 0
2, 80374, Control_c, 0, 64, 52
2, 80390, Control_c, 0, 64, 67
2, 80398, Note_on_c, 0, 49, 0
2, 80405, Control_c, 0, 64, 71
2, 80407, Note_on_c, 0, 48, 68
2, 80420, Control_c, 0, 64, 73
2, 80435, Control_c, 0, 64, 74
2, 80450, Control_c, 0, 64, 76
2, 80466, Control_c, 0, 64, 77
2, 80481, Control_c, 0, 64, 78
2, 80507, Note_on_c, 0, 69, 0
2, 80527, Note_on_c, 0, 48, 0
2, 80541, Control_c, 0, 64, 77
2, 80557, Control_c, 0, 64, 72
2, 80579, Control_c, 0, 64, 61
2, 80581, Note_on_c, 0, 46, 69
2, 80592, Note_on_c, 0, 70, 63
2, 80595, Control_c, 0, 64, 0
2, 80602, Note_on_c, 0, 61, 66
2, 80653, Note_on_c, 0, 65, 0
2, 80716, Control_c, 0, 64, 63
2, 80731, Control_c, 0, 64, 70
2, 80747, Control_c, 0, 64, 73
2, 80756, Note_on_c, 0, 69, 70
2, 80762, Control_c, 0, 64, 74
2, 80787, Note_on_c, 0, 70, 0
2, 80792, Control_c, 0, 64, 75
2, 80834, Note_on_c, 0, 61, 0
2, 80854, Control_c, 0, 64, 74
2, 80870, Control_c, 0, 64, 73
2, 80884, Control_c, 0, 64, 71
2, 80899, Control_c, 0, 64, 66
2, 80915, Control_c, 0, 64, 62
2, 80918, Note_on_c, 0, 70, 70
2, 80929, Control_c, 0, 64, 58
2, 80940, Note_on_c, 0, 58, 71
2, 80945, Control_c, 0, 64, 56
2, 80956, Note_on_c, 0, 69, 0
2, 80960, Control_c, 0, 64, 53
2, 80975, Control_c, 0, 64, 46
2, 80991, Control_c, 0, 64, 32
2, 81005, Control_c, 0, 64, 0
2, 81041, Note_on_c, 0, 70, 0
2, 81065, Note_on_c, 0, 72, 67
2, 81201, Note_on_c, 0, 58, 0
2, 81221, Note_on_c, 0, 73, 66
2, 81225, Note_on_c, 0, 70, 63
2, 81253, Note_on_c, 0, 72, 0
2, 81265, Control_c, 0, 64, 25
2, 81279, Control_c, 0, 64, 35
2, 81294, Control_c, 0, 64, 44
2, 81310, Control_c, 0, 64, 51
2, 81325, Control_c, 0, 64, 55
2, 81347, Control_c, 0, 64, 56
2, 81362, Control_c, 0, 64, 56
2, 81362, Note_on_c, 0, 70, 0
2, 81377, Control_c, 0, 64, 55
2, 81382, Note_on_c, 0, 75, 72
2, 81390, Note_on_c, 0, 48, 64
2, 81393, Control_c, 0, 64, 52
2, 81405, Note_on_c, 0, 46, 0
2, 81408, Control_c, 0, 64, 50
2, 81408, Note_on_c, 0, 73, 0
2, 81423, Control_c, 0, 64, 46
2, 81439, Control_c, 0, 64, 40
2, 81454, Control_c, 0, 64, 32
2, 81469, Control_c, 0, 64, 27
2, 81484, Control_c, 0, 64, 24
2, 81499, Control_c, 0, 64, 10
2, 81515, Control_c, 0, 64, 0
2, 81519, Note_on_c, 0, 48, 0
2, 81528, Note_on_c, 0, 77, 78
2, 81531, Note_on_c, 0, 49, 64
2, 81532, Note_on_c, 0, 75, 0
2, 81534, Note_on_c, 0, 70, 73
2, 81681, Note_on_c, 0, 73, 74
2, 81683, Control_c, 0, 64, 24
2, 81683, Note_on_c, 0, 46, 64
2, 81689, Note_on_c, 0, 77, 0
2, 81698, Control_c, 0, 64, 32
2, 81698, Note_on_c, 0, 49, 0
2, 81706, Note_on_c, 0, 70, 0
2, 81728, Control_c, 0, 64, 28
2, 81743, Control_c, 0, 64, 26
2, 81759, Control_c, 0, 64, 22
2, 81773, Control_c, 0, 64, 16
2, 81789, Control_c, 0, 64, 0
2, 81827, Note_on_c, 0, 46, 0
2, 81842, Note_on_c, 0, 75, 73
2, 81844, Note_on_c, 0, 70, 71
2, 81845, Note_on_c, 0, 48, 67
2, 81857, Note_on_c, 0, 73, 0
2, 81925, Control_c, 0, 64, 40
2, 81940, Control_c, 0, 64, 64
2, 81956, Control_c, 0, 64, 68
2, 81970, Control_c, 0, 64, 71
2, 81986, Control_c, 0, 64, 74
2, 81986, Note_on_c, 0, 73, 80
2, 81989, Note_on_c, 0, 48, 0
2, 81998, Note_on_c, 0, 49, 70
2, 82001, Control_c, 0, 64, 77
2, 82005, Note_on_c, 0, 75, 0
2, 82014, Note_on_c, 0, 70, 0
2, 82016, Control_c, 0, 64, 79
2, 82032, Control_c, 0, 64, 79
2, 82047, Control_c, 0, 64, 80
2, 82093, Control_c, 0, 64, 78
2, 82115, Control_c, 0, 64, 72
2, 82130, Control_c, 0, 64, 58
2, 82131, Note_on_c, 0, 49, 0
2, 82143, Note_on_c, 0, 51, 68
2, 82146, Control_c, 0, 64, 0
2, 82148, Note_on_c, 0, 72, 75
2, 82167, Note_on_c, 0, 69, 61
2, 82226, Note_on_c, 0, 73, 0
2, 82237, Control_c, 0, 64, 53
2, 82252, Control_c, 0, 64, 66
2, 82268, Control_c, 0, 64, 69
2, 82282, Control_c, 0, 64, 72
2, 82285, Note_on_c, 0, 73, 62
2, 82288, Note_on_c, 0, 72, 0
2, 82290, Note_on_c, 0, 70, 75
2, 82297, Control_c, 0, 64, 74
2, 82308, Note_on_c, 0, 69, 0
2, 82313, Control_c, 0, 64, 75
2, 82343, Control_c, 0, 64, 75
2, 82381, Note_on_c, 0, 51, 0
2, 82404, Control_c, 0, 64, 75
2, 82419, Control_c, 0, 64, 72
2, 82434, Control_c, 0, 64, 66
2, 82449, Control_c, 0, 64, 54
2, 82450, Note_on_c, 0, 70, 0
2, 82453, Note_on_c, 0, 45, 64
2, 82455, Note_on_c, 0, 75, 80
2, 82463, Control_c, 0, 64, 19
2, 82470, Note_on_c, 0, 73, 0
2, 82471, Note_on_c, 0, 72, 60
2, 82479, Control_c, 0, 64, 0
2, 82612, Note_on_c, 0, 77, 85
2, 82618, Note_on_c, 0, 75, 0
2, 82646, Note_on_c, 0, 72, 0
2, 82662, Control_c, 0, 64, 44
2, 82678, Control_c, 0, 64, 47
2, 82692, Control_c, 0, 64, 45
2, 82723, Control_c, 0, 64, 46
2, 82738, Control_c, 0, 64, 48
2, 82754, Control_c, 0, 64, 49
2, 82756, Note_on_c, 0, 45, 0
2, 82756, Note_on_c, 0, 78, 82
2, 82758, Note_on_c, 0, 46, 70
2, 82762, Note_on_c, 0, 72, 75
2, 82768, Control_c, 0, 64, 46
2, 82783, Control_c, 0, 64, 45
2, 82798, Note_on_c, 0, 77, 0
2, 82799, Control_c, 0, 64, 46
2, 82814, Control_c, 0, 64, 48
2, 82830, Control_c, 0, 64, 49
2, 82860, Control_c, 0, 64, 48
2, 82883, Control_c, 0, 64, 49
2, 82898, Control_c, 0, 64, 49
2, 82900, Note_on_c, 0, 46, 0
2, 82913, Control_c, 0, 64, 51
2, 82913, Note_on_c, 0, 48, 70
2, 82921, Note_on_c, 0, 75, 82
2, 82923, Note_on_c, 0, 72, 0
2, 82928, Control_c, 0, 64, 52
2, 82955, Note_on_c, 0, 78, 0
2, 82973, Control_c, 0, 64, 52
2, 83019, Control_c, 0, 64, 52
2, 83035, Control_c, 0, 64, 51
2, 83066, Control_c, 0, 64, 48
2, 83074, Note_on_c, 0, 49, 65
2, 83074, Note_on_c, 0, 77, 88
2, 83075, Note_on_c, 0, 75, 0
2, 83077, Note_on_c, 0, 72, 80
2, 83080, Control_c, 0, 64, 39
2, 83092, Note_on_c, 0, 48, 0
2, 83095, Control_c, 0, 64, 0
2, 83229, Note_on_c, 0, 51, 67
2, 83241, Note_on_c, 0, 49, 0
2, 83378, Note_on_c, 0, 72, 0
2, 83380, Note_on_c, 0, 70, 82
2, 83381, Note_on_c, 0, 49, 71
2, 83395, Note_on_c, 0, 51, 0
2, 83523, Note_on_c, 0, 49, 0
2, 83530, Note_on_c, 0, 70, 0
2, 83531, Note_on_c, 0, 72, 87
2, 83534, Note_on_c, 0, 48, 73
2, 83695, Note_on_c, 0, 46, 74
2, 83695, Note_on_c, 0, 48, 0
2, 83695, Note_on_c, 0, 73, 88
2, 83703, Note_on_c, 0, 77, 0
2, 83725, Note_on_c, 0, 72, 0
2, 83802, Control_c, 0, 64, 65
2, 83817, Control_c, 0, 64, 68
2, 83833, Control_c, 0, 64, 70
2, 83835, Note_on_c, 0, 73, 0
2, 83848, Control_c, 0, 64, 71
2, 83853, Note_on_c, 0, 44, 75
2, 83863, Control_c, 0, 64, 75
2, 83872, Note_on_c, 0, 46, 0
2, 83878, Control_c, 0, 64, 78
2, 83893, Control_c, 0, 64, 80
2, 83909, Control_c, 0, 64, 81
2, 83955, Control_c, 0, 64, 80
2, 83970, Control_c, 0, 64, 74
2, 83986, Control_c, 0, 64, 41
2, 84000, Control_c, 0, 64, 0
2, 84003, Note_on_c, 0, 82, 83
2, 84004, Note_on_c, 0, 42, 73
2, 84010, Note_on_c, 0, 73, 73
2, 84026, Note_on_c, 0, 44, 0
2, 84133, Note_on_c, 0, 46, 74
2, 84156, Note_on_c, 0, 73, 0
2, 84156, Note_on_c, 0, 77, 79
2, 84178, Note_on_c, 0, 42, 0
2, 84272, Note_on_c, 0, 46, 0
2, 84333, Note_on_c, 0, 39, 84
2, 84340, Note_on_c, 0, 78, 81
2, 84343, Note_on_c, 0, 77, 0
2, 84349, Note_on_c, 0, 73, 69
2, 84373, Note_on_c, 0, 82, 0
2, 84396, Control_c, 0, 64, 66
2, 84419, Control_c, 0, 64, 74
2, 84434, Control_c, 0, 64, 82
2, 84449, Control_c, 0, 64, 88
2, 84453, Note_on_c, 0, 39, 0
2, 84465, Control_c, 0, 64, 94
2, 84480, Control_c, 0, 64, 97
2, 84495, Control_c, 0, 64, 99
2, 84510, Control_c, 0, 64, 100
2, 84535, Note_on_c, 0, 80, 81
2, 84540, Note_on_c, 0, 73, 0
2, 84565, Note_on_c, 0, 78, 0
2, 84632, Control_c, 0, 64, 100
2, 84661, Control_c, 0, 64, 99
2, 84677, Control_c, 0, 64, 99
2, 84688, Note_on_c, 0, 58, 80
2, 84691, Note_on_c, 0, 78, 83
2, 84692, Control_c, 0, 64, 98
2, 84708, Control_c, 0, 64, 97
2, 84722, Control_c, 0, 64, 96
2, 84737, Control_c, 0, 64, 96
2, 84737, Note_on_c, 0, 80, 0
2, 84753, Control_c, 0, 64, 95
2, 84768, Control_c, 0, 64, 95
2, 84783, Control_c, 0, 64, 94
2, 84799, Control_c, 0, 64, 93
2, 84814, Control_c, 0, 64, 92
2, 84830, Control_c, 0, 64, 91
2, 84844, Control_c, 0, 64, 91
2, 84854, Note_on_c, 0, 77, 79
2, 84857, Note_on_c, 0, 78, 0
2, 84859, Control_c, 0, 64, 89
2, 84875, Control_c, 0, 64, 88
2, 84890, Control_c, 0, 64, 87
2, 84906, Control_c, 0, 64, 86
2, 84920, Control_c, 0, 64, 85
2, 84935, Control_c, 0, 64, 85
2, 84952, Control_c, 0, 64, 84
2, 84967, Control_c, 0, 64, 83
2, 84982, Control_c, 0, 64, 82
2, 84997, Control_c, 0, 64, 80
2, 85006, Note_on_c, 0, 75, 82
2, 85012, Control_c, 0, 64, 79
2, 85017, Note_on_c, 0, 60, 77
2, 85028, Control_c, 0, 64, 77
2, 85043, Control_c, 0, 64, 74
2, 85043, Note_on_c, 0, 77, 0
2, 85058, Control_c, 0, 64, 71
2, 85062, Note_on_c, 0, 58, 0
2, 85073, Control_c, 0, 64, 68
2, 85088, Control_c, 0, 64, 65
2, 85103, Control_c, 0, 64, 64
2, 85119, Control_c, 0, 64, 63
2, 85134, Control_c, 0, 64, 62
2, 85149, Control_c, 0, 64, 60
2, 85160, Note_on_c, 0, 73, 76
2, 85164, Control_c, 0, 64, 59
2, 85195, Note_on_c, 0, 75, 0
2, 85217, Control_c, 0, 64, 59
2, 85233, Control_c, 0, 64, 57
2, 85248, Control_c, 0, 64, 56
2, 85263, Control_c, 0, 64, 55
2, 85278, Control_c, 0, 64, 52
2, 85293, Control_c, 0, 64, 45
2, 85309, Control_c, 0, 64, 0
2, 85320, Note_on_c, 0, 73, 0
2, 85321, Note_on_c, 0, 60, 0
2, 85322, Note_on_c, 0, 72, 76
2, 85323, Note_on_c, 0, 63, 75
2, 85445, Control_c, 0, 64, 10
2, 85453, Note_on_c, 0, 72, 0
2, 85460, Control_c, 0, 64, 65
2, 85470, Note_on_c, 0, 75, 78
2, 85476, Control_c, 0, 64, 72
2, 85490, Control_c, 0, 64, 78
2, 85500, Note_on_c, 0, 63, 0
2, 85506, Control_c, 0, 64, 81
2, 85521, Control_c, 0, 64, 82
2, 85536, Control_c, 0, 64, 83
2, 85552, Control_c, 0, 64, 84
2, 85566, Control_c, 0, 64, 84
2, 85627, Note_on_c, 0, 63, 77
2, 85628, Control_c, 0, 64, 84
2, 85630, Note_on_c, 0, 69, 78
2, 85642, Control_c, 0, 64, 83
2, 85648, Note_on_c, 0, 75, 0
2, 85657, Control_c, 0, 64, 81
2, 85673, Control_c, 0, 64, 76
2, 85688, Control_c, 0, 64, 67
2, 85703, Control_c, 0, 64, 37
2, 85719, Control_c, 0, 64, 0
2, 85767, Note_on_c, 0, 54, 64
2, 85898, Note_on_c, 0, 54, 0
2, 85930, Note_on_c, 0, 57, 68
2, 85933, Note_on_c, 0, 72, 83
2, 85935, Note_on_c, 0, 53, 71
2, 85951, Note_on_c, 0, 63, 0
2, 85962, Note_on_c, 0, 69, 0
2, 86031, Control_c, 0, 64, 56
2, 86046, Control_c, 0, 64, 70
2, 86061, Control_c, 0, 64, 78
2, 86077, Control_c, 0, 64, 85
2, 86090, Note_on_c, 0, 53, 0
2, 86091, Note_on_c, 0, 51, 73
2, 86092, Control_c, 0, 64, 88
2, 86095, Note_on_c, 0, 57, 0
2, 86108, Control_c, 0, 64, 91
2, 86122, Control_c, 0, 64, 92
2, 86137, Control_c, 0, 64, 92
2, 86153, Control_c, 0, 64, 93
2, 86175, Note_on_c, 0, 51, 0
2, 86182, Control_c, 0, 64, 92
2, 86198, Control_c, 0, 64, 91
2, 86213, Control_c, 0, 64, 87
2, 86229, Control_c, 0, 64, 80
2, 86242, Note_on_c, 0, 77, 85
2, 86244, Control_c, 0, 64, 69
2, 86245, Note_on_c, 0, 72, 0
2, 86246, Note_on_c, 0, 49, 72
2, 86248, Note_on_c, 0, 58, 64
2, 86258, Control_c, 0, 64, 41
2, 86274, Control_c, 0, 64, 0
2, 86395, Control_c, 0, 64, 60
2, 86398, Note_on_c, 0, 49, 0
2, 86406, Note_on_c, 0, 48, 71
2, 86410, Control_c, 0, 64, 64
2, 86420, Note_on_c, 0, 58, 0
2, 86426, Control_c, 0, 64, 65
2, 86455, Control_c, 0, 64, 65
2, 86486, Control_c, 0, 64, 65
2, 86501, Control_c, 0, 64, 63
2, 86517, Control_c, 0, 64, 55
2, 86532, Control_c, 0, 64, 0
2, 86538, Note_on_c, 0, 48, 0
2, 86555, Note_on_c, 0, 73, 78
2, 86556, Note_on_c, 0, 46, 76
2, 86558, Note_on_c, 0, 70, 77
2, 86658, Note_on_c, 0, 77, 0
2, 86662, Note_on_c, 0, 46, 0
2, 86670, Control_c, 0, 64, 49
2, 86685, Control_c, 0, 64, 65
2, 86696, Note_on_c, 0, 49, 71
2, 86700, Control_c, 0, 64, 68
2, 86723, Control_c, 0, 64, 70
2, 86738, Control_c, 0, 64, 72
2, 86754, Control_c, 0, 64, 74
2, 86768, Control_c, 0, 64, 75
2, 86773, Note_on_c, 0, 70, 0
2, 86814, Control_c, 0, 64, 74
2, 86829, Control_c, 0, 64, 72
2, 86832, Note_on_c, 0, 49, 0
2, 86844, Control_c, 0, 64, 66
2, 86859, Control_c, 0, 64, 40
2, 86874, Note_on_c, 0, 42, 69
2, 86875, Control_c, 0, 64, 0
2, 86878, Note_on_c, 0, 75, 73
2, 86887, Note_on_c, 0, 70, 65
2, 86889, Note_on_c, 0, 73, 0
2, 86997, Control_c, 0, 64, 58
2, 87012, Control_c, 0, 64, 67
2, 87015, Note_on_c, 0, 42, 0
2, 87027, Control_c, 0, 64, 70
2, 87035, Note_on_c, 0, 77, 76
2, 87042, Control_c, 0, 64, 71
2, 87053, Note_on_c, 0, 75, 0
2, 87057, Control_c, 0, 64, 71
2, 87118, Control_c, 0, 64, 71
2, 87133, Control_c, 0, 64, 69
2, 87149, Control_c, 0, 64, 63
2, 87164, Control_c, 0, 64, 0
2, 87182, Note_on_c, 0, 39, 61
2, 87193, Note_on_c, 0, 78, 72
2, 87205, Note_on_c, 0, 77, 0
2, 87285, Control_c, 0, 64, 46
2, 87300, Control_c, 0, 64, 66
2, 87301, Note_on_c, 0, 70, 0
2, 87315, Control_c, 0, 64, 70
2, 87330, Control_c, 0, 64, 72
2, 87342, Note_on_c, 0, 75, 67
2, 87346, Control_c, 0, 64, 73
2, 87361, Control_c, 0, 64, 74
2, 87373, Note_on_c, 0, 39, 0
2, 87376, Control_c, 0, 64, 75
2, 87392, Control_c, 0, 64, 75
2, 87401, Note_on_c, 0, 78, 0
2, 87438, Control_c, 0, 64, 74
2, 87452, Control_c, 0, 64, 71
2, 87468, Control_c, 0, 64, 59
2, 87491, Control_c, 0, 64, 0
2, 87493, Note_on_c, 0, 75, 0
2, 87513, Note_on_c, 0, 69, 54
2, 87516, Note_on_c, 0, 72, 61
2, 87520, Note_on_c, 0, 41, 62
2, 87612, Control_c, 0, 64, 56
2, 87628, Control_c, 0, 64, 67
2, 87643, Control_c, 0, 64, 71
2, 87657, Control_c, 0, 64, 73
2, 87672, Note_on_c, 0, 41, 0
2, 87673, Control_c, 0, 64, 75
2, 87676, Note_on_c, 0, 72, 0
2, 87678, Note_on_c, 0, 78, 71
2, 87688, Control_c, 0, 64, 77
2, 87703, Control_c, 0, 64, 78
2, 87719, Control_c, 0, 64, 79
2, 87734, Control_c, 0, 64, 79
2, 87810, Control_c, 0, 64, 79
2, 87826, Control_c, 0, 64, 76
2, 87841, Control_c, 0, 64, 68
2, 87847, Note_on_c, 0, 53, 63
2, 87849, Note_on_c, 0, 78, 0
2, 87856, Control_c, 0, 64, 29
2, 87856, Note_on_c, 0, 77, 61
2, 87871, Control_c, 0, 64, 0
2, 87947, Control_c, 0, 64, 40
2, 87962, Control_c, 0, 64, 65
2, 87977, Control_c, 0, 64, 69
2, 87991, Note_on_c, 0, 77, 0
2, 87992, Control_c, 0, 64, 72
2, 88003, Note_on_c, 0, 53, 0
2, 88003, Note_on_c, 0, 75, 62
2, 88007, Control_c, 0, 64, 73
2, 88022, Control_c, 0, 64, 75
2, 88038, Control_c, 0, 64, 76
2, 88053, Control_c, 0, 64, 77
2, 88069, Control_c, 0, 64, 78
2, 88159, Control_c, 0, 64, 75
2, 88162, Note_on_c, 0, 75, 0
2, 88165, Note_on_c, 0, 69, 0
2, 88174, Control_c, 0, 64, 67
2, 88180, Note_on_c, 0, 70, 57
2, 88190, Control_c, 0, 64, 0
2, 88193, Note_on_c, 0, 73, 47
2, 88195, Note_on_c, 0, 46, 50
2, 88290, Control_c, 0, 64, 19
2, 88305, Control_c, 0, 64, 63
2, 88320, Control_c, 0, 64, 67
2, 88335, Control_c, 0, 64, 68
2, 88336, Note_on_c, 0, 70, 0
2, 88363, Note_on_c, 0, 46, 0
2, 88366, Control_c, 0, 64, 69
2, 88379, Note_on_c, 0, 48, 55
2, 88381, Note_on_c, 0, 65, 56
2, 88396, Control_c, 0, 64, 68
2, 88411, Control_c, 0, 64, 68
2, 88427, Control_c, 0, 64, 67
2, 88442, Control_c, 0, 64, 65
2, 88456, Control_c, 0, 64, 62
2, 88472, Control_c, 0, 64, 59
2, 88487, Control_c, 0, 64, 53
2, 88501, Control_c, 0, 64, 47
2, 88517, Control_c, 0, 64, 41
2, 88532, Control_c, 0, 64, 34
2, 88548, Control_c, 0, 64, 26
2, 88562, Note_on_c, 0, 48, 0
2, 88563, Control_c, 0, 64, 0
2, 88565, Note_on_c, 0, 49, 46
2, 88568, Note_on_c, 0, 70, 61
2, 88622, Note_on_c, 0, 65, 0
2, 88734, Note_on_c, 0, 49, 0
2, 88734, Note_on_c, 0, 51, 46
2, 88861, Note_on_c, 0, 51, 0
2, 88892, Note_on_c, 0, 72, 62
2, 88897, Note_on_c, 0, 53, 49
2, 88921, Note_on_c, 0, 73, 0
2, 89043, Control_c, 0, 64, 41
2, 89053, Note_on_c, 0, 54, 49
2, 89058, Control_c, 0, 64, 55
2, 89059, Note_on_c, 0, 53, 0
2, 89073, Control_c, 0, 64, 60
2, 89088, Control_c, 0, 64, 62
2, 89103, Control_c, 0, 64, 63
2, 89119, Control_c, 0, 64, 64
2, 89164, Control_c, 0, 64, 63
2, 89179, Control_c, 0, 64, 58
2, 89191, Note_on_c, 0, 54, 0
2, 89195, Control_c, 0, 64, 33
2, 89198, Note_on_c, 0, 77, 66
2, 89204, Note_on_c, 0, 72, 0
2, 89208, Note_on_c, 0, 56, 55
2, 89210, Control_c, 0, 64, 0
2, 89217, Note_on_c, 0, 68, 54
2, 89229, Note_on_c, 0, 70, 0
2, 89317, Control_c, 0, 64, 56
2, 89332, Control_c, 0, 64, 67
2, 89347, Control_c, 0, 64, 71
2, 89356, Note_on_c, 0, 53, 52
2, 89357, Note_on_c, 0, 56, 0
2, 89362, Control_c, 0, 64, 73
2, 89377, Control_c, 0, 64, 74
2, 89393, Control_c, 0, 64, 74
2, 89426, Note_on_c, 0, 77, 0
2, 89478, Note_on_c, 0, 53, 0
2, 89483, Control_c, 0, 64, 73
2, 89498, Control_c, 0, 64, 70
2, 89503, Note_on_c, 0, 70, 71
2, 89510, Note_on_c, 0, 54, 50
2, 89514, Control_c, 0, 64, 65
2, 89529, Control_c, 0, 64, 58
2, 89536, Note_on_c, 0, 68, 0
2, 89545, Control_c, 0, 64, 53
2, 89559, Control_c, 0, 64, 53
2, 89574, Control_c, 0, 64, 51
2, 89590, Control_c, 0, 64, 47
2, 89605, Control_c, 0, 64, 44
2, 89620, Control_c, 0, 64, 41
2, 89650, Control_c, 0, 64, 42
2, 89662, Note_on_c, 0, 54, 0
2, 89666, Note_on_c, 0, 56, 52
2, 89675, Note_on_c, 0, 61, 62
2, 89727, Control_c, 0, 64, 42
2, 89826, Control_c, 0, 64, 41
2, 89840, Control_c, 0, 64, 39
2, 89847, Note_on_c, 0, 66, 64
2, 89855, Control_c, 0, 64, 37
2, 89857, Note_on_c, 0, 58, 50
2, 89861, Note_on_c, 0, 61, 0
2, 89872, Control_c, 0, 64, 32
2, 89887, Control_c, 0, 64, 26
2, 89902, Control_c, 0, 64, 16
2, 89917, Control_c, 0, 64, 0
2, 89934, Note_on_c, 0, 56, 0
2, 89948, Control_c, 0, 64, 18
2, 89963, Control_c, 0, 64, 32
2, 89978, Control_c, 0, 64, 44
2, 89991, Note_on_c, 0, 58, 0
2, 89993, Control_c, 0, 64, 56
2, 90008, Control_c, 0, 64, 62
2, 90020, Note_on_c, 0, 60, 48
2, 90023, Control_c, 0, 64, 65
2, 90039, Control_c, 0, 64, 66
2, 90054, Control_c, 0, 64, 66
2, 90100, Control_c, 0, 64, 65
2, 90114, Control_c, 0, 64, 64
2, 90129, Control_c, 0, 64, 59
2, 90145, Control_c, 0, 64, 45
2, 90160, Control_c, 0, 64, 0
2, 90169, Note_on_c, 0, 70, 0
2, 90170, Note_on_c, 0, 68, 64
2, 90181, Note_on_c, 0, 61, 49
2, 90188, Note_on_c, 0, 60, 0
2, 90312, Control_c, 0, 64, 61
2, 90320, Note_on_c, 0, 61, 0
2, 90320, Note_on_c, 0, 63, 59
2, 90326, Control_c, 0, 64, 68
2, 90341, Control_c, 0, 64, 70
2, 90357, Control_c, 0, 64, 72
2, 90372, Control_c, 0, 64, 74
2, 90388, Control_c, 0, 64, 75
2, 90403, Control_c, 0, 64, 76
2, 90448, Control_c, 0, 64, 75
2, 90463, Control_c, 0, 64, 71
2, 90472, Note_on_c, 0, 63, 0
2, 90478, Note_on_c, 0, 66, 0
2, 90479, Control_c, 0, 64, 60
2, 90479, Note_on_c, 0, 73, 66
2, 90483, Note_on_c, 0, 61, 53
2, 90488, Note_on_c, 0, 65, 51
2, 90494, Control_c, 0, 64, 0
2, 90531, Note_on_c, 0, 68, 0
2, 90593, Control_c, 0, 64, 57
2, 90607, Control_c, 0, 64, 67
2, 90613, Note_on_c, 0, 61, 0
2, 90622, Control_c, 0, 64, 72
2, 90638, Control_c, 0, 64, 74
2, 90645, Note_on_c, 0, 60, 57
2, 90653, Control_c, 0, 64, 76
2, 90669, Control_c, 0, 64, 77
2, 90671, Note_on_c, 0, 73, 0
2, 90685, Control_c, 0, 64, 78
2, 90775, Control_c, 0, 64, 78
2, 90791, Control_c, 0, 64, 76
2, 90804, Note_on_c, 0, 66, 66
2, 90806, Control_c, 0, 64, 71
2, 90809, Note_on_c, 0, 58, 52
2, 90821, Control_c, 0, 64, 64
2, 90821, Note_on_c, 0, 60, 0
2, 90837, Control_c, 0, 64, 51
2, 90852, Control_c, 0, 64, 44
2, 90868, Control_c, 0, 64, 44
2, 90897, Control_c, 0, 64, 42
2, 90913, Control_c, 0, 64, 37
2, 90928, Control_c, 0, 64, 36
2, 90943, Control_c, 0, 64, 38
2, 90956, Note_on_c, 0, 58, 0
2, 90958, Control_c, 0, 64, 40
2, 90959, Note_on_c, 0, 56, 54
2, 90973, Control_c, 0, 64, 42
2, 90989, Control_c, 0, 64, 43
2, 91004, Control_c, 0, 64, 44
2, 91065, Control_c, 0, 64, 45
2, 91080, Control_c, 0, 64, 46
2, 91093, Note_on_c, 0, 56, 0
2, 91115, Note_on_c, 0, 65, 0
2, 91117, Note_on_c, 0, 63, 56
2, 91123, Note_on_c, 0, 54, 53
2, 91125, Control_c, 0, 64, 46
2, 91156, Control_c, 0, 64, 47
2, 91170, Control_c, 0, 64, 48
2, 91186, Control_c, 0, 64, 50
2, 91201, Control_c, 0, 64, 50
2, 91232, Control_c, 0, 64, 51
2, 91246, Control_c, 0, 64, 52
2, 91258, Note_on_c, 0, 54, 0
2, 91261, Control_c, 0, 64, 53
2, 91269, Note_on_c, 0, 53, 50
2, 91272, Note_on_c, 0, 61, 58
2, 91277, Control_c, 0, 64, 54
2, 91308, Control_c, 0, 64, 54
2, 91326, Note_on_c, 0, 63, 0
2, 91346, Control_c, 0, 64, 53
2, 91361, Control_c, 0, 64, 51
2, 91375, Control_c, 0, 64, 48
2, 91391, Control_c, 0, 64, 40
2, 91406, Control_c, 0, 64, 18
2, 91421, Control_c, 0, 64, 0
2, 91432, Note_on_c, 0, 60, 61
2, 91433, Note_on_c, 0, 61, 0
2, 91443, Note_on_c, 0, 53, 0
2, 91445, Note_on_c, 0, 51, 52
2, 91543, Control_c, 0, 64, 24
2, 91559, Control_c, 0, 64, 59
2, 91565, Note_on_c, 0, 51, 0
2, 91574, Control_c, 0, 64, 65
2, 91590, Control_c, 0, 64, 68
2, 91590, Note_on_c, 0, 53, 58
2, 91604, Control_c, 0, 64, 70
2, 91619, Control_c, 0, 64, 72
2, 91635, Control_c, 0, 64, 72
2, 91650, Control_c, 0, 64, 73
2, 91696, Control_c, 0, 64, 72
2, 91712, Control_c, 0, 64, 72
2, 91726, Control_c, 0, 64, 69
2, 91732, Note_on_c, 0, 60, 0
2, 91741, Control_c, 0, 64, 64
2, 91749, Note_on_c, 0, 58, 57
2, 91754, Note_on_c, 0, 53, 0
2, 91756, Note_on_c, 0, 54, 59
2, 91757, Control_c, 0, 64, 40
2, 91772, Control_c, 0, 64, 0
2, 91902, Note_on_c, 0, 54, 0
2, 91909, Control_c, 0, 64, 56
2, 91915, Note_on_c, 0, 51, 61
2, 91924, Control_c, 0, 64, 65
2, 91938, Control_c, 0, 64, 68
2, 91954, Control_c, 0, 64, 69
2, 91969, Control_c, 0, 64, 71
2, 91985, Control_c, 0, 64, 73
2, 92000, Control_c, 0, 64, 74
2, 92014, Control_c, 0, 64, 75
2, 92081, Note_on_c, 0, 66, 0
2, 92098, Control_c, 0, 64, 74
2, 92114, Control_c, 0, 64, 70
2, 92116, Note_on_c, 0, 51, 0
2, 92124, Note_on_c, 0, 53, 73
2, 92124, Note_on_c, 0, 57, 54
2, 92129, Control_c, 0, 64, 63
2, 92134, Note_on_c, 0, 58, 0
2, 92143, Control_c, 0, 64, 32
2, 92159, Control_c, 0, 64, 0
2, 92280, Control_c, 0, 64, 63
2, 92295, Control_c, 0, 64, 68
2, 92311, Control_c, 0, 64, 71
2, 92326, Note_on_c, 0, 65, 50
2, 92327, Control_c, 0, 64, 73
2, 92342, Control_c, 0, 64, 74
2, 92358, Control_c, 0, 64, 75
2, 92372, Control_c, 0, 64, 76
2, 92388, Control_c, 0, 64, 76
2, 92444, Note_on_c, 0, 57, 0
2, 92465, Control_c, 0, 64, 76
2, 92480, Control_c, 0, 64, 75
2, 92495, Control_c, 0, 64, 74
2, 92508, Note_on_c, 0, 63, 55
2, 92511, Control_c, 0, 64, 71
2, 92514, Note_on_c, 0, 58, 62
2, 92525, Control_c, 0, 64, 68
2, 92540, Control_c, 0, 64, 64
2, 92549, Note_on_c, 0, 65, 0
2, 92556, Control_c, 0, 64, 60
2, 92571, Control_c, 0, 64, 60
2, 92586, Control_c, 0, 64, 60
2, 92601, Control_c, 0, 64, 60
2, 92616, Control_c, 0, 64, 57
2, 92632, Control_c, 0, 64, 53
2, 92647, Control_c, 0, 64, 49
2, 92689, Note_on_c, 0, 61, 53
2, 92692, Control_c, 0, 64, 49
2, 92706, Note_on_c, 0, 63, 0
2, 92708, Control_c, 0, 64, 48
2, 92723, Control_c, 0, 64, 47
2, 92738, Control_c, 0, 64, 46
2, 92839, Note_on_c, 0, 61, 0
2, 92845, Control_c, 0, 64, 46
2, 92860, Note_on_c, 0, 60, 54
2, 92867, Control_c, 0, 64, 45
2, 92882, Control_c, 0, 64, 44
2, 92943, Control_c, 0, 64, 44
2, 92959, Control_c, 0, 64, 42
2, 92974, Control_c, 0, 64, 40
2, 93004, Control_c, 0, 64, 39
2, 93017, Note_on_c, 0, 61, 55
2, 93019, Control_c, 0, 64, 39
2, 93029, Note_on_c, 0, 60, 0
2, 93035, Control_c, 0, 64, 38
2, 93050, Control_c, 0, 64, 36
2, 93065, Control_c, 0, 64, 34
2, 93080, Control_c, 0, 64, 34
2, 93110, Control_c, 0, 64, 32
2, 93125, Control_c, 0, 64, 31
2, 93141, Control_c, 0, 64, 28
2, 93157, Control_c, 0, 64, 27
2, 93172, Control_c, 0, 64, 26
2, 93178, Note_on_c, 0, 63, 56
2, 93187, Note_on_c, 0, 61, 0
2, 93192, Note_on_c, 0, 57, 47
2, 93200, Note_on_c, 0, 58, 0
2, 93203, Control_c, 0, 64, 25
2, 93233, Control_c, 0, 64, 22
2, 93248, Control_c, 0, 64, 19
2, 93263, Control_c, 0, 64, 18
2, 93309, Control_c, 0, 64, 16
2, 93324, Control_c, 0, 64, 13
2, 93334, Note_on_c, 0, 63, 0
2, 93339, Control_c, 0, 64, 0
2, 93341, Note_on_c, 0, 60, 51
2, 93481, Note_on_c, 0, 60, 0
2, 93497, Note_on_c, 0, 61, 58
2, 93516, Note_on_c, 0, 58, 50
2, 93558, Note_on_c, 0, 57, 0
2, 93663, Note_on_c, 0, 58, 0
2, 93663, Note_on_c, 0, 63, 56
2, 93677, Note_on_c, 0, 60, 44
2, 93714, Note_on_c, 0, 61, 0
2, 93812, Note_on_c, 0, 63, 0
2, 93823, Note_on_c, 0, 60, 0
2, 93823, Note_on_c, 0, 65, 61
2, 93833, Note_on_c, 0, 61, 56
2, 93973, Note_on_c, 0, 67, 64
2, 93978, Note_on_c, 0, 58, 56
2, 94003, Note_on_c, 0, 65, 0
2, 94094, Note_on_c, 0, 61, 0
2, 94136, Note_on_c, 0, 58, 0
2, 94138, Note_on_c, 0, 69, 65
2, 94139, Note_on_c, 0, 60, 59
2, 94178, Note_on_c, 0, 67, 0
2, 94288, Note_on_c, 0, 70, 72
2, 94306, Note_on_c, 0, 61, 56
2, 94322, Note_on_c, 0, 69, 0
2, 94334, Note_on_c, 0, 60, 0
2, 94456, Note_on_c, 0, 72, 73
2, 94466, Note_on_c, 0, 63, 60
2, 94487, Note_on_c, 0, 70, 0
2, 94579, Note_on_c, 0, 61, 0
2, 94606, Note_on_c, 0, 69, 76
2, 94613, Note_on_c, 0, 60, 64
2, 94626, Note_on_c, 0, 72, 0
2, 94635, Note_on_c, 0, 63, 0
2, 94764, Note_on_c, 0, 70, 77
2, 94780, Note_on_c, 0, 61, 70
2, 94800, Note_on_c, 0, 69, 0
2, 94814, Note_on_c, 0, 60, 0
2, 94919, Control_c, 0, 64, 16
2, 94919, Note_on_c, 0, 72, 75
2, 94923, Note_on_c, 0, 63, 69
2, 94934, Control_c, 0, 64, 19
2, 94943, Note_on_c, 0, 70, 0
2, 94969, Note_on_c, 0, 61, 0
2, 94979, Control_c, 0, 64, 10
2, 94995, Control_c, 0, 64, 0
2, 95082, Note_on_c, 0, 65, 77
2, 95082, Note_on_c, 0, 73, 77
2, 95087, Note_on_c, 0, 63, 0
2, 95087, Note_on_c, 0, 72, 0
2, 95170, Control_c, 0, 64, 62
2, 95185, Control_c, 0, 64, 71
2, 95200, Control_c, 0, 64, 78
2, 95209, Note_on_c, 0, 53, 0
2, 95215, Control_c, 0, 64, 82
2, 95221, Note_on_c, 0, 65, 0
2, 95231, Control_c, 0, 64, 84
2, 95234, Note_on_c, 0, 70, 80
2, 95244, Note_on_c, 0, 67, 69
2, 95245, Control_c, 0, 64, 85
2, 95260, Control_c, 0, 64, 86
2, 95269, Note_on_c, 0, 73, 0
2, 95276, Control_c, 0, 64, 87
2, 95291, Control_c, 0, 64, 87
2, 95322, Control_c, 0, 64, 88
2, 95367, Control_c, 0, 64, 87
2, 95382, Control_c, 0, 64, 86
2, 95396, Note_on_c, 0, 69, 82
2, 95397, Note_on_c, 0, 65, 74
2, 95398, Control_c, 0, 64, 83
2, 95404, Note_on_c, 0, 72, 83
2, 95413, Control_c, 0, 64, 77
2, 95429, Control_c, 0, 64, 66
2, 95434, Note_on_c, 0, 67, 0
2, 95443, Control_c, 0, 64, 45
2, 95444, Note_on_c, 0, 70, 0
2, 95458, Control_c, 0, 64, 0
2, 95557, Note_on_c, 0, 73, 77
2, 95560, Note_on_c, 0, 70, 66
2, 95575, Note_on_c, 0, 72, 0
2, 95595, Note_on_c, 0, 69, 0
2, 95612, Control_c, 0, 64, 10
2, 95628, Control_c, 0, 64, 24
2, 95643, Control_c, 0, 64, 21
2, 95658, Control_c, 0, 64, 0
2, 95721, Note_on_c, 0, 72, 65
2, 95722, Note_on_c, 0, 75, 79
2, 95734, Control_c, 0, 64, 21
2, 95739, Note_on_c, 0, 73, 0
2, 95746, Note_on_c, 0, 70, 0
2, 95749, Control_c, 0, 64, 48
2, 95764, Control_c, 0, 64, 62
2, 95779, Control_c, 0, 64, 68
2, 95794, Control_c, 0, 64, 73
2, 95795, Note_on_c, 0, 72, 0
2, 95809, Control_c, 0, 64, 79
2, 95825, Control_c, 0, 64, 80
2, 95859, Note_on_c, 0, 75, 0
2, 95871, Note_on_c, 0, 72, 80
2, 95877, Note_on_c, 0, 69, 69
2, 95916, Control_c, 0, 64, 79
2, 95939, Control_c, 0, 64, 78
2, 95954, Control_c, 0, 64, 77
2, 95969, Control_c, 0, 64, 75
2, 95985, Control_c, 0, 64, 72
2, 96000, Control_c, 0, 64, 67
2, 96014, Control_c, 0, 64, 62
2, 96030, Control_c, 0, 64, 59
2, 96031, Note_on_c, 0, 73, 81
2, 96035, Note_on_c, 0, 70, 74
2, 96059, Note_on_c, 0, 72, 0
2, 96060, Control_c, 0, 64, 58
2, 96076, Control_c, 0, 64, 55
2, 96083, Note_on_c, 0, 69, 0
2, 96090, Control_c, 0, 64, 49
2, 96106, Control_c, 0, 64, 43
2, 96136, Control_c, 0, 64, 44
2, 96166, Control_c, 0, 64, 44
2, 96178, Note_on_c, 0, 70, 0
2, 96185, Note_on_c, 0, 72, 68
2, 96189, Note_on_c, 0, 75, 80
2, 96211, Control_c, 0, 64, 45
2, 96223, Note_on_c, 0, 73, 0
2, 96227, Control_c, 0, 64, 45
2, 96273, Control_c, 0, 64, 46
2, 96287, Control_c, 0, 64, 46
2, 96345, Note_on_c, 0, 73, 66
2, 96347, Note_on_c, 0, 75, 0
2, 96350, Note_on_c, 0, 72, 0
2, 96350, Note_on_c, 0, 77, 84
2, 96394, Control_c, 0, 64, 46
2, 96409, Control_c, 0, 64, 45
2, 96471, Control_c, 0, 64, 44
2, 96486, Control_c, 0, 64, 44
2, 96494, Note_on_c, 0, 70, 66
2, 96496, Note_on_c, 0, 79, 90
2, 96516, Control_c, 0, 64, 44
2, 96523, Note_on_c, 0, 77, 0
2, 96547, Control_c, 0, 64, 44
2, 96592, Control_c, 0, 64, 44
2, 96630, Note_on_c, 0, 73, 0
2, 96652, Control_c, 0, 64, 44
2, 96655, Note_on_c, 0, 72, 64
2, 96655, Note_on_c, 0, 81, 94
2, 96665, Note_on_c, 0, 70, 0
2, 96668, Control_c, 0, 64, 43
2, 96679, Note_on_c, 0, 79, 0
2, 96683, Control_c, 0, 64, 43
2, 96707, Control_c, 0, 64, 42
2, 96721, Control_c, 0, 64, 42
2, 96812, Control_c, 0, 64, 43
2, 96820, Note_on_c, 0, 82, 89
2, 96828, Control_c, 0, 64, 44
2, 96828, Note_on_c, 0, 73, 65
2, 96843, Control_c, 0, 64, 45
2, 96851, Note_on_c, 0, 81, 0
2, 96857, Control_c, 0, 64, 47
2, 96857, Note_on_c, 0, 72, 0
2, 96873, Control_c, 0, 64, 51
2, 96888, Control_c, 0, 64, 56
2, 96903, Control_c, 0, 64, 62
2, 96919, Control_c, 0, 64, 64
2, 96933, Control_c, 0, 64, 66
2, 96949, Control_c, 0, 64, 65
2, 96964, Control_c, 0, 64, 64
2, 96979, Control_c, 0, 64, 59
2, 96980, Note_on_c, 0, 84, 88
2, 96985, Note_on_c, 0, 82, 0
2, 96995, Control_c, 0, 64, 0
2, 96995, Note_on_c, 0, 75, 63
2, 97117, Control_c, 0, 64, 59
2, 97131, Control_c, 0, 64, 68
2, 97138, Note_on_c, 0, 81, 87
2, 97139, Note_on_c, 0, 72, 69
2, 97147, Control_c, 0, 64, 73
2, 97154, Note_on_c, 0, 84, 0
2, 97162, Control_c, 0, 64, 80
2, 97176, Control_c, 0, 64, 85
2, 97177, Note_on_c, 0, 75, 0
2, 97183, Note_on_c, 0, 81, 0
2, 97187, Note_on_c, 0, 73, 0
2, 97192, Control_c, 0, 64, 89
2, 97207, Control_c, 0, 64, 91
2, 97217, Note_on_c, 0, 72, 0
2, 97222, Control_c, 0, 64, 92
2, 97239, Control_c, 0, 64, 93
2, 97254, Control_c, 0, 64, 94
2, 97270, Control_c, 0, 64, 95
2, 97285, Note_on_c, 0, 65, 0
2, 97367, Note_on_c, 0, 73, 11
2, 97389, Note_on_c, 0, 82, 78
2, 97391, Control_c, 0, 64, 94
2, 97406, Control_c, 0, 64, 93
2, 97407, Note_on_c, 0, 74, 61
2, 97420, Control_c, 0, 64, 90
2, 97436, Control_c, 0, 64, 87
2, 97451, Control_c, 0, 64, 83
2, 97475, Control_c, 0, 64, 79
2, 97489, Control_c, 0, 64, 73
2, 97505, Control_c, 0, 64, 67
2, 97520, Control_c, 0, 64, 59
2, 97535, Control_c, 0, 64, 39
2, 97551, Control_c, 0, 64, 32
2, 97560, Note_on_c, 0, 73, 0
2, 97580, Control_c, 0, 64, 30
2, 97596, Control_c, 0, 64, 0
2, 97597, Note_on_c, 0, 72, 73
2, 97597, Note_on_c, 0, 74, 0
2, 97598, Note_on_c, 0, 66, 68
2, 97672, Control_c, 0, 64, 10
2, 97687, Control_c, 0, 64, 16
2, 97701, Control_c, 0, 64, 22
2, 97717, Control_c, 0, 64, 31
2, 97732, Control_c, 0, 64, 34
2, 97737, Note_on_c, 0, 66, 0
2, 97748, Control_c, 0, 64, 35
2, 97759, Note_on_c, 0, 74, 69
2, 97762, Note_on_c, 0, 65, 69
2, 97763, Control_c, 0, 64, 36
2, 97785, Note_on_c, 0, 72, 0
2, 97793, Control_c, 0, 64, 38
2, 97808, Control_c, 0, 64, 41
2, 97822, Control_c, 0, 64, 45
2, 97838, Control_c, 0, 64, 46
2, 97853, Control_c, 0, 64, 45
2, 97869, Control_c, 0, 64, 45
2, 97884, Control_c, 0, 64, 46
2, 97899, Control_c, 0, 64, 47
2, 97909, Note_on_c, 0, 65, 0
2, 97914, Note_on_c, 0, 63, 63
2, 97915, Control_c, 0, 64, 48
2, 97918, Note_on_c, 0, 75, 71
2, 97941, Note_on_c, 0, 74, 0
2, 97946, Control_c, 0, 64, 49
2, 97975, Control_c, 0, 64, 49
2, 98036, Control_c, 0, 64, 50
2, 98067, Note_on_c, 0, 63, 0
2, 98070, Note_on_c, 0, 62, 68
2, 98077, Note_on_c, 0, 75, 0
2, 98078, Note_on_c, 0, 77, 84
2, 98098, Control_c, 0, 64, 49
2, 98114, Control_c, 0, 64, 50
2, 98143, Control_c, 0, 64, 49
2, 98159, Control_c, 0, 64, 49
2, 98174, Control_c, 0, 64, 49
2, 98190, Control_c, 0, 64, 50
2, 98236, Note_on_c, 0, 60, 65
2, 98236, Note_on_c, 0, 78, 83
2, 98254, Note_on_c, 0, 77, 0
2, 98257, Control_c, 0, 64, 50
2, 98273, Control_c, 0, 64, 51
2, 98282, Note_on_c, 0, 62, 0
2, 98318, Control_c, 0, 64, 49
2, 98333, Control_c, 0, 64, 48
2, 98349, Control_c, 0, 64, 47
2, 98364, Control_c, 0, 64, 45
2, 98379, Control_c, 0, 64, 43
2, 98387, Note_on_c, 0, 58, 71
2, 98389, Note_on_c, 0, 80, 87
2, 98394, Note_on_c, 0, 60, 0
2, 98395, Control_c, 0, 64, 42
2, 98410, Note_on_c, 0, 78, 0
2, 98425, Control_c, 0, 64, 47
2, 98440, Control_c, 0, 64, 57
2, 98455, Control_c, 0, 64, 64
2, 98470, Control_c, 0, 64, 71
2, 98485, Control_c, 0, 64, 76
2, 98500, Control_c, 0, 64, 80
2, 98516, Control_c, 0, 64, 82
2, 98522, Note_on_c, 0, 58, 0
2, 98531, Control_c, 0, 64, 82
2, 98535, Note_on_c, 0, 62, 73
2, 98546, Control_c, 0, 64, 83
2, 98548, Note_on_c, 0, 77, 81
2, 98562, Control_c, 0, 64, 84
2, 98660, Note_on_c, 0, 80, 0
2, 98683, Note_on_c, 0, 62, 0
2, 98698, Control_c, 0, 64, 83
2, 98714, Control_c, 0, 64, 83
2, 98718, Note_on_c, 0, 51, 66
2, 98719, Note_on_c, 0, 78, 83
2, 98729, Control_c, 0, 64, 81
2, 98740, Note_on_c, 0, 77, 0
2, 98743, Control_c, 0, 64, 79
2, 98759, Control_c, 0, 64, 74
2, 98774, Control_c, 0, 64, 70
2, 98789, Control_c, 0, 64, 65
2, 98804, Control_c, 0, 64, 62
2, 98819, Control_c, 0, 64, 61
2, 98835, Control_c, 0, 64, 60
2, 98850, Control_c, 0, 64, 60
2, 98866, Control_c, 0, 64, 59
2, 98877, Note_on_c, 0, 53, 65
2, 98882, Control_c, 0, 64, 58
2, 98883, Note_on_c, 0, 51, 0
2, 98896, Control_c, 0, 64, 57
2, 98942, Control_c, 0, 64, 56
2, 98958, Control_c, 0, 64, 55
2, 99011, Control_c, 0, 64, 55
2, 99027, Control_c, 0, 64, 54
2, 99029, Note_on_c, 0, 54, 67
2, 99036, Note_on_c, 0, 77, 75
2, 99042, Control_c, 0, 64, 53
2, 99044, Note_on_c, 0, 78, 0
2, 99056, Control_c, 0, 64, 52
2, 99059, Note_on_c, 0, 53, 0
2, 99117, Control_c, 0, 64, 51
2, 99132, Control_c, 0, 64, 51
2, 99148, Control_c, 0, 64, 51
2, 99187, Note_on_c, 0, 56, 71
2, 99190, Note_on_c, 0, 75, 77
2, 99193, Note_on_c, 0, 54, 0
2, 99221, Note_on_c, 0, 77, 0
2, 99223, Control_c, 0, 64, 52
2, 99284, Control_c, 0, 64, 51
2, 99299, Control_c, 0, 64, 51
2, 99315, Control_c, 0, 64, 50
2, 99330, Control_c, 0, 64, 48
2, 99341, Note_on_c, 0, 58, 75
2, 99345, Note_on_c, 0, 74, 77
2, 99346, Control_c, 0, 64, 41
2, 99354, Note_on_c, 0, 56, 0
2, 99361, Control_c, 0, 64, 32
2, 99362, Note_on_c, 0, 75, 0
2, 99376, Control_c, 0, 64, 0
2, 99482, Control_c, 0, 64, 45
2, 99485, Note_on_c, 0, 58, 0
2, 99497, Control_c, 0, 64, 63
2, 99498, Note_on_c, 0, 60, 70
2, 99512, Control_c, 0, 64, 68
2, 99527, Control_c, 0, 64, 72
2, 99542, Control_c, 0, 64, 76
2, 99558, Control_c, 0, 64, 77
2, 99599, Note_on_c, 0, 74, 0
2, 99634, Control_c, 0, 64, 77
2, 99648, Control_c, 0, 64, 74
2, 99651, Note_on_c, 0, 77, 84
2, 99653, Note_on_c, 0, 62, 72
2, 99663, Control_c, 0, 64, 69
2, 99677, Note_on_c, 0, 60, 0
2, 99679, Control_c, 0, 64, 59
2, 99695, Control_c, 0, 64, 0
2, 99786, Note_on_c, 0, 62, 0
2, 99795, Control_c, 0, 64, 58
2, 99798, Note_on_c, 0, 58, 71
2, 99810, Control_c, 0, 64, 66
2, 99825, Control_c, 0, 64, 69
2, 99840, Control_c, 0, 64, 72
2, 99855, Control_c, 0, 64, 73
2, 99870, Control_c, 0, 64, 74
2, 99917, Note_on_c, 0, 77, 0
2, 99931, Control_c, 0, 64, 73
2, 99946, Control_c, 0, 64, 70
2, 99954, Note_on_c, 0, 70, 79
2, 99956, Note_on_c, 0, 66, 77
2, 99961, Control_c, 0, 64, 65
2, 99967, Note_on_c, 0, 58, 0
2, 99976, Control_c, 0, 64, 54
2, 99992, Control_c, 0, 64, 43
2, 100007, Control_c, 0, 64, 42
2, 100021, Control_c, 0, 64, 40
2, 100037, Control_c, 0, 64, 35
2, 100052, Control_c, 0, 64, 28
2, 100068, Control_c, 0, 64, 19
2, 100097, Control_c, 0, 64, 26
2, 100110, Note_on_c, 0, 66, 0
2, 100113, Control_c, 0, 64, 32
2, 100113, Note_on_c, 0, 65, 75
2, 100159, Control_c, 0, 64, 33
2, 100174, Control_c, 0, 64, 36
2, 100190, Control_c, 0, 64, 43
2, 100205, Control_c, 0, 64, 46
2, 100250, Control_c, 0, 64, 47
2, 100260, Note_on_c, 0, 63, 69
2, 100261, Note_on_c, 0, 70, 0
2, 100262, Note_on_c, 0, 78, 73
2, 100266, Control_c, 0, 64, 48
2, 100272, Note_on_c, 0, 65, 0
2, 100280, Control_c, 0, 64, 49
2, 100295, Control_c, 0, 64, 49
2, 100311, Control_c, 0, 64, 48
2, 100341, Control_c, 0, 64, 48
2, 100413, Note_on_c, 0, 63, 0
2, 100414, Note_on_c, 0, 77, 81
2, 100415, Note_on_c, 0, 78, 0
2, 100417, Control_c, 0, 64, 48
2, 100419, Note_on_c, 0, 65, 66
2, 100447, Control_c, 0, 64, 47
2, 100462, Control_c, 0, 64, 47
2, 100478, Control_c, 0, 64, 46
2, 100509, Control_c, 0, 64, 45
2, 100524, Control_c, 0, 64, 45
2, 100547, Control_c, 0, 64, 44
2, 100562, Control_c, 0, 64, 43
2, 100570, Note_on_c, 0, 75, 89
2, 100577, Control_c, 0, 64, 41
2, 100580, Note_on_c, 0, 66, 71
2, 100589, Note_on_c, 0, 65, 0
2, 100593, Control_c, 0, 64, 40
2, 100608, Control_c, 0, 64, 39
2, 100615, Note_on_c, 0, 77, 0
2, 100639, Control_c, 0, 64, 40
2, 100654, Control_c, 0, 64, 41
2, 100669, Control_c, 0, 64, 42
2, 100684, Control_c, 0, 64, 46
2, 100699, Control_c, 0, 64, 50
2, 100714, Control_c, 0, 64, 55
2, 100726, Note_on_c, 0, 68, 76
2, 100728, Note_on_c, 0, 66, 0
2, 100729, Control_c, 0, 64, 60
2, 100745, Control_c, 0, 64, 61
2, 100760, Control_c, 0, 64, 62
2, 100775, Control_c, 0, 64, 62
2, 100790, Control_c, 0, 64, 63
2, 100805, Control_c, 0, 64, 63
2, 100820, Control_c, 0, 64, 63
2, 100836, Control_c, 0, 64, 62
2, 100840, Note_on_c, 0, 75, 0
2, 100851, Control_c, 0, 64, 61
2, 100861, Note_on_c, 0, 68, 0
2, 100866, Control_c, 0, 64, 58
2, 100874, Note_on_c, 0, 70, 71
2, 100878, Note_on_c, 0, 73, 82
2, 100880, Control_c, 0, 64, 53
2, 100895, Control_c, 0, 64, 45
2, 100911, Control_c, 0, 64, 0
2, 101002, Control_c, 0, 64, 36
2, 101014, Note_on_c, 0, 66, 72
2, 101017, Control_c, 0, 64, 57
2, 101030, Note_on_c, 0, 70, 0
2, 101033, Control_c, 0, 64, 64
2, 101048, Control_c, 0, 64, 68
2, 101063, Control_c, 0, 64, 71
2, 101078, Control_c, 0, 64, 73
2, 101093, Control_c, 0, 64, 74
2, 101109, Control_c, 0, 64, 74
2, 101154, Control_c, 0, 64, 73
2, 101169, Control_c, 0, 64, 71
2, 101177, Note_on_c, 0, 63, 72
2, 101182, Note_on_c, 0, 73, 0
2, 101185, Control_c, 0, 64, 64
2, 101186, Note_on_c, 0, 72, 83
2, 101199, Control_c, 0, 64, 32
2, 101204, Note_on_c, 0, 66, 0
2, 101214, Control_c, 0, 64, 0
2, 101214, Note_on_c, 0, 82, 0
2, 101314, Control_c, 0, 64, 57
2, 101329, Control_c, 0, 64, 68
2, 101345, Control_c, 0, 64, 72
2, 101345, Note_on_c, 0, 63, 0
2, 101348, Note_on_c, 0, 61, 68
2, 101360, Control_c, 0, 64, 75
2, 101391, Control_c, 0, 64, 75
2, 101486, Note_on_c, 0, 61, 0
2, 101497, Control_c, 0, 64, 75
2, 101505, Note_on_c, 0, 81, 85
2, 101506, Note_on_c, 0, 60, 69
2, 101512, Control_c, 0, 64, 74
2, 101527, Control_c, 0, 64, 72
2, 101542, Control_c, 0, 64, 70
2, 101557, Control_c, 0, 64, 66
2, 101572, Control_c, 0, 64, 63
2, 101588, Control_c, 0, 64, 61
2, 101603, Control_c, 0, 64, 60
2, 101640, Note_on_c, 0, 60, 0
2, 101648, Control_c, 0, 64, 59
2, 101650, Note_on_c, 0, 58, 65
2, 101662, Note_on_c, 0, 82, 87
2, 101663, Control_c, 0, 64, 57
2, 101679, Control_c, 0, 64, 56
2, 101693, Control_c, 0, 64, 56
2, 101701, Note_on_c, 0, 81, 0
2, 101709, Control_c, 0, 64, 57
2, 101739, Control_c, 0, 64, 56
2, 101755, Control_c, 0, 64, 55
2, 101770, Control_c, 0, 64, 54
2, 101786, Control_c, 0, 64, 49
2, 101801, Control_c, 0, 64, 10
2, 101807, Note_on_c, 0, 58, 0
2, 101815, Control_c, 0, 64, 0
2, 101834, Note_on_c, 0, 57, 63
2, 101834, Note_on_c, 0, 84, 94
2, 101875, Note_on_c, 0, 82, 0
2, 101922, Control_c, 0, 64, 49
2, 101937, Control_c, 0, 64, 68
2, 101941, Note_on_c, 0, 84, 0
2, 101953, Control_c, 0, 64, 75
2, 101967, Control_c, 0, 64, 80
2, 101982, Control_c, 0, 64, 82
2, 101993, Note_on_c, 0, 55, 65
2, 101998, Control_c, 0, 64, 83
2, 102007, Note_on_c, 0, 57, 0
2, 102013, Control_c, 0, 64, 84
2, 102020, Note_on_c, 0, 72, 0
2, 102137, Note_on_c, 0, 55, 0
2, 102142, Control_c, 0, 64, 83
2, 102156, Note_on_c, 0, 72, 79
2, 102156, Note_on_c, 0, 75, 86
2, 102158, Control_c, 0, 64, 81
2, 102161, Note_on_c, 0, 53, 64
2, 102173, Control_c, 0, 64, 78
2, 102189, Control_c, 0, 64, 74
2, 102204, Control_c, 0, 64, 69
2, 102219, Control_c, 0, 64, 64
2, 102235, Control_c, 0, 64, 60
2, 102250, Control_c, 0, 64, 59
2, 102266, Control_c, 0, 64, 58
2, 102280, Control_c, 0, 64, 56
2, 102295, Control_c, 0, 64, 52
2, 102295, Note_on_c, 0, 53, 0
2, 102311, Control_c, 0, 64, 49
2, 102317, Note_on_c, 0, 57, 64
2, 102326, Control_c, 0, 64, 49
2, 102340, Control_c, 0, 64, 49
2, 102371, Control_c, 0, 64, 48
2, 102387, Control_c, 0, 64, 48
2, 102403, Control_c, 0, 64, 47
2, 102476, Note_on_c, 0, 49, 73
2, 102479, Note_on_c, 0, 57, 0
2, 102493, Control_c, 0, 64, 48
2, 102538, Control_c, 0, 64, 48
2, 102600, Control_c, 0, 64, 48
2, 102631, Note_on_c, 0, 54, 72
2, 102645, Control_c, 0, 64, 48
2, 102660, Control_c, 0, 64, 49
2, 102709, Note_on_c, 0, 49, 0
2, 102721, Control_c, 0, 64, 49
2, 102736, Control_c, 0, 64, 50
2, 102752, Control_c, 0, 64, 51
2, 102767, Control_c, 0, 64, 51
2, 102774, Note_on_c, 0, 54, 0
2, 102779, Note_on_c, 0, 75, 0
2, 102781, Control_c, 0, 64, 52
2, 102783, Note_on_c, 0, 53, 64
2, 102790, Note_on_c, 0, 70, 69
2, 102791, Note_on_c, 0, 73, 77
2, 102810, Note_on_c, 0, 72, 0
2, 102828, Control_c, 0, 64, 52
2, 102850, Control_c, 0, 64, 54
2, 102866, Control_c, 0, 64, 56
2, 102881, Control_c, 0, 64, 57
2, 102911, Control_c, 0, 64, 58
2, 102926, Control_c, 0, 64, 58
2, 102941, Control_c, 0, 64, 59
2, 102951, Note_on_c, 0, 51, 64
2, 102955, Note_on_c, 0, 75, 80
2, 102956, Control_c, 0, 64, 60
2, 102957, Note_on_c, 0, 53, 0
2, 102971, Note_on_c, 0, 73, 0
2, 102972, Control_c, 0, 64, 61
2, 102988, Control_c, 0, 64, 61
2, 103018, Control_c, 0, 64, 61
2, 103048, Control_c, 0, 64, 60
2, 103063, Control_c, 0, 64, 56
2, 103079, Control_c, 0, 64, 39
2, 103094, Control_c, 0, 64, 0
2, 103121, Note_on_c, 0, 77, 86
2, 103124, Note_on_c, 0, 49, 68
2, 103156, Note_on_c, 0, 75, 0
2, 103165, Note_on_c, 0, 51, 0
2, 103201, Control_c, 0, 64, 51
2, 103216, Control_c, 0, 64, 68
2, 103230, Note_on_c, 0, 77, 0
2, 103232, Control_c, 0, 64, 73
2, 103247, Control_c, 0, 64, 78
2, 103261, Control_c, 0, 64, 80
2, 103263, Note_on_c, 0, 70, 0
2, 103271, Note_on_c, 0, 49, 0
2, 103277, Control_c, 0, 64, 81
2, 103292, Control_c, 0, 64, 82
2, 103293, Note_on_c, 0, 48, 74
2, 103308, Control_c, 0, 64, 83
2, 103322, Control_c, 0, 64, 84
2, 103337, Control_c, 0, 64, 85
2, 103368, Control_c, 0, 64, 85
2, 103382, Control_c, 0, 64, 86
2, 103429, Control_c, 0, 64, 85
2, 103431, Note_on_c, 0, 48, 0
2, 103444, Control_c, 0, 64, 85
2, 103457, Note_on_c, 0, 75, 85
2, 103458, Control_c, 0, 64, 80
2, 103460, Note_on_c, 0, 46, 75
2, 103466, Note_on_c, 0, 66, 68
2, 103474, Control_c, 0, 64, 70
2, 103489, Control_c, 0, 64, 40
2, 103504, Control_c, 0, 64, 0
2, 103595, Control_c, 0, 64, 44
2, 103618, Control_c, 0, 64, 63
2, 103634, Control_c, 0, 64, 67
2, 103645, Note_on_c, 0, 69, 84
2, 103649, Control_c, 0, 64, 70
2, 103653, Note_on_c, 0, 48, 76
2, 103659, Note_on_c, 0, 46, 0
2, 103663, Control_c, 0, 64, 73
2, 103679, Control_c, 0, 64, 75
2, 103687, Note_on_c, 0, 66, 0
2, 103694, Control_c, 0, 64, 77
2, 103709, Control_c, 0, 64, 78
2, 103724, Control_c, 0, 64, 78
2, 103739, Control_c, 0, 64, 79
2, 103832, Control_c, 0, 64, 78
2, 103847, Control_c, 0, 64, 75
2, 103853, Note_on_c, 0, 70, 89
2, 103854, Note_on_c, 0, 48, 0
2, 103862, Control_c, 0, 64, 68
2, 103862, Note_on_c, 0, 49, 74
2, 103874, Note_on_c, 0, 65, 62
2, 103877, Note_on_c, 0, 69, 0
2, 103878, Control_c, 0, 64, 51
2, 103891, Note_on_c, 0, 75, 0
2, 103892, Control_c, 0, 64, 0
2, 104052, Note_on_c, 0, 48, 71
2, 104053, Note_on_c, 0, 49, 0
2, 104075, Control_c, 0, 64, 18
2, 104090, Control_c, 0, 64, 31
2, 104106, Control_c, 0, 64, 35
2, 104136, Control_c, 0, 64, 36
2, 104151, Control_c, 0, 64, 37
2, 104166, Control_c, 0, 64, 38
2, 104181, Control_c, 0, 64, 39
2, 104197, Control_c, 0, 64, 38
2, 104212, Control_c, 0, 64, 36
2, 104227, Control_c, 0, 64, 36
2, 104242, Control_c, 0, 64, 35
2, 104249, Note_on_c, 0, 49, 76
2, 104257, Control_c, 0, 64, 30
2, 104261, Note_on_c, 0, 48, 0
2, 104273, Control_c, 0, 64, 21
2, 104288, Control_c, 0, 64, 16
2, 104318, Control_c, 0, 64, 19
2, 104333, Control_c, 0, 64, 24
2, 104348, Control_c, 0, 64, 33
2, 104363, Control_c, 0, 64, 44
2, 104387, Control_c, 0, 64, 57
2, 104402, Control_c, 0, 64, 64
2, 104416, Control_c, 0, 64, 66
2, 104425, Note_on_c, 0, 65, 0
2, 104427, Control_c, 0, 64, 68
2, 104443, Control_c, 0, 64, 66
2, 104455, Note_on_c, 0, 72, 83
2, 104456, Note_on_c, 0, 51, 71
2, 104458, Control_c, 0, 64, 57
2, 104459, Note_on_c, 0, 66, 70
2, 104465, Note_on_c, 0, 49, 0
2, 104473, Control_c, 0, 64, 0
2, 104477, Note_on_c, 0, 70, 0
2, 104548, Control_c, 0, 64, 57
2, 104564, Control_c, 0, 64, 67
2, 104579, Control_c, 0, 64, 72
2, 104594, Control_c, 0, 64, 77
2, 104611, Control_c, 0, 64, 80
2, 104626, Control_c, 0, 64, 81
2, 104642, Control_c, 0, 64, 81
2, 104663, Note_on_c, 0, 72, 0
2, 104687, Control_c, 0, 64, 80
2, 104696, Note_on_c, 0, 51, 0
2, 104701, Control_c, 0, 64, 75
2, 104703, Note_on_c, 0, 69, 86
2, 104714, Note_on_c, 0, 53, 69
2, 104714, Note_on_c, 0, 60, 65
2, 104716, Control_c, 0, 64, 66
2, 104727, Note_on_c, 0, 66, 0
2, 104731, Control_c, 0, 64, 13
2, 104746, Control_c, 0, 64, 0
2, 104981, Note_on_c, 0, 53, 0
2, 104994, Note_on_c, 0, 51, 69
2, 105111, Control_c, 0, 64, 34
2, 105127, Control_c, 0, 64, 52
2, 105149, Control_c, 0, 64, 58
2, 105165, Control_c, 0, 64, 60
2, 105180, Control_c, 0, 64, 61
2, 105241, Control_c, 0, 64, 60
2, 105256, Control_c, 0, 64, 60
2, 105270, Control_c, 0, 64, 58
2, 105286, Control_c, 0, 64, 53
2, 105301, Control_c, 0, 64, 38
2, 105306, Note_on_c, 0, 51, 0
2, 105316, Control_c, 0, 64, 0
2, 105319, Note_on_c, 0, 53, 72
2, 105486, Control_c, 0, 64, 52
2, 105500, Control_c, 0, 64, 65
2, 105515, Control_c, 0, 64, 69
2, 105531, Control_c, 0, 64, 72
2, 105546, Control_c, 0, 64, 74
2, 105562, Control_c, 0, 64, 75
2, 105576, Control_c, 0, 64, 77
2, 105591, Control_c, 0, 64, 78
2, 105607, Control_c, 0, 64, 79
2, 105621, Control_c, 0, 64, 80
2, 105636, Control_c, 0, 64, 80
2, 105706, Note_on_c, 0, 53, 0
2, 105712, Control_c, 0, 64, 79
2, 105728, Control_c, 0, 64, 75
2, 105735, Note_on_c, 0, 41, 70
2, 105738, Note_on_c, 0, 70, 81
2, 105743, Control_c, 0, 64, 66
2, 105759, Control_c, 0, 64, 32
2, 105774, Control_c, 0, 64, 0
2, 105813, Note_on_c, 0, 69, 0
2, 105881, Control_c, 0, 64, 57
2, 105896, Control_c, 0, 64, 66
2, 105917, Control_c, 0, 64, 72
2, 105933, Control_c, 0, 64, 77
2, 105948, Control_c, 0, 64, 80
2, 105964, Control_c, 0, 64, 82
2, 105978, Control_c, 0, 64, 83
2, 105993, Control_c, 0, 64, 84
2, 106009, Control_c, 0, 64, 85
2, 106024, Control_c, 0, 64, 85
2, 106040, Control_c, 0, 64, 86
2, 106072, Note_on_c, 0, 60, 0
2, 106077, Note_on_c, 0, 70, 0
2, 106150, Note_on_c, 0, 41, 0
2, 106375, Control_c, 0, 64, 85
2, 106390, Control_c, 0, 64, 82
2, 106397, Note_on_c, 0, 70, 73
2, 106404, Note_on_c, 0, 46, 66
2, 106406, Control_c, 0, 64, 75
2, 106406, Note_on_c, 0, 62, 62
2, 106420, Control_c, 0, 64, 66
2, 106435, Control_c, 0, 64, 46
2, 106451, Control_c, 0, 64, 0
2, 106732, Control_c, 0, 64, 26
2, 106747, Control_c, 0, 64, 39
2, 106762, Control_c, 0, 64, 47
2, 106777, Control_c, 0, 64, 52
2, 106792, Control_c, 0, 64, 54
2, 106807, Control_c, 0, 64, 56
2, 106822, Control_c, 0, 64, 57
2, 106837, Control_c, 0, 64, 57
2, 106853, Control_c, 0, 64, 58
2, 106868, Control_c, 0, 64, 58
2, 106884, Control_c, 0, 64, 59
2, 106899, Control_c, 0, 64, 59
2, 106914, Control_c, 0, 64, 60
2, 106944, Control_c, 0, 64, 60
2, 106975, Control_c, 0, 64, 61
2, 107020, Control_c, 0, 64, 61
2, 107065, Control_c, 0, 64, 62
2, 107110, Control_c, 0, 64, 62
2, 107141, Control_c, 0, 64, 63
2, 107156, Control_c, 0, 64, 63
2, 107186, Control_c, 0, 64, 64
2, 107217, Control_c, 0, 64, 64
2, 107231, Control_c, 0, 64, 65
2, 107247, Control_c, 0, 64, 65
2, 107262, Control_c, 0, 64, 66
2, 107293, Control_c, 0, 64, 66
2, 107307, Control_c, 0, 64, 67
2, 107322, Control_c, 0, 64, 67
2, 107338, Control_c, 0, 64, 68
2, 107353, Control_c, 0, 64, 68
2, 107383, Control_c, 0, 64, 69
2, 107414, Control_c, 0, 64, 69
2, 107467, Control_c, 0, 64, 70
2, 107498, Control_c, 0, 64, 70
2, 107543, Control_c, 0, 64, 71
2, 107589, Control_c, 0, 64, 71
2, 107619, Control_c, 0, 64, 72
2, 107649, Control_c, 0, 64, 72
2, 107679, Control_c, 0, 64, 73
2, 107710, Control_c, 0, 64, 73
2, 107724, Control_c, 0, 64, 74
2, 107740, Control_c, 0, 64, 74
2, 107770, Control_c, 0, 64, 75
2, 107785, Control_c, 0, 64, 75
2, 107815, Control_c, 0, 64, 76
2, 107830, Control_c, 0, 64, 76
2, 107860, Control_c, 0, 64, 77
2, 107922, Control_c, 0, 64, 77
2, 108492, Control_c, 0, 64, 77
2, 108598, Control_c, 0, 64, 76
2, 108643, Control_c, 0, 64, 76
2, 108659, Control_c, 0, 64, 75
2, 108674, Control_c, 0, 64, 75
2, 108690, Control_c, 0, 64, 74
2, 108736, Control_c, 0, 64, 74
2, 108751, Control_c, 0, 64, 73
2, 108767, Control_c, 0, 64, 73
2, 108782, Control_c, 0, 64, 72
2, 108812, Control_c, 0, 64, 71
2, 108827, Control_c, 0, 64, 71
2, 108829, Note_on_c, 0, 46, 0
2, 108837, Note_on_c, 0, 62, 0
2, 108842, Control_c, 0, 64, 70
2, 108854, Note_on_c, 0, 70, 0
2, 108858, Control_c, 0, 64, 68
2, 108872, Control_c, 0, 64, 67
2, 108888, Control_c, 0, 64, 66
2, 108933, Control_c, 0, 64, 66
2, 108948, Control_c, 0, 64, 65
2, 108963, Control_c, 0, 64, 65
2, 108987, Control_c, 0, 64, 64
2, 109032, Control_c, 0, 64, 64
2, 109048, Control_c, 0, 64, 63
2, 109077, Control_c, 0, 64, 63
2, 109093, Control_c, 0, 64, 62
2, 109123, Control_c, 0, 64, 62
2, 109153, Control_c, 0, 64, 61
2, 109169, Control_c, 0, 64, 61
2, 109184, Control_c, 0, 64, 60
2, 109199, Control_c, 0, 64, 60
2, 109229, Control_c, 0, 64, 59
2, 109244, Control_c, 0, 64, 59
2, 109260, Control_c, 0, 64, 58
2, 109275, Control_c, 0, 64, 57
2, 109291, Control_c, 0, 64, 57
2, 109321, Control_c, 0, 64, 56
2, 109336, Control_c, 0, 64, 55
2, 109351, Control_c, 0, 64, 55
2, 109428, Control_c, 0, 64, 54
2, 109443, Control_c, 0, 64, 54
2, 109473, Control_c, 0, 64, 53
2, 109535, Control_c, 0, 64, 53
2, 109550, Control_c, 0, 64, 52
2, 109672, Control_c, 0, 64, 52
2, 109702, Control_c, 0, 64, 51
2, 109801, Control_c, 0, 64, 51
2, 109831, Control_c, 0, 64, 50
2, 109893, Control_c, 0, 64, 50
2, 109938, Control_c, 0, 64, 49
2, 109983, Control_c, 0, 64, 49
2, 109998, Control_c, 0, 64, 48
2, 110014, Control_c, 0, 64, 46
2, 110029, Control_c, 0, 64, 44
2, 110044, Control_c, 0, 64, 44
2, 110165, Control_c, 0, 64, 44
2, 110333, Control_c, 0, 64, 45
2, 110485, Control_c, 0, 64, 43
2, 110501, Control_c, 0, 64, 37
2, 110523, Control_c, 0, 64, 18
2, 110538, Control_c, 0, 64, 0
2, 110553,End_track
0, 0, End_of_file
