0, 0, Header, 1, 2, 384
1, 0, Start_track
1, 0, Tempo, 500000
1, 0, Time_signature, 4, 2, 24, 8
1, 1, End_track
2, 0, Start_track
2, 0, Title_t, "Dupree04-07.MID"
2, 0, Program_c, 0, 0
2, 0, Control_c, 0, 64, 0
2, 822, Note_on_c, 0, 73, 50
2, 836, Note_on_c, 0, 46, 34
2, 981, Note_on_c, 0, 72, 58
2, 1054, Note_on_c, 0, 73, 0
2, 1140, Note_on_c, 0, 70, 62
2, 1148, Note_on_c, 0, 72, 0
2, 1269, Note_on_c, 0, 70, 0
2, 1285, Note_on_c, 0, 69, 61
2, 1398, Note_on_c, 0, 69, 0
2, 1418, Note_on_c, 0, 46, 0
2, 1455, Note_on_c, 0, 70, 61
2, 1473, Note_on_c, 0, 58, 46
2, 1714, Note_on_c, 0, 70, 0
2, 1793, Note_on_c, 0, 65, 55
2, 2012, Note_on_c, 0, 65, 0
2, 2082, Note_on_c, 0, 66, 58
2, 2320, Note_on_c, 0, 66, 0
2, 2411, Note_on_c, 0, 63, 60
2, 2628, Note_on_c, 0, 63, 0
2, 2714, Note_on_c, 0, 57, 45
2, 2725, Note_on_c, 0, 58, 0
2, 2726, Note_on_c, 0, 60, 54
2, 2873, Control_c, 0, 64, 33
2, 2889, Control_c, 0, 64, 52
2, 2904, Control_c, 0, 64, 54
2, 2934, Control_c, 0, 64, 54
2, 2934, Note_on_c, 0, 60, 0
2, 2949, Control_c, 0, 64, 52
2, 2964, Control_c, 0, 64, 49
2, 2980, Control_c, 0, 64, 36
2, 2995, Control_c, 0, 64, 0
2, 3048, Note_on_c, 0, 65, 56
2, 3156, Control_c, 0, 64, 55
2, 3171, Control_c, 0, 64, 64
2, 3186, Control_c, 0, 64, 66
2, 3201, Control_c, 0, 64, 67
2, 3217, Control_c, 0, 64, 68
2, 3232, Control_c, 0, 64, 69
2, 3246, Control_c, 0, 64, 69
2, 3269, Note_on_c, 0, 65, 0
2, 3277, Control_c, 0, 64, 68
2, 3292, Control_c, 0, 64, 64
2, 3307, Control_c, 0, 64, 44
2, 3310, Note_on_c, 0, 57, 0
2, 3322, Control_c, 0, 64, 0
2, 3343, Note_on_c, 0, 61, 57
2, 3364, Note_on_c, 0, 58, 38
2, 3447, Control_c, 0, 64, 37
2, 3462, Control_c, 0, 64, 64
2, 3477, Control_c, 0, 64, 68
2, 3492, Control_c, 0, 64, 72
2, 3507, Control_c, 0, 64, 75
2, 3513, Note_on_c, 0, 56, 51
2, 3516, Note_on_c, 0, 58, 0
2, 3523, Control_c, 0, 64, 77
2, 3538, Control_c, 0, 64, 78
2, 3583, Control_c, 0, 64, 77
2, 3598, Control_c, 0, 64, 73
2, 3614, Control_c, 0, 64, 65
2, 3629, Control_c, 0, 64, 0
2, 3637, Note_on_c, 0, 61, 0
2, 3646, Note_on_c, 0, 56, 0
2, 3659, Note_on_c, 0, 58, 59
2, 3671, Note_on_c, 0, 54, 43
2, 3719, Control_c, 0, 64, 40
2, 3735, Control_c, 0, 64, 65
2, 3750, Control_c, 0, 64, 70
2, 3773, Control_c, 0, 64, 74
2, 3785, Note_on_c, 0, 54, 0
2, 3788, Control_c, 0, 64, 77
2, 3797, Note_on_c, 0, 58, 0
2, 3804, Control_c, 0, 64, 79
2, 3804, Note_on_c, 0, 53, 55
2, 3819, Control_c, 0, 64, 80
2, 3833, Control_c, 0, 64, 81
2, 3849, Control_c, 0, 64, 81
2, 3881, Control_c, 0, 64, 82
2, 3956, Control_c, 0, 64, 81
2, 3963, Note_on_c, 0, 53, 0
2, 3976, Note_on_c, 0, 54, 47
2, 3978, Note_on_c, 0, 82, 64
2, 3987, Control_c, 0, 64, 80
2, 3989, Note_on_c, 0, 70, 46
2, 4003, Control_c, 0, 64, 79
2, 4017, Control_c, 0, 64, 77
2, 4032, Control_c, 0, 64, 74
2, 4048, Control_c, 0, 64, 70
2, 4063, Control_c, 0, 64, 63
2, 4078, Control_c, 0, 64, 46
2, 4093, Control_c, 0, 64, 37
2, 4104, Note_on_c, 0, 54, 0
2, 4108, Control_c, 0, 64, 32
2, 4111, Note_on_c, 0, 80, 71
2, 4124, Control_c, 0, 64, 0
2, 4124, Note_on_c, 0, 53, 49
2, 4172, Note_on_c, 0, 70, 0
2, 4192, Note_on_c, 0, 82, 0
2, 4260, Note_on_c, 0, 53, 0
2, 4270, Note_on_c, 0, 51, 53
2, 4271, Note_on_c, 0, 78, 68
2, 4275, Note_on_c, 0, 70, 57
2, 4291, Note_on_c, 0, 80, 0
2, 4391, Note_on_c, 0, 70, 0
2, 4413, Note_on_c, 0, 77, 70
2, 4416, Note_on_c, 0, 78, 0
2, 4417, Note_on_c, 0, 49, 60
2, 4442, Note_on_c, 0, 51, 0
2, 4566, Note_on_c, 0, 49, 0
2, 4572, Note_on_c, 0, 51, 57
2, 4578, Note_on_c, 0, 77, 0
2, 4581, Note_on_c, 0, 78, 71
2, 4594, Note_on_c, 0, 70, 56
2, 4632, Control_c, 0, 64, 61
2, 4648, Control_c, 0, 64, 66
2, 4678, Control_c, 0, 64, 67
2, 4694, Control_c, 0, 64, 68
2, 4709, Control_c, 0, 64, 70
2, 4713, Note_on_c, 0, 70, 0
2, 4723, Note_on_c, 0, 51, 0
2, 4725, Control_c, 0, 64, 72
2, 4725, Note_on_c, 0, 49, 58
2, 4727, Note_on_c, 0, 77, 71
2, 4739, Note_on_c, 0, 78, 0
2, 4740, Control_c, 0, 64, 73
2, 4801, Control_c, 0, 64, 73
2, 4816, Control_c, 0, 64, 72
2, 4831, Control_c, 0, 64, 71
2, 4837, Note_on_c, 0, 49, 0
2, 4847, Control_c, 0, 64, 68
2, 4861, Control_c, 0, 64, 64
2, 4865, Note_on_c, 0, 48, 55
2, 4876, Note_on_c, 0, 75, 66
2, 4877, Control_c, 0, 64, 58
2, 4881, Note_on_c, 0, 69, 60
2, 4885, Note_on_c, 0, 77, 0
2, 4893, Control_c, 0, 64, 54
2, 4907, Control_c, 0, 64, 53
2, 4923, Control_c, 0, 64, 52
2, 4938, Control_c, 0, 64, 50
2, 4953, Control_c, 0, 64, 44
2, 4969, Control_c, 0, 64, 32
2, 4983, Control_c, 0, 64, 25
2, 4998, Control_c, 0, 64, 24
2, 5006, Note_on_c, 0, 48, 0
2, 5010, Note_on_c, 0, 69, 0
2, 5018, Note_on_c, 0, 73, 65
2, 5020, Note_on_c, 0, 46, 57
2, 5021, Note_on_c, 0, 70, 63
2, 5027, Note_on_c, 0, 75, 0
2, 5029, Control_c, 0, 64, 21
2, 5045, Control_c, 0, 64, 13
2, 5059, Control_c, 0, 64, 0
2, 5157, Note_on_c, 0, 46, 0
2, 5171, Note_on_c, 0, 45, 56
2, 5175, Note_on_c, 0, 72, 69
2, 5177, Note_on_c, 0, 70, 0
2, 5186, Note_on_c, 0, 73, 0
2, 5321, Note_on_c, 0, 77, 74
2, 5325, Control_c, 0, 64, 32
2, 5333, Note_on_c, 0, 45, 0
2, 5335, Note_on_c, 0, 41, 60
2, 5337, Note_on_c, 0, 72, 0
2, 5340, Control_c, 0, 64, 40
2, 5355, Control_c, 0, 64, 37
2, 5371, Control_c, 0, 64, 36
2, 5385, Control_c, 0, 64, 35
2, 5401, Control_c, 0, 64, 32
2, 5416, Control_c, 0, 64, 16
2, 5431, Control_c, 0, 64, 0
2, 5461, Note_on_c, 0, 43, 63
2, 5468, Note_on_c, 0, 75, 71
2, 5473, Note_on_c, 0, 72, 59
2, 5473, Note_on_c, 0, 77, 0
2, 5516, Note_on_c, 0, 41, 0
2, 5538, Control_c, 0, 64, 26
2, 5553, Control_c, 0, 64, 62
2, 5569, Control_c, 0, 64, 66
2, 5584, Control_c, 0, 64, 69
2, 5595, Note_on_c, 0, 45, 63
2, 5599, Control_c, 0, 64, 72
2, 5601, Note_on_c, 0, 77, 81
2, 5606, Note_on_c, 0, 43, 0
2, 5615, Control_c, 0, 64, 74
2, 5620, Note_on_c, 0, 75, 0
2, 5626, Note_on_c, 0, 72, 0
2, 5629, Control_c, 0, 64, 76
2, 5644, Control_c, 0, 64, 77
2, 5659, Control_c, 0, 64, 77
2, 5688, Note_on_c, 0, 77, 0
2, 5719, Control_c, 0, 64, 77
2, 5735, Control_c, 0, 64, 75
2, 5749, Control_c, 0, 64, 71
2, 5759, Note_on_c, 0, 46, 62
2, 5762, Note_on_c, 0, 45, 0
2, 5765, Control_c, 0, 64, 65
2, 5768, Note_on_c, 0, 72, 60
2, 5772, Note_on_c, 0, 73, 66
2, 5780, Control_c, 0, 64, 57
2, 5795, Control_c, 0, 64, 47
2, 5811, Control_c, 0, 64, 46
2, 5841, Control_c, 0, 64, 46
2, 5856, Control_c, 0, 64, 45
2, 5871, Control_c, 0, 64, 45
2, 5871, Note_on_c, 0, 46, 0
2, 5887, Control_c, 0, 64, 46
2, 5899, Note_on_c, 0, 48, 56
2, 5902, Control_c, 0, 64, 48
2, 5916, Control_c, 0, 64, 50
2, 5923, Note_on_c, 0, 72, 0
2, 5932, Control_c, 0, 64, 52
2, 6038, Control_c, 0, 64, 51
2, 6054, Control_c, 0, 64, 50
2, 6067, Note_on_c, 0, 49, 50
2, 6068, Note_on_c, 0, 70, 63
2, 6069, Control_c, 0, 64, 49
2, 6082, Note_on_c, 0, 73, 0
2, 6083, Note_on_c, 0, 65, 51
2, 6091, Control_c, 0, 64, 49
2, 6105, Note_on_c, 0, 48, 0
2, 6106, Control_c, 0, 64, 48
2, 6122, Control_c, 0, 64, 47
2, 6215, Note_on_c, 0, 49, 0
2, 6224, Note_on_c, 0, 69, 65
2, 6228, Note_on_c, 0, 51, 51
2, 6232, Note_on_c, 0, 70, 0
2, 6233, Note_on_c, 0, 65, 0
2, 6289, Control_c, 0, 64, 47
2, 6305, Control_c, 0, 64, 46
2, 6321, Control_c, 0, 64, 43
2, 6336, Control_c, 0, 64, 38
2, 6351, Control_c, 0, 64, 29
2, 6357, Note_on_c, 0, 51, 0
2, 6367, Control_c, 0, 64, 13
2, 6381, Control_c, 0, 64, 0
2, 6381, Note_on_c, 0, 70, 62
2, 6384, Note_on_c, 0, 49, 43
2, 6426, Note_on_c, 0, 69, 0
2, 6443, Control_c, 0, 64, 21
2, 6457, Control_c, 0, 64, 34
2, 6472, Control_c, 0, 64, 48
2, 6488, Control_c, 0, 64, 57
2, 6503, Control_c, 0, 64, 61
2, 6518, Control_c, 0, 64, 63
2, 6533, Control_c, 0, 64, 64
2, 6544, Note_on_c, 0, 73, 55
2, 6548, Control_c, 0, 64, 64
2, 6564, Control_c, 0, 64, 65
2, 6577, Note_on_c, 0, 49, 0
2, 6579, Control_c, 0, 64, 65
2, 6593, Control_c, 0, 64, 65
2, 6609, Control_c, 0, 64, 64
2, 6624, Control_c, 0, 64, 63
2, 6639, Control_c, 0, 64, 58
2, 6655, Control_c, 0, 64, 45
2, 6669, Control_c, 0, 64, 0
2, 6691, Note_on_c, 0, 72, 60
2, 6696, Note_on_c, 0, 54, 42
2, 6706, Note_on_c, 0, 73, 0
2, 6776, Control_c, 0, 64, 53
2, 6791, Control_c, 0, 64, 63
2, 6807, Control_c, 0, 64, 66
2, 6822, Control_c, 0, 64, 70
2, 6834, Note_on_c, 0, 72, 0
2, 6837, Control_c, 0, 64, 73
2, 6838, Note_on_c, 0, 73, 63
2, 6860, Control_c, 0, 64, 75
2, 6874, Control_c, 0, 64, 76
2, 6905, Control_c, 0, 64, 77
2, 6935, Control_c, 0, 64, 76
2, 6950, Control_c, 0, 64, 74
2, 6966, Control_c, 0, 64, 68
2, 6981, Control_c, 0, 64, 56
2, 6986, Note_on_c, 0, 54, 0
2, 6987, Note_on_c, 0, 73, 0
2, 6996, Control_c, 0, 64, 0
2, 7011, Note_on_c, 0, 48, 43
2, 7012, Note_on_c, 0, 75, 69
2, 7072, Control_c, 0, 64, 56
2, 7088, Control_c, 0, 64, 64
2, 7103, Control_c, 0, 64, 68
2, 7118, Control_c, 0, 64, 71
2, 7134, Control_c, 0, 64, 73
2, 7147, Note_on_c, 0, 70, 0
2, 7148, Note_on_c, 0, 75, 0
2, 7149, Control_c, 0, 64, 74
2, 7149, Note_on_c, 0, 49, 58
2, 7155, Note_on_c, 0, 68, 60
2, 7165, Control_c, 0, 64, 75
2, 7173, Note_on_c, 0, 48, 0
2, 7180, Control_c, 0, 64, 76
2, 7194, Control_c, 0, 64, 77
2, 7210, Control_c, 0, 64, 77
2, 7256, Control_c, 0, 64, 77
2, 7271, Control_c, 0, 64, 75
2, 7287, Control_c, 0, 64, 72
2, 7301, Control_c, 0, 64, 64
2, 7308, Note_on_c, 0, 68, 0
2, 7311, Note_on_c, 0, 51, 51
2, 7313, Note_on_c, 0, 70, 66
2, 7316, Control_c, 0, 64, 10
2, 7321, Note_on_c, 0, 66, 55
2, 7332, Control_c, 0, 64, 0
2, 7377, Control_c, 0, 64, 37
2, 7377, Note_on_c, 0, 49, 0
2, 7392, Control_c, 0, 64, 56
2, 7408, Control_c, 0, 64, 64
2, 7423, Control_c, 0, 64, 68
2, 7433, Note_on_c, 0, 51, 0
2, 7434, Note_on_c, 0, 66, 0
2, 7437, Control_c, 0, 64, 71
2, 7453, Control_c, 0, 64, 73
2, 7461, Note_on_c, 0, 65, 59
2, 7467, Note_on_c, 0, 53, 49
2, 7468, Control_c, 0, 64, 74
2, 7484, Control_c, 0, 64, 75
2, 7499, Control_c, 0, 64, 76
2, 7558, Control_c, 0, 64, 75
2, 7574, Control_c, 0, 64, 71
2, 7578, Note_on_c, 0, 53, 0
2, 7587, Note_on_c, 0, 65, 0
2, 7589, Control_c, 0, 64, 64
2, 7605, Control_c, 0, 64, 0
2, 7622, Note_on_c, 0, 72, 69
2, 7635, Note_on_c, 0, 66, 47
2, 7637, Note_on_c, 0, 51, 40
2, 7704, Control_c, 0, 64, 54
2, 7714, Note_on_c, 0, 70, 0
2, 7718, Control_c, 0, 64, 64
2, 7734, Control_c, 0, 64, 66
2, 7749, Control_c, 0, 64, 68
2, 7751, Note_on_c, 0, 66, 0
2, 7765, Control_c, 0, 64, 69
2, 7773, Note_on_c, 0, 63, 62
2, 7779, Control_c, 0, 64, 70
2, 7794, Control_c, 0, 64, 72
2, 7810, Control_c, 0, 64, 74
2, 7825, Control_c, 0, 64, 74
2, 7858, Note_on_c, 0, 51, 0
2, 7870, Control_c, 0, 64, 73
2, 7886, Control_c, 0, 64, 70
2, 7901, Control_c, 0, 64, 64
2, 7905, Note_on_c, 0, 63, 0
2, 7916, Control_c, 0, 64, 54
2, 7926, Note_on_c, 0, 65, 63
2, 7930, Note_on_c, 0, 56, 47
2, 7932, Control_c, 0, 64, 42
2, 7948, Control_c, 0, 64, 38
2, 7964, Control_c, 0, 64, 41
2, 7979, Control_c, 0, 64, 46
2, 7994, Control_c, 0, 64, 51
2, 8009, Control_c, 0, 64, 56
2, 8024, Control_c, 0, 64, 60
2, 8038, Note_on_c, 0, 72, 0
2, 8039, Control_c, 0, 64, 63
2, 8055, Control_c, 0, 64, 64
2, 8070, Control_c, 0, 64, 64
2, 8072, Note_on_c, 0, 66, 62
2, 8115, Control_c, 0, 64, 64
2, 8121, Note_on_c, 0, 56, 0
2, 8131, Control_c, 0, 64, 63
2, 8146, Control_c, 0, 64, 62
2, 8147, Note_on_c, 0, 65, 0
2, 8161, Control_c, 0, 64, 59
2, 8176, Control_c, 0, 64, 52
2, 8191, Control_c, 0, 64, 38
2, 8207, Control_c, 0, 64, 0
2, 8237, Note_on_c, 0, 73, 65
2, 8238, Note_on_c, 0, 49, 51
2, 8393, Note_on_c, 0, 65, 59
2, 8395, Note_on_c, 0, 66, 0
2, 8499, Note_on_c, 0, 49, 0
2, 8528, Note_on_c, 0, 65, 0
2, 8550, Note_on_c, 0, 67, 63
2, 8554, Note_on_c, 0, 48, 52
2, 8684, Note_on_c, 0, 67, 0
2, 8696, Note_on_c, 0, 69, 68
2, 8743, Note_on_c, 0, 48, 0
2, 8764, Note_on_c, 0, 73, 0
2, 8849, Note_on_c, 0, 70, 66
2, 8852, Note_on_c, 0, 49, 57
2, 8869, Note_on_c, 0, 69, 0
2, 8974, Control_c, 0, 64, 55
2, 8989, Control_c, 0, 64, 54
2, 8999, Note_on_c, 0, 72, 63
2, 9005, Control_c, 0, 64, 54
2, 9017, Note_on_c, 0, 70, 0
2, 9020, Control_c, 0, 64, 54
2, 9035, Control_c, 0, 64, 52
2, 9050, Control_c, 0, 64, 47
2, 9065, Control_c, 0, 64, 0
2, 9082, Note_on_c, 0, 49, 0
2, 9148, Note_on_c, 0, 46, 57
2, 9152, Note_on_c, 0, 73, 71
2, 9164, Note_on_c, 0, 72, 0
2, 9270, Control_c, 0, 64, 56
2, 9286, Control_c, 0, 64, 69
2, 9294, Note_on_c, 0, 70, 70
2, 9301, Control_c, 0, 64, 76
2, 9313, Note_on_c, 0, 73, 0
2, 9316, Control_c, 0, 64, 83
2, 9331, Control_c, 0, 64, 85
2, 9344, Note_on_c, 0, 70, 0
2, 9346, Control_c, 0, 64, 87
2, 9352, Note_on_c, 0, 46, 0
2, 9362, Control_c, 0, 64, 88
2, 9376, Control_c, 0, 64, 90
2, 9391, Control_c, 0, 64, 91
2, 9407, Control_c, 0, 64, 92
2, 9453, Control_c, 0, 64, 91
2, 9467, Control_c, 0, 64, 89
2, 9483, Control_c, 0, 64, 81
2, 9486, Note_on_c, 0, 80, 81
2, 9491, Note_on_c, 0, 72, 64
2, 9494, Note_on_c, 0, 53, 61
2, 9498, Control_c, 0, 64, 68
2, 9513, Control_c, 0, 64, 0
2, 9621, Control_c, 0, 64, 48
2, 9635, Control_c, 0, 64, 66
2, 9651, Control_c, 0, 64, 73
2, 9658, Note_on_c, 0, 79, 75
2, 9666, Control_c, 0, 64, 79
2, 9682, Control_c, 0, 64, 83
2, 9684, Note_on_c, 0, 80, 0
2, 9696, Control_c, 0, 64, 83
2, 9711, Control_c, 0, 64, 84
2, 9727, Control_c, 0, 64, 85
2, 9742, Control_c, 0, 64, 85
2, 9772, Control_c, 0, 64, 85
2, 9787, Control_c, 0, 64, 82
2, 9803, Control_c, 0, 64, 75
2, 9803, Note_on_c, 0, 53, 0
2, 9809, Note_on_c, 0, 56, 59
2, 9815, Note_on_c, 0, 60, 64
2, 9818, Control_c, 0, 64, 65
2, 9820, Note_on_c, 0, 77, 71
2, 9833, Control_c, 0, 64, 0
2, 9847, Note_on_c, 0, 79, 0
2, 9867, Note_on_c, 0, 72, 0
2, 9909, Control_c, 0, 64, 31
2, 9932, Control_c, 0, 64, 63
2, 9947, Control_c, 0, 64, 69
2, 9963, Control_c, 0, 64, 74
2, 9971, Note_on_c, 0, 76, 74
2, 9977, Control_c, 0, 64, 78
2, 9977, Note_on_c, 0, 60, 0
2, 9986, Note_on_c, 0, 77, 0
2, 9992, Control_c, 0, 64, 80
2, 10023, Control_c, 0, 64, 80
2, 10114, Control_c, 0, 64, 80
2, 10130, Control_c, 0, 64, 77
2, 10142, Note_on_c, 0, 77, 73
2, 10145, Control_c, 0, 64, 73
2, 10148, Note_on_c, 0, 56, 0
2, 10153, Note_on_c, 0, 61, 54
2, 10155, Note_on_c, 0, 65, 51
2, 10161, Control_c, 0, 64, 68
2, 10175, Control_c, 0, 64, 59
2, 10179, Note_on_c, 0, 76, 0
2, 10190, Control_c, 0, 64, 47
2, 10206, Control_c, 0, 64, 44
2, 10220, Control_c, 0, 64, 41
2, 10235, Control_c, 0, 64, 33
2, 10251, Control_c, 0, 64, 0
2, 10283, Note_on_c, 0, 61, 0
2, 10300, Note_on_c, 0, 60, 57
2, 10369, Note_on_c, 0, 77, 0
2, 10451, Note_on_c, 0, 60, 0
2, 10454, Note_on_c, 0, 72, 63
2, 10464, Note_on_c, 0, 58, 59
2, 10594, Note_on_c, 0, 58, 0
2, 10606, Note_on_c, 0, 56, 57
2, 10629, Control_c, 0, 64, 38
2, 10644, Control_c, 0, 64, 48
2, 10660, Control_c, 0, 64, 53
2, 10675, Control_c, 0, 64, 55
2, 10693, Note_on_c, 0, 72, 0
2, 10698, Control_c, 0, 64, 56
2, 10712, Note_on_c, 0, 56, 0
2, 10713, Control_c, 0, 64, 54
2, 10729, Control_c, 0, 64, 47
2, 10743, Control_c, 0, 64, 22
2, 10758, Control_c, 0, 64, 0
2, 10761, Note_on_c, 0, 73, 71
2, 10773, Note_on_c, 0, 58, 45
2, 10895, Control_c, 0, 64, 57
2, 10899, Note_on_c, 0, 58, 0
2, 10910, Control_c, 0, 64, 64
2, 10910, Note_on_c, 0, 55, 55
2, 10925, Control_c, 0, 64, 67
2, 10941, Control_c, 0, 64, 69
2, 10956, Control_c, 0, 64, 70
2, 10972, Control_c, 0, 64, 71
2, 11001, Control_c, 0, 64, 70
2, 11012, Note_on_c, 0, 73, 0
2, 11017, Control_c, 0, 64, 66
2, 11032, Control_c, 0, 64, 55
2, 11048, Control_c, 0, 64, 0
2, 11052, Note_on_c, 0, 65, 0
2, 11057, Note_on_c, 0, 70, 72
2, 11071, Note_on_c, 0, 56, 54
2, 11110, Note_on_c, 0, 55, 0
2, 11153, Control_c, 0, 64, 50
2, 11169, Control_c, 0, 64, 65
2, 11184, Control_c, 0, 64, 69
2, 11198, Control_c, 0, 64, 72
2, 11210, Note_on_c, 0, 58, 57
2, 11214, Control_c, 0, 64, 75
2, 11231, Control_c, 0, 64, 77
2, 11245, Control_c, 0, 64, 78
2, 11314, Note_on_c, 0, 70, 0
2, 11321, Control_c, 0, 64, 76
2, 11329, Note_on_c, 0, 58, 0
2, 11337, Control_c, 0, 64, 68
2, 11352, Control_c, 0, 64, 31
2, 11366, Note_on_c, 0, 60, 49
2, 11368, Control_c, 0, 64, 0
2, 11368, Note_on_c, 0, 67, 67
2, 11383, Note_on_c, 0, 64, 45
2, 11396, Note_on_c, 0, 56, 0
2, 11466, Control_c, 0, 64, 34
2, 11481, Control_c, 0, 64, 63
2, 11497, Control_c, 0, 64, 67
2, 11511, Control_c, 0, 64, 70
2, 11523, Note_on_c, 0, 58, 52
2, 11526, Control_c, 0, 64, 72
2, 11542, Control_c, 0, 64, 75
2, 11557, Control_c, 0, 64, 77
2, 11559, Note_on_c, 0, 60, 0
2, 11573, Control_c, 0, 64, 78
2, 11587, Control_c, 0, 64, 78
2, 11618, Control_c, 0, 64, 78
2, 11632, Control_c, 0, 64, 76
2, 11648, Control_c, 0, 64, 71
2, 11661, Note_on_c, 0, 67, 0
2, 11663, Control_c, 0, 64, 61
2, 11677, Note_on_c, 0, 72, 65
2, 11678, Control_c, 0, 64, 0
2, 11684, Note_on_c, 0, 56, 52
2, 11692, Note_on_c, 0, 58, 0
2, 11770, Control_c, 0, 64, 52
2, 11785, Control_c, 0, 64, 63
2, 11800, Control_c, 0, 64, 66
2, 11816, Control_c, 0, 64, 69
2, 11831, Control_c, 0, 64, 73
2, 11835, Note_on_c, 0, 55, 50
2, 11845, Control_c, 0, 64, 75
2, 11845, Note_on_c, 0, 56, 0
2, 11861, Control_c, 0, 64, 77
2, 11876, Control_c, 0, 64, 78
2, 11892, Control_c, 0, 64, 78
2, 11909, Note_on_c, 0, 72, 0
2, 11942, Note_on_c, 0, 55, 0
2, 11953, Control_c, 0, 64, 77
2, 11969, Control_c, 0, 64, 74
2, 11982, Note_on_c, 0, 64, 0
2, 11984, Control_c, 0, 64, 69
2, 11988, Note_on_c, 0, 53, 49
2, 11992, Note_on_c, 0, 68, 59
2, 11998, Control_c, 0, 64, 60
2, 12001, Note_on_c, 0, 65, 50
2, 12014, Control_c, 0, 64, 0
2, 12143, Note_on_c, 0, 65, 0
2, 12152, Note_on_c, 0, 64, 52
2, 12312, Note_on_c, 0, 64, 0
2, 12324, Note_on_c, 0, 65, 56
2, 12380, Note_on_c, 0, 68, 0
2, 12448, Note_on_c, 0, 65, 0
2, 12474, Note_on_c, 0, 67, 57
2, 12628, Note_on_c, 0, 67, 0
2, 12629, Note_on_c, 0, 77, 62
2, 12632, Note_on_c, 0, 68, 51
2, 12752, Note_on_c, 0, 77, 0
2, 12756, Note_on_c, 0, 53, 0
2, 12764, Note_on_c, 0, 70, 66
2, 12775, Note_on_c, 0, 55, 53
2, 12792, Note_on_c, 0, 68, 0
2, 12903, Note_on_c, 0, 55, 0
2, 12921, Note_on_c, 0, 56, 55
2, 12925, Note_on_c, 0, 70, 0
2, 12928, Note_on_c, 0, 77, 74
2, 12939, Note_on_c, 0, 72, 62
2, 13063, Note_on_c, 0, 56, 0
2, 13072, Note_on_c, 0, 68, 68
2, 13075, Note_on_c, 0, 53, 51
2, 13078, Note_on_c, 0, 77, 0
2, 13103, Note_on_c, 0, 72, 0
2, 13212, Note_on_c, 0, 53, 0
2, 13225, Note_on_c, 0, 70, 66
2, 13231, Note_on_c, 0, 77, 68
2, 13237, Note_on_c, 0, 55, 56
2, 13250, Note_on_c, 0, 68, 0
2, 13306, Control_c, 0, 64, 52
2, 13320, Control_c, 0, 64, 64
2, 13336, Control_c, 0, 64, 68
2, 13351, Control_c, 0, 64, 72
2, 13365, Note_on_c, 0, 55, 0
2, 13366, Control_c, 0, 64, 77
2, 13379, Note_on_c, 0, 68, 65
2, 13382, Control_c, 0, 64, 79
2, 13384, Note_on_c, 0, 56, 59
2, 13386, Note_on_c, 0, 70, 0
2, 13396, Control_c, 0, 64, 82
2, 13412, Control_c, 0, 64, 83
2, 13427, Control_c, 0, 64, 84
2, 13442, Control_c, 0, 64, 84
2, 13460, Note_on_c, 0, 77, 0
2, 13488, Control_c, 0, 64, 84
2, 13503, Control_c, 0, 64, 79
2, 13511, Note_on_c, 0, 56, 0
2, 13518, Control_c, 0, 64, 69
2, 13534, Control_c, 0, 64, 0
2, 13534, Note_on_c, 0, 76, 70
2, 13537, Note_on_c, 0, 68, 0
2, 13538, Note_on_c, 0, 58, 55
2, 13552, Note_on_c, 0, 67, 56
2, 13610, Control_c, 0, 64, 22
2, 13625, Control_c, 0, 64, 64
2, 13640, Control_c, 0, 64, 69
2, 13655, Control_c, 0, 64, 74
2, 13669, Note_on_c, 0, 67, 0
2, 13670, Control_c, 0, 64, 78
2, 13680, Note_on_c, 0, 77, 77
2, 13682, Note_on_c, 0, 68, 65
2, 13686, Control_c, 0, 64, 80
2, 13702, Control_c, 0, 64, 81
2, 13717, Control_c, 0, 64, 82
2, 13730, Note_on_c, 0, 76, 0
2, 13745, Note_on_c, 0, 58, 0
2, 13747, Note_on_c, 0, 68, 0
2, 13769, Note_on_c, 0, 77, 0
2, 13800, Control_c, 0, 64, 81
2, 13816, Control_c, 0, 64, 79
2, 13831, Control_c, 0, 64, 74
2, 13843, Note_on_c, 0, 79, 75
2, 13845, Control_c, 0, 64, 67
2, 13855, Note_on_c, 0, 52, 56
2, 13855, Note_on_c, 0, 70, 63
2, 13861, Control_c, 0, 64, 52
2, 13876, Control_c, 0, 64, 0
2, 13979, Note_on_c, 0, 79, 0
2, 13989, Note_on_c, 0, 72, 77
2, 14016, Note_on_c, 0, 70, 0
2, 14117, Note_on_c, 0, 52, 0
2, 14138, Note_on_c, 0, 53, 57
2, 14147, Note_on_c, 0, 79, 79
2, 14151, Note_on_c, 0, 73, 72
2, 14159, Note_on_c, 0, 72, 0
2, 14265, Note_on_c, 0, 53, 0
2, 14282, Note_on_c, 0, 70, 76
2, 14288, Note_on_c, 0, 79, 0
2, 14296, Note_on_c, 0, 55, 58
2, 14333, Note_on_c, 0, 73, 0
2, 14451, Note_on_c, 0, 56, 62
2, 14454, Note_on_c, 0, 79, 83
2, 14456, Note_on_c, 0, 72, 73
2, 14467, Note_on_c, 0, 55, 0
2, 14474, Note_on_c, 0, 70, 0
2, 14614, Note_on_c, 0, 58, 63
2, 14616, Control_c, 0, 64, 13
2, 14617, Note_on_c, 0, 56, 0
2, 14631, Control_c, 0, 64, 18
2, 14647, Control_c, 0, 64, 19
2, 14662, Control_c, 0, 64, 21
2, 14764, Note_on_c, 0, 56, 61
2, 14764, Note_on_c, 0, 77, 78
2, 14768, Note_on_c, 0, 58, 0
2, 14773, Note_on_c, 0, 79, 0
2, 14875, Control_c, 0, 64, 26
2, 14890, Control_c, 0, 64, 29
2, 14894, Note_on_c, 0, 56, 0
2, 14905, Control_c, 0, 64, 31
2, 14905, Note_on_c, 0, 79, 82
2, 14913, Note_on_c, 0, 55, 65
2, 14921, Control_c, 0, 64, 32
2, 14934, Note_on_c, 0, 77, 0
2, 14967, Control_c, 0, 64, 32
2, 14997, Control_c, 0, 64, 29
2, 15012, Control_c, 0, 64, 19
2, 15027, Control_c, 0, 64, 0
2, 15062, Note_on_c, 0, 80, 88
2, 15070, Note_on_c, 0, 53, 63
2, 15073, Note_on_c, 0, 79, 0
2, 15089, Note_on_c, 0, 55, 0
2, 15194, Control_c, 0, 64, 62
2, 15205, Note_on_c, 0, 53, 0
2, 15210, Control_c, 0, 64, 68
2, 15214, Note_on_c, 0, 51, 67
2, 15224, Control_c, 0, 64, 73
2, 15239, Control_c, 0, 64, 78
2, 15243, Note_on_c, 0, 72, 0
2, 15255, Control_c, 0, 64, 81
2, 15258, Note_on_c, 0, 80, 0
2, 15269, Control_c, 0, 64, 82
2, 15285, Control_c, 0, 64, 83
2, 15343, Note_on_c, 0, 51, 0
2, 15355, Control_c, 0, 64, 81
2, 15367, Note_on_c, 0, 80, 88
2, 15370, Control_c, 0, 64, 73
2, 15370, Note_on_c, 0, 77, 79
2, 15375, Note_on_c, 0, 49, 70
2, 15385, Control_c, 0, 64, 57
2, 15401, Control_c, 0, 64, 0
2, 15476, Control_c, 0, 64, 59
2, 15492, Control_c, 0, 64, 67
2, 15507, Control_c, 0, 64, 71
2, 15508, Note_on_c, 0, 49, 0
2, 15513, Note_on_c, 0, 72, 70
2, 15523, Control_c, 0, 64, 75
2, 15523, Note_on_c, 0, 53, 66
2, 15537, Control_c, 0, 64, 78
2, 15552, Control_c, 0, 64, 79
2, 15568, Control_c, 0, 64, 80
2, 15577, Note_on_c, 0, 80, 0
2, 15582, Control_c, 0, 64, 81
2, 15597, Control_c, 0, 64, 82
2, 15613, Control_c, 0, 64, 83
2, 15658, Control_c, 0, 64, 83
2, 15667, Note_on_c, 0, 77, 0
2, 15670, Note_on_c, 0, 53, 0
2, 15673, Control_c, 0, 64, 79
2, 15689, Control_c, 0, 64, 70
2, 15691, Note_on_c, 0, 80, 84
2, 15694, Note_on_c, 0, 46, 70
2, 15696, Note_on_c, 0, 73, 77
2, 15703, Control_c, 0, 64, 29
2, 15705, Note_on_c, 0, 72, 0
2, 15718, Control_c, 0, 64, 0
2, 15795, Control_c, 0, 64, 40
2, 15811, Control_c, 0, 64, 64
2, 15826, Control_c, 0, 64, 69
2, 15841, Control_c, 0, 64, 74
2, 15842, Note_on_c, 0, 75, 70
2, 15856, Control_c, 0, 64, 78
2, 15871, Control_c, 0, 64, 81
2, 15887, Control_c, 0, 64, 83
2, 15901, Control_c, 0, 64, 84
2, 15904, Note_on_c, 0, 80, 0
2, 15906, Note_on_c, 0, 73, 0
2, 15916, Control_c, 0, 64, 86
2, 15947, Control_c, 0, 64, 86
2, 15967, Note_on_c, 0, 46, 0
2, 15990, Note_on_c, 0, 77, 82
2, 15992, Control_c, 0, 64, 86
2, 15996, Note_on_c, 0, 73, 75
2, 16036, Note_on_c, 0, 75, 0
2, 16038, Control_c, 0, 64, 85
2, 16061, Control_c, 0, 64, 84
2, 16076, Control_c, 0, 64, 82
2, 16092, Control_c, 0, 64, 79
2, 16107, Control_c, 0, 64, 75
2, 16122, Control_c, 0, 64, 71
2, 16138, Control_c, 0, 64, 65
2, 16148, Note_on_c, 0, 72, 69
2, 16153, Control_c, 0, 64, 59
2, 16159, Note_on_c, 0, 73, 0
2, 16168, Control_c, 0, 64, 54
2, 16183, Control_c, 0, 64, 46
2, 16198, Control_c, 0, 64, 0
2, 16260, Note_on_c, 0, 77, 0
2, 16297, Note_on_c, 0, 79, 82
2, 16303, Note_on_c, 0, 70, 65
2, 16308, Note_on_c, 0, 72, 0
2, 16437, Note_on_c, 0, 68, 69
2, 16530, Note_on_c, 0, 70, 0
2, 16564, Note_on_c, 0, 68, 0
2, 16587, Note_on_c, 0, 67, 65
2, 16589, Note_on_c, 0, 79, 0
2, 16596, Note_on_c, 0, 82, 88
2, 16685, Control_c, 0, 64, 57
2, 16700, Control_c, 0, 64, 64
2, 16704, Note_on_c, 0, 67, 0
2, 16715, Control_c, 0, 64, 67
2, 16731, Control_c, 0, 64, 72
2, 16743, Note_on_c, 0, 70, 64
2, 16745, Control_c, 0, 64, 79
2, 16761, Control_c, 0, 64, 83
2, 16776, Control_c, 0, 64, 85
2, 16791, Control_c, 0, 64, 86
2, 16807, Control_c, 0, 64, 87
2, 16810, Note_on_c, 0, 82, 0
2, 16828, Control_c, 0, 64, 89
2, 16844, Control_c, 0, 64, 90
2, 16874, Control_c, 0, 64, 90
2, 16890, Control_c, 0, 64, 88
2, 16905, Control_c, 0, 64, 82
2, 16914, Note_on_c, 0, 82, 88
2, 16921, Control_c, 0, 64, 72
2, 16921, Note_on_c, 0, 64, 53
2, 16927, Note_on_c, 0, 70, 0
2, 16936, Control_c, 0, 64, 33
2, 16951, Control_c, 0, 64, 0
2, 17012, Control_c, 0, 64, 49
2, 17027, Control_c, 0, 64, 68
2, 17043, Control_c, 0, 64, 76
2, 17058, Control_c, 0, 64, 81
2, 17069, Note_on_c, 0, 64, 0
2, 17072, Note_on_c, 0, 82, 0
2, 17073, Control_c, 0, 64, 82
2, 17073, Note_on_c, 0, 61, 64
2, 17104, Control_c, 0, 64, 82
2, 17207, Note_on_c, 0, 61, 0
2, 17209, Control_c, 0, 64, 82
2, 17220, Note_on_c, 0, 76, 75
2, 17227, Note_on_c, 0, 67, 62
2, 17229, Note_on_c, 0, 60, 58
2, 17239, Control_c, 0, 64, 81
2, 17269, Control_c, 0, 64, 80
2, 17285, Control_c, 0, 64, 79
2, 17300, Control_c, 0, 64, 78
2, 17315, Control_c, 0, 64, 78
2, 17331, Control_c, 0, 64, 77
2, 17345, Control_c, 0, 64, 76
2, 17361, Control_c, 0, 64, 74
2, 17373, Note_on_c, 0, 60, 0
2, 17375, Note_on_c, 0, 58, 63
2, 17376, Control_c, 0, 64, 71
2, 17391, Control_c, 0, 64, 68
2, 17407, Control_c, 0, 64, 64
2, 17422, Control_c, 0, 64, 62
2, 17452, Control_c, 0, 64, 61
2, 17467, Control_c, 0, 64, 60
2, 17483, Control_c, 0, 64, 57
2, 17498, Control_c, 0, 64, 54
2, 17507, Note_on_c, 0, 67, 0
2, 17513, Control_c, 0, 64, 52
2, 17523, Note_on_c, 0, 77, 78
2, 17526, Note_on_c, 0, 58, 0
2, 17528, Control_c, 0, 64, 51
2, 17529, Note_on_c, 0, 60, 48
2, 17534, Note_on_c, 0, 56, 60
2, 17543, Control_c, 0, 64, 45
2, 17558, Control_c, 0, 64, 34
2, 17565, Note_on_c, 0, 76, 0
2, 17574, Control_c, 0, 64, 10
2, 17589, Control_c, 0, 64, 0
2, 17671, Note_on_c, 0, 56, 0
2, 17698, Note_on_c, 0, 55, 51
2, 17811, Note_on_c, 0, 55, 0
2, 17847, Note_on_c, 0, 53, 59
2, 17849, Note_on_c, 0, 72, 65
2, 17941, Note_on_c, 0, 53, 0
2, 17963, Control_c, 0, 64, 40
2, 17978, Control_c, 0, 64, 62
2, 17987, Note_on_c, 0, 56, 61
2, 17992, Control_c, 0, 64, 65
2, 18008, Control_c, 0, 64, 66
2, 18023, Control_c, 0, 64, 66
2, 18037, Control_c, 0, 64, 67
2, 18061, Note_on_c, 0, 60, 0
2, 18084, Control_c, 0, 64, 66
2, 18099, Control_c, 0, 64, 64
2, 18113, Control_c, 0, 64, 56
2, 18129, Control_c, 0, 64, 0
2, 18149, Note_on_c, 0, 72, 0
2, 18151, Note_on_c, 0, 70, 64
2, 18156, Note_on_c, 0, 49, 61
2, 18163, Note_on_c, 0, 56, 0
2, 18250, Control_c, 0, 64, 38
2, 18265, Control_c, 0, 64, 63
2, 18281, Control_c, 0, 64, 66
2, 18296, Control_c, 0, 64, 67
2, 18310, Note_on_c, 0, 72, 64
2, 18311, Control_c, 0, 64, 68
2, 18314, Note_on_c, 0, 49, 0
2, 18327, Control_c, 0, 64, 69
2, 18327, Note_on_c, 0, 70, 0
2, 18342, Control_c, 0, 64, 70
2, 18357, Control_c, 0, 64, 70
2, 18394, Control_c, 0, 64, 70
2, 18410, Control_c, 0, 64, 64
2, 18425, Control_c, 0, 64, 0
2, 18467, Note_on_c, 0, 46, 60
2, 18469, Note_on_c, 0, 73, 67
2, 18498, Note_on_c, 0, 72, 0
2, 18534, Control_c, 0, 64, 39
2, 18549, Control_c, 0, 64, 64
2, 18564, Control_c, 0, 64, 68
2, 18579, Control_c, 0, 64, 70
2, 18595, Control_c, 0, 64, 71
2, 18611, Control_c, 0, 64, 73
2, 18624, Note_on_c, 0, 70, 65
2, 18625, Control_c, 0, 64, 74
2, 18628, Note_on_c, 0, 46, 0
2, 18641, Control_c, 0, 64, 74
2, 18641, Note_on_c, 0, 77, 0
2, 18654, Note_on_c, 0, 73, 0
2, 18687, Control_c, 0, 64, 74
2, 18702, Control_c, 0, 64, 70
2, 18718, Control_c, 0, 64, 62
2, 18732, Control_c, 0, 64, 0
2, 18768, Note_on_c, 0, 70, 0
2, 18769, Note_on_c, 0, 48, 64
2, 18775, Note_on_c, 0, 76, 68
2, 18779, Note_on_c, 0, 67, 59
2, 18854, Control_c, 0, 64, 61
2, 18869, Control_c, 0, 64, 69
2, 18884, Control_c, 0, 64, 73
2, 18899, Control_c, 0, 64, 75
2, 18915, Control_c, 0, 64, 76
2, 18925, Note_on_c, 0, 73, 63
2, 18930, Control_c, 0, 64, 77
2, 18939, Note_on_c, 0, 48, 0
2, 18945, Control_c, 0, 64, 77
2, 18974, Note_on_c, 0, 67, 0
2, 19005, Control_c, 0, 64, 75
2, 19020, Control_c, 0, 64, 70
2, 19036, Control_c, 0, 64, 50
2, 19051, Control_c, 0, 64, 0
2, 19075, Note_on_c, 0, 36, 56
2, 19078, Note_on_c, 0, 72, 60
2, 19089, Note_on_c, 0, 76, 0
2, 19124, Note_on_c, 0, 73, 0
2, 19180, Control_c, 0, 64, 63
2, 19196, Control_c, 0, 64, 71
2, 19211, Control_c, 0, 64, 75
2, 19225, Control_c, 0, 64, 77
2, 19229, Note_on_c, 0, 70, 64
2, 19241, Control_c, 0, 64, 79
2, 19256, Control_c, 0, 64, 80
2, 19271, Control_c, 0, 64, 81
2, 19287, Control_c, 0, 64, 82
2, 19291, Note_on_c, 0, 72, 0
2, 19301, Control_c, 0, 64, 82
2, 19304, Note_on_c, 0, 36, 0
2, 19377, Control_c, 0, 64, 81
2, 19392, Control_c, 0, 64, 77
2, 19408, Control_c, 0, 64, 69
2, 19424, Control_c, 0, 64, 51
2, 19426, Note_on_c, 0, 70, 0
2, 19427, Note_on_c, 0, 77, 65
2, 19434, Note_on_c, 0, 41, 49
2, 19440, Control_c, 0, 64, 0
2, 19447, Note_on_c, 0, 68, 42
2, 19545, Control_c, 0, 64, 13
2, 19561, Control_c, 0, 64, 63
2, 19567, Note_on_c, 0, 41, 0
2, 19576, Control_c, 0, 64, 68
2, 19591, Control_c, 0, 64, 71
2, 19604, Note_on_c, 0, 48, 48
2, 19606, Control_c, 0, 64, 74
2, 19621, Control_c, 0, 64, 75
2, 19637, Control_c, 0, 64, 77
2, 19651, Control_c, 0, 64, 77
2, 19666, Control_c, 0, 64, 78
2, 19742, Control_c, 0, 64, 77
2, 19756, Note_on_c, 0, 50, 45
2, 19757, Note_on_c, 0, 72, 54
2, 19758, Control_c, 0, 64, 76
2, 19764, Note_on_c, 0, 48, 0
2, 19772, Control_c, 0, 64, 73
2, 19787, Control_c, 0, 64, 68
2, 19801, Note_on_c, 0, 68, 0
2, 19803, Control_c, 0, 64, 62
2, 19818, Control_c, 0, 64, 50
2, 19833, Control_c, 0, 64, 42
2, 19848, Control_c, 0, 64, 39
2, 19848, Note_on_c, 0, 77, 0
2, 19863, Control_c, 0, 64, 32
2, 19879, Control_c, 0, 64, 0
2, 19888, Note_on_c, 0, 50, 0
2, 19918, Note_on_c, 0, 52, 45
2, 20043, Note_on_c, 0, 52, 0
2, 20044, Note_on_c, 0, 72, 0
2, 20064, Note_on_c, 0, 68, 54
2, 20070, Note_on_c, 0, 53, 44
2, 20216, Note_on_c, 0, 53, 0
2, 20226, Note_on_c, 0, 75, 50
2, 20233, Note_on_c, 0, 54, 46
2, 20278, Note_on_c, 0, 68, 0
2, 20364, Note_on_c, 0, 75, 0
2, 20368, Note_on_c, 0, 54, 0
2, 20379, Note_on_c, 0, 74, 55
2, 20395, Note_on_c, 0, 59, 37
2, 20402, Note_on_c, 0, 56, 44
2, 20510, Control_c, 0, 64, 51
2, 20521, Note_on_c, 0, 56, 0
2, 20526, Control_c, 0, 64, 58
2, 20541, Control_c, 0, 64, 62
2, 20544, Note_on_c, 0, 75, 66
2, 20552, Note_on_c, 0, 53, 44
2, 20557, Control_c, 0, 64, 65
2, 20571, Control_c, 0, 64, 68
2, 20576, Note_on_c, 0, 74, 0
2, 20586, Control_c, 0, 64, 72
2, 20602, Control_c, 0, 64, 74
2, 20616, Control_c, 0, 64, 76
2, 20631, Control_c, 0, 64, 76
2, 20647, Control_c, 0, 64, 77
2, 20655, Note_on_c, 0, 53, 0
2, 20700, Control_c, 0, 64, 75
2, 20716, Control_c, 0, 64, 69
2, 20720, Note_on_c, 0, 59, 0
2, 20730, Note_on_c, 0, 58, 46
2, 20731, Control_c, 0, 64, 47
2, 20741, Note_on_c, 0, 77, 70
2, 20746, Control_c, 0, 64, 0
2, 20756, Note_on_c, 0, 50, 34
2, 20761, Note_on_c, 0, 75, 0
2, 20837, Control_c, 0, 64, 53
2, 20852, Control_c, 0, 64, 66
2, 20867, Control_c, 0, 64, 71
2, 20875, Note_on_c, 0, 77, 0
2, 20883, Control_c, 0, 64, 73
2, 20898, Control_c, 0, 64, 74
2, 20907, Note_on_c, 0, 58, 0
2, 20912, Control_c, 0, 64, 76
2, 20912, Note_on_c, 0, 60, 45
2, 20928, Control_c, 0, 64, 77
2, 20943, Control_c, 0, 64, 78
2, 20959, Control_c, 0, 64, 79
2, 20974, Control_c, 0, 64, 79
2, 21035, Note_on_c, 0, 60, 0
2, 21050, Note_on_c, 0, 70, 66
2, 21065, Note_on_c, 0, 62, 51
2, 21081, Control_c, 0, 64, 79
2, 21087, Note_on_c, 0, 50, 0
2, 21096, Control_c, 0, 64, 78
2, 21111, Control_c, 0, 64, 76
2, 21127, Control_c, 0, 64, 72
2, 21141, Control_c, 0, 64, 67
2, 21157, Control_c, 0, 64, 60
2, 21172, Control_c, 0, 64, 55
2, 21187, Control_c, 0, 64, 53
2, 21198, Note_on_c, 0, 62, 0
2, 21203, Control_c, 0, 64, 49
2, 21204, Note_on_c, 0, 63, 51
2, 21218, Control_c, 0, 64, 42
2, 21233, Control_c, 0, 64, 19
2, 21249, Control_c, 0, 64, 0
2, 21349, Note_on_c, 0, 70, 0
2, 21357, Note_on_c, 0, 68, 65
2, 21359, Note_on_c, 0, 65, 45
2, 21413, Note_on_c, 0, 63, 0
2, 21417, Note_on_c, 0, 65, 0
2, 21430, Control_c, 0, 64, 18
2, 21453, Control_c, 0, 64, 67
2, 21468, Control_c, 0, 64, 73
2, 21484, Control_c, 0, 64, 77
2, 21499, Control_c, 0, 64, 78
2, 21505, Note_on_c, 0, 68, 0
2, 21515, Control_c, 0, 64, 79
2, 21520, Note_on_c, 0, 66, 70
2, 21530, Control_c, 0, 64, 80
2, 21544, Control_c, 0, 64, 81
2, 21636, Control_c, 0, 64, 80
2, 21643, Note_on_c, 0, 66, 0
2, 21651, Control_c, 0, 64, 76
2, 21665, Control_c, 0, 64, 68
2, 21681, Control_c, 0, 64, 42
2, 21682, Note_on_c, 0, 77, 74
2, 21683, Note_on_c, 0, 46, 52
2, 21696, Control_c, 0, 64, 0
2, 21700, Note_on_c, 0, 68, 51
2, 21788, Control_c, 0, 64, 51
2, 21804, Control_c, 0, 64, 66
2, 21817, Note_on_c, 0, 68, 0
2, 21819, Control_c, 0, 64, 71
2, 21833, Control_c, 0, 64, 74
2, 21843, Note_on_c, 0, 65, 56
2, 21849, Control_c, 0, 64, 76
2, 21881, Control_c, 0, 64, 77
2, 21967, Note_on_c, 0, 46, 0
2, 21972, Control_c, 0, 64, 76
2, 21973, Note_on_c, 0, 65, 0
2, 21976, Note_on_c, 0, 39, 52
2, 21986, Control_c, 0, 64, 74
2, 21998, Note_on_c, 0, 66, 60
2, 22002, Control_c, 0, 64, 67
2, 22017, Control_c, 0, 64, 0
2, 22128, Note_on_c, 0, 46, 53
2, 22197, Note_on_c, 0, 39, 0
2, 22289, Note_on_c, 0, 77, 0
2, 22302, Note_on_c, 0, 75, 63
2, 22304, Note_on_c, 0, 48, 50
2, 22400, Note_on_c, 0, 46, 0
2, 22410, Note_on_c, 0, 48, 0
2, 22453, Note_on_c, 0, 77, 75
2, 22454, Note_on_c, 0, 50, 47
2, 22468, Note_on_c, 0, 66, 0
2, 22491, Note_on_c, 0, 75, 0
2, 22612, Note_on_c, 0, 78, 77
2, 22614, Note_on_c, 0, 50, 0
2, 22621, Note_on_c, 0, 51, 45
2, 22622, Note_on_c, 0, 77, 0
2, 22709, Control_c, 0, 64, 49
2, 22725, Control_c, 0, 64, 67
2, 22739, Control_c, 0, 64, 71
2, 22755, Control_c, 0, 64, 74
2, 22764, Note_on_c, 0, 51, 0
2, 22770, Control_c, 0, 64, 76
2, 22774, Note_on_c, 0, 53, 54
2, 22774, Note_on_c, 0, 78, 0
2, 22785, Control_c, 0, 64, 77
2, 22801, Control_c, 0, 64, 78
2, 22891, Control_c, 0, 64, 77
2, 22897, Note_on_c, 0, 53, 0
2, 22906, Control_c, 0, 64, 76
2, 22922, Control_c, 0, 64, 73
2, 22928, Note_on_c, 0, 54, 55
2, 22933, Note_on_c, 0, 70, 65
2, 22937, Control_c, 0, 64, 70
2, 22941, Note_on_c, 0, 66, 53
2, 22951, Control_c, 0, 64, 66
2, 22967, Control_c, 0, 64, 62
2, 22990, Control_c, 0, 64, 57
2, 22993, Note_on_c, 0, 66, 0
2, 22993, Note_on_c, 0, 66, 20
2, 23006, Control_c, 0, 64, 56
2, 23021, Control_c, 0, 64, 53
2, 23036, Control_c, 0, 64, 51
2, 23044, Note_on_c, 0, 54, 0
2, 23051, Control_c, 0, 64, 49
2, 23064, Note_on_c, 0, 51, 44
2, 23081, Control_c, 0, 64, 50
2, 23111, Control_c, 0, 64, 49
2, 23127, Control_c, 0, 64, 47
2, 23142, Control_c, 0, 64, 45
2, 23157, Control_c, 0, 64, 40
2, 23172, Control_c, 0, 64, 22
2, 23187, Control_c, 0, 64, 0
2, 23209, Note_on_c, 0, 51, 0
2, 23227, Note_on_c, 0, 48, 51
2, 23245, Note_on_c, 0, 68, 61
2, 23258, Note_on_c, 0, 70, 0
2, 23291, Note_on_c, 0, 66, 0
2, 23369, Control_c, 0, 64, 46
2, 23383, Note_on_c, 0, 48, 0
2, 23384, Control_c, 0, 64, 64
2, 23385, Note_on_c, 0, 70, 66
2, 23400, Control_c, 0, 64, 67
2, 23415, Control_c, 0, 64, 68
2, 23430, Control_c, 0, 64, 69
2, 23445, Control_c, 0, 64, 70
2, 23446, Note_on_c, 0, 68, 0
2, 23506, Control_c, 0, 64, 68
2, 23522, Control_c, 0, 64, 64
2, 23535, Note_on_c, 0, 70, 0
2, 23537, Control_c, 0, 64, 49
2, 23544, Note_on_c, 0, 57, 54
2, 23545, Note_on_c, 0, 72, 66
2, 23550, Note_on_c, 0, 51, 55
2, 23552, Control_c, 0, 64, 0
2, 23689, Control_c, 0, 64, 54
2, 23696, Note_on_c, 0, 73, 58
2, 23704, Control_c, 0, 64, 64
2, 23719, Control_c, 0, 64, 67
2, 23719, Note_on_c, 0, 72, 0
2, 23734, Control_c, 0, 64, 69
2, 23758, Control_c, 0, 64, 70
2, 23764, Note_on_c, 0, 51, 0
2, 23773, Control_c, 0, 64, 72
2, 23788, Control_c, 0, 64, 73
2, 23801, Note_on_c, 0, 57, 0
2, 23803, Control_c, 0, 64, 74
2, 23818, Control_c, 0, 64, 73
2, 23833, Control_c, 0, 64, 71
2, 23849, Control_c, 0, 64, 65
2, 23855, Note_on_c, 0, 56, 54
2, 23862, Note_on_c, 0, 75, 62
2, 23864, Control_c, 0, 64, 0
2, 23871, Note_on_c, 0, 48, 40
2, 23902, Note_on_c, 0, 73, 0
2, 23985, Control_c, 0, 64, 54
2, 24001, Control_c, 0, 64, 68
2, 24015, Control_c, 0, 64, 70
2, 24015, Note_on_c, 0, 77, 71
2, 24024, Note_on_c, 0, 75, 0
2, 24030, Control_c, 0, 64, 72
2, 24046, Control_c, 0, 64, 74
2, 24046, Note_on_c, 0, 56, 0
2, 24061, Control_c, 0, 64, 76
2, 24077, Control_c, 0, 64, 78
2, 24092, Control_c, 0, 64, 79
2, 24097, Note_on_c, 0, 48, 0
2, 24123, Control_c, 0, 64, 78
2, 24137, Control_c, 0, 64, 75
2, 24152, Control_c, 0, 64, 66
2, 24164, Note_on_c, 0, 44, 44
2, 24168, Control_c, 0, 64, 0
2, 24171, Note_on_c, 0, 78, 71
2, 24174, Note_on_c, 0, 77, 0
2, 24186, Note_on_c, 0, 72, 49
2, 24258, Control_c, 0, 64, 24
2, 24273, Control_c, 0, 64, 64
2, 24289, Control_c, 0, 64, 70
2, 24299, Note_on_c, 0, 44, 0
2, 24304, Control_c, 0, 64, 73
2, 24320, Control_c, 0, 64, 77
2, 24336, Control_c, 0, 64, 79
2, 24340, Note_on_c, 0, 75, 58
2, 24350, Control_c, 0, 64, 82
2, 24366, Control_c, 0, 64, 84
2, 24381, Control_c, 0, 64, 86
2, 24397, Control_c, 0, 64, 87
2, 24405, Note_on_c, 0, 78, 0
2, 24412, Control_c, 0, 64, 88
2, 24426, Control_c, 0, 64, 89
2, 24472, Control_c, 0, 64, 89
2, 24484, Note_on_c, 0, 72, 0
2, 24488, Control_c, 0, 64, 85
2, 24495, Note_on_c, 0, 75, 0
2, 24510, Control_c, 0, 64, 76
2, 24513, Note_on_c, 0, 37, 46
2, 24521, Note_on_c, 0, 77, 66
2, 24526, Control_c, 0, 64, 61
2, 24529, Note_on_c, 0, 73, 55
2, 24541, Control_c, 0, 64, 0
2, 24617, Control_c, 0, 64, 61
2, 24632, Control_c, 0, 64, 68
2, 24647, Control_c, 0, 64, 72
2, 24650, Note_on_c, 0, 77, 0
2, 24662, Control_c, 0, 64, 76
2, 24675, Note_on_c, 0, 73, 0
2, 24678, Control_c, 0, 64, 78
2, 24678, Note_on_c, 0, 44, 50
2, 24693, Control_c, 0, 64, 79
2, 24708, Control_c, 0, 64, 80
2, 24738, Control_c, 0, 64, 80
2, 24768, Control_c, 0, 64, 81
2, 24829, Control_c, 0, 64, 80
2, 24845, Control_c, 0, 64, 80
2, 24847, Note_on_c, 0, 37, 0
2, 24854, Note_on_c, 0, 46, 50
2, 24859, Note_on_c, 0, 67, 59
2, 24860, Control_c, 0, 64, 79
2, 24876, Control_c, 0, 64, 76
2, 24891, Control_c, 0, 64, 71
2, 24905, Control_c, 0, 64, 64
2, 24921, Control_c, 0, 64, 57
2, 24936, Control_c, 0, 64, 58
2, 24951, Control_c, 0, 64, 60
2, 24958, Note_on_c, 0, 44, 0
2, 24967, Control_c, 0, 64, 59
2, 24981, Control_c, 0, 64, 58
2, 24991, Note_on_c, 0, 46, 0
2, 25009, Note_on_c, 0, 48, 55
2, 25012, Control_c, 0, 64, 59
2, 25027, Control_c, 0, 64, 61
2, 25043, Control_c, 0, 64, 62
2, 25058, Control_c, 0, 64, 61
2, 25073, Control_c, 0, 64, 59
2, 25089, Control_c, 0, 64, 54
2, 25103, Control_c, 0, 64, 40
2, 25113, Note_on_c, 0, 67, 0
2, 25119, Control_c, 0, 64, 0
2, 25143, Note_on_c, 0, 65, 66
2, 25146, Note_on_c, 0, 48, 0
2, 25156, Note_on_c, 0, 61, 56
2, 25160, Note_on_c, 0, 49, 46
2, 25242, Control_c, 0, 64, 35
2, 25257, Control_c, 0, 64, 64
2, 25272, Control_c, 0, 64, 69
2, 25294, Control_c, 0, 64, 73
2, 25309, Control_c, 0, 64, 74
2, 25325, Control_c, 0, 64, 75
2, 25325, Note_on_c, 0, 51, 53
2, 25330, Note_on_c, 0, 65, 0
2, 25339, Control_c, 0, 64, 76
2, 25355, Control_c, 0, 64, 76
2, 25376, Note_on_c, 0, 49, 0
2, 25416, Control_c, 0, 64, 75
2, 25426, Note_on_c, 0, 51, 0
2, 25431, Control_c, 0, 64, 71
2, 25447, Control_c, 0, 64, 63
2, 25461, Control_c, 0, 64, 16
2, 25475, Note_on_c, 0, 53, 48
2, 25477, Control_c, 0, 64, 0
2, 25481, Note_on_c, 0, 73, 64
2, 25507, Note_on_c, 0, 61, 0
2, 25568, Control_c, 0, 64, 58
2, 25583, Control_c, 0, 64, 66
2, 25599, Control_c, 0, 64, 71
2, 25613, Control_c, 0, 64, 75
2, 25617, Note_on_c, 0, 49, 47
2, 25628, Control_c, 0, 64, 76
2, 25644, Control_c, 0, 64, 76
2, 25651, Note_on_c, 0, 53, 0
2, 25735, Control_c, 0, 64, 76
2, 25749, Control_c, 0, 64, 75
2, 25765, Control_c, 0, 64, 72
2, 25780, Control_c, 0, 64, 68
2, 25793, Control_c, 0, 64, 63
2, 25798, Note_on_c, 0, 70, 68
2, 25808, Note_on_c, 0, 54, 49
2, 25809, Control_c, 0, 64, 59
2, 25820, Note_on_c, 0, 49, 0
2, 25823, Control_c, 0, 64, 58
2, 25838, Control_c, 0, 64, 57
2, 25838, Note_on_c, 0, 73, 0
2, 25854, Control_c, 0, 64, 55
2, 25869, Control_c, 0, 64, 50
2, 25885, Control_c, 0, 64, 42
2, 25900, Control_c, 0, 64, 34
2, 25942, Note_on_c, 0, 54, 0
2, 25945, Control_c, 0, 64, 32
2, 25957, Note_on_c, 0, 56, 54
2, 25960, Control_c, 0, 64, 24
2, 25976, Control_c, 0, 64, 19
2, 25991, Control_c, 0, 64, 18
2, 26037, Control_c, 0, 64, 13
2, 26060, Control_c, 0, 64, 0
2, 26112, Note_on_c, 0, 56, 0
2, 26123, Note_on_c, 0, 61, 55
2, 26138, Note_on_c, 0, 54, 51
2, 26247, Note_on_c, 0, 54, 0
2, 26269, Note_on_c, 0, 53, 54
2, 26288, Control_c, 0, 64, 16
2, 26303, Control_c, 0, 64, 25
2, 26318, Control_c, 0, 64, 31
2, 26334, Control_c, 0, 64, 32
2, 26417, Note_on_c, 0, 61, 0
2, 26425, Control_c, 0, 64, 29
2, 26432, Note_on_c, 0, 51, 47
2, 26433, Note_on_c, 0, 53, 0
2, 26434, Note_on_c, 0, 66, 61
2, 26440, Control_c, 0, 64, 24
2, 26455, Control_c, 0, 64, 21
2, 26501, Control_c, 0, 64, 24
2, 26516, Control_c, 0, 64, 28
2, 26531, Control_c, 0, 64, 33
2, 26546, Control_c, 0, 64, 42
2, 26562, Control_c, 0, 64, 53
2, 26577, Control_c, 0, 64, 60
2, 26581, Note_on_c, 0, 49, 54
2, 26581, Note_on_c, 0, 51, 0
2, 26591, Control_c, 0, 64, 63
2, 26607, Control_c, 0, 64, 64
2, 26622, Control_c, 0, 64, 65
2, 26653, Control_c, 0, 64, 66
2, 26683, Control_c, 0, 64, 65
2, 26698, Control_c, 0, 64, 63
2, 26710, Note_on_c, 0, 49, 0
2, 26713, Control_c, 0, 64, 55
2, 26728, Control_c, 0, 64, 0
2, 26736, Note_on_c, 0, 70, 0
2, 26738, Note_on_c, 0, 75, 64
2, 26746, Note_on_c, 0, 48, 50
2, 26844, Control_c, 0, 64, 59
2, 26856, Note_on_c, 0, 48, 0
2, 26859, Control_c, 0, 64, 67
2, 26874, Control_c, 0, 64, 70
2, 26883, Note_on_c, 0, 51, 59
2, 26890, Control_c, 0, 64, 72
2, 26899, Note_on_c, 0, 73, 67
2, 26904, Control_c, 0, 64, 73
2, 26919, Control_c, 0, 64, 74
2, 26920, Note_on_c, 0, 75, 0
2, 26980, Control_c, 0, 64, 73
2, 26995, Control_c, 0, 64, 71
2, 27011, Control_c, 0, 64, 68
2, 27025, Control_c, 0, 64, 65
2, 27040, Control_c, 0, 64, 59
2, 27056, Control_c, 0, 64, 56
2, 27068, Note_on_c, 0, 45, 48
2, 27069, Note_on_c, 0, 51, 0
2, 27071, Control_c, 0, 64, 54
2, 27082, Note_on_c, 0, 72, 64
2, 27087, Control_c, 0, 64, 52
2, 27101, Control_c, 0, 64, 46
2, 27116, Control_c, 0, 64, 29
2, 27130, Note_on_c, 0, 66, 0
2, 27132, Control_c, 0, 64, 0
2, 27145, Note_on_c, 0, 73, 0
2, 27226, Note_on_c, 0, 41, 52
2, 27229, Note_on_c, 0, 45, 0
2, 27382, Note_on_c, 0, 65, 60
2, 27391, Note_on_c, 0, 41, 0
2, 27391, Note_on_c, 0, 43, 51
2, 27519, Note_on_c, 0, 65, 0
2, 27530, Note_on_c, 0, 43, 0
2, 27530, Note_on_c, 0, 63, 60
2, 27547, Note_on_c, 0, 45, 55
2, 27694, Note_on_c, 0, 45, 0
2, 27695, Note_on_c, 0, 61, 66
2, 27698, Note_on_c, 0, 63, 0
2, 27709, Note_on_c, 0, 46, 52
2, 27811, Note_on_c, 0, 46, 0
2, 27839, Control_c, 0, 64, 59
2, 27845, Note_on_c, 0, 48, 55
2, 27855, Control_c, 0, 64, 66
2, 27869, Control_c, 0, 64, 69
2, 27885, Control_c, 0, 64, 72
2, 27900, Control_c, 0, 64, 75
2, 27914, Control_c, 0, 64, 76
2, 27930, Control_c, 0, 64, 77
2, 27945, Control_c, 0, 64, 77
2, 27960, Control_c, 0, 64, 77
2, 27976, Control_c, 0, 64, 74
2, 27985, Note_on_c, 0, 48, 0
2, 27990, Control_c, 0, 64, 68
2, 28000, Note_on_c, 0, 49, 55
2, 28006, Control_c, 0, 64, 38
2, 28008, Note_on_c, 0, 70, 68
2, 28016, Note_on_c, 0, 72, 0
2, 28021, Control_c, 0, 64, 0
2, 28083, Note_on_c, 0, 61, 0
2, 28112, Control_c, 0, 64, 44
2, 28128, Control_c, 0, 64, 67
2, 28129, Note_on_c, 0, 49, 0
2, 28141, Note_on_c, 0, 46, 60
2, 28142, Control_c, 0, 64, 73
2, 28157, Control_c, 0, 64, 77
2, 28173, Control_c, 0, 64, 80
2, 28188, Control_c, 0, 64, 81
2, 28203, Control_c, 0, 64, 82
2, 28221, Note_on_c, 0, 46, 0
2, 28233, Control_c, 0, 64, 82
2, 28264, Control_c, 0, 64, 82
2, 28294, Control_c, 0, 64, 79
2, 28309, Control_c, 0, 64, 73
2, 28310, Note_on_c, 0, 60, 60
2, 28315, Note_on_c, 0, 51, 60
2, 28325, Control_c, 0, 64, 65
2, 28339, Control_c, 0, 64, 39
2, 28363, Control_c, 0, 64, 0
2, 28466, Note_on_c, 0, 70, 0
2, 28483, Note_on_c, 0, 72, 67
2, 28604, Note_on_c, 0, 60, 0
2, 28631, Note_on_c, 0, 51, 0
2, 28634, Note_on_c, 0, 73, 67
2, 28635, Note_on_c, 0, 72, 0
2, 28642, Note_on_c, 0, 48, 59
2, 28744, Control_c, 0, 64, 54
2, 28759, Control_c, 0, 64, 65
2, 28775, Control_c, 0, 64, 68
2, 28787, Note_on_c, 0, 73, 0
2, 28788, Note_on_c, 0, 75, 71
2, 28789, Control_c, 0, 64, 70
2, 28805, Control_c, 0, 64, 72
2, 28820, Control_c, 0, 64, 73
2, 28834, Control_c, 0, 64, 74
2, 28880, Control_c, 0, 64, 73
2, 28889, Note_on_c, 0, 48, 0
2, 28896, Control_c, 0, 64, 69
2, 28911, Control_c, 0, 64, 61
2, 28926, Note_on_c, 0, 75, 0
2, 28927, Control_c, 0, 64, 0
2, 28945, Note_on_c, 0, 53, 55
2, 28945, Note_on_c, 0, 69, 68
2, 29078, Control_c, 0, 64, 61
2, 29094, Control_c, 0, 64, 66
2, 29095, Note_on_c, 0, 78, 69
2, 29109, Control_c, 0, 64, 70
2, 29131, Control_c, 0, 64, 73
2, 29146, Control_c, 0, 64, 75
2, 29149, Note_on_c, 0, 53, 0
2, 29162, Control_c, 0, 64, 77
2, 29177, Control_c, 0, 64, 78
2, 29208, Control_c, 0, 64, 77
2, 29223, Control_c, 0, 64, 75
2, 29235, Note_on_c, 0, 78, 0
2, 29238, Control_c, 0, 64, 67
2, 29254, Control_c, 0, 64, 0
2, 29262, Note_on_c, 0, 77, 68
2, 29268, Note_on_c, 0, 41, 60
2, 29311, Note_on_c, 0, 69, 0
2, 29360, Control_c, 0, 64, 48
2, 29376, Control_c, 0, 64, 67
2, 29391, Control_c, 0, 64, 72
2, 29391, Note_on_c, 0, 41, 0
2, 29407, Control_c, 0, 64, 76
2, 29417, Note_on_c, 0, 75, 65
2, 29422, Control_c, 0, 64, 78
2, 29428, Note_on_c, 0, 77, 0
2, 29436, Control_c, 0, 64, 79
2, 29450, Control_c, 0, 64, 80
2, 29465, Control_c, 0, 64, 81
2, 29479, Control_c, 0, 64, 82
2, 29495, Control_c, 0, 64, 82
2, 29541, Control_c, 0, 64, 81
2, 29555, Control_c, 0, 64, 77
2, 29571, Control_c, 0, 64, 67
2, 29586, Control_c, 0, 64, 0
2, 29587, Note_on_c, 0, 46, 56
2, 29594, Note_on_c, 0, 73, 60
2, 29618, Note_on_c, 0, 75, 0
2, 29676, Control_c, 0, 64, 27
2, 29692, Control_c, 0, 64, 64
2, 29707, Control_c, 0, 64, 68
2, 29722, Control_c, 0, 64, 70
2, 29738, Control_c, 0, 64, 73
2, 29747, Note_on_c, 0, 46, 0
2, 29750, Note_on_c, 0, 77, 64
2, 29753, Control_c, 0, 64, 75
2, 29756, Note_on_c, 0, 58, 60
2, 29767, Control_c, 0, 64, 76
2, 29829, Note_on_c, 0, 73, 0
2, 29844, Control_c, 0, 64, 75
2, 29860, Control_c, 0, 64, 73
2, 29875, Control_c, 0, 64, 69
2, 29897, Control_c, 0, 64, 62
2, 29912, Control_c, 0, 64, 45
2, 29917, Note_on_c, 0, 75, 66
2, 29927, Control_c, 0, 64, 0
2, 29932, Note_on_c, 0, 60, 66
2, 29951, Note_on_c, 0, 58, 0
2, 29969, Note_on_c, 0, 77, 0
2, 30079, Note_on_c, 0, 61, 71
2, 30080, Note_on_c, 0, 73, 68
2, 30092, Note_on_c, 0, 60, 0
2, 30119, Note_on_c, 0, 75, 0
2, 30215, Note_on_c, 0, 61, 0
2, 30228, Note_on_c, 0, 63, 70
2, 30230, Note_on_c, 0, 73, 0
2, 30236, Note_on_c, 0, 72, 70
2, 30375, Note_on_c, 0, 65, 75
2, 30380, Note_on_c, 0, 63, 0
2, 30380, Note_on_c, 0, 70, 71
2, 30401, Note_on_c, 0, 72, 0
2, 30531, Note_on_c, 0, 65, 0
2, 30533, Note_on_c, 0, 66, 68
2, 30534, Note_on_c, 0, 69, 77
2, 30540, Note_on_c, 0, 60, 63
2, 30555, Note_on_c, 0, 70, 0
2, 30665, Control_c, 0, 64, 52
2, 30680, Control_c, 0, 64, 68
2, 30692, Note_on_c, 0, 63, 70
2, 30695, Note_on_c, 0, 69, 0
2, 30696, Control_c, 0, 64, 71
2, 30697, Note_on_c, 0, 72, 73
2, 30711, Control_c, 0, 64, 74
2, 30741, Control_c, 0, 64, 74
2, 30756, Control_c, 0, 64, 75
2, 30786, Note_on_c, 0, 60, 0
2, 30805, Note_on_c, 0, 66, 0
2, 30832, Control_c, 0, 64, 74
2, 30847, Control_c, 0, 64, 73
2, 30863, Control_c, 0, 64, 71
2, 30878, Control_c, 0, 64, 68
2, 30894, Control_c, 0, 64, 64
2, 30909, Control_c, 0, 64, 61
2, 30924, Control_c, 0, 64, 59
2, 30924, Note_on_c, 0, 70, 72
2, 30933, Note_on_c, 0, 61, 63
2, 30937, Note_on_c, 0, 65, 57
2, 30940, Control_c, 0, 64, 59
2, 30950, Note_on_c, 0, 72, 0
2, 30955, Control_c, 0, 64, 56
2, 30970, Control_c, 0, 64, 48
2, 30984, Control_c, 0, 64, 40
2, 30997, Note_on_c, 0, 63, 0
2, 30999, Control_c, 0, 64, 37
2, 31030, Control_c, 0, 64, 34
2, 31044, Control_c, 0, 64, 24
2, 31060, Control_c, 0, 64, 0
2, 31113, Note_on_c, 0, 60, 64
2, 31115, Note_on_c, 0, 61, 0
2, 31236, Note_on_c, 0, 65, 0
2, 31272, Note_on_c, 0, 73, 60
2, 31282, Note_on_c, 0, 58, 59
2, 31297, Note_on_c, 0, 70, 0
2, 31299, Note_on_c, 0, 60, 0
2, 31435, Note_on_c, 0, 72, 70
2, 31437, Note_on_c, 0, 58, 0
2, 31439, Note_on_c, 0, 57, 63
2, 31450, Note_on_c, 0, 73, 0
2, 31571, Note_on_c, 0, 57, 0
2, 31589, Note_on_c, 0, 58, 65
2, 31603, Note_on_c, 0, 73, 61
2, 31618, Note_on_c, 0, 72, 0
2, 31747, Note_on_c, 0, 72, 66
2, 31750, Note_on_c, 0, 73, 0
2, 31783, Control_c, 0, 64, 26
2, 31798, Control_c, 0, 64, 40
2, 31814, Control_c, 0, 64, 45
2, 31829, Control_c, 0, 64, 46
2, 31830, Note_on_c, 0, 58, 0
2, 31844, Control_c, 0, 64, 45
2, 31859, Control_c, 0, 64, 43
2, 31874, Control_c, 0, 64, 36
2, 31890, Control_c, 0, 64, 0
2, 31905, Note_on_c, 0, 70, 62
2, 31905, Note_on_c, 0, 72, 0
2, 31908, Note_on_c, 0, 53, 61
2, 31911, Note_on_c, 0, 73, 61
2, 32041, Control_c, 0, 64, 54
2, 32056, Control_c, 0, 64, 65
2, 32056, Note_on_c, 0, 70, 0
2, 32064, Note_on_c, 0, 69, 64
2, 32071, Control_c, 0, 64, 68
2, 32086, Control_c, 0, 64, 70
2, 32093, Note_on_c, 0, 73, 0
2, 32102, Control_c, 0, 64, 71
2, 32117, Control_c, 0, 64, 71
2, 32151, Note_on_c, 0, 53, 0
2, 32162, Control_c, 0, 64, 71
2, 32186, Control_c, 0, 64, 69
2, 32201, Control_c, 0, 64, 64
2, 32216, Control_c, 0, 64, 42
2, 32228, Note_on_c, 0, 69, 0
2, 32231, Control_c, 0, 64, 0
2, 32233, Note_on_c, 0, 73, 69
2, 32236, Note_on_c, 0, 54, 64
2, 32245, Note_on_c, 0, 70, 62
2, 32337, Control_c, 0, 64, 38
2, 32352, Control_c, 0, 64, 63
2, 32367, Control_c, 0, 64, 66
2, 32383, Control_c, 0, 64, 67
2, 32398, Control_c, 0, 64, 69
2, 32414, Control_c, 0, 64, 71
2, 32428, Control_c, 0, 64, 72
2, 32443, Control_c, 0, 64, 73
2, 32474, Control_c, 0, 64, 72
2, 32489, Control_c, 0, 64, 70
2, 32501, Note_on_c, 0, 54, 0
2, 32504, Control_c, 0, 64, 64
2, 32520, Control_c, 0, 64, 0
2, 32522, Note_on_c, 0, 73, 0
2, 32541, Note_on_c, 0, 72, 63
2, 32546, Note_on_c, 0, 51, 65
2, 32612, Control_c, 0, 64, 33
2, 32627, Control_c, 0, 64, 64
2, 32642, Control_c, 0, 64, 66
2, 32657, Control_c, 0, 64, 68
2, 32663, Note_on_c, 0, 72, 0
2, 32672, Control_c, 0, 64, 69
2, 32687, Control_c, 0, 64, 71
2, 32694, Note_on_c, 0, 73, 68
2, 32703, Control_c, 0, 64, 72
2, 32718, Control_c, 0, 64, 73
2, 32779, Control_c, 0, 64, 71
2, 32779, Note_on_c, 0, 51, 0
2, 32794, Control_c, 0, 64, 65
2, 32810, Control_c, 0, 64, 26
2, 32825, Control_c, 0, 64, 0
2, 32844, Note_on_c, 0, 48, 67
2, 32847, Note_on_c, 0, 75, 73
2, 32853, Note_on_c, 0, 73, 0
2, 32898, Note_on_c, 0, 70, 0
2, 32931, Control_c, 0, 64, 61
2, 32946, Control_c, 0, 64, 67
2, 32969, Control_c, 0, 64, 70
2, 32984, Control_c, 0, 64, 73
2, 32999, Control_c, 0, 64, 76
2, 32999, Note_on_c, 0, 69, 70
2, 33004, Note_on_c, 0, 75, 0
2, 33015, Control_c, 0, 64, 78
2, 33030, Control_c, 0, 64, 79
2, 33052, Note_on_c, 0, 48, 0
2, 33091, Control_c, 0, 64, 77
2, 33106, Control_c, 0, 64, 73
2, 33120, Control_c, 0, 64, 62
2, 33136, Control_c, 0, 64, 0
2, 33144, Note_on_c, 0, 69, 0
2, 33160, Note_on_c, 0, 53, 65
2, 33161, Note_on_c, 0, 67, 71
2, 33166, Note_on_c, 0, 75, 73
2, 33242, Control_c, 0, 64, 50
2, 33258, Control_c, 0, 64, 65
2, 33272, Control_c, 0, 64, 69
2, 33272, Note_on_c, 0, 67, 0
2, 33287, Control_c, 0, 64, 71
2, 33303, Control_c, 0, 64, 73
2, 33309, Note_on_c, 0, 69, 65
2, 33317, Control_c, 0, 64, 75
2, 33333, Control_c, 0, 64, 76
2, 33340, Note_on_c, 0, 75, 0
2, 33349, Control_c, 0, 64, 76
2, 33380, Control_c, 0, 64, 76
2, 33395, Control_c, 0, 64, 74
2, 33406, Note_on_c, 0, 53, 0
2, 33411, Control_c, 0, 64, 69
2, 33425, Control_c, 0, 64, 59
2, 33439, Note_on_c, 0, 69, 0
2, 33440, Control_c, 0, 64, 0
2, 33493, Note_on_c, 0, 75, 69
2, 33495, Note_on_c, 0, 49, 62
2, 33497, Note_on_c, 0, 70, 60
2, 33578, Control_c, 0, 64, 62
2, 33593, Control_c, 0, 64, 67
2, 33599, Note_on_c, 0, 70, 0
2, 33609, Control_c, 0, 64, 72
2, 33623, Control_c, 0, 64, 75
2, 33638, Control_c, 0, 64, 78
2, 33654, Control_c, 0, 64, 79
2, 33668, Control_c, 0, 64, 80
2, 33694, Note_on_c, 0, 75, 0
2, 33695, Note_on_c, 0, 49, 0
2, 33737, Control_c, 0, 64, 79
2, 33752, Control_c, 0, 64, 75
2, 33767, Control_c, 0, 64, 66
2, 33782, Control_c, 0, 64, 0
2, 33803, Note_on_c, 0, 46, 68
2, 33815, Note_on_c, 0, 73, 51
2, 33816, Note_on_c, 0, 65, 51
2, 33859, Control_c, 0, 64, 62
2, 33869, Note_on_c, 0, 46, 0
2, 33874, Control_c, 0, 64, 69
2, 33889, Control_c, 0, 64, 73
2, 33904, Control_c, 0, 64, 75
2, 33919, Control_c, 0, 64, 76
2, 33935, Control_c, 0, 64, 78
2, 33950, Control_c, 0, 64, 79
2, 33950, Note_on_c, 0, 75, 66
2, 33955, Note_on_c, 0, 65, 0
2, 33964, Control_c, 0, 64, 79
2, 34055, Control_c, 0, 64, 77
2, 34070, Control_c, 0, 64, 72
2, 34085, Control_c, 0, 64, 61
2, 34098, Note_on_c, 0, 61, 64
2, 34100, Control_c, 0, 64, 0
2, 34101, Note_on_c, 0, 58, 66
2, 34111, Note_on_c, 0, 77, 66
2, 34114, Note_on_c, 0, 73, 0
2, 34154, Note_on_c, 0, 75, 0
2, 34177, Control_c, 0, 64, 25
2, 34192, Control_c, 0, 64, 62
2, 34207, Control_c, 0, 64, 67
2, 34223, Control_c, 0, 64, 71
2, 34238, Control_c, 0, 64, 74
2, 34254, Control_c, 0, 64, 77
2, 34263, Note_on_c, 0, 80, 77
2, 34266, Note_on_c, 0, 77, 0
2, 34268, Control_c, 0, 64, 79
2, 34275, Note_on_c, 0, 58, 0
2, 34282, Note_on_c, 0, 61, 0
2, 34283, Control_c, 0, 64, 79
2, 34299, Control_c, 0, 64, 80
2, 34360, Control_c, 0, 64, 79
2, 34376, Control_c, 0, 64, 75
2, 34390, Control_c, 0, 64, 65
2, 34402, Note_on_c, 0, 63, 66
2, 34405, Control_c, 0, 64, 0
2, 34406, Note_on_c, 0, 58, 62
2, 34409, Note_on_c, 0, 78, 77
2, 34436, Note_on_c, 0, 80, 0
2, 34504, Control_c, 0, 64, 63
2, 34519, Control_c, 0, 64, 68
2, 34535, Control_c, 0, 64, 71
2, 34539, Note_on_c, 0, 58, 0
2, 34544, Note_on_c, 0, 78, 0
2, 34550, Control_c, 0, 64, 73
2, 34554, Note_on_c, 0, 77, 74
2, 34556, Note_on_c, 0, 63, 0
2, 34565, Control_c, 0, 64, 74
2, 34567, Note_on_c, 0, 65, 66
2, 34580, Control_c, 0, 64, 75
2, 34595, Control_c, 0, 64, 76
2, 34657, Control_c, 0, 64, 75
2, 34671, Control_c, 0, 64, 74
2, 34686, Control_c, 0, 64, 71
2, 34702, Control_c, 0, 64, 66
2, 34702, Note_on_c, 0, 77, 0
2, 34717, Control_c, 0, 64, 62
2, 34720, Note_on_c, 0, 58, 67
2, 34720, Note_on_c, 0, 75, 69
2, 34722, Note_on_c, 0, 66, 66
2, 34732, Control_c, 0, 64, 59
2, 34745, Note_on_c, 0, 65, 0
2, 34747, Control_c, 0, 64, 55
2, 34762, Control_c, 0, 64, 50
2, 34778, Control_c, 0, 64, 44
2, 34793, Control_c, 0, 64, 40
2, 34839, Control_c, 0, 64, 39
2, 34855, Control_c, 0, 64, 37
2, 34870, Control_c, 0, 64, 33
2, 34884, Control_c, 0, 64, 31
2, 34889, Note_on_c, 0, 73, 67
2, 34900, Control_c, 0, 64, 30
2, 34992, Control_c, 0, 64, 29
2, 35007, Control_c, 0, 64, 28
2, 35022, Control_c, 0, 64, 26
2, 35039, Note_on_c, 0, 73, 0
2, 35045, Note_on_c, 0, 72, 66
2, 35050, Note_on_c, 0, 58, 0
2, 35060, Note_on_c, 0, 56, 59
2, 35066, Note_on_c, 0, 75, 0
2, 35083, Control_c, 0, 64, 25
2, 35113, Control_c, 0, 64, 28
2, 35129, Control_c, 0, 64, 31
2, 35144, Control_c, 0, 64, 33
2, 35174, Note_on_c, 0, 72, 0
2, 35189, Note_on_c, 0, 75, 63
2, 35195, Note_on_c, 0, 58, 58
2, 35205, Note_on_c, 0, 56, 0
2, 35250, Control_c, 0, 64, 30
2, 35273, Control_c, 0, 64, 21
2, 35289, Control_c, 0, 64, 0
2, 35355, Note_on_c, 0, 68, 67
2, 35365, Note_on_c, 0, 60, 65
2, 35402, Note_on_c, 0, 58, 0
2, 35430, Note_on_c, 0, 75, 0
2, 35455, Control_c, 0, 64, 53
2, 35470, Control_c, 0, 64, 66
2, 35485, Control_c, 0, 64, 69
2, 35501, Control_c, 0, 64, 73
2, 35510, Note_on_c, 0, 60, 0
2, 35510, Note_on_c, 0, 66, 0
2, 35512, Note_on_c, 0, 65, 71
2, 35516, Control_c, 0, 64, 76
2, 35531, Control_c, 0, 64, 78
2, 35546, Control_c, 0, 64, 79
2, 35561, Control_c, 0, 64, 79
2, 35623, Control_c, 0, 64, 78
2, 35626, Note_on_c, 0, 65, 0
2, 35638, Control_c, 0, 64, 74
2, 35653, Control_c, 0, 64, 66
2, 35668, Control_c, 0, 64, 0
2, 35673, Note_on_c, 0, 60, 68
2, 35675, Note_on_c, 0, 63, 68
2, 35759, Control_c, 0, 64, 46
2, 35774, Control_c, 0, 64, 66
2, 35789, Control_c, 0, 64, 70
2, 35805, Control_c, 0, 64, 74
2, 35816, Note_on_c, 0, 66, 73
2, 35821, Control_c, 0, 64, 76
2, 35822, Note_on_c, 0, 63, 0
2, 35831, Note_on_c, 0, 60, 0
2, 35836, Control_c, 0, 64, 78
2, 35852, Control_c, 0, 64, 78
2, 35867, Control_c, 0, 64, 79
2, 35922, Note_on_c, 0, 68, 0
2, 35927, Control_c, 0, 64, 78
2, 35930, Note_on_c, 0, 66, 0
2, 35942, Control_c, 0, 64, 75
2, 35957, Control_c, 0, 64, 68
2, 35973, Control_c, 0, 64, 36
2, 35973, Note_on_c, 0, 60, 67
2, 35975, Note_on_c, 0, 65, 67
2, 35976, Note_on_c, 0, 73, 69
2, 35988, Control_c, 0, 64, 0
2, 36117, Control_c, 0, 64, 55
2, 36132, Control_c, 0, 64, 64
2, 36137, Note_on_c, 0, 65, 0
2, 36142, Note_on_c, 0, 63, 67
2, 36147, Control_c, 0, 64, 65
2, 36162, Control_c, 0, 64, 65
2, 36223, Control_c, 0, 64, 65
2, 36228, Note_on_c, 0, 60, 0
2, 36238, Control_c, 0, 64, 64
2, 36254, Control_c, 0, 64, 63
2, 36269, Control_c, 0, 64, 59
2, 36283, Control_c, 0, 64, 50
2, 36290, Note_on_c, 0, 63, 0
2, 36292, Note_on_c, 0, 58, 63
2, 36294, Note_on_c, 0, 61, 68
2, 36299, Control_c, 0, 64, 29
2, 36314, Control_c, 0, 64, 0
2, 36422, Note_on_c, 0, 63, 62
2, 36433, Note_on_c, 0, 61, 0
2, 36435, Note_on_c, 0, 60, 76
2, 36464, Note_on_c, 0, 58, 0
2, 36591, Note_on_c, 0, 63, 0
2, 36594, Note_on_c, 0, 65, 74
2, 36598, Note_on_c, 0, 61, 74
2, 36600, Note_on_c, 0, 60, 0
2, 36725, Control_c, 0, 64, 52
2, 36741, Control_c, 0, 64, 62
2, 36743, Note_on_c, 0, 66, 72
2, 36748, Note_on_c, 0, 65, 0
2, 36756, Control_c, 0, 64, 64
2, 36771, Control_c, 0, 64, 64
2, 36786, Control_c, 0, 64, 65
2, 36818, Note_on_c, 0, 61, 0
2, 36870, Control_c, 0, 64, 63
2, 36885, Control_c, 0, 64, 58
2, 36901, Control_c, 0, 64, 22
2, 36907, Note_on_c, 0, 68, 76
2, 36912, Note_on_c, 0, 61, 75
2, 36916, Control_c, 0, 64, 0
2, 36925, Note_on_c, 0, 73, 0
2, 36929, Note_on_c, 0, 66, 0
2, 37022, Control_c, 0, 64, 49
2, 37037, Control_c, 0, 64, 66
2, 37052, Control_c, 0, 64, 71
2, 37067, Control_c, 0, 64, 74
2, 37068, Note_on_c, 0, 65, 73
2, 37082, Control_c, 0, 64, 76
2, 37091, Note_on_c, 0, 65, 0
2, 37095, Note_on_c, 0, 68, 0
2, 37098, Control_c, 0, 64, 77
2, 37113, Control_c, 0, 64, 77
2, 37115, Note_on_c, 0, 61, 0
2, 37127, Control_c, 0, 64, 78
2, 37188, Control_c, 0, 64, 77
2, 37203, Control_c, 0, 64, 76
2, 37219, Control_c, 0, 64, 73
2, 37220, Note_on_c, 0, 61, 72
2, 37220, Note_on_c, 0, 66, 69
2, 37234, Control_c, 0, 64, 68
2, 37250, Control_c, 0, 64, 61
2, 37265, Control_c, 0, 64, 54
2, 37280, Control_c, 0, 64, 51
2, 37295, Control_c, 0, 64, 51
2, 37310, Control_c, 0, 64, 49
2, 37325, Control_c, 0, 64, 42
2, 37341, Control_c, 0, 64, 25
2, 37356, Control_c, 0, 64, 10
2, 37373, Note_on_c, 0, 70, 67
2, 37386, Control_c, 0, 64, 13
2, 37401, Control_c, 0, 64, 10
2, 37417, Control_c, 0, 64, 0
2, 37523, Note_on_c, 0, 60, 59
2, 37532, Note_on_c, 0, 72, 71
2, 37533, Note_on_c, 0, 70, 0
2, 37548, Note_on_c, 0, 61, 0
2, 37683, Control_c, 0, 64, 34
2, 37683, Note_on_c, 0, 60, 0
2, 37686, Note_on_c, 0, 73, 73
2, 37691, Note_on_c, 0, 58, 59
2, 37699, Control_c, 0, 64, 50
2, 37714, Control_c, 0, 64, 57
2, 37730, Control_c, 0, 64, 59
2, 37736, Note_on_c, 0, 72, 0
2, 37745, Control_c, 0, 64, 60
2, 37760, Control_c, 0, 64, 59
2, 37775, Control_c, 0, 64, 57
2, 37790, Control_c, 0, 64, 49
2, 37805, Control_c, 0, 64, 0
2, 37842, Note_on_c, 0, 60, 60
2, 37846, Note_on_c, 0, 75, 75
2, 37862, Note_on_c, 0, 58, 0
2, 37895, Note_on_c, 0, 73, 0
2, 37926, Control_c, 0, 64, 58
2, 37942, Control_c, 0, 64, 67
2, 37957, Control_c, 0, 64, 71
2, 37965, Note_on_c, 0, 66, 0
2, 37973, Control_c, 0, 64, 74
2, 37987, Control_c, 0, 64, 76
2, 37995, Note_on_c, 0, 77, 81
2, 38002, Control_c, 0, 64, 78
2, 38018, Control_c, 0, 64, 79
2, 38024, Note_on_c, 0, 75, 0
2, 38032, Control_c, 0, 64, 80
2, 38057, Note_on_c, 0, 60, 0
2, 38123, Control_c, 0, 64, 78
2, 38139, Control_c, 0, 64, 71
2, 38154, Control_c, 0, 64, 59
2, 38157, Note_on_c, 0, 61, 58
2, 38157, Note_on_c, 0, 63, 62
2, 38159, Note_on_c, 0, 78, 78
2, 38170, Control_c, 0, 64, 0
2, 38183, Note_on_c, 0, 77, 0
2, 38276, Control_c, 0, 64, 56
2, 38292, Control_c, 0, 64, 65
2, 38307, Control_c, 0, 64, 69
2, 38311, Note_on_c, 0, 75, 81
2, 38322, Control_c, 0, 64, 72
2, 38345, Control_c, 0, 64, 75
2, 38358, Note_on_c, 0, 78, 0
2, 38360, Control_c, 0, 64, 77
2, 38376, Control_c, 0, 64, 79
2, 38391, Control_c, 0, 64, 79
2, 38406, Control_c, 0, 64, 80
2, 38436, Note_on_c, 0, 61, 0
2, 38481, Control_c, 0, 64, 79
2, 38497, Control_c, 0, 64, 75
2, 38504, Note_on_c, 0, 77, 78
2, 38505, Note_on_c, 0, 60, 46
2, 38512, Control_c, 0, 64, 65
2, 38513, Note_on_c, 0, 63, 0
2, 38515, Note_on_c, 0, 75, 0
2, 38517, Note_on_c, 0, 56, 43
2, 38527, Control_c, 0, 64, 0
2, 38632, Note_on_c, 0, 60, 0
2, 38634, Control_c, 0, 64, 45
2, 38650, Control_c, 0, 64, 60
2, 38664, Control_c, 0, 64, 63
2, 38668, Note_on_c, 0, 66, 57
2, 38671, Note_on_c, 0, 75, 70
2, 38679, Control_c, 0, 64, 65
2, 38695, Control_c, 0, 64, 65
2, 38710, Control_c, 0, 64, 66
2, 38719, Note_on_c, 0, 77, 0
2, 38725, Control_c, 0, 64, 67
2, 38786, Control_c, 0, 64, 66
2, 38800, Control_c, 0, 64, 63
2, 38816, Control_c, 0, 64, 42
2, 38830, Note_on_c, 0, 73, 67
2, 38831, Control_c, 0, 64, 0
2, 38836, Note_on_c, 0, 65, 50
2, 38845, Note_on_c, 0, 75, 0
2, 38858, Note_on_c, 0, 66, 0
2, 38922, Control_c, 0, 64, 57
2, 38937, Control_c, 0, 64, 67
2, 38952, Control_c, 0, 64, 71
2, 38960, Note_on_c, 0, 65, 0
2, 38965, Note_on_c, 0, 63, 62
2, 38967, Control_c, 0, 64, 75
2, 38976, Note_on_c, 0, 72, 71
2, 38983, Control_c, 0, 64, 77
2, 38992, Note_on_c, 0, 73, 0
2, 38998, Control_c, 0, 64, 78
2, 39014, Control_c, 0, 64, 79
2, 39029, Note_on_c, 0, 63, 0
2, 39045, Note_on_c, 0, 72, 0
2, 39078, Note_on_c, 0, 56, 0
2, 39113, Control_c, 0, 64, 77
2, 39129, Control_c, 0, 64, 74
2, 39141, Note_on_c, 0, 73, 74
2, 39144, Control_c, 0, 64, 68
2, 39156, Note_on_c, 0, 65, 56
2, 39159, Control_c, 0, 64, 60
2, 39175, Control_c, 0, 64, 36
2, 39189, Control_c, 0, 64, 21
2, 39204, Control_c, 0, 64, 0
2, 39301, Note_on_c, 0, 49, 51
2, 39341, Control_c, 0, 64, 22
2, 39356, Control_c, 0, 64, 47
2, 39372, Control_c, 0, 64, 57
2, 39386, Control_c, 0, 64, 59
2, 39400, Note_on_c, 0, 73, 0
2, 39401, Control_c, 0, 64, 56
2, 39417, Control_c, 0, 64, 53
2, 39432, Control_c, 0, 64, 44
2, 39447, Control_c, 0, 64, 0
2, 39459, Note_on_c, 0, 51, 48
2, 39460, Note_on_c, 0, 68, 68
2, 39576, Note_on_c, 0, 51, 0
2, 39588, Note_on_c, 0, 49, 0
2, 39594, Note_on_c, 0, 53, 57
2, 39599, Control_c, 0, 64, 62
2, 39615, Control_c, 0, 64, 67
2, 39630, Control_c, 0, 64, 69
2, 39644, Control_c, 0, 64, 71
2, 39660, Control_c, 0, 64, 72
2, 39675, Control_c, 0, 64, 72
2, 39720, Control_c, 0, 64, 72
2, 39725, Note_on_c, 0, 53, 0
2, 39736, Control_c, 0, 64, 69
2, 39750, Note_on_c, 0, 68, 0
2, 39751, Control_c, 0, 64, 64
2, 39765, Note_on_c, 0, 54, 49
2, 39766, Control_c, 0, 64, 38
2, 39766, Note_on_c, 0, 70, 74
2, 39782, Control_c, 0, 64, 0
2, 39897, Control_c, 0, 64, 57
2, 39907, Note_on_c, 0, 54, 0
2, 39912, Control_c, 0, 64, 64
2, 39927, Control_c, 0, 64, 66
2, 39927, Note_on_c, 0, 56, 55
2, 39943, Control_c, 0, 64, 68
2, 39957, Control_c, 0, 64, 70
2, 39973, Control_c, 0, 64, 72
2, 39988, Control_c, 0, 64, 72
2, 40025, Note_on_c, 0, 70, 0
2, 40049, Control_c, 0, 64, 70
2, 40064, Control_c, 0, 64, 66
2, 40078, Control_c, 0, 64, 48
2, 40080, Note_on_c, 0, 58, 54
2, 40086, Note_on_c, 0, 66, 68
2, 40090, Note_on_c, 0, 63, 55
2, 40094, Control_c, 0, 64, 0
2, 40109, Note_on_c, 0, 65, 0
2, 40143, Note_on_c, 0, 56, 0
2, 40200, Control_c, 0, 64, 54
2, 40214, Note_on_c, 0, 58, 0
2, 40216, Control_c, 0, 64, 64
2, 40230, Control_c, 0, 64, 65
2, 40230, Note_on_c, 0, 54, 49
2, 40240, Note_on_c, 0, 61, 63
2, 40241, Note_on_c, 0, 63, 0
2, 40245, Control_c, 0, 64, 66
2, 40261, Control_c, 0, 64, 66
2, 40292, Control_c, 0, 64, 67
2, 40322, Control_c, 0, 64, 66
2, 40337, Control_c, 0, 64, 65
2, 40352, Control_c, 0, 64, 61
2, 40366, Note_on_c, 0, 54, 0
2, 40367, Control_c, 0, 64, 47
2, 40383, Control_c, 0, 64, 0
2, 40388, Note_on_c, 0, 66, 0
2, 40390, Note_on_c, 0, 61, 0
2, 40394, Note_on_c, 0, 63, 65
2, 40395, Note_on_c, 0, 56, 49
2, 40409, Note_on_c, 0, 60, 51
2, 40520, Note_on_c, 0, 60, 0
2, 40535, Control_c, 0, 64, 54
2, 40545, Note_on_c, 0, 61, 57
2, 40550, Control_c, 0, 64, 64
2, 40564, Control_c, 0, 64, 65
2, 40649, Control_c, 0, 64, 64
2, 40664, Control_c, 0, 64, 60
2, 40679, Control_c, 0, 64, 38
2, 40694, Control_c, 0, 64, 0
2, 40696, Note_on_c, 0, 61, 0
2, 40705, Note_on_c, 0, 63, 0
2, 40709, Note_on_c, 0, 68, 64
2, 40712, Note_on_c, 0, 58, 58
2, 40817, Control_c, 0, 64, 58
2, 40832, Control_c, 0, 64, 65
2, 40847, Control_c, 0, 64, 66
2, 40856, Note_on_c, 0, 60, 61
2, 40863, Control_c, 0, 64, 67
2, 40873, Note_on_c, 0, 58, 0
2, 40877, Control_c, 0, 64, 69
2, 40893, Control_c, 0, 64, 70
2, 40908, Control_c, 0, 64, 71
2, 40922, Control_c, 0, 64, 72
2, 40951, Note_on_c, 0, 68, 0
2, 40969, Control_c, 0, 64, 72
2, 40984, Control_c, 0, 64, 70
2, 40998, Control_c, 0, 64, 65
2, 41012, Note_on_c, 0, 60, 0
2, 41014, Control_c, 0, 64, 32
2, 41020, Note_on_c, 0, 65, 59
2, 41029, Control_c, 0, 64, 0
2, 41029, Note_on_c, 0, 61, 50
2, 41030, Note_on_c, 0, 49, 43
2, 41071, Note_on_c, 0, 56, 0
2, 41135, Control_c, 0, 64, 47
2, 41150, Control_c, 0, 64, 64
2, 41165, Control_c, 0, 64, 69
2, 41169, Note_on_c, 0, 53, 47
2, 41181, Control_c, 0, 64, 71
2, 41196, Control_c, 0, 64, 73
2, 41212, Control_c, 0, 64, 75
2, 41227, Control_c, 0, 64, 76
2, 41246, Note_on_c, 0, 61, 0
2, 41259, Note_on_c, 0, 49, 0
2, 41287, Control_c, 0, 64, 74
2, 41303, Control_c, 0, 64, 68
2, 41315, Note_on_c, 0, 65, 0
2, 41318, Control_c, 0, 64, 41
2, 41323, Note_on_c, 0, 53, 0
2, 41331, Note_on_c, 0, 54, 42
2, 41333, Control_c, 0, 64, 0
2, 41338, Note_on_c, 0, 61, 57
2, 41394, Control_c, 0, 64, 41
2, 41417, Control_c, 0, 64, 64
2, 41432, Control_c, 0, 64, 68
2, 41447, Control_c, 0, 64, 71
2, 41462, Control_c, 0, 64, 73
2, 41473, Note_on_c, 0, 54, 0
2, 41477, Control_c, 0, 64, 74
2, 41493, Control_c, 0, 64, 74
2, 41501, Note_on_c, 0, 56, 45
2, 41600, Control_c, 0, 64, 73
2, 41615, Control_c, 0, 64, 68
2, 41615, Note_on_c, 0, 61, 0
2, 41630, Control_c, 0, 64, 51
2, 41645, Control_c, 0, 64, 0
2, 41653, Note_on_c, 0, 70, 52
2, 41665, Note_on_c, 0, 73, 50
2, 41667, Note_on_c, 0, 58, 45
2, 41676, Note_on_c, 0, 56, 0
2, 41792, Note_on_c, 0, 58, 0
2, 41802, Note_on_c, 0, 70, 0
2, 41807, Note_on_c, 0, 68, 58
2, 41818, Note_on_c, 0, 60, 51
2, 41826, Note_on_c, 0, 73, 0
2, 41918, Note_on_c, 0, 60, 0
2, 41960, Note_on_c, 0, 61, 50
2, 41970, Note_on_c, 0, 68, 0
2, 41970, Note_on_c, 0, 73, 66
2, 41974, Note_on_c, 0, 66, 55
2, 42101, Note_on_c, 0, 66, 0
2, 42110, Note_on_c, 0, 58, 47
2, 42116, Note_on_c, 0, 61, 0
2, 42119, Note_on_c, 0, 65, 61
2, 42148, Note_on_c, 0, 73, 0
2, 42247, Note_on_c, 0, 65, 0
2, 42285, Note_on_c, 0, 58, 0
2, 42289, Note_on_c, 0, 73, 63
2, 42291, Note_on_c, 0, 63, 51
2, 42293, Note_on_c, 0, 66, 61
2, 42425, Note_on_c, 0, 63, 0
2, 42444, Control_c, 0, 64, 16
2, 42444, Note_on_c, 0, 65, 53
2, 42460, Control_c, 0, 64, 58
2, 42475, Control_c, 0, 64, 60
2, 42490, Control_c, 0, 64, 59
2, 42520, Control_c, 0, 64, 59
2, 42535, Control_c, 0, 64, 58
2, 42550, Control_c, 0, 64, 53
2, 42565, Control_c, 0, 64, 37
2, 42573, Note_on_c, 0, 73, 0
2, 42581, Control_c, 0, 64, 0
2, 42594, Note_on_c, 0, 72, 62
2, 42605, Note_on_c, 0, 63, 47
2, 42607, Note_on_c, 0, 65, 0
2, 42717, Control_c, 0, 64, 48
2, 42732, Control_c, 0, 64, 55
2, 42737, Note_on_c, 0, 73, 65
2, 42739, Note_on_c, 0, 63, 0
2, 42739, Note_on_c, 0, 72, 0
2, 42747, Control_c, 0, 64, 56
2, 42752, Note_on_c, 0, 61, 49
2, 42762, Control_c, 0, 64, 57
2, 42778, Control_c, 0, 64, 59
2, 42783, Note_on_c, 0, 66, 0
2, 42793, Control_c, 0, 64, 59
2, 42807, Control_c, 0, 64, 59
2, 42823, Control_c, 0, 64, 57
2, 42838, Control_c, 0, 64, 48
2, 42854, Control_c, 0, 64, 0
2, 42872, Note_on_c, 0, 61, 0
2, 42901, Note_on_c, 0, 75, 68
2, 42910, Note_on_c, 0, 60, 48
2, 42911, Note_on_c, 0, 68, 47
2, 42914, Note_on_c, 0, 73, 0
2, 43014, Control_c, 0, 64, 60
2, 43028, Control_c, 0, 64, 67
2, 43043, Control_c, 0, 64, 69
2, 43059, Control_c, 0, 64, 70
2, 43063, Note_on_c, 0, 68, 0
2, 43064, Note_on_c, 0, 66, 69
2, 43066, Note_on_c, 0, 75, 0
2, 43073, Control_c, 0, 64, 71
2, 43079, Note_on_c, 0, 60, 0
2, 43089, Control_c, 0, 64, 72
2, 43104, Control_c, 0, 64, 73
2, 43119, Control_c, 0, 64, 74
2, 43181, Control_c, 0, 64, 73
2, 43196, Control_c, 0, 64, 69
2, 43212, Control_c, 0, 64, 59
2, 43222, Note_on_c, 0, 75, 75
2, 43223, Note_on_c, 0, 56, 55
2, 43226, Note_on_c, 0, 65, 55
2, 43227, Control_c, 0, 64, 0
2, 43286, Note_on_c, 0, 66, 0
2, 43318, Control_c, 0, 64, 34
2, 43334, Control_c, 0, 64, 62
2, 43349, Control_c, 0, 64, 65
2, 43364, Control_c, 0, 64, 67
2, 43375, Note_on_c, 0, 63, 66
2, 43379, Control_c, 0, 64, 68
2, 43385, Note_on_c, 0, 65, 0
2, 43394, Control_c, 0, 64, 70
2, 43410, Control_c, 0, 64, 72
2, 43425, Control_c, 0, 64, 73
2, 43435, Note_on_c, 0, 75, 0
2, 43470, Control_c, 0, 64, 72
2, 43485, Control_c, 0, 64, 70
2, 43485, Note_on_c, 0, 56, 0
2, 43500, Control_c, 0, 64, 64
2, 43515, Control_c, 0, 64, 27
2, 43518, Note_on_c, 0, 63, 0
2, 43531, Control_c, 0, 64, 0
2, 43532, Note_on_c, 0, 75, 76
2, 43536, Note_on_c, 0, 65, 66
2, 43539, Note_on_c, 0, 61, 63
2, 43637, Control_c, 0, 64, 29
2, 43652, Control_c, 0, 64, 60
2, 43667, Control_c, 0, 64, 64
2, 43682, Control_c, 0, 64, 65
2, 43694, Note_on_c, 0, 63, 65
2, 43697, Note_on_c, 0, 65, 0
2, 43698, Control_c, 0, 64, 67
2, 43720, Control_c, 0, 64, 68
2, 43736, Control_c, 0, 64, 69
2, 43782, Control_c, 0, 64, 69
2, 43796, Control_c, 0, 64, 66
2, 43812, Control_c, 0, 64, 51
2, 43827, Control_c, 0, 64, 0
2, 43852, Note_on_c, 0, 63, 0
2, 43859, Note_on_c, 0, 65, 65
2, 43867, Note_on_c, 0, 73, 75
2, 43871, Note_on_c, 0, 75, 0
2, 43917, Control_c, 0, 64, 39
2, 43933, Control_c, 0, 64, 63
2, 43948, Control_c, 0, 64, 65
2, 43963, Control_c, 0, 64, 67
2, 43979, Control_c, 0, 64, 70
2, 43995, Control_c, 0, 64, 72
2, 43997, Note_on_c, 0, 65, 0
2, 44011, Control_c, 0, 64, 76
2, 44011, Note_on_c, 0, 75, 82
2, 44025, Control_c, 0, 64, 79
2, 44026, Note_on_c, 0, 73, 0
2, 44027, Note_on_c, 0, 66, 67
2, 44039, Control_c, 0, 64, 80
2, 44055, Control_c, 0, 64, 81
2, 44058, Note_on_c, 0, 61, 0
2, 44082, Note_on_c, 0, 66, 0
2, 44132, Control_c, 0, 64, 78
2, 44146, Control_c, 0, 64, 72
2, 44161, Control_c, 0, 64, 59
2, 44165, Note_on_c, 0, 77, 84
2, 44176, Note_on_c, 0, 68, 66
2, 44177, Control_c, 0, 64, 0
2, 44193, Note_on_c, 0, 75, 0
2, 44253, Control_c, 0, 64, 28
2, 44268, Control_c, 0, 64, 64
2, 44283, Control_c, 0, 64, 69
2, 44298, Control_c, 0, 64, 74
2, 44313, Control_c, 0, 64, 80
2, 44315, Note_on_c, 0, 70, 69
2, 44329, Control_c, 0, 64, 84
2, 44343, Control_c, 0, 64, 86
2, 44358, Control_c, 0, 64, 87
2, 44374, Control_c, 0, 64, 88
2, 44378, Note_on_c, 0, 77, 0
2, 44411, Note_on_c, 0, 68, 0
2, 44417, Note_on_c, 0, 70, 0
2, 44434, Control_c, 0, 64, 86
2, 44450, Control_c, 0, 64, 79
2, 44465, Control_c, 0, 64, 67
2, 44471, Note_on_c, 0, 72, 73
2, 44483, Note_on_c, 0, 56, 64
2, 44483, Note_on_c, 0, 77, 82
2, 44489, Control_c, 0, 64, 0
2, 44563, Control_c, 0, 64, 63
2, 44579, Control_c, 0, 64, 69
2, 44594, Control_c, 0, 64, 74
2, 44610, Control_c, 0, 64, 78
2, 44625, Control_c, 0, 64, 81
2, 44627, Note_on_c, 0, 72, 0
2, 44633, Note_on_c, 0, 68, 75
2, 44639, Control_c, 0, 64, 84
2, 44655, Control_c, 0, 64, 85
2, 44669, Note_on_c, 0, 68, 0
2, 44670, Control_c, 0, 64, 86
2, 44683, Note_on_c, 0, 77, 0
2, 44684, Control_c, 0, 64, 86
2, 44746, Control_c, 0, 64, 86
2, 44761, Control_c, 0, 64, 85
2, 44773, Note_on_c, 0, 56, 0
2, 44777, Control_c, 0, 64, 83
2, 44792, Control_c, 0, 64, 77
2, 44795, Note_on_c, 0, 77, 83
2, 44797, Note_on_c, 0, 58, 66
2, 44806, Note_on_c, 0, 73, 66
2, 44807, Control_c, 0, 64, 70
2, 44823, Control_c, 0, 64, 60
2, 44838, Control_c, 0, 64, 0
2, 44966, Note_on_c, 0, 56, 63
2, 44967, Note_on_c, 0, 58, 0
2, 45082, Note_on_c, 0, 56, 0
2, 45095, Note_on_c, 0, 77, 0
2, 45105, Note_on_c, 0, 75, 68
2, 45109, Note_on_c, 0, 55, 59
2, 45256, Note_on_c, 0, 53, 63
2, 45263, Note_on_c, 0, 55, 0
2, 45264, Note_on_c, 0, 77, 81
2, 45266, Note_on_c, 0, 75, 0
2, 45406, Note_on_c, 0, 51, 66
2, 45406, Note_on_c, 0, 79, 79
2, 45410, Note_on_c, 0, 53, 0
2, 45413, Note_on_c, 0, 77, 0
2, 45562, Note_on_c, 0, 80, 85
2, 45569, Note_on_c, 0, 49, 65
2, 45588, Note_on_c, 0, 79, 0
2, 45593, Note_on_c, 0, 51, 0
2, 45718, Note_on_c, 0, 49, 0
2, 45724, Note_on_c, 0, 82, 85
2, 45727, Note_on_c, 0, 48, 62
2, 45739, Note_on_c, 0, 80, 0
2, 45881, Note_on_c, 0, 79, 83
2, 45883, Note_on_c, 0, 48, 0
2, 45893, Note_on_c, 0, 82, 0
2, 45938, Note_on_c, 0, 45, 29
2, 46032, Note_on_c, 0, 45, 0
2, 46076, Note_on_c, 0, 80, 85
2, 46078, Note_on_c, 0, 44, 64
2, 46079, Note_on_c, 0, 79, 0
2, 46102, Note_on_c, 0, 73, 0
2, 46251, Note_on_c, 0, 46, 69
2, 46315, Note_on_c, 0, 44, 0
2, 46384, Note_on_c, 0, 46, 0
2, 46392, Note_on_c, 0, 75, 67
2, 46404, Note_on_c, 0, 48, 59
2, 46547, Note_on_c, 0, 49, 63
2, 46553, Note_on_c, 0, 73, 66
2, 46554, Note_on_c, 0, 48, 0
2, 46591, Note_on_c, 0, 75, 0
2, 46707, Note_on_c, 0, 72, 69
2, 46719, Note_on_c, 0, 51, 60
2, 46720, Note_on_c, 0, 49, 0
2, 46731, Note_on_c, 0, 73, 0
2, 46836, Note_on_c, 0, 51, 0
2, 46869, Note_on_c, 0, 53, 59
2, 46997, Note_on_c, 0, 72, 0
2, 47013, Note_on_c, 0, 75, 75
2, 47027, Note_on_c, 0, 54, 62
2, 47028, Note_on_c, 0, 53, 0
2, 47139, Control_c, 0, 64, 44
2, 47154, Control_c, 0, 64, 67
2, 47169, Control_c, 0, 64, 71
2, 47176, Note_on_c, 0, 51, 64
2, 47184, Note_on_c, 0, 54, 0
2, 47185, Control_c, 0, 64, 74
2, 47200, Control_c, 0, 64, 75
2, 47214, Control_c, 0, 64, 76
2, 47230, Control_c, 0, 64, 77
2, 47277, Control_c, 0, 64, 76
2, 47292, Control_c, 0, 64, 75
2, 47308, Control_c, 0, 64, 73
2, 47309, Note_on_c, 0, 51, 0
2, 47322, Control_c, 0, 64, 69
2, 47330, Note_on_c, 0, 53, 65
2, 47331, Note_on_c, 0, 68, 75
2, 47338, Control_c, 0, 64, 60
2, 47338, Note_on_c, 0, 75, 0
2, 47353, Control_c, 0, 64, 39
2, 47368, Control_c, 0, 64, 18
2, 47384, Control_c, 0, 64, 19
2, 47398, Control_c, 0, 64, 24
2, 47413, Control_c, 0, 64, 19
2, 47429, Control_c, 0, 64, 0
2, 47476, Note_on_c, 0, 53, 0
2, 47477, Note_on_c, 0, 51, 64
2, 47633, Note_on_c, 0, 51, 0
2, 47643, Note_on_c, 0, 77, 73
2, 47645, Note_on_c, 0, 49, 60
2, 47649, Control_c, 0, 64, 10
2, 47710, Control_c, 0, 64, 13
2, 47724, Control_c, 0, 64, 19
2, 47739, Note_on_c, 0, 68, 0
2, 47740, Control_c, 0, 64, 21
2, 47755, Control_c, 0, 64, 22
2, 47793, Note_on_c, 0, 75, 77
2, 47798, Note_on_c, 0, 51, 61
2, 47816, Note_on_c, 0, 49, 0
2, 47818, Note_on_c, 0, 77, 0
2, 47832, Control_c, 0, 64, 24
2, 47944, Note_on_c, 0, 51, 0
2, 47956, Note_on_c, 0, 73, 79
2, 47962, Note_on_c, 0, 53, 66
2, 47984, Control_c, 0, 64, 22
2, 48003, Note_on_c, 0, 75, 0
2, 48090, Control_c, 0, 64, 24
2, 48106, Control_c, 0, 64, 30
2, 48107, Note_on_c, 0, 55, 62
2, 48111, Note_on_c, 0, 53, 0
2, 48121, Control_c, 0, 64, 39
2, 48137, Control_c, 0, 64, 48
2, 48152, Control_c, 0, 64, 52
2, 48166, Control_c, 0, 64, 53
2, 48182, Control_c, 0, 64, 53
2, 48197, Control_c, 0, 64, 52
2, 48206, Note_on_c, 0, 73, 0
2, 48211, Control_c, 0, 64, 51
2, 48227, Control_c, 0, 64, 45
2, 48242, Control_c, 0, 64, 30
2, 48244, Note_on_c, 0, 55, 0
2, 48258, Control_c, 0, 64, 0
2, 48260, Note_on_c, 0, 72, 75
2, 48264, Note_on_c, 0, 56, 66
2, 48391, Note_on_c, 0, 56, 0
2, 48409, Note_on_c, 0, 53, 64
2, 48417, Control_c, 0, 64, 29
2, 48432, Control_c, 0, 64, 64
2, 48447, Control_c, 0, 64, 68
2, 48463, Control_c, 0, 64, 70
2, 48466, Note_on_c, 0, 72, 0
2, 48478, Control_c, 0, 64, 72
2, 48492, Control_c, 0, 64, 72
2, 48554, Control_c, 0, 64, 72
2, 48565, Note_on_c, 0, 61, 66
2, 48566, Note_on_c, 0, 53, 0
2, 48569, Control_c, 0, 64, 71
2, 48570, Note_on_c, 0, 70, 73
2, 48584, Control_c, 0, 64, 68
2, 48599, Control_c, 0, 64, 64
2, 48614, Control_c, 0, 64, 52
2, 48630, Control_c, 0, 64, 30
2, 48645, Control_c, 0, 64, 26
2, 48661, Control_c, 0, 64, 27
2, 48676, Control_c, 0, 64, 24
2, 48691, Control_c, 0, 64, 0
2, 48720, Note_on_c, 0, 61, 0
2, 48737, Note_on_c, 0, 60, 66
2, 48828, Control_c, 0, 64, 10
2, 48880, Note_on_c, 0, 80, 0
2, 48889, Note_on_c, 0, 60, 0
2, 48891, Note_on_c, 0, 58, 60
2, 48899, Note_on_c, 0, 79, 69
2, 48920, Control_c, 0, 64, 0
2, 49027, Control_c, 0, 64, 16
2, 49036, Note_on_c, 0, 80, 79
2, 49038, Note_on_c, 0, 56, 65
2, 49041, Note_on_c, 0, 58, 0
2, 49042, Control_c, 0, 64, 25
2, 49057, Control_c, 0, 64, 34
2, 49072, Control_c, 0, 64, 38
2, 49074, Note_on_c, 0, 79, 0
2, 49094, Control_c, 0, 64, 38
2, 49125, Control_c, 0, 64, 38
2, 49140, Control_c, 0, 64, 33
2, 49155, Control_c, 0, 64, 22
2, 49167, Note_on_c, 0, 56, 0
2, 49170, Control_c, 0, 64, 0
2, 49189, Note_on_c, 0, 55, 64
2, 49207, Note_on_c, 0, 82, 83
2, 49244, Note_on_c, 0, 80, 0
2, 49308, Control_c, 0, 64, 66
2, 49316, Note_on_c, 0, 82, 0
2, 49323, Control_c, 0, 64, 73
2, 49337, Note_on_c, 0, 53, 63
2, 49338, Control_c, 0, 64, 78
2, 49345, Note_on_c, 0, 70, 0
2, 49353, Control_c, 0, 64, 79
2, 49358, Note_on_c, 0, 55, 0
2, 49368, Control_c, 0, 64, 80
2, 49473, Control_c, 0, 64, 79
2, 49488, Control_c, 0, 64, 79
2, 49498, Note_on_c, 0, 53, 0
2, 49504, Control_c, 0, 64, 77
2, 49509, Note_on_c, 0, 73, 79
2, 49513, Note_on_c, 0, 51, 58
2, 49513, Note_on_c, 0, 70, 72
2, 49519, Control_c, 0, 64, 75
2, 49534, Control_c, 0, 64, 72
2, 49550, Control_c, 0, 64, 67
2, 49565, Control_c, 0, 64, 63
2, 49581, Control_c, 0, 64, 60
2, 49595, Control_c, 0, 64, 60
2, 49626, Control_c, 0, 64, 60
2, 49634, Note_on_c, 0, 51, 0
2, 49641, Control_c, 0, 64, 59
2, 49652, Note_on_c, 0, 55, 56
2, 49657, Control_c, 0, 64, 59
2, 49671, Control_c, 0, 64, 58
2, 49702, Control_c, 0, 64, 57
2, 49718, Control_c, 0, 64, 54
2, 49733, Control_c, 0, 64, 52
2, 49749, Control_c, 0, 64, 51
2, 49764, Control_c, 0, 64, 52
2, 49803, Note_on_c, 0, 55, 0
2, 49810, Note_on_c, 0, 48, 62
2, 49839, Control_c, 0, 64, 52
2, 49862, Control_c, 0, 64, 54
2, 49923, Control_c, 0, 64, 54
2, 49938, Control_c, 0, 64, 55
2, 49953, Control_c, 0, 64, 56
2, 49968, Control_c, 0, 64, 56
2, 49968, Note_on_c, 0, 53, 62
2, 49984, Control_c, 0, 64, 56
2, 50004, Note_on_c, 0, 48, 0
2, 50014, Control_c, 0, 64, 56
2, 50060, Control_c, 0, 64, 56
2, 50073, Note_on_c, 0, 73, 0
2, 50124, Note_on_c, 0, 53, 0
2, 50128, Note_on_c, 0, 51, 62
2, 50133, Note_on_c, 0, 72, 61
2, 50143, Note_on_c, 0, 68, 53
2, 50151, Note_on_c, 0, 70, 0
2, 50181, Control_c, 0, 64, 56
2, 50272, Control_c, 0, 64, 57
2, 50282, Note_on_c, 0, 51, 0
2, 50287, Control_c, 0, 64, 58
2, 50291, Note_on_c, 0, 73, 62
2, 50295, Note_on_c, 0, 49, 52
2, 50302, Note_on_c, 0, 72, 0
2, 50303, Control_c, 0, 64, 58
2, 50317, Control_c, 0, 64, 59
2, 50332, Control_c, 0, 64, 58
2, 50348, Control_c, 0, 64, 57
2, 50363, Control_c, 0, 64, 56
2, 50379, Control_c, 0, 64, 53
2, 50394, Control_c, 0, 64, 39
2, 50409, Control_c, 0, 64, 0
2, 50427, Note_on_c, 0, 49, 0
2, 50447, Note_on_c, 0, 73, 0
2, 50447, Note_on_c, 0, 75, 69
2, 50452, Note_on_c, 0, 48, 57
2, 50562, Control_c, 0, 64, 41
2, 50577, Control_c, 0, 64, 66
2, 50592, Control_c, 0, 64, 72
2, 50595, Note_on_c, 0, 48, 0
2, 50605, Note_on_c, 0, 46, 56
2, 50607, Control_c, 0, 64, 75
2, 50630, Control_c, 0, 64, 76
2, 50641, Note_on_c, 0, 68, 0
2, 50645, Control_c, 0, 64, 78
2, 50649, Note_on_c, 0, 75, 0
2, 50661, Control_c, 0, 64, 79
2, 50675, Control_c, 0, 64, 80
2, 50737, Control_c, 0, 64, 77
2, 50751, Control_c, 0, 64, 66
2, 50766, Control_c, 0, 64, 0
2, 50779, Note_on_c, 0, 46, 0
2, 50782, Note_on_c, 0, 66, 70
2, 50795, Note_on_c, 0, 44, 52
2, 50800, Note_on_c, 0, 63, 51
2, 50864, Note_on_c, 0, 63, 0
2, 50864, Note_on_c, 0, 63, 5
2, 50907, Note_on_c, 0, 44, 0
2, 50927, Note_on_c, 0, 48, 51
2, 51060, Note_on_c, 0, 48, 0
2, 51098, Note_on_c, 0, 37, 59
2, 51161, Control_c, 0, 64, 59
2, 51177, Control_c, 0, 64, 64
2, 51189, Note_on_c, 0, 37, 0
2, 51192, Control_c, 0, 64, 68
2, 51207, Control_c, 0, 64, 76
2, 51223, Control_c, 0, 64, 85
2, 51237, Control_c, 0, 64, 90
2, 51243, Note_on_c, 0, 63, 0
2, 51252, Control_c, 0, 64, 91
2, 51263, Note_on_c, 0, 65, 62
2, 51268, Control_c, 0, 64, 92
2, 51283, Control_c, 0, 64, 93
2, 51295, Note_on_c, 0, 66, 0
2, 51299, Control_c, 0, 64, 96
2, 51314, Control_c, 0, 64, 98
2, 51375, Control_c, 0, 64, 97
2, 51398, Control_c, 0, 64, 92
2, 51413, Control_c, 0, 64, 83
2, 51419, Note_on_c, 0, 65, 0
2, 51429, Control_c, 0, 64, 70
2, 51431, Note_on_c, 0, 61, 60
2, 51432, Note_on_c, 0, 67, 62
2, 51441, Note_on_c, 0, 53, 56
2, 51444, Control_c, 0, 64, 0
2, 51550, Control_c, 0, 64, 59
2, 51565, Control_c, 0, 64, 68
2, 51571, Note_on_c, 0, 61, 0
2, 51580, Note_on_c, 0, 60, 62
2, 51581, Control_c, 0, 64, 73
2, 51581, Note_on_c, 0, 68, 65
2, 51595, Control_c, 0, 64, 78
2, 51595, Note_on_c, 0, 53, 0
2, 51610, Control_c, 0, 64, 81
2, 51626, Control_c, 0, 64, 82
2, 51641, Control_c, 0, 64, 83
2, 51657, Control_c, 0, 64, 83
2, 51682, Note_on_c, 0, 60, 0
2, 51690, Note_on_c, 0, 67, 0
2, 51702, Control_c, 0, 64, 82
2, 51717, Control_c, 0, 64, 79
2, 51727, Note_on_c, 0, 58, 68
2, 51732, Control_c, 0, 64, 72
2, 51739, Note_on_c, 0, 70, 69
2, 51741, Note_on_c, 0, 49, 63
2, 51748, Control_c, 0, 64, 57
2, 51763, Control_c, 0, 64, 0
2, 51879, Note_on_c, 0, 56, 71
2, 51885, Control_c, 0, 64, 60
2, 51891, Note_on_c, 0, 68, 0
2, 51891, Note_on_c, 0, 72, 74
2, 51894, Note_on_c, 0, 58, 0
2, 51901, Control_c, 0, 64, 64
2, 51913, Note_on_c, 0, 70, 0
2, 51929, Note_on_c, 0, 49, 0
2, 51977, Control_c, 0, 64, 64
2, 51992, Control_c, 0, 64, 63
2, 52006, Control_c, 0, 64, 61
2, 52022, Control_c, 0, 64, 55
2, 52037, Control_c, 0, 64, 46
2, 52049, Note_on_c, 0, 56, 0
2, 52051, Control_c, 0, 64, 0
2, 52055, Note_on_c, 0, 51, 66
2, 52057, Note_on_c, 0, 73, 69
2, 52059, Note_on_c, 0, 55, 62
2, 52082, Note_on_c, 0, 72, 0
2, 52227, Note_on_c, 0, 58, 67
2, 52228, Control_c, 0, 64, 61
2, 52228, Note_on_c, 0, 70, 66
2, 52243, Control_c, 0, 64, 65
2, 52259, Control_c, 0, 64, 66
2, 52262, Note_on_c, 0, 55, 0
2, 52289, Control_c, 0, 64, 67
2, 52305, Control_c, 0, 64, 68
2, 52328, Note_on_c, 0, 73, 0
2, 52364, Control_c, 0, 64, 67
2, 52379, Note_on_c, 0, 51, 0
2, 52380, Control_c, 0, 64, 67
2, 52395, Control_c, 0, 64, 66
2, 52410, Control_c, 0, 64, 64
2, 52426, Control_c, 0, 64, 61
2, 52440, Control_c, 0, 64, 57
2, 52445, Note_on_c, 0, 72, 67
2, 52446, Note_on_c, 0, 56, 70
2, 52455, Control_c, 0, 64, 52
2, 52467, Note_on_c, 0, 70, 0
2, 52468, Note_on_c, 0, 58, 0
2, 52471, Control_c, 0, 64, 45
2, 52485, Control_c, 0, 64, 36
2, 52501, Control_c, 0, 64, 25
2, 52516, Control_c, 0, 64, 0
2, 52610, Note_on_c, 0, 56, 0
2, 52623, Note_on_c, 0, 55, 63
2, 52629, Note_on_c, 0, 63, 56
2, 52781, Note_on_c, 0, 63, 0
2, 52784, Note_on_c, 0, 53, 57
2, 52788, Note_on_c, 0, 65, 56
2, 52794, Note_on_c, 0, 55, 0
2, 52934, Note_on_c, 0, 53, 0
2, 52941, Note_on_c, 0, 65, 0
2, 52944, Note_on_c, 0, 67, 60
2, 52945, Note_on_c, 0, 51, 61
2, 53077, Note_on_c, 0, 72, 0
2, 53097, Note_on_c, 0, 51, 0
2, 53106, Note_on_c, 0, 68, 66
2, 53115, Note_on_c, 0, 53, 62
2, 53147, Note_on_c, 0, 67, 0
2, 53270, Note_on_c, 0, 70, 65
2, 53292, Note_on_c, 0, 68, 0
2, 53342, Note_on_c, 0, 53, 0
2, 53424, Note_on_c, 0, 70, 0
2, 53427, Note_on_c, 0, 48, 61
2, 53427, Note_on_c, 0, 72, 60
2, 53556, Note_on_c, 0, 72, 0
2, 53582, Note_on_c, 0, 68, 60
2, 53636, Note_on_c, 0, 48, 0
2, 53738, Note_on_c, 0, 77, 64
2, 53743, Note_on_c, 0, 49, 65
2, 53752, Note_on_c, 0, 68, 0
2, 53898, Note_on_c, 0, 75, 59
2, 53975, Note_on_c, 0, 49, 0
2, 54046, Note_on_c, 0, 46, 63
2, 54060, Note_on_c, 0, 73, 59
2, 54079, Note_on_c, 0, 77, 0
2, 54085, Note_on_c, 0, 75, 0
2, 54206, Note_on_c, 0, 73, 0
2, 54214, Note_on_c, 0, 72, 59
2, 54273, Note_on_c, 0, 46, 0
2, 54361, Note_on_c, 0, 43, 52
2, 54367, Note_on_c, 0, 70, 58
2, 54368, Note_on_c, 0, 72, 0
2, 54529, Note_on_c, 0, 68, 59
2, 54537, Note_on_c, 0, 70, 0
2, 54587, Note_on_c, 0, 43, 0
2, 54665, Note_on_c, 0, 68, 0
2, 54680, Note_on_c, 0, 51, 59
2, 54699, Note_on_c, 0, 67, 52
2, 54836, Note_on_c, 0, 70, 57
2, 54900, Note_on_c, 0, 67, 0
2, 54926, Note_on_c, 0, 51, 0
2, 55002, Note_on_c, 0, 63, 61
2, 55023, Note_on_c, 0, 48, 47
2, 55038, Note_on_c, 0, 70, 0
2, 55078, Control_c, 0, 64, 10
2, 55092, Control_c, 0, 64, 44
2, 55108, Control_c, 0, 64, 56
2, 55123, Control_c, 0, 64, 60
2, 55139, Control_c, 0, 64, 62
2, 55154, Control_c, 0, 64, 62
2, 55167, Control_c, 0, 64, 63
2, 55167, Note_on_c, 0, 46, 56
2, 55182, Control_c, 0, 64, 63
2, 55197, Note_on_c, 0, 48, 0
2, 55198, Control_c, 0, 64, 64
2, 55250, Control_c, 0, 64, 63
2, 55266, Control_c, 0, 64, 62
2, 55281, Control_c, 0, 64, 57
2, 55296, Control_c, 0, 64, 30
2, 55311, Control_c, 0, 64, 0
2, 55311, Note_on_c, 0, 46, 0
2, 55338, Note_on_c, 0, 44, 48
2, 55375, Note_on_c, 0, 57, 45
2, 55414, Note_on_c, 0, 57, 0
2, 55448, Control_c, 0, 64, 60
2, 55464, Control_c, 0, 64, 65
2, 55479, Control_c, 0, 64, 67
2, 55482, Note_on_c, 0, 46, 54
2, 55494, Control_c, 0, 64, 69
2, 55510, Control_c, 0, 64, 70
2, 55525, Control_c, 0, 64, 71
2, 55547, Note_on_c, 0, 44, 0
2, 55566, Note_on_c, 0, 63, 0
2, 55571, Control_c, 0, 64, 68
2, 55586, Control_c, 0, 64, 59
2, 55601, Control_c, 0, 64, 0
2, 55650, Note_on_c, 0, 63, 58
2, 55652, Note_on_c, 0, 48, 54
2, 55681, Note_on_c, 0, 46, 0
2, 55708, Control_c, 0, 64, 51
2, 55723, Control_c, 0, 64, 65
2, 55738, Control_c, 0, 64, 69
2, 55752, Note_on_c, 0, 48, 0
2, 55754, Control_c, 0, 64, 71
2, 55769, Control_c, 0, 64, 72
2, 55784, Control_c, 0, 64, 74
2, 55796, Note_on_c, 0, 50, 55
2, 55799, Control_c, 0, 64, 75
2, 55837, Note_on_c, 0, 63, 0
2, 55859, Control_c, 0, 64, 73
2, 55875, Control_c, 0, 64, 66
2, 55890, Control_c, 0, 64, 34
2, 55906, Control_c, 0, 64, 0
2, 55944, Note_on_c, 0, 51, 57
2, 55948, Note_on_c, 0, 66, 60
2, 55951, Note_on_c, 0, 50, 0
2, 55960, Note_on_c, 0, 63, 61
2, 56019, Control_c, 0, 64, 55
2, 56035, Control_c, 0, 64, 67
2, 56050, Control_c, 0, 64, 72
2, 56066, Control_c, 0, 64, 75
2, 56077, Note_on_c, 0, 63, 0
2, 56080, Control_c, 0, 64, 77
2, 56085, Note_on_c, 0, 51, 0
2, 56092, Note_on_c, 0, 48, 61
2, 56095, Control_c, 0, 64, 77
2, 56125, Note_on_c, 0, 66, 0
2, 56171, Control_c, 0, 64, 77
2, 56187, Control_c, 0, 64, 75
2, 56201, Control_c, 0, 64, 73
2, 56216, Control_c, 0, 64, 68
2, 56232, Control_c, 0, 64, 63
2, 56247, Control_c, 0, 64, 53
2, 56253, Note_on_c, 0, 48, 0
2, 56262, Control_c, 0, 64, 47
2, 56274, Note_on_c, 0, 65, 70
2, 56279, Control_c, 0, 64, 46
2, 56287, Note_on_c, 0, 50, 52
2, 56288, Note_on_c, 0, 63, 56
2, 56294, Control_c, 0, 64, 44
2, 56309, Control_c, 0, 64, 38
2, 56324, Control_c, 0, 64, 24
2, 56339, Control_c, 0, 64, 0
2, 56433, Note_on_c, 0, 48, 53
2, 56443, Note_on_c, 0, 50, 0
2, 56577, Note_on_c, 0, 48, 0
2, 56590, Note_on_c, 0, 63, 0
2, 56598, Note_on_c, 0, 70, 64
2, 56602, Note_on_c, 0, 46, 54
2, 56605, Note_on_c, 0, 62, 54
2, 56654, Note_on_c, 0, 65, 0
2, 56739, Note_on_c, 0, 48, 57
2, 56746, Note_on_c, 0, 46, 0
2, 56747, Note_on_c, 0, 62, 0
2, 56754, Note_on_c, 0, 63, 66
2, 56890, Note_on_c, 0, 48, 0
2, 56908, Note_on_c, 0, 65, 73
2, 56911, Note_on_c, 0, 63, 0
2, 56918, Note_on_c, 0, 50, 62
2, 56969, Control_c, 0, 64, 51
2, 56985, Control_c, 0, 64, 64
2, 57000, Control_c, 0, 64, 67
2, 57015, Control_c, 0, 64, 69
2, 57031, Control_c, 0, 64, 71
2, 57045, Control_c, 0, 64, 73
2, 57060, Control_c, 0, 64, 74
2, 57072, Note_on_c, 0, 51, 35
2, 57096, Note_on_c, 0, 65, 0
2, 57107, Note_on_c, 0, 70, 0
2, 57125, Note_on_c, 0, 51, 0
2, 57136, Control_c, 0, 64, 72
2, 57151, Control_c, 0, 64, 68
2, 57166, Control_c, 0, 64, 62
2, 57173, Note_on_c, 0, 50, 0
2, 57181, Control_c, 0, 64, 19
2, 57197, Control_c, 0, 64, 0
2, 57211, Note_on_c, 0, 68, 79
2, 57219, Note_on_c, 0, 65, 70
2, 57225, Note_on_c, 0, 53, 62
2, 57319, Control_c, 0, 64, 64
2, 57334, Control_c, 0, 64, 70
2, 57349, Control_c, 0, 64, 75
2, 57364, Control_c, 0, 64, 78
2, 57364, Note_on_c, 0, 53, 0
2, 57376, Note_on_c, 0, 50, 66
2, 57379, Control_c, 0, 64, 79
2, 57394, Control_c, 0, 64, 80
2, 57409, Control_c, 0, 64, 80
2, 57413, Note_on_c, 0, 65, 0
2, 57485, Control_c, 0, 64, 80
2, 57500, Control_c, 0, 64, 79
2, 57516, Control_c, 0, 64, 77
2, 57536, Note_on_c, 0, 50, 0
2, 57539, Control_c, 0, 64, 75
2, 57546, Note_on_c, 0, 51, 67
2, 57546, Note_on_c, 0, 66, 80
2, 57548, Note_on_c, 0, 65, 74
2, 57554, Control_c, 0, 64, 71
2, 57569, Control_c, 0, 64, 66
2, 57585, Control_c, 0, 64, 59
2, 57595, Note_on_c, 0, 68, 0
2, 57600, Control_c, 0, 64, 48
2, 57614, Control_c, 0, 64, 42
2, 57630, Control_c, 0, 64, 41
2, 57645, Control_c, 0, 64, 35
2, 57660, Control_c, 0, 64, 13
2, 57673, Note_on_c, 0, 51, 0
2, 57676, Control_c, 0, 64, 0
2, 57690, Note_on_c, 0, 53, 67
2, 57835, Note_on_c, 0, 65, 0
2, 57857, Note_on_c, 0, 54, 61
2, 57865, Note_on_c, 0, 53, 0
2, 57873, Note_on_c, 0, 63, 63
2, 57873, Note_on_c, 0, 71, 70
2, 57905, Note_on_c, 0, 66, 0
2, 57996, Note_on_c, 0, 54, 0
2, 58014, Note_on_c, 0, 53, 62
2, 58014, Note_on_c, 0, 63, 0
2, 58025, Note_on_c, 0, 65, 72
2, 58175, Note_on_c, 0, 53, 0
2, 58177, Note_on_c, 0, 51, 61
2, 58183, Note_on_c, 0, 66, 78
2, 58200, Note_on_c, 0, 71, 0
2, 58218, Note_on_c, 0, 65, 0
2, 58286, Control_c, 0, 64, 50
2, 58309, Control_c, 0, 64, 65
2, 58324, Control_c, 0, 64, 69
2, 58327, Note_on_c, 0, 49, 69
2, 58340, Control_c, 0, 64, 73
2, 58351, Note_on_c, 0, 51, 0
2, 58351, Note_on_c, 0, 66, 0
2, 58355, Control_c, 0, 64, 75
2, 58370, Control_c, 0, 64, 76
2, 58386, Control_c, 0, 64, 77
2, 58459, Note_on_c, 0, 49, 0
2, 58461, Control_c, 0, 64, 76
2, 58476, Control_c, 0, 64, 73
2, 58491, Control_c, 0, 64, 66
2, 58495, Note_on_c, 0, 47, 67
2, 58495, Note_on_c, 0, 66, 77
2, 58497, Note_on_c, 0, 70, 78
2, 58507, Control_c, 0, 64, 40
2, 58522, Control_c, 0, 64, 0
2, 58615, Control_c, 0, 64, 60
2, 58620, Note_on_c, 0, 47, 0
2, 58631, Control_c, 0, 64, 68
2, 58634, Note_on_c, 0, 46, 70
2, 58646, Control_c, 0, 64, 72
2, 58661, Control_c, 0, 64, 74
2, 58676, Control_c, 0, 64, 75
2, 58692, Control_c, 0, 64, 75
2, 58697, Note_on_c, 0, 66, 0
2, 58746, Note_on_c, 0, 70, 0
2, 58748, Note_on_c, 0, 46, 0
2, 58754, Control_c, 0, 64, 75
2, 58768, Control_c, 0, 64, 74
2, 58784, Control_c, 0, 64, 71
2, 58799, Control_c, 0, 64, 67
2, 58803, Note_on_c, 0, 47, 68
2, 58810, Note_on_c, 0, 68, 80
2, 58815, Control_c, 0, 64, 60
2, 58815, Note_on_c, 0, 66, 80
2, 58830, Control_c, 0, 64, 48
2, 58844, Control_c, 0, 64, 47
2, 58875, Control_c, 0, 64, 45
2, 58890, Control_c, 0, 64, 38
2, 58905, Control_c, 0, 64, 33
2, 58936, Control_c, 0, 64, 35
2, 58956, Note_on_c, 0, 51, 74
2, 59012, Control_c, 0, 64, 36
2, 59015, Note_on_c, 0, 47, 0
2, 59027, Control_c, 0, 64, 38
2, 59042, Control_c, 0, 64, 38
2, 59106, Note_on_c, 0, 51, 0
2, 59118, Note_on_c, 0, 66, 0
2, 59123, Note_on_c, 0, 49, 67
2, 59125, Control_c, 0, 64, 39
2, 59125, Note_on_c, 0, 65, 76
2, 59131, Note_on_c, 0, 73, 74
2, 59143, Control_c, 0, 64, 39
2, 59149, Note_on_c, 0, 68, 0
2, 59188, Control_c, 0, 64, 42
2, 59204, Control_c, 0, 64, 45
2, 59219, Control_c, 0, 64, 47
2, 59259, Note_on_c, 0, 49, 0
2, 59264, Control_c, 0, 64, 48
2, 59268, Note_on_c, 0, 47, 66
2, 59279, Control_c, 0, 64, 49
2, 59292, Note_on_c, 0, 66, 76
2, 59310, Control_c, 0, 64, 48
2, 59316, Note_on_c, 0, 65, 0
2, 59326, Control_c, 0, 64, 47
2, 59341, Control_c, 0, 64, 45
2, 59356, Control_c, 0, 64, 42
2, 59372, Control_c, 0, 64, 32
2, 59386, Control_c, 0, 64, 0
2, 59448, Note_on_c, 0, 46, 65
2, 59448, Note_on_c, 0, 47, 0
2, 59450, Note_on_c, 0, 68, 76
2, 59469, Note_on_c, 0, 66, 0
2, 59477, Note_on_c, 0, 73, 0
2, 59554, Control_c, 0, 64, 64
2, 59570, Control_c, 0, 64, 70
2, 59585, Control_c, 0, 64, 73
2, 59600, Control_c, 0, 64, 75
2, 59609, Note_on_c, 0, 44, 66
2, 59615, Control_c, 0, 64, 76
2, 59625, Note_on_c, 0, 68, 0
2, 59630, Control_c, 0, 64, 76
2, 59638, Note_on_c, 0, 46, 0
2, 59691, Control_c, 0, 64, 76
2, 59706, Control_c, 0, 64, 75
2, 59721, Control_c, 0, 64, 73
2, 59736, Control_c, 0, 64, 69
2, 59750, Note_on_c, 0, 44, 0
2, 59751, Control_c, 0, 64, 64
2, 59767, Control_c, 0, 64, 58
2, 59778, Note_on_c, 0, 42, 62
2, 59781, Note_on_c, 0, 71, 74
2, 59782, Control_c, 0, 64, 52
2, 59789, Note_on_c, 0, 68, 66
2, 59827, Control_c, 0, 64, 51
2, 59851, Control_c, 0, 64, 47
2, 59865, Control_c, 0, 64, 45
2, 59896, Control_c, 0, 64, 47
2, 59911, Control_c, 0, 64, 48
2, 59927, Control_c, 0, 64, 47
2, 59938, Note_on_c, 0, 42, 0
2, 59941, Control_c, 0, 64, 47
2, 59947, Note_on_c, 0, 41, 59
2, 59987, Control_c, 0, 64, 47
2, 60017, Control_c, 0, 64, 47
2, 60077, Control_c, 0, 64, 46
2, 60108, Control_c, 0, 64, 46
2, 60139, Control_c, 0, 64, 46
2, 60144, Note_on_c, 0, 41, 0
2, 60146, Note_on_c, 0, 70, 63
2, 60152, Note_on_c, 0, 42, 60
2, 60154, Control_c, 0, 64, 46
2, 60169, Control_c, 0, 64, 44
2, 60184, Control_c, 0, 64, 44
2, 60193, Note_on_c, 0, 68, 0
2, 60245, Control_c, 0, 64, 42
2, 60260, Control_c, 0, 64, 40
2, 60265, Note_on_c, 0, 71, 0
2, 60274, Control_c, 0, 64, 38
2, 60290, Control_c, 0, 64, 38
2, 60305, Control_c, 0, 64, 37
2, 60320, Control_c, 0, 64, 36
2, 60326, Note_on_c, 0, 68, 70
2, 60336, Control_c, 0, 64, 34
2, 60350, Control_c, 0, 64, 26
2, 60366, Control_c, 0, 64, 13
2, 60382, Control_c, 0, 64, 0
2, 60458, Note_on_c, 0, 42, 0
2, 60486, Note_on_c, 0, 66, 68
2, 60491, Note_on_c, 0, 44, 54
2, 60554, Note_on_c, 0, 68, 0
2, 60650, Note_on_c, 0, 65, 71
2, 60655, Note_on_c, 0, 70, 0
2, 60673, Note_on_c, 0, 66, 0
2, 60741, Note_on_c, 0, 44, 0
2, 60803, Note_on_c, 0, 46, 54
2, 60809, Note_on_c, 0, 66, 70
2, 60821, Note_on_c, 0, 65, 0
2, 60949, Note_on_c, 0, 46, 0
2, 60950, Note_on_c, 0, 42, 53
2, 61069, Note_on_c, 0, 66, 0
2, 61089, Note_on_c, 0, 42, 0
2, 61113, Note_on_c, 0, 44, 53
2, 61120, Note_on_c, 0, 61, 64
2, 61265, Note_on_c, 0, 46, 60
2, 61276, Note_on_c, 0, 44, 0
2, 61358, Note_on_c, 0, 61, 0
2, 61396, Note_on_c, 0, 46, 0
2, 61428, Note_on_c, 0, 47, 50
2, 61430, Note_on_c, 0, 63, 68
2, 61576, Note_on_c, 0, 49, 57
2, 61579, Note_on_c, 0, 47, 0
2, 61706, Note_on_c, 0, 63, 0
2, 61748, Note_on_c, 0, 49, 0
2, 61750, Note_on_c, 0, 51, 49
2, 61752, Note_on_c, 0, 59, 65
2, 61894, Note_on_c, 0, 51, 0
2, 61901, Note_on_c, 0, 47, 50
2, 62013, Note_on_c, 0, 59, 0
2, 62058, Note_on_c, 0, 47, 0
2, 62062, Note_on_c, 0, 56, 63
2, 62067, Note_on_c, 0, 49, 49
2, 62199, Control_c, 0, 64, 40
2, 62212, Note_on_c, 0, 49, 0
2, 62213, Control_c, 0, 64, 62
2, 62222, Note_on_c, 0, 51, 49
2, 62228, Control_c, 0, 64, 66
2, 62243, Control_c, 0, 64, 67
2, 62259, Control_c, 0, 64, 69
2, 62273, Control_c, 0, 64, 70
2, 62288, Control_c, 0, 64, 71
2, 62304, Control_c, 0, 64, 72
2, 62319, Control_c, 0, 64, 71
2, 62335, Control_c, 0, 64, 66
2, 62335, Note_on_c, 0, 51, 0
2, 62345, Note_on_c, 0, 56, 0
2, 62350, Control_c, 0, 64, 44
2, 62365, Control_c, 0, 64, 0
2, 62374, Note_on_c, 0, 61, 62
2, 62378, Note_on_c, 0, 53, 51
2, 62441, Control_c, 0, 64, 34
2, 62457, Control_c, 0, 64, 65
2, 62471, Control_c, 0, 64, 71
2, 62486, Control_c, 0, 64, 75
2, 62502, Control_c, 0, 64, 77
2, 62502, Note_on_c, 0, 53, 0
2, 62515, Note_on_c, 0, 49, 52
2, 62517, Control_c, 0, 64, 79
2, 62532, Control_c, 0, 64, 79
2, 62547, Control_c, 0, 64, 80
2, 62607, Control_c, 0, 64, 79
2, 62623, Control_c, 0, 64, 78
2, 62637, Note_on_c, 0, 61, 0
2, 62638, Control_c, 0, 64, 75
2, 62653, Control_c, 0, 64, 68
2, 62668, Control_c, 0, 64, 61
2, 62672, Note_on_c, 0, 49, 0
2, 62683, Control_c, 0, 64, 50
2, 62690, Note_on_c, 0, 58, 59
2, 62699, Control_c, 0, 64, 49
2, 62704, Note_on_c, 0, 54, 50
2, 62730, Control_c, 0, 64, 47
2, 62745, Control_c, 0, 64, 41
2, 62759, Control_c, 0, 64, 32
2, 62775, Control_c, 0, 64, 30
2, 62790, Control_c, 0, 64, 32
2, 62805, Control_c, 0, 64, 34
2, 62823, Note_on_c, 0, 54, 0
2, 62839, Note_on_c, 0, 56, 50
2, 62947, Control_c, 0, 64, 32
2, 62961, Control_c, 0, 64, 28
2, 62976, Control_c, 0, 64, 21
2, 62986, Note_on_c, 0, 54, 49
2, 62992, Control_c, 0, 64, 10
2, 63000, Note_on_c, 0, 73, 63
2, 63007, Control_c, 0, 64, 0
2, 63021, Note_on_c, 0, 56, 0
2, 63098, Control_c, 0, 64, 30
2, 63113, Control_c, 0, 64, 38
2, 63115, Note_on_c, 0, 54, 0
2, 63128, Control_c, 0, 64, 44
2, 63144, Control_c, 0, 64, 51
2, 63145, Note_on_c, 0, 53, 52
2, 63159, Control_c, 0, 64, 56
2, 63174, Control_c, 0, 64, 60
2, 63190, Control_c, 0, 64, 62
2, 63220, Control_c, 0, 64, 61
2, 63250, Control_c, 0, 64, 59
2, 63252, Note_on_c, 0, 53, 0
2, 63266, Control_c, 0, 64, 54
2, 63281, Control_c, 0, 64, 37
2, 63295, Control_c, 0, 64, 0
2, 63305, Note_on_c, 0, 78, 73
2, 63309, Note_on_c, 0, 51, 52
2, 63330, Note_on_c, 0, 73, 0
2, 63389, Note_on_c, 0, 58, 0
2, 63417, Control_c, 0, 64, 39
2, 63433, Control_c, 0, 64, 64
2, 63447, Control_c, 0, 64, 67
2, 63452, Note_on_c, 0, 51, 0
2, 63455, Note_on_c, 0, 53, 57
2, 63462, Control_c, 0, 64, 68
2, 63478, Control_c, 0, 64, 70
2, 63492, Control_c, 0, 64, 72
2, 63497, Note_on_c, 0, 78, 0
2, 63508, Control_c, 0, 64, 74
2, 63523, Control_c, 0, 64, 75
2, 63538, Control_c, 0, 64, 75
2, 63584, Control_c, 0, 64, 74
2, 63592, Note_on_c, 0, 53, 0
2, 63599, Control_c, 0, 64, 72
2, 63614, Control_c, 0, 64, 65
2, 63619, Note_on_c, 0, 54, 55
2, 63627, Note_on_c, 0, 78, 71
2, 63630, Control_c, 0, 64, 0
2, 63633, Note_on_c, 0, 70, 62
2, 63746, Control_c, 0, 64, 64
2, 63760, Control_c, 0, 64, 69
2, 63764, Note_on_c, 0, 54, 0
2, 63773, Note_on_c, 0, 51, 55
2, 63775, Control_c, 0, 64, 72
2, 63791, Control_c, 0, 64, 73
2, 63805, Control_c, 0, 64, 74
2, 63820, Control_c, 0, 64, 74
2, 63825, Note_on_c, 0, 78, 0
2, 63851, Control_c, 0, 64, 75
2, 63912, Control_c, 0, 64, 74
2, 63927, Control_c, 0, 64, 71
2, 63941, Control_c, 0, 64, 68
2, 63957, Control_c, 0, 64, 64
2, 63972, Control_c, 0, 64, 60
2, 63972, Note_on_c, 0, 56, 49
2, 63972, Note_on_c, 0, 70, 0
2, 63972, Note_on_c, 0, 78, 70
2, 63973, Note_on_c, 0, 71, 57
2, 63988, Control_c, 0, 64, 57
2, 64002, Control_c, 0, 64, 56
2, 64017, Control_c, 0, 64, 53
2, 64033, Control_c, 0, 64, 49
2, 64048, Control_c, 0, 64, 41
2, 64054, Note_on_c, 0, 51, 0
2, 64064, Control_c, 0, 64, 29
2, 64078, Control_c, 0, 64, 18
2, 64101, Note_on_c, 0, 56, 0
2, 64109, Control_c, 0, 64, 19
2, 64126, Note_on_c, 0, 58, 52
2, 64138, Control_c, 0, 64, 13
2, 64154, Control_c, 0, 64, 0
2, 64280, Note_on_c, 0, 56, 51
2, 64284, Note_on_c, 0, 78, 0
2, 64289, Note_on_c, 0, 77, 62
2, 64301, Note_on_c, 0, 58, 0
2, 64448, Note_on_c, 0, 54, 49
2, 64449, Note_on_c, 0, 56, 0
2, 64462, Note_on_c, 0, 78, 72
2, 64476, Note_on_c, 0, 77, 0
2, 64577, Note_on_c, 0, 54, 0
2, 64612, Note_on_c, 0, 80, 80
2, 64615, Note_on_c, 0, 53, 52
2, 64633, Note_on_c, 0, 78, 0
2, 64690, Note_on_c, 0, 71, 0
2, 64724, Control_c, 0, 64, 60
2, 64739, Control_c, 0, 64, 68
2, 64745, Note_on_c, 0, 53, 0
2, 64755, Control_c, 0, 64, 71
2, 64757, Note_on_c, 0, 54, 58
2, 64770, Control_c, 0, 64, 74
2, 64786, Control_c, 0, 64, 75
2, 64801, Control_c, 0, 64, 77
2, 64806, Note_on_c, 0, 80, 0
2, 64816, Control_c, 0, 64, 78
2, 64831, Control_c, 0, 64, 78
2, 64877, Control_c, 0, 64, 78
2, 64892, Control_c, 0, 64, 75
2, 64908, Control_c, 0, 64, 68
2, 64917, Note_on_c, 0, 80, 75
2, 64919, Note_on_c, 0, 56, 58
2, 64920, Note_on_c, 0, 54, 0
2, 64923, Control_c, 0, 64, 48
2, 64923, Note_on_c, 0, 71, 59
2, 64937, Control_c, 0, 64, 0
2, 65029, Control_c, 0, 64, 57
2, 65044, Control_c, 0, 64, 67
2, 65047, Note_on_c, 0, 56, 0
2, 65058, Control_c, 0, 64, 71
2, 65073, Note_on_c, 0, 53, 56
2, 65074, Control_c, 0, 64, 74
2, 65089, Control_c, 0, 64, 77
2, 65104, Control_c, 0, 64, 78
2, 65109, Note_on_c, 0, 80, 0
2, 65119, Control_c, 0, 64, 79
2, 65179, Control_c, 0, 64, 78
2, 65195, Control_c, 0, 64, 75
2, 65218, Control_c, 0, 64, 70
2, 65224, Note_on_c, 0, 53, 0
2, 65234, Control_c, 0, 64, 62
2, 65241, Note_on_c, 0, 80, 73
2, 65244, Note_on_c, 0, 50, 55
2, 65247, Note_on_c, 0, 71, 0
2, 65248, Note_on_c, 0, 70, 70
2, 65249, Control_c, 0, 64, 43
2, 65264, Control_c, 0, 64, 19
2, 65279, Control_c, 0, 64, 0
2, 65402, Note_on_c, 0, 50, 0
2, 65403, Note_on_c, 0, 46, 56
2, 65544, Note_on_c, 0, 46, 0
2, 65561, Note_on_c, 0, 48, 61
2, 65571, Note_on_c, 0, 78, 74
2, 65652, Note_on_c, 0, 80, 0
2, 65699, Note_on_c, 0, 48, 0
2, 65713, Note_on_c, 0, 77, 77
2, 65718, Note_on_c, 0, 50, 60
2, 65730, Note_on_c, 0, 78, 0
2, 65773, Note_on_c, 0, 70, 0
2, 65874, Note_on_c, 0, 50, 0
2, 65881, Note_on_c, 0, 51, 61
2, 65882, Note_on_c, 0, 78, 79
2, 65895, Note_on_c, 0, 77, 0
2, 66002, Control_c, 0, 64, 47
2, 66006, Note_on_c, 0, 51, 0
2, 66017, Control_c, 0, 64, 62
2, 66033, Control_c, 0, 64, 66
2, 66036, Note_on_c, 0, 53, 65
2, 66048, Control_c, 0, 64, 66
2, 66064, Control_c, 0, 64, 66
2, 66125, Control_c, 0, 64, 65
2, 66139, Control_c, 0, 64, 63
2, 66155, Control_c, 0, 64, 55
2, 66170, Control_c, 0, 64, 0
2, 66188, Note_on_c, 0, 53, 0
2, 66195, Note_on_c, 0, 54, 61
2, 66204, Note_on_c, 0, 75, 75
2, 66323, Control_c, 0, 64, 62
2, 66337, Control_c, 0, 64, 67
2, 66348, Note_on_c, 0, 51, 64
2, 66353, Control_c, 0, 64, 71
2, 66368, Control_c, 0, 64, 76
2, 66382, Control_c, 0, 64, 81
2, 66398, Control_c, 0, 64, 83
2, 66413, Control_c, 0, 64, 84
2, 66474, Control_c, 0, 64, 81
2, 66489, Control_c, 0, 64, 73
2, 66495, Note_on_c, 0, 51, 0
2, 66504, Note_on_c, 0, 54, 0
2, 66505, Control_c, 0, 64, 58
2, 66513, Note_on_c, 0, 59, 66
2, 66519, Note_on_c, 0, 68, 78
2, 66520, Control_c, 0, 64, 0
2, 66562, Note_on_c, 0, 75, 0
2, 66595, Control_c, 0, 64, 58
2, 66610, Control_c, 0, 64, 67
2, 66626, Control_c, 0, 64, 71
2, 66641, Control_c, 0, 64, 75
2, 66656, Control_c, 0, 64, 77
2, 66662, Note_on_c, 0, 58, 70
2, 66672, Control_c, 0, 64, 79
2, 66681, Note_on_c, 0, 59, 0
2, 66687, Control_c, 0, 64, 80
2, 66702, Note_on_c, 0, 68, 0
2, 66800, Control_c, 0, 64, 79
2, 66815, Control_c, 0, 64, 77
2, 66831, Control_c, 0, 64, 73
2, 66831, Note_on_c, 0, 56, 74
2, 66845, Note_on_c, 0, 83, 74
2, 66846, Control_c, 0, 64, 69
2, 66849, Note_on_c, 0, 58, 0
2, 66861, Control_c, 0, 64, 64
2, 66871, Note_on_c, 0, 78, 0
2, 66877, Control_c, 0, 64, 58
2, 66892, Control_c, 0, 64, 57
2, 66923, Control_c, 0, 64, 56
2, 66938, Control_c, 0, 64, 52
2, 66954, Control_c, 0, 64, 48
2, 66969, Control_c, 0, 64, 46
2, 66984, Control_c, 0, 64, 47
2, 66986, Note_on_c, 0, 58, 72
2, 66993, Note_on_c, 0, 82, 78
2, 66999, Control_c, 0, 64, 48
2, 67021, Note_on_c, 0, 83, 0
2, 67045, Control_c, 0, 64, 48
2, 67060, Control_c, 0, 64, 49
2, 67065, Note_on_c, 0, 56, 0
2, 67075, Control_c, 0, 64, 50
2, 67090, Control_c, 0, 64, 49
2, 67106, Control_c, 0, 64, 49
2, 67152, Control_c, 0, 64, 48
2, 67158, Note_on_c, 0, 59, 72
2, 67160, Note_on_c, 0, 80, 75
2, 67167, Control_c, 0, 64, 44
2, 67172, Note_on_c, 0, 82, 0
2, 67181, Control_c, 0, 64, 32
2, 67190, Note_on_c, 0, 58, 0
2, 67197, Control_c, 0, 64, 0
2, 67320, Note_on_c, 0, 78, 73
2, 67329, Note_on_c, 0, 80, 0
2, 67378, Control_c, 0, 64, 33
2, 67394, Control_c, 0, 64, 63
2, 67409, Control_c, 0, 64, 67
2, 67425, Control_c, 0, 64, 69
2, 67439, Control_c, 0, 64, 69
2, 67470, Control_c, 0, 64, 70
2, 67470, Note_on_c, 0, 78, 0
2, 67484, Note_on_c, 0, 68, 74
2, 67485, Note_on_c, 0, 77, 62
2, 67500, Control_c, 0, 64, 68
2, 67523, Control_c, 0, 64, 64
2, 67538, Control_c, 0, 64, 47
2, 67554, Control_c, 0, 64, 0
2, 67630, Control_c, 0, 64, 54
2, 67644, Control_c, 0, 64, 67
2, 67649, Note_on_c, 0, 80, 73
2, 67658, Note_on_c, 0, 77, 0
2, 67659, Control_c, 0, 64, 73
2, 67667, Note_on_c, 0, 59, 0
2, 67675, Control_c, 0, 64, 77
2, 67690, Control_c, 0, 64, 78
2, 67706, Control_c, 0, 64, 78
2, 67720, Control_c, 0, 64, 79
2, 67813, Control_c, 0, 64, 78
2, 67822, Note_on_c, 0, 74, 62
2, 67829, Control_c, 0, 64, 77
2, 67830, Note_on_c, 0, 58, 58
2, 67844, Control_c, 0, 64, 74
2, 67856, Note_on_c, 0, 80, 0
2, 67859, Control_c, 0, 64, 70
2, 67874, Control_c, 0, 64, 66
2, 67881, Note_on_c, 0, 68, 0
2, 67889, Control_c, 0, 64, 62
2, 67905, Control_c, 0, 64, 60
2, 67920, Control_c, 0, 64, 59
2, 67935, Control_c, 0, 64, 59
2, 67950, Control_c, 0, 64, 56
2, 67965, Control_c, 0, 64, 50
2, 67980, Control_c, 0, 64, 48
2, 67987, Note_on_c, 0, 72, 58
2, 67991, Note_on_c, 0, 74, 0
2, 67994, Note_on_c, 0, 70, 52
2, 67996, Control_c, 0, 64, 47
2, 68026, Control_c, 0, 64, 45
2, 68041, Control_c, 0, 64, 40
2, 68056, Control_c, 0, 64, 35
2, 68087, Control_c, 0, 64, 36
2, 68118, Control_c, 0, 64, 35
2, 68132, Note_on_c, 0, 70, 0
2, 68133, Control_c, 0, 64, 34
2, 68146, Note_on_c, 0, 68, 57
2, 68148, Control_c, 0, 64, 33
2, 68149, Note_on_c, 0, 74, 67
2, 68163, Control_c, 0, 64, 34
2, 68178, Control_c, 0, 64, 34
2, 68194, Control_c, 0, 64, 32
2, 68200, Note_on_c, 0, 72, 0
2, 68208, Control_c, 0, 64, 29
2, 68224, Control_c, 0, 64, 28
2, 68270, Control_c, 0, 64, 27
2, 68297, Note_on_c, 0, 75, 73
2, 68299, Note_on_c, 0, 66, 64
2, 68323, Control_c, 0, 64, 26
2, 68352, Note_on_c, 0, 74, 0
2, 68364, Note_on_c, 0, 68, 0
2, 68368, Control_c, 0, 64, 27
2, 68399, Control_c, 0, 64, 28
2, 68451, Note_on_c, 0, 66, 0
2, 68454, Note_on_c, 0, 75, 0
2, 68454, Note_on_c, 0, 77, 78
2, 68458, Note_on_c, 0, 65, 70
2, 68489, Control_c, 0, 64, 30
2, 68505, Control_c, 0, 64, 32
2, 68520, Control_c, 0, 64, 34
2, 68535, Control_c, 0, 64, 39
2, 68551, Control_c, 0, 64, 42
2, 68567, Control_c, 0, 64, 46
2, 68582, Control_c, 0, 64, 49
2, 68597, Control_c, 0, 64, 52
2, 68600, Note_on_c, 0, 63, 63
2, 68612, Control_c, 0, 64, 54
2, 68612, Note_on_c, 0, 78, 79
2, 68635, Note_on_c, 0, 77, 0
2, 68666, Note_on_c, 0, 65, 0
2, 68688, Control_c, 0, 64, 53
2, 68704, Control_c, 0, 64, 51
2, 68718, Control_c, 0, 64, 48
2, 68733, Control_c, 0, 64, 42
2, 68749, Control_c, 0, 64, 33
2, 68761, Note_on_c, 0, 63, 0
2, 68764, Control_c, 0, 64, 0
2, 68770, Note_on_c, 0, 62, 63
2, 68778, Note_on_c, 0, 80, 80
2, 68809, Note_on_c, 0, 78, 0
2, 68931, Control_c, 0, 64, 66
2, 68933, Note_on_c, 0, 77, 77
2, 68939, Note_on_c, 0, 65, 59
2, 68947, Control_c, 0, 64, 72
2, 68952, Note_on_c, 0, 80, 0
2, 68953, Note_on_c, 0, 62, 0
2, 68962, Control_c, 0, 64, 76
2, 68977, Control_c, 0, 64, 77
2, 68978, Note_on_c, 0, 58, 0
2, 68992, Control_c, 0, 64, 78
2, 69022, Control_c, 0, 64, 78
2, 69121, Control_c, 0, 64, 78
2, 69136, Control_c, 0, 64, 76
2, 69151, Control_c, 0, 64, 74
2, 69155, Note_on_c, 0, 65, 0
2, 69163, Note_on_c, 0, 78, 74
2, 69166, Control_c, 0, 64, 72
2, 69173, Note_on_c, 0, 63, 56
2, 69181, Control_c, 0, 64, 68
2, 69194, Note_on_c, 0, 77, 0
2, 69197, Control_c, 0, 64, 64
2, 69212, Control_c, 0, 64, 58
2, 69228, Control_c, 0, 64, 54
2, 69243, Control_c, 0, 64, 53
2, 69257, Control_c, 0, 64, 51
2, 69273, Control_c, 0, 64, 43
2, 69288, Control_c, 0, 64, 24
2, 69304, Control_c, 0, 64, 0
2, 69341, Note_on_c, 0, 77, 66
2, 69359, Note_on_c, 0, 78, 0
2, 69502, Note_on_c, 0, 51, 46
2, 69509, Note_on_c, 0, 75, 63
2, 69515, Note_on_c, 0, 77, 0
2, 69649, Note_on_c, 0, 63, 0
2, 69654, Note_on_c, 0, 51, 0
2, 69654, Note_on_c, 0, 74, 64
2, 69656, Note_on_c, 0, 75, 0
2, 69660, Note_on_c, 0, 53, 53
2, 69803, Note_on_c, 0, 53, 0
2, 69826, Note_on_c, 0, 75, 72
2, 69836, Note_on_c, 0, 54, 51
2, 69839, Note_on_c, 0, 74, 0
2, 69968, Note_on_c, 0, 54, 0
2, 69979, Note_on_c, 0, 51, 53
2, 70081, Note_on_c, 0, 75, 0
2, 70138, Note_on_c, 0, 70, 69
2, 70146, Note_on_c, 0, 54, 51
2, 70212, Note_on_c, 0, 51, 0
2, 70296, Note_on_c, 0, 58, 60
2, 70319, Note_on_c, 0, 54, 0
2, 70432, Note_on_c, 0, 70, 0
2, 70452, Note_on_c, 0, 58, 0
2, 70461, Note_on_c, 0, 71, 65
2, 70466, Note_on_c, 0, 63, 57
2, 70628, Note_on_c, 0, 63, 0
2, 70631, Note_on_c, 0, 62, 57
2, 70687, Note_on_c, 0, 71, 0
2, 70780, Note_on_c, 0, 63, 60
2, 70785, Note_on_c, 0, 68, 61
2, 70787, Note_on_c, 0, 62, 0
2, 71061, Note_on_c, 0, 68, 0
2, 71105, Note_on_c, 0, 65, 58
2, 71356, Note_on_c, 0, 65, 0
2, 71426, Note_on_c, 0, 70, 62
2, 71436, Note_on_c, 0, 62, 43
2, 71444, Note_on_c, 0, 63, 0
2, 71546, Control_c, 0, 64, 33
2, 71560, Control_c, 0, 64, 62
2, 71575, Control_c, 0, 64, 66
2, 71591, Control_c, 0, 64, 68
2, 71606, Control_c, 0, 64, 69
2, 71621, Control_c, 0, 64, 70
2, 71637, Control_c, 0, 64, 72
2, 71671, Note_on_c, 0, 70, 0
2, 71698, Control_c, 0, 64, 69
2, 71713, Control_c, 0, 64, 63
2, 71713, Note_on_c, 0, 62, 0
2, 71728, Control_c, 0, 64, 0
2, 71732, Note_on_c, 0, 63, 47
2, 71742, Note_on_c, 0, 66, 59
2, 71836, Control_c, 0, 64, 40
2, 71851, Control_c, 0, 64, 64
2, 71867, Control_c, 0, 64, 68
2, 71881, Control_c, 0, 64, 70
2, 71896, Control_c, 0, 64, 73
2, 71899, Note_on_c, 0, 61, 49
2, 71912, Control_c, 0, 64, 75
2, 71927, Control_c, 0, 64, 77
2, 71941, Control_c, 0, 64, 78
2, 71970, Note_on_c, 0, 63, 0
2, 72003, Control_c, 0, 64, 76
2, 72017, Control_c, 0, 64, 69
2, 72029, Note_on_c, 0, 66, 0
2, 72033, Control_c, 0, 64, 51
2, 72048, Control_c, 0, 64, 0
2, 72049, Note_on_c, 0, 61, 0
2, 72065, Note_on_c, 0, 59, 48
2, 72065, Note_on_c, 0, 63, 56
2, 72147, Control_c, 0, 64, 56
2, 72162, Control_c, 0, 64, 66
2, 72177, Control_c, 0, 64, 69
2, 72193, Control_c, 0, 64, 71
2, 72206, Note_on_c, 0, 59, 0
2, 72208, Control_c, 0, 64, 72
2, 72220, Note_on_c, 0, 58, 54
2, 72222, Control_c, 0, 64, 73
2, 72238, Control_c, 0, 64, 73
2, 72253, Control_c, 0, 64, 74
2, 72298, Control_c, 0, 64, 73
2, 72314, Control_c, 0, 64, 72
2, 72325, Note_on_c, 0, 63, 0
2, 72329, Control_c, 0, 64, 69
2, 72345, Control_c, 0, 64, 62
2, 72359, Control_c, 0, 64, 43
2, 72364, Note_on_c, 0, 58, 0
2, 72374, Control_c, 0, 64, 19
2, 72377, Note_on_c, 0, 75, 63
2, 72379, Note_on_c, 0, 59, 49
2, 72390, Control_c, 0, 64, 18
2, 72405, Control_c, 0, 64, 16
2, 72420, Control_c, 0, 64, 0
2, 72466, Control_c, 0, 64, 16
2, 72481, Control_c, 0, 64, 22
2, 72496, Control_c, 0, 64, 24
2, 72511, Control_c, 0, 64, 26
2, 72521, Note_on_c, 0, 73, 68
2, 72526, Control_c, 0, 64, 32
2, 72527, Note_on_c, 0, 58, 50
2, 72539, Note_on_c, 0, 59, 0
2, 72541, Control_c, 0, 64, 38
2, 72548, Note_on_c, 0, 75, 0
2, 72557, Control_c, 0, 64, 46
2, 72588, Control_c, 0, 64, 41
2, 72603, Control_c, 0, 64, 36
2, 72618, Control_c, 0, 64, 25
2, 72633, Control_c, 0, 64, 0
2, 72637, Note_on_c, 0, 73, 0
2, 72675, Note_on_c, 0, 56, 59
2, 72679, Note_on_c, 0, 58, 0
2, 72681, Note_on_c, 0, 75, 73
2, 72682, Note_on_c, 0, 71, 61
2, 72771, Control_c, 0, 64, 61
2, 72786, Control_c, 0, 64, 66
2, 72801, Control_c, 0, 64, 67
2, 72816, Control_c, 0, 64, 68
2, 72819, Note_on_c, 0, 56, 0
2, 72831, Note_on_c, 0, 70, 70
2, 72832, Control_c, 0, 64, 69
2, 72834, Note_on_c, 0, 54, 55
2, 72834, Note_on_c, 0, 71, 0
2, 72847, Control_c, 0, 64, 70
2, 72861, Control_c, 0, 64, 71
2, 72873, Note_on_c, 0, 75, 0
2, 72946, Control_c, 0, 64, 70
2, 72959, Note_on_c, 0, 54, 0
2, 72961, Control_c, 0, 64, 65
2, 72963, Note_on_c, 0, 70, 0
2, 72976, Control_c, 0, 64, 41
2, 72989, Note_on_c, 0, 56, 57
2, 72991, Control_c, 0, 64, 0
2, 72999, Note_on_c, 0, 71, 60
2, 73000, Note_on_c, 0, 75, 70
2, 73097, Control_c, 0, 64, 53
2, 73113, Control_c, 0, 64, 65
2, 73127, Control_c, 0, 64, 69
2, 73142, Control_c, 0, 64, 72
2, 73145, Note_on_c, 0, 56, 0
2, 73147, Note_on_c, 0, 54, 58
2, 73150, Note_on_c, 0, 70, 75
2, 73158, Control_c, 0, 64, 73
2, 73173, Control_c, 0, 64, 74
2, 73189, Control_c, 0, 64, 75
2, 73190, Note_on_c, 0, 71, 0
2, 73203, Note_on_c, 0, 75, 0
2, 73249, Control_c, 0, 64, 74
2, 73264, Note_on_c, 0, 54, 0
2, 73265, Control_c, 0, 64, 68
2, 73279, Control_c, 0, 64, 49
2, 73282, Note_on_c, 0, 70, 0
2, 73292, Note_on_c, 0, 74, 74
2, 73293, Note_on_c, 0, 53, 59
2, 73294, Control_c, 0, 64, 0
2, 73306, Note_on_c, 0, 68, 60
2, 73370, Control_c, 0, 64, 59
2, 73386, Control_c, 0, 64, 66
2, 73401, Control_c, 0, 64, 70
2, 73416, Control_c, 0, 64, 73
2, 73422, Note_on_c, 0, 53, 0
2, 73429, Note_on_c, 0, 66, 63
2, 73432, Control_c, 0, 64, 74
2, 73432, Note_on_c, 0, 75, 72
2, 73433, Note_on_c, 0, 51, 61
2, 73438, Note_on_c, 0, 68, 0
2, 73447, Control_c, 0, 64, 75
2, 73456, Note_on_c, 0, 74, 0
2, 73462, Control_c, 0, 64, 76
2, 73478, Control_c, 0, 64, 77
2, 73497, Note_on_c, 0, 66, 0
2, 73538, Control_c, 0, 64, 76
2, 73554, Control_c, 0, 64, 74
2, 73566, Note_on_c, 0, 51, 0
2, 73569, Control_c, 0, 64, 69
2, 73585, Control_c, 0, 64, 56
2, 73597, Note_on_c, 0, 77, 79
2, 73600, Control_c, 0, 64, 0
2, 73602, Note_on_c, 0, 50, 57
2, 73603, Note_on_c, 0, 75, 0
2, 73609, Note_on_c, 0, 65, 68
2, 73713, Control_c, 0, 64, 43
2, 73728, Control_c, 0, 64, 64
2, 73744, Control_c, 0, 64, 69
2, 73749, Note_on_c, 0, 50, 0
2, 73750, Note_on_c, 0, 46, 62
2, 73758, Note_on_c, 0, 77, 0
2, 73759, Control_c, 0, 64, 72
2, 73774, Control_c, 0, 64, 74
2, 73789, Control_c, 0, 64, 76
2, 73804, Control_c, 0, 64, 77
2, 73819, Control_c, 0, 64, 78
2, 73881, Control_c, 0, 64, 77
2, 73896, Control_c, 0, 64, 74
2, 73904, Note_on_c, 0, 77, 85
2, 73910, Note_on_c, 0, 70, 73
2, 73911, Control_c, 0, 64, 67
2, 73913, Note_on_c, 0, 46, 0
2, 73913, Note_on_c, 0, 48, 64
2, 73926, Control_c, 0, 64, 36
2, 73936, Note_on_c, 0, 65, 0
2, 73941, Control_c, 0, 64, 0
2, 74017, Control_c, 0, 64, 57
2, 74022, Note_on_c, 0, 48, 0
2, 74033, Control_c, 0, 64, 67
2, 74047, Control_c, 0, 64, 71
2, 74062, Control_c, 0, 64, 74
2, 74062, Note_on_c, 0, 50, 61
2, 74078, Control_c, 0, 64, 76
2, 74092, Control_c, 0, 64, 78
2, 74108, Control_c, 0, 64, 78
2, 74133, Note_on_c, 0, 77, 0
2, 74184, Control_c, 0, 64, 77
2, 74199, Control_c, 0, 64, 73
2, 74214, Control_c, 0, 64, 68
2, 74220, Note_on_c, 0, 70, 0
2, 74226, Note_on_c, 0, 51, 56
2, 74230, Control_c, 0, 64, 56
2, 74231, Note_on_c, 0, 77, 81
2, 74238, Note_on_c, 0, 66, 65
2, 74244, Note_on_c, 0, 50, 0
2, 74245, Control_c, 0, 64, 43
2, 74260, Control_c, 0, 64, 43
2, 74275, Control_c, 0, 64, 38
2, 74291, Control_c, 0, 64, 28
2, 74307, Control_c, 0, 64, 0
2, 74387, Note_on_c, 0, 53, 62
2, 74404, Note_on_c, 0, 51, 0
2, 74481, Control_c, 0, 64, 10
2, 74496, Control_c, 0, 64, 16
2, 74531, Note_on_c, 0, 53, 0
2, 74551, Note_on_c, 0, 54, 59
2, 74553, Note_on_c, 0, 70, 67
2, 74556, Note_on_c, 0, 75, 68
2, 74572, Control_c, 0, 64, 18
2, 74588, Control_c, 0, 64, 21
2, 74602, Control_c, 0, 64, 25
2, 74617, Control_c, 0, 64, 27
2, 74633, Control_c, 0, 64, 32
2, 74648, Control_c, 0, 64, 32
2, 74653, Note_on_c, 0, 77, 0
2, 74684, Note_on_c, 0, 54, 0
2, 74700, Note_on_c, 0, 74, 70
2, 74707, Note_on_c, 0, 56, 54
2, 74708, Note_on_c, 0, 66, 0
2, 74710, Control_c, 0, 64, 33
2, 74710, Note_on_c, 0, 75, 0
2, 74723, Note_on_c, 0, 70, 0
2, 74725, Control_c, 0, 64, 32
2, 74740, Control_c, 0, 64, 30
2, 74754, Control_c, 0, 64, 29
2, 74769, Control_c, 0, 64, 28
2, 74785, Control_c, 0, 64, 24
2, 74800, Control_c, 0, 64, 0
2, 74876, Note_on_c, 0, 75, 74
2, 74878, Note_on_c, 0, 74, 0
2, 74880, Note_on_c, 0, 56, 0
2, 74887, Note_on_c, 0, 54, 52
2, 75028, Control_c, 0, 64, 50
2, 75034, Note_on_c, 0, 66, 60
2, 75043, Control_c, 0, 64, 64
2, 75058, Control_c, 0, 64, 67
2, 75072, Note_on_c, 0, 54, 0
2, 75073, Control_c, 0, 64, 68
2, 75088, Control_c, 0, 64, 69
2, 75104, Control_c, 0, 64, 70
2, 75119, Control_c, 0, 64, 71
2, 75134, Control_c, 0, 64, 72
2, 75165, Control_c, 0, 64, 71
2, 75180, Control_c, 0, 64, 70
2, 75195, Note_on_c, 0, 66, 0
2, 75203, Control_c, 0, 64, 67
2, 75204, Note_on_c, 0, 65, 57
2, 75211, Note_on_c, 0, 59, 50
2, 75218, Control_c, 0, 64, 58
2, 75234, Control_c, 0, 64, 0
2, 75349, Note_on_c, 0, 65, 0
2, 75352, Note_on_c, 0, 66, 64
2, 75355, Control_c, 0, 64, 57
2, 75370, Control_c, 0, 64, 65
2, 75386, Control_c, 0, 64, 68
2, 75400, Control_c, 0, 64, 70
2, 75415, Control_c, 0, 64, 71
2, 75431, Control_c, 0, 64, 72
2, 75437, Note_on_c, 0, 59, 0
2, 75461, Control_c, 0, 64, 71
2, 75477, Control_c, 0, 64, 68
2, 75491, Note_on_c, 0, 66, 0
2, 75492, Control_c, 0, 64, 59
2, 75508, Control_c, 0, 64, 0
2, 75508, Note_on_c, 0, 53, 56
2, 75513, Note_on_c, 0, 68, 67
2, 75599, Control_c, 0, 64, 60
2, 75614, Control_c, 0, 64, 67
2, 75630, Control_c, 0, 64, 70
2, 75645, Control_c, 0, 64, 73
2, 75653, Note_on_c, 0, 54, 61
2, 75654, Note_on_c, 0, 73, 69
2, 75659, Control_c, 0, 64, 74
2, 75675, Control_c, 0, 64, 76
2, 75690, Control_c, 0, 64, 77
2, 75706, Control_c, 0, 64, 78
2, 75709, Note_on_c, 0, 68, 0
2, 75721, Note_on_c, 0, 53, 0
2, 75754, Note_on_c, 0, 75, 0
2, 75780, Control_c, 0, 64, 76
2, 75795, Note_on_c, 0, 54, 0
2, 75796, Control_c, 0, 64, 69
2, 75811, Control_c, 0, 64, 54
2, 75816, Note_on_c, 0, 63, 66
2, 75817, Note_on_c, 0, 71, 64
2, 75819, Note_on_c, 0, 56, 65
2, 75827, Control_c, 0, 64, 0
2, 75836, Note_on_c, 0, 73, 0
2, 75902, Control_c, 0, 64, 13
2, 75918, Control_c, 0, 64, 63
2, 75934, Control_c, 0, 64, 67
2, 75947, Note_on_c, 0, 71, 0
2, 75950, Control_c, 0, 64, 70
2, 75962, Note_on_c, 0, 63, 0
2, 75963, Note_on_c, 0, 70, 68
2, 75972, Control_c, 0, 64, 73
2, 75978, Note_on_c, 0, 58, 67
2, 75988, Control_c, 0, 64, 75
2, 75997, Note_on_c, 0, 56, 0
2, 76003, Control_c, 0, 64, 78
2, 76017, Control_c, 0, 64, 79
2, 76033, Control_c, 0, 64, 79
2, 76093, Control_c, 0, 64, 76
2, 76094, Note_on_c, 0, 58, 0
2, 76109, Control_c, 0, 64, 70
2, 76124, Control_c, 0, 64, 54
2, 76134, Note_on_c, 0, 70, 0
2, 76137, Note_on_c, 0, 65, 73
2, 76137, Note_on_c, 0, 71, 67
2, 76139, Control_c, 0, 64, 0
2, 76150, Note_on_c, 0, 56, 51
2, 76230, Control_c, 0, 64, 59
2, 76245, Control_c, 0, 64, 66
2, 76260, Control_c, 0, 64, 70
2, 76276, Control_c, 0, 64, 73
2, 76286, Note_on_c, 0, 68, 73
2, 76291, Control_c, 0, 64, 75
2, 76306, Control_c, 0, 64, 77
2, 76321, Control_c, 0, 64, 77
2, 76367, Control_c, 0, 64, 77
2, 76381, Control_c, 0, 64, 73
2, 76397, Control_c, 0, 64, 62
2, 76412, Control_c, 0, 64, 0
2, 76434, Note_on_c, 0, 61, 71
2, 76434, Note_on_c, 0, 68, 0
2, 76440, Note_on_c, 0, 70, 70
2, 76458, Note_on_c, 0, 65, 0
2, 76473, Note_on_c, 0, 71, 0
2, 76504, Control_c, 0, 64, 63
2, 76519, Control_c, 0, 64, 68
2, 76525, Note_on_c, 0, 61, 0
2, 76534, Control_c, 0, 64, 71
2, 76547, Note_on_c, 0, 56, 0
2, 76549, Control_c, 0, 64, 73
2, 76564, Control_c, 0, 64, 75
2, 76579, Control_c, 0, 64, 77
2, 76595, Control_c, 0, 64, 77
2, 76603, Note_on_c, 0, 72, 70
2, 76670, Note_on_c, 0, 70, 0
2, 76686, Control_c, 0, 64, 76
2, 76700, Control_c, 0, 64, 75
2, 76716, Control_c, 0, 64, 72
2, 76739, Control_c, 0, 64, 67
2, 76755, Control_c, 0, 64, 59
2, 76758, Note_on_c, 0, 54, 65
2, 76763, Note_on_c, 0, 72, 0
2, 76764, Note_on_c, 0, 66, 68
2, 76770, Control_c, 0, 64, 39
2, 76786, Control_c, 0, 64, 40
2, 76801, Control_c, 0, 64, 47
2, 76816, Control_c, 0, 64, 56
2, 76831, Control_c, 0, 64, 61
2, 76846, Control_c, 0, 64, 64
2, 76861, Control_c, 0, 64, 66
2, 76877, Control_c, 0, 64, 68
2, 76892, Control_c, 0, 64, 69
2, 76908, Control_c, 0, 64, 70
2, 76919, Note_on_c, 0, 70, 70
2, 76950, Note_on_c, 0, 54, 0
2, 76953, Control_c, 0, 64, 69
2, 76968, Control_c, 0, 64, 67
2, 76984, Control_c, 0, 64, 59
2, 76999, Control_c, 0, 64, 32
2, 77013, Control_c, 0, 64, 0
2, 77042, Note_on_c, 0, 53, 64
2, 77059, Control_c, 0, 64, 38
2, 77074, Control_c, 0, 64, 59
2, 77086, Note_on_c, 0, 72, 60
2, 77089, Control_c, 0, 64, 65
2, 77105, Control_c, 0, 64, 68
2, 77116, Note_on_c, 0, 70, 0
2, 77118, Note_on_c, 0, 66, 0
2, 77120, Control_c, 0, 64, 71
2, 77134, Control_c, 0, 64, 73
2, 77150, Control_c, 0, 64, 75
2, 77165, Control_c, 0, 64, 76
2, 77180, Control_c, 0, 64, 77
2, 77195, Control_c, 0, 64, 77
2, 77207, Note_on_c, 0, 72, 0
2, 77213, Note_on_c, 0, 74, 81
2, 77226, Note_on_c, 0, 53, 0
2, 77256, Control_c, 0, 64, 76
2, 77272, Control_c, 0, 64, 71
2, 77287, Control_c, 0, 64, 63
2, 77302, Control_c, 0, 64, 0
2, 77329, Note_on_c, 0, 74, 0
2, 77354, Note_on_c, 0, 51, 61
2, 77359, Note_on_c, 0, 75, 74
2, 77362, Note_on_c, 0, 72, 67
2, 77408, Control_c, 0, 64, 57
2, 77423, Control_c, 0, 64, 65
2, 77439, Control_c, 0, 64, 69
2, 77454, Control_c, 0, 64, 72
2, 77469, Control_c, 0, 64, 75
2, 77470, Note_on_c, 0, 72, 0
2, 77484, Control_c, 0, 64, 76
2, 77500, Note_on_c, 0, 75, 0
2, 77507, Control_c, 0, 64, 77
2, 77509, Note_on_c, 0, 77, 74
2, 77537, Control_c, 0, 64, 78
2, 77553, Note_on_c, 0, 51, 0
2, 77583, Control_c, 0, 64, 77
2, 77599, Control_c, 0, 64, 77
2, 77614, Control_c, 0, 64, 74
2, 77630, Control_c, 0, 64, 67
2, 77644, Control_c, 0, 64, 41
2, 77659, Control_c, 0, 64, 0
2, 77662, Note_on_c, 0, 78, 83
2, 77668, Note_on_c, 0, 77, 0
2, 77671, Note_on_c, 0, 72, 72
2, 77674, Note_on_c, 0, 51, 76
2, 77721, Control_c, 0, 64, 46
2, 77736, Control_c, 0, 64, 64
2, 77752, Control_c, 0, 64, 69
2, 77767, Control_c, 0, 64, 74
2, 77774, Note_on_c, 0, 51, 0
2, 77781, Control_c, 0, 64, 77
2, 77797, Control_c, 0, 64, 78
2, 77812, Control_c, 0, 64, 80
2, 77815, Note_on_c, 0, 75, 87
2, 77827, Control_c, 0, 64, 80
2, 77842, Control_c, 0, 64, 81
2, 77848, Note_on_c, 0, 72, 0
2, 77855, Note_on_c, 0, 78, 0
2, 77857, Control_c, 0, 64, 81
2, 77873, Control_c, 0, 64, 82
2, 77964, Control_c, 0, 64, 81
2, 77978, Control_c, 0, 64, 79
2, 77994, Control_c, 0, 64, 73
2, 78009, Control_c, 0, 64, 63
2, 78022, Note_on_c, 0, 58, 65
2, 78025, Control_c, 0, 64, 0
2, 78025, Note_on_c, 0, 77, 83
2, 78028, Note_on_c, 0, 73, 74
2, 78054, Note_on_c, 0, 75, 0
2, 78146, Control_c, 0, 64, 18
2, 78161, Control_c, 0, 64, 64
2, 78176, Control_c, 0, 64, 68
2, 78182, Note_on_c, 0, 73, 0
2, 78192, Control_c, 0, 64, 71
2, 78196, Note_on_c, 0, 72, 81
2, 78207, Control_c, 0, 64, 74
2, 78222, Control_c, 0, 64, 76
2, 78237, Control_c, 0, 64, 77
2, 78252, Control_c, 0, 64, 78
2, 78335, Control_c, 0, 64, 75
2, 78351, Control_c, 0, 64, 67
2, 78357, Note_on_c, 0, 65, 67
2, 78360, Note_on_c, 0, 61, 68
2, 78361, Note_on_c, 0, 70, 81
2, 78366, Control_c, 0, 64, 36
2, 78369, Note_on_c, 0, 77, 0
2, 78381, Control_c, 0, 64, 0
2, 78418, Note_on_c, 0, 72, 0
2, 78428, Control_c, 0, 64, 44
2, 78443, Control_c, 0, 64, 64
2, 78458, Control_c, 0, 64, 70
2, 78458, Note_on_c, 0, 65, 0
2, 78473, Control_c, 0, 64, 75
2, 78484, Note_on_c, 0, 61, 0
2, 78488, Control_c, 0, 64, 78
2, 78492, Note_on_c, 0, 58, 0
2, 78503, Control_c, 0, 64, 79
2, 78510, Note_on_c, 0, 69, 82
2, 78519, Control_c, 0, 64, 79
2, 78534, Control_c, 0, 64, 80
2, 78540, Note_on_c, 0, 70, 0
2, 78550, Control_c, 0, 64, 80
2, 78641, Control_c, 0, 64, 79
2, 78656, Control_c, 0, 64, 77
2, 78672, Control_c, 0, 64, 73
2, 78687, Control_c, 0, 64, 69
2, 78687, Note_on_c, 0, 70, 82
2, 78691, Note_on_c, 0, 54, 65
2, 78702, Control_c, 0, 64, 65
2, 78702, Note_on_c, 0, 69, 0
2, 78718, Control_c, 0, 64, 62
2, 78733, Control_c, 0, 64, 61
2, 78748, Control_c, 0, 64, 59
2, 78763, Control_c, 0, 64, 58
2, 78778, Control_c, 0, 64, 56
2, 78794, Control_c, 0, 64, 52
2, 78808, Control_c, 0, 64, 50
2, 78823, Control_c, 0, 64, 49
2, 78840, Note_on_c, 0, 54, 0
2, 78843, Note_on_c, 0, 53, 66
2, 78870, Control_c, 0, 64, 47
2, 78884, Control_c, 0, 64, 45
2, 78899, Control_c, 0, 64, 44
2, 78946, Control_c, 0, 64, 42
2, 78960, Control_c, 0, 64, 35
2, 78975, Control_c, 0, 64, 29
2, 78991, Control_c, 0, 64, 25
2, 78998, Note_on_c, 0, 53, 0
2, 79003, Note_on_c, 0, 51, 59
2, 79005, Control_c, 0, 64, 19
2, 79007, Note_on_c, 0, 65, 75
2, 79020, Control_c, 0, 64, 13
2, 79044, Control_c, 0, 64, 0
2, 79135, Control_c, 0, 64, 10
2, 79151, Control_c, 0, 64, 31
2, 79153, Note_on_c, 0, 49, 65
2, 79158, Note_on_c, 0, 51, 0
2, 79165, Control_c, 0, 64, 38
2, 79180, Control_c, 0, 64, 43
2, 79196, Control_c, 0, 64, 47
2, 79211, Control_c, 0, 64, 50
2, 79228, Control_c, 0, 64, 53
2, 79237, Note_on_c, 0, 65, 0
2, 79243, Control_c, 0, 64, 54
2, 79258, Control_c, 0, 64, 53
2, 79273, Control_c, 0, 64, 51
2, 79288, Control_c, 0, 64, 47
2, 79303, Control_c, 0, 64, 41
2, 79314, Note_on_c, 0, 66, 82
2, 79318, Control_c, 0, 64, 31
2, 79327, Note_on_c, 0, 51, 62
2, 79332, Note_on_c, 0, 49, 0
2, 79333, Control_c, 0, 64, 0
2, 79408, Control_c, 0, 64, 16
2, 79423, Control_c, 0, 64, 28
2, 79439, Control_c, 0, 64, 41
2, 79454, Control_c, 0, 64, 51
2, 79466, Note_on_c, 0, 48, 67
2, 79470, Control_c, 0, 64, 59
2, 79485, Control_c, 0, 64, 61
2, 79491, Note_on_c, 0, 51, 0
2, 79500, Control_c, 0, 64, 60
2, 79515, Control_c, 0, 64, 61
2, 79530, Control_c, 0, 64, 61
2, 79546, Control_c, 0, 64, 62
2, 79576, Control_c, 0, 64, 60
2, 79582, Note_on_c, 0, 66, 0
2, 79592, Control_c, 0, 64, 54
2, 79606, Control_c, 0, 64, 36
2, 79619, Note_on_c, 0, 48, 0
2, 79621, Control_c, 0, 64, 0
2, 79626, Note_on_c, 0, 49, 67
2, 79632, Note_on_c, 0, 63, 78
2, 79758, Control_c, 0, 64, 57
2, 79773, Control_c, 0, 64, 65
2, 79780, Note_on_c, 0, 51, 69
2, 79781, Note_on_c, 0, 49, 0
2, 79789, Control_c, 0, 64, 67
2, 79811, Control_c, 0, 64, 68
2, 79827, Control_c, 0, 64, 70
2, 79842, Control_c, 0, 64, 72
2, 79856, Control_c, 0, 64, 73
2, 79887, Control_c, 0, 64, 72
2, 79902, Control_c, 0, 64, 69
2, 79918, Control_c, 0, 64, 63
2, 79928, Note_on_c, 0, 51, 0
2, 79932, Control_c, 0, 64, 36
2, 79933, Note_on_c, 0, 63, 0
2, 79943, Note_on_c, 0, 53, 63
2, 79948, Control_c, 0, 64, 0
2, 79949, Note_on_c, 0, 69, 80
2, 79952, Note_on_c, 0, 60, 70
2, 79992, Note_on_c, 0, 70, 0
2, 80085, Control_c, 0, 64, 56
2, 80099, Note_on_c, 0, 51, 60
2, 80100, Control_c, 0, 64, 66
2, 80112, Note_on_c, 0, 53, 0
2, 80116, Control_c, 0, 64, 71
2, 80131, Control_c, 0, 64, 75
2, 80147, Control_c, 0, 64, 77
2, 80161, Control_c, 0, 64, 78
2, 80213, Note_on_c, 0, 60, 0
2, 80222, Control_c, 0, 64, 75
2, 80237, Control_c, 0, 64, 68
2, 80252, Control_c, 0, 64, 37
2, 80253, Note_on_c, 0, 49, 62
2, 80254, Note_on_c, 0, 65, 70
2, 80258, Note_on_c, 0, 51, 0
2, 80268, Control_c, 0, 64, 0
2, 80374, Control_c, 0, 64, 52
2, 80390, Control_c, 0, 64, 67
2, 80398, Note_on_c, 0, 49, 0
2, 80405, Control_c, 0, 64, 71
2, 80407, Note_on_c, 0, 48, 68
2, 80420, Control_c, 0, 64, 73
2, 80435, Control_c, 0, 64, 74
2, 80450, Control_c, 0, 64, 76
2, 80466, Control_c, 0, 64, 77
2, 80481, Control_c, 0, 64, 78
2, 80507, Note_on_c, 0, 69, 0
2, 80527, Note_on_c, 0, 48, 0
2, 80541, Control_c, 0, 64, 77
2, 80557, Control_c, 0, 64, 72
2, 80579, Control_c, 0, 64, 61
2, 80581, Note_on_c, 0, 46, 69
2, 80592, Note_on_c, 0, 70, 63
2, 80595, Control_c, 0, 64, 0
2, 80602, Note_on_c, 0, 61, 66
2, 80653, Note_on_c, 0, 65, 0
2, 80716, Control_c, 0, 64, 63
2, 80731, Control_c, 0, 64, 70
2, 80747, Control_c, 0, 64, 73
2, 80756, Note_on_c, 0, 69, 70
2, 80762, Control_c, 0, 64, 74
2, 80787, Note_on_c, 0, 70, 0
2, 80792, Control_c, 0, 64, 75
2, 80834, Note_on_c, 0, 61, 0
2, 80854, Control_c, 0, 64, 74
2, 80870, Control_c, 0, 64, 73
2, 80884, Control_c, 0, 64, 71
2, 80899, Control_c, 0, 64, 66
2, 80915, Control_c, 0, 64, 62
2, 80918, Note_on_c, 0, 70, 70
2, 80929, Control_c, 0, 64, 58
2, 80940, Note_on_c, 0, 58, 71
2, 80945, Control_c, 0, 64, 56
2, 80956, Note_on_c, 0, 69, 0
2, 80960, Control_c, 0, 64, 53
2, 80975, Control_c, 0, 64, 46
2, 80991, Control_c, 0, 64, 32
2, 81005, Control_c, 0, 64, 0
2, 81041, Note_on_c, 0, 70, 0
2, 81065, Note_on_c, 0, 72, 67
2, 81201, Note_on_c, 0, 58, 0
2, 81221, Note_on_c, 0, 73, 66
2, 81225, Note_on_c, 0, 70, 63
2, 81253, Note_on_c, 0, 72, 0
2, 81265, Control_c, 0, 64, 25
2, 81279, Control_c, 0, 64, 35
2, 81294, Control_c, 0, 64, 44
2, 81310, Control_c, 0, 64, 51
2, 81325, Control_c, 0, 64, 55
2, 81347, Control_c, 0, 64, 56
2, 81362, Control_c, 0, 64, 56
2, 81362, Note_on_c, 0, 70, 0
2, 81377, Control_c, 0, 64, 55
2, 81382, Note_on_c, 0, 75, 72
2, 81390, Note_on_c, 0, 48, 64
2, 81393, Control_c, 0, 64, 52
2, 81405, Note_on_c, 0, 46, 0
2, 81408, Control_c, 0, 64, 50
2, 81408, Note_on_c, 0, 73, 0
2, 81423, Control_c, 0, 64, 46
2, 81439, Control_c, 0, 64, 40
2, 81454, Control_c, 0, 64, 32
2, 81469, Control_c, 0, 64, 27
2, 81484, Control_c, 0, 64, 24
2, 81499, Control_c, 0, 64, 10
2, 81515, Control_c, 0, 64, 0
2, 81519, Note_on_c, 0, 48, 0
2, 81528, Note_on_c, 0, 77, 78
2, 81531, Note_on_c, 0, 49, 64
2, 81532, Note_on_c, 0, 75, 0
2, 81534, Note_on_c, 0, 70, 73
2, 81681, Note_on_c, 0, 73, 74
2, 81683, Control_c, 0, 64, 24
2, 81683, Note_on_c, 0, 46, 64
2, 81689, Note_on_c, 0, 77, 0
2, 81698, Control_c, 0, 64, 32
2, 81698, Note_on_c, 0, 49, 0
2, 81706, Note_on_c, 0, 70, 0
2, 81728, Control_c, 0, 64, 28
2, 81743, Control_c, 0, 64, 26
2, 81759, Control_c, 0, 64, 22
2, 81773, Control_c, 0, 64, 16
2, 81789, Control_c, 0, 64, 0
2, 81827, Note_on_c, 0, 46, 0
2, 81842, Note_on_c, 0, 75, 73
2, 81844, Note_on_c, 0, 70, 71
2, 81845, Note_on_c, 0, 48, 67
2, 81857, Note_on_c, 0, 73, 0
2, 81925, Control_c, 0, 64, 40
2, 81940, Control_c, 0, 64, 64
2, 81956, Control_c, 0, 64, 68
2, 81970, Control_c, 0, 64, 71
2, 81986, Control_c, 0, 64, 74
2, 81986, Note_on_c, 0, 73, 80
2, 81989, Note_on_c, 0, 48, 0
2, 81998, Note_on_c, 0, 49, 70
2, 82001, Control_c, 0, 64, 77
2, 82005, Note_on_c, 0, 75, 0
2, 82014, Note_on_c, 0, 70, 0
2, 82016, Control_c, 0, 64, 79
2, 82032, Control_c, 0, 64, 79
2, 82047, Control_c, 0, 64, 80
2, 82093, Control_c, 0, 64, 78
2, 82115, Control_c, 0, 64, 72
2, 82130, Control_c, 0, 64, 58
2, 82131, Note_on_c, 0, 49, 0
2, 82143, Note_on_c, 0, 51, 68
2, 82146, Control_c, 0, 64, 0
2, 82148, Note_on_c, 0, 72, 75
2, 82167, Note_on_c, 0, 69, 61
2, 82226, Note_on_c, 0, 73, 0
2, 82237, Control_c, 0, 64, 53
2, 82252, Control_c, 0, 64, 66
2, 82268, Control_c, 0, 64, 69
2, 82282, Control_c, 0, 64, 72
2, 82285, Note_on_c, 0, 73, 62
2, 82288, Note_on_c, 0, 72, 0
2, 82290, Note_on_c, 0, 70, 75
2, 82297, Control_c, 0, 64, 74
2, 82308, Note_on_c, 0, 69, 0
2, 82313, Control_c, 0, 64, 75
2, 82343, Control_c, 0, 64, 75
2, 82381, Note_on_c, 0, 51, 0
2, 82404, Control_c, 0, 64, 75
2, 82419, Control_c, 0, 64, 72
2, 82434, Control_c, 0, 64, 66
2, 82449, Control_c, 0, 64, 54
2, 82450, Note_on_c, 0, 70, 0
2, 82453, Note_on_c, 0, 45, 64
2, 82455, Note_on_c, 0, 75, 80
2, 82463, Control_c, 0, 64, 19
2, 82470, Note_on_c, 0, 73, 0
2, 82471, Note_on_c, 0, 72, 60
2, 82479, Control_c, 0, 64, 0
2, 82612, Note_on_c, 0, 77, 85
2, 82618, Note_on_c, 0, 75, 0
2, 82646, Note_on_c, 0, 72, 0
2, 82662, Control_c, 0, 64, 44
2, 82678, Control_c, 0, 64, 47
2, 82692, Control_c, 0, 64, 45
2, 82723, Control_c, 0, 64, 46
2, 82738, Control_c, 0, 64, 48
2, 82754, Control_c, 0, 64, 49
2, 82756, Note_on_c, 0, 45, 0
2, 82756, Note_on_c, 0, 78, 82
2, 82758, Note_on_c, 0, 46, 70
2, 82762, Note_on_c, 0, 72, 75
2, 82768, Control_c, 0, 64, 46
2, 82783, Control_c, 0, 64, 45
2, 82798, Note_on_c, 0, 77, 0
2, 82799, Control_c, 0, 64, 46
2, 82814, Control_c, 0, 64, 48
2, 82830, Control_c, 0, 64, 49
2, 82860, Control_c, 0, 64, 48
2, 82883, Control_c, 0, 64, 49
2, 82898, Control_c, 0, 64, 49
2, 82900, Note_on_c, 0, 46, 0
2, 82913, Control_c, 0, 64, 51
2, 82913, Note_on_c, 0, 48, 70
2, 82921, Note_on_c, 0, 75, 82
2, 82923, Note_on_c, 0, 72, 0
2, 82928, Control_c, 0, 64, 52
2, 82955, Note_on_c, 0, 78, 0
2, 82973, Control_c, 0, 64, 52
2, 83019, Control_c, 0, 64, 52
2, 83035, Control_c, 0, 64, 51
2, 83066, Control_c, 0, 64, 48
2, 83074, Note_on_c, 0, 49, 65
2, 83074, Note_on_c, 0, 77, 88
2, 83075, Note_on_c, 0, 75, 0
2, 83077, Note_on_c, 0, 72, 80
2, 83080, Control_c, 0, 64, 39
2, 83092, Note_on_c, 0, 48, 0
2, 83095, Control_c, 0, 64, 0
2, 83229, Note_on_c, 0, 51, 67
2, 83241, Note_on_c, 0, 49, 0
2, 83378, Note_on_c, 0, 72, 0
2, 83380, Note_on_c, 0, 70, 82
2, 83381, Note_on_c, 0, 49, 71
2, 83395, Note_on_c, 0, 51, 0
2, 83523, Note_on_c, 0, 49, 0
2, 83530, Note_on_c, 0, 70, 0
2, 83531, Note_on_c, 0, 72, 87
2, 83534, Note_on_c, 0, 48, 73
2, 83695, Note_on_c, 0, 46, 74
2, 83695, Note_on_c, 0, 48, 0
2, 83695, Note_on_c, 0, 73, 88
2, 83703, Note_on_c, 0, 77, 0
2, 83725, Note_on_c, 0, 72, 0
2, 83802, Control_c, 0, 64, 65
2, 83817, Control_c, 0, 64, 68
2, 83833, Control_c, 0, 64, 70
2, 83835, Note_on_c, 0, 73, 0
2, 83848, Control_c, 0, 64, 71
2, 83853, Note_on_c, 0, 44, 75
2, 83863, Control_c, 0, 64, 75
2, 83872, Note_on_c, 0, 46, 0
2, 83878, Control_c, 0, 64, 78
2, 83893, Control_c, 0, 64, 80
2, 83909, Control_c, 0, 64, 81
2, 83955, Control_c, 0, 64, 80
2, 83970, Control_c, 0, 64, 74
2, 83986, Control_c, 0, 64, 41
2, 84000, Control_c, 0, 64, 0
2, 84003, Note_on_c, 0, 82, 83
2, 84004, Note_on_c, 0, 42, 73
2, 84010, Note_on_c, 0, 73, 73
2, 84026, Note_on_c, 0, 44, 0
2, 84133, Note_on_c, 0, 46, 74
2, 84156, Note_on_c, 0, 73, 0
2, 84156, Note_on_c, 0, 77, 79
2, 84178, Note_on_c, 0, 42, 0
2, 84272, Note_on_c, 0, 46, 0
2, 84333, Note_on_c, 0, 39, 84
2, 84340, Note_on_c, 0, 78, 81
2, 84343, Note_on_c, 0, 77, 0
2, 84349, Note_on_c, 0, 73, 69
2, 84373, Note_on_c, 0, 82, 0
2, 84396, Control_c, 0, 64, 66
2, 84419, Control_c, 0, 64, 74
2, 84434, Control_c, 0, 64, 82
2, 84449, Control_c, 0, 64, 88
2, 84453, Note_on_c, 0, 39, 0
2, 84465, Control_c, 0, 64, 94
2, 84480, Control_c, 0, 64, 97
2, 84495, Control_c, 0, 64, 99
2, 84510, Control_c, 0, 64, 100
2, 84535, Note_on_c, 0, 80, 81
2, 84540, Note_on_c, 0, 73, 0
2, 84565, Note_on_c, 0, 78, 0
2, 84632, Control_c, 0, 64, 100
2, 84661, Control_c, 0, 64, 99
2, 84677, Control_c, 0, 64, 99
2, 84688, Note_on_c, 0, 58, 80
2, 84691, Note_on_c, 0, 78, 83
2, 84692, Control_c, 0, 64, 98
2, 84708, Control_c, 0, 64, 97
2, 84722, Control_c, 0, 64, 96
2, 84737, Control_c, 0, 64, 96
2, 84737, Note_on_c, 0, 80, 0
2, 84753, Control_c, 0, 64, 95
2, 84768, Control_c, 0, 64, 95
2, 84783, Control_c, 0, 64, 94
2, 84799, Control_c, 0, 64, 93
2, 84814, Control_c, 0, 64, 92
2, 84830, Control_c, 0, 64, 91
2, 84844, Control_c, 0, 64, 91
2, 84854, Note_on_c, 0, 77, 79
2, 84857, Note_on_c, 0, 78, 0
2, 84859, Control_c, 0, 64, 89
2, 84875, Control_c, 0, 64, 88
2, 84890, Control_c, 0, 64, 87
2, 84906, Control_c, 0, 64, 86
2, 84920, Control_c, 0, 64, 85
2, 84935, Control_c, 0, 64, 85
2, 84952, Control_c, 0, 64, 84
2, 84967, Control_c, 0, 64, 83
2, 84982, Control_c, 0, 64, 82
2, 84997, Control_c, 0, 64, 80
2, 85006, Note_on_c, 0, 75, 82
2, 85012, Control_c, 0, 64, 79
2, 85017, Note_on_c, 0, 60, 77
2, 85028, Control_c, 0, 64, 77
2, 85043, Control_c, 0, 64, 74
2, 85043, Note_on_c, 0, 77, 0
2, 85058, Control_c, 0, 64, 71
2, 85062, Note_on_c, 0, 58, 0
2, 85073, Control_c, 0, 64, 68
2, 85088, Control_c, 0, 64, 65
2, 85103, Control_c, 0, 64, 64
2, 85119, Control_c, 0, 64, 63
2, 85134, Control_c, 0, 64, 62
2, 85149, Control_c, 0, 64, 60
2, 85160, Note_on_c, 0, 73, 76
2, 85164, Control_c, 0, 64, 59
2, 85195, Note_on_c, 0, 75, 0
2, 85217, Control_c, 0, 64, 59
2, 85233, Control_c, 0, 64, 57
2, 85248, Control_c, 0, 64, 56
2, 85263, Control_c, 0, 64, 55
2, 85278, Control_c, 0, 64, 52
2, 85293, Control_c, 0, 64, 45
2, 85309, Control_c, 0, 64, 0
2, 85320, Note_on_c, 0, 73, 0
2, 85321, Note_on_c, 0, 60, 0
2, 85322, Note_on_c, 0, 72, 76
2, 85323, Note_on_c, 0, 63, 75
2, 85445, Control_c, 0, 64, 10
2, 85453, Note_on_c, 0, 72, 0
2, 85460, Control_c, 0, 64, 65
2, 85470, Note_on_c, 0, 75, 78
2, 85476, Control_c, 0, 64, 72
2, 85490, Control_c, 0, 64, 78
2, 85500, Note_on_c, 0, 63, 0
2, 85506, Control_c, 0, 64, 81
2, 85521, Control_c, 0, 64, 82
2, 85536, Control_c, 0, 64, 83
2, 85552, Control_c, 0, 64, 84
2, 85566, Control_c, 0, 64, 84
2, 85627, Note_on_c, 0, 63, 77
2, 85628, Control_c, 0, 64, 84
2, 85630, Note_on_c, 0, 69, 78
2, 85642, Control_c, 0, 64, 83
2, 85648, Note_on_c, 0, 75, 0
2, 85657, Control_c, 0, 64, 81
2, 85673, Control_c, 0, 64, 76
2, 85688, Control_c, 0, 64, 67
2, 85703, Control_c, 0, 64, 37
2, 85719, Control_c, 0, 64, 0
2, 85767, Note_on_c, 0, 54, 64
2, 85898, Note_on_c, 0, 54, 0
2, 85930, Note_on_c, 0, 57, 68
2, 85933, Note_on_c, 0, 72, 83
2, 85935, Note_on_c, 0, 53, 71
2, 85951, Note_on_c, 0, 63, 0
2, 85962, Note_on_c, 0, 69, 0
2, 86031, Control_c, 0, 64, 56
2, 86046, Control_c, 0, 64, 70
2, 86061, Control_c, 0, 64, 78
2, 86077, Control_c, 0, 64, 85
2, 86090, Note_on_c, 0, 53, 0
2, 86091, Note_on_c, 0, 51, 73
2, 86092, Control_c, 0, 64, 88
2, 86095, Note_on_c, 0, 57, 0
2, 86108, Control_c, 0, 64, 91
2, 86122, Control_c, 0, 64, 92
2, 86137, Control_c, 0, 64, 92
2, 86153, Control_c, 0, 64, 93
2, 86175, Note_on_c, 0, 51, 0
2, 86182, Control_c, 0, 64, 92
2, 86198, Control_c, 0, 64, 91
2, 86213, Control_c, 0, 64, 87
2, 86229, Control_c, 0, 64, 80
2, 86242, Note_on_c, 0, 77, 85
2, 86244, Control_c, 0, 64, 69
2, 86245, Note_on_c, 0, 72, 0
2, 86246, Note_on_c, 0, 49, 72
2, 86248, Note_on_c, 0, 58, 64
2, 86258, Control_c, 0, 64, 41
2, 86274, Control_c, 0, 64, 0
2, 86395, Control_c, 0, 64, 60
2, 86398, Note_on_c, 0, 49, 0
2, 86406, Note_on_c, 0, 48, 71
2, 86410, Control_c, 0, 64, 64
2, 86420, Note_on_c, 0, 58, 0
2, 86426, Control_c, 0, 64, 65
2, 86455, Control_c, 0, 64, 65
2, 86486, Control_c, 0, 64, 65
2, 86501, Control_c, 0, 64, 63
2, 86517, Control_c, 0, 64, 55
2, 86532, Control_c, 0, 64, 0
2, 86538, Note_on_c, 0, 48, 0
2, 86555, Note_on_c, 0, 73, 78
2, 86556, Note_on_c, 0, 46, 76
2, 86558, Note_on_c, 0, 70, 77
2, 86658, Note_on_c, 0, 77, 0
2, 86662, Note_on_c, 0, 46, 0
2, 86670, Control_c, 0, 64, 49
2, 86685, Control_c, 0, 64, 65
2, 86696, Note_on_c, 0, 49, 71
2, 86700, Control_c, 0, 64, 68
2, 86723, Control_c, 0, 64, 70
2, 86738, Control_c, 0, 64, 72
2, 86754, Control_c, 0, 64, 74
2, 86768, Control_c, 0, 64, 75
2, 86773, Note_on_c, 0, 70, 0
2, 86814, Control_c, 0, 64, 74
2, 86829, Control_c, 0, 64, 72
2, 86832, Note_on_c, 0, 49, 0
2, 86844, Control_c, 0, 64, 66
2, 86859, Control_c, 0, 64, 40
2, 86874, Note_on_c, 0, 42, 69
2, 86875, Control_c, 0, 64, 0
2, 86878, Note_on_c, 0, 75, 73
2, 86887, Note_on_c, 0, 70, 65
2, 86889, Note_on_c, 0, 73, 0
2, 86997, Control_c, 0, 64, 58
2, 87012, Control_c, 0, 64, 67
2, 87015, Note_on_c, 0, 42, 0
2, 87027, Control_c, 0, 64, 70
2, 87035, Note_on_c, 0, 77, 76
2, 87042, Control_c, 0, 64, 71
2, 87053, Note_on_c, 0, 75, 0
2, 87057, Control_c, 0, 64, 71
2, 87118, Control_c, 0, 64, 71
2, 87133, Control_c, 0, 64, 69
2, 87149, Control_c, 0, 64, 63
2, 87164, Control_c, 0, 64, 0
2, 87182, Note_on_c, 0, 39, 61
2, 87193, Note_on_c, 0, 78, 72
2, 87205, Note_on_c, 0, 77, 0
2, 87285, Control_c, 0, 64, 46
2, 87300, Control_c, 0, 64, 66
2, 87301, Note_on_c, 0, 70, 0
2, 87315, Control_c, 0, 64, 70
2, 87330, Control_c, 0, 64, 72
2, 87342, Note_on_c, 0, 75, 67
2, 87346, Control_c, 0, 64, 73
2, 87361, Control_c, 0, 64, 74
2, 87373, Note_on_c, 0, 39, 0
2, 87376, Control_c, 0, 64, 75
2, 87392, Control_c, 0, 64, 75
2, 87401, Note_on_c, 0, 78, 0
2, 87438, Control_c, 0, 64, 74
2, 87452, Control_c, 0, 64, 71
2, 87468, Control_c, 0, 64, 59
2, 87491, Control_c, 0, 64, 0
2, 87493, Note_on_c, 0, 75, 0
2, 87513, Note_on_c, 0, 69, 54
2, 87516, Note_on_c, 0, 72, 61
2, 87520, Note_on_c, 0, 41, 62
2, 87612, Control_c, 0, 64, 56
2, 87628, Control_c, 0, 64, 67
2, 87643, Control_c, 0, 64, 71
2, 87657, Control_c, 0, 64, 73
2, 87672, Note_on_c, 0, 41, 0
2, 87673, Control_c, 0, 64, 75
2, 87676, Note_on_c, 0, 72, 0
2, 87678, Note_on_c, 0, 78, 71
2, 87688, Control_c, 0, 64, 77
2, 87703, Control_c, 0, 64, 78
2, 87719, Control_c, 0, 64, 79
2, 87734, Control_c, 0, 64, 79
2, 87810, Control_c, 0, 64, 79
2, 87826, Control_c, 0, 64, 76
2, 87841, Control_c, 0, 64, 68
2, 87847, Note_on_c, 0, 53, 63
2, 87849, Note_on_c, 0, 78, 0
2, 87856, Control_c, 0, 64, 29
2, 87856, Note_on_c, 0, 77, 61
2, 87871, Control_c, 0, 64, 0
2, 87947, Control_c, 0, 64, 40
2, 87962, Control_c, 0, 64, 65
2, 87977, Control_c, 0, 64, 69
2, 87991, Note_on_c, 0, 77, 0
2, 87992, Control_c, 0, 64, 72
2, 88003, Note_on_c, 0, 53, 0
2, 88003, Note_on_c, 0, 75, 62
2, 88007, Control_c, 0, 64, 73
2, 88022, Control_c, 0, 64, 75
2, 88038, Control_c, 0, 64, 76
2, 88053, Control_c, 0, 64, 77
2, 88069, Control_c, 0, 64, 78
2, 88159, Control_c, 0, 64, 75
2, 88162, Note_on_c, 0, 75, 0
2, 88165, Note_on_c, 0, 69, 0
2, 88174, Control_c, 0, 64, 67
2, 88180, Note_on_c, 0, 70, 57
2, 88190, Control_c, 0, 64, 0
2, 88193, Note_on_c, 0, 73, 47
2, 88195, Note_on_c, 0, 46, 50
2, 88290, Control_c, 0, 64, 19
2, 88305, Control_c, 0, 64, 63
2, 88320, Control_c, 0, 64, 67
2, 88335, Control_c, 0, 64, 68
2, 88336, Note_on_c, 0, 70, 0
2, 88363, Note_on_c, 0, 46, 0
2, 88366, Control_c, 0, 64, 69
2, 88379, Note_on_c, 0, 48, 55
2, 88381, Note_on_c, 0, 65, 56
2, 88396, Control_c, 0, 64, 68
2, 88411, Control_c, 0, 64, 68
2, 88427, Control_c, 0, 64, 67
2, 88442, Control_c, 0, 64, 65
2, 88456, Control_c, 0, 64, 62
2, 88472, Control_c, 0, 64, 59
2, 88487, Control_c, 0, 64, 53
2, 88501, Control_c, 0, 64, 47
2, 88517, Control_c, 0, 64, 41
2, 88532, Control_c, 0, 64, 34
2, 88548, Control_c, 0, 64, 26
2, 88562, Note_on_c, 0, 48, 0
2, 88563, Control_c, 0, 64, 0
2, 88565, Note_on_c, 0, 49, 46
2, 88568, Note_on_c, 0, 70, 61
2, 88622, Note_on_c, 0, 65, 0
2, 88734, Note_on_c, 0, 49, 0
2, 88734, Note_on_c, 0, 51, 46
2, 88861, Note_on_c, 0, 51, 0
2, 88892, Note_on_c, 0, 72, 62
2, 88897, Note_on_c, 0, 53, 49
2, 88921, Note_on_c, 0, 73, 0
2, 89043, Control_c, 0, 64, 41
2, 89053, Note_on_c, 0, 54, 49
2, 89058, Control_c, 0, 64, 55
2, 89059, Note_on_c, 0, 53, 0
2, 89073, Control_c, 0, 64, 60
2, 89088, Control_c, 0, 64, 62
2, 89103, Control_c, 0, 64, 63
2, 89119, Control_c, 0, 64, 64
2, 89164, Control_c, 0, 64, 63
2, 89179, Control_c, 0, 64, 58
2, 89191, Note_on_c, 0, 54, 0
2, 89195, Control_c, 0, 64, 33
2, 89198, Note_on_c, 0, 77, 66
2, 89204, Note_on_c, 0, 72, 0
2, 89208, Note_on_c, 0, 56, 55
2, 89210, Control_c, 0, 64, 0
2, 89217, Note_on_c, 0, 68, 54
2, 89229, Note_on_c, 0, 70, 0
2, 89317, Control_c, 0, 64, 56
2, 89332, Control_c, 0, 64, 67
2, 89347, Control_c, 0, 64, 71
2, 89356, Note_on_c, 0, 53, 52
2, 89357, Note_on_c, 0, 56, 0
2, 89362, Control_c, 0, 64, 73
2, 89377, Control_c, 0, 64, 74
2, 89393, Control_c, 0, 64, 74
2, 89426, Note_on_c, 0, 77, 0
2, 89478, Note_on_c, 0, 53, 0
2, 89483, Control_c, 0, 64, 73
2, 89498, Control_c, 0, 64, 70
2, 89503, Note_on_c, 0, 70, 71
2, 89510, Note_on_c, 0, 54, 50
2, 89514, Control_c, 0, 64, 65
2, 89529, Control_c, 0, 64, 58
2, 89536, Note_on_c, 0, 68, 0
2, 89545, Control_c, 0, 64, 53
2, 89559, Control_c, 0, 64, 53
2, 89574, Control_c, 0, 64, 51
2, 89590, Control_c, 0, 64, 47
2, 89605, Control_c, 0, 64, 44
2, 89620, Control_c, 0, 64, 41
2, 89650, Control_c, 0, 64, 42
2, 89662, Note_on_c, 0, 54, 0
2, 89666, Note_on_c, 0, 56, 52
2, 89675, Note_on_c, 0, 61, 62
2, 89727, Control_c, 0, 64, 42
2, 89826, Control_c, 0, 64, 41
2, 89840, Control_c, 0, 64, 39
2, 89847, Note_on_c, 0, 66, 64
2, 89855, Control_c, 0, 64, 37
2, 89857, Note_on_c, 0, 58, 50
2, 89861, Note_on_c, 0, 61, 0
2, 89872, Control_c, 0, 64, 32
2, 89887, Control_c, 0, 64, 26
2, 89902, Control_c, 0, 64, 16
2, 89917, Control_c, 0, 64, 0
2, 89934, Note_on_c, 0, 56, 0
2, 89948, Control_c, 0, 64, 18
2, 89963, Control_c, 0, 64, 32
2, 89978, Control_c, 0, 64, 44
2, 89991, Note_on_c, 0, 58, 0
2, 89993, Control_c, 0, 64, 56
2, 90008, Control_c, 0, 64, 62
2, 90020, Note_on_c, 0, 60, 48
2, 90023, Control_c, 0, 64, 65
2, 90039, Control_c, 0, 64, 66
2, 90054, Control_c, 0, 64, 66
2, 90100, Control_c, 0, 64, 65
2, 90114, Control_c, 0, 64, 64
2, 90129, Control_c, 0, 64, 59
2, 90145, Control_c, 0, 64, 45
2, 90160, Control_c, 0, 64, 0
2, 90169, Note_on_c, 0, 70, 0
2, 90170, Note_on_c, 0, 68, 64
2, 90181, Note_on_c, 0, 61, 49
2, 90188, Note_on_c, 0, 60, 0
2, 90312, Control_c, 0, 64, 61
2, 90320, Note_on_c, 0, 61, 0
2, 90320, Note_on_c, 0, 63, 59
2, 90326, Control_c, 0, 64, 68
2, 90341, Control_c, 0, 64, 70
2, 90357, Control_c, 0, 64, 72
2, 90372, Control_c, 0, 64, 74
2, 90388, Control_c, 0, 64, 75
2, 90403, Control_c, 0, 64, 76
2, 90448, Control_c, 0, 64, 75
2, 90463, Control_c, 0, 64, 71
2, 90472, Note_on_c, 0, 63, 0
2, 90478, Note_on_c, 0, 66, 0
2, 90479, Control_c, 0, 64, 60
2, 90479, Note_on_c, 0, 73, 66
2, 90483, Note_on_c, 0, 61, 53
2, 90488, Note_on_c, 0, 65, 51
2, 90494, Control_c, 0, 64, 0
2, 90531, Note_on_c, 0, 68, 0
2, 90593, Control_c, 0, 64, 57
2, 90607, Control_c, 0, 64, 67
2, 90613, Note_on_c, 0, 61, 0
2, 90622, Control_c, 0, 64, 72
2, 90638, Control_c, 0, 64, 74
2, 90645, Note_on_c, 0, 60, 57
2, 90653, Control_c, 0, 64, 76
2, 90669, Control_c, 0, 64, 77
2, 90671, Note_on_c, 0, 73, 0
2, 90685, Control_c, 0, 64, 78
2, 90775, Control_c, 0, 64, 78
2, 90791, Control_c, 0, 64, 76
2, 90804, Note_on_c, 0, 66, 66
2, 90806, Control_c, 0, 64, 71
2, 90809, Note_on_c, 0, 58, 52
2, 90821, Control_c, 0, 64, 64
2, 90821, Note_on_c, 0, 60, 0
2, 90837, Control_c, 0, 64, 51
2, 90852, Control_c, 0, 64, 44
2, 90868, Control_c, 0, 64, 44
2, 90897, Control_c, 0, 64, 42
2, 90913, Control_c, 0, 64, 37
2, 90928, Control_c, 0, 64, 36
2, 90943, Control_c, 0, 64, 38
2, 90956, Note_on_c, 0, 58, 0
2, 90958, Control_c, 0, 64, 40
2, 90959, Note_on_c, 0, 56, 54
2, 90973, Control_c, 0, 64, 42
2, 90989, Control_c, 0, 64, 43
2, 91004, Control_c, 0, 64, 44
2, 91065, Control_c, 0, 64, 45
2, 91080, Control_c, 0, 64, 46
2, 91093, Note_on_c, 0, 56, 0
2, 91115, Note_on_c, 0, 65, 0
2, 91117, Note_on_c, 0, 63, 56
2, 91123, Note_on_c, 0, 54, 53
2, 91125, Control_c, 0, 64, 46
2, 91156, Control_c, 0, 64, 47
2, 91170, Control_c, 0, 64, 48
2, 91186, Control_c, 0, 64, 50
2, 91201, Control_c, 0, 64, 50
2, 91232, Control_c, 0, 64, 51
2, 91246, Control_c, 0, 64, 52
2, 91258, Note_on_c, 0, 54, 0
2, 91261, Control_c, 0, 64, 53
2, 91269, Note_on_c, 0, 53, 50
2, 91272, Note_on_c, 0, 61, 58
2, 91277, Control_c, 0, 64, 54
2, 91308, Control_c, 0, 64, 54
2, 91326, Note_on_c, 0, 63, 0
2, 91346, Control_c, 0, 64, 53
2, 91361, Control_c, 0, 64, 51
2, 91375, Control_c, 0, 64, 48
2, 91391, Control_c, 0, 64, 40
2, 91406, Control_c, 0, 64, 18
2, 91421, Control_c, 0, 64, 0
2, 91432, Note_on_c, 0, 60, 61
2, 91433, Note_on_c, 0, 61, 0
2, 91443, Note_on_c, 0, 53, 0
2, 91445, Note_on_c, 0, 51, 52
2, 91543, Control_c, 0, 64, 24
2, 91559, Control_c, 0, 64, 59
2, 91565, Note_on_c, 0, 51, 0
2, 91574, Control_c, 0, 64, 65
2, 91590, Control_c, 0, 64, 68
2, 91590, Note_on_c, 0, 53, 58
2, 91604, Control_c, 0, 64, 70
2, 91619, Control_c, 0, 64, 72
2, 91635, Control_c, 0, 64, 72
2, 91650, Control_c, 0, 64, 73
2, 91696, Control_c, 0, 64, 72
2, 91712, Control_c, 0, 64, 72
2, 91726, Control_c, 0, 64, 69
2, 91732, Note_on_c, 0, 60, 0
2, 91741, Control_c, 0, 64, 64
2, 91749, Note_on_c, 0, 58, 57
2, 91754, Note_on_c, 0, 53, 0
2, 91756, Note_on_c, 0, 54, 59
2, 91757, Control_c, 0, 64, 40
2, 91772, Control_c, 0, 64, 0
2, 91902, Note_on_c, 0, 54, 0
2, 91909, Control_c, 0, 64, 56
2, 91915, Note_on_c, 0, 51, 61
2, 91924, Control_c, 0, 64, 65
2, 91938, Control_c, 0, 64, 68
2, 91954, Control_c, 0, 64, 69
2, 91969, Control_c, 0, 64, 71
2, 91985, Control_c, 0, 64, 73
2, 92000, Control_c, 0, 64, 74
2, 92014, Control_c, 0, 64, 75
2, 92081, Note_on_c, 0, 66, 0
2, 92098, Control_c, 0, 64, 74
2, 92114, Control_c, 0, 64, 70
2, 92116, Note_on_c, 0, 51, 0
2, 92124, Note_on_c, 0, 53, 73
2, 92124, Note_on_c, 0, 57, 54
2, 92129, Control_c, 0, 64, 63
2, 92134, Note_on_c, 0, 58, 0
2, 92143, Control_c, 0, 64, 32
2, 92159, Control_c, 0, 64, 0
2, 92280, Control_c, 0, 64, 63
2, 92295, Control_c, 0, 64, 68
2, 92311, Control_c, 0, 64, 71
2, 92326, Note_on_c, 0, 65, 50
2, 92327, Control_c, 0, 64, 73
2, 92342, Control_c, 0, 64, 74
2, 92358, Control_c, 0, 64, 75
2, 92372, Control_c, 0, 64, 76
2, 92388, Control_c, 0, 64, 76
2, 92444, Note_on_c, 0, 57, 0
2, 92465, Control_c, 0, 64, 76
2, 92480, Control_c, 0, 64, 75
2, 92495, Control_c, 0, 64, 74
2, 92508, Note_on_c, 0, 63, 55
2, 92511, Control_c, 0, 64, 71
2, 92514, Note_on_c, 0, 58, 62
2, 92525, Control_c, 0, 64, 68
2, 92540, Control_c, 0, 64, 64
2, 92549, Note_on_c, 0, 65, 0
2, 92556, Control_c, 0, 64, 60
2, 92571, Control_c, 0, 64, 60
2, 92586, Control_c, 0, 64, 60
2, 92601, Control_c, 0, 64, 60
2, 92616, Control_c, 0, 64, 57
2, 92632, Control_c, 0, 64, 53
2, 92647, Control_c, 0, 64, 49
2, 92689, Note_on_c, 0, 61, 53
2, 92692, Control_c, 0, 64, 49
2, 92706, Note_on_c, 0, 63, 0
2, 92708, Control_c, 0, 64, 48
2, 92723, Control_c, 0, 64, 47
2, 92738, Control_c, 0, 64, 46
2, 92839, Note_on_c, 0, 61, 0
2, 92845, Control_c, 0, 64, 46
2, 92860, Note_on_c, 0, 60, 54
2, 92867, Control_c, 0, 64, 45
2, 92882, Control_c, 0, 64, 44
2, 92943, Control_c, 0, 64, 44
2, 92959, Control_c, 0, 64, 42
2, 92974, Control_c, 0, 64, 40
2, 93004, Control_c, 0, 64, 39
2, 93017, Note_on_c, 0, 61, 55
2, 93019, Control_c, 0, 64, 39
2, 93029, Note_on_c, 0, 60, 0
2, 93035, Control_c, 0, 64, 38
2, 93050, Control_c, 0, 64, 36
2, 93065, Control_c, 0, 64, 34
2, 93080, Control_c, 0, 64, 34
2, 93110, Control_c, 0, 64, 32
2, 93125, Control_c, 0, 64, 31
2, 93141, Control_c, 0, 64, 28
2, 93157, Control_c, 0, 64, 27
2, 93172, Control_c, 0, 64, 26
2, 93178, Note_on_c, 0, 63, 56
2, 93187, Note_on_c, 0, 61, 0
2, 93192, Note_on_c, 0, 57, 47
2, 93200, Note_on_c, 0, 58, 0
2, 93203, Control_c, 0, 64, 25
2, 93233, Control_c, 0, 64, 22
2, 93248, Control_c, 0, 64, 19
2, 93263, Control_c, 0, 64, 18
2, 93309, Control_c, 0, 64, 16
2, 93324, Control_c, 0, 64, 13
2, 93334, Note_on_c, 0, 63, 0
2, 93339, Control_c, 0, 64, 0
2, 93341, Note_on_c, 0, 60, 51
2, 93481, Note_on_c, 0, 60, 0
2, 93497, Note_on_c, 0, 61, 58
2, 93516, Note_on_c, 0, 58, 50
2, 93558, Note_on_c, 0, 57, 0
2, 93663, Note_on_c, 0, 58, 0
2, 93663, Note_on_c, 0, 63, 56
2, 93677, Note_on_c, 0, 60, 44
2, 93714, Note_on_c, 0, 61, 0
2, 93812, Note_on_c, 0, 63, 0
2, 93823, Note_on_c, 0, 60, 0
2, 93823, Note_on_c, 0, 65, 61
2, 93833, Note_on_c, 0, 61, 56
2, 93973, Note_on_c, 0, 67, 64
2, 93978, Note_on_c, 0, 58, 56
2, 94003, Note_on_c, 0, 65, 0
2, 94094, Note_on_c, 0, 61, 0
2, 94136, Note_on_c, 0, 58, 0
2, 94138, Note_on_c, 0, 69, 65
2, 94139, Note_on_c, 0, 60, 59
2, 94178, Note_on_c, 0, 67, 0
2, 94288, Note_on_c, 0, 70, 72
2, 94306, Note_on_c, 0, 61, 56
2, 94322, Note_on_c, 0, 69, 0
2, 94334, Note_on_c, 0, 60, 0
2, 94456, Note_on_c, 0, 72, 73
2, 94466, Note_on_c, 0, 63, 60
2, 94487, Note_on_c, 0, 70, 0
2, 94579, Note_on_c, 0, 61, 0
2, 94606, Note_on_c, 0, 69, 76
2, 94613, Note_on_c, 0, 60, 64
2, 94626, Note_on_c, 0, 72, 0
2, 94635, Note_on_c, 0, 63, 0
2, 94764, Note_on_c, 0, 70, 77
2, 94780, Note_on_c, 0, 61, 70
2, 94800, Note_on_c, 0, 69, 0
2, 94814, Note_on_c, 0, 60, 0
2, 94919, Control_c, 0, 64, 16
2, 94919, Note_on_c, 0, 72, 75
2, 94923, Note_on_c, 0, 63, 69
2, 94934, Control_c, 0, 64, 19
2, 94943, Note_on_c, 0, 70, 0
2, 94969, Note_on_c, 0, 61, 0
2, 94979, Control_c, 0, 64, 10
2, 94995, Control_c, 0, 64, 0
2, 95082, Note_on_c, 0, 65, 77
2, 95082, Note_on_c, 0, 73, 77
2, 95087, Note_on_c, 0, 63, 0
2, 95087, Note_on_c, 0, 72, 0
2, 95170, Control_c, 0, 64, 62
2, 95185, Control_c, 0, 64, 71
2, 95200, Control_c, 0, 64, 78
2, 95209, Note_on_c, 0, 53, 0
2, 95215, Control_c, 0, 64, 82
2, 95221, Note_on_c, 0, 65, 0
2, 95231, Control_c, 0, 64, 84
2, 95234, Note_on_c, 0, 70, 80
2, 95244, Note_on_c, 0, 67, 69
2, 95245, Control_c, 0, 64, 85
2, 95260, Control_c, 0, 64, 86
2, 95269, Note_on_c, 0, 73, 0
2, 95276, Control_c, 0, 64, 87
2, 95291, Control_c, 0, 64, 87
2, 95322, Control_c, 0, 64, 88
2, 95367, Control_c, 0, 64, 87
2, 95382, Control_c, 0, 64, 86
2, 95396, Note_on_c, 0, 69, 82
2, 95397, Note_on_c, 0, 65, 74
2, 95398, Control_c, 0, 64, 83
2, 95404, Note_on_c, 0, 72, 83
2, 95413, Control_c, 0, 64, 77
2, 95429, Control_c, 0, 64, 66
2, 95434, Note_on_c, 0, 67, 0
2, 95443, Control_c, 0, 64, 45
2, 95444, Note_on_c, 0, 70, 0
2, 95458, Control_c, 0, 64, 0
2, 95557, Note_on_c, 0, 73, 77
2, 95560, Note_on_c, 0, 70, 66
2, 95575, Note_on_c, 0, 72, 0
2, 95595, Note_on_c, 0, 69, 0
2, 95612, Control_c, 0, 64, 10
2, 95628, Control_c, 0, 64, 24
2, 95643, Control_c, 0, 64, 21
2, 95658, Control_c, 0, 64, 0
2, 95721, Note_on_c, 0, 72, 65
2, 95722, Note_on_c, 0, 75, 79
2, 95734, Control_c, 0, 64, 21
2, 95739, Note_on_c, 0, 73, 0
2, 95746, Note_on_c, 0, 70, 0
2, 95749, Control_c, 0, 64, 48
2, 95764, Control_c, 0, 64, 62
2, 95779, Control_c, 0, 64, 68
2, 95794, Control_c, 0, 64, 73
2, 95795, Note_on_c, 0, 72, 0
2, 95809, Control_c, 0, 64, 79
2, 95825, Control_c, 0, 64, 80
2, 95859, Note_on_c, 0, 75, 0
2, 95871, Note_on_c, 0, 72, 80
2, 95877, Note_on_c, 0, 69, 69
2, 95916, Control_c, 0, 64, 79
2, 95939, Control_c, 0, 64, 78
2, 95954, Control_c, 0, 64, 77
2, 95969, Control_c, 0, 64, 75
2, 95985, Control_c, 0, 64, 72
2, 96000, Control_c, 0, 64, 67
2, 96014, Control_c, 0, 64, 62
2, 96030, Control_c, 0, 64, 59
2, 96031, Note_on_c, 0, 73, 81
2, 96035, Note_on_c, 0, 70, 74
2, 96059, Note_on_c, 0, 72, 0
2, 96060, Control_c, 0, 64, 58
2, 96076, Control_c, 0, 64, 55
2, 96083, Note_on_c, 0, 69, 0
2, 96090, Control_c, 0, 64, 49
2, 96106, Control_c, 0, 64, 43
2, 96136, Control_c, 0, 64, 44
2, 96166, Control_c, 0, 64, 44
2, 96178, Note_on_c, 0, 70, 0
2, 96185, Note_on_c, 0, 72, 68
2, 96189, Note_on_c, 0, 75, 80
2, 96211, Control_c, 0, 64, 45
2, 96223, Note_on_c, 0, 73, 0
2, 96227, Control_c, 0, 64, 45
2, 96273, Control_c, 0, 64, 46
2, 96287, Control_c, 0, 64, 46
2, 96345, Note_on_c, 0, 73, 66
2, 96347, Note_on_c, 0, 75, 0
2, 96350, Note_on_c, 0, 72, 0
2, 96350, Note_on_c, 0, 77, 84
2, 96394, Control_c, 0, 64, 46
2, 96409, Control_c, 0, 64, 45
2, 96471, Control_c, 0, 64, 44
2, 96486, Control_c, 0, 64, 44
2, 96494, Note_on_c, 0, 70, 66
2, 96496, Note_on_c, 0, 79, 90
2, 96516, Control_c, 0, 64, 44
2, 96523, Note_on_c, 0, 77, 0
2, 96547, Control_c, 0, 64, 44
2, 96592, Control_c, 0, 64, 44
2, 96630, Note_on_c, 0, 73, 0
2, 96652, Control_c, 0, 64, 44
2, 96655, Note_on_c, 0, 72, 64
2, 96655, Note_on_c, 0, 81, 94
2, 96665, Note_on_c, 0, 70, 0
2, 96668, Control_c, 0, 64, 43
2, 96679, Note_on_c, 0, 79, 0
2, 96683, Control_c, 0, 64, 43
2, 96707, Control_c, 0, 64, 42
2, 96721, Control_c, 0, 64, 42
2, 96812, Control_c, 0, 64, 43
2, 96820, Note_on_c, 0, 82, 89
2, 96828, Control_c, 0, 64, 44
2, 96828, Note_on_c, 0, 73, 65
2, 96843, Control_c, 0, 64, 45
2, 96851, Note_on_c, 0, 81, 0
2, 96857, Control_c, 0, 64, 47
2, 96857, Note_on_c, 0, 72, 0
2, 96873, Control_c, 0, 64, 51
2, 96888, Control_c, 0, 64, 56
2, 96903, Control_c, 0, 64, 62
2, 96919, Control_c, 0, 64, 64
2, 96933, Control_c, 0, 64, 66
2, 96949, Control_c, 0, 64, 65
2, 96964, Control_c, 0, 64, 64
2, 96979, Control_c, 0, 64, 59
2, 96980, Note_on_c, 0, 84, 88
2, 96985, Note_on_c, 0, 82, 0
2, 96995, Control_c, 0, 64, 0
2, 96995, Note_on_c, 0, 75, 63
2, 97117, Control_c, 0, 64, 59
2, 97131, Control_c, 0, 64, 68
2, 97138, Note_on_c, 0, 81, 87
2, 97139, Note_on_c, 0, 72, 69
2, 97147, Control_c, 0, 64, 73
2, 97154, Note_on_c, 0, 84, 0
2, 97162, Control_c, 0, 64, 80
2, 97176, Control_c, 0, 64, 85
2, 97177, Note_on_c, 0, 75, 0
2, 97183, Note_on_c, 0, 81, 0
2, 97187, Note_on_c, 0, 73, 0
2, 97192, Control_c, 0, 64, 89
2, 97207, Control_c, 0, 64, 91
2, 97217, Note_on_c, 0, 72, 0
2, 97222, Control_c, 0, 64, 92
2, 97239, Control_c, 0, 64, 93
2, 97254, Control_c, 0, 64, 94
2, 97270, Control_c, 0, 64, 95
2, 97285, Note_on_c, 0, 65, 0
2, 97367, Note_on_c, 0, 73, 11
2, 97389, Note_on_c, 0, 82, 78
2, 97391, Control_c, 0, 64, 94
2, 97406, Control_c, 0, 64, 93
2, 97407, Note_on_c, 0, 74, 61
2, 97420, Control_c, 0, 64, 90
2, 97436, Control_c, 0, 64, 87
2, 97451, Control_c, 0, 64, 83
2, 97475, Control_c, 0, 64, 79
2, 97489, Control_c, 0, 64, 73
2, 97505, Control_c, 0, 64, 67
2, 97520, Control_c, 0, 64, 59
2, 97535, Control_c, 0, 64, 39
2, 97551, Control_c, 0, 64, 32
2, 97560, Note_on_c, 0, 73, 0
2, 97580, Control_c, 0, 64, 30
2, 97596, Control_c, 0, 64, 0
2, 97597, Note_on_c, 0, 72, 73
2, 97597, Note_on_c, 0, 74, 0
2, 97598, Note_on_c, 0, 66, 68
2, 97672, Control_c, 0, 64, 10
2, 97687, Control_c, 0, 64, 16
2, 97701, Control_c, 0, 64, 22
2, 97717, Control_c, 0, 64, 31
2, 97732, Control_c, 0, 64, 34
2, 97737, Note_on_c, 0, 66, 0
2, 97748, Control_c, 0, 64, 35
2, 97759, Note_on_c, 0, 74, 69
2, 97762, Note_on_c, 0, 65, 69
2, 97763, Control_c, 0, 64, 36
2, 97785, Note_on_c, 0, 72, 0
2, 97793, Control_c, 0, 64, 38
2, 97808, Control_c, 0, 64, 41
2, 97822, Control_c, 0, 64, 45
2, 97838, Control_c, 0, 64, 46
2, 97853, Control_c, 0, 64, 45
2, 97869, Control_c, 0, 64, 45
2, 97884, Control_c, 0, 64, 46
2, 97899, Control_c, 0, 64, 47
2, 97909, Note_on_c, 0, 65, 0
2, 97914, Note_on_c, 0, 63, 63
2, 97915, Control_c, 0, 64, 48
2, 97918, Note_on_c, 0, 75, 71
2, 97941, Note_on_c, 0, 74, 0
2, 97946, Control_c, 0, 64, 49
2, 97975, Control_c, 0, 64, 49
2, 98036, Control_c, 0, 64, 50
2, 98067, Note_on_c, 0, 63, 0
2, 98070, Note_on_c, 0, 62, 68
2, 98077, Note_on_c, 0, 75, 0
2, 98078, Note_on_c, 0, 77, 84
2, 98098, Control_c, 0, 64, 49
2, 98114, Control_c, 0, 64, 50
2, 98143, Control_c, 0, 64, 49
2, 98159, Control_c, 0, 64, 49
2, 98174, Control_c, 0, 64, 49
2, 98190, Control_c, 0, 64, 50
2, 98236, Note_on_c, 0, 60, 65
2, 98236, Note_on_c, 0, 78, 83
2, 98254, Note_on_c, 0, 77, 0
2, 98257, Control_c, 0, 64, 50
2, 98273, Control_c, 0, 64, 51
2, 98282, Note_on_c, 0, 62, 0
2, 98318, Control_c, 0, 64, 49
2, 98333, Control_c, 0, 64, 48
2, 98349, Control_c, 0, 64, 47
2, 98364, Control_c, 0, 64, 45
2, 98379, Control_c, 0, 64, 43
2, 98387, Note_on_c, 0, 58, 71
2, 98389, Note_on_c, 0, 80, 87
2, 98394, Note_on_c, 0, 60, 0
2, 98395, Control_c, 0, 64, 42
2, 98410, Note_on_c, 0, 78, 0
2, 98425, Control_c, 0, 64, 47
2, 98440, Control_c, 0, 64, 57
2, 98455, Control_c, 0, 64, 64
2, 98470, Control_c, 0, 64, 71
2, 98485, Control_c, 0, 64, 76
2, 98500, Control_c, 0, 64, 80
2, 98516, Control_c, 0, 64, 82
2, 98522, Note_on_c, 0, 58, 0
2, 98531, Control_c, 0, 64, 82
2, 98535, Note_on_c, 0, 62, 73
2, 98546, Control_c, 0, 64, 83
2, 98548, Note_on_c, 0, 77, 81
2, 98562, Control_c, 0, 64, 84
2, 98660, Note_on_c, 0, 80, 0
2, 98683, Note_on_c, 0, 62, 0
2, 98698, Control_c, 0, 64, 83
2, 98714, Control_c, 0, 64, 83
2, 98718, Note_on_c, 0, 51, 66
2, 98719, Note_on_c, 0, 78, 83
2, 98729, Control_c, 0, 64, 81
2, 98740, Note_on_c, 0, 77, 0
2, 98743, Control_c, 0, 64, 79
2, 98759, Control_c, 0, 64, 74
2, 98774, Control_c, 0, 64, 70
2, 98789, Control_c, 0, 64, 65
2, 98804, Control_c, 0, 64, 62
2, 98819, Control_c, 0, 64, 61
2, 98835, Control_c, 0, 64, 60
2, 98850, Control_c, 0, 64, 60
2, 98866, Control_c, 0, 64, 59
2, 98877, Note_on_c, 0, 53, 65
2, 98882, Control_c, 0, 64, 58
2, 98883, Note_on_c, 0, 51, 0
2, 98896, Control_c, 0, 64, 57
2, 98942, Control_c, 0, 64, 56
2, 98958, Control_c, 0, 64, 55
2, 99011, Control_c, 0, 64, 55
2, 99027, Control_c, 0, 64, 54
2, 99029, Note_on_c, 0, 54, 67
2, 99036, Note_on_c, 0, 77, 75
2, 99042, Control_c, 0, 64, 53
2, 99044, Note_on_c, 0, 78, 0
2, 99056, Control_c, 0, 64, 52
2, 99059, Note_on_c, 0, 53, 0
2, 99117, Control_c, 0, 64, 51
2, 99132, Control_c, 0, 64, 51
2, 99148, Control_c, 0, 64, 51
2, 99187, Note_on_c, 0, 56, 71
2, 99190, Note_on_c, 0, 75, 77
2, 99193, Note_on_c, 0, 54, 0
2, 99221, Note_on_c, 0, 77, 0
2, 99223, Control_c, 0, 64, 52
2, 99284, Control_c, 0, 64, 51
2, 99299, Control_c, 0, 64, 51
2, 99315, Control_c, 0, 64, 50
2, 99330, Control_c, 0, 64, 48
2, 99341, Note_on_c, 0, 58, 75
2, 99345, Note_on_c, 0, 74, 77
2, 99346, Control_c, 0, 64, 41
2, 99354, Note_on_c, 0, 56, 0
2, 99361, Control_c, 0, 64, 32
2, 99362, Note_on_c, 0, 75, 0
2, 99376, Control_c, 0, 64, 0
2, 99482, Control_c, 0, 64, 45
2, 99485, Note_on_c, 0, 58, 0
2, 99497, Control_c, 0, 64, 63
2, 99498, Note_on_c, 0, 60, 70
2, 99512, Control_c, 0, 64, 68
2, 99527, Control_c, 0, 64, 72
2, 99542, Control_c, 0, 64, 76
2, 99558, Control_c, 0, 64, 77
2, 99599, Note_on_c, 0, 74, 0
2, 99634, Control_c, 0, 64, 77
2, 99648, Control_c, 0, 64, 74
2, 99651, Note_on_c, 0, 77, 84
2, 99653, Note_on_c, 0, 62, 72
2, 99663, Control_c, 0, 64, 69
2, 99677, Note_on_c, 0, 60, 0
2, 99679, Control_c, 0, 64, 59
2, 99695, Control_c, 0, 64, 0
2, 99786, Note_on_c, 0, 62, 0
2, 99795, Control_c, 0, 64, 58
2, 99798, Note_on_c, 0, 58, 71
2, 99810, Control_c, 0, 64, 66
2, 99825, Control_c, 0, 64, 69
2, 99840, Control_c, 0, 64, 72
2, 99855, Control_c, 0, 64, 73
2, 99870, Control_c, 0, 64, 74
2, 99917, Note_on_c, 0, 77, 0
2, 99931, Control_c, 0, 64, 73
2, 99946, Control_c, 0, 64, 70
2, 99954, Note_on_c, 0, 70, 79
2, 99956, Note_on_c, 0, 66, 77
2, 99961, Control_c, 0, 64, 65
2, 99967, Note_on_c, 0, 58, 0
2, 99976, Control_c, 0, 64, 54
2, 99992, Control_c, 0, 64, 43
2, 100007, Control_c, 0, 64, 42
2, 100021, Control_c, 0, 64, 40
2, 100037, Control_c, 0, 64, 35
2, 100052, Control_c, 0, 64, 28
2, 100068, Control_c, 0, 64, 19
2, 100097, Control_c, 0, 64, 26
2, 100110, Note_on_c, 0, 66, 0
2, 100113, Control_c, 0, 64, 32
2, 100113, Note_on_c, 0, 65, 75
2, 100159, Control_c, 0, 64, 33
2, 100174, Control_c, 0, 64, 36
2, 100190, Control_c, 0, 64, 43
2, 100205, Control_c, 0, 64, 46
2, 100250, Control_c, 0, 64, 47
2, 100260, Note_on_c, 0, 63, 69
2, 100261, Note_on_c, 0, 70, 0
2, 100262, Note_on_c, 0, 78, 73
2, 100266, Control_c, 0, 64, 48
2, 100272, Note_on_c, 0, 65, 0
2, 100280, Control_c, 0, 64, 49
2, 100295, Control_c, 0, 64, 49
2, 100311, Control_c, 0, 64, 48
2, 100341, Control_c, 0, 64, 48
2, 100413, Note_on_c, 0, 63, 0
2, 100414, Note_on_c, 0, 77, 81
2, 100415, Note_on_c, 0, 78, 0
2, 100417, Control_c, 0, 64, 48
2, 100419, Note_on_c, 0, 65, 66
2, 100447, Control_c, 0, 64, 47
2, 100462, Control_c, 0, 64, 47
2, 100478, Control_c, 0, 64, 46
2, 100509, Control_c, 0, 64, 45
2, 100524, Control_c, 0, 64, 45
2, 100547, Control_c, 0, 64, 44
2, 100562, Control_c, 0, 64, 43
2, 100570, Note_on_c, 0, 75, 89
2, 100577, Control_c, 0, 64, 41
2, 100580, Note_on_c, 0, 66, 71
2, 100589, Note_on_c, 0, 65, 0
2, 100593, Control_c, 0, 64, 40
2, 100608, Control_c, 0, 64, 39
2, 100615, Note_on_c, 0, 77, 0
2, 100639, Control_c, 0, 64, 40
2, 100654, Control_c, 0, 64, 41
2, 100669, Control_c, 0, 64, 42
2, 100684, Control_c, 0, 64, 46
2, 100699, Control_c, 0, 64, 50
2, 100714, Control_c, 0, 64, 55
2, 100726, Note_on_c, 0, 68, 76
2, 100728, Note_on_c, 0, 66, 0
2, 100729, Control_c, 0, 64, 60
2, 100745, Control_c, 0, 64, 61
2, 100760, Control_c, 0, 64, 62
2, 100775, Control_c, 0, 64, 62
2, 100790, Control_c, 0, 64, 63
2, 100805, Control_c, 0, 64, 63
2, 100820, Control_c, 0, 64, 63
2, 100836, Control_c, 0, 64, 62
2, 100840, Note_on_c, 0, 75, 0
2, 100851, Control_c, 0, 64, 61
2, 100861, Note_on_c, 0, 68, 0
2, 100866, Control_c, 0, 64, 58
2, 100874, Note_on_c, 0, 70, 71
2, 100878, Note_on_c, 0, 73, 82
2, 100880, Control_c, 0, 64, 53
2, 100895, Control_c, 0, 64, 45
2, 100911, Control_c, 0, 64, 0
2, 101002, Control_c, 0, 64, 36
2, 101014, Note_on_c, 0, 66, 72
2, 101017, Control_c, 0, 64, 57
2, 101030, Note_on_c, 0, 70, 0
2, 101033, Control_c, 0, 64, 64
2, 101048, Control_c, 0, 64, 68
2, 101063, Control_c, 0, 64, 71
2, 101078, Control_c, 0, 64, 73
2, 101093, Control_c, 0, 64, 74
2, 101109, Control_c, 0, 64, 74
2, 101154, Control_c, 0, 64, 73
2, 101169, Control_c, 0, 64, 71
2, 101177, Note_on_c, 0, 63, 72
2, 101182, Note_on_c, 0, 73, 0
2, 101185, Control_c, 0, 64, 64
2, 101186, Note_on_c, 0, 72, 83
2, 101199, Control_c, 0, 64, 32
2, 101204, Note_on_c, 0, 66, 0
2, 101214, Control_c, 0, 64, 0
2, 101214, Note_on_c, 0, 82, 0
2, 101314, Control_c, 0, 64, 57
2, 101329, Control_c, 0, 64, 68
2, 101345, Control_c, 0, 64, 72
2, 101345, Note_on_c, 0, 63, 0
2, 101348, Note_on_c, 0, 61, 68
2, 101360, Control_c, 0, 64, 75
2, 101391, Control_c, 0, 64, 75
2, 101486, Note_on_c, 0, 61, 0
2, 101497, Control_c, 0, 64, 75
2, 101505, Note_on_c, 0, 81, 85
2, 101506, Note_on_c, 0, 60, 69
2, 101512, Control_c, 0, 64, 74
2, 101527, Control_c, 0, 64, 72
2, 101542, Control_c, 0, 64, 70
2, 101557, Control_c, 0, 64, 66
2, 101572, Control_c, 0, 64, 63
2, 101588, Control_c, 0, 64, 61
2, 101603, Control_c, 0, 64, 60
2, 101640, Note_on_c, 0, 60, 0
2, 101648, Control_c, 0, 64, 59
2, 101650, Note_on_c, 0, 58, 65
2, 101662, Note_on_c, 0, 82, 87
2, 101663, Control_c, 0, 64, 57
2, 101679, Control_c, 0, 64, 56
2, 101693, Control_c, 0, 64, 56
2, 101701, Note_on_c, 0, 81, 0
2, 101709, Control_c, 0, 64, 57
2, 101739, Control_c, 0, 64, 56
2, 101755, Control_c, 0, 64, 55
2, 101770, Control_c, 0, 64, 54
2, 101786, Control_c, 0, 64, 49
2, 101801, Control_c, 0, 64, 10
2, 101807, Note_on_c, 0, 58, 0
2, 101815, Control_c, 0, 64, 0
2, 101834, Note_on_c, 0, 57, 63
2, 101834, Note_on_c, 0, 84, 94
2, 101875, Note_on_c, 0, 82, 0
2, 101922, Control_c, 0, 64, 49
2, 101937, Control_c, 0, 64, 68
2, 101941, Note_on_c, 0, 84, 0
2, 101953, Control_c, 0, 64, 75
2, 101967, Control_c, 0, 64, 80
2, 101982, Control_c, 0, 64, 82
2, 101993, Note_on_c, 0, 55, 65
2, 101998, Control_c, 0, 64, 83
2, 102007, Note_on_c, 0, 57, 0
2, 102013, Control_c, 0, 64, 84
2, 102020, Note_on_c, 0, 72, 0
2, 102137, Note_on_c, 0, 55, 0
2, 102142, Control_c, 0, 64, 83
2, 102156, Note_on_c, 0, 72, 79
2, 102156, Note_on_c, 0, 75, 86
2, 102158, Control_c, 0, 64, 81
2, 102161, Note_on_c, 0, 53, 64
2, 102173, Control_c, 0, 64, 78
2, 102189, Control_c, 0, 64, 74
2, 102204, Control_c, 0, 64, 69
2, 102219, Control_c, 0, 64, 64
2, 102235, Control_c, 0, 64, 60
2, 102250, Control_c, 0, 64, 59
2, 102266, Control_c, 0, 64, 58
2, 102280, Control_c, 0, 64, 56
2, 102295, Control_c, 0, 64, 52
2, 102295, Note_on_c, 0, 53, 0
2, 102311, Control_c, 0, 64, 49
2, 102317, Note_on_c, 0, 57, 64
2, 102326, Control_c, 0, 64, 49
2, 102340, Control_c, 0, 64, 49
2, 102371, Control_c, 0, 64, 48
2, 102387, Control_c, 0, 64, 48
2, 102403, Control_c, 0, 64, 47
2, 102476, Note_on_c, 0, 49, 73
2, 102479, Note_on_c, 0, 57, 0
2, 102493, Control_c, 0, 64, 48
2, 102538, Control_c, 0, 64, 48
2, 102600, Control_c, 0, 64, 48
2, 102631, Note_on_c, 0, 54, 72
2, 102645, Control_c, 0, 64, 48
2, 102660, Control_c, 0, 64, 49
2, 102709, Note_on_c, 0, 49, 0
2, 102721, Control_c, 0, 64, 49
2, 102736, Control_c, 0, 64, 50
2, 102752, Control_c, 0, 64, 51
2, 102767, Control_c, 0, 64, 51
2, 102774, Note_on_c, 0, 54, 0
2, 102779, Note_on_c, 0, 75, 0
2, 102781, Control_c, 0, 64, 52
2, 102783, Note_on_c, 0, 53, 64
2, 102790, Note_on_c, 0, 70, 69
2, 102791, Note_on_c, 0, 73, 77
2, 102810, Note_on_c, 0, 72, 0
2, 102828, Control_c, 0, 64, 52
2, 102850, Control_c, 0, 64, 54
2, 102866, Control_c, 0, 64, 56
2, 102881, Control_c, 0, 64, 57
2, 102911, Control_c, 0, 64, 58
2, 102926, Control_c, 0, 64, 58
2, 102941, Control_c, 0, 64, 59
2, 102951, Note_on_c, 0, 51, 64
2, 102955, Note_on_c, 0, 75, 80
2, 102956, Control_c, 0, 64, 60
2, 102957, Note_on_c, 0, 53, 0
2, 102971, Note_on_c, 0, 73, 0
2, 102972, Control_c, 0, 64, 61
2, 102988, Control_c, 0, 64, 61
2, 103018, Control_c, 0, 64, 61
2, 103048, Control_c, 0, 64, 60
2, 103063, Control_c, 0, 64, 56
2, 103079, Control_c, 0, 64, 39
2, 103094, Control_c, 0, 64, 0
2, 103121, Note_on_c, 0, 77, 86
2, 103124, Note_on_c, 0, 49, 68
2, 103156, Note_on_c, 0, 75, 0
2, 103165, Note_on_c, 0, 51, 0
2, 103201, Control_c, 0, 64, 51
2, 103216, Control_c, 0, 64, 68
2, 103230, Note_on_c, 0, 77, 0
2, 103232, Control_c, 0, 64, 73
2, 103247, Control_c, 0, 64, 78
2, 103261, Control_c, 0, 64, 80
2, 103263, Note_on_c, 0, 70, 0
2, 103271, Note_on_c, 0, 49, 0
2, 103277, Control_c, 0, 64, 81
2, 103292, Control_c, 0, 64, 82
2, 103293, Note_on_c, 0, 48, 74
2, 103308, Control_c, 0, 64, 83
2, 103322, Control_c, 0, 64, 84
2, 103337, Control_c, 0, 64, 85
2, 103368, Control_c, 0, 64, 85
2, 103382, Control_c, 0, 64, 86
2, 103429, Control_c, 0, 64, 85
2, 103431, Note_on_c, 0, 48, 0
2, 103444, Control_c, 0, 64, 85
2, 103457, Note_on_c, 0, 75, 85
2, 103458, Control_c, 0, 64, 80
2, 103460, Note_on_c, 0, 46, 75
2, 103466, Note_on_c, 0, 66, 68
2, 103474, Control_c, 0, 64, 70
2, 103489, Control_c, 0, 64, 40
2, 103504, Control_c, 0, 64, 0
2, 103595, Control_c, 0, 64, 44
2, 103618, Control_c, 0, 64, 63
2, 103634, Control_c, 0, 64, 67
2, 103645, Note_on_c, 0, 69, 84
2, 103649, Control_c, 0, 64, 70
2, 103653, Note_on_c, 0, 48, 76
2, 103659, Note_on_c, 0, 46, 0
2, 103663, Control_c, 0, 64, 73
2, 103679, Control_c, 0, 64, 75
2, 103687, Note_on_c, 0, 66, 0
2, 103694, Control_c, 0, 64, 77
2, 103709, Control_c, 0, 64, 78
2, 103724, Control_c, 0, 64, 78
2, 103739, Control_c, 0, 64, 79
2, 103832, Control_c, 0, 64, 78
2, 103847, Control_c, 0, 64, 75
2, 103853, Note_on_c, 0, 70, 89
2, 103854, Note_on_c, 0, 48, 0
2, 103862, Control_c, 0, 64, 68
2, 103862, Note_on_c, 0, 49, 74
2, 103874, Note_on_c, 0, 65, 62
2, 103877, Note_on_c, 0, 69, 0
2, 103878, Control_c, 0, 64, 51
2, 103891, Note_on_c, 0, 75, 0
2, 103892, Control_c, 0, 64, 0
2, 104052, Note_on_c, 0, 48, 71
2, 104053, Note_on_c, 0, 49, 0
2, 104075, Control_c, 0, 64, 18
2, 104090, Control_c, 0, 64, 31
2, 104106, Control_c, 0, 64, 35
2, 104136, Control_c, 0, 64, 36
2, 104151, Control_c, 0, 64, 37
2, 104166, Control_c, 0, 64, 38
2, 104181, Control_c, 0, 64, 39
2, 104197, Control_c, 0, 64, 38
2, 104212, Control_c, 0, 64, 36
2, 104227, Control_c, 0, 64, 36
2, 104242, Control_c, 0, 64, 35
2, 104249, Note_on_c, 0, 49, 76
2, 104257, Control_c, 0, 64, 30
2, 104261, Note_on_c, 0, 48, 0
2, 104273, Control_c, 0, 64, 21
2, 104288, Control_c, 0, 64, 16
2, 104318, Control_c, 0, 64, 19
2, 104333, Control_c, 0, 64, 24
2, 104348, Control_c, 0, 64, 33
2, 104363, Control_c, 0, 64, 44
2, 104387, Control_c, 0, 64, 57
2, 104402, Control_c, 0, 64, 64
2, 104416, Control_c, 0, 64, 66
2, 104425, Note_on_c, 0, 65, 0
2, 104427, Control_c, 0, 64, 68
2, 104443, Control_c, 0, 64, 66
2, 104455, Note_on_c, 0, 72, 83
2, 104456, Note_on_c, 0, 51, 71
2, 104458, Control_c, 0, 64, 57
2, 104459, Note_on_c, 0, 66, 70
2, 104465, Note_on_c, 0, 49, 0
2, 104473, Control_c, 0, 64, 0
2, 104477, Note_on_c, 0, 70, 0
2, 104548, Control_c, 0, 64, 57
2, 104564, Control_c, 0, 64, 67
2, 104579, Control_c, 0, 64, 72
2, 104594, Control_c, 0, 64, 77
2, 104611, Control_c, 0, 64, 80
2, 104626, Control_c, 0, 64, 81
2, 104642, Control_c, 0, 64, 81
2, 104663, Note_on_c, 0, 72, 0
2, 104687, Control_c, 0, 64, 80
2, 104696, Note_on_c, 0, 51, 0
2, 104701, Control_c, 0, 64, 75
2, 104703, Note_on_c, 0, 69, 86
2, 104714, Note_on_c, 0, 53, 69
2, 104714, Note_on_c, 0, 60, 65
2, 104716, Control_c, 0, 64, 66
2, 104727, Note_on_c, 0, 66, 0
2, 104731, Control_c, 0, 64, 13
2, 104746, Control_c, 0, 64, 0
2, 104981, Note_on_c, 0, 53, 0
2, 104994, Note_on_c, 0, 51, 69
2, 105111, Control_c, 0, 64, 34
2, 105127, Control_c, 0, 64, 52
2, 105149, Control_c, 0, 64, 58
2, 105165, Control_c, 0, 64, 60
2, 105180, Control_c, 0, 64, 61
2, 105241, Control_c, 0, 64, 60
2, 105256, Control_c, 0, 64, 60
2, 105270, Control_c, 0, 64, 58
2, 105286, Control_c, 0, 64, 53
2, 105301, Control_c, 0, 64, 38
2, 105306, Note_on_c, 0, 51, 0
2, 105316, Control_c, 0, 64, 0
2, 105319, Note_on_c, 0, 53, 72
2, 105486, Control_c, 0, 64, 52
2, 105500, Control_c, 0, 64, 65
2, 105515, Control_c, 0, 64, 69
2, 105531, Control_c, 0, 64, 72
2, 105546, Control_c, 0, 64, 74
2, 105562, Control_c, 0, 64, 75
2, 105576, Control_c, 0, 64, 77
2, 105591, Control_c, 0, 64, 78
2, 105607, Control_c, 0, 64, 79
2, 105621, Control_c, 0, 64, 80
2, 105636, Control_c, 0, 64, 80
2, 105706, Note_on_c, 0, 53, 0
2, 105712, Control_c, 0, 64, 79
2, 105728, Control_c, 0, 64, 75
2, 105735, Note_on_c, 0, 41, 70
2, 105738, Note_on_c, 0, 70, 81
2, 105743, Control_c, 0, 64, 66
2, 105759, Control_c, 0, 64, 32
2, 105774, Control_c, 0, 64, 0
2, 105813, Note_on_c, 0, 69, 0
2, 105881, Control_c, 0, 64, 57
2, 105896, Control_c, 0, 64, 66
2, 105917, Control_c, 0, 64, 72
2, 105933, Control_c, 0, 64, 77
2, 105948, Control_c, 0, 64, 80
2, 105964, Control_c, 0, 64, 82
2, 105978, Control_c, 0, 64, 83
2, 105993, Control_c, 0, 64, 84
2, 106009, Control_c, 0, 64, 85
2, 106024, Control_c, 0, 64, 85
2, 106040, Control_c, 0, 64, 86
2, 106072, Note_on_c, 0, 60, 0
2, 106077, Note_on_c, 0, 70, 0
2, 106150, Note_on_c, 0, 41, 0
2, 106375, Control_c, 0, 64, 85
2, 106390, Control_c, 0, 64, 82
2, 106397, Note_on_c, 0, 70, 73
2, 106404, Note_on_c, 0, 46, 66
2, 106406, Control_c, 0, 64, 75
2, 106406, Note_on_c, 0, 62, 62
2, 106420, Control_c, 0, 64, 66
2, 106435, Control_c, 0, 64, 46
2, 106451, Control_c, 0, 64, 0
2, 106732, Control_c, 0, 64, 26
2, 106747, Control_c, 0, 64, 39
2, 106762, Control_c, 0, 64, 47
2, 106777, Control_c, 0, 64, 52
2, 106792, Control_c, 0, 64, 54
2, 106807, Control_c, 0, 64, 56
2, 106822, Control_c, 0, 64, 57
2, 106837, Control_c, 0, 64, 57
2, 106853, Control_c, 0, 64, 58
2, 106868, Control_c, 0, 64, 58
2, 106884, Control_c, 0, 64, 59
2, 106899, Control_c, 0, 64, 59
2, 106914, Control_c, 0, 64, 60
2, 106944, Control_c, 0, 64, 60
2, 106975, Control_c, 0, 64, 61
2, 107020, Control_c, 0, 64, 61
2, 107065, Control_c, 0, 64, 62
2, 107110, Control_c, 0, 64, 62
2, 107141, Control_c, 0, 64, 63
2, 107156, Control_c, 0, 64, 63
2, 107186, Control_c, 0, 64, 64
2, 107217, Control_c, 0, 64, 64
2, 107231, Control_c, 0, 64, 65
2, 107247, Control_c, 0, 64, 65
2, 107262, Control_c, 0, 64, 66
2, 107293, Control_c, 0, 64, 66
2, 107307, Control_c, 0, 64, 67
2, 107322, Control_c, 0, 64, 67
2, 107338, Control_c, 0, 64, 68
2, 107353, Control_c, 0, 64, 68
2, 107383, Control_c, 0, 64, 69
2, 107414, Control_c, 0, 64, 69
2, 107467, Control_c, 0, 64, 70
2, 107498, Control_c, 0, 64, 70
2, 107543, Control_c, 0, 64, 71
2, 107589, Control_c, 0, 64, 71
2, 107619, Control_c, 0, 64, 72
2, 107649, Control_c, 0, 64, 72
2, 107679, Control_c, 0, 64, 73
2, 107710, Control_c, 0, 64, 73
2, 107724, Control_c, 0, 64, 74
2, 107740, Control_c, 0, 64, 74
2, 107770, Control_c, 0, 64, 75
2, 107785, Control_c, 0, 64, 75
2, 107815, Control_c, 0, 64, 76
2, 107830, Control_c, 0, 64, 76
2, 107860, Control_c, 0, 64, 77
2, 107922, Control_c, 0, 64, 77
2, 108492, Control_c, 0, 64, 77
2, 108598, Control_c, 0, 64, 76
2, 108643, Control_c, 0, 64, 76
2, 108659, Control_c, 0, 64, 75
2, 108674, Control_c, 0, 64, 75
2, 108690, Control_c, 0, 64, 74
2, 108736, Control_c, 0, 64, 74
2, 108751, Control_c, 0, 64, 73
2, 108767, Control_c, 0, 64, 73
2, 108782, Control_c, 0, 64, 72
2, 108812, Control_c, 0, 64, 71
2, 108827, Control_c, 0, 64, 71
2, 108829, Note_on_c, 0, 46, 0
2, 108837, Note_on_c, 0, 62, 0
2, 108842, Control_c, 0, 64, 70
2, 108854, Note_on_c, 0, 70, 0
2, 108858, Control_c, 0, 64, 68
2, 108872, Control_c, 0, 64, 67
2, 108888, Control_c, 0, 64, 66
2, 108933, Control_c, 0, 64, 66
2, 108948, Control_c, 0, 64, 65
2, 108963, Control_c, 0, 64, 65
2, 108987, Control_c, 0, 64, 64
2, 109032, Control_c, 0, 64, 64
2, 109048, Control_c, 0, 64, 63
2, 109077, Control_c, 0, 64, 63
2, 109093, Control_c, 0, 64, 62
2, 109123, Control_c, 0, 64, 62
2, 109153, Control_c, 0, 64, 61
2, 109169, Control_c, 0, 64, 61
2, 109184, Control_c, 0, 64, 60
2, 109199, Control_c, 0, 64, 60
2, 109229, Control_c, 0, 64, 59
2, 109244, Control_c, 0, 64, 59
2, 109260, Control_c, 0, 64, 58
2, 109275, Control_c, 0, 64, 57
2, 109291, Control_c, 0, 64, 57
2, 109321, Control_c, 0, 64, 56
2, 109336, Control_c, 0, 64, 55
2, 109351, Control_c, 0, 64, 55
2, 109428, Control_c, 0, 64, 54
2, 109443, Control_c, 0, 64, 54
2, 109473, Control_c, 0, 64, 53
2, 109535, Control_c, 0, 64, 53
2, 109550, Control_c, 0, 64, 52
2, 109672, Control_c, 0, 64, 52
2, 109702, Control_c, 0, 64, 51
2, 109801, Control_c, 0, 64, 51
2, 109831, Control_c, 0, 64, 50
2, 109893, Control_c, 0, 64, 50
2, 109938, Control_c, 0, 64, 49
2, 109983, Control_c, 0, 64, 49
2, 109998, Control_c, 0, 64, 48
2, 110014, Control_c, 0, 64, 46
2, 110029, Control_c, 0, 64, 44
2, 110044, Control_c, 0, 64, 44
2, 110165, Control_c, 0, 64, 44
2, 110333, Control_c, 0, 64, 45
2, 110485, Control_c, 0, 64, 43
2, 110501, Control_c, 0, 64, 37
2, 110523, Control_c, 0, 64, 18
2, 110538, Control_c, 0, 64, 0
2, 110553, Note_on_c, 0, 58, 94
2, 110835, Note_on_c, 0, 58, 0
2, 111085, Note_on_c, 0, 60, 95
2, 111393, Note_on_c, 0, 60, 0
2, 111920, Note_on_c, 0, 61, 93
2, 112106, Note_on_c, 0, 61, 0
2, 112203, Note_on_c, 0, 63, 92
2, 112389, Note_on_c, 0, 63, 0
2, 112493, Note_on_c, 0, 57, 84
2, 112692, Note_on_c, 0, 57, 0
2, 112781, Note_on_c, 0, 58, 88
2, 113081, Note_on_c, 0, 58, 0
2, 113634, Note_on_c, 0, 60, 67
2, 113728, Note_on_c, 0, 60, 0
2, 113915, Note_on_c, 0, 61, 57
2, 114023, Note_on_c, 0, 61, 0
2, 114034, Note_on_c, 0, 58, 60
2, 114169, Note_on_c, 0, 58, 0
2, 114170, Note_on_c, 0, 60, 62
2, 114310, Note_on_c, 0, 61, 62
2, 114315, Note_on_c, 0, 60, 0
2, 114453, Note_on_c, 0, 63, 66
2, 114465, Note_on_c, 0, 61, 0
2, 114595, Note_on_c, 0, 60, 61
2, 114598, Note_on_c, 0, 63, 0
2, 114721, Note_on_c, 0, 61, 68
2, 114731, Note_on_c, 0, 60, 0
2, 114852, Note_on_c, 0, 63, 67
2, 114959, Note_on_c, 0, 61, 0
2, 114991, Note_on_c, 0, 65, 71
2, 115004, Note_on_c, 0, 63, 0
2, 115111, Note_on_c, 0, 61, 69
2, 115111, Note_on_c, 0, 65, 0
2, 115255, Note_on_c, 0, 63, 70
2, 115303, Note_on_c, 0, 61, 0
2, 115383, Note_on_c, 0, 65, 70
2, 115399, Note_on_c, 0, 63, 0
2, 115518, Note_on_c, 0, 65, 0
2, 115522, Note_on_c, 0, 66, 73
2, 115642, Note_on_c, 0, 66, 0
2, 115650, Note_on_c, 0, 63, 65
2, 115790, Note_on_c, 0, 65, 66
2, 115812, Note_on_c, 0, 63, 0
2, 116023, Note_on_c, 0, 65, 0
2, 116338, Note_on_c, 0, 66, 66
2, 116524, Note_on_c, 0, 66, 0
2, 116620, Note_on_c, 0, 60, 58
2, 116814, Note_on_c, 0, 60, 0
2, 116888, Note_on_c, 0, 61, 64
2, 117014, Note_on_c, 0, 63, 67
2, 117031, Note_on_c, 0, 61, 0
2, 117083, Note_on_c, 0, 63, 0
2, 117151, Note_on_c, 0, 65, 91
2, 117159, Note_on_c, 0, 61, 59
2, 117408, Note_on_c, 0, 65, 0
2, 117444, Note_on_c, 0, 57, 57
2, 117456, Note_on_c, 0, 61, 0
2, 117729, Note_on_c, 0, 67, 89
2, 117732, Note_on_c, 0, 58, 61
2, 117753, Note_on_c, 0, 57, 0
2, 118027, Note_on_c, 0, 59, 62
2, 118027, Note_on_c, 0, 67, 0
2, 118045, Note_on_c, 0, 58, 0
2, 118288, Note_on_c, 0, 59, 0
2, 118298, Note_on_c, 0, 60, 63
2, 118576, Note_on_c, 0, 68, 90
2, 118758, Note_on_c, 0, 60, 0
2, 118782, Note_on_c, 0, 68, 0
2, 118853, Note_on_c, 0, 70, 92
2, 119040, Note_on_c, 0, 70, 0
2, 119122, Note_on_c, 0, 64, 81
2, 119128, Note_on_c, 0, 60, 59
2, 119321, Note_on_c, 0, 64, 0
2, 119385, Note_on_c, 0, 65, 85
2, 119387, Note_on_c, 0, 61, 66
2, 119401, Note_on_c, 0, 60, 0
2, 119664, Note_on_c, 0, 62, 62
2, 119705, Note_on_c, 0, 61, 0
2, 119873, Note_on_c, 0, 65, 0
2, 119939, Note_on_c, 0, 63, 62
2, 119966, Note_on_c, 0, 62, 0
2, 120211, Note_on_c, 0, 64, 53
2, 120214, Note_on_c, 0, 63, 0
2, 120214, Note_on_c, 0, 67, 72
2, 120409, Note_on_c, 0, 64, 0
2, 120464, Note_on_c, 0, 67, 0
2, 120476, Note_on_c, 0, 68, 72
2, 120480, Note_on_c, 0, 65, 51
2, 120592, Note_on_c, 0, 65, 0
2, 120608, Note_on_c, 0, 65, 46
2, 120608, Note_on_c, 0, 68, 0
2, 120748, Note_on_c, 0, 67, 66
2, 120877, Note_on_c, 0, 68, 70
2, 120899, Note_on_c, 0, 67, 0
2, 121023, Note_on_c, 0, 70, 70
2, 121038, Note_on_c, 0, 68, 0
2, 121151, Note_on_c, 0, 67, 69
2, 121164, Note_on_c, 0, 70, 0
2, 121287, Note_on_c, 0, 68, 71
2, 121314, Note_on_c, 0, 67, 0
2, 121418, Note_on_c, 0, 70, 73
2, 121541, Note_on_c, 0, 68, 0
2, 121549, Note_on_c, 0, 72, 77
2, 121565, Note_on_c, 0, 70, 0
2, 121669, Note_on_c, 0, 72, 0
2, 121676, Note_on_c, 0, 68, 76
2, 121808, Note_on_c, 0, 70, 73
2, 121856, Note_on_c, 0, 68, 0
2, 121938, Note_on_c, 0, 72, 72
2, 121956, Note_on_c, 0, 70, 0
2, 122078, Note_on_c, 0, 72, 0
2, 122082, Note_on_c, 0, 73, 72
2, 122210, Note_on_c, 0, 70, 64
2, 122213, Note_on_c, 0, 73, 0
2, 122347, Note_on_c, 0, 72, 60
2, 122355, Note_on_c, 0, 64, 58
2, 122365, Note_on_c, 0, 70, 0
2, 122400, Note_on_c, 0, 65, 0
2, 122465, Note_on_c, 0, 64, 0
2, 122473, Note_on_c, 0, 62, 50
2, 122614, Note_on_c, 0, 62, 0
2, 122625, Note_on_c, 0, 64, 58
2, 122811, Note_on_c, 0, 72, 0
2, 122910, Note_on_c, 0, 73, 68
2, 123102, Note_on_c, 0, 73, 0
2, 123136, Note_on_c, 0, 64, 0
2, 123182, Note_on_c, 0, 67, 66
2, 123405, Note_on_c, 0, 67, 0
2, 123430, Note_on_c, 0, 69, 65
2, 123442, Note_on_c, 0, 63, 67
2, 123581, Note_on_c, 0, 70, 66
2, 123598, Note_on_c, 0, 69, 0
2, 123711, Note_on_c, 0, 70, 0
2, 123727, Note_on_c, 0, 69, 69
2, 123962, Note_on_c, 0, 69, 0
2, 123981, Note_on_c, 0, 63, 0
2, 123990, Note_on_c, 0, 77, 68
2, 124000, Note_on_c, 0, 62, 56
2, 124098, Note_on_c, 0, 62, 0
2, 124121, Note_on_c, 0, 60, 51
2, 124236, Note_on_c, 0, 60, 0
2, 124259, Note_on_c, 0, 62, 56
2, 124536, Note_on_c, 0, 77, 0
2, 124553, Note_on_c, 0, 70, 62
2, 124789, Note_on_c, 0, 62, 0
2, 124796, Note_on_c, 0, 70, 0
2, 124824, Note_on_c, 0, 65, 64
2, 125050, Note_on_c, 0, 65, 0
2, 125106, Note_on_c, 0, 61, 60
2, 125110, Note_on_c, 0, 67, 57
2, 125236, Note_on_c, 0, 68, 62
2, 125245, Note_on_c, 0, 67, 0
2, 125376, Note_on_c, 0, 68, 0
2, 125380, Note_on_c, 0, 67, 63
2, 125654, Note_on_c, 0, 61, 0
2, 125662, Note_on_c, 0, 75, 66
2, 125663, Note_on_c, 0, 67, 0
2, 125673, Note_on_c, 0, 60, 51
2, 125785, Note_on_c, 0, 60, 0
2, 125808, Note_on_c, 0, 58, 57
2, 125946, Note_on_c, 0, 58, 0
2, 125947, Note_on_c, 0, 60, 59
2, 126221, Note_on_c, 0, 69, 67
2, 126222, Note_on_c, 0, 75, 0
2, 126223, Note_on_c, 0, 66, 65
2, 126285, Note_on_c, 0, 60, 0
2, 126466, Note_on_c, 0, 66, 0
2, 126498, Note_on_c, 0, 65, 68
2, 126735, Note_on_c, 0, 65, 0
2, 126767, Note_on_c, 0, 70, 72
2, 126776, Note_on_c, 0, 63, 65
2, 126798, Note_on_c, 0, 69, 0
2, 126903, Note_on_c, 0, 72, 71
2, 126904, Note_on_c, 0, 70, 0
2, 126998, Note_on_c, 0, 72, 0
2, 127057, Note_on_c, 0, 46, 92
2, 127068, Note_on_c, 0, 65, 60
2, 127322, Note_on_c, 0, 63, 0
2, 127331, Note_on_c, 0, 70, 80
2, 127337, Note_on_c, 0, 65, 0
2, 127339, Note_on_c, 0, 62, 66
2, 127358, Note_on_c, 0, 46, 0
2, 127621, Note_on_c, 0, 63, 66
2, 127627, Note_on_c, 0, 48, 88
2, 127656, Note_on_c, 0, 62, 0
2, 127847, Note_on_c, 0, 70, 0
2, 127902, Note_on_c, 0, 63, 0
2, 127902, Note_on_c, 0, 69, 73
2, 127910, Note_on_c, 0, 64, 62
2, 127944, Note_on_c, 0, 48, 0
2, 128032, Note_on_c, 0, 67, 73
2, 128037, Note_on_c, 0, 69, 0
2, 128133, Note_on_c, 0, 64, 0
2, 128167, Note_on_c, 0, 65, 76
2, 128167, Note_on_c, 0, 69, 72
2, 128198, Note_on_c, 0, 67, 0
2, 128437, Note_on_c, 0, 70, 79
2, 128442, Note_on_c, 0, 49, 87
2, 128453, Note_on_c, 0, 69, 0
2, 128554, Note_on_c, 0, 70, 0
2, 128627, Note_on_c, 0, 49, 0
2, 128696, Note_on_c, 0, 51, 88
2, 128698, Note_on_c, 0, 72, 81
2, 128736, Note_on_c, 0, 65, 0
2, 128814, Note_on_c, 0, 73, 76
2, 128836, Note_on_c, 0, 72, 0
2, 128874, Note_on_c, 0, 51, 0
2, 128964, Note_on_c, 0, 45, 83
2, 128967, Note_on_c, 0, 75, 80
2, 128976, Note_on_c, 0, 65, 69
2, 128976, Note_on_c, 0, 73, 0
2, 129155, Note_on_c, 0, 45, 0
2, 129231, Note_on_c, 0, 66, 71
2, 129236, Note_on_c, 0, 46, 88
2, 129248, Note_on_c, 0, 65, 0
2, 129473, Note_on_c, 0, 75, 0
2, 129486, Note_on_c, 0, 66, 0
2, 129502, Note_on_c, 0, 73, 76
2, 129507, Note_on_c, 0, 67, 72
2, 129536, Note_on_c, 0, 46, 0
2, 129738, Note_on_c, 0, 73, 0
2, 129752, Note_on_c, 0, 72, 73
2, 129761, Note_on_c, 0, 68, 69
2, 129809, Note_on_c, 0, 67, 0
2, 129877, Note_on_c, 0, 75, 77
2, 129910, Note_on_c, 0, 72, 0
2, 129992, Note_on_c, 0, 68, 0
2, 130023, Note_on_c, 0, 48, 79
2, 130024, Note_on_c, 0, 78, 85
2, 130025, Note_on_c, 0, 69, 73
2, 130028, Note_on_c, 0, 75, 0
2, 130106, Control_c, 0, 64, 64
2, 130122, Control_c, 0, 64, 70
2, 130136, Control_c, 0, 64, 73
2, 130151, Control_c, 0, 64, 75
2, 130167, Control_c, 0, 64, 76
2, 130170, Note_on_c, 0, 48, 0
2, 130182, Control_c, 0, 64, 76
2, 130189, Note_on_c, 0, 78, 0
2, 130212, Control_c, 0, 64, 75
2, 130227, Control_c, 0, 64, 71
2, 130243, Control_c, 0, 64, 63
2, 130258, Control_c, 0, 64, 0
2, 130276, Note_on_c, 0, 70, 67
2, 130278, Note_on_c, 0, 77, 80
2, 130280, Note_on_c, 0, 49, 76
2, 130292, Note_on_c, 0, 69, 0
2, 130398, Note_on_c, 0, 49, 0
2, 130402, Note_on_c, 0, 46, 77
2, 130488, Note_on_c, 0, 77, 0
2, 130532, Note_on_c, 0, 46, 0
2, 130541, Note_on_c, 0, 48, 76
2, 130654, Note_on_c, 0, 48, 0
2, 130661, Note_on_c, 0, 49, 75
2, 130796, Note_on_c, 0, 49, 0
2, 130804, Note_on_c, 0, 51, 72
2, 130807, Note_on_c, 0, 72, 72
2, 130936, Note_on_c, 0, 48, 68
2, 130936, Note_on_c, 0, 51, 0
2, 131006, Note_on_c, 0, 72, 0
2, 131064, Note_on_c, 0, 49, 76
2, 131073, Note_on_c, 0, 48, 0
2, 131186, Note_on_c, 0, 51, 74
2, 131206, Note_on_c, 0, 49, 0
2, 131314, Note_on_c, 0, 51, 0
2, 131330, Note_on_c, 0, 53, 75
2, 131331, Note_on_c, 0, 73, 82
2, 131458, Note_on_c, 0, 49, 74
2, 131472, Note_on_c, 0, 53, 0
2, 131573, Note_on_c, 0, 73, 0
2, 131587, Note_on_c, 0, 51, 77
2, 131620, Note_on_c, 0, 49, 0
2, 131709, Note_on_c, 0, 51, 0
2, 131715, Note_on_c, 0, 53, 78
2, 131837, Note_on_c, 0, 53, 0
2, 131844, Note_on_c, 0, 54, 75
2, 131852, Note_on_c, 0, 75, 77
2, 131966, Note_on_c, 0, 54, 0
2, 131969, Note_on_c, 0, 51, 68
2, 132118, Note_on_c, 0, 70, 0
2, 132122, Note_on_c, 0, 53, 66
2, 132125, Note_on_c, 0, 69, 64
2, 132138, Note_on_c, 0, 51, 0
2, 132247, Note_on_c, 0, 69, 0
2, 132251, Note_on_c, 0, 67, 67
2, 132324, Note_on_c, 0, 53, 0
2, 132368, Note_on_c, 0, 67, 0
2, 132376, Note_on_c, 0, 69, 70
2, 132412, Note_on_c, 0, 75, 0
2, 132497, Note_on_c, 0, 73, 64
2, 132599, Note_on_c, 0, 73, 0
2, 132631, Note_on_c, 0, 72, 60
2, 132634, Note_on_c, 0, 54, 75
2, 132759, Control_c, 0, 64, 56
2, 132764, Note_on_c, 0, 72, 0
2, 132764, Note_on_c, 0, 73, 69
2, 132775, Control_c, 0, 64, 61
2, 132797, Control_c, 0, 64, 61
2, 132828, Control_c, 0, 64, 62
2, 132830, Note_on_c, 0, 54, 0
2, 132844, Control_c, 0, 64, 60
2, 132859, Control_c, 0, 64, 50
2, 132873, Control_c, 0, 64, 0
2, 132904, Note_on_c, 0, 48, 75
2, 132906, Note_on_c, 0, 75, 77
2, 132994, Control_c, 0, 64, 18
2, 133010, Control_c, 0, 64, 64
2, 133011, Note_on_c, 0, 73, 0
2, 133025, Control_c, 0, 64, 68
2, 133041, Control_c, 0, 64, 69
2, 133070, Control_c, 0, 64, 69
2, 133101, Control_c, 0, 64, 69
2, 133116, Control_c, 0, 64, 66
2, 133130, Control_c, 0, 64, 57
2, 133133, Note_on_c, 0, 48, 0
2, 133136, Note_on_c, 0, 75, 0
2, 133145, Control_c, 0, 64, 0
2, 133157, Note_on_c, 0, 69, 0
2, 133179, Note_on_c, 0, 68, 66
2, 133180, Note_on_c, 0, 50, 64
2, 133180, Note_on_c, 0, 72, 74
2, 133268, Control_c, 0, 64, 55
2, 133284, Control_c, 0, 64, 62
2, 133297, Note_on_c, 0, 50, 0
2, 133308, Note_on_c, 0, 51, 71
2, 133359, Control_c, 0, 64, 59
2, 133374, Control_c, 0, 64, 44
2, 133389, Control_c, 0, 64, 0
2, 133401, Note_on_c, 0, 51, 0
2, 133446, Note_on_c, 0, 77, 81
2, 133450, Note_on_c, 0, 50, 67
2, 133451, Note_on_c, 0, 72, 0
2, 133526, Control_c, 0, 64, 44
2, 133541, Control_c, 0, 64, 66
2, 133565, Control_c, 0, 64, 71
2, 133580, Control_c, 0, 64, 75
2, 133594, Control_c, 0, 64, 78
2, 133610, Control_c, 0, 64, 80
2, 133625, Control_c, 0, 64, 81
2, 133641, Note_on_c, 0, 77, 0
2, 133655, Control_c, 0, 64, 80
2, 133657, Note_on_c, 0, 50, 0
2, 133670, Control_c, 0, 64, 77
2, 133686, Control_c, 0, 64, 65
2, 133698, Note_on_c, 0, 68, 0
2, 133701, Control_c, 0, 64, 0
2, 133711, Note_on_c, 0, 74, 68
2, 133717, Note_on_c, 0, 58, 63
2, 133723, Note_on_c, 0, 67, 60
2, 133761, Control_c, 0, 64, 47
2, 133776, Control_c, 0, 64, 68
2, 133791, Control_c, 0, 64, 75
2, 133803, Note_on_c, 0, 74, 0
2, 133807, Control_c, 0, 64, 79
2, 133816, Note_on_c, 0, 58, 0
2, 133822, Control_c, 0, 64, 80
2, 133836, Control_c, 0, 64, 80
2, 133851, Note_on_c, 0, 65, 70
2, 133852, Control_c, 0, 64, 81
2, 133877, Note_on_c, 0, 67, 0
2, 133913, Control_c, 0, 64, 80
2, 133929, Control_c, 0, 64, 76
2, 133944, Control_c, 0, 64, 67
2, 133956, Note_on_c, 0, 65, 0
2, 133959, Control_c, 0, 64, 0
2, 133982, Note_on_c, 0, 70, 67
2, 133986, Note_on_c, 0, 67, 66
2, 134113, Note_on_c, 0, 70, 0
2, 134116, Note_on_c, 0, 68, 62
2, 134242, Note_on_c, 0, 70, 67
2, 134243, Note_on_c, 0, 51, 65
2, 134246, Note_on_c, 0, 68, 0
2, 134363, Control_c, 0, 64, 54
2, 134378, Control_c, 0, 64, 58
2, 134378, Note_on_c, 0, 70, 0
2, 134378, Note_on_c, 0, 72, 68
2, 134393, Control_c, 0, 64, 58
2, 134423, Control_c, 0, 64, 57
2, 134438, Control_c, 0, 64, 52
2, 134441, Note_on_c, 0, 51, 0
2, 134454, Control_c, 0, 64, 29
2, 134469, Control_c, 0, 64, 0
2, 134517, Note_on_c, 0, 46, 65
2, 134518, Note_on_c, 0, 73, 70
2, 134519, Note_on_c, 0, 72, 0
2, 134620, Control_c, 0, 64, 58
2, 134635, Control_c, 0, 64, 63
2, 134651, Control_c, 0, 64, 63
2, 134696, Control_c, 0, 64, 63
2, 134711, Control_c, 0, 64, 60
2, 134727, Control_c, 0, 64, 46
2, 134730, Note_on_c, 0, 73, 0
2, 134734, Note_on_c, 0, 46, 0
2, 134742, Control_c, 0, 64, 0
2, 134775, Note_on_c, 0, 70, 68
2, 134779, Note_on_c, 0, 48, 64
2, 134782, Note_on_c, 0, 66, 60
2, 134799, Note_on_c, 0, 67, 0
2, 134864, Control_c, 0, 64, 32
2, 134874, Note_on_c, 0, 48, 0
2, 134879, Control_c, 0, 64, 59
2, 134894, Control_c, 0, 64, 62
2, 134901, Note_on_c, 0, 49, 61
2, 134910, Control_c, 0, 64, 62
2, 134971, Control_c, 0, 64, 60
2, 134986, Control_c, 0, 64, 52
2, 135002, Control_c, 0, 64, 0
2, 135020, Note_on_c, 0, 49, 0
2, 135046, Note_on_c, 0, 75, 67
2, 135050, Note_on_c, 0, 48, 61
2, 135102, Note_on_c, 0, 70, 0
2, 135161, Control_c, 0, 64, 61
2, 135176, Control_c, 0, 64, 65
2, 135191, Control_c, 0, 64, 66
2, 135207, Control_c, 0, 64, 67
2, 135222, Control_c, 0, 64, 67
2, 135237, Control_c, 0, 64, 68
2, 135263, Note_on_c, 0, 48, 0
2, 135267, Control_c, 0, 64, 66
2, 135283, Control_c, 0, 64, 60
2, 135298, Control_c, 0, 64, 0
2, 135311, Note_on_c, 0, 75, 0
2, 135313, Note_on_c, 0, 66, 0
2, 135327, Note_on_c, 0, 44, 53
2, 135331, Note_on_c, 0, 72, 61
2, 135332, Note_on_c, 0, 65, 57
2, 135419, Control_c, 0, 64, 57
2, 135434, Control_c, 0, 64, 65
2, 135449, Control_c, 0, 64, 65
2, 135453, Note_on_c, 0, 63, 62
2, 135453, Note_on_c, 0, 65, 0
2, 135497, Note_on_c, 0, 72, 0
2, 135510, Control_c, 0, 64, 64
2, 135525, Control_c, 0, 64, 60
2, 135540, Control_c, 0, 64, 25
2, 135553, Note_on_c, 0, 44, 0
2, 135555, Control_c, 0, 64, 0
2, 135593, Note_on_c, 0, 68, 70
2, 135596, Note_on_c, 0, 49, 57
2, 135597, Note_on_c, 0, 63, 0
2, 135598, Note_on_c, 0, 65, 57
2, 135724, Control_c, 0, 64, 53
2, 135739, Control_c, 0, 64, 62
2, 135769, Control_c, 0, 64, 61
2, 135784, Control_c, 0, 64, 59
2, 135799, Control_c, 0, 64, 45
2, 135815, Control_c, 0, 64, 0
2, 135818, Note_on_c, 0, 49, 0
2, 135847, Note_on_c, 0, 48, 55
2, 135875, Note_on_c, 0, 73, 67
2, 135898, Note_on_c, 0, 68, 0
2, 135959, Control_c, 0, 64, 52
2, 135974, Control_c, 0, 64, 64
2, 135977, Note_on_c, 0, 48, 0
2, 135989, Control_c, 0, 64, 64
2, 135990, Note_on_c, 0, 46, 58
2, 136051, Control_c, 0, 64, 63
2, 136065, Control_c, 0, 64, 50
2, 136081, Control_c, 0, 64, 0
2, 136095, Note_on_c, 0, 46, 0
2, 136096, Note_on_c, 0, 73, 0
2, 136140, Note_on_c, 0, 44, 58
2, 136143, Note_on_c, 0, 72, 67
2, 136204, Control_c, 0, 64, 29
2, 136218, Control_c, 0, 64, 68
2, 136233, Control_c, 0, 64, 75
2, 136249, Control_c, 0, 64, 80
2, 136252, Note_on_c, 0, 72, 0
2, 136264, Control_c, 0, 64, 81
2, 136267, Note_on_c, 0, 44, 0
2, 136279, Note_on_c, 0, 65, 0
2, 136294, Control_c, 0, 64, 82
2, 136325, Control_c, 0, 64, 81
2, 136340, Control_c, 0, 64, 78
2, 136355, Control_c, 0, 64, 69
2, 136370, Control_c, 0, 64, 0
2, 136403, Note_on_c, 0, 43, 66
2, 136403, Note_on_c, 0, 64, 72
2, 136408, Note_on_c, 0, 58, 68
2, 136479, Control_c, 0, 64, 59
2, 136494, Control_c, 0, 64, 69
2, 136508, Control_c, 0, 64, 76
2, 136524, Control_c, 0, 64, 80
2, 136539, Control_c, 0, 64, 82
2, 136545, Note_on_c, 0, 43, 0
2, 136547, Note_on_c, 0, 58, 0
2, 136556, Control_c, 0, 64, 82
2, 136571, Control_c, 0, 64, 83
2, 136655, Control_c, 0, 64, 82
2, 136669, Control_c, 0, 64, 79
2, 136677, Note_on_c, 0, 64, 0
2, 136685, Control_c, 0, 64, 69
2, 136695, Note_on_c, 0, 53, 85
2, 136697, Note_on_c, 0, 65, 72
2, 136700, Control_c, 0, 64, 0
2, 136703, Note_on_c, 0, 60, 66
2, 136709, Note_on_c, 0, 44, 69
2, 136921, Note_on_c, 0, 44, 0
2, 136958, Note_on_c, 0, 45, 62
2, 136969, Note_on_c, 0, 61, 63
2, 136975, Note_on_c, 0, 65, 0
2, 137081, Note_on_c, 0, 61, 0
2, 137086, Note_on_c, 0, 53, 0
2, 137092, Note_on_c, 0, 63, 72
2, 137129, Note_on_c, 0, 60, 0
2, 137217, Note_on_c, 0, 45, 0
2, 137218, Note_on_c, 0, 55, 88
2, 137230, Note_on_c, 0, 46, 71
2, 137232, Note_on_c, 0, 61, 66
2, 137254, Note_on_c, 0, 63, 0
2, 137459, Note_on_c, 0, 46, 0
2, 137483, Note_on_c, 0, 47, 71
2, 137487, Note_on_c, 0, 61, 0
2, 137493, Note_on_c, 0, 64, 67
2, 137611, Note_on_c, 0, 64, 0
2, 137614, Note_on_c, 0, 62, 65
2, 137621, Note_on_c, 0, 55, 0
2, 137721, Note_on_c, 0, 47, 0
2, 137743, Note_on_c, 0, 62, 0
2, 137756, Note_on_c, 0, 48, 70
2, 137756, Note_on_c, 0, 64, 69
2, 138013, Note_on_c, 0, 56, 90
2, 138019, Note_on_c, 0, 72, 75
2, 138063, Note_on_c, 0, 64, 0
2, 138088, Control_c, 0, 64, 25
2, 138102, Control_c, 0, 64, 65
2, 138117, Control_c, 0, 64, 69
2, 138133, Control_c, 0, 64, 71
2, 138148, Control_c, 0, 64, 73
2, 138172, Control_c, 0, 64, 74
2, 138184, Note_on_c, 0, 56, 0
2, 138203, Control_c, 0, 64, 73
2, 138218, Control_c, 0, 64, 68
2, 138233, Control_c, 0, 64, 54
2, 138249, Control_c, 0, 64, 0
2, 138285, Note_on_c, 0, 73, 78
2, 138289, Note_on_c, 0, 58, 88
2, 138295, Note_on_c, 0, 72, 0
2, 138370, Control_c, 0, 64, 64
2, 138385, Control_c, 0, 64, 69
2, 138401, Control_c, 0, 64, 73
2, 138416, Control_c, 0, 64, 75
2, 138430, Control_c, 0, 64, 76
2, 138438, Note_on_c, 0, 58, 0
2, 138446, Control_c, 0, 64, 77
2, 138481, Note_on_c, 0, 48, 0
2, 138491, Control_c, 0, 64, 76
2, 138492, Note_on_c, 0, 73, 0
2, 138506, Control_c, 0, 64, 73
2, 138522, Control_c, 0, 64, 64
2, 138537, Control_c, 0, 64, 0
2, 138554, Note_on_c, 0, 72, 76
2, 138555, Note_on_c, 0, 52, 78
2, 138561, Note_on_c, 0, 68, 70
2, 138564, Note_on_c, 0, 48, 65
2, 138725, Note_on_c, 0, 48, 0
2, 138746, Note_on_c, 0, 52, 0
2, 138806, Note_on_c, 0, 53, 80
2, 138814, Note_on_c, 0, 49, 68
2, 139017, Note_on_c, 0, 49, 0
2, 139047, Note_on_c, 0, 72, 0
2, 139072, Note_on_c, 0, 68, 0
2, 139079, Note_on_c, 0, 71, 66
2, 139081, Note_on_c, 0, 50, 69
2, 139085, Note_on_c, 0, 67, 57
2, 139102, Note_on_c, 0, 53, 0
2, 139178, Note_on_c, 0, 67, 0
2, 139198, Note_on_c, 0, 65, 69
2, 139307, Note_on_c, 0, 65, 0
2, 139333, Note_on_c, 0, 71, 0
2, 139334, Note_on_c, 0, 51, 77
2, 139339, Note_on_c, 0, 72, 67
2, 139340, Note_on_c, 0, 50, 0
2, 139341, Note_on_c, 0, 67, 64
2, 139451, Note_on_c, 0, 67, 0
2, 139458, Control_c, 0, 64, 45
2, 139462, Note_on_c, 0, 68, 70
2, 139472, Control_c, 0, 64, 57
2, 139488, Control_c, 0, 64, 53
2, 139503, Control_c, 0, 64, 38
2, 139517, Control_c, 0, 64, 0
2, 139523, Note_on_c, 0, 51, 0
2, 139576, Note_on_c, 0, 68, 0
2, 139585, Note_on_c, 0, 70, 74
2, 139599, Note_on_c, 0, 55, 80
2, 139604, Note_on_c, 0, 52, 81
2, 139646, Note_on_c, 0, 52, 0
2, 139655, Control_c, 0, 64, 62
2, 139670, Control_c, 0, 64, 76
2, 139686, Control_c, 0, 64, 84
2, 139708, Control_c, 0, 64, 87
2, 139710, Note_on_c, 0, 55, 0
2, 139724, Control_c, 0, 64, 87
2, 139738, Control_c, 0, 64, 88
2, 139753, Control_c, 0, 64, 89
2, 139784, Control_c, 0, 64, 89
2, 139799, Control_c, 0, 64, 89
2, 139830, Control_c, 0, 64, 87
2, 139846, Control_c, 0, 64, 82
2, 139856, Note_on_c, 0, 68, 76
2, 139857, Note_on_c, 0, 56, 81
2, 139860, Note_on_c, 0, 53, 75
2, 139861, Control_c, 0, 64, 72
2, 139863, Note_on_c, 0, 70, 0
2, 139876, Control_c, 0, 64, 60
2, 139892, Control_c, 0, 64, 0
2, 139921, Note_on_c, 0, 53, 0
2, 139972, Note_on_c, 0, 56, 0
2, 139983, Note_on_c, 0, 53, 73
2, 139991, Note_on_c, 0, 72, 0
2, 140014, Note_on_c, 0, 68, 0
2, 140127, Note_on_c, 0, 55, 72
2, 140262, Note_on_c, 0, 56, 78
2, 140285, Note_on_c, 0, 55, 0
2, 140388, Note_on_c, 0, 76, 80
2, 140394, Note_on_c, 0, 56, 0
2, 140398, Note_on_c, 0, 67, 64
2, 140403, Note_on_c, 0, 58, 69
2, 140492, Control_c, 0, 64, 54
2, 140500, Note_on_c, 0, 58, 0
2, 140506, Control_c, 0, 64, 64
2, 140522, Control_c, 0, 64, 67
2, 140537, Control_c, 0, 64, 69
2, 140539, Note_on_c, 0, 55, 77
2, 140550, Note_on_c, 0, 67, 0
2, 140552, Control_c, 0, 64, 71
2, 140568, Control_c, 0, 64, 73
2, 140582, Control_c, 0, 64, 74
2, 140597, Control_c, 0, 64, 75
2, 140649, Note_on_c, 0, 76, 0
2, 140664, Note_on_c, 0, 56, 83
2, 140690, Control_c, 0, 64, 74
2, 140701, Note_on_c, 0, 55, 0
2, 140705, Control_c, 0, 64, 73
2, 140721, Control_c, 0, 64, 72
2, 140736, Control_c, 0, 64, 69
2, 140750, Control_c, 0, 64, 65
2, 140766, Control_c, 0, 64, 60
2, 140781, Control_c, 0, 64, 57
2, 140781, Note_on_c, 0, 58, 80
2, 140795, Control_c, 0, 64, 56
2, 140811, Control_c, 0, 64, 54
2, 140812, Note_on_c, 0, 56, 0
2, 140826, Control_c, 0, 64, 44
2, 140842, Control_c, 0, 64, 0
2, 140900, Note_on_c, 0, 58, 0
2, 140917, Note_on_c, 0, 60, 73
2, 140921, Note_on_c, 0, 77, 85
2, 140930, Note_on_c, 0, 68, 77
2, 141039, Control_c, 0, 64, 63
2, 141047, Note_on_c, 0, 56, 77
2, 141055, Control_c, 0, 64, 67
2, 141055, Note_on_c, 0, 60, 0
2, 141070, Control_c, 0, 64, 68
2, 141085, Control_c, 0, 64, 69
2, 141095, Note_on_c, 0, 68, 0
2, 141100, Control_c, 0, 64, 70
2, 141115, Control_c, 0, 64, 71
2, 141161, Control_c, 0, 64, 70
2, 141173, Note_on_c, 0, 77, 0
2, 141176, Control_c, 0, 64, 69
2, 141185, Note_on_c, 0, 58, 80
2, 141191, Control_c, 0, 64, 64
2, 141206, Control_c, 0, 64, 32
2, 141217, Note_on_c, 0, 56, 0
2, 141221, Control_c, 0, 64, 0
2, 141300, Note_on_c, 0, 58, 0
2, 141316, Note_on_c, 0, 60, 76
2, 141414, Note_on_c, 0, 60, 0
2, 141449, Note_on_c, 0, 61, 73
2, 141451, Note_on_c, 0, 79, 86
2, 141454, Note_on_c, 0, 70, 76
2, 141518, Control_c, 0, 64, 64
2, 141534, Control_c, 0, 64, 69
2, 141549, Control_c, 0, 64, 72
2, 141564, Control_c, 0, 64, 74
2, 141569, Note_on_c, 0, 61, 0
2, 141575, Note_on_c, 0, 58, 71
2, 141578, Control_c, 0, 64, 77
2, 141593, Control_c, 0, 64, 80
2, 141609, Control_c, 0, 64, 81
2, 141611, Note_on_c, 0, 58, 0
2, 141618, Note_on_c, 0, 70, 0
2, 141620, Note_on_c, 0, 53, 0
2, 141624, Control_c, 0, 64, 81
2, 141669, Control_c, 0, 64, 80
2, 141685, Control_c, 0, 64, 73
2, 141700, Control_c, 0, 64, 58
2, 141712, Note_on_c, 0, 52, 75
2, 141712, Note_on_c, 0, 60, 73
2, 141715, Control_c, 0, 64, 0
2, 141810, Note_on_c, 0, 52, 0
2, 141835, Note_on_c, 0, 50, 70
2, 141894, Note_on_c, 0, 60, 0
2, 141965, Note_on_c, 0, 50, 0
2, 141978, Note_on_c, 0, 52, 72
2, 141980, Note_on_c, 0, 67, 63
2, 142196, Note_on_c, 0, 67, 0
2, 142262, Note_on_c, 0, 61, 79
2, 142467, Note_on_c, 0, 61, 0
2, 142516, Note_on_c, 0, 72, 75
2, 142522, Note_on_c, 0, 55, 67
2, 142682, Control_c, 0, 64, 27
2, 142697, Control_c, 0, 64, 33
2, 142712, Control_c, 0, 64, 29
2, 142742, Control_c, 0, 64, 26
2, 142743, Note_on_c, 0, 55, 0
2, 142757, Control_c, 0, 64, 0
2, 142778, Note_on_c, 0, 56, 65
2, 142797, Note_on_c, 0, 72, 0
2, 142884, Note_on_c, 0, 52, 0
2, 142886, Note_on_c, 0, 56, 0
2, 142902, Note_on_c, 0, 58, 60
2, 142991, Note_on_c, 0, 58, 0
2, 143046, Note_on_c, 0, 56, 57
2, 143055, Note_on_c, 0, 60, 63
2, 143058, Note_on_c, 0, 53, 61
2, 143069, Control_c, 0, 64, 61
2, 143085, Control_c, 0, 64, 72
2, 143100, Control_c, 0, 64, 72
2, 143115, Control_c, 0, 64, 71
2, 143131, Control_c, 0, 64, 71
2, 143144, Note_on_c, 0, 53, 0
2, 143146, Note_on_c, 0, 56, 0
2, 143184, Note_on_c, 0, 52, 65
2, 143222, Control_c, 0, 64, 70
2, 143237, Control_c, 0, 64, 68
2, 143253, Control_c, 0, 64, 64
2, 143259, Note_on_c, 0, 52, 0
2, 143267, Control_c, 0, 64, 28
2, 143283, Control_c, 0, 64, 0
2, 143315, Note_on_c, 0, 77, 69
2, 143315, Note_on_c, 0, 79, 0
2, 143324, Note_on_c, 0, 53, 54
2, 143391, Note_on_c, 0, 60, 0
2, 143427, Note_on_c, 0, 53, 0
2, 143443, Note_on_c, 0, 76, 68
2, 143443, Note_on_c, 0, 77, 0
2, 143446, Note_on_c, 0, 55, 61
2, 143562, Note_on_c, 0, 55, 0
2, 143569, Note_on_c, 0, 76, 0
2, 143589, Note_on_c, 0, 77, 78
2, 143592, Note_on_c, 0, 56, 58
2, 143605, Note_on_c, 0, 72, 52
2, 143650, Note_on_c, 0, 72, 0
2, 143650, Note_on_c, 0, 72, 19
2, 143655, Control_c, 0, 64, 64
2, 143669, Control_c, 0, 64, 68
2, 143684, Note_on_c, 0, 72, 0
2, 143685, Control_c, 0, 64, 70
2, 143700, Control_c, 0, 64, 70
2, 143707, Note_on_c, 0, 56, 0
2, 143715, Control_c, 0, 64, 71
2, 143791, Control_c, 0, 64, 69
2, 143807, Control_c, 0, 64, 65
2, 143822, Control_c, 0, 64, 0
2, 143866, Note_on_c, 0, 65, 70
2, 143985, Note_on_c, 0, 65, 0
2, 144128, Note_on_c, 0, 65, 65
2, 144129, Note_on_c, 0, 60, 69
2, 144140, Note_on_c, 0, 57, 54
2, 144173, Control_c, 0, 64, 66
2, 144187, Control_c, 0, 64, 69
2, 144203, Control_c, 0, 64, 72
2, 144218, Control_c, 0, 64, 74
2, 144232, Control_c, 0, 64, 77
2, 144241, Note_on_c, 0, 65, 0
2, 144248, Control_c, 0, 64, 79
2, 144263, Control_c, 0, 64, 79
2, 144316, Note_on_c, 0, 57, 0
2, 144347, Control_c, 0, 64, 76
2, 144363, Control_c, 0, 64, 66
2, 144364, Note_on_c, 0, 60, 0
2, 144378, Control_c, 0, 64, 0
2, 144399, Note_on_c, 0, 61, 67
2, 144483, Note_on_c, 0, 61, 0
2, 144516, Note_on_c, 0, 63, 66
2, 144569, Note_on_c, 0, 63, 0
2, 144643, Note_on_c, 0, 61, 68
2, 144645, Note_on_c, 0, 70, 64
2, 144651, Note_on_c, 0, 58, 62
2, 144666, Control_c, 0, 64, 66
2, 144682, Control_c, 0, 64, 74
2, 144682, Note_on_c, 0, 61, 0
2, 144695, Note_on_c, 0, 58, 0
2, 144697, Control_c, 0, 64, 78
2, 144711, Control_c, 0, 64, 79
2, 144727, Control_c, 0, 64, 80
2, 144742, Control_c, 0, 64, 81
2, 144757, Control_c, 0, 64, 82
2, 144783, Note_on_c, 0, 72, 64
2, 144787, Note_on_c, 0, 70, 0
2, 144850, Control_c, 0, 64, 80
2, 144865, Control_c, 0, 64, 76
2, 144877, Note_on_c, 0, 77, 0
2, 144877, Note_on_c, 0, 77, 30
2, 144879, Control_c, 0, 64, 64
2, 144895, Control_c, 0, 64, 0
2, 144904, Note_on_c, 0, 73, 66
2, 144916, Note_on_c, 0, 72, 0
2, 144918, Note_on_c, 0, 53, 57
2, 144924, Note_on_c, 0, 46, 59
2, 145014, Note_on_c, 0, 53, 0
2, 145021, Note_on_c, 0, 46, 0
2, 145021, Note_on_c, 0, 48, 61
2, 145133, Note_on_c, 0, 48, 0
2, 145165, Note_on_c, 0, 58, 55
2, 145180, Note_on_c, 0, 49, 53
2, 145221, Control_c, 0, 64, 29
2, 145236, Control_c, 0, 64, 69
2, 145252, Control_c, 0, 64, 77
2, 145267, Control_c, 0, 64, 83
2, 145278, Note_on_c, 0, 58, 0
2, 145282, Control_c, 0, 64, 84
2, 145321, Note_on_c, 0, 49, 0
2, 145331, Note_on_c, 0, 73, 0
2, 145357, Control_c, 0, 64, 83
2, 145373, Control_c, 0, 64, 78
2, 145388, Control_c, 0, 64, 69
2, 145403, Control_c, 0, 64, 44
2, 145418, Control_c, 0, 64, 0
2, 145446, Note_on_c, 0, 70, 68
2, 145632, Note_on_c, 0, 70, 0
2, 145702, Note_on_c, 0, 65, 68
2, 145704, Note_on_c, 0, 58, 48
2, 145710, Note_on_c, 0, 50, 44
2, 145769, Control_c, 0, 64, 21
2, 145783, Control_c, 0, 64, 69
2, 145798, Control_c, 0, 64, 79
2, 145810, Note_on_c, 0, 58, 0
2, 145814, Control_c, 0, 64, 87
2, 145829, Control_c, 0, 64, 89
2, 145834, Note_on_c, 0, 50, 0
2, 145852, Control_c, 0, 64, 90
2, 145855, Note_on_c, 0, 65, 0
2, 145867, Control_c, 0, 64, 91
2, 145913, Control_c, 0, 64, 90
2, 145928, Control_c, 0, 64, 90
2, 145943, Control_c, 0, 64, 88
2, 145958, Control_c, 0, 64, 84
2, 145970, Note_on_c, 0, 66, 67
2, 145974, Control_c, 0, 64, 78
2, 145989, Control_c, 0, 64, 70
2, 146004, Control_c, 0, 64, 61
2, 146019, Control_c, 0, 64, 35
2, 146034, Control_c, 0, 64, 24
2, 146064, Control_c, 0, 64, 19
2, 146079, Control_c, 0, 64, 0
2, 146085, Note_on_c, 0, 66, 0
2, 146097, Note_on_c, 0, 68, 60
2, 146156, Note_on_c, 0, 77, 0
2, 146234, Note_on_c, 0, 58, 51
2, 146234, Note_on_c, 0, 66, 67
2, 146236, Note_on_c, 0, 68, 0
2, 146244, Note_on_c, 0, 51, 42
2, 146336, Note_on_c, 0, 51, 0
2, 146375, Note_on_c, 0, 50, 53
2, 146422, Note_on_c, 0, 58, 0
2, 146506, Note_on_c, 0, 78, 67
2, 146515, Note_on_c, 0, 51, 39
2, 146533, Note_on_c, 0, 50, 0
2, 146635, Note_on_c, 0, 51, 0
2, 146644, Note_on_c, 0, 77, 67
2, 146647, Note_on_c, 0, 53, 49
2, 146654, Note_on_c, 0, 78, 0
2, 146665, Control_c, 0, 64, 16
2, 146669, Note_on_c, 0, 66, 0
2, 146681, Control_c, 0, 64, 18
2, 146696, Control_c, 0, 64, 16
2, 146711, Control_c, 0, 64, 10
2, 146727, Control_c, 0, 64, 0
2, 146777, Note_on_c, 0, 53, 0
2, 146793, Note_on_c, 0, 75, 73
2, 146802, Note_on_c, 0, 70, 53
2, 146809, Note_on_c, 0, 77, 0
2, 146818, Note_on_c, 0, 54, 37
2, 146908, Control_c, 0, 64, 22
2, 146923, Note_on_c, 0, 70, 0
2, 146924, Control_c, 0, 64, 44
2, 146939, Control_c, 0, 64, 52
2, 146954, Control_c, 0, 64, 50
2, 146969, Control_c, 0, 64, 19
2, 146984, Control_c, 0, 64, 0
2, 146989, Note_on_c, 0, 54, 0
2, 147072, Note_on_c, 0, 63, 59
2, 147106, Control_c, 0, 64, 63
2, 147121, Control_c, 0, 64, 74
2, 147136, Control_c, 0, 64, 81
2, 147151, Control_c, 0, 64, 83
2, 147157, Note_on_c, 0, 63, 0
2, 147182, Control_c, 0, 64, 83
2, 147259, Control_c, 0, 64, 82
2, 147273, Control_c, 0, 64, 79
2, 147289, Control_c, 0, 64, 72
2, 147304, Control_c, 0, 64, 51
2, 147319, Control_c, 0, 64, 0
2, 147344, Note_on_c, 0, 63, 63
2, 147347, Note_on_c, 0, 55, 47
2, 147347, Note_on_c, 0, 58, 62
2, 147418, Control_c, 0, 64, 18
2, 147433, Control_c, 0, 64, 67
2, 147449, Control_c, 0, 64, 73
2, 147458, Note_on_c, 0, 55, 0
2, 147463, Control_c, 0, 64, 79
2, 147478, Control_c, 0, 64, 80
2, 147494, Control_c, 0, 64, 81
2, 147571, Control_c, 0, 64, 80
2, 147586, Control_c, 0, 64, 76
2, 147593, Note_on_c, 0, 58, 0
2, 147601, Control_c, 0, 64, 65
2, 147610, Note_on_c, 0, 63, 0
2, 147616, Control_c, 0, 64, 0
2, 147627, Note_on_c, 0, 60, 59
2, 147708, Note_on_c, 0, 60, 0
2, 147734, Note_on_c, 0, 61, 59
2, 147867, Note_on_c, 0, 60, 58
2, 147867, Note_on_c, 0, 68, 62
2, 147873, Note_on_c, 0, 61, 0
2, 147876, Note_on_c, 0, 56, 56
2, 147907, Note_on_c, 0, 60, 0
2, 147918, Control_c, 0, 64, 69
2, 147934, Control_c, 0, 64, 77
2, 147937, Note_on_c, 0, 56, 0
2, 147949, Control_c, 0, 64, 82
2, 147965, Control_c, 0, 64, 83
2, 147980, Control_c, 0, 64, 84
2, 147995, Control_c, 0, 64, 84
2, 148005, Note_on_c, 0, 70, 60
2, 148011, Control_c, 0, 64, 85
2, 148071, Note_on_c, 0, 68, 0
2, 148102, Control_c, 0, 64, 80
2, 148117, Control_c, 0, 64, 72
2, 148117, Note_on_c, 0, 70, 0
2, 148132, Note_on_c, 0, 72, 64
2, 148133, Control_c, 0, 64, 51
2, 148154, Note_on_c, 0, 51, 56
2, 148155, Control_c, 0, 64, 0
2, 148167, Note_on_c, 0, 44, 48
2, 148226, Note_on_c, 0, 44, 0
2, 148264, Note_on_c, 0, 46, 61
2, 148298, Note_on_c, 0, 51, 0
2, 148350, Note_on_c, 0, 46, 0
2, 148407, Note_on_c, 0, 48, 55
2, 148414, Note_on_c, 0, 56, 48
2, 148445, Control_c, 0, 64, 29
2, 148459, Control_c, 0, 64, 69
2, 148474, Control_c, 0, 64, 76
2, 148490, Control_c, 0, 64, 81
2, 148497, Note_on_c, 0, 56, 0
2, 148504, Control_c, 0, 64, 82
2, 148519, Control_c, 0, 64, 84
2, 148522, Note_on_c, 0, 48, 0
2, 148535, Control_c, 0, 64, 85
2, 148550, Control_c, 0, 64, 85
2, 148594, Note_on_c, 0, 72, 0
2, 148595, Control_c, 0, 64, 85
2, 148611, Control_c, 0, 64, 83
2, 148626, Control_c, 0, 64, 78
2, 148642, Control_c, 0, 64, 67
2, 148656, Control_c, 0, 64, 0
2, 148702, Note_on_c, 0, 68, 60
2, 148894, Note_on_c, 0, 68, 0
2, 148966, Note_on_c, 0, 63, 63
2, 148973, Note_on_c, 0, 48, 46
2, 148985, Note_on_c, 0, 44, 38
2, 149015, Control_c, 0, 64, 65
2, 149029, Control_c, 0, 64, 73
2, 149045, Control_c, 0, 64, 79
2, 149060, Control_c, 0, 64, 81
2, 149075, Control_c, 0, 64, 82
2, 149091, Control_c, 0, 64, 82
2, 149117, Note_on_c, 0, 63, 0
2, 149124, Note_on_c, 0, 44, 0
2, 149133, Note_on_c, 0, 48, 0
2, 149182, Control_c, 0, 64, 82
2, 149196, Control_c, 0, 64, 80
2, 149212, Control_c, 0, 64, 78
2, 149227, Control_c, 0, 64, 75
2, 149243, Control_c, 0, 64, 70
2, 149251, Note_on_c, 0, 65, 59
2, 149258, Control_c, 0, 64, 65
2, 149273, Control_c, 0, 64, 60
2, 149289, Control_c, 0, 64, 53
2, 149304, Control_c, 0, 64, 50
2, 149319, Control_c, 0, 64, 47
2, 149335, Control_c, 0, 64, 40
2, 149349, Control_c, 0, 64, 0
2, 149356, Note_on_c, 0, 65, 0
2, 149377, Note_on_c, 0, 66, 54
2, 149506, Note_on_c, 0, 66, 0
2, 149525, Note_on_c, 0, 65, 59
2, 149529, Note_on_c, 0, 49, 42
2, 149530, Note_on_c, 0, 37, 46
2, 149608, Control_c, 0, 64, 55
2, 149623, Control_c, 0, 64, 69
2, 149637, Control_c, 0, 64, 75
2, 149645, Note_on_c, 0, 37, 0
2, 149654, Control_c, 0, 64, 79
2, 149669, Control_c, 0, 64, 81
2, 149692, Control_c, 0, 64, 82
2, 149753, Control_c, 0, 64, 81
2, 149769, Control_c, 0, 64, 76
2, 149784, Control_c, 0, 64, 64
2, 149798, Control_c, 0, 64, 0
2, 149803, Note_on_c, 0, 51, 50
2, 149806, Note_on_c, 0, 73, 63
2, 149812, Note_on_c, 0, 66, 56
2, 149824, Note_on_c, 0, 49, 0
2, 149874, Control_c, 0, 64, 25
2, 149885, Note_on_c, 0, 75, 0
2, 149890, Control_c, 0, 64, 64
2, 149905, Control_c, 0, 64, 70
2, 149919, Control_c, 0, 64, 75
2, 149927, Note_on_c, 0, 73, 0
2, 149931, Note_on_c, 0, 65, 0
2, 149935, Control_c, 0, 64, 78
2, 149936, Note_on_c, 0, 72, 70
2, 149950, Control_c, 0, 64, 79
2, 149952, Note_on_c, 0, 66, 0
2, 149989, Note_on_c, 0, 51, 0
2, 150011, Control_c, 0, 64, 78
2, 150026, Control_c, 0, 64, 73
2, 150042, Control_c, 0, 64, 62
2, 150057, Control_c, 0, 64, 0
2, 150067, Note_on_c, 0, 68, 71
2, 150070, Note_on_c, 0, 53, 48
2, 150074, Note_on_c, 0, 73, 71
2, 150092, Note_on_c, 0, 72, 0
2, 150178, Control_c, 0, 64, 41
2, 150193, Control_c, 0, 64, 63
2, 150209, Control_c, 0, 64, 67
2, 150224, Control_c, 0, 64, 69
2, 150239, Control_c, 0, 64, 71
2, 150248, Note_on_c, 0, 53, 0
2, 150255, Control_c, 0, 64, 72
2, 150269, Control_c, 0, 64, 72
2, 150300, Control_c, 0, 64, 71
2, 150315, Control_c, 0, 64, 67
2, 150330, Control_c, 0, 64, 52
2, 150345, Control_c, 0, 64, 0
2, 150346, Note_on_c, 0, 49, 42
2, 150346, Note_on_c, 0, 77, 72
2, 150359, Note_on_c, 0, 73, 0
2, 150460, Control_c, 0, 64, 63
2, 150475, Control_c, 0, 64, 69
2, 150491, Control_c, 0, 64, 72
2, 150505, Control_c, 0, 64, 73
2, 150521, Control_c, 0, 64, 74
2, 150567, Control_c, 0, 64, 73
2, 150582, Control_c, 0, 64, 67
2, 150597, Control_c, 0, 64, 29
2, 150604, Note_on_c, 0, 77, 0
2, 150613, Control_c, 0, 64, 0
2, 150616, Note_on_c, 0, 70, 63
2, 150618, Note_on_c, 0, 49, 0
2, 150619, Note_on_c, 0, 54, 46
2, 150702, Note_on_c, 0, 68, 0
2, 150718, Control_c, 0, 64, 63
2, 150734, Control_c, 0, 64, 68
2, 150749, Control_c, 0, 64, 71
2, 150764, Control_c, 0, 64, 74
2, 150779, Control_c, 0, 64, 75
2, 150794, Control_c, 0, 64, 75
2, 150825, Control_c, 0, 64, 74
2, 150839, Control_c, 0, 64, 69
2, 150855, Control_c, 0, 64, 38
2, 150870, Control_c, 0, 64, 0
2, 150882, Note_on_c, 0, 58, 45
2, 150887, Note_on_c, 0, 73, 59
2, 150894, Note_on_c, 0, 66, 55
2, 150912, Note_on_c, 0, 70, 0
2, 150926, Note_on_c, 0, 54, 0
2, 150961, Control_c, 0, 64, 43
2, 150976, Control_c, 0, 64, 63
2, 150991, Control_c, 0, 64, 65
2, 151005, Note_on_c, 0, 66, 0
2, 151007, Control_c, 0, 64, 66
2, 151020, Note_on_c, 0, 65, 61
2, 151022, Control_c, 0, 64, 67
2, 151037, Control_c, 0, 64, 68
2, 151053, Control_c, 0, 64, 68
2, 151068, Control_c, 0, 64, 68
2, 151084, Control_c, 0, 64, 66
2, 151099, Control_c, 0, 64, 61
2, 151113, Control_c, 0, 64, 0
2, 151163, Note_on_c, 0, 58, 0
2, 151163, Note_on_c, 0, 66, 66
2, 151175, Note_on_c, 0, 51, 46
2, 151190, Note_on_c, 0, 65, 0
2, 151258, Control_c, 0, 64, 63
2, 151272, Control_c, 0, 64, 69
2, 151288, Control_c, 0, 64, 73
2, 151304, Control_c, 0, 64, 76
2, 151319, Control_c, 0, 64, 77
2, 151335, Control_c, 0, 64, 78
2, 151355, Note_on_c, 0, 66, 0
2, 151373, Note_on_c, 0, 51, 0
2, 151380, Control_c, 0, 64, 77
2, 151380, Note_on_c, 0, 73, 0
2, 151395, Control_c, 0, 64, 74
2, 151411, Control_c, 0, 64, 65
2, 151426, Control_c, 0, 64, 0
2, 151447, Note_on_c, 0, 54, 50
2, 151447, Note_on_c, 0, 63, 55
2, 151447, Note_on_c, 0, 72, 63
2, 151533, Control_c, 0, 64, 49
2, 151548, Control_c, 0, 64, 66
2, 151563, Control_c, 0, 64, 69
2, 151572, Note_on_c, 0, 73, 73
2, 151578, Control_c, 0, 64, 71
2, 151586, Note_on_c, 0, 72, 0
2, 151593, Control_c, 0, 64, 72
2, 151608, Control_c, 0, 64, 73
2, 151638, Control_c, 0, 64, 72
2, 151654, Control_c, 0, 64, 70
2, 151658, Note_on_c, 0, 54, 0
2, 151669, Control_c, 0, 64, 64
2, 151684, Control_c, 0, 64, 0
2, 151716, Note_on_c, 0, 75, 75
2, 151722, Note_on_c, 0, 48, 48
2, 151726, Note_on_c, 0, 73, 0
2, 151805, Control_c, 0, 64, 55
2, 151820, Control_c, 0, 64, 68
2, 151835, Control_c, 0, 64, 73
2, 151851, Control_c, 0, 64, 76
2, 151866, Control_c, 0, 64, 76
2, 151897, Note_on_c, 0, 48, 0
2, 151927, Control_c, 0, 64, 72
2, 151931, Note_on_c, 0, 63, 0
2, 151942, Control_c, 0, 64, 63
2, 151942, Note_on_c, 0, 75, 0
2, 151957, Control_c, 0, 64, 0
2, 151973, Note_on_c, 0, 66, 68
2, 151973, Note_on_c, 0, 72, 72
2, 151994, Note_on_c, 0, 51, 52
2, 152071, Control_c, 0, 64, 63
2, 152087, Control_c, 0, 64, 70
2, 152101, Control_c, 0, 64, 74
2, 152117, Control_c, 0, 64, 78
2, 152133, Control_c, 0, 64, 80
2, 152164, Control_c, 0, 64, 80
2, 152175, Note_on_c, 0, 51, 0
2, 152193, Control_c, 0, 64, 80
2, 152203, Note_on_c, 0, 72, 0
2, 152209, Control_c, 0, 64, 75
2, 152224, Control_c, 0, 64, 65
2, 152239, Control_c, 0, 64, 0
2, 152252, Note_on_c, 0, 69, 71
2, 152266, Note_on_c, 0, 53, 60
2, 152291, Note_on_c, 0, 66, 0
2, 152331, Control_c, 0, 64, 50
2, 152346, Control_c, 0, 64, 67
2, 152362, Control_c, 0, 64, 72
2, 152376, Control_c, 0, 64, 77
2, 152391, Control_c, 0, 64, 79
2, 152407, Control_c, 0, 64, 81
2, 152425, Note_on_c, 0, 53, 0
2, 152452, Control_c, 0, 64, 79
2, 152467, Control_c, 0, 64, 71
2, 152483, Control_c, 0, 64, 38
2, 152498, Control_c, 0, 64, 0
2, 152502, Note_on_c, 0, 69, 0
2, 152515, Note_on_c, 0, 72, 66
2, 152517, Note_on_c, 0, 65, 61
2, 152521, Note_on_c, 0, 57, 57
2, 152573, Control_c, 0, 64, 22
2, 152588, Control_c, 0, 64, 65
2, 152604, Control_c, 0, 64, 69
2, 152619, Control_c, 0, 64, 73
2, 152632, Note_on_c, 0, 65, 0
2, 152634, Control_c, 0, 64, 75
2, 152643, Note_on_c, 0, 63, 64
2, 152649, Control_c, 0, 64, 77
2, 152649, Note_on_c, 0, 57, 0
2, 152664, Control_c, 0, 64, 79
2, 152679, Control_c, 0, 64, 79
2, 152740, Control_c, 0, 64, 78
2, 152764, Control_c, 0, 64, 69
2, 152779, Control_c, 0, 64, 0
2, 152789, Note_on_c, 0, 58, 89
2, 152795, Note_on_c, 0, 63, 0
2, 152808, Note_on_c, 0, 61, 65
2, 152843, Note_on_c, 0, 72, 0
2, 153074, Note_on_c, 0, 61, 0
2, 153074, Note_on_c, 0, 70, 78
2, 153084, Control_c, 0, 64, 48
2, 153098, Control_c, 0, 64, 69
2, 153113, Control_c, 0, 64, 74
2, 153129, Control_c, 0, 64, 78
2, 153144, Control_c, 0, 64, 80
2, 153155, Note_on_c, 0, 58, 0
2, 153159, Control_c, 0, 64, 82
2, 153175, Control_c, 0, 64, 84
2, 153190, Control_c, 0, 64, 85
2, 153205, Control_c, 0, 64, 86
2, 153220, Note_on_c, 0, 70, 0
2, 153282, Control_c, 0, 64, 84
2, 153296, Control_c, 0, 64, 79
2, 153311, Control_c, 0, 64, 67
2, 153327, Control_c, 0, 64, 0
2, 153340, Note_on_c, 0, 60, 75
2, 153340, Note_on_c, 0, 69, 99
2, 153603, Note_on_c, 0, 60, 0
2, 153614, Note_on_c, 0, 78, 80
2, 153741, Note_on_c, 0, 69, 0
2, 153865, Note_on_c, 0, 70, 90
2, 153874, Note_on_c, 0, 78, 0
2, 153996, Note_on_c, 0, 77, 75
2, 154121, Note_on_c, 0, 61, 86
2, 154121, Note_on_c, 0, 75, 73
2, 154136, Note_on_c, 0, 77, 0
2, 154148, Note_on_c, 0, 70, 0
2, 154185, Control_c, 0, 64, 26
2, 154201, Control_c, 0, 64, 53
2, 154216, Control_c, 0, 64, 59
2, 154231, Control_c, 0, 64, 60
2, 154248, Note_on_c, 0, 73, 74
2, 154271, Note_on_c, 0, 75, 0
2, 154300, Control_c, 0, 64, 57
2, 154312, Note_on_c, 0, 61, 0
2, 154313, Control_c, 0, 64, 39
2, 154325, Control_c, 0, 64, 0
2, 154358, Note_on_c, 0, 73, 0
2, 154381, Note_on_c, 0, 63, 89
2, 154387, Note_on_c, 0, 72, 81
2, 154447, Control_c, 0, 64, 53
2, 154463, Control_c, 0, 64, 65
2, 154477, Control_c, 0, 64, 68
2, 154492, Control_c, 0, 64, 71
2, 154500, Note_on_c, 0, 73, 77
2, 154508, Control_c, 0, 64, 73
2, 154517, Note_on_c, 0, 72, 0
2, 154523, Control_c, 0, 64, 74
2, 154539, Control_c, 0, 64, 74
2, 154542, Note_on_c, 0, 73, 0
2, 154554, Note_on_c, 0, 63, 0
2, 154569, Control_c, 0, 64, 74
2, 154585, Control_c, 0, 64, 70
2, 154600, Control_c, 0, 64, 60
2, 154616, Control_c, 0, 64, 0
2, 154636, Note_on_c, 0, 72, 89
2, 154639, Note_on_c, 0, 57, 79
2, 154643, Note_on_c, 0, 75, 84
2, 154721, Control_c, 0, 64, 56
2, 154737, Control_c, 0, 64, 67
2, 154752, Control_c, 0, 64, 70
2, 154767, Control_c, 0, 64, 72
2, 154782, Control_c, 0, 64, 73
2, 154789, Note_on_c, 0, 75, 0
2, 154827, Control_c, 0, 64, 73
2, 154842, Control_c, 0, 64, 68
2, 154858, Control_c, 0, 64, 55
2, 154858, Note_on_c, 0, 57, 0
2, 154873, Control_c, 0, 64, 0
2, 154896, Note_on_c, 0, 58, 82
2, 154898, Note_on_c, 0, 73, 91
2, 154904, Note_on_c, 0, 72, 0
2, 154964, Control_c, 0, 64, 22
2, 154980, Control_c, 0, 64, 65
2, 154995, Control_c, 0, 64, 70
2, 155010, Control_c, 0, 64, 74
2, 155025, Control_c, 0, 64, 76
2, 155040, Control_c, 0, 64, 77
2, 155109, Control_c, 0, 64, 74
2, 155111, Note_on_c, 0, 58, 0
2, 155113, Note_on_c, 0, 73, 0
2, 155123, Control_c, 0, 64, 67
2, 155139, Control_c, 0, 64, 0
2, 155168, Note_on_c, 0, 67, 83
2, 155172, Note_on_c, 0, 82, 86
2, 155245, Control_c, 0, 64, 56
2, 155261, Control_c, 0, 64, 67
2, 155276, Control_c, 0, 64, 71
2, 155291, Control_c, 0, 64, 74
2, 155307, Control_c, 0, 64, 76
2, 155321, Control_c, 0, 64, 77
2, 155325, Note_on_c, 0, 67, 0
2, 155352, Control_c, 0, 64, 76
2, 155367, Control_c, 0, 64, 71
2, 155383, Control_c, 0, 64, 59
2, 155399, Control_c, 0, 64, 0
2, 155418, Note_on_c, 0, 82, 0
2, 155424, Note_on_c, 0, 69, 87
2, 155424, Note_on_c, 0, 84, 78
2, 155489, Control_c, 0, 64, 64
2, 155505, Control_c, 0, 64, 71
2, 155520, Control_c, 0, 64, 75
2, 155527, Note_on_c, 0, 84, 0
2, 155536, Control_c, 0, 64, 77
2, 155550, Control_c, 0, 64, 78
2, 155561, Note_on_c, 0, 69, 0
2, 155626, Control_c, 0, 64, 76
2, 155641, Control_c, 0, 64, 71
2, 155657, Control_c, 0, 64, 57
2, 155671, Control_c, 0, 64, 0
2, 155682, Note_on_c, 0, 75, 85
2, 155689, Note_on_c, 0, 60, 75
2, 155937, Note_on_c, 0, 60, 0
2, 155945, Note_on_c, 0, 61, 77
2, 156057, Note_on_c, 0, 61, 0
2, 156063, Note_on_c, 0, 58, 78
2, 156193, Note_on_c, 0, 73, 83
2, 156194, Note_on_c, 0, 70, 81
2, 156197, Note_on_c, 0, 58, 0
2, 156198, Note_on_c, 0, 60, 75
2, 156236, Note_on_c, 0, 75, 0
2, 156273, Control_c, 0, 64, 46
2, 156288, Control_c, 0, 64, 69
2, 156304, Control_c, 0, 64, 75
2, 156305, Note_on_c, 0, 60, 0
2, 156312, Note_on_c, 0, 61, 79
2, 156318, Control_c, 0, 64, 79
2, 156320, Note_on_c, 0, 73, 0
2, 156367, Note_on_c, 0, 70, 0
2, 156394, Control_c, 0, 64, 77
2, 156409, Control_c, 0, 64, 72
2, 156425, Control_c, 0, 64, 63
2, 156435, Note_on_c, 0, 61, 0
2, 156439, Control_c, 0, 64, 0
2, 156450, Note_on_c, 0, 63, 78
2, 156450, Note_on_c, 0, 72, 80
2, 156450, Note_on_c, 0, 78, 84
2, 156568, Note_on_c, 0, 72, 0
2, 156578, Note_on_c, 0, 60, 70
2, 156579, Note_on_c, 0, 69, 73
2, 156583, Note_on_c, 0, 63, 0
2, 156711, Note_on_c, 0, 69, 0
2, 156715, Note_on_c, 0, 61, 75
2, 156715, Note_on_c, 0, 70, 78
2, 156735, Note_on_c, 0, 60, 0
2, 156811, Note_on_c, 0, 78, 0
2, 156835, Note_on_c, 0, 70, 0
2, 156836, Note_on_c, 0, 63, 74
2, 156838, Note_on_c, 0, 72, 76
2, 156864, Note_on_c, 0, 61, 0
2, 156935, Note_on_c, 0, 72, 0
2, 156938, Note_on_c, 0, 63, 0
2, 156960, Note_on_c, 0, 77, 89
2, 156961, Note_on_c, 0, 65, 80
2, 156967, Note_on_c, 0, 73, 76
2, 157073, Note_on_c, 0, 65, 0
2, 157088, Note_on_c, 0, 61, 74
2, 157093, Note_on_c, 0, 70, 77
2, 157132, Note_on_c, 0, 73, 0
2, 157205, Note_on_c, 0, 70, 0
2, 157217, Note_on_c, 0, 72, 80
2, 157221, Note_on_c, 0, 63, 76
2, 157251, Note_on_c, 0, 61, 0
2, 157267, Note_on_c, 0, 77, 0
2, 157336, Note_on_c, 0, 73, 81
2, 157347, Note_on_c, 0, 65, 77
2, 157352, Note_on_c, 0, 63, 0
2, 157352, Note_on_c, 0, 72, 0
2, 157468, Note_on_c, 0, 82, 89
2, 157474, Note_on_c, 0, 65, 0
2, 157480, Note_on_c, 0, 66, 83
2, 157480, Note_on_c, 0, 75, 76
2, 157506, Note_on_c, 0, 73, 0
2, 157595, Control_c, 0, 64, 25
2, 157595, Note_on_c, 0, 72, 80
2, 157606, Note_on_c, 0, 63, 73
2, 157610, Control_c, 0, 64, 24
2, 157611, Note_on_c, 0, 66, 0
2, 157626, Control_c, 0, 64, 26
2, 157640, Control_c, 0, 64, 34
2, 157656, Control_c, 0, 64, 41
2, 157671, Control_c, 0, 64, 36
2, 157685, Note_on_c, 0, 82, 0
2, 157686, Control_c, 0, 64, 0
2, 157690, Note_on_c, 0, 72, 0
2, 157730, Note_on_c, 0, 73, 84
2, 157736, Note_on_c, 0, 65, 76
2, 157761, Note_on_c, 0, 63, 0
2, 157762, Note_on_c, 0, 75, 0
2, 157808, Control_c, 0, 64, 42
2, 157823, Control_c, 0, 64, 66
2, 157825, Note_on_c, 0, 73, 0
2, 157838, Control_c, 0, 64, 70
2, 157847, Note_on_c, 0, 75, 71
2, 157855, Control_c, 0, 64, 72
2, 157869, Control_c, 0, 64, 72
2, 157900, Control_c, 0, 64, 72
2, 157915, Control_c, 0, 64, 70
2, 157915, Note_on_c, 0, 65, 0
2, 157930, Control_c, 0, 64, 66
2, 157946, Control_c, 0, 64, 59
2, 157961, Control_c, 0, 64, 44
2, 157977, Control_c, 0, 64, 21
2, 157980, Note_on_c, 0, 81, 86
2, 157983, Note_on_c, 0, 77, 82
2, 157985, Note_on_c, 0, 75, 0
2, 157991, Control_c, 0, 64, 0
2, 158117, Note_on_c, 0, 77, 0
2, 158132, Note_on_c, 0, 73, 76
2, 158264, Note_on_c, 0, 75, 74
2, 158267, Note_on_c, 0, 73, 0
2, 158268, Note_on_c, 0, 66, 76
2, 158424, Control_c, 0, 64, 28
2, 158439, Control_c, 0, 64, 33
2, 158455, Control_c, 0, 64, 25
2, 158469, Control_c, 0, 64, 0
2, 158477, Note_on_c, 0, 66, 0
2, 158531, Note_on_c, 0, 60, 71
2, 158597, Note_on_c, 0, 75, 0
2, 158606, Control_c, 0, 64, 62
2, 158622, Control_c, 0, 64, 66
2, 158636, Control_c, 0, 64, 68
2, 158651, Control_c, 0, 64, 68
2, 158668, Control_c, 0, 64, 69
2, 158699, Control_c, 0, 64, 68
2, 158713, Control_c, 0, 64, 66
2, 158728, Control_c, 0, 64, 60
2, 158744, Control_c, 0, 64, 0
2, 158751, Note_on_c, 0, 60, 0
2, 158794, Note_on_c, 0, 61, 64
2, 158801, Note_on_c, 0, 77, 74
2, 158822, Note_on_c, 0, 81, 0
2, 158903, Control_c, 0, 64, 61
2, 158912, Note_on_c, 0, 61, 0
2, 158918, Control_c, 0, 64, 66
2, 158933, Control_c, 0, 64, 69
2, 158937, Note_on_c, 0, 63, 59
2, 158949, Control_c, 0, 64, 71
2, 158964, Control_c, 0, 64, 72
2, 158979, Control_c, 0, 64, 72
2, 159009, Control_c, 0, 64, 72
2, 159021, Note_on_c, 0, 77, 0
2, 159025, Control_c, 0, 64, 68
2, 159035, Note_on_c, 0, 63, 0
2, 159040, Control_c, 0, 64, 58
2, 159056, Control_c, 0, 64, 0
2, 159076, Note_on_c, 0, 61, 56
2, 159076, Note_on_c, 0, 82, 71
2, 159077, Note_on_c, 0, 70, 67
2, 159177, Control_c, 0, 64, 56
2, 159192, Control_c, 0, 64, 68
2, 159207, Control_c, 0, 64, 73
2, 159223, Control_c, 0, 64, 78
2, 159237, Control_c, 0, 64, 81
2, 159243, Note_on_c, 0, 70, 0
2, 159251, Control_c, 0, 64, 82
2, 159298, Control_c, 0, 64, 81
2, 159312, Control_c, 0, 64, 78
2, 159322, Note_on_c, 0, 61, 0
2, 159327, Control_c, 0, 64, 70
2, 159338, Note_on_c, 0, 58, 54
2, 159343, Control_c, 0, 64, 40
2, 159343, Note_on_c, 0, 72, 67
2, 159358, Control_c, 0, 64, 0
2, 159434, Control_c, 0, 64, 63
2, 159449, Control_c, 0, 64, 66
2, 159452, Note_on_c, 0, 72, 0
2, 159462, Note_on_c, 0, 73, 68
2, 159465, Control_c, 0, 64, 67
2, 159526, Control_c, 0, 64, 66
2, 159542, Control_c, 0, 64, 64
2, 159557, Control_c, 0, 64, 58
2, 159557, Note_on_c, 0, 82, 0
2, 159572, Control_c, 0, 64, 38
2, 159588, Control_c, 0, 64, 0
2, 159605, Note_on_c, 0, 72, 64
2, 159605, Note_on_c, 0, 73, 0
2, 159613, Note_on_c, 0, 63, 53
2, 159678, Note_on_c, 0, 58, 0
2, 159845, Note_on_c, 0, 63, 0
2, 159861, Note_on_c, 0, 65, 53
2, 159861, Note_on_c, 0, 70, 65
2, 159895, Note_on_c, 0, 72, 0
2, 159996, Note_on_c, 0, 65, 0
2, 159997, Note_on_c, 0, 66, 58
2, 160115, Note_on_c, 0, 66, 0
2, 160137, Note_on_c, 0, 69, 67
2, 160141, Note_on_c, 0, 65, 51
2, 160161, Note_on_c, 0, 70, 0
2, 160399, Note_on_c, 0, 70, 58
2, 160412, Note_on_c, 0, 63, 43
2, 160418, Note_on_c, 0, 65, 0
2, 160434, Note_on_c, 0, 69, 0
2, 160540, Note_on_c, 0, 70, 0
2, 160540, Note_on_c, 0, 72, 60
2, 160672, Note_on_c, 0, 70, 61
2, 160676, Note_on_c, 0, 63, 0
2, 160679, Note_on_c, 0, 72, 0
2, 160687, Note_on_c, 0, 62, 38
2, 160951, Note_on_c, 0, 68, 59
2, 160955, Note_on_c, 0, 62, 0
2, 160956, Note_on_c, 0, 63, 50
2, 160982, Note_on_c, 0, 70, 0
2, 161067, Note_on_c, 0, 63, 0
2, 161082, Note_on_c, 0, 65, 47
2, 161228, Note_on_c, 0, 67, 59
2, 161234, Note_on_c, 0, 63, 46
2, 161235, Note_on_c, 0, 65, 0
2, 161247, Note_on_c, 0, 68, 0
2, 161504, Note_on_c, 0, 68, 60
2, 161519, Note_on_c, 0, 61, 45
2, 161521, Note_on_c, 0, 67, 0
2, 161524, Note_on_c, 0, 63, 0
2, 161626, Note_on_c, 0, 68, 0
2, 161633, Note_on_c, 0, 70, 58
2, 161746, Note_on_c, 0, 61, 0
2, 161778, Note_on_c, 0, 60, 48
2, 161779, Note_on_c, 0, 68, 59
2, 161786, Note_on_c, 0, 70, 0
2, 162030, Note_on_c, 0, 60, 0
2, 162051, Note_on_c, 0, 66, 61
2, 162059, Note_on_c, 0, 61, 56
2, 162066, Note_on_c, 0, 68, 0
2, 162173, Note_on_c, 0, 61, 0
2, 162194, Note_on_c, 0, 63, 53
2, 162293, Note_on_c, 0, 66, 0
2, 162305, Note_on_c, 0, 63, 0
2, 162320, Note_on_c, 0, 73, 82
2, 162329, Note_on_c, 0, 61, 60
2, 162337, Note_on_c, 0, 65, 62
2, 162354, Control_c, 0, 64, 51
2, 162369, Control_c, 0, 64, 68
2, 162385, Control_c, 0, 64, 67
2, 162400, Control_c, 0, 64, 66
2, 162416, Control_c, 0, 64, 65
2, 162431, Control_c, 0, 64, 64
2, 162446, Control_c, 0, 64, 64
2, 162462, Control_c, 0, 64, 63
2, 162491, Control_c, 0, 64, 64
2, 162507, Control_c, 0, 64, 63
2, 162522, Control_c, 0, 64, 60
2, 162538, Control_c, 0, 64, 55
2, 162552, Control_c, 0, 64, 38
2, 162553, Note_on_c, 0, 61, 0
2, 162563, Note_on_c, 0, 65, 0
2, 162567, Control_c, 0, 64, 0
2, 162582, Note_on_c, 0, 60, 48
2, 162584, Note_on_c, 0, 63, 64
2, 162637, Note_on_c, 0, 73, 0
2, 162678, Note_on_c, 0, 63, 0
2, 162698, Note_on_c, 0, 60, 0
2, 162704, Note_on_c, 0, 58, 59
2, 162705, Note_on_c, 0, 65, 59
2, 162787, Note_on_c, 0, 58, 0
2, 162811, Note_on_c, 0, 65, 0
2, 162846, Note_on_c, 0, 75, 82
2, 162849, Note_on_c, 0, 48, 76
2, 162859, Note_on_c, 0, 56, 67
2, 162865, Note_on_c, 0, 66, 56
2, 162880, Control_c, 0, 64, 48
2, 162896, Control_c, 0, 64, 72
2, 162910, Control_c, 0, 64, 74
2, 162941, Control_c, 0, 64, 73
2, 163080, Note_on_c, 0, 48, 0
2, 163092, Control_c, 0, 64, 71
2, 163092, Note_on_c, 0, 66, 0
2, 163108, Control_c, 0, 64, 66
2, 163110, Note_on_c, 0, 65, 65
2, 163114, Note_on_c, 0, 75, 0
2, 163122, Control_c, 0, 64, 0
2, 163226, Note_on_c, 0, 65, 0
2, 163239, Note_on_c, 0, 63, 60
2, 163347, Note_on_c, 0, 63, 0
2, 163371, Note_on_c, 0, 61, 66
2, 163376, Note_on_c, 0, 49, 81
2, 163396, Control_c, 0, 64, 61
2, 163408, Note_on_c, 0, 61, 0
2, 163411, Control_c, 0, 64, 76
2, 163427, Control_c, 0, 64, 78
2, 163457, Control_c, 0, 64, 77
2, 163536, Note_on_c, 0, 49, 0
2, 163602, Control_c, 0, 64, 77
2, 163617, Control_c, 0, 64, 74
2, 163632, Control_c, 0, 64, 67
2, 163632, Note_on_c, 0, 77, 76
2, 163639, Note_on_c, 0, 73, 69
2, 163647, Control_c, 0, 64, 51
2, 163663, Control_c, 0, 64, 0
2, 163709, Control_c, 0, 64, 18
2, 163740, Control_c, 0, 64, 19
2, 163755, Control_c, 0, 64, 29
2, 163769, Control_c, 0, 64, 40
2, 163785, Control_c, 0, 64, 41
2, 163800, Control_c, 0, 64, 0
2, 163849, Note_on_c, 0, 77, 0
2, 163880, Note_on_c, 0, 73, 0
2, 163889, Note_on_c, 0, 78, 82
2, 163895, Note_on_c, 0, 72, 71
2, 163939, Control_c, 0, 64, 61
2, 163954, Control_c, 0, 64, 68
2, 163969, Control_c, 0, 64, 72
2, 163984, Control_c, 0, 64, 73
2, 163999, Control_c, 0, 64, 73
2, 164001, Note_on_c, 0, 72, 0
2, 164012, Note_on_c, 0, 78, 0
2, 164014, Note_on_c, 0, 70, 70
2, 164044, Control_c, 0, 64, 72
2, 164060, Control_c, 0, 64, 70
2, 164075, Control_c, 0, 64, 63
2, 164085, Note_on_c, 0, 70, 0
2, 164090, Control_c, 0, 64, 0
2, 164134, Note_on_c, 0, 72, 73
2, 164136, Note_on_c, 0, 51, 63
2, 164140, Note_on_c, 0, 68, 65
2, 164187, Note_on_c, 0, 68, 0
2, 164197, Control_c, 0, 64, 59
2, 164213, Control_c, 0, 64, 66
2, 164227, Control_c, 0, 64, 68
2, 164242, Control_c, 0, 64, 68
2, 164276, Note_on_c, 0, 66, 71
2, 164279, Note_on_c, 0, 72, 0
2, 164296, Control_c, 0, 64, 68
2, 164310, Control_c, 0, 64, 65
2, 164325, Control_c, 0, 64, 45
2, 164341, Control_c, 0, 64, 0
2, 164347, Note_on_c, 0, 51, 0
2, 164384, Note_on_c, 0, 66, 0
2, 164402, Note_on_c, 0, 73, 80
2, 164413, Note_on_c, 0, 53, 62
2, 164420, Note_on_c, 0, 65, 59
2, 164478, Control_c, 0, 64, 62
2, 164494, Control_c, 0, 64, 66
2, 164509, Control_c, 0, 64, 66
2, 164525, Note_on_c, 0, 53, 0
2, 164530, Note_on_c, 0, 65, 0
2, 164533, Note_on_c, 0, 63, 66
2, 164544, Note_on_c, 0, 73, 0
2, 164555, Control_c, 0, 64, 65
2, 164570, Control_c, 0, 64, 59
2, 164585, Control_c, 0, 64, 0
2, 164619, Note_on_c, 0, 63, 0
2, 164664, Note_on_c, 0, 46, 66
2, 164664, Note_on_c, 0, 61, 73
2, 164722, Control_c, 0, 64, 64
2, 164737, Control_c, 0, 64, 70
2, 164743, Note_on_c, 0, 61, 0
2, 164752, Control_c, 0, 64, 73
2, 164767, Control_c, 0, 64, 74
2, 164783, Control_c, 0, 64, 76
2, 164798, Control_c, 0, 64, 77
2, 164812, Note_on_c, 0, 46, 0
2, 164813, Control_c, 0, 64, 78
2, 164828, Control_c, 0, 64, 79
2, 164873, Control_c, 0, 64, 78
2, 164889, Control_c, 0, 64, 71
2, 164904, Control_c, 0, 64, 36
2, 164909, Note_on_c, 0, 56, 0
2, 164919, Control_c, 0, 64, 0
2, 164921, Note_on_c, 0, 48, 62
2, 164931, Note_on_c, 0, 68, 70
2, 165065, Note_on_c, 0, 54, 57
2, 165149, Note_on_c, 0, 54, 0
2, 165182, Note_on_c, 0, 75, 85
2, 165188, Note_on_c, 0, 53, 61
2, 165298, Note_on_c, 0, 53, 0
2, 165310, Note_on_c, 0, 48, 0
2, 165313, Note_on_c, 0, 51, 58
2, 165401, Note_on_c, 0, 75, 0
2, 165409, Note_on_c, 0, 51, 0
2, 165452, Note_on_c, 0, 49, 64
2, 165455, Note_on_c, 0, 77, 78
2, 165491, Control_c, 0, 64, 63
2, 165505, Control_c, 0, 64, 71
2, 165520, Control_c, 0, 64, 71
2, 165548, Note_on_c, 0, 49, 0
2, 165551, Control_c, 0, 64, 71
2, 165577, Note_on_c, 0, 77, 0
2, 165585, Note_on_c, 0, 73, 69
2, 165596, Control_c, 0, 64, 70
2, 165612, Control_c, 0, 64, 68
2, 165626, Control_c, 0, 64, 63
2, 165641, Control_c, 0, 64, 39
2, 165657, Control_c, 0, 64, 0
2, 165713, Note_on_c, 0, 61, 66
2, 165714, Note_on_c, 0, 75, 71
2, 165716, Note_on_c, 0, 49, 69
2, 165741, Note_on_c, 0, 73, 0
2, 165763, Control_c, 0, 64, 44
2, 165778, Control_c, 0, 64, 68
2, 165793, Control_c, 0, 64, 74
2, 165817, Control_c, 0, 64, 78
2, 165832, Control_c, 0, 64, 79
2, 165841, Note_on_c, 0, 77, 75
2, 165847, Note_on_c, 0, 75, 0
2, 165862, Control_c, 0, 64, 79
2, 165869, Note_on_c, 0, 61, 0
2, 165935, Note_on_c, 0, 49, 0
2, 165938, Control_c, 0, 64, 75
2, 165953, Control_c, 0, 64, 66
2, 165969, Control_c, 0, 64, 0
2, 165975, Note_on_c, 0, 51, 62
2, 165976, Note_on_c, 0, 60, 63
2, 165977, Note_on_c, 0, 78, 81
2, 165980, Note_on_c, 0, 77, 0
2, 166082, Note_on_c, 0, 51, 0
2, 166108, Note_on_c, 0, 48, 67
2, 166111, Note_on_c, 0, 75, 72
2, 166146, Note_on_c, 0, 78, 0
2, 166229, Note_on_c, 0, 48, 0
2, 166236, Note_on_c, 0, 77, 74
2, 166237, Note_on_c, 0, 49, 67
2, 166259, Control_c, 0, 64, 56
2, 166267, Note_on_c, 0, 68, 0
2, 166270, Note_on_c, 0, 60, 0
2, 166272, Note_on_c, 0, 75, 0
2, 166273, Control_c, 0, 64, 71
2, 166289, Control_c, 0, 64, 75
2, 166304, Control_c, 0, 64, 77
2, 166347, Note_on_c, 0, 51, 71
2, 166352, Note_on_c, 0, 49, 0
2, 166358, Note_on_c, 0, 78, 79
2, 166361, Note_on_c, 0, 77, 0
2, 166429, Note_on_c, 0, 51, 0
2, 166441, Control_c, 0, 64, 74
2, 166457, Control_c, 0, 64, 66
2, 166471, Control_c, 0, 64, 0
2, 166480, Note_on_c, 0, 56, 67
2, 166483, Note_on_c, 0, 80, 85
2, 166486, Note_on_c, 0, 78, 0
2, 166492, Note_on_c, 0, 53, 62
2, 166502, Note_on_c, 0, 73, 65
2, 166609, Note_on_c, 0, 53, 0
2, 166621, Note_on_c, 0, 49, 71
2, 166625, Note_on_c, 0, 77, 74
2, 166654, Note_on_c, 0, 80, 0
2, 166758, Note_on_c, 0, 51, 68
2, 166759, Note_on_c, 0, 78, 83
2, 166784, Note_on_c, 0, 77, 0
2, 166814, Control_c, 0, 64, 65
2, 166823, Note_on_c, 0, 56, 0
2, 166829, Control_c, 0, 64, 70
2, 166843, Control_c, 0, 64, 73
2, 166865, Note_on_c, 0, 49, 0
2, 166883, Note_on_c, 0, 53, 74
2, 166890, Note_on_c, 0, 80, 86
2, 166900, Note_on_c, 0, 78, 0
2, 166906, Note_on_c, 0, 51, 0
2, 166919, Control_c, 0, 64, 72
2, 166935, Control_c, 0, 64, 69
2, 166950, Control_c, 0, 64, 64
2, 166965, Control_c, 0, 64, 57
2, 166981, Control_c, 0, 64, 42
2, 166995, Control_c, 0, 64, 31
2, 167001, Note_on_c, 0, 53, 0
2, 167011, Control_c, 0, 64, 19
2, 167016, Note_on_c, 0, 63, 79
2, 167016, Note_on_c, 0, 82, 87
2, 167017, Note_on_c, 0, 54, 69
2, 167026, Control_c, 0, 64, 0
2, 167027, Note_on_c, 0, 80, 0
2, 167131, Note_on_c, 0, 54, 0
2, 167141, Note_on_c, 0, 51, 73
2, 167145, Note_on_c, 0, 78, 80
2, 167147, Control_c, 0, 64, 37
2, 167153, Note_on_c, 0, 82, 0
2, 167162, Control_c, 0, 64, 48
2, 167193, Control_c, 0, 64, 43
2, 167209, Control_c, 0, 64, 25
2, 167224, Control_c, 0, 64, 0
2, 167274, Note_on_c, 0, 80, 84
2, 167275, Note_on_c, 0, 51, 0
2, 167276, Note_on_c, 0, 53, 72
2, 167278, Note_on_c, 0, 78, 0
2, 167352, Control_c, 0, 64, 21
2, 167358, Note_on_c, 0, 63, 0
2, 167367, Control_c, 0, 64, 64
2, 167383, Control_c, 0, 64, 67
2, 167395, Note_on_c, 0, 53, 0
2, 167398, Control_c, 0, 64, 70
2, 167405, Note_on_c, 0, 54, 76
2, 167414, Control_c, 0, 64, 71
2, 167429, Control_c, 0, 64, 73
2, 167443, Control_c, 0, 64, 74
2, 167474, Control_c, 0, 64, 73
2, 167481, Note_on_c, 0, 54, 0
2, 167490, Control_c, 0, 64, 70
2, 167498, Note_on_c, 0, 80, 0
2, 167505, Control_c, 0, 64, 63
2, 167520, Control_c, 0, 64, 29
2, 167535, Control_c, 0, 64, 0
2, 167537, Note_on_c, 0, 65, 78
2, 167539, Note_on_c, 0, 56, 72
2, 167630, Note_on_c, 0, 65, 0
2, 167643, Note_on_c, 0, 53, 72
2, 167644, Note_on_c, 0, 56, 0
2, 167787, Note_on_c, 0, 53, 0
2, 167795, Note_on_c, 0, 63, 68
2, 167795, Note_on_c, 0, 82, 82
2, 167802, Note_on_c, 0, 54, 64
2, 167865, Note_on_c, 0, 63, 0
2, 167870, Control_c, 0, 64, 68
2, 167884, Control_c, 0, 64, 74
2, 167900, Control_c, 0, 64, 78
2, 167915, Control_c, 0, 64, 79
2, 167926, Note_on_c, 0, 61, 70
2, 167931, Control_c, 0, 64, 79
2, 167939, Note_on_c, 0, 82, 0
2, 167942, Note_on_c, 0, 73, 0
2, 168022, Control_c, 0, 64, 78
2, 168023, Note_on_c, 0, 54, 0
2, 168025, Note_on_c, 0, 61, 0
2, 168037, Control_c, 0, 64, 72
2, 168053, Control_c, 0, 64, 59
2, 168068, Control_c, 0, 64, 0
2, 168071, Note_on_c, 0, 75, 74
2, 168076, Note_on_c, 0, 68, 61
2, 168079, Note_on_c, 0, 72, 60
2, 168234, Note_on_c, 0, 72, 0
2, 168351, Note_on_c, 0, 77, 69
2, 168366, Note_on_c, 0, 56, 64
2, 168367, Note_on_c, 0, 75, 0
2, 168477, Note_on_c, 0, 78, 72
2, 168479, Note_on_c, 0, 77, 0
2, 168565, Note_on_c, 0, 56, 0
2, 168587, Note_on_c, 0, 78, 0
2, 168625, Note_on_c, 0, 49, 57
2, 168633, Note_on_c, 0, 77, 72
2, 168714, Control_c, 0, 64, 57
2, 168729, Control_c, 0, 64, 68
2, 168744, Control_c, 0, 64, 72
2, 168759, Control_c, 0, 64, 74
2, 168775, Control_c, 0, 64, 75
2, 168790, Control_c, 0, 64, 75
2, 168851, Control_c, 0, 64, 74
2, 168866, Control_c, 0, 64, 69
2, 168889, Control_c, 0, 64, 56
2, 168896, Note_on_c, 0, 49, 0
2, 168904, Control_c, 0, 64, 0
2, 168914, Note_on_c, 0, 73, 69
2, 168918, Note_on_c, 0, 68, 0
2, 168920, Note_on_c, 0, 51, 54
2, 168942, Note_on_c, 0, 77, 0
2, 169010, Control_c, 0, 64, 40
2, 169024, Note_on_c, 0, 51, 0
2, 169025, Control_c, 0, 64, 58
2, 169040, Control_c, 0, 64, 61
2, 169042, Note_on_c, 0, 53, 55
2, 169071, Control_c, 0, 64, 60
2, 169085, Control_c, 0, 64, 59
2, 169101, Control_c, 0, 64, 57
2, 169116, Control_c, 0, 64, 51
2, 169132, Control_c, 0, 64, 10
2, 169147, Control_c, 0, 64, 0
2, 169154, Note_on_c, 0, 53, 0
2, 169165, Note_on_c, 0, 78, 72
2, 169176, Note_on_c, 0, 72, 65
2, 169179, Note_on_c, 0, 51, 51
2, 169211, Note_on_c, 0, 73, 0
2, 169300, Control_c, 0, 64, 62
2, 169315, Control_c, 0, 64, 66
2, 169331, Control_c, 0, 64, 68
2, 169376, Control_c, 0, 64, 66
2, 169391, Control_c, 0, 64, 56
2, 169406, Control_c, 0, 64, 0
2, 169409, Note_on_c, 0, 51, 0
2, 169431, Note_on_c, 0, 53, 55
2, 169439, Note_on_c, 0, 71, 64
2, 169463, Note_on_c, 0, 78, 0
2, 169469, Note_on_c, 0, 72, 0
2, 169514, Control_c, 0, 64, 53
2, 169529, Control_c, 0, 64, 65
2, 169536, Note_on_c, 0, 53, 0
2, 169544, Control_c, 0, 64, 68
2, 169559, Control_c, 0, 64, 70
2, 169565, Note_on_c, 0, 54, 53
2, 169574, Control_c, 0, 64, 71
2, 169589, Control_c, 0, 64, 72
2, 169620, Control_c, 0, 64, 71
2, 169635, Control_c, 0, 64, 69
2, 169658, Control_c, 0, 64, 64
2, 169673, Control_c, 0, 64, 37
2, 169686, Note_on_c, 0, 54, 0
2, 169687, Control_c, 0, 64, 0
2, 169709, Note_on_c, 0, 80, 70
2, 169721, Note_on_c, 0, 53, 52
2, 169810, Control_c, 0, 64, 60
2, 169825, Control_c, 0, 64, 66
2, 169840, Control_c, 0, 64, 68
2, 169855, Control_c, 0, 64, 70
2, 169870, Control_c, 0, 64, 71
2, 169885, Control_c, 0, 64, 72
2, 169901, Control_c, 0, 64, 72
2, 169903, Note_on_c, 0, 71, 0
2, 169931, Control_c, 0, 64, 71
2, 169942, Note_on_c, 0, 53, 0
2, 169946, Control_c, 0, 64, 66
2, 169961, Control_c, 0, 64, 42
2, 169977, Control_c, 0, 64, 0
2, 169977, Note_on_c, 0, 49, 50
2, 169988, Note_on_c, 0, 70, 50
2, 170067, Control_c, 0, 64, 57
2, 170082, Control_c, 0, 64, 67
2, 170087, Note_on_c, 0, 70, 0
2, 170098, Control_c, 0, 64, 69
2, 170102, Note_on_c, 0, 68, 62
2, 170113, Control_c, 0, 64, 71
2, 170129, Control_c, 0, 64, 71
2, 170190, Control_c, 0, 64, 69
2, 170205, Control_c, 0, 64, 62
2, 170215, Note_on_c, 0, 80, 0
2, 170220, Control_c, 0, 64, 0
2, 170235, Note_on_c, 0, 68, 0
2, 170247, Note_on_c, 0, 70, 57
2, 170255, Note_on_c, 0, 54, 53
2, 170262, Note_on_c, 0, 49, 0
2, 170342, Control_c, 0, 64, 62
2, 170357, Control_c, 0, 64, 66
2, 170373, Control_c, 0, 64, 69
2, 170388, Control_c, 0, 64, 70
2, 170403, Control_c, 0, 64, 72
2, 170456, Control_c, 0, 64, 69
2, 170471, Control_c, 0, 64, 61
2, 170486, Control_c, 0, 64, 0
2, 170511, Note_on_c, 0, 78, 76
2, 170514, Note_on_c, 0, 56, 61
2, 170541, Note_on_c, 0, 54, 0
2, 170575, Note_on_c, 0, 70, 0
2, 170578, Control_c, 0, 64, 64
2, 170593, Control_c, 0, 64, 69
2, 170609, Control_c, 0, 64, 73
2, 170618, Note_on_c, 0, 56, 0
2, 170623, Control_c, 0, 64, 76
2, 170636, Note_on_c, 0, 58, 57
2, 170638, Control_c, 0, 64, 78
2, 170654, Control_c, 0, 64, 80
2, 170669, Control_c, 0, 64, 80
2, 170730, Control_c, 0, 64, 77
2, 170745, Control_c, 0, 64, 69
2, 170759, Control_c, 0, 64, 41
2, 170766, Note_on_c, 0, 58, 0
2, 170772, Note_on_c, 0, 56, 58
2, 170774, Note_on_c, 0, 77, 77
2, 170775, Control_c, 0, 64, 0
2, 170780, Note_on_c, 0, 71, 63
2, 170827, Note_on_c, 0, 78, 0
2, 170866, Control_c, 0, 64, 64
2, 170881, Control_c, 0, 64, 68
2, 170897, Control_c, 0, 64, 72
2, 170911, Control_c, 0, 64, 76
2, 170926, Control_c, 0, 64, 78
2, 170942, Control_c, 0, 64, 79
2, 170958, Control_c, 0, 64, 79
2, 170974, Control_c, 0, 64, 79
2, 170988, Control_c, 0, 64, 77
2, 171003, Control_c, 0, 64, 70
2, 171019, Control_c, 0, 64, 49
2, 171034, Control_c, 0, 64, 0
2, 171034, Note_on_c, 0, 58, 63
2, 171036, Note_on_c, 0, 76, 81
2, 171062, Note_on_c, 0, 71, 0
2, 171068, Note_on_c, 0, 77, 0
2, 171092, Note_on_c, 0, 56, 0
2, 171110, Control_c, 0, 64, 33
2, 171125, Control_c, 0, 64, 65
2, 171140, Control_c, 0, 64, 69
2, 171140, Note_on_c, 0, 58, 0
2, 171155, Control_c, 0, 64, 73
2, 171162, Note_on_c, 0, 59, 55
2, 171171, Control_c, 0, 64, 76
2, 171193, Control_c, 0, 64, 77
2, 171209, Control_c, 0, 64, 78
2, 171269, Control_c, 0, 64, 72
2, 171284, Control_c, 0, 64, 60
2, 171286, Note_on_c, 0, 59, 0
2, 171300, Control_c, 0, 64, 0
2, 171311, Note_on_c, 0, 58, 68
2, 171311, Note_on_c, 0, 73, 67
2, 171406, Control_c, 0, 64, 62
2, 171422, Control_c, 0, 64, 70
2, 171437, Control_c, 0, 64, 76
2, 171452, Control_c, 0, 64, 81
2, 171467, Control_c, 0, 64, 82
2, 171500, Note_on_c, 0, 76, 0
2, 171513, Control_c, 0, 64, 80
2, 171526, Control_c, 0, 64, 74
2, 171541, Control_c, 0, 64, 60
2, 171553, Note_on_c, 0, 58, 0
2, 171556, Control_c, 0, 64, 0
2, 171574, Note_on_c, 0, 54, 62
2, 171578, Note_on_c, 0, 75, 66
2, 171581, Note_on_c, 0, 70, 64
2, 171581, Note_on_c, 0, 73, 0
2, 171647, Control_c, 0, 64, 58
2, 171663, Control_c, 0, 64, 67
2, 171678, Control_c, 0, 64, 73
2, 171694, Control_c, 0, 64, 77
2, 171696, Note_on_c, 0, 70, 0
2, 171699, Note_on_c, 0, 73, 72
2, 171709, Control_c, 0, 64, 80
2, 171717, Note_on_c, 0, 75, 0
2, 171723, Control_c, 0, 64, 81
2, 171785, Control_c, 0, 64, 79
2, 171800, Control_c, 0, 64, 70
2, 171816, Control_c, 0, 64, 0
2, 171834, Note_on_c, 0, 54, 0
2, 171844, Note_on_c, 0, 75, 71
2, 171849, Note_on_c, 0, 59, 70
2, 171852, Note_on_c, 0, 66, 65
2, 171859, Note_on_c, 0, 73, 0
2, 171960, Control_c, 0, 64, 33
2, 171976, Control_c, 0, 64, 65
2, 171990, Control_c, 0, 64, 70
2, 172005, Control_c, 0, 64, 75
2, 172021, Control_c, 0, 64, 79
2, 172036, Control_c, 0, 64, 80
2, 172067, Control_c, 0, 64, 79
2, 172082, Control_c, 0, 64, 72
2, 172097, Control_c, 0, 64, 55
2, 172103, Note_on_c, 0, 59, 0
2, 172103, Note_on_c, 0, 63, 83
2, 172103, Note_on_c, 0, 77, 68
2, 172106, Note_on_c, 0, 66, 0
2, 172112, Control_c, 0, 64, 0
2, 172133, Note_on_c, 0, 75, 0
2, 172203, Control_c, 0, 64, 52
2, 172219, Control_c, 0, 64, 68
2, 172226, Note_on_c, 0, 78, 78
2, 172229, Note_on_c, 0, 77, 0
2, 172233, Control_c, 0, 64, 75
2, 172249, Control_c, 0, 64, 82
2, 172264, Control_c, 0, 64, 85
2, 172279, Control_c, 0, 64, 87
2, 172295, Control_c, 0, 64, 87
2, 172351, Note_on_c, 0, 63, 0
2, 172355, Control_c, 0, 64, 84
2, 172369, Note_on_c, 0, 62, 77
2, 172370, Control_c, 0, 64, 76
2, 172373, Note_on_c, 0, 59, 70
2, 172374, Note_on_c, 0, 77, 77
2, 172385, Control_c, 0, 64, 63
2, 172385, Note_on_c, 0, 68, 66
2, 172400, Control_c, 0, 64, 0
2, 172458, Note_on_c, 0, 78, 0
2, 172492, Control_c, 0, 64, 52
2, 172507, Control_c, 0, 64, 65
2, 172522, Control_c, 0, 64, 69
2, 172538, Control_c, 0, 64, 71
2, 172553, Control_c, 0, 64, 72
2, 172567, Control_c, 0, 64, 73
2, 172599, Control_c, 0, 64, 72
2, 172614, Control_c, 0, 64, 69
2, 172629, Control_c, 0, 64, 53
2, 172644, Control_c, 0, 64, 0
2, 172646, Note_on_c, 0, 61, 78
2, 172647, Note_on_c, 0, 79, 70
2, 172649, Note_on_c, 0, 59, 0
2, 172675, Note_on_c, 0, 77, 0
2, 172726, Note_on_c, 0, 68, 0
2, 172750, Note_on_c, 0, 62, 0
2, 172774, Control_c, 0, 64, 63
2, 172782, Note_on_c, 0, 80, 79
2, 172789, Control_c, 0, 64, 67
2, 172798, Note_on_c, 0, 79, 0
2, 172803, Control_c, 0, 64, 70
2, 172819, Control_c, 0, 64, 72
2, 172834, Control_c, 0, 64, 73
2, 172865, Control_c, 0, 64, 71
2, 172880, Control_c, 0, 64, 64
2, 172895, Control_c, 0, 64, 0
2, 172904, Note_on_c, 0, 80, 0
2, 172919, Note_on_c, 0, 79, 80
2, 172922, Note_on_c, 0, 58, 68
2, 172922, Note_on_c, 0, 70, 73
2, 173017, Control_c, 0, 64, 68
2, 173027, Note_on_c, 0, 61, 0
2, 173032, Control_c, 0, 64, 78
2, 173043, Note_on_c, 0, 58, 0
2, 173047, Control_c, 0, 64, 84
2, 173063, Control_c, 0, 64, 85
2, 173078, Control_c, 0, 64, 86
2, 173094, Control_c, 0, 64, 87
2, 173109, Control_c, 0, 64, 87
2, 173124, Control_c, 0, 64, 87
2, 173140, Control_c, 0, 64, 84
2, 173154, Control_c, 0, 64, 75
2, 173170, Control_c, 0, 64, 61
2, 173184, Note_on_c, 0, 60, 74
2, 173185, Control_c, 0, 64, 0
2, 173193, Note_on_c, 0, 51, 64
2, 173261, Control_c, 0, 64, 61
2, 173276, Control_c, 0, 64, 68
2, 173286, Note_on_c, 0, 70, 0
2, 173291, Control_c, 0, 64, 72
2, 173301, Note_on_c, 0, 58, 71
2, 173306, Control_c, 0, 64, 75
2, 173320, Note_on_c, 0, 51, 0
2, 173321, Control_c, 0, 64, 78
2, 173325, Note_on_c, 0, 60, 0
2, 173337, Control_c, 0, 64, 79
2, 173366, Control_c, 0, 64, 78
2, 173382, Control_c, 0, 64, 72
2, 173397, Control_c, 0, 64, 57
2, 173414, Control_c, 0, 64, 0
2, 173433, Note_on_c, 0, 58, 0
2, 173444, Note_on_c, 0, 80, 82
2, 173451, Note_on_c, 0, 60, 70
2, 173455, Note_on_c, 0, 79, 0
2, 173458, Note_on_c, 0, 56, 73
2, 173513, Control_c, 0, 64, 18
2, 173518, Note_on_c, 0, 80, 0
2, 173527, Control_c, 0, 64, 68
2, 173543, Control_c, 0, 64, 76
2, 173558, Control_c, 0, 64, 83
2, 173574, Control_c, 0, 64, 85
2, 173589, Control_c, 0, 64, 86
2, 173603, Control_c, 0, 64, 87
2, 173619, Control_c, 0, 64, 88
2, 173664, Control_c, 0, 64, 88
2, 173667, Note_on_c, 0, 56, 0
2, 173679, Control_c, 0, 64, 83
2, 173695, Control_c, 0, 64, 73
2, 173705, Note_on_c, 0, 68, 81
2, 173710, Control_c, 0, 64, 44
2, 173712, Note_on_c, 0, 58, 64
2, 173720, Note_on_c, 0, 53, 50
2, 173724, Control_c, 0, 64, 0
2, 173733, Note_on_c, 0, 60, 0
2, 173800, Control_c, 0, 64, 63
2, 173816, Control_c, 0, 64, 69
2, 173831, Control_c, 0, 64, 73
2, 173837, Note_on_c, 0, 56, 67
2, 173840, Note_on_c, 0, 58, 0
2, 173845, Control_c, 0, 64, 76
2, 173861, Control_c, 0, 64, 78
2, 173862, Note_on_c, 0, 53, 0
2, 173873, Note_on_c, 0, 56, 0
2, 173876, Control_c, 0, 64, 78
2, 173921, Control_c, 0, 64, 77
2, 173937, Control_c, 0, 64, 74
2, 173952, Control_c, 0, 64, 66
2, 173962, Note_on_c, 0, 68, 0
2, 173967, Control_c, 0, 64, 0
2, 173975, Note_on_c, 0, 67, 76
2, 173981, Note_on_c, 0, 46, 72
2, 173984, Note_on_c, 0, 61, 69
2, 174089, Control_c, 0, 64, 57
2, 174104, Control_c, 0, 64, 63
2, 174119, Control_c, 0, 64, 64
2, 174194, Control_c, 0, 64, 62
2, 174210, Control_c, 0, 64, 42
2, 174226, Control_c, 0, 64, 0
2, 174243, Note_on_c, 0, 46, 0
2, 174244, Note_on_c, 0, 61, 0
2, 174249, Note_on_c, 0, 66, 74
2, 174264, Note_on_c, 0, 51, 68
2, 174265, Note_on_c, 0, 60, 51
2, 174289, Note_on_c, 0, 67, 0
2, 174355, Control_c, 0, 64, 48
2, 174371, Control_c, 0, 64, 63
2, 174381, Note_on_c, 0, 60, 0
2, 174386, Control_c, 0, 64, 64
2, 174387, Note_on_c, 0, 58, 63
2, 174401, Control_c, 0, 64, 64
2, 174446, Control_c, 0, 64, 62
2, 174462, Control_c, 0, 64, 51
2, 174477, Control_c, 0, 64, 0
2, 174497, Note_on_c, 0, 51, 0
2, 174513, Note_on_c, 0, 58, 0
2, 174520, Note_on_c, 0, 63, 67
2, 174524, Note_on_c, 0, 48, 71
2, 174607, Note_on_c, 0, 66, 0
2, 174614, Control_c, 0, 64, 65
2, 174629, Control_c, 0, 64, 71
2, 174644, Control_c, 0, 64, 74
2, 174659, Control_c, 0, 64, 76
2, 174674, Control_c, 0, 64, 77
2, 174720, Control_c, 0, 64, 74
2, 174726, Note_on_c, 0, 63, 0
2, 174736, Control_c, 0, 64, 66
2, 174736, Note_on_c, 0, 48, 0
2, 174751, Control_c, 0, 64, 0
2, 174779, Note_on_c, 0, 44, 65
2, 174788, Note_on_c, 0, 65, 71
2, 174791, Note_on_c, 0, 61, 70
2, 174872, Control_c, 0, 64, 62
2, 174887, Control_c, 0, 64, 70
2, 174902, Control_c, 0, 64, 75
2, 174910, Note_on_c, 0, 63, 78
2, 174914, Note_on_c, 0, 60, 66
2, 174916, Note_on_c, 0, 61, 0
2, 174917, Control_c, 0, 64, 79
2, 174933, Control_c, 0, 64, 81
2, 174941, Note_on_c, 0, 65, 0
2, 174948, Control_c, 0, 64, 82
2, 174978, Control_c, 0, 64, 81
2, 174993, Control_c, 0, 64, 76
2, 175006, Note_on_c, 0, 44, 0
2, 175009, Control_c, 0, 64, 65
2, 175031, Control_c, 0, 64, 0
2, 175033, Note_on_c, 0, 60, 0
2, 175038, Note_on_c, 0, 49, 76
2, 175044, Note_on_c, 0, 63, 0
2, 175047, Note_on_c, 0, 61, 77
2, 175047, Note_on_c, 0, 65, 77
2, 175112, Note_on_c, 0, 65, 0
2, 175118, Note_on_c, 0, 61, 0
2, 175124, Control_c, 0, 64, 64
2, 175139, Control_c, 0, 64, 72
2, 175154, Control_c, 0, 64, 78
2, 175170, Control_c, 0, 64, 81
2, 175181, Note_on_c, 0, 66, 81
2, 175185, Control_c, 0, 64, 82
2, 175200, Control_c, 0, 64, 82
2, 175261, Control_c, 0, 64, 80
2, 175263, Note_on_c, 0, 66, 0
2, 175276, Control_c, 0, 64, 75
2, 175292, Control_c, 0, 64, 60
2, 175307, Control_c, 0, 64, 0
2, 175322, Note_on_c, 0, 77, 83
2, 175324, Note_on_c, 0, 61, 85
2, 175330, Note_on_c, 0, 49, 0
2, 175333, Note_on_c, 0, 68, 74
2, 175443, Control_c, 0, 64, 40
2, 175458, Control_c, 0, 64, 63
2, 175473, Control_c, 0, 64, 66
2, 175489, Control_c, 0, 64, 70
2, 175504, Control_c, 0, 64, 73
2, 175509, Note_on_c, 0, 77, 0
2, 175519, Control_c, 0, 64, 77
2, 175535, Control_c, 0, 64, 79
2, 175580, Control_c, 0, 64, 76
2, 175595, Control_c, 0, 64, 69
2, 175610, Control_c, 0, 64, 38
2, 175610, Note_on_c, 0, 76, 82
2, 175617, Note_on_c, 0, 67, 69
2, 175622, Note_on_c, 0, 68, 0
2, 175625, Control_c, 0, 64, 0
2, 175717, Control_c, 0, 64, 58
2, 175733, Control_c, 0, 64, 68
2, 175742, Note_on_c, 0, 61, 0
2, 175747, Control_c, 0, 64, 71
2, 175762, Control_c, 0, 64, 74
2, 175778, Control_c, 0, 64, 76
2, 175781, Note_on_c, 0, 67, 0
2, 175800, Control_c, 0, 64, 77
2, 175816, Control_c, 0, 64, 77
2, 175861, Control_c, 0, 64, 73
2, 175870, Note_on_c, 0, 75, 78
2, 175873, Note_on_c, 0, 60, 71
2, 175877, Control_c, 0, 64, 55
2, 175878, Note_on_c, 0, 69, 72
2, 175893, Control_c, 0, 64, 0
2, 175975, Note_on_c, 0, 76, 0
2, 175997, Note_on_c, 0, 60, 0
2, 176006, Note_on_c, 0, 70, 69
2, 176007, Note_on_c, 0, 58, 63
2, 176014, Note_on_c, 0, 69, 0
2, 176029, Control_c, 0, 64, 39
2, 176044, Control_c, 0, 64, 51
2, 176060, Control_c, 0, 64, 50
2, 176075, Control_c, 0, 64, 30
2, 176090, Control_c, 0, 64, 0
2, 176115, Note_on_c, 0, 58, 0
2, 176139, Note_on_c, 0, 72, 79
2, 176142, Note_on_c, 0, 57, 74
2, 176154, Note_on_c, 0, 70, 0
2, 176176, Note_on_c, 0, 75, 0
2, 176243, Control_c, 0, 64, 62
2, 176258, Control_c, 0, 64, 70
2, 176273, Control_c, 0, 64, 77
2, 176289, Control_c, 0, 64, 81
2, 176303, Control_c, 0, 64, 83
2, 176318, Control_c, 0, 64, 84
2, 176335, Note_on_c, 0, 57, 0
2, 176349, Control_c, 0, 64, 82
2, 176364, Control_c, 0, 64, 73
2, 176379, Control_c, 0, 64, 44
2, 176394, Control_c, 0, 64, 0
2, 176398, Note_on_c, 0, 53, 78
2, 176407, Note_on_c, 0, 73, 79
2, 176416, Note_on_c, 0, 69, 68
2, 176416, Note_on_c, 0, 72, 0
2, 176470, Control_c, 0, 64, 61
2, 176485, Control_c, 0, 64, 71
2, 176486, Note_on_c, 0, 53, 0
2, 176501, Control_c, 0, 64, 80
2, 176515, Control_c, 0, 64, 87
2, 176531, Control_c, 0, 64, 89
2, 176534, Note_on_c, 0, 72, 78
2, 176542, Note_on_c, 0, 73, 0
2, 176546, Control_c, 0, 64, 91
2, 176570, Control_c, 0, 64, 92
2, 176585, Control_c, 0, 64, 93
2, 176599, Control_c, 0, 64, 94
2, 176602, Note_on_c, 0, 69, 0
2, 176644, Control_c, 0, 64, 93
2, 176660, Control_c, 0, 64, 90
2, 176675, Control_c, 0, 64, 80
2, 176683, Note_on_c, 0, 72, 0
2, 176692, Control_c, 0, 64, 65
2, 176707, Control_c, 0, 64, 0
2, 176710, Note_on_c, 0, 65, 96
2, 176713, Note_on_c, 0, 58, 84
2, 176715, Note_on_c, 0, 73, 81
2, 176719, Note_on_c, 0, 70, 72
2, 176785, Note_on_c, 0, 70, 0
2, 176798, Control_c, 0, 64, 40
2, 176814, Control_c, 0, 64, 67
2, 176828, Control_c, 0, 64, 73
2, 176836, Note_on_c, 0, 73, 0
2, 176843, Control_c, 0, 64, 78
2, 176859, Control_c, 0, 64, 80
2, 176873, Control_c, 0, 64, 80
2, 176889, Control_c, 0, 64, 81
2, 176904, Control_c, 0, 64, 81
2, 176964, Control_c, 0, 64, 79
2, 176980, Control_c, 0, 64, 73
2, 176986, Note_on_c, 0, 82, 89
2, 176993, Note_on_c, 0, 73, 80
2, 176995, Control_c, 0, 64, 63
2, 177011, Control_c, 0, 64, 0
2, 177050, Note_on_c, 0, 65, 0
2, 177086, Control_c, 0, 64, 52
2, 177102, Control_c, 0, 64, 65
2, 177117, Control_c, 0, 64, 70
2, 177133, Control_c, 0, 64, 76
2, 177147, Control_c, 0, 64, 80
2, 177162, Control_c, 0, 64, 81
2, 177223, Control_c, 0, 64, 80
2, 177238, Control_c, 0, 64, 77
2, 177254, Control_c, 0, 64, 67
2, 177261, Note_on_c, 0, 81, 87
2, 177263, Note_on_c, 0, 63, 96
2, 177269, Control_c, 0, 64, 0
2, 177269, Note_on_c, 0, 73, 0
2, 177270, Note_on_c, 0, 72, 75
2, 177278, Note_on_c, 0, 82, 0
2, 177383, Control_c, 0, 64, 52
2, 177398, Control_c, 0, 64, 64
2, 177414, Control_c, 0, 64, 66
2, 177429, Control_c, 0, 64, 69
2, 177443, Control_c, 0, 64, 71
2, 177459, Control_c, 0, 64, 72
2, 177474, Control_c, 0, 64, 71
2, 177489, Control_c, 0, 64, 68
2, 177495, Note_on_c, 0, 81, 0
2, 177504, Control_c, 0, 64, 52
2, 177520, Control_c, 0, 64, 0
2, 177527, Note_on_c, 0, 80, 85
2, 177536, Note_on_c, 0, 71, 72
2, 177602, Note_on_c, 0, 72, 0
2, 177612, Control_c, 0, 64, 51
2, 177616, Note_on_c, 0, 63, 0
2, 177627, Control_c, 0, 64, 67
2, 177642, Control_c, 0, 64, 75
2, 177658, Control_c, 0, 64, 80
2, 177671, Control_c, 0, 64, 83
2, 177686, Control_c, 0, 64, 84
2, 177694, Note_on_c, 0, 71, 0
2, 177716, Control_c, 0, 64, 85
2, 177747, Control_c, 0, 64, 84
2, 177762, Control_c, 0, 64, 78
2, 177778, Control_c, 0, 64, 63
2, 177781, Note_on_c, 0, 78, 83
2, 177785, Note_on_c, 0, 70, 78
2, 177793, Control_c, 0, 64, 0
2, 177836, Note_on_c, 0, 80, 0
2, 177916, Note_on_c, 0, 75, 75
2, 177949, Note_on_c, 0, 78, 0
2, 177988, Note_on_c, 0, 58, 0
2, 178030, Note_on_c, 0, 75, 0
2, 178040, Note_on_c, 0, 77, 81
2, 178042, Note_on_c, 0, 61, 88
2, 178053, Note_on_c, 0, 58, 71
2, 178105, Control_c, 0, 64, 65
2, 178118, Note_on_c, 0, 70, 0
2, 178120, Control_c, 0, 64, 80
2, 178121, Note_on_c, 0, 58, 0
2, 178135, Control_c, 0, 64, 87
2, 178150, Control_c, 0, 64, 88
2, 178155, Note_on_c, 0, 61, 0
2, 178165, Control_c, 0, 64, 89
2, 178181, Control_c, 0, 64, 90
2, 178196, Control_c, 0, 64, 91
2, 178211, Control_c, 0, 64, 91
2, 178256, Control_c, 0, 64, 90
2, 178271, Control_c, 0, 64, 85
2, 178274, Note_on_c, 0, 77, 0
2, 178286, Control_c, 0, 64, 75
2, 178302, Control_c, 0, 64, 52
2, 178308, Note_on_c, 0, 78, 91
2, 178309, Note_on_c, 0, 60, 83
2, 178317, Control_c, 0, 64, 0
2, 178321, Note_on_c, 0, 51, 75
2, 178374, Note_on_c, 0, 51, 0
2, 178410, Control_c, 0, 64, 46
2, 178425, Control_c, 0, 64, 63
2, 178429, Note_on_c, 0, 49, 76
2, 178439, Control_c, 0, 64, 64
2, 178501, Control_c, 0, 64, 62
2, 178504, Note_on_c, 0, 78, 0
2, 178515, Control_c, 0, 64, 52
2, 178531, Control_c, 0, 64, 0
2, 178531, Note_on_c, 0, 49, 0
2, 178569, Note_on_c, 0, 51, 73
2, 178570, Note_on_c, 0, 66, 79
2, 178572, Note_on_c, 0, 72, 83
2, 178576, Note_on_c, 0, 70, 72
2, 178582, Note_on_c, 0, 60, 0
2, 178680, Control_c, 0, 64, 65
2, 178680, Note_on_c, 0, 70, 0
2, 178696, Control_c, 0, 64, 72
2, 178711, Control_c, 0, 64, 78
2, 178726, Control_c, 0, 64, 80
2, 178742, Control_c, 0, 64, 81
2, 178771, Note_on_c, 0, 66, 0
2, 178796, Note_on_c, 0, 72, 0
2, 178802, Control_c, 0, 64, 80
2, 178816, Note_on_c, 0, 51, 0
2, 178818, Control_c, 0, 64, 73
2, 178832, Control_c, 0, 64, 57
2, 178835, Note_on_c, 0, 65, 80
2, 178835, Note_on_c, 0, 73, 84
2, 178838, Note_on_c, 0, 53, 70
2, 178840, Note_on_c, 0, 69, 81
2, 178847, Control_c, 0, 64, 0
2, 178947, Control_c, 0, 64, 48
2, 178962, Control_c, 0, 64, 67
2, 178977, Control_c, 0, 64, 74
2, 178989, Note_on_c, 0, 69, 0
2, 178992, Control_c, 0, 64, 78
2, 179007, Control_c, 0, 64, 79
2, 179052, Control_c, 0, 64, 78
2, 179068, Control_c, 0, 64, 71
2, 179081, Note_on_c, 0, 53, 0
2, 179083, Control_c, 0, 64, 40
2, 179098, Control_c, 0, 64, 0
2, 179105, Note_on_c, 0, 74, 83
2, 179106, Note_on_c, 0, 41, 69
2, 179113, Note_on_c, 0, 68, 76
2, 179116, Note_on_c, 0, 73, 0
2, 179206, Control_c, 0, 64, 65
2, 179222, Control_c, 0, 64, 70
2, 179237, Control_c, 0, 64, 76
2, 179238, Note_on_c, 0, 74, 0
2, 179252, Control_c, 0, 64, 80
2, 179253, Note_on_c, 0, 65, 0
2, 179268, Control_c, 0, 64, 83
2, 179282, Control_c, 0, 64, 83
2, 179327, Control_c, 0, 64, 79
2, 179343, Control_c, 0, 64, 67
2, 179358, Control_c, 0, 64, 0
2, 179359, Note_on_c, 0, 41, 0
2, 179367, Note_on_c, 0, 43, 75
2, 179368, Note_on_c, 0, 75, 86
2, 179372, Note_on_c, 0, 67, 72
2, 179372, Note_on_c, 0, 68, 0
2, 179449, Control_c, 0, 64, 54
2, 179465, Control_c, 0, 64, 68
2, 179478, Note_on_c, 0, 67, 0
2, 179479, Control_c, 0, 64, 72
2, 179494, Control_c, 0, 64, 74
2, 179510, Control_c, 0, 64, 76
2, 179524, Control_c, 0, 64, 77
2, 179540, Control_c, 0, 64, 77
2, 179555, Control_c, 0, 64, 76
2, 179562, Note_on_c, 0, 75, 0
2, 179570, Control_c, 0, 64, 68
2, 179586, Control_c, 0, 64, 0
2, 179626, Note_on_c, 0, 72, 84
2, 179628, Note_on_c, 0, 66, 72
2, 179638, Note_on_c, 0, 63, 76
2, 179639, Note_on_c, 0, 43, 0
2, 179640, Note_on_c, 0, 45, 77
2, 179745, Control_c, 0, 64, 59
2, 179760, Control_c, 0, 64, 69
2, 179771, Note_on_c, 0, 66, 0
2, 179776, Control_c, 0, 64, 75
2, 179791, Control_c, 0, 64, 79
2, 179799, Note_on_c, 0, 63, 0
2, 179821, Control_c, 0, 64, 74
2, 179836, Control_c, 0, 64, 60
2, 179849, Note_on_c, 0, 72, 0
2, 179851, Control_c, 0, 64, 0
2, 179860, Note_on_c, 0, 45, 0
2, 179901, Note_on_c, 0, 73, 78
2, 179906, Note_on_c, 0, 65, 73
2, 179908, Note_on_c, 0, 61, 68
2, 179912, Note_on_c, 0, 46, 85
2, 179937, Note_on_c, 0, 61, 0
2, 179943, Control_c, 0, 64, 41
2, 179958, Control_c, 0, 64, 79
2, 179967, Note_on_c, 0, 46, 0
2, 179973, Control_c, 0, 64, 93
2, 179989, Control_c, 0, 64, 100
2, 179989, Note_on_c, 0, 65, 0
2, 180026, Note_on_c, 0, 73, 0
2, 180041, Note_on_c, 0, 65, 78
2, 180096, Control_c, 0, 64, 97
2, 180111, Control_c, 0, 64, 87
2, 180126, Control_c, 0, 64, 69
2, 180142, Control_c, 0, 64, 0
2, 180165, Note_on_c, 0, 63, 80
2, 180272, Note_on_c, 0, 65, 0
2, 180272, Note_on_c, 0, 65, 7
2, 180282, Note_on_c, 0, 61, 73
2, 180303, Note_on_c, 0, 63, 0
2, 180376, Note_on_c, 0, 61, 0
2, 180417, Note_on_c, 0, 60, 74
2, 180421, Note_on_c, 0, 69, 83
2, 180424, Note_on_c, 0, 51, 61
2, 180453, Control_c, 0, 64, 49
2, 180468, Control_c, 0, 64, 76
2, 180483, Control_c, 0, 64, 82
2, 180497, Note_on_c, 0, 51, 0
2, 180499, Control_c, 0, 64, 82
2, 180541, Note_on_c, 0, 60, 0
2, 180547, Note_on_c, 0, 63, 77
2, 180559, Control_c, 0, 64, 83
2, 180621, Note_on_c, 0, 69, 0
2, 180635, Control_c, 0, 64, 80
2, 180650, Control_c, 0, 64, 69
2, 180665, Control_c, 0, 64, 0
2, 180671, Note_on_c, 0, 61, 74
2, 180676, Note_on_c, 0, 63, 0
2, 180793, Note_on_c, 0, 61, 0
2, 180803, Note_on_c, 0, 60, 74
2, 180884, Note_on_c, 0, 60, 0
2, 180921, Note_on_c, 0, 70, 82
2, 180923, Note_on_c, 0, 58, 71
2, 180924, Note_on_c, 0, 49, 65
2, 180955, Control_c, 0, 64, 67
2, 180970, Control_c, 0, 64, 80
2, 180986, Control_c, 0, 64, 82
2, 181013, Note_on_c, 0, 49, 0
2, 181046, Control_c, 0, 64, 82
2, 181054, Note_on_c, 0, 61, 76
2, 181089, Note_on_c, 0, 58, 0
2, 181151, Note_on_c, 0, 61, 0
2, 181153, Control_c, 0, 64, 78
2, 181176, Control_c, 0, 64, 60
2, 181188, Note_on_c, 0, 60, 73
2, 181191, Control_c, 0, 64, 0
2, 181305, Note_on_c, 0, 58, 69
2, 181307, Note_on_c, 0, 60, 0
2, 181363, Note_on_c, 0, 58, 0
2, 181407, Note_on_c, 0, 70, 0
2, 181435, Note_on_c, 0, 57, 62
2, 181435, Note_on_c, 0, 75, 85
2, 181437, Note_on_c, 0, 48, 65
2, 181479, Control_c, 0, 64, 60
2, 181494, Control_c, 0, 64, 74
2, 181499, Note_on_c, 0, 48, 0
2, 181509, Control_c, 0, 64, 76
2, 181524, Control_c, 0, 64, 75
2, 181529, Note_on_c, 0, 57, 0
2, 181540, Control_c, 0, 64, 75
2, 181556, Note_on_c, 0, 60, 74
2, 181569, Control_c, 0, 64, 75
2, 181632, Control_c, 0, 64, 74
2, 181647, Control_c, 0, 64, 68
2, 181662, Control_c, 0, 64, 0
2, 181665, Note_on_c, 0, 60, 0
2, 181694, Note_on_c, 0, 49, 73
2, 181697, Note_on_c, 0, 58, 71
2, 181701, Note_on_c, 0, 73, 79
2, 181732, Note_on_c, 0, 75, 0
2, 181824, Note_on_c, 0, 51, 65
2, 181867, Note_on_c, 0, 49, 0
2, 181920, Note_on_c, 0, 51, 0
2, 181973, Note_on_c, 0, 53, 77
2, 182019, Control_c, 0, 64, 31
2, 182034, Control_c, 0, 64, 61
2, 182049, Control_c, 0, 64, 59
2, 182056, Note_on_c, 0, 73, 0
2, 182062, Note_on_c, 0, 58, 0
2, 182065, Control_c, 0, 64, 60
2, 182080, Control_c, 0, 64, 61
2, 182096, Control_c, 0, 64, 62
2, 182101, Note_on_c, 0, 72, 70
2, 182111, Control_c, 0, 64, 61
2, 182126, Control_c, 0, 64, 56
2, 182142, Control_c, 0, 64, 16
2, 182156, Control_c, 0, 64, 0
2, 182159, Note_on_c, 0, 65, 0
2, 182202, Note_on_c, 0, 53, 0
2, 182230, Note_on_c, 0, 57, 82
2, 182235, Note_on_c, 0, 73, 77
2, 182272, Note_on_c, 0, 72, 0
2, 182291, Control_c, 0, 64, 65
2, 182307, Control_c, 0, 64, 73
2, 182322, Control_c, 0, 64, 79
2, 182337, Control_c, 0, 64, 82
2, 182352, Control_c, 0, 64, 83
2, 182353, Note_on_c, 0, 75, 77
2, 182354, Note_on_c, 0, 73, 0
2, 182360, Note_on_c, 0, 57, 0
2, 182367, Control_c, 0, 64, 83
2, 182383, Control_c, 0, 64, 84
2, 182398, Control_c, 0, 64, 85
2, 182413, Control_c, 0, 64, 86
2, 182441, Note_on_c, 0, 75, 0
2, 182475, Control_c, 0, 64, 83
2, 182490, Control_c, 0, 64, 76
2, 182502, Note_on_c, 0, 41, 76
2, 182505, Control_c, 0, 64, 65
2, 182505, Note_on_c, 0, 63, 81
2, 182505, Note_on_c, 0, 69, 80
2, 182520, Control_c, 0, 64, 0
2, 182761, Note_on_c, 0, 63, 0
2, 182802, Control_c, 0, 64, 58
2, 182806, Note_on_c, 0, 61, 64
2, 182817, Control_c, 0, 64, 67
2, 182832, Control_c, 0, 64, 71
2, 182847, Control_c, 0, 64, 74
2, 182863, Control_c, 0, 64, 75
2, 182863, Note_on_c, 0, 69, 0
2, 182878, Control_c, 0, 64, 77
2, 182893, Control_c, 0, 64, 78
2, 182908, Control_c, 0, 64, 79
2, 182915, Note_on_c, 0, 61, 0
2, 182930, Note_on_c, 0, 60, 62
2, 182954, Control_c, 0, 64, 80
2, 183025, Note_on_c, 0, 41, 0
2, 183045, Control_c, 0, 64, 79
2, 183061, Control_c, 0, 64, 75
2, 183065, Note_on_c, 0, 60, 0
2, 183076, Control_c, 0, 64, 68
2, 183091, Control_c, 0, 64, 52
2, 183096, Note_on_c, 0, 70, 81
2, 183107, Control_c, 0, 64, 0
2, 183110, Note_on_c, 0, 46, 58
2, 183115, Note_on_c, 0, 61, 57
2, 183391, Note_on_c, 0, 61, 0
2, 183407, Note_on_c, 0, 46, 0
2, 183407, Note_on_c, 0, 66, 60
2, 183446, Note_on_c, 0, 70, 0
2, 183664, Note_on_c, 0, 68, 70
2, 183685, Note_on_c, 0, 65, 47
2, 183698, Note_on_c, 0, 66, 0
2, 183727, Note_on_c, 0, 65, 0
2, 183727, Note_on_c, 0, 65, 14
2, 183892, Note_on_c, 0, 65, 0
2, 183931, Note_on_c, 0, 46, 46
2, 183932, Note_on_c, 0, 64, 52
2, 184002, Note_on_c, 0, 68, 0
2, 184178, Note_on_c, 0, 63, 57
2, 184190, Note_on_c, 0, 47, 54
2, 184208, Note_on_c, 0, 64, 0
2, 184278, Note_on_c, 0, 46, 0
2, 184435, Note_on_c, 0, 47, 0
2, 184459, Note_on_c, 0, 66, 66
2, 184468, Note_on_c, 0, 48, 55
2, 184510, Note_on_c, 0, 63, 0
2, 184581, Control_c, 0, 64, 47
2, 184595, Control_c, 0, 64, 46
2, 184610, Control_c, 0, 64, 47
2, 184626, Control_c, 0, 64, 47
2, 184641, Control_c, 0, 64, 48
2, 184656, Control_c, 0, 64, 45
2, 184664, Note_on_c, 0, 48, 0
2, 184671, Control_c, 0, 64, 21
2, 184686, Control_c, 0, 64, 0
2, 184710, Note_on_c, 0, 66, 0
2, 184724, Note_on_c, 0, 65, 70
2, 184743, Note_on_c, 0, 50, 50
2, 184849, Note_on_c, 0, 50, 0
2, 184856, Note_on_c, 0, 53, 58
2, 184951, Note_on_c, 0, 65, 0
2, 184971, Note_on_c, 0, 53, 0
2, 184989, Note_on_c, 0, 71, 74
2, 184995, Note_on_c, 0, 56, 53
2, 184997, Note_on_c, 0, 63, 53
2, 185105, Control_c, 0, 64, 63
2, 185120, Control_c, 0, 64, 66
2, 185136, Control_c, 0, 64, 67
2, 185181, Control_c, 0, 64, 67
2, 185196, Control_c, 0, 64, 64
2, 185211, Control_c, 0, 64, 50
2, 185227, Control_c, 0, 64, 0
2, 185254, Note_on_c, 0, 63, 0
2, 185272, Note_on_c, 0, 71, 0
2, 185273, Note_on_c, 0, 70, 70
2, 185283, Note_on_c, 0, 62, 51
2, 185543, Note_on_c, 0, 62, 0
2, 185553, Note_on_c, 0, 55, 49
2, 185557, Note_on_c, 0, 61, 49
2, 185571, Note_on_c, 0, 56, 0
2, 185616, Note_on_c, 0, 70, 0
2, 185807, Note_on_c, 0, 55, 0
2, 185820, Note_on_c, 0, 61, 0
2, 185829, Note_on_c, 0, 56, 50
2, 185831, Note_on_c, 0, 60, 57
2, 186044, Note_on_c, 0, 56, 0
2, 186086, Note_on_c, 0, 59, 47
2, 186090, Note_on_c, 0, 68, 65
2, 186094, Note_on_c, 0, 50, 46
2, 186142, Note_on_c, 0, 60, 0
2, 186235, Note_on_c, 0, 68, 0
2, 186250, Note_on_c, 0, 50, 0
2, 186329, Note_on_c, 0, 59, 0
2, 186342, Note_on_c, 0, 58, 49
2, 186348, Note_on_c, 0, 51, 51
2, 186354, Note_on_c, 0, 66, 59
2, 186480, Note_on_c, 0, 70, 59
2, 186482, Note_on_c, 0, 66, 0
2, 186513, Note_on_c, 0, 51, 0
2, 186618, Note_on_c, 0, 68, 69
2, 186628, Note_on_c, 0, 70, 0
2, 186751, Note_on_c, 0, 66, 68
2, 186753, Note_on_c, 0, 68, 0
2, 186848, Note_on_c, 0, 66, 0
2, 186870, Note_on_c, 0, 65, 68
2, 186876, Note_on_c, 0, 53, 55
2, 186989, Note_on_c, 0, 68, 66
2, 187002, Note_on_c, 0, 65, 0
2, 187067, Note_on_c, 0, 53, 0
2, 187122, Note_on_c, 0, 66, 69
2, 187139, Note_on_c, 0, 68, 0
2, 187247, Note_on_c, 0, 65, 67
2, 187253, Note_on_c, 0, 66, 0
2, 187372, Note_on_c, 0, 65, 0
2, 187390, Note_on_c, 0, 63, 64
2, 187391, Note_on_c, 0, 54, 58
2, 187507, Note_on_c, 0, 66, 69
2, 187531, Note_on_c, 0, 63, 0
2, 187583, Note_on_c, 0, 54, 0
2, 187640, Note_on_c, 0, 65, 70
2, 187641, Note_on_c, 0, 66, 0
2, 187750, Note_on_c, 0, 65, 0
2, 187764, Note_on_c, 0, 63, 65
2, 187868, Note_on_c, 0, 63, 0
2, 187889, Note_on_c, 0, 56, 66
2, 187891, Note_on_c, 0, 62, 63
2, 187942, Control_c, 0, 64, 60
2, 187956, Control_c, 0, 64, 66
2, 187971, Control_c, 0, 64, 67
2, 187987, Control_c, 0, 64, 68
2, 188002, Control_c, 0, 64, 69
2, 188005, Note_on_c, 0, 58, 0
2, 188010, Note_on_c, 0, 65, 68
2, 188018, Control_c, 0, 64, 70
2, 188019, Note_on_c, 0, 62, 0
2, 188026, Note_on_c, 0, 56, 0
2, 188033, Control_c, 0, 64, 70
2, 188064, Control_c, 0, 64, 69
2, 188085, Control_c, 0, 64, 66
2, 188101, Control_c, 0, 64, 46
2, 188116, Control_c, 0, 64, 0
2, 188139, Note_on_c, 0, 65, 0
2, 188152, Note_on_c, 0, 63, 67
2, 188158, Note_on_c, 0, 58, 64
2, 188168, Note_on_c, 0, 54, 59
2, 188224, Control_c, 0, 64, 40
2, 188239, Control_c, 0, 64, 69
2, 188254, Control_c, 0, 64, 73
2, 188269, Control_c, 0, 64, 76
2, 188281, Note_on_c, 0, 63, 0
2, 188284, Control_c, 0, 64, 77
2, 188300, Control_c, 0, 64, 77
2, 188315, Control_c, 0, 64, 78
2, 188328, Note_on_c, 0, 54, 0
2, 188391, Control_c, 0, 64, 74
2, 188406, Control_c, 0, 64, 57
2, 188408, Note_on_c, 0, 53, 56
2, 188411, Note_on_c, 0, 56, 71
2, 188421, Control_c, 0, 64, 0
2, 188442, Note_on_c, 0, 58, 0
2, 188479, Note_on_c, 0, 53, 0
2, 188507, Note_on_c, 0, 56, 0
2, 188535, Note_on_c, 0, 54, 59
2, 188541, Note_on_c, 0, 58, 73
2, 188641, Note_on_c, 0, 58, 0
2, 188644, Note_on_c, 0, 54, 0
2, 188663, Note_on_c, 0, 62, 78
2, 188672, Note_on_c, 0, 59, 65
2, 188675, Note_on_c, 0, 56, 61
2, 188754, Control_c, 0, 64, 16
2, 188769, Control_c, 0, 64, 64
2, 188785, Control_c, 0, 64, 66
2, 188800, Control_c, 0, 64, 71
2, 188803, Note_on_c, 0, 56, 0
2, 188815, Control_c, 0, 64, 77
2, 188831, Control_c, 0, 64, 82
2, 188852, Note_on_c, 0, 59, 0
2, 188853, Control_c, 0, 64, 82
2, 188869, Control_c, 0, 64, 82
2, 188883, Control_c, 0, 64, 78
2, 188883, Note_on_c, 0, 62, 0
2, 188899, Control_c, 0, 64, 67
2, 188914, Control_c, 0, 64, 0
2, 188922, Note_on_c, 0, 68, 79
2, 188933, Note_on_c, 0, 53, 73
2, 188940, Note_on_c, 0, 50, 67
2, 189006, Control_c, 0, 64, 63
2, 189022, Control_c, 0, 64, 71
2, 189036, Control_c, 0, 64, 79
2, 189037, Note_on_c, 0, 53, 0
2, 189051, Control_c, 0, 64, 82
2, 189058, Note_on_c, 0, 50, 0
2, 189067, Control_c, 0, 64, 84
2, 189082, Control_c, 0, 64, 85
2, 189098, Control_c, 0, 64, 86
2, 189143, Control_c, 0, 64, 83
2, 189158, Control_c, 0, 64, 75
2, 189173, Control_c, 0, 64, 63
2, 189188, Note_on_c, 0, 46, 78
2, 189189, Control_c, 0, 64, 0
2, 189190, Note_on_c, 0, 68, 0
2, 189194, Note_on_c, 0, 62, 64
2, 189195, Note_on_c, 0, 66, 73
2, 189280, Control_c, 0, 64, 49
2, 189295, Control_c, 0, 64, 62
2, 189310, Control_c, 0, 64, 64
2, 189310, Note_on_c, 0, 62, 0
2, 189318, Note_on_c, 0, 65, 75
2, 189341, Control_c, 0, 64, 65
2, 189342, Note_on_c, 0, 66, 0
2, 189355, Control_c, 0, 64, 65
2, 189386, Control_c, 0, 64, 65
2, 189398, Note_on_c, 0, 46, 0
2, 189401, Control_c, 0, 64, 63
2, 189417, Control_c, 0, 64, 54
2, 189431, Control_c, 0, 64, 0
2, 189458, Note_on_c, 0, 51, 57
2, 189462, Note_on_c, 0, 65, 0
2, 189464, Note_on_c, 0, 66, 77
2, 189465, Note_on_c, 0, 63, 71
2, 189583, Control_c, 0, 64, 22
2, 189586, Note_on_c, 0, 68, 72
2, 189598, Control_c, 0, 64, 50
2, 189604, Note_on_c, 0, 66, 0
2, 189622, Control_c, 0, 64, 56
2, 189651, Control_c, 0, 64, 55
2, 189667, Control_c, 0, 64, 54
2, 189682, Control_c, 0, 64, 51
2, 189697, Control_c, 0, 64, 41
2, 189701, Note_on_c, 0, 63, 0
2, 189712, Control_c, 0, 64, 0
2, 189735, Note_on_c, 0, 70, 76
2, 189737, Note_on_c, 0, 68, 0
2, 189741, Note_on_c, 0, 65, 63
2, 189748, Note_on_c, 0, 51, 0
2, 189749, Note_on_c, 0, 49, 61
2, 189866, Control_c, 0, 64, 63
2, 189880, Control_c, 0, 64, 67
2, 189895, Control_c, 0, 64, 68
2, 189942, Control_c, 0, 64, 66
2, 189957, Control_c, 0, 64, 52
2, 189966, Note_on_c, 0, 49, 0
2, 189972, Control_c, 0, 64, 0
2, 189999, Note_on_c, 0, 66, 68
2, 190002, Note_on_c, 0, 65, 0
2, 190010, Note_on_c, 0, 48, 62
2, 190060, Note_on_c, 0, 70, 0
2, 190078, Control_c, 0, 64, 49
2, 190093, Control_c, 0, 64, 70
2, 190109, Control_c, 0, 64, 77
2, 190123, Note_on_c, 0, 48, 0
2, 190124, Control_c, 0, 64, 82
2, 190125, Note_on_c, 0, 49, 70
2, 190140, Control_c, 0, 64, 82
2, 190200, Control_c, 0, 64, 82
2, 190215, Control_c, 0, 64, 76
2, 190231, Control_c, 0, 64, 64
2, 190231, Note_on_c, 0, 49, 0
2, 190246, Control_c, 0, 64, 0
2, 190258, Note_on_c, 0, 60, 63
2, 190258, Note_on_c, 0, 69, 69
2, 190261, Note_on_c, 0, 51, 60
2, 190261, Note_on_c, 0, 66, 0
2, 190322, Control_c, 0, 64, 31
2, 190337, Control_c, 0, 64, 64
2, 190352, Control_c, 0, 64, 68
2, 190367, Control_c, 0, 64, 71
2, 190384, Note_on_c, 0, 61, 62
2, 190388, Note_on_c, 0, 70, 76
2, 190390, Control_c, 0, 64, 77
2, 190405, Control_c, 0, 64, 81
2, 190421, Control_c, 0, 64, 83
2, 190421, Note_on_c, 0, 69, 0
2, 190433, Note_on_c, 0, 60, 0
2, 190435, Note_on_c, 0, 61, 0
2, 190436, Control_c, 0, 64, 84
2, 190449, Note_on_c, 0, 70, 0
2, 190482, Control_c, 0, 64, 83
2, 190491, Note_on_c, 0, 51, 0
2, 190497, Control_c, 0, 64, 79
2, 190512, Control_c, 0, 64, 71
2, 190527, Control_c, 0, 64, 46
2, 190527, Note_on_c, 0, 45, 54
2, 190531, Note_on_c, 0, 72, 77
2, 190532, Note_on_c, 0, 63, 66
2, 190542, Control_c, 0, 64, 0
2, 190635, Control_c, 0, 64, 56
2, 190638, Note_on_c, 0, 72, 0
2, 190647, Note_on_c, 0, 48, 62
2, 190649, Control_c, 0, 64, 69
2, 190665, Control_c, 0, 64, 75
2, 190680, Control_c, 0, 64, 81
2, 190688, Note_on_c, 0, 63, 0
2, 190695, Control_c, 0, 64, 81
2, 190700, Note_on_c, 0, 45, 0
2, 190741, Control_c, 0, 64, 81
2, 190756, Control_c, 0, 64, 78
2, 190763, Note_on_c, 0, 48, 0
2, 190770, Control_c, 0, 64, 70
2, 190784, Note_on_c, 0, 53, 62
2, 190786, Control_c, 0, 64, 48
2, 190797, Note_on_c, 0, 63, 81
2, 190801, Control_c, 0, 64, 0
2, 190803, Note_on_c, 0, 57, 59
2, 190909, Note_on_c, 0, 51, 55
2, 190953, Note_on_c, 0, 53, 0
2, 191027, Note_on_c, 0, 57, 0
2, 191029, Note_on_c, 0, 51, 0
2, 191047, Note_on_c, 0, 49, 62
2, 191059, Note_on_c, 0, 58, 70
2, 191182, Note_on_c, 0, 58, 0
2, 191186, Note_on_c, 0, 53, 63
2, 191190, Note_on_c, 0, 60, 79
2, 191203, Control_c, 0, 64, 18
2, 191219, Control_c, 0, 64, 19
2, 191234, Control_c, 0, 64, 21
2, 191280, Note_on_c, 0, 53, 0
2, 191293, Note_on_c, 0, 49, 0
2, 191294, Control_c, 0, 64, 22
2, 191310, Control_c, 0, 64, 24
2, 191316, Note_on_c, 0, 58, 61
2, 191319, Note_on_c, 0, 61, 85
2, 191341, Control_c, 0, 64, 22
2, 191348, Note_on_c, 0, 60, 0
2, 191356, Control_c, 0, 64, 19
2, 191371, Control_c, 0, 64, 16
2, 191386, Control_c, 0, 64, 13
2, 191408, Note_on_c, 0, 63, 0
2, 191433, Control_c, 0, 64, 10
2, 191436, Note_on_c, 0, 56, 65
2, 191437, Note_on_c, 0, 58, 0
2, 191448, Control_c, 0, 64, 13
2, 191463, Control_c, 0, 64, 16
2, 191478, Control_c, 0, 64, 19
2, 191493, Control_c, 0, 64, 21
2, 191555, Control_c, 0, 64, 22
2, 191569, Control_c, 0, 64, 25
2, 191583, Note_on_c, 0, 54, 64
2, 191584, Note_on_c, 0, 70, 76
2, 191585, Control_c, 0, 64, 28
2, 191593, Note_on_c, 0, 56, 0
2, 191600, Control_c, 0, 64, 30
2, 191614, Control_c, 0, 64, 31
2, 191630, Control_c, 0, 64, 30
2, 191661, Control_c, 0, 64, 29
2, 191676, Control_c, 0, 64, 31
2, 191690, Control_c, 0, 64, 32
2, 191702, Note_on_c, 0, 54, 0
2, 191716, Note_on_c, 0, 53, 66
2, 191766, Control_c, 0, 64, 33
2, 191797, Control_c, 0, 64, 32
2, 191827, Control_c, 0, 64, 32
2, 191830, Note_on_c, 0, 53, 0
2, 191841, Note_on_c, 0, 51, 63
2, 191851, Note_on_c, 0, 60, 63
2, 191858, Control_c, 0, 64, 31
2, 191870, Note_on_c, 0, 61, 0
2, 191888, Control_c, 0, 64, 32
2, 191904, Control_c, 0, 64, 34
2, 191926, Control_c, 0, 64, 40
2, 191942, Control_c, 0, 64, 48
2, 191957, Control_c, 0, 64, 53
2, 191971, Control_c, 0, 64, 55
2, 191972, Note_on_c, 0, 60, 0
2, 191985, Note_on_c, 0, 49, 64
2, 191987, Control_c, 0, 64, 56
2, 191991, Note_on_c, 0, 61, 66
2, 191992, Note_on_c, 0, 51, 0
2, 192002, Control_c, 0, 64, 57
2, 192018, Control_c, 0, 64, 58
2, 192032, Control_c, 0, 64, 57
2, 192047, Control_c, 0, 64, 54
2, 192063, Control_c, 0, 64, 34
2, 192078, Control_c, 0, 64, 0
2, 192087, Note_on_c, 0, 49, 0
2, 192102, Note_on_c, 0, 61, 0
2, 192117, Note_on_c, 0, 63, 70
2, 192118, Note_on_c, 0, 48, 62
2, 192230, Control_c, 0, 64, 60
2, 192232, Note_on_c, 0, 49, 63
2, 192238, Note_on_c, 0, 48, 0
2, 192245, Control_c, 0, 64, 67
2, 192261, Control_c, 0, 64, 71
2, 192276, Control_c, 0, 64, 73
2, 192291, Control_c, 0, 64, 75
2, 192307, Control_c, 0, 64, 76
2, 192338, Control_c, 0, 64, 75
2, 192353, Control_c, 0, 64, 66
2, 192365, Note_on_c, 0, 54, 67
2, 192368, Control_c, 0, 64, 0
2, 192374, Note_on_c, 0, 51, 61
2, 192381, Note_on_c, 0, 68, 79
2, 192387, Note_on_c, 0, 70, 0
2, 192405, Note_on_c, 0, 63, 0
2, 192406, Note_on_c, 0, 49, 0
2, 192474, Control_c, 0, 64, 47
2, 192476, Note_on_c, 0, 54, 0
2, 192488, Note_on_c, 0, 48, 69
2, 192489, Control_c, 0, 64, 67
2, 192505, Control_c, 0, 64, 71
2, 192509, Note_on_c, 0, 51, 0
2, 192520, Control_c, 0, 64, 74
2, 192534, Control_c, 0, 64, 76
2, 192550, Control_c, 0, 64, 77
2, 192565, Control_c, 0, 64, 78
2, 192607, Note_on_c, 0, 48, 0
2, 192610, Control_c, 0, 64, 73
2, 192626, Control_c, 0, 64, 13
2, 192636, Note_on_c, 0, 73, 102
2, 192641, Control_c, 0, 64, 0
2, 192644, Note_on_c, 0, 49, 63
2, 192644, Note_on_c, 0, 53, 64
2, 192787, Note_on_c, 0, 65, 61
2, 192798, Note_on_c, 0, 53, 0
2, 192862, Note_on_c, 0, 68, 0
2, 192897, Note_on_c, 0, 49, 0
2, 192915, Note_on_c, 0, 46, 81
2, 192917, Note_on_c, 0, 65, 0
2, 192921, Note_on_c, 0, 55, 73
2, 192921, Note_on_c, 0, 70, 73
2, 192938, Control_c, 0, 64, 65
2, 192952, Control_c, 0, 64, 71
2, 192967, Control_c, 0, 64, 76
2, 192983, Control_c, 0, 64, 78
2, 192998, Control_c, 0, 64, 81
2, 193013, Control_c, 0, 64, 83
2, 193026, Note_on_c, 0, 73, 0
2, 193029, Control_c, 0, 64, 84
2, 193044, Control_c, 0, 64, 85
2, 193059, Control_c, 0, 64, 86
2, 193075, Control_c, 0, 64, 87
2, 193090, Control_c, 0, 64, 87
2, 193112, Note_on_c, 0, 46, 0
2, 193148, Note_on_c, 0, 70, 0
2, 193151, Control_c, 0, 64, 87
2, 193166, Control_c, 0, 64, 79
2, 193182, Control_c, 0, 64, 59
2, 193185, Note_on_c, 0, 72, 92
2, 193188, Note_on_c, 0, 69, 82
2, 193191, Note_on_c, 0, 48, 78
2, 193197, Control_c, 0, 64, 0
2, 193392, Note_on_c, 0, 55, 0
2, 193423, Note_on_c, 0, 69, 0
2, 193460, Note_on_c, 0, 68, 67
2, 193469, Note_on_c, 0, 53, 80
2, 193684, Note_on_c, 0, 72, 0
2, 193740, Note_on_c, 0, 68, 0
2, 193747, Note_on_c, 0, 67, 80
2, 193967, Note_on_c, 0, 67, 0
2, 193987, Note_on_c, 0, 53, 0
2, 193993, Note_on_c, 0, 70, 96
2, 194004, Note_on_c, 0, 52, 77
2, 194055, Control_c, 0, 64, 68
2, 194071, Control_c, 0, 64, 71
2, 194086, Control_c, 0, 64, 73
2, 194088, Note_on_c, 0, 52, 0
2, 194102, Control_c, 0, 64, 74
2, 194108, Note_on_c, 0, 48, 0
2, 194117, Control_c, 0, 64, 76
2, 194132, Control_c, 0, 64, 79
2, 194147, Control_c, 0, 64, 81
2, 194162, Control_c, 0, 64, 82
2, 194208, Control_c, 0, 64, 81
2, 194230, Control_c, 0, 64, 74
2, 194240, Note_on_c, 0, 70, 0
2, 194245, Control_c, 0, 64, 57
2, 194261, Control_c, 0, 64, 0
2, 194276, Note_on_c, 0, 53, 77
2, 194276, Note_on_c, 0, 69, 94
2, 194278, Note_on_c, 0, 41, 76
2, 194337, Control_c, 0, 64, 62
2, 194339, Note_on_c, 0, 41, 0
2, 194352, Control_c, 0, 64, 71
2, 194367, Control_c, 0, 64, 77
2, 194383, Control_c, 0, 64, 81
2, 194398, Control_c, 0, 64, 82
2, 194412, Control_c, 0, 64, 82
2, 194474, Control_c, 0, 64, 81
2, 194488, Control_c, 0, 64, 76
2, 194504, Control_c, 0, 64, 66
2, 194508, Note_on_c, 0, 69, 0
2, 194519, Control_c, 0, 64, 0
2, 194533, Note_on_c, 0, 75, 94
2, 194539, Note_on_c, 0, 66, 71
2, 194540, Note_on_c, 0, 53, 0
2, 194542, Note_on_c, 0, 57, 67
2, 194625, Control_c, 0, 64, 39
2, 194640, Control_c, 0, 64, 64
2, 194655, Control_c, 0, 64, 67
2, 194671, Control_c, 0, 64, 67
2, 194732, Control_c, 0, 64, 65
2, 194748, Control_c, 0, 64, 56
2, 194763, Control_c, 0, 64, 0
2, 194774, Note_on_c, 0, 57, 0
2, 194777, Note_on_c, 0, 66, 0
2, 194794, Note_on_c, 0, 73, 86
2, 194799, Note_on_c, 0, 58, 70
2, 194799, Note_on_c, 0, 65, 76
2, 194811, Note_on_c, 0, 75, 0
2, 194900, Control_c, 0, 64, 61
2, 194915, Control_c, 0, 64, 66
2, 194930, Control_c, 0, 64, 67
2, 194998, Control_c, 0, 64, 66
2, 195013, Control_c, 0, 64, 53
2, 195029, Control_c, 0, 64, 0
2, 195065, Note_on_c, 0, 65, 0
2, 195066, Note_on_c, 0, 58, 0
2, 195068, Note_on_c, 0, 64, 68
2, 195071, Note_on_c, 0, 56, 62
2, 195135, Control_c, 0, 64, 48
2, 195150, Control_c, 0, 64, 63
2, 195165, Control_c, 0, 64, 64
2, 195179, Note_on_c, 0, 56, 0
2, 195196, Note_on_c, 0, 55, 56
2, 195227, Control_c, 0, 64, 64
2, 195242, Control_c, 0, 64, 59
2, 195257, Control_c, 0, 64, 0
2, 195317, Note_on_c, 0, 55, 0
2, 195317, Note_on_c, 0, 64, 0
2, 195329, Note_on_c, 0, 63, 66
2, 195338, Note_on_c, 0, 73, 0
2, 195339, Note_on_c, 0, 56, 61
2, 195408, Control_c, 0, 64, 27
2, 195424, Control_c, 0, 64, 64
2, 195439, Control_c, 0, 64, 66
2, 195453, Control_c, 0, 64, 66
2, 195483, Note_on_c, 0, 63, 0
2, 195500, Control_c, 0, 64, 64
2, 195515, Control_c, 0, 64, 39
2, 195531, Control_c, 0, 64, 0
2, 195559, Note_on_c, 0, 56, 0
2, 195582, Note_on_c, 0, 71, 77
2, 195591, Note_on_c, 0, 62, 62
2, 195596, Note_on_c, 0, 54, 61
2, 195668, Control_c, 0, 64, 56
2, 195682, Control_c, 0, 64, 66
2, 195694, Note_on_c, 0, 54, 0
2, 195698, Control_c, 0, 64, 66
2, 195708, Note_on_c, 0, 53, 55
2, 195766, Control_c, 0, 64, 66
2, 195782, Control_c, 0, 64, 64
2, 195792, Note_on_c, 0, 71, 0
2, 195797, Control_c, 0, 64, 50
2, 195799, Note_on_c, 0, 53, 0
2, 195812, Control_c, 0, 64, 0
2, 195846, Note_on_c, 0, 54, 60
2, 195847, Note_on_c, 0, 70, 73
2, 195850, Note_on_c, 0, 61, 61
2, 195850, Note_on_c, 0, 62, 0
2, 195984, Note_on_c, 0, 70, 0
2, 195984, Note_on_c, 0, 73, 69
2, 196085, Note_on_c, 0, 73, 0
2, 196111, Note_on_c, 0, 71, 65
2, 196142, Note_on_c, 0, 54, 0
2, 196226, Note_on_c, 0, 71, 0
2, 196228, Note_on_c, 0, 70, 65
2, 196357, Note_on_c, 0, 70, 0
2, 196361, Note_on_c, 0, 53, 62
2, 196361, Note_on_c, 0, 68, 75
2, 196495, Note_on_c, 0, 71, 66
2, 196520, Note_on_c, 0, 68, 0
2, 196633, Note_on_c, 0, 70, 75
2, 196637, Note_on_c, 0, 71, 0
2, 196657, Note_on_c, 0, 53, 0
2, 196741, Note_on_c, 0, 70, 0
2, 196749, Note_on_c, 0, 68, 71
2, 196862, Note_on_c, 0, 68, 0
2, 196878, Note_on_c, 0, 51, 68
2, 196883, Note_on_c, 0, 66, 71
2, 196982, Note_on_c, 0, 61, 0
2, 197003, Note_on_c, 0, 70, 69
2, 197007, Note_on_c, 0, 66, 0
2, 197140, Note_on_c, 0, 59, 68
2, 197142, Note_on_c, 0, 68, 74
2, 197149, Note_on_c, 0, 70, 0
2, 197184, Note_on_c, 0, 51, 0
2, 197273, Note_on_c, 0, 68, 0
2, 197274, Note_on_c, 0, 66, 65
2, 197394, Note_on_c, 0, 66, 0
2, 197421, Note_on_c, 0, 65, 63
2, 197422, Note_on_c, 0, 49, 56
2, 197548, Note_on_c, 0, 68, 54
2, 197583, Note_on_c, 0, 65, 0
2, 197673, Note_on_c, 0, 59, 0
2, 197679, Note_on_c, 0, 66, 60
2, 197682, Note_on_c, 0, 58, 54
2, 197682, Note_on_c, 0, 68, 0
2, 197801, Note_on_c, 0, 58, 0
2, 197812, Note_on_c, 0, 56, 59
2, 197947, Note_on_c, 0, 66, 0
2, 197949, Note_on_c, 0, 54, 58
2, 197962, Note_on_c, 0, 56, 0
2, 198082, Note_on_c, 0, 58, 72
2, 198109, Note_on_c, 0, 54, 0
2, 198192, Note_on_c, 0, 58, 0
2, 198207, Note_on_c, 0, 56, 60
2, 198213, Note_on_c, 0, 65, 81
2, 198332, Note_on_c, 0, 54, 60
2, 198355, Note_on_c, 0, 56, 0
2, 198434, Note_on_c, 0, 65, 0
2, 198437, Note_on_c, 0, 54, 0
2, 198465, Note_on_c, 0, 53, 66
2, 198468, Note_on_c, 0, 71, 82
2, 198541, Control_c, 0, 64, 10
2, 198556, Control_c, 0, 64, 25
2, 198571, Control_c, 0, 64, 32
2, 198587, Control_c, 0, 64, 38
2, 198593, Note_on_c, 0, 53, 0
2, 198596, Note_on_c, 0, 56, 64
2, 198602, Control_c, 0, 64, 42
2, 198618, Control_c, 0, 64, 45
2, 198632, Control_c, 0, 64, 46
2, 198647, Control_c, 0, 64, 43
2, 198655, Note_on_c, 0, 56, 0
2, 198663, Control_c, 0, 64, 36
2, 198677, Control_c, 0, 64, 0
2, 198700, Note_on_c, 0, 71, 0
2, 198705, Note_on_c, 0, 55, 54
2, 198719, Note_on_c, 0, 70, 82
2, 198739, Control_c, 0, 64, 21
2, 198753, Control_c, 0, 64, 49
2, 198768, Control_c, 0, 64, 58
2, 198784, Control_c, 0, 64, 62
2, 198800, Control_c, 0, 64, 64
2, 198815, Control_c, 0, 64, 65
2, 198838, Control_c, 0, 64, 66
2, 198840, Note_on_c, 0, 55, 0
2, 198846, Note_on_c, 0, 68, 78
2, 198846, Note_on_c, 0, 70, 0
2, 198852, Note_on_c, 0, 53, 64
2, 198853, Control_c, 0, 64, 66
2, 198899, Control_c, 0, 64, 65
2, 198914, Control_c, 0, 64, 64
2, 198929, Control_c, 0, 64, 51
2, 198945, Control_c, 0, 64, 0
2, 198960, Note_on_c, 0, 53, 0
2, 198984, Note_on_c, 0, 70, 82
2, 198987, Note_on_c, 0, 55, 71
2, 199012, Note_on_c, 0, 68, 0
2, 199066, Control_c, 0, 64, 60
2, 199081, Control_c, 0, 64, 67
2, 199097, Control_c, 0, 64, 72
2, 199112, Control_c, 0, 64, 76
2, 199127, Control_c, 0, 64, 80
2, 199142, Control_c, 0, 64, 81
2, 199157, Control_c, 0, 64, 82
2, 199186, Control_c, 0, 64, 81
2, 199201, Control_c, 0, 64, 78
2, 199217, Control_c, 0, 64, 70
2, 199232, Control_c, 0, 64, 0
2, 199235, Note_on_c, 0, 49, 0
2, 199237, Note_on_c, 0, 46, 54
2, 199242, Note_on_c, 0, 75, 87
2, 199252, Note_on_c, 0, 70, 0
2, 199260, Note_on_c, 0, 47, 65
2, 199264, Note_on_c, 0, 46, 0
2, 199309, Control_c, 0, 64, 54
2, 199323, Control_c, 0, 64, 64
2, 199339, Control_c, 0, 64, 66
2, 199354, Control_c, 0, 64, 67
2, 199360, Note_on_c, 0, 47, 0
2, 199369, Control_c, 0, 64, 70
2, 199369, Note_on_c, 0, 46, 65
2, 199377, Note_on_c, 0, 55, 0
2, 199385, Control_c, 0, 64, 73
2, 199400, Control_c, 0, 64, 77
2, 199415, Control_c, 0, 64, 78
2, 199461, Control_c, 0, 64, 77
2, 199476, Control_c, 0, 64, 72
2, 199485, Note_on_c, 0, 46, 0
2, 199491, Control_c, 0, 64, 61
2, 199507, Control_c, 0, 64, 0
2, 199511, Note_on_c, 0, 56, 91
2, 199517, Note_on_c, 0, 47, 80
2, 199620, Control_c, 0, 64, 41
2, 199636, Control_c, 0, 64, 60
2, 199651, Control_c, 0, 64, 61
2, 199698, Control_c, 0, 64, 60
2, 199712, Control_c, 0, 64, 51
2, 199727, Control_c, 0, 64, 0
2, 199774, Note_on_c, 0, 52, 84
2, 199774, Note_on_c, 0, 73, 81
2, 199779, Note_on_c, 0, 75, 0
2, 199802, Note_on_c, 0, 47, 0
2, 199849, Control_c, 0, 64, 41
2, 199865, Control_c, 0, 64, 63
2, 199880, Control_c, 0, 64, 67
2, 199884, Note_on_c, 0, 56, 0
2, 199895, Control_c, 0, 64, 70
2, 199898, Note_on_c, 0, 73, 0
2, 199902, Note_on_c, 0, 71, 80
2, 199910, Control_c, 0, 64, 73
2, 199925, Control_c, 0, 64, 75
2, 199941, Control_c, 0, 64, 75
2, 199987, Control_c, 0, 64, 74
2, 200002, Control_c, 0, 64, 69
2, 200018, Control_c, 0, 64, 40
2, 200032, Control_c, 0, 64, 0
2, 200037, Note_on_c, 0, 73, 88
2, 200045, Note_on_c, 0, 58, 82
2, 200071, Note_on_c, 0, 71, 0
2, 200139, Control_c, 0, 64, 49
2, 200154, Control_c, 0, 64, 62
2, 200168, Control_c, 0, 64, 65
2, 200184, Control_c, 0, 64, 67
2, 200199, Control_c, 0, 64, 69
2, 200214, Control_c, 0, 64, 71
2, 200230, Control_c, 0, 64, 72
2, 200275, Control_c, 0, 64, 71
2, 200290, Control_c, 0, 64, 68
2, 200306, Control_c, 0, 64, 56
2, 200307, Note_on_c, 0, 78, 97
2, 200309, Note_on_c, 0, 51, 65
2, 200320, Control_c, 0, 64, 0
2, 200324, Note_on_c, 0, 73, 0
2, 200355, Note_on_c, 0, 52, 0
2, 200404, Control_c, 0, 64, 18
2, 200420, Control_c, 0, 64, 59
2, 200428, Note_on_c, 0, 58, 0
2, 200435, Control_c, 0, 64, 65
2, 200444, Note_on_c, 0, 51, 0
2, 200447, Note_on_c, 0, 49, 70
2, 200451, Control_c, 0, 64, 66
2, 200467, Control_c, 0, 64, 68
2, 200481, Control_c, 0, 64, 69
2, 200497, Control_c, 0, 64, 70
2, 200527, Control_c, 0, 64, 69
2, 200543, Control_c, 0, 64, 65
2, 200557, Control_c, 0, 64, 42
2, 200572, Control_c, 0, 64, 0
2, 200585, Note_on_c, 0, 59, 80
2, 200592, Note_on_c, 0, 49, 0
2, 200593, Note_on_c, 0, 51, 70
2, 200678, Control_c, 0, 64, 47
2, 200693, Control_c, 0, 64, 63
2, 200709, Control_c, 0, 64, 65
2, 200724, Control_c, 0, 64, 65
2, 200769, Control_c, 0, 64, 65
2, 200785, Control_c, 0, 64, 62
2, 200800, Control_c, 0, 64, 10
2, 200815, Control_c, 0, 64, 0
2, 200849, Note_on_c, 0, 56, 72
2, 200853, Note_on_c, 0, 76, 77
2, 200887, Note_on_c, 0, 78, 0
2, 200904, Note_on_c, 0, 59, 0
2, 200922, Control_c, 0, 64, 62
2, 200938, Control_c, 0, 64, 67
2, 200952, Control_c, 0, 64, 69
2, 200967, Control_c, 0, 64, 72
2, 200978, Note_on_c, 0, 75, 77
2, 200983, Control_c, 0, 64, 76
2, 200998, Control_c, 0, 64, 79
2, 201012, Control_c, 0, 64, 81
2, 201012, Note_on_c, 0, 51, 0
2, 201030, Note_on_c, 0, 76, 0
2, 201043, Control_c, 0, 64, 81
2, 201074, Control_c, 0, 64, 81
2, 201088, Control_c, 0, 64, 77
2, 201104, Control_c, 0, 64, 67
2, 201108, Note_on_c, 0, 58, 78
2, 201115, Note_on_c, 0, 73, 76
2, 201119, Control_c, 0, 64, 0
2, 201161, Note_on_c, 0, 75, 0
2, 201243, Note_on_c, 0, 73, 0
2, 201251, Note_on_c, 0, 71, 72
2, 201314, Note_on_c, 0, 56, 0
2, 201372, Note_on_c, 0, 55, 64
2, 201382, Note_on_c, 0, 70, 70
2, 201430, Note_on_c, 0, 71, 0
2, 201473, Note_on_c, 0, 55, 0
2, 201494, Note_on_c, 0, 53, 66
2, 201498, Note_on_c, 0, 68, 70
2, 201501, Note_on_c, 0, 70, 0
2, 201602, Note_on_c, 0, 53, 0
2, 201632, Note_on_c, 0, 55, 71
2, 201632, Note_on_c, 0, 70, 76
2, 201639, Note_on_c, 0, 58, 0
2, 201641, Note_on_c, 0, 68, 0
2, 201705, Control_c, 0, 64, 29
2, 201720, Control_c, 0, 64, 0
2, 201766, Control_c, 0, 64, 32
2, 201781, Control_c, 0, 64, 51
2, 201796, Control_c, 0, 64, 52
2, 201827, Control_c, 0, 64, 52
2, 201842, Control_c, 0, 64, 53
2, 201857, Control_c, 0, 64, 52
2, 201872, Control_c, 0, 64, 0
2, 201878, Note_on_c, 0, 55, 0
2, 201914, Note_on_c, 0, 56, 56
2, 201915, Note_on_c, 0, 64, 68
2, 202038, Note_on_c, 0, 58, 66
2, 202062, Note_on_c, 0, 56, 0
2, 202126, Note_on_c, 0, 58, 0
2, 202129, Note_on_c, 0, 64, 0
2, 202170, Note_on_c, 0, 51, 95
2, 202177, Note_on_c, 0, 63, 72
2, 202181, Note_on_c, 0, 59, 82
2, 202341, Note_on_c, 0, 70, 0
2, 202444, Note_on_c, 0, 51, 0
2, 202458, Note_on_c, 0, 68, 89
2, 202706, Note_on_c, 0, 59, 0
2, 202718, Note_on_c, 0, 49, 94
2, 202735, Note_on_c, 0, 58, 75
2, 202959, Note_on_c, 0, 49, 0
2, 202992, Note_on_c, 0, 67, 79
2, 203012, Note_on_c, 0, 68, 0
2, 203249, Note_on_c, 0, 56, 85
2, 203249, Note_on_c, 0, 68, 84
2, 203252, Note_on_c, 0, 67, 0
2, 203264, Note_on_c, 0, 58, 0
2, 203267, Note_on_c, 0, 63, 0
2, 203454, Note_on_c, 0, 56, 0
2, 203514, Note_on_c, 0, 47, 85
2, 203518, Note_on_c, 0, 58, 75
2, 203568, Control_c, 0, 64, 61
2, 203584, Control_c, 0, 64, 69
2, 203598, Control_c, 0, 64, 72
2, 203607, Note_on_c, 0, 47, 0
2, 203613, Control_c, 0, 64, 73
2, 203617, Note_on_c, 0, 58, 0
2, 203629, Control_c, 0, 64, 72
2, 203640, Note_on_c, 0, 59, 74
2, 203644, Control_c, 0, 64, 68
2, 203660, Control_c, 0, 64, 56
2, 203674, Control_c, 0, 64, 0
2, 203705, Note_on_c, 0, 59, 0
2, 203763, Note_on_c, 0, 46, 97
2, 203766, Note_on_c, 0, 61, 77
2, 203796, Control_c, 0, 64, 67
2, 203796, Note_on_c, 0, 61, 0
2, 203811, Control_c, 0, 64, 82
2, 203820, Note_on_c, 0, 68, 0
2, 203827, Control_c, 0, 64, 93
2, 203842, Control_c, 0, 64, 97
2, 203873, Control_c, 0, 64, 98
2, 203885, Note_on_c, 0, 46, 0
2, 203933, Control_c, 0, 64, 96
2, 203949, Control_c, 0, 64, 90
2, 203964, Control_c, 0, 64, 79
2, 203979, Control_c, 0, 64, 63
2, 203994, Control_c, 0, 64, 0
2, 204026, Note_on_c, 0, 80, 92
2, 204029, Note_on_c, 0, 74, 74
2, 204032, Note_on_c, 0, 52, 89
2, 204085, Control_c, 0, 64, 44
2, 204101, Control_c, 0, 64, 69
2, 204115, Control_c, 0, 64, 76
2, 204130, Control_c, 0, 64, 83
2, 204146, Control_c, 0, 64, 84
2, 204161, Control_c, 0, 64, 85
2, 204214, Control_c, 0, 64, 84
2, 204230, Control_c, 0, 64, 80
2, 204232, Note_on_c, 0, 52, 0
2, 204234, Note_on_c, 0, 74, 0
2, 204244, Control_c, 0, 64, 70
2, 204248, Note_on_c, 0, 80, 0
2, 204260, Control_c, 0, 64, 25
2, 204275, Control_c, 0, 64, 0
2, 204285, Note_on_c, 0, 79, 82
2, 204291, Note_on_c, 0, 75, 77
2, 204302, Note_on_c, 0, 51, 78
2, 204366, Control_c, 0, 64, 63
2, 204382, Control_c, 0, 64, 69
2, 204390, Note_on_c, 0, 75, 0
2, 204396, Control_c, 0, 64, 73
2, 204411, Control_c, 0, 64, 75
2, 204417, Note_on_c, 0, 70, 76
2, 204427, Control_c, 0, 64, 78
2, 204441, Control_c, 0, 64, 79
2, 204503, Control_c, 0, 64, 77
2, 204516, Note_on_c, 0, 51, 0
2, 204518, Control_c, 0, 64, 69
2, 204533, Control_c, 0, 64, 0
2, 204549, Note_on_c, 0, 78, 81
2, 204551, Note_on_c, 0, 63, 81
2, 204552, Note_on_c, 0, 75, 81
2, 204552, Note_on_c, 0, 79, 0
2, 204569, Note_on_c, 0, 70, 0
2, 204640, Control_c, 0, 64, 65
2, 204655, Control_c, 0, 64, 73
2, 204671, Control_c, 0, 64, 80
2, 204686, Control_c, 0, 64, 83
2, 204695, Note_on_c, 0, 63, 0
2, 204702, Control_c, 0, 64, 84
2, 204747, Control_c, 0, 64, 82
2, 204762, Control_c, 0, 64, 75
2, 204778, Control_c, 0, 64, 60
2, 204781, Note_on_c, 0, 78, 0
2, 204793, Control_c, 0, 64, 0
2, 204799, Note_on_c, 0, 77, 79
2, 204804, Note_on_c, 0, 65, 73
2, 204823, Note_on_c, 0, 75, 0
2, 204853, Control_c, 0, 64, 19
2, 204853, Note_on_c, 0, 65, 0
2, 204868, Control_c, 0, 64, 66
2, 204883, Control_c, 0, 64, 73
2, 204899, Control_c, 0, 64, 80
2, 204914, Control_c, 0, 64, 84
2, 204929, Control_c, 0, 64, 85
2, 204933, Note_on_c, 0, 73, 72
2, 204944, Control_c, 0, 64, 87
2, 204959, Control_c, 0, 64, 88
2, 204960, Note_on_c, 0, 77, 0
2, 204983, Control_c, 0, 64, 89
2, 204998, Control_c, 0, 64, 90
2, 205035, Note_on_c, 0, 73, 0
2, 205043, Control_c, 0, 64, 86
2, 205059, Control_c, 0, 64, 77
2, 205074, Control_c, 0, 64, 60
2, 205078, Note_on_c, 0, 49, 71
2, 205080, Note_on_c, 0, 76, 79
2, 205086, Note_on_c, 0, 71, 59
2, 205088, Control_c, 0, 64, 0
2, 205089, Note_on_c, 0, 67, 65
2, 205164, Control_c, 0, 64, 41
2, 205180, Control_c, 0, 64, 67
2, 205194, Note_on_c, 0, 76, 0
2, 205195, Control_c, 0, 64, 73
2, 205200, Note_on_c, 0, 70, 75
2, 205210, Control_c, 0, 64, 79
2, 205218, Note_on_c, 0, 67, 0
2, 205226, Control_c, 0, 64, 82
2, 205240, Control_c, 0, 64, 84
2, 205255, Control_c, 0, 64, 84
2, 205262, Note_on_c, 0, 71, 0
2, 205279, Note_on_c, 0, 70, 0
2, 205289, Note_on_c, 0, 49, 0
2, 205301, Control_c, 0, 64, 83
2, 205316, Control_c, 0, 64, 75
2, 205331, Control_c, 0, 64, 59
2, 205345, Note_on_c, 0, 75, 81
2, 205347, Control_c, 0, 64, 0
2, 205355, Note_on_c, 0, 47, 68
2, 205357, Note_on_c, 0, 68, 67
2, 205359, Note_on_c, 0, 71, 60
2, 205424, Control_c, 0, 64, 60
2, 205439, Control_c, 0, 64, 68
2, 205454, Control_c, 0, 64, 71
2, 205469, Control_c, 0, 64, 73
2, 205471, Note_on_c, 0, 51, 73
2, 205475, Note_on_c, 0, 47, 0
2, 205484, Control_c, 0, 64, 74
2, 205500, Control_c, 0, 64, 74
2, 205520, Note_on_c, 0, 68, 0
2, 205530, Control_c, 0, 64, 74
2, 205545, Control_c, 0, 64, 68
2, 205560, Control_c, 0, 64, 0
2, 205561, Note_on_c, 0, 71, 0
2, 205600, Note_on_c, 0, 49, 75
2, 205611, Note_on_c, 0, 51, 0
2, 205728, Note_on_c, 0, 49, 0
2, 205731, Note_on_c, 0, 47, 71
2, 205848, Note_on_c, 0, 73, 74
2, 205854, Note_on_c, 0, 67, 69
2, 205858, Note_on_c, 0, 46, 74
2, 205865, Note_on_c, 0, 47, 0
2, 205903, Control_c, 0, 64, 62
2, 205918, Control_c, 0, 64, 0
2, 205977, Note_on_c, 0, 67, 0
2, 205994, Note_on_c, 0, 49, 76
2, 206023, Note_on_c, 0, 46, 0
2, 206107, Note_on_c, 0, 49, 0
2, 206118, Note_on_c, 0, 47, 83
2, 206119, Note_on_c, 0, 73, 0
2, 206243, Note_on_c, 0, 46, 77
2, 206255, Note_on_c, 0, 47, 0
2, 206364, Note_on_c, 0, 71, 76
2, 206367, Note_on_c, 0, 44, 81
2, 206372, Note_on_c, 0, 68, 64
2, 206377, Note_on_c, 0, 46, 0
2, 206494, Note_on_c, 0, 47, 84
2, 206500, Note_on_c, 0, 44, 0
2, 206544, Note_on_c, 0, 68, 0
2, 206612, Note_on_c, 0, 71, 0
2, 206636, Note_on_c, 0, 46, 82
2, 206647, Note_on_c, 0, 47, 0
2, 206759, Note_on_c, 0, 44, 77
2, 206765, Note_on_c, 0, 46, 0
2, 206863, Note_on_c, 0, 44, 0
2, 206889, Note_on_c, 0, 43, 77
2, 206889, Note_on_c, 0, 70, 71
2, 206893, Note_on_c, 0, 63, 65
2, 206991, Control_c, 0, 64, 51
2, 207006, Control_c, 0, 64, 64
2, 207022, Control_c, 0, 64, 68
2, 207022, Note_on_c, 0, 43, 0
2, 207022, Note_on_c, 0, 46, 77
2, 207037, Control_c, 0, 64, 71
2, 207052, Control_c, 0, 64, 72
2, 207054, Note_on_c, 0, 63, 0
2, 207068, Control_c, 0, 64, 73
2, 207114, Control_c, 0, 64, 70
2, 207128, Control_c, 0, 64, 63
2, 207133, Note_on_c, 0, 46, 0
2, 207144, Control_c, 0, 64, 0
2, 207147, Note_on_c, 0, 44, 75
2, 207152, Note_on_c, 0, 75, 0
2, 207156, Note_on_c, 0, 73, 72
2, 207159, Note_on_c, 0, 70, 0
2, 207289, Note_on_c, 0, 73, 0
2, 207291, Note_on_c, 0, 71, 71
2, 207322, Note_on_c, 0, 44, 0
2, 207424, Note_on_c, 0, 73, 73
2, 207443, Note_on_c, 0, 71, 0
2, 207546, Note_on_c, 0, 76, 74
2, 207548, Note_on_c, 0, 73, 0
2, 207684, Note_on_c, 0, 75, 69
2, 207687, Note_on_c, 0, 43, 63
2, 207726, Note_on_c, 0, 76, 0
2, 207771, Control_c, 0, 64, 52
2, 207787, Control_c, 0, 64, 65
2, 207802, Control_c, 0, 64, 68
2, 207803, Note_on_c, 0, 73, 69
2, 207816, Note_on_c, 0, 75, 0
2, 207817, Control_c, 0, 64, 72
2, 207833, Control_c, 0, 64, 76
2, 207843, Note_on_c, 0, 73, 0
2, 207845, Note_on_c, 0, 43, 0
2, 207848, Control_c, 0, 64, 79
2, 207864, Control_c, 0, 64, 80
2, 207910, Control_c, 0, 64, 79
2, 207924, Control_c, 0, 64, 76
2, 207939, Control_c, 0, 64, 66
2, 207939, Note_on_c, 0, 71, 71
2, 207949, Note_on_c, 0, 64, 56
2, 207953, Note_on_c, 0, 49, 60
2, 207955, Control_c, 0, 64, 0
2, 208014, Note_on_c, 0, 64, 0
2, 208014, Note_on_c, 0, 64, 11
2, 208077, Note_on_c, 0, 70, 64
2, 208115, Note_on_c, 0, 71, 0
2, 208194, Note_on_c, 0, 49, 0
2, 208209, Note_on_c, 0, 68, 66
2, 208212, Note_on_c, 0, 47, 55
2, 208218, Note_on_c, 0, 70, 0
2, 208304, Note_on_c, 0, 47, 0
2, 208326, Note_on_c, 0, 68, 0
2, 208336, Note_on_c, 0, 46, 46
2, 208345, Note_on_c, 0, 67, 53
2, 208469, Note_on_c, 0, 67, 0
2, 208492, Note_on_c, 0, 68, 55
2, 208495, Note_on_c, 0, 46, 0
2, 208502, Note_on_c, 0, 47, 48
2, 208552, Note_on_c, 0, 64, 0
2, 208631, Control_c, 0, 64, 53
2, 208646, Control_c, 0, 64, 63
2, 208671, Note_on_c, 0, 47, 0
2, 208677, Control_c, 0, 64, 63
2, 208692, Control_c, 0, 64, 65
2, 208708, Control_c, 0, 64, 66
2, 208723, Control_c, 0, 64, 67
2, 208737, Control_c, 0, 64, 66
2, 208753, Control_c, 0, 64, 66
2, 208768, Control_c, 0, 64, 65
2, 208784, Control_c, 0, 64, 65
2, 208796, Note_on_c, 0, 59, 45
2, 208799, Control_c, 0, 64, 64
2, 208816, Note_on_c, 0, 63, 44
2, 208820, Control_c, 0, 64, 63
2, 208836, Control_c, 0, 64, 62
2, 208851, Control_c, 0, 64, 63
2, 208859, Note_on_c, 0, 63, 0
2, 208859, Note_on_c, 0, 63, 5
2, 208882, Control_c, 0, 64, 63
2, 208911, Note_on_c, 0, 59, 0
2, 208934, Note_on_c, 0, 58, 48
2, 208940, Note_on_c, 0, 61, 55
2, 208942, Control_c, 0, 64, 64
2, 208945, Note_on_c, 0, 63, 0
2, 209035, Note_on_c, 0, 58, 0
2, 209041, Note_on_c, 0, 61, 0
2, 209049, Control_c, 0, 64, 63
2, 209061, Note_on_c, 0, 59, 53
2, 209065, Control_c, 0, 64, 63
2, 209071, Note_on_c, 0, 63, 64
2, 209080, Control_c, 0, 64, 62
2, 209095, Control_c, 0, 64, 61
2, 209110, Control_c, 0, 64, 59
2, 209125, Control_c, 0, 64, 56
2, 209140, Control_c, 0, 64, 52
2, 209155, Control_c, 0, 64, 49
2, 209170, Control_c, 0, 64, 47
2, 209175, Note_on_c, 0, 63, 0
2, 209186, Control_c, 0, 64, 43
2, 209197, Note_on_c, 0, 65, 60
2, 209201, Control_c, 0, 64, 35
2, 209216, Control_c, 0, 64, 21
2, 209231, Control_c, 0, 64, 0
2, 209334, Note_on_c, 0, 59, 0
2, 209334, Note_on_c, 0, 65, 0
2, 209340, Note_on_c, 0, 66, 62
2, 209347, Note_on_c, 0, 63, 41
2, 209593, Note_on_c, 0, 63, 0
2, 209629, Note_on_c, 0, 60, 49
2, 209851, Note_on_c, 0, 60, 0
2, 209881, Note_on_c, 0, 56, 45
2, 209890, Note_on_c, 0, 65, 48
2, 209919, Note_on_c, 0, 66, 0
2, 209986, Note_on_c, 0, 65, 0
2, 210011, Note_on_c, 0, 63, 51
2, 210117, Note_on_c, 0, 56, 0
2, 210123, Note_on_c, 0, 63, 0
2, 210132, Note_on_c, 0, 65, 53
2, 210136, Note_on_c, 0, 61, 49
2, 210254, Note_on_c, 0, 68, 0
2, 210257, Note_on_c, 0, 70, 59
2, 210398, Note_on_c, 0, 68, 60
2, 210405, Note_on_c, 0, 56, 48
2, 210406, Note_on_c, 0, 70, 0
2, 210407, Note_on_c, 0, 61, 0
2, 210527, Note_on_c, 0, 66, 62
2, 210529, Note_on_c, 0, 68, 0
2, 210653, Note_on_c, 0, 68, 72
2, 210657, Note_on_c, 0, 56, 0
2, 210661, Note_on_c, 0, 53, 53
2, 210666, Note_on_c, 0, 66, 0
2, 210781, Note_on_c, 0, 70, 64
2, 210803, Note_on_c, 0, 68, 0
2, 210905, Note_on_c, 0, 53, 0
2, 210923, Note_on_c, 0, 49, 44
2, 210927, Note_on_c, 0, 71, 67
2, 210946, Note_on_c, 0, 70, 0
2, 211198, Note_on_c, 0, 49, 0
2, 211220, Note_on_c, 0, 53, 49
2, 211407, Note_on_c, 0, 53, 0
2, 211485, Note_on_c, 0, 56, 44
2, 211487, Note_on_c, 0, 70, 55
2, 211508, Note_on_c, 0, 71, 0
2, 211605, Note_on_c, 0, 70, 0
2, 211619, Note_on_c, 0, 68, 59
2, 211678, Note_on_c, 0, 56, 0
2, 211762, Note_on_c, 0, 70, 61
2, 211774, Note_on_c, 0, 68, 0
2, 211777, Note_on_c, 0, 50, 40
2, 211825, Note_on_c, 0, 65, 0
2, 211899, Note_on_c, 0, 66, 52
2, 211936, Note_on_c, 0, 50, 0
2, 212007, Note_on_c, 0, 66, 0
2, 212027, Note_on_c, 0, 62, 47
2, 212034, Note_on_c, 0, 65, 58
2, 212136, Note_on_c, 0, 65, 0
2, 212137, Note_on_c, 0, 62, 0
2, 212150, Note_on_c, 0, 63, 59
2, 212151, Note_on_c, 0, 60, 57
2, 212253, Note_on_c, 0, 60, 0
2, 212261, Note_on_c, 0, 63, 0
2, 212275, Note_on_c, 0, 65, 66
2, 212284, Note_on_c, 0, 62, 59
2, 212407, Note_on_c, 0, 66, 64
2, 212408, Note_on_c, 0, 65, 0
2, 212484, Note_on_c, 0, 62, 0
2, 212533, Note_on_c, 0, 66, 0
2, 212547, Note_on_c, 0, 68, 69
2, 212560, Note_on_c, 0, 65, 52
2, 212772, Note_on_c, 0, 65, 0
2, 212830, Note_on_c, 0, 62, 51
2, 213076, Note_on_c, 0, 62, 0
2, 213106, Note_on_c, 0, 58, 44
2, 213117, Note_on_c, 0, 66, 54
2, 213140, Note_on_c, 0, 68, 0
2, 213217, Note_on_c, 0, 66, 0
2, 213232, Note_on_c, 0, 65, 55
2, 213287, Note_on_c, 0, 58, 0
2, 213358, Note_on_c, 0, 63, 52
2, 213366, Note_on_c, 0, 66, 61
2, 213407, Note_on_c, 0, 65, 0
2, 213440, Note_on_c, 0, 70, 0
2, 213490, Note_on_c, 0, 72, 53
2, 213557, Note_on_c, 0, 63, 0
2, 213557, Note_on_c, 0, 66, 0
2, 213604, Note_on_c, 0, 66, 34
2, 213620, Note_on_c, 0, 70, 58
2, 213624, Note_on_c, 0, 51, 47
2, 213664, Note_on_c, 0, 72, 0
2, 213749, Note_on_c, 0, 70, 0
2, 213770, Note_on_c, 0, 69, 57
2, 213853, Note_on_c, 0, 51, 0
2, 213884, Note_on_c, 0, 54, 53
2, 213886, Note_on_c, 0, 70, 68
2, 213975, Note_on_c, 0, 69, 0
2, 214014, Note_on_c, 0, 72, 75
2, 214030, Note_on_c, 0, 70, 0
2, 214079, Note_on_c, 0, 54, 0
2, 214143, Note_on_c, 0, 58, 62
2, 214143, Note_on_c, 0, 73, 78
2, 214162, Note_on_c, 0, 72, 0
2, 214302, Control_c, 0, 64, 36
2, 214318, Control_c, 0, 64, 49
2, 214333, Control_c, 0, 64, 53
2, 214348, Control_c, 0, 64, 54
2, 214363, Control_c, 0, 64, 52
2, 214370, Note_on_c, 0, 58, 0
2, 214379, Control_c, 0, 64, 42
2, 214395, Control_c, 0, 64, 0
2, 214432, Note_on_c, 0, 51, 68
2, 214516, Control_c, 0, 64, 36
2, 214531, Control_c, 0, 64, 62
2, 214547, Control_c, 0, 64, 63
2, 214562, Control_c, 0, 64, 63
2, 214576, Control_c, 0, 64, 62
2, 214592, Control_c, 0, 64, 61
2, 214607, Control_c, 0, 64, 54
2, 214622, Control_c, 0, 64, 0
2, 214623, Note_on_c, 0, 51, 0
2, 214684, Note_on_c, 0, 54, 73
2, 214688, Note_on_c, 0, 72, 70
2, 214714, Note_on_c, 0, 73, 0
2, 214774, Control_c, 0, 64, 36
2, 214789, Control_c, 0, 64, 63
2, 214804, Control_c, 0, 64, 66
2, 214814, Note_on_c, 0, 72, 0
2, 214818, Note_on_c, 0, 70, 69
2, 214819, Control_c, 0, 64, 67
2, 214835, Control_c, 0, 64, 68
2, 214840, Note_on_c, 0, 54, 0
2, 214850, Control_c, 0, 64, 69
2, 214865, Control_c, 0, 64, 70
2, 214895, Control_c, 0, 64, 67
2, 214911, Control_c, 0, 64, 52
2, 214926, Control_c, 0, 64, 0
2, 214952, Note_on_c, 0, 45, 81
2, 214964, Note_on_c, 0, 72, 75
2, 214967, Note_on_c, 0, 70, 0
2, 215095, Note_on_c, 0, 45, 0
2, 215097, Note_on_c, 0, 73, 76
2, 215101, Note_on_c, 0, 72, 0
2, 215221, Note_on_c, 0, 57, 85
2, 215231, Note_on_c, 0, 72, 79
2, 215265, Note_on_c, 0, 73, 0
2, 215361, Note_on_c, 0, 70, 75
2, 215379, Note_on_c, 0, 72, 0
2, 215389, Note_on_c, 0, 66, 0
2, 215493, Note_on_c, 0, 72, 85
2, 215499, Note_on_c, 0, 65, 74
2, 215521, Note_on_c, 0, 70, 0
2, 215612, Note_on_c, 0, 57, 0
2, 215621, Note_on_c, 0, 73, 83
2, 215630, Note_on_c, 0, 58, 71
2, 215645, Note_on_c, 0, 72, 0
2, 215755, Note_on_c, 0, 58, 0
2, 215767, Note_on_c, 0, 75, 87
2, 215771, Note_on_c, 0, 57, 78
2, 215783, Note_on_c, 0, 73, 0
2, 215866, Control_c, 0, 64, 40
2, 215881, Control_c, 0, 64, 46
2, 215896, Control_c, 0, 64, 0
2, 215896, Note_on_c, 0, 55, 77
2, 215896, Note_on_c, 0, 57, 0
2, 216003, Note_on_c, 0, 55, 0
2, 216027, Note_on_c, 0, 57, 80
2, 216109, Control_c, 0, 64, 67
2, 216115, Note_on_c, 0, 65, 0
2, 216125, Control_c, 0, 64, 74
2, 216140, Control_c, 0, 64, 80
2, 216156, Control_c, 0, 64, 82
2, 216171, Control_c, 0, 64, 83
2, 216186, Control_c, 0, 64, 84
2, 216201, Note_on_c, 0, 57, 0
2, 216202, Control_c, 0, 64, 85
2, 216217, Control_c, 0, 64, 86
2, 216233, Control_c, 0, 64, 84
2, 216248, Control_c, 0, 64, 77
2, 216262, Control_c, 0, 64, 61
2, 216278, Control_c, 0, 64, 0
2, 216287, Note_on_c, 0, 53, 75
2, 216292, Note_on_c, 0, 73, 78
2, 216296, Note_on_c, 0, 69, 70
2, 216317, Note_on_c, 0, 75, 0
2, 216338, Control_c, 0, 64, 67
2, 216338, Note_on_c, 0, 53, 0
2, 216354, Control_c, 0, 64, 77
2, 216369, Control_c, 0, 64, 85
2, 216383, Control_c, 0, 64, 88
2, 216399, Control_c, 0, 64, 88
2, 216410, Note_on_c, 0, 73, 0
2, 216413, Note_on_c, 0, 72, 72
2, 216414, Control_c, 0, 64, 89
2, 216429, Control_c, 0, 64, 90
2, 216445, Control_c, 0, 64, 90
2, 216460, Control_c, 0, 64, 91
2, 216469, Note_on_c, 0, 69, 0
2, 216528, Control_c, 0, 64, 88
2, 216543, Control_c, 0, 64, 76
2, 216557, Note_on_c, 0, 65, 95
2, 216559, Control_c, 0, 64, 0
2, 216562, Note_on_c, 0, 73, 75
2, 216566, Note_on_c, 0, 72, 0
2, 216572, Note_on_c, 0, 58, 79
2, 216581, Note_on_c, 0, 70, 59
2, 216677, Note_on_c, 0, 70, 0
2, 216704, Note_on_c, 0, 72, 72
2, 216709, Note_on_c, 0, 73, 0
2, 216828, Note_on_c, 0, 73, 87
2, 216849, Note_on_c, 0, 72, 0
2, 216851, Note_on_c, 0, 65, 0
2, 216864, Control_c, 0, 64, 64
2, 216880, Control_c, 0, 64, 72
2, 216895, Control_c, 0, 64, 74
2, 216909, Control_c, 0, 64, 75
2, 216925, Control_c, 0, 64, 76
2, 216940, Control_c, 0, 64, 78
2, 216955, Control_c, 0, 64, 80
2, 216970, Control_c, 0, 64, 81
2, 216985, Control_c, 0, 64, 82
2, 217001, Control_c, 0, 64, 82
2, 217016, Control_c, 0, 64, 83
2, 217030, Control_c, 0, 64, 84
2, 217032, Note_on_c, 0, 73, 0
2, 217061, Control_c, 0, 64, 83
2, 217068, Note_on_c, 0, 78, 104
2, 217075, Note_on_c, 0, 63, 89
2, 217077, Control_c, 0, 64, 72
2, 217092, Control_c, 0, 64, 0
2, 217116, Note_on_c, 0, 58, 0
2, 217203, Note_on_c, 0, 60, 65
2, 217330, Note_on_c, 0, 60, 0
2, 217333, Note_on_c, 0, 72, 68
2, 217343, Note_on_c, 0, 58, 71
2, 217350, Note_on_c, 0, 78, 0
2, 217373, Control_c, 0, 64, 59
2, 217387, Control_c, 0, 64, 75
2, 217395, Note_on_c, 0, 63, 0
2, 217403, Control_c, 0, 64, 78
2, 217418, Control_c, 0, 64, 79
2, 217418, Note_on_c, 0, 58, 0
2, 217455, Note_on_c, 0, 57, 64
2, 217464, Control_c, 0, 64, 80
2, 217480, Control_c, 0, 64, 80
2, 217494, Control_c, 0, 64, 81
2, 217509, Control_c, 0, 64, 81
2, 217546, Note_on_c, 0, 72, 0
2, 217565, Note_on_c, 0, 57, 0
2, 217570, Control_c, 0, 64, 76
2, 217585, Control_c, 0, 64, 65
2, 217587, Note_on_c, 0, 77, 99
2, 217593, Note_on_c, 0, 58, 86
2, 217594, Note_on_c, 0, 73, 83
2, 217601, Control_c, 0, 64, 0
2, 217868, Note_on_c, 0, 61, 91
2, 217872, Note_on_c, 0, 65, 75
2, 217883, Note_on_c, 0, 73, 0
2, 217920, Control_c, 0, 64, 47
2, 217935, Control_c, 0, 64, 69
2, 217950, Control_c, 0, 64, 73
2, 217953, Note_on_c, 0, 65, 0
2, 217966, Control_c, 0, 64, 75
2, 217981, Control_c, 0, 64, 76
2, 217997, Control_c, 0, 64, 77
2, 218012, Control_c, 0, 64, 77
2, 218018, Note_on_c, 0, 61, 0
2, 218050, Control_c, 0, 64, 75
2, 218055, Note_on_c, 0, 77, 0
2, 218065, Control_c, 0, 64, 64
2, 218080, Control_c, 0, 64, 0
2, 218124, Note_on_c, 0, 63, 87
2, 218134, Note_on_c, 0, 60, 86
2, 218156, Control_c, 0, 64, 55
2, 218171, Control_c, 0, 64, 70
2, 218178, Note_on_c, 0, 63, 0
2, 218186, Control_c, 0, 64, 77
2, 218198, Note_on_c, 0, 58, 0
2, 218202, Control_c, 0, 64, 81
2, 218209, Note_on_c, 0, 60, 0
2, 218216, Control_c, 0, 64, 82
2, 218232, Control_c, 0, 64, 83
2, 218247, Control_c, 0, 64, 84
2, 218262, Control_c, 0, 64, 85
2, 218275, Note_on_c, 0, 60, 63
2, 218324, Control_c, 0, 64, 84
2, 218338, Control_c, 0, 64, 77
2, 218342, Note_on_c, 0, 60, 0
2, 218354, Control_c, 0, 64, 59
2, 218368, Control_c, 0, 64, 0
2, 218390, Note_on_c, 0, 75, 91
2, 218392, Note_on_c, 0, 66, 87
2, 218394, Note_on_c, 0, 72, 85
2, 218404, Note_on_c, 0, 58, 73
2, 218444, Control_c, 0, 64, 59
2, 218459, Control_c, 0, 64, 70
2, 218474, Note_on_c, 0, 58, 0
2, 218475, Note_on_c, 0, 66, 0
2, 218476, Control_c, 0, 64, 76
2, 218476, Note_on_c, 0, 72, 0
2, 218491, Control_c, 0, 64, 79
2, 218506, Control_c, 0, 64, 81
2, 218513, Note_on_c, 0, 57, 72
2, 218521, Control_c, 0, 64, 82
2, 218581, Control_c, 0, 64, 81
2, 218597, Control_c, 0, 64, 77
2, 218605, Note_on_c, 0, 57, 0
2, 218612, Control_c, 0, 64, 67
2, 218612, Note_on_c, 0, 75, 0
2, 218627, Control_c, 0, 64, 0
2, 218649, Note_on_c, 0, 65, 88
2, 218651, Note_on_c, 0, 74, 87
2, 218654, Note_on_c, 0, 58, 82
2, 218657, Note_on_c, 0, 70, 80
2, 218718, Control_c, 0, 64, 59
2, 218733, Control_c, 0, 64, 67
2, 218748, Control_c, 0, 64, 71
2, 218764, Control_c, 0, 64, 75
2, 218777, Note_on_c, 0, 74, 0
2, 218779, Control_c, 0, 64, 78
2, 218802, Control_c, 0, 64, 80
2, 218847, Control_c, 0, 64, 79
2, 218862, Control_c, 0, 64, 74
2, 218865, Note_on_c, 0, 70, 0
2, 218878, Control_c, 0, 64, 64
2, 218893, Control_c, 0, 64, 0
2, 218912, Note_on_c, 0, 80, 93
2, 218927, Note_on_c, 0, 74, 72
2, 218954, Control_c, 0, 64, 61
2, 218969, Control_c, 0, 64, 67
2, 218984, Control_c, 0, 64, 71
2, 218999, Control_c, 0, 64, 75
2, 219014, Control_c, 0, 64, 76
2, 219029, Control_c, 0, 64, 76
2, 219045, Note_on_c, 0, 65, 0
2, 219060, Control_c, 0, 64, 76
2, 219076, Control_c, 0, 64, 72
2, 219080, Note_on_c, 0, 80, 0
2, 219091, Control_c, 0, 64, 61
2, 219091, Note_on_c, 0, 74, 0
2, 219106, Control_c, 0, 64, 0
2, 219156, Note_on_c, 0, 78, 90
2, 219162, Note_on_c, 0, 75, 84
2, 219197, Control_c, 0, 64, 57
2, 219212, Control_c, 0, 64, 67
2, 219227, Control_c, 0, 64, 71
2, 219241, Note_on_c, 0, 58, 0
2, 219243, Control_c, 0, 64, 75
2, 219257, Control_c, 0, 64, 77
2, 219273, Control_c, 0, 64, 79
2, 219283, Note_on_c, 0, 60, 75
2, 219289, Control_c, 0, 64, 80
2, 219350, Control_c, 0, 64, 77
2, 219361, Note_on_c, 0, 60, 0
2, 219365, Control_c, 0, 64, 70
2, 219380, Control_c, 0, 64, 32
2, 219396, Control_c, 0, 64, 0
2, 219402, Note_on_c, 0, 63, 85
2, 219403, Note_on_c, 0, 75, 0
2, 219403, Note_on_c, 0, 78, 0
2, 219411, Note_on_c, 0, 72, 81
2, 219420, Note_on_c, 0, 58, 69
2, 219474, Control_c, 0, 64, 61
2, 219484, Note_on_c, 0, 63, 0
2, 219488, Control_c, 0, 64, 67
2, 219490, Note_on_c, 0, 58, 0
2, 219503, Control_c, 0, 64, 70
2, 219519, Control_c, 0, 64, 73
2, 219526, Note_on_c, 0, 57, 71
2, 219534, Control_c, 0, 64, 75
2, 219549, Control_c, 0, 64, 77
2, 219572, Control_c, 0, 64, 79
2, 219588, Control_c, 0, 64, 79
2, 219611, Note_on_c, 0, 57, 0
2, 219660, Note_on_c, 0, 58, 81
2, 219663, Control_c, 0, 64, 75
2, 219669, Note_on_c, 0, 61, 75
2, 219679, Control_c, 0, 64, 64
2, 219694, Control_c, 0, 64, 0
2, 219769, Note_on_c, 0, 72, 0
2, 219777, Note_on_c, 0, 61, 0
2, 219801, Note_on_c, 0, 69, 79
2, 219802, Note_on_c, 0, 65, 75
2, 219861, Note_on_c, 0, 58, 0
2, 219861, Note_on_c, 0, 58, 4
2, 219897, Note_on_c, 0, 69, 0
2, 219907, Note_on_c, 0, 65, 0
2, 219925, Note_on_c, 0, 77, 90
2, 219929, Note_on_c, 0, 63, 74
2, 219940, Note_on_c, 0, 70, 68
2, 220013, Control_c, 0, 64, 30
2, 220029, Control_c, 0, 64, 44
2, 220044, Control_c, 0, 64, 50
2, 220051, Note_on_c, 0, 63, 0
2, 220052, Note_on_c, 0, 61, 64
2, 220059, Control_c, 0, 64, 51
2, 220075, Control_c, 0, 64, 50
2, 220090, Control_c, 0, 64, 40
2, 220106, Control_c, 0, 64, 0
2, 220127, Note_on_c, 0, 70, 0
2, 220178, Note_on_c, 0, 61, 0
2, 220188, Note_on_c, 0, 75, 81
2, 220191, Note_on_c, 0, 60, 69
2, 220202, Note_on_c, 0, 77, 0
2, 220209, Note_on_c, 0, 58, 0
2, 220228, Control_c, 0, 64, 44
2, 220243, Control_c, 0, 64, 64
2, 220257, Control_c, 0, 64, 67
2, 220273, Control_c, 0, 64, 69
2, 220288, Control_c, 0, 64, 70
2, 220303, Control_c, 0, 64, 71
2, 220307, Note_on_c, 0, 63, 68
2, 220307, Note_on_c, 0, 78, 83
2, 220312, Note_on_c, 0, 60, 0
2, 220317, Note_on_c, 0, 75, 0
2, 220319, Control_c, 0, 64, 72
2, 220356, Control_c, 0, 64, 73
2, 220387, Control_c, 0, 64, 72
2, 220402, Control_c, 0, 64, 68
2, 220413, Note_on_c, 0, 63, 0
2, 220417, Control_c, 0, 64, 47
2, 220432, Control_c, 0, 64, 0
2, 220439, Note_on_c, 0, 61, 68
2, 220441, Note_on_c, 0, 53, 69
2, 220447, Note_on_c, 0, 77, 87
2, 220447, Note_on_c, 0, 78, 0
2, 220452, Note_on_c, 0, 69, 76
2, 220524, Control_c, 0, 64, 62
2, 220539, Control_c, 0, 64, 67
2, 220542, Note_on_c, 0, 53, 0
2, 220552, Note_on_c, 0, 61, 0
2, 220554, Control_c, 0, 64, 69
2, 220569, Control_c, 0, 64, 71
2, 220575, Note_on_c, 0, 75, 81
2, 220579, Note_on_c, 0, 60, 68
2, 220585, Control_c, 0, 64, 73
2, 220599, Control_c, 0, 64, 76
2, 220614, Control_c, 0, 64, 77
2, 220620, Note_on_c, 0, 69, 0
2, 220621, Note_on_c, 0, 77, 0
2, 220630, Control_c, 0, 64, 78
2, 220672, Note_on_c, 0, 60, 0
2, 220675, Control_c, 0, 64, 77
2, 220690, Control_c, 0, 64, 73
2, 220701, Note_on_c, 0, 54, 62
2, 220701, Note_on_c, 0, 58, 72
2, 220705, Note_on_c, 0, 73, 79
2, 220706, Control_c, 0, 64, 65
2, 220711, Note_on_c, 0, 70, 73
2, 220721, Control_c, 0, 64, 19
2, 220729, Note_on_c, 0, 75, 0
2, 220736, Control_c, 0, 64, 0
2, 220827, Control_c, 0, 64, 13
2, 220834, Note_on_c, 0, 77, 82
2, 220837, Note_on_c, 0, 61, 72
2, 220842, Control_c, 0, 64, 33
2, 220857, Control_c, 0, 64, 42
2, 220859, Note_on_c, 0, 58, 0
2, 220871, Note_on_c, 0, 73, 0
2, 220873, Control_c, 0, 64, 44
2, 220888, Control_c, 0, 64, 43
2, 220903, Control_c, 0, 64, 42
2, 220919, Control_c, 0, 64, 42
2, 220939, Note_on_c, 0, 61, 0
2, 220963, Note_on_c, 0, 60, 75
2, 220964, Note_on_c, 0, 75, 80
2, 220965, Control_c, 0, 64, 41
2, 220988, Note_on_c, 0, 70, 0
2, 220995, Control_c, 0, 64, 42
2, 221010, Control_c, 0, 64, 44
2, 221014, Note_on_c, 0, 77, 0
2, 221026, Control_c, 0, 64, 45
2, 221041, Control_c, 0, 64, 48
2, 221056, Control_c, 0, 64, 51
2, 221071, Control_c, 0, 64, 54
2, 221086, Control_c, 0, 64, 56
2, 221086, Note_on_c, 0, 58, 69
2, 221092, Note_on_c, 0, 60, 0
2, 221095, Note_on_c, 0, 73, 83
2, 221109, Control_c, 0, 64, 58
2, 221131, Note_on_c, 0, 75, 0
2, 221170, Control_c, 0, 64, 57
2, 221185, Control_c, 0, 64, 54
2, 221200, Control_c, 0, 64, 40
2, 221215, Control_c, 0, 64, 0
2, 221218, Note_on_c, 0, 58, 0
2, 221221, Note_on_c, 0, 57, 71
2, 221228, Note_on_c, 0, 72, 80
2, 221235, Note_on_c, 0, 73, 0
2, 221289, Note_on_c, 0, 54, 0
2, 221316, Note_on_c, 0, 57, 0
2, 221337, Control_c, 0, 64, 56
2, 221347, Note_on_c, 0, 60, 72
2, 221347, Note_on_c, 0, 75, 80
2, 221349, Note_on_c, 0, 72, 0
2, 221353, Control_c, 0, 64, 67
2, 221368, Control_c, 0, 64, 72
2, 221383, Control_c, 0, 64, 77
2, 221398, Control_c, 0, 64, 79
2, 221413, Control_c, 0, 64, 81
2, 221458, Control_c, 0, 64, 79
2, 221470, Note_on_c, 0, 73, 78
2, 221474, Control_c, 0, 64, 74
2, 221475, Note_on_c, 0, 58, 68
2, 221476, Note_on_c, 0, 60, 0
2, 221477, Note_on_c, 0, 53, 67
2, 221489, Control_c, 0, 64, 65
2, 221493, Note_on_c, 0, 75, 0
2, 221505, Control_c, 0, 64, 32
2, 221519, Control_c, 0, 64, 0
2, 221578, Note_on_c, 0, 53, 0
2, 221592, Note_on_c, 0, 73, 0
2, 221600, Note_on_c, 0, 72, 72
2, 221604, Note_on_c, 0, 51, 65
2, 221626, Control_c, 0, 64, 24
2, 221640, Control_c, 0, 64, 28
2, 221655, Control_c, 0, 64, 30
2, 221671, Control_c, 0, 64, 31
2, 221727, Note_on_c, 0, 70, 73
2, 221729, Note_on_c, 0, 53, 67
2, 221732, Note_on_c, 0, 51, 0
2, 221733, Note_on_c, 0, 72, 0
2, 221748, Control_c, 0, 64, 32
2, 221763, Control_c, 0, 64, 33
2, 221778, Control_c, 0, 64, 34
2, 221839, Control_c, 0, 64, 34
2, 221848, Note_on_c, 0, 73, 67
2, 221877, Control_c, 0, 64, 35
2, 221892, Control_c, 0, 64, 36
2, 221906, Note_on_c, 0, 70, 0
2, 221908, Control_c, 0, 64, 38
2, 221923, Control_c, 0, 64, 40
2, 221932, Note_on_c, 0, 58, 0
2, 221938, Control_c, 0, 64, 42
2, 221968, Control_c, 0, 64, 41
2, 221983, Control_c, 0, 64, 40
2, 221988, Note_on_c, 0, 73, 0
2, 221995, Note_on_c, 0, 72, 67
2, 221998, Note_on_c, 0, 57, 81
2, 222014, Control_c, 0, 64, 39
2, 222029, Control_c, 0, 64, 39
2, 222044, Control_c, 0, 64, 38
2, 222059, Control_c, 0, 64, 38
2, 222120, Control_c, 0, 64, 37
2, 222135, Control_c, 0, 64, 38
2, 222151, Control_c, 0, 64, 39
2, 222166, Control_c, 0, 64, 39
2, 222181, Control_c, 0, 64, 40
2, 222196, Control_c, 0, 64, 41
2, 222214, Note_on_c, 0, 72, 0
2, 222225, Control_c, 0, 64, 41
2, 222249, Note_on_c, 0, 57, 0
2, 222270, Note_on_c, 0, 63, 86
2, 222316, Control_c, 0, 64, 41
2, 222331, Control_c, 0, 64, 42
2, 222347, Control_c, 0, 64, 44
2, 222361, Control_c, 0, 64, 46
2, 222376, Control_c, 0, 64, 49
2, 222392, Control_c, 0, 64, 53
2, 222407, Control_c, 0, 64, 56
2, 222422, Control_c, 0, 64, 57
2, 222438, Control_c, 0, 64, 58
2, 222453, Control_c, 0, 64, 57
2, 222469, Control_c, 0, 64, 56
2, 222483, Control_c, 0, 64, 48
2, 222498, Control_c, 0, 64, 0
2, 222508, Note_on_c, 0, 63, 0
2, 222526, Note_on_c, 0, 61, 63
2, 222529, Note_on_c, 0, 70, 82
2, 222606, Control_c, 0, 64, 28
2, 222621, Control_c, 0, 64, 63
2, 222643, Control_c, 0, 64, 67
2, 222650, Note_on_c, 0, 61, 0
2, 222658, Control_c, 0, 64, 69
2, 222660, Note_on_c, 0, 60, 69
2, 222674, Control_c, 0, 64, 71
2, 222689, Control_c, 0, 64, 72
2, 222705, Control_c, 0, 64, 73
2, 222750, Control_c, 0, 64, 73
2, 222765, Control_c, 0, 64, 69
2, 222774, Note_on_c, 0, 60, 0
2, 222780, Control_c, 0, 64, 60
2, 222796, Control_c, 0, 64, 0
2, 222802, Note_on_c, 0, 70, 0
2, 222817, Note_on_c, 0, 77, 83
2, 222827, Note_on_c, 0, 61, 65
2, 222847, Note_on_c, 0, 53, 0
2, 222917, Control_c, 0, 64, 55
2, 222932, Control_c, 0, 64, 65
2, 222948, Control_c, 0, 64, 69
2, 222963, Control_c, 0, 64, 72
2, 222979, Control_c, 0, 64, 74
2, 222994, Control_c, 0, 64, 76
2, 223009, Control_c, 0, 64, 76
2, 223040, Control_c, 0, 64, 76
2, 223054, Control_c, 0, 64, 73
2, 223070, Control_c, 0, 64, 66
2, 223085, Control_c, 0, 64, 0
2, 223090, Note_on_c, 0, 53, 49
2, 223096, Note_on_c, 0, 75, 67
2, 223100, Note_on_c, 0, 77, 0
2, 223221, Control_c, 0, 64, 63
2, 223223, Note_on_c, 0, 73, 71
2, 223223, Note_on_c, 0, 75, 0
2, 223237, Control_c, 0, 64, 68
2, 223251, Control_c, 0, 64, 72
2, 223267, Control_c, 0, 64, 73
2, 223282, Control_c, 0, 64, 74
2, 223313, Control_c, 0, 64, 73
2, 223327, Control_c, 0, 64, 66
2, 223340, Note_on_c, 0, 53, 0
2, 223342, Control_c, 0, 64, 0
2, 223349, Note_on_c, 0, 75, 80
2, 223352, Note_on_c, 0, 54, 65
2, 223361, Note_on_c, 0, 73, 0
2, 223443, Control_c, 0, 64, 54
2, 223458, Control_c, 0, 64, 69
2, 223474, Control_c, 0, 64, 75
2, 223488, Control_c, 0, 64, 81
2, 223503, Control_c, 0, 64, 84
2, 223508, Note_on_c, 0, 54, 0
2, 223519, Control_c, 0, 64, 86
2, 223534, Control_c, 0, 64, 87
2, 223579, Control_c, 0, 64, 85
2, 223580, Note_on_c, 0, 61, 0
2, 223593, Control_c, 0, 64, 79
2, 223601, Note_on_c, 0, 55, 69
2, 223604, Note_on_c, 0, 60, 69
2, 223608, Control_c, 0, 64, 66
2, 223623, Control_c, 0, 64, 0
2, 223698, Control_c, 0, 64, 38
2, 223714, Control_c, 0, 64, 65
2, 223726, Note_on_c, 0, 60, 0
2, 223727, Note_on_c, 0, 58, 74
2, 223729, Control_c, 0, 64, 71
2, 223744, Control_c, 0, 64, 76
2, 223760, Control_c, 0, 64, 80
2, 223775, Control_c, 0, 64, 81
2, 223776, Note_on_c, 0, 55, 0
2, 223805, Note_on_c, 0, 58, 0
2, 223820, Control_c, 0, 64, 77
2, 223836, Control_c, 0, 64, 69
2, 223851, Control_c, 0, 64, 0
2, 223869, Note_on_c, 0, 60, 78
2, 223870, Note_on_c, 0, 56, 73
2, 223942, Control_c, 0, 64, 64
2, 223958, Control_c, 0, 64, 70
2, 223972, Control_c, 0, 64, 74
2, 223987, Control_c, 0, 64, 78
2, 224003, Control_c, 0, 64, 81
2, 224017, Control_c, 0, 64, 83
2, 224029, Note_on_c, 0, 56, 0
2, 224033, Control_c, 0, 64, 83
2, 224063, Control_c, 0, 64, 83
2, 224079, Control_c, 0, 64, 78
2, 224088, Note_on_c, 0, 60, 0
2, 224093, Control_c, 0, 64, 68
2, 224108, Control_c, 0, 64, 0
2, 224119, Note_on_c, 0, 65, 79
2, 224122, Note_on_c, 0, 73, 85
2, 224123, Note_on_c, 0, 57, 73
2, 224132, Note_on_c, 0, 75, 0
2, 224193, Control_c, 0, 64, 33
2, 224209, Control_c, 0, 64, 64
2, 224224, Control_c, 0, 64, 69
2, 224240, Control_c, 0, 64, 72
2, 224252, Note_on_c, 0, 72, 77
2, 224255, Control_c, 0, 64, 74
2, 224269, Control_c, 0, 64, 76
2, 224273, Note_on_c, 0, 73, 0
2, 224300, Control_c, 0, 64, 75
2, 224316, Control_c, 0, 64, 71
2, 224330, Control_c, 0, 64, 47
2, 224345, Control_c, 0, 64, 0
2, 224369, Note_on_c, 0, 57, 0
2, 224383, Note_on_c, 0, 58, 78
2, 224386, Note_on_c, 0, 72, 0
2, 224392, Note_on_c, 0, 73, 88
2, 224413, Note_on_c, 0, 65, 0
2, 224421, Control_c, 0, 64, 67
2, 224437, Control_c, 0, 64, 78
2, 224440, Note_on_c, 0, 58, 0
2, 224452, Control_c, 0, 64, 86
2, 224467, Control_c, 0, 64, 88
2, 224482, Control_c, 0, 64, 88
2, 224497, Control_c, 0, 64, 89
2, 224508, Note_on_c, 0, 73, 0
2, 224510, Note_on_c, 0, 75, 84
2, 224513, Control_c, 0, 64, 90
2, 224528, Control_c, 0, 64, 91
2, 224542, Control_c, 0, 64, 92
2, 224618, Control_c, 0, 64, 90
2, 224630, Note_on_c, 0, 75, 0
2, 224634, Control_c, 0, 64, 76
2, 224642, Note_on_c, 0, 46, 70
2, 224644, Note_on_c, 0, 73, 84
2, 224649, Control_c, 0, 64, 16
2, 224653, Note_on_c, 0, 64, 77
2, 224664, Control_c, 0, 64, 0
2, 224766, Note_on_c, 0, 48, 72
2, 224767, Note_on_c, 0, 46, 0
2, 224776, Note_on_c, 0, 72, 79
2, 224806, Note_on_c, 0, 64, 0
2, 224808, Note_on_c, 0, 73, 0
2, 224903, Note_on_c, 0, 70, 94
2, 224904, Note_on_c, 0, 48, 0
2, 224904, Note_on_c, 0, 49, 76
2, 224907, Note_on_c, 0, 65, 82
2, 224915, Note_on_c, 0, 72, 0
2, 224961, Control_c, 0, 64, 54
2, 224976, Control_c, 0, 64, 79
2, 224990, Note_on_c, 0, 49, 0
2, 224992, Control_c, 0, 64, 88
2, 225007, Control_c, 0, 64, 96
2, 225022, Control_c, 0, 64, 99
2, 225026, Note_on_c, 0, 65, 0
2, 225038, Control_c, 0, 64, 110
2, 225053, Control_c, 0, 64, 121
2, 225055, Note_on_c, 0, 70, 0
2, 225068, Control_c, 0, 64, 127
2, 225129, Control_c, 0, 64, 120
2, 225144, Control_c, 0, 64, 106
2, 225160, Control_c, 0, 64, 91
2, 225174, Control_c, 0, 64, 74
2, 225178, Note_on_c, 0, 82, 100
2, 225181, Note_on_c, 0, 56, 79
2, 225188, Note_on_c, 0, 50, 68
2, 225189, Control_c, 0, 64, 0
2, 225295, Control_c, 0, 64, 64
2, 225309, Control_c, 0, 64, 74
2, 225325, Control_c, 0, 64, 82
2, 225340, Control_c, 0, 64, 85
2, 225364, Note_on_c, 0, 50, 0
2, 225401, Control_c, 0, 64, 84
2, 225416, Control_c, 0, 64, 77
2, 225428, Note_on_c, 0, 56, 0
2, 225432, Control_c, 0, 64, 63
2, 225447, Control_c, 0, 64, 0
2, 225448, Note_on_c, 0, 55, 74
2, 225452, Note_on_c, 0, 51, 74
2, 225523, Control_c, 0, 64, 65
2, 225536, Note_on_c, 0, 55, 0
2, 225538, Control_c, 0, 64, 72
2, 225554, Control_c, 0, 64, 79
2, 225565, Note_on_c, 0, 56, 80
2, 225569, Control_c, 0, 64, 84
2, 225583, Control_c, 0, 64, 86
2, 225587, Note_on_c, 0, 51, 0
2, 225599, Control_c, 0, 64, 87
2, 225614, Control_c, 0, 64, 88
2, 225659, Control_c, 0, 64, 86
2, 225662, Note_on_c, 0, 56, 0
2, 225675, Control_c, 0, 64, 78
2, 225681, Note_on_c, 0, 82, 0
2, 225690, Control_c, 0, 64, 65
2, 225697, Note_on_c, 0, 58, 73
2, 225701, Note_on_c, 0, 52, 68
2, 225701, Note_on_c, 0, 80, 83
2, 225713, Control_c, 0, 64, 0
2, 225788, Control_c, 0, 64, 52
2, 225804, Control_c, 0, 64, 67
2, 225819, Control_c, 0, 64, 73
2, 225828, Note_on_c, 0, 79, 81
2, 225836, Control_c, 0, 64, 78
2, 225841, Note_on_c, 0, 80, 0
2, 225847, Note_on_c, 0, 52, 0
2, 225851, Control_c, 0, 64, 80
2, 225863, Note_on_c, 0, 58, 0
2, 225866, Control_c, 0, 64, 81
2, 225881, Control_c, 0, 64, 82
2, 225894, Note_on_c, 0, 79, 0
2, 225927, Control_c, 0, 64, 78
2, 225941, Control_c, 0, 64, 67
2, 225957, Control_c, 0, 64, 0
2, 225961, Note_on_c, 0, 72, 95
2, 225969, Note_on_c, 0, 53, 70
2, 225971, Note_on_c, 0, 80, 88
2, 225977, Note_on_c, 0, 56, 72
2, 226063, Control_c, 0, 64, 51
2, 226079, Control_c, 0, 64, 59
2, 226096, Note_on_c, 0, 56, 0
2, 226102, Note_on_c, 0, 58, 78
2, 226108, Control_c, 0, 64, 56
2, 226124, Control_c, 0, 64, 43
2, 226139, Control_c, 0, 64, 0
2, 226163, Note_on_c, 0, 53, 0
2, 226190, Note_on_c, 0, 58, 0
2, 226218, Note_on_c, 0, 51, 71
2, 226222, Note_on_c, 0, 56, 74
2, 226248, Note_on_c, 0, 72, 0
2, 226276, Control_c, 0, 64, 67
2, 226291, Control_c, 0, 64, 76
2, 226304, Control_c, 0, 64, 85
2, 226309, Note_on_c, 0, 56, 0
2, 226320, Control_c, 0, 64, 87
2, 226323, Note_on_c, 0, 51, 0
2, 226335, Control_c, 0, 64, 87
2, 226341, Note_on_c, 0, 55, 72
2, 226349, Control_c, 0, 64, 88
2, 226365, Control_c, 0, 64, 91
2, 226380, Control_c, 0, 64, 93
2, 226395, Control_c, 0, 64, 95
2, 226397, Note_on_c, 0, 55, 0
2, 226411, Control_c, 0, 64, 95
2, 226441, Control_c, 0, 64, 95
2, 226456, Control_c, 0, 64, 89
2, 226479, Control_c, 0, 64, 72
2, 226481, Note_on_c, 0, 49, 91
2, 226487, Note_on_c, 0, 80, 0
2, 226490, Note_on_c, 0, 70, 102
2, 226494, Control_c, 0, 64, 0
2, 226501, Note_on_c, 0, 53, 72
2, 226593, Note_on_c, 0, 53, 0
2, 226629, Note_on_c, 0, 52, 69
2, 226753, Note_on_c, 0, 79, 91
2, 226766, Note_on_c, 0, 53, 80
2, 226799, Control_c, 0, 64, 68
2, 226810, Note_on_c, 0, 52, 0
2, 226812, Note_on_c, 0, 70, 0
2, 226815, Control_c, 0, 64, 74
2, 226829, Control_c, 0, 64, 76
2, 226839, Note_on_c, 0, 49, 0
2, 226843, Note_on_c, 0, 53, 0
2, 226845, Control_c, 0, 64, 76
2, 226860, Control_c, 0, 64, 77
2, 226875, Control_c, 0, 64, 78
2, 226891, Control_c, 0, 64, 80
2, 226894, Note_on_c, 0, 55, 63
2, 226906, Control_c, 0, 64, 81
2, 226921, Control_c, 0, 64, 82
2, 226936, Control_c, 0, 64, 82
2, 226965, Note_on_c, 0, 55, 0
2, 226982, Control_c, 0, 64, 81
2, 226996, Control_c, 0, 64, 73
2, 227012, Control_c, 0, 64, 0
2, 227012, Note_on_c, 0, 48, 84
2, 227016, Note_on_c, 0, 56, 88
2, 227130, Note_on_c, 0, 56, 0
2, 227150, Note_on_c, 0, 55, 76
2, 227221, Note_on_c, 0, 55, 0
2, 227223, Note_on_c, 0, 79, 0
2, 227277, Note_on_c, 0, 56, 79
2, 227277, Note_on_c, 0, 68, 101
2, 227288, Note_on_c, 0, 77, 90
2, 227369, Control_c, 0, 64, 58
2, 227384, Control_c, 0, 64, 58
2, 227391, Note_on_c, 0, 58, 68
2, 227399, Control_c, 0, 64, 54
2, 227414, Control_c, 0, 64, 55
2, 227415, Note_on_c, 0, 56, 0
2, 227427, Note_on_c, 0, 68, 0
2, 227445, Control_c, 0, 64, 41
2, 227460, Control_c, 0, 64, 0
2, 227483, Note_on_c, 0, 77, 0
2, 227505, Note_on_c, 0, 58, 0
2, 227536, Note_on_c, 0, 60, 85
2, 227539, Note_on_c, 0, 67, 96
2, 227545, Note_on_c, 0, 76, 89
2, 227586, Note_on_c, 0, 60, 0
2, 227597, Control_c, 0, 64, 58
2, 227613, Control_c, 0, 64, 73
2, 227618, Note_on_c, 0, 76, 0
2, 227619, Note_on_c, 0, 48, 0
2, 227628, Control_c, 0, 64, 81
2, 227643, Control_c, 0, 64, 86
2, 227658, Control_c, 0, 64, 87
2, 227673, Control_c, 0, 64, 87
2, 227701, Note_on_c, 0, 67, 0
2, 227704, Control_c, 0, 64, 87
2, 227720, Control_c, 0, 64, 85
2, 227735, Control_c, 0, 64, 78
2, 227749, Control_c, 0, 64, 65
2, 227765, Control_c, 0, 64, 0
2, 227799, Note_on_c, 0, 73, 95
2, 227800, Note_on_c, 0, 46, 92
2, 227856, Control_c, 0, 64, 63
2, 227871, Control_c, 0, 64, 70
2, 227881, Note_on_c, 0, 73, 0
2, 227887, Control_c, 0, 64, 76
2, 227894, Note_on_c, 0, 46, 0
2, 227902, Control_c, 0, 64, 80
2, 227916, Control_c, 0, 64, 82
2, 227932, Control_c, 0, 64, 83
2, 227977, Control_c, 0, 64, 82
2, 227992, Control_c, 0, 64, 79
2, 228016, Control_c, 0, 64, 69
2, 228031, Control_c, 0, 64, 0
2, 228065, Note_on_c, 0, 75, 91
2, 228068, Note_on_c, 0, 72, 83
2, 228070, Note_on_c, 0, 45, 97
2, 228122, Control_c, 0, 64, 50
2, 228133, Note_on_c, 0, 45, 0
2, 228137, Control_c, 0, 64, 68
2, 228152, Control_c, 0, 64, 75
2, 228167, Control_c, 0, 64, 80
2, 228182, Control_c, 0, 64, 81
2, 228197, Control_c, 0, 64, 82
2, 228213, Control_c, 0, 64, 82
2, 228228, Control_c, 0, 64, 83
2, 228273, Control_c, 0, 64, 82
2, 228289, Control_c, 0, 64, 80
2, 228305, Control_c, 0, 64, 71
2, 228306, Note_on_c, 0, 75, 0
2, 228320, Note_on_c, 0, 51, 75
2, 228321, Control_c, 0, 64, 41
2, 228321, Note_on_c, 0, 81, 94
2, 228324, Note_on_c, 0, 54, 80
2, 228336, Control_c, 0, 64, 0
2, 228355, Note_on_c, 0, 72, 0
2, 228413, Control_c, 0, 64, 56
2, 228428, Control_c, 0, 64, 66
2, 228444, Control_c, 0, 64, 70
2, 228459, Control_c, 0, 64, 74
2, 228474, Control_c, 0, 64, 76
2, 228482, Note_on_c, 0, 54, 0
2, 228489, Control_c, 0, 64, 76
2, 228510, Note_on_c, 0, 51, 0
2, 228520, Control_c, 0, 64, 76
2, 228534, Note_on_c, 0, 81, 0
2, 228535, Control_c, 0, 64, 73
2, 228550, Control_c, 0, 64, 64
2, 228566, Control_c, 0, 64, 0
2, 228589, Note_on_c, 0, 82, 96
2, 228592, Note_on_c, 0, 49, 78
2, 228594, Note_on_c, 0, 53, 76
2, 228657, Control_c, 0, 64, 35
2, 228672, Control_c, 0, 64, 66
2, 228687, Control_c, 0, 64, 73
2, 228702, Control_c, 0, 64, 79
2, 228713, Note_on_c, 0, 53, 0
2, 228718, Control_c, 0, 64, 83
2, 228732, Control_c, 0, 64, 84
2, 228801, Control_c, 0, 64, 82
2, 228803, Note_on_c, 0, 82, 0
2, 228816, Control_c, 0, 64, 73
2, 228832, Control_c, 0, 64, 46
2, 228847, Control_c, 0, 64, 0
2, 228853, Note_on_c, 0, 49, 0
2, 228859, Note_on_c, 0, 76, 86
2, 228861, Note_on_c, 0, 70, 90
2, 228870, Note_on_c, 0, 55, 75
2, 228903, Note_on_c, 0, 76, 0
2, 228907, Control_c, 0, 64, 63
2, 228923, Control_c, 0, 64, 70
2, 228937, Control_c, 0, 64, 74
2, 228938, Note_on_c, 0, 70, 0
2, 228953, Control_c, 0, 64, 78
2, 228968, Control_c, 0, 64, 79
2, 228983, Control_c, 0, 64, 80
2, 228999, Control_c, 0, 64, 81
2, 229013, Control_c, 0, 64, 82
2, 229028, Control_c, 0, 64, 82
2, 229055, Note_on_c, 0, 55, 0
2, 229075, Control_c, 0, 64, 82
2, 229089, Control_c, 0, 64, 76
2, 229103, Note_on_c, 0, 78, 82
2, 229104, Control_c, 0, 64, 48
2, 229114, Note_on_c, 0, 56, 76
2, 229120, Control_c, 0, 64, 0
2, 229125, Note_on_c, 0, 68, 67
2, 229149, Note_on_c, 0, 77, 72
2, 229168, Note_on_c, 0, 78, 0
2, 229204, Note_on_c, 0, 68, 0
2, 229241, Note_on_c, 0, 58, 71
2, 229241, Note_on_c, 0, 72, 78
2, 229245, Note_on_c, 0, 56, 0
2, 229338, Note_on_c, 0, 58, 0
2, 229361, Note_on_c, 0, 70, 87
2, 229364, Note_on_c, 0, 48, 78
2, 229364, Note_on_c, 0, 60, 74
2, 229388, Note_on_c, 0, 77, 0
2, 229406, Note_on_c, 0, 60, 0
2, 229409, Control_c, 0, 64, 64
2, 229424, Control_c, 0, 64, 81
2, 229432, Note_on_c, 0, 72, 0
2, 229436, Note_on_c, 0, 48, 0
2, 229439, Control_c, 0, 64, 86
2, 229454, Control_c, 0, 64, 87
2, 229485, Control_c, 0, 64, 87
2, 229486, Note_on_c, 0, 68, 83
2, 229500, Control_c, 0, 64, 88
2, 229515, Control_c, 0, 64, 89
2, 229530, Control_c, 0, 64, 90
2, 229553, Control_c, 0, 64, 91
2, 229565, Note_on_c, 0, 68, 0
2, 229599, Control_c, 0, 64, 90
2, 229604, Note_on_c, 0, 70, 0
2, 229614, Control_c, 0, 64, 86
2, 229621, Note_on_c, 0, 46, 79
2, 229624, Note_on_c, 0, 76, 85
2, 229628, Note_on_c, 0, 67, 78
2, 229629, Control_c, 0, 64, 76
2, 229645, Control_c, 0, 64, 48
2, 229659, Control_c, 0, 64, 0
2, 229752, Note_on_c, 0, 49, 72
2, 229759, Note_on_c, 0, 70, 82
2, 229771, Note_on_c, 0, 67, 0
2, 229781, Note_on_c, 0, 46, 0
2, 229866, Note_on_c, 0, 76, 0
2, 229867, Note_on_c, 0, 49, 0
2, 229882, Note_on_c, 0, 48, 76
2, 229889, Note_on_c, 0, 68, 85
2, 229919, Control_c, 0, 64, 66
2, 229929, Note_on_c, 0, 70, 0
2, 229935, Control_c, 0, 64, 71
2, 229950, Control_c, 0, 64, 74
2, 229965, Control_c, 0, 64, 75
2, 229980, Control_c, 0, 64, 78
2, 229996, Control_c, 0, 64, 80
2, 230003, Note_on_c, 0, 48, 0
2, 230004, Note_on_c, 0, 46, 74
2, 230011, Control_c, 0, 64, 83
2, 230012, Note_on_c, 0, 67, 79
2, 230026, Control_c, 0, 64, 84
2, 230029, Note_on_c, 0, 68, 0
2, 230042, Control_c, 0, 64, 85
2, 230069, Note_on_c, 0, 67, 0
2, 230102, Control_c, 0, 64, 84
2, 230118, Control_c, 0, 64, 80
2, 230125, Note_on_c, 0, 46, 0
2, 230133, Control_c, 0, 64, 69
2, 230136, Note_on_c, 0, 44, 74
2, 230144, Note_on_c, 0, 77, 86
2, 230146, Note_on_c, 0, 65, 82
2, 230148, Control_c, 0, 64, 0
2, 230246, Note_on_c, 0, 65, 0
2, 230269, Note_on_c, 0, 48, 69
2, 230272, Note_on_c, 0, 44, 0
2, 230277, Note_on_c, 0, 68, 78
2, 230383, Note_on_c, 0, 77, 0
2, 230397, Note_on_c, 0, 46, 75
2, 230398, Note_on_c, 0, 48, 0
2, 230403, Note_on_c, 0, 67, 82
2, 230409, Note_on_c, 0, 68, 0
2, 230475, Control_c, 0, 64, 49
2, 230490, Control_c, 0, 64, 64
2, 230504, Control_c, 0, 64, 67
2, 230518, Note_on_c, 0, 44, 70
2, 230519, Note_on_c, 0, 46, 0
2, 230519, Note_on_c, 0, 65, 77
2, 230520, Control_c, 0, 64, 70
2, 230535, Control_c, 0, 64, 72
2, 230549, Control_c, 0, 64, 74
2, 230556, Note_on_c, 0, 67, 0
2, 230565, Control_c, 0, 64, 75
2, 230596, Control_c, 0, 64, 73
2, 230611, Control_c, 0, 64, 67
2, 230621, Note_on_c, 0, 44, 0
2, 230626, Control_c, 0, 64, 0
2, 230626, Note_on_c, 0, 65, 0
2, 230649, Note_on_c, 0, 70, 82
2, 230650, Note_on_c, 0, 43, 68
2, 230652, Note_on_c, 0, 64, 78
2, 230733, Control_c, 0, 64, 42
2, 230748, Control_c, 0, 64, 67
2, 230760, Note_on_c, 0, 43, 0
2, 230764, Control_c, 0, 64, 72
2, 230770, Note_on_c, 0, 46, 79
2, 230777, Note_on_c, 0, 67, 79
2, 230779, Control_c, 0, 64, 76
2, 230790, Note_on_c, 0, 64, 0
2, 230795, Control_c, 0, 64, 78
2, 230810, Control_c, 0, 64, 78
2, 230826, Note_on_c, 0, 70, 0
2, 230840, Control_c, 0, 64, 78
2, 230855, Control_c, 0, 64, 73
2, 230870, Control_c, 0, 64, 63
2, 230884, Control_c, 0, 64, 0
2, 230900, Note_on_c, 0, 44, 70
2, 230901, Note_on_c, 0, 72, 77
2, 230907, Note_on_c, 0, 65, 70
2, 230908, Note_on_c, 0, 60, 70
2, 230912, Note_on_c, 0, 46, 0
2, 230914, Note_on_c, 0, 67, 0
2, 230975, Control_c, 0, 64, 62
2, 230990, Control_c, 0, 64, 70
2, 231005, Control_c, 0, 64, 77
2, 231015, Note_on_c, 0, 44, 0
2, 231018, Note_on_c, 0, 70, 78
2, 231020, Control_c, 0, 64, 81
2, 231025, Note_on_c, 0, 43, 64
2, 231035, Control_c, 0, 64, 83
2, 231049, Note_on_c, 0, 60, 0
2, 231051, Control_c, 0, 64, 84
2, 231054, Note_on_c, 0, 72, 0
2, 231065, Control_c, 0, 64, 85
2, 231090, Note_on_c, 0, 65, 0
2, 231116, Note_on_c, 0, 43, 0
2, 231120, Control_c, 0, 64, 83
2, 231135, Control_c, 0, 64, 75
2, 231147, Note_on_c, 0, 41, 68
2, 231149, Control_c, 0, 64, 59
2, 231149, Note_on_c, 0, 70, 0
2, 231157, Note_on_c, 0, 68, 77
2, 231165, Control_c, 0, 64, 0
2, 231165, Note_on_c, 0, 61, 74
2, 231241, Control_c, 0, 64, 67
2, 231250, Note_on_c, 0, 61, 0
2, 231256, Control_c, 0, 64, 76
2, 231263, Note_on_c, 0, 41, 0
2, 231269, Note_on_c, 0, 44, 70
2, 231270, Control_c, 0, 64, 85
2, 231286, Control_c, 0, 64, 89
2, 231297, Note_on_c, 0, 68, 0
2, 231301, Control_c, 0, 64, 89
2, 231316, Control_c, 0, 64, 90
2, 231346, Control_c, 0, 64, 87
2, 231357, Note_on_c, 0, 44, 0
2, 231362, Control_c, 0, 64, 77
2, 231377, Control_c, 0, 64, 59
2, 231391, Control_c, 0, 64, 0
2, 231404, Note_on_c, 0, 43, 79
2, 231404, Note_on_c, 0, 64, 87
2, 231417, Note_on_c, 0, 58, 74
2, 231483, Control_c, 0, 64, 30
2, 231498, Control_c, 0, 64, 70
2, 231513, Control_c, 0, 64, 78
2, 231517, Note_on_c, 0, 70, 58
2, 231529, Control_c, 0, 64, 87
2, 231537, Note_on_c, 0, 68, 76
2, 231544, Control_c, 0, 64, 90
2, 231553, Note_on_c, 0, 64, 0
2, 231560, Control_c, 0, 64, 92
2, 231574, Note_on_c, 0, 70, 0
2, 231575, Control_c, 0, 64, 93
2, 231578, Note_on_c, 0, 58, 0
2, 231590, Control_c, 0, 64, 93
2, 231621, Control_c, 0, 64, 92
2, 231622, Note_on_c, 0, 43, 0
2, 231627, Note_on_c, 0, 68, 0
2, 231635, Control_c, 0, 64, 86
2, 231651, Control_c, 0, 64, 74
2, 231660, Note_on_c, 0, 67, 53
2, 231665, Note_on_c, 0, 52, 78
2, 231666, Control_c, 0, 64, 34
2, 231672, Note_on_c, 0, 70, 87
2, 231682, Control_c, 0, 64, 0
2, 231759, Control_c, 0, 64, 60
2, 231773, Control_c, 0, 64, 70
2, 231788, Control_c, 0, 64, 79
2, 231804, Control_c, 0, 64, 85
2, 231807, Note_on_c, 0, 52, 0
2, 231819, Control_c, 0, 64, 87
2, 231833, Control_c, 0, 64, 88
2, 231856, Control_c, 0, 64, 88
2, 231862, Note_on_c, 0, 67, 0
2, 231893, Note_on_c, 0, 70, 0
2, 231902, Control_c, 0, 64, 86
2, 231917, Control_c, 0, 64, 79
2, 231930, Note_on_c, 0, 68, 76
2, 231933, Control_c, 0, 64, 65
2, 231936, Note_on_c, 0, 53, 73
2, 231937, Note_on_c, 0, 41, 80
2, 231948, Control_c, 0, 64, 0
2, 232039, Control_c, 0, 64, 62
2, 232054, Control_c, 0, 64, 68
2, 232055, Note_on_c, 0, 68, 0
2, 232060, Note_on_c, 0, 67, 71
2, 232069, Control_c, 0, 64, 72
2, 232085, Control_c, 0, 64, 75
2, 232100, Control_c, 0, 64, 79
2, 232114, Control_c, 0, 64, 80
2, 232134, Note_on_c, 0, 41, 0
2, 232176, Control_c, 0, 64, 77
2, 232190, Control_c, 0, 64, 68
2, 232206, Control_c, 0, 64, 0
2, 232208, Note_on_c, 0, 67, 0
2, 232216, Note_on_c, 0, 48, 72
2, 232217, Note_on_c, 0, 68, 68
2, 232311, Control_c, 0, 64, 62
2, 232327, Control_c, 0, 64, 69
2, 232334, Note_on_c, 0, 68, 0
2, 232338, Note_on_c, 0, 65, 74
2, 232342, Control_c, 0, 64, 74
2, 232357, Control_c, 0, 64, 78
2, 232360, Note_on_c, 0, 53, 0
2, 232373, Control_c, 0, 64, 80
2, 232375, Note_on_c, 0, 48, 0
2, 232419, Control_c, 0, 64, 79
2, 232434, Control_c, 0, 64, 76
2, 232443, Note_on_c, 0, 65, 0
2, 232450, Control_c, 0, 64, 68
2, 232464, Control_c, 0, 64, 21
2, 232467, Note_on_c, 0, 53, 70
2, 232475, Note_on_c, 0, 46, 65
2, 232477, Note_on_c, 0, 67, 69
2, 232480, Control_c, 0, 64, 0
2, 232572, Control_c, 0, 64, 60
2, 232572, Note_on_c, 0, 46, 0
2, 232587, Control_c, 0, 64, 68
2, 232593, Note_on_c, 0, 44, 65
2, 232593, Note_on_c, 0, 53, 0
2, 232602, Control_c, 0, 64, 72
2, 232624, Control_c, 0, 64, 75
2, 232640, Control_c, 0, 64, 76
2, 232655, Control_c, 0, 64, 77
2, 232715, Control_c, 0, 64, 76
2, 232716, Note_on_c, 0, 44, 0
2, 232731, Control_c, 0, 64, 70
2, 232746, Control_c, 0, 64, 21
2, 232755, Note_on_c, 0, 46, 67
2, 232757, Note_on_c, 0, 52, 63
2, 232757, Note_on_c, 0, 67, 0
2, 232757, Note_on_c, 0, 73, 69
2, 232761, Control_c, 0, 64, 0
2, 233031, Note_on_c, 0, 43, 59
2, 233039, Note_on_c, 0, 72, 67
2, 233046, Note_on_c, 0, 73, 0
2, 233048, Note_on_c, 0, 67, 52
2, 233166, Note_on_c, 0, 43, 0
2, 233171, Note_on_c, 0, 70, 62
2, 233177, Note_on_c, 0, 72, 0
2, 233290, Note_on_c, 0, 46, 0
2, 233300, Note_on_c, 0, 70, 0
2, 233314, Note_on_c, 0, 72, 68
2, 233320, Note_on_c, 0, 44, 58
2, 233393, Control_c, 0, 64, 70
2, 233409, Control_c, 0, 64, 72
2, 233439, Control_c, 0, 64, 71
2, 233503, Note_on_c, 0, 52, 0
2, 233530, Control_c, 0, 64, 70
2, 233545, Control_c, 0, 64, 68
2, 233561, Control_c, 0, 64, 64
2, 233576, Control_c, 0, 64, 58
2, 233581, Note_on_c, 0, 67, 0
2, 233591, Control_c, 0, 64, 52
2, 233599, Note_on_c, 0, 65, 53
2, 233606, Control_c, 0, 64, 46
2, 233611, Note_on_c, 0, 50, 46
2, 233621, Control_c, 0, 64, 42
2, 233636, Control_c, 0, 64, 31
2, 233651, Control_c, 0, 64, 0
2, 233693, Note_on_c, 0, 50, 0
2, 233709, Note_on_c, 0, 65, 0
2, 233712, Control_c, 0, 64, 16
2, 233721, Note_on_c, 0, 48, 53
2, 233722, Note_on_c, 0, 64, 53
2, 233727, Control_c, 0, 64, 0
2, 233841, Note_on_c, 0, 48, 0
2, 233850, Note_on_c, 0, 68, 62
2, 233855, Note_on_c, 0, 64, 0
2, 233857, Note_on_c, 0, 53, 55
2, 233939, Control_c, 0, 64, 39
2, 233945, Note_on_c, 0, 72, 0
2, 233954, Control_c, 0, 64, 67
2, 233970, Control_c, 0, 64, 71
2, 233985, Control_c, 0, 64, 73
2, 234000, Control_c, 0, 64, 74
2, 234006, Note_on_c, 0, 44, 0
2, 234015, Control_c, 0, 64, 75
2, 234031, Control_c, 0, 64, 76
2, 234047, Control_c, 0, 64, 76
2, 234122, Note_on_c, 0, 70, 70
2, 234128, Note_on_c, 0, 43, 63
2, 234160, Note_on_c, 0, 68, 0
2, 234207, Control_c, 0, 64, 77
2, 234234, Note_on_c, 0, 43, 0
2, 234236, Control_c, 0, 64, 78
2, 234252, Control_c, 0, 64, 79
2, 234259, Note_on_c, 0, 41, 51
2, 234266, Note_on_c, 0, 68, 76
2, 234267, Control_c, 0, 64, 81
2, 234293, Note_on_c, 0, 70, 0
2, 234297, Control_c, 0, 64, 81
2, 234312, Control_c, 0, 64, 82
2, 234356, Note_on_c, 0, 41, 0
2, 234373, Control_c, 0, 64, 80
2, 234388, Control_c, 0, 64, 77
2, 234391, Note_on_c, 0, 46, 70
2, 234397, Note_on_c, 0, 73, 86
2, 234404, Control_c, 0, 64, 71
2, 234419, Control_c, 0, 64, 65
2, 234433, Control_c, 0, 64, 55
2, 234449, Control_c, 0, 64, 54
2, 234464, Control_c, 0, 64, 56
2, 234480, Control_c, 0, 64, 56
2, 234510, Control_c, 0, 64, 57
2, 234525, Control_c, 0, 64, 59
2, 234540, Control_c, 0, 64, 61
2, 234555, Control_c, 0, 64, 62
2, 234571, Control_c, 0, 64, 62
2, 234586, Control_c, 0, 64, 63
2, 234647, Control_c, 0, 64, 62
2, 234667, Note_on_c, 0, 51, 58
2, 234670, Note_on_c, 0, 67, 59
2, 234675, Note_on_c, 0, 68, 0
2, 234692, Control_c, 0, 64, 62
2, 234697, Note_on_c, 0, 53, 0
2, 234783, Note_on_c, 0, 51, 0
2, 234791, Note_on_c, 0, 67, 0
2, 234799, Control_c, 0, 64, 61
2, 234801, Note_on_c, 0, 49, 60
2, 234802, Note_on_c, 0, 65, 67
2, 234814, Control_c, 0, 64, 61
2, 234829, Control_c, 0, 64, 59
2, 234846, Control_c, 0, 64, 56
2, 234861, Control_c, 0, 64, 52
2, 234875, Control_c, 0, 64, 45
2, 234891, Control_c, 0, 64, 18
2, 234906, Control_c, 0, 64, 0
2, 234935, Note_on_c, 0, 70, 79
2, 234940, Note_on_c, 0, 55, 72
2, 234977, Note_on_c, 0, 65, 0
2, 234984, Note_on_c, 0, 73, 0
2, 234994, Note_on_c, 0, 49, 0
2, 235035, Control_c, 0, 64, 63
2, 235051, Control_c, 0, 64, 71
2, 235054, Note_on_c, 0, 46, 0
2, 235066, Control_c, 0, 64, 77
2, 235081, Control_c, 0, 64, 80
2, 235096, Control_c, 0, 64, 81
2, 235181, Note_on_c, 0, 44, 67
2, 235187, Note_on_c, 0, 72, 83
2, 235221, Note_on_c, 0, 70, 0
2, 235287, Note_on_c, 0, 44, 0
2, 235312, Note_on_c, 0, 70, 81
2, 235313, Note_on_c, 0, 43, 74
2, 235322, Note_on_c, 0, 72, 0
2, 235412, Control_c, 0, 64, 80
2, 235427, Control_c, 0, 64, 75
2, 235434, Note_on_c, 0, 43, 0
2, 235442, Control_c, 0, 64, 67
2, 235451, Note_on_c, 0, 48, 82
2, 235453, Note_on_c, 0, 75, 93
2, 235457, Control_c, 0, 64, 38
2, 235472, Control_c, 0, 64, 0
2, 235548, Control_c, 0, 64, 19
2, 235563, Control_c, 0, 64, 34
2, 235579, Control_c, 0, 64, 44
2, 235594, Control_c, 0, 64, 53
2, 235609, Control_c, 0, 64, 57
2, 235624, Control_c, 0, 64, 58
2, 235655, Control_c, 0, 64, 57
2, 235664, Note_on_c, 0, 55, 0
2, 235671, Control_c, 0, 64, 56
2, 235694, Control_c, 0, 64, 56
2, 235709, Control_c, 0, 64, 55
2, 235728, Note_on_c, 0, 68, 69
2, 235729, Note_on_c, 0, 53, 69
2, 235744, Note_on_c, 0, 70, 0
2, 235755, Control_c, 0, 64, 56
2, 235785, Control_c, 0, 64, 56
2, 235800, Control_c, 0, 64, 57
2, 235816, Control_c, 0, 64, 58
2, 235831, Control_c, 0, 64, 59
2, 235846, Control_c, 0, 64, 59
2, 235850, Note_on_c, 0, 67, 73
2, 235857, Note_on_c, 0, 68, 0
2, 235867, Note_on_c, 0, 51, 62
2, 235871, Note_on_c, 0, 53, 0
2, 235876, Control_c, 0, 64, 59
2, 235892, Control_c, 0, 64, 57
2, 235906, Control_c, 0, 64, 54
2, 235921, Control_c, 0, 64, 43
2, 235937, Control_c, 0, 64, 0
2, 235977, Note_on_c, 0, 51, 0
2, 235986, Note_on_c, 0, 72, 80
2, 235988, Note_on_c, 0, 56, 81
2, 236002, Note_on_c, 0, 75, 0
2, 236061, Note_on_c, 0, 67, 0
2, 236073, Control_c, 0, 64, 49
2, 236089, Control_c, 0, 64, 68
2, 236103, Control_c, 0, 64, 75
2, 236105, Note_on_c, 0, 48, 0
2, 236118, Control_c, 0, 64, 83
2, 236134, Control_c, 0, 64, 86
2, 236149, Control_c, 0, 64, 87
2, 236162, Control_c, 0, 64, 87
2, 236236, Note_on_c, 0, 46, 79
2, 236239, Note_on_c, 0, 73, 83
2, 236284, Note_on_c, 0, 72, 0
2, 236321, Note_on_c, 0, 46, 0
2, 236352, Note_on_c, 0, 44, 76
2, 236360, Note_on_c, 0, 72, 84
2, 236368, Note_on_c, 0, 73, 0
2, 236463, Note_on_c, 0, 44, 0
2, 236473, Control_c, 0, 64, 84
2, 236489, Control_c, 0, 64, 75
2, 236502, Note_on_c, 0, 49, 85
2, 236505, Control_c, 0, 64, 35
2, 236505, Note_on_c, 0, 77, 99
2, 236520, Control_c, 0, 64, 0
2, 236596, Control_c, 0, 64, 51
2, 236609, Note_on_c, 0, 72, 0
2, 236610, Control_c, 0, 64, 65
2, 236626, Control_c, 0, 64, 69
2, 236641, Control_c, 0, 64, 73
2, 236657, Control_c, 0, 64, 77
2, 236672, Control_c, 0, 64, 80
2, 236686, Control_c, 0, 64, 81
2, 236690, Note_on_c, 0, 56, 0
2, 236758, Note_on_c, 0, 70, 79
2, 236761, Note_on_c, 0, 77, 0
2, 236762, Control_c, 0, 64, 75
2, 236763, Note_on_c, 0, 55, 67
2, 236778, Control_c, 0, 64, 52
2, 236794, Control_c, 0, 64, 0
2, 236860, Note_on_c, 0, 55, 0
2, 236871, Note_on_c, 0, 53, 64
2, 236873, Note_on_c, 0, 68, 73
2, 236886, Note_on_c, 0, 70, 0
2, 236974, Note_on_c, 0, 68, 0
2, 237006, Note_on_c, 0, 75, 105
2, 237010, Note_on_c, 0, 53, 0
2, 237011, Note_on_c, 0, 58, 74
2, 237022, Note_on_c, 0, 67, 84
2, 237084, Control_c, 0, 64, 71
2, 237100, Control_c, 0, 64, 74
2, 237115, Control_c, 0, 64, 77
2, 237131, Control_c, 0, 64, 78
2, 237145, Control_c, 0, 64, 81
2, 237160, Control_c, 0, 64, 84
2, 237176, Control_c, 0, 64, 86
2, 237183, Note_on_c, 0, 58, 0
2, 237191, Control_c, 0, 64, 86
2, 237207, Control_c, 0, 64, 86
2, 237227, Note_on_c, 0, 49, 0
2, 237229, Control_c, 0, 64, 83
2, 237243, Control_c, 0, 64, 74
2, 237258, Note_on_c, 0, 67, 0
2, 237259, Control_c, 0, 64, 59
2, 237274, Control_c, 0, 64, 0
2, 237293, Note_on_c, 0, 60, 77
2, 237306, Note_on_c, 0, 68, 71
2, 237309, Note_on_c, 0, 48, 56
2, 237312, Note_on_c, 0, 75, 0
2, 237321, Control_c, 0, 64, 51
2, 237336, Control_c, 0, 64, 67
2, 237351, Control_c, 0, 64, 74
2, 237367, Control_c, 0, 64, 79
2, 237382, Control_c, 0, 64, 82
2, 237384, Note_on_c, 0, 60, 0
2, 237396, Control_c, 0, 64, 83
2, 237412, Control_c, 0, 64, 85
2, 237424, Note_on_c, 0, 48, 0
2, 237427, Control_c, 0, 64, 86
2, 237445, Control_c, 0, 64, 88
2, 237460, Control_c, 0, 64, 89
2, 237475, Control_c, 0, 64, 90
2, 237491, Control_c, 0, 64, 91
2, 237519, Note_on_c, 0, 68, 0
2, 237522, Control_c, 0, 64, 89
2, 237536, Control_c, 0, 64, 80
2, 237543, Note_on_c, 0, 73, 93
2, 237546, Note_on_c, 0, 55, 91
2, 237547, Note_on_c, 0, 70, 84
2, 237551, Control_c, 0, 64, 52
2, 237555, Note_on_c, 0, 46, 87
2, 237567, Control_c, 0, 64, 0
2, 237593, Note_on_c, 0, 46, 0
2, 237779, Note_on_c, 0, 55, 0
2, 237818, Note_on_c, 0, 51, 77
2, 237830, Note_on_c, 0, 58, 58
2, 237855, Control_c, 0, 64, 61
2, 237870, Control_c, 0, 64, 76
2, 237885, Control_c, 0, 64, 79
2, 237897, Note_on_c, 0, 58, 0
2, 237900, Control_c, 0, 64, 79
2, 237931, Control_c, 0, 64, 80
2, 237946, Control_c, 0, 64, 81
2, 237959, Note_on_c, 0, 70, 0
2, 237962, Control_c, 0, 64, 82
2, 237977, Control_c, 0, 64, 83
2, 237999, Control_c, 0, 64, 84
2, 238052, Note_on_c, 0, 73, 0
2, 238058, Note_on_c, 0, 51, 0
2, 238060, Control_c, 0, 64, 81
2, 238074, Control_c, 0, 64, 67
2, 238084, Note_on_c, 0, 56, 95
2, 238090, Control_c, 0, 64, 0
2, 238090, Note_on_c, 0, 60, 69
2, 238240, Note_on_c, 0, 60, 0
2, 238338, Note_on_c, 0, 72, 93
2, 238348, Note_on_c, 0, 50, 72
2, 238352, Note_on_c, 0, 68, 78
2, 238411, Control_c, 0, 64, 56
2, 238426, Control_c, 0, 64, 64
2, 238471, Control_c, 0, 64, 65
2, 238502, Control_c, 0, 64, 62
2, 238516, Control_c, 0, 64, 38
2, 238524, Note_on_c, 0, 68, 0
2, 238532, Control_c, 0, 64, 0
2, 238548, Note_on_c, 0, 56, 0
2, 238559, Note_on_c, 0, 72, 0
2, 238591, Note_on_c, 0, 50, 0
2, 238593, Note_on_c, 0, 70, 93
2, 238600, Note_on_c, 0, 51, 81
2, 238637, Control_c, 0, 64, 65
2, 238653, Control_c, 0, 64, 73
2, 238668, Control_c, 0, 64, 82
2, 238684, Control_c, 0, 64, 86
2, 238687, Note_on_c, 0, 70, 0
2, 238699, Control_c, 0, 64, 87
2, 238713, Control_c, 0, 64, 88
2, 238729, Control_c, 0, 64, 89
2, 238781, Note_on_c, 0, 51, 0
2, 238797, Control_c, 0, 64, 87
2, 238813, Control_c, 0, 64, 80
2, 238828, Control_c, 0, 64, 67
2, 238843, Control_c, 0, 64, 0
2, 238854, Note_on_c, 0, 77, 92
2, 238856, Note_on_c, 0, 58, 87
2, 238863, Note_on_c, 0, 67, 77
2, 238865, Note_on_c, 0, 49, 75
2, 238904, Control_c, 0, 64, 54
2, 238919, Control_c, 0, 64, 68
2, 238934, Control_c, 0, 64, 76
2, 238943, Note_on_c, 0, 58, 0
2, 238950, Control_c, 0, 64, 83
2, 238966, Control_c, 0, 64, 85
2, 238981, Control_c, 0, 64, 86
2, 238982, Note_on_c, 0, 67, 0
2, 239011, Control_c, 0, 64, 86
2, 239032, Note_on_c, 0, 49, 0
2, 239042, Control_c, 0, 64, 86
2, 239053, Note_on_c, 0, 77, 0
2, 239057, Control_c, 0, 64, 84
2, 239071, Control_c, 0, 64, 76
2, 239087, Control_c, 0, 64, 60
2, 239094, Note_on_c, 0, 60, 85
2, 239098, Note_on_c, 0, 75, 88
2, 239102, Control_c, 0, 64, 0
2, 239106, Note_on_c, 0, 68, 80
2, 239112, Note_on_c, 0, 48, 74
2, 239160, Note_on_c, 0, 60, 0
2, 239163, Control_c, 0, 64, 63
2, 239178, Control_c, 0, 64, 70
2, 239193, Control_c, 0, 64, 76
2, 239207, Note_on_c, 0, 48, 0
2, 239209, Control_c, 0, 64, 81
2, 239224, Control_c, 0, 64, 82
2, 239224, Note_on_c, 0, 51, 78
2, 239240, Control_c, 0, 64, 83
2, 239285, Control_c, 0, 64, 81
2, 239295, Note_on_c, 0, 68, 0
2, 239300, Control_c, 0, 64, 72
2, 239307, Note_on_c, 0, 51, 0
2, 239315, Control_c, 0, 64, 50
2, 239331, Control_c, 0, 64, 0
2, 239351, Note_on_c, 0, 49, 75
2, 239355, Note_on_c, 0, 53, 77
2, 239406, Control_c, 0, 64, 63
2, 239421, Control_c, 0, 64, 70
2, 239436, Control_c, 0, 64, 77
2, 239448, Note_on_c, 0, 49, 0
2, 239452, Control_c, 0, 64, 84
2, 239467, Control_c, 0, 64, 85
2, 239472, Note_on_c, 0, 53, 0
2, 239473, Note_on_c, 0, 48, 78
2, 239482, Control_c, 0, 64, 85
2, 239551, Control_c, 0, 64, 83
2, 239552, Note_on_c, 0, 48, 0
2, 239566, Control_c, 0, 64, 76
2, 239581, Control_c, 0, 64, 63
2, 239596, Control_c, 0, 64, 0
2, 239610, Note_on_c, 0, 55, 74
2, 239615, Note_on_c, 0, 70, 77
2, 239616, Note_on_c, 0, 46, 74
2, 239687, Control_c, 0, 64, 63
2, 239702, Control_c, 0, 64, 70
2, 239710, Note_on_c, 0, 75, 0
2, 239717, Control_c, 0, 64, 76
2, 239732, Note_on_c, 0, 49, 76
2, 239733, Control_c, 0, 64, 81
2, 239735, Note_on_c, 0, 46, 0
2, 239743, Note_on_c, 0, 55, 0
2, 239747, Control_c, 0, 64, 84
2, 239810, Control_c, 0, 64, 81
2, 239825, Control_c, 0, 64, 71
2, 239840, Control_c, 0, 64, 0
2, 239847, Note_on_c, 0, 49, 0
2, 239860, Note_on_c, 0, 48, 75
2, 239866, Note_on_c, 0, 73, 88
2, 239882, Note_on_c, 0, 70, 0
2, 239931, Control_c, 0, 64, 58
2, 239946, Control_c, 0, 64, 70
2, 239957, Note_on_c, 0, 48, 0
2, 239962, Control_c, 0, 64, 76
2, 239975, Note_on_c, 0, 46, 69
2, 239977, Control_c, 0, 64, 80
2, 239991, Control_c, 0, 64, 81
2, 240007, Control_c, 0, 64, 81
2, 240036, Note_on_c, 0, 46, 0
2, 240037, Control_c, 0, 64, 81
2, 240048, Note_on_c, 0, 73, 0
2, 240053, Control_c, 0, 64, 79
2, 240068, Control_c, 0, 64, 71
2, 240084, Control_c, 0, 64, 40
2, 240099, Control_c, 0, 64, 0
2, 240105, Note_on_c, 0, 44, 74
2, 240106, Note_on_c, 0, 72, 82
2, 240114, Note_on_c, 0, 63, 70
2, 240175, Control_c, 0, 64, 59
2, 240190, Control_c, 0, 64, 68
2, 240206, Control_c, 0, 64, 74
2, 240221, Control_c, 0, 64, 79
2, 240233, Note_on_c, 0, 75, 84
2, 240236, Control_c, 0, 64, 80
2, 240251, Control_c, 0, 64, 81
2, 240279, Note_on_c, 0, 63, 0
2, 240298, Note_on_c, 0, 44, 0
2, 240299, Note_on_c, 0, 72, 0
2, 240304, Control_c, 0, 64, 80
2, 240320, Control_c, 0, 64, 75
2, 240334, Control_c, 0, 64, 58
2, 240349, Control_c, 0, 64, 0
2, 240368, Note_on_c, 0, 56, 83
2, 240368, Note_on_c, 0, 73, 78
2, 240372, Note_on_c, 0, 68, 77
2, 240401, Note_on_c, 0, 75, 0
2, 240426, Control_c, 0, 64, 59
2, 240441, Control_c, 0, 64, 70
2, 240456, Control_c, 0, 64, 77
2, 240467, Note_on_c, 0, 56, 0
2, 240471, Control_c, 0, 64, 82
2, 240482, Note_on_c, 0, 73, 0
2, 240487, Control_c, 0, 64, 83
2, 240488, Note_on_c, 0, 72, 84
2, 240527, Note_on_c, 0, 68, 0
2, 240547, Control_c, 0, 64, 83
2, 240563, Control_c, 0, 64, 78
2, 240578, Control_c, 0, 64, 67
2, 240594, Control_c, 0, 64, 0
2, 240594, Note_on_c, 0, 72, 0
2, 240615, Note_on_c, 0, 70, 84
2, 240623, Note_on_c, 0, 58, 74
2, 240624, Note_on_c, 0, 67, 69
2, 240700, Control_c, 0, 64, 60
2, 240715, Control_c, 0, 64, 67
2, 240731, Control_c, 0, 64, 71
2, 240738, Note_on_c, 0, 73, 83
2, 240742, Note_on_c, 0, 58, 0
2, 240744, Note_on_c, 0, 55, 69
2, 240746, Control_c, 0, 64, 75
2, 240761, Control_c, 0, 64, 77
2, 240776, Control_c, 0, 64, 78
2, 240786, Note_on_c, 0, 67, 0
2, 240786, Note_on_c, 0, 70, 0
2, 240807, Control_c, 0, 64, 77
2, 240821, Control_c, 0, 64, 70
2, 240832, Note_on_c, 0, 73, 0
2, 240836, Control_c, 0, 64, 31
2, 240852, Control_c, 0, 64, 0
2, 240857, Note_on_c, 0, 72, 77
2, 240862, Note_on_c, 0, 66, 76
2, 240863, Note_on_c, 0, 56, 74
2, 240876, Note_on_c, 0, 55, 0
2, 240928, Control_c, 0, 64, 57
2, 240943, Control_c, 0, 64, 69
2, 240957, Control_c, 0, 64, 75
2, 240973, Control_c, 0, 64, 80
2, 240979, Note_on_c, 0, 70, 87
2, 240983, Note_on_c, 0, 58, 79
2, 240986, Note_on_c, 0, 66, 0
2, 240988, Control_c, 0, 64, 82
2, 241004, Control_c, 0, 64, 83
2, 241013, Note_on_c, 0, 72, 0
2, 241019, Control_c, 0, 64, 84
2, 241022, Note_on_c, 0, 56, 0
2, 241034, Control_c, 0, 64, 85
2, 241047, Note_on_c, 0, 58, 0
2, 241050, Control_c, 0, 64, 85
2, 241072, Control_c, 0, 64, 85
2, 241088, Control_c, 0, 64, 82
2, 241102, Control_c, 0, 64, 73
2, 241117, Control_c, 0, 64, 36
2, 241119, Note_on_c, 0, 60, 76
2, 241123, Note_on_c, 0, 65, 76
2, 241123, Note_on_c, 0, 68, 82
2, 241133, Control_c, 0, 64, 0
2, 241137, Note_on_c, 0, 56, 58
2, 241147, Note_on_c, 0, 70, 0
2, 241165, Note_on_c, 0, 56, 0
2, 241193, Control_c, 0, 64, 40
2, 241209, Control_c, 0, 64, 63
2, 241224, Control_c, 0, 64, 66
2, 241240, Note_on_c, 0, 56, 79
2, 241245, Note_on_c, 0, 72, 86
2, 241253, Note_on_c, 0, 60, 0
2, 241254, Control_c, 0, 64, 65
2, 241269, Control_c, 0, 64, 64
2, 241275, Note_on_c, 0, 65, 0
2, 241285, Control_c, 0, 64, 61
2, 241294, Note_on_c, 0, 68, 0
2, 241300, Control_c, 0, 64, 35
2, 241315, Control_c, 0, 64, 0
2, 241372, Note_on_c, 0, 70, 82
2, 241379, Note_on_c, 0, 64, 71
2, 241382, Note_on_c, 0, 58, 72
2, 241396, Note_on_c, 0, 72, 0
2, 241468, Control_c, 0, 64, 47
2, 241484, Control_c, 0, 64, 64
2, 241491, Note_on_c, 0, 64, 0
2, 241499, Control_c, 0, 64, 68
2, 241503, Note_on_c, 0, 68, 82
2, 241504, Note_on_c, 0, 60, 72
2, 241514, Control_c, 0, 64, 72
2, 241529, Control_c, 0, 64, 75
2, 241536, Note_on_c, 0, 70, 0
2, 241544, Control_c, 0, 64, 77
2, 241560, Control_c, 0, 64, 78
2, 241575, Control_c, 0, 64, 77
2, 241590, Control_c, 0, 64, 74
2, 241600, Note_on_c, 0, 58, 0
2, 241605, Control_c, 0, 64, 62
2, 241615, Note_on_c, 0, 60, 0
2, 241620, Control_c, 0, 64, 0
2, 241627, Note_on_c, 0, 67, 80
2, 241633, Note_on_c, 0, 63, 72
2, 241634, Note_on_c, 0, 61, 73
2, 241650, Note_on_c, 0, 68, 0
2, 241711, Control_c, 0, 64, 62
2, 241727, Control_c, 0, 64, 70
2, 241727, Note_on_c, 0, 56, 0
2, 241741, Control_c, 0, 64, 77
2, 241749, Note_on_c, 0, 58, 72
2, 241752, Note_on_c, 0, 61, 0
2, 241756, Control_c, 0, 64, 81
2, 241764, Note_on_c, 0, 70, 80
2, 241772, Control_c, 0, 64, 83
2, 241780, Note_on_c, 0, 67, 0
2, 241787, Control_c, 0, 64, 84
2, 241811, Note_on_c, 0, 63, 0
2, 241817, Control_c, 0, 64, 83
2, 241841, Control_c, 0, 64, 81
2, 241853, Note_on_c, 0, 58, 0
2, 241856, Control_c, 0, 64, 73
2, 241870, Control_c, 0, 64, 55
2, 241886, Control_c, 0, 64, 0
2, 241898, Note_on_c, 0, 56, 58
2, 241898, Note_on_c, 0, 60, 71
2, 241898, Note_on_c, 0, 68, 77
2, 241930, Note_on_c, 0, 70, 0
2, 241962, Control_c, 0, 64, 60
2, 241973, Note_on_c, 0, 60, 0
2, 241977, Control_c, 0, 64, 69
2, 241991, Control_c, 0, 64, 75
2, 242007, Control_c, 0, 64, 79
2, 242019, Note_on_c, 0, 61, 78
2, 242022, Control_c, 0, 64, 79
2, 242057, Note_on_c, 0, 68, 0
2, 242060, Note_on_c, 0, 56, 0
2, 242083, Control_c, 0, 64, 78
2, 242098, Control_c, 0, 64, 72
2, 242108, Note_on_c, 0, 61, 0
2, 242113, Control_c, 0, 64, 62
2, 242129, Control_c, 0, 64, 0
2, 242147, Note_on_c, 0, 55, 65
2, 242148, Note_on_c, 0, 63, 69
2, 242253, Note_on_c, 0, 56, 65
2, 242257, Note_on_c, 0, 60, 70
2, 242263, Note_on_c, 0, 55, 0
2, 242270, Note_on_c, 0, 63, 0
2, 242391, Note_on_c, 0, 67, 77
2, 242393, Note_on_c, 0, 56, 0
2, 242397, Note_on_c, 0, 61, 80
2, 242404, Note_on_c, 0, 58, 71
2, 242409, Note_on_c, 0, 60, 0
2, 242495, Control_c, 0, 64, 43
2, 242509, Control_c, 0, 64, 65
2, 242525, Control_c, 0, 64, 70
2, 242540, Control_c, 0, 64, 74
2, 242555, Control_c, 0, 64, 77
2, 242556, Note_on_c, 0, 58, 0
2, 242571, Control_c, 0, 64, 79
2, 242585, Control_c, 0, 64, 81
2, 242609, Control_c, 0, 64, 81
2, 242639, Control_c, 0, 64, 81
2, 242654, Control_c, 0, 64, 77
2, 242667, Control_c, 0, 64, 69
2, 242676, Note_on_c, 0, 61, 0
2, 242682, Control_c, 0, 64, 0
2, 242686, Note_on_c, 0, 51, 77
2, 242692, Note_on_c, 0, 73, 75
2, 242742, Note_on_c, 0, 67, 0
2, 242788, Control_c, 0, 64, 13
2, 242803, Control_c, 0, 64, 64
2, 242819, Control_c, 0, 64, 69
2, 242833, Control_c, 0, 64, 72
2, 242849, Control_c, 0, 64, 74
2, 242895, Control_c, 0, 64, 73
2, 242909, Control_c, 0, 64, 68
2, 242924, Control_c, 0, 64, 43
2, 242940, Control_c, 0, 64, 0
2, 242949, Note_on_c, 0, 63, 74
2, 242967, Note_on_c, 0, 72, 62
2, 242969, Note_on_c, 0, 73, 0
2, 242971, Note_on_c, 0, 54, 56
2, 242996, Note_on_c, 0, 51, 0
2, 243062, Control_c, 0, 64, 43
2, 243077, Control_c, 0, 64, 66
2, 243087, Note_on_c, 0, 72, 0
2, 243091, Note_on_c, 0, 70, 72
2, 243093, Control_c, 0, 64, 71
2, 243108, Control_c, 0, 64, 73
2, 243123, Control_c, 0, 64, 74
2, 243139, Control_c, 0, 64, 75
2, 243169, Control_c, 0, 64, 73
2, 243184, Control_c, 0, 64, 65
2, 243199, Control_c, 0, 64, 0
2, 243222, Note_on_c, 0, 72, 71
2, 243227, Note_on_c, 0, 56, 64
2, 243233, Note_on_c, 0, 63, 0
2, 243266, Note_on_c, 0, 70, 0
2, 243306, Control_c, 0, 64, 38
2, 243321, Control_c, 0, 64, 66
2, 243337, Control_c, 0, 64, 72
2, 243347, Note_on_c, 0, 56, 0
2, 243351, Control_c, 0, 64, 76
2, 243374, Control_c, 0, 64, 78
2, 243389, Control_c, 0, 64, 79
2, 243398, Note_on_c, 0, 54, 0
2, 243435, Control_c, 0, 64, 78
2, 243451, Control_c, 0, 64, 76
2, 243466, Control_c, 0, 64, 70
2, 243480, Control_c, 0, 64, 28
2, 243496, Control_c, 0, 64, 0
2, 243500, Note_on_c, 0, 73, 69
2, 243505, Note_on_c, 0, 58, 59
2, 243516, Note_on_c, 0, 53, 42
2, 243538, Note_on_c, 0, 72, 0
2, 243587, Control_c, 0, 64, 34
2, 243602, Control_c, 0, 64, 66
2, 243613, Note_on_c, 0, 58, 0
2, 243618, Control_c, 0, 64, 72
2, 243625, Note_on_c, 0, 60, 61
2, 243632, Control_c, 0, 64, 76
2, 243648, Control_c, 0, 64, 79
2, 243663, Control_c, 0, 64, 80
2, 243677, Control_c, 0, 64, 80
2, 243709, Control_c, 0, 64, 80
2, 243722, Note_on_c, 0, 60, 0
2, 243724, Control_c, 0, 64, 76
2, 243740, Control_c, 0, 64, 66
2, 243754, Control_c, 0, 64, 0
2, 243763, Note_on_c, 0, 73, 0
2, 243767, Note_on_c, 0, 66, 62
2, 243775, Note_on_c, 0, 58, 62
2, 243846, Control_c, 0, 64, 50
2, 243862, Control_c, 0, 64, 69
2, 243866, Note_on_c, 0, 58, 0
2, 243877, Control_c, 0, 64, 75
2, 243893, Control_c, 0, 64, 80
2, 243900, Note_on_c, 0, 53, 0
2, 243907, Control_c, 0, 64, 82
2, 243922, Control_c, 0, 64, 83
2, 243998, Control_c, 0, 64, 82
2, 244014, Control_c, 0, 64, 76
2, 244029, Control_c, 0, 64, 65
2, 244038, Note_on_c, 0, 60, 60
2, 244044, Control_c, 0, 64, 0
2, 244057, Note_on_c, 0, 51, 50
2, 244158, Control_c, 0, 64, 55
2, 244163, Note_on_c, 0, 60, 0
2, 244174, Control_c, 0, 64, 67
2, 244185, Note_on_c, 0, 61, 65
2, 244189, Control_c, 0, 64, 71
2, 244203, Control_c, 0, 64, 74
2, 244219, Control_c, 0, 64, 75
2, 244265, Control_c, 0, 64, 73
2, 244279, Control_c, 0, 64, 67
2, 244295, Control_c, 0, 64, 36
2, 244309, Note_on_c, 0, 61, 0
2, 244310, Control_c, 0, 64, 0
2, 244311, Note_on_c, 0, 46, 51
2, 244312, Note_on_c, 0, 51, 0
2, 244316, Note_on_c, 0, 63, 66
2, 244337, Note_on_c, 0, 66, 0
2, 244417, Control_c, 0, 64, 51
2, 244432, Control_c, 0, 64, 66
2, 244447, Control_c, 0, 64, 69
2, 244462, Control_c, 0, 64, 71
2, 244476, Control_c, 0, 64, 72
2, 244507, Control_c, 0, 64, 70
2, 244521, Control_c, 0, 64, 66
2, 244536, Note_on_c, 0, 46, 0
2, 244537, Control_c, 0, 64, 52
2, 244552, Control_c, 0, 64, 0
2, 244571, Note_on_c, 0, 48, 55
2, 244576, Note_on_c, 0, 66, 67
2, 244658, Control_c, 0, 64, 59
2, 244667, Note_on_c, 0, 48, 0
2, 244675, Control_c, 0, 64, 65
2, 244691, Control_c, 0, 64, 66
2, 244692, Note_on_c, 0, 49, 62
2, 244705, Control_c, 0, 64, 67
2, 244750, Control_c, 0, 64, 66
2, 244765, Control_c, 0, 64, 65
2, 244781, Control_c, 0, 64, 60
2, 244796, Control_c, 0, 64, 39
2, 244812, Control_c, 0, 64, 0
2, 244823, Note_on_c, 0, 49, 0
2, 244838, Note_on_c, 0, 75, 74
2, 244842, Note_on_c, 0, 48, 64
2, 244852, Note_on_c, 0, 66, 0
2, 244925, Control_c, 0, 64, 31
2, 244941, Control_c, 0, 64, 63
2, 244955, Control_c, 0, 64, 65
2, 244971, Control_c, 0, 64, 66
2, 244986, Control_c, 0, 64, 66
2, 245031, Control_c, 0, 64, 66
2, 245047, Control_c, 0, 64, 63
2, 245062, Control_c, 0, 64, 46
2, 245077, Control_c, 0, 64, 0
2, 245077, Note_on_c, 0, 48, 0
2, 245100, Note_on_c, 0, 44, 54
2, 245101, Note_on_c, 0, 73, 65
2, 245105, Note_on_c, 0, 66, 66
2, 245135, Note_on_c, 0, 75, 0
2, 245155, Note_on_c, 0, 63, 0
2, 245184, Control_c, 0, 64, 56
2, 245199, Control_c, 0, 64, 64
2, 245215, Control_c, 0, 64, 66
2, 245229, Note_on_c, 0, 72, 67
2, 245230, Control_c, 0, 64, 66
2, 245230, Note_on_c, 0, 73, 0
2, 245244, Control_c, 0, 64, 67
2, 245260, Control_c, 0, 64, 68
2, 245290, Control_c, 0, 64, 67
2, 245305, Control_c, 0, 64, 65
2, 245320, Control_c, 0, 64, 57
2, 245336, Control_c, 0, 64, 0
2, 245349, Note_on_c, 0, 44, 0
2, 245358, Note_on_c, 0, 73, 70
2, 245364, Note_on_c, 0, 46, 59
2, 245375, Note_on_c, 0, 72, 0
2, 245457, Control_c, 0, 64, 59
2, 245472, Control_c, 0, 64, 68
2, 245488, Control_c, 0, 64, 72
2, 245504, Control_c, 0, 64, 76
2, 245518, Control_c, 0, 64, 78
2, 245534, Control_c, 0, 64, 78
2, 245564, Control_c, 0, 64, 77
2, 245580, Control_c, 0, 64, 70
2, 245580, Note_on_c, 0, 46, 0
2, 245594, Control_c, 0, 64, 56
2, 245610, Control_c, 0, 64, 0
2, 245621, Note_on_c, 0, 48, 59
2, 245624, Note_on_c, 0, 73, 0
2, 245624, Note_on_c, 0, 75, 69
2, 245627, Note_on_c, 0, 66, 0
2, 245632, Note_on_c, 0, 65, 54
2, 245709, Control_c, 0, 64, 63
2, 245723, Control_c, 0, 64, 70
2, 245739, Control_c, 0, 64, 76
2, 245748, Note_on_c, 0, 75, 0
2, 245754, Control_c, 0, 64, 79
2, 245767, Note_on_c, 0, 63, 63
2, 245770, Control_c, 0, 64, 80
2, 245798, Note_on_c, 0, 65, 0
2, 245830, Control_c, 0, 64, 76
2, 245845, Control_c, 0, 64, 65
2, 245861, Control_c, 0, 64, 0
2, 245861, Note_on_c, 0, 63, 0
2, 245866, Note_on_c, 0, 48, 0
2, 245894, Note_on_c, 0, 49, 54
2, 245894, Note_on_c, 0, 68, 65
2, 245911, Note_on_c, 0, 65, 59
2, 245982, Control_c, 0, 64, 61
2, 245997, Control_c, 0, 64, 68
2, 246013, Control_c, 0, 64, 72
2, 246028, Control_c, 0, 64, 76
2, 246042, Control_c, 0, 64, 78
2, 246055, Note_on_c, 0, 68, 0
2, 246104, Control_c, 0, 64, 77
2, 246119, Control_c, 0, 64, 72
2, 246134, Control_c, 0, 64, 62
2, 246134, Note_on_c, 0, 49, 0
2, 246149, Control_c, 0, 64, 0
2, 246153, Note_on_c, 0, 65, 0
2, 246167, Note_on_c, 0, 68, 70
2, 246168, Note_on_c, 0, 47, 56
2, 246270, Control_c, 0, 64, 48
2, 246285, Control_c, 0, 64, 64
2, 246301, Control_c, 0, 64, 69
2, 246317, Control_c, 0, 64, 73
2, 246333, Control_c, 0, 64, 77
2, 246348, Control_c, 0, 64, 80
2, 246362, Control_c, 0, 64, 81
2, 246409, Control_c, 0, 64, 80
2, 246424, Control_c, 0, 64, 77
2, 246447, Control_c, 0, 64, 70
2, 246462, Control_c, 0, 64, 56
2, 246467, Note_on_c, 0, 62, 67
2, 246477, Control_c, 0, 64, 0
2, 246478, Note_on_c, 0, 46, 57
2, 246487, Note_on_c, 0, 47, 0
2, 246513, Note_on_c, 0, 68, 0
2, 246538, Control_c, 0, 64, 46
2, 246553, Control_c, 0, 64, 60
2, 246569, Control_c, 0, 64, 66
2, 246583, Control_c, 0, 64, 71
2, 246598, Control_c, 0, 64, 77
2, 246614, Control_c, 0, 64, 83
2, 246629, Control_c, 0, 64, 84
2, 246643, Control_c, 0, 64, 84
2, 246690, Control_c, 0, 64, 84
2, 246705, Control_c, 0, 64, 78
2, 246719, Control_c, 0, 64, 68
2, 246728, Note_on_c, 0, 46, 0
2, 246729, Note_on_c, 0, 68, 73
2, 246732, Note_on_c, 0, 44, 55
2, 246735, Control_c, 0, 64, 0
2, 246801, Note_on_c, 0, 62, 0
2, 246820, Note_on_c, 0, 44, 0
2, 246827, Control_c, 0, 64, 57
2, 246842, Control_c, 0, 64, 66
2, 246847, Note_on_c, 0, 42, 63
2, 246857, Control_c, 0, 64, 71
2, 246872, Control_c, 0, 64, 75
2, 246888, Control_c, 0, 64, 77
2, 246902, Control_c, 0, 64, 78
2, 246933, Control_c, 0, 64, 75
2, 246948, Control_c, 0, 64, 66
2, 246963, Control_c, 0, 64, 0
2, 246963, Note_on_c, 0, 42, 0
2, 246986, Note_on_c, 0, 77, 75
2, 246987, Note_on_c, 0, 44, 71
2, 247070, Control_c, 0, 64, 56
2, 247085, Control_c, 0, 64, 70
2, 247100, Note_on_c, 0, 44, 0
2, 247101, Control_c, 0, 64, 78
2, 247115, Control_c, 0, 64, 83
2, 247132, Control_c, 0, 64, 86
2, 247147, Control_c, 0, 64, 88
2, 247161, Control_c, 0, 64, 90
2, 247177, Control_c, 0, 64, 91
2, 247192, Control_c, 0, 64, 92
2, 247230, Control_c, 0, 64, 91
2, 247245, Control_c, 0, 64, 87
2, 247257, Note_on_c, 0, 68, 0
2, 247261, Control_c, 0, 64, 77
2, 247271, Note_on_c, 0, 46, 68
2, 247274, Note_on_c, 0, 58, 58
2, 247276, Control_c, 0, 64, 62
2, 247279, Note_on_c, 0, 75, 73
2, 247291, Control_c, 0, 64, 0
2, 247358, Note_on_c, 0, 77, 0
2, 247367, Control_c, 0, 64, 62
2, 247382, Control_c, 0, 64, 69
2, 247397, Control_c, 0, 64, 75
2, 247397, Note_on_c, 0, 74, 70
2, 247413, Control_c, 0, 64, 78
2, 247420, Note_on_c, 0, 75, 0
2, 247428, Control_c, 0, 64, 80
2, 247443, Control_c, 0, 64, 81
2, 247474, Control_c, 0, 64, 82
2, 247489, Control_c, 0, 64, 81
2, 247504, Control_c, 0, 64, 80
2, 247506, Note_on_c, 0, 46, 0
2, 247519, Control_c, 0, 64, 74
2, 247519, Note_on_c, 0, 58, 0
2, 247533, Note_on_c, 0, 48, 67
2, 247535, Control_c, 0, 64, 61
2, 247545, Note_on_c, 0, 75, 75
2, 247549, Control_c, 0, 64, 0
2, 247549, Note_on_c, 0, 68, 73
2, 247550, Note_on_c, 0, 74, 0
2, 247625, Control_c, 0, 64, 56
2, 247640, Control_c, 0, 64, 68
2, 247656, Control_c, 0, 64, 75
2, 247671, Control_c, 0, 64, 82
2, 247681, Note_on_c, 0, 68, 0
2, 247687, Control_c, 0, 64, 86
2, 247701, Control_c, 0, 64, 87
2, 247716, Control_c, 0, 64, 88
2, 247777, Control_c, 0, 64, 85
2, 247777, Note_on_c, 0, 48, 0
2, 247792, Control_c, 0, 64, 76
2, 247796, Note_on_c, 0, 77, 78
2, 247804, Note_on_c, 0, 50, 63
2, 247808, Control_c, 0, 64, 64
2, 247808, Note_on_c, 0, 66, 53
2, 247821, Note_on_c, 0, 75, 0
2, 247822, Control_c, 0, 64, 0
2, 247883, Control_c, 0, 64, 58
2, 247890, Note_on_c, 0, 77, 0
2, 247899, Control_c, 0, 64, 66
2, 247914, Control_c, 0, 64, 70
2, 247922, Note_on_c, 0, 66, 0
2, 247929, Note_on_c, 0, 65, 71
2, 247930, Control_c, 0, 64, 73
2, 247945, Control_c, 0, 64, 75
2, 247960, Control_c, 0, 64, 76
2, 248029, Control_c, 0, 64, 75
2, 248043, Note_on_c, 0, 50, 0
2, 248044, Control_c, 0, 64, 74
2, 248059, Control_c, 0, 64, 70
2, 248064, Note_on_c, 0, 51, 60
2, 248067, Note_on_c, 0, 66, 72
2, 248073, Note_on_c, 0, 65, 0
2, 248074, Control_c, 0, 64, 62
2, 248074, Note_on_c, 0, 70, 74
2, 248090, Control_c, 0, 64, 52
2, 248105, Control_c, 0, 64, 49
2, 248135, Control_c, 0, 64, 48
2, 248150, Control_c, 0, 64, 42
2, 248165, Control_c, 0, 64, 30
2, 248177, Note_on_c, 0, 66, 0
2, 248181, Control_c, 0, 64, 24
2, 248192, Note_on_c, 0, 50, 63
2, 248192, Note_on_c, 0, 51, 0
2, 248195, Control_c, 0, 64, 29
2, 248201, Note_on_c, 0, 65, 76
2, 248211, Control_c, 0, 64, 30
2, 248226, Control_c, 0, 64, 29
2, 248241, Control_c, 0, 64, 27
2, 248257, Control_c, 0, 64, 22
2, 248272, Control_c, 0, 64, 13
2, 248287, Control_c, 0, 64, 0
2, 248317, Note_on_c, 0, 65, 0
2, 248317, Note_on_c, 0, 66, 77
2, 248323, Note_on_c, 0, 51, 73
2, 248335, Note_on_c, 0, 50, 0
2, 248431, Note_on_c, 0, 51, 0
2, 248447, Note_on_c, 0, 53, 71
2, 248588, Note_on_c, 0, 60, 74
2, 248591, Note_on_c, 0, 53, 0
2, 248593, Note_on_c, 0, 54, 68
2, 248611, Note_on_c, 0, 66, 0
2, 248710, Control_c, 0, 64, 54
2, 248725, Control_c, 0, 64, 64
2, 248749, Control_c, 0, 64, 65
2, 248763, Control_c, 0, 64, 66
2, 248795, Control_c, 0, 64, 65
2, 248811, Control_c, 0, 64, 64
2, 248825, Control_c, 0, 64, 54
2, 248840, Control_c, 0, 64, 0
2, 248856, Note_on_c, 0, 54, 0
2, 248874, Note_on_c, 0, 69, 66
2, 248877, Note_on_c, 0, 53, 58
2, 248920, Note_on_c, 0, 70, 0
2, 248947, Control_c, 0, 64, 56
2, 248962, Control_c, 0, 64, 65
2, 248978, Control_c, 0, 64, 66
2, 248993, Control_c, 0, 64, 65
2, 249003, Note_on_c, 0, 69, 0
2, 249008, Note_on_c, 0, 67, 65
2, 249024, Control_c, 0, 64, 64
2, 249038, Control_c, 0, 64, 62
2, 249054, Control_c, 0, 64, 43
2, 249069, Control_c, 0, 64, 0
2, 249136, Note_on_c, 0, 53, 0
2, 249138, Note_on_c, 0, 51, 57
2, 249140, Note_on_c, 0, 69, 68
2, 249153, Note_on_c, 0, 67, 0
2, 249205, Control_c, 0, 64, 45
2, 249221, Control_c, 0, 64, 65
2, 249235, Control_c, 0, 64, 69
2, 249237, Note_on_c, 0, 60, 0
2, 249251, Control_c, 0, 64, 72
2, 249266, Control_c, 0, 64, 74
2, 249281, Control_c, 0, 64, 76
2, 249297, Control_c, 0, 64, 76
2, 249311, Control_c, 0, 64, 77
2, 249327, Control_c, 0, 64, 76
2, 249342, Control_c, 0, 64, 75
2, 249357, Control_c, 0, 64, 70
2, 249373, Control_c, 0, 64, 60
2, 249388, Control_c, 0, 64, 0
2, 249410, Note_on_c, 0, 69, 0
2, 249418, Note_on_c, 0, 70, 72
2, 249421, Note_on_c, 0, 49, 52
2, 249423, Note_on_c, 0, 51, 0
2, 249433, Note_on_c, 0, 58, 55
2, 249495, Control_c, 0, 64, 31
2, 249516, Control_c, 0, 64, 63
2, 249532, Control_c, 0, 64, 67
2, 249547, Control_c, 0, 64, 69
2, 249562, Control_c, 0, 64, 70
2, 249610, Control_c, 0, 64, 70
2, 249624, Control_c, 0, 64, 65
2, 249639, Control_c, 0, 64, 46
2, 249655, Control_c, 0, 64, 0
2, 249688, Note_on_c, 0, 49, 0
2, 249688, Note_on_c, 0, 70, 0
2, 249703, Note_on_c, 0, 63, 69
2, 249713, Note_on_c, 0, 48, 50
2, 249776, Control_c, 0, 64, 58
2, 249791, Control_c, 0, 64, 65
2, 249807, Control_c, 0, 64, 68
2, 249822, Control_c, 0, 64, 68
2, 249822, Note_on_c, 0, 58, 0
2, 249837, Control_c, 0, 64, 69
2, 249868, Control_c, 0, 64, 68
2, 249882, Control_c, 0, 64, 66
2, 249898, Control_c, 0, 64, 55
2, 249913, Control_c, 0, 64, 0
2, 249957, Note_on_c, 0, 48, 0
2, 249984, Note_on_c, 0, 49, 55
2, 249990, Note_on_c, 0, 57, 54
2, 250035, Control_c, 0, 64, 54
2, 250051, Control_c, 0, 64, 60
2, 250066, Control_c, 0, 64, 60
2, 250080, Control_c, 0, 64, 59
2, 250096, Control_c, 0, 64, 58
2, 250105, Note_on_c, 0, 57, 0
2, 250111, Control_c, 0, 64, 52
2, 250117, Note_on_c, 0, 55, 53
2, 250127, Control_c, 0, 64, 0
2, 250225, Note_on_c, 0, 49, 0
2, 250229, Note_on_c, 0, 55, 0
2, 250242, Note_on_c, 0, 57, 64
2, 250247, Note_on_c, 0, 48, 56
2, 250347, Control_c, 0, 64, 52
2, 250361, Control_c, 0, 64, 57
2, 250377, Control_c, 0, 64, 58
2, 250392, Control_c, 0, 64, 56
2, 250409, Control_c, 0, 64, 49
2, 250424, Control_c, 0, 64, 0
2, 250467, Note_on_c, 0, 48, 0
2, 250509, Note_on_c, 0, 57, 0
2, 250531, Note_on_c, 0, 60, 61
2, 250541, Note_on_c, 0, 46, 56
2, 250590, Control_c, 0, 64, 31
2, 250605, Control_c, 0, 64, 46
2, 250620, Control_c, 0, 64, 44
2, 250635, Control_c, 0, 64, 45
2, 250651, Control_c, 0, 64, 44
2, 250666, Control_c, 0, 64, 35
2, 250681, Control_c, 0, 64, 0
2, 250732, Note_on_c, 0, 46, 0
2, 250772, Note_on_c, 0, 60, 0
2, 250802, Note_on_c, 0, 53, 55
2, 250807, Note_on_c, 0, 45, 51
2, 250848, Control_c, 0, 64, 25
2, 250863, Control_c, 0, 64, 63
2, 250878, Control_c, 0, 64, 64
2, 250909, Control_c, 0, 64, 65
2, 250923, Control_c, 0, 64, 66
2, 250939, Control_c, 0, 64, 67
2, 250954, Control_c, 0, 64, 67
2, 250985, Control_c, 0, 64, 66
2, 250999, Control_c, 0, 64, 54
2, 251015, Control_c, 0, 64, 0
2, 251049, Note_on_c, 0, 45, 0
2, 251075, Note_on_c, 0, 41, 50
2, 251078, Note_on_c, 0, 61, 59
2, 251082, Note_on_c, 0, 63, 0
2, 251185, Note_on_c, 0, 61, 0
2, 251213, Note_on_c, 0, 60, 54
2, 251230, Note_on_c, 0, 41, 0
2, 251335, Note_on_c, 0, 46, 79
2, 251335, Note_on_c, 0, 60, 0
2, 251346, Note_on_c, 0, 61, 72
2, 251369, Note_on_c, 0, 53, 0
2, 251373, Control_c, 0, 64, 71
2, 251388, Control_c, 0, 64, 74
2, 251402, Control_c, 0, 64, 76
2, 251418, Control_c, 0, 64, 77
2, 251433, Control_c, 0, 64, 80
2, 251449, Control_c, 0, 64, 83
2, 251464, Control_c, 0, 64, 86
2, 251479, Control_c, 0, 64, 88
2, 251494, Control_c, 0, 64, 88
2, 251509, Control_c, 0, 64, 89
2, 251571, Control_c, 0, 64, 87
2, 251583, Note_on_c, 0, 46, 0
2, 251586, Control_c, 0, 64, 80
2, 251601, Control_c, 0, 64, 68
2, 251613, Note_on_c, 0, 70, 71
2, 251616, Control_c, 0, 64, 0
2, 251619, Note_on_c, 0, 51, 59
2, 251671, Note_on_c, 0, 61, 0
2, 251677, Control_c, 0, 64, 46
2, 251692, Control_c, 0, 64, 63
2, 251707, Control_c, 0, 64, 67
2, 251722, Control_c, 0, 64, 69
2, 251737, Note_on_c, 0, 49, 61
2, 251738, Control_c, 0, 64, 72
2, 251753, Control_c, 0, 64, 75
2, 251768, Control_c, 0, 64, 77
2, 251781, Note_on_c, 0, 51, 0
2, 251783, Control_c, 0, 64, 78
2, 251799, Note_on_c, 0, 70, 0
2, 251818, Note_on_c, 0, 49, 0
2, 251821, Control_c, 0, 64, 77
2, 251836, Control_c, 0, 64, 71
2, 251852, Control_c, 0, 64, 48
2, 251867, Control_c, 0, 64, 0
2, 251880, Note_on_c, 0, 66, 94
2, 251882, Note_on_c, 0, 48, 81
2, 251899, Note_on_c, 0, 51, 66
2, 251988, Control_c, 0, 64, 59
2, 252003, Control_c, 0, 64, 57
2, 252019, Control_c, 0, 64, 0
2, 252097, Note_on_c, 0, 51, 0
2, 252111, Control_c, 0, 64, 25
2, 252125, Control_c, 0, 64, 65
2, 252136, Note_on_c, 0, 66, 0
2, 252141, Control_c, 0, 64, 71
2, 252148, Note_on_c, 0, 69, 67
2, 252156, Control_c, 0, 64, 75
2, 252157, Note_on_c, 0, 48, 0
2, 252161, Note_on_c, 0, 63, 54
2, 252172, Control_c, 0, 64, 78
2, 252248, Control_c, 0, 64, 76
2, 252262, Control_c, 0, 64, 72
2, 252277, Control_c, 0, 64, 63
2, 252285, Note_on_c, 0, 69, 0
2, 252293, Control_c, 0, 64, 0
2, 252405, Note_on_c, 0, 65, 84
2, 252415, Note_on_c, 0, 70, 76
2, 252674, Note_on_c, 0, 61, 79
2, 252679, Note_on_c, 0, 70, 0
2, 252683, Note_on_c, 0, 49, 73
2, 252789, Note_on_c, 0, 65, 0
2, 252793, Note_on_c, 0, 68, 74
2, 252851, Note_on_c, 0, 49, 0
2, 252924, Note_on_c, 0, 66, 84
2, 252925, Note_on_c, 0, 51, 76
2, 252937, Note_on_c, 0, 68, 0
2, 252946, Note_on_c, 0, 61, 0
2, 252955, Control_c, 0, 64, 68
2, 252970, Control_c, 0, 64, 79
2, 252985, Control_c, 0, 64, 86
2, 252986, Note_on_c, 0, 51, 0
2, 252996, Note_on_c, 0, 63, 0
2, 253000, Control_c, 0, 64, 87
2, 253001, Note_on_c, 0, 66, 0
2, 253092, Control_c, 0, 64, 85
2, 253106, Control_c, 0, 64, 80
2, 253121, Control_c, 0, 64, 68
2, 253137, Control_c, 0, 64, 0
2, 253182, Note_on_c, 0, 45, 74
2, 253183, Note_on_c, 0, 63, 87
2, 253187, Note_on_c, 0, 60, 79
2, 253228, Control_c, 0, 64, 27
2, 253243, Control_c, 0, 64, 68
2, 253258, Control_c, 0, 64, 77
2, 253273, Control_c, 0, 64, 86
2, 253289, Control_c, 0, 64, 88
2, 253304, Control_c, 0, 64, 89
2, 253310, Note_on_c, 0, 45, 0
2, 253317, Note_on_c, 0, 60, 0
2, 253323, Note_on_c, 0, 63, 0
2, 253373, Control_c, 0, 64, 87
2, 253387, Control_c, 0, 64, 80
2, 253402, Control_c, 0, 64, 66
2, 253418, Control_c, 0, 64, 0
2, 253450, Note_on_c, 0, 46, 80
2, 253453, Note_on_c, 0, 62, 85
2, 253457, Note_on_c, 0, 65, 83
2, 253494, Control_c, 0, 64, 29
2, 253509, Control_c, 0, 64, 67
2, 253509, Note_on_c, 0, 62, 0
2, 253524, Control_c, 0, 64, 75
2, 253535, Note_on_c, 0, 65, 0
2, 253540, Control_c, 0, 64, 82
2, 253555, Control_c, 0, 64, 85
2, 253570, Control_c, 0, 64, 85
2, 253585, Control_c, 0, 64, 86
2, 253631, Control_c, 0, 64, 84
2, 253645, Control_c, 0, 64, 78
2, 253661, Control_c, 0, 64, 66
2, 253676, Control_c, 0, 64, 0
2, 253678, Note_on_c, 0, 46, 0
2, 253696, Note_on_c, 0, 59, 76
2, 253699, Note_on_c, 0, 74, 81
2, 253702, Note_on_c, 0, 68, 88
2, 253769, Control_c, 0, 64, 62
2, 253784, Control_c, 0, 64, 69
2, 253786, Note_on_c, 0, 74, 0
2, 253799, Control_c, 0, 64, 75
2, 253815, Control_c, 0, 64, 80
2, 253830, Control_c, 0, 64, 82
2, 253900, Note_on_c, 0, 68, 0
2, 253906, Control_c, 0, 64, 78
2, 253921, Control_c, 0, 64, 68
2, 253937, Control_c, 0, 64, 0
2, 253958, Note_on_c, 0, 59, 0
2, 253970, Note_on_c, 0, 66, 85
2, 253971, Note_on_c, 0, 58, 75
2, 253971, Note_on_c, 0, 75, 84
2, 254025, Note_on_c, 0, 58, 0
2, 254027, Control_c, 0, 64, 59
2, 254042, Control_c, 0, 64, 68
2, 254058, Control_c, 0, 64, 74
2, 254072, Control_c, 0, 64, 80
2, 254088, Control_c, 0, 64, 82
2, 254103, Control_c, 0, 64, 83
2, 254131, Note_on_c, 0, 66, 0
2, 254172, Control_c, 0, 64, 82
2, 254187, Control_c, 0, 64, 75
2, 254195, Note_on_c, 0, 75, 0
2, 254202, Control_c, 0, 64, 63
2, 254218, Control_c, 0, 64, 0
2, 254233, Note_on_c, 0, 57, 68
2, 254235, Note_on_c, 0, 73, 73
2, 254239, Note_on_c, 0, 48, 72
2, 254341, Note_on_c, 0, 57, 0
2, 254357, Note_on_c, 0, 72, 76
2, 254369, Note_on_c, 0, 73, 0
2, 254416, Note_on_c, 0, 48, 0
2, 254474, Note_on_c, 0, 72, 0
2, 254484, Note_on_c, 0, 58, 76
2, 254488, Note_on_c, 0, 77, 87
2, 254491, Note_on_c, 0, 49, 70
2, 254537, Control_c, 0, 64, 68
2, 254552, Control_c, 0, 64, 71
2, 254582, Control_c, 0, 64, 69
2, 254601, Note_on_c, 0, 49, 0
2, 254607, Note_on_c, 0, 46, 79
2, 254621, Note_on_c, 0, 77, 0
2, 254628, Control_c, 0, 64, 70
2, 254689, Control_c, 0, 64, 69
2, 254704, Control_c, 0, 64, 63
2, 254719, Control_c, 0, 64, 0
2, 254741, Note_on_c, 0, 65, 79
2, 254743, Note_on_c, 0, 48, 71
2, 254753, Note_on_c, 0, 46, 0
2, 254875, Note_on_c, 0, 49, 69
2, 254880, Note_on_c, 0, 48, 0
2, 254946, Note_on_c, 0, 65, 0
2, 254983, Note_on_c, 0, 49, 0
2, 255003, Note_on_c, 0, 66, 81
2, 255007, Note_on_c, 0, 51, 71
2, 255010, Note_on_c, 0, 63, 79
2, 255047, Control_c, 0, 64, 70
2, 255062, Control_c, 0, 64, 72
2, 255070, Note_on_c, 0, 66, 0
2, 255076, Control_c, 0, 64, 72
2, 255092, Control_c, 0, 64, 70
2, 255107, Control_c, 0, 64, 69
2, 255114, Note_on_c, 0, 51, 0
2, 255130, Note_on_c, 0, 48, 72
2, 255137, Note_on_c, 0, 66, 77
2, 255152, Control_c, 0, 64, 70
2, 255168, Control_c, 0, 64, 69
2, 255183, Control_c, 0, 64, 67
2, 255197, Control_c, 0, 64, 53
2, 255213, Control_c, 0, 64, 0
2, 255247, Note_on_c, 0, 48, 0
2, 255258, Note_on_c, 0, 49, 70
2, 255267, Note_on_c, 0, 65, 78
2, 255269, Note_on_c, 0, 66, 0
2, 255295, Note_on_c, 0, 63, 0
2, 255379, Note_on_c, 0, 49, 0
2, 255384, Note_on_c, 0, 51, 67
2, 255386, Note_on_c, 0, 63, 82
2, 255405, Note_on_c, 0, 65, 0
2, 255466, Note_on_c, 0, 63, 0
2, 255487, Note_on_c, 0, 51, 0
2, 255509, Note_on_c, 0, 53, 71
2, 255510, Note_on_c, 0, 65, 80
2, 255514, Note_on_c, 0, 61, 71
2, 255548, Control_c, 0, 64, 72
2, 255562, Control_c, 0, 64, 74
2, 255574, Note_on_c, 0, 65, 0
2, 255578, Control_c, 0, 64, 73
2, 255584, Note_on_c, 0, 61, 0
2, 255592, Note_on_c, 0, 53, 0
2, 255593, Control_c, 0, 64, 71
2, 255626, Note_on_c, 0, 49, 74
2, 255630, Note_on_c, 0, 65, 83
2, 255638, Control_c, 0, 64, 71
2, 255661, Control_c, 0, 64, 70
2, 255676, Control_c, 0, 64, 67
2, 255692, Control_c, 0, 64, 65
2, 255707, Control_c, 0, 64, 63
2, 255722, Control_c, 0, 64, 62
2, 255738, Control_c, 0, 64, 62
2, 255765, Note_on_c, 0, 51, 67
2, 255765, Note_on_c, 0, 63, 82
2, 255768, Control_c, 0, 64, 61
2, 255778, Note_on_c, 0, 65, 0
2, 255783, Control_c, 0, 64, 60
2, 255798, Control_c, 0, 64, 59
2, 255814, Control_c, 0, 64, 60
2, 255829, Control_c, 0, 64, 60
2, 255848, Note_on_c, 0, 49, 0
2, 255859, Control_c, 0, 64, 59
2, 255874, Control_c, 0, 64, 48
2, 255889, Control_c, 0, 64, 0
2, 255891, Note_on_c, 0, 53, 71
2, 255891, Note_on_c, 0, 61, 83
2, 255894, Note_on_c, 0, 51, 0
2, 255914, Note_on_c, 0, 63, 0
2, 255958, Note_on_c, 0, 61, 0
2, 255998, Note_on_c, 0, 60, 56
2, 256007, Note_on_c, 0, 53, 0
2, 256017, Note_on_c, 0, 54, 71
2, 256021, Note_on_c, 0, 63, 89
2, 256071, Control_c, 0, 64, 54
2, 256080, Note_on_c, 0, 63, 0
2, 256087, Control_c, 0, 64, 74
2, 256096, Note_on_c, 0, 60, 0
2, 256102, Control_c, 0, 64, 79
2, 256117, Control_c, 0, 64, 81
2, 256128, Note_on_c, 0, 63, 79
2, 256136, Note_on_c, 0, 51, 74
2, 256156, Note_on_c, 0, 54, 0
2, 256175, Note_on_c, 0, 58, 0
2, 256239, Control_c, 0, 64, 81
2, 256255, Control_c, 0, 64, 76
2, 256255, Note_on_c, 0, 51, 0
2, 256263, Note_on_c, 0, 61, 84
2, 256264, Note_on_c, 0, 53, 73
2, 256267, Note_on_c, 0, 57, 69
2, 256270, Control_c, 0, 64, 64
2, 256280, Note_on_c, 0, 63, 0
2, 256284, Control_c, 0, 64, 0
2, 256392, Note_on_c, 0, 60, 80
2, 256393, Note_on_c, 0, 61, 0
2, 256444, Note_on_c, 0, 57, 0
2, 256469, Note_on_c, 0, 53, 0
2, 256536, Note_on_c, 0, 58, 82
2, 256546, Note_on_c, 0, 60, 0
2, 256655, Note_on_c, 0, 61, 68
2, 256781, Note_on_c, 0, 61, 0
2, 256789, Note_on_c, 0, 54, 81
2, 256796, Note_on_c, 0, 60, 69
2, 256855, Note_on_c, 0, 58, 0
2, 256901, Control_c, 0, 64, 62
2, 256916, Control_c, 0, 64, 66
2, 256932, Control_c, 0, 64, 68
2, 256946, Control_c, 0, 64, 70
2, 256962, Control_c, 0, 64, 71
2, 256978, Control_c, 0, 64, 72
2, 256993, Control_c, 0, 64, 72
2, 256998, Note_on_c, 0, 54, 0
2, 257000, Note_on_c, 0, 60, 0
2, 257011, Control_c, 0, 64, 71
2, 257026, Control_c, 0, 64, 66
2, 257041, Control_c, 0, 64, 47
2, 257056, Control_c, 0, 64, 0
2, 257062, Note_on_c, 0, 48, 78
2, 257064, Note_on_c, 0, 56, 80
2, 257162, Control_c, 0, 64, 42
2, 257177, Control_c, 0, 64, 65
2, 257201, Control_c, 0, 64, 67
2, 257216, Control_c, 0, 64, 66
2, 257231, Control_c, 0, 64, 65
2, 257246, Control_c, 0, 64, 61
2, 257261, Control_c, 0, 64, 44
2, 257276, Control_c, 0, 64, 0
2, 257315, Note_on_c, 0, 48, 0
2, 257321, Note_on_c, 0, 50, 72
2, 257324, Note_on_c, 0, 58, 80
2, 257413, Control_c, 0, 64, 62
2, 257428, Control_c, 0, 64, 66
2, 257437, Note_on_c, 0, 50, 0
2, 257438, Note_on_c, 0, 51, 75
2, 257444, Control_c, 0, 64, 66
2, 257504, Control_c, 0, 64, 64
2, 257520, Control_c, 0, 64, 56
2, 257535, Control_c, 0, 64, 0
2, 257535, Note_on_c, 0, 51, 0
2, 257568, Note_on_c, 0, 58, 0
2, 257577, Note_on_c, 0, 50, 68
2, 257582, Note_on_c, 0, 65, 84
2, 257687, Control_c, 0, 64, 63
2, 257702, Control_c, 0, 64, 69
2, 257716, Control_c, 0, 64, 71
2, 257732, Control_c, 0, 64, 73
2, 257747, Control_c, 0, 64, 74
2, 257763, Control_c, 0, 64, 75
2, 257794, Control_c, 0, 64, 73
2, 257809, Control_c, 0, 64, 66
2, 257819, Note_on_c, 0, 50, 0
2, 257824, Control_c, 0, 64, 19
2, 257840, Control_c, 0, 64, 0
2, 257848, Note_on_c, 0, 46, 67
2, 257850, Note_on_c, 0, 63, 73
2, 257853, Note_on_c, 0, 65, 0
2, 257931, Control_c, 0, 64, 45
2, 257940, Note_on_c, 0, 56, 0
2, 257946, Control_c, 0, 64, 66
2, 257969, Control_c, 0, 64, 70
2, 257979, Note_on_c, 0, 63, 0
2, 257984, Control_c, 0, 64, 72
2, 257985, Note_on_c, 0, 62, 70
2, 258000, Control_c, 0, 64, 73
2, 258060, Control_c, 0, 64, 72
2, 258075, Control_c, 0, 64, 68
2, 258091, Control_c, 0, 64, 49
2, 258093, Note_on_c, 0, 46, 0
2, 258105, Control_c, 0, 64, 0
2, 258118, Note_on_c, 0, 51, 64
2, 258121, Note_on_c, 0, 63, 72
2, 258122, Note_on_c, 0, 55, 63
2, 258122, Note_on_c, 0, 62, 0
2, 258226, Control_c, 0, 64, 46
2, 258242, Control_c, 0, 64, 66
2, 258257, Control_c, 0, 64, 70
2, 258272, Control_c, 0, 64, 73
2, 258288, Control_c, 0, 64, 76
2, 258302, Control_c, 0, 64, 77
2, 258317, Control_c, 0, 64, 78
2, 258348, Control_c, 0, 64, 76
2, 258364, Control_c, 0, 64, 69
2, 258378, Control_c, 0, 64, 10
2, 258380, Note_on_c, 0, 49, 71
2, 258380, Note_on_c, 0, 70, 88
2, 258393, Control_c, 0, 64, 0
2, 258436, Note_on_c, 0, 51, 0
2, 258440, Note_on_c, 0, 55, 0
2, 258455, Control_c, 0, 64, 59
2, 258470, Control_c, 0, 64, 68
2, 258486, Control_c, 0, 64, 75
2, 258497, Note_on_c, 0, 49, 0
2, 258500, Control_c, 0, 64, 81
2, 258515, Control_c, 0, 64, 84
2, 258531, Control_c, 0, 64, 86
2, 258546, Control_c, 0, 64, 87
2, 258561, Control_c, 0, 64, 88
2, 258576, Control_c, 0, 64, 89
2, 258593, Note_on_c, 0, 63, 0
2, 258623, Control_c, 0, 64, 88
2, 258638, Control_c, 0, 64, 82
2, 258643, Note_on_c, 0, 54, 68
2, 258646, Note_on_c, 0, 48, 76
2, 258649, Note_on_c, 0, 75, 90
2, 258653, Control_c, 0, 64, 70
2, 258668, Control_c, 0, 64, 0
2, 258688, Note_on_c, 0, 70, 0
2, 258751, Control_c, 0, 64, 25
2, 258767, Control_c, 0, 64, 63
2, 258782, Control_c, 0, 64, 71
2, 258797, Control_c, 0, 64, 78
2, 258813, Control_c, 0, 64, 85
2, 258828, Control_c, 0, 64, 88
2, 258873, Control_c, 0, 64, 86
2, 258889, Control_c, 0, 64, 78
2, 258904, Control_c, 0, 64, 65
2, 258916, Note_on_c, 0, 46, 72
2, 258920, Control_c, 0, 64, 0
2, 258922, Note_on_c, 0, 63, 86
2, 258980, Control_c, 0, 64, 27
2, 258994, Control_c, 0, 64, 65
2, 259010, Control_c, 0, 64, 71
2, 259025, Control_c, 0, 64, 78
2, 259041, Control_c, 0, 64, 83
2, 259046, Note_on_c, 0, 54, 0
2, 259056, Control_c, 0, 64, 86
2, 259069, Control_c, 0, 64, 88
2, 259085, Control_c, 0, 64, 89
2, 259100, Control_c, 0, 64, 90
2, 259106, Note_on_c, 0, 48, 0
2, 259139, Note_on_c, 0, 46, 0
2, 259146, Control_c, 0, 64, 89
2, 259162, Control_c, 0, 64, 84
2, 259176, Control_c, 0, 64, 71
2, 259177, Note_on_c, 0, 72, 87
2, 259179, Note_on_c, 0, 45, 75
2, 259179, Note_on_c, 0, 53, 75
2, 259191, Control_c, 0, 64, 0
2, 259192, Note_on_c, 0, 63, 0
2, 259210, Note_on_c, 0, 75, 0
2, 259267, Control_c, 0, 64, 39
2, 259283, Control_c, 0, 64, 65
2, 259298, Control_c, 0, 64, 71
2, 259313, Control_c, 0, 64, 78
2, 259329, Control_c, 0, 64, 84
2, 259343, Control_c, 0, 64, 88
2, 259358, Control_c, 0, 64, 90
2, 259374, Control_c, 0, 64, 90
2, 259389, Note_on_c, 0, 45, 0
2, 259420, Control_c, 0, 64, 87
2, 259433, Note_on_c, 0, 41, 80
2, 259435, Control_c, 0, 64, 78
2, 259442, Note_on_c, 0, 73, 84
2, 259451, Control_c, 0, 64, 64
2, 259465, Note_on_c, 0, 72, 0
2, 259466, Control_c, 0, 64, 0
2, 259518, Control_c, 0, 64, 32
2, 259534, Control_c, 0, 64, 64
2, 259549, Control_c, 0, 64, 70
2, 259565, Control_c, 0, 64, 76
2, 259575, Note_on_c, 0, 72, 87
2, 259580, Control_c, 0, 64, 80
2, 259589, Note_on_c, 0, 73, 0
2, 259595, Control_c, 0, 64, 82
2, 259611, Control_c, 0, 64, 84
2, 259617, Note_on_c, 0, 41, 0
2, 259626, Control_c, 0, 64, 85
2, 259641, Control_c, 0, 64, 86
2, 259656, Control_c, 0, 64, 87
2, 259702, Control_c, 0, 64, 86
2, 259705, Note_on_c, 0, 46, 87
2, 259711, Note_on_c, 0, 73, 91
2, 259716, Control_c, 0, 64, 85
2, 259732, Control_c, 0, 64, 78
2, 259747, Control_c, 0, 64, 65
2, 259763, Control_c, 0, 64, 0
2, 259970, Note_on_c, 0, 48, 80
2, 259979, Note_on_c, 0, 70, 82
2, 259993, Note_on_c, 0, 46, 0
2, 259993, Note_on_c, 0, 72, 0
2, 260109, Note_on_c, 0, 69, 83
2, 260109, Note_on_c, 0, 70, 0
2, 260207, Note_on_c, 0, 53, 0
2, 260225, Note_on_c, 0, 49, 88
2, 260237, Note_on_c, 0, 70, 85
2, 260247, Note_on_c, 0, 69, 0
2, 260267, Note_on_c, 0, 48, 0
2, 260334, Control_c, 0, 64, 63
2, 260348, Control_c, 0, 64, 67
2, 260364, Control_c, 0, 64, 70
2, 260369, Note_on_c, 0, 54, 87
2, 260379, Control_c, 0, 64, 72
2, 260394, Control_c, 0, 64, 75
2, 260410, Control_c, 0, 64, 77
2, 260424, Control_c, 0, 64, 79
2, 260455, Control_c, 0, 64, 79
2, 260478, Note_on_c, 0, 54, 0
2, 260485, Control_c, 0, 64, 78
2, 260485, Note_on_c, 0, 49, 0
2, 260492, Note_on_c, 0, 53, 85
2, 260499, Note_on_c, 0, 46, 86
2, 260500, Control_c, 0, 64, 68
2, 260515, Control_c, 0, 64, 0
2, 260611, Note_on_c, 0, 52, 87
2, 260637, Note_on_c, 0, 53, 0
2, 260731, Note_on_c, 0, 52, 0
2, 260748, Note_on_c, 0, 46, 0
2, 260755, Note_on_c, 0, 53, 100
2, 260849, Control_c, 0, 64, 64
2, 260895, Control_c, 0, 64, 65
2, 260910, Control_c, 0, 64, 67
2, 260926, Control_c, 0, 64, 69
2, 260940, Control_c, 0, 64, 71
2, 260955, Control_c, 0, 64, 71
2, 260986, Control_c, 0, 64, 70
2, 261002, Control_c, 0, 64, 65
2, 261004, Note_on_c, 0, 70, 0
2, 261007, Note_on_c, 0, 53, 0
2, 261016, Control_c, 0, 64, 25
2, 261025, Note_on_c, 0, 41, 101
2, 261038, Control_c, 0, 64, 0
2, 261038, Note_on_c, 0, 72, 86
2, 261082, Note_on_c, 0, 73, 0
2, 261146, Control_c, 0, 64, 58
2, 261162, Control_c, 0, 64, 65
2, 261173, Note_on_c, 0, 70, 87
2, 261177, Control_c, 0, 64, 67
2, 261185, Note_on_c, 0, 72, 0
2, 261191, Control_c, 0, 64, 69
2, 261207, Control_c, 0, 64, 70
2, 261222, Control_c, 0, 64, 71
2, 261237, Control_c, 0, 64, 71
2, 261267, Control_c, 0, 64, 68
2, 261283, Control_c, 0, 64, 56
2, 261293, Note_on_c, 0, 41, 0
2, 261298, Control_c, 0, 64, 0
2, 261301, Note_on_c, 0, 53, 98
2, 261309, Note_on_c, 0, 72, 98
2, 261313, Note_on_c, 0, 70, 0
2, 261374, Control_c, 0, 64, 56
2, 261389, Control_c, 0, 64, 65
2, 261390, Note_on_c, 0, 53, 0
2, 261404, Control_c, 0, 64, 67
2, 261419, Control_c, 0, 64, 68
2, 261434, Control_c, 0, 64, 69
2, 261449, Control_c, 0, 64, 70
2, 261464, Control_c, 0, 64, 72
2, 261480, Control_c, 0, 64, 73
2, 261525, Control_c, 0, 64, 73
2, 261540, Control_c, 0, 64, 70
2, 261555, Control_c, 0, 64, 63
2, 261564, Note_on_c, 0, 60, 92
2, 261571, Control_c, 0, 64, 36
2, 261574, Note_on_c, 0, 69, 82
2, 261586, Control_c, 0, 64, 0
2, 261677, Control_c, 0, 64, 28
2, 261693, Control_c, 0, 64, 44
2, 261704, Note_on_c, 0, 67, 84
2, 261708, Control_c, 0, 64, 51
2, 261722, Note_on_c, 0, 69, 0
2, 261723, Control_c, 0, 64, 54
2, 261738, Control_c, 0, 64, 57
2, 261753, Control_c, 0, 64, 59
2, 261756, Note_on_c, 0, 60, 0
2, 261769, Control_c, 0, 64, 62
2, 261784, Control_c, 0, 64, 62
2, 261806, Control_c, 0, 64, 59
2, 261821, Control_c, 0, 64, 38
2, 261833, Note_on_c, 0, 67, 0
2, 261833, Note_on_c, 0, 72, 0
2, 261836, Control_c, 0, 64, 0
2, 261852, Note_on_c, 0, 65, 96
2, 261852, Note_on_c, 0, 69, 97
2, 261898, Control_c, 0, 64, 47
2, 261913, Control_c, 0, 64, 63
2, 261929, Control_c, 0, 64, 68
2, 261944, Control_c, 0, 64, 70
2, 261958, Control_c, 0, 64, 72
2, 261974, Control_c, 0, 64, 72
2, 262000, Note_on_c, 0, 54, 81
2, 262005, Control_c, 0, 64, 71
2, 262020, Control_c, 0, 64, 68
2, 262035, Control_c, 0, 64, 60
2, 262051, Control_c, 0, 64, 0
2, 262115, Note_on_c, 0, 54, 0
2, 262127, Note_on_c, 0, 51, 81
2, 262171, Note_on_c, 0, 65, 0
2, 262194, Note_on_c, 0, 69, 0
2, 262203, Control_c, 0, 64, 51
2, 262218, Control_c, 0, 64, 74
2, 262233, Control_c, 0, 64, 83
2, 262248, Control_c, 0, 64, 88
2, 262257, Note_on_c, 0, 53, 85
2, 262263, Control_c, 0, 64, 89
2, 262276, Note_on_c, 0, 51, 0
2, 262278, Control_c, 0, 64, 90
2, 262291, Control_c, 0, 64, 91
2, 262306, Control_c, 0, 64, 92
2, 262321, Control_c, 0, 64, 92
2, 262352, Control_c, 0, 64, 93
2, 262382, Control_c, 0, 64, 92
2, 262393, Note_on_c, 0, 53, 0
2, 262397, Control_c, 0, 64, 81
2, 262402, Note_on_c, 0, 54, 88
2, 262402, Note_on_c, 0, 70, 102
2, 262411, Note_on_c, 0, 61, 100
2, 262413, Control_c, 0, 64, 0
2, 262538, Note_on_c, 0, 54, 0
2, 262546, Note_on_c, 0, 56, 83
2, 262687, Note_on_c, 0, 56, 0
2, 262695, Note_on_c, 0, 54, 78
2, 262740, Control_c, 0, 64, 62
2, 262755, Control_c, 0, 64, 64
2, 262771, Control_c, 0, 64, 65
2, 262787, Note_on_c, 0, 54, 0
2, 262800, Control_c, 0, 64, 66
2, 262816, Control_c, 0, 64, 68
2, 262818, Note_on_c, 0, 53, 85
2, 262823, Note_on_c, 0, 61, 0
2, 262831, Control_c, 0, 64, 69
2, 262847, Control_c, 0, 64, 70
2, 262862, Control_c, 0, 64, 71
2, 262872, Note_on_c, 0, 70, 0
2, 262876, Control_c, 0, 64, 72
2, 262889, Note_on_c, 0, 53, 0
2, 262892, Control_c, 0, 64, 73
2, 262907, Control_c, 0, 64, 71
2, 262922, Control_c, 0, 64, 63
2, 262938, Control_c, 0, 64, 0
2, 262948, Note_on_c, 0, 72, 100
2, 262951, Note_on_c, 0, 51, 91
2, 262952, Note_on_c, 0, 63, 105
2, 262956, Note_on_c, 0, 54, 89
2, 263165, Control_c, 0, 64, 71
2, 263181, Control_c, 0, 64, 78
2, 263196, Control_c, 0, 64, 82
2, 263211, Control_c, 0, 64, 83
2, 263214, Note_on_c, 0, 54, 0
2, 263225, Note_on_c, 0, 51, 0
2, 263241, Control_c, 0, 64, 83
2, 263302, Note_on_c, 0, 63, 0
2, 263349, Note_on_c, 0, 72, 0
2, 263371, Control_c, 0, 64, 80
2, 263386, Control_c, 0, 64, 71
2, 263401, Control_c, 0, 64, 35
2, 263416, Control_c, 0, 64, 0
2, 263482, Note_on_c, 0, 53, 94
2, 263483, Note_on_c, 0, 49, 97
2, 263756, Note_on_c, 0, 49, 0
2, 263760, Note_on_c, 0, 53, 0
2, 263763, Note_on_c, 0, 73, 96
2, 263767, Note_on_c, 0, 65, 89
2, 263945, Note_on_c, 0, 65, 0
2, 263965, Note_on_c, 0, 73, 0
2, 264025, Note_on_c, 0, 75, 105
2, 264029, Note_on_c, 0, 66, 94
2, 264088, Control_c, 0, 64, 63
2, 264124, Control_c, 0, 64, 62
2, 264140, Control_c, 0, 64, 63
2, 264155, Control_c, 0, 64, 64
2, 264171, Control_c, 0, 64, 65
2, 264194, Note_on_c, 0, 75, 0
2, 264200, Control_c, 0, 64, 64
2, 264216, Control_c, 0, 64, 59
2, 264225, Note_on_c, 0, 66, 0
2, 264231, Control_c, 0, 64, 22
2, 264247, Control_c, 0, 64, 0
2, 264295, Note_on_c, 0, 69, 104
2, 264297, Note_on_c, 0, 51, 90
2, 264299, Note_on_c, 0, 48, 82
2, 264302, Note_on_c, 0, 60, 89
2, 264366, Control_c, 0, 64, 52
2, 264382, Control_c, 0, 64, 67
2, 264397, Control_c, 0, 64, 71
2, 264412, Control_c, 0, 64, 73
2, 264412, Note_on_c, 0, 48, 0
2, 264414, Note_on_c, 0, 69, 0
2, 264434, Note_on_c, 0, 51, 0
2, 264464, Note_on_c, 0, 60, 0
2, 264473, Control_c, 0, 64, 72
2, 264488, Control_c, 0, 64, 69
2, 264504, Control_c, 0, 64, 62
2, 264519, Control_c, 0, 64, 0
2, 264559, Note_on_c, 0, 46, 85
2, 264560, Note_on_c, 0, 50, 88
2, 264564, Note_on_c, 0, 70, 99
2, 264571, Note_on_c, 0, 62, 94
2, 264656, Control_c, 0, 64, 65
2, 264666, Note_on_c, 0, 50, 0
2, 264671, Control_c, 0, 64, 70
2, 264686, Control_c, 0, 64, 73
2, 264701, Control_c, 0, 64, 74
2, 264713, Note_on_c, 0, 46, 0
2, 264746, Control_c, 0, 64, 72
2, 264761, Control_c, 0, 64, 63
2, 264777, Control_c, 0, 64, 0
2, 264820, Note_on_c, 0, 56, 93
2, 264824, Note_on_c, 0, 53, 89
2, 264827, Note_on_c, 0, 62, 0
2, 264841, Note_on_c, 0, 70, 0
2, 264908, Control_c, 0, 64, 63
2, 264923, Control_c, 0, 64, 67
2, 264939, Control_c, 0, 64, 68
2, 264969, Control_c, 0, 64, 68
2, 264984, Control_c, 0, 64, 66
2, 264984, Note_on_c, 0, 56, 0
2, 264999, Control_c, 0, 64, 52
2, 265015, Control_c, 0, 64, 0
2, 265029, Note_on_c, 0, 53, 0
2, 265092, Note_on_c, 0, 54, 95
2, 265097, Note_on_c, 0, 51, 86
2, 265168, Control_c, 0, 64, 42
2, 265182, Control_c, 0, 64, 64
2, 265197, Control_c, 0, 64, 62
2, 265215, Control_c, 0, 64, 53
2, 265230, Control_c, 0, 64, 0
2, 265347, Note_on_c, 0, 54, 0
2, 265362, Note_on_c, 0, 51, 0
2, 265370, Note_on_c, 0, 72, 97
2, 265374, Note_on_c, 0, 69, 87
2, 265397, Control_c, 0, 64, 25
2, 265413, Control_c, 0, 64, 70
2, 265428, Control_c, 0, 64, 74
2, 265444, Control_c, 0, 64, 77
2, 265466, Note_on_c, 0, 72, 0
2, 265489, Control_c, 0, 64, 78
2, 265504, Control_c, 0, 64, 79
2, 265549, Control_c, 0, 64, 70
2, 265565, Control_c, 0, 64, 0
2, 265575, Note_on_c, 0, 69, 0
2, 265623, Note_on_c, 0, 73, 88
2, 265626, Note_on_c, 0, 70, 89
2, 265695, Note_on_c, 0, 70, 0
2, 265709, Control_c, 0, 64, 49
2, 265724, Control_c, 0, 64, 0
2, 265752, Note_on_c, 0, 67, 71
2, 265752, Note_on_c, 0, 70, 79
2, 265786, Note_on_c, 0, 73, 0
2, 265814, Note_on_c, 0, 67, 0
2, 265875, Note_on_c, 0, 49, 70
2, 265880, Note_on_c, 0, 53, 67
2, 265882, Note_on_c, 0, 72, 82
2, 265883, Note_on_c, 0, 69, 79
2, 265894, Note_on_c, 0, 70, 0
2, 265936, Control_c, 0, 64, 57
2, 265951, Control_c, 0, 64, 71
2, 265967, Control_c, 0, 64, 74
2, 265980, Note_on_c, 0, 53, 0
2, 265982, Control_c, 0, 64, 75
2, 265985, Note_on_c, 0, 72, 0
2, 265994, Note_on_c, 0, 69, 0
2, 265997, Control_c, 0, 64, 75
2, 265997, Note_on_c, 0, 70, 86
2, 266002, Note_on_c, 0, 73, 76
2, 266013, Control_c, 0, 64, 76
2, 266028, Control_c, 0, 64, 76
2, 266044, Control_c, 0, 64, 75
2, 266058, Control_c, 0, 64, 69
2, 266061, Note_on_c, 0, 49, 0
2, 266073, Control_c, 0, 64, 0
2, 266076, Note_on_c, 0, 73, 0
2, 266087, Note_on_c, 0, 70, 0
2, 266126, Note_on_c, 0, 51, 79
2, 266126, Note_on_c, 0, 75, 93
2, 266132, Note_on_c, 0, 72, 84
2, 266133, Note_on_c, 0, 48, 68
2, 266165, Control_c, 0, 64, 52
2, 266180, Control_c, 0, 64, 70
2, 266185, Note_on_c, 0, 72, 0
2, 266195, Control_c, 0, 64, 77
2, 266211, Control_c, 0, 64, 80
2, 266220, Note_on_c, 0, 48, 0
2, 266223, Note_on_c, 0, 51, 0
2, 266241, Control_c, 0, 64, 78
2, 266251, Note_on_c, 0, 51, 51
2, 266251, Note_on_c, 0, 54, 76
2, 266251, Note_on_c, 0, 69, 76
2, 266253, Note_on_c, 0, 72, 85
2, 266256, Control_c, 0, 64, 66
2, 266263, Note_on_c, 0, 75, 0
2, 266271, Control_c, 0, 64, 0
2, 266304, Note_on_c, 0, 69, 0
2, 266327, Note_on_c, 0, 54, 0
2, 266353, Note_on_c, 0, 72, 0
2, 266377, Note_on_c, 0, 49, 71
2, 266379, Note_on_c, 0, 53, 76
2, 266379, Note_on_c, 0, 70, 85
2, 266380, Note_on_c, 0, 73, 87
2, 266385, Note_on_c, 0, 51, 0
2, 266471, Note_on_c, 0, 73, 0
2, 266474, Note_on_c, 0, 70, 0
2, 266506, Note_on_c, 0, 53, 0
2, 266511, Note_on_c, 0, 51, 73
2, 266515, Note_on_c, 0, 75, 79
2, 266517, Note_on_c, 0, 48, 62
2, 266517, Note_on_c, 0, 72, 91
2, 266532, Note_on_c, 0, 49, 0
2, 266590, Note_on_c, 0, 48, 0
2, 266590, Note_on_c, 0, 75, 0
2, 266614, Note_on_c, 0, 72, 0
2, 266621, Note_on_c, 0, 51, 0
2, 266635, Note_on_c, 0, 46, 78
2, 266635, Note_on_c, 0, 49, 82
2, 266637, Note_on_c, 0, 77, 95
2, 266644, Note_on_c, 0, 73, 84
2, 266673, Control_c, 0, 64, 67
2, 266689, Control_c, 0, 64, 81
2, 266704, Control_c, 0, 64, 86
2, 266704, Note_on_c, 0, 73, 0
2, 266718, Control_c, 0, 64, 87
2, 266725, Note_on_c, 0, 49, 0
2, 266745, Note_on_c, 0, 46, 0
2, 266750, Note_on_c, 0, 77, 0
2, 266762, Note_on_c, 0, 70, 85
2, 266762, Note_on_c, 0, 73, 78
2, 266764, Note_on_c, 0, 49, 66
2, 266768, Note_on_c, 0, 53, 74
2, 266819, Note_on_c, 0, 53, 0
2, 266827, Control_c, 0, 64, 85
2, 266835, Note_on_c, 0, 70, 0
2, 266843, Control_c, 0, 64, 79
2, 266858, Control_c, 0, 64, 65
2, 266872, Control_c, 0, 64, 0
2, 266876, Note_on_c, 0, 49, 0
2, 266893, Note_on_c, 0, 51, 79
2, 266895, Note_on_c, 0, 72, 83
2, 266898, Note_on_c, 0, 75, 91
2, 266899, Note_on_c, 0, 48, 77
2, 266921, Note_on_c, 0, 73, 0
2, 266980, Note_on_c, 0, 51, 0
2, 266981, Note_on_c, 0, 75, 0
2, 266998, Note_on_c, 0, 49, 65
2, 267004, Note_on_c, 0, 46, 72
2, 267004, Note_on_c, 0, 77, 88
2, 267015, Note_on_c, 0, 73, 86
2, 267018, Note_on_c, 0, 72, 0
2, 267021, Note_on_c, 0, 48, 0
2, 267087, Note_on_c, 0, 46, 0
2, 267090, Note_on_c, 0, 77, 0
2, 267101, Note_on_c, 0, 49, 0
2, 267105, Note_on_c, 0, 73, 0
2, 267135, Note_on_c, 0, 48, 84
2, 267137, Note_on_c, 0, 78, 101
2, 267141, Note_on_c, 0, 45, 73
2, 267141, Note_on_c, 0, 75, 91
2, 267184, Control_c, 0, 64, 56
2, 267200, Control_c, 0, 64, 83
2, 267214, Control_c, 0, 64, 91
2, 267217, Note_on_c, 0, 75, 0
2, 267229, Control_c, 0, 64, 91
2, 267235, Note_on_c, 0, 48, 0
2, 267263, Note_on_c, 0, 78, 0
2, 267266, Note_on_c, 0, 51, 80
2, 267267, Note_on_c, 0, 48, 59
2, 267269, Note_on_c, 0, 72, 94
2, 267272, Note_on_c, 0, 45, 0
2, 267273, Note_on_c, 0, 75, 88
2, 267313, Note_on_c, 0, 51, 0
2, 267356, Note_on_c, 0, 72, 0
2, 267360, Note_on_c, 0, 75, 0
2, 267369, Control_c, 0, 64, 89
2, 267384, Control_c, 0, 64, 81
2, 267400, Control_c, 0, 64, 60
2, 267400, Note_on_c, 0, 73, 90
2, 267402, Note_on_c, 0, 77, 92
2, 267404, Note_on_c, 0, 49, 80
2, 267409, Note_on_c, 0, 46, 83
2, 267414, Control_c, 0, 64, 0
2, 267416, Note_on_c, 0, 48, 0
2, 267496, Note_on_c, 0, 49, 0
2, 267509, Note_on_c, 0, 46, 0
2, 267527, Note_on_c, 0, 45, 71
2, 267528, Note_on_c, 0, 48, 81
2, 267602, Note_on_c, 0, 45, 0
2, 267615, Note_on_c, 0, 48, 0
2, 267632, Note_on_c, 0, 77, 0
2, 267653, Note_on_c, 0, 73, 0
2, 267654, Note_on_c, 0, 43, 85
2, 267654, Note_on_c, 0, 46, 92
2, 267720, Control_c, 0, 64, 76
2, 267723, Note_on_c, 0, 46, 0
2, 267734, Control_c, 0, 64, 82
2, 267764, Control_c, 0, 64, 80
2, 267779, Control_c, 0, 64, 79
2, 267779, Note_on_c, 0, 49, 93
2, 267785, Note_on_c, 0, 46, 79
2, 267825, Control_c, 0, 64, 77
2, 267825, Note_on_c, 0, 43, 0
2, 267840, Control_c, 0, 64, 73
2, 267842, Note_on_c, 0, 49, 0
2, 267855, Control_c, 0, 64, 67
2, 267861, Note_on_c, 0, 46, 0
2, 267870, Control_c, 0, 64, 58
2, 267886, Control_c, 0, 64, 49
2, 267901, Control_c, 0, 64, 47
2, 267917, Control_c, 0, 64, 27
2, 267926, Note_on_c, 0, 78, 98
2, 267927, Note_on_c, 0, 48, 84
2, 267929, Note_on_c, 0, 45, 82
2, 267929, Note_on_c, 0, 75, 95
2, 267932, Control_c, 0, 64, 0
2, 268164, Note_on_c, 0, 45, 0
2, 268168, Note_on_c, 0, 48, 0
2, 268177, Note_on_c, 0, 78, 0
2, 268184, Note_on_c, 0, 75, 0
2, 268234, Note_on_c, 0, 72, 96
2, 268238, Note_on_c, 0, 69, 88
2, 268313, Control_c, 0, 64, 70
2, 268327, Control_c, 0, 64, 82
2, 268343, Control_c, 0, 64, 86
2, 268350, Note_on_c, 0, 72, 0
2, 268388, Control_c, 0, 64, 87
2, 268403, Control_c, 0, 64, 88
2, 268419, Control_c, 0, 64, 88
2, 268435, Control_c, 0, 64, 89
2, 268450, Control_c, 0, 64, 89
2, 268496, Control_c, 0, 64, 86
2, 268509, Note_on_c, 0, 69, 0
2, 268511, Control_c, 0, 64, 75
2, 268526, Control_c, 0, 64, 33
2, 268540, Note_on_c, 0, 53, 73
2, 268541, Note_on_c, 0, 73, 87
2, 268542, Control_c, 0, 64, 0
2, 268546, Note_on_c, 0, 41, 75
2, 268550, Note_on_c, 0, 70, 82
2, 268617, Control_c, 0, 64, 51
2, 268623, Note_on_c, 0, 70, 0
2, 268631, Note_on_c, 0, 73, 0
2, 268632, Control_c, 0, 64, 69
2, 268634, Note_on_c, 0, 41, 0
2, 268647, Control_c, 0, 64, 76
2, 268663, Control_c, 0, 64, 81
2, 268678, Control_c, 0, 64, 82
2, 268679, Note_on_c, 0, 72, 82
2, 268680, Note_on_c, 0, 75, 90
2, 268694, Control_c, 0, 64, 83
2, 268732, Control_c, 0, 64, 84
2, 268762, Control_c, 0, 64, 84
2, 268778, Control_c, 0, 64, 85
2, 268787, Note_on_c, 0, 72, 0
2, 268799, Note_on_c, 0, 75, 0
2, 268821, Control_c, 0, 64, 84
2, 268822, Note_on_c, 0, 53, 0
2, 268836, Control_c, 0, 64, 79
2, 268851, Control_c, 0, 64, 66
2, 268862, Note_on_c, 0, 73, 96
2, 268863, Note_on_c, 0, 46, 82
2, 268865, Note_on_c, 0, 70, 92
2, 268867, Control_c, 0, 64, 0
2, 268868, Note_on_c, 0, 65, 82
2, 268972, Control_c, 0, 64, 65
2, 268988, Control_c, 0, 64, 78
2, 269003, Control_c, 0, 64, 88
2, 269017, Control_c, 0, 64, 93
2, 269033, Control_c, 0, 64, 95
2, 269034, Note_on_c, 0, 65, 0
2, 269034, Note_on_c, 0, 70, 0
2, 269048, Control_c, 0, 64, 97
2, 269064, Control_c, 0, 64, 101
2, 269079, Control_c, 0, 64, 105
2, 269090, Note_on_c, 0, 46, 0
2, 269093, Control_c, 0, 64, 107
2, 269109, Control_c, 0, 64, 109
2, 269124, Control_c, 0, 64, 112
2, 269139, Control_c, 0, 64, 114
2, 269155, Control_c, 0, 64, 117
2, 269170, Control_c, 0, 64, 120
2, 269186, Control_c, 0, 64, 120
2, 269243, Note_on_c, 0, 73, 0
2, 269247, Control_c, 0, 64, 118
2, 269262, Control_c, 0, 64, 107
2, 269277, Control_c, 0, 64, 94
2, 269286, Note_on_c, 0, 72, 95
2, 269289, Note_on_c, 0, 51, 80
2, 269290, Note_on_c, 0, 66, 90
2, 269292, Control_c, 0, 64, 77
2, 269293, Note_on_c, 0, 63, 90
2, 269308, Control_c, 0, 64, 46
2, 269323, Control_c, 0, 64, 0
2, 269445, Control_c, 0, 64, 63
2, 269459, Control_c, 0, 64, 74
2, 269482, Control_c, 0, 64, 85
2, 269497, Control_c, 0, 64, 90
2, 269501, Note_on_c, 0, 72, 0
2, 269513, Control_c, 0, 64, 92
2, 269528, Control_c, 0, 64, 94
2, 269544, Control_c, 0, 64, 97
2, 269553, Note_on_c, 0, 66, 0
2, 269559, Control_c, 0, 64, 100
2, 269570, Note_on_c, 0, 63, 0
2, 269573, Control_c, 0, 64, 101
2, 269589, Control_c, 0, 64, 101
2, 269619, Control_c, 0, 64, 102
2, 269650, Control_c, 0, 64, 102
2, 269665, Control_c, 0, 64, 103
2, 269680, Control_c, 0, 64, 104
2, 269711, Control_c, 0, 64, 105
2, 269726, Control_c, 0, 64, 106
2, 269741, Control_c, 0, 64, 109
2, 269756, Control_c, 0, 64, 114
2, 269771, Control_c, 0, 64, 119
2, 269778, Note_on_c, 0, 51, 0
2, 269786, Control_c, 0, 64, 119
2, 269816, Control_c, 0, 64, 114
2, 269830, Note_on_c, 0, 70, 104
2, 269832, Control_c, 0, 64, 105
2, 269833, Note_on_c, 0, 53, 79
2, 269834, Note_on_c, 0, 61, 93
2, 269836, Note_on_c, 0, 65, 92
2, 269847, Control_c, 0, 64, 92
2, 269862, Control_c, 0, 64, 75
2, 269877, Control_c, 0, 64, 49
2, 269892, Control_c, 0, 64, 0
2, 270090, Control_c, 0, 64, 52
2, 270106, Control_c, 0, 64, 65
2, 270121, Control_c, 0, 64, 69
2, 270136, Control_c, 0, 64, 72
2, 270152, Control_c, 0, 64, 77
2, 270167, Control_c, 0, 64, 82
2, 270183, Control_c, 0, 64, 87
2, 270198, Control_c, 0, 64, 90
2, 270212, Control_c, 0, 64, 93
2, 270228, Control_c, 0, 64, 95
2, 270250, Control_c, 0, 64, 97
2, 270266, Control_c, 0, 64, 99
2, 270281, Control_c, 0, 64, 101
2, 270296, Control_c, 0, 64, 104
2, 270311, Control_c, 0, 64, 106
2, 270319, Note_on_c, 0, 61, 0
2, 270326, Control_c, 0, 64, 108
2, 270342, Control_c, 0, 64, 109
2, 270357, Control_c, 0, 64, 111
2, 270372, Control_c, 0, 64, 112
2, 270387, Control_c, 0, 64, 113
2, 270402, Control_c, 0, 64, 113
2, 270479, Control_c, 0, 64, 114
2, 270736, Control_c, 0, 64, 114
2, 270752, Control_c, 0, 64, 115
2, 270767, Control_c, 0, 64, 116
2, 270812, Control_c, 0, 64, 108
2, 270828, Control_c, 0, 64, 93
2, 270829, Note_on_c, 0, 53, 0
2, 270843, Control_c, 0, 64, 69
2, 270846, Note_on_c, 0, 41, 85
2, 270848, Note_on_c, 0, 60, 92
2, 270857, Control_c, 0, 64, 0
2, 270934, Control_c, 0, 64, 49
2, 270950, Control_c, 0, 64, 70
2, 270965, Control_c, 0, 64, 82
2, 270981, Control_c, 0, 64, 92
2, 270996, Control_c, 0, 64, 97
2, 271018, Control_c, 0, 64, 99
2, 271034, Control_c, 0, 64, 100
2, 271049, Control_c, 0, 64, 103
2, 271065, Control_c, 0, 64, 105
2, 271079, Control_c, 0, 64, 107
2, 271092, Note_on_c, 0, 70, 0
2, 271094, Control_c, 0, 64, 108
2, 271110, Control_c, 0, 64, 109
2, 271125, Control_c, 0, 64, 110
2, 271141, Control_c, 0, 64, 111
2, 271170, Control_c, 0, 64, 111
2, 271246, Control_c, 0, 64, 112
2, 271279, Note_on_c, 0, 69, 75
2, 271292, Control_c, 0, 64, 112
2, 271308, Control_c, 0, 64, 113
2, 271337, Control_c, 0, 64, 113
2, 271353, Control_c, 0, 64, 114
2, 271355, Note_on_c, 0, 69, 0
2, 271368, Control_c, 0, 64, 115
2, 271381, Control_c, 0, 64, 116
2, 271390, Note_on_c, 0, 70, 65
2, 271397, Control_c, 0, 64, 117
2, 271412, Control_c, 0, 64, 118
2, 271426, Control_c, 0, 64, 119
2, 271428, Note_on_c, 0, 70, 0
2, 271442, Control_c, 0, 64, 121
2, 271457, Control_c, 0, 64, 127
2, 271460, Note_on_c, 0, 69, 53
2, 271477, Note_on_c, 0, 69, 0
2, 271485, Note_on_c, 0, 70, 76
2, 271532, Note_on_c, 0, 69, 88
2, 271533, Control_c, 0, 64, 87
2, 271548, Control_c, 0, 64, 0
2, 271549, Note_on_c, 0, 70, 0
2, 272228, Note_on_c, 0, 70, 89
2, 272283, Note_on_c, 0, 69, 0
2, 272377, Control_c, 0, 64, 36
2, 272392, Control_c, 0, 64, 59
2, 272407, Control_c, 0, 64, 62
2, 272422, Control_c, 0, 64, 64
2, 272438, Control_c, 0, 64, 67
2, 272452, Control_c, 0, 64, 73
2, 272468, Control_c, 0, 64, 79
2, 272483, Control_c, 0, 64, 82
2, 272498, Control_c, 0, 64, 82
2, 272515, Control_c, 0, 64, 83
2, 272530, Control_c, 0, 64, 85
2, 272553, Control_c, 0, 64, 89
2, 272568, Control_c, 0, 64, 93
2, 272583, Control_c, 0, 64, 95
2, 272599, Control_c, 0, 64, 96
2, 272613, Control_c, 0, 64, 96
2, 272629, Control_c, 0, 64, 97
2, 272644, Control_c, 0, 64, 98
2, 272659, Control_c, 0, 64, 98
2, 272675, Control_c, 0, 64, 99
2, 272678, Note_on_c, 0, 60, 0
2, 272689, Control_c, 0, 64, 99
2, 272718, Note_on_c, 0, 65, 0
2, 272773, Note_on_c, 0, 70, 0
2, 272845, Note_on_c, 0, 41, 0
2, 273145, Control_c, 0, 64, 98
2, 273160, Control_c, 0, 64, 94
2, 273164, Note_on_c, 0, 70, 88
2, 273167, Note_on_c, 0, 46, 75
2, 273170, Note_on_c, 0, 65, 75
2, 273171, Note_on_c, 0, 62, 77
2, 273175, Control_c, 0, 64, 90
2, 273191, Control_c, 0, 64, 83
2, 273206, Control_c, 0, 64, 75
2, 273221, Control_c, 0, 64, 65
2, 273236, Control_c, 0, 64, 41
2, 273251, Control_c, 0, 64, 0
2, 273470, Control_c, 0, 64, 18
2, 273486, Control_c, 0, 64, 34
2, 273501, Control_c, 0, 64, 41
2, 273516, Control_c, 0, 64, 46
2, 273531, Control_c, 0, 64, 50
2, 273546, Control_c, 0, 64, 53
2, 273562, Control_c, 0, 64, 55
2, 273577, Control_c, 0, 64, 57
2, 273591, Control_c, 0, 64, 59
2, 273607, Control_c, 0, 64, 61
2, 273622, Control_c, 0, 64, 62
2, 273638, Control_c, 0, 64, 63
2, 273652, Control_c, 0, 64, 64
2, 273667, Control_c, 0, 64, 64
2, 273682, Control_c, 0, 64, 65
2, 273697, Control_c, 0, 64, 65
2, 273712, Control_c, 0, 64, 66
2, 273727, Control_c, 0, 64, 67
2, 273742, Control_c, 0, 64, 68
2, 273758, Control_c, 0, 64, 68
2, 273773, Control_c, 0, 64, 69
2, 273788, Control_c, 0, 64, 70
2, 273819, Control_c, 0, 64, 70
2, 273835, Control_c, 0, 64, 71
2, 273849, Control_c, 0, 64, 72
2, 273864, Control_c, 0, 64, 73
2, 273880, Control_c, 0, 64, 74
2, 273895, Control_c, 0, 64, 74
2, 273910, Control_c, 0, 64, 75
2, 273916, Control_c, 0, 64, 75
2, 273927, Control_c, 0, 64, 76
2, 273942, Control_c, 0, 64, 77
2, 273958, Control_c, 0, 64, 77
2, 273987, Control_c, 0, 64, 78
2, 274018, Control_c, 0, 64, 78
2, 274033, Control_c, 0, 64, 79
2, 274046, Control_c, 0, 64, 79
2, 274069, Control_c, 0, 64, 80
2, 274085, Control_c, 0, 64, 81
2, 274115, Control_c, 0, 64, 81
2, 274146, Control_c, 0, 64, 82
2, 274177, Control_c, 0, 64, 82
2, 274198, Control_c, 0, 64, 83
2, 274228, Control_c, 0, 64, 83
2, 274259, Control_c, 0, 64, 84
2, 274289, Control_c, 0, 64, 84
2, 274304, Control_c, 0, 64, 85
2, 274335, Control_c, 0, 64, 85
2, 274349, Control_c, 0, 64, 86
2, 274365, Control_c, 0, 64, 86
2, 274380, Control_c, 0, 64, 87
2, 274410, Control_c, 0, 64, 87
2, 274456, Control_c, 0, 64, 88
2, 274501, Control_c, 0, 64, 88
2, 274577, Control_c, 0, 64, 89
2, 274654, Control_c, 0, 64, 89
2, 274715, Control_c, 0, 64, 90
2, 275057, Control_c, 0, 64, 90
2, 276562, Control_c, 0, 64, 90
2, 276608, Control_c, 0, 64, 89
2, 276639, Control_c, 0, 64, 88
2, 276654, Control_c, 0, 64, 88
2, 276668, Control_c, 0, 64, 87
2, 276684, Control_c, 0, 64, 86
2, 276699, Control_c, 0, 64, 84
2, 276715, Control_c, 0, 64, 84
2, 276730, Control_c, 0, 64, 83
2, 276744, Control_c, 0, 64, 82
2, 276760, Control_c, 0, 64, 80
2, 276775, Control_c, 0, 64, 79
2, 276780, Note_on_c, 0, 46, 0
2, 276790, Control_c, 0, 64, 78
2, 276798, Note_on_c, 0, 70, 0
2, 276806, Control_c, 0, 64, 77
2, 276812, Note_on_c, 0, 62, 0
2, 276821, Control_c, 0, 64, 77
2, 276837, Control_c, 0, 64, 75
2, 276852, Control_c, 0, 64, 74
2, 276867, Control_c, 0, 64, 73
2, 276882, Control_c, 0, 64, 72
2, 276890, Note_on_c, 0, 65, 0
2, 276897, Control_c, 0, 64, 71
2, 276913, Control_c, 0, 64, 70
2, 276927, Control_c, 0, 64, 70
2, 276942, Control_c, 0, 64, 69
2, 276988, Control_c, 0, 64, 69
2, 277018, Control_c, 0, 64, 68
2, 277034, Control_c, 0, 64, 67
2, 277049, Control_c, 0, 64, 67
2, 277064, Control_c, 0, 64, 66
2, 277079, Control_c, 0, 64, 66
2, 277147, Control_c, 0, 64, 65
2, 277163, Control_c, 0, 64, 65
2, 277178, Control_c, 0, 64, 64
2, 277194, Control_c, 0, 64, 64
2, 277208, Control_c, 0, 64, 63
2, 277254, Control_c, 0, 64, 63
2, 277269, Control_c, 0, 64, 62
2, 277284, Control_c, 0, 64, 62
2, 277299, Control_c, 0, 64, 61
2, 277315, Control_c, 0, 64, 61
2, 277344, Control_c, 0, 64, 60
2, 277360, Control_c, 0, 64, 59
2, 277375, Control_c, 0, 64, 58
2, 277390, Control_c, 0, 64, 57
2, 277406, Control_c, 0, 64, 56
2, 277422, Control_c, 0, 64, 55
2, 277437, Control_c, 0, 64, 53
2, 277452, Control_c, 0, 64, 52
2, 277467, Control_c, 0, 64, 50
2, 277483, Control_c, 0, 64, 49
2, 277498, Control_c, 0, 64, 48
2, 277513, Control_c, 0, 64, 47
2, 277528, Control_c, 0, 64, 47
2, 277543, Control_c, 0, 64, 46
2, 277559, Control_c, 0, 64, 44
2, 277573, Control_c, 0, 64, 43
2, 277635, Control_c, 0, 64, 43
2, 277681, Control_c, 0, 64, 42
2, 277710, Control_c, 0, 64, 42
2, 277757, Control_c, 0, 64, 41
2, 277786, Control_c, 0, 64, 41
2, 277787, End_track
0, 0, End_of_file
