0, 0, Header, 1, 2, 384
1, 0, Start_track
1, 0, Tempo, 500000
1, 0, Time_signature, 4, 2, 24, 8
1, 1, End_track
2,0,Start_track
2,0, Note_on_c, 0, 58, 94
2,282, Note_on_c, 0, 58, 0
2,532, Note_on_c, 0, 60, 95
2,840, Note_on_c, 0, 60, 0
2,1367, Note_on_c, 0, 61, 93
2,1553, Note_on_c, 0, 61, 0
2,1650, Note_on_c, 0, 63, 92
2,1836, Note_on_c, 0, 63, 0
2,1940, Note_on_c, 0, 57, 84
2,2139, Note_on_c, 0, 57, 0
2,2228, Note_on_c, 0, 58, 88
2,2528, Note_on_c, 0, 58, 0
2,3081, Note_on_c, 0, 60, 67
2,3175, Note_on_c, 0, 60, 0
2,3362, Note_on_c, 0, 61, 57
2,3470, Note_on_c, 0, 61, 0
2,3481, Note_on_c, 0, 58, 60
2,3616, Note_on_c, 0, 58, 0
2,3617, Note_on_c, 0, 60, 62
2,3757, Note_on_c, 0, 61, 62
2,3762, Note_on_c, 0, 60, 0
2,3900, Note_on_c, 0, 63, 66
2,3912, Note_on_c, 0, 61, 0
2,4042, Note_on_c, 0, 60, 61
2,4045, Note_on_c, 0, 63, 0
2,4168, Note_on_c, 0, 61, 68
2,4178, Note_on_c, 0, 60, 0
2,4299, Note_on_c, 0, 63, 67
2,4406, Note_on_c, 0, 61, 0
2,4438, Note_on_c, 0, 65, 71
2,4451, Note_on_c, 0, 63, 0
2,4558, Note_on_c, 0, 61, 69
2,4558, Note_on_c, 0, 65, 0
2,4702, Note_on_c, 0, 63, 70
2,4750, Note_on_c, 0, 61, 0
2,4830, Note_on_c, 0, 65, 70
2,4846, Note_on_c, 0, 63, 0
2,4965, Note_on_c, 0, 65, 0
2,4969, Note_on_c, 0, 66, 73
2,5089, Note_on_c, 0, 66, 0
2,5097, Note_on_c, 0, 63, 65
2,5237, Note_on_c, 0, 65, 66
2,5259, Note_on_c, 0, 63, 0
2,5470, Note_on_c, 0, 65, 0
2,5785, Note_on_c, 0, 66, 66
2,5971, Note_on_c, 0, 66, 0
2,6067, Note_on_c, 0, 60, 58
2,6261, Note_on_c, 0, 60, 0
2,6335, Note_on_c, 0, 61, 64
2,6461, Note_on_c, 0, 63, 67
2,6478, Note_on_c, 0, 61, 0
2,6530, Note_on_c, 0, 63, 0
2,6598, Note_on_c, 0, 65, 91
2,6606, Note_on_c, 0, 61, 59
2,6855, Note_on_c, 0, 65, 0
2,6891, Note_on_c, 0, 57, 57
2,6903, Note_on_c, 0, 61, 0
2,7176, Note_on_c, 0, 67, 89
2,7179, Note_on_c, 0, 58, 61
2,7200, Note_on_c, 0, 57, 0
2,7474, Note_on_c, 0, 59, 62
2,7474, Note_on_c, 0, 67, 0
2,7492, Note_on_c, 0, 58, 0
2,7735, Note_on_c, 0, 59, 0
2,7745, Note_on_c, 0, 60, 63
2,8023, Note_on_c, 0, 68, 90
2,8205, Note_on_c, 0, 60, 0
2,8229, Note_on_c, 0, 68, 0
2,8300, Note_on_c, 0, 70, 92
2,8487, Note_on_c, 0, 70, 0
2,8569, Note_on_c, 0, 64, 81
2,8575, Note_on_c, 0, 60, 59
2,8768, Note_on_c, 0, 64, 0
2,8832, Note_on_c, 0, 65, 85
2,8834, Note_on_c, 0, 61, 66
2,8848, Note_on_c, 0, 60, 0
2,9111, Note_on_c, 0, 62, 62
2,9152, Note_on_c, 0, 61, 0
2,9320, Note_on_c, 0, 65, 0
2,9386, Note_on_c, 0, 63, 62
2,9413, Note_on_c, 0, 62, 0
2,9658, Note_on_c, 0, 64, 53
2,9661, Note_on_c, 0, 63, 0
2,9661, Note_on_c, 0, 67, 72
2,9856, Note_on_c, 0, 64, 0
2,9911, Note_on_c, 0, 67, 0
2,9923, Note_on_c, 0, 68, 72
2,9927, Note_on_c, 0, 65, 51
2,10039, Note_on_c, 0, 65, 0
2,10055, Note_on_c, 0, 65, 46
2,10055, Note_on_c, 0, 68, 0
2,10195, Note_on_c, 0, 67, 66
2,10324, Note_on_c, 0, 68, 70
2,10346, Note_on_c, 0, 67, 0
2,10470, Note_on_c, 0, 70, 70
2,10485, Note_on_c, 0, 68, 0
2,10598, Note_on_c, 0, 67, 69
2,10611, Note_on_c, 0, 70, 0
2,10734, Note_on_c, 0, 68, 71
2,10761, Note_on_c, 0, 67, 0
2,10865, Note_on_c, 0, 70, 73
2,10988, Note_on_c, 0, 68, 0
2,10996, Note_on_c, 0, 72, 77
2,11012, Note_on_c, 0, 70, 0
2,11116, Note_on_c, 0, 72, 0
2,11123, Note_on_c, 0, 68, 76
2,11255, Note_on_c, 0, 70, 73
2,11303, Note_on_c, 0, 68, 0
2,11385, Note_on_c, 0, 72, 72
2,11403, Note_on_c, 0, 70, 0
2,11525, Note_on_c, 0, 72, 0
2,11529, Note_on_c, 0, 73, 72
2,11657, Note_on_c, 0, 70, 64
2,11660, Note_on_c, 0, 73, 0
2,11794, Note_on_c, 0, 72, 60
2,11802, Note_on_c, 0, 64, 58
2,11812, Note_on_c, 0, 70, 0
2,11847, Note_on_c, 0, 65, 0
2,11912, Note_on_c, 0, 64, 0
2,11920, Note_on_c, 0, 62, 50
2,12061, Note_on_c, 0, 62, 0
2,12072, Note_on_c, 0, 64, 58
2,12258, Note_on_c, 0, 72, 0
2,12357, Note_on_c, 0, 73, 68
2,12549, Note_on_c, 0, 73, 0
2,12583, Note_on_c, 0, 64, 0
2,12629, Note_on_c, 0, 67, 66
2,12852, Note_on_c, 0, 67, 0
2,12877, Note_on_c, 0, 69, 65
2,12889, Note_on_c, 0, 63, 67
2,13028, Note_on_c, 0, 70, 66
2,13045, Note_on_c, 0, 69, 0
2,13158, Note_on_c, 0, 70, 0
2,13174, Note_on_c, 0, 69, 69
2,13409, Note_on_c, 0, 69, 0
2,13428, Note_on_c, 0, 63, 0
2,13437, Note_on_c, 0, 77, 68
2,13447, Note_on_c, 0, 62, 56
2,13545, Note_on_c, 0, 62, 0
2,13568, Note_on_c, 0, 60, 51
2,13683, Note_on_c, 0, 60, 0
2,13706, Note_on_c, 0, 62, 56
2,13983, Note_on_c, 0, 77, 0
2,14000, Note_on_c, 0, 70, 62
2,14236, Note_on_c, 0, 62, 0
2,14243, Note_on_c, 0, 70, 0
2,14271, Note_on_c, 0, 65, 64
2,14497, Note_on_c, 0, 65, 0
2,14553, Note_on_c, 0, 61, 60
2,14557, Note_on_c, 0, 67, 57
2,14683, Note_on_c, 0, 68, 62
2,14692, Note_on_c, 0, 67, 0
2,14823, Note_on_c, 0, 68, 0
2,14827, Note_on_c, 0, 67, 63
2,15101, Note_on_c, 0, 61, 0
2,15109, Note_on_c, 0, 75, 66
2,15110, Note_on_c, 0, 67, 0
2,15120, Note_on_c, 0, 60, 51
2,15232, Note_on_c, 0, 60, 0
2,15255, Note_on_c, 0, 58, 57
2,15393, Note_on_c, 0, 58, 0
2,15394, Note_on_c, 0, 60, 59
2,15668, Note_on_c, 0, 69, 67
2,15669, Note_on_c, 0, 75, 0
2,15670, Note_on_c, 0, 66, 65
2,15732, Note_on_c, 0, 60, 0
2,15913, Note_on_c, 0, 66, 0
2,15945, Note_on_c, 0, 65, 68
2,16182, Note_on_c, 0, 65, 0
2,16214, Note_on_c, 0, 70, 72
2,16223, Note_on_c, 0, 63, 65
2,16245, Note_on_c, 0, 69, 0
2,16350, Note_on_c, 0, 72, 71
2,16351, Note_on_c, 0, 70, 0
2,16445, Note_on_c, 0, 72, 0
2,16504, Note_on_c, 0, 46, 92
2,16515, Note_on_c, 0, 65, 60
2,16769, Note_on_c, 0, 63, 0
2,16778, Note_on_c, 0, 70, 80
2,16784, Note_on_c, 0, 65, 0
2,16786, Note_on_c, 0, 62, 66
2,16805, Note_on_c, 0, 46, 0
2,17068, Note_on_c, 0, 63, 66
2,17074, Note_on_c, 0, 48, 88
2,17103, Note_on_c, 0, 62, 0
2,17294, Note_on_c, 0, 70, 0
2,17349, Note_on_c, 0, 63, 0
2,17349, Note_on_c, 0, 69, 73
2,17357, Note_on_c, 0, 64, 62
2,17391, Note_on_c, 0, 48, 0
2,17479, Note_on_c, 0, 67, 73
2,17484, Note_on_c, 0, 69, 0
2,17580, Note_on_c, 0, 64, 0
2,17614, Note_on_c, 0, 65, 76
2,17614, Note_on_c, 0, 69, 72
2,17645, Note_on_c, 0, 67, 0
2,17884, Note_on_c, 0, 70, 79
2,17889, Note_on_c, 0, 49, 87
2,17900, Note_on_c, 0, 69, 0
2,18001, Note_on_c, 0, 70, 0
2,18074, Note_on_c, 0, 49, 0
2,18143, Note_on_c, 0, 51, 88
2,18145, Note_on_c, 0, 72, 81
2,18183, Note_on_c, 0, 65, 0
2,18261, Note_on_c, 0, 73, 76
2,18283, Note_on_c, 0, 72, 0
2,18321, Note_on_c, 0, 51, 0
2,18411, Note_on_c, 0, 45, 83
2,18414, Note_on_c, 0, 75, 80
2,18423, Note_on_c, 0, 65, 69
2,18423, Note_on_c, 0, 73, 0
2,18602, Note_on_c, 0, 45, 0
2,18678, Note_on_c, 0, 66, 71
2,18683, Note_on_c, 0, 46, 88
2,18695, Note_on_c, 0, 65, 0
2,18920, Note_on_c, 0, 75, 0
2,18933, Note_on_c, 0, 66, 0
2,18949, Note_on_c, 0, 73, 76
2,18954, Note_on_c, 0, 67, 72
2,18983, Note_on_c, 0, 46, 0
2,19185, Note_on_c, 0, 73, 0
2,19199, Note_on_c, 0, 72, 73
2,19208, Note_on_c, 0, 68, 69
2,19256, Note_on_c, 0, 67, 0
2,19324, Note_on_c, 0, 75, 77
2,19357, Note_on_c, 0, 72, 0
2,19439, Note_on_c, 0, 68, 0
2,19470, Note_on_c, 0, 48, 79
2,19471, Note_on_c, 0, 78, 85
2,19472, Note_on_c, 0, 69, 73
2,19475, Note_on_c, 0, 75, 0
2,19553, Control_c, 0, 64, 64
2,19569, Control_c, 0, 64, 70
2,19583, Control_c, 0, 64, 73
2,19598, Control_c, 0, 64, 75
2,19614, Control_c, 0, 64, 76
2,19617, Note_on_c, 0, 48, 0
2,19629, Control_c, 0, 64, 76
2,19636, Note_on_c, 0, 78, 0
2,19659, Control_c, 0, 64, 75
2,19674, Control_c, 0, 64, 71
2,19690, Control_c, 0, 64, 63
2,19705, Control_c, 0, 64, 0
2,19723, Note_on_c, 0, 70, 67
2,19725, Note_on_c, 0, 77, 80
2,19727, Note_on_c, 0, 49, 76
2,19739, Note_on_c, 0, 69, 0
2,19845, Note_on_c, 0, 49, 0
2,19849, Note_on_c, 0, 46, 77
2,19935, Note_on_c, 0, 77, 0
2,19979, Note_on_c, 0, 46, 0
2,19988, Note_on_c, 0, 48, 76
2,20101, Note_on_c, 0, 48, 0
2,20108, Note_on_c, 0, 49, 75
2,20243, Note_on_c, 0, 49, 0
2,20251, Note_on_c, 0, 51, 72
2,20254, Note_on_c, 0, 72, 72
2,20383, Note_on_c, 0, 48, 68
2,20383, Note_on_c, 0, 51, 0
2,20453, Note_on_c, 0, 72, 0
2,20511, Note_on_c, 0, 49, 76
2,20520, Note_on_c, 0, 48, 0
2,20633, Note_on_c, 0, 51, 74
2,20653, Note_on_c, 0, 49, 0
2,20761, Note_on_c, 0, 51, 0
2,20777, Note_on_c, 0, 53, 75
2,20778, Note_on_c, 0, 73, 82
2,20905, Note_on_c, 0, 49, 74
2,20919, Note_on_c, 0, 53, 0
2,21020, Note_on_c, 0, 73, 0
2,21034, Note_on_c, 0, 51, 77
2,21067, Note_on_c, 0, 49, 0
2,21156, Note_on_c, 0, 51, 0
2,21162, Note_on_c, 0, 53, 78
2,21284, Note_on_c, 0, 53, 0
2,21291, Note_on_c, 0, 54, 75
2,21299, Note_on_c, 0, 75, 77
2,21413, Note_on_c, 0, 54, 0
2,21416, Note_on_c, 0, 51, 68
2,21565, Note_on_c, 0, 70, 0
2,21569, Note_on_c, 0, 53, 66
2,21572, Note_on_c, 0, 69, 64
2,21585, Note_on_c, 0, 51, 0
2,21694, Note_on_c, 0, 69, 0
2,21698, Note_on_c, 0, 67, 67
2,21771, Note_on_c, 0, 53, 0
2,21815, Note_on_c, 0, 67, 0
2,21823, Note_on_c, 0, 69, 70
2,21859, Note_on_c, 0, 75, 0
2,21944, Note_on_c, 0, 73, 64
2,22046, Note_on_c, 0, 73, 0
2,22078, Note_on_c, 0, 72, 60
2,22081, Note_on_c, 0, 54, 75
2,22206, Control_c, 0, 64, 56
2,22211, Note_on_c, 0, 72, 0
2,22211, Note_on_c, 0, 73, 69
2,22222, Control_c, 0, 64, 61
2,22244, Control_c, 0, 64, 61
2,22275, Control_c, 0, 64, 62
2,22277, Note_on_c, 0, 54, 0
2,22291, Control_c, 0, 64, 60
2,22306, Control_c, 0, 64, 50
2,22320, Control_c, 0, 64, 0
2,22351, Note_on_c, 0, 48, 75
2,22353, Note_on_c, 0, 75, 77
2,22441, Control_c, 0, 64, 18
2,22457, Control_c, 0, 64, 64
2,22458, Note_on_c, 0, 73, 0
2,22472, Control_c, 0, 64, 68
2,22488, Control_c, 0, 64, 69
2,22517, Control_c, 0, 64, 69
2,22548, Control_c, 0, 64, 69
2,22563, Control_c, 0, 64, 66
2,22577, Control_c, 0, 64, 57
2,22580, Note_on_c, 0, 48, 0
2,22583, Note_on_c, 0, 75, 0
2,22592, Control_c, 0, 64, 0
2,22604, Note_on_c, 0, 69, 0
2,22626, Note_on_c, 0, 68, 66
2,22627, Note_on_c, 0, 50, 64
2,22627, Note_on_c, 0, 72, 74
2,22715, Control_c, 0, 64, 55
2,22731, Control_c, 0, 64, 62
2,22744, Note_on_c, 0, 50, 0
2,22755, Note_on_c, 0, 51, 71
2,22806, Control_c, 0, 64, 59
2,22821, Control_c, 0, 64, 44
2,22836, Control_c, 0, 64, 0
2,22848, Note_on_c, 0, 51, 0
2,22893, Note_on_c, 0, 77, 81
2,22897, Note_on_c, 0, 50, 67
2,22898, Note_on_c, 0, 72, 0
2,22973, Control_c, 0, 64, 44
2,22988, Control_c, 0, 64, 66
2,23012, Control_c, 0, 64, 71
2,23027, Control_c, 0, 64, 75
2,23041, Control_c, 0, 64, 78
2,23057, Control_c, 0, 64, 80
2,23072, Control_c, 0, 64, 81
2,23088, Note_on_c, 0, 77, 0
2,23102, Control_c, 0, 64, 80
2,23104, Note_on_c, 0, 50, 0
2,23117, Control_c, 0, 64, 77
2,23133, Control_c, 0, 64, 65
2,23145, Note_on_c, 0, 68, 0
2,23148, Control_c, 0, 64, 0
2,23158, Note_on_c, 0, 74, 68
2,23164, Note_on_c, 0, 58, 63
2,23170, Note_on_c, 0, 67, 60
2,23208, Control_c, 0, 64, 47
2,23223, Control_c, 0, 64, 68
2,23238, Control_c, 0, 64, 75
2,23250, Note_on_c, 0, 74, 0
2,23254, Control_c, 0, 64, 79
2,23263, Note_on_c, 0, 58, 0
2,23269, Control_c, 0, 64, 80
2,23283, Control_c, 0, 64, 80
2,23298, Note_on_c, 0, 65, 70
2,23299, Control_c, 0, 64, 81
2,23324, Note_on_c, 0, 67, 0
2,23360, Control_c, 0, 64, 80
2,23376, Control_c, 0, 64, 76
2,23391, Control_c, 0, 64, 67
2,23403, Note_on_c, 0, 65, 0
2,23406, Control_c, 0, 64, 0
2,23429, Note_on_c, 0, 70, 67
2,23433, Note_on_c, 0, 67, 66
2,23560, Note_on_c, 0, 70, 0
2,23563, Note_on_c, 0, 68, 62
2,23689, Note_on_c, 0, 70, 67
2,23690, Note_on_c, 0, 51, 65
2,23693, Note_on_c, 0, 68, 0
2,23810, Control_c, 0, 64, 54
2,23825, Control_c, 0, 64, 58
2,23825, Note_on_c, 0, 70, 0
2,23825, Note_on_c, 0, 72, 68
2,23840, Control_c, 0, 64, 58
2,23870, Control_c, 0, 64, 57
2,23885, Control_c, 0, 64, 52
2,23888, Note_on_c, 0, 51, 0
2,23901, Control_c, 0, 64, 29
2,23916, Control_c, 0, 64, 0
2,23964, Note_on_c, 0, 46, 65
2,23965, Note_on_c, 0, 73, 70
2,23966, Note_on_c, 0, 72, 0
2,24067, Control_c, 0, 64, 58
2,24082, Control_c, 0, 64, 63
2,24098, Control_c, 0, 64, 63
2,24143, Control_c, 0, 64, 63
2,24158, Control_c, 0, 64, 60
2,24174, Control_c, 0, 64, 46
2,24177, Note_on_c, 0, 73, 0
2,24181, Note_on_c, 0, 46, 0
2,24189, Control_c, 0, 64, 0
2,24222, Note_on_c, 0, 70, 68
2,24226, Note_on_c, 0, 48, 64
2,24229, Note_on_c, 0, 66, 60
2,24246, Note_on_c, 0, 67, 0
2,24311, Control_c, 0, 64, 32
2,24321, Note_on_c, 0, 48, 0
2,24326, Control_c, 0, 64, 59
2,24341, Control_c, 0, 64, 62
2,24348, Note_on_c, 0, 49, 61
2,24357, Control_c, 0, 64, 62
2,24418, Control_c, 0, 64, 60
2,24433, Control_c, 0, 64, 52
2,24449, Control_c, 0, 64, 0
2,24467, Note_on_c, 0, 49, 0
2,24493, Note_on_c, 0, 75, 67
2,24497, Note_on_c, 0, 48, 61
2,24549, Note_on_c, 0, 70, 0
2,24608, Control_c, 0, 64, 61
2,24623, Control_c, 0, 64, 65
2,24638, Control_c, 0, 64, 66
2,24654, Control_c, 0, 64, 67
2,24669, Control_c, 0, 64, 67
2,24684, Control_c, 0, 64, 68
2,24710, Note_on_c, 0, 48, 0
2,24714, Control_c, 0, 64, 66
2,24730, Control_c, 0, 64, 60
2,24745, Control_c, 0, 64, 0
2,24758, Note_on_c, 0, 75, 0
2,24760, Note_on_c, 0, 66, 0
2,24774, Note_on_c, 0, 44, 53
2,24778, Note_on_c, 0, 72, 61
2,24779, Note_on_c, 0, 65, 57
2,24866, Control_c, 0, 64, 57
2,24881, Control_c, 0, 64, 65
2,24896, Control_c, 0, 64, 65
2,24900, Note_on_c, 0, 63, 62
2,24900, Note_on_c, 0, 65, 0
2,24944, Note_on_c, 0, 72, 0
2,24957, Control_c, 0, 64, 64
2,24972, Control_c, 0, 64, 60
2,24987, Control_c, 0, 64, 25
2,25000, Note_on_c, 0, 44, 0
2,25002, Control_c, 0, 64, 0
2,25040, Note_on_c, 0, 68, 70
2,25043, Note_on_c, 0, 49, 57
2,25044, Note_on_c, 0, 63, 0
2,25045, Note_on_c, 0, 65, 57
2,25171, Control_c, 0, 64, 53
2,25186, Control_c, 0, 64, 62
2,25216, Control_c, 0, 64, 61
2,25231, Control_c, 0, 64, 59
2,25246, Control_c, 0, 64, 45
2,25262, Control_c, 0, 64, 0
2,25265, Note_on_c, 0, 49, 0
2,25294, Note_on_c, 0, 48, 55
2,25322, Note_on_c, 0, 73, 67
2,25345, Note_on_c, 0, 68, 0
2,25406, Control_c, 0, 64, 52
2,25421, Control_c, 0, 64, 64
2,25424, Note_on_c, 0, 48, 0
2,25436, Control_c, 0, 64, 64
2,25437, Note_on_c, 0, 46, 58
2,25498, Control_c, 0, 64, 63
2,25512, Control_c, 0, 64, 50
2,25528, Control_c, 0, 64, 0
2,25542, Note_on_c, 0, 46, 0
2,25543, Note_on_c, 0, 73, 0
2,25587, Note_on_c, 0, 44, 58
2,25590, Note_on_c, 0, 72, 67
2,25651, Control_c, 0, 64, 29
2,25665, Control_c, 0, 64, 68
2,25680, Control_c, 0, 64, 75
2,25696, Control_c, 0, 64, 80
2,25699, Note_on_c, 0, 72, 0
2,25711, Control_c, 0, 64, 81
2,25714, Note_on_c, 0, 44, 0
2,25726, Note_on_c, 0, 65, 0
2,25741, Control_c, 0, 64, 82
2,25772, Control_c, 0, 64, 81
2,25787, Control_c, 0, 64, 78
2,25802, Control_c, 0, 64, 69
2,25817, Control_c, 0, 64, 0
2,25850, Note_on_c, 0, 43, 66
2,25850, Note_on_c, 0, 64, 72
2,25855, Note_on_c, 0, 58, 68
2,25926, Control_c, 0, 64, 59
2,25941, Control_c, 0, 64, 69
2,25955, Control_c, 0, 64, 76
2,25971, Control_c, 0, 64, 80
2,25986, Control_c, 0, 64, 82
2,25992, Note_on_c, 0, 43, 0
2,25994, Note_on_c, 0, 58, 0
2,26003, Control_c, 0, 64, 82
2,26018, Control_c, 0, 64, 83
2,26102, Control_c, 0, 64, 82
2,26116, Control_c, 0, 64, 79
2,26124, Note_on_c, 0, 64, 0
2,26132, Control_c, 0, 64, 69
2,26142, Note_on_c, 0, 53, 85
2,26144, Note_on_c, 0, 65, 72
2,26147, Control_c, 0, 64, 0
2,26150, Note_on_c, 0, 60, 66
2,26156, Note_on_c, 0, 44, 69
2,26368, Note_on_c, 0, 44, 0
2,26405, Note_on_c, 0, 45, 62
2,26416, Note_on_c, 0, 61, 63
2,26422, Note_on_c, 0, 65, 0
2,26528, Note_on_c, 0, 61, 0
2,26533, Note_on_c, 0, 53, 0
2,26539, Note_on_c, 0, 63, 72
2,26576, Note_on_c, 0, 60, 0
2,26664, Note_on_c, 0, 45, 0
2,26665, Note_on_c, 0, 55, 88
2,26677, Note_on_c, 0, 46, 71
2,26679, Note_on_c, 0, 61, 66
2,26701, Note_on_c, 0, 63, 0
2,26906, Note_on_c, 0, 46, 0
2,26930, Note_on_c, 0, 47, 71
2,26934, Note_on_c, 0, 61, 0
2,26940, Note_on_c, 0, 64, 67
2,27058, Note_on_c, 0, 64, 0
2,27061, Note_on_c, 0, 62, 65
2,27068, Note_on_c, 0, 55, 0
2,27168, Note_on_c, 0, 47, 0
2,27190, Note_on_c, 0, 62, 0
2,27203, Note_on_c, 0, 48, 70
2,27203, Note_on_c, 0, 64, 69
2,27460, Note_on_c, 0, 56, 90
2,27466, Note_on_c, 0, 72, 75
2,27510, Note_on_c, 0, 64, 0
2,27535, Control_c, 0, 64, 25
2,27549, Control_c, 0, 64, 65
2,27564, Control_c, 0, 64, 69
2,27580, Control_c, 0, 64, 71
2,27595, Control_c, 0, 64, 73
2,27619, Control_c, 0, 64, 74
2,27631, Note_on_c, 0, 56, 0
2,27650, Control_c, 0, 64, 73
2,27665, Control_c, 0, 64, 68
2,27680, Control_c, 0, 64, 54
2,27696, Control_c, 0, 64, 0
2,27732, Note_on_c, 0, 73, 78
2,27736, Note_on_c, 0, 58, 88
2,27742, Note_on_c, 0, 72, 0
2,27817, Control_c, 0, 64, 64
2,27832, Control_c, 0, 64, 69
2,27848, Control_c, 0, 64, 73
2,27863, Control_c, 0, 64, 75
2,27877, Control_c, 0, 64, 76
2,27885, Note_on_c, 0, 58, 0
2,27893, Control_c, 0, 64, 77
2,27928, Note_on_c, 0, 48, 0
2,27938, Control_c, 0, 64, 76
2,27939, Note_on_c, 0, 73, 0
2,27953, Control_c, 0, 64, 73
2,27969, Control_c, 0, 64, 64
2,27984, Control_c, 0, 64, 0
2,28001, Note_on_c, 0, 72, 76
2,28002, Note_on_c, 0, 52, 78
2,28008, Note_on_c, 0, 68, 70
2,28011, Note_on_c, 0, 48, 65
2,28172, Note_on_c, 0, 48, 0
2,28193, Note_on_c, 0, 52, 0
2,28253, Note_on_c, 0, 53, 80
2,28261, Note_on_c, 0, 49, 68
2,28464, Note_on_c, 0, 49, 0
2,28494, Note_on_c, 0, 72, 0
2,28519, Note_on_c, 0, 68, 0
2,28526, Note_on_c, 0, 71, 66
2,28528, Note_on_c, 0, 50, 69
2,28532, Note_on_c, 0, 67, 57
2,28549, Note_on_c, 0, 53, 0
2,28625, Note_on_c, 0, 67, 0
2,28645, Note_on_c, 0, 65, 69
2,28754, Note_on_c, 0, 65, 0
2,28780, Note_on_c, 0, 71, 0
2,28781, Note_on_c, 0, 51, 77
2,28786, Note_on_c, 0, 72, 67
2,28787, Note_on_c, 0, 50, 0
2,28788, Note_on_c, 0, 67, 64
2,28898, Note_on_c, 0, 67, 0
2,28905, Control_c, 0, 64, 45
2,28909, Note_on_c, 0, 68, 70
2,28919, Control_c, 0, 64, 57
2,28935, Control_c, 0, 64, 53
2,28950, Control_c, 0, 64, 38
2,28964, Control_c, 0, 64, 0
2,28970, Note_on_c, 0, 51, 0
2,29023, Note_on_c, 0, 68, 0
2,29032, Note_on_c, 0, 70, 74
2,29046, Note_on_c, 0, 55, 80
2,29051, Note_on_c, 0, 52, 81
2,29093, Note_on_c, 0, 52, 0
2,29102, Control_c, 0, 64, 62
2,29117, Control_c, 0, 64, 76
2,29133, Control_c, 0, 64, 84
2,29155, Control_c, 0, 64, 87
2,29157, Note_on_c, 0, 55, 0
2,29171, Control_c, 0, 64, 87
2,29185, Control_c, 0, 64, 88
2,29200, Control_c, 0, 64, 89
2,29231, Control_c, 0, 64, 89
2,29246, Control_c, 0, 64, 89
2,29277, Control_c, 0, 64, 87
2,29293, Control_c, 0, 64, 82
2,29303, Note_on_c, 0, 68, 76
2,29304, Note_on_c, 0, 56, 81
2,29307, Note_on_c, 0, 53, 75
2,29308, Control_c, 0, 64, 72
2,29310, Note_on_c, 0, 70, 0
2,29323, Control_c, 0, 64, 60
2,29339, Control_c, 0, 64, 0
2,29368, Note_on_c, 0, 53, 0
2,29419, Note_on_c, 0, 56, 0
2,29430, Note_on_c, 0, 53, 73
2,29438, Note_on_c, 0, 72, 0
2,29461, Note_on_c, 0, 68, 0
2,29574, Note_on_c, 0, 55, 72
2,29709, Note_on_c, 0, 56, 78
2,29732, Note_on_c, 0, 55, 0
2,29835, Note_on_c, 0, 76, 80
2,29841, Note_on_c, 0, 56, 0
2,29845, Note_on_c, 0, 67, 64
2,29850, Note_on_c, 0, 58, 69
2,29939, Control_c, 0, 64, 54
2,29947, Note_on_c, 0, 58, 0
2,29953, Control_c, 0, 64, 64
2,29969, Control_c, 0, 64, 67
2,29984, Control_c, 0, 64, 69
2,29986, Note_on_c, 0, 55, 77
2,29997, Note_on_c, 0, 67, 0
2,29999, Control_c, 0, 64, 71
2,30015, Control_c, 0, 64, 73
2,30029, Control_c, 0, 64, 74
2,30044, Control_c, 0, 64, 75
2,30096, Note_on_c, 0, 76, 0
2,30111, Note_on_c, 0, 56, 83
2,30137, Control_c, 0, 64, 74
2,30148, Note_on_c, 0, 55, 0
2,30152, Control_c, 0, 64, 73
2,30168, Control_c, 0, 64, 72
2,30183, Control_c, 0, 64, 69
2,30197, Control_c, 0, 64, 65
2,30213, Control_c, 0, 64, 60
2,30228, Control_c, 0, 64, 57
2,30228, Note_on_c, 0, 58, 80
2,30242, Control_c, 0, 64, 56
2,30258, Control_c, 0, 64, 54
2,30259, Note_on_c, 0, 56, 0
2,30273, Control_c, 0, 64, 44
2,30289, Control_c, 0, 64, 0
2,30347, Note_on_c, 0, 58, 0
2,30364, Note_on_c, 0, 60, 73
2,30368, Note_on_c, 0, 77, 85
2,30377, Note_on_c, 0, 68, 77
2,30486, Control_c, 0, 64, 63
2,30494, Note_on_c, 0, 56, 77
2,30502, Control_c, 0, 64, 67
2,30502, Note_on_c, 0, 60, 0
2,30517, Control_c, 0, 64, 68
2,30532, Control_c, 0, 64, 69
2,30542, Note_on_c, 0, 68, 0
2,30547, Control_c, 0, 64, 70
2,30562, Control_c, 0, 64, 71
2,30608, Control_c, 0, 64, 70
2,30620, Note_on_c, 0, 77, 0
2,30623, Control_c, 0, 64, 69
2,30632, Note_on_c, 0, 58, 80
2,30638, Control_c, 0, 64, 64
2,30653, Control_c, 0, 64, 32
2,30664, Note_on_c, 0, 56, 0
2,30668, Control_c, 0, 64, 0
2,30747, Note_on_c, 0, 58, 0
2,30763, Note_on_c, 0, 60, 76
2,30861, Note_on_c, 0, 60, 0
2,30896, Note_on_c, 0, 61, 73
2,30898, Note_on_c, 0, 79, 86
2,30901, Note_on_c, 0, 70, 76
2,30965, Control_c, 0, 64, 64
2,30981, Control_c, 0, 64, 69
2,30996, Control_c, 0, 64, 72
2,31011, Control_c, 0, 64, 74
2,31016, Note_on_c, 0, 61, 0
2,31022, Note_on_c, 0, 58, 71
2,31025, Control_c, 0, 64, 77
2,31040, Control_c, 0, 64, 80
2,31056, Control_c, 0, 64, 81
2,31058, Note_on_c, 0, 58, 0
2,31065, Note_on_c, 0, 70, 0
2,31067, Note_on_c, 0, 53, 0
2,31071, Control_c, 0, 64, 81
2,31116, Control_c, 0, 64, 80
2,31132, Control_c, 0, 64, 73
2,31147, Control_c, 0, 64, 58
2,31159, Note_on_c, 0, 52, 75
2,31159, Note_on_c, 0, 60, 73
2,31162, Control_c, 0, 64, 0
2,31257, Note_on_c, 0, 52, 0
2,31282, Note_on_c, 0, 50, 70
2,31341, Note_on_c, 0, 60, 0
2,31412, Note_on_c, 0, 50, 0
2,31425, Note_on_c, 0, 52, 72
2,31427, Note_on_c, 0, 67, 63
2,31643, Note_on_c, 0, 67, 0
2,31709, Note_on_c, 0, 61, 79
2,31914, Note_on_c, 0, 61, 0
2,31963, Note_on_c, 0, 72, 75
2,31969, Note_on_c, 0, 55, 67
2,32129, Control_c, 0, 64, 27
2,32144, Control_c, 0, 64, 33
2,32159, Control_c, 0, 64, 29
2,32189, Control_c, 0, 64, 26
2,32190, Note_on_c, 0, 55, 0
2,32204, Control_c, 0, 64, 0
2,32225, Note_on_c, 0, 56, 65
2,32244, Note_on_c, 0, 72, 0
2,32331, Note_on_c, 0, 52, 0
2,32333, Note_on_c, 0, 56, 0
2,32349, Note_on_c, 0, 58, 60
2,32438, Note_on_c, 0, 58, 0
2,32493, Note_on_c, 0, 56, 57
2,32502, Note_on_c, 0, 60, 63
2,32505, Note_on_c, 0, 53, 61
2,32516, Control_c, 0, 64, 61
2,32532, Control_c, 0, 64, 72
2,32547, Control_c, 0, 64, 72
2,32562, Control_c, 0, 64, 71
2,32578, Control_c, 0, 64, 71
2,32591, Note_on_c, 0, 53, 0
2,32593, Note_on_c, 0, 56, 0
2,32631, Note_on_c, 0, 52, 65
2,32669, Control_c, 0, 64, 70
2,32684, Control_c, 0, 64, 68
2,32700, Control_c, 0, 64, 64
2,32706, Note_on_c, 0, 52, 0
2,32714, Control_c, 0, 64, 28
2,32730, Control_c, 0, 64, 0
2,32762, Note_on_c, 0, 77, 69
2,32762, Note_on_c, 0, 79, 0
2,32771, Note_on_c, 0, 53, 54
2,32838, Note_on_c, 0, 60, 0
2,32874, Note_on_c, 0, 53, 0
2,32890, Note_on_c, 0, 76, 68
2,32890, Note_on_c, 0, 77, 0
2,32893, Note_on_c, 0, 55, 61
2,33009, Note_on_c, 0, 55, 0
2,33016, Note_on_c, 0, 76, 0
2,33036, Note_on_c, 0, 77, 78
2,33039, Note_on_c, 0, 56, 58
2,33052, Note_on_c, 0, 72, 52
2,33097, Note_on_c, 0, 72, 0
2,33097, Note_on_c, 0, 72, 19
2,33102, Control_c, 0, 64, 64
2,33116, Control_c, 0, 64, 68
2,33131, Note_on_c, 0, 72, 0
2,33132, Control_c, 0, 64, 70
2,33147, Control_c, 0, 64, 70
2,33154, Note_on_c, 0, 56, 0
2,33162, Control_c, 0, 64, 71
2,33238, Control_c, 0, 64, 69
2,33254, Control_c, 0, 64, 65
2,33269, Control_c, 0, 64, 0
2,33313, Note_on_c, 0, 65, 70
2,33432, Note_on_c, 0, 65, 0
2,33575, Note_on_c, 0, 65, 65
2,33576, Note_on_c, 0, 60, 69
2,33587, Note_on_c, 0, 57, 54
2,33620, Control_c, 0, 64, 66
2,33634, Control_c, 0, 64, 69
2,33650, Control_c, 0, 64, 72
2,33665, Control_c, 0, 64, 74
2,33679, Control_c, 0, 64, 77
2,33688, Note_on_c, 0, 65, 0
2,33695, Control_c, 0, 64, 79
2,33710, Control_c, 0, 64, 79
2,33763, Note_on_c, 0, 57, 0
2,33794, Control_c, 0, 64, 76
2,33810, Control_c, 0, 64, 66
2,33811, Note_on_c, 0, 60, 0
2,33825, Control_c, 0, 64, 0
2,33846, Note_on_c, 0, 61, 67
2,33930, Note_on_c, 0, 61, 0
2,33963, Note_on_c, 0, 63, 66
2,34016, Note_on_c, 0, 63, 0
2,34090, Note_on_c, 0, 61, 68
2,34092, Note_on_c, 0, 70, 64
2,34098, Note_on_c, 0, 58, 62
2,34113, Control_c, 0, 64, 66
2,34129, Control_c, 0, 64, 74
2,34129, Note_on_c, 0, 61, 0
2,34142, Note_on_c, 0, 58, 0
2,34144, Control_c, 0, 64, 78
2,34158, Control_c, 0, 64, 79
2,34174, Control_c, 0, 64, 80
2,34189, Control_c, 0, 64, 81
2,34204, Control_c, 0, 64, 82
2,34230, Note_on_c, 0, 72, 64
2,34234, Note_on_c, 0, 70, 0
2,34297, Control_c, 0, 64, 80
2,34312, Control_c, 0, 64, 76
2,34324, Note_on_c, 0, 77, 0
2,34324, Note_on_c, 0, 77, 30
2,34326, Control_c, 0, 64, 64
2,34342, Control_c, 0, 64, 0
2,34351, Note_on_c, 0, 73, 66
2,34363, Note_on_c, 0, 72, 0
2,34365, Note_on_c, 0, 53, 57
2,34371, Note_on_c, 0, 46, 59
2,34461, Note_on_c, 0, 53, 0
2,34468, Note_on_c, 0, 46, 0
2,34468, Note_on_c, 0, 48, 61
2,34580, Note_on_c, 0, 48, 0
2,34612, Note_on_c, 0, 58, 55
2,34627, Note_on_c, 0, 49, 53
2,34668, Control_c, 0, 64, 29
2,34683, Control_c, 0, 64, 69
2,34699, Control_c, 0, 64, 77
2,34714, Control_c, 0, 64, 83
2,34725, Note_on_c, 0, 58, 0
2,34729, Control_c, 0, 64, 84
2,34768, Note_on_c, 0, 49, 0
2,34778, Note_on_c, 0, 73, 0
2,34804, Control_c, 0, 64, 83
2,34820, Control_c, 0, 64, 78
2,34835, Control_c, 0, 64, 69
2,34850, Control_c, 0, 64, 44
2,34865, Control_c, 0, 64, 0
2,34893, Note_on_c, 0, 70, 68
2,35079, Note_on_c, 0, 70, 0
2,35149, Note_on_c, 0, 65, 68
2,35151, Note_on_c, 0, 58, 48
2,35157, Note_on_c, 0, 50, 44
2,35216, Control_c, 0, 64, 21
2,35230, Control_c, 0, 64, 69
2,35245, Control_c, 0, 64, 79
2,35257, Note_on_c, 0, 58, 0
2,35261, Control_c, 0, 64, 87
2,35276, Control_c, 0, 64, 89
2,35281, Note_on_c, 0, 50, 0
2,35299, Control_c, 0, 64, 90
2,35302, Note_on_c, 0, 65, 0
2,35314, Control_c, 0, 64, 91
2,35360, Control_c, 0, 64, 90
2,35375, Control_c, 0, 64, 90
2,35390, Control_c, 0, 64, 88
2,35405, Control_c, 0, 64, 84
2,35417, Note_on_c, 0, 66, 67
2,35421, Control_c, 0, 64, 78
2,35436, Control_c, 0, 64, 70
2,35451, Control_c, 0, 64, 61
2,35466, Control_c, 0, 64, 35
2,35481, Control_c, 0, 64, 24
2,35511, Control_c, 0, 64, 19
2,35526, Control_c, 0, 64, 0
2,35532, Note_on_c, 0, 66, 0
2,35544, Note_on_c, 0, 68, 60
2,35603, Note_on_c, 0, 77, 0
2,35681, Note_on_c, 0, 58, 51
2,35681, Note_on_c, 0, 66, 67
2,35683, Note_on_c, 0, 68, 0
2,35691, Note_on_c, 0, 51, 42
2,35783, Note_on_c, 0, 51, 0
2,35822, Note_on_c, 0, 50, 53
2,35869, Note_on_c, 0, 58, 0
2,35953, Note_on_c, 0, 78, 67
2,35962, Note_on_c, 0, 51, 39
2,35980, Note_on_c, 0, 50, 0
2,36082, Note_on_c, 0, 51, 0
2,36091, Note_on_c, 0, 77, 67
2,36094, Note_on_c, 0, 53, 49
2,36101, Note_on_c, 0, 78, 0
2,36112, Control_c, 0, 64, 16
2,36116, Note_on_c, 0, 66, 0
2,36128, Control_c, 0, 64, 18
2,36143, Control_c, 0, 64, 16
2,36158, Control_c, 0, 64, 10
2,36174, Control_c, 0, 64, 0
2,36224, Note_on_c, 0, 53, 0
2,36240, Note_on_c, 0, 75, 73
2,36249, Note_on_c, 0, 70, 53
2,36256, Note_on_c, 0, 77, 0
2,36265, Note_on_c, 0, 54, 37
2,36355, Control_c, 0, 64, 22
2,36370, Note_on_c, 0, 70, 0
2,36371, Control_c, 0, 64, 44
2,36386, Control_c, 0, 64, 52
2,36401, Control_c, 0, 64, 50
2,36416, Control_c, 0, 64, 19
2,36431, Control_c, 0, 64, 0
2,36436, Note_on_c, 0, 54, 0
2,36519, Note_on_c, 0, 63, 59
2,36553, Control_c, 0, 64, 63
2,36568, Control_c, 0, 64, 74
2,36583, Control_c, 0, 64, 81
2,36598, Control_c, 0, 64, 83
2,36604, Note_on_c, 0, 63, 0
2,36629, Control_c, 0, 64, 83
2,36706, Control_c, 0, 64, 82
2,36720, Control_c, 0, 64, 79
2,36736, Control_c, 0, 64, 72
2,36751, Control_c, 0, 64, 51
2,36766, Control_c, 0, 64, 0
2,36791, Note_on_c, 0, 63, 63
2,36794, Note_on_c, 0, 55, 47
2,36794, Note_on_c, 0, 58, 62
2,36865, Control_c, 0, 64, 18
2,36880, Control_c, 0, 64, 67
2,36896, Control_c, 0, 64, 73
2,36905, Note_on_c, 0, 55, 0
2,36910, Control_c, 0, 64, 79
2,36925, Control_c, 0, 64, 80
2,36941, Control_c, 0, 64, 81
2,37018, Control_c, 0, 64, 80
2,37033, Control_c, 0, 64, 76
2,37040, Note_on_c, 0, 58, 0
2,37048, Control_c, 0, 64, 65
2,37057, Note_on_c, 0, 63, 0
2,37063, Control_c, 0, 64, 0
2,37074, Note_on_c, 0, 60, 59
2,37155, Note_on_c, 0, 60, 0
2,37181, Note_on_c, 0, 61, 59
2,37314, Note_on_c, 0, 60, 58
2,37314, Note_on_c, 0, 68, 62
2,37320, Note_on_c, 0, 61, 0
2,37323, Note_on_c, 0, 56, 56
2,37354, Note_on_c, 0, 60, 0
2,37365, Control_c, 0, 64, 69
2,37381, Control_c, 0, 64, 77
2,37384, Note_on_c, 0, 56, 0
2,37396, Control_c, 0, 64, 82
2,37412, Control_c, 0, 64, 83
2,37427, Control_c, 0, 64, 84
2,37442, Control_c, 0, 64, 84
2,37452, Note_on_c, 0, 70, 60
2,37458, Control_c, 0, 64, 85
2,37518, Note_on_c, 0, 68, 0
2,37549, Control_c, 0, 64, 80
2,37564, Control_c, 0, 64, 72
2,37564, Note_on_c, 0, 70, 0
2,37579, Note_on_c, 0, 72, 64
2,37580, Control_c, 0, 64, 51
2,37601, Note_on_c, 0, 51, 56
2,37602, Control_c, 0, 64, 0
2,37614, Note_on_c, 0, 44, 48
2,37673, Note_on_c, 0, 44, 0
2,37711, Note_on_c, 0, 46, 61
2,37745, Note_on_c, 0, 51, 0
2,37797, Note_on_c, 0, 46, 0
2,37854, Note_on_c, 0, 48, 55
2,37861, Note_on_c, 0, 56, 48
2,37892, Control_c, 0, 64, 29
2,37906, Control_c, 0, 64, 69
2,37921, Control_c, 0, 64, 76
2,37937, Control_c, 0, 64, 81
2,37944, Note_on_c, 0, 56, 0
2,37951, Control_c, 0, 64, 82
2,37966, Control_c, 0, 64, 84
2,37969, Note_on_c, 0, 48, 0
2,37982, Control_c, 0, 64, 85
2,37997, Control_c, 0, 64, 85
2,38041, Note_on_c, 0, 72, 0
2,38042, Control_c, 0, 64, 85
2,38058, Control_c, 0, 64, 83
2,38073, Control_c, 0, 64, 78
2,38089, Control_c, 0, 64, 67
2,38103, Control_c, 0, 64, 0
2,38149, Note_on_c, 0, 68, 60
2,38341, Note_on_c, 0, 68, 0
2,38413, Note_on_c, 0, 63, 63
2,38420, Note_on_c, 0, 48, 46
2,38432, Note_on_c, 0, 44, 38
2,38462, Control_c, 0, 64, 65
2,38476, Control_c, 0, 64, 73
2,38492, Control_c, 0, 64, 79
2,38507, Control_c, 0, 64, 81
2,38522, Control_c, 0, 64, 82
2,38538, Control_c, 0, 64, 82
2,38564, Note_on_c, 0, 63, 0
2,38571, Note_on_c, 0, 44, 0
2,38580, Note_on_c, 0, 48, 0
2,38629, Control_c, 0, 64, 82
2,38643, Control_c, 0, 64, 80
2,38659, Control_c, 0, 64, 78
2,38674, Control_c, 0, 64, 75
2,38690, Control_c, 0, 64, 70
2,38698, Note_on_c, 0, 65, 59
2,38705, Control_c, 0, 64, 65
2,38720, Control_c, 0, 64, 60
2,38736, Control_c, 0, 64, 53
2,38751, Control_c, 0, 64, 50
2,38766, Control_c, 0, 64, 47
2,38782, Control_c, 0, 64, 40
2,38796, Control_c, 0, 64, 0
2,38803, Note_on_c, 0, 65, 0
2,38824, Note_on_c, 0, 66, 54
2,38953, Note_on_c, 0, 66, 0
2,38972, Note_on_c, 0, 65, 59
2,38976, Note_on_c, 0, 49, 42
2,38977, Note_on_c, 0, 37, 46
2,39055, Control_c, 0, 64, 55
2,39070, Control_c, 0, 64, 69
2,39084, Control_c, 0, 64, 75
2,39092, Note_on_c, 0, 37, 0
2,39101, Control_c, 0, 64, 79
2,39116, Control_c, 0, 64, 81
2,39139, Control_c, 0, 64, 82
2,39200, Control_c, 0, 64, 81
2,39216, Control_c, 0, 64, 76
2,39231, Control_c, 0, 64, 64
2,39245, Control_c, 0, 64, 0
2,39250, Note_on_c, 0, 51, 50
2,39253, Note_on_c, 0, 73, 63
2,39259, Note_on_c, 0, 66, 56
2,39271, Note_on_c, 0, 49, 0
2,39321, Control_c, 0, 64, 25
2,39332, Note_on_c, 0, 75, 0
2,39337, Control_c, 0, 64, 64
2,39352, Control_c, 0, 64, 70
2,39366, Control_c, 0, 64, 75
2,39374, Note_on_c, 0, 73, 0
2,39378, Note_on_c, 0, 65, 0
2,39382, Control_c, 0, 64, 78
2,39383, Note_on_c, 0, 72, 70
2,39397, Control_c, 0, 64, 79
2,39399, Note_on_c, 0, 66, 0
2,39436, Note_on_c, 0, 51, 0
2,39458, Control_c, 0, 64, 78
2,39473, Control_c, 0, 64, 73
2,39489, Control_c, 0, 64, 62
2,39504, Control_c, 0, 64, 0
2,39514, Note_on_c, 0, 68, 71
2,39517, Note_on_c, 0, 53, 48
2,39521, Note_on_c, 0, 73, 71
2,39539, Note_on_c, 0, 72, 0
2,39625, Control_c, 0, 64, 41
2,39640, Control_c, 0, 64, 63
2,39656, Control_c, 0, 64, 67
2,39671, Control_c, 0, 64, 69
2,39686, Control_c, 0, 64, 71
2,39695, Note_on_c, 0, 53, 0
2,39702, Control_c, 0, 64, 72
2,39716, Control_c, 0, 64, 72
2,39747, Control_c, 0, 64, 71
2,39762, Control_c, 0, 64, 67
2,39777, Control_c, 0, 64, 52
2,39792, Control_c, 0, 64, 0
2,39793, Note_on_c, 0, 49, 42
2,39793, Note_on_c, 0, 77, 72
2,39806, Note_on_c, 0, 73, 0
2,39907, Control_c, 0, 64, 63
2,39922, Control_c, 0, 64, 69
2,39938, Control_c, 0, 64, 72
2,39952, Control_c, 0, 64, 73
2,39968, Control_c, 0, 64, 74
2,40014, Control_c, 0, 64, 73
2,40029, Control_c, 0, 64, 67
2,40044, Control_c, 0, 64, 29
2,40051, Note_on_c, 0, 77, 0
2,40060, Control_c, 0, 64, 0
2,40063, Note_on_c, 0, 70, 63
2,40065, Note_on_c, 0, 49, 0
2,40066, Note_on_c, 0, 54, 46
2,40149, Note_on_c, 0, 68, 0
2,40165, Control_c, 0, 64, 63
2,40181, Control_c, 0, 64, 68
2,40196, Control_c, 0, 64, 71
2,40211, Control_c, 0, 64, 74
2,40226, Control_c, 0, 64, 75
2,40241, Control_c, 0, 64, 75
2,40272, Control_c, 0, 64, 74
2,40286, Control_c, 0, 64, 69
2,40302, Control_c, 0, 64, 38
2,40317, Control_c, 0, 64, 0
2,40329, Note_on_c, 0, 58, 45
2,40334, Note_on_c, 0, 73, 59
2,40341, Note_on_c, 0, 66, 55
2,40359, Note_on_c, 0, 70, 0
2,40373, Note_on_c, 0, 54, 0
2,40408, Control_c, 0, 64, 43
2,40423, Control_c, 0, 64, 63
2,40438, Control_c, 0, 64, 65
2,40452, Note_on_c, 0, 66, 0
2,40454, Control_c, 0, 64, 66
2,40467, Note_on_c, 0, 65, 61
2,40469, Control_c, 0, 64, 67
2,40484, Control_c, 0, 64, 68
2,40500, Control_c, 0, 64, 68
2,40515, Control_c, 0, 64, 68
2,40531, Control_c, 0, 64, 66
2,40546, Control_c, 0, 64, 61
2,40560, Control_c, 0, 64, 0
2,40610, Note_on_c, 0, 58, 0
2,40610, Note_on_c, 0, 66, 66
2,40622, Note_on_c, 0, 51, 46
2,40637, Note_on_c, 0, 65, 0
2,40705, Control_c, 0, 64, 63
2,40719, Control_c, 0, 64, 69
2,40735, Control_c, 0, 64, 73
2,40751, Control_c, 0, 64, 76
2,40766, Control_c, 0, 64, 77
2,40782, Control_c, 0, 64, 78
2,40802, Note_on_c, 0, 66, 0
2,40820, Note_on_c, 0, 51, 0
2,40827, Control_c, 0, 64, 77
2,40827, Note_on_c, 0, 73, 0
2,40842, Control_c, 0, 64, 74
2,40858, Control_c, 0, 64, 65
2,40873, Control_c, 0, 64, 0
2,40894, Note_on_c, 0, 54, 50
2,40894, Note_on_c, 0, 63, 55
2,40894, Note_on_c, 0, 72, 63
2,40980, Control_c, 0, 64, 49
2,40995, Control_c, 0, 64, 66
2,41010, Control_c, 0, 64, 69
2,41019, Note_on_c, 0, 73, 73
2,41025, Control_c, 0, 64, 71
2,41033, Note_on_c, 0, 72, 0
2,41040, Control_c, 0, 64, 72
2,41055, Control_c, 0, 64, 73
2,41085, Control_c, 0, 64, 72
2,41101, Control_c, 0, 64, 70
2,41105, Note_on_c, 0, 54, 0
2,41116, Control_c, 0, 64, 64
2,41131, Control_c, 0, 64, 0
2,41163, Note_on_c, 0, 75, 75
2,41169, Note_on_c, 0, 48, 48
2,41173, Note_on_c, 0, 73, 0
2,41252, Control_c, 0, 64, 55
2,41267, Control_c, 0, 64, 68
2,41282, Control_c, 0, 64, 73
2,41298, Control_c, 0, 64, 76
2,41313, Control_c, 0, 64, 76
2,41344, Note_on_c, 0, 48, 0
2,41374, Control_c, 0, 64, 72
2,41378, Note_on_c, 0, 63, 0
2,41389, Control_c, 0, 64, 63
2,41389, Note_on_c, 0, 75, 0
2,41404, Control_c, 0, 64, 0
2,41420, Note_on_c, 0, 66, 68
2,41420, Note_on_c, 0, 72, 72
2,41441, Note_on_c, 0, 51, 52
2,41518, Control_c, 0, 64, 63
2,41534, Control_c, 0, 64, 70
2,41548, Control_c, 0, 64, 74
2,41564, Control_c, 0, 64, 78
2,41580, Control_c, 0, 64, 80
2,41611, Control_c, 0, 64, 80
2,41622, Note_on_c, 0, 51, 0
2,41640, Control_c, 0, 64, 80
2,41650, Note_on_c, 0, 72, 0
2,41656, Control_c, 0, 64, 75
2,41671, Control_c, 0, 64, 65
2,41686, Control_c, 0, 64, 0
2,41699, Note_on_c, 0, 69, 71
2,41713, Note_on_c, 0, 53, 60
2,41738, Note_on_c, 0, 66, 0
2,41778, Control_c, 0, 64, 50
2,41793, Control_c, 0, 64, 67
2,41809, Control_c, 0, 64, 72
2,41823, Control_c, 0, 64, 77
2,41838, Control_c, 0, 64, 79
2,41854, Control_c, 0, 64, 81
2,41872, Note_on_c, 0, 53, 0
2,41899, Control_c, 0, 64, 79
2,41914, Control_c, 0, 64, 71
2,41930, Control_c, 0, 64, 38
2,41945, Control_c, 0, 64, 0
2,41949, Note_on_c, 0, 69, 0
2,41962, Note_on_c, 0, 72, 66
2,41964, Note_on_c, 0, 65, 61
2,41968, Note_on_c, 0, 57, 57
2,42020, Control_c, 0, 64, 22
2,42035, Control_c, 0, 64, 65
2,42051, Control_c, 0, 64, 69
2,42066, Control_c, 0, 64, 73
2,42079, Note_on_c, 0, 65, 0
2,42081, Control_c, 0, 64, 75
2,42090, Note_on_c, 0, 63, 64
2,42096, Control_c, 0, 64, 77
2,42096, Note_on_c, 0, 57, 0
2,42111, Control_c, 0, 64, 79
2,42126, Control_c, 0, 64, 79
2,42187, Control_c, 0, 64, 78
2,42211, Control_c, 0, 64, 69
2,42226, Control_c, 0, 64, 0
2,42236, Note_on_c, 0, 58, 89
2,42242, Note_on_c, 0, 63, 0
2,42255, Note_on_c, 0, 61, 65
2,42290, Note_on_c, 0, 72, 0
2,42521, Note_on_c, 0, 61, 0
2,42521, Note_on_c, 0, 70, 78
2,42531, Control_c, 0, 64, 48
2,42545, Control_c, 0, 64, 69
2,42560, Control_c, 0, 64, 74
2,42576, Control_c, 0, 64, 78
2,42591, Control_c, 0, 64, 80
2,42602, Note_on_c, 0, 58, 0
2,42606, Control_c, 0, 64, 82
2,42622, Control_c, 0, 64, 84
2,42637, Control_c, 0, 64, 85
2,42652, Control_c, 0, 64, 86
2,42667, Note_on_c, 0, 70, 0
2,42729, Control_c, 0, 64, 84
2,42743, Control_c, 0, 64, 79
2,42758, Control_c, 0, 64, 67
2,42774, Control_c, 0, 64, 0
2,42787, Note_on_c, 0, 60, 75
2,42787, Note_on_c, 0, 69, 99
2,43050, Note_on_c, 0, 60, 0
2,43061, Note_on_c, 0, 78, 80
2,43188, Note_on_c, 0, 69, 0
2,43312, Note_on_c, 0, 70, 90
2,43321, Note_on_c, 0, 78, 0
2,43443, Note_on_c, 0, 77, 75
2,43568, Note_on_c, 0, 61, 86
2,43568, Note_on_c, 0, 75, 73
2,43583, Note_on_c, 0, 77, 0
2,43595, Note_on_c, 0, 70, 0
2,43632, Control_c, 0, 64, 26
2,43648, Control_c, 0, 64, 53
2,43663, Control_c, 0, 64, 59
2,43678, Control_c, 0, 64, 60
2,43695, Note_on_c, 0, 73, 74
2,43718, Note_on_c, 0, 75, 0
2,43747, Control_c, 0, 64, 57
2,43759, Note_on_c, 0, 61, 0
2,43760, Control_c, 0, 64, 39
2,43772, Control_c, 0, 64, 0
2,43805, Note_on_c, 0, 73, 0
2,43828, Note_on_c, 0, 63, 89
2,43834, Note_on_c, 0, 72, 81
2,43894, Control_c, 0, 64, 53
2,43910, Control_c, 0, 64, 65
2,43924, Control_c, 0, 64, 68
2,43939, Control_c, 0, 64, 71
2,43947, Note_on_c, 0, 73, 77
2,43955, Control_c, 0, 64, 73
2,43964, Note_on_c, 0, 72, 0
2,43970, Control_c, 0, 64, 74
2,43986, Control_c, 0, 64, 74
2,43989, Note_on_c, 0, 73, 0
2,44001, Note_on_c, 0, 63, 0
2,44016, Control_c, 0, 64, 74
2,44032, Control_c, 0, 64, 70
2,44047, Control_c, 0, 64, 60
2,44063, Control_c, 0, 64, 0
2,44083, Note_on_c, 0, 72, 89
2,44086, Note_on_c, 0, 57, 79
2,44090, Note_on_c, 0, 75, 84
2,44168, Control_c, 0, 64, 56
2,44184, Control_c, 0, 64, 67
2,44199, Control_c, 0, 64, 70
2,44214, Control_c, 0, 64, 72
2,44229, Control_c, 0, 64, 73
2,44236, Note_on_c, 0, 75, 0
2,44274, Control_c, 0, 64, 73
2,44289, Control_c, 0, 64, 68
2,44305, Control_c, 0, 64, 55
2,44305, Note_on_c, 0, 57, 0
2,44320, Control_c, 0, 64, 0
2,44343, Note_on_c, 0, 58, 82
2,44345, Note_on_c, 0, 73, 91
2,44351, Note_on_c, 0, 72, 0
2,44411, Control_c, 0, 64, 22
2,44427, Control_c, 0, 64, 65
2,44442, Control_c, 0, 64, 70
2,44457, Control_c, 0, 64, 74
2,44472, Control_c, 0, 64, 76
2,44487, Control_c, 0, 64, 77
2,44556, Control_c, 0, 64, 74
2,44558, Note_on_c, 0, 58, 0
2,44560, Note_on_c, 0, 73, 0
2,44570, Control_c, 0, 64, 67
2,44586, Control_c, 0, 64, 0
2,44615, Note_on_c, 0, 67, 83
2,44619, Note_on_c, 0, 82, 86
2,44692, Control_c, 0, 64, 56
2,44708, Control_c, 0, 64, 67
2,44723, Control_c, 0, 64, 71
2,44738, Control_c, 0, 64, 74
2,44754, Control_c, 0, 64, 76
2,44768, Control_c, 0, 64, 77
2,44772, Note_on_c, 0, 67, 0
2,44799, Control_c, 0, 64, 76
2,44814, Control_c, 0, 64, 71
2,44830, Control_c, 0, 64, 59
2,44846, Control_c, 0, 64, 0
2,44865, Note_on_c, 0, 82, 0
2,44871, Note_on_c, 0, 69, 87
2,44871, Note_on_c, 0, 84, 78
2,44936, Control_c, 0, 64, 64
2,44952, Control_c, 0, 64, 71
2,44967, Control_c, 0, 64, 75
2,44974, Note_on_c, 0, 84, 0
2,44983, Control_c, 0, 64, 77
2,44997, Control_c, 0, 64, 78
2,45008, Note_on_c, 0, 69, 0
2,45073, Control_c, 0, 64, 76
2,45088, Control_c, 0, 64, 71
2,45104, Control_c, 0, 64, 57
2,45118, Control_c, 0, 64, 0
2,45129, Note_on_c, 0, 75, 85
2,45136, Note_on_c, 0, 60, 75
2,45384, Note_on_c, 0, 60, 0
2,45392, Note_on_c, 0, 61, 77
2,45504, Note_on_c, 0, 61, 0
2,45510, Note_on_c, 0, 58, 78
2,45640, Note_on_c, 0, 73, 83
2,45641, Note_on_c, 0, 70, 81
2,45644, Note_on_c, 0, 58, 0
2,45645, Note_on_c, 0, 60, 75
2,45683, Note_on_c, 0, 75, 0
2,45720, Control_c, 0, 64, 46
2,45735, Control_c, 0, 64, 69
2,45751, Control_c, 0, 64, 75
2,45752, Note_on_c, 0, 60, 0
2,45759, Note_on_c, 0, 61, 79
2,45765, Control_c, 0, 64, 79
2,45767, Note_on_c, 0, 73, 0
2,45814, Note_on_c, 0, 70, 0
2,45841, Control_c, 0, 64, 77
2,45856, Control_c, 0, 64, 72
2,45872, Control_c, 0, 64, 63
2,45882, Note_on_c, 0, 61, 0
2,45886, Control_c, 0, 64, 0
2,45897, Note_on_c, 0, 63, 78
2,45897, Note_on_c, 0, 72, 80
2,45897, Note_on_c, 0, 78, 84
2,46015, Note_on_c, 0, 72, 0
2,46025, Note_on_c, 0, 60, 70
2,46026, Note_on_c, 0, 69, 73
2,46030, Note_on_c, 0, 63, 0
2,46158, Note_on_c, 0, 69, 0
2,46162, Note_on_c, 0, 61, 75
2,46162, Note_on_c, 0, 70, 78
2,46182, Note_on_c, 0, 60, 0
2,46258, Note_on_c, 0, 78, 0
2,46282, Note_on_c, 0, 70, 0
2,46283, Note_on_c, 0, 63, 74
2,46285, Note_on_c, 0, 72, 76
2,46311, Note_on_c, 0, 61, 0
2,46382, Note_on_c, 0, 72, 0
2,46385, Note_on_c, 0, 63, 0
2,46407, Note_on_c, 0, 77, 89
2,46408, Note_on_c, 0, 65, 80
2,46414, Note_on_c, 0, 73, 76
2,46520, Note_on_c, 0, 65, 0
2,46535, Note_on_c, 0, 61, 74
2,46540, Note_on_c, 0, 70, 77
2,46579, Note_on_c, 0, 73, 0
2,46652, Note_on_c, 0, 70, 0
2,46664, Note_on_c, 0, 72, 80
2,46668, Note_on_c, 0, 63, 76
2,46698, Note_on_c, 0, 61, 0
2,46714, Note_on_c, 0, 77, 0
2,46783, Note_on_c, 0, 73, 81
2,46794, Note_on_c, 0, 65, 77
2,46799, Note_on_c, 0, 63, 0
2,46799, Note_on_c, 0, 72, 0
2,46915, Note_on_c, 0, 82, 89
2,46921, Note_on_c, 0, 65, 0
2,46927, Note_on_c, 0, 66, 83
2,46927, Note_on_c, 0, 75, 76
2,46953, Note_on_c, 0, 73, 0
2,47042, Control_c, 0, 64, 25
2,47042, Note_on_c, 0, 72, 80
2,47053, Note_on_c, 0, 63, 73
2,47057, Control_c, 0, 64, 24
2,47058, Note_on_c, 0, 66, 0
2,47073, Control_c, 0, 64, 26
2,47087, Control_c, 0, 64, 34
2,47103, Control_c, 0, 64, 41
2,47118, Control_c, 0, 64, 36
2,47132, Note_on_c, 0, 82, 0
2,47133, Control_c, 0, 64, 0
2,47137, Note_on_c, 0, 72, 0
2,47177, Note_on_c, 0, 73, 84
2,47183, Note_on_c, 0, 65, 76
2,47208, Note_on_c, 0, 63, 0
2,47209, Note_on_c, 0, 75, 0
2,47255, Control_c, 0, 64, 42
2,47270, Control_c, 0, 64, 66
2,47272, Note_on_c, 0, 73, 0
2,47285, Control_c, 0, 64, 70
2,47294, Note_on_c, 0, 75, 71
2,47302, Control_c, 0, 64, 72
2,47316, Control_c, 0, 64, 72
2,47347, Control_c, 0, 64, 72
2,47362, Control_c, 0, 64, 70
2,47362, Note_on_c, 0, 65, 0
2,47377, Control_c, 0, 64, 66
2,47393, Control_c, 0, 64, 59
2,47408, Control_c, 0, 64, 44
2,47424, Control_c, 0, 64, 21
2,47427, Note_on_c, 0, 81, 86
2,47430, Note_on_c, 0, 77, 82
2,47432, Note_on_c, 0, 75, 0
2,47438, Control_c, 0, 64, 0
2,47564, Note_on_c, 0, 77, 0
2,47579, Note_on_c, 0, 73, 76
2,47711, Note_on_c, 0, 75, 74
2,47714, Note_on_c, 0, 73, 0
2,47715, Note_on_c, 0, 66, 76
2,47871, Control_c, 0, 64, 28
2,47886, Control_c, 0, 64, 33
2,47902, Control_c, 0, 64, 25
2,47916, Control_c, 0, 64, 0
2,47924, Note_on_c, 0, 66, 0
2,47978, Note_on_c, 0, 60, 71
2,48044, Note_on_c, 0, 75, 0
2,48053, Control_c, 0, 64, 62
2,48069, Control_c, 0, 64, 66
2,48083, Control_c, 0, 64, 68
2,48098, Control_c, 0, 64, 68
2,48115, Control_c, 0, 64, 69
2,48146, Control_c, 0, 64, 68
2,48160, Control_c, 0, 64, 66
2,48175, Control_c, 0, 64, 60
2,48191, Control_c, 0, 64, 0
2,48198, Note_on_c, 0, 60, 0
2,48241, Note_on_c, 0, 61, 64
2,48248, Note_on_c, 0, 77, 74
2,48269, Note_on_c, 0, 81, 0
2,48350, Control_c, 0, 64, 61
2,48359, Note_on_c, 0, 61, 0
2,48365, Control_c, 0, 64, 66
2,48380, Control_c, 0, 64, 69
2,48384, Note_on_c, 0, 63, 59
2,48396, Control_c, 0, 64, 71
2,48411, Control_c, 0, 64, 72
2,48426, Control_c, 0, 64, 72
2,48456, Control_c, 0, 64, 72
2,48468, Note_on_c, 0, 77, 0
2,48472, Control_c, 0, 64, 68
2,48482, Note_on_c, 0, 63, 0
2,48487, Control_c, 0, 64, 58
2,48503, Control_c, 0, 64, 0
2,48523, Note_on_c, 0, 61, 56
2,48523, Note_on_c, 0, 82, 71
2,48524, Note_on_c, 0, 70, 67
2,48624, Control_c, 0, 64, 56
2,48639, Control_c, 0, 64, 68
2,48654, Control_c, 0, 64, 73
2,48670, Control_c, 0, 64, 78
2,48684, Control_c, 0, 64, 81
2,48690, Note_on_c, 0, 70, 0
2,48698, Control_c, 0, 64, 82
2,48745, Control_c, 0, 64, 81
2,48759, Control_c, 0, 64, 78
2,48769, Note_on_c, 0, 61, 0
2,48774, Control_c, 0, 64, 70
2,48785, Note_on_c, 0, 58, 54
2,48790, Control_c, 0, 64, 40
2,48790, Note_on_c, 0, 72, 67
2,48805, Control_c, 0, 64, 0
2,48881, Control_c, 0, 64, 63
2,48896, Control_c, 0, 64, 66
2,48899, Note_on_c, 0, 72, 0
2,48909, Note_on_c, 0, 73, 68
2,48912, Control_c, 0, 64, 67
2,48973, Control_c, 0, 64, 66
2,48989, Control_c, 0, 64, 64
2,49004, Control_c, 0, 64, 58
2,49004, Note_on_c, 0, 82, 0
2,49019, Control_c, 0, 64, 38
2,49035, Control_c, 0, 64, 0
2,49052, Note_on_c, 0, 72, 64
2,49052, Note_on_c, 0, 73, 0
2,49060, Note_on_c, 0, 63, 53
2,49125, Note_on_c, 0, 58, 0
2,49292, Note_on_c, 0, 63, 0
2,49308, Note_on_c, 0, 65, 53
2,49308, Note_on_c, 0, 70, 65
2,49342, Note_on_c, 0, 72, 0
2,49443, Note_on_c, 0, 65, 0
2,49444, Note_on_c, 0, 66, 58
2,49562, Note_on_c, 0, 66, 0
2,49584, Note_on_c, 0, 69, 67
2,49588, Note_on_c, 0, 65, 51
2,49608, Note_on_c, 0, 70, 0
2,49846, Note_on_c, 0, 70, 58
2,49859, Note_on_c, 0, 63, 43
2,49865, Note_on_c, 0, 65, 0
2,49881, Note_on_c, 0, 69, 0
2,49987, Note_on_c, 0, 70, 0
2,49987, Note_on_c, 0, 72, 60
2,50119, Note_on_c, 0, 70, 61
2,50123, Note_on_c, 0, 63, 0
2,50126, Note_on_c, 0, 72, 0
2,50134, Note_on_c, 0, 62, 38
2,50398, Note_on_c, 0, 68, 59
2,50402, Note_on_c, 0, 62, 0
2,50403, Note_on_c, 0, 63, 50
2,50429, Note_on_c, 0, 70, 0
2,50514, Note_on_c, 0, 63, 0
2,50529, Note_on_c, 0, 65, 47
2,50675, Note_on_c, 0, 67, 59
2,50681, Note_on_c, 0, 63, 46
2,50682, Note_on_c, 0, 65, 0
2,50694, Note_on_c, 0, 68, 0
2,50951, Note_on_c, 0, 68, 60
2,50966, Note_on_c, 0, 61, 45
2,50968, Note_on_c, 0, 67, 0
2,50971, Note_on_c, 0, 63, 0
2,51073, Note_on_c, 0, 68, 0
2,51080, Note_on_c, 0, 70, 58
2,51193, Note_on_c, 0, 61, 0
2,51225, Note_on_c, 0, 60, 48
2,51226, Note_on_c, 0, 68, 59
2,51233, Note_on_c, 0, 70, 0
2,51477, Note_on_c, 0, 60, 0
2,51498, Note_on_c, 0, 66, 61
2,51506, Note_on_c, 0, 61, 56
2,51513, Note_on_c, 0, 68, 0
2,51620, Note_on_c, 0, 61, 0
2,51641, Note_on_c, 0, 63, 53
2,51740, Note_on_c, 0, 66, 0
2,51752, Note_on_c, 0, 63, 0
2,51767, Note_on_c, 0, 73, 82
2,51776, Note_on_c, 0, 61, 60
2,51784, Note_on_c, 0, 65, 62
2,51801, Control_c, 0, 64, 51
2,51816, Control_c, 0, 64, 68
2,51832, Control_c, 0, 64, 67
2,51847, Control_c, 0, 64, 66
2,51863, Control_c, 0, 64, 65
2,51878, Control_c, 0, 64, 64
2,51893, Control_c, 0, 64, 64
2,51909, Control_c, 0, 64, 63
2,51938, Control_c, 0, 64, 64
2,51954, Control_c, 0, 64, 63
2,51969, Control_c, 0, 64, 60
2,51985, Control_c, 0, 64, 55
2,51999, Control_c, 0, 64, 38
2,52000, Note_on_c, 0, 61, 0
2,52010, Note_on_c, 0, 65, 0
2,52014, Control_c, 0, 64, 0
2,52029, Note_on_c, 0, 60, 48
2,52031, Note_on_c, 0, 63, 64
2,52084, Note_on_c, 0, 73, 0
2,52125, Note_on_c, 0, 63, 0
2,52145, Note_on_c, 0, 60, 0
2,52151, Note_on_c, 0, 58, 59
2,52152, Note_on_c, 0, 65, 59
2,52234, Note_on_c, 0, 58, 0
2,52258, Note_on_c, 0, 65, 0
2,52293, Note_on_c, 0, 75, 82
2,52296, Note_on_c, 0, 48, 76
2,52306, Note_on_c, 0, 56, 67
2,52312, Note_on_c, 0, 66, 56
2,52327, Control_c, 0, 64, 48
2,52343, Control_c, 0, 64, 72
2,52357, Control_c, 0, 64, 74
2,52388, Control_c, 0, 64, 73
2,52527, Note_on_c, 0, 48, 0
2,52539, Control_c, 0, 64, 71
2,52539, Note_on_c, 0, 66, 0
2,52555, Control_c, 0, 64, 66
2,52557, Note_on_c, 0, 65, 65
2,52561, Note_on_c, 0, 75, 0
2,52569, Control_c, 0, 64, 0
2,52673, Note_on_c, 0, 65, 0
2,52686, Note_on_c, 0, 63, 60
2,52794, Note_on_c, 0, 63, 0
2,52818, Note_on_c, 0, 61, 66
2,52823, Note_on_c, 0, 49, 81
2,52843, Control_c, 0, 64, 61
2,52855, Note_on_c, 0, 61, 0
2,52858, Control_c, 0, 64, 76
2,52874, Control_c, 0, 64, 78
2,52904, Control_c, 0, 64, 77
2,52983, Note_on_c, 0, 49, 0
2,53049, Control_c, 0, 64, 77
2,53064, Control_c, 0, 64, 74
2,53079, Control_c, 0, 64, 67
2,53079, Note_on_c, 0, 77, 76
2,53086, Note_on_c, 0, 73, 69
2,53094, Control_c, 0, 64, 51
2,53110, Control_c, 0, 64, 0
2,53156, Control_c, 0, 64, 18
2,53187, Control_c, 0, 64, 19
2,53202, Control_c, 0, 64, 29
2,53216, Control_c, 0, 64, 40
2,53232, Control_c, 0, 64, 41
2,53247, Control_c, 0, 64, 0
2,53296, Note_on_c, 0, 77, 0
2,53327, Note_on_c, 0, 73, 0
2,53336, Note_on_c, 0, 78, 82
2,53342, Note_on_c, 0, 72, 71
2,53386, Control_c, 0, 64, 61
2,53401, Control_c, 0, 64, 68
2,53416, Control_c, 0, 64, 72
2,53431, Control_c, 0, 64, 73
2,53446, Control_c, 0, 64, 73
2,53448, Note_on_c, 0, 72, 0
2,53459, Note_on_c, 0, 78, 0
2,53461, Note_on_c, 0, 70, 70
2,53491, Control_c, 0, 64, 72
2,53507, Control_c, 0, 64, 70
2,53522, Control_c, 0, 64, 63
2,53532, Note_on_c, 0, 70, 0
2,53537, Control_c, 0, 64, 0
2,53581, Note_on_c, 0, 72, 73
2,53583, Note_on_c, 0, 51, 63
2,53587, Note_on_c, 0, 68, 65
2,53634, Note_on_c, 0, 68, 0
2,53644, Control_c, 0, 64, 59
2,53660, Control_c, 0, 64, 66
2,53674, Control_c, 0, 64, 68
2,53689, Control_c, 0, 64, 68
2,53723, Note_on_c, 0, 66, 71
2,53726, Note_on_c, 0, 72, 0
2,53743, Control_c, 0, 64, 68
2,53757, Control_c, 0, 64, 65
2,53772, Control_c, 0, 64, 45
2,53788, Control_c, 0, 64, 0
2,53794, Note_on_c, 0, 51, 0
2,53831, Note_on_c, 0, 66, 0
2,53849, Note_on_c, 0, 73, 80
2,53860, Note_on_c, 0, 53, 62
2,53867, Note_on_c, 0, 65, 59
2,53925, Control_c, 0, 64, 62
2,53941, Control_c, 0, 64, 66
2,53956, Control_c, 0, 64, 66
2,53972, Note_on_c, 0, 53, 0
2,53977, Note_on_c, 0, 65, 0
2,53980, Note_on_c, 0, 63, 66
2,53991, Note_on_c, 0, 73, 0
2,54002, Control_c, 0, 64, 65
2,54017, Control_c, 0, 64, 59
2,54032, Control_c, 0, 64, 0
2,54066, Note_on_c, 0, 63, 0
2,54111, Note_on_c, 0, 46, 66
2,54111, Note_on_c, 0, 61, 73
2,54169, Control_c, 0, 64, 64
2,54184, Control_c, 0, 64, 70
2,54190, Note_on_c, 0, 61, 0
2,54199, Control_c, 0, 64, 73
2,54214, Control_c, 0, 64, 74
2,54230, Control_c, 0, 64, 76
2,54245, Control_c, 0, 64, 77
2,54259, Note_on_c, 0, 46, 0
2,54260, Control_c, 0, 64, 78
2,54275, Control_c, 0, 64, 79
2,54320, Control_c, 0, 64, 78
2,54336, Control_c, 0, 64, 71
2,54351, Control_c, 0, 64, 36
2,54356, Note_on_c, 0, 56, 0
2,54366, Control_c, 0, 64, 0
2,54368, Note_on_c, 0, 48, 62
2,54378, Note_on_c, 0, 68, 70
2,54512, Note_on_c, 0, 54, 57
2,54596, Note_on_c, 0, 54, 0
2,54629, Note_on_c, 0, 75, 85
2,54635, Note_on_c, 0, 53, 61
2,54745, Note_on_c, 0, 53, 0
2,54757, Note_on_c, 0, 48, 0
2,54760, Note_on_c, 0, 51, 58
2,54848, Note_on_c, 0, 75, 0
2,54856, Note_on_c, 0, 51, 0
2,54899, Note_on_c, 0, 49, 64
2,54902, Note_on_c, 0, 77, 78
2,54938, Control_c, 0, 64, 63
2,54952, Control_c, 0, 64, 71
2,54967, Control_c, 0, 64, 71
2,54995, Note_on_c, 0, 49, 0
2,54998, Control_c, 0, 64, 71
2,55024, Note_on_c, 0, 77, 0
2,55032, Note_on_c, 0, 73, 69
2,55043, Control_c, 0, 64, 70
2,55059, Control_c, 0, 64, 68
2,55073, Control_c, 0, 64, 63
2,55088, Control_c, 0, 64, 39
2,55104, Control_c, 0, 64, 0
2,55160, Note_on_c, 0, 61, 66
2,55161, Note_on_c, 0, 75, 71
2,55163, Note_on_c, 0, 49, 69
2,55188, Note_on_c, 0, 73, 0
2,55210, Control_c, 0, 64, 44
2,55225, Control_c, 0, 64, 68
2,55240, Control_c, 0, 64, 74
2,55264, Control_c, 0, 64, 78
2,55279, Control_c, 0, 64, 79
2,55288, Note_on_c, 0, 77, 75
2,55294, Note_on_c, 0, 75, 0
2,55309, Control_c, 0, 64, 79
2,55316, Note_on_c, 0, 61, 0
2,55382, Note_on_c, 0, 49, 0
2,55385, Control_c, 0, 64, 75
2,55400, Control_c, 0, 64, 66
2,55416, Control_c, 0, 64, 0
2,55422, Note_on_c, 0, 51, 62
2,55423, Note_on_c, 0, 60, 63
2,55424, Note_on_c, 0, 78, 81
2,55427, Note_on_c, 0, 77, 0
2,55529, Note_on_c, 0, 51, 0
2,55555, Note_on_c, 0, 48, 67
2,55558, Note_on_c, 0, 75, 72
2,55593, Note_on_c, 0, 78, 0
2,55676, Note_on_c, 0, 48, 0
2,55683, Note_on_c, 0, 77, 74
2,55684, Note_on_c, 0, 49, 67
2,55706, Control_c, 0, 64, 56
2,55714, Note_on_c, 0, 68, 0
2,55717, Note_on_c, 0, 60, 0
2,55719, Note_on_c, 0, 75, 0
2,55720, Control_c, 0, 64, 71
2,55736, Control_c, 0, 64, 75
2,55751, Control_c, 0, 64, 77
2,55794, Note_on_c, 0, 51, 71
2,55799, Note_on_c, 0, 49, 0
2,55805, Note_on_c, 0, 78, 79
2,55808, Note_on_c, 0, 77, 0
2,55876, Note_on_c, 0, 51, 0
2,55888, Control_c, 0, 64, 74
2,55904, Control_c, 0, 64, 66
2,55918, Control_c, 0, 64, 0
2,55927, Note_on_c, 0, 56, 67
2,55930, Note_on_c, 0, 80, 85
2,55933, Note_on_c, 0, 78, 0
2,55939, Note_on_c, 0, 53, 62
2,55949, Note_on_c, 0, 73, 65
2,56056, Note_on_c, 0, 53, 0
2,56068, Note_on_c, 0, 49, 71
2,56072, Note_on_c, 0, 77, 74
2,56101, Note_on_c, 0, 80, 0
2,56205, Note_on_c, 0, 51, 68
2,56206, Note_on_c, 0, 78, 83
2,56231, Note_on_c, 0, 77, 0
2,56261, Control_c, 0, 64, 65
2,56270, Note_on_c, 0, 56, 0
2,56276, Control_c, 0, 64, 70
2,56290, Control_c, 0, 64, 73
2,56312, Note_on_c, 0, 49, 0
2,56330, Note_on_c, 0, 53, 74
2,56337, Note_on_c, 0, 80, 86
2,56347, Note_on_c, 0, 78, 0
2,56353, Note_on_c, 0, 51, 0
2,56366, Control_c, 0, 64, 72
2,56382, Control_c, 0, 64, 69
2,56397, Control_c, 0, 64, 64
2,56412, Control_c, 0, 64, 57
2,56428, Control_c, 0, 64, 42
2,56442, Control_c, 0, 64, 31
2,56448, Note_on_c, 0, 53, 0
2,56458, Control_c, 0, 64, 19
2,56463, Note_on_c, 0, 63, 79
2,56463, Note_on_c, 0, 82, 87
2,56464, Note_on_c, 0, 54, 69
2,56473, Control_c, 0, 64, 0
2,56474, Note_on_c, 0, 80, 0
2,56578, Note_on_c, 0, 54, 0
2,56588, Note_on_c, 0, 51, 73
2,56592, Note_on_c, 0, 78, 80
2,56594, Control_c, 0, 64, 37
2,56600, Note_on_c, 0, 82, 0
2,56609, Control_c, 0, 64, 48
2,56640, Control_c, 0, 64, 43
2,56656, Control_c, 0, 64, 25
2,56671, Control_c, 0, 64, 0
2,56721, Note_on_c, 0, 80, 84
2,56722, Note_on_c, 0, 51, 0
2,56723, Note_on_c, 0, 53, 72
2,56725, Note_on_c, 0, 78, 0
2,56799, Control_c, 0, 64, 21
2,56805, Note_on_c, 0, 63, 0
2,56814, Control_c, 0, 64, 64
2,56830, Control_c, 0, 64, 67
2,56842, Note_on_c, 0, 53, 0
2,56845, Control_c, 0, 64, 70
2,56852, Note_on_c, 0, 54, 76
2,56861, Control_c, 0, 64, 71
2,56876, Control_c, 0, 64, 73
2,56890, Control_c, 0, 64, 74
2,56921, Control_c, 0, 64, 73
2,56928, Note_on_c, 0, 54, 0
2,56937, Control_c, 0, 64, 70
2,56945, Note_on_c, 0, 80, 0
2,56952, Control_c, 0, 64, 63
2,56967, Control_c, 0, 64, 29
2,56982, Control_c, 0, 64, 0
2,56984, Note_on_c, 0, 65, 78
2,56986, Note_on_c, 0, 56, 72
2,57077, Note_on_c, 0, 65, 0
2,57090, Note_on_c, 0, 53, 72
2,57091, Note_on_c, 0, 56, 0
2,57234, Note_on_c, 0, 53, 0
2,57242, Note_on_c, 0, 63, 68
2,57242, Note_on_c, 0, 82, 82
2,57249, Note_on_c, 0, 54, 64
2,57312, Note_on_c, 0, 63, 0
2,57317, Control_c, 0, 64, 68
2,57331, Control_c, 0, 64, 74
2,57347, Control_c, 0, 64, 78
2,57362, Control_c, 0, 64, 79
2,57373, Note_on_c, 0, 61, 70
2,57378, Control_c, 0, 64, 79
2,57386, Note_on_c, 0, 82, 0
2,57389, Note_on_c, 0, 73, 0
2,57469, Control_c, 0, 64, 78
2,57470, Note_on_c, 0, 54, 0
2,57472, Note_on_c, 0, 61, 0
2,57484, Control_c, 0, 64, 72
2,57500, Control_c, 0, 64, 59
2,57515, Control_c, 0, 64, 0
2,57518, Note_on_c, 0, 75, 74
2,57523, Note_on_c, 0, 68, 61
2,57526, Note_on_c, 0, 72, 60
2,57681, Note_on_c, 0, 72, 0
2,57798, Note_on_c, 0, 77, 69
2,57813, Note_on_c, 0, 56, 64
2,57814, Note_on_c, 0, 75, 0
2,57924, Note_on_c, 0, 78, 72
2,57926, Note_on_c, 0, 77, 0
2,58012, Note_on_c, 0, 56, 0
2,58034, Note_on_c, 0, 78, 0
2,58072, Note_on_c, 0, 49, 57
2,58080, Note_on_c, 0, 77, 72
2,58161, Control_c, 0, 64, 57
2,58176, Control_c, 0, 64, 68
2,58191, Control_c, 0, 64, 72
2,58206, Control_c, 0, 64, 74
2,58222, Control_c, 0, 64, 75
2,58237, Control_c, 0, 64, 75
2,58298, Control_c, 0, 64, 74
2,58313, Control_c, 0, 64, 69
2,58336, Control_c, 0, 64, 56
2,58343, Note_on_c, 0, 49, 0
2,58351, Control_c, 0, 64, 0
2,58361, Note_on_c, 0, 73, 69
2,58365, Note_on_c, 0, 68, 0
2,58367, Note_on_c, 0, 51, 54
2,58389, Note_on_c, 0, 77, 0
2,58457, Control_c, 0, 64, 40
2,58471, Note_on_c, 0, 51, 0
2,58472, Control_c, 0, 64, 58
2,58487, Control_c, 0, 64, 61
2,58489, Note_on_c, 0, 53, 55
2,58518, Control_c, 0, 64, 60
2,58532, Control_c, 0, 64, 59
2,58548, Control_c, 0, 64, 57
2,58563, Control_c, 0, 64, 51
2,58579, Control_c, 0, 64, 10
2,58594, Control_c, 0, 64, 0
2,58601, Note_on_c, 0, 53, 0
2,58612, Note_on_c, 0, 78, 72
2,58623, Note_on_c, 0, 72, 65
2,58626, Note_on_c, 0, 51, 51
2,58658, Note_on_c, 0, 73, 0
2,58747, Control_c, 0, 64, 62
2,58762, Control_c, 0, 64, 66
2,58778, Control_c, 0, 64, 68
2,58823, Control_c, 0, 64, 66
2,58838, Control_c, 0, 64, 56
2,58853, Control_c, 0, 64, 0
2,58856, Note_on_c, 0, 51, 0
2,58878, Note_on_c, 0, 53, 55
2,58886, Note_on_c, 0, 71, 64
2,58910, Note_on_c, 0, 78, 0
2,58916, Note_on_c, 0, 72, 0
2,58961, Control_c, 0, 64, 53
2,58976, Control_c, 0, 64, 65
2,58983, Note_on_c, 0, 53, 0
2,58991, Control_c, 0, 64, 68
2,59006, Control_c, 0, 64, 70
2,59012, Note_on_c, 0, 54, 53
2,59021, Control_c, 0, 64, 71
2,59036, Control_c, 0, 64, 72
2,59067, Control_c, 0, 64, 71
2,59082, Control_c, 0, 64, 69
2,59105, Control_c, 0, 64, 64
2,59120, Control_c, 0, 64, 37
2,59133, Note_on_c, 0, 54, 0
2,59134, Control_c, 0, 64, 0
2,59156, Note_on_c, 0, 80, 70
2,59168, Note_on_c, 0, 53, 52
2,59257, Control_c, 0, 64, 60
2,59272, Control_c, 0, 64, 66
2,59287, Control_c, 0, 64, 68
2,59302, Control_c, 0, 64, 70
2,59317, Control_c, 0, 64, 71
2,59332, Control_c, 0, 64, 72
2,59348, Control_c, 0, 64, 72
2,59350, Note_on_c, 0, 71, 0
2,59378, Control_c, 0, 64, 71
2,59389, Note_on_c, 0, 53, 0
2,59393, Control_c, 0, 64, 66
2,59408, Control_c, 0, 64, 42
2,59424, Control_c, 0, 64, 0
2,59424, Note_on_c, 0, 49, 50
2,59435, Note_on_c, 0, 70, 50
2,59514, Control_c, 0, 64, 57
2,59529, Control_c, 0, 64, 67
2,59534, Note_on_c, 0, 70, 0
2,59545, Control_c, 0, 64, 69
2,59549, Note_on_c, 0, 68, 62
2,59560, Control_c, 0, 64, 71
2,59576, Control_c, 0, 64, 71
2,59637, Control_c, 0, 64, 69
2,59652, Control_c, 0, 64, 62
2,59662, Note_on_c, 0, 80, 0
2,59667, Control_c, 0, 64, 0
2,59682, Note_on_c, 0, 68, 0
2,59694, Note_on_c, 0, 70, 57
2,59702, Note_on_c, 0, 54, 53
2,59709, Note_on_c, 0, 49, 0
2,59789, Control_c, 0, 64, 62
2,59804, Control_c, 0, 64, 66
2,59820, Control_c, 0, 64, 69
2,59835, Control_c, 0, 64, 70
2,59850, Control_c, 0, 64, 72
2,59903, Control_c, 0, 64, 69
2,59918, Control_c, 0, 64, 61
2,59933, Control_c, 0, 64, 0
2,59958, Note_on_c, 0, 78, 76
2,59961, Note_on_c, 0, 56, 61
2,59988, Note_on_c, 0, 54, 0
2,60022, Note_on_c, 0, 70, 0
2,60025, Control_c, 0, 64, 64
2,60040, Control_c, 0, 64, 69
2,60056, Control_c, 0, 64, 73
2,60065, Note_on_c, 0, 56, 0
2,60070, Control_c, 0, 64, 76
2,60083, Note_on_c, 0, 58, 57
2,60085, Control_c, 0, 64, 78
2,60101, Control_c, 0, 64, 80
2,60116, Control_c, 0, 64, 80
2,60177, Control_c, 0, 64, 77
2,60192, Control_c, 0, 64, 69
2,60206, Control_c, 0, 64, 41
2,60213, Note_on_c, 0, 58, 0
2,60219, Note_on_c, 0, 56, 58
2,60221, Note_on_c, 0, 77, 77
2,60222, Control_c, 0, 64, 0
2,60227, Note_on_c, 0, 71, 63
2,60274, Note_on_c, 0, 78, 0
2,60313, Control_c, 0, 64, 64
2,60328, Control_c, 0, 64, 68
2,60344, Control_c, 0, 64, 72
2,60358, Control_c, 0, 64, 76
2,60373, Control_c, 0, 64, 78
2,60389, Control_c, 0, 64, 79
2,60405, Control_c, 0, 64, 79
2,60421, Control_c, 0, 64, 79
2,60435, Control_c, 0, 64, 77
2,60450, Control_c, 0, 64, 70
2,60466, Control_c, 0, 64, 49
2,60481, Control_c, 0, 64, 0
2,60481, Note_on_c, 0, 58, 63
2,60483, Note_on_c, 0, 76, 81
2,60509, Note_on_c, 0, 71, 0
2,60515, Note_on_c, 0, 77, 0
2,60539, Note_on_c, 0, 56, 0
2,60557, Control_c, 0, 64, 33
2,60572, Control_c, 0, 64, 65
2,60587, Control_c, 0, 64, 69
2,60587, Note_on_c, 0, 58, 0
2,60602, Control_c, 0, 64, 73
2,60609, Note_on_c, 0, 59, 55
2,60618, Control_c, 0, 64, 76
2,60640, Control_c, 0, 64, 77
2,60656, Control_c, 0, 64, 78
2,60716, Control_c, 0, 64, 72
2,60731, Control_c, 0, 64, 60
2,60733, Note_on_c, 0, 59, 0
2,60747, Control_c, 0, 64, 0
2,60758, Note_on_c, 0, 58, 68
2,60758, Note_on_c, 0, 73, 67
2,60853, Control_c, 0, 64, 62
2,60869, Control_c, 0, 64, 70
2,60884, Control_c, 0, 64, 76
2,60899, Control_c, 0, 64, 81
2,60914, Control_c, 0, 64, 82
2,60947, Note_on_c, 0, 76, 0
2,60960, Control_c, 0, 64, 80
2,60973, Control_c, 0, 64, 74
2,60988, Control_c, 0, 64, 60
2,61000, Note_on_c, 0, 58, 0
2,61003, Control_c, 0, 64, 0
2,61021, Note_on_c, 0, 54, 62
2,61025, Note_on_c, 0, 75, 66
2,61028, Note_on_c, 0, 70, 64
2,61028, Note_on_c, 0, 73, 0
2,61094, Control_c, 0, 64, 58
2,61110, Control_c, 0, 64, 67
2,61125, Control_c, 0, 64, 73
2,61141, Control_c, 0, 64, 77
2,61143, Note_on_c, 0, 70, 0
2,61146, Note_on_c, 0, 73, 72
2,61156, Control_c, 0, 64, 80
2,61164, Note_on_c, 0, 75, 0
2,61170, Control_c, 0, 64, 81
2,61232, Control_c, 0, 64, 79
2,61247, Control_c, 0, 64, 70
2,61263, Control_c, 0, 64, 0
2,61281, Note_on_c, 0, 54, 0
2,61291, Note_on_c, 0, 75, 71
2,61296, Note_on_c, 0, 59, 70
2,61299, Note_on_c, 0, 66, 65
2,61306, Note_on_c, 0, 73, 0
2,61407, Control_c, 0, 64, 33
2,61423, Control_c, 0, 64, 65
2,61437, Control_c, 0, 64, 70
2,61452, Control_c, 0, 64, 75
2,61468, Control_c, 0, 64, 79
2,61483, Control_c, 0, 64, 80
2,61514, Control_c, 0, 64, 79
2,61529, Control_c, 0, 64, 72
2,61544, Control_c, 0, 64, 55
2,61550, Note_on_c, 0, 59, 0
2,61550, Note_on_c, 0, 63, 83
2,61550, Note_on_c, 0, 77, 68
2,61553, Note_on_c, 0, 66, 0
2,61559, Control_c, 0, 64, 0
2,61580, Note_on_c, 0, 75, 0
2,61650, Control_c, 0, 64, 52
2,61666, Control_c, 0, 64, 68
2,61673, Note_on_c, 0, 78, 78
2,61676, Note_on_c, 0, 77, 0
2,61680, Control_c, 0, 64, 75
2,61696, Control_c, 0, 64, 82
2,61711, Control_c, 0, 64, 85
2,61726, Control_c, 0, 64, 87
2,61742, Control_c, 0, 64, 87
2,61798, Note_on_c, 0, 63, 0
2,61802, Control_c, 0, 64, 84
2,61816, Note_on_c, 0, 62, 77
2,61817, Control_c, 0, 64, 76
2,61820, Note_on_c, 0, 59, 70
2,61821, Note_on_c, 0, 77, 77
2,61832, Control_c, 0, 64, 63
2,61832, Note_on_c, 0, 68, 66
2,61847, Control_c, 0, 64, 0
2,61905, Note_on_c, 0, 78, 0
2,61939, Control_c, 0, 64, 52
2,61954, Control_c, 0, 64, 65
2,61969, Control_c, 0, 64, 69
2,61985, Control_c, 0, 64, 71
2,62000, Control_c, 0, 64, 72
2,62014, Control_c, 0, 64, 73
2,62046, Control_c, 0, 64, 72
2,62061, Control_c, 0, 64, 69
2,62076, Control_c, 0, 64, 53
2,62091, Control_c, 0, 64, 0
2,62093, Note_on_c, 0, 61, 78
2,62094, Note_on_c, 0, 79, 70
2,62096, Note_on_c, 0, 59, 0
2,62122, Note_on_c, 0, 77, 0
2,62173, Note_on_c, 0, 68, 0
2,62197, Note_on_c, 0, 62, 0
2,62221, Control_c, 0, 64, 63
2,62229, Note_on_c, 0, 80, 79
2,62236, Control_c, 0, 64, 67
2,62245, Note_on_c, 0, 79, 0
2,62250, Control_c, 0, 64, 70
2,62266, Control_c, 0, 64, 72
2,62281, Control_c, 0, 64, 73
2,62312, Control_c, 0, 64, 71
2,62327, Control_c, 0, 64, 64
2,62342, Control_c, 0, 64, 0
2,62351, Note_on_c, 0, 80, 0
2,62366, Note_on_c, 0, 79, 80
2,62369, Note_on_c, 0, 58, 68
2,62369, Note_on_c, 0, 70, 73
2,62464, Control_c, 0, 64, 68
2,62474, Note_on_c, 0, 61, 0
2,62479, Control_c, 0, 64, 78
2,62490, Note_on_c, 0, 58, 0
2,62494, Control_c, 0, 64, 84
2,62510, Control_c, 0, 64, 85
2,62525, Control_c, 0, 64, 86
2,62541, Control_c, 0, 64, 87
2,62556, Control_c, 0, 64, 87
2,62571, Control_c, 0, 64, 87
2,62587, Control_c, 0, 64, 84
2,62601, Control_c, 0, 64, 75
2,62617, Control_c, 0, 64, 61
2,62631, Note_on_c, 0, 60, 74
2,62632, Control_c, 0, 64, 0
2,62640, Note_on_c, 0, 51, 64
2,62708, Control_c, 0, 64, 61
2,62723, Control_c, 0, 64, 68
2,62733, Note_on_c, 0, 70, 0
2,62738, Control_c, 0, 64, 72
2,62748, Note_on_c, 0, 58, 71
2,62753, Control_c, 0, 64, 75
2,62767, Note_on_c, 0, 51, 0
2,62768, Control_c, 0, 64, 78
2,62772, Note_on_c, 0, 60, 0
2,62784, Control_c, 0, 64, 79
2,62813, Control_c, 0, 64, 78
2,62829, Control_c, 0, 64, 72
2,62844, Control_c, 0, 64, 57
2,62861, Control_c, 0, 64, 0
2,62880, Note_on_c, 0, 58, 0
2,62891, Note_on_c, 0, 80, 82
2,62898, Note_on_c, 0, 60, 70
2,62902, Note_on_c, 0, 79, 0
2,62905, Note_on_c, 0, 56, 73
2,62960, Control_c, 0, 64, 18
2,62965, Note_on_c, 0, 80, 0
2,62974, Control_c, 0, 64, 68
2,62990, Control_c, 0, 64, 76
2,63005, Control_c, 0, 64, 83
2,63021, Control_c, 0, 64, 85
2,63036, Control_c, 0, 64, 86
2,63050, Control_c, 0, 64, 87
2,63066, Control_c, 0, 64, 88
2,63111, Control_c, 0, 64, 88
2,63114, Note_on_c, 0, 56, 0
2,63126, Control_c, 0, 64, 83
2,63142, Control_c, 0, 64, 73
2,63152, Note_on_c, 0, 68, 81
2,63157, Control_c, 0, 64, 44
2,63159, Note_on_c, 0, 58, 64
2,63167, Note_on_c, 0, 53, 50
2,63171, Control_c, 0, 64, 0
2,63180, Note_on_c, 0, 60, 0
2,63247, Control_c, 0, 64, 63
2,63263, Control_c, 0, 64, 69
2,63278, Control_c, 0, 64, 73
2,63284, Note_on_c, 0, 56, 67
2,63287, Note_on_c, 0, 58, 0
2,63292, Control_c, 0, 64, 76
2,63308, Control_c, 0, 64, 78
2,63309, Note_on_c, 0, 53, 0
2,63320, Note_on_c, 0, 56, 0
2,63323, Control_c, 0, 64, 78
2,63368, Control_c, 0, 64, 77
2,63384, Control_c, 0, 64, 74
2,63399, Control_c, 0, 64, 66
2,63409, Note_on_c, 0, 68, 0
2,63414, Control_c, 0, 64, 0
2,63422, Note_on_c, 0, 67, 76
2,63428, Note_on_c, 0, 46, 72
2,63431, Note_on_c, 0, 61, 69
2,63536, Control_c, 0, 64, 57
2,63551, Control_c, 0, 64, 63
2,63566, Control_c, 0, 64, 64
2,63641, Control_c, 0, 64, 62
2,63657, Control_c, 0, 64, 42
2,63673, Control_c, 0, 64, 0
2,63690, Note_on_c, 0, 46, 0
2,63691, Note_on_c, 0, 61, 0
2,63696, Note_on_c, 0, 66, 74
2,63711, Note_on_c, 0, 51, 68
2,63712, Note_on_c, 0, 60, 51
2,63736, Note_on_c, 0, 67, 0
2,63802, Control_c, 0, 64, 48
2,63818, Control_c, 0, 64, 63
2,63828, Note_on_c, 0, 60, 0
2,63833, Control_c, 0, 64, 64
2,63834, Note_on_c, 0, 58, 63
2,63848, Control_c, 0, 64, 64
2,63893, Control_c, 0, 64, 62
2,63909, Control_c, 0, 64, 51
2,63924, Control_c, 0, 64, 0
2,63944, Note_on_c, 0, 51, 0
2,63960, Note_on_c, 0, 58, 0
2,63967, Note_on_c, 0, 63, 67
2,63971, Note_on_c, 0, 48, 71
2,64054, Note_on_c, 0, 66, 0
2,64061, Control_c, 0, 64, 65
2,64076, Control_c, 0, 64, 71
2,64091, Control_c, 0, 64, 74
2,64106, Control_c, 0, 64, 76
2,64121, Control_c, 0, 64, 77
2,64167, Control_c, 0, 64, 74
2,64173, Note_on_c, 0, 63, 0
2,64183, Control_c, 0, 64, 66
2,64183, Note_on_c, 0, 48, 0
2,64198, Control_c, 0, 64, 0
2,64226, Note_on_c, 0, 44, 65
2,64235, Note_on_c, 0, 65, 71
2,64238, Note_on_c, 0, 61, 70
2,64319, Control_c, 0, 64, 62
2,64334, Control_c, 0, 64, 70
2,64349, Control_c, 0, 64, 75
2,64357, Note_on_c, 0, 63, 78
2,64361, Note_on_c, 0, 60, 66
2,64363, Note_on_c, 0, 61, 0
2,64364, Control_c, 0, 64, 79
2,64380, Control_c, 0, 64, 81
2,64388, Note_on_c, 0, 65, 0
2,64395, Control_c, 0, 64, 82
2,64425, Control_c, 0, 64, 81
2,64440, Control_c, 0, 64, 76
2,64453, Note_on_c, 0, 44, 0
2,64456, Control_c, 0, 64, 65
2,64478, Control_c, 0, 64, 0
2,64480, Note_on_c, 0, 60, 0
2,64485, Note_on_c, 0, 49, 76
2,64491, Note_on_c, 0, 63, 0
2,64494, Note_on_c, 0, 61, 77
2,64494, Note_on_c, 0, 65, 77
2,64559, Note_on_c, 0, 65, 0
2,64565, Note_on_c, 0, 61, 0
2,64571, Control_c, 0, 64, 64
2,64586, Control_c, 0, 64, 72
2,64601, Control_c, 0, 64, 78
2,64617, Control_c, 0, 64, 81
2,64628, Note_on_c, 0, 66, 81
2,64632, Control_c, 0, 64, 82
2,64647, Control_c, 0, 64, 82
2,64708, Control_c, 0, 64, 80
2,64710, Note_on_c, 0, 66, 0
2,64723, Control_c, 0, 64, 75
2,64739, Control_c, 0, 64, 60
2,64754, Control_c, 0, 64, 0
2,64769, Note_on_c, 0, 77, 83
2,64771, Note_on_c, 0, 61, 85
2,64777, Note_on_c, 0, 49, 0
2,64780, Note_on_c, 0, 68, 74
2,64890, Control_c, 0, 64, 40
2,64905, Control_c, 0, 64, 63
2,64920, Control_c, 0, 64, 66
2,64936, Control_c, 0, 64, 70
2,64951, Control_c, 0, 64, 73
2,64956, Note_on_c, 0, 77, 0
2,64966, Control_c, 0, 64, 77
2,64982, Control_c, 0, 64, 79
2,65027, Control_c, 0, 64, 76
2,65042, Control_c, 0, 64, 69
2,65057, Control_c, 0, 64, 38
2,65057, Note_on_c, 0, 76, 82
2,65064, Note_on_c, 0, 67, 69
2,65069, Note_on_c, 0, 68, 0
2,65072, Control_c, 0, 64, 0
2,65164, Control_c, 0, 64, 58
2,65180, Control_c, 0, 64, 68
2,65189, Note_on_c, 0, 61, 0
2,65194, Control_c, 0, 64, 71
2,65209, Control_c, 0, 64, 74
2,65225, Control_c, 0, 64, 76
2,65228, Note_on_c, 0, 67, 0
2,65247, Control_c, 0, 64, 77
2,65263, Control_c, 0, 64, 77
2,65308, Control_c, 0, 64, 73
2,65317, Note_on_c, 0, 75, 78
2,65320, Note_on_c, 0, 60, 71
2,65324, Control_c, 0, 64, 55
2,65325, Note_on_c, 0, 69, 72
2,65340, Control_c, 0, 64, 0
2,65422, Note_on_c, 0, 76, 0
2,65444, Note_on_c, 0, 60, 0
2,65453, Note_on_c, 0, 70, 69
2,65454, Note_on_c, 0, 58, 63
2,65461, Note_on_c, 0, 69, 0
2,65476, Control_c, 0, 64, 39
2,65491, Control_c, 0, 64, 51
2,65507, Control_c, 0, 64, 50
2,65522, Control_c, 0, 64, 30
2,65537, Control_c, 0, 64, 0
2,65562, Note_on_c, 0, 58, 0
2,65586, Note_on_c, 0, 72, 79
2,65589, Note_on_c, 0, 57, 74
2,65601, Note_on_c, 0, 70, 0
2,65623, Note_on_c, 0, 75, 0
2,65690, Control_c, 0, 64, 62
2,65705, Control_c, 0, 64, 70
2,65720, Control_c, 0, 64, 77
2,65736, Control_c, 0, 64, 81
2,65750, Control_c, 0, 64, 83
2,65765, Control_c, 0, 64, 84
2,65782, Note_on_c, 0, 57, 0
2,65796, Control_c, 0, 64, 82
2,65811, Control_c, 0, 64, 73
2,65826, Control_c, 0, 64, 44
2,65841, Control_c, 0, 64, 0
2,65845, Note_on_c, 0, 53, 78
2,65854, Note_on_c, 0, 73, 79
2,65863, Note_on_c, 0, 69, 68
2,65863, Note_on_c, 0, 72, 0
2,65917, Control_c, 0, 64, 61
2,65932, Control_c, 0, 64, 71
2,65933, Note_on_c, 0, 53, 0
2,65948, Control_c, 0, 64, 80
2,65962, Control_c, 0, 64, 87
2,65978, Control_c, 0, 64, 89
2,65981, Note_on_c, 0, 72, 78
2,65989, Note_on_c, 0, 73, 0
2,65993, Control_c, 0, 64, 91
2,66017, Control_c, 0, 64, 92
2,66032, Control_c, 0, 64, 93
2,66046, Control_c, 0, 64, 94
2,66049, Note_on_c, 0, 69, 0
2,66091, Control_c, 0, 64, 93
2,66107, Control_c, 0, 64, 90
2,66122, Control_c, 0, 64, 80
2,66130, Note_on_c, 0, 72, 0
2,66139, Control_c, 0, 64, 65
2,66154, Control_c, 0, 64, 0
2,66157, Note_on_c, 0, 65, 96
2,66160, Note_on_c, 0, 58, 84
2,66162, Note_on_c, 0, 73, 81
2,66166, Note_on_c, 0, 70, 72
2,66232, Note_on_c, 0, 70, 0
2,66245, Control_c, 0, 64, 40
2,66261, Control_c, 0, 64, 67
2,66275, Control_c, 0, 64, 73
2,66283, Note_on_c, 0, 73, 0
2,66290, Control_c, 0, 64, 78
2,66306, Control_c, 0, 64, 80
2,66320, Control_c, 0, 64, 80
2,66336, Control_c, 0, 64, 81
2,66351, Control_c, 0, 64, 81
2,66411, Control_c, 0, 64, 79
2,66427, Control_c, 0, 64, 73
2,66433, Note_on_c, 0, 82, 89
2,66440, Note_on_c, 0, 73, 80
2,66442, Control_c, 0, 64, 63
2,66458, Control_c, 0, 64, 0
2,66497, Note_on_c, 0, 65, 0
2,66533, Control_c, 0, 64, 52
2,66549, Control_c, 0, 64, 65
2,66564, Control_c, 0, 64, 70
2,66580, Control_c, 0, 64, 76
2,66594, Control_c, 0, 64, 80
2,66609, Control_c, 0, 64, 81
2,66670, Control_c, 0, 64, 80
2,66685, Control_c, 0, 64, 77
2,66701, Control_c, 0, 64, 67
2,66708, Note_on_c, 0, 81, 87
2,66710, Note_on_c, 0, 63, 96
2,66716, Control_c, 0, 64, 0
2,66716, Note_on_c, 0, 73, 0
2,66717, Note_on_c, 0, 72, 75
2,66725, Note_on_c, 0, 82, 0
2,66830, Control_c, 0, 64, 52
2,66845, Control_c, 0, 64, 64
2,66861, Control_c, 0, 64, 66
2,66876, Control_c, 0, 64, 69
2,66890, Control_c, 0, 64, 71
2,66906, Control_c, 0, 64, 72
2,66921, Control_c, 0, 64, 71
2,66936, Control_c, 0, 64, 68
2,66942, Note_on_c, 0, 81, 0
2,66951, Control_c, 0, 64, 52
2,66967, Control_c, 0, 64, 0
2,66974, Note_on_c, 0, 80, 85
2,66983, Note_on_c, 0, 71, 72
2,67049, Note_on_c, 0, 72, 0
2,67059, Control_c, 0, 64, 51
2,67063, Note_on_c, 0, 63, 0
2,67074, Control_c, 0, 64, 67
2,67089, Control_c, 0, 64, 75
2,67105, Control_c, 0, 64, 80
2,67118, Control_c, 0, 64, 83
2,67133, Control_c, 0, 64, 84
2,67141, Note_on_c, 0, 71, 0
2,67163, Control_c, 0, 64, 85
2,67194, Control_c, 0, 64, 84
2,67209, Control_c, 0, 64, 78
2,67225, Control_c, 0, 64, 63
2,67228, Note_on_c, 0, 78, 83
2,67232, Note_on_c, 0, 70, 78
2,67240, Control_c, 0, 64, 0
2,67283, Note_on_c, 0, 80, 0
2,67363, Note_on_c, 0, 75, 75
2,67396, Note_on_c, 0, 78, 0
2,67435, Note_on_c, 0, 58, 0
2,67477, Note_on_c, 0, 75, 0
2,67487, Note_on_c, 0, 77, 81
2,67489, Note_on_c, 0, 61, 88
2,67500, Note_on_c, 0, 58, 71
2,67552, Control_c, 0, 64, 65
2,67565, Note_on_c, 0, 70, 0
2,67567, Control_c, 0, 64, 80
2,67568, Note_on_c, 0, 58, 0
2,67582, Control_c, 0, 64, 87
2,67597, Control_c, 0, 64, 88
2,67602, Note_on_c, 0, 61, 0
2,67612, Control_c, 0, 64, 89
2,67628, Control_c, 0, 64, 90
2,67643, Control_c, 0, 64, 91
2,67658, Control_c, 0, 64, 91
2,67703, Control_c, 0, 64, 90
2,67718, Control_c, 0, 64, 85
2,67721, Note_on_c, 0, 77, 0
2,67733, Control_c, 0, 64, 75
2,67749, Control_c, 0, 64, 52
2,67755, Note_on_c, 0, 78, 91
2,67756, Note_on_c, 0, 60, 83
2,67764, Control_c, 0, 64, 0
2,67768, Note_on_c, 0, 51, 75
2,67821, Note_on_c, 0, 51, 0
2,67857, Control_c, 0, 64, 46
2,67872, Control_c, 0, 64, 63
2,67876, Note_on_c, 0, 49, 76
2,67886, Control_c, 0, 64, 64
2,67948, Control_c, 0, 64, 62
2,67951, Note_on_c, 0, 78, 0
2,67962, Control_c, 0, 64, 52
2,67978, Control_c, 0, 64, 0
2,67978, Note_on_c, 0, 49, 0
2,68016, Note_on_c, 0, 51, 73
2,68017, Note_on_c, 0, 66, 79
2,68019, Note_on_c, 0, 72, 83
2,68023, Note_on_c, 0, 70, 72
2,68029, Note_on_c, 0, 60, 0
2,68127, Control_c, 0, 64, 65
2,68127, Note_on_c, 0, 70, 0
2,68143, Control_c, 0, 64, 72
2,68158, Control_c, 0, 64, 78
2,68173, Control_c, 0, 64, 80
2,68189, Control_c, 0, 64, 81
2,68218, Note_on_c, 0, 66, 0
2,68243, Note_on_c, 0, 72, 0
2,68249, Control_c, 0, 64, 80
2,68263, Note_on_c, 0, 51, 0
2,68265, Control_c, 0, 64, 73
2,68279, Control_c, 0, 64, 57
2,68282, Note_on_c, 0, 65, 80
2,68282, Note_on_c, 0, 73, 84
2,68285, Note_on_c, 0, 53, 70
2,68287, Note_on_c, 0, 69, 81
2,68294, Control_c, 0, 64, 0
2,68394, Control_c, 0, 64, 48
2,68409, Control_c, 0, 64, 67
2,68424, Control_c, 0, 64, 74
2,68436, Note_on_c, 0, 69, 0
2,68439, Control_c, 0, 64, 78
2,68454, Control_c, 0, 64, 79
2,68499, Control_c, 0, 64, 78
2,68515, Control_c, 0, 64, 71
2,68528, Note_on_c, 0, 53, 0
2,68530, Control_c, 0, 64, 40
2,68545, Control_c, 0, 64, 0
2,68552, Note_on_c, 0, 74, 83
2,68553, Note_on_c, 0, 41, 69
2,68560, Note_on_c, 0, 68, 76
2,68563, Note_on_c, 0, 73, 0
2,68653, Control_c, 0, 64, 65
2,68669, Control_c, 0, 64, 70
2,68684, Control_c, 0, 64, 76
2,68685, Note_on_c, 0, 74, 0
2,68699, Control_c, 0, 64, 80
2,68700, Note_on_c, 0, 65, 0
2,68715, Control_c, 0, 64, 83
2,68729, Control_c, 0, 64, 83
2,68774, Control_c, 0, 64, 79
2,68790, Control_c, 0, 64, 67
2,68805, Control_c, 0, 64, 0
2,68806, Note_on_c, 0, 41, 0
2,68814, Note_on_c, 0, 43, 75
2,68815, Note_on_c, 0, 75, 86
2,68819, Note_on_c, 0, 67, 72
2,68819, Note_on_c, 0, 68, 0
2,68896, Control_c, 0, 64, 54
2,68912, Control_c, 0, 64, 68
2,68925, Note_on_c, 0, 67, 0
2,68926, Control_c, 0, 64, 72
2,68941, Control_c, 0, 64, 74
2,68957, Control_c, 0, 64, 76
2,68971, Control_c, 0, 64, 77
2,68987, Control_c, 0, 64, 77
2,69002, Control_c, 0, 64, 76
2,69009, Note_on_c, 0, 75, 0
2,69017, Control_c, 0, 64, 68
2,69033, Control_c, 0, 64, 0
2,69073, Note_on_c, 0, 72, 84
2,69075, Note_on_c, 0, 66, 72
2,69085, Note_on_c, 0, 63, 76
2,69086, Note_on_c, 0, 43, 0
2,69087, Note_on_c, 0, 45, 77
2,69192, Control_c, 0, 64, 59
2,69207, Control_c, 0, 64, 69
2,69218, Note_on_c, 0, 66, 0
2,69223, Control_c, 0, 64, 75
2,69238, Control_c, 0, 64, 79
2,69246, Note_on_c, 0, 63, 0
2,69268, Control_c, 0, 64, 74
2,69283, Control_c, 0, 64, 60
2,69296, Note_on_c, 0, 72, 0
2,69298, Control_c, 0, 64, 0
2,69307, Note_on_c, 0, 45, 0
2,69348, Note_on_c, 0, 73, 78
2,69353, Note_on_c, 0, 65, 73
2,69355, Note_on_c, 0, 61, 68
2,69359, Note_on_c, 0, 46, 85
2,69384, Note_on_c, 0, 61, 0
2,69390, Control_c, 0, 64, 41
2,69405, Control_c, 0, 64, 79
2,69414, Note_on_c, 0, 46, 0
2,69420, Control_c, 0, 64, 93
2,69436, Control_c, 0, 64, 100
2,69436, Note_on_c, 0, 65, 0
2,69473, Note_on_c, 0, 73, 0
2,69488, Note_on_c, 0, 65, 78
2,69543, Control_c, 0, 64, 97
2,69558, Control_c, 0, 64, 87
2,69573, Control_c, 0, 64, 69
2,69589, Control_c, 0, 64, 0
2,69612, Note_on_c, 0, 63, 80
2,69719, Note_on_c, 0, 65, 0
2,69719, Note_on_c, 0, 65, 7
2,69729, Note_on_c, 0, 61, 73
2,69750, Note_on_c, 0, 63, 0
2,69823, Note_on_c, 0, 61, 0
2,69864, Note_on_c, 0, 60, 74
2,69868, Note_on_c, 0, 69, 83
2,69871, Note_on_c, 0, 51, 61
2,69900, Control_c, 0, 64, 49
2,69915, Control_c, 0, 64, 76
2,69930, Control_c, 0, 64, 82
2,69944, Note_on_c, 0, 51, 0
2,69946, Control_c, 0, 64, 82
2,69988, Note_on_c, 0, 60, 0
2,69994, Note_on_c, 0, 63, 77
2,70006, Control_c, 0, 64, 83
2,70068, Note_on_c, 0, 69, 0
2,70082, Control_c, 0, 64, 80
2,70097, Control_c, 0, 64, 69
2,70112, Control_c, 0, 64, 0
2,70118, Note_on_c, 0, 61, 74
2,70123, Note_on_c, 0, 63, 0
2,70240, Note_on_c, 0, 61, 0
2,70250, Note_on_c, 0, 60, 74
2,70331, Note_on_c, 0, 60, 0
2,70368, Note_on_c, 0, 70, 82
2,70370, Note_on_c, 0, 58, 71
2,70371, Note_on_c, 0, 49, 65
2,70402, Control_c, 0, 64, 67
2,70417, Control_c, 0, 64, 80
2,70433, Control_c, 0, 64, 82
2,70460, Note_on_c, 0, 49, 0
2,70493, Control_c, 0, 64, 82
2,70501, Note_on_c, 0, 61, 76
2,70536, Note_on_c, 0, 58, 0
2,70598, Note_on_c, 0, 61, 0
2,70600, Control_c, 0, 64, 78
2,70623, Control_c, 0, 64, 60
2,70635, Note_on_c, 0, 60, 73
2,70638, Control_c, 0, 64, 0
2,70752, Note_on_c, 0, 58, 69
2,70754, Note_on_c, 0, 60, 0
2,70810, Note_on_c, 0, 58, 0
2,70854, Note_on_c, 0, 70, 0
2,70882, Note_on_c, 0, 57, 62
2,70882, Note_on_c, 0, 75, 85
2,70884, Note_on_c, 0, 48, 65
2,70926, Control_c, 0, 64, 60
2,70941, Control_c, 0, 64, 74
2,70946, Note_on_c, 0, 48, 0
2,70956, Control_c, 0, 64, 76
2,70971, Control_c, 0, 64, 75
2,70976, Note_on_c, 0, 57, 0
2,70987, Control_c, 0, 64, 75
2,71003, Note_on_c, 0, 60, 74
2,71016, Control_c, 0, 64, 75
2,71079, Control_c, 0, 64, 74
2,71094, Control_c, 0, 64, 68
2,71109, Control_c, 0, 64, 0
2,71112, Note_on_c, 0, 60, 0
2,71141, Note_on_c, 0, 49, 73
2,71144, Note_on_c, 0, 58, 71
2,71148, Note_on_c, 0, 73, 79
2,71179, Note_on_c, 0, 75, 0
2,71271, Note_on_c, 0, 51, 65
2,71314, Note_on_c, 0, 49, 0
2,71367, Note_on_c, 0, 51, 0
2,71420, Note_on_c, 0, 53, 77
2,71466, Control_c, 0, 64, 31
2,71481, Control_c, 0, 64, 61
2,71496, Control_c, 0, 64, 59
2,71503, Note_on_c, 0, 73, 0
2,71509, Note_on_c, 0, 58, 0
2,71512, Control_c, 0, 64, 60
2,71527, Control_c, 0, 64, 61
2,71543, Control_c, 0, 64, 62
2,71548, Note_on_c, 0, 72, 70
2,71558, Control_c, 0, 64, 61
2,71573, Control_c, 0, 64, 56
2,71589, Control_c, 0, 64, 16
2,71603, Control_c, 0, 64, 0
2,71606, Note_on_c, 0, 65, 0
2,71649, Note_on_c, 0, 53, 0
2,71677, Note_on_c, 0, 57, 82
2,71682, Note_on_c, 0, 73, 77
2,71719, Note_on_c, 0, 72, 0
2,71738, Control_c, 0, 64, 65
2,71754, Control_c, 0, 64, 73
2,71769, Control_c, 0, 64, 79
2,71784, Control_c, 0, 64, 82
2,71799, Control_c, 0, 64, 83
2,71800, Note_on_c, 0, 75, 77
2,71801, Note_on_c, 0, 73, 0
2,71807, Note_on_c, 0, 57, 0
2,71814, Control_c, 0, 64, 83
2,71830, Control_c, 0, 64, 84
2,71845, Control_c, 0, 64, 85
2,71860, Control_c, 0, 64, 86
2,71888, Note_on_c, 0, 75, 0
2,71922, Control_c, 0, 64, 83
2,71937, Control_c, 0, 64, 76
2,71949, Note_on_c, 0, 41, 76
2,71952, Control_c, 0, 64, 65
2,71952, Note_on_c, 0, 63, 81
2,71952, Note_on_c, 0, 69, 80
2,71967, Control_c, 0, 64, 0
2,72208, Note_on_c, 0, 63, 0
2,72249, Control_c, 0, 64, 58
2,72253, Note_on_c, 0, 61, 64
2,72264, Control_c, 0, 64, 67
2,72279, Control_c, 0, 64, 71
2,72294, Control_c, 0, 64, 74
2,72310, Control_c, 0, 64, 75
2,72310, Note_on_c, 0, 69, 0
2,72325, Control_c, 0, 64, 77
2,72340, Control_c, 0, 64, 78
2,72355, Control_c, 0, 64, 79
2,72362, Note_on_c, 0, 61, 0
2,72377, Note_on_c, 0, 60, 62
2,72401, Control_c, 0, 64, 80
2,72472, Note_on_c, 0, 41, 0
2,72492, Control_c, 0, 64, 79
2,72508, Control_c, 0, 64, 75
2,72512, Note_on_c, 0, 60, 0
2,72523, Control_c, 0, 64, 68
2,72538, Control_c, 0, 64, 52
2,72543, Note_on_c, 0, 70, 81
2,72554, Control_c, 0, 64, 0
2,72557, Note_on_c, 0, 46, 58
2,72562, Note_on_c, 0, 61, 57
2,72838, Note_on_c, 0, 61, 0
2,72854, Note_on_c, 0, 46, 0
2,72854, Note_on_c, 0, 66, 60
2,72893, Note_on_c, 0, 70, 0
2,73111, Note_on_c, 0, 68, 70
2,73132, Note_on_c, 0, 65, 47
2,73145, Note_on_c, 0, 66, 0
2,73174, Note_on_c, 0, 65, 0
2,73174, Note_on_c, 0, 65, 14
2,73339, Note_on_c, 0, 65, 0
2,73378, Note_on_c, 0, 46, 46
2,73379, Note_on_c, 0, 64, 52
2,73449, Note_on_c, 0, 68, 0
2,73625, Note_on_c, 0, 63, 57
2,73637, Note_on_c, 0, 47, 54
2,73655, Note_on_c, 0, 64, 0
2,73725, Note_on_c, 0, 46, 0
2,73882, Note_on_c, 0, 47, 0
2,73906, Note_on_c, 0, 66, 66
2,73915, Note_on_c, 0, 48, 55
2,73957, Note_on_c, 0, 63, 0
2,74028, Control_c, 0, 64, 47
2,74042, Control_c, 0, 64, 46
2,74057, Control_c, 0, 64, 47
2,74073, Control_c, 0, 64, 47
2,74088, Control_c, 0, 64, 48
2,74103, Control_c, 0, 64, 45
2,74111, Note_on_c, 0, 48, 0
2,74118, Control_c, 0, 64, 21
2,74133, Control_c, 0, 64, 0
2,74157, Note_on_c, 0, 66, 0
2,74171, Note_on_c, 0, 65, 70
2,74190, Note_on_c, 0, 50, 50
2,74296, Note_on_c, 0, 50, 0
2,74303, Note_on_c, 0, 53, 58
2,74398, Note_on_c, 0, 65, 0
2,74418, Note_on_c, 0, 53, 0
2,74436, Note_on_c, 0, 71, 74
2,74442, Note_on_c, 0, 56, 53
2,74444, Note_on_c, 0, 63, 53
2,74552, Control_c, 0, 64, 63
2,74567, Control_c, 0, 64, 66
2,74583, Control_c, 0, 64, 67
2,74628, Control_c, 0, 64, 67
2,74643, Control_c, 0, 64, 64
2,74658, Control_c, 0, 64, 50
2,74674, Control_c, 0, 64, 0
2,74701, Note_on_c, 0, 63, 0
2,74719, Note_on_c, 0, 71, 0
2,74720, Note_on_c, 0, 70, 70
2,74730, Note_on_c, 0, 62, 51
2,74990, Note_on_c, 0, 62, 0
2,75000, Note_on_c, 0, 55, 49
2,75004, Note_on_c, 0, 61, 49
2,75018, Note_on_c, 0, 56, 0
2,75063, Note_on_c, 0, 70, 0
2,75254, Note_on_c, 0, 55, 0
2,75267, Note_on_c, 0, 61, 0
2,75276, Note_on_c, 0, 56, 50
2,75278, Note_on_c, 0, 60, 57
2,75491, Note_on_c, 0, 56, 0
2,75533, Note_on_c, 0, 59, 47
2,75537, Note_on_c, 0, 68, 65
2,75541, Note_on_c, 0, 50, 46
2,75589, Note_on_c, 0, 60, 0
2,75682, Note_on_c, 0, 68, 0
2,75697, Note_on_c, 0, 50, 0
2,75776, Note_on_c, 0, 59, 0
2,75789, Note_on_c, 0, 58, 49
2,75795, Note_on_c, 0, 51, 51
2,75801, Note_on_c, 0, 66, 59
2,75927, Note_on_c, 0, 70, 59
2,75929, Note_on_c, 0, 66, 0
2,75960, Note_on_c, 0, 51, 0
2,76065, Note_on_c, 0, 68, 69
2,76075, Note_on_c, 0, 70, 0
2,76198, Note_on_c, 0, 66, 68
2,76200, Note_on_c, 0, 68, 0
2,76295, Note_on_c, 0, 66, 0
2,76317, Note_on_c, 0, 65, 68
2,76323, Note_on_c, 0, 53, 55
2,76436, Note_on_c, 0, 68, 66
2,76449, Note_on_c, 0, 65, 0
2,76514, Note_on_c, 0, 53, 0
2,76569, Note_on_c, 0, 66, 69
2,76586, Note_on_c, 0, 68, 0
2,76694, Note_on_c, 0, 65, 67
2,76700, Note_on_c, 0, 66, 0
2,76819, Note_on_c, 0, 65, 0
2,76837, Note_on_c, 0, 63, 64
2,76838, Note_on_c, 0, 54, 58
2,76954, Note_on_c, 0, 66, 69
2,76978, Note_on_c, 0, 63, 0
2,77030, Note_on_c, 0, 54, 0
2,77087, Note_on_c, 0, 65, 70
2,77088, Note_on_c, 0, 66, 0
2,77197, Note_on_c, 0, 65, 0
2,77211, Note_on_c, 0, 63, 65
2,77315, Note_on_c, 0, 63, 0
2,77336, Note_on_c, 0, 56, 66
2,77338, Note_on_c, 0, 62, 63
2,77389, Control_c, 0, 64, 60
2,77403, Control_c, 0, 64, 66
2,77418, Control_c, 0, 64, 67
2,77434, Control_c, 0, 64, 68
2,77449, Control_c, 0, 64, 69
2,77452, Note_on_c, 0, 58, 0
2,77457, Note_on_c, 0, 65, 68
2,77465, Control_c, 0, 64, 70
2,77466, Note_on_c, 0, 62, 0
2,77473, Note_on_c, 0, 56, 0
2,77480, Control_c, 0, 64, 70
2,77511, Control_c, 0, 64, 69
2,77532, Control_c, 0, 64, 66
2,77548, Control_c, 0, 64, 46
2,77563, Control_c, 0, 64, 0
2,77586, Note_on_c, 0, 65, 0
2,77599, Note_on_c, 0, 63, 67
2,77605, Note_on_c, 0, 58, 64
2,77615, Note_on_c, 0, 54, 59
2,77671, Control_c, 0, 64, 40
2,77686, Control_c, 0, 64, 69
2,77701, Control_c, 0, 64, 73
2,77716, Control_c, 0, 64, 76
2,77728, Note_on_c, 0, 63, 0
2,77731, Control_c, 0, 64, 77
2,77747, Control_c, 0, 64, 77
2,77762, Control_c, 0, 64, 78
2,77775, Note_on_c, 0, 54, 0
2,77838, Control_c, 0, 64, 74
2,77853, Control_c, 0, 64, 57
2,77855, Note_on_c, 0, 53, 56
2,77858, Note_on_c, 0, 56, 71
2,77868, Control_c, 0, 64, 0
2,77889, Note_on_c, 0, 58, 0
2,77926, Note_on_c, 0, 53, 0
2,77954, Note_on_c, 0, 56, 0
2,77982, Note_on_c, 0, 54, 59
2,77988, Note_on_c, 0, 58, 73
2,78088, Note_on_c, 0, 58, 0
2,78091, Note_on_c, 0, 54, 0
2,78110, Note_on_c, 0, 62, 78
2,78119, Note_on_c, 0, 59, 65
2,78122, Note_on_c, 0, 56, 61
2,78201, Control_c, 0, 64, 16
2,78216, Control_c, 0, 64, 64
2,78232, Control_c, 0, 64, 66
2,78247, Control_c, 0, 64, 71
2,78250, Note_on_c, 0, 56, 0
2,78262, Control_c, 0, 64, 77
2,78278, Control_c, 0, 64, 82
2,78299, Note_on_c, 0, 59, 0
2,78300, Control_c, 0, 64, 82
2,78316, Control_c, 0, 64, 82
2,78330, Control_c, 0, 64, 78
2,78330, Note_on_c, 0, 62, 0
2,78346, Control_c, 0, 64, 67
2,78361, Control_c, 0, 64, 0
2,78369, Note_on_c, 0, 68, 79
2,78380, Note_on_c, 0, 53, 73
2,78387, Note_on_c, 0, 50, 67
2,78453, Control_c, 0, 64, 63
2,78469, Control_c, 0, 64, 71
2,78483, Control_c, 0, 64, 79
2,78484, Note_on_c, 0, 53, 0
2,78498, Control_c, 0, 64, 82
2,78505, Note_on_c, 0, 50, 0
2,78514, Control_c, 0, 64, 84
2,78529, Control_c, 0, 64, 85
2,78545, Control_c, 0, 64, 86
2,78590, Control_c, 0, 64, 83
2,78605, Control_c, 0, 64, 75
2,78620, Control_c, 0, 64, 63
2,78635, Note_on_c, 0, 46, 78
2,78636, Control_c, 0, 64, 0
2,78637, Note_on_c, 0, 68, 0
2,78641, Note_on_c, 0, 62, 64
2,78642, Note_on_c, 0, 66, 73
2,78727, Control_c, 0, 64, 49
2,78742, Control_c, 0, 64, 62
2,78757, Control_c, 0, 64, 64
2,78757, Note_on_c, 0, 62, 0
2,78765, Note_on_c, 0, 65, 75
2,78788, Control_c, 0, 64, 65
2,78789, Note_on_c, 0, 66, 0
2,78802, Control_c, 0, 64, 65
2,78833, Control_c, 0, 64, 65
2,78845, Note_on_c, 0, 46, 0
2,78848, Control_c, 0, 64, 63
2,78864, Control_c, 0, 64, 54
2,78878, Control_c, 0, 64, 0
2,78905, Note_on_c, 0, 51, 57
2,78909, Note_on_c, 0, 65, 0
2,78911, Note_on_c, 0, 66, 77
2,78912, Note_on_c, 0, 63, 71
2,79030, Control_c, 0, 64, 22
2,79033, Note_on_c, 0, 68, 72
2,79045, Control_c, 0, 64, 50
2,79051, Note_on_c, 0, 66, 0
2,79069, Control_c, 0, 64, 56
2,79098, Control_c, 0, 64, 55
2,79114, Control_c, 0, 64, 54
2,79129, Control_c, 0, 64, 51
2,79144, Control_c, 0, 64, 41
2,79148, Note_on_c, 0, 63, 0
2,79159, Control_c, 0, 64, 0
2,79182, Note_on_c, 0, 70, 76
2,79184, Note_on_c, 0, 68, 0
2,79188, Note_on_c, 0, 65, 63
2,79195, Note_on_c, 0, 51, 0
2,79196, Note_on_c, 0, 49, 61
2,79313, Control_c, 0, 64, 63
2,79327, Control_c, 0, 64, 67
2,79342, Control_c, 0, 64, 68
2,79389, Control_c, 0, 64, 66
2,79404, Control_c, 0, 64, 52
2,79413, Note_on_c, 0, 49, 0
2,79419, Control_c, 0, 64, 0
2,79446, Note_on_c, 0, 66, 68
2,79449, Note_on_c, 0, 65, 0
2,79457, Note_on_c, 0, 48, 62
2,79507, Note_on_c, 0, 70, 0
2,79525, Control_c, 0, 64, 49
2,79540, Control_c, 0, 64, 70
2,79556, Control_c, 0, 64, 77
2,79570, Note_on_c, 0, 48, 0
2,79571, Control_c, 0, 64, 82
2,79572, Note_on_c, 0, 49, 70
2,79587, Control_c, 0, 64, 82
2,79647, Control_c, 0, 64, 82
2,79662, Control_c, 0, 64, 76
2,79678, Control_c, 0, 64, 64
2,79678, Note_on_c, 0, 49, 0
2,79693, Control_c, 0, 64, 0
2,79705, Note_on_c, 0, 60, 63
2,79705, Note_on_c, 0, 69, 69
2,79708, Note_on_c, 0, 51, 60
2,79708, Note_on_c, 0, 66, 0
2,79769, Control_c, 0, 64, 31
2,79784, Control_c, 0, 64, 64
2,79799, Control_c, 0, 64, 68
2,79814, Control_c, 0, 64, 71
2,79831, Note_on_c, 0, 61, 62
2,79835, Note_on_c, 0, 70, 76
2,79837, Control_c, 0, 64, 77
2,79852, Control_c, 0, 64, 81
2,79868, Control_c, 0, 64, 83
2,79868, Note_on_c, 0, 69, 0
2,79880, Note_on_c, 0, 60, 0
2,79882, Note_on_c, 0, 61, 0
2,79883, Control_c, 0, 64, 84
2,79896, Note_on_c, 0, 70, 0
2,79929, Control_c, 0, 64, 83
2,79938, Note_on_c, 0, 51, 0
2,79944, Control_c, 0, 64, 79
2,79959, Control_c, 0, 64, 71
2,79974, Control_c, 0, 64, 46
2,79974, Note_on_c, 0, 45, 54
2,79978, Note_on_c, 0, 72, 77
2,79979, Note_on_c, 0, 63, 66
2,79989, Control_c, 0, 64, 0
2,80082, Control_c, 0, 64, 56
2,80085, Note_on_c, 0, 72, 0
2,80094, Note_on_c, 0, 48, 62
2,80096, Control_c, 0, 64, 69
2,80112, Control_c, 0, 64, 75
2,80127, Control_c, 0, 64, 81
2,80135, Note_on_c, 0, 63, 0
2,80142, Control_c, 0, 64, 81
2,80147, Note_on_c, 0, 45, 0
2,80188, Control_c, 0, 64, 81
2,80203, Control_c, 0, 64, 78
2,80210, Note_on_c, 0, 48, 0
2,80217, Control_c, 0, 64, 70
2,80231, Note_on_c, 0, 53, 62
2,80233, Control_c, 0, 64, 48
2,80244, Note_on_c, 0, 63, 81
2,80248, Control_c, 0, 64, 0
2,80250, Note_on_c, 0, 57, 59
2,80356, Note_on_c, 0, 51, 55
2,80400, Note_on_c, 0, 53, 0
2,80474, Note_on_c, 0, 57, 0
2,80476, Note_on_c, 0, 51, 0
2,80494, Note_on_c, 0, 49, 62
2,80506, Note_on_c, 0, 58, 70
2,80629, Note_on_c, 0, 58, 0
2,80633, Note_on_c, 0, 53, 63
2,80637, Note_on_c, 0, 60, 79
2,80650, Control_c, 0, 64, 18
2,80666, Control_c, 0, 64, 19
2,80681, Control_c, 0, 64, 21
2,80727, Note_on_c, 0, 53, 0
2,80740, Note_on_c, 0, 49, 0
2,80741, Control_c, 0, 64, 22
2,80757, Control_c, 0, 64, 24
2,80763, Note_on_c, 0, 58, 61
2,80766, Note_on_c, 0, 61, 85
2,80788, Control_c, 0, 64, 22
2,80795, Note_on_c, 0, 60, 0
2,80803, Control_c, 0, 64, 19
2,80818, Control_c, 0, 64, 16
2,80833, Control_c, 0, 64, 13
2,80855, Note_on_c, 0, 63, 0
2,80880, Control_c, 0, 64, 10
2,80883, Note_on_c, 0, 56, 65
2,80884, Note_on_c, 0, 58, 0
2,80895, Control_c, 0, 64, 13
2,80910, Control_c, 0, 64, 16
2,80925, Control_c, 0, 64, 19
2,80940, Control_c, 0, 64, 21
2,81002, Control_c, 0, 64, 22
2,81016, Control_c, 0, 64, 25
2,81030, Note_on_c, 0, 54, 64
2,81031, Note_on_c, 0, 70, 76
2,81032, Control_c, 0, 64, 28
2,81040, Note_on_c, 0, 56, 0
2,81047, Control_c, 0, 64, 30
2,81061, Control_c, 0, 64, 31
2,81077, Control_c, 0, 64, 30
2,81108, Control_c, 0, 64, 29
2,81123, Control_c, 0, 64, 31
2,81137, Control_c, 0, 64, 32
2,81149, Note_on_c, 0, 54, 0
2,81163, Note_on_c, 0, 53, 66
2,81213, Control_c, 0, 64, 33
2,81244, Control_c, 0, 64, 32
2,81274, Control_c, 0, 64, 32
2,81277, Note_on_c, 0, 53, 0
2,81288, Note_on_c, 0, 51, 63
2,81298, Note_on_c, 0, 60, 63
2,81305, Control_c, 0, 64, 31
2,81317, Note_on_c, 0, 61, 0
2,81335, Control_c, 0, 64, 32
2,81351, Control_c, 0, 64, 34
2,81373, Control_c, 0, 64, 40
2,81389, Control_c, 0, 64, 48
2,81404, Control_c, 0, 64, 53
2,81418, Control_c, 0, 64, 55
2,81419, Note_on_c, 0, 60, 0
2,81432, Note_on_c, 0, 49, 64
2,81434, Control_c, 0, 64, 56
2,81438, Note_on_c, 0, 61, 66
2,81439, Note_on_c, 0, 51, 0
2,81449, Control_c, 0, 64, 57
2,81465, Control_c, 0, 64, 58
2,81479, Control_c, 0, 64, 57
2,81494, Control_c, 0, 64, 54
2,81510, Control_c, 0, 64, 34
2,81525, Control_c, 0, 64, 0
2,81534, Note_on_c, 0, 49, 0
2,81549, Note_on_c, 0, 61, 0
2,81564, Note_on_c, 0, 63, 70
2,81565, Note_on_c, 0, 48, 62
2,81677, Control_c, 0, 64, 60
2,81679, Note_on_c, 0, 49, 63
2,81685, Note_on_c, 0, 48, 0
2,81692, Control_c, 0, 64, 67
2,81708, Control_c, 0, 64, 71
2,81723, Control_c, 0, 64, 73
2,81738, Control_c, 0, 64, 75
2,81754, Control_c, 0, 64, 76
2,81785, Control_c, 0, 64, 75
2,81800, Control_c, 0, 64, 66
2,81812, Note_on_c, 0, 54, 67
2,81815, Control_c, 0, 64, 0
2,81821, Note_on_c, 0, 51, 61
2,81828, Note_on_c, 0, 68, 79
2,81834, Note_on_c, 0, 70, 0
2,81852, Note_on_c, 0, 63, 0
2,81853, Note_on_c, 0, 49, 0
2,81921, Control_c, 0, 64, 47
2,81923, Note_on_c, 0, 54, 0
2,81935, Note_on_c, 0, 48, 69
2,81936, Control_c, 0, 64, 67
2,81952, Control_c, 0, 64, 71
2,81956, Note_on_c, 0, 51, 0
2,81967, Control_c, 0, 64, 74
2,81981, Control_c, 0, 64, 76
2,81997, Control_c, 0, 64, 77
2,82012, Control_c, 0, 64, 78
2,82054, Note_on_c, 0, 48, 0
2,82057, Control_c, 0, 64, 73
2,82073, Control_c, 0, 64, 13
2,82083, Note_on_c, 0, 73, 102
2,82088, Control_c, 0, 64, 0
2,82091, Note_on_c, 0, 49, 63
2,82091, Note_on_c, 0, 53, 64
2,82234, Note_on_c, 0, 65, 61
2,82245, Note_on_c, 0, 53, 0
2,82309, Note_on_c, 0, 68, 0
2,82344, Note_on_c, 0, 49, 0
2,82362, Note_on_c, 0, 46, 81
2,82364, Note_on_c, 0, 65, 0
2,82368, Note_on_c, 0, 55, 73
2,82368, Note_on_c, 0, 70, 73
2,82385, Control_c, 0, 64, 65
2,82399, Control_c, 0, 64, 71
2,82414, Control_c, 0, 64, 76
2,82430, Control_c, 0, 64, 78
2,82445, Control_c, 0, 64, 81
2,82460, Control_c, 0, 64, 83
2,82473, Note_on_c, 0, 73, 0
2,82476, Control_c, 0, 64, 84
2,82491, Control_c, 0, 64, 85
2,82506, Control_c, 0, 64, 86
2,82522, Control_c, 0, 64, 87
2,82537, Control_c, 0, 64, 87
2,82559, Note_on_c, 0, 46, 0
2,82595, Note_on_c, 0, 70, 0
2,82598, Control_c, 0, 64, 87
2,82613, Control_c, 0, 64, 79
2,82629, Control_c, 0, 64, 59
2,82632, Note_on_c, 0, 72, 92
2,82635, Note_on_c, 0, 69, 82
2,82638, Note_on_c, 0, 48, 78
2,82644, Control_c, 0, 64, 0
2,82839, Note_on_c, 0, 55, 0
2,82870, Note_on_c, 0, 69, 0
2,82907, Note_on_c, 0, 68, 67
2,82916, Note_on_c, 0, 53, 80
2,83131, Note_on_c, 0, 72, 0
2,83187, Note_on_c, 0, 68, 0
2,83194, Note_on_c, 0, 67, 80
2,83414, Note_on_c, 0, 67, 0
2,83434, Note_on_c, 0, 53, 0
2,83440, Note_on_c, 0, 70, 96
2,83451, Note_on_c, 0, 52, 77
2,83502, Control_c, 0, 64, 68
2,83518, Control_c, 0, 64, 71
2,83533, Control_c, 0, 64, 73
2,83535, Note_on_c, 0, 52, 0
2,83549, Control_c, 0, 64, 74
2,83555, Note_on_c, 0, 48, 0
2,83564, Control_c, 0, 64, 76
2,83579, Control_c, 0, 64, 79
2,83594, Control_c, 0, 64, 81
2,83609, Control_c, 0, 64, 82
2,83655, Control_c, 0, 64, 81
2,83677, Control_c, 0, 64, 74
2,83687, Note_on_c, 0, 70, 0
2,83692, Control_c, 0, 64, 57
2,83708, Control_c, 0, 64, 0
2,83723, Note_on_c, 0, 53, 77
2,83723, Note_on_c, 0, 69, 94
2,83725, Note_on_c, 0, 41, 76
2,83784, Control_c, 0, 64, 62
2,83786, Note_on_c, 0, 41, 0
2,83799, Control_c, 0, 64, 71
2,83814, Control_c, 0, 64, 77
2,83830, Control_c, 0, 64, 81
2,83845, Control_c, 0, 64, 82
2,83859, Control_c, 0, 64, 82
2,83921, Control_c, 0, 64, 81
2,83935, Control_c, 0, 64, 76
2,83951, Control_c, 0, 64, 66
2,83955, Note_on_c, 0, 69, 0
2,83966, Control_c, 0, 64, 0
2,83980, Note_on_c, 0, 75, 94
2,83986, Note_on_c, 0, 66, 71
2,83987, Note_on_c, 0, 53, 0
2,83989, Note_on_c, 0, 57, 67
2,84072, Control_c, 0, 64, 39
2,84087, Control_c, 0, 64, 64
2,84102, Control_c, 0, 64, 67
2,84118, Control_c, 0, 64, 67
2,84179, Control_c, 0, 64, 65
2,84195, Control_c, 0, 64, 56
2,84210, Control_c, 0, 64, 0
2,84221, Note_on_c, 0, 57, 0
2,84224, Note_on_c, 0, 66, 0
2,84241, Note_on_c, 0, 73, 86
2,84246, Note_on_c, 0, 58, 70
2,84246, Note_on_c, 0, 65, 76
2,84258, Note_on_c, 0, 75, 0
2,84347, Control_c, 0, 64, 61
2,84362, Control_c, 0, 64, 66
2,84377, Control_c, 0, 64, 67
2,84445, Control_c, 0, 64, 66
2,84460, Control_c, 0, 64, 53
2,84476, Control_c, 0, 64, 0
2,84512, Note_on_c, 0, 65, 0
2,84513, Note_on_c, 0, 58, 0
2,84515, Note_on_c, 0, 64, 68
2,84518, Note_on_c, 0, 56, 62
2,84582, Control_c, 0, 64, 48
2,84597, Control_c, 0, 64, 63
2,84612, Control_c, 0, 64, 64
2,84626, Note_on_c, 0, 56, 0
2,84643, Note_on_c, 0, 55, 56
2,84674, Control_c, 0, 64, 64
2,84689, Control_c, 0, 64, 59
2,84704, Control_c, 0, 64, 0
2,84764, Note_on_c, 0, 55, 0
2,84764, Note_on_c, 0, 64, 0
2,84776, Note_on_c, 0, 63, 66
2,84785, Note_on_c, 0, 73, 0
2,84786, Note_on_c, 0, 56, 61
2,84855, Control_c, 0, 64, 27
2,84871, Control_c, 0, 64, 64
2,84886, Control_c, 0, 64, 66
2,84900, Control_c, 0, 64, 66
2,84930, Note_on_c, 0, 63, 0
2,84947, Control_c, 0, 64, 64
2,84962, Control_c, 0, 64, 39
2,84978, Control_c, 0, 64, 0
2,85006, Note_on_c, 0, 56, 0
2,85029, Note_on_c, 0, 71, 77
2,85038, Note_on_c, 0, 62, 62
2,85043, Note_on_c, 0, 54, 61
2,85115, Control_c, 0, 64, 56
2,85129, Control_c, 0, 64, 66
2,85141, Note_on_c, 0, 54, 0
2,85145, Control_c, 0, 64, 66
2,85155, Note_on_c, 0, 53, 55
2,85213, Control_c, 0, 64, 66
2,85229, Control_c, 0, 64, 64
2,85239, Note_on_c, 0, 71, 0
2,85244, Control_c, 0, 64, 50
2,85246, Note_on_c, 0, 53, 0
2,85259, Control_c, 0, 64, 0
2,85293, Note_on_c, 0, 54, 60
2,85294, Note_on_c, 0, 70, 73
2,85297, Note_on_c, 0, 61, 61
2,85297, Note_on_c, 0, 62, 0
2,85431, Note_on_c, 0, 70, 0
2,85431, Note_on_c, 0, 73, 69
2,85532, Note_on_c, 0, 73, 0
2,85558, Note_on_c, 0, 71, 65
2,85589, Note_on_c, 0, 54, 0
2,85673, Note_on_c, 0, 71, 0
2,85675, Note_on_c, 0, 70, 65
2,85804, Note_on_c, 0, 70, 0
2,85808, Note_on_c, 0, 53, 62
2,85808, Note_on_c, 0, 68, 75
2,85942, Note_on_c, 0, 71, 66
2,85967, Note_on_c, 0, 68, 0
2,86080, Note_on_c, 0, 70, 75
2,86084, Note_on_c, 0, 71, 0
2,86104, Note_on_c, 0, 53, 0
2,86188, Note_on_c, 0, 70, 0
2,86196, Note_on_c, 0, 68, 71
2,86309, Note_on_c, 0, 68, 0
2,86325, Note_on_c, 0, 51, 68
2,86330, Note_on_c, 0, 66, 71
2,86429, Note_on_c, 0, 61, 0
2,86450, Note_on_c, 0, 70, 69
2,86454, Note_on_c, 0, 66, 0
2,86587, Note_on_c, 0, 59, 68
2,86589, Note_on_c, 0, 68, 74
2,86596, Note_on_c, 0, 70, 0
2,86631, Note_on_c, 0, 51, 0
2,86720, Note_on_c, 0, 68, 0
2,86721, Note_on_c, 0, 66, 65
2,86841, Note_on_c, 0, 66, 0
2,86868, Note_on_c, 0, 65, 63
2,86869, Note_on_c, 0, 49, 56
2,86995, Note_on_c, 0, 68, 54
2,87030, Note_on_c, 0, 65, 0
2,87120, Note_on_c, 0, 59, 0
2,87126, Note_on_c, 0, 66, 60
2,87129, Note_on_c, 0, 58, 54
2,87129, Note_on_c, 0, 68, 0
2,87248, Note_on_c, 0, 58, 0
2,87259, Note_on_c, 0, 56, 59
2,87394, Note_on_c, 0, 66, 0
2,87396, Note_on_c, 0, 54, 58
2,87409, Note_on_c, 0, 56, 0
2,87529, Note_on_c, 0, 58, 72
2,87556, Note_on_c, 0, 54, 0
2,87639, Note_on_c, 0, 58, 0
2,87654, Note_on_c, 0, 56, 60
2,87660, Note_on_c, 0, 65, 81
2,87779, Note_on_c, 0, 54, 60
2,87802, Note_on_c, 0, 56, 0
2,87881, Note_on_c, 0, 65, 0
2,87884, Note_on_c, 0, 54, 0
2,87912, Note_on_c, 0, 53, 66
2,87915, Note_on_c, 0, 71, 82
2,87988, Control_c, 0, 64, 10
2,88003, Control_c, 0, 64, 25
2,88018, Control_c, 0, 64, 32
2,88034, Control_c, 0, 64, 38
2,88040, Note_on_c, 0, 53, 0
2,88043, Note_on_c, 0, 56, 64
2,88049, Control_c, 0, 64, 42
2,88065, Control_c, 0, 64, 45
2,88079, Control_c, 0, 64, 46
2,88094, Control_c, 0, 64, 43
2,88102, Note_on_c, 0, 56, 0
2,88110, Control_c, 0, 64, 36
2,88124, Control_c, 0, 64, 0
2,88147, Note_on_c, 0, 71, 0
2,88152, Note_on_c, 0, 55, 54
2,88166, Note_on_c, 0, 70, 82
2,88186, Control_c, 0, 64, 21
2,88200, Control_c, 0, 64, 49
2,88215, Control_c, 0, 64, 58
2,88231, Control_c, 0, 64, 62
2,88247, Control_c, 0, 64, 64
2,88262, Control_c, 0, 64, 65
2,88285, Control_c, 0, 64, 66
2,88287, Note_on_c, 0, 55, 0
2,88293, Note_on_c, 0, 68, 78
2,88293, Note_on_c, 0, 70, 0
2,88299, Note_on_c, 0, 53, 64
2,88300, Control_c, 0, 64, 66
2,88346, Control_c, 0, 64, 65
2,88361, Control_c, 0, 64, 64
2,88376, Control_c, 0, 64, 51
2,88392, Control_c, 0, 64, 0
2,88407, Note_on_c, 0, 53, 0
2,88431, Note_on_c, 0, 70, 82
2,88434, Note_on_c, 0, 55, 71
2,88459, Note_on_c, 0, 68, 0
2,88513, Control_c, 0, 64, 60
2,88528, Control_c, 0, 64, 67
2,88544, Control_c, 0, 64, 72
2,88559, Control_c, 0, 64, 76
2,88574, Control_c, 0, 64, 80
2,88589, Control_c, 0, 64, 81
2,88604, Control_c, 0, 64, 82
2,88633, Control_c, 0, 64, 81
2,88648, Control_c, 0, 64, 78
2,88664, Control_c, 0, 64, 70
2,88679, Control_c, 0, 64, 0
2,88682, Note_on_c, 0, 49, 0
2,88684, Note_on_c, 0, 46, 54
2,88689, Note_on_c, 0, 75, 87
2,88699, Note_on_c, 0, 70, 0
2,88707, Note_on_c, 0, 47, 65
2,88711, Note_on_c, 0, 46, 0
2,88756, Control_c, 0, 64, 54
2,88770, Control_c, 0, 64, 64
2,88786, Control_c, 0, 64, 66
2,88801, Control_c, 0, 64, 67
2,88807, Note_on_c, 0, 47, 0
2,88816, Control_c, 0, 64, 70
2,88816, Note_on_c, 0, 46, 65
2,88824, Note_on_c, 0, 55, 0
2,88832, Control_c, 0, 64, 73
2,88847, Control_c, 0, 64, 77
2,88862, Control_c, 0, 64, 78
2,88908, Control_c, 0, 64, 77
2,88923, Control_c, 0, 64, 72
2,88932, Note_on_c, 0, 46, 0
2,88938, Control_c, 0, 64, 61
2,88954, Control_c, 0, 64, 0
2,88958, Note_on_c, 0, 56, 91
2,88964, Note_on_c, 0, 47, 80
2,89067, Control_c, 0, 64, 41
2,89083, Control_c, 0, 64, 60
2,89098, Control_c, 0, 64, 61
2,89145, Control_c, 0, 64, 60
2,89159, Control_c, 0, 64, 51
2,89174, Control_c, 0, 64, 0
2,89221, Note_on_c, 0, 52, 84
2,89221, Note_on_c, 0, 73, 81
2,89226, Note_on_c, 0, 75, 0
2,89249, Note_on_c, 0, 47, 0
2,89296, Control_c, 0, 64, 41
2,89312, Control_c, 0, 64, 63
2,89327, Control_c, 0, 64, 67
2,89331, Note_on_c, 0, 56, 0
2,89342, Control_c, 0, 64, 70
2,89345, Note_on_c, 0, 73, 0
2,89349, Note_on_c, 0, 71, 80
2,89357, Control_c, 0, 64, 73
2,89372, Control_c, 0, 64, 75
2,89388, Control_c, 0, 64, 75
2,89434, Control_c, 0, 64, 74
2,89449, Control_c, 0, 64, 69
2,89465, Control_c, 0, 64, 40
2,89479, Control_c, 0, 64, 0
2,89484, Note_on_c, 0, 73, 88
2,89492, Note_on_c, 0, 58, 82
2,89518, Note_on_c, 0, 71, 0
2,89586, Control_c, 0, 64, 49
2,89601, Control_c, 0, 64, 62
2,89615, Control_c, 0, 64, 65
2,89631, Control_c, 0, 64, 67
2,89646, Control_c, 0, 64, 69
2,89661, Control_c, 0, 64, 71
2,89677, Control_c, 0, 64, 72
2,89722, Control_c, 0, 64, 71
2,89737, Control_c, 0, 64, 68
2,89753, Control_c, 0, 64, 56
2,89754, Note_on_c, 0, 78, 97
2,89756, Note_on_c, 0, 51, 65
2,89767, Control_c, 0, 64, 0
2,89771, Note_on_c, 0, 73, 0
2,89802, Note_on_c, 0, 52, 0
2,89851, Control_c, 0, 64, 18
2,89867, Control_c, 0, 64, 59
2,89875, Note_on_c, 0, 58, 0
2,89882, Control_c, 0, 64, 65
2,89891, Note_on_c, 0, 51, 0
2,89894, Note_on_c, 0, 49, 70
2,89898, Control_c, 0, 64, 66
2,89914, Control_c, 0, 64, 68
2,89928, Control_c, 0, 64, 69
2,89944, Control_c, 0, 64, 70
2,89974, Control_c, 0, 64, 69
2,89990, Control_c, 0, 64, 65
2,90004, Control_c, 0, 64, 42
2,90019, Control_c, 0, 64, 0
2,90032, Note_on_c, 0, 59, 80
2,90039, Note_on_c, 0, 49, 0
2,90040, Note_on_c, 0, 51, 70
2,90125, Control_c, 0, 64, 47
2,90140, Control_c, 0, 64, 63
2,90156, Control_c, 0, 64, 65
2,90171, Control_c, 0, 64, 65
2,90216, Control_c, 0, 64, 65
2,90232, Control_c, 0, 64, 62
2,90247, Control_c, 0, 64, 10
2,90262, Control_c, 0, 64, 0
2,90296, Note_on_c, 0, 56, 72
2,90300, Note_on_c, 0, 76, 77
2,90334, Note_on_c, 0, 78, 0
2,90351, Note_on_c, 0, 59, 0
2,90369, Control_c, 0, 64, 62
2,90385, Control_c, 0, 64, 67
2,90399, Control_c, 0, 64, 69
2,90414, Control_c, 0, 64, 72
2,90425, Note_on_c, 0, 75, 77
2,90430, Control_c, 0, 64, 76
2,90445, Control_c, 0, 64, 79
2,90459, Control_c, 0, 64, 81
2,90459, Note_on_c, 0, 51, 0
2,90477, Note_on_c, 0, 76, 0
2,90490, Control_c, 0, 64, 81
2,90521, Control_c, 0, 64, 81
2,90535, Control_c, 0, 64, 77
2,90551, Control_c, 0, 64, 67
2,90555, Note_on_c, 0, 58, 78
2,90562, Note_on_c, 0, 73, 76
2,90566, Control_c, 0, 64, 0
2,90608, Note_on_c, 0, 75, 0
2,90690, Note_on_c, 0, 73, 0
2,90698, Note_on_c, 0, 71, 72
2,90761, Note_on_c, 0, 56, 0
2,90819, Note_on_c, 0, 55, 64
2,90829, Note_on_c, 0, 70, 70
2,90877, Note_on_c, 0, 71, 0
2,90920, Note_on_c, 0, 55, 0
2,90941, Note_on_c, 0, 53, 66
2,90945, Note_on_c, 0, 68, 70
2,90948, Note_on_c, 0, 70, 0
2,91049, Note_on_c, 0, 53, 0
2,91079, Note_on_c, 0, 55, 71
2,91079, Note_on_c, 0, 70, 76
2,91086, Note_on_c, 0, 58, 0
2,91088, Note_on_c, 0, 68, 0
2,91152, Control_c, 0, 64, 29
2,91167, Control_c, 0, 64, 0
2,91213, Control_c, 0, 64, 32
2,91228, Control_c, 0, 64, 51
2,91243, Control_c, 0, 64, 52
2,91274, Control_c, 0, 64, 52
2,91289, Control_c, 0, 64, 53
2,91304, Control_c, 0, 64, 52
2,91319, Control_c, 0, 64, 0
2,91325, Note_on_c, 0, 55, 0
2,91361, Note_on_c, 0, 56, 56
2,91362, Note_on_c, 0, 64, 68
2,91485, Note_on_c, 0, 58, 66
2,91509, Note_on_c, 0, 56, 0
2,91573, Note_on_c, 0, 58, 0
2,91576, Note_on_c, 0, 64, 0
2,91617, Note_on_c, 0, 51, 95
2,91624, Note_on_c, 0, 63, 72
2,91628, Note_on_c, 0, 59, 82
2,91788, Note_on_c, 0, 70, 0
2,91891, Note_on_c, 0, 51, 0
2,91905, Note_on_c, 0, 68, 89
2,92153, Note_on_c, 0, 59, 0
2,92165, Note_on_c, 0, 49, 94
2,92182, Note_on_c, 0, 58, 75
2,92406, Note_on_c, 0, 49, 0
2,92439, Note_on_c, 0, 67, 79
2,92459, Note_on_c, 0, 68, 0
2,92696, Note_on_c, 0, 56, 85
2,92696, Note_on_c, 0, 68, 84
2,92699, Note_on_c, 0, 67, 0
2,92711, Note_on_c, 0, 58, 0
2,92714, Note_on_c, 0, 63, 0
2,92901, Note_on_c, 0, 56, 0
2,92961, Note_on_c, 0, 47, 85
2,92965, Note_on_c, 0, 58, 75
2,93015, Control_c, 0, 64, 61
2,93031, Control_c, 0, 64, 69
2,93045, Control_c, 0, 64, 72
2,93054, Note_on_c, 0, 47, 0
2,93060, Control_c, 0, 64, 73
2,93064, Note_on_c, 0, 58, 0
2,93076, Control_c, 0, 64, 72
2,93087, Note_on_c, 0, 59, 74
2,93091, Control_c, 0, 64, 68
2,93107, Control_c, 0, 64, 56
2,93121, Control_c, 0, 64, 0
2,93152, Note_on_c, 0, 59, 0
2,93210, Note_on_c, 0, 46, 97
2,93213, Note_on_c, 0, 61, 77
2,93243, Control_c, 0, 64, 67
2,93243, Note_on_c, 0, 61, 0
2,93258, Control_c, 0, 64, 82
2,93267, Note_on_c, 0, 68, 0
2,93274, Control_c, 0, 64, 93
2,93289, Control_c, 0, 64, 97
2,93320, Control_c, 0, 64, 98
2,93332, Note_on_c, 0, 46, 0
2,93380, Control_c, 0, 64, 96
2,93396, Control_c, 0, 64, 90
2,93411, Control_c, 0, 64, 79
2,93426, Control_c, 0, 64, 63
2,93441, Control_c, 0, 64, 0
2,93473, Note_on_c, 0, 80, 92
2,93476, Note_on_c, 0, 74, 74
2,93479, Note_on_c, 0, 52, 89
2,93532, Control_c, 0, 64, 44
2,93548, Control_c, 0, 64, 69
2,93562, Control_c, 0, 64, 76
2,93577, Control_c, 0, 64, 83
2,93593, Control_c, 0, 64, 84
2,93608, Control_c, 0, 64, 85
2,93661, Control_c, 0, 64, 84
2,93677, Control_c, 0, 64, 80
2,93679, Note_on_c, 0, 52, 0
2,93681, Note_on_c, 0, 74, 0
2,93691, Control_c, 0, 64, 70
2,93695, Note_on_c, 0, 80, 0
2,93707, Control_c, 0, 64, 25
2,93722, Control_c, 0, 64, 0
2,93732, Note_on_c, 0, 79, 82
2,93738, Note_on_c, 0, 75, 77
2,93749, Note_on_c, 0, 51, 78
2,93813, Control_c, 0, 64, 63
2,93829, Control_c, 0, 64, 69
2,93837, Note_on_c, 0, 75, 0
2,93843, Control_c, 0, 64, 73
2,93858, Control_c, 0, 64, 75
2,93864, Note_on_c, 0, 70, 76
2,93874, Control_c, 0, 64, 78
2,93888, Control_c, 0, 64, 79
2,93950, Control_c, 0, 64, 77
2,93963, Note_on_c, 0, 51, 0
2,93965, Control_c, 0, 64, 69
2,93980, Control_c, 0, 64, 0
2,93996, Note_on_c, 0, 78, 81
2,93998, Note_on_c, 0, 63, 81
2,93999, Note_on_c, 0, 75, 81
2,93999, Note_on_c, 0, 79, 0
2,94016, Note_on_c, 0, 70, 0
2,94087, Control_c, 0, 64, 65
2,94102, Control_c, 0, 64, 73
2,94118, Control_c, 0, 64, 80
2,94133, Control_c, 0, 64, 83
2,94142, Note_on_c, 0, 63, 0
2,94149, Control_c, 0, 64, 84
2,94194, Control_c, 0, 64, 82
2,94209, Control_c, 0, 64, 75
2,94225, Control_c, 0, 64, 60
2,94228, Note_on_c, 0, 78, 0
2,94240, Control_c, 0, 64, 0
2,94246, Note_on_c, 0, 77, 79
2,94251, Note_on_c, 0, 65, 73
2,94270, Note_on_c, 0, 75, 0
2,94300, Control_c, 0, 64, 19
2,94300, Note_on_c, 0, 65, 0
2,94315, Control_c, 0, 64, 66
2,94330, Control_c, 0, 64, 73
2,94346, Control_c, 0, 64, 80
2,94361, Control_c, 0, 64, 84
2,94376, Control_c, 0, 64, 85
2,94380, Note_on_c, 0, 73, 72
2,94391, Control_c, 0, 64, 87
2,94406, Control_c, 0, 64, 88
2,94407, Note_on_c, 0, 77, 0
2,94430, Control_c, 0, 64, 89
2,94445, Control_c, 0, 64, 90
2,94482, Note_on_c, 0, 73, 0
2,94490, Control_c, 0, 64, 86
2,94506, Control_c, 0, 64, 77
2,94521, Control_c, 0, 64, 60
2,94525, Note_on_c, 0, 49, 71
2,94527, Note_on_c, 0, 76, 79
2,94533, Note_on_c, 0, 71, 59
2,94535, Control_c, 0, 64, 0
2,94536, Note_on_c, 0, 67, 65
2,94611, Control_c, 0, 64, 41
2,94627, Control_c, 0, 64, 67
2,94641, Note_on_c, 0, 76, 0
2,94642, Control_c, 0, 64, 73
2,94647, Note_on_c, 0, 70, 75
2,94657, Control_c, 0, 64, 79
2,94665, Note_on_c, 0, 67, 0
2,94673, Control_c, 0, 64, 82
2,94687, Control_c, 0, 64, 84
2,94702, Control_c, 0, 64, 84
2,94709, Note_on_c, 0, 71, 0
2,94726, Note_on_c, 0, 70, 0
2,94736, Note_on_c, 0, 49, 0
2,94748, Control_c, 0, 64, 83
2,94763, Control_c, 0, 64, 75
2,94778, Control_c, 0, 64, 59
2,94792, Note_on_c, 0, 75, 81
2,94794, Control_c, 0, 64, 0
2,94802, Note_on_c, 0, 47, 68
2,94804, Note_on_c, 0, 68, 67
2,94806, Note_on_c, 0, 71, 60
2,94871, Control_c, 0, 64, 60
2,94886, Control_c, 0, 64, 68
2,94901, Control_c, 0, 64, 71
2,94916, Control_c, 0, 64, 73
2,94918, Note_on_c, 0, 51, 73
2,94922, Note_on_c, 0, 47, 0
2,94931, Control_c, 0, 64, 74
2,94947, Control_c, 0, 64, 74
2,94967, Note_on_c, 0, 68, 0
2,94977, Control_c, 0, 64, 74
2,94992, Control_c, 0, 64, 68
2,95007, Control_c, 0, 64, 0
2,95008, Note_on_c, 0, 71, 0
2,95047, Note_on_c, 0, 49, 75
2,95058, Note_on_c, 0, 51, 0
2,95175, Note_on_c, 0, 49, 0
2,95178, Note_on_c, 0, 47, 71
2,95295, Note_on_c, 0, 73, 74
2,95301, Note_on_c, 0, 67, 69
2,95305, Note_on_c, 0, 46, 74
2,95312, Note_on_c, 0, 47, 0
2,95350, Control_c, 0, 64, 62
2,95365, Control_c, 0, 64, 0
2,95424, Note_on_c, 0, 67, 0
2,95441, Note_on_c, 0, 49, 76
2,95470, Note_on_c, 0, 46, 0
2,95554, Note_on_c, 0, 49, 0
2,95565, Note_on_c, 0, 47, 83
2,95566, Note_on_c, 0, 73, 0
2,95690, Note_on_c, 0, 46, 77
2,95702, Note_on_c, 0, 47, 0
2,95811, Note_on_c, 0, 71, 76
2,95814, Note_on_c, 0, 44, 81
2,95819, Note_on_c, 0, 68, 64
2,95824, Note_on_c, 0, 46, 0
2,95941, Note_on_c, 0, 47, 84
2,95947, Note_on_c, 0, 44, 0
2,95991, Note_on_c, 0, 68, 0
2,96059, Note_on_c, 0, 71, 0
2,96083, Note_on_c, 0, 46, 82
2,96094, Note_on_c, 0, 47, 0
2,96206, Note_on_c, 0, 44, 77
2,96212, Note_on_c, 0, 46, 0
2,96310, Note_on_c, 0, 44, 0
2,96336, Note_on_c, 0, 43, 77
2,96336, Note_on_c, 0, 70, 71
2,96340, Note_on_c, 0, 63, 65
2,96438, Control_c, 0, 64, 51
2,96453, Control_c, 0, 64, 64
2,96469, Control_c, 0, 64, 68
2,96469, Note_on_c, 0, 43, 0
2,96469, Note_on_c, 0, 46, 77
2,96484, Control_c, 0, 64, 71
2,96499, Control_c, 0, 64, 72
2,96501, Note_on_c, 0, 63, 0
2,96515, Control_c, 0, 64, 73
2,96561, Control_c, 0, 64, 70
2,96575, Control_c, 0, 64, 63
2,96580, Note_on_c, 0, 46, 0
2,96591, Control_c, 0, 64, 0
2,96594, Note_on_c, 0, 44, 75
2,96599, Note_on_c, 0, 75, 0
2,96603, Note_on_c, 0, 73, 72
2,96606, Note_on_c, 0, 70, 0
2,96736, Note_on_c, 0, 73, 0
2,96738, Note_on_c, 0, 71, 71
2,96769, Note_on_c, 0, 44, 0
2,96871, Note_on_c, 0, 73, 73
2,96890, Note_on_c, 0, 71, 0
2,96993, Note_on_c, 0, 76, 74
2,96995, Note_on_c, 0, 73, 0
2,97131, Note_on_c, 0, 75, 69
2,97134, Note_on_c, 0, 43, 63
2,97173, Note_on_c, 0, 76, 0
2,97218, Control_c, 0, 64, 52
2,97234, Control_c, 0, 64, 65
2,97249, Control_c, 0, 64, 68
2,97250, Note_on_c, 0, 73, 69
2,97263, Note_on_c, 0, 75, 0
2,97264, Control_c, 0, 64, 72
2,97280, Control_c, 0, 64, 76
2,97290, Note_on_c, 0, 73, 0
2,97292, Note_on_c, 0, 43, 0
2,97295, Control_c, 0, 64, 79
2,97311, Control_c, 0, 64, 80
2,97357, Control_c, 0, 64, 79
2,97371, Control_c, 0, 64, 76
2,97386, Control_c, 0, 64, 66
2,97386, Note_on_c, 0, 71, 71
2,97396, Note_on_c, 0, 64, 56
2,97400, Note_on_c, 0, 49, 60
2,97402, Control_c, 0, 64, 0
2,97461, Note_on_c, 0, 64, 0
2,97461, Note_on_c, 0, 64, 11
2,97524, Note_on_c, 0, 70, 64
2,97562, Note_on_c, 0, 71, 0
2,97641, Note_on_c, 0, 49, 0
2,97656, Note_on_c, 0, 68, 66
2,97659, Note_on_c, 0, 47, 55
2,97665, Note_on_c, 0, 70, 0
2,97751, Note_on_c, 0, 47, 0
2,97773, Note_on_c, 0, 68, 0
2,97783, Note_on_c, 0, 46, 46
2,97792, Note_on_c, 0, 67, 53
2,97916, Note_on_c, 0, 67, 0
2,97939, Note_on_c, 0, 68, 55
2,97942, Note_on_c, 0, 46, 0
2,97949, Note_on_c, 0, 47, 48
2,97999, Note_on_c, 0, 64, 0
2,98078, Control_c, 0, 64, 53
2,98093, Control_c, 0, 64, 63
2,98118, Note_on_c, 0, 47, 0
2,98124, Control_c, 0, 64, 63
2,98139, Control_c, 0, 64, 65
2,98155, Control_c, 0, 64, 66
2,98170, Control_c, 0, 64, 67
2,98184, Control_c, 0, 64, 66
2,98200, Control_c, 0, 64, 66
2,98215, Control_c, 0, 64, 65
2,98231, Control_c, 0, 64, 65
2,98243, Note_on_c, 0, 59, 45
2,98246, Control_c, 0, 64, 64
2,98263, Note_on_c, 0, 63, 44
2,98267, Control_c, 0, 64, 63
2,98283, Control_c, 0, 64, 62
2,98298, Control_c, 0, 64, 63
2,98306, Note_on_c, 0, 63, 0
2,98306, Note_on_c, 0, 63, 5
2,98329, Control_c, 0, 64, 63
2,98358, Note_on_c, 0, 59, 0
2,98381, Note_on_c, 0, 58, 48
2,98387, Note_on_c, 0, 61, 55
2,98389, Control_c, 0, 64, 64
2,98392, Note_on_c, 0, 63, 0
2,98482, Note_on_c, 0, 58, 0
2,98488, Note_on_c, 0, 61, 0
2,98496, Control_c, 0, 64, 63
2,98508, Note_on_c, 0, 59, 53
2,98512, Control_c, 0, 64, 63
2,98518, Note_on_c, 0, 63, 64
2,98527, Control_c, 0, 64, 62
2,98542, Control_c, 0, 64, 61
2,98557, Control_c, 0, 64, 59
2,98572, Control_c, 0, 64, 56
2,98587, Control_c, 0, 64, 52
2,98602, Control_c, 0, 64, 49
2,98617, Control_c, 0, 64, 47
2,98622, Note_on_c, 0, 63, 0
2,98633, Control_c, 0, 64, 43
2,98644, Note_on_c, 0, 65, 60
2,98648, Control_c, 0, 64, 35
2,98663, Control_c, 0, 64, 21
2,98678, Control_c, 0, 64, 0
2,98781, Note_on_c, 0, 59, 0
2,98781, Note_on_c, 0, 65, 0
2,98787, Note_on_c, 0, 66, 62
2,98794, Note_on_c, 0, 63, 41
2,99040, Note_on_c, 0, 63, 0
2,99076, Note_on_c, 0, 60, 49
2,99298, Note_on_c, 0, 60, 0
2,99328, Note_on_c, 0, 56, 45
2,99337, Note_on_c, 0, 65, 48
2,99366, Note_on_c, 0, 66, 0
2,99433, Note_on_c, 0, 65, 0
2,99458, Note_on_c, 0, 63, 51
2,99564, Note_on_c, 0, 56, 0
2,99570, Note_on_c, 0, 63, 0
2,99579, Note_on_c, 0, 65, 53
2,99583, Note_on_c, 0, 61, 49
2,99701, Note_on_c, 0, 68, 0
2,99704, Note_on_c, 0, 70, 59
2,99845, Note_on_c, 0, 68, 60
2,99852, Note_on_c, 0, 56, 48
2,99853, Note_on_c, 0, 70, 0
2,99854, Note_on_c, 0, 61, 0
2,99974, Note_on_c, 0, 66, 62
2,99976, Note_on_c, 0, 68, 0
2,100100, Note_on_c, 0, 68, 72
2,100104, Note_on_c, 0, 56, 0
2,100108, Note_on_c, 0, 53, 53
2,100113, Note_on_c, 0, 66, 0
2,100228, Note_on_c, 0, 70, 64
2,100250, Note_on_c, 0, 68, 0
2,100352, Note_on_c, 0, 53, 0
2,100370, Note_on_c, 0, 49, 44
2,100374, Note_on_c, 0, 71, 67
2,100393, Note_on_c, 0, 70, 0
2,100645, Note_on_c, 0, 49, 0
2,100667, Note_on_c, 0, 53, 49
2,100854, Note_on_c, 0, 53, 0
2,100932, Note_on_c, 0, 56, 44
2,100934, Note_on_c, 0, 70, 55
2,100955, Note_on_c, 0, 71, 0
2,101052, Note_on_c, 0, 70, 0
2,101066, Note_on_c, 0, 68, 59
2,101125, Note_on_c, 0, 56, 0
2,101209, Note_on_c, 0, 70, 61
2,101221, Note_on_c, 0, 68, 0
2,101224, Note_on_c, 0, 50, 40
2,101272, Note_on_c, 0, 65, 0
2,101346, Note_on_c, 0, 66, 52
2,101383, Note_on_c, 0, 50, 0
2,101454, Note_on_c, 0, 66, 0
2,101474, Note_on_c, 0, 62, 47
2,101481, Note_on_c, 0, 65, 58
2,101583, Note_on_c, 0, 65, 0
2,101584, Note_on_c, 0, 62, 0
2,101597, Note_on_c, 0, 63, 59
2,101598, Note_on_c, 0, 60, 57
2,101700, Note_on_c, 0, 60, 0
2,101708, Note_on_c, 0, 63, 0
2,101722, Note_on_c, 0, 65, 66
2,101731, Note_on_c, 0, 62, 59
2,101854, Note_on_c, 0, 66, 64
2,101855, Note_on_c, 0, 65, 0
2,101931, Note_on_c, 0, 62, 0
2,101980, Note_on_c, 0, 66, 0
2,101994, Note_on_c, 0, 68, 69
2,102007, Note_on_c, 0, 65, 52
2,102219, Note_on_c, 0, 65, 0
2,102277, Note_on_c, 0, 62, 51
2,102523, Note_on_c, 0, 62, 0
2,102553, Note_on_c, 0, 58, 44
2,102564, Note_on_c, 0, 66, 54
2,102587, Note_on_c, 0, 68, 0
2,102664, Note_on_c, 0, 66, 0
2,102679, Note_on_c, 0, 65, 55
2,102734, Note_on_c, 0, 58, 0
2,102805, Note_on_c, 0, 63, 52
2,102813, Note_on_c, 0, 66, 61
2,102854, Note_on_c, 0, 65, 0
2,102887, Note_on_c, 0, 70, 0
2,102937, Note_on_c, 0, 72, 53
2,103004, Note_on_c, 0, 63, 0
2,103004, Note_on_c, 0, 66, 0
2,103051, Note_on_c, 0, 66, 34
2,103067, Note_on_c, 0, 70, 58
2,103071, Note_on_c, 0, 51, 47
2,103111, Note_on_c, 0, 72, 0
2,103196, Note_on_c, 0, 70, 0
2,103217, Note_on_c, 0, 69, 57
2,103300, Note_on_c, 0, 51, 0
2,103331, Note_on_c, 0, 54, 53
2,103333, Note_on_c, 0, 70, 68
2,103422, Note_on_c, 0, 69, 0
2,103461, Note_on_c, 0, 72, 75
2,103477, Note_on_c, 0, 70, 0
2,103526, Note_on_c, 0, 54, 0
2,103590, Note_on_c, 0, 58, 62
2,103590, Note_on_c, 0, 73, 78
2,103609, Note_on_c, 0, 72, 0
2,103749, Control_c, 0, 64, 36
2,103765, Control_c, 0, 64, 49
2,103780, Control_c, 0, 64, 53
2,103795, Control_c, 0, 64, 54
2,103810, Control_c, 0, 64, 52
2,103817, Note_on_c, 0, 58, 0
2,103826, Control_c, 0, 64, 42
2,103842, Control_c, 0, 64, 0
2,103879, Note_on_c, 0, 51, 68
2,103963, Control_c, 0, 64, 36
2,103978, Control_c, 0, 64, 62
2,103994, Control_c, 0, 64, 63
2,104009, Control_c, 0, 64, 63
2,104023, Control_c, 0, 64, 62
2,104039, Control_c, 0, 64, 61
2,104054, Control_c, 0, 64, 54
2,104069, Control_c, 0, 64, 0
2,104070, Note_on_c, 0, 51, 0
2,104131, Note_on_c, 0, 54, 73
2,104135, Note_on_c, 0, 72, 70
2,104161, Note_on_c, 0, 73, 0
2,104221, Control_c, 0, 64, 36
2,104236, Control_c, 0, 64, 63
2,104251, Control_c, 0, 64, 66
2,104261, Note_on_c, 0, 72, 0
2,104265, Note_on_c, 0, 70, 69
2,104266, Control_c, 0, 64, 67
2,104282, Control_c, 0, 64, 68
2,104287, Note_on_c, 0, 54, 0
2,104297, Control_c, 0, 64, 69
2,104312, Control_c, 0, 64, 70
2,104342, Control_c, 0, 64, 67
2,104358, Control_c, 0, 64, 52
2,104373, Control_c, 0, 64, 0
2,104399, Note_on_c, 0, 45, 81
2,104411, Note_on_c, 0, 72, 75
2,104414, Note_on_c, 0, 70, 0
2,104542, Note_on_c, 0, 45, 0
2,104544, Note_on_c, 0, 73, 76
2,104548, Note_on_c, 0, 72, 0
2,104668, Note_on_c, 0, 57, 85
2,104678, Note_on_c, 0, 72, 79
2,104712, Note_on_c, 0, 73, 0
2,104808, Note_on_c, 0, 70, 75
2,104826, Note_on_c, 0, 72, 0
2,104836, Note_on_c, 0, 66, 0
2,104940, Note_on_c, 0, 72, 85
2,104946, Note_on_c, 0, 65, 74
2,104968, Note_on_c, 0, 70, 0
2,105059, Note_on_c, 0, 57, 0
2,105068, Note_on_c, 0, 73, 83
2,105077, Note_on_c, 0, 58, 71
2,105092, Note_on_c, 0, 72, 0
2,105202, Note_on_c, 0, 58, 0
2,105214, Note_on_c, 0, 75, 87
2,105218, Note_on_c, 0, 57, 78
2,105230, Note_on_c, 0, 73, 0
2,105313, Control_c, 0, 64, 40
2,105328, Control_c, 0, 64, 46
2,105343, Control_c, 0, 64, 0
2,105343, Note_on_c, 0, 55, 77
2,105343, Note_on_c, 0, 57, 0
2,105450, Note_on_c, 0, 55, 0
2,105474, Note_on_c, 0, 57, 80
2,105556, Control_c, 0, 64, 67
2,105562, Note_on_c, 0, 65, 0
2,105572, Control_c, 0, 64, 74
2,105587, Control_c, 0, 64, 80
2,105603, Control_c, 0, 64, 82
2,105618, Control_c, 0, 64, 83
2,105633, Control_c, 0, 64, 84
2,105648, Note_on_c, 0, 57, 0
2,105649, Control_c, 0, 64, 85
2,105664, Control_c, 0, 64, 86
2,105680, Control_c, 0, 64, 84
2,105695, Control_c, 0, 64, 77
2,105709, Control_c, 0, 64, 61
2,105725, Control_c, 0, 64, 0
2,105734, Note_on_c, 0, 53, 75
2,105739, Note_on_c, 0, 73, 78
2,105743, Note_on_c, 0, 69, 70
2,105764, Note_on_c, 0, 75, 0
2,105785, Control_c, 0, 64, 67
2,105785, Note_on_c, 0, 53, 0
2,105801, Control_c, 0, 64, 77
2,105816, Control_c, 0, 64, 85
2,105830, Control_c, 0, 64, 88
2,105846, Control_c, 0, 64, 88
2,105857, Note_on_c, 0, 73, 0
2,105860, Note_on_c, 0, 72, 72
2,105861, Control_c, 0, 64, 89
2,105876, Control_c, 0, 64, 90
2,105892, Control_c, 0, 64, 90
2,105907, Control_c, 0, 64, 91
2,105916, Note_on_c, 0, 69, 0
2,105975, Control_c, 0, 64, 88
2,105990, Control_c, 0, 64, 76
2,106004, Note_on_c, 0, 65, 95
2,106006, Control_c, 0, 64, 0
2,106009, Note_on_c, 0, 73, 75
2,106013, Note_on_c, 0, 72, 0
2,106019, Note_on_c, 0, 58, 79
2,106028, Note_on_c, 0, 70, 59
2,106124, Note_on_c, 0, 70, 0
2,106151, Note_on_c, 0, 72, 72
2,106156, Note_on_c, 0, 73, 0
2,106275, Note_on_c, 0, 73, 87
2,106296, Note_on_c, 0, 72, 0
2,106298, Note_on_c, 0, 65, 0
2,106311, Control_c, 0, 64, 64
2,106327, Control_c, 0, 64, 72
2,106342, Control_c, 0, 64, 74
2,106356, Control_c, 0, 64, 75
2,106372, Control_c, 0, 64, 76
2,106387, Control_c, 0, 64, 78
2,106402, Control_c, 0, 64, 80
2,106417, Control_c, 0, 64, 81
2,106432, Control_c, 0, 64, 82
2,106448, Control_c, 0, 64, 82
2,106463, Control_c, 0, 64, 83
2,106477, Control_c, 0, 64, 84
2,106479, Note_on_c, 0, 73, 0
2,106508, Control_c, 0, 64, 83
2,106515, Note_on_c, 0, 78, 104
2,106522, Note_on_c, 0, 63, 89
2,106524, Control_c, 0, 64, 72
2,106539, Control_c, 0, 64, 0
2,106563, Note_on_c, 0, 58, 0
2,106650, Note_on_c, 0, 60, 65
2,106777, Note_on_c, 0, 60, 0
2,106780, Note_on_c, 0, 72, 68
2,106790, Note_on_c, 0, 58, 71
2,106797, Note_on_c, 0, 78, 0
2,106820, Control_c, 0, 64, 59
2,106834, Control_c, 0, 64, 75
2,106842, Note_on_c, 0, 63, 0
2,106850, Control_c, 0, 64, 78
2,106865, Control_c, 0, 64, 79
2,106865, Note_on_c, 0, 58, 0
2,106902, Note_on_c, 0, 57, 64
2,106911, Control_c, 0, 64, 80
2,106927, Control_c, 0, 64, 80
2,106941, Control_c, 0, 64, 81
2,106956, Control_c, 0, 64, 81
2,106993, Note_on_c, 0, 72, 0
2,107012, Note_on_c, 0, 57, 0
2,107017, Control_c, 0, 64, 76
2,107032, Control_c, 0, 64, 65
2,107034, Note_on_c, 0, 77, 99
2,107040, Note_on_c, 0, 58, 86
2,107041, Note_on_c, 0, 73, 83
2,107048, Control_c, 0, 64, 0
2,107315, Note_on_c, 0, 61, 91
2,107319, Note_on_c, 0, 65, 75
2,107330, Note_on_c, 0, 73, 0
2,107367, Control_c, 0, 64, 47
2,107382, Control_c, 0, 64, 69
2,107397, Control_c, 0, 64, 73
2,107400, Note_on_c, 0, 65, 0
2,107413, Control_c, 0, 64, 75
2,107428, Control_c, 0, 64, 76
2,107444, Control_c, 0, 64, 77
2,107459, Control_c, 0, 64, 77
2,107465, Note_on_c, 0, 61, 0
2,107497, Control_c, 0, 64, 75
2,107502, Note_on_c, 0, 77, 0
2,107512, Control_c, 0, 64, 64
2,107527, Control_c, 0, 64, 0
2,107571, Note_on_c, 0, 63, 87
2,107581, Note_on_c, 0, 60, 86
2,107603, Control_c, 0, 64, 55
2,107618, Control_c, 0, 64, 70
2,107625, Note_on_c, 0, 63, 0
2,107633, Control_c, 0, 64, 77
2,107645, Note_on_c, 0, 58, 0
2,107649, Control_c, 0, 64, 81
2,107656, Note_on_c, 0, 60, 0
2,107663, Control_c, 0, 64, 82
2,107679, Control_c, 0, 64, 83
2,107694, Control_c, 0, 64, 84
2,107709, Control_c, 0, 64, 85
2,107722, Note_on_c, 0, 60, 63
2,107771, Control_c, 0, 64, 84
2,107785, Control_c, 0, 64, 77
2,107789, Note_on_c, 0, 60, 0
2,107801, Control_c, 0, 64, 59
2,107815, Control_c, 0, 64, 0
2,107837, Note_on_c, 0, 75, 91
2,107839, Note_on_c, 0, 66, 87
2,107841, Note_on_c, 0, 72, 85
2,107851, Note_on_c, 0, 58, 73
2,107891, Control_c, 0, 64, 59
2,107906, Control_c, 0, 64, 70
2,107921, Note_on_c, 0, 58, 0
2,107922, Note_on_c, 0, 66, 0
2,107923, Control_c, 0, 64, 76
2,107923, Note_on_c, 0, 72, 0
2,107938, Control_c, 0, 64, 79
2,107953, Control_c, 0, 64, 81
2,107960, Note_on_c, 0, 57, 72
2,107968, Control_c, 0, 64, 82
2,108028, Control_c, 0, 64, 81
2,108044, Control_c, 0, 64, 77
2,108052, Note_on_c, 0, 57, 0
2,108059, Control_c, 0, 64, 67
2,108059, Note_on_c, 0, 75, 0
2,108074, Control_c, 0, 64, 0
2,108096, Note_on_c, 0, 65, 88
2,108098, Note_on_c, 0, 74, 87
2,108101, Note_on_c, 0, 58, 82
2,108104, Note_on_c, 0, 70, 80
2,108165, Control_c, 0, 64, 59
2,108180, Control_c, 0, 64, 67
2,108195, Control_c, 0, 64, 71
2,108211, Control_c, 0, 64, 75
2,108224, Note_on_c, 0, 74, 0
2,108226, Control_c, 0, 64, 78
2,108249, Control_c, 0, 64, 80
2,108294, Control_c, 0, 64, 79
2,108309, Control_c, 0, 64, 74
2,108312, Note_on_c, 0, 70, 0
2,108325, Control_c, 0, 64, 64
2,108340, Control_c, 0, 64, 0
2,108359, Note_on_c, 0, 80, 93
2,108374, Note_on_c, 0, 74, 72
2,108401, Control_c, 0, 64, 61
2,108416, Control_c, 0, 64, 67
2,108431, Control_c, 0, 64, 71
2,108446, Control_c, 0, 64, 75
2,108461, Control_c, 0, 64, 76
2,108476, Control_c, 0, 64, 76
2,108492, Note_on_c, 0, 65, 0
2,108507, Control_c, 0, 64, 76
2,108523, Control_c, 0, 64, 72
2,108527, Note_on_c, 0, 80, 0
2,108538, Control_c, 0, 64, 61
2,108538, Note_on_c, 0, 74, 0
2,108553, Control_c, 0, 64, 0
2,108603, Note_on_c, 0, 78, 90
2,108609, Note_on_c, 0, 75, 84
2,108644, Control_c, 0, 64, 57
2,108659, Control_c, 0, 64, 67
2,108674, Control_c, 0, 64, 71
2,108688, Note_on_c, 0, 58, 0
2,108690, Control_c, 0, 64, 75
2,108704, Control_c, 0, 64, 77
2,108720, Control_c, 0, 64, 79
2,108730, Note_on_c, 0, 60, 75
2,108736, Control_c, 0, 64, 80
2,108797, Control_c, 0, 64, 77
2,108808, Note_on_c, 0, 60, 0
2,108812, Control_c, 0, 64, 70
2,108827, Control_c, 0, 64, 32
2,108843, Control_c, 0, 64, 0
2,108849, Note_on_c, 0, 63, 85
2,108850, Note_on_c, 0, 75, 0
2,108850, Note_on_c, 0, 78, 0
2,108858, Note_on_c, 0, 72, 81
2,108867, Note_on_c, 0, 58, 69
2,108921, Control_c, 0, 64, 61
2,108931, Note_on_c, 0, 63, 0
2,108935, Control_c, 0, 64, 67
2,108937, Note_on_c, 0, 58, 0
2,108950, Control_c, 0, 64, 70
2,108966, Control_c, 0, 64, 73
2,108973, Note_on_c, 0, 57, 71
2,108981, Control_c, 0, 64, 75
2,108996, Control_c, 0, 64, 77
2,109019, Control_c, 0, 64, 79
2,109035, Control_c, 0, 64, 79
2,109058, Note_on_c, 0, 57, 0
2,109107, Note_on_c, 0, 58, 81
2,109110, Control_c, 0, 64, 75
2,109116, Note_on_c, 0, 61, 75
2,109126, Control_c, 0, 64, 64
2,109141, Control_c, 0, 64, 0
2,109216, Note_on_c, 0, 72, 0
2,109224, Note_on_c, 0, 61, 0
2,109248, Note_on_c, 0, 69, 79
2,109249, Note_on_c, 0, 65, 75
2,109308, Note_on_c, 0, 58, 0
2,109308, Note_on_c, 0, 58, 4
2,109344, Note_on_c, 0, 69, 0
2,109354, Note_on_c, 0, 65, 0
2,109372, Note_on_c, 0, 77, 90
2,109376, Note_on_c, 0, 63, 74
2,109387, Note_on_c, 0, 70, 68
2,109460, Control_c, 0, 64, 30
2,109476, Control_c, 0, 64, 44
2,109491, Control_c, 0, 64, 50
2,109498, Note_on_c, 0, 63, 0
2,109499, Note_on_c, 0, 61, 64
2,109506, Control_c, 0, 64, 51
2,109522, Control_c, 0, 64, 50
2,109537, Control_c, 0, 64, 40
2,109553, Control_c, 0, 64, 0
2,109574, Note_on_c, 0, 70, 0
2,109625, Note_on_c, 0, 61, 0
2,109635, Note_on_c, 0, 75, 81
2,109638, Note_on_c, 0, 60, 69
2,109649, Note_on_c, 0, 77, 0
2,109656, Note_on_c, 0, 58, 0
2,109675, Control_c, 0, 64, 44
2,109690, Control_c, 0, 64, 64
2,109704, Control_c, 0, 64, 67
2,109720, Control_c, 0, 64, 69
2,109735, Control_c, 0, 64, 70
2,109750, Control_c, 0, 64, 71
2,109754, Note_on_c, 0, 63, 68
2,109754, Note_on_c, 0, 78, 83
2,109759, Note_on_c, 0, 60, 0
2,109764, Note_on_c, 0, 75, 0
2,109766, Control_c, 0, 64, 72
2,109803, Control_c, 0, 64, 73
2,109834, Control_c, 0, 64, 72
2,109849, Control_c, 0, 64, 68
2,109860, Note_on_c, 0, 63, 0
2,109864, Control_c, 0, 64, 47
2,109879, Control_c, 0, 64, 0
2,109886, Note_on_c, 0, 61, 68
2,109888, Note_on_c, 0, 53, 69
2,109894, Note_on_c, 0, 77, 87
2,109894, Note_on_c, 0, 78, 0
2,109899, Note_on_c, 0, 69, 76
2,109971, Control_c, 0, 64, 62
2,109986, Control_c, 0, 64, 67
2,109989, Note_on_c, 0, 53, 0
2,109999, Note_on_c, 0, 61, 0
2,110001, Control_c, 0, 64, 69
2,110016, Control_c, 0, 64, 71
2,110022, Note_on_c, 0, 75, 81
2,110026, Note_on_c, 0, 60, 68
2,110032, Control_c, 0, 64, 73
2,110046, Control_c, 0, 64, 76
2,110061, Control_c, 0, 64, 77
2,110067, Note_on_c, 0, 69, 0
2,110068, Note_on_c, 0, 77, 0
2,110077, Control_c, 0, 64, 78
2,110119, Note_on_c, 0, 60, 0
2,110122, Control_c, 0, 64, 77
2,110137, Control_c, 0, 64, 73
2,110148, Note_on_c, 0, 54, 62
2,110148, Note_on_c, 0, 58, 72
2,110152, Note_on_c, 0, 73, 79
2,110153, Control_c, 0, 64, 65
2,110158, Note_on_c, 0, 70, 73
2,110168, Control_c, 0, 64, 19
2,110176, Note_on_c, 0, 75, 0
2,110183, Control_c, 0, 64, 0
2,110274, Control_c, 0, 64, 13
2,110281, Note_on_c, 0, 77, 82
2,110284, Note_on_c, 0, 61, 72
2,110289, Control_c, 0, 64, 33
2,110304, Control_c, 0, 64, 42
2,110306, Note_on_c, 0, 58, 0
2,110318, Note_on_c, 0, 73, 0
2,110320, Control_c, 0, 64, 44
2,110335, Control_c, 0, 64, 43
2,110350, Control_c, 0, 64, 42
2,110366, Control_c, 0, 64, 42
2,110386, Note_on_c, 0, 61, 0
2,110410, Note_on_c, 0, 60, 75
2,110411, Note_on_c, 0, 75, 80
2,110412, Control_c, 0, 64, 41
2,110435, Note_on_c, 0, 70, 0
2,110442, Control_c, 0, 64, 42
2,110457, Control_c, 0, 64, 44
2,110461, Note_on_c, 0, 77, 0
2,110473, Control_c, 0, 64, 45
2,110488, Control_c, 0, 64, 48
2,110503, Control_c, 0, 64, 51
2,110518, Control_c, 0, 64, 54
2,110533, Control_c, 0, 64, 56
2,110533, Note_on_c, 0, 58, 69
2,110539, Note_on_c, 0, 60, 0
2,110542, Note_on_c, 0, 73, 83
2,110556, Control_c, 0, 64, 58
2,110578, Note_on_c, 0, 75, 0
2,110617, Control_c, 0, 64, 57
2,110632, Control_c, 0, 64, 54
2,110647, Control_c, 0, 64, 40
2,110662, Control_c, 0, 64, 0
2,110665, Note_on_c, 0, 58, 0
2,110668, Note_on_c, 0, 57, 71
2,110675, Note_on_c, 0, 72, 80
2,110682, Note_on_c, 0, 73, 0
2,110736, Note_on_c, 0, 54, 0
2,110763, Note_on_c, 0, 57, 0
2,110784, Control_c, 0, 64, 56
2,110794, Note_on_c, 0, 60, 72
2,110794, Note_on_c, 0, 75, 80
2,110796, Note_on_c, 0, 72, 0
2,110800, Control_c, 0, 64, 67
2,110815, Control_c, 0, 64, 72
2,110830, Control_c, 0, 64, 77
2,110845, Control_c, 0, 64, 79
2,110860, Control_c, 0, 64, 81
2,110905, Control_c, 0, 64, 79
2,110917, Note_on_c, 0, 73, 78
2,110921, Control_c, 0, 64, 74
2,110922, Note_on_c, 0, 58, 68
2,110923, Note_on_c, 0, 60, 0
2,110924, Note_on_c, 0, 53, 67
2,110936, Control_c, 0, 64, 65
2,110940, Note_on_c, 0, 75, 0
2,110952, Control_c, 0, 64, 32
2,110966, Control_c, 0, 64, 0
2,111025, Note_on_c, 0, 53, 0
2,111039, Note_on_c, 0, 73, 0
2,111047, Note_on_c, 0, 72, 72
2,111051, Note_on_c, 0, 51, 65
2,111073, Control_c, 0, 64, 24
2,111087, Control_c, 0, 64, 28
2,111102, Control_c, 0, 64, 30
2,111118, Control_c, 0, 64, 31
2,111174, Note_on_c, 0, 70, 73
2,111176, Note_on_c, 0, 53, 67
2,111179, Note_on_c, 0, 51, 0
2,111180, Note_on_c, 0, 72, 0
2,111195, Control_c, 0, 64, 32
2,111210, Control_c, 0, 64, 33
2,111225, Control_c, 0, 64, 34
2,111286, Control_c, 0, 64, 34
2,111295, Note_on_c, 0, 73, 67
2,111324, Control_c, 0, 64, 35
2,111339, Control_c, 0, 64, 36
2,111353, Note_on_c, 0, 70, 0
2,111355, Control_c, 0, 64, 38
2,111370, Control_c, 0, 64, 40
2,111379, Note_on_c, 0, 58, 0
2,111385, Control_c, 0, 64, 42
2,111415, Control_c, 0, 64, 41
2,111430, Control_c, 0, 64, 40
2,111435, Note_on_c, 0, 73, 0
2,111442, Note_on_c, 0, 72, 67
2,111445, Note_on_c, 0, 57, 81
2,111461, Control_c, 0, 64, 39
2,111476, Control_c, 0, 64, 39
2,111491, Control_c, 0, 64, 38
2,111506, Control_c, 0, 64, 38
2,111567, Control_c, 0, 64, 37
2,111582, Control_c, 0, 64, 38
2,111598, Control_c, 0, 64, 39
2,111613, Control_c, 0, 64, 39
2,111628, Control_c, 0, 64, 40
2,111643, Control_c, 0, 64, 41
2,111661, Note_on_c, 0, 72, 0
2,111672, Control_c, 0, 64, 41
2,111696, Note_on_c, 0, 57, 0
2,111717, Note_on_c, 0, 63, 86
2,111763, Control_c, 0, 64, 41
2,111778, Control_c, 0, 64, 42
2,111794, Control_c, 0, 64, 44
2,111808, Control_c, 0, 64, 46
2,111823, Control_c, 0, 64, 49
2,111839, Control_c, 0, 64, 53
2,111854, Control_c, 0, 64, 56
2,111869, Control_c, 0, 64, 57
2,111885, Control_c, 0, 64, 58
2,111900, Control_c, 0, 64, 57
2,111916, Control_c, 0, 64, 56
2,111930, Control_c, 0, 64, 48
2,111945, Control_c, 0, 64, 0
2,111955, Note_on_c, 0, 63, 0
2,111973, Note_on_c, 0, 61, 63
2,111976, Note_on_c, 0, 70, 82
2,112053, Control_c, 0, 64, 28
2,112068, Control_c, 0, 64, 63
2,112090, Control_c, 0, 64, 67
2,112097, Note_on_c, 0, 61, 0
2,112105, Control_c, 0, 64, 69
2,112107, Note_on_c, 0, 60, 69
2,112121, Control_c, 0, 64, 71
2,112136, Control_c, 0, 64, 72
2,112152, Control_c, 0, 64, 73
2,112197, Control_c, 0, 64, 73
2,112212, Control_c, 0, 64, 69
2,112221, Note_on_c, 0, 60, 0
2,112227, Control_c, 0, 64, 60
2,112243, Control_c, 0, 64, 0
2,112249, Note_on_c, 0, 70, 0
2,112264, Note_on_c, 0, 77, 83
2,112274, Note_on_c, 0, 61, 65
2,112294, Note_on_c, 0, 53, 0
2,112364, Control_c, 0, 64, 55
2,112379, Control_c, 0, 64, 65
2,112395, Control_c, 0, 64, 69
2,112410, Control_c, 0, 64, 72
2,112426, Control_c, 0, 64, 74
2,112441, Control_c, 0, 64, 76
2,112456, Control_c, 0, 64, 76
2,112487, Control_c, 0, 64, 76
2,112501, Control_c, 0, 64, 73
2,112517, Control_c, 0, 64, 66
2,112532, Control_c, 0, 64, 0
2,112537, Note_on_c, 0, 53, 49
2,112543, Note_on_c, 0, 75, 67
2,112547, Note_on_c, 0, 77, 0
2,112668, Control_c, 0, 64, 63
2,112670, Note_on_c, 0, 73, 71
2,112670, Note_on_c, 0, 75, 0
2,112684, Control_c, 0, 64, 68
2,112698, Control_c, 0, 64, 72
2,112714, Control_c, 0, 64, 73
2,112729, Control_c, 0, 64, 74
2,112760, Control_c, 0, 64, 73
2,112774, Control_c, 0, 64, 66
2,112787, Note_on_c, 0, 53, 0
2,112789, Control_c, 0, 64, 0
2,112796, Note_on_c, 0, 75, 80
2,112799, Note_on_c, 0, 54, 65
2,112808, Note_on_c, 0, 73, 0
2,112890, Control_c, 0, 64, 54
2,112905, Control_c, 0, 64, 69
2,112921, Control_c, 0, 64, 75
2,112935, Control_c, 0, 64, 81
2,112950, Control_c, 0, 64, 84
2,112955, Note_on_c, 0, 54, 0
2,112966, Control_c, 0, 64, 86
2,112981, Control_c, 0, 64, 87
2,113026, Control_c, 0, 64, 85
2,113027, Note_on_c, 0, 61, 0
2,113040, Control_c, 0, 64, 79
2,113048, Note_on_c, 0, 55, 69
2,113051, Note_on_c, 0, 60, 69
2,113055, Control_c, 0, 64, 66
2,113070, Control_c, 0, 64, 0
2,113145, Control_c, 0, 64, 38
2,113161, Control_c, 0, 64, 65
2,113173, Note_on_c, 0, 60, 0
2,113174, Note_on_c, 0, 58, 74
2,113176, Control_c, 0, 64, 71
2,113191, Control_c, 0, 64, 76
2,113207, Control_c, 0, 64, 80
2,113222, Control_c, 0, 64, 81
2,113223, Note_on_c, 0, 55, 0
2,113252, Note_on_c, 0, 58, 0
2,113267, Control_c, 0, 64, 77
2,113283, Control_c, 0, 64, 69
2,113298, Control_c, 0, 64, 0
2,113316, Note_on_c, 0, 60, 78
2,113317, Note_on_c, 0, 56, 73
2,113389, Control_c, 0, 64, 64
2,113405, Control_c, 0, 64, 70
2,113419, Control_c, 0, 64, 74
2,113434, Control_c, 0, 64, 78
2,113450, Control_c, 0, 64, 81
2,113464, Control_c, 0, 64, 83
2,113476, Note_on_c, 0, 56, 0
2,113480, Control_c, 0, 64, 83
2,113510, Control_c, 0, 64, 83
2,113526, Control_c, 0, 64, 78
2,113535, Note_on_c, 0, 60, 0
2,113540, Control_c, 0, 64, 68
2,113555, Control_c, 0, 64, 0
2,113566, Note_on_c, 0, 65, 79
2,113569, Note_on_c, 0, 73, 85
2,113570, Note_on_c, 0, 57, 73
2,113579, Note_on_c, 0, 75, 0
2,113640, Control_c, 0, 64, 33
2,113656, Control_c, 0, 64, 64
2,113671, Control_c, 0, 64, 69
2,113687, Control_c, 0, 64, 72
2,113699, Note_on_c, 0, 72, 77
2,113702, Control_c, 0, 64, 74
2,113716, Control_c, 0, 64, 76
2,113720, Note_on_c, 0, 73, 0
2,113747, Control_c, 0, 64, 75
2,113763, Control_c, 0, 64, 71
2,113777, Control_c, 0, 64, 47
2,113792, Control_c, 0, 64, 0
2,113816, Note_on_c, 0, 57, 0
2,113830, Note_on_c, 0, 58, 78
2,113833, Note_on_c, 0, 72, 0
2,113839, Note_on_c, 0, 73, 88
2,113860, Note_on_c, 0, 65, 0
2,113868, Control_c, 0, 64, 67
2,113884, Control_c, 0, 64, 78
2,113887, Note_on_c, 0, 58, 0
2,113899, Control_c, 0, 64, 86
2,113914, Control_c, 0, 64, 88
2,113929, Control_c, 0, 64, 88
2,113944, Control_c, 0, 64, 89
2,113955, Note_on_c, 0, 73, 0
2,113957, Note_on_c, 0, 75, 84
2,113960, Control_c, 0, 64, 90
2,113975, Control_c, 0, 64, 91
2,113989, Control_c, 0, 64, 92
2,114065, Control_c, 0, 64, 90
2,114077, Note_on_c, 0, 75, 0
2,114081, Control_c, 0, 64, 76
2,114089, Note_on_c, 0, 46, 70
2,114091, Note_on_c, 0, 73, 84
2,114096, Control_c, 0, 64, 16
2,114100, Note_on_c, 0, 64, 77
2,114111, Control_c, 0, 64, 0
2,114213, Note_on_c, 0, 48, 72
2,114214, Note_on_c, 0, 46, 0
2,114223, Note_on_c, 0, 72, 79
2,114253, Note_on_c, 0, 64, 0
2,114255, Note_on_c, 0, 73, 0
2,114350, Note_on_c, 0, 70, 94
2,114351, Note_on_c, 0, 48, 0
2,114351, Note_on_c, 0, 49, 76
2,114354, Note_on_c, 0, 65, 82
2,114362, Note_on_c, 0, 72, 0
2,114408, Control_c, 0, 64, 54
2,114423, Control_c, 0, 64, 79
2,114437, Note_on_c, 0, 49, 0
2,114439, Control_c, 0, 64, 88
2,114454, Control_c, 0, 64, 96
2,114469, Control_c, 0, 64, 99
2,114473, Note_on_c, 0, 65, 0
2,114485, Control_c, 0, 64, 110
2,114500, Control_c, 0, 64, 121
2,114502, Note_on_c, 0, 70, 0
2,114515, Control_c, 0, 64, 127
2,114576, Control_c, 0, 64, 120
2,114591, Control_c, 0, 64, 106
2,114607, Control_c, 0, 64, 91
2,114621, Control_c, 0, 64, 74
2,114625, Note_on_c, 0, 82, 100
2,114628, Note_on_c, 0, 56, 79
2,114635, Note_on_c, 0, 50, 68
2,114636, Control_c, 0, 64, 0
2,114742, Control_c, 0, 64, 64
2,114756, Control_c, 0, 64, 74
2,114772, Control_c, 0, 64, 82
2,114787, Control_c, 0, 64, 85
2,114811, Note_on_c, 0, 50, 0
2,114848, Control_c, 0, 64, 84
2,114863, Control_c, 0, 64, 77
2,114875, Note_on_c, 0, 56, 0
2,114879, Control_c, 0, 64, 63
2,114894, Control_c, 0, 64, 0
2,114895, Note_on_c, 0, 55, 74
2,114899, Note_on_c, 0, 51, 74
2,114970, Control_c, 0, 64, 65
2,114983, Note_on_c, 0, 55, 0
2,114985, Control_c, 0, 64, 72
2,115001, Control_c, 0, 64, 79
2,115012, Note_on_c, 0, 56, 80
2,115016, Control_c, 0, 64, 84
2,115030, Control_c, 0, 64, 86
2,115034, Note_on_c, 0, 51, 0
2,115046, Control_c, 0, 64, 87
2,115061, Control_c, 0, 64, 88
2,115106, Control_c, 0, 64, 86
2,115109, Note_on_c, 0, 56, 0
2,115122, Control_c, 0, 64, 78
2,115128, Note_on_c, 0, 82, 0
2,115137, Control_c, 0, 64, 65
2,115144, Note_on_c, 0, 58, 73
2,115148, Note_on_c, 0, 52, 68
2,115148, Note_on_c, 0, 80, 83
2,115160, Control_c, 0, 64, 0
2,115235, Control_c, 0, 64, 52
2,115251, Control_c, 0, 64, 67
2,115266, Control_c, 0, 64, 73
2,115275, Note_on_c, 0, 79, 81
2,115283, Control_c, 0, 64, 78
2,115288, Note_on_c, 0, 80, 0
2,115294, Note_on_c, 0, 52, 0
2,115298, Control_c, 0, 64, 80
2,115310, Note_on_c, 0, 58, 0
2,115313, Control_c, 0, 64, 81
2,115328, Control_c, 0, 64, 82
2,115341, Note_on_c, 0, 79, 0
2,115374, Control_c, 0, 64, 78
2,115388, Control_c, 0, 64, 67
2,115404, Control_c, 0, 64, 0
2,115408, Note_on_c, 0, 72, 95
2,115416, Note_on_c, 0, 53, 70
2,115418, Note_on_c, 0, 80, 88
2,115424, Note_on_c, 0, 56, 72
2,115510, Control_c, 0, 64, 51
2,115526, Control_c, 0, 64, 59
2,115543, Note_on_c, 0, 56, 0
2,115549, Note_on_c, 0, 58, 78
2,115555, Control_c, 0, 64, 56
2,115571, Control_c, 0, 64, 43
2,115586, Control_c, 0, 64, 0
2,115610, Note_on_c, 0, 53, 0
2,115637, Note_on_c, 0, 58, 0
2,115665, Note_on_c, 0, 51, 71
2,115669, Note_on_c, 0, 56, 74
2,115695, Note_on_c, 0, 72, 0
2,115723, Control_c, 0, 64, 67
2,115738, Control_c, 0, 64, 76
2,115751, Control_c, 0, 64, 85
2,115756, Note_on_c, 0, 56, 0
2,115767, Control_c, 0, 64, 87
2,115770, Note_on_c, 0, 51, 0
2,115782, Control_c, 0, 64, 87
2,115788, Note_on_c, 0, 55, 72
2,115796, Control_c, 0, 64, 88
2,115812, Control_c, 0, 64, 91
2,115827, Control_c, 0, 64, 93
2,115842, Control_c, 0, 64, 95
2,115844, Note_on_c, 0, 55, 0
2,115858, Control_c, 0, 64, 95
2,115888, Control_c, 0, 64, 95
2,115903, Control_c, 0, 64, 89
2,115926, Control_c, 0, 64, 72
2,115928, Note_on_c, 0, 49, 91
2,115934, Note_on_c, 0, 80, 0
2,115937, Note_on_c, 0, 70, 102
2,115941, Control_c, 0, 64, 0
2,115948, Note_on_c, 0, 53, 72
2,116040, Note_on_c, 0, 53, 0
2,116076, Note_on_c, 0, 52, 69
2,116200, Note_on_c, 0, 79, 91
2,116213, Note_on_c, 0, 53, 80
2,116246, Control_c, 0, 64, 68
2,116257, Note_on_c, 0, 52, 0
2,116259, Note_on_c, 0, 70, 0
2,116262, Control_c, 0, 64, 74
2,116276, Control_c, 0, 64, 76
2,116286, Note_on_c, 0, 49, 0
2,116290, Note_on_c, 0, 53, 0
2,116292, Control_c, 0, 64, 76
2,116307, Control_c, 0, 64, 77
2,116322, Control_c, 0, 64, 78
2,116338, Control_c, 0, 64, 80
2,116341, Note_on_c, 0, 55, 63
2,116353, Control_c, 0, 64, 81
2,116368, Control_c, 0, 64, 82
2,116383, Control_c, 0, 64, 82
2,116412, Note_on_c, 0, 55, 0
2,116429, Control_c, 0, 64, 81
2,116443, Control_c, 0, 64, 73
2,116459, Control_c, 0, 64, 0
2,116459, Note_on_c, 0, 48, 84
2,116463, Note_on_c, 0, 56, 88
2,116577, Note_on_c, 0, 56, 0
2,116597, Note_on_c, 0, 55, 76
2,116668, Note_on_c, 0, 55, 0
2,116670, Note_on_c, 0, 79, 0
2,116724, Note_on_c, 0, 56, 79
2,116724, Note_on_c, 0, 68, 101
2,116735, Note_on_c, 0, 77, 90
2,116816, Control_c, 0, 64, 58
2,116831, Control_c, 0, 64, 58
2,116838, Note_on_c, 0, 58, 68
2,116846, Control_c, 0, 64, 54
2,116861, Control_c, 0, 64, 55
2,116862, Note_on_c, 0, 56, 0
2,116874, Note_on_c, 0, 68, 0
2,116892, Control_c, 0, 64, 41
2,116907, Control_c, 0, 64, 0
2,116930, Note_on_c, 0, 77, 0
2,116952, Note_on_c, 0, 58, 0
2,116983, Note_on_c, 0, 60, 85
2,116986, Note_on_c, 0, 67, 96
2,116992, Note_on_c, 0, 76, 89
2,117033, Note_on_c, 0, 60, 0
2,117044, Control_c, 0, 64, 58
2,117060, Control_c, 0, 64, 73
2,117065, Note_on_c, 0, 76, 0
2,117066, Note_on_c, 0, 48, 0
2,117075, Control_c, 0, 64, 81
2,117090, Control_c, 0, 64, 86
2,117105, Control_c, 0, 64, 87
2,117120, Control_c, 0, 64, 87
2,117148, Note_on_c, 0, 67, 0
2,117151, Control_c, 0, 64, 87
2,117167, Control_c, 0, 64, 85
2,117182, Control_c, 0, 64, 78
2,117196, Control_c, 0, 64, 65
2,117212, Control_c, 0, 64, 0
2,117246, Note_on_c, 0, 73, 95
2,117247, Note_on_c, 0, 46, 92
2,117303, Control_c, 0, 64, 63
2,117318, Control_c, 0, 64, 70
2,117328, Note_on_c, 0, 73, 0
2,117334, Control_c, 0, 64, 76
2,117341, Note_on_c, 0, 46, 0
2,117349, Control_c, 0, 64, 80
2,117363, Control_c, 0, 64, 82
2,117379, Control_c, 0, 64, 83
2,117424, Control_c, 0, 64, 82
2,117439, Control_c, 0, 64, 79
2,117463, Control_c, 0, 64, 69
2,117478, Control_c, 0, 64, 0
2,117512, Note_on_c, 0, 75, 91
2,117515, Note_on_c, 0, 72, 83
2,117517, Note_on_c, 0, 45, 97
2,117569, Control_c, 0, 64, 50
2,117580, Note_on_c, 0, 45, 0
2,117584, Control_c, 0, 64, 68
2,117599, Control_c, 0, 64, 75
2,117614, Control_c, 0, 64, 80
2,117629, Control_c, 0, 64, 81
2,117644, Control_c, 0, 64, 82
2,117660, Control_c, 0, 64, 82
2,117675, Control_c, 0, 64, 83
2,117720, Control_c, 0, 64, 82
2,117736, Control_c, 0, 64, 80
2,117752, Control_c, 0, 64, 71
2,117753, Note_on_c, 0, 75, 0
2,117767, Note_on_c, 0, 51, 75
2,117768, Control_c, 0, 64, 41
2,117768, Note_on_c, 0, 81, 94
2,117771, Note_on_c, 0, 54, 80
2,117783, Control_c, 0, 64, 0
2,117802, Note_on_c, 0, 72, 0
2,117860, Control_c, 0, 64, 56
2,117875, Control_c, 0, 64, 66
2,117891, Control_c, 0, 64, 70
2,117906, Control_c, 0, 64, 74
2,117921, Control_c, 0, 64, 76
2,117929, Note_on_c, 0, 54, 0
2,117936, Control_c, 0, 64, 76
2,117957, Note_on_c, 0, 51, 0
2,117967, Control_c, 0, 64, 76
2,117981, Note_on_c, 0, 81, 0
2,117982, Control_c, 0, 64, 73
2,117997, Control_c, 0, 64, 64
2,118013, Control_c, 0, 64, 0
2,118036, Note_on_c, 0, 82, 96
2,118039, Note_on_c, 0, 49, 78
2,118041, Note_on_c, 0, 53, 76
2,118104, Control_c, 0, 64, 35
2,118119, Control_c, 0, 64, 66
2,118134, Control_c, 0, 64, 73
2,118149, Control_c, 0, 64, 79
2,118160, Note_on_c, 0, 53, 0
2,118165, Control_c, 0, 64, 83
2,118179, Control_c, 0, 64, 84
2,118248, Control_c, 0, 64, 82
2,118250, Note_on_c, 0, 82, 0
2,118263, Control_c, 0, 64, 73
2,118279, Control_c, 0, 64, 46
2,118294, Control_c, 0, 64, 0
2,118300, Note_on_c, 0, 49, 0
2,118306, Note_on_c, 0, 76, 86
2,118308, Note_on_c, 0, 70, 90
2,118317, Note_on_c, 0, 55, 75
2,118350, Note_on_c, 0, 76, 0
2,118354, Control_c, 0, 64, 63
2,118370, Control_c, 0, 64, 70
2,118384, Control_c, 0, 64, 74
2,118385, Note_on_c, 0, 70, 0
2,118400, Control_c, 0, 64, 78
2,118415, Control_c, 0, 64, 79
2,118430, Control_c, 0, 64, 80
2,118446, Control_c, 0, 64, 81
2,118460, Control_c, 0, 64, 82
2,118475, Control_c, 0, 64, 82
2,118502, Note_on_c, 0, 55, 0
2,118522, Control_c, 0, 64, 82
2,118536, Control_c, 0, 64, 76
2,118550, Note_on_c, 0, 78, 82
2,118551, Control_c, 0, 64, 48
2,118561, Note_on_c, 0, 56, 76
2,118567, Control_c, 0, 64, 0
2,118572, Note_on_c, 0, 68, 67
2,118596, Note_on_c, 0, 77, 72
2,118615, Note_on_c, 0, 78, 0
2,118651, Note_on_c, 0, 68, 0
2,118688, Note_on_c, 0, 58, 71
2,118688, Note_on_c, 0, 72, 78
2,118692, Note_on_c, 0, 56, 0
2,118785, Note_on_c, 0, 58, 0
2,118808, Note_on_c, 0, 70, 87
2,118811, Note_on_c, 0, 48, 78
2,118811, Note_on_c, 0, 60, 74
2,118835, Note_on_c, 0, 77, 0
2,118853, Note_on_c, 0, 60, 0
2,118856, Control_c, 0, 64, 64
2,118871, Control_c, 0, 64, 81
2,118879, Note_on_c, 0, 72, 0
2,118883, Note_on_c, 0, 48, 0
2,118886, Control_c, 0, 64, 86
2,118901, Control_c, 0, 64, 87
2,118932, Control_c, 0, 64, 87
2,118933, Note_on_c, 0, 68, 83
2,118947, Control_c, 0, 64, 88
2,118962, Control_c, 0, 64, 89
2,118977, Control_c, 0, 64, 90
2,119000, Control_c, 0, 64, 91
2,119012, Note_on_c, 0, 68, 0
2,119046, Control_c, 0, 64, 90
2,119051, Note_on_c, 0, 70, 0
2,119061, Control_c, 0, 64, 86
2,119068, Note_on_c, 0, 46, 79
2,119071, Note_on_c, 0, 76, 85
2,119075, Note_on_c, 0, 67, 78
2,119076, Control_c, 0, 64, 76
2,119092, Control_c, 0, 64, 48
2,119106, Control_c, 0, 64, 0
2,119199, Note_on_c, 0, 49, 72
2,119206, Note_on_c, 0, 70, 82
2,119218, Note_on_c, 0, 67, 0
2,119228, Note_on_c, 0, 46, 0
2,119313, Note_on_c, 0, 76, 0
2,119314, Note_on_c, 0, 49, 0
2,119329, Note_on_c, 0, 48, 76
2,119336, Note_on_c, 0, 68, 85
2,119366, Control_c, 0, 64, 66
2,119376, Note_on_c, 0, 70, 0
2,119382, Control_c, 0, 64, 71
2,119397, Control_c, 0, 64, 74
2,119412, Control_c, 0, 64, 75
2,119427, Control_c, 0, 64, 78
2,119443, Control_c, 0, 64, 80
2,119450, Note_on_c, 0, 48, 0
2,119451, Note_on_c, 0, 46, 74
2,119458, Control_c, 0, 64, 83
2,119459, Note_on_c, 0, 67, 79
2,119473, Control_c, 0, 64, 84
2,119476, Note_on_c, 0, 68, 0
2,119489, Control_c, 0, 64, 85
2,119516, Note_on_c, 0, 67, 0
2,119549, Control_c, 0, 64, 84
2,119565, Control_c, 0, 64, 80
2,119572, Note_on_c, 0, 46, 0
2,119580, Control_c, 0, 64, 69
2,119583, Note_on_c, 0, 44, 74
2,119591, Note_on_c, 0, 77, 86
2,119593, Note_on_c, 0, 65, 82
2,119595, Control_c, 0, 64, 0
2,119693, Note_on_c, 0, 65, 0
2,119716, Note_on_c, 0, 48, 69
2,119719, Note_on_c, 0, 44, 0
2,119724, Note_on_c, 0, 68, 78
2,119830, Note_on_c, 0, 77, 0
2,119844, Note_on_c, 0, 46, 75
2,119845, Note_on_c, 0, 48, 0
2,119850, Note_on_c, 0, 67, 82
2,119856, Note_on_c, 0, 68, 0
2,119922, Control_c, 0, 64, 49
2,119937, Control_c, 0, 64, 64
2,119951, Control_c, 0, 64, 67
2,119965, Note_on_c, 0, 44, 70
2,119966, Note_on_c, 0, 46, 0
2,119966, Note_on_c, 0, 65, 77
2,119967, Control_c, 0, 64, 70
2,119982, Control_c, 0, 64, 72
2,119996, Control_c, 0, 64, 74
2,120003, Note_on_c, 0, 67, 0
2,120012, Control_c, 0, 64, 75
2,120043, Control_c, 0, 64, 73
2,120058, Control_c, 0, 64, 67
2,120068, Note_on_c, 0, 44, 0
2,120073, Control_c, 0, 64, 0
2,120073, Note_on_c, 0, 65, 0
2,120096, Note_on_c, 0, 70, 82
2,120097, Note_on_c, 0, 43, 68
2,120099, Note_on_c, 0, 64, 78
2,120180, Control_c, 0, 64, 42
2,120195, Control_c, 0, 64, 67
2,120207, Note_on_c, 0, 43, 0
2,120211, Control_c, 0, 64, 72
2,120217, Note_on_c, 0, 46, 79
2,120224, Note_on_c, 0, 67, 79
2,120226, Control_c, 0, 64, 76
2,120237, Note_on_c, 0, 64, 0
2,120242, Control_c, 0, 64, 78
2,120257, Control_c, 0, 64, 78
2,120273, Note_on_c, 0, 70, 0
2,120287, Control_c, 0, 64, 78
2,120302, Control_c, 0, 64, 73
2,120317, Control_c, 0, 64, 63
2,120331, Control_c, 0, 64, 0
2,120347, Note_on_c, 0, 44, 70
2,120348, Note_on_c, 0, 72, 77
2,120354, Note_on_c, 0, 65, 70
2,120355, Note_on_c, 0, 60, 70
2,120359, Note_on_c, 0, 46, 0
2,120361, Note_on_c, 0, 67, 0
2,120422, Control_c, 0, 64, 62
2,120437, Control_c, 0, 64, 70
2,120452, Control_c, 0, 64, 77
2,120462, Note_on_c, 0, 44, 0
2,120465, Note_on_c, 0, 70, 78
2,120467, Control_c, 0, 64, 81
2,120472, Note_on_c, 0, 43, 64
2,120482, Control_c, 0, 64, 83
2,120496, Note_on_c, 0, 60, 0
2,120498, Control_c, 0, 64, 84
2,120501, Note_on_c, 0, 72, 0
2,120512, Control_c, 0, 64, 85
2,120537, Note_on_c, 0, 65, 0
2,120563, Note_on_c, 0, 43, 0
2,120567, Control_c, 0, 64, 83
2,120582, Control_c, 0, 64, 75
2,120594, Note_on_c, 0, 41, 68
2,120596, Control_c, 0, 64, 59
2,120596, Note_on_c, 0, 70, 0
2,120604, Note_on_c, 0, 68, 77
2,120612, Control_c, 0, 64, 0
2,120612, Note_on_c, 0, 61, 74
2,120688, Control_c, 0, 64, 67
2,120697, Note_on_c, 0, 61, 0
2,120703, Control_c, 0, 64, 76
2,120710, Note_on_c, 0, 41, 0
2,120716, Note_on_c, 0, 44, 70
2,120717, Control_c, 0, 64, 85
2,120733, Control_c, 0, 64, 89
2,120744, Note_on_c, 0, 68, 0
2,120748, Control_c, 0, 64, 89
2,120763, Control_c, 0, 64, 90
2,120793, Control_c, 0, 64, 87
2,120804, Note_on_c, 0, 44, 0
2,120809, Control_c, 0, 64, 77
2,120824, Control_c, 0, 64, 59
2,120838, Control_c, 0, 64, 0
2,120851, Note_on_c, 0, 43, 79
2,120851, Note_on_c, 0, 64, 87
2,120864, Note_on_c, 0, 58, 74
2,120930, Control_c, 0, 64, 30
2,120945, Control_c, 0, 64, 70
2,120960, Control_c, 0, 64, 78
2,120964, Note_on_c, 0, 70, 58
2,120976, Control_c, 0, 64, 87
2,120984, Note_on_c, 0, 68, 76
2,120991, Control_c, 0, 64, 90
2,121000, Note_on_c, 0, 64, 0
2,121007, Control_c, 0, 64, 92
2,121021, Note_on_c, 0, 70, 0
2,121022, Control_c, 0, 64, 93
2,121025, Note_on_c, 0, 58, 0
2,121037, Control_c, 0, 64, 93
2,121068, Control_c, 0, 64, 92
2,121069, Note_on_c, 0, 43, 0
2,121074, Note_on_c, 0, 68, 0
2,121082, Control_c, 0, 64, 86
2,121098, Control_c, 0, 64, 74
2,121107, Note_on_c, 0, 67, 53
2,121112, Note_on_c, 0, 52, 78
2,121113, Control_c, 0, 64, 34
2,121119, Note_on_c, 0, 70, 87
2,121129, Control_c, 0, 64, 0
2,121206, Control_c, 0, 64, 60
2,121220, Control_c, 0, 64, 70
2,121235, Control_c, 0, 64, 79
2,121251, Control_c, 0, 64, 85
2,121254, Note_on_c, 0, 52, 0
2,121266, Control_c, 0, 64, 87
2,121280, Control_c, 0, 64, 88
2,121303, Control_c, 0, 64, 88
2,121309, Note_on_c, 0, 67, 0
2,121340, Note_on_c, 0, 70, 0
2,121349, Control_c, 0, 64, 86
2,121364, Control_c, 0, 64, 79
2,121377, Note_on_c, 0, 68, 76
2,121380, Control_c, 0, 64, 65
2,121383, Note_on_c, 0, 53, 73
2,121384, Note_on_c, 0, 41, 80
2,121395, Control_c, 0, 64, 0
2,121486, Control_c, 0, 64, 62
2,121501, Control_c, 0, 64, 68
2,121502, Note_on_c, 0, 68, 0
2,121507, Note_on_c, 0, 67, 71
2,121516, Control_c, 0, 64, 72
2,121532, Control_c, 0, 64, 75
2,121547, Control_c, 0, 64, 79
2,121561, Control_c, 0, 64, 80
2,121581, Note_on_c, 0, 41, 0
2,121623, Control_c, 0, 64, 77
2,121637, Control_c, 0, 64, 68
2,121653, Control_c, 0, 64, 0
2,121655, Note_on_c, 0, 67, 0
2,121663, Note_on_c, 0, 48, 72
2,121664, Note_on_c, 0, 68, 68
2,121758, Control_c, 0, 64, 62
2,121774, Control_c, 0, 64, 69
2,121781, Note_on_c, 0, 68, 0
2,121785, Note_on_c, 0, 65, 74
2,121789, Control_c, 0, 64, 74
2,121804, Control_c, 0, 64, 78
2,121807, Note_on_c, 0, 53, 0
2,121820, Control_c, 0, 64, 80
2,121822, Note_on_c, 0, 48, 0
2,121866, Control_c, 0, 64, 79
2,121881, Control_c, 0, 64, 76
2,121890, Note_on_c, 0, 65, 0
2,121897, Control_c, 0, 64, 68
2,121911, Control_c, 0, 64, 21
2,121914, Note_on_c, 0, 53, 70
2,121922, Note_on_c, 0, 46, 65
2,121924, Note_on_c, 0, 67, 69
2,121927, Control_c, 0, 64, 0
2,122019, Control_c, 0, 64, 60
2,122019, Note_on_c, 0, 46, 0
2,122034, Control_c, 0, 64, 68
2,122040, Note_on_c, 0, 44, 65
2,122040, Note_on_c, 0, 53, 0
2,122049, Control_c, 0, 64, 72
2,122071, Control_c, 0, 64, 75
2,122087, Control_c, 0, 64, 76
2,122102, Control_c, 0, 64, 77
2,122162, Control_c, 0, 64, 76
2,122163, Note_on_c, 0, 44, 0
2,122178, Control_c, 0, 64, 70
2,122193, Control_c, 0, 64, 21
2,122202, Note_on_c, 0, 46, 67
2,122204, Note_on_c, 0, 52, 63
2,122204, Note_on_c, 0, 67, 0
2,122204, Note_on_c, 0, 73, 69
2,122208, Control_c, 0, 64, 0
2,122478, Note_on_c, 0, 43, 59
2,122486, Note_on_c, 0, 72, 67
2,122493, Note_on_c, 0, 73, 0
2,122495, Note_on_c, 0, 67, 52
2,122613, Note_on_c, 0, 43, 0
2,122618, Note_on_c, 0, 70, 62
2,122624, Note_on_c, 0, 72, 0
2,122737, Note_on_c, 0, 46, 0
2,122747, Note_on_c, 0, 70, 0
2,122761, Note_on_c, 0, 72, 68
2,122767, Note_on_c, 0, 44, 58
2,122840, Control_c, 0, 64, 70
2,122856, Control_c, 0, 64, 72
2,122886, Control_c, 0, 64, 71
2,122950, Note_on_c, 0, 52, 0
2,122977, Control_c, 0, 64, 70
2,122992, Control_c, 0, 64, 68
2,123008, Control_c, 0, 64, 64
2,123023, Control_c, 0, 64, 58
2,123028, Note_on_c, 0, 67, 0
2,123038, Control_c, 0, 64, 52
2,123046, Note_on_c, 0, 65, 53
2,123053, Control_c, 0, 64, 46
2,123058, Note_on_c, 0, 50, 46
2,123068, Control_c, 0, 64, 42
2,123083, Control_c, 0, 64, 31
2,123098, Control_c, 0, 64, 0
2,123140, Note_on_c, 0, 50, 0
2,123156, Note_on_c, 0, 65, 0
2,123159, Control_c, 0, 64, 16
2,123168, Note_on_c, 0, 48, 53
2,123169, Note_on_c, 0, 64, 53
2,123174, Control_c, 0, 64, 0
2,123288, Note_on_c, 0, 48, 0
2,123297, Note_on_c, 0, 68, 62
2,123302, Note_on_c, 0, 64, 0
2,123304, Note_on_c, 0, 53, 55
2,123386, Control_c, 0, 64, 39
2,123392, Note_on_c, 0, 72, 0
2,123401, Control_c, 0, 64, 67
2,123417, Control_c, 0, 64, 71
2,123432, Control_c, 0, 64, 73
2,123447, Control_c, 0, 64, 74
2,123453, Note_on_c, 0, 44, 0
2,123462, Control_c, 0, 64, 75
2,123478, Control_c, 0, 64, 76
2,123494, Control_c, 0, 64, 76
2,123569, Note_on_c, 0, 70, 70
2,123575, Note_on_c, 0, 43, 63
2,123607, Note_on_c, 0, 68, 0
2,123654, Control_c, 0, 64, 77
2,123681, Note_on_c, 0, 43, 0
2,123683, Control_c, 0, 64, 78
2,123699, Control_c, 0, 64, 79
2,123706, Note_on_c, 0, 41, 51
2,123713, Note_on_c, 0, 68, 76
2,123714, Control_c, 0, 64, 81
2,123740, Note_on_c, 0, 70, 0
2,123744, Control_c, 0, 64, 81
2,123759, Control_c, 0, 64, 82
2,123803, Note_on_c, 0, 41, 0
2,123820, Control_c, 0, 64, 80
2,123835, Control_c, 0, 64, 77
2,123838, Note_on_c, 0, 46, 70
2,123844, Note_on_c, 0, 73, 86
2,123851, Control_c, 0, 64, 71
2,123866, Control_c, 0, 64, 65
2,123880, Control_c, 0, 64, 55
2,123896, Control_c, 0, 64, 54
2,123911, Control_c, 0, 64, 56
2,123927, Control_c, 0, 64, 56
2,123957, Control_c, 0, 64, 57
2,123972, Control_c, 0, 64, 59
2,123987, Control_c, 0, 64, 61
2,124002, Control_c, 0, 64, 62
2,124018, Control_c, 0, 64, 62
2,124033, Control_c, 0, 64, 63
2,124094, Control_c, 0, 64, 62
2,124114, Note_on_c, 0, 51, 58
2,124117, Note_on_c, 0, 67, 59
2,124122, Note_on_c, 0, 68, 0
2,124139, Control_c, 0, 64, 62
2,124144, Note_on_c, 0, 53, 0
2,124230, Note_on_c, 0, 51, 0
2,124238, Note_on_c, 0, 67, 0
2,124246, Control_c, 0, 64, 61
2,124248, Note_on_c, 0, 49, 60
2,124249, Note_on_c, 0, 65, 67
2,124261, Control_c, 0, 64, 61
2,124276, Control_c, 0, 64, 59
2,124293, Control_c, 0, 64, 56
2,124308, Control_c, 0, 64, 52
2,124322, Control_c, 0, 64, 45
2,124338, Control_c, 0, 64, 18
2,124353, Control_c, 0, 64, 0
2,124382, Note_on_c, 0, 70, 79
2,124387, Note_on_c, 0, 55, 72
2,124424, Note_on_c, 0, 65, 0
2,124431, Note_on_c, 0, 73, 0
2,124441, Note_on_c, 0, 49, 0
2,124482, Control_c, 0, 64, 63
2,124498, Control_c, 0, 64, 71
2,124501, Note_on_c, 0, 46, 0
2,124513, Control_c, 0, 64, 77
2,124528, Control_c, 0, 64, 80
2,124543, Control_c, 0, 64, 81
2,124628, Note_on_c, 0, 44, 67
2,124634, Note_on_c, 0, 72, 83
2,124668, Note_on_c, 0, 70, 0
2,124734, Note_on_c, 0, 44, 0
2,124759, Note_on_c, 0, 70, 81
2,124760, Note_on_c, 0, 43, 74
2,124769, Note_on_c, 0, 72, 0
2,124859, Control_c, 0, 64, 80
2,124874, Control_c, 0, 64, 75
2,124881, Note_on_c, 0, 43, 0
2,124889, Control_c, 0, 64, 67
2,124898, Note_on_c, 0, 48, 82
2,124900, Note_on_c, 0, 75, 93
2,124904, Control_c, 0, 64, 38
2,124919, Control_c, 0, 64, 0
2,124995, Control_c, 0, 64, 19
2,125010, Control_c, 0, 64, 34
2,125026, Control_c, 0, 64, 44
2,125041, Control_c, 0, 64, 53
2,125056, Control_c, 0, 64, 57
2,125071, Control_c, 0, 64, 58
2,125102, Control_c, 0, 64, 57
2,125111, Note_on_c, 0, 55, 0
2,125118, Control_c, 0, 64, 56
2,125141, Control_c, 0, 64, 56
2,125156, Control_c, 0, 64, 55
2,125175, Note_on_c, 0, 68, 69
2,125176, Note_on_c, 0, 53, 69
2,125191, Note_on_c, 0, 70, 0
2,125202, Control_c, 0, 64, 56
2,125232, Control_c, 0, 64, 56
2,125247, Control_c, 0, 64, 57
2,125263, Control_c, 0, 64, 58
2,125278, Control_c, 0, 64, 59
2,125293, Control_c, 0, 64, 59
2,125297, Note_on_c, 0, 67, 73
2,125304, Note_on_c, 0, 68, 0
2,125314, Note_on_c, 0, 51, 62
2,125318, Note_on_c, 0, 53, 0
2,125323, Control_c, 0, 64, 59
2,125339, Control_c, 0, 64, 57
2,125353, Control_c, 0, 64, 54
2,125368, Control_c, 0, 64, 43
2,125384, Control_c, 0, 64, 0
2,125424, Note_on_c, 0, 51, 0
2,125433, Note_on_c, 0, 72, 80
2,125435, Note_on_c, 0, 56, 81
2,125449, Note_on_c, 0, 75, 0
2,125508, Note_on_c, 0, 67, 0
2,125520, Control_c, 0, 64, 49
2,125536, Control_c, 0, 64, 68
2,125550, Control_c, 0, 64, 75
2,125552, Note_on_c, 0, 48, 0
2,125565, Control_c, 0, 64, 83
2,125581, Control_c, 0, 64, 86
2,125596, Control_c, 0, 64, 87
2,125609, Control_c, 0, 64, 87
2,125683, Note_on_c, 0, 46, 79
2,125686, Note_on_c, 0, 73, 83
2,125731, Note_on_c, 0, 72, 0
2,125768, Note_on_c, 0, 46, 0
2,125799, Note_on_c, 0, 44, 76
2,125807, Note_on_c, 0, 72, 84
2,125815, Note_on_c, 0, 73, 0
2,125910, Note_on_c, 0, 44, 0
2,125920, Control_c, 0, 64, 84
2,125936, Control_c, 0, 64, 75
2,125949, Note_on_c, 0, 49, 85
2,125952, Control_c, 0, 64, 35
2,125952, Note_on_c, 0, 77, 99
2,125967, Control_c, 0, 64, 0
2,126043, Control_c, 0, 64, 51
2,126056, Note_on_c, 0, 72, 0
2,126057, Control_c, 0, 64, 65
2,126073, Control_c, 0, 64, 69
2,126088, Control_c, 0, 64, 73
2,126104, Control_c, 0, 64, 77
2,126119, Control_c, 0, 64, 80
2,126133, Control_c, 0, 64, 81
2,126137, Note_on_c, 0, 56, 0
2,126205, Note_on_c, 0, 70, 79
2,126208, Note_on_c, 0, 77, 0
2,126209, Control_c, 0, 64, 75
2,126210, Note_on_c, 0, 55, 67
2,126225, Control_c, 0, 64, 52
2,126241, Control_c, 0, 64, 0
2,126307, Note_on_c, 0, 55, 0
2,126318, Note_on_c, 0, 53, 64
2,126320, Note_on_c, 0, 68, 73
2,126333, Note_on_c, 0, 70, 0
2,126421, Note_on_c, 0, 68, 0
2,126453, Note_on_c, 0, 75, 105
2,126457, Note_on_c, 0, 53, 0
2,126458, Note_on_c, 0, 58, 74
2,126469, Note_on_c, 0, 67, 84
2,126531, Control_c, 0, 64, 71
2,126547, Control_c, 0, 64, 74
2,126562, Control_c, 0, 64, 77
2,126578, Control_c, 0, 64, 78
2,126592, Control_c, 0, 64, 81
2,126607, Control_c, 0, 64, 84
2,126623, Control_c, 0, 64, 86
2,126630, Note_on_c, 0, 58, 0
2,126638, Control_c, 0, 64, 86
2,126654, Control_c, 0, 64, 86
2,126674, Note_on_c, 0, 49, 0
2,126676, Control_c, 0, 64, 83
2,126690, Control_c, 0, 64, 74
2,126705, Note_on_c, 0, 67, 0
2,126706, Control_c, 0, 64, 59
2,126721, Control_c, 0, 64, 0
2,126740, Note_on_c, 0, 60, 77
2,126753, Note_on_c, 0, 68, 71
2,126756, Note_on_c, 0, 48, 56
2,126759, Note_on_c, 0, 75, 0
2,126768, Control_c, 0, 64, 51
2,126783, Control_c, 0, 64, 67
2,126798, Control_c, 0, 64, 74
2,126814, Control_c, 0, 64, 79
2,126829, Control_c, 0, 64, 82
2,126831, Note_on_c, 0, 60, 0
2,126843, Control_c, 0, 64, 83
2,126859, Control_c, 0, 64, 85
2,126871, Note_on_c, 0, 48, 0
2,126874, Control_c, 0, 64, 86
2,126892, Control_c, 0, 64, 88
2,126907, Control_c, 0, 64, 89
2,126922, Control_c, 0, 64, 90
2,126938, Control_c, 0, 64, 91
2,126966, Note_on_c, 0, 68, 0
2,126969, Control_c, 0, 64, 89
2,126983, Control_c, 0, 64, 80
2,126990, Note_on_c, 0, 73, 93
2,126993, Note_on_c, 0, 55, 91
2,126994, Note_on_c, 0, 70, 84
2,126998, Control_c, 0, 64, 52
2,127002, Note_on_c, 0, 46, 87
2,127014, Control_c, 0, 64, 0
2,127040, Note_on_c, 0, 46, 0
2,127226, Note_on_c, 0, 55, 0
2,127265, Note_on_c, 0, 51, 77
2,127277, Note_on_c, 0, 58, 58
2,127302, Control_c, 0, 64, 61
2,127317, Control_c, 0, 64, 76
2,127332, Control_c, 0, 64, 79
2,127344, Note_on_c, 0, 58, 0
2,127347, Control_c, 0, 64, 79
2,127378, Control_c, 0, 64, 80
2,127393, Control_c, 0, 64, 81
2,127406, Note_on_c, 0, 70, 0
2,127409, Control_c, 0, 64, 82
2,127424, Control_c, 0, 64, 83
2,127446, Control_c, 0, 64, 84
2,127499, Note_on_c, 0, 73, 0
2,127505, Note_on_c, 0, 51, 0
2,127507, Control_c, 0, 64, 81
2,127521, Control_c, 0, 64, 67
2,127531, Note_on_c, 0, 56, 95
2,127537, Control_c, 0, 64, 0
2,127537, Note_on_c, 0, 60, 69
2,127687, Note_on_c, 0, 60, 0
2,127785, Note_on_c, 0, 72, 93
2,127795, Note_on_c, 0, 50, 72
2,127799, Note_on_c, 0, 68, 78
2,127858, Control_c, 0, 64, 56
2,127873, Control_c, 0, 64, 64
2,127918, Control_c, 0, 64, 65
2,127949, Control_c, 0, 64, 62
2,127963, Control_c, 0, 64, 38
2,127971, Note_on_c, 0, 68, 0
2,127979, Control_c, 0, 64, 0
2,127995, Note_on_c, 0, 56, 0
2,128006, Note_on_c, 0, 72, 0
2,128038, Note_on_c, 0, 50, 0
2,128040, Note_on_c, 0, 70, 93
2,128047, Note_on_c, 0, 51, 81
2,128084, Control_c, 0, 64, 65
2,128100, Control_c, 0, 64, 73
2,128115, Control_c, 0, 64, 82
2,128131, Control_c, 0, 64, 86
2,128134, Note_on_c, 0, 70, 0
2,128146, Control_c, 0, 64, 87
2,128160, Control_c, 0, 64, 88
2,128176, Control_c, 0, 64, 89
2,128228, Note_on_c, 0, 51, 0
2,128244, Control_c, 0, 64, 87
2,128260, Control_c, 0, 64, 80
2,128275, Control_c, 0, 64, 67
2,128290, Control_c, 0, 64, 0
2,128301, Note_on_c, 0, 77, 92
2,128303, Note_on_c, 0, 58, 87
2,128310, Note_on_c, 0, 67, 77
2,128312, Note_on_c, 0, 49, 75
2,128351, Control_c, 0, 64, 54
2,128366, Control_c, 0, 64, 68
2,128381, Control_c, 0, 64, 76
2,128390, Note_on_c, 0, 58, 0
2,128397, Control_c, 0, 64, 83
2,128413, Control_c, 0, 64, 85
2,128428, Control_c, 0, 64, 86
2,128429, Note_on_c, 0, 67, 0
2,128458, Control_c, 0, 64, 86
2,128479, Note_on_c, 0, 49, 0
2,128489, Control_c, 0, 64, 86
2,128500, Note_on_c, 0, 77, 0
2,128504, Control_c, 0, 64, 84
2,128518, Control_c, 0, 64, 76
2,128534, Control_c, 0, 64, 60
2,128541, Note_on_c, 0, 60, 85
2,128545, Note_on_c, 0, 75, 88
2,128549, Control_c, 0, 64, 0
2,128553, Note_on_c, 0, 68, 80
2,128559, Note_on_c, 0, 48, 74
2,128607, Note_on_c, 0, 60, 0
2,128610, Control_c, 0, 64, 63
2,128625, Control_c, 0, 64, 70
2,128640, Control_c, 0, 64, 76
2,128654, Note_on_c, 0, 48, 0
2,128656, Control_c, 0, 64, 81
2,128671, Control_c, 0, 64, 82
2,128671, Note_on_c, 0, 51, 78
2,128687, Control_c, 0, 64, 83
2,128732, Control_c, 0, 64, 81
2,128742, Note_on_c, 0, 68, 0
2,128747, Control_c, 0, 64, 72
2,128754, Note_on_c, 0, 51, 0
2,128762, Control_c, 0, 64, 50
2,128778, Control_c, 0, 64, 0
2,128798, Note_on_c, 0, 49, 75
2,128802, Note_on_c, 0, 53, 77
2,128853, Control_c, 0, 64, 63
2,128868, Control_c, 0, 64, 70
2,128883, Control_c, 0, 64, 77
2,128895, Note_on_c, 0, 49, 0
2,128899, Control_c, 0, 64, 84
2,128914, Control_c, 0, 64, 85
2,128919, Note_on_c, 0, 53, 0
2,128920, Note_on_c, 0, 48, 78
2,128929, Control_c, 0, 64, 85
2,128998, Control_c, 0, 64, 83
2,128999, Note_on_c, 0, 48, 0
2,129013, Control_c, 0, 64, 76
2,129028, Control_c, 0, 64, 63
2,129043, Control_c, 0, 64, 0
2,129057, Note_on_c, 0, 55, 74
2,129062, Note_on_c, 0, 70, 77
2,129063, Note_on_c, 0, 46, 74
2,129134, Control_c, 0, 64, 63
2,129149, Control_c, 0, 64, 70
2,129157, Note_on_c, 0, 75, 0
2,129164, Control_c, 0, 64, 76
2,129179, Note_on_c, 0, 49, 76
2,129180, Control_c, 0, 64, 81
2,129182, Note_on_c, 0, 46, 0
2,129190, Note_on_c, 0, 55, 0
2,129194, Control_c, 0, 64, 84
2,129257, Control_c, 0, 64, 81
2,129272, Control_c, 0, 64, 71
2,129287, Control_c, 0, 64, 0
2,129294, Note_on_c, 0, 49, 0
2,129307, Note_on_c, 0, 48, 75
2,129313, Note_on_c, 0, 73, 88
2,129329, Note_on_c, 0, 70, 0
2,129378, Control_c, 0, 64, 58
2,129393, Control_c, 0, 64, 70
2,129404, Note_on_c, 0, 48, 0
2,129409, Control_c, 0, 64, 76
2,129422, Note_on_c, 0, 46, 69
2,129424, Control_c, 0, 64, 80
2,129438, Control_c, 0, 64, 81
2,129454, Control_c, 0, 64, 81
2,129483, Note_on_c, 0, 46, 0
2,129484, Control_c, 0, 64, 81
2,129495, Note_on_c, 0, 73, 0
2,129500, Control_c, 0, 64, 79
2,129515, Control_c, 0, 64, 71
2,129531, Control_c, 0, 64, 40
2,129546, Control_c, 0, 64, 0
2,129552, Note_on_c, 0, 44, 74
2,129553, Note_on_c, 0, 72, 82
2,129561, Note_on_c, 0, 63, 70
2,129622, Control_c, 0, 64, 59
2,129637, Control_c, 0, 64, 68
2,129653, Control_c, 0, 64, 74
2,129668, Control_c, 0, 64, 79
2,129680, Note_on_c, 0, 75, 84
2,129683, Control_c, 0, 64, 80
2,129698, Control_c, 0, 64, 81
2,129726, Note_on_c, 0, 63, 0
2,129745, Note_on_c, 0, 44, 0
2,129746, Note_on_c, 0, 72, 0
2,129751, Control_c, 0, 64, 80
2,129767, Control_c, 0, 64, 75
2,129781, Control_c, 0, 64, 58
2,129796, Control_c, 0, 64, 0
2,129815, Note_on_c, 0, 56, 83
2,129815, Note_on_c, 0, 73, 78
2,129819, Note_on_c, 0, 68, 77
2,129848, Note_on_c, 0, 75, 0
2,129873, Control_c, 0, 64, 59
2,129888, Control_c, 0, 64, 70
2,129903, Control_c, 0, 64, 77
2,129914, Note_on_c, 0, 56, 0
2,129918, Control_c, 0, 64, 82
2,129929, Note_on_c, 0, 73, 0
2,129934, Control_c, 0, 64, 83
2,129935, Note_on_c, 0, 72, 84
2,129974, Note_on_c, 0, 68, 0
2,129994, Control_c, 0, 64, 83
2,130010, Control_c, 0, 64, 78
2,130025, Control_c, 0, 64, 67
2,130041, Control_c, 0, 64, 0
2,130041, Note_on_c, 0, 72, 0
2,130062, Note_on_c, 0, 70, 84
2,130070, Note_on_c, 0, 58, 74
2,130071, Note_on_c, 0, 67, 69
2,130147, Control_c, 0, 64, 60
2,130162, Control_c, 0, 64, 67
2,130178, Control_c, 0, 64, 71
2,130185, Note_on_c, 0, 73, 83
2,130189, Note_on_c, 0, 58, 0
2,130191, Note_on_c, 0, 55, 69
2,130193, Control_c, 0, 64, 75
2,130208, Control_c, 0, 64, 77
2,130223, Control_c, 0, 64, 78
2,130233, Note_on_c, 0, 67, 0
2,130233, Note_on_c, 0, 70, 0
2,130254, Control_c, 0, 64, 77
2,130268, Control_c, 0, 64, 70
2,130279, Note_on_c, 0, 73, 0
2,130283, Control_c, 0, 64, 31
2,130299, Control_c, 0, 64, 0
2,130304, Note_on_c, 0, 72, 77
2,130309, Note_on_c, 0, 66, 76
2,130310, Note_on_c, 0, 56, 74
2,130323, Note_on_c, 0, 55, 0
2,130375, Control_c, 0, 64, 57
2,130390, Control_c, 0, 64, 69
2,130404, Control_c, 0, 64, 75
2,130420, Control_c, 0, 64, 80
2,130426, Note_on_c, 0, 70, 87
2,130430, Note_on_c, 0, 58, 79
2,130433, Note_on_c, 0, 66, 0
2,130435, Control_c, 0, 64, 82
2,130451, Control_c, 0, 64, 83
2,130460, Note_on_c, 0, 72, 0
2,130466, Control_c, 0, 64, 84
2,130469, Note_on_c, 0, 56, 0
2,130481, Control_c, 0, 64, 85
2,130494, Note_on_c, 0, 58, 0
2,130497, Control_c, 0, 64, 85
2,130519, Control_c, 0, 64, 85
2,130535, Control_c, 0, 64, 82
2,130549, Control_c, 0, 64, 73
2,130564, Control_c, 0, 64, 36
2,130566, Note_on_c, 0, 60, 76
2,130570, Note_on_c, 0, 65, 76
2,130570, Note_on_c, 0, 68, 82
2,130580, Control_c, 0, 64, 0
2,130584, Note_on_c, 0, 56, 58
2,130594, Note_on_c, 0, 70, 0
2,130612, Note_on_c, 0, 56, 0
2,130640, Control_c, 0, 64, 40
2,130656, Control_c, 0, 64, 63
2,130671, Control_c, 0, 64, 66
2,130687, Note_on_c, 0, 56, 79
2,130692, Note_on_c, 0, 72, 86
2,130700, Note_on_c, 0, 60, 0
2,130701, Control_c, 0, 64, 65
2,130716, Control_c, 0, 64, 64
2,130722, Note_on_c, 0, 65, 0
2,130732, Control_c, 0, 64, 61
2,130741, Note_on_c, 0, 68, 0
2,130747, Control_c, 0, 64, 35
2,130762, Control_c, 0, 64, 0
2,130819, Note_on_c, 0, 70, 82
2,130826, Note_on_c, 0, 64, 71
2,130829, Note_on_c, 0, 58, 72
2,130843, Note_on_c, 0, 72, 0
2,130915, Control_c, 0, 64, 47
2,130931, Control_c, 0, 64, 64
2,130938, Note_on_c, 0, 64, 0
2,130946, Control_c, 0, 64, 68
2,130950, Note_on_c, 0, 68, 82
2,130951, Note_on_c, 0, 60, 72
2,130961, Control_c, 0, 64, 72
2,130976, Control_c, 0, 64, 75
2,130983, Note_on_c, 0, 70, 0
2,130991, Control_c, 0, 64, 77
2,131007, Control_c, 0, 64, 78
2,131022, Control_c, 0, 64, 77
2,131037, Control_c, 0, 64, 74
2,131047, Note_on_c, 0, 58, 0
2,131052, Control_c, 0, 64, 62
2,131062, Note_on_c, 0, 60, 0
2,131067, Control_c, 0, 64, 0
2,131074, Note_on_c, 0, 67, 80
2,131080, Note_on_c, 0, 63, 72
2,131081, Note_on_c, 0, 61, 73
2,131097, Note_on_c, 0, 68, 0
2,131158, Control_c, 0, 64, 62
2,131174, Control_c, 0, 64, 70
2,131174, Note_on_c, 0, 56, 0
2,131188, Control_c, 0, 64, 77
2,131196, Note_on_c, 0, 58, 72
2,131199, Note_on_c, 0, 61, 0
2,131203, Control_c, 0, 64, 81
2,131211, Note_on_c, 0, 70, 80
2,131219, Control_c, 0, 64, 83
2,131227, Note_on_c, 0, 67, 0
2,131234, Control_c, 0, 64, 84
2,131258, Note_on_c, 0, 63, 0
2,131264, Control_c, 0, 64, 83
2,131288, Control_c, 0, 64, 81
2,131300, Note_on_c, 0, 58, 0
2,131303, Control_c, 0, 64, 73
2,131317, Control_c, 0, 64, 55
2,131333, Control_c, 0, 64, 0
2,131345, Note_on_c, 0, 56, 58
2,131345, Note_on_c, 0, 60, 71
2,131345, Note_on_c, 0, 68, 77
2,131377, Note_on_c, 0, 70, 0
2,131409, Control_c, 0, 64, 60
2,131420, Note_on_c, 0, 60, 0
2,131424, Control_c, 0, 64, 69
2,131438, Control_c, 0, 64, 75
2,131454, Control_c, 0, 64, 79
2,131466, Note_on_c, 0, 61, 78
2,131469, Control_c, 0, 64, 79
2,131504, Note_on_c, 0, 68, 0
2,131507, Note_on_c, 0, 56, 0
2,131530, Control_c, 0, 64, 78
2,131545, Control_c, 0, 64, 72
2,131555, Note_on_c, 0, 61, 0
2,131560, Control_c, 0, 64, 62
2,131576, Control_c, 0, 64, 0
2,131594, Note_on_c, 0, 55, 65
2,131595, Note_on_c, 0, 63, 69
2,131700, Note_on_c, 0, 56, 65
2,131704, Note_on_c, 0, 60, 70
2,131710, Note_on_c, 0, 55, 0
2,131717, Note_on_c, 0, 63, 0
2,131838, Note_on_c, 0, 67, 77
2,131840, Note_on_c, 0, 56, 0
2,131844, Note_on_c, 0, 61, 80
2,131851, Note_on_c, 0, 58, 71
2,131856, Note_on_c, 0, 60, 0
2,131942, Control_c, 0, 64, 43
2,131956, Control_c, 0, 64, 65
2,131972, Control_c, 0, 64, 70
2,131987, Control_c, 0, 64, 74
2,132002, Control_c, 0, 64, 77
2,132003, Note_on_c, 0, 58, 0
2,132018, Control_c, 0, 64, 79
2,132032, Control_c, 0, 64, 81
2,132056, Control_c, 0, 64, 81
2,132086, Control_c, 0, 64, 81
2,132101, Control_c, 0, 64, 77
2,132114, Control_c, 0, 64, 69
2,132123, Note_on_c, 0, 61, 0
2,132129, Control_c, 0, 64, 0
2,132133, Note_on_c, 0, 51, 77
2,132139, Note_on_c, 0, 73, 75
2,132189, Note_on_c, 0, 67, 0
2,132235, Control_c, 0, 64, 13
2,132250, Control_c, 0, 64, 64
2,132266, Control_c, 0, 64, 69
2,132280, Control_c, 0, 64, 72
2,132296, Control_c, 0, 64, 74
2,132342, Control_c, 0, 64, 73
2,132356, Control_c, 0, 64, 68
2,132371, Control_c, 0, 64, 43
2,132387, Control_c, 0, 64, 0
2,132396, Note_on_c, 0, 63, 74
2,132414, Note_on_c, 0, 72, 62
2,132416, Note_on_c, 0, 73, 0
2,132418, Note_on_c, 0, 54, 56
2,132443, Note_on_c, 0, 51, 0
2,132509, Control_c, 0, 64, 43
2,132524, Control_c, 0, 64, 66
2,132534, Note_on_c, 0, 72, 0
2,132538, Note_on_c, 0, 70, 72
2,132540, Control_c, 0, 64, 71
2,132555, Control_c, 0, 64, 73
2,132570, Control_c, 0, 64, 74
2,132586, Control_c, 0, 64, 75
2,132616, Control_c, 0, 64, 73
2,132631, Control_c, 0, 64, 65
2,132646, Control_c, 0, 64, 0
2,132669, Note_on_c, 0, 72, 71
2,132674, Note_on_c, 0, 56, 64
2,132680, Note_on_c, 0, 63, 0
2,132713, Note_on_c, 0, 70, 0
2,132753, Control_c, 0, 64, 38
2,132768, Control_c, 0, 64, 66
2,132784, Control_c, 0, 64, 72
2,132794, Note_on_c, 0, 56, 0
2,132798, Control_c, 0, 64, 76
2,132821, Control_c, 0, 64, 78
2,132836, Control_c, 0, 64, 79
2,132845, Note_on_c, 0, 54, 0
2,132882, Control_c, 0, 64, 78
2,132898, Control_c, 0, 64, 76
2,132913, Control_c, 0, 64, 70
2,132927, Control_c, 0, 64, 28
2,132943, Control_c, 0, 64, 0
2,132947, Note_on_c, 0, 73, 69
2,132952, Note_on_c, 0, 58, 59
2,132963, Note_on_c, 0, 53, 42
2,132985, Note_on_c, 0, 72, 0
2,133034, Control_c, 0, 64, 34
2,133049, Control_c, 0, 64, 66
2,133060, Note_on_c, 0, 58, 0
2,133065, Control_c, 0, 64, 72
2,133072, Note_on_c, 0, 60, 61
2,133079, Control_c, 0, 64, 76
2,133095, Control_c, 0, 64, 79
2,133110, Control_c, 0, 64, 80
2,133124, Control_c, 0, 64, 80
2,133156, Control_c, 0, 64, 80
2,133169, Note_on_c, 0, 60, 0
2,133171, Control_c, 0, 64, 76
2,133187, Control_c, 0, 64, 66
2,133201, Control_c, 0, 64, 0
2,133210, Note_on_c, 0, 73, 0
2,133214, Note_on_c, 0, 66, 62
2,133222, Note_on_c, 0, 58, 62
2,133293, Control_c, 0, 64, 50
2,133309, Control_c, 0, 64, 69
2,133313, Note_on_c, 0, 58, 0
2,133324, Control_c, 0, 64, 75
2,133340, Control_c, 0, 64, 80
2,133347, Note_on_c, 0, 53, 0
2,133354, Control_c, 0, 64, 82
2,133369, Control_c, 0, 64, 83
2,133445, Control_c, 0, 64, 82
2,133461, Control_c, 0, 64, 76
2,133476, Control_c, 0, 64, 65
2,133485, Note_on_c, 0, 60, 60
2,133491, Control_c, 0, 64, 0
2,133504, Note_on_c, 0, 51, 50
2,133605, Control_c, 0, 64, 55
2,133610, Note_on_c, 0, 60, 0
2,133621, Control_c, 0, 64, 67
2,133632, Note_on_c, 0, 61, 65
2,133636, Control_c, 0, 64, 71
2,133650, Control_c, 0, 64, 74
2,133666, Control_c, 0, 64, 75
2,133712, Control_c, 0, 64, 73
2,133726, Control_c, 0, 64, 67
2,133742, Control_c, 0, 64, 36
2,133756, Note_on_c, 0, 61, 0
2,133757, Control_c, 0, 64, 0
2,133758, Note_on_c, 0, 46, 51
2,133759, Note_on_c, 0, 51, 0
2,133763, Note_on_c, 0, 63, 66
2,133784, Note_on_c, 0, 66, 0
2,133864, Control_c, 0, 64, 51
2,133879, Control_c, 0, 64, 66
2,133894, Control_c, 0, 64, 69
2,133909, Control_c, 0, 64, 71
2,133923, Control_c, 0, 64, 72
2,133954, Control_c, 0, 64, 70
2,133968, Control_c, 0, 64, 66
2,133983, Note_on_c, 0, 46, 0
2,133984, Control_c, 0, 64, 52
2,133999, Control_c, 0, 64, 0
2,134018, Note_on_c, 0, 48, 55
2,134023, Note_on_c, 0, 66, 67
2,134105, Control_c, 0, 64, 59
2,134114, Note_on_c, 0, 48, 0
2,134122, Control_c, 0, 64, 65
2,134138, Control_c, 0, 64, 66
2,134139, Note_on_c, 0, 49, 62
2,134152, Control_c, 0, 64, 67
2,134197, Control_c, 0, 64, 66
2,134212, Control_c, 0, 64, 65
2,134228, Control_c, 0, 64, 60
2,134243, Control_c, 0, 64, 39
2,134259, Control_c, 0, 64, 0
2,134270, Note_on_c, 0, 49, 0
2,134285, Note_on_c, 0, 75, 74
2,134289, Note_on_c, 0, 48, 64
2,134299, Note_on_c, 0, 66, 0
2,134372, Control_c, 0, 64, 31
2,134388, Control_c, 0, 64, 63
2,134402, Control_c, 0, 64, 65
2,134418, Control_c, 0, 64, 66
2,134433, Control_c, 0, 64, 66
2,134478, Control_c, 0, 64, 66
2,134494, Control_c, 0, 64, 63
2,134509, Control_c, 0, 64, 46
2,134524, Control_c, 0, 64, 0
2,134524, Note_on_c, 0, 48, 0
2,134547, Note_on_c, 0, 44, 54
2,134548, Note_on_c, 0, 73, 65
2,134552, Note_on_c, 0, 66, 66
2,134582, Note_on_c, 0, 75, 0
2,134602, Note_on_c, 0, 63, 0
2,134631, Control_c, 0, 64, 56
2,134646, Control_c, 0, 64, 64
2,134662, Control_c, 0, 64, 66
2,134676, Note_on_c, 0, 72, 67
2,134677, Control_c, 0, 64, 66
2,134677, Note_on_c, 0, 73, 0
2,134691, Control_c, 0, 64, 67
2,134707, Control_c, 0, 64, 68
2,134737, Control_c, 0, 64, 67
2,134752, Control_c, 0, 64, 65
2,134767, Control_c, 0, 64, 57
2,134783, Control_c, 0, 64, 0
2,134796, Note_on_c, 0, 44, 0
2,134805, Note_on_c, 0, 73, 70
2,134811, Note_on_c, 0, 46, 59
2,134822, Note_on_c, 0, 72, 0
2,134904, Control_c, 0, 64, 59
2,134919, Control_c, 0, 64, 68
2,134935, Control_c, 0, 64, 72
2,134951, Control_c, 0, 64, 76
2,134965, Control_c, 0, 64, 78
2,134981, Control_c, 0, 64, 78
2,135011, Control_c, 0, 64, 77
2,135027, Control_c, 0, 64, 70
2,135027, Note_on_c, 0, 46, 0
2,135041, Control_c, 0, 64, 56
2,135057, Control_c, 0, 64, 0
2,135068, Note_on_c, 0, 48, 59
2,135071, Note_on_c, 0, 73, 0
2,135071, Note_on_c, 0, 75, 69
2,135074, Note_on_c, 0, 66, 0
2,135079, Note_on_c, 0, 65, 54
2,135156, Control_c, 0, 64, 63
2,135170, Control_c, 0, 64, 70
2,135186, Control_c, 0, 64, 76
2,135195, Note_on_c, 0, 75, 0
2,135201, Control_c, 0, 64, 79
2,135214, Note_on_c, 0, 63, 63
2,135217, Control_c, 0, 64, 80
2,135245, Note_on_c, 0, 65, 0
2,135277, Control_c, 0, 64, 76
2,135292, Control_c, 0, 64, 65
2,135308, Control_c, 0, 64, 0
2,135308, Note_on_c, 0, 63, 0
2,135313, Note_on_c, 0, 48, 0
2,135341, Note_on_c, 0, 49, 54
2,135341, Note_on_c, 0, 68, 65
2,135358, Note_on_c, 0, 65, 59
2,135429, Control_c, 0, 64, 61
2,135444, Control_c, 0, 64, 68
2,135460, Control_c, 0, 64, 72
2,135475, Control_c, 0, 64, 76
2,135489, Control_c, 0, 64, 78
2,135502, Note_on_c, 0, 68, 0
2,135551, Control_c, 0, 64, 77
2,135566, Control_c, 0, 64, 72
2,135581, Control_c, 0, 64, 62
2,135581, Note_on_c, 0, 49, 0
2,135596, Control_c, 0, 64, 0
2,135600, Note_on_c, 0, 65, 0
2,135614, Note_on_c, 0, 68, 70
2,135615, Note_on_c, 0, 47, 56
2,135717, Control_c, 0, 64, 48
2,135732, Control_c, 0, 64, 64
2,135748, Control_c, 0, 64, 69
2,135764, Control_c, 0, 64, 73
2,135780, Control_c, 0, 64, 77
2,135795, Control_c, 0, 64, 80
2,135809, Control_c, 0, 64, 81
2,135856, Control_c, 0, 64, 80
2,135871, Control_c, 0, 64, 77
2,135894, Control_c, 0, 64, 70
2,135909, Control_c, 0, 64, 56
2,135914, Note_on_c, 0, 62, 67
2,135924, Control_c, 0, 64, 0
2,135925, Note_on_c, 0, 46, 57
2,135934, Note_on_c, 0, 47, 0
2,135960, Note_on_c, 0, 68, 0
2,135985, Control_c, 0, 64, 46
2,136000, Control_c, 0, 64, 60
2,136016, Control_c, 0, 64, 66
2,136030, Control_c, 0, 64, 71
2,136045, Control_c, 0, 64, 77
2,136061, Control_c, 0, 64, 83
2,136076, Control_c, 0, 64, 84
2,136090, Control_c, 0, 64, 84
2,136137, Control_c, 0, 64, 84
2,136152, Control_c, 0, 64, 78
2,136166, Control_c, 0, 64, 68
2,136175, Note_on_c, 0, 46, 0
2,136176, Note_on_c, 0, 68, 73
2,136179, Note_on_c, 0, 44, 55
2,136182, Control_c, 0, 64, 0
2,136248, Note_on_c, 0, 62, 0
2,136267, Note_on_c, 0, 44, 0
2,136274, Control_c, 0, 64, 57
2,136289, Control_c, 0, 64, 66
2,136294, Note_on_c, 0, 42, 63
2,136304, Control_c, 0, 64, 71
2,136319, Control_c, 0, 64, 75
2,136335, Control_c, 0, 64, 77
2,136349, Control_c, 0, 64, 78
2,136380, Control_c, 0, 64, 75
2,136395, Control_c, 0, 64, 66
2,136410, Control_c, 0, 64, 0
2,136410, Note_on_c, 0, 42, 0
2,136433, Note_on_c, 0, 77, 75
2,136434, Note_on_c, 0, 44, 71
2,136517, Control_c, 0, 64, 56
2,136532, Control_c, 0, 64, 70
2,136547, Note_on_c, 0, 44, 0
2,136548, Control_c, 0, 64, 78
2,136562, Control_c, 0, 64, 83
2,136579, Control_c, 0, 64, 86
2,136594, Control_c, 0, 64, 88
2,136608, Control_c, 0, 64, 90
2,136624, Control_c, 0, 64, 91
2,136639, Control_c, 0, 64, 92
2,136677, Control_c, 0, 64, 91
2,136692, Control_c, 0, 64, 87
2,136704, Note_on_c, 0, 68, 0
2,136708, Control_c, 0, 64, 77
2,136718, Note_on_c, 0, 46, 68
2,136721, Note_on_c, 0, 58, 58
2,136723, Control_c, 0, 64, 62
2,136726, Note_on_c, 0, 75, 73
2,136738, Control_c, 0, 64, 0
2,136805, Note_on_c, 0, 77, 0
2,136814, Control_c, 0, 64, 62
2,136829, Control_c, 0, 64, 69
2,136844, Control_c, 0, 64, 75
2,136844, Note_on_c, 0, 74, 70
2,136860, Control_c, 0, 64, 78
2,136867, Note_on_c, 0, 75, 0
2,136875, Control_c, 0, 64, 80
2,136890, Control_c, 0, 64, 81
2,136921, Control_c, 0, 64, 82
2,136936, Control_c, 0, 64, 81
2,136951, Control_c, 0, 64, 80
2,136953, Note_on_c, 0, 46, 0
2,136966, Control_c, 0, 64, 74
2,136966, Note_on_c, 0, 58, 0
2,136980, Note_on_c, 0, 48, 67
2,136982, Control_c, 0, 64, 61
2,136992, Note_on_c, 0, 75, 75
2,136996, Control_c, 0, 64, 0
2,136996, Note_on_c, 0, 68, 73
2,136997, Note_on_c, 0, 74, 0
2,137072, Control_c, 0, 64, 56
2,137087, Control_c, 0, 64, 68
2,137103, Control_c, 0, 64, 75
2,137118, Control_c, 0, 64, 82
2,137128, Note_on_c, 0, 68, 0
2,137134, Control_c, 0, 64, 86
2,137148, Control_c, 0, 64, 87
2,137163, Control_c, 0, 64, 88
2,137224, Control_c, 0, 64, 85
2,137224, Note_on_c, 0, 48, 0
2,137239, Control_c, 0, 64, 76
2,137243, Note_on_c, 0, 77, 78
2,137251, Note_on_c, 0, 50, 63
2,137255, Control_c, 0, 64, 64
2,137255, Note_on_c, 0, 66, 53
2,137268, Note_on_c, 0, 75, 0
2,137269, Control_c, 0, 64, 0
2,137330, Control_c, 0, 64, 58
2,137337, Note_on_c, 0, 77, 0
2,137346, Control_c, 0, 64, 66
2,137361, Control_c, 0, 64, 70
2,137369, Note_on_c, 0, 66, 0
2,137376, Note_on_c, 0, 65, 71
2,137377, Control_c, 0, 64, 73
2,137392, Control_c, 0, 64, 75
2,137407, Control_c, 0, 64, 76
2,137476, Control_c, 0, 64, 75
2,137490, Note_on_c, 0, 50, 0
2,137491, Control_c, 0, 64, 74
2,137506, Control_c, 0, 64, 70
2,137511, Note_on_c, 0, 51, 60
2,137514, Note_on_c, 0, 66, 72
2,137520, Note_on_c, 0, 65, 0
2,137521, Control_c, 0, 64, 62
2,137521, Note_on_c, 0, 70, 74
2,137537, Control_c, 0, 64, 52
2,137552, Control_c, 0, 64, 49
2,137582, Control_c, 0, 64, 48
2,137597, Control_c, 0, 64, 42
2,137612, Control_c, 0, 64, 30
2,137624, Note_on_c, 0, 66, 0
2,137628, Control_c, 0, 64, 24
2,137639, Note_on_c, 0, 50, 63
2,137639, Note_on_c, 0, 51, 0
2,137642, Control_c, 0, 64, 29
2,137648, Note_on_c, 0, 65, 76
2,137658, Control_c, 0, 64, 30
2,137673, Control_c, 0, 64, 29
2,137688, Control_c, 0, 64, 27
2,137704, Control_c, 0, 64, 22
2,137719, Control_c, 0, 64, 13
2,137734, Control_c, 0, 64, 0
2,137764, Note_on_c, 0, 65, 0
2,137764, Note_on_c, 0, 66, 77
2,137770, Note_on_c, 0, 51, 73
2,137782, Note_on_c, 0, 50, 0
2,137878, Note_on_c, 0, 51, 0
2,137894, Note_on_c, 0, 53, 71
2,138035, Note_on_c, 0, 60, 74
2,138038, Note_on_c, 0, 53, 0
2,138040, Note_on_c, 0, 54, 68
2,138058, Note_on_c, 0, 66, 0
2,138157, Control_c, 0, 64, 54
2,138172, Control_c, 0, 64, 64
2,138196, Control_c, 0, 64, 65
2,138210, Control_c, 0, 64, 66
2,138242, Control_c, 0, 64, 65
2,138258, Control_c, 0, 64, 64
2,138272, Control_c, 0, 64, 54
2,138287, Control_c, 0, 64, 0
2,138303, Note_on_c, 0, 54, 0
2,138321, Note_on_c, 0, 69, 66
2,138324, Note_on_c, 0, 53, 58
2,138367, Note_on_c, 0, 70, 0
2,138394, Control_c, 0, 64, 56
2,138409, Control_c, 0, 64, 65
2,138425, Control_c, 0, 64, 66
2,138440, Control_c, 0, 64, 65
2,138450, Note_on_c, 0, 69, 0
2,138455, Note_on_c, 0, 67, 65
2,138471, Control_c, 0, 64, 64
2,138485, Control_c, 0, 64, 62
2,138501, Control_c, 0, 64, 43
2,138516, Control_c, 0, 64, 0
2,138583, Note_on_c, 0, 53, 0
2,138585, Note_on_c, 0, 51, 57
2,138587, Note_on_c, 0, 69, 68
2,138600, Note_on_c, 0, 67, 0
2,138652, Control_c, 0, 64, 45
2,138668, Control_c, 0, 64, 65
2,138682, Control_c, 0, 64, 69
2,138684, Note_on_c, 0, 60, 0
2,138698, Control_c, 0, 64, 72
2,138713, Control_c, 0, 64, 74
2,138728, Control_c, 0, 64, 76
2,138744, Control_c, 0, 64, 76
2,138758, Control_c, 0, 64, 77
2,138774, Control_c, 0, 64, 76
2,138789, Control_c, 0, 64, 75
2,138804, Control_c, 0, 64, 70
2,138820, Control_c, 0, 64, 60
2,138835, Control_c, 0, 64, 0
2,138857, Note_on_c, 0, 69, 0
2,138865, Note_on_c, 0, 70, 72
2,138868, Note_on_c, 0, 49, 52
2,138870, Note_on_c, 0, 51, 0
2,138880, Note_on_c, 0, 58, 55
2,138942, Control_c, 0, 64, 31
2,138963, Control_c, 0, 64, 63
2,138979, Control_c, 0, 64, 67
2,138994, Control_c, 0, 64, 69
2,139009, Control_c, 0, 64, 70
2,139057, Control_c, 0, 64, 70
2,139071, Control_c, 0, 64, 65
2,139086, Control_c, 0, 64, 46
2,139102, Control_c, 0, 64, 0
2,139135, Note_on_c, 0, 49, 0
2,139135, Note_on_c, 0, 70, 0
2,139150, Note_on_c, 0, 63, 69
2,139160, Note_on_c, 0, 48, 50
2,139223, Control_c, 0, 64, 58
2,139238, Control_c, 0, 64, 65
2,139254, Control_c, 0, 64, 68
2,139269, Control_c, 0, 64, 68
2,139269, Note_on_c, 0, 58, 0
2,139284, Control_c, 0, 64, 69
2,139315, Control_c, 0, 64, 68
2,139329, Control_c, 0, 64, 66
2,139345, Control_c, 0, 64, 55
2,139360, Control_c, 0, 64, 0
2,139404, Note_on_c, 0, 48, 0
2,139431, Note_on_c, 0, 49, 55
2,139437, Note_on_c, 0, 57, 54
2,139482, Control_c, 0, 64, 54
2,139498, Control_c, 0, 64, 60
2,139513, Control_c, 0, 64, 60
2,139527, Control_c, 0, 64, 59
2,139543, Control_c, 0, 64, 58
2,139552, Note_on_c, 0, 57, 0
2,139558, Control_c, 0, 64, 52
2,139564, Note_on_c, 0, 55, 53
2,139574, Control_c, 0, 64, 0
2,139672, Note_on_c, 0, 49, 0
2,139676, Note_on_c, 0, 55, 0
2,139689, Note_on_c, 0, 57, 64
2,139694, Note_on_c, 0, 48, 56
2,139794, Control_c, 0, 64, 52
2,139808, Control_c, 0, 64, 57
2,139824, Control_c, 0, 64, 58
2,139839, Control_c, 0, 64, 56
2,139856, Control_c, 0, 64, 49
2,139871, Control_c, 0, 64, 0
2,139914, Note_on_c, 0, 48, 0
2,139956, Note_on_c, 0, 57, 0
2,139978, Note_on_c, 0, 60, 61
2,139988, Note_on_c, 0, 46, 56
2,140037, Control_c, 0, 64, 31
2,140052, Control_c, 0, 64, 46
2,140067, Control_c, 0, 64, 44
2,140082, Control_c, 0, 64, 45
2,140098, Control_c, 0, 64, 44
2,140113, Control_c, 0, 64, 35
2,140128, Control_c, 0, 64, 0
2,140179, Note_on_c, 0, 46, 0
2,140219, Note_on_c, 0, 60, 0
2,140249, Note_on_c, 0, 53, 55
2,140254, Note_on_c, 0, 45, 51
2,140295, Control_c, 0, 64, 25
2,140310, Control_c, 0, 64, 63
2,140325, Control_c, 0, 64, 64
2,140356, Control_c, 0, 64, 65
2,140370, Control_c, 0, 64, 66
2,140386, Control_c, 0, 64, 67
2,140401, Control_c, 0, 64, 67
2,140432, Control_c, 0, 64, 66
2,140446, Control_c, 0, 64, 54
2,140462, Control_c, 0, 64, 0
2,140496, Note_on_c, 0, 45, 0
2,140522, Note_on_c, 0, 41, 50
2,140525, Note_on_c, 0, 61, 59
2,140529, Note_on_c, 0, 63, 0
2,140632, Note_on_c, 0, 61, 0
2,140660, Note_on_c, 0, 60, 54
2,140677, Note_on_c, 0, 41, 0
2,140782, Note_on_c, 0, 46, 79
2,140782, Note_on_c, 0, 60, 0
2,140793, Note_on_c, 0, 61, 72
2,140816, Note_on_c, 0, 53, 0
2,140820, Control_c, 0, 64, 71
2,140835, Control_c, 0, 64, 74
2,140849, Control_c, 0, 64, 76
2,140865, Control_c, 0, 64, 77
2,140880, Control_c, 0, 64, 80
2,140896, Control_c, 0, 64, 83
2,140911, Control_c, 0, 64, 86
2,140926, Control_c, 0, 64, 88
2,140941, Control_c, 0, 64, 88
2,140956, Control_c, 0, 64, 89
2,141018, Control_c, 0, 64, 87
2,141030, Note_on_c, 0, 46, 0
2,141033, Control_c, 0, 64, 80
2,141048, Control_c, 0, 64, 68
2,141060, Note_on_c, 0, 70, 71
2,141063, Control_c, 0, 64, 0
2,141066, Note_on_c, 0, 51, 59
2,141118, Note_on_c, 0, 61, 0
2,141124, Control_c, 0, 64, 46
2,141139, Control_c, 0, 64, 63
2,141154, Control_c, 0, 64, 67
2,141169, Control_c, 0, 64, 69
2,141184, Note_on_c, 0, 49, 61
2,141185, Control_c, 0, 64, 72
2,141200, Control_c, 0, 64, 75
2,141215, Control_c, 0, 64, 77
2,141228, Note_on_c, 0, 51, 0
2,141230, Control_c, 0, 64, 78
2,141246, Note_on_c, 0, 70, 0
2,141265, Note_on_c, 0, 49, 0
2,141268, Control_c, 0, 64, 77
2,141283, Control_c, 0, 64, 71
2,141299, Control_c, 0, 64, 48
2,141314, Control_c, 0, 64, 0
2,141327, Note_on_c, 0, 66, 94
2,141329, Note_on_c, 0, 48, 81
2,141346, Note_on_c, 0, 51, 66
2,141435, Control_c, 0, 64, 59
2,141450, Control_c, 0, 64, 57
2,141466, Control_c, 0, 64, 0
2,141544, Note_on_c, 0, 51, 0
2,141558, Control_c, 0, 64, 25
2,141572, Control_c, 0, 64, 65
2,141583, Note_on_c, 0, 66, 0
2,141588, Control_c, 0, 64, 71
2,141595, Note_on_c, 0, 69, 67
2,141603, Control_c, 0, 64, 75
2,141604, Note_on_c, 0, 48, 0
2,141608, Note_on_c, 0, 63, 54
2,141619, Control_c, 0, 64, 78
2,141695, Control_c, 0, 64, 76
2,141709, Control_c, 0, 64, 72
2,141724, Control_c, 0, 64, 63
2,141732, Note_on_c, 0, 69, 0
2,141740, Control_c, 0, 64, 0
2,141852, Note_on_c, 0, 65, 84
2,141862, Note_on_c, 0, 70, 76
2,142121, Note_on_c, 0, 61, 79
2,142126, Note_on_c, 0, 70, 0
2,142130, Note_on_c, 0, 49, 73
2,142236, Note_on_c, 0, 65, 0
2,142240, Note_on_c, 0, 68, 74
2,142298, Note_on_c, 0, 49, 0
2,142371, Note_on_c, 0, 66, 84
2,142372, Note_on_c, 0, 51, 76
2,142384, Note_on_c, 0, 68, 0
2,142393, Note_on_c, 0, 61, 0
2,142402, Control_c, 0, 64, 68
2,142417, Control_c, 0, 64, 79
2,142432, Control_c, 0, 64, 86
2,142433, Note_on_c, 0, 51, 0
2,142443, Note_on_c, 0, 63, 0
2,142447, Control_c, 0, 64, 87
2,142448, Note_on_c, 0, 66, 0
2,142539, Control_c, 0, 64, 85
2,142553, Control_c, 0, 64, 80
2,142568, Control_c, 0, 64, 68
2,142584, Control_c, 0, 64, 0
2,142629, Note_on_c, 0, 45, 74
2,142630, Note_on_c, 0, 63, 87
2,142634, Note_on_c, 0, 60, 79
2,142675, Control_c, 0, 64, 27
2,142690, Control_c, 0, 64, 68
2,142705, Control_c, 0, 64, 77
2,142720, Control_c, 0, 64, 86
2,142736, Control_c, 0, 64, 88
2,142751, Control_c, 0, 64, 89
2,142757, Note_on_c, 0, 45, 0
2,142764, Note_on_c, 0, 60, 0
2,142770, Note_on_c, 0, 63, 0
2,142820, Control_c, 0, 64, 87
2,142834, Control_c, 0, 64, 80
2,142849, Control_c, 0, 64, 66
2,142865, Control_c, 0, 64, 0
2,142897, Note_on_c, 0, 46, 80
2,142900, Note_on_c, 0, 62, 85
2,142904, Note_on_c, 0, 65, 83
2,142941, Control_c, 0, 64, 29
2,142956, Control_c, 0, 64, 67
2,142956, Note_on_c, 0, 62, 0
2,142971, Control_c, 0, 64, 75
2,142982, Note_on_c, 0, 65, 0
2,142987, Control_c, 0, 64, 82
2,143002, Control_c, 0, 64, 85
2,143017, Control_c, 0, 64, 85
2,143032, Control_c, 0, 64, 86
2,143078, Control_c, 0, 64, 84
2,143092, Control_c, 0, 64, 78
2,143108, Control_c, 0, 64, 66
2,143123, Control_c, 0, 64, 0
2,143125, Note_on_c, 0, 46, 0
2,143143, Note_on_c, 0, 59, 76
2,143146, Note_on_c, 0, 74, 81
2,143149, Note_on_c, 0, 68, 88
2,143216, Control_c, 0, 64, 62
2,143231, Control_c, 0, 64, 69
2,143233, Note_on_c, 0, 74, 0
2,143246, Control_c, 0, 64, 75
2,143262, Control_c, 0, 64, 80
2,143277, Control_c, 0, 64, 82
2,143347, Note_on_c, 0, 68, 0
2,143353, Control_c, 0, 64, 78
2,143368, Control_c, 0, 64, 68
2,143384, Control_c, 0, 64, 0
2,143405, Note_on_c, 0, 59, 0
2,143417, Note_on_c, 0, 66, 85
2,143418, Note_on_c, 0, 58, 75
2,143418, Note_on_c, 0, 75, 84
2,143472, Note_on_c, 0, 58, 0
2,143474, Control_c, 0, 64, 59
2,143489, Control_c, 0, 64, 68
2,143505, Control_c, 0, 64, 74
2,143519, Control_c, 0, 64, 80
2,143535, Control_c, 0, 64, 82
2,143550, Control_c, 0, 64, 83
2,143578, Note_on_c, 0, 66, 0
2,143619, Control_c, 0, 64, 82
2,143634, Control_c, 0, 64, 75
2,143642, Note_on_c, 0, 75, 0
2,143649, Control_c, 0, 64, 63
2,143665, Control_c, 0, 64, 0
2,143680, Note_on_c, 0, 57, 68
2,143682, Note_on_c, 0, 73, 73
2,143686, Note_on_c, 0, 48, 72
2,143788, Note_on_c, 0, 57, 0
2,143804, Note_on_c, 0, 72, 76
2,143816, Note_on_c, 0, 73, 0
2,143863, Note_on_c, 0, 48, 0
2,143921, Note_on_c, 0, 72, 0
2,143931, Note_on_c, 0, 58, 76
2,143935, Note_on_c, 0, 77, 87
2,143938, Note_on_c, 0, 49, 70
2,143984, Control_c, 0, 64, 68
2,143999, Control_c, 0, 64, 71
2,144029, Control_c, 0, 64, 69
2,144048, Note_on_c, 0, 49, 0
2,144054, Note_on_c, 0, 46, 79
2,144068, Note_on_c, 0, 77, 0
2,144075, Control_c, 0, 64, 70
2,144136, Control_c, 0, 64, 69
2,144151, Control_c, 0, 64, 63
2,144166, Control_c, 0, 64, 0
2,144188, Note_on_c, 0, 65, 79
2,144190, Note_on_c, 0, 48, 71
2,144200, Note_on_c, 0, 46, 0
2,144322, Note_on_c, 0, 49, 69
2,144327, Note_on_c, 0, 48, 0
2,144393, Note_on_c, 0, 65, 0
2,144430, Note_on_c, 0, 49, 0
2,144450, Note_on_c, 0, 66, 81
2,144454, Note_on_c, 0, 51, 71
2,144457, Note_on_c, 0, 63, 79
2,144494, Control_c, 0, 64, 70
2,144509, Control_c, 0, 64, 72
2,144517, Note_on_c, 0, 66, 0
2,144523, Control_c, 0, 64, 72
2,144539, Control_c, 0, 64, 70
2,144554, Control_c, 0, 64, 69
2,144561, Note_on_c, 0, 51, 0
2,144577, Note_on_c, 0, 48, 72
2,144584, Note_on_c, 0, 66, 77
2,144599, Control_c, 0, 64, 70
2,144615, Control_c, 0, 64, 69
2,144630, Control_c, 0, 64, 67
2,144644, Control_c, 0, 64, 53
2,144660, Control_c, 0, 64, 0
2,144694, Note_on_c, 0, 48, 0
2,144705, Note_on_c, 0, 49, 70
2,144714, Note_on_c, 0, 65, 78
2,144716, Note_on_c, 0, 66, 0
2,144742, Note_on_c, 0, 63, 0
2,144826, Note_on_c, 0, 49, 0
2,144831, Note_on_c, 0, 51, 67
2,144833, Note_on_c, 0, 63, 82
2,144852, Note_on_c, 0, 65, 0
2,144913, Note_on_c, 0, 63, 0
2,144934, Note_on_c, 0, 51, 0
2,144956, Note_on_c, 0, 53, 71
2,144957, Note_on_c, 0, 65, 80
2,144961, Note_on_c, 0, 61, 71
2,144995, Control_c, 0, 64, 72
2,145009, Control_c, 0, 64, 74
2,145021, Note_on_c, 0, 65, 0
2,145025, Control_c, 0, 64, 73
2,145031, Note_on_c, 0, 61, 0
2,145039, Note_on_c, 0, 53, 0
2,145040, Control_c, 0, 64, 71
2,145073, Note_on_c, 0, 49, 74
2,145077, Note_on_c, 0, 65, 83
2,145085, Control_c, 0, 64, 71
2,145108, Control_c, 0, 64, 70
2,145123, Control_c, 0, 64, 67
2,145139, Control_c, 0, 64, 65
2,145154, Control_c, 0, 64, 63
2,145169, Control_c, 0, 64, 62
2,145185, Control_c, 0, 64, 62
2,145212, Note_on_c, 0, 51, 67
2,145212, Note_on_c, 0, 63, 82
2,145215, Control_c, 0, 64, 61
2,145225, Note_on_c, 0, 65, 0
2,145230, Control_c, 0, 64, 60
2,145245, Control_c, 0, 64, 59
2,145261, Control_c, 0, 64, 60
2,145276, Control_c, 0, 64, 60
2,145295, Note_on_c, 0, 49, 0
2,145306, Control_c, 0, 64, 59
2,145321, Control_c, 0, 64, 48
2,145336, Control_c, 0, 64, 0
2,145338, Note_on_c, 0, 53, 71
2,145338, Note_on_c, 0, 61, 83
2,145341, Note_on_c, 0, 51, 0
2,145361, Note_on_c, 0, 63, 0
2,145405, Note_on_c, 0, 61, 0
2,145445, Note_on_c, 0, 60, 56
2,145454, Note_on_c, 0, 53, 0
2,145464, Note_on_c, 0, 54, 71
2,145468, Note_on_c, 0, 63, 89
2,145518, Control_c, 0, 64, 54
2,145527, Note_on_c, 0, 63, 0
2,145534, Control_c, 0, 64, 74
2,145543, Note_on_c, 0, 60, 0
2,145549, Control_c, 0, 64, 79
2,145564, Control_c, 0, 64, 81
2,145575, Note_on_c, 0, 63, 79
2,145583, Note_on_c, 0, 51, 74
2,145603, Note_on_c, 0, 54, 0
2,145622, Note_on_c, 0, 58, 0
2,145686, Control_c, 0, 64, 81
2,145702, Control_c, 0, 64, 76
2,145702, Note_on_c, 0, 51, 0
2,145710, Note_on_c, 0, 61, 84
2,145711, Note_on_c, 0, 53, 73
2,145714, Note_on_c, 0, 57, 69
2,145717, Control_c, 0, 64, 64
2,145727, Note_on_c, 0, 63, 0
2,145731, Control_c, 0, 64, 0
2,145839, Note_on_c, 0, 60, 80
2,145840, Note_on_c, 0, 61, 0
2,145891, Note_on_c, 0, 57, 0
2,145916, Note_on_c, 0, 53, 0
2,145983, Note_on_c, 0, 58, 82
2,145993, Note_on_c, 0, 60, 0
2,146102, Note_on_c, 0, 61, 68
2,146228, Note_on_c, 0, 61, 0
2,146236, Note_on_c, 0, 54, 81
2,146243, Note_on_c, 0, 60, 69
2,146302, Note_on_c, 0, 58, 0
2,146348, Control_c, 0, 64, 62
2,146363, Control_c, 0, 64, 66
2,146379, Control_c, 0, 64, 68
2,146393, Control_c, 0, 64, 70
2,146409, Control_c, 0, 64, 71
2,146425, Control_c, 0, 64, 72
2,146440, Control_c, 0, 64, 72
2,146445, Note_on_c, 0, 54, 0
2,146447, Note_on_c, 0, 60, 0
2,146458, Control_c, 0, 64, 71
2,146473, Control_c, 0, 64, 66
2,146488, Control_c, 0, 64, 47
2,146503, Control_c, 0, 64, 0
2,146509, Note_on_c, 0, 48, 78
2,146511, Note_on_c, 0, 56, 80
2,146609, Control_c, 0, 64, 42
2,146624, Control_c, 0, 64, 65
2,146648, Control_c, 0, 64, 67
2,146663, Control_c, 0, 64, 66
2,146678, Control_c, 0, 64, 65
2,146693, Control_c, 0, 64, 61
2,146708, Control_c, 0, 64, 44
2,146723, Control_c, 0, 64, 0
2,146762, Note_on_c, 0, 48, 0
2,146768, Note_on_c, 0, 50, 72
2,146771, Note_on_c, 0, 58, 80
2,146860, Control_c, 0, 64, 62
2,146875, Control_c, 0, 64, 66
2,146884, Note_on_c, 0, 50, 0
2,146885, Note_on_c, 0, 51, 75
2,146891, Control_c, 0, 64, 66
2,146951, Control_c, 0, 64, 64
2,146967, Control_c, 0, 64, 56
2,146982, Control_c, 0, 64, 0
2,146982, Note_on_c, 0, 51, 0
2,147015, Note_on_c, 0, 58, 0
2,147024, Note_on_c, 0, 50, 68
2,147029, Note_on_c, 0, 65, 84
2,147134, Control_c, 0, 64, 63
2,147149, Control_c, 0, 64, 69
2,147163, Control_c, 0, 64, 71
2,147179, Control_c, 0, 64, 73
2,147194, Control_c, 0, 64, 74
2,147210, Control_c, 0, 64, 75
2,147241, Control_c, 0, 64, 73
2,147256, Control_c, 0, 64, 66
2,147266, Note_on_c, 0, 50, 0
2,147271, Control_c, 0, 64, 19
2,147287, Control_c, 0, 64, 0
2,147295, Note_on_c, 0, 46, 67
2,147297, Note_on_c, 0, 63, 73
2,147300, Note_on_c, 0, 65, 0
2,147378, Control_c, 0, 64, 45
2,147387, Note_on_c, 0, 56, 0
2,147393, Control_c, 0, 64, 66
2,147416, Control_c, 0, 64, 70
2,147426, Note_on_c, 0, 63, 0
2,147431, Control_c, 0, 64, 72
2,147432, Note_on_c, 0, 62, 70
2,147447, Control_c, 0, 64, 73
2,147507, Control_c, 0, 64, 72
2,147522, Control_c, 0, 64, 68
2,147538, Control_c, 0, 64, 49
2,147540, Note_on_c, 0, 46, 0
2,147552, Control_c, 0, 64, 0
2,147565, Note_on_c, 0, 51, 64
2,147568, Note_on_c, 0, 63, 72
2,147569, Note_on_c, 0, 55, 63
2,147569, Note_on_c, 0, 62, 0
2,147673, Control_c, 0, 64, 46
2,147689, Control_c, 0, 64, 66
2,147704, Control_c, 0, 64, 70
2,147719, Control_c, 0, 64, 73
2,147735, Control_c, 0, 64, 76
2,147749, Control_c, 0, 64, 77
2,147764, Control_c, 0, 64, 78
2,147795, Control_c, 0, 64, 76
2,147811, Control_c, 0, 64, 69
2,147825, Control_c, 0, 64, 10
2,147827, Note_on_c, 0, 49, 71
2,147827, Note_on_c, 0, 70, 88
2,147840, Control_c, 0, 64, 0
2,147883, Note_on_c, 0, 51, 0
2,147887, Note_on_c, 0, 55, 0
2,147902, Control_c, 0, 64, 59
2,147917, Control_c, 0, 64, 68
2,147933, Control_c, 0, 64, 75
2,147944, Note_on_c, 0, 49, 0
2,147947, Control_c, 0, 64, 81
2,147962, Control_c, 0, 64, 84
2,147978, Control_c, 0, 64, 86
2,147993, Control_c, 0, 64, 87
2,148008, Control_c, 0, 64, 88
2,148023, Control_c, 0, 64, 89
2,148040, Note_on_c, 0, 63, 0
2,148070, Control_c, 0, 64, 88
2,148085, Control_c, 0, 64, 82
2,148090, Note_on_c, 0, 54, 68
2,148093, Note_on_c, 0, 48, 76
2,148096, Note_on_c, 0, 75, 90
2,148100, Control_c, 0, 64, 70
2,148115, Control_c, 0, 64, 0
2,148135, Note_on_c, 0, 70, 0
2,148198, Control_c, 0, 64, 25
2,148214, Control_c, 0, 64, 63
2,148229, Control_c, 0, 64, 71
2,148244, Control_c, 0, 64, 78
2,148260, Control_c, 0, 64, 85
2,148275, Control_c, 0, 64, 88
2,148320, Control_c, 0, 64, 86
2,148336, Control_c, 0, 64, 78
2,148351, Control_c, 0, 64, 65
2,148363, Note_on_c, 0, 46, 72
2,148367, Control_c, 0, 64, 0
2,148369, Note_on_c, 0, 63, 86
2,148427, Control_c, 0, 64, 27
2,148441, Control_c, 0, 64, 65
2,148457, Control_c, 0, 64, 71
2,148472, Control_c, 0, 64, 78
2,148488, Control_c, 0, 64, 83
2,148493, Note_on_c, 0, 54, 0
2,148503, Control_c, 0, 64, 86
2,148516, Control_c, 0, 64, 88
2,148532, Control_c, 0, 64, 89
2,148547, Control_c, 0, 64, 90
2,148553, Note_on_c, 0, 48, 0
2,148586, Note_on_c, 0, 46, 0
2,148593, Control_c, 0, 64, 89
2,148609, Control_c, 0, 64, 84
2,148623, Control_c, 0, 64, 71
2,148624, Note_on_c, 0, 72, 87
2,148626, Note_on_c, 0, 45, 75
2,148626, Note_on_c, 0, 53, 75
2,148638, Control_c, 0, 64, 0
2,148639, Note_on_c, 0, 63, 0
2,148657, Note_on_c, 0, 75, 0
2,148714, Control_c, 0, 64, 39
2,148730, Control_c, 0, 64, 65
2,148745, Control_c, 0, 64, 71
2,148760, Control_c, 0, 64, 78
2,148776, Control_c, 0, 64, 84
2,148790, Control_c, 0, 64, 88
2,148805, Control_c, 0, 64, 90
2,148821, Control_c, 0, 64, 90
2,148836, Note_on_c, 0, 45, 0
2,148867, Control_c, 0, 64, 87
2,148880, Note_on_c, 0, 41, 80
2,148882, Control_c, 0, 64, 78
2,148889, Note_on_c, 0, 73, 84
2,148898, Control_c, 0, 64, 64
2,148912, Note_on_c, 0, 72, 0
2,148913, Control_c, 0, 64, 0
2,148965, Control_c, 0, 64, 32
2,148981, Control_c, 0, 64, 64
2,148996, Control_c, 0, 64, 70
2,149012, Control_c, 0, 64, 76
2,149022, Note_on_c, 0, 72, 87
2,149027, Control_c, 0, 64, 80
2,149036, Note_on_c, 0, 73, 0
2,149042, Control_c, 0, 64, 82
2,149058, Control_c, 0, 64, 84
2,149064, Note_on_c, 0, 41, 0
2,149073, Control_c, 0, 64, 85
2,149088, Control_c, 0, 64, 86
2,149103, Control_c, 0, 64, 87
2,149149, Control_c, 0, 64, 86
2,149152, Note_on_c, 0, 46, 87
2,149158, Note_on_c, 0, 73, 91
2,149163, Control_c, 0, 64, 85
2,149179, Control_c, 0, 64, 78
2,149194, Control_c, 0, 64, 65
2,149210, Control_c, 0, 64, 0
2,149417, Note_on_c, 0, 48, 80
2,149426, Note_on_c, 0, 70, 82
2,149440, Note_on_c, 0, 46, 0
2,149440, Note_on_c, 0, 72, 0
2,149556, Note_on_c, 0, 69, 83
2,149556, Note_on_c, 0, 70, 0
2,149654, Note_on_c, 0, 53, 0
2,149672, Note_on_c, 0, 49, 88
2,149684, Note_on_c, 0, 70, 85
2,149694, Note_on_c, 0, 69, 0
2,149714, Note_on_c, 0, 48, 0
2,149781, Control_c, 0, 64, 63
2,149795, Control_c, 0, 64, 67
2,149811, Control_c, 0, 64, 70
2,149816, Note_on_c, 0, 54, 87
2,149826, Control_c, 0, 64, 72
2,149841, Control_c, 0, 64, 75
2,149857, Control_c, 0, 64, 77
2,149871, Control_c, 0, 64, 79
2,149902, Control_c, 0, 64, 79
2,149925, Note_on_c, 0, 54, 0
2,149932, Control_c, 0, 64, 78
2,149932, Note_on_c, 0, 49, 0
2,149939, Note_on_c, 0, 53, 85
2,149946, Note_on_c, 0, 46, 86
2,149947, Control_c, 0, 64, 68
2,149962, Control_c, 0, 64, 0
2,150058, Note_on_c, 0, 52, 87
2,150084, Note_on_c, 0, 53, 0
2,150178, Note_on_c, 0, 52, 0
2,150195, Note_on_c, 0, 46, 0
2,150202, Note_on_c, 0, 53, 100
2,150296, Control_c, 0, 64, 64
2,150342, Control_c, 0, 64, 65
2,150357, Control_c, 0, 64, 67
2,150373, Control_c, 0, 64, 69
2,150387, Control_c, 0, 64, 71
2,150402, Control_c, 0, 64, 71
2,150433, Control_c, 0, 64, 70
2,150449, Control_c, 0, 64, 65
2,150451, Note_on_c, 0, 70, 0
2,150454, Note_on_c, 0, 53, 0
2,150463, Control_c, 0, 64, 25
2,150472, Note_on_c, 0, 41, 101
2,150485, Control_c, 0, 64, 0
2,150485, Note_on_c, 0, 72, 86
2,150529, Note_on_c, 0, 73, 0
2,150593, Control_c, 0, 64, 58
2,150609, Control_c, 0, 64, 65
2,150620, Note_on_c, 0, 70, 87
2,150624, Control_c, 0, 64, 67
2,150632, Note_on_c, 0, 72, 0
2,150638, Control_c, 0, 64, 69
2,150654, Control_c, 0, 64, 70
2,150669, Control_c, 0, 64, 71
2,150684, Control_c, 0, 64, 71
2,150714, Control_c, 0, 64, 68
2,150730, Control_c, 0, 64, 56
2,150740, Note_on_c, 0, 41, 0
2,150745, Control_c, 0, 64, 0
2,150748, Note_on_c, 0, 53, 98
2,150756, Note_on_c, 0, 72, 98
2,150760, Note_on_c, 0, 70, 0
2,150821, Control_c, 0, 64, 56
2,150836, Control_c, 0, 64, 65
2,150837, Note_on_c, 0, 53, 0
2,150851, Control_c, 0, 64, 67
2,150866, Control_c, 0, 64, 68
2,150881, Control_c, 0, 64, 69
2,150896, Control_c, 0, 64, 70
2,150911, Control_c, 0, 64, 72
2,150927, Control_c, 0, 64, 73
2,150972, Control_c, 0, 64, 73
2,150987, Control_c, 0, 64, 70
2,151002, Control_c, 0, 64, 63
2,151011, Note_on_c, 0, 60, 92
2,151018, Control_c, 0, 64, 36
2,151021, Note_on_c, 0, 69, 82
2,151033, Control_c, 0, 64, 0
2,151124, Control_c, 0, 64, 28
2,151140, Control_c, 0, 64, 44
2,151151, Note_on_c, 0, 67, 84
2,151155, Control_c, 0, 64, 51
2,151169, Note_on_c, 0, 69, 0
2,151170, Control_c, 0, 64, 54
2,151185, Control_c, 0, 64, 57
2,151200, Control_c, 0, 64, 59
2,151203, Note_on_c, 0, 60, 0
2,151216, Control_c, 0, 64, 62
2,151231, Control_c, 0, 64, 62
2,151253, Control_c, 0, 64, 59
2,151268, Control_c, 0, 64, 38
2,151280, Note_on_c, 0, 67, 0
2,151280, Note_on_c, 0, 72, 0
2,151283, Control_c, 0, 64, 0
2,151299, Note_on_c, 0, 65, 96
2,151299, Note_on_c, 0, 69, 97
2,151345, Control_c, 0, 64, 47
2,151360, Control_c, 0, 64, 63
2,151376, Control_c, 0, 64, 68
2,151391, Control_c, 0, 64, 70
2,151405, Control_c, 0, 64, 72
2,151421, Control_c, 0, 64, 72
2,151447, Note_on_c, 0, 54, 81
2,151452, Control_c, 0, 64, 71
2,151467, Control_c, 0, 64, 68
2,151482, Control_c, 0, 64, 60
2,151498, Control_c, 0, 64, 0
2,151562, Note_on_c, 0, 54, 0
2,151574, Note_on_c, 0, 51, 81
2,151618, Note_on_c, 0, 65, 0
2,151641, Note_on_c, 0, 69, 0
2,151650, Control_c, 0, 64, 51
2,151665, Control_c, 0, 64, 74
2,151680, Control_c, 0, 64, 83
2,151695, Control_c, 0, 64, 88
2,151704, Note_on_c, 0, 53, 85
2,151710, Control_c, 0, 64, 89
2,151723, Note_on_c, 0, 51, 0
2,151725, Control_c, 0, 64, 90
2,151738, Control_c, 0, 64, 91
2,151753, Control_c, 0, 64, 92
2,151768, Control_c, 0, 64, 92
2,151799, Control_c, 0, 64, 93
2,151829, Control_c, 0, 64, 92
2,151840, Note_on_c, 0, 53, 0
2,151844, Control_c, 0, 64, 81
2,151849, Note_on_c, 0, 54, 88
2,151849, Note_on_c, 0, 70, 102
2,151858, Note_on_c, 0, 61, 100
2,151860, Control_c, 0, 64, 0
2,151985, Note_on_c, 0, 54, 0
2,151993, Note_on_c, 0, 56, 83
2,152134, Note_on_c, 0, 56, 0
2,152142, Note_on_c, 0, 54, 78
2,152187, Control_c, 0, 64, 62
2,152202, Control_c, 0, 64, 64
2,152218, Control_c, 0, 64, 65
2,152234, Note_on_c, 0, 54, 0
2,152247, Control_c, 0, 64, 66
2,152263, Control_c, 0, 64, 68
2,152265, Note_on_c, 0, 53, 85
2,152270, Note_on_c, 0, 61, 0
2,152278, Control_c, 0, 64, 69
2,152294, Control_c, 0, 64, 70
2,152309, Control_c, 0, 64, 71
2,152319, Note_on_c, 0, 70, 0
2,152323, Control_c, 0, 64, 72
2,152336, Note_on_c, 0, 53, 0
2,152339, Control_c, 0, 64, 73
2,152354, Control_c, 0, 64, 71
2,152369, Control_c, 0, 64, 63
2,152385, Control_c, 0, 64, 0
2,152395, Note_on_c, 0, 72, 100
2,152398, Note_on_c, 0, 51, 91
2,152399, Note_on_c, 0, 63, 105
2,152403, Note_on_c, 0, 54, 89
2,152612, Control_c, 0, 64, 71
2,152628, Control_c, 0, 64, 78
2,152643, Control_c, 0, 64, 82
2,152658, Control_c, 0, 64, 83
2,152661, Note_on_c, 0, 54, 0
2,152672, Note_on_c, 0, 51, 0
2,152688, Control_c, 0, 64, 83
2,152749, Note_on_c, 0, 63, 0
2,152796, Note_on_c, 0, 72, 0
2,152818, Control_c, 0, 64, 80
2,152833, Control_c, 0, 64, 71
2,152848, Control_c, 0, 64, 35
2,152863, Control_c, 0, 64, 0
2,152929, Note_on_c, 0, 53, 94
2,152930, Note_on_c, 0, 49, 97
2,153203, Note_on_c, 0, 49, 0
2,153207, Note_on_c, 0, 53, 0
2,153210, Note_on_c, 0, 73, 96
2,153214, Note_on_c, 0, 65, 89
2,153392, Note_on_c, 0, 65, 0
2,153412, Note_on_c, 0, 73, 0
2,153472, Note_on_c, 0, 75, 105
2,153476, Note_on_c, 0, 66, 94
2,153535, Control_c, 0, 64, 63
2,153571, Control_c, 0, 64, 62
2,153587, Control_c, 0, 64, 63
2,153602, Control_c, 0, 64, 64
2,153618, Control_c, 0, 64, 65
2,153641, Note_on_c, 0, 75, 0
2,153647, Control_c, 0, 64, 64
2,153663, Control_c, 0, 64, 59
2,153672, Note_on_c, 0, 66, 0
2,153678, Control_c, 0, 64, 22
2,153694, Control_c, 0, 64, 0
2,153742, Note_on_c, 0, 69, 104
2,153744, Note_on_c, 0, 51, 90
2,153746, Note_on_c, 0, 48, 82
2,153749, Note_on_c, 0, 60, 89
2,153813, Control_c, 0, 64, 52
2,153829, Control_c, 0, 64, 67
2,153844, Control_c, 0, 64, 71
2,153859, Control_c, 0, 64, 73
2,153859, Note_on_c, 0, 48, 0
2,153861, Note_on_c, 0, 69, 0
2,153881, Note_on_c, 0, 51, 0
2,153911, Note_on_c, 0, 60, 0
2,153920, Control_c, 0, 64, 72
2,153935, Control_c, 0, 64, 69
2,153951, Control_c, 0, 64, 62
2,153966, Control_c, 0, 64, 0
2,154006, Note_on_c, 0, 46, 85
2,154007, Note_on_c, 0, 50, 88
2,154011, Note_on_c, 0, 70, 99
2,154018, Note_on_c, 0, 62, 94
2,154103, Control_c, 0, 64, 65
2,154113, Note_on_c, 0, 50, 0
2,154118, Control_c, 0, 64, 70
2,154133, Control_c, 0, 64, 73
2,154148, Control_c, 0, 64, 74
2,154160, Note_on_c, 0, 46, 0
2,154193, Control_c, 0, 64, 72
2,154208, Control_c, 0, 64, 63
2,154224, Control_c, 0, 64, 0
2,154267, Note_on_c, 0, 56, 93
2,154271, Note_on_c, 0, 53, 89
2,154274, Note_on_c, 0, 62, 0
2,154288, Note_on_c, 0, 70, 0
2,154355, Control_c, 0, 64, 63
2,154370, Control_c, 0, 64, 67
2,154386, Control_c, 0, 64, 68
2,154416, Control_c, 0, 64, 68
2,154431, Control_c, 0, 64, 66
2,154431, Note_on_c, 0, 56, 0
2,154446, Control_c, 0, 64, 52
2,154462, Control_c, 0, 64, 0
2,154476, Note_on_c, 0, 53, 0
2,154539, Note_on_c, 0, 54, 95
2,154544, Note_on_c, 0, 51, 86
2,154615, Control_c, 0, 64, 42
2,154629, Control_c, 0, 64, 64
2,154644, Control_c, 0, 64, 62
2,154662, Control_c, 0, 64, 53
2,154677, Control_c, 0, 64, 0
2,154794, Note_on_c, 0, 54, 0
2,154809, Note_on_c, 0, 51, 0
2,154817, Note_on_c, 0, 72, 97
2,154821, Note_on_c, 0, 69, 87
2,154844, Control_c, 0, 64, 25
2,154860, Control_c, 0, 64, 70
2,154875, Control_c, 0, 64, 74
2,154891, Control_c, 0, 64, 77
2,154913, Note_on_c, 0, 72, 0
2,154936, Control_c, 0, 64, 78
2,154951, Control_c, 0, 64, 79
2,154996, Control_c, 0, 64, 70
2,155012, Control_c, 0, 64, 0
2,155022, Note_on_c, 0, 69, 0
2,155070, Note_on_c, 0, 73, 88
2,155073, Note_on_c, 0, 70, 89
2,155142, Note_on_c, 0, 70, 0
2,155156, Control_c, 0, 64, 49
2,155171, Control_c, 0, 64, 0
2,155199, Note_on_c, 0, 67, 71
2,155199, Note_on_c, 0, 70, 79
2,155233, Note_on_c, 0, 73, 0
2,155261, Note_on_c, 0, 67, 0
2,155322, Note_on_c, 0, 49, 70
2,155327, Note_on_c, 0, 53, 67
2,155329, Note_on_c, 0, 72, 82
2,155330, Note_on_c, 0, 69, 79
2,155341, Note_on_c, 0, 70, 0
2,155383, Control_c, 0, 64, 57
2,155398, Control_c, 0, 64, 71
2,155414, Control_c, 0, 64, 74
2,155427, Note_on_c, 0, 53, 0
2,155429, Control_c, 0, 64, 75
2,155432, Note_on_c, 0, 72, 0
2,155441, Note_on_c, 0, 69, 0
2,155444, Control_c, 0, 64, 75
2,155444, Note_on_c, 0, 70, 86
2,155449, Note_on_c, 0, 73, 76
2,155460, Control_c, 0, 64, 76
2,155475, Control_c, 0, 64, 76
2,155491, Control_c, 0, 64, 75
2,155505, Control_c, 0, 64, 69
2,155508, Note_on_c, 0, 49, 0
2,155520, Control_c, 0, 64, 0
2,155523, Note_on_c, 0, 73, 0
2,155534, Note_on_c, 0, 70, 0
2,155573, Note_on_c, 0, 51, 79
2,155573, Note_on_c, 0, 75, 93
2,155579, Note_on_c, 0, 72, 84
2,155580, Note_on_c, 0, 48, 68
2,155612, Control_c, 0, 64, 52
2,155627, Control_c, 0, 64, 70
2,155632, Note_on_c, 0, 72, 0
2,155642, Control_c, 0, 64, 77
2,155658, Control_c, 0, 64, 80
2,155667, Note_on_c, 0, 48, 0
2,155670, Note_on_c, 0, 51, 0
2,155688, Control_c, 0, 64, 78
2,155698, Note_on_c, 0, 51, 51
2,155698, Note_on_c, 0, 54, 76
2,155698, Note_on_c, 0, 69, 76
2,155700, Note_on_c, 0, 72, 85
2,155703, Control_c, 0, 64, 66
2,155710, Note_on_c, 0, 75, 0
2,155718, Control_c, 0, 64, 0
2,155751, Note_on_c, 0, 69, 0
2,155774, Note_on_c, 0, 54, 0
2,155800, Note_on_c, 0, 72, 0
2,155824, Note_on_c, 0, 49, 71
2,155826, Note_on_c, 0, 53, 76
2,155826, Note_on_c, 0, 70, 85
2,155827, Note_on_c, 0, 73, 87
2,155832, Note_on_c, 0, 51, 0
2,155918, Note_on_c, 0, 73, 0
2,155921, Note_on_c, 0, 70, 0
2,155953, Note_on_c, 0, 53, 0
2,155958, Note_on_c, 0, 51, 73
2,155962, Note_on_c, 0, 75, 79
2,155964, Note_on_c, 0, 48, 62
2,155964, Note_on_c, 0, 72, 91
2,155979, Note_on_c, 0, 49, 0
2,156037, Note_on_c, 0, 48, 0
2,156037, Note_on_c, 0, 75, 0
2,156061, Note_on_c, 0, 72, 0
2,156068, Note_on_c, 0, 51, 0
2,156082, Note_on_c, 0, 46, 78
2,156082, Note_on_c, 0, 49, 82
2,156084, Note_on_c, 0, 77, 95
2,156091, Note_on_c, 0, 73, 84
2,156120, Control_c, 0, 64, 67
2,156136, Control_c, 0, 64, 81
2,156151, Control_c, 0, 64, 86
2,156151, Note_on_c, 0, 73, 0
2,156165, Control_c, 0, 64, 87
2,156172, Note_on_c, 0, 49, 0
2,156192, Note_on_c, 0, 46, 0
2,156197, Note_on_c, 0, 77, 0
2,156209, Note_on_c, 0, 70, 85
2,156209, Note_on_c, 0, 73, 78
2,156211, Note_on_c, 0, 49, 66
2,156215, Note_on_c, 0, 53, 74
2,156266, Note_on_c, 0, 53, 0
2,156274, Control_c, 0, 64, 85
2,156282, Note_on_c, 0, 70, 0
2,156290, Control_c, 0, 64, 79
2,156305, Control_c, 0, 64, 65
2,156319, Control_c, 0, 64, 0
2,156323, Note_on_c, 0, 49, 0
2,156340, Note_on_c, 0, 51, 79
2,156342, Note_on_c, 0, 72, 83
2,156345, Note_on_c, 0, 75, 91
2,156346, Note_on_c, 0, 48, 77
2,156368, Note_on_c, 0, 73, 0
2,156427, Note_on_c, 0, 51, 0
2,156428, Note_on_c, 0, 75, 0
2,156445, Note_on_c, 0, 49, 65
2,156451, Note_on_c, 0, 46, 72
2,156451, Note_on_c, 0, 77, 88
2,156462, Note_on_c, 0, 73, 86
2,156465, Note_on_c, 0, 72, 0
2,156468, Note_on_c, 0, 48, 0
2,156534, Note_on_c, 0, 46, 0
2,156537, Note_on_c, 0, 77, 0
2,156548, Note_on_c, 0, 49, 0
2,156552, Note_on_c, 0, 73, 0
2,156582, Note_on_c, 0, 48, 84
2,156584, Note_on_c, 0, 78, 101
2,156588, Note_on_c, 0, 45, 73
2,156588, Note_on_c, 0, 75, 91
2,156631, Control_c, 0, 64, 56
2,156647, Control_c, 0, 64, 83
2,156661, Control_c, 0, 64, 91
2,156664, Note_on_c, 0, 75, 0
2,156676, Control_c, 0, 64, 91
2,156682, Note_on_c, 0, 48, 0
2,156710, Note_on_c, 0, 78, 0
2,156713, Note_on_c, 0, 51, 80
2,156714, Note_on_c, 0, 48, 59
2,156716, Note_on_c, 0, 72, 94
2,156719, Note_on_c, 0, 45, 0
2,156720, Note_on_c, 0, 75, 88
2,156760, Note_on_c, 0, 51, 0
2,156803, Note_on_c, 0, 72, 0
2,156807, Note_on_c, 0, 75, 0
2,156816, Control_c, 0, 64, 89
2,156831, Control_c, 0, 64, 81
2,156847, Control_c, 0, 64, 60
2,156847, Note_on_c, 0, 73, 90
2,156849, Note_on_c, 0, 77, 92
2,156851, Note_on_c, 0, 49, 80
2,156856, Note_on_c, 0, 46, 83
2,156861, Control_c, 0, 64, 0
2,156863, Note_on_c, 0, 48, 0
2,156943, Note_on_c, 0, 49, 0
2,156956, Note_on_c, 0, 46, 0
2,156974, Note_on_c, 0, 45, 71
2,156975, Note_on_c, 0, 48, 81
2,157049, Note_on_c, 0, 45, 0
2,157062, Note_on_c, 0, 48, 0
2,157079, Note_on_c, 0, 77, 0
2,157100, Note_on_c, 0, 73, 0
2,157101, Note_on_c, 0, 43, 85
2,157101, Note_on_c, 0, 46, 92
2,157167, Control_c, 0, 64, 76
2,157170, Note_on_c, 0, 46, 0
2,157181, Control_c, 0, 64, 82
2,157211, Control_c, 0, 64, 80
2,157226, Control_c, 0, 64, 79
2,157226, Note_on_c, 0, 49, 93
2,157232, Note_on_c, 0, 46, 79
2,157272, Control_c, 0, 64, 77
2,157272, Note_on_c, 0, 43, 0
2,157287, Control_c, 0, 64, 73
2,157289, Note_on_c, 0, 49, 0
2,157302, Control_c, 0, 64, 67
2,157308, Note_on_c, 0, 46, 0
2,157317, Control_c, 0, 64, 58
2,157333, Control_c, 0, 64, 49
2,157348, Control_c, 0, 64, 47
2,157364, Control_c, 0, 64, 27
2,157373, Note_on_c, 0, 78, 98
2,157374, Note_on_c, 0, 48, 84
2,157376, Note_on_c, 0, 45, 82
2,157376, Note_on_c, 0, 75, 95
2,157379, Control_c, 0, 64, 0
2,157611, Note_on_c, 0, 45, 0
2,157615, Note_on_c, 0, 48, 0
2,157624, Note_on_c, 0, 78, 0
2,157631, Note_on_c, 0, 75, 0
2,157681, Note_on_c, 0, 72, 96
2,157685, Note_on_c, 0, 69, 88
2,157760, Control_c, 0, 64, 70
2,157774, Control_c, 0, 64, 82
2,157790, Control_c, 0, 64, 86
2,157797, Note_on_c, 0, 72, 0
2,157835, Control_c, 0, 64, 87
2,157850, Control_c, 0, 64, 88
2,157866, Control_c, 0, 64, 88
2,157882, Control_c, 0, 64, 89
2,157897, Control_c, 0, 64, 89
2,157943, Control_c, 0, 64, 86
2,157956, Note_on_c, 0, 69, 0
2,157958, Control_c, 0, 64, 75
2,157973, Control_c, 0, 64, 33
2,157987, Note_on_c, 0, 53, 73
2,157988, Note_on_c, 0, 73, 87
2,157989, Control_c, 0, 64, 0
2,157993, Note_on_c, 0, 41, 75
2,157997, Note_on_c, 0, 70, 82
2,158064, Control_c, 0, 64, 51
2,158070, Note_on_c, 0, 70, 0
2,158078, Note_on_c, 0, 73, 0
2,158079, Control_c, 0, 64, 69
2,158081, Note_on_c, 0, 41, 0
2,158094, Control_c, 0, 64, 76
2,158110, Control_c, 0, 64, 81
2,158125, Control_c, 0, 64, 82
2,158126, Note_on_c, 0, 72, 82
2,158127, Note_on_c, 0, 75, 90
2,158141, Control_c, 0, 64, 83
2,158179, Control_c, 0, 64, 84
2,158209, Control_c, 0, 64, 84
2,158225, Control_c, 0, 64, 85
2,158234, Note_on_c, 0, 72, 0
2,158246, Note_on_c, 0, 75, 0
2,158268, Control_c, 0, 64, 84
2,158269, Note_on_c, 0, 53, 0
2,158283, Control_c, 0, 64, 79
2,158298, Control_c, 0, 64, 66
2,158309, Note_on_c, 0, 73, 96
2,158310, Note_on_c, 0, 46, 82
2,158312, Note_on_c, 0, 70, 92
2,158314, Control_c, 0, 64, 0
2,158315, Note_on_c, 0, 65, 82
2,158419, Control_c, 0, 64, 65
2,158435, Control_c, 0, 64, 78
2,158450, Control_c, 0, 64, 88
2,158464, Control_c, 0, 64, 93
2,158480, Control_c, 0, 64, 95
2,158481, Note_on_c, 0, 65, 0
2,158481, Note_on_c, 0, 70, 0
2,158495, Control_c, 0, 64, 97
2,158511, Control_c, 0, 64, 101
2,158526, Control_c, 0, 64, 105
2,158537, Note_on_c, 0, 46, 0
2,158540, Control_c, 0, 64, 107
2,158556, Control_c, 0, 64, 109
2,158571, Control_c, 0, 64, 112
2,158586, Control_c, 0, 64, 114
2,158602, Control_c, 0, 64, 117
2,158617, Control_c, 0, 64, 120
2,158633, Control_c, 0, 64, 120
2,158690, Note_on_c, 0, 73, 0
2,158694, Control_c, 0, 64, 118
2,158709, Control_c, 0, 64, 107
2,158724, Control_c, 0, 64, 94
2,158733, Note_on_c, 0, 72, 95
2,158736, Note_on_c, 0, 51, 80
2,158737, Note_on_c, 0, 66, 90
2,158739, Control_c, 0, 64, 77
2,158740, Note_on_c, 0, 63, 90
2,158755, Control_c, 0, 64, 46
2,158770, Control_c, 0, 64, 0
2,158892, Control_c, 0, 64, 63
2,158906, Control_c, 0, 64, 74
2,158929, Control_c, 0, 64, 85
2,158944, Control_c, 0, 64, 90
2,158948, Note_on_c, 0, 72, 0
2,158960, Control_c, 0, 64, 92
2,158975, Control_c, 0, 64, 94
2,158991, Control_c, 0, 64, 97
2,159000, Note_on_c, 0, 66, 0
2,159006, Control_c, 0, 64, 100
2,159017, Note_on_c, 0, 63, 0
2,159020, Control_c, 0, 64, 101
2,159036, Control_c, 0, 64, 101
2,159066, Control_c, 0, 64, 102
2,159097, Control_c, 0, 64, 102
2,159112, Control_c, 0, 64, 103
2,159127, Control_c, 0, 64, 104
2,159158, Control_c, 0, 64, 105
2,159173, Control_c, 0, 64, 106
2,159188, Control_c, 0, 64, 109
2,159203, Control_c, 0, 64, 114
2,159218, Control_c, 0, 64, 119
2,159225, Note_on_c, 0, 51, 0
2,159233, Control_c, 0, 64, 119
2,159263, Control_c, 0, 64, 114
2,159277, Note_on_c, 0, 70, 104
2,159279, Control_c, 0, 64, 105
2,159280, Note_on_c, 0, 53, 79
2,159281, Note_on_c, 0, 61, 93
2,159283, Note_on_c, 0, 65, 92
2,159294, Control_c, 0, 64, 92
2,159309, Control_c, 0, 64, 75
2,159324, Control_c, 0, 64, 49
2,159339, Control_c, 0, 64, 0
2,159537, Control_c, 0, 64, 52
2,159553, Control_c, 0, 64, 65
2,159568, Control_c, 0, 64, 69
2,159583, Control_c, 0, 64, 72
2,159599, Control_c, 0, 64, 77
2,159614, Control_c, 0, 64, 82
2,159630, Control_c, 0, 64, 87
2,159645, Control_c, 0, 64, 90
2,159659, Control_c, 0, 64, 93
2,159675, Control_c, 0, 64, 95
2,159697, Control_c, 0, 64, 97
2,159713, Control_c, 0, 64, 99
2,159728, Control_c, 0, 64, 101
2,159743, Control_c, 0, 64, 104
2,159758, Control_c, 0, 64, 106
2,159766, Note_on_c, 0, 61, 0
2,159773, Control_c, 0, 64, 108
2,159789, Control_c, 0, 64, 109
2,159804, Control_c, 0, 64, 111
2,159819, Control_c, 0, 64, 112
2,159834, Control_c, 0, 64, 113
2,159849, Control_c, 0, 64, 113
2,159926, Control_c, 0, 64, 114
2,160183, Control_c, 0, 64, 114
2,160199, Control_c, 0, 64, 115
2,160214, Control_c, 0, 64, 116
2,160259, Control_c, 0, 64, 108
2,160275, Control_c, 0, 64, 93
2,160276, Note_on_c, 0, 53, 0
2,160290, Control_c, 0, 64, 69
2,160293, Note_on_c, 0, 41, 85
2,160295, Note_on_c, 0, 60, 92
2,160304, Control_c, 0, 64, 0
2,160381, Control_c, 0, 64, 49
2,160397, Control_c, 0, 64, 70
2,160412, Control_c, 0, 64, 82
2,160428, Control_c, 0, 64, 92
2,160443, Control_c, 0, 64, 97
2,160465, Control_c, 0, 64, 99
2,160481, Control_c, 0, 64, 100
2,160496, Control_c, 0, 64, 103
2,160512, Control_c, 0, 64, 105
2,160526, Control_c, 0, 64, 107
2,160539, Note_on_c, 0, 70, 0
2,160541, Control_c, 0, 64, 108
2,160557, Control_c, 0, 64, 109
2,160572, Control_c, 0, 64, 110
2,160588, Control_c, 0, 64, 111
2,160617, Control_c, 0, 64, 111
2,160693, Control_c, 0, 64, 112
2,160726, Note_on_c, 0, 69, 75
2,160739, Control_c, 0, 64, 112
2,160755, Control_c, 0, 64, 113
2,160784, Control_c, 0, 64, 113
2,160800, Control_c, 0, 64, 114
2,160802, Note_on_c, 0, 69, 0
2,160815, Control_c, 0, 64, 115
2,160828, Control_c, 0, 64, 116
2,160837, Note_on_c, 0, 70, 65
2,160844, Control_c, 0, 64, 117
2,160859, Control_c, 0, 64, 118
2,160873, Control_c, 0, 64, 119
2,160875, Note_on_c, 0, 70, 0
2,160889, Control_c, 0, 64, 121
2,160904, Control_c, 0, 64, 127
2,160907, Note_on_c, 0, 69, 53
2,160924, Note_on_c, 0, 69, 0
2,160932, Note_on_c, 0, 70, 76
2,160979, Note_on_c, 0, 69, 88
2,160980, Control_c, 0, 64, 87
2,160995, Control_c, 0, 64, 0
2,160996, Note_on_c, 0, 70, 0
2,161675, Note_on_c, 0, 70, 89
2,161730, Note_on_c, 0, 69, 0
2,161824, Control_c, 0, 64, 36
2,161839, Control_c, 0, 64, 59
2,161854, Control_c, 0, 64, 62
2,161869, Control_c, 0, 64, 64
2,161885, Control_c, 0, 64, 67
2,161899, Control_c, 0, 64, 73
2,161915, Control_c, 0, 64, 79
2,161930, Control_c, 0, 64, 82
2,161945, Control_c, 0, 64, 82
2,161962, Control_c, 0, 64, 83
2,161977, Control_c, 0, 64, 85
2,162000, Control_c, 0, 64, 89
2,162015, Control_c, 0, 64, 93
2,162030, Control_c, 0, 64, 95
2,162046, Control_c, 0, 64, 96
2,162060, Control_c, 0, 64, 96
2,162076, Control_c, 0, 64, 97
2,162091, Control_c, 0, 64, 98
2,162106, Control_c, 0, 64, 98
2,162122, Control_c, 0, 64, 99
2,162125, Note_on_c, 0, 60, 0
2,162136, Control_c, 0, 64, 99
2,162165, Note_on_c, 0, 65, 0
2,162220, Note_on_c, 0, 70, 0
2,162292, Note_on_c, 0, 41, 0
2,162592, Control_c, 0, 64, 98
2,162607, Control_c, 0, 64, 94
2,162611, Note_on_c, 0, 70, 88
2,162614, Note_on_c, 0, 46, 75
2,162617, Note_on_c, 0, 65, 75
2,162618, Note_on_c, 0, 62, 77
2,162622, Control_c, 0, 64, 90
2,162638, Control_c, 0, 64, 83
2,162653, Control_c, 0, 64, 75
2,162668, Control_c, 0, 64, 65
2,162683, Control_c, 0, 64, 41
2,162698, Control_c, 0, 64, 0
2,162917, Control_c, 0, 64, 18
2,162933, Control_c, 0, 64, 34
2,162948, Control_c, 0, 64, 41
2,162963, Control_c, 0, 64, 46
2,162978, Control_c, 0, 64, 50
2,162993, Control_c, 0, 64, 53
2,163009, Control_c, 0, 64, 55
2,163024, Control_c, 0, 64, 57
2,163038, Control_c, 0, 64, 59
2,163054, Control_c, 0, 64, 61
2,163069, Control_c, 0, 64, 62
2,163085, Control_c, 0, 64, 63
2,163099, Control_c, 0, 64, 64
2,163114, Control_c, 0, 64, 64
2,163129, Control_c, 0, 64, 65
2,163144, Control_c, 0, 64, 65
2,163159, Control_c, 0, 64, 66
2,163174, Control_c, 0, 64, 67
2,163189, Control_c, 0, 64, 68
2,163205, Control_c, 0, 64, 68
2,163220, Control_c, 0, 64, 69
2,163235, Control_c, 0, 64, 70
2,163266, Control_c, 0, 64, 70
2,163282, Control_c, 0, 64, 71
2,163296, Control_c, 0, 64, 72
2,163311, Control_c, 0, 64, 73
2,163327, Control_c, 0, 64, 74
2,163342, Control_c, 0, 64, 74
2,163357, Control_c, 0, 64, 75
2,163363, Control_c, 0, 64, 75
2,163374, Control_c, 0, 64, 76
2,163389, Control_c, 0, 64, 77
2,163405, Control_c, 0, 64, 77
2,163434, Control_c, 0, 64, 78
2,163465, Control_c, 0, 64, 78
2,163480, Control_c, 0, 64, 79
2,163493, Control_c, 0, 64, 79
2,163516, Control_c, 0, 64, 80
2,163532, Control_c, 0, 64, 81
2,163562, Control_c, 0, 64, 81
2,163593, Control_c, 0, 64, 82
2,163624, Control_c, 0, 64, 82
2,163645, Control_c, 0, 64, 83
2,163675, Control_c, 0, 64, 83
2,163706, Control_c, 0, 64, 84
2,163736, Control_c, 0, 64, 84
2,163751, Control_c, 0, 64, 85
2,163782, Control_c, 0, 64, 85
2,163796, Control_c, 0, 64, 86
2,163812, Control_c, 0, 64, 86
2,163827, Control_c, 0, 64, 87
2,163857, Control_c, 0, 64, 87
2,163903, Control_c, 0, 64, 88
2,163948, Control_c, 0, 64, 88
2,164024, Control_c, 0, 64, 89
2,164101, Control_c, 0, 64, 89
2,164162, Control_c, 0, 64, 90
2,164504, Control_c, 0, 64, 90
2,166009, Control_c, 0, 64, 90
2,166055, Control_c, 0, 64, 89
2,166086, Control_c, 0, 64, 88
2,166101, Control_c, 0, 64, 88
2,166115, Control_c, 0, 64, 87
2,166131, Control_c, 0, 64, 86
2,166146, Control_c, 0, 64, 84
2,166162, Control_c, 0, 64, 84
2,166177, Control_c, 0, 64, 83
2,166191, Control_c, 0, 64, 82
2,166207, Control_c, 0, 64, 80
2,166222, Control_c, 0, 64, 79
2,166227, Note_on_c, 0, 46, 0
2,166237, Control_c, 0, 64, 78
2,166245, Note_on_c, 0, 70, 0
2,166253, Control_c, 0, 64, 77
2,166259, Note_on_c, 0, 62, 0
2,166268, Control_c, 0, 64, 77
2,166284, Control_c, 0, 64, 75
2,166299, Control_c, 0, 64, 74
2,166314, Control_c, 0, 64, 73
2,166329, Control_c, 0, 64, 72
2,166337, Note_on_c, 0, 65, 0
2,166344, Control_c, 0, 64, 71
2,166360, Control_c, 0, 64, 70
2,166374, Control_c, 0, 64, 70
2,166389, Control_c, 0, 64, 69
2,166435, Control_c, 0, 64, 69
2,166465, Control_c, 0, 64, 68
2,166481, Control_c, 0, 64, 67
2,166496, Control_c, 0, 64, 67
2,166511, Control_c, 0, 64, 66
2,166526, Control_c, 0, 64, 66
2,166594, Control_c, 0, 64, 65
2,166610, Control_c, 0, 64, 65
2,166625, Control_c, 0, 64, 64
2,166641, Control_c, 0, 64, 64
2,166655, Control_c, 0, 64, 63
2,166701, Control_c, 0, 64, 63
2,166716, Control_c, 0, 64, 62
2,166731, Control_c, 0, 64, 62
2,166746, Control_c, 0, 64, 61
2,166762, Control_c, 0, 64, 61
2,166791, Control_c, 0, 64, 60
2,166807, Control_c, 0, 64, 59
2,166822, Control_c, 0, 64, 58
2,166837, Control_c, 0, 64, 57
2,166853, Control_c, 0, 64, 56
2,166869, Control_c, 0, 64, 55
2,166884, Control_c, 0, 64, 53
2,166899, Control_c, 0, 64, 52
2,166914, Control_c, 0, 64, 50
2,166930, Control_c, 0, 64, 49
2,166945, Control_c, 0, 64, 48
2,166960, Control_c, 0, 64, 47
2,166975, Control_c, 0, 64, 47
2,166990, Control_c, 0, 64, 46
2,167006, Control_c, 0, 64, 44
2,167020, Control_c, 0, 64, 43
2,167082, Control_c, 0, 64, 43
2,167128, Control_c, 0, 64, 42
2,167157, Control_c, 0, 64, 42
2,167204, Control_c, 0, 64, 41
2,167233, Control_c, 0, 64, 41
2,167234, End_track
0, 0, End_of_file
