0, 0, Header, 1, 2, 480
1, 0, Start_track
1, 0, Tempo, 500000
1, 0, Time_signature, 4, 2, 24, 8
1, 1, End_track
2, 0, Start_track
2, 0, Program_c, 0, 0
2, 0, Control_c, 0, 64, 127
2, 0, Control_c, 0, 67, 0
2, 943, Note_on_c, 0, 48, 78
2, 948, Note_on_c, 0, 36, 77
2, 1425, Note_on_c, 0, 72, 87
2, 1794, Note_on_c, 0, 74, 85
2, 1927, Note_on_c, 0, 72, 0
2, 2110, Note_on_c, 0, 76, 92
2, 2168, Note_on_c, 0, 74, 0
2, 2395, Note_on_c, 0, 67, 85
2, 2458, Note_on_c, 0, 76, 0
2, 2504, Control_c, 0, 64, 100
2, 2525, Control_c, 0, 64, 78
2, 2542, Control_c, 0, 64, 67
2, 2562, Control_c, 0, 64, 61
2, 2583, Control_c, 0, 64, 59
2, 2601, Control_c, 0, 64, 62
2, 2621, Control_c, 0, 64, 66
2, 2639, Control_c, 0, 64, 70
2, 2656, Control_c, 0, 64, 76
2, 2672, Note_on_c, 0, 76, 88
2, 2679, Control_c, 0, 64, 82
2, 2699, Control_c, 0, 64, 89
2, 2716, Control_c, 0, 64, 98
2, 2735, Control_c, 0, 64, 106
2, 2737, Note_on_c, 0, 67, 0
2, 2753, Control_c, 0, 64, 111
2, 2792, Control_c, 0, 64, 112
2, 2811, Control_c, 0, 64, 113
2, 2832, Control_c, 0, 64, 116
2, 2851, Control_c, 0, 64, 120
2, 2910, Control_c, 0, 64, 118
2, 2918, Note_on_c, 0, 65, 83
2, 2930, Control_c, 0, 64, 108
2, 2943, Note_on_c, 0, 76, 0
2, 2948, Control_c, 0, 64, 98
2, 2965, Control_c, 0, 64, 86
2, 2985, Control_c, 0, 64, 74
2, 3004, Control_c, 0, 64, 65
2, 3023, Control_c, 0, 64, 60
2, 3042, Control_c, 0, 64, 55
2, 3061, Control_c, 0, 64, 53
2, 3120, Control_c, 0, 64, 56
2, 3138, Control_c, 0, 64, 60
2, 3157, Control_c, 0, 64, 62
2, 3168, Note_on_c, 0, 74, 84
2, 3177, Control_c, 0, 64, 64
2, 3195, Control_c, 0, 64, 66
2, 3215, Control_c, 0, 64, 69
2, 3236, Control_c, 0, 64, 74
2, 3236, Note_on_c, 0, 65, 0
2, 3254, Control_c, 0, 64, 79
2, 3276, Control_c, 0, 64, 85
2, 3291, Control_c, 0, 64, 87
2, 3379, Note_on_c, 0, 74, 0
2, 3404, Note_on_c, 0, 64, 76
2, 3426, Control_c, 0, 64, 86
2, 3464, Control_c, 0, 64, 85
2, 3500, Note_on_c, 0, 72, 84
2, 3527, Note_on_c, 0, 64, 0
2, 3540, Control_c, 0, 64, 84
2, 3560, Control_c, 0, 64, 82
2, 3580, Control_c, 0, 64, 81
2, 3598, Control_c, 0, 64, 80
2, 3612, Note_on_c, 0, 71, 78
2, 3618, Control_c, 0, 64, 79
2, 3637, Control_c, 0, 64, 77
2, 3659, Control_c, 0, 64, 75
2, 3675, Control_c, 0, 64, 71
2, 3695, Control_c, 0, 64, 68
2, 3702, Note_on_c, 0, 69, 80
2, 3715, Control_c, 0, 64, 65
2, 3735, Control_c, 0, 64, 63
2, 3735, Note_on_c, 0, 72, 0
2, 3752, Control_c, 0, 64, 61
2, 3772, Control_c, 0, 64, 59
2, 3793, Note_on_c, 0, 71, 0
2, 3797, Control_c, 0, 64, 56
2, 3808, Control_c, 0, 64, 53
2, 3832, Control_c, 0, 64, 48
2, 3837, Note_on_c, 0, 67, 82
2, 3850, Control_c, 0, 64, 44
2, 3866, Note_on_c, 0, 69, 0
2, 3871, Control_c, 0, 64, 40
2, 3885, Control_c, 0, 64, 36
2, 3906, Control_c, 0, 64, 33
2, 3926, Control_c, 0, 64, 31
2, 3944, Control_c, 0, 64, 30
2, 4039, Control_c, 0, 64, 32
2, 4059, Control_c, 0, 64, 35
2, 4070, Note_on_c, 0, 70, 81
2, 4079, Control_c, 0, 64, 38
2, 4099, Control_c, 0, 64, 41
2, 4103, Note_on_c, 0, 67, 0
2, 4118, Control_c, 0, 64, 43
2, 4137, Control_c, 0, 64, 44
2, 4160, Control_c, 0, 64, 45
2, 4306, Note_on_c, 0, 64, 79
2, 4374, Note_on_c, 0, 70, 0
2, 4501, Control_c, 0, 64, 44
2, 4537, Note_on_c, 0, 67, 78
2, 4539, Control_c, 0, 64, 43
2, 4574, Note_on_c, 0, 64, 0
2, 4599, Control_c, 0, 64, 42
2, 4654, Control_c, 0, 64, 41
2, 4676, Control_c, 0, 64, 40
2, 4696, Control_c, 0, 64, 39
2, 4713, Control_c, 0, 64, 37
2, 4731, Control_c, 0, 64, 34
2, 4751, Control_c, 0, 64, 29
2, 4769, Control_c, 0, 64, 18
2, 4775, Note_on_c, 0, 60, 70
2, 4782, Note_on_c, 0, 67, 0
2, 4788, Control_c, 0, 64, 0
2, 4922, Control_c, 0, 64, 35
2, 4943, Control_c, 0, 64, 47
2, 4965, Control_c, 0, 64, 55
2, 4982, Control_c, 0, 64, 60
2, 5002, Note_on_c, 0, 70, 77
2, 5005, Control_c, 0, 64, 63
2, 5020, Control_c, 0, 64, 65
2, 5040, Control_c, 0, 64, 68
2, 5057, Control_c, 0, 64, 77
2, 5073, Note_on_c, 0, 60, 0
2, 5077, Control_c, 0, 64, 88
2, 5097, Control_c, 0, 64, 95
2, 5115, Control_c, 0, 64, 98
2, 5162, Note_on_c, 0, 70, 0
2, 5173, Control_c, 0, 64, 97
2, 5191, Control_c, 0, 64, 95
2, 5211, Control_c, 0, 64, 91
2, 5231, Control_c, 0, 64, 87
2, 5253, Control_c, 0, 64, 81
2, 5253, Note_on_c, 0, 69, 69
2, 5269, Control_c, 0, 64, 77
2, 5289, Control_c, 0, 64, 73
2, 5306, Control_c, 0, 64, 70
2, 5326, Control_c, 0, 64, 68
2, 5344, Control_c, 0, 64, 66
2, 5354, Note_on_c, 0, 67, 65
2, 5365, Control_c, 0, 64, 64
2, 5386, Control_c, 0, 64, 63
2, 5407, Control_c, 0, 64, 62
2, 5422, Control_c, 0, 64, 60
2, 5444, Control_c, 0, 64, 59
2, 5455, Note_on_c, 0, 65, 71
2, 5460, Note_on_c, 0, 69, 0
2, 5462, Control_c, 0, 64, 57
2, 5479, Control_c, 0, 64, 56
2, 5499, Control_c, 0, 64, 54
2, 5519, Control_c, 0, 64, 51
2, 5537, Note_on_c, 0, 67, 0
2, 5542, Control_c, 0, 64, 47
2, 5551, Note_on_c, 0, 64, 79
2, 5557, Control_c, 0, 64, 42
2, 5571, Note_on_c, 0, 65, 0
2, 5576, Control_c, 0, 64, 38
2, 5596, Control_c, 0, 64, 36
2, 5615, Control_c, 0, 64, 34
2, 5635, Control_c, 0, 64, 32
2, 5654, Control_c, 0, 64, 30
2, 5668, Note_on_c, 0, 65, 72
2, 5672, Control_c, 0, 64, 28
2, 5692, Control_c, 0, 64, 27
2, 5729, Control_c, 0, 64, 26
2, 5750, Control_c, 0, 64, 25
2, 5750, Note_on_c, 0, 64, 0
2, 5908, Note_on_c, 0, 69, 75
2, 5969, Note_on_c, 0, 65, 0
2, 6096, Control_c, 0, 64, 26
2, 6149, Note_on_c, 0, 62, 73
2, 6219, Note_on_c, 0, 69, 0
2, 6287, Control_c, 0, 64, 27
2, 6394, Note_on_c, 0, 65, 71
2, 6447, Note_on_c, 0, 62, 0
2, 6628, Note_on_c, 0, 57, 72
2, 6675, Note_on_c, 0, 65, 0
2, 6869, Note_on_c, 0, 60, 69
2, 6923, Note_on_c, 0, 57, 0
2, 7119, Note_on_c, 0, 59, 70
2, 7204, Note_on_c, 0, 60, 0
2, 7372, Note_on_c, 0, 62, 71
2, 7435, Note_on_c, 0, 59, 0
2, 7459, Control_c, 0, 64, 28
2, 7613, Note_on_c, 0, 64, 77
2, 7698, Note_on_c, 0, 62, 0
2, 7844, Control_c, 0, 64, 29
2, 7844, Note_on_c, 0, 65, 71
2, 7903, Note_on_c, 0, 64, 0
2, 8073, Control_c, 0, 64, 30
2, 8101, Note_on_c, 0, 55, 65
2, 8143, Note_on_c, 0, 65, 0
2, 8343, Note_on_c, 0, 65, 62
2, 8428, Note_on_c, 0, 55, 0
2, 8591, Note_on_c, 0, 64, 76
2, 8688, Note_on_c, 0, 65, 0
2, 8833, Note_on_c, 0, 62, 75
2, 8882, Note_on_c, 0, 64, 0
2, 8920, Control_c, 0, 64, 31
2, 9151, Note_on_c, 0, 64, 77
2, 9196, Note_on_c, 0, 62, 0
2, 9488, Note_on_c, 0, 60, 59
2, 9739, Note_on_c, 0, 59, 62
2, 9833, Note_on_c, 0, 36, 0
2, 9897, Note_on_c, 0, 48, 0
2, 9971, Note_on_c, 0, 57, 65
2, 10056, Note_on_c, 0, 59, 0
2, 10216, Note_on_c, 0, 55, 58
2, 10318, Note_on_c, 0, 57, 0
2, 10463, Note_on_c, 0, 53, 61
2, 10472, Control_c, 0, 64, 32
2, 10694, Note_on_c, 0, 52, 63
2, 10758, Note_on_c, 0, 53, 0
2, 10918, Note_on_c, 0, 52, 0
2, 10922, Note_on_c, 0, 50, 61
2, 11127, Note_on_c, 0, 50, 0
2, 11145, Note_on_c, 0, 48, 58
2, 11233, Note_on_c, 0, 48, 0
2, 11257, Note_on_c, 0, 50, 68
2, 11345, Note_on_c, 0, 50, 0
2, 11348, Note_on_c, 0, 48, 66
2, 11440, Note_on_c, 0, 48, 0
2, 11453, Note_on_c, 0, 47, 66
2, 11592, Note_on_c, 0, 47, 0
2, 11592, Note_on_c, 0, 48, 62
2, 11843, Note_on_c, 0, 48, 0
2, 11852, Note_on_c, 0, 52, 64
2, 12103, Note_on_c, 0, 43, 63
2, 12130, Note_on_c, 0, 52, 0
2, 12265, Note_on_c, 0, 55, 0
2, 12342, Note_on_c, 0, 46, 64
2, 12371, Note_on_c, 0, 43, 0
2, 12591, Note_on_c, 0, 45, 57
2, 12635, Note_on_c, 0, 46, 0
2, 12808, Note_on_c, 0, 60, 0
2, 12828, Note_on_c, 0, 43, 57
2, 12872, Note_on_c, 0, 45, 0
2, 13105, Note_on_c, 0, 41, 55
2, 13116, Note_on_c, 0, 57, 52
2, 13158, Note_on_c, 0, 43, 0
2, 13402, Note_on_c, 0, 48, 47
2, 13645, Note_on_c, 0, 48, 0
2, 13652, Note_on_c, 0, 50, 57
2, 13878, Note_on_c, 0, 52, 64
2, 13891, Note_on_c, 0, 50, 0
2, 14139, Note_on_c, 0, 53, 53
2, 14183, Note_on_c, 0, 52, 0
2, 14335, Control_c, 0, 64, 33
2, 14386, Note_on_c, 0, 62, 62
2, 14465, Control_c, 0, 64, 34
2, 14512, Note_on_c, 0, 57, 0
2, 14643, Note_on_c, 0, 52, 59
2, 14663, Note_on_c, 0, 53, 0
2, 14885, Note_on_c, 0, 60, 57
2, 15034, Note_on_c, 0, 64, 0
2, 15059, Note_on_c, 0, 62, 0
2, 15129, Note_on_c, 0, 52, 0
2, 15136, Note_on_c, 0, 50, 46
2, 15138, Note_on_c, 0, 59, 63
2, 15154, Note_on_c, 0, 55, 39
2, 15158, Note_on_c, 0, 60, 0
2, 15230, Note_on_c, 0, 55, 0
2, 15382, Note_on_c, 0, 62, 74
2, 15534, Note_on_c, 0, 62, 0
2, 15629, Note_on_c, 0, 67, 69
2, 15685, Note_on_c, 0, 59, 0
2, 15735, Note_on_c, 0, 50, 0
2, 15872, Note_on_c, 0, 59, 57
2, 16028, Note_on_c, 0, 67, 0
2, 16134, Note_on_c, 0, 52, 51
2, 16134, Note_on_c, 0, 60, 59
2, 16142, Note_on_c, 0, 40, 51
2, 16151, Note_on_c, 0, 59, 0
2, 16216, Note_on_c, 0, 41, 0
2, 16383, Note_on_c, 0, 67, 68
2, 16421, Note_on_c, 0, 40, 0
2, 16521, Control_c, 0, 64, 35
2, 16624, Note_on_c, 0, 45, 54
2, 16633, Note_on_c, 0, 65, 71
2, 16712, Note_on_c, 0, 67, 0
2, 16742, Note_on_c, 0, 52, 0
2, 16862, Note_on_c, 0, 64, 83
2, 16909, Note_on_c, 0, 65, 0
2, 17060, Note_on_c, 0, 60, 0
2, 17121, Note_on_c, 0, 65, 69
2, 17133, Note_on_c, 0, 64, 0
2, 17150, Note_on_c, 0, 38, 52
2, 17159, Note_on_c, 0, 50, 47
2, 17212, Control_c, 0, 64, 34
2, 17215, Note_on_c, 0, 45, 0
2, 17381, Note_on_c, 0, 60, 57
2, 17638, Note_on_c, 0, 62, 57
2, 17702, Note_on_c, 0, 60, 0
2, 17870, Note_on_c, 0, 57, 58
2, 17892, Note_on_c, 0, 62, 0
2, 18092, Note_on_c, 0, 57, 0
2, 18120, Note_on_c, 0, 59, 57
2, 18141, Note_on_c, 0, 43, 48
2, 18152, Control_c, 0, 64, 35
2, 18170, Note_on_c, 0, 65, 0
2, 18215, Note_on_c, 0, 38, 0
2, 18269, Note_on_c, 0, 50, 0
2, 18355, Note_on_c, 0, 65, 62
2, 18606, Note_on_c, 0, 64, 73
2, 18844, Note_on_c, 0, 62, 71
2, 18889, Note_on_c, 0, 64, 0
2, 18904, Note_on_c, 0, 65, 0
2, 19114, Note_on_c, 0, 64, 65
2, 19123, Note_on_c, 0, 60, 53
2, 19129, Note_on_c, 0, 59, 0
2, 19136, Note_on_c, 0, 43, 0
2, 19147, Note_on_c, 0, 36, 48
2, 19156, Note_on_c, 0, 48, 35
2, 19180, Note_on_c, 0, 62, 0
2, 19408, Note_on_c, 0, 48, 0
2, 19417, Note_on_c, 0, 43, 54
2, 19426, Note_on_c, 0, 36, 0
2, 19636, Note_on_c, 0, 45, 61
2, 19713, Note_on_c, 0, 43, 0
2, 19869, Note_on_c, 0, 47, 68
2, 19905, Note_on_c, 0, 45, 0
2, 20120, Note_on_c, 0, 48, 68
2, 20144, Note_on_c, 0, 47, 0
2, 20367, Note_on_c, 0, 52, 70
2, 20374, Note_on_c, 0, 48, 0
2, 20567, Note_on_c, 0, 60, 0
2, 20578, Note_on_c, 0, 64, 0
2, 20617, Note_on_c, 0, 45, 62
2, 20624, Note_on_c, 0, 52, 0
2, 20846, Note_on_c, 0, 45, 0
2, 20859, Note_on_c, 0, 48, 65
2, 21109, Note_on_c, 0, 42, 59
2, 21116, Note_on_c, 0, 62, 75
2, 21142, Note_on_c, 0, 48, 0
2, 21204, Control_c, 0, 64, 36
2, 21355, Note_on_c, 0, 42, 0
2, 21380, Note_on_c, 0, 60, 56
2, 21604, Note_on_c, 0, 38, 58
2, 21608, Note_on_c, 0, 59, 59
2, 21625, Note_on_c, 0, 60, 0
2, 21838, Note_on_c, 0, 57, 55
2, 21838, Note_on_c, 0, 59, 0
2, 21860, Note_on_c, 0, 38, 0
2, 22016, Note_on_c, 0, 62, 0
2, 22074, Note_on_c, 0, 57, 0
2, 22083, Note_on_c, 0, 59, 59
2, 22096, Note_on_c, 0, 43, 54
2, 22331, Note_on_c, 0, 62, 65
2, 22571, Note_on_c, 0, 64, 75
2, 22763, Note_on_c, 0, 62, 0
2, 22822, Note_on_c, 0, 67, 75
2, 22844, Note_on_c, 0, 43, 0
2, 22861, Note_on_c, 0, 59, 0
2, 22890, Note_on_c, 0, 64, 0
2, 22972, Control_c, 0, 64, 35
2, 23071, Note_on_c, 0, 60, 63
2, 23076, Note_on_c, 0, 57, 54
2, 23141, Note_on_c, 0, 67, 0
2, 23301, Note_on_c, 0, 57, 0
2, 23343, Note_on_c, 0, 45, 55
2, 23456, Note_on_c, 0, 47, 61
2, 23493, Note_on_c, 0, 45, 0
2, 23577, Note_on_c, 0, 48, 66
2, 23588, Note_on_c, 0, 47, 0
2, 23687, Note_on_c, 0, 50, 67
2, 23691, Note_on_c, 0, 48, 0
2, 23780, Note_on_c, 0, 50, 0
2, 23812, Note_on_c, 0, 52, 70
2, 24013, Note_on_c, 0, 52, 0
2, 24095, Note_on_c, 0, 42, 64
2, 24183, Note_on_c, 0, 60, 0
2, 24324, Note_on_c, 0, 69, 75
2, 24421, Note_on_c, 0, 67, 81
2, 24426, Note_on_c, 0, 69, 0
2, 24510, Note_on_c, 0, 42, 0
2, 24525, Control_c, 0, 64, 34
2, 24543, Control_c, 0, 64, 32
2, 24547, Note_on_c, 0, 69, 74
2, 24565, Control_c, 0, 64, 30
2, 24575, Note_on_c, 0, 50, 51
2, 24584, Control_c, 0, 64, 25
2, 24584, Note_on_c, 0, 67, 0
2, 24600, Control_c, 0, 64, 0
2, 24773, Control_c, 0, 64, 30
2, 24791, Control_c, 0, 64, 43
2, 24815, Control_c, 0, 64, 51
2, 24815, Note_on_c, 0, 60, 73
2, 24815, Note_on_c, 0, 69, 0
2, 24834, Control_c, 0, 64, 57
2, 24849, Control_c, 0, 64, 61
2, 24867, Control_c, 0, 64, 64
2, 24889, Control_c, 0, 64, 67
2, 24910, Control_c, 0, 64, 72
2, 24925, Control_c, 0, 64, 79
2, 24945, Control_c, 0, 64, 86
2, 24966, Control_c, 0, 64, 90
2, 24987, Control_c, 0, 64, 92
2, 25002, Control_c, 0, 64, 93
2, 25024, Control_c, 0, 64, 92
2, 25041, Control_c, 0, 64, 91
2, 25062, Control_c, 0, 64, 89
2, 25080, Control_c, 0, 64, 87
2, 25100, Control_c, 0, 64, 83
2, 25103, Note_on_c, 0, 59, 68
2, 25122, Control_c, 0, 64, 79
2, 25122, Note_on_c, 0, 43, 50
2, 25138, Control_c, 0, 64, 74
2, 25155, Note_on_c, 0, 60, 0
2, 25157, Control_c, 0, 64, 69
2, 25176, Control_c, 0, 64, 66
2, 25196, Control_c, 0, 64, 64
2, 25214, Control_c, 0, 64, 62
2, 25233, Control_c, 0, 64, 61
2, 25254, Control_c, 0, 64, 60
2, 25272, Control_c, 0, 64, 58
2, 25289, Control_c, 0, 64, 55
2, 25312, Control_c, 0, 64, 51
2, 25330, Control_c, 0, 64, 48
2, 25348, Control_c, 0, 64, 45
2, 25368, Control_c, 0, 64, 42
2, 25388, Control_c, 0, 64, 40
2, 25410, Control_c, 0, 64, 38
2, 25410, Note_on_c, 0, 57, 52
2, 25425, Control_c, 0, 64, 36
2, 25445, Control_c, 0, 64, 35
2, 25464, Control_c, 0, 64, 34
2, 25484, Control_c, 0, 64, 33
2, 25561, Control_c, 0, 64, 32
2, 25644, Note_on_c, 0, 55, 54
2, 25660, Note_on_c, 0, 57, 0
2, 25849, Control_c, 0, 64, 31
2, 25872, Note_on_c, 0, 54, 61
2, 25889, Note_on_c, 0, 55, 0
2, 26028, Note_on_c, 0, 59, 0
2, 26126, Note_on_c, 0, 54, 0
2, 26126, Note_on_c, 0, 55, 64
2, 26175, Control_c, 0, 64, 30
2, 26359, Note_on_c, 0, 62, 70
2, 26372, Control_c, 0, 64, 29
2, 26561, Note_on_c, 0, 55, 0
2, 26594, Note_on_c, 0, 43, 0
2, 26607, Note_on_c, 0, 64, 74
2, 26611, Note_on_c, 0, 41, 55
2, 26838, Note_on_c, 0, 65, 71
2, 26869, Note_on_c, 0, 62, 0
2, 26933, Note_on_c, 0, 64, 0
2, 27083, Note_on_c, 0, 41, 0
2, 27087, Note_on_c, 0, 67, 63
2, 27094, Note_on_c, 0, 40, 49
2, 27181, Note_on_c, 0, 65, 0
2, 27185, Note_on_c, 0, 50, 0
2, 27348, Note_on_c, 0, 64, 57
2, 27464, Note_on_c, 0, 40, 0
2, 27577, Note_on_c, 0, 59, 50
2, 27583, Note_on_c, 0, 64, 0
2, 27594, Note_on_c, 0, 43, 51
2, 27594, Note_on_c, 0, 52, 48
2, 27828, Note_on_c, 0, 62, 64
2, 27835, Note_on_c, 0, 59, 0
2, 27930, Note_on_c, 0, 43, 0
2, 28058, Note_on_c, 0, 61, 60
2, 28069, Note_on_c, 0, 45, 54
2, 28103, Note_on_c, 0, 62, 0
2, 28314, Note_on_c, 0, 64, 68
2, 28368, Note_on_c, 0, 45, 0
2, 28448, Control_c, 0, 64, 30
2, 28507, Note_on_c, 0, 61, 0
2, 28540, Note_on_c, 0, 67, 0
2, 28545, Note_on_c, 0, 57, 64
2, 28555, Note_on_c, 0, 49, 49
2, 28564, Note_on_c, 0, 64, 0
2, 28762, Note_on_c, 0, 49, 0
2, 28791, Note_on_c, 0, 67, 68
2, 28985, Note_on_c, 0, 52, 0
2, 29036, Note_on_c, 0, 38, 41
2, 29053, Note_on_c, 0, 65, 58
2, 29102, Note_on_c, 0, 67, 0
2, 29305, Note_on_c, 0, 45, 46
2, 29472, Note_on_c, 0, 38, 0
2, 29536, Note_on_c, 0, 45, 0
2, 29552, Note_on_c, 0, 47, 59
2, 29778, Note_on_c, 0, 47, 0
2, 29783, Note_on_c, 0, 49, 66
2, 30028, Note_on_c, 0, 49, 0
2, 30033, Note_on_c, 0, 50, 65
2, 30262, Note_on_c, 0, 53, 73
2, 30290, Note_on_c, 0, 50, 0
2, 30469, Note_on_c, 0, 57, 0
2, 30478, Note_on_c, 0, 53, 0
2, 30506, Note_on_c, 0, 47, 53
2, 30506, Note_on_c, 0, 62, 71
2, 30576, Note_on_c, 0, 65, 0
2, 30721, Note_on_c, 0, 47, 0
2, 30740, Note_on_c, 0, 50, 65
2, 30996, Note_on_c, 0, 44, 62
2, 31004, Note_on_c, 0, 64, 68
2, 31037, Note_on_c, 0, 50, 0
2, 31059, Note_on_c, 0, 62, 0
2, 31233, Note_on_c, 0, 44, 0
2, 31271, Note_on_c, 0, 62, 52
2, 31495, Note_on_c, 0, 40, 56
2, 31500, Note_on_c, 0, 60, 58
2, 31529, Note_on_c, 0, 62, 0
2, 31733, Note_on_c, 0, 40, 0
2, 31741, Note_on_c, 0, 59, 63
2, 31742, Note_on_c, 0, 60, 0
2, 31891, Note_on_c, 0, 64, 0
2, 31977, Note_on_c, 0, 45, 58
2, 31986, Note_on_c, 0, 60, 69
2, 31991, Note_on_c, 0, 59, 0
2, 32221, Note_on_c, 0, 64, 78
2, 32250, Note_on_c, 0, 45, 0
2, 32461, Note_on_c, 0, 43, 62
2, 32461, Note_on_c, 0, 65, 72
2, 32590, Note_on_c, 0, 64, 0
2, 32690, Note_on_c, 0, 67, 76
2, 32699, Note_on_c, 0, 43, 0
2, 32749, Note_on_c, 0, 65, 0
2, 32944, Note_on_c, 0, 41, 59
2, 32949, Note_on_c, 0, 67, 0
2, 32949, Note_on_c, 0, 69, 70
2, 33063, Note_on_c, 0, 67, 76
2, 33167, Note_on_c, 0, 69, 0
2, 33172, Note_on_c, 0, 65, 72
2, 33178, Note_on_c, 0, 41, 0
2, 33229, Note_on_c, 0, 67, 0
2, 33278, Note_on_c, 0, 64, 77
2, 33278, Note_on_c, 0, 65, 0
2, 33396, Note_on_c, 0, 40, 53
2, 33408, Note_on_c, 0, 65, 74
2, 33444, Note_on_c, 0, 60, 0
2, 33538, Note_on_c, 0, 64, 0
2, 33615, Note_on_c, 0, 40, 0
2, 33643, Note_on_c, 0, 69, 80
2, 33701, Note_on_c, 0, 65, 0
2, 33865, Note_on_c, 0, 69, 0
2, 33877, Note_on_c, 0, 41, 56
2, 33878, Note_on_c, 0, 62, 83
2, 34096, Note_on_c, 0, 41, 0
2, 34122, Note_on_c, 0, 72, 86
2, 34185, Control_c, 0, 64, 31
2, 34223, Control_c, 0, 64, 32
2, 34317, Control_c, 0, 64, 30
2, 34337, Control_c, 0, 64, 28
2, 34357, Control_c, 0, 64, 21
2, 34368, Note_on_c, 0, 71, 80
2, 34372, Note_on_c, 0, 38, 55
2, 34377, Control_c, 0, 64, 0
2, 34495, Note_on_c, 0, 72, 0
2, 34549, Control_c, 0, 64, 27
2, 34569, Control_c, 0, 64, 54
2, 34589, Control_c, 0, 64, 64
2, 34598, Note_on_c, 0, 69, 82
2, 34609, Control_c, 0, 64, 73
2, 34626, Note_on_c, 0, 71, 0
2, 34630, Control_c, 0, 64, 111
2, 34646, Control_c, 0, 64, 127
2, 34673, Note_on_c, 0, 69, 0
2, 34693, Note_on_c, 0, 38, 0
2, 34893, Note_on_c, 0, 68, 83
2, 34900, Note_on_c, 0, 40, 53
2, 34952, Control_c, 0, 64, 109
2, 34961, Note_on_c, 0, 62, 0
2, 34972, Control_c, 0, 64, 86
2, 34992, Control_c, 0, 64, 71
2, 35012, Control_c, 0, 64, 62
2, 35028, Control_c, 0, 64, 53
2, 35050, Control_c, 0, 64, 46
2, 35070, Control_c, 0, 64, 41
2, 35088, Control_c, 0, 64, 39
2, 35104, Control_c, 0, 64, 36
2, 35125, Control_c, 0, 64, 31
2, 35145, Control_c, 0, 64, 22
2, 35165, Control_c, 0, 64, 14
2, 35165, Note_on_c, 0, 65, 60
2, 35182, Control_c, 0, 64, 11
2, 35202, Control_c, 0, 64, 9
2, 35239, Control_c, 0, 64, 0
2, 35400, Note_on_c, 0, 64, 65
2, 35461, Note_on_c, 0, 65, 0
2, 35490, Control_c, 0, 64, 8
2, 35508, Control_c, 0, 64, 9
2, 35585, Control_c, 0, 64, 10
2, 35636, Note_on_c, 0, 62, 64
2, 35685, Control_c, 0, 64, 11
2, 35685, Note_on_c, 0, 64, 0
2, 35740, Control_c, 0, 64, 12
2, 35836, Note_on_c, 0, 68, 0
2, 35864, Note_on_c, 0, 60, 63
2, 35924, Note_on_c, 0, 62, 0
2, 36097, Note_on_c, 0, 64, 83
2, 36171, Note_on_c, 0, 64, 0
2, 36365, Note_on_c, 0, 69, 76
2, 36372, Control_c, 0, 64, 11
2, 36431, Note_on_c, 0, 60, 0
2, 36604, Note_on_c, 0, 60, 63
2, 36696, Note_on_c, 0, 60, 0
2, 36850, Note_on_c, 0, 59, 61
2, 37093, Note_on_c, 0, 47, 57
2, 37158, Note_on_c, 0, 40, 0
2, 37180, Note_on_c, 0, 69, 0
2, 37336, Note_on_c, 0, 69, 67
2, 37345, Note_on_c, 0, 48, 60
2, 37422, Note_on_c, 0, 47, 0
2, 37486, Control_c, 0, 64, 12
2, 37584, Note_on_c, 0, 50, 73
2, 37589, Note_on_c, 0, 48, 0
2, 37659, Control_c, 0, 64, 13
2, 37754, Control_c, 0, 64, 14
2, 37776, Control_c, 0, 64, 15
2, 37830, Note_on_c, 0, 50, 0
2, 37830, Note_on_c, 0, 52, 62
2, 37830, Note_on_c, 0, 67, 71
2, 37866, Note_on_c, 0, 69, 0
2, 37870, Control_c, 0, 64, 16
2, 38073, Note_on_c, 0, 52, 0
2, 38073, Note_on_c, 0, 55, 69
2, 38197, Note_on_c, 0, 59, 0
2, 38253, Control_c, 0, 64, 15
2, 38272, Control_c, 0, 64, 13
2, 38293, Control_c, 0, 64, 10
2, 38311, Control_c, 0, 64, 0
2, 38325, Note_on_c, 0, 47, 55
2, 38325, Note_on_c, 0, 62, 63
2, 38329, Note_on_c, 0, 65, 66
2, 38342, Note_on_c, 0, 55, 0
2, 38411, Note_on_c, 0, 67, 0
2, 38504, Control_c, 0, 64, 41
2, 38522, Control_c, 0, 64, 55
2, 38542, Control_c, 0, 64, 62
2, 38542, Note_on_c, 0, 47, 0
2, 38557, Note_on_c, 0, 50, 63
2, 38564, Control_c, 0, 64, 66
2, 38581, Control_c, 0, 64, 73
2, 38590, Note_on_c, 0, 62, 0
2, 38599, Control_c, 0, 64, 89
2, 38603, Note_on_c, 0, 65, 0
2, 38618, Control_c, 0, 64, 127
2, 38790, Control_c, 0, 64, 101
2, 38813, Control_c, 0, 64, 83
2, 38830, Control_c, 0, 64, 72
2, 38830, Note_on_c, 0, 64, 78
2, 38835, Note_on_c, 0, 49, 58
2, 38850, Control_c, 0, 64, 66
2, 38871, Control_c, 0, 64, 62
2, 38871, Note_on_c, 0, 50, 0
2, 38888, Control_c, 0, 64, 59
2, 38907, Control_c, 0, 64, 56
2, 38926, Control_c, 0, 64, 53
2, 38945, Control_c, 0, 64, 50
2, 38966, Control_c, 0, 64, 47
2, 38986, Control_c, 0, 64, 45
2, 39002, Control_c, 0, 64, 43
2, 39022, Control_c, 0, 64, 42
2, 39039, Control_c, 0, 64, 39
2, 39059, Control_c, 0, 64, 37
2, 39080, Control_c, 0, 64, 36
2, 39099, Control_c, 0, 64, 35
2, 39108, Note_on_c, 0, 62, 59
2, 39113, Note_on_c, 0, 49, 0
2, 39121, Note_on_c, 0, 52, 55
2, 39156, Control_c, 0, 64, 34
2, 39175, Control_c, 0, 64, 33
2, 39216, Control_c, 0, 64, 32
2, 39333, Note_on_c, 0, 52, 0
2, 39353, Note_on_c, 0, 45, 52
2, 39353, Note_on_c, 0, 61, 59
2, 39407, Note_on_c, 0, 62, 0
2, 39442, Note_on_c, 0, 64, 0
2, 39591, Note_on_c, 0, 64, 66
2, 39598, Note_on_c, 0, 55, 51
2, 39772, Control_c, 0, 64, 31
2, 39860, Note_on_c, 0, 50, 47
2, 39860, Note_on_c, 0, 55, 0
2, 39865, Note_on_c, 0, 57, 65
2, 39869, Note_on_c, 0, 61, 0
2, 39888, Note_on_c, 0, 45, 0
2, 39923, Note_on_c, 0, 64, 0
2, 40146, Note_on_c, 0, 64, 65
2, 40157, Note_on_c, 0, 55, 46
2, 40366, Note_on_c, 0, 55, 0
2, 40394, Note_on_c, 0, 53, 53
2, 40397, Note_on_c, 0, 62, 67
2, 40447, Note_on_c, 0, 64, 0
2, 40497, Note_on_c, 0, 57, 0
2, 40595, Control_c, 0, 64, 30
2, 40595, Note_on_c, 0, 53, 0
2, 40613, Note_on_c, 0, 52, 57
2, 40623, Note_on_c, 0, 61, 60
2, 40634, Control_c, 0, 64, 29
2, 40634, Note_on_c, 0, 62, 0
2, 40654, Control_c, 0, 64, 26
2, 40672, Control_c, 0, 64, 20
2, 40690, Control_c, 0, 64, 0
2, 40811, Note_on_c, 0, 52, 0
2, 40860, Note_on_c, 0, 62, 62
2, 40873, Note_on_c, 0, 53, 59
2, 40882, Control_c, 0, 64, 20
2, 40900, Control_c, 0, 64, 40
2, 40904, Note_on_c, 0, 61, 0
2, 40919, Control_c, 0, 64, 50
2, 40938, Control_c, 0, 64, 56
2, 40960, Control_c, 0, 64, 59
2, 40960, Note_on_c, 0, 62, 0
2, 40976, Control_c, 0, 64, 60
2, 40995, Control_c, 0, 64, 62
2, 41011, Note_on_c, 0, 50, 0
2, 41015, Control_c, 0, 64, 63
2, 41034, Control_c, 0, 64, 64
2, 41117, Note_on_c, 0, 69, 78
2, 41190, Control_c, 0, 64, 63
2, 41207, Control_c, 0, 64, 62
2, 41266, Control_c, 0, 64, 61
2, 41303, Control_c, 0, 64, 60
2, 41324, Control_c, 0, 64, 59
2, 41357, Note_on_c, 0, 45, 59
2, 41357, Note_on_c, 0, 71, 86
2, 41379, Control_c, 0, 64, 58
2, 41418, Control_c, 0, 64, 57
2, 41437, Note_on_c, 0, 69, 0
2, 41456, Control_c, 0, 64, 56
2, 41495, Control_c, 0, 64, 55
2, 41533, Control_c, 0, 64, 54
2, 41573, Control_c, 0, 64, 53
2, 41593, Note_on_c, 0, 73, 86
2, 41611, Control_c, 0, 64, 52
2, 41707, Control_c, 0, 64, 51
2, 41725, Control_c, 0, 64, 50
2, 41747, Control_c, 0, 64, 49
2, 41763, Control_c, 0, 64, 48
2, 41783, Control_c, 0, 64, 45
2, 41801, Control_c, 0, 64, 39
2, 41820, Control_c, 0, 64, 33
2, 41841, Control_c, 0, 64, 26
2, 41850, Note_on_c, 0, 45, 0
2, 41854, Note_on_c, 0, 46, 56
2, 41854, Note_on_c, 0, 74, 83
2, 41858, Note_on_c, 0, 71, 0
2, 41861, Control_c, 0, 64, 17
2, 41879, Control_c, 0, 64, 12
2, 41899, Control_c, 0, 64, 11
2, 41919, Control_c, 0, 64, 16
2, 41924, Note_on_c, 0, 73, 0
2, 41938, Control_c, 0, 64, 30
2, 41958, Control_c, 0, 64, 40
2, 41975, Control_c, 0, 64, 47
2, 41995, Control_c, 0, 64, 52
2, 42012, Control_c, 0, 64, 54
2, 42032, Control_c, 0, 64, 55
2, 42052, Control_c, 0, 64, 56
2, 42073, Control_c, 0, 64, 57
2, 42093, Note_on_c, 0, 77, 82
2, 42166, Note_on_c, 0, 74, 0
2, 42244, Control_c, 0, 64, 56
2, 42264, Control_c, 0, 64, 55
2, 42283, Control_c, 0, 64, 51
2, 42301, Control_c, 0, 64, 46
2, 42319, Control_c, 0, 64, 39
2, 42324, Note_on_c, 0, 69, 66
2, 42342, Control_c, 0, 64, 33
2, 42346, Note_on_c, 0, 50, 55
2, 42365, Control_c, 0, 64, 30
2, 42401, Control_c, 0, 64, 35
2, 42414, Note_on_c, 0, 46, 0
2, 42419, Control_c, 0, 64, 45
2, 42437, Control_c, 0, 64, 54
2, 42455, Control_c, 0, 64, 58
2, 42462, Note_on_c, 0, 53, 0
2, 42474, Control_c, 0, 64, 61
2, 42495, Control_c, 0, 64, 63
2, 42514, Control_c, 0, 64, 65
2, 42519, Note_on_c, 0, 69, 0
2, 42532, Control_c, 0, 64, 67
2, 42552, Control_c, 0, 64, 70
2, 42572, Control_c, 0, 64, 74
2, 42583, Note_on_c, 0, 72, 78
2, 42589, Control_c, 0, 64, 77
2, 42608, Control_c, 0, 64, 78
2, 42628, Control_c, 0, 64, 77
2, 42639, Note_on_c, 0, 77, 0
2, 42705, Control_c, 0, 64, 76
2, 42723, Control_c, 0, 64, 75
2, 42743, Control_c, 0, 64, 73
2, 42765, Control_c, 0, 64, 69
2, 42783, Control_c, 0, 64, 67
2, 42802, Control_c, 0, 64, 65
2, 42821, Control_c, 0, 64, 63
2, 42840, Control_c, 0, 64, 61
2, 42862, Control_c, 0, 64, 59
2, 42875, Note_on_c, 0, 55, 50
2, 42884, Control_c, 0, 64, 57
2, 42884, Note_on_c, 0, 43, 55
2, 42884, Note_on_c, 0, 70, 69
2, 42900, Control_c, 0, 64, 55
2, 42916, Control_c, 0, 64, 51
2, 42936, Control_c, 0, 64, 47
2, 42940, Note_on_c, 0, 50, 0
2, 42940, Note_on_c, 0, 72, 0
2, 42956, Control_c, 0, 64, 41
2, 42973, Control_c, 0, 64, 36
2, 42994, Control_c, 0, 64, 33
2, 43011, Control_c, 0, 64, 31
2, 43050, Control_c, 0, 64, 30
2, 43179, Note_on_c, 0, 77, 70
2, 43203, Control_c, 0, 64, 31
2, 43223, Control_c, 0, 64, 32
2, 43241, Control_c, 0, 64, 33
2, 43262, Control_c, 0, 64, 35
2, 43282, Control_c, 0, 64, 38
2, 43302, Control_c, 0, 64, 40
2, 43318, Control_c, 0, 64, 42
2, 43338, Control_c, 0, 64, 45
2, 43358, Control_c, 0, 64, 47
2, 43379, Control_c, 0, 64, 50
2, 43396, Control_c, 0, 64, 52
2, 43415, Control_c, 0, 64, 53
2, 43421, Note_on_c, 0, 75, 76
2, 43438, Control_c, 0, 64, 54
2, 43454, Control_c, 0, 64, 55
2, 43473, Note_on_c, 0, 77, 0
2, 43477, Control_c, 0, 64, 57
2, 43510, Control_c, 0, 64, 58
2, 43533, Control_c, 0, 64, 59
2, 43606, Control_c, 0, 64, 60
2, 43647, Note_on_c, 0, 74, 85
2, 43667, Control_c, 0, 64, 59
2, 43694, Note_on_c, 0, 75, 0
2, 43801, Control_c, 0, 64, 58
2, 43836, Control_c, 0, 64, 57
2, 43856, Control_c, 0, 64, 55
2, 43875, Control_c, 0, 64, 51
2, 43897, Control_c, 0, 64, 47
2, 43915, Control_c, 0, 64, 43
2, 43936, Control_c, 0, 64, 38
2, 43936, Note_on_c, 0, 75, 76
2, 43953, Control_c, 0, 64, 30
2, 43973, Control_c, 0, 64, 16
2, 43991, Control_c, 0, 64, 0
2, 44035, Note_on_c, 0, 74, 0
2, 44089, Control_c, 0, 64, 13
2, 44107, Control_c, 0, 64, 30
2, 44125, Control_c, 0, 64, 40
2, 44145, Control_c, 0, 64, 47
2, 44163, Control_c, 0, 64, 53
2, 44183, Control_c, 0, 64, 57
2, 44197, Note_on_c, 0, 79, 82
2, 44206, Control_c, 0, 64, 59
2, 44224, Control_c, 0, 64, 60
2, 44224, Note_on_c, 0, 75, 0
2, 44242, Control_c, 0, 64, 62
2, 44260, Control_c, 0, 64, 64
2, 44280, Control_c, 0, 64, 67
2, 44299, Control_c, 0, 64, 70
2, 44319, Control_c, 0, 64, 73
2, 44339, Control_c, 0, 64, 76
2, 44355, Control_c, 0, 64, 77
2, 44383, Note_on_c, 0, 79, 0
2, 44415, Control_c, 0, 64, 78
2, 44435, Note_on_c, 0, 70, 0
2, 44435, Note_on_c, 0, 73, 78
2, 44452, Control_c, 0, 64, 79
2, 44510, Note_on_c, 0, 43, 0
2, 44605, Control_c, 0, 64, 78
2, 44666, Note_on_c, 0, 74, 83
2, 44681, Note_on_c, 0, 73, 0
2, 44702, Control_c, 0, 64, 76
2, 44720, Control_c, 0, 64, 75
2, 44739, Control_c, 0, 64, 73
2, 44781, Control_c, 0, 64, 72
2, 44796, Control_c, 0, 64, 71
2, 44817, Control_c, 0, 64, 69
2, 44837, Control_c, 0, 64, 66
2, 44855, Control_c, 0, 64, 64
2, 44875, Control_c, 0, 64, 62
2, 44893, Control_c, 0, 64, 61
2, 44913, Control_c, 0, 64, 60
2, 44932, Control_c, 0, 64, 58
2, 44938, Note_on_c, 0, 73, 80
2, 44943, Note_on_c, 0, 45, 47
2, 44952, Control_c, 0, 64, 55
2, 44970, Control_c, 0, 64, 52
2, 44989, Control_c, 0, 64, 49
2, 45009, Control_c, 0, 64, 45
2, 45020, Note_on_c, 0, 74, 0
2, 45029, Control_c, 0, 64, 41
2, 45050, Control_c, 0, 64, 37
2, 45067, Control_c, 0, 64, 33
2, 45086, Control_c, 0, 64, 31
2, 45104, Control_c, 0, 64, 30
2, 45142, Control_c, 0, 64, 29
2, 45233, Note_on_c, 0, 70, 58
2, 45465, Note_on_c, 0, 70, 0
2, 45470, Note_on_c, 0, 55, 0
2, 45477, Note_on_c, 0, 69, 49
2, 45720, Note_on_c, 0, 55, 53
2, 45913, Note_on_c, 0, 69, 0
2, 45981, Note_on_c, 0, 54, 56
2, 46099, Note_on_c, 0, 55, 0
2, 46194, Note_on_c, 0, 69, 55
2, 46466, Note_on_c, 0, 74, 69
2, 46488, Note_on_c, 0, 53, 44
2, 46537, Note_on_c, 0, 73, 0
2, 46541, Note_on_c, 0, 69, 0
2, 46558, Note_on_c, 0, 54, 0
2, 46709, Note_on_c, 0, 68, 54
2, 46951, Note_on_c, 0, 74, 0
2, 46964, Note_on_c, 0, 69, 54
2, 46970, Note_on_c, 0, 68, 0
2, 46972, Note_on_c, 0, 52, 41
2, 47012, Note_on_c, 0, 53, 0
2, 47219, Note_on_c, 0, 74, 67
2, 47452, Note_on_c, 0, 50, 53
2, 47456, Note_on_c, 0, 73, 70
2, 47488, Note_on_c, 0, 45, 0
2, 47488, Note_on_c, 0, 52, 0
2, 47503, Note_on_c, 0, 74, 0
2, 47692, Note_on_c, 0, 71, 69
2, 47706, Note_on_c, 0, 73, 0
2, 47942, Note_on_c, 0, 50, 0
2, 47953, Note_on_c, 0, 52, 52
2, 47966, Note_on_c, 0, 45, 44
2, 47966, Note_on_c, 0, 73, 68
2, 47984, Note_on_c, 0, 69, 0
2, 48172, Note_on_c, 0, 71, 0
2, 48204, Note_on_c, 0, 74, 64
2, 48273, Note_on_c, 0, 73, 0
2, 48285, Note_on_c, 0, 52, 0
2, 48407, Control_c, 0, 64, 28
2, 48427, Control_c, 0, 64, 27
2, 48445, Control_c, 0, 64, 26
2, 48466, Control_c, 0, 64, 25
2, 48470, Note_on_c, 0, 76, 63
2, 48492, Note_on_c, 0, 57, 47
2, 48503, Control_c, 0, 64, 26
2, 48512, Note_on_c, 0, 74, 0
2, 48523, Control_c, 0, 64, 31
2, 48542, Control_c, 0, 64, 41
2, 48561, Control_c, 0, 64, 52
2, 48579, Control_c, 0, 64, 58
2, 48599, Control_c, 0, 64, 61
2, 48608, Note_on_c, 0, 45, 0
2, 48619, Control_c, 0, 64, 64
2, 48636, Control_c, 0, 64, 69
2, 48659, Control_c, 0, 64, 79
2, 48677, Control_c, 0, 64, 98
2, 48696, Control_c, 0, 64, 127
2, 48745, Note_on_c, 0, 67, 56
2, 48827, Note_on_c, 0, 67, 0
2, 48983, Control_c, 0, 64, 120
2, 49001, Control_c, 0, 64, 97
2, 49022, Control_c, 0, 64, 82
2, 49044, Control_c, 0, 64, 70
2, 49061, Control_c, 0, 64, 63
2, 49066, Note_on_c, 0, 65, 47
2, 49070, Note_on_c, 0, 50, 34
2, 49079, Control_c, 0, 64, 57
2, 49097, Control_c, 0, 64, 51
2, 49118, Control_c, 0, 64, 48
2, 49139, Control_c, 0, 64, 46
2, 49155, Control_c, 0, 64, 43
2, 49175, Control_c, 0, 64, 41
2, 49195, Control_c, 0, 64, 37
2, 49214, Control_c, 0, 64, 35
2, 49232, Control_c, 0, 64, 34
2, 49252, Control_c, 0, 64, 35
2, 49272, Control_c, 0, 64, 40
2, 49289, Control_c, 0, 64, 48
2, 49309, Control_c, 0, 64, 55
2, 49329, Control_c, 0, 64, 59
2, 49340, Note_on_c, 0, 69, 49
2, 49344, Note_on_c, 0, 76, 0
2, 49350, Control_c, 0, 64, 61
2, 49368, Control_c, 0, 64, 63
2, 49385, Control_c, 0, 64, 65
2, 49406, Control_c, 0, 64, 67
2, 49427, Control_c, 0, 64, 70
2, 49443, Control_c, 0, 64, 74
2, 49463, Control_c, 0, 64, 77
2, 49483, Control_c, 0, 64, 78
2, 49521, Control_c, 0, 64, 77
2, 49541, Control_c, 0, 64, 76
2, 49579, Control_c, 0, 64, 75
2, 49583, Note_on_c, 0, 74, 61
2, 49596, Control_c, 0, 64, 74
2, 49606, Note_on_c, 0, 58, 45
2, 49618, Control_c, 0, 64, 71
2, 49636, Control_c, 0, 64, 68
2, 49658, Control_c, 0, 64, 65
2, 49674, Control_c, 0, 64, 63
2, 49693, Control_c, 0, 64, 62
2, 49713, Control_c, 0, 64, 61
2, 49734, Control_c, 0, 64, 60
2, 49754, Control_c, 0, 64, 59
2, 49754, Note_on_c, 0, 57, 0
2, 49770, Control_c, 0, 64, 58
2, 49790, Control_c, 0, 64, 57
2, 49808, Control_c, 0, 64, 56
2, 49830, Control_c, 0, 64, 55
2, 49834, Note_on_c, 0, 73, 75
2, 49847, Control_c, 0, 64, 54
2, 49867, Control_c, 0, 64, 53
2, 49871, Note_on_c, 0, 74, 0
2, 49885, Control_c, 0, 64, 52
2, 49905, Control_c, 0, 64, 51
2, 49924, Control_c, 0, 64, 50
2, 49946, Control_c, 0, 64, 49
2, 49966, Control_c, 0, 64, 48
2, 49966, Note_on_c, 0, 65, 0
2, 49975, Note_on_c, 0, 69, 0
2, 49985, Control_c, 0, 64, 47
2, 50040, Control_c, 0, 64, 46
2, 50111, Note_on_c, 0, 57, 46
2, 50126, Note_on_c, 0, 74, 66
2, 50166, Note_on_c, 0, 58, 0
2, 50173, Control_c, 0, 64, 45
2, 50215, Note_on_c, 0, 73, 0
2, 50374, Note_on_c, 0, 65, 52
2, 50423, Control_c, 0, 64, 46
2, 50468, Note_on_c, 0, 65, 0
2, 50501, Control_c, 0, 64, 45
2, 50522, Control_c, 0, 64, 44
2, 50537, Control_c, 0, 64, 43
2, 50557, Control_c, 0, 64, 41
2, 50577, Control_c, 0, 64, 40
2, 50614, Control_c, 0, 64, 45
2, 50623, Note_on_c, 0, 70, 66
2, 50627, Note_on_c, 0, 57, 0
2, 50631, Note_on_c, 0, 55, 45
2, 50636, Control_c, 0, 64, 52
2, 50636, Note_on_c, 0, 74, 0
2, 50657, Control_c, 0, 64, 58
2, 50673, Control_c, 0, 64, 61
2, 50693, Control_c, 0, 64, 63
2, 50711, Control_c, 0, 64, 65
2, 50731, Control_c, 0, 64, 69
2, 50749, Control_c, 0, 64, 78
2, 50768, Control_c, 0, 64, 90
2, 50790, Control_c, 0, 64, 102
2, 50810, Control_c, 0, 64, 113
2, 50826, Control_c, 0, 64, 127
2, 50870, Note_on_c, 0, 76, 79
2, 50942, Note_on_c, 0, 70, 0
2, 50980, Control_c, 0, 64, 116
2, 50998, Control_c, 0, 64, 106
2, 51019, Control_c, 0, 64, 101
2, 51038, Control_c, 0, 64, 93
2, 51056, Control_c, 0, 64, 86
2, 51077, Control_c, 0, 64, 78
2, 51097, Control_c, 0, 64, 70
2, 51114, Control_c, 0, 64, 65
2, 51125, Note_on_c, 0, 77, 73
2, 51133, Control_c, 0, 64, 62
2, 51137, Note_on_c, 0, 69, 51
2, 51150, Note_on_c, 0, 55, 0
2, 51154, Control_c, 0, 64, 60
2, 51160, Note_on_c, 0, 53, 39
2, 51174, Control_c, 0, 64, 59
2, 51185, Note_on_c, 0, 76, 0
2, 51194, Control_c, 0, 64, 57
2, 51211, Control_c, 0, 64, 55
2, 51230, Control_c, 0, 64, 53
2, 51249, Control_c, 0, 64, 51
2, 51266, Control_c, 0, 64, 50
2, 51286, Control_c, 0, 64, 49
2, 51306, Control_c, 0, 64, 48
2, 51343, Control_c, 0, 64, 47
2, 51359, Note_on_c, 0, 55, 46
2, 51403, Note_on_c, 0, 53, 0
2, 51499, Control_c, 0, 64, 46
2, 51596, Note_on_c, 0, 55, 0
2, 51618, Note_on_c, 0, 50, 0
2, 51622, Note_on_c, 0, 57, 51
2, 51645, Note_on_c, 0, 69, 0
2, 51709, Control_c, 0, 64, 45
2, 51863, Note_on_c, 0, 69, 56
2, 51870, Note_on_c, 0, 48, 58
2, 51968, Note_on_c, 0, 69, 0
2, 51984, Note_on_c, 0, 48, 0
2, 52127, Note_on_c, 0, 47, 55
2, 52133, Note_on_c, 0, 74, 68
2, 52195, Note_on_c, 0, 77, 0
2, 52374, Note_on_c, 0, 56, 63
2, 52378, Note_on_c, 0, 76, 73
2, 52428, Note_on_c, 0, 57, 0
2, 52572, Control_c, 0, 64, 46
2, 52606, Note_on_c, 0, 77, 76
2, 52613, Control_c, 0, 64, 47
2, 52626, Note_on_c, 0, 47, 0
2, 52629, Note_on_c, 0, 57, 61
2, 52643, Note_on_c, 0, 56, 0
2, 52657, Note_on_c, 0, 74, 0
2, 52670, Control_c, 0, 64, 48
2, 52679, Note_on_c, 0, 76, 0
2, 52849, Note_on_c, 0, 74, 70
2, 52858, Note_on_c, 0, 45, 57
2, 52887, Note_on_c, 0, 77, 0
2, 52926, Note_on_c, 0, 45, 0
2, 53094, Note_on_c, 0, 57, 0
2, 53116, Note_on_c, 0, 44, 57
2, 53121, Note_on_c, 0, 76, 77
2, 53156, Note_on_c, 0, 74, 0
2, 53167, Control_c, 0, 64, 47
2, 53392, Note_on_c, 0, 52, 54
2, 53392, Note_on_c, 0, 74, 60
2, 53561, Note_on_c, 0, 44, 0
2, 53598, Note_on_c, 0, 52, 0
2, 53622, Note_on_c, 0, 54, 58
2, 53622, Note_on_c, 0, 72, 66
2, 53680, Note_on_c, 0, 74, 0
2, 53772, Note_on_c, 0, 76, 0
2, 53853, Note_on_c, 0, 56, 60
2, 53857, Note_on_c, 0, 54, 0
2, 53860, Note_on_c, 0, 71, 71
2, 53889, Note_on_c, 0, 72, 0
2, 54086, Note_on_c, 0, 71, 0
2, 54106, Note_on_c, 0, 56, 0
2, 54119, Note_on_c, 0, 57, 55
2, 54123, Note_on_c, 0, 72, 70
2, 54151, Control_c, 0, 64, 46
2, 54365, Note_on_c, 0, 76, 73
2, 54368, Note_on_c, 0, 48, 44
2, 54585, Note_on_c, 0, 48, 0
2, 54596, Note_on_c, 0, 53, 54
2, 54607, Note_on_c, 0, 81, 77
2, 54719, Note_on_c, 0, 76, 0
2, 54830, Note_on_c, 0, 52, 55
2, 54835, Note_on_c, 0, 53, 0
2, 54844, Note_on_c, 0, 80, 77
2, 54893, Note_on_c, 0, 81, 0
2, 54982, Note_on_c, 0, 57, 0
2, 55093, Note_on_c, 0, 81, 66
2, 55108, Note_on_c, 0, 52, 0
2, 55111, Note_on_c, 0, 80, 0
2, 55119, Note_on_c, 0, 53, 55
2, 55278, Note_on_c, 0, 72, 0
2, 55365, Note_on_c, 0, 73, 58
2, 55414, Note_on_c, 0, 57, 17
2, 55599, Note_on_c, 0, 74, 68
2, 55617, Note_on_c, 0, 59, 63
2, 55652, Note_on_c, 0, 57, 0
2, 55652, Note_on_c, 0, 57, 13
2, 55652, Note_on_c, 0, 73, 0
2, 55737, Note_on_c, 0, 57, 0
2, 55755, Note_on_c, 0, 74, 0
2, 55826, Note_on_c, 0, 76, 68
2, 55837, Control_c, 0, 64, 47
2, 55853, Note_on_c, 0, 61, 55
2, 55878, Note_on_c, 0, 59, 0
2, 56065, Note_on_c, 0, 76, 0
2, 56089, Note_on_c, 0, 69, 58
2, 56096, Note_on_c, 0, 61, 0
2, 56100, Note_on_c, 0, 62, 58
2, 56127, Note_on_c, 0, 53, 0
2, 56163, Note_on_c, 0, 81, 0
2, 56338, Note_on_c, 0, 52, 52
2, 56342, Note_on_c, 0, 79, 72
2, 56573, Note_on_c, 0, 52, 0
2, 56589, Control_c, 0, 64, 46
2, 56589, Note_on_c, 0, 81, 79
2, 56594, Note_on_c, 0, 53, 65
2, 56605, Control_c, 0, 64, 45
2, 56627, Control_c, 0, 64, 44
2, 56643, Control_c, 0, 64, 41
2, 56663, Control_c, 0, 64, 34
2, 56682, Control_c, 0, 64, 0
2, 56738, Note_on_c, 0, 79, 0
2, 56780, Control_c, 0, 64, 28
2, 56797, Control_c, 0, 64, 50
2, 56814, Note_on_c, 0, 53, 0
2, 56816, Control_c, 0, 64, 64
2, 56823, Note_on_c, 0, 50, 68
2, 56823, Note_on_c, 0, 77, 82
2, 56836, Control_c, 0, 64, 70
2, 56857, Control_c, 0, 64, 86
2, 56863, Note_on_c, 0, 81, 0
2, 56874, Control_c, 0, 64, 127
2, 56879, Note_on_c, 0, 50, 0
2, 56905, Note_on_c, 0, 77, 0
2, 57079, Note_on_c, 0, 74, 80
2, 57097, Note_on_c, 0, 62, 0
2, 57108, Control_c, 0, 64, 99
2, 57108, Note_on_c, 0, 58, 63
2, 57119, Note_on_c, 0, 69, 0
2, 57123, Control_c, 0, 64, 83
2, 57144, Control_c, 0, 64, 73
2, 57164, Control_c, 0, 64, 66
2, 57184, Control_c, 0, 64, 62
2, 57202, Control_c, 0, 64, 59
2, 57220, Control_c, 0, 64, 56
2, 57240, Control_c, 0, 64, 54
2, 57258, Control_c, 0, 64, 53
2, 57278, Control_c, 0, 64, 52
2, 57295, Control_c, 0, 64, 51
2, 57315, Control_c, 0, 64, 49
2, 57324, Note_on_c, 0, 66, 66
2, 57336, Control_c, 0, 64, 47
2, 57340, Note_on_c, 0, 62, 65
2, 57358, Control_c, 0, 64, 45
2, 57412, Control_c, 0, 64, 44
2, 57526, Control_c, 0, 64, 43
2, 57548, Note_on_c, 0, 62, 0
2, 57554, Note_on_c, 0, 66, 0
2, 57568, Note_on_c, 0, 64, 61
2, 57568, Note_on_c, 0, 67, 71
2, 57784, Note_on_c, 0, 67, 0
2, 57795, Note_on_c, 0, 64, 0
2, 57806, Note_on_c, 0, 66, 69
2, 57806, Note_on_c, 0, 69, 72
2, 57859, Note_on_c, 0, 74, 0
2, 58074, Note_on_c, 0, 69, 0
2, 58090, Note_on_c, 0, 70, 81
2, 58096, Note_on_c, 0, 67, 54
2, 58145, Note_on_c, 0, 66, 0
2, 58347, Note_on_c, 0, 77, 76
2, 58591, Note_on_c, 0, 76, 76
2, 58741, Note_on_c, 0, 77, 0
2, 58796, Note_on_c, 0, 67, 0
2, 58819, Note_on_c, 0, 79, 78
2, 58834, Note_on_c, 0, 65, 43
2, 58857, Note_on_c, 0, 76, 0
2, 58878, Note_on_c, 0, 70, 0
2, 59017, Note_on_c, 0, 58, 0
2, 59025, Note_on_c, 0, 65, 0
2, 59068, Note_on_c, 0, 72, 69
2, 59072, Note_on_c, 0, 79, 0
2, 59089, Note_on_c, 0, 64, 53
2, 59326, Note_on_c, 0, 57, 53
2, 59510, Note_on_c, 0, 57, 0
2, 59556, Note_on_c, 0, 70, 60
2, 59569, Note_on_c, 0, 55, 46
2, 59743, Note_on_c, 0, 55, 0
2, 59802, Note_on_c, 0, 58, 52
2, 59998, Note_on_c, 0, 58, 0
2, 60026, Note_on_c, 0, 70, 0
2, 60048, Note_on_c, 0, 64, 0
2, 60052, Note_on_c, 0, 57, 52
2, 60341, Note_on_c, 0, 60, 43
2, 60341, Note_on_c, 0, 69, 47
2, 60423, Note_on_c, 0, 69, 0
2, 60426, Note_on_c, 0, 60, 0
2, 60430, Note_on_c, 0, 67, 58
2, 60473, Note_on_c, 0, 72, 0
2, 60549, Note_on_c, 0, 69, 51
2, 60569, Note_on_c, 0, 67, 0
2, 60574, Note_on_c, 0, 65, 47
2, 60807, Note_on_c, 0, 75, 62
2, 60811, Note_on_c, 0, 69, 0
2, 60820, Note_on_c, 0, 72, 58
2, 61045, Note_on_c, 0, 72, 0
2, 61079, Note_on_c, 0, 74, 61
2, 61083, Note_on_c, 0, 70, 44
2, 61134, Note_on_c, 0, 75, 0
2, 61303, Note_on_c, 0, 57, 0
2, 61318, Note_on_c, 0, 55, 48
2, 61336, Note_on_c, 0, 65, 0
2, 61549, Note_on_c, 0, 55, 0
2, 61569, Note_on_c, 0, 53, 52
2, 61780, Note_on_c, 0, 53, 0
2, 61798, Note_on_c, 0, 57, 55
2, 61873, Note_on_c, 0, 57, 0
2, 62041, Note_on_c, 0, 55, 47
2, 62041, Note_on_c, 0, 58, 43
2, 62058, Control_c, 0, 64, 44
2, 62071, Note_on_c, 0, 70, 0
2, 62080, Control_c, 0, 64, 48
2, 62098, Control_c, 0, 64, 54
2, 62114, Control_c, 0, 64, 57
2, 62135, Control_c, 0, 64, 59
2, 62154, Control_c, 0, 64, 61
2, 62175, Control_c, 0, 64, 63
2, 62188, Note_on_c, 0, 55, 0
2, 62192, Control_c, 0, 64, 65
2, 62213, Control_c, 0, 64, 68
2, 62231, Control_c, 0, 64, 73
2, 62251, Control_c, 0, 64, 79
2, 62269, Control_c, 0, 64, 83
2, 62289, Control_c, 0, 64, 84
2, 62317, Note_on_c, 0, 77, 67
2, 62326, Control_c, 0, 64, 83
2, 62353, Note_on_c, 0, 74, 0
2, 62373, Note_on_c, 0, 58, 0
2, 62403, Control_c, 0, 64, 82
2, 62423, Control_c, 0, 64, 80
2, 62445, Control_c, 0, 64, 77
2, 62461, Control_c, 0, 64, 73
2, 62480, Control_c, 0, 64, 70
2, 62498, Control_c, 0, 64, 67
2, 62518, Control_c, 0, 64, 64
2, 62536, Control_c, 0, 64, 61
2, 62556, Control_c, 0, 64, 58
2, 62576, Control_c, 0, 64, 55
2, 62585, Note_on_c, 0, 55, 35
2, 62590, Note_on_c, 0, 70, 49
2, 62599, Control_c, 0, 64, 51
2, 62599, Note_on_c, 0, 48, 38
2, 62599, Note_on_c, 0, 60, 39
2, 62616, Control_c, 0, 64, 47
2, 62633, Control_c, 0, 64, 43
2, 62652, Control_c, 0, 64, 40
2, 62690, Control_c, 0, 64, 41
2, 62710, Control_c, 0, 64, 46
2, 62729, Control_c, 0, 64, 55
2, 62749, Control_c, 0, 64, 59
2, 62769, Control_c, 0, 64, 61
2, 62782, Note_on_c, 0, 48, 0
2, 62791, Control_c, 0, 64, 63
2, 62809, Control_c, 0, 64, 65
2, 62826, Control_c, 0, 64, 68
2, 62837, Note_on_c, 0, 77, 0
2, 62847, Control_c, 0, 64, 73
2, 62851, Note_on_c, 0, 76, 62
2, 62866, Control_c, 0, 64, 81
2, 62879, Note_on_c, 0, 70, 0
2, 62885, Control_c, 0, 64, 87
2, 62903, Control_c, 0, 64, 90
2, 62979, Control_c, 0, 64, 89
2, 62999, Control_c, 0, 64, 88
2, 63017, Control_c, 0, 64, 85
2, 63037, Control_c, 0, 64, 81
2, 63056, Control_c, 0, 64, 75
2, 63074, Control_c, 0, 64, 69
2, 63094, Control_c, 0, 64, 64
2, 63115, Control_c, 0, 64, 61
2, 63132, Control_c, 0, 64, 58
2, 63153, Control_c, 0, 64, 56
2, 63171, Note_on_c, 0, 53, 43
2, 63173, Control_c, 0, 64, 53
2, 63179, Note_on_c, 0, 77, 64
2, 63190, Control_c, 0, 64, 49
2, 63210, Control_c, 0, 64, 45
2, 63220, Note_on_c, 0, 76, 0
2, 63231, Control_c, 0, 64, 41
2, 63244, Note_on_c, 0, 55, 0
2, 63249, Control_c, 0, 64, 36
2, 63267, Control_c, 0, 64, 32
2, 63287, Control_c, 0, 64, 30
2, 63305, Control_c, 0, 64, 29
2, 63364, Control_c, 0, 64, 32
2, 63382, Control_c, 0, 64, 39
2, 63405, Control_c, 0, 64, 48
2, 63422, Control_c, 0, 64, 54
2, 63440, Control_c, 0, 64, 57
2, 63462, Control_c, 0, 64, 58
2, 63468, Note_on_c, 0, 67, 50
2, 63481, Control_c, 0, 64, 60
2, 63497, Control_c, 0, 64, 61
2, 63519, Control_c, 0, 64, 63
2, 63556, Control_c, 0, 64, 64
2, 63570, Note_on_c, 0, 67, 0
2, 63593, Control_c, 0, 64, 65
2, 63725, Note_on_c, 0, 69, 66
2, 63775, Note_on_c, 0, 77, 0
2, 63901, Control_c, 0, 64, 64
2, 63950, Note_on_c, 0, 60, 0
2, 63965, Note_on_c, 0, 72, 79
2, 63975, Note_on_c, 0, 57, 51
2, 63997, Control_c, 0, 64, 63
2, 64055, Control_c, 0, 64, 62
2, 64074, Control_c, 0, 64, 61
2, 64093, Control_c, 0, 64, 60
2, 64131, Control_c, 0, 64, 59
2, 64150, Control_c, 0, 64, 57
2, 64169, Control_c, 0, 64, 55
2, 64190, Control_c, 0, 64, 51
2, 64207, Control_c, 0, 64, 47
2, 64228, Control_c, 0, 64, 43
2, 64249, Control_c, 0, 64, 33
2, 64249, Note_on_c, 0, 57, 0
2, 64258, Note_on_c, 0, 77, 74
2, 64268, Control_c, 0, 64, 14
2, 64268, Note_on_c, 0, 62, 52
2, 64285, Control_c, 0, 64, 0
2, 64374, Note_on_c, 0, 72, 0
2, 64419, Control_c, 0, 64, 39
2, 64438, Control_c, 0, 64, 54
2, 64456, Control_c, 0, 64, 62
2, 64478, Control_c, 0, 64, 66
2, 64495, Control_c, 0, 64, 72
2, 64512, Note_on_c, 0, 81, 83
2, 64516, Control_c, 0, 64, 100
2, 64535, Control_c, 0, 64, 127
2, 64546, Note_on_c, 0, 77, 0
2, 64570, Note_on_c, 0, 81, 0
2, 64575, Note_on_c, 0, 69, 0
2, 64768, Note_on_c, 0, 74, 86
2, 64772, Note_on_c, 0, 65, 68
2, 65008, Note_on_c, 0, 77, 90
2, 65046, Note_on_c, 0, 65, 0
2, 65084, Note_on_c, 0, 74, 0
2, 65131, Control_c, 0, 64, 113
2, 65151, Control_c, 0, 64, 102
2, 65168, Control_c, 0, 64, 93
2, 65179, Note_on_c, 0, 53, 0
2, 65190, Control_c, 0, 64, 86
2, 65205, Control_c, 0, 64, 82
2, 65227, Control_c, 0, 64, 81
2, 65231, Note_on_c, 0, 67, 74
2, 65234, Note_on_c, 0, 71, 82
2, 65244, Control_c, 0, 64, 78
2, 65263, Control_c, 0, 64, 76
2, 65283, Control_c, 0, 64, 71
2, 65293, Note_on_c, 0, 77, 0
2, 65302, Control_c, 0, 64, 67
2, 65322, Control_c, 0, 64, 65
2, 65340, Control_c, 0, 64, 64
2, 65419, Control_c, 0, 64, 63
2, 65439, Control_c, 0, 64, 62
2, 65456, Control_c, 0, 64, 61
2, 65472, Note_on_c, 0, 67, 0
2, 65476, Control_c, 0, 64, 59
2, 65484, Note_on_c, 0, 74, 79
2, 65489, Note_on_c, 0, 53, 57
2, 65494, Control_c, 0, 64, 58
2, 65517, Control_c, 0, 64, 57
2, 65521, Note_on_c, 0, 62, 0
2, 65534, Control_c, 0, 64, 55
2, 65553, Control_c, 0, 64, 54
2, 65571, Control_c, 0, 64, 53
2, 65592, Control_c, 0, 64, 51
2, 65612, Control_c, 0, 64, 50
2, 65630, Control_c, 0, 64, 49
2, 65651, Control_c, 0, 64, 48
2, 65667, Control_c, 0, 64, 47
2, 65705, Control_c, 0, 64, 46
2, 65718, Note_on_c, 0, 71, 0
2, 65735, Note_on_c, 0, 52, 62
2, 65738, Note_on_c, 0, 79, 79
2, 65746, Control_c, 0, 64, 45
2, 65746, Note_on_c, 0, 53, 0
2, 65772, Note_on_c, 0, 74, 0
2, 65962, Note_on_c, 0, 52, 0
2, 65969, Note_on_c, 0, 50, 63
2, 65969, Note_on_c, 0, 71, 68
2, 66032, Control_c, 0, 64, 44
2, 66225, Note_on_c, 0, 73, 70
2, 66230, Note_on_c, 0, 52, 68
2, 66234, Note_on_c, 0, 55, 51
2, 66252, Note_on_c, 0, 50, 0
2, 66267, Note_on_c, 0, 79, 0
2, 66289, Note_on_c, 0, 71, 0
2, 66359, Control_c, 0, 64, 43
2, 66424, Note_on_c, 0, 55, 0
2, 66476, Note_on_c, 0, 79, 82
2, 66568, Note_on_c, 0, 73, 0
2, 66609, Control_c, 0, 64, 42
2, 66686, Control_c, 0, 64, 41
2, 66690, Note_on_c, 0, 52, 0
2, 66705, Control_c, 0, 64, 39
2, 66721, Note_on_c, 0, 77, 82
2, 66722, Note_on_c, 0, 57, 59
2, 66723, Note_on_c, 0, 45, 54
2, 66727, Control_c, 0, 64, 36
2, 66742, Control_c, 0, 64, 33
2, 66761, Control_c, 0, 64, 29
2, 66781, Control_c, 0, 64, 23
2, 66790, Note_on_c, 0, 79, 0
2, 66800, Control_c, 0, 64, 15
2, 66821, Control_c, 0, 64, 0
2, 66857, Control_c, 0, 64, 18
2, 66877, Control_c, 0, 64, 35
2, 66880, Note_on_c, 0, 45, 0
2, 66897, Control_c, 0, 64, 47
2, 66915, Control_c, 0, 64, 57
2, 66934, Control_c, 0, 64, 62
2, 66955, Control_c, 0, 64, 64
2, 66955, Note_on_c, 0, 76, 84
2, 66975, Control_c, 0, 64, 67
2, 66988, Note_on_c, 0, 77, 0
2, 66992, Control_c, 0, 64, 76
2, 67012, Control_c, 0, 64, 89
2, 67030, Control_c, 0, 64, 104
2, 67051, Control_c, 0, 64, 120
2, 67068, Control_c, 0, 64, 122
2, 67088, Control_c, 0, 64, 120
2, 67108, Control_c, 0, 64, 118
2, 67146, Control_c, 0, 64, 116
2, 67165, Control_c, 0, 64, 113
2, 67185, Control_c, 0, 64, 107
2, 67203, Control_c, 0, 64, 97
2, 67218, Note_on_c, 0, 57, 0
2, 67223, Control_c, 0, 64, 88
2, 67233, Note_on_c, 0, 77, 76
2, 67238, Note_on_c, 0, 50, 50
2, 67244, Control_c, 0, 64, 83
2, 67248, Note_on_c, 0, 74, 58
2, 67249, Note_on_c, 0, 76, 0
2, 67262, Control_c, 0, 64, 78
2, 67280, Control_c, 0, 64, 74
2, 67300, Control_c, 0, 64, 68
2, 67318, Control_c, 0, 64, 64
2, 67338, Control_c, 0, 64, 60
2, 67355, Control_c, 0, 64, 57
2, 67377, Control_c, 0, 64, 56
2, 67396, Control_c, 0, 64, 55
2, 67415, Control_c, 0, 64, 54
2, 67432, Control_c, 0, 64, 52
2, 67453, Control_c, 0, 64, 50
2, 67471, Control_c, 0, 64, 49
2, 67494, Control_c, 0, 64, 47
2, 67494, Note_on_c, 0, 52, 48
2, 67511, Control_c, 0, 64, 46
2, 67568, Control_c, 0, 64, 45
2, 67625, Control_c, 0, 64, 44
2, 67710, Note_on_c, 0, 52, 0
2, 67730, Note_on_c, 0, 53, 54
2, 67846, Note_on_c, 0, 72, 64
2, 67853, Note_on_c, 0, 74, 0
2, 67924, Note_on_c, 0, 53, 0
2, 67960, Note_on_c, 0, 70, 65
2, 67964, Note_on_c, 0, 72, 0
2, 67969, Note_on_c, 0, 57, 53
2, 68069, Note_on_c, 0, 70, 0
2, 68073, Note_on_c, 0, 69, 57
2, 68235, Note_on_c, 0, 70, 56
2, 68249, Note_on_c, 0, 62, 50
2, 68253, Note_on_c, 0, 69, 0
2, 68275, Note_on_c, 0, 57, 0
2, 68354, Note_on_c, 0, 77, 0
2, 68412, Control_c, 0, 64, 43
2, 68535, Note_on_c, 0, 74, 72
2, 68548, Control_c, 0, 64, 44
2, 68567, Control_c, 0, 64, 47
2, 68585, Control_c, 0, 64, 50
2, 68605, Control_c, 0, 64, 55
2, 68605, Note_on_c, 0, 70, 0
2, 68626, Control_c, 0, 64, 57
2, 68644, Control_c, 0, 64, 59
2, 68662, Control_c, 0, 64, 61
2, 68681, Control_c, 0, 64, 62
2, 68701, Control_c, 0, 64, 64
2, 68720, Control_c, 0, 64, 65
2, 68739, Control_c, 0, 64, 67
2, 68757, Control_c, 0, 64, 69
2, 68779, Note_on_c, 0, 77, 78
2, 68783, Control_c, 0, 64, 72
2, 68799, Control_c, 0, 64, 77
2, 68818, Control_c, 0, 64, 83
2, 68835, Control_c, 0, 64, 89
2, 68855, Control_c, 0, 64, 94
2, 68873, Control_c, 0, 64, 95
2, 68899, Note_on_c, 0, 74, 0
2, 68913, Control_c, 0, 64, 96
2, 68933, Control_c, 0, 64, 97
2, 68951, Control_c, 0, 64, 98
2, 68978, Note_on_c, 0, 62, 0
2, 68991, Control_c, 0, 64, 97
2, 69010, Note_on_c, 0, 69, 67
2, 69014, Control_c, 0, 64, 94
2, 69014, Note_on_c, 0, 60, 59
2, 69027, Control_c, 0, 64, 93
2, 69082, Note_on_c, 0, 69, 0
2, 69104, Control_c, 0, 64, 92
2, 69123, Control_c, 0, 64, 90
2, 69142, Control_c, 0, 64, 88
2, 69200, Control_c, 0, 64, 87
2, 69222, Control_c, 0, 64, 86
2, 69226, Note_on_c, 0, 60, 0
2, 69239, Control_c, 0, 64, 83
2, 69259, Control_c, 0, 64, 79
2, 69264, Note_on_c, 0, 50, 0
2, 69264, Note_on_c, 0, 59, 64
2, 69264, Note_on_c, 0, 68, 73
2, 69272, Note_on_c, 0, 77, 0
2, 69279, Control_c, 0, 64, 76
2, 69296, Control_c, 0, 64, 74
2, 69314, Control_c, 0, 64, 71
2, 69334, Control_c, 0, 64, 68
2, 69357, Control_c, 0, 64, 65
2, 69374, Control_c, 0, 64, 64
2, 69394, Control_c, 0, 64, 63
2, 69412, Control_c, 0, 64, 62
2, 69431, Control_c, 0, 64, 61
2, 69449, Control_c, 0, 64, 60
2, 69468, Control_c, 0, 64, 59
2, 69490, Control_c, 0, 64, 58
2, 69508, Control_c, 0, 64, 57
2, 69510, Note_on_c, 0, 77, 72
2, 69523, Note_on_c, 0, 50, 62
2, 69527, Control_c, 0, 64, 56
2, 69544, Control_c, 0, 64, 55
2, 69567, Control_c, 0, 64, 54
2, 69567, Note_on_c, 0, 68, 0
2, 69585, Control_c, 0, 64, 52
2, 69602, Control_c, 0, 64, 51
2, 69622, Control_c, 0, 64, 50
2, 69642, Control_c, 0, 64, 49
2, 69662, Control_c, 0, 64, 48
2, 69678, Control_c, 0, 64, 47
2, 69697, Control_c, 0, 64, 46
2, 69721, Control_c, 0, 64, 45
2, 69759, Control_c, 0, 64, 44
2, 69759, Note_on_c, 0, 76, 73
2, 69770, Note_on_c, 0, 48, 63
2, 69775, Note_on_c, 0, 50, 0
2, 69983, Note_on_c, 0, 77, 0
2, 69991, Note_on_c, 0, 47, 70
2, 69991, Note_on_c, 0, 68, 69
2, 70013, Note_on_c, 0, 48, 0
2, 70170, Note_on_c, 0, 68, 0
2, 70178, Control_c, 0, 64, 43
2, 70217, Note_on_c, 0, 76, 0
2, 70240, Note_on_c, 0, 48, 64
2, 70251, Note_on_c, 0, 69, 68
2, 70288, Note_on_c, 0, 47, 0
2, 70332, Control_c, 0, 64, 42
2, 70489, Note_on_c, 0, 75, 74
2, 70522, Note_on_c, 0, 48, 0
2, 70661, Control_c, 0, 64, 41
2, 70698, Control_c, 0, 64, 40
2, 70717, Control_c, 0, 64, 39
2, 70737, Control_c, 0, 64, 37
2, 70737, Note_on_c, 0, 74, 70
2, 70744, Note_on_c, 0, 53, 65
2, 70758, Control_c, 0, 64, 36
2, 70773, Control_c, 0, 64, 34
2, 70778, Note_on_c, 0, 75, 0
2, 70793, Control_c, 0, 64, 32
2, 70833, Control_c, 0, 64, 31
2, 70987, Note_on_c, 0, 73, 81
2, 70996, Note_on_c, 0, 69, 0
2, 71004, Note_on_c, 0, 74, 0
2, 71102, Control_c, 0, 64, 32
2, 71157, Note_on_c, 0, 59, 0
2, 71174, Note_on_c, 0, 53, 0
2, 71223, Note_on_c, 0, 46, 51
2, 71232, Note_on_c, 0, 74, 71
2, 71257, Note_on_c, 0, 73, 0
2, 71488, Note_on_c, 0, 50, 48
2, 71499, Note_on_c, 0, 72, 63
2, 71724, Note_on_c, 0, 52, 56
2, 71724, Note_on_c, 0, 70, 61
2, 71770, Note_on_c, 0, 72, 0
2, 71859, Note_on_c, 0, 50, 0
2, 71942, Note_on_c, 0, 70, 0
2, 71949, Note_on_c, 0, 54, 61
2, 71960, Note_on_c, 0, 69, 58
2, 71979, Note_on_c, 0, 52, 0
2, 72171, Note_on_c, 0, 54, 0
2, 72196, Note_on_c, 0, 69, 0
2, 72201, Note_on_c, 0, 70, 59
2, 72207, Note_on_c, 0, 55, 53
2, 72408, Note_on_c, 0, 55, 0
2, 72442, Note_on_c, 0, 57, 57
2, 72442, Note_on_c, 0, 66, 64
2, 72471, Note_on_c, 0, 74, 0
2, 72512, Note_on_c, 0, 70, 0
2, 72667, Note_on_c, 0, 57, 0
2, 72696, Note_on_c, 0, 46, 0
2, 72696, Note_on_c, 0, 67, 66
2, 72700, Note_on_c, 0, 58, 62
2, 72751, Note_on_c, 0, 66, 0
2, 72924, Note_on_c, 0, 51, 64
2, 72928, Note_on_c, 0, 74, 80
2, 73017, Note_on_c, 0, 51, 0
2, 73217, Note_on_c, 0, 73, 77
2, 73237, Note_on_c, 0, 45, 46
2, 73237, Note_on_c, 0, 58, 0
2, 73275, Note_on_c, 0, 74, 0
2, 73473, Note_on_c, 0, 57, 57
2, 73652, Note_on_c, 0, 57, 0
2, 73712, Note_on_c, 0, 72, 73
2, 73712, Note_on_c, 0, 73, 0
2, 73716, Note_on_c, 0, 52, 48
2, 73771, Note_on_c, 0, 67, 0
2, 73900, Note_on_c, 0, 52, 0
2, 73950, Note_on_c, 0, 70, 61
2, 73959, Note_on_c, 0, 55, 43
2, 74192, Note_on_c, 0, 54, 54
2, 74196, Note_on_c, 0, 55, 0
2, 74203, Note_on_c, 0, 69, 51
2, 74218, Note_on_c, 0, 70, 0
2, 74429, Note_on_c, 0, 55, 48
2, 74433, Note_on_c, 0, 67, 62
2, 74456, Note_on_c, 0, 54, 0
2, 74480, Note_on_c, 0, 69, 0
2, 74542, Note_on_c, 0, 72, 0
2, 74614, Control_c, 0, 64, 37
2, 74634, Control_c, 0, 64, 44
2, 74638, Note_on_c, 0, 55, 0
2, 74654, Control_c, 0, 64, 50
2, 74665, Note_on_c, 0, 66, 61
2, 74669, Note_on_c, 0, 57, 55
2, 74674, Control_c, 0, 64, 54
2, 74676, Note_on_c, 0, 45, 0
2, 74693, Control_c, 0, 64, 55
2, 74710, Control_c, 0, 64, 57
2, 74729, Control_c, 0, 64, 58
2, 74734, Note_on_c, 0, 66, 0
2, 74750, Control_c, 0, 64, 59
2, 74766, Control_c, 0, 64, 60
2, 74894, Note_on_c, 0, 72, 68
2, 74901, Note_on_c, 0, 63, 51
2, 74911, Note_on_c, 0, 54, 54
2, 74960, Control_c, 0, 64, 59
2, 74992, Note_on_c, 0, 63, 0
2, 75001, Note_on_c, 0, 54, 0
2, 75039, Control_c, 0, 64, 58
2, 75055, Control_c, 0, 64, 57
2, 75075, Control_c, 0, 64, 55
2, 75095, Control_c, 0, 64, 52
2, 75113, Control_c, 0, 64, 48
2, 75131, Control_c, 0, 64, 44
2, 75147, Note_on_c, 0, 57, 0
2, 75151, Control_c, 0, 64, 41
2, 75166, Note_on_c, 0, 71, 67
2, 75171, Control_c, 0, 64, 38
2, 75175, Note_on_c, 0, 43, 46
2, 75175, Note_on_c, 0, 62, 54
2, 75193, Control_c, 0, 64, 37
2, 75208, Control_c, 0, 64, 36
2, 75247, Control_c, 0, 64, 40
2, 75267, Note_on_c, 0, 62, 0
2, 75271, Control_c, 0, 64, 47
2, 75286, Control_c, 0, 64, 53
2, 75295, Note_on_c, 0, 72, 0
2, 75304, Control_c, 0, 64, 56
2, 75324, Control_c, 0, 64, 58
2, 75344, Control_c, 0, 64, 60
2, 75361, Note_on_c, 0, 67, 0
2, 75365, Control_c, 0, 64, 62
2, 75383, Control_c, 0, 64, 63
2, 75402, Control_c, 0, 64, 64
2, 75419, Note_on_c, 0, 71, 0
2, 75423, Control_c, 0, 64, 65
2, 75434, Note_on_c, 0, 64, 60
2, 75441, Control_c, 0, 64, 66
2, 75441, Note_on_c, 0, 55, 48
2, 75461, Control_c, 0, 64, 67
2, 75535, Control_c, 0, 64, 66
2, 75575, Control_c, 0, 64, 65
2, 75592, Control_c, 0, 64, 64
2, 75651, Control_c, 0, 64, 63
2, 75673, Note_on_c, 0, 55, 0
2, 75673, Note_on_c, 0, 70, 65
2, 75676, Note_on_c, 0, 64, 0
2, 75686, Note_on_c, 0, 65, 51
2, 75691, Control_c, 0, 64, 61
2, 75691, Note_on_c, 0, 50, 46
2, 75708, Control_c, 0, 64, 59
2, 75729, Control_c, 0, 64, 57
2, 75746, Control_c, 0, 64, 55
2, 75766, Control_c, 0, 64, 54
2, 75786, Control_c, 0, 64, 53
2, 75805, Control_c, 0, 64, 51
2, 75825, Control_c, 0, 64, 50
2, 75844, Control_c, 0, 64, 49
2, 75862, Control_c, 0, 64, 48
2, 75877, Note_on_c, 0, 50, 0
2, 75881, Control_c, 0, 64, 47
2, 75921, Control_c, 0, 64, 46
2, 75921, Note_on_c, 0, 69, 58
2, 75925, Note_on_c, 0, 53, 46
2, 75957, Control_c, 0, 64, 45
2, 75996, Note_on_c, 0, 65, 0
2, 76018, Control_c, 0, 64, 44
2, 76196, Note_on_c, 0, 52, 51
2, 76200, Note_on_c, 0, 53, 0
2, 76203, Note_on_c, 0, 67, 52
2, 76231, Note_on_c, 0, 69, 0
2, 76266, Control_c, 0, 64, 43
2, 76343, Control_c, 0, 64, 42
2, 76361, Control_c, 0, 64, 40
2, 76383, Control_c, 0, 64, 38
2, 76401, Control_c, 0, 64, 36
2, 76419, Control_c, 0, 64, 32
2, 76437, Control_c, 0, 64, 27
2, 76449, Note_on_c, 0, 53, 43
2, 76457, Note_on_c, 0, 65, 53
2, 76461, Control_c, 0, 64, 20
2, 76466, Note_on_c, 0, 52, 0
2, 76477, Control_c, 0, 64, 13
2, 76495, Control_c, 0, 64, 11
2, 76515, Control_c, 0, 64, 17
2, 76535, Control_c, 0, 64, 33
2, 76540, Note_on_c, 0, 67, 0
2, 76553, Control_c, 0, 64, 46
2, 76575, Control_c, 0, 64, 54
2, 76575, Note_on_c, 0, 70, 0
2, 76592, Control_c, 0, 64, 58
2, 76609, Control_c, 0, 64, 60
2, 76629, Control_c, 0, 64, 62
2, 76649, Control_c, 0, 64, 64
2, 76668, Control_c, 0, 64, 67
2, 76668, Note_on_c, 0, 53, 0
2, 76689, Control_c, 0, 64, 72
2, 76689, Note_on_c, 0, 64, 60
2, 76698, Note_on_c, 0, 55, 49
2, 76709, Control_c, 0, 64, 79
2, 76726, Control_c, 0, 64, 86
2, 76739, Note_on_c, 0, 64, 0
2, 76748, Control_c, 0, 64, 91
2, 76765, Control_c, 0, 64, 94
2, 76841, Control_c, 0, 64, 95
2, 76852, Note_on_c, 0, 43, 0
2, 76881, Control_c, 0, 64, 94
2, 76900, Control_c, 0, 64, 93
2, 76920, Note_on_c, 0, 70, 69
2, 76937, Control_c, 0, 64, 92
2, 76942, Note_on_c, 0, 55, 0
2, 76944, Note_on_c, 0, 61, 48
2, 76963, Note_on_c, 0, 52, 46
2, 76974, Control_c, 0, 64, 90
2, 76994, Control_c, 0, 64, 88
2, 77014, Control_c, 0, 64, 84
2, 77027, Note_on_c, 0, 61, 0
2, 77032, Control_c, 0, 64, 81
2, 77052, Control_c, 0, 64, 78
2, 77072, Control_c, 0, 64, 76
2, 77088, Note_on_c, 0, 52, 0
2, 77093, Control_c, 0, 64, 73
2, 77110, Control_c, 0, 64, 68
2, 77129, Control_c, 0, 64, 64
2, 77149, Control_c, 0, 64, 61
2, 77169, Control_c, 0, 64, 58
2, 77187, Control_c, 0, 64, 57
2, 77199, Note_on_c, 0, 41, 41
2, 77209, Control_c, 0, 64, 56
2, 77209, Note_on_c, 0, 69, 53
2, 77226, Control_c, 0, 64, 55
2, 77241, Note_on_c, 0, 65, 0
2, 77246, Control_c, 0, 64, 52
2, 77246, Note_on_c, 0, 60, 36
2, 77246, Note_on_c, 0, 70, 0
2, 77263, Control_c, 0, 64, 49
2, 77282, Control_c, 0, 64, 45
2, 77306, Control_c, 0, 64, 43
2, 77321, Control_c, 0, 64, 41
2, 77340, Control_c, 0, 64, 40
2, 77360, Control_c, 0, 64, 39
2, 77380, Control_c, 0, 64, 38
2, 77416, Control_c, 0, 64, 37
2, 77452, Note_on_c, 0, 48, 48
2, 77481, Note_on_c, 0, 41, 0
2, 77710, Note_on_c, 0, 50, 55
2, 77760, Note_on_c, 0, 48, 0
2, 77936, Note_on_c, 0, 50, 0
2, 77950, Note_on_c, 0, 52, 62
2, 78181, Note_on_c, 0, 52, 0
2, 78203, Note_on_c, 0, 53, 62
2, 78448, Note_on_c, 0, 57, 70
2, 78457, Note_on_c, 0, 53, 0
2, 78590, Control_c, 0, 64, 38
2, 78681, Note_on_c, 0, 65, 72
2, 78696, Note_on_c, 0, 50, 59
2, 78703, Note_on_c, 0, 57, 0
2, 78787, Note_on_c, 0, 60, 0
2, 78802, Note_on_c, 0, 69, 0
2, 78937, Note_on_c, 0, 50, 0
2, 78942, Note_on_c, 0, 53, 66
2, 79199, Note_on_c, 0, 67, 70
2, 79208, Note_on_c, 0, 47, 59
2, 79261, Note_on_c, 0, 65, 0
2, 79265, Note_on_c, 0, 53, 0
2, 79480, Note_on_c, 0, 65, 53
2, 79489, Note_on_c, 0, 47, 0
2, 79702, Note_on_c, 0, 43, 59
2, 79707, Note_on_c, 0, 64, 59
2, 79764, Note_on_c, 0, 65, 0
2, 79965, Note_on_c, 0, 62, 64
2, 80001, Note_on_c, 0, 43, 0
2, 80001, Note_on_c, 0, 64, 0
2, 80097, Note_on_c, 0, 67, 0
2, 80208, Note_on_c, 0, 64, 64
2, 80217, Note_on_c, 0, 48, 54
2, 80217, Note_on_c, 0, 62, 0
2, 80452, Note_on_c, 0, 67, 67
2, 80692, Note_on_c, 0, 69, 72
2, 80721, Control_c, 0, 64, 37
2, 80927, Note_on_c, 0, 72, 75
2, 80933, Note_on_c, 0, 64, 0
2, 80939, Note_on_c, 0, 48, 0
2, 80953, Note_on_c, 0, 67, 0
2, 81004, Note_on_c, 0, 69, 0
2, 81170, Note_on_c, 0, 65, 55
2, 81174, Note_on_c, 0, 62, 45
2, 81257, Note_on_c, 0, 72, 0
2, 81285, Note_on_c, 0, 62, 0
2, 81426, Note_on_c, 0, 50, 57
2, 81534, Note_on_c, 0, 52, 66
2, 81541, Note_on_c, 0, 50, 0
2, 81638, Note_on_c, 0, 53, 66
2, 81649, Note_on_c, 0, 52, 0
2, 81751, Note_on_c, 0, 55, 72
2, 81770, Note_on_c, 0, 53, 0
2, 81873, Note_on_c, 0, 55, 0
2, 81892, Note_on_c, 0, 57, 71
2, 82125, Note_on_c, 0, 57, 0
2, 82192, Note_on_c, 0, 47, 62
2, 82243, Note_on_c, 0, 65, 0
2, 82445, Note_on_c, 0, 74, 82
2, 82545, Note_on_c, 0, 72, 84
2, 82549, Note_on_c, 0, 74, 0
2, 82659, Control_c, 0, 64, 36
2, 82678, Control_c, 0, 64, 33
2, 82683, Note_on_c, 0, 74, 81
2, 82699, Control_c, 0, 64, 29
2, 82709, Note_on_c, 0, 55, 50
2, 82716, Control_c, 0, 64, 16
2, 82724, Note_on_c, 0, 47, 0
2, 82734, Control_c, 0, 64, 0
2, 82739, Note_on_c, 0, 72, 0
2, 82889, Control_c, 0, 64, 16
2, 82909, Control_c, 0, 64, 39
2, 82926, Control_c, 0, 64, 49
2, 82941, Note_on_c, 0, 65, 69
2, 82948, Control_c, 0, 64, 55
2, 82952, Note_on_c, 0, 74, 0
2, 82968, Control_c, 0, 64, 58
2, 82985, Control_c, 0, 64, 60
2, 83005, Control_c, 0, 64, 62
2, 83023, Control_c, 0, 64, 63
2, 83043, Control_c, 0, 64, 64
2, 83062, Control_c, 0, 64, 65
2, 83080, Control_c, 0, 64, 66
2, 83195, Control_c, 0, 64, 65
2, 83234, Control_c, 0, 64, 63
2, 83243, Note_on_c, 0, 48, 44
2, 83243, Note_on_c, 0, 64, 70
2, 83257, Control_c, 0, 64, 62
2, 83272, Control_c, 0, 64, 61
2, 83294, Control_c, 0, 64, 60
2, 83294, Note_on_c, 0, 65, 0
2, 83312, Control_c, 0, 64, 59
2, 83333, Control_c, 0, 64, 57
2, 83350, Control_c, 0, 64, 55
2, 83369, Control_c, 0, 64, 52
2, 83389, Control_c, 0, 64, 50
2, 83407, Control_c, 0, 64, 49
2, 83425, Control_c, 0, 64, 47
2, 83444, Control_c, 0, 64, 45
2, 83468, Control_c, 0, 64, 44
2, 83485, Control_c, 0, 64, 43
2, 83524, Control_c, 0, 64, 42
2, 83531, Note_on_c, 0, 62, 49
2, 83542, Control_c, 0, 64, 41
2, 83579, Control_c, 0, 64, 40
2, 83601, Control_c, 0, 64, 39
2, 83657, Control_c, 0, 64, 38
2, 83774, Control_c, 0, 64, 37
2, 83781, Note_on_c, 0, 60, 57
2, 83788, Note_on_c, 0, 62, 0
2, 83812, Control_c, 0, 64, 36
2, 84002, Control_c, 0, 64, 35
2, 84017, Note_on_c, 0, 59, 62
2, 84054, Note_on_c, 0, 60, 0
2, 84147, Note_on_c, 0, 64, 0
2, 84270, Note_on_c, 0, 59, 0
2, 84275, Note_on_c, 0, 60, 69
2, 84309, Control_c, 0, 64, 34
2, 84349, Control_c, 0, 64, 33
2, 84504, Note_on_c, 0, 67, 71
2, 84520, Control_c, 0, 64, 32
2, 84629, Note_on_c, 0, 60, 0
2, 84757, Note_on_c, 0, 48, 0
2, 84757, Note_on_c, 0, 69, 73
2, 84761, Note_on_c, 0, 47, 56
2, 84979, Note_on_c, 0, 71, 83
2, 85003, Note_on_c, 0, 67, 0
2, 85061, Note_on_c, 0, 69, 0
2, 85080, Control_c, 0, 64, 31
2, 85237, Note_on_c, 0, 47, 0
2, 85241, Note_on_c, 0, 72, 79
2, 85252, Note_on_c, 0, 45, 51
2, 85324, Note_on_c, 0, 55, 0
2, 85330, Note_on_c, 0, 71, 0
2, 85424, Control_c, 0, 64, 30
2, 85507, Note_on_c, 0, 69, 56
2, 85566, Note_on_c, 0, 45, 0
2, 85723, Note_on_c, 0, 69, 0
2, 85728, Note_on_c, 0, 64, 61
2, 85737, Note_on_c, 0, 57, 57
2, 85741, Note_on_c, 0, 48, 56
2, 85974, Note_on_c, 0, 67, 74
2, 85989, Note_on_c, 0, 64, 0
2, 86052, Note_on_c, 0, 48, 0
2, 86214, Note_on_c, 0, 66, 70
2, 86224, Note_on_c, 0, 50, 65
2, 86261, Note_on_c, 0, 67, 0
2, 86463, Note_on_c, 0, 69, 73
2, 86524, Note_on_c, 0, 50, 0
2, 86631, Note_on_c, 0, 66, 0
2, 86638, Note_on_c, 0, 72, 0
2, 86701, Note_on_c, 0, 54, 58
2, 86701, Note_on_c, 0, 62, 74
2, 86743, Note_on_c, 0, 69, 0
2, 86770, Control_c, 0, 64, 31
2, 86927, Note_on_c, 0, 54, 0
2, 86947, Note_on_c, 0, 72, 80
2, 87188, Note_on_c, 0, 57, 0
2, 87199, Note_on_c, 0, 71, 69
2, 87206, Note_on_c, 0, 43, 44
2, 87298, Note_on_c, 0, 72, 0
2, 87451, Note_on_c, 0, 50, 53
2, 87649, Note_on_c, 0, 43, 0
2, 87683, Note_on_c, 0, 50, 0
2, 87698, Note_on_c, 0, 52, 67
2, 87944, Note_on_c, 0, 54, 73
2, 87952, Note_on_c, 0, 52, 0
2, 88052, Note_on_c, 0, 62, 0
2, 88144, Note_on_c, 0, 71, 0
2, 88175, Note_on_c, 0, 54, 0
2, 88193, Note_on_c, 0, 55, 71
2, 88360, Control_c, 0, 64, 30
2, 88423, Note_on_c, 0, 59, 78
2, 88461, Note_on_c, 0, 55, 0
2, 88607, Note_on_c, 0, 59, 0
2, 88650, Note_on_c, 0, 73, 80
2, 88655, Note_on_c, 0, 52, 57
2, 88655, Note_on_c, 0, 67, 69
2, 88759, Note_on_c, 0, 74, 77
2, 88825, Note_on_c, 0, 52, 0
2, 88863, Note_on_c, 0, 55, 66
2, 88879, Note_on_c, 0, 76, 85
2, 88892, Note_on_c, 0, 73, 0
2, 88919, Note_on_c, 0, 74, 0
2, 88971, Note_on_c, 0, 76, 0
2, 89125, Note_on_c, 0, 69, 77
2, 89136, Note_on_c, 0, 49, 55
2, 89182, Note_on_c, 0, 67, 0
2, 89291, Note_on_c, 0, 55, 0
2, 89376, Note_on_c, 0, 49, 0
2, 89388, Note_on_c, 0, 67, 60
2, 89615, Note_on_c, 0, 45, 56
2, 89623, Note_on_c, 0, 65, 58
2, 89778, Note_on_c, 0, 67, 0
2, 89861, Note_on_c, 0, 64, 68
2, 89865, Note_on_c, 0, 45, 0
2, 89911, Note_on_c, 0, 65, 0
2, 89924, Note_on_c, 0, 69, 0
2, 90088, Note_on_c, 0, 64, 0
2, 90090, Note_on_c, 0, 65, 61
2, 90097, Note_on_c, 0, 50, 63
2, 90335, Note_on_c, 0, 69, 79
2, 90385, Note_on_c, 0, 50, 0
2, 90559, Note_on_c, 0, 70, 85
2, 90572, Note_on_c, 0, 48, 59
2, 90731, Note_on_c, 0, 69, 0
2, 90807, Note_on_c, 0, 48, 0
2, 90814, Note_on_c, 0, 72, 85
2, 90848, Note_on_c, 0, 70, 0
2, 91043, Note_on_c, 0, 46, 53
2, 91083, Note_on_c, 0, 74, 80
2, 91090, Note_on_c, 0, 72, 0
2, 91195, Note_on_c, 0, 72, 83
2, 91298, Note_on_c, 0, 70, 79
2, 91312, Note_on_c, 0, 74, 0
2, 91341, Note_on_c, 0, 46, 0
2, 91346, Note_on_c, 0, 72, 0
2, 91397, Note_on_c, 0, 69, 77
2, 91402, Note_on_c, 0, 70, 0
2, 91517, Note_on_c, 0, 70, 86
2, 91522, Note_on_c, 0, 45, 60
2, 91575, Note_on_c, 0, 65, 0
2, 91678, Note_on_c, 0, 69, 0
2, 91731, Note_on_c, 0, 45, 0
2, 91747, Note_on_c, 0, 74, 83
2, 91795, Note_on_c, 0, 70, 0
2, 91974, Note_on_c, 0, 74, 0
2, 91989, Note_on_c, 0, 67, 81
2, 92005, Note_on_c, 0, 46, 59
2, 92247, Note_on_c, 0, 77, 87
2, 92252, Note_on_c, 0, 46, 0
2, 92392, Control_c, 0, 64, 27
2, 92414, Control_c, 0, 64, 20
2, 92432, Control_c, 0, 64, 0
2, 92495, Note_on_c, 0, 43, 54
2, 92495, Note_on_c, 0, 76, 83
2, 92582, Note_on_c, 0, 77, 0
2, 92642, Control_c, 0, 64, 34
2, 92663, Control_c, 0, 64, 48
2, 92680, Control_c, 0, 64, 55
2, 92699, Control_c, 0, 64, 59
2, 92718, Note_on_c, 0, 74, 82
2, 92722, Control_c, 0, 64, 62
2, 92741, Control_c, 0, 64, 66
2, 92745, Note_on_c, 0, 76, 0
2, 92756, Control_c, 0, 64, 74
2, 92778, Control_c, 0, 64, 93
2, 92786, Note_on_c, 0, 74, 0
2, 92798, Control_c, 0, 64, 127
2, 92898, Note_on_c, 0, 43, 0
2, 93004, Note_on_c, 0, 73, 80
2, 93019, Note_on_c, 0, 45, 65
2, 93028, Control_c, 0, 64, 118
2, 93044, Control_c, 0, 64, 105
2, 93065, Control_c, 0, 64, 95
2, 93085, Control_c, 0, 64, 83
2, 93089, Note_on_c, 0, 67, 0
2, 93106, Control_c, 0, 64, 72
2, 93122, Control_c, 0, 64, 65
2, 93142, Control_c, 0, 64, 60
2, 93160, Control_c, 0, 64, 58
2, 93180, Control_c, 0, 64, 56
2, 93201, Control_c, 0, 64, 55
2, 93221, Control_c, 0, 64, 52
2, 93238, Control_c, 0, 64, 49
2, 93256, Control_c, 0, 64, 45
2, 93275, Control_c, 0, 64, 42
2, 93288, Note_on_c, 0, 70, 68
2, 93297, Control_c, 0, 64, 41
2, 93315, Control_c, 0, 64, 39
2, 93334, Control_c, 0, 64, 38
2, 93352, Control_c, 0, 64, 36
2, 93372, Control_c, 0, 64, 35
2, 93430, Control_c, 0, 64, 34
2, 93469, Control_c, 0, 64, 33
2, 93485, Control_c, 0, 64, 32
2, 93526, Control_c, 0, 64, 31
2, 93526, Note_on_c, 0, 69, 64
2, 93606, Note_on_c, 0, 70, 0
2, 93697, Control_c, 0, 64, 30
2, 93770, Note_on_c, 0, 67, 65
2, 93799, Note_on_c, 0, 69, 0
2, 93890, Note_on_c, 0, 73, 0
2, 94003, Note_on_c, 0, 65, 67
2, 94027, Control_c, 0, 64, 29
2, 94059, Note_on_c, 0, 67, 0
2, 94083, Control_c, 0, 64, 28
2, 94241, Note_on_c, 0, 69, 77
2, 94306, Note_on_c, 0, 69, 0
2, 94501, Note_on_c, 0, 74, 82
2, 94535, Note_on_c, 0, 65, 0
2, 94743, Note_on_c, 0, 65, 62
2, 94776, Control_c, 0, 64, 27
2, 94819, Note_on_c, 0, 65, 0
2, 94988, Note_on_c, 0, 64, 69
2, 95237, Note_on_c, 0, 52, 61
2, 95275, Note_on_c, 0, 74, 0
2, 95311, Note_on_c, 0, 45, 0
2, 95473, Note_on_c, 0, 74, 73
2, 95482, Note_on_c, 0, 53, 59
2, 95559, Note_on_c, 0, 52, 0
2, 95714, Note_on_c, 0, 55, 71
2, 95719, Note_on_c, 0, 53, 0
2, 95966, Note_on_c, 0, 57, 66
2, 95966, Note_on_c, 0, 72, 75
2, 95989, Note_on_c, 0, 55, 0
2, 95998, Note_on_c, 0, 74, 0
2, 96224, Note_on_c, 0, 60, 71
2, 96251, Note_on_c, 0, 57, 0
2, 96444, Control_c, 0, 64, 25
2, 96458, Note_on_c, 0, 67, 64
2, 96464, Note_on_c, 0, 70, 71
2, 96468, Note_on_c, 0, 52, 56
2, 96483, Control_c, 0, 64, 24
2, 96483, Note_on_c, 0, 64, 0
2, 96491, Note_on_c, 0, 60, 0
2, 96503, Control_c, 0, 64, 20
2, 96521, Control_c, 0, 64, 15
2, 96537, Note_on_c, 0, 72, 0
2, 96541, Control_c, 0, 64, 10
2, 96559, Control_c, 0, 64, 9
2, 96579, Control_c, 0, 64, 15
2, 96597, Control_c, 0, 64, 30
2, 96615, Control_c, 0, 64, 41
2, 96635, Control_c, 0, 64, 49
2, 96657, Control_c, 0, 64, 54
2, 96671, Note_on_c, 0, 52, 0
2, 96675, Control_c, 0, 64, 57
2, 96695, Control_c, 0, 64, 59
2, 96699, Note_on_c, 0, 55, 59
2, 96714, Control_c, 0, 64, 60
2, 96736, Control_c, 0, 64, 62
2, 96736, Note_on_c, 0, 67, 0
2, 96771, Control_c, 0, 64, 63
2, 96771, Note_on_c, 0, 70, 0
2, 96809, Control_c, 0, 64, 62
2, 96885, Control_c, 0, 64, 61
2, 96925, Control_c, 0, 64, 60
2, 96942, Control_c, 0, 64, 59
2, 96962, Control_c, 0, 64, 58
2, 96973, Note_on_c, 0, 54, 57
2, 96973, Note_on_c, 0, 69, 68
2, 96982, Control_c, 0, 64, 57
2, 96995, Note_on_c, 0, 55, 0
2, 97002, Control_c, 0, 64, 56
2, 97021, Control_c, 0, 64, 55
2, 97039, Control_c, 0, 64, 53
2, 97057, Control_c, 0, 64, 51
2, 97076, Control_c, 0, 64, 48
2, 97099, Control_c, 0, 64, 46
2, 97117, Control_c, 0, 64, 44
2, 97134, Control_c, 0, 64, 42
2, 97156, Control_c, 0, 64, 41
2, 97193, Control_c, 0, 64, 40
2, 97213, Control_c, 0, 64, 39
2, 97244, Note_on_c, 0, 54, 0
2, 97248, Note_on_c, 0, 57, 55
2, 97250, Note_on_c, 0, 67, 55
2, 97255, Control_c, 0, 64, 38
2, 97345, Control_c, 0, 64, 37
2, 97473, Note_on_c, 0, 57, 0
2, 97484, Note_on_c, 0, 50, 56
2, 97489, Note_on_c, 0, 66, 60
2, 97516, Note_on_c, 0, 67, 0
2, 97555, Note_on_c, 0, 69, 0
2, 97692, Control_c, 0, 64, 36
2, 97718, Note_on_c, 0, 69, 63
2, 97725, Note_on_c, 0, 60, 51
2, 97839, Note_on_c, 0, 50, 0
2, 97884, Control_c, 0, 64, 35
2, 97913, Note_on_c, 0, 66, 0
2, 97997, Note_on_c, 0, 62, 61
2, 98002, Note_on_c, 0, 55, 51
2, 98028, Note_on_c, 0, 60, 0
2, 98048, Note_on_c, 0, 69, 0
2, 98266, Note_on_c, 0, 69, 56
2, 98275, Note_on_c, 0, 60, 42
2, 98382, Control_c, 0, 64, 34
2, 98460, Note_on_c, 0, 60, 0
2, 98507, Note_on_c, 0, 67, 65
2, 98511, Note_on_c, 0, 58, 55
2, 98545, Note_on_c, 0, 69, 0
2, 98562, Note_on_c, 0, 62, 0
2, 98728, Control_c, 0, 64, 33
2, 98733, Note_on_c, 0, 66, 66
2, 98741, Note_on_c, 0, 58, 0
2, 98750, Control_c, 0, 64, 32
2, 98750, Note_on_c, 0, 57, 57
2, 98753, Note_on_c, 0, 67, 0
2, 98768, Control_c, 0, 64, 29
2, 98785, Control_c, 0, 64, 25
2, 98803, Control_c, 0, 64, 17
2, 98823, Control_c, 0, 64, 0
2, 98960, Control_c, 0, 64, 22
2, 98976, Note_on_c, 0, 67, 63
2, 98980, Control_c, 0, 64, 39
2, 98989, Note_on_c, 0, 57, 0
2, 98998, Control_c, 0, 64, 48
2, 99003, Note_on_c, 0, 58, 65
2, 99018, Control_c, 0, 64, 53
2, 99023, Note_on_c, 0, 66, 0
2, 99037, Control_c, 0, 64, 54
2, 99041, Note_on_c, 0, 55, 0
2, 99056, Control_c, 0, 64, 55
2, 99074, Control_c, 0, 64, 56
2, 99085, Note_on_c, 0, 67, 0
2, 99094, Control_c, 0, 64, 57
2, 99131, Control_c, 0, 64, 56
2, 99169, Control_c, 0, 64, 55
2, 99226, Control_c, 0, 64, 54
2, 99250, Control_c, 0, 64, 53
2, 99250, Note_on_c, 0, 74, 81
2, 99265, Control_c, 0, 64, 52
2, 99285, Control_c, 0, 64, 50
2, 99305, Control_c, 0, 64, 48
2, 99325, Control_c, 0, 64, 46
2, 99345, Control_c, 0, 64, 45
2, 99364, Control_c, 0, 64, 43
2, 99381, Control_c, 0, 64, 42
2, 99401, Control_c, 0, 64, 40
2, 99422, Control_c, 0, 64, 38
2, 99439, Control_c, 0, 64, 35
2, 99458, Control_c, 0, 64, 34
2, 99479, Control_c, 0, 64, 32
2, 99492, Note_on_c, 0, 76, 86
2, 99498, Control_c, 0, 64, 30
2, 99499, Note_on_c, 0, 50, 57
2, 99514, Control_c, 0, 64, 28
2, 99534, Control_c, 0, 64, 26
2, 99557, Control_c, 0, 64, 25
2, 99582, Note_on_c, 0, 74, 0
2, 99631, Control_c, 0, 64, 24
2, 99728, Note_on_c, 0, 78, 90
2, 99928, Note_on_c, 0, 76, 0
2, 99957, Control_c, 0, 64, 23
2, 99989, Note_on_c, 0, 50, 0
2, 99997, Control_c, 0, 64, 22
2, 99997, Note_on_c, 0, 51, 60
2, 99997, Note_on_c, 0, 79, 84
2, 100065, Note_on_c, 0, 78, 0
2, 100243, Note_on_c, 0, 82, 81
2, 100302, Note_on_c, 0, 79, 0
2, 100484, Note_on_c, 0, 74, 70
2, 100503, Note_on_c, 0, 55, 59
2, 100519, Note_on_c, 0, 51, 0
2, 100570, Note_on_c, 0, 58, 0
2, 100677, Note_on_c, 0, 74, 0
2, 100735, Note_on_c, 0, 77, 74
2, 100802, Note_on_c, 0, 82, 0
2, 101006, Note_on_c, 0, 48, 58
2, 101006, Note_on_c, 0, 60, 57
2, 101006, Note_on_c, 0, 75, 70
2, 101015, Note_on_c, 0, 77, 0
2, 101056, Note_on_c, 0, 55, 0
2, 101289, Note_on_c, 0, 82, 70
2, 101397, Control_c, 0, 64, 23
2, 101474, Control_c, 0, 64, 24
2, 101494, Control_c, 0, 64, 25
2, 101532, Control_c, 0, 64, 26
2, 101536, Note_on_c, 0, 80, 80
2, 101550, Control_c, 0, 64, 27
2, 101570, Control_c, 0, 64, 29
2, 101590, Control_c, 0, 64, 32
2, 101610, Control_c, 0, 64, 36
2, 101612, Note_on_c, 0, 82, 0
2, 101627, Control_c, 0, 64, 40
2, 101648, Control_c, 0, 64, 45
2, 101667, Control_c, 0, 64, 49
2, 101684, Control_c, 0, 64, 51
2, 101704, Control_c, 0, 64, 52
2, 101722, Control_c, 0, 64, 53
2, 101742, Control_c, 0, 64, 55
2, 101763, Control_c, 0, 64, 56
2, 101768, Note_on_c, 0, 79, 87
2, 101781, Control_c, 0, 64, 57
2, 101822, Control_c, 0, 64, 58
2, 101822, Note_on_c, 0, 80, 0
2, 101840, Control_c, 0, 64, 59
2, 101878, Control_c, 0, 64, 60
2, 102012, Control_c, 0, 64, 59
2, 102032, Control_c, 0, 64, 58
2, 102050, Control_c, 0, 64, 56
2, 102058, Note_on_c, 0, 80, 83
2, 102071, Control_c, 0, 64, 52
2, 102089, Control_c, 0, 64, 46
2, 102108, Control_c, 0, 64, 39
2, 102128, Control_c, 0, 64, 33
2, 102144, Control_c, 0, 64, 29
2, 102153, Note_on_c, 0, 79, 0
2, 102165, Control_c, 0, 64, 28
2, 102186, Control_c, 0, 64, 30
2, 102203, Control_c, 0, 64, 38
2, 102223, Control_c, 0, 64, 47
2, 102241, Control_c, 0, 64, 55
2, 102261, Control_c, 0, 64, 58
2, 102281, Control_c, 0, 64, 60
2, 102298, Control_c, 0, 64, 61
2, 102319, Control_c, 0, 64, 62
2, 102325, Note_on_c, 0, 80, 0
2, 102339, Note_on_c, 0, 84, 73
2, 102343, Control_c, 0, 64, 64
2, 102357, Control_c, 0, 64, 69
2, 102376, Control_c, 0, 64, 78
2, 102395, Control_c, 0, 64, 93
2, 102413, Control_c, 0, 64, 113
2, 102437, Control_c, 0, 64, 127
2, 102550, Note_on_c, 0, 84, 0
2, 102583, Note_on_c, 0, 78, 80
2, 102655, Note_on_c, 0, 75, 0
2, 102686, Note_on_c, 0, 48, 0
2, 102821, Note_on_c, 0, 79, 82
2, 102825, Note_on_c, 0, 78, 0
2, 102933, Control_c, 0, 64, 113
2, 102952, Control_c, 0, 64, 101
2, 102971, Control_c, 0, 64, 88
2, 102993, Control_c, 0, 64, 78
2, 103011, Control_c, 0, 64, 72
2, 103028, Control_c, 0, 64, 69
2, 103047, Control_c, 0, 64, 66
2, 103068, Control_c, 0, 64, 64
2, 103086, Control_c, 0, 64, 61
2, 103106, Control_c, 0, 64, 58
2, 103110, Note_on_c, 0, 50, 46
2, 103123, Note_on_c, 0, 78, 73
2, 103127, Control_c, 0, 64, 56
2, 103145, Control_c, 0, 64, 53
2, 103162, Control_c, 0, 64, 50
2, 103184, Control_c, 0, 64, 48
2, 103205, Control_c, 0, 64, 45
2, 103205, Note_on_c, 0, 79, 0
2, 103220, Control_c, 0, 64, 42
2, 103240, Control_c, 0, 64, 40
2, 103262, Control_c, 0, 64, 38
2, 103282, Control_c, 0, 64, 37
2, 103298, Control_c, 0, 64, 36
2, 103317, Control_c, 0, 64, 35
2, 103413, Note_on_c, 0, 75, 53
2, 103436, Control_c, 0, 64, 34
2, 103635, Note_on_c, 0, 75, 0
2, 103672, Note_on_c, 0, 74, 57
2, 103685, Note_on_c, 0, 60, 0
2, 103908, Note_on_c, 0, 60, 51
2, 104147, Note_on_c, 0, 74, 0
2, 104163, Note_on_c, 0, 59, 54
2, 104230, Note_on_c, 0, 60, 0
2, 104393, Note_on_c, 0, 74, 68
2, 104646, Note_on_c, 0, 79, 75
2, 104655, Note_on_c, 0, 58, 52
2, 104713, Note_on_c, 0, 74, 0
2, 104713, Note_on_c, 0, 78, 0
2, 104787, Note_on_c, 0, 59, 0
2, 104887, Note_on_c, 0, 73, 53
2, 105114, Note_on_c, 0, 79, 0
2, 105148, Note_on_c, 0, 57, 47
2, 105153, Note_on_c, 0, 74, 65
2, 105172, Note_on_c, 0, 73, 0
2, 105216, Note_on_c, 0, 58, 0
2, 105407, Note_on_c, 0, 79, 72
2, 105665, Note_on_c, 0, 78, 72
2, 105669, Note_on_c, 0, 55, 48
2, 105725, Note_on_c, 0, 50, 0
2, 105732, Note_on_c, 0, 79, 0
2, 105795, Note_on_c, 0, 57, 0
2, 105911, Note_on_c, 0, 76, 78
2, 105961, Note_on_c, 0, 78, 0
2, 106173, Note_on_c, 0, 55, 0
2, 106180, Note_on_c, 0, 57, 48
2, 106184, Note_on_c, 0, 78, 73
2, 106192, Note_on_c, 0, 50, 44
2, 106221, Note_on_c, 0, 74, 0
2, 106404, Note_on_c, 0, 76, 0
2, 106408, Control_c, 0, 64, 35
2, 106420, Note_on_c, 0, 79, 70
2, 106526, Note_on_c, 0, 78, 0
2, 106619, Note_on_c, 0, 57, 0
2, 106679, Control_c, 0, 64, 34
2, 106702, Note_on_c, 0, 81, 60
2, 106708, Note_on_c, 0, 62, 40
2, 106752, Note_on_c, 0, 79, 0
2, 106755, Control_c, 0, 64, 35
2, 106774, Control_c, 0, 64, 40
2, 106793, Control_c, 0, 64, 48
2, 106811, Control_c, 0, 64, 54
2, 106831, Control_c, 0, 64, 58
2, 106852, Control_c, 0, 64, 60
2, 106870, Control_c, 0, 64, 62
2, 106882, Note_on_c, 0, 50, 0
2, 106888, Control_c, 0, 64, 64
2, 106908, Control_c, 0, 64, 68
2, 106928, Control_c, 0, 64, 75
2, 106945, Control_c, 0, 64, 87
2, 106958, Note_on_c, 0, 72, 56
2, 106965, Control_c, 0, 64, 101
2, 106987, Control_c, 0, 64, 118
2, 107003, Control_c, 0, 64, 127
2, 107025, Note_on_c, 0, 72, 0
2, 107215, Control_c, 0, 64, 122
2, 107232, Control_c, 0, 64, 99
2, 107254, Control_c, 0, 64, 85
2, 107265, Note_on_c, 0, 70, 58
2, 107274, Control_c, 0, 64, 75
2, 107295, Control_c, 0, 64, 67
2, 107295, Note_on_c, 0, 55, 42
2, 107309, Control_c, 0, 64, 61
2, 107331, Control_c, 0, 64, 55
2, 107350, Control_c, 0, 64, 51
2, 107368, Control_c, 0, 64, 47
2, 107387, Control_c, 0, 64, 44
2, 107407, Control_c, 0, 64, 42
2, 107428, Control_c, 0, 64, 43
2, 107448, Control_c, 0, 64, 47
2, 107462, Control_c, 0, 64, 57
2, 107484, Control_c, 0, 64, 61
2, 107501, Control_c, 0, 64, 62
2, 107515, Note_on_c, 0, 70, 0
2, 107523, Control_c, 0, 64, 63
2, 107523, Note_on_c, 0, 74, 54
2, 107539, Note_on_c, 0, 81, 0
2, 107543, Control_c, 0, 64, 65
2, 107562, Control_c, 0, 64, 68
2, 107579, Control_c, 0, 64, 71
2, 107599, Control_c, 0, 64, 76
2, 107618, Control_c, 0, 64, 77
2, 107637, Control_c, 0, 64, 78
2, 107657, Control_c, 0, 64, 77
2, 107733, Control_c, 0, 64, 76
2, 107755, Control_c, 0, 64, 74
2, 107771, Control_c, 0, 64, 73
2, 107787, Note_on_c, 0, 63, 45
2, 107787, Note_on_c, 0, 79, 69
2, 107800, Note_on_c, 0, 72, 53
2, 107810, Control_c, 0, 64, 72
2, 107847, Control_c, 0, 64, 70
2, 107867, Note_on_c, 0, 74, 0
2, 107872, Control_c, 0, 64, 68
2, 107885, Control_c, 0, 64, 67
2, 107900, Note_on_c, 0, 62, 0
2, 107962, Control_c, 0, 64, 66
2, 107982, Control_c, 0, 64, 65
2, 108004, Control_c, 0, 64, 64
2, 108024, Control_c, 0, 64, 63
2, 108031, Note_on_c, 0, 78, 78
2, 108059, Control_c, 0, 64, 62
2, 108068, Note_on_c, 0, 79, 0
2, 108097, Control_c, 0, 64, 60
2, 108117, Control_c, 0, 64, 59
2, 108137, Control_c, 0, 64, 57
2, 108159, Control_c, 0, 64, 56
2, 108176, Control_c, 0, 64, 55
2, 108193, Control_c, 0, 64, 54
2, 108213, Control_c, 0, 64, 53
2, 108234, Control_c, 0, 64, 52
2, 108250, Control_c, 0, 64, 50
2, 108269, Control_c, 0, 64, 49
2, 108281, Note_on_c, 0, 63, 0
2, 108291, Note_on_c, 0, 72, 0
2, 108295, Control_c, 0, 64, 48
2, 108295, Note_on_c, 0, 62, 46
2, 108302, Note_on_c, 0, 79, 73
2, 108311, Control_c, 0, 64, 46
2, 108326, Control_c, 0, 64, 45
2, 108347, Control_c, 0, 64, 43
2, 108368, Control_c, 0, 64, 41
2, 108368, Note_on_c, 0, 78, 0
2, 108385, Control_c, 0, 64, 39
2, 108405, Control_c, 0, 64, 38
2, 108424, Control_c, 0, 64, 37
2, 108465, Control_c, 0, 64, 36
2, 108550, Note_on_c, 0, 70, 63
2, 108578, Control_c, 0, 64, 35
2, 108616, Control_c, 0, 64, 34
2, 108635, Control_c, 0, 64, 32
2, 108658, Control_c, 0, 64, 31
2, 108658, Note_on_c, 0, 70, 0
2, 108674, Control_c, 0, 64, 29
2, 108692, Control_c, 0, 64, 27
2, 108751, Control_c, 0, 64, 31
2, 108768, Control_c, 0, 64, 41
2, 108776, Note_on_c, 0, 79, 0
2, 108792, Control_c, 0, 64, 50
2, 108806, Note_on_c, 0, 75, 60
2, 108810, Control_c, 0, 64, 56
2, 108815, Note_on_c, 0, 60, 41
2, 108815, Note_on_c, 0, 62, 0
2, 108827, Control_c, 0, 64, 59
2, 108849, Control_c, 0, 64, 61
2, 108866, Control_c, 0, 64, 63
2, 108885, Control_c, 0, 64, 65
2, 108904, Control_c, 0, 64, 68
2, 108925, Control_c, 0, 64, 74
2, 108944, Control_c, 0, 64, 81
2, 108964, Control_c, 0, 64, 87
2, 108981, Control_c, 0, 64, 91
2, 108999, Control_c, 0, 64, 93
2, 109040, Control_c, 0, 64, 94
2, 109044, Note_on_c, 0, 81, 70
2, 109059, Control_c, 0, 64, 95
2, 109059, Note_on_c, 0, 75, 0
2, 109077, Control_c, 0, 64, 96
2, 109135, Control_c, 0, 64, 95
2, 109156, Control_c, 0, 64, 94
2, 109194, Control_c, 0, 64, 93
2, 109210, Control_c, 0, 64, 90
2, 109232, Control_c, 0, 64, 86
2, 109251, Control_c, 0, 64, 79
2, 109269, Control_c, 0, 64, 72
2, 109286, Note_on_c, 0, 60, 0
2, 109288, Control_c, 0, 64, 66
2, 109307, Control_c, 0, 64, 62
2, 109319, Note_on_c, 0, 58, 45
2, 109319, Note_on_c, 0, 82, 68
2, 109323, Note_on_c, 0, 74, 56
2, 109328, Control_c, 0, 64, 60
2, 109345, Control_c, 0, 64, 58
2, 109361, Note_on_c, 0, 81, 0
2, 109365, Control_c, 0, 64, 57
2, 109384, Control_c, 0, 64, 55
2, 109402, Control_c, 0, 64, 54
2, 109423, Control_c, 0, 64, 52
2, 109441, Control_c, 0, 64, 49
2, 109464, Control_c, 0, 64, 47
2, 109479, Control_c, 0, 64, 46
2, 109498, Control_c, 0, 64, 45
2, 109557, Control_c, 0, 64, 44
2, 109561, Note_on_c, 0, 60, 47
2, 109604, Note_on_c, 0, 58, 0
2, 109633, Control_c, 0, 64, 43
2, 109692, Control_c, 0, 64, 42
2, 109780, Note_on_c, 0, 55, 0
2, 109802, Note_on_c, 0, 60, 0
2, 109827, Note_on_c, 0, 62, 54
2, 109848, Control_c, 0, 64, 41
2, 109853, Note_on_c, 0, 74, 0
2, 110079, Note_on_c, 0, 74, 54
2, 110084, Note_on_c, 0, 53, 48
2, 110163, Note_on_c, 0, 53, 0
2, 110163, Note_on_c, 0, 74, 0
2, 110343, Note_on_c, 0, 79, 68
2, 110348, Note_on_c, 0, 52, 47
2, 110431, Note_on_c, 0, 82, 0
2, 110580, Note_on_c, 0, 61, 53
2, 110584, Note_on_c, 0, 81, 75
2, 110620, Note_on_c, 0, 62, 0
2, 110829, Note_on_c, 0, 82, 84
2, 110837, Note_on_c, 0, 52, 0
2, 110847, Note_on_c, 0, 62, 60
2, 110856, Note_on_c, 0, 61, 0
2, 110866, Note_on_c, 0, 79, 0
2, 110932, Note_on_c, 0, 81, 0
2, 110976, Control_c, 0, 64, 39
2, 111000, Control_c, 0, 64, 37
2, 111019, Control_c, 0, 64, 35
2, 111037, Control_c, 0, 64, 34
2, 111055, Control_c, 0, 64, 35
2, 111064, Note_on_c, 0, 79, 74
2, 111073, Control_c, 0, 64, 42
2, 111078, Note_on_c, 0, 50, 56
2, 111093, Control_c, 0, 64, 54
2, 111113, Control_c, 0, 64, 61
2, 111117, Note_on_c, 0, 82, 0
2, 111132, Control_c, 0, 64, 63
2, 111140, Note_on_c, 0, 50, 0
2, 111153, Control_c, 0, 64, 64
2, 111169, Control_c, 0, 64, 67
2, 111189, Control_c, 0, 64, 73
2, 111209, Control_c, 0, 64, 80
2, 111226, Control_c, 0, 64, 85
2, 111246, Control_c, 0, 64, 86
2, 111269, Control_c, 0, 64, 85
2, 111284, Control_c, 0, 64, 83
2, 111306, Control_c, 0, 64, 81
2, 111313, Note_on_c, 0, 62, 0
2, 111322, Control_c, 0, 64, 80
2, 111331, Note_on_c, 0, 49, 54
2, 111345, Control_c, 0, 64, 78
2, 111345, Note_on_c, 0, 81, 73
2, 111353, Note_on_c, 0, 79, 0
2, 111362, Control_c, 0, 64, 75
2, 111381, Control_c, 0, 64, 70
2, 111398, Control_c, 0, 64, 66
2, 111421, Control_c, 0, 64, 62
2, 111438, Control_c, 0, 64, 60
2, 111457, Control_c, 0, 64, 58
2, 111478, Control_c, 0, 64, 57
2, 111498, Control_c, 0, 64, 56
2, 111515, Control_c, 0, 64, 55
2, 111537, Control_c, 0, 64, 54
2, 111554, Control_c, 0, 64, 53
2, 111576, Control_c, 0, 64, 52
2, 111593, Control_c, 0, 64, 51
2, 111617, Note_on_c, 0, 79, 68
2, 111621, Note_on_c, 0, 57, 47
2, 111632, Control_c, 0, 64, 50
2, 111683, Note_on_c, 0, 49, 0
2, 111783, Control_c, 0, 64, 49
2, 111849, Note_on_c, 0, 77, 73
2, 111851, Note_on_c, 0, 59, 56
2, 111877, Note_on_c, 0, 57, 0
2, 112032, Note_on_c, 0, 79, 0
2, 112055, Note_on_c, 0, 59, 0
2, 112090, Note_on_c, 0, 61, 56
2, 112090, Note_on_c, 0, 76, 73
2, 112107, Note_on_c, 0, 77, 0
2, 112207, Note_on_c, 0, 81, 0
2, 112273, Note_on_c, 0, 61, 0
2, 112341, Note_on_c, 0, 62, 52
2, 112341, Note_on_c, 0, 77, 71
2, 112383, Control_c, 0, 64, 48
2, 112383, Note_on_c, 0, 76, 0
2, 112475, Control_c, 0, 64, 47
2, 112484, Note_on_c, 0, 62, 0
2, 112513, Control_c, 0, 64, 46
2, 112533, Control_c, 0, 64, 45
2, 112551, Control_c, 0, 64, 44
2, 112571, Control_c, 0, 64, 43
2, 112593, Control_c, 0, 64, 42
2, 112593, Note_on_c, 0, 57, 57
2, 112611, Control_c, 0, 64, 41
2, 112628, Control_c, 0, 64, 39
2, 112648, Control_c, 0, 64, 38
2, 112666, Control_c, 0, 64, 37
2, 112686, Control_c, 0, 64, 36
2, 112724, Control_c, 0, 64, 35
2, 112825, Note_on_c, 0, 50, 65
2, 112834, Note_on_c, 0, 57, 0
2, 112974, Control_c, 0, 64, 36
2, 112994, Control_c, 0, 64, 37
2, 113014, Control_c, 0, 64, 39
2, 113031, Control_c, 0, 64, 43
2, 113051, Control_c, 0, 64, 47
2, 113060, Note_on_c, 0, 50, 0
2, 113060, Note_on_c, 0, 53, 66
2, 113068, Note_on_c, 0, 80, 77
2, 113072, Control_c, 0, 64, 51
2, 113089, Control_c, 0, 64, 56
2, 113108, Control_c, 0, 64, 58
2, 113130, Control_c, 0, 64, 60
2, 113147, Control_c, 0, 64, 61
2, 113166, Control_c, 0, 64, 62
2, 113204, Control_c, 0, 64, 63
2, 113244, Control_c, 0, 64, 62
2, 113293, Note_on_c, 0, 80, 0
2, 113322, Note_on_c, 0, 53, 0
2, 113327, Note_on_c, 0, 77, 0
2, 113337, Note_on_c, 0, 47, 55
2, 113350, Note_on_c, 0, 79, 71
2, 113359, Control_c, 0, 64, 61
2, 113379, Control_c, 0, 64, 60
2, 113398, Control_c, 0, 64, 59
2, 113416, Control_c, 0, 64, 58
2, 113453, Control_c, 0, 64, 56
2, 113474, Control_c, 0, 64, 55
2, 113491, Control_c, 0, 64, 53
2, 113514, Control_c, 0, 64, 51
2, 113531, Control_c, 0, 64, 50
2, 113551, Control_c, 0, 64, 49
2, 113553, Note_on_c, 0, 47, 0
2, 113589, Control_c, 0, 64, 48
2, 113610, Note_on_c, 0, 55, 52
2, 113629, Control_c, 0, 64, 47
2, 113629, Note_on_c, 0, 77, 66
2, 113650, Control_c, 0, 64, 46
2, 113762, Control_c, 0, 64, 45
2, 113830, Note_on_c, 0, 55, 0
2, 113861, Note_on_c, 0, 57, 67
2, 113866, Note_on_c, 0, 76, 69
2, 113992, Control_c, 0, 64, 44
2, 114034, Note_on_c, 0, 77, 0
2, 114072, Note_on_c, 0, 57, 0
2, 114087, Note_on_c, 0, 59, 61
2, 114094, Note_on_c, 0, 74, 67
2, 114094, Note_on_c, 0, 76, 0
2, 114281, Note_on_c, 0, 59, 0
2, 114336, Note_on_c, 0, 76, 68
2, 114349, Note_on_c, 0, 60, 53
2, 114382, Note_on_c, 0, 74, 0
2, 114395, Note_on_c, 0, 79, 0
2, 114549, Note_on_c, 0, 60, 0
2, 114574, Note_on_c, 0, 55, 61
2, 114683, Control_c, 0, 64, 43
2, 114811, Note_on_c, 0, 48, 63
2, 114829, Note_on_c, 0, 55, 0
2, 115045, Note_on_c, 0, 48, 0
2, 115050, Note_on_c, 0, 52, 66
2, 115054, Note_on_c, 0, 79, 79
2, 115105, Note_on_c, 0, 76, 0
2, 115313, Note_on_c, 0, 45, 59
2, 115332, Note_on_c, 0, 52, 0
2, 115337, Note_on_c, 0, 78, 70
2, 115588, Note_on_c, 0, 75, 71
2, 115686, Note_on_c, 0, 79, 0
2, 115719, Control_c, 0, 64, 42
2, 115828, Note_on_c, 0, 57, 63
2, 115831, Note_on_c, 0, 74, 66
2, 115862, Note_on_c, 0, 75, 0
2, 115933, Note_on_c, 0, 45, 0
2, 116065, Note_on_c, 0, 72, 66
2, 116097, Note_on_c, 0, 74, 0
2, 116294, Note_on_c, 0, 74, 67
2, 116314, Note_on_c, 0, 47, 49
2, 116314, Note_on_c, 0, 72, 0
2, 116368, Note_on_c, 0, 78, 0
2, 116546, Note_on_c, 0, 76, 82
2, 116550, Note_on_c, 0, 55, 51
2, 116696, Note_on_c, 0, 57, 0
2, 116804, Note_on_c, 0, 55, 0
2, 116817, Note_on_c, 0, 50, 50
2, 116817, Note_on_c, 0, 77, 81
2, 116831, Note_on_c, 0, 67, 58
2, 116856, Note_on_c, 0, 47, 0
2, 116908, Note_on_c, 0, 74, 0
2, 116912, Note_on_c, 0, 76, 0
2, 116988, Control_c, 0, 64, 43
2, 117006, Control_c, 0, 64, 44
2, 117025, Control_c, 0, 64, 47
2, 117044, Control_c, 0, 64, 50
2, 117060, Note_on_c, 0, 53, 67
2, 117067, Control_c, 0, 64, 54
2, 117081, Control_c, 0, 64, 56
2, 117104, Control_c, 0, 64, 58
2, 117108, Note_on_c, 0, 50, 0
2, 117122, Control_c, 0, 64, 60
2, 117141, Control_c, 0, 64, 61
2, 117163, Control_c, 0, 64, 62
2, 117182, Control_c, 0, 64, 63
2, 117218, Control_c, 0, 64, 64
2, 117327, Note_on_c, 0, 48, 56
2, 117327, Note_on_c, 0, 52, 64
2, 117350, Control_c, 0, 64, 63
2, 117364, Note_on_c, 0, 53, 0
2, 117373, Note_on_c, 0, 77, 0
2, 117410, Control_c, 0, 64, 62
2, 117428, Control_c, 0, 64, 61
2, 117448, Control_c, 0, 64, 59
2, 117466, Control_c, 0, 64, 58
2, 117486, Control_c, 0, 64, 56
2, 117504, Control_c, 0, 64, 54
2, 117524, Control_c, 0, 64, 51
2, 117544, Control_c, 0, 64, 49
2, 117565, Control_c, 0, 64, 47
2, 117583, Control_c, 0, 64, 45
2, 117590, Note_on_c, 0, 53, 73
2, 117605, Control_c, 0, 64, 44
2, 117622, Control_c, 0, 64, 43
2, 117640, Control_c, 0, 64, 41
2, 117656, Note_on_c, 0, 52, 0
2, 117660, Control_c, 0, 64, 40
2, 117679, Control_c, 0, 64, 39
2, 117717, Control_c, 0, 64, 38
2, 117737, Control_c, 0, 64, 37
2, 117775, Control_c, 0, 64, 36
2, 117812, Control_c, 0, 64, 35
2, 117834, Note_on_c, 0, 76, 79
2, 117841, Note_on_c, 0, 55, 63
2, 117841, Note_on_c, 0, 72, 76
2, 117870, Control_c, 0, 64, 34
2, 117874, Note_on_c, 0, 53, 0
2, 117928, Control_c, 0, 64, 33
2, 117972, Note_on_c, 0, 67, 0
2, 118081, Note_on_c, 0, 71, 79
2, 118086, Note_on_c, 0, 74, 78
2, 118128, Note_on_c, 0, 76, 0
2, 118142, Note_on_c, 0, 72, 0
2, 118356, Note_on_c, 0, 72, 84
2, 118356, Note_on_c, 0, 76, 83
2, 118394, Note_on_c, 0, 74, 0
2, 118409, Control_c, 0, 64, 34
2, 118469, Note_on_c, 0, 71, 0
2, 118613, Note_on_c, 0, 52, 76
2, 118622, Note_on_c, 0, 48, 0
2, 118864, Note_on_c, 0, 45, 73
2, 118868, Note_on_c, 0, 70, 72
2, 118907, Control_c, 0, 64, 33
2, 118911, Note_on_c, 0, 52, 0
2, 118925, Control_c, 0, 64, 32
2, 118942, Control_c, 0, 64, 30
2, 118962, Control_c, 0, 64, 28
2, 118975, Note_on_c, 0, 72, 0
2, 118982, Control_c, 0, 64, 23
2, 119002, Control_c, 0, 64, 16
2, 119023, Control_c, 0, 64, 0
2, 119077, Control_c, 0, 64, 9
2, 119097, Control_c, 0, 64, 23
2, 119117, Control_c, 0, 64, 36
2, 119135, Control_c, 0, 64, 46
2, 119146, Note_on_c, 0, 48, 76
2, 119155, Control_c, 0, 64, 54
2, 119174, Control_c, 0, 64, 58
2, 119189, Note_on_c, 0, 45, 0
2, 119193, Control_c, 0, 64, 60
2, 119211, Control_c, 0, 64, 62
2, 119231, Control_c, 0, 64, 63
2, 119247, Note_on_c, 0, 55, 0
2, 119252, Control_c, 0, 64, 65
2, 119271, Control_c, 0, 64, 66
2, 119289, Control_c, 0, 64, 69
2, 119309, Control_c, 0, 64, 70
2, 119327, Control_c, 0, 64, 71
2, 119347, Control_c, 0, 64, 70
2, 119383, Control_c, 0, 64, 69
2, 119424, Control_c, 0, 64, 67
2, 119444, Control_c, 0, 64, 65
2, 119450, Note_on_c, 0, 41, 77
2, 119462, Control_c, 0, 64, 62
2, 119478, Note_on_c, 0, 69, 73
2, 119482, Control_c, 0, 64, 58
2, 119500, Control_c, 0, 64, 55
2, 119508, Note_on_c, 0, 48, 0
2, 119516, Note_on_c, 0, 70, 0
2, 119520, Control_c, 0, 64, 52
2, 119529, Note_on_c, 0, 76, 0
2, 119540, Control_c, 0, 64, 49
2, 119557, Control_c, 0, 64, 46
2, 119577, Control_c, 0, 64, 42
2, 119599, Control_c, 0, 64, 39
2, 119615, Control_c, 0, 64, 36
2, 119635, Control_c, 0, 64, 34
2, 119655, Control_c, 0, 64, 32
2, 119674, Control_c, 0, 64, 30
2, 119692, Control_c, 0, 64, 27
2, 119712, Control_c, 0, 64, 23
2, 119730, Control_c, 0, 64, 20
2, 119750, Control_c, 0, 64, 18
2, 119789, Note_on_c, 0, 76, 80
2, 119794, Control_c, 0, 64, 16
2, 119798, Note_on_c, 0, 48, 65
2, 119807, Control_c, 0, 64, 15
2, 119827, Control_c, 0, 64, 14
2, 119883, Control_c, 0, 64, 18
2, 119903, Control_c, 0, 64, 27
2, 119922, Control_c, 0, 64, 38
2, 119943, Control_c, 0, 64, 46
2, 119960, Control_c, 0, 64, 52
2, 119979, Control_c, 0, 64, 56
2, 120001, Control_c, 0, 64, 58
2, 120019, Control_c, 0, 64, 59
2, 120039, Control_c, 0, 64, 61
2, 120039, Note_on_c, 0, 50, 68
2, 120045, Note_on_c, 0, 74, 78
2, 120056, Control_c, 0, 64, 62
2, 120077, Control_c, 0, 64, 63
2, 120132, Control_c, 0, 64, 64
2, 120139, Note_on_c, 0, 76, 0
2, 120157, Control_c, 0, 64, 63
2, 120211, Note_on_c, 0, 41, 0
2, 120218, Note_on_c, 0, 48, 0
2, 120248, Control_c, 0, 64, 62
2, 120286, Note_on_c, 0, 72, 86
2, 120291, Control_c, 0, 64, 61
2, 120295, Note_on_c, 0, 52, 78
2, 120304, Note_on_c, 0, 50, 0
2, 120315, Note_on_c, 0, 69, 0
2, 120340, Note_on_c, 0, 74, 0
2, 120346, Control_c, 0, 64, 60
2, 120367, Control_c, 0, 64, 59
2, 120384, Control_c, 0, 64, 57
2, 120402, Control_c, 0, 64, 56
2, 120442, Control_c, 0, 64, 55
2, 120460, Control_c, 0, 64, 54
2, 120478, Control_c, 0, 64, 53
2, 120497, Control_c, 0, 64, 51
2, 120517, Control_c, 0, 64, 49
2, 120539, Note_on_c, 0, 74, 81
2, 120544, Control_c, 0, 64, 47
2, 120544, Note_on_c, 0, 53, 75
2, 120555, Control_c, 0, 64, 45
2, 120569, Note_on_c, 0, 52, 0
2, 120578, Control_c, 0, 64, 44
2, 120596, Control_c, 0, 64, 42
2, 120613, Control_c, 0, 64, 41
2, 120633, Control_c, 0, 64, 40
2, 120653, Control_c, 0, 64, 39
2, 120749, Control_c, 0, 64, 38
2, 120777, Note_on_c, 0, 77, 81
2, 120786, Note_on_c, 0, 72, 0
2, 120790, Control_c, 0, 64, 37
2, 120799, Note_on_c, 0, 57, 70
2, 120872, Note_on_c, 0, 57, 0
2, 120884, Control_c, 0, 64, 36
2, 120937, Note_on_c, 0, 77, 0
2, 120941, Control_c, 0, 64, 35
2, 120958, Control_c, 0, 64, 34
2, 120981, Control_c, 0, 64, 33
2, 120996, Control_c, 0, 64, 32
2, 121018, Control_c, 0, 64, 30
2, 121037, Control_c, 0, 64, 28
2, 121056, Control_c, 0, 64, 26
2, 121061, Note_on_c, 0, 81, 81
2, 121065, Note_on_c, 0, 62, 72
2, 121078, Control_c, 0, 64, 25
2, 121088, Note_on_c, 0, 74, 0
2, 121115, Control_c, 0, 64, 29
2, 121131, Control_c, 0, 64, 38
2, 121152, Control_c, 0, 64, 47
2, 121173, Control_c, 0, 64, 54
2, 121191, Control_c, 0, 64, 58
2, 121209, Control_c, 0, 64, 60
2, 121228, Control_c, 0, 64, 62
2, 121248, Control_c, 0, 64, 64
2, 121267, Control_c, 0, 64, 67
2, 121285, Control_c, 0, 64, 73
2, 121305, Control_c, 0, 64, 84
2, 121309, Note_on_c, 0, 69, 73
2, 121314, Note_on_c, 0, 72, 83
2, 121326, Control_c, 0, 64, 99
2, 121347, Control_c, 0, 64, 127
2, 121409, Note_on_c, 0, 69, 0
2, 121422, Note_on_c, 0, 72, 0
2, 121639, Note_on_c, 0, 71, 80
2, 121646, Note_on_c, 0, 67, 74
2, 121653, Control_c, 0, 64, 95
2, 121670, Control_c, 0, 64, 83
2, 121689, Control_c, 0, 64, 78
2, 121706, Control_c, 0, 64, 76
2, 121726, Control_c, 0, 64, 74
2, 121749, Control_c, 0, 64, 70
2, 121766, Control_c, 0, 64, 65
2, 121784, Control_c, 0, 64, 60
2, 121792, Note_on_c, 0, 81, 0
2, 121806, Control_c, 0, 64, 57
2, 121879, Control_c, 0, 64, 56
2, 121921, Control_c, 0, 64, 55
2, 121968, Note_on_c, 0, 57, 75
2, 122024, Note_on_c, 0, 53, 0
2, 122035, Control_c, 0, 64, 54
2, 122230, Note_on_c, 0, 55, 76
2, 122283, Note_on_c, 0, 57, 0
2, 122368, Note_on_c, 0, 67, 0
2, 122440, Note_on_c, 0, 62, 0
2, 122465, Note_on_c, 0, 53, 72
2, 122490, Note_on_c, 0, 55, 0
2, 122573, Control_c, 0, 64, 53
2, 122718, Note_on_c, 0, 52, 70
2, 122722, Note_on_c, 0, 64, 73
2, 122722, Note_on_c, 0, 72, 80
2, 122727, Control_c, 0, 64, 52
2, 122729, Note_on_c, 0, 67, 70
2, 122776, Note_on_c, 0, 53, 0
2, 122776, Note_on_c, 0, 71, 0
2, 122803, Control_c, 0, 64, 51
2, 122841, Control_c, 0, 64, 50
2, 122878, Control_c, 0, 64, 49
2, 122938, Control_c, 0, 64, 50
2, 122949, Note_on_c, 0, 52, 0
2, 122955, Control_c, 0, 64, 54
2, 122978, Control_c, 0, 64, 58
2, 122990, Note_on_c, 0, 55, 73
2, 122997, Control_c, 0, 64, 60
2, 123017, Control_c, 0, 64, 62
2, 123033, Control_c, 0, 64, 64
2, 123053, Control_c, 0, 64, 65
2, 123075, Control_c, 0, 64, 68
2, 123092, Control_c, 0, 64, 70
2, 123110, Control_c, 0, 64, 71
2, 123130, Control_c, 0, 64, 72
2, 123150, Control_c, 0, 64, 71
2, 123208, Control_c, 0, 64, 70
2, 123226, Control_c, 0, 64, 69
2, 123235, Note_on_c, 0, 48, 75
2, 123249, Control_c, 0, 64, 67
2, 123249, Note_on_c, 0, 55, 0
2, 123268, Control_c, 0, 64, 64
2, 123286, Control_c, 0, 64, 59
2, 123302, Control_c, 0, 64, 54
2, 123321, Control_c, 0, 64, 49
2, 123341, Control_c, 0, 64, 46
2, 123362, Control_c, 0, 64, 44
2, 123399, Control_c, 0, 64, 48
2, 123420, Control_c, 0, 64, 56
2, 123439, Control_c, 0, 64, 62
2, 123444, Note_on_c, 0, 64, 0
2, 123457, Control_c, 0, 64, 63
2, 123477, Control_c, 0, 64, 65
2, 123494, Control_c, 0, 64, 69
2, 123501, Note_on_c, 0, 52, 77
2, 123514, Note_on_c, 0, 48, 0
2, 123514, Note_on_c, 0, 67, 0
2, 123520, Control_c, 0, 64, 77
2, 123534, Control_c, 0, 64, 98
2, 123554, Control_c, 0, 64, 127
2, 123747, Note_on_c, 0, 52, 0
2, 123804, Control_c, 0, 64, 103
2, 123810, Note_on_c, 0, 43, 82
2, 123822, Control_c, 0, 64, 90
2, 123841, Control_c, 0, 64, 77
2, 123860, Control_c, 0, 64, 68
2, 123879, Control_c, 0, 64, 62
2, 123898, Control_c, 0, 64, 57
2, 123920, Control_c, 0, 64, 54
2, 123937, Control_c, 0, 64, 53
2, 123957, Control_c, 0, 64, 51
2, 123974, Control_c, 0, 64, 49
2, 123994, Control_c, 0, 64, 47
2, 124013, Control_c, 0, 64, 45
2, 124033, Control_c, 0, 64, 44
2, 124073, Control_c, 0, 64, 43
2, 124133, Note_on_c, 0, 67, 70
2, 124144, Note_on_c, 0, 52, 62
2, 124394, Note_on_c, 0, 65, 68
2, 124399, Note_on_c, 0, 50, 67
2, 124436, Control_c, 0, 64, 42
2, 124492, Note_on_c, 0, 52, 0
2, 124595, Note_on_c, 0, 67, 0
2, 124628, Control_c, 0, 64, 41
2, 124637, Note_on_c, 0, 64, 77
2, 124639, Note_on_c, 0, 48, 71
2, 124665, Note_on_c, 0, 50, 0
2, 124682, Note_on_c, 0, 65, 0
2, 124821, Control_c, 0, 64, 40
2, 124926, Note_on_c, 0, 55, 69
2, 124926, Note_on_c, 0, 62, 75
2, 124951, Note_on_c, 0, 64, 0
2, 124955, Control_c, 0, 64, 39
2, 125004, Note_on_c, 0, 48, 0
2, 125203, Note_on_c, 0, 64, 78
2, 125208, Note_on_c, 0, 62, 0
2, 125243, Control_c, 0, 64, 41
2, 125261, Control_c, 0, 64, 43
2, 125280, Control_c, 0, 64, 45
2, 125300, Control_c, 0, 64, 46
2, 125321, Control_c, 0, 64, 47
2, 125338, Control_c, 0, 64, 48
2, 125360, Control_c, 0, 64, 49
2, 125397, Control_c, 0, 64, 50
2, 125434, Control_c, 0, 64, 51
2, 125456, Control_c, 0, 64, 52
2, 125473, Control_c, 0, 64, 53
2, 125493, Note_on_c, 0, 65, 76
2, 125511, Control_c, 0, 64, 54
2, 125532, Control_c, 0, 64, 55
2, 125550, Control_c, 0, 64, 57
2, 125559, Note_on_c, 0, 72, 0
2, 125563, Note_on_c, 0, 64, 0
2, 125568, Control_c, 0, 64, 58
2, 125588, Control_c, 0, 64, 59
2, 125608, Control_c, 0, 64, 60
2, 125626, Control_c, 0, 64, 61
2, 125665, Control_c, 0, 64, 62
2, 125687, Control_c, 0, 64, 63
2, 125725, Control_c, 0, 64, 64
2, 125781, Note_on_c, 0, 71, 84
2, 125801, Control_c, 0, 64, 65
2, 125972, Control_c, 0, 64, 64
2, 126109, Control_c, 0, 64, 63
2, 126164, Control_c, 0, 64, 62
2, 126164, Note_on_c, 0, 72, 84
2, 126182, Control_c, 0, 64, 60
2, 126188, Note_on_c, 0, 48, 56
2, 126204, Control_c, 0, 64, 58
2, 126213, Note_on_c, 0, 71, 0
2, 126218, Note_on_c, 0, 65, 0
2, 126222, Control_c, 0, 64, 56
2, 126227, Note_on_c, 0, 43, 0
2, 126242, Control_c, 0, 64, 54
2, 126260, Control_c, 0, 64, 53
2, 126280, Control_c, 0, 64, 52
2, 126299, Control_c, 0, 64, 51
2, 126317, Control_c, 0, 64, 50
2, 126337, Control_c, 0, 64, 49
2, 126374, Control_c, 0, 64, 48
2, 126414, Control_c, 0, 64, 47
2, 126503, Note_on_c, 0, 65, 60
2, 126512, Control_c, 0, 64, 46
2, 126763, Note_on_c, 0, 64, 74
2, 126779, Control_c, 0, 64, 45
2, 126799, Note_on_c, 0, 65, 0
2, 126996, Note_on_c, 0, 62, 79
2, 127027, Note_on_c, 0, 64, 0
2, 127268, Note_on_c, 0, 64, 80
2, 127294, Note_on_c, 0, 62, 0
2, 127535, Note_on_c, 0, 67, 68
2, 127548, Note_on_c, 0, 64, 0
2, 127626, Control_c, 0, 64, 44
2, 127786, Note_on_c, 0, 60, 64
2, 127825, Note_on_c, 0, 67, 0
2, 128048, Note_on_c, 0, 64, 66
2, 128098, Note_on_c, 0, 60, 0
2, 128284, Note_on_c, 0, 64, 0
2, 128315, Note_on_c, 0, 72, 0
2, 128324, Note_on_c, 0, 57, 64
2, 128376, Note_on_c, 0, 55, 0
2, 128572, Note_on_c, 0, 72, 83
2, 128821, Note_on_c, 0, 74, 78
2, 128830, Note_on_c, 0, 53, 55
2, 128907, Note_on_c, 0, 72, 0
2, 128927, Note_on_c, 0, 57, 0
2, 129065, Note_on_c, 0, 76, 86
2, 129079, Note_on_c, 0, 52, 57
2, 129108, Note_on_c, 0, 53, 0
2, 129343, Note_on_c, 0, 77, 76
2, 129354, Note_on_c, 0, 50, 49
2, 129356, Note_on_c, 0, 52, 0
2, 129389, Note_on_c, 0, 74, 0
2, 129440, Note_on_c, 0, 76, 0
2, 129601, Note_on_c, 0, 52, 55
2, 129604, Note_on_c, 0, 81, 74
2, 129668, Note_on_c, 0, 77, 0
2, 129842, Note_on_c, 0, 52, 0
2, 129855, Note_on_c, 0, 53, 54
2, 129857, Note_on_c, 0, 74, 70
2, 129871, Control_c, 0, 64, 43
2, 129888, Control_c, 0, 64, 42
2, 129904, Note_on_c, 0, 81, 0
2, 129907, Control_c, 0, 64, 40
2, 129929, Control_c, 0, 64, 37
2, 129945, Control_c, 0, 64, 29
2, 129967, Control_c, 0, 64, 9
2, 129986, Control_c, 0, 64, 0
2, 130062, Control_c, 0, 64, 26
2, 130081, Control_c, 0, 64, 47
2, 130101, Control_c, 0, 64, 59
2, 130101, Note_on_c, 0, 77, 76
2, 130116, Note_on_c, 0, 74, 0
2, 130121, Control_c, 0, 64, 63
2, 130141, Control_c, 0, 64, 65
2, 130158, Control_c, 0, 64, 71
2, 130169, Note_on_c, 0, 77, 0
2, 130179, Control_c, 0, 64, 88
2, 130196, Control_c, 0, 64, 127
2, 130415, Note_on_c, 0, 70, 73
2, 130433, Note_on_c, 0, 55, 52
2, 130446, Control_c, 0, 64, 113
2, 130464, Control_c, 0, 64, 93
2, 130473, Note_on_c, 0, 53, 0
2, 130484, Control_c, 0, 64, 78
2, 130503, Control_c, 0, 64, 69
2, 130525, Control_c, 0, 64, 64
2, 130540, Control_c, 0, 64, 62
2, 130560, Control_c, 0, 64, 61
2, 130580, Control_c, 0, 64, 60
2, 130601, Control_c, 0, 64, 58
2, 130619, Control_c, 0, 64, 57
2, 130640, Control_c, 0, 64, 55
2, 130658, Control_c, 0, 64, 53
2, 130677, Control_c, 0, 64, 52
2, 130693, Note_on_c, 0, 69, 51
2, 130717, Control_c, 0, 64, 51
2, 130732, Control_c, 0, 64, 50
2, 130775, Control_c, 0, 64, 49
2, 130809, Control_c, 0, 64, 48
2, 130867, Control_c, 0, 64, 47
2, 130906, Control_c, 0, 64, 46
2, 130937, Note_on_c, 0, 67, 61
2, 130944, Note_on_c, 0, 52, 50
2, 130963, Note_on_c, 0, 50, 0
2, 130984, Control_c, 0, 64, 45
2, 131108, Note_on_c, 0, 69, 0
2, 131117, Control_c, 0, 64, 44
2, 131166, Note_on_c, 0, 52, 0
2, 131179, Note_on_c, 0, 65, 59
2, 131184, Note_on_c, 0, 50, 42
2, 131210, Note_on_c, 0, 67, 0
2, 131241, Note_on_c, 0, 48, 0
2, 131328, Control_c, 0, 64, 43
2, 131444, Note_on_c, 0, 52, 53
2, 131462, Note_on_c, 0, 67, 63
2, 131471, Note_on_c, 0, 50, 0
2, 131487, Note_on_c, 0, 70, 0
2, 131599, Control_c, 0, 64, 42
2, 131635, Note_on_c, 0, 65, 0
2, 131699, Note_on_c, 0, 53, 51
2, 131699, Note_on_c, 0, 70, 65
2, 131708, Note_on_c, 0, 67, 0
2, 131717, Note_on_c, 0, 55, 0
2, 131753, Control_c, 0, 64, 41
2, 131952, Note_on_c, 0, 53, 0
2, 131961, Note_on_c, 0, 64, 59
2, 131974, Note_on_c, 0, 55, 51
2, 132001, Control_c, 0, 64, 40
2, 132040, Control_c, 0, 64, 39
2, 132058, Control_c, 0, 64, 38
2, 132079, Control_c, 0, 64, 36
2, 132095, Note_on_c, 0, 70, 0
2, 132099, Control_c, 0, 64, 34
2, 132114, Control_c, 0, 64, 32
2, 132134, Control_c, 0, 64, 31
2, 132157, Control_c, 0, 64, 32
2, 132175, Control_c, 0, 64, 37
2, 132193, Control_c, 0, 64, 45
2, 132211, Control_c, 0, 64, 54
2, 132219, Note_on_c, 0, 67, 59
2, 132231, Control_c, 0, 64, 60
2, 132240, Note_on_c, 0, 55, 0
2, 132251, Control_c, 0, 64, 62
2, 132269, Control_c, 0, 64, 65
2, 132288, Control_c, 0, 64, 68
2, 132310, Control_c, 0, 64, 75
2, 132327, Control_c, 0, 64, 87
2, 132347, Control_c, 0, 64, 97
2, 132368, Control_c, 0, 64, 100
2, 132368, Note_on_c, 0, 64, 0
2, 132386, Control_c, 0, 64, 99
2, 132403, Control_c, 0, 64, 94
2, 132423, Control_c, 0, 64, 91
2, 132443, Control_c, 0, 64, 88
2, 132463, Note_on_c, 0, 67, 0
2, 132467, Control_c, 0, 64, 86
2, 132481, Control_c, 0, 64, 81
2, 132488, Note_on_c, 0, 53, 47
2, 132492, Note_on_c, 0, 60, 59
2, 132502, Control_c, 0, 64, 74
2, 132502, Note_on_c, 0, 57, 48
2, 132521, Control_c, 0, 64, 64
2, 132538, Control_c, 0, 64, 57
2, 132554, Note_on_c, 0, 52, 0
2, 132558, Control_c, 0, 64, 52
2, 132577, Control_c, 0, 64, 49
2, 132597, Control_c, 0, 64, 46
2, 132615, Control_c, 0, 64, 42
2, 132637, Control_c, 0, 64, 37
2, 132655, Control_c, 0, 64, 36
2, 132675, Control_c, 0, 64, 41
2, 132692, Control_c, 0, 64, 53
2, 132709, Control_c, 0, 64, 61
2, 132730, Control_c, 0, 64, 64
2, 132753, Control_c, 0, 64, 67
2, 132753, Note_on_c, 0, 57, 0
2, 132758, Note_on_c, 0, 64, 60
2, 132769, Control_c, 0, 64, 74
2, 132789, Control_c, 0, 64, 94
2, 132798, Note_on_c, 0, 60, 0
2, 132811, Control_c, 0, 64, 127
2, 132981, Control_c, 0, 64, 120
2, 132998, Control_c, 0, 64, 89
2, 133014, Note_on_c, 0, 65, 66
2, 133018, Control_c, 0, 64, 74
2, 133027, Note_on_c, 0, 52, 55
2, 133032, Note_on_c, 0, 55, 47
2, 133038, Control_c, 0, 64, 64
2, 133056, Control_c, 0, 64, 58
2, 133063, Note_on_c, 0, 53, 0
2, 133078, Control_c, 0, 64, 54
2, 133095, Control_c, 0, 64, 51
2, 133113, Control_c, 0, 64, 48
2, 133133, Control_c, 0, 64, 44
2, 133151, Control_c, 0, 64, 39
2, 133173, Control_c, 0, 64, 36
2, 133188, Note_on_c, 0, 64, 0
2, 133193, Control_c, 0, 64, 35
2, 133210, Control_c, 0, 64, 37
2, 133229, Control_c, 0, 64, 43
2, 133249, Control_c, 0, 64, 53
2, 133268, Control_c, 0, 64, 59
2, 133278, Note_on_c, 0, 67, 72
2, 133287, Control_c, 0, 64, 62
2, 133305, Control_c, 0, 64, 64
2, 133330, Control_c, 0, 64, 66
2, 133330, Note_on_c, 0, 65, 0
2, 133348, Control_c, 0, 64, 71
2, 133364, Control_c, 0, 64, 80
2, 133384, Control_c, 0, 64, 93
2, 133402, Control_c, 0, 64, 103
2, 133425, Control_c, 0, 64, 104
2, 133440, Control_c, 0, 64, 103
2, 133459, Control_c, 0, 64, 98
2, 133480, Control_c, 0, 64, 93
2, 133495, Note_on_c, 0, 55, 0
2, 133499, Control_c, 0, 64, 90
2, 133516, Control_c, 0, 64, 86
2, 133536, Control_c, 0, 64, 80
2, 133558, Control_c, 0, 64, 71
2, 133576, Control_c, 0, 64, 64
2, 133596, Control_c, 0, 64, 57
2, 133596, Note_on_c, 0, 52, 0
2, 133606, Note_on_c, 0, 50, 46
2, 133606, Note_on_c, 0, 69, 65
2, 133613, Control_c, 0, 64, 52
2, 133613, Note_on_c, 0, 53, 48
2, 133633, Control_c, 0, 64, 48
2, 133653, Control_c, 0, 64, 42
2, 133658, Note_on_c, 0, 67, 0
2, 133672, Control_c, 0, 64, 34
2, 133691, Control_c, 0, 64, 24
2, 133709, Control_c, 0, 64, 20
2, 133749, Control_c, 0, 64, 23
2, 133767, Control_c, 0, 64, 33
2, 133785, Control_c, 0, 64, 46
2, 133805, Control_c, 0, 64, 55
2, 133826, Control_c, 0, 64, 58
2, 133844, Control_c, 0, 64, 59
2, 133864, Control_c, 0, 64, 60
2, 133882, Control_c, 0, 64, 62
2, 133902, Control_c, 0, 64, 63
2, 133929, Note_on_c, 0, 65, 51
2, 133978, Control_c, 0, 64, 64
2, 134094, Control_c, 0, 64, 63
2, 134133, Control_c, 0, 64, 62
2, 134151, Control_c, 0, 64, 60
2, 134173, Control_c, 0, 64, 56
2, 134189, Control_c, 0, 64, 51
2, 134209, Control_c, 0, 64, 43
2, 134227, Control_c, 0, 64, 29
2, 134249, Control_c, 0, 64, 0
2, 134281, Note_on_c, 0, 56, 47
2, 134285, Note_on_c, 0, 62, 52
2, 134333, Note_on_c, 0, 69, 0
2, 134458, Control_c, 0, 64, 36
2, 134479, Control_c, 0, 64, 60
2, 134497, Control_c, 0, 64, 68
2, 134517, Control_c, 0, 64, 74
2, 134535, Control_c, 0, 64, 84
2, 134554, Control_c, 0, 64, 102
2, 134575, Control_c, 0, 64, 127
2, 134622, Note_on_c, 0, 56, 0
2, 134644, Note_on_c, 0, 71, 63
2, 134716, Note_on_c, 0, 65, 0
2, 134740, Note_on_c, 0, 53, 0
2, 134759, Note_on_c, 0, 62, 0
2, 134759, Note_on_c, 0, 71, 0
2, 134803, Note_on_c, 0, 50, 0
2, 135197, Note_on_c, 0, 67, 51
2, 135201, Note_on_c, 0, 72, 62
2, 135208, Note_on_c, 0, 64, 47
2, 135227, Control_c, 0, 64, 101
2, 135232, Note_on_c, 0, 60, 35
2, 135239, Note_on_c, 0, 55, 28
2, 135245, Note_on_c, 0, 48, 30
2, 135250, Control_c, 0, 64, 82
2, 135258, Note_on_c, 0, 52, 26
2, 135265, Control_c, 0, 64, 68
2, 135283, Control_c, 0, 64, 60
2, 135302, Control_c, 0, 64, 53
2, 135324, Control_c, 0, 64, 47
2, 135342, Control_c, 0, 64, 45
2, 135361, Control_c, 0, 64, 43
2, 135380, Control_c, 0, 64, 42
2, 135400, Control_c, 0, 64, 38
2, 135422, Control_c, 0, 64, 35
2, 135439, Control_c, 0, 64, 34
2, 135457, Control_c, 0, 64, 33
2, 135476, Control_c, 0, 64, 32
2, 135629, Control_c, 0, 64, 33
2, 135707, Control_c, 0, 64, 34
2, 135743, Control_c, 0, 64, 35
2, 135938, Control_c, 0, 64, 36
2, 136433, Control_c, 0, 64, 37
2, 136741, Control_c, 0, 64, 38
2, 136933, Control_c, 0, 64, 39
2, 137028, Control_c, 0, 64, 40
2, 137124, Control_c, 0, 64, 41
2, 137184, Control_c, 0, 64, 42
2, 138567, Note_on_c, 0, 60, 0
2, 138573, Note_on_c, 0, 55, 0
2, 138578, Note_on_c, 0, 48, 0
2, 138595, Note_on_c, 0, 52, 0
2, 138600, Note_on_c, 0, 64, 0
2, 138608, Note_on_c, 0, 72, 0
2, 138615, Note_on_c, 0, 67, 0
2, 139372, Control_c, 0, 64, 43
2, 139449, Control_c, 0, 64, 44
2, 141013,End_track
0, 0, End_of_file
