0, 0, Header, 1, 2, 480
1, 0, Start_track
1, 0, Tempo, 500000
1, 0, Time_signature, 4, 2, 24, 8
1, 1, End_track
2,0,Start_track
2,0, Note_on_c, 0, 67, 76
2,88, Note_on_c, 0, 65, 76
2,88, Note_on_c, 0, 67, 0
2,164, Control_c, 0, 64, 43
2,184, Control_c, 0, 64, 42
2,192, Note_on_c, 0, 67, 91
2,201, Control_c, 0, 64, 41
2,205, Note_on_c, 0, 65, 0
2,221, Control_c, 0, 64, 39
2,230, Note_on_c, 0, 67, 0
2,241, Control_c, 0, 64, 35
2,259, Control_c, 0, 64, 28
2,277, Control_c, 0, 64, 13
2,299, Control_c, 0, 64, 0
2,445, Note_on_c, 0, 60, 79
2,474, Note_on_c, 0, 60, 0
2,722, Note_on_c, 0, 69, 76
2,769, Note_on_c, 0, 69, 0
2,773, Note_on_c, 0, 67, 85
2,831, Note_on_c, 0, 69, 76
2,845, Note_on_c, 0, 67, 0
2,1319, Note_on_c, 0, 67, 72
2,1346, Note_on_c, 0, 69, 0
2,1546, Control_c, 0, 64, 9
2,1566, Control_c, 0, 64, 10
2,1622, Control_c, 0, 64, 11
2,1737, Control_c, 0, 64, 13
2,2006, Control_c, 0, 64, 15
2,2053, Note_on_c, 0, 67, 0
2,2068, Note_on_c, 0, 65, 61
2,2139, Note_on_c, 0, 65, 0
2,2175, Note_on_c, 0, 64, 69
2,2283, Note_on_c, 0, 64, 0
2,2296, Note_on_c, 0, 65, 69
2,2362, Note_on_c, 0, 65, 0
2,2413, Note_on_c, 0, 67, 71
2,2451, Control_c, 0, 64, 16
2,2522, Note_on_c, 0, 67, 0
2,2539, Note_on_c, 0, 64, 66
2,2601, Note_on_c, 0, 64, 0
2,2652, Note_on_c, 0, 65, 64
2,2712, Note_on_c, 0, 65, 0
2,2775, Note_on_c, 0, 62, 67
2,2845, Note_on_c, 0, 62, 0
2,2877, Note_on_c, 0, 65, 72
2,2949, Note_on_c, 0, 65, 0
2,3010, Note_on_c, 0, 64, 76
2,3109, Note_on_c, 0, 64, 0
2,3116, Note_on_c, 0, 65, 71
2,3160, Control_c, 0, 64, 17
2,3192, Note_on_c, 0, 65, 0
2,3252, Note_on_c, 0, 67, 78
2,3352, Note_on_c, 0, 67, 0
2,3356, Note_on_c, 0, 69, 72
2,3441, Note_on_c, 0, 69, 0
2,3465, Note_on_c, 0, 65, 73
2,3535, Note_on_c, 0, 65, 0
2,3599, Note_on_c, 0, 67, 73
2,3703, Note_on_c, 0, 67, 0
2,3715, Note_on_c, 0, 64, 74
2,3815, Note_on_c, 0, 64, 0
2,3833, Note_on_c, 0, 62, 71
2,3932, Note_on_c, 0, 62, 0
2,3943, Note_on_c, 0, 72, 80
2,3947, Note_on_c, 0, 64, 69
2,3997, Note_on_c, 0, 64, 0
2,4045, Note_on_c, 0, 71, 85
2,4056, Note_on_c, 0, 65, 60
2,4056, Note_on_c, 0, 72, 0
2,4111, Note_on_c, 0, 65, 0
2,4154, Note_on_c, 0, 64, 72
2,4164, Note_on_c, 0, 72, 87
2,4169, Note_on_c, 0, 71, 0
2,4189, Note_on_c, 0, 72, 0
2,4205, Note_on_c, 0, 64, 0
2,4262, Note_on_c, 0, 65, 63
2,4337, Note_on_c, 0, 65, 0
2,4397, Note_on_c, 0, 62, 65
2,4404, Note_on_c, 0, 67, 77
2,4432, Note_on_c, 0, 62, 0
2,4437, Note_on_c, 0, 67, 0
2,4505, Note_on_c, 0, 64, 64
2,4584, Note_on_c, 0, 64, 0
2,4623, Note_on_c, 0, 76, 89
2,4635, Note_on_c, 0, 60, 62
2,4680, Note_on_c, 0, 74, 87
2,4684, Note_on_c, 0, 76, 0
2,4728, Note_on_c, 0, 60, 0
2,4742, Note_on_c, 0, 76, 84
2,4769, Note_on_c, 0, 59, 62
2,4784, Note_on_c, 0, 74, 0
2,4872, Note_on_c, 0, 59, 0
2,4881, Note_on_c, 0, 60, 60
2,4949, Note_on_c, 0, 60, 0
2,5012, Note_on_c, 0, 62, 60
2,5044, Note_on_c, 0, 76, 0
2,5107, Note_on_c, 0, 62, 0
2,5107, Note_on_c, 0, 74, 77
2,5127, Note_on_c, 0, 60, 68
2,5178, Note_on_c, 0, 60, 0
2,5251, Control_c, 0, 64, 18
2,5251, Note_on_c, 0, 62, 71
2,5331, Note_on_c, 0, 62, 0
2,5380, Note_on_c, 0, 59, 55
2,5453, Note_on_c, 0, 59, 0
2,5480, Note_on_c, 0, 60, 67
2,5532, Note_on_c, 0, 60, 0
2,5587, Note_on_c, 0, 57, 73
2,5695, Note_on_c, 0, 57, 0
2,5706, Note_on_c, 0, 74, 0
2,5713, Note_on_c, 0, 59, 64
2,5812, Note_on_c, 0, 59, 0
2,5835, Note_on_c, 0, 60, 64
2,5839, Note_on_c, 0, 72, 81
2,5931, Note_on_c, 0, 71, 82
2,5940, Note_on_c, 0, 72, 0
2,5944, Note_on_c, 0, 60, 0
2,5953, Note_on_c, 0, 62, 70
2,6010, Note_on_c, 0, 62, 0
2,6064, Note_on_c, 0, 72, 86
2,6074, Note_on_c, 0, 64, 64
2,6090, Note_on_c, 0, 71, 0
2,6160, Note_on_c, 0, 64, 0
2,6162, Note_on_c, 0, 66, 72
2,6167, Note_on_c, 0, 74, 77
2,6191, Note_on_c, 0, 72, 0
2,6252, Note_on_c, 0, 66, 0
2,6294, Note_on_c, 0, 67, 74
2,6308, Note_on_c, 0, 71, 76
2,6308, Note_on_c, 0, 74, 0
2,6425, Note_on_c, 0, 72, 82
2,6436, Note_on_c, 0, 71, 0
2,6512, Note_on_c, 0, 72, 0
2,6563, Note_on_c, 0, 69, 65
2,6659, Note_on_c, 0, 72, 73
2,6668, Note_on_c, 0, 69, 0
2,6743, Note_on_c, 0, 72, 0
2,6773, Note_on_c, 0, 67, 0
2,6784, Note_on_c, 0, 71, 73
2,6789, Note_on_c, 0, 66, 61
2,6850, Note_on_c, 0, 66, 0
2,6892, Note_on_c, 0, 72, 77
2,6897, Note_on_c, 0, 64, 64
2,6933, Note_on_c, 0, 71, 0
2,6937, Note_on_c, 0, 72, 0
2,7002, Note_on_c, 0, 66, 74
2,7013, Note_on_c, 0, 74, 78
2,7020, Note_on_c, 0, 64, 0
2,7039, Note_on_c, 0, 66, 0
2,7076, Note_on_c, 0, 67, 77
2,7104, Note_on_c, 0, 76, 79
2,7124, Note_on_c, 0, 74, 0
2,7149, Note_on_c, 0, 66, 75
2,7158, Note_on_c, 0, 67, 0
2,7203, Note_on_c, 0, 72, 80
2,7203, Note_on_c, 0, 76, 0
2,7247, Note_on_c, 0, 72, 0
2,7299, Note_on_c, 0, 74, 76
2,7361, Note_on_c, 0, 66, 0
2,7366, Note_on_c, 0, 74, 0
2,7429, Note_on_c, 0, 71, 78
2,7435, Note_on_c, 0, 67, 76
2,7553, Note_on_c, 0, 69, 69
2,7553, Note_on_c, 0, 71, 0
2,7685, Note_on_c, 0, 71, 69
2,7692, Note_on_c, 0, 69, 0
2,7698, Note_on_c, 0, 55, 68
2,7760, Note_on_c, 0, 55, 0
2,7771, Note_on_c, 0, 71, 0
2,7785, Note_on_c, 0, 72, 68
2,7796, Note_on_c, 0, 53, 74
2,7871, Note_on_c, 0, 72, 0
2,7876, Note_on_c, 0, 53, 0
2,7906, Note_on_c, 0, 55, 85
2,7913, Note_on_c, 0, 71, 61
2,7945, Note_on_c, 0, 55, 0
2,7970, Note_on_c, 0, 71, 0
2,7993, Control_c, 0, 64, 17
2,8018, Note_on_c, 0, 72, 64
2,8148, Note_on_c, 0, 48, 75
2,8164, Note_on_c, 0, 72, 0
2,8168, Note_on_c, 0, 69, 63
2,8182, Note_on_c, 0, 48, 0
2,8220, Note_on_c, 0, 67, 0
2,8280, Note_on_c, 0, 71, 74
2,8285, Note_on_c, 0, 69, 0
2,8354, Note_on_c, 0, 71, 0
2,8391, Note_on_c, 0, 57, 75
2,8406, Note_on_c, 0, 72, 81
2,8437, Note_on_c, 0, 57, 0
2,8455, Note_on_c, 0, 55, 77
2,8475, Control_c, 0, 64, 16
2,8508, Note_on_c, 0, 57, 73
2,8512, Note_on_c, 0, 55, 0
2,8523, Note_on_c, 0, 64, 70
2,8628, Note_on_c, 0, 72, 0
2,8650, Note_on_c, 0, 65, 58
2,8771, Note_on_c, 0, 64, 0
2,8787, Note_on_c, 0, 69, 62
2,8802, Note_on_c, 0, 65, 0
2,8820, Control_c, 0, 64, 17
2,8859, Control_c, 0, 64, 18
2,8910, Note_on_c, 0, 57, 0
2,8918, Note_on_c, 0, 69, 0
2,8923, Note_on_c, 0, 70, 78
2,8931, Note_on_c, 0, 55, 66
2,8935, Control_c, 0, 64, 19
2,9061, Note_on_c, 0, 62, 62
2,9082, Note_on_c, 0, 70, 0
2,9174, Note_on_c, 0, 62, 0
2,9180, Note_on_c, 0, 64, 61
2,9238, Note_on_c, 0, 64, 0
2,9282, Note_on_c, 0, 67, 67
2,9358, Note_on_c, 0, 67, 0
2,9418, Note_on_c, 0, 69, 75
2,9435, Control_c, 0, 64, 20
2,9645, Note_on_c, 0, 69, 0
2,9650, Note_on_c, 0, 55, 0
2,9681, Note_on_c, 0, 53, 55
2,9690, Note_on_c, 0, 62, 72
2,9734, Note_on_c, 0, 53, 0
2,9802, Note_on_c, 0, 52, 56
2,9882, Note_on_c, 0, 52, 0
2,9898, Note_on_c, 0, 62, 0
2,9909, Note_on_c, 0, 53, 56
2,9925, Note_on_c, 0, 67, 62
2,9930, Note_on_c, 0, 71, 69
2,9957, Note_on_c, 0, 53, 0
2,10025, Note_on_c, 0, 55, 59
2,10117, Note_on_c, 0, 55, 0
2,10167, Note_on_c, 0, 52, 46
2,10178, Note_on_c, 0, 72, 78
2,10208, Note_on_c, 0, 71, 0
2,10235, Note_on_c, 0, 52, 0
2,10288, Note_on_c, 0, 67, 0
2,10292, Note_on_c, 0, 53, 54
2,10338, Note_on_c, 0, 53, 0
2,10411, Note_on_c, 0, 50, 60
2,10420, Note_on_c, 0, 65, 59
2,10444, Note_on_c, 0, 72, 0
2,10478, Note_on_c, 0, 50, 0
2,10522, Note_on_c, 0, 53, 55
2,10527, Note_on_c, 0, 69, 64
2,10531, Note_on_c, 0, 65, 0
2,10589, Note_on_c, 0, 53, 0
2,10598, Note_on_c, 0, 69, 0
2,10666, Note_on_c, 0, 52, 57
2,10666, Note_on_c, 0, 67, 65
2,10668, Note_on_c, 0, 72, 71
2,10721, Note_on_c, 0, 67, 0
2,10761, Note_on_c, 0, 52, 0
2,10779, Note_on_c, 0, 53, 61
2,10783, Note_on_c, 0, 69, 66
2,10831, Note_on_c, 0, 53, 0
2,10859, Note_on_c, 0, 69, 0
2,10910, Note_on_c, 0, 55, 59
2,10910, Note_on_c, 0, 62, 78
2,10977, Note_on_c, 0, 55, 0
2,11015, Note_on_c, 0, 57, 67
2,11075, Note_on_c, 0, 57, 0
2,11125, Note_on_c, 0, 53, 62
2,11162, Control_c, 0, 64, 19
2,11166, Note_on_c, 0, 71, 73
2,11174, Note_on_c, 0, 53, 0
2,11174, Note_on_c, 0, 72, 0
2,11182, Control_c, 0, 64, 18
2,11187, Note_on_c, 0, 62, 0
2,11207, Note_on_c, 0, 70, 31
2,11218, Control_c, 0, 64, 16
2,11225, Note_on_c, 0, 71, 0
2,11241, Control_c, 0, 64, 11
2,11245, Note_on_c, 0, 70, 0
2,11251, Note_on_c, 0, 55, 63
2,11258, Control_c, 0, 64, 0
2,11349, Note_on_c, 0, 55, 0
2,11394, Note_on_c, 0, 52, 61
2,11405, Note_on_c, 0, 72, 85
2,11412, Control_c, 0, 64, 38
2,11412, Note_on_c, 0, 60, 66
2,11430, Control_c, 0, 64, 57
2,11448, Note_on_c, 0, 60, 0
2,11452, Control_c, 0, 64, 68
2,11452, Note_on_c, 0, 72, 0
2,11472, Control_c, 0, 64, 74
2,11488, Control_c, 0, 64, 85
2,11494, Note_on_c, 0, 52, 0
2,11507, Control_c, 0, 64, 92
2,11528, Control_c, 0, 64, 99
2,11528, Note_on_c, 0, 50, 63
2,11545, Control_c, 0, 64, 100
2,11563, Control_c, 0, 64, 98
2,11583, Control_c, 0, 64, 92
2,11603, Control_c, 0, 64, 89
2,11621, Control_c, 0, 64, 88
2,11633, Note_on_c, 0, 50, 0
2,11642, Control_c, 0, 64, 87
2,11646, Note_on_c, 0, 52, 64
2,11661, Control_c, 0, 64, 82
2,11666, Note_on_c, 0, 79, 80
2,11680, Control_c, 0, 64, 75
2,11700, Control_c, 0, 64, 68
2,11711, Note_on_c, 0, 52, 0
2,11718, Control_c, 0, 64, 62
2,11741, Control_c, 0, 64, 55
2,11749, Note_on_c, 0, 79, 0
2,11756, Note_on_c, 0, 77, 80
2,11760, Control_c, 0, 64, 49
2,11774, Note_on_c, 0, 53, 62
2,11775, Control_c, 0, 64, 44
2,11795, Control_c, 0, 64, 40
2,11815, Control_c, 0, 64, 37
2,11835, Control_c, 0, 64, 35
2,11843, Note_on_c, 0, 53, 0
2,11852, Control_c, 0, 64, 33
2,11873, Control_c, 0, 64, 30
2,11873, Note_on_c, 0, 79, 87
2,11878, Note_on_c, 0, 77, 0
2,11882, Note_on_c, 0, 52, 60
2,11891, Control_c, 0, 64, 29
2,11912, Control_c, 0, 64, 28
2,11912, Note_on_c, 0, 79, 0
2,11931, Control_c, 0, 64, 27
2,11931, Note_on_c, 0, 52, 0
2,11984, Note_on_c, 0, 53, 65
2,12051, Note_on_c, 0, 53, 0
2,12101, Control_c, 0, 64, 26
2,12112, Note_on_c, 0, 50, 55
2,12118, Note_on_c, 0, 72, 83
2,12150, Note_on_c, 0, 72, 0
2,12198, Note_on_c, 0, 50, 0
2,12218, Control_c, 0, 64, 25
2,12235, Note_on_c, 0, 52, 56
2,12307, Note_on_c, 0, 52, 0
2,12354, Note_on_c, 0, 53, 56
2,12367, Note_on_c, 0, 81, 88
2,12422, Note_on_c, 0, 53, 0
2,12483, Note_on_c, 0, 52, 53
2,12596, Note_on_c, 0, 52, 0
2,12629, Note_on_c, 0, 53, 64
2,12629, Note_on_c, 0, 72, 80
2,12638, Note_on_c, 0, 81, 0
2,12677, Note_on_c, 0, 53, 0
2,12712, Note_on_c, 0, 72, 0
2,12740, Note_on_c, 0, 71, 69
2,12745, Note_on_c, 0, 55, 59
2,12800, Note_on_c, 0, 55, 0
2,12856, Note_on_c, 0, 71, 0
2,12861, Note_on_c, 0, 79, 85
2,12870, Note_on_c, 0, 72, 71
2,12885, Note_on_c, 0, 53, 59
2,12912, Note_on_c, 0, 72, 0
2,12922, Note_on_c, 0, 53, 0
2,12981, Note_on_c, 0, 55, 67
2,13090, Note_on_c, 0, 55, 0
2,13103, Note_on_c, 0, 79, 0
2,13114, Note_on_c, 0, 67, 78
2,13130, Note_on_c, 0, 52, 58
2,13156, Note_on_c, 0, 67, 0
2,13181, Control_c, 0, 64, 24
2,13194, Note_on_c, 0, 52, 0
2,13246, Note_on_c, 0, 53, 65
2,13302, Note_on_c, 0, 53, 0
2,13370, Note_on_c, 0, 50, 72
2,13370, Note_on_c, 0, 78, 86
2,13374, Note_on_c, 0, 74, 81
2,13469, Note_on_c, 0, 50, 0
2,13491, Note_on_c, 0, 49, 60
2,13606, Note_on_c, 0, 49, 0
2,13615, Note_on_c, 0, 50, 60
2,13620, Note_on_c, 0, 78, 0
2,13620, Note_on_c, 0, 81, 73
2,13631, Note_on_c, 0, 74, 0
2,13660, Note_on_c, 0, 50, 0
2,13720, Note_on_c, 0, 81, 0
2,13730, Note_on_c, 0, 52, 67
2,13730, Note_on_c, 0, 79, 79
2,13815, Note_on_c, 0, 52, 0
2,13830, Note_on_c, 0, 54, 60
2,13850, Note_on_c, 0, 81, 79
2,13857, Note_on_c, 0, 72, 78
2,13861, Note_on_c, 0, 79, 0
2,13892, Note_on_c, 0, 54, 0
2,13923, Note_on_c, 0, 81, 0
2,13962, Note_on_c, 0, 55, 64
2,14052, Note_on_c, 0, 55, 0
2,14093, Note_on_c, 0, 52, 63
2,14093, Note_on_c, 0, 72, 0
2,14097, Note_on_c, 0, 74, 84
2,14125, Note_on_c, 0, 74, 0
2,14138, Control_c, 0, 64, 23
2,14203, Note_on_c, 0, 54, 59
2,14208, Note_on_c, 0, 52, 0
2,14288, Note_on_c, 0, 54, 0
2,14336, Note_on_c, 0, 55, 64
2,14347, Note_on_c, 0, 71, 88
2,14347, Note_on_c, 0, 83, 90
2,14405, Note_on_c, 0, 55, 0
2,14441, Note_on_c, 0, 54, 58
2,14518, Note_on_c, 0, 54, 0
2,14545, Note_on_c, 0, 71, 0
2,14584, Note_on_c, 0, 55, 57
2,14604, Note_on_c, 0, 74, 81
2,14624, Note_on_c, 0, 83, 0
2,14673, Note_on_c, 0, 55, 0
2,14691, Note_on_c, 0, 74, 0
2,14709, Note_on_c, 0, 72, 81
2,14712, Note_on_c, 0, 57, 66
2,14767, Note_on_c, 0, 57, 0
2,14788, Note_on_c, 0, 72, 0
2,14837, Note_on_c, 0, 55, 67
2,14841, Note_on_c, 0, 74, 85
2,14841, Note_on_c, 0, 81, 86
2,14869, Control_c, 0, 64, 22
2,14873, Note_on_c, 0, 74, 0
2,14880, Note_on_c, 0, 55, 0
2,14950, Note_on_c, 0, 57, 66
2,15025, Note_on_c, 0, 57, 0
2,15090, Note_on_c, 0, 53, 69
2,15090, Note_on_c, 0, 69, 80
2,15122, Note_on_c, 0, 81, 0
2,15131, Note_on_c, 0, 53, 0
2,15143, Note_on_c, 0, 69, 0
2,15208, Note_on_c, 0, 55, 66
2,15288, Note_on_c, 0, 55, 0
2,15342, Note_on_c, 0, 80, 89
2,15345, Note_on_c, 0, 76, 91
2,15349, Note_on_c, 0, 52, 66
2,15416, Note_on_c, 0, 52, 0
2,15468, Note_on_c, 0, 50, 60
2,15562, Note_on_c, 0, 50, 0
2,15582, Note_on_c, 0, 52, 67
2,15595, Note_on_c, 0, 83, 81
2,15604, Note_on_c, 0, 80, 0
2,15615, Note_on_c, 0, 76, 0
2,15701, Note_on_c, 0, 52, 0
2,15701, Note_on_c, 0, 83, 0
2,15705, Note_on_c, 0, 81, 76
2,15716, Note_on_c, 0, 54, 74
2,15821, Note_on_c, 0, 54, 0
2,15825, Note_on_c, 0, 83, 87
2,15830, Note_on_c, 0, 74, 82
2,15830, Note_on_c, 0, 81, 0
2,15846, Note_on_c, 0, 56, 70
2,15901, Note_on_c, 0, 83, 0
2,15919, Note_on_c, 0, 56, 0
2,15955, Note_on_c, 0, 57, 68
2,16065, Note_on_c, 0, 57, 0
2,16065, Note_on_c, 0, 76, 91
2,16069, Note_on_c, 0, 54, 71
2,16078, Note_on_c, 0, 74, 0
2,16097, Note_on_c, 0, 76, 0
2,16189, Note_on_c, 0, 54, 0
2,16202, Note_on_c, 0, 56, 66
2,16262, Note_on_c, 0, 56, 0
2,16306, Note_on_c, 0, 57, 70
2,16306, Note_on_c, 0, 84, 94
2,16310, Note_on_c, 0, 72, 102
2,16400, Note_on_c, 0, 57, 0
2,16418, Note_on_c, 0, 56, 68
2,16469, Note_on_c, 0, 72, 0
2,16494, Note_on_c, 0, 56, 0
2,16560, Note_on_c, 0, 76, 79
2,16564, Note_on_c, 0, 57, 59
2,16639, Note_on_c, 0, 76, 0
2,16657, Note_on_c, 0, 57, 0
2,16657, Note_on_c, 0, 74, 78
2,16670, Note_on_c, 0, 59, 65
2,16714, Note_on_c, 0, 74, 0
2,16730, Note_on_c, 0, 59, 0
2,16767, Note_on_c, 0, 76, 88
2,16784, Note_on_c, 0, 57, 77
2,16797, Note_on_c, 0, 76, 0
2,16832, Note_on_c, 0, 57, 0
2,16887, Note_on_c, 0, 59, 71
2,16975, Note_on_c, 0, 59, 0
2,17017, Note_on_c, 0, 55, 73
2,17029, Note_on_c, 0, 81, 83
2,17045, Note_on_c, 0, 84, 0
2,17071, Note_on_c, 0, 55, 0
2,17081, Note_on_c, 0, 81, 0
2,17095, Control_c, 0, 64, 21
2,17135, Note_on_c, 0, 57, 71
2,17236, Note_on_c, 0, 57, 0
2,17256, Note_on_c, 0, 54, 68
2,17264, Note_on_c, 0, 74, 96
2,17342, Note_on_c, 0, 54, 0
2,17362, Control_c, 0, 64, 20
2,17404, Note_on_c, 0, 55, 66
2,17471, Note_on_c, 0, 55, 0
2,17517, Note_on_c, 0, 52, 64
2,17520, Note_on_c, 0, 84, 82
2,17575, Note_on_c, 0, 84, 0
2,17612, Note_on_c, 0, 52, 0
2,17635, Note_on_c, 0, 54, 63
2,17755, Note_on_c, 0, 54, 0
2,17761, Note_on_c, 0, 83, 82
2,17764, Note_on_c, 0, 55, 70
2,17816, Note_on_c, 0, 55, 0
2,17825, Note_on_c, 0, 83, 0
2,17827, Control_c, 0, 64, 19
2,17885, Note_on_c, 0, 57, 69
2,17977, Note_on_c, 0, 57, 0
2,18005, Note_on_c, 0, 79, 87
2,18016, Note_on_c, 0, 59, 62
2,18047, Note_on_c, 0, 79, 0
2,18064, Note_on_c, 0, 59, 0
2,18108, Note_on_c, 0, 55, 58
2,18207, Note_on_c, 0, 55, 0
2,18233, Note_on_c, 0, 60, 72
2,18249, Note_on_c, 0, 74, 0
2,18249, Note_on_c, 0, 74, 38
2,18249, Note_on_c, 0, 76, 91
2,18285, Note_on_c, 0, 74, 0
2,18297, Note_on_c, 0, 60, 0
2,18369, Note_on_c, 0, 59, 66
2,18485, Note_on_c, 0, 59, 0
2,18485, Note_on_c, 0, 72, 80
2,18485, Note_on_c, 0, 76, 0
2,18496, Note_on_c, 0, 60, 68
2,18568, Note_on_c, 0, 60, 0
2,18582, Note_on_c, 0, 72, 0
2,18591, Note_on_c, 0, 71, 76
2,18615, Note_on_c, 0, 62, 75
2,18634, Note_on_c, 0, 71, 0
2,18671, Note_on_c, 0, 62, 0
2,18728, Note_on_c, 0, 78, 89
2,18732, Note_on_c, 0, 60, 69
2,18737, Note_on_c, 0, 69, 75
2,18784, Note_on_c, 0, 60, 0
2,18822, Note_on_c, 0, 69, 0
2,18850, Note_on_c, 0, 62, 68
2,18926, Note_on_c, 0, 78, 0
2,18946, Note_on_c, 0, 62, 0
2,18957, Control_c, 0, 64, 20
2,18962, Note_on_c, 0, 59, 73
2,18968, Note_on_c, 0, 79, 86
2,18975, Note_on_c, 0, 71, 80
2,19067, Note_on_c, 0, 59, 0
2,19088, Note_on_c, 0, 60, 79
2,19168, Note_on_c, 0, 71, 0
2,19177, Note_on_c, 0, 60, 0
2,19186, Control_c, 0, 64, 21
2,19191, Note_on_c, 0, 79, 0
2,19225, Control_c, 0, 64, 22
2,19236, Note_on_c, 0, 62, 85
2,19481, Note_on_c, 0, 78, 82
2,19492, Note_on_c, 0, 69, 68
2,19526, Note_on_c, 0, 69, 0
2,19537, Note_on_c, 0, 78, 0
2,19602, Note_on_c, 0, 76, 81
2,19613, Note_on_c, 0, 67, 74
2,19649, Note_on_c, 0, 67, 0
2,19653, Note_on_c, 0, 76, 0
2,19760, Note_on_c, 0, 78, 81
2,19771, Note_on_c, 0, 69, 73
2,19816, Note_on_c, 0, 62, 0
2,19822, Note_on_c, 0, 78, 0
2,19831, Note_on_c, 0, 79, 80
2,19888, Note_on_c, 0, 78, 78
2,19938, Note_on_c, 0, 79, 0
2,20030, Note_on_c, 0, 62, 79
2,20034, Note_on_c, 0, 69, 0
2,20045, Note_on_c, 0, 78, 0
2,20108, Control_c, 0, 64, 21
2,20127, Note_on_c, 0, 79, 82
2,20131, Control_c, 0, 64, 16
2,20147, Control_c, 0, 64, 0
2,20177, Note_on_c, 0, 79, 0
2,20193, Note_on_c, 0, 62, 0
2,20263, Control_c, 0, 64, 21
2,20268, Note_on_c, 0, 79, 90
2,20279, Note_on_c, 0, 55, 62
2,20284, Control_c, 0, 64, 45
2,20284, Note_on_c, 0, 71, 74
2,20300, Control_c, 0, 64, 59
2,20319, Control_c, 0, 64, 65
2,20324, Note_on_c, 0, 55, 0
2,20341, Control_c, 0, 64, 68
2,20359, Control_c, 0, 64, 75
2,20377, Control_c, 0, 64, 87
2,20396, Control_c, 0, 64, 122
2,20414, Control_c, 0, 64, 127
2,20530, Control_c, 0, 64, 122
2,20540, Note_on_c, 0, 67, 67
2,20549, Note_on_c, 0, 76, 82
2,20553, Control_c, 0, 64, 104
2,20568, Control_c, 0, 64, 92
2,20575, Note_on_c, 0, 71, 0
2,20590, Control_c, 0, 64, 80
2,20590, Note_on_c, 0, 67, 0
2,20592, Note_on_c, 0, 79, 0
2,20610, Control_c, 0, 64, 71
2,20626, Control_c, 0, 64, 65
2,20646, Control_c, 0, 64, 61
2,20657, Note_on_c, 0, 65, 64
2,20664, Control_c, 0, 64, 57
2,20685, Note_on_c, 0, 76, 0
2,20687, Control_c, 0, 64, 53
2,20703, Control_c, 0, 64, 50
2,20717, Note_on_c, 0, 65, 0
2,20723, Control_c, 0, 64, 47
2,20741, Control_c, 0, 64, 43
2,20760, Control_c, 0, 64, 41
2,20776, Note_on_c, 0, 67, 70
2,20776, Note_on_c, 0, 73, 79
2,20780, Control_c, 0, 64, 38
2,20780, Note_on_c, 0, 69, 63
2,20799, Control_c, 0, 64, 36
2,20812, Note_on_c, 0, 67, 0
2,20816, Note_on_c, 0, 69, 0
2,20821, Control_c, 0, 64, 34
2,20825, Note_on_c, 0, 73, 0
2,20837, Control_c, 0, 64, 31
2,20859, Control_c, 0, 64, 29
2,20877, Control_c, 0, 64, 28
2,20887, Note_on_c, 0, 69, 69
2,20896, Control_c, 0, 64, 27
2,20935, Control_c, 0, 64, 25
2,20973, Control_c, 0, 64, 24
2,20994, Control_c, 0, 64, 23
2,20994, Note_on_c, 0, 69, 0
2,21025, Note_on_c, 0, 65, 54
2,21025, Note_on_c, 0, 74, 78
2,21064, Note_on_c, 0, 74, 0
2,21077, Note_on_c, 0, 65, 0
2,21131, Note_on_c, 0, 67, 77
2,21188, Note_on_c, 0, 67, 0
2,21271, Note_on_c, 0, 64, 68
2,21387, Note_on_c, 0, 79, 79
2,21452, Control_c, 0, 64, 24
2,21497, Note_on_c, 0, 64, 0
2,21510, Note_on_c, 0, 82, 83
2,21516, Note_on_c, 0, 67, 69
2,21534, Note_on_c, 0, 79, 0
2,21606, Note_on_c, 0, 67, 0
2,21626, Note_on_c, 0, 81, 76
2,21638, Note_on_c, 0, 82, 0
2,21642, Note_on_c, 0, 65, 67
2,21691, Note_on_c, 0, 65, 0
2,21755, Note_on_c, 0, 67, 77
2,21755, Note_on_c, 0, 79, 92
2,21788, Note_on_c, 0, 81, 0
2,21836, Note_on_c, 0, 67, 0
2,21872, Note_on_c, 0, 69, 73
2,21881, Note_on_c, 0, 77, 84
2,21908, Note_on_c, 0, 79, 0
2,21917, Note_on_c, 0, 69, 0
2,21958, Note_on_c, 0, 77, 0
2,21980, Note_on_c, 0, 65, 72
2,22003, Note_on_c, 0, 76, 78
2,22010, Control_c, 0, 64, 23
2,22031, Note_on_c, 0, 65, 0
2,22038, Note_on_c, 0, 76, 0
2,22093, Note_on_c, 0, 67, 81
2,22106, Note_on_c, 0, 74, 82
2,22135, Note_on_c, 0, 67, 0
2,22135, Note_on_c, 0, 74, 0
2,22234, Note_on_c, 0, 73, 91
2,22238, Note_on_c, 0, 64, 85
2,22259, Control_c, 0, 64, 24
2,22286, Note_on_c, 0, 64, 0
2,22347, Note_on_c, 0, 67, 59
2,22360, Note_on_c, 0, 73, 0
2,22374, Control_c, 0, 64, 23
2,22393, Control_c, 0, 64, 22
2,22412, Control_c, 0, 64, 21
2,22491, Note_on_c, 0, 62, 87
2,22493, Note_on_c, 0, 65, 76
2,22493, Note_on_c, 0, 74, 84
2,22502, Note_on_c, 0, 67, 0
2,22555, Note_on_c, 0, 62, 0
2,22602, Note_on_c, 0, 67, 69
2,22618, Note_on_c, 0, 65, 0
2,22644, Note_on_c, 0, 74, 0
2,22725, Note_on_c, 0, 69, 80
2,22736, Note_on_c, 0, 53, 77
2,22764, Note_on_c, 0, 67, 0
2,22780, Note_on_c, 0, 53, 0
2,22843, Note_on_c, 0, 70, 71
2,22856, Control_c, 0, 64, 22
2,22962, Note_on_c, 0, 69, 0
2,22980, Note_on_c, 0, 57, 86
2,22981, Note_on_c, 0, 73, 76
2,22994, Note_on_c, 0, 67, 72
2,23014, Note_on_c, 0, 70, 0
2,23018, Note_on_c, 0, 57, 0
2,23085, Note_on_c, 0, 73, 0
2,23110, Note_on_c, 0, 69, 64
2,23155, Note_on_c, 0, 67, 0
2,23179, Note_on_c, 0, 69, 0
2,23221, Note_on_c, 0, 50, 80
2,23237, Note_on_c, 0, 65, 71
2,23322, Note_on_c, 0, 65, 0
2,23341, Note_on_c, 0, 64, 76
2,23373, Note_on_c, 0, 64, 0
2,23471, Note_on_c, 0, 74, 88
2,23476, Note_on_c, 0, 65, 77
2,23521, Note_on_c, 0, 65, 0
2,23588, Note_on_c, 0, 74, 0
2,23593, Note_on_c, 0, 73, 83
2,23602, Note_on_c, 0, 67, 81
2,23683, Note_on_c, 0, 73, 0
2,23688, Note_on_c, 0, 67, 0
2,23710, Note_on_c, 0, 50, 0
2,23717, Note_on_c, 0, 74, 90
2,23723, Note_on_c, 0, 65, 79
2,23768, Note_on_c, 0, 65, 0
2,23807, Note_on_c, 0, 74, 0
2,23825, Note_on_c, 0, 67, 77
2,23870, Note_on_c, 0, 67, 0
2,23953, Note_on_c, 0, 69, 79
2,23957, Note_on_c, 0, 64, 79
2,23992, Note_on_c, 0, 64, 0
2,24011, Note_on_c, 0, 69, 0
2,24065, Note_on_c, 0, 65, 72
2,24097, Note_on_c, 0, 65, 0
2,24197, Note_on_c, 0, 77, 100
2,24201, Note_on_c, 0, 62, 69
2,24293, Note_on_c, 0, 62, 0
2,24328, Note_on_c, 0, 60, 67
2,24444, Note_on_c, 0, 60, 0
2,24453, Note_on_c, 0, 62, 67
2,24535, Note_on_c, 0, 62, 0
2,24563, Note_on_c, 0, 64, 68
2,24637, Note_on_c, 0, 64, 0
2,24637, Note_on_c, 0, 77, 0
2,24685, Note_on_c, 0, 76, 86
2,24696, Note_on_c, 0, 62, 71
2,24756, Note_on_c, 0, 62, 0
2,24812, Note_on_c, 0, 64, 68
2,24911, Note_on_c, 0, 64, 0
2,24941, Note_on_c, 0, 60, 64
2,24996, Note_on_c, 0, 60, 0
2,25056, Note_on_c, 0, 62, 71
2,25105, Note_on_c, 0, 62, 0
2,25157, Note_on_c, 0, 59, 77
2,25267, Note_on_c, 0, 59, 0
2,25299, Note_on_c, 0, 60, 66
2,25304, Note_on_c, 0, 76, 0
2,25411, Note_on_c, 0, 60, 0
2,25411, Note_on_c, 0, 74, 74
2,25415, Note_on_c, 0, 62, 75
2,25486, Note_on_c, 0, 62, 0
2,25507, Note_on_c, 0, 72, 84
2,25525, Note_on_c, 0, 74, 0
2,25536, Note_on_c, 0, 64, 73
2,25578, Note_on_c, 0, 72, 0
2,25635, Note_on_c, 0, 74, 84
2,25646, Note_on_c, 0, 64, 0
2,25653, Note_on_c, 0, 66, 80
2,25747, Note_on_c, 0, 76, 86
2,25775, Note_on_c, 0, 66, 0
2,25775, Note_on_c, 0, 74, 0
2,25782, Note_on_c, 0, 68, 80
2,25866, Note_on_c, 0, 72, 83
2,25876, Note_on_c, 0, 68, 0
2,25889, Note_on_c, 0, 76, 0
2,25894, Note_on_c, 0, 69, 81
2,25947, Note_on_c, 0, 72, 0
2,26002, Note_on_c, 0, 74, 79
2,26021, Control_c, 0, 64, 23
2,26088, Note_on_c, 0, 74, 0
2,26128, Note_on_c, 0, 71, 81
2,26237, Note_on_c, 0, 74, 76
2,26247, Note_on_c, 0, 71, 0
2,26347, Note_on_c, 0, 69, 0
2,26351, Note_on_c, 0, 74, 0
2,26363, Note_on_c, 0, 68, 65
2,26363, Note_on_c, 0, 72, 75
2,26416, Note_on_c, 0, 68, 0
2,26424, Control_c, 0, 64, 22
2,26459, Note_on_c, 0, 66, 63
2,26488, Note_on_c, 0, 74, 77
2,26532, Note_on_c, 0, 72, 0
2,26536, Note_on_c, 0, 74, 0
2,26577, Note_on_c, 0, 68, 71
2,26593, Note_on_c, 0, 66, 0
2,26605, Note_on_c, 0, 76, 77
2,26617, Note_on_c, 0, 68, 0
2,26655, Note_on_c, 0, 69, 71
2,26697, Note_on_c, 0, 77, 78
2,26701, Note_on_c, 0, 76, 0
2,26724, Note_on_c, 0, 68, 76
2,26753, Note_on_c, 0, 69, 0
2,26800, Note_on_c, 0, 77, 0
2,26808, Note_on_c, 0, 74, 78
2,26850, Note_on_c, 0, 74, 0
2,26906, Note_on_c, 0, 68, 0
2,26924, Note_on_c, 0, 76, 73
2,27052, Note_on_c, 0, 76, 0
2,27078, Note_on_c, 0, 69, 54
2,27078, Note_on_c, 0, 72, 69
2,27137, Note_on_c, 0, 69, 0
2,27183, Note_on_c, 0, 68, 66
2,27251, Note_on_c, 0, 68, 0
2,27309, Note_on_c, 0, 72, 0
2,27313, Note_on_c, 0, 76, 71
2,27322, Note_on_c, 0, 69, 49
2,27362, Note_on_c, 0, 69, 0
2,27410, Note_on_c, 0, 76, 0
2,27421, Note_on_c, 0, 74, 75
2,27426, Note_on_c, 0, 71, 61
2,27462, Note_on_c, 0, 74, 0
2,27475, Note_on_c, 0, 71, 0
2,27539, Note_on_c, 0, 76, 81
2,27561, Note_on_c, 0, 69, 49
2,27566, Note_on_c, 0, 76, 0
2,27590, Note_on_c, 0, 69, 0
2,27646, Note_on_c, 0, 71, 66
2,27707, Note_on_c, 0, 71, 0
2,27785, Note_on_c, 0, 67, 60
2,27785, Note_on_c, 0, 72, 83
2,27816, Note_on_c, 0, 72, 0
2,27827, Note_on_c, 0, 67, 0
2,27897, Note_on_c, 0, 69, 55
2,27956, Note_on_c, 0, 69, 0
2,28014, Note_on_c, 0, 66, 53
2,28025, Note_on_c, 0, 81, 77
2,28074, Note_on_c, 0, 81, 0
2,28123, Note_on_c, 0, 66, 0
2,28156, Note_on_c, 0, 64, 61
2,28253, Note_on_c, 0, 64, 0
2,28270, Note_on_c, 0, 66, 61
2,28290, Note_on_c, 0, 72, 76
2,28324, Note_on_c, 0, 66, 0
2,28332, Note_on_c, 0, 72, 0
2,28407, Note_on_c, 0, 67, 54
2,28475, Note_on_c, 0, 67, 0
2,28509, Note_on_c, 0, 66, 58
2,28534, Note_on_c, 0, 69, 69
2,28560, Note_on_c, 0, 66, 0
2,28586, Note_on_c, 0, 69, 0
2,28644, Note_on_c, 0, 67, 55
2,28701, Note_on_c, 0, 67, 0
2,28772, Note_on_c, 0, 64, 54
2,28772, Note_on_c, 0, 74, 74
2,28809, Note_on_c, 0, 74, 0
2,28850, Note_on_c, 0, 64, 0
2,28879, Note_on_c, 0, 66, 55
2,28968, Note_on_c, 0, 66, 0
2,29008, Note_on_c, 0, 67, 60
2,29012, Note_on_c, 0, 71, 79
2,29054, Note_on_c, 0, 71, 0
2,29076, Note_on_c, 0, 67, 0
2,29119, Note_on_c, 0, 66, 63
2,29214, Note_on_c, 0, 66, 0
2,29251, Note_on_c, 0, 67, 60
2,29281, Note_on_c, 0, 74, 66
2,29312, Note_on_c, 0, 67, 0
2,29363, Note_on_c, 0, 74, 0
2,29367, Note_on_c, 0, 72, 76
2,29384, Note_on_c, 0, 69, 53
2,29445, Note_on_c, 0, 69, 0
2,29485, Note_on_c, 0, 74, 86
2,29496, Note_on_c, 0, 72, 0
2,29500, Note_on_c, 0, 67, 58
2,29521, Note_on_c, 0, 74, 0
2,29545, Note_on_c, 0, 67, 0
2,29606, Note_on_c, 0, 69, 58
2,29673, Note_on_c, 0, 69, 0
2,29736, Note_on_c, 0, 65, 57
2,29740, Note_on_c, 0, 71, 73
2,29779, Note_on_c, 0, 71, 0
2,29783, Note_on_c, 0, 65, 0
2,29856, Note_on_c, 0, 67, 60
2,29909, Note_on_c, 0, 67, 0
2,29974, Note_on_c, 0, 79, 83
2,29983, Note_on_c, 0, 64, 63
2,30018, Note_on_c, 0, 79, 0
2,30071, Note_on_c, 0, 64, 0
2,30106, Note_on_c, 0, 62, 60
2,30208, Note_on_c, 0, 62, 0
2,30221, Note_on_c, 0, 64, 65
2,30226, Note_on_c, 0, 70, 76
2,30279, Note_on_c, 0, 64, 0
2,30292, Note_on_c, 0, 70, 0
2,30342, Note_on_c, 0, 65, 53
2,30408, Note_on_c, 0, 65, 0
2,30451, Note_on_c, 0, 64, 66
2,30466, Note_on_c, 0, 67, 75
2,30502, Note_on_c, 0, 64, 0
2,30523, Note_on_c, 0, 67, 0
2,30571, Note_on_c, 0, 65, 62
2,30622, Note_on_c, 0, 65, 0
2,30683, Note_on_c, 0, 72, 77
2,30714, Note_on_c, 0, 62, 47
2,30754, Note_on_c, 0, 72, 0
2,30778, Note_on_c, 0, 62, 0
2,30814, Note_on_c, 0, 64, 60
2,30876, Note_on_c, 0, 64, 0
2,30922, Note_on_c, 0, 69, 77
2,30929, Note_on_c, 0, 65, 58
2,30974, Note_on_c, 0, 69, 0
2,30978, Note_on_c, 0, 65, 0
2,31048, Note_on_c, 0, 64, 53
2,31144, Note_on_c, 0, 64, 0
2,31159, Note_on_c, 0, 74, 73
2,31181, Note_on_c, 0, 65, 56
2,31218, Note_on_c, 0, 65, 0
2,31245, Note_on_c, 0, 74, 0
2,31270, Note_on_c, 0, 72, 76
2,31276, Note_on_c, 0, 67, 58
2,31309, Note_on_c, 0, 72, 0
2,31325, Note_on_c, 0, 67, 0
2,31391, Note_on_c, 0, 74, 79
2,31410, Note_on_c, 0, 65, 47
2,31450, Note_on_c, 0, 65, 0
2,31488, Note_on_c, 0, 74, 0
2,31514, Note_on_c, 0, 76, 77
2,31518, Note_on_c, 0, 67, 57
2,31572, Note_on_c, 0, 67, 0
2,31605, Note_on_c, 0, 76, 0
2,31637, Note_on_c, 0, 72, 76
2,31646, Note_on_c, 0, 64, 53
2,31683, Note_on_c, 0, 72, 0
2,31698, Note_on_c, 0, 64, 0
2,31746, Note_on_c, 0, 65, 57
2,31746, Note_on_c, 0, 74, 76
2,31790, Note_on_c, 0, 65, 0
2,31836, Note_on_c, 0, 74, 0
2,31872, Note_on_c, 0, 62, 64
2,31887, Note_on_c, 0, 71, 72
2,31924, Note_on_c, 0, 62, 0
2,31951, Note_on_c, 0, 71, 0
2,32009, Note_on_c, 0, 69, 62
2,32061, Note_on_c, 0, 69, 0
2,32121, Note_on_c, 0, 67, 65
2,32123, Note_on_c, 0, 71, 69
2,32171, Note_on_c, 0, 67, 0
2,32176, Note_on_c, 0, 71, 0
2,32225, Note_on_c, 0, 72, 72
2,32250, Note_on_c, 0, 65, 53
2,32298, Note_on_c, 0, 72, 0
2,32343, Note_on_c, 0, 65, 0
2,32352, Note_on_c, 0, 71, 67
2,32370, Note_on_c, 0, 67, 62
2,32401, Note_on_c, 0, 71, 0
2,32412, Note_on_c, 0, 67, 0
2,32465, Note_on_c, 0, 72, 76
2,32474, Note_on_c, 0, 69, 55
2,32512, Note_on_c, 0, 72, 0
2,32516, Note_on_c, 0, 69, 0
2,32589, Note_on_c, 0, 65, 60
2,32590, Note_on_c, 0, 69, 65
2,32630, Note_on_c, 0, 65, 0
2,32636, Note_on_c, 0, 69, 0
2,32693, Note_on_c, 0, 71, 72
2,32721, Note_on_c, 0, 67, 60
2,32748, Note_on_c, 0, 71, 0
2,32766, Note_on_c, 0, 67, 0
2,32827, Note_on_c, 0, 67, 71
2,32843, Note_on_c, 0, 64, 64
2,32911, Note_on_c, 0, 64, 0
2,32965, Note_on_c, 0, 62, 64
2,32998, Note_on_c, 0, 67, 0
2,33039, Note_on_c, 0, 62, 0
2,33069, Note_on_c, 0, 64, 72
2,33083, Note_on_c, 0, 72, 78
2,33133, Note_on_c, 0, 64, 0
2,33185, Note_on_c, 0, 65, 67
2,33187, Note_on_c, 0, 71, 81
2,33196, Note_on_c, 0, 72, 0
2,33203, Control_c, 0, 64, 23
2,33234, Note_on_c, 0, 71, 0
2,33250, Note_on_c, 0, 65, 0
2,33305, Note_on_c, 0, 72, 85
2,33309, Note_on_c, 0, 64, 76
2,33378, Note_on_c, 0, 64, 0
2,33421, Note_on_c, 0, 74, 84
2,33425, Note_on_c, 0, 72, 0
2,33432, Note_on_c, 0, 65, 72
2,33453, Control_c, 0, 64, 24
2,33522, Note_on_c, 0, 65, 0
2,33536, Note_on_c, 0, 70, 84
2,33536, Note_on_c, 0, 74, 0
2,33564, Note_on_c, 0, 62, 65
2,33608, Note_on_c, 0, 70, 0
2,33642, Note_on_c, 0, 72, 84
2,33653, Note_on_c, 0, 62, 0
2,33666, Note_on_c, 0, 64, 71
2,33683, Control_c, 0, 64, 23
2,33723, Note_on_c, 0, 64, 0
2,33775, Note_on_c, 0, 60, 79
2,33775, Note_on_c, 0, 69, 76
2,33791, Note_on_c, 0, 72, 0
2,33806, Note_on_c, 0, 60, 0
2,33868, Note_on_c, 0, 69, 0
2,33903, Note_on_c, 0, 67, 72
2,34017, Note_on_c, 0, 67, 0
2,34022, Note_on_c, 0, 69, 74
2,34026, Note_on_c, 0, 65, 67
2,34082, Note_on_c, 0, 65, 0
2,34111, Note_on_c, 0, 69, 0
2,34126, Note_on_c, 0, 70, 80
2,34141, Note_on_c, 0, 64, 66
2,34211, Note_on_c, 0, 70, 0
2,34245, Note_on_c, 0, 69, 79
2,34262, Note_on_c, 0, 64, 0
2,34262, Note_on_c, 0, 65, 66
2,34314, Note_on_c, 0, 65, 0
2,34327, Note_on_c, 0, 69, 0
2,34367, Note_on_c, 0, 67, 70
2,34369, Note_on_c, 0, 70, 84
2,34404, Note_on_c, 0, 67, 0
2,34451, Note_on_c, 0, 70, 0
2,34489, Note_on_c, 0, 64, 73
2,34502, Note_on_c, 0, 67, 85
2,34531, Note_on_c, 0, 64, 0
2,34553, Note_on_c, 0, 67, 0
2,34599, Note_on_c, 0, 69, 73
2,34607, Note_on_c, 0, 65, 60
2,34633, Note_on_c, 0, 69, 0
2,34644, Note_on_c, 0, 65, 0
2,34711, Note_on_c, 0, 65, 81
2,34724, Note_on_c, 0, 62, 82
2,34776, Note_on_c, 0, 67, 78
2,34780, Note_on_c, 0, 65, 0
2,34804, Note_on_c, 0, 62, 0
2,34833, Note_on_c, 0, 65, 75
2,34841, Note_on_c, 0, 60, 72
2,34846, Note_on_c, 0, 67, 0
2,34930, Note_on_c, 0, 60, 0
2,34957, Note_on_c, 0, 62, 74
2,35032, Note_on_c, 0, 62, 0
2,35077, Note_on_c, 0, 64, 79
2,35158, Note_on_c, 0, 64, 0
2,35198, Note_on_c, 0, 62, 82
2,35265, Note_on_c, 0, 62, 0
2,35310, Note_on_c, 0, 64, 77
2,35386, Note_on_c, 0, 64, 0
2,35441, Note_on_c, 0, 60, 84
2,35503, Note_on_c, 0, 60, 0
2,35561, Note_on_c, 0, 62, 75
2,35622, Note_on_c, 0, 62, 0
2,35681, Note_on_c, 0, 59, 88
2,35762, Note_on_c, 0, 65, 0
2,35779, Note_on_c, 0, 59, 0
2,35800, Note_on_c, 0, 57, 74
2,35869, Note_on_c, 0, 57, 0
2,35914, Note_on_c, 0, 74, 89
2,35919, Note_on_c, 0, 59, 84
2,35968, Control_c, 0, 64, 22
2,35980, Note_on_c, 0, 59, 0
2,36021, Note_on_c, 0, 74, 0
2,36028, Note_on_c, 0, 72, 85
2,36037, Note_on_c, 0, 60, 73
2,36085, Note_on_c, 0, 60, 0
2,36145, Note_on_c, 0, 59, 85
2,36145, Note_on_c, 0, 74, 96
2,36170, Note_on_c, 0, 72, 0
2,36199, Note_on_c, 0, 59, 0
2,36208, Note_on_c, 0, 74, 0
2,36255, Control_c, 0, 64, 21
2,36258, Note_on_c, 0, 60, 75
2,36347, Note_on_c, 0, 60, 0
2,36382, Note_on_c, 0, 57, 75
2,36387, Note_on_c, 0, 65, 93
2,36443, Note_on_c, 0, 65, 0
2,36446, Control_c, 0, 64, 20
2,36484, Note_on_c, 0, 57, 0
2,36502, Note_on_c, 0, 59, 77
2,36533, Note_on_c, 0, 59, 0
2,36636, Note_on_c, 0, 60, 90
2,36636, Note_on_c, 0, 64, 93
2,36773, Note_on_c, 0, 62, 70
2,36773, Note_on_c, 0, 64, 0
2,36895, Note_on_c, 0, 48, 92
2,36904, Note_on_c, 0, 64, 83
2,36928, Control_c, 0, 64, 19
2,36944, Note_on_c, 0, 62, 0
2,36948, Control_c, 0, 64, 17
2,36965, Control_c, 0, 64, 16
2,36999, Note_on_c, 0, 47, 83
2,37007, Note_on_c, 0, 48, 0
2,37028, Note_on_c, 0, 65, 66
2,37040, Note_on_c, 0, 64, 0
2,37098, Note_on_c, 0, 60, 0
2,37131, Note_on_c, 0, 48, 99
2,37148, Note_on_c, 0, 47, 0
2,37155, Note_on_c, 0, 64, 85
2,37161, Note_on_c, 0, 65, 0
2,37177, Note_on_c, 0, 48, 0
2,37188, Note_on_c, 0, 60, 4
2,37213, Note_on_c, 0, 60, 0
2,37265, Note_on_c, 0, 64, 0
2,37274, Control_c, 0, 64, 17
2,37302, Note_on_c, 0, 65, 37
2,37343, Note_on_c, 0, 65, 0
2,37383, Note_on_c, 0, 43, 89
2,37392, Note_on_c, 0, 62, 87
2,37403, Note_on_c, 0, 59, 74
2,37420, Note_on_c, 0, 43, 0
2,37446, Control_c, 0, 64, 16
2,37446, Note_on_c, 0, 59, 0
2,37461, Note_on_c, 0, 62, 0
2,37518, Note_on_c, 0, 64, 76
2,37559, Note_on_c, 0, 64, 0
2,37582, Control_c, 0, 64, 17
2,37600, Control_c, 0, 64, 18
2,37656, Note_on_c, 0, 52, 94
2,37667, Note_on_c, 0, 60, 95
2,37793, Note_on_c, 0, 59, 75
2,37843, Note_on_c, 0, 60, 0
2,37915, Note_on_c, 0, 57, 71
2,37944, Note_on_c, 0, 59, 0
2,37962, Control_c, 0, 64, 17
2,38023, Note_on_c, 0, 60, 71
2,38046, Note_on_c, 0, 57, 0
2,38098, Control_c, 0, 64, 18
2,38171, Note_on_c, 0, 50, 87
2,38176, Note_on_c, 0, 52, 0
2,38180, Note_on_c, 0, 59, 71
2,38196, Control_c, 0, 64, 17
2,38229, Note_on_c, 0, 60, 0
2,38288, Note_on_c, 0, 57, 71
2,38299, Note_on_c, 0, 59, 0
2,38397, Note_on_c, 0, 57, 0
2,38406, Note_on_c, 0, 55, 63
2,38456, Note_on_c, 0, 55, 0
2,38504, Note_on_c, 0, 59, 70
2,38577, Note_on_c, 0, 59, 0
2,38658, Note_on_c, 0, 57, 80
2,38918, Note_on_c, 0, 50, 0
2,38946, Note_on_c, 0, 48, 57
2,38959, Note_on_c, 0, 55, 66
2,38959, Note_on_c, 0, 57, 0
2,38999, Note_on_c, 0, 48, 0
2,39063, Note_on_c, 0, 47, 47
2,39092, Control_c, 0, 64, 18
2,39154, Note_on_c, 0, 47, 0
2,39175, Note_on_c, 0, 48, 60
2,39193, Note_on_c, 0, 54, 65
2,39193, Note_on_c, 0, 55, 0
2,39234, Note_on_c, 0, 48, 0
2,39283, Note_on_c, 0, 50, 62
2,39369, Note_on_c, 0, 50, 0
2,39423, Note_on_c, 0, 47, 48
2,39443, Note_on_c, 0, 54, 0
2,39443, Note_on_c, 0, 55, 62
2,39472, Note_on_c, 0, 47, 0
2,39542, Note_on_c, 0, 48, 53
2,39605, Note_on_c, 0, 48, 0
2,39673, Note_on_c, 0, 45, 60
2,39678, Note_on_c, 0, 60, 70
2,39685, Note_on_c, 0, 55, 0
2,39743, Note_on_c, 0, 45, 0
2,39805, Note_on_c, 0, 48, 54
2,39806, Control_c, 0, 64, 19
2,39815, Note_on_c, 0, 54, 51
2,39861, Note_on_c, 0, 48, 0
2,39865, Note_on_c, 0, 54, 0
2,39935, Note_on_c, 0, 47, 61
2,39940, Note_on_c, 0, 55, 59
2,39993, Note_on_c, 0, 55, 0
2,40041, Note_on_c, 0, 52, 66
2,40054, Note_on_c, 0, 47, 0
2,40076, Note_on_c, 0, 48, 50
2,40122, Note_on_c, 0, 48, 0
2,40126, Note_on_c, 0, 52, 0
2,40186, Note_on_c, 0, 50, 66
2,40186, Note_on_c, 0, 54, 68
2,40256, Note_on_c, 0, 50, 0
2,40299, Note_on_c, 0, 52, 58
2,40381, Note_on_c, 0, 60, 0
2,40390, Note_on_c, 0, 54, 0
2,40394, Note_on_c, 0, 52, 0
2,40423, Note_on_c, 0, 48, 56
2,40427, Note_on_c, 0, 57, 79
2,40461, Note_on_c, 0, 57, 0
2,40512, Note_on_c, 0, 48, 0
2,40538, Note_on_c, 0, 50, 60
2,40623, Note_on_c, 0, 50, 0
2,40667, Note_on_c, 0, 47, 62
2,40674, Note_on_c, 0, 62, 87
2,40781, Note_on_c, 0, 47, 0
2,40794, Note_on_c, 0, 50, 58
2,40912, Note_on_c, 0, 50, 0
2,40923, Note_on_c, 0, 59, 78
2,40941, Note_on_c, 0, 48, 55
2,40961, Note_on_c, 0, 59, 0
2,41034, Note_on_c, 0, 48, 0
2,41067, Note_on_c, 0, 50, 67
2,41196, Note_on_c, 0, 50, 0
2,41196, Note_on_c, 0, 55, 82
2,41200, Note_on_c, 0, 52, 72
2,41254, Note_on_c, 0, 52, 0
2,41309, Note_on_c, 0, 53, 69
2,41320, Note_on_c, 0, 62, 0
2,41359, Control_c, 0, 64, 20
2,41419, Note_on_c, 0, 53, 0
2,41433, Note_on_c, 0, 50, 66
2,41437, Note_on_c, 0, 55, 0
2,41437, Note_on_c, 0, 59, 82
2,41464, Note_on_c, 0, 59, 0
2,41538, Note_on_c, 0, 50, 0
2,41546, Note_on_c, 0, 52, 72
2,41624, Note_on_c, 0, 52, 0
2,41674, Note_on_c, 0, 48, 74
2,41678, Note_on_c, 0, 64, 94
2,41785, Note_on_c, 0, 48, 0
2,41800, Note_on_c, 0, 52, 72
2,41904, Note_on_c, 0, 52, 0
2,41923, Note_on_c, 0, 60, 77
2,41938, Note_on_c, 0, 50, 68
2,41965, Note_on_c, 0, 60, 0
2,42025, Note_on_c, 0, 50, 0
2,42055, Note_on_c, 0, 52, 71
2,42189, Note_on_c, 0, 52, 0
2,42189, Note_on_c, 0, 53, 71
2,42200, Note_on_c, 0, 57, 83
2,42255, Note_on_c, 0, 53, 0
2,42281, Note_on_c, 0, 64, 0
2,42297, Note_on_c, 0, 55, 75
2,42424, Note_on_c, 0, 52, 73
2,42428, Note_on_c, 0, 55, 0
2,42440, Note_on_c, 0, 60, 82
2,42449, Note_on_c, 0, 57, 0
2,42473, Note_on_c, 0, 60, 0
2,42541, Note_on_c, 0, 52, 0
2,42556, Note_on_c, 0, 53, 71
2,42568, Control_c, 0, 64, 21
2,42667, Control_c, 0, 64, 22
2,42667, Note_on_c, 0, 53, 0
2,42672, Note_on_c, 0, 65, 90
2,42681, Note_on_c, 0, 50, 73
2,42799, Note_on_c, 0, 50, 0
2,42801, Note_on_c, 0, 53, 75
2,42919, Note_on_c, 0, 53, 0
2,42933, Note_on_c, 0, 62, 75
2,42942, Note_on_c, 0, 52, 76
2,42979, Note_on_c, 0, 62, 0
2,43057, Note_on_c, 0, 52, 0
2,43066, Note_on_c, 0, 53, 70
2,43176, Note_on_c, 0, 65, 0
2,43198, Note_on_c, 0, 55, 77
2,43198, Note_on_c, 0, 59, 88
2,43202, Note_on_c, 0, 53, 0
2,43269, Note_on_c, 0, 55, 0
2,43317, Note_on_c, 0, 57, 77
2,43430, Note_on_c, 0, 57, 0
2,43441, Note_on_c, 0, 53, 75
2,43444, Note_on_c, 0, 62, 81
2,43449, Note_on_c, 0, 59, 0
2,43504, Note_on_c, 0, 62, 0
2,43532, Note_on_c, 0, 53, 0
2,43558, Note_on_c, 0, 55, 79
2,43633, Note_on_c, 0, 55, 0
2,43674, Note_on_c, 0, 67, 91
2,43679, Note_on_c, 0, 52, 80
2,43796, Note_on_c, 0, 52, 0
2,43815, Note_on_c, 0, 50, 75
2,43928, Note_on_c, 0, 52, 82
2,43933, Note_on_c, 0, 50, 0
2,43944, Note_on_c, 0, 59, 80
2,43973, Note_on_c, 0, 67, 0
2,44002, Note_on_c, 0, 52, 0
2,44013, Note_on_c, 0, 59, 0
2,44050, Note_on_c, 0, 53, 78
2,44144, Note_on_c, 0, 53, 0
2,44165, Note_on_c, 0, 52, 83
2,44174, Note_on_c, 0, 69, 88
2,44183, Note_on_c, 0, 60, 79
2,44216, Note_on_c, 0, 60, 0
2,44229, Note_on_c, 0, 69, 0
2,44236, Note_on_c, 0, 52, 0
2,44284, Note_on_c, 0, 53, 75
2,44388, Note_on_c, 0, 53, 0
2,44410, Note_on_c, 0, 71, 89
2,44413, Note_on_c, 0, 50, 83
2,44419, Note_on_c, 0, 62, 81
2,44457, Note_on_c, 0, 62, 0
2,44480, Note_on_c, 0, 50, 0
2,44497, Note_on_c, 0, 71, 0
2,44533, Note_on_c, 0, 52, 80
2,44647, Note_on_c, 0, 52, 0
2,44649, Note_on_c, 0, 72, 92
2,44656, Note_on_c, 0, 64, 90
2,44658, Note_on_c, 0, 48, 83
2,44720, Control_c, 0, 64, 21
2,44755, Note_on_c, 0, 48, 0
2,44779, Note_on_c, 0, 50, 78
2,44779, Note_on_c, 0, 64, 0
2,44862, Note_on_c, 0, 50, 0
2,44912, Note_on_c, 0, 67, 82
2,44927, Note_on_c, 0, 52, 77
2,45020, Note_on_c, 0, 65, 80
2,45025, Note_on_c, 0, 52, 0
2,45032, Note_on_c, 0, 50, 71
2,45032, Note_on_c, 0, 67, 0
2,45087, Note_on_c, 0, 65, 0
2,45092, Note_on_c, 0, 50, 0
2,45146, Note_on_c, 0, 67, 88
2,45165, Note_on_c, 0, 48, 73
2,45215, Note_on_c, 0, 67, 0
2,45227, Note_on_c, 0, 48, 0
2,45266, Note_on_c, 0, 46, 72
2,45313, Note_on_c, 0, 46, 0
2,45382, Note_on_c, 0, 60, 82
2,45384, Note_on_c, 0, 45, 75
2,45426, Note_on_c, 0, 60, 0
2,45455, Note_on_c, 0, 45, 0
2,45490, Note_on_c, 0, 43, 73
2,45611, Note_on_c, 0, 43, 0
2,45615, Note_on_c, 0, 69, 85
2,45622, Note_on_c, 0, 41, 77
2,45660, Note_on_c, 0, 67, 80
2,45668, Note_on_c, 0, 69, 0
2,45719, Control_c, 0, 64, 20
2,45723, Note_on_c, 0, 69, 81
2,45748, Note_on_c, 0, 41, 0
2,45755, Note_on_c, 0, 67, 0
2,45776, Note_on_c, 0, 40, 62
2,45879, Note_on_c, 0, 40, 0
2,45888, Note_on_c, 0, 41, 77
2,46008, Note_on_c, 0, 41, 0
2,46019, Note_on_c, 0, 43, 76
2,46025, Control_c, 0, 64, 21
2,46125, Note_on_c, 0, 43, 0
2,46143, Note_on_c, 0, 41, 79
2,46150, Note_on_c, 0, 67, 83
2,46201, Note_on_c, 0, 69, 0
2,46269, Note_on_c, 0, 43, 80
2,46272, Note_on_c, 0, 41, 0
2,46413, Note_on_c, 0, 40, 74
2,46413, Note_on_c, 0, 43, 0
2,46449, Control_c, 0, 64, 22
2,46518, Note_on_c, 0, 67, 0
2,46531, Note_on_c, 0, 41, 82
2,46537, Note_on_c, 0, 40, 0
2,46604, Note_on_c, 0, 41, 0
2,46651, Note_on_c, 0, 38, 80
2,46770, Note_on_c, 0, 38, 0
2,46770, Note_on_c, 0, 45, 82
2,46843, Note_on_c, 0, 45, 0
2,46902, Note_on_c, 0, 47, 76
2,46928, Note_on_c, 0, 65, 76
2,46967, Note_on_c, 0, 47, 0
2,47023, Note_on_c, 0, 48, 73
2,47034, Note_on_c, 0, 65, 0
2,47037, Note_on_c, 0, 64, 80
2,47149, Note_on_c, 0, 48, 0
2,47149, Note_on_c, 0, 50, 87
2,47158, Note_on_c, 0, 65, 82
2,47173, Note_on_c, 0, 64, 0
2,47217, Note_on_c, 0, 50, 0
2,47270, Note_on_c, 0, 67, 86
2,47279, Note_on_c, 0, 52, 88
2,47299, Note_on_c, 0, 65, 0
2,47343, Note_on_c, 0, 52, 0
2,47402, Note_on_c, 0, 53, 83
2,47402, Note_on_c, 0, 67, 0
2,47411, Note_on_c, 0, 64, 79
2,47459, Note_on_c, 0, 53, 0
2,47503, Note_on_c, 0, 50, 85
2,47509, Note_on_c, 0, 64, 0
2,47520, Note_on_c, 0, 65, 76
2,47544, Control_c, 0, 64, 21
2,47599, Note_on_c, 0, 50, 0
2,47639, Note_on_c, 0, 55, 95
2,47644, Note_on_c, 0, 65, 0
2,47650, Note_on_c, 0, 62, 80
2,47754, Note_on_c, 0, 62, 0
2,47770, Note_on_c, 0, 65, 74
2,47835, Note_on_c, 0, 72, 0
2,47862, Note_on_c, 0, 65, 0
2,47902, Note_on_c, 0, 64, 72
2,47995, Note_on_c, 0, 65, 76
2,48008, Note_on_c, 0, 64, 0
2,48066, Note_on_c, 0, 65, 0
2,48136, Note_on_c, 0, 71, 97
2,48152, Note_on_c, 0, 67, 83
2,48182, Note_on_c, 0, 67, 0
2,48268, Note_on_c, 0, 69, 74
2,48404, Note_on_c, 0, 65, 59
2,48428, Note_on_c, 0, 69, 0
2,48503, Note_on_c, 0, 67, 77
2,48517, Note_on_c, 0, 71, 0
2,48544, Note_on_c, 0, 65, 0
2,48598, Note_on_c, 0, 67, 0
2,48634, Note_on_c, 0, 64, 81
2,48704, Note_on_c, 0, 64, 0
2,48747, Note_on_c, 0, 62, 78
2,48778, Note_on_c, 0, 62, 0
2,48867, Note_on_c, 0, 64, 89
2,48871, Note_on_c, 0, 72, 90
2,48958, Note_on_c, 0, 64, 0
2,48965, Note_on_c, 0, 72, 0
2,48972, Note_on_c, 0, 71, 82
2,48983, Note_on_c, 0, 65, 78
2,49088, Note_on_c, 0, 71, 0
2,49092, Note_on_c, 0, 65, 0
2,49092, Note_on_c, 0, 72, 93
2,49103, Note_on_c, 0, 64, 86
2,49165, Note_on_c, 0, 64, 0
2,49182, Note_on_c, 0, 72, 0
2,49219, Note_on_c, 0, 65, 66
2,49244, Note_on_c, 0, 65, 0
2,49335, Note_on_c, 0, 62, 80
2,49335, Note_on_c, 0, 67, 82
2,49368, Note_on_c, 0, 62, 0
2,49383, Note_on_c, 0, 67, 0
2,49388, Control_c, 0, 64, 20
2,49581, Note_on_c, 0, 60, 68
2,49581, Note_on_c, 0, 76, 95
2,49590, Note_on_c, 0, 55, 0
2,49631, Note_on_c, 0, 74, 83
2,49631, Note_on_c, 0, 76, 0
2,49666, Note_on_c, 0, 60, 0
2,49695, Note_on_c, 0, 59, 73
2,49699, Note_on_c, 0, 76, 90
2,49730, Note_on_c, 0, 74, 0
2,49816, Note_on_c, 0, 59, 0
2,49823, Note_on_c, 0, 60, 66
2,49906, Note_on_c, 0, 60, 0
2,49943, Note_on_c, 0, 62, 70
2,49998, Note_on_c, 0, 62, 0
2,50002, Note_on_c, 0, 76, 0
2,50060, Note_on_c, 0, 60, 75
2,50071, Note_on_c, 0, 74, 89
2,50123, Note_on_c, 0, 60, 0
2,50186, Note_on_c, 0, 62, 69
2,50215, Control_c, 0, 64, 21
2,50292, Note_on_c, 0, 62, 0
2,50299, Note_on_c, 0, 59, 67
2,50367, Note_on_c, 0, 59, 0
2,50416, Note_on_c, 0, 60, 77
2,50487, Note_on_c, 0, 60, 0
2,50536, Note_on_c, 0, 57, 86
2,50659, Note_on_c, 0, 57, 0
2,50668, Note_on_c, 0, 59, 78
2,50683, Note_on_c, 0, 74, 0
2,50778, Note_on_c, 0, 59, 0
2,50783, Note_on_c, 0, 60, 82
2,50787, Note_on_c, 0, 72, 85
2,50846, Note_on_c, 0, 60, 0
2,50901, Note_on_c, 0, 62, 76
2,50903, Note_on_c, 0, 71, 84
2,50907, Note_on_c, 0, 72, 0
2,50969, Note_on_c, 0, 71, 0
2,50974, Note_on_c, 0, 62, 0
2,51005, Note_on_c, 0, 64, 82
2,51026, Note_on_c, 0, 72, 88
2,51063, Note_on_c, 0, 71, 28
2,51082, Note_on_c, 0, 64, 0
2,51097, Note_on_c, 0, 71, 0
2,51128, Note_on_c, 0, 66, 79
2,51137, Note_on_c, 0, 72, 0
2,51137, Note_on_c, 0, 74, 81
2,51161, Note_on_c, 0, 66, 0
2,51254, Note_on_c, 0, 59, 92
2,51254, Note_on_c, 0, 71, 81
2,51257, Note_on_c, 0, 67, 86
2,51261, Note_on_c, 0, 74, 0
2,51289, Note_on_c, 0, 59, 0
2,51375, Note_on_c, 0, 72, 84
2,51397, Note_on_c, 0, 71, 0
2,51428, Note_on_c, 0, 67, 0
2,51500, Note_on_c, 0, 69, 85
2,51504, Note_on_c, 0, 60, 91
2,51508, Note_on_c, 0, 72, 0
2,51562, Note_on_c, 0, 60, 0
2,51622, Note_on_c, 0, 72, 86
2,51639, Note_on_c, 0, 69, 0
2,51746, Note_on_c, 0, 71, 86
2,51760, Note_on_c, 0, 57, 90
2,51760, Note_on_c, 0, 67, 74
2,51764, Note_on_c, 0, 72, 0
2,51795, Note_on_c, 0, 57, 0
2,51811, Note_on_c, 0, 71, 0
2,51815, Note_on_c, 0, 67, 0
2,51864, Note_on_c, 0, 72, 84
2,51924, Note_on_c, 0, 72, 0
2,51996, Note_on_c, 0, 74, 92
2,52007, Note_on_c, 0, 62, 88
2,52065, Note_on_c, 0, 62, 0
2,52121, Note_on_c, 0, 74, 0
2,52121, Note_on_c, 0, 76, 82
2,52267, Note_on_c, 0, 50, 82
2,52267, Note_on_c, 0, 66, 86
2,52267, Note_on_c, 0, 72, 88
2,52271, Note_on_c, 0, 76, 0
2,52297, Note_on_c, 0, 50, 0
2,52346, Note_on_c, 0, 66, 0
2,52391, Note_on_c, 0, 74, 77
2,52420, Note_on_c, 0, 72, 0
2,52534, Note_on_c, 0, 74, 0
2,52538, Note_on_c, 0, 67, 72
2,52543, Note_on_c, 0, 43, 72
2,52543, Note_on_c, 0, 71, 83
2,52591, Control_c, 0, 64, 20
2,52661, Note_on_c, 0, 43, 0
2,52672, Note_on_c, 0, 42, 67
2,52706, Control_c, 0, 64, 21
2,52739, Note_on_c, 0, 42, 0
2,52805, Note_on_c, 0, 43, 64
2,52823, Note_on_c, 0, 74, 73
2,52837, Note_on_c, 0, 71, 0
2,52850, Note_on_c, 0, 67, 0
2,52894, Note_on_c, 0, 43, 0
2,52912, Note_on_c, 0, 45, 66
2,52912, Note_on_c, 0, 74, 0
2,52927, Note_on_c, 0, 72, 77
2,52962, Note_on_c, 0, 45, 0
2,53041, Note_on_c, 0, 47, 64
2,53054, Note_on_c, 0, 74, 81
2,53059, Note_on_c, 0, 72, 0
2,53091, Note_on_c, 0, 74, 0
2,53108, Note_on_c, 0, 47, 0
2,53155, Note_on_c, 0, 48, 54
2,53218, Note_on_c, 0, 48, 0
2,53276, Note_on_c, 0, 45, 51
2,53293, Note_on_c, 0, 67, 79
2,53325, Note_on_c, 0, 67, 0
2,53349, Note_on_c, 0, 45, 0
2,53392, Note_on_c, 0, 47, 50
2,53463, Note_on_c, 0, 47, 0
2,53531, Note_on_c, 0, 48, 53
2,53537, Note_on_c, 0, 76, 88
2,53596, Note_on_c, 0, 48, 0
2,53671, Note_on_c, 0, 47, 49
2,53755, Note_on_c, 0, 47, 0
2,53793, Note_on_c, 0, 48, 59
2,53793, Note_on_c, 0, 67, 73
2,53804, Note_on_c, 0, 76, 0
2,53843, Note_on_c, 0, 48, 0
2,53867, Note_on_c, 0, 67, 0
2,53909, Note_on_c, 0, 65, 65
2,53910, Note_on_c, 0, 50, 61
2,53968, Note_on_c, 0, 50, 0
2,53981, Note_on_c, 0, 65, 0
2,54035, Note_on_c, 0, 74, 78
2,54048, Note_on_c, 0, 67, 65
2,54070, Control_c, 0, 64, 22
2,54074, Note_on_c, 0, 48, 29
2,54095, Note_on_c, 0, 67, 0
2,54126, Note_on_c, 0, 48, 0
2,54139, Note_on_c, 0, 50, 33
2,54253, Note_on_c, 0, 50, 0
2,54285, Note_on_c, 0, 62, 77
2,54290, Note_on_c, 0, 47, 60
2,54324, Note_on_c, 0, 62, 0
2,54341, Note_on_c, 0, 47, 0
2,54344, Note_on_c, 0, 74, 0
2,54395, Note_on_c, 0, 48, 65
2,54447, Note_on_c, 0, 48, 0
2,54533, Note_on_c, 0, 45, 61
2,54538, Note_on_c, 0, 69, 73
2,54538, Note_on_c, 0, 72, 83
2,54619, Note_on_c, 0, 45, 0
2,54657, Note_on_c, 0, 44, 60
2,54703, Control_c, 0, 64, 23
2,54721, Control_c, 0, 64, 24
2,54759, Note_on_c, 0, 44, 0
2,54783, Note_on_c, 0, 45, 57
2,54783, Note_on_c, 0, 76, 80
2,54785, Note_on_c, 0, 72, 0
2,54801, Note_on_c, 0, 69, 0
2,54828, Note_on_c, 0, 45, 0
2,54884, Note_on_c, 0, 76, 0
2,54889, Note_on_c, 0, 47, 59
2,54893, Note_on_c, 0, 74, 81
2,54944, Note_on_c, 0, 47, 0
2,54988, Note_on_c, 0, 48, 63
2,55010, Note_on_c, 0, 76, 90
2,55026, Note_on_c, 0, 67, 73
2,55026, Note_on_c, 0, 74, 0
2,55062, Note_on_c, 0, 48, 0
2,55082, Note_on_c, 0, 76, 0
2,55115, Note_on_c, 0, 50, 67
2,55184, Control_c, 0, 64, 25
2,55195, Note_on_c, 0, 50, 0
2,55253, Note_on_c, 0, 47, 60
2,55271, Note_on_c, 0, 69, 87
2,55280, Note_on_c, 0, 67, 0
2,55297, Control_c, 0, 64, 23
2,55302, Note_on_c, 0, 69, 0
2,55318, Control_c, 0, 64, 22
2,55344, Note_on_c, 0, 47, 0
2,55367, Note_on_c, 0, 48, 57
2,55466, Note_on_c, 0, 48, 0
2,55470, Control_c, 0, 64, 23
2,55512, Note_on_c, 0, 50, 61
2,55519, Note_on_c, 0, 77, 101
2,55523, Note_on_c, 0, 65, 92
2,55580, Note_on_c, 0, 50, 0
2,55603, Control_c, 0, 64, 22
2,55648, Note_on_c, 0, 48, 56
2,55664, Control_c, 0, 64, 23
2,55739, Note_on_c, 0, 65, 0
2,55743, Control_c, 0, 64, 25
2,55774, Note_on_c, 0, 48, 0
2,55788, Note_on_c, 0, 50, 70
2,55788, Note_on_c, 0, 69, 83
2,55803, Note_on_c, 0, 77, 0
2,55852, Note_on_c, 0, 50, 0
2,55873, Note_on_c, 0, 69, 0
2,55890, Note_on_c, 0, 67, 87
2,55915, Note_on_c, 0, 52, 61
2,55972, Note_on_c, 0, 67, 0
2,55976, Note_on_c, 0, 52, 0
2,56015, Note_on_c, 0, 76, 100
2,56019, Note_on_c, 0, 69, 83
2,56024, Note_on_c, 0, 50, 72
2,56047, Control_c, 0, 64, 24
2,56058, Note_on_c, 0, 69, 0
2,56067, Control_c, 0, 64, 23
2,56071, Note_on_c, 0, 50, 0
2,56139, Note_on_c, 0, 52, 69
2,56221, Control_c, 0, 64, 24
2,56255, Note_on_c, 0, 52, 0
2,56264, Note_on_c, 0, 64, 91
2,56276, Note_on_c, 0, 48, 66
2,56302, Note_on_c, 0, 76, 0
2,56316, Note_on_c, 0, 64, 0
2,56348, Note_on_c, 0, 48, 0
2,56396, Note_on_c, 0, 50, 75
2,56462, Note_on_c, 0, 50, 0
2,56526, Note_on_c, 0, 71, 89
2,56528, Note_on_c, 0, 47, 75
2,56528, Note_on_c, 0, 74, 88
2,56569, Control_c, 0, 64, 23
2,56643, Note_on_c, 0, 47, 0
2,56669, Note_on_c, 0, 45, 60
2,56680, Control_c, 0, 64, 24
2,56777, Note_on_c, 0, 77, 88
2,56781, Note_on_c, 0, 74, 0
2,56786, Note_on_c, 0, 47, 70
2,56797, Note_on_c, 0, 45, 0
2,56808, Note_on_c, 0, 71, 0
2,56887, Note_on_c, 0, 76, 89
2,56891, Note_on_c, 0, 77, 0
2,56913, Note_on_c, 0, 47, 0
2,56917, Note_on_c, 0, 48, 68
2,56981, Note_on_c, 0, 48, 0
2,57017, Note_on_c, 0, 69, 87
2,57017, Note_on_c, 0, 77, 93
2,57028, Note_on_c, 0, 50, 73
2,57028, Note_on_c, 0, 76, 0
2,57084, Note_on_c, 0, 77, 0
2,57116, Note_on_c, 0, 50, 0
2,57142, Note_on_c, 0, 52, 70
2,57161, Control_c, 0, 64, 25
2,57215, Note_on_c, 0, 52, 0
2,57257, Note_on_c, 0, 48, 69
2,57257, Note_on_c, 0, 71, 93
2,57269, Note_on_c, 0, 69, 0
2,57295, Note_on_c, 0, 71, 0
2,57314, Control_c, 0, 64, 24
2,57365, Note_on_c, 0, 48, 0
2,57369, Note_on_c, 0, 50, 72
2,57494, Note_on_c, 0, 50, 0
2,57509, Note_on_c, 0, 79, 105
2,57513, Note_on_c, 0, 67, 94
2,57522, Note_on_c, 0, 52, 73
2,57599, Note_on_c, 0, 52, 0
2,57666, Note_on_c, 0, 50, 62
2,57699, Control_c, 0, 64, 25
2,57763, Note_on_c, 0, 67, 0
2,57784, Note_on_c, 0, 71, 86
2,57787, Note_on_c, 0, 50, 0
2,57791, Note_on_c, 0, 52, 74
2,57800, Note_on_c, 0, 79, 0
2,57847, Note_on_c, 0, 52, 0
2,57873, Note_on_c, 0, 71, 0
2,57875, Note_on_c, 0, 69, 89
2,57894, Note_on_c, 0, 53, 72
2,57961, Note_on_c, 0, 69, 0
2,57970, Note_on_c, 0, 53, 0
2,58000, Note_on_c, 0, 77, 101
2,58007, Note_on_c, 0, 52, 79
2,58007, Note_on_c, 0, 71, 91
2,58045, Note_on_c, 0, 71, 0
2,58065, Note_on_c, 0, 52, 0
2,58120, Note_on_c, 0, 53, 72
2,58236, Note_on_c, 0, 53, 0
2,58249, Note_on_c, 0, 50, 70
2,58254, Note_on_c, 0, 67, 90
2,58290, Note_on_c, 0, 77, 0
2,58318, Note_on_c, 0, 50, 0
2,58323, Note_on_c, 0, 67, 0
2,58362, Note_on_c, 0, 52, 80
2,58437, Note_on_c, 0, 52, 0
2,58491, Note_on_c, 0, 48, 75
2,58496, Note_on_c, 0, 76, 92
2,58504, Note_on_c, 0, 72, 90
2,58560, Note_on_c, 0, 76, 0
2,58598, Note_on_c, 0, 48, 0
2,58609, Note_on_c, 0, 47, 72
2,58737, Note_on_c, 0, 48, 76
2,58741, Note_on_c, 0, 47, 0
2,58741, Note_on_c, 0, 77, 90
2,58758, Note_on_c, 0, 72, 0
2,58804, Note_on_c, 0, 77, 0
2,58862, Note_on_c, 0, 50, 78
2,58868, Note_on_c, 0, 48, 0
2,58940, Note_on_c, 0, 50, 0
2,58986, Note_on_c, 0, 79, 92
2,58993, Note_on_c, 0, 70, 91
2,59007, Note_on_c, 0, 52, 73
2,59111, Note_on_c, 0, 52, 0
2,59113, Note_on_c, 0, 53, 75
2,59210, Note_on_c, 0, 53, 0
2,59227, Note_on_c, 0, 50, 81
2,59234, Control_c, 0, 64, 26
2,59254, Control_c, 0, 64, 27
2,59272, Control_c, 0, 64, 28
2,59290, Control_c, 0, 64, 29
2,59300, Note_on_c, 0, 70, 0
2,59330, Control_c, 0, 64, 30
2,59343, Note_on_c, 0, 52, 84
2,59349, Control_c, 0, 64, 31
2,59371, Control_c, 0, 64, 32
2,59371, Note_on_c, 0, 50, 0
2,59443, Control_c, 0, 64, 33
2,59492, Note_on_c, 0, 53, 80
2,59509, Note_on_c, 0, 69, 78
2,59527, Note_on_c, 0, 52, 0
2,59594, Note_on_c, 0, 53, 0
2,59621, Note_on_c, 0, 55, 75
2,59645, Note_on_c, 0, 79, 0
2,59678, Control_c, 0, 64, 32
2,59715, Control_c, 0, 64, 31
2,59738, Note_on_c, 0, 53, 76
2,59748, Note_on_c, 0, 55, 0
2,59772, Control_c, 0, 64, 30
2,59846, Note_on_c, 0, 53, 0
2,59868, Note_on_c, 0, 52, 77
2,59888, Control_c, 0, 64, 29
2,59953, Note_on_c, 0, 52, 0
2,60011, Note_on_c, 0, 50, 74
2,60011, Note_on_c, 0, 77, 88
2,60080, Note_on_c, 0, 69, 0
2,60100, Control_c, 0, 64, 28
2,60116, Note_on_c, 0, 50, 0
2,60120, Note_on_c, 0, 48, 76
2,60232, Note_on_c, 0, 48, 0
2,60253, Note_on_c, 0, 47, 75
2,60372, Note_on_c, 0, 47, 0
2,60381, Note_on_c, 0, 45, 72
2,60494, Note_on_c, 0, 45, 0
2,60516, Note_on_c, 0, 47, 66
2,60542, Note_on_c, 0, 67, 68
2,60564, Note_on_c, 0, 47, 0
2,60658, Note_on_c, 0, 43, 72
2,60744, Note_on_c, 0, 77, 0
2,60779, Note_on_c, 0, 43, 0
2,60779, Note_on_c, 0, 45, 71
2,60907, Note_on_c, 0, 47, 76
2,60925, Control_c, 0, 64, 29
2,60927, Note_on_c, 0, 45, 0
2,61031, Note_on_c, 0, 48, 71
2,61040, Note_on_c, 0, 76, 91
2,61062, Note_on_c, 0, 47, 0
2,61115, Control_c, 0, 64, 30
2,61124, Note_on_c, 0, 48, 0
2,61126, Note_on_c, 0, 67, 0
2,61137, Note_on_c, 0, 50, 64
2,61247, Note_on_c, 0, 47, 66
2,61252, Note_on_c, 0, 50, 0
2,61358, Note_on_c, 0, 47, 0
2,61371, Note_on_c, 0, 48, 67
2,61450, Note_on_c, 0, 48, 0
2,61518, Note_on_c, 0, 45, 58
2,61542, Note_on_c, 0, 65, 62
2,61601, Note_on_c, 0, 45, 0
2,61633, Note_on_c, 0, 48, 60
2,61723, Note_on_c, 0, 48, 0
2,61732, Control_c, 0, 64, 31
2,61749, Control_c, 0, 64, 33
2,61768, Control_c, 0, 64, 34
2,61768, Note_on_c, 0, 47, 65
2,61791, Control_c, 0, 64, 35
2,61807, Control_c, 0, 64, 36
2,61825, Control_c, 0, 64, 37
2,61832, Note_on_c, 0, 76, 0
2,61848, Control_c, 0, 64, 38
2,61864, Control_c, 0, 64, 39
2,61884, Control_c, 0, 64, 40
2,61889, Note_on_c, 0, 48, 71
2,61913, Note_on_c, 0, 47, 0
2,61973, Note_on_c, 0, 48, 0
2,62030, Note_on_c, 0, 50, 70
2,62030, Note_on_c, 0, 74, 84
2,62142, Note_on_c, 0, 50, 0
2,62147, Note_on_c, 0, 52, 73
2,62257, Note_on_c, 0, 52, 0
2,62264, Note_on_c, 0, 53, 73
2,62277, Note_on_c, 0, 72, 93
2,62324, Control_c, 0, 64, 41
2,62364, Note_on_c, 0, 53, 0
2,62366, Control_c, 0, 64, 43
2,62383, Control_c, 0, 64, 44
2,62395, Note_on_c, 0, 50, 73
2,62402, Control_c, 0, 64, 45
2,62458, Control_c, 0, 64, 46
2,62518, Note_on_c, 0, 50, 0
2,62542, Note_on_c, 0, 71, 85
2,62555, Note_on_c, 0, 55, 66
2,62645, Note_on_c, 0, 74, 0
2,62671, Control_c, 0, 64, 45
2,62680, Note_on_c, 0, 57, 74
2,62685, Note_on_c, 0, 55, 0
2,62748, Control_c, 0, 64, 44
2,62785, Control_c, 0, 64, 43
2,62791, Note_on_c, 0, 57, 0
2,62798, Note_on_c, 0, 67, 85
2,62798, Note_on_c, 0, 72, 0
2,62803, Note_on_c, 0, 53, 69
2,62823, Control_c, 0, 64, 42
2,62847, Note_on_c, 0, 71, 0
2,62856, Note_on_c, 0, 65, 0
2,62901, Note_on_c, 0, 53, 0
2,62906, Control_c, 0, 64, 41
2,62919, Note_on_c, 0, 55, 69
2,62976, Control_c, 0, 64, 40
2,63066, Note_on_c, 0, 55, 0
2,63066, Note_on_c, 0, 57, 67
2,63077, Note_on_c, 0, 72, 85
2,63086, Note_on_c, 0, 64, 75
2,63114, Note_on_c, 0, 57, 0
2,63171, Note_on_c, 0, 59, 68
2,63190, Note_on_c, 0, 67, 0
2,63292, Note_on_c, 0, 59, 0
2,63303, Control_c, 0, 64, 41
2,63318, Note_on_c, 0, 55, 62
2,63386, Note_on_c, 0, 64, 0
2,63406, Note_on_c, 0, 55, 0
2,63434, Note_on_c, 0, 57, 68
2,63516, Note_on_c, 0, 57, 0
2,63577, Note_on_c, 0, 53, 55
2,63581, Note_on_c, 0, 62, 72
2,63640, Note_on_c, 0, 53, 0
2,63692, Note_on_c, 0, 55, 70
2,63742, Note_on_c, 0, 72, 0
2,63786, Note_on_c, 0, 55, 0
2,63821, Control_c, 0, 64, 42
2,63826, Note_on_c, 0, 52, 66
2,63917, Note_on_c, 0, 52, 0
2,63935, Note_on_c, 0, 53, 69
2,64059, Note_on_c, 0, 71, 84
2,64072, Note_on_c, 0, 53, 0
2,64072, Note_on_c, 0, 55, 69
2,64092, Note_on_c, 0, 62, 0
2,64123, Note_on_c, 0, 55, 0
2,64156, Note_on_c, 0, 57, 76
2,64177, Note_on_c, 0, 65, 75
2,64256, Note_on_c, 0, 71, 0
2,64282, Note_on_c, 0, 57, 0
2,64293, Note_on_c, 0, 53, 65
2,64298, Note_on_c, 0, 64, 86
2,64335, Note_on_c, 0, 65, 0
2,64356, Note_on_c, 0, 53, 0
2,64405, Note_on_c, 0, 64, 0
2,64409, Note_on_c, 0, 62, 85
2,64423, Note_on_c, 0, 55, 59
2,64451, Note_on_c, 0, 55, 0
2,64474, Note_on_c, 0, 62, 0
2,64494, Control_c, 0, 64, 41
2,64537, Note_on_c, 0, 72, 84
2,64543, Note_on_c, 0, 52, 68
2,64543, Note_on_c, 0, 67, 78
2,64580, Note_on_c, 0, 52, 0
2,64630, Note_on_c, 0, 72, 0
2,64661, Note_on_c, 0, 69, 81
2,64700, Note_on_c, 0, 67, 0
2,64735, Note_on_c, 0, 69, 0
2,64792, Note_on_c, 0, 53, 83
2,64792, Note_on_c, 0, 74, 90
2,64801, Note_on_c, 0, 65, 80
2,64834, Note_on_c, 0, 53, 0
2,64843, Control_c, 0, 64, 42
2,64910, Note_on_c, 0, 67, 86
2,64933, Note_on_c, 0, 65, 0
2,64942, Note_on_c, 0, 74, 0
2,64974, Note_on_c, 0, 67, 0
2,65032, Note_on_c, 0, 67, 85
2,65038, Note_on_c, 0, 64, 91
2,65041, Note_on_c, 0, 55, 82
2,65090, Control_c, 0, 64, 43
2,65117, Note_on_c, 0, 55, 0
2,65159, Note_on_c, 0, 72, 94
2,65195, Note_on_c, 0, 64, 0
2,65199, Note_on_c, 0, 67, 0
2,65302, Note_on_c, 0, 62, 101
2,65307, Note_on_c, 0, 56, 85
2,65351, Note_on_c, 0, 72, 0
2,65353, Note_on_c, 0, 56, 0
2,65437, Note_on_c, 0, 71, 88
2,65473, Control_c, 0, 64, 42
2,65482, Note_on_c, 0, 62, 0
2,65491, Control_c, 0, 64, 37
2,65510, Control_c, 0, 64, 27
2,65530, Control_c, 0, 64, 0
2,65549, Note_on_c, 0, 71, 0
2,65591, Control_c, 0, 64, 24
2,65595, Note_on_c, 0, 45, 77
2,65599, Note_on_c, 0, 60, 97
2,65599, Note_on_c, 0, 72, 92
2,65608, Control_c, 0, 64, 47
2,65627, Control_c, 0, 64, 61
2,65647, Control_c, 0, 64, 67
2,65653, Note_on_c, 0, 72, 0
2,65665, Note_on_c, 0, 45, 0
2,65667, Control_c, 0, 64, 77
2,65685, Control_c, 0, 64, 102
2,65705, Control_c, 0, 64, 127
2,65755, Note_on_c, 0, 65, 73
2,65849, Note_on_c, 0, 65, 0
2,65888, Note_on_c, 0, 55, 75
2,65888, Note_on_c, 0, 64, 76
2,65896, Control_c, 0, 64, 104
2,65914, Control_c, 0, 64, 88
2,65933, Control_c, 0, 64, 78
2,65953, Control_c, 0, 64, 70
2,65966, Note_on_c, 0, 53, 82
2,65976, Control_c, 0, 64, 65
2,65985, Note_on_c, 0, 62, 79
2,65991, Note_on_c, 0, 55, 0
2,65996, Control_c, 0, 64, 63
2,65996, Note_on_c, 0, 64, 0
2,66012, Control_c, 0, 64, 61
2,66029, Control_c, 0, 64, 60
2,66048, Control_c, 0, 64, 58
2,66068, Control_c, 0, 64, 55
2,66088, Control_c, 0, 64, 50
2,66091, Note_on_c, 0, 55, 95
2,66110, Control_c, 0, 64, 46
2,66111, Note_on_c, 0, 53, 0
2,66122, Note_on_c, 0, 64, 77
2,66126, Control_c, 0, 64, 41
2,66149, Control_c, 0, 64, 37
2,66149, Note_on_c, 0, 55, 0
2,66159, Note_on_c, 0, 62, 0
2,66164, Control_c, 0, 64, 32
2,66187, Control_c, 0, 64, 28
2,66202, Control_c, 0, 64, 25
2,66215, Note_on_c, 0, 65, 67
2,66230, Note_on_c, 0, 64, 0
2,66279, Control_c, 0, 64, 24
2,66318, Control_c, 0, 64, 23
2,66352, Note_on_c, 0, 48, 89
2,66352, Note_on_c, 0, 62, 67
2,66357, Note_on_c, 0, 65, 0
2,66391, Note_on_c, 0, 48, 0
2,66395, Control_c, 0, 64, 22
2,66478, Note_on_c, 0, 64, 76
2,66524, Note_on_c, 0, 62, 0
2,66533, Control_c, 0, 64, 23
2,66553, Control_c, 0, 64, 24
2,66613, Note_on_c, 0, 57, 98
2,66617, Note_on_c, 0, 65, 67
2,66622, Note_on_c, 0, 64, 0
2,66746, Control_c, 0, 64, 25
2,66746, Note_on_c, 0, 65, 0
2,66757, Note_on_c, 0, 64, 71
2,66783, Control_c, 0, 64, 26
2,66889, Note_on_c, 0, 65, 62
2,66930, Note_on_c, 0, 64, 0
2,66997, Note_on_c, 0, 65, 0
2,67005, Note_on_c, 0, 67, 65
2,67031, Control_c, 0, 64, 27
2,67135, Note_on_c, 0, 55, 91
2,67139, Note_on_c, 0, 67, 0
2,67144, Note_on_c, 0, 65, 66
2,67149, Note_on_c, 0, 57, 0
2,67272, Note_on_c, 0, 67, 71
2,67277, Note_on_c, 0, 65, 0
2,67318, Control_c, 0, 64, 28
2,67386, Note_on_c, 0, 67, 0
2,67412, Note_on_c, 0, 64, 70
2,67474, Note_on_c, 0, 64, 0
2,67522, Note_on_c, 0, 65, 66
2,67551, Note_on_c, 0, 60, 0
2,67652, Note_on_c, 0, 62, 70
2,67672, Note_on_c, 0, 65, 0
2,67725, Note_on_c, 0, 62, 0
2,67764, Note_on_c, 0, 60, 64
2,67881, Note_on_c, 0, 62, 72
2,67887, Note_on_c, 0, 53, 83
2,67901, Note_on_c, 0, 55, 0
2,67917, Note_on_c, 0, 60, 0
2,67978, Note_on_c, 0, 62, 0
2,68000, Note_on_c, 0, 52, 83
2,68000, Note_on_c, 0, 64, 76
2,68009, Note_on_c, 0, 53, 0
2,68049, Control_c, 0, 64, 29
2,68078, Note_on_c, 0, 52, 0
2,68086, Note_on_c, 0, 64, 0
2,68124, Note_on_c, 0, 53, 93
2,68124, Note_on_c, 0, 62, 71
2,68154, Note_on_c, 0, 53, 0
2,68190, Note_on_c, 0, 62, 0
2,68221, Note_on_c, 0, 64, 66
2,68280, Note_on_c, 0, 64, 0
2,68360, Note_on_c, 0, 50, 88
2,68369, Note_on_c, 0, 60, 63
2,68393, Note_on_c, 0, 50, 0
2,68477, Note_on_c, 0, 62, 67
2,68591, Note_on_c, 0, 60, 0
2,68595, Note_on_c, 0, 62, 0
2,68604, Note_on_c, 0, 55, 97
2,68617, Note_on_c, 0, 64, 72
2,68696, Note_on_c, 0, 64, 0
2,68737, Note_on_c, 0, 62, 69
2,68780, Control_c, 0, 64, 30
2,68791, Note_on_c, 0, 62, 0
2,68853, Note_on_c, 0, 64, 71
2,68948, Note_on_c, 0, 64, 0
2,68959, Note_on_c, 0, 65, 61
2,69042, Note_on_c, 0, 65, 0
2,69044, Note_on_c, 0, 55, 0
2,69087, Note_on_c, 0, 53, 85
2,69087, Note_on_c, 0, 64, 79
2,69091, Note_on_c, 0, 60, 68
2,69155, Note_on_c, 0, 64, 0
2,69164, Note_on_c, 0, 60, 0
2,69213, Note_on_c, 0, 65, 66
2,69254, Note_on_c, 0, 65, 0
2,69342, Note_on_c, 0, 62, 84
2,69350, Note_on_c, 0, 59, 69
2,69384, Note_on_c, 0, 62, 0
2,69398, Note_on_c, 0, 59, 0
2,69448, Note_on_c, 0, 64, 75
2,69484, Note_on_c, 0, 64, 0
2,69585, Note_on_c, 0, 60, 91
2,69590, Note_on_c, 0, 52, 71
2,69590, Note_on_c, 0, 53, 0
2,69692, Note_on_c, 0, 52, 0
2,69726, Note_on_c, 0, 50, 61
2,69846, Note_on_c, 0, 52, 75
2,69850, Note_on_c, 0, 50, 0
2,69867, Note_on_c, 0, 55, 54
2,69913, Note_on_c, 0, 52, 0
2,69942, Note_on_c, 0, 53, 81
2,69957, Note_on_c, 0, 55, 0
2,70013, Note_on_c, 0, 53, 0
2,70063, Note_on_c, 0, 52, 76
2,70068, Note_on_c, 0, 55, 80
2,70108, Note_on_c, 0, 55, 0
2,70112, Note_on_c, 0, 52, 0
2,70177, Note_on_c, 0, 53, 72
2,70217, Control_c, 0, 64, 31
2,70235, Note_on_c, 0, 53, 0
2,70298, Note_on_c, 0, 48, 70
2,70320, Note_on_c, 0, 52, 68
2,70354, Control_c, 0, 64, 30
2,70356, Note_on_c, 0, 52, 0
2,70404, Note_on_c, 0, 48, 0
2,70416, Note_on_c, 0, 50, 58
2,70458, Note_on_c, 0, 50, 0
2,70554, Note_on_c, 0, 53, 80
2,70554, Note_on_c, 0, 57, 82
2,70609, Note_on_c, 0, 53, 0
2,70673, Note_on_c, 0, 52, 71
2,70785, Note_on_c, 0, 52, 0
2,70800, Note_on_c, 0, 53, 71
2,70874, Note_on_c, 0, 53, 0
2,70891, Control_c, 0, 64, 31
2,70911, Note_on_c, 0, 55, 69
2,70953, Note_on_c, 0, 57, 0
2,70964, Note_on_c, 0, 55, 0
2,71043, Note_on_c, 0, 53, 81
2,71052, Note_on_c, 0, 55, 80
2,71094, Note_on_c, 0, 53, 0
2,71288, Note_on_c, 0, 52, 72
2,71350, Note_on_c, 0, 52, 0
2,71412, Note_on_c, 0, 53, 77
2,71450, Note_on_c, 0, 53, 0
2,71542, Note_on_c, 0, 50, 79
2,71588, Note_on_c, 0, 55, 0
2,71637, Note_on_c, 0, 50, 0
2,71662, Note_on_c, 0, 48, 63
2,71763, Note_on_c, 0, 48, 0
2,71779, Note_on_c, 0, 50, 71
2,71779, Note_on_c, 0, 53, 78
2,71839, Note_on_c, 0, 50, 0
2,71872, Control_c, 0, 64, 32
2,71879, Note_on_c, 0, 52, 84
2,71888, Note_on_c, 0, 53, 0
2,71961, Note_on_c, 0, 52, 0
2,72015, Note_on_c, 0, 53, 72
2,72023, Note_on_c, 0, 50, 71
2,72055, Note_on_c, 0, 53, 0
2,72121, Note_on_c, 0, 50, 0
2,72133, Note_on_c, 0, 48, 71
2,72227, Note_on_c, 0, 48, 0
2,72251, Note_on_c, 0, 50, 73
2,72256, Note_on_c, 0, 47, 70
2,72286, Note_on_c, 0, 50, 0
2,72356, Note_on_c, 0, 47, 0
2,72365, Note_on_c, 0, 45, 72
2,72409, Note_on_c, 0, 45, 0
2,72490, Note_on_c, 0, 55, 85
2,72504, Note_on_c, 0, 43, 84
2,72535, Note_on_c, 0, 60, 0
2,72539, Note_on_c, 0, 55, 0
2,72555, Control_c, 0, 64, 31
2,72606, Note_on_c, 0, 43, 0
2,72624, Note_on_c, 0, 41, 72
2,72715, Note_on_c, 0, 41, 0
2,72734, Note_on_c, 0, 43, 76
2,72739, Note_on_c, 0, 59, 92
2,72851, Note_on_c, 0, 43, 0
2,72868, Note_on_c, 0, 45, 76
2,72918, Control_c, 0, 64, 32
2,72922, Note_on_c, 0, 45, 0
2,72980, Note_on_c, 0, 60, 85
2,72990, Note_on_c, 0, 57, 78
2,72995, Note_on_c, 0, 43, 80
2,73010, Note_on_c, 0, 59, 0
2,73034, Note_on_c, 0, 57, 0
2,73038, Control_c, 0, 64, 31
2,73045, Note_on_c, 0, 60, 0
2,73108, Note_on_c, 0, 41, 75
2,73112, Note_on_c, 0, 43, 0
2,73175, Note_on_c, 0, 41, 0
2,73234, Note_on_c, 0, 59, 81
2,73234, Note_on_c, 0, 62, 84
2,73238, Note_on_c, 0, 40, 73
2,73267, Control_c, 0, 64, 30
2,73267, Note_on_c, 0, 59, 0
2,73301, Note_on_c, 0, 62, 0
2,73336, Note_on_c, 0, 40, 0
2,73345, Note_on_c, 0, 38, 76
2,73425, Note_on_c, 0, 38, 0
2,73473, Note_on_c, 0, 36, 82
2,73478, Note_on_c, 0, 60, 76
2,73478, Note_on_c, 0, 64, 82
2,73511, Note_on_c, 0, 60, 0
2,73527, Note_on_c, 0, 64, 0
2,73531, Note_on_c, 0, 36, 0
2,73590, Note_on_c, 0, 48, 70
2,73680, Note_on_c, 0, 48, 0
2,73715, Note_on_c, 0, 67, 83
2,73727, Note_on_c, 0, 52, 83
2,73732, Note_on_c, 0, 58, 82
2,73770, Note_on_c, 0, 52, 0
2,73770, Note_on_c, 0, 58, 0
2,73783, Note_on_c, 0, 67, 0
2,73835, Note_on_c, 0, 65, 81
2,73839, Note_on_c, 0, 48, 81
2,73856, Note_on_c, 0, 57, 71
2,73889, Note_on_c, 0, 57, 0
2,73937, Note_on_c, 0, 48, 0
2,73950, Note_on_c, 0, 67, 78
2,73957, Note_on_c, 0, 36, 81
2,73963, Note_on_c, 0, 58, 73
2,73977, Note_on_c, 0, 65, 0
2,74001, Note_on_c, 0, 58, 0
2,74019, Note_on_c, 0, 36, 0
2,74036, Note_on_c, 0, 67, 0
2,74080, Note_on_c, 0, 48, 66
2,74112, Control_c, 0, 64, 29
2,74155, Note_on_c, 0, 48, 0
2,74191, Note_on_c, 0, 60, 77
2,74200, Note_on_c, 0, 64, 78
2,74204, Note_on_c, 0, 55, 80
2,74221, Note_on_c, 0, 60, 0
2,74234, Note_on_c, 0, 64, 0
2,74239, Note_on_c, 0, 55, 0
2,74316, Note_on_c, 0, 48, 78
2,74381, Control_c, 0, 64, 30
2,74425, Note_on_c, 0, 48, 0
2,74443, Note_on_c, 0, 69, 84
2,74451, Note_on_c, 0, 36, 73
2,74451, Note_on_c, 0, 65, 81
2,74514, Control_c, 0, 64, 29
2,74571, Note_on_c, 0, 36, 0
2,74589, Note_on_c, 0, 38, 67
2,74705, Control_c, 0, 64, 30
2,74708, Note_on_c, 0, 40, 75
2,74720, Note_on_c, 0, 38, 0
2,74744, Control_c, 0, 64, 31
2,74764, Control_c, 0, 64, 32
2,74812, Note_on_c, 0, 41, 85
2,74820, Control_c, 0, 64, 33
2,74841, Control_c, 0, 64, 34
2,74845, Note_on_c, 0, 65, 0
2,74854, Note_on_c, 0, 40, 0
2,74858, Control_c, 0, 64, 35
2,74897, Control_c, 0, 64, 36
2,74926, Note_on_c, 0, 41, 0
2,74930, Note_on_c, 0, 64, 88
2,74930, Note_on_c, 0, 67, 89
2,74935, Note_on_c, 0, 43, 83
2,74973, Note_on_c, 0, 69, 0
2,75015, Note_on_c, 0, 43, 0
2,75050, Control_c, 0, 64, 35
2,75055, Note_on_c, 0, 45, 88
2,75087, Control_c, 0, 64, 34
2,75109, Control_c, 0, 64, 33
2,75149, Control_c, 0, 64, 32
2,75176, Note_on_c, 0, 47, 90
2,75186, Control_c, 0, 64, 31
2,75197, Note_on_c, 0, 45, 0
2,75223, Note_on_c, 0, 67, 0
2,75233, Note_on_c, 0, 64, 0
2,75247, Control_c, 0, 64, 30
2,75247, Note_on_c, 0, 47, 0
2,75295, Note_on_c, 0, 48, 87
2,75372, Note_on_c, 0, 48, 0
2,75397, Control_c, 0, 64, 29
2,75427, Note_on_c, 0, 36, 89
2,75488, Note_on_c, 0, 36, 0
2,75492, Control_c, 0, 64, 28
2,75559, Note_on_c, 0, 48, 73
2,75631, Note_on_c, 0, 48, 0
2,75673, Note_on_c, 0, 65, 76
2,75683, Note_on_c, 0, 50, 82
2,75723, Note_on_c, 0, 50, 0
2,75761, Control_c, 0, 64, 29
2,75775, Note_on_c, 0, 64, 85
2,75794, Note_on_c, 0, 65, 0
2,75798, Note_on_c, 0, 48, 83
2,75892, Note_on_c, 0, 48, 0
2,75911, Note_on_c, 0, 36, 80
2,75911, Note_on_c, 0, 64, 0
2,75916, Note_on_c, 0, 64, 41
2,75916, Note_on_c, 0, 65, 80
2,75943, Note_on_c, 0, 64, 0
2,75954, Note_on_c, 0, 65, 0
2,75959, Note_on_c, 0, 36, 0
2,76030, Note_on_c, 0, 48, 71
2,76094, Note_on_c, 0, 48, 0
2,76148, Note_on_c, 0, 62, 90
2,76158, Note_on_c, 0, 53, 66
2,76162, Note_on_c, 0, 52, 71
2,76202, Note_on_c, 0, 53, 0
2,76202, Note_on_c, 0, 62, 0
2,76206, Note_on_c, 0, 52, 0
2,76276, Note_on_c, 0, 48, 75
2,76391, Note_on_c, 0, 67, 92
2,76404, Note_on_c, 0, 47, 85
2,76411, Note_on_c, 0, 48, 0
2,76489, Note_on_c, 0, 47, 0
2,76542, Note_on_c, 0, 48, 76
2,76645, Note_on_c, 0, 48, 0
2,76650, Note_on_c, 0, 47, 80
2,76654, Note_on_c, 0, 62, 79
2,76668, Note_on_c, 0, 67, 0
2,76704, Control_c, 0, 64, 30
2,76757, Note_on_c, 0, 60, 83
2,76764, Note_on_c, 0, 45, 81
2,76778, Note_on_c, 0, 47, 0
2,76778, Note_on_c, 0, 62, 0
2,76849, Note_on_c, 0, 45, 0
2,76876, Note_on_c, 0, 65, 85
2,76884, Note_on_c, 0, 62, 89
2,76895, Control_c, 0, 64, 31
2,76895, Note_on_c, 0, 43, 86
2,76914, Note_on_c, 0, 60, 0
2,76970, Control_c, 0, 64, 32
2,77002, Note_on_c, 0, 41, 89
2,77026, Note_on_c, 0, 43, 0
2,77053, Note_on_c, 0, 62, 0
2,77067, Control_c, 0, 64, 33
2,77127, Note_on_c, 0, 40, 80
2,77127, Note_on_c, 0, 55, 73
2,77139, Note_on_c, 0, 41, 0
2,77243, Note_on_c, 0, 38, 79
2,77243, Note_on_c, 0, 40, 0
2,77251, Note_on_c, 0, 55, 0
2,77318, Note_on_c, 0, 38, 0
2,77355, Note_on_c, 0, 36, 85
2,77367, Note_on_c, 0, 60, 80
2,77374, Note_on_c, 0, 64, 76
2,77393, Control_c, 0, 64, 32
2,77400, Note_on_c, 0, 60, 0
2,77418, Note_on_c, 0, 64, 0
2,77425, Note_on_c, 0, 65, 0
2,77471, Note_on_c, 0, 36, 0
2,77475, Note_on_c, 0, 48, 85
2,77519, Note_on_c, 0, 48, 0
2,77625, Control_c, 0, 64, 31
2,77629, Note_on_c, 0, 68, 95
2,77633, Note_on_c, 0, 50, 81
2,77638, Note_on_c, 0, 59, 82
2,77638, Note_on_c, 0, 65, 79
2,77685, Note_on_c, 0, 59, 0
2,77687, Note_on_c, 0, 65, 0
2,77695, Note_on_c, 0, 50, 0
2,77706, Note_on_c, 0, 68, 0
2,77743, Note_on_c, 0, 48, 78
2,77852, Note_on_c, 0, 48, 0
2,77865, Note_on_c, 0, 67, 89
2,77873, Note_on_c, 0, 64, 86
2,77875, Note_on_c, 0, 52, 80
2,77882, Note_on_c, 0, 60, 81
2,77910, Note_on_c, 0, 64, 0
2,77934, Note_on_c, 0, 67, 0
2,77946, Note_on_c, 0, 60, 0
2,77957, Note_on_c, 0, 52, 0
2,77993, Note_on_c, 0, 48, 81
2,78065, Control_c, 0, 64, 32
2,78092, Note_on_c, 0, 48, 0
2,78110, Note_on_c, 0, 68, 94
2,78114, Note_on_c, 0, 53, 85
2,78114, Note_on_c, 0, 71, 87
2,78131, Note_on_c, 0, 62, 75
2,78156, Note_on_c, 0, 60, 49
2,78177, Note_on_c, 0, 62, 0
2,78186, Note_on_c, 0, 71, 0
2,78190, Note_on_c, 0, 60, 0
2,78208, Note_on_c, 0, 68, 0
2,78212, Note_on_c, 0, 53, 0
2,78237, Note_on_c, 0, 48, 79
2,78331, Note_on_c, 0, 48, 0
2,78368, Note_on_c, 0, 55, 73
2,78372, Note_on_c, 0, 64, 84
2,78372, Note_on_c, 0, 67, 92
2,78372, Note_on_c, 0, 72, 95
2,78414, Note_on_c, 0, 64, 0
2,78444, Note_on_c, 0, 67, 0
2,78453, Note_on_c, 0, 72, 0
2,78462, Note_on_c, 0, 55, 0
2,78482, Note_on_c, 0, 48, 76
2,78603, Note_on_c, 0, 65, 91
2,78615, Note_on_c, 0, 62, 80
2,78620, Note_on_c, 0, 48, 0
2,78620, Note_on_c, 0, 56, 87
2,78671, Note_on_c, 0, 62, 0
2,78680, Note_on_c, 0, 65, 0
2,78699, Note_on_c, 0, 56, 0
2,78735, Note_on_c, 0, 48, 73
2,78817, Note_on_c, 0, 48, 0
2,78855, Note_on_c, 0, 55, 89
2,78859, Note_on_c, 0, 64, 85
2,78863, Note_on_c, 0, 60, 80
2,78913, Note_on_c, 0, 60, 0
2,78930, Note_on_c, 0, 64, 0
2,78981, Note_on_c, 0, 48, 77
2,79015, Note_on_c, 0, 55, 0
2,79112, Note_on_c, 0, 48, 0
2,79116, Note_on_c, 0, 64, 90
2,79116, Note_on_c, 0, 72, 95
2,79125, Note_on_c, 0, 47, 68
2,79142, Control_c, 0, 64, 31
2,79174, Note_on_c, 0, 64, 0
2,79183, Note_on_c, 0, 72, 0
2,79197, Note_on_c, 0, 47, 0
2,79240, Note_on_c, 0, 48, 82
2,79309, Note_on_c, 0, 48, 0
2,79358, Note_on_c, 0, 62, 90
2,79363, Note_on_c, 0, 57, 84
2,79372, Note_on_c, 0, 41, 92
2,79405, Note_on_c, 0, 57, 0
2,79410, Control_c, 0, 64, 32
2,79420, Note_on_c, 0, 62, 0
2,79436, Note_on_c, 0, 41, 0
2,79451, Control_c, 0, 64, 31
2,79643, Note_on_c, 0, 72, 103
2,79678, Control_c, 0, 64, 30
2,79716, Control_c, 0, 64, 29
2,79826, Note_on_c, 0, 72, 0
2,79927, Control_c, 0, 64, 28
2,79949, Control_c, 0, 64, 27
2,79949, Note_on_c, 0, 65, 88
2,79953, Note_on_c, 0, 43, 78
2,79953, Note_on_c, 0, 55, 80
2,79953, Note_on_c, 0, 62, 87
2,79969, Control_c, 0, 64, 25
2,79987, Control_c, 0, 64, 24
2,80005, Control_c, 0, 64, 23
2,80095, Note_on_c, 0, 55, 0
2,80098, Note_on_c, 0, 65, 0
2,80120, Note_on_c, 0, 62, 0
2,80124, Control_c, 0, 64, 24
2,80131, Note_on_c, 0, 43, 0
2,80294, Note_on_c, 0, 71, 104
2,80389, Control_c, 0, 64, 25
2,80428, Control_c, 0, 64, 26
2,80450, Control_c, 0, 64, 28
2,80465, Control_c, 0, 64, 29
2,80485, Control_c, 0, 64, 30
2,80499, Note_on_c, 0, 71, 0
2,80562, Control_c, 0, 64, 31
2,80582, Control_c, 0, 64, 32
2,80683, Control_c, 0, 64, 33
2,80725, Note_on_c, 0, 72, 101
2,80729, Note_on_c, 0, 36, 70
2,80729, Note_on_c, 0, 60, 90
2,80729, Note_on_c, 0, 64, 92
2,80729, Note_on_c, 0, 67, 91
2,80743, Control_c, 0, 64, 32
2,80758, Control_c, 0, 64, 28
2,80778, Control_c, 0, 64, 22
2,80800, Control_c, 0, 64, 12
2,80817, Control_c, 0, 64, 0
2,82810, Note_on_c, 0, 60, 0
2,82810, Note_on_c, 0, 64, 0
2,82814, Note_on_c, 0, 36, 0
2,82814, Note_on_c, 0, 67, 0
2,82814, Note_on_c, 0, 72, 0
2,82815, End_track
0, 0, End_of_file
