0, 0, Header, 1, 2, 480
1, 0, Start_track
1, 0, Tempo, 500000
1, 0, Time_signature, 4, 2, 24, 8
1, 1, End_track
2, 0, Start_track
2, 0, Program_c, 0, 0
2, 0, Control_c, 0, 64, 127
2, 0, Control_c, 0, 67, 0
2, 943, Note_on_c, 0, 48, 78
2, 948, Note_on_c, 0, 36, 77
2, 1425, Note_on_c, 0, 72, 87
2, 1794, Note_on_c, 0, 74, 85
2, 1927, Note_on_c, 0, 72, 0
2, 2110, Note_on_c, 0, 76, 92
2, 2168, Note_on_c, 0, 74, 0
2, 2395, Note_on_c, 0, 67, 85
2, 2458, Note_on_c, 0, 76, 0
2, 2504, Control_c, 0, 64, 100
2, 2525, Control_c, 0, 64, 78
2, 2542, Control_c, 0, 64, 67
2, 2562, Control_c, 0, 64, 61
2, 2583, Control_c, 0, 64, 59
2, 2601, Control_c, 0, 64, 62
2, 2621, Control_c, 0, 64, 66
2, 2639, Control_c, 0, 64, 70
2, 2656, Control_c, 0, 64, 76
2, 2672, Note_on_c, 0, 76, 88
2, 2679, Control_c, 0, 64, 82
2, 2699, Control_c, 0, 64, 89
2, 2716, Control_c, 0, 64, 98
2, 2735, Control_c, 0, 64, 106
2, 2737, Note_on_c, 0, 67, 0
2, 2753, Control_c, 0, 64, 111
2, 2792, Control_c, 0, 64, 112
2, 2811, Control_c, 0, 64, 113
2, 2832, Control_c, 0, 64, 116
2, 2851, Control_c, 0, 64, 120
2, 2910, Control_c, 0, 64, 118
2, 2918, Note_on_c, 0, 65, 83
2, 2930, Control_c, 0, 64, 108
2, 2943, Note_on_c, 0, 76, 0
2, 2948, Control_c, 0, 64, 98
2, 2965, Control_c, 0, 64, 86
2, 2985, Control_c, 0, 64, 74
2, 3004, Control_c, 0, 64, 65
2, 3023, Control_c, 0, 64, 60
2, 3042, Control_c, 0, 64, 55
2, 3061, Control_c, 0, 64, 53
2, 3120, Control_c, 0, 64, 56
2, 3138, Control_c, 0, 64, 60
2, 3157, Control_c, 0, 64, 62
2, 3168, Note_on_c, 0, 74, 84
2, 3177, Control_c, 0, 64, 64
2, 3195, Control_c, 0, 64, 66
2, 3215, Control_c, 0, 64, 69
2, 3236, Control_c, 0, 64, 74
2, 3236, Note_on_c, 0, 65, 0
2, 3254, Control_c, 0, 64, 79
2, 3276, Control_c, 0, 64, 85
2, 3291, Control_c, 0, 64, 87
2, 3379, Note_on_c, 0, 74, 0
2, 3404, Note_on_c, 0, 64, 76
2, 3426, Control_c, 0, 64, 86
2, 3464, Control_c, 0, 64, 85
2, 3500, Note_on_c, 0, 72, 84
2, 3527, Note_on_c, 0, 64, 0
2, 3540, Control_c, 0, 64, 84
2, 3560, Control_c, 0, 64, 82
2, 3580, Control_c, 0, 64, 81
2, 3598, Control_c, 0, 64, 80
2, 3612, Note_on_c, 0, 71, 78
2, 3618, Control_c, 0, 64, 79
2, 3637, Control_c, 0, 64, 77
2, 3659, Control_c, 0, 64, 75
2, 3675, Control_c, 0, 64, 71
2, 3695, Control_c, 0, 64, 68
2, 3702, Note_on_c, 0, 69, 80
2, 3715, Control_c, 0, 64, 65
2, 3735, Control_c, 0, 64, 63
2, 3735, Note_on_c, 0, 72, 0
2, 3752, Control_c, 0, 64, 61
2, 3772, Control_c, 0, 64, 59
2, 3793, Note_on_c, 0, 71, 0
2, 3797, Control_c, 0, 64, 56
2, 3808, Control_c, 0, 64, 53
2, 3832, Control_c, 0, 64, 48
2, 3837, Note_on_c, 0, 67, 82
2, 3850, Control_c, 0, 64, 44
2, 3866, Note_on_c, 0, 69, 0
2, 3871, Control_c, 0, 64, 40
2, 3885, Control_c, 0, 64, 36
2, 3906, Control_c, 0, 64, 33
2, 3926, Control_c, 0, 64, 31
2, 3944, Control_c, 0, 64, 30
2, 4039, Control_c, 0, 64, 32
2, 4059, Control_c, 0, 64, 35
2, 4070, Note_on_c, 0, 70, 81
2, 4079, Control_c, 0, 64, 38
2, 4099, Control_c, 0, 64, 41
2, 4103, Note_on_c, 0, 67, 0
2, 4118, Control_c, 0, 64, 43
2, 4137, Control_c, 0, 64, 44
2, 4160, Control_c, 0, 64, 45
2, 4306, Note_on_c, 0, 64, 79
2, 4374, Note_on_c, 0, 70, 0
2, 4501, Control_c, 0, 64, 44
2, 4537, Note_on_c, 0, 67, 78
2, 4539, Control_c, 0, 64, 43
2, 4574, Note_on_c, 0, 64, 0
2, 4599, Control_c, 0, 64, 42
2, 4654, Control_c, 0, 64, 41
2, 4676, Control_c, 0, 64, 40
2, 4696, Control_c, 0, 64, 39
2, 4713, Control_c, 0, 64, 37
2, 4731, Control_c, 0, 64, 34
2, 4751, Control_c, 0, 64, 29
2, 4769, Control_c, 0, 64, 18
2, 4775, Note_on_c, 0, 60, 70
2, 4782, Note_on_c, 0, 67, 0
2, 4788, Control_c, 0, 64, 0
2, 4922, Control_c, 0, 64, 35
2, 4943, Control_c, 0, 64, 47
2, 4965, Control_c, 0, 64, 55
2, 4982, Control_c, 0, 64, 60
2, 5002, Note_on_c, 0, 70, 77
2, 5005, Control_c, 0, 64, 63
2, 5020, Control_c, 0, 64, 65
2, 5040, Control_c, 0, 64, 68
2, 5057, Control_c, 0, 64, 77
2, 5073, Note_on_c, 0, 60, 0
2, 5077, Control_c, 0, 64, 88
2, 5097, Control_c, 0, 64, 95
2, 5115, Control_c, 0, 64, 98
2, 5162, Note_on_c, 0, 70, 0
2, 5173, Control_c, 0, 64, 97
2, 5191, Control_c, 0, 64, 95
2, 5211, Control_c, 0, 64, 91
2, 5231, Control_c, 0, 64, 87
2, 5253, Control_c, 0, 64, 81
2, 5253, Note_on_c, 0, 69, 69
2, 5269, Control_c, 0, 64, 77
2, 5289, Control_c, 0, 64, 73
2, 5306, Control_c, 0, 64, 70
2, 5326, Control_c, 0, 64, 68
2, 5344, Control_c, 0, 64, 66
2, 5354, Note_on_c, 0, 67, 65
2, 5365, Control_c, 0, 64, 64
2, 5386, Control_c, 0, 64, 63
2, 5407, Control_c, 0, 64, 62
2, 5422, Control_c, 0, 64, 60
2, 5444, Control_c, 0, 64, 59
2, 5455, Note_on_c, 0, 65, 71
2, 5460, Note_on_c, 0, 69, 0
2, 5462, Control_c, 0, 64, 57
2, 5479, Control_c, 0, 64, 56
2, 5499, Control_c, 0, 64, 54
2, 5519, Control_c, 0, 64, 51
2, 5537, Note_on_c, 0, 67, 0
2, 5542, Control_c, 0, 64, 47
2, 5551, Note_on_c, 0, 64, 79
2, 5557, Control_c, 0, 64, 42
2, 5571, Note_on_c, 0, 65, 0
2, 5576, Control_c, 0, 64, 38
2, 5596, Control_c, 0, 64, 36
2, 5615, Control_c, 0, 64, 34
2, 5635, Control_c, 0, 64, 32
2, 5654, Control_c, 0, 64, 30
2, 5668, Note_on_c, 0, 65, 72
2, 5672, Control_c, 0, 64, 28
2, 5692, Control_c, 0, 64, 27
2, 5729, Control_c, 0, 64, 26
2, 5750, Control_c, 0, 64, 25
2, 5750, Note_on_c, 0, 64, 0
2, 5908, Note_on_c, 0, 69, 75
2, 5969, Note_on_c, 0, 65, 0
2, 6096, Control_c, 0, 64, 26
2, 6149, Note_on_c, 0, 62, 73
2, 6219, Note_on_c, 0, 69, 0
2, 6287, Control_c, 0, 64, 27
2, 6394, Note_on_c, 0, 65, 71
2, 6447, Note_on_c, 0, 62, 0
2, 6628, Note_on_c, 0, 57, 72
2, 6675, Note_on_c, 0, 65, 0
2, 6869, Note_on_c, 0, 60, 69
2, 6923, Note_on_c, 0, 57, 0
2, 7119, Note_on_c, 0, 59, 70
2, 7204, Note_on_c, 0, 60, 0
2, 7372, Note_on_c, 0, 62, 71
2, 7435, Note_on_c, 0, 59, 0
2, 7459, Control_c, 0, 64, 28
2, 7613, Note_on_c, 0, 64, 77
2, 7698, Note_on_c, 0, 62, 0
2, 7844, Control_c, 0, 64, 29
2, 7844, Note_on_c, 0, 65, 71
2, 7903, Note_on_c, 0, 64, 0
2, 8073, Control_c, 0, 64, 30
2, 8101, Note_on_c, 0, 55, 65
2, 8143, Note_on_c, 0, 65, 0
2, 8343, Note_on_c, 0, 65, 62
2, 8428, Note_on_c, 0, 55, 0
2, 8591, Note_on_c, 0, 64, 76
2, 8688, Note_on_c, 0, 65, 0
2, 8833, Note_on_c, 0, 62, 75
2, 8882, Note_on_c, 0, 64, 0
2, 8920, Control_c, 0, 64, 31
2, 9151, Note_on_c, 0, 64, 77
2, 9196, Note_on_c, 0, 62, 0
2, 9488, Note_on_c, 0, 60, 59
2, 9739, Note_on_c, 0, 59, 62
2, 9833, Note_on_c, 0, 36, 0
2, 9897, Note_on_c, 0, 48, 0
2, 9971, Note_on_c, 0, 57, 65
2, 10056, Note_on_c, 0, 59, 0
2, 10216, Note_on_c, 0, 55, 58
2, 10318, Note_on_c, 0, 57, 0
2, 10463, Note_on_c, 0, 53, 61
2, 10472, Control_c, 0, 64, 32
2, 10694, Note_on_c, 0, 52, 63
2, 10758, Note_on_c, 0, 53, 0
2, 10918, Note_on_c, 0, 52, 0
2, 10922, Note_on_c, 0, 50, 61
2, 11127, Note_on_c, 0, 50, 0
2, 11145, Note_on_c, 0, 48, 58
2, 11233, Note_on_c, 0, 48, 0
2, 11257, Note_on_c, 0, 50, 68
2, 11345, Note_on_c, 0, 50, 0
2, 11348, Note_on_c, 0, 48, 66
2, 11440, Note_on_c, 0, 48, 0
2, 11453, Note_on_c, 0, 47, 66
2, 11592, Note_on_c, 0, 47, 0
2, 11592, Note_on_c, 0, 48, 62
2, 11843, Note_on_c, 0, 48, 0
2, 11852, Note_on_c, 0, 52, 64
2, 12103, Note_on_c, 0, 43, 63
2, 12130, Note_on_c, 0, 52, 0
2, 12265, Note_on_c, 0, 55, 0
2, 12342, Note_on_c, 0, 46, 64
2, 12371, Note_on_c, 0, 43, 0
2, 12591, Note_on_c, 0, 45, 57
2, 12635, Note_on_c, 0, 46, 0
2, 12808, Note_on_c, 0, 60, 0
2, 12828, Note_on_c, 0, 43, 57
2, 12872, Note_on_c, 0, 45, 0
2, 13105, Note_on_c, 0, 41, 55
2, 13116, Note_on_c, 0, 57, 52
2, 13158, Note_on_c, 0, 43, 0
2, 13402, Note_on_c, 0, 48, 47
2, 13645, Note_on_c, 0, 48, 0
2, 13652, Note_on_c, 0, 50, 57
2, 13878, Note_on_c, 0, 52, 64
2, 13891, Note_on_c, 0, 50, 0
2, 14139, Note_on_c, 0, 53, 53
2, 14183, Note_on_c, 0, 52, 0
2, 14335, Control_c, 0, 64, 33
2, 14386, Note_on_c, 0, 62, 62
2, 14465, Control_c, 0, 64, 34
2, 14512, Note_on_c, 0, 57, 0
2, 14643, Note_on_c, 0, 52, 59
2, 14663, Note_on_c, 0, 53, 0
2, 14885, Note_on_c, 0, 60, 57
2, 15034, Note_on_c, 0, 64, 0
2, 15059, Note_on_c, 0, 62, 0
2, 15129, Note_on_c, 0, 52, 0
2, 15136, Note_on_c, 0, 50, 46
2, 15138, Note_on_c, 0, 59, 63
2, 15154, Note_on_c, 0, 55, 39
2, 15158, Note_on_c, 0, 60, 0
2, 15230, Note_on_c, 0, 55, 0
2, 15382, Note_on_c, 0, 62, 74
2, 15534, Note_on_c, 0, 62, 0
2, 15629, Note_on_c, 0, 67, 69
2, 15685, Note_on_c, 0, 59, 0
2, 15735, Note_on_c, 0, 50, 0
2, 15872, Note_on_c, 0, 59, 57
2, 16028, Note_on_c, 0, 67, 0
2, 16134, Note_on_c, 0, 52, 51
2, 16134, Note_on_c, 0, 60, 59
2, 16142, Note_on_c, 0, 40, 51
2, 16151, Note_on_c, 0, 59, 0
2, 16216, Note_on_c, 0, 41, 0
2, 16383, Note_on_c, 0, 67, 68
2, 16421, Note_on_c, 0, 40, 0
2, 16521, Control_c, 0, 64, 35
2, 16624, Note_on_c, 0, 45, 54
2, 16633, Note_on_c, 0, 65, 71
2, 16712, Note_on_c, 0, 67, 0
2, 16742, Note_on_c, 0, 52, 0
2, 16862, Note_on_c, 0, 64, 83
2, 16909, Note_on_c, 0, 65, 0
2, 17060, Note_on_c, 0, 60, 0
2, 17121, Note_on_c, 0, 65, 69
2, 17133, Note_on_c, 0, 64, 0
2, 17150, Note_on_c, 0, 38, 52
2, 17159, Note_on_c, 0, 50, 47
2, 17212, Control_c, 0, 64, 34
2, 17215, Note_on_c, 0, 45, 0
2, 17381, Note_on_c, 0, 60, 57
2, 17638, Note_on_c, 0, 62, 57
2, 17702, Note_on_c, 0, 60, 0
2, 17870, Note_on_c, 0, 57, 58
2, 17892, Note_on_c, 0, 62, 0
2, 18092, Note_on_c, 0, 57, 0
2, 18120, Note_on_c, 0, 59, 57
2, 18141, Note_on_c, 0, 43, 48
2, 18152, Control_c, 0, 64, 35
2, 18170, Note_on_c, 0, 65, 0
2, 18215, Note_on_c, 0, 38, 0
2, 18269, Note_on_c, 0, 50, 0
2, 18355, Note_on_c, 0, 65, 62
2, 18606, Note_on_c, 0, 64, 73
2, 18844, Note_on_c, 0, 62, 71
2, 18889, Note_on_c, 0, 64, 0
2, 18904, Note_on_c, 0, 65, 0
2, 19114, Note_on_c, 0, 64, 65
2, 19123, Note_on_c, 0, 60, 53
2, 19129, Note_on_c, 0, 59, 0
2, 19136, Note_on_c, 0, 43, 0
2, 19147, Note_on_c, 0, 36, 48
2, 19156, Note_on_c, 0, 48, 35
2, 19180, Note_on_c, 0, 62, 0
2, 19408, Note_on_c, 0, 48, 0
2, 19417, Note_on_c, 0, 43, 54
2, 19426, Note_on_c, 0, 36, 0
2, 19636, Note_on_c, 0, 45, 61
2, 19713, Note_on_c, 0, 43, 0
2, 19869, Note_on_c, 0, 47, 68
2, 19905, Note_on_c, 0, 45, 0
2, 20120, Note_on_c, 0, 48, 68
2, 20144, Note_on_c, 0, 47, 0
2, 20367, Note_on_c, 0, 52, 70
2, 20374, Note_on_c, 0, 48, 0
2, 20567, Note_on_c, 0, 60, 0
2, 20578, Note_on_c, 0, 64, 0
2, 20617, Note_on_c, 0, 45, 62
2, 20624, Note_on_c, 0, 52, 0
2, 20846, Note_on_c, 0, 45, 0
2, 20859, Note_on_c, 0, 48, 65
2, 21109, Note_on_c, 0, 42, 59
2, 21116, Note_on_c, 0, 62, 75
2, 21142, Note_on_c, 0, 48, 0
2, 21204, Control_c, 0, 64, 36
2, 21355, Note_on_c, 0, 42, 0
2, 21380, Note_on_c, 0, 60, 56
2, 21604, Note_on_c, 0, 38, 58
2, 21608, Note_on_c, 0, 59, 59
2, 21625, Note_on_c, 0, 60, 0
2, 21838, Note_on_c, 0, 57, 55
2, 21838, Note_on_c, 0, 59, 0
2, 21860, Note_on_c, 0, 38, 0
2, 22016, Note_on_c, 0, 62, 0
2, 22074, Note_on_c, 0, 57, 0
2, 22083, Note_on_c, 0, 59, 59
2, 22096, Note_on_c, 0, 43, 54
2, 22331, Note_on_c, 0, 62, 65
2, 22571, Note_on_c, 0, 64, 75
2, 22763, Note_on_c, 0, 62, 0
2, 22822, Note_on_c, 0, 67, 75
2, 22844, Note_on_c, 0, 43, 0
2, 22861, Note_on_c, 0, 59, 0
2, 22890, Note_on_c, 0, 64, 0
2, 22972, Control_c, 0, 64, 35
2, 23071, Note_on_c, 0, 60, 63
2, 23076, Note_on_c, 0, 57, 54
2, 23141, Note_on_c, 0, 67, 0
2, 23301, Note_on_c, 0, 57, 0
2, 23343, Note_on_c, 0, 45, 55
2, 23456, Note_on_c, 0, 47, 61
2, 23493, Note_on_c, 0, 45, 0
2, 23577, Note_on_c, 0, 48, 66
2, 23588, Note_on_c, 0, 47, 0
2, 23687, Note_on_c, 0, 50, 67
2, 23691, Note_on_c, 0, 48, 0
2, 23780, Note_on_c, 0, 50, 0
2, 23812, Note_on_c, 0, 52, 70
2, 24013, Note_on_c, 0, 52, 0
2, 24095, Note_on_c, 0, 42, 64
2, 24183, Note_on_c, 0, 60, 0
2, 24324, Note_on_c, 0, 69, 75
2, 24421, Note_on_c, 0, 67, 81
2, 24426, Note_on_c, 0, 69, 0
2, 24510, Note_on_c, 0, 42, 0
2, 24525, Control_c, 0, 64, 34
2, 24543, Control_c, 0, 64, 32
2, 24547, Note_on_c, 0, 69, 74
2, 24565, Control_c, 0, 64, 30
2, 24575, Note_on_c, 0, 50, 51
2, 24584, Control_c, 0, 64, 25
2, 24584, Note_on_c, 0, 67, 0
2, 24600, Control_c, 0, 64, 0
2, 24773, Control_c, 0, 64, 30
2, 24791, Control_c, 0, 64, 43
2, 24815, Control_c, 0, 64, 51
2, 24815, Note_on_c, 0, 60, 73
2, 24815, Note_on_c, 0, 69, 0
2, 24834, Control_c, 0, 64, 57
2, 24849, Control_c, 0, 64, 61
2, 24867, Control_c, 0, 64, 64
2, 24889, Control_c, 0, 64, 67
2, 24910, Control_c, 0, 64, 72
2, 24925, Control_c, 0, 64, 79
2, 24945, Control_c, 0, 64, 86
2, 24966, Control_c, 0, 64, 90
2, 24987, Control_c, 0, 64, 92
2, 25002, Control_c, 0, 64, 93
2, 25024, Control_c, 0, 64, 92
2, 25041, Control_c, 0, 64, 91
2, 25062, Control_c, 0, 64, 89
2, 25080, Control_c, 0, 64, 87
2, 25100, Control_c, 0, 64, 83
2, 25103, Note_on_c, 0, 59, 68
2, 25122, Control_c, 0, 64, 79
2, 25122, Note_on_c, 0, 43, 50
2, 25138, Control_c, 0, 64, 74
2, 25155, Note_on_c, 0, 60, 0
2, 25157, Control_c, 0, 64, 69
2, 25176, Control_c, 0, 64, 66
2, 25196, Control_c, 0, 64, 64
2, 25214, Control_c, 0, 64, 62
2, 25233, Control_c, 0, 64, 61
2, 25254, Control_c, 0, 64, 60
2, 25272, Control_c, 0, 64, 58
2, 25289, Control_c, 0, 64, 55
2, 25312, Control_c, 0, 64, 51
2, 25330, Control_c, 0, 64, 48
2, 25348, Control_c, 0, 64, 45
2, 25368, Control_c, 0, 64, 42
2, 25388, Control_c, 0, 64, 40
2, 25410, Control_c, 0, 64, 38
2, 25410, Note_on_c, 0, 57, 52
2, 25425, Control_c, 0, 64, 36
2, 25445, Control_c, 0, 64, 35
2, 25464, Control_c, 0, 64, 34
2, 25484, Control_c, 0, 64, 33
2, 25561, Control_c, 0, 64, 32
2, 25644, Note_on_c, 0, 55, 54
2, 25660, Note_on_c, 0, 57, 0
2, 25849, Control_c, 0, 64, 31
2, 25872, Note_on_c, 0, 54, 61
2, 25889, Note_on_c, 0, 55, 0
2, 26028, Note_on_c, 0, 59, 0
2, 26126, Note_on_c, 0, 54, 0
2, 26126, Note_on_c, 0, 55, 64
2, 26175, Control_c, 0, 64, 30
2, 26359, Note_on_c, 0, 62, 70
2, 26372, Control_c, 0, 64, 29
2, 26561, Note_on_c, 0, 55, 0
2, 26594, Note_on_c, 0, 43, 0
2, 26607, Note_on_c, 0, 64, 74
2, 26611, Note_on_c, 0, 41, 55
2, 26838, Note_on_c, 0, 65, 71
2, 26869, Note_on_c, 0, 62, 0
2, 26933, Note_on_c, 0, 64, 0
2, 27083, Note_on_c, 0, 41, 0
2, 27087, Note_on_c, 0, 67, 63
2, 27094, Note_on_c, 0, 40, 49
2, 27181, Note_on_c, 0, 65, 0
2, 27185, Note_on_c, 0, 50, 0
2, 27348, Note_on_c, 0, 64, 57
2, 27464, Note_on_c, 0, 40, 0
2, 27577, Note_on_c, 0, 59, 50
2, 27583, Note_on_c, 0, 64, 0
2, 27594, Note_on_c, 0, 43, 51
2, 27594, Note_on_c, 0, 52, 48
2, 27828, Note_on_c, 0, 62, 64
2, 27835, Note_on_c, 0, 59, 0
2, 27930, Note_on_c, 0, 43, 0
2, 28058, Note_on_c, 0, 61, 60
2, 28069, Note_on_c, 0, 45, 54
2, 28103, Note_on_c, 0, 62, 0
2, 28314, Note_on_c, 0, 64, 68
2, 28368, Note_on_c, 0, 45, 0
2, 28448, Control_c, 0, 64, 30
2, 28507, Note_on_c, 0, 61, 0
2, 28540, Note_on_c, 0, 67, 0
2, 28545, Note_on_c, 0, 57, 64
2, 28555, Note_on_c, 0, 49, 49
2, 28564, Note_on_c, 0, 64, 0
2, 28762, Note_on_c, 0, 49, 0
2, 28791, Note_on_c, 0, 67, 68
2, 28985, Note_on_c, 0, 52, 0
2, 29036, Note_on_c, 0, 38, 41
2, 29053, Note_on_c, 0, 65, 58
2, 29102, Note_on_c, 0, 67, 0
2, 29305, Note_on_c, 0, 45, 46
2, 29472, Note_on_c, 0, 38, 0
2, 29536, Note_on_c, 0, 45, 0
2, 29552, Note_on_c, 0, 47, 59
2, 29778, Note_on_c, 0, 47, 0
2, 29783, Note_on_c, 0, 49, 66
2, 30028, Note_on_c, 0, 49, 0
2, 30033, Note_on_c, 0, 50, 65
2, 30262, Note_on_c, 0, 53, 73
2, 30290, Note_on_c, 0, 50, 0
2, 30469, Note_on_c, 0, 57, 0
2, 30478, Note_on_c, 0, 53, 0
2, 30506, Note_on_c, 0, 47, 53
2, 30506, Note_on_c, 0, 62, 71
2, 30576, Note_on_c, 0, 65, 0
2, 30721, Note_on_c, 0, 47, 0
2, 30740, Note_on_c, 0, 50, 65
2, 30996, Note_on_c, 0, 44, 62
2, 31004, Note_on_c, 0, 64, 68
2, 31037, Note_on_c, 0, 50, 0
2, 31059, Note_on_c, 0, 62, 0
2, 31233, Note_on_c, 0, 44, 0
2, 31271, Note_on_c, 0, 62, 52
2, 31495, Note_on_c, 0, 40, 56
2, 31500, Note_on_c, 0, 60, 58
2, 31529, Note_on_c, 0, 62, 0
2, 31733, Note_on_c, 0, 40, 0
2, 31741, Note_on_c, 0, 59, 63
2, 31742, Note_on_c, 0, 60, 0
2, 31891, Note_on_c, 0, 64, 0
2, 31977, Note_on_c, 0, 45, 58
2, 31986, Note_on_c, 0, 60, 69
2, 31991, Note_on_c, 0, 59, 0
2, 32221, Note_on_c, 0, 64, 78
2, 32250, Note_on_c, 0, 45, 0
2, 32461, Note_on_c, 0, 43, 62
2, 32461, Note_on_c, 0, 65, 72
2, 32590, Note_on_c, 0, 64, 0
2, 32690, Note_on_c, 0, 67, 76
2, 32699, Note_on_c, 0, 43, 0
2, 32749, Note_on_c, 0, 65, 0
2, 32944, Note_on_c, 0, 41, 59
2, 32949, Note_on_c, 0, 67, 0
2, 32949, Note_on_c, 0, 69, 70
2, 33063, Note_on_c, 0, 67, 76
2, 33167, Note_on_c, 0, 69, 0
2, 33172, Note_on_c, 0, 65, 72
2, 33178, Note_on_c, 0, 41, 0
2, 33229, Note_on_c, 0, 67, 0
2, 33278, Note_on_c, 0, 64, 77
2, 33278, Note_on_c, 0, 65, 0
2, 33396, Note_on_c, 0, 40, 53
2, 33408, Note_on_c, 0, 65, 74
2, 33444, Note_on_c, 0, 60, 0
2, 33538, Note_on_c, 0, 64, 0
2, 33615, Note_on_c, 0, 40, 0
2, 33643, Note_on_c, 0, 69, 80
2, 33701, Note_on_c, 0, 65, 0
2, 33865, Note_on_c, 0, 69, 0
2, 33877, Note_on_c, 0, 41, 56
2, 33878, Note_on_c, 0, 62, 83
2, 34096, Note_on_c, 0, 41, 0
2, 34122, Note_on_c, 0, 72, 86
2, 34185, Control_c, 0, 64, 31
2, 34223, Control_c, 0, 64, 32
2, 34317, Control_c, 0, 64, 30
2, 34337, Control_c, 0, 64, 28
2, 34357, Control_c, 0, 64, 21
2, 34368, Note_on_c, 0, 71, 80
2, 34372, Note_on_c, 0, 38, 55
2, 34377, Control_c, 0, 64, 0
2, 34495, Note_on_c, 0, 72, 0
2, 34549, Control_c, 0, 64, 27
2, 34569, Control_c, 0, 64, 54
2, 34589, Control_c, 0, 64, 64
2, 34598, Note_on_c, 0, 69, 82
2, 34609, Control_c, 0, 64, 73
2, 34626, Note_on_c, 0, 71, 0
2, 34630, Control_c, 0, 64, 111
2, 34646, Control_c, 0, 64, 127
2, 34673, Note_on_c, 0, 69, 0
2, 34693, Note_on_c, 0, 38, 0
2, 34893, Note_on_c, 0, 68, 83
2, 34900, Note_on_c, 0, 40, 53
2, 34952, Control_c, 0, 64, 109
2, 34961, Note_on_c, 0, 62, 0
2, 34972, Control_c, 0, 64, 86
2, 34992, Control_c, 0, 64, 71
2, 35012, Control_c, 0, 64, 62
2, 35028, Control_c, 0, 64, 53
2, 35050, Control_c, 0, 64, 46
2, 35070, Control_c, 0, 64, 41
2, 35088, Control_c, 0, 64, 39
2, 35104, Control_c, 0, 64, 36
2, 35125, Control_c, 0, 64, 31
2, 35145, Control_c, 0, 64, 22
2, 35165, Control_c, 0, 64, 14
2, 35165, Note_on_c, 0, 65, 60
2, 35182, Control_c, 0, 64, 11
2, 35202, Control_c, 0, 64, 9
2, 35239, Control_c, 0, 64, 0
2, 35400, Note_on_c, 0, 64, 65
2, 35461, Note_on_c, 0, 65, 0
2, 35490, Control_c, 0, 64, 8
2, 35508, Control_c, 0, 64, 9
2, 35585, Control_c, 0, 64, 10
2, 35636, Note_on_c, 0, 62, 64
2, 35685, Control_c, 0, 64, 11
2, 35685, Note_on_c, 0, 64, 0
2, 35740, Control_c, 0, 64, 12
2, 35836, Note_on_c, 0, 68, 0
2, 35864, Note_on_c, 0, 60, 63
2, 35924, Note_on_c, 0, 62, 0
2, 36097, Note_on_c, 0, 64, 83
2, 36171, Note_on_c, 0, 64, 0
2, 36365, Note_on_c, 0, 69, 76
2, 36372, Control_c, 0, 64, 11
2, 36431, Note_on_c, 0, 60, 0
2, 36604, Note_on_c, 0, 60, 63
2, 36696, Note_on_c, 0, 60, 0
2, 36850, Note_on_c, 0, 59, 61
2, 37093, Note_on_c, 0, 47, 57
2, 37158, Note_on_c, 0, 40, 0
2, 37180, Note_on_c, 0, 69, 0
2, 37336, Note_on_c, 0, 69, 67
2, 37345, Note_on_c, 0, 48, 60
2, 37422, Note_on_c, 0, 47, 0
2, 37486, Control_c, 0, 64, 12
2, 37584, Note_on_c, 0, 50, 73
2, 37589, Note_on_c, 0, 48, 0
2, 37659, Control_c, 0, 64, 13
2, 37754, Control_c, 0, 64, 14
2, 37776, Control_c, 0, 64, 15
2, 37830, Note_on_c, 0, 50, 0
2, 37830, Note_on_c, 0, 52, 62
2, 37830, Note_on_c, 0, 67, 71
2, 37866, Note_on_c, 0, 69, 0
2, 37870, Control_c, 0, 64, 16
2, 38073, Note_on_c, 0, 52, 0
2, 38073, Note_on_c, 0, 55, 69
2, 38197, Note_on_c, 0, 59, 0
2, 38253, Control_c, 0, 64, 15
2, 38272, Control_c, 0, 64, 13
2, 38293, Control_c, 0, 64, 10
2, 38311, Control_c, 0, 64, 0
2, 38325, Note_on_c, 0, 47, 55
2, 38325, Note_on_c, 0, 62, 63
2, 38329, Note_on_c, 0, 65, 66
2, 38342, Note_on_c, 0, 55, 0
2, 38411, Note_on_c, 0, 67, 0
2, 38504, Control_c, 0, 64, 41
2, 38522, Control_c, 0, 64, 55
2, 38542, Control_c, 0, 64, 62
2, 38542, Note_on_c, 0, 47, 0
2, 38557, Note_on_c, 0, 50, 63
2, 38564, Control_c, 0, 64, 66
2, 38581, Control_c, 0, 64, 73
2, 38590, Note_on_c, 0, 62, 0
2, 38599, Control_c, 0, 64, 89
2, 38603, Note_on_c, 0, 65, 0
2, 38618, Control_c, 0, 64, 127
2, 38790, Control_c, 0, 64, 101
2, 38813, Control_c, 0, 64, 83
2, 38830, Control_c, 0, 64, 72
2, 38830, Note_on_c, 0, 64, 78
2, 38835, Note_on_c, 0, 49, 58
2, 38850, Control_c, 0, 64, 66
2, 38871, Control_c, 0, 64, 62
2, 38871, Note_on_c, 0, 50, 0
2, 38888, Control_c, 0, 64, 59
2, 38907, Control_c, 0, 64, 56
2, 38926, Control_c, 0, 64, 53
2, 38945, Control_c, 0, 64, 50
2, 38966, Control_c, 0, 64, 47
2, 38986, Control_c, 0, 64, 45
2, 39002, Control_c, 0, 64, 43
2, 39022, Control_c, 0, 64, 42
2, 39039, Control_c, 0, 64, 39
2, 39059, Control_c, 0, 64, 37
2, 39080, Control_c, 0, 64, 36
2, 39099, Control_c, 0, 64, 35
2, 39108, Note_on_c, 0, 62, 59
2, 39113, Note_on_c, 0, 49, 0
2, 39121, Note_on_c, 0, 52, 55
2, 39156, Control_c, 0, 64, 34
2, 39175, Control_c, 0, 64, 33
2, 39216, Control_c, 0, 64, 32
2, 39333, Note_on_c, 0, 52, 0
2, 39353, Note_on_c, 0, 45, 52
2, 39353, Note_on_c, 0, 61, 59
2, 39407, Note_on_c, 0, 62, 0
2, 39442, Note_on_c, 0, 64, 0
2, 39591, Note_on_c, 0, 64, 66
2, 39598, Note_on_c, 0, 55, 51
2, 39772, Control_c, 0, 64, 31
2, 39860, Note_on_c, 0, 50, 47
2, 39860, Note_on_c, 0, 55, 0
2, 39865, Note_on_c, 0, 57, 65
2, 39869, Note_on_c, 0, 61, 0
2, 39888, Note_on_c, 0, 45, 0
2, 39923, Note_on_c, 0, 64, 0
2, 40146, Note_on_c, 0, 64, 65
2, 40157, Note_on_c, 0, 55, 46
2, 40366, Note_on_c, 0, 55, 0
2, 40394, Note_on_c, 0, 53, 53
2, 40397, Note_on_c, 0, 62, 67
2, 40447, Note_on_c, 0, 64, 0
2, 40497, Note_on_c, 0, 57, 0
2, 40595, Control_c, 0, 64, 30
2, 40595, Note_on_c, 0, 53, 0
2, 40613, Note_on_c, 0, 52, 57
2, 40623, Note_on_c, 0, 61, 60
2, 40634, Control_c, 0, 64, 29
2, 40634, Note_on_c, 0, 62, 0
2, 40654, Control_c, 0, 64, 26
2, 40672, Control_c, 0, 64, 20
2, 40690, Control_c, 0, 64, 0
2, 40811, Note_on_c, 0, 52, 0
2, 40860, Note_on_c, 0, 62, 62
2, 40873, Note_on_c, 0, 53, 59
2, 40882, Control_c, 0, 64, 20
2, 40900, Control_c, 0, 64, 40
2, 40904, Note_on_c, 0, 61, 0
2, 40919, Control_c, 0, 64, 50
2, 40938, Control_c, 0, 64, 56
2, 40960, Control_c, 0, 64, 59
2, 40960, Note_on_c, 0, 62, 0
2, 40976, Control_c, 0, 64, 60
2, 40995, Control_c, 0, 64, 62
2, 41011, Note_on_c, 0, 50, 0
2, 41015, Control_c, 0, 64, 63
2, 41034, Control_c, 0, 64, 64
2, 41117, Note_on_c, 0, 69, 78
2, 41190, Control_c, 0, 64, 63
2, 41207, Control_c, 0, 64, 62
2, 41266, Control_c, 0, 64, 61
2, 41303, Control_c, 0, 64, 60
2, 41324, Control_c, 0, 64, 59
2, 41357, Note_on_c, 0, 45, 59
2, 41357, Note_on_c, 0, 71, 86
2, 41379, Control_c, 0, 64, 58
2, 41418, Control_c, 0, 64, 57
2, 41437, Note_on_c, 0, 69, 0
2, 41456, Control_c, 0, 64, 56
2, 41495, Control_c, 0, 64, 55
2, 41533, Control_c, 0, 64, 54
2, 41573, Control_c, 0, 64, 53
2, 41593, Note_on_c, 0, 73, 86
2, 41611, Control_c, 0, 64, 52
2, 41707, Control_c, 0, 64, 51
2, 41725, Control_c, 0, 64, 50
2, 41747, Control_c, 0, 64, 49
2, 41763, Control_c, 0, 64, 48
2, 41783, Control_c, 0, 64, 45
2, 41801, Control_c, 0, 64, 39
2, 41820, Control_c, 0, 64, 33
2, 41841, Control_c, 0, 64, 26
2, 41850, Note_on_c, 0, 45, 0
2, 41854, Note_on_c, 0, 46, 56
2, 41854, Note_on_c, 0, 74, 83
2, 41858, Note_on_c, 0, 71, 0
2, 41861, Control_c, 0, 64, 17
2, 41879, Control_c, 0, 64, 12
2, 41899, Control_c, 0, 64, 11
2, 41919, Control_c, 0, 64, 16
2, 41924, Note_on_c, 0, 73, 0
2, 41938, Control_c, 0, 64, 30
2, 41958, Control_c, 0, 64, 40
2, 41975, Control_c, 0, 64, 47
2, 41995, Control_c, 0, 64, 52
2, 42012, Control_c, 0, 64, 54
2, 42032, Control_c, 0, 64, 55
2, 42052, Control_c, 0, 64, 56
2, 42073, Control_c, 0, 64, 57
2, 42093, Note_on_c, 0, 77, 82
2, 42166, Note_on_c, 0, 74, 0
2, 42244, Control_c, 0, 64, 56
2, 42264, Control_c, 0, 64, 55
2, 42283, Control_c, 0, 64, 51
2, 42301, Control_c, 0, 64, 46
2, 42319, Control_c, 0, 64, 39
2, 42324, Note_on_c, 0, 69, 66
2, 42342, Control_c, 0, 64, 33
2, 42346, Note_on_c, 0, 50, 55
2, 42365, Control_c, 0, 64, 30
2, 42401, Control_c, 0, 64, 35
2, 42414, Note_on_c, 0, 46, 0
2, 42419, Control_c, 0, 64, 45
2, 42437, Control_c, 0, 64, 54
2, 42455, Control_c, 0, 64, 58
2, 42462, Note_on_c, 0, 53, 0
2, 42474, Control_c, 0, 64, 61
2, 42495, Control_c, 0, 64, 63
2, 42514, Control_c, 0, 64, 65
2, 42519, Note_on_c, 0, 69, 0
2, 42532, Control_c, 0, 64, 67
2, 42552, Control_c, 0, 64, 70
2, 42572, Control_c, 0, 64, 74
2, 42583, Note_on_c, 0, 72, 78
2, 42589, Control_c, 0, 64, 77
2, 42608, Control_c, 0, 64, 78
2, 42628, Control_c, 0, 64, 77
2, 42639, Note_on_c, 0, 77, 0
2, 42705, Control_c, 0, 64, 76
2, 42723, Control_c, 0, 64, 75
2, 42743, Control_c, 0, 64, 73
2, 42765, Control_c, 0, 64, 69
2, 42783, Control_c, 0, 64, 67
2, 42802, Control_c, 0, 64, 65
2, 42821, Control_c, 0, 64, 63
2, 42840, Control_c, 0, 64, 61
2, 42862, Control_c, 0, 64, 59
2, 42875, Note_on_c, 0, 55, 50
2, 42884, Control_c, 0, 64, 57
2, 42884, Note_on_c, 0, 43, 55
2, 42884, Note_on_c, 0, 70, 69
2, 42900, Control_c, 0, 64, 55
2, 42916, Control_c, 0, 64, 51
2, 42936, Control_c, 0, 64, 47
2, 42940, Note_on_c, 0, 50, 0
2, 42940, Note_on_c, 0, 72, 0
2, 42956, Control_c, 0, 64, 41
2, 42973, Control_c, 0, 64, 36
2, 42994, Control_c, 0, 64, 33
2, 43011, Control_c, 0, 64, 31
2, 43050, Control_c, 0, 64, 30
2, 43179, Note_on_c, 0, 77, 70
2, 43203, Control_c, 0, 64, 31
2, 43223, Control_c, 0, 64, 32
2, 43241, Control_c, 0, 64, 33
2, 43262, Control_c, 0, 64, 35
2, 43282, Control_c, 0, 64, 38
2, 43302, Control_c, 0, 64, 40
2, 43318, Control_c, 0, 64, 42
2, 43338, Control_c, 0, 64, 45
2, 43358, Control_c, 0, 64, 47
2, 43379, Control_c, 0, 64, 50
2, 43396, Control_c, 0, 64, 52
2, 43415, Control_c, 0, 64, 53
2, 43421, Note_on_c, 0, 75, 76
2, 43438, Control_c, 0, 64, 54
2, 43454, Control_c, 0, 64, 55
2, 43473, Note_on_c, 0, 77, 0
2, 43477, Control_c, 0, 64, 57
2, 43510, Control_c, 0, 64, 58
2, 43533, Control_c, 0, 64, 59
2, 43606, Control_c, 0, 64, 60
2, 43647, Note_on_c, 0, 74, 85
2, 43667, Control_c, 0, 64, 59
2, 43694, Note_on_c, 0, 75, 0
2, 43801, Control_c, 0, 64, 58
2, 43836, Control_c, 0, 64, 57
2, 43856, Control_c, 0, 64, 55
2, 43875, Control_c, 0, 64, 51
2, 43897, Control_c, 0, 64, 47
2, 43915, Control_c, 0, 64, 43
2, 43936, Control_c, 0, 64, 38
2, 43936, Note_on_c, 0, 75, 76
2, 43953, Control_c, 0, 64, 30
2, 43973, Control_c, 0, 64, 16
2, 43991, Control_c, 0, 64, 0
2, 44035, Note_on_c, 0, 74, 0
2, 44089, Control_c, 0, 64, 13
2, 44107, Control_c, 0, 64, 30
2, 44125, Control_c, 0, 64, 40
2, 44145, Control_c, 0, 64, 47
2, 44163, Control_c, 0, 64, 53
2, 44183, Control_c, 0, 64, 57
2, 44197, Note_on_c, 0, 79, 82
2, 44206, Control_c, 0, 64, 59
2, 44224, Control_c, 0, 64, 60
2, 44224, Note_on_c, 0, 75, 0
2, 44242, Control_c, 0, 64, 62
2, 44260, Control_c, 0, 64, 64
2, 44280, Control_c, 0, 64, 67
2, 44299, Control_c, 0, 64, 70
2, 44319, Control_c, 0, 64, 73
2, 44339, Control_c, 0, 64, 76
2, 44355, Control_c, 0, 64, 77
2, 44383, Note_on_c, 0, 79, 0
2, 44415, Control_c, 0, 64, 78
2, 44435, Note_on_c, 0, 70, 0
2, 44435, Note_on_c, 0, 73, 78
2, 44452, Control_c, 0, 64, 79
2, 44510, Note_on_c, 0, 43, 0
2, 44605, Control_c, 0, 64, 78
2, 44666, Note_on_c, 0, 74, 83
2, 44681, Note_on_c, 0, 73, 0
2, 44702, Control_c, 0, 64, 76
2, 44720, Control_c, 0, 64, 75
2, 44739, Control_c, 0, 64, 73
2, 44781, Control_c, 0, 64, 72
2, 44796, Control_c, 0, 64, 71
2, 44817, Control_c, 0, 64, 69
2, 44837, Control_c, 0, 64, 66
2, 44855, Control_c, 0, 64, 64
2, 44875, Control_c, 0, 64, 62
2, 44893, Control_c, 0, 64, 61
2, 44913, Control_c, 0, 64, 60
2, 44932, Control_c, 0, 64, 58
2, 44938, Note_on_c, 0, 73, 80
2, 44943, Note_on_c, 0, 45, 47
2, 44952, Control_c, 0, 64, 55
2, 44970, Control_c, 0, 64, 52
2, 44989, Control_c, 0, 64, 49
2, 45009, Control_c, 0, 64, 45
2, 45020, Note_on_c, 0, 74, 0
2, 45029, Control_c, 0, 64, 41
2, 45050, Control_c, 0, 64, 37
2, 45067, Control_c, 0, 64, 33
2, 45086, Control_c, 0, 64, 31
2, 45104, Control_c, 0, 64, 30
2, 45142, Control_c, 0, 64, 29
2, 45233, Note_on_c, 0, 70, 58
2, 45465, Note_on_c, 0, 70, 0
2, 45470, Note_on_c, 0, 55, 0
2, 45477, Note_on_c, 0, 69, 49
2, 45720, Note_on_c, 0, 55, 53
2, 45913, Note_on_c, 0, 69, 0
2, 45981, Note_on_c, 0, 54, 56
2, 46099, Note_on_c, 0, 55, 0
2, 46194, Note_on_c, 0, 69, 55
2, 46466, Note_on_c, 0, 74, 69
2, 46488, Note_on_c, 0, 53, 44
2, 46537, Note_on_c, 0, 73, 0
2, 46541, Note_on_c, 0, 69, 0
2, 46558, Note_on_c, 0, 54, 0
2, 46709, Note_on_c, 0, 68, 54
2, 46951, Note_on_c, 0, 74, 0
2, 46964, Note_on_c, 0, 69, 54
2, 46970, Note_on_c, 0, 68, 0
2, 46972, Note_on_c, 0, 52, 41
2, 47012, Note_on_c, 0, 53, 0
2, 47219, Note_on_c, 0, 74, 67
2, 47452, Note_on_c, 0, 50, 53
2, 47456, Note_on_c, 0, 73, 70
2, 47488, Note_on_c, 0, 45, 0
2, 47488, Note_on_c, 0, 52, 0
2, 47503, Note_on_c, 0, 74, 0
2, 47692, Note_on_c, 0, 71, 69
2, 47706, Note_on_c, 0, 73, 0
2, 47942, Note_on_c, 0, 50, 0
2, 47953, Note_on_c, 0, 52, 52
2, 47966, Note_on_c, 0, 45, 44
2, 47966, Note_on_c, 0, 73, 68
2, 47984, Note_on_c, 0, 69, 0
2, 48172, Note_on_c, 0, 71, 0
2, 48204, Note_on_c, 0, 74, 64
2, 48273, Note_on_c, 0, 73, 0
2, 48285, Note_on_c, 0, 52, 0
2, 48407, Control_c, 0, 64, 28
2, 48427, Control_c, 0, 64, 27
2, 48445, Control_c, 0, 64, 26
2, 48466, Control_c, 0, 64, 25
2, 48470, Note_on_c, 0, 76, 63
2, 48492, Note_on_c, 0, 57, 47
2, 48503, Control_c, 0, 64, 26
2, 48512, Note_on_c, 0, 74, 0
2, 48523, Control_c, 0, 64, 31
2, 48542, Control_c, 0, 64, 41
2, 48561, Control_c, 0, 64, 52
2, 48579, Control_c, 0, 64, 58
2, 48599, Control_c, 0, 64, 61
2, 48608, Note_on_c, 0, 45, 0
2, 48619, Control_c, 0, 64, 64
2, 48636, Control_c, 0, 64, 69
2, 48659, Control_c, 0, 64, 79
2, 48677, Control_c, 0, 64, 98
2, 48696, Control_c, 0, 64, 127
2, 48745, Note_on_c, 0, 67, 56
2, 48827, Note_on_c, 0, 67, 0
2, 48983, Control_c, 0, 64, 120
2, 49001, Control_c, 0, 64, 97
2, 49022, Control_c, 0, 64, 82
2, 49044, Control_c, 0, 64, 70
2, 49061, Control_c, 0, 64, 63
2, 49066, Note_on_c, 0, 65, 47
2, 49070, Note_on_c, 0, 50, 34
2, 49079, Control_c, 0, 64, 57
2, 49097, Control_c, 0, 64, 51
2, 49118, Control_c, 0, 64, 48
2, 49139, Control_c, 0, 64, 46
2, 49155, Control_c, 0, 64, 43
2, 49175, Control_c, 0, 64, 41
2, 49195, Control_c, 0, 64, 37
2, 49214, Control_c, 0, 64, 35
2, 49232, Control_c, 0, 64, 34
2, 49252, Control_c, 0, 64, 35
2, 49272, Control_c, 0, 64, 40
2, 49289, Control_c, 0, 64, 48
2, 49309, Control_c, 0, 64, 55
2, 49329, Control_c, 0, 64, 59
2, 49340, Note_on_c, 0, 69, 49
2, 49344, Note_on_c, 0, 76, 0
2, 49350, Control_c, 0, 64, 61
2, 49368, Control_c, 0, 64, 63
2, 49385, Control_c, 0, 64, 65
2, 49406, Control_c, 0, 64, 67
2, 49427, Control_c, 0, 64, 70
2, 49443, Control_c, 0, 64, 74
2, 49463, Control_c, 0, 64, 77
2, 49483, Control_c, 0, 64, 78
2, 49521, Control_c, 0, 64, 77
2, 49541, Control_c, 0, 64, 76
2, 49579, Control_c, 0, 64, 75
2, 49583, Note_on_c, 0, 74, 61
2, 49596, Control_c, 0, 64, 74
2, 49606, Note_on_c, 0, 58, 45
2, 49618, Control_c, 0, 64, 71
2, 49636, Control_c, 0, 64, 68
2, 49658, Control_c, 0, 64, 65
2, 49674, Control_c, 0, 64, 63
2, 49693, Control_c, 0, 64, 62
2, 49713, Control_c, 0, 64, 61
2, 49734, Control_c, 0, 64, 60
2, 49754, Control_c, 0, 64, 59
2, 49754, Note_on_c, 0, 57, 0
2, 49770, Control_c, 0, 64, 58
2, 49790, Control_c, 0, 64, 57
2, 49808, Control_c, 0, 64, 56
2, 49830, Control_c, 0, 64, 55
2, 49834, Note_on_c, 0, 73, 75
2, 49847, Control_c, 0, 64, 54
2, 49867, Control_c, 0, 64, 53
2, 49871, Note_on_c, 0, 74, 0
2, 49885, Control_c, 0, 64, 52
2, 49905, Control_c, 0, 64, 51
2, 49924, Control_c, 0, 64, 50
2, 49946, Control_c, 0, 64, 49
2, 49966, Control_c, 0, 64, 48
2, 49966, Note_on_c, 0, 65, 0
2, 49975, Note_on_c, 0, 69, 0
2, 49985, Control_c, 0, 64, 47
2, 50040, Control_c, 0, 64, 46
2, 50111, Note_on_c, 0, 57, 46
2, 50126, Note_on_c, 0, 74, 66
2, 50166, Note_on_c, 0, 58, 0
2, 50173, Control_c, 0, 64, 45
2, 50215, Note_on_c, 0, 73, 0
2, 50374, Note_on_c, 0, 65, 52
2, 50423, Control_c, 0, 64, 46
2, 50468, Note_on_c, 0, 65, 0
2, 50501, Control_c, 0, 64, 45
2, 50522, Control_c, 0, 64, 44
2, 50537, Control_c, 0, 64, 43
2, 50557, Control_c, 0, 64, 41
2, 50577, Control_c, 0, 64, 40
2, 50614, Control_c, 0, 64, 45
2, 50623, Note_on_c, 0, 70, 66
2, 50627, Note_on_c, 0, 57, 0
2, 50631, Note_on_c, 0, 55, 45
2, 50636, Control_c, 0, 64, 52
2, 50636, Note_on_c, 0, 74, 0
2, 50657, Control_c, 0, 64, 58
2, 50673, Control_c, 0, 64, 61
2, 50693, Control_c, 0, 64, 63
2, 50711, Control_c, 0, 64, 65
2, 50731, Control_c, 0, 64, 69
2, 50749, Control_c, 0, 64, 78
2, 50768, Control_c, 0, 64, 90
2, 50790, Control_c, 0, 64, 102
2, 50810, Control_c, 0, 64, 113
2, 50826, Control_c, 0, 64, 127
2, 50870, Note_on_c, 0, 76, 79
2, 50942, Note_on_c, 0, 70, 0
2, 50980, Control_c, 0, 64, 116
2, 50998, Control_c, 0, 64, 106
2, 51019, Control_c, 0, 64, 101
2, 51038, Control_c, 0, 64, 93
2, 51056, Control_c, 0, 64, 86
2, 51077, Control_c, 0, 64, 78
2, 51097, Control_c, 0, 64, 70
2, 51114, Control_c, 0, 64, 65
2, 51125, Note_on_c, 0, 77, 73
2, 51133, Control_c, 0, 64, 62
2, 51137, Note_on_c, 0, 69, 51
2, 51150, Note_on_c, 0, 55, 0
2, 51154, Control_c, 0, 64, 60
2, 51160, Note_on_c, 0, 53, 39
2, 51174, Control_c, 0, 64, 59
2, 51185, Note_on_c, 0, 76, 0
2, 51194, Control_c, 0, 64, 57
2, 51211, Control_c, 0, 64, 55
2, 51230, Control_c, 0, 64, 53
2, 51249, Control_c, 0, 64, 51
2, 51266, Control_c, 0, 64, 50
2, 51286, Control_c, 0, 64, 49
2, 51306, Control_c, 0, 64, 48
2, 51343, Control_c, 0, 64, 47
2, 51359, Note_on_c, 0, 55, 46
2, 51403, Note_on_c, 0, 53, 0
2, 51499, Control_c, 0, 64, 46
2, 51596, Note_on_c, 0, 55, 0
2, 51618, Note_on_c, 0, 50, 0
2, 51622, Note_on_c, 0, 57, 51
2, 51645, Note_on_c, 0, 69, 0
2, 51709, Control_c, 0, 64, 45
2, 51863, Note_on_c, 0, 69, 56
2, 51870, Note_on_c, 0, 48, 58
2, 51968, Note_on_c, 0, 69, 0
2, 51984, Note_on_c, 0, 48, 0
2, 52127, Note_on_c, 0, 47, 55
2, 52133, Note_on_c, 0, 74, 68
2, 52195, Note_on_c, 0, 77, 0
2, 52374, Note_on_c, 0, 56, 63
2, 52378, Note_on_c, 0, 76, 73
2, 52428, Note_on_c, 0, 57, 0
2, 52572, Control_c, 0, 64, 46
2, 52606, Note_on_c, 0, 77, 76
2, 52613, Control_c, 0, 64, 47
2, 52626, Note_on_c, 0, 47, 0
2, 52629, Note_on_c, 0, 57, 61
2, 52643, Note_on_c, 0, 56, 0
2, 52657, Note_on_c, 0, 74, 0
2, 52670, Control_c, 0, 64, 48
2, 52679, Note_on_c, 0, 76, 0
2, 52849, Note_on_c, 0, 74, 70
2, 52858, Note_on_c, 0, 45, 57
2, 52887, Note_on_c, 0, 77, 0
2, 52926, Note_on_c, 0, 45, 0
2, 53094, Note_on_c, 0, 57, 0
2, 53116, Note_on_c, 0, 44, 57
2, 53121, Note_on_c, 0, 76, 77
2, 53156, Note_on_c, 0, 74, 0
2, 53167, Control_c, 0, 64, 47
2, 53392, Note_on_c, 0, 52, 54
2, 53392, Note_on_c, 0, 74, 60
2, 53561, Note_on_c, 0, 44, 0
2, 53598, Note_on_c, 0, 52, 0
2, 53622, Note_on_c, 0, 54, 58
2, 53622, Note_on_c, 0, 72, 66
2, 53680, Note_on_c, 0, 74, 0
2, 53772, Note_on_c, 0, 76, 0
2, 53853, Note_on_c, 0, 56, 60
2, 53857, Note_on_c, 0, 54, 0
2, 53860, Note_on_c, 0, 71, 71
2, 53889, Note_on_c, 0, 72, 0
2, 54086, Note_on_c, 0, 71, 0
2, 54106, Note_on_c, 0, 56, 0
2, 54119, Note_on_c, 0, 57, 55
2, 54123, Note_on_c, 0, 72, 70
2, 54151, Control_c, 0, 64, 46
2, 54365, Note_on_c, 0, 76, 73
2, 54368, Note_on_c, 0, 48, 44
2, 54585, Note_on_c, 0, 48, 0
2, 54596, Note_on_c, 0, 53, 54
2, 54607, Note_on_c, 0, 81, 77
2, 54719, Note_on_c, 0, 76, 0
2, 54830, Note_on_c, 0, 52, 55
2, 54835, Note_on_c, 0, 53, 0
2, 54844, Note_on_c, 0, 80, 77
2, 54893, Note_on_c, 0, 81, 0
2, 54982, Note_on_c, 0, 57, 0
2, 55093, Note_on_c, 0, 81, 66
2, 55108, Note_on_c, 0, 52, 0
2, 55111, Note_on_c, 0, 80, 0
2, 55119, Note_on_c, 0, 53, 55
2, 55278, Note_on_c, 0, 72, 0
2, 55365, Note_on_c, 0, 73, 58
2, 55414, Note_on_c, 0, 57, 17
2, 55599, Note_on_c, 0, 74, 68
2, 55617, Note_on_c, 0, 59, 63
2, 55652, Note_on_c, 0, 57, 0
2, 55652, Note_on_c, 0, 57, 13
2, 55652, Note_on_c, 0, 73, 0
2, 55737, Note_on_c, 0, 57, 0
2, 55755, Note_on_c, 0, 74, 0
2, 55826, Note_on_c, 0, 76, 68
2, 55837, Control_c, 0, 64, 47
2, 55853, Note_on_c, 0, 61, 55
2, 55878, Note_on_c, 0, 59, 0
2, 56065, Note_on_c, 0, 76, 0
2, 56089, Note_on_c, 0, 69, 58
2, 56096, Note_on_c, 0, 61, 0
2, 56100, Note_on_c, 0, 62, 58
2, 56127, Note_on_c, 0, 53, 0
2, 56163, Note_on_c, 0, 81, 0
2, 56338, Note_on_c, 0, 52, 52
2, 56342, Note_on_c, 0, 79, 72
2, 56573, Note_on_c, 0, 52, 0
2, 56589, Control_c, 0, 64, 46
2, 56589, Note_on_c, 0, 81, 79
2, 56594, Note_on_c, 0, 53, 65
2, 56605, Control_c, 0, 64, 45
2, 56627, Control_c, 0, 64, 44
2, 56643, Control_c, 0, 64, 41
2, 56663, Control_c, 0, 64, 34
2, 56682, Control_c, 0, 64, 0
2, 56738, Note_on_c, 0, 79, 0
2, 56780, Control_c, 0, 64, 28
2, 56797, Control_c, 0, 64, 50
2, 56814, Note_on_c, 0, 53, 0
2, 56816, Control_c, 0, 64, 64
2, 56823, Note_on_c, 0, 50, 68
2, 56823, Note_on_c, 0, 77, 82
2, 56836, Control_c, 0, 64, 70
2, 56857, Control_c, 0, 64, 86
2, 56863, Note_on_c, 0, 81, 0
2, 56874, Control_c, 0, 64, 127
2, 56879, Note_on_c, 0, 50, 0
2, 56905, Note_on_c, 0, 77, 0
2, 57079, Note_on_c, 0, 74, 80
2, 57097, Note_on_c, 0, 62, 0
2, 57108, Control_c, 0, 64, 99
2, 57108, Note_on_c, 0, 58, 63
2, 57119, Note_on_c, 0, 69, 0
2, 57123, Control_c, 0, 64, 83
2, 57144, Control_c, 0, 64, 73
2, 57164, Control_c, 0, 64, 66
2, 57184, Control_c, 0, 64, 62
2, 57202, Control_c, 0, 64, 59
2, 57220, Control_c, 0, 64, 56
2, 57240, Control_c, 0, 64, 54
2, 57258, Control_c, 0, 64, 53
2, 57278, Control_c, 0, 64, 52
2, 57295, Control_c, 0, 64, 51
2, 57315, Control_c, 0, 64, 49
2, 57324, Note_on_c, 0, 66, 66
2, 57336, Control_c, 0, 64, 47
2, 57340, Note_on_c, 0, 62, 65
2, 57358, Control_c, 0, 64, 45
2, 57412, Control_c, 0, 64, 44
2, 57526, Control_c, 0, 64, 43
2, 57548, Note_on_c, 0, 62, 0
2, 57554, Note_on_c, 0, 66, 0
2, 57568, Note_on_c, 0, 64, 61
2, 57568, Note_on_c, 0, 67, 71
2, 57784, Note_on_c, 0, 67, 0
2, 57795, Note_on_c, 0, 64, 0
2, 57806, Note_on_c, 0, 66, 69
2, 57806, Note_on_c, 0, 69, 72
2, 57859, Note_on_c, 0, 74, 0
2, 58074, Note_on_c, 0, 69, 0
2, 58090, Note_on_c, 0, 70, 81
2, 58096, Note_on_c, 0, 67, 54
2, 58145, Note_on_c, 0, 66, 0
2, 58347, Note_on_c, 0, 77, 76
2, 58591, Note_on_c, 0, 76, 76
2, 58741, Note_on_c, 0, 77, 0
2, 58796, Note_on_c, 0, 67, 0
2, 58819, Note_on_c, 0, 79, 78
2, 58834, Note_on_c, 0, 65, 43
2, 58857, Note_on_c, 0, 76, 0
2, 58878, Note_on_c, 0, 70, 0
2, 59017, Note_on_c, 0, 58, 0
2, 59025, Note_on_c, 0, 65, 0
2, 59068, Note_on_c, 0, 72, 69
2, 59072, Note_on_c, 0, 79, 0
2, 59089, Note_on_c, 0, 64, 53
2, 59326, Note_on_c, 0, 57, 53
2, 59510, Note_on_c, 0, 57, 0
2, 59556, Note_on_c, 0, 70, 60
2, 59569, Note_on_c, 0, 55, 46
2, 59743, Note_on_c, 0, 55, 0
2, 59802, Note_on_c, 0, 58, 52
2, 59998, Note_on_c, 0, 58, 0
2, 60026, Note_on_c, 0, 70, 0
2, 60048, Note_on_c, 0, 64, 0
2, 60052, Note_on_c, 0, 57, 52
2, 60341, Note_on_c, 0, 60, 43
2, 60341, Note_on_c, 0, 69, 47
2, 60423, Note_on_c, 0, 69, 0
2, 60426, Note_on_c, 0, 60, 0
2, 60430, Note_on_c, 0, 67, 58
2, 60473, Note_on_c, 0, 72, 0
2, 60549, Note_on_c, 0, 69, 51
2, 60569, Note_on_c, 0, 67, 0
2, 60574, Note_on_c, 0, 65, 47
2, 60807, Note_on_c, 0, 75, 62
2, 60811, Note_on_c, 0, 69, 0
2, 60820, Note_on_c, 0, 72, 58
2, 61045, Note_on_c, 0, 72, 0
2, 61079, Note_on_c, 0, 74, 61
2, 61083, Note_on_c, 0, 70, 44
2, 61134, Note_on_c, 0, 75, 0
2, 61303, Note_on_c, 0, 57, 0
2, 61318, Note_on_c, 0, 55, 48
2, 61336, Note_on_c, 0, 65, 0
2, 61549, Note_on_c, 0, 55, 0
2, 61569, Note_on_c, 0, 53, 52
2, 61780, Note_on_c, 0, 53, 0
2, 61798, Note_on_c, 0, 57, 55
2, 61873, Note_on_c, 0, 57, 0
2, 62041, Note_on_c, 0, 55, 47
2, 62041, Note_on_c, 0, 58, 43
2, 62058, Control_c, 0, 64, 44
2, 62071, Note_on_c, 0, 70, 0
2, 62080, Control_c, 0, 64, 48
2, 62098, Control_c, 0, 64, 54
2, 62114, Control_c, 0, 64, 57
2, 62135, Control_c, 0, 64, 59
2, 62154, Control_c, 0, 64, 61
2, 62175, Control_c, 0, 64, 63
2, 62188, Note_on_c, 0, 55, 0
2, 62192, Control_c, 0, 64, 65
2, 62213, Control_c, 0, 64, 68
2, 62231, Control_c, 0, 64, 73
2, 62251, Control_c, 0, 64, 79
2, 62269, Control_c, 0, 64, 83
2, 62289, Control_c, 0, 64, 84
2, 62317, Note_on_c, 0, 77, 67
2, 62326, Control_c, 0, 64, 83
2, 62353, Note_on_c, 0, 74, 0
2, 62373, Note_on_c, 0, 58, 0
2, 62403, Control_c, 0, 64, 82
2, 62423, Control_c, 0, 64, 80
2, 62445, Control_c, 0, 64, 77
2, 62461, Control_c, 0, 64, 73
2, 62480, Control_c, 0, 64, 70
2, 62498, Control_c, 0, 64, 67
2, 62518, Control_c, 0, 64, 64
2, 62536, Control_c, 0, 64, 61
2, 62556, Control_c, 0, 64, 58
2, 62576, Control_c, 0, 64, 55
2, 62585, Note_on_c, 0, 55, 35
2, 62590, Note_on_c, 0, 70, 49
2, 62599, Control_c, 0, 64, 51
2, 62599, Note_on_c, 0, 48, 38
2, 62599, Note_on_c, 0, 60, 39
2, 62616, Control_c, 0, 64, 47
2, 62633, Control_c, 0, 64, 43
2, 62652, Control_c, 0, 64, 40
2, 62690, Control_c, 0, 64, 41
2, 62710, Control_c, 0, 64, 46
2, 62729, Control_c, 0, 64, 55
2, 62749, Control_c, 0, 64, 59
2, 62769, Control_c, 0, 64, 61
2, 62782, Note_on_c, 0, 48, 0
2, 62791, Control_c, 0, 64, 63
2, 62809, Control_c, 0, 64, 65
2, 62826, Control_c, 0, 64, 68
2, 62837, Note_on_c, 0, 77, 0
2, 62847, Control_c, 0, 64, 73
2, 62851, Note_on_c, 0, 76, 62
2, 62866, Control_c, 0, 64, 81
2, 62879, Note_on_c, 0, 70, 0
2, 62885, Control_c, 0, 64, 87
2, 62903, Control_c, 0, 64, 90
2, 62979, Control_c, 0, 64, 89
2, 62999, Control_c, 0, 64, 88
2, 63017, Control_c, 0, 64, 85
2, 63037, Control_c, 0, 64, 81
2, 63056, Control_c, 0, 64, 75
2, 63074, Control_c, 0, 64, 69
2, 63094, Control_c, 0, 64, 64
2, 63115, Control_c, 0, 64, 61
2, 63132, Control_c, 0, 64, 58
2, 63153, Control_c, 0, 64, 56
2, 63171, Note_on_c, 0, 53, 43
2, 63173, Control_c, 0, 64, 53
2, 63179, Note_on_c, 0, 77, 64
2, 63190, Control_c, 0, 64, 49
2, 63210, Control_c, 0, 64, 45
2, 63220, Note_on_c, 0, 76, 0
2, 63231, Control_c, 0, 64, 41
2, 63244, Note_on_c, 0, 55, 0
2, 63249, Control_c, 0, 64, 36
2, 63267, Control_c, 0, 64, 32
2, 63287, Control_c, 0, 64, 30
2, 63305, Control_c, 0, 64, 29
2, 63364, Control_c, 0, 64, 32
2, 63382, Control_c, 0, 64, 39
2, 63405, Control_c, 0, 64, 48
2, 63422, Control_c, 0, 64, 54
2, 63440, Control_c, 0, 64, 57
2, 63462, Control_c, 0, 64, 58
2, 63468, Note_on_c, 0, 67, 50
2, 63481, Control_c, 0, 64, 60
2, 63497, Control_c, 0, 64, 61
2, 63519, Control_c, 0, 64, 63
2, 63556, Control_c, 0, 64, 64
2, 63570, Note_on_c, 0, 67, 0
2, 63593, Control_c, 0, 64, 65
2, 63725, Note_on_c, 0, 69, 66
2, 63775, Note_on_c, 0, 77, 0
2, 63901, Control_c, 0, 64, 64
2, 63950, Note_on_c, 0, 60, 0
2, 63965, Note_on_c, 0, 72, 79
2, 63975, Note_on_c, 0, 57, 51
2, 63997, Control_c, 0, 64, 63
2, 64055, Control_c, 0, 64, 62
2, 64074, Control_c, 0, 64, 61
2, 64093, Control_c, 0, 64, 60
2, 64131, Control_c, 0, 64, 59
2, 64150, Control_c, 0, 64, 57
2, 64169, Control_c, 0, 64, 55
2, 64190, Control_c, 0, 64, 51
2, 64207, Control_c, 0, 64, 47
2, 64228, Control_c, 0, 64, 43
2, 64249, Control_c, 0, 64, 33
2, 64249, Note_on_c, 0, 57, 0
2, 64258, Note_on_c, 0, 77, 74
2, 64268, Control_c, 0, 64, 14
2, 64268, Note_on_c, 0, 62, 52
2, 64285, Control_c, 0, 64, 0
2, 64374, Note_on_c, 0, 72, 0
2, 64419, Control_c, 0, 64, 39
2, 64438, Control_c, 0, 64, 54
2, 64456, Control_c, 0, 64, 62
2, 64478, Control_c, 0, 64, 66
2, 64495, Control_c, 0, 64, 72
2, 64512, Note_on_c, 0, 81, 83
2, 64516, Control_c, 0, 64, 100
2, 64535, Control_c, 0, 64, 127
2, 64546, Note_on_c, 0, 77, 0
2, 64570, Note_on_c, 0, 81, 0
2, 64575, Note_on_c, 0, 69, 0
2, 64768, Note_on_c, 0, 74, 86
2, 64772, Note_on_c, 0, 65, 68
2, 65008, Note_on_c, 0, 77, 90
2, 65046, Note_on_c, 0, 65, 0
2, 65084, Note_on_c, 0, 74, 0
2, 65131, Control_c, 0, 64, 113
2, 65151, Control_c, 0, 64, 102
2, 65168, Control_c, 0, 64, 93
2, 65179, Note_on_c, 0, 53, 0
2, 65190, Control_c, 0, 64, 86
2, 65205, Control_c, 0, 64, 82
2, 65227, Control_c, 0, 64, 81
2, 65231, Note_on_c, 0, 67, 74
2, 65234, Note_on_c, 0, 71, 82
2, 65244, Control_c, 0, 64, 78
2, 65263, Control_c, 0, 64, 76
2, 65283, Control_c, 0, 64, 71
2, 65293, Note_on_c, 0, 77, 0
2, 65302, Control_c, 0, 64, 67
2, 65322, Control_c, 0, 64, 65
2, 65340, Control_c, 0, 64, 64
2, 65419, Control_c, 0, 64, 63
2, 65439, Control_c, 0, 64, 62
2, 65456, Control_c, 0, 64, 61
2, 65472, Note_on_c, 0, 67, 0
2, 65476, Control_c, 0, 64, 59
2, 65484, Note_on_c, 0, 74, 79
2, 65489, Note_on_c, 0, 53, 57
2, 65494, Control_c, 0, 64, 58
2, 65517, Control_c, 0, 64, 57
2, 65521, Note_on_c, 0, 62, 0
2, 65534, Control_c, 0, 64, 55
2, 65553, Control_c, 0, 64, 54
2, 65571, Control_c, 0, 64, 53
2, 65592, Control_c, 0, 64, 51
2, 65612, Control_c, 0, 64, 50
2, 65630, Control_c, 0, 64, 49
2, 65651, Control_c, 0, 64, 48
2, 65667, Control_c, 0, 64, 47
2, 65705, Control_c, 0, 64, 46
2, 65718, Note_on_c, 0, 71, 0
2, 65735, Note_on_c, 0, 52, 62
2, 65738, Note_on_c, 0, 79, 79
2, 65746, Control_c, 0, 64, 45
2, 65746, Note_on_c, 0, 53, 0
2, 65772, Note_on_c, 0, 74, 0
2, 65962, Note_on_c, 0, 52, 0
2, 65969, Note_on_c, 0, 50, 63
2, 65969, Note_on_c, 0, 71, 68
2, 66032, Control_c, 0, 64, 44
2, 66225, Note_on_c, 0, 73, 70
2, 66230, Note_on_c, 0, 52, 68
2, 66234, Note_on_c, 0, 55, 51
2, 66252, Note_on_c, 0, 50, 0
2, 66267, Note_on_c, 0, 79, 0
2, 66289, Note_on_c, 0, 71, 0
2, 66359, Control_c, 0, 64, 43
2, 66424, Note_on_c, 0, 55, 0
2, 66476, Note_on_c, 0, 79, 82
2, 66568, Note_on_c, 0, 73, 0
2, 66609, Control_c, 0, 64, 42
2, 66686, Control_c, 0, 64, 41
2, 66690, Note_on_c, 0, 52, 0
2, 66705, Control_c, 0, 64, 39
2, 66721, Note_on_c, 0, 77, 82
2, 66722, Note_on_c, 0, 57, 59
2, 66723, Note_on_c, 0, 45, 54
2, 66727, Control_c, 0, 64, 36
2, 66742, Control_c, 0, 64, 33
2, 66761, Control_c, 0, 64, 29
2, 66781, Control_c, 0, 64, 23
2, 66790, Note_on_c, 0, 79, 0
2, 66800, Control_c, 0, 64, 15
2, 66821, Control_c, 0, 64, 0
2, 66857, Control_c, 0, 64, 18
2, 66877, Control_c, 0, 64, 35
2, 66880, Note_on_c, 0, 45, 0
2, 66897, Control_c, 0, 64, 47
2, 66915, Control_c, 0, 64, 57
2, 66934, Control_c, 0, 64, 62
2, 66955, Control_c, 0, 64, 64
2, 66955, Note_on_c, 0, 76, 84
2, 66975, Control_c, 0, 64, 67
2, 66988, Note_on_c, 0, 77, 0
2, 66992, Control_c, 0, 64, 76
2, 67012, Control_c, 0, 64, 89
2, 67030, Control_c, 0, 64, 104
2, 67051, Control_c, 0, 64, 120
2, 67068, Control_c, 0, 64, 122
2, 67088, Control_c, 0, 64, 120
2, 67108, Control_c, 0, 64, 118
2, 67146, Control_c, 0, 64, 116
2, 67165, Control_c, 0, 64, 113
2, 67185, Control_c, 0, 64, 107
2, 67203, Control_c, 0, 64, 97
2, 67218, Note_on_c, 0, 57, 0
2, 67223, Control_c, 0, 64, 88
2, 67233, Note_on_c, 0, 77, 76
2, 67238, Note_on_c, 0, 50, 50
2, 67244, Control_c, 0, 64, 83
2, 67248, Note_on_c, 0, 74, 58
2, 67249, Note_on_c, 0, 76, 0
2, 67262, Control_c, 0, 64, 78
2, 67280, Control_c, 0, 64, 74
2, 67300, Control_c, 0, 64, 68
2, 67318, Control_c, 0, 64, 64
2, 67338, Control_c, 0, 64, 60
2, 67355, Control_c, 0, 64, 57
2, 67377, Control_c, 0, 64, 56
2, 67396, Control_c, 0, 64, 55
2, 67415, Control_c, 0, 64, 54
2, 67432, Control_c, 0, 64, 52
2, 67453, Control_c, 0, 64, 50
2, 67471, Control_c, 0, 64, 49
2, 67494, Control_c, 0, 64, 47
2, 67494, Note_on_c, 0, 52, 48
2, 67511, Control_c, 0, 64, 46
2, 67568, Control_c, 0, 64, 45
2, 67625, Control_c, 0, 64, 44
2, 67710, Note_on_c, 0, 52, 0
2, 67730, Note_on_c, 0, 53, 54
2, 67846, Note_on_c, 0, 72, 64
2, 67853, Note_on_c, 0, 74, 0
2, 67924, Note_on_c, 0, 53, 0
2, 67960, Note_on_c, 0, 70, 65
2, 67964, Note_on_c, 0, 72, 0
2, 67969, Note_on_c, 0, 57, 53
2, 68069, Note_on_c, 0, 70, 0
2, 68073, Note_on_c, 0, 69, 57
2, 68235, Note_on_c, 0, 70, 56
2, 68249, Note_on_c, 0, 62, 50
2, 68253, Note_on_c, 0, 69, 0
2, 68275, Note_on_c, 0, 57, 0
2, 68354, Note_on_c, 0, 77, 0
2, 68412, Control_c, 0, 64, 43
2, 68535, Note_on_c, 0, 74, 72
2, 68548, Control_c, 0, 64, 44
2, 68567, Control_c, 0, 64, 47
2, 68585, Control_c, 0, 64, 50
2, 68605, Control_c, 0, 64, 55
2, 68605, Note_on_c, 0, 70, 0
2, 68626, Control_c, 0, 64, 57
2, 68644, Control_c, 0, 64, 59
2, 68662, Control_c, 0, 64, 61
2, 68681, Control_c, 0, 64, 62
2, 68701, Control_c, 0, 64, 64
2, 68720, Control_c, 0, 64, 65
2, 68739, Control_c, 0, 64, 67
2, 68757, Control_c, 0, 64, 69
2, 68779, Note_on_c, 0, 77, 78
2, 68783, Control_c, 0, 64, 72
2, 68799, Control_c, 0, 64, 77
2, 68818, Control_c, 0, 64, 83
2, 68835, Control_c, 0, 64, 89
2, 68855, Control_c, 0, 64, 94
2, 68873, Control_c, 0, 64, 95
2, 68899, Note_on_c, 0, 74, 0
2, 68913, Control_c, 0, 64, 96
2, 68933, Control_c, 0, 64, 97
2, 68951, Control_c, 0, 64, 98
2, 68978, Note_on_c, 0, 62, 0
2, 68991, Control_c, 0, 64, 97
2, 69010, Note_on_c, 0, 69, 67
2, 69014, Control_c, 0, 64, 94
2, 69014, Note_on_c, 0, 60, 59
2, 69027, Control_c, 0, 64, 93
2, 69082, Note_on_c, 0, 69, 0
2, 69104, Control_c, 0, 64, 92
2, 69123, Control_c, 0, 64, 90
2, 69142, Control_c, 0, 64, 88
2, 69200, Control_c, 0, 64, 87
2, 69222, Control_c, 0, 64, 86
2, 69226, Note_on_c, 0, 60, 0
2, 69239, Control_c, 0, 64, 83
2, 69259, Control_c, 0, 64, 79
2, 69264, Note_on_c, 0, 50, 0
2, 69264, Note_on_c, 0, 59, 64
2, 69264, Note_on_c, 0, 68, 73
2, 69272, Note_on_c, 0, 77, 0
2, 69279, Control_c, 0, 64, 76
2, 69296, Control_c, 0, 64, 74
2, 69314, Control_c, 0, 64, 71
2, 69334, Control_c, 0, 64, 68
2, 69357, Control_c, 0, 64, 65
2, 69374, Control_c, 0, 64, 64
2, 69394, Control_c, 0, 64, 63
2, 69412, Control_c, 0, 64, 62
2, 69431, Control_c, 0, 64, 61
2, 69449, Control_c, 0, 64, 60
2, 69468, Control_c, 0, 64, 59
2, 69490, Control_c, 0, 64, 58
2, 69508, Control_c, 0, 64, 57
2, 69510, Note_on_c, 0, 77, 72
2, 69523, Note_on_c, 0, 50, 62
2, 69527, Control_c, 0, 64, 56
2, 69544, Control_c, 0, 64, 55
2, 69567, Control_c, 0, 64, 54
2, 69567, Note_on_c, 0, 68, 0
2, 69585, Control_c, 0, 64, 52
2, 69602, Control_c, 0, 64, 51
2, 69622, Control_c, 0, 64, 50
2, 69642, Control_c, 0, 64, 49
2, 69662, Control_c, 0, 64, 48
2, 69678, Control_c, 0, 64, 47
2, 69697, Control_c, 0, 64, 46
2, 69721, Control_c, 0, 64, 45
2, 69759, Control_c, 0, 64, 44
2, 69759, Note_on_c, 0, 76, 73
2, 69770, Note_on_c, 0, 48, 63
2, 69775, Note_on_c, 0, 50, 0
2, 69983, Note_on_c, 0, 77, 0
2, 69991, Note_on_c, 0, 47, 70
2, 69991, Note_on_c, 0, 68, 69
2, 70013, Note_on_c, 0, 48, 0
2, 70170, Note_on_c, 0, 68, 0
2, 70178, Control_c, 0, 64, 43
2, 70217, Note_on_c, 0, 76, 0
2, 70240, Note_on_c, 0, 48, 64
2, 70251, Note_on_c, 0, 69, 68
2, 70288, Note_on_c, 0, 47, 0
2, 70332, Control_c, 0, 64, 42
2, 70489, Note_on_c, 0, 75, 74
2, 70522, Note_on_c, 0, 48, 0
2, 70661, Control_c, 0, 64, 41
2, 70698, Control_c, 0, 64, 40
2, 70717, Control_c, 0, 64, 39
2, 70737, Control_c, 0, 64, 37
2, 70737, Note_on_c, 0, 74, 70
2, 70744, Note_on_c, 0, 53, 65
2, 70758, Control_c, 0, 64, 36
2, 70773, Control_c, 0, 64, 34
2, 70778, Note_on_c, 0, 75, 0
2, 70793, Control_c, 0, 64, 32
2, 70833, Control_c, 0, 64, 31
2, 70987, Note_on_c, 0, 73, 81
2, 70996, Note_on_c, 0, 69, 0
2, 71004, Note_on_c, 0, 74, 0
2, 71102, Control_c, 0, 64, 32
2, 71157, Note_on_c, 0, 59, 0
2, 71174, Note_on_c, 0, 53, 0
2, 71223, Note_on_c, 0, 46, 51
2, 71232, Note_on_c, 0, 74, 71
2, 71257, Note_on_c, 0, 73, 0
2, 71488, Note_on_c, 0, 50, 48
2, 71499, Note_on_c, 0, 72, 63
2, 71724, Note_on_c, 0, 52, 56
2, 71724, Note_on_c, 0, 70, 61
2, 71770, Note_on_c, 0, 72, 0
2, 71859, Note_on_c, 0, 50, 0
2, 71942, Note_on_c, 0, 70, 0
2, 71949, Note_on_c, 0, 54, 61
2, 71960, Note_on_c, 0, 69, 58
2, 71979, Note_on_c, 0, 52, 0
2, 72171, Note_on_c, 0, 54, 0
2, 72196, Note_on_c, 0, 69, 0
2, 72201, Note_on_c, 0, 70, 59
2, 72207, Note_on_c, 0, 55, 53
2, 72408, Note_on_c, 0, 55, 0
2, 72442, Note_on_c, 0, 57, 57
2, 72442, Note_on_c, 0, 66, 64
2, 72471, Note_on_c, 0, 74, 0
2, 72512, Note_on_c, 0, 70, 0
2, 72667, Note_on_c, 0, 57, 0
2, 72696, Note_on_c, 0, 46, 0
2, 72696, Note_on_c, 0, 67, 66
2, 72700, Note_on_c, 0, 58, 62
2, 72751, Note_on_c, 0, 66, 0
2, 72924, Note_on_c, 0, 51, 64
2, 72928, Note_on_c, 0, 74, 80
2, 73017, Note_on_c, 0, 51, 0
2, 73217, Note_on_c, 0, 73, 77
2, 73237, Note_on_c, 0, 45, 46
2, 73237, Note_on_c, 0, 58, 0
2, 73275, Note_on_c, 0, 74, 0
2, 73473, Note_on_c, 0, 57, 57
2, 73652, Note_on_c, 0, 57, 0
2, 73712, Note_on_c, 0, 72, 73
2, 73712, Note_on_c, 0, 73, 0
2, 73716, Note_on_c, 0, 52, 48
2, 73771, Note_on_c, 0, 67, 0
2, 73900, Note_on_c, 0, 52, 0
2, 73950, Note_on_c, 0, 70, 61
2, 73959, Note_on_c, 0, 55, 43
2, 74192, Note_on_c, 0, 54, 54
2, 74196, Note_on_c, 0, 55, 0
2, 74203, Note_on_c, 0, 69, 51
2, 74218, Note_on_c, 0, 70, 0
2, 74429, Note_on_c, 0, 55, 48
2, 74433, Note_on_c, 0, 67, 62
2, 74456, Note_on_c, 0, 54, 0
2, 74480, Note_on_c, 0, 69, 0
2, 74542, Note_on_c, 0, 72, 0
2, 74614, Control_c, 0, 64, 37
2, 74634, Control_c, 0, 64, 44
2, 74638, Note_on_c, 0, 55, 0
2, 74654, Control_c, 0, 64, 50
2, 74665, Note_on_c, 0, 66, 61
2, 74669, Note_on_c, 0, 57, 55
2, 74674, Control_c, 0, 64, 54
2, 74676, Note_on_c, 0, 45, 0
2, 74693, Control_c, 0, 64, 55
2, 74710, Control_c, 0, 64, 57
2, 74729, Control_c, 0, 64, 58
2, 74734, Note_on_c, 0, 66, 0
2, 74750, Control_c, 0, 64, 59
2, 74766, Control_c, 0, 64, 60
2, 74894, Note_on_c, 0, 72, 68
2, 74901, Note_on_c, 0, 63, 51
2, 74911, Note_on_c, 0, 54, 54
2, 74960, Control_c, 0, 64, 59
2, 74992, Note_on_c, 0, 63, 0
2, 75001, Note_on_c, 0, 54, 0
2, 75039, Control_c, 0, 64, 58
2, 75055, Control_c, 0, 64, 57
2, 75075, Control_c, 0, 64, 55
2, 75095, Control_c, 0, 64, 52
2, 75113, Control_c, 0, 64, 48
2, 75131, Control_c, 0, 64, 44
2, 75147, Note_on_c, 0, 57, 0
2, 75151, Control_c, 0, 64, 41
2, 75166, Note_on_c, 0, 71, 67
2, 75171, Control_c, 0, 64, 38
2, 75175, Note_on_c, 0, 43, 46
2, 75175, Note_on_c, 0, 62, 54
2, 75193, Control_c, 0, 64, 37
2, 75208, Control_c, 0, 64, 36
2, 75247, Control_c, 0, 64, 40
2, 75267, Note_on_c, 0, 62, 0
2, 75271, Control_c, 0, 64, 47
2, 75286, Control_c, 0, 64, 53
2, 75295, Note_on_c, 0, 72, 0
2, 75304, Control_c, 0, 64, 56
2, 75324, Control_c, 0, 64, 58
2, 75344, Control_c, 0, 64, 60
2, 75361, Note_on_c, 0, 67, 0
2, 75365, Control_c, 0, 64, 62
2, 75383, Control_c, 0, 64, 63
2, 75402, Control_c, 0, 64, 64
2, 75419, Note_on_c, 0, 71, 0
2, 75423, Control_c, 0, 64, 65
2, 75434, Note_on_c, 0, 64, 60
2, 75441, Control_c, 0, 64, 66
2, 75441, Note_on_c, 0, 55, 48
2, 75461, Control_c, 0, 64, 67
2, 75535, Control_c, 0, 64, 66
2, 75575, Control_c, 0, 64, 65
2, 75592, Control_c, 0, 64, 64
2, 75651, Control_c, 0, 64, 63
2, 75673, Note_on_c, 0, 55, 0
2, 75673, Note_on_c, 0, 70, 65
2, 75676, Note_on_c, 0, 64, 0
2, 75686, Note_on_c, 0, 65, 51
2, 75691, Control_c, 0, 64, 61
2, 75691, Note_on_c, 0, 50, 46
2, 75708, Control_c, 0, 64, 59
2, 75729, Control_c, 0, 64, 57
2, 75746, Control_c, 0, 64, 55
2, 75766, Control_c, 0, 64, 54
2, 75786, Control_c, 0, 64, 53
2, 75805, Control_c, 0, 64, 51
2, 75825, Control_c, 0, 64, 50
2, 75844, Control_c, 0, 64, 49
2, 75862, Control_c, 0, 64, 48
2, 75877, Note_on_c, 0, 50, 0
2, 75881, Control_c, 0, 64, 47
2, 75921, Control_c, 0, 64, 46
2, 75921, Note_on_c, 0, 69, 58
2, 75925, Note_on_c, 0, 53, 46
2, 75957, Control_c, 0, 64, 45
2, 75996, Note_on_c, 0, 65, 0
2, 76018, Control_c, 0, 64, 44
2, 76196, Note_on_c, 0, 52, 51
2, 76200, Note_on_c, 0, 53, 0
2, 76203, Note_on_c, 0, 67, 52
2, 76231, Note_on_c, 0, 69, 0
2, 76266, Control_c, 0, 64, 43
2, 76343, Control_c, 0, 64, 42
2, 76361, Control_c, 0, 64, 40
2, 76383, Control_c, 0, 64, 38
2, 76401, Control_c, 0, 64, 36
2, 76419, Control_c, 0, 64, 32
2, 76437, Control_c, 0, 64, 27
2, 76449, Note_on_c, 0, 53, 43
2, 76457, Note_on_c, 0, 65, 53
2, 76461, Control_c, 0, 64, 20
2, 76466, Note_on_c, 0, 52, 0
2, 76477, Control_c, 0, 64, 13
2, 76495, Control_c, 0, 64, 11
2, 76515, Control_c, 0, 64, 17
2, 76535, Control_c, 0, 64, 33
2, 76540, Note_on_c, 0, 67, 0
2, 76553, Control_c, 0, 64, 46
2, 76575, Control_c, 0, 64, 54
2, 76575, Note_on_c, 0, 70, 0
2, 76592, Control_c, 0, 64, 58
2, 76609, Control_c, 0, 64, 60
2, 76629, Control_c, 0, 64, 62
2, 76649, Control_c, 0, 64, 64
2, 76668, Control_c, 0, 64, 67
2, 76668, Note_on_c, 0, 53, 0
2, 76689, Control_c, 0, 64, 72
2, 76689, Note_on_c, 0, 64, 60
2, 76698, Note_on_c, 0, 55, 49
2, 76709, Control_c, 0, 64, 79
2, 76726, Control_c, 0, 64, 86
2, 76739, Note_on_c, 0, 64, 0
2, 76748, Control_c, 0, 64, 91
2, 76765, Control_c, 0, 64, 94
2, 76841, Control_c, 0, 64, 95
2, 76852, Note_on_c, 0, 43, 0
2, 76881, Control_c, 0, 64, 94
2, 76900, Control_c, 0, 64, 93
2, 76920, Note_on_c, 0, 70, 69
2, 76937, Control_c, 0, 64, 92
2, 76942, Note_on_c, 0, 55, 0
2, 76944, Note_on_c, 0, 61, 48
2, 76963, Note_on_c, 0, 52, 46
2, 76974, Control_c, 0, 64, 90
2, 76994, Control_c, 0, 64, 88
2, 77014, Control_c, 0, 64, 84
2, 77027, Note_on_c, 0, 61, 0
2, 77032, Control_c, 0, 64, 81
2, 77052, Control_c, 0, 64, 78
2, 77072, Control_c, 0, 64, 76
2, 77088, Note_on_c, 0, 52, 0
2, 77093, Control_c, 0, 64, 73
2, 77110, Control_c, 0, 64, 68
2, 77129, Control_c, 0, 64, 64
2, 77149, Control_c, 0, 64, 61
2, 77169, Control_c, 0, 64, 58
2, 77187, Control_c, 0, 64, 57
2, 77199, Note_on_c, 0, 41, 41
2, 77209, Control_c, 0, 64, 56
2, 77209, Note_on_c, 0, 69, 53
2, 77226, Control_c, 0, 64, 55
2, 77241, Note_on_c, 0, 65, 0
2, 77246, Control_c, 0, 64, 52
2, 77246, Note_on_c, 0, 60, 36
2, 77246, Note_on_c, 0, 70, 0
2, 77263, Control_c, 0, 64, 49
2, 77282, Control_c, 0, 64, 45
2, 77306, Control_c, 0, 64, 43
2, 77321, Control_c, 0, 64, 41
2, 77340, Control_c, 0, 64, 40
2, 77360, Control_c, 0, 64, 39
2, 77380, Control_c, 0, 64, 38
2, 77416, Control_c, 0, 64, 37
2, 77452, Note_on_c, 0, 48, 48
2, 77481, Note_on_c, 0, 41, 0
2, 77710, Note_on_c, 0, 50, 55
2, 77760, Note_on_c, 0, 48, 0
2, 77936, Note_on_c, 0, 50, 0
2, 77950, Note_on_c, 0, 52, 62
2, 78181, Note_on_c, 0, 52, 0
2, 78203, Note_on_c, 0, 53, 62
2, 78448, Note_on_c, 0, 57, 70
2, 78457, Note_on_c, 0, 53, 0
2, 78590, Control_c, 0, 64, 38
2, 78681, Note_on_c, 0, 65, 72
2, 78696, Note_on_c, 0, 50, 59
2, 78703, Note_on_c, 0, 57, 0
2, 78787, Note_on_c, 0, 60, 0
2, 78802, Note_on_c, 0, 69, 0
2, 78937, Note_on_c, 0, 50, 0
2, 78942, Note_on_c, 0, 53, 66
2, 79199, Note_on_c, 0, 67, 70
2, 79208, Note_on_c, 0, 47, 59
2, 79261, Note_on_c, 0, 65, 0
2, 79265, Note_on_c, 0, 53, 0
2, 79480, Note_on_c, 0, 65, 53
2, 79489, Note_on_c, 0, 47, 0
2, 79702, Note_on_c, 0, 43, 59
2, 79707, Note_on_c, 0, 64, 59
2, 79764, Note_on_c, 0, 65, 0
2, 79965, Note_on_c, 0, 62, 64
2, 80001, Note_on_c, 0, 43, 0
2, 80001, Note_on_c, 0, 64, 0
2, 80097, Note_on_c, 0, 67, 0
2, 80208, Note_on_c, 0, 64, 64
2, 80217, Note_on_c, 0, 48, 54
2, 80217, Note_on_c, 0, 62, 0
2, 80452, Note_on_c, 0, 67, 67
2, 80692, Note_on_c, 0, 69, 72
2, 80721, Control_c, 0, 64, 37
2, 80927, Note_on_c, 0, 72, 75
2, 80933, Note_on_c, 0, 64, 0
2, 80939, Note_on_c, 0, 48, 0
2, 80953, Note_on_c, 0, 67, 0
2, 81004, Note_on_c, 0, 69, 0
2, 81170, Note_on_c, 0, 65, 55
2, 81174, Note_on_c, 0, 62, 45
2, 81257, Note_on_c, 0, 72, 0
2, 81285, Note_on_c, 0, 62, 0
2, 81426, Note_on_c, 0, 50, 57
2, 81534, Note_on_c, 0, 52, 66
2, 81541, Note_on_c, 0, 50, 0
2, 81638, Note_on_c, 0, 53, 66
2, 81649, Note_on_c, 0, 52, 0
2, 81751, Note_on_c, 0, 55, 72
2, 81770, Note_on_c, 0, 53, 0
2, 81873, Note_on_c, 0, 55, 0
2, 81892, Note_on_c, 0, 57, 71
2, 82125, Note_on_c, 0, 57, 0
2, 82192, Note_on_c, 0, 47, 62
2, 82243, Note_on_c, 0, 65, 0
2, 82445, Note_on_c, 0, 74, 82
2, 82545, Note_on_c, 0, 72, 84
2, 82549, Note_on_c, 0, 74, 0
2, 82659, Control_c, 0, 64, 36
2, 82678, Control_c, 0, 64, 33
2, 82683, Note_on_c, 0, 74, 81
2, 82699, Control_c, 0, 64, 29
2, 82709, Note_on_c, 0, 55, 50
2, 82716, Control_c, 0, 64, 16
2, 82724, Note_on_c, 0, 47, 0
2, 82734, Control_c, 0, 64, 0
2, 82739, Note_on_c, 0, 72, 0
2, 82889, Control_c, 0, 64, 16
2, 82909, Control_c, 0, 64, 39
2, 82926, Control_c, 0, 64, 49
2, 82941, Note_on_c, 0, 65, 69
2, 82948, Control_c, 0, 64, 55
2, 82952, Note_on_c, 0, 74, 0
2, 82968, Control_c, 0, 64, 58
2, 82985, Control_c, 0, 64, 60
2, 83005, Control_c, 0, 64, 62
2, 83023, Control_c, 0, 64, 63
2, 83043, Control_c, 0, 64, 64
2, 83062, Control_c, 0, 64, 65
2, 83080, Control_c, 0, 64, 66
2, 83195, Control_c, 0, 64, 65
2, 83234, Control_c, 0, 64, 63
2, 83243, Note_on_c, 0, 48, 44
2, 83243, Note_on_c, 0, 64, 70
2, 83257, Control_c, 0, 64, 62
2, 83272, Control_c, 0, 64, 61
2, 83294, Control_c, 0, 64, 60
2, 83294, Note_on_c, 0, 65, 0
2, 83312, Control_c, 0, 64, 59
2, 83333, Control_c, 0, 64, 57
2, 83350, Control_c, 0, 64, 55
2, 83369, Control_c, 0, 64, 52
2, 83389, Control_c, 0, 64, 50
2, 83407, Control_c, 0, 64, 49
2, 83425, Control_c, 0, 64, 47
2, 83444, Control_c, 0, 64, 45
2, 83468, Control_c, 0, 64, 44
2, 83485, Control_c, 0, 64, 43
2, 83524, Control_c, 0, 64, 42
2, 83531, Note_on_c, 0, 62, 49
2, 83542, Control_c, 0, 64, 41
2, 83579, Control_c, 0, 64, 40
2, 83601, Control_c, 0, 64, 39
2, 83657, Control_c, 0, 64, 38
2, 83774, Control_c, 0, 64, 37
2, 83781, Note_on_c, 0, 60, 57
2, 83788, Note_on_c, 0, 62, 0
2, 83812, Control_c, 0, 64, 36
2, 84002, Control_c, 0, 64, 35
2, 84017, Note_on_c, 0, 59, 62
2, 84054, Note_on_c, 0, 60, 0
2, 84147, Note_on_c, 0, 64, 0
2, 84270, Note_on_c, 0, 59, 0
2, 84275, Note_on_c, 0, 60, 69
2, 84309, Control_c, 0, 64, 34
2, 84349, Control_c, 0, 64, 33
2, 84504, Note_on_c, 0, 67, 71
2, 84520, Control_c, 0, 64, 32
2, 84629, Note_on_c, 0, 60, 0
2, 84757, Note_on_c, 0, 48, 0
2, 84757, Note_on_c, 0, 69, 73
2, 84761, Note_on_c, 0, 47, 56
2, 84979, Note_on_c, 0, 71, 83
2, 85003, Note_on_c, 0, 67, 0
2, 85061, Note_on_c, 0, 69, 0
2, 85080, Control_c, 0, 64, 31
2, 85237, Note_on_c, 0, 47, 0
2, 85241, Note_on_c, 0, 72, 79
2, 85252, Note_on_c, 0, 45, 51
2, 85324, Note_on_c, 0, 55, 0
2, 85330, Note_on_c, 0, 71, 0
2, 85424, Control_c, 0, 64, 30
2, 85507, Note_on_c, 0, 69, 56
2, 85566, Note_on_c, 0, 45, 0
2, 85723, Note_on_c, 0, 69, 0
2, 85728, Note_on_c, 0, 64, 61
2, 85737, Note_on_c, 0, 57, 57
2, 85741, Note_on_c, 0, 48, 56
2, 85974, Note_on_c, 0, 67, 74
2, 85989, Note_on_c, 0, 64, 0
2, 86052, Note_on_c, 0, 48, 0
2, 86214, Note_on_c, 0, 66, 70
2, 86224, Note_on_c, 0, 50, 65
2, 86261, Note_on_c, 0, 67, 0
2, 86463, Note_on_c, 0, 69, 73
2, 86524, Note_on_c, 0, 50, 0
2, 86631, Note_on_c, 0, 66, 0
2, 86638, Note_on_c, 0, 72, 0
2, 86701, Note_on_c, 0, 54, 58
2, 86701, Note_on_c, 0, 62, 74
2, 86743, Note_on_c, 0, 69, 0
2, 86770, Control_c, 0, 64, 31
2, 86927, Note_on_c, 0, 54, 0
2, 86947, Note_on_c, 0, 72, 80
2, 87188, Note_on_c, 0, 57, 0
2, 87199, Note_on_c, 0, 71, 69
2, 87206, Note_on_c, 0, 43, 44
2, 87298, Note_on_c, 0, 72, 0
2, 87451, Note_on_c, 0, 50, 53
2, 87649, Note_on_c, 0, 43, 0
2, 87683, Note_on_c, 0, 50, 0
2, 87698, Note_on_c, 0, 52, 67
2, 87944, Note_on_c, 0, 54, 73
2, 87952, Note_on_c, 0, 52, 0
2, 88052, Note_on_c, 0, 62, 0
2, 88144, Note_on_c, 0, 71, 0
2, 88175, Note_on_c, 0, 54, 0
2, 88193, Note_on_c, 0, 55, 71
2, 88360, Control_c, 0, 64, 30
2, 88423, Note_on_c, 0, 59, 78
2, 88461, Note_on_c, 0, 55, 0
2, 88607, Note_on_c, 0, 59, 0
2, 88650, Note_on_c, 0, 73, 80
2, 88655, Note_on_c, 0, 52, 57
2, 88655, Note_on_c, 0, 67, 69
2, 88759, Note_on_c, 0, 74, 77
2, 88825, Note_on_c, 0, 52, 0
2, 88863, Note_on_c, 0, 55, 66
2, 88879, Note_on_c, 0, 76, 85
2, 88892, Note_on_c, 0, 73, 0
2, 88919, Note_on_c, 0, 74, 0
2, 88971, Note_on_c, 0, 76, 0
2, 89125, Note_on_c, 0, 69, 77
2, 89136, Note_on_c, 0, 49, 55
2, 89182, Note_on_c, 0, 67, 0
2, 89291, Note_on_c, 0, 55, 0
2, 89376, Note_on_c, 0, 49, 0
2, 89388, Note_on_c, 0, 67, 60
2, 89615, Note_on_c, 0, 45, 56
2, 89623, Note_on_c, 0, 65, 58
2, 89778, Note_on_c, 0, 67, 0
2, 89861, Note_on_c, 0, 64, 68
2, 89865, Note_on_c, 0, 45, 0
2, 89911, Note_on_c, 0, 65, 0
2, 89924, Note_on_c, 0, 69, 0
2, 90088, Note_on_c, 0, 64, 0
2, 90090, Note_on_c, 0, 65, 61
2, 90097, Note_on_c, 0, 50, 63
2, 90335, Note_on_c, 0, 69, 79
2, 90385, Note_on_c, 0, 50, 0
2, 90559, Note_on_c, 0, 70, 85
2, 90572, Note_on_c, 0, 48, 59
2, 90731, Note_on_c, 0, 69, 0
2, 90807, Note_on_c, 0, 48, 0
2, 90814, Note_on_c, 0, 72, 85
2, 90848, Note_on_c, 0, 70, 0
2, 91043, Note_on_c, 0, 46, 53
2, 91083, Note_on_c, 0, 74, 80
2, 91090, Note_on_c, 0, 72, 0
2, 91195, Note_on_c, 0, 72, 83
2, 91298, Note_on_c, 0, 70, 79
2, 91312, Note_on_c, 0, 74, 0
2, 91341, Note_on_c, 0, 46, 0
2, 91346, Note_on_c, 0, 72, 0
2, 91397, Note_on_c, 0, 69, 77
2, 91402, Note_on_c, 0, 70, 0
2, 91517, Note_on_c, 0, 70, 86
2, 91522, Note_on_c, 0, 45, 60
2, 91575, Note_on_c, 0, 65, 0
2, 91678, Note_on_c, 0, 69, 0
2, 91731, Note_on_c, 0, 45, 0
2, 91747, Note_on_c, 0, 74, 83
2, 91795, Note_on_c, 0, 70, 0
2, 91974, Note_on_c, 0, 74, 0
2, 91989, Note_on_c, 0, 67, 81
2, 92005, Note_on_c, 0, 46, 59
2, 92247, Note_on_c, 0, 77, 87
2, 92252, Note_on_c, 0, 46, 0
2, 92392, Control_c, 0, 64, 27
2, 92414, Control_c, 0, 64, 20
2, 92432, Control_c, 0, 64, 0
2, 92495, Note_on_c, 0, 43, 54
2, 92495, Note_on_c, 0, 76, 83
2, 92582, Note_on_c, 0, 77, 0
2, 92642, Control_c, 0, 64, 34
2, 92663, Control_c, 0, 64, 48
2, 92680, Control_c, 0, 64, 55
2, 92699, Control_c, 0, 64, 59
2, 92718, Note_on_c, 0, 74, 82
2, 92722, Control_c, 0, 64, 62
2, 92741, Control_c, 0, 64, 66
2, 92745, Note_on_c, 0, 76, 0
2, 92756, Control_c, 0, 64, 74
2, 92778, Control_c, 0, 64, 93
2, 92786, Note_on_c, 0, 74, 0
2, 92798, Control_c, 0, 64, 127
2, 92898, Note_on_c, 0, 43, 0
2, 93004, Note_on_c, 0, 73, 80
2, 93019, Note_on_c, 0, 45, 65
2, 93028, Control_c, 0, 64, 118
2, 93044, Control_c, 0, 64, 105
2, 93065, Control_c, 0, 64, 95
2, 93085, Control_c, 0, 64, 83
2, 93089, Note_on_c, 0, 67, 0
2, 93106, Control_c, 0, 64, 72
2, 93122, Control_c, 0, 64, 65
2, 93142, Control_c, 0, 64, 60
2, 93160, Control_c, 0, 64, 58
2, 93180, Control_c, 0, 64, 56
2, 93201, Control_c, 0, 64, 55
2, 93221, Control_c, 0, 64, 52
2, 93238, Control_c, 0, 64, 49
2, 93256, Control_c, 0, 64, 45
2, 93275, Control_c, 0, 64, 42
2, 93288, Note_on_c, 0, 70, 68
2, 93297, Control_c, 0, 64, 41
2, 93315, Control_c, 0, 64, 39
2, 93334, Control_c, 0, 64, 38
2, 93352, Control_c, 0, 64, 36
2, 93372, Control_c, 0, 64, 35
2, 93430, Control_c, 0, 64, 34
2, 93469, Control_c, 0, 64, 33
2, 93485, Control_c, 0, 64, 32
2, 93526, Control_c, 0, 64, 31
2, 93526, Note_on_c, 0, 69, 64
2, 93606, Note_on_c, 0, 70, 0
2, 93697, Control_c, 0, 64, 30
2, 93770, Note_on_c, 0, 67, 65
2, 93799, Note_on_c, 0, 69, 0
2, 93890, Note_on_c, 0, 73, 0
2, 94003, Note_on_c, 0, 65, 67
2, 94027, Control_c, 0, 64, 29
2, 94059, Note_on_c, 0, 67, 0
2, 94083, Control_c, 0, 64, 28
2, 94241, Note_on_c, 0, 69, 77
2, 94306, Note_on_c, 0, 69, 0
2, 94501, Note_on_c, 0, 74, 82
2, 94535, Note_on_c, 0, 65, 0
2, 94743, Note_on_c, 0, 65, 62
2, 94776, Control_c, 0, 64, 27
2, 94819, Note_on_c, 0, 65, 0
2, 94988, Note_on_c, 0, 64, 69
2, 95237, Note_on_c, 0, 52, 61
2, 95275, Note_on_c, 0, 74, 0
2, 95311, Note_on_c, 0, 45, 0
2, 95473, Note_on_c, 0, 74, 73
2, 95482, Note_on_c, 0, 53, 59
2, 95559, Note_on_c, 0, 52, 0
2, 95714, Note_on_c, 0, 55, 71
2, 95719, Note_on_c, 0, 53, 0
2, 95966, Note_on_c, 0, 57, 66
2, 95966, Note_on_c, 0, 72, 75
2, 95989, Note_on_c, 0, 55, 0
2, 95998, Note_on_c, 0, 74, 0
2, 96224, Note_on_c, 0, 60, 71
2, 96251, Note_on_c, 0, 57, 0
2, 96444, Control_c, 0, 64, 25
2, 96458, Note_on_c, 0, 67, 64
2, 96464, Note_on_c, 0, 70, 71
2, 96468, Note_on_c, 0, 52, 56
2, 96483, Control_c, 0, 64, 24
2, 96483, Note_on_c, 0, 64, 0
2, 96491, Note_on_c, 0, 60, 0
2, 96503, Control_c, 0, 64, 20
2, 96521, Control_c, 0, 64, 15
2, 96537, Note_on_c, 0, 72, 0
2, 96541, Control_c, 0, 64, 10
2, 96559, Control_c, 0, 64, 9
2, 96579, Control_c, 0, 64, 15
2, 96597, Control_c, 0, 64, 30
2, 96615, Control_c, 0, 64, 41
2, 96635, Control_c, 0, 64, 49
2, 96657, Control_c, 0, 64, 54
2, 96671, Note_on_c, 0, 52, 0
2, 96675, Control_c, 0, 64, 57
2, 96695, Control_c, 0, 64, 59
2, 96699, Note_on_c, 0, 55, 59
2, 96714, Control_c, 0, 64, 60
2, 96736, Control_c, 0, 64, 62
2, 96736, Note_on_c, 0, 67, 0
2, 96771, Control_c, 0, 64, 63
2, 96771, Note_on_c, 0, 70, 0
2, 96809, Control_c, 0, 64, 62
2, 96885, Control_c, 0, 64, 61
2, 96925, Control_c, 0, 64, 60
2, 96942, Control_c, 0, 64, 59
2, 96962, Control_c, 0, 64, 58
2, 96973, Note_on_c, 0, 54, 57
2, 96973, Note_on_c, 0, 69, 68
2, 96982, Control_c, 0, 64, 57
2, 96995, Note_on_c, 0, 55, 0
2, 97002, Control_c, 0, 64, 56
2, 97021, Control_c, 0, 64, 55
2, 97039, Control_c, 0, 64, 53
2, 97057, Control_c, 0, 64, 51
2, 97076, Control_c, 0, 64, 48
2, 97099, Control_c, 0, 64, 46
2, 97117, Control_c, 0, 64, 44
2, 97134, Control_c, 0, 64, 42
2, 97156, Control_c, 0, 64, 41
2, 97193, Control_c, 0, 64, 40
2, 97213, Control_c, 0, 64, 39
2, 97244, Note_on_c, 0, 54, 0
2, 97248, Note_on_c, 0, 57, 55
2, 97250, Note_on_c, 0, 67, 55
2, 97255, Control_c, 0, 64, 38
2, 97345, Control_c, 0, 64, 37
2, 97473, Note_on_c, 0, 57, 0
2, 97484, Note_on_c, 0, 50, 56
2, 97489, Note_on_c, 0, 66, 60
2, 97516, Note_on_c, 0, 67, 0
2, 97555, Note_on_c, 0, 69, 0
2, 97692, Control_c, 0, 64, 36
2, 97718, Note_on_c, 0, 69, 63
2, 97725, Note_on_c, 0, 60, 51
2, 97839, Note_on_c, 0, 50, 0
2, 97884, Control_c, 0, 64, 35
2, 97913, Note_on_c, 0, 66, 0
2, 97997, Note_on_c, 0, 62, 61
2, 98002, Note_on_c, 0, 55, 51
2, 98028, Note_on_c, 0, 60, 0
2, 98048, Note_on_c, 0, 69, 0
2, 98266, Note_on_c, 0, 69, 56
2, 98275, Note_on_c, 0, 60, 42
2, 98382, Control_c, 0, 64, 34
2, 98460, Note_on_c, 0, 60, 0
2, 98507, Note_on_c, 0, 67, 65
2, 98511, Note_on_c, 0, 58, 55
2, 98545, Note_on_c, 0, 69, 0
2, 98562, Note_on_c, 0, 62, 0
2, 98728, Control_c, 0, 64, 33
2, 98733, Note_on_c, 0, 66, 66
2, 98741, Note_on_c, 0, 58, 0
2, 98750, Control_c, 0, 64, 32
2, 98750, Note_on_c, 0, 57, 57
2, 98753, Note_on_c, 0, 67, 0
2, 98768, Control_c, 0, 64, 29
2, 98785, Control_c, 0, 64, 25
2, 98803, Control_c, 0, 64, 17
2, 98823, Control_c, 0, 64, 0
2, 98960, Control_c, 0, 64, 22
2, 98976, Note_on_c, 0, 67, 63
2, 98980, Control_c, 0, 64, 39
2, 98989, Note_on_c, 0, 57, 0
2, 98998, Control_c, 0, 64, 48
2, 99003, Note_on_c, 0, 58, 65
2, 99018, Control_c, 0, 64, 53
2, 99023, Note_on_c, 0, 66, 0
2, 99037, Control_c, 0, 64, 54
2, 99041, Note_on_c, 0, 55, 0
2, 99056, Control_c, 0, 64, 55
2, 99074, Control_c, 0, 64, 56
2, 99085, Note_on_c, 0, 67, 0
2, 99094, Control_c, 0, 64, 57
2, 99131, Control_c, 0, 64, 56
2, 99169, Control_c, 0, 64, 55
2, 99226, Control_c, 0, 64, 54
2, 99250, Control_c, 0, 64, 53
2, 99250, Note_on_c, 0, 74, 81
2, 99265, Control_c, 0, 64, 52
2, 99285, Control_c, 0, 64, 50
2, 99305, Control_c, 0, 64, 48
2, 99325, Control_c, 0, 64, 46
2, 99345, Control_c, 0, 64, 45
2, 99364, Control_c, 0, 64, 43
2, 99381, Control_c, 0, 64, 42
2, 99401, Control_c, 0, 64, 40
2, 99422, Control_c, 0, 64, 38
2, 99439, Control_c, 0, 64, 35
2, 99458, Control_c, 0, 64, 34
2, 99479, Control_c, 0, 64, 32
2, 99492, Note_on_c, 0, 76, 86
2, 99498, Control_c, 0, 64, 30
2, 99499, Note_on_c, 0, 50, 57
2, 99514, Control_c, 0, 64, 28
2, 99534, Control_c, 0, 64, 26
2, 99557, Control_c, 0, 64, 25
2, 99582, Note_on_c, 0, 74, 0
2, 99631, Control_c, 0, 64, 24
2, 99728, Note_on_c, 0, 78, 90
2, 99928, Note_on_c, 0, 76, 0
2, 99957, Control_c, 0, 64, 23
2, 99989, Note_on_c, 0, 50, 0
2, 99997, Control_c, 0, 64, 22
2, 99997, Note_on_c, 0, 51, 60
2, 99997, Note_on_c, 0, 79, 84
2, 100065, Note_on_c, 0, 78, 0
2, 100243, Note_on_c, 0, 82, 81
2, 100302, Note_on_c, 0, 79, 0
2, 100484, Note_on_c, 0, 74, 70
2, 100503, Note_on_c, 0, 55, 59
2, 100519, Note_on_c, 0, 51, 0
2, 100570, Note_on_c, 0, 58, 0
2, 100677, Note_on_c, 0, 74, 0
2, 100735, Note_on_c, 0, 77, 74
2, 100802, Note_on_c, 0, 82, 0
2, 101006, Note_on_c, 0, 48, 58
2, 101006, Note_on_c, 0, 60, 57
2, 101006, Note_on_c, 0, 75, 70
2, 101015, Note_on_c, 0, 77, 0
2, 101056, Note_on_c, 0, 55, 0
2, 101289, Note_on_c, 0, 82, 70
2, 101397, Control_c, 0, 64, 23
2, 101474, Control_c, 0, 64, 24
2, 101494, Control_c, 0, 64, 25
2, 101532, Control_c, 0, 64, 26
2, 101536, Note_on_c, 0, 80, 80
2, 101550, Control_c, 0, 64, 27
2, 101570, Control_c, 0, 64, 29
2, 101590, Control_c, 0, 64, 32
2, 101610, Control_c, 0, 64, 36
2, 101612, Note_on_c, 0, 82, 0
2, 101627, Control_c, 0, 64, 40
2, 101648, Control_c, 0, 64, 45
2, 101667, Control_c, 0, 64, 49
2, 101684, Control_c, 0, 64, 51
2, 101704, Control_c, 0, 64, 52
2, 101722, Control_c, 0, 64, 53
2, 101742, Control_c, 0, 64, 55
2, 101763, Control_c, 0, 64, 56
2, 101768, Note_on_c, 0, 79, 87
2, 101781, Control_c, 0, 64, 57
2, 101822, Control_c, 0, 64, 58
2, 101822, Note_on_c, 0, 80, 0
2, 101840, Control_c, 0, 64, 59
2, 101878, Control_c, 0, 64, 60
2, 102012, Control_c, 0, 64, 59
2, 102032, Control_c, 0, 64, 58
2, 102050, Control_c, 0, 64, 56
2, 102058, Note_on_c, 0, 80, 83
2, 102071, Control_c, 0, 64, 52
2, 102089, Control_c, 0, 64, 46
2, 102108, Control_c, 0, 64, 39
2, 102128, Control_c, 0, 64, 33
2, 102144, Control_c, 0, 64, 29
2, 102153, Note_on_c, 0, 79, 0
2, 102165, Control_c, 0, 64, 28
2, 102186, Control_c, 0, 64, 30
2, 102203, Control_c, 0, 64, 38
2, 102223, Control_c, 0, 64, 47
2, 102241, Control_c, 0, 64, 55
2, 102261, Control_c, 0, 64, 58
2, 102281, Control_c, 0, 64, 60
2, 102298, Control_c, 0, 64, 61
2, 102319, Control_c, 0, 64, 62
2, 102325, Note_on_c, 0, 80, 0
2, 102339, Note_on_c, 0, 84, 73
2, 102343, Control_c, 0, 64, 64
2, 102357, Control_c, 0, 64, 69
2, 102376, Control_c, 0, 64, 78
2, 102395, Control_c, 0, 64, 93
2, 102413, Control_c, 0, 64, 113
2, 102437, Control_c, 0, 64, 127
2, 102550, Note_on_c, 0, 84, 0
2, 102583, Note_on_c, 0, 78, 80
2, 102655, Note_on_c, 0, 75, 0
2, 102686, Note_on_c, 0, 48, 0
2, 102821, Note_on_c, 0, 79, 82
2, 102825, Note_on_c, 0, 78, 0
2, 102933, Control_c, 0, 64, 113
2, 102952, Control_c, 0, 64, 101
2, 102971, Control_c, 0, 64, 88
2, 102993, Control_c, 0, 64, 78
2, 103011, Control_c, 0, 64, 72
2, 103028, Control_c, 0, 64, 69
2, 103047, Control_c, 0, 64, 66
2, 103068, Control_c, 0, 64, 64
2, 103086, Control_c, 0, 64, 61
2, 103106, Control_c, 0, 64, 58
2, 103110, Note_on_c, 0, 50, 46
2, 103123, Note_on_c, 0, 78, 73
2, 103127, Control_c, 0, 64, 56
2, 103145, Control_c, 0, 64, 53
2, 103162, Control_c, 0, 64, 50
2, 103184, Control_c, 0, 64, 48
2, 103205, Control_c, 0, 64, 45
2, 103205, Note_on_c, 0, 79, 0
2, 103220, Control_c, 0, 64, 42
2, 103240, Control_c, 0, 64, 40
2, 103262, Control_c, 0, 64, 38
2, 103282, Control_c, 0, 64, 37
2, 103298, Control_c, 0, 64, 36
2, 103317, Control_c, 0, 64, 35
2, 103413, Note_on_c, 0, 75, 53
2, 103436, Control_c, 0, 64, 34
2, 103635, Note_on_c, 0, 75, 0
2, 103672, Note_on_c, 0, 74, 57
2, 103685, Note_on_c, 0, 60, 0
2, 103908, Note_on_c, 0, 60, 51
2, 104147, Note_on_c, 0, 74, 0
2, 104163, Note_on_c, 0, 59, 54
2, 104230, Note_on_c, 0, 60, 0
2, 104393, Note_on_c, 0, 74, 68
2, 104646, Note_on_c, 0, 79, 75
2, 104655, Note_on_c, 0, 58, 52
2, 104713, Note_on_c, 0, 74, 0
2, 104713, Note_on_c, 0, 78, 0
2, 104787, Note_on_c, 0, 59, 0
2, 104887, Note_on_c, 0, 73, 53
2, 105114, Note_on_c, 0, 79, 0
2, 105148, Note_on_c, 0, 57, 47
2, 105153, Note_on_c, 0, 74, 65
2, 105172, Note_on_c, 0, 73, 0
2, 105216, Note_on_c, 0, 58, 0
2, 105407, Note_on_c, 0, 79, 72
2, 105665, Note_on_c, 0, 78, 72
2, 105669, Note_on_c, 0, 55, 48
2, 105725, Note_on_c, 0, 50, 0
2, 105732, Note_on_c, 0, 79, 0
2, 105795, Note_on_c, 0, 57, 0
2, 105911, Note_on_c, 0, 76, 78
2, 105961, Note_on_c, 0, 78, 0
2, 106173, Note_on_c, 0, 55, 0
2, 106180, Note_on_c, 0, 57, 48
2, 106184, Note_on_c, 0, 78, 73
2, 106192, Note_on_c, 0, 50, 44
2, 106221, Note_on_c, 0, 74, 0
2, 106404, Note_on_c, 0, 76, 0
2, 106408, Control_c, 0, 64, 35
2, 106420, Note_on_c, 0, 79, 70
2, 106526, Note_on_c, 0, 78, 0
2, 106619, Note_on_c, 0, 57, 0
2, 106679, Control_c, 0, 64, 34
2, 106702, Note_on_c, 0, 81, 60
2, 106708, Note_on_c, 0, 62, 40
2, 106752, Note_on_c, 0, 79, 0
2, 106755, Control_c, 0, 64, 35
2, 106774, Control_c, 0, 64, 40
2, 106793, Control_c, 0, 64, 48
2, 106811, Control_c, 0, 64, 54
2, 106831, Control_c, 0, 64, 58
2, 106852, Control_c, 0, 64, 60
2, 106870, Control_c, 0, 64, 62
2, 106882, Note_on_c, 0, 50, 0
2, 106888, Control_c, 0, 64, 64
2, 106908, Control_c, 0, 64, 68
2, 106928, Control_c, 0, 64, 75
2, 106945, Control_c, 0, 64, 87
2, 106958, Note_on_c, 0, 72, 56
2, 106965, Control_c, 0, 64, 101
2, 106987, Control_c, 0, 64, 118
2, 107003, Control_c, 0, 64, 127
2, 107025, Note_on_c, 0, 72, 0
2, 107215, Control_c, 0, 64, 122
2, 107232, Control_c, 0, 64, 99
2, 107254, Control_c, 0, 64, 85
2, 107265, Note_on_c, 0, 70, 58
2, 107274, Control_c, 0, 64, 75
2, 107295, Control_c, 0, 64, 67
2, 107295, Note_on_c, 0, 55, 42
2, 107309, Control_c, 0, 64, 61
2, 107331, Control_c, 0, 64, 55
2, 107350, Control_c, 0, 64, 51
2, 107368, Control_c, 0, 64, 47
2, 107387, Control_c, 0, 64, 44
2, 107407, Control_c, 0, 64, 42
2, 107428, Control_c, 0, 64, 43
2, 107448, Control_c, 0, 64, 47
2, 107462, Control_c, 0, 64, 57
2, 107484, Control_c, 0, 64, 61
2, 107501, Control_c, 0, 64, 62
2, 107515, Note_on_c, 0, 70, 0
2, 107523, Control_c, 0, 64, 63
2, 107523, Note_on_c, 0, 74, 54
2, 107539, Note_on_c, 0, 81, 0
2, 107543, Control_c, 0, 64, 65
2, 107562, Control_c, 0, 64, 68
2, 107579, Control_c, 0, 64, 71
2, 107599, Control_c, 0, 64, 76
2, 107618, Control_c, 0, 64, 77
2, 107637, Control_c, 0, 64, 78
2, 107657, Control_c, 0, 64, 77
2, 107733, Control_c, 0, 64, 76
2, 107755, Control_c, 0, 64, 74
2, 107771, Control_c, 0, 64, 73
2, 107787, Note_on_c, 0, 63, 45
2, 107787, Note_on_c, 0, 79, 69
2, 107800, Note_on_c, 0, 72, 53
2, 107810, Control_c, 0, 64, 72
2, 107847, Control_c, 0, 64, 70
2, 107867, Note_on_c, 0, 74, 0
2, 107872, Control_c, 0, 64, 68
2, 107885, Control_c, 0, 64, 67
2, 107900, Note_on_c, 0, 62, 0
2, 107962, Control_c, 0, 64, 66
2, 107982, Control_c, 0, 64, 65
2, 108004, Control_c, 0, 64, 64
2, 108024, Control_c, 0, 64, 63
2, 108031, Note_on_c, 0, 78, 78
2, 108059, Control_c, 0, 64, 62
2, 108068, Note_on_c, 0, 79, 0
2, 108097, Control_c, 0, 64, 60
2, 108117, Control_c, 0, 64, 59
2, 108137, Control_c, 0, 64, 57
2, 108159, Control_c, 0, 64, 56
2, 108176, Control_c, 0, 64, 55
2, 108193, Control_c, 0, 64, 54
2, 108213, Control_c, 0, 64, 53
2, 108234, Control_c, 0, 64, 52
2, 108250, Control_c, 0, 64, 50
2, 108269, Control_c, 0, 64, 49
2, 108281, Note_on_c, 0, 63, 0
2, 108291, Note_on_c, 0, 72, 0
2, 108295, Control_c, 0, 64, 48
2, 108295, Note_on_c, 0, 62, 46
2, 108302, Note_on_c, 0, 79, 73
2, 108311, Control_c, 0, 64, 46
2, 108326, Control_c, 0, 64, 45
2, 108347, Control_c, 0, 64, 43
2, 108368, Control_c, 0, 64, 41
2, 108368, Note_on_c, 0, 78, 0
2, 108385, Control_c, 0, 64, 39
2, 108405, Control_c, 0, 64, 38
2, 108424, Control_c, 0, 64, 37
2, 108465, Control_c, 0, 64, 36
2, 108550, Note_on_c, 0, 70, 63
2, 108578, Control_c, 0, 64, 35
2, 108616, Control_c, 0, 64, 34
2, 108635, Control_c, 0, 64, 32
2, 108658, Control_c, 0, 64, 31
2, 108658, Note_on_c, 0, 70, 0
2, 108674, Control_c, 0, 64, 29
2, 108692, Control_c, 0, 64, 27
2, 108751, Control_c, 0, 64, 31
2, 108768, Control_c, 0, 64, 41
2, 108776, Note_on_c, 0, 79, 0
2, 108792, Control_c, 0, 64, 50
2, 108806, Note_on_c, 0, 75, 60
2, 108810, Control_c, 0, 64, 56
2, 108815, Note_on_c, 0, 60, 41
2, 108815, Note_on_c, 0, 62, 0
2, 108827, Control_c, 0, 64, 59
2, 108849, Control_c, 0, 64, 61
2, 108866, Control_c, 0, 64, 63
2, 108885, Control_c, 0, 64, 65
2, 108904, Control_c, 0, 64, 68
2, 108925, Control_c, 0, 64, 74
2, 108944, Control_c, 0, 64, 81
2, 108964, Control_c, 0, 64, 87
2, 108981, Control_c, 0, 64, 91
2, 108999, Control_c, 0, 64, 93
2, 109040, Control_c, 0, 64, 94
2, 109044, Note_on_c, 0, 81, 70
2, 109059, Control_c, 0, 64, 95
2, 109059, Note_on_c, 0, 75, 0
2, 109077, Control_c, 0, 64, 96
2, 109135, Control_c, 0, 64, 95
2, 109156, Control_c, 0, 64, 94
2, 109194, Control_c, 0, 64, 93
2, 109210, Control_c, 0, 64, 90
2, 109232, Control_c, 0, 64, 86
2, 109251, Control_c, 0, 64, 79
2, 109269, Control_c, 0, 64, 72
2, 109286, Note_on_c, 0, 60, 0
2, 109288, Control_c, 0, 64, 66
2, 109307, Control_c, 0, 64, 62
2, 109319, Note_on_c, 0, 58, 45
2, 109319, Note_on_c, 0, 82, 68
2, 109323, Note_on_c, 0, 74, 56
2, 109328, Control_c, 0, 64, 60
2, 109345, Control_c, 0, 64, 58
2, 109361, Note_on_c, 0, 81, 0
2, 109365, Control_c, 0, 64, 57
2, 109384, Control_c, 0, 64, 55
2, 109402, Control_c, 0, 64, 54
2, 109423, Control_c, 0, 64, 52
2, 109441, Control_c, 0, 64, 49
2, 109464, Control_c, 0, 64, 47
2, 109479, Control_c, 0, 64, 46
2, 109498, Control_c, 0, 64, 45
2, 109557, Control_c, 0, 64, 44
2, 109561, Note_on_c, 0, 60, 47
2, 109604, Note_on_c, 0, 58, 0
2, 109633, Control_c, 0, 64, 43
2, 109692, Control_c, 0, 64, 42
2, 109780, Note_on_c, 0, 55, 0
2, 109802, Note_on_c, 0, 60, 0
2, 109827, Note_on_c, 0, 62, 54
2, 109848, Control_c, 0, 64, 41
2, 109853, Note_on_c, 0, 74, 0
2, 110079, Note_on_c, 0, 74, 54
2, 110084, Note_on_c, 0, 53, 48
2, 110163, Note_on_c, 0, 53, 0
2, 110163, Note_on_c, 0, 74, 0
2, 110343, Note_on_c, 0, 79, 68
2, 110348, Note_on_c, 0, 52, 47
2, 110431, Note_on_c, 0, 82, 0
2, 110580, Note_on_c, 0, 61, 53
2, 110584, Note_on_c, 0, 81, 75
2, 110620, Note_on_c, 0, 62, 0
2, 110829, Note_on_c, 0, 82, 84
2, 110837, Note_on_c, 0, 52, 0
2, 110847, Note_on_c, 0, 62, 60
2, 110856, Note_on_c, 0, 61, 0
2, 110866, Note_on_c, 0, 79, 0
2, 110932, Note_on_c, 0, 81, 0
2, 110976, Control_c, 0, 64, 39
2, 111000, Control_c, 0, 64, 37
2, 111019, Control_c, 0, 64, 35
2, 111037, Control_c, 0, 64, 34
2, 111055, Control_c, 0, 64, 35
2, 111064, Note_on_c, 0, 79, 74
2, 111073, Control_c, 0, 64, 42
2, 111078, Note_on_c, 0, 50, 56
2, 111093, Control_c, 0, 64, 54
2, 111113, Control_c, 0, 64, 61
2, 111117, Note_on_c, 0, 82, 0
2, 111132, Control_c, 0, 64, 63
2, 111140, Note_on_c, 0, 50, 0
2, 111153, Control_c, 0, 64, 64
2, 111169, Control_c, 0, 64, 67
2, 111189, Control_c, 0, 64, 73
2, 111209, Control_c, 0, 64, 80
2, 111226, Control_c, 0, 64, 85
2, 111246, Control_c, 0, 64, 86
2, 111269, Control_c, 0, 64, 85
2, 111284, Control_c, 0, 64, 83
2, 111306, Control_c, 0, 64, 81
2, 111313, Note_on_c, 0, 62, 0
2, 111322, Control_c, 0, 64, 80
2, 111331, Note_on_c, 0, 49, 54
2, 111345, Control_c, 0, 64, 78
2, 111345, Note_on_c, 0, 81, 73
2, 111353, Note_on_c, 0, 79, 0
2, 111362, Control_c, 0, 64, 75
2, 111381, Control_c, 0, 64, 70
2, 111398, Control_c, 0, 64, 66
2, 111421, Control_c, 0, 64, 62
2, 111438, Control_c, 0, 64, 60
2, 111457, Control_c, 0, 64, 58
2, 111478, Control_c, 0, 64, 57
2, 111498, Control_c, 0, 64, 56
2, 111515, Control_c, 0, 64, 55
2, 111537, Control_c, 0, 64, 54
2, 111554, Control_c, 0, 64, 53
2, 111576, Control_c, 0, 64, 52
2, 111593, Control_c, 0, 64, 51
2, 111617, Note_on_c, 0, 79, 68
2, 111621, Note_on_c, 0, 57, 47
2, 111632, Control_c, 0, 64, 50
2, 111683, Note_on_c, 0, 49, 0
2, 111783, Control_c, 0, 64, 49
2, 111849, Note_on_c, 0, 77, 73
2, 111851, Note_on_c, 0, 59, 56
2, 111877, Note_on_c, 0, 57, 0
2, 112032, Note_on_c, 0, 79, 0
2, 112055, Note_on_c, 0, 59, 0
2, 112090, Note_on_c, 0, 61, 56
2, 112090, Note_on_c, 0, 76, 73
2, 112107, Note_on_c, 0, 77, 0
2, 112207, Note_on_c, 0, 81, 0
2, 112273, Note_on_c, 0, 61, 0
2, 112341, Note_on_c, 0, 62, 52
2, 112341, Note_on_c, 0, 77, 71
2, 112383, Control_c, 0, 64, 48
2, 112383, Note_on_c, 0, 76, 0
2, 112475, Control_c, 0, 64, 47
2, 112484, Note_on_c, 0, 62, 0
2, 112513, Control_c, 0, 64, 46
2, 112533, Control_c, 0, 64, 45
2, 112551, Control_c, 0, 64, 44
2, 112571, Control_c, 0, 64, 43
2, 112593, Control_c, 0, 64, 42
2, 112593, Note_on_c, 0, 57, 57
2, 112611, Control_c, 0, 64, 41
2, 112628, Control_c, 0, 64, 39
2, 112648, Control_c, 0, 64, 38
2, 112666, Control_c, 0, 64, 37
2, 112686, Control_c, 0, 64, 36
2, 112724, Control_c, 0, 64, 35
2, 112825, Note_on_c, 0, 50, 65
2, 112834, Note_on_c, 0, 57, 0
2, 112974, Control_c, 0, 64, 36
2, 112994, Control_c, 0, 64, 37
2, 113014, Control_c, 0, 64, 39
2, 113031, Control_c, 0, 64, 43
2, 113051, Control_c, 0, 64, 47
2, 113060, Note_on_c, 0, 50, 0
2, 113060, Note_on_c, 0, 53, 66
2, 113068, Note_on_c, 0, 80, 77
2, 113072, Control_c, 0, 64, 51
2, 113089, Control_c, 0, 64, 56
2, 113108, Control_c, 0, 64, 58
2, 113130, Control_c, 0, 64, 60
2, 113147, Control_c, 0, 64, 61
2, 113166, Control_c, 0, 64, 62
2, 113204, Control_c, 0, 64, 63
2, 113244, Control_c, 0, 64, 62
2, 113293, Note_on_c, 0, 80, 0
2, 113322, Note_on_c, 0, 53, 0
2, 113327, Note_on_c, 0, 77, 0
2, 113337, Note_on_c, 0, 47, 55
2, 113350, Note_on_c, 0, 79, 71
2, 113359, Control_c, 0, 64, 61
2, 113379, Control_c, 0, 64, 60
2, 113398, Control_c, 0, 64, 59
2, 113416, Control_c, 0, 64, 58
2, 113453, Control_c, 0, 64, 56
2, 113474, Control_c, 0, 64, 55
2, 113491, Control_c, 0, 64, 53
2, 113514, Control_c, 0, 64, 51
2, 113531, Control_c, 0, 64, 50
2, 113551, Control_c, 0, 64, 49
2, 113553, Note_on_c, 0, 47, 0
2, 113589, Control_c, 0, 64, 48
2, 113610, Note_on_c, 0, 55, 52
2, 113629, Control_c, 0, 64, 47
2, 113629, Note_on_c, 0, 77, 66
2, 113650, Control_c, 0, 64, 46
2, 113762, Control_c, 0, 64, 45
2, 113830, Note_on_c, 0, 55, 0
2, 113861, Note_on_c, 0, 57, 67
2, 113866, Note_on_c, 0, 76, 69
2, 113992, Control_c, 0, 64, 44
2, 114034, Note_on_c, 0, 77, 0
2, 114072, Note_on_c, 0, 57, 0
2, 114087, Note_on_c, 0, 59, 61
2, 114094, Note_on_c, 0, 74, 67
2, 114094, Note_on_c, 0, 76, 0
2, 114281, Note_on_c, 0, 59, 0
2, 114336, Note_on_c, 0, 76, 68
2, 114349, Note_on_c, 0, 60, 53
2, 114382, Note_on_c, 0, 74, 0
2, 114395, Note_on_c, 0, 79, 0
2, 114549, Note_on_c, 0, 60, 0
2, 114574, Note_on_c, 0, 55, 61
2, 114683, Control_c, 0, 64, 43
2, 114811, Note_on_c, 0, 48, 63
2, 114829, Note_on_c, 0, 55, 0
2, 115045, Note_on_c, 0, 48, 0
2, 115050, Note_on_c, 0, 52, 66
2, 115054, Note_on_c, 0, 79, 79
2, 115105, Note_on_c, 0, 76, 0
2, 115313, Note_on_c, 0, 45, 59
2, 115332, Note_on_c, 0, 52, 0
2, 115337, Note_on_c, 0, 78, 70
2, 115588, Note_on_c, 0, 75, 71
2, 115686, Note_on_c, 0, 79, 0
2, 115719, Control_c, 0, 64, 42
2, 115828, Note_on_c, 0, 57, 63
2, 115831, Note_on_c, 0, 74, 66
2, 115862, Note_on_c, 0, 75, 0
2, 115933, Note_on_c, 0, 45, 0
2, 116065, Note_on_c, 0, 72, 66
2, 116097, Note_on_c, 0, 74, 0
2, 116294, Note_on_c, 0, 74, 67
2, 116314, Note_on_c, 0, 47, 49
2, 116314, Note_on_c, 0, 72, 0
2, 116368, Note_on_c, 0, 78, 0
2, 116546, Note_on_c, 0, 76, 82
2, 116550, Note_on_c, 0, 55, 51
2, 116696, Note_on_c, 0, 57, 0
2, 116804, Note_on_c, 0, 55, 0
2, 116817, Note_on_c, 0, 50, 50
2, 116817, Note_on_c, 0, 77, 81
2, 116831, Note_on_c, 0, 67, 58
2, 116856, Note_on_c, 0, 47, 0
2, 116908, Note_on_c, 0, 74, 0
2, 116912, Note_on_c, 0, 76, 0
2, 116988, Control_c, 0, 64, 43
2, 117006, Control_c, 0, 64, 44
2, 117025, Control_c, 0, 64, 47
2, 117044, Control_c, 0, 64, 50
2, 117060, Note_on_c, 0, 53, 67
2, 117067, Control_c, 0, 64, 54
2, 117081, Control_c, 0, 64, 56
2, 117104, Control_c, 0, 64, 58
2, 117108, Note_on_c, 0, 50, 0
2, 117122, Control_c, 0, 64, 60
2, 117141, Control_c, 0, 64, 61
2, 117163, Control_c, 0, 64, 62
2, 117182, Control_c, 0, 64, 63
2, 117218, Control_c, 0, 64, 64
2, 117327, Note_on_c, 0, 48, 56
2, 117327, Note_on_c, 0, 52, 64
2, 117350, Control_c, 0, 64, 63
2, 117364, Note_on_c, 0, 53, 0
2, 117373, Note_on_c, 0, 77, 0
2, 117410, Control_c, 0, 64, 62
2, 117428, Control_c, 0, 64, 61
2, 117448, Control_c, 0, 64, 59
2, 117466, Control_c, 0, 64, 58
2, 117486, Control_c, 0, 64, 56
2, 117504, Control_c, 0, 64, 54
2, 117524, Control_c, 0, 64, 51
2, 117544, Control_c, 0, 64, 49
2, 117565, Control_c, 0, 64, 47
2, 117583, Control_c, 0, 64, 45
2, 117590, Note_on_c, 0, 53, 73
2, 117605, Control_c, 0, 64, 44
2, 117622, Control_c, 0, 64, 43
2, 117640, Control_c, 0, 64, 41
2, 117656, Note_on_c, 0, 52, 0
2, 117660, Control_c, 0, 64, 40
2, 117679, Control_c, 0, 64, 39
2, 117717, Control_c, 0, 64, 38
2, 117737, Control_c, 0, 64, 37
2, 117775, Control_c, 0, 64, 36
2, 117812, Control_c, 0, 64, 35
2, 117834, Note_on_c, 0, 76, 79
2, 117841, Note_on_c, 0, 55, 63
2, 117841, Note_on_c, 0, 72, 76
2, 117870, Control_c, 0, 64, 34
2, 117874, Note_on_c, 0, 53, 0
2, 117928, Control_c, 0, 64, 33
2, 117972, Note_on_c, 0, 67, 0
2, 118081, Note_on_c, 0, 71, 79
2, 118086, Note_on_c, 0, 74, 78
2, 118128, Note_on_c, 0, 76, 0
2, 118142, Note_on_c, 0, 72, 0
2, 118356, Note_on_c, 0, 72, 84
2, 118356, Note_on_c, 0, 76, 83
2, 118394, Note_on_c, 0, 74, 0
2, 118409, Control_c, 0, 64, 34
2, 118469, Note_on_c, 0, 71, 0
2, 118613, Note_on_c, 0, 52, 76
2, 118622, Note_on_c, 0, 48, 0
2, 118864, Note_on_c, 0, 45, 73
2, 118868, Note_on_c, 0, 70, 72
2, 118907, Control_c, 0, 64, 33
2, 118911, Note_on_c, 0, 52, 0
2, 118925, Control_c, 0, 64, 32
2, 118942, Control_c, 0, 64, 30
2, 118962, Control_c, 0, 64, 28
2, 118975, Note_on_c, 0, 72, 0
2, 118982, Control_c, 0, 64, 23
2, 119002, Control_c, 0, 64, 16
2, 119023, Control_c, 0, 64, 0
2, 119077, Control_c, 0, 64, 9
2, 119097, Control_c, 0, 64, 23
2, 119117, Control_c, 0, 64, 36
2, 119135, Control_c, 0, 64, 46
2, 119146, Note_on_c, 0, 48, 76
2, 119155, Control_c, 0, 64, 54
2, 119174, Control_c, 0, 64, 58
2, 119189, Note_on_c, 0, 45, 0
2, 119193, Control_c, 0, 64, 60
2, 119211, Control_c, 0, 64, 62
2, 119231, Control_c, 0, 64, 63
2, 119247, Note_on_c, 0, 55, 0
2, 119252, Control_c, 0, 64, 65
2, 119271, Control_c, 0, 64, 66
2, 119289, Control_c, 0, 64, 69
2, 119309, Control_c, 0, 64, 70
2, 119327, Control_c, 0, 64, 71
2, 119347, Control_c, 0, 64, 70
2, 119383, Control_c, 0, 64, 69
2, 119424, Control_c, 0, 64, 67
2, 119444, Control_c, 0, 64, 65
2, 119450, Note_on_c, 0, 41, 77
2, 119462, Control_c, 0, 64, 62
2, 119478, Note_on_c, 0, 69, 73
2, 119482, Control_c, 0, 64, 58
2, 119500, Control_c, 0, 64, 55
2, 119508, Note_on_c, 0, 48, 0
2, 119516, Note_on_c, 0, 70, 0
2, 119520, Control_c, 0, 64, 52
2, 119529, Note_on_c, 0, 76, 0
2, 119540, Control_c, 0, 64, 49
2, 119557, Control_c, 0, 64, 46
2, 119577, Control_c, 0, 64, 42
2, 119599, Control_c, 0, 64, 39
2, 119615, Control_c, 0, 64, 36
2, 119635, Control_c, 0, 64, 34
2, 119655, Control_c, 0, 64, 32
2, 119674, Control_c, 0, 64, 30
2, 119692, Control_c, 0, 64, 27
2, 119712, Control_c, 0, 64, 23
2, 119730, Control_c, 0, 64, 20
2, 119750, Control_c, 0, 64, 18
2, 119789, Note_on_c, 0, 76, 80
2, 119794, Control_c, 0, 64, 16
2, 119798, Note_on_c, 0, 48, 65
2, 119807, Control_c, 0, 64, 15
2, 119827, Control_c, 0, 64, 14
2, 119883, Control_c, 0, 64, 18
2, 119903, Control_c, 0, 64, 27
2, 119922, Control_c, 0, 64, 38
2, 119943, Control_c, 0, 64, 46
2, 119960, Control_c, 0, 64, 52
2, 119979, Control_c, 0, 64, 56
2, 120001, Control_c, 0, 64, 58
2, 120019, Control_c, 0, 64, 59
2, 120039, Control_c, 0, 64, 61
2, 120039, Note_on_c, 0, 50, 68
2, 120045, Note_on_c, 0, 74, 78
2, 120056, Control_c, 0, 64, 62
2, 120077, Control_c, 0, 64, 63
2, 120132, Control_c, 0, 64, 64
2, 120139, Note_on_c, 0, 76, 0
2, 120157, Control_c, 0, 64, 63
2, 120211, Note_on_c, 0, 41, 0
2, 120218, Note_on_c, 0, 48, 0
2, 120248, Control_c, 0, 64, 62
2, 120286, Note_on_c, 0, 72, 86
2, 120291, Control_c, 0, 64, 61
2, 120295, Note_on_c, 0, 52, 78
2, 120304, Note_on_c, 0, 50, 0
2, 120315, Note_on_c, 0, 69, 0
2, 120340, Note_on_c, 0, 74, 0
2, 120346, Control_c, 0, 64, 60
2, 120367, Control_c, 0, 64, 59
2, 120384, Control_c, 0, 64, 57
2, 120402, Control_c, 0, 64, 56
2, 120442, Control_c, 0, 64, 55
2, 120460, Control_c, 0, 64, 54
2, 120478, Control_c, 0, 64, 53
2, 120497, Control_c, 0, 64, 51
2, 120517, Control_c, 0, 64, 49
2, 120539, Note_on_c, 0, 74, 81
2, 120544, Control_c, 0, 64, 47
2, 120544, Note_on_c, 0, 53, 75
2, 120555, Control_c, 0, 64, 45
2, 120569, Note_on_c, 0, 52, 0
2, 120578, Control_c, 0, 64, 44
2, 120596, Control_c, 0, 64, 42
2, 120613, Control_c, 0, 64, 41
2, 120633, Control_c, 0, 64, 40
2, 120653, Control_c, 0, 64, 39
2, 120749, Control_c, 0, 64, 38
2, 120777, Note_on_c, 0, 77, 81
2, 120786, Note_on_c, 0, 72, 0
2, 120790, Control_c, 0, 64, 37
2, 120799, Note_on_c, 0, 57, 70
2, 120872, Note_on_c, 0, 57, 0
2, 120884, Control_c, 0, 64, 36
2, 120937, Note_on_c, 0, 77, 0
2, 120941, Control_c, 0, 64, 35
2, 120958, Control_c, 0, 64, 34
2, 120981, Control_c, 0, 64, 33
2, 120996, Control_c, 0, 64, 32
2, 121018, Control_c, 0, 64, 30
2, 121037, Control_c, 0, 64, 28
2, 121056, Control_c, 0, 64, 26
2, 121061, Note_on_c, 0, 81, 81
2, 121065, Note_on_c, 0, 62, 72
2, 121078, Control_c, 0, 64, 25
2, 121088, Note_on_c, 0, 74, 0
2, 121115, Control_c, 0, 64, 29
2, 121131, Control_c, 0, 64, 38
2, 121152, Control_c, 0, 64, 47
2, 121173, Control_c, 0, 64, 54
2, 121191, Control_c, 0, 64, 58
2, 121209, Control_c, 0, 64, 60
2, 121228, Control_c, 0, 64, 62
2, 121248, Control_c, 0, 64, 64
2, 121267, Control_c, 0, 64, 67
2, 121285, Control_c, 0, 64, 73
2, 121305, Control_c, 0, 64, 84
2, 121309, Note_on_c, 0, 69, 73
2, 121314, Note_on_c, 0, 72, 83
2, 121326, Control_c, 0, 64, 99
2, 121347, Control_c, 0, 64, 127
2, 121409, Note_on_c, 0, 69, 0
2, 121422, Note_on_c, 0, 72, 0
2, 121639, Note_on_c, 0, 71, 80
2, 121646, Note_on_c, 0, 67, 74
2, 121653, Control_c, 0, 64, 95
2, 121670, Control_c, 0, 64, 83
2, 121689, Control_c, 0, 64, 78
2, 121706, Control_c, 0, 64, 76
2, 121726, Control_c, 0, 64, 74
2, 121749, Control_c, 0, 64, 70
2, 121766, Control_c, 0, 64, 65
2, 121784, Control_c, 0, 64, 60
2, 121792, Note_on_c, 0, 81, 0
2, 121806, Control_c, 0, 64, 57
2, 121879, Control_c, 0, 64, 56
2, 121921, Control_c, 0, 64, 55
2, 121968, Note_on_c, 0, 57, 75
2, 122024, Note_on_c, 0, 53, 0
2, 122035, Control_c, 0, 64, 54
2, 122230, Note_on_c, 0, 55, 76
2, 122283, Note_on_c, 0, 57, 0
2, 122368, Note_on_c, 0, 67, 0
2, 122440, Note_on_c, 0, 62, 0
2, 122465, Note_on_c, 0, 53, 72
2, 122490, Note_on_c, 0, 55, 0
2, 122573, Control_c, 0, 64, 53
2, 122718, Note_on_c, 0, 52, 70
2, 122722, Note_on_c, 0, 64, 73
2, 122722, Note_on_c, 0, 72, 80
2, 122727, Control_c, 0, 64, 52
2, 122729, Note_on_c, 0, 67, 70
2, 122776, Note_on_c, 0, 53, 0
2, 122776, Note_on_c, 0, 71, 0
2, 122803, Control_c, 0, 64, 51
2, 122841, Control_c, 0, 64, 50
2, 122878, Control_c, 0, 64, 49
2, 122938, Control_c, 0, 64, 50
2, 122949, Note_on_c, 0, 52, 0
2, 122955, Control_c, 0, 64, 54
2, 122978, Control_c, 0, 64, 58
2, 122990, Note_on_c, 0, 55, 73
2, 122997, Control_c, 0, 64, 60
2, 123017, Control_c, 0, 64, 62
2, 123033, Control_c, 0, 64, 64
2, 123053, Control_c, 0, 64, 65
2, 123075, Control_c, 0, 64, 68
2, 123092, Control_c, 0, 64, 70
2, 123110, Control_c, 0, 64, 71
2, 123130, Control_c, 0, 64, 72
2, 123150, Control_c, 0, 64, 71
2, 123208, Control_c, 0, 64, 70
2, 123226, Control_c, 0, 64, 69
2, 123235, Note_on_c, 0, 48, 75
2, 123249, Control_c, 0, 64, 67
2, 123249, Note_on_c, 0, 55, 0
2, 123268, Control_c, 0, 64, 64
2, 123286, Control_c, 0, 64, 59
2, 123302, Control_c, 0, 64, 54
2, 123321, Control_c, 0, 64, 49
2, 123341, Control_c, 0, 64, 46
2, 123362, Control_c, 0, 64, 44
2, 123399, Control_c, 0, 64, 48
2, 123420, Control_c, 0, 64, 56
2, 123439, Control_c, 0, 64, 62
2, 123444, Note_on_c, 0, 64, 0
2, 123457, Control_c, 0, 64, 63
2, 123477, Control_c, 0, 64, 65
2, 123494, Control_c, 0, 64, 69
2, 123501, Note_on_c, 0, 52, 77
2, 123514, Note_on_c, 0, 48, 0
2, 123514, Note_on_c, 0, 67, 0
2, 123520, Control_c, 0, 64, 77
2, 123534, Control_c, 0, 64, 98
2, 123554, Control_c, 0, 64, 127
2, 123747, Note_on_c, 0, 52, 0
2, 123804, Control_c, 0, 64, 103
2, 123810, Note_on_c, 0, 43, 82
2, 123822, Control_c, 0, 64, 90
2, 123841, Control_c, 0, 64, 77
2, 123860, Control_c, 0, 64, 68
2, 123879, Control_c, 0, 64, 62
2, 123898, Control_c, 0, 64, 57
2, 123920, Control_c, 0, 64, 54
2, 123937, Control_c, 0, 64, 53
2, 123957, Control_c, 0, 64, 51
2, 123974, Control_c, 0, 64, 49
2, 123994, Control_c, 0, 64, 47
2, 124013, Control_c, 0, 64, 45
2, 124033, Control_c, 0, 64, 44
2, 124073, Control_c, 0, 64, 43
2, 124133, Note_on_c, 0, 67, 70
2, 124144, Note_on_c, 0, 52, 62
2, 124394, Note_on_c, 0, 65, 68
2, 124399, Note_on_c, 0, 50, 67
2, 124436, Control_c, 0, 64, 42
2, 124492, Note_on_c, 0, 52, 0
2, 124595, Note_on_c, 0, 67, 0
2, 124628, Control_c, 0, 64, 41
2, 124637, Note_on_c, 0, 64, 77
2, 124639, Note_on_c, 0, 48, 71
2, 124665, Note_on_c, 0, 50, 0
2, 124682, Note_on_c, 0, 65, 0
2, 124821, Control_c, 0, 64, 40
2, 124926, Note_on_c, 0, 55, 69
2, 124926, Note_on_c, 0, 62, 75
2, 124951, Note_on_c, 0, 64, 0
2, 124955, Control_c, 0, 64, 39
2, 125004, Note_on_c, 0, 48, 0
2, 125203, Note_on_c, 0, 64, 78
2, 125208, Note_on_c, 0, 62, 0
2, 125243, Control_c, 0, 64, 41
2, 125261, Control_c, 0, 64, 43
2, 125280, Control_c, 0, 64, 45
2, 125300, Control_c, 0, 64, 46
2, 125321, Control_c, 0, 64, 47
2, 125338, Control_c, 0, 64, 48
2, 125360, Control_c, 0, 64, 49
2, 125397, Control_c, 0, 64, 50
2, 125434, Control_c, 0, 64, 51
2, 125456, Control_c, 0, 64, 52
2, 125473, Control_c, 0, 64, 53
2, 125493, Note_on_c, 0, 65, 76
2, 125511, Control_c, 0, 64, 54
2, 125532, Control_c, 0, 64, 55
2, 125550, Control_c, 0, 64, 57
2, 125559, Note_on_c, 0, 72, 0
2, 125563, Note_on_c, 0, 64, 0
2, 125568, Control_c, 0, 64, 58
2, 125588, Control_c, 0, 64, 59
2, 125608, Control_c, 0, 64, 60
2, 125626, Control_c, 0, 64, 61
2, 125665, Control_c, 0, 64, 62
2, 125687, Control_c, 0, 64, 63
2, 125725, Control_c, 0, 64, 64
2, 125781, Note_on_c, 0, 71, 84
2, 125801, Control_c, 0, 64, 65
2, 125972, Control_c, 0, 64, 64
2, 126109, Control_c, 0, 64, 63
2, 126164, Control_c, 0, 64, 62
2, 126164, Note_on_c, 0, 72, 84
2, 126182, Control_c, 0, 64, 60
2, 126188, Note_on_c, 0, 48, 56
2, 126204, Control_c, 0, 64, 58
2, 126213, Note_on_c, 0, 71, 0
2, 126218, Note_on_c, 0, 65, 0
2, 126222, Control_c, 0, 64, 56
2, 126227, Note_on_c, 0, 43, 0
2, 126242, Control_c, 0, 64, 54
2, 126260, Control_c, 0, 64, 53
2, 126280, Control_c, 0, 64, 52
2, 126299, Control_c, 0, 64, 51
2, 126317, Control_c, 0, 64, 50
2, 126337, Control_c, 0, 64, 49
2, 126374, Control_c, 0, 64, 48
2, 126414, Control_c, 0, 64, 47
2, 126503, Note_on_c, 0, 65, 60
2, 126512, Control_c, 0, 64, 46
2, 126763, Note_on_c, 0, 64, 74
2, 126779, Control_c, 0, 64, 45
2, 126799, Note_on_c, 0, 65, 0
2, 126996, Note_on_c, 0, 62, 79
2, 127027, Note_on_c, 0, 64, 0
2, 127268, Note_on_c, 0, 64, 80
2, 127294, Note_on_c, 0, 62, 0
2, 127535, Note_on_c, 0, 67, 68
2, 127548, Note_on_c, 0, 64, 0
2, 127626, Control_c, 0, 64, 44
2, 127786, Note_on_c, 0, 60, 64
2, 127825, Note_on_c, 0, 67, 0
2, 128048, Note_on_c, 0, 64, 66
2, 128098, Note_on_c, 0, 60, 0
2, 128284, Note_on_c, 0, 64, 0
2, 128315, Note_on_c, 0, 72, 0
2, 128324, Note_on_c, 0, 57, 64
2, 128376, Note_on_c, 0, 55, 0
2, 128572, Note_on_c, 0, 72, 83
2, 128821, Note_on_c, 0, 74, 78
2, 128830, Note_on_c, 0, 53, 55
2, 128907, Note_on_c, 0, 72, 0
2, 128927, Note_on_c, 0, 57, 0
2, 129065, Note_on_c, 0, 76, 86
2, 129079, Note_on_c, 0, 52, 57
2, 129108, Note_on_c, 0, 53, 0
2, 129343, Note_on_c, 0, 77, 76
2, 129354, Note_on_c, 0, 50, 49
2, 129356, Note_on_c, 0, 52, 0
2, 129389, Note_on_c, 0, 74, 0
2, 129440, Note_on_c, 0, 76, 0
2, 129601, Note_on_c, 0, 52, 55
2, 129604, Note_on_c, 0, 81, 74
2, 129668, Note_on_c, 0, 77, 0
2, 129842, Note_on_c, 0, 52, 0
2, 129855, Note_on_c, 0, 53, 54
2, 129857, Note_on_c, 0, 74, 70
2, 129871, Control_c, 0, 64, 43
2, 129888, Control_c, 0, 64, 42
2, 129904, Note_on_c, 0, 81, 0
2, 129907, Control_c, 0, 64, 40
2, 129929, Control_c, 0, 64, 37
2, 129945, Control_c, 0, 64, 29
2, 129967, Control_c, 0, 64, 9
2, 129986, Control_c, 0, 64, 0
2, 130062, Control_c, 0, 64, 26
2, 130081, Control_c, 0, 64, 47
2, 130101, Control_c, 0, 64, 59
2, 130101, Note_on_c, 0, 77, 76
2, 130116, Note_on_c, 0, 74, 0
2, 130121, Control_c, 0, 64, 63
2, 130141, Control_c, 0, 64, 65
2, 130158, Control_c, 0, 64, 71
2, 130169, Note_on_c, 0, 77, 0
2, 130179, Control_c, 0, 64, 88
2, 130196, Control_c, 0, 64, 127
2, 130415, Note_on_c, 0, 70, 73
2, 130433, Note_on_c, 0, 55, 52
2, 130446, Control_c, 0, 64, 113
2, 130464, Control_c, 0, 64, 93
2, 130473, Note_on_c, 0, 53, 0
2, 130484, Control_c, 0, 64, 78
2, 130503, Control_c, 0, 64, 69
2, 130525, Control_c, 0, 64, 64
2, 130540, Control_c, 0, 64, 62
2, 130560, Control_c, 0, 64, 61
2, 130580, Control_c, 0, 64, 60
2, 130601, Control_c, 0, 64, 58
2, 130619, Control_c, 0, 64, 57
2, 130640, Control_c, 0, 64, 55
2, 130658, Control_c, 0, 64, 53
2, 130677, Control_c, 0, 64, 52
2, 130693, Note_on_c, 0, 69, 51
2, 130717, Control_c, 0, 64, 51
2, 130732, Control_c, 0, 64, 50
2, 130775, Control_c, 0, 64, 49
2, 130809, Control_c, 0, 64, 48
2, 130867, Control_c, 0, 64, 47
2, 130906, Control_c, 0, 64, 46
2, 130937, Note_on_c, 0, 67, 61
2, 130944, Note_on_c, 0, 52, 50
2, 130963, Note_on_c, 0, 50, 0
2, 130984, Control_c, 0, 64, 45
2, 131108, Note_on_c, 0, 69, 0
2, 131117, Control_c, 0, 64, 44
2, 131166, Note_on_c, 0, 52, 0
2, 131179, Note_on_c, 0, 65, 59
2, 131184, Note_on_c, 0, 50, 42
2, 131210, Note_on_c, 0, 67, 0
2, 131241, Note_on_c, 0, 48, 0
2, 131328, Control_c, 0, 64, 43
2, 131444, Note_on_c, 0, 52, 53
2, 131462, Note_on_c, 0, 67, 63
2, 131471, Note_on_c, 0, 50, 0
2, 131487, Note_on_c, 0, 70, 0
2, 131599, Control_c, 0, 64, 42
2, 131635, Note_on_c, 0, 65, 0
2, 131699, Note_on_c, 0, 53, 51
2, 131699, Note_on_c, 0, 70, 65
2, 131708, Note_on_c, 0, 67, 0
2, 131717, Note_on_c, 0, 55, 0
2, 131753, Control_c, 0, 64, 41
2, 131952, Note_on_c, 0, 53, 0
2, 131961, Note_on_c, 0, 64, 59
2, 131974, Note_on_c, 0, 55, 51
2, 132001, Control_c, 0, 64, 40
2, 132040, Control_c, 0, 64, 39
2, 132058, Control_c, 0, 64, 38
2, 132079, Control_c, 0, 64, 36
2, 132095, Note_on_c, 0, 70, 0
2, 132099, Control_c, 0, 64, 34
2, 132114, Control_c, 0, 64, 32
2, 132134, Control_c, 0, 64, 31
2, 132157, Control_c, 0, 64, 32
2, 132175, Control_c, 0, 64, 37
2, 132193, Control_c, 0, 64, 45
2, 132211, Control_c, 0, 64, 54
2, 132219, Note_on_c, 0, 67, 59
2, 132231, Control_c, 0, 64, 60
2, 132240, Note_on_c, 0, 55, 0
2, 132251, Control_c, 0, 64, 62
2, 132269, Control_c, 0, 64, 65
2, 132288, Control_c, 0, 64, 68
2, 132310, Control_c, 0, 64, 75
2, 132327, Control_c, 0, 64, 87
2, 132347, Control_c, 0, 64, 97
2, 132368, Control_c, 0, 64, 100
2, 132368, Note_on_c, 0, 64, 0
2, 132386, Control_c, 0, 64, 99
2, 132403, Control_c, 0, 64, 94
2, 132423, Control_c, 0, 64, 91
2, 132443, Control_c, 0, 64, 88
2, 132463, Note_on_c, 0, 67, 0
2, 132467, Control_c, 0, 64, 86
2, 132481, Control_c, 0, 64, 81
2, 132488, Note_on_c, 0, 53, 47
2, 132492, Note_on_c, 0, 60, 59
2, 132502, Control_c, 0, 64, 74
2, 132502, Note_on_c, 0, 57, 48
2, 132521, Control_c, 0, 64, 64
2, 132538, Control_c, 0, 64, 57
2, 132554, Note_on_c, 0, 52, 0
2, 132558, Control_c, 0, 64, 52
2, 132577, Control_c, 0, 64, 49
2, 132597, Control_c, 0, 64, 46
2, 132615, Control_c, 0, 64, 42
2, 132637, Control_c, 0, 64, 37
2, 132655, Control_c, 0, 64, 36
2, 132675, Control_c, 0, 64, 41
2, 132692, Control_c, 0, 64, 53
2, 132709, Control_c, 0, 64, 61
2, 132730, Control_c, 0, 64, 64
2, 132753, Control_c, 0, 64, 67
2, 132753, Note_on_c, 0, 57, 0
2, 132758, Note_on_c, 0, 64, 60
2, 132769, Control_c, 0, 64, 74
2, 132789, Control_c, 0, 64, 94
2, 132798, Note_on_c, 0, 60, 0
2, 132811, Control_c, 0, 64, 127
2, 132981, Control_c, 0, 64, 120
2, 132998, Control_c, 0, 64, 89
2, 133014, Note_on_c, 0, 65, 66
2, 133018, Control_c, 0, 64, 74
2, 133027, Note_on_c, 0, 52, 55
2, 133032, Note_on_c, 0, 55, 47
2, 133038, Control_c, 0, 64, 64
2, 133056, Control_c, 0, 64, 58
2, 133063, Note_on_c, 0, 53, 0
2, 133078, Control_c, 0, 64, 54
2, 133095, Control_c, 0, 64, 51
2, 133113, Control_c, 0, 64, 48
2, 133133, Control_c, 0, 64, 44
2, 133151, Control_c, 0, 64, 39
2, 133173, Control_c, 0, 64, 36
2, 133188, Note_on_c, 0, 64, 0
2, 133193, Control_c, 0, 64, 35
2, 133210, Control_c, 0, 64, 37
2, 133229, Control_c, 0, 64, 43
2, 133249, Control_c, 0, 64, 53
2, 133268, Control_c, 0, 64, 59
2, 133278, Note_on_c, 0, 67, 72
2, 133287, Control_c, 0, 64, 62
2, 133305, Control_c, 0, 64, 64
2, 133330, Control_c, 0, 64, 66
2, 133330, Note_on_c, 0, 65, 0
2, 133348, Control_c, 0, 64, 71
2, 133364, Control_c, 0, 64, 80
2, 133384, Control_c, 0, 64, 93
2, 133402, Control_c, 0, 64, 103
2, 133425, Control_c, 0, 64, 104
2, 133440, Control_c, 0, 64, 103
2, 133459, Control_c, 0, 64, 98
2, 133480, Control_c, 0, 64, 93
2, 133495, Note_on_c, 0, 55, 0
2, 133499, Control_c, 0, 64, 90
2, 133516, Control_c, 0, 64, 86
2, 133536, Control_c, 0, 64, 80
2, 133558, Control_c, 0, 64, 71
2, 133576, Control_c, 0, 64, 64
2, 133596, Control_c, 0, 64, 57
2, 133596, Note_on_c, 0, 52, 0
2, 133606, Note_on_c, 0, 50, 46
2, 133606, Note_on_c, 0, 69, 65
2, 133613, Control_c, 0, 64, 52
2, 133613, Note_on_c, 0, 53, 48
2, 133633, Control_c, 0, 64, 48
2, 133653, Control_c, 0, 64, 42
2, 133658, Note_on_c, 0, 67, 0
2, 133672, Control_c, 0, 64, 34
2, 133691, Control_c, 0, 64, 24
2, 133709, Control_c, 0, 64, 20
2, 133749, Control_c, 0, 64, 23
2, 133767, Control_c, 0, 64, 33
2, 133785, Control_c, 0, 64, 46
2, 133805, Control_c, 0, 64, 55
2, 133826, Control_c, 0, 64, 58
2, 133844, Control_c, 0, 64, 59
2, 133864, Control_c, 0, 64, 60
2, 133882, Control_c, 0, 64, 62
2, 133902, Control_c, 0, 64, 63
2, 133929, Note_on_c, 0, 65, 51
2, 133978, Control_c, 0, 64, 64
2, 134094, Control_c, 0, 64, 63
2, 134133, Control_c, 0, 64, 62
2, 134151, Control_c, 0, 64, 60
2, 134173, Control_c, 0, 64, 56
2, 134189, Control_c, 0, 64, 51
2, 134209, Control_c, 0, 64, 43
2, 134227, Control_c, 0, 64, 29
2, 134249, Control_c, 0, 64, 0
2, 134281, Note_on_c, 0, 56, 47
2, 134285, Note_on_c, 0, 62, 52
2, 134333, Note_on_c, 0, 69, 0
2, 134458, Control_c, 0, 64, 36
2, 134479, Control_c, 0, 64, 60
2, 134497, Control_c, 0, 64, 68
2, 134517, Control_c, 0, 64, 74
2, 134535, Control_c, 0, 64, 84
2, 134554, Control_c, 0, 64, 102
2, 134575, Control_c, 0, 64, 127
2, 134622, Note_on_c, 0, 56, 0
2, 134644, Note_on_c, 0, 71, 63
2, 134716, Note_on_c, 0, 65, 0
2, 134740, Note_on_c, 0, 53, 0
2, 134759, Note_on_c, 0, 62, 0
2, 134759, Note_on_c, 0, 71, 0
2, 134803, Note_on_c, 0, 50, 0
2, 135197, Note_on_c, 0, 67, 51
2, 135201, Note_on_c, 0, 72, 62
2, 135208, Note_on_c, 0, 64, 47
2, 135227, Control_c, 0, 64, 101
2, 135232, Note_on_c, 0, 60, 35
2, 135239, Note_on_c, 0, 55, 28
2, 135245, Note_on_c, 0, 48, 30
2, 135250, Control_c, 0, 64, 82
2, 135258, Note_on_c, 0, 52, 26
2, 135265, Control_c, 0, 64, 68
2, 135283, Control_c, 0, 64, 60
2, 135302, Control_c, 0, 64, 53
2, 135324, Control_c, 0, 64, 47
2, 135342, Control_c, 0, 64, 45
2, 135361, Control_c, 0, 64, 43
2, 135380, Control_c, 0, 64, 42
2, 135400, Control_c, 0, 64, 38
2, 135422, Control_c, 0, 64, 35
2, 135439, Control_c, 0, 64, 34
2, 135457, Control_c, 0, 64, 33
2, 135476, Control_c, 0, 64, 32
2, 135629, Control_c, 0, 64, 33
2, 135707, Control_c, 0, 64, 34
2, 135743, Control_c, 0, 64, 35
2, 135938, Control_c, 0, 64, 36
2, 136433, Control_c, 0, 64, 37
2, 136741, Control_c, 0, 64, 38
2, 136933, Control_c, 0, 64, 39
2, 137028, Control_c, 0, 64, 40
2, 137124, Control_c, 0, 64, 41
2, 137184, Control_c, 0, 64, 42
2, 138567, Note_on_c, 0, 60, 0
2, 138573, Note_on_c, 0, 55, 0
2, 138578, Note_on_c, 0, 48, 0
2, 138595, Note_on_c, 0, 52, 0
2, 138600, Note_on_c, 0, 64, 0
2, 138608, Note_on_c, 0, 72, 0
2, 138615, Note_on_c, 0, 67, 0
2, 139372, Control_c, 0, 64, 43
2, 139449, Control_c, 0, 64, 44
2, 141013, Note_on_c, 0, 67, 76
2, 141101, Note_on_c, 0, 65, 76
2, 141101, Note_on_c, 0, 67, 0
2, 141177, Control_c, 0, 64, 43
2, 141197, Control_c, 0, 64, 42
2, 141205, Note_on_c, 0, 67, 91
2, 141214, Control_c, 0, 64, 41
2, 141218, Note_on_c, 0, 65, 0
2, 141234, Control_c, 0, 64, 39
2, 141243, Note_on_c, 0, 67, 0
2, 141254, Control_c, 0, 64, 35
2, 141272, Control_c, 0, 64, 28
2, 141290, Control_c, 0, 64, 13
2, 141312, Control_c, 0, 64, 0
2, 141458, Note_on_c, 0, 60, 79
2, 141487, Note_on_c, 0, 60, 0
2, 141735, Note_on_c, 0, 69, 76
2, 141782, Note_on_c, 0, 69, 0
2, 141786, Note_on_c, 0, 67, 85
2, 141844, Note_on_c, 0, 69, 76
2, 141858, Note_on_c, 0, 67, 0
2, 142332, Note_on_c, 0, 67, 72
2, 142359, Note_on_c, 0, 69, 0
2, 142559, Control_c, 0, 64, 9
2, 142579, Control_c, 0, 64, 10
2, 142635, Control_c, 0, 64, 11
2, 142750, Control_c, 0, 64, 13
2, 143019, Control_c, 0, 64, 15
2, 143066, Note_on_c, 0, 67, 0
2, 143081, Note_on_c, 0, 65, 61
2, 143152, Note_on_c, 0, 65, 0
2, 143188, Note_on_c, 0, 64, 69
2, 143296, Note_on_c, 0, 64, 0
2, 143309, Note_on_c, 0, 65, 69
2, 143375, Note_on_c, 0, 65, 0
2, 143426, Note_on_c, 0, 67, 71
2, 143464, Control_c, 0, 64, 16
2, 143535, Note_on_c, 0, 67, 0
2, 143552, Note_on_c, 0, 64, 66
2, 143614, Note_on_c, 0, 64, 0
2, 143665, Note_on_c, 0, 65, 64
2, 143725, Note_on_c, 0, 65, 0
2, 143788, Note_on_c, 0, 62, 67
2, 143858, Note_on_c, 0, 62, 0
2, 143890, Note_on_c, 0, 65, 72
2, 143962, Note_on_c, 0, 65, 0
2, 144023, Note_on_c, 0, 64, 76
2, 144122, Note_on_c, 0, 64, 0
2, 144129, Note_on_c, 0, 65, 71
2, 144173, Control_c, 0, 64, 17
2, 144205, Note_on_c, 0, 65, 0
2, 144265, Note_on_c, 0, 67, 78
2, 144365, Note_on_c, 0, 67, 0
2, 144369, Note_on_c, 0, 69, 72
2, 144454, Note_on_c, 0, 69, 0
2, 144478, Note_on_c, 0, 65, 73
2, 144548, Note_on_c, 0, 65, 0
2, 144612, Note_on_c, 0, 67, 73
2, 144716, Note_on_c, 0, 67, 0
2, 144728, Note_on_c, 0, 64, 74
2, 144828, Note_on_c, 0, 64, 0
2, 144846, Note_on_c, 0, 62, 71
2, 144945, Note_on_c, 0, 62, 0
2, 144956, Note_on_c, 0, 72, 80
2, 144960, Note_on_c, 0, 64, 69
2, 145010, Note_on_c, 0, 64, 0
2, 145058, Note_on_c, 0, 71, 85
2, 145069, Note_on_c, 0, 65, 60
2, 145069, Note_on_c, 0, 72, 0
2, 145124, Note_on_c, 0, 65, 0
2, 145167, Note_on_c, 0, 64, 72
2, 145177, Note_on_c, 0, 72, 87
2, 145182, Note_on_c, 0, 71, 0
2, 145202, Note_on_c, 0, 72, 0
2, 145218, Note_on_c, 0, 64, 0
2, 145275, Note_on_c, 0, 65, 63
2, 145350, Note_on_c, 0, 65, 0
2, 145410, Note_on_c, 0, 62, 65
2, 145417, Note_on_c, 0, 67, 77
2, 145445, Note_on_c, 0, 62, 0
2, 145450, Note_on_c, 0, 67, 0
2, 145518, Note_on_c, 0, 64, 64
2, 145597, Note_on_c, 0, 64, 0
2, 145636, Note_on_c, 0, 76, 89
2, 145648, Note_on_c, 0, 60, 62
2, 145693, Note_on_c, 0, 74, 87
2, 145697, Note_on_c, 0, 76, 0
2, 145741, Note_on_c, 0, 60, 0
2, 145755, Note_on_c, 0, 76, 84
2, 145782, Note_on_c, 0, 59, 62
2, 145797, Note_on_c, 0, 74, 0
2, 145885, Note_on_c, 0, 59, 0
2, 145894, Note_on_c, 0, 60, 60
2, 145962, Note_on_c, 0, 60, 0
2, 146025, Note_on_c, 0, 62, 60
2, 146057, Note_on_c, 0, 76, 0
2, 146120, Note_on_c, 0, 62, 0
2, 146120, Note_on_c, 0, 74, 77
2, 146140, Note_on_c, 0, 60, 68
2, 146191, Note_on_c, 0, 60, 0
2, 146264, Control_c, 0, 64, 18
2, 146264, Note_on_c, 0, 62, 71
2, 146344, Note_on_c, 0, 62, 0
2, 146393, Note_on_c, 0, 59, 55
2, 146466, Note_on_c, 0, 59, 0
2, 146493, Note_on_c, 0, 60, 67
2, 146545, Note_on_c, 0, 60, 0
2, 146600, Note_on_c, 0, 57, 73
2, 146708, Note_on_c, 0, 57, 0
2, 146719, Note_on_c, 0, 74, 0
2, 146726, Note_on_c, 0, 59, 64
2, 146825, Note_on_c, 0, 59, 0
2, 146848, Note_on_c, 0, 60, 64
2, 146852, Note_on_c, 0, 72, 81
2, 146944, Note_on_c, 0, 71, 82
2, 146953, Note_on_c, 0, 72, 0
2, 146957, Note_on_c, 0, 60, 0
2, 146966, Note_on_c, 0, 62, 70
2, 147023, Note_on_c, 0, 62, 0
2, 147077, Note_on_c, 0, 72, 86
2, 147087, Note_on_c, 0, 64, 64
2, 147103, Note_on_c, 0, 71, 0
2, 147173, Note_on_c, 0, 64, 0
2, 147175, Note_on_c, 0, 66, 72
2, 147180, Note_on_c, 0, 74, 77
2, 147204, Note_on_c, 0, 72, 0
2, 147265, Note_on_c, 0, 66, 0
2, 147307, Note_on_c, 0, 67, 74
2, 147321, Note_on_c, 0, 71, 76
2, 147321, Note_on_c, 0, 74, 0
2, 147438, Note_on_c, 0, 72, 82
2, 147449, Note_on_c, 0, 71, 0
2, 147525, Note_on_c, 0, 72, 0
2, 147576, Note_on_c, 0, 69, 65
2, 147672, Note_on_c, 0, 72, 73
2, 147681, Note_on_c, 0, 69, 0
2, 147756, Note_on_c, 0, 72, 0
2, 147786, Note_on_c, 0, 67, 0
2, 147797, Note_on_c, 0, 71, 73
2, 147802, Note_on_c, 0, 66, 61
2, 147863, Note_on_c, 0, 66, 0
2, 147905, Note_on_c, 0, 72, 77
2, 147910, Note_on_c, 0, 64, 64
2, 147946, Note_on_c, 0, 71, 0
2, 147950, Note_on_c, 0, 72, 0
2, 148015, Note_on_c, 0, 66, 74
2, 148026, Note_on_c, 0, 74, 78
2, 148033, Note_on_c, 0, 64, 0
2, 148052, Note_on_c, 0, 66, 0
2, 148089, Note_on_c, 0, 67, 77
2, 148117, Note_on_c, 0, 76, 79
2, 148137, Note_on_c, 0, 74, 0
2, 148162, Note_on_c, 0, 66, 75
2, 148171, Note_on_c, 0, 67, 0
2, 148216, Note_on_c, 0, 72, 80
2, 148216, Note_on_c, 0, 76, 0
2, 148260, Note_on_c, 0, 72, 0
2, 148312, Note_on_c, 0, 74, 76
2, 148374, Note_on_c, 0, 66, 0
2, 148379, Note_on_c, 0, 74, 0
2, 148442, Note_on_c, 0, 71, 78
2, 148448, Note_on_c, 0, 67, 76
2, 148566, Note_on_c, 0, 69, 69
2, 148566, Note_on_c, 0, 71, 0
2, 148698, Note_on_c, 0, 71, 69
2, 148705, Note_on_c, 0, 69, 0
2, 148711, Note_on_c, 0, 55, 68
2, 148773, Note_on_c, 0, 55, 0
2, 148784, Note_on_c, 0, 71, 0
2, 148798, Note_on_c, 0, 72, 68
2, 148809, Note_on_c, 0, 53, 74
2, 148884, Note_on_c, 0, 72, 0
2, 148889, Note_on_c, 0, 53, 0
2, 148919, Note_on_c, 0, 55, 85
2, 148926, Note_on_c, 0, 71, 61
2, 148958, Note_on_c, 0, 55, 0
2, 148983, Note_on_c, 0, 71, 0
2, 149006, Control_c, 0, 64, 17
2, 149031, Note_on_c, 0, 72, 64
2, 149161, Note_on_c, 0, 48, 75
2, 149177, Note_on_c, 0, 72, 0
2, 149181, Note_on_c, 0, 69, 63
2, 149195, Note_on_c, 0, 48, 0
2, 149233, Note_on_c, 0, 67, 0
2, 149293, Note_on_c, 0, 71, 74
2, 149298, Note_on_c, 0, 69, 0
2, 149367, Note_on_c, 0, 71, 0
2, 149404, Note_on_c, 0, 57, 75
2, 149419, Note_on_c, 0, 72, 81
2, 149450, Note_on_c, 0, 57, 0
2, 149468, Note_on_c, 0, 55, 77
2, 149488, Control_c, 0, 64, 16
2, 149521, Note_on_c, 0, 57, 73
2, 149525, Note_on_c, 0, 55, 0
2, 149536, Note_on_c, 0, 64, 70
2, 149641, Note_on_c, 0, 72, 0
2, 149663, Note_on_c, 0, 65, 58
2, 149784, Note_on_c, 0, 64, 0
2, 149800, Note_on_c, 0, 69, 62
2, 149815, Note_on_c, 0, 65, 0
2, 149833, Control_c, 0, 64, 17
2, 149872, Control_c, 0, 64, 18
2, 149923, Note_on_c, 0, 57, 0
2, 149931, Note_on_c, 0, 69, 0
2, 149936, Note_on_c, 0, 70, 78
2, 149944, Note_on_c, 0, 55, 66
2, 149948, Control_c, 0, 64, 19
2, 150074, Note_on_c, 0, 62, 62
2, 150095, Note_on_c, 0, 70, 0
2, 150187, Note_on_c, 0, 62, 0
2, 150193, Note_on_c, 0, 64, 61
2, 150251, Note_on_c, 0, 64, 0
2, 150295, Note_on_c, 0, 67, 67
2, 150371, Note_on_c, 0, 67, 0
2, 150431, Note_on_c, 0, 69, 75
2, 150448, Control_c, 0, 64, 20
2, 150658, Note_on_c, 0, 69, 0
2, 150663, Note_on_c, 0, 55, 0
2, 150694, Note_on_c, 0, 53, 55
2, 150703, Note_on_c, 0, 62, 72
2, 150747, Note_on_c, 0, 53, 0
2, 150815, Note_on_c, 0, 52, 56
2, 150895, Note_on_c, 0, 52, 0
2, 150911, Note_on_c, 0, 62, 0
2, 150922, Note_on_c, 0, 53, 56
2, 150938, Note_on_c, 0, 67, 62
2, 150943, Note_on_c, 0, 71, 69
2, 150970, Note_on_c, 0, 53, 0
2, 151038, Note_on_c, 0, 55, 59
2, 151130, Note_on_c, 0, 55, 0
2, 151180, Note_on_c, 0, 52, 46
2, 151191, Note_on_c, 0, 72, 78
2, 151221, Note_on_c, 0, 71, 0
2, 151248, Note_on_c, 0, 52, 0
2, 151301, Note_on_c, 0, 67, 0
2, 151305, Note_on_c, 0, 53, 54
2, 151351, Note_on_c, 0, 53, 0
2, 151424, Note_on_c, 0, 50, 60
2, 151433, Note_on_c, 0, 65, 59
2, 151457, Note_on_c, 0, 72, 0
2, 151491, Note_on_c, 0, 50, 0
2, 151535, Note_on_c, 0, 53, 55
2, 151540, Note_on_c, 0, 69, 64
2, 151544, Note_on_c, 0, 65, 0
2, 151602, Note_on_c, 0, 53, 0
2, 151611, Note_on_c, 0, 69, 0
2, 151679, Note_on_c, 0, 52, 57
2, 151679, Note_on_c, 0, 67, 65
2, 151681, Note_on_c, 0, 72, 71
2, 151734, Note_on_c, 0, 67, 0
2, 151774, Note_on_c, 0, 52, 0
2, 151792, Note_on_c, 0, 53, 61
2, 151796, Note_on_c, 0, 69, 66
2, 151844, Note_on_c, 0, 53, 0
2, 151872, Note_on_c, 0, 69, 0
2, 151923, Note_on_c, 0, 55, 59
2, 151923, Note_on_c, 0, 62, 78
2, 151990, Note_on_c, 0, 55, 0
2, 152028, Note_on_c, 0, 57, 67
2, 152088, Note_on_c, 0, 57, 0
2, 152138, Note_on_c, 0, 53, 62
2, 152175, Control_c, 0, 64, 19
2, 152179, Note_on_c, 0, 71, 73
2, 152187, Note_on_c, 0, 53, 0
2, 152187, Note_on_c, 0, 72, 0
2, 152195, Control_c, 0, 64, 18
2, 152200, Note_on_c, 0, 62, 0
2, 152220, Note_on_c, 0, 70, 31
2, 152231, Control_c, 0, 64, 16
2, 152238, Note_on_c, 0, 71, 0
2, 152254, Control_c, 0, 64, 11
2, 152258, Note_on_c, 0, 70, 0
2, 152264, Note_on_c, 0, 55, 63
2, 152271, Control_c, 0, 64, 0
2, 152362, Note_on_c, 0, 55, 0
2, 152407, Note_on_c, 0, 52, 61
2, 152418, Note_on_c, 0, 72, 85
2, 152425, Control_c, 0, 64, 38
2, 152425, Note_on_c, 0, 60, 66
2, 152443, Control_c, 0, 64, 57
2, 152461, Note_on_c, 0, 60, 0
2, 152465, Control_c, 0, 64, 68
2, 152465, Note_on_c, 0, 72, 0
2, 152485, Control_c, 0, 64, 74
2, 152501, Control_c, 0, 64, 85
2, 152507, Note_on_c, 0, 52, 0
2, 152520, Control_c, 0, 64, 92
2, 152541, Control_c, 0, 64, 99
2, 152541, Note_on_c, 0, 50, 63
2, 152558, Control_c, 0, 64, 100
2, 152576, Control_c, 0, 64, 98
2, 152596, Control_c, 0, 64, 92
2, 152616, Control_c, 0, 64, 89
2, 152634, Control_c, 0, 64, 88
2, 152646, Note_on_c, 0, 50, 0
2, 152655, Control_c, 0, 64, 87
2, 152659, Note_on_c, 0, 52, 64
2, 152674, Control_c, 0, 64, 82
2, 152679, Note_on_c, 0, 79, 80
2, 152693, Control_c, 0, 64, 75
2, 152713, Control_c, 0, 64, 68
2, 152724, Note_on_c, 0, 52, 0
2, 152731, Control_c, 0, 64, 62
2, 152754, Control_c, 0, 64, 55
2, 152762, Note_on_c, 0, 79, 0
2, 152769, Note_on_c, 0, 77, 80
2, 152773, Control_c, 0, 64, 49
2, 152787, Note_on_c, 0, 53, 62
2, 152788, Control_c, 0, 64, 44
2, 152808, Control_c, 0, 64, 40
2, 152828, Control_c, 0, 64, 37
2, 152848, Control_c, 0, 64, 35
2, 152856, Note_on_c, 0, 53, 0
2, 152865, Control_c, 0, 64, 33
2, 152886, Control_c, 0, 64, 30
2, 152886, Note_on_c, 0, 79, 87
2, 152891, Note_on_c, 0, 77, 0
2, 152895, Note_on_c, 0, 52, 60
2, 152904, Control_c, 0, 64, 29
2, 152925, Control_c, 0, 64, 28
2, 152925, Note_on_c, 0, 79, 0
2, 152944, Control_c, 0, 64, 27
2, 152944, Note_on_c, 0, 52, 0
2, 152997, Note_on_c, 0, 53, 65
2, 153064, Note_on_c, 0, 53, 0
2, 153114, Control_c, 0, 64, 26
2, 153125, Note_on_c, 0, 50, 55
2, 153131, Note_on_c, 0, 72, 83
2, 153163, Note_on_c, 0, 72, 0
2, 153211, Note_on_c, 0, 50, 0
2, 153231, Control_c, 0, 64, 25
2, 153248, Note_on_c, 0, 52, 56
2, 153320, Note_on_c, 0, 52, 0
2, 153367, Note_on_c, 0, 53, 56
2, 153380, Note_on_c, 0, 81, 88
2, 153435, Note_on_c, 0, 53, 0
2, 153496, Note_on_c, 0, 52, 53
2, 153609, Note_on_c, 0, 52, 0
2, 153642, Note_on_c, 0, 53, 64
2, 153642, Note_on_c, 0, 72, 80
2, 153651, Note_on_c, 0, 81, 0
2, 153690, Note_on_c, 0, 53, 0
2, 153725, Note_on_c, 0, 72, 0
2, 153753, Note_on_c, 0, 71, 69
2, 153758, Note_on_c, 0, 55, 59
2, 153813, Note_on_c, 0, 55, 0
2, 153869, Note_on_c, 0, 71, 0
2, 153874, Note_on_c, 0, 79, 85
2, 153883, Note_on_c, 0, 72, 71
2, 153898, Note_on_c, 0, 53, 59
2, 153925, Note_on_c, 0, 72, 0
2, 153935, Note_on_c, 0, 53, 0
2, 153994, Note_on_c, 0, 55, 67
2, 154103, Note_on_c, 0, 55, 0
2, 154116, Note_on_c, 0, 79, 0
2, 154127, Note_on_c, 0, 67, 78
2, 154143, Note_on_c, 0, 52, 58
2, 154169, Note_on_c, 0, 67, 0
2, 154194, Control_c, 0, 64, 24
2, 154207, Note_on_c, 0, 52, 0
2, 154259, Note_on_c, 0, 53, 65
2, 154315, Note_on_c, 0, 53, 0
2, 154383, Note_on_c, 0, 50, 72
2, 154383, Note_on_c, 0, 78, 86
2, 154387, Note_on_c, 0, 74, 81
2, 154482, Note_on_c, 0, 50, 0
2, 154504, Note_on_c, 0, 49, 60
2, 154619, Note_on_c, 0, 49, 0
2, 154628, Note_on_c, 0, 50, 60
2, 154633, Note_on_c, 0, 78, 0
2, 154633, Note_on_c, 0, 81, 73
2, 154644, Note_on_c, 0, 74, 0
2, 154673, Note_on_c, 0, 50, 0
2, 154733, Note_on_c, 0, 81, 0
2, 154743, Note_on_c, 0, 52, 67
2, 154743, Note_on_c, 0, 79, 79
2, 154828, Note_on_c, 0, 52, 0
2, 154843, Note_on_c, 0, 54, 60
2, 154863, Note_on_c, 0, 81, 79
2, 154870, Note_on_c, 0, 72, 78
2, 154874, Note_on_c, 0, 79, 0
2, 154905, Note_on_c, 0, 54, 0
2, 154936, Note_on_c, 0, 81, 0
2, 154975, Note_on_c, 0, 55, 64
2, 155065, Note_on_c, 0, 55, 0
2, 155106, Note_on_c, 0, 52, 63
2, 155106, Note_on_c, 0, 72, 0
2, 155110, Note_on_c, 0, 74, 84
2, 155138, Note_on_c, 0, 74, 0
2, 155151, Control_c, 0, 64, 23
2, 155216, Note_on_c, 0, 54, 59
2, 155221, Note_on_c, 0, 52, 0
2, 155301, Note_on_c, 0, 54, 0
2, 155349, Note_on_c, 0, 55, 64
2, 155360, Note_on_c, 0, 71, 88
2, 155360, Note_on_c, 0, 83, 90
2, 155418, Note_on_c, 0, 55, 0
2, 155454, Note_on_c, 0, 54, 58
2, 155531, Note_on_c, 0, 54, 0
2, 155558, Note_on_c, 0, 71, 0
2, 155597, Note_on_c, 0, 55, 57
2, 155617, Note_on_c, 0, 74, 81
2, 155637, Note_on_c, 0, 83, 0
2, 155686, Note_on_c, 0, 55, 0
2, 155704, Note_on_c, 0, 74, 0
2, 155722, Note_on_c, 0, 72, 81
2, 155725, Note_on_c, 0, 57, 66
2, 155780, Note_on_c, 0, 57, 0
2, 155801, Note_on_c, 0, 72, 0
2, 155850, Note_on_c, 0, 55, 67
2, 155854, Note_on_c, 0, 74, 85
2, 155854, Note_on_c, 0, 81, 86
2, 155882, Control_c, 0, 64, 22
2, 155886, Note_on_c, 0, 74, 0
2, 155893, Note_on_c, 0, 55, 0
2, 155963, Note_on_c, 0, 57, 66
2, 156038, Note_on_c, 0, 57, 0
2, 156103, Note_on_c, 0, 53, 69
2, 156103, Note_on_c, 0, 69, 80
2, 156135, Note_on_c, 0, 81, 0
2, 156144, Note_on_c, 0, 53, 0
2, 156156, Note_on_c, 0, 69, 0
2, 156221, Note_on_c, 0, 55, 66
2, 156301, Note_on_c, 0, 55, 0
2, 156355, Note_on_c, 0, 80, 89
2, 156358, Note_on_c, 0, 76, 91
2, 156362, Note_on_c, 0, 52, 66
2, 156429, Note_on_c, 0, 52, 0
2, 156481, Note_on_c, 0, 50, 60
2, 156575, Note_on_c, 0, 50, 0
2, 156595, Note_on_c, 0, 52, 67
2, 156608, Note_on_c, 0, 83, 81
2, 156617, Note_on_c, 0, 80, 0
2, 156628, Note_on_c, 0, 76, 0
2, 156714, Note_on_c, 0, 52, 0
2, 156714, Note_on_c, 0, 83, 0
2, 156718, Note_on_c, 0, 81, 76
2, 156729, Note_on_c, 0, 54, 74
2, 156834, Note_on_c, 0, 54, 0
2, 156838, Note_on_c, 0, 83, 87
2, 156843, Note_on_c, 0, 74, 82
2, 156843, Note_on_c, 0, 81, 0
2, 156859, Note_on_c, 0, 56, 70
2, 156914, Note_on_c, 0, 83, 0
2, 156932, Note_on_c, 0, 56, 0
2, 156968, Note_on_c, 0, 57, 68
2, 157078, Note_on_c, 0, 57, 0
2, 157078, Note_on_c, 0, 76, 91
2, 157082, Note_on_c, 0, 54, 71
2, 157091, Note_on_c, 0, 74, 0
2, 157110, Note_on_c, 0, 76, 0
2, 157202, Note_on_c, 0, 54, 0
2, 157215, Note_on_c, 0, 56, 66
2, 157275, Note_on_c, 0, 56, 0
2, 157319, Note_on_c, 0, 57, 70
2, 157319, Note_on_c, 0, 84, 94
2, 157323, Note_on_c, 0, 72, 102
2, 157413, Note_on_c, 0, 57, 0
2, 157431, Note_on_c, 0, 56, 68
2, 157482, Note_on_c, 0, 72, 0
2, 157507, Note_on_c, 0, 56, 0
2, 157573, Note_on_c, 0, 76, 79
2, 157577, Note_on_c, 0, 57, 59
2, 157652, Note_on_c, 0, 76, 0
2, 157670, Note_on_c, 0, 57, 0
2, 157670, Note_on_c, 0, 74, 78
2, 157683, Note_on_c, 0, 59, 65
2, 157727, Note_on_c, 0, 74, 0
2, 157743, Note_on_c, 0, 59, 0
2, 157780, Note_on_c, 0, 76, 88
2, 157797, Note_on_c, 0, 57, 77
2, 157810, Note_on_c, 0, 76, 0
2, 157845, Note_on_c, 0, 57, 0
2, 157900, Note_on_c, 0, 59, 71
2, 157988, Note_on_c, 0, 59, 0
2, 158030, Note_on_c, 0, 55, 73
2, 158042, Note_on_c, 0, 81, 83
2, 158058, Note_on_c, 0, 84, 0
2, 158084, Note_on_c, 0, 55, 0
2, 158094, Note_on_c, 0, 81, 0
2, 158108, Control_c, 0, 64, 21
2, 158148, Note_on_c, 0, 57, 71
2, 158249, Note_on_c, 0, 57, 0
2, 158269, Note_on_c, 0, 54, 68
2, 158277, Note_on_c, 0, 74, 96
2, 158355, Note_on_c, 0, 54, 0
2, 158375, Control_c, 0, 64, 20
2, 158417, Note_on_c, 0, 55, 66
2, 158484, Note_on_c, 0, 55, 0
2, 158530, Note_on_c, 0, 52, 64
2, 158533, Note_on_c, 0, 84, 82
2, 158588, Note_on_c, 0, 84, 0
2, 158625, Note_on_c, 0, 52, 0
2, 158648, Note_on_c, 0, 54, 63
2, 158768, Note_on_c, 0, 54, 0
2, 158774, Note_on_c, 0, 83, 82
2, 158777, Note_on_c, 0, 55, 70
2, 158829, Note_on_c, 0, 55, 0
2, 158838, Note_on_c, 0, 83, 0
2, 158840, Control_c, 0, 64, 19
2, 158898, Note_on_c, 0, 57, 69
2, 158990, Note_on_c, 0, 57, 0
2, 159018, Note_on_c, 0, 79, 87
2, 159029, Note_on_c, 0, 59, 62
2, 159060, Note_on_c, 0, 79, 0
2, 159077, Note_on_c, 0, 59, 0
2, 159121, Note_on_c, 0, 55, 58
2, 159220, Note_on_c, 0, 55, 0
2, 159246, Note_on_c, 0, 60, 72
2, 159262, Note_on_c, 0, 74, 0
2, 159262, Note_on_c, 0, 74, 38
2, 159262, Note_on_c, 0, 76, 91
2, 159298, Note_on_c, 0, 74, 0
2, 159310, Note_on_c, 0, 60, 0
2, 159382, Note_on_c, 0, 59, 66
2, 159498, Note_on_c, 0, 59, 0
2, 159498, Note_on_c, 0, 72, 80
2, 159498, Note_on_c, 0, 76, 0
2, 159509, Note_on_c, 0, 60, 68
2, 159581, Note_on_c, 0, 60, 0
2, 159595, Note_on_c, 0, 72, 0
2, 159604, Note_on_c, 0, 71, 76
2, 159628, Note_on_c, 0, 62, 75
2, 159647, Note_on_c, 0, 71, 0
2, 159684, Note_on_c, 0, 62, 0
2, 159741, Note_on_c, 0, 78, 89
2, 159745, Note_on_c, 0, 60, 69
2, 159750, Note_on_c, 0, 69, 75
2, 159797, Note_on_c, 0, 60, 0
2, 159835, Note_on_c, 0, 69, 0
2, 159863, Note_on_c, 0, 62, 68
2, 159939, Note_on_c, 0, 78, 0
2, 159959, Note_on_c, 0, 62, 0
2, 159970, Control_c, 0, 64, 20
2, 159975, Note_on_c, 0, 59, 73
2, 159981, Note_on_c, 0, 79, 86
2, 159988, Note_on_c, 0, 71, 80
2, 160080, Note_on_c, 0, 59, 0
2, 160101, Note_on_c, 0, 60, 79
2, 160181, Note_on_c, 0, 71, 0
2, 160190, Note_on_c, 0, 60, 0
2, 160199, Control_c, 0, 64, 21
2, 160204, Note_on_c, 0, 79, 0
2, 160238, Control_c, 0, 64, 22
2, 160249, Note_on_c, 0, 62, 85
2, 160494, Note_on_c, 0, 78, 82
2, 160505, Note_on_c, 0, 69, 68
2, 160539, Note_on_c, 0, 69, 0
2, 160550, Note_on_c, 0, 78, 0
2, 160615, Note_on_c, 0, 76, 81
2, 160626, Note_on_c, 0, 67, 74
2, 160662, Note_on_c, 0, 67, 0
2, 160666, Note_on_c, 0, 76, 0
2, 160773, Note_on_c, 0, 78, 81
2, 160784, Note_on_c, 0, 69, 73
2, 160829, Note_on_c, 0, 62, 0
2, 160835, Note_on_c, 0, 78, 0
2, 160844, Note_on_c, 0, 79, 80
2, 160901, Note_on_c, 0, 78, 78
2, 160951, Note_on_c, 0, 79, 0
2, 161043, Note_on_c, 0, 62, 79
2, 161047, Note_on_c, 0, 69, 0
2, 161058, Note_on_c, 0, 78, 0
2, 161121, Control_c, 0, 64, 21
2, 161140, Note_on_c, 0, 79, 82
2, 161144, Control_c, 0, 64, 16
2, 161160, Control_c, 0, 64, 0
2, 161190, Note_on_c, 0, 79, 0
2, 161206, Note_on_c, 0, 62, 0
2, 161276, Control_c, 0, 64, 21
2, 161281, Note_on_c, 0, 79, 90
2, 161292, Note_on_c, 0, 55, 62
2, 161297, Control_c, 0, 64, 45
2, 161297, Note_on_c, 0, 71, 74
2, 161313, Control_c, 0, 64, 59
2, 161332, Control_c, 0, 64, 65
2, 161337, Note_on_c, 0, 55, 0
2, 161354, Control_c, 0, 64, 68
2, 161372, Control_c, 0, 64, 75
2, 161390, Control_c, 0, 64, 87
2, 161409, Control_c, 0, 64, 122
2, 161427, Control_c, 0, 64, 127
2, 161543, Control_c, 0, 64, 122
2, 161553, Note_on_c, 0, 67, 67
2, 161562, Note_on_c, 0, 76, 82
2, 161566, Control_c, 0, 64, 104
2, 161581, Control_c, 0, 64, 92
2, 161588, Note_on_c, 0, 71, 0
2, 161603, Control_c, 0, 64, 80
2, 161603, Note_on_c, 0, 67, 0
2, 161605, Note_on_c, 0, 79, 0
2, 161623, Control_c, 0, 64, 71
2, 161639, Control_c, 0, 64, 65
2, 161659, Control_c, 0, 64, 61
2, 161670, Note_on_c, 0, 65, 64
2, 161677, Control_c, 0, 64, 57
2, 161698, Note_on_c, 0, 76, 0
2, 161700, Control_c, 0, 64, 53
2, 161716, Control_c, 0, 64, 50
2, 161730, Note_on_c, 0, 65, 0
2, 161736, Control_c, 0, 64, 47
2, 161754, Control_c, 0, 64, 43
2, 161773, Control_c, 0, 64, 41
2, 161789, Note_on_c, 0, 67, 70
2, 161789, Note_on_c, 0, 73, 79
2, 161793, Control_c, 0, 64, 38
2, 161793, Note_on_c, 0, 69, 63
2, 161812, Control_c, 0, 64, 36
2, 161825, Note_on_c, 0, 67, 0
2, 161829, Note_on_c, 0, 69, 0
2, 161834, Control_c, 0, 64, 34
2, 161838, Note_on_c, 0, 73, 0
2, 161850, Control_c, 0, 64, 31
2, 161872, Control_c, 0, 64, 29
2, 161890, Control_c, 0, 64, 28
2, 161900, Note_on_c, 0, 69, 69
2, 161909, Control_c, 0, 64, 27
2, 161948, Control_c, 0, 64, 25
2, 161986, Control_c, 0, 64, 24
2, 162007, Control_c, 0, 64, 23
2, 162007, Note_on_c, 0, 69, 0
2, 162038, Note_on_c, 0, 65, 54
2, 162038, Note_on_c, 0, 74, 78
2, 162077, Note_on_c, 0, 74, 0
2, 162090, Note_on_c, 0, 65, 0
2, 162144, Note_on_c, 0, 67, 77
2, 162201, Note_on_c, 0, 67, 0
2, 162284, Note_on_c, 0, 64, 68
2, 162400, Note_on_c, 0, 79, 79
2, 162465, Control_c, 0, 64, 24
2, 162510, Note_on_c, 0, 64, 0
2, 162523, Note_on_c, 0, 82, 83
2, 162529, Note_on_c, 0, 67, 69
2, 162547, Note_on_c, 0, 79, 0
2, 162619, Note_on_c, 0, 67, 0
2, 162639, Note_on_c, 0, 81, 76
2, 162651, Note_on_c, 0, 82, 0
2, 162655, Note_on_c, 0, 65, 67
2, 162704, Note_on_c, 0, 65, 0
2, 162768, Note_on_c, 0, 67, 77
2, 162768, Note_on_c, 0, 79, 92
2, 162801, Note_on_c, 0, 81, 0
2, 162849, Note_on_c, 0, 67, 0
2, 162885, Note_on_c, 0, 69, 73
2, 162894, Note_on_c, 0, 77, 84
2, 162921, Note_on_c, 0, 79, 0
2, 162930, Note_on_c, 0, 69, 0
2, 162971, Note_on_c, 0, 77, 0
2, 162993, Note_on_c, 0, 65, 72
2, 163016, Note_on_c, 0, 76, 78
2, 163023, Control_c, 0, 64, 23
2, 163044, Note_on_c, 0, 65, 0
2, 163051, Note_on_c, 0, 76, 0
2, 163106, Note_on_c, 0, 67, 81
2, 163119, Note_on_c, 0, 74, 82
2, 163148, Note_on_c, 0, 67, 0
2, 163148, Note_on_c, 0, 74, 0
2, 163247, Note_on_c, 0, 73, 91
2, 163251, Note_on_c, 0, 64, 85
2, 163272, Control_c, 0, 64, 24
2, 163299, Note_on_c, 0, 64, 0
2, 163360, Note_on_c, 0, 67, 59
2, 163373, Note_on_c, 0, 73, 0
2, 163387, Control_c, 0, 64, 23
2, 163406, Control_c, 0, 64, 22
2, 163425, Control_c, 0, 64, 21
2, 163504, Note_on_c, 0, 62, 87
2, 163506, Note_on_c, 0, 65, 76
2, 163506, Note_on_c, 0, 74, 84
2, 163515, Note_on_c, 0, 67, 0
2, 163568, Note_on_c, 0, 62, 0
2, 163615, Note_on_c, 0, 67, 69
2, 163631, Note_on_c, 0, 65, 0
2, 163657, Note_on_c, 0, 74, 0
2, 163738, Note_on_c, 0, 69, 80
2, 163749, Note_on_c, 0, 53, 77
2, 163777, Note_on_c, 0, 67, 0
2, 163793, Note_on_c, 0, 53, 0
2, 163856, Note_on_c, 0, 70, 71
2, 163869, Control_c, 0, 64, 22
2, 163975, Note_on_c, 0, 69, 0
2, 163993, Note_on_c, 0, 57, 86
2, 163994, Note_on_c, 0, 73, 76
2, 164007, Note_on_c, 0, 67, 72
2, 164027, Note_on_c, 0, 70, 0
2, 164031, Note_on_c, 0, 57, 0
2, 164098, Note_on_c, 0, 73, 0
2, 164123, Note_on_c, 0, 69, 64
2, 164168, Note_on_c, 0, 67, 0
2, 164192, Note_on_c, 0, 69, 0
2, 164234, Note_on_c, 0, 50, 80
2, 164250, Note_on_c, 0, 65, 71
2, 164335, Note_on_c, 0, 65, 0
2, 164354, Note_on_c, 0, 64, 76
2, 164386, Note_on_c, 0, 64, 0
2, 164484, Note_on_c, 0, 74, 88
2, 164489, Note_on_c, 0, 65, 77
2, 164534, Note_on_c, 0, 65, 0
2, 164601, Note_on_c, 0, 74, 0
2, 164606, Note_on_c, 0, 73, 83
2, 164615, Note_on_c, 0, 67, 81
2, 164696, Note_on_c, 0, 73, 0
2, 164701, Note_on_c, 0, 67, 0
2, 164723, Note_on_c, 0, 50, 0
2, 164730, Note_on_c, 0, 74, 90
2, 164736, Note_on_c, 0, 65, 79
2, 164781, Note_on_c, 0, 65, 0
2, 164820, Note_on_c, 0, 74, 0
2, 164838, Note_on_c, 0, 67, 77
2, 164883, Note_on_c, 0, 67, 0
2, 164966, Note_on_c, 0, 69, 79
2, 164970, Note_on_c, 0, 64, 79
2, 165005, Note_on_c, 0, 64, 0
2, 165024, Note_on_c, 0, 69, 0
2, 165078, Note_on_c, 0, 65, 72
2, 165110, Note_on_c, 0, 65, 0
2, 165210, Note_on_c, 0, 77, 100
2, 165214, Note_on_c, 0, 62, 69
2, 165306, Note_on_c, 0, 62, 0
2, 165341, Note_on_c, 0, 60, 67
2, 165457, Note_on_c, 0, 60, 0
2, 165466, Note_on_c, 0, 62, 67
2, 165548, Note_on_c, 0, 62, 0
2, 165576, Note_on_c, 0, 64, 68
2, 165650, Note_on_c, 0, 64, 0
2, 165650, Note_on_c, 0, 77, 0
2, 165698, Note_on_c, 0, 76, 86
2, 165709, Note_on_c, 0, 62, 71
2, 165769, Note_on_c, 0, 62, 0
2, 165825, Note_on_c, 0, 64, 68
2, 165924, Note_on_c, 0, 64, 0
2, 165954, Note_on_c, 0, 60, 64
2, 166009, Note_on_c, 0, 60, 0
2, 166069, Note_on_c, 0, 62, 71
2, 166118, Note_on_c, 0, 62, 0
2, 166170, Note_on_c, 0, 59, 77
2, 166280, Note_on_c, 0, 59, 0
2, 166312, Note_on_c, 0, 60, 66
2, 166317, Note_on_c, 0, 76, 0
2, 166424, Note_on_c, 0, 60, 0
2, 166424, Note_on_c, 0, 74, 74
2, 166428, Note_on_c, 0, 62, 75
2, 166499, Note_on_c, 0, 62, 0
2, 166520, Note_on_c, 0, 72, 84
2, 166538, Note_on_c, 0, 74, 0
2, 166549, Note_on_c, 0, 64, 73
2, 166591, Note_on_c, 0, 72, 0
2, 166648, Note_on_c, 0, 74, 84
2, 166659, Note_on_c, 0, 64, 0
2, 166666, Note_on_c, 0, 66, 80
2, 166760, Note_on_c, 0, 76, 86
2, 166788, Note_on_c, 0, 66, 0
2, 166788, Note_on_c, 0, 74, 0
2, 166795, Note_on_c, 0, 68, 80
2, 166879, Note_on_c, 0, 72, 83
2, 166889, Note_on_c, 0, 68, 0
2, 166902, Note_on_c, 0, 76, 0
2, 166907, Note_on_c, 0, 69, 81
2, 166960, Note_on_c, 0, 72, 0
2, 167015, Note_on_c, 0, 74, 79
2, 167034, Control_c, 0, 64, 23
2, 167101, Note_on_c, 0, 74, 0
2, 167141, Note_on_c, 0, 71, 81
2, 167250, Note_on_c, 0, 74, 76
2, 167260, Note_on_c, 0, 71, 0
2, 167360, Note_on_c, 0, 69, 0
2, 167364, Note_on_c, 0, 74, 0
2, 167376, Note_on_c, 0, 68, 65
2, 167376, Note_on_c, 0, 72, 75
2, 167429, Note_on_c, 0, 68, 0
2, 167437, Control_c, 0, 64, 22
2, 167472, Note_on_c, 0, 66, 63
2, 167501, Note_on_c, 0, 74, 77
2, 167545, Note_on_c, 0, 72, 0
2, 167549, Note_on_c, 0, 74, 0
2, 167590, Note_on_c, 0, 68, 71
2, 167606, Note_on_c, 0, 66, 0
2, 167618, Note_on_c, 0, 76, 77
2, 167630, Note_on_c, 0, 68, 0
2, 167668, Note_on_c, 0, 69, 71
2, 167710, Note_on_c, 0, 77, 78
2, 167714, Note_on_c, 0, 76, 0
2, 167737, Note_on_c, 0, 68, 76
2, 167766, Note_on_c, 0, 69, 0
2, 167813, Note_on_c, 0, 77, 0
2, 167821, Note_on_c, 0, 74, 78
2, 167863, Note_on_c, 0, 74, 0
2, 167919, Note_on_c, 0, 68, 0
2, 167937, Note_on_c, 0, 76, 73
2, 168065, Note_on_c, 0, 76, 0
2, 168091, Note_on_c, 0, 69, 54
2, 168091, Note_on_c, 0, 72, 69
2, 168150, Note_on_c, 0, 69, 0
2, 168196, Note_on_c, 0, 68, 66
2, 168264, Note_on_c, 0, 68, 0
2, 168322, Note_on_c, 0, 72, 0
2, 168326, Note_on_c, 0, 76, 71
2, 168335, Note_on_c, 0, 69, 49
2, 168375, Note_on_c, 0, 69, 0
2, 168423, Note_on_c, 0, 76, 0
2, 168434, Note_on_c, 0, 74, 75
2, 168439, Note_on_c, 0, 71, 61
2, 168475, Note_on_c, 0, 74, 0
2, 168488, Note_on_c, 0, 71, 0
2, 168552, Note_on_c, 0, 76, 81
2, 168574, Note_on_c, 0, 69, 49
2, 168579, Note_on_c, 0, 76, 0
2, 168603, Note_on_c, 0, 69, 0
2, 168659, Note_on_c, 0, 71, 66
2, 168720, Note_on_c, 0, 71, 0
2, 168798, Note_on_c, 0, 67, 60
2, 168798, Note_on_c, 0, 72, 83
2, 168829, Note_on_c, 0, 72, 0
2, 168840, Note_on_c, 0, 67, 0
2, 168910, Note_on_c, 0, 69, 55
2, 168969, Note_on_c, 0, 69, 0
2, 169027, Note_on_c, 0, 66, 53
2, 169038, Note_on_c, 0, 81, 77
2, 169087, Note_on_c, 0, 81, 0
2, 169136, Note_on_c, 0, 66, 0
2, 169169, Note_on_c, 0, 64, 61
2, 169266, Note_on_c, 0, 64, 0
2, 169283, Note_on_c, 0, 66, 61
2, 169303, Note_on_c, 0, 72, 76
2, 169337, Note_on_c, 0, 66, 0
2, 169345, Note_on_c, 0, 72, 0
2, 169420, Note_on_c, 0, 67, 54
2, 169488, Note_on_c, 0, 67, 0
2, 169522, Note_on_c, 0, 66, 58
2, 169547, Note_on_c, 0, 69, 69
2, 169573, Note_on_c, 0, 66, 0
2, 169599, Note_on_c, 0, 69, 0
2, 169657, Note_on_c, 0, 67, 55
2, 169714, Note_on_c, 0, 67, 0
2, 169785, Note_on_c, 0, 64, 54
2, 169785, Note_on_c, 0, 74, 74
2, 169822, Note_on_c, 0, 74, 0
2, 169863, Note_on_c, 0, 64, 0
2, 169892, Note_on_c, 0, 66, 55
2, 169981, Note_on_c, 0, 66, 0
2, 170021, Note_on_c, 0, 67, 60
2, 170025, Note_on_c, 0, 71, 79
2, 170067, Note_on_c, 0, 71, 0
2, 170089, Note_on_c, 0, 67, 0
2, 170132, Note_on_c, 0, 66, 63
2, 170227, Note_on_c, 0, 66, 0
2, 170264, Note_on_c, 0, 67, 60
2, 170294, Note_on_c, 0, 74, 66
2, 170325, Note_on_c, 0, 67, 0
2, 170376, Note_on_c, 0, 74, 0
2, 170380, Note_on_c, 0, 72, 76
2, 170397, Note_on_c, 0, 69, 53
2, 170458, Note_on_c, 0, 69, 0
2, 170498, Note_on_c, 0, 74, 86
2, 170509, Note_on_c, 0, 72, 0
2, 170513, Note_on_c, 0, 67, 58
2, 170534, Note_on_c, 0, 74, 0
2, 170558, Note_on_c, 0, 67, 0
2, 170619, Note_on_c, 0, 69, 58
2, 170686, Note_on_c, 0, 69, 0
2, 170749, Note_on_c, 0, 65, 57
2, 170753, Note_on_c, 0, 71, 73
2, 170792, Note_on_c, 0, 71, 0
2, 170796, Note_on_c, 0, 65, 0
2, 170869, Note_on_c, 0, 67, 60
2, 170922, Note_on_c, 0, 67, 0
2, 170987, Note_on_c, 0, 79, 83
2, 170996, Note_on_c, 0, 64, 63
2, 171031, Note_on_c, 0, 79, 0
2, 171084, Note_on_c, 0, 64, 0
2, 171119, Note_on_c, 0, 62, 60
2, 171221, Note_on_c, 0, 62, 0
2, 171234, Note_on_c, 0, 64, 65
2, 171239, Note_on_c, 0, 70, 76
2, 171292, Note_on_c, 0, 64, 0
2, 171305, Note_on_c, 0, 70, 0
2, 171355, Note_on_c, 0, 65, 53
2, 171421, Note_on_c, 0, 65, 0
2, 171464, Note_on_c, 0, 64, 66
2, 171479, Note_on_c, 0, 67, 75
2, 171515, Note_on_c, 0, 64, 0
2, 171536, Note_on_c, 0, 67, 0
2, 171584, Note_on_c, 0, 65, 62
2, 171635, Note_on_c, 0, 65, 0
2, 171696, Note_on_c, 0, 72, 77
2, 171727, Note_on_c, 0, 62, 47
2, 171767, Note_on_c, 0, 72, 0
2, 171791, Note_on_c, 0, 62, 0
2, 171827, Note_on_c, 0, 64, 60
2, 171889, Note_on_c, 0, 64, 0
2, 171935, Note_on_c, 0, 69, 77
2, 171942, Note_on_c, 0, 65, 58
2, 171987, Note_on_c, 0, 69, 0
2, 171991, Note_on_c, 0, 65, 0
2, 172061, Note_on_c, 0, 64, 53
2, 172157, Note_on_c, 0, 64, 0
2, 172172, Note_on_c, 0, 74, 73
2, 172194, Note_on_c, 0, 65, 56
2, 172231, Note_on_c, 0, 65, 0
2, 172258, Note_on_c, 0, 74, 0
2, 172283, Note_on_c, 0, 72, 76
2, 172289, Note_on_c, 0, 67, 58
2, 172322, Note_on_c, 0, 72, 0
2, 172338, Note_on_c, 0, 67, 0
2, 172404, Note_on_c, 0, 74, 79
2, 172423, Note_on_c, 0, 65, 47
2, 172463, Note_on_c, 0, 65, 0
2, 172501, Note_on_c, 0, 74, 0
2, 172527, Note_on_c, 0, 76, 77
2, 172531, Note_on_c, 0, 67, 57
2, 172585, Note_on_c, 0, 67, 0
2, 172618, Note_on_c, 0, 76, 0
2, 172650, Note_on_c, 0, 72, 76
2, 172659, Note_on_c, 0, 64, 53
2, 172696, Note_on_c, 0, 72, 0
2, 172711, Note_on_c, 0, 64, 0
2, 172759, Note_on_c, 0, 65, 57
2, 172759, Note_on_c, 0, 74, 76
2, 172803, Note_on_c, 0, 65, 0
2, 172849, Note_on_c, 0, 74, 0
2, 172885, Note_on_c, 0, 62, 64
2, 172900, Note_on_c, 0, 71, 72
2, 172937, Note_on_c, 0, 62, 0
2, 172964, Note_on_c, 0, 71, 0
2, 173022, Note_on_c, 0, 69, 62
2, 173074, Note_on_c, 0, 69, 0
2, 173134, Note_on_c, 0, 67, 65
2, 173136, Note_on_c, 0, 71, 69
2, 173184, Note_on_c, 0, 67, 0
2, 173189, Note_on_c, 0, 71, 0
2, 173238, Note_on_c, 0, 72, 72
2, 173263, Note_on_c, 0, 65, 53
2, 173311, Note_on_c, 0, 72, 0
2, 173356, Note_on_c, 0, 65, 0
2, 173365, Note_on_c, 0, 71, 67
2, 173383, Note_on_c, 0, 67, 62
2, 173414, Note_on_c, 0, 71, 0
2, 173425, Note_on_c, 0, 67, 0
2, 173478, Note_on_c, 0, 72, 76
2, 173487, Note_on_c, 0, 69, 55
2, 173525, Note_on_c, 0, 72, 0
2, 173529, Note_on_c, 0, 69, 0
2, 173602, Note_on_c, 0, 65, 60
2, 173603, Note_on_c, 0, 69, 65
2, 173643, Note_on_c, 0, 65, 0
2, 173649, Note_on_c, 0, 69, 0
2, 173706, Note_on_c, 0, 71, 72
2, 173734, Note_on_c, 0, 67, 60
2, 173761, Note_on_c, 0, 71, 0
2, 173779, Note_on_c, 0, 67, 0
2, 173840, Note_on_c, 0, 67, 71
2, 173856, Note_on_c, 0, 64, 64
2, 173924, Note_on_c, 0, 64, 0
2, 173978, Note_on_c, 0, 62, 64
2, 174011, Note_on_c, 0, 67, 0
2, 174052, Note_on_c, 0, 62, 0
2, 174082, Note_on_c, 0, 64, 72
2, 174096, Note_on_c, 0, 72, 78
2, 174146, Note_on_c, 0, 64, 0
2, 174198, Note_on_c, 0, 65, 67
2, 174200, Note_on_c, 0, 71, 81
2, 174209, Note_on_c, 0, 72, 0
2, 174216, Control_c, 0, 64, 23
2, 174247, Note_on_c, 0, 71, 0
2, 174263, Note_on_c, 0, 65, 0
2, 174318, Note_on_c, 0, 72, 85
2, 174322, Note_on_c, 0, 64, 76
2, 174391, Note_on_c, 0, 64, 0
2, 174434, Note_on_c, 0, 74, 84
2, 174438, Note_on_c, 0, 72, 0
2, 174445, Note_on_c, 0, 65, 72
2, 174466, Control_c, 0, 64, 24
2, 174535, Note_on_c, 0, 65, 0
2, 174549, Note_on_c, 0, 70, 84
2, 174549, Note_on_c, 0, 74, 0
2, 174577, Note_on_c, 0, 62, 65
2, 174621, Note_on_c, 0, 70, 0
2, 174655, Note_on_c, 0, 72, 84
2, 174666, Note_on_c, 0, 62, 0
2, 174679, Note_on_c, 0, 64, 71
2, 174696, Control_c, 0, 64, 23
2, 174736, Note_on_c, 0, 64, 0
2, 174788, Note_on_c, 0, 60, 79
2, 174788, Note_on_c, 0, 69, 76
2, 174804, Note_on_c, 0, 72, 0
2, 174819, Note_on_c, 0, 60, 0
2, 174881, Note_on_c, 0, 69, 0
2, 174916, Note_on_c, 0, 67, 72
2, 175030, Note_on_c, 0, 67, 0
2, 175035, Note_on_c, 0, 69, 74
2, 175039, Note_on_c, 0, 65, 67
2, 175095, Note_on_c, 0, 65, 0
2, 175124, Note_on_c, 0, 69, 0
2, 175139, Note_on_c, 0, 70, 80
2, 175154, Note_on_c, 0, 64, 66
2, 175224, Note_on_c, 0, 70, 0
2, 175258, Note_on_c, 0, 69, 79
2, 175275, Note_on_c, 0, 64, 0
2, 175275, Note_on_c, 0, 65, 66
2, 175327, Note_on_c, 0, 65, 0
2, 175340, Note_on_c, 0, 69, 0
2, 175380, Note_on_c, 0, 67, 70
2, 175382, Note_on_c, 0, 70, 84
2, 175417, Note_on_c, 0, 67, 0
2, 175464, Note_on_c, 0, 70, 0
2, 175502, Note_on_c, 0, 64, 73
2, 175515, Note_on_c, 0, 67, 85
2, 175544, Note_on_c, 0, 64, 0
2, 175566, Note_on_c, 0, 67, 0
2, 175612, Note_on_c, 0, 69, 73
2, 175620, Note_on_c, 0, 65, 60
2, 175646, Note_on_c, 0, 69, 0
2, 175657, Note_on_c, 0, 65, 0
2, 175724, Note_on_c, 0, 65, 81
2, 175737, Note_on_c, 0, 62, 82
2, 175789, Note_on_c, 0, 67, 78
2, 175793, Note_on_c, 0, 65, 0
2, 175817, Note_on_c, 0, 62, 0
2, 175846, Note_on_c, 0, 65, 75
2, 175854, Note_on_c, 0, 60, 72
2, 175859, Note_on_c, 0, 67, 0
2, 175943, Note_on_c, 0, 60, 0
2, 175970, Note_on_c, 0, 62, 74
2, 176045, Note_on_c, 0, 62, 0
2, 176090, Note_on_c, 0, 64, 79
2, 176171, Note_on_c, 0, 64, 0
2, 176211, Note_on_c, 0, 62, 82
2, 176278, Note_on_c, 0, 62, 0
2, 176323, Note_on_c, 0, 64, 77
2, 176399, Note_on_c, 0, 64, 0
2, 176454, Note_on_c, 0, 60, 84
2, 176516, Note_on_c, 0, 60, 0
2, 176574, Note_on_c, 0, 62, 75
2, 176635, Note_on_c, 0, 62, 0
2, 176694, Note_on_c, 0, 59, 88
2, 176775, Note_on_c, 0, 65, 0
2, 176792, Note_on_c, 0, 59, 0
2, 176813, Note_on_c, 0, 57, 74
2, 176882, Note_on_c, 0, 57, 0
2, 176927, Note_on_c, 0, 74, 89
2, 176932, Note_on_c, 0, 59, 84
2, 176981, Control_c, 0, 64, 22
2, 176993, Note_on_c, 0, 59, 0
2, 177034, Note_on_c, 0, 74, 0
2, 177041, Note_on_c, 0, 72, 85
2, 177050, Note_on_c, 0, 60, 73
2, 177098, Note_on_c, 0, 60, 0
2, 177158, Note_on_c, 0, 59, 85
2, 177158, Note_on_c, 0, 74, 96
2, 177183, Note_on_c, 0, 72, 0
2, 177212, Note_on_c, 0, 59, 0
2, 177221, Note_on_c, 0, 74, 0
2, 177268, Control_c, 0, 64, 21
2, 177271, Note_on_c, 0, 60, 75
2, 177360, Note_on_c, 0, 60, 0
2, 177395, Note_on_c, 0, 57, 75
2, 177400, Note_on_c, 0, 65, 93
2, 177456, Note_on_c, 0, 65, 0
2, 177459, Control_c, 0, 64, 20
2, 177497, Note_on_c, 0, 57, 0
2, 177515, Note_on_c, 0, 59, 77
2, 177546, Note_on_c, 0, 59, 0
2, 177649, Note_on_c, 0, 60, 90
2, 177649, Note_on_c, 0, 64, 93
2, 177786, Note_on_c, 0, 62, 70
2, 177786, Note_on_c, 0, 64, 0
2, 177908, Note_on_c, 0, 48, 92
2, 177917, Note_on_c, 0, 64, 83
2, 177941, Control_c, 0, 64, 19
2, 177957, Note_on_c, 0, 62, 0
2, 177961, Control_c, 0, 64, 17
2, 177978, Control_c, 0, 64, 16
2, 178012, Note_on_c, 0, 47, 83
2, 178020, Note_on_c, 0, 48, 0
2, 178041, Note_on_c, 0, 65, 66
2, 178053, Note_on_c, 0, 64, 0
2, 178111, Note_on_c, 0, 60, 0
2, 178144, Note_on_c, 0, 48, 99
2, 178161, Note_on_c, 0, 47, 0
2, 178168, Note_on_c, 0, 64, 85
2, 178174, Note_on_c, 0, 65, 0
2, 178190, Note_on_c, 0, 48, 0
2, 178201, Note_on_c, 0, 60, 4
2, 178226, Note_on_c, 0, 60, 0
2, 178278, Note_on_c, 0, 64, 0
2, 178287, Control_c, 0, 64, 17
2, 178315, Note_on_c, 0, 65, 37
2, 178356, Note_on_c, 0, 65, 0
2, 178396, Note_on_c, 0, 43, 89
2, 178405, Note_on_c, 0, 62, 87
2, 178416, Note_on_c, 0, 59, 74
2, 178433, Note_on_c, 0, 43, 0
2, 178459, Control_c, 0, 64, 16
2, 178459, Note_on_c, 0, 59, 0
2, 178474, Note_on_c, 0, 62, 0
2, 178531, Note_on_c, 0, 64, 76
2, 178572, Note_on_c, 0, 64, 0
2, 178595, Control_c, 0, 64, 17
2, 178613, Control_c, 0, 64, 18
2, 178669, Note_on_c, 0, 52, 94
2, 178680, Note_on_c, 0, 60, 95
2, 178806, Note_on_c, 0, 59, 75
2, 178856, Note_on_c, 0, 60, 0
2, 178928, Note_on_c, 0, 57, 71
2, 178957, Note_on_c, 0, 59, 0
2, 178975, Control_c, 0, 64, 17
2, 179036, Note_on_c, 0, 60, 71
2, 179059, Note_on_c, 0, 57, 0
2, 179111, Control_c, 0, 64, 18
2, 179184, Note_on_c, 0, 50, 87
2, 179189, Note_on_c, 0, 52, 0
2, 179193, Note_on_c, 0, 59, 71
2, 179209, Control_c, 0, 64, 17
2, 179242, Note_on_c, 0, 60, 0
2, 179301, Note_on_c, 0, 57, 71
2, 179312, Note_on_c, 0, 59, 0
2, 179410, Note_on_c, 0, 57, 0
2, 179419, Note_on_c, 0, 55, 63
2, 179469, Note_on_c, 0, 55, 0
2, 179517, Note_on_c, 0, 59, 70
2, 179590, Note_on_c, 0, 59, 0
2, 179671, Note_on_c, 0, 57, 80
2, 179931, Note_on_c, 0, 50, 0
2, 179959, Note_on_c, 0, 48, 57
2, 179972, Note_on_c, 0, 55, 66
2, 179972, Note_on_c, 0, 57, 0
2, 180012, Note_on_c, 0, 48, 0
2, 180076, Note_on_c, 0, 47, 47
2, 180105, Control_c, 0, 64, 18
2, 180167, Note_on_c, 0, 47, 0
2, 180188, Note_on_c, 0, 48, 60
2, 180206, Note_on_c, 0, 54, 65
2, 180206, Note_on_c, 0, 55, 0
2, 180247, Note_on_c, 0, 48, 0
2, 180296, Note_on_c, 0, 50, 62
2, 180382, Note_on_c, 0, 50, 0
2, 180436, Note_on_c, 0, 47, 48
2, 180456, Note_on_c, 0, 54, 0
2, 180456, Note_on_c, 0, 55, 62
2, 180485, Note_on_c, 0, 47, 0
2, 180555, Note_on_c, 0, 48, 53
2, 180618, Note_on_c, 0, 48, 0
2, 180686, Note_on_c, 0, 45, 60
2, 180691, Note_on_c, 0, 60, 70
2, 180698, Note_on_c, 0, 55, 0
2, 180756, Note_on_c, 0, 45, 0
2, 180818, Note_on_c, 0, 48, 54
2, 180819, Control_c, 0, 64, 19
2, 180828, Note_on_c, 0, 54, 51
2, 180874, Note_on_c, 0, 48, 0
2, 180878, Note_on_c, 0, 54, 0
2, 180948, Note_on_c, 0, 47, 61
2, 180953, Note_on_c, 0, 55, 59
2, 181006, Note_on_c, 0, 55, 0
2, 181054, Note_on_c, 0, 52, 66
2, 181067, Note_on_c, 0, 47, 0
2, 181089, Note_on_c, 0, 48, 50
2, 181135, Note_on_c, 0, 48, 0
2, 181139, Note_on_c, 0, 52, 0
2, 181199, Note_on_c, 0, 50, 66
2, 181199, Note_on_c, 0, 54, 68
2, 181269, Note_on_c, 0, 50, 0
2, 181312, Note_on_c, 0, 52, 58
2, 181394, Note_on_c, 0, 60, 0
2, 181403, Note_on_c, 0, 54, 0
2, 181407, Note_on_c, 0, 52, 0
2, 181436, Note_on_c, 0, 48, 56
2, 181440, Note_on_c, 0, 57, 79
2, 181474, Note_on_c, 0, 57, 0
2, 181525, Note_on_c, 0, 48, 0
2, 181551, Note_on_c, 0, 50, 60
2, 181636, Note_on_c, 0, 50, 0
2, 181680, Note_on_c, 0, 47, 62
2, 181687, Note_on_c, 0, 62, 87
2, 181794, Note_on_c, 0, 47, 0
2, 181807, Note_on_c, 0, 50, 58
2, 181925, Note_on_c, 0, 50, 0
2, 181936, Note_on_c, 0, 59, 78
2, 181954, Note_on_c, 0, 48, 55
2, 181974, Note_on_c, 0, 59, 0
2, 182047, Note_on_c, 0, 48, 0
2, 182080, Note_on_c, 0, 50, 67
2, 182209, Note_on_c, 0, 50, 0
2, 182209, Note_on_c, 0, 55, 82
2, 182213, Note_on_c, 0, 52, 72
2, 182267, Note_on_c, 0, 52, 0
2, 182322, Note_on_c, 0, 53, 69
2, 182333, Note_on_c, 0, 62, 0
2, 182372, Control_c, 0, 64, 20
2, 182432, Note_on_c, 0, 53, 0
2, 182446, Note_on_c, 0, 50, 66
2, 182450, Note_on_c, 0, 55, 0
2, 182450, Note_on_c, 0, 59, 82
2, 182477, Note_on_c, 0, 59, 0
2, 182551, Note_on_c, 0, 50, 0
2, 182559, Note_on_c, 0, 52, 72
2, 182637, Note_on_c, 0, 52, 0
2, 182687, Note_on_c, 0, 48, 74
2, 182691, Note_on_c, 0, 64, 94
2, 182798, Note_on_c, 0, 48, 0
2, 182813, Note_on_c, 0, 52, 72
2, 182917, Note_on_c, 0, 52, 0
2, 182936, Note_on_c, 0, 60, 77
2, 182951, Note_on_c, 0, 50, 68
2, 182978, Note_on_c, 0, 60, 0
2, 183038, Note_on_c, 0, 50, 0
2, 183068, Note_on_c, 0, 52, 71
2, 183202, Note_on_c, 0, 52, 0
2, 183202, Note_on_c, 0, 53, 71
2, 183213, Note_on_c, 0, 57, 83
2, 183268, Note_on_c, 0, 53, 0
2, 183294, Note_on_c, 0, 64, 0
2, 183310, Note_on_c, 0, 55, 75
2, 183437, Note_on_c, 0, 52, 73
2, 183441, Note_on_c, 0, 55, 0
2, 183453, Note_on_c, 0, 60, 82
2, 183462, Note_on_c, 0, 57, 0
2, 183486, Note_on_c, 0, 60, 0
2, 183554, Note_on_c, 0, 52, 0
2, 183569, Note_on_c, 0, 53, 71
2, 183581, Control_c, 0, 64, 21
2, 183680, Control_c, 0, 64, 22
2, 183680, Note_on_c, 0, 53, 0
2, 183685, Note_on_c, 0, 65, 90
2, 183694, Note_on_c, 0, 50, 73
2, 183812, Note_on_c, 0, 50, 0
2, 183814, Note_on_c, 0, 53, 75
2, 183932, Note_on_c, 0, 53, 0
2, 183946, Note_on_c, 0, 62, 75
2, 183955, Note_on_c, 0, 52, 76
2, 183992, Note_on_c, 0, 62, 0
2, 184070, Note_on_c, 0, 52, 0
2, 184079, Note_on_c, 0, 53, 70
2, 184189, Note_on_c, 0, 65, 0
2, 184211, Note_on_c, 0, 55, 77
2, 184211, Note_on_c, 0, 59, 88
2, 184215, Note_on_c, 0, 53, 0
2, 184282, Note_on_c, 0, 55, 0
2, 184330, Note_on_c, 0, 57, 77
2, 184443, Note_on_c, 0, 57, 0
2, 184454, Note_on_c, 0, 53, 75
2, 184457, Note_on_c, 0, 62, 81
2, 184462, Note_on_c, 0, 59, 0
2, 184517, Note_on_c, 0, 62, 0
2, 184545, Note_on_c, 0, 53, 0
2, 184571, Note_on_c, 0, 55, 79
2, 184646, Note_on_c, 0, 55, 0
2, 184687, Note_on_c, 0, 67, 91
2, 184692, Note_on_c, 0, 52, 80
2, 184809, Note_on_c, 0, 52, 0
2, 184828, Note_on_c, 0, 50, 75
2, 184941, Note_on_c, 0, 52, 82
2, 184946, Note_on_c, 0, 50, 0
2, 184957, Note_on_c, 0, 59, 80
2, 184986, Note_on_c, 0, 67, 0
2, 185015, Note_on_c, 0, 52, 0
2, 185026, Note_on_c, 0, 59, 0
2, 185063, Note_on_c, 0, 53, 78
2, 185157, Note_on_c, 0, 53, 0
2, 185178, Note_on_c, 0, 52, 83
2, 185187, Note_on_c, 0, 69, 88
2, 185196, Note_on_c, 0, 60, 79
2, 185229, Note_on_c, 0, 60, 0
2, 185242, Note_on_c, 0, 69, 0
2, 185249, Note_on_c, 0, 52, 0
2, 185297, Note_on_c, 0, 53, 75
2, 185401, Note_on_c, 0, 53, 0
2, 185423, Note_on_c, 0, 71, 89
2, 185426, Note_on_c, 0, 50, 83
2, 185432, Note_on_c, 0, 62, 81
2, 185470, Note_on_c, 0, 62, 0
2, 185493, Note_on_c, 0, 50, 0
2, 185510, Note_on_c, 0, 71, 0
2, 185546, Note_on_c, 0, 52, 80
2, 185660, Note_on_c, 0, 52, 0
2, 185662, Note_on_c, 0, 72, 92
2, 185669, Note_on_c, 0, 64, 90
2, 185671, Note_on_c, 0, 48, 83
2, 185733, Control_c, 0, 64, 21
2, 185768, Note_on_c, 0, 48, 0
2, 185792, Note_on_c, 0, 50, 78
2, 185792, Note_on_c, 0, 64, 0
2, 185875, Note_on_c, 0, 50, 0
2, 185925, Note_on_c, 0, 67, 82
2, 185940, Note_on_c, 0, 52, 77
2, 186033, Note_on_c, 0, 65, 80
2, 186038, Note_on_c, 0, 52, 0
2, 186045, Note_on_c, 0, 50, 71
2, 186045, Note_on_c, 0, 67, 0
2, 186100, Note_on_c, 0, 65, 0
2, 186105, Note_on_c, 0, 50, 0
2, 186159, Note_on_c, 0, 67, 88
2, 186178, Note_on_c, 0, 48, 73
2, 186228, Note_on_c, 0, 67, 0
2, 186240, Note_on_c, 0, 48, 0
2, 186279, Note_on_c, 0, 46, 72
2, 186326, Note_on_c, 0, 46, 0
2, 186395, Note_on_c, 0, 60, 82
2, 186397, Note_on_c, 0, 45, 75
2, 186439, Note_on_c, 0, 60, 0
2, 186468, Note_on_c, 0, 45, 0
2, 186503, Note_on_c, 0, 43, 73
2, 186624, Note_on_c, 0, 43, 0
2, 186628, Note_on_c, 0, 69, 85
2, 186635, Note_on_c, 0, 41, 77
2, 186673, Note_on_c, 0, 67, 80
2, 186681, Note_on_c, 0, 69, 0
2, 186732, Control_c, 0, 64, 20
2, 186736, Note_on_c, 0, 69, 81
2, 186761, Note_on_c, 0, 41, 0
2, 186768, Note_on_c, 0, 67, 0
2, 186789, Note_on_c, 0, 40, 62
2, 186892, Note_on_c, 0, 40, 0
2, 186901, Note_on_c, 0, 41, 77
2, 187021, Note_on_c, 0, 41, 0
2, 187032, Note_on_c, 0, 43, 76
2, 187038, Control_c, 0, 64, 21
2, 187138, Note_on_c, 0, 43, 0
2, 187156, Note_on_c, 0, 41, 79
2, 187163, Note_on_c, 0, 67, 83
2, 187214, Note_on_c, 0, 69, 0
2, 187282, Note_on_c, 0, 43, 80
2, 187285, Note_on_c, 0, 41, 0
2, 187426, Note_on_c, 0, 40, 74
2, 187426, Note_on_c, 0, 43, 0
2, 187462, Control_c, 0, 64, 22
2, 187531, Note_on_c, 0, 67, 0
2, 187544, Note_on_c, 0, 41, 82
2, 187550, Note_on_c, 0, 40, 0
2, 187617, Note_on_c, 0, 41, 0
2, 187664, Note_on_c, 0, 38, 80
2, 187783, Note_on_c, 0, 38, 0
2, 187783, Note_on_c, 0, 45, 82
2, 187856, Note_on_c, 0, 45, 0
2, 187915, Note_on_c, 0, 47, 76
2, 187941, Note_on_c, 0, 65, 76
2, 187980, Note_on_c, 0, 47, 0
2, 188036, Note_on_c, 0, 48, 73
2, 188047, Note_on_c, 0, 65, 0
2, 188050, Note_on_c, 0, 64, 80
2, 188162, Note_on_c, 0, 48, 0
2, 188162, Note_on_c, 0, 50, 87
2, 188171, Note_on_c, 0, 65, 82
2, 188186, Note_on_c, 0, 64, 0
2, 188230, Note_on_c, 0, 50, 0
2, 188283, Note_on_c, 0, 67, 86
2, 188292, Note_on_c, 0, 52, 88
2, 188312, Note_on_c, 0, 65, 0
2, 188356, Note_on_c, 0, 52, 0
2, 188415, Note_on_c, 0, 53, 83
2, 188415, Note_on_c, 0, 67, 0
2, 188424, Note_on_c, 0, 64, 79
2, 188472, Note_on_c, 0, 53, 0
2, 188516, Note_on_c, 0, 50, 85
2, 188522, Note_on_c, 0, 64, 0
2, 188533, Note_on_c, 0, 65, 76
2, 188557, Control_c, 0, 64, 21
2, 188612, Note_on_c, 0, 50, 0
2, 188652, Note_on_c, 0, 55, 95
2, 188657, Note_on_c, 0, 65, 0
2, 188663, Note_on_c, 0, 62, 80
2, 188767, Note_on_c, 0, 62, 0
2, 188783, Note_on_c, 0, 65, 74
2, 188848, Note_on_c, 0, 72, 0
2, 188875, Note_on_c, 0, 65, 0
2, 188915, Note_on_c, 0, 64, 72
2, 189008, Note_on_c, 0, 65, 76
2, 189021, Note_on_c, 0, 64, 0
2, 189079, Note_on_c, 0, 65, 0
2, 189149, Note_on_c, 0, 71, 97
2, 189165, Note_on_c, 0, 67, 83
2, 189195, Note_on_c, 0, 67, 0
2, 189281, Note_on_c, 0, 69, 74
2, 189417, Note_on_c, 0, 65, 59
2, 189441, Note_on_c, 0, 69, 0
2, 189516, Note_on_c, 0, 67, 77
2, 189530, Note_on_c, 0, 71, 0
2, 189557, Note_on_c, 0, 65, 0
2, 189611, Note_on_c, 0, 67, 0
2, 189647, Note_on_c, 0, 64, 81
2, 189717, Note_on_c, 0, 64, 0
2, 189760, Note_on_c, 0, 62, 78
2, 189791, Note_on_c, 0, 62, 0
2, 189880, Note_on_c, 0, 64, 89
2, 189884, Note_on_c, 0, 72, 90
2, 189971, Note_on_c, 0, 64, 0
2, 189978, Note_on_c, 0, 72, 0
2, 189985, Note_on_c, 0, 71, 82
2, 189996, Note_on_c, 0, 65, 78
2, 190101, Note_on_c, 0, 71, 0
2, 190105, Note_on_c, 0, 65, 0
2, 190105, Note_on_c, 0, 72, 93
2, 190116, Note_on_c, 0, 64, 86
2, 190178, Note_on_c, 0, 64, 0
2, 190195, Note_on_c, 0, 72, 0
2, 190232, Note_on_c, 0, 65, 66
2, 190257, Note_on_c, 0, 65, 0
2, 190348, Note_on_c, 0, 62, 80
2, 190348, Note_on_c, 0, 67, 82
2, 190381, Note_on_c, 0, 62, 0
2, 190396, Note_on_c, 0, 67, 0
2, 190401, Control_c, 0, 64, 20
2, 190594, Note_on_c, 0, 60, 68
2, 190594, Note_on_c, 0, 76, 95
2, 190603, Note_on_c, 0, 55, 0
2, 190644, Note_on_c, 0, 74, 83
2, 190644, Note_on_c, 0, 76, 0
2, 190679, Note_on_c, 0, 60, 0
2, 190708, Note_on_c, 0, 59, 73
2, 190712, Note_on_c, 0, 76, 90
2, 190743, Note_on_c, 0, 74, 0
2, 190829, Note_on_c, 0, 59, 0
2, 190836, Note_on_c, 0, 60, 66
2, 190919, Note_on_c, 0, 60, 0
2, 190956, Note_on_c, 0, 62, 70
2, 191011, Note_on_c, 0, 62, 0
2, 191015, Note_on_c, 0, 76, 0
2, 191073, Note_on_c, 0, 60, 75
2, 191084, Note_on_c, 0, 74, 89
2, 191136, Note_on_c, 0, 60, 0
2, 191199, Note_on_c, 0, 62, 69
2, 191228, Control_c, 0, 64, 21
2, 191305, Note_on_c, 0, 62, 0
2, 191312, Note_on_c, 0, 59, 67
2, 191380, Note_on_c, 0, 59, 0
2, 191429, Note_on_c, 0, 60, 77
2, 191500, Note_on_c, 0, 60, 0
2, 191549, Note_on_c, 0, 57, 86
2, 191672, Note_on_c, 0, 57, 0
2, 191681, Note_on_c, 0, 59, 78
2, 191696, Note_on_c, 0, 74, 0
2, 191791, Note_on_c, 0, 59, 0
2, 191796, Note_on_c, 0, 60, 82
2, 191800, Note_on_c, 0, 72, 85
2, 191859, Note_on_c, 0, 60, 0
2, 191914, Note_on_c, 0, 62, 76
2, 191916, Note_on_c, 0, 71, 84
2, 191920, Note_on_c, 0, 72, 0
2, 191982, Note_on_c, 0, 71, 0
2, 191987, Note_on_c, 0, 62, 0
2, 192018, Note_on_c, 0, 64, 82
2, 192039, Note_on_c, 0, 72, 88
2, 192076, Note_on_c, 0, 71, 28
2, 192095, Note_on_c, 0, 64, 0
2, 192110, Note_on_c, 0, 71, 0
2, 192141, Note_on_c, 0, 66, 79
2, 192150, Note_on_c, 0, 72, 0
2, 192150, Note_on_c, 0, 74, 81
2, 192174, Note_on_c, 0, 66, 0
2, 192267, Note_on_c, 0, 59, 92
2, 192267, Note_on_c, 0, 71, 81
2, 192270, Note_on_c, 0, 67, 86
2, 192274, Note_on_c, 0, 74, 0
2, 192302, Note_on_c, 0, 59, 0
2, 192388, Note_on_c, 0, 72, 84
2, 192410, Note_on_c, 0, 71, 0
2, 192441, Note_on_c, 0, 67, 0
2, 192513, Note_on_c, 0, 69, 85
2, 192517, Note_on_c, 0, 60, 91
2, 192521, Note_on_c, 0, 72, 0
2, 192575, Note_on_c, 0, 60, 0
2, 192635, Note_on_c, 0, 72, 86
2, 192652, Note_on_c, 0, 69, 0
2, 192759, Note_on_c, 0, 71, 86
2, 192773, Note_on_c, 0, 57, 90
2, 192773, Note_on_c, 0, 67, 74
2, 192777, Note_on_c, 0, 72, 0
2, 192808, Note_on_c, 0, 57, 0
2, 192824, Note_on_c, 0, 71, 0
2, 192828, Note_on_c, 0, 67, 0
2, 192877, Note_on_c, 0, 72, 84
2, 192937, Note_on_c, 0, 72, 0
2, 193009, Note_on_c, 0, 74, 92
2, 193020, Note_on_c, 0, 62, 88
2, 193078, Note_on_c, 0, 62, 0
2, 193134, Note_on_c, 0, 74, 0
2, 193134, Note_on_c, 0, 76, 82
2, 193280, Note_on_c, 0, 50, 82
2, 193280, Note_on_c, 0, 66, 86
2, 193280, Note_on_c, 0, 72, 88
2, 193284, Note_on_c, 0, 76, 0
2, 193310, Note_on_c, 0, 50, 0
2, 193359, Note_on_c, 0, 66, 0
2, 193404, Note_on_c, 0, 74, 77
2, 193433, Note_on_c, 0, 72, 0
2, 193547, Note_on_c, 0, 74, 0
2, 193551, Note_on_c, 0, 67, 72
2, 193556, Note_on_c, 0, 43, 72
2, 193556, Note_on_c, 0, 71, 83
2, 193604, Control_c, 0, 64, 20
2, 193674, Note_on_c, 0, 43, 0
2, 193685, Note_on_c, 0, 42, 67
2, 193719, Control_c, 0, 64, 21
2, 193752, Note_on_c, 0, 42, 0
2, 193818, Note_on_c, 0, 43, 64
2, 193836, Note_on_c, 0, 74, 73
2, 193850, Note_on_c, 0, 71, 0
2, 193863, Note_on_c, 0, 67, 0
2, 193907, Note_on_c, 0, 43, 0
2, 193925, Note_on_c, 0, 45, 66
2, 193925, Note_on_c, 0, 74, 0
2, 193940, Note_on_c, 0, 72, 77
2, 193975, Note_on_c, 0, 45, 0
2, 194054, Note_on_c, 0, 47, 64
2, 194067, Note_on_c, 0, 74, 81
2, 194072, Note_on_c, 0, 72, 0
2, 194104, Note_on_c, 0, 74, 0
2, 194121, Note_on_c, 0, 47, 0
2, 194168, Note_on_c, 0, 48, 54
2, 194231, Note_on_c, 0, 48, 0
2, 194289, Note_on_c, 0, 45, 51
2, 194306, Note_on_c, 0, 67, 79
2, 194338, Note_on_c, 0, 67, 0
2, 194362, Note_on_c, 0, 45, 0
2, 194405, Note_on_c, 0, 47, 50
2, 194476, Note_on_c, 0, 47, 0
2, 194544, Note_on_c, 0, 48, 53
2, 194550, Note_on_c, 0, 76, 88
2, 194609, Note_on_c, 0, 48, 0
2, 194684, Note_on_c, 0, 47, 49
2, 194768, Note_on_c, 0, 47, 0
2, 194806, Note_on_c, 0, 48, 59
2, 194806, Note_on_c, 0, 67, 73
2, 194817, Note_on_c, 0, 76, 0
2, 194856, Note_on_c, 0, 48, 0
2, 194880, Note_on_c, 0, 67, 0
2, 194922, Note_on_c, 0, 65, 65
2, 194923, Note_on_c, 0, 50, 61
2, 194981, Note_on_c, 0, 50, 0
2, 194994, Note_on_c, 0, 65, 0
2, 195048, Note_on_c, 0, 74, 78
2, 195061, Note_on_c, 0, 67, 65
2, 195083, Control_c, 0, 64, 22
2, 195087, Note_on_c, 0, 48, 29
2, 195108, Note_on_c, 0, 67, 0
2, 195139, Note_on_c, 0, 48, 0
2, 195152, Note_on_c, 0, 50, 33
2, 195266, Note_on_c, 0, 50, 0
2, 195298, Note_on_c, 0, 62, 77
2, 195303, Note_on_c, 0, 47, 60
2, 195337, Note_on_c, 0, 62, 0
2, 195354, Note_on_c, 0, 47, 0
2, 195357, Note_on_c, 0, 74, 0
2, 195408, Note_on_c, 0, 48, 65
2, 195460, Note_on_c, 0, 48, 0
2, 195546, Note_on_c, 0, 45, 61
2, 195551, Note_on_c, 0, 69, 73
2, 195551, Note_on_c, 0, 72, 83
2, 195632, Note_on_c, 0, 45, 0
2, 195670, Note_on_c, 0, 44, 60
2, 195716, Control_c, 0, 64, 23
2, 195734, Control_c, 0, 64, 24
2, 195772, Note_on_c, 0, 44, 0
2, 195796, Note_on_c, 0, 45, 57
2, 195796, Note_on_c, 0, 76, 80
2, 195798, Note_on_c, 0, 72, 0
2, 195814, Note_on_c, 0, 69, 0
2, 195841, Note_on_c, 0, 45, 0
2, 195897, Note_on_c, 0, 76, 0
2, 195902, Note_on_c, 0, 47, 59
2, 195906, Note_on_c, 0, 74, 81
2, 195957, Note_on_c, 0, 47, 0
2, 196001, Note_on_c, 0, 48, 63
2, 196023, Note_on_c, 0, 76, 90
2, 196039, Note_on_c, 0, 67, 73
2, 196039, Note_on_c, 0, 74, 0
2, 196075, Note_on_c, 0, 48, 0
2, 196095, Note_on_c, 0, 76, 0
2, 196128, Note_on_c, 0, 50, 67
2, 196197, Control_c, 0, 64, 25
2, 196208, Note_on_c, 0, 50, 0
2, 196266, Note_on_c, 0, 47, 60
2, 196284, Note_on_c, 0, 69, 87
2, 196293, Note_on_c, 0, 67, 0
2, 196310, Control_c, 0, 64, 23
2, 196315, Note_on_c, 0, 69, 0
2, 196331, Control_c, 0, 64, 22
2, 196357, Note_on_c, 0, 47, 0
2, 196380, Note_on_c, 0, 48, 57
2, 196479, Note_on_c, 0, 48, 0
2, 196483, Control_c, 0, 64, 23
2, 196525, Note_on_c, 0, 50, 61
2, 196532, Note_on_c, 0, 77, 101
2, 196536, Note_on_c, 0, 65, 92
2, 196593, Note_on_c, 0, 50, 0
2, 196616, Control_c, 0, 64, 22
2, 196661, Note_on_c, 0, 48, 56
2, 196677, Control_c, 0, 64, 23
2, 196752, Note_on_c, 0, 65, 0
2, 196756, Control_c, 0, 64, 25
2, 196787, Note_on_c, 0, 48, 0
2, 196801, Note_on_c, 0, 50, 70
2, 196801, Note_on_c, 0, 69, 83
2, 196816, Note_on_c, 0, 77, 0
2, 196865, Note_on_c, 0, 50, 0
2, 196886, Note_on_c, 0, 69, 0
2, 196903, Note_on_c, 0, 67, 87
2, 196928, Note_on_c, 0, 52, 61
2, 196985, Note_on_c, 0, 67, 0
2, 196989, Note_on_c, 0, 52, 0
2, 197028, Note_on_c, 0, 76, 100
2, 197032, Note_on_c, 0, 69, 83
2, 197037, Note_on_c, 0, 50, 72
2, 197060, Control_c, 0, 64, 24
2, 197071, Note_on_c, 0, 69, 0
2, 197080, Control_c, 0, 64, 23
2, 197084, Note_on_c, 0, 50, 0
2, 197152, Note_on_c, 0, 52, 69
2, 197234, Control_c, 0, 64, 24
2, 197268, Note_on_c, 0, 52, 0
2, 197277, Note_on_c, 0, 64, 91
2, 197289, Note_on_c, 0, 48, 66
2, 197315, Note_on_c, 0, 76, 0
2, 197329, Note_on_c, 0, 64, 0
2, 197361, Note_on_c, 0, 48, 0
2, 197409, Note_on_c, 0, 50, 75
2, 197475, Note_on_c, 0, 50, 0
2, 197539, Note_on_c, 0, 71, 89
2, 197541, Note_on_c, 0, 47, 75
2, 197541, Note_on_c, 0, 74, 88
2, 197582, Control_c, 0, 64, 23
2, 197656, Note_on_c, 0, 47, 0
2, 197682, Note_on_c, 0, 45, 60
2, 197693, Control_c, 0, 64, 24
2, 197790, Note_on_c, 0, 77, 88
2, 197794, Note_on_c, 0, 74, 0
2, 197799, Note_on_c, 0, 47, 70
2, 197810, Note_on_c, 0, 45, 0
2, 197821, Note_on_c, 0, 71, 0
2, 197900, Note_on_c, 0, 76, 89
2, 197904, Note_on_c, 0, 77, 0
2, 197926, Note_on_c, 0, 47, 0
2, 197930, Note_on_c, 0, 48, 68
2, 197994, Note_on_c, 0, 48, 0
2, 198030, Note_on_c, 0, 69, 87
2, 198030, Note_on_c, 0, 77, 93
2, 198041, Note_on_c, 0, 50, 73
2, 198041, Note_on_c, 0, 76, 0
2, 198097, Note_on_c, 0, 77, 0
2, 198129, Note_on_c, 0, 50, 0
2, 198155, Note_on_c, 0, 52, 70
2, 198174, Control_c, 0, 64, 25
2, 198228, Note_on_c, 0, 52, 0
2, 198270, Note_on_c, 0, 48, 69
2, 198270, Note_on_c, 0, 71, 93
2, 198282, Note_on_c, 0, 69, 0
2, 198308, Note_on_c, 0, 71, 0
2, 198327, Control_c, 0, 64, 24
2, 198378, Note_on_c, 0, 48, 0
2, 198382, Note_on_c, 0, 50, 72
2, 198507, Note_on_c, 0, 50, 0
2, 198522, Note_on_c, 0, 79, 105
2, 198526, Note_on_c, 0, 67, 94
2, 198535, Note_on_c, 0, 52, 73
2, 198612, Note_on_c, 0, 52, 0
2, 198679, Note_on_c, 0, 50, 62
2, 198712, Control_c, 0, 64, 25
2, 198776, Note_on_c, 0, 67, 0
2, 198797, Note_on_c, 0, 71, 86
2, 198800, Note_on_c, 0, 50, 0
2, 198804, Note_on_c, 0, 52, 74
2, 198813, Note_on_c, 0, 79, 0
2, 198860, Note_on_c, 0, 52, 0
2, 198886, Note_on_c, 0, 71, 0
2, 198888, Note_on_c, 0, 69, 89
2, 198907, Note_on_c, 0, 53, 72
2, 198974, Note_on_c, 0, 69, 0
2, 198983, Note_on_c, 0, 53, 0
2, 199013, Note_on_c, 0, 77, 101
2, 199020, Note_on_c, 0, 52, 79
2, 199020, Note_on_c, 0, 71, 91
2, 199058, Note_on_c, 0, 71, 0
2, 199078, Note_on_c, 0, 52, 0
2, 199133, Note_on_c, 0, 53, 72
2, 199249, Note_on_c, 0, 53, 0
2, 199262, Note_on_c, 0, 50, 70
2, 199267, Note_on_c, 0, 67, 90
2, 199303, Note_on_c, 0, 77, 0
2, 199331, Note_on_c, 0, 50, 0
2, 199336, Note_on_c, 0, 67, 0
2, 199375, Note_on_c, 0, 52, 80
2, 199450, Note_on_c, 0, 52, 0
2, 199504, Note_on_c, 0, 48, 75
2, 199509, Note_on_c, 0, 76, 92
2, 199517, Note_on_c, 0, 72, 90
2, 199573, Note_on_c, 0, 76, 0
2, 199611, Note_on_c, 0, 48, 0
2, 199622, Note_on_c, 0, 47, 72
2, 199750, Note_on_c, 0, 48, 76
2, 199754, Note_on_c, 0, 47, 0
2, 199754, Note_on_c, 0, 77, 90
2, 199771, Note_on_c, 0, 72, 0
2, 199817, Note_on_c, 0, 77, 0
2, 199875, Note_on_c, 0, 50, 78
2, 199881, Note_on_c, 0, 48, 0
2, 199953, Note_on_c, 0, 50, 0
2, 199999, Note_on_c, 0, 79, 92
2, 200006, Note_on_c, 0, 70, 91
2, 200020, Note_on_c, 0, 52, 73
2, 200124, Note_on_c, 0, 52, 0
2, 200126, Note_on_c, 0, 53, 75
2, 200223, Note_on_c, 0, 53, 0
2, 200240, Note_on_c, 0, 50, 81
2, 200247, Control_c, 0, 64, 26
2, 200267, Control_c, 0, 64, 27
2, 200285, Control_c, 0, 64, 28
2, 200303, Control_c, 0, 64, 29
2, 200313, Note_on_c, 0, 70, 0
2, 200343, Control_c, 0, 64, 30
2, 200356, Note_on_c, 0, 52, 84
2, 200362, Control_c, 0, 64, 31
2, 200384, Control_c, 0, 64, 32
2, 200384, Note_on_c, 0, 50, 0
2, 200456, Control_c, 0, 64, 33
2, 200505, Note_on_c, 0, 53, 80
2, 200522, Note_on_c, 0, 69, 78
2, 200540, Note_on_c, 0, 52, 0
2, 200607, Note_on_c, 0, 53, 0
2, 200634, Note_on_c, 0, 55, 75
2, 200658, Note_on_c, 0, 79, 0
2, 200691, Control_c, 0, 64, 32
2, 200728, Control_c, 0, 64, 31
2, 200751, Note_on_c, 0, 53, 76
2, 200761, Note_on_c, 0, 55, 0
2, 200785, Control_c, 0, 64, 30
2, 200859, Note_on_c, 0, 53, 0
2, 200881, Note_on_c, 0, 52, 77
2, 200901, Control_c, 0, 64, 29
2, 200966, Note_on_c, 0, 52, 0
2, 201024, Note_on_c, 0, 50, 74
2, 201024, Note_on_c, 0, 77, 88
2, 201093, Note_on_c, 0, 69, 0
2, 201113, Control_c, 0, 64, 28
2, 201129, Note_on_c, 0, 50, 0
2, 201133, Note_on_c, 0, 48, 76
2, 201245, Note_on_c, 0, 48, 0
2, 201266, Note_on_c, 0, 47, 75
2, 201385, Note_on_c, 0, 47, 0
2, 201394, Note_on_c, 0, 45, 72
2, 201507, Note_on_c, 0, 45, 0
2, 201529, Note_on_c, 0, 47, 66
2, 201555, Note_on_c, 0, 67, 68
2, 201577, Note_on_c, 0, 47, 0
2, 201671, Note_on_c, 0, 43, 72
2, 201757, Note_on_c, 0, 77, 0
2, 201792, Note_on_c, 0, 43, 0
2, 201792, Note_on_c, 0, 45, 71
2, 201920, Note_on_c, 0, 47, 76
2, 201938, Control_c, 0, 64, 29
2, 201940, Note_on_c, 0, 45, 0
2, 202044, Note_on_c, 0, 48, 71
2, 202053, Note_on_c, 0, 76, 91
2, 202075, Note_on_c, 0, 47, 0
2, 202128, Control_c, 0, 64, 30
2, 202137, Note_on_c, 0, 48, 0
2, 202139, Note_on_c, 0, 67, 0
2, 202150, Note_on_c, 0, 50, 64
2, 202260, Note_on_c, 0, 47, 66
2, 202265, Note_on_c, 0, 50, 0
2, 202371, Note_on_c, 0, 47, 0
2, 202384, Note_on_c, 0, 48, 67
2, 202463, Note_on_c, 0, 48, 0
2, 202531, Note_on_c, 0, 45, 58
2, 202555, Note_on_c, 0, 65, 62
2, 202614, Note_on_c, 0, 45, 0
2, 202646, Note_on_c, 0, 48, 60
2, 202736, Note_on_c, 0, 48, 0
2, 202745, Control_c, 0, 64, 31
2, 202762, Control_c, 0, 64, 33
2, 202781, Control_c, 0, 64, 34
2, 202781, Note_on_c, 0, 47, 65
2, 202804, Control_c, 0, 64, 35
2, 202820, Control_c, 0, 64, 36
2, 202838, Control_c, 0, 64, 37
2, 202845, Note_on_c, 0, 76, 0
2, 202861, Control_c, 0, 64, 38
2, 202877, Control_c, 0, 64, 39
2, 202897, Control_c, 0, 64, 40
2, 202902, Note_on_c, 0, 48, 71
2, 202926, Note_on_c, 0, 47, 0
2, 202986, Note_on_c, 0, 48, 0
2, 203043, Note_on_c, 0, 50, 70
2, 203043, Note_on_c, 0, 74, 84
2, 203155, Note_on_c, 0, 50, 0
2, 203160, Note_on_c, 0, 52, 73
2, 203270, Note_on_c, 0, 52, 0
2, 203277, Note_on_c, 0, 53, 73
2, 203290, Note_on_c, 0, 72, 93
2, 203337, Control_c, 0, 64, 41
2, 203377, Note_on_c, 0, 53, 0
2, 203379, Control_c, 0, 64, 43
2, 203396, Control_c, 0, 64, 44
2, 203408, Note_on_c, 0, 50, 73
2, 203415, Control_c, 0, 64, 45
2, 203471, Control_c, 0, 64, 46
2, 203531, Note_on_c, 0, 50, 0
2, 203555, Note_on_c, 0, 71, 85
2, 203568, Note_on_c, 0, 55, 66
2, 203658, Note_on_c, 0, 74, 0
2, 203684, Control_c, 0, 64, 45
2, 203693, Note_on_c, 0, 57, 74
2, 203698, Note_on_c, 0, 55, 0
2, 203761, Control_c, 0, 64, 44
2, 203798, Control_c, 0, 64, 43
2, 203804, Note_on_c, 0, 57, 0
2, 203811, Note_on_c, 0, 67, 85
2, 203811, Note_on_c, 0, 72, 0
2, 203816, Note_on_c, 0, 53, 69
2, 203836, Control_c, 0, 64, 42
2, 203860, Note_on_c, 0, 71, 0
2, 203869, Note_on_c, 0, 65, 0
2, 203914, Note_on_c, 0, 53, 0
2, 203919, Control_c, 0, 64, 41
2, 203932, Note_on_c, 0, 55, 69
2, 203989, Control_c, 0, 64, 40
2, 204079, Note_on_c, 0, 55, 0
2, 204079, Note_on_c, 0, 57, 67
2, 204090, Note_on_c, 0, 72, 85
2, 204099, Note_on_c, 0, 64, 75
2, 204127, Note_on_c, 0, 57, 0
2, 204184, Note_on_c, 0, 59, 68
2, 204203, Note_on_c, 0, 67, 0
2, 204305, Note_on_c, 0, 59, 0
2, 204316, Control_c, 0, 64, 41
2, 204331, Note_on_c, 0, 55, 62
2, 204399, Note_on_c, 0, 64, 0
2, 204419, Note_on_c, 0, 55, 0
2, 204447, Note_on_c, 0, 57, 68
2, 204529, Note_on_c, 0, 57, 0
2, 204590, Note_on_c, 0, 53, 55
2, 204594, Note_on_c, 0, 62, 72
2, 204653, Note_on_c, 0, 53, 0
2, 204705, Note_on_c, 0, 55, 70
2, 204755, Note_on_c, 0, 72, 0
2, 204799, Note_on_c, 0, 55, 0
2, 204834, Control_c, 0, 64, 42
2, 204839, Note_on_c, 0, 52, 66
2, 204930, Note_on_c, 0, 52, 0
2, 204948, Note_on_c, 0, 53, 69
2, 205072, Note_on_c, 0, 71, 84
2, 205085, Note_on_c, 0, 53, 0
2, 205085, Note_on_c, 0, 55, 69
2, 205105, Note_on_c, 0, 62, 0
2, 205136, Note_on_c, 0, 55, 0
2, 205169, Note_on_c, 0, 57, 76
2, 205190, Note_on_c, 0, 65, 75
2, 205269, Note_on_c, 0, 71, 0
2, 205295, Note_on_c, 0, 57, 0
2, 205306, Note_on_c, 0, 53, 65
2, 205311, Note_on_c, 0, 64, 86
2, 205348, Note_on_c, 0, 65, 0
2, 205369, Note_on_c, 0, 53, 0
2, 205418, Note_on_c, 0, 64, 0
2, 205422, Note_on_c, 0, 62, 85
2, 205436, Note_on_c, 0, 55, 59
2, 205464, Note_on_c, 0, 55, 0
2, 205487, Note_on_c, 0, 62, 0
2, 205507, Control_c, 0, 64, 41
2, 205550, Note_on_c, 0, 72, 84
2, 205556, Note_on_c, 0, 52, 68
2, 205556, Note_on_c, 0, 67, 78
2, 205593, Note_on_c, 0, 52, 0
2, 205643, Note_on_c, 0, 72, 0
2, 205674, Note_on_c, 0, 69, 81
2, 205713, Note_on_c, 0, 67, 0
2, 205748, Note_on_c, 0, 69, 0
2, 205805, Note_on_c, 0, 53, 83
2, 205805, Note_on_c, 0, 74, 90
2, 205814, Note_on_c, 0, 65, 80
2, 205847, Note_on_c, 0, 53, 0
2, 205856, Control_c, 0, 64, 42
2, 205923, Note_on_c, 0, 67, 86
2, 205946, Note_on_c, 0, 65, 0
2, 205955, Note_on_c, 0, 74, 0
2, 205987, Note_on_c, 0, 67, 0
2, 206045, Note_on_c, 0, 67, 85
2, 206051, Note_on_c, 0, 64, 91
2, 206054, Note_on_c, 0, 55, 82
2, 206103, Control_c, 0, 64, 43
2, 206130, Note_on_c, 0, 55, 0
2, 206172, Note_on_c, 0, 72, 94
2, 206208, Note_on_c, 0, 64, 0
2, 206212, Note_on_c, 0, 67, 0
2, 206315, Note_on_c, 0, 62, 101
2, 206320, Note_on_c, 0, 56, 85
2, 206364, Note_on_c, 0, 72, 0
2, 206366, Note_on_c, 0, 56, 0
2, 206450, Note_on_c, 0, 71, 88
2, 206486, Control_c, 0, 64, 42
2, 206495, Note_on_c, 0, 62, 0
2, 206504, Control_c, 0, 64, 37
2, 206523, Control_c, 0, 64, 27
2, 206543, Control_c, 0, 64, 0
2, 206562, Note_on_c, 0, 71, 0
2, 206604, Control_c, 0, 64, 24
2, 206608, Note_on_c, 0, 45, 77
2, 206612, Note_on_c, 0, 60, 97
2, 206612, Note_on_c, 0, 72, 92
2, 206621, Control_c, 0, 64, 47
2, 206640, Control_c, 0, 64, 61
2, 206660, Control_c, 0, 64, 67
2, 206666, Note_on_c, 0, 72, 0
2, 206678, Note_on_c, 0, 45, 0
2, 206680, Control_c, 0, 64, 77
2, 206698, Control_c, 0, 64, 102
2, 206718, Control_c, 0, 64, 127
2, 206768, Note_on_c, 0, 65, 73
2, 206862, Note_on_c, 0, 65, 0
2, 206901, Note_on_c, 0, 55, 75
2, 206901, Note_on_c, 0, 64, 76
2, 206909, Control_c, 0, 64, 104
2, 206927, Control_c, 0, 64, 88
2, 206946, Control_c, 0, 64, 78
2, 206966, Control_c, 0, 64, 70
2, 206979, Note_on_c, 0, 53, 82
2, 206989, Control_c, 0, 64, 65
2, 206998, Note_on_c, 0, 62, 79
2, 207004, Note_on_c, 0, 55, 0
2, 207009, Control_c, 0, 64, 63
2, 207009, Note_on_c, 0, 64, 0
2, 207025, Control_c, 0, 64, 61
2, 207042, Control_c, 0, 64, 60
2, 207061, Control_c, 0, 64, 58
2, 207081, Control_c, 0, 64, 55
2, 207101, Control_c, 0, 64, 50
2, 207104, Note_on_c, 0, 55, 95
2, 207123, Control_c, 0, 64, 46
2, 207124, Note_on_c, 0, 53, 0
2, 207135, Note_on_c, 0, 64, 77
2, 207139, Control_c, 0, 64, 41
2, 207162, Control_c, 0, 64, 37
2, 207162, Note_on_c, 0, 55, 0
2, 207172, Note_on_c, 0, 62, 0
2, 207177, Control_c, 0, 64, 32
2, 207200, Control_c, 0, 64, 28
2, 207215, Control_c, 0, 64, 25
2, 207228, Note_on_c, 0, 65, 67
2, 207243, Note_on_c, 0, 64, 0
2, 207292, Control_c, 0, 64, 24
2, 207331, Control_c, 0, 64, 23
2, 207365, Note_on_c, 0, 48, 89
2, 207365, Note_on_c, 0, 62, 67
2, 207370, Note_on_c, 0, 65, 0
2, 207404, Note_on_c, 0, 48, 0
2, 207408, Control_c, 0, 64, 22
2, 207491, Note_on_c, 0, 64, 76
2, 207537, Note_on_c, 0, 62, 0
2, 207546, Control_c, 0, 64, 23
2, 207566, Control_c, 0, 64, 24
2, 207626, Note_on_c, 0, 57, 98
2, 207630, Note_on_c, 0, 65, 67
2, 207635, Note_on_c, 0, 64, 0
2, 207759, Control_c, 0, 64, 25
2, 207759, Note_on_c, 0, 65, 0
2, 207770, Note_on_c, 0, 64, 71
2, 207796, Control_c, 0, 64, 26
2, 207902, Note_on_c, 0, 65, 62
2, 207943, Note_on_c, 0, 64, 0
2, 208010, Note_on_c, 0, 65, 0
2, 208018, Note_on_c, 0, 67, 65
2, 208044, Control_c, 0, 64, 27
2, 208148, Note_on_c, 0, 55, 91
2, 208152, Note_on_c, 0, 67, 0
2, 208157, Note_on_c, 0, 65, 66
2, 208162, Note_on_c, 0, 57, 0
2, 208285, Note_on_c, 0, 67, 71
2, 208290, Note_on_c, 0, 65, 0
2, 208331, Control_c, 0, 64, 28
2, 208399, Note_on_c, 0, 67, 0
2, 208425, Note_on_c, 0, 64, 70
2, 208487, Note_on_c, 0, 64, 0
2, 208535, Note_on_c, 0, 65, 66
2, 208564, Note_on_c, 0, 60, 0
2, 208665, Note_on_c, 0, 62, 70
2, 208685, Note_on_c, 0, 65, 0
2, 208738, Note_on_c, 0, 62, 0
2, 208777, Note_on_c, 0, 60, 64
2, 208894, Note_on_c, 0, 62, 72
2, 208900, Note_on_c, 0, 53, 83
2, 208914, Note_on_c, 0, 55, 0
2, 208930, Note_on_c, 0, 60, 0
2, 208991, Note_on_c, 0, 62, 0
2, 209013, Note_on_c, 0, 52, 83
2, 209013, Note_on_c, 0, 64, 76
2, 209022, Note_on_c, 0, 53, 0
2, 209062, Control_c, 0, 64, 29
2, 209091, Note_on_c, 0, 52, 0
2, 209099, Note_on_c, 0, 64, 0
2, 209137, Note_on_c, 0, 53, 93
2, 209137, Note_on_c, 0, 62, 71
2, 209167, Note_on_c, 0, 53, 0
2, 209203, Note_on_c, 0, 62, 0
2, 209234, Note_on_c, 0, 64, 66
2, 209293, Note_on_c, 0, 64, 0
2, 209373, Note_on_c, 0, 50, 88
2, 209382, Note_on_c, 0, 60, 63
2, 209406, Note_on_c, 0, 50, 0
2, 209490, Note_on_c, 0, 62, 67
2, 209604, Note_on_c, 0, 60, 0
2, 209608, Note_on_c, 0, 62, 0
2, 209617, Note_on_c, 0, 55, 97
2, 209630, Note_on_c, 0, 64, 72
2, 209709, Note_on_c, 0, 64, 0
2, 209750, Note_on_c, 0, 62, 69
2, 209793, Control_c, 0, 64, 30
2, 209804, Note_on_c, 0, 62, 0
2, 209866, Note_on_c, 0, 64, 71
2, 209961, Note_on_c, 0, 64, 0
2, 209972, Note_on_c, 0, 65, 61
2, 210055, Note_on_c, 0, 65, 0
2, 210057, Note_on_c, 0, 55, 0
2, 210100, Note_on_c, 0, 53, 85
2, 210100, Note_on_c, 0, 64, 79
2, 210104, Note_on_c, 0, 60, 68
2, 210168, Note_on_c, 0, 64, 0
2, 210177, Note_on_c, 0, 60, 0
2, 210226, Note_on_c, 0, 65, 66
2, 210267, Note_on_c, 0, 65, 0
2, 210355, Note_on_c, 0, 62, 84
2, 210363, Note_on_c, 0, 59, 69
2, 210397, Note_on_c, 0, 62, 0
2, 210411, Note_on_c, 0, 59, 0
2, 210461, Note_on_c, 0, 64, 75
2, 210497, Note_on_c, 0, 64, 0
2, 210598, Note_on_c, 0, 60, 91
2, 210603, Note_on_c, 0, 52, 71
2, 210603, Note_on_c, 0, 53, 0
2, 210705, Note_on_c, 0, 52, 0
2, 210739, Note_on_c, 0, 50, 61
2, 210859, Note_on_c, 0, 52, 75
2, 210863, Note_on_c, 0, 50, 0
2, 210880, Note_on_c, 0, 55, 54
2, 210926, Note_on_c, 0, 52, 0
2, 210955, Note_on_c, 0, 53, 81
2, 210970, Note_on_c, 0, 55, 0
2, 211026, Note_on_c, 0, 53, 0
2, 211076, Note_on_c, 0, 52, 76
2, 211081, Note_on_c, 0, 55, 80
2, 211121, Note_on_c, 0, 55, 0
2, 211125, Note_on_c, 0, 52, 0
2, 211190, Note_on_c, 0, 53, 72
2, 211230, Control_c, 0, 64, 31
2, 211248, Note_on_c, 0, 53, 0
2, 211311, Note_on_c, 0, 48, 70
2, 211333, Note_on_c, 0, 52, 68
2, 211367, Control_c, 0, 64, 30
2, 211369, Note_on_c, 0, 52, 0
2, 211417, Note_on_c, 0, 48, 0
2, 211429, Note_on_c, 0, 50, 58
2, 211471, Note_on_c, 0, 50, 0
2, 211567, Note_on_c, 0, 53, 80
2, 211567, Note_on_c, 0, 57, 82
2, 211622, Note_on_c, 0, 53, 0
2, 211686, Note_on_c, 0, 52, 71
2, 211798, Note_on_c, 0, 52, 0
2, 211813, Note_on_c, 0, 53, 71
2, 211887, Note_on_c, 0, 53, 0
2, 211904, Control_c, 0, 64, 31
2, 211924, Note_on_c, 0, 55, 69
2, 211966, Note_on_c, 0, 57, 0
2, 211977, Note_on_c, 0, 55, 0
2, 212056, Note_on_c, 0, 53, 81
2, 212065, Note_on_c, 0, 55, 80
2, 212107, Note_on_c, 0, 53, 0
2, 212301, Note_on_c, 0, 52, 72
2, 212363, Note_on_c, 0, 52, 0
2, 212425, Note_on_c, 0, 53, 77
2, 212463, Note_on_c, 0, 53, 0
2, 212555, Note_on_c, 0, 50, 79
2, 212601, Note_on_c, 0, 55, 0
2, 212650, Note_on_c, 0, 50, 0
2, 212675, Note_on_c, 0, 48, 63
2, 212776, Note_on_c, 0, 48, 0
2, 212792, Note_on_c, 0, 50, 71
2, 212792, Note_on_c, 0, 53, 78
2, 212852, Note_on_c, 0, 50, 0
2, 212885, Control_c, 0, 64, 32
2, 212892, Note_on_c, 0, 52, 84
2, 212901, Note_on_c, 0, 53, 0
2, 212974, Note_on_c, 0, 52, 0
2, 213028, Note_on_c, 0, 53, 72
2, 213036, Note_on_c, 0, 50, 71
2, 213068, Note_on_c, 0, 53, 0
2, 213134, Note_on_c, 0, 50, 0
2, 213146, Note_on_c, 0, 48, 71
2, 213240, Note_on_c, 0, 48, 0
2, 213264, Note_on_c, 0, 50, 73
2, 213269, Note_on_c, 0, 47, 70
2, 213299, Note_on_c, 0, 50, 0
2, 213369, Note_on_c, 0, 47, 0
2, 213378, Note_on_c, 0, 45, 72
2, 213422, Note_on_c, 0, 45, 0
2, 213503, Note_on_c, 0, 55, 85
2, 213517, Note_on_c, 0, 43, 84
2, 213548, Note_on_c, 0, 60, 0
2, 213552, Note_on_c, 0, 55, 0
2, 213568, Control_c, 0, 64, 31
2, 213619, Note_on_c, 0, 43, 0
2, 213637, Note_on_c, 0, 41, 72
2, 213728, Note_on_c, 0, 41, 0
2, 213747, Note_on_c, 0, 43, 76
2, 213752, Note_on_c, 0, 59, 92
2, 213864, Note_on_c, 0, 43, 0
2, 213881, Note_on_c, 0, 45, 76
2, 213931, Control_c, 0, 64, 32
2, 213935, Note_on_c, 0, 45, 0
2, 213993, Note_on_c, 0, 60, 85
2, 214003, Note_on_c, 0, 57, 78
2, 214008, Note_on_c, 0, 43, 80
2, 214023, Note_on_c, 0, 59, 0
2, 214047, Note_on_c, 0, 57, 0
2, 214051, Control_c, 0, 64, 31
2, 214058, Note_on_c, 0, 60, 0
2, 214121, Note_on_c, 0, 41, 75
2, 214125, Note_on_c, 0, 43, 0
2, 214188, Note_on_c, 0, 41, 0
2, 214247, Note_on_c, 0, 59, 81
2, 214247, Note_on_c, 0, 62, 84
2, 214251, Note_on_c, 0, 40, 73
2, 214280, Control_c, 0, 64, 30
2, 214280, Note_on_c, 0, 59, 0
2, 214314, Note_on_c, 0, 62, 0
2, 214349, Note_on_c, 0, 40, 0
2, 214358, Note_on_c, 0, 38, 76
2, 214438, Note_on_c, 0, 38, 0
2, 214486, Note_on_c, 0, 36, 82
2, 214491, Note_on_c, 0, 60, 76
2, 214491, Note_on_c, 0, 64, 82
2, 214524, Note_on_c, 0, 60, 0
2, 214540, Note_on_c, 0, 64, 0
2, 214544, Note_on_c, 0, 36, 0
2, 214603, Note_on_c, 0, 48, 70
2, 214693, Note_on_c, 0, 48, 0
2, 214728, Note_on_c, 0, 67, 83
2, 214740, Note_on_c, 0, 52, 83
2, 214745, Note_on_c, 0, 58, 82
2, 214783, Note_on_c, 0, 52, 0
2, 214783, Note_on_c, 0, 58, 0
2, 214796, Note_on_c, 0, 67, 0
2, 214848, Note_on_c, 0, 65, 81
2, 214852, Note_on_c, 0, 48, 81
2, 214869, Note_on_c, 0, 57, 71
2, 214902, Note_on_c, 0, 57, 0
2, 214950, Note_on_c, 0, 48, 0
2, 214963, Note_on_c, 0, 67, 78
2, 214970, Note_on_c, 0, 36, 81
2, 214976, Note_on_c, 0, 58, 73
2, 214990, Note_on_c, 0, 65, 0
2, 215014, Note_on_c, 0, 58, 0
2, 215032, Note_on_c, 0, 36, 0
2, 215049, Note_on_c, 0, 67, 0
2, 215093, Note_on_c, 0, 48, 66
2, 215125, Control_c, 0, 64, 29
2, 215168, Note_on_c, 0, 48, 0
2, 215204, Note_on_c, 0, 60, 77
2, 215213, Note_on_c, 0, 64, 78
2, 215217, Note_on_c, 0, 55, 80
2, 215234, Note_on_c, 0, 60, 0
2, 215247, Note_on_c, 0, 64, 0
2, 215252, Note_on_c, 0, 55, 0
2, 215329, Note_on_c, 0, 48, 78
2, 215394, Control_c, 0, 64, 30
2, 215438, Note_on_c, 0, 48, 0
2, 215456, Note_on_c, 0, 69, 84
2, 215464, Note_on_c, 0, 36, 73
2, 215464, Note_on_c, 0, 65, 81
2, 215527, Control_c, 0, 64, 29
2, 215584, Note_on_c, 0, 36, 0
2, 215602, Note_on_c, 0, 38, 67
2, 215718, Control_c, 0, 64, 30
2, 215721, Note_on_c, 0, 40, 75
2, 215733, Note_on_c, 0, 38, 0
2, 215757, Control_c, 0, 64, 31
2, 215777, Control_c, 0, 64, 32
2, 215825, Note_on_c, 0, 41, 85
2, 215833, Control_c, 0, 64, 33
2, 215854, Control_c, 0, 64, 34
2, 215858, Note_on_c, 0, 65, 0
2, 215867, Note_on_c, 0, 40, 0
2, 215871, Control_c, 0, 64, 35
2, 215910, Control_c, 0, 64, 36
2, 215939, Note_on_c, 0, 41, 0
2, 215943, Note_on_c, 0, 64, 88
2, 215943, Note_on_c, 0, 67, 89
2, 215948, Note_on_c, 0, 43, 83
2, 215986, Note_on_c, 0, 69, 0
2, 216028, Note_on_c, 0, 43, 0
2, 216063, Control_c, 0, 64, 35
2, 216068, Note_on_c, 0, 45, 88
2, 216100, Control_c, 0, 64, 34
2, 216122, Control_c, 0, 64, 33
2, 216162, Control_c, 0, 64, 32
2, 216189, Note_on_c, 0, 47, 90
2, 216199, Control_c, 0, 64, 31
2, 216210, Note_on_c, 0, 45, 0
2, 216236, Note_on_c, 0, 67, 0
2, 216246, Note_on_c, 0, 64, 0
2, 216260, Control_c, 0, 64, 30
2, 216260, Note_on_c, 0, 47, 0
2, 216308, Note_on_c, 0, 48, 87
2, 216385, Note_on_c, 0, 48, 0
2, 216410, Control_c, 0, 64, 29
2, 216440, Note_on_c, 0, 36, 89
2, 216501, Note_on_c, 0, 36, 0
2, 216505, Control_c, 0, 64, 28
2, 216572, Note_on_c, 0, 48, 73
2, 216644, Note_on_c, 0, 48, 0
2, 216686, Note_on_c, 0, 65, 76
2, 216696, Note_on_c, 0, 50, 82
2, 216736, Note_on_c, 0, 50, 0
2, 216774, Control_c, 0, 64, 29
2, 216788, Note_on_c, 0, 64, 85
2, 216807, Note_on_c, 0, 65, 0
2, 216811, Note_on_c, 0, 48, 83
2, 216905, Note_on_c, 0, 48, 0
2, 216924, Note_on_c, 0, 36, 80
2, 216924, Note_on_c, 0, 64, 0
2, 216929, Note_on_c, 0, 64, 41
2, 216929, Note_on_c, 0, 65, 80
2, 216956, Note_on_c, 0, 64, 0
2, 216967, Note_on_c, 0, 65, 0
2, 216972, Note_on_c, 0, 36, 0
2, 217043, Note_on_c, 0, 48, 71
2, 217107, Note_on_c, 0, 48, 0
2, 217161, Note_on_c, 0, 62, 90
2, 217171, Note_on_c, 0, 53, 66
2, 217175, Note_on_c, 0, 52, 71
2, 217215, Note_on_c, 0, 53, 0
2, 217215, Note_on_c, 0, 62, 0
2, 217219, Note_on_c, 0, 52, 0
2, 217289, Note_on_c, 0, 48, 75
2, 217404, Note_on_c, 0, 67, 92
2, 217417, Note_on_c, 0, 47, 85
2, 217424, Note_on_c, 0, 48, 0
2, 217502, Note_on_c, 0, 47, 0
2, 217555, Note_on_c, 0, 48, 76
2, 217658, Note_on_c, 0, 48, 0
2, 217663, Note_on_c, 0, 47, 80
2, 217667, Note_on_c, 0, 62, 79
2, 217681, Note_on_c, 0, 67, 0
2, 217717, Control_c, 0, 64, 30
2, 217770, Note_on_c, 0, 60, 83
2, 217777, Note_on_c, 0, 45, 81
2, 217791, Note_on_c, 0, 47, 0
2, 217791, Note_on_c, 0, 62, 0
2, 217862, Note_on_c, 0, 45, 0
2, 217889, Note_on_c, 0, 65, 85
2, 217897, Note_on_c, 0, 62, 89
2, 217908, Control_c, 0, 64, 31
2, 217908, Note_on_c, 0, 43, 86
2, 217927, Note_on_c, 0, 60, 0
2, 217983, Control_c, 0, 64, 32
2, 218015, Note_on_c, 0, 41, 89
2, 218039, Note_on_c, 0, 43, 0
2, 218066, Note_on_c, 0, 62, 0
2, 218080, Control_c, 0, 64, 33
2, 218140, Note_on_c, 0, 40, 80
2, 218140, Note_on_c, 0, 55, 73
2, 218152, Note_on_c, 0, 41, 0
2, 218256, Note_on_c, 0, 38, 79
2, 218256, Note_on_c, 0, 40, 0
2, 218264, Note_on_c, 0, 55, 0
2, 218331, Note_on_c, 0, 38, 0
2, 218368, Note_on_c, 0, 36, 85
2, 218380, Note_on_c, 0, 60, 80
2, 218387, Note_on_c, 0, 64, 76
2, 218406, Control_c, 0, 64, 32
2, 218413, Note_on_c, 0, 60, 0
2, 218431, Note_on_c, 0, 64, 0
2, 218438, Note_on_c, 0, 65, 0
2, 218484, Note_on_c, 0, 36, 0
2, 218488, Note_on_c, 0, 48, 85
2, 218532, Note_on_c, 0, 48, 0
2, 218638, Control_c, 0, 64, 31
2, 218642, Note_on_c, 0, 68, 95
2, 218646, Note_on_c, 0, 50, 81
2, 218651, Note_on_c, 0, 59, 82
2, 218651, Note_on_c, 0, 65, 79
2, 218698, Note_on_c, 0, 59, 0
2, 218700, Note_on_c, 0, 65, 0
2, 218708, Note_on_c, 0, 50, 0
2, 218719, Note_on_c, 0, 68, 0
2, 218756, Note_on_c, 0, 48, 78
2, 218865, Note_on_c, 0, 48, 0
2, 218878, Note_on_c, 0, 67, 89
2, 218886, Note_on_c, 0, 64, 86
2, 218888, Note_on_c, 0, 52, 80
2, 218895, Note_on_c, 0, 60, 81
2, 218923, Note_on_c, 0, 64, 0
2, 218947, Note_on_c, 0, 67, 0
2, 218959, Note_on_c, 0, 60, 0
2, 218970, Note_on_c, 0, 52, 0
2, 219006, Note_on_c, 0, 48, 81
2, 219078, Control_c, 0, 64, 32
2, 219105, Note_on_c, 0, 48, 0
2, 219123, Note_on_c, 0, 68, 94
2, 219127, Note_on_c, 0, 53, 85
2, 219127, Note_on_c, 0, 71, 87
2, 219144, Note_on_c, 0, 62, 75
2, 219169, Note_on_c, 0, 60, 49
2, 219190, Note_on_c, 0, 62, 0
2, 219199, Note_on_c, 0, 71, 0
2, 219203, Note_on_c, 0, 60, 0
2, 219221, Note_on_c, 0, 68, 0
2, 219225, Note_on_c, 0, 53, 0
2, 219250, Note_on_c, 0, 48, 79
2, 219344, Note_on_c, 0, 48, 0
2, 219381, Note_on_c, 0, 55, 73
2, 219385, Note_on_c, 0, 64, 84
2, 219385, Note_on_c, 0, 67, 92
2, 219385, Note_on_c, 0, 72, 95
2, 219427, Note_on_c, 0, 64, 0
2, 219457, Note_on_c, 0, 67, 0
2, 219466, Note_on_c, 0, 72, 0
2, 219475, Note_on_c, 0, 55, 0
2, 219495, Note_on_c, 0, 48, 76
2, 219616, Note_on_c, 0, 65, 91
2, 219628, Note_on_c, 0, 62, 80
2, 219633, Note_on_c, 0, 48, 0
2, 219633, Note_on_c, 0, 56, 87
2, 219684, Note_on_c, 0, 62, 0
2, 219693, Note_on_c, 0, 65, 0
2, 219712, Note_on_c, 0, 56, 0
2, 219748, Note_on_c, 0, 48, 73
2, 219830, Note_on_c, 0, 48, 0
2, 219868, Note_on_c, 0, 55, 89
2, 219872, Note_on_c, 0, 64, 85
2, 219876, Note_on_c, 0, 60, 80
2, 219926, Note_on_c, 0, 60, 0
2, 219943, Note_on_c, 0, 64, 0
2, 219994, Note_on_c, 0, 48, 77
2, 220028, Note_on_c, 0, 55, 0
2, 220125, Note_on_c, 0, 48, 0
2, 220129, Note_on_c, 0, 64, 90
2, 220129, Note_on_c, 0, 72, 95
2, 220138, Note_on_c, 0, 47, 68
2, 220155, Control_c, 0, 64, 31
2, 220187, Note_on_c, 0, 64, 0
2, 220196, Note_on_c, 0, 72, 0
2, 220210, Note_on_c, 0, 47, 0
2, 220253, Note_on_c, 0, 48, 82
2, 220322, Note_on_c, 0, 48, 0
2, 220371, Note_on_c, 0, 62, 90
2, 220376, Note_on_c, 0, 57, 84
2, 220385, Note_on_c, 0, 41, 92
2, 220418, Note_on_c, 0, 57, 0
2, 220423, Control_c, 0, 64, 32
2, 220433, Note_on_c, 0, 62, 0
2, 220449, Note_on_c, 0, 41, 0
2, 220464, Control_c, 0, 64, 31
2, 220656, Note_on_c, 0, 72, 103
2, 220691, Control_c, 0, 64, 30
2, 220729, Control_c, 0, 64, 29
2, 220839, Note_on_c, 0, 72, 0
2, 220940, Control_c, 0, 64, 28
2, 220962, Control_c, 0, 64, 27
2, 220962, Note_on_c, 0, 65, 88
2, 220966, Note_on_c, 0, 43, 78
2, 220966, Note_on_c, 0, 55, 80
2, 220966, Note_on_c, 0, 62, 87
2, 220982, Control_c, 0, 64, 25
2, 221000, Control_c, 0, 64, 24
2, 221018, Control_c, 0, 64, 23
2, 221108, Note_on_c, 0, 55, 0
2, 221111, Note_on_c, 0, 65, 0
2, 221133, Note_on_c, 0, 62, 0
2, 221137, Control_c, 0, 64, 24
2, 221144, Note_on_c, 0, 43, 0
2, 221307, Note_on_c, 0, 71, 104
2, 221402, Control_c, 0, 64, 25
2, 221441, Control_c, 0, 64, 26
2, 221463, Control_c, 0, 64, 28
2, 221478, Control_c, 0, 64, 29
2, 221498, Control_c, 0, 64, 30
2, 221512, Note_on_c, 0, 71, 0
2, 221575, Control_c, 0, 64, 31
2, 221595, Control_c, 0, 64, 32
2, 221696, Control_c, 0, 64, 33
2, 221738, Note_on_c, 0, 72, 101
2, 221742, Note_on_c, 0, 36, 70
2, 221742, Note_on_c, 0, 60, 90
2, 221742, Note_on_c, 0, 64, 92
2, 221742, Note_on_c, 0, 67, 91
2, 221756, Control_c, 0, 64, 32
2, 221771, Control_c, 0, 64, 28
2, 221791, Control_c, 0, 64, 22
2, 221813, Control_c, 0, 64, 12
2, 221830, Control_c, 0, 64, 0
2, 223823, Note_on_c, 0, 60, 0
2, 223823, Note_on_c, 0, 64, 0
2, 223827, Note_on_c, 0, 36, 0
2, 223827, Note_on_c, 0, 67, 0
2, 223827, Note_on_c, 0, 72, 0
2, 223828, End_track
0, 0, End_of_file
